P2
92
112
255
98 100 99 100 100 96 99 99 97 99 99 99 98 98 102 96 100 99 99 99 97 97 97 91 92 95 91 88 92 95 82 78 74 71 80 77 70 73 89 95 97 89 85 82 79 70 58 50 57 47 43 49 51 61 62 70 71 80 87 79 85 86 89 92 90 99 95 97 95 96 95 94 98 95 93 94 95 94 93 95 93 95 95 96 89 98 88 95 96 93 92 96 97 103 99 99 100 99 97 97 99 102 98 99 98 97 100 99 98 99 101 96 94 95 95 92 94 88 86 81 72 72 70 70 78 78 77 68 59 68 75 79 80 80 87 95 82 70 55 57 56 53 47 57 60 65 64 58 59 63 66 58 62 71 76 74 77 84 90 91 93 93 97 94 93 98 92 95 96 95 92 95 94 94 95 93 93 95 91 94 93 94 93 96 98 97 98 98 102 98 97 102 95 101 98 99 98 99 98 97 98 97 91 89 92 91 93 93 94 85 70 54 56 54 63 64 80 77 68 58 65 64 62 65 77 81 76 74 61 50 47 55 54 64 66 65 65 59 58 54 54 61 58 56 54 57 62 61 62 69 74 87 88 91 95 88 97 94 95 95 94 95 94 95 96 93 91 95 90 95 95 94 94 92 93 95 101 99 99 99 100 101 102 99 100 98 99 99 102 96 95 89 90 78 82 83 82 73 76 78 81 63 49 50 37 59 75 69 62 60 60 51 48 41 43 50 53 60 57 59 47 45 50 52 60 69 71 63 61 67 56 51 50 58 60 57 54 62 70 58 52 56 58 71 75 87 92 93 93 98 92 97 90 97 91 97 93 96 92 98 89 96 96 95 94 92 94 95 99 101 97 98 101 99 98 102 95 99 95 95 92 85 78 72 73 70 72 74 73 72 69 57 56 47 41 39 36 48 55 60 63 59 72 68 61 39 39 41 46 55 53 55 51 61 54 62 61 63 70 83 78 76 68 66 53 56 57 63 56 55 53 48 48 51 54 66 66 65 85 89 97 92 96 91 94 94 93 94 94 91 96 96 96 91 95 95 95 95 93 91 102 101 99 100 101 99 96 97 98 94 80 73 73 66 68 66 69 73 74 71 61 67 56 52 39 39 51 40 41 42 42 42 50 50 55 55 48 49 48 52 43 59 67 83 75 61 65 66 70 68 72 76 75 63 58 71 67 78 66 69 59 48 47 50 44 50 53 53 53 58 59 68 75 93 93 95 94 95 95 93 95 93 92 99 95 95 95 94 95 98 90 96 102 99 99 100 99 98 97 98 89 79 70 76 76 79 72 76 65 58 61 54 47 51 48 33 44 45 47 58 53 61 55 58 72 80 71 71 66 54 47 59 56 61 62 69 69 72 79 78 81 71 66 62 69 82 89 89 92 74 75 66 59 59 46 46 47 42 43 43 40 47 54 53 55 69 89 97 93 92 96 90 97 92 95 94 91 95 94 92 92 97 93 96 102 99 100 99 98 99 99 99 84 78 81 78 74 65 60 58 55 66 59 53 47 48 44 37 38 40 51 47 58 72 67 83 79 82 72 69 68 66 63 62 61 64 63 55 68 74 77 70 71 68 61 64 67 78 79 85 93 86 77 66 58 53 49 51 48 46 48 44 33 41 49 55 49 52 60 82 93 92 96 96 92 98 91 93 93 93 95 91 95 93 94 91 100 99 98 99 95 102 96 100 79 71 61 62 49 52 44 48 54 63 47 52 54 43 41 33 43 39 41 34 44 47 65 69 61 57 53 48 53 64 64 62 67 69 67 64 59 68 72 68 73 66 65 55 56 69 77 77 81 73 70 58 57 51 53 46 51 38 48 53 51 41 43 48 45 50 50 54 64 82 93 87 97 93 94 96 92 96 94 92 95 93 95 90 101 99 101 101 99 98 97 84 77 62 50 51 53 54 49 59 58 54 39 58 45 41 35 36 31 38 42 39 55 52 62 59 51 44 49 45 61 69 63 56 55 50 48 50 49 54 54 63 58 49 59 66 66 69 80 85 86 79 72 66 64 65 63 62 54 50 47 51 52 60 49 46 41 40 45 47 57 52 75 86 91 96 96 94 91 94 97 93 95 94 92 97 101 98 100 97 97 98 84 85 71 57 58 48 52 58 64 56 53 44 43 54 46 41 36 32 36 35 37 40 44 41 44 61 58 68 76 65 68 60 54 55 57 54 51 67 67 67 64 56 54 49 61 58 63 75 78 77 78 74 66 72 72 82 74 58 53 46 41 40 43 45 52 37 50 48 45 49 52 38 45 56 81 92 94 94 95 93 94 94 92 95 92 90 98 98 101 98 98 96 78 80 70 62 63 55 51 65 64 53 48 51 45 58 53 44 41 34 37 39 45 48 42 46 56 59 61 65 65 69 59 56 45 68 72 64 60 75 69 72 68 60 57 54 69 57 77 83 85 86 79 69 63 68 59 65 60 54 54 46 36 36 41 40 45 42 39 40 48 41 45 41 37 36 50 84 94 91 97 94 93 91 97 91 93 94 101 98 102 95 95 77 76 74 62 68 51 59 65 54 59 56 55 53 56 54 58 47 49 40 46 55 49 48 41 41 53 54 55 63 70 65 60 57 52 50 51 67 66 70 73 69 63 56 51 50 60 62 86 80 82 68 62 55 53 44 53 54 62 64 52 48 46 49 44 44 32 39 37 32 36 46 35 47 33 31 31 49 92 92 97 96 97 93 95 90 95 95 100 98 101 97 79 84 75 67 66 47 59 66 62 60 63 79 73 59 56 58 48 40 50 43 40 37 39 38 41 36 37 36 35 49 54 60 52 54 62 53 70 71 62 58 56 65 49 48 46 49 61 63 80 77 66 57 50 52 52 45 49 60 63 50 48 54 61 69 54 52 53 45 46 40 45 57 41 40 33 29 28 29 67 91 93 95 94 93 97 93 94 92 95 104 99 85 79 87 74 74 63 63 74 68 72 75 79 80 82 72 85 77 66 59 42 46 41 49 42 37 34 36 42 37 38 52 56 60 53 58 69 69 64 57 52 44 52 55 53 57 52 46 51 58 69 51 48 52 51 64 55 49 58 56 54 53 56 57 57 63 51 48 49 46 43 54 47 45 40 30 41 36 38 27 46 82 95 93 95 94 98 91 94 95 104 101 89 79 92 82 75 65 66 76 72 70 91 82 88 72 76 87 100 75 68 77 63 50 41 49 52 51 37 32 36 35 35 43 43 50 47 59 69 63 61 55 65 67 65 55 43 52 46 49 48 59 57 58 52 55 65 75 73 61 64 62 58 62 61 55 67 66 68 46 48 46 45 49 44 36 34 34 33 35 40 29 29 73 92 95 92 94 94 92 92 96 98 98 84 78 84 77 68 75 72 74 80 80 87 102 97 97 90 111 107 96 77 80 70 58 64 51 51 57 60 41 48 51 46 40 54 51 47 46 66 66 64 79 69 68 44 40 36 38 56 69 73 72 82 74 85 77 78 77 69 60 73 61 60 49 53 55 63 54 45 47 47 48 54 54 58 52 52 51 44 35 33 29 25 73 96 95 93 92 96 94 93 92 101 98 70 76 79 81 70 83 72 82 85 99 104 110 91 98 97 104 109 118 93 84 81 63 73 59 60 67 64 59 61 64 67 69 79 85 82 78 78 78 64 62 50 46 46 44 55 60 71 74 82 88 95 99 95 90 69 59 49 52 58 56 60 56 70 63 69 56 42 41 53 60 58 53 57 47 44 40 43 43 41 29 20 63 89 100 94 94 94 96 94 95 106 88 70 66 93 78 91 77 86 78 87 120 111 108 96 104 101 93 100 107 114 117 95 88 89 87 74 70 84 80 80 73 75 81 93 90 73 69 61 52 50 57 57 57 68 61 59 67 81 82 75 92 93 91 80 67 61 58 54 47 54 62 66 77 67 61 54 42 46 44 51 54 52 55 41 41 33 31 34 48 38 44 30 45 82 94 96 92 95 92 98 93 103 89 65 64 79 96 89 102 82 92 99 116 113 114 106 93 100 92 96 87 86 95 104 102 99 101 93 74 68 69 65 65 51 61 63 60 55 56 49 54 61 66 71 74 66 70 70 68 61 52 71 72 81 69 63 54 53 54 51 55 67 59 65 58 59 48 51 48 44 55 63 61 60 65 53 54 45 32 29 28 32 34 38 33 51 88 95 95 89 97 91 95 104 84 61 66 70 96 94 90 88 99 115 107 115 109 105 102 99 106 103 91 84 84 87 96 107 117 112 101 90 83 61 67 60 58 61 52 50 52 58 61 66 77 82 80 66 61 62 63 54 50 56 67 64 53 54 53 52 58 62 51 59 54 55 58 58 57 60 58 58 66 72 66 59 58 56 56 47 38 34 36 27 33 29 38 26 66 89 96 96 91 94 95 99 81 61 56 74 83 103 87 107 108 109 99 117 121 116 110 97 107 105 82 81 86 88 90 99 102 98 106 114 110 96 86 72 63 65 57 50 50 64 69 75 86 82 69 57 52 60 55 49 44 52 53 46 58 57 51 59 60 47 50 48 58 56 57 59 54 73 57 61 56 66 60 52 48 44 50 46 43 36 37 37 33 34 32 31 43 81 95 94 94 92 97 99 76 56 54 64 82 87 104 119 105 109 112 133 118 106 93 100 88 110 81 82 74 89 94 107 108 92 101 96 96 81 82 78 77 74 75 69 63 68 77 65 59 48 52 43 52 41 40 41 40 41 41 42 54 56 58 51 54 55 45 53 58 53 57 56 61 64 72 64 66 69 66 60 53 53 40 46 42 40 33 38 33 36 42 32 29 62 94 96 96 92 92 92 75 48 59 55 82 95 116 106 110 112 124 110 96 81 84 75 100 100 95 83 83 78 80 87 94 96 96 105 97 85 82 79 70 68 60 65 59 57 59 53 50 49 46 44 44 36 38 39 32 40 38 51 57 60 52 53 58 66 70 77 70 67 74 77 78 76 74 81 76 72 69 62 59 55 49 46 40 31 38 31 33 32 43 39 33 35 89 94 93 92 92 88 70 52 51 65 77 111 105 109 103 115 108 81 76 65 77 63 92 102 100 96 99 88 87 86 94 96 95 96 82 77 65 76 65 81 67 55 57 49 44 46 45 38 39 34 42 32 31 37 34 46 51 49 60 61 48 51 58 67 84 90 83 77 72 77 74 71 71 69 72 65 61 63 54 58 51 51 50 41 30 39 29 26 41 43 36 25 77 94 94 92 92 91 66 55 46 63 98 94 114 102 104 83 65 75 64 76 65 76 82 99 100 101 106 102 100 101 106 99 100 106 106 96 84 77 77 69 72 51 53 46 47 40 51 43 40 38 39 43 44 45 50 59 60 62 57 58 65 73 85 99 108 104 98 94 79 78 73 78 77 74 71 63 57 55 48 55 54 48 63 52 34 27 31 20 37 40 34 30 59 85 95 91 96 86 59 49 45 78 105 93 108 98 85 47 46 66 69 60 67 73 79 85 108 106 105 101 98 105 110 115 109 111 102 92 85 77 73 67 64 56 49 53 47 59 50 60 50 51 50 54 50 51 57 62 65 65 67 85 94 95 104 105 92 84 84 78 72 63 58 57 66 72 62 57 63 62 46 41 47 44 40 50 56 28 21 25 36 45 43 30 48 75 94 95 90 82 54 51 47 82 99 106 100 91 50 55 56 58 61 41 54 66 70 73 98 103 108 105 106 111 110 106 104 107 103 93 91 86 81 77 73 66 60 59 51 49 57 59 51 64 64 60 52 60 50 60 70 87 89 103 97 108 94 89 79 72 71 71 68 67 60 58 51 67 80 59 64 75 77 45 55 40 39 34 56 34 25 17 30 35 36 41 37 63 93 93 94 73 49 43 49 94 98 111 88 68 49 48 36 35 33 31 42 65 61 78 97 104 95 95 97 97 107 103 91 85 85 80 79 83 88 79 80 71 76 76 73 65 57 64 62 53 66 75 66 76 65 80 73 86 97 102 102 113 97 88 83 74 75 71 70 64 49 54 45 49 69 101 77 81 96 87 58 55 46 35 32 42 19 22 20 28 23 35 41 40 84 98 94 67 42 45 54 97 100 113 71 51 50 27 26 25 24 33 56 58 74 101 116 110 97 92 90 80 97 88 83 75 70 71 67 67 80 79 81 83 76 71 83 89 83 82 76 75 77 86 94 104 96 101 95 94 106 116 104 102 94 85 76 76 70 61 56 60 56 51 44 46 49 65 98 83 83 96 87 66 63 40 25 32 27 23 21 25 23 25 34 32 55 99 94 68 43 54 50 95 102 102 70 53 34 25 23 24 23 40 60 56 90 117 121 121 105 97 93 90 77 83 86 83 73 76 77 68 72 76 73 82 79 77 82 81 93 95 88 86 94 92 106 98 100 96 97 102 100 100 101 88 81 74 71 66 64 61 60 57 67 58 50 47 46 46 58 89 71 73 91 82 72 49 44 33 39 32 25 26 20 26 31 37 44 87 94 69 54 49 50 92 103 95 64 49 33 26 23 25 22 39 61 66 112 127 127 122 117 107 93 95 80 76 81 90 87 85 88 82 76 80 78 76 81 81 88 81 93 101 100 101 98 106 107 110 102 112 109 99 102 97 97 84 77 78 81 77 73 73 70 63 70 59 52 53 40 38 36 58 82 58 74 88 81 50 53 36 43 35 30 28 21 26 33 28 41 79 94 83 56 47 53 91 103 92 61 37 37 25 22 24 26 48 55 88 119 129 133 127 128 113 109 89 91 75 84 70 94 94 90 85 80 84 84 80 80 82 81 81 77 84 83 103 107 104 103 104 100 94 95 86 74 76 63 69 73 76 78 88 83 78 81 77 72 67 57 49 47 42 33 41 65 73 54 68 73 75 47 43 36 40 39 33 25 26 27 28 37 68 95 74 56 45 54 83 103 90 63 42 34 22 28 27 27 42 67 98 125 134 135 131 126 123 114 103 95 81 86 80 78 83 83 80 90 88 84 86 79 86 76 80 82 83 78 81 84 79 81 77 85 82 71 67 65 66 70 69 72 82 81 87 93 87 90 87 76 72 64 53 50 45 40 38 48 57 56 57 61 72 57 41 36 35 39 36 26 28 29 28 22 64 92 68 49 45 42 87 93 91 66 45 29 24 23 28 33 43 73 105 126 137 139 134 131 125 121 112 104 96 85 84 76 77 86 77 84 90 87 86 81 80 85 75 83 85 83 85 79 75 78 74 75 74 72 67 69 72 79 81 88 91 96 94 95 99 94 90 89 81 69 59 50 47 51 33 41 54 45 48 52 58 66 43 37 36 34 38 31 32 26 36 32 45 84 65 49 49 39 77 87 87 71 52 34 27 24 32 41 45 77 112 128 141 141 138 134 131 131 122 112 105 99 86 80 77 76 81 82 87 91 91 89 86 82 79 68 78 83 91 87 87 81 76 77 71 74 76 76 79 88 98 100 111 112 109 108 105 107 98 95 90 70 68 58 52 48 46 39 45 45 45 47 47 62 53 44 34 35 40 45 41 35 35 30 38 80 54 52 59 36 63 84 81 75 61 45 31 28 27 42 48 79 117 135 139 141 141 138 137 131 128 121 107 102 98 91 81 85 70 73 83 83 90 98 89 90 90 80 81 89 98 89 94 87 82 84 80 81 87 84 94 97 105 104 117 118 119 116 114 113 110 101 97 87 71 65 56 46 47 43 49 41 40 47 39 53 50 44 39 37 35 44 41 48 38 39 30 64 60 44 57 41 47 81 69 80 57 43 48 25 32 36 53 77 120 134 135 145 147 141 139 141 129 126 117 103 95 100 92 88 80 70 72 80 85 91 99 98 95 97 90 97 105 107 109 101 100 93 95 96 98 102 105 110 108 105 113 125 124 123 124 118 116 110 101 91 78 70 62 47 45 40 42 44 35 41 41 41 52 40 32 31 44 34 49 47 41 35 30 52 54 57 52 50 43 74 68 66 70 53 42 34 34 41 50 89 117 131 141 148 146 145 143 143 136 132 124 109 108 94 101 94 86 83 71 84 88 90 91 93 93 97 100 108 104 113 118 119 111 111 105 108 113 112 114 117 114 115 112 127 124 128 129 124 123 119 110 96 85 75 61 55 43 40 40 41 29 45 44 37 42 37 28 31 39 35 43 39 38 35 39 60 53 61 40 48 48 52 80 64 67 66 48 36 42 39 50 90 120 131 140 146 149 150 147 146 140 128 128 113 111 103 99 102 99 88 83 87 92 92 99 100 92 95 105 112 118 115 127 125 124 125 122 122 121 123 122 122 123 120 127 121 125 124 130 127 130 120 117 110 89 74 64 55 52 41 37 46 23 43 37 36 25 39 30 28 35 35 34 32 46 36 35 71 58 45 43 43 50 40 61 69 64 65 59 50 48 43 51 91 120 131 141 147 152 154 148 145 142 137 126 122 111 110 102 104 109 103 98 96 95 102 96 105 101 105 108 119 124 128 134 131 135 134 132 132 126 128 130 126 126 125 129 126 127 123 127 120 128 120 114 116 95 82 62 58 57 46 45 36 27 29 43 26 24 31 34 33 27 37 36 31 45 39 40 52 44 46 40 49 48 36 47 58 59 61 70 62 54 56 56 87 115 130 143 149 156 155 153 151 144 144 134 127 117 115 106 105 107 107 106 109 101 111 108 113 110 108 119 124 130 140 142 149 145 140 139 138 135 135 130 128 134 130 128 128 127 124 127 119 123 122 114 114 103 89 71 65 52 60 40 34 31 25 37 28 21 26 28 32 34 32 40 39 39 36 32 57 43 53 46 51 43 32 40 41 47 57 52 63 63 61 70 87 112 131 145 152 158 159 154 157 151 146 146 134 132 121 106 108 108 109 107 112 115 115 120 118 120 116 123 124 131 143 152 156 159 152 147 142 141 141 136 136 134 133 130 132 130 130 128 124 122 120 119 109 109 92 84 70 64 63 51 32 31 34 27 29 24 25 31 31 31 31 35 45 42 33 24 45 43 48 47 36 42 35 33 40 35 40 50 47 52 53 63 89 104 134 148 153 160 160 155 156 157 151 151 145 138 128 119 111 111 113 113 115 115 119 119 125 125 127 128 125 130 141 150 158 162 163 154 153 148 142 145 139 140 140 135 133 137 132 130 132 123 125 115 110 110 101 87 86 70 67 50 34 32 34 32 33 26 20 26 31 32 28 28 35 42 36 29 33 54 55 47 33 49 27 34 34 29 32 42 45 36 51 60 84 106 131 147 149 155 155 151 151 149 147 154 144 143 135 128 122 117 118 114 116 113 119 119 123 128 128 131 133 135 139 147 152 159 162 158 154 153 151 146 144 143 145 144 137 140 134 132 135 129 126 120 112 114 104 95 86 78 74 55 41 27 33 31 31 32 20 22 29 28 28 29 27 35 36 30 30 53 51 41 39 40 36 30 34 30 27 32 30 40 50 73 88 98 127 131 127 132 132 129 134 136 138 141 139 136 129 131 124 119 117 120 118 115 118 121 123 125 131 129 130 134 140 144 148 155 155 156 152 151 154 151 150 142 143 139 133 133 119 123 120 114 116 117 112 109 112 104 87 87 82 68 42 34 27 27 27 28 25 19 25 34 20 23 31 30 30 32 18 51 49 46 44 34 37 32 31 28 26 26 31 34 53 73 81 96 104 109 105 98 93 97 104 110 111 116 112 120 114 118 116 120 118 117 118 118 122 121 121 126 128 124 129 130 139 138 146 149 144 145 141 142 140 140 137 129 123 121 116 112 104 102 99 100 90 96 96 90 97 101 102 88 90 79 48 36 30 28 27 29 28 27 21 29 30 21 27 33 32 30 18 50 51 31 34 36 40 28 30 27 21 23 27 40 56 68 77 91 97 91 85 79 73 65 71 82 81 87 80 88 93 103 95 111 117 120 112 121 126 124 122 125 125 119 124 124 136 130 141 140 133 133 130 125 114 111 110 106 98 97 93 89 89 90 84 85 83 87 93 92 83 87 94 96 89 85 57 36 27 28 23 29 28 29 27 23 35 25 24 31 30 32 23 61 40 31 29 45 36 27 23 30 22 13 29 49 58 64 71 84 91 87 77 82 77 68 60 61 63 62 60 61 67 77 83 86 104 110 113 113 123 125 124 124 122 112 118 124 129 126 132 131 119 120 110 107 94 88 88 79 81 75 79 77 76 78 76 81 87 84 88 85 81 82 84 86 90 84 65 40 28 24 25 25 27 37 29 22 33 31 25 33 29 27 36 69 39 30 37 49 40 26 27 25 19 14 31 54 60 63 77 82 88 82 86 86 91 81 82 66 65 58 57 51 63 61 74 80 86 95 103 107 117 125 117 121 114 111 112 117 119 121 121 121 107 101 97 84 83 71 74 58 62 57 63 65 69 77 89 90 92 90 91 87 81 79 84 76 80 84 72 49 30 23 20 28 23 35 34 28 30 34 29 30 32 23 46 71 43 35 41 52 43 28 30 22 22 13 31 58 54 66 82 85 91 91 92 99 101 101 98 84 83 77 70 59 59 64 70 72 78 80 90 96 107 116 119 117 116 110 112 112 113 118 109 105 99 85 87 71 69 65 65 54 63 56 67 76 90 95 109 107 112 103 100 90 88 88 85 88 77 82 81 61 38 23 17 26 22 35 33 36 29 32 35 29 32 25 44 81 50 38 51 45 49 35 26 19 19 13 25 61 65 71 87 89 90 101 113 116 119 117 114 107 99 98 91 81 72 71 72 70 71 77 75 83 90 104 113 119 118 116 116 112 111 108 94 94 85 76 69 72 66 64 67 68 69 74 82 95 96 109 113 116 116 113 107 103 91 92 91 96 88 79 84 74 46 29 18 19 25 32 36 35 35 30 35 31 27 29 52 76 46 51 43 51 53 31 24 19 16 13 26 77 74 76 89 87 100 110 120 118 123 118 115 111 104 98 92 84 83 77 74 72 72 71 66 71 79 93 115 127 132 128 128 124 117 107 91 80 73 64 65 68 67 71 70 71 69 77 82 87 100 101 111 113 116 114 106 108 100 88 93 98 95 84 86 86 60 26 20 23 19 29 34 30 35 31 34 32 27 29 63 66 42 47 43 48 50 31 23 22 19 13 32 92 85 86 92 92 104 110 109 107 105 102 94 83 76 67 59 60 62 67 72 68 71 70 68 62 64 80 112 133 154 146 141 142 131 107 85 68 65 60 65 62 71 65 67 72 71 67 59 61 70 72 82 88 97 98 103 104 104 96 95 102 101 93 84 92 79 33 22 20 21 21 33 32 33 35 35 31 27 37 70 64 49 39 47 44 51 33 22 19 22 7 55 100 99 99 96 99 104 85 88 98 97 89 76 55 47 44 36 33 48 64 65 66 71 67 67 62 58 59 102 140 167 169 159 155 142 108 78 62 60 63 67 64 66 65 73 62 70 61 36 42 40 49 37 55 71 92 97 80 93 103 95 107 106 100 91 92 88 50 24 18 22 20 30 35 41 33 35 31 27 51 78 73 52 38 40 36 52 41 22 23 25 13 77 106 106 107 101 101 89 65 84 91 83 91 73 50 37 35 35 25 57 81 76 71 65 73 72 68 63 46 105 140 172 180 171 168 149 111 84 69 62 72 72 69 74 67 67 68 87 70 38 33 35 30 36 47 60 69 84 83 68 95 102 104 105 104 99 96 96 61 34 20 20 21 25 39 39 35 38 28 33 62 81 89 47 30 38 33 44 42 24 25 27 14 87 114 112 113 107 100 86 69 85 92 87 99 91 59 44 28 31 38 72 101 88 79 70 64 79 83 67 62 110 139 171 185 178 173 155 111 91 74 77 86 80 79 69 70 74 79 96 92 53 36 34 27 40 63 73 72 71 77 75 84 101 102 107 105 105 102 99 75 40 27 22 20 22 31 47 46 32 33 31 70 86 99 47 33 39 35 39 45 30 28 23 22 94 122 122 121 117 109 97 98 99 110 110 105 106 88 65 51 53 68 98 102 93 81 80 77 83 91 82 93 125 148 171 182 178 172 156 121 99 89 87 101 95 80 72 69 76 83 93 104 87 55 42 39 69 84 79 88 84 79 81 87 98 101 108 109 106 108 103 88 53 30 24 19 22 28 51 45 32 39 29 74 91 98 49 38 49 33 36 37 28 28 24 27 104 125 130 128 128 120 122 129 118 104 111 124 127 117 108 103 104 107 118 112 108 96 102 104 108 96 108 118 136 158 176 181 178 173 162 126 108 103 97 104 108 97 94 95 92 94 98 108 106 95 79 88 87 92 99 95 91 91 99 95 101 103 113 112 110 108 108 98 60 35 28 23 19 22 51 43 46 43 37 61 100 98 59 47 57 34 43 35 30 24 26 34 107 129 136 140 136 139 138 138 135 113 104 113 122 122 124 121 118 119 116 109 105 99 104 106 109 115 124 132 141 166 183 180 177 172 160 136 108 112 112 108 107 102 106 102 102 97 101 105 107 101 100 104 96 92 98 93 97 104 108 105 106 108 116 114 114 115 105 104 79 36 29 22 20 23 47 55 64 50 41 50 94 98 68 57 71 44 45 39 33 23 22 45 114 128 137 142 148 147 152 142 143 130 111 111 110 111 110 107 102 105 99 103 101 104 104 112 120 134 133 137 143 175 186 182 173 172 169 128 111 114 124 126 114 110 108 106 102 96 96 95 102 96 96 100 99 97 101 102 109 112 114 110 111 114 118 116 118 116 108 106 85 44 29 22 18 24 47 62 96 57 43 49 94 101 80 71 93 46 69 48 37 28 26 39 112 128 142 139 154 159 162 152 145 135 123 118 107 110 103 103 103 102 111 114 118 115 118 130 142 144 139 140 145 174 193 181 171 174 170 129 109 112 132 133 142 131 123 123 112 111 106 104 100 99 99 102 102 103 106 109 114 117 116 115 123 119 121 122 119 116 108 108 97 45 30 25 20 15 59 93 105 75 40 51 101 94 91 88 106 57 107 75 38 32 26 39 109 128 138 143 156 163 160 156 149 142 134 128 128 132 125 120 119 119 120 122 120 123 127 147 147 145 136 142 146 172 195 183 173 172 156 124 110 113 131 138 148 146 137 133 129 125 120 120 120 118 115 114 119 117 120 117 121 123 118 125 122 125 123 125 118 116 106 106 97 46 29 28 21 15 63 107 117 80 40 62 101 94 88 96 123 72 137 103 35 34 25 41 102 126 135 142 156 161 164 160 154 151 144 142 144 144 136 130 126 123 121 122 124 137 146 150 143 139 134 143 143 170 193 186 174 169 152 123 113 114 128 130 146 148 148 138 138 133 134 127 133 138 132 135 136 135 130 131 129 123 122 129 127 131 125 124 121 115 106 103 90 43 28 27 26 19 66 99 123 89 42 64 107 96 93 92 127 93 155 128 47 28 30 33 91 125 134 140 150 161 162 162 160 159 156 153 156 151 146 138 128 124 126 123 141 153 156 145 142 135 134 137 144 166 190 182 174 165 147 123 118 114 117 126 135 146 149 148 143 138 139 129 134 140 145 144 151 142 137 137 133 127 130 129 134 128 132 122 118 113 106 101 87 42 25 26 22 32 65 81 110 106 40 78 98 96 88 88 144 122 157 138 65 28 35 32 89 117 129 138 143 151 153 151 151 154 151 146 149 143 140 131 130 127 132 141 154 154 148 142 135 133 132 137 143 168 188 179 169 160 143 125 118 109 115 121 127 138 144 147 148 146 141 137 132 135 140 145 146 146 139 133 137 124 134 131 134 132 128 124 115 113 106 100 81 37 27 26 28 39 60 69 96 112 57 84 95 97 92 79 152 141 155 144 80 35 37 29 83 111 124 129 140 144 144 142 140 141 138 139 140 133 132 130 136 136 149 152 152 149 144 138 130 133 134 137 145 168 189 179 168 158 142 124 119 111 112 113 123 131 137 140 143 151 154 147 142 139 139 131 139 142 133 133 132 130 134 133 132 134 127 121 113 110 104 99 76 36 26 32 35 47 54 57 81 113 73 98 84 97 89 80 153 149 156 139 102 51 41 24 75 108 117 125 131 136 136 137 135 134 131 136 132 131 133 136 142 147 152 152 149 144 141 135 131 131 137 145 151 172 190 180 171 154 148 131 123 112 111 110 115 123 130 135 136 142 150 154 151 147 142 136 139 131 131 123 130 129 132 136 128 127 123 114 108 106 101 97 69 29 23 55 62 49 53 46 72 107 93 106 77 95 88 82 149 144 155 136 111 81 54 35 64 104 113 119 126 127 127 130 125 128 129 133 128 133 135 139 146 150 148 149 142 140 137 128 126 132 143 149 161 177 191 179 169 155 154 140 131 109 110 107 112 120 123 126 134 140 145 151 150 149 144 139 141 130 125 127 128 129 127 129 126 119 115 109 108 101 97 100 64 29 50 93 89 53 51 43 72 110 106 100 79 94 95 78 149 141 154 146 108 94 96 72 57 105 109 117 119 119 120 123 120 125 125 132 131 138 140 142 146 147 147 144 142 140 135 122 118 135 148 154 162 179 191 182 165 159 155 146 134 107 104 104 105 113 122 122 133 136 144 150 152 154 149 143 138 134 132 129 128 127 124 120 121 114 107 109 103 103 97 97 63 56 97 107 101 61 49 49 73 107 110 105 64 95 91 75 149 137 145 157 115 95 125 141 80 96 110 112 111 113 115 117 121 116 122 127 132 136 142 142 150 145 149 143 139 135 134 112 116 136 153 152 169 181 191 180 166 165 155 148 137 108 105 99 102 106 115 129 133 136 143 150 151 151 148 146 140 141 132 128 125 118 114 115 110 110 105 104 102 101 101 93 81 96 107 104 109 66 46 50 97 108 114 95 62 91 97 74 135 157 128 157 140 119 138 157 117 90 112 110 108 107 112 114 116 124 121 128 132 138 142 145 149 146 147 142 138 133 126 111 123 145 150 153 168 182 186 178 160 164 154 148 132 116 105 98 97 98 114 124 134 136 139 148 143 144 134 135 141 134 127 122 114 109 110 105 106 104 109 106 98 102 98 94 90 105 103 107 104 75 49 82 104 106 112 89 55 93 97 74 116 164 132 131 155 152 160 150 122 88 109 109 108 106 107 107 112 113 116 126 129 133 141 145 144 146 144 141 136 131 119 121 129 146 147 155 164 174 178 166 158 159 152 141 130 110 113 109 91 94 107 123 131 135 137 142 143 143 136 131 136 131 119 112 109 102 108 103 103 105 102 103 103 99 102 91 94 105 101 91 91 94 97 99 100 104 113 70 57 92 96 86 91 153 161 129 132 153 165 158 127 92 110 108 110 109 105 101 101 109 108 119 124 129 133 140 136 145 143 143 138 130 123 130 134 142 147 155 159 164 166 160 152 152 144 134 126 110 114 127 97 88 106 121 126 136 137 138 138 137 133 130 129 124 122 110 106 104 102 102 104 98 102 103 106 100 98 96 94 104 101 91 100 114 111 104 97 111 104 57 53 93 94 95 77 126 170 167 147 144 143 144 127 104 107 114 110 107 111 103 100 108 105 115 116 126 128 136 138 138 143 145 139 132 131 128 132 139 142 153 149 150 151 150 142 140 133 128 116 111 115 128 112 91 101 114 129 131 135 140 133 137 131 127 123 120 112 105 99 104 100 104 98 100 103 105 104 102 97 93 94 98 107 115 112 118 111 106 110 113 80 51 55 92 94 93 92 87 163 171 178 159 151 150 135 122 109 113 109 111 111 105 108 109 107 111 116 125 130 138 138 142 141 144 139 139 134 124 123 124 132 140 141 137 135 135 132 128 123 117 108 106 112 118 116 93 104 116 125 129 133 137 136 132 128 123 117 113 105 100 98 100 96 101 102 98 102 104 104 104 93 98 87 100 94 108 106 110 113 119 120 104 63 46 60 92 94 94 92 78 127 168 179 172 166 160 157 133 113 112 110 110 108 108 113 111 114 114 123 127 130 138 140 145 142 143 139 144 139 111 107 101 114 121 120 119 117 114 113 108 104 98 98 99 104 107 112 97 106 117 125 130 135 133 132 131 122 117 113 103 105 98 97 97 99 98 103 98 104 105 104 103 96 93 87 108 97 107 109 111 117 121 123 88 45 57 53 95 91 96 93 87 90 151 166 167 163 160 159 145 113 112 108 111 104 109 110 116 121 124 124 132 135 140 140 144 146 142 142 148 144 104 96 79 86 94 96 96 99 90 86 87 85 85 87 90 91 103 98 100 106 119 125 130 131 131 129 129 121 113 109 106 99 96 100 97 97 100 97 100 100 103 98 99 99 91 84 111 107 108 113 117 115 120 103 66 47 53 55 93 95 95 93 100 75 118 152 145 150 151 150 133 106 108 113 107 107 102 110 118 120 130 130 134 136 138 141 142 144 141 144 146 156 122 95 61 56 74 83 86 86 82 80 76 72 62 60 70 81 92 96 100 111 122 124 128 134 130 126 128 119 114 107 105 99 104 99 103 96 97 101 97 100 101 99 100 101 87 74 106 109 107 115 114 113 109 82 50 54 54 60 93 95 93 94 95 85 88 118 127 130 132 132 112 92 108 111 106 110 105 110 116 124 133 134 135 137 136 140 141 146 141 149 146 151 155 112 70 48 54 71 75 79 74 73 65 64 51 41 52 71 87 95 105 112 124 131 127 130 129 132 125 120 117 108 105 102 104 99 105 101 91 101 99 96 97 96 99 98 80 66 91 105 103 106 106 104 87 58 52 56 53 58 95 94 94 89 95 95 90 89 104 104 107 107 96 83 104 113 113 108 107 108 117 124 128 135 133 134 142 142 140 143 142 147 149 144 157 123 77 60 67 63 66 66 67 66 64 67 57 58 55 80 99 101 105 112 120 128 131 126 129 127 128 125 114 115 106 104 104 102 102 99 96 94 97 96 98 98 97 98 72 53 81 90 94 97 93 78 57 49 56 52 50 55 95 91 96 93 94 94 94 92 91 98 96 96 97 87 102 116 115 112 110 111 116 124 125 135 134 137 144 143 141 142 142 147 151 151 153 136 95 73 70 72 70 68 67 68 69 76 71 74 84 97 106 112 107 109 118 124 129 124 126 124 125 121 118 112 108 105 105 106 101 95 97 92 96 100 98 97 99 91 63 43 65 72 77 73 67 52 53 54 51 53 55 52 95 92 95 90 95 93 93 94 96 92 94 92 97 91 94 108 115 108 112 115 112 124 123 134 131 139 139 143 141 141 141 148 153 149 152 143 117 88 80 72 79 71 74 77 82 87 88 90 104 101 112 110 111 110 116 125 127 127 121 116 117 117 116 110 108 106 105 105 99 96 89 93 96 96 98 98 96 87 55 51 49 56 56 55 53 49 55 50 52 55 50 53 92 93 93 94 93 95 93 95 93 93 94 96 92 94 91 110 109 111 114 117 114 118 121 131 134 132 136 141 141 143 142 146 148 149 140 147 129 106 97 81 81 81 77 80 88 88 94 101 102 106 105 107 107 108 114 123 131 132 118 107 107 106 114 110 107 106 104 105 100 96 88 92 98 96 102 96 102 71 49 51 53 55 55 52 53 55 51 56 53 54 50 56 93 92 93 96 92 96 91 96 93 93 93 94 95 94 96 98 106 113 111 116 115 119 122 124 131 131 134 136 136 141 143 141 144 138 137 134 129 119 110 91 89 81 80 79 82 86 94 92 98 98 100 100 105 102 109 120 131 130 120 114 104 105 108 104 109 103 105 103 103 94 89 95 97 97 98 98 92 64 45 54 52 56 48 54 55 52 55 48 57 49 56 58 93 96 87 95 93 93 94 93 94 93 92 97 92 94 94 91 102 109 110 118 116 119 120 121 125 127 124 135 132 131 135 135 133 132 127 126 124 120 114 105 98 87 88 75 76 81 90 92 96 95 92 94 98 97 99 108 123 118 115 110 105 100 105 105 108 104 102 104 98 93 92 94 98 98 96 99 85 51 52 50 51 57 52 50 58 52 49 53 52 54 53 51 90 96 90 94 95 91 96 90 95 94 95 97 95 94 97 91 96 104 110 115 115 118 121 120 121 123 115 121 123 122 124 120 126 120 120 119 120 126 121 120 111 100 92 80 73 87 91 93 93 93 90 93 93 96 93 101 101 102 100 104 99 98 100 100 104 104 102 102 98 99 97 96 97 95 92 92 72 50 50 57 49 56 49 57 53 49 54 52 53 52 53 57 93 90 95 93 95 92 92 95 89 95 91 96 96 92 97 97 88 101 113 113 116 116 118 118 122 116 113 111 110 110 108 111 111 106 114 120 127 126 127 126 122 110 104 92 88 84 96 99 97 94 96 90 92 90 94 91 93 90 95 96 96 95 96 99 102 102 106 99 101 97 99 98 95 91 85 76 56 50 56 51 52 55 52 53 51 55 51 54 52 54 53 53 92 92 92 93 92 95 91 95 93 93 94 97 95 97 94 97 90 94 105 113 116 115 120 120 121 111 109 99 94 91 92 93 97 94 103 105 109 108 99 100 100 103 106 102 89 83 87 86 90 95 95 91 86 89 90 89 87 90 91 95 94 95 98 97 98 103 103 103 98 101 97 98 92 86 77 59 50 52 54 49 52 55 54 52 50 54 49 57 49 56 50 57 95 94 98 91 95 92 96 92 93 95 93 94 97 92 94 96 98 89 94 111 113 116 116 120 120 113 109 90 79 76 68 63 67 68 70 72 72 70 69 63 62 75 83 83 73 62 67 65 73 79 81 79 78 82 80 81 82 83 88 91 98 94 95 99 98 101 100 103 99 96 96 93 89 71 63 48 51 55 50 52 51 55 57 50 52 55 49 55 52 56 50 54 91 93 93 93 91 95 93 88 98 95 91 95 93 96 94 96 95 96 95 104 118 113 114 114 112 115 100 89 78 67 65 64 57 50 52 54 55 63 59 60 57 66 67 65 55 58 52 60 59 55 61 58 53 57 55 60 65 69 79 85 88 94 97 98 102 95 102 105 100 95 98 91 69 55 52 52 50 51 53 53 50 57 50 52 50 54 52 53 52 52 54 52 93 92 94 92 93 91 94 89 98 89 97 92 97 94 95 97 94 98 92 96 113 112 112 106 111 109 97 92 86 83 78 95 92 82 77 74 71 71 74 72 62 65 62 58 51 50 52 50 51 55 55 55 51 56 66 67 70 71 74 81 86 95 95 96 101 95 101 104 99 98 98 88 60 47 55 51 50 54 50 51 52 54 52 54 52 50 51 56 53 54 54 54 92 94 92 90 95 93 90 95 95 94 96 93 99 91 99 93 92 98 97 90 110 114 110 103 107 104 99 97 100 105 97 108 117 115 111 104 96 100 110 111 106 98 78 72 64 70 61 68 68 72 68 65 71 75 80 90 84 86 79 82 82 96 94 99 98 98 99 104 100 95 97 92 47 50 49 54 54 49 52 51 49 55 50 56 50 52 55 51 52 51 55 50 92 92 95 91 99 90 94 95 93 93 93 91 96 97 94 96 94 97 96 93 101 107 111 104 101 93 95 102 107 107 107 102 112 108 114 111 106 89 92 98 103 104 103 89 79 82 83 74 72 68 69 75 75 83 90 86 92 88 89 84 88 89 96 95 97 97 100 106 93 96 98 85 44 52 52 54 47 56 52 51 49 56 49 54 51 53 53 57 50 55 53 56 91 93 89 95 92 92 94 94 94 93 94 93 96 92 94 95 93 95 96 94 93 102 111 107 97 93 97 105 109 106 105 99 94 93 97 106 106 102 94 88 88 86 84 82 79 68 69 71 59 75 76 84 85 87 91 85 87 90 89 87 89 87 94 95 96 96 102 100 96 95 104 78 50 49 55 47 54 51 53 51 51 57 50 52 51 52 50 55 52 52 55 52 89 92 95 91 93 93 94 91 95 92 94 97 92 94 93 94 95 98 95 94 96 98 105 109 98 96 98 110 111 108 102 97 84 81 80 84 90 96 101 100 89 86 80 86 74 74 66 77 73 83 81 87 86 89 87 84 89 89 95 89 95 88 90 93 97 96 102 96 101 91 107 78 44 55 48 56 50 54 51 54 50 52 54 53 55 50 55 51 53 58 47 53 93 92 94 92 92 95 92 93 93 93 96 95 91 95 95 94 98 94 93 98 94 91 105 108 105 102 100 105 104 106 97 93 82 86 75 74 68 80 77 84 81 77 78 80 75 78 72 75 82 83 80 83 83 81 88 82 88 92 93 90 91 89 88 94 95 98 94 97 96 98 103 71 48 50 51 53 49 52 51 51 52 52 52 50 56 48 54 49 54 51 51 56 91 94 92 92 91 91 94 88 96 93 93 92 94 95 98 93 95 97 94 96 92 100 103 106 104 106 104 102 105 103 98 91 96 91 85 80 68 72 64 64 57 59 59 59 66 58 60 66 64 70 72 78 83 83 82 85 87 90 94 91 93 93 87 95 95 96 95 95 94 97 105 64 47 50 52 51 52 53 50 52 51 49 54 50 51 52 53 51 52 49 53 53 90 93 91 89 90 95 90 95 89 96 92 91 95 95 93 92 97 95 95 94 93 99 113 104 104 111 107 110 110 109 107 108 110 110 96 93 89 80 82 68 61 64 57 59 60 60 59 68 68 69 68 78 83 84 86 82 89 93 96 92 89 94 90 96 97 92 96 97 95 97 102 62 44 53 53 48 53 48 53 47 56 50 56 50 51 54 51 52 55 53 53 53 91 89 92 90 92 93 92 92 94 92 92 90 92 93 94 96 95 98 94 96 90 103 116 109 101 107 110 110 112 117 115 124 120 118 112 118 119 113 101 93 77 78 72 74 78 82 85 90 96 87 86 83 86 89 90 94 89 98 93 95 93 91 94 98 95 95 97 98 96 95 100 62 49 51 54 52 52 50 55 52 50 49 57 48 57 51 50 55 52 55 51 56 94 88 96 90 90 94 87 98 92 93 92 95 93 93 96 96 93 95 92 96 94 102 115 113 103 105 109 107 115 116 122 129 127 122 117 119 125 127 117 116 102 95 86 92 92 88 96 95 102 97 96 91 86 94 94 97 92 96 96 93 100 92 97 94 95 97 97 99 92 98 98 59 50 51 53 48 51 50 51 49 55 47 55 50 53 49 53 51 52 52 53 51 93 91 93 90 93 90 92 92 97 93 89 97 93 95 91 98 90 96 94 95 90 104 121 109 109 99 107 106 112 118 125 131 131 124 117 111 116 126 124 122 118 115 104 100 96 94 99 97 103 101 98 93 94 97 102 100 98 96 98 99 95 95 95 93 97 98 97 94 93 102 95 53 48 47 56 49 54 51 50 54 50 49 53 49 57 51 52 55 51 54 52 54 91 94 91 93 94 90 91 94 92 93 90 96 95 89 95 95 92 95 95 92 92 109 120 115 110 100 103 105 111 115 123 129 126 121 115 106 105 117 114 116 107 115 107 103 104 101 99 100 99 93 94 96 95 103 103 100 98 94 99 95 99 91 92 97 98 99 97 98 95 102 89 57 47 51 52 53 51 49 52 50 50 52 51 53 51 50 53 50 56 49 56 51 93 90 93 91 95 91 93 94 91 92 92 95 95 93 99 92 92 98 93 94 88 108 123 118 112 107 101 102 105 110 116 119 124 116 118 107 98 102 104 107 101 103 102 94 99 101 100 102 98 94 92 89 97 100 103 102 100 100 96 99 94 94 95 96 101 98 98 100 97 98 95 48 48 54 50 54 52 51 51 53 49 51 51 52 52 52 50 55 53 51 51 55 93 89 91 91 93 91 92 94 92 94 90 94 92 96 89 97 90 95 94 92 98 109 123 121 114 111 104 96 104 99 111 110 117 117 117 116 100 94 93 99 97 92 95 89 96 98 94 97 92 89 86 87 94 97 98 102 100 94 98 95 96 96 96 99 98 97 100 100 103 84 127 77 47 53 49 53 50 47 55 50 51 54 49 51 55 52 51 52 53 48 58 54 91 89 93 90 91 87 95 89 95 93 89 94 92 96 91 95 93 92 95 86 111 123 120 122 118 111 104 101 95 100 101 103 108 110 110 107 104 89 84 83 82 79 84 85 83 90 86 84 86 81 86 93 87 95 92 96 96 98 94 98 100 98 98 98 99 98 99 100 99 97 94 136 54 48 50 49 50 50 47 53 49 50 52 49 53 50 53 53 48 50 53 47 90 93 90 92 91 91 96 90 95 88 93 91 96 91 95 92 94 94 95 80 146 133 124 123 118 117 109 104 98 94 96 98 99 98 95 90 91 86 80 79 75 75 78 81 73 79 76 83 80 83 83 90 88 89 95 93 95 96 98 99 97 100 96 98 97 95 99 99 99 101 63 130 105 45 49 54 53 50 51 49 50 53 51 55 48 52 52 52 54 49 52 53 90 90 92 93 90 94 93 91 94 88 95 94 93 93 95 95 93 94 92 93 168 130 121 122 119 113 110 107 99 96 93 96 98 91 85 87 77 80 77 79 72 74 72 76 74 74 73 78 78 78 83 85 83 89 92 91 95 96 100 97 98 95 97 98 94 93 95 101 95 105 71 82 149 54 51 51 47 54 48 50 50 52 49 54 47 55 48 55 52 47 52 57 90 89 92 92 90 88 93 91 92 93 92 94 92 92 96 90 92 99 73 136 173 134 119 120 124 115 111 108 106 95 96 95 90 101 83 86 80 81 78 78 75 77 74 72 76 73 76 75 74 78 82 81 85 88 90 93 94 100 97 99 96 94 93 100 96 95 96 96 95 105 79 58 153 84 49 45 52 51 47 52 49 52 54 51 52 54 49 55 48 50 54 51 85 92 91 90 92 89 90 94 91 92 91 94 90 96 95 94 91 93 77 161 185 137 118 127 119 121 113 106 107 104 96 99 87 92 88 93 87 82 89 82 79 81 79 78 79 76 79 76 77 78 82 81 82 90 90 91 96 96 98 98 95 95 100 98 99 93 97 101 97 99 91 46 123 130 47 46 51 51 54 51 49 52 49 51 53 52 53 52 54 50 56 48 85 94 87 91 91 88 91 89 92 91 93 97 87 99 93 91 93 86 83 179 192 144 120 124 124 120 114 111 107 104 101 95 94 95 87 89 82 84 86 77 76 79 77 77 73 73 76 73 72 74 79 79 87 86 91 93 92 93 97 95 92 93 91 98 98 99 95 101 98 100 99 35 106 149 66 43 51 51 53 48 48 51 51 52 45 54 49 51 51 52 50 50 90 91 92 94 93 89 92 92 92 94 89 91 93 92 92 94 98 87 109 181 199 153 124 122 124 119 117 115 107 105 105 98 98 94 94 88 84 82 79 80 75 72 69 68 66 66 72 70 74 79 85 84 91 87 95 90 95 90 93 92 92 94 95 93 97 96 95 97 96 100 98 43 91 158 94 41 51 53 51 49 52 54 51 48 51 50 47 56 45 53 48 52 