P2
92
112
255
99 102 97 97 101 101 97 96 98 95 94 90 83 69 75 73 71 71 74 76 61 60 42 44 47 40 39 44 41 44 55 54 56 57 55 48 47 52 49 64 74 76 71 75 78 80 72 69 67 67 73 83 90 89 81 74 67 66 55 46 46 41 40 43 43 41 53 54 61 82 86 90 99 89 95 93 94 94 95 92 93 91 97 90 96 92 96 94 94 94 93 90 99 97 100 98 97 99 100 93 83 85 66 69 67 66 67 66 74 64 60 67 49 46 37 47 41 56 58 59 59 66 83 86 81 74 71 59 57 60 61 64 67 56 77 77 76 76 75 68 68 64 82 79 88 95 88 84 64 61 51 52 48 47 47 51 40 39 40 51 57 57 75 85 94 89 92 93 93 92 97 94 92 94 94 93 95 94 94 90 94 94 95 91 97 98 100 98 97 97 97 81 69 71 75 73 71 77 69 66 59 52 48 55 41 38 37 39 44 50 63 64 72 74 74 69 67 57 65 68 68 67 66 71 70 58 72 81 70 73 66 63 61 61 62 75 76 80 78 70 59 57 54 52 51 49 46 47 54 51 45 50 46 49 59 61 74 87 92 94 95 93 95 95 92 96 94 87 96 93 90 93 95 91 93 95 101 101 96 97 98 98 84 89 76 87 76 69 68 59 56 60 61 60 48 49 39 36 42 40 40 36 36 54 61 65 60 50 47 42 57 68 63 58 59 57 52 54 50 60 61 66 55 55 64 63 70 80 84 86 85 81 62 70 72 75 60 58 51 54 45 56 49 51 47 47 43 51 52 65 74 89 91 96 94 92 95 96 93 91 97 91 94 91 97 92 92 95 99 98 98 95 100 101 89 73 71 63 59 48 47 53 55 57 46 51 52 41 35 38 32 37 42 43 45 55 53 54 53 49 60 65 62 69 55 62 52 43 52 63 63 64 63 54 53 51 55 66 68 84 79 78 79 74 70 68 79 73 60 53 46 37 41 45 41 48 44 45 49 44 52 45 48 54 78 89 97 90 96 93 94 94 94 94 91 93 96 90 94 95 96 101 99 96 99 91 84 65 62 46 48 54 52 54 62 50 44 50 46 41 36 33 29 35 41 40 40 42 45 57 66 68 71 74 66 60 50 70 66 57 62 76 76 66 68 60 57 59 62 69 87 83 82 83 67 59 60 54 57 65 58 55 44 39 35 43 32 45 42 34 45 38 39 52 40 32 51 74 97 91 92 95 92 96 92 93 90 95 91 94 95 89 98 96 98 98 94 84 79 66 56 53 48 60 60 59 53 45 43 50 60 39 42 31 35 41 41 44 46 39 55 55 61 66 68 67 60 56 55 59 62 65 71 76 73 66 66 48 54 52 54 76 88 81 67 58 53 51 46 42 56 65 58 58 41 55 59 57 51 44 38 38 37 40 56 38 44 36 35 39 84 92 95 92 88 93 93 94 91 94 95 91 91 93 100 100 96 99 90 82 76 62 64 59 50 60 56 59 52 53 47 52 58 51 45 43 42 51 43 41 40 37 40 44 48 55 61 62 55 54 54 54 73 69 62 62 65 56 56 43 53 53 61 73 84 65 59 47 57 52 46 50 56 59 51 57 52 58 65 59 54 51 50 41 55 48 46 38 41 35 32 32 55 90 94 93 92 94 92 96 95 90 96 90 95 96 100 100 101 89 80 82 67 64 54 56 64 51 58 55 66 62 47 60 48 42 39 45 40 39 35 40 34 37 37 33 41 53 59 57 54 53 72 68 69 59 50 49 54 54 57 52 51 49 48 66 60 50 48 51 65 65 57 57 59 56 56 58 54 62 66 59 54 46 43 41 55 48 33 37 35 42 36 36 32 76 90 95 92 94 92 92 96 94 90 92 93 93 98 97 101 78 79 70 68 55 52 62 67 66 72 84 79 74 73 78 67 63 47 40 48 43 43 43 36 33 37 36 40 43 48 50 49 57 68 66 65 59 66 72 62 52 43 46 51 53 60 66 55 70 61 70 78 81 69 68 70 57 62 52 58 60 64 60 50 44 42 48 54 41 39 47 37 33 41 32 28 61 90 95 92 95 95 94 95 94 93 93 93 94 101 98 89 75 86 68 71 60 75 69 74 74 80 86 67 84 89 92 68 71 71 54 52 47 44 55 50 40 37 37 40 39 47 50 52 53 62 61 70 75 67 64 48 40 37 47 64 70 72 80 87 87 88 84 74 59 55 63 60 55 59 58 60 59 61 45 38 54 56 61 57 61 52 47 47 44 38 34 18 56 87 93 92 96 92 91 92 96 92 94 93 94 101 92 83 79 81 70 65 73 70 72 80 88 87 96 93 93 106 112 85 74 76 63 59 56 53 53 61 53 54 60 62 57 66 71 81 77 81 80 74 62 56 43 51 48 55 68 72 77 84 96 97 98 92 75 57 51 49 52 52 60 67 77 71 62 51 44 46 47 60 55 43 47 38 39 36 42 51 39 21 40 86 94 94 96 93 92 93 94 94 92 92 99 103 79 83 84 82 67 75 63 82 75 91 100 103 96 103 89 106 108 115 100 89 81 77 85 67 63 78 81 74 62 74 76 90 83 82 71 63 53 58 54 59 63 69 66 60 72 82 77 72 90 90 75 63 58 61 57 48 54 65 69 65 66 53 50 47 46 54 56 61 62 57 57 47 41 26 29 39 42 39 30 63 94 94 95 94 93 96 93 92 94 94 96 93 74 85 76 76 72 76 74 77 85 118 110 103 100 100 98 91 92 101 107 108 100 84 91 87 76 74 69 69 70 61 62 75 66 58 57 56 55 57 68 74 76 73 71 66 66 55 56 64 76 75 61 57 54 51 57 56 55 63 53 58 59 54 58 50 51 61 69 66 62 59 53 54 47 35 30 30 34 34 36 39 75 93 96 91 92 92 93 93 96 91 95 90 69 75 84 78 80 89 87 85 95 112 110 112 106 93 95 96 92 90 80 89 99 104 107 107 95 81 73 62 57 60 56 64 58 50 55 58 64 63 74 87 77 69 64 61 57 62 53 55 65 59 54 52 56 58 62 58 50 56 61 61 60 62 67 58 62 63 70 63 57 56 48 54 51 38 40 36 34 29 36 33 47 80 92 93 94 92 95 92 96 93 98 86 59 80 77 90 85 95 81 95 112 107 110 113 102 99 89 115 89 88 79 87 80 94 105 106 112 111 117 104 87 82 70 60 61 52 51 61 64 79 79 79 70 57 52 59 56 47 48 47 50 45 62 48 60 55 55 44 50 55 54 56 51 57 58 66 67 64 64 62 53 55 46 43 48 47 39 38 39 35 34 36 36 66 93 92 94 93 93 93 94 92 95 86 54 76 76 87 97 87 99 104 112 103 111 113 110 103 94 109 97 73 76 86 90 98 105 91 92 96 96 95 85 79 81 71 76 69 63 68 71 72 58 55 48 43 52 41 38 45 41 45 39 49 53 61 58 62 53 55 57 63 62 66 68 70 72 76 75 77 77 66 67 61 56 47 51 48 33 39 31 36 38 48 29 54 85 95 96 95 93 95 93 95 91 82 66 60 75 86 90 95 118 109 109 107 131 112 106 88 102 85 111 80 71 81 79 86 97 104 100 110 103 88 82 80 80 69 62 65 60 63 58 55 56 48 51 42 47 36 35 36 35 36 39 56 57 65 49 52 62 69 90 81 86 77 82 82 71 73 76 74 73 64 63 57 54 48 49 48 36 33 34 31 31 48 36 37 73 92 96 94 94 96 96 92 95 78 59 56 63 84 88 111 112 106 110 121 110 96 76 78 72 107 95 99 86 84 78 84 89 93 90 90 94 78 76 67 69 70 73 58 49 54 47 50 39 39 39 38 39 39 31 34 44 47 50 59 63 54 49 62 65 81 99 92 89 82 75 73 77 70 74 68 68 61 54 57 61 56 54 54 49 32 36 36 22 39 45 30 54 93 91 96 94 95 91 94 99 79 51 59 62 79 107 105 107 102 113 114 81 79 67 70 72 94 101 93 108 99 98 98 97 97 100 102 106 103 85 75 83 75 72 59 49 49 44 42 45 43 43 36 40 44 40 47 51 57 65 61 62 66 72 94 103 113 102 106 95 92 81 69 67 66 77 65 66 64 59 50 40 52 44 49 55 40 30 27 27 38 40 36 34 86 91 95 94 94 92 93 95 69 53 50 71 86 106 103 108 97 93 69 74 74 70 65 78 83 98 103 102 103 99 93 113 115 112 110 107 97 90 81 79 72 66 64 46 54 47 55 54 56 49 47 51 46 52 52 61 65 66 70 72 85 95 106 99 96 72 82 75 68 68 65 56 54 62 75 59 61 63 66 42 53 42 36 40 55 36 27 22 31 47 46 37 61 86 94 94 90 97 93 96 64 45 47 69 106 89 113 98 96 56 48 63 68 57 61 68 77 80 102 105 108 105 108 109 105 104 110 114 105 103 92 83 79 72 68 57 58 51 48 54 58 54 61 66 60 58 55 53 56 71 85 102 98 113 107 100 88 80 74 73 75 71 60 64 45 52 67 94 76 76 93 82 49 59 40 35 42 44 23 24 22 33 38 37 47 76 95 94 94 92 93 94 66 50 50 73 108 92 106 98 64 47 48 65 56 49 47 66 68 74 92 98 95 100 104 107 118 98 98 93 90 83 87 88 83 81 69 76 75 66 61 56 69 58 57 63 70 70 73 71 76 79 86 100 107 113 106 99 87 84 76 75 66 63 56 47 44 50 46 68 95 88 86 100 88 61 57 39 34 33 28 18 20 29 25 32 39 69 91 95 94 95 95 95 59 45 48 77 100 107 102 83 48 56 42 35 36 29 40 60 65 82 99 100 93 88 89 88 102 91 84 78 72 66 72 75 84 81 84 81 76 71 84 84 78 75 73 78 84 90 104 96 103 96 97 106 114 109 102 89 83 72 69 64 57 55 59 62 51 47 47 42 66 90 80 81 101 83 70 52 37 31 30 21 23 26 23 27 30 47 89 98 94 94 96 94 52 44 41 88 99 111 91 60 51 35 34 20 27 29 54 59 75 103 111 110 97 92 89 81 84 86 85 76 72 74 67 73 71 79 78 78 77 84 84 87 93 88 87 89 93 100 102 98 98 97 99 100 100 103 88 79 77 66 74 67 65 62 59 64 56 49 44 37 36 54 87 72 74 92 86 62 49 42 40 32 26 25 21 25 33 37 64 96 91 94 95 93 38 48 41 86 96 113 78 56 43 32 21 25 20 39 57 60 91 119 118 119 107 92 95 92 71 84 82 91 83 82 82 75 80 80 74 74 82 85 86 84 100 98 101 100 104 109 109 108 110 111 101 98 96 92 79 77 84 80 84 77 80 72 68 65 60 47 50 39 36 31 66 77 64 73 87 80 54 43 48 39 35 23 25 24 30 28 52 89 92 95 97 92 49 50 42 82 103 109 72 52 38 30 20 23 22 47 56 71 111 126 127 119 118 107 95 91 81 75 81 87 90 94 90 87 83 84 82 76 81 85 82 76 83 91 94 109 103 105 105 101 101 88 81 77 70 65 70 71 77 88 87 90 84 79 83 72 61 58 50 46 39 35 39 68 61 60 65 78 58 44 40 42 38 34 30 24 27 30 38 79 95 94 94 94 49 46 43 79 98 105 73 45 34 31 23 23 23 47 53 94 115 130 132 123 124 112 109 92 88 77 84 77 80 90 82 85 91 92 85 77 81 81 79 79 79 78 79 80 84 81 83 80 86 70 66 66 67 74 77 81 83 93 92 94 96 87 90 82 73 58 56 45 48 36 39 50 57 50 54 63 65 50 37 34 37 40 30 26 29 24 29 69 96 89 96 96 47 49 46 77 94 99 75 46 32 28 22 24 27 47 59 103 123 133 133 127 127 120 114 104 99 86 83 87 68 83 83 78 92 95 89 84 81 83 81 78 83 86 80 78 78 76 77 77 78 73 71 68 73 82 92 95 101 101 102 101 102 99 95 91 80 70 60 52 49 47 32 48 45 50 46 50 60 58 40 36 36 39 37 26 35 31 28 53 92 93 95 95 58 49 44 70 91 97 77 47 25 31 15 32 35 42 69 109 122 137 137 130 131 126 123 113 103 96 90 85 78 70 82 85 83 92 93 85 86 84 79 76 72 83 89 87 87 81 80 73 81 73 79 75 88 91 99 106 113 116 115 113 110 108 107 98 95 69 66 64 50 47 41 42 50 35 51 35 55 58 53 38 40 34 49 41 32 36 29 38 85 94 95 92 52 46 37 61 91 87 82 57 29 28 24 24 41 45 76 113 131 138 139 136 132 131 127 121 112 98 97 93 86 81 78 70 84 86 87 94 94 87 83 88 73 87 94 97 92 88 86 84 85 86 92 96 104 103 104 110 112 124 122 122 120 114 114 107 97 85 76 68 55 46 42 43 49 37 43 36 44 56 41 42 40 38 43 40 52 36 37 29 75 94 93 94 48 51 41 49 83 82 81 66 45 33 29 26 38 43 80 114 132 139 137 143 134 135 134 128 120 110 97 99 94 89 85 70 73 78 82 86 96 99 95 102 88 94 103 111 106 105 99 100 98 99 105 107 113 113 112 111 115 123 126 132 127 124 121 114 106 93 81 69 60 49 47 36 49 34 37 45 37 48 44 35 31 41 33 46 47 40 37 28 70 91 96 93 45 55 51 38 77 73 79 63 51 42 35 27 33 48 82 117 130 136 141 145 140 141 138 132 127 116 107 99 95 99 88 86 71 74 84 87 89 96 94 99 99 105 106 115 117 120 117 113 113 114 117 117 120 121 121 118 125 121 125 130 131 132 126 120 119 96 87 74 62 54 47 37 41 33 32 49 34 36 36 34 28 34 37 39 41 40 34 34 56 92 96 87 52 47 57 35 58 77 65 70 53 45 40 32 41 45 87 116 131 139 143 147 146 143 144 135 131 119 112 103 100 100 101 91 88 81 88 92 96 93 100 94 103 113 116 121 121 131 127 129 128 125 126 125 122 126 123 123 124 123 125 125 127 128 130 122 120 110 93 75 63 59 50 41 38 35 24 47 31 27 29 37 31 27 39 34 34 40 39 35 65 89 95 91 51 57 47 42 50 75 62 65 64 62 34 38 40 44 83 119 128 137 147 148 150 146 149 137 134 124 118 108 106 102 107 105 93 97 88 98 100 103 104 103 104 117 121 130 131 135 138 135 136 133 133 131 128 130 126 126 125 126 125 126 123 124 125 122 119 111 98 80 68 58 54 50 40 37 23 37 32 26 23 33 35 26 35 35 31 39 45 35 64 89 90 93 56 54 47 41 45 56 70 61 62 59 53 45 39 53 86 117 125 138 146 151 151 154 143 143 135 126 124 117 109 107 107 112 104 107 103 102 110 108 114 112 117 120 127 132 145 149 147 145 139 139 137 139 136 135 133 134 131 126 129 125 127 127 116 121 117 111 104 84 77 70 51 54 42 35 27 28 36 21 26 28 33 28 32 38 41 37 36 38 50 90 92 95 56 47 33 47 47 36 60 59 58 62 65 61 47 52 78 109 124 142 149 153 153 153 154 146 141 136 128 125 115 108 107 111 108 111 111 111 114 115 123 118 121 126 126 134 149 155 160 156 154 149 146 146 145 142 140 140 139 135 134 131 130 129 123 120 114 113 104 97 85 72 63 61 45 27 34 27 34 26 25 24 32 29 33 33 39 47 31 28 43 83 89 91 47 45 38 49 42 37 43 48 55 57 60 69 61 58 84 102 128 142 152 154 155 152 151 147 144 140 139 127 122 118 109 113 114 113 114 111 117 118 126 124 129 128 128 135 148 156 163 163 163 158 157 151 156 148 144 143 146 141 137 138 133 133 128 124 120 112 111 99 86 87 72 67 47 28 33 30 32 28 30 21 28 32 33 29 32 40 40 28 34 82 93 91 47 47 44 50 36 33 36 45 43 47 52 49 55 60 80 99 123 140 146 153 150 150 143 140 141 137 138 130 124 121 113 111 112 113 116 113 118 121 123 129 129 130 134 137 144 156 158 161 160 159 157 158 155 149 146 140 140 137 133 127 123 123 120 116 118 113 108 112 92 88 85 72 52 35 30 31 29 34 28 21 27 28 27 33 25 31 36 30 28 71 92 91 43 46 44 41 36 30 33 40 30 44 39 40 43 55 77 99 117 130 131 126 123 125 124 125 129 128 125 124 115 113 110 110 110 108 114 112 115 121 123 130 129 134 135 138 138 150 152 155 152 149 147 144 141 137 132 126 120 118 112 111 102 102 98 96 96 101 92 98 97 91 91 85 61 39 32 29 28 30 29 25 21 30 27 24 33 23 33 32 26 66 91 90 46 47 38 36 40 30 30 38 29 28 41 40 46 60 79 88 100 110 108 98 88 85 87 98 96 93 94 98 101 100 94 107 113 107 109 115 115 120 123 127 127 128 134 133 139 140 150 143 141 138 133 123 117 113 105 105 97 96 96 88 96 88 88 88 91 96 95 82 85 93 95 87 82 42 33 31 26 30 26 30 22 26 29 25 26 29 32 28 25 57 93 88 55 48 36 43 34 34 30 33 26 30 25 33 42 62 70 82 88 96 89 87 77 62 64 65 76 70 65 74 74 79 85 89 108 110 110 115 124 122 126 125 127 120 127 129 135 134 139 134 130 122 118 112 94 87 83 81 76 80 79 78 78 77 81 95 93 92 93 84 86 88 90 91 84 53 33 36 23 28 26 33 27 24 29 31 24 31 27 31 21 44 86 92 54 45 41 41 37 32 30 27 28 26 28 28 45 58 66 73 94 93 87 88 87 78 61 61 64 61 50 69 62 68 75 85 91 105 111 113 125 127 129 125 124 117 125 127 131 128 134 124 116 110 100 93 79 74 66 63 62 58 66 70 73 89 93 103 101 96 99 86 84 92 77 88 90 61 34 32 23 28 19 33 29 30 22 35 27 27 31 28 26 48 78 90 58 41 41 37 38 31 28 28 24 23 25 31 47 58 59 74 89 89 93 92 100 92 85 73 68 68 58 54 59 68 70 75 89 95 99 111 122 127 129 123 121 120 117 126 126 129 121 113 106 103 89 81 76 61 66 58 60 63 64 80 90 97 109 110 108 104 105 99 90 90 86 77 87 74 44 30 19 30 20 30 32 33 25 36 31 24 34 26 32 62 82 89 53 40 32 31 41 32 25 27 25 17 21 35 53 54 66 81 96 99 106 102 107 105 95 93 82 81 73 64 67 70 73 76 86 88 92 103 111 120 128 124 122 120 112 121 124 122 111 103 96 87 82 77 71 70 72 64 61 55 60 58 68 70 88 96 106 111 110 109 99 96 100 81 75 82 60 34 21 25 24 22 35 36 30 28 32 29 31 28 28 71 85 94 51 38 27 42 46 35 23 28 20 16 15 45 51 50 75 84 99 105 113 111 107 101 77 77 66 63 57 62 61 64 72 74 82 82 79 93 102 112 127 128 126 119 123 114 119 114 102 95 85 80 77 72 74 68 59 61 49 57 54 44 34 41 45 61 63 87 100 108 102 105 99 90 80 86 69 41 23 23 17 31 29 34 33 34 30 33 27 29 35 72 85 89 57 35 31 43 47 34 26 22 22 19 13 40 54 51 81 88 106 109 109 102 86 66 60 61 52 45 33 43 41 49 64 67 73 78 78 79 88 102 122 134 133 125 128 122 121 109 96 88 75 70 71 71 66 59 63 55 67 75 51 45 19 39 31 58 59 56 67 100 102 103 100 94 87 83 86 46 25 22 21 26 27 34 35 37 29 31 29 23 40 75 89 87 62 37 33 45 49 41 28 22 24 17 13 40 59 64 80 91 103 103 95 77 57 59 84 88 42 64 35 29 26 52 57 66 61 65 72 65 77 82 116 138 147 139 141 139 129 108 92 74 70 70 70 64 68 70 67 72 98 99 53 66 29 71 53 51 84 62 55 65 100 103 104 103 90 87 92 71 24 20 23 17 29 33 34 28 38 33 30 25 40 91 87 87 76 43 41 48 54 44 27 23 20 22 12 37 67 74 83 98 108 95 78 66 57 90 125 114 48 66 54 33 27 48 74 71 73 65 66 70 65 68 99 141 165 161 159 155 138 112 88 72 71 70 71 72 78 77 80 85 111 111 70 48 47 40 49 52 101 85 76 53 79 105 105 108 101 90 90 83 39 21 24 20 22 33 38 35 35 36 34 24 52 88 91 88 70 46 49 42 51 48 21 21 20 18 7 49 78 82 90 100 106 87 66 71 81 124 147 126 78 48 52 31 38 52 96 81 66 74 76 72 67 63 83 137 170 179 171 167 151 114 90 78 72 80 81 88 88 85 93 95 107 122 96 62 54 39 53 79 104 105 91 70 61 99 106 109 104 98 90 97 46 27 22 21 19 29 35 39 34 38 25 38 63 88 92 89 64 44 40 50 44 49 27 23 14 24 6 59 89 95 98 106 100 81 67 99 110 130 144 143 106 72 59 48 58 95 106 99 79 66 80 84 75 62 91 136 169 186 180 173 153 116 96 88 88 88 97 85 100 93 95 107 117 126 133 105 76 70 90 111 110 113 104 82 75 87 107 107 109 100 103 100 68 30 31 17 28 16 43 42 39 37 29 41 72 88 89 88 60 44 40 43 44 53 33 24 18 23 7 77 97 106 107 105 96 83 76 120 125 138 142 147 137 108 90 87 101 121 115 105 92 82 76 105 91 81 113 134 167 181 182 172 158 129 100 95 95 107 105 90 100 94 94 113 127 131 136 135 120 115 115 125 123 123 105 89 87 89 103 105 111 106 107 104 84 46 29 23 25 17 35 49 42 30 31 44 80 84 90 89 66 42 39 38 37 51 37 20 25 21 11 91 111 112 115 109 92 95 95 116 139 143 143 148 142 137 133 132 132 137 123 113 112 103 107 116 111 113 129 148 169 181 182 172 164 132 115 105 104 112 112 110 117 117 117 124 136 138 139 137 135 132 129 123 119 112 97 99 99 98 99 110 110 111 108 108 95 60 36 25 23 20 29 55 39 38 34 43 82 95 86 92 81 45 30 35 31 46 41 21 28 25 8 101 117 119 121 118 108 114 125 105 120 144 159 154 164 157 161 160 157 144 136 120 128 120 127 125 129 132 139 153 177 181 183 176 166 141 117 119 111 114 115 114 119 119 117 120 126 127 127 122 120 114 116 104 104 101 103 111 113 107 104 114 112 118 113 112 103 78 39 34 19 20 30 43 54 42 44 37 76 97 88 86 90 44 30 36 34 39 39 28 30 19 20 110 123 128 129 130 126 126 136 117 107 112 130 131 139 133 138 134 130 121 113 110 113 116 125 133 140 138 141 160 181 185 180 174 169 144 120 123 123 126 121 120 120 113 109 105 104 106 106 107 104 108 107 105 105 106 111 113 115 111 116 119 117 121 115 112 104 90 48 27 25 21 25 39 66 67 51 38 65 101 83 87 99 44 36 42 37 33 35 28 30 23 26 112 127 136 139 140 140 139 141 133 115 111 112 112 112 110 110 108 101 104 104 106 112 119 132 149 147 144 139 165 189 183 178 172 174 147 120 124 134 138 135 135 130 123 116 109 107 102 95 98 100 105 99 111 107 113 115 116 120 118 121 123 122 121 117 112 108 99 52 26 30 22 24 48 76 93 58 40 56 100 85 88 103 48 49 49 35 38 31 35 29 15 41 117 127 138 145 148 153 150 140 142 133 122 114 114 106 105 99 97 107 110 115 114 121 131 148 156 146 142 143 166 189 191 174 177 168 140 119 119 134 145 149 150 142 139 125 123 121 116 116 113 110 108 117 116 115 120 123 121 122 125 123 128 128 121 120 111 108 104 55 29 30 23 20 61 106 104 70 42 60 101 84 88 103 58 54 57 41 41 42 33 28 21 42 118 125 143 144 152 162 158 150 138 135 126 125 119 117 112 114 117 118 116 120 119 122 145 154 151 143 138 142 161 186 189 177 175 163 136 116 116 134 141 151 154 149 144 137 132 127 124 124 129 126 125 128 127 125 123 123 124 126 132 131 131 131 123 117 116 107 103 59 26 25 27 20 69 119 113 76 45 65 102 83 84 100 78 59 77 40 52 46 33 34 27 39 113 129 140 143 153 165 160 154 139 138 133 133 128 128 123 123 122 120 116 120 124 141 153 153 142 139 135 140 157 182 191 177 175 159 137 116 122 124 136 143 155 154 149 146 139 137 130 127 138 138 138 140 138 132 131 131 125 135 141 138 136 132 123 119 113 107 96 62 27 25 27 25 72 109 121 85 44 69 100 84 82 97 86 79 92 50 80 75 38 32 28 29 109 127 136 144 159 161 165 161 151 149 143 141 143 136 128 123 120 120 115 126 145 154 152 149 137 135 133 143 154 182 187 176 172 156 136 122 117 120 128 132 147 152 151 150 146 144 133 135 137 145 145 146 148 142 138 137 133 141 142 144 138 134 126 117 113 103 95 48 31 24 24 37 68 92 115 100 47 73 100 81 83 95 90 90 115 58 113 105 49 28 31 27 95 125 134 141 156 158 162 160 155 152 148 146 144 139 132 126 122 124 123 142 155 154 152 140 136 134 134 139 156 182 187 176 168 153 137 122 117 116 123 127 139 147 146 150 153 154 147 141 140 142 143 147 148 146 138 143 139 143 147 146 138 133 120 115 108 104 89 49 29 26 28 44 63 75 100 114 46 86 93 77 82 96 87 96 125 67 136 129 65 29 29 28 81 114 131 138 147 153 154 154 147 149 146 143 142 138 131 132 126 137 143 153 155 152 146 138 133 134 137 145 158 181 189 175 165 153 139 127 118 113 118 122 133 138 144 145 151 159 157 153 147 144 143 145 143 140 136 137 140 144 143 142 135 127 115 112 107 98 87 42 26 30 39 47 54 64 87 117 61 98 87 76 79 95 89 85 134 96 142 146 88 36 33 27 70 108 127 129 140 144 144 143 141 139 143 137 142 134 136 135 139 148 152 155 149 144 144 136 128 137 142 152 165 186 186 176 162 152 151 130 121 113 115 114 123 132 135 139 147 151 157 153 151 150 144 143 132 134 130 137 139 138 141 130 127 122 108 109 105 99 81 38 19 54 62 52 53 47 75 111 86 105 84 73 82 93 96 75 142 125 146 149 108 42 33 33 57 103 116 127 129 136 136 136 134 134 132 134 135 134 135 137 147 152 149 152 151 140 138 134 121 142 146 155 167 186 187 175 161 156 154 140 121 110 107 111 120 125 130 139 142 149 156 156 153 151 144 144 134 135 130 136 134 131 134 125 120 114 107 107 98 100 77 30 46 95 91 48 47 48 67 111 97 111 79 70 78 97 94 78 134 148 143 148 118 58 35 32 54 96 114 120 122 130 127 133 127 127 133 131 131 135 137 139 152 153 149 146 148 139 138 124 122 145 149 157 169 187 191 176 163 160 155 143 122 111 101 108 115 123 127 138 138 146 156 157 156 152 148 143 142 134 136 132 127 123 125 119 108 109 106 106 101 100 77 50 92 109 106 57 52 44 72 106 108 107 72 71 74 93 93 74 138 155 147 146 117 85 54 48 38 93 110 114 120 120 121 125 119 121 125 128 132 139 141 143 148 149 148 143 138 140 131 113 129 143 156 159 173 189 189 177 164 161 156 142 124 108 105 102 107 119 125 140 136 147 152 153 148 145 142 146 140 137 131 122 118 117 112 110 111 108 106 105 100 100 87 91 111 104 117 71 44 51 86 111 112 108 66 70 72 96 90 78 129 153 147 150 117 96 88 77 53 83 111 114 115 113 117 121 120 120 126 123 133 139 142 144 153 150 149 143 142 131 129 112 134 146 151 160 175 187 184 171 159 162 150 142 126 113 109 99 100 112 129 136 139 140 149 146 148 137 138 138 140 126 118 115 112 110 108 107 107 107 104 103 103 99 89 103 109 101 117 76 40 70 99 108 117 96 62 68 68 95 95 71 127 150 139 157 123 93 104 132 93 73 111 111 111 109 112 116 118 117 127 124 132 136 144 146 152 148 146 144 139 129 126 120 139 146 149 159 168 176 173 163 155 159 148 137 121 114 126 106 98 109 126 128 143 138 147 146 146 143 136 136 134 122 112 110 109 104 105 104 105 106 106 103 105 99 95 104 108 98 99 85 76 93 104 106 119 88 55 69 67 91 93 75 113 154 128 157 142 98 117 148 128 86 109 114 110 109 108 107 112 110 117 121 128 132 140 142 143 146 144 146 138 132 127 133 135 143 151 157 160 160 161 159 145 151 140 130 123 109 130 126 94 105 120 130 141 138 148 142 139 137 133 131 126 120 114 106 101 105 105 102 103 103 104 107 105 100 94 104 106 89 91 108 113 105 100 109 114 69 56 65 62 89 94 87 95 157 138 140 159 127 141 148 140 95 106 113 113 109 107 101 106 106 106 117 123 121 133 137 139 139 143 148 139 135 130 129 133 134 141 149 150 148 144 145 139 137 130 119 114 110 122 128 102 103 118 130 135 139 143 140 135 138 132 127 118 113 107 104 97 104 103 101 106 104 111 106 104 99 94 102 113 110 111 120 114 102 105 118 96 58 60 60 66 89 93 91 85 141 155 122 137 153 164 157 141 101 104 111 113 111 106 106 101 100 104 109 116 120 130 136 139 139 142 146 140 138 131 123 117 120 130 134 133 134 131 128 123 115 115 103 105 104 114 120 106 101 117 133 132 139 141 138 135 132 127 121 112 109 100 96 101 98 100 104 103 105 113 105 105 99 90 99 98 111 109 109 113 110 121 117 79 55 57 62 64 95 91 99 77 111 165 151 127 138 151 151 138 110 102 114 113 110 107 106 104 100 104 100 111 121 128 133 142 142 145 145 142 145 130 113 93 103 100 110 105 110 108 98 98 93 94 92 91 100 103 108 105 103 120 126 135 135 139 137 130 131 121 115 108 101 100 95 100 103 100 104 103 106 105 106 103 97 93 107 91 101 108 114 112 126 117 107 60 54 58 59 63 93 93 96 86 88 143 169 162 153 140 146 134 117 110 112 111 107 108 103 106 104 108 103 115 123 130 134 142 141 143 146 143 147 137 102 89 77 75 90 88 93 89 87 79 82 78 75 75 87 95 103 98 106 121 129 134 137 136 131 131 126 117 114 106 102 101 99 99 94 100 102 106 103 106 104 99 100 93 110 104 106 114 116 114 123 117 78 54 52 57 57 58 92 92 91 94 80 114 160 172 174 155 159 149 139 123 111 114 104 108 101 105 106 110 116 118 129 133 138 137 144 145 148 142 150 149 114 89 57 43 69 81 80 83 83 73 70 61 48 47 64 81 97 96 107 122 132 131 135 136 132 131 125 120 110 105 105 102 102 96 99 97 103 102 102 106 99 105 99 88 105 109 109 114 118 114 118 99 59 52 57 53 57 60 98 91 96 94 89 81 134 167 169 170 166 164 160 137 111 112 108 106 102 103 110 114 118 125 132 134 136 139 145 146 147 149 151 152 151 103 67 50 58 68 72 74 75 69 63 61 59 48 55 76 94 102 109 120 133 134 131 137 130 131 127 118 114 106 105 106 103 101 99 97 103 98 104 100 100 103 100 80 93 104 107 108 113 112 105 69 51 53 59 54 58 56 93 92 92 94 94 80 105 148 159 164 160 160 156 139 112 112 111 103 104 102 105 118 117 129 131 134 138 142 142 146 146 149 152 151 154 117 70 59 68 69 65 68 69 63 71 65 69 56 68 91 103 105 111 119 129 137 132 135 131 130 126 117 118 106 107 106 105 101 100 98 98 98 98 101 100 99 99 73 79 93 98 102 100 98 72 50 55 52 55 50 58 55 93 91 94 94 90 96 77 116 142 143 144 148 144 122 106 112 111 103 104 106 105 115 123 127 129 137 140 144 146 149 146 151 155 153 152 130 84 76 70 74 75 72 73 70 78 83 81 82 98 104 111 111 113 115 129 133 138 132 132 129 125 122 116 107 106 108 104 105 96 95 98 98 102 98 101 103 96 59 59 84 89 91 77 70 52 49 55 53 58 52 53 55 96 91 93 94 94 88 93 88 107 121 121 125 117 96 102 110 112 109 109 106 110 115 121 131 131 135 139 147 144 147 148 150 158 155 155 143 110 93 79 79 79 84 81 78 91 94 98 99 106 109 110 114 112 113 127 133 137 134 126 124 123 117 112 113 105 109 105 99 95 93 97 95 100 100 100 99 93 49 51 59 65 63 57 52 53 55 50 54 49 53 58 54 96 95 89 94 93 95 93 93 92 98 101 102 99 91 95 109 113 114 110 110 113 114 123 125 132 133 141 144 144 148 147 150 154 152 149 147 127 110 92 88 83 89 84 80 88 93 99 102 107 108 109 106 113 114 122 134 137 136 125 114 116 115 114 109 108 105 107 102 94 94 93 100 99 103 101 101 82 45 56 49 56 52 53 54 54 52 52 53 49 56 56 50 91 95 93 93 90 96 91 92 96 88 97 96 94 94 91 103 115 109 113 112 117 115 116 124 130 133 138 142 141 147 146 146 147 148 144 140 134 123 110 100 87 92 85 82 83 95 101 96 101 103 104 99 108 108 120 133 139 131 130 113 116 115 109 109 106 107 106 102 95 92 93 102 94 103 100 98 71 47 55 51 52 53 53 52 49 53 54 53 52 53 54 54 91 91 95 90 95 91 94 93 93 93 89 96 95 95 87 98 105 112 111 117 118 117 116 121 125 133 133 139 141 136 144 143 142 141 139 136 134 128 122 116 104 100 89 79 81 91 97 97 101 97 100 98 105 99 112 122 125 119 123 118 111 113 107 109 105 104 107 103 92 93 94 101 98 98 100 92 61 47 56 54 51 50 55 54 52 54 51 55 48 54 53 54 91 92 93 93 93 96 89 95 94 93 91 90 95 93 95 89 104 107 111 118 120 121 122 115 125 128 127 132 134 133 133 135 135 132 133 130 133 131 133 131 123 109 99 85 82 96 102 100 103 100 100 96 101 100 103 109 108 109 112 112 103 108 105 106 104 105 108 101 100 100 100 99 100 94 98 83 48 51 54 52 48 54 51 53 50 57 49 56 50 56 52 51 93 91 93 91 94 95 92 93 94 91 95 94 93 93 96 97 88 103 112 115 124 120 122 120 120 122 126 122 128 125 127 124 123 121 121 132 136 137 135 142 132 122 111 98 93 95 103 106 103 105 99 96 99 97 99 99 100 100 103 108 99 106 103 103 103 104 104 103 102 100 104 99 96 94 90 60 49 53 54 52 51 53 51 53 53 52 53 52 49 57 49 55 95 90 95 91 93 92 92 92 93 92 92 95 93 96 96 93 95 91 106 116 119 124 122 118 124 118 120 116 119 112 110 112 109 112 115 118 122 114 101 102 109 111 117 109 91 85 83 89 97 99 97 97 91 97 93 96 98 95 101 100 100 101 104 103 107 103 108 104 103 102 99 96 99 85 71 50 53 49 53 52 52 49 54 53 51 52 52 52 52 51 56 50 91 91 92 93 92 92 91 92 95 92 93 93 95 97 94 98 91 92 99 116 121 123 122 122 124 122 113 114 103 96 91 90 90 88 90 86 80 79 71 66 70 78 94 85 66 66 63 70 69 81 80 87 82 91 83 87 89 91 99 102 100 101 101 101 105 104 108 106 103 101 98 94 85 75 53 51 54 53 50 52 51 53 53 52 52 55 51 56 52 50 54 55 94 91 92 90 93 91 93 94 89 94 95 91 96 91 94 98 92 93 91 109 119 125 120 122 120 122 114 110 91 87 67 63 62 58 61 55 58 60 56 59 60 62 65 61 59 55 56 62 50 61 58 66 57 68 61 67 79 83 87 96 100 100 103 104 103 104 110 105 105 100 100 90 72 58 50 52 52 53 51 54 54 51 57 50 52 52 55 52 50 54 52 58 94 94 93 89 91 93 94 89 96 94 93 93 94 93 91 97 94 96 87 99 113 124 124 118 118 120 117 102 85 80 70 69 69 55 57 53 56 55 57 55 57 57 54 54 49 51 45 47 48 49 50 52 49 54 56 65 65 75 79 94 95 100 102 103 99 105 106 110 103 100 99 74 53 51 51 51 53 50 52 51 51 54 53 52 50 52 53 53 52 50 56 53 92 93 91 93 92 93 93 89 95 92 97 89 93 93 95 92 98 93 103 86 112 124 122 118 112 117 111 100 90 83 85 96 102 97 93 85 89 93 101 98 91 83 66 62 60 59 58 61 63 70 67 70 69 71 85 88 81 84 80 93 93 100 100 101 103 105 108 106 106 95 101 68 47 51 54 46 57 46 56 50 49 50 54 53 51 53 53 48 57 48 53 55 93 91 91 97 93 91 96 90 94 92 94 92 92 96 97 93 92 100 93 93 95 122 121 115 110 113 106 104 97 97 108 107 121 114 119 110 104 100 111 117 119 118 107 95 89 89 93 85 82 78 73 79 73 84 93 92 94 87 88 89 92 97 99 101 104 107 106 105 102 98 101 64 44 53 54 48 56 48 52 51 51 54 54 50 53 50 51 54 54 54 51 53 90 92 91 93 91 92 92 93 90 96 91 94 93 93 94 96 91 95 95 95 94 111 118 117 109 107 100 102 101 104 109 109 106 107 107 110 108 97 89 96 97 97 101 95 88 86 87 77 75 71 81 83 85 87 95 90 93 85 90 91 93 93 99 99 104 105 106 106 96 97 98 60 45 51 52 46 57 53 50 50 54 54 51 50 52 53 51 55 48 52 49 58 93 91 94 93 92 91 91 94 92 94 93 93 93 91 95 95 95 95 97 97 89 101 115 116 112 103 97 98 102 102 105 101 99 94 95 92 98 97 95 89 89 84 87 86 88 73 78 74 79 77 85 86 87 85 93 85 90 91 86 92 92 93 97 99 102 102 105 104 95 101 98 53 50 53 48 52 56 49 54 50 53 53 51 54 51 53 51 56 51 53 50 56 93 91 90 93 92 90 94 91 95 94 92 95 92 95 92 97 89 95 94 97 93 83 111 111 111 106 99 101 105 103 101 93 90 85 75 81 80 85 92 94 85 84 85 89 80 83 77 78 81 81 85 83 85 85 87 85 88 89 92 92 90 92 94 98 105 100 102 101 93 103 96 51 47 52 51 54 51 56 48 54 49 50 51 50 52 50 50 56 50 52 50 54 91 93 92 91 93 90 94 93 91 94 91 93 94 92 95 96 94 95 94 94 98 89 100 110 110 108 101 103 105 104 103 93 86 85 80 81 75 72 73 74 67 70 66 70 69 67 68 68 72 71 78 78 85 81 86 83 88 93 90 97 93 92 93 96 101 101 94 97 97 100 94 51 46 55 48 54 50 53 51 51 53 51 55 49 53 51 52 53 49 55 52 53 92 91 93 91 91 90 93 92 89 95 92 92 95 92 96 95 94 93 94 94 96 87 104 105 110 106 105 104 102 100 100 93 89 88 93 83 81 70 69 61 59 56 55 54 56 52 63 62 64 67 76 74 86 81 85 83 93 93 94 95 95 95 95 99 101 97 95 99 95 105 87 49 49 53 50 51 52 51 56 50 50 52 52 52 54 49 52 55 52 54 52 50 90 92 91 90 92 90 94 91 92 93 92 93 94 92 93 98 95 93 97 92 94 95 104 104 106 109 108 106 105 106 105 102 99 106 101 97 93 80 77 66 70 66 65 65 74 68 75 81 81 77 82 78 87 88 85 88 93 95 94 96 95 93 96 99 97 94 97 96 98 100 83 52 52 49 51 52 50 52 46 57 53 52 53 52 50 49 52 49 53 52 52 53 93 91 92 93 89 89 94 91 91 93 92 90 93 94 93 93 94 95 96 95 91 94 112 109 103 109 106 114 111 116 115 114 117 115 117 105 106 106 96 85 77 73 76 83 83 90 90 94 96 93 93 83 88 92 95 95 94 97 99 96 95 96 96 98 95 97 99 98 94 105 82 46 47 53 52 50 54 54 47 53 49 52 50 53 51 50 55 51 53 52 51 55 91 89 95 89 91 92 89 91 91 94 94 91 91 95 95 95 92 95 97 90 94 99 111 112 98 102 107 110 112 120 126 121 127 121 120 117 116 123 112 104 96 95 85 95 94 100 93 98 100 101 97 92 94 98 97 103 98 101 99 98 102 98 97 96 92 101 98 96 95 103 76 48 50 52 52 52 51 51 52 49 53 50 54 49 55 51 51 54 49 56 49 54 92 91 90 91 94 89 91 92 91 92 93 89 94 91 94 93 95 94 93 93 92 102 114 110 109 96 101 108 112 116 122 124 131 127 118 119 118 121 127 118 120 110 107 101 100 101 98 105 103 101 101 100 96 104 101 108 104 103 104 101 102 94 97 96 98 98 99 94 98 105 79 46 50 51 51 54 49 50 51 52 48 53 53 51 51 55 47 52 56 54 52 54 94 89 90 92 91 91 93 89 92 93 93 94 93 92 95 93 94 94 95 93 91 102 115 114 111 100 96 102 109 112 123 125 131 127 120 113 112 119 123 124 119 111 113 106 104 103 106 108 106 103 99 94 102 105 109 106 102 102 100 97 95 95 93 96 100 100 97 99 98 106 70 41 51 53 49 53 48 49 54 49 52 51 49 50 52 56 47 54 52 51 55 49 94 87 92 92 93 89 96 93 91 90 91 91 94 92 93 94 91 95 96 92 93 105 114 115 110 104 98 99 106 110 115 123 132 124 120 114 107 112 116 118 117 110 109 105 106 105 115 109 106 100 99 94 98 108 105 105 103 100 98 99 91 93 94 98 100 99 97 99 97 105 61 52 48 54 49 52 47 52 50 51 51 53 51 53 47 54 49 52 53 49 53 51 87 92 90 91 89 93 94 87 96 91 93 95 90 96 91 94 93 93 92 94 91 104 121 113 112 107 99 93 98 104 110 118 118 123 112 120 105 106 106 113 111 107 107 104 101 109 106 107 104 97 96 92 95 102 99 103 104 100 95 95 95 93 96 100 97 99 101 98 97 108 54 49 48 51 52 51 52 49 49 50 49 55 46 57 49 53 50 53 52 55 48 54 88 91 89 93 88 94 91 93 91 91 93 91 91 94 93 91 94 92 94 91 95 109 117 120 113 111 100 98 91 96 104 104 109 114 117 114 112 109 101 101 102 101 101 94 96 98 100 98 99 87 91 95 93 97 94 97 99 94 96 93 94 98 95 98 101 96 100 99 93 111 80 52 46 54 48 52 50 51 47 54 53 47 50 53 51 50 51 53 51 50 52 56 91 87 93 89 90 92 92 88 94 94 91 90 93 87 94 92 96 93 95 89 93 114 121 119 117 111 105 97 93 89 96 101 102 108 108 111 109 104 102 94 97 92 96 88 89 89 93 91 92 83 89 89 89 88 94 92 97 90 94 97 93 100 96 98 102 98 100 99 96 95 140 58 49 51 48 53 50 53 45 56 48 54 48 54 47 53 48 55 49 51 54 50 90 91 88 94 88 93 92 93 91 93 92 91 94 92 92 94 94 93 92 81 120 128 121 121 120 112 107 102 100 91 87 94 97 96 100 94 96 94 92 91 89 83 90 85 85 83 83 82 83 81 82 87 85 87 89 94 93 96 94 98 96 100 98 99 97 98 97 103 97 80 129 103 49 48 51 51 50 52 48 53 50 48 52 48 50 50 50 50 55 48 52 50 89 90 90 89 92 92 91 93 92 92 92 92 91 95 91 94 93 92 94 77 147 136 122 119 120 115 112 102 101 93 93 86 92 96 94 90 86 80 86 79 80 79 79 75 75 79 75 79 77 79 81 82 85 86 92 91 95 101 94 98 94 97 96 100 98 96 97 98 100 89 79 145 53 51 48 52 49 53 51 51 52 49 51 49 53 47 52 52 48 52 51 52 94 86 93 90 89 94 90 95 89 91 91 95 94 90 95 90 96 91 86 99 165 134 123 121 119 114 110 107 100 97 90 90 85 90 89 94 87 82 82 79 79 84 74 78 73 81 76 76 80 79 77 87 82 87 93 91 98 97 99 97 92 97 96 97 101 94 95 99 102 95 53 143 89 50 47 48 53 50 51 49 50 53 48 50 54 47 54 51 50 51 49 55 86 89 93 86 92 89 89 88 93 89 93 90 93 94 91 98 91 94 82 116 184 138 119 121 120 115 112 107 104 96 96 94 91 84 88 80 82 81 78 79 81 81 78 79 77 76 75 74 74 73 73 75 88 86 93 93 95 97 99 98 92 92 100 95 102 97 99 96 103 97 50 117 135 47 45 52 52 51 51 48 49 52 51 50 52 53 48 55 49 49 51 51 90 90 86 93 86 95 88 94 90 90 91 92 92 89 94 92 91 96 71 141 191 147 120 125 120 116 113 108 104 104 97 93 95 86 89 83 79 74 70 68 71 69 68 68 70 65 67 72 71 75 76 81 89 87 94 93 97 96 98 99 90 93 94 99 98 98 99 101 102 106 41 95 159 54 47 45 53 49 52 50 52 43 57 46 50 50 51 49 52 48 52 50 91 88 91 90 89 94 86 94 90 93 89 93 90 90 92 91 94 97 85 159 195 159 122 120 124 117 114 114 106 106 98 99 93 92 89 85 82 76 74 68 67 66 68 66 64 66 69 72 79 80 84 84 91 90 95 97 96 96 97 95 94 94 95 99 96 101 99 98 101 109 45 88 165 74 50 46 53 50 49 53 50 49 52 49 50 56 46 51 49 49 54 53 88 92 91 90 92 89 91 89 92 90 94 89 94 92 91 98 118 133 143 170 197 181 125 124 123 118 117 115 111 106 103 103 96 97 94 88 87 79 77 75 68 68 69 63 71 68 79 76 80 85 89 86 94 95 98 99 95 96 96 95 97 90 96 97 100 100 97 99 99 103 57 88 157 116 52 51 49 56 46 53 46 50 50 49 52 51 49 52 50 53 52 54 90 88 93 91 91 92 90 92 89 93 94 95 89 101 118 150 181 189 183 175 191 204 134 126 118 121 117 114 109 105 104 104 101 97 97 90 88 83 77 74 72 70 68 66 78 73 78 80 85 86 89 91 89 97 95 98 95 97 98 92 96 91 95 97 100 98 96 100 97 101 53 96 150 143 68 51 50 53 51 53 49 52 49 50 51 50 54 45 50 51 52 50 88 89 93 90 92 91 92 92 90 93 97 104 119 145 182 192 195 193 187 179 186 217 151 127 121 124 120 112 112 106 108 105 101 103 94 96 92 90 82 82 75 72 73 75 74 78 78 83 84 84 90 90 94 90 98 97 98 95 100 93 95 88 92 95 101 101 97 97 102 96 51 117 146 145 111 68 64 56 50 53 48 54 50 51 45 50 50 46 56 50 53 50 