P2
92
112
255
102 105 104 101 105 104 99 105 100 106 102 102 100 101 80 77 86 98 83 92 73 43 31 37 39 43 33 44 49 59 56 45 44 49 46 50 65 53 49 51 58 55 60 65 63 59 55 62 63 54 53 67 73 70 80 70 64 62 62 51 53 47 48 45 56 41 69 85 99 100 103 99 101 100 102 101 103 98 102 102 101 102 101 102 102 98 104 100 101 101 101 105 106 102 101 106 101 104 99 103 102 101 101 93 94 84 82 75 74 79 73 77 49 33 29 37 33 35 36 46 49 60 57 51 59 59 51 59 60 44 49 39 44 57 67 56 61 63 52 50 55 56 64 79 77 71 65 59 55 65 64 73 55 64 58 51 53 59 53 61 79 100 102 99 103 101 104 101 102 102 103 102 101 104 100 101 103 99 102 101 100 102 102 101 105 100 103 104 105 100 104 95 82 71 74 64 66 65 72 76 70 58 58 54 33 31 24 31 34 33 47 39 40 40 52 60 63 58 58 52 50 56 58 54 57 63 64 65 65 58 55 48 56 60 82 77 80 62 50 49 49 48 49 56 70 71 61 43 42 44 51 45 55 76 94 97 102 100 101 103 102 105 102 105 101 100 102 102 101 103 100 101 103 101 101 104 101 102 103 102 104 100 106 77 75 79 86 72 73 62 80 69 61 50 50 44 31 29 29 37 41 38 42 35 35 34 42 45 52 52 57 58 55 54 62 66 62 65 63 58 55 46 51 55 58 67 81 77 73 67 51 53 45 41 49 62 57 58 51 45 38 35 46 45 42 46 64 82 101 103 104 101 103 101 105 102 102 103 100 104 103 100 102 104 100 101 103 103 105 101 104 100 104 103 102 67 82 82 78 71 81 64 66 48 39 45 45 48 30 35 28 35 33 38 35 30 31 29 34 35 47 50 47 54 59 67 63 57 50 57 57 52 52 50 45 47 56 68 67 64 60 61 67 64 61 56 63 63 48 49 51 58 56 47 54 42 50 30 42 52 80 98 103 103 102 101 100 101 101 104 101 102 101 101 102 101 104 101 104 103 102 105 102 101 104 107 92 63 56 48 47 50 54 50 42 40 50 46 58 42 54 37 34 38 38 44 39 34 30 43 40 38 36 46 48 46 59 68 57 68 68 67 63 49 37 40 51 66 64 70 66 57 69 69 75 73 69 57 66 69 56 55 43 61 65 67 52 53 47 38 33 48 49 64 82 98 102 102 101 103 100 102 104 100 99 103 102 101 98 101 100 104 101 101 101 104 102 94 74 59 46 45 40 43 49 51 46 44 87 79 81 45 52 49 46 47 47 45 54 56 47 48 50 52 58 66 61 60 74 71 73 70 62 48 46 40 42 53 61 75 65 74 83 85 84 75 61 54 52 51 57 60 56 53 52 58 64 62 53 44 42 46 49 41 50 41 59 71 95 103 102 102 100 102 101 101 103 101 103 98 102 102 103 104 101 104 104 101 108 86 69 53 46 45 52 62 67 68 60 73 78 79 93 91 91 76 60 62 62 57 58 67 61 66 62 64 64 72 65 61 64 59 51 58 54 52 62 65 61 59 72 77 72 96 99 89 68 57 49 44 46 46 58 50 51 63 58 57 59 42 49 43 38 41 41 42 33 42 36 43 55 96 106 102 102 101 100 104 99 103 103 98 104 102 102 102 103 104 103 103 110 83 58 46 58 33 77 75 62 61 72 78 56 77 65 67 79 83 95 81 74 79 64 55 53 56 55 56 58 63 62 59 62 62 60 73 69 75 74 73 65 63 67 58 64 89 96 77 69 51 54 58 52 62 64 67 64 69 65 51 46 43 37 43 58 43 49 48 41 45 37 44 31 53 106 101 102 102 102 102 102 100 99 103 103 102 102 102 101 104 101 99 92 71 50 45 55 52 80 72 81 88 84 77 69 85 69 62 63 67 73 77 85 86 97 96 83 68 72 69 64 61 48 48 57 64 67 79 85 80 68 62 57 59 52 53 66 79 92 61 62 62 63 58 60 67 72 60 46 54 51 47 44 45 52 47 58 59 51 54 43 37 44 35 38 32 82 107 99 105 101 103 102 101 103 101 101 103 100 104 103 100 101 77 69 57 56 55 68 69 87 94 96 96 81 69 73 83 57 65 73 72 77 81 74 70 67 80 87 85 86 77 76 73 60 55 51 76 85 81 78 72 60 53 59 59 55 51 55 73 61 60 54 58 69 76 64 63 59 62 46 56 59 61 61 55 55 64 67 57 56 54 36 41 40 44 38 30 39 102 103 99 102 105 99 103 100 101 100 102 101 101 102 102 90 63 53 58 58 72 86 84 101 100 100 86 74 77 62 93 57 66 48 68 66 81 89 89 95 90 74 74 86 81 71 68 64 69 65 68 72 59 54 52 51 52 46 43 49 53 55 51 51 59 65 66 73 64 58 51 60 64 61 71 75 83 80 65 63 67 59 56 59 57 54 40 33 46 58 25 19 82 99 100 102 104 101 103 100 99 101 103 100 104 101 98 73 61 58 57 67 82 82 99 103 96 98 81 65 79 87 91 86 63 67 65 59 74 83 80 86 89 70 71 75 64 70 68 68 58 59 66 58 49 57 44 52 44 42 32 56 44 43 44 58 67 79 72 63 66 68 57 64 68 65 78 77 75 72 67 70 64 56 48 49 43 59 51 33 18 39 39 21 68 98 105 101 101 103 103 100 101 102 104 100 103 103 82 62 64 64 71 71 91 101 93 94 110 105 85 59 65 69 94 84 92 97 89 90 85 89 95 90 97 97 87 81 81 72 70 52 49 40 43 44 40 47 43 45 49 44 40 35 39 41 53 59 62 74 65 57 68 81 96 93 85 84 102 93 83 74 77 73 69 56 62 56 52 46 50 49 34 36 36 19 54 106 101 101 104 102 102 102 102 102 100 104 102 98 69 63 61 66 85 82 100 102 96 108 100 76 65 62 61 64 69 88 85 92 95 85 94 108 104 95 99 94 92 84 72 64 67 58 49 48 47 39 51 44 39 42 40 40 47 42 43 52 67 75 79 61 61 65 81 96 100 97 97 95 91 88 79 67 69 69 65 60 56 51 52 44 53 47 41 45 38 27 30 99 106 102 103 102 103 101 103 103 101 102 102 87 59 76 62 79 90 98 90 95 115 86 69 71 66 62 58 56 55 69 78 88 86 96 97 96 100 92 97 103 84 86 78 81 65 58 52 50 57 55 55 56 43 41 45 54 52 57 64 71 89 77 72 82 88 110 114 110 104 112 111 109 98 88 73 70 74 74 68 61 57 60 57 53 43 52 37 35 34 37 33 56 106 106 104 103 103 101 103 102 104 103 104 84 56 77 72 83 96 97 97 107 79 60 61 62 54 46 49 47 46 75 81 79 79 77 75 92 89 80 78 82 80 87 84 89 86 74 60 63 51 54 73 64 59 66 57 67 62 66 75 80 76 78 85 92 108 110 100 94 80 79 76 75 65 65 54 59 80 60 70 67 60 43 52 60 53 57 45 36 41 37 46 30 67 107 102 103 104 104 102 101 102 101 98 83 58 60 74 95 89 104 99 91 50 45 48 50 45 39 42 49 53 57 75 57 73 65 64 72 79 74 74 71 65 71 74 90 94 83 83 75 71 53 74 60 55 69 75 77 72 65 56 71 64 82 98 104 119 111 110 105 80 79 72 76 64 64 64 62 101 102 55 83 65 42 51 44 52 57 53 28 48 29 40 36 41 85 105 105 101 102 102 102 103 103 101 68 50 57 85 92 91 98 90 59 40 49 56 56 45 44 47 53 58 55 72 62 68 79 53 65 68 82 76 82 72 81 75 67 89 89 83 86 66 77 68 80 77 63 77 83 86 96 83 87 81 88 103 111 112 109 96 100 80 80 75 68 58 53 45 60 56 104 119 76 102 94 54 69 30 49 52 48 36 29 27 45 45 75 99 105 100 103 103 102 100 104 102 64 55 58 93 89 106 93 70 47 62 50 38 36 32 31 48 58 60 73 79 79 72 82 71 57 60 91 81 80 89 82 79 75 80 81 88 83 81 84 85 84 84 82 85 91 96 98 91 98 96 96 103 104 112 111 97 92 85 71 64 64 51 67 66 50 55 49 96 124 90 111 101 73 65 40 40 60 35 23 28 44 41 66 96 105 101 103 103 104 102 104 99 55 50 57 99 89 107 77 46 67 49 33 30 33 30 33 51 61 82 94 92 85 87 75 88 78 69 70 92 89 86 99 92 86 87 90 86 99 91 86 85 101 106 91 90 107 103 101 95 107 115 108 103 105 99 91 87 87 74 68 60 66 59 74 76 65 59 49 46 94 116 93 121 98 84 63 32 50 43 19 24 53 48 48 93 102 103 101 102 101 101 103 102 50 46 53 102 95 104 63 46 56 40 25 33 30 30 50 59 83 112 104 97 89 96 89 83 85 92 80 73 94 80 94 92 90 91 87 91 95 98 94 81 84 88 96 98 100 105 101 105 103 99 92 89 84 79 76 81 83 80 80 80 79 81 93 84 74 61 48 41 31 107 101 100 116 96 83 43 34 39 17 26 36 44 46 80 104 100 102 102 101 105 103 101 35 54 53 96 99 106 57 46 42 50 22 31 33 39 61 77 117 119 112 103 104 102 101 92 89 85 100 90 85 90 78 104 97 93 88 86 92 101 88 95 89 78 78 78 82 86 83 87 92 81 81 81 81 73 68 77 86 91 99 102 102 102 110 110 96 82 53 48 30 45 113 85 100 114 97 61 33 30 19 26 28 35 38 53 99 104 102 103 100 105 103 102 34 57 55 93 104 102 65 44 47 31 38 28 35 56 71 104 123 130 126 115 109 110 105 106 98 101 86 108 103 90 101 85 113 100 85 100 103 91 85 91 102 101 93 85 81 85 86 83 83 88 86 89 80 82 86 96 108 122 125 128 125 125 126 121 112 103 70 47 43 31 76 99 76 80 108 77 52 22 20 27 25 28 26 47 80 100 103 105 104 101 103 101 39 60 51 88 101 101 66 46 52 22 38 34 45 67 88 117 130 136 138 126 122 113 114 114 101 105 107 92 119 88 92 108 96 112 93 101 107 107 96 81 100 101 99 105 87 82 88 82 84 91 98 93 93 101 107 115 131 134 136 138 136 133 131 134 118 105 101 60 48 26 58 91 72 68 84 93 66 36 23 24 29 23 19 29 72 95 106 103 104 101 104 104 50 50 48 87 96 99 75 41 50 34 30 47 51 71 99 122 134 146 143 142 130 121 121 119 111 103 114 114 98 114 81 88 113 95 111 110 109 105 112 85 100 106 110 113 110 101 101 95 90 98 100 105 113 125 132 132 146 145 152 146 147 143 138 132 128 119 101 92 58 33 35 84 69 65 59 93 71 56 41 32 30 28 21 16 64 100 106 102 104 101 106 104 43 47 44 97 87 98 89 47 36 48 34 34 64 64 107 128 136 149 147 150 142 134 134 121 116 111 108 115 113 103 108 68 90 105 104 105 116 106 125 120 108 136 133 131 127 124 122 125 118 115 117 129 126 135 146 136 150 150 153 154 152 155 145 136 132 127 108 97 85 31 32 74 68 58 56 66 79 53 54 44 29 33 23 19 49 99 104 102 106 102 105 103 23 54 30 99 87 82 98 56 31 40 37 40 54 69 110 131 139 144 149 154 151 147 143 131 126 116 108 103 114 104 105 99 73 99 110 107 109 108 113 130 126 139 147 146 145 141 137 138 140 135 134 142 143 137 149 144 146 158 159 160 159 157 149 144 134 127 120 103 93 45 26 76 70 50 56 53 75 64 40 49 41 31 28 26 36 88 108 101 104 102 104 106 31 49 28 81 86 80 91 70 32 40 35 42 53 77 118 134 138 146 157 158 162 156 156 147 138 126 126 109 103 110 102 102 92 98 107 125 117 115 107 134 140 145 149 154 152 153 152 150 147 149 149 148 146 148 139 154 153 154 163 165 163 162 156 150 135 121 128 112 97 62 30 68 76 42 53 47 57 74 47 39 42 37 25 29 30 49 107 102 103 102 102 104 37 51 32 58 99 61 87 84 42 47 42 42 57 81 116 130 132 150 156 163 164 160 163 155 147 143 133 127 111 117 112 102 102 101 113 120 126 136 115 124 147 151 153 153 155 154 152 152 148 153 151 148 148 147 142 145 155 152 158 162 160 162 157 151 142 125 130 110 99 74 34 59 75 37 55 42 49 67 54 36 47 39 35 26 27 27 81 107 106 102 103 101 34 53 36 40 95 63 77 87 79 35 48 50 54 82 121 130 138 148 160 167 168 163 160 161 154 146 142 133 126 124 120 121 118 106 126 123 122 142 138 130 142 158 158 160 165 164 159 157 159 158 157 158 151 151 150 147 148 149 153 155 153 160 159 150 148 134 122 116 97 77 44 50 69 33 49 45 49 60 58 39 47 51 38 33 30 22 49 103 104 104 102 104 45 46 40 35 66 92 56 79 81 63 37 56 59 76 120 128 136 152 163 163 169 168 164 164 162 163 152 150 137 135 128 122 131 130 132 152 141 141 144 140 151 155 159 164 171 173 174 169 165 164 166 162 163 155 156 151 150 151 153 153 147 154 156 147 148 138 125 115 107 83 43 47 67 33 41 48 43 54 45 39 44 49 54 35 37 32 34 95 105 101 104 103 52 46 33 52 34 95 70 60 87 72 59 48 60 78 117 127 141 149 162 162 169 168 171 163 168 171 173 165 154 152 147 140 137 140 141 151 153 154 150 144 160 158 160 167 176 180 185 178 177 175 175 171 174 169 166 160 156 158 154 153 147 150 150 148 146 141 123 114 105 98 42 57 52 33 36 51 30 40 37 35 42 40 45 51 41 27 28 84 107 101 103 102 43 41 37 42 33 47 86 70 66 82 73 56 55 70 108 126 136 152 161 160 165 161 167 169 173 175 179 179 177 166 167 165 159 158 155 159 155 164 162 161 169 165 166 174 178 183 190 182 182 183 183 180 184 176 177 173 165 166 164 158 160 151 150 148 145 139 130 116 102 102 54 54 46 28 32 49 27 28 39 29 39 35 44 48 48 38 19 79 107 102 101 105 50 38 41 35 34 36 60 69 70 56 67 73 74 83 99 127 140 148 152 161 157 155 157 162 167 164 165 168 175 167 170 173 173 169 161 161 165 166 168 171 172 173 176 178 181 182 188 187 185 186 186 184 184 179 176 177 172 170 168 164 161 159 149 149 140 139 131 121 109 99 60 53 46 31 31 48 26 26 34 39 29 37 40 42 48 33 27 61 103 103 103 105 44 34 40 38 27 42 33 55 59 64 49 56 67 88 100 121 138 136 126 133 141 141 141 147 145 147 150 139 145 156 159 162 166 174 166 168 167 174 172 171 171 171 178 177 183 181 185 188 186 185 181 184 178 180 170 169 171 168 164 157 158 163 154 147 143 138 130 121 114 109 66 52 49 38 30 45 30 25 27 41 33 30 36 32 42 38 27 66 101 103 104 103 45 27 54 34 25 34 40 36 54 53 49 52 57 73 101 101 115 110 97 83 90 104 108 103 103 104 106 119 120 125 146 154 149 160 171 170 177 173 179 172 167 173 168 182 172 182 185 181 177 176 177 169 163 159 149 138 131 142 136 126 126 129 124 131 131 127 131 119 116 116 81 58 45 47 37 43 41 23 27 40 36 36 37 30 40 44 33 63 107 105 101 102 37 38 47 30 28 26 40 31 33 48 48 49 54 71 81 82 88 96 89 80 70 77 85 78 74 92 81 86 105 107 118 150 145 147 166 173 179 175 181 174 159 174 168 184 166 178 175 166 164 163 154 127 127 115 115 102 104 109 102 101 103 106 97 97 103 104 119 119 117 111 100 67 44 43 48 39 43 24 27 33 38 33 45 44 33 51 43 43 105 100 102 101 36 42 38 29 27 30 31 30 32 28 38 38 62 71 71 86 91 87 97 92 77 60 64 76 63 60 83 76 82 98 108 127 139 152 147 170 175 176 176 180 155 178 168 176 159 170 161 148 151 153 135 112 99 96 94 85 82 92 95 90 92 94 90 98 97 96 86 96 109 111 105 83 46 47 42 42 42 31 26 31 30 36 35 42 45 32 49 49 100 102 102 102 37 45 25 39 26 27 35 23 29 25 28 39 60 66 66 93 98 103 113 121 109 91 75 76 71 57 69 78 88 92 108 115 127 140 152 163 172 177 161 171 156 170 165 171 158 167 161 139 138 135 113 103 90 87 73 78 76 76 85 85 87 99 112 117 112 109 94 83 88 110 107 92 62 48 45 49 41 36 27 29 32 30 27 35 48 46 25 42 99 100 102 102 46 34 30 40 27 34 32 26 28 26 24 48 56 56 78 93 109 120 126 141 139 127 118 103 98 84 83 83 99 96 104 117 117 124 147 156 164 168 159 163 162 155 162 168 165 159 157 136 140 116 111 107 87 85 73 74 69 77 94 103 121 134 139 133 126 123 106 95 75 86 113 94 85 50 49 42 44 33 28 26 30 34 30 26 39 45 34 29 98 101 102 99 42 33 37 32 32 31 33 23 26 31 30 55 48 62 95 121 130 136 141 146 154 150 140 133 130 122 111 109 111 106 104 113 119 122 134 149 156 167 163 160 159 153 154 164 162 151 137 134 130 118 115 103 90 92 88 98 100 117 136 144 152 156 150 146 141 137 123 110 97 70 93 105 98 67 42 38 40 38 29 30 34 31 27 35 22 41 34 28 83 106 99 102 41 32 36 36 32 28 31 26 23 26 37 50 42 76 104 127 136 139 144 152 159 156 154 147 144 139 133 125 121 114 110 107 107 110 128 137 152 164 167 160 156 161 151 158 157 146 134 132 126 117 116 111 105 113 120 128 134 146 155 155 153 156 157 151 144 142 140 124 116 81 69 104 110 66 55 34 34 37 35 27 29 35 21 34 26 34 35 25 75 103 100 101 37 35 30 38 33 27 31 27 21 21 43 48 39 91 117 124 135 134 147 152 158 160 168 160 158 152 143 142 134 122 113 107 102 100 110 120 140 158 171 164 154 165 163 164 151 137 127 122 114 112 111 114 122 128 137 145 146 153 157 154 155 153 154 148 146 141 138 135 129 117 67 89 114 77 40 53 31 32 37 33 27 31 33 23 30 32 35 23 62 107 100 100 40 28 24 43 31 27 30 23 21 22 39 51 48 93 115 125 128 136 147 154 158 158 155 162 161 155 143 137 141 126 128 115 104 98 92 97 117 147 170 177 151 166 175 171 146 133 117 112 111 116 122 124 137 134 131 133 140 140 151 154 155 158 158 152 147 141 126 133 132 131 87 75 111 89 55 34 47 29 31 44 27 27 36 25 30 30 31 14 61 110 101 101 33 23 30 47 32 30 25 26 19 21 39 53 51 94 110 122 125 137 143 140 145 146 141 152 145 142 138 132 135 121 125 124 116 101 98 82 84 137 164 178 172 171 176 169 142 120 114 113 115 117 127 127 124 118 125 133 120 115 122 133 138 139 143 144 148 145 120 124 132 129 100 78 103 100 71 34 34 42 26 41 38 25 28 37 25 35 32 13 61 110 103 96 28 19 38 43 32 31 23 25 21 16 41 53 68 93 113 122 126 123 123 131 131 107 89 63 97 56 74 98 119 130 125 121 124 125 104 91 77 104 155 174 183 175 175 168 135 120 116 119 115 121 123 117 117 122 121 104 91 71 55 58 71 78 112 139 130 127 131 117 128 135 111 83 98 105 77 48 31 38 38 33 44 26 33 38 27 35 29 19 30 114 101 98 27 28 42 44 40 31 26 26 22 12 39 60 82 102 113 126 122 95 121 110 90 96 78 38 68 101 57 79 124 108 114 125 130 131 130 94 90 97 142 171 182 179 174 160 133 123 120 119 121 121 121 124 120 106 100 129 107 27 94 75 61 53 91 87 132 107 114 122 129 134 121 97 89 112 91 42 43 29 43 34 44 36 33 29 31 36 28 30 18 98 104 97 28 32 44 51 39 31 29 25 25 12 41 76 96 115 111 125 109 86 100 69 106 124 72 64 27 123 70 57 153 138 118 105 117 155 149 120 92 112 137 165 181 176 174 156 128 126 123 127 139 126 138 120 115 108 128 173 110 53 43 153 31 45 102 99 67 111 90 119 128 138 128 111 88 110 94 47 44 29 33 46 34 41 34 31 29 33 32 25 40 89 100 100 28 41 46 50 42 28 32 23 26 11 50 85 105 118 116 120 109 78 86 78 126 135 88 63 48 40 73 82 166 168 142 143 103 126 179 140 115 124 151 170 180 178 177 164 130 135 119 126 156 141 140 117 127 135 144 182 122 63 62 57 50 67 114 125 83 73 98 113 127 137 129 123 98 104 105 47 38 41 24 46 32 40 35 30 34 25 32 27 60 98 102 100 31 40 46 45 44 28 30 27 26 8 64 91 112 124 114 115 112 65 110 111 118 142 112 72 63 58 69 129 172 159 138 159 132 147 173 151 130 130 157 178 178 179 177 169 137 136 127 127 170 137 129 137 135 131 148 171 159 84 57 62 65 101 136 125 116 84 82 113 130 133 129 127 102 104 110 49 37 34 31 30 41 35 35 35 35 28 30 33 67 103 101 108 41 39 41 35 53 24 28 31 20 15 75 103 117 124 125 111 107 97 95 138 137 141 149 113 105 93 137 163 168 163 158 170 173 181 164 142 131 133 169 181 177 176 178 167 139 130 143 136 160 172 167 164 156 147 155 170 173 157 107 99 116 141 142 142 127 99 96 108 127 133 132 128 118 106 114 66 38 31 30 26 37 44 38 38 33 33 24 29 71 104 101 98 34 37 41 35 55 29 26 28 20 23 91 112 120 131 132 113 122 131 97 111 129 149 153 152 151 143 165 166 162 152 147 156 166 168 150 140 132 136 178 184 178 176 177 177 142 126 145 140 143 161 173 166 162 156 157 159 172 158 155 148 152 136 135 137 112 107 126 110 123 133 135 131 122 113 119 76 48 34 28 30 32 45 39 41 32 35 24 30 79 100 100 98 38 34 38 35 55 29 26 28 24 30 101 120 127 134 141 131 137 140 130 108 116 126 127 125 130 137 137 140 136 137 141 151 153 156 148 138 129 145 173 183 181 178 181 171 139 128 146 154 150 141 153 158 150 142 138 142 150 149 137 144 139 134 130 127 126 130 141 132 122 135 137 136 126 120 124 90 43 41 27 25 33 43 48 38 31 32 35 37 97 101 97 102 44 31 34 26 51 32 26 32 22 39 110 127 136 141 150 148 141 140 144 137 128 130 131 131 136 130 133 135 143 153 150 162 163 155 149 129 129 146 169 180 183 177 181 163 141 136 137 156 159 157 152 152 158 149 145 143 138 142 142 147 144 142 141 141 144 145 141 142 141 133 145 138 135 123 125 104 52 50 27 21 30 40 54 38 38 27 38 60 101 100 98 100 35 25 34 22 49 32 28 31 19 53 115 126 137 148 156 158 152 145 150 145 143 140 143 139 144 145 150 149 155 158 157 166 161 152 135 127 125 148 167 176 183 177 181 160 141 138 141 147 160 169 157 149 154 156 156 156 153 152 150 150 148 151 150 152 152 149 144 142 151 143 151 145 137 133 125 117 60 56 37 23 30 29 63 45 32 39 32 69 104 99 101 99 33 30 31 27 35 37 27 37 18 76 115 128 136 149 163 166 156 158 154 159 163 168 170 167 160 158 159 151 155 157 165 167 158 143 129 124 123 149 166 181 183 178 172 160 141 137 140 143 150 163 169 159 155 163 163 168 166 168 168 167 175 173 169 166 162 162 153 150 152 151 154 149 140 133 127 123 84 46 44 32 18 33 62 44 28 48 40 78 101 100 103 98 28 31 29 27 34 31 31 37 23 85 116 129 132 151 165 166 168 158 163 166 166 173 173 167 163 161 154 150 157 162 168 171 151 136 128 122 132 150 167 179 180 178 166 157 142 137 138 143 145 158 170 170 158 163 164 166 167 173 173 176 178 176 176 168 168 161 156 158 157 154 157 154 143 138 126 122 97 55 38 34 18 37 55 46 32 62 63 107 93 99 99 99 29 37 38 23 33 35 35 40 32 88 114 129 132 152 162 167 168 169 168 169 173 172 177 165 165 156 156 155 164 173 172 166 147 127 125 128 142 158 175 182 178 176 162 158 144 135 133 137 139 157 168 171 169 163 167 166 163 169 172 174 180 178 173 167 172 163 164 164 164 164 158 158 143 139 129 123 109 55 51 34 18 35 54 50 45 87 75 129 97 96 98 99 32 43 41 24 32 36 42 42 33 82 110 130 128 149 159 166 165 168 175 169 166 167 164 160 163 162 165 167 171 173 171 161 143 127 120 137 149 163 177 185 177 173 162 158 150 135 131 137 137 151 163 167 171 167 171 172 171 169 167 167 174 175 172 166 169 165 165 167 168 166 160 154 145 138 127 118 113 56 40 39 23 28 53 52 69 108 81 126 106 93 100 99 24 61 33 39 35 36 39 47 32 75 111 126 127 145 154 159 163 155 164 164 160 166 164 160 160 168 170 172 174 170 163 159 145 120 124 145 151 165 177 187 181 170 169 163 152 135 127 137 137 145 158 162 170 170 172 179 172 177 172 172 171 176 169 166 165 168 168 173 171 166 162 154 143 136 128 113 112 56 37 40 26 26 48 73 100 117 91 117 120 88 97 102 25 80 39 41 36 44 33 51 35 68 102 120 129 136 151 155 154 154 161 160 160 161 162 164 164 172 171 170 172 167 166 153 139 113 129 153 159 169 186 190 184 173 171 167 156 138 122 129 135 143 153 160 168 170 173 176 171 176 178 173 170 171 161 161 163 166 171 175 167 166 162 145 138 132 120 116 105 52 36 38 37 17 73 117 108 116 104 110 120 90 96 97 28 97 54 35 62 46 31 53 38 56 94 115 124 133 142 150 150 149 155 155 161 157 164 165 164 171 173 169 169 167 162 152 128 112 139 153 162 173 195 198 183 173 167 162 160 142 121 121 134 141 152 159 168 171 172 178 173 175 176 176 171 170 160 160 164 171 166 171 168 163 158 142 128 135 116 109 103 48 35 41 32 21 109 144 119 114 116 108 133 79 97 99 38 117 52 53 111 62 31 45 41 54 90 105 121 130 135 147 148 144 152 153 164 155 166 165 167 166 174 166 166 162 166 153 117 118 145 156 165 181 196 199 184 172 172 158 158 147 120 121 128 139 148 157 172 170 170 178 175 178 174 177 169 170 164 163 164 166 161 163 165 155 148 140 131 129 111 107 94 51 33 50 24 40 128 159 123 121 113 111 135 73 99 97 50 127 50 87 138 90 29 49 38 50 88 101 114 124 128 139 143 142 145 147 151 159 165 165 165 169 169 168 170 164 162 150 112 123 147 157 171 180 184 186 191 179 176 167 151 151 118 127 123 133 146 158 170 174 172 178 177 176 170 167 171 173 168 162 164 162 159 161 155 153 137 138 131 126 104 105 88 51 32 50 26 69 144 153 138 125 109 117 128 81 93 98 51 128 57 107 138 117 33 44 45 42 84 99 111 123 123 130 143 140 144 148 151 159 164 163 161 170 170 169 170 164 159 140 115 124 143 153 170 176 175 174 195 191 171 166 153 148 125 132 132 127 143 161 172 176 174 176 174 179 163 157 168 173 169 161 158 152 153 155 148 143 133 137 128 120 103 103 84 38 42 48 37 99 142 148 148 124 105 122 125 77 92 97 48 129 65 120 137 120 59 26 50 39 76 98 111 116 120 129 135 145 142 153 152 157 159 165 165 161 173 165 171 163 155 131 117 121 132 149 159 165 167 165 167 170 157 157 145 141 131 130 143 122 144 156 167 171 175 172 175 177 169 162 161 169 157 147 150 144 145 142 142 136 137 131 127 116 106 107 71 33 44 58 60 110 128 127 160 133 86 137 104 84 96 94 36 130 97 122 134 108 78 30 53 38 75 97 108 113 120 124 129 135 137 144 150 150 155 157 162 161 167 167 169 165 149 120 115 108 110 126 138 148 152 151 147 142 139 136 135 128 135 131 139 124 135 160 167 171 177 172 175 169 166 161 163 165 159 145 144 142 140 139 141 134 135 131 123 116 106 109 59 33 65 99 80 104 118 115 154 145 81 143 98 82 92 95 37 129 132 119 132 101 77 60 56 40 62 98 108 117 118 120 123 127 133 133 143 144 146 150 155 159 160 168 172 163 143 112 111 99 92 94 112 123 133 132 125 118 117 118 119 120 125 129 132 122 132 156 169 170 170 174 176 165 166 160 156 156 153 146 144 136 139 140 138 136 129 129 127 116 109 111 62 59 107 140 99 97 118 103 145 146 97 150 81 86 95 93 37 127 145 128 140 97 78 71 92 46 60 98 102 116 123 123 118 125 126 132 130 142 141 148 154 156 160 165 171 160 138 110 96 96 75 68 92 104 111 115 115 114 106 103 103 108 119 127 129 123 133 156 168 168 164 173 172 167 163 159 153 155 146 141 136 131 132 136 134 132 129 130 124 120 109 107 84 105 140 147 110 110 114 99 135 147 119 145 70 90 90 90 24 130 149 133 151 102 77 77 124 80 64 94 103 118 121 124 125 120 124 124 123 134 140 149 151 157 161 162 164 160 133 115 94 103 49 29 46 94 97 98 107 101 85 72 41 58 111 123 124 118 135 155 164 166 168 173 169 163 161 157 149 148 141 135 127 133 131 134 131 134 133 132 127 123 108 99 99 133 139 124 131 119 110 95 132 148 129 130 74 86 88 89 36 124 157 127 171 114 79 85 144 112 69 91 103 118 122 124 125 128 124 126 118 131 136 144 150 154 162 163 167 156 130 130 92 106 69 35 49 58 88 91 93 86 85 98 81 37 78 112 113 118 145 148 163 164 169 169 165 161 160 153 144 140 137 126 127 129 131 130 131 138 132 131 130 123 107 95 110 146 119 136 149 129 105 93 144 136 141 121 65 89 87 89 33 116 173 111 170 145 87 106 135 126 80 92 104 113 126 125 124 129 127 129 120 131 135 143 149 151 162 167 163 158 143 129 125 91 80 53 82 75 79 86 90 105 115 128 120 99 74 95 97 132 145 150 161 161 168 168 160 158 157 147 143 140 133 121 128 129 128 133 136 135 136 135 128 123 108 92 124 151 111 151 150 129 95 113 153 127 156 98 73 85 85 88 46 93 188 126 148 177 118 150 140 116 95 91 105 112 121 125 123 130 130 129 127 130 141 140 148 154 158 166 159 161 155 145 144 102 77 60 96 105 112 114 110 123 135 127 123 105 82 88 112 141 150 148 162 157 164 167 160 160 155 143 141 134 131 121 131 124 128 131 138 134 137 134 129 122 110 91 130 150 122 129 128 126 110 146 143 132 155 80 80 83 88 90 63 60 168 170 125 146 135 165 163 129 106 93 103 109 125 122 126 124 132 128 129 129 134 144 144 150 159 161 160 161 164 159 162 133 117 100 104 122 124 137 129 133 142 141 131 122 126 134 140 147 146 151 155 163 159 162 163 160 151 147 140 133 131 130 128 128 129 133 136 133 138 130 129 118 110 94 137 152 141 127 145 137 124 146 129 154 133 71 80 89 84 85 70 43 132 180 163 123 117 153 150 128 115 98 98 114 119 126 123 126 129 131 126 130 135 141 147 153 160 159 157 164 164 164 161 153 137 123 122 133 135 141 133 135 147 149 140 138 143 146 149 153 149 151 152 159 157 163 160 157 155 146 138 136 131 130 128 130 131 138 138 134 138 132 127 118 108 95 144 142 145 148 147 136 125 137 142 160 101 70 84 85 81 84 73 51 74 177 184 163 140 138 163 136 128 104 97 114 121 124 124 126 126 127 125 126 132 140 147 155 158 156 158 163 166 162 161 156 155 144 137 148 146 144 136 136 146 149 144 144 146 150 148 151 154 149 154 155 157 160 158 157 152 143 136 134 132 130 130 128 137 136 136 135 133 131 126 116 111 97 152 140 138 140 147 129 136 136 152 141 75 80 84 83 84 83 70 70 43 136 167 173 168 159 175 157 142 107 95 114 120 124 124 127 125 125 125 126 135 141 147 155 156 158 159 158 160 158 158 156 154 152 144 158 152 145 139 131 144 144 147 143 145 145 147 146 151 153 156 155 159 157 153 153 149 147 136 134 132 127 132 130 134 133 132 132 133 127 124 120 106 104 158 145 141 141 144 136 151 145 143 116 67 80 86 77 83 79 69 73 53 78 149 172 170 170 174 161 146 116 93 115 126 125 126 125 133 121 128 125 134 138 144 150 156 158 158 155 159 149 158 156 152 152 150 165 160 154 147 128 132 145 148 143 144 146 138 146 151 149 156 157 159 157 145 137 145 146 139 132 131 128 128 131 131 132 133 133 129 128 124 117 111 97 153 149 147 148 149 139 146 153 133 78 76 79 80 80 78 80 67 70 71 48 104 160 167 167 167 156 139 104 94 110 128 128 130 129 127 123 122 125 131 136 143 149 151 149 155 153 155 154 157 159 159 155 159 172 173 157 158 137 136 158 151 144 143 143 142 143 147 145 153 164 152 154 152 139 144 141 139 129 132 129 129 129 132 130 131 131 128 128 124 120 106 97 139 151 144 149 149 140 142 151 93 74 81 83 78 83 78 86 69 68 70 64 63 126 150 157 154 150 126 87 89 111 124 127 129 130 133 121 118 122 130 132 140 147 149 146 150 149 155 151 153 162 162 153 167 180 174 171 159 155 150 165 158 154 150 148 145 143 148 143 150 156 138 148 152 143 146 139 135 129 129 127 132 131 131 132 127 129 130 130 121 119 112 79 126 145 142 143 141 136 142 121 69 77 78 81 80 81 80 80 71 69 69 69 63 62 117 131 139 129 113 72 74 105 121 129 132 128 130 129 119 118 121 130 137 136 149 144 148 152 151 149 150 161 155 139 131 154 167 174 176 169 165 154 154 154 159 154 148 149 150 145 151 143 139 138 145 144 141 138 132 130 122 125 134 132 129 129 126 133 130 128 122 114 120 32 103 132 135 137 127 130 109 77 78 74 80 79 83 79 81 75 71 71 69 68 70 65 68 84 94 104 92 67 66 101 118 125 126 134 129 130 120 118 118 128 128 136 144 148 143 145 145 143 136 134 120 112 99 100 113 143 157 139 123 112 114 126 150 153 149 146 149 146 147 141 138 128 141 138 139 135 128 131 119 126 135 130 129 123 131 132 127 125 121 115 111 30 44 105 116 113 105 92 79 70 78 78 80 81 81 78 85 79 70 69 69 72 69 68 71 65 69 74 70 70 65 88 111 124 125 134 130 130 121 119 118 126 128 132 136 141 140 135 134 124 109 98 98 102 101 101 92 104 115 104 103 105 105 98 109 127 137 146 147 147 145 143 140 133 138 132 136 133 130 125 119 128 134 131 131 124 131 131 127 121 121 112 99 32 38 55 72 76 73 71 80 72 79 80 78 83 74 82 80 80 66 71 69 69 72 69 70 70 68 68 71 68 64 74 105 117 122 131 131 126 124 122 123 125 121 132 129 126 117 112 100 89 82 76 85 83 75 88 91 90 96 90 95 96 97 96 88 90 103 122 132 141 137 138 133 142 142 130 137 131 128 126 120 134 126 135 133 136 134 130 128 117 117 117 70 34 50 48 60 70 68 73 75 80 76 81 77 80 80 80 80 77 67 72 70 71 70 70 69 72 67 70 68 72 65 71 91 112 124 122 133 123 128 121 125 125 125 129 123 113 96 85 81 68 66 65 60 73 63 63 74 86 83 80 77 79 81 83 74 81 80 86 100 118 127 130 131 140 138 134 133 130 128 122 118 133 128 131 135 135 133 128 122 115 110 111 41 38 50 51 61 68 72 73 73 79 78 80 79 79 81 80 80 75 71 70 69 69 68 69 70 72 67 71 69 71 68 65 78 102 121 121 130 123 124 122 125 128 126 123 118 108 110 121 102 82 96 104 87 108 109 103 94 100 85 86 81 81 85 81 61 78 71 62 64 75 89 105 123 133 135 133 132 128 128 124 117 129 134 133 136 131 132 126 114 107 112 81 27 47 51 50 64 66 72 74 75 75 75 80 74 86 79 83 78 79 68 71 67 69 68 69 70 68 70 69 71 71 70 68 71 87 112 118 127 124 123 123 120 128 128 128 124 119 124 144 137 121 123 128 116 135 134 144 141 137 122 132 122 110 117 110 100 108 111 92 97 103 105 101 111 127 132 129 133 128 128 122 120 127 134 136 132 130 131 116 109 102 96 49 39 48 49 50 68 70 72 71 76 73 77 77 75 81 76 82 78 77 69 69 69 69 70 69 65 72 65 70 69 72 69 69 63 77 99 112 127 123 121 123 118 127 129 128 130 128 128 134 137 135 120 122 117 135 132 149 148 151 134 149 149 140 135 134 123 118 117 107 114 124 135 121 117 128 129 130 131 131 128 123 121 130 132 134 133 124 121 111 101 98 64 35 46 48 50 54 67 69 75 72 74 78 76 80 74 83 75 84 79 76 67 70 72 66 73 67 69 70 68 68 69 72 70 72 66 66 82 111 123 124 119 117 118 124 132 132 132 134 120 124 127 127 126 121 107 113 115 123 130 135 130 122 126 134 132 118 110 116 118 119 123 132 132 124 128 133 131 135 132 133 127 122 124 128 135 132 133 124 116 102 93 72 35 44 47 50 49 60 69 71 69 77 74 79 76 78 79 79 82 77 80 78 70 69 70 70 68 70 68 68 68 71 67 70 72 69 74 64 67 97 119 122 120 116 113 123 124 133 130 127 122 118 115 110 106 116 118 109 108 113 111 117 117 110 104 111 112 104 112 119 122 116 119 126 126 125 131 132 131 134 129 131 127 121 126 130 132 131 129 119 108 98 71 30 38 49 45 50 51 63 67 69 72 72 77 77 79 79 81 79 80 78 81 80 71 68 68 69 69 68 69 67 73 69 70 68 71 68 71 71 56 87 113 120 122 118 113 117 123 130 127 123 123 108 114 99 96 89 100 111 116 109 110 117 115 110 109 107 111 111 115 115 109 115 120 120 125 126 132 128 133 131 127 127 127 122 129 127 127 131 123 115 92 96 36 31 42 49 48 45 54 64 69 67 75 72 74 78 77 76 78 78 77 82 83 79 69 69 69 67 69 68 69 70 70 69 70 69 70 68 72 68 72 62 103 115 121 120 117 114 118 127 130 120 119 107 107 100 99 90 83 81 82 85 80 89 94 85 88 87 94 95 98 106 109 117 118 119 120 125 123 131 132 128 126 127 122 124 128 125 130 131 117 101 80 91 36 36 47 48 46 51 56 68 69 72 74 75 75 77 78 77 77 79 80 78 81 78 66 70 67 71 67 71 70 68 72 68 70 71 68 71 72 69 70 58 88 108 120 115 121 113 119 130 131 126 117 117 107 109 108 108 102 91 82 74 67 66 69 74 71 73 83 85 94 104 115 111 118 117 118 121 123 128 129 126 124 121 124 125 125 125 126 124 113 85 82 91 36 39 47 48 48 50 54 69 69 70 72 78 78 77 79 80 77 81 74 81 77 77 66 72 68 70 67 71 67 69 69 69 68 69 70 68 74 69 71 66 67 98 114 117 115 118 117 123 129 129 126 119 117 116 123 116 116 114 117 116 119 114 117 116 118 114 118 116 112 118 122 113 116 119 118 124 126 128 126 127 121 120 122 122 125 125 122 116 95 81 100 84 26 46 46 52 44 55 58 70 67 73 74 76 74 76 76 80 78 78 82 76 77 78 67 70 69 68 68 69 69 66 71 68 68 68 67 72 69 67 74 66 62 88 105 115 115 120 114 126 125 130 130 127 130 126 131 125 130 125 123 125 130 127 134 140 140 143 144 138 130 124 122 122 124 120 122 127 130 131 129 126 125 119 123 121 127 120 116 101 85 94 115 71 29 47 47 48 50 54 66 68 70 71 73 76 76 77 77 74 79 78 79 78 79 76 70 67 69 68 68 69 69 69 66 72 67 69 69 70 71 68 69 72 64 85 92 109 116 119 117 124 131 133 136 135 138 138 135 137 145 139 131 127 129 131 137 143 145 141 145 145 144 138 126 130 131 129 127 133 133 134 130 127 126 120 121 122 125 116 106 84 99 105 120 63 30 45 51 45 48 61 66 70 70 74 70 81 75 79 76 76 82 75 81 80 78 78 68 71 63 72 68 68 70 68 67 69 68 67 72 65 76 68 72 67 66 87 89 97 109 115 121 130 137 140 144 143 143 144 146 144 156 145 138 142 144 141 146 150 146 145 145 141 149 140 132 133 138 136 139 137 138 136 133 126 124 119 119 121 119 103 92 89 110 114 128 46 33 50 47 51 54 62 70 67 74 71 73 77 77 78 77 78 78 77 75 78 80 77 68 70 65 73 68 68 70 68 66 69 70 67 68 69 73 69 70 66 73 86 95 88 105 112 118 126 136 142 149 148 145 147 148 141 152 151 145 145 147 157 152 157 155 149 155 150 145 139 137 139 141 141 145 142 142 138 132 127 124 121 121 117 110 91 94 102 114 111 127 42 41 49 48 53 56 67 71 70 75 74 72 74 80 72 81 77 79 77 77 79 78 77 69 68 66 71 67 70 67 68 70 64 70 71 70 69 71 69 68 67 69 94 97 87 96 106 110 123 133 138 153 151 151 145 146 131 146 147 149 146 139 151 150 149 156 153 160 157 145 135 133 143 144 149 147 144 143 138 134 128 124 119 118 109 94 88 105 107 117 112 124 37 40 52 51 54 63 67 69 75 73 74 79 73 78 81 77 80 80 78 76 81 79 78 67 68 70 67 64 71 70 69 68 66 65 71 67 68 70 70 72 66 67 98 98 93 82 103 103 114 129 137 149 152 152 145 140 129 131 140 146 143 140 142 143 138 152 155 156 153 144 136 129 140 150 151 154 145 141 140 128 127 119 115 110 94 84 103 108 111 117 115 122 30 46 53 51 58 65 66 70 71 71 78 74 76 80 77 78 79 79 76 79 77 77 80 65 67 70 64 69 66 70 69 67 67 67 71 65 71 67 69 73 68 70 96 101 96 89 85 101 103 124 133 142 153 149 143 139 127 125 130 140 147 143 138 143 135 143 155 148 149 145 134 130 132 150 154 151 144 136 130 123 120 114 108 95 85 92 106 114 115 115 114 117 33 45 53 57 60 66 70 70 72 73 76 72 76 79 76 76 76 80 76 79 73 78 77 68 68 66 68 66 70 65 68 68 69 70 68 67 69 69 69 71 66 65 104 102 94 97 81 89 103 106 123 134 142 146 141 140 133 123 124 122 139 134 132 138 129 138 145 144 141 129 125 129 135 142 150 139 140 132 124 117 114 101 91 85 93 102 113 115 113 112 114 115 30 48 57 60 64 70 67 69 75 73 75 74 76 81 75 78 76 76 79 75 79 75 76 70 71 65 71 67 69 67 68 66 69 68 68 68 69 67 70 72 62 71 102 106 96 95 89 80 96 103 110 120 129 140 144 139 134 130 123 118 127 134 131 127 127 128 133 137 133 127 128 131 137 140 138 133 130 123 120 108 100 86 86 93 101 111 117 116 111 113 114 110 35 51 56 64 68 69 71 70 75 74 73 79 72 78 76 75 77 79 76 78 75 77 79 67 68 70 69 67 68 67 69 66 68 66 69 67 73 63 72 70 65 67 103 103 98 96 88 90 80 95 102 106 116 126 136 136 130 127 122 121 123 123 126 127 125 128 127 127 126 122 125 125 130 128 126 126 119 114 108 95 85 85 88 103 110 111 119 116 111 112 115 106 31 59 62 67 69 70 72 70 74 72 74 75 76 76 75 76 74 77 78 74 78 77 76 70 70 70 68 68 66 70 65 71 70 67 71 67 69 69 68 72 67 65 106 104 98 96 92 88 91 82 90 102 104 111 125 125 123 119 117 113 115 116 117 120 116 119 119 117 117 113 116 121 118 122 120 114 110 101 87 86 87 92 99 112 113 119 118 115 113 112 118 89 42 64 65 71 70 67 75 72 71 77 75 75 75 78 75 75 76 77 79 76 75 78 75 68 68 70 65 73 67 69 65 71 67 69 68 67 70 69 67 70 67 69 104 108 101 100 94 89 92 89 81 89 102 103 111 113 109 113 105 107 106 112 105 108 106 109 110 110 110 104 110 111 114 113 110 107 95 81 83 91 91 101 111 112 115 117 118 114 118 111 114 76 56 65 69 69 71 70 71 73 72 74 75 77 79 78 75 77 76 74 78 77 77 75 80 69 69 69 70 67 69 66 67 71 68 67 72 67 67 68 72 70 68 64 110 104 106 97 97 95 94 88 86 85 82 99 102 102 102 99 98 98 98 99 99 97 97 101 101 99 97 100 104 104 102 97 96 77 81 85 93 94 104 109 111 118 118 120 119 115 116 109 115 75 62 68 74 69 72 72 74 76 72 77 72 79 77 76 75 77 75 76 76 79 75 78 79 67 71 68 68 72 66 67 67 68 67 67 69 68 70 70 68 69 66 69 108 107 106 102 100 96 94 88 88 81 83 83 89 92 95 97 93 93 94 92 92 94 91 92 94 92 86 93 92 88 86 76 75 77 84 92 100 102 110 114 116 118 117 119 121 116 115 108 113 105 58 67 72 72 72 71 76 73 76 76 75 72 76 76 76 74 78 74 76 78 76 74 79 69 70 68 68 73 68 67 68 69 67 71 67 68 69 71 69 72 52 94 114 105 105 104 101 96 95 94 88 82 83 86 83 83 78 77 77 81 84 82 82 81 78 75 77 77 74 75 71 69 67 69 73 81 91 101 108 109 115 115 119 116 119 122 116 117 113 111 84 187 50 66 72 73 71 76 71 75 74 75 78 74 76 77 74 73 79 75 76 76 78 72 78 69 69 71 67 69 68 67 68 69 69 68 65 71 68 71 67 70 54 132 114 104 105 102 104 96 94 96 89 88 82 82 89 80 79 76 64 68 68 68 66 63 68 64 66 64 66 68 62 67 65 75 83 91 97 111 108 109 119 114 115 118 120 119 114 115 115 116 71 162 121 53 70 73 75 73 73 75 75 74 74 76 76 75 78 77 74 77 75 79 73 77 75 69 69 72 68 66 68 69 67 70 68 69 66 70 71 67 72 56 79 153 101 108 107 102 101 100 97 94 90 89 83 83 88 82 79 82 67 64 70 63 65 63 61 66 60 63 68 65 65 71 71 82 94 100 105 112 111 114 120 111 114 119 118 120 118 111 115 113 88 102 197 52 70 74 74 77 73 74 75 75 73 76 75 76 76 76 75 79 77 74 74 74 75 