P2
92
112
255
104 101 104 104 105 103 104 104 103 106 103 102 105 104 103 100 93 101 101 103 98 106 92 75 59 47 52 50 59 57 65 61 54 47 46 45 38 38 55 48 49 52 48 52 56 46 71 70 65 65 66 60 54 51 51 56 57 45 59 66 63 61 68 82 95 101 99 98 105 102 103 103 101 103 103 106 101 103 102 103 100 107 99 107 102 101 104 102 101 104 102 103 104 104 103 105 104 104 102 103 102 106 102 105 102 105 88 92 95 101 100 90 95 95 83 49 46 40 38 45 51 56 53 58 51 41 47 33 33 45 48 53 51 55 54 63 52 53 60 66 69 78 70 76 73 62 53 57 62 60 56 46 48 44 43 63 76 83 94 101 102 103 101 102 103 101 104 102 103 102 101 102 103 103 104 102 102 101 103 106 104 103 101 101 102 106 102 105 104 106 101 103 105 102 104 98 98 87 83 89 88 86 83 79 82 71 47 34 41 34 35 36 41 41 45 51 50 49 56 47 35 38 36 47 53 68 65 61 65 69 65 65 60 70 67 66 70 66 77 74 67 65 56 49 44 44 37 45 55 49 76 87 100 101 104 103 101 102 102 101 107 103 104 101 102 104 102 102 102 104 100 102 104 101 103 102 106 104 104 103 105 104 102 105 101 99 96 77 79 61 66 72 75 66 69 75 52 38 34 37 38 51 46 46 48 52 65 73 59 66 68 56 44 51 49 55 55 57 56 62 75 68 70 72 64 58 65 73 76 83 81 79 76 66 66 54 48 44 43 40 41 40 43 61 79 96 96 104 98 104 101 102 103 104 102 103 102 103 102 103 101 103 102 102 102 103 103 102 105 103 104 103 104 103 100 86 75 71 63 68 67 69 68 63 67 62 58 52 35 27 31 30 50 43 43 61 57 63 68 64 59 53 53 61 61 63 55 57 70 57 58 68 62 60 61 68 62 58 54 67 73 70 84 80 68 61 61 53 55 52 45 45 49 51 44 44 57 68 89 100 103 101 101 102 105 102 102 105 104 104 104 103 101 103 103 101 103 102 102 101 104 104 100 105 104 102 77 71 77 80 81 71 72 74 63 63 49 43 52 37 32 32 35 37 39 36 32 45 50 57 53 48 42 42 36 57 57 58 49 52 57 54 48 64 56 58 53 55 58 61 50 66 74 69 76 74 68 67 63 66 59 55 64 49 51 55 56 51 46 43 58 78 89 103 103 107 100 105 103 101 104 104 101 105 99 104 103 101 104 101 103 104 104 105 100 103 106 93 74 89 87 79 71 59 54 51 54 49 43 53 46 34 27 30 28 31 36 39 39 48 55 51 49 40 56 58 58 66 61 51 47 39 43 50 63 62 54 59 48 41 50 52 55 72 81 76 83 78 72 71 72 81 73 65 74 53 48 39 47 48 45 45 47 46 60 81 93 96 105 101 103 103 103 101 102 104 102 99 103 102 102 102 102 103 105 102 101 107 103 90 64 66 52 49 43 38 38 51 48 42 36 41 41 29 30 29 25 30 34 37 37 32 38 48 52 60 67 61 63 54 49 53 64 59 52 57 73 70 58 66 57 53 56 61 63 80 75 79 75 63 54 51 54 55 54 64 59 51 43 36 36 41 47 37 43 43 39 56 56 73 87 107 104 102 106 97 104 101 104 100 102 102 101 101 102 102 102 104 103 105 95 77 54 49 40 39 43 57 52 40 44 35 36 40 52 27 35 27 29 34 41 39 40 35 38 45 50 58 62 59 58 48 49 56 51 56 55 67 66 64 63 67 50 47 51 64 70 87 75 77 63 53 49 38 46 44 58 61 55 46 46 47 47 39 35 40 32 39 41 39 46 34 47 90 106 102 104 100 102 102 103 102 103 101 101 103 103 104 103 104 103 101 75 66 53 37 55 41 47 54 50 40 45 42 33 47 44 43 34 37 34 40 41 35 35 31 32 36 30 40 47 55 49 43 53 49 50 65 67 58 54 54 55 50 49 51 57 57 69 76 67 70 66 60 66 39 53 57 66 45 46 53 55 70 63 54 47 42 34 33 44 57 43 34 36 34 97 107 99 103 102 101 105 98 105 104 101 103 103 104 105 104 102 91 65 60 50 47 54 46 50 47 43 48 55 48 39 53 49 32 36 34 38 29 30 32 32 30 29 29 32 37 51 48 48 53 44 68 59 58 50 46 45 57 52 47 45 48 50 51 59 62 53 55 60 69 72 64 52 71 58 50 56 47 58 63 54 52 47 48 37 58 42 42 40 37 31 37 47 107 101 106 98 106 101 103 101 101 103 105 101 101 106 101 87 64 59 59 47 50 42 56 56 46 58 71 60 67 63 80 56 46 55 26 43 38 36 48 31 36 29 31 31 35 36 41 45 44 56 60 61 55 59 66 74 58 43 37 39 54 61 61 67 62 61 69 64 75 77 71 59 66 63 58 55 51 59 66 57 49 42 43 42 48 43 34 33 34 39 36 26 85 103 100 103 103 104 100 104 101 102 104 102 103 104 89 58 65 55 64 47 51 56 54 58 64 73 82 59 59 97 97 56 51 67 47 48 44 46 40 49 47 31 37 45 39 37 52 48 54 52 68 69 66 78 59 55 44 34 39 48 64 70 68 69 86 84 93 75 70 59 51 50 60 50 54 49 56 51 62 39 41 45 47 46 47 51 47 48 39 33 40 25 56 99 100 104 102 106 103 103 100 103 104 100 106 97 72 59 71 63 56 48 66 57 59 77 79 81 89 75 66 100 101 100 69 72 55 50 55 45 48 51 58 45 50 60 60 61 67 69 82 69 69 68 61 54 51 46 52 58 56 62 77 77 72 89 97 91 86 68 46 50 40 57 54 57 64 73 69 60 51 45 40 48 61 54 52 48 50 39 44 39 38 19 40 96 101 104 102 103 104 105 97 105 100 101 102 77 70 66 66 63 53 55 64 68 59 95 97 93 78 72 85 74 81 88 94 106 79 68 77 76 67 57 76 67 74 64 67 62 68 70 64 60 57 50 60 62 67 69 71 74 63 66 76 59 60 81 98 83 65 55 53 64 53 61 75 66 60 66 51 50 43 46 50 54 58 59 52 52 38 36 32 43 57 25 22 93 105 105 102 104 101 106 101 103 104 103 104 64 75 73 63 51 64 54 73 70 72 108 103 95 89 80 88 67 82 71 62 78 85 87 94 92 76 71 62 60 53 58 53 58 54 49 47 61 61 54 59 72 76 78 69 66 57 59 56 46 64 77 97 66 56 65 64 60 67 66 74 55 45 60 58 61 56 54 55 67 67 56 59 53 54 43 26 29 47 42 20 66 108 105 101 106 102 106 101 102 104 101 103 67 69 75 61 57 70 68 74 81 93 102 97 107 89 89 72 85 87 76 66 66 68 79 84 98 99 96 93 92 66 67 65 63 63 46 44 49 54 63 67 79 89 84 66 57 66 61 51 54 55 71 67 56 64 58 75 81 63 61 62 62 57 77 71 86 72 60 66 64 64 54 59 47 54 47 34 31 34 29 34 28 86 108 104 105 104 103 104 102 104 102 102 63 75 76 65 67 91 81 76 97 112 101 100 91 93 89 73 84 89 57 66 71 82 77 86 82 77 78 76 91 86 88 79 74 74 75 62 53 60 80 81 69 60 54 51 50 58 49 49 47 56 51 46 65 64 71 74 62 54 59 61 61 64 71 76 82 80 72 67 62 55 48 47 45 38 51 40 38 40 35 31 32 41 85 108 104 101 105 104 104 101 104 101 52 77 68 73 85 97 73 104 104 108 97 102 109 100 74 89 72 98 72 66 62 74 67 84 96 86 95 98 90 68 74 82 88 67 77 68 64 64 60 65 56 48 49 58 51 44 41 47 42 40 48 47 67 71 72 63 74 69 72 80 73 85 90 89 95 83 82 81 68 66 61 57 56 47 46 44 41 37 42 38 37 34 59 101 103 105 101 104 102 104 103 104 58 68 68 71 91 76 88 118 92 102 103 118 108 69 75 55 85 87 90 68 73 74 63 69 85 82 77 80 86 69 79 75 65 71 64 63 58 55 61 45 43 50 42 49 46 43 41 38 37 43 52 62 71 76 58 55 72 80 91 97 91 94 97 89 89 68 73 74 68 63 60 52 53 49 44 53 29 39 30 40 44 28 58 90 107 101 102 104 101 106 100 104 56 61 58 76 89 90 103 106 100 118 119 88 73 60 55 67 59 89 83 84 98 85 89 80 81 96 83 98 96 88 80 84 82 79 71 53 46 41 46 47 49 42 46 45 42 45 39 55 54 60 72 86 78 63 65 78 82 100 108 106 108 109 99 94 81 76 70 70 67 60 53 58 57 61 55 57 50 28 46 26 37 42 35 85 97 106 104 104 104 101 104 103 50 60 53 73 89 98 104 96 107 114 76 67 61 61 60 58 70 77 89 86 90 93 83 87 97 108 98 104 92 92 90 79 74 69 72 57 55 58 57 52 61 47 53 46 51 54 52 61 71 76 86 80 73 86 92 100 108 113 103 107 108 98 87 75 59 59 75 74 63 71 62 55 36 60 49 58 54 33 34 34 23 48 31 58 100 102 100 107 100 104 104 101 43 55 59 74 98 88 105 99 96 72 53 55 72 54 51 55 64 69 77 83 97 87 102 93 96 90 94 102 104 98 89 83 82 73 73 64 53 60 48 66 62 68 68 72 67 72 69 68 68 83 81 82 90 100 103 110 105 98 83 77 78 67 66 63 61 60 84 114 71 66 87 81 46 67 46 43 52 59 37 20 29 50 36 40 95 104 104 102 102 104 104 102 48 59 59 81 102 91 102 97 75 41 40 59 58 48 50 58 66 58 72 90 79 85 82 84 93 103 87 85 93 88 88 90 93 88 84 84 71 78 66 46 68 66 54 75 74 77 68 75 60 68 77 82 100 102 110 117 107 108 91 78 82 77 73 64 56 57 54 86 120 93 92 116 105 61 68 43 34 55 46 20 27 37 54 33 68 97 101 104 103 104 103 104 47 45 56 94 94 102 99 82 46 55 51 54 47 41 51 61 67 62 73 85 76 79 82 68 82 82 85 77 79 79 75 80 85 92 94 82 85 88 84 85 77 82 76 69 80 88 87 100 89 90 93 89 98 117 109 110 103 101 96 86 78 70 60 71 68 52 54 49 67 110 105 97 117 102 72 66 44 37 47 19 24 30 33 40 44 87 105 105 105 104 104 102 39 41 54 103 94 109 81 54 59 59 32 33 34 37 50 56 67 80 89 96 82 75 85 71 69 80 79 80 81 88 85 83 74 85 91 93 83 82 89 87 90 88 80 88 88 92 100 107 96 92 99 101 104 105 108 111 105 92 86 75 64 67 63 80 93 77 66 54 51 54 110 92 91 107 98 81 56 38 34 19 23 26 28 25 40 77 105 103 104 104 104 105 34 50 54 107 95 111 67 46 62 30 23 31 35 41 63 61 78 105 105 99 93 92 81 92 70 68 72 95 81 89 95 90 85 88 89 91 85 90 93 88 93 104 103 89 93 95 98 102 95 102 112 105 102 106 101 94 86 89 85 74 74 75 91 98 110 92 78 69 47 39 44 108 78 87 99 104 71 51 36 22 25 27 25 26 16 80 100 104 102 104 106 105 36 57 50 102 95 109 63 46 45 33 22 35 33 54 66 69 100 115 111 104 99 107 89 79 90 72 79 79 97 100 94 102 98 89 94 90 94 101 94 97 82 94 92 105 107 111 110 107 105 108 109 99 92 92 80 77 82 85 91 101 106 107 114 118 124 113 98 75 62 45 35 63 99 72 73 94 84 57 55 43 30 32 27 26 18 48 102 106 103 104 107 103 39 51 46 100 99 102 58 41 42 30 28 35 39 66 70 83 115 124 121 111 105 109 101 87 84 88 91 90 81 107 89 97 104 93 99 89 97 103 94 99 95 93 88 80 86 90 90 88 91 92 92 83 81 83 79 77 86 101 112 123 135 131 130 130 132 119 107 99 66 57 36 49 76 84 57 68 89 66 56 46 43 32 27 31 23 32 56 108 100 106 104 101 38 50 51 98 102 99 59 40 45 20 41 28 54 63 78 102 125 130 131 121 114 110 104 103 103 94 86 110 100 83 100 85 104 107 102 90 99 97 99 80 98 106 104 95 89 84 87 85 86 86 87 86 83 84 91 94 98 123 124 137 138 145 139 141 137 126 119 103 90 66 34 39 61 73 62 51 72 83 49 41 50 42 32 30 27 38 33 90 106 103 102 104 49 50 48 88 99 92 71 32 47 29 24 44 58 71 94 118 132 140 133 133 124 117 110 112 108 103 112 86 115 106 86 110 92 104 114 97 100 110 112 101 85 104 104 106 104 91 87 82 87 84 90 93 95 94 113 119 127 136 146 150 154 151 151 146 140 133 125 114 102 87 36 39 45 82 53 58 53 73 65 43 39 43 37 32 27 26 24 69 103 110 103 105 43 48 41 93 89 97 80 34 42 34 23 49 61 66 102 124 131 147 144 138 136 122 119 118 118 105 110 114 104 104 94 88 106 105 107 114 105 107 109 114 85 98 115 114 114 114 106 106 105 103 98 108 110 116 133 141 137 149 153 154 156 155 154 149 147 134 127 121 110 97 52 32 45 79 47 54 48 54 74 51 37 46 37 36 30 35 24 52 105 104 104 105 32 43 29 90 89 84 98 48 35 49 36 38 61 73 103 125 138 149 151 148 144 132 130 123 117 113 107 114 118 106 105 94 71 105 106 105 116 112 104 125 120 107 140 139 132 133 126 130 129 129 123 123 136 135 135 147 145 148 158 158 160 161 161 155 150 142 123 126 117 99 71 33 37 77 46 50 44 42 70 56 39 41 50 51 31 34 32 37 95 107 102 109 40 49 22 85 84 83 92 66 34 42 46 44 57 75 108 127 139 147 153 152 156 148 142 138 125 117 118 104 109 113 106 105 87 77 99 106 103 112 110 113 134 125 139 151 155 155 151 145 147 144 147 142 144 146 145 141 157 152 155 161 166 164 162 158 151 148 131 128 115 98 76 46 33 74 44 39 48 44 60 48 42 44 43 51 49 41 34 29 86 102 107 102 47 51 28 56 91 69 91 75 47 41 46 47 61 79 104 125 143 144 160 158 161 156 154 153 140 133 122 118 104 111 109 103 101 90 98 109 122 116 112 110 130 144 148 151 153 157 153 154 154 150 154 152 148 151 148 146 148 158 152 157 160 160 165 158 152 151 140 123 119 105 82 43 36 66 46 26 60 39 53 45 34 42 40 42 51 45 36 31 76 107 104 104 42 47 42 31 95 58 87 85 64 40 49 48 60 73 103 125 134 145 155 162 163 166 159 160 151 143 139 129 124 113 114 115 98 102 100 115 120 130 137 120 119 147 160 156 160 161 161 160 160 158 163 159 160 157 157 153 149 157 154 157 157 156 162 159 154 152 144 129 114 106 98 54 31 63 45 23 55 39 29 42 27 38 36 42 43 43 40 30 77 107 107 103 46 43 39 41 59 88 67 81 81 64 38 55 55 71 105 125 138 148 159 168 164 163 164 157 160 152 145 142 132 131 123 125 122 118 112 126 128 125 143 143 134 143 163 166 164 170 168 167 167 167 165 165 165 161 162 160 163 157 159 159 157 151 153 156 154 147 147 133 112 103 101 70 37 60 41 17 51 39 23 34 47 28 36 42 31 41 39 37 72 106 105 106 49 33 37 43 35 84 76 64 79 71 62 54 56 71 102 123 134 145 156 168 166 165 169 162 162 162 160 149 146 143 131 132 128 132 137 134 152 143 145 151 139 157 160 165 169 175 178 178 173 174 171 171 168 172 167 165 164 163 160 160 157 154 150 153 152 147 145 131 122 106 100 73 42 59 37 20 46 36 23 27 40 34 34 39 29 41 52 36 71 107 103 105 43 24 44 39 33 44 81 68 62 87 72 59 60 64 97 120 136 149 154 166 165 168 169 172 165 168 167 167 159 153 147 143 146 140 146 149 152 159 160 153 152 161 162 165 169 178 185 186 183 182 178 178 172 177 173 172 168 165 164 165 161 161 156 149 150 143 140 135 123 116 110 80 48 55 37 34 40 40 23 27 35 35 35 43 42 39 42 39 68 105 103 104 37 28 46 38 27 36 54 58 73 52 72 78 76 84 91 118 140 148 154 162 166 168 170 174 172 175 173 172 173 160 157 159 163 159 161 161 163 163 165 163 165 171 167 169 173 177 182 188 187 184 186 185 182 182 178 175 176 171 169 167 165 162 165 158 148 144 140 137 120 121 108 100 60 51 38 45 31 43 25 27 27 37 32 37 41 47 44 22 49 107 104 104 37 37 47 32 28 34 35 51 50 60 52 56 69 72 95 112 138 147 153 162 164 165 164 170 169 177 178 176 176 176 170 166 170 169 169 167 170 168 170 172 177 174 172 176 176 181 182 185 186 189 189 185 185 183 180 177 176 175 172 170 166 162 162 153 153 147 136 137 124 114 110 107 78 50 43 38 37 37 38 23 28 34 31 31 26 44 51 29 29 99 105 101 37 41 32 32 22 33 36 27 47 51 48 50 52 63 93 111 137 144 144 148 154 158 158 156 163 167 164 161 164 166 169 163 168 172 175 171 171 175 176 176 184 176 176 177 176 178 187 183 187 185 185 181 181 181 178 177 162 163 161 157 141 139 137 127 125 135 124 127 131 115 106 110 87 60 45 41 35 39 35 26 24 37 27 34 28 28 43 36 25 92 105 104 37 34 26 38 28 25 32 28 28 37 47 45 51 70 95 103 121 121 121 115 118 123 128 138 144 146 143 150 144 136 150 151 159 151 160 171 169 176 174 178 180 174 178 174 177 178 179 184 178 172 166 174 166 162 158 151 129 125 126 121 114 99 109 103 97 101 99 95 107 116 104 111 93 79 53 35 39 39 34 28 23 33 34 26 33 23 36 35 23 83 106 99 36 34 35 34 25 29 30 26 27 27 33 42 55 71 81 88 90 99 99 99 82 73 90 96 102 98 92 91 103 126 115 128 149 147 139 157 166 172 171 168 179 160 164 164 175 166 167 176 157 156 154 149 126 113 113 112 98 97 96 88 95 92 99 91 94 99 99 97 91 91 100 110 96 99 63 46 32 35 35 32 32 23 35 27 23 29 32 36 12 88 108 99 34 38 34 30 30 30 27 27 22 26 34 39 56 64 72 87 92 91 86 94 80 71 64 75 75 79 71 79 76 92 101 102 125 141 143 143 158 161 167 165 169 153 152 160 171 156 159 167 141 141 141 133 116 95 92 88 83 79 88 82 85 83 87 106 113 113 112 101 95 83 83 93 98 104 74 45 37 32 31 37 33 26 27 38 25 26 35 35 13 69 108 100 30 40 26 39 28 32 23 27 20 24 32 50 56 60 68 81 90 93 90 101 99 86 73 57 69 67 54 66 75 69 82 101 104 117 133 139 143 161 165 158 154 151 145 155 160 151 151 163 140 126 131 112 97 89 79 75 69 65 70 74 90 105 126 137 139 130 127 122 106 95 88 67 93 107 87 50 30 37 27 30 41 30 25 33 36 24 37 32 19 46 110 100 26 28 23 41 34 21 28 26 23 14 40 57 54 57 73 86 97 100 114 116 129 130 116 95 88 78 68 63 61 82 77 88 103 108 110 131 139 151 156 156 151 153 148 150 153 156 154 143 132 127 118 104 98 85 76 71 78 80 93 120 137 149 154 155 149 145 137 134 121 111 103 78 71 108 99 72 27 31 37 25 34 46 27 28 39 24 39 25 32 57 98 102 24 25 31 45 32 27 25 23 21 20 39 60 50 56 85 97 112 116 123 132 140 146 146 136 130 119 109 98 96 93 90 87 90 102 102 112 126 139 151 157 156 151 156 147 148 152 144 131 121 116 108 96 92 92 94 98 110 123 127 147 152 154 152 155 154 148 143 137 124 121 126 101 71 89 105 81 38 27 32 35 32 43 35 30 34 32 33 27 25 82 103 98 21 31 41 44 31 24 27 25 20 17 40 55 45 58 92 99 108 112 132 143 149 153 154 153 145 145 144 136 132 124 115 106 94 93 87 94 113 125 144 158 165 153 161 161 157 151 138 123 112 101 101 98 106 113 124 127 138 139 145 153 157 157 155 156 149 147 141 131 120 125 126 118 85 83 109 93 41 27 28 33 36 38 42 37 31 35 29 31 24 90 103 101 29 32 43 42 42 28 25 25 20 17 34 57 54 63 96 101 107 121 136 143 150 156 156 160 154 152 146 141 139 138 130 126 115 101 90 79 83 107 128 155 176 163 156 174 170 154 133 110 103 100 106 116 121 122 121 119 125 124 133 143 151 150 149 146 140 144 143 137 118 116 127 128 105 79 106 106 43 31 28 23 39 40 36 40 29 37 31 24 36 83 106 102 28 38 45 49 43 28 28 22 21 16 32 64 60 71 97 99 103 122 131 139 137 136 136 137 149 149 136 139 128 120 118 115 118 116 107 93 77 68 110 148 170 181 172 176 174 155 120 106 108 107 109 118 111 109 112 120 116 118 98 80 94 104 100 112 130 132 118 116 124 115 134 134 116 93 99 110 48 31 31 25 25 40 38 34 42 35 30 23 34 91 107 98 35 42 47 52 43 23 29 24 18 13 35 71 72 89 98 102 107 118 104 116 125 132 125 107 91 76 88 74 89 110 116 114 117 117 119 120 90 72 82 138 164 185 181 180 176 153 118 112 107 115 111 116 115 115 111 103 102 118 75 33 103 72 46 62 91 110 127 98 96 121 130 135 123 108 97 115 66 35 29 27 26 32 42 37 41 34 40 17 44 105 103 101 44 33 45 41 48 21 29 23 22 13 40 87 82 103 105 102 115 91 72 122 112 101 94 72 59 27 119 67 40 118 109 105 104 106 137 139 124 75 85 123 161 185 184 184 175 151 116 123 107 138 127 127 122 107 106 105 130 134 69 41 47 50 48 51 93 73 84 107 93 113 130 129 125 118 101 116 86 36 31 24 21 34 39 43 38 37 31 35 63 105 104 100 31 37 48 32 51 27 25 23 25 12 65 93 93 110 113 103 110 81 74 99 79 94 95 65 54 38 30 55 47 130 148 128 134 100 106 156 132 93 108 125 158 179 184 180 176 150 121 129 108 144 158 121 122 110 127 123 144 156 81 55 41 36 47 69 108 96 81 81 95 115 132 128 128 122 113 119 97 52 36 24 23 27 40 49 41 41 34 34 78 107 101 102 39 35 40 33 58 27 25 23 26 16 81 103 101 115 119 108 109 91 74 95 94 95 116 81 59 49 35 53 79 142 150 132 128 120 127 135 140 116 122 138 167 178 185 183 178 163 124 135 112 146 165 128 129 122 121 119 137 149 115 67 53 54 64 110 123 117 103 87 97 111 128 131 130 129 119 122 112 62 43 30 22 24 37 52 48 31 44 40 84 103 102 101 36 31 36 26 54 32 20 30 24 20 89 110 113 119 127 119 108 108 90 93 128 120 128 122 72 67 60 74 124 156 151 144 149 155 158 145 133 129 130 141 174 184 182 183 178 168 127 137 131 133 153 160 156 151 138 138 148 149 151 122 93 95 113 128 138 122 101 106 121 120 125 133 134 133 127 122 122 77 49 32 24 23 29 58 46 33 53 61 112 89 102 104 24 34 33 25 45 33 26 28 26 25 102 114 126 126 136 134 125 127 128 94 106 125 155 158 146 135 133 152 155 166 146 141 143 153 151 141 137 134 129 143 183 186 180 181 183 170 134 128 149 135 137 142 149 146 139 134 142 145 154 140 137 136 134 117 127 120 119 135 136 136 130 135 145 134 136 126 123 106 50 37 32 23 24 53 52 40 83 74 127 95 100 98 24 38 27 28 41 33 26 32 24 34 105 121 131 139 143 144 145 135 135 130 112 104 127 130 130 131 132 138 141 137 129 136 144 148 147 149 144 131 130 146 188 190 181 179 182 173 136 126 149 154 151 144 144 146 142 140 129 131 137 135 136 140 135 132 129 137 137 141 145 141 144 139 145 144 136 132 124 113 67 40 32 22 27 45 57 60 108 80 122 103 98 99 32 41 30 23 39 32 29 30 27 47 111 122 130 143 150 154 154 145 140 144 135 122 124 123 124 124 126 121 131 136 149 149 153 158 157 151 140 129 132 151 181 192 185 179 184 163 133 131 140 160 158 166 151 146 156 154 145 146 144 141 135 137 138 138 140 148 149 149 151 146 149 145 150 142 140 131 126 120 71 42 32 26 23 42 64 90 118 90 114 113 87 102 45 53 30 28 34 33 29 38 30 57 110 118 133 138 153 165 165 160 154 154 147 144 139 141 139 142 143 146 148 147 157 152 153 163 157 143 135 128 129 148 176 193 182 182 183 162 139 134 138 150 162 166 162 153 157 166 160 164 161 164 159 160 170 163 164 160 161 159 152 152 151 153 154 148 137 132 125 119 84 37 35 26 13 50 103 105 114 105 108 121 91 96 43 68 32 35 40 33 33 39 29 52 109 119 131 139 154 170 164 163 159 161 160 161 165 167 162 159 156 153 149 147 151 154 168 162 151 138 127 124 133 145 172 189 185 180 182 159 140 135 139 142 154 160 168 167 156 164 165 163 166 171 171 172 174 171 171 159 164 155 158 156 158 160 154 151 135 137 116 120 84 36 33 34 11 61 147 118 123 106 112 130 82 100 64 88 32 42 53 34 32 39 35 47 105 119 128 134 156 162 169 170 163 165 166 169 170 173 164 159 159 150 148 149 158 166 173 160 143 132 124 124 130 145 174 187 186 181 175 160 142 136 140 142 145 157 169 168 164 159 165 158 161 167 169 170 177 169 169 159 163 157 159 158 164 162 152 149 136 132 119 114 77 34 33 33 11 85 155 130 126 105 116 125 87 99 74 113 26 67 87 47 25 43 39 47 95 114 127 132 151 158 171 165 167 175 169 164 169 167 161 160 154 153 153 160 168 177 168 154 138 128 127 123 136 149 173 189 186 183 167 158 142 136 136 138 139 154 162 169 164 166 171 167 166 166 164 160 171 169 166 161 163 163 161 165 161 160 155 146 135 131 116 109 73 35 29 32 22 106 156 145 130 96 125 118 86 101 78 127 30 101 119 64 20 41 48 39 83 107 123 131 142 152 162 158 157 163 164 159 163 160 156 154 161 164 168 171 172 169 164 152 134 126 124 128 150 157 178 189 184 180 167 158 147 137 132 136 136 148 159 162 167 163 175 174 171 175 169 167 168 168 161 162 158 164 165 169 160 161 154 136 134 129 110 103 67 38 32 33 53 117 142 153 131 91 136 105 86 97 76 128 47 118 135 80 23 35 51 37 75 97 118 124 137 145 153 150 152 154 155 156 157 162 157 160 162 167 169 172 169 168 159 153 133 121 121 139 153 164 183 190 184 180 163 159 158 140 128 136 134 142 154 155 161 164 171 172 171 174 172 170 169 163 157 158 159 163 164 166 163 157 148 134 128 126 108 96 62 33 37 43 78 120 120 154 140 87 144 94 91 93 62 139 61 123 135 101 33 37 54 38 66 90 108 122 127 138 149 146 145 152 151 152 156 157 161 161 165 170 170 169 169 167 159 144 134 113 123 147 155 165 180 195 186 176 168 164 157 143 120 129 135 136 151 156 159 170 169 173 172 174 170 171 165 163 156 158 161 164 158 160 157 150 140 132 133 120 100 93 48 34 47 67 89 114 109 140 145 105 150 84 88 93 50 139 107 119 135 101 47 27 53 38 58 92 98 115 123 127 140 143 143 144 151 156 153 155 163 163 163 168 171 165 164 163 158 145 122 104 129 156 161 166 188 196 186 179 174 170 160 149 120 123 129 139 144 154 164 165 169 169 177 176 171 171 166 166 162 159 160 158 151 155 149 142 128 134 125 112 105 90 30 44 101 103 98 114 102 130 145 124 148 74 95 92 37 139 133 116 128 99 67 38 41 39 52 92 96 113 116 122 132 135 140 140 141 148 153 157 161 163 163 166 165 166 160 162 157 144 112 108 141 152 164 170 193 196 188 178 172 166 161 148 122 122 125 132 145 150 169 165 169 173 173 173 166 162 168 167 163 157 156 146 149 146 138 139 132 129 121 109 110 86 42 99 134 126 114 111 100 121 151 131 139 72 89 93 36 137 138 122 134 89 73 65 49 47 39 90 96 108 113 117 120 133 139 136 143 146 154 156 159 161 162 169 167 168 162 160 158 139 107 120 142 152 161 177 185 190 187 179 177 165 158 152 121 126 120 125 141 154 167 169 169 170 167 175 159 153 163 166 157 144 148 138 143 137 136 133 133 126 119 110 110 89 85 135 129 144 129 112 90 131 142 140 130 71 90 90 36 129 146 122 140 95 74 68 107 70 39 82 96 103 111 114 117 126 131 137 143 147 150 154 157 163 160 167 165 167 164 158 155 133 115 123 142 155 170 173 179 181 192 194 175 170 150 152 121 131 139 121 133 154 164 163 171 164 171 173 165 156 159 162 148 141 138 138 135 133 133 131 128 126 117 115 103 95 129 129 123 160 137 95 104 147 131 151 112 75 91 89 32 124 157 116 154 111 71 73 131 113 56 78 96 100 113 111 116 119 125 129 131 141 148 147 151 159 161 154 170 165 165 160 154 128 116 124 135 153 167 172 173 170 185 195 173 163 150 148 130 127 145 124 128 151 158 168 168 168 169 165 159 153 155 152 146 143 137 132 133 132 131 130 124 123 123 115 98 101 145 123 134 143 126 93 138 145 129 157 87 82 86 88 45 101 175 113 153 145 77 87 132 124 80 77 96 101 113 113 114 113 120 118 126 127 142 140 142 148 154 150 163 168 165 160 146 123 112 120 129 142 159 164 165 165 165 167 161 153 144 138 130 130 137 130 124 147 160 163 165 165 166 161 158 154 153 145 143 138 130 127 129 129 128 128 128 124 122 117 94 105 147 127 109 118 132 124 143 130 144 147 75 82 88 87 50 76 180 142 125 176 127 125 138 119 93 73 98 100 107 119 115 117 116 117 118 121 132 134 138 147 151 156 159 165 164 160 140 112 109 98 105 119 137 144 147 151 144 140 135 135 127 127 124 128 131 127 126 149 160 161 161 168 164 162 157 150 145 143 134 128 125 126 126 127 127 130 127 128 124 118 95 110 151 143 127 149 145 126 134 139 164 109 71 88 84 89 68 43 147 183 129 137 136 151 166 137 104 74 97 100 106 117 115 119 119 116 121 114 124 132 135 146 150 155 157 160 163 159 133 108 96 93 86 93 102 117 123 126 123 114 111 111 108 110 116 118 126 121 130 151 156 160 161 165 162 157 156 147 141 135 132 122 123 124 124 128 130 131 131 127 123 117 91 118 146 138 145 146 135 128 134 152 151 86 76 85 82 87 74 44 98 176 178 140 112 138 154 139 108 83 93 102 105 116 120 119 122 120 121 116 120 130 133 144 146 158 159 164 163 153 131 111 93 86 57 43 77 99 103 105 106 106 101 91 76 75 93 112 120 115 137 147 154 157 165 161 158 155 152 143 138 134 126 121 121 124 125 126 133 130 132 125 123 112 95 128 151 133 140 140 135 141 147 150 127 73 82 82 86 85 66 67 44 152 183 173 150 124 150 140 115 99 92 98 103 116 114 119 121 125 122 122 125 132 135 143 148 152 162 165 159 152 132 125 105 85 59 33 47 64 87 88 87 88 81 73 65 51 43 101 105 119 145 149 154 154 160 164 154 156 150 141 136 133 125 126 123 124 126 128 132 130 128 129 121 114 89 135 155 141 142 144 136 146 156 145 93 72 83 84 83 88 71 71 53 83 163 169 178 153 165 161 143 117 94 98 107 110 120 118 121 125 124 127 125 131 138 140 150 148 162 159 161 157 145 133 136 87 55 49 70 58 70 76 81 86 104 118 109 97 60 83 101 134 151 148 155 157 155 160 157 153 152 140 133 131 127 127 127 124 128 130 133 129 131 124 117 113 96 127 155 144 147 148 141 140 153 122 68 82 82 88 80 83 70 69 76 43 117 165 175 167 170 171 152 132 97 96 104 115 116 117 119 124 125 126 126 131 138 137 147 150 161 158 159 163 161 147 153 113 81 70 80 93 97 108 106 108 129 133 118 110 104 113 134 145 147 148 152 157 155 155 157 153 150 142 136 131 129 123 128 128 131 130 126 128 127 121 117 115 98 114 153 144 144 145 141 142 136 88 73 79 82 83 84 79 66 72 69 65 52 152 165 168 167 165 154 128 96 92 107 116 113 121 119 123 120 126 124 128 134 137 147 154 159 156 156 165 163 162 163 141 115 107 99 120 121 131 124 129 135 141 135 128 136 147 146 151 150 152 149 158 154 155 154 154 149 142 137 131 128 128 127 129 129 129 129 127 123 124 115 119 96 101 135 139 138 136 130 126 97 76 76 86 78 80 83 82 70 70 70 65 65 85 137 156 153 155 148 117 80 85 106 118 119 119 122 124 120 125 122 130 133 140 147 154 155 158 158 164 171 159 164 155 143 126 118 124 136 135 131 128 144 146 140 141 144 148 150 147 151 153 148 154 158 152 150 151 145 144 132 133 128 126 126 125 126 125 128 122 124 121 119 115 101 45 111 123 129 121 107 93 68 79 74 84 78 86 80 81 72 69 70 70 65 62 84 114 133 133 131 99 68 82 106 117 122 123 124 124 120 123 119 131 131 140 147 152 155 160 155 160 162 158 156 158 150 142 128 136 135 141 133 125 141 141 145 139 140 144 147 143 150 152 152 152 159 156 140 136 141 141 137 129 127 126 125 128 125 126 123 126 126 123 116 113 95 32 59 81 90 82 77 75 74 79 79 81 80 81 80 81 74 68 72 71 67 74 62 74 81 98 100 87 65 73 103 111 125 124 126 125 122 118 119 128 127 138 144 148 155 155 158 153 158 154 153 156 149 147 138 149 147 139 142 123 127 140 144 141 138 142 143 135 149 148 147 157 160 152 145 138 139 137 133 131 122 129 125 128 125 127 123 127 129 120 117 114 80 33 51 65 71 69 75 77 78 80 77 82 78 83 80 80 74 68 70 71 71 72 69 73 66 70 70 73 69 67 93 109 121 127 128 125 127 116 111 125 126 135 142 148 153 146 154 153 157 154 153 157 152 150 152 156 161 148 144 131 119 145 147 142 140 140 143 136 145 144 142 155 146 144 146 142 142 138 131 127 120 122 128 130 123 120 127 129 122 121 116 115 57 40 55 67 70 74 74 76 80 78 78 78 79 83 82 80 66 69 69 72 72 68 73 72 72 68 68 72 70 65 83 102 119 122 128 127 123 123 115 116 122 130 132 142 147 143 150 148 153 146 149 157 157 155 163 171 173 161 150 143 130 152 153 150 148 144 147 140 141 146 140 143 137 133 141 141 135 135 127 128 119 122 130 127 126 119 129 126 121 117 111 97 44 42 58 69 71 73 74 77 77 82 82 78 82 81 82 81 67 70 69 73 68 69 70 72 71 72 67 74 71 73 69 94 114 121 126 127 125 125 118 114 119 129 127 137 143 144 143 145 147 142 144 162 155 147 139 156 167 167 163 154 148 146 142 144 151 152 146 143 144 145 140 137 136 127 135 134 133 131 126 126 116 124 126 128 130 131 128 127 120 108 109 71 37 49 59 67 68 73 74 75 77 79 78 78 83 81 80 84 68 69 73 71 71 69 72 69 70 71 72 68 72 68 72 79 104 116 121 125 126 123 117 119 114 125 125 130 135 137 137 139 139 136 132 131 119 107 93 92 111 138 156 145 126 109 104 109 131 143 139 143 140 144 136 140 135 129 137 130 128 129 128 120 115 130 123 129 130 129 130 121 111 107 92 45 47 50 59 72 73 72 75 73 80 78 78 80 79 77 83 78 70 70 69 69 72 70 70 72 69 71 69 72 71 75 66 71 91 113 118 125 125 124 120 118 119 122 121 126 125 129 118 120 113 107 99 86 86 92 90 92 82 96 106 103 94 95 96 95 92 100 112 123 132 137 132 133 133 132 138 130 130 130 123 123 116 127 128 132 128 129 125 118 104 91 58 42 48 52 63 70 72 73 72 77 78 78 81 77 81 80 79 84 70 70 68 72 71 73 67 73 65 70 69 72 71 71 71 66 77 106 113 125 124 120 124 116 124 120 121 123 116 110 88 90 83 70 67 65 65 71 66 67 79 83 88 85 85 85 84 86 78 79 83 87 96 105 117 118 123 129 132 132 130 128 124 122 116 122 130 131 128 124 121 104 92 63 42 46 53 50 65 69 70 73 75 77 78 81 80 82 79 79 82 78 67 71 70 72 70 74 65 69 71 72 70 70 69 73 72 70 68 86 106 124 124 117 121 119 121 127 124 114 115 104 95 109 91 70 69 76 69 72 76 65 63 75 70 72 67 68 65 74 60 62 73 55 60 70 79 90 104 120 127 129 128 125 126 120 115 123 132 129 128 121 114 94 63 39 44 49 47 59 67 70 70 74 74 76 78 79 78 82 81 82 78 83 70 68 72 67 71 70 71 69 72 69 67 72 70 76 70 74 67 71 96 114 127 120 116 119 117 124 124 118 119 108 116 138 132 115 112 126 108 119 131 125 117 116 102 102 104 94 100 100 92 98 110 98 101 109 124 118 103 116 121 126 128 130 124 120 118 123 132 128 127 118 110 57 34 48 47 48 52 58 69 71 69 78 77 76 77 81 80 81 80 79 80 83 72 67 72 70 70 71 64 73 69 69 70 69 72 71 71 72 69 68 79 110 119 121 112 116 112 123 123 124 122 127 122 135 132 134 120 125 115 131 135 146 145 147 135 133 139 129 119 121 115 111 111 107 105 119 130 125 117 125 121 129 128 128 124 120 120 125 130 128 121 114 97 33 39 49 48 52 50 64 69 71 72 74 78 77 79 77 80 81 81 78 80 79 69 69 70 69 71 68 67 69 72 68 74 68 74 68 71 73 73 67 65 100 114 124 114 112 109 117 125 126 125 125 119 121 121 125 126 119 107 112 119 123 130 140 130 130 130 136 131 121 110 107 109 109 112 122 124 120 125 126 123 129 127 126 118 120 122 122 124 126 115 103 83 34 43 47 49 51 56 64 70 71 71 76 76 79 75 80 84 82 77 83 77 80 70 67 71 72 71 70 70 70 69 70 68 70 70 72 69 75 70 74 62 78 111 119 117 114 109 110 118 126 123 122 121 111 108 103 101 113 115 105 101 106 108 113 114 112 102 102 109 100 98 108 114 109 109 114 119 120 127 119 129 125 124 123 121 119 124 125 123 125 103 95 84 28 44 51 50 48 60 69 70 74 69 76 76 76 77 77 79 77 78 79 79 79 70 69 69 69 69 69 69 71 70 69 69 73 71 72 71 71 69 74 68 72 95 113 114 116 112 107 115 123 122 116 113 107 101 100 89 87 93 102 105 104 103 101 109 104 97 98 99 102 103 106 102 106 113 113 114 119 121 120 128 124 122 121 117 118 122 123 122 114 94 109 80 31 49 48 50 53 65 68 70 72 72 77 76 78 75 78 78 81 79 77 79 77 70 70 70 68 73 65 74 66 74 67 71 70 72 69 73 69 73 71 70 72 87 101 114 114 110 110 110 128 124 118 110 109 100 97 96 87 78 78 81 81 81 85 91 89 81 85 82 87 88 90 99 106 106 113 111 116 120 121 123 126 118 118 114 118 121 119 114 97 100 118 75 31 49 50 52 60 66 69 72 73 76 74 79 79 77 77 78 81 77 79 79 83 67 71 67 68 70 72 67 70 70 70 66 74 69 71 71 69 73 72 69 78 88 92 107 116 111 111 113 117 125 123 116 113 106 101 106 102 98 82 73 66 61 58 58 68 66 69 80 89 91 100 108 110 107 110 111 114 120 123 123 121 122 116 114 119 118 115 101 92 111 118 64 40 46 51 53 63 68 71 74 76 73 77 75 79 76 80 78 79 76 78 80 78 71 68 70 65 72 67 69 68 69 71 65 74 68 74 70 72 72 70 61 85 95 89 97 108 113 111 107 121 119 124 124 122 121 115 117 113 114 111 109 112 115 115 114 127 128 127 133 132 127 117 115 115 119 116 118 123 128 125 127 122 123 116 113 117 117 104 92 107 114 123 54 39 51 51 62 64 70 71 74 73 78 78 78 77 80 78 83 77 78 79 81 79 71 70 69 67 72 67 70 68 71 69 68 71 68 70 72 70 73 72 63 85 99 95 92 97 111 114 110 122 127 127 130 130 130 130 129 125 129 125 120 118 123 124 128 134 136 139 141 140 142 138 124 123 128 130 127 130 132 129 128 124 119 115 116 114 112 91 100 114 113 122 49 45 53 54 64 67 73 70 73 73 76 76 78 76 78 78 83 76 82 79 78 79 71 69 68 68 66 70 69 70 70 69 67 71 72 70 73 69 74 70 62 88 100 101 91 88 105 110 115 124 130 136 140 140 140 138 139 140 146 137 125 120 121 131 130 142 141 141 141 142 144 142 131 126 132 133 135 139 135 132 129 124 118 115 115 110 92 97 110 115 113 124 45 47 55 64 63 70 71 73 75 75 77 73 78 78 73 82 75 82 81 75 77 77 68 70 70 68 68 72 68 69 71 69 72 70 72 70 72 72 69 75 59 86 106 98 100 83 93 103 111 118 128 133 144 146 144 140 143 139 142 147 141 133 132 136 134 139 145 138 143 145 141 138 131 138 134 143 141 140 137 132 129 126 116 119 106 93 87 108 115 115 111 115 47 49 56 67 71 70 70 74 73 74 76 77 78 80 76 79 77 80 79 80 79 79 70 69 69 70 67 69 68 67 74 66 73 66 70 71 70 70 70 72 61 87 105 99 98 91 81 99 100 115 123 130 143 148 148 141 138 128 133 143 144 139 133 134 136 129 137 138 141 146 134 136 125 129 138 146 146 144 136 133 126 120 115 108 91 92 101 114 115 112 111 121 40 58 67 67 68 73 71 72 77 74 76 76 78 78 76 79 78 76 77 79 78 78 69 69 71 68 69 70 69 68 68 70 72 68 71 69 69 72 72 72 57 91 107 100 98 97 84 85 97 107 112 127 136 148 149 140 134 127 124 129 137 136 136 133 133 126 130 143 139 142 131 133 128 122 135 148 146 139 135 126 122 115 105 94 87 100 111 116 115 111 116 106 48 63 68 74 68 73 72 73 72 79 74 76 77 77 76 79 75 78 75 80 76 76 66 70 71 68 70 67 70 65 71 69 71 70 70 66 69 72 66 71 60 90 111 102 97 97 91 89 83 100 108 116 131 139 145 141 133 127 118 122 125 138 136 131 132 125 125 138 139 135 133 126 119 119 130 140 134 135 128 124 113 103 87 85 100 113 115 116 116 114 115 99 53 68 73 69 74 70 78 71 78 76 77 81 75 78 76 76 78 77 77 79 80 74 69 70 69 68 70 69 68 68 72 68 69 70 71 70 69 72 68 71 60 92 108 108 99 96 93 95 89 79 104 106 116 124 137 140 136 131 124 118 113 122 128 126 124 122 124 127 132 133 126 116 126 119 133 131 129 125 121 115 103 86 88 98 107 114 116 119 113 115 116 95 57 70 69 73 73 73 72 75 75 74 77 78 77 79 77 77 78 79 76 81 75 76 69 70 70 69 69 71 69 67 69 68 71 68 70 69 69 72 68 70 58 91 112 109 102 100 97 93 94 83 83 100 106 114 119 132 135 125 127 122 115 113 120 125 122 115 120 120 122 124 121 118 120 119 127 121 121 114 115 93 91 84 100 109 112 116 118 118 118 115 117 91 59 75 73 76 74 72 76 77 77 76 75 78 79 75 78 79 75 80 77 77 78 77 71 70 67 71 67 72 68 66 72 69 72 70 68 72 68 71 70 66 59 101 108 111 107 103 96 94 94 90 81 77 102 104 108 119 123 120 119 112 113 113 111 114 120 111 116 114 118 111 118 108 112 116 113 116 107 104 91 86 88 100 112 112 119 118 120 123 120 113 105 128 57 72 70 77 71 73 78 77 78 73 79 74 77 77 76 75 77 77 79 76 78 75 71 70 69 70 71 67 73 70 71 68 71 69 67 69 72 68 73 61 76 120 107 106 107 106 99 97 97 92 86 81 80 93 102 105 110 106 107 105 102 100 107 103 104 103 108 104 108 106 103 103 105 105 107 105 93 84 85 94 99 112 115 122 115 121 124 117 118 121 77 165 102 61 74 77 73 76 75 77 77 72 76 77 78 75 76 77 78 79 76 75 76 76 72 69 71 71 69 70 68 69 72 67 72 69 71 68 72 69 73 51 117 127 104 108 107 106 99 96 98 93 86 85 81 80 81 94 98 98 98 98 96 93 98 97 94 94 95 101 96 96 95 96 98 94 88 82 75 84 95 102 107 114 118 116 120 122 123 115 116 116 91 114 182 51 70 76 76 75 77 75 76 75 77 72 81 75 78 75 75 78 77 76 78 77 77 69 72 68 67 70 68 71 65 71 68 70 69 70 71 67 66 56 160 110 108 108 109 106 104 100 97 94 90 87 80 81 80 72 76 83 86 89 92 92 88 90 91 91 86 92 83 86 78 78 74 68 70 77 80 93 104 113 108 120 116 112 121 123 119 119 115 116 104 83 200 93 60 73 77 74 77 75 75 79 74 75 75 76 78 76 76 80 74 78 77 74 73 69 70 71 72 69 70 71 70 71 68 69 69 72 70 69 54 80 179 105 107 111 106 108 102 101 96 90 92 90 85 83 80 80 71 73 66 58 65 68 66 66 61 65 64 63 62 62 60 62 68 61 77 84 91 103 111 113 115 120 116 115 125 122 118 122 114 119 97 112 144 163 51 72 77 77 78 76 78 75 75 77 75 78 70 80 73 80 71 76 78 73 73 74 72 71 69 71 67 72 67 70 69 71 71 72 70 73 42 114 189 107 108 112 110 110 102 104 96 95 92 92 91 87 79 79 76 71 67 64 65 60 57 62 58 58 60 62 57 65 58 73 73 70 84 94 104 111 113 115 116 117 117 115 115 121 121 121 118 116 102 99 123 193 54 74 76 79 73 78 75 76 73 79 73 78 73 75 78 75 74 75 75 79 75 75 73 73 70 71 74 67 71 69 71 71 70 70 68 75 46 137 189 123 105 113 114 111 105 104 99 95 97 92 88 89 86 81 76 77 68 68 64 58 62 60 57 60 63 62 67 68 73 80 82 86 98 104 115 114 113 115 114 118 115 116 116 126 119 121 115 115 111 80 118 195 87 70 76 80 72 76 76 76 75 74 75 76 73 77 74 77 73 78 73 79 