P2
92
112
255
66 68 66 67 70 65 65 65 73 74 67 77 62 81 86 78 68 74 86 86 87 83 97 83 85 73 76 84 79 85 71 83 96 92 107 100 107 97 96 91 87 73 84 108 113 97 99 116 117 118 132 132 131 124 122 108 106 114 100 98 102 104 114 96 86 97 103 101 82 78 77 74 77 76 76 76 79 73 81 73 76 79 75 74 72 78 71 74 71 74 72 80 70 67 70 66 66 72 68 69 73 72 70 71 70 72 75 70 74 85 95 81 82 73 77 82 80 72 79 79 80 79 83 87 87 76 100 102 99 86 89 85 81 63 71 108 95 102 97 109 106 113 115 125 117 117 110 113 109 122 113 121 110 102 99 96 88 109 111 96 102 83 80 79 90 88 88 74 77 77 78 74 73 82 74 75 74 72 79 75 70 78 76 74 71 69 68 70 67 70 71 79 66 71 67 69 76 81 75 75 76 95 82 92 87 77 76 79 82 82 70 79 87 83 85 75 93 84 102 100 91 94 93 85 70 58 75 102 83 108 84 87 95 98 105 106 102 110 109 108 109 111 111 107 115 115 109 100 99 120 116 119 106 94 89 84 87 90 92 94 80 73 78 76 74 81 72 75 77 75 79 76 74 74 75 75 70 71 68 72 65 69 74 77 71 66 72 70 79 90 92 92 88 89 89 89 76 73 69 87 85 80 86 84 86 80 88 87 99 98 91 89 77 90 80 75 68 54 73 98 71 76 70 88 99 102 103 110 110 107 103 105 116 105 108 101 109 113 121 95 94 101 116 114 100 107 97 91 77 79 77 87 77 73 78 74 76 79 72 73 78 73 78 76 77 72 75 79 63 68 69 72 71 66 78 72 67 72 72 73 71 82 85 89 93 100 98 96 94 98 96 86 91 84 96 91 94 89 96 108 108 95 76 85 67 80 82 74 66 60 59 80 70 62 77 82 82 100 101 104 111 113 106 110 107 112 109 94 93 95 105 108 117 87 97 94 102 98 112 108 88 68 75 91 77 74 79 73 77 74 75 75 73 77 78 77 76 76 75 79 70 65 73 76 78 75 81 81 73 76 75 76 71 69 77 86 73 92 82 80 93 98 95 98 93 86 96 76 84 92 103 115 106 70 75 72 74 76 72 69 67 59 87 68 70 59 76 76 87 95 102 102 102 117 111 107 93 105 97 116 90 100 100 96 82 81 98 101 92 99 108 123 87 93 89 90 77 75 75 80 76 81 71 74 73 77 80 76 78 70 76 78 72 67 77 76 67 76 72 73 70 67 76 70 71 69 75 88 82 98 101 90 90 88 85 83 98 93 92 92 90 116 117 111 88 66 80 79 85 89 95 83 80 72 74 69 71 71 61 86 103 101 96 91 100 105 107 112 103 101 94 107 98 86 86 82 92 89 85 81 82 93 94 109 118 96 103 75 89 80 77 78 77 76 76 75 81 86 73 77 77 77 75 76 72 72 83 68 69 69 72 69 71 67 76 71 68 75 81 85 87 86 80 73 80 74 91 98 99 112 96 108 115 124 112 98 79 65 76 88 91 120 112 103 107 89 77 76 70 84 69 97 103 101 101 108 96 96 98 96 100 91 91 87 75 88 73 84 92 89 75 77 84 92 92 98 105 110 109 94 85 88 76 79 79 76 84 82 84 78 74 77 79 78 77 73 75 68 86 69 77 69 68 72 70 67 72 78 71 81 87 70 75 75 77 87 93 90 103 95 94 111 104 114 110 96 85 91 80 81 85 101 101 108 103 93 87 94 93 106 119 119 120 120 116 94 82 93 95 107 103 110 99 102 93 84 75 76 78 76 83 86 76 83 74 92 86 112 94 112 113 130 92 93 74 81 81 84 82 79 77 77 80 76 77 76 76 77 72 74 88 76 72 70 67 70 72 69 69 77 87 82 84 73 79 76 90 85 95 102 100 108 105 117 104 95 100 85 73 85 84 69 83 92 83 82 89 76 72 73 59 81 102 112 126 125 131 124 103 110 100 92 93 114 104 99 99 96 90 81 85 75 87 77 94 69 84 79 97 104 120 110 100 133 120 98 83 79 76 74 80 77 77 77 77 74 79 79 75 78 68 65 96 85 79 81 64 70 81 81 80 88 71 77 75 78 71 80 79 82 94 99 110 111 112 105 104 96 99 106 80 80 88 81 101 86 81 87 87 74 74 74 72 66 71 89 93 117 116 143 120 122 123 108 103 88 86 82 78 79 74 72 87 85 80 86 88 88 88 124 124 132 116 114 115 110 113 97 92 84 82 78 83 84 78 79 75 78 78 72 75 78 72 62 97 79 69 73 67 74 80 76 69 76 74 79 77 80 83 80 75 87 84 89 94 108 116 110 99 81 75 97 79 77 79 79 100 97 80 93 89 70 74 66 61 70 76 80 91 106 108 109 114 107 106 106 100 94 86 82 77 80 84 77 81 102 86 73 71 85 103 104 102 108 98 100 106 111 106 125 108 94 87 83 81 84 77 80 77 78 77 78 79 76 66 66 76 75 71 69 68 72 85 73 74 74 77 75 80 83 88 89 72 84 86 90 101 109 113 108 83 86 67 92 75 84 83 68 90 86 75 77 67 69 62 53 53 53 57 64 64 87 91 103 103 111 96 98 101 89 110 95 71 67 77 80 88 85 93 81 96 102 83 75 88 71 97 116 70 116 90 101 128 110 85 87 91 78 77 80 77 79 80 72 80 77 70 62 65 78 69 68 70 70 73 71 72 76 77 72 87 80 96 92 77 82 83 78 100 120 108 94 79 90 91 92 88 78 70 86 93 84 77 72 61 73 58 47 56 52 52 62 44 70 69 93 95 95 98 96 87 95 97 127 90 89 81 76 97 93 101 84 83 78 84 78 76 80 130 104 58 101 99 94 91 135 110 95 85 82 74 84 77 79 79 78 77 81 74 59 62 76 68 67 76 64 75 78 78 67 77 80 82 86 92 81 77 88 73 93 91 104 98 93 96 91 86 95 92 78 77 78 87 86 75 74 66 63 57 50 62 52 52 53 54 59 64 63 88 100 93 107 103 94 97 96 102 123 106 103 93 93 95 73 71 71 80 75 90 144 138 77 65 90 121 93 97 111 132 111 110 93 88 81 78 77 85 77 81 83 70 71 57 68 72 63 75 71 68 71 77 74 82 85 80 94 95 74 93 104 89 99 93 86 95 101 108 99 107 109 100 92 83 74 77 94 81 82 65 76 57 63 60 61 50 59 60 63 72 74 73 84 105 92 92 92 87 99 77 140 106 97 104 90 84 90 91 87 120 128 142 120 105 87 89 93 122 109 94 103 117 141 95 108 97 93 80 75 87 79 77 80 70 71 67 62 69 73 77 71 72 78 91 86 81 91 87 93 102 88 87 86 74 61 96 91 87 91 101 99 108 101 101 95 85 67 71 90 90 90 72 75 69 67 66 69 51 58 56 66 64 62 73 63 87 78 84 101 82 80 96 99 116 96 101 107 95 94 104 108 120 131 120 98 80 93 92 93 91 110 109 101 103 130 120 92 101 101 101 77 94 77 81 78 71 73 74 64 67 77 74 73 74 91 87 90 87 87 92 92 102 86 72 77 74 72 72 84 90 88 110 99 109 118 102 79 66 71 83 92 89 82 70 76 65 70 68 60 62 60 66 60 68 61 72 71 84 78 66 87 84 83 97 85 107 99 114 115 105 108 113 118 120 120 113 94 104 94 98 100 94 111 114 114 108 116 123 107 112 146 129 92 92 95 78 84 70 73 75 71 66 65 77 73 73 94 85 91 91 95 92 91 83 81 78 87 75 72 73 73 85 93 103 108 115 110 83 70 75 83 92 89 84 78 77 74 76 70 72 74 66 65 68 72 68 66 80 79 87 79 81 84 62 66 83 80 78 87 89 102 92 103 96 107 93 115 100 87 95 95 98 106 105 106 118 117 104 120 104 108 125 154 138 105 105 90 77 78 70 71 73 73 80 73 61 82 86 79 79 99 95 99 104 92 111 108 89 75 84 77 82 89 93 101 109 101 91 80 81 71 74 91 96 91 81 81 80 84 81 77 80 86 92 76 74 71 70 80 90 91 85 90 94 96 82 72 74 86 74 69 75 79 65 81 85 81 75 86 96 98 91 87 91 79 99 95 106 117 107 118 109 123 124 129 135 136 128 101 93 92 74 77 72 75 78 83 84 72 80 80 94 89 104 113 114 110 106 95 95 78 95 92 93 83 92 100 99 98 90 90 92 89 104 99 96 88 88 104 113 96 96 95 102 97 100 85 78 82 93 91 96 94 99 97 115 113 110 91 82 78 86 75 78 82 77 74 64 70 79 69 65 77 83 79 87 92 95 94 104 104 111 110 121 116 118 112 126 127 123 123 114 103 74 87 77 87 88 83 96 85 91 95 103 90 96 100 109 113 99 93 91 77 81 86 87 90 96 109 104 98 90 91 96 96 94 96 106 113 117 126 127 118 124 123 132 127 120 114 107 108 113 110 110 108 115 123 129 134 136 115 111 87 99 97 97 89 79 80 72 71 64 78 75 70 69 81 91 95 95 99 103 109 110 98 117 110 118 122 120 113 119 119 110 96 75 83 93 101 103 103 111 101 99 103 96 97 91 101 106 98 89 87 85 79 69 79 89 85 95 104 103 95 97 92 98 105 106 110 135 143 146 148 138 148 147 152 156 151 141 142 144 141 139 130 126 123 129 133 143 149 155 130 135 118 109 117 115 113 92 79 80 76 80 73 69 79 82 90 106 95 103 104 100 93 96 92 85 96 115 124 115 113 129 122 111 111 72 72 85 93 101 102 110 96 95 89 86 85 86 81 86 86 86 76 77 80 70 70 84 103 107 125 119 109 110 105 108 125 113 137 146 155 158 162 159 167 167 170 183 169 160 166 167 170 164 158 152 146 139 140 140 152 155 141 146 141 136 127 126 125 126 99 83 82 59 72 69 68 69 84 82 86 85 87 86 76 95 90 89 96 95 117 111 120 124 121 117 114 63 71 77 81 96 109 99 100 85 83 86 72 71 70 68 72 69 69 66 66 83 79 92 131 133 134 136 131 130 131 146 156 144 159 158 166 172 173 174 176 178 179 180 176 177 175 183 181 186 183 180 172 169 161 157 159 158 154 160 157 154 161 140 138 155 141 117 93 83 50 72 67 61 61 57 63 70 75 76 72 90 92 75 90 97 96 114 115 127 110 93 93 70 70 77 88 89 88 96 89 78 68 76 69 75 80 58 67 66 50 39 64 93 116 134 145 145 148 142 147 150 147 165 164 172 182 183 184 184 181 181 186 183 183 176 181 184 183 183 183 189 189 196 188 189 185 186 186 187 181 182 187 178 180 160 157 171 165 146 132 105 66 52 57 62 72 63 60 68 69 76 78 74 79 83 88 92 98 112 114 130 109 90 89 78 80 80 81 89 91 89 84 80 78 59 69 77 74 55 54 62 49 40 67 126 147 155 160 160 163 163 167 172 177 185 187 186 192 188 190 188 188 188 184 185 182 181 186 185 184 189 189 189 199 198 196 195 196 196 198 196 198 194 197 198 186 180 186 186 186 176 158 123 89 49 54 41 60 64 62 67 68 71 83 73 82 87 94 90 114 125 125 121 105 92 78 85 78 92 91 96 88 92 81 76 79 64 61 65 58 51 40 65 60 42 89 140 161 165 164 164 166 173 171 181 191 189 191 186 193 189 187 191 190 191 185 187 185 185 186 184 186 190 191 195 200 200 200 197 197 200 200 200 199 201 203 205 195 198 199 200 200 189 178 148 109 81 47 55 52 51 56 59 55 65 84 72 75 81 87 91 102 118 125 112 121 83 74 82 75 72 77 82 83 74 79 75 69 66 57 55 49 50 39 53 62 48 104 156 168 168 161 166 174 174 185 184 183 188 189 196 195 194 189 191 191 189 189 187 185 186 186 186 187 188 194 193 200 200 202 200 198 200 199 201 201 202 200 205 209 198 200 207 207 208 196 181 140 108 77 37 30 45 61 69 67 63 71 58 64 56 69 81 78 107 122 123 119 95 74 71 60 59 71 75 87 81 74 63 56 48 56 46 55 49 46 58 53 55 136 168 167 171 163 167 175 178 190 191 193 195 196 196 200 196 195 192 195 191 191 190 184 181 183 187 188 189 189 197 196 198 200 200 200 201 201 203 203 203 204 205 209 207 202 208 210 211 205 207 190 157 129 75 27 24 39 56 57 46 63 51 43 47 54 59 66 85 105 101 107 125 75 84 61 68 76 77 87 82 73 55 55 52 55 50 55 44 54 61 53 66 153 174 172 165 172 174 179 187 192 193 196 197 198 196 197 197 197 195 194 191 190 188 184 182 189 189 189 189 191 194 198 201 202 202 201 201 202 203 204 204 207 207 207 208 204 207 210 211 208 208 209 207 185 144 61 15 34 34 42 40 47 61 47 56 54 50 76 106 121 117 79 111 105 73 61 52 78 76 84 76 55 55 51 53 54 57 56 48 56 63 50 84 164 173 171 168 176 184 187 189 193 192 194 197 199 197 199 195 196 200 194 194 190 184 184 182 185 189 188 187 192 190 200 197 197 202 204 201 202 201 203 203 203 207 207 206 207 207 208 211 209 210 212 212 214 200 129 21 28 34 34 33 38 40 42 52 55 47 86 82 111 116 88 101 119 72 61 72 59 64 79 75 55 56 49 55 55 64 56 46 64 59 59 101 170 173 170 170 179 187 188 190 192 198 196 196 199 199 201 201 196 198 197 192 194 188 185 187 186 189 187 190 188 190 194 197 196 201 205 202 202 204 203 203 202 204 206 206 206 207 206 212 206 211 213 213 215 217 199 77 26 33 42 37 40 39 44 47 49 47 89 82 77 102 110 92 109 72 68 62 50 52 72 70 61 53 52 58 66 63 48 48 68 60 64 124 171 174 171 176 188 187 187 188 197 197 197 197 199 201 197 202 200 201 197 195 197 189 191 190 187 188 188 190 189 188 190 197 196 198 202 202 197 207 202 202 207 203 207 207 207 209 204 210 208 210 211 213 215 217 230 141 47 26 39 44 47 46 44 67 59 57 74 76 74 100 121 111 76 68 58 48 44 52 61 53 64 52 52 60 56 59 39 63 58 72 78 143 172 170 171 181 189 190 183 188 194 199 196 198 200 201 199 201 200 202 203 200 199 193 190 189 186 191 189 192 187 193 188 194 198 199 203 204 201 205 204 203 205 206 207 207 207 209 207 206 210 211 211 214 215 213 229 201 75 46 33 38 41 43 44 49 57 55 65 66 78 116 113 129 98 66 45 51 42 64 67 58 60 54 54 54 56 56 44 73 59 77 105 161 172 172 178 184 187 192 188 192 194 195 197 199 200 198 201 201 202 203 204 201 203 199 195 191 190 192 195 189 190 192 191 192 199 201 203 202 204 205 205 208 206 207 207 207 206 207 208 207 211 209 212 213 216 215 219 229 120 57 58 34 40 38 42 50 51 56 53 76 76 92 120 127 108 68 44 48 66 75 74 69 53 56 50 52 59 49 60 73 66 91 115 167 169 173 181 185 187 191 191 193 191 196 194 200 200 198 201 203 202 204 203 203 206 201 198 191 196 194 193 194 193 192 192 193 196 202 203 202 203 205 206 205 208 206 206 206 208 206 211 206 210 210 210 213 216 217 215 231 184 78 81 60 47 49 46 44 58 51 69 88 84 104 124 111 120 59 52 59 74 68 62 53 53 53 57 48 56 39 62 73 88 87 132 167 168 174 179 186 185 189 190 190 194 194 190 195 197 199 202 203 203 205 204 205 204 201 196 196 197 197 196 195 196 194 193 196 197 202 202 202 201 205 203 202 205 206 205 208 202 208 210 208 206 210 213 213 217 216 219 218 232 117 102 98 51 65 52 45 55 52 72 89 72 94 115 109 130 56 56 50 51 46 54 52 59 57 47 56 48 47 68 71 97 94 147 166 165 172 175 184 183 187 186 192 191 190 191 193 192 197 200 199 203 203 202 203 205 199 196 195 195 197 198 200 195 194 196 199 198 202 202 199 200 202 204 201 206 207 205 208 202 205 207 209 207 205 210 216 214 220 216 217 232 162 105 116 42 68 86 75 40 68 63 62 74 82 96 102 129 48 43 35 37 50 71 68 62 50 51 56 57 63 68 76 99 99 164 165 167 167 173 176 185 187 185 191 190 193 190 193 194 194 196 200 201 201 204 203 204 198 197 198 194 199 200 201 197 199 195 201 198 197 201 194 198 198 198 198 200 199 203 204 192 182 204 210 212 213 205 210 212 214 218 218 220 216 108 130 64 43 88 96 47 70 65 59 70 79 94 86 126 34 42 39 43 62 67 68 58 56 45 50 60 74 72 85 92 126 165 164 167 166 171 180 179 182 168 173 189 192 188 185 190 194 196 196 201 201 201 199 204 201 202 202 198 200 200 198 192 190 188 187 190 190 185 181 176 179 165 196 145 146 139 157 122 114 147 185 196 223 209 197 209 205 218 217 217 230 135 115 84 47 64 95 72 70 76 73 69 81 82 103 106 37 41 44 42 61 65 68 56 53 42 44 65 84 66 98 96 145 164 161 169 174 168 167 144 152 161 137 181 197 181 165 167 155 182 168 171 173 162 158 158 150 144 143 134 133 134 133 127 128 130 123 116 117 117 111 114 105 105 125 119 123 124 137 110 138 149 157 171 184 182 158 156 113 146 199 219 229 172 121 79 63 38 74 81 78 79 84 58 69 95 93 97 37 32 42 40 53 60 67 55 50 31 46 67 76 56 108 103 165 156 145 154 137 121 115 117 124 134 123 124 127 117 103 102 96 89 88 103 83 102 102 90 106 134 132 143 144 155 158 152 142 146 130 101 99 97 100 99 79 91 85 88 86 99 113 81 208 229 220 222 194 162 188 202 193 170 110 153 234 214 106 84 65 57 44 49 61 77 78 76 74 96 102 65 39 33 33 43 62 65 46 50 56 17 50 64 51 62 100 120 172 145 107 120 140 131 122 130 129 129 119 116 89 73 68 72 75 71 87 183 143 124 108 111 67 184 107 114 137 156 154 144 132 124 128 112 99 81 80 82 83 85 73 71 69 85 95 64 190 228 221 222 219 180 167 177 220 213 218 75 156 232 111 91 49 74 54 40 38 44 57 67 52 89 102 114 54 46 45 45 54 47 31 54 50 14 55 61 32 64 98 158 157 115 146 185 169 125 117 130 142 141 126 113 89 83 75 76 71 52 126 238 224 221 209 159 113 124 211 126 180 199 186 180 165 119 163 134 120 101 97 106 94 90 81 89 84 99 116 114 121 221 223 219 217 204 200 164 183 221 214 221 90 211 172 44 76 69 59 63 52 45 63 55 48 100 76 87 40 37 38 34 36 37 44 53 34 10 65 61 26 37 125 209 145 140 193 181 128 122 149 151 155 152 123 114 109 106 106 104 101 83 86 230 220 222 229 175 160 98 224 137 195 196 195 187 181 126 214 174 151 121 120 112 106 100 95 99 99 104 118 111 95 123 180 185 204 215 212 196 165 197 221 228 158 196 224 57 40 90 76 58 54 56 59 60 50 93 93 69 33 39 39 34 35 42 48 46 24 21 67 67 49 20 208 236 138 184 210 182 118 122 160 171 159 130 98 100 103 93 99 95 91 86 64 150 221 221 232 155 167 150 238 119 133 155 151 134 178 126 225 204 163 124 113 103 95 82 78 79 91 101 103 99 105 94 109 126 164 215 210 211 193 189 213 226 188 188 240 110 45 55 83 68 61 62 53 67 60 75 98 75 31 39 36 31 38 40 42 31 19 35 70 67 39 71 228 220 137 230 219 212 212 142 154 159 140 105 82 106 100 95 103 101 90 86 75 61 116 165 172 116 136 168 219 141 172 188 189 167 123 123 221 199 148 110 109 93 78 71 86 77 98 109 119 124 114 100 103 145 104 163 208 208 205 202 203 218 215 163 227 186 166 48 70 43 67 54 48 50 68 91 93 69 29 43 35 36 34 38 25 32 18 34 57 55 24 95 224 145 181 232 220 216 238 189 145 128 108 93 87 120 142 143 156 149 130 96 111 107 68 96 121 118 120 158 149 168 206 208 207 202 180 49 200 183 133 108 98 94 86 90 89 112 161 190 189 190 200 182 141 93 173 67 174 211 206 212 208 212 224 182 108 227 234 102 55 64 50 60 53 47 65 84 75 75 33 38 31 29 35 33 30 31 26 29 36 78 95 166 159 133 181 229 221 218 237 174 135 105 100 92 146 205 189 135 118 134 178 170 124 109 112 73 101 110 117 167 133 200 206 209 206 207 224 71 167 179 126 109 102 97 91 90 111 146 146 101 77 82 100 233 222 166 103 114 113 201 203 213 212 210 221 202 76 181 213 100 26 84 58 47 53 49 68 63 72 59 34 32 33 25 30 32 29 30 25 42 29 111 230 76 136 135 175 179 208 212 204 154 119 95 93 127 194 194 128 52 73 84 74 185 164 114 109 101 83 125 118 159 161 201 202 209 206 202 225 165 89 206 179 138 114 90 87 111 112 150 128 103 58 146 42 221 224 229 128 141 87 164 189 198 206 203 217 216 108 222 178 102 36 45 63 42 46 40 62 73 69 61 40 33 36 30 33 34 25 28 25 40 22 89 228 49 118 156 170 168 163 169 161 144 104 100 102 136 213 136 141 96 41 122 30 153 169 142 110 103 112 138 121 108 176 198 195 211 209 200 220 224 81 155 154 197 139 99 99 118 120 144 95 142 11 68 51 93 223 219 163 127 127 119 152 168 177 175 176 195 86 201 151 71 64 62 48 67 43 48 51 75 74 78 34 37 39 33 39 34 29 27 27 33 21 41 165 102 113 147 158 143 124 120 125 114 97 94 109 123 185 132 70 101 32 63 50 135 158 122 145 104 147 160 116 100 187 189 190 212 211 201 214 227 145 92 118 148 184 109 109 110 108 130 103 98 61 68 78 70 156 168 153 138 141 135 155 175 199 206 212 212 109 236 168 86 56 53 73 63 73 63 62 63 77 67 23 27 43 41 37 34 27 26 31 32 30 36 107 102 110 131 133 117 102 90 89 86 83 77 98 127 150 155 97 88 89 92 96 133 147 132 128 110 131 138 88 149 183 185 182 210 215 200 213 216 214 86 147 179 171 118 107 102 98 108 109 115 118 135 135 136 149 175 201 179 189 187 175 191 207 211 214 211 118 239 218 108 101 48 57 85 75 85 73 67 55 48 21 24 33 35 39 31 22 33 37 31 37 88 147 160 99 164 180 162 154 132 126 119 118 101 106 137 160 164 143 130 130 127 128 123 128 132 129 110 127 116 102 193 179 180 187 210 217 202 209 214 216 174 79 174 181 139 107 104 103 97 99 105 118 133 143 152 161 189 209 210 204 209 199 196 202 208 221 188 146 229 220 123 90 70 44 88 97 109 87 65 59 45 32 26 29 34 38 31 30 37 38 28 35 102 155 185 88 164 185 188 185 177 162 157 159 140 120 143 153 161 150 134 121 119 117 117 123 129 115 122 130 88 162 200 174 187 196 203 215 203 209 210 211 216 135 115 181 182 125 108 109 111 109 107 115 123 133 149 154 177 201 208 208 208 207 199 206 206 223 164 178 220 230 139 87 85 73 84 115 139 155 37 75 60 59 30 23 35 62 47 34 45 45 37 28 102 160 198 85 156 185 189 187 183 169 167 171 161 128 152 151 153 148 137 131 128 127 131 133 133 125 136 107 120 201 191 175 191 197 205 210 204 208 212 211 213 205 127 109 180 172 154 130 124 128 124 131 132 140 151 167 179 192 203 203 210 198 205 205 210 226 171 203 216 236 169 91 80 103 94 118 109 162 36 87 87 66 50 11 88 125 86 55 59 46 33 28 107 156 193 111 132 185 188 189 183 175 169 172 165 131 143 149 151 150 142 141 138 141 142 150 155 143 120 108 192 205 182 185 193 198 204 208 205 205 212 210 211 218 198 105 100 182 195 181 167 167 159 157 162 160 174 183 187 194 202 205 209 211 209 212 213 216 192 214 214 231 187 60 88 119 111 82 65 113 58 86 101 62 49 24 149 130 121 107 90 71 29 38 101 160 177 155 95 193 195 188 189 187 182 179 168 150 159 168 161 161 158 160 157 166 164 178 184 143 93 174 207 189 183 196 194 194 199 206 200 205 211 213 211 209 222 171 84 108 190 186 182 181 184 188 190 189 189 199 199 203 203 212 211 213 212 215 227 176 206 220 208 237 172 56 73 152 142 70 73 107 54 75 98 60 38 50 135 81 74 127 123 100 60 22 91 159 159 186 91 180 196 191 186 189 189 174 178 187 190 190 189 189 187 191 183 189 190 193 168 92 133 204 191 175 184 194 199 195 192 201 206 202 212 214 213 211 218 190 129 113 102 168 186 178 179 183 192 193 193 201 201 209 209 211 214 214 216 221 197 175 224 215 210 233 186 72 70 164 181 63 78 112 51 78 80 54 50 35 146 65 58 116 142 117 67 14 80 156 161 175 155 114 200 195 187 194 183 168 195 199 200 196 200 194 197 195 191 190 194 162 100 121 168 194 181 166 181 194 197 194 189 200 201 203 208 217 213 207 216 206 140 132 125 77 138 176 175 171 181 187 189 194 200 204 208 213 215 216 219 206 161 220 221 217 206 229 169 94 84 164 196 66 68 144 39 85 50 56 48 16 158 76 55 102 139 122 80 19 72 143 161 155 195 100 211 198 187 197 168 173 205 201 201 200 200 195 199 200 196 192 145 104 113 159 165 187 185 166 179 192 194 197 189 189 201 202 208 218 215 207 209 217 183 127 138 108 81 95 145 169 180 177 177 184 186 191 207 215 217 216 200 175 208 220 217 215 208 229 157 110 66 185 202 82 78 161 48 92 45 53 59 17 151 111 50 118 125 135 86 33 56 123 158 153 168 166 178 209 187 204 155 175 209 201 201 198 199 199 201 201 176 128 102 116 156 169 163 187 189 177 175 189 195 196 191 185 198 206 204 216 218 207 209 211 228 140 128 132 103 87 73 97 132 181 182 178 200 196 206 211 190 184 198 213 216 215 214 214 212 224 130 98 108 128 179 121 99 127 69 86 58 53 59 32 98 155 61 118 156 151 118 63 38 96 150 151 162 177 175 159 127 188 184 179 212 206 203 203 206 196 170 129 106 111 136 151 165 151 183 193 188 180 172 180 204 200 187 181 193 214 199 220 218 209 211 213 224 211 103 121 135 125 108 96 79 79 94 106 167 195 184 170 187 220 218 216 216 213 212 213 218 214 115 83 118 134 194 191 128 99 81 81 71 52 55 59 30 160 103 94 161 145 120 82 37 61 145 147 157 175 183 183 167 146 132 149 158 165 156 147 131 115 112 123 138 153 161 162 153 155 188 192 182 169 161 163 199 207 173 171 171 193 193 217 214 200 206 214 215 240 106 111 124 128 132 131 134 131 128 133 146 168 176 184 207 218 216 216 214 209 205 213 225 199 102 95 104 120 204 216 131 65 83 72 79 53 57 54 33 101 143 111 159 152 111 78 49 40 139 145 155 169 177 179 184 189 183 167 149 137 134 135 147 147 163 164 165 157 152 158 141 153 177 177 169 155 152 148 167 181 159 157 147 159 171 198 194 186 181 194 205 219 106 113 118 117 119 123 134 136 139 158 172 173 187 191 203 214 212 211 213 206 205 211 226 189 87 120 108 128 194 230 118 50 57 79 75 47 58 55 52 39 147 135 174 146 135 108 80 56 111 145 154 165 172 168 175 179 182 188 185 177 182 185 181 175 173 164 156 148 140 151 137 139 161 157 144 132 136 144 144 159 152 140 139 130 165 193 177 140 106 134 172 168 115 120 116 108 103 109 123 128 135 146 156 167 177 184 196 205 205 204 207 207 208 205 231 168 89 124 124 127 188 237 137 36 68 91 77 49 54 54 62 20 98 157 177 134 126 122 96 119 78 135 152 168 168 166 170 176 180 183 190 183 187 185 176 170 165 152 134 133 137 145 143 138 148 130 90 72 82 112 139 147 137 124 129 118 161 185 144 88 83 113 136 136 127 127 123 118 93 93 109 117 130 134 144 157 172 174 191 194 198 197 201 204 208 205 225 171 103 125 115 129 192 237 115 36 75 87 82 49 52 54 59 35 54 154 177 127 111 122 111 151 83 125 146 167 162 167 173 173 177 180 180 179 181 175 166 161 153 136 125 128 145 149 153 150 150 149 111 99 118 126 130 139 130 112 110 109 157 165 132 127 141 159 180 139 118 126 132 130 110 83 89 109 116 123 134 142 163 168 185 192 191 190 199 198 205 203 222 165 125 192 158 167 214 242 111 56 75 90 79 53 54 54 52 56 28 137 173 131 100 116 130 152 115 107 147 163 164 164 171 171 170 177 175 177 175 168 158 147 134 117 123 141 150 153 154 151 145 145 142 134 126 124 127 134 138 110 97 120 167 160 157 165 172 174 191 139 119 128 136 134 124 107 71 83 102 111 123 128 150 154 180 191 184 187 189 195 203 206 213 159 170 219 216 208 204 232 74 65 77 88 83 53 54 53 51 58 25 107 162 155 108 120 148 118 127 105 149 160 163 165 163 168 167 172 173 171 169 160 146 134 115 113 133 150 151 156 156 155 145 140 134 141 141 126 124 138 134 122 93 113 156 155 151 152 155 182 183 146 130 130 134 130 127 120 106 71 72 99 116 122 134 154 179 194 189 185 184 188 205 208 206 149 210 219 217 204 218 184 52 71 80 83 82 48 52 51 54 54 38 58 156 161 163 155 166 152 116 108 144 158 161 165 158 163 165 167 169 167 162 153 134 115 100 124 149 163 155 157 158 153 152 146 122 120 129 122 109 120 121 113 89 100 127 133 147 142 141 180 182 167 148 143 132 130 116 124 125 113 63 69 102 117 126 160 185 196 194 189 179 188 205 204 210 146 204 221 215 209 236 129 55 75 87 82 81 52 50 53 52 52 51 20 123 151 149 169 173 182 161 105 141 158 160 163 158 165 163 165 169 164 162 148 117 91 116 140 156 158 150 146 149 154 151 141 123 116 116 115 105 103 104 98 93 101 114 156 144 145 149 160 174 170 165 164 131 128 115 117 120 122 119 71 69 117 121 154 191 202 203 190 172 189 200 204 210 149 205 217 214 220 196 65 68 86 79 79 88 52 50 50 57 49 55 40 42 161 147 166 173 172 174 96 116 149 157 162 155 161 163 167 167 171 163 135 88 109 131 134 145 144 142 131 136 143 140 120 128 120 109 107 107 97 93 89 91 100 126 129 159 142 155 153 170 156 161 166 156 137 118 108 103 116 100 124 47 91 122 141 184 209 207 193 174 190 200 202 208 142 214 214 212 241 116 58 84 81 80 83 88 51 52 51 52 54 47 56 26 92 158 162 171 168 179 121 103 143 153 157 160 156 159 164 167 174 163 113 83 116 129 127 135 129 140 134 128 131 134 123 113 119 117 100 114 94 91 95 109 120 131 126 148 129 146 154 171 159 155 168 156 150 118 116 102 105 99 120 87 68 130 141 180 209 211 199 172 194 199 207 192 152 216 214 219 228 50 67 86 80 82 79 85 46 53 51 54 51 49 53 43 30 131 155 158 162 177 146 95 139 153 153 165 162 159 167 169 177 168 90 87 119 119 121 128 136 137 131 128 122 141 128 122 118 131 111 118 107 107 114 135 142 144 136 147 143 148 158 182 168 169 169 169 146 131 105 104 95 95 113 116 68 136 149 184 203 214 203 168 200 198 208 186 166 211 210 220 149 42 84 82 88 77 81 83 49 54 45 59 49 51 52 53 27 77 150 147 155 172 154 95 138 150 151 159 162 164 171 169 179 171 88 90 120 111 109 124 142 129 129 129 130 144 133 118 128 134 135 132 128 132 139 151 147 150 133 136 146 142 160 178 167 164 169 157 136 119 78 88 97 82 114 108 89 146 164 180 199 208 205 172 196 197 210 180 174 193 200 149 68 76 85 77 84 84 79 82 50 50 50 51 52 48 52 50 53 28 113 145 146 168 171 108 123 148 158 151 149 162 166 167 174 175 92 91 133 113 109 120 135 130 132 122 133 138 133 122 129 130 133 122 120 121 118 130 118 120 119 115 122 121 132 139 142 135 121 102 82 57 57 88 94 87 104 99 117 160 180 186 197 205 202 182 197 199 209 179 144 147 113 77 68 78 81 79 76 83 79 76 49 53 49 51 48 50 53 51 49 46 39 95 134 145 154 113 114 142 150 159 157 161 172 161 174 180 125 91 139 123 110 106 92 105 107 105 111 115 119 113 120 115 113 110 109 101 98 104 97 98 96 91 97 110 100 125 109 77 51 33 36 45 86 107 105 91 100 95 153 162 187 193 196 206 201 192 203 203 213 166 74 65 76 71 71 82 84 82 75 86 78 77 52 50 54 47 52 50 46 50 55 47 46 48 66 85 99 89 86 146 150 154 168 162 169 154 171 175 165 116 145 136 118 111 83 44 38 56 121 125 117 106 129 106 119 147 118 112 95 114 119 119 127 99 132 160 112 160 134 70 33 32 67 101 119 120 114 98 96 103 156 171 188 192 199 199 202 199 202 201 219 137 74 64 73 71 72 76 82 82 79 80 81 75 52 51 49 51 50 51 49 48 57 51 50 52 52 56 54 36 59 137 142 148 167 164 153 158 168 169 177 138 132 139 127 115 125 70 26 49 136 155 159 118 167 146 138 186 167 166 130 165 168 166 178 85 153 161 92 178 132 58 28 70 109 138 132 119 108 99 102 131 164 175 185 190 201 195 201 196 201 203 202 96 79 65 73 72 71 73 82 82 83 85 79 76 47 53 48 50 50 49 51 54 52 51 51 52 55 56 50 53 34 122 142 148 164 166 149 158 165 165 175 161 139 134 134 132 131 130 85 29 100 133 175 94 137 163 113 185 176 171 111 136 148 123 128 55 56 89 36 91 102 40 79 119 149 162 145 123 109 99 109 147 160 177 179 183 197 194 195 192 199 208 166 71 68 75 73 69 74 76 77 87 76 82 85 78 48 55 46 49 52 47 56 50 55 48 53 47 56 46 55 55 35 87 142 150 161 161 154 157 162 166 172 170 152 149 134 125 144 153 144 101 56 56 152 87 70 107 84 104 99 79 62 55 68 60 64 64 84 103 78 74 101 123 139 164 186 168 155 140 111 121 114 152 163 180 174 169 192 195 192 194 204 199 126 66 70 73 73 75 74 74 80 79 80 79 85 77 51 51 48 50 48 51 49 52 49 50 49 55 54 52 53 51 45 40 130 147 153 156 159 156 164 162 163 170 164 149 122 120 147 162 170 150 133 83 93 116 108 109 106 101 99 95 95 92 89 103 121 123 127 130 116 122 150 172 190 189 187 167 154 149 123 116 121 148 156 176 180 171 182 197 197 191 211 180 77 69 66 77 72 76 75 75 78 79 78 82 80 89 50 47 52 52 50 50 53 48 51 54 48 48 53 51 53 52 40 38 87 137 155 151 155 162 162 157 155 164 165 146 118 134 154 162 166 162 155 139 116 100 131 143 136 127 125 129 131 140 138 171 139 137 125 128 147 173 178 190 198 195 186 150 157 154 143 114 125 144 164 166 167 184 183 193 191 192 207 140 66 64 72 74 77 77 76 74 78 82 82 81 80 84 46 50 52 50 50 51 51 47 48 54 47 48 51 54 48 49 35 39 62 123 149 153 150 152 145 153 144 167 167 146 126 142 158 160 162 156 165 159 146 129 127 135 169 166 122 125 126 126 134 138 126 132 137 151 172 185 193 190 199 199 173 157 169 154 134 120 127 135 149 177 153 188 187 183 185 196 182 109 71 71 74 72 77 74 75 70 78 79 78 83 78 82 49 51 53 45 55 47 50 48 52 50 49 45 56 50 52 52 40 40 62 93 141 154 155 147 142 155 149 161 160 139 125 135 147 158 163 162 166 164 158 151 146 148 144 150 137 143 143 138 141 140 144 159 161 166 181 180 181 190 194 190 167 159 161 160 143 121 123 144 153 171 152 172 185 181 178 199 128 91 83 66 72 74 76 76 75 70 77 78 76 77 80 81 56 49 51 49 52 51 51 48 52 51 51 52 54 49 57 49 46 28 60 90 113 141 153 149 143 144 146 152 161 127 125 139 148 169 166 163 167 164 160 160 155 162 156 152 158 161 156 156 153 150 155 171 166 160 169 169 181 198 192 184 167 161 151 154 157 134 126 135 180 154 161 163 183 178 180 173 104 75 75 68 74 68 80 74 78 78 73 83 72 76 79 91 50 47 51 51 50 53 49 51 48 48 54 52 52 52 51 52 55 35 45 116 83 127 148 142 138 136 142 142 152 130 135 144 152 168 156 163 162 169 157 147 147 159 172 153 146 145 144 144 141 134 131 131 135 145 160 171 184 190 178 180 166 162 160 157 148 143 146 131 165 174 152 167 174 174 155 139 86 66 72 67 74 72 78 81 81 69 78 77 69 78 81 80 50 49 50 53 48 50 47 50 50 48 53 50 52 51 53 52 53 49 27 127 85 105 141 144 140 140 149 141 148 138 143 129 140 163 158 170 166 163 167 154 135 137 136 137 128 125 120 119 117 112 107 106 117 145 156 166 181 179 173 180 156 156 164 165 134 138 126 146 142 180 152 162 163 168 143 115 89 73 71 66 74 77 75 77 71 77 78 75 77 72 85 74 47 51 50 53 50 50 48 51 49 50 49 54 49 51 50 53 51 53 31 110 102 79 117 137 142 140 133 139 138 134 129 114 122 161 167 166 168 157 159 162 153 143 133 122 116 116 106 104 101 104 100 105 128 143 161 147 170 175 168 171 153 152 153 161 144 139 121 142 150 160 161 154 178 142 137 123 66 69 71 73 77 72 76 74 68 82 76 73 78 74 77 81 47 52 54 49 49 52 47 53 49 53 49 54 52 50 52 51 52 55 30 105 123 98 85 133 139 136 118 136 126 123 112 109 122 153 171 167 163 160 159 157 156 150 141 135 119 111 111 110 117 113 127 116 137 134 147 149 147 176 158 162 158 145 152 157 147 140 121 149 165 141 153 147 164 98 147 127 61 70 76 74 76 74 74 74 80 75 75 75 81 72 77 76 52 48 54 48 49 51 52 48 49 52 54 51 52 51 49 52 48 51 41 84 113 116 73 105 139 134 116 134 119 122 117 127 125 145 166 157 163 161 161 154 144 142 134 134 129 106 130 119 128 117 120 126 125 134 138 144 150 169 157 161 153 165 126 169 142 145 131 146 153 141 137 142 123 97 160 119 62 72 76 70 77 73 78 75 77 75 76 78 81 79 75 78 47 48 53 49 50 53 47 48 55 51 52 53 52 51 51 53 49 57 35 82 131 124 103 64 120 115 115 122 116 112 114 118 124 141 156 146 161 152 154 153 143 140 130 126 129 106 124 125 111 126 115 126 144 125 141 153 160 163 163 159 157 147 141 147 146 132 141 143 126 131 133 135 92 120 163 113 60 73 72 76 75 78 78 77 76 74 74 74 80 76 77 79 52 49 50 52 48 50 51 47 53 53 51 47 54 50 53 53 54 56 37 76 134 124 121 85 83 94 101 104 105 116 112 129 128 140 143 139 155 156 153 154 147 148 133 133 124 120 115 122 114 133 125 121 154 137 147 171 170 162 168 157 164 151 146 140 136 150 143 152 125 110 122 117 95 133 170 96 68 75 73 79 72 75 78 79 77 75 74 74 75 81 74 80 53 49 51 50 50 49 49 47 52 52 52 49 52 50 52 50 51 51 40 73 120 111 119 106 69 77 89 97 98 110 121 125 121 114 134 142 159 163 155 157 150 152 142 130 133 123 128 121 119 133 128 133 149 149 156 171 174 167 169 152 163 140 156 144 134 150 134 136 130 107 109 106 122 155 179 89 57 78 73 78 75 80 76 79 75 75 77 73 76 79 76 83 51 48 51 49 51 52 49 50 50 54 51 48 48 50 52 47 53 53 42 69 112 103 115 123 84 87 82 90 92 101 112 117 122 114 132 139 153 154 152 160 154 151 152 131 133 124 129 121 125 125 132 145 145 158 165 172 166 171 177 143 162 158 134 160 144 145 137 116 122 107 102 115 141 167 176 84 63 77 76 76 77 70 82 72 82 72 80 73 76 73 79 76 50 47 51 48 54 51 48 51 50 56 48 48 48 51 54 53 54 57 43 63 131 117 116 117 95 75 90 85 89 79 103 105 118 122 124 123 152 160 156 165 163 158 152 148 127 129 145 123 126 133 144 150 154 157 164 180 164 170 177 145 147 153 146 144 145 124 124 111 100 111 102 106 148 128 180 95 56 76 81 75 74 78 75 74 78 70 76 74 74 75 80 77 52 49 52 49 45 47 51 49 50 53 48 50 48 53 53 49 57 56 42 62 123 124 114 117 108 79 78 84 89 86 87 107 111 107 116 121 153 156 158 161 169 164 155 151 151 142 154 146 126 139 160 153 157 170 173 173 166 167 170 139 153 147 144 148 154 108 114 121 129 97 109 120 154 158 175 74 76 72 80 79 72 72 77 75 78 76 76 74 77 75 77 82 52 48 49 50 46 50 49 49 49 50 52 50 52 49 54 53 56 55 48 53 118 117 110 107 109 94 72 76 81 91 81 94 102 106 120 127 143 141 150 152 168 164 150 156 151 152 145 137 131 151 162 160 163 165 172 171 177 174 171 150 138 140 147 132 146 109 98 116 116 100 107 136 172 166 173 74 65 74 73 80 77 71 77 75 77 75 76 75 76 76 74 75 48 50 50 51 48 51 50 52 48 52 52 52 52 49 53 55 51 55 46 52 122 120 125 125 121 110 82 78 79 92 86 81 93 102 129 125 128 134 149 154 159 157 148 149 146 144 139 138 145 159 151 152 159 156 157 161 165 165 162 156 139 126 138 134 128 107 88 109 114 105 121 140 168 153 163 70 64 76 74 73 75 75 73 77 78 74 75 75 76 72 78 73 49 50 49 50 53 45 51 52 50 51 51 48 54 53 50 52 54 52 52 41 116 132 136 127 121 128 99 83 83 82 90 73 83 106 114 117 123 118 142 145 155 152 147 137 144 144 132 147 146 151 142 137 156 149 149 142 149 140 158 154 136 141 118 135 116 91 104 107 112 121 127 139 134 146 145 66 63 73 73 73 72 75 71 74 77 80 71 74 77 75 76 74 49 48 45 48 52 50 53 47 51 52 49 47 55 51 57 53 59 55 50 39 124 127 129 112 123 131 117 74 77 86 87 74 74 91 103 111 111 111 134 135 147 140 143 127 135 131 132 129 128 128 136 132 135 136 136 135 129 134 130 173 115 152 135 117 111 98 105 116 104 127 126 141 159 163 167 53 61 74 75 77 74 73 69 74 69 77 76 75 77 72 72 74 50 47 50 47 50 52 45 49 52 51 48 55 52 56 52 55 52 56 52 38 115 132 121 109 122 133 130 84 76 78 92 86 80 75 102 104 95 114 132 127 133 126 126 113 131 126 130 121 111 120 124 125 130 120 128 119 123 133 129 132 126 147 128 116 100 108 103 112 126 134 130 136 159 169 157 56 67 75 72 76 73 77 66 75 68 72 74 77 75 74 66 70 49 49 50 51 49 50 50 50 49 55 50 55 51 54 52 53 55 52 57 32 116 130 128 119 117 117 115 110 93 80 88 90 84 77 91 85 88 107 121 121 125 128 120 112 122 112 125 127 103 107 114 115 120 125 126 115 123 121 129 124 118 133 121 100 103 104 116 115 123 133 143 131 154 162 159 62 67 70 72 72 72 76 74 65 73 70 72 74 75 75 71 70 49 53 53 51 48 51 52 50 51 48 53 53 51 51 55 55 56 56 52 34 109 134 127 115 115 104 100 118 106 89 89 94 86 71 85 78 70 101 107 111 119 125 123 109 115 103 116 121 103 106 97 110 96 124 113 105 121 106 117 127 107 126 117 89 102 109 101 117 119 120 122 148 126 171 153 61 61 70 73 69 77 73 72 68 71 74 75 72 76 74 76 69 49 51 48 55 46 51 51 53 49 51 54 53 54 54 55 56 56 56 56 28 107 137 130 119 120 110 115 113 120 99 87 82 81 68 76 77 66 78 104 107 116 121 107 106 110 104 89 106 101 97 86 104 95 111 112 95 116 97 102 109 99 111 93 97 110 104 120 127 128 133 145 158 145 171 159 62 52 71 69 72 71 77 66 67 76 67 76 70 73 82 74 78 49 53 49 51 52 51 51 55 53 51 51 54 52 56 55 54 57 55 56 33 95 129 121 116 106 115 127 112 101 124 94 70 73 65 87 75 77 74 96 91 110 109 89 96 110 100 76 89 99 87 75 87 100 97 107 96 93 91 86 112 90 90 88 94 108 117 117 111 134 129 162 159 157 166 160 59 62 66 71 68 72 70 70 71 69 68 81 72 68 75 78 77 52 52 51 49 50 53 53 50 53 52 52 54 55 52 54 56 55 56 58 28 99 142 125 114 109 114 114 124 97 104 104 95 69 72 75 71 74 85 86 80 101 93 77 86 108 83 71 78 88 79 66 72 92 65 93 89 93 81 86 90 84 78 78 98 105 118 115 131 140 128 150 160 165 161 164 64 58 69 67 69 73 71 68 63 72 68 77 74 71 71 72 80 49 49 50 47 52 54 53 48 52 50 51 53 54 55 53 59 56 59 55 38 90 133 130 123 121 115 107 117 119 105 101 103 94 77 78 75 70 69 76 69 88 83 75 79 93 82 67 67 74 69 69 68 78 60 78 84 84 74 87 85 81 75 80 98 101 127 123 127 144 140 145 174 160 171 165 46 65 70 63 69 72 65 70 63 65 73 73 72 74 69 72 72 49 49 52 51 51 53 53 50 52 54 52 51 52 56 54 55 60 56 57 34 94 139 131 125 135 119 120 114 117 122 110 103 100 86 85 88 77 72 77 72 77 70 62 84 74 72 74 65 62 61 63 65 72 61 65 56 67 69 83 94 90 83 81 103 117 131 125 133 150 161 163 164 142 169 174 48 59 69 66 69 74 68 70 70 63 74 72 71 73 73 69 76 49 49 49 54 48 51 55 51 54 59 53 58 52 59 61 55 58 55 57 31 88 147 132 121 131 133 118 115 115 107 118 105 113 88 94 102 89 93 93 97 80 75 60 66 60 59 51 60 53 46 52 50 56 52 59 52 68 83 93 98 89 86 102 107 132 131 126 143 149 175 167 154 144 177 183 43 57 65 71 64 68 70 71 67 66 72 69 75 71 72 72 76 