P2
92
112
255
48 52 51 51 49 48 49 49 50 47 54 51 53 51 52 58 55 54 60 67 72 93 53 59 53 52 54 62 53 57 52 54 57 54 54 54 60 59 60 53 62 60 57 64 63 59 70 83 93 108 110 110 95 81 75 96 75 76 58 54 57 61 60 63 58 50 55 54 52 58 57 53 52 59 52 54 58 54 59 50 57 58 54 56 56 57 55 56 57 56 56 49 48 47 52 45 47 55 47 50 52 54 50 53 51 53 58 61 61 61 61 59 54 70 74 69 58 69 55 58 53 57 50 60 50 57 47 58 59 51 58 61 67 63 73 85 74 93 87 84 95 109 114 116 113 108 99 93 98 89 81 73 72 78 63 64 61 53 55 53 54 61 57 57 56 55 51 58 60 56 54 53 57 59 57 54 55 57 58 57 55 58 59 54 52 50 44 51 49 53 48 52 54 53 54 54 53 51 48 56 62 50 50 50 53 61 59 62 57 57 55 60 59 61 64 63 53 56 54 60 50 55 63 67 84 85 102 101 104 77 75 89 106 113 118 115 98 94 99 90 85 102 90 88 68 71 67 73 71 64 58 63 55 57 59 56 54 57 54 55 55 57 54 56 54 56 54 55 59 58 54 63 52 60 57 57 48 52 50 51 50 50 52 54 54 55 52 54 51 53 51 54 55 58 62 62 60 59 57 60 71 63 64 55 67 65 62 54 57 58 55 56 57 69 76 84 81 90 91 94 87 83 86 97 89 92 89 93 95 93 94 100 91 97 92 85 91 70 81 72 78 70 64 68 65 56 60 64 53 61 60 60 59 54 58 54 60 53 57 58 57 57 56 55 55 59 54 58 47 50 51 49 50 57 60 51 54 53 56 49 56 53 55 47 58 57 56 67 69 65 68 67 66 67 63 72 68 69 58 56 62 67 63 71 72 79 88 91 83 81 95 78 78 105 106 112 98 108 95 98 95 96 102 85 82 86 89 65 75 69 76 78 70 64 63 69 62 65 57 59 60 58 56 60 53 57 59 56 56 57 58 56 57 59 58 55 59 50 59 58 50 50 54 49 54 54 54 50 56 56 53 48 62 54 58 50 53 61 62 70 74 80 76 70 75 69 60 62 68 71 73 68 75 70 88 87 71 79 71 85 78 84 81 62 78 102 81 94 92 94 105 108 101 103 99 96 94 90 96 76 76 66 73 80 63 76 88 70 66 69 59 53 60 63 57 60 53 56 55 62 55 58 57 59 61 57 57 55 56 57 61 59 52 47 53 52 53 47 58 46 50 54 57 61 57 59 61 68 72 68 68 73 81 83 67 69 69 70 61 67 68 71 85 70 85 80 83 77 73 77 77 81 62 67 68 58 74 91 91 87 99 94 97 100 98 101 103 98 102 96 102 95 93 84 95 81 80 82 85 85 79 72 71 65 68 72 69 62 65 54 55 61 55 59 56 58 59 61 53 60 57 59 58 58 49 48 49 54 48 53 54 52 52 55 53 52 54 52 57 55 69 86 80 84 73 84 66 63 63 63 68 72 61 68 69 83 87 96 73 80 82 73 70 72 63 69 63 56 66 87 76 72 81 83 84 94 89 90 91 88 88 85 78 98 92 96 94 91 60 86 98 99 74 81 72 63 71 72 59 61 68 67 55 59 60 59 61 56 63 63 56 63 58 58 61 55 51 48 53 50 51 54 50 58 57 55 50 52 61 54 63 67 77 81 75 75 69 80 73 71 79 66 69 70 67 71 78 102 97 69 67 67 69 59 61 69 70 60 54 46 57 81 54 65 73 78 90 91 90 93 77 70 85 88 75 82 92 76 80 86 79 75 85 91 85 74 65 75 69 59 66 54 72 57 60 54 61 57 62 59 60 64 57 63 58 60 61 58 57 47 55 49 52 53 53 55 56 55 53 58 61 64 64 85 72 78 69 74 74 78 76 74 71 69 73 70 80 95 98 98 86 67 62 60 63 60 59 68 59 54 55 48 57 61 56 59 69 81 84 91 89 85 90 95 83 89 90 87 102 80 94 84 76 68 67 80 92 72 84 81 75 61 64 53 73 59 60 54 60 57 60 60 61 62 59 60 58 60 61 58 50 52 55 54 52 56 61 53 55 61 63 58 59 57 61 68 60 68 57 66 60 61 67 75 77 74 75 82 100 105 91 79 61 61 84 78 80 93 101 93 85 75 68 55 61 73 60 74 86 89 83 78 89 93 99 98 88 91 90 86 91 85 85 77 84 77 61 78 84 80 77 85 74 70 72 61 58 59 58 58 59 62 57 58 60 62 63 58 60 59 58 58 49 60 60 52 52 50 62 63 57 59 53 63 58 64 63 56 60 66 59 63 68 70 82 85 89 88 85 94 80 77 63 68 64 69 84 80 76 96 101 87 93 88 82 67 82 95 89 90 103 106 99 94 93 89 90 93 87 74 83 73 84 74 71 64 71 81 69 68 71 63 85 83 103 64 83 65 64 58 61 56 61 59 56 63 63 67 61 57 62 56 61 59 48 65 60 51 59 54 59 59 59 55 58 65 63 59 56 58 54 67 65 62 76 76 92 97 100 96 81 82 81 63 69 62 62 61 73 89 81 69 72 66 73 73 76 66 72 94 101 109 115 108 96 97 101 100 95 92 99 81 83 70 61 64 67 67 69 73 72 68 69 81 77 83 86 96 86 72 67 67 56 57 59 60 69 66 62 58 60 58 64 59 59 55 54 65 70 62 58 53 56 53 55 52 59 60 58 55 55 59 63 60 57 72 71 74 93 99 83 89 82 67 66 63 71 71 54 64 72 73 77 60 68 61 60 65 65 55 59 67 74 96 101 114 102 97 106 113 111 101 94 90 87 84 75 69 66 73 71 65 71 66 63 72 82 100 95 97 98 99 83 74 68 60 62 63 60 65 60 61 59 61 61 59 58 61 49 71 74 62 56 57 47 59 60 48 67 72 51 52 56 59 64 65 62 71 79 72 81 82 85 87 74 71 71 60 61 59 53 51 83 56 58 65 66 58 58 58 50 50 57 53 59 79 85 100 98 102 99 92 94 82 89 92 76 77 77 78 76 74 79 71 73 78 75 93 106 91 98 97 90 84 107 71 81 60 61 70 63 65 57 61 59 61 60 60 58 61 53 64 76 52 55 53 52 57 66 55 60 74 57 63 63 59 69 61 62 68 65 62 71 81 80 75 66 77 71 67 53 51 54 54 80 63 58 70 58 54 48 39 45 43 53 45 49 62 73 82 90 90 105 93 93 86 74 103 73 72 66 61 72 69 72 58 66 76 85 73 83 91 74 91 94 95 86 91 78 74 64 62 65 64 59 65 61 55 59 57 53 62 56 57 61 52 52 51 53 57 60 59 62 60 57 60 63 69 59 59 64 62 52 64 76 74 75 82 62 70 60 72 53 53 54 58 90 76 65 60 55 60 38 39 44 42 42 40 35 47 57 62 84 83 87 96 97 88 88 86 91 80 74 83 79 74 90 80 67 80 65 63 64 56 81 117 81 74 90 77 96 85 70 63 65 62 59 66 63 58 58 59 55 58 57 51 57 50 56 55 54 55 58 57 61 56 62 58 72 76 59 71 68 70 62 66 88 94 86 83 73 73 68 79 69 62 58 54 88 88 65 58 60 61 44 42 52 37 43 43 40 41 49 46 61 72 81 80 91 90 87 81 82 91 114 73 92 84 70 63 70 69 67 64 80 92 119 100 74 70 101 85 86 97 101 72 73 72 58 63 63 60 58 63 57 63 61 46 54 55 54 57 60 56 53 56 67 56 73 69 77 82 64 70 76 79 66 78 88 88 83 84 93 79 82 82 70 63 72 59 57 78 74 58 60 68 53 48 52 53 46 47 44 48 59 39 62 52 55 73 67 91 75 72 83 71 111 89 69 96 81 75 71 88 89 109 117 114 93 74 67 72 99 91 79 97 85 91 75 74 75 71 61 55 58 62 54 61 61 50 47 54 55 60 57 62 53 60 69 60 62 70 67 80 78 71 68 75 76 59 80 74 77 84 87 96 91 89 82 66 70 61 56 74 84 68 57 59 52 57 53 49 40 41 51 52 52 45 52 57 54 60 48 65 75 68 77 77 74 93 87 102 100 85 84 94 92 95 94 84 84 76 72 80 78 93 87 87 96 98 96 71 82 84 78 63 56 64 56 60 61 63 44 58 58 56 59 62 55 68 59 66 57 76 69 73 79 70 77 66 63 63 61 68 73 81 76 89 98 94 70 58 54 68 78 75 71 67 57 61 57 55 55 53 46 41 53 49 47 45 53 59 61 60 58 52 52 50 60 66 64 71 73 79 87 82 93 101 99 106 105 87 83 94 87 89 89 90 99 101 98 102 97 80 85 97 122 94 60 69 63 56 58 55 54 48 51 52 54 61 59 66 67 69 68 80 81 86 82 68 73 73 60 68 75 72 80 86 89 87 90 78 73 56 59 76 79 76 67 60 62 69 67 62 63 66 66 58 53 53 54 49 69 64 61 56 66 69 49 46 55 61 58 49 60 61 61 62 64 75 66 86 87 84 80 85 89 90 90 91 98 99 95 96 93 86 93 91 116 93 92 79 57 56 58 50 55 55 55 57 49 62 58 67 71 78 84 83 90 85 82 81 77 82 76 75 78 84 92 100 86 77 71 71 75 71 79 80 77 66 68 74 78 80 80 77 79 78 82 72 65 62 68 67 73 71 71 67 69 78 64 58 53 61 62 55 58 58 54 58 64 67 60 58 66 77 73 63 64 84 83 84 95 94 94 98 97 96 99 86 98 113 101 95 81 60 52 59 56 57 58 67 72 66 76 74 74 84 92 90 95 95 89 86 75 80 78 83 76 84 88 93 85 73 74 72 82 78 76 79 84 86 94 109 108 98 105 99 110 110 98 92 86 90 91 88 90 82 86 89 94 96 94 77 68 59 60 66 57 56 62 59 60 51 65 60 54 58 63 67 75 76 73 82 83 93 94 99 98 94 91 78 84 102 96 90 83 90 55 64 65 55 65 72 62 74 83 82 77 79 86 97 84 90 84 83 67 73 75 80 69 74 82 90 91 85 78 85 89 84 85 99 121 121 137 130 127 130 136 133 134 136 124 122 128 128 122 110 105 100 100 104 109 107 114 105 87 80 73 83 79 59 64 54 58 58 60 58 69 63 63 74 87 89 84 91 87 87 78 76 84 90 89 89 85 88 87 101 83 79 64 70 79 74 86 94 88 88 93 87 86 81 87 87 84 77 76 80 70 67 64 79 85 89 98 101 94 97 100 99 101 105 103 130 135 148 151 147 147 159 153 157 158 152 142 150 154 154 151 146 137 131 125 118 122 119 125 117 108 103 93 91 99 90 76 60 59 52 45 50 50 54 64 69 76 73 80 74 78 71 70 80 61 84 88 108 80 77 93 107 102 74 58 74 82 75 83 85 85 85 83 77 68 77 64 74 75 61 60 58 64 61 58 69 96 111 121 124 120 121 117 128 137 131 141 148 149 165 162 157 163 166 167 164 161 158 158 161 161 163 167 163 160 157 155 148 146 140 144 135 134 127 118 119 107 109 109 85 74 61 48 54 43 51 46 49 56 57 63 72 67 75 70 87 78 83 86 91 88 82 99 104 87 99 61 67 75 89 84 80 83 75 71 79 65 64 74 64 62 60 52 44 47 67 81 94 125 135 133 131 139 139 142 149 154 155 165 168 172 167 168 171 172 173 172 165 160 168 166 164 169 167 167 170 172 170 170 167 164 166 168 164 154 161 139 143 129 127 133 119 101 91 60 43 44 43 56 47 46 55 58 60 58 79 67 65 67 70 74 83 93 105 86 102 79 74 66 71 77 84 79 84 75 72 65 58 68 64 67 48 53 64 43 33 61 90 115 133 143 144 152 151 159 163 167 175 176 172 182 173 178 174 177 177 175 172 175 168 170 173 167 169 169 173 175 172 176 173 172 176 169 174 172 172 170 172 168 154 148 148 147 150 132 116 82 58 32 38 49 52 59 56 55 58 61 67 63 65 76 77 79 86 92 95 94 93 69 69 71 83 91 80 79 71 62 64 68 49 56 69 52 46 43 58 48 37 71 126 142 149 150 154 160 159 160 166 175 179 181 179 172 180 178 178 184 176 176 174 177 173 173 172 168 166 174 173 174 180 179 181 174 174 179 176 173 176 174 180 181 170 165 167 169 162 153 134 107 80 39 31 41 37 36 39 50 54 63 76 70 65 73 76 75 86 98 101 92 92 71 65 64 67 63 78 73 64 57 68 60 52 54 43 50 47 43 43 39 48 97 144 154 155 154 160 162 157 172 174 176 176 178 182 182 183 184 180 180 181 174 177 180 170 171 172 170 169 171 172 175 175 177 182 176 177 176 177 177 176 174 177 177 182 173 164 173 177 171 157 136 111 85 33 28 34 39 47 55 61 63 67 58 56 58 64 68 71 86 99 97 91 74 59 59 57 66 74 67 51 57 48 50 48 46 47 47 37 43 44 39 50 127 157 157 160 156 160 167 172 182 184 186 185 186 188 190 185 188 185 180 178 178 180 176 169 170 174 171 171 172 172 173 180 177 176 181 179 178 181 180 184 181 185 185 187 183 177 179 180 182 173 173 149 126 99 27 29 20 31 40 56 56 49 43 36 38 47 51 47 67 89 84 94 84 63 42 60 60 62 61 63 59 53 51 48 44 44 44 37 45 44 52 65 145 161 160 157 159 167 176 179 184 183 186 189 188 189 187 189 189 188 185 183 178 175 174 170 167 172 174 169 169 173 171 181 179 175 183 181 179 179 182 183 182 182 184 186 184 181 179 184 183 183 175 176 171 153 108 29 29 19 30 30 38 39 52 39 41 42 36 50 52 74 72 64 95 78 51 62 61 75 79 68 60 47 48 53 45 48 38 40 55 55 55 86 157 164 161 156 168 177 181 184 186 186 186 189 190 192 190 190 185 185 188 183 179 179 173 173 171 169 172 170 172 167 170 174 171 170 179 179 179 179 183 178 182 176 180 182 179 182 174 180 183 186 179 184 182 180 167 105 22 15 28 26 31 27 33 35 35 51 32 59 58 92 100 64 70 96 50 67 76 87 78 54 45 50 48 47 47 47 32 54 46 65 62 106 158 164 159 158 175 179 179 185 187 189 191 188 189 191 187 188 192 187 189 184 186 179 179 174 175 175 169 173 171 169 164 171 171 171 173 179 176 173 178 178 177 179 175 178 182 177 181 179 182 184 178 185 187 186 183 176 69 16 20 34 28 31 30 35 42 42 38 67 49 60 75 83 74 92 43 48 52 85 64 53 40 47 47 47 54 40 46 53 48 74 73 132 161 159 163 162 178 183 176 178 188 191 188 190 191 188 186 188 187 192 190 188 187 185 180 176 173 172 171 170 172 167 171 167 168 172 173 179 181 173 180 180 177 178 179 176 182 181 183 177 181 181 179 181 188 185 191 189 126 39 19 30 31 36 36 34 51 46 50 59 55 58 76 89 66 68 45 37 39 60 50 65 53 44 49 49 48 39 55 48 58 78 92 152 161 165 166 174 176 180 176 183 188 188 186 187 189 188 188 189 186 188 191 187 188 185 183 177 176 177 176 176 171 170 170 169 167 179 172 179 176 178 178 183 181 177 181 179 179 181 180 177 185 179 186 185 187 188 190 193 167 82 29 26 28 27 33 34 35 41 45 46 49 64 89 87 73 77 40 33 55 69 58 57 54 47 41 49 45 45 64 44 76 82 115 166 163 166 175 178 182 181 184 188 185 186 190 189 189 190 188 193 191 190 192 189 192 194 186 183 174 183 176 177 179 178 175 173 175 174 181 179 177 178 181 182 180 180 179 178 177 181 177 180 179 183 183 185 186 188 194 191 193 133 50 38 28 31 32 35 37 36 41 33 57 51 59 89 101 76 36 58 73 78 67 56 45 47 46 46 37 57 57 67 95 76 130 164 164 170 179 183 181 181 180 182 181 183 183 183 186 189 189 191 194 193 194 192 195 191 187 181 181 183 180 180 185 180 174 177 177 179 183 180 180 177 180 182 175 177 183 173 180 167 180 181 182 177 181 183 184 192 196 196 194 181 80 54 45 37 39 36 36 43 38 53 65 61 76 80 80 108 46 64 60 55 56 54 54 45 51 42 39 60 61 79 98 87 148 162 167 167 179 181 176 177 175 182 180 178 179 179 181 185 185 190 192 193 197 191 192 194 183 181 180 179 182 183 186 183 183 181 184 179 183 182 177 177 177 183 174 179 183 179 179 175 172 179 181 175 176 177 183 192 198 200 195 204 122 69 63 39 55 46 29 34 42 38 63 57 62 95 67 104 36 35 36 58 58 58 52 43 51 43 56 59 71 85 87 105 158 160 165 170 173 176 178 174 171 177 179 182 177 179 182 186 188 190 192 194 193 193 193 194 187 186 186 180 183 186 187 185 184 183 184 184 178 182 173 168 173 170 166 165 166 165 158 161 159 158 171 174 175 173 179 184 189 202 201 206 171 63 89 43 40 70 57 26 45 41 40 52 62 64 85 79 42 35 46 83 63 59 49 55 35 55 70 67 67 86 79 132 159 162 163 170 174 174 168 166 146 152 159 165 166 153 159 162 156 170 180 177 184 185 192 193 182 186 186 185 182 185 180 182 187 173 169 175 163 160 142 137 130 124 120 127 134 129 130 133 129 133 139 142 153 174 179 184 176 196 205 204 206 77 84 58 41 61 73 43 37 47 41 53 51 70 62 78 38 41 55 76 72 62 45 46 34 62 92 72 64 91 91 149 155 154 167 173 172 154 132 136 148 143 137 126 134 118 116 119 110 111 142 137 131 165 171 167 175 184 181 186 174 182 168 175 163 164 145 157 138 129 120 113 96 89 86 96 83 89 93 100 103 110 119 123 127 127 160 183 187 193 204 201 221 113 89 59 43 52 63 61 43 42 58 55 53 72 57 76 36 39 54 70 69 53 36 53 42 45 90 68 57 92 118 160 144 150 171 170 141 125 119 128 128 122 125 109 97 89 91 92 84 89 93 107 99 122 150 150 171 181 182 179 174 179 169 167 158 148 133 140 119 109 99 97 85 88 75 75 67 78 79 84 93 104 111 119 122 134 134 127 160 194 197 201 214 162 84 72 37 47 38 55 56 52 59 52 39 74 51 76 32 39 54 67 56 36 65 58 36 42 68 39 59 104 139 156 152 165 167 128 118 122 134 140 147 146 157 155 129 114 106 97 87 87 89 96 100 112 115 137 156 180 189 182 175 183 176 169 169 148 130 128 117 100 94 91 88 88 80 83 84 98 108 124 138 143 148 150 161 161 164 150 123 163 201 198 205 203 91 64 37 42 47 31 37 53 53 65 51 72 68 43 40 39 49 47 37 56 70 39 29 52 54 33 57 125 155 157 158 164 144 112 142 156 164 162 173 183 179 178 165 156 147 140 134 121 120 128 129 132 139 139 144 182 193 196 188 182 187 185 179 169 160 142 133 111 101 94 96 94 103 114 126 132 144 150 154 156 161 158 172 180 181 184 148 122 171 198 198 219 132 49 44 42 42 39 41 35 41 50 40 84 55 63 34 33 38 37 50 71 51 24 20 73 53 23 69 149 156 155 162 151 125 116 154 175 182 177 178 182 184 179 170 165 159 151 148 136 123 124 128 133 138 155 156 180 195 197 189 186 187 190 192 193 188 165 122 97 88 77 79 91 115 134 147 140 154 162 156 160 164 164 180 187 180 178 188 163 141 180 205 212 181 39 43 52 59 40 42 44 40 53 58 67 73 52 38 30 39 41 48 52 29 25 22 90 63 19 107 161 162 160 162 139 153 161 166 171 173 174 176 183 187 175 162 151 145 141 136 132 120 119 114 119 126 135 147 172 194 198 193 194 191 187 198 204 191 144 98 81 76 77 75 80 97 118 129 132 136 151 150 148 153 161 188 195 179 167 169 180 173 161 198 205 209 80 26 46 49 52 46 44 40 54 58 73 64 60 32 30 35 39 42 28 24 26 23 92 63 34 138 167 166 165 151 151 170 176 167 169 166 169 166 164 164 153 150 142 137 128 130 119 113 110 111 114 114 128 134 161 190 196 197 198 192 186 201 203 180 119 80 69 76 82 75 76 82 99 124 125 125 140 139 143 141 152 169 200 187 159 161 175 199 173 182 202 214 134 36 42 44 43 38 42 41 51 61 74 56 62 28 32 34 34 29 24 35 20 37 70 43 48 156 167 172 172 167 171 180 182 170 164 154 147 149 156 166 155 139 121 139 115 112 111 117 109 106 98 94 131 139 149 188 199 195 198 188 182 202 199 185 98 84 84 81 77 75 73 82 80 97 105 96 118 117 143 151 171 182 157 179 172 153 150 190 195 177 198 211 175 53 52 42 39 39 39 42 51 52 58 50 66 29 26 30 31 32 30 34 34 37 53 30 77 165 164 172 173 170 181 184 181 166 147 136 144 150 143 108 117 106 31 132 63 59 97 93 95 97 100 79 129 145 154 183 193 190 199 191 176 199 191 197 109 102 107 87 69 67 56 67 64 45 57 26 75 42 61 98 129 167 192 140 178 157 139 179 201 187 192 198 201 82 48 51 37 40 36 28 47 34 51 49 50 30 22 26 31 31 27 34 33 40 38 34 124 165 166 177 170 172 188 186 178 145 129 124 120 103 116 90 74 126 14 49 67 63 145 94 88 89 91 118 138 143 169 177 186 183 204 192 174 194 189 195 161 100 112 86 63 54 51 74 84 39 67 18 35 42 30 113 95 89 121 146 158 164 123 160 194 193 190 196 210 128 49 40 45 36 30 34 31 36 51 45 49 29 27 31 35 35 23 34 39 39 36 62 151 166 169 173 172 176 185 176 163 141 123 105 114 116 129 136 106 115 84 98 107 100 127 123 113 122 119 126 152 161 176 173 179 177 206 197 169 185 186 190 189 149 111 99 93 75 75 78 87 77 85 80 102 93 95 120 142 136 124 117 146 157 139 147 179 200 185 196 205 163 75 46 46 44 28 29 37 37 46 66 49 37 38 32 33 30 31 45 41 29 52 101 159 165 172 176 167 178 190 181 173 165 163 155 161 166 172 175 167 154 140 133 131 121 118 125 129 134 132 141 167 181 174 172 179 183 208 203 175 182 183 186 189 188 157 118 106 92 87 82 81 84 94 105 120 131 134 142 161 169 176 179 174 165 142 151 171 202 187 198 204 184 86 68 50 42 38 41 39 40 34 60 52 31 37 35 32 31 34 48 36 24 67 114 156 169 172 179 168 183 192 189 184 178 176 170 177 185 178 175 168 159 151 144 141 137 137 139 147 160 161 163 179 186 173 174 185 191 199 204 181 182 180 184 187 187 184 168 141 127 111 105 98 93 94 97 108 117 128 133 147 167 177 184 182 183 179 177 178 198 191 197 200 199 97 71 58 54 40 47 53 43 55 42 46 19 35 44 42 38 35 44 41 33 62 119 161 171 174 179 170 186 191 192 187 188 186 172 170 170 172 169 165 159 152 146 145 151 159 170 175 176 171 173 190 184 173 182 187 192 200 198 184 182 179 182 185 188 186 185 178 161 154 146 134 124 123 114 124 121 132 141 147 158 168 177 177 188 168 188 195 199 191 197 199 206 114 72 54 61 47 56 82 99 37 42 41 17 55 116 71 52 43 42 37 28 67 130 162 172 176 177 176 189 190 193 192 192 196 192 184 182 177 177 173 174 170 170 172 180 181 186 186 176 175 182 186 180 183 189 184 189 194 197 182 183 182 185 185 184 191 188 191 181 167 162 158 154 154 142 143 138 149 156 161 164 172 177 185 190 185 190 199 200 198 194 198 206 139 73 51 64 62 89 89 144 52 25 51 33 124 132 105 80 78 57 36 36 61 124 164 168 177 175 179 191 187 196 196 193 195 198 197 193 190 191 190 191 190 190 185 187 192 190 186 182 179 181 176 178 182 194 188 190 185 194 187 177 186 184 187 186 186 188 195 191 170 165 160 158 156 154 158 150 162 163 167 176 178 184 187 192 193 198 202 199 201 195 196 206 144 64 49 76 82 96 55 87 66 28 84 46 135 77 89 115 102 91 43 42 55 120 163 171 172 175 180 189 192 194 199 196 199 200 198 196 194 195 197 192 196 195 190 188 189 192 189 184 176 170 172 175 181 191 194 182 183 191 187 175 183 188 188 182 179 178 195 192 179 166 157 157 150 159 164 158 166 166 172 182 185 188 193 198 197 202 202 202 201 194 192 202 151 58 42 93 130 56 52 72 58 30 79 54 149 65 106 128 153 114 69 32 43 113 159 167 168 166 180 188 188 195 199 199 199 204 200 199 201 201 199 196 198 197 188 186 187 194 196 181 167 170 170 173 181 191 191 189 182 183 189 180 182 195 190 178 179 168 185 176 161 167 163 154 140 153 159 166 167 171 175 180 187 189 196 202 202 203 198 201 201 194 186 196 154 70 53 105 161 50 58 81 54 25 79 37 161 75 93 115 141 137 96 22 53 99 147 165 163 170 180 185 186 190 195 200 199 207 202 201 203 202 202 198 195 194 186 182 189 195 182 169 173 177 174 172 183 188 191 186 182 174 187 189 175 190 199 176 176 178 184 176 120 131 153 154 138 142 160 162 171 176 175 177 181 193 202 208 204 202 198 193 198 197 179 194 143 76 70 114 172 71 47 95 42 40 62 13 148 120 90 123 128 128 88 29 43 76 135 157 156 168 181 183 183 188 192 195 201 206 203 206 207 202 199 197 192 190 182 177 188 181 167 177 182 178 181 177 177 189 199 188 178 175 182 203 174 204 207 178 183 189 188 186 97 95 120 130 136 138 146 155 167 172 172 174 177 194 202 210 205 196 193 190 195 196 184 183 137 75 64 102 148 95 41 123 27 62 46 33 93 179 76 123 164 138 113 69 34 46 119 155 152 168 177 182 183 184 186 198 200 202 203 206 205 198 201 195 189 184 172 161 165 163 161 182 183 181 175 171 172 177 214 190 167 164 165 178 166 209 190 168 176 191 192 186 91 96 89 104 120 124 132 143 156 159 163 177 177 187 201 206 201 194 186 190 190 194 188 168 108 62 73 106 139 148 61 125 16 71 42 44 27 166 106 116 166 164 125 78 51 40 89 149 155 167 182 181 182 183 185 193 199 201 201 200 202 197 196 190 186 172 148 128 151 161 155 168 173 169 164 163 164 155 188 180 155 148 147 147 153 165 161 149 139 149 167 155 95 106 90 70 95 111 119 123 138 154 153 169 173 181 189 196 188 187 183 165 187 195 189 158 89 76 60 121 143 189 98 99 34 75 50 47 24 76 162 131 176 166 141 105 86 75 67 139 151 164 185 180 180 181 183 188 192 197 197 194 194 194 192 191 179 152 103 116 160 160 158 157 147 112 106 122 143 150 158 167 140 136 137 131 143 157 143 93 75 98 138 122 104 108 109 79 54 95 106 114 121 139 145 157 165 174 182 182 174 181 179 156 184 190 188 147 84 91 76 106 127 193 123 43 48 57 54 46 41 19 144 160 189 150 154 137 98 154 98 105 144 164 181 180 177 181 183 188 188 190 195 190 191 193 187 183 160 109 89 145 167 169 162 162 158 117 121 153 153 145 147 153 130 117 128 122 147 142 123 114 105 127 155 123 100 109 111 115 45 62 88 104 115 124 135 148 156 167 167 173 168 175 177 176 180 182 191 123 88 100 105 106 128 211 155 11 36 53 53 48 46 23 106 168 188 134 137 142 118 167 155 69 135 163 175 181 179 182 186 187 185 189 188 192 192 190 182 160 121 78 128 168 174 168 166 158 157 147 139 138 143 146 144 147 133 95 110 122 138 125 124 134 144 149 170 121 99 105 112 117 95 34 70 92 104 113 123 142 149 161 160 168 161 169 171 174 177 176 188 124 118 106 99 106 114 213 169 6 57 62 57 46 47 27 57 154 177 127 117 139 143 153 194 81 124 165 167 179 179 181 185 186 184 187 188 191 190 185 167 128 82 97 156 172 172 174 167 157 149 149 153 150 135 146 153 151 139 107 95 115 131 130 128 131 136 149 157 119 104 106 110 111 119 68 36 73 95 103 112 134 143 154 159 161 160 166 166 169 178 175 176 136 120 139 140 112 151 219 137 14 60 68 61 44 49 34 28 139 169 149 107 135 154 108 197 109 126 158 171 175 182 180 178 182 182 185 186 185 184 172 143 89 77 144 174 168 174 169 168 170 138 129 136 145 129 120 142 140 124 108 95 104 106 111 128 122 115 148 155 134 113 114 110 109 104 107 53 35 86 102 111 119 135 147 160 158 157 159 159 164 177 171 168 131 138 160 206 191 166 227 92 28 61 63 60 46 46 50 9 104 161 171 163 164 178 134 174 120 123 156 170 170 182 181 176 182 179 184 185 182 176 152 106 67 117 164 171 156 163 166 169 161 139 127 137 130 128 116 123 120 103 110 106 115 114 137 123 135 126 134 150 137 141 123 107 105 95 102 101 45 50 103 108 114 128 144 157 156 158 159 151 165 175 172 163 123 182 195 212 185 182 202 46 48 59 61 61 46 48 38 49 35 149 151 157 180 188 184 188 118 107 139 154 167 176 186 173 180 179 185 183 179 168 132 66 92 147 156 159 146 142 158 152 142 131 136 140 117 128 115 108 110 91 105 118 127 120 131 141 128 130 130 147 133 147 139 119 97 93 93 104 99 35 71 126 110 128 146 155 161 169 156 152 163 175 170 172 126 163 198 212 195 211 141 33 58 64 58 57 45 42 48 51 22 78 168 159 181 182 183 189 134 98 135 151 158 172 185 173 177 181 184 183 178 157 91 70 129 142 145 144 147 148 132 150 147 133 122 143 121 117 125 106 108 98 121 131 135 126 118 139 118 128 139 146 136 139 143 132 114 94 85 93 99 96 25 127 137 134 142 161 162 170 151 157 158 171 167 166 113 160 207 199 207 208 43 49 65 58 55 60 48 43 46 45 45 23 123 162 172 178 179 194 147 95 133 152 160 168 184 177 172 176 182 183 178 137 62 94 136 139 136 137 142 150 133 150 158 131 137 141 150 134 137 123 121 118 137 144 149 130 132 137 125 134 140 153 148 142 148 138 120 101 95 83 84 100 64 69 153 144 143 162 165 169 155 157 153 172 163 159 111 168 206 194 214 131 32 59 62 63 56 58 47 47 47 43 45 32 46 158 160 162 173 186 154 82 133 148 153 167 179 182 180 180 182 186 176 111 56 115 134 132 136 138 140 145 133 154 157 133 138 140 160 152 146 136 137 131 142 129 131 124 118 122 123 126 129 149 141 145 152 142 134 96 91 66 92 89 95 31 146 150 142 165 165 179 147 161 165 168 173 149 132 185 196 195 196 54 48 62 63 61 57 51 50 42 47 41 46 39 18 122 152 159 168 176 175 102 118 147 154 167 171 179 181 182 185 187 176 94 45 129 128 122 134 141 147 138 136 146 139 135 131 139 138 132 126 122 111 108 117 106 104 105 98 101 102 103 110 114 122 117 124 122 124 102 84 81 69 87 101 37 134 154 145 162 171 185 155 160 164 164 165 137 134 187 175 178 108 35 56 64 60 65 59 58 45 47 43 48 43 47 37 27 120 149 163 164 181 103 102 146 147 164 169 169 179 180 184 182 168 84 52 138 131 114 137 154 148 134 122 121 128 124 112 142 111 103 138 126 119 101 114 125 127 119 100 100 134 117 82 132 89 66 62 69 78 78 72 85 67 81 106 42 136 154 143 152 161 170 166 154 169 172 170 117 119 152 139 78 54 52 62 57 62 63 59 56 38 48 42 46 44 45 38 42 29 79 112 132 139 72 88 144 145 155 179 180 179 182 182 180 166 80 61 141 131 124 129 139 126 91 92 131 151 179 122 195 180 141 242 212 182 162 174 191 185 186 146 151 191 163 112 187 109 71 42 28 34 44 64 74 76 76 94 69 150 156 145 149 162 176 167 162 175 180 156 104 73 43 46 61 61 60 59 56 62 59 63 59 42 45 45 42 47 42 44 43 45 43 43 58 48 19 66 135 135 150 176 185 176 167 171 181 162 94 58 149 129 128 120 116 66 17 102 167 171 204 138 178 209 148 210 211 198 177 164 198 177 179 137 48 162 92 86 173 92 70 27 15 38 24 58 79 82 77 85 90 160 154 149 151 157 170 177 161 168 176 145 84 52 32 54 61 65 61 64 56 61 62 61 58 43 47 44 44 45 48 44 43 46 40 47 42 40 24 46 116 133 149 169 185 158 159 177 183 163 109 68 141 133 126 137 71 33 13 35 117 88 190 94 54 152 60 114 141 118 94 43 100 72 58 62 9 39 23 28 54 30 23 18 12 51 49 83 94 95 84 83 96 166 156 147 153 154 168 173 152 164 172 119 25 57 55 60 60 60 60 58 61 60 63 60 64 42 49 45 47 46 44 46 47 45 44 44 47 44 38 45 71 136 149 164 177 168 160 178 179 161 123 73 136 132 113 153 77 24 18 15 27 8 80 73 59 91 69 71 80 60 39 34 37 36 30 34 29 24 23 40 29 20 19 13 22 69 91 101 102 90 91 78 114 163 153 146 146 152 161 167 149 172 149 96 34 49 58 58 57 61 58 61 59 62 61 57 61 44 46 46 44 46 43 47 43 47 43 46 44 47 44 40 51 113 131 157 173 172 160 172 178 166 134 83 126 126 124 139 123 48 12 20 11 19 106 113 109 104 103 104 93 79 59 58 74 64 62 56 50 41 44 58 53 39 24 5 59 107 117 108 102 92 84 82 133 163 149 145 131 148 170 154 149 171 135 68 54 52 58 56 58 60 59 65 58 62 59 61 60 46 45 49 43 48 44 45 42 42 49 46 45 48 47 44 36 87 130 152 163 174 167 169 176 171 146 87 124 129 127 135 157 114 27 9 11 89 125 129 121 114 107 115 93 91 84 93 98 97 93 97 94 87 87 89 70 78 27 41 125 141 129 115 105 99 96 75 136 163 149 139 132 142 180 144 158 171 101 62 49 54 57 57 56 62 58 58 57 63 56 60 61 44 45 49 42 48 41 45 46 46 47 43 47 46 43 36 34 69 108 140 159 170 148 163 169 163 153 96 109 118 114 149 151 171 115 14 17 120 123 128 125 119 114 113 106 111 105 109 115 116 119 121 120 111 113 91 76 68 70 118 136 150 137 123 119 102 108 87 122 159 145 133 136 149 171 141 165 143 93 53 49 56 58 60 56 59 62 61 58 60 58 57 62 50 45 43 47 45 43 48 45 46 47 43 48 48 42 33 47 64 94 114 159 165 143 157 162 162 160 106 98 110 123 157 155 167 179 94 16 88 128 130 122 133 132 136 136 126 125 131 149 122 121 134 120 108 99 82 74 99 133 156 140 150 146 125 117 105 102 86 106 149 149 128 135 164 155 143 155 124 73 58 57 52 61 56 60 59 61 59 61 61 61 58 61 46 48 44 46 46 43 50 40 48 43 46 46 49 43 33 45 53 103 107 146 162 149 148 158 157 158 112 94 121 139 157 163 158 170 165 78 22 92 131 130 130 137 154 151 119 118 115 131 107 116 128 104 135 124 96 129 145 151 164 153 156 147 123 121 108 107 100 92 125 147 134 122 166 145 143 147 101 76 45 52 60 53 58 60 56 64 59 59 59 61 57 62 44 48 46 45 46 44 46 45 45 47 47 46 45 47 39 40 37 99 101 133 153 148 124 153 157 153 110 93 116 139 151 164 159 154 171 153 115 43 159 204 122 142 135 137 140 132 151 146 138 140 144 127 131 146 142 155 158 155 157 160 166 145 134 127 115 102 102 99 127 145 126 132 158 139 132 134 108 60 51 52 57 58 55 58 60 62 57 62 59 54 63 56 46 45 45 46 45 42 49 44 44 50 46 45 46 44 44 46 28 81 102 107 150 154 138 149 157 144 115 98 125 153 162 163 170 159 150 162 150 131 127 173 130 161 151 151 163 154 154 155 149 144 149 144 152 156 152 146 147 141 159 159 162 146 140 129 130 107 103 106 117 152 131 144 150 137 123 125 93 60 49 55 59 55 62 57 57 60 62 61 58 55 60 61 47 43 48 46 42 48 45 47 42 50 47 44 48 45 49 43 32 70 112 87 143 148 143 135 158 149 123 110 127 155 172 172 165 175 148 152 163 163 166 162 150 155 153 156 158 152 151 152 148 148 151 149 145 144 142 129 143 154 161 158 150 146 133 133 120 120 102 112 123 131 133 145 145 130 107 136 86 42 55 60 58 57 59 58 58 60 61 60 59 60 61 58 48 46 42 45 46 46 44 45 46 47 45 47 46 47 47 49 35 65 118 80 127 147 133 132 148 142 122 107 117 151 167 166 170 175 164 151 148 160 164 175 180 163 154 149 145 139 136 134 129 124 126 122 128 124 135 132 149 159 150 160 153 145 130 136 119 100 107 101 124 128 130 134 128 125 107 131 73 45 55 55 63 59 60 58 57 61 60 66 57 64 61 57 45 48 45 46 43 47 44 42 47 46 48 47 44 48 46 49 43 55 111 81 113 143 123 132 134 143 122 88 110 131 163 170 178 169 165 169 153 151 145 144 150 142 137 126 122 116 119 109 113 103 105 108 117 124 136 137 149 157 143 155 152 132 135 131 122 102 98 101 131 130 128 122 105 104 114 125 65 52 58 54 59 58 61 56 57 59 59 63 57 56 63 57 45 46 46 46 41 47 41 50 45 47 47 45 47 49 46 49 42 50 105 108 99 116 109 134 123 135 126 105 114 118 158 171 173 172 157 166 168 162 159 149 139 129 123 118 114 109 110 110 116 107 111 122 125 128 138 130 144 150 143 150 143 131 131 134 119 106 108 115 120 132 112 116 109 93 141 120 59 55 56 58 55 55 59 54 58 58 66 61 59 61 63 60 47 44 47 46 47 46 44 49 45 44 48 48 45 48 48 50 45 45 94 103 85 88 100 122 108 127 119 109 113 114 141 166 165 172 163 163 172 159 161 151 143 143 125 124 126 123 123 128 119 130 113 128 120 127 121 132 127 147 140 139 133 134 119 108 128 103 103 119 112 109 95 116 97 95 135 108 58 61 54 57 59 55 58 50 58 58 61 61 59 63 56 67 47 47 42 45 45 50 46 46 45 46 46 44 51 45 48 51 50 44 84 114 94 84 103 94 108 118 131 127 130 125 145 151 155 170 164 163 169 147 156 136 138 139 131 113 136 127 115 127 116 125 116 119 121 127 130 128 130 140 142 138 134 126 124 108 107 115 103 111 113 106 93 93 96 99 133 95 56 60 53 58 58 55 57 53 54 57 61 62 62 61 58 64 47 46 46 46 45 49 45 44 50 43 50 43 45 47 50 42 54 54 78 118 120 101 92 89 84 103 128 138 133 129 119 127 146 166 163 161 164 154 152 150 135 137 133 111 127 133 114 128 128 116 130 138 121 134 144 146 143 143 146 142 134 121 129 109 109 118 104 105 97 99 101 88 84 117 131 99 69 55 58 58 57 56 56 56 57 59 60 64 65 60 57 63 43 46 43 51 43 45 44 48 44 48 45 48 48 52 49 45 52 46 77 109 109 103 100 87 82 81 102 120 120 119 120 124 139 161 171 164 167 165 157 163 136 148 140 127 135 133 127 128 128 119 123 143 129 142 147 153 148 147 152 141 138 118 126 129 108 111 112 88 84 87 99 84 92 109 137 86 66 61 56 57 57 55 56 52 61 53 66 57 63 63 59 58 43 47 43 50 44 45 45 48 44 51 47 47 51 46 50 47 53 49 71 107 125 99 88 89 105 78 86 117 116 119 120 122 122 144 162 158 169 168 165 160 151 151 140 124 139 132 124 123 124 115 133 133 134 144 146 147 142 151 151 128 133 129 122 125 114 92 94 99 83 84 92 88 110 107 133 90 52 56 58 55 60 57 57 52 54 54 64 59 60 64 64 56 47 44 46 45 45 47 44 47 48 43 48 47 51 47 51 46 50 43 85 105 111 92 89 91 98 78 84 81 105 122 119 116 113 145 153 162 160 172 166 167 160 156 143 136 147 150 126 123 127 128 135 143 137 146 148 145 136 147 134 129 132 123 118 118 128 66 72 117 87 83 78 96 103 104 131 94 51 55 55 61 57 60 56 52 56 52 64 59 59 57 58 60 46 47 48 42 48 47 51 46 47 47 47 49 49 50 47 53 50 44 79 126 104 84 117 107 94 84 81 85 78 98 110 128 127 133 138 149 150 158 169 163 154 159 150 158 138 151 129 120 135 148 143 142 149 147 146 144 143 150 135 119 118 122 110 116 117 66 68 104 91 83 83 99 110 107 121 85 54 54 57 62 58 62 55 56 54 53 59 62 61 57 61 59 44 47 46 47 48 47 50 47 48 47 49 50 47 50 49 50 56 44 81 118 116 96 104 109 92 85 88 88 78 83 82 124 119 119 127 142 146 157 159 157 143 156 148 146 135 145 133 136 136 144 136 139 144 140 142 140 138 143 135 126 107 105 106 104 106 64 90 86 77 85 99 109 107 107 130 89 52 54 58 56 58 59 55 58 57 55 55 62 59 60 63 58 47 45 48 48 48 46 48 48 50 50 48 50 51 51 51 50 52 41 76 125 129 99 100 98 84 80 90 86 86 74 72 94 107 117 126 126 140 148 153 146 145 148 136 145 129 136 140 139 135 135 126 134 132 129 133 125 117 134 131 111 113 117 76 85 83 66 100 81 72 90 103 116 105 109 138 94 66 54 59 54 58 59 54 65 54 56 59 59 58 58 62 64 48 45 46 47 47 47 49 48 50 49 50 53 48 53 52 49 54 36 80 106 126 106 91 90 93 69 86 88 96 81 76 84 86 105 106 117 135 136 143 134 135 133 122 132 129 116 129 113 118 131 122 134 116 117 124 103 116 112 126 115 106 123 87 86 92 87 82 80 77 96 104 106 108 97 126 104 55 57 56 57 59 56 57 57 56 55 57 56 59 58 61 59 49 47 46 52 46 50 46 49 51 52 48 54 49 50 54 49 53 47 76 111 101 124 120 94 106 86 78 97 85 80 97 84 86 85 86 107 134 128 130 126 128 121 113 123 121 121 108 97 112 117 116 120 115 100 108 98 109 112 100 100 106 108 91 96 82 85 71 84 89 100 101 99 100 116 129 121 62 52 57 55 58 56 53 57 54 59 49 58 59 56 60 63 47 45 46 50 47 54 47 49 50 51 53 45 50 51 54 47 52 48 77 110 113 113 120 107 103 96 93 101 77 65 78 80 81 83 69 83 110 119 118 124 123 119 104 107 105 129 103 93 98 98 102 103 109 104 95 102 91 104 109 83 102 103 82 87 75 84 81 79 86 95 98 109 126 124 124 141 52 52 58 57 55 52 59 54 51 57 52 56 59 55 56 59 48 48 48 48 47 53 50 50 46 53 53 46 49 52 51 50 46 43 99 117 121 135 101 117 117 101 90 77 71 76 84 83 88 84 75 67 93 94 113 122 112 107 104 97 89 97 98 90 90 79 99 84 104 92 87 95 80 88 99 73 84 96 78 71 77 71 82 90 77 92 101 108 126 134 118 162 61 53 54 55 55 49 60 54 53 60 55 55 53 57 58 56 50 47 48 47 49 54 46 51 48 51 49 52 48 51 50 53 44 41 124 132 113 109 125 92 111 108 90 77 76 90 74 70 89 78 83 78 96 85 87 109 89 78 108 94 80 64 89 82 77 55 94 81 79 98 67 82 67 77 93 76 79 82 79 85 82 83 76 88 82 95 102 106 127 128 109 178 94 38 53 59 56 59 53 56 54 58 56 57 53 56 56 51 49 47 48 50 47 55 46 51 52 45 49 50 48 48 54 49 37 62 135 138 119 113 116 121 103 96 102 88 83 78 84 75 71 82 82 79 96 80 87 97 73 61 96 88 63 53 61 59 60 51 62 77 44 88 64 68 70 58 79 78 68 79 67 77 76 72 86 85 96 107 111 124 127 113 134 175 143 25 52 61 58 55 57 51 56 58 50 56 56 55 55 54 51 48 49 51 49 47 54 46 52 50 49 51 52 50 51 49 34 97 142 127 130 118 115 109 109 108 102 96 93 77 82 84 79 75 67 73 77 80 89 88 73 68 74 74 63 53 54 40 50 46 56 65 35 68 62 67 69 57 67 82 68 69 67 63 71 83 86 85 92 108 115 114 125 133 137 157 188 35 42 58 59 55 53 54 56 56 56 55 54 57 55 60 46 50 51 47 48 50 51 50 51 49 55 46 54 47 51 38 59 139 131 123 123 119 124 112 109 106 104 102 105 87 76 85 89 81 71 77 68 64 78 74 63 71 71 71 63 58 59 50 51 56 51 64 47 48 54 57 59 61 57 75 82 67 66 67 76 98 91 95 109 111 102 117 122 139 139 155 194 91 31 57 61 56 56 53 60 52 61 56 53 57 60 53 47 53 47 52 49 53 51 49 56 48 51 48 52 50 53 25 107 164 141 121 130 120 119 115 105 108 96 88 98 99 101 98 103 85 83 80 74 63 67 65 60 61 62 61 54 53 56 53 48 58 52 47 48 43 45 50 42 57 58 73 76 65 83 81 76 77 86 103 111 106 108 113 116 129 144 153 175 155 25 52 61 55 52 57 54 57 54 58 57 53 55 55 49 54 48 50 51 47 51 54 45 54 49 51 55 51 35 49 153 158 148 134 131 131 117 128 115 123 101 98 80 93 93 106 107 85 88 86 93 68 64 64 60 56 57 57 48 47 49 43 40 42 45 39 39 41 46 54 39 64 67 79 67 77 90 100 98 91 96 114 114 98 104 112 123 130 155 159 158 193 79 31 57 60 54 58 57 55 54 57 60 54 50 55 51 50 47 54 55 49 53 52 53 49 53 50 49 50 30 119 165 159 146 143 136 127 122 122 112 113 122 98 98 98 106 96 101 102 95 88 86 87 74 69 89 80 72 75 63 65 58 49 39 40 45 42 37 42 45 51 57 67 81 79 70 84 100 102 111 104 106 118 106 108 107 114 134 141 156 161 156 182 147 24 51 58 52 60 59 52 55 59 57 55 50 56 53 48 53 49 51 54 50 53 53 52 53 48 50 35 67 162 164 156 152 145 144 139 120 122 125 102 118 129 97 112 118 109 98 98 97 95 98 84 89 87 81 83 77 87 79 84 68 74 53 65 51 57 51 50 52 57 65 72 86 81 76 95 105 108 105 110 101 107 117 121 123 131 136 145 155 162 165 155 190 71 33 56 57 55 59 59 53 61 50 56 56 55 