P2
92
112
255
48 52 48 49 55 53 48 57 52 54 52 58 50 55 57 63 61 65 66 69 64 64 63 83 72 67 73 62 56 59 61 53 62 56 58 55 58 69 60 61 63 66 68 72 88 81 85 92 82 103 111 117 123 119 110 104 99 92 90 70 72 72 74 61 67 59 58 59 58 58 68 57 61 59 59 56 66 59 62 58 57 65 58 63 54 62 60 59 61 61 61 59 54 51 53 54 56 54 51 56 56 58 57 54 56 56 56 53 59 61 63 54 52 61 57 62 68 65 63 61 56 63 57 62 65 60 60 60 61 60 59 62 73 81 89 93 106 114 92 71 96 117 127 126 117 118 97 103 96 95 103 92 87 74 80 73 71 73 63 60 62 57 67 61 60 62 56 59 59 59 58 58 58 61 55 60 61 61 59 60 58 63 59 63 51 53 55 54 52 51 55 58 57 56 55 57 58 53 56 53 58 59 56 62 58 59 58 61 55 67 63 63 54 71 75 69 66 62 58 62 59 59 66 70 82 93 92 99 102 100 87 85 113 102 100 102 103 102 104 99 100 95 112 99 91 87 84 84 80 87 74 71 66 69 65 64 61 63 64 64 61 58 63 59 59 59 59 64 61 61 59 57 61 60 58 62 55 49 56 51 55 52 57 57 57 53 59 54 60 55 56 56 57 59 56 66 76 66 71 65 71 71 65 75 63 73 71 65 58 60 66 65 59 71 79 86 99 87 90 91 97 78 107 106 108 106 101 101 98 94 98 107 93 97 93 101 83 84 78 79 81 71 72 67 72 66 58 64 63 65 60 63 60 59 60 62 58 62 59 65 63 60 61 57 61 58 59 65 54 56 53 54 56 56 54 58 59 57 59 56 59 53 62 54 59 55 63 63 67 74 74 70 70 74 74 70 70 72 75 61 70 70 70 86 92 85 88 88 94 83 95 89 75 82 106 101 103 104 106 114 116 111 115 109 103 87 91 97 73 78 75 69 86 75 76 71 71 68 65 64 61 64 62 60 58 60 59 61 62 60 61 66 60 59 61 60 58 63 63 63 51 54 57 51 54 54 56 54 52 57 62 58 65 61 64 70 67 67 65 69 72 83 90 80 81 73 75 64 66 68 67 85 74 74 74 83 83 71 72 80 87 82 84 84 64 77 97 96 96 105 93 107 110 107 97 100 99 105 97 102 93 76 79 85 82 70 79 96 76 71 78 65 66 61 62 69 65 59 60 60 64 57 61 62 63 61 59 64 59 66 63 65 53 51 55 52 54 55 55 59 55 54 55 59 59 56 56 62 61 68 82 81 90 91 93 85 69 74 78 77 79 79 79 74 83 90 101 86 93 80 88 80 83 68 73 70 60 85 88 99 82 96 96 100 111 98 101 111 102 100 110 97 110 100 96 103 94 95 93 100 90 89 78 74 71 69 74 71 63 67 62 62 68 60 65 64 66 64 65 64 61 62 62 59 54 52 55 52 56 54 54 65 54 57 60 55 60 59 58 61 65 61 94 77 85 77 83 81 68 73 67 70 80 62 75 77 101 105 97 73 80 83 79 73 73 77 73 63 55 66 82 87 80 86 94 95 99 97 99 89 98 93 88 79 102 98 96 98 91 68 92 99 101 86 75 79 68 78 75 61 72 72 70 61 62 63 63 64 66 62 65 63 63 69 64 59 60 50 58 51 58 52 56 59 55 60 56 55 52 60 63 61 81 85 102 84 90 76 75 79 70 88 79 77 79 74 82 92 108 105 80 67 75 75 62 72 77 71 68 57 54 56 87 64 70 74 83 95 90 90 93 74 76 89 97 74 81 96 78 80 94 82 83 95 92 78 85 63 78 77 67 65 64 70 63 61 61 60 66 60 67 66 64 61 68 63 67 62 59 50 52 59 56 53 57 56 63 55 62 57 62 69 67 70 84 82 83 72 71 76 81 80 83 76 78 72 75 86 110 108 104 90 73 67 69 72 73 68 69 68 64 60 53 62 70 66 67 73 88 87 91 85 94 97 90 85 97 93 90 106 84 92 88 65 80 83 88 92 82 83 78 81 61 64 60 77 62 60 65 59 65 65 65 63 64 65 66 64 65 59 54 52 54 61 58 52 61 60 63 55 69 65 64 62 59 59 75 70 65 72 60 73 68 69 79 86 86 83 92 106 109 97 83 66 63 88 91 81 104 108 103 101 87 79 70 65 79 71 79 89 98 94 91 96 102 106 100 93 102 90 95 99 93 95 91 94 71 75 84 98 81 80 99 69 80 70 61 69 63 63 64 64 63 55 64 62 66 66 62 65 64 62 55 61 56 69 56 53 59 59 66 67 64 55 65 62 65 68 60 62 70 65 65 76 75 94 90 98 106 93 95 90 79 67 68 78 73 85 82 87 101 103 99 96 97 91 75 87 99 96 99 111 113 109 103 99 98 98 96 92 86 85 88 93 78 78 73 84 85 72 72 77 83 90 90 90 67 87 74 58 66 60 65 59 67 59 65 70 69 62 68 63 61 61 55 60 52 75 57 60 68 61 62 65 62 56 78 72 68 61 61 61 67 69 67 71 83 91 110 104 100 89 85 85 70 75 72 63 67 80 97 92 79 75 78 76 80 83 76 76 100 108 112 123 113 98 103 106 108 101 102 107 87 84 73 69 65 81 73 78 80 79 78 81 75 90 99 103 81 82 68 64 68 61 65 59 64 74 72 67 65 63 71 65 59 67 56 56 60 81 67 68 60 56 58 53 59 58 65 64 63 56 58 64 71 56 75 81 77 90 103 94 91 93 73 74 64 78 83 61 64 71 79 83 75 71 70 67 73 71 71 68 71 84 102 112 126 106 102 114 119 117 114 103 92 92 89 77 74 73 72 79 75 70 66 64 85 86 100 87 97 103 87 80 73 71 63 68 67 73 67 60 65 69 61 67 61 66 58 57 49 92 71 62 56 58 58 66 53 62 84 59 63 59 64 65 67 67 66 82 84 79 87 85 88 87 66 76 64 74 66 60 50 89 61 67 70 71 60 72 70 59 56 55 68 64 86 96 109 104 108 104 103 104 96 108 99 89 89 88 79 77 78 89 81 81 78 77 95 109 108 115 108 97 107 87 79 69 60 68 69 70 66 64 65 63 64 65 62 64 57 58 52 88 68 57 58 58 56 69 59 59 85 60 63 62 66 71 69 66 73 75 67 75 85 82 85 74 72 82 65 60 64 59 50 87 70 57 73 67 61 60 49 51 52 59 56 55 65 86 92 98 103 112 95 101 95 84 111 79 89 74 80 86 76 77 73 69 85 91 99 104 96 93 96 92 100 107 78 84 63 69 73 67 65 66 62 61 64 60 63 65 58 58 54 69 60 54 58 56 61 68 71 57 66 61 68 68 68 61 69 66 68 64 68 74 80 82 80 72 83 71 76 60 49 64 55 88 77 74 71 62 61 44 46 45 46 50 42 45 57 73 81 95 92 99 107 97 91 85 102 90 72 75 78 73 80 82 75 80 93 86 74 87 85 80 108 99 89 96 95 89 74 69 65 72 64 69 66 59 65 61 60 64 60 59 53 62 63 54 55 56 59 59 66 64 63 62 64 62 75 65 67 64 70 58 66 86 85 81 83 71 62 71 78 67 65 62 53 86 95 77 69 63 73 45 40 48 51 41 47 40 46 49 60 83 85 82 93 105 99 96 95 87 105 88 91 94 92 94 83 65 78 67 77 67 63 113 122 75 91 82 89 105 87 67 75 69 60 71 71 67 67 61 64 67 60 61 54 54 58 55 57 63 61 64 58 70 54 73 55 79 80 73 75 75 81 72 73 88 95 90 88 89 82 81 90 74 72 68 69 69 93 68 61 62 72 51 51 55 54 49 49 40 45 51 52 59 69 86 88 96 95 88 82 94 83 121 77 93 87 76 70 85 74 76 80 106 111 124 93 76 89 102 91 103 110 100 69 90 65 70 63 68 61 63 58 66 58 64 60 53 56 57 60 59 62 54 61 76 61 71 68 72 81 88 67 84 86 82 70 97 92 93 96 105 100 94 91 78 73 82 69 56 78 91 67 66 69 56 52 47 55 48 48 49 54 63 43 65 51 53 62 63 93 76 74 85 80 108 99 77 104 91 76 79 94 98 122 125 117 88 74 77 88 112 93 91 97 95 88 75 84 82 65 61 63 65 59 66 58 62 65 54 53 61 63 64 58 66 65 68 67 64 78 68 92 79 74 80 71 82 65 69 79 86 82 87 101 102 98 94 74 66 71 66 82 91 76 60 67 55 61 60 53 45 45 52 55 55 51 56 61 61 64 50 72 78 74 80 80 81 95 96 112 103 91 97 100 97 99 96 91 87 76 82 80 98 97 87 109 88 106 85 79 93 77 75 66 59 64 64 57 63 66 63 52 55 59 62 67 65 65 64 66 65 72 84 73 86 79 80 79 67 76 69 68 78 86 85 96 110 102 83 65 56 71 83 83 76 67 64 63 67 58 61 57 49 46 53 55 50 47 58 59 64 62 64 55 54 56 61 74 68 76 84 87 89 93 101 114 106 115 110 97 98 95 92 95 97 100 104 107 103 111 91 87 94 115 111 74 68 68 64 63 61 56 59 55 47 55 57 64 62 68 72 73 80 81 90 89 92 89 81 93 67 80 80 78 85 92 91 95 97 87 86 62 64 81 89 80 75 63 68 73 76 66 65 70 69 60 55 56 56 56 71 67 64 61 72 71 50 51 61 65 61 54 69 64 72 63 76 84 81 95 86 89 90 97 102 95 95 100 104 105 100 112 87 92 95 120 123 90 92 71 66 64 63 55 60 57 62 64 52 65 62 69 73 77 88 87 90 96 89 90 79 92 81 81 84 90 102 113 95 90 79 77 81 77 88 91 80 74 70 77 79 81 87 77 79 83 86 79 68 66 69 69 77 74 73 68 74 74 59 54 58 67 62 61 55 64 57 72 74 71 58 81 86 95 79 72 83 95 94 100 106 100 103 107 105 96 104 94 116 98 110 79 61 71 64 58 57 59 65 66 79 71 78 80 82 87 91 98 102 106 95 91 91 80 88 86 88 89 95 97 89 80 78 76 85 82 87 80 89 84 95 110 109 97 102 98 110 102 96 87 83 83 86 85 85 81 86 79 91 100 81 72 63 61 65 61 64 63 61 59 62 64 67 49 58 71 71 66 77 87 89 89 97 96 103 100 108 101 98 80 100 116 105 94 92 72 65 62 74 63 64 71 67 76 84 87 79 81 98 95 92 93 90 93 79 82 81 86 70 70 83 97 98 90 79 86 92 86 84 96 119 118 131 134 129 124 141 125 131 140 123 113 122 116 113 111 102 95 96 111 109 108 112 93 84 70 74 79 61 62 64 62 65 66 71 71 65 64 72 80 94 77 86 95 96 104 92 103 100 94 85 83 104 91 106 88 88 70 66 66 83 75 83 98 92 94 99 98 92 90 91 98 98 91 92 91 75 79 69 89 89 86 103 93 97 99 103 104 102 100 103 126 143 151 152 150 145 157 153 157 159 150 141 147 152 155 145 135 128 123 118 118 119 119 122 115 100 97 91 95 92 72 65 60 55 52 59 67 69 71 75 86 89 91 93 91 92 79 80 72 100 88 105 95 92 84 109 106 80 62 69 81 85 80 93 93 97 94 92 91 87 87 84 81 89 70 73 76 75 64 57 73 90 103 120 119 119 117 114 123 130 127 129 147 145 167 169 163 163 174 166 167 173 159 158 165 163 171 166 164 157 152 144 138 137 137 141 125 126 113 106 104 107 98 82 68 65 53 54 42 56 58 61 69 72 79 77 81 80 68 85 78 77 92 104 102 77 94 102 116 93 55 61 71 85 90 94 87 91 94 82 88 77 74 79 80 86 67 64 57 55 70 70 78 109 132 133 129 136 132 136 146 153 151 161 167 167 178 169 172 178 179 181 174 168 172 171 174 172 176 176 178 176 172 171 165 161 161 162 147 155 143 134 131 119 122 118 87 83 61 57 57 50 50 54 52 63 58 72 73 83 80 88 89 83 88 89 100 89 96 112 102 96 56 61 74 81 82 95 80 80 84 77 76 76 75 72 65 63 72 54 48 53 64 94 110 137 147 150 151 160 164 159 174 175 171 186 181 183 181 180 185 185 183 179 174 169 182 178 174 177 175 176 182 181 181 183 179 178 179 182 173 169 174 153 149 136 142 143 123 107 88 56 41 47 51 59 49 60 59 61 67 80 75 69 72 69 80 80 99 110 102 101 94 82 69 75 85 95 94 86 89 81 69 75 56 76 76 74 50 48 75 47 37 64 97 127 146 156 157 167 167 167 178 178 187 189 183 188 186 184 187 186 185 183 183 182 181 179 185 178 174 182 184 183 185 186 183 186 186 181 187 184 183 182 183 175 164 160 154 163 154 137 112 77 46 43 43 62 64 65 58 62 63 74 70 69 78 82 86 83 103 97 106 100 88 69 74 75 84 86 88 76 79 63 76 80 58 61 63 60 54 49 57 46 49 65 129 153 161 155 170 169 169 172 172 183 188 190 190 181 191 189 187 193 187 185 183 186 181 184 179 179 175 183 184 185 188 190 190 184 189 184 184 186 183 187 190 186 181 176 181 176 174 154 137 101 61 27 44 38 39 40 47 57 62 79 86 74 76 82 83 84 103 106 101 100 80 75 69 67 71 70 78 81 66 62 66 65 59 53 52 55 49 46 50 36 59 92 156 162 169 161 169 174 170 185 190 185 190 190 193 195 192 194 192 193 189 185 189 187 178 182 179 181 179 181 182 182 186 187 186 187 188 187 186 187 185 184 186 188 191 178 178 186 188 176 156 127 102 61 25 39 42 47 54 61 62 74 70 66 65 70 76 79 89 102 109 100 96 72 60 64 65 69 78 77 55 58 54 48 57 53 51 51 40 48 49 46 53 122 168 164 170 165 169 179 186 192 194 195 195 193 197 199 195 195 195 191 188 188 188 185 177 180 184 183 179 182 183 182 188 185 186 191 188 189 189 191 189 191 193 190 194 188 186 191 192 191 186 171 135 111 59 21 31 32 49 62 74 56 57 46 46 53 59 59 67 92 105 92 102 67 66 49 66 63 65 66 68 63 59 56 53 48 47 49 42 54 43 65 60 146 174 168 166 172 177 186 190 191 193 191 197 196 197 198 195 197 195 192 190 188 183 182 178 180 182 183 176 178 180 180 187 184 186 191 190 186 188 191 189 190 191 191 192 191 185 190 192 193 192 186 182 161 127 38 32 21 31 35 51 42 59 45 42 45 49 52 48 73 83 80 103 81 58 56 72 69 73 84 75 61 58 50 54 47 58 38 45 60 56 66 79 161 176 170 167 178 186 188 193 192 194 192 197 195 199 198 197 195 196 195 193 188 187 182 182 181 180 182 178 180 176 179 182 181 178 190 190 186 190 188 187 186 185 191 187 190 186 186 192 194 194 188 192 195 175 111 34 19 30 27 31 35 46 45 38 51 42 44 66 73 98 68 80 109 64 56 73 84 92 89 68 48 57 53 56 49 54 34 60 55 68 70 103 166 174 167 169 186 187 188 189 192 196 197 197 196 196 196 197 195 199 196 193 193 187 183 185 184 178 181 181 181 173 171 179 178 181 184 190 185 182 188 185 187 183 184 188 188 190 188 189 191 190 191 197 198 194 182 90 16 23 34 28 32 32 34 37 45 45 58 61 81 90 96 72 102 52 50 57 64 96 75 49 49 49 52 54 56 44 47 60 53 79 77 129 168 170 172 174 186 188 181 186 193 198 193 196 197 195 195 195 195 198 199 195 194 190 187 184 181 180 181 181 178 176 178 171 180 181 181 189 187 181 189 186 184 188 184 188 190 188 190 185 188 190 187 196 198 200 203 154 52 15 32 33 33 35 35 46 44 46 51 68 51 67 94 82 86 51 49 56 39 75 63 62 52 52 57 52 52 44 59 51 64 87 88 157 170 173 177 180 186 187 185 190 193 192 195 194 196 194 195 196 196 199 199 196 198 193 189 187 181 183 185 185 175 181 178 175 178 185 182 187 187 186 189 190 191 184 186 188 189 189 189 188 187 192 190 194 195 199 207 185 98 26 23 31 36 38 36 44 51 51 54 62 63 80 97 82 62 44 50 32 57 67 63 57 58 49 51 54 46 49 63 53 74 94 107 170 172 176 181 187 189 191 188 190 188 193 193 195 196 197 197 200 199 200 202 197 202 198 197 188 185 190 185 188 187 184 183 180 183 185 190 187 185 189 190 189 192 192 185 185 188 186 190 188 187 192 192 198 195 202 201 210 150 49 32 27 31 32 36 35 41 45 47 49 60 75 95 81 72 44 39 52 73 80 74 60 52 48 49 54 39 64 63 62 94 91 133 173 172 178 187 187 187 191 187 189 191 191 188 190 194 196 199 199 201 202 203 201 202 199 196 192 190 194 188 191 191 189 185 185 188 188 191 189 187 185 192 186 185 190 185 185 185 182 189 192 185 190 189 196 194 202 202 207 200 88 44 41 29 34 37 35 41 39 40 50 61 53 88 107 92 42 45 76 74 72 64 54 54 49 51 43 42 67 60 76 102 93 155 169 177 181 182 189 186 187 185 191 189 188 189 190 192 194 195 198 199 203 203 199 204 198 194 193 191 189 190 191 194 192 190 191 193 187 193 191 184 186 188 187 182 192 190 188 191 178 187 192 186 184 189 193 197 202 204 206 215 154 58 52 42 40 43 33 48 39 44 61 71 67 89 83 121 55 56 60 51 62 61 58 55 47 59 40 54 67 71 85 94 112 167 169 178 176 180 183 187 186 181 188 188 190 188 190 191 194 196 197 198 201 201 201 202 198 197 196 191 189 193 194 195 193 194 191 196 189 191 192 183 185 186 185 180 183 183 182 182 177 175 185 186 187 185 187 196 198 205 206 208 212 72 80 39 49 60 30 36 47 39 55 78 52 95 82 103 47 37 34 42 70 70 63 52 54 49 58 70 64 73 94 79 145 175 173 176 174 179 183 178 176 158 168 180 182 180 174 183 182 180 191 195 194 196 200 201 197 197 198 191 192 193 193 191 192 192 187 190 186 183 184 168 163 163 164 158 164 164 157 157 157 149 161 166 171 188 183 192 184 199 210 205 230 109 83 63 38 63 69 36 38 49 40 53 63 75 83 87 36 48 36 65 82 70 61 53 57 38 66 78 73 70 92 91 167 172 169 179 178 177 163 146 149 155 150 144 146 158 134 140 137 130 148 171 163 170 189 189 185 189 195 193 191 187 188 182 189 186 172 176 171 161 142 133 125 115 110 109 114 117 116 124 127 122 135 139 144 148 183 194 191 197 208 208 222 166 79 84 48 48 79 60 32 46 44 46 56 72 63 92 44 43 44 68 76 77 64 44 47 37 74 98 68 72 98 117 176 156 166 186 185 155 135 130 139 146 140 132 115 112 99 110 105 104 106 125 128 120 162 170 171 186 193 188 187 182 185 177 178 165 160 149 152 138 122 121 105 93 93 88 90 83 87 89 98 100 113 123 125 132 133 164 187 201 207 207 212 210 80 96 50 50 65 73 50 44 50 55 64 66 69 67 33 41 46 64 75 74 50 46 53 40 62 93 57 79 103 149 174 157 172 181 150 118 126 136 144 138 141 139 126 97 92 99 84 90 92 95 103 106 120 146 161 185 192 195 183 188 187 177 177 164 150 138 138 119 108 102 96 93 90 82 73 76 86 89 104 113 122 133 135 143 161 143 133 193 207 207 205 224 106 110 38 53 43 62 65 51 57 62 50 68 63 75 29 35 45 64 75 57 38 67 57 34 55 72 39 81 119 164 165 172 185 159 122 144 150 163 167 180 179 176 162 140 121 117 111 104 108 105 115 115 124 131 141 176 193 201 194 188 192 188 186 173 158 135 136 119 105 101 98 95 91 86 92 92 104 120 130 149 152 160 168 186 183 177 141 141 202 207 204 224 160 84 47 41 56 36 49 57 64 68 60 55 81 49 43 45 45 58 56 43 62 69 45 33 57 58 22 87 148 168 170 171 177 124 111 163 187 186 187 169 164 141 129 112 113 115 127 128 128 135 147 147 147 154 149 169 200 200 199 192 192 193 197 190 181 170 156 134 110 103 97 101 88 85 90 90 98 102 109 131 134 155 161 193 199 205 182 130 155 202 202 220 215 67 52 45 46 47 37 34 46 56 64 67 76 62 37 34 38 38 40 58 84 54 23 33 70 55 16 105 165 164 170 175 152 129 148 176 189 192 170 132 104 104 94 96 96 97 81 88 83 112 136 143 148 153 167 178 195 201 200 197 192 194 195 203 198 199 162 113 97 88 80 61 58 47 66 67 71 89 93 91 92 104 132 168 200 200 199 179 154 177 206 207 227 89 35 59 49 41 45 43 42 47 48 70 74 59 33 40 39 43 48 61 66 40 25 35 93 56 22 136 175 172 181 174 146 170 176 176 178 147 126 118 105 86 60 82 134 145 114 109 113 80 88 139 144 142 148 172 192 198 201 198 200 193 196 208 208 185 131 97 87 78 59 54 67 50 41 39 58 160 145 111 102 115 109 95 170 198 194 185 178 171 193 206 226 149 27 57 56 58 48 45 45 49 61 64 76 63 37 35 31 39 49 50 41 28 23 37 100 59 49 162 176 174 185 159 159 180 175 178 163 124 131 104 75 56 40 46 147 202 170 139 127 138 106 93 145 138 137 158 186 195 203 201 201 192 193 208 202 170 115 86 80 76 72 83 61 40 25 41 26 131 218 181 164 107 113 144 76 171 192 193 194 188 182 201 220 208 31 41 48 53 54 46 46 50 56 75 72 75 48 32 31 39 38 40 27 29 27 40 90 42 79 173 181 180 188 181 177 181 181 176 120 114 147 80 82 67 3 120 188 207 189 163 158 138 138 122 94 129 153 149 179 193 201 198 202 186 194 205 204 168 99 93 91 95 82 87 53 48 30 48 142 106 208 192 195 203 96 135 97 117 187 187 190 200 192 197 212 228 76 39 47 48 47 37 48 55 50 80 72 66 48 31 32 40 32 36 40 30 28 53 65 26 113 180 185 187 188 185 183 182 182 160 100 114 171 88 94 181 7 123 222 205 231 172 160 188 139 127 122 113 166 148 183 186 198 197 204 183 193 202 199 184 89 119 110 95 66 107 46 62 37 18 100 181 193 181 196 233 202 62 147 84 174 184 190 199 201 195 204 236 111 56 49 47 45 39 42 55 49 71 55 59 40 30 24 32 35 34 38 35 32 49 46 35 144 182 182 190 190 182 182 183 184 149 115 113 174 144 65 117 106 202 218 203 212 182 150 171 161 129 138 149 142 162 182 183 187 193 206 182 186 199 192 207 125 113 106 95 74 103 77 61 68 44 108 177 185 176 173 217 215 131 140 137 120 190 185 197 202 201 200 223 175 38 66 44 35 46 27 48 51 49 54 53 32 29 23 34 34 32 30 37 37 43 36 70 173 181 189 191 190 185 185 185 178 152 128 126 144 185 163 148 171 190 185 179 166 158 150 135 132 147 125 143 159 178 181 179 181 194 216 187 181 190 193 198 190 112 112 106 93 91 89 95 97 95 120 143 144 144 136 154 182 198 168 180 165 166 177 195 202 201 203 211 212 81 41 51 40 36 40 33 36 46 54 54 30 29 32 38 42 29 30 34 51 44 31 124 179 184 189 196 196 188 185 177 171 161 149 144 151 170 183 200 178 161 159 145 140 136 145 143 146 149 127 141 178 187 177 179 189 196 214 193 187 187 189 191 203 176 96 107 101 92 88 86 93 102 118 134 145 154 149 173 201 220 181 189 185 177 172 184 202 205 196 205 226 117 60 48 49 33 30 37 40 47 59 50 40 35 40 39 32 34 38 50 43 40 64 148 179 188 193 194 197 188 186 178 175 169 160 157 166 175 197 204 192 167 159 147 131 139 135 143 152 138 131 176 187 186 176 182 196 200 209 196 189 188 182 192 194 202 175 102 97 101 98 96 99 105 115 128 140 150 149 164 192 213 199 197 199 180 176 181 198 205 200 202 227 161 72 55 46 42 36 33 42 36 65 74 26 38 40 40 32 35 44 53 40 45 83 158 186 187 194 198 196 196 194 180 184 178 176 173 180 181 190 197 189 171 165 156 150 150 144 143 154 159 178 186 189 180 179 190 197 199 209 198 190 191 184 188 193 196 200 184 138 104 101 107 115 117 122 132 133 141 150 161 183 204 203 202 202 190 181 183 201 208 204 202 224 183 75 65 54 44 42 51 43 45 45 56 26 32 42 37 36 39 39 49 38 50 91 165 189 185 195 198 196 197 197 188 189 185 185 183 187 188 189 195 196 182 174 167 159 158 160 157 175 191 183 188 189 181 187 193 195 199 205 200 192 190 191 187 189 197 196 199 195 164 135 118 122 125 135 145 145 142 152 162 171 192 194 199 200 195 188 187 202 206 205 204 219 203 76 74 59 50 41 63 42 57 55 48 25 25 31 41 41 38 37 45 40 44 101 174 185 187 193 197 200 196 197 193 190 188 190 185 186 186 189 190 195 180 176 172 171 173 184 188 194 186 189 188 187 179 194 197 197 196 198 204 191 191 194 191 190 194 199 199 196 190 181 166 157 144 145 147 151 154 159 164 174 178 188 188 195 173 192 193 203 206 208 205 212 215 86 72 72 48 52 74 70 50 50 51 23 21 31 79 66 38 52 47 27 44 107 173 182 182 190 197 202 196 194 198 195 187 192 187 187 186 189 186 185 182 184 178 191 192 195 197 194 190 190 184 183 182 192 199 200 193 199 201 193 186 196 195 191 189 198 202 200 190 180 178 176 172 174 176 168 171 177 177 183 183 188 188 198 186 194 198 202 207 208 203 211 216 114 75 62 58 77 93 137 59 35 41 17 28 105 138 112 79 82 46 33 47 102 172 182 182 187 195 204 197 196 200 195 192 196 196 197 194 196 196 196 198 199 198 198 202 198 199 199 194 180 175 179 185 192 197 201 194 194 200 192 188 201 197 188 189 182 200 205 191 180 174 174 175 178 184 182 176 186 184 192 188 195 195 198 198 200 203 202 207 210 204 203 219 104 60 70 78 98 99 137 103 21 72 27 68 151 120 127 111 105 86 37 54 89 169 182 179 185 196 201 198 197 199 197 198 199 200 202 200 202 203 202 204 207 203 201 201 200 203 201 183 176 179 178 185 194 198 198 195 193 191 199 189 192 200 189 188 181 188 198 186 176 174 172 170 168 182 183 179 183 187 189 194 196 199 200 202 202 203 208 210 211 201 201 221 94 59 59 134 95 79 64 114 26 82 29 94 135 72 102 138 132 105 64 34 83 161 180 174 183 196 198 200 200 199 198 199 203 204 201 204 206 203 206 205 207 202 200 201 199 203 196 176 182 184 184 186 192 201 202 189 187 181 207 188 200 204 186 185 188 187 199 165 153 164 165 162 156 172 177 180 183 185 187 191 198 200 199 204 205 202 206 213 208 203 196 212 111 47 78 141 76 58 72 86 30 83 18 105 146 65 113 120 155 126 84 21 80 144 175 170 179 193 198 199 200 200 201 200 204 205 201 204 204 205 205 203 205 201 197 200 198 195 181 182 188 188 185 186 183 202 214 181 178 172 194 179 207 211 182 189 199 191 202 151 124 138 148 150 144 158 168 173 179 182 186 186 199 200 202 204 204 200 203 210 208 201 196 202 112 56 106 154 88 54 74 82 23 77 36 83 170 61 118 125 129 139 77 25 79 120 172 169 177 188 194 198 198 201 199 201 203 204 204 207 202 205 203 202 202 198 191 193 191 182 177 187 194 188 180 178 174 176 212 176 167 163 161 161 181 180 170 175 199 202 209 129 106 127 131 133 139 142 152 163 177 176 186 185 193 200 208 208 204 202 201 206 204 202 192 197 92 72 96 174 98 54 82 86 33 70 28 45 193 68 125 138 161 166 108 34 54 103 164 164 172 184 194 194 196 196 201 201 204 203 204 206 203 205 201 198 196 186 183 180 177 172 172 184 189 181 172 170 172 161 186 172 150 157 145 151 172 166 153 145 166 189 199 104 112 114 123 123 124 131 134 147 168 169 172 184 185 195 208 210 207 206 196 200 202 198 200 172 89 84 80 141 108 48 107 82 59 47 55 21 166 122 107 136 171 149 115 102 47 59 157 163 168 178 192 193 193 194 200 202 202 203 203 203 205 202 198 190 190 178 169 164 172 169 161 170 168 121 92 93 129 159 171 161 139 148 135 142 172 138 82 57 104 152 161 106 112 113 115 112 119 119 126 133 148 163 160 175 170 192 205 206 205 201 191 183 199 199 198 151 73 77 133 141 159 56 128 66 66 49 55 26 87 183 88 148 175 164 133 93 56 45 139 163 163 180 187 192 189 192 196 200 203 202 204 203 201 197 190 187 177 163 160 157 167 172 165 164 155 96 113 145 153 153 160 151 127 131 133 141 157 112 81 65 97 135 139 124 112 112 110 106 106 116 118 124 137 148 154 161 164 178 193 197 196 200 188 180 196 197 200 120 95 59 123 149 215 88 120 69 77 54 51 45 19 171 124 145 181 174 152 102 80 60 113 159 160 181 186 186 189 190 195 200 200 203 200 201 198 190 186 178 170 161 155 157 167 184 178 172 164 137 130 156 164 158 157 161 122 101 128 143 141 130 119 125 139 164 154 124 118 118 112 104 103 111 114 117 126 136 149 157 155 170 179 188 186 192 193 188 191 197 191 117 82 87 101 139 210 129 96 54 63 63 51 48 29 95 153 157 198 167 159 131 107 126 83 150 151 179 186 186 187 195 195 197 199 199 201 198 196 187 180 172 164 162 160 164 177 182 181 176 166 160 157 154 151 155 162 167 139 96 122 155 146 152 157 151 166 179 160 115 122 123 116 106 102 106 108 110 121 127 142 153 155 168 174 179 175 187 183 188 187 191 189 93 96 102 107 127 211 161 69 31 52 58 50 49 41 35 150 173 194 148 150 145 117 167 95 131 148 172 186 185 187 193 194 194 195 199 198 197 193 186 178 172 164 165 168 169 181 183 181 177 163 157 157 165 148 143 164 161 145 107 114 145 144 141 142 148 163 170 164 127 127 126 119 111 102 103 110 114 122 124 135 145 151 164 167 168 167 182 177 184 185 194 183 91 96 110 110 128 205 208 43 29 63 59 51 45 59 8 117 180 183 136 136 149 134 169 130 105 150 170 183 186 185 190 192 192 196 197 197 195 190 186 176 171 168 171 177 180 182 186 184 173 167 146 132 148 144 124 151 142 128 112 124 123 129 139 125 133 166 165 164 147 136 132 122 112 113 97 109 118 127 131 133 145 152 163 171 161 169 173 174 184 186 189 172 103 113 104 110 125 197 204 35 53 74 65 55 47 55 29 89 167 174 129 113 150 147 164 185 101 148 165 182 184 188 187 185 195 194 196 196 194 192 187 177 172 172 171 181 185 176 184 179 174 161 143 125 141 131 128 134 125 116 117 126 132 149 135 132 126 158 158 167 167 157 141 124 122 117 115 100 113 134 140 132 150 162 164 173 161 170 172 167 187 187 182 159 116 152 159 124 155 214 174 29 47 73 66 48 49 47 39 45 154 177 155 116 150 155 120 158 117 145 168 174 184 189 185 188 194 196 197 197 197 195 187 168 168 159 165 170 171 171 162 167 165 138 130 148 128 126 130 125 123 101 118 135 134 149 140 143 130 153 145 148 171 157 152 125 123 127 119 122 96 129 155 150 156 169 174 183 169 177 171 174 185 185 184 140 131 183 208 202 179 214 140 27 61 70 63 51 49 48 49 19 129 161 184 175 170 189 173 175 121 135 156 175 180 191 180 187 193 196 194 199 197 199 165 150 164 145 153 154 157 166 161 144 150 143 127 136 141 117 134 125 120 105 119 137 145 137 140 123 138 145 137 133 152 149 144 127 116 124 128 131 119 93 155 164 164 166 177 186 175 177 173 173 182 183 190 136 164 206 212 199 176 225 90 43 62 66 60 52 46 48 56 27 49 171 159 169 179 194 194 200 124 115 141 170 176 189 188 183 187 198 196 200 201 187 144 160 147 142 144 151 146 157 154 143 151 156 138 140 156 138 141 139 126 109 138 143 141 142 140 130 137 150 145 136 145 143 142 111 117 114 121 135 129 93 118 168 169 170 177 190 179 182 178 178 177 181 188 136 157 201 213 196 205 189 59 54 59 65 65 50 47 49 51 48 20 114 176 159 182 188 186 195 152 101 136 163 174 185 194 189 192 200 198 200 209 171 137 160 129 141 131 155 149 141 158 144 157 164 140 149 156 169 158 161 145 142 153 159 154 141 149 142 144 162 152 154 136 153 135 119 106 111 101 127 136 118 92 162 175 173 178 192 182 192 172 184 178 179 192 103 164 203 204 202 217 111 46 68 58 65 63 51 47 48 50 48 39 22 155 162 178 181 184 192 176 107 129 163 173 181 193 193 193 200 195 198 206 154 124 143 130 128 129 153 150 148 153 147 168 163 150 159 156 162 148 146 138 140 143 132 136 124 135 130 130 146 150 148 144 139 125 115 76 100 107 106 149 122 105 159 174 178 178 183 189 195 178 189 182 182 182 109 176 205 195 210 178 43 61 67 66 62 65 48 49 50 49 47 52 17 61 159 163 170 174 185 189 108 120 159 175 175 177 186 194 199 193 199 200 143 124 152 157 123 130 139 139 147 145 138 150 150 141 149 145 137 130 126 120 117 120 109 111 109 110 109 113 115 120 119 116 97 80 61 59 87 112 106 141 133 116 165 174 183 178 181 179 185 186 184 177 178 170 134 183 202 200 207 98 36 67 67 72 54 63 53 48 44 48 46 40 53 20 101 166 160 168 180 190 139 108 153 168 183 193 186 197 195 195 197 194 171 140 157 160 134 129 102 81 127 118 115 123 121 121 127 100 134 120 108 86 95 101 94 85 83 79 87 95 87 90 73 56 44 41 70 82 107 119 118 137 133 131 178 176 183 186 182 191 190 188 188 184 181 162 139 175 190 191 156 35 43 75 69 70 57 67 50 45 48 48 51 44 47 43 30 113 152 160 172 178 160 99 149 167 175 193 191 190 191 195 197 193 198 161 153 158 143 124 105 70 77 42 71 160 118 136 179 107 194 208 138 128 113 151 123 120 107 63 107 104 73 88 82 85 85 104 130 130 138 132 125 129 136 128 165 180 184 183 185 182 189 191 194 192 181 168 131 163 165 130 60 44 66 66 68 66 63 58 48 46 49 49 50 48 43 53 41 43 83 118 138 148 143 82 134 159 174 193 195 175 193 197 194 191 196 177 148 157 141 139 121 131 125 74 64 160 140 108 189 134 145 203 166 152 95 153 135 109 109 36 79 112 112 133 137 152 140 153 160 159 149 126 131 116 127 142 163 179 180 180 186 185 187 191 193 183 182 141 93 100 84 51 57 65 60 65 68 66 65 61 45 49 49 47 50 44 47 50 45 47 43 55 56 63 61 46 119 153 170 185 192 175 194 196 190 193 198 186 159 149 146 143 143 165 169 149 129 136 137 87 140 128 83 135 122 117 82 99 125 108 88 102 115 140 151 157 159 174 175 174 168 160 160 140 135 127 121 153 159 177 176 175 176 186 185 188 183 181 176 118 63 24 37 67 67 67 63 65 66 68 66 65 45 46 50 48 47 50 47 47 47 45 51 49 47 25 24 36 97 151 170 183 186 185 185 196 196 190 197 187 175 163 135 140 155 175 186 173 164 160 161 148 145 148 136 139 138 141 135 127 141 147 139 152 145 161 160 165 161 175 183 181 169 149 160 154 136 138 127 140 158 173 177 171 161 187 185 179 183 179 148 80 39 32 59 64 66 66 67 65 67 68 64 67 51 49 51 50 44 49 50 48 51 52 45 49 53 33 35 25 74 146 161 178 182 188 190 196 190 181 188 191 177 162 134 163 174 177 184 182 182 170 171 167 161 157 159 155 155 153 148 145 150 151 156 155 150 156 153 150 164 177 175 177 164 146 163 159 145 133 130 145 151 157 174 169 161 175 186 180 189 173 116 33 41 53 70 66 63 65 64 69 68 67 60 67 51 51 53 46 51 50 47 48 49 46 47 53 46 50 46 18 50 125 153 171 171 186 183 189 184 182 190 186 180 158 144 162 178 180 187 184 190 184 169 168 167 164 167 164 154 146 146 141 136 131 125 125 126 130 142 155 170 173 166 166 157 160 170 157 148 133 130 142 144 155 164 160 163 178 186 183 184 139 68 38 53 64 62 61 69 66 65 62 69 68 62 66 51 48 50 50 47 49 48 45 45 52 52 49 49 52 49 22 37 120 129 168 167 181 172 185 184 179 190 184 164 149 145 159 180 188 184 179 187 187 182 175 166 153 145 138 138 122 121 112 107 103 97 103 115 129 140 155 167 154 166 164 156 157 162 145 155 120 131 133 139 152 168 146 174 172 175 177 182 90 47 50 59 64 57 67 62 67 64 66 63 69 63 69 47 53 51 49 48 46 47 47 43 54 44 53 46 53 53 33 19 142 116 156 173 176 165 184 182 162 183 178 154 149 160 166 187 186 178 189 188 177 182 183 178 165 151 136 119 106 106 108 101 110 105 128 134 142 140 146 163 151 160 163 151 163 152 150 155 137 136 135 145 156 160 138 165 175 168 170 148 70 44 59 55 67 59 62 66 62 66 62 65 62 66 63 49 51 52 45 51 46 51 50 48 52 46 49 48 50 45 45 3 131 119 122 161 171 172 168 168 163 171 179 156 150 153 164 188 187 183 188 186 179 176 182 168 166 149 145 128 105 129 119 121 118 126 128 136 135 138 130 153 146 154 158 157 158 149 159 139 138 129 149 127 155 154 141 159 170 171 150 101 78 54 52 60 63 62 65 64 67 64 66 63 65 65 64 49 50 45 49 49 48 47 52 48 48 49 50 48 50 42 53 8 113 156 95 140 158 164 157 173 172 166 176 160 149 139 148 177 188 193 181 184 184 180 175 159 159 142 139 135 103 134 116 120 113 126 128 126 135 134 135 142 155 148 153 154 150 152 162 139 125 133 136 135 133 152 143 158 164 153 117 62 69 53 61 58 65 63 65 64 64 64 68 63 65 62 71 50 49 46 48 49 49 51 45 48 51 50 48 48 53 39 52 19 90 181 108 116 156 160 162 165 165 165 159 153 117 134 132 167 181 184 176 185 174 177 173 161 161 146 139 129 121 123 122 124 127 109 145 132 132 150 151 153 155 152 156 160 155 133 167 153 128 127 126 137 139 139 141 156 148 132 105 52 55 58 59 60 60 63 64 63 66 63 65 61 65 62 68 48 48 51 46 48 46 52 49 46 53 52 50 49 49 43 44 26 73 163 151 96 117 150 165 145 151 160 145 149 128 133 129 156 170 179 169 181 183 175 183 170 173 156 141 142 136 132 133 132 134 123 140 140 143 162 168 163 160 162 164 162 152 137 130 151 130 124 121 138 147 113 143 146 110 140 96 56 53 58 59 62 60 58 64 68 62 64 66 61 64 62 67 50 49 50 48 49 46 48 47 46 54 48 49 52 49 50 41 32 37 155 157 119 92 128 160 139 153 149 135 141 128 131 138 167 165 161 167 188 184 182 183 179 172 163 149 143 135 139 133 130 130 124 139 138 153 158 167 162 159 166 163 154 147 148 131 135 130 123 115 130 139 120 128 128 92 150 79 42 57 61 59 62 60 63 60 62 67 68 63 60 60 67 61 48 47 52 48 49 48 50 48 48 54 46 48 48 51 50 54 31 27 140 155 143 137 78 140 130 148 137 133 133 129 140 145 141 144 161 168 178 178 181 186 187 175 171 157 133 142 154 135 126 133 132 142 143 155 152 163 154 166 172 156 159 139 143 128 124 129 123 122 130 119 119 104 82 128 148 57 47 56 61 62 61 61 64 62 66 65 62 67 58 69 63 65 49 49 46 51 49 47 48 48 49 50 50 49 49 53 47 51 47 28 119 145 133 145 103 98 107 131 115 126 141 143 142 132 133 142 155 166 174 184 179 189 191 181 171 165 161 156 164 159 132 142 154 147 155 158 167 164 155 158 164 154 143 149 144 134 122 126 130 119 123 103 101 82 98 161 143 50 50 52 62 61 63 63 65 60 63 67 65 70 62 68 63 64 48 48 51 45 48 49 48 47 47 49 50 49 48 51 50 51 53 31 101 140 133 151 143 103 68 97 102 104 125 128 126 131 130 140 135 163 170 174 170 180 192 176 170 173 163 161 157 152 131 150 162 156 161 163 169 161 158 162 160 143 146 144 133 133 127 113 123 116 112 100 79 91 119 156 144 43 49 57 61 62 65 64 58 62 65 66 65 67 61 66 65 61 47 48 50 47 47 51 46 48 48 52 48 49 47 52 52 45 60 29 88 152 149 156 143 131 73 78 87 93 102 118 120 123 129 128 141 159 163 162 170 178 182 169 164 172 158 154 150 158 157 162 156 147 158 161 156 159 161 163 164 146 134 141 136 126 136 101 119 96 98 98 79 104 106 163 135 49 46 56 60 62 61 59 67 57 67 60 67 61 69 62 69 65 48 46 49 49 47 49 45 54 47 50 48 50 49 53 49 50 61 29 76 152 140 140 125 147 115 79 75 91 91 107 110 121 124 136 145 145 147 158 168 176 175 168 167 156 159 158 142 160 158 157 144 142 153 147 143 147 144 150 151 149 135 118 129 122 137 99 117 97 70 97 99 108 138 154 133 41 53 62 59 60 58 61 63 54 66 66 67 61 71 64 65 65 52 48 50 49 52 49 49 51 46 48 51 52 51 53 48 54 52 38 54 151 126 114 131 135 132 103 67 87 78 85 101 109 113 130 126 134 147 147 153 166 161 147 161 143 147 149 135 139 132 132 144 141 147 135 141 138 130 126 150 140 131 130 111 120 126 85 94 110 85 85 120 148 139 167 103 46 54 59 59 62 61 64 60 57 62 64 69 63 70 61 66 66 52 50 46 50 48 51 51 47 46 52 49 49 51 49 53 54 57 41 46 157 138 142 136 136 131 120 79 79 78 91 90 93 101 118 116 128 134 137 156 152 155 145 149 131 146 143 137 129 118 121 135 133 140 126 124 129 111 135 122 148 111 135 111 103 105 76 84 94 97 105 123 129 140 170 108 44 55 62 61 59 61 58 61 59 59 63 66 70 62 67 61 67 50 46 50 52 47 48 50 48 50 49 51 46 50 49 49 54 53 48 35 151 145 150 135 129 131 126 95 83 95 89 86 78 79 110 114 121 117 135 154 141 143 141 140 128 126 134 136 128 103 115 123 126 132 128 115 118 107 126 122 117 118 139 118 95 91 91 90 92 103 99 128 115 130 176 106 41 57 59 64 61 62 58 63 58 64 64 65 71 68 65 64 66 47 47 48 51 44 51 45 50 51 47 49 50 49 54 54 48 56 47 28 144 136 138 126 127 129 123 105 86 114 90 90 75 74 93 105 112 112 122 139 135 137 142 135 128 115 116 130 130 104 109 110 114 111 128 115 112 119 105 122 111 116 127 109 103 78 98 101 96 102 99 135 137 142 168 95 53 55 59 60 58 63 56 61 58 66 62 64 67 67 66 59 66 47 46 50 52 44 46 52 48 53 48 51 52 48 54 52 54 54 53 21 145 148 137 135 154 149 147 130 101 101 92 93 95 79 85 105 85 98 113 128 131 138 140 123 126 116 103 108 114 105 104 94 116 96 123 98 102 116 98 114 109 105 121 107 92 92 96 97 101 116 108 155 148 136 174 98 43 60 61 63 59 61 60 56 59 57 67 65 63 68 68 62 60 52 47 47 51 50 44 51 49 50 49 50 52 52 51 53 50 60 47 20 140 141 145 156 154 141 136 149 108 93 89 95 106 99 82 90 83 73 98 122 112 125 124 95 117 119 101 85 95 98 93 70 118 94 101 116 93 97 88 103 102 76 109 91 89 97 105 97 116 115 115 127 133 128 173 95 51 53 57 59 61 61 63 59 57 58 60 64 62 65 63 67 61 52 48 51 44 50 51 48 52 49 46 50 51 55 50 54 54 49 60 11 129 149 137 151 141 126 143 154 128 90 93 99 109 104 93 80 77 80 85 100 103 118 104 82 110 115 87 72 81 87 73 68 90 90 80 112 77 84 74 95 99 83 90 83 98 89 98 103 114 110 119 126 135 115 162 92 47 56 66 60 62 62 62 57 57 56 59 65 64 58 62 66 59 50 50 49 47 54 50 49 52 50 47 53 50 53 50 53 55 55 54 26 124 153 140 151 131 130 146 143 136 112 105 101 115 101 95 85 91 87 86 90 86 102 91 70 91 98 83 60 76 75 69 67 70 81 62 105 77 81 78 81 88 76 84 85 109 104 109 111 122 128 108 139 152 135 170 88 48 54 62 63 60 61 63 60 60 57 57 65 66 63 64 66 57 50 48 49 49 51 52 51 50 51 51 52 52 53 55 52 56 53 56 18 115 154 139 147 141 138 132 115 124 134 115 105 106 88 103 92 101 94 82 77 84 94 81 74 82 86 82 59 70 65 61 65 77 64 59 92 69 83 68 86 69 80 83 82 102 107 106 103 118 130 121 138 145 139 165 90 45 59 62 62 60 63 60 63 61 56 64 61 65 63 66 68 59 49 51 48 49 50 49 53 48 52 53 54 50 51 56 52 55 53 54 26 103 151 151 144 140 132 136 121 127 136 124 116 95 85 98 88 93 93 84 80 77 85 81 61 83 76 77 62 69 64 68 60 76 67 51 73 76 65 71 89 74 75 88 90 102 107 114 108 114 110 126 129 130 143 164 87 49 60 60 64 58 63 63 61 63 58 59 61 64 60 63 61 69 52 51 47 52 53 48 56 47 53 54 50 55 50 60 54 52 55 56 23 100 151 154 144 148 134 127 129 141 121 143 130 103 88 95 98 83 76 85 85 81 81 79 59 65 68 68 55 61 60 62 60 60 64 54 60 75 60 78 79 65 81 89 92 107 120 120 114 112 120 135 123 121 147 163 91 44 60 57 63 60 58 63 57 58 59 56 62 61 62 65 63 65 50 50 50 53 51 51 48 49 59 53 52 53 54 54 57 51 56 54 24 100 156 144 133 140 130 123 139 151 124 108 136 117 110 85 115 103 94 84 92 80 91 88 78 74 61 63 65 53 53 61 64 55 55 51 62 53 64 88 87 66 76 87 110 104 116 111 107 122 134 153 140 143 141 174 94 41 62 57 65 54 61 62 58 56 58 61 55 63 59 65 61 63 