P2
92
112
255
68 68 69 71 70 67 78 74 73 68 70 67 71 76 81 78 69 66 68 67 74 69 67 75 80 68 80 86 71 74 77 74 74 69 75 74 69 79 75 78 78 85 76 92 97 98 123 135 147 135 126 134 118 123 123 120 111 100 90 90 89 87 83 79 81 78 82 71 78 82 69 74 72 75 70 72 74 75 72 75 73 69 73 74 72 74 73 72 74 69 70 75 68 69 73 65 69 68 70 67 67 76 80 78 73 76 71 69 83 69 66 67 74 86 92 95 81 81 79 77 87 80 74 79 72 72 69 78 70 76 90 76 99 114 110 118 124 124 129 147 142 128 145 139 124 119 129 110 121 111 97 86 84 87 97 89 79 75 83 77 77 75 69 72 72 76 73 75 76 74 75 71 74 71 72 76 73 76 74 71 77 70 78 76 69 67 67 69 70 66 71 71 65 77 66 72 82 85 78 68 79 81 75 79 80 88 91 92 95 90 93 97 84 92 84 94 76 73 70 79 80 87 103 101 114 106 103 120 128 128 129 142 141 140 130 121 106 106 126 130 122 126 96 101 96 94 89 96 101 84 84 73 83 73 73 74 78 72 72 74 76 75 72 72 74 73 73 76 73 77 76 74 75 73 73 75 69 63 69 70 66 66 72 70 69 79 89 87 90 95 92 114 99 101 95 103 97 102 102 89 89 87 97 94 92 85 86 89 85 75 86 88 89 90 99 106 107 115 114 116 119 117 113 119 107 121 110 111 110 108 117 117 105 102 96 98 94 89 87 78 92 103 92 90 84 71 73 82 77 72 71 74 73 75 75 78 76 75 77 70 75 71 76 73 74 78 73 75 69 61 70 70 66 68 73 72 81 85 74 77 71 81 79 79 94 94 92 84 93 84 83 82 79 87 91 83 79 76 92 93 93 97 96 84 91 105 97 101 97 95 111 110 97 90 99 116 106 109 114 125 116 125 125 111 123 105 97 93 84 89 88 85 90 107 101 100 86 76 75 78 77 79 75 75 75 74 84 72 80 76 75 78 74 74 77 74 72 76 72 74 65 69 67 68 64 73 73 76 70 78 67 72 81 76 71 73 90 87 87 80 79 84 74 86 73 77 79 70 82 81 90 88 91 89 96 105 98 94 103 94 91 105 112 95 103 107 123 124 123 120 127 121 120 116 109 104 117 111 93 100 96 87 110 92 80 109 115 100 87 69 86 76 78 80 73 80 80 73 81 74 79 74 75 81 74 75 76 77 72 78 69 78 65 74 66 70 66 67 76 71 68 75 69 67 80 82 75 82 84 75 72 71 77 81 84 81 69 74 76 67 82 87 83 79 86 89 97 109 96 92 95 86 87 98 88 94 111 107 100 107 103 117 118 119 102 105 100 101 104 106 104 103 105 102 102 99 83 109 109 121 90 82 87 87 84 87 86 76 77 75 77 74 80 74 75 80 72 75 79 77 79 75 75 77 69 69 72 65 74 66 76 66 68 73 69 77 74 76 83 87 83 79 77 77 78 83 82 79 72 80 88 78 84 74 78 86 82 90 97 94 91 78 83 86 95 79 73 97 98 95 95 100 112 117 132 138 114 116 118 118 114 112 113 119 119 116 106 106 93 101 103 120 109 96 92 87 79 81 97 88 82 73 74 73 78 75 79 73 73 78 75 76 79 75 76 77 70 67 68 70 75 78 72 71 68 73 72 76 88 80 80 69 81 88 85 83 84 67 82 72 76 79 80 94 83 86 87 78 75 86 97 88 87 87 84 91 76 56 72 97 73 86 85 91 99 93 108 106 113 113 114 112 111 119 125 108 115 114 108 111 107 99 121 101 106 109 113 115 92 81 83 90 81 71 78 78 79 77 77 77 74 76 73 78 78 75 80 74 69 71 64 67 70 78 71 67 73 74 74 82 85 94 88 82 92 90 86 88 87 78 78 83 80 83 78 88 79 85 89 83 84 97 102 86 81 89 75 73 66 53 69 89 65 70 79 88 95 99 105 96 112 106 107 104 110 113 111 107 100 107 115 112 115 111 110 109 89 90 122 127 110 97 89 90 96 76 78 76 79 78 79 80 73 76 74 78 77 74 77 72 72 71 69 71 71 78 75 67 75 72 69 70 76 84 81 91 99 97 98 98 100 95 93 100 94 93 90 98 94 91 87 83 98 102 83 76 66 85 71 71 57 52 55 89 62 61 72 79 87 100 101 99 108 111 108 106 107 108 100 105 92 95 101 93 95 95 78 97 93 90 88 103 109 103 115 93 91 75 79 78 81 79 79 77 76 76 81 82 74 78 78 77 71 74 70 72 73 76 80 73 81 73 71 71 77 70 77 82 97 100 91 97 90 88 83 90 94 101 98 97 91 80 91 113 97 85 81 76 75 78 77 66 64 59 73 68 64 54 82 77 65 75 82 75 93 93 95 101 97 99 92 109 87 94 88 83 88 83 92 88 82 78 87 95 113 100 105 110 78 93 84 83 76 78 77 77 79 84 80 78 72 81 80 79 73 76 69 65 75 73 72 70 71 67 71 71 78 70 89 88 90 85 76 77 77 86 86 94 100 92 96 89 78 89 107 118 81 71 78 66 75 75 83 70 78 63 82 82 74 64 74 92 92 83 91 84 88 100 94 89 94 89 84 82 89 75 75 70 79 92 74 78 85 88 94 100 99 109 116 127 105 97 87 75 71 78 81 78 85 81 72 82 82 77 80 75 72 85 71 72 70 69 72 68 69 73 69 66 80 80 76 81 94 76 80 81 84 92 96 104 105 102 98 99 101 116 112 106 74 59 76 71 93 116 107 95 95 78 68 71 70 81 68 95 103 98 94 113 95 94 96 100 86 93 85 75 81 78 82 74 77 73 81 64 86 67 82 91 106 104 92 111 138 106 91 86 80 83 88 74 77 78 74 77 76 77 81 74 81 88 65 80 72 69 70 70 68 73 81 81 74 84 80 76 82 82 99 103 100 100 111 97 105 108 100 116 120 112 103 75 71 56 63 90 87 101 99 93 84 81 82 81 79 94 77 87 90 89 71 85 94 96 101 106 100 100 94 96 84 84 84 73 74 71 73 72 69 84 86 82 105 107 110 94 122 105 103 93 85 86 79 82 80 83 77 75 76 78 78 73 78 96 78 77 66 69 68 69 72 76 86 65 75 76 76 74 78 91 87 104 109 117 121 118 123 120 105 105 94 77 65 68 83 76 92 93 88 94 98 65 74 76 74 100 114 128 136 137 130 128 97 89 91 75 62 80 90 71 72 74 64 59 69 90 70 77 88 92 78 93 118 119 131 116 119 106 85 110 113 140 100 74 74 81 89 78 84 74 82 79 74 77 76 89 78 76 69 69 75 75 76 78 82 79 76 84 86 82 81 83 94 106 113 117 121 116 113 102 93 84 82 85 67 79 79 69 91 89 82 75 85 73 60 66 68 70 74 98 96 118 120 145 125 128 110 103 101 82 69 80 70 67 71 76 68 91 79 90 70 72 76 92 111 99 101 101 94 110 112 104 91 150 124 105 78 90 86 79 83 74 80 83 79 80 65 85 73 74 70 71 81 80 67 78 78 80 75 84 83 90 90 84 93 99 98 109 112 116 107 93 90 85 91 94 80 96 81 91 106 98 83 87 80 69 77 71 70 56 77 75 93 102 116 112 121 116 115 106 97 102 84 74 74 72 68 64 84 71 88 76 66 83 106 89 77 85 78 82 113 81 110 88 90 103 126 119 105 109 81 77 88 77 75 83 80 78 64 74 74 72 72 65 80 77 68 67 77 77 85 87 93 96 95 84 90 90 91 100 98 106 93 93 88 78 78 84 80 85 65 80 92 85 73 77 69 76 63 63 55 61 66 67 80 88 96 101 106 106 104 97 94 95 95 115 91 69 79 73 93 93 102 93 90 86 86 79 80 75 74 127 107 57 110 93 80 103 111 131 126 106 98 88 84 83 79 82 81 77 61 69 75 69 71 69 71 74 73 73 81 79 88 92 87 96 97 89 87 81 81 81 88 91 80 79 88 78 83 99 83 72 86 83 85 69 73 67 56 66 66 54 60 52 54 55 61 61 78 82 97 100 98 94 83 91 95 112 122 97 99 90 89 94 88 93 64 62 81 67 72 86 114 150 84 65 87 127 102 103 95 117 134 107 96 82 91 80 82 83 84 80 56 66 66 72 72 78 69 71 81 88 83 74 90 89 90 88 83 85 84 75 70 77 91 90 86 89 89 91 104 103 88 81 76 64 83 80 73 74 62 68 64 55 56 58 54 54 62 62 79 69 82 100 101 107 99 89 93 93 103 105 111 100 96 91 83 90 79 60 73 71 90 125 139 124 88 92 88 112 120 108 97 112 125 111 91 109 92 101 77 86 88 80 70 58 65 76 77 80 70 74 83 98 93 84 99 91 91 94 77 71 79 78 73 96 92 92 95 100 99 96 93 92 95 86 77 58 73 89 85 86 61 75 61 60 59 69 51 53 63 56 71 65 80 84 105 95 90 96 94 87 95 92 138 100 98 102 90 90 94 100 108 120 145 136 106 88 84 88 103 86 100 99 110 110 108 110 113 98 112 122 98 82 90 89 79 67 67 79 82 74 76 78 83 85 83 89 92 83 72 89 91 85 84 84 79 74 74 84 87 92 103 95 102 106 93 75 60 64 65 91 84 87 65 76 66 64 64 56 56 52 57 59 69 63 76 70 91 87 75 97 92 80 86 90 101 111 100 101 106 101 98 112 117 124 122 113 88 99 79 90 100 93 108 115 116 113 118 118 124 118 150 161 115 100 85 89 76 76 60 68 73 83 92 87 92 84 90 96 89 91 80 91 89 89 84 70 70 68 67 85 88 91 102 101 116 107 80 57 60 71 80 84 81 80 67 78 67 68 71 68 69 64 61 73 68 67 76 81 82 80 76 85 85 82 82 100 82 96 105 111 116 103 104 109 107 99 106 99 94 100 96 99 94 105 105 115 119 105 117 111 112 124 143 142 121 137 103 92 74 77 78 74 72 73 82 82 83 87 95 101 101 111 106 105 98 82 71 79 71 74 77 78 95 101 104 94 99 83 67 72 71 81 86 84 79 77 80 78 74 71 70 80 83 74 77 78 74 86 93 92 94 94 89 100 99 87 79 81 90 76 81 87 94 82 88 90 88 74 83 84 85 85 92 92 83 100 93 103 111 107 104 118 120 137 121 140 136 137 129 122 94 79 88 87 80 84 83 85 92 91 88 97 107 115 104 101 99 92 76 84 82 83 81 80 89 96 100 91 81 75 79 81 88 92 93 91 83 92 101 93 85 85 86 92 97 87 73 82 91 98 102 101 100 102 112 121 118 113 97 84 90 93 89 88 86 83 77 72 67 72 74 73 76 70 78 85 94 97 96 101 100 112 108 111 115 118 124 137 125 125 126 116 83 94 106 104 107 110 100 96 91 85 88 83 85 99 98 95 88 77 74 68 81 91 91 94 99 101 92 100 75 93 96 99 101 102 97 109 106 121 124 111 110 118 117 117 112 105 100 103 110 115 116 116 111 129 137 140 144 138 117 114 98 107 110 108 104 93 77 85 73 65 70 75 73 78 80 95 93 98 99 100 105 107 105 100 101 93 119 114 114 120 128 121 85 85 90 98 106 108 91 88 88 82 81 87 88 92 90 78 72 72 64 79 75 85 87 92 99 110 100 102 101 100 101 105 102 106 128 140 140 146 132 137 138 144 148 144 137 129 130 132 131 132 127 132 140 145 145 156 162 154 138 143 131 121 128 119 136 110 96 81 87 76 75 71 66 76 88 98 97 95 92 92 87 77 94 90 94 92 114 106 118 125 119 96 79 75 90 96 106 105 96 82 80 76 57 66 67 76 76 74 73 73 81 83 76 84 104 115 130 136 120 109 112 109 111 124 119 132 146 154 157 160 152 162 166 165 180 171 165 161 159 158 155 145 143 144 144 146 152 155 167 156 153 155 156 160 141 139 126 152 126 117 97 80 55 74 59 71 72 63 63 72 74 74 71 76 109 76 88 98 99 106 108 119 117 91 74 83 92 83 91 98 86 71 72 75 67 64 77 65 59 73 71 59 60 84 96 105 139 146 130 141 133 130 131 133 142 155 149 159 159 163 171 171 171 173 179 179 179 176 174 176 174 180 172 173 170 161 159 156 154 157 165 163 166 167 163 163 169 146 148 161 152 147 131 100 68 60 65 64 68 65 60 64 66 68 73 78 77 85 82 89 93 125 128 124 119 90 72 77 82 87 89 89 81 71 72 54 67 72 61 54 50 64 56 46 56 104 137 143 150 148 151 149 141 147 149 150 162 159 165 174 178 181 183 182 182 181 183 183 180 177 185 182 184 184 182 188 190 183 182 179 176 178 178 181 174 179 187 182 181 166 172 180 176 168 155 117 102 60 48 43 55 54 55 56 59 61 87 70 66 81 83 81 109 111 142 108 108 104 81 90 90 88 88 80 80 76 68 65 60 60 54 49 41 53 56 42 56 129 150 159 162 161 165 160 165 166 173 174 179 183 182 188 187 187 186 187 184 182 186 184 181 184 188 185 186 192 189 193 198 195 196 194 194 194 195 192 192 193 196 199 184 187 199 199 196 188 170 139 109 99 61 45 47 56 61 64 61 58 85 66 63 70 75 85 79 98 116 138 121 119 70 83 88 88 87 83 77 74 67 65 61 53 52 49 41 48 60 48 76 140 161 171 165 167 165 166 173 174 182 188 189 191 188 189 190 184 188 191 189 183 185 186 184 187 187 180 189 190 192 196 200 201 197 200 197 199 198 199 199 199 202 202 201 196 204 205 209 205 195 178 142 119 108 66 26 32 45 59 58 48 62 50 46 45 57 60 71 91 111 113 99 110 56 63 65 82 87 84 75 63 57 52 51 43 49 48 39 46 67 51 84 157 168 171 169 164 168 175 179 186 183 184 188 191 195 194 194 190 187 192 190 186 192 187 183 185 184 184 187 189 190 193 199 200 199 199 199 201 200 200 202 201 204 203 210 204 202 211 210 210 207 204 197 175 155 128 45 25 31 44 42 41 50 61 41 52 54 54 65 99 113 128 88 92 68 60 67 80 78 82 62 60 51 45 49 48 58 45 43 62 56 49 106 163 172 169 169 168 168 175 181 187 194 191 195 199 197 200 195 194 192 193 192 190 191 189 179 181 185 186 189 188 191 194 199 198 199 200 197 204 200 205 203 204 205 205 207 208 207 209 209 212 211 207 208 210 200 187 109 21 30 31 35 35 35 45 40 43 52 36 91 79 106 100 111 98 60 65 61 61 66 67 58 56 50 43 49 52 62 41 53 65 59 46 121 169 172 174 169 173 177 180 185 193 193 197 197 199 197 197 196 197 195 194 189 190 186 187 182 184 187 188 189 190 190 193 199 198 202 201 200 198 202 199 203 202 206 207 207 206 208 208 208 212 211 209 212 213 214 213 184 55 27 31 39 36 37 37 47 45 47 42 81 84 78 90 121 115 56 66 57 56 73 78 58 55 44 46 50 57 59 46 50 60 62 60 140 168 175 171 172 179 187 188 190 193 193 194 198 199 197 197 195 194 198 194 193 189 186 183 180 184 184 190 186 188 189 191 197 195 195 202 201 199 201 202 200 203 201 204 207 205 207 207 208 212 210 208 215 213 217 216 225 125 51 33 34 48 42 44 45 59 61 54 65 74 68 101 122 125 58 56 59 48 69 71 70 50 50 48 64 62 59 36 65 58 67 75 153 169 172 170 174 184 187 188 191 193 197 197 197 195 200 198 199 197 193 198 193 188 188 186 185 183 184 188 190 189 188 189 195 192 197 197 202 198 202 201 203 203 201 203 205 208 207 208 205 210 208 209 212 216 215 214 231 191 84 51 41 33 38 42 44 46 50 52 60 66 76 87 123 113 47 47 46 55 65 54 67 58 47 66 51 60 48 37 77 58 78 88 166 169 170 173 178 189 189 187 187 195 200 197 198 198 200 197 199 201 198 199 192 191 189 185 186 184 183 185 190 189 187 190 191 194 198 197 202 200 199 203 203 203 203 206 205 208 207 209 207 209 210 212 213 214 217 216 217 225 135 70 73 44 41 42 45 42 52 48 63 76 92 95 125 113 39 47 43 55 66 63 64 56 54 56 50 58 43 59 71 69 88 114 170 168 171 175 183 190 192 187 187 195 199 196 197 200 201 198 201 201 201 200 199 193 191 188 184 182 180 187 186 188 188 193 188 194 200 200 202 205 202 203 204 205 202 207 206 207 206 207 210 206 211 211 212 213 217 217 216 224 210 98 81 86 52 56 46 42 52 58 69 95 71 93 113 102 46 49 69 77 71 62 59 55 51 52 46 61 39 74 71 83 87 135 172 165 174 178 186 189 191 192 193 196 195 195 199 199 201 199 202 200 201 201 200 196 196 191 190 185 186 186 191 187 188 194 192 192 199 202 203 203 203 205 206 208 206 207 207 204 206 207 209 208 209 209 213 213 216 218 217 218 233 159 97 125 50 70 71 75 43 69 68 58 73 82 96 91 49 57 67 63 55 48 55 61 52 56 48 52 41 75 71 103 93 148 167 165 173 179 185 189 192 191 191 193 196 197 201 200 201 200 203 203 201 203 199 200 201 195 190 187 187 188 188 189 188 191 190 193 197 203 203 204 203 205 206 204 206 205 204 208 201 208 208 209 208 210 213 215 216 217 217 216 221 218 113 122 70 40 86 105 48 64 79 66 68 79 84 92 48 38 37 48 57 60 63 65 50 48 56 51 57 64 81 101 102 163 165 166 172 174 191 185 187 189 191 198 196 194 194 198 199 197 202 204 202 202 202 200 201 195 192 189 192 194 190 194 191 192 191 196 198 203 202 202 202 203 206 202 203 208 205 208 202 207 205 210 207 208 208 214 214 216 218 218 216 235 151 127 92 49 56 100 73 60 77 95 58 82 78 97 37 42 34 59 59 79 64 54 55 42 57 57 73 63 95 92 126 167 164 161 167 175 177 185 187 186 193 192 194 192 193 194 195 198 198 202 201 203 198 202 201 196 193 192 191 194 195 198 194 195 197 196 199 200 205 198 200 201 205 202 201 205 204 204 204 198 197 209 206 207 206 211 214 213 217 218 214 231 204 119 92 79 32 72 81 82 73 88 65 60 81 107 44 38 44 55 65 63 56 60 58 31 57 64 78 70 103 87 148 171 165 164 164 168 176 181 188 182 187 192 195 192 191 195 193 193 196 201 198 202 200 200 201 196 194 193 190 195 198 198 193 193 193 195 197 194 197 196 193 200 196 191 188 191 186 185 187 177 165 166 181 188 204 211 211 216 216 217 218 216 219 108 109 57 69 42 47 55 75 78 78 78 85 106 33 40 40 49 57 57 56 54 45 30 62 68 70 74 112 101 159 165 158 165 167 170 174 178 176 169 164 181 186 186 178 179 184 186 190 193 198 196 197 197 197 195 195 194 194 193 197 193 186 191 191 187 192 189 187 187 178 178 166 190 172 169 158 185 158 109 156 164 206 227 172 191 194 205 218 216 216 213 227 157 90 54 62 70 44 40 45 49 65 57 81 83 31 33 38 46 62 61 39 54 34 26 67 63 43 84 106 126 169 155 140 172 173 177 172 154 139 165 158 163 184 190 183 168 172 176 189 186 192 183 189 187 191 177 169 165 160 150 153 151 142 148 143 139 135 131 136 130 125 120 117 122 138 98 104 121 125 111 121 161 154 178 158 151 121 117 127 155 206 215 224 225 61 58 81 64 54 62 45 55 57 51 80 93 46 38 44 56 52 38 36 53 29 27 66 57 27 93 101 151 168 161 162 168 159 149 125 114 113 137 146 131 144 133 127 112 99 95 106 99 104 94 98 105 109 83 111 128 129 132 131 145 138 130 123 142 88 76 90 103 93 83 85 84 87 84 86 98 102 115 105 181 183 159 185 190 172 178 184 165 108 160 216 244 110 36 74 88 74 60 56 55 61 64 65 95 41 38 38 34 33 38 42 42 22 33 75 45 33 83 116 158 162 158 142 123 124 123 125 121 130 132 119 125 114 96 80 81 76 94 109 115 183 194 146 86 98 76 108 135 113 128 136 145 139 123 124 154 112 92 83 80 84 76 76 77 72 69 86 101 115 134 141 159 180 196 197 200 185 163 192 212 215 103 168 237 180 52 51 72 69 70 61 53 48 63 71 105 37 38 35 31 40 41 42 23 29 35 78 46 28 82 144 140 207 190 90 141 150 115 128 129 134 144 144 135 127 101 82 75 76 79 81 71 94 165 171 110 89 97 90 164 120 161 177 176 163 149 130 151 142 118 103 95 89 93 79 81 80 85 92 110 123 138 149 165 176 199 211 206 206 186 180 203 214 220 132 231 223 100 58 71 63 52 57 55 43 58 81 85 39 36 33 31 40 39 34 16 29 44 67 46 25 115 152 180 238 192 135 212 217 103 131 157 159 156 162 142 122 111 101 99 101 97 92 90 92 103 113 119 112 105 98 148 148 186 186 188 168 198 98 189 199 165 128 105 94 86 80 78 80 85 92 104 116 118 129 146 162 196 212 209 201 199 195 199 209 224 189 198 231 171 43 73 85 61 49 60 54 62 65 78 40 37 32 35 35 27 26 24 19 42 58 44 40 142 154 169 197 147 229 222 229 139 134 162 165 162 147 120 113 113 115 111 100 92 89 79 86 90 97 106 116 125 122 140 176 114 145 148 119 183 115 185 225 171 111 99 86 74 71 71 76 85 103 105 119 117 135 136 151 154 192 206 200 200 204 207 208 216 217 129 232 206 111 33 54 75 48 48 53 52 70 77 34 32 27 32 34 28 31 24 27 34 51 27 59 158 168 97 145 161 229 225 207 139 150 154 156 142 125 109 116 120 113 121 119 101 93 79 65 79 90 94 103 110 116 169 151 169 182 183 170 161 80 150 217 148 91 88 92 87 81 88 95 93 82 74 75 68 96 116 124 199 158 168 202 196 202 210 211 211 225 144 192 222 221 87 46 56 68 56 59 52 64 89 36 31 31 30 32 28 30 22 25 39 42 16 97 169 157 86 158 168 181 185 162 150 148 148 133 127 112 120 115 94 81 73 80 84 96 99 92 67 77 85 88 99 128 174 129 201 201 204 197 198 112 79 208 125 93 92 96 88 92 83 96 107 65 29 128 38 45 185 126 75 158 122 170 196 194 206 205 201 208 186 70 208 218 155 23 70 64 80 75 63 79 64 40 42 30 35 37 31 26 28 26 32 41 17 171 197 189 119 163 184 166 162 160 157 149 127 113 106 87 120 95 90 37 99 72 56 121 88 91 91 79 59 92 81 153 158 164 208 203 205 201 211 192 45 200 152 135 105 93 85 76 89 131 83 127 40 96 88 36 212 241 114 77 136 124 163 161 173 177 173 197 188 85 204 149 133 51 25 101 90 109 87 77 65 27 48 44 32 37 30 27 28 33 37 35 28 198 159 74 133 159 161 154 149 156 154 137 106 99 77 114 178 52 165 68 44 104 25 149 146 102 89 90 93 100 74 236 164 169 203 202 204 199 209 231 101 147 196 221 125 91 86 96 97 129 106 89 65 34 77 45 143 194 149 104 116 134 149 164 185 207 208 216 226 81 224 172 94 77 64 80 132 112 149 47 78 23 34 36 37 37 33 26 34 41 23 49 64 159 174 58 125 125 112 104 98 107 117 109 91 88 90 119 182 87 66 67 44 69 60 146 154 108 138 104 112 100 168 238 182 166 196 201 207 202 207 224 199 49 171 86 237 127 96 101 100 111 110 94 85 78 81 87 134 137 158 150 149 173 174 188 202 214 210 210 239 72 221 193 99 72 102 107 111 85 128 47 83 30 20 37 77 74 62 34 38 43 19 45 112 152 189 107 118 173 147 120 98 85 81 71 72 78 90 117 146 147 80 73 73 90 106 140 144 128 124 115 136 104 217 234 140 171 193 197 210 202 207 220 218 120 105 176 213 149 96 101 92 93 99 98 114 117 120 125 125 151 175 202 196 199 199 197 205 212 208 210 226 86 229 212 102 81 86 130 83 64 90 56 79 50 15 99 140 94 85 68 48 41 33 41 113 160 187 125 101 182 185 175 163 140 116 100 95 80 94 122 158 156 133 110 114 115 118 112 117 121 123 107 97 138 229 170 164 170 187 190 209 201 204 216 206 201 72 157 208 168 112 105 103 94 92 92 104 111 124 135 139 160 188 205 207 205 206 202 205 208 205 215 197 116 236 224 108 62 141 125 66 69 90 54 76 59 31 132 113 74 75 75 67 44 32 30 115 160 183 147 83 178 187 184 182 166 154 149 141 121 106 128 141 148 131 119 112 110 105 109 113 124 116 107 106 218 178 162 180 172 187 189 209 205 202 214 209 203 169 46 181 194 151 120 111 114 109 108 106 106 119 127 141 155 179 198 200 203 198 202 204 208 210 227 164 161 228 218 87 49 160 176 62 78 112 36 97 58 24 125 85 58 83 113 100 80 23 34 103 159 169 171 69 174 184 184 182 175 164 164 162 159 128 135 143 140 134 130 124 124 123 124 128 133 124 101 195 186 146 192 178 177 190 194 203 203 202 211 207 211 205 155 64 173 176 174 156 140 134 130 133 137 142 146 164 172 187 191 196 201 201 201 207 208 209 223 126 209 222 220 92 59 122 219 76 73 118 40 103 65 25 119 107 44 88 138 136 101 36 24 88 156 163 185 66 163 186 187 184 180 175 169 171 166 140 134 144 143 144 142 138 137 139 138 144 154 120 146 187 143 183 194 175 183 194 197 201 201 202 209 209 207 208 206 131 64 152 193 186 176 169 161 159 161 159 167 175 180 187 192 198 201 209 208 212 210 218 213 132 227 221 220 110 76 156 212 103 96 79 52 104 61 43 83 156 51 76 142 140 116 55 16 73 152 159 181 112 120 191 191 184 185 181 181 178 170 148 151 158 157 153 153 150 146 151 153 161 161 160 150 125 186 197 184 182 189 194 197 200 202 202 208 211 210 208 212 201 119 60 152 197 179 180 172 179 178 174 178 184 188 196 194 204 209 209 213 213 215 225 164 195 219 216 201 120 72 123 167 135 126 54 81 86 60 46 30 175 91 80 119 134 113 78 20 61 139 159 156 175 76 185 188 189 183 185 186 175 165 173 176 171 169 168 167 167 165 166 173 177 168 152 106 165 198 181 177 187 196 190 196 196 203 203 205 212 213 210 214 211 158 113 91 131 181 184 177 178 187 188 184 193 194 200 203 207 212 212 214 215 223 175 175 223 213 221 201 88 99 109 116 176 139 54 75 80 56 55 34 93 145 77 143 164 144 96 31 45 108 156 151 180 123 120 201 191 184 186 189 158 176 189 187 181 181 183 181 184 182 180 185 170 115 105 141 183 183 168 168 186 197 194 197 190 202 205 203 213 218 212 209 216 172 124 134 112 88 156 178 175 186 191 190 194 199 203 207 212 213 216 214 218 172 166 220 216 212 222 176 82 105 103 149 225 126 46 64 93 50 56 58 32 142 113 136 162 132 90 52 44 72 142 151 156 183 101 169 199 182 191 179 141 191 196 193 191 194 193 190 195 197 193 156 105 98 137 162 171 175 167 160 177 194 200 195 186 194 210 200 212 219 213 209 210 201 133 132 129 101 86 103 145 177 187 185 193 193 202 210 216 215 213 205 168 172 215 216 213 211 227 142 104 91 110 164 231 140 38 70 90 52 52 59 38 89 147 157 146 130 93 67 53 47 124 143 153 170 173 124 218 194 193 175 133 200 201 198 198 199 197 199 200 182 128 106 112 135 169 155 163 185 181 155 176 193 199 200 185 186 208 201 209 220 215 207 207 217 175 108 134 130 110 89 80 91 119 144 161 188 210 222 218 201 187 196 205 209 211 213 211 213 221 120 107 111 116 175 231 120 48 78 86 55 50 51 55 42 137 182 145 122 108 99 87 79 88 145 148 157 169 160 174 154 167 191 171 202 206 203 199 198 185 164 128 110 117 137 155 164 158 146 175 186 185 163 173 189 202 200 189 178 203 207 203 222 217 208 209 213 227 119 113 133 136 130 122 112 103 95 82 103 141 215 189 192 207 211 212 212 205 207 211 214 210 77 148 145 149 208 233 98 57 77 84 49 57 51 59 31 102 178 150 111 111 120 112 170 69 129 148 155 165 170 180 174 159 142 140 143 145 137 123 120 116 117 136 152 164 164 172 169 142 147 183 183 180 172 165 179 211 201 186 179 185 205 200 223 217 207 211 216 227 159 101 129 133 130 134 137 138 142 158 153 167 183 183 202 208 209 212 213 198 201 210 216 203 75 176 215 213 206 223 76 72 82 85 53 56 51 59 34 64 170 160 117 102 118 135 178 115 97 146 156 162 166 170 175 177 188 184 177 155 150 154 164 176 170 174 175 169 164 165 173 124 147 179 182 168 161 156 163 198 202 169 166 164 182 187 215 209 196 193 204 223 163 110 130 129 122 131 133 136 142 159 166 171 180 185 195 205 202 205 210 202 207 209 216 187 155 212 222 208 214 195 44 86 86 77 51 51 52 53 46 30 146 165 154 115 141 146 112 156 89 130 152 164 161 166 166 168 175 175 180 181 179 178 184 180 174 172 164 162 158 161 167 129 130 163 160 153 146 146 149 156 172 149 148 144 149 164 191 188 170 145 159 186 144 122 131 126 117 121 129 127 138 148 157 167 166 176 183 194 195 200 205 202 205 201 213 178 194 218 219 208 235 116 51 77 80 82 48 54 49 53 56 24 94 155 163 168 171 173 131 156 112 109 148 161 166 159 168 165 172 172 175 180 179 176 180 171 170 167 158 151 155 155 153 144 128 144 128 103 89 106 136 143 151 140 134 130 125 153 190 165 104 99 123 161 151 131 134 128 120 117 130 125 130 138 149 161 168 172 178 186 187 191 200 200 202 204 212 153 195 219 214 225 222 61 73 83 84 80 48 54 48 53 52 53 34 138 156 150 172 183 179 177 115 105 149 157 160 160 164 168 168 170 168 174 175 170 169 165 159 157 149 149 157 153 147 143 145 142 140 116 89 96 111 131 141 128 114 118 108 151 177 137 120 134 156 168 158 135 137 132 126 118 123 121 123 129 136 152 156 165 175 174 181 182 193 192 205 205 204 157 197 218 211 228 167 50 77 79 84 81 56 51 52 50 52 54 47 61 162 158 169 175 175 175 139 95 144 155 160 159 162 160 165 163 163 167 168 167 164 155 153 149 146 148 155 150 145 143 142 143 145 141 133 118 116 111 126 127 105 104 111 154 152 140 140 168 178 167 157 151 142 131 131 119 113 119 121 126 131 148 152 166 176 177 176 183 180 193 207 202 209 138 208 218 214 233 107 58 80 86 82 82 54 49 54 51 52 49 60 27 97 160 165 170 170 180 164 87 135 156 156 158 162 157 155 162 160 161 162 159 155 149 148 143 139 148 149 147 138 141 143 143 141 136 137 134 125 110 130 130 111 91 131 151 144 132 147 174 180 173 159 164 161 132 131 129 115 116 119 126 129 146 171 174 184 177 186 178 188 191 206 199 208 141 206 214 220 184 58 76 85 83 82 81 47 53 51 52 55 52 50 45 28 147 155 157 167 172 177 106 114 143 155 156 160 160 153 160 157 157 160 153 159 157 150 136 138 151 147 144 149 141 147 145 137 142 123 114 124 101 123 118 105 84 120 138 148 138 132 183 182 172 179 169 160 158 140 141 137 114 99 123 137 149 176 190 196 194 191 180 192 189 203 204 199 156 206 201 171 82 71 83 85 79 84 84 50 53 48 52 56 47 54 53 31 86 148 149 158 171 171 131 96 135 148 153 159 159 155 156 161 158 160 165 166 159 128 128 145 136 142 136 143 137 137 141 136 141 119 109 109 105 114 106 110 100 128 143 162 151 142 176 177 177 186 171 158 149 142 151 165 159 115 93 134 156 177 191 204 200 201 187 197 189 200 207 193 133 157 126 86 72 72 79 87 76 84 82 52 51 52 52 52 47 54 52 50 36 99 137 151 157 166 137 89 135 149 151 155 163 160 155 159 161 165 169 166 141 111 130 129 124 131 129 128 134 124 131 126 124 116 115 101 107 112 107 92 112 114 138 159 152 155 161 156 162 174 164 156 130 129 133 154 174 151 70 123 160 182 193 206 203 211 189 199 198 196 210 197 97 82 75 72 78 73 80 85 80 79 87 54 52 51 52 52 51 50 51 54 52 37 75 113 132 138 131 78 129 148 150 149 159 165 165 163 169 168 171 171 126 111 131 115 124 129 129 119 131 124 113 116 116 99 116 102 103 112 104 95 99 118 136 159 140 140 162 151 138 161 158 151 135 130 127 131 161 183 86 109 152 186 192 200 205 208 199 196 199 193 215 188 100 74 69 76 74 73 78 85 79 81 83 48 52 52 48 53 51 51 50 53 55 51 50 51 71 73 73 45 116 146 154 154 152 153 163 168 167 164 168 168 119 109 124 111 115 135 141 130 130 123 114 115 123 110 110 118 110 117 112 101 109 116 137 157 140 141 162 159 154 158 162 158 143 132 123 134 128 186 120 108 147 188 192 195 200 201 205 197 200 199 220 161 84 74 74 77 72 77 74 85 80 83 84 48 50 51 49 54 47 52 54 55 53 52 54 52 58 59 54 24 90 149 149 152 159 159 157 174 167 164 170 163 118 111 135 115 124 131 145 135 129 136 113 128 128 113 119 126 131 124 121 113 127 137 142 145 143 139 164 160 163 164 168 158 146 88 109 134 120 165 135 113 156 192 196 196 202 202 202 203 204 203 225 120 79 72 71 77 70 78 76 78 85 78 86 51 50 53 47 49 51 54 53 52 53 54 53 54 54 54 52 35 54 136 150 147 156 169 165 168 162 164 167 162 144 133 136 125 128 117 120 124 130 131 120 131 131 119 126 129 139 131 128 131 144 133 131 116 131 130 149 146 148 144 130 115 82 78 102 117 114 139 141 127 164 186 198 196 197 203 202 208 197 207 205 77 64 77 71 78 73 78 75 77 81 79 80 52 51 46 53 51 52 51 53 55 49 52 52 53 60 53 47 41 38 113 143 144 156 166 172 150 160 170 165 162 158 130 139 129 121 117 85 91 98 104 109 115 117 117 120 122 119 110 107 104 114 102 100 96 101 103 118 125 124 125 97 105 125 126 125 121 113 125 109 141 170 186 190 194 197 199 202 200 199 207 164 59 65 75 77 76 80 76 78 77 85 76 87 49 45 54 53 49 52 49 52 48 54 53 52 51 53 55 38 49 38 84 142 145 156 162 168 150 157 172 160 162 162 140 130 126 120 119 113 114 107 95 93 92 96 92 99 92 87 88 85 82 92 76 74 69 86 94 120 148 152 169 165 166 174 152 140 107 122 108 125 121 171 180 182 185 196 198 197 197 201 201 92 78 69 69 80 75 81 74 81 72 84 81 80 52 44 53 51 50 53 48 51 45 56 50 52 51 55 59 45 42 39 63 121 153 154 158 164 160 157 167 164 161 164 152 139 124 121 122 139 143 144 140 139 128 124 124 130 125 111 109 100 93 99 110 125 141 148 165 175 181 183 184 189 182 176 154 159 121 123 117 123 130 165 182 173 165 192 195 197 193 212 158 73 73 71 76 76 78 72 76 75 81 74 80 79 54 50 53 51 51 51 51 50 51 52 52 53 51 55 53 57 41 29 65 110 126 153 153 152 160 165 165 160 151 156 157 140 119 115 132 146 145 148 143 150 148 152 146 145 151 150 152 150 147 149 149 153 161 163 162 161 160 162 172 176 181 157 151 161 135 120 140 131 142 153 174 175 169 181 200 192 194 195 119 72 70 75 76 74 77 79 77 73 77 80 73 75 51 52 48 51 53 52 52 52 50 51 52 53 56 54 55 59 49 34 54 121 101 145 157 147 157 154 155 150 142 158 156 139 116 126 138 148 143 152 151 146 141 140 143 136 143 143 144 140 136 134 130 119 129 132 135 146 148 167 163 165 166 154 168 158 155 128 120 146 146 159 169 154 176 187 184 188 198 142 83 84 71 70 80 69 81 80 75 77 76 80 71 76 50 48 54 49 51 50 51 51 48 53 51 51 56 52 54 57 58 51 21 125 89 121 156 151 156 138 149 152 144 158 148 131 122 122 138 150 150 156 149 152 145 144 137 133 125 122 123 111 109 102 97 92 102 109 125 134 161 166 156 163 156 150 159 152 152 124 117 139 152 150 166 141 166 185 178 183 169 98 76 82 69 65 78 77 78 76 79 73 79 79 73 77 53 50 54 54 49 51 56 47 51 52 49 52 53 53 54 54 59 60 31 106 124 87 134 150 151 142 140 143 142 149 146 125 121 130 135 148 136 155 151 148 142 139 142 136 125 120 106 88 87 91 90 83 112 116 150 115 159 151 152 163 144 159 158 138 156 131 125 138 152 173 154 147 158 181 176 161 123 73 76 74 73 75 74 76 76 77 69 85 72 74 79 73 53 47 56 51 49 52 53 50 52 53 50 54 52 57 50 59 56 59 38 90 138 88 109 145 140 140 130 139 140 139 141 123 126 131 130 146 142 149 153 149 142 133 143 124 124 118 117 80 107 101 95 105 113 124 132 122 132 151 141 151 145 162 148 162 144 141 133 151 146 158 173 139 161 171 168 132 94 84 72 79 73 77 76 76 74 78 76 78 73 78 78 75 56 47 51 54 48 49 54 52 48 54 52 59 48 59 52 54 58 55 50 66 126 110 84 123 136 139 136 140 140 138 136 127 128 113 110 139 148 149 147 149 139 139 136 121 116 113 118 87 101 101 98 94 120 113 119 118 122 139 136 144 141 145 138 154 155 124 135 126 154 142 167 145 152 171 142 120 77 75 73 77 72 73 80 73 77 76 78 75 78 76 79 78 50 49 49 52 51 51 54 53 49 55 53 54 54 58 54 57 56 60 52 59 119 116 111 83 131 128 139 124 123 130 125 119 110 102 108 133 145 141 141 145 139 137 138 128 118 110 112 105 96 90 122 73 133 111 113 122 127 133 140 148 146 151 129 151 162 139 136 130 146 153 141 143 145 131 124 132 66 70 71 79 75 75 78 74 80 77 73 79 73 76 80 79 48 50 52 49 53 47 55 51 48 50 58 50 50 59 56 55 60 58 58 44 121 131 134 97 93 129 138 112 121 124 115 117 112 107 110 133 135 134 136 150 143 141 136 131 130 107 105 117 90 102 110 102 119 117 123 139 139 137 147 157 154 145 144 118 170 120 137 130 143 146 125 140 117 105 153 116 60 75 76 77 75 77 76 76 78 78 77 73 74 74 80 78 51 53 47 50 54 48 54 48 51 54 54 54 50 54 58 54 57 54 62 39 112 124 117 113 79 104 123 104 118 118 111 110 109 113 112 124 124 126 136 150 142 149 140 137 130 117 101 121 103 113 108 112 133 129 135 145 144 149 153 155 161 139 146 130 139 128 136 127 138 120 116 123 101 103 181 98 56 72 78 77 74 78 72 82 72 81 73 78 74 74 76 81 54 49 48 52 55 52 52 51 54 51 60 52 53 51 58 58 53 55 63 38 103 117 101 114 120 67 92 85 103 104 100 110 108 120 109 107 115 126 134 141 152 152 153 148 146 134 112 136 125 113 126 125 140 145 136 161 146 150 162 152 155 155 125 147 132 139 149 127 148 120 99 104 104 136 181 90 58 68 78 77 80 75 74 74 78 73 77 76 79 75 77 75 52 49 51 49 53 49 53 52 54 52 56 55 50 57 56 58 56 61 59 39 101 126 119 119 114 94 72 71 90 94 86 100 111 115 114 113 118 121 130 141 150 151 161 158 144 139 143 135 144 118 132 145 134 148 150 164 155 141 156 152 141 151 138 134 139 141 136 142 124 121 94 94 118 131 181 85 71 70 74 80 80 77 71 81 74 73 79 73 77 77 71 80 50 51 51 53 50 43 57 46 54 53 50 54 55 55 52 57 53 60 66 34 87 125 126 117 116 113 77 83 80 93 75 83 101 102 112 109 111 115 136 135 134 150 159 153 141 141 143 132 133 121 134 147 141 154 161 152 164 154 157 146 135 146 142 135 153 140 120 111 113 102 99 97 139 155 170 66 72 71 78 73 81 81 75 69 80 74 84 76 78 73 77 76 51 52 49 51 51 50 54 52 51 51 57 50 59 53 56 58 62 54 62 40 74 128 117 109 109 110 94 72 81 85 82 83 95 97 116 102 110 124 127 122 135 144 145 146 135 133 139 122 126 138 147 140 135 151 148 147 154 151 157 148 139 123 138 130 141 148 105 107 118 111 95 125 155 160 165 72 61 69 79 75 76 80 82 70 76 76 78 76 74 76 77 71 47 55 49 55 48 53 52 51 55 53 55 54 54 60 55 57 60 54 60 46 62 134 117 124 126 127 106 72 74 77 79 85 86 86 99 104 115 116 113 114 128 134 144 140 136 123 136 129 126 136 137 137 127 145 140 137 139 136 144 153 158 135 117 125 129 137 106 81 120 104 109 123 140 142 146 66 63 66 75 75 72 71 75 74 77 77 85 70 76 80 77 79 53 52 46 51 53 54 49 54 55 53 53 55 57 57 60 57 56 61 58 47 63 129 124 134 133 121 120 102 85 86 77 79 90 73 86 109 112 108 105 110 125 129 132 125 124 121 132 124 119 119 117 125 132 131 128 126 123 122 123 144 140 123 133 113 141 119 94 102 111 117 115 136 140 161 144 60 67 64 74 77 74 76 78 70 72 72 78 74 78 74 79 75 47 52 47 52 51 54 49 54 50 55 56 58 56 59 59 62 58 57 59 51 55 136 122 130 116 110 131 118 76 82 86 80 89 75 66 89 106 105 100 109 121 118 122 115 111 115 125 119 125 103 108 114 121 128 114 120 109 116 126 129 126 121 138 134 118 112 101 106 108 114 124 133 158 168 138 60 65 70 73 74 79 71 78 71 67 76 73 70 79 78 76 71 54 51 52 51 54 51 50 56 53 58 59 56 58 57 55 53 59 51 61 49 52 127 124 133 112 122 125 130 89 76 78 91 84 78 75 66 99 96 94 97 112 108 122 123 114 111 115 113 131 102 101 103 108 115 118 119 109 119 110 124 115 122 136 123 113 105 100 112 116 124 129 134 150 171 138 66 67 65 73 76 70 78 74 80 69 74 72 74 71 75 78 76 54 50 54 52 54 53 52 58 57 54 57 54 58 53 57 55 61 60 55 54 45 129 133 129 122 115 112 104 109 97 82 88 95 87 79 77 86 79 81 103 96 111 123 118 112 110 108 102 109 102 103 91 108 94 116 108 105 111 102 106 119 108 126 117 104 102 110 119 116 122 126 131 138 177 129 63 66 68 72 71 73 74 73 77 68 70 72 75 74 77 76 78 52 50 53 50 57 47 59 54 56 56 54 56 56 58 55 58 60 61 57 51 48 129 135 131 126 117 116 100 113 106 91 89 93 94 84 76 82 67 72 84 110 99 113 103 93 110 107 87 87 104 96 78 92 99 101 110 100 98 98 98 108 91 110 102 100 105 111 115 116 124 140 151 152 181 136 56 61 71 66 73 70 75 72 76 67 71 74 72 75 69 76 83 49 55 54 52 57 50 60 57 57 56 55 57 57 56 62 55 59 58 58 51 44 132 130 124 124 111 108 119 115 113 106 88 83 90 83 74 80 68 74 72 103 96 109 93 82 106 102 77 76 98 84 70 77 98 77 103 99 83 91 86 104 90 101 93 106 107 121 116 118 128 163 159 150 173 139 54 61 71 70 66 73 72 73 74 69 71 73 70 82 71 71 77 50 54 54 59 53 52 54 59 54 59 54 55 57 57 59 55 56 58 61 51 42 135 134 134 115 112 110 117 126 95 113 92 77 77 78 79 85 74 80 73 88 81 102 83 72 93 99 74 67 83 79 65 62 83 61 85 89 92 88 81 93 89 83 93 105 105 117 123 133 126 150 168 153 183 130 52 59 75 71 70 68 71 75 71 66 68 71 71 79 73 72 71 51 50 53 54 53 56 57 60 54 53 58 56 53 58 57 55 58 62 60 55 40 136 132 128 127 122 116 104 117 113 99 99 96 77 80 72 73 77 78 74 84 69 88 73 76 88 85 78 63 71 69 66 72 79 67 68 80 85 80 78 85 88 80 84 96 112 115 127 145 140 156 170 148 188 140 47 61 77 70 67 67 71 72 64 73 65 66 77 73 77 71 72 56 51 54 53 58 52 61 54 58 54 57 57 56 54 60 55 58 61 58 49 52 136 142 129 126 130 125 118 114 117 119 95 98 82 86 86 72 77 73 71 71 69 83 67 71 86 73 69 76 69 66 70 73 84 68 66 74 80 69 87 88 83 80 82 100 120 133 129 152 164 167 146 135 197 156 40 62 71 68 70 73 69 75 66 72 68 70 73 71 78 71 75 55 54 48 57 56 54 58 57 54 57 58 60 61 54 65 61 60 55 61 43 59 140 143 140 124 123 132 126 115 111 114 112 107 95 88 90 88 74 71 80 70 71 65 62 61 75 63 57 74 63 60 70 72 61 66 62 68 57 79 85 88 83 84 84 120 130 127 139 152 171 156 158 162 185 190 46 63 69 66 70 70 72 68 74 72 70 69 71 70 75 71 74 52 56 52 53 55 55 56 56 54 59 56 59 55 57 59 60 54 57 62 31 81 144 138 136 133 128 123 121 130 116 113 107 111 111 94 99 101 86 85 90 87 73 72 68 65 63 57 57 61 56 53 60 64 53 58 66 73 58 80 83 72 88 103 96 113 126 134 153 157 150 160 162 168 177 214 68 57 65 72 67 69 70 71 74 68 71 70 73 71 69 73 72 52 55 55 55 56 58 55 56 57 58 53 61 56 56 59 59 59 56 61 34 99 143 146 135 125 124 125 121 116 119 117 100 94 108 107 109 93 94 96 99 81 73 83 78 75 72 63 63 69 57 47 51 59 56 55 64 76 77 80 98 78 92 111 119 124 124 127 153 158 156 154 159 168 173 218 126 39 65 71 68 71 71 68 69 74 77 68 70 72 73 67 71 58 54 59 58 53 57 55 58 57 60 55 64 53 57 59 56 59 58 62 31 124 137 142 142 127 121 126 125 127 126 114 112 100 98 101 111 107 98 95 97 99 80 89 92 90 80 73 75 67 62 43 48 58 59 61 65 66 81 99 103 83 100 114 132 135 135 134 152 172 145 152 148 160 186 194 196 29 66 67 73 68 68 63 71 64 75 75 69 73 73 67 69 