P2
92
112
255
67 64 67 67 70 66 65 62 71 68 75 76 65 73 69 76 67 64 78 67 62 69 67 70 68 65 70 65 79 77 74 78 73 68 71 76 70 75 72 82 95 96 112 114 103 80 98 130 125 115 126 120 112 112 116 106 109 120 109 95 93 86 85 94 95 78 77 73 74 72 71 72 69 71 70 66 76 72 69 74 70 67 71 67 72 72 70 67 70 69 69 77 70 66 69 64 67 63 72 65 65 64 64 81 74 76 88 93 91 84 77 87 78 78 76 82 86 79 73 69 93 79 70 71 75 70 71 72 68 78 81 96 105 97 106 95 97 104 98 106 100 103 106 111 105 108 109 112 97 102 98 90 93 85 78 89 88 80 81 82 75 68 70 74 69 75 70 67 76 73 73 69 70 69 70 70 72 73 71 67 76 67 73 71 67 66 62 67 66 67 67 69 66 63 74 87 78 82 78 91 85 101 100 96 78 83 93 94 88 82 86 81 90 76 75 68 75 76 79 81 90 96 90 101 105 101 101 74 101 119 117 120 113 119 110 106 108 101 109 103 95 99 94 80 80 86 78 99 86 92 82 79 77 75 72 75 72 69 70 73 70 73 72 71 70 73 71 71 74 74 72 71 71 71 71 71 70 64 59 72 66 63 69 65 72 75 79 68 67 74 73 77 70 77 77 91 85 92 88 88 91 88 92 90 79 75 79 86 87 75 88 101 97 105 92 96 96 88 72 68 117 109 101 107 106 118 123 123 133 121 124 117 104 98 102 98 90 97 102 104 87 98 102 90 86 75 79 70 73 73 74 73 74 71 76 74 75 72 73 69 73 69 71 72 69 76 69 73 68 62 61 68 67 65 67 66 72 73 68 70 65 73 83 82 69 68 80 83 88 99 96 87 89 81 83 86 89 83 88 84 97 91 86 99 99 81 88 81 81 84 66 65 100 104 96 106 114 105 106 120 120 116 113 115 111 113 112 119 112 102 105 92 95 100 99 101 95 85 90 81 86 81 83 84 72 72 76 75 73 74 76 74 74 68 73 73 71 74 71 72 64 66 66 63 67 65 66 65 70 71 67 78 65 66 71 71 71 81 89 92 87 79 92 82 77 70 66 91 71 74 77 86 91 86 85 105 100 88 91 97 89 68 56 70 108 87 100 98 95 103 104 111 108 103 110 105 111 108 106 102 113 111 112 110 85 109 119 119 100 90 94 84 82 88 77 84 88 70 77 71 76 72 74 75 74 76 73 71 70 73 70 74 69 67 69 69 66 66 65 78 71 66 70 62 70 77 73 75 68 89 94 88 89 71 78 74 84 80 71 74 85 89 73 86 80 99 99 91 89 83 83 74 80 70 50 75 87 93 80 72 95 94 102 96 99 102 98 96 99 100 95 97 98 99 101 108 93 97 108 118 91 94 85 90 76 73 77 78 92 73 72 75 75 75 70 78 71 72 74 76 76 75 69 78 69 67 68 65 69 63 70 72 67 68 69 69 71 77 88 84 90 94 92 91 80 78 70 74 84 84 78 85 80 88 83 96 105 104 92 79 76 75 75 71 77 69 53 80 68 81 67 72 85 90 106 99 106 109 103 99 98 104 100 100 115 91 106 103 97 96 96 95 108 87 96 96 87 81 76 68 89 67 71 76 71 78 72 76 69 74 74 75 76 74 73 75 68 64 68 66 72 65 75 75 70 69 72 68 68 71 79 88 90 89 93 90 93 95 88 96 97 87 97 92 84 89 98 108 117 99 77 77 74 68 69 72 69 67 62 76 76 57 79 73 78 87 107 97 101 112 113 108 98 110 103 94 107 104 96 101 100 80 87 98 107 96 92 110 84 80 93 75 75 69 75 75 75 75 74 74 71 73 76 75 75 74 74 72 68 64 66 76 74 73 77 82 73 67 75 69 75 73 72 88 80 84 96 69 83 92 86 82 89 86 76 81 68 94 116 119 108 82 71 80 73 82 83 90 84 90 72 75 64 53 83 65 94 105 106 101 99 113 120 106 111 96 103 95 98 95 85 80 85 94 90 85 85 86 97 110 111 85 95 86 78 74 76 72 77 73 78 74 76 77 77 70 76 72 74 73 66 70 73 72 70 67 74 70 69 65 69 70 70 67 68 78 79 94 97 95 89 92 83 94 101 102 94 92 104 117 124 106 87 77 64 92 84 103 122 109 108 111 95 95 96 95 94 101 115 121 111 104 113 103 105 104 107 95 95 92 77 79 90 83 83 93 80 83 83 88 93 92 111 109 104 81 88 86 81 69 79 76 84 81 77 80 76 75 73 75 73 72 64 73 76 74 65 66 69 68 68 67 67 65 72 67 78 80 86 81 81 70 80 90 89 94 91 108 116 103 107 96 82 74 79 88 82 75 97 97 99 94 86 93 80 74 84 112 122 117 123 124 117 106 105 101 105 105 105 107 95 96 82 73 75 76 82 84 87 82 83 77 91 101 96 101 111 123 96 88 81 77 78 82 79 81 73 78 75 74 72 73 76 75 65 71 77 80 72 73 63 72 69 72 69 69 69 73 85 72 74 72 69 83 82 83 95 103 97 105 113 97 94 97 86 84 76 84 78 82 93 84 83 86 77 78 73 65 68 79 105 108 122 121 136 120 121 128 113 116 109 104 101 93 94 92 83 73 85 82 85 93 71 93 95 119 131 122 113 114 122 96 95 82 77 76 73 75 79 77 73 79 73 77 78 72 60 69 76 88 72 70 67 66 71 71 65 80 87 82 76 77 67 79 81 76 85 89 85 103 112 101 109 95 85 90 73 77 78 78 75 96 88 84 89 89 71 70 70 69 69 69 79 97 102 112 110 112 105 111 110 96 100 95 94 86 92 86 87 86 92 93 83 88 87 102 126 116 111 103 110 102 104 110 92 85 77 73 86 76 79 80 75 77 74 73 78 72 65 63 75 97 75 77 74 67 76 70 80 81 80 76 74 73 66 78 79 79 79 91 85 93 97 103 100 95 85 83 84 57 72 83 64 85 75 79 75 73 64 68 56 53 58 65 62 77 86 98 99 107 109 101 98 102 97 87 114 86 83 80 86 86 89 92 76 75 99 95 89 101 95 96 104 108 102 110 108 99 84 74 90 81 80 77 80 74 77 71 75 72 65 67 62 94 74 67 68 67 81 71 73 69 73 78 70 77 75 74 77 71 72 77 85 88 89 92 88 71 84 74 86 67 59 73 61 96 87 78 75 65 65 57 44 52 48 51 51 50 67 85 86 96 101 98 104 90 89 83 109 101 79 80 92 75 90 103 97 89 97 75 87 78 71 127 108 77 110 91 107 123 101 77 87 89 77 73 84 74 78 73 75 77 64 65 65 76 67 66 65 66 88 74 70 68 73 73 71 84 89 95 82 67 79 75 84 101 110 99 92 82 74 81 92 80 75 63 65 91 88 75 77 61 73 54 42 51 53 47 52 49 53 66 66 89 93 93 99 109 96 95 101 99 116 109 105 100 93 88 79 68 79 77 59 91 125 146 84 75 116 105 97 116 110 95 89 100 78 80 75 72 77 80 72 76 68 66 57 71 72 65 64 68 75 71 69 78 67 77 71 79 78 92 76 80 87 76 85 108 107 99 99 97 97 86 100 81 79 74 74 81 90 78 68 63 69 55 48 54 50 48 50 52 50 69 64 70 78 96 83 89 97 88 88 97 94 129 95 99 96 87 78 98 89 113 127 141 128 107 81 92 98 120 98 100 120 108 108 88 99 100 85 72 78 78 75 77 68 72 55 61 75 66 69 73 66 72 70 77 65 83 80 80 81 91 76 94 101 84 88 89 93 92 99 104 92 103 111 93 80 83 76 62 94 80 83 63 77 61 62 58 67 51 51 59 56 69 60 72 63 68 80 69 98 83 71 91 90 114 108 94 110 98 87 95 102 119 127 125 99 98 80 89 92 103 103 97 113 123 110 99 91 104 103 90 76 78 81 75 67 70 69 54 67 72 66 68 70 68 72 76 72 74 85 84 86 97 76 97 93 79 62 84 89 85 92 103 99 111 105 104 91 83 75 66 87 90 87 69 68 66 63 66 64 57 51 61 60 64 60 64 68 72 73 60 71 91 79 85 89 90 103 104 117 108 105 108 113 116 118 118 102 96 95 100 101 100 111 119 112 111 129 101 94 110 145 124 91 88 87 81 65 66 73 60 61 70 72 73 73 75 83 77 81 79 90 84 82 100 89 71 82 71 70 65 86 87 91 98 90 106 114 97 82 76 76 84 90 90 80 70 66 70 63 66 61 57 55 54 66 61 59 66 76 75 76 74 68 67 56 75 75 73 81 86 89 96 91 101 106 105 106 107 91 94 95 104 107 104 112 117 116 102 117 108 99 113 151 131 98 112 89 75 61 66 75 67 57 66 73 71 68 71 86 88 88 86 92 96 96 94 94 71 78 70 79 71 71 84 90 101 101 118 113 89 70 60 78 92 90 84 72 70 72 78 71 70 77 71 68 62 66 60 63 77 82 76 76 80 90 65 62 63 77 72 64 68 73 73 78 81 82 72 83 98 102 95 88 93 92 99 112 104 118 111 115 110 113 123 120 133 128 120 106 89 67 68 71 70 70 64 65 72 66 73 80 85 96 90 92 92 88 81 92 80 85 83 68 78 90 92 105 108 99 85 85 83 78 82 94 100 91 73 76 82 81 83 81 80 81 95 85 69 74 68 74 83 84 85 82 91 99 86 78 66 73 73 69 68 73 68 76 69 81 73 68 66 81 80 77 80 92 93 99 104 107 109 122 116 113 105 104 120 119 115 111 111 68 65 74 65 76 79 69 70 75 87 81 80 95 88 102 105 108 103 90 96 83 93 93 86 88 93 102 106 97 83 86 88 92 94 94 96 87 92 100 116 97 98 98 106 107 105 99 88 92 95 93 103 95 96 104 114 119 116 98 91 74 82 81 79 68 74 74 69 69 71 76 69 73 73 78 90 98 92 100 98 109 106 106 117 116 109 101 111 109 128 106 114 72 67 69 78 73 74 81 78 72 77 88 85 84 103 109 112 109 102 89 91 81 83 88 86 90 93 102 105 91 83 80 78 96 87 91 105 118 115 133 126 121 131 128 133 135 128 120 126 127 126 121 117 110 107 115 125 128 137 121 114 102 93 104 104 82 84 70 70 68 75 73 76 77 84 88 103 103 102 100 104 98 90 85 95 100 111 122 104 114 113 117 103 77 79 74 81 83 79 82 84 84 92 95 95 96 88 103 107 99 95 88 81 73 72 81 86 82 89 96 99 89 89 97 92 102 100 104 133 145 147 150 140 149 155 152 163 157 152 148 156 165 159 152 147 144 136 130 134 134 147 132 130 128 120 116 117 117 105 82 74 66 61 63 68 65 73 83 90 84 89 86 87 85 79 101 81 102 106 111 105 119 115 116 112 74 78 86 96 105 98 107 99 102 96 101 89 97 87 93 101 91 86 88 85 79 67 69 90 94 102 112 111 108 103 104 108 128 123 131 145 151 161 160 160 168 168 168 176 169 167 167 172 171 178 176 176 173 166 161 155 153 159 148 149 153 147 149 134 127 143 114 99 72 64 60 63 68 57 61 64 67 68 83 77 85 79 101 82 93 93 101 112 115 119 114 99 67 69 79 92 97 92 104 97 98 96 90 78 83 76 71 72 76 68 68 66 73 80 74 86 117 128 133 125 127 124 130 140 155 145 158 160 166 170 173 172 174 181 177 175 173 179 179 181 178 186 189 191 186 190 184 182 182 186 182 181 181 172 177 159 148 161 154 133 112 78 60 56 57 72 63 58 60 67 68 78 82 79 74 83 93 93 101 106 109 117 105 87 74 63 76 74 96 103 106 90 85 73 77 79 66 72 72 67 75 71 53 53 51 72 95 122 139 143 142 142 140 147 150 164 164 171 183 183 184 182 182 184 183 180 177 172 177 181 179 182 185 185 191 194 193 193 193 193 193 194 193 196 192 197 190 178 184 184 176 171 153 115 64 49 47 47 63 68 71 70 71 77 79 79 82 91 95 90 119 119 119 115 99 92 71 67 78 84 89 92 92 88 78 75 70 71 78 78 75 59 57 71 36 45 74 107 136 150 157 159 162 162 164 173 177 184 190 180 188 190 185 185 185 185 181 182 183 178 183 184 178 186 191 192 195 198 197 198 194 199 198 196 195 200 201 206 196 195 197 197 201 189 177 144 96 54 45 53 53 50 48 61 55 72 79 79 77 87 92 91 108 131 124 111 106 86 74 81 75 84 89 90 95 88 79 79 73 64 69 77 66 56 39 62 57 49 90 138 159 160 162 165 165 168 172 178 187 182 189 187 189 189 188 186 191 186 184 184 184 179 184 181 182 186 191 191 196 199 199 199 200 196 199 197 199 196 200 203 207 202 197 203 207 207 197 176 139 95 55 35 46 50 56 69 64 67 67 69 64 68 75 85 86 112 116 112 111 85 83 79 82 94 87 87 90 82 74 74 70 62 58 59 48 55 40 55 55 54 107 154 165 164 161 166 169 172 184 186 183 190 187 196 195 189 194 189 190 190 183 189 183 178 184 179 184 185 188 192 196 197 197 198 199 198 200 200 201 202 202 202 208 206 199 205 209 209 207 208 185 149 115 34 35 33 44 61 61 52 52 59 49 45 63 68 65 89 109 94 119 92 67 76 69 71 76 79 77 71 72 63 58 60 52 46 54 48 43 54 47 61 134 164 166 164 163 165 176 179 188 191 192 193 192 192 200 195 195 194 192 189 191 188 185 180 184 183 188 185 190 191 193 200 198 201 200 201 200 200 203 202 206 205 208 206 205 205 207 209 209 206 209 205 179 109 48 18 33 41 44 47 44 53 54 51 62 49 77 89 110 101 99 110 67 62 52 71 72 77 78 68 69 56 52 52 54 46 57 39 59 56 62 63 154 173 169 165 167 173 180 186 193 191 195 196 197 193 195 198 196 196 193 191 189 185 182 182 184 183 187 183 189 189 195 200 194 200 203 200 200 202 202 203 204 203 208 205 207 204 206 210 211 207 209 212 218 193 113 17 29 32 35 44 38 40 44 51 63 38 78 81 119 107 83 100 75 61 66 67 79 79 83 73 61 53 56 51 56 58 52 42 56 64 53 85 163 172 169 165 175 184 186 191 192 191 194 194 198 196 196 200 197 196 199 196 190 189 185 185 188 181 185 185 188 186 191 194 194 193 202 202 201 204 203 202 203 203 203 203 206 208 205 211 207 208 213 210 214 222 189 59 27 34 40 36 38 36 42 41 57 41 86 84 78 95 104 105 71 54 63 71 76 80 85 64 50 54 58 55 54 60 49 46 61 65 60 101 168 170 167 169 176 188 187 188 193 195 195 194 199 198 199 200 198 200 200 197 197 193 186 191 186 187 185 187 189 186 189 192 193 197 198 204 198 202 203 202 204 201 204 204 204 207 205 207 208 205 212 211 211 217 226 134 37 30 40 42 43 43 42 57 63 53 72 76 80 95 114 92 68 61 59 69 60 74 74 64 58 52 55 58 63 59 46 48 67 63 59 128 168 169 168 173 184 191 185 187 191 198 194 197 198 199 197 202 199 202 201 201 200 197 192 190 189 186 188 189 187 187 189 185 193 196 198 203 203 201 204 204 203 205 204 204 206 208 204 208 208 207 212 211 214 212 225 203 69 37 33 38 43 44 46 46 55 54 64 69 78 107 114 100 71 61 57 56 44 63 63 61 57 50 48 59 59 57 38 62 53 69 67 146 169 168 170 179 185 188 187 187 192 194 193 195 200 198 199 201 201 203 204 203 201 199 196 193 191 189 191 195 188 191 191 187 191 199 199 202 201 204 205 204 207 206 204 204 204 207 207 207 207 208 212 210 211 215 216 231 136 55 49 32 40 38 38 47 47 52 50 69 78 88 120 133 65 58 51 42 47 61 52 55 61 50 56 50 60 45 43 71 51 79 87 161 168 170 174 183 185 189 188 189 191 193 193 198 197 201 201 202 203 202 206 203 203 203 200 196 193 194 195 193 196 193 191 195 193 197 201 203 201 203 204 205 205 207 204 204 205 207 206 208 207 206 211 208 214 214 214 227 209 82 62 59 42 45 48 42 52 48 55 73 91 92 106 136 68 49 41 45 66 71 67 58 56 52 51 57 57 44 56 72 59 91 102 171 166 169 176 183 186 188 190 188 191 192 193 194 197 199 200 202 204 202 205 203 204 204 202 198 196 197 196 196 199 196 195 194 197 199 204 200 200 201 204 204 200 206 203 206 204 199 210 210 206 204 209 211 215 215 215 212 240 154 68 107 44 62 54 43 53 49 64 94 73 91 115 110 66 47 45 58 75 75 63 56 46 45 55 50 59 37 63 68 84 88 129 167 167 170 174 183 185 184 186 187 191 190 191 192 192 197 199 200 202 205 204 203 202 204 201 198 196 195 198 198 201 200 198 198 200 196 203 200 198 201 200 203 200 203 205 203 207 197 202 210 207 210 202 210 212 213 217 216 224 211 84 125 63 50 79 72 55 54 60 57 68 84 96 90 61 55 56 62 65 57 54 49 52 49 52 56 48 47 68 71 103 90 149 167 165 169 171 177 184 185 185 188 189 190 191 189 195 191 197 196 199 200 203 202 202 202 199 200 196 196 197 200 201 199 198 197 198 200 200 203 199 199 197 193 202 180 170 180 186 132 187 219 219 221 215 212 214 206 213 217 214 230 132 108 94 41 64 96 62 60 56 50 68 78 86 88 61 54 50 38 40 51 60 52 57 49 47 60 53 58 66 82 98 107 165 167 166 170 167 178 181 186 183 177 193 201 194 194 189 187 192 199 195 198 201 195 194 193 194 189 188 183 178 177 176 168 165 163 159 157 156 154 154 142 135 129 154 135 129 133 150 142 144 222 221 219 221 216 209 188 153 188 215 226 201 83 111 63 46 82 82 65 71 56 70 79 75 92 43 35 39 41 52 63 67 63 51 54 45 54 58 69 67 87 89 127 172 169 168 172 168 163 154 141 133 130 132 165 147 153 131 130 124 136 128 115 111 115 115 109 108 125 129 134 130 139 139 140 134 140 133 92 86 104 107 109 97 101 107 113 117 118 138 135 152 210 223 220 219 220 205 189 164 139 117 191 230 103 114 70 42 56 71 75 73 79 69 63 77 102 33 36 42 38 60 71 64 60 50 53 43 48 68 78 68 107 89 150 171 156 159 131 116 119 119 129 137 145 143 132 133 127 103 100 105 104 126 124 54 187 184 104 88 175 106 129 139 144 149 142 132 134 122 106 94 90 89 86 75 83 78 78 71 84 95 86 177 224 213 197 190 181 174 207 215 213 198 78 184 147 124 61 77 36 46 53 66 75 75 79 86 99 40 35 45 45 55 65 65 64 50 46 38 45 74 70 64 110 110 167 165 99 116 139 164 149 130 128 129 129 120 103 79 71 68 71 67 77 107 107 63 144 231 224 180 200 200 106 151 188 173 164 156 117 136 124 111 93 90 91 90 85 78 86 78 91 92 95 243 223 220 224 190 198 172 174 212 216 223 201 96 188 90 86 52 69 45 35 44 47 57 60 72 108 40 33 32 37 51 61 67 42 49 52 17 51 66 50 74 98 136 166 116 123 161 177 153 119 110 123 133 124 112 100 86 80 79 77 77 63 141 196 188 103 157 226 225 201 239 153 181 196 200 186 178 128 181 155 142 120 113 112 109 94 92 103 107 114 122 124 238 222 221 219 213 202 202 166 181 214 230 198 153 180 114 67 78 62 60 56 49 52 62 50 82 74 49 42 41 44 55 63 46 34 57 48 13 57 56 34 73 102 163 121 122 168 186 167 123 125 131 142 145 142 115 119 122 125 118 116 125 52 208 229 219 216 150 129 226 186 233 127 145 169 181 148 204 131 215 197 172 140 121 111 110 96 108 122 135 140 161 147 198 226 222 220 206 205 207 201 180 196 221 215 98 181 172 24 56 91 66 55 54 60 63 52 83 98 41 47 43 41 42 41 30 47 62 32 14 67 56 30 50 115 193 110 148 196 179 138 110 130 157 164 155 132 132 148 150 145 147 141 141 80 187 228 222 226 225 64 202 173 192 166 137 170 169 152 118 148 215 216 167 125 111 104 96 96 108 122 135 145 162 169 157 196 210 213 210 206 198 204 200 195 208 230 94 148 210 144 151 65 70 63 60 55 63 65 65 103 34 35 39 36 34 37 44 58 49 21 18 72 67 28 25 156 232 122 175 209 202 143 124 145 157 167 154 131 158 164 155 149 144 144 135 121 115 208 222 226 218 73 168 188 135 149 194 205 205 200 161 81 199 213 146 107 101 98 93 88 91 102 122 125 139 152 155 163 173 204 221 202 192 201 209 205 203 232 147 122 176 227 222 161 12 52 61 49 47 63 78 103 32 33 39 33 32 44 41 47 35 18 36 67 68 35 53 201 233 128 212 222 214 221 159 142 154 158 138 135 156 155 145 142 136 127 124 110 93 87 149 166 150 88 153 175 125 184 206 205 206 206 227 80 153 211 121 99 101 99 95 95 99 101 118 127 121 147 143 176 182 200 196 207 192 195 204 213 207 221 213 94 130 166 205 172 32 26 69 59 42 62 81 84 30 41 35 35 33 39 39 32 27 17 43 66 32 135 140 174 186 131 236 219 219 231 206 137 147 153 123 124 145 158 146 143 143 132 119 119 113 108 115 112 107 110 134 177 145 197 201 203 206 200 223 175 118 189 140 116 102 94 90 89 88 84 75 57 93 85 72 108 128 186 206 174 198 189 201 212 212 213 228 113 148 162 153 107 62 77 35 57 57 54 67 62 30 38 40 30 36 34 32 30 29 19 36 54 31 152 198 54 149 147 226 222 220 229 192 140 140 132 117 128 146 124 108 63 113 87 69 98 99 106 105 104 80 132 127 118 169 194 194 198 209 199 212 230 114 201 145 155 119 88 79 73 88 83 84 74 52 126 16 101 97 88 145 157 176 179 185 204 207 210 232 164 136 183 127 102 24 66 52 40 44 56 68 74 34 36 37 26 28 37 29 31 29 22 40 27 23 118 209 51 135 169 183 215 214 215 152 135 129 112 106 107 117 50 123 38 64 96 32 123 106 87 86 81 99 166 127 90 182 183 186 196 212 197 207 229 147 152 118 147 182 82 72 78 101 107 64 83 30 59 44 89 139 96 74 102 139 151 157 170 175 171 203 188 120 191 114 96 39 48 57 34 38 53 76 69 30 33 33 28 28 32 32 28 28 22 42 25 33 113 169 110 125 172 171 148 149 136 127 113 100 94 68 83 138 61 65 54 27 62 51 147 137 106 127 71 145 147 103 120 187 176 180 193 217 201 204 214 220 104 168 131 175 107 97 99 103 117 84 81 62 62 60 115 139 137 116 118 137 153 169 190 202 194 204 190 109 183 94 71 65 54 75 54 50 49 63 84 29 36 34 25 38 34 30 29 27 22 37 29 31 113 147 108 112 139 134 107 97 93 97 86 74 66 52 80 144 120 63 73 53 76 93 140 140 120 124 98 118 118 83 175 184 170 183 195 214 204 205 209 217 213 62 151 168 126 109 107 106 106 106 108 114 114 118 138 152 191 195 177 192 187 191 202 210 208 210 236 96 216 122 87 53 75 67 77 69 64 57 66 23 39 34 37 44 33 33 27 23 29 31 31 20 102 136 113 108 164 160 136 126 121 115 105 102 90 90 108 144 160 139 120 113 116 127 122 127 124 115 104 128 87 128 206 175 176 192 199 209 208 202 210 208 227 156 70 169 166 116 115 113 102 102 106 116 128 139 144 169 188 208 207 206 205 197 198 207 210 212 222 123 235 181 92 75 43 80 71 72 82 67 53 24 22 28 42 36 36 29 26 29 36 29 32 74 137 168 180 80 180 191 181 174 167 152 148 141 142 120 122 143 163 144 131 122 117 115 116 123 124 113 122 112 82 188 200 169 181 194 200 208 206 204 208 209 209 227 142 70 189 159 132 128 131 127 130 129 132 142 149 164 194 205 211 208 208 203 198 205 209 219 198 163 231 191 89 85 62 60 87 111 71 66 62 21 27 20 40 33 37 23 25 30 39 24 35 87 153 169 205 71 169 192 186 184 177 159 163 159 163 137 130 139 145 138 133 128 129 134 132 136 133 129 117 84 151 207 186 177 188 195 197 205 205 203 207 210 207 216 214 121 83 170 196 159 146 148 156 167 171 174 177 181 196 205 208 207 204 206 202 208 211 228 149 206 223 219 111 92 79 79 118 150 133 42 70 30 28 16 35 34 34 36 32 36 45 33 29 88 157 167 207 98 145 194 184 183 177 167 171 172 171 149 140 153 155 158 155 150 150 150 144 151 159 139 83 114 201 198 174 184 193 195 197 199 205 205 204 211 211 208 227 181 103 91 184 205 189 176 166 166 172 179 186 190 194 198 205 204 207 200 210 211 218 216 144 224 215 229 123 84 93 89 112 115 161 49 80 43 29 30 23 35 44 40 37 42 49 32 26 91 158 163 184 161 102 192 186 182 180 177 174 182 176 155 142 158 167 166 162 160 159 161 164 175 171 106 83 164 203 181 170 184 192 197 192 198 204 205 201 213 213 209 218 210 129 137 94 166 203 196 198 191 183 184 188 189 192 198 203 206 212 209 212 214 223 154 207 219 216 244 103 64 110 130 102 72 128 85 70 54 45 24 20 79 110 82 63 53 35 31 37 83 155 167 163 202 88 173 194 183 181 186 181 183 179 158 154 167 169 165 167 168 167 176 190 173 125 105 131 176 197 168 165 188 190 192 198 198 203 202 201 212 215 206 213 221 137 142 147 98 131 194 197 200 200 191 197 198 200 201 205 208 214 210 215 226 165 186 223 216 211 239 125 45 118 147 80 62 113 82 61 50 59 16 68 142 127 125 111 94 67 37 32 72 153 163 165 192 144 148 204 185 178 188 186 186 172 168 180 183 183 183 186 187 189 189 169 131 130 125 156 171 185 169 165 187 187 194 194 195 198 202 202 207 216 211 205 222 176 134 153 131 124 111 149 193 202 199 199 201 204 207 211 213 213 215 213 167 192 222 217 213 214 239 132 74 117 187 75 61 118 74 61 54 57 18 110 126 83 106 129 116 100 54 23 58 150 160 164 173 185 132 226 194 181 188 189 189 157 183 194 193 191 193 194 199 189 154 124 137 133 157 160 169 185 176 171 177 187 197 192 182 183 203 202 209 220 210 205 209 222 139 147 144 126 115 105 113 141 169 198 202 203 214 216 213 215 211 175 197 217 218 215 213 208 228 130 73 122 198 82 53 145 70 83 56 51 18 120 103 57 65 118 133 114 78 23 56 134 159 156 165 172 171 181 144 164 194 195 190 154 185 198 200 200 198 186 158 129 123 134 142 155 176 156 177 187 182 169 168 176 203 190 169 167 189 190 206 221 206 205 211 225 196 119 150 149 135 114 110 108 100 127 168 175 207 220 213 210 206 207 211 214 215 216 212 216 227 116 96 103 183 99 53 174 72 95 52 61 17 117 119 31 89 114 121 104 69 33 51 118 151 154 160 172 185 189 168 125 142 178 196 177 185 190 183 169 146 121 113 125 141 154 170 178 163 157 191 184 173 155 155 148 176 180 157 153 149 165 188 202 191 190 205 215 217 114 134 148 149 146 141 136 133 127 161 176 189 208 210 212 212 210 212 212 215 212 213 218 212 87 112 149 177 146 84 155 66 92 58 54 31 90 147 37 90 133 149 141 98 34 44 86 144 152 155 168 178 186 188 183 169 151 146 140 130 126 121 112 119 126 151 168 173 177 180 174 150 158 179 176 156 147 144 141 148 165 147 140 137 140 184 199 177 161 174 200 213 122 126 140 143 144 146 152 159 177 181 196 198 205 210 214 213 212 214 212 212 215 209 225 186 88 93 141 194 215 112 129 77 86 53 56 43 30 171 74 87 129 165 155 109 85 44 53 135 146 150 161 173 178 181 180 187 191 193 191 180 158 155 160 174 180 184 184 179 173 170 162 141 146 164 150 131 102 99 126 143 147 134 125 126 122 182 185 106 56 97 171 181 128 131 140 135 138 141 143 152 180 187 191 204 200 212 216 213 215 212 204 209 213 213 226 167 88 102 104 186 224 153 73 67 80 51 52 59 13 121 140 59 143 161 151 120 86 57 36 112 151 146 158 166 177 175 179 181 183 187 187 188 185 187 192 191 187 183 180 171 169 160 153 141 133 145 131 80 51 62 93 130 139 125 113 110 123 172 157 85 74 97 147 166 147 132 136 132 132 138 141 149 169 179 186 194 198 208 211 212 211 216 197 205 213 209 225 144 91 118 112 174 228 164 39 61 75 53 51 55 42 41 159 79 142 165 159 125 87 52 51 94 143 148 153 165 168 173 174 174 178 181 188 188 188 185 192 188 182 180 175 162 161 155 144 146 142 141 129 88 91 128 130 132 137 128 100 96 138 169 156 135 140 155 173 189 175 135 139 135 132 134 139 142 160 173 185 188 194 198 211 207 209 210 204 208 209 209 225 118 95 123 117 164 228 217 16 61 91 53 50 48 67 21 105 128 144 170 146 130 103 65 109 76 133 142 150 165 168 169 172 169 176 181 185 189 186 186 190 184 178 173 168 161 160 154 147 152 156 150 142 127 117 126 126 127 142 137 106 92 162 181 176 181 178 188 200 199 189 150 143 140 137 135 134 136 148 163 179 185 190 197 204 205 205 209 206 207 206 211 217 128 111 117 116 161 222 208 18 77 83 49 49 48 57 40 41 144 156 170 126 126 111 73 153 90 114 136 148 165 170 164 169 170 175 184 180 185 184 186 187 180 173 170 168 164 171 155 155 154 159 153 147 143 141 141 128 129 144 135 111 96 158 180 169 172 178 191 198 201 192 174 152 146 143 138 135 130 140 149 167 177 187 194 200 202 202 206 203 204 204 212 212 123 154 165 131 190 231 176 28 72 81 48 54 51 48 59 23 125 164 160 116 112 114 90 147 131 88 133 146 155 171 165 163 174 175 177 176 182 184 183 184 178 170 169 169 172 172 161 157 162 159 151 147 137 125 137 125 112 136 122 104 101 146 154 171 146 156 192 194 199 192 186 175 157 149 144 147 143 136 147 159 167 180 192 195 195 200 205 201 205 203 210 183 150 191 217 212 198 236 133 49 76 80 53 52 49 51 51 33 66 158 161 111 104 116 117 145 167 89 124 151 155 163 162 165 167 171 174 174 181 183 181 179 172 169 172 177 177 174 177 166 168 165 153 153 130 119 117 121 113 118 110 110 105 139 162 165 151 148 177 189 190 193 185 178 171 168 159 153 161 154 138 142 176 179 186 198 196 201 200 197 207 203 205 168 178 217 219 214 200 225 84 69 80 78 54 50 48 50 52 46 31 147 162 137 92 119 138 117 162 101 123 148 148 163 161 165 166 163 170 170 180 182 177 177 170 178 175 179 175 175 178 174 162 160 156 144 123 119 110 113 119 120 112 103 107 128 146 168 154 153 175 170 187 188 179 165 165 160 164 170 156 173 167 145 174 186 189 195 196 202 197 196 206 201 210 166 170 215 218 209 218 204 52 71 78 80 50 50 47 51 52 52 11 120 154 167 145 147 156 140 147 114 120 146 152 156 157 167 165 162 168 170 177 179 177 176 176 180 176 173 158 162 161 159 157 149 144 134 110 124 119 109 124 123 115 100 109 131 142 157 131 154 162 154 159 175 165 149 147 159 169 187 175 154 192 171 166 185 193 195 197 201 198 195 204 198 214 160 168 217 214 212 233 125 54 79 80 82 48 49 52 46 50 55 32 58 148 147 152 161 163 168 173 125 99 138 142 155 155 161 164 156 168 169 175 175 179 176 179 169 160 159 139 146 146 144 154 140 129 136 120 120 131 121 131 133 117 109 124 127 146 161 130 152 163 157 143 161 156 139 130 134 150 168 205 147 179 201 176 181 198 199 194 198 205 195 201 198 215 135 187 217 210 222 216 65 74 73 81 78 52 46 50 49 50 51 56 27 98 164 141 162 169 162 164 144 87 126 135 144 151 155 163 154 157 169 173 176 177 174 174 157 150 136 138 136 136 135 144 132 129 135 130 128 133 144 140 145 127 131 146 147 150 164 144 160 172 163 152 156 152 133 131 119 132 157 187 192 147 209 194 186 198 200 197 199 205 196 198 203 202 146 202 216 209 224 149 56 76 80 82 83 52 50 49 49 51 48 46 56 22 139 156 156 169 163 164 173 95 112 135 146 148 150 162 163 160 166 174 179 179 181 164 157 149 125 132 121 132 134 124 140 129 144 134 127 139 151 151 147 146 150 153 147 137 139 153 157 177 176 169 157 148 136 104 116 107 137 168 207 147 199 203 192 195 205 203 204 199 206 196 206 200 150 205 208 212 221 69 63 86 80 80 79 49 51 49 47 53 49 54 48 42 47 140 151 156 157 166 172 110 105 138 148 145 148 157 166 164 166 178 173 179 177 157 133 137 126 120 111 125 129 120 137 125 147 134 127 134 135 128 123 123 124 125 119 121 126 124 131 140 148 156 138 120 94 66 100 97 113 153 188 158 191 204 199 194 199 200 204 201 203 193 205 194 157 199 196 186 108 63 78 85 73 82 81 46 51 47 47 51 48 47 50 51 29 78 147 144 151 161 170 143 94 133 145 148 151 151 153 162 170 171 172 176 173 144 130 136 134 116 100 105 111 113 123 113 122 119 114 124 113 112 110 102 104 105 96 91 98 99 112 121 120 118 93 80 72 62 89 95 107 138 171 162 190 203 203 200 200 198 202 204 202 200 204 199 125 151 132 96 69 70 75 86 73 81 82 49 50 45 53 51 47 49 49 49 52 29 96 139 143 153 158 159 96 123 143 144 147 157 160 156 172 168 169 175 163 154 136 139 131 118 97 74 65 78 94 93 94 98 101 101 96 102 102 93 89 87 97 100 113 115 132 142 152 139 124 104 121 109 109 107 106 126 153 167 196 201 205 203 198 201 201 207 205 202 210 183 88 53 72 71 74 71 79 83 76 80 83 50 50 46 54 45 50 49 47 49 52 43 39 84 116 134 134 141 95 100 146 144 146 152 164 165 163 163 170 165 171 167 154 146 133 117 100 86 85 87 97 105 108 113 126 132 128 131 140 131 132 133 142 154 159 156 180 180 184 187 193 170 158 143 126 112 119 119 131 153 187 206 202 201 203 197 202 206 206 199 218 137 84 48 76 70 72 75 77 81 80 77 80 42 53 48 52 46 51 45 50 49 53 49 46 43 54 68 63 80 46 76 136 140 138 147 166 168 148 159 171 165 166 170 149 143 134 120 116 120 138 146 143 139 145 141 139 144 151 149 149 149 149 151 151 160 165 171 177 184 183 185 200 195 177 151 146 122 125 114 129 143 174 202 202 196 200 197 203 200 202 199 199 85 51 69 72 75 69 73 77 79 81 79 85 50 47 49 47 46 52 46 49 52 54 50 49 50 52 51 34 37 29 46 129 142 136 148 160 164 149 158 165 162 166 168 153 142 133 122 122 139 160 165 163 151 153 152 151 147 152 151 140 132 129 126 123 122 128 139 150 168 175 190 190 192 184 147 158 143 125 140 120 147 163 200 202 191 187 202 199 198 201 211 144 71 70 70 76 70 71 73 74 80 78 77 84 50 50 49 48 47 51 48 50 49 52 52 47 53 50 51 46 46 22 35 109 140 141 150 155 160 154 155 163 166 160 168 155 153 130 116 142 153 157 170 168 166 151 148 147 143 132 130 122 110 105 101 100 92 111 124 148 162 181 184 179 180 179 158 168 157 143 137 133 148 170 186 198 197 181 197 204 196 210 199 94 67 61 84 69 75 74 70 75 76 80 76 82 50 50 50 47 48 49 48 51 46 54 45 49 48 54 47 54 49 31 17 100 129 138 146 152 151 157 161 161 158 150 161 156 152 125 122 148 161 161 171 161 170 157 156 151 146 136 127 115 97 101 107 105 104 125 139 162 147 171 170 173 185 166 161 174 161 152 136 127 150 169 183 186 187 186 196 204 195 208 165 61 69 69 74 73 73 76 71 74 76 78 77 80 48 49 49 48 47 49 49 50 49 47 51 48 50 52 48 49 55 37 6 110 112 123 136 155 149 152 153 150 148 148 165 150 150 127 130 140 158 157 164 162 164 158 150 150 143 135 129 122 97 117 115 102 117 125 136 147 138 152 162 168 176 161 168 166 143 161 133 115 142 167 173 192 172 195 199 193 197 189 122 66 62 73 67 75 74 75 76 74 78 80 79 77 50 45 44 52 48 49 49 48 49 46 52 48 48 50 52 48 47 49 14 82 132 103 130 152 153 149 138 152 152 146 160 145 134 128 136 137 160 153 160 166 159 162 152 147 131 124 121 125 96 112 107 104 108 125 121 126 139 141 157 162 171 161 175 161 144 160 146 125 131 172 173 187 166 180 196 189 190 144 100 74 72 70 70 75 73 76 71 74 75 77 78 79 55 47 45 54 42 51 46 51 47 47 51 49 45 51 52 50 41 49 21 52 150 89 108 143 151 153 142 143 147 140 152 146 126 131 139 138 152 162 165 162 159 158 153 144 134 130 120 123 109 106 102 128 91 139 118 127 131 144 158 156 173 162 166 148 165 152 139 142 145 154 170 195 171 170 195 186 174 100 68 76 70 75 68 75 75 75 70 69 78 76 73 77 54 47 48 48 50 48 47 50 48 50 49 50 45 53 50 55 41 41 47 36 151 118 79 124 139 145 142 132 142 139 138 146 123 137 122 117 144 161 160 155 162 153 158 152 143 142 121 124 121 110 114 129 112 142 129 140 153 158 162 162 173 172 159 143 167 156 127 138 130 158 149 187 174 169 191 162 143 97 61 66 72 70 73 69 76 74 77 74 69 81 69 74 48 49 48 49 49 52 49 48 49 48 49 50 48 50 50 55 45 41 42 22 134 138 92 98 139 140 140 139 145 146 137 136 130 120 109 113 138 153 150 151 165 164 163 157 149 145 133 114 126 112 123 115 122 132 141 149 161 166 163 170 179 183 168 148 154 171 137 140 133 135 157 164 179 165 177 128 147 91 58 71 73 67 74 72 77 76 75 71 74 77 69 78 42 51 46 50 51 45 51 44 49 45 46 50 49 51 50 48 55 48 44 14 112 148 114 80 106 134 135 140 131 133 134 119 127 105 112 113 141 144 139 148 167 162 169 167 159 154 145 112 131 126 124 125 130 147 155 155 164 161 168 180 181 180 165 155 134 160 123 142 136 130 161 145 159 161 133 133 152 68 63 73 72 67 70 76 73 73 76 74 77 73 74 72 48 44 51 51 48 48 51 44 49 47 50 50 46 51 50 49 50 57 45 12 93 145 117 109 81 119 132 140 118 129 132 114 122 114 111 115 133 131 135 148 157 163 168 176 168 161 148 131 141 148 123 132 148 147 157 153 169 167 166 180 180 173 174 147 145 137 133 131 132 124 148 138 148 121 106 156 160 57 63 73 69 71 77 71 74 74 71 77 75 69 78 71 51 49 49 49 48 46 50 49 50 47 53 46 49 50 50 49 51 53 57 19 72 144 120 129 114 76 121 136 116 130 118 112 109 105 117 114 114 121 139 143 154 165 163 175 176 151 147 148 144 149 128 140 162 157 167 172 173 171 160 175 173 165 165 153 150 142 144 144 126 142 122 124 123 101 122 171 156 54 70 74 73 72 75 69 73 73 79 74 74 75 74 71 49 52 46 51 48 48 50 51 45 45 52 52 47 52 51 48 51 47 52 39 54 120 109 126 121 92 81 113 103 116 106 114 112 117 116 117 120 119 125 143 147 152 158 172 166 150 149 149 140 137 131 148 155 153 164 162 169 171 176 176 172 155 161 161 140 143 132 147 143 137 135 102 100 116 132 160 148 62 63 78 71 72 77 71 75 74 76 76 70 77 76 75 46 49 44 47 52 47 50 50 46 51 47 50 54 49 53 51 48 50 50 50 46 125 128 134 125 126 89 74 80 97 94 100 111 108 109 113 115 115 126 144 138 145 157 158 159 147 138 151 138 137 148 158 144 145 156 151 153 159 167 171 168 152 147 161 150 140 151 116 133 109 120 100 105 125 141 164 142 60 66 74 72 75 72 76 76 76 70 76 68 74 80 72 47 48 46 46 53 44 49 52 46 48 52 49 43 54 48 49 50 51 54 47 37 126 129 128 115 127 113 77 65 79 88 88 91 104 97 112 106 111 131 132 131 138 147 154 149 148 128 144 138 133 139 139 140 136 149 146 149 139 147 144 166 158 151 131 151 135 157 111 111 97 88 114 128 157 166 189 109 65 71 72 72 75 73 73 78 77 73 72 72 72 77 74 50 49 47 50 49 51 44 54 48 46 54 50 46 47 50 48 50 50 50 49 35 120 120 107 114 126 120 106 80 76 84 74 82 97 95 99 107 119 119 121 121 134 135 147 132 133 121 143 132 128 125 118 129 135 140 134 136 132 129 134 146 161 146 130 129 133 143 118 95 109 106 113 158 155 161 181 114 57 70 76 71 76 72 79 75 78 72 74 73 73 71 77 49 52 44 51 48 51 50 49 47 49 55 50 49 45 50 54 50 48 53 53 31 117 115 110 117 114 117 109 97 75 74 77 71 87 87 91 113 117 112 112 112 133 128 133 121 118 117 134 127 129 118 108 121 126 131 127 124 121 118 129 128 159 123 140 129 134 128 88 94 101 129 119 151 137 129 199 107 57 67 77 77 74 72 71 77 72 75 71 79 68 74 72 47 49 48 47 50 45 55 45 49 51 52 48 50 49 49 54 51 49 52 58 30 113 131 129 119 124 116 109 109 86 71 71 76 82 82 72 98 109 106 107 109 130 118 125 129 120 118 119 119 133 116 106 107 113 116 125 128 118 118 117 135 127 121 144 146 124 114 96 95 108 113 120 143 157 151 190 101 68 63 80 77 76 69 77 72 72 76 72 72 77 70 75 48 45 52 47 50 44 47 48 47 52 47 47 53 49 48 53 49 55 54 57 28 105 122 127 113 110 109 108 108 82 93 89 76 81 73 70 71 102 102 94 103 112 114 126 122 122 111 112 105 117 112 108 95 109 96 114 121 104 120 111 114 128 117 138 130 121 89 121 111 105 121 130 165 175 164 190 93 63 69 73 78 77 73 69 76 71 78 72 76 69 73 76 48 47 50 43 49 46 51 47 47 47 51 47 53 47 48 50 54 52 52 57 30 90 134 115 115 123 123 120 120 97 85 99 84 82 78 68 68 84 88 86 97 105 110 119 116 104 110 112 98 91 108 100 85 93 103 100 117 107 106 104 103 112 111 130 118 100 104 118 107 128 124 132 145 160 141 182 91 59 66 77 71 76 79 67 74 74 74 73 74 73 77 70 50 47 50 50 47 50 47 52 50 49 47 51 49 49 49 52 53 51 53 55 30 84 135 124 132 137 128 125 129 110 87 86 84 91 92 81 71 76 80 78 74 111 105 107 108 89 98 112 85 79 95 93 76 70 104 87 110 106 88 99 92 109 90 114 101 100 100 117 108 125 126 133 147 141 141 168 82 53 71 72 71 71 74 70 73 76 78 73 69 77 73 69 45 52 47 51 46 49 48 48 49 50 50 48 48 55 52 50 50 54 52 54 38 68 135 123 137 124 119 124 135 122 89 82 86 89 105 90 77 73 74 69 69 93 96 106 101 80 91 109 76 74 87 85 71 58 88 70 90 98 80 87 83 100 87 104 94 115 109 117 123 137 135 123 146 170 159 184 75 54 71 72 71 70 76 69 68 72 77 75 69 75 76 72 45 52 46 45 48 49 51 47 48 47 50 51 48 52 51 52 54 52 58 54 39 63 142 127 131 115 114 128 131 129 99 85 97 84 106 97 78 77 77 68 69 82 79 95 87 75 77 104 80 65 72 75 67 61 71 66 71 86 86 87 77 88 90 98 90 121 105 124 117 132 146 135 149 157 161 184 68 57 65 75 73 73 72 67 69 73 70 71 76 76 71 72 47 48 44 50 49 48 46 47 49 48 50 50 50 50 54 46 56 51 54 55 41 60 137 126 128 121 122 119 110 113 116 107 103 93 89 93 78 75 95 76 70 80 73 76 82 70 83 82 79 67 63 70 62 72 77 65 67 83 76 77 85 77 86 95 106 110 104 118 114 127 122 140 140 149 160 181 73 63 66 76 71 70 76 72 65 73 69 65 71 77 72 73 46 50 49 46 49 47 46 52 48 50 49 52 47 53 48 50 52 54 54 52 45 46 135 134 125 125 115 114 106 105 116 113 101 96 76 85 77 73 84 73 79 72 71 69 71 54 82 67 68 69 66 64 68 65 74 57 60 83 69 75 83 80 82 100 100 116 126 135 129 131 126 141 145 129 168 184 70 53 69 69 65 71 70 75 69 67 72 71 68 74 71 75 51 46 54 46 51 45 49 51 47 52 47 52 49 53 49 52 57 54 52 56 44 47 133 137 127 129 118 117 110 122 112 122 117 93 80 83 81 68 74 75 77 80 69 69 61 51 68 60 52 57 57 55 66 52 61 55 62 59 73 87 82 76 84 93 114 114 133 120 119 135 148 167 156 158 164 191 66 59 61 72 69 71 74 71 66 68 68 73 72 72 73 74 48 46 50 48 50 48 46 52 46 51 47 52 52 50 52 51 54 56 56 55 47 37 136 131 123 122 113 108 114 133 111 95 118 105 95 72 90 88 78 73 74 85 78 83 69 71 62 60 50 56 49 52 56 56 53 67 60 53 79 92 96 81 79 92 109 116 126 121 136 140 135 157 155 162 154 192 72 54 58 71 71 68 69 72 65 66 70 72 75 65 72 82 50 50 49 49 54 47 48 53 49 50 51 52 52 53 54 56 54 55 55 54 48 36 137 136 130 109 113 110 110 116 123 105 106 103 104 96 85 93 99 89 79 94 90 90 95 83 74 65 56 64 54 47 55 51 54 65 61 60 94 98 108 96 90 90 105 118 127 128 130 142 138 150 167 163 156 193 66 60 64 66 69 68 70 72 66 65 71 70 78 72 67 71 49 48 52 49 50 48 48 55 49 48 52 54 51 53 51 51 56 54 55 59 47 27 141 133 131 121 126 116 117 110 118 121 117 106 105 97 89 96 92 94 103 104 109 86 92 81 86 78 72 71 60 54 54 55 58 61 79 75 99 108 102 106 87 98 110 121 136 129 137 155 152 154 177 157 163 195 59 60 69 67 66 68 70 70 64 63 69 71 73 73 69 72 