P2
92
112
255
48 47 53 50 51 52 51 52 52 52 51 53 55 53 56 59 51 56 53 61 79 79 89 56 63 58 56 65 60 61 57 59 61 57 59 64 63 68 60 58 54 71 72 63 72 68 67 63 78 101 116 101 89 111 94 76 61 56 63 57 61 66 58 58 58 50 67 60 58 57 57 55 63 58 58 58 61 62 56 58 61 60 63 59 61 60 56 57 58 61 59 60 50 48 52 50 52 51 50 50 53 51 52 56 52 58 53 52 56 71 61 64 62 61 78 85 65 63 62 57 56 60 56 57 56 55 52 61 66 60 62 62 63 61 69 68 69 75 92 100 115 114 121 105 96 104 102 93 75 65 71 67 72 62 57 58 61 54 68 63 56 61 57 59 61 59 60 60 58 60 60 58 57 61 60 61 60 59 59 58 59 56 61 58 53 47 53 49 55 49 53 55 53 52 54 57 57 52 54 59 53 54 66 65 56 55 61 68 74 63 73 58 62 58 57 66 57 60 58 59 59 57 58 70 78 77 99 99 95 111 93 102 111 119 120 110 114 97 97 95 89 78 79 72 75 71 67 60 62 58 64 62 62 59 57 61 57 62 57 58 58 60 58 60 59 58 62 58 59 62 63 60 60 54 64 60 53 50 51 51 52 54 54 52 54 56 58 55 54 58 57 57 53 59 59 59 53 56 56 60 60 69 64 58 66 67 76 64 62 59 59 63 59 62 64 88 92 95 108 115 101 78 85 94 107 109 106 102 104 103 95 107 99 93 76 83 74 83 75 70 65 64 57 65 63 61 62 62 62 60 59 59 57 63 58 62 62 60 57 62 58 59 62 60 61 55 64 58 51 50 51 53 51 55 52 53 55 55 57 51 59 54 59 55 56 55 56 67 70 70 67 67 72 75 70 70 64 75 69 57 60 62 60 65 68 82 80 93 94 94 98 94 89 83 105 96 101 98 98 94 103 103 94 96 94 83 88 76 75 79 76 67 71 72 66 60 63 61 59 63 60 60 59 61 61 58 63 64 60 62 59 57 61 62 62 61 58 60 59 59 50 52 51 52 53 53 54 53 66 57 56 56 56 51 58 56 58 53 61 58 66 81 76 74 70 69 75 68 71 79 68 61 67 72 72 75 79 81 88 97 87 88 104 81 104 105 120 104 110 102 103 96 104 98 87 86 91 68 79 73 81 80 71 68 70 69 67 58 62 64 58 61 59 59 58 63 63 60 62 67 61 59 60 58 61 64 64 60 61 62 58 64 53 54 51 51 51 58 53 52 57 53 54 61 57 60 60 62 58 62 54 65 70 78 84 80 78 73 79 67 64 72 72 78 80 79 89 95 81 83 81 87 83 89 87 70 101 86 98 99 103 117 117 112 111 113 100 93 99 82 77 74 83 87 68 95 78 71 75 58 61 66 61 62 61 63 57 63 57 63 58 65 60 60 61 61 63 64 62 63 61 61 59 63 52 50 52 52 53 52 57 52 54 57 51 54 53 63 66 61 63 72 81 70 76 76 87 85 67 85 72 70 74 75 83 85 76 84 83 83 80 82 82 81 78 77 66 71 92 98 94 104 98 110 105 106 111 101 100 105 108 103 100 90 89 79 87 79 89 84 72 74 68 69 77 67 69 57 59 68 63 62 61 64 65 63 65 61 63 58 61 61 61 60 61 62 55 54 55 54 51 56 56 47 56 62 55 60 56 55 61 58 60 62 76 92 86 89 84 72 63 61 67 63 70 65 75 77 77 101 84 92 87 82 81 71 68 70 65 69 87 94 75 80 97 94 102 90 100 97 101 96 96 105 100 105 109 83 83 109 103 82 94 72 74 80 74 65 69 75 62 62 62 62 64 62 64 64 64 67 64 67 63 59 62 61 61 64 55 53 53 58 53 54 54 56 56 58 57 61 53 56 56 60 65 71 83 83 82 78 79 85 74 79 73 75 76 71 72 87 107 99 71 70 71 66 70 69 79 66 56 54 82 72 69 83 88 92 90 102 87 79 88 92 82 92 90 90 96 84 79 93 103 92 84 74 78 72 70 58 73 66 61 64 62 60 65 62 68 62 66 64 65 66 60 63 60 63 63 61 51 54 57 52 55 53 55 53 54 56 57 58 58 58 68 66 75 86 77 87 81 76 85 82 79 75 78 78 77 83 87 101 108 87 60 69 64 64 68 78 63 53 55 53 65 62 63 66 87 100 96 98 95 87 90 94 95 93 100 84 87 88 81 79 82 103 74 86 87 75 63 65 70 70 61 61 63 62 64 64 65 63 65 67 64 66 59 69 61 67 65 61 55 53 51 51 57 59 56 53 61 64 55 62 69 64 60 61 63 70 68 79 62 66 62 69 74 75 81 74 71 92 110 103 90 66 72 70 71 72 78 70 64 66 50 55 67 60 75 75 83 86 90 97 98 103 91 95 93 95 96 91 95 91 86 67 79 93 83 82 94 73 78 65 62 68 62 61 65 66 60 58 63 65 66 64 63 63 61 65 63 64 64 62 55 53 54 53 58 62 54 55 59 64 64 63 60 64 59 66 65 66 62 76 56 66 66 72 81 88 81 81 98 106 99 85 69 65 94 85 85 107 109 109 95 87 64 65 80 70 76 100 100 85 92 96 100 102 97 93 90 88 98 86 73 73 87 71 72 80 72 87 94 91 79 67 73 60 63 60 67 59 66 58 71 67 66 63 63 64 61 63 62 66 61 65 56 53 60 63 55 69 53 60 59 69 66 59 58 67 63 66 63 62 52 76 62 78 77 94 88 99 106 92 94 81 69 72 71 72 74 84 84 100 102 87 94 89 78 79 101 99 101 105 107 98 100 95 94 94 96 85 84 74 76 74 76 71 80 76 72 78 76 80 92 104 85 85 68 68 60 61 63 63 65 71 71 61 64 65 65 65 61 59 64 61 63 64 54 55 58 59 55 76 60 67 58 60 57 58 62 68 67 61 62 62 57 67 64 74 80 90 107 105 100 85 85 82 67 80 62 64 71 95 83 74 71 67 80 72 68 75 94 110 113 120 108 101 96 101 95 92 102 89 84 81 67 68 66 71 77 77 71 65 78 89 87 85 95 108 59 83 69 63 67 68 77 59 64 65 65 65 60 63 64 60 67 60 64 61 53 55 55 55 65 81 71 59 55 57 58 63 56 78 64 57 58 61 75 64 63 84 73 85 103 94 92 89 72 71 70 82 68 63 70 81 84 63 76 55 65 71 68 64 69 80 97 108 126 106 103 121 120 110 100 99 88 91 83 74 76 76 72 67 74 65 83 91 109 110 100 99 118 80 76 65 63 65 66 65 64 65 64 64 63 66 64 62 61 62 62 68 55 51 60 54 60 92 63 61 57 54 62 58 56 87 67 57 58 66 66 70 71 84 86 81 91 92 94 80 81 76 67 60 62 43 91 58 63 70 77 56 69 62 57 60 59 67 86 94 108 109 102 99 91 82 90 84 76 75 79 76 80 84 83 78 82 79 99 113 96 101 95 95 92 94 84 70 68 79 64 69 61 63 57 62 63 57 68 62 65 66 64 63 52 54 56 59 60 76 58 58 55 57 67 75 64 65 64 70 69 65 72 59 72 69 70 70 83 85 82 66 76 77 68 55 60 49 85 71 63 76 60 60 48 45 47 55 55 54 70 80 91 101 111 103 95 97 80 106 71 80 60 75 75 74 67 61 77 93 74 85 95 85 92 102 93 91 96 75 68 65 70 65 65 68 61 61 64 60 63 60 64 62 59 65 56 54 57 61 56 63 59 59 54 55 60 61 60 61 61 68 60 77 66 65 73 63 65 87 90 86 85 74 75 69 75 58 65 49 92 83 67 66 59 57 40 44 49 46 47 39 51 70 81 91 90 98 100 89 86 97 95 73 76 82 71 85 92 75 85 76 68 73 56 87 115 76 94 80 99 101 78 69 69 63 67 69 64 65 62 63 66 62 59 62 57 64 60 57 57 62 51 61 59 57 57 60 62 61 63 60 64 64 83 80 69 71 85 69 70 88 100 93 81 81 78 76 83 69 65 64 80 99 69 62 65 63 44 47 50 43 47 43 46 53 55 80 85 82 100 98 96 92 88 106 97 90 90 83 67 68 64 68 56 76 85 122 101 67 104 89 90 107 103 74 83 65 64 67 64 63 64 61 67 58 62 60 62 59 59 64 60 65 52 55 58 58 61 65 58 53 74 59 72 66 75 85 66 75 84 76 76 91 89 89 88 95 83 87 86 65 77 69 55 90 75 60 72 65 51 52 55 50 48 44 49 56 54 63 70 90 87 96 87 80 90 81 122 81 91 87 73 81 82 81 104 113 123 106 77 72 93 101 83 99 92 91 77 83 78 67 58 63 65 59 63 61 60 58 67 57 61 55 58 67 59 49 59 56 59 63 63 62 69 69 65 74 69 93 86 67 83 87 66 88 85 82 95 100 100 97 86 78 79 64 58 79 88 70 67 64 59 54 53 52 43 50 54 58 44 64 48 63 60 80 83 72 80 82 104 94 88 106 85 80 91 95 111 114 99 89 74 82 86 102 89 90 104 105 92 67 86 78 66 62 64 63 61 62 60 60 60 60 59 54 59 64 71 51 62 60 59 64 66 61 69 67 68 79 79 79 83 76 78 68 69 60 78 81 82 80 93 103 92 75 59 67 76 82 81 73 59 65 56 61 53 51 41 56 54 54 51 59 64 70 61 52 79 69 74 79 79 95 99 105 100 99 108 102 112 108 92 86 92 88 85 98 103 97 103 114 96 89 93 98 96 64 65 62 64 59 61 60 58 65 58 57 60 64 56 63 47 55 54 60 66 68 68 73 71 81 88 87 88 66 84 64 75 73 74 75 90 87 106 105 84 61 48 68 83 79 69 67 64 72 66 59 59 57 49 53 60 51 52 63 69 61 67 66 53 45 64 68 66 70 68 82 78 79 99 97 106 93 90 83 99 100 93 97 104 109 99 109 97 79 97 126 124 82 84 70 60 63 61 63 60 65 59 58 60 64 57 56 61 51 59 56 63 68 79 81 82 86 87 81 80 86 85 78 72 79 82 99 99 101 79 74 76 77 66 80 90 79 71 74 76 77 76 69 75 78 75 64 64 57 69 78 75 65 67 78 63 53 62 65 59 59 67 60 67 71 74 57 83 101 94 90 74 86 91 94 100 100 105 105 96 107 93 104 108 98 92 64 56 63 67 65 60 63 61 63 71 59 60 59 62 66 74 70 77 78 74 90 88 97 100 108 93 90 80 89 86 82 88 91 100 85 77 80 81 89 84 89 82 76 78 92 96 85 96 90 90 88 83 72 77 76 81 76 83 76 79 92 81 68 63 67 67 61 63 67 57 62 65 71 51 62 78 74 61 78 87 85 96 100 100 106 100 99 97 91 120 110 105 94 73 68 68 59 55 62 55 71 71 62 63 67 55 67 70 72 80 79 80 85 95 101 93 91 87 92 78 82 82 74 82 86 105 97 80 85 79 91 84 84 98 103 110 124 118 111 122 114 125 116 102 98 102 103 99 96 93 100 104 109 109 89 81 66 71 77 59 67 64 62 58 67 62 64 61 68 73 90 75 85 91 98 100 94 112 94 94 80 106 97 94 87 95 67 63 63 63 62 59 60 68 68 74 80 78 86 90 87 94 98 87 88 86 96 98 93 86 83 69 70 85 81 83 91 93 95 93 92 98 93 95 105 129 137 147 143 134 145 149 141 149 138 131 135 136 129 117 110 109 114 119 121 123 116 100 91 87 95 78 69 61 62 59 66 61 69 68 73 85 98 86 93 98 84 87 71 94 88 104 101 86 95 109 98 77 67 68 66 62 63 58 59 56 66 81 85 82 94 97 90 92 91 85 87 82 87 82 73 70 85 75 65 71 88 98 109 116 104 107 110 111 116 108 135 144 155 160 158 155 165 163 169 165 153 158 162 164 157 147 141 132 129 128 129 135 126 118 113 100 103 102 93 72 66 58 49 51 54 57 71 72 77 81 84 82 71 78 83 66 88 106 101 83 98 107 104 85 77 73 66 62 62 53 66 56 61 65 88 89 89 92 90 88 89 72 73 68 79 76 63 61 59 67 66 73 100 125 130 134 131 131 131 144 146 145 156 158 172 173 166 174 172 172 175 169 165 168 172 172 176 171 163 162 155 151 146 151 137 141 131 128 116 117 117 99 85 67 56 52 52 54 47 55 59 63 79 76 80 80 88 79 92 88 94 100 101 111 94 104 90 75 63 60 65 68 62 58 58 73 80 89 89 81 84 75 80 69 73 72 62 64 68 53 44 57 85 98 128 150 142 142 148 150 153 163 162 168 175 182 177 175 179 183 180 180 176 173 180 175 178 175 179 181 179 179 177 173 172 175 166 168 163 144 144 132 140 131 110 101 69 45 49 52 59 49 51 59 64 71 77 73 71 70 77 83 96 109 97 104 82 73 90 85 71 60 66 73 68 70 69 80 94 84 89 88 79 73 62 66 76 67 56 56 68 44 43 75 117 141 151 157 159 165 169 174 179 186 182 188 188 186 184 184 185 182 187 177 179 182 180 178 177 180 180 184 183 184 184 182 185 182 185 178 180 167 160 150 159 162 137 123 91 48 38 40 58 61 65 62 62 66 69 72 73 82 82 86 97 97 100 99 72 80 77 69 72 65 67 74 70 74 74 84 89 86 81 70 67 75 63 53 63 59 52 49 57 46 47 96 146 160 162 163 170 168 171 178 189 190 193 181 191 184 187 190 188 186 184 186 182 184 182 176 185 185 189 189 188 190 184 190 186 186 185 191 189 189 177 178 175 173 163 145 108 80 33 47 46 42 37 49 57 67 83 72 71 80 82 87 98 110 98 102 76 63 79 63 69 65 65 59 59 64 69 67 71 85 77 66 68 67 60 57 48 53 48 48 42 48 59 122 160 166 165 168 174 171 182 184 185 188 194 186 193 192 188 193 189 184 188 185 186 185 180 180 184 184 188 188 191 188 190 188 187 187 188 185 188 186 191 172 184 188 182 163 138 107 71 31 37 41 50 58 61 69 78 65 60 71 71 79 86 103 103 94 83 62 66 71 61 63 71 63 57 64 61 64 68 77 68 55 60 48 56 47 53 50 39 45 48 47 73 147 169 170 168 170 176 179 193 195 194 194 196 195 198 194 192 193 192 187 189 186 180 182 181 184 183 183 186 185 188 188 188 190 188 190 190 191 192 191 194 186 186 191 193 186 178 142 119 66 23 29 34 50 64 62 56 48 41 49 55 60 64 93 98 101 85 63 69 67 61 63 67 62 69 67 48 64 62 67 68 68 59 56 51 53 43 49 43 50 51 58 86 166 172 170 169 176 180 188 192 194 197 197 197 197 198 198 196 191 189 189 186 182 180 183 187 179 183 184 186 191 189 191 191 190 188 190 190 192 193 191 193 189 186 192 193 192 188 184 166 135 44 32 18 30 39 47 49 52 41 48 46 48 57 72 79 75 103 73 65 66 60 64 64 57 61 65 51 66 66 86 81 73 61 55 51 51 52 44 45 59 56 69 105 173 173 169 172 183 189 190 193 195 194 197 198 197 199 198 196 195 191 185 184 177 181 179 181 181 179 181 183 186 182 188 190 188 189 188 189 189 189 191 190 190 186 189 194 192 191 194 197 179 125 37 18 30 26 36 34 45 35 48 40 46 65 88 105 71 88 84 60 67 63 63 64 57 53 61 51 70 81 93 86 54 52 53 53 49 54 35 55 57 68 66 127 176 173 166 178 185 189 189 192 197 197 197 197 198 198 200 196 197 191 190 186 183 181 182 180 181 184 176 179 182 183 184 189 191 186 189 188 189 185 187 187 188 190 187 192 190 190 200 195 199 184 92 20 27 31 28 33 33 37 43 39 58 66 71 90 89 72 98 69 64 61 66 64 58 56 63 48 56 57 89 70 55 47 45 51 53 51 46 57 56 77 83 148 170 174 171 183 190 184 188 196 198 194 198 197 195 198 198 197 198 194 192 187 184 185 179 180 181 182 178 177 178 182 182 188 190 183 188 186 188 188 186 188 186 190 186 189 190 181 197 194 199 208 153 39 22 34 35 35 34 42 53 47 54 64 57 72 95 69 93 68 71 61 65 66 53 55 57 51 49 40 72 57 68 50 50 58 54 45 58 51 65 86 89 173 168 176 176 181 190 180 191 195 196 194 197 197 195 197 198 198 201 198 195 190 185 182 179 183 182 177 183 178 179 180 188 188 194 187 187 190 187 187 188 187 188 190 186 190 189 191 193 197 199 206 191 88 28 26 31 37 34 43 45 47 55 58 68 92 98 75 81 79 71 66 66 64 50 56 47 50 31 55 67 64 61 55 50 50 51 41 67 53 77 91 120 178 170 181 183 188 192 190 193 193 193 195 196 199 197 200 199 200 202 198 200 197 192 182 185 184 186 182 185 182 180 184 189 189 191 187 192 195 194 191 189 186 187 188 189 187 189 192 195 196 199 205 212 141 47 37 28 31 34 39 41 45 44 51 60 74 96 97 78 65 63 64 65 61 50 57 49 37 51 71 84 73 58 50 48 49 46 54 66 62 94 92 145 175 176 183 188 189 192 190 190 192 192 192 196 200 198 201 203 201 202 199 202 199 194 185 190 188 189 191 186 187 186 187 189 192 189 189 191 191 191 190 188 189 183 186 192 189 187 190 194 193 202 202 208 199 82 46 39 35 39 37 44 38 42 49 72 62 87 104 84 72 68 62 64 58 50 59 53 44 67 74 72 61 56 52 49 52 37 61 60 77 102 97 165 172 177 185 187 189 189 187 192 191 193 191 193 197 198 200 202 203 203 200 203 200 192 191 192 189 191 193 193 189 189 191 192 192 191 187 190 191 185 190 189 191 186 182 192 192 184 188 193 196 202 206 204 215 150 54 54 43 47 38 35 47 43 70 68 67 101 74 100 73 73 66 61 65 64 58 51 54 52 47 61 59 58 54 50 51 46 65 70 89 96 116 176 169 178 181 183 189 188 186 192 190 194 191 195 195 197 198 200 201 203 201 202 201 196 192 191 190 195 197 195 193 193 195 191 194 189 187 188 192 187 189 191 190 188 178 185 191 186 186 186 195 197 204 206 209 208 57 82 38 60 56 37 39 48 45 61 63 87 85 101 92 74 64 64 62 52 50 45 42 34 39 79 62 61 54 51 53 63 68 72 93 91 144 177 172 178 178 181 185 188 176 184 189 192 187 189 191 196 197 198 201 200 202 201 201 197 195 191 192 196 196 193 196 190 194 191 187 189 179 180 180 173 174 177 169 168 167 162 176 178 183 186 191 190 197 208 203 229 92 94 52 43 78 60 29 48 42 53 64 68 85 92 109 81 60 61 66 45 34 31 48 41 51 88 69 57 60 45 49 81 79 66 97 98 166 175 173 178 178 179 173 166 157 154 164 172 173 163 170 169 170 190 186 190 197 198 194 195 197 192 190 192 189 191 197 183 185 178 172 160 144 138 134 131 135 143 133 139 134 137 145 148 159 185 190 194 198 207 207 222 149 86 63 45 65 75 40 45 46 58 58 76 61 86 114 90 58 64 70 50 28 42 40 43 58 77 78 57 47 45 44 101 84 65 98 121 175 156 173 186 185 165 141 139 156 156 142 136 142 121 124 122 113 147 149 148 175 179 180 188 192 191 186 189 179 190 176 167 166 157 146 127 123 102 96 100 99 92 102 104 110 114 124 131 132 139 173 195 197 206 206 211 193 93 66 48 52 70 64 42 57 62 56 70 62 91 96 102 76 63 67 59 42 29 38 42 55 76 75 41 52 55 36 92 66 71 101 152 176 152 176 182 160 128 125 136 135 125 133 108 95 93 100 96 93 97 114 108 136 157 168 184 194 189 182 187 182 175 162 154 143 140 123 111 101 90 90 78 79 77 78 85 93 100 115 120 128 148 139 149 193 205 205 201 222 101 72 41 49 41 58 65 58 61 44 68 59 87 78 81 88 66 65 55 41 31 35 43 60 70 55 45 73 50 38 68 39 73 119 162 169 175 188 162 127 127 140 148 156 149 162 147 120 101 99 87 84 89 96 97 112 126 150 183 196 194 185 193 184 180 172 148 134 131 111 97 94 87 90 77 77 82 95 116 135 144 152 159 162 174 169 145 148 205 203 201 233 133 58 43 50 43 34 44 57 63 70 67 78 52 83 63 88 71 65 52 40 49 43 40 51 48 43 71 63 31 47 60 30 66 149 170 169 174 178 131 132 165 176 171 179 192 187 180 166 150 146 136 124 121 124 132 133 143 133 178 201 202 197 191 195 192 183 169 151 142 125 108 101 98 92 99 114 126 140 153 159 160 166 168 183 185 191 172 137 158 201 203 222 171 45 52 43 44 46 37 41 52 51 76 56 75 85 57 80 62 67 48 34 36 36 38 40 40 61 77 44 22 56 65 26 76 167 166 172 177 153 126 148 180 192 187 186 192 192 186 172 168 163 153 142 130 134 145 146 153 161 178 201 204 198 196 193 197 199 195 190 158 123 100 85 85 95 121 144 150 156 168 168 165 174 174 186 193 185 190 179 159 182 205 214 207 45 44 60 57 39 48 42 51 56 68 76 64 88 69 69 71 64 43 36 36 39 35 41 45 56 56 31 18 74 74 24 110 176 174 179 178 146 167 174 180 188 185 187 195 197 178 169 157 156 150 142 130 124 128 132 142 155 176 199 204 202 200 197 193 205 209 195 141 99 86 82 83 87 109 129 141 142 157 163 156 165 175 203 196 180 176 180 178 176 194 207 228 74 36 51 59 53 50 43 51 61 74 74 56 70 73 77 74 69 34 34 35 38 29 38 46 47 32 27 15 78 78 32 141 179 176 182 162 164 185 176 178 175 178 181 178 178 158 149 145 137 134 128 117 117 121 124 134 138 166 195 203 202 202 197 193 208 206 178 107 79 84 90 84 78 89 110 134 125 141 147 145 150 159 198 202 177 171 183 194 189 188 204 231 126 33 46 48 48 44 44 50 62 83 65 68 64 66 77 69 64 24 30 46 35 32 40 35 36 29 28 24 68 64 37 163 184 182 187 177 177 185 180 172 168 166 156 167 167 156 145 139 137 127 124 122 116 111 110 114 142 150 189 203 201 204 195 188 209 208 161 89 85 88 86 83 81 93 96 116 114 122 134 146 162 173 175 183 192 169 176 189 197 194 196 222 161 55 55 44 45 41 43 56 54 75 51 74 65 77 70 67 64 26 30 45 30 31 35 32 33 39 31 34 55 47 55 174 184 188 189 186 185 185 180 169 149 149 160 162 135 107 66 85 92 67 101 109 111 111 92 98 160 146 183 198 199 201 194 186 207 207 157 88 118 92 85 78 75 74 68 53 40 94 61 82 119 160 206 161 178 183 172 190 196 201 197 212 208 55 64 40 41 43 29 56 44 58 52 61 73 55 64 67 68 25 34 35 37 23 31 34 33 32 35 39 54 21 97 181 184 191 187 180 187 186 177 165 143 141 131 140 56 163 73 38 118 39 145 98 98 97 116 104 149 157 182 193 194 206 199 181 205 200 183 89 133 100 71 63 57 95 66 74 27 38 53 28 97 84 133 174 169 186 178 186 197 197 201 206 224 100 52 49 37 42 37 34 40 52 53 54 53 61 70 63 72 22 32 33 31 25 31 36 30 32 34 41 39 31 147 181 187 192 188 181 188 187 178 155 134 99 103 183 97 89 88 19 81 59 174 139 110 124 121 153 147 176 179 185 186 206 197 178 198 194 206 135 117 99 84 80 73 99 98 59 52 26 41 44 153 134 71 102 158 193 182 186 199 201 201 202 226 151 54 48 49 34 26 40 40 51 53 46 55 63 71 68 66 24 25 42 32 33 40 38 34 25 41 47 41 53 174 185 189 197 193 186 188 183 171 141 112 109 125 174 182 68 74 58 82 110 162 145 126 135 137 151 164 183 172 183 186 209 207 177 192 192 196 197 121 112 110 95 94 99 106 82 73 70 48 93 155 152 138 146 137 184 188 186 199 201 202 201 220 186 77 57 43 41 30 37 42 39 82 54 64 69 63 70 66 24 26 24 35 42 40 33 30 44 50 39 41 93 179 185 192 198 196 193 187 183 168 150 137 132 144 162 190 161 119 113 127 138 140 136 135 142 124 163 182 184 173 185 195 205 204 187 189 187 194 199 191 114 103 103 98 96 98 102 105 125 114 130 144 170 202 186 190 188 186 186 198 202 202 203 215 211 82 67 56 43 41 49 43 43 53 53 63 78 63 67 69 38 22 24 30 38 41 35 33 38 50 36 52 104 182 185 195 200 197 197 190 182 172 164 163 158 162 169 196 177 153 140 135 128 130 132 140 142 151 183 187 181 175 192 200 205 203 193 192 186 191 197 198 192 121 107 110 106 103 100 106 116 125 133 148 168 199 198 196 195 186 186 198 203 206 205 210 218 89 74 58 49 45 59 40 60 48 43 47 83 71 62 67 53 30 31 19 36 39 40 35 37 47 40 47 115 184 186 197 200 197 200 194 182 179 177 181 178 180 176 179 173 157 148 150 145 151 147 142 167 184 188 190 178 183 196 201 203 206 192 193 190 188 193 199 202 189 146 122 125 132 131 127 129 133 140 148 173 190 202 198 196 189 186 197 203 207 207 208 220 99 74 71 50 54 82 61 49 51 37 30 69 78 68 65 54 49 30 25 23 37 55 39 43 45 36 44 125 185 184 196 200 198 197 196 186 189 188 188 186 188 189 185 185 179 177 174 168 166 164 174 191 186 190 188 178 192 198 200 200 204 198 194 194 190 189 201 197 199 194 165 143 139 146 156 158 155 160 160 174 187 195 194 191 191 190 197 202 208 206 208 218 131 74 64 57 81 105 133 36 43 41 38 55 75 70 67 49 56 38 25 28 100 96 58 54 45 30 45 125 184 184 194 197 198 198 194 194 190 195 193 189 192 193 194 193 191 178 180 180 174 188 195 190 187 187 183 180 195 202 200 197 202 201 190 199 194 189 194 202 200 199 191 180 166 149 149 158 164 167 173 178 182 186 188 190 180 194 199 203 207 206 208 223 146 62 71 74 107 98 154 58 52 59 41 65 66 68 66 48 55 51 16 96 146 139 92 97 64 34 45 123 182 185 189 195 199 198 198 198 197 198 197 191 191 190 190 187 186 177 178 187 191 198 197 191 191 182 180 180 195 201 200 198 203 198 191 201 197 190 189 200 204 197 191 182 179 178 166 158 163 167 172 174 181 184 186 194 181 199 204 202 209 204 205 225 135 56 67 119 107 58 91 79 39 82 54 47 70 64 68 48 51 52 33 130 119 96 140 123 100 50 46 101 184 182 191 192 198 198 195 202 199 199 200 196 197 197 192 190 188 193 193 194 201 200 196 197 186 172 176 184 197 200 200 199 199 201 191 199 201 188 186 187 204 200 189 180 182 181 187 176 173 174 175 178 180 187 188 196 198 203 205 205 209 207 203 218 156 43 68 144 77 53 84 64 45 80 50 57 63 71 67 50 51 47 32 155 75 88 123 150 125 72 26 98 177 181 185 193 195 198 198 198 202 200 200 199 202 197 196 198 198 201 204 199 202 202 199 194 177 172 179 188 195 202 200 190 190 201 194 195 202 189 187 182 197 198 187 177 176 178 188 186 180 184 183 185 186 193 194 199 200 205 208 209 207 206 200 216 153 50 93 161 87 60 80 68 44 65 57 61 70 72 63 49 49 52 28 155 85 95 120 128 126 69 39 84 162 178 180 189 196 196 199 199 200 203 201 200 203 201 200 204 203 205 208 204 202 199 203 190 177 179 186 187 188 208 204 182 179 196 191 206 211 184 191 191 193 178 177 178 171 168 185 188 186 185 186 190 192 196 196 202 205 201 206 209 206 205 197 209 134 70 91 177 103 50 104 63 64 40 66 62 77 70 65 53 51 54 23 135 120 88 138 140 162 83 39 71 149 174 176 187 193 199 198 198 199 203 200 203 205 202 205 204 207 207 209 204 202 202 201 180 185 185 183 183 177 198 204 172 169 168 172 187 191 176 188 200 199 164 154 165 167 154 180 179 184 187 187 187 200 197 197 202 203 197 202 206 204 207 198 206 123 83 75 154 109 47 123 61 70 38 70 69 70 68 67 53 51 50 35 88 174 84 131 173 164 114 71 37 132 168 173 186 191 195 199 197 200 201 201 203 206 202 206 205 208 205 207 200 202 202 193 177 190 187 178 175 172 175 194 165 160 151 153 174 170 161 164 189 202 151 135 148 153 149 164 171 176 186 187 187 198 197 203 199 200 196 199 201 204 203 202 190 104 61 130 128 158 61 124 63 70 49 66 71 65 65 68 49 47 50 43 26 183 88 131 175 156 120 104 31 99 164 168 180 190 197 197 197 197 201 201 201 205 205 205 203 206 205 204 198 196 193 181 175 183 178 146 132 153 171 176 153 144 149 140 175 157 104 113 157 188 145 133 136 138 141 148 162 175 177 188 187 191 199 204 202 198 196 197 199 202 201 204 175 91 63 114 140 206 87 114 64 62 66 67 67 64 63 69 51 46 48 52 16 110 146 126 175 175 137 91 45 70 163 166 178 186 195 196 194 196 196 201 201 204 203 204 204 207 203 202 194 190 180 177 169 172 145 70 77 97 156 165 142 130 141 134 163 103 41 51 126 163 145 136 131 131 137 136 147 170 171 180 182 187 197 202 200 197 192 190 195 204 200 203 167 75 88 92 130 199 124 82 47 58 66 61 65 63 66 63 52 50 50 47 49 44 172 131 186 175 157 120 101 74 139 165 178 187 195 192 197 192 194 199 201 203 201 204 207 205 202 199 188 179 173 181 172 166 142 97 154 171 163 162 147 106 129 139 152 126 98 95 125 161 158 139 134 128 130 132 142 159 169 173 176 180 193 197 196 196 186 165 194 200 197 203 143 85 104 99 126 203 163 39 39 58 62 64 67 64 62 69 49 46 55 49 50 31 146 152 196 153 150 133 120 135 108 161 174 189 196 187 197 188 193 196 200 203 204 206 206 201 200 194 182 173 173 184 182 172 160 131 145 155 159 166 163 108 108 152 149 137 137 142 155 175 175 155 141 131 128 133 135 154 164 172 170 176 187 190 189 195 184 181 192 196 196 199 119 86 106 107 120 201 208 30 62 64 69 64 63 65 63 69 47 51 50 50 50 31 81 164 194 140 140 144 129 173 96 145 172 186 196 189 191 189 195 199 199 204 203 206 204 200 196 190 185 175 180 186 187 179 169 162 161 157 154 173 171 140 107 161 160 160 164 168 174 182 186 170 154 140 137 133 133 145 159 172 170 174 175 189 187 193 188 191 188 188 197 189 124 106 109 102 124 193 201 23 61 72 67 67 64 67 67 66 47 50 49 49 50 39 32 162 183 133 123 145 146 175 111 135 173 184 191 191 189 193 196 198 199 202 204 203 204 200 196 191 189 186 184 189 188 180 169 162 152 162 133 166 156 137 127 144 147 141 143 162 179 178 185 181 169 157 145 141 132 142 153 166 169 171 174 187 186 190 185 189 187 183 198 181 129 123 172 143 156 219 170 27 70 69 63 67 67 69 65 70 47 47 50 49 48 53 9 142 182 148 111 150 139 162 128 133 169 182 186 191 190 194 195 198 200 203 203 203 203 200 194 197 192 191 190 191 189 176 177 148 138 148 135 153 133 142 136 143 150 147 125 156 168 171 176 182 179 173 162 159 148 148 153 162 164 167 174 178 184 189 182 188 185 180 194 155 146 160 204 205 176 218 123 34 69 65 68 64 70 66 69 66 47 48 46 51 48 50 31 110 171 180 157 167 173 147 128 131 168 178 187 186 192 195 193 195 201 203 204 203 202 199 198 198 195 192 194 182 182 171 170 140 132 142 140 150 126 137 129 144 158 145 130 147 160 165 168 169 172 178 176 167 174 166 156 158 168 167 175 176 184 186 182 185 188 177 188 148 157 197 210 204 181 219 69 52 69 62 66 63 70 66 68 65 45 49 45 51 48 48 52 32 162 164 175 182 193 199 154 119 164 175 187 181 191 195 192 193 200 202 205 203 201 201 200 193 184 189 182 170 159 165 151 126 151 129 140 141 130 109 140 144 150 142 134 148 140 156 155 156 149 166 175 166 177 183 168 160 178 167 172 177 182 184 177 184 187 183 186 144 144 188 210 204 204 179 45 65 64 62 64 64 68 64 69 65 51 49 47 52 46 51 53 18 110 172 161 182 192 189 171 98 151 164 180 179 186 193 189 195 201 203 203 203 201 200 197 184 169 170 169 166 152 144 150 123 148 134 139 145 118 108 135 153 155 131 132 140 131 133 148 137 129 148 161 174 175 178 189 171 173 173 173 182 184 186 176 183 185 180 196 137 147 198 200 202 216 97 49 66 64 64 64 60 68 64 67 66 48 46 50 49 47 49 47 50 33 156 166 185 184 190 196 111 129 159 171 177 179 192 184 192 200 201 203 200 202 193 180 162 157 157 153 151 151 141 154 142 148 158 142 155 117 118 146 150 155 133 143 142 128 128 142 127 125 127 142 156 186 165 192 187 175 173 182 176 181 185 179 180 181 179 195 118 163 204 198 206 175 48 59 70 69 59 63 61 69 60 70 69 49 49 48 50 49 53 45 46 34 72 158 170 174 187 193 129 118 165 172 171 180 189 191 187 196 202 202 203 194 182 176 141 146 151 153 140 144 141 159 150 142 168 176 168 148 151 160 167 151 146 152 149 143 124 138 124 115 122 133 145 176 169 173 198 181 176 185 175 180 181 184 174 180 182 175 135 181 196 198 207 111 38 66 73 65 62 63 64 67 72 69 67 48 49 49 51 46 46 46 48 43 32 126 163 163 176 189 148 115 159 174 168 173 183 192 192 196 202 201 203 191 179 158 137 147 148 157 141 146 144 171 154 153 162 161 150 145 153 138 142 130 135 139 146 153 132 133 127 104 119 115 130 161 180 159 197 187 181 186 183 187 181 186 186 174 190 169 135 178 181 186 154 65 47 69 68 70 65 63 63 65 69 70 62 44 53 49 48 47 47 49 49 45 44 44 141 156 170 182 174 111 154 169 168 179 172 183 190 195 198 199 199 172 153 157 148 134 138 147 140 154 140 158 146 143 142 137 133 122 132 116 111 115 111 116 118 124 119 106 103 81 92 130 116 154 170 158 189 193 185 181 180 181 187 183 183 169 189 165 127 160 158 139 74 57 62 64 69 61 70 60 63 61 66 71 64 49 48 49 48 47 48 47 50 44 46 39 55 114 148 155 163 101 144 169 166 173 182 182 189 194 192 200 192 168 152 164 158 143 120 107 123 143 130 130 131 126 123 123 122 106 110 96 84 86 86 100 101 92 84 72 69 53 81 122 116 143 156 157 182 194 194 186 185 178 186 186 184 182 183 166 90 90 79 68 64 65 63 61 65 66 66 61 63 62 66 72 64 51 47 50 46 50 47 47 49 47 46 47 41 48 72 83 89 57 125 166 163 171 182 188 187 190 190 193 191 188 156 165 146 136 109 64 87 115 108 105 114 118 115 118 117 106 96 101 111 117 119 123 125 118 108 82 90 97 94 122 121 131 142 148 179 191 193 191 180 185 186 193 187 187 186 138 67 31 50 67 68 65 68 62 67 64 68 63 65 61 63 72 67 49 46 49 48 49 47 49 45 46 49 46 48 43 48 50 30 29 97 160 163 161 178 193 178 181 193 188 190 188 159 160 143 120 107 107 124 137 138 142 145 154 151 151 152 146 141 145 152 158 156 157 152 158 155 149 132 139 135 132 127 115 132 129 166 187 193 188 186 179 189 188 182 179 179 98 46 48 63 66 65 63 66 68 67 68 64 65 62 63 61 71 68 50 44 50 46 52 51 49 45 48 50 48 49 45 53 48 41 42 60 145 168 159 178 185 178 178 191 185 189 189 157 153 137 128 121 157 170 169 165 168 165 164 170 167 156 156 151 148 144 148 153 149 155 160 165 175 163 142 145 131 121 121 117 122 150 184 187 182 183 183 185 180 179 177 146 48 45 59 60 63 65 64 65 67 64 69 61 65 63 63 65 66 73 51 49 48 48 50 50 50 46 51 49 46 47 49 53 49 54 35 25 123 166 168 176 182 184 180 192 189 187 187 171 151 129 140 143 174 184 187 175 173 167 165 160 155 140 132 126 116 115 116 122 124 140 150 164 166 169 155 127 147 126 130 123 121 148 172 189 181 164 185 181 180 181 171 109 49 53 60 64 59 65 64 66 65 66 64 67 62 67 62 65 65 70 53 49 49 47 48 46 53 47 49 49 42 51 49 52 48 52 43 13 93 149 160 174 172 182 186 190 175 180 183 172 150 129 162 167 180 182 186 185 177 172 164 147 131 112 98 108 95 95 118 118 127 128 157 156 160 155 158 138 141 141 131 126 126 145 168 174 184 162 178 188 178 183 157 59 52 55 57 67 58 67 64 65 61 64 63 68 66 65 66 64 66 70 44 49 51 47 48 51 44 52 47 49 48 51 51 44 51 52 48 25 112 120 144 173 169 177 175 179 176 185 177 172 138 139 161 176 176 179 177 178 177 176 162 146 137 110 99 118 104 113 128 138 139 123 151 141 153 158 141 146 145 141 135 123 122 145 157 169 169 167 181 182 175 172 116 49 57 56 62 64 59 67 64 64 63 63 62 62 65 66 64 66 64 68 48 51 47 49 48 47 48 49 45 52 50 49 48 50 51 47 46 20 97 123 121 169 174 174 166 187 167 185 165 157 140 144 155 179 165 183 174 175 167 174 143 136 130 120 94 121 103 110 117 127 126 117 131 136 145 148 137 142 138 134 136 115 120 136 143 174 158 168 178 171 167 154 98 43 56 61 61 62 62 66 62 66 65 66 64 64 64 63 62 59 64 66 50 48 51 47 51 45 48 46 49 49 47 51 48 48 52 50 43 27 76 160 84 150 165 173 166 173 156 176 164 148 146 154 159 180 169 179 174 171 169 161 139 132 129 121 110 99 123 90 120 118 123 118 122 130 142 139 141 145 125 126 136 116 119 126 143 167 154 152 174 169 146 136 76 57 54 63 60 62 63 63 64 63 66 63 65 62 66 65 62 62 61 68 50 50 48 50 49 50 46 50 46 50 47 50 48 52 49 48 40 34 51 169 110 112 156 160 162 158 162 165 166 146 143 144 157 169 180 172 174 168 165 161 150 144 126 129 123 106 129 104 117 124 136 139 132 143 145 143 144 137 133 131 116 122 119 137 125 157 154 150 170 147 120 148 55 53 58 59 63 62 61 65 66 64 65 67 58 65 64 67 66 63 62 67 50 50 47 51 48 50 49 48 45 50 48 49 48 52 49 49 48 31 30 161 151 87 141 157 158 159 169 163 160 146 126 125 136 164 173 162 174 174 174 171 162 156 130 130 128 116 124 115 123 123 150 153 151 154 156 154 148 133 122 152 113 113 121 125 126 131 153 149 163 115 116 147 39 56 58 60 61 61 64 58 67 66 65 64 57 68 62 68 64 61 67 66 52 51 49 50 47 50 48 46 49 50 48 51 50 49 49 50 53 46 13 146 151 104 95 142 154 150 154 152 144 131 115 125 129 154 163 154 178 178 183 175 174 165 143 119 138 128 121 120 134 137 146 154 150 159 166 165 154 142 114 146 119 115 114 115 134 133 133 148 134 102 128 141 41 51 63 60 62 61 62 63 64 65 62 62 67 60 68 63 61 66 62 65 52 52 48 49 49 50 48 48 49 46 50 51 47 53 50 49 53 49 20 129 152 142 115 101 155 141 148 149 129 141 119 120 136 153 143 155 170 178 183 189 180 177 156 140 162 143 126 139 138 146 150 157 149 161 170 165 163 132 134 119 116 111 116 107 133 138 115 134 97 102 148 129 37 52 63 60 65 64 63 60 66 63 69 64 66 64 63 59 69 60 66 61 53 49 48 49 48 49 46 48 50 45 48 49 48 54 48 51 52 45 35 99 134 133 142 77 121 131 146 130 129 122 124 128 134 123 145 156 168 176 176 193 180 165 159 160 158 152 129 157 157 157 166 162 162 151 161 163 150 150 125 121 113 123 108 111 123 120 119 90 92 126 168 114 33 60 58 63 64 62 63 60 67 66 68 63 65 63 65 64 66 62 64 66 45 50 48 48 51 48 47 49 50 47 51 47 53 50 49 52 51 54 34 92 144 142 149 121 94 91 128 113 130 134 137 130 129 123 129 155 161 164 173 186 170 164 163 156 152 148 145 153 152 159 166 159 162 156 162 147 141 144 129 130 115 117 124 114 118 98 97 83 122 124 162 107 43 51 62 59 62 62 64 60 63 63 67 63 63 69 63 66 64 65 62 64 50 47 46 49 48 45 52 47 50 47 53 47 53 50 49 52 49 50 45 69 152 150 143 135 117 60 93 95 111 123 125 119 126 124 131 152 156 161 172 173 170 155 157 157 141 157 165 157 142 153 156 149 150 152 158 152 130 137 135 119 123 107 116 117 107 93 82 101 122 117 162 101 46 59 59 62 58 59 66 54 66 68 64 63 68 62 65 68 64 61 64 61 53 48 49 50 47 49 47 49 50 50 49 45 49 52 50 53 50 53 46 62 149 129 129 135 141 89 76 84 91 106 119 111 126 121 141 139 149 151 164 164 157 158 142 152 139 146 137 148 145 150 146 142 138 133 146 146 136 120 133 113 134 104 102 105 90 89 113 104 129 150 159 91 46 59 60 63 61 60 60 56 64 63 68 61 67 64 64 68 65 65 63 61 51 47 49 50 48 47 47 49 48 52 44 49 50 51 51 52 49 54 51 52 141 120 125 132 136 118 80 77 85 90 108 107 121 124 127 127 142 144 152 156 145 144 140 147 139 134 114 135 146 149 133 136 126 124 127 143 128 130 110 112 134 107 90 109 77 75 129 119 155 140 167 72 53 60 61 61 63 58 60 57 61 63 67 64 66 60 67 61 68 64 66 60 49 54 47 52 47 49 51 49 49 49 47 50 51 50 48 54 50 54 51 41 155 141 139 134 134 127 106 71 84 76 93 97 108 118 116 124 128 146 142 148 136 140 126 138 138 126 105 127 137 141 132 118 116 110 122 127 122 118 114 105 124 93 73 109 84 104 117 132 124 140 170 80 43 62 63 64 62 55 65 55 66 59 69 66 64 63 66 60 64 63 64 59 52 53 47 51 46 49 52 45 51 49 50 46 47 50 49 57 51 51 57 33 147 142 142 126 129 127 112 85 88 84 87 85 82 114 114 118 115 142 136 135 140 134 120 124 135 134 100 113 119 123 128 117 111 109 115 115 107 121 129 97 98 91 79 98 91 110 108 134 126 133 172 75 50 60 60 60 62 55 65 55 66 65 64 69 67 57 68 63 67 64 62 61 51 48 48 47 47 50 52 41 50 49 50 50 52 52 51 51 55 52 55 28 143 134 129 124 128 130 123 90 105 89 91 73 72 95 106 114 110 124 134 140 137 132 119 108 118 123 107 104 110 105 115 111 102 111 99 115 96 121 124 96 97 81 102 96 97 99 109 147 145 145 163 72 56 57 63 63 59 58 59 56 63 61 65 64 69 68 57 69 62 66 65 64 50 47 48 54 46 48 51 49 48 49 51 50 47 55 52 50 55 51 67 25 144 141 143 153 156 141 145 119 93 96 92 88 72 83 104 87 105 118 118 137 129 109 124 110 92 107 100 90 93 103 102 104 101 98 89 109 88 115 112 89 100 87 102 91 111 113 121 150 143 138 176 61 57 60 63 59 63 59 57 61 52 66 63 64 59 67 61 64 68 63 61 64 49 51 49 50 48 50 47 49 51 48 52 44 53 52 53 53 53 53 56 19 131 138 149 153 140 136 152 130 93 93 87 107 94 82 86 78 83 112 108 118 111 89 121 103 82 79 97 75 70 102 85 107 91 86 74 104 85 82 103 82 90 92 105 97 114 112 120 127 127 124 157 71 55 60 61 63 61 65 55 61 52 66 63 65 57 65 61 63 62 70 60 58 48 50 51 47 50 51 46 52 53 50 51 50 49 53 50 49 55 54 61 22 125 147 144 141 127 138 152 150 94 95 95 106 109 80 78 75 76 98 95 109 101 79 104 98 64 78 80 69 58 87 63 100 78 77 71 92 85 85 85 80 97 91 97 111 119 116 116 129 143 127 165 59 60 56 61 60 62 62 61 58 58 59 67 65 63 64 60 62 61 65 64 64 48 51 48 50 47 50 48 52 51 52 50 55 50 53 53 52 55 54 58 20 126 143 144 140 131 139 136 135 127 111 98 113 106 89 88 85 82 89 81 96 86 77 89 89 67 64 70 60 63 71 51 86 71 82 67 84 76 76 77 80 105 102 105 108 117 130 120 134 150 138 162 57 60 57 61 61 59 62 61 60 57 62 67 61 63 68 62 59 64 57 59 68 50 52 51 48 49 50 48 51 52 51 52 54 50 54 51 55 54 56 58 29 109 152 141 141 136 129 117 118 135 119 103 98 85 99 86 96 91 71 77 84 79 69 87 84 70 65 62 63 61 77 52 70 66 73 66 78 70 70 80 79 100 104 104 104 112 119 128 129 137 147 161 56 59 61 62 62 60 61 60 65 58 61 61 62 61 65 67 57 60 62 61 61 50 55 49 50 51 49 49 50 53 51 51 55 51 57 52 60 54 58 57 29 101 152 147 142 133 136 128 129 133 136 115 96 84 94 84 80 85 76 86 68 78 54 72 69 62 61 60 61 61 62 57 52 66 60 63 80 70 63 86 90 101 110 118 116 112 104 131 119 126 145 161 61 57 59 60 63 56 61 59 57 59 56 62 61 60 67 65 55 61 64 67 59 52 50 49 48 53 51 50 53 49 53 53 55 55 53 53 56 57 54 56 31 98 153 144 146 136 124 131 146 118 125 136 105 94 95 97 81 80 81 96 67 85 66 64 59 54 55 45 52 60 46 54 48 53 54 67 82 67 66 87 93 110 115 113 109 113 133 138 133 134 147 169 61 52 63 61 58 58 61 58 56 59 55 61 62 60 61 61 61 61 63 65 60 52 49 50 48 51 50 53 49 56 52 50 55 55 51 57 55 58 53 55 31 91 153 143 132 125 122 131 141 138 108 125 117 121 86 112 112 100 96 100 81 107 90 84 71 67 54 52 46 52 48 51 55 48 51 66 85 84 71 78 102 103 114 113 111 133 121 150 135 151 137 178 70 49 64 57 60 57 56 62 51 61 58 61 58 64 61 64 59 64 61 66 67 