P2
92
112
15
3 2 3 3 3 3 3 3 3 3 3 3 3 3 3 3 3 3 3 3 4 4 5 3 3 3 3 4 3 3 3 3 3 3 3 4 3 4 3 3 3 4 4 3 4 4 4 3 4 6 7 6 5 6 5 4 3 3 3 3 3 4 3 3 3 3 4 3 3 3 3 3 3 3 3 3 3 3 3 3 3 3 3 3 3 3 3 3 3 3 3 3 3 3 3 3 3 3 3 3 3 3 3 3 3 3 3 3 3 4 3 4 3 3 4 5 4 3 3 3 3 3 3 3 3 3 3 3 4 3 3 3 3 3 4 4 4 4 5 6 7 7 7 6 6 6 6 5 4 4 4 4 4 3 3 3 3 3 4 3 3 3 3 3 3 3 3 3 3 3 3 3 3 3 3 3 3 3 3 3 3 3 3 3 3 2 3 3 3 3 3 3 3 3 3 3 3 3 3 3 3 3 4 4 3 3 3 4 4 3 4 3 3 3 3 4 3 3 3 3 3 3 3 4 4 4 6 6 5 6 5 6 6 7 7 6 7 6 6 5 5 4 4 4 4 4 4 3 3 3 4 3 3 3 3 3 3 3 3 3 3 3 3 3 3 3 3 3 3 3 3 3 3 3 4 3 3 3 3 3 3 3 3 3 3 3 3 3 3 3 3 3 3 3 3 3 3 3 3 3 3 4 4 3 4 4 4 4 3 3 3 3 3 3 4 5 5 5 6 7 6 4 5 5 6 6 6 6 6 6 5 6 6 5 4 5 4 5 4 4 4 4 3 4 3 3 3 3 3 3 3 3 3 3 3 3 3 3 3 3 3 3 3 3 3 3 4 3 3 3 3 3 3 3 3 3 3 3 3 3 3 3 3 3 3 3 3 4 4 4 4 4 4 4 4 4 4 4 4 3 3 3 3 4 4 5 5 5 5 5 6 5 5 5 6 6 6 6 6 5 6 6 5 6 5 5 5 4 4 4 4 4 4 4 4 3 3 3 3 3 3 3 3 3 3 3 3 4 3 3 3 3 3 3 3 3 3 3 3 3 3 3 3 3 3 3 3 3 4 3 3 3 3 3 3 3 3 3 3 3 4 5 4 4 4 4 4 4 4 4 4 3 4 4 4 4 4 5 5 6 5 5 6 5 6 6 7 6 6 6 6 6 6 6 5 5 5 4 4 4 5 5 4 4 4 4 4 3 3 4 3 3 3 3 3 3 3 3 3 4 3 3 3 3 3 4 4 3 3 3 3 4 3 3 3 3 3 3 3 3 3 3 3 3 3 3 3 3 3 3 3 4 4 4 5 5 4 4 4 4 4 4 4 4 5 4 5 5 5 5 5 5 5 5 5 4 6 5 6 6 6 7 7 7 6 7 6 5 6 5 4 4 5 5 4 5 4 4 4 3 3 4 3 3 3 3 3 3 3 3 3 4 3 3 3 3 3 4 3 3 3 3 3 3 3 3 3 3 3 3 3 3 3 3 3 3 3 3 4 3 3 4 5 4 4 4 5 5 4 5 4 4 4 4 5 5 4 5 5 5 5 5 5 5 4 4 4 4 5 6 5 6 6 6 6 6 6 6 6 6 6 6 6 5 5 4 5 4 5 5 4 4 4 4 4 4 4 3 3 4 3 3 3 4 4 3 4 3 3 3 3 3 3 3 3 3 3 3 3 3 3 3 3 2 3 3 3 3 3 3 3 3 3 3 4 5 5 5 5 4 3 3 4 3 4 4 4 4 4 6 5 5 5 5 5 4 4 4 4 4 5 5 4 5 6 5 6 5 6 6 6 6 6 6 6 6 6 5 5 6 6 5 5 4 4 5 4 4 4 4 3 3 3 3 4 3 4 4 4 4 4 4 3 3 3 3 3 4 3 3 3 3 3 3 3 3 3 3 3 3 3 3 3 3 4 4 5 5 5 4 4 5 4 4 4 4 4 4 4 5 6 6 4 4 4 4 4 4 4 4 3 3 5 4 4 5 5 5 5 6 5 4 5 5 5 5 5 5 6 5 4 5 6 5 5 4 4 4 4 3 4 4 3 4 3 3 4 3 4 3 4 4 4 4 3 3 3 3 3 3 3 3 3 3 3 3 3 3 3 3 3 3 3 3 4 4 4 5 4 5 5 4 5 5 4 4 4 4 4 5 5 6 6 5 3 4 4 4 4 4 3 3 3 3 4 3 3 4 5 6 6 6 5 5 5 5 5 5 6 5 5 5 5 4 5 6 4 5 5 4 3 4 4 4 3 3 3 3 4 4 4 3 4 4 4 4 3 4 3 4 4 3 3 3 3 3 3 3 3 3 3 4 3 3 4 4 3 3 3 4 4 4 3 4 3 4 4 4 5 4 4 5 6 6 5 4 4 4 4 4 4 4 4 4 3 3 4 3 4 4 5 5 5 6 6 6 5 5 5 5 6 5 5 5 5 4 4 5 5 5 5 4 4 4 3 4 3 3 4 4 3 3 3 4 4 4 3 3 3 4 3 4 4 3 3 3 3 3 3 3 3 3 3 4 4 3 3 4 3 4 4 4 3 4 3 4 4 4 5 5 5 5 6 6 6 5 4 4 5 5 5 6 6 6 5 5 4 4 5 4 4 6 6 5 5 6 6 6 6 5 5 5 6 5 4 4 5 4 4 5 4 5 5 5 4 4 4 3 3 3 4 3 4 3 4 4 4 3 3 4 3 3 3 4 3 4 3 3 3 3 3 4 3 3 3 4 4 3 3 4 3 4 3 3 3 4 3 4 4 5 5 6 6 5 5 5 4 4 4 4 4 5 5 6 6 5 5 5 4 4 6 6 6 6 6 6 6 5 5 5 6 5 5 4 4 4 4 4 5 4 4 4 4 5 5 6 5 5 4 4 3 3 3 3 4 4 4 3 4 4 4 4 3 3 4 3 3 4 3 3 3 3 3 4 3 4 3 3 3 3 3 4 4 3 3 3 3 4 4 4 5 5 6 6 6 5 5 5 4 5 3 4 4 5 5 4 4 4 5 4 4 4 5 6 7 7 6 6 6 6 5 5 6 5 5 5 4 4 4 4 4 4 4 4 4 5 5 5 5 6 3 5 4 3 4 4 4 3 4 4 4 4 3 3 4 3 4 3 4 3 3 3 3 3 4 5 4 3 3 3 3 3 3 4 4 3 3 3 4 4 3 5 4 5 6 5 5 5 4 4 4 5 4 3 4 5 5 3 4 3 4 4 4 4 4 5 6 6 7 6 6 7 7 6 6 6 5 5 5 4 4 4 4 4 4 4 5 5 6 6 6 6 7 5 4 4 3 4 4 4 4 4 4 4 3 4 4 3 3 3 3 4 3 3 3 3 3 5 3 3 3 3 3 3 3 5 4 3 3 4 4 4 4 5 5 5 5 5 5 5 5 4 4 3 3 2 5 3 3 4 4 3 4 3 3 3 3 4 5 5 6 6 6 6 5 5 5 5 4 4 4 4 5 5 5 4 5 4 6 7 6 6 5 5 5 5 5 4 4 4 4 4 3 3 3 3 3 3 4 3 4 4 4 3 3 3 3 3 3 4 3 3 3 3 4 4 4 4 4 4 4 4 4 3 4 4 4 4 5 5 5 4 4 4 4 3 3 3 5 4 3 4 3 3 3 2 2 3 3 3 4 5 5 6 6 6 5 6 5 6 4 5 3 4 4 4 4 3 4 5 4 5 5 5 5 6 5 5 6 4 4 4 4 4 4 4 3 3 4 3 3 3 4 3 3 4 3 3 3 3 3 3 3 3 3 3 3 3 3 3 3 4 3 4 4 4 4 3 4 5 5 5 5 4 4 4 4 3 4 3 5 5 4 4 3 3 2 2 3 2 2 2 3 4 5 5 5 6 6 5 5 6 5 4 4 5 4 5 5 4 5 4 4 4 3 5 7 4 5 5 6 6 4 4 4 3 4 4 4 4 3 3 4 3 3 3 3 4 3 3 3 3 3 3 3 3 3 3 3 3 3 3 4 4 5 5 4 4 5 4 4 5 6 5 5 5 4 4 5 4 4 4 5 6 4 3 4 3 2 2 3 2 2 2 2 3 3 5 5 5 6 6 6 5 5 6 6 5 5 5 4 4 4 4 3 4 5 7 6 4 6 5 5 6 6 4 5 4 4 4 4 3 4 3 4 3 3 3 3 3 3 4 3 4 3 3 3 3 3 4 3 3 4 3 4 4 4 5 4 4 5 4 4 5 5 5 5 5 5 5 5 4 4 4 3 5 4 3 4 4 3 3 3 3 3 2 3 3 3 3 4 5 5 6 5 5 5 5 7 5 5 5 4 5 5 5 6 7 7 6 4 4 5 6 5 6 5 5 4 5 4 4 3 3 4 3 3 3 3 3 4 3 3 3 3 4 3 3 3 3 3 3 3 3 4 4 4 4 4 5 5 4 5 5 4 5 5 5 5 6 6 6 5 4 4 4 3 4 5 4 4 4 3 3 3 3 2 3 3 3 2 4 3 3 3 5 5 4 5 5 6 5 5 6 5 5 5 5 6 7 6 5 4 5 5 6 5 5 6 6 5 4 5 4 4 3 4 3 3 3 3 3 3 3 3 3 3 4 4 3 3 3 3 4 4 3 4 4 4 4 4 4 5 4 4 4 4 3 4 5 5 5 5 6 5 4 3 4 4 5 5 4 3 4 3 3 3 3 2 3 3 3 3 3 4 4 3 3 4 4 4 4 4 5 6 6 6 6 6 6 7 6 5 5 5 5 5 6 6 6 6 7 6 5 5 6 6 4 4 3 4 3 3 3 3 4 3 3 3 4 3 3 2 3 3 3 4 4 4 4 4 5 5 5 5 4 5 4 4 4 4 4 5 5 6 6 5 3 3 4 5 4 4 4 4 4 4 3 3 3 3 3 3 3 3 3 4 3 4 4 3 2 4 4 4 4 4 5 4 4 6 6 6 5 5 5 6 6 5 6 6 6 6 6 6 4 6 7 7 5 5 4 3 3 3 3 3 4 3 3 3 4 3 3 3 3 3 3 3 4 4 5 5 5 5 5 5 5 5 4 4 4 5 6 6 6 4 4 4 4 4 5 5 4 4 4 4 4 4 4 4 4 4 4 4 3 4 4 4 4 4 4 3 3 3 4 3 3 4 3 4 4 4 3 5 6 5 5 4 5 5 5 6 6 6 6 6 6 5 6 6 6 5 4 3 3 4 4 3 3 3 3 4 3 3 3 3 4 4 4 4 4 4 5 5 6 6 6 5 5 5 5 5 5 5 5 6 5 4 5 5 5 5 5 5 4 4 5 6 5 6 5 5 5 5 4 4 4 5 4 5 4 4 5 5 4 3 4 4 3 3 4 3 3 4 4 3 3 4 4 3 4 5 5 6 6 6 6 6 6 6 5 7 6 6 5 4 4 4 3 3 3 3 4 4 3 3 4 3 4 4 4 5 4 5 5 5 6 5 5 5 5 4 5 5 4 5 5 6 6 5 5 4 5 5 5 6 6 6 7 7 6 7 7 7 7 6 6 6 6 6 6 5 6 6 6 6 5 5 4 4 4 3 4 4 3 3 4 3 4 3 4 4 5 4 5 5 6 6 5 7 5 5 5 6 6 5 5 5 4 3 3 3 3 3 3 4 4 4 5 4 5 5 5 5 6 5 5 5 6 6 5 5 5 4 4 5 5 5 5 5 5 5 5 6 5 5 6 8 8 9 8 8 9 9 8 9 8 8 8 8 8 7 6 6 7 7 7 7 7 6 5 5 5 4 4 3 3 3 4 3 4 4 4 5 6 5 5 6 5 5 4 5 5 6 6 5 5 6 6 4 4 4 4 3 3 3 3 3 4 5 5 5 5 6 5 5 5 5 5 5 5 5 4 4 5 4 4 4 5 6 6 7 6 6 6 6 7 6 8 9 9 10 9 9 10 10 10 10 9 9 10 10 9 9 8 8 8 8 8 8 7 7 7 6 6 6 5 4 4 3 3 3 3 3 4 4 4 5 5 5 4 4 5 4 5 6 6 5 6 6 6 5 4 4 4 3 3 3 4 3 3 4 5 5 5 5 5 5 5 4 4 4 4 4 3 3 3 4 4 4 6 7 8 8 8 8 8 9 9 9 9 9 10 10 10 10 10 10 10 10 10 10 10 10 11 10 10 10 9 9 9 9 8 8 8 8 7 7 7 6 5 4 3 3 3 3 2 3 3 3 4 4 5 5 5 4 5 5 5 6 6 6 5 6 5 4 3 3 4 4 3 3 3 4 5 5 5 5 5 4 5 4 4 4 3 4 4 3 2 3 5 6 8 9 8 8 9 9 9 10 10 10 10 11 11 10 11 11 11 11 11 10 11 10 11 10 11 11 11 11 11 10 10 10 10 10 10 9 9 8 8 8 6 6 4 2 3 3 3 3 3 3 4 4 4 4 4 4 4 5 6 6 6 6 5 4 5 5 4 3 4 4 4 4 4 5 5 5 5 5 4 4 3 4 4 4 3 3 4 2 2 4 7 8 9 9 9 10 10 10 11 11 11 11 11 11 11 11 11 11 11 11 11 11 11 11 11 11 11 11 11 11 11 11 11 11 11 11 11 10 10 9 9 10 8 7 5 3 2 2 3 3 4 3 3 4 4 4 4 5 5 5 6 6 6 6 4 5 4 4 4 4 4 4 4 4 4 5 5 5 5 4 4 4 3 3 3 3 3 3 3 2 2 6 9 10 10 10 10 10 10 11 11 11 12 11 11 11 11 11 11 11 11 11 11 11 11 11 11 11 11 11 11 11 11 11 11 11 11 11 11 11 11 11 10 10 10 9 6 5 2 2 2 2 2 3 3 4 5 4 4 5 5 5 6 6 6 6 4 3 4 3 4 4 4 3 3 4 4 4 4 5 4 4 4 4 3 3 3 3 3 3 2 3 3 7 10 10 10 10 10 10 11 11 11 11 12 11 12 12 11 12 11 11 11 11 11 11 11 11 11 11 11 11 11 11 11 11 11 11 11 11 11 11 11 10 11 11 11 10 8 6 4 1 2 2 3 3 3 4 4 4 3 4 4 4 5 6 6 5 5 3 4 4 3 3 4 3 3 4 3 4 4 4 4 3 3 3 3 2 3 3 2 2 3 2 4 9 10 10 10 10 11 11 12 12 12 12 12 12 12 12 12 12 12 11 11 11 11 11 11 11 11 11 11 11 11 11 11 11 11 11 11 11 12 11 12 11 11 11 12 11 11 8 7 4 1 1 2 3 4 3 3 3 2 3 3 3 4 5 6 6 5 3 4 4 3 3 4 3 4 4 3 4 3 4 4 4 3 3 3 3 2 3 2 3 3 3 5 10 10 10 10 11 11 11 12 12 12 12 12 12 12 12 12 11 11 11 11 11 11 11 11 11 11 11 11 11 11 11 11 11 11 11 11 12 12 11 12 11 11 12 12 12 11 11 10 8 2 2 1 1 2 2 3 3 2 3 2 3 3 4 4 4 6 4 4 4 3 4 4 3 3 4 3 4 4 5 5 4 3 3 3 3 3 2 2 3 3 4 6 10 10 10 10 11 11 11 12 12 12 12 12 12 12 12 12 12 11 11 11 11 11 11 11 11 11 11 11 11 11 11 11 11 11 11 11 11 11 11 11 11 11 11 12 12 11 12 12 11 7 2 1 1 1 2 2 2 2 3 2 2 4 5 6 4 5 5 3 4 3 3 4 3 3 3 3 4 5 5 5 3 3 3 3 3 3 2 3 3 4 4 7 11 10 10 11 11 11 11 12 12 12 12 12 12 12 12 12 12 11 11 11 11 11 11 11 11 11 11 11 11 11 11 11 11 11 11 11 11 11 11 11 11 11 11 12 11 11 12 12 12 11 5 1 1 1 1 2 2 2 2 2 3 4 4 5 5 4 6 4 4 3 4 4 3 3 3 3 3 3 5 4 3 2 2 3 3 3 2 3 3 4 5 9 10 10 10 11 11 11 11 12 12 12 12 12 12 12 12 12 12 12 12 11 11 11 11 11 11 11 11 11 11 11 11 11 11 11 11 11 11 11 11 11 11 11 11 11 11 11 12 12 12 13 9 2 1 2 2 2 2 2 3 2 3 4 3 4 5 4 5 4 4 3 4 4 3 3 3 3 3 2 4 3 4 3 3 3 3 2 3 3 4 5 5 10 10 11 11 11 11 11 11 12 12 12 12 12 12 12 12 12 12 12 12 11 11 11 11 11 11 11 11 11 11 11 11 11 12 11 11 11 11 11 11 11 11 11 11 11 11 11 12 12 12 12 11 5 1 1 1 2 2 2 2 2 3 3 4 5 6 4 5 4 4 4 4 4 3 3 2 3 1 3 4 4 3 3 3 3 3 2 4 3 4 5 7 11 10 11 11 11 12 11 12 12 12 12 12 12 12 12 12 12 12 12 12 12 12 11 11 11 11 11 11 11 11 11 11 11 11 11 12 12 12 11 11 11 11 11 11 11 11 12 12 12 12 12 13 8 2 2 1 1 2 2 2 2 2 3 3 4 6 6 4 4 3 4 4 3 3 3 3 2 3 4 5 4 3 3 3 3 2 3 4 3 5 5 9 10 11 11 11 11 12 11 11 12 12 12 12 12 12 12 12 12 12 12 12 12 12 11 11 11 11 11 11 11 11 11 11 12 11 11 11 11 11 11 11 11 11 11 12 11 11 11 12 12 12 12 13 12 5 2 2 2 2 2 2 2 2 3 4 3 5 6 5 4 4 3 4 3 3 3 3 2 4 4 4 3 3 3 3 3 2 3 3 4 6 6 10 10 11 11 11 11 11 11 12 11 12 11 12 12 12 12 12 12 12 12 12 12 12 11 12 11 11 12 12 11 11 11 12 12 11 11 11 11 11 11 11 11 11 11 12 12 11 11 12 12 12 12 12 13 9 3 3 2 2 2 2 2 2 4 4 4 6 4 6 4 4 4 3 4 4 3 3 3 3 2 3 3 3 3 3 3 2 4 4 5 6 7 11 10 11 11 11 11 11 11 12 11 12 11 12 12 12 12 12 12 12 12 12 12 12 12 11 11 12 12 12 12 12 12 11 12 11 11 11 12 11 11 11 11 11 11 11 11 11 11 11 12 12 12 12 13 13 3 5 2 3 3 2 2 3 2 3 3 5 5 6 5 4 4 4 3 3 3 2 2 2 2 4 3 3 3 3 3 3 4 4 5 5 9 11 10 11 11 11 11 11 11 11 11 12 11 11 11 12 12 12 12 12 12 12 12 12 12 11 12 12 12 12 12 11 12 11 11 11 11 11 11 10 10 11 10 10 10 10 11 11 11 11 11 11 12 13 12 14 5 5 3 2 4 3 1 3 2 3 4 4 5 5 6 5 3 3 4 2 2 1 3 2 3 5 4 3 3 2 3 5 4 4 6 6 10 10 10 11 11 11 10 10 9 9 10 10 10 10 10 10 10 11 11 11 12 12 12 12 12 12 11 12 11 11 12 11 11 11 10 10 9 8 8 8 8 8 8 8 8 8 9 9 9 11 11 12 12 12 12 13 9 5 3 2 4 4 2 2 2 3 3 4 3 5 7 5 3 4 4 3 1 2 2 2 3 4 4 3 2 2 2 6 5 4 6 7 10 9 10 11 11 10 8 8 9 9 8 8 8 7 7 7 7 9 9 9 10 11 11 11 12 11 11 11 11 11 11 10 10 9 9 7 7 6 6 6 6 5 6 6 6 7 7 8 8 8 10 12 12 12 12 13 12 5 4 3 3 4 4 2 3 3 3 4 3 5 6 6 4 3 4 3 2 1 2 2 3 4 4 2 3 3 2 5 4 4 6 9 11 9 11 11 10 8 7 8 8 7 8 6 5 5 6 6 5 6 7 6 8 9 10 11 12 11 11 11 11 10 10 9 8 8 7 6 6 5 5 4 4 4 4 5 5 6 7 7 8 9 8 9 12 12 12 12 13 6 4 2 3 2 3 4 3 3 2 4 3 5 4 5 5 4 4 3 2 1 2 2 3 4 3 2 4 3 2 4 2 4 7 10 10 10 11 10 7 7 8 9 9 9 10 9 7 6 6 5 5 5 6 6 7 7 9 11 12 12 11 12 11 11 10 9 8 8 6 6 5 5 5 4 4 5 5 7 8 9 9 9 10 10 10 9 9 12 12 12 14 8 3 2 3 2 2 2 3 3 4 4 4 3 5 3 5 4 4 3 2 3 2 2 3 3 2 4 3 1 2 3 1 4 9 10 10 10 11 8 8 10 11 10 11 12 11 11 10 9 9 8 7 7 7 8 8 8 8 11 12 12 12 11 12 12 11 10 9 8 7 6 6 6 5 6 7 7 8 9 9 10 10 10 11 11 11 10 8 9 12 12 13 10 2 3 2 2 2 2 2 3 3 4 3 4 5 3 5 3 4 3 2 2 2 2 2 2 3 4 2 1 3 4 1 4 10 10 10 11 9 7 9 11 12 11 11 12 12 11 10 10 10 9 8 8 8 9 9 9 10 11 12 12 12 12 12 12 12 12 11 9 7 6 5 5 5 7 9 9 9 10 10 10 10 10 11 12 11 11 11 9 11 12 13 12 2 2 3 3 2 3 2 3 3 4 4 4 5 4 4 4 4 2 2 2 2 2 2 2 3 3 1 1 4 4 1 6 11 10 11 11 9 10 10 11 11 11 11 12 12 11 10 9 9 9 8 8 7 8 8 8 9 11 12 12 12 12 12 12 12 13 12 8 6 5 5 5 5 6 8 8 8 9 10 9 10 10 12 12 11 11 11 11 11 12 12 14 4 2 3 3 3 3 2 3 3 4 4 3 4 4 4 4 4 2 2 2 2 1 2 2 2 2 1 0 4 4 2 8 11 11 11 10 10 11 11 11 10 11 11 11 11 9 9 9 8 8 8 7 7 7 7 8 8 10 12 12 12 12 12 12 13 12 11 6 4 5 5 5 4 5 6 8 7 8 9 9 9 9 12 12 11 10 11 12 11 11 12 14 7 2 2 3 3 2 2 3 3 5 4 4 4 4 4 4 4 1 1 2 2 2 2 2 2 1 1 1 4 4 2 10 11 11 11 11 11 11 11 10 10 10 9 10 10 9 9 8 8 7 7 7 7 6 6 7 8 9 11 12 12 12 12 11 13 13 10 5 5 5 5 5 5 5 6 7 7 7 8 9 10 10 10 11 12 10 11 11 12 12 12 13 10 3 3 2 2 2 2 3 3 4 3 4 4 4 4 4 4 1 1 2 1 1 2 2 2 2 1 2 3 2 3 10 11 11 11 11 11 11 11 10 9 9 10 10 8 6 4 5 5 4 6 6 6 6 5 6 10 9 11 12 12 12 12 11 12 12 9 5 7 5 5 4 4 4 4 3 2 5 3 5 7 10 12 10 11 11 10 11 12 12 12 13 13 3 4 2 2 2 1 3 2 3 3 3 4 3 4 4 4 1 2 2 2 1 1 2 2 2 2 2 3 1 6 11 11 11 11 11 11 11 11 10 8 8 8 8 3 10 4 2 7 2 9 6 6 6 7 6 9 9 11 12 12 12 12 11 12 12 11 5 8 6 4 3 3 5 4 4 1 2 3 1 6 5 8 10 10 11 11 11 12 12 12 12 14 6 3 3 2 2 2 2 2 3 3 3 3 3 4 3 4 1 2 2 1 1 1 2 1 2 2 2 2 1 9 11 11 12 11 11 11 11 11 9 8 6 6 11 6 5 5 1 5 3 10 8 6 7 7 9 9 11 11 11 11 12 12 11 12 12 12 8 7 6 5 5 4 6 6 3 3 1 2 2 9 8 4 6 9 12 11 11 12 12 12 12 14 9 3 3 3 2 1 2 2 3 3 2 3 3 4 4 4 1 1 2 2 2 2 2 2 1 2 2 2 3 10 11 11 12 12 11 11 11 10 8 7 6 7 10 11 4 4 3 5 6 10 9 7 8 8 9 10 11 10 11 11 13 12 11 12 12 12 12 7 7 6 5 5 6 6 5 4 4 3 5 9 9 8 9 8 11 11 11 12 12 12 12 13 11 4 3 2 2 1 2 2 2 5 3 4 4 3 4 4 1 1 1 2 2 2 2 1 2 3 2 2 5 11 11 12 12 12 12 11 11 10 9 8 8 9 10 11 10 7 7 7 8 8 8 8 8 7 10 11 11 10 11 12 12 12 11 11 11 12 12 11 7 6 6 6 6 6 6 6 7 7 8 9 10 12 11 11 11 11 11 12 12 12 12 13 13 5 4 3 2 2 3 2 2 3 3 3 4 3 4 4 2 1 1 1 2 2 2 2 2 3 2 3 6 11 11 12 12 12 12 11 11 10 10 10 9 10 10 12 11 9 8 8 8 8 8 8 8 9 11 11 11 10 12 12 12 12 12 12 11 11 12 12 12 7 6 6 6 6 6 6 7 7 8 9 10 12 12 12 12 11 11 12 12 12 12 13 13 5 4 3 3 2 3 2 3 3 2 2 5 4 3 4 3 1 1 1 2 2 2 2 2 2 2 2 7 11 11 12 12 12 12 12 11 11 11 11 11 11 11 11 10 9 9 9 9 9 9 8 10 11 11 11 11 11 12 12 12 12 12 12 11 11 12 12 12 11 9 7 7 8 8 7 8 8 8 9 10 11 12 12 12 11 11 12 12 12 12 13 13 6 4 4 3 3 5 3 3 3 2 1 4 4 4 4 3 3 1 1 1 2 3 2 2 2 2 2 7 11 11 12 12 12 12 12 11 11 11 11 11 11 11 11 11 11 11 10 10 10 10 10 11 11 11 11 11 12 12 12 12 12 12 12 12 11 11 12 12 12 12 10 8 8 9 9 9 9 10 10 10 11 12 12 11 11 11 12 12 13 12 13 13 8 4 4 3 5 6 8 2 2 2 2 3 4 4 4 3 3 2 1 1 6 6 3 3 2 1 2 7 11 11 12 12 12 12 12 12 11 12 12 11 12 12 12 12 11 11 11 11 10 11 12 11 11 11 11 11 12 12 12 12 12 12 11 12 12 11 12 12 12 12 11 11 10 9 9 9 10 10 10 11 11 11 11 11 11 12 12 12 12 12 13 13 9 3 4 4 6 6 9 3 3 3 2 4 4 4 4 3 3 3 1 6 9 8 5 6 4 2 2 7 11 11 11 12 12 12 12 12 12 12 12 11 11 11 11 11 11 11 11 11 11 12 12 11 11 11 11 11 12 12 12 12 12 12 11 12 12 11 11 12 12 12 11 11 11 11 10 9 10 10 10 10 11 11 11 12 11 12 12 12 13 12 12 14 8 3 4 7 6 3 5 4 2 5 3 2 4 4 4 3 3 3 2 8 7 6 8 7 6 3 2 6 11 11 11 12 12 12 12 12 12 12 12 12 12 12 12 11 11 12 12 12 12 12 12 12 11 10 11 11 12 12 12 12 12 12 11 12 12 11 11 11 12 12 11 11 11 11 11 11 10 10 10 11 11 11 11 12 12 12 12 12 13 12 12 13 9 2 4 9 4 3 5 4 2 5 3 3 3 4 4 3 3 2 2 9 4 5 7 9 7 4 1 6 11 11 11 12 12 12 12 12 12 12 12 12 12 12 12 12 12 12 12 12 12 12 12 12 11 10 11 11 12 12 12 11 11 12 12 12 12 11 11 11 12 12 11 11 11 11 11 11 11 11 11 11 11 12 12 12 12 12 13 13 12 12 12 13 9 3 5 10 5 3 5 4 2 4 3 3 4 4 3 3 3 3 1 9 5 5 7 8 7 4 2 5 10 11 11 11 12 12 12 12 12 12 12 12 12 12 12 12 12 12 13 12 12 12 12 11 11 11 11 11 11 13 12 11 11 12 11 12 13 11 11 11 12 11 11 11 10 10 11 11 11 11 11 11 12 12 12 12 12 12 12 13 12 12 12 13 8 4 5 11 6 3 6 3 4 2 4 3 4 4 4 3 3 3 1 8 7 5 8 8 10 5 2 4 9 10 11 11 12 12 12 12 12 12 12 12 12 12 12 12 12 12 13 12 12 12 12 11 11 11 11 11 11 12 12 10 10 10 10 11 11 11 11 12 12 10 9 10 10 9 11 11 11 11 11 11 12 12 12 12 12 12 12 12 12 12 12 12 7 5 4 9 6 2 7 3 4 2 4 4 4 4 4 3 3 3 2 5 10 5 8 10 10 7 4 2 8 10 10 11 11 12 12 12 12 12 12 12 12 12 12 12 13 12 12 12 12 12 12 11 11 11 11 10 10 10 12 10 10 9 9 10 10 10 10 11 12 9 8 9 9 9 10 10 11 11 11 11 12 12 12 12 12 12 12 12 12 12 12 11 6 3 8 8 9 3 7 3 4 3 4 4 4 4 4 3 2 3 2 1 11 5 8 10 9 7 6 1 6 10 10 11 11 12 12 12 12 12 12 12 12 12 12 12 12 12 12 12 12 12 11 10 11 11 9 8 9 10 11 9 9 9 8 10 9 6 7 9 11 9 8 8 8 8 9 10 10 11 11 11 11 12 12 12 12 12 12 12 12 12 12 10 5 3 7 8 12 5 7 4 3 4 4 4 4 3 4 3 2 3 3 1 6 9 7 10 10 8 5 2 4 10 10 11 11 12 12 12 12 12 12 12 12 12 12 12 12 12 12 12 11 11 11 10 10 9 4 4 6 9 10 8 8 8 8 10 6 2 3 7 10 9 8 8 8 8 8 9 10 10 11 11 11 12 12 12 12 12 11 12 12 12 12 10 4 5 5 8 12 7 5 2 3 4 3 4 3 4 3 3 3 3 2 3 2 10 8 11 10 9 7 6 4 8 10 11 11 12 12 12 12 12 12 12 12 12 12 12 12 12 12 11 11 10 11 10 10 8 6 9 10 10 10 9 6 8 8 9 7 6 5 7 10 9 8 8 8 8 8 8 9 10 10 11 11 12 12 12 12 11 10 12 12 12 12 8 5 6 6 7 12 10 2 2 3 3 4 4 4 3 4 3 2 3 3 3 1 9 9 12 9 9 8 7 8 6 10 10 11 12 11 12 11 12 12 12 12 12 12 12 12 12 12 11 10 10 11 11 10 10 8 9 9 9 10 10 6 6 9 9 8 8 8 9 10 10 9 8 8 8 8 8 9 10 10 10 11 11 11 11 12 11 11 12 12 12 12 7 5 6 6 7 12 13 1 3 4 4 4 3 4 3 4 2 3 3 3 3 1 5 10 12 8 8 9 8 10 6 9 10 11 12 11 11 11 12 12 12 12 12 12 12 12 12 11 11 10 11 11 11 11 10 10 10 9 9 10 10 8 6 10 10 10 10 10 10 11 11 10 9 8 8 8 8 9 9 10 10 10 10 11 11 12 11 11 11 11 12 11 7 6 6 6 7 12 12 1 3 4 4 4 4 4 4 4 2 3 3 3 3 2 2 10 11 8 7 9 9 10 6 8 10 11 11 11 11 12 12 12 12 12 12 12 12 12 12 11 11 11 11 11 11 11 10 10 9 10 8 10 9 8 7 9 9 8 8 10 11 11 11 11 10 9 9 8 8 8 9 10 10 10 10 11 11 11 11 11 11 11 12 11 8 7 10 8 9 13 10 1 4 4 3 4 4 4 4 4 2 2 3 3 3 3 0 8 11 9 6 9 8 10 8 8 10 11 11 11 11 12 12 12 12 12 12 12 12 12 12 12 12 11 11 11 11 11 11 9 8 9 8 9 8 8 8 8 9 9 7 9 10 10 11 11 11 10 10 9 9 9 9 10 10 10 10 11 11 11 11 11 11 11 12 9 9 10 12 12 11 13 7 2 4 4 4 4 4 4 4 4 2 3 2 3 3 3 1 6 10 11 9 10 10 9 8 8 10 11 11 11 12 12 12 12 12 12 12 12 12 12 12 12 12 12 12 11 11 10 10 8 8 8 8 9 7 8 8 9 9 9 8 9 10 10 10 10 10 11 11 10 10 10 9 9 10 10 10 11 11 11 11 11 11 11 11 9 9 12 13 12 11 13 4 3 4 3 4 3 4 4 4 4 2 3 2 3 3 3 3 2 10 10 10 11 12 12 9 7 10 10 11 11 11 12 12 12 12 12 12 12 12 12 12 12 11 11 11 10 9 10 9 7 9 8 8 8 8 6 8 9 9 8 8 9 8 9 9 9 9 10 10 10 11 11 10 10 11 10 10 11 11 11 11 11 11 11 11 9 9 11 13 12 12 11 2 4 4 3 4 4 4 4 4 4 3 3 2 3 2 3 3 1 6 10 10 11 12 11 10 6 9 10 11 11 11 12 11 12 12 12 12 12 12 12 12 11 10 10 10 10 9 9 9 7 9 8 8 9 7 6 8 9 9 8 8 8 8 8 9 8 8 9 10 10 10 11 11 10 10 10 10 11 11 11 11 11 11 11 12 8 9 12 12 12 13 6 3 4 4 4 4 3 4 4 4 4 3 2 3 3 2 3 2 3 2 9 10 11 11 11 12 6 8 9 10 11 11 12 11 12 12 12 12 12 12 12 11 10 9 9 9 9 9 8 9 8 9 9 8 9 7 7 9 9 9 8 8 8 8 8 8 7 7 7 8 9 11 10 12 11 10 10 11 11 11 11 11 11 11 11 12 7 10 12 12 12 10 3 3 4 4 3 3 3 4 3 4 4 3 3 3 3 3 3 2 2 2 4 9 10 10 11 12 8 7 10 10 10 11 11 11 11 12 12 12 12 12 11 11 8 9 9 9 8 9 8 9 9 8 10 11 10 9 9 10 10 9 9 9 9 8 7 8 7 7 7 8 9 11 10 10 12 11 11 11 10 11 11 11 10 11 11 10 8 11 12 12 12 6 2 4 4 4 3 3 4 4 4 4 4 3 3 3 3 2 2 2 3 2 2 7 10 10 11 11 9 7 9 10 10 10 11 12 12 12 12 12 12 11 11 9 8 9 9 9 8 9 9 10 9 9 10 10 9 9 9 8 8 8 8 8 9 9 8 8 7 6 7 7 8 10 11 9 12 11 11 11 11 11 11 11 11 10 11 10 8 11 11 11 9 4 2 4 4 4 4 3 3 4 4 4 3 2 3 3 3 2 2 3 3 2 2 2 8 9 10 11 10 6 9 10 10 11 10 11 11 12 12 12 12 10 9 9 9 8 8 9 8 9 8 9 9 8 8 8 8 7 8 7 6 7 6 7 7 7 7 6 6 5 5 8 7 9 10 9 11 12 11 11 11 11 11 11 11 10 11 10 7 10 9 8 4 3 3 4 4 3 4 3 3 3 4 4 4 3 3 3 3 2 3 2 3 2 2 2 3 7 9 9 10 6 9 10 10 10 11 11 11 12 12 12 12 10 9 10 9 8 7 6 7 8 8 8 8 7 7 7 7 6 6 6 5 5 5 6 6 5 5 4 4 3 5 7 7 8 9 9 11 12 12 11 11 11 11 11 11 11 11 10 5 5 4 4 4 4 3 3 4 4 4 3 3 3 4 4 4 3 2 3 2 3 2 2 3 2 2 2 2 3 4 5 5 3 7 10 10 10 11 11 11 11 11 12 11 11 9 10 9 8 6 4 5 7 6 6 7 7 7 7 7 6 6 6 6 7 7 7 7 7 6 5 5 6 5 7 7 8 8 9 11 11 12 11 11 11 11 12 11 11 11 8 4 1 3 4 4 4 4 3 4 4 4 3 4 3 3 4 4 3 2 3 3 3 2 3 2 2 3 2 3 2 3 3 1 1 6 10 10 10 11 12 11 11 12 11 11 11 9 10 8 7 6 6 7 8 8 8 9 9 9 9 9 9 8 9 9 9 9 9 9 9 9 9 8 8 8 8 7 7 8 8 10 11 12 11 11 11 11 11 11 11 11 6 2 3 3 4 4 3 4 4 4 4 4 4 3 3 3 4 4 3 2 3 2 3 3 3 2 3 3 3 3 2 3 3 2 2 3 9 10 9 11 11 11 11 11 11 11 11 9 9 8 8 7 9 10 10 10 10 10 10 10 10 9 9 9 9 9 9 9 9 9 10 10 10 10 8 9 8 7 7 7 7 9 11 11 11 11 11 11 11 11 11 9 3 2 3 3 3 4 4 4 4 4 4 3 4 3 3 4 4 4 3 3 3 3 3 3 3 2 3 3 2 2 3 3 3 3 2 1 7 10 10 11 11 11 11 12 11 11 11 10 9 8 8 8 10 11 11 10 10 10 10 10 9 8 8 7 7 7 7 7 7 8 9 10 10 10 9 7 9 7 8 7 7 9 10 11 11 10 11 11 11 11 10 6 3 3 3 4 3 4 4 4 4 4 4 4 3 4 3 4 4 4 3 3 3 2 3 2 3 2 3 3 2 3 3 3 3 3 2 0 5 9 10 10 10 11 11 11 10 11 11 10 9 8 10 10 11 11 11 11 11 10 10 9 8 7 6 6 5 5 7 7 7 8 9 9 10 9 9 8 8 8 8 7 7 9 10 10 11 10 11 11 11 11 9 3 3 3 3 4 3 4 4 4 3 4 3 4 4 4 4 4 4 4 2 3 3 2 3 3 2 3 2 3 3 3 3 2 3 3 3 1 7 7 9 10 10 11 10 11 11 11 11 10 8 8 10 11 11 11 11 11 11 11 10 9 8 6 6 7 6 7 8 8 8 7 9 8 9 9 8 9 9 8 8 7 7 9 9 10 10 10 11 11 10 10 7 3 3 3 3 4 3 4 4 4 3 3 3 3 4 4 4 4 4 4 3 3 2 3 3 2 3 3 2 3 3 3 3 3 3 2 2 1 6 7 7 10 10 10 10 11 10 11 10 9 8 9 9 11 10 11 10 10 10 10 8 8 8 7 5 7 6 6 7 7 7 7 8 8 9 9 8 8 8 8 8 7 7 8 8 10 9 10 11 10 10 9 6 2 3 3 3 3 3 4 3 4 4 4 4 4 4 3 3 3 4 4 3 3 3 2 3 2 3 2 3 3 2 3 3 3 3 3 2 1 4 10 5 9 10 10 10 10 9 11 10 9 9 9 9 11 10 11 10 10 10 10 8 8 8 7 6 6 7 5 7 7 7 7 7 8 8 8 8 9 7 7 8 7 7 7 8 10 9 9 10 10 9 8 4 3 3 3 3 3 3 3 4 3 4 3 4 3 4 4 3 3 3 4 3 3 3 3 3 3 2 3 2 3 2 3 3 3 3 3 2 2 3 10 6 7 9 10 10 9 10 10 10 9 8 9 9 10 11 10 10 10 10 10 9 9 7 8 7 6 8 6 7 7 8 8 8 8 9 8 9 8 8 8 7 7 7 8 7 9 9 9 10 9 7 9 3 3 3 3 3 3 3 4 4 4 4 4 3 4 4 4 4 3 3 4 3 3 2 3 3 3 3 3 2 3 3 3 3 3 3 3 3 1 1 10 9 5 8 9 9 9 10 10 10 9 7 7 8 10 10 10 10 10 10 10 10 9 8 8 8 7 7 7 7 7 9 9 9 9 9 9 9 8 7 9 7 7 7 7 7 8 9 9 10 7 7 9 2 3 3 3 3 3 4 3 4 4 4 4 3 4 3 4 4 3 4 4 3 3 3 3 2 3 3 2 3 3 3 3 3 3 3 3 3 2 0 9 9 6 5 8 9 9 9 9 9 8 7 7 8 9 10 9 11 11 11 10 10 10 8 7 8 8 7 7 8 8 9 9 9 9 10 10 9 8 7 9 7 7 7 7 8 8 8 9 8 6 8 8 2 3 3 3 3 3 3 3 4 4 3 3 4 3 4 3 3 4 3 4 3 3 3 3 3 3 3 3 3 2 3 3 2 3 3 3 3 3 1 8 9 8 7 6 9 8 9 9 8 8 7 7 8 9 8 9 10 11 11 11 11 11 9 8 10 8 7 8 8 9 9 9 9 10 10 10 10 8 8 7 7 6 7 6 8 8 7 8 6 6 9 8 2 3 3 3 4 4 3 3 4 3 4 4 4 4 3 3 4 3 4 3 3 3 3 3 3 3 2 3 3 2 3 3 3 3 3 3 3 2 2 6 8 8 8 4 7 8 9 8 8 7 7 8 8 7 9 9 10 11 11 12 11 10 9 10 9 9 8 9 9 9 10 10 10 9 10 10 9 9 7 7 7 7 6 6 7 7 7 5 5 7 10 7 2 3 3 3 4 3 3 3 4 4 4 3 4 3 4 4 4 3 4 4 2 3 3 3 3 3 2 3 3 2 3 2 3 3 3 3 3 3 2 5 9 8 9 7 5 5 8 7 8 8 8 8 8 7 8 9 10 10 10 11 10 10 10 9 9 9 9 9 9 9 10 9 10 9 10 9 8 9 8 8 7 7 7 7 7 6 6 5 7 7 10 6 2 3 3 3 3 3 4 3 3 3 4 3 3 4 3 4 4 4 3 4 3 2 2 3 3 2 3 2 3 2 3 2 3 3 3 3 3 3 2 4 9 9 8 8 7 3 5 5 6 7 7 7 7 7 8 9 9 10 10 10 10 9 9 9 8 9 10 9 8 9 9 9 9 9 9 9 8 8 8 7 7 6 7 7 6 5 5 6 7 7 10 6 2 3 3 3 3 3 4 3 4 4 4 3 4 3 4 4 4 3 4 3 3 3 3 3 2 3 2 3 3 3 3 2 3 3 3 3 3 3 2 3 9 8 8 8 8 5 4 5 5 6 7 6 7 7 8 8 9 9 10 10 9 9 8 9 8 9 8 9 9 9 9 8 8 8 9 9 8 7 8 7 8 6 6 6 5 5 7 6 8 9 9 5 2 3 3 3 3 3 3 3 4 3 4 3 4 4 4 4 4 4 3 3 3 2 3 3 3 2 2 3 3 3 2 3 3 3 3 3 3 3 3 3 8 7 7 8 8 7 5 4 5 5 6 6 7 7 7 7 8 9 9 9 9 9 8 9 8 8 7 8 9 9 8 8 7 7 7 8 8 8 6 7 8 6 5 6 4 4 8 7 9 8 10 4 3 3 3 3 3 3 3 3 3 3 4 4 4 3 4 3 4 4 4 3 3 3 2 3 2 3 3 3 3 3 2 3 3 3 3 3 3 3 3 2 9 8 8 8 8 7 6 4 5 4 5 6 6 7 7 7 8 9 8 9 8 8 7 8 8 7 6 7 8 8 8 7 7 6 7 7 7 7 7 6 7 5 4 6 5 6 7 8 7 8 10 5 2 3 3 4 3 3 4 3 4 3 4 4 4 3 4 3 4 3 4 3 3 3 2 3 2 3 3 2 3 3 3 2 2 3 3 3 3 3 3 2 9 8 8 7 8 7 7 5 5 5 5 5 5 7 7 7 7 8 8 8 8 8 7 7 8 8 6 7 7 7 8 7 6 6 7 7 6 7 8 6 6 5 4 6 5 6 6 8 7 8 10 4 3 3 3 3 3 3 4 3 4 4 4 4 4 3 4 3 4 4 3 3 3 3 3 2 2 3 3 2 3 3 3 3 3 3 3 3 3 3 3 1 8 8 8 7 8 8 7 5 6 5 5 4 4 5 6 7 6 7 8 8 8 8 7 6 7 7 6 6 6 6 7 6 6 6 6 7 6 7 7 6 6 5 6 6 6 6 6 9 9 9 10 4 3 3 3 3 3 3 3 3 3 3 4 4 4 4 3 4 3 4 4 4 3 2 3 3 2 3 3 3 3 3 3 3 2 3 3 3 3 3 4 1 9 8 8 9 9 8 9 7 5 6 5 5 4 5 6 5 6 7 7 8 8 6 7 6 5 6 6 5 5 6 6 6 6 6 5 6 5 7 7 5 6 5 6 5 6 7 7 9 8 8 11 3 3 3 3 3 3 3 3 3 3 4 3 4 3 4 3 4 4 3 3 4 3 3 3 3 3 3 2 3 3 3 3 2 3 3 3 3 3 3 3 1 8 8 9 9 8 8 9 8 5 5 5 6 5 5 5 4 5 7 6 7 6 5 7 6 5 4 6 4 4 6 5 6 5 5 4 6 5 5 6 5 5 5 6 6 7 7 7 7 7 7 9 4 3 3 3 3 3 4 3 3 3 4 3 4 3 4 3 3 3 4 3 3 3 3 3 2 3 3 2 3 3 3 3 3 3 3 3 3 3 3 3 1 7 9 9 8 7 8 9 9 5 5 5 6 6 5 4 4 4 6 5 6 6 4 6 6 4 4 5 4 3 5 3 6 4 4 4 5 5 5 5 5 6 5 6 6 7 7 7 8 8 7 10 3 3 3 3 3 3 3 3 3 3 3 4 4 3 4 3 3 3 4 4 4 3 3 3 3 2 3 3 3 3 3 3 3 3 3 3 3 3 3 3 1 7 8 9 8 8 8 8 8 7 6 6 7 6 5 5 5 5 5 5 6 5 4 5 5 4 4 4 3 3 4 3 5 4 5 4 5 4 4 4 5 6 6 6 6 7 8 7 8 9 8 10 3 3 3 3 3 3 3 3 3 3 3 4 3 3 4 3 3 4 3 3 4 3 3 3 3 3 3 3 3 3 3 3 3 3 3 3 3 3 3 3 1 6 9 8 8 8 8 7 7 8 7 6 6 5 6 5 6 5 4 4 5 4 4 5 5 4 4 3 3 3 4 3 4 4 4 4 4 4 4 5 4 6 6 6 6 7 7 8 8 8 9 10 3 3 3 3 3 3 3 3 4 3 3 3 3 3 4 4 3 3 3 3 3 3 3 3 3 3 3 3 3 3 3 3 3 3 3 3 3 3 3 3 1 6 9 9 8 8 8 8 8 8 8 7 6 5 5 5 5 5 4 5 4 4 3 4 4 3 3 3 3 3 3 3 3 4 3 3 5 4 3 5 5 6 6 7 7 7 6 8 7 7 9 10 3 3 3 3 3 3 3 3 3 3 3 3 3 3 4 4 3 3 4 4 3 3 3 3 3 3 3 3 3 3 3 3 3 3 3 3 3 3 3 3 1 6 9 9 9 8 7 8 9 7 7 8 6 5 5 6 5 5 5 6 4 5 4 4 3 3 3 2 3 3 2 3 3 3 3 4 5 4 4 5 5 6 7 7 6 7 8 8 8 8 9 10 3 3 3 3 3 3 3 3 3 3 3 3 3 3 3 3 3 3 3 4 3 3 3 3 3 3 3 3 3 3 3 3 3 3 3 3 3 3 3 3 1 5 9 8 8 7 7 8 8 8 6 7 7 7 5 7 7 6 6 6 5 6 5 5 4 4 3 3 2 3 3 3 3 3 3 4 5 5 4 4 6 6 7 7 6 8 7 9 8 9 8 11 4 3 4 3 3 3 3 3 3 3 3 3 3 4 3 4 3 4 3 4 4 