P2
92
112
255
49 48 49 50 51 50 53 54 52 52 52 54 57 54 56 54 55 59 53 66 63 51 51 62 66 72 66 68 64 63 60 59 61 58 55 59 61 62 64 69 75 61 77 80 84 75 101 112 126 137 112 124 117 118 102 102 97 103 89 77 83 74 67 68 73 61 63 70 64 59 64 60 58 61 59 56 62 55 57 60 61 59 54 63 59 57 57 61 57 62 58 62 48 51 50 50 50 52 55 53 47 56 57 56 54 57 53 56 55 56 56 59 56 52 57 55 58 62 65 55 62 57 62 58 71 59 57 61 58 62 60 66 74 75 85 101 81 93 104 110 102 112 104 112 107 97 92 94 96 107 103 88 94 89 85 80 75 61 64 63 58 64 64 65 61 59 63 60 59 62 57 60 57 59 63 59 60 57 59 60 57 57 60 62 49 49 51 51 52 51 54 50 54 54 52 54 54 55 54 56 57 52 58 55 63 62 69 63 60 64 51 64 58 61 63 71 68 60 66 67 67 76 75 83 95 83 95 82 70 99 105 104 107 103 106 112 112 116 109 107 103 102 103 81 91 72 81 84 76 66 71 68 58 59 59 64 61 58 62 60 59 60 58 59 59 59 61 62 61 58 55 61 58 59 62 59 52 49 52 54 51 53 54 53 51 61 58 56 52 55 53 55 55 57 52 57 55 64 76 62 66 61 57 64 64 65 61 74 71 55 69 73 94 90 81 77 81 84 87 77 64 95 103 86 97 87 94 97 94 95 96 102 91 91 96 77 77 81 72 70 71 74 70 71 68 59 60 58 65 62 59 57 57 60 59 60 62 60 66 59 60 57 61 57 59 63 61 58 49 54 50 51 49 55 54 54 51 58 53 56 53 62 56 58 62 61 65 55 60 61 56 72 74 75 77 80 69 70 61 66 70 66 72 84 89 72 73 81 79 79 80 66 63 100 102 94 100 104 96 101 104 98 99 89 97 79 85 96 82 85 94 85 86 91 77 77 77 75 70 68 71 68 67 60 60 62 57 57 62 56 64 61 60 59 60 58 62 63 63 60 48 52 50 51 54 50 54 53 52 58 53 55 51 53 62 63 58 58 65 66 82 70 85 92 92 74 80 77 73 68 75 72 69 89 96 90 71 72 79 74 85 75 67 54 58 79 89 84 85 83 85 110 102 100 94 108 105 97 96 108 100 98 100 77 84 89 97 81 85 69 68 57 72 62 65 73 58 63 65 59 63 62 61 65 63 64 63 61 60 60 60 61 54 52 54 56 52 51 52 54 49 57 58 57 58 57 54 60 58 53 59 68 77 74 89 84 96 75 78 76 69 73 67 77 101 107 96 72 61 77 73 80 76 65 60 51 58 69 81 71 83 90 109 90 97 97 95 95 93 100 86 99 86 85 93 89 76 93 94 83 75 62 72 73 69 61 66 66 63 61 59 63 61 64 64 64 63 64 66 61 62 62 62 60 54 54 55 55 53 50 54 56 55 51 59 57 59 53 56 55 58 58 62 68 88 75 88 63 82 77 84 79 89 81 91 106 109 99 79 80 71 88 82 81 74 67 67 56 55 71 79 74 88 85 81 80 89 88 81 88 86 93 84 91 88 85 87 77 75 84 75 96 82 63 71 76 64 64 67 64 63 60 58 63 58 66 60 63 64 66 61 62 64 59 65 60 48 54 50 57 57 50 59 55 51 58 59 57 58 55 55 57 60 63 81 97 98 89 95 82 87 70 74 82 83 92 109 106 98 84 71 85 90 87 96 107 105 87 82 72 70 83 83 74 77 82 87 89 83 82 80 87 84 96 90 87 89 86 92 85 66 84 82 95 77 85 71 82 64 67 64 63 62 63 58 62 58 61 64 63 64 66 63 59 67 59 62 64 51 55 54 52 57 50 58 58 54 56 63 54 54 60 61 66 64 65 73 81 68 63 74 71 89 99 99 105 94 96 86 73 74 71 74 79 75 74 93 113 103 94 97 82 76 88 92 97 97 112 109 105 94 96 99 99 93 103 93 100 96 89 88 75 85 59 81 90 90 77 83 73 78 73 68 64 64 61 59 65 64 58 61 64 63 62 64 62 65 61 61 63 57 49 53 53 58 59 62 51 54 54 58 59 65 68 60 63 65 64 65 71 69 66 67 79 87 98 102 95 77 81 74 70 77 72 67 72 84 102 84 80 80 81 82 86 78 80 108 107 111 129 109 113 122 122 109 104 100 88 87 81 89 86 79 92 91 81 75 79 90 84 89 91 62 82 68 68 60 64 61 63 61 64 69 62 64 65 62 64 62 61 57 66 57 54 53 58 57 60 70 55 62 54 63 67 61 59 60 70 67 59 57 62 68 64 69 80 91 102 86 81 83 68 74 69 72 65 60 62 83 77 72 80 78 73 78 80 66 63 73 93 106 121 111 105 109 110 118 113 103 92 94 82 80 79 79 81 76 80 78 75 86 85 92 95 94 77 77 72 62 54 64 63 70 71 67 58 64 61 63 63 65 59 61 59 54 56 58 55 56 59 77 61 61 60 58 59 57 55 66 72 60 63 58 64 66 59 78 83 79 84 86 88 79 70 70 59 67 68 54 67 72 62 70 71 66 75 65 62 47 58 59 71 84 95 106 107 108 108 111 101 113 99 96 86 78 85 82 90 83 79 70 68 87 95 108 106 111 88 88 75 78 64 63 72 67 67 60 63 63 64 63 65 60 60 63 60 55 52 56 55 55 64 78 62 65 55 57 55 61 54 67 62 58 59 68 64 61 65 69 64 72 65 76 74 71 71 72 62 67 72 54 72 80 54 68 73 68 56 52 48 58 56 51 55 70 87 94 91 104 99 108 95 98 118 89 90 76 81 75 77 83 76 86 82 104 104 98 97 94 97 109 84 73 71 57 72 67 64 66 56 65 64 62 64 60 62 63 56 53 55 53 58 55 64 73 61 53 57 56 62 64 46 86 65 57 58 59 71 64 67 61 56 61 75 75 83 78 79 71 64 58 62 51 75 80 67 67 72 59 49 43 44 50 45 48 44 71 80 86 91 91 107 103 95 82 94 94 83 85 88 78 87 70 85 99 93 81 98 87 98 110 90 99 99 76 80 67 58 67 62 67 62 61 61 61 63 60 60 61 60 53 52 50 57 53 57 72 51 56 52 62 58 64 61 69 69 56 61 56 63 58 72 57 70 69 75 66 78 62 76 63 74 61 51 57 58 88 74 75 72 70 44 45 53 50 52 35 44 49 59 80 80 85 98 107 103 96 94 86 120 85 86 98 97 85 74 83 78 81 83 87 124 110 83 90 99 96 94 74 71 77 61 68 66 67 57 59 59 60 63 60 62 53 56 50 57 60 53 64 55 57 52 55 62 53 66 54 63 59 67 69 58 68 80 66 69 76 73 84 87 69 69 73 81 68 58 64 60 98 81 59 65 67 51 42 52 46 47 47 35 44 48 56 60 67 78 91 103 88 85 90 99 103 78 99 84 86 83 83 90 105 123 113 106 89 75 101 91 96 98 86 74 80 76 67 59 66 63 65 64 60 64 61 61 58 57 57 61 61 53 56 58 56 59 58 60 62 76 58 61 61 63 81 73 68 63 70 65 70 78 85 85 89 85 77 89 81 70 71 67 75 81 67 60 73 53 49 45 49 42 49 39 63 52 55 56 48 55 54 94 83 74 92 81 101 93 95 102 77 80 80 96 105 114 109 82 78 86 97 100 92 104 98 87 76 82 77 66 63 64 63 64 61 62 62 61 54 54 57 61 65 55 52 58 57 59 66 55 55 74 55 70 60 66 84 72 68 70 68 58 67 89 88 88 95 105 93 94 81 76 78 67 61 89 85 64 68 54 58 53 52 39 44 48 54 50 45 66 49 55 46 70 73 66 77 79 84 91 103 111 91 94 96 96 102 91 83 83 74 91 87 107 95 94 102 98 84 75 92 71 77 65 59 63 60 61 60 62 56 57 59 52 64 58 51 53 61 61 59 63 52 75 62 55 68 64 77 78 67 75 68 75 62 82 92 92 84 98 108 106 93 76 70 79 78 86 77 63 60 63 54 61 55 44 46 53 52 44 53 48 59 60 51 53 63 56 63 71 65 78 79 84 88 97 107 108 115 115 97 99 88 99 88 101 103 97 110 95 102 76 96 104 111 70 57 70 60 62 61 62 57 60 53 56 66 67 54 51 63 54 61 61 68 51 75 57 75 78 80 82 81 87 70 83 83 69 69 91 87 97 110 104 86 56 63 78 83 73 68 64 64 71 62 62 65 52 47 55 52 48 56 59 64 55 70 63 51 50 58 62 50 60 66 66 65 72 78 85 78 97 94 95 101 92 92 101 103 108 100 105 96 92 91 112 113 96 79 74 61 59 61 59 57 59 56 60 64 56 58 51 54 51 59 64 60 69 65 62 68 83 76 88 79 86 92 76 81 82 93 95 99 95 98 88 81 76 84 87 84 70 69 65 67 83 68 76 78 77 67 61 62 56 66 71 71 59 69 62 51 47 59 61 58 55 57 67 65 72 70 61 78 86 93 72 85 91 96 99 104 97 104 110 109 93 98 84 111 104 110 78 59 59 66 66 55 58 56 57 59 55 56 59 57 54 54 59 58 66 72 76 85 82 80 83 86 80 90 85 79 87 103 110 102 88 74 71 80 78 84 85 74 68 80 87 84 87 87 91 89 87 76 78 72 71 75 79 74 70 74 87 65 54 61 61 60 61 59 57 53 71 66 57 52 57 73 63 67 87 85 95 90 95 103 105 111 104 93 83 88 109 99 98 85 72 66 67 55 65 61 62 61 56 58 57 56 65 56 61 63 73 80 83 91 101 99 102 96 81 83 84 87 87 95 95 89 68 71 80 77 80 77 88 93 100 116 119 104 118 108 122 124 108 104 104 104 104 103 90 91 89 92 96 92 75 66 58 57 65 54 66 63 64 72 70 69 63 69 72 79 81 85 88 89 96 96 94 92 95 89 77 92 96 94 77 97 79 57 65 56 57 62 71 65 65 58 58 61 69 71 76 72 82 94 93 91 105 99 91 89 87 82 86 77 73 72 97 99 88 87 91 88 84 88 113 127 135 140 132 137 145 142 143 142 132 135 145 141 133 121 116 111 111 110 111 108 99 84 80 80 79 61 64 56 56 55 64 71 71 68 73 85 83 87 91 90 86 74 85 93 88 87 84 95 87 86 86 80 74 60 63 53 59 58 64 61 56 67 63 61 69 71 71 79 84 83 82 103 93 103 93 89 76 82 76 91 85 97 98 91 98 100 97 95 97 122 132 146 156 155 152 167 157 162 167 155 152 161 165 162 163 156 151 144 139 137 133 133 124 107 102 95 92 94 73 65 58 54 53 46 56 60 71 81 71 74 81 85 82 63 87 75 90 86 112 79 83 94 121 78 67 66 65 56 61 55 63 63 62 76 73 78 93 89 95 98 91 97 86 96 92 88 87 88 79 66 62 72 90 101 110 118 110 108 126 131 131 145 149 160 169 163 169 174 171 170 165 169 166 169 171 176 176 175 167 169 165 163 159 164 148 147 135 123 120 110 111 80 72 65 56 55 41 56 50 59 62 70 81 78 79 86 85 88 93 92 99 80 90 102 111 100 85 66 67 56 59 59 63 58 77 80 83 84 91 91 90 96 89 80 86 85 87 83 70 59 56 71 66 78 103 124 129 132 132 139 146 154 158 168 173 175 173 175 180 180 178 174 168 176 172 174 174 177 181 183 180 181 178 175 178 179 171 168 160 145 139 131 137 124 92 75 56 48 52 43 49 54 65 64 76 75 88 85 80 85 79 82 93 92 104 97 111 82 102 83 78 60 62 62 55 61 68 83 83 85 83 87 85 84 82 79 77 81 74 72 49 55 48 56 78 97 137 144 156 157 161 166 177 178 178 186 180 181 181 183 182 180 181 173 177 179 172 174 176 181 183 183 184 183 184 179 184 180 181 180 180 161 157 151 153 149 127 108 73 46 38 50 67 59 52 60 63 66 70 78 65 80 75 82 93 103 100 94 103 76 72 91 72 48 67 61 64 62 71 79 81 86 81 83 84 76 74 79 78 66 54 75 45 40 47 76 110 139 152 160 165 166 172 183 185 189 180 183 183 184 188 186 183 179 183 180 182 181 172 178 179 186 185 189 188 188 184 188 184 183 184 186 189 183 174 172 170 165 153 136 100 61 42 39 41 56 62 59 65 67 73 75 75 85 85 83 94 97 110 95 90 67 72 72 84 54 69 69 68 66 88 94 96 88 88 73 73 73 66 77 75 56 48 67 63 49 65 113 145 152 162 167 160 171 172 176 181 185 183 187 191 188 187 187 181 184 186 179 183 177 176 179 177 181 185 184 190 187 185 185 184 188 183 183 184 188 186 169 182 186 172 149 125 96 44 40 37 39 37 45 56 62 81 76 73 79 81 80 95 95 100 113 85 71 64 68 68 59 65 69 70 65 77 73 74 75 61 70 77 62 60 58 56 55 46 59 40 44 81 149 161 157 163 168 168 183 191 189 189 192 192 194 191 193 190 189 185 187 185 178 178 181 178 174 180 181 180 184 182 186 186 185 187 189 189 189 192 189 189 180 180 187 186 181 158 130 90 28 27 38 50 55 63 70 70 66 53 56 70 70 77 81 103 103 103 75 62 71 67 66 62 57 62 62 72 69 80 77 57 64 53 59 53 59 50 43 49 58 38 50 112 163 161 159 163 170 181 186 191 193 191 190 193 194 192 195 190 189 186 185 181 179 176 183 179 176 180 179 183 185 183 189 186 187 185 191 188 191 192 189 192 187 186 187 188 189 184 167 139 96 20 31 28 40 51 66 55 57 38 44 50 65 52 76 94 95 97 76 62 68 69 66 65 53 65 74 57 66 75 69 57 56 47 62 54 49 46 43 47 51 51 63 139 168 160 162 172 178 185 187 189 188 191 193 193 194 192 192 191 192 185 185 180 179 175 179 177 179 176 173 180 179 176 185 185 186 187 185 185 186 186 187 187 186 181 185 192 192 184 187 180 157 80 28 23 26 33 43 44 58 41 45 53 44 53 50 78 81 92 87 70 61 63 59 63 61 66 63 53 64 70 68 67 57 58 52 48 47 49 41 60 47 59 82 157 167 157 167 178 183 185 186 191 189 189 191 193 191 196 190 194 193 190 186 185 183 181 180 179 181 177 172 173 178 175 179 183 184 181 187 184 184 183 182 185 184 184 185 188 189 185 193 191 188 158 53 21 28 25 32 35 41 41 37 53 40 56 63 89 86 70 97 66 63 64 57 57 60 66 53 73 76 81 66 69 50 57 51 50 58 40 46 60 59 60 103 164 168 158 175 182 183 184 187 192 191 190 192 191 188 191 193 194 193 190 187 187 181 182 180 178 184 175 177 170 172 177 174 182 180 178 184 182 183 183 180 184 182 188 181 186 187 182 193 193 192 191 141 24 17 28 29 28 37 36 38 50 33 78 58 82 98 74 85 84 63 61 57 50 51 70 42 58 74 85 79 54 49 57 52 55 49 41 66 55 68 70 132 164 163 169 175 184 178 182 189 188 187 189 192 190 192 192 194 195 195 196 193 190 181 184 186 186 186 182 183 178 177 184 183 182 183 182 183 185 187 181 186 184 185 186 185 184 187 185 188 193 190 203 181 78 16 27 35 29 37 37 44 48 46 62 60 58 76 87 74 85 67 69 56 55 53 68 37 57 73 96 71 54 49 57 52 57 40 55 58 55 75 88 148 164 170 175 180 185 183 185 188 186 189 189 193 193 195 196 198 199 199 199 199 196 189 189 191 189 193 191 187 186 186 186 190 186 183 186 185 188 189 187 183 184 184 183 189 185 187 189 191 193 194 198 204 123 33 24 29 31 35 37 43 51 44 62 56 74 87 87 63 94 76 75 58 57 50 54 45 49 53 76 65 61 51 50 49 55 43 61 53 67 74 106 166 165 172 182 182 188 185 184 185 187 187 189 193 194 196 199 201 199 200 203 199 198 190 191 194 189 194 193 190 191 191 190 191 190 187 185 188 185 183 187 183 186 180 184 191 187 184 189 188 192 194 197 205 177 68 31 26 31 30 37 37 41 45 43 50 62 93 80 65 95 77 56 53 55 54 54 47 39 55 71 66 56 53 46 51 44 56 61 57 72 84 131 166 168 176 183 184 184 183 187 185 187 186 188 192 193 195 199 201 203 200 202 203 194 190 191 191 191 194 193 194 193 195 191 193 191 186 185 187 186 182 185 189 187 183 177 188 189 184 185 189 191 194 198 201 207 125 42 39 27 33 35 40 36 40 36 52 59 64 96 86 64 76 56 54 57 54 51 32 53 75 80 66 51 48 50 50 35 68 56 63 88 86 151 168 170 177 179 184 183 183 186 186 187 188 189 193 192 194 196 201 199 201 201 202 196 194 190 188 194 195 196 195 194 195 190 191 194 182 188 184 184 179 180 180 179 176 174 178 188 186 182 183 191 195 202 201 209 192 63 50 38 39 39 38 44 38 50 60 72 71 77 117 72 59 58 54 50 51 49 35 75 64 66 55 56 49 51 45 46 64 67 72 92 104 165 164 172 174 175 179 185 167 176 183 183 181 179 186 183 187 192 193 194 199 199 198 195 196 190 189 194 193 194 195 192 187 189 181 181 163 159 160 156 153 162 155 150 154 150 153 162 171 180 179 185 186 192 205 202 222 102 68 41 44 55 35 34 38 41 70 67 63 85 83 100 61 63 54 52 57 54 53 49 44 61 61 52 49 51 52 60 64 70 81 81 133 170 168 170 171 177 167 159 151 146 151 154 160 140 151 142 138 171 166 171 185 189 186 189 195 193 189 190 187 188 187 186 162 177 161 146 138 125 113 107 112 111 117 115 124 123 132 136 144 148 175 185 187 185 203 203 218 157 71 67 38 56 59 32 40 43 43 55 61 81 77 101 83 74 57 52 57 46 40 32 46 74 59 54 58 44 59 67 71 64 81 91 155 168 167 176 177 162 137 138 153 148 134 128 123 109 115 112 105 121 135 123 152 168 167 181 195 188 186 185 185 181 172 170 144 158 140 128 123 106 95 93 88 87 85 85 94 95 109 117 124 128 129 162 188 192 202 205 210 203 73 84 45 45 69 53 37 42 39 44 62 60 79 93 100 82 59 48 36 30 41 33 65 76 63 58 52 39 56 86 79 59 87 108 172 145 166 182 158 127 121 128 132 127 130 113 95 90 100 88 88 95 105 101 118 141 154 182 192 194 187 190 188 179 175 162 140 146 127 110 106 101 93 92 80 73 82 86 95 106 116 127 132 131 148 137 134 186 202 204 203 226 106 87 51 46 63 65 48 47 43 57 55 76 57 88 108 96 58 40 29 42 44 45 64 72 74 48 42 41 48 96 77 52 97 138 169 151 175 166 117 122 139 149 160 159 181 163 138 114 113 100 100 101 107 108 123 124 140 172 196 202 195 191 195 191 184 167 149 134 129 113 106 104 100 100 96 98 107 120 139 151 160 162 169 176 181 171 141 137 199 202 204 225 152 96 41 49 45 58 65 50 51 53 53 74 64 80 96 115 57 48 40 31 39 43 59 75 66 38 55 50 42 81 49 62 106 157 161 170 178 125 128 162 170 171 189 199 182 170 154 152 141 140 133 136 139 149 148 150 148 168 196 203 200 193 195 199 199 192 184 161 146 124 115 111 112 104 115 114 126 130 139 138 162 170 168 185 196 202 185 131 147 201 202 215 204 77 54 41 51 35 45 61 64 70 51 69 63 82 93 97 57 51 36 33 32 47 66 66 45 49 64 40 46 68 32 58 139 163 163 170 155 112 138 186 189 189 170 180 139 128 108 123 112 113 127 125 139 150 149 154 164 172 197 201 200 200 197 194 203 206 204 171 133 112 102 94 86 73 77 89 96 98 103 109 120 135 154 181 199 199 199 184 145 171 205 208 224 99 41 43 44 46 41 34 46 57 61 72 65 51 92 78 54 53 44 41 44 37 50 42 51 68 53 24 53 61 22 69 158 162 170 166 141 146 167 180 190 181 142 121 114 101 102 120 109 102 103 92 110 140 139 143 148 168 190 200 201 201 200 192 204 210 204 145 112 101 89 82 57 63 66 76 71 76 109 120 104 113 123 139 196 200 188 188 177 170 193 206 229 138 25 51 51 41 44 40 39 46 47 85 48 63 79 61 59 51 35 32 34 34 39 42 72 75 37 18 65 69 15 85 170 168 175 162 152 173 172 175 168 145 128 108 85 55 69 111 142 119 123 125 101 109 142 136 141 152 186 198 201 202 196 189 202 212 192 116 96 85 84 81 66 72 52 36 48 26 117 159 110 107 142 125 127 195 188 187 194 180 180 200 221 192 15 48 56 55 43 46 42 46 61 72 63 63 86 59 56 51 32 32 35 40 41 47 66 60 29 12 83 77 17 125 173 172 174 156 169 181 173 176 138 126 114 73 54 27 52 84 195 163 126 135 135 115 112 127 141 146 181 195 199 199 197 183 203 205 196 111 85 93 93 79 85 65 44 34 44 80 56 211 180 137 94 146 116 161 189 183 189 197 191 194 211 217 33 37 49 53 52 51 40 52 63 72 71 63 79 73 57 48 34 32 31 33 38 47 46 35 25 16 84 73 37 151 177 178 184 178 181 183 177 151 119 134 122 41 138 23 94 225 210 202 152 155 146 132 120 91 170 148 183 187 193 196 197 180 200 197 212 111 101 115 107 76 96 63 59 46 7 133 92 198 171 205 169 75 152 104 192 182 186 194 202 188 209 232 92 35 41 45 42 44 42 51 61 81 64 69 61 59 50 36 35 37 37 31 37 39 35 30 28 23 73 55 48 162 181 183 185 181 182 183 174 141 101 129 164 21 192 53 75 211 210 227 171 158 203 113 135 132 134 164 183 182 182 200 200 178 192 194 207 160 98 122 99 71 94 88 51 61 23 71 162 197 182 203 240 125 83 142 149 190 185 198 202 198 200 231 127 46 47 43 42 44 40 57 52 64 57 71 65 72 44 30 30 59 30 34 34 33 36 39 28 34 62 28 80 172 184 185 187 178 184 182 175 131 110 121 201 118 106 119 179 215 206 196 165 141 169 132 117 145 148 181 178 178 188 200 205 182 186 191 192 207 129 107 102 90 88 97 86 83 72 112 160 171 165 166 201 169 120 165 158 177 183 195 201 199 203 218 176 42 50 40 43 36 30 53 47 55 54 58 73 68 33 30 28 55 29 24 31 35 36 33 36 35 52 23 117 179 185 188 187 181 184 182 173 142 121 127 161 182 157 157 173 175 166 154 145 145 141 138 132 128 172 187 175 183 194 201 204 188 189 183 192 201 190 111 106 102 92 89 93 99 101 123 134 145 148 148 167 204 183 178 185 183 179 198 201 202 202 206 222 69 45 40 38 38 39 32 39 46 48 60 65 54 24 31 38 40 35 19 30 33 36 28 33 40 45 27 156 180 186 194 188 185 182 179 165 154 138 144 154 175 201 195 168 164 143 139 133 135 145 142 115 149 190 183 175 190 198 203 208 191 191 183 188 195 209 172 91 101 103 98 94 95 106 120 132 147 147 157 185 210 202 183 197 184 181 190 203 204 200 204 228 121 45 41 47 31 28 35 38 50 49 52 44 49 30 22 34 34 29 21 37 42 29 28 42 49 32 69 170 182 191 194 192 188 180 176 168 162 156 161 172 185 203 193 172 163 150 144 149 144 144 142 149 185 191 176 186 193 197 201 210 195 193 190 186 190 198 204 184 107 103 107 109 118 112 126 140 144 149 154 180 203 206 199 199 190 182 187 202 204 202 206 228 152 66 52 45 36 29 34 36 47 69 45 48 58 34 25 32 40 33 32 38 34 31 40 47 37 47 91 175 184 195 195 194 192 185 179 182 174 175 173 182 184 196 195 181 173 166 161 158 152 150 172 183 190 186 179 192 198 199 199 207 200 190 196 189 186 199 198 202 193 141 120 119 128 136 145 151 150 157 157 178 197 208 206 201 196 183 190 200 206 205 205 221 179 78 58 51 39 38 37 42 33 69 62 60 66 48 24 28 25 34 38 37 30 35 43 45 35 52 110 180 186 197 198 194 194 192 184 188 184 183 181 192 187 198 203 187 183 173 169 168 170 181 190 187 188 184 179 195 200 198 198 205 200 189 199 193 187 192 200 201 197 193 169 145 134 130 145 160 161 164 170 174 194 202 203 202 196 188 189 202 204 206 207 214 199 83 71 55 48 37 48 39 49 44 53 61 79 54 29 21 21 29 32 37 33 38 37 45 39 51 123 181 186 195 199 194 196 194 190 191 190 187 187 189 192 195 200 190 182 180 181 178 193 195 189 187 186 178 181 195 197 199 200 205 201 189 196 200 186 188 194 204 198 195 189 184 172 156 151 154 164 169 174 180 187 193 194 198 186 190 191 201 204 207 206 210 211 90 73 65 58 39 66 44 64 47 46 56 85 51 42 23 28 22 32 38 39 40 34 43 34 52 135 182 183 193 195 196 194 193 195 191 194 191 189 186 191 188 190 186 184 183 191 196 199 197 191 189 173 173 183 193 198 196 194 199 199 194 189 201 188 183 184 203 203 192 187 185 183 186 181 171 173 176 179 182 183 186 190 195 173 194 197 201 205 204 209 207 218 118 68 71 55 47 69 54 55 54 44 33 74 49 52 34 28 20 30 31 42 37 50 39 30 58 132 183 182 188 194 194 195 196 198 198 197 195 196 195 197 195 194 197 200 197 199 200 200 197 196 178 171 177 186 194 202 200 187 187 199 196 195 204 188 185 180 193 204 191 183 180 184 187 190 189 185 188 184 191 185 192 192 197 196 199 201 202 205 205 205 208 221 119 69 59 58 63 87 109 53 29 36 34 40 49 52 47 29 29 15 44 71 51 39 34 38 55 128 182 180 188 191 195 197 193 201 199 196 197 201 200 200 201 203 203 204 205 203 201 200 202 190 177 177 182 186 183 211 201 180 176 186 187 198 212 184 192 188 188 192 184 180 179 175 179 190 192 188 187 192 193 193 199 198 200 199 202 204 206 208 207 206 202 225 111 55 58 80 91 97 151 89 17 50 36 34 49 47 53 37 21 42 112 124 106 70 40 43 52 124 180 178 181 192 193 197 198 199 199 200 199 203 202 205 206 206 205 208 205 204 200 201 202 185 181 185 181 180 171 189 207 171 169 162 166 181 181 174 185 200 191 194 158 166 173 171 166 183 189 190 192 189 193 195 201 198 202 203 202 203 210 209 206 205 198 222 116 53 55 117 127 120 110 150 20 71 45 35 42 51 49 51 11 114 155 133 130 106 81 46 47 115 175 176 177 189 195 197 197 200 200 201 202 207 203 207 205 208 208 207 206 201 200 202 197 177 186 187 178 173 171 167 192 160 162 155 150 178 171 158 157 186 198 198 140 143 155 161 156 173 182 181 191 189 190 196 200 199 203 205 202 200 211 207 208 203 194 215 120 52 85 139 106 81 53 127 22 80 56 49 49 47 53 51 24 146 107 70 129 145 111 57 41 102 166 172 176 185 194 199 197 202 200 200 203 206 204 210 204 206 207 207 205 198 197 197 186 176 184 178 149 126 141 167 176 155 146 152 142 178 154 99 102 148 182 185 131 131 140 148 151 157 171 179 184 190 191 194 199 201 204 202 198 201 206 206 207 204 193 206 119 57 108 144 118 50 49 105 16 83 60 52 55 47 51 43 20 166 75 95 110 123 126 60 49 85 157 169 173 182 194 197 198 199 198 200 201 203 204 207 204 209 204 204 201 194 191 185 180 172 173 139 73 52 71 144 165 152 128 144 140 169 112 28 34 90 157 155 130 131 132 133 142 144 155 171 181 181 193 190 194 206 206 202 202 196 204 204 204 204 196 196 117 71 67 161 120 57 63 107 19 75 57 44 46 49 49 55 9 166 87 100 125 127 135 63 34 67 143 163 166 181 193 196 196 196 197 203 203 205 202 206 207 207 203 202 195 188 181 177 183 168 166 126 98 148 154 164 162 155 106 128 145 155 149 108 81 93 143 152 138 132 132 129 132 137 144 160 181 173 187 187 193 204 203 203 203 191 198 200 204 199 202 173 91 80 93 111 134 61 78 115 45 62 42 64 52 51 48 54 22 154 114 98 129 160 159 110 61 36 123 165 164 178 190 194 195 194 194 202 202 203 204 205 208 205 202 199 189 182 171 175 185 173 163 144 123 161 166 162 165 165 113 111 149 152 149 137 132 135 154 169 153 132 132 127 130 133 139 155 170 170 179 179 191 202 199 203 199 186 181 201 206 196 204 154 86 80 139 142 185 77 79 119 59 43 50 67 50 48 46 55 27 105 158 84 137 174 155 113 95 27 100 161 164 176 191 191 194 189 194 202 202 204 206 206 207 203 199 195 184 181 173 183 186 182 172 159 148 152 152 158 172 172 139 111 155 165 159 160 161 167 176 179 173 142 138 134 131 134 140 147 165 172 176 178 181 197 195 198 199 183 182 196 200 196 197 145 84 62 143 182 226 103 80 102 71 40 60 66 50 47 46 51 33 38 184 86 140 176 171 161 110 42 87 154 162 177 194 187 193 190 196 202 201 205 206 207 206 201 197 190 184 187 181 187 187 187 175 168 162 166 158 141 170 165 145 126 148 155 140 156 157 175 183 183 175 158 148 142 138 139 140 145 160 171 177 173 174 189 190 192 197 189 192 192 196 194 198 129 84 84 100 168 220 138 86 90 68 58 63 62 52 52 44 47 55 10 132 145 109 176 185 166 120 88 71 141 156 172 192 187 191 193 197 199 201 205 205 206 205 199 194 193 191 192 190 191 190 184 178 169 147 146 156 130 155 147 144 138 144 134 152 129 148 169 180 177 176 176 161 155 152 148 148 150 157 167 173 173 178 183 187 188 194 186 193 185 190 195 194 108 87 100 108 132 184 164 103 48 58 58 68 62 51 49 47 52 51 36 55 168 120 195 177 161 129 118 111 118 153 170 187 188 192 192 196 198 202 206 203 205 203 197 194 194 196 195 194 191 191 184 175 171 137 140 148 140 153 133 144 129 145 152 152 130 138 161 167 171 171 178 170 165 162 166 169 165 168 168 173 170 172 178 181 184 192 181 189 187 186 194 184 108 117 102 112 121 184 214 97 25 47 57 65 63 48 47 50 48 50 54 27 141 144 200 160 159 142 120 145 99 155 170 181 186 192 191 191 198 200 202 206 204 199 200 198 195 194 192 195 188 176 181 173 151 145 135 146 145 148 137 124 137 145 145 149 138 141 155 159 168 169 162 169 165 177 168 180 180 172 157 173 171 170 178 178 185 186 181 188 186 182 188 171 119 125 108 115 121 163 233 104 22 58 56 67 61 46 47 48 50 50 48 24 89 160 193 141 142 149 125 173 106 150 167 177 185 191 192 190 194 201 202 205 202 199 201 200 193 175 183 177 178 164 164 162 141 132 151 129 141 139 127 111 139 150 145 149 126 143 144 139 156 153 150 142 159 166 171 168 181 180 164 173 175 168 179 175 185 184 176 189 186 174 192 146 155 120 123 113 114 161 226 86 33 73 62 66 65 48 46 49 50 50 49 35 32 159 180 134 122 149 142 167 112 147 168 177 177 189 192 186 197 202 202 204 200 201 195 189 182 159 165 161 162 164 147 152 150 134 152 138 141 147 119 117 137 146 150 142 126 141 142 127 139 147 134 130 141 157 166 178 166 188 179 172 176 173 180 178 191 181 177 187 184 179 183 137 167 140 186 172 147 192 220 61 46 68 68 61 65 47 50 46 50 51 44 50 19 139 176 143 106 156 144 137 120 136 158 172 176 185 192 178 196 198 202 201 200 202 184 180 155 154 149 152 148 154 143 153 155 143 151 166 156 158 132 134 156 157 153 149 142 149 148 134 133 139 124 126 122 140 147 181 158 174 190 177 174 179 180 178 184 183 178 183 184 184 193 140 178 188 206 205 189 186 203 27 56 68 66 62 69 48 48 45 46 55 44 54 32 116 165 178 159 170 184 183 126 114 150 158 172 182 191 186 187 198 202 202 203 194 178 176 140 141 139 150 143 139 146 155 162 144 153 172 169 163 156 156 152 157 139 150 146 160 155 157 127 142 126 111 118 128 139 166 185 147 195 186 175 180 185 176 185 185 180 181 181 181 194 124 160 193 207 210 177 205 164 30 62 65 62 62 67 45 50 47 47 49 45 50 47 37 170 160 169 180 188 197 157 99 143 162 167 178 189 191 192 198 200 199 204 188 166 157 134 138 129 152 140 148 142 164 164 149 160 157 150 144 141 142 130 130 130 131 129 136 140 153 133 130 124 95 114 113 133 155 180 151 186 193 182 180 191 176 187 181 183 177 181 177 186 102 158 193 205 209 190 213 111 34 70 60 62 64 63 49 49 45 50 47 46 49 51 17 129 165 159 185 187 190 180 101 138 168 164 174 183 190 193 198 197 197 200 167 151 151 148 129 117 136 133 150 136 148 148 141 149 139 136 133 120 130 118 110 107 112 115 117 117 118 113 101 91 66 90 125 121 154 163 153 179 192 185 181 186 184 191 181 189 181 183 181 175 123 171 198 199 204 203 171 53 58 67 64 61 65 60 48 48 45 50 48 47 49 47 44 42 164 161 178 181 188 190 116 126 158 169 176 173 178 194 197 196 198 192 173 150 162 159 123 113 87 105 135 126 124 129 126 123 119 124 124 107 103 95 88 91 89 95 99 100 92 76 66 62 52 82 124 119 143 154 150 177 191 191 182 183 177 184 186 187 175 178 184 166 135 190 198 197 197 202 89 45 66 65 65 55 65 64 46 49 44 51 49 49 47 45 46 28 86 157 164 169 177 196 146 113 160 161 173 184 187 190 196 190 195 189 191 160 163 149 120 105 69 69 105 101 103 107 119 127 125 128 128 120 105 115 131 137 141 139 137 142 133 119 95 96 108 111 133 132 136 140 148 179 190 192 188 182 185 187 189 187 185 177 186 148 145 188 188 196 205 151 37 57 67 68 67 57 64 63 50 49 46 49 52 44 47 47 47 42 31 127 159 156 175 181 170 106 150 163 168 179 194 185 185 194 191 190 194 165 156 148 123 106 116 141 139 137 144 149 149 156 157 157 155 151 145 149 152 156 158 160 154 161 162 170 160 140 140 144 133 131 121 133 128 171 185 190 191 182 182 187 191 193 190 184 185 145 139 182 178 181 165 61 25 67 66 70 69 61 65 60 49 43 51 50 44 45 47 47 49 43 41 46 133 154 166 170 178 106 131 159 161 180 193 176 180 191 187 188 191 170 153 140 134 123 149 175 169 164 161 167 165 165 172 167 156 148 145 141 140 140 146 147 153 154 162 172 178 164 137 145 133 122 128 116 129 157 184 185 182 185 181 187 188 190 181 181 179 113 128 152 146 133 60 36 50 67 63 69 64 61 58 62 50 46 50 45 47 49 46 50 47 43 46 38 53 106 135 140 151 101 111 158 156 177 184 179 178 191 188 188 191 172 162 141 126 148 162 182 182 182 172 170 170 163 161 154 140 131 124 119 115 117 122 130 138 150 165 167 168 172 147 138 146 123 133 113 133 153 175 184 179 175 185 182 185 181 176 180 163 89 81 72 70 44 34 52 63 60 62 69 64 63 60 63 49 48 50 45 45 49 46 48 43 47 45 45 42 44 65 55 66 57 80 160 163 172 182 189 179 191 185 180 190 175 170 135 146 167 172 182 182 185 184 178 178 170 159 142 121 109 119 112 109 122 134 136 142 153 161 162 161 163 158 147 146 137 131 129 129 151 167 182 176 160 184 184 179 183 175 172 127 67 37 31 31 29 46 69 66 63 63 68 64 65 65 62 54 48 47 49 46 47 47 47 47 47 47 44 46 47 49 40 21 21 59 150 158 172 172 182 185 189 176 177 181 176 165 132 153 168 181 182 180 182 178 179 180 170 156 149 118 123 128 117 124 134 145 144 137 147 156 146 171 159 152 162 152 143 137 122 135 149 163 165 179 162 173 187 181 183 170 163 101 20 27 33 28 39 64 64 64 64 64 64 67 63 64 63 53 46 46 49 48 52 48 48 44 49 48 47 51 45 48 45 22 27 27 120 150 164 174 174 175 175 173 183 186 166 162 132 150 169 181 175 189 183 177 177 172 156 145 145 122 113 130 110 115 128 135 129 135 129 149 145 164 151 152 156 141 147 126 125 133 140 152 168 163 164 178 186 175 172 177 133 55 15 25 36 42 61 61 66 61 64 64 67 61 63 65 59 48 48 48 50 48 48 49 45 47 49 45 46 45 49 51 48 34 32 19 97 135 155 179 173 167 177 174 167 180 155 150 149 160 169 184 179 187 182 183 172 166 152 146 143 126 118 118 124 102 131 126 126 133 130 145 143 159 154 160 147 132 145 131 113 126 133 146 170 151 168 177 172 173 174 162 112 25 16 34 44 59 60 62 62 65 65 59 67 65 63 65 63 43 50 50 46 49 49 47 49 45 49 45 43 48 50 50 47 47 46 8 100 124 147 168 176 167 166 163 155 178 160 143 147 153 166 180 187 182 183 177 175 173 158 156 141 135 130 122 129 122 115 139 131 149 143 149 152 161 157 161 142 147 135 131 125 135 132 144 167 153 147 175 169 162 158 147 101 17 25 50 55 61 61 63 67 62 61 63 64 63 65 64 65 46 47 47 49 46 51 47 46 48 45 49 43 49 49 46 47 51 44 19 90 115 121 154 165 165 155 165 157 170 160 147 136 134 148 173 181 175 186 182 184 185 170 165 141 144 136 128 133 127 126 130 146 162 158 157 164 165 164 155 131 158 141 117 122 126 142 120 157 152 147 171 167 156 128 146 95 16 47 49 65 57 62 59 65 60 63 63 60 62 65 63 65 48 51 46 53 47 47 47 46 48 41 51 46 49 47 45 49 52 50 27 55 146 99 141 163 158 155 164 163 162 152 134 118 128 142 161 171 168 192 189 187 184 179 167 149 130 136 129 126 119 132 128 153 158 165 158 166 169 172 162 143 134 162 131 118 125 130 128 133 151 149 167 153 131 95 168 76 25 57 59 56 60 60 62 66 62 67 63 65 62 64 64 60 48 50 50 50 49 44 47 49 46 47 48 45 48 46 48 48 48 44 30 39 168 115 107 156 151 159 148 152 150 140 135 124 119 150 161 153 167 186 182 192 190 186 179 153 127 157 134 125 135 131 146 147 153 153 158 168 174 171 156 146 126 136 128 118 125 117 139 134 134 148 154 143 100 114 168 57 44 53 60 56 60 65 62 62 62 63 64 64 63 64 63 65 46 48 50 49 46 49 48 44 48 47 50 44 47 47 48 47 46 45 41 30 153 138 81 118 147 160 143 151 145 129 133 124 131 148 144 158 165 180 184 188 193 183 173 161 158 161 156 134 149 149 154 156 165 162 154 166 173 166 160 142 138 123 123 116 124 103 137 139 118 148 145 115 88 159 161 44 48 55 57 60 60 58 64 61 64 64 62 62 63 59 65 65 50 49 50 47 52 47 51 44 49 45 49 45 48 51 47 48 47 42 46 19 140 155 115 81 135 159 135 152 130 133 124 136 130 134 131 155 164 175 178 182 193 179 170 164 165 158 149 136 153 161 161 164 169 163 158 164 161 160 146 149 137 125 121 125 118 112 130 127 131 122 124 90 103 151 152 37 50 57 58 62 62 61 58 65 64 64 64 57 63 63 67 66 50 47 46 51 49 50 48 46 46 47 48 45 50 48 47 46 48 43 42 13 118 155 124 108 86 139 125 140 118 133 144 140 127 132 136 130 167 162 167 178 187 166 165 164 159 149 159 166 160 149 155 167 161 158 165 164 162 148 143 147 133 131 117 123 134 117 123 111 117 106 86 97 125 144 126 44 51 60 56 61 61 63 61 59 65 67 66 56 62 66 62 68 50 48 49 48 49 46 49 47 47 45 51 45 51 49 44 48 46 52 45 11 104 157 127 142 91 99 97 115 107 119 125 126 119 128 130 145 158 162 166 174 173 172 163 156 167 144 164 163 159 146 152 160 151 149 151 154 158 149 129 146 132 128 129 112 129 120 111 102 99 82 95 107 131 151 110 41 50 59 62 60 61 60 61 67 59 65 60 64 66 62 61 65 47 55 46 48 46 51 44 48 50 43 47 48 47 48 47 51 45 49 50 18 82 141 126 137 136 93 71 93 99 105 110 120 123 128 131 144 147 153 153 163 159 152 156 140 157 141 146 128 145 156 154 151 142 144 133 130 150 143 136 121 131 120 141 106 113 111 99 95 82 96 115 120 130 174 84 42 55 54 62 62 63 62 61 60 66 64 69 61 65 60 66 62 45 51 48 49 47 48 45 47 46 48 48 44 48 51 47 50 49 47 50 33 68 138 124 153 135 120 65 80 92 94 104 112 116 122 133 128 134 142 150 154 156 150 143 142 153 142 144 117 135 156 151 144 131 138 120 130 130 140 120 127 110 120 135 114 94 107 80 93 88 102 117 124 123 172 87 39 52 58 60 61 63 61 58 62 62 63 65 60 65 63 63 62 49 47 47 49 46 48 49 46 44 50 45 49 44 52 47 50 47 49 47 39 59 143 142 148 127 140 93 77 79 86 81 106 103 113 123 123 132 129 153 144 147 141 139 127 143 143 140 107 128 140 143 142 124 121 112 124 118 134 111 129 110 113 135 103 80 116 86 80 103 110 112 122 119 178 80 49 49 56 58 63 58 61 59 63 61 66 60 68 59 66 63 67 49 50 46 48 49 46 45 49 46 49 47 48 48 51 45 50 50 47 46 45 47 143 132 131 126 143 127 87 67 80 77 101 83 103 114 120 118 122 149 135 143 142 142 122 125 142 144 114 118 124 124 128 133 111 120 112 120 111 112 128 123 100 112 92 60 105 86 89 95 138 122 146 150 164 76 46 57 51 64 60 56 62 55 61 63 66 59 69 60 64 64 68 50 50 46 49 50 46 46 48 49 49 48 48 48 46 52 49 50 45 51 41 42 132 120 113 132 130 127 105 79 76 85 86 78 78 108 113 110 114 134 142 146 140 138 123 115 119 129 116 113 110 117 113 120 104 119 107 108 113 107 123 129 98 94 84 72 93 90 108 116 136 133 161 134 165 63 48 58 56 59 62 58 62 54 61 61 67 61 69 59 67 64 67 46 50 51 48 51 48 45 46 49 47 48 46 48 53 44 53 50 48 51 48 35 139 136 138 134 132 124 124 93 93 94 84 76 70 99 105 95 111 125 129 135 136 116 126 113 100 106 108 105 77 130 92 113 111 100 96 102 107 96 125 107 88 89 69 102 102 94 108 107 140 124 118 150 171 61 51 58 62 63 58 58 58 58 56 65 65 64 66 64 57 70 57 50 50 48 50 47 50 49 51 46 50 47 48 49 49 45 45 51 50 46 50 33 130 138 149 124 125 123 117 100 94 112 90 82 76 88 95 83 97 122 115 124 113 97 125 105 91 80 103 86 70 113 85 101 112 82 85 92 107 84 105 99 83 92 75 106 103 97 109 107 123 138 123 147 167 68 43 58 58 64 59 58 61 58 62 62 61 69 67 60 65 64 63 47 54 46 49 49 46 49 49 44 48 47 48 49 45 49 49 51 52 44 53 31 125 133 132 123 135 128 135 114 96 101 89 104 91 82 79 79 85 109 108 119 105 82 112 108 72 78 89 74 68 83 82 87 103 80 77 82 98 79 87 86 80 92 92 106 95 101 114 109 134 152 140 153 161 57 56 58 55 63 58 58 58 56 65 60 61 65 66 65 59 64 62 45 52 48 48 47 47 49 47 42 48 51 49 48 52 47 50 47 50 48 52 26 120 144 131 142 158 141 144 137 100 94 84 112 106 89 75 66 79 97 85 104 101 79 96 98 72 70 78 66 71 67 72 77 89 85 70 80 89 78 88 82 76 94 85 112 99 113 121 120 131 154 136 143 171 59 54 57 60 63 60 58 58 54 56 60 63 64 66 66 61 58 67 50 51 47 52 47 47 45 52 42 50 45 50 48 47 48 50 49 49 49 57 24 112 142 141 157 144 134 145 149 102 90 90 107 107 95 83 79 84 84 76 90 76 83 91 87 77 61 68 64 56 80 62 55 71 73 75 75 76 74 72 81 87 103 95 97 100 109 115 115 129 127 125 133 168 54 56 55 59 59 59 64 58 56 52 61 63 63 62 64 64 63 65 52 50 50 47 51 47 48 46 50 49 49 49 45 49 49 49 48 54 46 51 25 103 144 136 145 132 129 150 153 124 100 102 108 108 100 92 99 96 73 72 76 80 62 87 72 71 71 62 66 59 74 66 54 65 66 68 67 78 59 78 77 79 103 106 106 111 127 125 110 122 139 136 123 163 57 53 56 62 60 60 64 57 58 54 59 65 64 58 60 65 57 63 46 50 50 48 48 50 49 48 49 53 47 49 49 49 47 47 51 49 53 56 24 102 151 141 143 129 139 138 125 129 126 109 105 89 97 91 89 100 82 75 70 73 57 61 65 67 56 57 60 58 57 63 49 56 73 50 68 80 58 77 77 81 101 109 105 107 111 131 127 125 144 145 141 170 48 58 56 57 61 59 62 58 60 56 58 62 67 61 63 64 56 67 50 50 48 49 46 49 46 48 52 47 50 48 49 50 49 49 50 50 53 53 27 94 152 137 144 140 131 123 114 124 133 110 113 84 98 88 85 85 81 90 85 74 65 64 60 53 55 50 48 53 52 52 48 54 53 57 65 74 57 75 89 88 103 106 107 107 107 118 125 124 136 142 144 161 55 55 58 57 59 64 57 61 60 56 59 64 65 59 65 65 57 62 46 54 50 48 47 50 46 50 49 50 49 48 51 51 48 48 52 48 53 55 28 77 156 148 140 137 130 134 123 136 136 138 111 93 95 102 91 78 83 93 93 82 92 87 74 74 57 53 43 48 55 51 49 49 48 51 73 82 61 79 88 95 107 118 121 123 116 111 116 131 123 134 145 163 57 54 58 63 57 60 59 60 63 57 60 57 67 61 60 67 63 54 47 51 51 48 48 51 49 47 50 52 49 49 49 53 51 47 54 52 53 54 29 83 148 152 145 142 128 127 136 140 108 139 126 109 92 99 118 99 98 103 99 97 111 106 89 95 69 73 56 53 61 49 53 60 49 64 72 88 91 80 78 104 115 108 118 108 109 124 138 138 122 133 151 164 55 55 58 58 62 58 60 59 61 54 57 59 58 61 63 63 63 56 