P2
92
112
255
105 102 106 104 108 106 108 102 107 106 109 107 110 103 110 108 111 104 105 112 104 113 103 100 106 104 107 107 102 96 102 98 75 71 53 45 53 75 66 51 57 75 78 59 64 72 72 56 77 68 60 55 66 59 63 53 75 83 96 94 103 105 110 110 110 107 112 107 110 108 107 106 102 105 107 107 107 105 108 108 106 107 106 106 104 109 104 106 104 105 105 107 105 105 104 107 107 105 104 106 106 108 108 108 106 106 109 107 109 107 107 107 108 107 108 105 103 106 105 101 97 100 95 73 56 53 49 52 54 62 53 32 62 70 53 60 64 80 72 52 56 66 63 63 60 57 60 46 49 49 56 64 64 71 91 99 105 106 106 104 108 106 107 106 106 104 108 106 108 104 108 106 107 110 108 107 105 106 105 105 109 106 107 108 100 105 104 103 107 107 106 109 105 106 110 107 106 105 109 105 110 107 105 104 105 99 105 105 102 103 107 100 96 84 67 47 69 47 53 48 51 52 46 33 59 61 36 55 64 71 59 56 65 55 57 53 60 54 54 57 55 43 59 65 66 60 62 67 70 88 84 92 106 103 110 107 107 101 110 103 108 103 106 107 106 108 108 104 111 107 102 107 105 108 106 101 99 107 104 105 105 105 107 104 110 105 107 111 107 107 104 106 102 101 101 101 109 103 104 107 100 93 102 108 78 69 47 44 63 45 49 51 52 60 53 35 55 50 52 54 70 54 53 45 66 62 57 54 60 64 64 58 66 50 70 75 71 73 70 65 45 58 71 88 85 91 105 109 105 106 107 104 110 107 108 104 108 107 105 108 106 108 108 106 109 105 106 104 100 106 103 108 104 105 105 107 108 108 104 108 110 102 98 104 95 96 90 91 93 93 94 89 98 83 92 82 63 58 56 44 47 46 37 53 47 68 61 45 46 58 57 58 64 53 54 50 62 64 57 57 59 72 61 54 66 47 69 72 66 69 63 59 69 55 70 92 93 90 83 99 102 107 106 108 110 104 109 105 109 103 105 110 101 109 102 103 105 107 106 112 102 106 106 106 105 107 99 107 107 112 104 109 97 93 98 86 80 93 91 93 88 99 88 82 74 76 64 64 55 62 63 51 54 42 43 45 49 55 66 49 51 42 59 56 54 54 54 59 62 50 57 64 59 64 72 53 58 53 57 71 62 56 61 54 61 64 65 79 87 83 82 73 88 95 103 106 107 106 105 108 106 102 106 106 106 105 108 106 105 107 106 104 104 107 104 104 104 106 105 109 103 108 102 104 101 83 84 84 83 86 79 90 85 93 77 60 63 62 55 57 58 65 64 61 59 43 53 27 54 51 60 53 46 51 52 68 49 60 58 62 47 57 59 68 61 59 58 60 50 44 53 55 61 63 66 55 53 55 59 71 62 70 83 84 93 99 92 104 101 107 106 105 103 102 104 107 103 109 104 106 107 105 107 106 105 103 105 102 108 106 107 111 104 80 75 85 82 75 72 78 84 91 84 85 82 84 73 56 55 59 61 54 56 60 63 55 43 61 49 45 52 57 45 59 42 57 64 64 50 58 58 67 48 46 58 63 49 60 43 49 38 34 51 44 56 65 62 63 57 45 54 63 63 71 82 74 87 91 94 95 99 103 110 100 99 104 99 109 106 106 107 106 106 107 106 106 106 104 103 101 106 109 103 110 84 53 46 58 57 69 65 66 77 74 90 80 71 76 70 60 67 62 48 50 47 56 59 64 42 51 62 59 54 55 49 51 42 45 57 69 51 54 59 64 46 41 47 57 51 50 44 58 42 40 58 53 53 56 53 60 51 55 47 55 61 64 75 71 75 73 83 76 86 89 94 97 99 100 106 107 106 108 112 104 107 107 107 105 99 105 104 105 106 105 106 95 75 57 52 51 57 58 63 58 71 59 60 81 63 56 69 57 71 66 54 53 51 50 71 64 62 74 67 68 53 53 64 60 61 49 51 64 63 66 58 69 55 56 48 67 48 46 42 62 56 46 55 43 51 52 49 52 56 66 58 43 54 49 74 72 74 68 64 67 67 73 74 92 98 98 106 106 106 108 107 108 103 107 104 110 102 106 104 99 102 101 102 91 73 53 47 38 67 47 56 52 58 58 45 44 46 41 56 55 43 61 44 48 48 42 51 57 65 50 52 60 70 45 62 61 69 66 54 54 72 51 53 70 52 65 60 63 45 42 35 46 77 41 53 35 42 47 62 51 53 53 55 49 44 49 62 67 76 64 65 73 75 92 92 103 99 98 104 106 110 106 110 105 105 107 104 108 104 107 103 103 97 103 94 83 74 54 56 47 43 58 63 44 42 45 33 38 30 31 44 58 35 37 60 55 43 44 52 48 60 49 43 53 65 56 55 55 56 63 62 51 59 47 63 54 65 53 61 38 45 54 35 76 67 53 50 35 41 46 63 55 47 56 44 63 42 35 46 63 60 55 59 53 63 76 81 95 97 100 105 105 106 107 103 107 106 107 106 105 101 104 103 103 97 91 88 81 74 53 56 55 50 44 53 53 41 32 30 33 27 24 48 44 46 47 54 46 48 41 55 70 72 49 56 63 53 50 59 46 35 65 61 57 61 52 58 59 53 64 65 41 46 60 51 69 54 65 41 40 51 45 53 54 55 60 44 61 63 33 52 68 61 47 45 52 53 51 61 78 88 94 97 106 106 108 106 105 103 110 103 107 100 105 105 96 99 85 79 83 68 54 59 55 50 36 40 38 29 25 32 26 30 30 49 43 54 53 58 52 44 50 52 57 63 55 54 66 43 37 64 45 34 54 70 65 60 65 63 68 58 63 75 47 58 80 68 62 70 62 51 46 56 39 42 56 67 58 47 47 67 42 33 65 61 49 43 53 51 60 52 62 79 91 104 101 100 104 108 106 106 107 107 105 106 104 103 99 105 82 66 84 61 59 53 58 37 34 29 34 26 27 28 25 37 30 52 52 65 77 54 51 62 46 49 53 46 55 50 55 44 43 75 55 56 56 70 76 54 66 55 76 70 70 71 69 71 100 78 74 70 69 73 56 54 54 51 41 55 52 39 36 48 51 38 52 35 46 37 49 44 59 55 49 60 60 79 80 88 100 107 104 107 105 108 106 104 99 100 99 105 84 61 81 76 62 43 49 42 37 37 35 30 27 35 34 49 44 51 58 71 83 70 60 63 62 43 44 51 54 52 60 53 53 65 56 65 54 55 88 59 47 61 69 60 64 74 87 85 95 68 72 62 52 73 74 61 63 42 43 41 42 37 44 44 51 41 48 27 41 47 48 51 50 51 43 51 50 48 49 54 87 99 105 102 106 106 107 102 105 93 99 103 91 59 63 76 69 74 52 47 42 28 41 41 45 39 44 47 53 67 64 77 112 57 81 77 62 53 52 48 67 66 57 55 54 59 59 60 54 60 63 78 42 61 46 54 46 64 91 102 77 72 78 66 63 72 71 64 66 57 55 58 46 54 52 55 60 42 50 39 46 39 40 56 61 44 44 35 40 42 53 60 53 84 96 106 104 107 109 103 106 94 92 99 98 74 58 61 71 72 61 62 56 57 59 65 65 64 59 54 63 76 82 84 114 92 81 76 61 61 73 44 69 63 78 70 55 54 66 56 53 55 76 66 67 51 57 33 58 45 71 97 88 63 69 71 69 67 85 60 58 68 62 68 64 55 66 53 65 60 57 38 51 41 42 52 73 40 40 42 42 33 39 55 58 80 104 101 102 107 107 106 102 98 91 92 94 82 76 55 58 68 64 65 69 75 72 68 63 71 67 66 69 76 99 101 109 111 104 93 66 56 80 85 72 83 85 84 74 60 66 59 58 43 76 96 71 70 60 44 60 49 58 82 78 82 76 79 74 72 74 59 64 67 66 89 77 80 72 71 67 68 63 52 50 41 51 61 62 52 43 38 43 37 34 36 40 62 105 109 102 103 105 105 99 93 94 87 82 85 75 55 59 53 53 64 87 89 64 63 61 56 70 81 85 90 118 126 124 123 114 113 87 66 66 97 108 95 93 91 89 65 88 62 71 58 78 106 85 87 66 44 69 66 50 69 64 82 79 88 80 75 62 64 64 66 81 99 81 77 76 77 76 72 66 65 54 43 52 54 54 50 48 44 41 35 33 30 25 35 81 109 104 102 110 109 99 80 77 88 73 77 71 49 49 58 47 57 74 71 51 54 46 68 69 88 101 117 123 137 127 137 129 104 107 90 97 86 122 121 105 94 112 78 75 83 80 79 71 109 100 91 69 52 75 75 71 57 71 85 91 105 75 87 81 61 66 69 88 80 92 89 93 96 94 79 79 78 67 62 47 63 38 48 50 52 35 37 31 38 18 28 36 100 107 106 104 104 104 87 54 71 74 69 56 56 50 52 46 60 63 59 55 69 64 59 79 99 109 120 128 136 148 136 127 115 104 99 106 118 121 127 129 102 114 95 89 98 100 83 95 112 114 99 81 74 88 81 87 63 90 86 109 105 81 87 89 75 73 84 78 75 89 90 112 119 108 93 80 90 83 69 52 50 44 56 51 55 47 33 45 31 22 25 23 54 110 106 110 112 87 71 46 56 64 57 61 48 60 64 64 66 62 57 61 69 73 73 94 109 123 134 144 153 152 158 143 133 117 103 99 110 121 125 137 121 101 106 110 115 114 104 114 120 112 109 104 94 105 102 98 68 94 98 113 109 95 92 86 95 94 88 84 87 94 104 108 113 103 93 97 104 95 82 63 64 33 39 42 42 42 38 38 37 33 29 15 50 99 111 107 112 87 47 53 53 53 56 58 57 61 56 65 64 56 52 61 71 78 98 112 118 129 142 160 161 162 167 162 148 124 110 110 119 118 127 148 136 116 104 128 128 139 139 136 132 126 128 112 117 126 119 111 92 99 105 110 116 116 106 93 105 118 92 100 97 93 102 100 105 98 100 111 108 102 97 86 71 49 37 31 32 34 37 34 42 36 30 25 25 85 112 106 109 95 53 43 52 63 59 66 57 61 58 46 54 46 50 71 82 87 111 112 122 139 152 159 156 158 158 163 159 148 127 116 125 124 134 151 160 153 151 124 142 155 152 160 151 141 148 139 132 151 143 130 125 115 123 114 118 136 116 108 127 133 113 113 108 106 112 109 106 108 115 115 110 110 105 100 84 61 51 33 47 39 40 30 32 38 26 24 19 44 110 109 110 86 40 31 38 51 60 64 56 56 46 48 46 56 56 62 84 108 114 132 129 150 154 159 155 171 166 171 159 160 155 151 144 144 148 154 167 166 177 164 159 186 177 172 165 171 164 161 154 146 154 150 152 138 140 139 133 142 142 131 132 133 134 122 119 124 121 116 116 122 120 115 119 119 112 105 98 82 59 57 50 50 49 30 45 33 30 19 24 17 92 107 102 61 31 29 30 58 60 65 63 50 39 48 49 35 48 75 92 117 132 140 145 157 169 172 168 170 179 179 171 163 153 156 168 162 169 168 162 178 178 181 175 188 187 190 188 185 185 182 170 157 163 165 166 162 159 157 148 150 156 150 144 130 142 136 138 142 131 125 127 129 120 117 122 123 111 120 112 94 84 58 58 50 48 50 46 40 25 27 12 23 35 109 112 59 25 21 30 36 48 58 58 53 41 37 40 37 55 76 111 132 149 159 165 164 169 175 172 173 181 180 180 178 178 162 170 169 170 174 190 190 192 188 189 189 191 196 199 191 189 187 182 172 174 171 174 170 162 159 162 157 160 165 151 153 145 145 154 146 140 135 136 138 132 127 126 131 118 118 123 107 98 67 57 54 47 57 43 39 26 27 19 25 19 100 110 68 17 27 25 22 35 53 55 51 42 50 44 58 71 84 123 150 151 161 169 169 178 175 173 177 181 184 183 183 184 180 178 172 182 190 191 194 198 201 199 197 197 201 204 198 196 194 192 183 184 187 183 176 181 176 175 172 170 175 165 162 161 161 167 162 154 145 147 136 135 135 131 131 123 115 129 116 113 84 49 52 53 49 48 27 27 21 24 23 8 64 107 80 23 22 20 26 29 42 33 55 49 51 51 68 81 106 138 153 154 168 172 173 176 176 171 179 182 184 182 187 191 187 188 182 190 196 193 198 200 203 202 200 202 203 203 199 200 198 195 188 188 188 185 185 184 180 182 186 182 180 177 169 170 168 170 170 165 158 152 149 141 139 136 130 129 117 120 123 124 99 67 40 54 51 45 33 26 19 25 19 10 46 106 98 29 17 23 23 26 25 35 48 45 52 66 65 90 119 150 157 161 171 167 172 175 172 179 178 184 182 187 187 186 190 192 188 192 197 196 201 201 203 203 201 202 200 203 196 198 195 191 193 190 191 185 189 188 185 187 185 188 182 185 173 173 172 176 177 164 162 157 149 151 142 142 137 132 119 119 128 119 109 78 53 47 46 58 26 28 19 26 17 18 58 102 106 30 19 20 23 22 29 35 38 48 69 63 81 96 126 154 165 158 167 170 170 176 175 173 180 180 181 182 189 188 190 195 191 192 198 200 199 202 200 200 201 197 200 201 199 196 194 190 192 190 195 188 191 187 188 186 185 186 183 183 182 179 177 179 175 167 155 161 152 155 145 138 142 131 124 122 131 125 112 89 65 52 46 53 34 27 21 19 21 12 68 105 109 47 16 22 23 22 21 28 40 43 60 67 87 96 126 151 161 156 162 168 169 172 176 176 174 183 174 187 190 184 186 190 196 193 196 199 198 199 197 199 199 201 197 196 199 195 194 190 190 192 192 192 191 191 189 185 187 184 183 184 182 183 180 183 174 174 161 157 155 150 144 142 142 137 125 128 134 127 112 101 73 50 48 48 41 24 21 21 23 21 50 100 113 81 24 14 27 24 21 29 29 39 51 62 79 107 134 151 154 156 158 162 169 167 175 173 179 179 179 182 185 185 186 190 192 194 195 200 194 198 199 198 197 195 195 196 196 193 189 188 186 190 192 190 191 192 189 186 187 188 183 180 184 185 180 178 179 175 162 159 158 151 144 145 139 137 128 125 136 131 113 93 83 53 51 44 34 33 16 26 16 24 48 103 111 86 27 17 21 33 19 23 26 25 52 47 84 109 132 147 149 148 152 156 170 170 168 172 171 176 176 181 185 187 181 188 190 194 197 198 195 198 197 196 197 196 196 196 193 192 190 188 188 190 190 190 189 192 187 187 188 183 181 181 182 181 181 178 176 172 163 157 155 145 143 144 140 137 129 125 132 134 107 100 80 66 47 43 31 34 26 20 25 18 45 99 112 88 23 21 19 30 21 21 24 32 40 59 85 112 128 145 147 145 152 154 168 169 165 172 171 177 177 182 184 186 181 186 189 192 195 200 197 196 192 196 196 193 192 191 192 187 191 189 189 191 191 190 187 194 186 187 185 183 184 183 185 179 177 178 174 169 162 160 153 146 142 142 143 138 129 128 121 130 113 97 81 59 48 40 34 24 28 24 25 18 34 102 108 94 27 30 23 28 22 20 23 34 35 50 92 119 123 145 145 143 154 155 163 167 169 170 170 180 178 180 182 183 185 183 190 190 193 197 195 197 192 196 193 193 191 193 188 187 187 187 188 190 191 189 187 191 191 184 185 181 183 185 183 179 176 177 172 171 161 161 155 144 143 142 145 136 132 125 117 125 110 101 77 58 40 34 32 23 23 27 21 20 19 103 101 109 39 21 32 25 19 24 19 31 36 46 100 111 124 136 140 147 151 154 161 165 165 164 163 174 177 176 179 177 181 181 186 191 192 197 193 197 193 192 197 191 193 192 185 187 188 183 187 189 188 188 187 189 187 184 184 183 183 185 178 183 169 173 171 170 155 152 157 146 138 141 144 142 130 127 119 120 107 95 70 46 35 34 26 26 20 25 23 19 28 97 99 116 63 17 26 25 23 20 27 21 26 56 98 104 117 136 136 140 150 152 158 161 158 162 163 172 170 172 176 177 176 182 182 189 192 196 194 194 194 191 193 189 190 187 191 185 190 189 185 188 189 185 187 185 185 181 180 181 183 180 182 178 173 171 171 161 154 150 146 149 142 145 143 141 132 124 119 116 112 89 61 51 28 27 27 20 24 25 25 22 20 98 101 108 68 29 22 30 26 24 25 17 36 50 86 98 119 137 136 142 143 148 155 158 160 159 165 169 168 170 175 177 177 172 180 183 189 190 192 191 191 191 191 186 186 185 191 188 189 188 188 188 184 182 184 183 181 180 179 179 181 177 179 176 172 169 165 155 155 151 144 144 147 144 145 145 131 120 117 115 112 94 51 39 26 20 24 18 26 22 25 20 18 104 99 106 90 37 29 26 32 15 25 20 31 45 75 101 116 129 138 135 143 148 150 157 163 160 158 163 166 170 168 176 175 171 175 180 182 190 189 189 189 190 189 188 187 184 189 191 187 186 187 187 185 182 183 181 183 181 179 180 183 174 178 176 169 161 160 153 152 154 146 143 148 140 146 138 132 117 120 118 104 99 61 25 28 15 25 16 24 21 23 24 29 99 101 104 101 27 28 29 39 24 21 25 20 43 71 97 114 127 132 140 140 146 153 157 163 162 155 158 161 166 164 169 170 170 173 178 182 184 185 188 187 185 183 188 186 185 189 187 187 184 184 189 182 183 184 182 182 179 177 176 177 177 172 164 162 155 152 148 152 145 146 143 143 142 144 142 129 122 119 116 106 92 65 20 23 20 27 18 30 19 30 34 69 102 96 113 89 34 22 26 29 39 23 22 22 31 70 89 113 121 134 138 142 144 152 155 159 161 153 159 155 158 162 161 166 169 170 175 174 177 177 183 180 182 184 185 183 185 186 183 180 185 181 180 181 184 183 184 179 181 175 175 179 169 165 160 158 156 150 149 146 137 145 143 148 138 154 142 133 125 121 115 102 101 64 23 18 21 25 25 25 24 19 67 89 99 97 110 94 40 21 24 19 30 28 12 29 25 65 89 115 121 133 141 142 142 154 153 158 165 155 155 156 155 162 156 163 157 158 167 168 165 169 166 170 175 180 180 180 180 179 183 178 183 182 179 179 180 179 173 171 178 177 174 176 170 170 159 160 159 150 146 146 144 144 144 144 142 143 142 133 125 124 108 110 99 68 28 17 24 17 23 24 20 34 97 98 102 97 106 95 49 34 22 28 27 26 24 19 28 58 85 121 117 129 138 145 143 149 156 158 161 157 153 158 153 156 163 156 154 156 153 163 163 169 168 174 179 177 179 180 179 181 183 181 178 183 180 182 180 181 174 177 174 179 176 165 169 171 158 162 159 157 151 151 150 147 143 150 147 143 143 134 129 120 114 103 98 80 27 20 23 18 23 20 23 50 97 98 97 99 103 101 56 38 25 31 24 32 20 22 21 53 87 113 115 129 137 143 144 146 153 155 157 158 157 156 157 152 157 159 156 159 154 160 168 168 170 170 180 180 180 179 181 183 180 181 181 180 181 184 178 178 178 178 174 181 179 172 170 172 166 163 162 160 154 152 153 149 147 147 153 146 148 133 128 117 111 110 100 82 40 21 19 18 21 33 11 63 95 100 101 97 104 106 66 44 26 32 17 26 30 17 23 44 85 104 124 131 138 141 145 146 153 156 154 156 160 156 162 163 161 163 167 167 165 171 176 169 171 178 177 183 181 180 182 177 182 180 181 181 177 184 172 174 172 180 179 182 181 179 175 176 168 172 167 160 158 153 152 154 150 152 153 150 146 136 129 114 109 108 103 89 51 18 22 22 20 35 13 59 100 99 101 101 100 100 87 67 31 30 21 21 26 20 24 55 78 115 124 133 138 140 150 149 152 163 159 161 165 162 164 168 167 166 171 172 170 177 176 178 176 185 184 189 186 182 186 178 180 182 185 187 181 186 180 172 178 180 182 180 183 183 179 176 172 172 168 163 160 158 155 159 158 153 156 150 151 138 127 117 106 107 108 101 60 14 25 21 24 36 21 67 100 97 97 97 107 92 94 100 47 35 23 33 21 21 22 51 92 118 130 132 133 142 149 156 157 159 162 160 167 163 172 174 175 171 175 180 174 177 179 182 184 185 188 191 189 190 188 185 182 182 185 189 185 186 186 186 185 185 185 186 183 180 180 182 173 176 172 166 166 167 165 160 164 161 161 157 151 132 132 114 111 108 106 113 65 16 22 25 24 49 42 66 95 98 98 99 98 90 109 96 64 55 27 37 33 21 16 56 104 124 130 137 141 148 156 161 162 164 166 170 173 174 174 180 174 183 180 178 182 185 184 184 184 190 191 191 187 192 187 189 189 186 188 192 188 190 190 187 186 189 187 185 183 181 180 177 171 175 170 172 170 167 174 164 167 171 166 159 151 139 134 119 112 109 107 114 74 20 19 24 31 79 62 82 101 99 102 100 101 86 111 127 79 75 40 37 39 22 16 57 110 133 131 134 144 151 152 161 166 166 171 172 180 181 179 184 181 182 185 178 182 188 185 185 186 187 194 194 190 189 188 190 190 191 188 189 189 189 187 188 188 187 183 187 177 180 174 180 176 175 175 174 173 168 172 171 163 169 168 164 151 147 135 126 110 111 107 120 79 26 14 19 63 84 80 91 100 98 99 102 98 83 118 151 107 99 58 30 31 28 10 68 120 136 129 138 145 152 158 165 173 171 171 176 182 182 182 186 185 188 187 180 186 190 188 192 186 187 187 189 188 188 187 191 191 190 187 187 187 190 188 187 185 182 179 182 179 175 175 177 176 176 176 170 173 170 171 171 166 166 164 166 151 148 143 137 117 109 107 117 100 22 14 43 80 83 89 95 101 97 97 98 93 103 91 144 135 138 82 33 30 26 5 87 128 131 136 138 152 149 161 166 174 180 178 182 181 180 186 182 188 187 185 183 187 188 186 188 186 182 186 185 183 186 186 190 186 186 189 185 188 189 185 181 179 180 173 175 174 173 179 180 178 178 173 169 168 161 163 157 152 142 136 133 134 135 144 137 124 108 101 114 117 34 14 78 82 92 84 99 93 103 102 95 101 95 89 133 147 137 120 62 40 19 4 104 134 136 131 143 150 154 158 174 170 178 183 184 179 174 184 180 178 179 178 177 180 179 182 183 180 169 173 182 178 178 182 182 180 185 182 185 183 178 181 174 176 173 171 171 165 172 174 171 174 165 165 159 152 142 142 121 110 97 72 76 86 62 87 99 116 111 106 110 122 47 20 64 84 84 94 92 101 96 98 101 93 99 89 101 150 139 124 81 55 26 5 111 140 131 134 141 148 156 164 168 169 158 153 143 138 138 152 154 146 151 169 167 164 173 173 173 174 172 173 175 176 172 169 174 178 177 181 178 175 169 169 169 162 162 154 153 158 158 164 153 148 141 124 117 114 99 86 81 81 73 72 60 56 53 52 57 59 87 98 110 120 71 43 61 80 89 87 94 100 100 102 101 98 94 94 85 149 137 118 83 62 14 25 121 136 136 136 141 145 149 141 132 123 99 103 103 102 106 113 115 101 107 124 132 135 143 153 155 163 160 159 161 162 160 158 170 170 168 168 168 167 164 166 154 151 149 142 131 133 136 131 117 91 85 71 71 62 63 56 63 55 54 67 68 71 74 71 60 63 60 88 112 112 103 64 58 82 97 85 97 97 98 98 98 98 98 96 78 136 140 122 85 62 12 49 136 135 136 138 143 134 103 91 94 74 55 67 64 77 76 85 78 73 70 74 69 80 85 105 117 132 133 140 139 141 144 151 153 156 155 159 158 157 152 149 137 133 126 126 108 99 108 91 69 49 50 55 53 41 47 35 59 62 71 81 82 85 89 99 94 89 80 95 105 109 115 71 49 89 99 80 99 94 97 100 95 99 100 99 84 130 147 133 92 79 12 78 134 138 140 137 123 102 64 66 77 72 76 71 79 78 66 58 62 65 53 48 55 52 40 47 62 69 77 93 112 112 122 137 137 139 141 141 147 142 141 134 123 118 108 97 82 83 79 68 48 34 38 34 35 30 39 38 41 52 46 59 53 63 78 95 98 100 99 99 106 111 120 70 55 98 89 85 99 96 98 100 95 98 100 96 82 137 152 150 113 115 46 85 139 144 142 136 118 111 80 81 82 90 87 89 81 81 67 60 54 55 45 39 30 41 35 43 42 41 46 59 75 83 98 109 119 120 130 134 132 135 137 129 115 107 87 77 78 75 69 54 44 34 33 26 23 22 43 23 54 51 32 40 47 36 53 70 94 100 108 111 109 109 123 76 85 105 85 85 95 98 97 97 96 103 99 93 90 140 152 162 127 124 122 109 142 149 137 138 121 91 88 90 90 86 80 63 53 54 43 42 40 33 34 27 27 30 31 36 34 36 54 61 66 75 81 92 104 109 123 132 128 137 137 123 111 93 87 76 71 70 49 41 49 32 32 24 26 27 60 28 73 110 90 64 38 44 45 62 87 98 117 118 110 113 118 94 105 95 82 88 101 94 94 97 96 98 94 105 83 144 144 174 155 126 138 131 143 144 145 143 133 97 97 86 81 82 55 51 35 43 47 59 59 33 21 64 27 31 24 47 43 44 32 40 62 75 72 86 101 114 124 139 135 140 138 132 115 102 87 74 61 49 45 43 70 66 40 36 31 29 41 30 75 122 103 84 69 69 80 93 100 106 122 121 119 115 113 94 105 107 86 92 99 95 96 99 98 95 96 101 83 135 143 147 188 155 132 133 141 141 148 147 143 128 106 93 78 68 59 45 37 45 64 94 62 45 21 52 28 43 28 72 78 44 54 47 46 63 65 71 96 115 130 146 145 149 158 145 124 111 88 66 57 59 54 58 87 105 61 44 41 35 46 46 107 129 99 94 89 84 107 108 111 114 126 127 121 118 115 93 105 115 102 95 95 98 99 103 95 94 96 102 89 106 160 129 185 191 139 131 139 146 148 157 155 150 140 124 100 86 87 69 69 77 81 112 101 48 43 37 32 43 48 94 112 81 52 61 64 60 67 61 81 116 142 157 167 166 169 162 141 112 85 79 77 87 67 74 78 98 94 56 50 51 66 91 130 121 108 99 88 101 112 115 118 119 126 122 122 117 114 100 110 112 107 100 97 92 97 97 99 94 103 96 94 98 163 162 189 192 137 125 137 147 143 161 165 166 159 154 145 141 132 115 94 114 125 119 130 92 58 44 43 47 79 107 93 78 70 61 79 82 75 63 74 114 156 169 181 182 182 178 151 115 90 108 104 94 97 90 88 94 99 98 96 101 108 108 114 112 101 94 92 109 119 120 122 127 123 124 123 120 109 102 108 112 101 94 97 98 95 96 100 95 96 99 95 87 177 168 184 201 137 126 133 137 147 160 165 166 167 165 162 158 152 147 125 115 120 122 146 149 148 131 122 116 110 101 82 77 76 77 87 91 83 69 91 125 158 175 190 193 192 186 164 124 98 109 111 93 87 79 82 72 87 87 85 91 94 87 92 96 99 105 106 114 121 121 130 127 128 123 122 119 109 99 105 106 99 98 93 95 97 95 96 95 99 98 94 101 175 175 159 192 143 128 132 135 145 161 165 163 165 170 168 163 158 147 139 132 124 112 113 108 120 121 122 113 109 97 89 85 84 84 78 84 86 93 115 142 164 179 195 197 200 188 179 143 111 110 109 99 88 73 65 75 73 74 78 80 81 95 95 102 94 98 112 113 122 126 131 129 129 124 117 121 108 94 106 96 101 82 99 97 94 95 95 101 93 104 91 97 161 159 162 170 131 132 134 129 148 162 161 162 165 165 164 158 150 145 128 126 124 117 121 109 110 102 98 97 88 91 70 79 75 77 84 92 109 123 146 153 167 179 194 199 197 191 184 153 125 122 112 109 108 90 88 78 78 66 75 77 79 84 92 98 98 100 116 121 127 132 135 134 129 129 123 118 115 93 101 94 86 98 98 96 96 95 99 95 95 100 96 86 141 145 161 159 126 131 134 128 149 156 160 163 165 167 168 165 156 143 130 108 98 95 98 98 94 94 89 82 78 81 67 76 89 103 109 125 141 148 159 156 162 178 192 198 195 192 187 157 125 138 131 118 121 112 102 93 93 79 89 86 95 96 100 104 107 109 127 129 139 136 142 135 131 131 121 118 114 98 90 92 91 96 100 93 95 97 94 100 95 97 98 92 109 141 158 160 118 136 128 130 144 153 160 165 161 172 171 173 171 165 150 138 119 99 86 87 81 83 75 78 78 75 89 104 133 141 151 158 158 160 164 164 158 179 193 196 193 194 184 148 130 140 140 135 133 139 131 120 112 103 99 100 96 102 104 110 114 125 127 140 141 143 137 138 129 134 122 122 116 93 90 93 93 99 93 99 94 98 96 97 97 94 96 100 88 121 151 167 111 135 133 125 141 156 154 166 166 169 169 174 172 177 170 159 151 130 122 107 100 92 96 90 98 112 126 150 167 166 165 167 164 159 164 164 157 170 191 194 194 194 177 146 133 142 138 139 138 146 147 145 145 144 135 134 128 124 123 127 126 131 137 138 139 144 143 139 134 131 128 122 116 98 88 99 94 98 96 95 99 95 96 96 95 98 99 97 98 90 119 140 116 130 134 124 135 154 158 164 160 166 165 164 167 172 170 164 162 154 153 150 147 140 148 148 155 169 177 179 176 170 164 162 164 164 163 163 162 167 187 195 196 192 177 152 133 142 139 134 137 143 153 155 153 158 152 155 153 148 148 149 148 147 150 144 144 146 144 138 132 136 129 127 108 99 90 102 95 98 93 99 93 95 95 97 95 99 95 95 103 95 96 97 121 129 131 130 131 146 160 164 162 164 168 166 165 169 176 171 171 174 175 175 181 175 183 179 183 181 181 175 178 172 168 160 164 165 168 163 161 169 184 193 194 192 180 160 138 143 143 135 142 144 157 152 154 160 154 159 162 165 165 166 166 157 162 166 163 162 153 145 143 140 127 124 114 89 94 98 94 97 93 98 95 96 95 95 91 98 99 96 101 102 98 88 119 126 129 131 126 146 156 160 165 167 173 173 178 178 184 185 183 188 184 185 187 188 189 186 186 185 179 173 173 170 166 164 164 165 168 165 160 166 182 189 196 193 179 164 142 149 142 138 138 142 150 153 158 161 158 164 167 172 170 176 169 169 171 174 169 169 159 148 146 134 128 122 107 96 92 98 94 95 94 93 92 97 90 97 94 100 94 98 97 101 96 94 113 125 126 125 128 141 150 155 163 163 171 177 180 188 188 184 189 193 188 191 188 191 185 186 183 181 178 174 170 170 168 166 164 162 173 168 162 167 184 192 195 190 175 166 149 152 146 142 139 142 151 147 158 168 161 171 172 176 178 180 182 174 172 175 168 167 158 150 140 131 124 115 102 90 96 94 95 92 92 96 95 92 95 97 98 98 95 100 96 98 95 90 117 124 126 128 127 142 143 153 163 162 166 178 180 184 186 188 186 192 193 189 189 189 185 182 183 180 176 171 166 169 166 163 163 164 169 171 169 177 186 189 198 193 185 173 156 151 144 140 125 139 146 150 157 159 167 173 173 177 181 182 181 178 171 172 164 162 160 148 133 125 121 113 96 96 94 92 94 93 96 94 92 97 93 91 95 100 91 99 95 93 96 98 95 129 119 121 130 143 144 148 157 166 171 174 179 185 187 184 186 189 191 190 186 190 179 183 183 173 175 174 162 164 153 156 154 160 163 170 173 176 190 192 198 191 189 180 163 152 140 126 119 118 130 143 158 161 169 172 177 178 172 179 183 175 175 167 157 159 148 143 126 120 118 109 96 91 92 94 93 92 89 93 95 96 92 95 96 98 96 95 95 92 97 91 97 122 124 124 128 142 141 146 151 158 167 173 177 181 184 179 183 187 187 186 183 184 168 169 179 176 165 165 154 145 140 143 148 157 162 170 174 182 194 195 194 187 189 183 167 144 127 117 121 126 107 119 138 153 165 168 173 177 175 179 178 173 167 170 155 157 143 139 123 116 111 107 97 87 90 94 88 96 88 90 89 92 97 91 96 96 96 93 97 95 99 96 85 124 125 109 129 139 144 141 149 156 166 170 175 178 183 181 177 180 183 180 183 182 175 172 176 169 159 150 141 129 145 148 151 151 164 172 173 181 192 192 189 188 183 183 168 133 121 119 134 148 115 101 120 138 148 156 169 171 170 173 170 167 163 161 156 153 139 128 116 113 112 99 94 82 92 88 87 92 85 91 92 96 94 92 99 93 95 96 96 96 98 97 85 116 130 114 120 133 148 130 142 146 163 162 168 176 180 174 174 174 178 176 178 180 176 170 168 156 144 133 122 127 157 160 158 148 165 170 166 171 187 188 186 182 180 176 163 135 121 121 143 150 129 95 119 128 135 146 152 162 163 167 162 162 155 160 149 147 137 124 111 113 105 99 90 85 86 87 90 86 90 87 92 93 95 93 95 92 95 92 97 97 96 98 87 103 124 120 112 120 139 126 129 147 155 157 163 167 172 173 170 178 176 170 170 171 166 158 148 143 129 133 113 121 158 166 153 151 158 163 162 168 183 185 186 179 180 171 153 131 120 125 140 139 127 96 126 129 129 133 137 149 148 157 157 152 157 152 148 133 126 122 110 111 103 92 93 79 89 84 91 84 85 89 82 90 95 90 91 92 96 90 94 93 100 96 91 95 118 122 115 117 126 137 122 143 152 155 159 161 161 166 165 170 172 169 161 161 155 142 129 129 130 140 121 114 146 154 151 147 153 158 159 160 179 180 181 177 177 167 153 133 126 122 124 129 118 110 129 137 137 129 133 131 134 143 150 149 152 148 136 131 115 118 108 107 100 96 85 81 86 87 79 85 87 81 85 91 91 93 92 95 92 97 91 95 94 95 97 93 110 123 117 109 124 127 135 134 143 150 157 157 159 161 161 161 157 159 159 143 136 122 122 133 138 143 144 137 133 135 143 135 143 149 153 161 173 174 173 176 170 159 146 131 114 108 111 109 107 115 128 150 149 140 129 127 132 133 136 136 141 136 124 124 114 113 114 100 98 98 82 81 84 81 83 82 82 80 79 93 93 89 90 96 88 96 92 91 96 95 94 86 104 117 121 115 113 118 135 135 137 144 150 149 154 158 153 151 149 147 141 137 116 109 131 136 139 150 148 155 126 113 114 115 116 129 137 147 160 158 153 158 155 151 136 117 100 89 99 102 109 116 125 147 155 147 138 125 124 125 125 128 133 126 125 117 118 110 107 99 101 90 72 84 78 80 80 80 77 81 81 89 88 91 92 93 91 94 91 98 93 94 95 90 96 113 115 113 115 121 125 126 135 138 138 144 142 147 143 139 143 134 136 127 119 122 138 145 146 155 153 153 154 107 80 64 76 90 113 124 134 131 138 137 133 129 115 99 71 76 99 112 109 121 123 144 152 152 149 138 121 118 121 120 123 127 123 119 113 106 104 102 100 83 75 77 74 79 78 73 80 76 77 92 89 92 94 91 94 90 92 92 93 99 88 97 92 106 114 113 111 121 121 119 127 133 133 139 141 137 134 138 138 130 125 126 127 137 146 152 161 159 160 156 158 139 87 62 48 51 83 100 105 101 108 115 111 107 98 83 66 100 112 104 114 115 117 136 141 148 144 137 128 121 120 116 117 121 118 121 111 106 105 99 95 72 75 77 74 78 73 77 73 76 78 88 90 93 90 91 92 95 94 92 92 96 91 85 108 111 101 110 106 104 113 109 115 123 133 133 137 135 135 132 133 129 125 119 133 144 155 156 155 163 163 157 162 160 117 81 73 70 58 71 87 76 87 93 86 83 85 86 92 99 109 115 111 116 114 126 131 133 141 126 115 108 120 121 117 112 115 115 108 105 103 94 84 67 77 74 73 73 73 74 70 80 71 91 89 92 91 89 94 94 89 90 96 91 97 99 111 131 91 101 109 112 109 108 113 119 125 130 132 135 132 130 133 121 119 131 131 138 147 145 144 151 158 159 156 155 135 110 76 72 73 66 60 68 69 77 74 83 92 85 91 95 106 111 110 113 119 116 119 126 127 116 124 106 111 120 114 113 110 112 104 99 103 91 72 69 76 69 71 73 73 71 72 68 72 91 89 88 90 91 87 94 90 97 103 112 121 116 107 138 103 92 99 109 106 105 106 113 121 132 129 131 132 134 130 108 112 127 135 139 137 145 138 142 147 152 148 144 134 130 101 76 70 68 73 69 70 74 74 77 83 83 95 96 99 108 105 107 116 111 111 112 116 111 114 106 112 124 115 113 109 103 101 85 101 84 64 70 74 68 69 67 72 67 69 70 69 90 86 91 89 88 94 105 115 112 111 92 85 33 77 148 122 86 96 98 104 103 106 106 120 122 128 128 132 134 118 100 120 128 129 128 132 133 137 136 142 142 142 140 129 132 115 94 81 77 86 82 80 76 68 85 82 86 100 103 100 108 105 103 109 111 104 104 105 102 114 105 110 123 113 109 107 100 92 92 91 72 65 66 72 63 70 65 68 66 74 60 67 91 86 90 92 93 123 131 89 52 40 25 23 47 107 145 134 103 78 94 102 109 107 101 114 117 123 126 127 132 113 93 125 123 119 125 123 118 133 131 135 134 138 131 129 129 120 111 101 91 90 88 90 87 74 94 92 92 99 108 110 112 111 107 103 104 81 74 79 91 101 104 112 116 117 103 99 95 96 93 78 62 67 64 69 65 68 65 68 61 71 59 70 88 98 117 124 116 141 110 21 23 19 49 111 148 132 140 134 124 80 82 93 101 102 102 100 117 121 122 127 134 120 110 121 108 115 99 100 106 121 130 135 135 135 133 134 130 135 138 131 127 114 108 102 101 98 102 103 111 114 109 117 110 108 113 96 81 69 72 85 82 92 102 112 115 106 102 87 94 97 85 63 71 67 62 67 62 65 62 66 62 63 66 63 122 125 136 134 114 154 94 10 33 101 153 161 161 137 147 133 133 100 79 85 92 100 100 104 91 107 118 120 127 129 124 116 95 91 73 67 62 83 104 117 123 129 141 139 130 132 149 156 156 141 127 118 116 119 115 118 116 115 109 106 91 83 74 78 103 107 108 106 93 92 108 107 105 99 94 87 91 89 68 65 62 66 61 67 59 62 64 60 64 60 64 59 132 131 140 122 119 144 117 20 98 162 168 156 170 135 147 143 132 124 79 87 85 91 104 104 91 89 109 120 124 125 125 110 97 95 83 82 76 63 56 51 58 65 72 79 77 86 92 102 115 115 112 112 106 99 91 91 74 72 66 60 68 77 81 101 112 114 111 103 100 94 93 96 95 86 89 94 89 75 57 67 60 61 64 59 59 58 59 62 58 60 55 60 133 136 136 115 122 139 126 34 147 176 166 165 177 130 145 149 138 130 102 81 81 81 89 97 93 89 88 104 113 113 116 107 112 117 120 129 130 126 123 86 87 80 67 58 52 40 54 45 57 57 62 70 57 57 56 63 65 73 72 92 88 90 101 107 116 115 105 104 98 94 92 89 88 84 89 89 79 56 65 63 61 57 58 64 55 57 58 55 60 56 57 52 134 139 130 112 120 133 136 50 159 178 170 170 178 128 140 155 137 120 123 81 79 79 83 85 88 85 82 87 96 94 105 105 107 120 132 138 141 136 140 126 118 125 136 127 121 95 82 63 69 57 64 61 63 66 77 90 92 100 102 91 88 92 102 113 116 109 106 101 104 92 97 96 88 83 84 76 62 62 61 56 57 61 54 57 56 56 56 54 57 51 57 54 130 140 134 105 114 123 146 75 147 176 172 176 177 125 145 153 155 120 124 111 73 75 80 80 84 85 82 84 84 89 100 94 104 106 117 129 135 138 127 123 115 121 124 134 169 170 154 158 142 138 128 115 105 108 95 107 101 101 96 85 89 92 107 109 109 103 102 98 102 100 95 91 88 90 79 64 66 57 61 53 61 56 57 55 59 53 57 56 53 51 58 56 131 138 131 115 106 114 138 108 124 180 170 177 174 126 140 155 151 138 121 126 97 70 73 88 75 79 83 84 82 85 88 95 93 98 109 112 122 121 122 116 102 101 112 108 121 148 148 144 140 154 147 136 125 115 109 99 95 85 83 86 92 94 107 104 103 104 104 108 102 98 94 92 87 86 67 61 64 61 51 64 56 55 57 51 57 49 53 48 55 55 45 53 137 132 133 120 111 110 127 127 110 177 175 178 170 130 141 153 156 152 136 130 109 89 72 80 78 78 83 83 74 86 87 90 94 96 104 108 113 109 109 111 100 92 102 102 100 112 123 125 126 126 131 128 121 113 106 95 88 84 82 93 92 103 98 110 101 109 106 105 102 101 88 92 97 45 62 62 60 66 60 53 62 58 55 51 55 50 53 49 52 51 45 55 139 129 132 133 113 107 115 132 111 156 178 176 170 129 138 151 156 160 157 136 122 106 81 74 80 73 85 82 80 79 90 91 97 98 107 104 104 104 108 103 101 89 84 83 80 93 96 96 100 108 117 120 109 103 100 95 85 84 81 94 91 104 98 107 108 111 108 106 98 96 86 95 83 20 70 64 60 67 64 53 51 64 59 59 59 48 50 43 48 52 46 49 134 132 128 134 123 106 109 118 125 133 176 176 167 128 142 140 159 158 158 152 130 112 99 76 80 79 81 81 85 81 84 96 99 104 114 111 108 107 108 103 97 91 84 77 78 76 81 74 77 75 76 80 80 76 76 71 71 77 81 92 98 103 107 107 114 113 110 100 92 93 86 92 74 18 71 65 67 61 67 53 48 64 62 51 55 65 58 49 50 49 43 51 132 136 128 135 129 112 106 109 128 117 161 177 165 126 143 144 151 163 156 156 148 121 108 84 75 80 76 88 86 86 81 88 98 102 113 123 122 118 115 110 105 93 90 85 81 77 70 69 65 66 59 63 64 59 71 69 81 82 94 101 107 109 111 114 112 110 102 91 90 82 87 95 80 16 71 65 60 65 62 59 49 62 60 56 59 64 56 59 61 46 48 44 139 128 131 125 134 126 106 105 113 131 125 177 163 125 143 146 146 159 159 153 157 139 109 103 87 69 87 81 91 88 85 87 82 99 107 120 138 130 124 122 118 104 104 88 84 84 77 72 74 64 68 71 68 81 86 95 96 104 108 113 117 122 118 115 113 111 92 82 84 78 86 97 64 21 72 66 60 64 60 66 46 56 66 57 53 62 58 59 61 64 53 52 144 132 133 123 134 134 120 107 107 116 124 149 167 126 140 139 144 149 158 161 156 157 136 117 95 78 75 81 87 92 84 92 83 91 105 114 133 132 136 139 137 134 129 118 99 98 85 89 91 88 97 95 111 111 119 122 120 124 120 121 129 117 116 107 111 101 85 87 78 88 97 92 37 35 77 61 66 61 61 64 45 57 64 63 54 57 62 60 55 61 59 62 140 143 130 129 125 133 129 114 100 115 120 128 159 134 142 142 143 148 152 162 157 156 144 140 112 94 72 76 87 82 89 87 86 80 88 107 122 133 132 140 143 148 150 153 148 129 118 107 107 111 107 112 120 122 125 125 127 131 125 122 124 108 112 105 99 88 80 74 87 99 98 75 22 61 69 60 68 60 63 62 49 59 66 64 58 54 59 59 58 64 57 57 142 143 134 126 130 131 132 121 106 101 106 127 135 142 139 146 147 144 154 154 159 156 150 142 136 113 83 77 73 86 83 84 88 76 89 92 110 125 131 137 146 146 153 163 162 165 145 134 125 125 123 117 122 123 124 123 127 127 124 119 115 110 104 99 88 76 77 84 99 102 94 55 27 73 67 62 62 62 66 61 49 61 65 60 63 61 56 62 58 61 56 62 145 138 143 134 127 128 136 129 115 98 103 111 127 136 136 149 146 144 147 156 153 154 155 155 135 132 108 87 66 72 82 79 90 78 80 75 97 102 117 126 132 140 144 149 157 163 160 149 150 137 134 132 127 127 127 119 126 125 118 114 101 104 99 94 70 72 84 100 106 95 93 27 32 85 61 62 65 58 68 55 50 64 67 63 64 60 61 62 59 63 57 63 143 141 140 139 128 129 134 129 128 107 100 95 106 131 140 141 141 150 141 149 150 151 154 152 145 139 132 108 79 66 69 68 88 77 85 75 68 83 102 110 118 127 122 135 144 148 150 140 137 128 126 124 127 129 125 123 121 121 109 104 97 94 90 76 70 73 99 107 100 91 85 19 52 80 63 67 63 61 68 52 51 66 68 68 62 61 61 65 60 60 66 60 144 142 143 142 138 131 135 133 132 123 103 96 99 111 120 133 142 150 148 148 153 154 151 147 148 141 131 126 118 91 65 64 69 82 75 81 64 65 76 95 107 111 109 110 121 120 129 121 103 101 95 99 100 108 109 107 106 103 96 94 87 89 65 69 81 96 104 105 99 92 53 34 78 67 66 65 64 69 60 49 58 66 67 69 68 62 64 63 60 63 63 68 144 139 142 137 141 135 130 132 136 130 119 103 98 104 100 124 132 144 146 149 149 152 151 146 147 142 133 130 118 113 86 70 61 71 72 75 75 70 62 71 79 85 94 95 95 91 90 83 87 89 86 79 84 91 91 92 96 89 79 82 76 58 64 82 104 103 105 105 95 77 21 70 73 62 69 60 68 67 51 60 64 71 71 68 62 65 65 61 63 67 64 66 140 139 140 140 139 135 135 129 136 133 138 116 105 96 101 104 120 129 141 145 154 149 152 146 145 146 140 128 125 113 103 90 77 62 70 64 76 70 67 60 65 66 70 79 75 77 78 68 75 76 76 71 73 78 79 79 72 72 64 65 62 62 96 103 103 103 100 103 88 46 44 78 67 62 69 66 62 69 53 61 65 74 69 64 75 62 72 55 71 66 65 65 144 138 142 137 143 138 140 133 131 133 136 129 113 101 95 104 106 117 125 135 146 149 150 145 145 143 145 130 126 121 110 95 93 75 76 56 67 66 68 70 69 62 62 59 66 65 67 67 68 70 69 67 66 61 68 58 61 60 58 66 78 105 104 103 101 100 100 93 62 50 72 73 67 62 66 68 71 58 55 66 68 79 68 69 69 69 67 69 64 70 70 67 144 141 137 137 139 134 141 140 134 137 134 131 127 113 92 99 100 106 114 117 129 140 144 142 149 146 138 134 134 121 118 106 99 75 87 67 66 61 59 63 70 70 68 60 63 59 59 65 54 54 64 60 61 60 61 54 62 60 72 96 105 108 99 104 104 97 100 74 39 76 77 62 68 66 63 72 66 60 60 71 68 78 73 71 66 73 70 73 65 72 62 75 