P2
92
112
255
111 111 110 114 107 116 112 110 113 113 110 114 112 112 112 115 112 112 113 113 114 113 115 110 115 108 110 89 90 91 82 51 55 51 71 46 54 69 86 97 80 68 78 77 85 96 95 109 99 115 110 108 113 112 115 112 114 117 114 112 116 113 115 109 114 112 115 114 113 113 113 113 112 111 111 114 111 115 111 112 114 111 115 111 114 110 115 110 115 105 115 107 107 110 111 110 113 111 111 111 111 112 111 115 109 113 112 114 117 113 113 112 114 113 108 116 100 86 60 52 58 73 54 45 50 74 67 45 54 54 55 73 58 41 50 54 62 55 51 61 63 67 64 75 71 85 99 96 99 104 99 105 107 113 112 110 109 113 114 113 112 112 111 114 114 114 114 112 115 113 113 113 113 113 113 112 110 113 112 110 113 111 111 111 107 113 107 111 112 110 111 114 112 113 110 113 111 114 112 115 113 111 110 112 109 106 101 100 69 59 36 46 49 64 46 35 47 64 48 48 58 65 57 57 52 48 44 58 49 51 44 45 58 53 45 51 54 56 60 64 70 71 66 62 97 95 99 112 110 112 113 114 113 112 116 111 113 113 113 113 113 113 113 112 115 111 114 113 113 115 110 111 114 113 112 112 111 108 115 108 109 111 111 114 113 111 114 112 110 114 112 109 111 111 110 112 109 102 92 75 48 49 38 50 50 56 39 40 46 62 49 44 60 64 60 49 50 50 39 54 47 50 56 51 56 50 54 58 58 53 64 53 52 47 49 53 63 88 66 90 111 115 114 115 111 112 112 111 111 113 111 112 114 111 110 114 109 112 112 111 113 112 111 110 113 114 112 112 105 111 114 112 111 111 112 111 110 112 113 109 108 113 108 112 109 113 111 112 112 105 73 49 53 53 42 47 49 49 47 42 56 51 54 50 41 47 55 44 50 41 55 45 46 47 53 44 50 45 49 61 55 55 62 58 60 47 48 49 42 56 53 61 74 94 112 115 115 111 112 110 111 113 112 110 111 111 112 114 113 111 111 116 111 116 111 112 111 111 115 111 110 111 111 112 111 109 114 112 112 115 113 111 112 113 112 105 110 110 111 108 103 84 59 44 53 55 52 42 48 49 44 49 49 45 48 44 42 36 42 45 50 45 46 43 47 45 46 39 52 39 40 46 47 51 47 56 53 49 53 43 43 47 37 68 65 86 97 105 105 109 110 108 110 98 105 112 112 112 110 114 112 113 112 112 112 113 111 111 112 113 113 111 112 113 110 110 112 111 112 113 110 112 106 107 109 107 111 102 101 101 92 87 72 69 57 47 46 50 54 50 42 49 58 53 50 44 35 47 53 39 39 43 47 48 42 37 41 43 35 39 44 39 28 37 31 38 39 53 47 44 49 44 49 44 48 40 62 86 89 85 87 89 94 93 101 102 105 111 115 112 111 113 112 110 112 110 111 111 110 112 111 112 112 110 110 108 114 110 112 112 109 105 107 105 98 93 88 86 90 89 81 64 67 56 48 39 48 48 35 43 50 44 43 51 49 43 41 48 43 36 43 44 41 37 32 53 41 35 41 35 42 42 36 32 29 18 36 38 31 42 39 41 36 39 47 45 50 34 43 72 73 61 68 69 62 74 96 108 103 109 113 111 112 115 110 110 110 115 111 109 113 108 112 113 111 113 113 114 110 111 111 109 106 105 107 99 96 94 96 80 86 84 69 45 47 56 51 51 48 47 36 37 40 30 44 37 41 49 39 44 47 37 43 39 47 29 43 44 47 41 45 32 38 40 39 23 26 33 33 38 41 45 48 36 29 36 37 29 43 34 35 50 58 61 54 56 61 51 84 102 101 112 110 113 110 114 111 112 114 111 112 110 113 113 113 111 111 111 111 112 109 112 103 102 104 98 93 80 95 94 97 89 89 92 68 49 51 55 54 52 40 48 36 39 29 40 36 41 45 44 39 44 37 38 40 38 42 44 43 42 45 51 46 45 41 44 34 33 36 33 41 39 34 47 55 43 54 46 36 30 34 27 33 41 57 61 57 58 65 65 60 62 84 94 102 114 112 112 114 111 111 114 113 113 114 112 113 112 112 112 111 114 110 109 106 104 104 87 83 96 87 86 79 91 91 87 81 44 46 49 41 40 49 42 35 40 30 23 31 43 42 45 34 44 39 37 42 51 39 59 44 42 43 44 41 46 51 44 48 50 46 41 40 41 28 45 51 39 61 54 45 37 36 34 28 37 42 53 55 52 58 68 69 76 76 93 98 104 108 112 116 110 113 113 112 115 112 112 111 114 112 112 111 114 100 103 96 90 80 85 84 91 95 87 85 71 79 83 73 52 42 44 39 24 50 36 41 42 41 38 33 32 50 35 43 40 42 48 45 53 48 46 50 50 38 49 40 41 45 54 35 73 66 56 47 45 33 42 43 46 47 55 47 41 54 43 33 29 35 39 49 52 60 64 67 64 71 75 78 80 88 110 108 111 111 112 112 115 111 111 114 114 112 112 108 90 64 56 61 65 68 75 75 86 89 96 73 83 54 65 71 48 37 38 40 24 36 39 41 56 44 47 32 35 40 35 49 49 36 40 44 47 47 43 44 61 44 42 42 37 51 45 33 57 67 68 59 57 41 45 50 48 47 42 45 44 54 48 40 40 41 34 34 42 50 55 56 61 57 47 58 50 60 86 99 97 110 111 112 111 115 112 114 112 112 113 94 62 42 46 46 55 57 57 67 66 74 74 73 61 62 31 62 33 40 36 38 25 33 35 53 50 54 49 44 38 41 51 40 47 47 43 38 52 54 48 47 50 52 57 47 45 49 44 47 55 55 60 56 56 48 60 50 50 51 52 38 42 53 52 41 42 44 36 30 40 43 52 56 63 51 44 54 55 55 53 95 103 97 109 112 112 113 111 112 114 111 110 74 57 40 43 38 46 53 56 59 58 50 49 45 39 38 33 37 34 27 41 33 35 45 38 47 48 49 53 48 49 42 53 48 50 62 52 47 45 67 48 55 57 56 70 56 59 56 42 58 58 70 52 60 51 55 77 51 48 61 46 46 63 56 53 52 49 55 35 30 40 39 41 54 61 57 43 48 50 57 41 69 103 113 106 108 111 113 110 114 113 113 111 76 63 44 36 41 47 43 46 56 63 47 32 30 26 28 31 35 35 31 41 33 49 51 56 48 51 51 52 51 54 55 61 74 59 70 68 51 62 66 67 58 78 67 76 81 68 65 46 62 66 78 65 65 64 67 95 61 61 65 49 59 69 63 59 65 71 69 54 42 43 41 39 55 60 60 47 44 38 40 29 44 63 110 117 112 110 113 112 114 114 108 112 73 72 48 31 47 53 54 43 44 43 47 36 30 32 29 35 33 42 40 47 43 57 79 78 65 62 60 57 57 53 71 84 100 105 66 92 67 81 74 82 75 84 74 108 100 93 79 66 80 83 87 78 52 98 85 102 65 81 79 61 75 80 67 71 79 98 95 83 61 55 44 40 45 51 49 53 55 37 36 27 33 39 67 106 113 112 110 112 116 108 112 111 66 60 54 34 41 43 48 43 42 36 33 32 32 31 35 45 43 44 48 57 52 74 88 100 83 72 74 69 83 79 84 106 102 121 100 105 98 65 93 99 106 91 101 126 119 103 110 86 101 117 106 87 81 96 110 102 93 107 82 85 99 95 87 90 84 100 103 91 79 79 68 49 45 44 42 47 57 51 43 32 34 25 32 65 111 113 112 113 114 114 112 112 70 56 46 48 40 31 40 38 34 36 32 42 47 41 46 49 43 49 66 58 83 92 97 122 108 88 76 90 89 90 93 112 110 119 128 123 126 85 89 128 120 132 128 145 134 122 125 117 129 141 139 116 108 105 125 121 111 130 102 103 124 109 100 106 97 101 107 93 97 105 94 72 51 43 41 35 33 35 32 41 41 30 24 43 83 117 111 110 116 114 112 116 66 61 41 44 45 46 45 46 42 44 55 56 56 47 51 49 47 56 71 76 102 117 112 128 133 114 91 95 91 102 98 110 111 110 135 131 134 126 106 119 138 148 150 165 144 152 148 148 147 161 155 148 137 135 144 146 133 144 138 129 125 126 125 112 121 122 113 108 112 119 108 97 83 61 49 35 41 24 34 39 46 35 20 50 78 111 113 112 112 113 113 110 70 46 47 42 39 45 46 49 52 71 77 55 48 52 46 51 58 63 85 102 105 112 129 130 135 137 129 115 103 102 94 108 116 125 132 144 144 152 157 147 157 162 165 167 170 176 169 170 169 160 166 160 167 161 154 164 155 153 159 153 137 139 142 133 142 135 124 123 123 117 118 114 110 88 70 37 44 47 44 49 49 47 23 21 46 98 114 112 113 111 113 114 78 63 43 34 38 34 32 47 55 72 72 46 36 51 51 57 65 83 86 110 115 120 138 143 149 139 139 131 125 124 129 130 132 139 154 150 151 150 163 158 163 171 172 180 183 181 182 177 175 169 176 171 171 170 164 159 164 165 162 165 157 152 152 147 153 151 133 138 131 129 123 123 121 110 102 66 42 56 51 47 58 51 46 21 11 47 114 111 112 114 112 114 82 75 52 35 32 29 35 38 58 56 56 44 41 60 60 64 72 100 105 117 125 139 145 142 141 145 135 133 138 149 146 153 153 155 164 157 164 169 166 167 171 172 173 185 189 186 185 186 184 181 182 185 182 181 178 175 174 176 170 172 170 159 162 161 157 158 154 143 143 135 135 130 125 117 115 105 72 37 54 53 58 60 46 26 27 11 64 110 117 112 111 113 70 70 56 37 31 34 38 39 55 48 52 43 36 51 63 74 84 105 107 121 132 136 137 152 150 155 159 159 146 158 158 154 160 163 162 166 173 184 183 184 188 187 187 188 193 191 192 189 190 188 185 188 186 185 187 178 182 180 184 177 180 167 166 167 164 167 164 152 149 146 141 137 135 120 120 116 110 67 27 46 62 61 50 33 21 23 13 78 127 110 114 113 59 60 47 47 41 42 59 62 49 51 47 41 45 52 64 97 102 103 113 138 144 148 150 156 165 167 165 161 163 169 170 161 166 169 175 183 185 188 183 189 194 194 194 196 195 193 190 192 192 187 190 190 188 186 187 185 183 183 182 185 178 177 171 173 171 171 167 152 156 144 148 143 140 132 117 121 119 101 63 26 33 62 56 31 21 22 17 32 127 111 115 110 61 58 45 50 53 51 57 59 47 45 42 41 56 59 74 108 109 120 122 139 151 158 158 165 163 167 168 174 171 174 181 176 181 183 184 188 189 191 188 195 198 195 195 196 195 194 194 195 193 189 192 189 192 190 189 189 185 185 182 180 179 183 175 176 175 174 170 159 158 152 150 146 144 136 130 117 128 112 88 50 33 52 60 41 25 21 17 18 113 117 115 111 45 46 42 49 61 61 57 49 41 44 44 42 52 68 95 111 129 131 141 144 154 164 163 166 162 172 175 180 178 184 187 186 185 187 187 192 193 194 197 198 197 194 196 197 194 195 195 195 192 191 194 190 192 192 192 191 188 185 184 183 180 179 178 180 179 176 173 170 161 152 155 143 144 141 132 124 129 130 106 66 41 46 54 56 32 26 11 26 105 121 111 112 36 34 46 54 65 60 51 36 43 39 43 37 48 84 107 123 140 147 147 148 160 168 168 168 166 174 179 181 182 186 188 186 190 193 192 194 194 197 196 197 198 195 197 196 195 195 193 195 194 190 191 192 192 192 190 192 192 189 186 184 183 177 179 178 180 176 177 171 165 155 154 144 144 142 137 128 125 142 116 82 60 44 43 63 42 24 15 14 95 122 114 112 25 34 46 63 71 60 46 38 41 28 34 52 53 82 120 134 147 145 150 156 162 167 168 169 172 174 180 181 181 185 191 189 186 191 195 195 196 197 197 198 197 199 196 196 194 196 194 196 194 193 191 192 193 192 193 194 192 191 189 184 188 184 184 184 180 177 174 171 162 161 153 148 143 145 139 129 127 135 124 97 65 54 45 55 52 36 14 18 100 120 111 112 28 28 39 40 62 64 46 40 33 31 48 57 67 93 127 143 147 150 155 155 160 166 171 173 171 175 176 182 177 185 189 186 184 190 193 194 197 197 197 199 198 196 197 196 196 196 195 195 196 193 193 192 194 196 193 194 192 192 190 186 184 188 186 184 179 174 177 172 171 162 159 150 139 146 142 136 125 128 131 100 88 49 63 50 42 37 27 11 73 115 113 114 24 26 28 34 51 59 49 53 39 45 51 62 80 109 126 148 154 150 150 161 160 166 169 174 176 173 179 183 180 180 186 185 181 189 190 196 197 198 197 197 196 195 196 196 194 197 197 197 195 193 194 193 193 197 197 193 191 193 189 186 188 189 186 186 183 175 169 177 174 158 158 157 144 139 145 138 129 120 123 109 92 61 58 56 39 30 33 14 68 101 107 117 21 21 25 29 39 36 52 62 49 52 56 79 86 108 130 149 152 154 147 157 160 164 169 171 173 174 174 176 181 183 182 185 184 184 191 192 196 196 195 196 196 194 196 198 194 197 199 193 195 196 195 196 195 198 192 195 193 191 191 187 189 187 188 190 182 180 174 177 169 161 155 159 148 148 146 140 131 121 118 111 95 65 54 48 46 27 29 24 38 81 101 107 22 25 20 30 35 33 47 50 51 62 67 75 87 108 124 153 149 150 149 146 160 163 170 167 170 169 169 176 183 180 184 185 186 183 190 191 195 194 197 196 197 195 196 198 197 196 198 197 195 196 196 195 195 197 195 190 195 192 193 188 187 188 188 184 187 180 177 175 170 165 159 159 151 150 151 146 139 119 120 118 94 66 56 42 34 26 29 23 21 70 105 103 23 20 20 30 27 32 39 42 47 65 63 76 87 112 126 146 147 146 145 146 153 163 166 168 169 171 173 180 182 179 185 184 182 185 185 190 195 194 199 199 195 198 198 197 199 195 194 198 197 197 196 194 197 197 192 193 193 192 194 189 188 189 188 188 186 182 175 172 169 163 161 160 152 153 149 146 147 118 117 118 102 58 46 36 28 26 26 24 26 66 81 97 21 23 17 24 19 31 31 45 50 50 67 70 86 119 128 139 145 142 141 145 151 158 164 170 168 165 169 172 180 178 179 183 180 182 183 188 188 195 198 197 195 196 197 197 198 196 194 196 199 197 195 194 195 195 195 191 195 193 190 191 189 186 189 187 182 178 174 171 166 162 159 157 157 148 148 145 141 132 115 122 109 73 30 27 23 28 23 17 37 75 83 107 17 20 17 22 23 28 35 38 37 49 56 64 89 114 125 136 142 144 140 142 151 153 166 169 165 167 165 170 179 173 179 181 180 186 180 185 184 191 194 195 195 196 196 198 194 198 195 195 199 196 195 195 195 195 194 192 196 196 189 189 190 186 186 187 181 177 174 173 160 165 155 155 159 153 151 153 148 133 124 117 111 82 34 24 23 25 23 23 20 80 99 110 26 17 20 20 25 26 29 29 33 48 49 66 88 117 122 132 142 139 138 146 150 149 164 162 163 165 163 167 175 172 176 177 182 184 178 182 185 187 192 193 195 196 199 196 198 197 194 200 197 197 194 196 196 193 193 192 194 194 190 190 189 189 185 179 183 176 174 176 165 163 161 161 156 154 154 149 151 138 133 122 108 99 37 20 23 22 26 27 24 69 111 112 26 12 21 22 21 23 25 29 34 43 52 60 92 114 114 129 136 140 135 143 145 149 160 156 166 167 164 166 169 171 178 175 178 182 178 183 181 187 188 189 196 194 195 193 197 196 196 197 195 199 197 196 195 197 194 193 195 193 189 188 189 190 186 178 184 177 175 175 173 165 160 165 156 150 153 153 153 140 135 122 113 102 51 15 20 24 26 19 32 99 117 112 20 18 24 18 24 22 26 24 31 46 46 58 95 108 110 123 138 134 134 142 142 146 153 160 165 163 163 167 165 168 173 176 170 179 177 179 179 183 184 189 191 188 189 192 198 195 198 196 193 197 198 195 194 196 195 197 193 190 192 187 190 189 187 183 185 178 174 175 175 167 161 164 159 155 155 160 153 145 141 120 111 111 64 13 18 23 26 20 48 103 116 110 24 26 18 23 17 25 21 23 32 36 39 57 88 103 104 125 131 136 136 138 144 145 153 160 166 164 164 166 163 164 172 172 169 175 173 171 173 174 182 184 188 188 188 196 195 196 196 197 196 195 196 194 194 195 194 196 190 188 189 190 189 191 185 184 184 181 177 177 177 167 166 160 163 160 157 159 157 148 139 127 111 116 75 12 18 31 18 19 75 110 111 110 24 19 22 21 24 20 24 23 26 27 31 60 75 99 104 116 132 133 138 138 141 139 149 161 162 165 169 169 166 169 171 170 173 182 176 169 174 174 172 185 184 187 189 194 195 193 194 197 195 189 195 193 194 195 194 193 196 189 186 191 189 187 190 188 182 180 179 178 179 170 170 165 162 162 159 163 159 157 143 129 113 114 88 12 20 29 17 24 91 111 109 109 14 22 21 23 24 22 24 21 25 24 33 53 63 87 97 117 125 129 131 141 144 141 148 159 161 162 171 170 166 166 169 172 167 174 177 175 174 180 180 185 189 188 188 198 195 198 196 196 195 194 192 193 194 196 195 192 196 194 191 189 193 191 189 187 185 180 179 179 177 174 172 172 168 168 167 165 161 160 141 131 111 118 101 23 20 20 21 24 96 117 106 110 12 16 21 21 18 26 23 21 25 23 32 40 55 81 90 108 118 128 135 141 140 144 145 155 160 165 167 167 170 167 170 174 173 175 177 179 181 182 184 187 189 191 192 196 195 197 198 196 196 190 194 191 193 199 194 195 197 195 193 191 193 193 189 189 186 184 180 184 178 176 175 173 172 167 166 168 165 157 152 131 123 111 113 33 15 21 19 21 101 110 112 108 19 20 19 23 18 25 27 20 23 20 29 27 54 70 87 108 120 124 132 136 142 145 148 149 161 168 164 168 168 172 173 171 176 177 178 179 184 184 185 185 192 189 192 199 199 196 195 197 197 194 195 194 196 195 198 194 196 195 196 193 194 194 193 188 188 185 183 184 180 179 180 174 175 174 171 162 166 161 151 139 125 110 119 50 14 18 24 21 107 113 108 106 9 27 27 20 22 25 27 36 21 21 23 29 36 65 86 113 122 117 125 136 142 144 148 150 153 163 167 169 173 174 176 177 177 183 182 182 183 185 187 186 191 193 192 192 198 199 199 198 198 195 200 197 197 195 194 197 196 198 196 193 193 191 193 188 187 187 187 188 185 182 179 179 170 171 160 153 155 149 143 139 144 120 115 71 12 21 23 28 107 111 110 111 14 18 25 30 15 21 28 21 28 24 26 20 36 53 83 108 113 119 128 136 141 141 149 151 161 162 168 170 174 171 177 177 180 183 182 186 187 183 187 190 194 193 194 192 195 195 197 198 197 198 197 199 198 197 195 198 196 198 194 194 192 188 192 187 188 192 189 191 184 179 177 169 158 156 136 116 97 81 77 93 103 116 119 90 15 11 31 78 103 106 109 105 28 16 19 25 19 20 23 18 22 22 24 20 30 51 77 98 104 128 133 137 138 139 148 154 161 165 170 170 174 176 181 183 181 190 182 186 191 187 187 193 193 195 196 193 189 194 195 199 195 197 199 197 197 197 197 195 194 194 194 191 191 186 188 186 189 190 187 186 177 154 150 142 132 100 94 89 73 64 57 54 51 66 88 107 28 7 44 106 107 109 108 108 32 23 23 19 22 20 25 25 21 21 21 26 24 50 69 92 111 128 132 136 136 138 147 157 164 167 167 170 177 178 182 183 184 188 190 188 190 189 190 193 193 195 193 196 180 190 197 199 190 196 196 195 197 195 197 194 192 192 192 189 186 184 174 175 184 180 176 156 129 102 94 93 83 67 62 58 51 66 62 67 59 57 41 83 54 6 60 115 102 107 111 103 42 18 22 27 17 26 27 23 29 24 26 18 29 39 67 93 111 131 135 139 138 141 147 156 166 166 169 174 171 175 186 181 185 186 190 192 188 188 190 190 192 191 193 189 191 192 195 195 193 190 194 194 193 193 193 192 193 191 189 185 181 172 169 145 144 158 125 85 65 74 73 61 50 51 60 88 98 118 114 113 105 102 76 61 66 22 104 117 100 112 105 111 47 14 31 27 26 26 24 17 23 23 28 20 26 40 77 97 116 131 131 134 141 141 144 157 163 168 176 174 177 180 185 181 182 186 182 181 181 188 183 179 186 188 185 189 189 187 192 186 188 185 189 190 188 191 189 190 185 187 175 170 165 157 147 128 114 133 99 62 51 59 54 54 62 88 107 119 120 114 110 110 117 116 111 88 80 44 139 123 96 106 113 107 49 21 21 34 23 25 23 22 22 23 20 23 25 38 74 108 123 130 134 130 139 145 142 153 162 169 174 178 181 184 170 154 162 163 159 147 152 166 166 154 159 163 173 178 177 177 182 172 172 181 182 184 180 182 181 184 177 179 170 162 152 142 128 118 106 105 78 50 44 53 68 89 93 103 110 95 96 90 90 104 109 114 115 107 96 84 128 115 103 108 111 108 61 25 22 30 22 25 24 24 26 22 18 21 19 36 71 114 119 135 134 125 144 143 139 144 165 171 169 174 159 148 118 115 121 119 118 102 99 105 103 92 96 102 114 128 128 134 153 152 157 165 175 174 170 174 172 174 171 175 167 155 148 121 111 112 102 92 78 55 64 86 102 103 95 98 109 83 94 93 74 69 93 108 113 117 102 103 113 112 105 110 107 106 75 28 20 25 29 25 18 24 23 35 26 18 24 35 76 113 124 126 132 131 142 141 137 151 157 162 144 119 96 92 77 85 92 88 89 80 75 65 71 73 63 52 62 59 71 73 106 107 117 136 148 150 155 169 175 159 177 172 165 143 135 117 102 107 92 80 72 77 93 73 59 46 40 56 89 60 53 42 61 60 68 90 111 129 114 102 116 109 105 110 106 108 78 33 43 48 41 32 30 24 24 27 33 19 20 28 84 119 120 127 128 126 137 138 140 148 139 111 109 75 56 68 75 84 76 63 73 79 65 59 56 57 56 51 57 56 54 73 86 105 104 120 133 141 148 158 172 164 168 171 167 151 132 114 106 95 80 75 87 71 55 14 124 69 52 51 135 131 102 52 42 50 74 103 120 129 128 109 114 108 101 111 105 108 71 67 92 69 61 68 42 16 27 25 26 23 17 26 88 127 123 125 129 126 133 137 136 109 85 85 73 74 91 104 119 121 110 110 105 104 98 84 73 64 56 57 62 69 71 84 90 98 100 115 124 136 148 162 170 175 169 179 176 159 134 111 100 86 90 89 84 55 60 25 61 75 44 53 126 152 126 92 79 69 100 122 124 133 139 123 108 110 102 110 106 107 66 70 107 64 52 73 83 26 23 21 27 29 18 16 81 136 122 125 130 130 134 137 93 59 71 81 103 121 121 125 126 123 111 102 98 105 111 105 104 90 81 77 71 61 58 80 95 101 94 99 115 127 145 163 175 180 181 182 187 171 133 102 98 106 114 85 123 100 62 64 48 57 54 69 141 138 117 113 100 89 114 130 131 138 145 129 112 104 106 108 105 105 60 80 121 76 69 56 82 55 24 28 31 25 25 14 75 130 126 131 124 135 132 104 89 88 92 103 118 123 118 109 107 89 94 96 104 94 81 75 64 72 83 93 102 99 96 75 77 98 100 96 96 110 139 161 174 187 193 190 192 184 140 87 113 134 119 102 120 120 90 75 76 78 86 114 137 130 122 114 96 109 123 131 136 137 141 136 119 111 100 108 107 108 53 89 149 100 83 81 80 69 39 32 33 30 19 20 81 139 123 133 130 125 122 109 103 97 108 114 111 116 106 86 83 89 78 69 54 46 20 86 73 24 49 105 78 84 96 98 106 100 95 98 98 97 128 158 176 189 195 198 196 189 156 94 123 142 133 127 122 118 121 133 132 125 132 131 117 114 116 112 118 114 129 137 141 142 147 135 125 110 102 106 108 106 50 85 182 139 108 103 103 86 57 46 46 34 21 32 102 131 129 137 134 125 122 108 103 110 113 112 108 108 79 73 68 58 65 80 58 55 36 73 131 31 51 162 136 96 73 95 114 128 108 104 103 107 122 148 176 185 195 199 199 188 181 117 118 133 134 131 125 111 113 118 125 114 116 122 115 117 123 117 117 120 133 141 145 149 148 143 127 107 109 103 109 105 64 56 181 165 142 118 127 118 78 65 54 29 20 52 115 125 133 137 134 131 130 117 113 120 115 111 104 97 70 52 40 47 101 129 78 68 63 39 60 70 78 179 169 144 138 103 103 141 142 116 116 118 138 144 168 185 191 200 197 193 189 162 117 125 118 122 118 104 100 106 112 104 111 119 120 122 124 107 119 133 141 149 152 151 151 143 130 115 108 105 107 109 79 43 135 179 152 128 144 121 108 75 60 32 16 58 116 128 135 141 137 131 142 131 133 124 121 110 103 94 86 68 82 107 122 137 117 84 74 65 83 94 124 155 140 122 121 131 135 137 142 131 134 138 145 151 163 177 189 195 201 193 194 184 133 134 120 124 135 129 121 109 104 104 103 106 111 119 120 132 132 139 156 157 159 160 155 152 140 123 112 104 107 104 76 66 62 158 160 127 145 121 93 66 52 49 24 54 124 130 137 141 141 140 146 148 153 150 142 134 129 127 131 117 105 110 135 134 146 145 148 144 150 157 146 144 131 133 138 139 137 134 131 138 147 149 151 154 159 172 189 195 199 195 194 188 141 138 143 132 140 141 142 135 126 128 129 124 127 132 134 141 145 157 160 168 164 160 156 149 143 128 116 113 103 105 75 84 45 109 159 131 154 127 90 70 64 61 39 95 122 133 132 139 139 145 158 158 168 167 162 157 159 161 155 144 130 120 127 118 124 126 125 127 132 134 128 132 125 121 119 115 122 132 132 152 153 158 160 162 156 167 182 199 194 191 197 189 151 139 146 145 148 156 158 150 151 147 144 143 140 149 148 151 157 168 164 170 170 164 163 145 150 131 120 116 101 108 79 69 74 45 158 129 166 137 97 75 81 67 67 114 126 127 134 141 135 148 163 168 174 172 169 167 166 164 156 152 141 140 138 140 137 136 132 133 135 128 129 118 114 106 114 126 150 148 152 164 159 159 161 169 164 160 173 190 195 194 194 192 159 142 148 141 147 159 171 168 169 170 168 169 164 162 166 166 172 173 170 170 166 165 158 154 147 144 113 109 102 106 79 73 75 41 129 133 173 157 106 96 104 99 100 107 126 122 136 138 136 140 158 169 171 171 172 173 174 169 165 163 145 138 128 130 124 135 126 126 122 114 111 114 116 125 144 159 164 165 169 170 159 160 163 166 165 161 163 185 189 192 194 192 173 147 147 145 142 152 166 173 172 176 179 176 179 179 180 179 184 175 180 177 175 174 163 152 154 144 125 105 106 108 77 72 79 41 128 137 166 175 133 120 127 114 126 105 122 123 129 133 132 139 162 166 169 168 173 174 178 179 172 173 166 150 139 128 121 116 122 118 123 120 126 131 137 150 163 168 173 175 168 169 162 165 164 169 164 162 160 176 184 193 197 192 173 160 145 147 142 151 158 171 170 173 178 175 180 185 184 189 187 178 185 185 183 183 175 159 153 151 125 100 106 106 76 74 74 50 112 154 145 189 151 130 141 131 148 102 115 121 126 127 128 139 158 161 170 167 176 177 181 184 180 178 177 171 167 163 156 150 147 148 148 149 152 159 166 171 178 176 178 176 170 166 163 164 170 166 165 163 159 161 187 191 194 194 182 178 153 148 143 149 159 162 166 172 172 174 181 182 186 192 188 184 184 186 181 182 177 166 153 141 125 108 99 107 78 74 75 58 90 171 127 183 177 134 146 138 141 100 118 118 124 124 122 135 156 159 164 171 174 182 182 188 183 185 184 179 178 178 162 170 173 175 175 173 179 178 183 184 186 183 183 180 174 169 163 167 166 164 170 155 164 172 185 190 196 197 189 191 170 154 138 138 157 162 167 167 174 171 182 177 186 188 191 188 181 185 182 177 175 166 150 136 123 104 108 103 70 76 76 72 57 158 150 127 172 174 160 136 120 101 117 120 126 128 118 134 152 155 164 173 170 179 188 187 186 188 194 190 182 185 176 173 181 184 181 183 189 189 190 191 188 180 180 181 170 170 164 163 163 161 164 155 170 174 184 194 198 198 191 192 184 168 140 123 133 156 172 165 168 172 175 181 180 184 188 188 186 182 178 171 173 165 146 136 118 108 103 109 74 77 75 81 48 121 173 118 133 191 181 140 111 96 116 121 121 126 119 126 147 149 159 171 172 177 181 182 185 185 192 190 189 184 188 185 187 189 189 190 193 193 188 193 191 178 181 179 176 171 167 160 154 154 152 162 170 184 186 198 197 193 198 191 187 180 142 118 135 129 151 171 170 173 180 177 182 182 181 188 184 181 179 170 167 162 145 129 120 104 107 103 74 76 75 74 64 80 164 165 134 187 194 170 134 91 116 116 122 122 118 123 139 151 159 166 174 172 179 184 184 183 189 193 194 187 192 191 191 190 192 193 192 193 190 191 189 184 182 175 173 173 162 152 147 146 147 162 177 179 184 193 197 194 193 190 186 177 151 118 146 140 125 151 167 171 176 173 177 179 181 182 181 178 175 173 166 155 140 125 116 99 105 104 80 75 72 80 68 53 139 178 155 167 177 177 156 92 103 124 120 125 115 117 137 140 161 166 169 172 178 183 186 184 194 196 193 191 194 194 193 193 193 194 193 192 190 193 186 187 186 172 176 166 153 142 142 140 148 167 175 171 179 186 196 197 193 195 189 177 153 134 138 152 134 129 154 163 167 173 178 178 180 179 177 176 174 171 165 150 138 119 113 104 102 105 76 73 74 73 80 42 123 176 158 169 168 150 143 99 98 115 125 120 123 115 119 143 152 159 166 169 179 176 188 187 192 196 191 192 193 192 194 197 192 195 194 185 192 192 183 185 184 178 175 150 142 143 147 142 145 165 170 167 169 183 194 196 192 194 197 179 162 138 130 145 131 132 151 156 161 166 171 172 176 175 170 170 172 167 153 153 129 120 105 92 111 100 77 72 77 73 81 48 103 155 148 157 167 145 134 108 95 109 125 120 120 119 118 134 147 161 159 167 172 172 181 186 190 192 194 193 194 194 194 196 192 194 193 176 187 191 191 182 180 176 162 141 145 150 151 143 150 163 164 163 167 176 193 191 196 196 194 180 166 137 122 129 125 128 151 159 155 160 163 167 166 173 173 174 169 164 150 141 123 115 104 95 106 104 71 74 77 73 78 73 60 131 144 150 158 150 149 112 95 107 118 120 116 120 113 136 139 152 157 163 169 175 179 184 188 193 195 191 192 193 195 195 193 192 193 183 187 189 192 181 179 170 150 136 146 157 154 149 145 157 159 160 161 172 188 188 187 190 188 180 163 133 109 114 112 130 155 164 161 160 161 160 165 167 170 170 169 154 147 138 120 115 100 89 108 100 74 76 71 75 73 81 60 81 131 146 146 147 146 115 91 112 114 116 115 119 116 130 142 148 151 158 165 174 177 182 189 190 190 192 191 187 193 195 189 192 192 188 188 189 188 178 173 163 136 123 140 149 144 153 139 141 145 146 143 163 173 177 175 177 176 168 146 117 85 86 112 137 152 164 166 162 156 162 162 163 162 161 165 150 146 133 120 108 96 93 103 105 74 72 75 74 75 70 74 69 77 114 126 129 125 101 88 107 111 120 111 115 119 124 145 148 143 152 159 169 172 178 188 185 192 194 189 190 190 191 188 190 192 187 184 182 182 174 171 166 148 105 124 135 134 139 132 119 120 120 123 140 147 157 153 157 156 147 131 79 63 90 125 142 141 159 168 163 159 153 157 158 156 162 157 146 146 128 118 107 98 89 101 101 70 75 71 75 74 75 76 76 69 75 87 99 99 75 78 105 111 119 113 108 120 128 136 144 146 146 154 161 169 176 177 182 188 189 187 186 190 193 189 187 190 183 182 178 171 172 171 168 171 136 101 103 114 116 103 85 71 80 105 118 127 131 128 134 133 121 98 85 112 120 128 143 143 153 161 165 164 154 154 153 152 156 152 147 143 130 116 104 97 87 102 100 70 74 75 76 71 76 76 76 74 74 73 79 76 71 69 103 110 116 115 108 117 120 134 145 145 139 143 156 160 169 175 177 182 184 186 187 186 192 189 186 189 183 173 169 170 170 177 170 178 167 139 81 85 89 68 47 51 37 62 82 101 111 107 103 106 90 96 108 122 127 135 135 143 143 151 159 156 150 153 149 152 152 149 144 140 125 113 103 97 91 96 103 67 77 71 73 74 74 75 73 74 74 77 74 75 72 72 92 100 116 121 98 108 116 132 144 147 133 125 156 161 167 174 177 179 179 181 185 185 186 186 180 182 167 141 164 174 167 174 175 177 171 173 135 89 90 92 83 79 64 59 42 59 78 82 75 81 98 119 117 116 122 137 135 142 136 140 149 155 140 132 134 150 150 147 138 136 125 106 104 91 90 100 94 71 74 70 70 77 74 74 75 76 73 72 77 75 79 62 81 96 112 121 105 103 106 116 129 138 138 129 147 157 164 172 177 179 177 181 183 180 179 184 178 184 172 158 171 173 172 173 178 179 180 175 169 151 134 125 126 125 108 87 74 71 69 79 80 103 122 120 119 110 119 130 132 137 137 137 138 145 139 136 127 140 144 139 136 128 118 109 97 91 95 95 94 71 72 74 72 71 77 71 74 74 77 75 72 77 80 69 63 92 109 117 117 107 106 110 122 132 138 141 143 149 153 161 171 172 177 180 181 174 175 178 176 174 168 165 170 174 171 174 181 178 182 171 167 176 159 139 128 130 128 120 114 117 111 117 111 122 124 118 116 124 124 127 128 123 134 133 131 137 137 130 129 131 142 144 136 121 117 101 98 85 90 93 96 70 73 71 73 72 75 71 76 73 75 74 75 72 79 70 61 85 103 110 115 113 113 105 114 123 134 136 148 147 151 159 160 168 171 170 174 173 173 173 170 169 168 169 168 172 173 175 175 178 172 177 174 167 157 154 143 136 128 125 127 139 128 129 122 121 135 129 119 125 128 124 130 119 129 127 130 131 132 129 125 127 145 140 131 122 106 91 95 85 90 94 95 72 72 71 70 75 69 71 77 72 72 77 75 73 76 75 63 71 93 106 109 116 111 110 113 115 125 135 143 145 145 160 157 160 170 170 167 169 175 170 167 165 165 166 164 170 169 165 166 169 167 174 168 159 149 149 149 144 138 128 134 136 127 128 128 125 134 134 125 126 134 132 134 125 125 125 108 115 121 126 128 127 139 139 123 115 99 92 92 85 93 90 89 75 70 68 74 68 70 71 73 71 75 74 76 72 76 72 72 59 94 96 105 113 121 109 117 117 124 131 136 136 144 146 152 156 164 168 166 168 169 168 166 164 163 158 154 164 161 163 154 154 165 163 165 153 153 150 152 139 144 143 142 138 133 137 138 136 142 142 146 138 140 131 129 127 125 104 81 85 112 117 120 130 139 138 122 100 96 94 87 88 92 91 88 68 69 74 71 66 74 75 69 70 75 72 74 75 75 73 68 61 93 88 99 110 116 117 107 116 121 125 132 127 135 136 146 153 157 163 163 164 166 164 164 156 157 153 155 158 152 162 149 149 156 159 155 153 149 156 148 147 163 160 162 164 159 147 150 161 161 151 149 142 136 125 115 105 90 93 121 116 114 116 123 137 136 128 115 93 96 88 82 90 87 88 86 68 71 72 67 74 66 75 73 72 71 73 73 71 73 77 66 67 101 90 91 102 109 118 108 113 112 112 121 126 131 130 138 147 157 159 155 162 164 165 160 152 149 147 151 147 147 148 149 153 151 154 152 154 153 162 154 154 168 175 179 181 169 158 156 159 149 136 121 108 95 83 74 68 91 125 135 132 127 117 125 137 128 118 104 92 95 81 78 89 88 88 88 72 68 71 69 72 72 68 74 72 72 69 73 72 70 73 71 56 117 104 82 96 104 109 111 112 116 105 121 119 125 128 130 141 147 152 150 155 165 163 157 142 150 146 141 148 146 146 145 146 153 157 154 157 161 163 156 137 146 145 148 147 140 137 141 125 103 91 84 65 68 77 89 99 106 127 139 131 126 119 128 126 118 109 94 95 86 82 81 87 83 87 87 70 69 69 67 72 67 76 70 71 74 71 69 76 70 78 66 63 108 125 77 91 91 105 106 106 115 114 110 121 116 121 128 137 141 141 156 151 157 164 148 130 144 137 140 145 137 139 135 140 144 144 135 133 123 118 105 94 92 85 86 79 79 83 93 75 75 87 90 87 96 115 105 98 111 125 138 122 134 126 120 122 103 98 91 96 86 73 84 82 84 84 87 73 68 69 71 69 75 70 70 76 70 72 68 72 70 69 76 55 111 124 106 80 89 93 101 99 112 108 111 105 122 119 119 129 137 138 147 152 152 163 154 136 139 139 138 137 120 110 100 92 94 86 80 79 74 67 74 76 85 77 83 79 84 82 95 96 105 111 109 109 108 111 105 96 112 131 131 126 125 124 124 116 111 91 92 86 78 79 81 81 83 80 81 67 73 63 70 70 73 65 73 70 70 70 72 76 74 85 75 71 103 117 121 90 77 86 102 97 105 108 109 113 117 122 115 120 132 139 134 148 150 159 165 143 139 136 129 118 100 90 86 77 80 73 94 110 104 105 111 109 112 107 117 121 119 125 123 129 126 126 125 120 106 106 107 99 116 127 122 124 119 124 118 115 101 93 86 81 79 78 82 78 81 81 81 68 66 68 73 66 67 73 68 68 83 90 92 91 91 78 60 26 106 118 119 100 80 82 86 87 102 107 109 109 118 116 115 112 112 126 130 144 147 151 154 159 138 134 125 122 122 133 134 137 132 115 122 132 144 153 153 166 155 149 159 150 152 152 155 154 153 137 133 116 105 104 102 105 120 118 124 117 123 123 118 112 96 96 81 76 79 79 81 79 79 77 82 69 70 67 69 67 70 72 65 101 127 90 54 45 35 23 15 30 106 119 114 111 91 76 83 87 87 95 104 101 110 113 113 115 111 105 109 137 145 145 153 149 139 134 138 138 149 145 148 140 139 137 123 115 128 133 127 146 162 161 155 160 165 153 156 145 143 136 124 117 99 95 103 111 122 113 121 124 126 126 116 103 98 92 74 78 75 79 81 73 81 79 72 68 69 64 66 82 87 100 97 133 121 42 27 27 22 50 74 93 104 115 118 116 98 76 72 86 88 87 97 96 105 114 114 115 111 107 106 115 127 136 139 140 140 132 136 145 154 149 149 145 134 125 129 101 114 122 120 114 131 145 145 139 144 137 149 142 131 124 127 117 100 99 111 122 115 117 124 125 128 122 112 101 99 76 75 76 79 78 79 77 76 78 74 71 76 89 97 116 123 116 110 145 114 28 31 52 94 115 115 105 105 110 123 117 108 89 68 76 82 88 84 92 94 98 111 108 105 106 101 108 113 122 122 130 136 130 132 136 143 144 146 142 136 128 121 104 103 113 113 108 106 124 122 119 118 119 122 120 108 103 103 95 95 107 122 121 115 121 127 129 126 117 100 97 91 69 75 75 73 80 74 77 74 74 74 103 107 127 121 129 131 113 115 139 130 51 62 120 132 128 125 113 107 110 123 120 109 99 86 66 72 85 86 88 86 89 99 99 104 106 104 102 105 110 122 126 128 129 130 130 129 133 131 132 125 127 129 117 100 95 101 93 99 103 104 102 91 91 86 93 88 89 95 95 115 123 120 123 122 127 128 127 126 106 95 97 68 73 72 77 76 75 75 80 72 75 75 118 126 129 125 132 126 104 122 128 144 69 115 149 136 134 135 117 109 116 124 126 117 105 90 80 62 70 80 80 83 95 87 93 98 102 101 105 105 109 113 115 119 123 115 129 129 128 126 134 123 127 130 131 126 106 105 94 94 96 97 94 95 94 91 95 99 102 112 119 123 128 127 135 128 134 127 125 112 87 96 75 71 71 73 73 75 72 73 80 71 74 70 126 115 134 134 136 123 106 119 127 145 88 133 157 147 138 141 118 110 121 128 129 122 113 103 88 70 63 64 74 75 83 87 90 89 100 96 105 98 109 107 111 115 122 111 122 131 130 126 124 126 127 128 124 135 126 120 115 106 103 96 101 105 103 100 111 115 120 133 127 138 137 139 138 137 131 130 123 101 92 70 61 76 70 73 73 71 76 74 75 70 78 72 127 117 135 137 140 129 101 110 119 138 108 131 160 150 150 145 117 113 125 131 131 130 119 103 91 76 71 59 63 70 73 82 83 80 91 96 96 99 100 108 106 117 123 121 126 130 130 126 128 131 128 131 126 130 129 127 120 121 115 108 115 117 114 121 130 135 137 144 142 149 142 147 141 136 129 126 117 91 95 20 57 79 73 66 75 71 74 71 74 75 69 73 127 129 131 138 140 133 110 107 115 127 121 129 159 157 156 157 115 113 127 132 139 133 135 106 95 79 83 65 63 66 62 71 80 76 88 95 93 96 100 106 113 124 120 121 129 134 138 136 135 138 135 135 131 136 136 135 131 131 127 133 138 144 141 145 143 149 149 148 150 150 149 145 137 126 123 118 107 90 52 4 61 84 76 71 73 70 74 71 73 73 74 75 132 132 127 140 138 135 118 103 109 119 135 126 155 161 162 162 117 113 130 129 137 144 134 128 102 92 95 74 68 68 66 64 70 70 72 84 92 94 98 105 98 119 116 125 130 127 139 149 141 146 148 148 146 149 156 148 153 156 156 156 157 164 155 151 158 159 158 150 151 148 152 139 135 125 121 107 94 67 28 11 76 83 77 82 82 75 73 74 68 76 71 74 131 135 125 139 137 136 135 106 107 112 126 122 143 172 167 164 123 109 134 128 140 144 140 139 125 107 95 92 72 67 66 66 64 71 64 76 84 86 84 102 94 102 106 114 124 125 133 151 148 148 150 159 159 160 169 176 175 180 171 167 164 167 165 162 162 159 161 157 149 150 146 138 129 115 117 94 70 76 44 19 85 80 78 86 85 84 82 70 74 72 72 74 132 136 136 140 139 134 141 122 106 105 114 127 127 166 170 171 132 105 134 137 142 146 144 149 145 125 109 104 81 74 70 68 62 64 66 71 74 79 84 84 98 96 98 103 114 125 126 143 148 148 147 156 156 160 165 174 176 178 176 168 172 173 164 163 159 162 164 162 150 148 143 130 120 113 109 71 64 86 68 29 85 86 78 87 87 85 83 83 82 80 75 73 136 134 140 134 144 134 143 134 116 101 108 120 121 142 173 169 143 108 130 140 134 136 157 153 150 139 131 112 95 79 75 70 62 69 63 67 73 69 74 78 86 83 95 94 93 109 117 129 144 146 148 153 156 158 161 161 169 170 171 174 158 165 155 153 152 149 154 151 145 141 131 122 107 107 92 63 75 92 91 28 82 88 82 83 90 83 79 82 89 80 82 91 139 132 145 137 137 137 138 143 132 108 101 111 124 128 148 174 152 114 127 139 145 143 145 160 154 151 144 136 110 93 87 74 74 67 66 65 70 67 66 72 76 73 81 82 89 95 101 111 130 129 136 135 144 150 150 146 161 159 159 164 150 138 128 126 135 128 133 136 129 125 119 102 105 88 74 77 71 108 101 55 83 83 90 83 90 86 84 84 83 85 81 85 139 135 138 141 135 136 135 141 139 126 103 103 113 122 129 162 156 124 118 138 144 146 149 149 163 157 148 147 134 114 96 86 79 72 73 67 64 64 64 67 68 69 72 72 79 81 89 96 102 111 125 127 137 137 136 139 134 144 140 141 137 120 124 122 118 121 124 122 118 116 102 89 89 73 82 78 75 113 92 71 91 78 83 87 87 86 81 87 78 87 79 81 138 139 136 139 140 133 137 139 137 138 119 97 105 116 126 145 152 134 120 136 141 143 145 150 156 165 158 155 143 136 119 105 89 79 74 72 67 67 61 69 66 69 73 69 70 72 70 78 79 92 104 118 123 131 123 127 121 123 124 116 112 114 116 118 105 109 115 109 106 93 76 77 76 85 87 78 87 107 86 87 82 82 84 89 89 86 80 89 83 82 82 84 137 138 136 142 139 139 135 139 136 137 132 111 101 103 118 132 137 138 129 131 149 137 143 151 157 156 168 159 149 144 128 128 107 93 80 78 69 70 66 64 66 68 62 73 69 67 61 66 68 68 77 97 100 111 107 112 111 111 112 110 100 105 105 104 101 95 91 91 78 74 66 76 86 87 92 75 93 93 88 87 82 82 85 87 86 88 80 86 86 83 78 86 143 135 134 139 140 139 136 135 141 136 141 130 107 101 104 115 129 141 132 129 145 147 144 150 158 160 158 166 154 151 146 132 123 118 93 82 82 72 70 64 67 65 67 66 65 70 65 68 60 59 65 68 74 78 85 87 91 92 90 92 89 94 86 90 88 81 61 65 63 77 75 85 86 96 92 68 98 74 86 90 80 85 82 90 86 87 82 89 82 82 84 82 137 141 136 140 142 138 141 136 135 142 138 140 121 107 94 102 113 131 136 130 139 145 148 150 155 159 158 158 154 154 152 144 139 128 116 99 89 82 73 74 65 71 67 64 68 66 67 68 63 62 62 63 61 66 67 60 70 72 65 69 63 67 64 63 63 63 64 74 75 78 79 90 93 98 86 76 99 68 90 90 81 85 85 83 92 85 81 88 86 74 85 88 138 140 138 138 142 142 140 142 136 141 140 142 136 119 104 96 110 114 122 137 136 142 148 155 151 153 158 160 160 156 152 152 142 133 129 119 111 94 82 78 70 73 71 70 70 64 71 62 63 64 64 67 62 61 62 61 62 59 58 61 58 58 60 61 65 70 75 82 73 81 88 91 100 95 79 86 82 88 92 79 86 87 85 85 92 84 83 91 84 83 81 87 133 141 140 140 144 137 142 142 142 134 141 141 137 137 119 99 100 103 113 121 138 137 147 153 159 153 162 161 162 155 153 152 148 139 133 129 116 114 100 84 81 82 76 75 71 65 72 69 63 63 65 67 60 62 62 62 59 61 56 59 57 60 64 73 71 77 79 79 75 86 93 99 102 82 86 83 81 93 82 80 85 90 87 96 89 84 87 91 86 88 79 90 