P2
92
112
255
100 110 107 103 111 101 111 104 108 109 109 105 109 103 113 105 107 107 106 110 106 102 111 107 108 105 108 104 105 101 100 94 80 64 54 46 65 77 56 44 59 73 74 42 55 71 88 88 91 86 88 102 108 105 109 109 104 114 107 108 108 108 110 109 106 108 107 109 108 108 107 108 105 108 107 107 109 106 106 110 104 105 102 106 109 108 104 108 112 102 105 107 105 108 105 106 105 103 108 109 108 104 110 106 110 107 107 111 105 109 107 105 108 100 106 112 104 109 104 108 100 102 88 70 53 57 45 44 63 67 48 38 65 69 57 61 57 61 59 71 65 59 58 63 81 87 98 105 110 111 106 108 110 107 110 109 107 109 106 109 107 106 110 105 108 108 108 107 108 105 107 103 106 105 107 108 104 108 106 110 104 104 102 105 107 106 105 105 106 104 104 110 106 107 107 109 107 105 107 108 104 109 107 101 105 106 103 101 106 107 103 105 100 85 61 54 56 54 52 53 56 56 53 44 53 61 51 62 67 64 56 55 57 61 52 55 52 53 58 67 89 86 92 99 104 105 108 104 111 107 108 105 109 104 112 108 103 109 109 106 107 106 108 108 106 107 104 109 102 108 105 106 104 105 108 103 106 105 104 106 104 107 104 110 105 107 109 107 107 103 106 100 102 102 97 99 103 105 106 100 103 105 99 97 85 71 57 63 45 48 59 56 51 56 55 61 49 55 50 66 70 64 59 45 59 63 62 52 53 55 44 52 58 53 57 67 66 93 98 98 106 104 107 109 105 103 106 105 106 109 105 103 105 108 105 106 107 106 106 105 105 107 104 105 107 103 110 106 104 105 104 106 104 104 106 106 106 106 109 105 103 102 102 102 102 98 91 87 87 97 92 86 84 88 70 71 70 56 65 66 57 56 42 63 51 52 58 60 64 52 49 58 70 63 56 61 55 65 57 58 57 67 63 63 50 48 61 56 60 52 70 78 79 90 93 106 105 104 104 106 102 109 104 105 107 104 106 107 105 106 105 104 111 103 107 106 103 106 104 106 105 102 106 106 105 110 105 108 103 108 108 99 95 99 91 89 91 93 98 96 83 94 81 63 58 64 60 39 55 55 55 62 57 57 46 40 54 53 60 59 54 59 51 52 62 65 48 65 59 55 49 56 55 71 67 68 56 58 60 61 67 54 56 53 46 57 90 88 92 103 106 103 103 109 104 106 106 106 104 109 107 103 108 105 107 102 105 104 109 101 107 103 107 107 105 107 105 105 107 108 103 104 105 98 98 98 74 85 90 90 89 92 88 89 79 65 47 63 70 51 55 50 49 58 63 56 59 66 60 62 63 53 58 51 43 37 48 57 53 42 59 55 48 46 54 57 52 56 49 61 52 65 68 62 66 51 60 54 71 88 77 85 106 106 103 109 105 108 103 108 106 103 108 104 105 107 105 103 106 110 100 105 109 103 109 103 104 102 106 106 107 100 85 75 86 84 82 84 86 83 92 93 83 80 85 87 78 63 65 67 65 57 51 52 47 47 58 58 58 67 57 53 66 43 49 73 47 36 47 57 57 38 56 58 45 50 42 56 44 49 43 37 50 53 63 71 67 51 57 56 64 64 64 66 80 97 103 109 105 106 104 104 106 104 106 107 102 105 105 102 104 109 103 108 106 109 104 104 106 106 101 107 104 76 53 52 59 70 65 70 90 88 84 94 78 73 74 75 68 66 58 59 57 52 57 52 46 36 45 51 48 55 44 31 63 53 43 59 56 45 48 52 61 48 48 50 44 47 42 60 43 31 36 25 46 42 46 54 58 56 55 53 53 59 70 83 63 86 96 97 105 105 108 100 108 103 106 102 108 105 104 106 102 110 103 105 105 106 105 105 104 109 101 105 81 79 42 39 51 56 68 58 61 70 81 78 76 70 54 59 56 58 56 48 38 56 49 46 41 31 40 38 55 52 43 50 52 57 47 57 45 43 52 40 65 46 48 42 44 52 43 34 41 22 30 32 35 32 44 47 37 56 60 54 49 47 73 75 75 86 94 91 95 101 104 100 101 99 102 103 105 108 100 106 105 111 105 109 103 106 103 108 104 104 93 105 75 73 60 50 41 49 55 63 60 52 48 62 54 57 44 42 44 46 47 45 37 52 52 50 36 43 29 40 52 51 44 48 55 38 46 57 41 47 55 63 57 57 54 50 38 51 49 35 29 29 29 48 33 31 35 35 36 41 50 48 54 50 53 69 73 74 79 74 80 83 93 92 94 101 101 104 110 106 106 108 108 102 106 108 106 104 106 106 99 100 94 95 75 79 43 52 58 47 50 50 53 52 38 39 34 34 37 31 39 45 43 45 34 59 49 54 48 52 44 39 50 43 58 41 49 43 44 57 52 61 59 49 62 62 56 55 46 48 47 32 35 46 38 50 42 46 35 36 34 36 35 57 53 57 38 60 75 67 61 57 68 62 65 80 96 95 103 104 105 107 103 103 104 107 105 107 105 103 104 104 100 98 91 87 75 71 50 52 56 64 45 41 34 40 37 25 36 27 31 33 34 35 47 42 43 51 66 54 64 49 54 46 38 41 52 56 41 59 52 60 48 61 58 46 51 47 55 53 58 56 50 41 54 52 52 51 51 52 59 48 38 38 33 42 42 49 29 50 63 63 61 50 62 49 75 87 101 99 100 105 105 105 102 107 105 103 104 105 108 104 105 101 102 92 96 80 76 67 47 44 51 49 45 33 40 34 31 35 23 29 38 46 45 42 44 48 65 52 59 60 64 55 43 49 39 55 51 60 43 43 45 48 53 45 54 60 43 60 32 45 54 59 58 68 62 62 51 49 36 49 64 63 54 53 36 36 36 34 34 32 48 65 58 50 57 58 55 52 84 91 101 101 108 101 107 103 110 103 105 106 104 105 100 95 107 98 86 68 74 59 56 44 39 32 42 38 32 33 35 28 37 42 38 47 47 60 50 63 91 75 69 67 67 51 57 53 49 55 63 55 61 49 47 63 51 49 43 59 52 54 44 48 48 45 43 75 73 67 55 59 32 51 59 52 66 56 47 46 32 36 31 31 39 54 49 49 55 51 62 57 61 88 95 94 103 108 103 106 101 106 105 103 106 102 103 95 102 97 84 57 65 64 50 48 56 46 46 38 40 38 42 40 48 55 48 54 67 74 75 79 108 96 83 86 83 59 52 70 67 66 79 87 75 60 59 68 63 52 48 46 75 64 51 60 41 40 46 49 71 70 62 55 48 58 49 53 56 57 54 53 47 42 31 34 33 32 47 48 51 58 52 64 58 69 86 98 97 102 106 103 103 107 106 103 107 104 104 88 105 95 76 76 55 66 54 46 61 60 55 62 58 62 52 53 55 61 53 68 76 75 99 98 119 118 102 109 90 79 61 61 91 114 104 83 98 69 75 67 69 53 65 43 79 78 65 66 45 47 60 52 52 62 51 61 51 62 56 56 51 58 46 62 55 52 40 36 35 30 36 49 54 55 44 55 54 53 54 72 75 93 106 104 104 105 105 104 105 105 107 99 89 89 84 78 74 60 52 52 53 59 76 83 72 54 53 54 57 62 65 70 93 91 126 128 136 136 121 112 104 83 99 86 100 114 144 105 102 85 88 74 79 62 76 61 80 90 78 64 50 51 64 65 48 54 54 58 67 57 55 55 53 51 48 64 69 63 40 46 40 36 34 43 43 59 60 46 41 46 47 48 59 71 90 102 101 106 106 106 101 107 98 94 94 89 80 74 68 54 49 50 39 63 81 85 66 48 41 53 49 66 80 84 109 117 119 137 141 153 145 118 112 101 95 94 122 131 133 143 120 101 82 86 92 89 78 74 97 99 89 80 64 61 74 79 62 67 62 70 87 66 58 64 47 52 66 72 60 60 61 60 46 38 39 39 34 54 62 45 42 35 49 53 59 49 90 89 93 106 107 105 108 100 94 78 89 84 76 80 62 52 52 42 47 58 65 59 55 49 61 54 58 70 87 101 108 129 128 146 147 157 165 147 125 114 95 107 108 120 129 150 139 130 81 96 109 104 103 97 117 102 96 97 80 87 89 83 63 66 86 85 95 64 75 72 53 64 63 63 73 68 78 82 58 47 38 45 27 55 57 46 49 36 37 38 57 48 75 104 99 95 104 103 106 104 96 72 58 76 70 77 53 66 46 60 62 67 63 51 48 52 55 73 66 87 103 118 124 141 152 158 165 165 168 170 146 131 110 110 123 123 133 152 151 148 115 98 129 129 132 134 127 118 114 112 100 116 108 103 81 77 91 91 102 81 82 75 71 78 69 64 76 81 99 95 79 64 45 44 40 49 50 45 46 37 39 30 35 43 44 93 106 101 99 104 106 103 85 59 36 47 63 53 64 62 62 57 70 61 50 46 50 51 59 71 93 103 115 127 134 143 164 158 159 161 166 171 167 148 141 127 124 124 133 150 158 165 169 137 128 142 145 156 150 136 137 137 130 138 136 122 111 98 101 108 92 110 95 81 94 102 77 83 75 80 97 96 87 72 63 53 39 40 44 49 53 40 31 37 27 25 31 65 103 101 104 103 104 110 88 58 36 42 59 59 69 70 59 59 53 52 40 45 51 58 75 82 111 116 121 127 150 152 155 162 167 168 177 167 176 162 161 159 160 155 170 163 160 164 167 172 151 157 171 168 165 167 159 155 153 145 149 145 135 128 124 127 112 124 112 106 114 114 95 99 92 86 93 91 88 87 84 72 54 48 35 44 39 56 38 39 29 34 23 30 84 109 107 103 103 103 83 57 42 32 43 66 70 63 55 40 48 42 45 47 53 63 78 101 120 131 141 142 163 168 171 168 175 177 185 184 175 173 172 164 166 168 167 160 175 183 167 171 161 159 170 176 180 178 178 174 169 161 158 151 162 151 143 145 135 136 137 133 116 122 117 108 109 107 103 96 101 103 98 81 76 50 45 32 30 33 39 33 31 43 21 24 46 96 110 104 99 110 67 41 37 27 50 65 78 70 52 38 42 40 40 35 55 65 102 119 135 151 156 160 167 169 176 177 177 181 184 184 178 182 184 179 168 174 176 169 187 190 188 189 187 178 176 183 185 184 184 180 178 170 172 170 167 167 150 149 152 144 149 144 134 124 132 119 125 120 106 111 107 103 103 95 89 73 44 41 33 29 37 35 30 41 28 22 54 86 108 105 104 107 37 31 26 24 39 48 65 72 41 38 38 33 32 44 58 79 110 130 152 162 166 169 174 176 180 181 178 183 185 189 184 186 191 187 182 184 189 188 194 190 187 193 196 193 188 192 191 189 189 185 187 181 181 183 178 174 167 169 164 162 155 161 147 141 137 142 135 131 119 122 116 110 108 104 101 85 70 45 37 40 47 41 33 35 28 21 39 80 110 102 105 105 27 26 27 23 28 28 61 68 53 48 36 37 48 56 72 86 128 148 156 161 170 174 179 180 182 181 181 187 188 193 191 193 196 195 191 193 194 196 199 194 195 199 198 196 201 197 197 191 193 189 188 186 184 184 180 186 175 171 173 177 168 168 158 152 148 150 149 145 133 130 121 125 111 112 105 103 86 66 45 47 51 39 46 39 36 17 19 52 110 102 106 105 20 23 25 19 32 26 42 45 55 60 47 41 55 71 90 104 144 156 162 172 170 174 178 179 179 183 184 185 191 191 196 196 196 198 198 197 197 197 201 201 201 199 199 196 198 196 196 195 192 190 186 188 187 186 182 185 182 180 182 178 180 174 173 161 163 156 157 154 146 140 135 124 121 120 111 104 101 91 58 29 61 39 50 45 39 28 14 20 90 102 108 103 34 21 22 21 26 30 28 35 57 49 58 60 67 85 93 117 149 163 170 171 170 175 176 180 183 186 184 186 191 191 192 199 195 198 198 200 199 200 201 201 200 198 198 196 199 195 194 194 191 191 187 188 188 189 189 187 185 179 180 178 178 175 174 169 165 164 165 162 146 147 139 136 124 127 114 106 107 101 84 38 33 53 48 47 35 23 28 9 44 103 106 104 35 21 21 19 25 20 30 33 46 45 63 70 73 84 104 117 156 170 169 167 169 175 176 179 181 185 182 188 189 189 193 196 194 194 196 200 199 201 199 200 200 198 197 197 195 193 193 191 193 189 189 188 189 187 187 189 187 181 184 178 177 177 176 174 169 172 168 163 145 149 142 144 132 127 120 110 106 106 99 61 28 37 54 44 34 29 17 23 20 96 106 102 36 18 18 21 23 20 22 34 32 49 60 63 75 94 105 124 153 166 168 166 161 169 174 179 178 183 185 183 189 189 191 192 192 192 196 197 200 199 199 198 199 198 199 195 196 193 194 193 194 186 186 184 188 189 185 190 187 187 183 181 180 177 174 174 172 176 168 166 155 151 146 139 134 130 126 116 108 111 104 80 45 29 51 53 35 27 17 21 8 72 114 103 31 14 25 15 29 19 25 33 26 44 45 62 68 82 122 133 157 162 162 162 160 167 180 175 176 181 181 180 186 189 187 195 191 190 195 198 198 202 198 199 196 197 195 195 195 195 191 193 190 187 188 186 187 189 185 190 189 186 186 183 180 182 170 177 177 170 172 168 160 154 144 144 131 137 131 117 107 118 112 90 52 42 47 46 37 27 19 12 24 61 116 105 52 11 27 15 21 25 27 26 29 26 50 54 66 87 119 136 151 155 161 154 162 159 177 179 175 181 182 182 189 190 187 189 193 193 190 198 199 197 199 196 197 194 194 194 192 192 193 190 190 186 189 186 189 189 188 188 192 183 189 179 179 181 179 176 173 173 168 169 159 154 142 140 134 131 131 119 111 120 114 103 61 52 38 49 46 22 24 18 16 83 111 100 59 16 22 21 20 23 27 27 24 32 44 53 68 98 123 134 153 157 161 159 160 162 173 181 173 177 177 177 191 185 188 188 191 190 188 198 197 199 200 199 195 193 194 197 191 194 192 188 188 187 187 187 189 188 190 187 185 188 186 179 178 183 178 179 168 172 166 164 155 156 145 137 135 131 130 123 118 116 120 102 66 66 36 43 47 24 25 20 21 75 114 104 67 27 20 22 19 25 20 27 23 32 38 52 69 107 124 134 147 154 156 161 161 164 174 174 175 173 176 176 185 182 184 186 187 185 189 194 197 199 201 199 195 193 193 195 190 193 190 191 187 189 188 187 190 190 186 188 185 186 182 178 178 182 180 177 171 169 167 167 161 149 151 138 130 129 135 123 118 112 119 98 79 64 50 39 39 34 26 13 29 74 112 108 49 22 27 18 28 24 21 20 24 37 39 40 78 108 118 129 143 152 150 154 161 161 169 174 169 171 174 172 183 179 184 183 188 186 183 190 195 198 200 198 194 194 190 194 188 190 188 190 188 189 187 189 190 188 185 186 184 183 184 179 180 180 180 176 176 168 165 161 159 140 147 139 131 128 135 125 118 110 113 100 82 59 55 41 34 25 36 22 19 67 97 108 45 12 24 24 30 21 24 22 21 33 24 46 86 103 109 130 143 149 148 155 157 157 165 166 173 174 168 171 178 179 177 181 184 186 182 185 188 193 196 196 193 189 192 190 192 188 184 191 189 189 187 188 190 185 182 186 183 184 181 180 177 178 178 175 169 166 165 160 152 145 141 140 136 134 136 126 115 108 111 98 84 55 45 43 27 27 26 18 43 73 73 101 55 20 17 29 17 30 18 27 19 21 35 49 76 100 112 123 142 145 149 153 153 155 164 168 173 173 167 170 171 174 178 176 180 182 181 185 186 188 192 194 190 192 189 187 188 190 186 190 190 190 184 186 188 186 183 187 182 186 182 181 181 181 178 177 171 170 158 157 151 147 144 138 138 137 135 130 116 112 106 101 73 59 37 36 29 19 27 19 32 67 70 99 78 19 23 24 23 27 23 24 19 24 35 40 73 90 115 123 141 144 150 152 152 156 169 167 172 171 170 166 171 169 171 171 179 176 181 182 181 184 184 188 185 190 187 185 188 185 190 188 188 186 187 183 187 181 183 182 185 180 181 177 174 179 177 168 168 161 153 150 149 149 142 137 137 139 137 132 116 106 107 101 70 44 38 27 28 27 20 20 23 52 83 96 62 19 33 24 25 23 30 23 20 20 36 32 67 87 106 121 135 137 149 154 155 155 165 165 170 171 171 165 169 171 168 171 173 171 171 175 175 177 181 177 177 181 182 186 185 184 188 184 186 181 187 185 180 178 183 183 184 178 182 177 173 180 174 165 160 161 151 146 147 143 136 139 134 134 135 129 115 109 103 101 69 34 32 26 21 22 25 16 32 60 66 92 68 19 28 32 16 32 25 38 24 21 24 27 66 84 104 123 133 142 150 153 149 154 166 170 171 176 169 169 171 167 168 170 175 171 166 169 168 172 174 183 175 179 184 183 183 188 182 183 186 187 182 185 185 181 184 182 175 177 178 181 174 174 172 165 161 158 154 140 146 138 138 140 135 138 139 131 117 111 102 95 75 28 26 24 18 19 27 18 39 64 76 103 88 26 21 23 24 20 25 28 30 17 25 26 53 89 108 128 130 139 147 153 155 153 164 164 173 168 173 167 166 169 170 164 173 170 167 171 165 171 176 182 179 182 187 187 185 187 185 185 186 186 182 185 187 185 185 185 181 178 178 180 173 171 166 166 158 161 155 145 146 145 141 135 138 136 140 126 126 113 104 101 75 26 24 14 25 20 30 17 29 80 84 101 70 31 23 21 26 16 28 18 24 25 17 32 52 79 118 124 132 134 146 154 154 159 158 165 171 168 170 172 168 170 173 171 171 176 174 172 178 178 184 182 181 186 186 189 184 188 186 183 187 184 185 183 184 187 181 178 181 181 179 184 178 175 172 168 162 158 160 153 146 149 143 139 141 139 138 133 119 115 101 96 73 34 15 24 18 17 29 10 54 88 103 101 60 28 35 19 25 25 27 27 23 19 22 26 54 78 113 116 134 138 147 155 155 159 158 164 167 169 172 170 177 166 173 175 175 177 179 180 181 182 186 186 185 189 190 190 189 189 189 182 184 185 186 186 185 188 182 176 174 181 183 182 184 175 174 170 167 164 163 153 147 146 145 140 140 145 142 139 119 117 104 97 79 30 19 23 18 22 28 25 69 103 100 100 54 30 40 31 21 31 19 21 31 19 24 30 52 78 106 119 139 147 149 147 158 159 166 167 169 168 180 172 177 177 178 180 180 179 182 187 181 185 190 188 190 195 193 193 192 194 188 183 185 183 187 193 187 187 187 184 180 184 184 183 182 182 176 170 167 167 162 154 151 145 150 144 143 150 142 132 128 109 108 97 84 29 17 18 28 16 28 57 84 100 98 101 65 22 33 39 24 22 21 22 23 35 16 28 53 83 112 127 138 146 149 146 156 159 171 168 172 171 175 179 180 179 183 183 188 183 189 186 186 190 190 189 189 195 195 195 190 192 191 187 190 188 187 193 188 190 191 189 186 185 191 182 185 179 177 171 167 173 166 157 154 152 153 148 149 146 148 140 124 112 104 102 78 25 23 15 28 20 25 85 97 95 101 97 68 30 29 30 21 31 16 21 23 29 22 32 56 98 117 132 142 151 149 153 163 165 174 172 176 177 182 182 190 186 189 188 187 188 190 184 190 191 192 193 189 194 196 197 190 194 190 190 190 193 187 191 190 192 189 189 188 186 188 186 181 179 179 171 170 169 167 161 161 161 159 157 159 148 149 142 122 114 101 105 86 20 27 15 24 16 47 85 101 98 94 100 82 52 47 28 25 23 26 25 23 24 16 29 69 106 133 139 140 148 154 158 165 167 175 181 176 184 183 187 190 190 191 192 191 192 192 187 191 192 195 194 193 191 193 191 192 192 189 192 192 192 188 188 192 187 192 192 187 186 187 185 180 176 176 174 172 170 167 167 163 163 161 158 165 156 153 143 120 114 102 101 91 25 21 20 19 20 57 97 98 97 94 99 93 116 76 56 42 23 22 43 27 17 20 32 82 120 134 145 142 146 156 160 167 172 177 183 185 185 186 190 190 192 192 192 196 193 192 191 193 191 195 192 195 187 191 188 190 189 191 189 193 190 192 187 192 189 191 187 186 181 183 181 177 174 180 173 171 177 168 170 161 170 163 162 156 159 153 140 132 114 102 106 93 22 23 14 24 15 82 94 98 97 99 95 89 116 66 75 75 25 32 29 38 26 11 36 92 126 142 141 146 152 160 162 163 171 180 184 184 190 187 186 190 187 189 191 192 192 190 194 188 190 190 189 189 179 179 190 186 184 187 188 186 189 187 185 191 187 185 184 181 181 178 180 172 176 179 178 178 172 172 164 163 159 161 154 154 154 153 145 127 129 103 96 101 20 27 16 23 28 82 102 97 97 100 92 118 103 71 66 104 57 24 27 31 27 6 42 113 134 139 143 146 156 161 163 163 171 183 179 179 185 179 169 161 169 174 177 171 175 182 183 177 184 184 183 183 180 182 186 182 180 179 182 183 186 187 183 182 179 176 178 173 173 168 168 168 176 175 174 167 164 160 155 147 147 135 131 114 110 111 110 130 131 111 100 103 22 22 14 37 59 91 98 96 96 98 95 140 122 80 98 100 79 25 26 30 24 15 38 133 137 144 142 146 151 162 161 165 166 169 156 140 136 132 119 123 127 132 132 122 128 156 157 153 162 170 170 174 171 172 176 171 173 170 179 176 178 177 177 177 170 170 171 161 159 153 149 157 162 160 152 142 133 122 124 112 103 98 89 90 65 67 66 67 92 107 97 107 29 14 22 46 77 95 97 98 94 96 93 161 142 110 126 134 99 36 35 33 23 15 52 137 145 145 145 148 155 158 162 145 132 122 114 88 82 86 90 92 104 94 95 82 86 94 94 97 107 129 138 152 151 162 157 152 158 165 168 168 168 167 167 170 166 161 154 153 146 139 128 127 135 124 107 84 80 71 75 72 64 60 65 55 61 51 51 49 47 63 89 108 36 15 28 63 80 99 97 97 92 97 94 143 150 141 149 151 145 66 45 39 21 21 70 140 138 151 148 151 159 148 121 91 81 96 75 70 67 74 82 74 70 68 68 67 61 59 56 57 53 62 85 88 96 125 129 133 143 159 156 157 155 159 159 157 153 149 135 128 119 119 98 103 106 82 62 49 54 57 44 47 41 49 64 60 75 72 72 62 57 47 46 107 44 23 63 78 85 99 98 92 95 92 96 114 155 147 150 152 163 108 70 37 31 32 107 142 143 146 146 153 146 115 97 81 78 89 99 98 108 99 96 89 79 74 68 62 46 54 39 51 43 52 49 48 55 81 88 105 118 129 137 141 149 145 147 143 147 133 128 112 103 91 88 78 79 53 40 39 44 39 48 51 57 68 81 85 92 92 93 97 86 82 49 99 56 47 88 85 90 96 96 95 95 92 98 84 146 149 144 143 129 102 79 39 22 62 129 143 148 149 150 146 139 117 100 95 103 99 101 102 99 90 75 78 58 73 60 66 54 55 39 46 31 49 57 57 62 66 80 88 97 109 125 124 142 141 145 143 145 127 116 100 81 83 78 73 68 50 37 46 44 42 49 51 58 59 63 70 65 73 88 94 99 92 78 97 83 60 87 86 97 95 96 91 97 95 94 69 127 155 141 127 104 81 67 44 17 89 137 147 152 151 152 144 130 106 101 107 103 98 96 79 75 58 56 61 45 52 41 45 42 38 41 48 40 39 37 60 70 79 75 87 91 105 120 128 143 146 145 145 144 128 108 93 83 76 69 59 50 49 39 37 31 32 35 31 54 45 53 56 64 45 59 90 95 96 98 99 88 74 84 90 94 94 98 99 94 97 97 80 114 152 148 123 93 81 84 60 21 114 143 152 158 148 152 150 132 115 108 109 96 93 73 54 54 43 47 59 56 36 26 51 25 29 26 45 45 56 44 41 49 72 78 80 88 98 122 138 151 155 154 152 152 133 110 101 76 69 49 42 47 41 30 27 49 21 69 25 70 95 71 28 40 48 40 65 92 100 107 99 99 77 80 95 91 96 98 89 99 91 94 79 105 156 157 126 94 97 108 80 88 130 146 154 155 157 152 153 139 134 120 104 91 73 64 51 47 37 56 106 86 41 27 47 37 45 23 71 96 42 56 56 50 59 70 77 73 99 120 146 159 171 169 167 166 136 115 94 70 56 50 49 64 62 34 34 30 29 48 27 63 117 105 78 44 42 52 68 86 101 114 106 101 91 89 86 100 91 95 95 96 94 93 82 119 150 164 144 107 136 156 133 124 144 151 150 155 156 162 159 155 154 146 124 114 101 93 92 80 90 91 125 117 55 55 43 37 45 43 87 118 91 51 58 64 67 70 67 76 80 123 159 167 183 188 180 174 155 117 85 81 73 75 54 81 91 52 42 37 35 37 44 84 117 97 87 71 67 86 94 94 113 117 108 105 93 83 88 99 92 101 92 92 96 95 81 121 154 164 155 115 155 171 164 131 142 144 155 155 155 171 170 168 167 167 149 150 158 149 140 113 110 131 133 136 97 68 62 54 64 75 110 114 85 85 51 69 84 82 81 71 98 126 163 175 189 193 191 188 162 120 84 100 104 93 75 76 90 77 57 44 57 47 79 114 112 105 90 87 83 103 104 104 116 118 114 107 97 80 86 100 95 95 93 95 94 97 84 127 154 154 179 125 155 174 175 131 145 143 153 152 155 167 171 174 172 169 164 164 165 159 153 139 119 129 129 144 157 151 134 122 129 130 130 112 99 96 84 85 95 106 84 97 119 141 162 180 193 197 196 191 175 132 84 111 107 104 99 96 92 91 105 95 103 107 112 115 113 106 97 91 97 111 114 111 118 122 114 115 90 76 91 98 98 91 96 94 94 95 80 114 162 130 185 174 151 170 166 133 142 136 150 146 157 169 173 171 175 168 175 167 166 162 151 149 142 135 123 120 117 119 125 131 126 124 121 114 113 106 107 101 102 112 115 123 143 152 166 178 193 199 199 191 183 152 101 104 107 91 86 79 76 85 92 97 99 103 98 97 99 103 99 101 109 118 116 118 122 123 113 110 96 75 97 95 97 95 93 95 93 99 86 95 166 132 151 190 180 161 137 135 139 143 144 142 161 166 172 171 172 175 174 172 165 163 155 143 135 136 132 134 126 119 115 110 111 102 101 94 92 91 87 98 115 131 141 151 153 160 165 178 187 198 195 193 187 170 112 108 103 100 91 78 75 70 82 74 90 89 97 103 100 98 99 106 112 114 119 124 124 121 116 112 95 88 92 98 97 94 97 91 94 97 98 75 164 166 161 192 181 158 122 134 145 145 140 141 161 168 169 170 174 175 175 175 171 162 157 141 129 111 102 111 101 105 100 95 97 85 86 85 82 100 114 130 147 155 156 158 166 166 163 176 193 195 195 189 193 166 125 118 119 114 108 104 93 81 74 77 79 81 82 96 91 99 94 108 116 120 124 124 126 124 110 109 103 100 86 97 95 91 98 92 95 99 93 70 160 188 161 185 190 190 128 134 143 143 142 140 158 166 165 173 170 177 178 180 181 176 165 159 146 132 115 104 91 87 92 81 90 88 89 98 119 138 157 163 169 168 163 162 169 171 162 169 190 199 187 191 188 161 122 119 133 128 125 122 108 104 92 90 94 92 93 99 97 110 107 119 127 127 133 128 130 120 116 110 104 106 87 93 94 94 95 93 92 96 98 72 163 188 165 167 182 200 126 136 137 141 140 141 156 165 163 176 172 178 183 180 184 181 179 171 166 160 146 149 130 124 117 114 112 116 123 139 156 171 178 172 170 172 162 162 170 171 166 166 184 196 193 191 186 160 122 127 128 129 142 145 139 127 124 113 106 103 110 106 115 115 123 131 138 139 139 134 125 128 118 116 99 98 92 91 96 96 93 94 97 93 89 73 157 162 159 162 166 174 126 133 141 142 138 140 151 161 162 171 174 174 177 179 178 187 183 180 176 173 159 165 169 166 164 170 160 170 171 181 183 181 179 174 170 167 166 170 169 170 165 168 180 192 193 189 188 172 124 132 123 129 136 149 159 153 156 150 145 143 134 133 133 132 139 142 142 149 148 136 132 126 122 116 105 94 93 92 95 99 96 89 95 91 100 80 127 157 143 165 159 164 119 124 144 145 138 135 145 157 168 170 175 171 175 179 177 178 182 186 175 177 175 179 181 177 184 185 186 187 186 189 184 183 183 176 172 166 168 169 173 168 171 166 179 185 193 191 185 169 139 129 131 122 139 147 158 158 160 166 163 162 162 159 152 158 154 151 150 151 144 144 131 134 123 118 100 91 95 95 95 95 95 93 89 98 96 94 93 136 149 154 171 172 117 122 140 143 140 135 143 156 168 170 171 174 177 181 184 183 187 192 186 186 189 188 187 191 191 193 191 192 191 189 183 179 180 177 173 171 166 172 171 169 168 166 174 185 194 191 186 168 146 134 134 128 134 148 157 155 165 165 168 171 174 178 173 178 161 170 167 166 155 151 138 131 132 119 98 87 92 95 93 98 92 93 93 92 94 102 85 102 139 143 169 168 120 121 138 139 142 139 136 154 164 163 171 173 177 183 186 191 191 191 191 192 194 193 192 192 193 192 191 190 189 189 183 177 180 172 178 167 170 172 173 173 167 174 181 188 192 194 188 181 161 146 135 131 138 146 154 154 166 165 166 180 178 180 183 178 173 179 178 172 170 159 144 140 130 125 98 87 96 98 92 100 93 93 93 92 94 94 98 85 104 123 137 137 119 128 133 136 137 139 140 148 155 163 166 171 173 178 189 187 190 191 190 192 193 193 192 192 194 190 190 188 189 187 183 180 173 172 172 167 166 164 167 167 172 180 181 192 195 195 190 186 171 148 135 127 130 144 151 152 167 165 171 176 180 183 184 184 180 175 178 172 169 162 147 142 125 123 92 90 96 93 94 91 102 93 93 93 98 92 99 91 96 91 101 92 116 128 132 131 136 136 142 154 149 161 162 173 175 181 184 187 192 191 190 191 192 192 193 192 192 187 185 192 182 183 185 178 170 166 164 153 156 162 163 169 171 183 188 200 196 194 190 187 177 158 129 117 116 123 142 153 161 163 166 174 182 180 183 186 182 176 175 169 162 158 143 134 117 117 96 86 99 93 89 96 87 95 90 93 99 96 94 96 96 95 101 81 116 128 135 132 130 141 142 153 151 153 163 168 176 180 183 185 191 191 188 189 192 191 191 189 192 180 173 191 184 180 179 170 162 152 149 151 153 154 164 171 177 181 189 195 194 191 189 186 173 159 126 106 119 117 112 136 154 161 168 172 180 177 178 182 180 174 170 163 157 156 138 128 118 113 88 86 97 93 88 93 90 91 94 91 99 94 90 98 98 91 99 86 112 129 130 132 133 137 145 150 149 153 155 161 171 175 185 183 187 190 187 184 188 189 188 188 190 183 180 185 183 178 166 156 145 143 154 154 160 152 160 174 175 172 184 192 193 187 184 182 172 152 128 106 129 137 99 113 135 152 160 168 170 178 176 177 176 170 166 162 154 147 131 122 118 108 82 88 94 86 91 92 86 93 94 88 96 93 95 98 95 94 97 86 105 119 133 132 125 132 143 151 153 145 154 159 169 174 178 178 186 192 184 182 183 185 183 185 186 183 181 180 176 168 148 135 140 146 165 161 161 155 162 170 169 171 176 194 188 186 184 183 169 148 120 113 128 145 105 101 122 132 149 160 164 171 175 171 170 168 161 156 152 137 126 121 111 109 73 90 92 81 95 86 95 86 90 88 92 97 95 95 95 95 97 95 92 123 124 130 120 126 140 149 150 142 143 151 161 165 175 173 181 183 184 180 185 182 178 177 183 178 172 166 161 144 144 130 123 147 162 162 161 153 158 164 162 165 175 186 188 187 181 183 170 147 126 116 125 134 110 109 121 128 134 148 152 160 163 163 159 157 156 153 145 134 122 110 110 96 85 82 87 87 87 89 81 86 85 87 89 95 93 97 93 99 93 93 96 114 129 132 124 120 130 141 144 141 130 154 160 165 165 172 173 179 181 178 184 183 176 175 176 171 162 154 143 143 146 139 113 137 148 147 152 147 147 151 158 164 169 181 182 174 179 175 164 147 118 110 111 121 106 112 126 128 128 129 143 146 153 162 153 153 157 143 138 130 111 112 102 89 79 80 87 86 85 82 80 85 86 84 94 96 94 97 91 94 99 95 89 113 122 128 129 120 126 134 135 146 135 153 154 163 166 171 171 169 175 172 172 176 172 169 167 156 148 144 143 149 151 152 144 130 128 137 133 134 125 133 138 142 157 164 164 160 160 164 152 134 108 101 100 107 108 116 130 140 129 133 131 137 140 149 149 153 150 140 125 121 112 107 99 82 83 84 82 84 81 79 81 82 85 84 91 93 92 94 95 92 100 98 85 103 122 124 127 125 126 124 134 138 147 143 149 150 165 163 168 173 171 167 169 167 164 160 156 126 136 143 145 150 163 159 161 161 108 102 112 97 92 102 114 123 134 136 143 143 145 142 134 114 93 80 94 105 115 116 131 144 142 129 129 134 132 143 137 145 138 127 124 115 109 105 96 78 77 80 79 81 82 81 79 80 83 82 90 91 91 99 91 89 99 95 89 101 117 123 122 125 128 123 127 135 141 148 147 148 152 159 162 161 166 162 153 162 159 155 146 137 140 147 154 158 167 169 160 171 131 87 73 55 45 47 84 105 112 108 109 119 122 116 110 95 63 74 111 107 119 116 126 145 145 139 126 124 125 131 129 139 126 127 116 113 108 101 94 72 80 76 76 78 80 73 77 76 78 84 95 93 89 91 96 94 93 97 93 92 109 119 124 130 122 123 129 127 142 136 142 147 147 149 159 145 159 150 158 154 151 143 146 143 147 153 162 168 169 170 164 167 161 125 85 70 65 58 60 70 86 86 91 90 96 95 85 84 78 101 110 107 118 121 123 133 146 145 137 128 123 123 125 124 127 123 116 111 107 96 91 70 78 73 79 71 78 75 77 74 81 74 95 89 93 93 95 93 92 97 92 92 108 118 116 130 120 123 124 131 131 131 138 142 145 149 153 151 150 149 154 148 143 143 142 148 157 162 166 172 174 174 170 162 173 165 125 95 79 79 74 71 65 69 77 79 80 88 89 86 99 103 110 114 114 117 118 122 138 136 132 128 125 124 119 121 122 122 114 105 106 100 86 64 76 77 72 72 74 73 71 75 74 76 90 91 91 95 90 93 93 94 89 99 108 114 113 121 122 121 118 123 123 128 127 134 140 146 146 153 146 151 146 148 144 143 140 147 154 159 160 159 167 167 171 167 167 165 148 129 95 81 76 74 70 70 67 76 83 87 90 90 91 101 109 112 114 112 118 114 130 129 122 113 114 128 123 117 117 114 115 103 100 99 71 65 73 72 68 75 71 71 71 68 73 71 90 89 92 93 93 91 92 92 92 83 126 102 111 117 121 121 114 115 124 124 132 131 135 141 142 148 145 146 146 142 135 133 147 143 150 154 149 152 151 165 163 162 155 147 147 141 125 103 84 73 84 86 83 83 84 88 82 91 95 97 106 108 108 115 114 107 119 123 122 116 104 122 120 115 113 113 109 102 96 100 60 68 71 72 64 69 65 70 69 70 67 75 90 91 92 92 91 91 93 94 90 83 133 105 101 107 114 114 120 116 121 121 124 125 132 138 143 140 145 146 148 136 121 133 140 146 143 147 149 140 149 150 158 154 149 143 140 136 130 116 108 94 96 97 92 84 88 99 89 94 99 104 102 110 100 109 114 105 114 111 116 113 105 120 127 114 113 111 101 100 97 77 57 70 67 70 67 72 60 65 65 65 70 68 90 87 94 90 89 94 91 97 89 76 139 127 93 103 105 110 111 115 114 113 122 122 133 129 137 139 143 148 143 114 125 132 140 133 139 134 142 140 146 142 147 148 141 138 135 133 126 122 119 114 101 98 101 96 89 102 100 95 106 108 114 109 104 107 109 102 97 105 110 110 106 124 128 112 110 107 94 95 91 69 57 64 65 69 58 69 58 65 61 62 68 60 87 88 90 88 95 92 89 94 88 78 137 139 100 94 103 107 108 111 111 114 121 115 129 124 134 135 135 140 136 108 126 134 128 127 130 129 129 135 140 143 141 143 143 144 136 137 143 141 145 144 130 120 119 113 104 106 114 108 112 113 113 109 107 109 96 77 68 88 101 106 112 126 124 111 103 102 87 91 83 55 62 62 62 65 60 64 57 66 61 63 62 60 86 90 90 92 90 92 93 96 87 82 133 140 118 91 94 105 106 109 114 119 119 111 118 129 131 130 137 143 137 123 128 126 121 121 108 115 117 125 140 141 140 144 150 150 141 137 146 157 164 167 160 143 137 127 121 122 119 119 117 111 107 100 100 90 80 69 79 81 91 101 115 127 116 106 96 94 96 89 56 59 63 63 57 62 58 61 57 62 61 60 59 58 94 84 92 88 90 89 95 100 106 110 131 138 136 95 98 97 95 101 111 107 116 113 109 115 124 126 131 133 144 132 128 118 101 96 69 73 69 79 100 102 99 107 106 108 108 102 102 118 117 134 129 137 133 129 108 107 97 90 82 77 77 66 61 88 106 110 108 95 97 110 116 115 108 100 90 92 93 74 52 56 60 53 61 53 56 60 59 58 54 58 56 63 90 84 94 96 103 114 119 125 92 70 144 139 140 108 83 94 96 93 106 105 117 113 111 105 103 121 131 130 138 137 123 111 108 93 87 90 86 70 57 56 54 62 55 51 56 57 56 61 57 66 60 76 76 74 60 61 58 49 56 66 72 80 91 102 117 111 112 100 98 104 110 106 94 93 84 91 74 57 52 61 58 54 53 54 60 52 52 58 52 55 55 58 90 99 121 118 93 85 66 54 25 58 146 144 136 135 85 83 99 89 99 98 112 108 112 106 102 103 121 127 125 125 121 117 120 127 130 139 141 141 126 113 111 123 117 95 85 73 62 60 58 58 61 62 60 60 67 76 72 81 89 87 90 91 97 109 116 112 110 103 99 99 93 95 87 89 88 85 60 54 54 54 54 47 57 50 56 55 50 55 49 56 52 51 103 130 128 68 28 33 22 48 105 121 139 145 135 138 107 82 88 90 94 90 100 108 103 104 94 98 104 114 113 113 118 116 122 135 138 145 141 141 138 129 119 128 144 150 156 146 133 131 120 116 114 112 110 107 100 108 96 104 99 89 87 91 102 113 114 110 107 106 96 102 90 85 88 86 92 71 49 58 50 53 55 46 57 46 56 53 50 48 51 55 48 54 118 146 96 18 17 44 102 137 159 137 135 151 138 130 128 99 76 85 89 95 90 95 97 102 96 92 96 100 104 112 110 113 117 124 136 139 144 142 128 130 113 116 121 121 141 161 160 158 160 155 158 161 147 147 131 124 118 100 86 86 90 96 109 114 109 109 101 100 103 96 96 85 81 92 68 51 55 58 50 50 54 47 56 47 48 51 50 55 48 47 50 53 119 146 103 9 63 132 161 158 160 139 139 151 148 141 139 118 79 76 83 90 95 93 94 100 99 98 100 94 107 103 109 112 111 115 121 126 133 130 129 129 107 102 118 113 107 121 144 139 140 140 140 143 139 131 129 118 106 90 86 88 91 105 108 108 107 106 106 102 101 94 86 87 79 80 49 54 46 51 48 52 47 50 48 46 47 53 40 45 55 41 49 46 119 134 123 11 139 166 163 160 167 138 136 147 153 139 136 124 101 75 72 81 90 93 84 92 95 103 95 97 102 100 104 103 110 116 119 117 123 115 124 122 106 105 96 109 98 100 111 113 114 114 126 131 128 119 120 110 110 84 89 95 97 99 108 103 109 108 107 107 101 95 86 90 74 55 46 51 50 50 48 45 48 44 46 42 44 45 48 44 45 44 46 43 123 128 136 25 167 174 166 164 170 138 137 147 156 148 128 127 116 94 65 70 84 93 87 92 94 99 93 95 102 102 108 107 107 115 122 113 122 117 122 117 115 104 89 89 86 89 98 95 94 93 97 98 102 91 95 91 90 85 91 97 100 104 105 107 112 108 110 105 96 92 88 82 65 44 47 47 50 46 45 50 41 47 43 44 40 48 42 45 39 43 43 45 121 123 145 50 165 178 169 166 175 133 137 148 154 153 134 128 125 111 80 74 74 82 89 90 98 101 93 96 104 112 113 112 119 118 121 111 120 119 120 116 110 112 97 90 82 76 82 79 73 70 68 71 69 65 79 70 77 81 96 99 104 108 108 110 118 109 106 98 91 91 83 68 60 54 49 42 45 51 43 43 49 41 43 45 42 44 40 44 40 42 43 43 111 118 141 82 143 175 171 175 163 137 139 146 152 154 145 136 136 124 100 81 72 74 84 82 92 93 101 98 102 112 117 112 124 129 129 127 121 123 121 115 111 111 106 94 91 81 77 70 72 69 67 74 68 74 76 87 88 96 101 105 104 111 112 109 120 112 94 93 89 93 55 54 66 64 53 48 42 52 38 46 41 40 52 37 46 38 45 41 38 37 41 44 112 110 134 117 118 176 167 177 162 133 141 147 155 155 152 150 136 132 116 103 69 76 82 78 84 94 95 100 99 104 110 111 124 124 136 136 129 127 128 116 119 113 107 101 93 90 83 79 80 78 75 80 84 93 98 100 102 109 108 115 117 113 120 111 111 100 86 89 92 91 47 54 61 65 59 46 54 63 43 40 41 39 43 37 44 35 39 43 34 39 46 39 109 107 121 138 101 168 177 177 161 131 145 145 152 157 161 154 149 139 120 113 94 69 78 77 83 89 95 94 102 103 104 109 122 123 134 145 144 137 143 133 136 131 123 119 112 109 107 103 106 105 103 111 113 113 120 119 117 120 116 123 124 116 115 113 106 88 86 88 85 93 46 57 66 63 61 60 51 66 54 56 47 45 39 38 41 38 38 38 41 40 41 41 107 106 118 128 112 150 176 178 161 131 147 145 141 162 157 157 157 148 128 118 110 85 65 78 79 87 86 98 101 101 100 108 115 119 132 141 146 141 149 148 152 148 154 155 157 155 153 143 139 132 123 126 130 128 126 128 126 128 124 125 120 111 114 107 97 86 86 76 92 96 30 62 66 64 57 71 52 55 62 58 57 57 55 45 38 42 36 39 42 35 39 39 119 108 103 113 127 123 176 175 162 133 142 148 147 150 159 161 150 154 138 130 106 102 83 66 75 85 82 86 92 93 99 101 100 113 125 138 142 141 150 150 158 157 172 170 181 173 164 161 158 158 142 144 140 138 132 131 129 127 123 121 110 104 110 96 88 84 82 77 106 83 17 64 69 68 58 58 61 43 63 62 49 63 61 58 55 46 35 40 39 36 43 36 133 115 106 105 125 116 150 175 164 136 141 149 151 149 158 161 156 159 153 134 123 109 96 80 68 72 83 78 84 88 89 91 100 103 112 127 131 137 144 148 153 154 162 168 167 167 163 164 159 155 152 141 149 143 135 132 128 127 119 113 109 105 98 80 80 70 84 93 110 68 15 66 71 58 61 62 59 48 53 65 55 50 60 58 56 62 50 50 38 37 42 36 133 129 110 106 109 125 128 164 161 141 140 143 144 147 152 158 164 159 158 151 138 126 102 93 78 72 76 82 77 82 89 82 92 96 103 109 114 126 128 134 140 135 147 156 155 158 154 144 142 139 141 139 141 145 140 131 126 123 110 108 97 100 84 71 71 77 98 99 105 50 26 67 68 60 60 70 54 50 55 65 54 55 55 58 60 55 61 58 54 60 53 45 131 135 124 102 107 110 129 137 166 145 136 147 144 142 152 151 159 163 155 147 144 142 122 94 96 79 67 72 78 79 83 78 83 83 85 89 106 117 120 125 124 126 129 132 138 140 138 123 115 108 115 113 118 118 129 119 117 111 102 98 92 86 76 76 70 100 100 101 98 34 45 67 64 67 57 62 59 50 58 65 60 58 54 56 62 54 59 61 57 57 63 58 131 129 132 113 104 100 122 126 148 152 138 144 149 141 148 155 156 156 157 154 149 142 140 117 99 89 74 63 78 69 82 78 86 79 68 79 83 101 103 115 116 114 111 108 111 107 104 100 98 100 94 98 107 107 105 104 104 98 91 92 81 76 67 74 90 106 101 99 84 28 66 62 66 62 63 62 57 51 57 67 61 62 54 61 54 58 60 61 56 53 63 53 129 129 136 124 107 99 105 123 129 146 145 145 149 149 148 154 155 153 155 156 159 149 139 132 123 93 90 65 77 64 73 76 74 78 72 69 73 72 84 86 93 93 99 96 92 83 81 82 88 87 81 86 98 89 93 94 86 84 86 84 58 68 71 104 101 106 98 103 56 40 74 62 64 64 67 59 59 51 59 67 62 63 54 64 55 63 61 57 58 54 65 59 127 126 133 131 117 100 102 107 118 133 147 145 149 147 149 149 150 153 152 160 149 151 147 141 129 121 101 85 74 64 72 75 73 76 75 66 68 67 65 68 72 74 73 79 75 72 76 69 81 73 75 71 79 76 80 75 68 72 69 59 65 78 97 103 105 107 97 98 45 43 83 56 64 63 60 68 47 51 58 72 58 60 57 67 54 58 65 56 63 66 56 64 129 127 132 134 129 111 100 93 105 120 134 143 146 146 153 149 152 155 154 159 149 153 151 136 142 127 123 101 87 74 69 73 69 68 81 69 68 69 65 66 63 66 63 66 69 67 65 66 74 66 70 65 68 61 66 60 62 60 62 61 88 101 103 104 108 96 102 89 38 61 76 65 62 63 63 66 47 52 69 69 65 64 60 64 64 58 68 63 62 70 63 63 138 130 134 134 133 127 107 97 96 106 118 129 139 150 146 154 154 151 154 156 150 151 149 147 137 135 125 119 104 81 78 72 75 69 75 69 69 71 69 70 62 63 61 64 60 64 60 63 57 62 54 59 62 51 56 65 56 67 75 90 105 105 107 107 103 98 98 58 57 71 68 66 65 62 70 58 51 53 74 66 68 65 63 65 62 63 67 65 67 65 68 56 138 130 131 131 134 132 123 109 92 99 102 114 131 135 150 146 157 152 150 155 153 149 153 150 140 138 128 121 113 109 82 80 78 67 74 66 69 65 71 71 70 71 69 65 72 65 67 65 66 71 66 63 69 55 66 57 73 80 97 104 104 105 107 105 103 99 79 40 74 67 65 64 68 57 76 54 61 64 71 70 68 64 64 66 67 65 66 67 67 64 71 59 