P2
92
112
255
111 114 112 112 110 112 111 114 112 112 112 112 114 112 115 111 117 111 115 111 113 114 112 114 114 114 112 114 115 113 111 112 113 112 114 112 114 117 110 106 109 105 104 113 113 119 110 111 117 111 113 112 115 109 113 112 114 113 114 114 113 115 116 109 114 113 110 113 114 112 114 110 113 110 112 112 110 116 110 113 111 112 111 111 109 110 113 112 109 112 108 110 112 113 111 109 112 109 115 113 113 113 113 113 112 112 115 114 114 110 113 113 111 114 112 115 111 114 115 112 113 110 115 111 108 104 104 94 96 98 81 71 71 71 69 77 100 112 105 102 109 113 112 116 110 112 116 108 116 108 116 112 112 112 115 110 112 113 110 114 111 111 112 111 113 111 112 109 115 108 114 111 110 112 111 112 112 111 110 109 112 112 111 111 113 109 112 112 115 113 113 114 112 113 114 112 112 114 108 115 112 115 112 111 115 112 112 115 112 112 114 102 107 98 98 80 73 61 60 60 64 57 48 56 56 55 58 60 60 57 89 91 100 99 97 107 110 114 111 113 112 116 112 112 113 114 113 112 113 112 113 114 111 112 113 107 112 113 111 111 112 111 114 109 112 111 111 114 109 114 109 112 111 109 111 108 109 116 110 114 113 113 113 114 114 114 111 115 108 116 109 116 115 113 111 113 112 115 112 113 112 113 110 92 99 92 61 61 45 42 38 38 58 37 44 50 55 53 52 46 53 35 52 67 85 76 79 80 83 95 111 110 111 116 111 114 112 117 109 111 113 112 112 116 112 112 115 111 115 112 110 112 111 115 110 113 110 110 109 109 113 111 110 112 113 110 110 112 111 113 110 110 113 111 113 114 112 116 112 114 113 113 112 113 112 114 113 113 106 109 107 109 103 114 95 81 76 58 48 51 38 59 41 56 40 47 39 45 48 43 48 49 50 49 40 45 59 52 51 56 46 54 61 77 93 98 100 104 106 113 110 112 114 112 115 111 112 111 112 114 110 113 109 111 112 113 109 111 112 110 111 112 111 112 110 114 111 112 108 110 113 112 112 112 112 114 114 115 110 113 113 111 115 114 113 112 113 112 112 112 111 111 112 115 99 93 97 61 58 48 43 47 46 45 44 39 39 31 46 39 48 46 39 46 50 48 51 45 53 53 63 58 44 45 46 49 51 51 61 61 56 65 102 105 106 110 112 112 113 110 113 112 110 112 114 113 107 113 110 110 113 110 112 110 112 113 108 113 109 111 111 111 110 110 112 111 113 115 111 116 110 114 112 115 110 109 115 108 107 104 99 107 102 105 103 99 81 65 61 54 48 43 49 42 38 53 41 44 41 37 49 42 44 46 37 48 48 39 49 39 47 47 58 58 47 55 52 47 57 49 42 54 44 33 48 73 83 92 95 100 112 110 112 110 109 109 108 110 110 111 111 113 111 111 112 112 109 111 112 114 110 109 112 110 112 109 112 114 111 111 111 115 110 114 114 109 116 111 107 103 107 108 97 94 86 74 66 62 56 44 38 41 46 44 49 45 37 43 43 47 39 43 49 42 41 50 33 44 40 36 42 46 42 40 42 47 51 56 51 49 59 56 41 50 49 42 39 41 47 54 67 86 92 94 116 108 110 109 107 111 112 114 111 114 106 111 110 111 112 110 111 111 109 110 111 107 113 109 112 110 111 112 112 113 113 112 114 110 112 101 106 99 93 93 101 94 93 64 47 37 44 33 51 43 44 45 46 44 37 42 39 43 40 44 46 42 33 38 31 45 31 39 32 45 27 28 41 35 38 46 42 46 52 46 49 45 44 50 44 46 38 45 65 73 84 78 106 114 109 113 111 112 111 111 112 114 106 112 112 112 112 108 111 110 112 112 111 113 113 109 114 112 112 111 114 112 114 110 117 112 111 100 110 108 89 92 81 83 91 58 44 42 36 34 57 47 48 42 45 39 36 39 40 44 31 43 49 37 47 36 27 41 34 38 26 29 25 38 45 42 42 40 39 34 36 41 54 48 43 45 34 46 52 58 72 75 77 75 84 91 103 109 110 111 111 109 113 107 116 105 112 111 113 110 112 109 112 111 114 112 113 111 113 112 110 113 108 115 108 109 104 95 101 102 105 105 93 83 77 79 72 59 45 36 40 36 45 47 44 34 48 38 42 37 47 41 39 35 42 36 51 42 32 41 35 33 29 29 33 41 42 38 49 41 35 28 30 34 49 43 40 41 29 41 56 68 63 69 79 81 83 84 97 98 97 112 111 110 113 109 110 108 108 112 111 109 113 111 109 111 111 110 112 112 111 111 113 109 113 112 103 94 71 50 64 80 87 84 99 79 74 77 62 55 45 39 47 36 44 35 44 41 40 39 41 44 42 45 30 37 46 34 39 57 36 42 43 37 35 36 33 38 36 33 51 47 40 45 41 42 32 30 39 29 32 39 51 61 65 68 74 80 81 85 93 83 86 93 101 109 103 101 102 110 111 111 111 109 115 111 112 113 106 113 109 115 110 110 108 116 107 99 101 74 42 38 49 60 57 59 71 77 68 62 62 33 54 46 48 50 43 32 38 43 30 37 33 52 30 39 38 34 29 45 32 51 41 40 47 45 46 46 43 48 34 43 44 43 50 54 48 43 39 37 30 35 25 39 43 59 54 57 57 62 64 51 67 72 80 80 72 81 100 103 103 104 113 110 113 111 109 113 109 111 110 108 112 111 113 113 110 109 105 89 65 52 35 34 40 45 54 54 51 50 52 53 47 35 48 49 45 50 37 33 33 44 32 34 42 39 37 32 40 35 38 39 37 49 42 34 51 44 54 69 49 51 48 47 42 50 49 43 48 49 49 42 36 33 28 32 39 45 44 53 55 54 54 51 56 53 53 68 73 72 95 104 106 107 112 112 112 112 113 112 111 113 108 110 112 113 111 115 106 104 88 83 58 54 34 44 39 36 46 52 38 44 42 31 39 29 37 41 53 43 35 29 40 36 46 36 38 42 40 39 34 37 53 42 46 46 37 37 49 50 50 68 62 57 57 50 52 50 58 41 41 49 44 50 42 40 36 28 44 32 37 40 42 38 53 58 55 51 55 45 78 83 85 94 111 112 110 112 112 112 107 112 112 112 113 107 111 111 113 111 107 76 84 79 68 54 45 41 54 43 52 47 42 36 40 26 41 31 42 39 43 47 36 34 52 40 50 53 46 40 56 40 49 44 71 55 65 45 42 55 47 56 49 54 74 63 67 47 66 58 63 49 36 40 42 49 47 51 45 42 37 31 36 27 34 33 30 38 52 54 53 66 65 79 81 93 96 107 111 110 111 111 109 111 108 115 110 113 112 113 109 117 96 79 69 74 74 65 54 49 44 52 48 45 36 38 37 32 37 38 41 57 58 55 53 40 63 86 51 58 74 50 67 60 53 79 84 83 75 60 64 67 57 55 49 60 71 80 64 54 84 59 59 44 50 51 55 59 54 51 57 49 41 46 40 31 34 32 27 32 49 53 50 56 63 68 84 91 99 106 105 108 110 108 110 110 110 109 112 110 115 108 110 110 101 64 69 77 66 55 50 54 49 52 57 67 52 41 32 34 34 47 59 73 79 66 67 63 79 95 90 67 84 80 86 86 87 98 106 98 93 74 102 95 78 64 46 75 80 95 72 59 80 66 67 63 56 65 62 73 71 63 72 70 64 54 53 46 31 32 28 26 41 43 53 52 62 64 61 57 77 85 88 106 109 110 114 108 111 110 111 110 113 111 105 101 101 75 53 73 67 43 49 71 61 55 56 51 54 32 38 41 60 67 95 88 83 81 79 85 87 101 115 100 85 100 115 119 123 119 121 117 115 100 127 119 113 88 70 89 96 110 96 84 74 78 90 89 68 82 67 75 92 82 96 87 84 72 58 64 37 37 32 26 32 40 52 49 51 56 49 47 53 52 64 72 105 106 112 114 110 111 111 109 112 112 102 90 110 89 47 42 52 37 42 62 69 66 50 44 42 37 47 60 89 105 119 112 97 88 84 99 102 109 132 126 120 98 126 138 146 140 143 140 136 136 134 153 136 124 115 106 106 117 111 115 97 89 111 111 98 87 84 96 93 89 106 103 101 77 81 79 58 41 40 34 40 49 53 50 49 49 42 44 46 60 51 50 88 95 109 111 110 111 110 106 111 108 104 83 85 90 59 53 41 40 40 60 55 63 52 50 43 57 74 105 114 124 130 129 120 111 117 118 120 123 134 140 152 147 137 159 158 158 160 167 156 160 148 150 159 149 142 133 139 129 133 145 115 113 121 137 114 103 112 116 107 105 117 109 101 90 98 94 77 63 53 40 41 42 51 50 58 48 46 38 43 31 69 65 71 111 100 107 113 108 112 103 111 108 90 84 73 78 64 44 36 43 54 54 51 48 49 39 56 75 94 118 128 126 136 132 135 138 141 137 144 148 149 153 151 156 154 159 169 175 177 175 177 171 163 161 160 164 160 154 165 160 154 156 145 139 136 143 126 120 127 127 114 121 113 112 109 107 107 110 96 87 56 57 41 36 37 41 56 48 46 34 41 31 35 42 55 99 114 109 108 112 109 111 116 107 74 63 66 63 53 45 48 54 65 54 54 50 56 51 82 103 122 127 142 147 155 149 149 147 144 152 149 157 166 177 171 174 168 169 174 186 184 182 181 181 176 175 176 177 169 169 162 166 160 163 161 159 153 145 147 143 140 140 130 133 129 125 128 119 117 121 113 100 79 67 49 46 30 37 45 58 48 43 39 34 32 26 29 68 112 112 113 113 108 111 108 88 51 47 53 56 55 43 59 58 47 48 53 55 45 78 105 122 145 139 152 153 157 155 155 158 150 159 167 176 171 177 185 185 184 185 184 190 190 188 187 190 185 182 187 185 176 177 175 172 174 170 173 169 161 163 155 152 164 153 148 141 133 136 132 122 126 124 123 112 106 87 68 52 44 24 32 41 41 41 37 38 32 28 21 23 104 116 110 114 111 111 86 36 32 38 54 54 61 58 44 50 50 37 55 46 85 105 130 134 153 149 152 162 170 168 175 174 170 173 179 180 182 185 188 190 192 188 192 190 192 193 190 191 191 187 188 187 188 187 184 181 183 181 181 177 160 170 165 166 166 162 157 150 144 142 140 135 130 128 129 121 121 108 86 72 48 37 31 21 31 29 38 48 38 32 21 19 46 114 111 112 112 112 77 49 27 47 52 61 60 51 46 37 34 41 55 72 106 135 140 152 155 156 162 166 175 172 174 179 175 177 183 184 187 189 192 192 195 189 192 196 193 197 192 191 194 191 194 190 188 189 184 185 185 188 185 178 179 174 172 172 167 169 167 157 156 151 143 145 135 133 134 125 122 118 102 89 58 42 35 31 45 34 34 49 47 41 27 27 22 86 122 111 110 112 70 41 30 36 46 61 62 43 42 24 36 48 60 104 126 140 149 153 158 158 167 171 175 178 179 179 182 184 185 191 192 193 193 197 197 194 190 195 195 197 195 194 194 193 196 194 192 192 189 187 183 187 184 183 181 177 175 179 173 175 165 163 159 157 153 152 142 142 140 132 122 124 122 111 82 61 42 36 55 52 45 47 37 34 31 33 13 83 121 111 108 113 63 39 27 29 34 53 60 58 36 42 54 52 93 128 141 145 152 159 158 165 168 170 178 180 178 179 186 187 189 195 194 194 196 196 195 196 194 195 198 198 196 195 196 194 196 195 194 192 190 190 185 189 184 186 180 182 178 179 181 173 162 163 159 154 158 158 145 149 142 133 130 127 135 115 107 80 53 51 42 53 59 59 49 40 22 31 10 44 123 111 109 111 40 24 25 22 36 32 58 61 43 62 60 71 121 139 142 148 153 160 166 165 172 174 173 182 176 181 183 187 192 194 196 196 198 196 198 196 194 196 199 198 197 192 195 195 195 192 195 195 192 189 190 188 185 182 187 186 183 183 182 179 170 168 164 160 157 159 149 152 146 138 134 122 135 131 112 118 48 52 53 50 61 48 50 44 25 19 26 7 86 122 114 110 31 20 26 24 25 39 39 52 65 64 59 97 133 143 134 149 154 158 166 165 167 173 173 179 175 182 183 189 194 196 197 196 198 194 196 197 196 198 199 196 198 197 197 196 198 195 196 196 193 193 189 190 186 185 186 185 185 183 181 181 175 166 168 163 158 157 151 152 148 136 138 126 137 135 118 121 86 29 60 45 63 63 42 32 29 22 23 22 28 110 116 110 37 17 24 25 26 36 32 56 64 58 73 109 138 137 137 147 161 157 165 158 168 173 174 178 179 178 188 189 194 195 196 199 196 195 198 197 196 199 198 198 198 198 199 198 199 195 197 198 195 193 188 192 190 189 185 184 186 182 183 176 179 169 168 162 160 158 157 154 149 142 136 131 141 137 126 116 99 57 33 59 60 62 46 26 27 22 24 16 9 84 119 114 44 18 21 23 25 23 49 59 63 61 87 119 134 132 138 146 162 156 160 163 173 177 171 177 180 179 188 189 195 195 195 200 197 199 198 200 197 199 198 199 198 198 198 197 199 197 196 196 193 193 188 192 192 190 188 185 184 185 181 176 175 171 170 160 159 156 155 154 145 146 137 135 141 142 126 120 101 75 36 42 64 53 40 29 24 23 18 23 5 53 124 109 58 25 17 24 25 33 33 48 56 54 102 121 135 130 135 145 159 158 159 161 173 171 175 172 177 177 187 189 193 197 197 201 199 200 198 199 198 200 197 199 201 200 197 199 198 199 196 196 195 194 193 194 192 190 190 189 181 182 183 184 172 174 172 162 160 152 160 154 151 145 140 136 143 146 129 111 109 75 50 51 53 64 35 28 19 25 19 19 14 27 122 113 71 27 21 26 22 27 26 45 49 65 106 121 131 130 136 150 157 157 157 161 168 169 173 176 175 179 182 188 195 194 198 199 199 201 199 199 197 200 200 197 200 198 199 197 198 195 198 197 197 194 192 193 192 191 192 189 185 185 181 181 175 168 173 165 161 151 157 158 153 146 143 137 143 143 131 115 96 84 54 48 56 56 57 31 19 22 18 17 13 23 112 114 86 29 23 27 22 20 31 41 52 77 107 120 129 131 134 150 153 154 156 158 168 167 174 179 177 177 179 185 191 195 196 200 197 199 199 199 196 198 201 199 199 199 201 195 198 197 197 197 196 193 191 193 191 191 193 191 185 187 182 178 174 172 167 166 166 156 158 158 153 148 143 134 138 141 127 112 105 79 67 44 56 62 50 42 19 20 18 19 21 9 105 118 96 63 16 23 22 25 28 38 59 82 103 119 128 127 137 147 150 162 159 157 165 169 170 175 176 177 179 183 191 189 197 200 198 197 198 197 198 198 201 197 199 200 200 195 198 196 198 195 196 194 194 194 192 191 194 189 186 186 181 180 174 174 172 164 170 164 160 163 152 148 140 138 131 139 127 118 103 73 71 53 48 48 51 38 30 19 18 27 20 7 93 116 90 67 21 22 27 25 27 34 61 81 104 121 125 130 134 143 157 157 159 156 162 166 170 171 177 181 177 184 187 191 191 195 198 195 200 197 199 199 198 195 201 200 197 196 198 198 196 195 194 194 190 196 195 190 188 186 187 181 182 177 176 175 171 166 167 165 163 164 160 150 138 138 131 131 123 114 101 75 64 52 53 46 43 33 31 20 19 27 20 9 104 118 90 80 25 25 25 21 26 32 60 78 105 118 126 128 129 151 154 159 158 159 160 166 167 171 168 170 174 178 186 186 185 191 193 196 198 195 195 199 200 199 198 199 199 196 197 196 193 192 195 194 189 193 191 189 189 185 184 182 176 180 173 169 174 166 165 163 164 162 159 151 138 132 135 131 123 105 100 77 55 56 44 44 30 33 29 26 22 24 13 27 101 106 91 85 31 23 26 19 24 32 54 74 106 121 123 131 134 150 156 159 163 161 160 161 169 170 170 166 168 174 181 183 187 191 196 194 197 198 196 198 200 199 196 198 200 197 197 195 194 192 195 193 193 190 188 188 189 185 184 182 176 175 173 171 170 171 168 166 166 166 157 147 139 134 132 132 122 110 82 77 50 48 40 41 29 27 31 23 26 22 19 24 77 100 85 86 27 31 22 24 22 26 52 66 103 110 127 132 134 148 158 162 160 160 159 166 162 171 164 166 169 171 183 183 184 190 194 194 196 195 195 197 200 197 198 197 200 198 196 194 193 194 194 193 194 191 192 189 187 186 183 187 178 177 176 174 174 167 174 165 167 167 157 152 142 132 135 128 117 111 89 58 46 33 39 33 27 20 32 22 25 27 17 26 65 103 86 92 38 20 36 18 22 22 43 64 102 109 130 131 135 148 155 160 161 162 163 163 166 167 173 171 177 179 183 183 185 193 194 194 196 197 195 191 196 195 198 197 197 197 194 189 193 194 192 193 191 192 188 190 186 184 185 184 179 177 176 177 170 167 168 169 165 169 154 153 145 137 132 123 120 107 94 51 36 26 25 34 19 27 25 23 26 21 25 16 58 100 84 88 64 36 33 25 23 20 35 63 104 111 126 132 135 144 163 155 161 164 163 167 170 170 173 180 176 181 187 186 185 193 194 195 200 199 196 196 194 195 199 200 195 199 196 190 193 193 195 191 192 193 189 190 186 186 187 182 178 175 176 173 171 171 170 172 168 166 160 153 148 141 128 123 120 113 87 59 28 28 21 25 21 22 26 25 20 19 30 16 50 120 79 93 66 32 27 25 23 20 29 66 102 111 128 131 138 143 159 160 165 169 167 168 175 174 176 182 181 182 189 187 191 193 197 198 198 200 196 198 197 196 198 199 196 199 198 194 194 196 195 195 192 192 189 187 189 185 187 183 181 181 172 178 177 167 173 172 171 166 161 156 142 138 130 124 115 119 85 64 18 27 25 19 20 26 20 27 20 27 19 13 67 113 81 88 70 35 20 26 16 25 26 60 99 121 125 133 143 154 162 160 168 168 169 177 177 178 182 182 184 188 191 189 189 195 200 197 201 198 199 197 198 199 201 200 197 199 199 199 195 197 198 194 195 192 191 185 190 188 186 184 181 182 178 173 176 174 172 173 174 168 165 157 144 135 130 128 117 113 100 72 14 25 21 19 24 23 25 21 20 25 20 9 56 114 79 84 79 37 19 31 23 23 22 51 102 123 125 131 146 158 161 165 168 174 177 182 178 177 187 180 189 190 193 191 190 197 196 198 200 201 198 200 200 198 196 201 197 197 201 198 197 197 199 195 193 194 192 190 191 190 182 186 183 183 182 184 178 179 172 174 171 175 162 151 145 138 127 127 119 109 103 81 26 18 20 24 21 23 23 17 23 18 23 13 32 114 75 87 71 36 23 29 22 21 20 54 111 125 127 134 152 159 162 165 173 176 181 183 185 185 188 186 192 190 194 194 189 194 197 195 199 199 199 200 200 200 197 200 199 198 200 197 197 195 199 196 192 194 190 191 191 190 187 186 186 183 180 180 175 176 179 179 170 171 159 143 147 129 128 124 118 114 102 87 30 21 20 22 24 22 24 21 21 21 21 18 28 108 82 84 70 42 20 23 23 26 19 58 117 124 129 136 151 163 162 161 173 178 178 182 185 188 183 189 188 191 193 194 187 187 197 197 195 197 198 198 198 197 198 198 197 196 200 197 196 195 198 196 194 194 196 193 191 192 187 186 184 183 183 182 179 170 180 174 176 163 162 148 143 135 125 125 120 113 111 92 49 24 21 22 22 25 24 29 17 20 26 18 37 110 75 88 71 34 24 24 18 30 13 66 116 125 129 135 149 161 170 171 177 176 178 182 177 181 183 181 184 190 189 192 189 192 195 194 193 195 194 195 200 200 197 199 195 194 197 194 193 196 194 192 193 195 198 194 192 189 188 185 183 179 176 176 174 168 172 178 173 166 155 151 143 134 124 124 120 118 113 102 66 32 20 22 25 26 23 27 22 23 27 28 43 107 79 81 76 35 24 24 22 23 12 71 122 125 130 136 155 163 167 165 147 142 155 156 150 155 172 169 172 183 184 186 187 191 189 189 193 188 194 194 195 197 195 198 195 195 193 194 190 190 186 185 189 195 194 185 185 172 168 173 164 159 151 144 128 116 110 110 122 136 156 161 152 137 119 120 123 116 114 115 75 30 20 24 21 25 26 18 24 27 35 38 72 101 77 82 84 46 21 25 32 22 7 78 122 128 126 141 150 143 107 106 104 107 107 107 101 101 116 120 128 144 162 171 179 185 180 178 187 184 187 191 191 192 192 193 192 191 188 187 183 184 174 155 172 174 168 138 121 118 108 122 113 110 86 93 102 83 80 71 81 81 89 122 144 147 119 121 115 119 112 121 85 36 21 24 23 17 25 20 23 38 25 47 101 106 79 78 85 76 30 24 37 21 10 77 126 123 124 123 116 100 59 61 66 71 79 74 72 72 70 69 71 79 101 116 131 148 163 164 171 183 183 182 183 187 187 189 186 185 175 174 167 157 151 118 141 149 123 88 73 80 76 80 73 64 62 70 68 67 74 70 65 66 56 75 86 126 128 114 113 120 116 119 94 43 11 28 24 16 23 27 14 70 52 63 114 101 76 79 81 78 60 47 25 18 11 88 128 119 101 78 76 57 55 80 77 68 59 65 61 62 54 69 70 51 55 58 70 92 113 129 153 161 175 172 179 175 180 178 182 179 173 165 151 136 127 116 125 124 99 68 63 65 59 56 48 54 62 85 86 99 114 104 108 92 78 79 57 61 101 119 108 119 118 118 101 35 20 22 25 19 16 37 24 63 91 78 111 101 80 78 80 75 93 71 29 10 24 105 128 101 52 62 81 100 109 118 124 116 118 107 98 86 70 52 54 48 51 48 53 68 95 99 121 137 145 155 168 175 168 179 181 176 161 162 135 116 117 119 107 109 83 69 52 57 59 72 94 104 123 129 132 131 137 131 128 127 123 116 100 79 60 84 116 110 124 116 114 36 27 20 31 19 23 74 35 40 79 87 99 107 79 78 82 66 97 76 47 11 30 117 116 92 70 75 103 123 119 122 127 125 107 106 102 98 95 88 76 68 63 62 72 72 86 91 106 126 137 148 160 170 167 173 177 173 160 147 134 111 122 120 109 108 93 87 75 81 88 102 107 114 115 116 119 110 119 121 119 121 129 127 126 119 98 65 108 113 125 119 122 54 19 26 26 20 31 79 66 77 98 107 100 105 78 79 79 67 101 77 45 9 37 120 115 100 87 98 111 115 116 104 101 95 100 105 113 109 106 114 106 98 83 68 58 73 83 87 93 105 129 146 161 168 171 175 183 179 170 153 132 127 117 112 105 105 85 71 76 88 91 105 106 112 119 105 108 108 94 95 96 111 123 125 129 122 121 102 108 113 120 124 122 75 11 21 31 28 45 79 97 95 104 117 104 105 84 73 82 59 115 107 60 11 55 129 114 99 97 108 103 108 103 78 87 102 116 104 102 80 64 77 77 93 105 103 89 75 62 85 89 93 113 141 161 174 179 181 189 187 170 153 140 128 108 111 98 88 77 88 93 91 77 60 48 55 57 47 69 77 88 105 91 71 99 118 120 126 124 122 112 111 118 120 129 94 13 10 42 53 79 119 103 103 110 123 100 106 79 82 73 52 138 135 90 18 72 137 124 105 103 112 106 104 83 54 82 63 56 76 85 45 35 47 86 41 32 70 94 102 94 72 85 81 91 128 161 174 190 192 195 193 179 161 130 116 111 105 95 103 95 88 80 93 53 39 39 144 49 43 48 86 59 45 76 83 71 89 109 124 133 133 123 116 112 126 123 115 29 8 66 92 128 138 109 115 127 119 101 105 77 78 74 55 125 138 107 19 96 136 127 121 115 119 104 95 68 50 52 45 87 135 104 61 57 25 111 70 32 87 97 71 114 112 80 86 89 114 159 180 190 198 197 196 183 160 121 117 112 118 118 114 94 89 122 149 70 55 30 56 57 51 71 125 107 66 53 47 75 97 111 117 135 139 136 122 121 122 125 127 58 19 90 125 135 133 114 114 144 111 96 104 80 78 80 52 109 141 114 32 113 137 132 137 139 131 113 102 92 72 79 99 104 144 123 72 73 58 49 74 67 123 152 80 88 134 111 100 106 112 152 177 194 199 198 190 185 159 123 116 128 138 142 107 101 153 130 165 94 75 52 54 61 55 102 146 119 102 85 75 98 116 120 128 136 146 143 128 123 125 128 123 86 66 72 108 123 129 113 123 133 102 102 105 75 81 80 66 84 127 125 61 121 133 146 148 161 149 135 133 136 103 95 121 125 129 145 106 78 84 80 100 106 126 138 113 108 137 155 135 121 120 149 177 192 200 199 193 187 165 134 121 139 147 137 127 124 132 125 141 133 111 96 95 89 101 134 142 127 115 108 101 123 133 130 134 144 151 148 136 130 128 129 125 95 92 92 95 113 128 126 122 119 100 104 107 73 79 78 78 65 121 124 99 120 134 157 163 168 161 156 153 147 133 108 116 112 125 139 153 152 168 162 157 142 138 139 149 150 146 152 144 133 131 152 174 191 200 197 191 194 167 141 134 143 147 138 143 142 136 133 144 155 148 166 163 142 133 138 130 126 116 115 128 130 142 148 151 150 158 154 144 135 124 132 125 91 117 132 113 108 131 140 120 105 106 105 108 76 81 77 78 63 106 130 109 125 132 157 169 170 169 163 162 153 137 130 136 126 129 122 121 121 128 127 130 124 125 121 129 133 135 143 146 137 138 156 180 193 200 195 197 189 173 138 153 149 141 130 134 128 117 116 122 128 122 127 129 125 118 127 127 128 130 128 133 144 149 156 158 158 160 157 144 138 127 130 126 84 127 158 127 116 131 151 115 101 105 102 107 77 81 75 83 58 108 133 112 122 132 164 165 173 170 172 164 165 146 133 133 129 135 137 135 129 124 125 117 109 109 108 123 141 138 147 148 146 142 159 185 194 198 198 194 184 164 154 154 156 150 136 145 152 137 122 119 113 116 120 121 131 129 135 128 126 129 131 144 149 154 164 166 166 166 163 145 140 127 129 122 89 120 165 138 120 131 159 111 104 104 104 109 77 75 83 75 67 104 147 113 114 140 159 163 171 176 174 176 169 164 150 130 114 112 116 112 115 105 113 107 105 118 134 151 155 152 154 148 151 149 152 183 198 200 198 194 178 161 161 160 155 159 152 152 163 161 155 145 128 117 112 112 116 119 126 124 127 135 150 158 159 163 169 171 168 167 162 152 137 134 121 122 88 121 152 141 110 139 139 123 97 104 104 106 77 77 77 71 71 122 140 116 113 137 161 165 176 176 182 180 174 173 168 163 152 142 129 124 123 124 125 132 143 151 160 164 159 162 152 148 153 147 156 186 196 200 196 193 178 160 160 169 155 157 158 163 170 167 169 165 156 152 153 146 139 141 147 144 153 157 162 173 172 176 173 179 168 168 160 147 141 133 114 121 89 127 143 124 112 143 132 113 109 99 107 103 72 80 81 69 77 123 142 115 115 140 157 165 174 183 185 181 185 182 176 178 159 166 167 161 161 161 159 163 163 166 162 169 165 156 150 156 155 145 162 186 198 200 198 187 179 161 157 166 159 151 158 159 173 179 181 178 176 170 167 165 156 164 163 165 167 174 178 184 185 183 180 181 173 171 160 154 138 136 111 119 88 126 127 121 131 141 117 131 100 97 109 103 78 82 75 76 68 122 131 109 115 134 156 165 174 177 181 183 189 189 180 182 171 173 177 179 172 178 177 178 176 177 173 173 167 156 153 159 149 151 169 192 198 202 195 185 174 163 158 160 162 157 154 159 169 176 186 182 182 186 184 183 175 173 180 174 176 183 182 186 186 189 182 180 170 169 161 150 143 135 112 111 93 121 112 125 146 122 127 126 103 105 101 104 73 77 74 78 63 119 139 107 111 138 155 166 172 173 179 179 185 189 184 182 182 182 182 180 178 182 180 184 179 177 171 173 167 157 153 152 151 166 186 192 200 200 196 192 184 167 155 156 159 158 158 160 166 179 180 182 186 188 187 187 187 184 189 183 187 189 185 183 186 185 186 181 172 164 168 150 144 134 115 107 98 109 116 133 156 134 128 119 98 108 104 105 76 80 79 76 62 116 147 115 107 132 160 164 166 178 184 183 185 191 190 188 188 186 184 184 188 185 186 181 184 171 173 170 166 160 151 144 167 182 190 196 198 200 197 196 184 173 159 155 152 150 162 163 166 170 178 176 184 187 185 190 192 193 193 193 189 188 191 187 188 184 179 181 167 168 166 150 145 134 110 107 97 94 150 150 146 140 131 117 98 103 110 103 77 75 80 76 60 134 142 115 105 127 155 165 168 177 183 185 193 193 190 192 191 190 188 190 189 188 187 183 181 179 170 170 164 158 136 152 175 186 193 196 197 199 197 193 189 175 156 148 143 143 149 165 169 171 174 179 182 182 187 191 192 194 196 198 189 188 193 194 191 191 184 182 170 174 168 154 143 130 108 107 96 101 151 143 141 140 135 115 101 103 105 103 79 73 85 63 81 140 142 108 107 128 147 157 169 169 182 184 192 190 190 191 192 192 192 193 188 187 185 185 181 182 171 168 166 139 135 163 177 180 189 197 194 196 194 190 188 176 153 141 134 137 135 148 167 177 178 178 180 182 188 190 192 194 197 197 195 191 192 195 192 192 187 181 173 173 166 156 140 137 99 112 91 108 143 139 137 136 129 115 100 103 107 100 75 77 78 64 79 131 133 106 107 125 145 154 166 168 178 182 192 189 192 192 192 195 194 190 190 181 187 185 178 181 174 168 150 131 143 167 169 170 188 195 198 198 195 190 181 172 151 136 136 141 142 141 146 170 183 183 182 182 189 189 189 192 195 194 199 188 192 193 191 190 188 178 174 170 162 146 143 129 105 111 88 107 148 140 131 126 131 102 106 104 104 106 77 78 73 76 69 109 133 104 107 128 136 151 163 174 177 183 192 191 189 191 191 195 191 191 186 174 185 190 180 181 174 162 139 138 151 162 162 167 187 192 196 199 197 190 181 165 157 138 147 159 150 151 136 137 173 183 184 182 191 186 190 188 193 195 196 195 189 190 186 186 183 176 168 160 153 144 137 128 100 115 81 112 139 129 123 126 106 101 104 101 105 100 78 74 75 82 62 86 120 106 108 126 140 141 160 168 178 181 191 190 188 185 191 193 191 191 186 186 185 187 182 181 166 146 144 146 153 163 156 170 186 191 195 201 198 192 181 165 152 145 148 155 150 154 141 120 154 171 181 184 185 186 188 192 189 191 195 191 191 190 182 182 180 173 165 158 148 143 132 118 104 111 84 112 125 118 106 96 107 101 102 104 100 100 79 75 75 75 74 68 92 110 106 125 138 139 155 167 172 178 187 191 187 184 189 191 186 190 189 186 184 185 180 180 151 131 148 143 147 148 152 165 183 187 187 193 198 189 184 165 143 139 141 147 149 145 137 118 142 168 172 177 184 188 189 191 188 189 194 189 188 190 183 181 175 174 160 152 144 141 128 116 101 111 88 96 106 95 96 100 101 103 100 103 98 104 77 80 74 81 73 75 68 104 102 126 137 137 145 160 169 175 183 187 186 185 190 188 185 188 186 182 179 185 177 177 149 123 134 138 126 131 131 152 174 175 177 183 184 184 166 151 128 124 130 137 144 140 126 122 149 169 166 174 176 185 186 188 190 188 188 189 186 188 183 181 168 163 156 144 142 133 127 109 99 111 93 87 96 95 100 102 99 102 100 104 97 105 76 73 75 77 73 78 65 96 103 124 140 117 147 156 167 172 179 180 187 186 190 189 183 183 183 181 178 179 173 177 154 118 113 125 108 103 108 130 150 158 163 166 171 165 151 128 112 102 107 115 128 117 119 133 156 173 168 168 172 172 182 183 185 188 185 187 183 184 179 177 171 157 151 138 136 127 127 104 99 107 95 85 96 96 98 98 97 99 101 99 103 100 77 74 76 74 79 70 73 85 102 113 133 124 141 153 169 172 176 174 182 184 182 187 184 185 165 170 175 172 176 175 162 141 100 101 81 48 78 110 130 130 137 146 146 134 122 107 71 65 62 64 97 105 131 143 158 174 175 177 172 172 174 178 180 186 184 189 183 182 174 168 167 148 139 133 131 127 121 100 104 107 88 88 95 93 101 97 95 99 97 99 97 101 76 74 73 79 74 79 65 84 104 100 127 133 136 148 163 171 173 178 180 177 177 182 181 177 158 158 175 171 174 175 168 155 127 91 63 45 40 59 105 106 112 118 120 111 91 91 104 104 89 89 108 126 145 149 155 168 180 181 176 173 171 178 178 182 183 187 181 178 169 162 152 148 133 134 129 122 117 99 107 104 83 91 92 96 97 94 96 97 97 96 99 97 73 70 75 75 73 81 65 82 104 101 115 133 139 143 151 165 172 170 180 172 172 179 179 173 171 170 173 172 174 171 181 168 158 121 86 64 57 50 56 73 91 89 92 84 92 112 123 117 114 132 143 136 144 153 157 167 176 180 176 172 169 176 177 175 179 178 179 166 165 160 148 142 130 134 127 126 105 103 107 96 83 88 93 96 94 94 96 95 101 96 96 98 78 73 72 78 74 75 68 74 104 102 107 123 138 140 150 157 164 169 168 172 171 175 168 173 168 173 169 170 172 175 176 170 166 163 135 104 84 74 63 57 61 67 83 100 120 129 123 126 126 134 142 144 145 151 157 166 172 175 179 176 169 170 174 170 176 180 171 169 159 155 143 142 130 127 128 119 103 105 100 100 77 91 84 97 92 96 91 100 91 95 94 96 74 73 77 73 73 77 73 69 98 105 105 121 129 137 147 150 164 167 167 169 171 172 165 171 167 171 170 172 172 174 172 174 170 168 156 141 125 114 97 93 99 100 117 122 131 134 129 128 127 131 136 151 154 146 153 159 167 168 178 172 169 171 172 167 170 174 163 168 162 150 144 140 131 125 117 118 105 110 103 89 78 91 89 88 94 94 94 92 92 93 95 93 74 72 77 70 74 73 72 69 92 103 107 115 126 125 140 145 160 164 164 167 169 169 167 167 161 161 163 167 163 165 169 174 165 152 156 152 146 140 125 128 132 131 128 128 132 132 125 128 128 129 132 148 146 147 153 155 159 161 173 169 156 163 166 170 165 167 165 165 159 146 136 136 127 120 123 111 114 105 103 82 81 89 87 88 92 93 92 93 91 93 92 93 77 73 73 76 71 74 74 67 81 106 100 107 120 121 129 139 157 162 162 167 166 167 165 168 154 153 161 161 154 159 161 167 156 152 147 149 148 138 144 146 138 134 132 121 130 141 129 132 137 136 137 143 140 140 149 156 152 154 161 161 153 144 151 167 170 161 163 156 154 146 134 132 124 124 119 115 111 105 96 77 84 87 91 91 89 94 87 93 91 91 93 92 73 71 71 73 73 72 77 71 76 99 103 98 115 119 123 133 152 153 156 165 164 165 156 151 151 155 150 158 144 151 157 161 156 144 155 149 136 151 146 152 136 130 138 126 128 140 133 130 136 138 136 141 138 130 142 151 147 146 152 152 152 149 150 154 163 158 156 150 147 142 134 130 122 112 129 110 113 102 92 71 87 80 87 88 86 91 91 87 91 89 91 93 72 74 70 71 77 70 73 72 70 90 106 101 109 118 114 131 142 150 149 163 166 162 155 147 145 150 147 148 151 156 152 153 149 151 148 149 156 164 160 166 154 148 153 138 134 142 144 143 141 149 140 144 145 131 142 137 141 145 146 146 145 149 146 146 163 157 156 146 142 136 128 122 118 115 121 112 109 101 81 79 81 85 82 90 85 89 89 85 89 88 91 89 72 69 75 69 76 71 71 71 71 80 95 103 104 112 113 125 134 145 149 155 170 150 146 142 144 149 149 143 147 151 151 151 153 153 157 151 163 178 181 188 180 169 165 160 152 157 159 153 152 151 142 144 142 134 143 134 131 125 127 136 138 146 143 141 160 158 152 144 134 134 123 116 122 116 116 108 99 103 67 75 83 83 85 83 89 88 86 88 86 86 90 85 69 69 75 65 74 72 71 69 75 67 93 98 99 105 112 116 132 132 150 152 165 153 134 140 139 146 137 133 139 146 152 149 154 156 154 143 146 160 169 181 176 180 175 170 164 159 149 150 146 146 137 140 130 136 137 117 102 79 94 118 128 139 142 140 155 154 145 139 129 130 115 107 114 116 114 99 101 83 73 73 80 81 85 81 86 86 85 84 86 88 88 88 74 71 74 71 71 70 74 73 71 73 72 100 98 112 115 101 126 132 140 148 170 157 143 140 137 143 117 108 104 108 111 108 103 96 97 93 95 99 97 107 119 126 143 129 118 110 100 96 94 92 92 85 89 82 76 69 86 112 108 108 115 131 133 146 149 153 141 126 129 121 107 116 107 115 109 103 94 73 72 73 78 82 75 86 84 84 87 86 83 82 86 93 67 72 71 66 76 66 79 70 72 65 74 83 99 104 109 106 105 118 137 143 160 164 144 139 134 121 100 93 70 61 56 72 72 68 70 77 71 79 78 75 80 88 88 89 84 84 89 84 84 76 78 79 89 94 92 113 138 143 142 133 123 128 142 151 145 143 136 120 112 114 114 114 105 110 101 97 79 60 74 71 77 78 78 85 80 84 80 83 81 80 86 82 72 70 69 72 70 69 70 74 67 72 66 76 87 97 105 109 102 101 124 144 151 157 149 141 138 131 132 134 133 124 95 115 119 117 114 106 102 104 100 98 100 99 95 101 102 110 106 108 103 108 112 117 110 116 116 124 146 148 141 138 134 129 148 148 143 129 126 120 110 106 120 114 112 105 96 96 61 64 69 78 73 75 82 78 83 80 82 82 81 84 78 80 68 70 70 68 71 70 72 74 67 71 69 70 84 85 106 111 108 100 106 131 145 148 148 143 140 145 150 151 140 139 123 113 127 133 147 146 139 140 145 141 146 145 142 139 137 138 133 129 129 130 118 114 115 117 125 134 148 150 143 146 136 134 141 135 133 121 119 111 109 108 116 110 105 101 97 77 51 69 70 75 76 74 81 80 78 82 79 79 80 79 81 79 67 72 67 71 69 72 71 69 70 70 73 71 79 83 82 105 104 100 97 113 122 135 140 138 140 153 154 149 145 132 128 110 119 125 123 145 165 159 160 163 163 165 164 167 160 154 154 142 134 119 119 119 112 118 135 143 147 149 140 145 139 137 129 121 119 116 110 109 112 110 113 104 104 93 77 52 60 68 73 75 72 74 78 78 80 80 80 80 81 83 80 76 72 68 72 71 69 71 71 70 77 80 84 94 94 85 83 86 97 101 97 99 112 127 132 134 135 138 142 147 145 134 125 107 109 118 111 119 147 150 152 158 156 162 159 154 155 150 143 133 118 120 115 122 114 128 138 137 145 138 144 135 138 139 131 129 119 114 108 107 116 110 111 102 95 86 52 50 62 66 75 69 75 76 75 77 75 74 79 78 78 73 79 76 67 72 70 66 72 88 85 85 86 82 74 47 70 117 76 80 89 93 99 101 104 118 127 129 133 131 129 134 137 131 128 112 101 106 106 106 122 127 128 132 137 154 150 146 139 145 136 129 108 117 119 117 124 129 135 135 136 133 136 133 135 139 124 125 120 115 106 107 115 109 98 97 86 65 47 51 69 66 76 68 71 80 73 78 77 76 77 79 73 74 78 77 65 73 71 64 103 116 70 41 37 30 20 19 78 133 99 72 88 94 99 100 105 110 118 121 123 132 127 127 131 121 131 132 109 94 90 96 108 110 117 113 112 122 125 124 115 125 121 120 111 114 118 124 126 134 136 133 135 136 140 139 138 133 130 122 115 111 111 105 106 97 96 78 79 51 53 61 65 69 73 71 72 76 74 75 77 77 75 77 75 76 75 74 78 88 106 100 125 108 28 16 23 26 82 108 110 121 124 87 71 78 93 92 99 110 108 121 119 123 135 126 124 126 126 133 131 115 103 87 92 98 102 93 95 85 92 97 97 101 100 100 103 113 126 129 136 132 128 135 137 139 143 138 142 129 131 122 116 112 112 108 99 93 69 75 74 54 61 62 68 69 75 69 72 73 73 75 74 74 76 73 73 77 75 73 109 121 116 109 130 119 12 11 65 110 122 125 107 121 123 111 74 67 91 92 95 101 113 118 125 131 131 130 122 126 128 128 130 133 127 111 98 96 98 104 98 97 93 99 98 107 107 109 124 130 130 135 138 134 134 138 142 147 143 139 137 132 125 118 115 117 109 102 92 73 71 78 78 58 64 65 69 71 70 71 72 75 73 74 72 71 73 73 74 71 77 75 125 130 112 110 131 136 29 53 124 127 127 127 106 118 127 113 87 67 77 90 95 95 112 118 120 133 140 135 134 134 133 133 133 136 134 128 121 113 105 107 110 103 107 113 118 123 122 127 133 137 137 136 143 136 140 143 145 146 142 142 129 128 116 116 114 114 103 87 75 63 75 87 77 60 69 67 70 73 72 70 74 76 71 75 74 75 73 73 72 77 73 71 134 127 109 109 124 146 47 92 141 128 134 129 106 117 128 124 100 74 72 70 88 101 97 115 120 130 137 146 137 142 139 142 140 142 142 137 135 126 123 120 123 121 123 131 137 140 145 139 147 149 146 145 151 146 145 151 145 140 143 136 123 118 113 111 111 106 91 70 65 68 87 96 70 50 81 68 67 72 73 71 70 72 74 77 72 73 74 73 70 76 72 70 139 126 106 116 119 146 78 111 139 136 139 131 105 117 127 123 110 88 82 61 76 86 94 101 111 125 131 144 147 144 151 151 154 155 153 156 155 154 159 160 159 157 162 162 164 158 161 158 160 156 158 156 159 153 151 150 146 142 134 124 112 108 112 109 105 89 68 63 68 81 98 105 50 18 61 93 64 72 69 75 69 74 73 68 74 71 72 76 71 71 70 74 137 136 107 104 120 132 112 101 145 142 141 124 108 118 127 120 115 104 84 78 59 74 86 94 99 115 127 134 153 146 153 157 161 169 175 172 177 174 173 178 181 171 178 177 184 173 174 167 171 169 162 165 160 150 150 144 145 132 125 112 108 108 104 104 82 66 64 70 84 91 103 101 34 21 34 104 72 67 75 68 74 68 77 73 72 73 70 73 73 71 74 71 141 134 117 101 117 122 127 109 140 145 145 123 109 122 125 128 121 112 98 87 64 61 73 82 91 98 110 127 147 146 150 154 158 168 176 177 177 173 169 175 176 176 180 178 185 181 179 174 177 174 166 160 154 142 142 138 133 130 116 102 107 102 100 76 65 60 80 86 97 94 106 96 20 12 29 104 76 72 67 74 73 71 75 69 74 69 75 71 72 70 73 69 138 136 125 104 107 115 133 116 142 154 148 125 112 126 118 133 127 119 107 96 75 64 63 66 81 77 96 110 135 140 150 154 156 160 171 174 174 176 171 178 169 173 173 177 180 179 172 171 177 171 162 157 150 136 138 131 120 113 105 97 98 93 68 62 70 77 88 103 103 104 98 90 67 27 28 98 80 76 78 74 71 73 69 72 73 71 74 75 68 74 72 70 134 134 140 116 102 109 124 123 133 155 160 126 108 128 120 128 131 121 108 106 84 68 64 65 70 67 78 99 109 126 128 140 153 146 157 164 167 174 162 159 161 161 164 165 178 172 169 171 161 161 149 144 134 132 134 118 105 99 87 92 75 71 55 68 84 83 101 105 105 107 91 88 96 51 43 102 69 81 87 86 80 66 74 68 72 73 71 70 69 71 74 68 137 133 143 128 105 106 108 123 126 147 162 128 111 126 131 122 134 129 114 113 92 79 71 66 67 64 67 79 87 107 125 132 135 143 138 150 150 160 152 137 139 136 150 141 151 157 155 153 152 148 139 132 128 123 122 106 92 86 80 76 59 65 70 78 90 105 105 110 110 107 85 91 112 62 56 100 76 83 91 80 83 84 78 72 74 68 70 70 75 68 70 71 140 134 140 140 118 103 104 114 127 128 165 136 109 126 134 129 134 132 126 116 105 91 78 72 64 67 63 64 66 84 109 122 125 127 126 132 136 136 136 129 134 128 130 133 139 143 134 138 139 131 123 121 116 118 102 91 83 78 63 59 65 73 83 97 99 112 113 111 112 98 79 96 115 85 44 97 82 80 88 86 78 82 83 77 82 84 72 73 68 70 72 69 131 138 135 139 136 112 101 105 123 129 142 144 113 125 131 129 135 130 134 127 106 102 84 79 66 72 65 66 55 62 83 94 111 114 118 121 123 113 114 118 124 121 114 123 131 125 125 123 125 108 111 112 104 107 77 74 71 60 61 63 74 87 95 99 109 117 116 114 103 99 72 94 117 97 52 97 80 87 86 85 83 82 84 79 80 84 80 82 76 69 70 68 132 135 133 137 138 134 104 100 114 120 129 143 117 121 139 133 140 143 133 132 118 107 95 85 74 63 66 70 65 61 58 69 78 86 100 103 106 108 107 102 107 108 107 103 110 108 111 109 98 96 95 106 85 68 60 59 58 62 68 74 86 104 94 106 116 116 115 113 100 92 73 99 120 90 82 87 77 88 84 86 82 86 79 78 88 80 83 85 84 84 70 76 141 135 133 132 132 141 122 98 103 113 126 132 129 123 135 139 138 146 144 137 128 114 106 92 84 76 60 67 71 66 57 62 70 63 74 74 85 86 87 91 92 98 99 91 88 92 90 88 81 82 78 73 55 53 62 60 68 67 83 86 95 104 114 114 117 119 114 107 95 91 76 102 108 86 93 82 79 89 87 88 79 86 78 77 84 81 76 87 89 84 84 84 137 135 136 131 136 136 135 114 100 103 114 126 135 126 131 141 138 144 151 140 133 124 109 102 91 86 69 70 70 69 63 64 68 64 63 62 70 68 70 71 72 71 78 81 69 72 65 66 58 65 53 60 52 60 66 68 72 84 93 100 104 112 119 119 125 117 112 105 92 82 87 106 92 86 92 73 90 89 84 88 85 88 83 84 80 87 79 78 87 89 90 88 138 135 138 132 135 139 136 134 105 98 100 109 128 140 126 134 144 143 147 149 143 135 115 113 94 87 79 69 75 71 68 70 68 67 63 64 61 64 62 65 62 64 61 65 58 67 54 61 57 59 54 59 69 63 74 78 83 96 96 105 115 115 123 123 120 114 110 100 89 81 93 107 72 97 84 74 87 90 83 90 82 84 84 83 82 87 82 84 76 88 86 92 