P2
92
112
255
110 112 113 109 113 110 114 111 111 115 110 113 112 114 111 115 111 114 110 116 117 110 116 111 114 113 113 112 115 112 114 113 115 113 117 113 113 107 115 107 94 88 83 82 82 110 114 115 112 112 114 114 111 113 111 115 115 113 114 111 113 114 109 112 116 115 111 115 113 114 111 114 114 111 113 114 112 112 112 113 114 112 113 113 111 111 113 110 112 112 109 115 108 116 113 110 112 112 113 113 115 113 114 112 111 114 113 114 114 114 113 111 112 114 111 115 114 117 114 114 116 115 111 113 114 110 104 96 83 92 89 78 64 61 64 58 59 62 84 91 97 95 101 99 106 108 114 113 115 112 113 115 113 115 112 114 114 113 112 114 111 113 114 113 114 110 112 113 113 110 114 111 111 111 113 109 109 116 113 108 113 109 114 111 114 110 112 114 111 113 116 115 112 115 110 116 112 115 112 115 114 115 114 115 112 114 112 111 111 110 114 114 109 108 105 103 92 74 65 47 41 70 70 46 52 54 69 84 67 46 49 63 80 92 94 80 83 84 97 108 110 111 115 115 112 114 112 114 113 113 113 112 113 114 112 112 111 113 109 114 113 110 111 113 111 112 114 110 111 114 111 114 112 111 113 110 113 113 111 113 115 110 115 113 114 113 111 113 114 113 110 116 112 115 114 116 111 113 112 113 110 114 108 114 99 98 107 80 56 46 45 36 38 53 55 40 41 56 72 64 57 58 71 57 48 72 71 55 54 55 60 67 83 87 108 109 112 111 114 115 110 113 115 112 109 113 113 111 114 112 113 113 113 111 114 112 111 115 112 109 114 110 109 111 112 113 111 112 113 111 113 110 113 112 114 115 112 111 118 113 113 114 114 114 114 116 112 114 112 114 110 113 110 107 106 112 98 84 71 48 47 43 46 45 37 48 41 38 38 55 57 40 59 62 82 56 42 57 57 53 56 54 49 51 49 39 55 63 80 87 91 110 110 114 112 113 115 114 110 116 113 112 112 111 110 113 113 113 113 108 112 112 111 114 107 112 113 110 115 111 112 114 109 112 114 110 115 111 114 115 110 114 112 114 114 109 111 106 108 107 110 111 108 109 113 109 102 111 86 56 45 37 53 41 43 42 46 47 45 37 38 59 50 36 54 65 69 48 46 52 61 46 55 59 43 50 45 36 39 41 59 52 51 60 80 93 100 107 106 113 115 110 110 111 111 112 110 113 115 110 111 115 112 111 111 115 106 113 111 111 114 107 112 111 112 112 112 108 114 114 113 112 114 113 113 107 109 107 107 107 102 87 93 91 93 90 95 90 69 78 65 47 50 40 50 48 42 36 50 43 52 48 33 50 55 46 42 55 53 46 50 46 56 46 52 53 54 45 43 49 40 59 51 56 57 63 50 53 55 74 86 89 96 110 111 112 112 110 112 109 112 112 111 113 114 110 112 114 112 111 112 113 109 112 112 112 113 113 110 113 110 112 113 113 112 115 105 102 108 104 90 99 91 100 99 83 72 64 64 65 48 54 50 53 52 45 43 50 37 40 52 45 56 49 47 46 51 44 46 50 46 48 44 48 47 51 56 59 57 54 45 49 49 61 54 54 64 51 44 57 45 56 82 93 84 91 110 112 109 112 112 113 112 115 113 115 112 110 113 111 113 112 112 113 110 107 113 112 112 111 113 111 115 116 112 113 113 111 110 99 106 92 79 75 89 83 86 98 70 42 51 57 50 52 48 52 52 45 46 44 46 43 42 37 41 38 36 41 48 41 36 53 43 46 39 47 49 44 49 52 48 51 41 51 51 53 60 56 59 50 36 45 55 60 73 83 91 83 86 100 106 112 112 113 109 113 114 110 110 111 112 110 114 112 110 114 112 112 112 112 114 111 114 114 110 116 109 98 80 81 96 92 90 80 83 85 78 75 79 86 63 43 59 50 49 51 43 47 55 47 52 48 49 46 33 47 38 42 33 32 49 45 36 41 43 46 36 39 40 45 46 36 44 36 39 41 54 43 60 56 46 52 45 41 48 57 51 65 72 76 72 89 92 101 106 112 113 113 113 108 114 109 112 111 112 113 110 113 109 111 112 113 108 112 115 114 112 111 95 62 39 51 59 55 66 68 63 84 93 81 70 81 62 39 58 44 41 44 33 41 40 50 45 29 48 39 37 52 46 43 40 41 51 47 45 44 42 44 42 38 41 53 32 35 39 30 35 45 42 39 59 47 42 48 45 48 47 40 58 79 75 73 88 84 100 100 100 98 105 112 108 108 106 109 107 111 111 109 111 116 109 108 112 111 113 112 111 105 113 93 74 45 37 44 41 50 48 60 60 63 64 81 70 55 67 36 48 47 35 34 37 34 38 44 44 43 46 42 44 46 37 48 41 39 45 42 34 43 42 50 35 39 42 42 29 33 26 44 39 39 41 32 46 44 50 48 40 49 40 37 67 64 53 82 78 79 88 98 88 92 101 106 108 101 100 105 114 112 110 113 109 115 112 110 113 110 114 113 108 107 109 80 63 45 42 39 37 53 59 48 54 53 50 49 48 49 54 42 39 38 37 31 36 24 47 49 36 52 45 37 46 41 33 38 47 41 41 44 29 49 35 52 44 40 39 33 32 32 35 56 41 28 39 29 31 42 52 42 41 47 36 49 52 48 53 68 69 62 70 76 66 69 67 76 89 105 106 103 113 112 115 111 111 114 110 113 115 109 118 109 107 100 94 77 59 48 38 44 41 44 55 52 54 34 37 32 28 41 44 38 43 44 42 40 38 34 50 52 38 50 43 33 39 40 38 29 47 56 44 43 51 42 39 48 47 45 41 31 41 44 45 59 47 40 37 31 38 36 43 41 48 42 38 43 58 29 49 52 60 59 59 58 64 71 82 88 89 99 102 109 112 113 112 111 111 110 114 113 114 114 112 109 101 86 83 75 65 48 47 49 47 36 46 44 38 23 33 27 28 36 37 32 46 37 50 49 38 42 47 40 45 43 46 30 39 48 48 39 39 54 56 41 54 46 46 51 56 51 53 36 65 61 62 58 55 49 44 37 34 29 42 38 40 40 37 36 53 32 36 59 54 52 48 46 51 59 78 93 96 101 105 107 112 114 109 113 110 107 112 113 111 111 109 109 100 76 75 83 66 59 52 47 48 40 45 34 32 23 31 32 26 35 33 33 41 51 43 53 51 42 39 31 45 44 50 40 45 51 56 44 43 54 68 40 45 56 52 52 57 74 61 55 77 73 62 50 56 65 45 48 48 48 40 35 36 37 30 28 44 32 40 57 50 43 50 42 47 46 44 66 84 85 96 102 113 109 114 115 106 113 109 113 111 112 105 113 100 70 76 76 68 58 51 40 43 44 41 34 28 33 28 38 38 30 30 40 53 44 55 55 56 48 38 37 53 44 39 48 48 47 49 49 50 55 45 55 39 56 43 51 52 66 83 78 72 78 62 58 49 54 48 60 57 51 44 36 39 28 32 30 44 31 43 43 29 37 43 38 50 49 59 46 68 95 108 104 106 109 108 109 115 110 108 109 111 111 100 108 100 72 60 70 74 58 48 49 41 41 37 46 48 45 38 39 41 35 37 52 70 56 57 61 51 50 47 46 49 57 60 53 45 55 55 44 44 51 57 43 54 51 50 43 44 47 78 81 77 60 64 47 59 61 62 48 57 50 52 45 52 38 39 39 42 38 37 38 28 25 37 37 44 46 61 55 64 69 76 86 97 99 107 111 112 113 110 110 111 113 94 106 103 88 57 53 70 67 52 53 52 52 59 62 57 53 57 40 39 41 52 60 74 69 85 69 57 47 61 71 58 66 70 64 47 63 52 58 48 44 80 58 62 59 46 46 55 51 65 75 81 64 79 53 62 66 68 54 52 49 57 56 55 53 55 52 51 49 40 48 36 26 35 36 41 53 51 50 52 56 54 58 52 58 95 107 109 115 111 111 109 113 98 91 102 91 70 51 46 53 50 48 66 71 58 51 51 60 53 38 45 58 80 84 84 90 93 90 67 68 54 81 94 81 78 84 68 62 76 59 66 55 91 81 75 72 40 55 66 59 59 69 68 77 83 73 65 76 62 58 51 46 64 68 67 68 69 58 62 57 55 56 42 41 30 33 34 46 59 47 55 40 38 49 49 48 61 90 105 112 114 111 109 97 104 94 80 89 67 51 47 41 38 47 64 73 49 49 44 45 43 52 73 83 94 106 98 99 105 92 85 85 88 80 105 114 75 102 91 78 89 79 73 85 99 105 88 81 53 75 78 71 55 66 74 88 83 80 73 85 65 63 57 55 74 72 70 69 64 79 82 69 63 61 52 39 38 27 41 46 50 50 45 49 41 28 46 62 67 76 106 98 114 110 111 92 79 76 74 76 62 59 42 40 32 52 57 51 48 54 46 47 53 69 86 98 103 115 116 114 102 95 97 86 91 105 111 117 121 89 107 106 102 104 93 103 127 118 99 90 89 107 89 90 67 56 97 92 107 92 72 88 85 67 80 83 75 75 85 84 88 98 103 79 67 80 57 44 41 36 46 48 61 52 47 37 45 29 32 39 56 65 116 111 105 109 113 91 55 60 62 67 49 44 43 54 51 54 58 50 45 58 47 69 71 93 103 118 129 132 138 139 127 106 105 102 94 104 111 126 127 113 90 123 132 131 122 137 134 126 122 108 115 126 129 112 84 68 108 99 123 95 92 90 82 99 94 92 87 85 83 94 106 111 109 95 81 92 77 56 59 41 45 46 51 50 45 45 35 33 36 28 26 36 91 119 110 113 88 67 44 40 53 55 47 48 51 52 60 56 54 44 49 54 65 78 91 103 116 132 144 138 141 145 142 129 103 103 113 112 116 132 145 132 117 116 135 148 148 161 152 140 144 127 133 156 151 133 112 108 115 112 124 115 118 94 99 116 119 99 99 97 105 106 108 116 112 94 94 105 98 78 64 54 42 37 44 51 52 47 35 38 35 30 22 19 47 104 116 109 91 47 41 44 43 49 52 55 55 56 52 49 52 53 62 66 73 93 100 115 127 134 136 141 142 141 142 139 141 137 130 135 132 138 148 146 162 145 138 161 164 168 161 167 159 158 150 158 167 153 140 133 135 140 123 141 140 104 121 134 138 108 117 114 111 114 109 115 106 103 107 116 109 90 80 62 58 36 32 37 47 54 41 39 41 31 31 15 22 68 122 115 91 53 37 29 48 54 53 62 51 43 53 46 47 53 58 79 90 104 121 127 144 146 146 154 159 164 159 147 152 153 154 154 159 152 151 159 161 163 159 171 175 178 179 179 178 175 171 164 167 160 165 160 160 161 150 153 155 137 144 141 142 127 126 124 124 124 122 119 113 123 118 118 120 107 102 79 69 52 37 22 27 36 30 38 47 39 26 27 15 33 109 122 68 43 31 35 49 56 60 61 48 44 43 39 26 58 73 98 114 124 133 144 150 157 159 162 165 170 164 161 165 157 156 162 156 162 172 178 174 171 174 176 177 185 191 186 184 183 178 173 172 166 174 170 164 170 160 163 164 159 159 146 148 146 141 140 144 131 127 133 130 125 126 121 126 111 117 104 82 57 49 34 27 35 31 35 44 41 31 28 19 16 109 117 45 26 30 26 36 45 58 51 43 46 30 31 44 53 86 116 134 143 142 153 158 161 163 161 167 170 173 171 169 167 167 165 173 176 180 185 189 190 189 188 189 196 195 193 191 188 191 182 184 185 179 177 172 170 170 173 165 169 165 156 161 150 154 162 155 140 136 137 138 130 126 126 125 122 118 112 103 81 59 42 42 43 41 45 48 41 26 26 26 9 74 116 35 20 27 27 27 34 55 54 51 47 37 53 57 72 105 129 141 145 152 158 166 165 164 170 171 178 179 179 183 177 180 178 184 184 188 187 192 196 196 198 198 200 199 195 195 192 194 190 187 190 189 186 183 180 182 181 177 181 171 168 170 164 164 166 162 156 147 149 139 140 137 130 129 129 120 120 118 105 78 63 47 42 46 58 52 53 34 20 24 19 26 97 35 19 28 23 26 33 35 50 65 45 50 61 71 97 119 143 143 151 155 161 164 163 167 173 173 180 181 181 182 185 184 183 190 189 190 194 196 200 198 199 199 200 198 196 196 195 194 192 194 191 190 190 188 186 186 185 188 185 180 176 175 171 169 171 170 166 155 158 147 146 142 141 136 133 122 125 124 114 104 77 55 48 49 63 56 45 34 23 20 22 16 57 47 22 22 25 23 25 33 44 48 50 58 71 78 111 135 145 151 153 155 165 166 166 170 172 174 174 182 186 183 186 188 187 190 192 194 197 198 197 197 199 196 200 199 199 196 195 194 195 195 194 192 192 191 189 187 186 191 185 182 184 176 180 174 177 172 164 165 156 159 154 142 142 141 135 126 124 127 119 117 99 45 53 53 58 57 40 30 27 22 25 13 16 60 17 22 22 24 28 26 38 46 60 61 67 92 117 142 149 142 156 158 161 167 173 170 173 174 177 185 187 180 183 190 192 191 196 196 199 197 196 199 199 197 197 197 197 197 197 197 195 196 196 196 194 192 191 188 188 186 187 185 184 181 182 180 180 174 160 164 157 156 160 146 145 144 138 129 123 128 127 116 108 75 26 55 56 57 38 29 28 16 21 18 3 67 19 20 20 30 14 34 34 51 62 68 72 95 119 144 145 145 147 154 163 162 172 169 172 178 178 181 183 182 180 191 191 192 195 196 196 197 198 198 197 196 197 196 197 197 195 193 195 196 195 196 194 195 191 189 189 188 187 184 184 187 184 185 183 176 168 162 165 159 155 149 150 143 143 131 127 131 132 120 106 89 49 36 60 56 37 24 19 23 19 19 5 88 28 22 24 25 23 27 31 40 61 64 69 105 129 139 143 140 147 156 165 162 165 165 168 173 179 179 182 179 184 187 189 195 196 199 197 197 197 196 198 197 195 195 198 195 196 192 195 195 194 194 193 197 193 190 189 192 186 183 187 186 184 181 183 181 170 164 166 159 155 150 150 145 141 135 129 135 138 124 111 91 62 43 47 63 39 25 22 16 23 20 9 94 44 21 25 28 23 24 26 32 51 52 79 105 127 138 136 138 142 154 166 162 160 168 172 176 179 179 181 183 184 188 192 193 198 197 197 198 194 197 197 197 196 198 197 194 197 194 197 197 195 197 195 198 193 191 189 189 189 187 186 184 185 183 183 181 170 167 162 157 153 150 152 145 144 136 130 136 141 127 108 97 69 41 55 56 50 23 23 20 20 18 9 95 52 19 23 26 21 25 26 30 49 56 88 108 127 135 137 138 145 149 162 163 163 167 174 176 176 178 182 183 181 189 192 192 194 196 196 197 195 199 197 196 196 197 196 196 197 195 197 196 198 195 197 196 195 192 189 189 190 189 190 182 183 180 180 175 170 167 163 157 152 148 153 146 140 137 135 133 140 128 106 93 76 48 50 59 46 30 22 21 22 17 14 94 56 19 26 26 17 26 22 36 44 65 93 115 122 135 133 140 145 152 162 163 160 160 172 173 174 178 177 178 181 186 191 194 195 198 196 198 195 199 198 197 199 195 197 195 198 196 195 197 196 196 195 195 195 191 187 192 192 187 190 183 181 183 181 176 173 168 167 157 149 148 150 150 143 137 133 131 137 129 108 100 73 63 47 49 38 41 23 21 17 22 19 95 58 20 32 24 23 19 25 29 36 70 95 100 125 132 127 141 140 150 157 159 159 160 170 168 171 179 171 180 178 187 189 195 198 195 199 199 196 197 199 196 195 197 198 198 198 198 195 196 197 195 198 195 193 192 188 192 192 190 190 186 180 177 181 177 169 165 165 165 150 148 152 152 146 137 133 125 134 129 109 96 71 60 50 49 29 37 28 25 22 19 16 90 76 17 27 29 22 23 21 31 38 72 87 100 125 130 128 137 141 146 153 161 158 157 169 169 170 176 178 180 177 178 184 191 196 194 195 196 198 197 197 196 195 199 199 199 195 195 198 194 195 195 197 196 195 191 189 193 189 189 189 185 181 181 182 171 168 163 161 163 154 153 153 155 142 141 131 122 127 122 111 93 73 51 49 40 41 24 27 27 22 23 18 85 88 31 21 30 26 17 24 22 43 60 83 99 124 130 129 136 136 148 153 162 159 159 161 166 168 172 177 175 178 178 179 188 192 192 194 197 196 195 197 197 194 198 199 198 195 199 195 194 195 193 194 195 194 189 190 192 190 189 190 185 182 178 178 172 167 163 165 158 158 157 152 155 145 137 128 126 124 122 98 94 68 43 49 34 29 25 26 22 25 22 14 85 86 43 22 32 26 18 21 22 39 53 74 105 120 125 132 131 138 151 155 160 155 158 160 163 166 170 172 174 178 178 183 184 190 191 195 194 195 194 196 195 197 198 198 195 196 198 196 194 193 195 197 194 193 191 190 191 192 190 185 183 182 173 176 170 169 164 166 156 161 155 155 155 150 141 123 124 127 120 100 78 60 44 28 38 23 25 28 19 26 21 19 84 90 46 33 29 35 23 19 19 34 47 78 96 116 121 132 138 136 148 158 157 160 158 158 159 165 166 170 169 173 174 178 182 186 188 187 194 192 194 195 196 196 198 196 193 196 197 193 195 194 196 195 194 191 192 187 190 191 185 181 179 180 169 171 169 167 163 162 159 159 154 154 152 149 138 125 128 123 117 107 83 39 41 22 28 22 27 20 29 22 24 17 86 91 56 24 23 36 30 23 19 25 47 70 104 114 125 133 133 137 150 154 162 162 160 162 161 161 172 168 165 165 165 173 177 182 183 182 188 192 192 196 194 193 196 199 195 196 197 195 194 194 195 193 190 190 192 189 188 189 185 184 177 175 172 171 165 165 160 162 162 159 159 157 157 147 138 129 128 121 115 103 85 34 30 23 25 18 26 19 27 26 21 20 89 86 58 23 24 23 28 20 23 22 35 80 105 111 126 128 143 137 147 155 159 162 162 160 161 163 166 168 165 164 167 165 175 177 181 182 190 193 194 194 194 192 196 197 194 194 196 198 196 195 196 192 190 190 192 192 185 183 182 183 179 178 175 168 168 166 164 164 162 160 158 155 158 147 142 135 126 120 117 107 84 36 25 25 17 23 24 24 22 24 27 14 85 89 58 21 28 30 26 21 24 18 35 79 104 111 122 135 137 142 147 155 158 159 163 162 160 164 164 168 170 168 168 172 177 182 180 185 188 191 193 194 193 192 193 197 194 193 192 198 194 194 191 192 192 188 190 191 189 183 185 184 178 177 177 175 166 168 166 164 160 161 160 159 158 149 142 137 127 115 114 110 86 38 22 15 28 20 21 24 26 24 25 13 81 88 59 28 27 27 34 20 22 21 32 68 98 116 127 133 137 142 144 156 161 160 166 168 162 167 169 173 168 178 175 178 182 181 184 186 192 192 194 196 194 193 192 195 192 195 195 196 195 194 188 189 192 192 191 190 191 186 186 183 182 184 179 173 169 167 167 165 161 161 165 162 157 150 143 135 127 118 114 105 96 41 17 23 21 21 27 21 24 26 22 22 84 84 61 37 23 27 23 24 25 24 31 64 100 122 127 131 135 148 150 160 161 164 168 170 169 169 175 173 171 179 181 179 182 186 186 190 194 193 195 198 195 194 194 194 193 197 197 194 194 195 189 189 191 193 190 190 190 189 185 185 182 183 178 172 173 167 167 169 164 160 169 161 157 152 144 133 121 117 119 103 93 54 18 21 22 19 27 21 23 22 22 56 79 83 69 32 29 24 23 19 28 20 34 73 108 123 129 129 136 148 157 157 162 165 169 173 168 175 180 180 179 182 182 182 183 185 188 192 193 195 194 196 198 193 194 196 192 198 195 195 195 198 194 193 194 195 190 192 191 186 186 187 183 185 178 176 176 168 172 169 169 164 170 161 164 152 141 131 126 119 116 106 93 63 20 23 22 20 27 21 20 23 33 93 79 83 79 59 25 30 29 19 24 17 34 84 110 130 132 134 143 153 160 162 166 172 176 180 179 179 184 181 184 182 181 188 186 189 187 190 196 197 196 196 198 195 196 198 198 196 200 197 195 198 196 196 194 196 192 192 190 189 186 184 185 183 178 179 177 176 177 175 173 170 169 166 162 150 141 133 117 116 115 109 101 76 31 19 24 20 25 24 18 34 72 107 80 84 72 83 63 27 36 36 21 15 32 91 117 127 128 138 140 154 163 166 166 171 178 180 182 183 189 186 186 186 186 191 188 194 190 187 193 193 196 197 198 196 198 200 197 195 197 198 196 198 196 195 195 195 195 189 191 189 185 189 184 181 181 183 181 178 181 176 171 175 174 166 163 150 138 136 127 113 121 103 112 82 38 15 24 18 21 27 17 42 87 103 80 83 65 89 74 50 26 38 24 15 32 104 120 127 128 140 141 155 160 173 170 169 179 179 182 181 189 188 187 185 190 190 190 192 193 188 190 194 193 195 195 195 196 200 196 195 196 200 197 197 194 194 193 195 193 188 191 190 187 187 188 185 182 184 178 178 180 177 168 173 172 170 159 151 141 135 125 115 114 109 111 97 36 18 26 20 18 34 23 36 91 106 77 75 70 109 67 65 44 24 24 11 44 106 122 128 132 136 139 156 166 172 176 178 178 176 178 181 184 184 183 187 188 187 189 191 191 182 184 193 194 193 191 196 195 196 195 195 197 196 198 194 194 193 193 192 190 189 189 192 188 189 190 186 182 183 181 175 176 176 165 171 169 166 159 149 148 141 125 111 115 110 113 104 39 15 26 25 12 52 50 62 104 111 76 79 68 129 91 78 51 29 20 12 48 120 123 124 138 134 146 162 164 164 168 162 147 144 160 163 166 164 178 180 174 181 188 185 187 185 190 189 192 191 188 192 193 196 195 195 195 192 191 193 190 189 189 189 186 185 191 192 188 189 185 179 181 172 168 166 161 152 136 131 123 129 135 146 151 150 131 113 112 112 117 108 43 17 23 25 19 51 88 85 111 97 84 73 70 140 114 108 78 27 26 5 76 127 122 126 128 137 145 146 134 113 104 100 104 108 113 119 116 119 139 155 151 159 173 178 179 181 185 184 183 187 181 188 190 189 191 191 192 189 187 190 187 181 182 177 175 178 187 186 179 175 162 148 148 146 134 123 110 105 98 85 77 68 78 76 96 120 134 118 105 111 112 117 54 16 23 29 30 93 104 114 116 105 80 80 63 119 132 118 110 51 32 7 74 129 122 129 130 118 105 91 91 63 58 62 70 77 85 78 82 77 79 85 91 102 121 147 154 164 171 170 170 172 176 179 183 182 185 185 186 183 183 180 176 172 169 165 147 151 160 155 129 104 94 88 88 94 83 72 71 75 67 66 69 59 59 54 62 67 84 111 111 104 115 120 71 10 18 43 82 112 105 139 107 99 78 84 61 104 130 122 118 88 28 18 101 124 127 127 110 67 57 72 71 70 75 85 86 71 59 68 67 61 58 64 68 53 58 80 91 98 125 143 147 155 168 172 171 174 174 178 180 175 173 166 161 154 146 139 120 120 135 114 83 59 63 61 67 58 52 51 63 68 75 88 94 94 89 85 78 66 57 71 92 107 113 124 92 12 19 92 115 116 108 142 98 105 80 77 73 69 133 128 116 84 22 35 115 129 128 112 101 74 72 83 101 110 110 109 112 97 86 78 76 63 52 48 53 49 44 49 48 52 80 96 113 127 143 152 156 164 165 165 167 168 168 159 151 142 124 114 109 105 111 83 64 41 52 47 51 50 60 69 87 98 106 110 108 113 110 113 114 102 93 70 80 109 114 119 104 17 33 98 111 117 111 126 98 99 75 80 74 60 118 133 113 82 14 57 125 134 126 113 104 84 94 100 105 105 102 96 88 81 82 86 91 88 74 68 64 49 41 46 51 57 66 79 93 104 121 130 141 152 164 160 166 171 167 150 144 125 107 101 104 97 89 78 55 45 52 54 67 77 83 91 87 81 90 84 83 87 100 111 117 115 113 95 96 106 112 120 113 63 63 92 117 125 115 107 100 111 75 82 76 58 114 133 122 92 19 79 134 135 125 122 98 90 100 95 99 94 76 66 77 78 73 70 64 57 45 50 55 58 69 60 45 46 63 77 85 91 108 123 134 148 160 158 164 164 163 149 137 118 109 100 98 87 81 61 57 62 73 58 49 48 42 57 43 69 66 73 91 70 63 90 106 112 112 115 111 107 112 120 111 99 114 105 116 134 116 94 107 107 80 78 82 55 115 140 130 97 60 104 131 138 132 132 119 109 104 96 98 75 58 53 55 50 65 89 63 48 15 104 106 33 36 64 82 80 59 63 79 82 88 116 130 156 161 167 167 176 174 157 145 124 113 92 90 84 71 83 77 72 55 48 11 95 84 41 39 83 88 52 49 59 61 62 85 104 120 122 124 116 110 120 109 103 139 119 125 147 117 97 106 105 80 74 81 59 127 141 140 105 96 120 129 138 140 142 140 130 119 108 98 81 59 52 52 72 111 130 75 59 40 41 81 54 54 109 90 75 96 96 79 83 76 98 128 159 170 177 180 185 183 164 148 126 99 94 89 101 100 83 93 132 86 57 45 45 46 57 47 116 126 96 68 55 61 80 100 111 119 134 131 125 117 119 113 96 146 114 127 138 120 96 105 108 79 76 79 56 139 132 150 117 102 122 129 135 145 155 154 159 147 134 121 113 97 75 106 114 125 141 102 78 61 56 57 70 95 151 140 120 91 116 110 89 87 85 121 158 174 186 192 192 191 175 149 119 102 107 120 131 89 143 141 147 124 81 60 50 56 55 84 138 135 107 106 85 83 112 120 123 127 140 141 130 124 121 115 94 139 113 127 137 117 100 106 108 75 78 75 66 135 133 156 139 105 119 132 134 149 165 170 167 163 154 155 148 134 100 111 127 133 142 140 107 83 85 83 93 128 138 126 112 101 114 136 113 98 93 118 158 177 191 195 198 194 180 150 115 114 134 137 128 110 122 111 121 129 108 88 82 85 93 126 139 130 120 105 98 110 125 135 136 136 145 147 136 127 119 116 97 122 119 137 116 127 100 107 104 77 75 79 49 138 127 130 161 118 115 124 134 149 166 170 168 168 166 160 156 145 127 118 116 117 127 142 152 151 157 159 148 136 132 126 130 132 130 131 131 115 117 130 157 180 191 200 199 196 183 159 127 118 136 135 134 135 130 121 117 129 130 131 140 140 124 124 127 117 115 107 117 125 132 137 141 146 144 146 137 129 117 117 96 111 139 124 119 127 99 106 104 76 79 77 60 115 146 139 172 115 112 122 128 153 164 167 169 171 171 166 163 151 137 131 133 128 126 117 116 117 122 121 123 122 119 120 122 124 126 127 131 138 136 136 159 178 192 198 200 196 188 170 139 129 129 130 124 113 110 105 106 110 115 109 114 117 112 112 119 115 120 120 122 132 140 144 149 150 145 145 135 127 121 114 93 102 146 141 118 124 97 105 107 80 78 81 47 113 151 153 172 115 114 118 133 153 163 168 169 175 173 171 165 164 142 123 116 124 125 134 127 122 119 117 112 106 105 101 106 120 125 132 142 150 146 145 161 173 190 196 199 196 191 176 140 144 139 126 124 126 122 112 108 102 105 104 107 114 118 121 123 118 112 120 129 138 144 150 152 152 151 147 134 131 118 110 90 124 150 141 133 115 103 109 106 77 79 82 49 120 167 145 157 116 115 117 134 153 161 168 172 177 179 178 174 170 161 146 126 109 105 113 109 106 106 106 103 102 109 116 137 150 149 152 156 156 154 150 162 179 195 197 200 196 190 168 144 151 149 148 133 142 139 130 128 118 110 108 107 105 111 114 122 118 124 129 142 143 154 155 155 155 151 143 136 128 123 103 88 138 152 137 131 124 100 107 105 79 77 80 43 135 159 147 144 114 115 114 131 147 162 165 171 179 182 183 180 179 170 166 158 149 134 123 120 121 114 117 123 125 137 149 164 163 163 165 157 156 160 155 157 177 194 192 199 197 184 165 147 154 149 152 151 153 155 151 147 139 130 130 131 126 126 130 132 134 139 143 157 160 166 161 164 155 156 151 137 136 123 104 84 136 138 134 128 121 99 109 103 76 77 78 55 113 143 139 138 110 118 109 130 146 157 168 170 177 179 180 186 189 180 178 171 156 157 161 150 152 150 148 151 157 160 167 167 172 164 162 156 158 159 159 157 171 193 194 198 193 184 163 150 156 151 151 151 159 169 169 169 164 158 151 146 143 138 147 145 147 154 159 168 170 169 169 162 159 152 151 139 133 122 104 84 134 136 127 123 116 101 106 104 75 76 80 67 87 126 133 134 109 119 113 127 143 163 164 171 171 176 177 178 185 188 177 180 171 172 175 173 175 176 180 179 180 183 179 181 169 166 156 159 163 160 157 158 172 188 193 195 194 179 166 150 157 153 145 147 156 162 175 176 177 176 177 174 173 164 165 165 161 166 170 169 169 176 172 165 162 151 153 140 137 124 102 87 132 132 121 108 108 100 107 109 79 79 77 80 63 100 128 129 107 120 113 119 143 161 164 169 169 181 179 178 184 189 185 185 182 182 185 183 183 186 188 185 185 182 179 176 173 166 160 157 163 160 158 155 169 184 192 197 190 181 166 153 154 156 148 148 155 164 176 177 179 182 180 183 182 180 183 180 180 182 179 172 175 174 170 167 162 155 157 144 137 121 101 88 118 122 106 102 104 107 106 107 78 78 77 79 68 69 103 118 106 112 116 118 140 156 161 169 172 180 182 187 190 191 190 192 190 189 188 188 189 191 188 187 185 180 175 173 171 165 161 160 160 162 158 156 172 188 191 194 188 173 166 154 157 155 150 151 155 159 167 173 175 181 177 181 186 188 189 188 189 181 185 186 184 183 178 171 161 158 159 145 136 121 98 89 108 103 99 99 106 107 102 107 77 76 76 77 78 72 73 88 107 113 111 119 132 151 156 163 168 176 182 187 190 190 190 192 192 191 192 191 192 189 188 183 184 179 176 171 170 166 159 157 159 160 158 170 180 188 193 196 189 188 172 160 157 157 144 155 156 162 166 171 173 175 177 184 185 188 190 193 187 187 189 189 187 187 186 175 165 165 157 147 139 117 100 93 92 104 99 104 103 106 101 104 71 80 71 81 75 79 69 69 103 112 112 117 134 145 154 161 170 172 183 186 188 190 190 192 191 192 194 192 191 187 187 187 184 182 177 168 171 163 154 149 148 156 168 177 184 195 197 197 193 189 178 165 154 150 141 139 152 162 168 168 173 175 175 184 182 188 191 193 193 190 188 189 185 184 184 174 166 159 150 140 128 117 98 95 95 98 104 100 102 102 103 101 70 82 69 75 76 78 76 66 99 116 107 121 137 142 150 157 171 178 176 186 192 191 188 192 191 194 193 191 188 183 187 187 180 178 179 167 167 152 141 140 149 159 173 186 191 198 197 197 195 193 183 166 152 139 133 127 135 146 164 173 175 175 178 185 182 185 188 190 192 192 186 186 184 183 177 173 164 150 144 137 130 103 102 89 96 100 103 102 99 102 101 101 78 76 76 75 73 82 71 62 105 109 111 120 135 140 143 154 166 172 180 185 190 187 188 189 190 195 190 192 186 176 182 186 184 178 175 168 153 139 140 139 150 164 176 181 187 195 192 197 195 189 184 164 147 132 129 135 145 129 137 155 173 176 179 183 183 185 185 186 191 188 185 186 178 173 176 168 159 145 139 134 119 106 95 96 93 96 100 102 97 104 99 97 75 78 76 76 80 73 80 65 89 116 105 116 133 139 140 148 163 168 174 181 189 189 187 185 187 190 190 189 188 183 184 185 181 178 170 155 139 145 146 142 153 164 166 175 184 193 193 194 193 187 179 164 145 130 140 152 153 139 121 134 161 165 176 175 181 184 184 185 189 185 183 182 178 174 169 163 153 142 135 127 117 96 97 94 91 98 97 102 94 98 102 96 76 71 77 76 74 73 77 63 88 112 101 107 135 139 132 142 157 165 169 177 185 185 184 184 185 187 185 188 186 184 182 182 175 174 157 139 137 151 147 145 153 161 161 170 181 193 194 195 195 189 177 160 142 136 145 150 149 140 116 133 151 154 166 171 179 180 183 182 181 181 181 178 179 174 164 153 145 135 126 126 112 97 91 93 94 96 100 95 95 100 97 101 74 73 78 75 71 76 78 69 82 114 100 101 122 134 125 136 156 161 167 173 179 182 184 185 187 186 182 182 182 179 174 173 170 166 158 132 131 147 145 143 149 157 157 169 182 187 192 196 196 187 175 160 143 141 139 145 143 130 116 138 153 156 154 166 170 170 180 178 177 178 173 176 173 167 165 149 136 127 125 119 103 97 91 89 93 95 95 95 94 96 91 97 72 75 75 75 74 76 71 76 70 103 109 101 108 134 132 136 149 162 166 175 175 174 180 180 186 185 183 185 179 173 169 166 164 167 160 142 121 132 139 138 135 149 153 168 179 184 186 191 188 187 172 157 139 124 128 134 132 119 128 144 157 157 155 155 161 166 168 175 175 175 177 173 167 158 160 138 130 124 122 112 99 96 86 86 97 90 96 95 94 97 91 95 73 74 75 73 75 71 77 74 67 95 112 103 101 125 130 137 144 152 164 169 173 175 180 176 177 177 177 180 156 156 160 163 165 169 166 157 121 110 121 118 113 122 129 155 164 171 172 177 178 171 162 142 120 109 107 114 112 114 139 149 163 164 166 160 157 158 161 167 171 171 177 167 160 153 142 133 127 119 119 110 92 96 83 86 92 92 94 96 90 95 91 92 73 74 75 73 74 72 73 77 67 88 107 109 101 113 121 139 143 146 153 167 171 171 176 168 171 175 173 172 159 150 163 166 166 170 167 163 137 108 93 87 65 86 108 130 140 148 154 157 157 151 139 119 91 66 67 82 105 131 142 148 158 167 166 164 152 157 157 161 161 161 165 161 151 150 137 133 123 117 114 104 95 93 82 86 88 93 89 93 89 97 88 92 72 73 69 75 77 72 72 74 72 76 104 110 103 111 123 129 136 148 148 156 163 162 168 166 169 166 170 161 160 159 167 168 166 174 169 171 154 130 90 59 41 46 75 103 114 123 127 134 134 124 115 84 76 73 95 113 125 133 147 151 156 164 167 169 157 153 153 156 156 162 161 155 148 145 134 130 120 114 107 103 99 91 80 84 91 86 89 92 89 90 91 87 73 70 72 72 72 73 75 76 67 74 95 109 102 107 121 121 133 136 145 155 159 162 163 166 166 163 161 162 159 164 164 168 170 175 172 174 164 156 134 100 71 55 55 63 82 93 97 105 102 94 81 96 105 114 123 130 135 139 144 148 153 157 164 169 161 157 153 152 154 152 153 149 152 141 133 125 116 112 108 101 97 84 80 88 86 89 85 87 93 89 88 87 72 69 76 70 73 71 76 71 73 66 87 100 104 101 105 116 118 129 136 151 155 161 160 164 161 164 155 159 157 161 166 169 169 171 172 171 171 167 165 137 114 82 67 54 61 58 69 66 68 81 102 122 118 117 121 129 142 140 142 143 143 148 154 160 153 150 145 153 150 151 147 149 143 137 128 119 116 107 107 105 89 79 79 83 90 86 86 86 89 81 90 86 74 62 78 71 69 76 73 70 77 69 68 96 104 102 105 110 118 122 132 144 152 157 154 159 161 162 153 155 155 149 157 159 157 157 165 167 169 162 152 150 135 115 95 71 74 64 67 74 84 110 118 119 115 113 118 127 133 138 139 143 141 139 144 150 145 136 133 141 151 150 147 141 140 134 123 118 107 106 106 98 90 68 82 81 88 84 86 88 86 89 84 87 73 69 74 72 69 71 76 68 73 65 74 77 93 100 106 108 111 117 123 141 148 150 153 159 157 155 148 146 152 152 153 157 150 151 156 161 160 155 150 147 144 136 117 114 111 108 108 106 111 117 121 118 120 124 126 125 132 129 129 136 136 134 135 140 142 136 134 131 143 144 139 140 129 131 125 106 106 105 100 89 72 78 79 81 85 83 86 84 84 84 89 80 74 69 68 76 70 68 72 72 68 72 67 77 82 96 101 101 108 111 121 129 140 147 148 162 157 151 141 146 140 145 144 145 146 146 151 152 155 150 146 145 143 135 133 133 129 125 121 121 117 119 125 126 121 124 127 131 133 128 125 128 129 129 133 129 133 132 132 127 141 144 143 135 127 122 114 102 102 107 101 76 72 74 81 76 83 83 85 82 83 85 82 84 70 71 69 71 70 72 74 70 74 71 71 72 83 87 97 105 108 111 111 124 131 143 144 154 157 137 134 139 137 143 141 138 143 148 146 147 146 142 146 145 142 144 147 144 143 135 129 136 130 126 133 130 131 132 133 135 135 130 127 127 121 117 108 110 122 124 130 123 136 144 138 129 126 118 103 96 99 101 89 72 72 80 77 78 79 82 80 85 82 78 84 82 70 71 72 73 70 67 74 68 71 73 73 75 90 84 90 97 112 106 107 113 131 134 145 153 159 141 130 132 134 134 131 130 130 139 148 144 148 147 151 149 147 157 166 169 172 164 154 148 150 146 148 144 144 144 140 134 133 127 127 120 103 82 78 91 108 116 124 126 138 140 135 124 115 106 96 103 97 93 76 70 75 74 76 80 76 82 78 79 80 82 81 79 72 72 73 69 68 76 72 74 84 86 89 90 106 98 74 88 102 106 108 103 115 130 136 149 157 152 135 133 130 124 109 104 108 116 127 134 137 141 142 142 135 143 156 163 170 169 165 162 158 155 153 144 137 133 127 122 110 102 89 84 94 119 124 117 109 111 117 135 136 135 129 115 107 93 107 101 92 84 72 71 72 78 72 80 77 78 80 82 75 78 78 79 73 72 68 68 77 98 101 82 75 64 54 26 97 118 77 79 91 106 108 101 94 113 136 144 150 151 143 125 119 115 91 86 73 59 61 62 70 70 69 75 70 85 87 91 100 108 119 123 117 108 101 84 78 73 66 69 68 83 86 107 131 136 138 129 124 115 123 138 131 126 115 109 92 97 98 98 83 67 68 73 73 74 75 80 76 77 80 76 74 79 78 73 71 70 79 77 117 129 58 31 23 19 24 49 105 127 90 75 76 90 105 101 98 98 119 135 142 148 136 133 131 128 134 134 135 133 105 100 108 105 91 84 74 79 76 73 72 69 77 75 82 77 83 82 83 88 90 107 104 108 113 113 132 137 136 129 126 120 124 125 123 112 104 95 96 101 93 86 74 65 69 76 69 78 78 74 77 73 77 79 74 78 72 76 98 106 113 107 129 129 28 12 24 62 99 117 113 123 114 78 78 76 92 96 97 89 101 118 125 135 134 132 135 144 146 146 141 141 130 119 123 133 143 141 138 126 122 117 119 109 109 106 107 108 112 114 110 116 117 109 110 109 111 122 136 135 131 130 127 123 119 116 107 103 96 93 102 96 93 68 67 68 73 74 74 72 76 78 72 80 74 75 75 73 75 76 119 130 119 111 126 148 30 21 84 127 124 125 106 126 120 97 74 77 78 87 92 92 90 102 111 123 130 126 129 137 144 144 145 134 128 123 113 121 125 139 154 159 161 154 155 153 153 149 146 140 139 132 126 116 112 107 108 104 116 126 130 128 130 121 125 126 118 117 111 97 91 98 94 89 74 66 66 71 72 75 75 73 75 77 73 77 74 77 72 76 76 71 129 135 108 114 127 149 46 69 136 135 131 126 107 126 126 99 80 71 71 85 87 93 98 94 106 113 121 123 124 125 124 137 137 136 124 112 104 111 114 117 131 152 159 153 159 158 162 158 153 151 142 133 117 106 106 106 107 108 121 124 124 122 122 123 122 124 115 114 103 97 92 89 88 71 71 58 75 67 75 70 73 71 76 74 77 75 72 79 71 76 76 70 140 130 105 119 124 153 74 105 141 136 139 128 104 126 130 110 91 80 68 81 79 83 92 92 100 107 112 115 116 123 121 123 123 126 119 115 100 105 108 104 108 121 129 130 133 136 146 145 139 131 127 124 109 105 99 109 103 115 123 122 120 124 125 131 126 121 118 108 101 93 98 89 73 74 64 14 75 76 73 72 76 72 75 75 73 79 71 75 73 72 75 75 137 136 103 113 118 139 113 108 143 142 147 128 101 123 127 123 99 96 70 71 80 82 89 92 94 102 105 116 113 119 121 121 118 126 114 127 114 94 89 91 99 106 112 111 111 117 125 129 125 113 119 115 111 99 101 104 112 120 119 122 121 126 131 125 127 125 112 99 97 99 93 76 58 85 62 6 60 90 68 73 75 74 74 68 73 76 72 76 74 74 73 74 141 137 111 104 118 126 129 113 148 144 151 129 107 122 127 127 115 100 87 70 67 78 92 87 93 102 111 117 117 123 126 117 116 120 119 120 119 111 100 89 85 86 93 93 87 83 86 89 90 87 90 92 89 97 105 113 119 121 122 123 126 133 131 127 123 113 101 94 102 95 78 63 68 98 41 1 49 103 78 66 73 74 72 73 73 73 73 71 74 75 70 78 141 135 125 106 108 117 135 116 145 158 156 126 111 123 130 134 129 112 98 81 63 67 83 85 92 93 109 112 124 127 133 129 128 124 124 123 122 117 119 104 99 90 86 88 88 89 84 86 88 88 94 96 102 114 119 121 127 126 126 131 133 131 129 125 111 99 98 101 92 78 60 73 84 95 50 8 59 99 77 78 73 74 75 75 68 75 72 71 74 74 74 73 137 135 137 113 102 112 126 127 131 163 166 127 112 120 132 140 134 126 108 88 71 70 74 82 88 89 94 105 118 126 127 141 138 130 134 128 128 125 120 118 114 108 101 98 99 101 94 103 105 111 118 120 121 128 132 129 138 133 138 135 133 130 123 110 101 89 100 99 79 64 69 90 92 93 86 17 74 93 74 83 87 84 72 76 66 76 71 71 76 74 70 74 136 132 141 127 101 109 110 128 121 151 172 129 110 129 125 143 140 133 122 103 82 72 63 78 85 90 92 93 103 122 127 141 147 145 145 144 143 142 135 136 131 122 123 126 126 127 129 132 136 138 142 143 143 145 142 145 145 144 139 133 135 123 116 95 94 92 97 84 63 68 91 97 93 93 107 30 76 89 80 87 89 83 85 83 76 76 72 67 78 75 70 74 143 134 144 137 118 104 104 116 126 129 166 137 107 129 134 140 149 139 130 117 94 77 71 65 79 79 86 86 92 104 120 133 148 144 150 154 156 161 162 162 162 157 150 153 148 148 146 150 153 157 151 152 152 156 150 149 147 136 131 127 130 115 101 92 93 90 83 64 68 89 98 108 84 99 121 49 63 101 82 81 91 85 78 82 85 78 83 79 73 69 76 66 134 136 137 142 134 115 102 108 120 129 145 142 108 126 135 142 147 154 137 129 114 94 76 68 62 74 77 79 80 80 108 124 140 146 146 152 157 159 171 171 175 170 163 160 162 159 160 161 160 162 157 156 155 153 151 142 139 128 127 122 112 105 87 87 91 84 65 67 83 105 108 104 78 103 124 68 69 95 86 85 87 88 81 86 83 84 80 84 86 82 74 70 134 135 137 136 142 131 111 98 114 121 130 139 114 126 124 137 143 154 152 136 123 106 96 77 63 65 75 75 75 77 90 102 126 133 141 147 155 154 162 170 171 172 168 167 167 164 163 164 162 162 161 156 155 152 148 137 133 123 120 118 98 82 81 88 83 66 64 88 102 114 110 101 74 106 121 80 82 84 82 86 87 87 85 86 82 84 85 80 86 87 83 82 144 133 139 136 136 140 125 99 104 112 126 137 121 123 132 132 148 151 157 153 135 116 109 91 70 61 62 71 74 78 71 84 100 114 125 133 144 140 151 159 163 167 163 157 156 155 154 158 161 162 161 152 151 147 138 128 121 113 120 97 82 74 87 82 63 65 86 99 110 114 110 87 77 107 110 85 90 79 84 86 91 86 84 82 84 78 84 83 78 87 88 84 141 140 134 136 135 139 135 117 101 104 114 128 133 120 131 138 140 155 154 157 151 133 117 101 91 71 59 64 67 79 67 60 78 94 119 129 127 134 134 140 149 150 151 137 130 131 134 138 140 142 146 143 137 133 127 119 110 112 95 82 75 80 76 65 68 81 106 113 115 115 101 78 86 107 91 95 82 83 86 91 85 91 85 83 89 79 85 85 82 79 90 89 140 140 136 137 136 133 142 135 115 104 98 111 123 135 130 137 141 146 151 151 160 145 132 118 101 90 67 58 62 68 70 70 59 68 89 102 114 120 119 121 126 123 125 120 119 118 119 116 124 127 125 123 124 118 106 100 105 93 70 71 79 71 60 64 79 104 123 116 118 108 95 76 94 94 75 96 85 81 87 88 87 88 87 88 84 82 87 83 83 90 78 84 140 140 140 137 140 137 139 140 127 114 104 97 110 119 136 127 140 147 150 159 159 153 146 134 110 99 88 73 60 59 65 67 71 56 66 76 85 96 101 107 111 108 105 103 110 111 107 105 113 115 111 109 109 93 91 94 86 57 66 68 67 61 67 88 109 115 124 119 114 104 91 75 97 85 81 95 77 87 89 86 85 91 83 88 91 80 85 89 84 89 87 77 141 142 141 142 139 138 142 138 138 128 112 99 100 113 114 130 135 146 148 158 158 157 149 148 129 111 96 81 71 63 60 58 66 66 64 61 65 72 75 83 90 93 93 94 96 99 97 99 93 95 95 91 81 73 73 70 62 62 69 59 63 75 85 116 120 121 122 116 110 93 85 83 88 87 93 82 83 89 83 90 90 87 82 89 89 85 82 87 90 86 91 83 141 141 139 141 140 137 138 138 140 141 124 111 102 100 107 118 127 130 143 153 157 160 155 153 145 130 107 96 75 72 65 66 62 67 58 66 64 64 57 65 69 68 68 78 76 79 80 80 76 70 70 59 61 58 61 62 70 59 60 63 73 100 111 123 124 124 121 110 107 88 85 85 80 96 84 80 87 89 86 96 91 87 89 92 89 85 84 85 92 86 87 88 137 143 137 143 140 143 137 141 140 142 139 125 110 100 100 110 117 122 134 139 154 159 159 153 154 147 126 107 94 77 70 64 66 65 63 60 64 65 70 66 66 59 63 59 60 56 61 60 59 57 62 56 60 61 62 61 57 63 67 75 105 117 122 121 123 117 117 107 92 79 89 80 92 92 80 83 87 91 90 99 89 92 93 98 86 88 82 91 87 92 87 90 