P2
92
112
255
56 61 54 58 58 60 58 63 58 57 62 77 66 70 69 62 51 68 51 54 72 69 65 54 47 58 54 37 38 50 69 65 58 63 77 71 86 74 62 54 54 51 43 48 44 45 39 32 38 38 43 40 49 41 47 47 38 45 46 56 51 49 52 38 53 50 46 38 53 71 71 68 71 71 53 68 66 68 62 60 55 58 64 61 61 57 55 58 56 54 55 54 53 61 56 62 56 60 61 61 50 53 80 74 70 65 65 66 55 59 55 49 66 63 67 53 48 56 61 57 48 41 59 55 65 55 60 58 71 70 63 58 51 57 40 42 49 48 48 39 34 45 44 56 40 39 47 45 34 37 43 42 41 46 48 43 46 41 46 54 67 73 64 63 74 59 58 66 58 71 64 56 61 70 63 68 59 60 58 59 60 55 54 59 60 59 57 57 60 58 58 57 49 59 79 66 72 62 63 74 55 53 55 39 65 61 73 65 56 54 66 56 53 52 47 54 63 63 55 50 57 53 61 66 57 61 57 46 55 53 55 46 38 48 61 48 29 53 38 47 37 33 39 39 40 45 42 41 35 46 42 47 51 62 60 74 76 66 64 79 66 64 73 77 72 72 79 78 70 73 59 54 57 59 54 60 62 56 57 62 54 66 54 50 47 65 74 64 66 56 72 70 53 54 50 46 59 58 64 67 68 58 59 68 62 55 60 52 56 61 58 59 54 51 47 73 64 67 60 55 48 53 65 57 51 49 51 48 44 50 47 44 50 38 41 43 38 38 42 40 38 48 41 48 44 49 62 69 66 78 63 72 71 69 66 73 64 74 78 74 72 74 71 57 59 56 56 62 58 61 57 59 59 57 50 46 41 74 68 63 63 52 71 73 57 53 58 54 55 59 66 57 67 57 58 57 64 61 59 55 58 55 59 55 58 62 57 70 53 64 51 52 57 57 69 62 60 45 45 46 50 43 49 46 50 44 40 36 38 41 36 49 37 53 43 46 39 55 59 72 71 71 71 79 71 62 69 69 70 77 78 74 79 67 59 64 61 58 57 58 60 58 59 60 58 52 45 51 48 72 70 61 70 56 67 72 62 57 60 52 56 59 64 62 68 60 67 65 59 57 62 64 67 66 61 66 69 66 73 70 61 59 68 58 58 70 77 79 72 58 53 54 49 47 51 46 40 46 39 36 41 36 41 49 54 43 52 43 49 55 55 60 65 68 68 81 81 65 72 68 63 72 83 79 82 77 68 60 58 63 56 59 64 54 61 62 52 42 40 53 60 65 61 58 62 67 64 66 68 55 53 61 57 69 52 70 62 66 63 62 61 52 59 64 76 67 68 71 72 73 70 77 60 53 65 70 68 82 85 71 85 68 70 68 57 43 55 41 40 37 43 40 36 44 40 39 53 51 45 47 53 53 49 56 53 59 51 50 67 63 65 69 60 69 73 76 86 72 69 60 62 61 61 57 59 62 60 51 44 51 34 50 64 55 56 56 54 59 59 72 64 58 57 65 59 60 69 66 70 66 69 60 63 59 61 62 66 72 75 83 87 85 80 80 73 65 69 70 73 86 70 75 81 83 74 71 63 52 48 42 40 43 42 51 47 49 48 41 42 50 58 47 52 41 50 63 49 57 56 54 61 65 59 62 64 74 75 73 78 76 66 58 65 66 52 64 59 51 55 49 46 50 43 35 64 52 58 60 57 64 55 57 74 54 61 65 62 73 73 62 76 68 72 77 78 70 72 63 68 73 78 79 81 91 96 83 71 80 85 80 79 95 87 80 89 97 82 75 72 60 54 40 51 39 48 69 59 65 52 52 52 46 52 56 60 44 53 47 48 52 78 76 76 69 63 66 65 76 71 72 70 75 65 61 74 62 61 63 57 39 42 40 54 47 51 33 62 59 55 66 63 52 61 58 50 68 65 66 65 66 72 65 66 77 83 79 78 80 78 76 86 72 74 80 84 91 85 82 80 86 87 77 87 82 89 89 93 85 80 75 75 77 67 39 59 59 58 69 67 65 65 57 53 58 63 58 66 67 56 65 63 58 85 87 73 84 82 79 79 78 77 78 76 70 62 70 78 68 63 57 41 40 37 39 51 53 47 43 52 61 59 67 66 54 59 55 50 59 59 62 70 65 70 80 72 83 78 79 81 87 93 95 97 86 83 85 84 84 78 84 87 83 84 76 79 86 88 97 94 76 75 76 73 84 73 59 54 67 71 71 76 72 70 76 60 67 71 73 75 64 70 78 80 78 61 63 63 87 83 80 91 86 89 88 86 73 64 79 60 55 60 57 43 39 32 40 49 52 46 41 53 60 63 65 59 64 62 63 50 51 60 55 59 66 76 72 80 88 87 84 92 87 98 105 105 97 99 96 96 99 84 87 85 84 83 88 94 100 97 106 96 86 78 71 77 79 72 76 59 75 76 82 84 78 78 77 79 82 78 75 78 76 59 65 62 70 64 74 77 74 74 88 82 82 88 76 77 69 67 84 60 50 54 55 37 39 39 34 51 48 49 44 48 60 61 63 62 58 67 70 57 53 53 60 57 66 75 78 86 90 88 96 99 102 104 111 117 115 116 114 105 114 100 98 87 97 102 103 100 103 103 100 99 89 90 73 79 78 79 72 72 85 82 86 88 89 91 91 91 96 95 97 99 90 77 70 72 78 69 64 68 74 81 76 79 81 83 81 78 64 70 73 61 51 52 53 47 37 37 40 43 46 48 49 51 57 54 63 61 60 57 69 60 56 54 58 60 65 74 86 92 99 100 103 104 110 115 111 115 119 124 124 118 117 114 109 112 114 122 122 120 127 117 111 101 88 89 84 76 84 82 82 84 95 90 93 112 96 92 92 95 101 109 116 110 103 100 89 86 83 68 65 73 63 85 81 77 79 78 80 69 66 68 61 59 47 59 49 36 37 41 37 35 46 48 53 50 50 48 50 60 69 55 56 57 57 51 58 63 68 84 99 102 109 112 123 109 117 123 124 114 128 130 127 123 131 119 120 130 123 125 131 136 142 128 129 110 98 93 103 85 91 85 85 94 109 105 98 104 104 95 93 109 117 124 126 128 120 118 102 96 76 69 82 80 67 66 74 69 73 78 74 82 79 73 65 58 48 67 42 47 43 43 39 39 44 43 51 44 44 46 50 45 56 62 57 57 63 58 60 77 96 101 114 115 112 119 128 132 144 138 132 140 149 141 136 142 140 118 141 145 131 129 142 147 145 131 130 117 111 106 106 93 96 88 90 96 115 121 122 115 120 113 120 110 140 129 131 135 131 126 121 111 104 81 89 78 79 68 76 67 80 60 63 75 80 80 66 56 48 56 57 46 42 45 39 41 38 45 45 48 50 54 45 48 47 64 61 63 67 65 73 100 108 112 118 123 129 130 141 143 137 145 151 157 149 144 153 151 142 134 154 153 134 149 151 149 140 134 139 119 118 115 117 96 101 101 96 103 116 130 131 123 120 114 125 121 141 155 143 148 149 140 129 131 111 97 80 89 84 74 76 80 58 74 61 66 67 69 71 59 59 58 60 43 43 44 41 38 47 34 43 47 47 54 46 52 57 59 65 74 76 82 103 107 118 123 122 129 130 129 129 143 151 150 152 153 161 155 148 152 156 165 154 153 133 145 150 155 145 146 150 128 131 131 127 119 106 110 103 111 116 135 156 165 149 140 126 148 146 150 157 162 160 156 143 140 124 129 98 101 85 74 81 72 88 68 70 76 85 66 66 68 60 59 56 41 50 36 41 46 42 39 42 43 45 47 49 52 63 63 72 83 91 104 116 124 134 139 143 137 144 145 140 151 149 154 158 151 158 157 159 164 167 176 171 150 157 150 160 157 152 153 147 147 144 146 130 138 114 113 108 108 136 126 154 175 159 141 136 159 163 155 145 142 161 154 149 132 143 130 134 104 101 82 79 83 86 76 69 65 75 69 70 61 69 69 57 38 53 45 32 40 49 41 45 37 51 46 52 55 67 79 86 93 106 112 125 142 154 157 158 164 163 161 157 156 150 146 154 159 161 173 175 179 175 175 176 152 171 156 157 155 162 152 148 154 152 145 148 146 139 118 118 112 127 131 136 134 153 127 153 147 149 159 168 163 163 160 160 151 139 146 136 132 101 95 78 76 80 75 88 71 63 64 68 68 73 74 64 28 43 52 41 41 38 45 44 35 36 46 53 64 73 83 95 99 119 127 142 151 161 160 160 167 171 168 162 167 166 171 176 178 175 186 182 181 180 179 173 157 178 166 159 163 169 156 158 156 159 159 157 162 153 132 124 114 124 127 134 140 146 143 155 146 144 165 182 179 173 170 168 152 147 150 144 149 120 105 87 84 68 68 81 88 70 66 64 72 80 72 67 32 29 42 45 42 40 38 47 40 36 45 54 72 86 97 102 115 131 141 146 153 162 162 164 166 166 171 173 169 176 183 185 185 176 180 179 178 179 182 172 172 182 175 170 162 163 168 169 170 160 175 178 169 167 146 140 135 131 132 139 141 157 160 160 155 161 164 180 182 177 173 166 165 149 154 150 144 139 116 94 88 77 59 68 79 82 66 68 64 77 67 65 32 31 32 45 44 37 39 37 38 41 46 63 79 99 110 113 135 135 139 146 150 162 160 166 170 167 173 173 175 181 181 184 189 181 181 187 181 187 180 182 181 186 183 184 172 172 178 174 175 179 181 173 173 169 165 152 157 148 146 144 143 156 158 159 164 172 174 174 178 181 169 166 166 167 155 152 144 142 126 108 100 87 67 70 80 78 78 78 67 73 66 57 33 34 35 37 39 38 35 40 35 41 55 76 96 113 120 130 135 135 143 144 144 159 159 167 169 173 171 175 179 181 177 180 187 182 181 184 183 190 188 193 189 187 183 190 179 180 179 183 182 179 181 176 169 170 168 159 163 158 151 149 151 157 160 167 170 173 174 171 171 174 172 171 167 172 174 164 151 143 132 119 112 86 59 65 77 61 61 65 57 60 72 64 33 35 31 36 36 35 37 42 45 53 66 88 108 119 129 134 137 134 142 141 146 156 155 164 169 172 175 175 182 179 181 183 186 185 189 191 189 189 191 188 191 186 185 186 181 180 182 185 189 185 187 187 184 177 172 174 175 166 165 161 160 160 160 170 173 172 172 170 170 168 174 175 176 175 184 178 162 154 137 127 120 99 59 49 74 60 67 64 57 71 53 54 34 32 35 38 31 42 35 53 50 59 76 97 112 126 132 137 136 132 139 143 150 158 151 160 165 171 176 178 180 181 185 187 189 187 191 199 195 195 190 192 187 185 187 188 188 188 187 187 187 182 188 185 187 188 190 186 188 188 189 190 186 178 177 178 182 183 183 186 185 181 179 182 185 185 183 180 180 160 146 131 130 116 60 46 69 64 49 77 60 62 55 51 38 32 37 38 44 38 43 52 59 67 89 99 118 125 132 136 140 139 136 143 146 154 157 161 164 172 177 176 184 177 189 189 194 193 193 200 195 196 197 200 194 192 194 193 200 198 198 194 192 194 191 198 192 198 202 201 200 201 199 200 201 202 201 200 196 197 195 194 190 193 185 190 180 189 181 184 182 178 159 137 131 129 78 49 62 68 42 73 71 69 49 47 38 34 34 37 44 44 46 53 63 72 89 103 112 126 129 135 137 134 139 143 147 151 156 158 160 168 169 174 179 183 186 187 192 192 198 197 200 199 202 202 203 201 202 204 203 206 204 204 202 198 201 202 203 205 205 205 204 204 204 207 206 204 204 204 205 204 201 197 200 194 193 188 185 188 186 183 179 176 172 148 135 131 100 54 64 76 55 58 64 52 41 50 37 31 37 37 46 43 40 61 64 74 91 103 114 125 127 132 136 137 134 141 144 149 155 157 159 166 168 170 178 186 187 191 190 198 200 200 199 199 203 204 206 204 205 206 206 207 206 207 205 204 207 205 206 208 204 205 204 208 206 207 205 204 204 204 206 203 202 202 201 196 198 192 188 188 187 183 184 172 176 160 145 135 113 69 57 83 56 57 56 55 48 49 38 28 37 43 44 38 47 61 66 72 90 105 110 120 128 130 134 133 136 134 142 147 157 157 157 162 166 173 181 186 189 193 198 195 201 202 201 203 203 207 206 207 207 207 208 207 204 210 207 206 208 206 210 205 206 208 207 205 208 207 206 206 207 206 205 206 204 204 203 200 193 192 188 190 182 185 185 182 170 167 152 138 116 75 61 84 66 56 68 56 59 39 40 32 33 44 31 41 51 55 64 66 84 99 106 111 128 127 135 132 134 136 140 150 154 157 160 163 170 176 180 183 186 190 197 199 198 203 204 206 207 206 208 207 210 210 206 208 206 209 209 207 209 208 207 209 204 209 207 202 208 207 206 207 209 208 206 208 205 207 204 201 196 192 186 181 183 183 187 186 175 166 164 144 121 86 66 77 74 48 60 56 53 40 34 36 30 37 31 40 47 44 54 64 78 93 102 116 126 127 136 135 136 136 140 148 149 159 155 170 168 178 181 184 184 192 195 197 197 203 203 203 208 209 208 208 210 211 210 209 207 206 209 208 210 208 206 207 207 210 207 207 208 208 209 211 209 210 208 205 208 207 203 196 195 188 182 187 181 175 187 182 176 164 162 159 122 84 73 77 72 65 56 65 47 38 29 35 29 34 31 46 45 42 47 59 68 85 107 116 125 130 130 137 134 135 143 144 151 154 158 164 168 176 180 185 185 186 190 191 194 199 199 201 207 207 207 209 210 210 210 210 209 207 207 209 209 208 204 205 208 207 208 209 209 209 211 210 211 209 208 207 205 204 203 195 197 197 196 188 187 179 179 184 176 162 158 165 132 93 78 66 75 71 70 60 49 45 38 24 36 27 39 42 31 37 44 54 63 91 105 114 129 130 134 137 136 141 141 150 145 150 156 161 166 170 176 180 185 183 185 193 187 195 195 193 199 205 206 207 210 207 210 209 206 208 205 202 203 206 203 203 205 208 206 209 210 209 211 209 204 207 201 204 203 203 204 203 201 199 200 193 191 184 178 184 173 168 156 165 143 102 84 60 70 81 63 67 45 42 34 28 29 33 39 35 33 38 39 50 70 87 105 121 131 135 134 137 141 142 150 147 147 155 157 161 166 171 178 177 183 186 188 186 189 192 193 194 196 197 198 201 203 202 204 204 200 196 202 200 199 203 201 199 201 204 203 206 204 204 205 200 198 196 196 202 205 205 206 201 204 200 202 198 194 188 184 177 168 156 157 164 160 101 83 70 64 80 75 59 46 41 39 29 34 35 36 32 33 35 39 51 75 96 119 127 131 137 138 134 139 146 150 154 158 161 164 161 169 170 175 180 185 188 188 182 183 183 192 193 197 197 200 199 201 201 200 200 199 202 201 202 202 199 202 200 199 201 199 200 200 197 201 191 188 198 199 206 207 205 205 203 201 201 202 199 197 194 190 189 162 137 148 159 163 118 73 71 53 63 84 64 54 31 36 30 32 37 35 30 32 32 38 54 88 108 129 131 132 134 134 137 136 152 156 158 162 168 166 175 172 174 175 178 182 182 188 189 188 190 182 188 193 198 202 203 207 206 203 204 202 204 207 205 205 203 205 204 199 200 202 201 203 202 201 189 195 203 205 207 208 207 206 198 203 201 200 201 196 196 193 192 176 142 133 149 168 141 81 62 58 55 73 65 69 26 36 30 36 37 30 25 35 30 42 70 105 123 131 129 134 134 137 136 142 150 169 164 166 163 161 171 170 170 174 177 178 183 186 189 187 192 192 185 182 188 201 203 207 208 207 210 204 208 208 207 207 204 205 204 203 203 208 206 203 197 195 201 201 206 206 205 206 204 203 195 200 197 191 198 194 196 189 189 182 156 126 128 154 159 89 65 57 55 57 65 50 32 35 34 35 29 31 32 33 30 60 94 117 126 132 128 134 133 137 139 147 158 157 153 148 130 145 136 141 143 146 147 153 160 163 169 175 170 183 184 185 176 178 197 205 206 206 206 205 208 205 207 207 206 205 205 203 206 200 188 180 182 197 197 196 193 200 203 202 197 189 180 173 169 159 160 159 150 159 164 176 167 133 120 131 161 107 59 56 49 61 50 41 36 35 30 30 36 27 29 32 44 79 107 121 125 133 129 133 132 135 130 117 112 103 106 103 115 132 128 121 113 105 128 146 125 128 142 152 156 168 180 187 180 196 198 212 212 212 211 211 213 213 213 213 212 214 212 214 214 208 200 200 205 211 210 213 192 192 207 208 205 206 201 203 167 161 160 165 175 181 192 186 143 138 118 121 146 121 54 55 58 47 48 39 43 35 30 30 34 28 32 34 57 90 116 125 131 128 131 132 128 117 98 96 113 136 166 176 167 160 143 135 131 126 147 178 147 131 139 136 134 144 155 162 152 175 169 180 184 199 196 195 196 200 198 197 195 191 190 186 176 154 151 159 160 181 190 170 138 124 134 122 126 126 129 137 143 143 153 167 181 171 178 196 187 175 149 128 120 123 47 52 70 53 41 32 56 29 34 27 25 30 34 37 75 105 128 131 129 132 131 128 108 102 106 126 130 117 121 111 112 106 105 96 95 89 82 91 88 82 86 87 93 93 109 110 131 131 140 135 130 166 174 178 173 178 178 177 180 177 182 182 160 134 144 137 129 163 153 145 145 121 120 111 107 104 99 97 91 90 93 95 119 119 118 126 136 116 107 161 154 161 83 45 56 57 42 32 64 34 27 29 27 35 27 39 86 120 126 139 137 137 135 117 103 108 113 123 125 111 117 113 129 126 112 117 120 115 106 107 109 104 114 106 104 116 115 119 135 130 138 134 96 123 142 152 155 163 168 164 164 160 188 190 146 154 158 167 158 176 158 146 154 121 116 112 119 117 104 103 104 108 124 130 118 117 121 124 129 121 90 136 138 65 146 104 42 48 53 40 65 22 29 29 24 33 28 39 100 128 130 142 142 138 134 115 115 124 120 125 134 124 128 120 125 127 122 131 140 143 150 156 155 154 157 156 145 137 140 143 147 155 152 137 111 135 129 178 190 197 198 195 191 186 153 159 151 166 142 187 180 178 167 168 157 151 151 155 157 160 155 158 161 177 169 172 167 162 149 150 137 137 135 116 175 53 43 127 90 53 50 48 69 28 26 27 24 26 30 44 109 130 132 137 141 133 120 116 116 116 118 121 116 122 118 118 124 131 125 130 138 143 141 148 152 150 158 153 154 152 147 154 154 153 142 121 138 173 133 169 183 190 196 205 186 194 190 133 164 156 164 195 189 182 178 177 176 170 172 166 166 167 163 168 170 172 171 173 176 176 171 160 153 128 158 122 172 85 36 63 145 57 53 65 67 115 49 22 41 51 51 51 106 128 133 134 133 118 130 126 116 107 113 116 116 125 133 132 129 134 120 114 122 129 126 132 137 136 153 154 147 148 134 129 120 115 117 143 155 167 138 153 125 156 160 224 145 169 184 145 188 167 171 194 186 181 177 169 168 160 167 159 144 150 144 143 154 149 164 171 176 174 167 168 161 151 158 135 169 99 45 61 114 103 76 100 63 142 113 49 28 28 61 64 73 97 118 135 136 103 203 125 117 109 111 117 116 120 116 112 104 99 93 86 93 101 104 114 108 111 120 112 111 112 113 105 98 93 100 115 117 128 117 136 130 159 172 192 200 193 192 79 181 158 162 181 174 170 168 162 157 143 120 114 100 105 105 107 111 110 132 148 157 166 164 166 148 160 161 140 168 108 53 117 116 137 141 140 67 119 105 69 30 33 20 75 95 79 78 108 145 197 171 120 112 111 108 110 102 102 92 83 88 96 97 104 108 109 116 126 114 116 118 108 96 90 91 102 101 101 102 104 115 110 108 135 133 179 198 206 209 208 216 129 178 124 168 175 166 158 157 150 126 107 104 112 116 119 118 122 121 128 127 131 134 145 159 153 147 168 164 153 159 113 65 134 137 105 229 176 58 92 69 49 29 34 26 63 125 120 83 85 60 189 157 113 110 120 117 106 96 88 82 82 91 93 110 100 88 80 63 88 68 75 78 91 103 98 90 91 94 89 90 100 117 111 110 157 152 183 200 208 212 212 218 143 153 110 166 170 165 155 148 124 112 119 123 107 100 103 96 113 95 115 119 135 143 136 148 147 169 171 173 161 159 117 76 144 134 112 230 226 73 87 75 58 27 35 34 66 104 130 135 112 64 173 147 114 112 121 124 108 92 86 80 86 99 94 84 71 60 76 39 133 58 53 56 87 70 79 89 101 102 102 90 90 120 105 124 161 159 179 196 199 208 208 223 146 156 80 153 166 158 147 138 133 126 125 115 95 89 116 75 91 75 141 124 85 131 139 126 151 178 171 176 167 172 114 93 149 126 123 102 177 119 110 73 88 46 29 37 92 92 106 127 142 93 217 173 118 119 122 119 106 94 84 76 69 70 59 74 96 68 74 38 40 46 66 67 128 90 77 71 90 107 119 106 95 91 97 152 120 124 160 165 169 179 187 203 160 121 54 128 162 162 152 133 122 105 131 124 99 84 45 86 64 85 140 197 147 70 104 128 153 175 174 184 180 176 116 104 138 149 149 125 141 143 121 107 89 64 34 41 104 104 89 111 138 93 236 194 121 128 125 122 113 100 90 71 60 66 68 83 109 84 72 60 53 69 58 90 118 95 102 88 71 43 78 101 108 157 147 143 87 123 155 181 197 201 196 180 175 126 24 107 145 146 120 88 106 111 125 135 82 104 51 115 131 73 164 193 150 106 79 109 155 175 173 185 196 187 117 131 117 166 144 124 139 155 120 125 102 85 53 45 107 112 96 102 118 86 221 182 127 137 135 130 125 113 110 87 90 91 96 99 108 117 109 111 101 98 96 101 103 95 97 111 102 158 226 217 221 217 216 80 98 136 174 202 205 210 214 210 186 125 51 95 146 134 109 113 105 110 105 121 98 88 64 65 145 92 158 142 119 105 115 118 142 172 177 183 189 178 146 151 120 173 154 129 149 140 121 124 100 70 59 59 111 118 107 105 113 75 234 207 127 134 139 140 131 131 124 107 111 110 114 121 117 122 104 107 103 104 116 117 121 111 110 133 96 228 224 220 218 221 195 85 110 155 186 203 209 210 211 211 203 128 89 107 145 144 141 138 126 118 122 126 132 134 124 126 131 132 139 148 133 140 225 219 192 194 193 191 189 178 167 157 138 148 192 133 154 132 110 109 68 48 75 65 120 118 112 112 111 74 216 212 132 137 138 144 143 147 131 119 113 107 123 128 137 142 124 115 111 112 112 106 103 100 96 100 67 108 107 148 129 125 103 100 134 165 188 203 210 212 213 202 210 159 106 131 131 143 136 135 133 126 127 128 136 143 136 159 154 159 164 156 145 203 225 220 220 222 219 198 183 168 169 164 145 144 227 184 151 89 104 98 79 48 73 78 116 120 116 115 115 81 177 224 137 136 142 147 154 155 152 135 124 114 109 123 130 136 121 110 107 104 105 100 95 105 104 113 118 122 129 143 129 104 119 110 148 168 182 202 212 212 214 200 199 176 143 130 126 143 136 136 140 137 138 140 148 149 152 162 164 168 174 170 155 163 218 222 220 219 229 200 182 165 167 175 111 134 227 221 129 65 95 103 102 69 66 92 115 118 115 120 115 108 113 204 127 136 141 149 145 153 155 148 146 140 121 113 109 109 101 99 105 108 106 109 111 125 127 127 134 142 148 158 114 116 113 130 151 167 182 200 209 210 214 206 194 195 155 163 112 140 145 137 138 141 144 140 145 155 159 165 164 168 165 164 140 139 166 226 220 220 225 188 182 163 165 164 58 188 238 190 97 67 102 127 116 83 72 97 112 116 116 124 124 121 97 165 129 134 146 153 147 153 150 149 149 147 144 140 131 127 115 120 125 125 124 129 132 148 146 142 152 151 157 137 117 121 118 149 149 158 175 198 207 206 213 205 190 206 160 174 163 135 143 140 138 141 142 146 148 147 147 142 144 142 141 139 143 173 186 197 210 205 198 181 175 161 176 128 46 199 223 153 59 74 110 122 113 102 88 107 110 112 117 125 125 123 125 109 137 131 147 149 152 158 158 153 157 155 149 156 152 152 149 140 139 142 146 144 149 156 163 159 162 162 149 110 132 117 135 155 146 154 166 186 208 207 210 198 194 199 185 168 191 175 135 146 145 137 142 141 141 139 137 132 128 136 147 164 176 184 192 190 197 194 192 182 170 166 172 83 106 205 182 120 46 71 116 123 127 104 119 115 103 111 117 122 126 125 132 92 139 126 139 146 159 153 158 157 165 166 163 162 158 160 158 160 150 153 157 157 163 162 166 160 164 150 115 136 120 119 151 156 152 151 163 191 205 206 207 195 198 191 197 167 192 186 191 132 173 174 165 159 156 150 151 151 158 167 174 180 184 183 192 191 192 192 191 176 166 166 136 97 184 192 174 85 60 66 140 133 147 113 134 109 102 111 117 123 127 127 123 117 94 144 138 140 159 157 147 162 170 173 168 167 172 171 163 171 168 164 166 167 168 169 165 161 143 117 137 135 113 137 160 153 151 153 160 183 203 206 207 200 194 189 203 174 181 199 190 193 132 176 191 189 188 183 180 178 184 183 190 191 190 184 195 189 192 190 187 177 168 169 126 225 207 179 153 60 68 69 160 144 153 128 122 102 103 107 112 123 126 127 125 109 126 102 136 164 155 155 165 169 168 171 168 169 177 179 176 177 173 174 180 179 172 167 155 129 128 143 136 124 124 153 162 154 152 160 163 183 205 208 208 196 195 189 205 191 181 197 202 195 197 153 150 187 197 196 195 190 197 190 190 195 195 193 201 193 197 194 187 178 174 193 214 202 207 183 115 62 71 69 130 158 171 146 111 105 98 105 110 119 125 129 128 121 123 129 103 157 203 198 184 172 167 172 175 180 184 183 185 188 187 191 181 167 162 134 132 144 158 154 121 113 137 154 156 152 156 167 171 187 205 209 211 199 194 190 197 197 182 188 201 205 202 202 184 147 158 179 196 198 200 198 200 207 207 211 214 213 216 221 217 208 205 202 175 178 179 168 82 63 72 66 75 157 165 158 123 108 95 102 106 114 123 133 136 128 123 129 125 120 108 164 186 182 178 177 177 181 183 181 178 170 157 157 160 151 152 159 173 163 158 146 114 118 140 146 141 142 157 168 179 189 202 210 210 202 193 190 192 192 186 191 199 204 205 207 203 195 187 170 164 167 176 173 184 195 199 206 216 220 221 220 220 222 190 172 165 172 173 139 64 67 72 64 92 134 163 167 160 107 92 103 102 112 118 130 139 134 128 132 129 133 134 142 151 157 148 156 159 162 160 163 171 178 184 194 194 189 168 177 171 165 151 131 116 120 138 135 139 138 156 170 185 190 203 206 207 205 200 192 186 183 180 194 197 203 203 204 202 202 201 200 201 198 196 194 193 196 200 198 201 203 193 196 194 177 174 170 169 170 173 89 66 69 69 64 116 135 138 151 165 114 91 102 101 105 113 125 133 141 135 135 134 130 137 148 156 164 166 176 182 184 183 187 188 189 195 198 196 199 176 169 166 155 143 128 114 121 143 148 148 144 154 172 184 193 203 203 206 206 200 195 185 174 172 189 199 202 200 199 198 197 198 197 199 200 201 201 203 204 205 199 206 198 188 176 175 176 179 176 167 189 134 63 73 72 67 64 107 140 133 135 145 117 92 102 107 103 110 124 134 136 136 133 135 134 140 156 162 161 169 171 181 177 172 178 177 182 191 189 191 195 191 164 150 146 131 121 112 130 156 164 159 149 158 170 182 192 203 204 206 210 199 198 186 182 151 182 196 197 199 194 195 196 194 194 195 196 197 198 198 197 200 199 203 202 202 191 179 178 185 175 178 175 82 59 73 67 71 65 75 127 133 135 125 110 87 107 110 106 106 121 135 132 133 129 133 133 133 150 155 156 158 161 165 163 166 171 174 181 186 184 191 193 193 182 148 138 123 107 121 160 172 175 168 162 165 169 176 195 202 208 207 206 203 200 187 192 162 166 185 190 192 189 189 191 186 187 189 187 187 185 189 194 193 198 198 199 199 191 179 178 181 168 198 127 59 63 72 72 67 66 36 114 130 142 138 133 104 100 106 112 104 117 125 124 132 130 127 132 136 141 151 147 149 151 158 162 164 171 178 182 183 188 194 195 198 199 180 135 120 110 168 178 172 169 164 165 162 165 172 193 209 205 207 205 202 203 189 193 202 182 183 192 184 186 181 186 184 186 184 188 186 184 185 192 188 193 196 191 192 191 187 178 180 167 204 124 55 68 70 68 68 68 42 73 126 137 145 142 110 93 112 111 106 112 121 122 123 127 121 128 137 142 139 141 140 155 161 161 166 174 181 179 186 192 194 197 200 194 173 143 111 129 164 164 155 156 146 138 149 150 163 187 208 206 207 208 202 197 189 191 202 198 177 187 184 185 178 182 183 187 187 191 191 190 190 189 190 193 191 189 188 189 189 182 174 169 202 108 55 71 66 71 69 62 50 40 90 119 132 137 99 94 99 113 108 109 115 126 121 118 119 127 131 137 136 139 142 154 160 165 172 179 184 186 189 195 198 200 182 157 142 135 119 110 133 144 144 135 138 125 128 136 142 174 196 210 210 202 187 183 185 191 200 181 166 186 189 185 179 181 181 188 188 192 193 193 195 198 190 193 189 189 189 187 184 181 171 181 183 81 61 69 73 65 68 65 49 47 45 86 107 119 85 85 101 112 111 106 111 114 117 116 117 125 127 135 137 139 146 158 158 171 176 181 189 192 192 195 194 167 138 133 135 133 137 92 115 146 147 131 125 117 116 132 142 164 189 205 196 183 181 175 172 171 158 163 183 194 196 193 182 174 176 183 186 189 193 194 194 198 198 194 191 187 185 187 188 178 169 180 123 62 65 69 66 73 66 67 50 48 44 49 65 76 62 72 107 112 115 108 108 107 113 111 112 120 128 133 135 144 149 159 168 174 181 186 189 194 190 173 148 124 122 131 130 140 143 133 78 114 112 86 73 66 78 137 154 167 184 189 192 194 171 144 136 119 133 162 181 194 194 193 189 179 170 179 182 185 190 195 191 199 193 193 192 190 185 186 186 175 167 136 71 62 65 72 66 65 68 66 51 45 53 53 48 52 46 57 104 112 116 112 107 103 110 109 112 121 121 130 136 146 154 162 169 177 186 192 190 182 150 126 119 117 127 132 139 141 150 149 124 96 89 93 95 89 66 80 161 173 176 180 188 193 148 134 117 123 147 157 155 177 189 191 190 187 178 163 171 181 190 195 189 201 183 187 194 189 185 182 178 179 142 69 61 66 67 67 66 67 67 71 53 46 49 49 46 51 43 48 98 110 115 115 107 104 104 104 110 121 120 129 135 146 160 166 174 180 184 188 162 124 113 114 119 127 128 137 141 146 149 147 134 94 96 97 99 110 107 79 125 175 175 169 178 164 136 118 107 120 133 144 147 151 166 180 183 186 187 180 158 166 181 194 188 196 178 183 190 189 186 179 171 181 122 50 66 67 65 64 66 64 66 68 47 54 45 53 44 49 51 39 95 105 115 115 112 108 104 103 106 112 117 127 138 147 163 173 183 179 170 131 108 111 112 110 112 123 129 127 137 134 135 136 127 89 88 87 96 96 117 127 130 163 168 169 162 121 119 110 103 108 124 128 123 135 142 159 163 172 172 181 175 155 152 179 182 190 194 190 194 187 182 176 168 179 102 54 67 67 65 67 67 67 65 65 51 47 52 50 49 47 51 40 86 107 114 113 116 105 109 105 103 116 109 118 131 145 159 170 166 134 101 104 106 110 104 106 110 121 118 125 123 115 109 119 106 103 89 85 88 88 100 118 130 155 173 149 135 100 95 115 103 105 105 116 116 105 137 132 146 137 142 158 149 161 153 141 184 181 189 188 185 179 176 174 167 179 80 57 68 65 67 64 67 67 65 61 45 54 51 51 52 55 52 39 70 109 111 115 120 111 114 106 109 108 110 107 119 143 155 153 125 92 95 97 101 104 99 107 108 115 118 112 110 103 94 104 91 89 86 80 94 87 84 103 114 135 156 122 103 100 79 110 106 102 101 108 96 100 109 125 130 115 102 134 121 116 128 137 136 172 186 187 191 172 172 172 170 172 70 59 69 64 68 64 63 65 64 66 47 54 45 56 43 53 54 40 67 103 111 116 115 117 112 109 110 109 113 105 111 123 129 118 100 96 104 101 114 107 98 109 106 110 110 112 101 92 100 91 88 84 89 82 88 89 100 104 114 138 152 124 92 93 95 89 105 89 99 99 98 82 102 103 117 102 101 109 114 99 108 110 102 168 185 190 185 170 164 162 167 164 59 62 67 69 65 65 67 70 63 65 51 48 50 53 49 55 54 43 54 101 107 116 115 117 117 110 114 112 114 108 112 122 118 119 99 106 120 116 116 112 105 99 109 107 104 104 98 97 90 97 88 91 92 86 106 95 95 94 110 138 151 116 89 77 89 96 96 79 90 94 86 91 84 94 95 101 105 96 115 108 99 103 89 139 184 188 183 173 176 161 163 148 59 66 68 65 65 64 64 66 66 71 49 51 46 51 51 48 51 47 48 102 108 116 116 116 116 114 110 115 110 104 106 112 126 133 102 107 119 112 110 111 105 102 104 103 100 96 84 89 91 94 82 82 90 85 93 94 90 98 111 134 151 134 84 73 91 110 87 82 91 90 87 101 94 91 90 103 105 97 98 119 102 104 86 112 164 182 178 167 170 168 175 134 53 66 61 67 68 64 64 65 63 70 48 53 50 51 45 53 47 50 40 98 107 112 117 116 118 114 112 112 103 102 105 112 116 123 108 106 113 102 112 103 102 104 99 97 101 94 98 94 105 93 88 86 88 83 94 100 94 105 122 129 141 136 117 106 104 114 96 93 98 103 110 115 110 95 104 100 105 104 97 112 106 95 102 112 130 165 161 160 167 169 172 113 55 66 64 65 66 68 67 63 60 62 45 50 45 47 51 51 52 49 36 87 105 106 113 116 115 112 116 109 98 102 104 113 115 120 109 98 96 102 106 107 95 84 66 88 96 99 120 102 114 109 109 110 118 113 127 136 131 139 143 154 158 159 159 165 157 150 133 104 119 137 134 140 137 111 90 93 104 113 113 108 106 101 119 116 128 146 141 170 167 162 164 85 59 67 65 65 66 66 69 64 66 62 50 45 45 51 44 52 48 53 34 78 102 106 107 118 118 116 113 110 108 97 104 112 123 116 110 105 93 101 98 106 100 79 42 39 57 90 103 111 110 113 115 121 118 128 131 135 140 144 145 158 159 172 162 165 166 160 158 143 142 152 149 139 104 77 67 105 118 121 129 112 104 118 130 122 144 134 132 162 166 173 152 69 65 67 64 67 67 64 67 65 72 66 47 45 54 43 48 48 50 51 39 58 96 107 110 112 115 116 114 103 108 93 95 107 115 117 117 117 105 100 96 104 110 111 90 66 48 62 88 84 112 117 125 135 130 133 135 134 139 137 141 147 157 163 151 168 164 164 161 159 153 152 137 121 93 92 109 139 137 126 134 121 116 124 125 140 152 155 148 152 165 170 140 67 65 69 69 64 65 60 66 66 66 65 46 52 48 48 52 48 49 48 49 51 93 97 113 110 109 114 119 111 109 93 96 94 111 115 126 133 119 107 102 105 121 122 117 97 82 82 84 77 66 77 82 88 98 119 142 140 147 143 146 149 168 156 156 171 167 159 132 121 121 116 121 125 127 119 160 173 161 136 142 125 132 150 147 160 145 153 146 162 170 173 106 60 65 64 73 65 62 67 59 67 70 63 48 53 49 52 54 50 50 52 53 46 86 98 103 109 111 116 113 117 110 109 99 104 106 112 121 134 130 125 109 111 123 123 120 114 101 93 94 94 92 89 93 85 80 83 87 98 111 123 127 132 144 132 131 119 122 107 108 126 127 130 132 137 133 150 180 182 176 160 138 129 152 147 154 162 149 163 161 178 167 166 85 61 61 64 62 63 63 61 64 61 65 65 46 50 50 46 48 48 50 50 44 43 72 93 105 103 113 117 113 123 109 104 101 103 106 104 114 121 130 130 115 118 120 126 124 118 117 107 107 96 94 102 98 94 94 98 104 103 106 112 111 111 111 107 112 118 116 124 131 133 140 141 133 141 157 179 184 186 179 166 150 148 182 179 158 169 162 169 170 175 170 145 58 59 59 59 65 58 65 63 59 63 65 60 46 49 49 46 47 45 51 49 45 45 57 85 97 105 110 114 113 117 98 99 103 107 104 103 111 104 122 124 109 115 127 125 123 115 118 115 114 111 101 108 106 108 109 117 120 126 136 131 128 130 126 123 132 131 133 145 140 145 152 142 150 166 183 183 179 188 174 164 170 170 195 188 166 161 178 164 176 172 171 111 57 58 59 58 57 58 59 64 56 64 62 60 47 45 48 44 44 49 48 48 46 47 45 82 93 99 107 114 112 111 104 100 108 104 103 102 108 102 119 124 106 107 124 123 122 117 118 118 113 118 117 121 113 121 119 123 125 134 144 141 144 149 143 145 150 156 162 169 155 157 156 165 179 184 185 181 183 182 166 167 184 182 195 178 173 174 175 178 175 172 167 81 48 57 59 59 64 56 65 64 62 60 61 59 48 44 43 48 47 49 47 44 52 44 41 71 89 96 104 103 111 110 102 102 105 105 99 93 98 102 111 114 107 106 121 124 124 117 117 115 113 111 112 121 127 129 139 131 140 143 141 146 146 149 149 154 158 168 170 178 168 176 181 184 188 185 183 179 183 172 151 169 193 180 176 173 180 185 180 181 181 174 135 61 50 56 56 57 60 58 61 61 57 59 62 60 47 49 48 44 51 50 47 49 48 50 38 63 83 94 99 105 101 108 101 105 105 99 97 97 96 99 108 107 108 107 117 129 129 123 121 115 115 109 109 106 113 119 131 138 138 150 155 158 148 151 155 162 168 175 183 187 187 190 185 181 182 188 185 182 175 166 151 153 187 177 164 186 186 187 184 182 174 166 105 42 56 54 52 55 55 57 60 57 58 56 59 61 44 45 49 47 45 46 44 49 46 50 36 71 85 83 93 108 96 106 102 103 105 95 101 99 100 88 94 102 101 104 119 122 135 128 128 120 117 108 113 110 106 99 112 110 114 117 121 120 112 119 123 121 133 158 153 169 173 170 173 175 185 184 184 172 169 152 159 142 174 170 172 188 188 188 181 176 167 145 62 48 55 51 52 52 53 54 54 57 56 58 56 61 48 49 44 48 43 45 46 43 47 48 37 79 103 77 88 101 95 106 100 98 101 102 103 94 99 86 91 90 96 112 112 120 128 133 132 127 119 119 114 101 106 102 97 85 105 100 94 88 95 101 90 93 100 125 138 139 143 162 167 177 184 181 182 161 162 148 132 143 161 176 172 189 187 188 184 167 165 92 49 51 53 52 48 50 53 47 51 55 56 56 53 63 52 43 50 46 45 45 46 46 48 42 39 81 116 85 76 95 100 98 101 101 96 102 102 87 84 86 90 85 96 98 103 111 123 124 128 128 125 126 116 109 109 105 91 86 85 85 77 82 90 87 75 78 95 105 115 134 148 161 165 172 170 177 172 152 148 145 126 143 158 175 173 188 186 185 176 174 134 56 46 52 49 49 51 51 53 49 51 53 51 52 54 54 48 47 45 48 47 49 47 48 43 50 33 89 110 103 76 84 83 94 98 95 93 96 93 90 83 86 85 89 94 91 103 113 123 127 125 135 128 136 114 118 107 103 83 90 75 82 80 81 80 75 83 74 90 109 103 137 167 160 159 174 170 168 176 150 141 128 134 120 159 172 177 182 182 183 177 151 82 44 48 51 47 40 47 48 50 48 50 50 46 58 52 55 48 52 45 49 48 46 51 47 46 50 38 94 111 107 87 79 82 88 93 92 87 85 82 77 90 82 87 85 92 90 109 114 118 128 134 141 139 129 117 105 103 91 86 86 74 79 82 78 88 67 84 87 83 111 99 123 151 143 165 166 182 170 180 158 140 126 129 130 151 171 178 183 173 179 172 95 44 45 50 46 47 43 47 46 45 48 53 45 51 50 55 48 49 51 49 47 46 47 49 48 51 49 38 102 110 106 100 80 78 91 89 85 92 71 73 69 75 74 84 85 91 93 104 103 105 129 139 153 151 133 127 111 101 102 95 87 89 89 81 87 79 90 93 94 99 113 90 110 152 146 159 169 182 178 167 152 143 124 131 111 142 169 180 179 171 174 115 50 47 49 44 48 48 47 44 45 49 48 50 46 46 50 51 51 50 56 49 49 47 50 45 49 47 45 37 107 110 106 101 88 85 84 91 80 82 74 71 71 68 72 78 85 82 87 92 83 93 119 128 137 143 129 122 102 98 99 96 97 106 94 91 84 95 110 104 100 113 117 96 100 133 155 159 169 181 179 157 132 138 120 136 119 114 147 181 175 171 120 58 43 46 47 50 44 46 42 46 43 48 44 47 44 51 43 49 50 51 54 48 46 50 47 47 46 49 39 49 114 112 107 101 93 86 76 85 77 82 79 65 70 59 65 70 70 73 85 79 78 83 107 118 120 130 106 103 100 107 103 108 107 115 99 100 105 115 117 108 118 122 122 94 123 123 135 154 152 155 158 146 127 123 117 124 115 128 130 160 177 121 53 45 48 52 51 51 50 47 47 44 44 45 47 45 45 47 43 48 48 49 55 53 46 49 49 50 45 47 38 64 117 111 107 101 100 83 84 79 71 86 71 59 63 53 56 63 65 62 77 73 69 75 94 106 97 113 102 111 105 106 105 112 108 115 110 114 116 126 109 113 126 121 118 106 145 120 131 124 152 153 129 133 123 115 112 106 97 137 132 136 164 78 38 48 54 57 54 51 55 54 45 45 42 43 47 41 46 46 44 44 46 55 55 48 53 49 46 48 48 48 33 82 121 114 110 102 97 93 77 83 76 78 66 72 57 54 58 55 52 63 78 68 66 73 79 95 96 103 96 105 97 105 111 113 104 113 112 128 119 136 122 123 123 126 115 120 146 137 128 127 144 158 126 121 118 107 94 98 97 119 131 138 171 76 45 52 51 51 47 43 48 45 55 43 41 47 47 45 43 47 50 42 45 51 58 45 53 50 52 45 46 46 32 100 123 117 117 108 100 94 81 79 81 70 62 70 62 58 61 51 58 53 76 63 63 69 79 88 82 89 90 101 78 105 107 111 105 110 118 121 130 142 121 129 129 125 112 126 144 132 126 120 125 136 131 106 103 98 85 94 85 101 126 144 165 69 53 44 44 47 42 47 49 40 52 42 37 47 42 48 46 45 44 46 45 59 56 50 51 52 47 47 50 41 40 113 119 125 119 117 103 98 85 77 65 66 72 63 61 63 54 68 64 51 68 63 65 67 91 72 72 84 85 90 81 99 114 113 111 117 122 111 126 136 116 113 123 118 112 131 141 133 138 120 111 118 104 99 89 76 86 82 89 96 128 141 170 63 54 47 49 46 40 46 45 43 44 40 41 39 47 40 44 38 48 42 36 58 51 52 48 51 46 49 46 45 79 118 119 124 122 121 116 101 94 65 61 71 68 66 65 54 55 57 56 53 61 59 56 76 69 69 74 83 81 80 89 96 94 108 109 112 115 114 114 118 111 112 114 115 119 117 135 132 134 118 102 108 101 84 79 75 74 91 85 104 114 132 164 67 56 62 46 41 48 41 47 46 45 41 42 41 43 39 42 43 43 43 43 52 54 51 50 47 47 48 47 108 116 111 121 122 126 124 118 113 95 78 57 70 71 68 69 62 49 64 59 56 54 56 52 70 67 70 72 71 70 79 94 90 91 100 105 99 107 111 116 108 108 110 109 116 109 113 123 117 117 102 97 90 94 80 78 76 63 87 82 109 122 134 159 79 42 70 50 44 41 46 45 46 41 42 41 42 44 38 41 47 38 47 37 56 51 55 51 54 50 48 118 124 102 116 117 123 126 125 120 117 96 77 68 63 71 74 61 63 57 64 58 56 49 50 48 68 67 68 66 56 68 74 85 88 84 90 101 91 94 103 116 97 91 94 97 107 102 99 104 102 101 91 89 81 79 77 75 72 82 83 98 98 135 140 152 69 50 62 60 43 44 46 42 47 41 42 42 42 44 37 45 40 44 39 42 57 50 58 35 86 86 124 145 102 107 119 119 126 125 127 124 107 81 76 82 70 68 69 64 68 60 58 67 54 51 54 55 67 71 65 55 52 66 72 82 81 82 85 89 87 93 100 101 73 72 73 88 96 86 95 89 86 84 82 86 78 73 66 70 80 83 84 94 96 121 130 142 77 62 63 64 51 46 45 41 43 40 44 42 41 40 42 37 41 43 42 39 48 49 61 92 133 140 157 123 106 113 115 122 122 126 130 125 97 86 78 84 70 69 67 66 63 59 68 53 44 54 56 57 67 72 55 55 49 63 82 71 89 81 67 92 86 91 90 72 67 62 73 78 87 85 95 77 75 78 89 82 77 78 62 68 76 86 86 93 103 131 132 141 87 70 61 71 47 45 44 47 43 40 43 43 43 40 41 42 40 39 44 45 72 105 134 152 159 131 164 118 116 113 117 124 123 121 123 122 119 78 72 85 76 70 65 67 56 57 54 55 53 60 62 69 68 62 53 57 63 64 74 73 69 73 64 86 81 77 69 67 64 57 70 78 76 96 92 68 65 86 84 66 84 74 70 75 75 90 93 99 105 128 136 140 85 44 66 56 53 41 46 46 44 45 41 46 45 43 47 36 46 39 44 41 142 145 146 164 147 136 163 115 115 115 119 122 126 124 127 122 124 74 68 93 80 66 70 66 55 61 60 68 66 65 57 65 65 61 47 58 74 63 64 70 59 63 65 80 72 70 64 67 73 58 66 62 79 86 74 73 64 89 81 68 85 76 83 82 80 85 96 92 118 120 138 132 90 50 57 57 47 46 50 43 46 46 43 49 42 42 42 40 47 39 41 41 155 142 159 158 140 142 157 115 116 119 113 123 124 120 123 124 114 95 65 71 84 68 74 60 61 58 70 64 57 66 59 71 60 62 53 57 72 52 71 61 57 62 60 63 85 59 69 63 71 52 68 59 74 86 65 67 72 81 67 75 74 82 71 87 88 68 98 98 113 111 129 131 124 79 51 54 48 50 51 44 47 46 45 48 43 42 46 43 45 40 43 45 