P2
92
112
255
53 58 57 53 57 57 57 57 56 60 63 56 69 62 63 73 70 79 76 58 71 62 61 61 54 58 44 45 53 52 65 47 53 49 51 50 55 59 48 52 51 51 41 44 40 43 38 42 48 45 42 50 42 42 64 58 71 67 60 49 51 45 39 39 60 53 47 66 69 64 60 63 60 61 63 58 56 78 71 54 76 62 56 55 56 50 59 57 53 56 56 58 56 58 55 60 52 56 59 57 57 59 62 58 67 65 71 79 62 76 70 64 68 65 68 74 63 48 49 44 37 56 50 66 60 57 72 58 84 78 69 49 65 52 47 45 45 40 42 46 46 36 40 46 37 53 48 50 49 63 58 52 52 45 52 42 45 52 42 62 57 57 52 73 65 63 60 65 66 70 64 73 76 62 63 60 56 55 58 53 61 57 55 58 57 55 60 55 55 58 57 61 57 63 61 57 63 75 70 73 66 66 56 63 57 56 76 70 67 55 50 50 47 36 42 56 78 53 61 64 76 78 87 68 60 57 48 47 45 48 42 42 37 33 36 40 42 45 45 43 45 40 46 44 51 55 43 51 39 50 49 54 42 45 60 77 73 70 67 57 67 74 61 74 61 59 62 62 55 63 58 56 57 59 54 57 61 54 61 57 60 59 57 62 60 63 53 53 73 76 68 69 62 64 55 58 55 56 64 67 59 59 46 55 63 47 39 51 57 62 62 60 61 73 76 67 60 58 52 49 39 46 51 46 40 38 37 45 49 48 47 41 51 41 43 37 47 49 48 52 40 47 44 45 47 59 74 65 61 70 65 60 63 62 63 68 56 51 62 58 61 67 56 56 60 57 56 57 55 58 56 58 60 60 55 63 59 57 51 56 77 71 72 61 66 68 57 53 57 49 67 64 66 62 55 54 60 56 50 42 54 54 66 55 57 53 58 65 66 61 55 56 48 45 54 52 49 42 32 58 52 42 38 43 45 39 35 35 45 39 42 46 40 47 39 43 48 55 70 61 71 78 70 64 67 69 64 71 70 69 75 68 74 71 65 57 56 58 57 59 60 55 61 60 54 62 57 64 58 51 46 66 74 68 68 59 69 71 57 50 50 43 66 53 68 69 69 51 69 61 56 59 58 54 58 63 55 59 51 41 65 67 64 68 62 52 53 61 61 57 41 58 50 46 42 55 37 50 36 35 44 39 41 42 39 39 45 47 40 50 46 55 69 66 72 69 72 73 68 71 70 71 70 79 80 73 76 69 59 58 54 58 62 54 63 58 59 59 60 60 56 47 36 73 70 65 65 56 73 70 56 57 53 51 58 60 65 59 68 57 56 61 69 59 55 57 58 51 61 52 59 48 66 62 60 59 51 54 52 58 68 54 56 46 43 51 46 55 43 49 49 44 41 36 42 36 44 38 50 38 47 43 45 57 73 67 73 73 75 71 65 66 70 69 73 79 70 80 64 67 68 56 60 57 60 60 60 59 60 63 62 51 48 50 39 75 63 66 68 55 70 72 66 50 59 55 50 60 72 59 66 56 66 62 62 62 64 67 63 63 64 62 64 66 70 62 59 62 59 55 60 69 69 74 60 50 45 49 47 52 42 48 42 46 35 35 41 36 46 54 45 49 48 44 49 54 61 70 75 65 83 79 68 71 70 65 72 83 78 80 81 60 61 59 63 55 59 56 64 55 59 63 55 47 38 51 59 66 66 60 64 64 69 68 67 54 61 56 57 64 55 65 63 61 67 63 60 57 54 72 75 64 63 64 71 72 73 67 59 57 73 60 66 84 75 84 74 57 65 63 49 52 49 38 40 46 34 37 40 38 44 52 54 41 51 43 58 42 57 54 59 60 67 74 68 67 68 62 69 75 75 87 77 70 64 60 63 58 60 58 62 54 63 61 42 49 35 52 64 53 61 56 55 61 60 71 66 56 56 64 61 68 60 75 65 70 64 58 61 55 65 61 69 76 72 85 79 81 75 75 66 56 67 72 81 86 77 74 81 77 75 63 51 55 42 40 39 44 42 46 37 54 39 37 57 52 46 49 55 48 62 55 51 51 56 48 62 61 63 67 61 73 65 79 78 63 61 64 61 63 56 60 61 58 57 55 44 56 40 33 70 49 58 62 58 61 57 62 68 58 64 56 67 67 70 68 67 66 68 77 67 70 66 67 64 71 78 86 93 83 89 77 72 77 78 76 83 86 76 78 94 83 77 71 67 56 49 36 40 48 56 59 57 50 51 45 46 50 57 50 44 47 51 49 53 65 72 66 72 60 58 62 75 77 76 74 80 68 58 68 66 52 61 60 58 51 40 47 46 49 48 37 59 54 58 64 56 60 59 49 64 64 66 61 61 71 69 63 71 80 78 75 77 72 70 72 72 75 75 74 82 90 93 82 76 88 87 77 84 91 85 90 92 87 81 73 74 60 50 46 52 52 58 64 71 66 46 56 53 56 53 59 67 57 50 52 50 71 93 77 77 77 71 74 72 71 77 75 74 61 62 80 66 59 60 64 51 39 42 39 49 52 51 42 55 60 55 66 62 59 55 57 53 59 62 68 66 67 75 74 76 79 83 75 81 87 87 86 89 78 80 90 88 82 85 78 85 89 83 76 87 80 88 99 90 76 76 80 74 85 53 50 61 65 62 76 67 63 76 52 55 65 68 68 70 70 71 74 75 76 73 74 80 85 83 91 82 87 84 80 77 67 66 71 65 61 58 58 42 40 28 37 50 54 46 43 49 59 63 69 62 62 58 60 45 55 58 60 62 68 73 74 78 84 84 79 87 87 102 101 99 85 93 85 93 86 80 87 80 84 79 76 91 95 98 96 89 78 77 75 73 88 59 67 60 70 84 75 80 72 76 69 71 77 74 76 64 67 69 73 76 60 62 69 73 81 83 85 81 85 86 86 71 64 82 61 51 59 61 43 41 42 31 41 45 50 48 42 49 60 61 65 59 65 65 65 55 52 53 58 54 71 69 76 88 85 91 91 98 96 101 110 107 108 108 104 103 102 91 89 87 88 91 97 95 104 97 109 93 93 75 75 70 85 70 80 62 82 78 91 87 82 84 90 91 85 85 86 80 73 62 65 69 69 66 75 80 73 73 84 80 83 81 75 73 71 82 64 54 53 51 38 42 40 40 42 41 48 50 47 52 59 59 61 61 60 59 70 63 55 55 57 57 66 75 83 86 96 91 101 102 111 115 114 117 122 122 117 115 113 107 102 99 106 114 111 112 110 102 99 94 84 87 78 78 81 79 78 81 87 91 95 94 86 97 89 91 101 104 109 97 91 88 73 82 71 66 60 72 80 82 72 83 81 83 79 68 67 63 59 47 55 37 35 40 37 36 42 33 50 50 48 54 53 49 57 66 59 55 63 59 57 52 56 61 66 79 94 97 105 109 110 101 114 115 113 109 124 128 120 122 120 117 119 118 122 126 127 128 134 124 117 99 87 89 94 78 83 90 88 92 98 90 101 115 96 89 99 104 110 117 120 110 111 101 94 83 70 70 74 64 72 77 76 78 81 75 74 69 68 64 60 43 67 37 34 45 35 39 37 39 44 41 53 46 46 49 46 52 64 61 52 58 54 56 59 70 79 95 107 107 115 117 122 123 128 133 131 123 136 139 124 135 127 121 133 135 123 130 139 144 137 130 123 106 102 104 101 89 88 88 83 106 118 116 105 111 96 105 98 127 128 125 133 131 122 118 104 89 72 84 78 77 66 72 70 74 70 70 80 87 74 70 56 50 59 39 35 41 44 41 43 38 41 42 51 44 47 50 45 47 54 61 58 61 62 64 68 90 104 109 118 120 119 126 141 142 139 138 144 154 149 137 147 149 130 133 147 145 132 142 145 146 139 129 130 116 109 114 102 95 100 91 95 104 127 121 119 117 119 124 111 132 145 126 139 135 136 125 123 113 97 85 81 85 70 77 73 73 69 58 67 73 76 70 59 48 54 36 43 46 46 41 44 39 41 44 44 45 54 52 45 49 52 63 62 64 71 77 89 103 113 119 120 129 131 127 134 141 141 153 152 154 151 153 147 153 148 145 159 146 134 151 152 148 138 144 133 122 122 124 116 100 106 103 98 110 123 137 141 131 127 121 131 133 156 159 151 155 151 136 138 124 112 93 89 86 78 73 81 71 69 66 67 76 66 72 59 61 56 41 35 37 48 37 44 45 40 42 41 39 50 49 50 54 56 63 67 75 85 95 107 112 123 128 128 130 137 133 139 152 157 155 154 155 163 153 154 157 163 170 157 151 143 152 156 152 148 151 143 138 135 139 123 117 113 111 103 122 122 151 166 164 151 127 145 157 148 149 156 166 162 150 141 134 125 126 99 98 80 80 77 84 80 68 73 81 72 63 67 64 60 40 32 38 52 37 36 44 47 41 44 38 44 45 51 50 67 73 78 88 99 105 119 134 145 151 152 149 151 156 145 148 141 149 158 147 157 164 168 169 170 176 166 151 158 151 157 154 153 154 145 150 144 146 135 136 120 116 110 121 135 130 169 170 153 130 158 165 156 158 146 151 153 150 142 145 136 140 122 102 92 78 81 89 75 79 58 73 67 70 68 67 66 41 33 34 51 51 40 38 43 45 43 36 48 47 54 55 71 81 92 97 108 121 134 148 160 159 160 166 171 165 159 165 155 162 163 167 174 181 179 179 179 179 168 157 172 161 157 163 163 150 149 157 153 144 154 149 132 119 119 119 124 136 129 137 130 141 149 135 156 170 171 172 169 163 156 144 148 141 142 117 100 79 81 72 78 80 83 61 66 62 73 76 77 43 34 34 34 51 42 42 42 38 47 39 32 43 52 67 78 91 98 106 125 139 146 153 162 163 161 171 169 167 166 163 173 182 181 179 176 185 182 178 181 181 165 169 184 158 165 163 166 158 166 154 162 170 163 164 151 132 124 117 127 135 137 150 154 157 158 147 156 178 183 175 175 168 162 147 155 146 150 137 114 91 87 73 57 75 86 74 71 59 73 78 76 39 33 34 28 36 46 44 43 34 43 41 36 46 58 72 91 98 110 123 137 139 148 156 161 163 168 167 164 176 171 175 180 185 187 186 178 178 181 181 179 179 174 177 180 178 173 163 168 169 173 169 172 179 177 172 160 143 144 140 134 136 141 150 162 161 159 165 166 175 183 181 175 167 171 158 147 154 146 143 127 100 93 90 61 63 75 88 69 72 65 77 62 31 30 33 32 31 43 39 39 37 37 40 38 47 71 84 106 113 124 137 135 141 146 151 161 162 165 172 173 170 172 177 180 182 187 187 182 186 184 184 185 186 185 187 183 186 182 176 177 179 179 179 184 179 171 172 170 160 159 158 151 149 145 151 160 159 163 172 175 176 173 181 174 166 165 171 161 156 153 141 137 115 110 85 73 71 74 77 76 79 75 65 69 34 33 31 35 35 35 40 35 41 37 36 47 57 81 99 117 124 131 137 138 144 144 146 160 159 164 172 175 169 178 182 181 179 182 185 182 185 185 186 192 191 194 191 184 185 190 180 180 182 186 183 184 182 177 172 171 167 162 162 157 149 153 152 160 166 172 172 171 171 171 169 176 172 170 171 176 174 157 148 138 123 119 99 64 51 77 67 55 63 56 66 64 35 27 34 27 35 34 35 39 37 46 49 57 66 94 111 124 129 137 137 133 140 142 150 158 155 163 170 174 175 177 181 183 186 185 189 187 192 193 191 189 190 190 190 186 185 184 184 182 184 189 187 185 188 186 181 178 177 176 179 170 172 167 167 159 165 176 176 172 172 173 168 177 174 179 176 183 180 171 155 142 134 123 115 67 45 64 68 62 70 57 71 52 33 29 38 29 37 38 38 41 40 47 53 66 77 100 112 127 132 136 135 135 136 142 152 159 153 161 165 174 177 178 178 182 188 187 194 185 196 198 196 195 193 195 187 187 189 191 189 191 188 188 188 186 189 188 189 193 194 188 190 191 193 192 188 182 182 183 185 186 190 187 186 182 183 183 187 181 185 180 170 151 137 131 127 80 43 60 68 44 72 73 64 58 32 30 37 35 38 35 42 41 48 49 61 73 87 102 111 127 132 134 136 138 139 142 151 152 159 162 163 174 172 175 185 180 190 189 196 193 197 200 194 199 197 200 198 195 195 197 200 199 199 195 194 195 197 197 198 201 203 200 202 201 201 204 202 204 201 200 200 198 196 193 194 187 188 182 187 185 182 184 178 168 148 132 131 98 55 56 74 50 61 71 64 48 35 28 37 36 34 38 45 45 42 55 61 73 84 105 113 123 131 136 133 136 140 141 146 149 155 161 161 169 172 175 181 183 189 186 194 194 197 201 200 202 203 204 203 203 205 204 205 204 206 205 201 202 203 203 205 206 204 203 206 203 209 205 205 204 205 206 204 204 200 199 198 196 188 188 187 186 185 182 177 175 158 138 136 116 64 53 84 51 57 62 52 42 36 32 35 34 37 38 46 42 42 59 66 70 89 107 113 124 129 132 135 136 140 139 144 152 156 159 160 164 171 171 180 186 189 194 193 198 202 200 200 200 205 205 207 206 205 208 207 205 209 207 208 207 206 206 208 207 206 207 206 206 210 204 206 205 204 206 205 203 202 204 198 198 194 191 190 187 185 184 176 174 166 149 138 122 81 53 84 59 57 60 54 49 31 31 36 35 37 39 42 39 46 61 65 70 84 105 110 119 129 130 132 135 133 135 142 151 157 158 160 164 167 177 180 186 190 197 197 196 202 202 201 204 206 208 206 208 208 208 209 206 208 208 208 209 209 206 211 203 209 206 207 206 207 207 207 208 208 205 207 204 207 203 203 196 195 190 189 185 185 186 185 174 167 162 139 128 83 65 73 78 51 68 58 59 28 35 33 32 35 39 35 36 51 51 67 63 82 98 105 113 125 131 134 135 134 134 141 151 152 158 162 167 172 177 182 183 187 191 198 196 201 202 204 208 207 208 208 208 211 209 206 207 208 209 209 209 208 207 209 207 207 209 204 207 207 210 207 207 210 208 207 207 208 206 202 199 194 185 183 182 184 186 189 178 170 165 153 126 92 69 77 75 51 54 59 54 35 35 26 39 33 32 31 44 47 41 50 66 73 93 101 115 125 133 133 139 135 137 139 147 152 155 160 167 172 179 182 185 185 193 193 196 199 203 205 206 208 208 209 209 212 213 209 209 208 208 209 208 209 207 205 209 210 209 207 209 207 210 212 210 210 209 205 209 206 206 197 195 190 182 186 184 175 183 185 179 169 158 165 136 94 68 78 73 70 54 65 55 31 29 37 35 28 31 35 40 42 43 45 54 70 86 111 114 126 130 131 137 135 138 142 146 149 154 159 165 169 174 183 186 181 189 190 189 197 198 200 203 207 207 209 209 209 210 212 210 208 208 208 210 209 209 204 206 208 209 208 212 209 211 211 211 212 209 207 207 203 203 197 199 197 198 192 187 184 175 186 178 167 156 163 143 98 84 65 72 75 64 72 48 29 33 36 28 34 30 36 39 41 34 44 51 66 89 106 116 132 131 135 134 140 141 144 147 149 148 157 164 169 172 180 179 187 186 187 193 188 197 194 195 200 206 205 209 208 206 210 208 206 209 202 201 205 203 205 202 208 206 207 210 207 212 211 205 205 202 203 203 203 204 204 203 201 201 196 192 186 181 181 178 170 156 163 157 105 91 63 63 76 70 64 49 24 34 34 30 32 33 35 37 32 36 41 51 67 91 107 123 134 133 136 136 141 146 146 150 153 155 158 159 167 171 183 179 187 188 185 187 185 195 197 193 196 197 202 202 205 201 205 205 198 199 203 197 202 200 200 202 202 205 206 204 204 208 201 198 197 196 200 206 205 207 203 205 202 203 198 198 192 184 182 170 155 161 162 166 115 84 75 57 83 82 62 48 34 32 41 25 35 37 39 36 32 35 40 49 77 97 123 129 132 134 140 137 141 147 151 153 162 161 162 165 171 170 176 184 184 189 186 185 181 184 194 194 196 199 202 200 202 200 202 199 202 202 202 203 200 202 202 200 199 201 199 200 198 201 194 191 193 201 203 207 206 206 204 201 200 203 198 198 194 192 193 168 144 146 160 165 134 75 64 64 55 84 65 63 32 30 34 30 36 35 34 33 31 31 42 54 89 113 128 131 135 135 136 135 141 150 159 159 166 170 166 177 175 173 177 182 183 186 189 191 189 187 185 191 193 201 203 205 207 204 206 203 204 206 207 208 204 203 206 203 198 201 203 203 204 203 194 192 204 207 204 209 207 208 198 203 203 201 202 197 199 196 193 183 148 131 149 164 154 85 71 53 57 70 69 76 30 30 32 29 38 35 29 29 33 32 40 76 104 122 131 128 134 133 137 138 144 157 169 163 168 157 163 171 167 172 174 174 180 183 188 185 189 192 189 183 184 193 204 204 209 210 207 208 207 209 209 208 208 203 206 203 201 205 208 205 200 194 199 201 204 208 205 208 205 204 197 199 200 193 197 195 195 191 187 189 159 131 127 151 165 102 68 57 52 58 59 56 31 32 31 35 35 32 28 33 31 34 57 97 118 125 133 125 136 132 137 142 150 156 154 150 142 129 145 132 139 140 140 140 148 157 161 169 167 172 181 182 181 169 184 200 205 206 205 208 205 208 206 208 208 204 207 203 206 206 199 187 182 194 197 201 193 200 202 204 198 192 185 176 173 164 166 164 158 161 164 178 166 143 118 128 160 126 62 52 51 58 56 40 29 33 35 31 32 38 27 27 33 40 79 108 122 128 131 132 131 134 135 128 117 106 105 106 108 125 135 123 126 119 132 176 175 139 145 162 171 178 189 193 185 186 191 204 212 213 212 213 212 214 213 214 213 213 213 214 214 212 204 201 202 209 210 211 210 179 207 209 207 208 205 209 190 171 175 169 167 172 179 190 148 144 120 123 140 139 56 57 58 50 47 41 40 30 30 33 30 30 31 30 38 59 93 118 126 127 131 130 132 130 116 97 102 116 144 168 174 165 159 141 138 129 119 140 175 112 126 128 126 128 141 157 147 165 172 180 184 197 202 199 198 202 201 201 199 195 196 188 179 159 151 157 164 171 197 183 153 124 137 131 130 136 133 139 149 142 152 162 178 179 180 200 188 173 146 125 118 134 56 58 65 56 45 36 45 30 31 34 27 31 27 37 34 69 108 125 132 130 132 132 126 109 103 110 125 128 123 118 113 113 111 104 97 97 83 89 90 83 86 86 88 96 99 107 125 130 131 140 123 146 171 176 176 176 178 177 179 177 179 183 172 138 139 143 125 141 169 142 150 130 121 115 108 110 95 97 95 87 91 93 113 125 117 126 140 125 119 156 153 155 93 49 49 58 40 38 52 30 31 31 29 28 34 30 37 81 120 129 138 136 136 137 113 107 109 118 125 121 113 114 115 130 123 112 121 118 110 108 105 109 107 113 106 109 114 115 127 134 130 142 117 105 133 152 154 159 170 166 164 162 175 194 165 143 156 168 153 171 171 137 158 132 115 113 116 121 108 101 106 100 121 124 117 118 120 126 127 124 92 121 153 84 144 106 44 51 48 40 78 33 27 28 28 24 32 30 35 99 128 129 143 143 139 131 116 116 123 124 127 131 125 128 123 129 127 124 137 138 144 150 154 148 152 154 152 139 133 140 143 145 154 152 115 123 127 153 181 192 196 196 186 187 166 163 148 168 134 184 183 177 172 166 165 146 148 151 152 154 153 149 158 166 168 168 164 158 151 143 141 130 141 107 175 71 43 124 88 47 52 45 131 109 44 16 29 27 26 28 42 107 132 131 140 139 135 120 117 116 116 122 122 121 120 124 119 132 132 129 132 143 144 142 152 153 151 157 157 149 152 148 155 154 151 135 122 156 155 142 182 194 187 209 192 192 198 159 135 202 130 197 189 186 180 176 178 173 174 170 165 169 169 167 170 174 172 173 172 180 173 161 154 130 159 124 166 108 34 59 147 65 43 58 139 142 126 57 21 42 53 52 45 106 131 131 135 133 122 125 125 110 111 114 114 116 127 135 134 138 140 128 130 142 142 143 142 144 146 157 154 146 145 132 127 119 115 132 152 166 152 163 121 163 134 212 200 134 194 165 156 197 135 199 189 186 178 178 167 169 172 172 163 167 165 160 161 160 164 171 176 173 167 170 161 148 158 134 166 122 41 50 115 99 72 106 101 138 143 121 59 28 25 63 67 74 94 125 137 135 105 196 117 118 108 111 118 114 121 121 121 111 109 102 93 100 100 101 114 104 115 117 117 116 110 108 99 97 95 110 116 125 125 118 129 143 167 178 195 194 189 128 135 202 134 188 179 173 170 167 164 164 154 146 125 116 114 105 115 120 135 153 162 171 166 166 156 156 163 145 161 131 48 99 111 138 114 134 58 94 119 110 72 34 26 24 70 93 81 79 110 164 197 176 112 117 108 108 111 103 102 92 88 89 99 99 105 104 114 118 129 119 119 119 103 91 88 90 100 97 101 102 106 120 91 149 118 161 190 202 208 211 212 178 141 171 140 182 171 166 161 163 158 132 118 115 118 120 115 126 122 119 125 132 141 148 161 157 143 166 163 156 153 138 46 135 143 99 221 176 76 77 88 77 51 33 34 26 63 127 114 79 84 63 203 147 110 112 121 115 102 90 86 84 87 91 104 104 116 113 108 99 103 93 87 82 91 99 90 87 88 86 89 92 104 120 97 141 142 166 194 205 211 213 215 189 122 157 125 184 172 158 159 151 130 118 119 125 119 128 110 125 119 120 135 132 140 143 151 146 165 172 169 167 150 142 58 147 135 103 231 226 83 104 93 74 58 31 37 27 68 105 130 129 113 64 192 140 114 113 121 118 101 86 86 88 89 102 104 100 92 89 70 77 39 133 33 39 49 62 79 93 100 103 89 81 101 122 99 144 174 165 195 199 209 211 215 187 153 120 114 171 162 155 143 128 129 130 124 126 114 89 97 77 80 91 85 96 131 133 137 144 178 175 175 171 162 142 69 158 118 122 125 193 87 112 111 80 83 53 29 35 88 91 109 130 141 90 211 158 118 121 121 117 103 89 86 80 73 86 76 67 83 99 85 62 31 71 31 56 54 87 62 77 97 115 114 95 95 105 118 142 124 147 170 171 180 188 201 199 126 86 98 162 161 149 143 140 134 124 108 144 140 103 82 107 31 90 100 136 77 109 126 148 172 174 180 179 168 142 84 149 136 157 134 124 95 121 119 112 85 69 39 35 100 103 95 111 140 103 237 179 127 129 120 120 107 97 87 74 61 63 67 72 95 111 104 73 53 45 53 67 63 105 86 79 58 71 101 96 111 144 150 115 101 142 165 184 191 192 182 197 122 74 76 131 160 138 132 82 153 110 123 156 160 95 79 73 75 90 97 161 109 71 112 156 172 175 185 199 184 139 107 132 156 153 133 124 117 132 123 123 109 79 57 39 105 111 100 102 125 89 230 172 130 136 133 130 122 110 105 84 86 86 90 95 104 114 106 97 88 83 86 89 82 93 96 101 84 153 194 199 215 219 175 73 111 152 188 206 209 211 212 192 141 103 55 134 147 113 113 98 125 107 115 129 149 99 88 64 156 76 111 131 98 91 100 142 166 176 179 191 180 145 145 115 178 153 134 131 130 132 124 122 109 74 62 49 112 116 108 103 116 85 236 188 129 138 138 137 134 125 118 104 103 109 112 115 118 120 103 103 108 106 110 118 108 104 115 126 139 232 220 220 221 222 154 82 126 168 196 209 207 212 211 206 169 87 90 135 146 141 139 133 124 125 128 133 137 126 114 110 115 113 125 132 109 182 196 182 174 188 189 192 180 162 166 123 176 180 136 146 136 124 115 107 84 41 75 66 116 118 112 110 111 82 230 204 135 133 141 143 142 138 131 112 109 114 122 132 137 137 119 110 111 106 113 108 104 102 99 99 73 158 166 162 162 115 103 107 148 180 194 210 210 215 208 204 194 101 127 121 148 142 139 139 128 130 129 133 144 137 146 150 151 147 151 147 157 233 221 219 217 218 201 186 176 170 167 152 154 230 174 146 138 115 111 95 85 43 76 76 116 120 116 115 118 69 205 209 139 138 141 146 153 152 143 127 115 114 117 133 134 140 122 110 112 107 109 96 99 96 106 107 109 111 121 137 108 108 109 123 158 177 192 212 211 214 207 197 204 129 142 125 142 142 142 141 140 141 143 144 148 148 156 159 164 165 168 156 158 229 220 220 221 225 211 182 172 163 177 138 106 222 215 148 130 110 98 98 99 68 64 93 112 117 117 119 115 87 156 196 130 138 140 146 148 152 154 144 140 131 114 113 111 113 100 99 102 106 104 101 112 119 121 123 132 139 151 151 104 122 114 138 161 175 193 208 209 217 209 195 203 151 182 107 131 147 142 143 147 144 145 145 158 159 165 162 169 169 168 151 124 166 220 222 220 230 200 183 171 157 180 83 153 233 198 122 124 106 101 121 115 84 71 95 113 114 117 124 120 122 93 176 127 134 147 148 149 152 148 146 147 145 138 130 125 118 112 116 123 121 120 123 130 145 139 140 149 151 159 121 123 111 133 149 152 172 186 207 206 213 210 197 198 179 160 162 130 143 142 144 142 146 148 147 149 150 148 153 153 150 140 139 156 185 191 219 216 208 187 181 166 166 164 42 179 234 177 82 126 109 108 124 115 102 82 102 111 113 117 127 127 121 115 127 131 133 151 149 152 153 153 151 155 153 152 156 150 150 139 136 135 142 137 142 147 157 156 159 159 159 138 114 129 117 145 151 146 165 173 204 206 212 203 197 193 203 159 195 170 140 142 138 136 137 144 146 148 142 139 126 129 136 153 166 180 190 193 198 196 190 189 170 163 179 113 67 200 187 143 62 137 130 115 119 123 108 107 115 108 109 119 123 126 124 131 95 138 126 141 150 156 155 158 156 156 165 155 158 158 158 159 153 145 150 151 154 158 162 165 160 164 143 114 133 116 131 153 153 150 158 179 200 208 204 201 196 191 202 167 185 188 181 135 164 159 152 153 148 140 143 139 148 149 169 177 183 182 192 191 194 195 191 182 168 165 168 80 157 198 181 113 53 143 152 139 130 144 111 132 116 100 110 119 122 128 127 123 106 116 138 138 146 157 157 151 162 169 174 167 169 171 162 166 163 163 159 163 165 165 165 161 161 142 120 135 130 112 149 157 152 151 154 175 200 203 208 203 196 191 201 182 174 199 189 192 131 183 189 180 181 175 170 170 179 179 184 186 191 185 191 190 191 190 191 181 167 168 118 176 191 182 174 74 69 110 146 160 144 150 125 130 105 99 107 113 123 128 124 122 111 114 121 146 152 156 156 161 167 169 172 166 167 176 174 175 171 173 168 177 173 169 166 156 130 126 135 141 118 130 158 160 152 151 162 169 200 206 208 204 196 190 198 197 178 195 201 194 192 140 163 195 195 194 188 186 191 188 188 190 192 189 195 194 193 193 184 179 169 177 183 223 219 184 145 58 77 96 111 140 159 166 143 117 102 99 105 111 120 126 129 124 117 128 118 107 189 193 170 171 167 166 169 175 178 182 179 182 183 185 184 177 173 161 138 130 137 157 142 118 121 144 158 157 154 160 167 178 201 208 212 202 197 193 196 204 182 190 199 202 201 196 166 146 173 196 199 198 199 196 195 200 199 200 210 205 207 210 208 193 192 209 204 180 192 182 104 60 76 98 98 85 153 167 154 123 103 97 104 106 116 125 133 129 127 123 123 117 111 158 201 195 183 183 189 188 194 193 187 182 180 174 167 156 147 145 150 162 163 154 138 111 127 151 148 147 153 160 172 180 199 208 212 206 197 191 194 195 189 185 198 205 206 205 201 188 167 157 166 178 187 190 194 202 206 211 215 217 221 220 220 224 215 180 164 178 171 168 75 68 70 54 111 90 130 165 166 153 112 97 103 101 114 118 133 137 132 127 134 127 136 126 140 153 153 152 157 160 157 161 163 160 165 167 177 183 168 168 175 172 161 147 129 112 131 142 138 137 148 164 178 187 198 206 211 205 201 195 189 191 181 192 194 203 204 207 205 202 202 196 193 181 183 179 179 189 194 200 204 217 215 216 209 209 176 172 169 167 177 130 62 71 68 45 73 114 127 146 156 169 112 92 103 101 107 116 128 138 138 134 136 129 125 135 147 154 163 166 174 181 180 187 187 189 190 194 201 198 191 172 172 165 157 138 120 115 130 145 141 139 151 163 182 190 200 203 208 204 204 197 187 182 175 186 198 203 202 203 200 200 201 200 202 200 202 201 204 204 206 202 205 195 186 176 174 174 177 173 169 177 169 82 68 68 73 54 34 106 142 134 136 153 122 94 104 105 105 109 126 133 137 139 138 135 133 144 156 157 167 169 178 183 180 180 181 183 188 191 195 195 196 176 160 157 144 132 116 111 137 154 155 150 151 165 179 190 199 204 204 207 204 197 189 182 166 175 195 200 201 198 196 199 195 198 197 197 201 199 200 202 203 200 206 203 201 190 179 179 185 178 169 190 122 57 72 66 75 51 35 69 131 135 133 129 114 89 107 107 107 107 123 134 133 133 134 133 132 139 156 159 159 165 164 172 167 171 175 174 179 189 187 190 195 188 160 142 137 122 108 125 158 171 168 159 158 167 173 188 200 205 204 207 204 201 190 188 167 160 186 194 195 194 190 194 190 189 194 194 192 193 194 197 198 198 201 201 200 193 182 177 184 172 186 168 68 63 69 72 66 47 51 39 115 128 142 134 120 101 105 109 110 107 118 127 127 130 130 127 135 138 144 153 150 157 155 162 159 165 171 179 180 186 186 193 195 193 190 144 132 113 117 164 171 174 169 165 166 168 170 184 205 204 207 207 204 202 194 190 194 169 177 192 186 189 184 190 187 183 186 187 184 185 188 192 192 195 197 197 198 192 187 177 181 167 198 148 54 69 67 73 67 47 52 36 89 129 139 146 144 110 93 113 113 103 114 125 125 129 127 126 131 139 140 146 141 145 154 158 158 171 177 179 181 188 192 193 197 200 199 160 135 101 154 176 169 163 159 153 157 157 165 181 206 208 206 207 203 203 195 189 201 205 178 189 188 183 183 181 185 186 183 188 190 188 187 188 191 195 193 190 194 188 189 182 181 163 201 150 46 70 69 68 69 48 47 55 37 111 126 139 141 109 92 108 112 105 111 121 121 122 122 121 127 139 139 137 142 142 156 161 166 171 177 184 182 188 197 197 200 194 168 150 134 102 141 153 150 144 145 130 135 140 146 167 196 206 207 210 200 193 188 189 198 205 169 186 184 183 179 180 186 183 188 193 191 192 192 194 188 192 191 189 188 188 189 183 174 169 201 123 53 71 64 70 69 48 47 51 47 54 99 121 127 89 92 98 115 109 107 114 120 119 120 118 127 132 137 135 140 147 159 158 170 175 185 183 192 191 197 197 181 147 135 135 133 104 110 134 143 140 139 130 120 124 136 154 185 206 210 197 186 179 182 188 191 182 165 188 191 189 186 180 176 181 190 192 193 194 197 200 197 193 193 190 190 190 184 178 173 177 178 72 61 71 67 73 66 48 46 50 52 43 56 77 103 75 78 108 112 112 109 108 112 116 113 115 124 128 135 138 142 152 161 169 176 184 184 191 195 189 191 164 130 126 136 135 138 139 82 125 147 120 99 92 101 126 143 158 179 193 196 188 184 167 164 147 139 151 176 194 194 196 188 177 173 182 183 185 193 192 195 196 197 194 191 190 185 189 186 176 172 171 113 62 66 72 64 64 68 46 50 49 50 49 48 50 55 46 62 107 112 116 111 106 110 111 112 112 124 125 130 137 148 152 165 168 179 186 190 190 191 169 136 121 118 128 134 132 143 147 129 86 90 91 87 75 52 85 157 167 174 188 188 200 178 135 136 118 127 159 165 189 193 196 190 187 172 172 179 186 190 193 194 199 192 190 192 190 187 185 182 178 163 116 63 66 66 66 68 66 68 46 49 48 54 49 50 49 49 44 52 105 111 116 112 106 105 107 103 114 122 121 132 139 149 161 167 173 179 188 192 181 146 120 117 120 123 128 139 142 148 151 148 115 99 93 97 102 96 58 109 173 176 173 180 189 157 132 122 117 136 162 147 161 184 189 188 188 185 165 164 177 187 195 191 196 186 182 193 190 186 182 177 179 151 59 61 71 66 65 67 66 69 53 49 50 49 48 49 48 48 48 41 97 107 118 114 113 104 105 100 110 117 121 131 139 152 163 171 178 182 183 161 123 109 110 113 124 124 132 138 144 144 140 143 112 86 94 94 103 116 109 102 155 176 167 174 164 128 120 106 109 126 133 142 140 154 173 178 185 184 189 166 156 171 190 190 194 188 185 193 187 188 178 172 177 135 52 62 65 66 68 66 63 65 52 49 50 51 55 48 49 50 48 39 92 108 114 114 117 104 107 103 107 113 113 127 135 153 163 173 176 160 129 97 112 112 109 107 117 118 130 131 129 124 125 131 103 93 86 82 97 98 122 131 148 166 168 157 127 107 116 100 104 113 120 123 122 141 138 166 161 160 179 167 169 146 164 183 185 190 192 192 186 183 174 170 179 109 51 69 66 65 69 65 70 65 51 47 46 50 54 51 54 50 53 40 81 110 113 115 118 109 109 107 106 113 108 117 129 148 160 164 142 99 98 98 108 103 102 108 116 117 122 124 108 111 104 105 101 94 85 86 96 88 104 114 137 166 152 122 114 84 102 116 98 102 109 107 111 117 137 139 134 131 148 143 150 154 138 165 182 184 189 188 175 176 171 170 178 93 55 65 67 64 66 66 63 69 46 49 47 52 46 54 50 49 52 45 71 106 109 116 118 116 110 111 106 111 107 106 117 140 144 130 106 92 96 99 102 102 100 109 111 114 114 110 104 96 98 89 88 86 82 83 89 83 97 111 124 152 139 93 105 85 92 113 100 103 103 101 92 98 121 127 114 104 125 121 111 116 133 125 170 185 190 190 171 172 172 171 175 76 59 69 69 66 70 66 64 70 50 48 52 49 51 53 49 54 53 45 63 105 111 116 117 117 113 113 109 110 112 108 116 120 121 108 96 104 112 116 117 98 109 109 101 111 109 104 99 94 100 86 88 89 83 96 92 101 102 111 128 150 135 96 93 89 91 104 87 94 101 89 87 93 98 105 108 104 99 119 102 106 110 95 154 187 187 186 173 169 159 160 173 62 61 68 68 66 63 64 67 68 49 48 50 45 49 50 51 53 53 46 56 98 111 116 117 116 115 113 115 115 108 108 111 121 125 121 100 118 113 118 109 111 104 101 107 108 106 95 96 88 93 88 87 92 92 94 104 92 92 99 129 152 138 93 79 83 101 87 87 84 97 81 95 87 92 92 101 106 90 112 115 101 104 87 123 174 189 186 173 177 166 164 156 54 68 64 66 69 64 66 62 70 52 49 48 50 53 49 50 52 49 50 44 104 109 113 115 119 117 111 116 111 105 104 108 111 131 126 100 112 119 108 108 108 102 104 104 99 92 90 83 94 93 84 78 84 88 87 91 89 92 110 122 142 149 101 74 82 103 98 86 87 93 91 99 97 85 99 94 107 97 96 116 107 101 96 106 151 179 179 167 168 174 173 145 50 63 70 65 66 63 67 62 58 48 49 48 53 47 50 50 50 51 55 35 95 105 112 116 117 116 112 115 111 99 104 105 114 112 113 106 108 100 105 104 104 102 99 98 97 97 106 101 100 99 95 92 93 91 91 102 99 105 120 129 143 138 132 125 117 116 107 99 91 113 117 113 118 102 104 101 110 104 98 105 108 97 98 111 123 156 160 158 168 167 169 127 52 68 67 66 57 72 67 66 62 48 48 46 51 47 47 52 48 49 50 38 91 102 107 112 117 118 113 116 110 97 103 107 112 119 121 105 95 95 106 103 106 97 53 63 85 91 110 113 108 117 108 116 122 123 125 144 142 142 147 161 166 165 167 171 171 159 155 111 119 148 139 133 149 120 84 86 106 107 126 104 110 100 122 118 131 146 139 171 173 167 163 93 63 65 69 61 66 69 65 63 68 43 50 47 47 46 47 49 49 53 51 40 71 101 106 111 115 120 114 114 105 106 95 108 114 127 113 110 108 96 102 97 110 91 79 41 38 58 97 103 116 110 116 123 121 123 129 135 134 141 140 148 157 163 162 161 162 162 163 147 146 160 147 147 111 80 71 97 125 120 129 117 109 117 124 125 144 132 135 154 164 172 160 74 61 68 65 70 64 64 70 68 67 46 45 48 50 51 50 46 47 48 50 44 60 93 108 112 112 113 116 116 105 106 94 96 103 115 119 123 118 105 100 93 111 116 112 92 74 53 73 75 87 104 111 126 130 129 140 134 142 136 146 139 158 159 159 163 169 169 159 159 147 145 130 123 108 96 112 142 150 122 141 121 120 127 128 139 153 157 151 151 166 168 142 70 64 68 64 66 64 62 67 67 68 46 53 45 51 56 46 52 50 49 53 44 53 95 100 108 112 112 117 117 110 110 100 96 100 105 121 124 134 122 110 101 114 126 120 115 92 87 85 92 75 71 76 79 81 87 119 131 139 142 143 146 161 162 154 158 163 153 124 117 121 114 121 130 130 123 155 177 166 144 142 127 133 150 150 159 149 153 147 157 172 168 118 60 62 67 67 66 63 65 58 63 74 48 47 48 50 50 51 51 53 50 52 49 47 82 98 105 108 114 114 115 117 111 108 99 104 106 113 122 132 135 119 109 117 124 125 117 115 99 96 98 90 93 96 90 86 85 87 92 100 109 118 123 126 124 117 115 108 112 113 121 135 129 132 139 133 152 180 182 177 168 143 129 155 151 154 161 154 164 162 175 168 166 90 65 59 64 59 66 60 63 61 61 66 51 50 52 46 47 50 46 48 50 48 45 39 71 89 105 101 117 115 115 119 105 98 102 103 109 103 115 124 129 124 114 118 121 127 119 117 118 108 102 100 97 103 100 97 100 107 105 115 113 114 114 113 110 114 118 121 126 131 132 145 140 141 137 157 179 181 187 183 170 156 148 178 183 157 167 166 166 174 173 169 148 67 55 59 61 60 61 62 64 59 66 64 51 51 48 47 46 50 46 45 51 45 43 43 59 86 97 103 114 112 114 113 98 102 105 106 105 105 110 104 124 121 108 119 121 126 118 120 118 113 116 107 110 102 111 108 112 122 124 138 138 133 134 130 129 133 135 137 149 147 147 150 151 151 164 187 180 181 187 181 162 173 169 191 190 167 163 175 164 176 172 173 119 58 59 60 62 58 56 60 58 62 57 60 46 48 49 45 41 48 44 43 48 45 49 47 46 81 92 98 108 111 114 108 103 101 105 103 102 102 106 104 126 117 103 112 123 123 119 117 119 114 115 117 124 120 122 123 118 124 128 136 141 140 149 145 144 150 157 165 172 159 156 161 166 179 187 186 180 182 184 167 162 184 181 194 177 177 177 176 175 177 173 166 90 49 58 61 58 58 64 57 63 66 58 55 48 49 48 47 45 45 43 51 46 50 48 46 37 70 89 97 104 102 111 107 103 102 105 100 97 92 100 103 112 108 107 111 121 125 122 117 117 111 112 111 114 122 130 136 138 137 149 146 149 147 149 149 152 159 160 172 177 174 176 186 186 187 187 185 180 184 175 151 160 191 183 173 171 182 184 182 180 181 174 144 59 47 55 57 58 58 57 59 60 62 60 56 48 50 48 46 51 45 49 47 46 51 50 49 39 67 82 91 101 102 103 106 102 107 102 97 98 99 99 99 108 106 106 113 116 133 122 123 116 113 114 109 109 109 109 123 134 133 140 148 154 149 140 151 156 163 168 180 185 187 185 187 179 180 187 184 183 178 162 162 140 187 179 165 183 189 184 185 180 176 164 112 47 53 56 49 53 56 58 57 56 60 55 60 43 49 47 47 46 46 45 49 44 48 48 51 38 78 87 82 96 102 97 104 103 103 102 97 97 104 92 89 92 103 100 108 119 127 134 129 122 118 114 110 110 107 104 100 109 109 115 115 112 115 104 123 111 123 142 154 159 165 169 171 170 183 185 184 173 172 157 153 142 168 172 166 187 187 186 183 179 167 149 68 48 51 52 52 49 50 54 55 55 56 56 60 49 46 45 42 50 44 45 42 46 44 47 47 36 84 103 81 86 104 97 101 102 100 99 99 101 93 92 85 95 84 103 110 112 120 129 132 129 123 116 119 107 106 103 103 92 90 103 96 82 90 95 90 92 94 111 130 134 141 152 169 171 183 180 180 169 158 159 123 150 149 174 175 184 189 189 182 171 164 110 47 51 50 50 52 46 52 51 53 50 60 54 58 48 41 49 48 44 48 45 43 51 43 47 46 35 88 117 80 81 95 96 96 103 98 98 99 94 86 82 93 84 88 101 91 110 115 126 126 128 124 124 126 112 102 110 97 85 86 81 87 76 88 87 80 76 84 102 106 127 152 149 165 176 167 174 178 153 141 150 125 137 153 172 176 186 187 184 176 171 145 66 46 48 48 48 49 49 50 44 52 53 55 49 55 56 53 49 47 46 48 45 47 49 49 48 47 30 96 111 97 79 80 86 91 95 96 93 92 93 86 80 86 84 94 92 96 112 113 122 128 131 130 131 127 115 112 108 91 86 87 72 88 75 76 83 72 80 76 101 104 116 167 148 166 165 177 160 181 155 143 128 135 123 143 171 177 178 183 185 178 158 92 44 51 47 46 45 48 45 48 51 48 51 53 51 54 57 52 51 50 48 51 49 48 48 49 49 49 36 100 112 107 85 81 82 90 93 96 85 83 77 78 91 79 86 85 97 93 120 109 124 130 137 145 135 124 112 102 95 88 87 82 74 81 82 81 84 70 92 76 104 103 104 153 134 164 160 180 174 181 165 142 129 132 128 142 172 173 184 174 175 176 114 48 44 48 47 45 44 44 45 50 45 51 48 47 51 51 50 52 51 52 46 47 46 52 50 52 47 44 43 105 110 109 96 80 83 88 91 82 87 70 69 70 72 72 86 88 94 91 104 102 116 132 144 157 144 129 118 108 99 100 90 89 93 80 84 81 80 91 96 95 110 99 98 145 144 155 169 177 181 167 155 147 127 136 105 135 166 179 180 174 174 130 66 45 47 49 43 48 47 47 43 47 51 45 47 49 42 53 54 57 54 51 48 49 46 50 48 52 45 39 48 109 107 107 97 89 78 88 86 80 84 73 71 67 72 73 84 83 83 90 89 82 103 124 129 138 139 121 115 97 98 96 99 99 101 93 86 86 108 104 104 109 117 98 102 119 143 162 160 180 180 170 128 142 119 132 127 106 140 180 172 173 131 66 41 49 44 51 44 49 46 47 42 48 43 47 45 44 45 48 56 55 56 52 45 49 47 49 45 49 48 37 59 113 109 106 97 91 85 78 84 74 86 75 66 66 58 65 70 62 80 81 80 76 88 113 119 120 120 107 98 106 106 104 106 112 109 96 108 105 119 106 117 116 124 95 121 121 123 158 143 161 151 158 126 127 114 126 110 128 126 159 172 142 66 40 53 49 53 45 49 48 46 48 41 48 40 49 45 44 47 44 54 56 54 52 48 47 48 49 47 50 44 35 74 117 112 109 99 96 85 83 77 73 85 66 65 60 56 55 62 73 60 79 70 73 78 99 104 100 107 103 112 101 109 104 112 106 119 106 119 120 118 108 127 121 123 105 135 135 121 127 141 162 128 141 120 119 113 108 91 137 132 138 160 115 37 42 54 53 57 50 58 49 42 45 46 43 46 44 44 40 45 46 55 54 55 54 50 44 55 51 47 46 45 30 91 119 117 109 101 97 89 81 80 77 77 66 64 59 56 61 50 64 63 79 65 68 77 83 101 93 105 98 103 96 112 107 108 107 113 121 122 127 131 116 125 126 119 108 142 147 117 128 139 161 132 120 118 112 98 98 95 117 130 137 161 114 45 56 54 49 49 47 46 50 49 39 44 44 46 43 43 41 47 43 56 55 53 59 50 50 47 54 45 45 49 31 107 120 118 115 107 100 91 84 74 78 71 63 67 61 58 60 54 52 64 73 59 63 69 87 83 86 96 92 91 89 108 111 104 109 113 123 117 146 130 124 130 130 115 116 142 136 123 125 120 138 127 115 104 97 88 96 91 96 121 145 161 111 47 46 48 46 46 46 48 41 56 37 39 45 44 42 47 42 42 46 55 58 55 56 55 48 53 47 47 46 46 40 116 121 125 117 117 104 95 86 74 69 66 76 61 68 58 61 65 65 53 69 65 65 77 82 66 73 94 85 88 85 109 112 112 113 125 114 119 136 123 116 117 128 114 122 138 137 134 129 109 116 113 102 90 80 82 87 88 93 121 144 164 106 53 49 48 47 45 44 48 45 50 39 41 42 42 39 44 45 42 43 53 56 56 50 54 50 49 51 49 43 43 81 118 118 126 122 122 114 101 86 65 66 69 66 68 64 55 53 60 49 61 63 57 61 77 71 72 71 89 77 85 95 93 101 110 107 118 112 115 116 119 112 112 123 111 119 130 133 132 125 104 110 110 85 86 75 73 92 81 101 113 126 161 104 46 59 50 41 48 42 45 47 43 44 40 42 39 42 39 46 41 47 55 52 51 53 54 49 46 51 46 43 109 113 116 120 123 123 126 116 111 92 76 58 74 71 66 71 56 52 62 54 53 55 55 61 67 73 68 71 77 71 89 94 90 95 108 100 106 111 119 110 108 110 107 111 115 112 117 123 120 102 99 93 96 83 77 78 63 82 86 101 124 128 158 109 46 65 48 42 47 45 47 42 44 41 44 41 41 39 41 45 43 42 54 57 54 54 58 46 56 48 42 113 129 105 117 118 125 126 128 120 115 94 78 68 61 73 71 67 54 60 60 58 60 46 50 53 64 70 65 66 59 71 83 84 92 81 95 99 87 101 112 108 91 97 97 99 111 98 102 106 105 91 93 90 77 79 77 73 83 73 98 100 127 146 154 102 47 59 55 44 42 45 44 42 42 41 42 45 43 40 39 44 41 42 57 55 52 53 57 36 87 67 117 149 99 110 119 121 125 128 127 122 102 81 83 76 70 71 63 67 70 59 68 59 58 44 63 48 81 59 65 53 55 71 82 77 83 86 85 90 90 97 107 87 72 71 90 87 97 92 90 93 85 74 89 83 77 59 78 72 86 83 95 98 114 132 138 103 62 66 62 55 46 45 44 39 40 45 38 42 41 42 41 38 47 39 