P2
92
112
255
53 52 61 58 53 60 56 58 59 64 66 56 61 66 60 63 63 53 56 76 66 77 69 56 68 60 69 65 60 56 59 47 75 52 53 48 54 38 49 46 42 48 45 39 40 34 47 46 37 36 43 47 50 56 49 46 51 61 65 62 59 66 62 64 52 54 56 69 65 65 74 61 78 73 65 62 61 61 60 60 60 59 58 61 56 61 63 57 60 56 62 59 53 57 59 56 56 60 56 60 60 64 67 62 64 63 63 71 61 64 62 61 64 68 69 60 61 65 64 77 56 61 57 48 61 54 49 42 39 45 42 49 45 51 52 39 35 35 41 36 33 36 42 53 49 58 50 72 54 51 58 58 56 55 62 65 64 67 52 60 80 54 62 62 84 75 75 78 66 60 60 61 56 59 59 60 57 60 59 54 64 57 56 57 58 57 58 60 59 59 62 56 59 68 61 67 62 68 68 66 60 58 60 57 59 66 64 66 64 65 81 60 63 60 51 49 45 53 46 45 37 46 46 40 47 42 46 47 41 43 40 31 35 43 43 49 42 54 40 48 46 49 50 54 47 56 62 75 62 51 43 59 72 56 58 57 79 76 57 91 74 64 57 65 60 64 57 63 60 59 60 58 59 61 57 57 53 58 57 57 62 59 59 61 57 64 67 67 63 79 65 69 63 65 70 59 60 52 65 63 63 65 75 64 61 59 50 47 38 52 54 38 48 47 38 45 51 38 36 31 43 43 58 40 36 43 47 41 35 36 36 33 36 41 41 55 51 65 52 75 50 49 40 63 61 64 51 61 75 69 50 82 69 69 61 61 67 59 61 61 59 62 62 57 67 56 66 53 59 53 58 56 61 52 62 63 53 67 66 66 69 75 69 70 77 62 66 55 66 53 59 60 64 66 58 66 66 52 51 46 48 36 63 48 42 45 40 40 39 50 35 34 34 36 49 50 55 57 57 55 56 46 35 30 44 36 45 40 67 45 60 62 47 39 57 75 58 63 54 71 74 66 70 74 75 64 64 56 58 56 56 65 64 56 63 57 59 57 65 54 61 52 63 60 62 61 58 61 60 60 75 63 72 84 73 75 65 66 68 74 48 65 54 55 59 57 61 61 59 66 55 56 52 46 45 54 45 51 45 44 39 41 41 40 44 46 37 44 61 65 71 74 57 64 43 43 34 42 43 30 55 46 60 64 59 40 70 60 64 49 66 63 68 65 76 56 59 65 68 62 52 47 45 60 62 61 64 59 62 55 65 55 58 55 63 58 58 63 56 61 60 60 68 74 75 80 81 74 77 72 71 73 65 58 53 50 51 67 47 51 54 56 62 68 65 64 53 48 53 44 51 50 39 48 53 46 43 45 40 50 51 52 56 70 64 59 43 47 47 41 43 35 45 48 38 44 52 61 69 55 59 53 68 62 63 65 64 66 57 62 75 80 60 51 54 51 56 60 65 59 63 59 63 56 60 57 59 62 58 61 61 60 61 64 72 78 76 74 74 68 70 74 75 82 68 63 52 53 47 59 69 65 67 71 75 87 82 71 63 58 58 50 54 50 58 47 44 46 44 44 41 48 48 47 45 59 49 51 51 43 46 38 42 38 46 41 34 49 62 76 61 56 50 52 64 62 67 63 56 66 73 74 79 85 75 73 61 51 48 60 67 61 63 61 61 63 59 57 60 61 61 61 62 59 59 69 76 74 72 73 67 67 63 65 75 81 67 67 54 56 50 38 70 78 66 74 78 85 93 88 63 69 61 49 53 49 59 51 55 50 47 47 51 56 55 53 41 47 43 49 35 49 42 42 32 46 41 37 44 51 56 58 55 71 50 60 62 67 81 66 64 65 71 70 71 81 84 77 71 64 45 62 65 60 59 63 64 60 60 64 56 58 63 62 61 61 63 73 83 76 63 75 68 68 59 60 67 79 74 63 60 71 66 58 51 67 78 64 87 82 85 83 67 60 61 51 48 47 51 50 73 54 59 54 67 60 55 52 46 43 40 47 40 39 41 32 39 43 38 35 40 46 54 61 59 61 56 59 62 67 66 64 63 64 67 72 79 76 80 79 71 61 56 58 63 63 62 62 66 59 59 60 58 60 60 65 58 66 62 74 73 72 66 72 74 62 66 51 65 80 82 71 70 61 64 67 61 59 82 79 75 56 65 73 60 52 58 55 55 48 46 58 65 62 67 62 59 53 56 43 47 47 50 57 44 40 46 35 37 45 42 43 39 38 49 52 64 57 64 57 61 58 65 63 61 62 60 70 79 80 85 88 74 67 45 58 54 62 63 66 64 60 59 65 57 60 63 59 63 64 63 68 75 60 71 76 66 68 54 53 71 71 86 71 73 66 74 80 67 67 63 73 70 61 56 48 70 57 67 68 61 56 51 65 61 60 62 71 57 55 53 48 47 49 47 49 50 38 43 42 43 41 48 50 45 38 49 47 72 67 66 62 61 65 63 67 59 50 44 62 73 65 74 82 78 69 59 54 53 57 55 57 61 61 55 67 59 62 57 61 67 57 64 69 68 66 64 81 73 74 58 56 62 70 69 67 75 72 65 69 73 74 66 67 59 65 68 55 69 69 64 65 57 57 53 67 71 84 73 63 71 67 65 54 45 44 38 39 51 44 47 40 56 45 48 41 52 43 47 52 53 53 60 57 51 61 54 56 55 51 51 58 67 72 69 81 79 74 67 63 51 55 55 49 58 65 57 63 62 64 62 63 67 53 63 75 61 70 71 76 84 76 74 60 63 65 74 70 72 69 70 70 63 71 68 74 77 66 73 64 71 63 70 64 63 67 71 73 80 88 86 82 79 79 72 65 55 45 43 39 40 53 56 47 45 63 48 47 48 51 45 46 49 47 47 52 53 57 58 50 53 44 54 61 64 73 67 74 73 71 68 61 62 59 51 56 50 57 65 60 56 66 66 59 67 56 69 67 57 67 66 82 79 63 73 74 66 75 70 72 76 77 66 63 66 64 73 79 68 72 83 77 78 76 69 64 55 73 86 85 87 81 93 89 88 85 74 74 59 53 42 38 52 63 69 59 68 49 62 69 57 49 51 49 48 45 50 50 71 76 75 60 59 62 58 64 59 69 70 77 75 65 76 64 67 56 50 51 46 53 60 62 61 67 53 59 58 61 62 56 63 55 76 73 83 76 65 65 79 71 73 72 67 72 72 70 71 68 64 90 81 83 81 79 86 91 81 77 66 80 81 82 89 74 101 91 91 72 84 65 61 49 52 34 66 84 71 87 91 61 66 72 74 56 57 55 60 49 50 67 75 70 81 88 84 75 77 80 82 81 87 75 81 78 71 55 50 52 46 50 45 48 64 64 60 60 44 55 55 57 69 53 64 58 70 79 74 71 72 76 79 77 76 72 79 78 79 85 82 78 68 84 84 87 86 90 89 82 75 79 92 84 82 81 93 87 106 93 98 78 77 87 58 53 61 51 72 71 85 83 85 81 59 75 62 71 72 77 73 72 66 66 58 61 74 88 91 82 79 73 77 72 75 74 67 83 59 51 45 65 59 47 43 38 67 66 64 52 44 50 64 52 70 65 65 66 68 78 65 74 75 77 80 78 77 73 74 89 87 82 83 79 81 87 81 78 85 98 91 94 83 80 85 81 79 77 88 100 95 87 90 82 72 99 61 59 79 65 82 80 81 87 89 71 73 73 73 81 80 83 87 81 74 63 57 58 79 77 86 83 79 82 72 67 70 66 79 72 62 46 49 62 50 46 46 29 67 66 56 50 39 52 59 45 69 67 69 75 72 67 70 67 69 71 78 74 81 80 81 80 88 84 88 92 90 100 94 89 92 95 87 92 85 85 79 80 76 104 100 110 102 80 94 75 77 87 76 63 71 83 86 96 92 86 84 82 90 91 88 91 101 103 94 91 82 68 71 71 72 79 85 78 73 78 63 74 71 67 68 61 58 46 49 63 59 50 36 44 65 65 54 41 41 57 54 57 61 67 70 73 76 66 68 69 65 68 66 72 70 84 84 90 84 95 98 100 104 105 103 109 108 99 97 96 88 97 91 98 94 105 105 104 106 88 92 76 73 82 89 78 71 92 91 93 99 91 94 91 87 96 112 118 122 113 110 108 100 86 79 68 80 68 91 85 78 70 65 57 65 60 66 59 53 54 47 60 55 55 57 44 63 61 42 45 44 60 51 58 51 63 69 72 67 78 76 70 66 70 68 70 75 78 84 96 103 111 109 116 124 132 124 109 120 111 100 100 98 108 116 117 118 123 117 111 93 94 94 87 89 88 90 85 92 96 105 110 113 103 91 95 104 114 130 133 148 137 106 127 120 104 102 81 90 77 77 85 66 70 60 57 51 65 63 58 54 47 53 55 55 45 51 37 60 58 46 33 57 41 62 54 55 57 67 73 65 62 72 69 63 74 80 75 84 90 100 110 119 118 121 124 119 118 121 118 122 105 119 116 119 125 128 131 130 146 135 133 105 91 94 94 95 93 93 93 93 105 101 102 108 102 91 94 129 138 155 143 153 144 129 127 136 121 110 101 92 88 88 79 86 61 64 59 52 63 67 57 54 51 55 66 49 52 39 36 64 54 46 50 49 57 59 61 55 57 56 59 75 66 61 67 70 77 82 90 105 118 115 124 130 121 122 133 123 127 134 133 134 118 130 129 138 138 130 136 150 149 138 132 109 108 107 102 91 98 91 95 100 118 123 126 116 118 113 121 127 151 141 147 151 156 140 134 132 119 115 118 96 97 91 83 87 83 64 62 57 65 66 67 62 53 58 59 42 46 44 43 68 51 46 49 51 59 63 53 55 54 54 57 61 66 67 67 75 85 94 113 125 132 131 127 137 144 151 143 133 151 151 142 143 141 133 139 158 141 149 153 150 143 138 135 115 112 112 110 99 108 97 106 107 125 131 120 126 119 117 128 134 154 160 165 183 165 157 155 136 137 120 134 113 97 94 84 84 83 78 63 60 65 71 59 66 51 62 55 59 42 41 38 64 45 53 49 51 61 59 51 54 61 62 59 62 67 73 79 91 95 112 125 134 135 142 146 142 149 146 152 159 159 157 159 153 148 147 157 160 144 146 154 152 140 144 138 122 122 127 110 110 119 108 99 117 114 143 156 154 137 132 145 162 159 153 154 170 170 161 154 138 147 135 137 134 108 93 84 84 79 80 74 58 65 60 64 58 59 69 70 55 37 40 29 49 44 43 54 54 57 58 47 61 56 72 59 67 74 86 90 104 115 125 134 139 145 143 147 143 149 162 159 161 157 163 159 153 158 166 172 162 149 156 156 153 143 152 139 139 138 131 121 130 117 118 107 120 139 134 166 165 147 125 160 166 162 161 164 153 159 155 153 154 139 146 139 142 129 97 82 86 83 73 67 66 68 64 61 68 69 75 66 49 46 44 33 36 43 44 66 47 55 59 56 65 57 72 54 72 87 98 108 124 124 140 152 160 161 160 164 162 159 155 160 164 162 157 159 167 177 179 179 162 165 168 157 151 152 150 143 151 150 134 140 140 130 120 113 114 132 130 130 133 127 138 146 138 148 166 176 164 167 166 158 158 154 151 151 133 146 107 90 73 84 72 58 59 64 64 63 64 69 63 54 54 44 53 37 37 42 45 65 49 61 49 62 54 56 57 61 77 91 111 122 132 139 154 168 174 171 182 181 180 174 168 168 171 177 178 189 185 184 183 184 163 178 180 154 165 169 155 148 159 158 149 153 151 146 126 121 115 123 121 134 140 141 151 148 140 153 171 182 169 170 163 164 160 147 146 153 144 137 130 99 82 81 79 66 62 63 73 65 62 57 49 46 52 51 33 43 31 44 34 46 45 58 50 50 59 48 59 67 85 108 121 127 139 154 165 175 178 176 182 185 183 178 179 179 187 184 185 191 188 186 183 179 164 184 180 169 165 158 163 163 161 164 170 168 157 150 140 134 130 128 131 137 147 153 154 139 150 167 167 176 180 173 157 166 165 162 149 153 149 136 129 111 98 91 93 71 56 67 60 53 50 47 44 57 40 40 37 38 39 35 40 43 39 59 52 52 62 55 55 64 101 120 125 141 150 163 173 173 181 181 183 183 186 185 187 191 190 187 186 182 185 185 185 180 176 188 181 184 174 167 175 171 169 177 179 172 167 160 153 148 151 142 145 142 147 151 154 154 162 166 166 166 169 172 164 165 166 172 165 160 147 144 129 118 107 97 96 86 56 55 62 47 47 45 49 52 48 39 37 43 49 33 39 44 39 53 45 48 52 56 49 80 113 129 136 153 158 163 168 172 179 180 187 183 182 186 191 191 192 194 189 187 189 190 187 191 189 189 184 188 183 174 180 180 172 181 181 172 171 166 166 155 155 145 142 144 144 153 158 163 161 160 158 161 161 165 172 170 170 175 178 168 160 147 138 118 112 108 106 95 66 53 69 53 41 37 46 45 47 34 52 54 41 34 42 51 45 48 44 50 48 59 59 90 122 138 147 158 161 166 166 172 178 179 185 187 184 189 188 190 192 192 187 192 186 190 193 192 188 189 184 185 185 180 185 187 185 182 181 178 172 168 168 166 163 156 154 152 158 151 156 168 166 163 166 171 168 167 178 177 182 178 180 173 173 156 146 130 115 114 112 104 75 55 70 64 44 43 35 39 37 37 50 42 40 37 51 43 55 56 49 57 46 62 67 95 121 139 157 161 159 161 166 177 172 178 183 185 190 189 193 192 192 194 190 194 199 196 191 193 189 187 188 188 184 179 185 188 186 185 182 184 179 182 182 182 179 183 183 183 187 180 181 185 183 186 184 182 187 185 181 183 176 184 176 178 177 166 156 137 122 116 115 106 85 62 64 67 53 46 37 34 35 33 36 31 37 35 41 50 54 49 50 54 53 62 76 99 124 145 158 162 162 163 166 176 176 178 181 185 186 188 189 192 193 202 193 200 203 199 196 198 195 187 187 189 195 190 193 191 194 194 191 192 190 194 199 197 198 198 203 202 204 202 203 205 204 205 199 198 199 195 191 185 181 180 181 176 170 168 161 146 134 121 112 107 81 71 67 62 63 45 44 37 25 36 30 31 31 44 49 53 59 58 53 56 52 74 76 102 123 147 156 164 161 162 169 171 175 179 182 186 185 189 189 195 194 201 198 202 204 201 203 204 201 199 199 200 198 201 201 200 200 199 199 202 199 202 202 204 204 205 209 207 207 204 207 208 206 206 205 202 205 200 199 192 189 187 176 175 166 170 159 152 141 134 116 108 84 70 69 53 64 59 35 38 36 31 33 34 39 44 49 58 51 64 48 56 61 74 75 103 128 145 155 161 159 161 168 173 175 177 178 185 183 189 190 193 196 200 202 203 204 205 205 207 206 207 205 204 203 203 203 205 202 202 205 203 206 205 205 207 206 209 209 210 208 205 208 207 208 205 207 204 205 199 198 196 195 188 182 175 170 169 161 154 146 141 123 109 85 68 73 55 62 65 46 37 34 37 27 32 34 43 45 47 49 62 61 58 67 73 76 103 127 145 154 159 165 161 170 170 177 175 176 184 185 189 196 195 200 201 204 205 205 205 208 210 209 209 209 206 206 206 203 205 205 204 208 206 208 206 207 208 209 208 209 211 207 209 209 209 207 208 209 206 202 199 202 194 195 185 187 177 171 171 162 150 147 141 138 117 94 57 72 61 50 69 56 44 30 32 30 32 38 34 44 45 47 57 64 52 71 71 76 100 120 140 152 162 160 163 163 168 180 177 180 185 184 192 193 197 201 202 205 205 208 210 210 211 211 209 211 212 207 207 206 207 206 206 209 206 207 209 206 210 208 208 209 211 208 210 209 210 204 209 206 205 201 202 200 193 190 189 186 177 176 173 163 150 145 138 140 128 97 71 54 63 38 70 53 49 33 35 34 30 39 39 37 46 44 51 60 53 62 69 72 97 116 140 155 163 164 165 162 174 176 178 184 187 192 192 197 196 203 203 207 206 208 207 208 209 209 210 210 211 210 208 209 205 208 208 209 208 204 208 209 210 208 211 210 211 210 211 208 209 206 205 204 205 200 199 199 196 194 182 184 176 179 178 168 158 146 143 143 138 101 70 57 49 45 45 60 51 38 34 33 32 59 35 40 44 33 48 63 55 58 64 73 95 123 140 157 159 165 164 165 169 178 177 183 187 192 195 200 199 202 201 203 205 206 204 207 210 208 211 210 210 209 210 208 206 206 208 208 208 206 208 209 208 210 210 210 209 211 207 205 206 202 204 201 204 198 202 195 195 194 186 186 176 178 177 173 161 144 145 140 141 115 70 54 43 49 39 54 54 45 36 33 24 65 38 42 38 28 50 59 64 57 65 72 99 124 140 160 161 164 165 169 170 173 177 184 186 192 194 199 200 200 200 203 202 204 202 203 207 208 209 210 207 209 209 204 206 206 203 206 208 206 207 207 208 208 208 208 207 206 204 199 201 198 199 203 202 196 199 194 193 195 187 187 183 179 181 175 164 145 146 139 144 130 88 49 46 42 41 50 43 48 32 37 25 65 41 44 38 32 53 62 63 64 69 77 102 118 148 162 163 163 166 170 175 174 179 183 186 191 198 197 200 201 203 202 198 203 201 201 205 202 208 208 206 206 208 205 202 205 203 206 206 205 206 206 207 207 204 203 205 204 197 196 195 195 198 199 199 199 193 190 193 190 187 186 184 187 178 177 167 151 147 140 142 140 110 51 47 38 43 51 37 47 35 35 22 69 53 33 47 42 61 48 61 65 68 74 101 139 160 159 164 167 167 174 174 180 181 185 186 192 194 198 199 202 200 197 197 199 199 199 201 202 203 204 206 206 205 204 206 202 202 203 203 204 205 203 203 205 202 204 203 201 190 199 198 197 201 198 196 189 193 190 191 190 188 188 190 182 182 180 174 151 141 138 136 141 120 72 45 36 37 38 37 41 41 32 20 65 63 34 49 48 46 45 55 56 58 69 120 151 158 163 163 164 166 174 175 182 185 185 191 191 194 196 199 197 200 197 199 197 199 199 198 201 200 205 206 204 205 202 204 203 201 202 201 204 204 199 202 205 201 203 203 196 195 200 198 197 196 195 192 182 185 185 177 183 183 185 184 182 185 182 176 163 136 138 138 141 128 89 48 39 39 35 35 46 39 33 26 62 57 41 42 39 52 51 61 55 53 83 136 156 157 161 162 159 166 178 182 181 179 178 184 186 189 193 197 197 197 198 198 200 197 198 198 200 198 202 204 200 202 202 200 201 199 202 200 201 202 200 203 203 196 194 195 191 197 186 192 189 189 182 170 166 158 156 151 146 153 148 145 154 158 164 162 164 146 132 137 134 140 101 59 35 41 31 41 42 38 32 27 65 57 45 36 34 46 53 54 49 49 113 145 157 157 162 160 160 167 169 162 154 148 156 159 157 170 172 181 183 182 187 187 190 190 194 194 189 191 199 197 197 196 197 196 192 196 196 199 199 196 198 200 193 190 184 179 172 176 161 156 146 152 142 134 127 124 114 107 108 117 117 119 121 126 125 121 116 129 129 136 131 141 119 66 35 36 35 38 38 40 35 23 63 63 48 36 33 48 44 51 50 71 128 146 157 161 159 155 143 129 126 127 117 125 139 129 131 132 127 133 140 137 143 152 152 154 165 169 170 173 182 189 189 188 182 187 184 188 187 190 189 189 187 190 185 173 156 168 154 147 131 114 110 114 107 97 93 93 93 90 83 77 98 103 96 98 107 116 102 102 103 134 134 139 130 78 36 35 35 37 35 38 32 28 60 60 59 38 39 52 40 57 45 94 135 154 154 157 154 135 112 110 105 98 108 122 125 121 108 119 112 102 111 101 96 108 121 117 120 135 153 153 169 175 181 186 180 179 179 180 180 182 184 188 186 183 174 154 136 143 147 128 124 107 107 95 84 82 78 81 77 63 76 80 77 83 91 91 97 101 102 94 98 116 134 135 139 95 41 30 39 33 34 38 19 68 59 57 71 40 46 41 47 51 43 110 143 162 155 159 137 114 112 112 115 103 102 111 111 97 98 96 94 93 91 86 87 94 100 110 117 123 124 150 154 164 164 179 177 174 175 174 178 171 175 181 176 169 162 148 137 134 146 111 123 110 91 92 93 98 100 94 102 105 123 124 124 119 109 107 111 109 110 119 114 107 127 134 142 118 52 27 40 34 30 42 10 136 50 93 142 50 39 55 47 44 45 110 151 162 156 159 121 120 144 152 145 137 137 155 148 137 144 138 132 123 116 115 115 119 114 120 125 125 139 139 153 158 171 178 165 163 169 173 172 169 173 173 173 170 155 155 147 142 132 125 124 117 120 121 122 129 130 131 130 134 139 131 129 131 121 124 117 112 105 119 113 110 121 139 142 130 61 33 35 29 34 43 13 88 39 161 179 77 43 47 44 42 45 116 160 160 160 149 125 136 153 166 167 169 169 171 167 158 159 158 158 159 157 156 156 154 156 153 153 154 158 164 162 165 178 174 166 166 171 175 178 173 171 167 173 167 161 156 150 143 134 129 123 113 113 112 116 118 125 127 126 128 121 117 119 116 116 112 111 107 111 109 111 111 123 136 143 143 81 30 36 32 29 37 38 58 59 156 143 139 68 46 35 53 52 126 159 165 161 145 133 139 152 162 164 165 168 161 167 161 152 155 155 152 155 156 142 150 150 147 149 152 158 164 167 173 174 176 180 181 175 182 182 182 173 164 161 155 151 144 137 121 115 101 93 93 96 98 100 99 105 106 107 107 103 97 100 95 97 99 95 98 105 106 104 116 126 124 138 147 100 38 30 34 29 42 77 62 87 163 98 154 99 34 49 39 57 133 162 167 163 142 145 148 153 157 158 161 159 159 161 162 158 158 152 148 152 147 139 138 140 132 135 137 140 149 157 162 170 171 178 185 187 191 194 193 182 162 146 132 124 103 98 92 84 88 86 92 82 84 86 100 101 111 114 105 104 102 98 92 83 84 87 92 101 102 104 128 120 126 136 146 127 30 33 27 50 60 79 84 107 159 115 146 114 41 50 40 62 148 163 172 161 153 155 159 154 155 152 150 147 145 141 141 138 135 127 124 127 125 113 117 105 102 113 121 130 133 149 153 165 170 175 185 192 199 201 198 194 165 141 119 107 92 93 90 83 89 87 84 82 91 101 99 104 100 113 109 106 105 103 99 91 89 90 91 102 108 115 128 130 132 137 143 141 31 29 38 72 86 72 85 126 158 116 144 148 70 47 41 59 154 166 169 163 160 166 167 162 156 153 145 138 133 137 140 134 134 135 131 129 108 116 113 113 109 98 102 114 119 139 154 162 173 168 179 198 202 206 205 201 177 142 114 102 99 98 83 92 90 89 90 92 95 98 79 73 64 88 65 78 94 98 101 99 92 91 95 106 112 121 127 134 132 138 147 146 41 17 59 96 113 86 84 124 157 112 141 143 147 67 29 73 157 167 172 164 167 170 168 167 163 150 142 132 129 130 141 140 137 122 107 81 116 82 84 103 118 115 119 117 130 136 152 155 172 163 171 199 206 208 211 205 188 148 113 103 105 100 102 109 105 98 85 80 76 101 75 62 32 106 25 43 56 68 80 84 89 86 92 104 112 120 127 137 139 140 144 146 48 24 96 122 137 104 87 100 167 112 133 156 155 118 40 82 155 166 173 171 174 173 172 171 167 150 142 129 124 124 121 111 102 65 84 22 116 29 80 86 105 102 108 115 137 143 143 149 163 160 179 200 206 210 211 210 201 165 118 101 113 108 118 109 100 76 101 98 92 130 84 76 30 29 32 56 52 86 63 57 71 76 95 107 115 126 133 142 143 143 143 149 39 58 107 120 134 124 88 37 178 124 138 166 169 145 102 76 156 166 172 176 181 179 171 170 159 151 141 114 87 89 88 116 154 49 190 55 25 35 96 85 125 103 101 91 93 141 151 149 156 166 186 200 208 211 212 212 204 188 128 102 113 115 113 114 100 97 112 96 97 125 101 67 59 38 55 65 70 105 72 68 74 84 107 128 137 143 147 150 147 143 140 146 41 78 100 109 121 134 105 20 152 147 145 182 177 165 127 77 152 168 170 172 182 183 184 174 164 152 134 96 83 87 85 99 139 85 96 71 50 68 81 96 116 113 120 135 135 148 159 156 152 177 188 197 209 210 211 214 205 192 158 102 112 117 114 118 119 114 108 107 101 110 114 95 89 78 75 83 96 98 85 93 97 107 126 145 153 148 155 152 149 146 142 143 50 85 107 105 115 136 124 40 99 165 164 183 168 157 115 84 152 169 170 173 183 180 181 180 172 160 149 121 120 127 127 130 139 128 118 113 109 114 119 115 121 121 127 139 141 148 161 155 158 182 188 196 207 211 211 210 202 188 177 112 113 117 115 112 110 109 107 101 104 101 112 96 106 104 98 95 98 106 108 111 124 125 147 153 156 154 156 153 150 145 139 136 74 99 103 98 112 126 133 64 52 164 171 171 153 140 127 107 149 170 167 179 185 184 182 185 181 168 161 146 142 148 156 154 159 142 151 140 130 132 131 129 126 125 130 133 142 148 157 155 167 185 185 197 207 213 213 213 192 185 178 141 113 117 121 116 111 110 104 104 107 106 117 99 109 111 102 108 113 111 120 112 123 140 158 159 159 159 158 153 154 146 139 128 98 114 104 99 120 129 123 65 31 145 169 160 130 129 136 124 152 164 170 177 184 184 180 183 187 184 174 162 152 150 153 162 166 158 159 155 150 147 138 127 129 133 140 146 153 158 162 171 181 177 185 194 208 214 211 214 189 178 166 164 129 120 124 122 117 116 114 114 111 102 103 102 108 110 107 113 110 109 111 129 148 162 169 164 163 161 161 156 155 143 138 120 116 115 116 107 142 135 99 62 39 111 178 155 120 132 146 141 150 161 170 176 184 185 181 182 183 184 185 177 171 163 149 150 147 145 142 140 136 135 127 139 143 148 150 159 164 171 172 186 183 180 183 196 206 211 209 210 192 170 165 166 162 136 127 128 124 127 124 122 122 116 117 113 108 102 102 106 110 121 134 153 166 165 168 161 163 165 163 155 151 144 136 117 116 121 121 141 152 132 77 61 56 73 180 163 133 119 145 164 144 158 171 170 183 184 183 184 182 186 183 181 177 170 164 152 147 137 142 143 146 146 153 153 159 163 164 176 175 181 183 191 185 179 177 191 205 208 208 207 190 170 165 162 178 163 136 129 131 135 133 133 137 131 132 130 130 130 128 135 141 154 152 157 164 168 166 168 165 165 160 153 145 143 134 112 135 136 152 165 138 119 59 63 55 47 167 178 163 129 123 146 146 156 166 175 179 180 189 187 187 186 184 186 184 176 172 172 166 163 162 159 161 167 166 170 173 178 179 184 184 182 184 187 182 180 178 188 200 209 206 203 183 168 163 163 166 176 151 139 143 142 144 146 146 148 144 143 144 142 151 150 161 166 168 169 175 172 171 170 166 163 154 152 148 138 134 107 152 160 176 124 126 98 52 60 70 34 125 181 184 160 130 111 144 154 167 173 177 180 186 185 187 186 187 188 185 182 181 176 179 172 171 165 171 174 183 181 182 185 187 188 187 188 184 185 186 183 178 186 205 206 204 195 178 168 162 164 166 174 165 152 158 152 158 160 156 164 165 158 162 164 170 162 173 178 181 177 180 179 177 171 166 159 153 151 145 138 126 107 159 176 130 109 129 70 56 60 62 49 73 155 177 181 172 127 138 157 161 174 174 177 188 185 184 186 178 189 185 186 184 183 186 178 181 176 177 182 188 185 190 189 190 192 185 186 187 184 186 180 176 183 199 206 203 198 176 163 160 166 169 174 169 165 167 163 171 171 177 176 178 180 184 179 187 174 183 187 189 182 186 181 174 172 168 158 155 148 143 135 121 112 158 176 105 135 97 60 60 64 58 65 36 130 151 172 188 139 122 153 161 173 171 180 186 186 186 188 186 189 185 188 185 184 189 188 181 174 182 191 190 188 191 193 190 193 184 178 187 187 187 181 180 185 199 207 205 197 176 170 162 160 159 164 169 171 177 177 183 181 183 181 186 190 194 193 195 192 197 195 191 186 189 184 178 170 164 160 155 147 142 133 108 127 163 148 133 128 73 55 63 62 63 58 64 53 157 162 195 164 127 147 161 170 179 182 184 184 184 189 192 189 189 190 191 192 191 188 185 181 189 193 190 196 191 196 191 190 188 178 185 187 185 180 185 187 203 210 209 199 184 173 165 147 145 150 151 162 176 184 185 188 190 189 193 194 199 200 201 200 204 199 196 192 183 179 164 162 164 157 148 146 142 129 104 137 152 145 157 84 61 67 56 59 66 58 60 44 100 165 192 192 155 140 156 172 182 180 185 186 183 187 188 195 190 191 195 196 191 191 193 186 193 191 192 191 193 196 196 192 191 179 180 184 177 178 188 194 202 208 208 200 187 178 163 141 137 132 129 145 154 175 186 189 191 191 199 197 201 200 202 201 198 197 195 186 188 178 167 162 163 156 152 146 141 127 101 130 151 158 154 53 62 66 65 57 58 62 60 58 42 164 187 186 171 138 150 165 184 181 184 180 181 182 185 191 190 193 197 197 192 192 194 195 192 189 191 191 192 198 195 194 188 179 177 177 172 180 189 199 202 208 205 198 197 186 166 143 141 138 126 124 136 158 177 179 184 188 194 197 199 200 198 198 198 194 188 186 188 180 176 167 160 151 152 145 137 122 104 128 154 154 142 47 62 59 67 58 59 60 61 65 35 137 186 182 167 142 146 161 180 182 182 184 181 186 185 188 191 194 197 196 196 192 194 193 193 193 194 191 191 193 191 190 186 170 173 176 170 180 190 201 205 205 202 199 196 184 168 150 163 154 141 130 124 136 151 161 174 185 193 200 197 197 193 191 192 186 185 183 180 175 175 166 160 152 146 145 130 114 111 145 151 155 113 49 61 59 63 57 61 64 63 62 46 89 179 184 171 145 145 159 180 179 182 182 183 189 190 188 191 193 198 191 193 195 192 194 189 194 192 187 186 187 185 178 176 168 179 181 173 182 191 197 203 203 202 199 196 188 171 158 174 178 171 134 112 126 136 146 164 185 187 189 191 189 186 184 185 182 174 174 172 168 166 161 162 152 148 135 124 110 110 162 153 144 74 59 60 62 60 60 62 60 59 63 59 42 158 179 175 148 146 158 174 174 181 179 184 185 192 188 189 189 193 187 194 192 189 189 186 189 187 184 177 182 179 181 175 180 185 184 181 186 188 197 203 205 200 194 189 181 167 166 170 189 195 159 102 121 127 133 153 168 182 179 186 185 182 180 177 173 173 173 166 161 155 154 154 148 143 133 112 108 112 137 137 104 57 53 58 61 64 65 53 65 62 61 62 56 74 166 177 155 146 152 170 170 178 175 185 185 189 185 186 189 190 190 189 189 186 183 180 177 177 172 168 178 182 175 187 191 185 186 185 188 188 195 202 205 200 188 177 169 158 151 155 178 181 159 104 121 130 125 130 139 153 166 170 175 172 173 176 166 166 164 150 151 144 144 143 134 136 125 111 113 101 105 91 65 55 63 57 64 61 59 61 61 63 61 61 60 52 87 160 160 140 149 166 169 171 173 182 186 185 185 186 189 188 187 187 181 182 175 173 176 164 160 168 175 179 167 179 184 178 182 170 180 181 195 197 195 183 169 155 138 124 128 138 151 137 131 133 138 136 126 121 114 128 140 158 162 165 162 165 159 157 153 145 142 136 135 135 127 124 118 104 120 66 60 56 54 58 57 61 61 60 55 61 60 59 60 62 61 61 50 72 92 139 152 162 165 169 171 177 183 184 184 185 187 185 184 184 179 178 170 164 164 154 157 168 179 183 175 159 164 166 168 160 163 161 178 196 169 158 144 124 111 107 103 104 102 92 160 167 163 145 133 115 107 112 117 130 147 154 152 152 149 147 139 138 129 128 124 122 119 111 104 105 122 53 53 54 53 56 64 58 58 66 58 61 58 61 59 64 60 64 64 61 41 123 158 158 160 164 166 174 178 181 182 184 185 183 181 175 176 170 158 160 155 155 161 175 186 191 190 158 131 132 134 130 145 164 170 175 163 143 132 118 108 75 67 63 71 121 162 167 173 158 137 126 115 105 103 108 123 139 142 145 143 140 130 133 123 121 116 111 108 104 96 114 111 48 51 54 53 62 54 61 60 60 59 67 62 61 61 63 60 61 64 59 47 98 160 157 159 163 163 168 170 173 179 176 180 180 175 174 169 161 152 147 154 161 169 183 186 188 192 179 133 118 129 126 114 139 168 159 155 142 142 132 83 69 82 81 93 131 150 151 159 169 143 137 127 115 109 89 96 116 134 140 142 136 119 130 123 115 109 105 99 96 97 126 91 52 57 48 59 57 58 58 58 62 59 56 69 61 60 64 58 62 64 59 52 74 158 158 155 160 159 166 166 171 177 181 177 173 171 166 157 146 144 150 164 171 178 186 188 185 183 172 147 118 123 127 128 126 143 152 140 134 143 110 82 89 89 79 94 106 132 136 139 153 154 139 131 117 119 110 88 80 104 121 134 137 126 129 118 109 101 98 93 94 106 129 84 54 55 55 54 56 60 59 64 56 66 59 63 60 61 54 65 59 58 60 60 57 151 162 158 157 160 163 166 168 175 179 173 172 166 151 136 140 165 156 158 162 174 176 168 165 154 161 126 100 112 115 117 116 134 145 131 126 120 96 86 88 70 88 92 95 110 106 124 138 139 140 117 118 99 112 99 88 75 92 114 125 125 124 113 104 97 92 92 100 107 126 68 44 60 51 57 58 61 60 64 64 63 61 57 61 58 59 64 61 59 61 62 42 143 160 162 158 159 167 164 170 171 174 173 164 143 121 136 149 150 143 140 149 148 158 144 138 135 135 114 108 95 93 93 97 115 119 115 111 104 102 86 71 100 77 88 86 91 101 98 120 134 137 110 107 96 92 87 84 89 75 90 108 115 116 106 102 96 94 98 100 116 123 56 47 55 55 57 60 57 61 60 60 60 60 59 62 56 64 62 58 56 63 61 39 129 159 164 165 162 164 168 162 168 172 167 149 105 118 123 127 133 129 119 142 136 135 122 122 119 110 97 97 89 81 85 83 93 92 95 114 110 92 77 67 101 80 86 81 94 80 85 101 118 125 104 97 88 88 75 76 71 75 79 106 110 113 103 101 93 99 102 104 119 114 52 50 53 55 55 59 56 56 62 59 59 62 59 56 60 60 62 60 63 61 63 47 111 161 161 166 163 166 165 165 155 161 151 118 92 117 112 116 116 118 115 121 119 122 107 100 112 98 88 88 86 84 87 75 73 78 98 114 105 86 86 85 82 91 73 85 77 80 69 93 80 101 99 99 89 83 88 69 82 72 72 103 110 109 98 98 92 98 103 108 120 99 48 57 60 56 56 62 53 66 53 54 62 65 57 55 60 55 65 57 62 59 61 42 91 161 163 168 164 165 161 155 145 141 137 113 93 114 110 101 110 109 102 112 108 109 96 90 96 92 85 88 88 86 84 66 58 74 100 110 98 83 77 92 83 85 73 74 71 70 70 85 70 78 85 92 92 85 59 96 74 87 70 96 109 103 96 97 101 103 105 112 118 86 48 54 54 57 57 62 55 65 55 58 61 61 61 59 59 60 63 59 61 60 57 55 79 156 160 164 164 167 157 148 139 140 142 120 94 101 103 95 106 97 100 100 99 98 85 85 84 80 77 85 72 73 70 62 64 86 104 113 100 79 70 87 92 69 65 68 66 76 73 67 73 71 67 91 85 75 67 83 70 77 82 91 97 101 97 91 99 106 103 112 107 70 48 58 52 62 55 54 62 57 58 62 64 61 64 58 59 58 63 56 53 64 61 52 55 147 158 157 162 159 150 146 145 142 132 114 98 88 103 101 106 97 89 96 105 103 116 91 107 106 93 91 87 83 82 80 87 103 106 122 118 109 96 87 84 78 59 64 80 74 83 77 75 71 68 64 82 79 69 77 70 85 94 93 95 87 97 91 101 104 109 108 106 63 50 59 63 55 64 59 63 61 55 61 65 62 62 57 61 60 57 60 55 59 60 53 41 135 152 159 164 161 144 147 136 138 132 115 99 83 99 108 103 113 105 67 76 113 124 117 129 130 116 124 117 121 129 124 129 123 129 140 127 126 115 111 99 83 65 78 78 77 78 69 58 56 55 69 78 80 78 73 80 81 95 99 89 90 84 93 101 106 107 107 101 57 54 57 61 61 59 58 61 57 58 59 62 61 62 61 60 58 55 56 61 59 60 59 36 112 155 159 168 163 163 137 144 139 140 117 111 106 95 106 108 130 141 125 68 64 114 128 132 132 137 136 134 138 133 132 129 126 125 123 118 112 112 108 109 95 85 90 84 73 76 65 65 68 73 94 85 78 78 68 86 92 94 98 87 91 88 99 106 108 107 103 97 51 58 57 60 61 58 60 56 62 60 56 69 63 65 63 58 59 58 57 62 61 57 54 43 78 155 157 166 157 162 155 141 144 139 131 136 124 102 108 122 144 158 163 134 98 104 112 100 101 106 117 126 138 136 132 129 127 118 115 116 105 118 109 107 89 80 79 90 79 79 80 82 84 99 107 91 80 87 75 84 100 94 95 84 89 91 99 106 102 101 102 81 56 54 61 56 59 58 57 57 62 55 57 65 67 63 62 57 58 58 57 59 58 54 57 52 50 144 155 161 164 164 156 154 145 142 144 142 155 138 131 131 150 163 169 166 137 122 130 111 108 97 87 79 86 102 109 111 112 112 99 94 88 95 88 85 89 89 97 93 85 86 86 91 106 105 111 103 88 88 90 95 97 91 98 92 95 90 98 105 101 100 97 67 49 53 55 62 61 60 58 65 54 58 54 68 65 64 63 60 57 55 58 56 55 58 53 56 39 125 155 162 164 165 162 147 143 150 147 151 167 161 149 138 152 162 171 165 169 153 140 128 125 126 117 111 107 104 101 96 97 95 89 91 92 97 95 96 107 97 97 90 90 90 95 113 106 105 113 112 94 102 96 106 98 90 91 90 93 100 104 105 101 96 89 64 53 60 56 61 53 58 50 60 58 53 60 62 62 61 62 58 57 55 55 50 54 51 51 55 38 87 152 159 166 167 153 148 155 155 148 156 161 147 154 139 137 148 166 161 164 167 165 146 139 134 129 123 123 123 119 117 114 114 111 109 111 115 110 110 109 96 94 93 94 102 111 108 106 111 113 111 98 116 107 116 98 90 92 97 96 103 104 110 100 92 81 56 58 58 58 50 56 50 60 51 56 55 52 65 64 62 61 56 60 57 52 55 53 52 44 56 48 48 140 158 165 166 145 153 164 152 156 152 150 140 154 138 127 141 162 160 165 168 171 164 163 152 142 139 140 140 137 133 128 127 122 121 122 117 108 110 105 94 94 96 105 106 109 106 108 111 109 104 104 113 111 105 96 97 103 106 106 106 106 108 94 87 66 53 57 61 55 55 54 56 57 53 61 52 55 62 70 70 53 63 55 54 51 58 46 52 51 52 52 35 105 154 160 163 159 151 154 154 142 143 152 141 143 128 127 133 151 156 168 169 169 165 165 169 163 160 149 143 134 128 119 116 119 114 113 111 104 104 104 102 109 106 104 102 106 109 110 111 102 110 96 112 109 95 98 102 108 106 107 103 103 98 89 82 57 50 55 53 55 56 53 58 52 50 53 55 48 70 62 71 64 61 58 57 53 54 53 49 50 52 50 45 59 142 160 158 160 156 159 145 140 148 154 135 156 129 112 129 142 144 163 172 170 171 163 161 155 163 164 154 143 131 125 125 123 116 123 115 118 120 117 111 110 103 100 101 109 109 107 112 105 97 96 97 105 92 98 110 111 107 104 103 97 91 86 62 56 51 56 58 56 56 55 53 51 50 52 50 49 63 63 64 66 58 63 55 52 49 50 50 49 47 51 48 30 107 150 158 160 160 148 152 155 148 144 135 135 120 107 139 139 143 156 163 172 168 167 159 147 135 136 126 118 100 97 95 91 91 93 98 97 102 96 103 99 99 97 106 108 111 107 108 106 93 94 82 99 93 107 109 110 111 107 101 96 86 79 41 50 55 55 55 56 53 52 54 50 54 46 52 50 66 60 60 55 66 56 60 54 49 49 50 47 48 48 51 42 54 135 161 159 161 150 151 155 153 132 132 130 124 119 133 140 147 159 159 163 167 169 156 140 137 117 113 93 88 80 82 77 65 71 77 80 72 91 87 95 99 99 110 110 111 111 109 103 90 90 78 100 98 106 112 111 108 105 100 90 84 53 40 50 52 49 49 54 48 50 52 50 47 49 41 48 57 61 63 54 62 60 61 58 56 56 51 55 50 52 50 50 32 115 147 152 158 160 155 140 140 130 115 122 128 120 117 136 149 161 156 153 161 166 148 138 132 114 107 90 81 72 74 73 59 62 74 74 66 83 90 95 104 105 116 111 117 111 105 97 95 85 78 94 98 106 113 108 107 101 100 83 66 47 43 44 54 53 51 52 47 51 45 48 47 50 40 49 55 60 58 55 56 53 57 60 55 52 53 52 49 53 52 55 31 134 130 139 148 154 153 132 132 124 125 123 125 120 120 136 149 158 160 152 158 153 145 132 128 108 98 81 82 75 66 68 61 62 65 79 76 80 99 99 105 113 129 125 126 118 100 88 92 90 78 98 96 107 110 104 98 96 95 75 46 43 47 46 49 49 50 48 50 48 48 46 49 49 47 40 59 60 59 52 60 47 51 56 51 55 54 51 49 55 50 51 33 140 153 129 141 152 144 127 107 129 113 124 119 119 139 143 136 144 148 165 155 133 126 119 106 95 88 84 81 76 79 63 62 79 58 96 75 89 109 95 115 125 138 142 130 119 104 88 81 85 81 92 100 106 105 97 100 86 84 90 38 40 48 46 42 49 50 47 50 47 50 47 44 49 48 41 60 59 58 59 60 54 56 57 55 53 54 50 56 51 55 52 38 145 161 148 134 131 133 107 93 109 100 115 103 118 127 126 114 144 146 153 149 133 119 98 93 95 91 97 82 72 73 73 79 82 81 96 77 86 113 118 130 140 146 151 133 113 106 93 81 77 79 84 91 101 104 90 93 73 97 91 38 39 48 41 47 45 48 49 49 50 49 49 48 45 47 43 63 54 58 55 57 55 53 61 51 56 52 50 52 52 50 47 45 151 157 161 139 122 128 116 97 100 92 103 90 104 103 100 96 126 137 139 132 120 104 97 96 98 103 99 85 79 76 91 90 96 95 89 86 81 102 123 136 136 133 125 129 111 97 91 89 73 62 86 88 91 94 85 81 77 110 86 35 42 47 45 43 48 47 46 49 46 47 50 46 44 49 43 58 58 53 56 56 55 54 57 54 56 50 51 54 52 52 39 64 154 158 154 147 122 119 111 89 84 88 84 75 99 85 88 93 111 122 118 112 112 108 107 105 108 111 99 94 89 82 102 92 111 104 90 84 99 94 108 117 118 135 102 110 102 92 86 76 71 60 77 88 85 87 70 72 91 114 89 38 49 44 41 42 46 44 46 44 48 45 48 49 43 46 39 60 60 58 61 62 55 59 56 55 52 56 50 52 50 56 37 86 157 155 153 137 134 120 94 97 71 77 75 76 80 86 83 92 94 96 103 104 117 114 99 101 113 108 95 98 95 91 97 102 118 106 93 89 106 97 97 107 119 125 107 91 92 83 96 65 75 64 72 76 81 80 69 80 102 125 82 35 48 51 42 38 49 47 43 43 48 48 41 47 44 40 36 59 51 56 58 54 60 56 53 57 55 52 52 54 52 59 26 110 165 155 157 140 127 101 98 86 77 79 66 73 79 77 76 77 99 83 94 99 108 94 103 108 111 100 94 102 93 84 98 105 110 101 91 95 109 96 93 100 106 108 110 93 79 74 83 56 71 60 69 69 70 72 78 93 111 128 80 34 41 48 45 40 44 44 46 42 47 47 42 44 48 40 36 59 55 55 53 55 56 54 56 54 51 57 51 53 53 58 27 127 163 156 144 127 110 87 97 82 90 63 70 65 76 69 70 77 90 74 78 104 92 85 101 99 98 96 95 96 86 88 98 100 107 102 93 95 102 97 89 92 93 86 94 93 64 70 63 77 57 68 65 73 60 74 86 106 114 131 86 30 36 45 47 43 42 39 51 39 47 44 43 43 49 37 41 62 50 53 58 55 59 55 58 52 52 51 55 53 52 40 69 145 159 164 149 109 96 107 81 106 85 73 69 64 63 62 73 86 70 72 71 98 78 85 96 94 84 96 102 87 80 81 94 95 95 95 93 87 98 89 90 78 94 77 81 72 59 61 54 68 71 60 55 69 71 81 97 110 115 131 86 34 37 42 42 38 47 37 40 46 38 46 40 42 46 42 42 56 51 51 59 52 53 56 51 56 50 51 53 53 46 74 128 149 144 159 124 108 100 101 87 98 85 77 65 64 58 53 69 73 67 68 74 82 73 84 84 79 81 90 90 88 79 90 84 82 92 83 87 84 88 88 76 66 87 59 63 75 56 54 53 55 60 61 57 71 83 93 95 112 109 126 87 35 40 45 40 42 43 45 41 44 40 38 46 41 43 36 44 54 55 54 53 52 54 49 51 52 48 46 63 56 74 143 108 158 160 142 120 114 96 106 108 90 75 76 75 64 52 58 61 73 62 70 65 73 76 76 78 80 77 74 78 84 78 84 73 66 76 80 69 87 73 83 69 59 85 57 56 53 64 55 52 56 61 67 59 77 86 82 99 98 113 122 87 39 43 43 43 40 47 43 46 44 48 40 43 46 38 44 40 62 51 53 54 52 53 56 49 55 46 46 72 116 161 118 117 156 164 114 133 116 97 112 107 79 82 77 81 67 64 45 65 73 53 67 64 70 75 72 74 74 71 68 70 76 80 75 65 66 72 73 67 74 79 61 70 59 65 58 58 43 59 60 60 54 66 59 64 79 81 89 103 103 110 127 96 36 46 45 44 48 44 47 47 45 49 42 47 42 46 39 44 57 56 51 53 49 54 45 51 70 78 119 145 159 183 95 146 154 155 120 125 115 112 99 95 77 100 90 71 64 66 61 70 72 54 63 53 74 72 61 77 55 79 69 83 72 66 57 62 52 74 64 63 68 67 58 59 67 50 56 59 46 52 58 67 60 66 59 75 85 77 84 102 110 112 119 129 43 45 49 42 49 44 48 46 49 43 45 45 43 46 45 45 