P2
92
112
255
50 57 56 59 58 56 56 59 59 61 58 62 57 62 58 58 61 64 57 65 68 55 74 62 70 69 65 50 71 70 62 68 70 53 58 66 44 56 50 46 42 53 53 53 44 47 57 56 59 64 66 65 62 63 69 63 65 57 59 58 57 53 67 69 65 63 57 68 63 62 65 60 63 62 64 55 58 62 59 57 62 57 57 62 56 61 57 61 56 58 56 57 52 56 60 54 61 55 56 60 63 57 64 62 57 64 63 64 61 57 66 73 75 64 66 57 59 73 73 59 63 66 53 75 62 60 54 56 44 45 47 44 38 50 47 44 49 39 53 50 49 45 46 54 62 52 58 54 54 56 59 49 64 58 72 74 49 62 71 59 66 75 63 71 69 67 60 61 59 60 61 58 62 60 62 55 62 56 60 58 58 58 57 55 52 56 58 55 55 58 55 59 63 59 65 58 62 63 59 67 61 56 56 79 68 73 61 55 69 56 74 63 57 60 52 66 59 56 42 55 40 49 46 42 44 47 38 42 38 35 48 43 32 41 40 49 54 52 47 52 54 64 64 56 65 66 57 62 50 59 62 70 61 70 65 80 77 66 64 59 63 59 58 62 61 57 62 57 64 56 59 61 58 59 56 57 55 57 59 58 56 56 59 60 62 64 65 64 62 65 68 69 56 65 52 67 63 68 64 62 66 53 77 71 53 62 50 48 62 49 43 40 45 43 47 41 54 51 46 37 35 36 42 32 36 34 52 49 51 56 65 67 46 55 59 54 62 60 62 68 65 54 58 80 58 64 58 82 80 66 96 63 63 58 58 61 62 56 61 57 60 59 59 59 58 57 63 55 58 59 60 60 58 58 62 57 62 66 67 62 67 70 71 64 57 60 63 53 57 69 62 65 69 64 83 61 57 61 47 39 54 47 49 42 40 48 32 55 40 43 42 46 45 46 37 32 39 48 44 42 48 42 44 48 53 41 53 51 62 59 66 70 47 51 51 71 60 59 53 74 83 48 91 72 70 59 66 59 66 59 62 59 61 61 58 60 61 60 56 60 53 58 56 59 63 58 61 58 57 68 66 66 71 74 68 68 67 63 69 60 53 60 65 59 66 63 76 63 58 56 47 45 36 61 39 47 45 41 37 49 49 33 35 32 47 49 45 37 41 49 46 38 31 38 39 29 45 32 48 54 67 43 74 55 47 48 55 65 62 52 67 70 74 47 81 70 66 64 61 63 63 60 61 61 57 65 56 62 63 62 58 53 59 58 54 59 61 58 59 62 58 69 65 67 73 76 69 75 69 59 70 51 65 57 58 59 66 65 63 63 59 52 49 48 39 48 61 44 44 39 40 43 42 47 35 32 40 42 45 56 57 60 63 53 56 40 43 26 47 37 38 66 52 51 69 50 38 57 67 67 59 55 67 73 73 64 75 72 63 64 57 53 52 54 62 58 62 63 61 57 59 61 56 65 57 60 59 56 61 55 60 61 57 65 73 64 80 78 73 75 69 59 75 71 48 61 54 56 60 64 57 53 62 60 59 54 55 42 49 54 47 45 50 38 39 46 39 44 46 42 41 51 65 64 70 69 57 52 43 38 36 43 35 50 42 57 60 55 50 67 60 64 49 65 64 64 67 72 60 54 62 71 66 52 45 45 56 61 61 61 63 61 57 64 57 59 57 62 60 59 59 58 61 60 59 59 71 72 80 78 83 73 72 69 80 69 64 53 59 40 66 57 50 51 56 57 67 67 69 60 46 50 55 40 55 44 44 53 43 49 40 43 45 52 46 59 60 65 55 55 43 43 42 48 31 43 42 45 39 53 59 69 56 60 54 63 64 58 71 57 70 60 64 73 88 59 64 58 49 54 63 61 62 64 59 60 57 62 60 57 63 63 58 61 61 61 60 67 75 78 77 71 65 71 64 72 83 74 70 55 46 56 47 59 73 66 67 72 88 84 81 68 69 50 53 52 53 53 59 43 46 48 41 46 42 49 48 42 53 52 50 48 44 43 42 34 44 42 41 39 40 58 73 63 60 54 52 57 64 74 61 55 67 71 70 76 85 79 78 62 54 45 63 67 59 60 60 62 60 61 56 58 57 63 60 62 58 62 61 73 78 69 75 69 65 67 56 67 75 81 64 59 60 56 46 42 75 71 70 79 77 87 95 78 69 63 54 46 57 47 56 58 57 49 49 50 60 52 53 49 40 42 50 38 40 51 32 40 42 43 35 45 48 52 55 58 68 56 55 65 63 78 70 69 62 67 71 73 78 80 80 76 63 52 60 62 62 58 62 64 62 55 62 59 60 58 60 61 61 65 60 76 80 69 62 77 66 64 53 65 63 82 69 62 60 66 67 56 51 76 79 69 77 83 79 69 67 56 57 49 45 47 48 69 66 55 62 56 63 62 46 46 51 36 50 44 36 42 37 36 42 46 35 38 42 50 55 63 60 56 55 63 63 64 62 58 63 62 71 76 76 84 81 71 62 53 62 56 62 63 62 64 59 61 59 64 56 61 62 59 62 67 59 79 68 69 69 78 67 64 59 53 72 81 82 74 70 64 68 64 61 66 82 78 64 55 65 69 58 53 59 66 56 48 51 63 61 63 73 52 54 53 43 45 53 44 58 53 39 40 41 34 37 50 35 45 37 47 50 61 63 60 64 58 55 59 69 60 57 53 70 76 79 80 89 72 68 48 57 51 65 55 62 63 65 58 61 60 63 57 60 60 61 67 60 72 72 62 69 76 64 72 46 56 73 71 79 72 72 65 78 72 69 68 68 67 69 63 54 57 73 62 65 59 63 49 61 67 65 63 67 67 57 58 53 48 49 44 50 47 44 45 40 46 40 49 51 47 47 44 50 60 69 63 65 60 63 63 66 57 51 46 56 71 65 69 78 80 67 65 62 52 52 58 51 62 59 63 59 60 63 61 61 62 66 56 71 67 68 67 69 87 73 79 59 54 66 69 72 69 74 68 69 67 75 73 62 70 60 68 61 62 67 69 66 65 57 61 62 69 84 83 74 71 71 69 64 48 45 42 40 47 40 51 45 41 61 45 46 40 44 49 48 49 52 53 53 48 57 54 51 61 45 49 63 67 74 67 85 78 73 68 63 52 57 54 54 53 61 59 63 62 61 65 61 67 64 49 71 66 62 71 72 77 84 71 77 57 72 67 73 74 71 68 73 62 64 70 70 77 79 70 76 69 70 63 70 65 59 79 72 80 89 87 83 91 86 77 73 62 55 40 45 42 47 60 51 48 58 55 55 51 54 45 51 47 50 48 51 63 59 65 52 53 49 52 60 59 73 66 73 72 65 75 63 67 54 57 53 46 57 60 66 60 62 65 58 66 58 62 64 67 52 69 67 81 80 63 68 76 72 73 73 75 72 80 66 64 72 57 82 74 74 79 83 85 82 79 71 55 65 85 84 92 77 87 99 85 89 75 75 67 62 40 38 52 65 75 71 73 64 56 68 72 50 52 50 50 49 46 57 64 79 85 61 71 63 67 66 68 72 70 73 74 72 76 58 63 48 45 51 48 53 59 61 62 65 63 46 59 50 71 60 54 63 55 85 70 84 72 70 71 75 69 74 70 68 74 78 73 72 71 74 89 84 85 82 79 90 83 80 71 82 79 79 90 86 89 97 95 80 75 76 58 56 51 48 56 73 80 80 95 78 60 74 69 69 65 59 63 61 51 66 74 64 76 90 91 80 82 81 85 84 89 78 75 79 68 53 50 57 60 46 46 42 56 64 65 65 55 42 53 55 64 64 58 64 63 73 75 72 73 73 72 83 78 75 77 78 85 83 77 80 76 79 81 79 83 90 92 92 84 73 87 89 82 76 83 92 95 96 95 88 68 89 73 45 76 51 68 72 78 90 84 79 68 68 65 69 78 76 82 77 72 64 50 56 73 82 91 82 77 76 68 73 70 72 70 80 61 50 45 64 52 54 36 40 51 66 64 61 44 44 54 61 51 68 63 65 70 70 78 68 68 81 74 78 76 80 75 78 86 86 82 86 85 88 93 83 84 88 91 89 92 82 86 79 76 78 90 94 108 88 82 88 70 92 76 55 73 83 73 84 91 79 84 79 77 79 75 81 86 92 87 84 80 66 69 64 77 77 77 81 83 79 75 69 71 64 77 64 63 48 43 63 57 45 40 40 39 63 70 50 39 40 58 54 56 66 71 73 82 66 68 67 65 67 70 72 66 76 84 85 78 87 88 92 95 100 99 93 97 97 93 90 97 88 81 80 86 98 105 104 112 88 88 87 70 79 84 70 68 83 88 85 105 90 90 91 88 101 97 103 104 107 104 99 89 82 68 69 75 71 95 85 76 72 67 67 71 65 65 60 60 54 50 62 62 53 45 48 39 64 59 49 39 49 54 55 52 58 67 69 69 71 74 68 70 68 68 67 73 76 80 88 97 92 102 105 109 114 117 112 112 109 102 97 94 91 106 104 104 102 111 106 102 93 95 89 74 83 92 83 82 84 102 92 101 98 89 100 91 93 113 127 131 123 111 114 112 94 90 74 83 72 83 76 72 78 57 62 58 67 64 63 50 50 49 59 50 54 46 46 48 65 54 42 40 45 58 55 53 53 70 68 72 71 73 74 71 68 69 77 71 79 79 98 104 115 117 118 126 129 130 117 118 117 110 109 106 109 121 125 124 127 134 124 109 88 96 92 90 93 92 87 91 102 95 109 119 109 95 92 111 124 138 137 154 154 118 128 134 116 110 94 88 85 84 80 74 68 62 59 49 66 64 60 51 50 56 63 49 58 42 39 30 69 50 48 43 47 55 58 53 58 60 59 71 69 61 72 66 73 77 81 82 97 104 114 121 122 114 121 119 116 125 124 126 120 119 123 123 128 132 133 135 145 144 138 119 96 99 101 92 97 93 94 93 109 115 118 110 101 101 108 112 148 145 151 146 148 141 126 132 130 108 114 92 93 92 82 86 79 58 61 58 59 68 65 57 51 62 56 45 51 43 40 22 66 47 48 51 49 61 63 57 53 55 53 63 71 68 63 67 71 85 88 109 119 127 121 128 133 130 142 135 127 138 142 133 137 128 127 142 149 136 138 150 154 140 137 125 110 109 112 97 97 96 102 100 116 126 117 119 118 122 121 125 146 152 150 166 162 147 145 135 128 110 130 102 96 93 82 90 79 79 60 61 67 67 65 69 55 59 54 53 42 44 37 32 62 49 51 51 47 61 64 49 55 62 54 61 55 66 70 75 85 89 110 124 130 140 135 139 149 151 150 143 154 160 149 148 150 139 134 156 156 136 162 153 150 134 143 126 117 116 117 101 113 112 98 106 112 131 137 142 126 132 125 145 149 161 158 180 179 169 161 140 145 133 133 132 100 95 88 79 86 84 64 57 66 60 65 59 62 64 59 58 43 37 33 38 49 46 49 49 55 58 55 52 60 60 64 60 66 75 80 93 99 111 127 130 139 143 142 150 140 147 151 161 162 156 163 159 150 161 154 167 144 152 147 154 144 145 147 129 131 131 116 123 113 118 108 110 133 122 162 165 150 129 138 166 167 154 157 148 159 155 148 149 141 140 140 140 128 91 84 89 80 72 73 63 66 68 57 65 68 69 75 49 43 42 29 40 46 35 49 56 54 60 55 57 64 56 72 60 73 87 93 105 115 125 140 144 151 150 149 152 148 159 159 162 164 158 157 158 159 171 174 178 150 166 157 160 145 156 145 144 143 141 125 133 130 119 113 111 132 132 147 147 153 122 153 154 149 163 171 161 166 163 158 157 148 151 147 135 149 102 91 76 86 71 62 64 66 65 59 72 67 72 57 51 46 50 35 29 38 38 48 63 55 52 57 64 54 62 60 60 75 93 110 120 131 136 152 163 171 168 175 171 169 169 159 161 166 163 168 175 180 182 179 176 159 179 163 153 160 159 146 147 155 148 144 146 145 126 120 114 123 120 127 133 130 136 148 137 141 166 177 170 168 163 163 161 148 148 152 142 141 122 100 77 73 77 67 58 57 70 66 59 62 55 50 50 50 37 41 32 35 48 35 51 52 56 47 57 50 51 56 71 86 108 122 125 140 151 166 175 177 176 184 184 181 175 172 175 181 183 189 189 187 186 184 173 169 182 174 157 161 165 152 158 157 161 159 155 149 142 130 123 118 126 132 137 148 152 148 137 159 164 178 175 174 156 165 164 157 143 153 149 133 138 107 94 88 84 67 63 69 64 57 55 47 46 53 47 40 33 38 33 30 42 31 45 45 55 50 57 58 53 60 73 101 117 125 139 150 162 175 176 178 181 184 182 186 183 186 188 191 185 184 186 184 179 185 171 175 185 180 175 165 165 169 168 169 177 172 169 159 148 142 143 141 135 139 143 151 154 148 155 166 168 170 174 175 163 165 165 168 163 158 149 140 128 112 114 90 95 88 52 61 61 49 50 48 49 48 43 44 32 46 29 39 41 35 42 45 52 47 56 52 53 57 83 116 130 136 151 158 164 173 175 180 180 186 181 186 187 193 191 193 191 186 185 191 188 186 181 188 188 184 186 173 176 175 173 177 184 174 168 169 162 155 154 150 142 143 148 150 154 159 162 162 161 164 162 166 171 163 167 173 174 170 154 147 138 119 108 109 101 92 66 49 71 49 42 41 42 58 51 36 45 54 35 42 36 46 43 42 47 43 51 47 58 58 96 123 138 148 160 159 168 169 175 180 180 186 184 185 188 191 192 191 192 187 189 189 188 193 190 189 187 186 188 178 181 182 184 180 180 178 172 169 168 163 159 154 145 146 146 152 151 163 166 161 161 165 165 164 173 176 178 177 179 176 172 151 148 126 116 111 111 103 75 52 66 66 39 44 37 43 36 33 55 46 40 35 38 51 42 58 53 48 57 52 60 68 101 129 143 156 160 160 164 168 176 175 181 188 187 188 192 191 194 192 195 192 193 191 192 195 188 187 190 186 186 180 183 189 186 183 184 182 178 174 173 175 171 177 172 173 172 171 163 171 176 174 175 177 180 177 175 182 177 184 178 174 181 164 157 137 118 115 118 107 85 61 66 66 51 46 33 41 37 34 41 35 33 43 37 48 44 54 53 53 50 55 59 83 103 128 147 160 162 161 165 168 183 171 180 181 189 188 190 191 195 195 197 195 200 201 197 196 195 190 186 186 192 186 186 190 189 191 187 188 186 187 192 195 193 191 194 199 200 201 199 201 199 201 197 195 196 192 189 186 178 184 180 178 169 172 162 147 132 116 117 106 87 66 67 64 62 46 38 31 33 30 32 27 32 36 41 47 49 56 62 50 54 55 71 78 108 131 149 157 165 160 167 169 177 176 181 184 186 186 191 191 197 197 202 197 203 202 203 200 201 195 196 194 195 200 197 197 197 196 195 200 200 199 202 204 201 204 205 207 206 205 207 206 207 207 204 201 204 200 197 193 187 185 180 174 168 169 161 156 138 134 115 104 86 72 68 53 68 56 38 34 34 35 33 29 36 37 46 57 53 56 61 48 56 68 70 76 110 131 151 153 164 159 164 168 175 177 181 182 184 186 191 191 197 195 202 201 202 206 205 206 204 206 203 202 203 201 201 203 203 202 201 205 203 206 204 205 207 208 207 209 207 207 207 208 208 205 206 205 205 202 198 198 192 191 181 176 171 167 163 156 144 141 125 108 89 70 72 58 60 62 43 36 35 33 31 31 36 36 38 49 46 54 60 62 52 72 71 81 112 131 151 156 160 165 165 167 174 178 177 180 184 185 191 195 197 200 201 203 204 206 204 206 208 209 205 208 205 208 203 207 206 203 205 207 207 208 204 206 209 207 207 212 209 206 210 209 208 207 207 206 205 200 200 198 196 188 187 178 176 166 164 151 148 138 138 113 92 67 67 64 47 68 57 38 35 32 29 32 31 36 34 42 45 49 61 63 53 72 76 76 108 130 144 156 163 162 164 163 174 178 177 177 184 188 192 198 198 202 202 204 207 209 209 209 210 208 209 212 210 207 205 205 208 205 208 207 207 210 205 209 210 205 209 209 211 208 208 208 206 209 205 207 201 202 201 193 191 189 190 178 175 169 163 153 146 139 141 126 98 65 59 58 40 68 57 43 37 30 28 34 27 37 34 42 43 53 54 58 54 64 73 78 104 124 144 158 165 166 162 167 175 179 180 185 188 192 195 196 198 202 206 205 208 207 207 212 209 210 208 211 212 207 209 206 206 208 209 207 207 205 209 211 210 209 210 212 211 211 207 210 208 204 206 204 201 200 200 199 195 186 188 177 177 178 171 154 149 141 143 139 102 71 57 51 47 45 60 48 40 32 31 31 26 53 29 47 34 39 50 60 58 61 68 76 101 128 144 160 163 164 165 164 175 176 180 184 190 193 196 199 200 202 202 205 205 208 206 210 209 210 211 208 209 210 209 206 206 208 208 210 206 205 208 208 210 210 211 210 210 209 207 207 204 204 202 202 201 200 197 194 195 186 186 176 179 176 175 162 144 144 144 138 120 68 51 49 43 45 54 54 42 36 28 29 30 63 34 40 36 35 52 62 59 59 67 73 103 130 144 162 160 164 167 165 175 177 177 187 189 192 196 201 199 201 201 201 205 204 201 207 208 208 209 210 209 209 209 206 207 205 203 209 207 207 206 209 206 209 209 209 210 203 203 201 203 200 204 199 200 198 196 191 194 189 185 183 179 182 176 165 148 142 139 140 133 86 48 45 41 45 46 47 42 38 37 24 32 67 38 46 36 32 58 66 62 68 66 83 106 126 150 163 161 165 167 170 176 177 176 185 187 192 198 197 200 202 202 201 202 202 202 203 202 207 209 207 207 208 208 200 204 205 203 206 205 204 206 207 209 207 202 207 207 199 197 197 193 198 199 200 200 194 190 192 189 189 184 185 186 177 179 169 153 146 141 140 137 109 54 46 39 46 49 44 44 35 37 18 48 69 43 37 44 42 58 57 56 71 60 82 106 147 157 162 163 167 169 171 177 180 182 186 189 192 196 199 202 202 198 198 198 201 200 201 202 203 206 204 206 206 204 205 204 202 203 204 205 206 203 204 204 203 203 204 204 192 192 199 196 200 200 197 196 188 192 190 192 190 184 193 181 184 177 177 152 141 142 137 142 120 76 41 41 37 39 39 41 37 33 24 63 64 59 31 52 44 48 51 55 61 59 73 131 155 159 161 166 162 170 174 180 181 187 186 190 192 194 198 200 199 199 200 197 198 202 198 199 201 200 204 204 205 203 203 203 201 202 202 203 205 202 200 205 202 201 204 200 194 196 198 197 198 194 195 187 184 189 183 184 187 184 187 184 184 185 178 164 139 136 137 142 134 88 53 37 35 39 36 45 35 30 28 56 63 53 38 45 36 51 53 61 54 59 90 142 157 159 164 161 159 169 181 184 185 182 183 187 191 192 197 195 198 199 198 197 201 198 199 197 201 199 204 203 201 205 199 203 198 201 203 201 203 199 202 206 200 197 196 192 196 190 192 192 192 184 180 167 166 162 156 154 157 156 150 161 157 171 168 168 148 132 133 138 137 104 62 40 38 35 42 38 38 34 28 51 67 56 40 36 41 47 52 58 50 55 120 148 157 157 162 161 161 174 173 165 159 156 164 165 169 179 183 186 190 187 194 189 195 194 195 192 191 197 196 197 197 197 195 195 194 195 200 199 198 199 200 200 191 188 185 178 179 167 166 157 158 152 143 135 127 122 113 113 121 118 125 121 130 129 128 118 131 129 136 133 137 125 62 39 35 36 35 43 42 30 31 59 58 64 44 33 35 47 49 50 49 84 136 148 158 160 159 157 143 131 132 132 121 127 138 129 133 138 130 143 145 145 155 160 161 165 172 174 174 177 190 191 188 183 185 186 187 187 190 190 190 189 190 189 181 162 169 155 161 133 124 111 114 109 105 97 99 97 97 87 83 93 107 97 100 98 125 107 103 104 133 133 135 132 86 38 37 34 35 36 38 27 33 65 60 59 54 35 47 49 43 54 52 106 141 154 157 158 157 134 109 110 111 95 113 123 129 119 112 119 109 109 105 99 102 116 122 117 128 144 158 161 176 177 185 181 180 180 180 181 180 182 188 187 183 182 167 145 129 155 135 123 114 104 102 85 85 83 77 79 69 72 82 74 84 88 96 97 101 104 93 98 114 133 134 140 101 43 30 37 34 35 34 25 82 65 56 60 75 39 44 48 47 47 53 117 149 161 156 159 130 117 106 115 109 100 105 113 109 98 98 97 95 93 88 91 88 97 105 117 113 130 132 157 161 162 174 180 177 173 173 176 174 172 181 181 172 163 158 140 130 143 126 114 118 97 95 89 95 96 95 95 98 111 123 116 119 106 104 106 107 108 120 113 106 124 134 140 119 51 34 34 34 35 40 19 136 74 41 122 136 39 38 56 49 40 57 123 154 164 158 156 114 123 151 148 136 133 137 151 139 135 136 135 122 117 113 107 114 111 115 120 121 129 145 139 159 160 175 176 162 166 172 175 168 171 172 173 174 161 154 150 147 135 126 126 120 116 123 122 127 131 131 130 130 142 133 130 131 128 122 117 111 109 112 116 112 120 140 140 134 67 31 38 32 33 35 23 90 114 69 167 174 66 41 47 44 39 59 129 159 162 159 143 124 142 161 165 166 171 169 173 163 158 161 161 158 160 155 154 154 156 153 153 153 154 162 159 169 164 178 171 160 168 171 177 173 173 169 171 171 165 154 156 147 135 131 126 121 117 118 123 121 123 126 125 122 121 116 116 117 114 109 112 110 111 109 111 112 120 136 142 146 83 30 37 31 30 37 47 62 125 93 148 139 137 59 37 47 45 65 138 163 165 160 141 134 143 152 158 164 168 167 164 165 157 153 156 151 152 154 149 144 152 150 147 149 154 162 165 169 172 176 179 175 178 180 184 181 178 165 163 156 154 143 141 125 120 104 94 98 100 106 102 95 98 98 98 99 94 88 88 89 86 95 99 95 104 100 105 114 125 125 138 147 108 35 30 34 31 48 82 69 120 119 147 108 152 81 31 52 40 73 144 164 164 158 142 149 149 155 158 158 161 160 157 162 158 155 148 146 143 141 137 129 134 133 126 131 133 143 152 157 165 171 173 181 185 190 191 193 190 170 153 139 127 111 100 93 91 88 91 99 89 89 85 94 101 106 110 109 107 100 97 90 81 81 85 90 100 100 104 124 128 123 132 147 129 32 29 33 49 66 80 80 108 135 145 120 146 102 41 51 37 81 152 164 169 162 149 160 159 153 157 149 154 147 145 142 144 141 136 129 127 129 124 117 113 105 93 94 116 131 137 147 161 168 170 179 189 196 200 200 198 181 152 127 113 94 99 89 89 92 97 88 85 92 97 106 102 102 103 103 105 98 103 95 88 92 90 93 103 105 115 126 132 130 136 147 141 41 22 43 78 85 79 83 105 153 142 129 141 145 70 46 38 85 159 169 169 161 159 167 169 159 157 149 143 142 134 138 136 133 134 132 130 134 115 110 113 116 115 98 92 114 121 144 156 171 170 171 192 200 206 207 203 191 158 124 103 101 104 86 96 92 92 91 99 99 94 89 76 83 55 103 43 58 70 77 91 87 89 95 106 110 121 127 133 134 135 148 144 49 18 64 107 120 91 82 118 146 145 118 136 151 144 61 27 97 161 167 175 166 170 168 170 169 161 147 137 134 125 133 140 138 136 117 103 91 68 94 39 76 82 106 119 124 132 140 151 164 168 160 188 205 207 211 209 201 167 126 107 105 103 107 109 105 105 95 87 87 77 92 108 90 55 52 29 39 41 55 53 74 80 97 104 110 120 126 136 142 141 145 146 50 34 108 126 141 110 85 114 113 161 118 135 159 156 111 49 98 159 168 174 172 175 172 175 169 165 146 138 128 122 122 113 103 73 98 128 81 53 46 28 74 65 82 93 99 144 134 150 151 163 167 191 204 209 211 211 208 188 136 106 109 111 116 121 92 96 86 117 101 108 126 136 111 58 44 36 49 52 69 53 51 68 101 108 117 128 134 144 144 142 142 144 46 59 103 114 133 124 100 109 47 177 121 148 173 166 156 91 96 160 167 175 176 181 177 172 169 159 141 132 101 79 83 90 102 111 225 222 162 68 37 49 71 76 101 93 88 113 143 153 149 160 174 193 205 210 212 213 209 199 165 101 110 119 115 123 105 107 103 105 101 111 114 124 127 86 74 61 71 77 84 84 71 82 106 131 138 147 145 152 150 144 142 143 52 77 102 107 122 130 113 93 18 159 140 162 184 172 163 100 94 158 168 172 175 183 184 182 175 163 147 124 99 90 100 100 98 84 127 130 107 84 97 97 105 110 110 127 138 142 150 161 152 164 183 191 203 211 210 212 212 195 182 118 108 117 114 123 119 118 113 106 107 113 110 111 100 109 99 90 93 98 94 96 116 115 125 147 155 147 153 153 148 147 141 138 60 90 104 103 116 131 131 72 40 110 157 174 175 161 147 107 103 158 170 171 179 183 180 182 180 172 152 154 128 135 140 148 148 152 135 141 134 128 124 130 120 123 119 128 136 146 155 158 150 173 186 189 202 211 210 211 207 191 186 145 109 112 119 115 112 110 107 105 109 110 110 115 105 113 104 100 110 104 121 107 133 131 147 154 156 156 154 153 149 148 140 132 88 103 101 97 113 126 122 63 58 57 162 176 162 142 134 127 119 154 172 168 180 185 181 182 188 178 168 159 149 150 156 164 161 166 155 154 153 145 143 135 131 124 128 133 138 147 151 156 157 181 182 190 203 211 211 215 205 186 176 165 118 117 121 121 114 117 112 108 105 105 105 110 111 117 112 114 117 112 118 113 120 146 157 157 159 157 160 154 155 144 138 124 106 114 110 103 130 135 101 59 66 35 147 172 150 122 134 141 128 156 165 172 181 186 183 183 184 184 181 176 159 156 151 155 157 161 161 156 155 148 144 133 133 138 142 143 152 154 161 168 172 182 177 190 200 212 211 213 202 176 171 166 146 125 120 124 120 120 120 120 119 114 105 105 102 104 101 103 106 105 117 133 157 162 167 160 165 161 163 155 154 147 137 121 116 116 118 120 149 129 78 63 64 37 120 176 151 120 134 149 146 150 161 172 177 184 184 181 183 179 186 184 174 179 165 158 147 149 142 140 141 140 143 140 146 151 152 154 166 166 173 178 184 182 177 187 201 210 208 211 204 178 169 163 168 155 130 124 127 129 128 123 125 125 120 122 118 119 112 113 121 129 141 146 160 169 164 163 163 166 164 155 148 146 137 117 122 121 137 155 150 125 59 61 61 53 78 181 165 139 117 152 162 147 161 169 176 182 183 185 183 185 185 181 179 177 173 169 164 158 151 156 155 157 156 158 158 165 166 171 177 180 182 188 188 182 176 184 196 208 206 208 197 179 164 164 169 174 148 136 129 137 137 133 138 135 136 132 135 136 134 141 147 152 162 156 169 166 171 165 168 163 160 151 146 143 133 113 141 147 171 152 125 102 56 60 61 56 61 159 182 167 134 119 130 146 159 168 176 178 184 189 185 190 185 187 184 183 176 176 176 171 170 169 166 166 170 171 175 176 183 181 187 187 187 184 185 183 177 183 193 206 208 203 193 176 161 165 163 174 164 149 138 149 147 149 149 152 152 150 150 153 153 156 161 171 174 170 177 175 175 170 164 162 156 150 149 141 132 107 156 174 159 106 132 77 59 60 55 64 42 124 176 189 166 135 117 148 158 167 177 179 180 187 185 188 188 187 187 186 185 183 179 182 173 176 169 173 180 180 188 188 189 184 191 185 191 183 186 185 178 179 196 206 206 199 187 172 160 164 167 173 169 161 155 157 156 165 164 169 168 168 166 171 175 170 172 182 185 177 182 178 178 171 166 161 157 149 148 139 123 108 156 177 109 123 113 60 65 61 63 59 57 59 155 164 183 178 122 140 156 165 176 169 182 188 184 187 186 181 185 184 188 185 186 185 180 184 178 182 186 187 190 191 190 191 186 183 187 185 187 183 179 180 190 203 204 201 185 169 161 160 167 171 169 169 170 167 172 175 178 178 181 186 185 185 188 183 184 190 190 182 188 184 178 170 169 159 154 147 145 138 118 118 163 163 117 138 77 58 65 67 61 59 62 42 123 152 178 189 131 131 151 166 173 174 183 186 183 187 189 189 192 185 188 188 189 190 184 177 181 188 192 190 192 192 195 190 192 179 182 188 187 183 181 184 193 205 209 204 186 177 166 159 157 159 161 168 175 177 183 186 187 184 186 193 194 195 199 195 200 199 194 193 186 185 177 166 165 164 151 147 142 133 109 130 160 138 149 104 54 68 62 68 64 58 63 55 49 145 169 197 175 135 147 160 175 180 183 184 185 184 189 193 192 189 190 191 193 191 185 186 185 191 193 191 191 195 193 191 193 183 180 185 185 181 182 188 193 206 210 206 189 177 168 151 139 146 139 154 164 181 185 187 191 190 194 195 198 199 202 199 202 201 199 192 187 179 167 158 162 159 150 147 143 128 105 133 146 157 151 67 61 65 65 65 60 60 64 58 48 88 174 189 190 150 143 157 175 183 183 185 186 182 187 186 194 190 191 194 195 192 191 192 190 192 190 192 190 196 195 194 192 187 176 180 178 177 182 192 198 205 209 204 193 185 173 148 136 134 126 128 138 162 178 185 188 189 193 197 200 200 200 200 199 199 191 184 191 180 172 162 162 154 153 146 139 126 106 125 152 159 141 47 63 60 63 66 60 59 59 61 57 49 167 185 183 164 139 148 168 181 181 182 181 182 182 186 191 190 193 196 196 193 193 193 193 192 191 192 190 193 194 195 193 184 174 178 174 172 182 195 202 204 206 202 196 192 175 150 150 142 136 128 125 138 159 172 176 186 189 195 198 198 198 195 195 192 190 182 186 178 177 168 162 152 148 144 135 118 107 133 150 156 130 44 59 60 67 60 60 58 62 64 62 38 140 182 183 158 142 146 167 178 183 182 182 181 187 184 188 191 196 195 196 192 192 193 191 193 191 191 188 190 190 190 186 175 168 176 173 173 183 195 200 204 203 198 200 192 176 157 162 167 154 139 121 123 138 154 161 181 188 194 195 195 194 188 190 185 178 179 179 171 171 165 163 155 147 139 130 111 111 157 154 152 97 48 60 61 63 57 66 57 59 60 65 47 84 177 185 167 149 144 165 182 176 181 181 183 193 189 192 190 193 194 190 194 194 191 192 189 190 189 186 185 182 181 179 167 176 184 180 177 188 193 199 205 203 200 198 192 179 161 167 184 183 165 112 113 130 137 151 175 184 185 185 187 183 185 178 178 176 173 170 166 162 159 161 152 148 134 122 109 108 148 148 117 64 57 58 62 63 68 59 64 63 60 64 62 42 138 177 171 146 149 162 171 174 178 181 184 190 189 186 187 189 189 188 191 190 187 186 185 183 183 174 179 176 184 175 184 186 185 186 185 189 190 200 205 204 198 190 179 176 159 160 181 189 190 109 113 128 127 137 150 165 174 178 181 177 178 178 169 169 170 160 155 153 149 147 144 140 132 110 111 105 117 108 70 59 59 56 59 64 60 62 56 63 59 61 61 56 56 145 175 153 147 153 169 170 177 177 185 185 188 182 188 189 187 187 189 187 184 182 178 176 169 166 172 178 181 174 192 185 184 183 184 187 191 198 203 201 189 176 162 153 141 145 160 172 155 116 120 131 127 122 124 134 151 161 169 167 169 170 165 163 162 150 146 144 140 138 132 127 124 107 116 83 75 65 54 57 60 61 61 60 58 62 58 63 54 65 62 58 57 57 111 133 146 152 168 165 170 174 180 187 183 185 185 189 187 186 184 179 182 169 169 167 161 162 169 180 178 163 178 178 176 174 167 171 177 201 190 180 168 151 129 117 117 125 132 123 122 155 150 141 133 118 111 116 121 139 155 159 157 159 154 153 144 141 138 130 129 131 123 119 109 103 122 63 48 55 53 56 60 62 57 58 66 57 57 58 57 62 58 63 62 59 63 53 145 153 160 165 169 169 178 185 181 183 185 186 184 180 178 177 173 166 158 160 153 161 176 187 187 174 150 155 148 157 155 162 164 183 179 156 145 124 111 105 88 81 75 72 149 170 175 158 139 122 112 104 106 118 132 144 148 146 146 144 136 136 125 122 121 116 114 107 101 107 117 51 53 53 53 59 57 59 59 64 56 57 62 63 60 61 58 62 59 65 62 40 130 159 156 160 162 165 174 172 176 183 179 182 182 172 173 171 164 158 153 157 158 170 183 188 189 190 146 119 124 128 118 139 169 170 164 152 136 131 117 77 59 73 73 111 156 157 163 171 147 139 126 116 98 98 106 118 136 141 146 137 124 128 125 118 111 107 102 97 96 117 104 50 56 49 55 59 56 57 62 64 55 64 59 58 61 64 61 59 61 60 60 45 107 159 157 159 160 162 169 166 175 176 181 178 174 171 168 162 150 147 149 161 168 177 188 188 187 189 169 133 120 132 125 120 139 162 149 141 139 145 94 81 86 85 83 110 138 140 148 156 157 142 136 123 116 106 89 90 114 127 138 135 126 125 124 110 106 101 91 98 98 125 91 50 57 51 54 56 58 62 57 60 57 62 61 61 62 59 56 64 59 59 62 51 85 159 159 158 159 159 164 167 171 177 178 176 170 165 154 146 140 158 158 163 169 183 178 183 175 169 163 117 113 121 126 126 130 143 144 130 138 117 84 95 77 83 90 102 104 124 125 141 145 148 123 124 109 114 105 86 76 101 118 128 131 122 117 108 102 95 90 97 108 122 83 46 60 51 59 58 61 61 65 62 57 59 66 61 58 58 60 62 60 58 66 52 68 154 161 161 160 160 167 165 170 173 176 174 167 149 131 136 152 160 151 150 154 168 161 156 147 147 143 111 107 99 110 99 113 129 129 121 114 101 95 76 96 77 86 91 91 111 98 125 137 141 119 114 101 103 94 90 92 69 96 110 118 115 111 104 97 93 97 102 110 125 60 48 54 52 63 59 58 61 58 66 53 65 59 58 60 61 58 66 61 57 66 56 50 144 162 162 161 164 165 165 163 173 172 167 151 109 124 133 142 141 131 133 151 143 139 131 125 127 111 103 102 79 89 86 98 100 101 106 116 98 93 68 83 95 83 84 85 92 92 97 126 127 122 99 96 92 79 83 72 82 76 101 109 116 104 99 98 93 100 104 116 119 58 52 50 55 56 59 58 55 59 60 63 55 63 59 58 59 57 61 61 64 61 63 44 136 161 165 165 166 165 163 161 163 167 157 120 99 118 116 124 122 119 123 134 124 127 109 112 114 95 94 92 79 83 88 77 85 84 104 116 95 86 80 74 102 72 91 82 87 64 90 92 110 107 100 94 86 86 70 78 70 69 102 109 112 101 100 95 96 102 112 118 107 50 55 56 59 59 60 55 60 62 51 60 64 65 58 55 62 51 64 58 60 59 62 37 117 160 164 166 164 167 161 158 151 143 130 104 98 116 113 106 114 112 107 116 112 108 95 101 104 94 82 89 86 91 81 66 72 85 105 113 91 80 88 86 92 80 73 81 70 75 73 83 81 85 94 96 85 74 89 74 88 71 88 106 104 99 100 96 100 106 109 116 95 46 54 59 57 56 60 58 61 56 57 56 65 60 63 60 60 61 62 58 57 58 62 38 112 160 165 167 163 171 154 149 141 146 139 113 92 109 101 96 110 102 102 104 103 97 89 80 88 75 85 81 78 79 73 60 63 96 107 110 90 67 85 91 83 72 67 70 76 59 75 73 71 73 85 88 79 71 80 76 77 82 88 105 103 96 95 98 101 110 107 112 86 45 55 53 62 59 55 62 54 63 56 60 60 64 60 59 61 54 63 57 58 57 59 45 82 155 159 162 160 164 147 149 142 139 132 108 95 99 97 102 103 96 96 97 105 96 101 89 95 89 85 81 82 71 66 67 84 101 111 115 104 93 80 85 82 67 55 72 78 72 79 70 72 68 71 79 81 70 75 72 73 86 97 90 96 98 90 101 102 110 107 109 68 46 59 60 61 64 60 63 59 58 62 59 68 61 61 59 57 58 58 56 58 58 60 51 58 146 153 157 166 157 140 152 135 142 128 111 89 89 102 108 103 109 86 77 104 119 115 114 125 114 112 107 106 111 110 115 120 113 129 131 122 120 111 99 84 68 67 73 83 81 75 65 66 57 57 72 86 75 71 79 77 100 98 94 90 88 89 99 103 108 104 105 62 52 57 59 61 62 57 60 61 57 58 64 67 63 61 63 56 58 56 60 60 57 61 60 38 138 154 164 167 164 155 136 142 141 134 113 106 96 98 107 109 127 126 84 56 96 121 130 133 129 134 124 135 135 136 131 131 128 131 126 118 113 111 110 98 85 77 91 79 75 68 61 65 60 81 84 81 80 68 81 90 91 96 91 92 89 90 104 109 102 104 103 53 55 57 60 62 61 61 58 63 57 57 61 66 66 59 64 61 57 57 56 63 62 56 54 31 113 158 157 171 152 172 137 149 144 135 126 126 113 98 111 124 147 157 149 99 89 111 114 110 122 134 137 143 137 137 128 130 124 116 119 108 112 117 106 106 85 81 86 85 75 77 78 78 91 104 99 74 86 77 80 95 93 98 86 88 91 98 105 103 102 101 89 55 56 56 59 64 53 61 57 59 59 58 60 67 66 65 58 62 54 59 57 56 60 55 57 40 83 150 158 163 161 165 151 151 139 143 143 138 144 122 122 133 159 163 169 151 122 120 122 104 91 85 80 84 113 116 117 121 121 110 109 99 100 102 88 89 83 96 91 90 82 83 86 95 107 106 111 83 88 85 85 98 89 100 93 92 89 98 101 103 103 92 78 51 53 56 61 59 60 58 64 55 60 53 51 69 64 65 58 60 57 59 56 57 56 54 57 52 46 140 156 163 163 168 151 153 141 149 146 155 164 157 143 140 157 168 168 166 160 144 128 127 123 121 108 104 102 96 94 95 96 88 85 84 90 93 90 98 103 91 97 87 91 93 99 109 105 110 118 98 97 96 101 102 93 91 91 95 95 103 106 101 97 93 67 53 55 57 59 58 56 53 63 60 56 56 56 64 62 61 61 59 59 54 54 51 57 50 52 56 34 118 153 159 168 169 156 142 158 151 148 159 159 157 152 134 145 159 163 165 164 168 152 137 137 129 122 122 122 113 115 112 110 109 105 110 112 112 104 111 104 90 95 89 94 106 111 107 108 112 113 102 109 110 109 106 85 95 91 98 99 102 112 101 91 86 58 55 59 58 54 51 54 56 53 53 60 53 53 67 61 65 62 57 58 53 52 55 52 46 55 52 41 76 147 158 166 165 139 156 162 151 157 155 147 144 153 134 131 150 163 163 167 170 169 159 159 142 137 134 142 135 131 129 126 124 119 123 120 112 108 111 98 91 97 95 107 107 109 106 112 108 107 99 108 111 110 99 92 103 102 108 104 105 110 96 88 75 53 56 60 56 56 55 54 61 54 58 58 51 55 69 70 67 57 58 55 52 54 57 50 49 52 52 53 36 133 157 160 165 157 150 156 151 144 145 148 139 139 129 132 141 161 160 171 169 165 164 171 168 159 155 143 142 132 125 121 118 117 117 112 107 102 102 103 101 109 105 104 103 107 111 108 108 105 98 104 114 99 95 100 108 107 105 104 102 100 91 81 65 49 52 61 58 56 54 56 57 53 54 58 46 53 65 63 69 64 65 54 54 58 53 54 47 50 52 48 40 91 148 162 159 158 158 155 145 138 151 149 141 143 127 118 138 144 153 170 171 170 167 161 159 162 164 156 153 133 127 121 125 116 115 117 112 117 118 115 109 108 99 101 103 111 107 106 110 96 100 91 104 95 97 108 111 105 108 104 98 91 84 65 57 54 50 63 56 58 52 49 53 56 49 53 50 54 63 64 63 62 60 58 59 53 51 51 46 51 47 49 49 31 132 158 157 162 158 149 152 152 148 143 135 130 114 115 135 142 147 162 167 173 172 162 158 139 141 135 131 112 105 100 99 98 95 100 103 102 102 105 100 102 95 98 111 107 108 109 107 98 92 84 96 95 101 107 111 107 109 100 99 91 77 50 47 55 56 57 56 52 53 55 51 51 45 53 47 53 63 60 59 58 62 56 58 54 50 51 50 47 49 48 49 38 74 148 159 159 164 145 155 156 144 134 134 128 119 128 135 139 152 162 158 168 171 164 150 142 125 116 109 90 88 82 79 74 70 78 82 76 85 82 93 102 94 107 112 108 111 109 103 98 85 89 91 99 101 114 112 109 104 100 93 85 59 40 45 53 56 52 53 49 48 54 48 49 48 46 46 47 62 57 62 56 60 59 59 57 58 55 50 58 51 50 51 51 38 134 151 150 162 157 152 141 138 124 122 123 129 115 124 137 157 160 152 157 164 161 140 139 125 108 103 82 75 74 74 67 56 67 78 69 71 87 96 97 99 115 112 111 114 105 101 94 88 76 91 97 100 112 109 107 101 101 86 69 44 46 44 50 55 50 53 49 49 47 50 46 51 41 43 47 64 58 54 58 50 54 56 57 51 53 54 52 49 50 55 54 40 153 126 142 148 154 148 130 130 123 124 120 127 116 128 138 150 160 155 158 152 155 139 133 121 105 84 84 76 69 69 59 66 56 80 72 75 96 93 101 114 118 128 120 121 105 92 86 95 77 94 95 105 108 108 95 100 90 82 47 42 48 44 53 47 48 52 48 46 49 46 50 44 45 48 42 61 56 61 56 55 51 53 50 55 52 55 50 54 52 54 47 44 160 143 135 143 154 139 119 112 124 120 118 120 121 141 140 139 144 158 161 141 134 123 116 100 96 85 82 79 75 74 59 76 67 77 84 82 102 96 109 122 131 142 131 125 106 95 77 89 78 87 97 105 107 99 97 87 83 98 40 46 46 48 45 49 45 51 46 50 48 49 47 48 49 42 47 60 56 59 59 57 52 61 51 59 51 51 52 54 54 52 41 58 156 166 140 131 136 127 103 98 106 105 113 109 117 129 120 123 141 146 159 140 130 110 95 93 97 92 90 75 76 67 78 81 82 86 90 78 99 110 129 136 134 152 142 117 106 97 83 83 73 81 92 99 100 95 91 76 86 103 37 44 45 42 45 47 46 48 49 52 48 48 42 50 46 45 39 58 58 57 54 58 50 56 52 55 56 49 53 50 54 52 40 72 158 157 159 133 124 129 106 98 96 96 100 93 103 104 96 104 133 138 139 128 117 100 92 101 99 102 94 78 76 85 85 97 95 90 86 79 94 108 141 129 136 131 125 119 99 94 87 82 56 81 89 89 92 88 75 80 106 99 35 40 49 43 42 45 48 47 48 44 50 48 50 43 46 45 41 57 62 49 62 58 56 55 53 54 52 52 53 54 52 57 23 101 160 155 155 141 119 118 103 86 86 84 82 82 96 83 90 92 120 122 110 112 112 105 106 101 113 107 98 90 83 97 90 106 111 93 84 96 97 93 120 116 129 116 103 107 95 85 79 78 59 72 87 86 84 76 72 84 114 103 40 51 44 39 44 45 45 44 46 45 49 40 48 45 41 38 42 58 58 59 62 56 58 57 56 54 51 55 51 53 52 58 21 126 157 154 154 132 132 113 94 88 72 80 79 76 83 84 84 93 94 98 105 104 120 102 102 103 117 100 95 99 90 94 92 114 112 97 86 105 101 90 109 111 124 111 92 91 81 89 70 70 66 68 73 76 81 70 83 103 120 101 31 42 54 39 41 46 46 45 48 45 48 43 49 41 41 38 40 57 55 59 53 59 58 55 56 55 53 51 54 53 55 57 23 142 167 153 155 134 120 102 95 82 79 74 66 76 79 82 71 87 91 87 91 101 107 90 108 105 110 98 92 99 88 90 101 108 104 98 89 105 100 92 97 100 107 102 105 78 81 72 66 66 64 67 70 66 73 76 93 110 123 105 27 44 48 51 37 43 45 46 43 46 48 44 44 44 42 40 48 55 53 56 55 56 53 58 52 55 51 53 50 51 54 54 30 151 164 157 143 125 106 88 93 85 84 67 70 69 73 72 72 84 79 77 87 99 92 86 103 98 99 93 98 89 88 87 101 104 107 96 92 98 99 92 87 97 86 86 92 70 66 66 71 62 66 67 68 64 68 87 107 115 124 104 33 37 42 49 42 39 42 47 40 44 45 41 42 47 43 38 41 55 46 57 54 58 55 58 61 52 50 57 54 52 47 50 99 154 165 163 143 103 100 100 84 106 80 68 67 60 65 67 75 78 73 73 81 84 87 85 97 86 88 98 99 81 83 82 99 97 96 93 89 92 93 90 79 94 75 79 75 67 60 53 58 71 60 59 60 73 82 95 110 112 125 106 32 42 40 42 39 44 39 41 40 42 42 45 40 45 44 39 43 55 56 53 52 58 54 49 51 51 54 49 57 50 49 118 126 149 149 156 111 107 101 95 94 96 79 70 67 62 56 57 68 71 70 66 79 75 82 82 84 79 84 89 92 78 85 86 86 85 88 80 89 84 94 71 75 72 77 53 76 58 54 54 53 65 57 61 69 77 97 93 111 110 114 109 28 45 42 42 46 41 43 42 46 40 47 41 41 42 41 41 42 52 56 56 51 52 54 49 53 52 48 42 78 62 123 131 112 167 162 133 122 110 96 111 106 82 76 75 74 58 55 61 66 70 62 69 70 71 81 74 79 78 77 67 83 78 84 77 67 72 72 80 71 81 76 73 65 65 85 42 54 65 57 52 53 66 67 56 74 83 85 97 99 107 119 107 32 48 47 39 43 46 44 47 47 48 41 45 48 37 41 46 43 59 53 54 56 47 54 51 50 53 47 66 110 143 176 92 143 158 154 109 133 112 97 115 98 77 83 82 76 61 58 59 69 65 60 59 72 70 65 74 72 75 72 63 75 77 81 71 62 69 67 78 63 75 70 66 58 68 61 53 50 49 60 66 50 69 58 65 75 79 90 101 102 111 121 121 42 47 47 45 47 47 46 47 49 46 50 41 46 45 40 46 42 58 56 53 53 54 58 69 89 105 128 151 157 175 160 114 151 157 154 117 123 113 107 105 85 83 97 85 71 62 62 66 77 64 59 56 64 71 73 64 69 67 75 71 80 71 55 60 49 67 69 59 64 68 56 64 58 59 53 54 52 49 58 66 66 67 64 69 84 78 82 96 107 115 118 133 80 39 51 48 47 51 45 49 47 52 43 44 49 48 39 46 43 