P2
92
112
255
52 56 60 58 54 57 59 56 59 58 61 54 55 73 70 70 68 64 58 59 61 52 68 71 62 65 46 59 56 41 37 51 65 62 62 62 73 80 80 68 61 52 53 48 40 50 45 40 37 36 37 43 40 52 46 47 42 43 45 50 54 49 53 47 39 51 44 43 47 61 73 66 70 68 64 63 66 68 64 56 53 62 61 61 59 56 57 57 61 48 55 57 51 59 54 61 57 56 60 58 57 63 58 48 65 81 74 66 63 68 61 54 61 48 65 64 62 61 49 54 57 57 49 42 55 61 62 53 62 59 69 68 62 59 56 48 44 45 51 44 44 37 42 47 57 38 38 49 38 34 38 43 40 42 52 43 49 42 47 46 63 74 68 64 72 64 65 59 60 69 70 58 60 68 61 66 60 58 58 60 57 53 62 56 57 54 59 58 57 56 65 53 63 59 54 49 66 82 60 71 58 72 61 55 57 48 60 59 68 67 59 56 66 55 55 48 54 54 62 62 53 54 49 60 64 64 58 61 54 48 58 56 48 46 39 62 52 29 52 37 46 37 34 40 40 43 43 44 40 40 41 48 53 52 63 69 78 71 65 75 70 65 75 76 71 71 82 71 78 65 57 58 58 55 54 58 57 57 61 59 58 62 57 62 64 57 47 51 70 77 63 64 60 79 55 57 52 47 54 62 60 67 67 61 58 71 64 55 59 55 53 61 61 57 56 42 63 71 60 65 53 54 49 66 57 59 47 51 50 47 51 50 40 52 38 40 44 38 39 42 34 44 46 44 45 44 57 71 63 78 68 72 71 68 66 73 67 73 78 77 73 72 69 59 58 52 64 60 59 59 59 58 61 62 58 60 59 47 47 43 77 66 64 60 60 74 60 58 59 54 50 63 64 63 65 58 60 60 62 63 58 58 59 56 57 56 62 57 70 60 56 57 49 56 58 62 65 62 52 43 46 48 44 53 45 49 43 39 40 38 40 42 47 42 52 46 45 47 60 69 70 74 73 77 75 58 70 67 71 77 78 75 79 62 60 62 61 59 61 59 59 57 58 59 59 60 63 58 52 45 47 54 73 66 62 68 60 68 73 60 55 59 49 56 64 60 65 62 65 63 59 58 62 71 66 64 65 66 71 69 72 65 56 67 61 56 65 77 70 85 54 54 52 54 47 49 46 41 48 39 35 38 39 38 57 48 46 47 44 54 52 59 62 71 70 79 82 69 72 69 64 74 81 83 81 78 63 67 58 56 61 58 57 58 57 62 59 60 61 52 43 38 58 62 64 61 58 70 56 73 67 62 52 61 57 67 57 66 62 68 64 62 62 54 58 64 77 66 65 75 71 73 74 70 58 51 72 67 76 87 70 85 71 66 70 57 45 55 45 38 41 40 38 40 43 43 42 61 46 49 49 54 48 58 49 59 56 49 68 62 65 70 64 65 76 77 82 74 60 64 63 56 57 57 59 58 60 59 59 64 51 43 52 36 53 63 54 56 58 58 62 56 74 60 58 64 59 63 68 68 68 68 68 60 63 61 63 61 65 76 72 88 87 82 80 77 68 66 69 79 81 79 72 73 85 76 73 64 53 49 43 37 44 42 48 48 45 48 39 46 56 49 51 46 49 61 50 56 57 60 54 65 65 61 62 73 74 73 79 75 58 63 63 56 60 61 59 61 60 61 55 54 48 53 46 43 39 65 50 60 64 57 60 59 65 65 58 69 60 69 71 66 72 65 74 73 78 71 69 67 66 76 77 79 88 90 93 75 74 86 78 79 87 90 82 84 100 81 76 70 61 52 40 45 42 55 64 62 58 50 51 47 47 56 56 47 54 46 49 52 68 80 71 72 63 63 71 71 77 70 72 78 64 62 72 59 63 55 56 64 57 56 47 42 46 53 47 48 32 67 54 63 63 57 62 56 52 64 64 67 63 69 72 65 70 73 81 74 80 78 75 80 78 74 77 76 90 88 86 80 81 91 81 83 81 92 81 102 86 77 81 74 70 63 46 55 56 59 68 71 61 62 53 52 58 59 57 69 58 60 60 58 77 88 74 81 78 78 80 73 80 76 75 70 58 77 70 69 58 65 56 64 59 45 41 38 45 49 56 45 38 57 59 65 67 61 60 54 56 53 61 63 68 69 67 79 77 82 85 73 85 83 94 91 95 83 85 82 89 82 81 85 84 85 82 74 83 88 93 101 84 72 80 72 85 74 57 52 65 70 74 74 68 75 64 59 69 69 71 71 69 74 79 84 66 66 66 83 84 82 88 84 91 89 84 74 66 79 59 58 56 59 61 63 49 41 35 34 37 51 52 45 39 55 66 62 68 65 61 61 59 48 56 56 59 64 72 72 78 83 87 84 88 90 98 105 100 94 99 91 95 94 82 84 82 86 81 89 96 94 107 92 88 76 78 74 79 72 70 61 70 80 79 85 76 74 76 81 75 77 73 76 69 60 70 67 62 65 79 76 76 88 81 85 86 78 79 65 71 83 50 53 54 53 63 57 47 31 43 37 37 52 48 45 44 55 61 56 67 58 64 68 62 52 55 55 58 61 72 76 85 87 91 98 96 100 104 112 110 116 112 107 109 107 95 95 82 95 98 101 99 107 92 110 84 93 74 75 82 77 75 73 79 82 91 88 86 91 90 96 88 92 96 89 78 72 67 74 76 61 72 73 80 71 83 76 85 83 77 67 75 72 56 57 48 57 68 45 37 41 37 39 40 43 48 48 44 57 56 54 67 62 56 64 67 60 52 56 57 63 74 81 89 96 95 100 104 112 116 111 119 120 126 120 114 121 108 107 106 115 122 116 118 117 109 101 88 89 81 80 81 82 79 82 91 89 98 106 89 92 95 91 102 110 113 101 99 95 82 86 66 67 61 68 85 83 76 84 78 79 71 66 65 64 54 55 48 59 63 33 35 44 28 44 33 41 49 48 54 52 54 43 59 68 58 54 61 54 54 54 60 62 78 92 100 106 111 121 103 111 117 120 115 124 131 123 125 124 121 123 119 124 129 130 143 127 136 107 103 88 98 89 84 86 86 93 104 93 96 102 104 91 95 113 114 119 129 117 113 108 93 76 71 76 78 65 74 74 68 78 75 75 81 73 69 65 54 47 64 38 58 34 31 45 40 43 38 39 50 46 52 44 49 48 48 55 63 58 57 56 58 57 64 84 96 108 111 110 113 122 129 138 142 128 134 144 139 130 142 121 128 141 140 127 133 148 146 131 131 118 106 106 105 97 90 91 88 97 114 123 122 116 111 110 105 125 135 128 132 136 124 119 107 100 79 86 77 82 68 71 71 76 66 71 82 80 76 61 53 47 64 52 53 37 38 41 48 41 46 38 42 44 49 45 55 45 43 46 57 61 61 61 66 68 88 105 110 116 119 124 130 144 146 140 138 151 157 146 140 155 146 134 137 151 143 138 149 141 148 132 136 126 118 113 117 94 100 98 98 100 120 130 122 115 121 121 124 118 153 136 139 145 139 124 129 115 99 82 83 88 69 80 75 68 65 61 67 69 75 68 53 47 68 55 41 35 44 44 46 45 40 44 40 44 42 45 57 45 46 57 54 62 65 71 76 91 103 114 119 124 125 133 127 128 135 143 156 151 157 157 156 147 154 157 150 162 138 136 149 156 143 140 154 127 128 126 126 109 106 107 101 107 117 135 151 152 134 131 127 143 143 166 155 162 154 141 143 125 119 96 93 85 78 72 78 79 65 70 75 78 64 66 62 56 52 58 35 39 33 39 45 39 44 46 44 34 44 39 51 50 49 57 64 66 73 83 90 106 116 124 129 134 134 135 140 139 155 156 154 155 152 162 157 156 159 169 172 160 150 145 156 162 147 154 149 144 138 144 132 128 110 115 104 113 132 131 162 171 154 136 140 157 155 144 146 167 158 153 137 135 129 133 101 99 79 83 73 91 73 67 75 74 70 69 63 64 61 52 33 42 35 35 51 38 36 44 45 43 46 37 48 47 50 58 70 78 86 94 104 117 134 146 154 151 160 157 158 151 152 141 146 152 153 154 172 170 173 173 173 168 154 159 154 152 156 153 151 150 149 145 144 145 133 116 116 112 129 129 151 159 158 129 157 157 154 162 154 150 157 150 148 144 137 142 126 102 91 77 79 88 76 82 60 65 70 69 67 70 71 62 36 35 38 31 45 50 41 35 41 44 40 38 42 50 51 69 72 89 94 106 119 134 146 159 161 160 167 170 171 161 164 163 165 169 172 176 185 179 180 179 179 164 163 176 159 160 166 157 152 154 159 152 150 160 147 129 116 117 123 130 130 130 140 137 151 139 148 172 176 173 170 168 159 146 148 140 147 116 101 81 80 72 72 89 76 70 63 67 74 83 71 64 36 36 36 32 32 49 44 39 40 41 44 38 37 49 59 74 83 99 103 118 136 140 150 159 162 162 167 167 170 167 168 176 181 186 181 178 182 179 178 180 182 165 175 180 163 164 164 163 162 168 157 170 171 166 160 143 135 122 128 129 138 146 155 160 158 154 157 172 183 179 174 168 165 147 152 151 148 136 115 89 83 73 57 77 83 78 63 65 73 81 62 63 34 33 37 29 32 33 46 41 42 33 42 39 39 50 64 85 97 105 118 133 138 145 154 157 164 167 168 167 171 174 173 180 183 185 187 179 180 182 181 181 180 176 184 179 184 170 167 171 174 173 174 177 175 176 170 154 148 148 143 138 142 144 157 161 157 165 173 171 179 183 173 167 171 160 150 155 146 142 125 102 94 85 65 69 78 79 76 71 71 72 65 52 31 32 32 31 34 33 38 40 37 35 39 43 38 56 80 95 115 117 134 136 139 142 147 156 159 165 169 172 171 172 179 180 181 183 186 183 185 184 185 185 191 186 188 182 185 184 174 176 180 179 181 181 174 168 171 166 157 159 155 152 150 148 155 160 163 173 174 174 172 177 174 171 164 170 168 157 151 138 135 111 111 81 64 70 77 71 71 70 64 67 69 49 35 33 33 33 31 33 34 38 38 40 39 37 52 68 88 111 122 129 138 135 139 144 142 154 157 164 169 174 172 175 180 180 180 182 185 184 185 188 187 192 192 192 191 184 187 185 182 178 184 189 183 186 184 177 176 167 167 167 160 155 156 155 158 164 171 171 174 168 170 168 174 173 174 172 178 178 157 149 136 122 120 91 54 56 79 59 65 58 64 61 71 60 35 34 29 36 25 38 33 36 36 38 51 51 59 83 100 120 128 134 138 135 136 140 148 156 154 161 165 173 176 177 180 183 184 187 187 188 194 195 192 192 191 189 186 186 187 186 184 183 186 189 184 185 188 188 183 181 181 180 181 178 175 172 166 163 175 178 178 178 176 175 175 178 182 180 184 181 176 158 141 132 124 106 62 41 76 55 68 66 60 62 49 60 33 36 25 41 35 33 42 37 45 38 56 58 70 87 107 119 133 132 137 137 138 140 147 156 155 159 163 170 176 178 181 180 186 189 195 188 195 198 195 197 195 193 188 188 190 193 191 194 186 190 190 184 191 189 193 196 195 191 194 193 197 195 190 189 188 186 189 191 190 189 184 183 183 187 182 183 181 171 154 133 134 121 66 41 74 55 51 77 65 65 53 50 39 30 31 40 32 37 37 40 45 48 54 65 75 93 105 118 130 132 138 138 137 141 147 152 156 161 161 170 171 176 182 183 189 190 195 193 197 198 198 198 201 200 199 197 199 199 202 201 200 197 196 196 200 199 200 204 201 203 203 203 205 205 204 203 203 201 201 196 195 194 191 188 185 186 186 183 183 176 171 142 133 128 84 51 68 63 52 72 59 56 42 61 32 31 31 37 37 34 36 47 46 40 57 67 77 93 108 120 127 131 134 134 137 142 143 150 155 156 161 166 169 170 179 183 187 189 191 195 201 202 200 202 204 204 203 203 205 204 206 206 206 206 204 202 205 204 208 204 207 204 206 207 208 205 203 205 206 205 203 200 201 199 195 190 187 187 188 183 184 174 174 158 136 137 103 60 63 73 56 57 59 47 43 56 32 33 34 32 35 33 45 41 43 46 60 68 78 93 110 116 130 129 133 140 135 138 140 148 156 158 162 162 168 173 178 186 189 194 194 198 201 199 200 200 205 206 205 207 205 205 208 206 209 207 205 209 205 208 207 207 207 207 207 207 207 204 205 204 204 206 203 202 202 199 197 193 188 191 187 183 184 176 176 165 146 140 109 72 58 85 53 60 60 53 47 48 29 33 28 39 33 35 36 39 40 53 55 70 73 93 106 112 124 131 132 135 134 134 138 144 156 157 158 161 168 174 180 188 187 196 200 195 203 202 204 204 205 208 206 210 209 208 209 204 209 209 209 210 207 208 208 205 209 207 204 208 209 206 208 210 208 207 207 206 203 205 197 197 189 191 184 185 187 183 174 164 162 141 114 75 62 86 62 55 66 61 59 35 34 30 27 31 36 33 41 38 38 51 52 63 72 85 101 108 120 127 133 135 136 134 138 148 152 156 159 167 168 180 181 184 185 192 193 199 199 203 204 207 205 208 209 209 211 210 206 208 209 208 208 210 207 209 210 205 208 206 205 207 208 207 208 209 208 207 208 207 205 201 196 194 180 185 182 183 186 186 179 164 163 151 118 85 72 78 70 49 63 50 48 36 30 33 31 32 34 33 38 28 46 46 47 49 75 75 98 107 123 130 129 140 135 136 138 142 151 156 159 166 167 178 179 185 181 193 191 194 198 201 207 204 208 207 210 209 211 211 211 209 207 209 210 209 209 207 206 208 210 207 209 208 208 210 211 210 210 208 207 208 207 197 195 194 189 185 186 176 182 184 177 163 161 163 125 83 69 79 66 72 57 62 43 38 33 29 35 34 30 34 30 31 49 41 38 48 58 73 99 109 120 130 132 133 138 138 137 149 145 153 157 163 168 172 179 183 187 186 189 189 193 198 198 200 208 206 208 210 209 210 210 210 208 206 209 206 209 205 205 207 205 209 208 211 209 212 210 211 208 206 208 202 203 198 199 199 199 193 188 185 178 186 180 164 156 165 132 95 77 64 70 78 64 55 51 33 33 30 29 36 25 32 33 36 43 34 36 44 54 75 97 111 122 135 131 136 137 143 143 146 150 149 154 161 166 171 179 178 186 186 185 193 188 195 195 194 198 203 205 208 208 204 211 206 204 205 199 200 205 204 204 203 208 204 209 209 209 211 207 203 201 201 204 203 204 203 204 201 201 196 193 186 183 179 174 164 158 167 145 99 83 60 74 82 58 63 41 38 30 29 36 30 28 34 37 35 33 36 34 41 58 82 94 117 125 134 135 138 138 142 146 149 152 156 155 160 166 172 178 180 184 187 188 185 184 193 195 193 198 197 201 203 202 200 204 203 198 200 200 200 199 202 199 201 203 203 206 201 202 203 196 196 195 198 204 206 205 204 203 199 202 198 195 192 186 181 165 150 157 162 157 102 74 69 64 82 73 59 38 30 29 30 33 35 30 38 36 39 29 37 34 42 59 87 108 131 129 133 135 140 138 144 150 151 160 161 162 163 169 172 172 179 185 188 188 184 184 181 191 196 196 199 201 201 204 198 203 199 203 203 201 203 199 203 199 200 199 200 198 200 199 200 191 191 199 204 207 207 206 201 202 200 202 200 197 194 193 193 166 140 145 160 164 112 75 59 56 60 87 63 42 34 29 29 33 29 33 32 38 34 27 32 35 41 66 101 121 129 132 132 137 135 136 146 157 161 164 170 166 174 174 176 177 179 183 186 189 188 193 188 186 190 191 202 202 205 209 204 208 204 205 208 207 205 204 203 206 202 199 205 202 205 204 196 193 202 206 206 208 207 207 198 202 202 202 201 196 198 194 193 178 146 131 145 167 142 72 60 59 62 73 67 56 25 40 28 29 34 31 37 35 30 26 35 34 50 89 114 128 130 132 135 135 137 139 150 166 167 164 159 156 168 166 168 174 174 176 184 183 187 185 191 188 183 185 188 203 205 209 209 208 207 209 207 208 208 205 204 206 201 205 207 205 200 195 197 203 200 208 205 207 205 203 199 195 199 188 196 195 193 191 187 187 158 129 124 155 157 78 62 59 61 55 54 50 29 43 28 34 34 30 33 31 28 33 32 38 72 104 124 129 131 130 137 133 139 143 151 150 147 144 128 136 132 126 131 126 121 134 144 148 161 159 163 173 175 176 162 178 197 205 207 207 208 208 207 206 208 206 206 206 204 207 202 197 187 189 200 201 200 192 202 203 194 185 179 172 162 159 158 165 154 155 157 171 168 133 121 129 163 93 63 50 50 58 48 40 40 41 28 32 34 30 35 35 25 32 32 50 93 111 124 132 132 130 133 134 131 119 108 101 103 114 122 141 134 129 130 139 179 192 167 165 180 184 186 191 197 187 186 197 207 213 216 213 214 215 215 215 214 214 213 215 214 214 213 213 211 211 213 216 217 176 205 203 200 198 195 202 199 173 193 193 184 178 184 194 142 142 117 121 148 107 56 52 58 47 47 31 58 50 38 28 32 33 29 33 29 34 39 65 104 120 127 130 132 130 131 120 103 98 114 137 161 178 163 156 144 132 128 102 107 145 110 106 113 111 113 131 149 143 151 154 167 170 196 197 197 194 199 198 197 194 189 183 173 162 141 141 149 153 185 186 156 123 132 125 121 123 119 124 137 133 145 153 171 168 169 188 183 178 151 128 121 115 50 49 73 44 43 33 65 59 43 29 33 32 30 28 27 36 43 80 116 130 132 130 133 131 117 103 107 124 126 122 114 109 111 106 103 96 95 87 84 89 87 85 91 89 96 100 104 125 129 131 145 119 150 170 178 169 177 173 180 177 179 186 184 160 138 149 135 136 166 149 146 139 122 117 108 110 104 100 93 91 90 93 112 119 118 121 138 115 107 160 150 160 72 49 55 54 36 38 71 55 51 28 35 28 25 33 29 32 45 97 125 133 139 135 138 131 103 113 113 123 123 118 114 115 128 130 115 121 123 121 113 110 115 109 121 111 107 119 116 127 134 129 151 107 110 133 157 156 168 171 169 166 161 185 187 147 155 159 166 163 179 148 152 141 116 117 114 124 110 104 110 107 126 132 123 119 123 126 128 124 87 145 133 63 149 85 38 56 43 49 72 64 73 33 27 28 23 29 29 30 45 112 131 132 145 142 139 121 117 118 123 126 131 125 128 124 124 127 127 132 140 144 149 156 151 155 157 156 141 140 139 147 148 155 151 108 136 116 170 185 195 198 196 191 188 157 156 154 162 151 188 181 177 166 169 155 153 155 155 160 156 153 163 169 170 172 168 163 151 148 137 138 131 122 174 30 55 145 58 55 47 57 74 137 130 98 35 23 24 29 31 27 59 119 133 133 139 139 128 120 117 116 117 124 115 122 117 122 125 132 128 128 142 144 140 151 151 153 155 157 149 152 149 156 156 150 127 127 172 140 160 184 195 190 212 185 198 197 134 171 158 170 192 187 183 176 177 173 174 167 165 170 165 167 171 168 173 174 174 177 172 159 157 126 160 121 179 63 39 84 134 52 47 65 70 133 137 143 120 44 20 44 57 43 61 117 133 131 134 133 109 141 117 108 112 114 114 124 133 132 130 138 126 126 132 139 136 144 147 146 161 155 148 143 131 123 117 117 133 155 169 134 176 112 170 142 225 162 165 196 151 194 157 173 192 188 183 175 169 164 168 167 156 160 159 155 163 159 165 171 176 174 166 170 159 148 158 134 172 85 39 62 149 55 107 68 65 75 110 140 143 116 47 29 25 67 69 80 98 135 127 131 135 183 114 116 106 115 120 116 121 116 109 104 100 89 93 99 104 112 111 117 123 120 118 112 108 101 96 94 109 112 126 115 130 129 154 170 188 199 194 184 99 187 166 168 180 173 169 168 162 158 143 133 115 109 107 107 114 125 136 156 164 171 167 164 151 164 157 142 177 89 53 121 113 150 140 120 55 57 56 98 126 106 67 33 28 26 86 84 76 89 112 190 200 147 110 115 109 109 105 104 99 79 88 95 100 102 110 111 127 130 121 119 124 99 98 89 99 102 100 103 103 108 122 82 163 116 171 199 206 210 211 213 135 177 130 173 176 164 161 158 152 127 108 106 112 120 120 124 124 124 126 139 139 147 164 155 144 168 165 147 170 85 86 130 133 135 225 115 52 82 73 76 91 71 48 34 30 28 81 130 107 70 89 84 218 118 110 115 121 109 99 90 80 85 88 97 104 116 113 98 96 103 91 93 94 104 101 96 87 92 92 90 94 110 120 87 156 143 176 200 207 212 213 216 143 153 115 170 171 162 156 150 124 112 114 123 111 117 107 123 112 123 136 135 139 143 150 147 169 171 171 155 164 90 107 122 135 161 240 167 34 85 82 105 87 71 52 33 32 33 77 113 135 125 105 71 209 118 114 117 126 114 94 88 83 87 98 103 102 89 71 64 39 112 49 48 54 68 76 88 94 102 101 94 83 105 128 100 149 172 173 196 202 208 211 220 154 154 93 158 162 161 148 131 126 124 125 110 96 73 99 64 91 88 98 107 140 138 135 149 178 173 178 165 175 92 116 129 140 115 147 206 52 82 86 114 111 76 85 45 24 47 89 96 117 134 133 114 220 131 119 121 122 113 97 86 82 72 84 78 69 82 72 67 46 38 41 60 61 109 74 71 83 101 116 118 92 95 105 135 130 123 162 167 174 180 188 208 157 124 62 142 167 157 147 140 127 113 127 119 108 53 107 48 84 93 169 117 88 124 129 148 175 177 180 176 183 92 126 127 159 154 101 178 88 80 98 117 120 101 90 59 32 51 105 99 93 125 126 147 231 141 128 126 122 112 103 95 75 63 60 63 67 99 95 69 59 45 63 62 85 116 87 96 75 66 75 106 92 121 134 161 91 111 151 172 189 195 190 181 170 112 41 113 154 147 120 93 111 110 135 131 97 82 30 127 82 104 181 165 95 78 120 156 175 175 189 193 192 94 141 123 159 153 103 175 90 80 115 130 122 123 98 81 48 50 112 108 94 108 122 118 231 138 133 137 133 126 117 109 93 77 86 86 93 103 114 95 93 92 88 86 95 97 94 98 104 81 157 192 198 218 221 125 81 126 163 198 207 211 214 205 179 124 49 109 147 123 107 104 104 107 113 127 93 89 44 138 101 122 159 124 97 94 105 146 170 178 182 188 181 129 146 134 151 178 100 175 89 89 133 128 125 123 108 78 54 61 116 115 105 104 108 118 233 151 129 139 141 135 130 123 111 101 106 109 114 113 117 104 104 106 106 111 117 114 108 117 118 153 233 220 221 220 225 99 99 141 179 201 210 209 211 210 199 121 90 104 150 141 139 136 122 120 121 127 130 118 109 121 116 129 136 131 111 185 194 171 178 188 192 186 178 161 139 168 123 217 105 181 77 108 136 126 112 110 77 49 67 76 119 116 112 108 108 104 241 168 131 137 142 144 142 134 120 110 108 122 128 134 139 122 109 111 105 113 109 107 103 96 104 82 171 184 164 174 118 98 114 160 184 202 210 210 213 206 207 146 105 127 138 141 138 136 127 127 123 132 142 135 149 153 153 153 153 150 170 231 221 217 218 214 195 185 173 174 143 159 179 233 118 168 73 114 133 117 107 98 76 43 78 75 121 120 115 116 114 78 242 174 134 140 142 151 151 149 135 119 111 111 125 132 138 125 113 110 107 106 101 98 97 108 107 105 107 117 137 100 115 103 133 165 180 200 212 211 214 199 202 168 135 127 131 145 136 140 137 139 137 139 144 145 156 160 162 168 167 162 165 227 220 219 220 225 200 184 159 172 167 90 196 222 173 130 59 114 131 111 98 100 91 63 72 94 116 115 119 118 117 81 199 155 136 139 145 147 150 155 149 143 135 118 111 109 114 105 101 97 104 104 102 113 117 123 123 135 139 148 152 96 123 115 145 162 182 197 210 209 216 202 198 185 159 143 117 144 142 138 144 145 140 144 153 159 163 162 169 170 166 154 128 170 224 221 219 230 190 183 159 169 164 50 228 234 164 82 66 119 123 106 94 118 112 77 72 100 115 115 118 125 120 115 126 154 131 140 148 149 150 152 148 145 144 141 131 122 119 107 113 120 119 120 124 131 142 135 137 152 149 161 115 123 111 135 151 158 174 194 209 206 212 205 193 200 155 171 139 133 146 140 138 143 146 145 147 148 148 151 156 150 144 138 155 176 205 216 215 204 183 180 155 180 127 57 237 224 134 58 68 131 125 108 112 120 116 95 80 103 114 114 121 126 123 126 103 144 127 141 149 150 153 154 155 154 153 149 154 149 147 138 136 134 141 140 142 143 157 155 156 157 158 138 117 127 119 150 150 149 167 185 206 206 211 201 194 201 174 178 181 156 132 143 135 138 141 142 144 142 137 130 131 133 151 163 181 192 192 199 195 191 184 172 160 175 78 104 208 182 95 64 67 126 135 126 110 121 121 102 107 109 110 113 116 127 127 127 113 117 126 136 145 154 156 156 156 156 164 159 159 156 158 159 151 143 150 151 155 158 161 167 158 167 144 117 130 112 135 156 155 147 164 185 205 206 204 199 195 196 189 170 192 183 155 147 166 153 153 145 144 140 140 144 147 165 176 182 183 192 193 193 195 191 181 166 168 151 74 192 187 168 66 63 69 114 142 147 135 129 136 110 132 111 103 112 121 122 130 127 121 90 141 134 140 156 156 152 158 167 172 169 167 167 168 162 168 157 162 162 164 163 169 162 162 146 114 141 125 113 152 157 152 150 158 184 203 205 209 198 195 193 196 171 188 195 190 151 161 191 180 179 175 170 168 177 178 182 188 190 184 194 189 192 191 192 177 168 159 113 186 186 183 137 63 64 71 88 123 158 156 138 152 119 132 99 103 112 115 123 126 129 115 116 106 140 144 155 155 157 163 171 172 168 166 176 174 172 170 172 170 174 175 171 164 160 137 120 139 141 115 137 162 156 153 152 165 174 204 206 207 201 193 190 203 185 184 200 197 194 158 147 194 197 192 188 184 189 187 187 190 192 188 194 195 193 192 183 175 171 174 192 234 202 181 98 65 70 69 71 90 120 155 155 163 136 118 102 98 107 113 121 133 127 120 122 132 97 163 194 173 164 169 167 171 173 178 179 181 181 183 180 183 181 177 165 143 123 137 157 140 118 120 147 160 152 156 162 168 186 205 210 210 194 197 193 201 193 182 198 201 202 196 181 142 169 197 202 196 199 196 194 200 197 201 209 202 207 210 201 189 191 212 200 176 188 171 66 63 69 75 36 100 93 97 159 164 148 114 97 101 103 107 120 127 133 128 124 123 121 103 137 201 213 196 182 182 182 189 189 191 187 188 184 176 159 149 145 143 162 160 157 132 109 129 155 146 150 154 166 174 185 204 208 211 202 193 190 194 193 186 189 203 207 206 203 189 171 148 163 176 191 195 200 206 207 212 216 218 221 221 221 227 202 175 166 182 175 132 65 68 71 66 50 61 116 80 144 165 165 143 104 97 103 106 116 126 138 138 126 129 132 134 128 126 144 151 147 156 165 165 163 161 158 155 158 169 179 169 164 175 172 164 149 127 112 131 142 141 135 151 167 180 188 202 209 209 205 196 190 191 188 187 194 198 205 205 208 201 202 197 194 183 176 174 177 187 193 204 207 218 217 216 217 204 177 170 169 164 182 87 63 69 72 62 51 38 92 110 127 154 164 165 94 94 106 103 111 117 132 138 134 134 131 127 129 135 150 157 162 171 176 182 181 187 187 190 196 199 198 193 170 174 166 158 136 124 112 134 141 139 141 151 165 188 190 201 204 206 206 200 194 183 178 179 193 199 202 202 201 201 200 201 201 200 200 202 202 203 205 200 203 198 184 170 168 171 175 171 171 183 139 65 66 73 68 63 52 50 44 117 142 132 143 159 110 94 103 103 105 115 132 137 137 138 136 132 138 148 159 164 167 176 181 181 181 185 183 187 192 195 193 199 176 163 157 144 134 116 113 141 154 152 149 151 170 181 193 202 204 204 209 200 194 186 172 167 189 200 201 201 195 198 197 194 197 198 199 201 200 202 203 201 205 203 201 186 178 181 182 174 172 187 80 68 72 72 62 69 51 47 35 85 135 136 135 131 108 91 108 108 103 112 130 135 137 131 134 133 135 149 162 160 165 163 174 167 169 174 175 181 187 188 190 196 188 159 143 137 120 110 125 157 175 171 152 162 169 176 191 203 206 205 207 203 196 186 183 153 179 194 194 196 190 196 191 190 194 193 191 194 193 196 198 197 200 200 201 191 180 177 186 170 194 133 60 68 69 69 69 69 49 49 42 52 124 132 142 126 115 90 110 107 110 106 129 129 129 130 129 129 138 138 152 152 155 155 161 159 167 168 174 181 183 188 191 196 194 186 144 132 114 113 161 172 175 171 161 165 169 171 192 205 207 206 206 204 199 188 194 177 169 186 190 189 187 187 187 183 186 189 185 183 184 194 190 196 198 196 198 189 186 178 180 166 207 91 66 64 74 67 71 66 42 51 54 29 107 131 140 143 138 98 103 110 113 103 119 124 125 129 124 129 136 139 143 141 146 149 159 160 164 172 179 183 183 190 192 197 197 201 161 137 96 156 178 171 164 160 155 157 160 167 186 210 206 206 207 202 199 191 192 206 184 185 190 184 184 178 183 185 186 187 191 187 186 188 191 192 193 191 192 190 188 180 177 169 210 88 61 71 68 68 64 67 41 50 47 43 58 121 133 143 139 100 95 110 114 102 117 121 121 125 122 125 132 141 139 139 141 151 161 162 168 175 181 182 188 194 195 200 195 175 151 138 97 150 155 153 143 148 130 136 146 150 178 203 205 209 207 197 192 189 194 204 186 177 185 186 182 179 183 183 187 190 193 191 190 190 190 191 189 188 188 188 187 182 171 176 197 77 65 69 70 67 66 69 49 48 48 50 45 74 118 128 126 90 93 105 114 105 109 119 121 121 116 123 131 134 137 135 143 152 159 164 173 179 185 188 191 198 197 189 159 138 137 135 103 113 139 143 137 140 128 121 129 137 165 192 210 208 192 183 183 184 190 189 168 179 189 190 186 179 179 180 188 188 193 193 195 200 194 192 191 190 188 189 183 180 167 190 155 63 62 72 69 70 65 65 49 51 50 48 50 42 73 103 109 75 90 109 113 111 109 112 111 118 115 118 130 128 137 138 148 157 163 173 179 183 190 193 191 194 176 143 129 128 141 134 137 80 137 146 128 105 105 112 130 143 162 184 199 193 185 178 168 163 152 143 170 190 194 196 189 179 173 180 184 184 193 193 193 198 197 194 190 189 184 187 186 179 167 177 95 59 72 68 69 67 69 69 46 48 46 51 48 48 49 58 66 46 81 108 115 112 108 107 110 113 112 115 126 129 134 142 149 156 167 174 184 188 189 192 181 153 125 121 125 132 134 142 146 119 84 101 90 82 68 59 109 163 167 178 188 192 197 159 141 127 120 143 164 180 194 194 194 186 175 170 180 182 189 192 193 199 193 191 192 188 187 185 181 178 165 111 62 63 69 67 68 64 74 69 47 50 51 51 49 52 47 50 54 43 65 104 117 113 114 104 104 109 109 118 122 127 134 146 155 162 168 179 184 193 187 169 131 118 118 124 127 138 140 149 150 146 110 98 92 103 95 88 54 140 176 175 175 187 186 141 133 112 128 149 156 157 179 188 190 188 188 169 161 178 185 194 191 199 187 183 192 188 186 183 174 185 124 57 67 64 70 64 65 70 66 69 51 45 53 48 48 46 50 45 50 40 59 103 115 116 112 107 107 103 106 115 120 125 136 146 159 166 176 180 187 182 142 115 109 115 125 127 133 139 147 146 146 145 105 95 93 95 104 117 98 108 170 174 169 177 154 129 116 102 125 127 139 150 149 170 178 184 188 187 173 156 172 190 192 194 186 182 193 186 187 178 171 182 101 57 66 65 70 64 70 63 63 67 54 52 51 51 52 48 50 48 54 46 47 103 111 117 117 110 106 105 103 111 116 121 132 145 158 173 178 179 153 116 107 112 110 110 116 123 131 133 134 129 128 136 99 95 84 94 93 110 126 131 157 170 167 153 121 116 108 102 108 123 126 117 141 138 167 159 170 179 173 171 147 168 182 188 192 194 194 187 183 176 168 181 82 60 73 66 69 65 68 63 65 69 49 47 48 52 47 55 50 48 51 52 38 99 110 115 115 115 110 108 102 112 110 112 124 142 157 166 163 124 95 100 112 104 102 106 114 115 121 126 119 111 108 115 101 88 89 86 92 90 112 120 151 172 140 130 98 89 118 101 100 107 111 112 111 139 138 143 137 149 154 151 160 140 168 184 187 187 184 177 178 171 169 178 65 66 67 64 66 63 69 65 66 62 49 44 52 45 55 46 53 54 50 57 43 87 109 113 119 117 113 109 108 110 111 104 112 135 151 146 125 89 96 97 102 100 102 108 112 115 118 110 103 101 98 90 89 84 81 85 88 82 99 114 126 155 120 99 97 82 111 104 103 101 108 93 100 116 127 122 105 122 127 114 116 142 124 170 184 188 189 174 173 172 171 167 62 59 65 71 68 62 65 70 70 63 46 53 49 51 53 46 54 49 53 52 38 83 106 110 117 116 114 111 111 110 113 106 110 119 123 115 101 97 107 110 114 105 103 111 106 113 106 107 102 92 102 86 85 89 84 89 92 99 106 114 135 153 124 95 91 93 92 103 89 100 95 98 87 100 106 113 102 100 121 103 106 108 98 154 183 189 186 171 165 165 167 155 57 62 68 65 66 68 66 65 71 61 54 50 49 47 51 49 49 54 51 53 43 73 105 111 117 115 115 116 113 116 110 111 111 121 119 122 104 107 117 118 110 115 107 102 108 110 102 101 98 90 97 90 87 98 90 97 103 94 91 105 134 154 119 86 77 93 95 91 84 95 86 93 87 89 92 98 106 94 109 115 101 105 88 127 179 187 187 173 177 161 166 137 57 69 64 67 69 61 66 69 66 68 53 46 47 50 53 46 54 48 53 52 43 67 104 113 119 115 117 117 115 112 110 107 105 111 122 134 106 106 122 110 110 113 104 101 107 100 97 95 80 95 94 82 80 90 90 91 90 88 100 110 129 150 136 85 76 93 108 87 81 94 92 91 102 90 92 92 111 97 99 110 111 102 88 108 155 182 180 169 171 172 177 124 49 67 63 73 63 63 65 65 64 66 47 49 53 46 52 50 45 52 48 48 49 50 105 108 112 117 117 119 114 111 106 102 104 110 117 121 112 105 112 104 105 108 99 106 101 97 98 98 94 102 98 90 89 89 85 90 99 98 101 124 127 143 137 119 111 104 110 100 95 101 106 108 117 104 97 101 106 104 98 103 112 97 99 112 126 162 163 161 168 171 174 105 51 66 64 64 66 67 67 63 60 64 48 50 48 52 45 49 49 48 49 52 47 47 100 107 107 114 120 113 113 114 107 94 109 107 115 121 110 98 94 103 107 109 96 78 74 92 96 109 110 108 113 107 112 114 119 120 133 135 133 146 154 162 159 162 166 158 149 125 105 126 138 129 143 129 102 90 101 105 120 106 109 100 111 116 126 142 143 168 168 162 165 78 60 64 68 65 66 65 72 57 68 63 47 47 49 46 48 44 50 49 46 52 52 37 92 106 106 113 118 115 116 112 109 98 105 110 120 119 109 106 93 101 94 108 100 70 42 45 64 98 102 116 110 114 117 120 126 127 139 138 140 149 156 162 170 163 164 165 161 158 137 147 152 144 134 100 73 77 113 114 128 115 108 115 125 128 139 134 136 158 171 174 152 66 67 64 68 68 64 65 68 64 73 61 53 47 44 48 49 48 49 46 51 48 53 39 78 100 109 113 113 115 117 109 108 98 92 105 111 118 118 116 106 99 92 109 108 110 83 60 55 67 88 103 111 115 132 132 127 136 135 139 135 143 143 157 162 156 164 167 161 162 156 151 147 130 116 89 98 120 143 123 137 122 117 123 120 137 148 153 147 152 162 170 137 70 62 73 66 66 65 62 70 61 69 67 52 50 48 50 51 49 50 45 50 50 50 43 70 97 105 113 108 113 119 114 108 102 95 98 106 113 126 129 119 104 102 106 122 122 111 89 85 81 82 70 76 81 87 96 104 141 133 146 140 148 145 165 160 154 169 169 154 130 125 121 118 120 127 120 132 166 171 140 141 130 127 144 141 154 151 156 148 157 169 171 109 53 64 65 71 67 62 64 62 69 67 66 49 43 48 51 48 49 53 47 52 52 53 46 57 93 102 107 110 115 113 115 112 110 104 96 106 111 118 133 131 118 111 111 123 125 121 108 98 91 96 95 88 90 90 80 76 94 94 111 123 129 132 143 132 130 120 124 110 110 126 127 129 133 136 135 163 183 176 171 144 133 140 150 152 158 152 157 159 169 170 168 86 59 63 63 67 65 59 68 59 62 65 66 44 46 52 56 45 51 47 45 50 47 50 47 50 82 101 102 109 116 116 118 116 104 101 102 103 107 112 124 130 129 115 120 120 127 121 117 114 106 100 96 96 102 99 91 96 103 101 111 108 114 108 108 109 111 113 120 126 127 136 142 135 138 142 166 184 183 183 174 154 144 163 181 154 164 164 167 172 175 169 151 59 58 65 63 59 67 58 67 62 61 62 57 51 47 50 48 49 43 50 47 43 51 49 43 43 76 90 102 107 112 115 113 109 98 100 106 108 101 114 105 122 126 110 116 125 123 123 119 116 117 113 107 104 105 108 105 111 119 118 135 129 126 129 121 125 129 128 138 140 142 144 151 145 151 170 184 182 184 187 168 166 162 185 193 167 161 175 163 176 169 173 116 54 60 56 58 58 59 64 58 61 65 61 59 44 46 48 48 43 46 49 45 47 49 46 47 39 67 90 95 104 111 114 112 109 95 107 104 105 102 106 104 118 124 105 109 124 123 120 116 117 115 115 119 121 116 115 120 115 126 129 139 144 141 148 141 144 146 156 162 165 153 156 155 166 181 187 184 181 183 179 163 176 179 195 184 172 170 176 172 176 172 168 83 49 60 57 60 60 59 66 58 60 61 58 57 40 48 47 49 40 48 48 42 51 47 47 49 45 47 85 95 101 106 108 111 104 102 104 106 98 94 102 103 113 115 106 107 121 123 123 116 122 111 117 114 117 124 133 137 133 130 143 139 140 143 148 147 151 157 168 171 174 168 174 181 186 189 187 182 180 182 162 154 184 187 181 170 178 182 182 178 183 174 145 63 53 58 58 60 53 63 58 64 59 62 58 56 42 49 50 49 49 47 50 50 48 49 51 47 47 42 75 90 98 103 102 107 103 103 105 101 96 95 98 100 109 110 108 106 121 130 123 119 118 113 113 108 109 114 116 133 143 140 153 160 161 154 152 156 164 166 178 182 187 188 190 184 184 184 188 183 182 173 161 147 184 186 164 178 186 188 184 178 179 171 112 52 52 58 55 58 55 59 56 61 56 66 52 59 49 43 55 44 48 47 47 50 42 48 53 45 51 38 87 84 91 105 103 102 108 99 108 95 97 102 99 88 96 102 102 105 119 126 133 124 123 112 114 113 111 110 100 110 116 118 120 125 126 122 118 132 131 141 164 161 177 176 175 174 179 184 185 182 174 164 159 149 162 175 167 183 188 189 184 180 171 158 71 45 54 54 50 50 54 57 57 55 54 64 53 58 46 47 46 47 44 45 46 46 41 51 42 47 46 37 104 81 80 98 100 103 103 100 101 97 104 95 99 88 91 91 102 110 116 121 130 133 125 124 117 114 111 100 107 98 94 100 108 103 88 99 99 104 92 106 131 139 146 148 163 169 182 182 184 179 158 167 128 145 150 171 172 186 186 191 181 172 164 115 55 49 54 49 50 50 49 49 55 57 55 57 57 62 43 52 41 50 47 45 49 44 43 47 46 48 44 40 107 101 75 90 104 99 101 102 96 97 106 88 89 87 90 84 97 100 110 111 123 130 129 125 123 122 107 106 109 96 88 91 82 85 78 88 91 79 83 92 107 118 137 146 163 170 171 176 179 170 148 159 134 138 146 173 178 184 189 187 181 171 157 69 47 49 47 49 52 49 53 46 52 56 52 54 57 49 48 50 54 44 46 48 49 46 44 50 47 44 45 41 111 111 81 85 86 93 97 99 97 94 96 88 84 85 87 91 96 89 110 112 126 126 127 128 130 125 118 107 112 93 83 85 75 88 79 81 81 78 77 88 108 107 141 161 165 160 177 165 176 165 140 137 132 125 140 174 175 180 184 185 174 166 107 49 46 53 42 47 47 46 51 47 51 48 55 58 51 50 52 60 51 47 49 50 47 49 49 51 44 46 45 48 113 108 96 77 84 91 91 97 91 86 90 81 90 81 86 89 95 92 112 112 125 130 132 137 134 126 111 111 93 91 86 80 76 80 81 84 72 78 81 85 105 102 130 153 149 161 172 174 175 178 144 136 126 132 132 174 172 182 182 179 181 130 59 48 46 50 49 41 45 49 47 48 50 47 53 51 55 54 56 48 54 50 49 52 48 49 50 50 48 53 42 61 110 109 103 85 80 83 91 92 91 80 74 69 80 76 82 85 92 93 110 110 116 131 141 157 144 128 116 105 98 94 92 82 89 79 85 88 78 89 93 93 112 93 121 145 146 165 171 185 173 169 151 134 131 113 137 166 175 184 173 177 155 80 40 48 44 49 46 49 43 47 48 48 49 46 51 46 57 52 56 55 52 53 50 49 49 45 52 47 49 49 35 70 112 111 101 96 81 85 87 84 83 78 72 65 72 72 79 89 89 90 95 91 100 129 137 145 141 125 122 105 98 94 95 95 96 88 82 79 104 99 97 112 113 94 106 146 154 161 175 182 176 143 147 128 128 132 106 143 181 174 177 157 89 45 46 49 45 45 50 45 40 49 43 48 42 48 48 45 53 51 55 54 55 55 52 46 55 43 51 47 48 48 31 80 111 109 104 97 86 80 88 82 84 80 74 69 64 70 73 78 77 86 82 84 90 113 125 130 130 111 102 98 102 101 106 107 107 96 95 103 123 102 114 117 117 98 113 124 148 154 162 169 170 140 131 121 126 124 121 121 164 177 162 95 49 45 50 48 48 47 46 45 46 45 50 42 42 46 46 46 50 52 53 50 55 54 50 50 44 45 51 47 51 47 33 94 115 110 102 100 85 84 80 77 79 80 65 62 60 54 65 67 69 78 72 75 76 107 108 107 116 102 109 107 103 104 111 113 112 103 114 121 116 106 127 121 120 106 135 124 126 139 154 140 143 129 124 117 115 97 130 127 141 161 125 40 43 50 53 54 51 54 46 43 47 38 50 46 47 42 48 45 43 48 53 52 56 53 53 50 48 52 45 49 49 47 36 106 114 114 102 100 92 79 84 73 78 74 66 59 57 54 58 61 62 75 73 66 75 86 101 94 109 99 108 96 112 105 112 107 114 118 119 130 117 117 128 121 120 115 147 128 127 128 156 147 127 123 118 106 104 95 119 131 139 155 115 41 50 56 53 51 48 54 54 42 45 46 47 43 46 42 47 44 45 48 60 56 53 53 52 54 48 52 48 45 49 42 39 118 117 117 109 100 93 86 79 81 75 67 66 65 54 65 54 54 61 76 64 62 72 81 91 89 98 94 93 91 111 109 107 107 110 125 116 144 127 129 130 121 114 125 141 129 127 122 141 141 123 111 108 96 91 92 102 118 138 161 113 51 52 48 45 45 47 46 46 55 37 45 44 45 45 49 43 44 48 46 56 57 55 59 52 54 51 51 48 50 49 38 58 118 123 119 117 108 97 91 77 76 68 66 66 63 62 65 59 64 52 71 66 62 75 87 72 79 92 90 84 85 110 113 107 111 130 110 123 149 117 121 131 125 115 132 141 131 130 115 121 125 111 97 92 90 84 89 89 115 144 160 108 50 49 46 48 48 45 52 37 56 37 42 42 40 42 50 39 45 41 42 58 56 54 53 55 52 50 54 41 53 46 36 78 117 123 123 120 115 100 95 76 69 70 72 67 61 63 52 60 64 57 62 63 62 78 75 70 71 89 76 87 92 103 105 116 110 118 110 120 122 118 112 114 121 116 123 134 130 138 113 110 114 93 90 83 73 88 88 98 107 132 160 106 46 61 45 46 45 45 45 47 45 40 40 45 41 39 40 46 40 41 45 58 56 58 50 54 53 54 51 50 43 40 82 110 117 122 122 124 120 112 101 77 64 68 72 64 68 62 48 58 55 56 58 54 60 70 69 74 75 80 70 88 94 92 93 107 104 114 114 115 111 115 111 112 117 116 115 129 125 120 108 98 107 90 82 75 68 79 84 97 111 127 153 113 41 64 45 45 42 47 42 46 43 45 41 42 45 36 42 46 40 41 45 54 55 56 49 52 54 47 48 48 41 84 130 107 117 124 125 125 127 116 104 89 69 64 70 72 64 64 52 65 56 58 46 54 53 63 72 69 67 70 67 82 93 92 90 104 97 101 103 120 105 97 108 98 110 109 104 116 109 105 98 94 82 83 78 74 73 75 90 96 121 142 152 106 47 69 57 41 45 41 43 46 42 41 43 42 44 41 38 46 41 42 42 55 52 58 52 55 56 50 59 46 82 145 102 112 115 123 123 125 125 119 98 83 74 68 69 70 58 65 65 56 65 58 47 53 49 67 64 65 62 58 68 82 77 87 83 87 91 90 101 113 89 83 84 89 102 95 98 96 99 85 88 88 72 74 77 71 81 83 98 100 110 140 143 101 55 60 61 45 41 47 40 41 40 45 41 42 44 40 41 42 38 44 42 50 49 55 53 47 57 44 103 115 151 121 102 115 120 123 125 127 131 113 84 83 82 77 68 67 65 72 55 64 64 46 51 61 58 74 68 63 46 56 75 74 77 92 78 80 97 87 99 95 72 68 72 82 92 86 91 85 83 69 96 83 76 72 68 68 87 83 89 94 107 136 136 101 70 61 68 58 42 45 43 44 41 42 43 40 41 39 44 37 49 40 42 49 51 51 47 52 83 127 148 139 164 96 118 113 119 123 127 126 127 114 87 81 85 74 67 67 66 62 55 64 50 44 59 60 59 70 65 54 53 62 74 66 84 86 59 86 88 84 83 66 63 60 68 80 80 90 94 68 79 82 86 75 75 75 67 72 79 90 92 95 122 139 132 110 64 66 65 50 48 44 45 43 40 47 41 44 40 44 48 37 39 41 44 