P2
92
112
255
47 43 48 45 46 47 48 48 46 45 51 46 47 53 48 50 55 56 53 55 53 54 51 53 60 44 54 55 60 55 57 51 64 54 57 57 67 52 60 62 54 63 58 60 54 56 55 60 55 51 58 46 56 53 53 55 60 59 57 66 58 62 65 55 64 53 51 57 53 55 53 52 57 54 55 55 51 53 48 56 54 58 52 58 51 53 54 55 50 50 53 55 47 46 48 46 48 47 49 49 49 44 48 48 51 50 50 52 59 52 60 58 58 52 53 52 45 46 52 56 55 57 54 68 61 54 58 57 53 59 59 58 54 61 53 54 52 56 55 54 48 45 53 48 54 48 47 57 58 53 50 56 55 53 63 56 61 56 53 59 54 58 51 58 57 53 59 55 56 49 51 54 56 53 58 53 57 52 54 51 55 52 51 52 46 49 45 47 47 46 50 50 45 47 48 51 53 49 54 55 56 56 55 55 57 43 55 53 54 52 51 48 52 49 54 58 53 48 47 56 49 65 62 62 51 55 59 59 61 60 51 48 52 46 59 52 54 50 51 65 60 59 37 56 66 50 73 50 62 51 66 57 55 57 53 58 57 60 53 54 55 49 53 53 57 57 56 55 57 52 52 53 55 54 52 55 46 46 49 47 50 47 52 48 49 45 47 51 50 54 53 60 60 51 52 51 54 49 53 59 52 51 47 37 45 46 54 46 51 46 46 51 41 54 54 52 52 49 52 45 47 49 43 43 41 41 57 57 57 63 51 54 56 59 46 54 62 67 69 55 61 59 55 65 64 57 57 54 59 57 55 58 51 54 56 52 58 52 58 53 60 51 53 54 54 52 52 57 49 45 50 46 50 49 51 47 52 49 45 54 49 61 59 55 51 48 60 53 48 59 52 53 55 54 40 41 44 37 49 45 43 41 41 40 30 49 41 49 44 45 37 40 46 51 41 36 41 42 58 49 55 66 59 50 51 59 51 55 62 57 62 54 62 84 60 71 68 59 58 56 55 56 58 56 51 53 58 54 55 56 55 56 58 52 52 54 55 54 54 55 48 45 53 45 48 50 53 48 48 50 50 56 58 54 55 54 62 58 55 54 55 50 55 50 48 48 41 38 40 36 44 34 38 35 32 34 32 41 38 43 44 45 43 43 51 44 49 47 46 49 60 61 52 52 62 51 45 53 51 57 63 66 55 45 56 67 56 61 65 59 61 54 58 53 51 58 52 55 57 57 57 52 56 59 54 53 53 54 55 52 56 52 44 47 51 46 51 53 49 46 53 52 54 63 60 51 49 50 65 55 51 48 67 46 49 49 40 44 47 41 39 38 40 34 33 32 30 33 33 44 43 40 57 49 49 48 48 42 41 48 54 47 64 47 37 51 53 52 42 53 48 55 57 67 54 50 55 57 58 56 66 67 64 64 60 54 42 46 44 53 59 56 55 56 57 52 53 57 54 53 51 58 55 58 48 46 52 45 55 52 48 54 53 57 52 56 57 52 46 57 51 51 54 53 54 54 50 52 42 46 50 50 48 38 42 31 34 30 28 38 40 34 35 37 32 35 31 26 36 43 42 51 44 51 58 35 48 59 44 58 52 51 60 53 58 66 53 47 58 62 55 55 66 58 68 63 58 66 48 46 49 45 53 52 55 59 53 54 56 52 59 53 55 58 52 58 48 49 49 50 58 50 51 55 58 49 56 49 58 51 51 59 57 49 51 52 45 49 49 45 38 42 47 40 37 39 44 40 34 35 35 34 37 32 35 32 34 33 29 29 30 51 34 46 43 49 42 54 58 59 39 65 49 51 58 54 62 59 54 45 54 54 47 51 65 62 64 60 56 55 63 67 68 46 47 42 58 55 58 55 52 53 54 54 54 57 55 51 46 49 52 51 51 55 50 57 56 49 56 45 55 49 53 62 58 47 55 50 45 54 53 45 41 41 42 40 33 32 39 50 45 45 45 48 50 49 48 37 40 38 29 34 28 51 39 45 58 54 42 57 50 54 49 57 49 47 56 56 52 59 47 52 56 63 57 67 69 66 57 52 51 54 57 62 59 44 45 35 51 53 55 56 51 58 54 55 55 57 57 55 45 51 48 55 55 55 59 53 58 59 55 49 47 51 51 54 57 50 55 52 48 48 50 46 40 43 45 42 39 39 40 38 47 51 58 64 72 62 67 54 43 46 34 30 29 49 36 39 46 50 58 49 45 56 46 49 53 49 63 60 61 49 53 50 50 60 64 66 71 78 64 55 52 49 47 54 59 55 45 45 36 55 56 59 53 53 58 56 59 54 56 56 50 48 48 58 54 63 54 61 59 60 53 48 43 47 49 54 54 47 56 51 49 52 47 49 47 43 40 47 50 52 41 40 49 43 57 57 67 57 60 64 59 56 45 31 36 40 42 41 39 50 51 41 47 54 44 52 56 61 71 65 56 51 49 52 51 54 58 58 69 83 77 71 68 59 52 42 50 59 51 47 40 58 57 62 54 58 58 58 57 55 59 55 46 51 47 53 67 60 59 58 59 58 55 52 44 52 43 47 43 56 52 58 53 54 50 42 44 47 50 46 43 42 43 35 45 43 51 49 53 48 51 48 47 47 54 40 38 38 43 45 56 55 49 49 58 58 47 45 53 66 68 58 55 42 45 54 40 56 66 59 71 77 73 73 67 58 41 49 52 51 62 52 53 55 59 59 57 58 59 57 58 56 56 56 44 51 51 51 68 62 63 63 57 57 53 51 49 49 44 41 44 57 61 59 67 57 58 53 49 50 45 39 43 42 39 44 50 56 55 52 53 54 41 51 48 48 40 49 46 36 36 43 47 48 59 47 53 45 50 45 62 62 55 51 54 40 35 51 51 42 46 55 61 71 77 74 66 66 55 66 57 52 59 61 62 62 57 61 60 57 57 58 56 58 58 62 48 49 57 58 64 56 54 59 59 61 54 50 48 50 53 52 53 64 68 76 69 73 59 61 53 54 48 41 41 39 45 59 49 48 51 57 51 50 39 39 50 53 36 49 52 38 39 37 47 47 52 59 58 44 58 52 62 65 57 47 46 40 28 55 44 48 43 52 59 67 71 77 68 62 64 67 57 61 59 57 59 57 60 57 60 55 59 55 60 58 59 57 52 43 64 57 60 55 58 48 60 58 59 49 48 57 53 55 64 66 64 69 76 67 69 62 57 50 48 44 34 48 45 45 51 56 66 55 49 38 41 41 51 53 43 47 55 42 46 37 41 42 58 61 62 59 73 63 65 56 53 37 34 45 43 43 48 49 43 53 51 60 69 68 73 60 71 74 76 79 72 63 58 65 61 55 49 56 65 57 56 58 57 54 48 51 64 55 58 56 53 52 53 59 55 54 50 58 58 56 63 68 69 66 67 56 62 71 63 64 49 54 38 54 42 50 52 57 52 47 56 49 42 38 39 49 52 59 54 41 53 46 40 43 49 52 47 48 45 59 50 53 53 36 41 47 49 40 45 46 44 55 59 62 66 68 64 61 65 61 55 59 58 59 61 61 62 63 54 54 60 63 60 55 60 59 49 52 61 51 60 57 53 43 59 50 58 60 53 63 59 55 63 67 60 59 65 69 64 61 59 53 52 47 51 50 50 55 58 66 53 60 50 45 40 39 32 41 49 68 52 56 49 51 46 52 50 51 49 46 41 63 63 62 59 52 55 52 46 57 49 67 70 70 64 58 75 73 64 57 56 52 61 70 77 72 65 60 65 65 55 59 54 59 61 56 61 57 49 53 58 53 62 56 56 45 55 55 54 55 54 57 59 53 57 60 68 60 62 66 57 52 43 47 46 46 56 55 55 62 68 67 67 61 53 55 46 40 35 42 51 66 67 68 70 63 67 67 60 60 53 59 57 74 61 69 73 70 70 62 55 63 64 69 79 75 79 72 79 64 56 58 57 48 58 57 72 68 68 60 55 62 55 52 50 64 59 59 58 56 48 49 60 56 63 63 63 51 55 55 54 55 56 59 54 58 64 63 60 62 68 66 61 51 48 46 48 59 63 58 56 71 69 69 69 53 63 61 53 46 37 56 67 86 82 80 77 68 71 76 74 69 61 74 75 66 65 70 75 74 86 74 69 65 56 58 65 62 63 73 69 79 67 47 52 59 60 63 74 78 74 60 61 48 52 51 49 50 59 60 56 62 55 56 54 52 65 57 60 61 58 57 55 57 57 57 54 56 56 57 63 64 63 67 66 60 58 49 61 57 60 59 59 63 65 63 67 61 59 52 53 53 46 61 83 90 86 84 76 76 77 83 91 83 83 84 74 64 69 66 70 70 86 83 85 86 79 78 78 82 75 73 73 65 72 65 57 59 66 63 65 80 100 82 64 53 40 64 51 49 60 62 60 60 55 53 52 46 59 63 53 62 56 62 59 53 60 56 58 56 69 68 70 66 69 69 73 68 71 67 62 65 63 66 69 71 74 70 76 70 59 54 62 60 49 69 77 89 82 83 71 77 93 101 99 107 109 98 91 98 89 80 68 74 81 83 84 90 85 89 78 77 67 69 90 85 78 65 58 66 60 55 56 67 82 75 57 62 49 54 67 47 60 64 62 63 56 52 49 43 53 66 59 57 57 59 61 60 59 60 60 67 68 73 79 75 73 78 87 80 77 67 60 61 55 68 70 67 73 79 73 63 66 65 63 69 65 89 80 70 73 79 87 92 99 111 116 117 116 110 108 113 93 89 80 80 84 79 79 82 86 87 67 61 52 52 61 66 72 73 57 69 65 57 55 55 70 58 49 56 56 48 56 54 55 66 63 59 59 54 54 46 46 61 59 53 61 57 58 57 60 65 64 67 69 66 82 75 73 79 80 86 74 69 61 66 70 75 83 72 78 80 63 65 69 76 71 79 81 92 98 85 86 83 93 103 126 139 126 129 125 125 126 131 120 100 101 87 87 95 81 77 72 88 86 76 64 65 60 56 58 66 59 65 54 53 46 56 62 67 54 57 57 47 46 48 62 58 62 60 49 60 56 46 46 49 49 55 49 54 57 49 58 62 65 66 65 70 79 78 87 85 86 81 79 78 71 82 74 83 86 79 75 66 74 72 78 75 72 85 99 88 96 87 85 84 116 128 137 146 139 144 153 139 129 134 135 120 118 103 96 96 97 80 82 81 94 86 73 72 72 68 67 64 68 73 66 64 56 51 50 63 55 75 63 47 35 43 60 56 64 59 45 55 56 57 48 46 48 52 48 55 54 59 58 64 70 70 76 74 86 93 92 97 92 84 89 96 90 94 100 95 84 83 85 69 89 81 86 78 83 85 99 103 99 89 92 97 133 149 146 144 146 150 146 151 138 135 150 133 125 123 107 104 109 93 87 93 90 99 90 72 63 70 72 70 61 68 76 69 40 53 44 53 63 57 74 47 39 34 58 57 62 60 45 47 53 52 52 49 42 47 45 58 61 59 68 69 77 90 88 92 97 93 96 103 96 93 108 104 111 112 116 110 90 87 94 82 91 87 95 83 83 99 109 109 105 107 108 114 122 140 149 154 155 156 161 162 140 145 152 147 142 139 120 110 108 111 96 101 97 91 96 80 64 65 76 62 65 69 71 63 53 44 45 56 58 56 51 49 43 35 45 61 60 64 47 41 50 53 44 44 47 42 48 63 65 62 73 80 86 90 92 96 100 94 110 105 100 107 117 112 118 125 121 119 97 98 97 89 86 95 87 96 99 100 110 114 114 114 118 134 138 143 157 166 164 170 174 165 157 164 164 161 151 153 142 118 108 123 111 104 107 99 100 96 77 74 83 75 63 79 63 60 72 63 46 56 50 47 50 43 47 37 38 50 64 67 46 42 48 49 50 40 40 44 44 57 67 79 90 92 90 94 105 106 103 113 111 107 108 114 122 127 132 126 118 118 108 104 104 94 92 102 96 98 101 105 128 139 139 133 131 159 153 144 150 151 155 158 159 160 167 176 168 165 157 158 160 145 118 118 108 113 105 108 111 108 89 86 86 74 68 79 52 59 71 55 64 60 53 42 74 48 43 40 38 46 61 64 47 46 49 46 49 49 42 41 49 53 72 98 98 104 114 117 110 116 124 119 113 116 120 121 130 128 133 121 127 127 120 118 112 104 105 106 106 106 114 126 127 149 145 127 143 164 144 157 160 163 169 169 171 172 168 180 164 170 163 158 158 157 136 129 116 107 113 117 108 104 91 85 79 68 64 75 65 65 65 54 58 59 54 49 53 68 45 42 34 49 59 66 41 39 50 51 48 51 48 47 52 64 90 104 111 111 113 111 117 128 122 121 116 129 128 131 132 135 127 128 134 131 126 132 119 116 118 115 115 108 112 129 125 124 124 122 144 141 143 159 167 171 172 168 174 176 168 175 165 162 165 160 157 156 148 142 141 121 125 131 124 117 93 83 74 72 60 78 66 54 59 62 52 53 48 55 47 60 49 38 33 56 51 65 39 42 42 55 51 51 59 44 55 82 103 111 116 122 120 119 126 127 122 120 133 140 139 140 136 139 127 129 143 127 134 140 129 130 131 126 129 118 119 123 119 128 128 133 144 135 156 170 169 171 172 171 172 174 174 169 172 168 171 168 160 156 154 146 150 137 129 134 121 128 95 73 68 64 51 53 81 61 59 65 48 51 57 59 60 67 48 38 31 41 58 61 41 46 41 49 53 41 55 48 72 100 114 124 128 129 127 122 125 135 126 135 143 154 139 144 148 140 134 137 146 132 143 144 138 147 139 135 130 127 131 129 137 133 137 141 143 144 160 169 167 166 174 167 169 170 176 178 175 173 171 173 166 160 159 151 154 149 150 140 141 134 117 77 76 74 47 55 58 72 55 53 53 55 57 52 56 48 50 37 39 37 57 64 45 40 45 43 48 45 49 46 87 108 126 136 139 143 136 128 134 141 145 151 155 155 141 144 153 142 147 144 142 150 146 143 148 152 146 137 136 140 146 145 142 142 140 144 146 150 156 161 162 162 168 164 177 175 181 182 180 183 181 176 170 170 166 161 157 153 157 152 143 134 117 84 78 68 67 51 59 53 56 48 52 61 56 62 51 45 51 37 37 40 61 62 38 37 38 44 39 46 46 53 99 117 137 142 148 148 143 143 145 146 143 151 152 148 143 146 154 146 148 157 152 163 149 153 155 154 146 146 150 148 150 142 137 141 145 147 149 154 149 153 155 163 165 165 178 182 183 183 185 187 189 186 177 176 172 172 164 154 161 155 145 136 116 90 83 67 67 53 56 59 59 57 46 60 60 56 51 41 40 34 31 43 62 63 29 32 39 41 38 40 32 75 106 130 139 143 148 147 146 152 151 148 147 149 150 153 152 154 155 154 156 160 162 163 158 163 160 154 152 150 158 155 150 146 149 151 152 152 156 157 159 165 168 170 177 181 184 186 185 183 186 186 188 188 185 177 182 178 173 167 158 157 151 132 119 103 74 74 66 71 54 58 58 59 58 48 50 49 47 40 39 37 35 40 59 62 27 32 34 36 37 42 34 92 115 131 137 143 152 147 150 155 156 151 149 149 153 156 159 155 158 160 154 156 158 169 166 160 161 159 156 155 160 157 157 160 163 174 175 178 181 182 185 186 188 189 193 189 195 194 189 191 189 188 185 190 187 184 184 185 173 182 167 160 155 139 116 102 87 75 63 76 75 50 53 63 64 53 53 42 45 42 35 43 35 38 62 64 26 31 41 36 43 51 44 100 121 129 137 142 149 151 153 157 154 154 153 152 158 157 159 157 158 157 161 161 160 170 169 167 164 163 166 169 177 174 174 174 182 182 187 186 187 189 191 189 194 194 195 195 196 195 196 196 193 191 191 191 189 190 185 183 178 179 181 170 153 147 117 103 91 80 63 72 70 66 52 71 55 56 58 51 46 42 42 40 32 39 65 64 28 34 45 40 48 50 46 109 125 124 141 140 146 151 152 153 158 161 155 161 162 166 167 165 163 166 174 169 173 177 177 177 177 175 178 180 180 182 182 185 189 187 188 193 193 192 195 195 198 194 197 195 199 199 200 194 197 196 193 194 191 189 187 185 178 175 182 177 163 151 132 107 83 89 64 58 68 63 64 53 70 47 52 51 50 32 41 33 30 43 58 66 22 38 42 47 49 48 53 113 127 128 137 144 149 149 154 151 156 159 162 162 171 167 173 172 173 173 175 177 178 181 181 180 184 183 187 186 183 187 189 184 191 193 192 196 199 196 196 199 197 200 199 198 202 194 199 196 199 194 195 194 190 189 186 185 178 178 182 180 171 149 141 110 89 81 72 61 72 66 71 61 57 57 50 39 49 36 39 34 34 44 59 66 23 43 51 47 52 45 54 116 125 130 136 140 146 149 150 153 158 159 164 165 167 166 173 178 180 181 180 181 179 182 186 188 185 189 188 189 184 190 184 187 191 193 197 199 198 196 196 201 200 199 198 198 199 199 201 194 198 192 195 197 196 192 188 184 179 183 180 185 179 165 136 118 85 79 79 74 73 70 66 58 64 58 59 41 44 44 33 34 39 49 65 64 28 38 58 51 58 42 64 116 125 126 137 140 141 146 151 158 158 165 166 168 173 174 178 183 185 188 190 183 184 188 191 187 189 189 185 187 191 191 186 190 193 198 200 201 201 202 199 198 200 198 193 191 192 190 196 196 199 194 195 195 197 193 191 188 177 182 179 180 180 178 162 120 87 84 77 69 66 58 61 58 57 62 54 43 39 43 37 36 42 57 67 62 29 40 57 52 60 44 65 114 125 123 137 142 142 147 153 158 160 165 168 172 174 177 183 183 187 190 194 190 189 193 191 193 190 192 186 183 188 188 191 193 193 198 200 199 198 202 198 198 194 191 186 189 184 185 188 188 194 199 196 198 197 196 191 190 182 184 185 179 184 177 179 157 109 85 78 76 64 61 63 55 61 48 57 47 36 42 36 36 49 54 66 67 34 38 54 54 56 43 59 112 128 123 137 141 145 150 156 159 162 164 170 173 174 175 183 184 190 191 193 196 196 193 192 190 186 191 186 182 190 184 189 192 193 193 191 188 192 194 192 197 197 194 196 192 193 200 195 192 185 195 200 200 197 197 193 193 182 180 182 181 180 180 177 173 144 101 82 71 55 72 58 61 57 43 51 42 44 43 40 41 53 53 58 68 48 34 47 52 59 46 63 112 125 125 136 141 145 152 159 161 165 166 168 169 172 169 180 184 186 190 191 191 190 185 189 184 182 184 180 180 182 185 185 181 184 187 185 186 190 190 195 199 197 199 192 195 197 199 200 197 195 192 194 198 198 197 194 191 185 180 178 184 181 183 183 176 168 130 93 73 70 67 64 55 59 52 35 47 42 49 38 40 39 39 55 65 53 35 31 57 56 50 65 116 122 131 135 140 146 153 157 161 162 169 171 171 170 170 176 175 181 181 181 186 186 181 185 188 182 182 182 177 176 179 178 181 183 187 182 186 192 196 200 196 196 196 189 197 194 191 193 194 191 189 180 186 188 190 191 193 190 177 176 181 183 184 183 180 170 157 108 83 71 69 61 64 59 40 42 47 45 51 42 36 36 32 50 70 53 42 28 51 59 55 62 114 123 133 137 142 145 148 152 154 155 163 162 167 173 172 175 177 178 179 180 180 182 188 191 193 185 177 180 175 169 181 179 178 182 188 187 190 197 197 196 196 195 187 185 178 177 166 167 165 159 153 160 151 149 155 151 161 177 174 173 176 180 181 181 180 181 167 133 92 71 64 63 60 57 43 41 63 53 47 41 36 35 39 40 71 49 52 28 38 53 54 62 122 127 135 140 150 143 142 145 153 153 157 150 158 162 165 161 167 171 173 173 180 180 189 192 195 189 183 184 182 178 182 176 175 182 187 186 185 173 172 169 153 153 151 159 166 166 168 157 140 142 140 132 137 122 105 91 113 128 133 141 150 156 158 171 176 180 175 155 112 72 60 69 68 59 48 43 66 41 43 40 42 40 36 34 69 51 49 39 37 46 37 65 123 125 136 143 146 141 149 153 158 160 164 163 165 166 169 174 173 176 174 177 183 187 193 196 199 193 194 190 187 183 175 169 174 176 182 176 178 164 175 184 189 183 184 163 165 170 175 167 154 154 156 141 154 182 216 202 164 102 101 109 133 131 140 141 144 146 153 133 113 70 63 70 64 48 49 45 52 36 41 61 52 44 39 36 66 50 46 50 33 44 32 70 126 121 142 138 128 131 140 144 153 152 157 161 161 165 169 168 169 178 182 177 181 181 190 196 199 196 195 192 191 188 187 186 184 177 158 145 138 139 132 130 128 120 121 121 126 111 100 109 110 117 124 135 127 112 127 159 156 145 108 109 121 128 144 151 151 151 154 141 117 85 50 53 51 47 49 43 38 51 118 150 149 114 33 47 67 49 46 54 32 48 24 76 122 119 120 107 104 112 110 117 119 121 129 127 134 135 151 157 161 176 184 191 188 179 178 175 174 173 174 172 160 153 148 149 140 129 139 145 136 142 130 112 108 104 118 115 115 109 121 141 150 150 158 154 151 130 153 161 148 165 156 113 143 144 168 180 183 184 183 179 169 132 60 63 66 57 47 49 56 114 171 175 169 173 113 48 66 47 49 50 41 37 27 76 115 85 88 74 97 104 100 103 115 126 126 137 140 143 158 160 144 162 174 155 152 161 152 142 158 169 175 168 149 144 146 155 138 143 136 150 140 152 140 133 145 155 162 162 166 164 162 171 166 167 172 169 163 140 162 171 179 175 180 151 137 173 174 180 189 189 182 151 107 83 80 74 50 46 46 90 100 144 169 162 150 142 185 72 57 45 52 47 47 36 24 83 92 86 99 102 109 107 109 116 115 108 104 98 98 98 109 109 111 96 167 134 138 163 158 148 149 168 156 152 140 140 149 146 164 162 157 152 166 175 171 171 170 170 165 166 162 163 163 165 163 162 165 166 164 137 167 175 175 183 178 180 127 162 178 171 162 138 85 89 91 132 108 72 54 38 57 88 122 161 160 160 169 106 174 129 52 48 49 41 38 63 117 145 130 108 90 93 97 94 100 106 105 94 106 103 113 108 107 102 109 117 133 130 123 181 169 170 174 172 173 170 157 166 170 203 215 185 180 176 170 166 163 155 154 155 144 136 126 120 125 126 125 121 129 133 128 139 163 167 169 177 176 182 162 172 203 169 52 122 78 125 170 178 128 76 65 47 53 83 145 180 174 153 169 136 131 184 48 49 42 43 144 217 173 83 87 81 81 98 133 139 141 150 150 152 153 150 149 142 130 132 139 142 152 150 174 152 173 174 168 155 187 195 132 180 167 180 207 187 180 170 162 155 148 142 134 118 97 97 106 109 114 108 122 123 121 123 119 122 148 151 158 176 174 182 186 164 176 207 44 146 170 181 175 168 163 88 71 53 50 120 181 192 178 156 151 157 102 191 68 47 45 169 198 113 62 45 84 87 115 116 131 137 138 140 148 139 143 141 132 124 121 119 119 115 123 128 135 108 180 151 121 122 168 175 126 176 151 211 195 178 171 162 155 146 139 134 118 92 94 111 111 99 97 90 76 91 83 105 130 121 141 159 159 173 176 185 197 165 150 216 152 171 189 178 171 166 181 115 62 36 117 165 187 192 174 161 144 156 94 189 91 32 108 137 84 47 114 68 79 109 125 118 117 125 130 125 123 115 109 105 103 98 96 90 83 102 108 111 117 105 167 139 131 162 182 189 196 154 125 190 177 179 180 171 161 142 127 115 104 107 113 98 117 95 110 53 66 64 87 87 93 95 127 151 160 169 175 179 192 171 185 187 179 180 182 181 170 174 184 134 70 58 137 160 171 182 178 175 159 157 97 184 103 61 125 92 56 62 106 49 104 116 127 125 114 105 105 104 102 108 100 98 86 89 92 92 86 78 86 100 107 116 125 125 127 183 194 202 203 194 137 140 170 175 162 158 159 142 125 121 119 114 101 106 143 98 149 99 20 174 85 130 147 100 84 141 155 162 178 178 198 203 205 192 184 178 183 184 178 176 181 160 71 105 154 192 187 186 190 187 175 154 109 177 82 115 117 81 97 94 106 75 122 122 126 124 118 98 96 103 106 93 76 66 54 77 60 71 83 94 96 100 102 91 140 139 125 183 187 197 199 205 144 173 214 214 200 177 192 161 133 108 109 92 98 120 141 152 120 96 73 114 99 156 127 113 118 142 149 167 186 183 210 223 220 227 182 181 182 186 183 177 175 176 78 137 178 131 177 183 185 197 184 151 128 168 73 165 137 108 116 84 101 94 122 124 132 124 121 96 96 93 71 103 85 60 51 67 48 66 61 91 88 103 121 96 218 132 124 170 171 180 184 193 184 115 227 220 220 220 219 230 127 101 109 102 96 104 113 125 124 96 85 106 124 133 123 129 146 155 162 177 189 182 177 207 191 223 185 188 184 185 186 178 175 180 105 164 185 158 150 174 174 174 197 154 147 139 62 223 164 117 91 56 63 86 100 131 138 127 121 102 77 73 101 145 135 107 128 27 58 65 78 107 95 69 84 88 153 86 124 169 176 179 180 169 193 90 196 223 220 219 219 230 122 128 132 115 111 112 123 116 122 125 130 137 144 163 140 143 161 164 177 180 183 185 182 198 166 190 188 188 190 187 186 176 176 175 147 168 171 187 158 173 158 153 177 157 176 102 61 219 183 122 83 52 194 224 219 219 225 188 116 94 72 77 107 134 164 99 82 60 72 75 86 94 98 100 90 138 75 78 140 172 177 186 198 188 178 145 49 128 162 130 149 155 123 127 123 116 117 117 125 125 135 136 142 151 154 163 141 153 172 177 181 177 178 186 185 193 168 179 191 190 190 190 186 177 173 175 159 174 166 171 179 180 150 130 167 169 176 71 62 157 147 115 77 66 223 222 220 220 219 217 101 96 87 96 100 104 114 109 95 83 98 97 103 97 106 112 113 109 77 94 153 176 192 196 202 194 183 181 115 94 138 156 155 148 137 128 122 121 123 122 124 132 138 141 146 158 158 152 138 165 178 183 185 183 189 184 184 187 164 179 193 190 189 188 182 179 173 175 159 173 192 185 190 185 136 117 168 180 162 59 63 115 118 92 49 36 104 217 216 198 169 149 117 106 100 114 121 125 119 117 117 115 112 110 108 106 108 106 114 109 93 121 160 178 198 201 206 193 192 180 158 134 116 154 162 154 153 134 130 126 127 128 124 134 134 139 141 149 137 135 156 179 183 185 185 191 185 186 182 175 196 178 189 194 190 187 186 177 176 172 155 184 191 211 202 171 118 133 178 184 122 53 67 68 135 78 54 49 31 16 114 138 139 144 131 123 111 117 129 137 130 128 128 124 116 115 110 110 109 115 126 115 105 139 165 181 194 202 206 199 193 186 172 155 143 123 163 166 165 151 144 137 134 129 127 135 137 136 131 126 136 158 173 181 187 194 191 193 186 182 181 175 206 186 190 193 188 186 186 180 174 173 149 203 154 163 168 123 138 176 183 185 87 54 63 25 148 77 55 56 56 29 119 143 143 144 143 131 118 111 122 132 130 125 126 120 116 115 117 117 121 127 135 122 121 153 163 176 190 201 203 201 194 194 179 171 165 124 138 167 170 162 156 144 137 135 131 134 132 140 127 144 166 178 180 184 191 193 195 191 192 182 180 171 162 192 194 189 191 187 181 179 173 172 154 210 170 127 142 156 183 183 177 166 58 63 68 32 120 104 55 59 58 29 103 143 143 150 142 139 135 119 121 123 121 119 121 120 123 123 123 130 136 146 123 130 127 160 158 179 191 199 199 198 196 191 189 182 183 177 146 135 153 151 145 138 136 136 137 138 143 152 171 174 180 185 188 189 194 193 195 189 190 188 189 148 178 198 197 192 188 186 180 177 173 170 160 205 160 158 188 192 187 166 194 118 55 66 66 44 48 152 69 58 58 35 86 142 144 151 144 144 143 127 127 134 126 126 129 132 134 142 144 146 149 150 120 121 142 163 157 179 189 194 194 197 196 192 189 179 184 188 188 168 133 164 168 167 164 170 171 168 173 174 182 191 191 192 193 194 197 197 196 194 191 187 157 167 196 197 194 193 185 184 181 177 172 169 164 171 144 167 195 188 170 179 176 65 64 70 67 51 30 145 112 60 59 46 72 141 148 149 150 144 148 136 125 131 137 132 139 145 144 148 154 155 157 124 126 123 153 157 159 176 191 199 197 194 195 193 187 187 184 194 193 195 178 138 165 182 181 181 181 186 184 183 189 196 198 196 197 198 199 196 195 190 177 159 181 193 197 196 195 189 187 182 181 175 175 170 166 173 178 182 195 183 169 194 112 61 68 64 65 49 46 46 163 78 55 59 48 138 149 150 152 148 153 148 136 134 136 136 142 146 150 149 145 150 139 123 140 132 158 158 155 177 193 198 194 196 198 193 185 187 181 192 196 197 194 191 165 157 186 201 192 190 188 193 190 191 200 199 195 191 187 178 167 167 175 192 191 194 200 195 194 189 187 182 178 174 176 176 162 200 201 200 195 185 190 165 66 65 65 67 65 44 50 39 85 133 71 67 51 129 148 149 151 147 153 155 154 148 141 139 145 145 146 143 141 132 128 155 138 134 158 155 162 183 199 200 196 195 195 196 183 182 181 187 196 194 195 198 194 181 166 173 172 167 163 165 162 163 165 160 162 168 174 184 177 184 188 191 193 193 198 198 190 191 186 181 175 175 177 173 165 205 203 196 199 194 193 103 56 65 63 67 59 47 48 47 33 91 144 94 58 122 152 151 157 154 159 155 163 162 163 158 152 157 157 147 128 136 156 153 141 136 153 158 167 182 201 201 199 197 192 194 180 176 175 180 193 198 193 196 194 190 186 187 190 190 195 189 193 193 198 196 197 195 194 189 184 187 190 194 195 199 199 195 193 191 188 175 175 178 178 170 170 200 198 196 195 201 165 57 63 68 62 63 66 51 47 47 51 39 106 201 126 122 149 150 154 159 162 161 164 168 166 159 146 143 134 133 147 156 163 155 141 135 152 163 168 182 197 200 203 198 195 193 179 169 166 170 181 190 192 192 191 186 183 188 192 197 197 202 202 202 205 207 201 203 200 200 195 194 191 195 193 200 197 191 193 190 185 176 176 181 182 166 181 196 192 194 196 204 132 48 62 66 65 64 64 50 52 44 52 46 35 51 109 161 164 155 147 152 152 151 143 143 137 136 134 145 151 154 158 161 162 153 146 134 156 166 172 185 194 202 201 199 194 191 180 173 165 159 175 183 190 187 186 178 183 189 192 199 198 199 200 200 199 202 198 202 198 202 195 198 194 196 196 199 195 191 191 189 179 175 179 181 176 162 189 198 194 193 196 192 83 56 65 62 69 66 66 48 52 50 48 49 51 47 47 139 145 140 143 142 150 148 158 159 159 166 165 168 164 164 161 162 157 155 142 133 161 162 174 190 197 200 198 201 195 191 187 178 175 164 164 175 183 181 178 173 184 190 191 194 195 196 195 196 199 197 200 199 197 198 196 197 202 196 198 199 195 190 188 181 178 176 180 180 181 158 191 200 192 191 193 129 53 62 67 63 60 73 59 49 52 52 48 47 50 52 23 133 143 144 149 151 157 158 170 166 172 169 172 174 167 163 158 159 155 156 137 150 160 162 181 193 200 200 200 200 196 190 192 186 189 181 173 172 177 178 172 174 186 188 190 190 195 196 193 198 196 199 200 199 196 198 194 196 199 197 199 196 193 192 190 179 178 179 183 179 177 146 143 190 183 175 136 60 58 62 62 68 57 65 63 54 48 46 54 46 50 51 23 110 145 150 153 159 156 162 167 164 164 170 173 174 169 164 156 154 158 153 146 154 156 165 187 195 201 201 203 198 196 188 191 189 193 198 192 176 180 175 173 172 176 185 187 190 192 195 198 195 198 197 199 197 198 195 196 195 193 194 193 194 193 193 190 175 179 186 181 177 177 132 44 82 94 90 62 58 60 61 64 65 61 62 64 50 50 49 51 51 47 49 37 72 141 146 151 154 157 157 160 160 162 167 167 165 160 156 152 150 155 151 148 145 145 162 190 192 200 203 201 189 185 186 188 191 193 194 185 181 167 172 175 171 169 172 181 187 187 194 194 194 195 197 198 198 195 193 197 197 195 195 190 191 190 191 186 165 184 183 183 180 179 122 48 56 59 61 56 59 64 64 62 65 61 60 65 53 51 52 46 51 48 48 47 38 137 145 150 155 153 152 161 157 163 160 158 154 149 149 150 147 152 140 146 138 132 146 188 187 195 192 185 182 179 174 161 163 166 176 177 164 168 177 186 182 174 168 170 185 183 189 193 191 195 193 194 196 195 194 196 196 192 193 189 192 189 193 187 179 186 185 181 178 177 104 44 61 60 54 64 55 64 65 63 66 62 58 68 55 48 51 48 46 51 45 54 25 117 136 147 150 150 149 158 155 161 157 155 147 149 149 147 145 154 128 133 140 121 142 174 185 188 190 193 185 153 113 105 135 155 155 143 155 179 196 197 193 184 172 168 175 180 189 191 191 194 192 184 195 196 196 193 191 190 190 190 189 188 190 186 176 188 184 180 173 178 95 50 59 64 55 61 61 59 62 61 59 62 62 64 50 49 47 52 46 49 49 50 36 73 135 141 146 149 148 151 149 152 152 150 149 149 151 146 148 153 143 131 113 100 129 165 175 179 181 201 168 133 152 150 151 141 132 138 152 168 196 198 198 193 183 174 171 171 181 186 195 196 195 189 193 199 194 195 191 186 188 187 188 187 187 186 175 187 188 173 173 169 77 51 55 59 59 59 62 61 62 65 63 63 63 60 51 49 51 52 47 46 49 51 50 31 132 137 143 145 149 148 153 151 155 148 150 148 150 146 150 151 153 150 107 90 95 123 164 171 172 184 168 164 165 139 133 120 115 133 144 150 170 194 193 194 194 186 178 173 174 181 188 193 196 199 200 199 195 191 192 187 186 186 187 187 186 187 182 190 186 177 169 164 75 48 59 53 62 59 57 63 62 65 60 63 64 60 50 51 47 48 51 47 45 49 48 25 110 135 137 140 148 150 151 149 153 151 147 145 148 146 148 155 152 151 113 83 91 94 120 156 166 169 168 159 134 119 104 111 113 108 127 142 146 169 179 187 193 190 187 181 174 179 184 186 192 196 197 198 194 191 190 186 184 188 189 184 186 183 185 187 184 175 164 155 66 50 61 59 62 61 61 59 65 65 59 62 61 58 47 48 52 48 50 48 47 47 52 31 79 137 136 139 146 150 149 151 149 148 142 144 141 147 149 149 142 132 98 83 91 87 105 135 145 151 148 128 107 114 100 94 99 100 110 114 134 144 154 172 173 177 183 180 187 169 171 182 184 189 191 191 193 190 189 187 187 188 189 184 184 185 182 185 182 171 166 154 58 54 61 58 60 61 58 63 65 61 63 59 64 60 48 49 50 48 48 49 48 44 51 42 45 133 136 141 144 146 152 150 146 137 137 141 133 137 136 123 123 105 94 79 85 77 92 105 114 130 123 107 82 99 105 90 96 98 92 98 108 131 140 152 145 147 158 167 163 166 171 169 179 186 188 188 189 190 191 191 190 190 188 188 187 188 183 185 175 170 165 143 53 58 56 59 59 62 61 60 68 64 59 62 60 61 50 47 52 47 49 48 46 46 47 50 28 130 136 135 139 144 151 149 135 124 133 129 118 123 117 104 104 91 83 69 75 81 99 106 112 123 108 91 81 87 90 86 95 89 92 78 97 105 124 129 131 114 140 143 136 131 147 175 161 180 188 186 182 190 188 188 191 190 192 192 188 187 183 180 169 170 159 132 51 58 54 58 61 60 62 64 62 66 62 58 58 61 48 47 48 49 48 47 48 47 48 50 23 121 133 137 130 138 149 144 123 110 119 111 106 107 104 87 87 80 75 76 80 89 97 98 107 125 102 86 86 86 91 86 84 87 87 81 88 88 99 117 113 102 113 136 120 112 118 137 151 166 186 183 185 192 186 194 188 190 193 193 187 184 181 175 166 165 163 122 49 56 58 52 66 59 60 59 60 62 60 59 63 55 49 46 49 50 46 47 48 49 45 51 23 102 133 136 129 127 133 136 104 101 110 96 97 96 89 74 80 72 73 77 80 88 93 93 117 131 112 85 82 96 86 87 80 85 84 90 86 85 94 93 109 97 107 118 122 117 118 121 122 139 175 177 177 177 186 185 179 180 192 194 188 185 181 169 163 158 163 109 50 55 58 57 60 63 58 61 63 63 60 61 61 55 41 49 48 49 46 44 45 47 43 46 33 72 126 130 130 117 124 129 101 104 102 99 89 92 81 76 76 78 75 77 79 75 92 101 119 131 131 98 82 100 96 79 91 100 97 105 94 97 98 96 106 101 102 105 124 136 121 121 121 124 150 163 174 161 182 184 183 189 193 195 187 183 176 176 166 166 159 93 51 59 59 56 64 61 60 62 64 60 60 59 62 60 49 46 47 50 47 47 49 45 46 43 43 48 124 122 130 119 122 120 101 99 107 98 92 82 86 90 95 98 96 88 87 100 103 116 125 140 138 132 128 122 121 95 109 123 122 127 134 115 123 110 109 104 105 100 100 126 125 118 122 129 135 151 152 153 180 168 186 192 193 193 184 180 176 172 165 161 156 77 51 58 58 61 61 63 63 62 63 60 60 58 57 62 45 48 47 50 48 45 50 45 44 45 45 32 113 117 127 121 109 108 97 96 96 99 96 86 86 100 110 114 117 111 121 133 131 136 147 155 149 147 148 142 147 129 135 146 140 144 143 132 122 102 94 95 108 115 110 117 119 127 121 135 140 150 146 158 163 165 181 187 187 189 179 179 176 166 166 159 154 68 53 58 56 66 59 65 65 61 60 61 61 57 60 59 45 50 47 47 46 46 41 48 42 47 43 28 102 120 122 112 113 104 101 90 89 101 104 93 91 67 92 104 115 117 123 126 126 131 135 142 140 135 145 144 146 151 145 151 135 136 121 113 112 112 101 111 108 134 131 121 127 132 131 131 151 156 165 176 145 177 180 183 185 183 183 182 168 169 162 162 136 59 54 62 59 60 59 64 62 60 61 61 62 54 59 55 45 44 50 43 48 43 43 43 45 46 41 36 64 127 118 116 118 106 105 100 92 104 110 117 121 114 85 85 97 108 113 123 123 132 132 143 146 138 143 138 126 125 112 113 122 123 122 119 120 125 146 155 139 146 156 138 131 139 135 149 157 148 157 165 150 184 188 190 183 182 183 178 164 173 160 158 113 51 58 61 57 61 62 58 63 63 62 60 59 59 59 55 43 46 48 44 48 45 42 44 40 44 42 40 33 122 126 110 118 110 124 118 102 110 121 127 134 136 124 101 93 93 87 88 90 100 102 108 111 100 102 106 106 114 126 133 139 136 130 135 140 164 176 177 167 161 167 148 141 146 148 162 160 159 161 158 160 185 188 187 184 182 182 177 162 171 162 149 80 54 64 57 63 60 57 61 58 59 63 59 57 54 61 56 48 43 48 47 44 45 46 42 43 44 41 41 27 96 126 110 128 112 120 129 120 127 123 134 140 137 138 134 111 104 100 98 101 105 104 108 107 106 116 118 124 128 139 146 144 143 152 167 179 181 180 177 178 171 192 168 161 164 158 164 163 171 174 164 173 185 186 186 186 183 171 178 167 164 155 140 62 54 62 59 60 62 59 59 58 60 60 53 59 55 58 55 49 47 47 46 44 42 44 42 39 42 46 39 38 50 126 108 131 115 126 128 129 134 114 129 138 138 138 141 136 127 114 111 115 124 126 125 122 124 128 126 133 136 150 154 161 172 180 185 185 182 180 178 181 176 182 171 164 173 176 177 175 171 176 183 175 192 186 183 184 184 161 176 166 156 153 147 49 60 60 62 61 58 64 59 63 61 61 58 57 60 56 56 50 47 49 44 43 43 40 44 41 41 41 39 42 32 101 113 119 126 125 117 118 124 107 114 132 137 140 138 141 136 137 139 128 134 139 137 135 135 136 138 145 157 163 174 182 185 175 177 177 181 183 182 185 177 175 161 152 162 184 181 174 175 181 184 183 188 185 183 179 176 168 165 163 148 139 155 53 56 65 59 61 61 60 59 58 61 55 57 55 58 55 55 48 41 46 42 40 44 39 39 38 41 41 35 39 34 63 122 119 114 125 111 115 113 108 112 130 134 140 136 141 129 134 132 142 142 144 148 143 143 142 141 156 161 166 169 170 173 163 168 180 178 181 176 182 168 160 144 163 137 171 180 175 174 184 182 189 188 187 183 174 174 172 161 166 127 164 161 46 54 59 60 55 64 54 59 61 57 56 57 56 53 56 56 48 45 44 41 42 43 39 41 42 37 41 39 38 41 24 111 117 111 126 111 113 118 95 108 119 130 133 139 140 136 127 117 118 114 115 113 111 110 107 99 114 125 131 132 140 144 160 166 178 175 175 173 170 157 155 135 137 144 155 170 176 181 182 187 188 184 184 179 175 171 160 165 136 147 186 158 50 54 59 59 61 56 57 58 56 55 55 55 59 51 56 58 49 43 44 42 43 40 39 38 39 39 39 38 38 39 35 50 122 122 122 113 107 104 90 106 117 127 132 133 138 138 124 116 102 101 88 83 81 90 79 75 79 95 97 108 126 137 156 163 169 165 164 168 156 156 146 144 119 138 153 161 182 178 185 185 184 182 182 182 181 175 153 154 136 178 186 156 51 56 60 55 58 55 58 53 58 56 56 55 57 54 52 54 46 46 44 43 41 43 40 38 39 37 41 41 37 39 41 23 90 125 110 111 108 102 94 98 110 125 136 126 130 134 115 113 98 95 76 69 78 79 56 59 69 78 83 101 130 123 150 154 156 157 154 155 150 136 135 132 126 123 150 157 174 186 185 185 180 180 170 179 175 168 150 135 171 183 188 156 44 56 59 56 57 56 56 53 55 53 51 56 53 50 49 57 49 45 45 42 41 43 41 40 41 38 38 43 36 40 36 38 38 102 103 93 99 94 100 96 112 123 134 122 124 119 114 106 94 80 81 69 75 70 49 66 64 76 82 91 123 113 141 149 150 155 157 148 146 140 129 125 132 127 137 146 174 180 179 183 180 170 178 173 160 160 148 175 182 188 187 156 47 54 61 56 56 58 54 56 51 51 53 51 52 51 49 56 48 42 47 43 41 44 43 39 39 44 37 39 41 41 38 39 47 48 107 88 99 90 94 95 114 109 121 114 109 110 92 89 95 79 75 72 75 58 54 73 72 82 83 93 123 118 132 141 142 152 149 147 134 134 137 117 128 125 121 137 164 173 169 180 177 172 172 165 156 160 176 184 184 188 184 157 47 52 56 54 55 57 57 51 54 51 54 49 49 53 48 54 43 48 46 41 46 41 40 38 35 40 40 35 37 43 38 45 47 49 72 90 80 79 81 99 97 95 109 113 115 112 91 80 93 85 83 69 75 60 76 89 80 83 83 94 116 127 133 139 139 141 138 147 131 109 130 108 113 125 108 132 169 165 162 165 172 167 165 148 172 181 184 188 190 187 182 162 48 51 54 52 56 53 54 48 53 51 51 52 52 46 49 51 46 44 43 45 41 39 43 39 39 41 37 35 38 42 41 43 51 54 58 66 78 77 71 84 77 83 98 110 109 101 84 91 91 88 85 78 91 82 100 100 96 90 92 103 117 134 132 129 139 140 120 136 130 108 126 109 102 102 102 118 151 146 160 155 160 161 159 167 179 185 190 192 191 186 182 167 46 52 53 57 52 52 54 53 50 53 50 50 48 48 51 49 49 41 44 43 41 40 42 38 41 41 39 38 37 40 42 45 49 46 57 60 73 76 66 69 73 76 85 88 100 94 92 94 99 99 92 96 94 95 115 107 106 98 95 114 119 132 129 119 148 150 131 113 121 106 115 111 91 99 96 102 124 117 134 146 151 164 175 178 186 186 193 190 189 184 183 171 44 50 52 53 49 51 52 49 52 51 49 53 50 49 50 50 47 45 44 48 40 46 39 39 40 34 42 36 38 38 44 50 44 46 63 67 73 72 63 61 64 71 83 84 94 92 94 100 94 92 96 96 98 107 123 118 106 102 106 121 130 120 128 128 131 143 135 114 105 108 101 94 95 90 91 94 105 111 112 136 163 179 185 185 191 188 192 192 187 186 179 178 42 48 49 52 50 48 51 53 54 50 52 50 53 50 50 51 42 44 45 46 43 46 44 36 43 38 38 39 36 41 41 68 66 68 79 68 74 67 67 54 64 71 80 78 82 95 90 97 94 99 100 105 100 113 123 115 103 106 113 129 141 122 121 124 118 117 118 108 94 95 94 92 90 87 84 91 83 92 115 156 165 183 192 191 191 190 190 193 186 185 179 183 44 44 50 50 50 51 50 50 55 49 50 51 48 48 46 49 44 44 46 43 44 41 46 41 42 40 43 42 53 53 71 83 90 77 73 72 77 63 67 63 77 69 75 71 78 81 82 84 90 94 98 108 98 107 118 105 107 104 125 122 131 116 126 118 116 103 98 101 83 76 84 80 90 82 90 95 81 97 122 154 153 184 192 191 187 194 193 189 189 182 179 188 48 36 48 47 49 46 51 47 49 52 47 49 46 45 52 45 47 47 42 44 47 43 52 63 68 86 101 100 110 115 100 92 91 76 70 71 72 60 62 75 73 66 67 73 67 73 84 85 92 90 93 112 97 100 112 92 103 96 118 108 117 114 119 104 104 95 93 90 78 66 68 77 86 77 88 102 103 114 117 158 159 168 179 175 178 192 193 193 185 182 180 191 46 38 46 46 41 50 48 45 50 47 49 45 46 47 48 49 44 57 59 72 91 102 114 118 127 122 126 122 128 114 90 107 94 86 69 67 69 62 68 65 63 71 68 70 68 74 84 87 83 88 86 98 93 91 108 81 89 86 102 93 98 105 91 97 91 80 81 88 70 67 61 84 80 79 78 116 90 114 109 150 159 152 170 174 181 187 193 192 185 186 177 189 53 33 42 45 39 48 45 46 47 46 48 45 44 49 50 50 102 115 122 121 126 125 123 124 129 134 134 144 134 114 99 115 93 92 80 72 69 72 64 63 61 67 61 69 65 76 77 80 79 84 88 91 78 84 95 74 76 81 86 84 88 87 79 87 88 70 72 76 74 68 55 84 82 78 75 108 115 131 126 142 171 135 183 185 185 187 190 191 187 187 181 192 79 32 43 38 42 40 45 43 43 45 45 42 46 45 49 50 