P2
92
112
255
52 41 48 50 47 46 45 50 47 51 51 54 55 58 50 54 57 50 51 51 53 48 47 53 40 43 40 41 46 31 39 36 35 29 34 44 36 43 38 43 38 37 46 46 47 41 45 46 50 51 62 58 52 53 61 29 44 50 57 51 71 64 44 50 41 47 62 49 57 54 60 65 59 63 59 61 63 59 43 46 49 46 56 54 56 55 56 53 54 55 54 54 49 46 48 46 49 48 44 51 50 58 59 52 54 55 57 58 48 57 62 53 49 43 37 48 48 40 41 40 41 29 39 31 29 30 38 40 35 39 51 51 50 50 49 49 40 41 43 51 47 57 55 36 48 53 55 36 45 49 56 47 71 55 52 49 45 53 55 51 60 56 64 60 59 69 69 63 69 65 52 41 42 41 45 51 58 53 58 52 56 53 56 48 53 46 50 52 44 52 48 52 56 58 60 53 50 50 54 49 45 50 60 55 51 44 44 46 54 42 41 35 37 28 37 29 32 36 37 35 37 36 36 38 34 35 41 44 44 43 45 41 50 48 46 41 55 54 48 45 50 49 58 51 67 52 55 48 39 51 52 47 53 47 65 63 55 67 66 58 56 58 67 65 60 58 40 45 50 54 57 57 54 54 54 53 52 43 55 53 43 51 52 55 49 55 58 50 54 55 54 43 49 48 49 51 55 42 48 45 46 45 54 37 37 29 35 30 33 34 33 34 34 29 30 30 25 25 37 41 36 39 46 44 49 46 59 46 58 47 57 48 54 40 56 57 50 57 56 51 47 46 44 45 47 47 60 58 63 56 59 56 54 49 68 66 57 59 39 43 35 48 58 54 54 52 57 50 49 44 61 48 48 55 50 58 49 55 51 54 56 50 51 48 50 48 50 53 47 44 46 47 41 35 41 45 48 31 32 42 37 40 38 42 36 42 33 33 28 29 44 40 42 39 46 52 47 50 53 46 56 47 50 49 38 45 62 49 54 57 47 48 49 49 51 55 55 61 59 56 56 51 43 48 53 51 55 62 46 62 45 46 42 32 59 52 56 56 52 55 46 51 55 53 49 58 53 58 49 47 55 54 57 51 50 50 51 54 55 50 43 46 47 45 39 39 37 45 48 54 54 47 49 61 56 51 49 48 42 33 33 25 39 37 42 43 47 50 55 49 47 49 56 41 50 37 44 53 59 49 58 50 53 45 42 51 56 55 67 71 68 66 52 57 53 53 48 46 43 56 50 57 49 45 45 40 57 57 57 56 55 53 46 57 52 61 47 60 57 65 53 45 57 46 54 50 50 53 55 49 52 46 50 52 43 48 49 45 39 39 42 42 49 58 62 71 65 67 63 51 49 42 32 29 44 39 37 33 40 54 55 43 40 47 63 36 50 39 45 58 59 52 50 53 46 47 47 54 48 50 59 63 82 69 74 68 65 67 50 43 40 50 47 65 61 44 46 48 55 60 58 55 55 53 50 52 55 62 53 55 58 56 58 44 52 46 51 49 48 50 55 52 48 50 55 44 45 42 52 55 45 45 41 43 47 56 57 60 55 60 53 51 58 56 38 36 44 35 42 43 40 44 44 38 33 63 59 38 54 46 55 60 74 54 44 45 38 49 38 55 60 49 59 65 68 69 72 65 61 58 42 52 51 44 53 60 64 58 59 67 63 61 65 59 57 55 53 51 65 58 59 57 53 61 50 55 56 42 43 46 54 56 61 52 57 49 45 51 54 48 50 43 51 39 37 39 52 51 50 50 46 53 52 44 40 48 47 46 43 41 44 48 60 49 48 52 50 61 46 36 51 53 58 49 52 62 39 34 50 42 36 46 44 53 45 58 72 74 72 67 63 58 62 68 60 50 60 58 56 66 61 61 61 66 60 63 56 63 49 61 63 61 63 61 57 52 50 52 54 40 41 42 61 55 66 57 61 58 53 53 50 44 42 47 40 37 47 52 52 50 41 56 51 49 57 51 40 41 45 48 48 41 48 44 43 56 55 38 44 39 46 40 61 60 55 59 51 33 46 26 50 47 43 40 39 40 50 54 58 73 74 63 60 66 69 70 62 59 64 61 58 57 61 59 60 58 57 58 62 66 61 59 58 50 54 61 61 54 44 51 46 52 50 58 63 69 71 70 69 61 59 58 49 51 45 43 35 47 54 41 42 42 54 50 52 44 44 49 44 47 50 52 47 47 48 42 48 47 55 60 57 50 66 62 60 62 64 46 41 38 45 36 40 44 47 41 36 46 50 65 59 65 68 72 62 65 66 76 77 76 75 70 60 67 58 71 69 56 56 47 59 68 56 62 53 52 50 57 61 51 47 52 51 56 59 64 61 66 73 71 72 64 66 64 56 51 39 41 46 44 48 42 36 57 61 46 50 44 44 50 41 44 52 56 48 48 52 40 45 47 50 59 59 55 67 61 54 66 49 50 34 38 44 46 43 43 45 45 42 43 46 57 56 60 63 60 65 69 53 64 66 58 50 59 57 60 64 63 63 68 61 53 45 59 54 58 54 52 48 55 56 53 48 54 58 54 52 66 66 61 69 61 62 64 73 68 62 55 43 47 47 42 47 44 47 53 48 56 46 46 38 39 41 49 50 60 56 54 54 48 48 50 44 51 48 50 47 59 55 51 57 50 44 48 48 49 43 48 44 49 53 56 44 57 68 71 69 60 54 62 58 52 53 60 66 71 64 62 62 60 63 68 58 65 55 42 51 59 59 48 49 58 50 55 49 56 62 54 57 58 58 63 62 69 69 59 66 58 58 51 51 52 47 47 40 51 62 56 51 55 51 41 45 37 32 42 54 57 66 48 62 49 49 54 50 53 51 53 47 74 63 57 63 55 56 57 51 47 50 57 60 59 79 78 72 63 74 66 56 56 59 56 54 50 55 58 64 63 68 63 64 62 56 56 57 51 56 47 50 62 56 55 50 58 54 51 50 50 55 56 52 59 60 62 57 65 60 54 50 47 48 37 53 48 45 59 45 55 60 64 61 51 53 48 50 37 30 45 53 62 68 76 72 60 68 65 76 64 65 64 66 72 64 57 69 70 68 71 59 61 57 69 57 68 71 71 73 78 75 82 75 53 47 51 58 60 59 53 57 59 72 69 67 61 61 47 61 50 51 44 57 63 57 62 49 53 54 51 48 51 50 54 57 61 61 54 67 63 61 55 45 46 47 47 57 57 52 55 60 63 71 63 56 53 63 57 53 39 32 48 59 78 82 86 77 68 74 70 78 79 71 80 76 67 72 68 72 72 80 84 76 69 69 61 67 59 67 69 68 67 58 63 64 73 57 55 55 59 63 62 62 73 73 101 89 72 56 49 46 65 54 46 62 63 59 61 55 59 54 54 48 53 51 53 49 58 62 53 71 57 66 62 53 47 54 55 61 55 52 49 57 57 61 67 49 57 58 59 52 40 51 64 77 85 83 90 74 72 78 89 79 88 86 92 85 74 80 74 70 72 69 91 80 81 82 80 83 77 84 91 78 70 82 82 80 69 63 64 67 59 62 61 62 62 63 89 82 80 60 58 57 57 62 49 52 58 59 48 61 56 54 61 52 57 54 50 60 57 61 61 67 63 67 64 60 63 64 62 57 66 51 57 61 67 63 75 66 56 58 54 57 49 49 69 82 87 76 81 71 77 94 96 97 103 111 102 98 103 103 85 80 83 73 85 86 84 92 82 90 86 86 73 71 68 70 80 80 72 73 66 69 58 61 56 60 54 58 71 67 62 55 64 57 45 62 53 49 54 61 53 57 50 58 63 52 57 52 54 57 70 69 66 67 74 76 77 73 70 64 60 57 65 54 59 66 59 75 73 59 59 60 61 65 63 65 81 73 66 76 75 84 92 91 110 118 116 117 113 104 115 110 102 88 90 84 87 88 77 83 81 87 77 87 70 65 54 56 57 58 59 67 66 64 62 59 56 42 60 47 66 59 59 49 50 66 46 49 54 54 46 59 53 57 50 57 52 58 57 52 59 59 66 66 74 70 73 79 91 79 68 64 58 56 64 65 66 66 72 79 63 60 61 79 64 71 71 82 91 82 76 79 83 95 101 111 120 123 129 128 128 120 130 128 122 113 98 98 91 98 91 84 76 82 76 98 93 74 76 69 66 63 55 58 64 67 63 52 51 50 57 49 53 59 65 63 58 51 57 40 48 56 42 50 46 55 47 56 46 60 56 53 56 61 62 62 73 69 74 83 81 77 79 64 63 68 67 77 81 75 73 71 62 71 73 73 73 75 86 80 90 87 86 84 91 105 118 128 143 126 149 153 144 131 129 129 138 135 116 110 97 99 101 98 84 82 78 93 100 93 86 79 75 74 70 69 60 70 78 80 64 50 46 39 44 49 56 57 82 64 48 39 37 58 42 45 46 48 44 54 56 50 53 58 61 61 64 67 72 76 82 83 95 83 78 78 80 80 79 83 81 83 74 65 71 80 82 75 77 76 102 109 95 89 84 90 99 132 142 142 137 141 144 149 147 142 133 145 151 133 130 124 111 103 111 111 94 81 96 85 109 111 101 83 75 64 77 74 64 67 69 83 62 48 42 34 41 46 53 56 53 69 50 41 32 58 51 44 41 48 41 47 59 59 51 64 63 66 73 81 85 88 91 90 87 83 97 94 98 97 100 97 85 86 88 72 86 90 84 81 76 84 83 91 93 85 102 99 107 123 138 145 147 148 152 161 152 143 140 148 149 148 145 142 126 115 104 128 103 101 101 106 95 98 111 98 78 67 71 74 62 67 75 59 58 69 50 39 40 54 49 45 50 50 54 44 42 51 49 48 42 43 42 52 62 64 57 65 73 80 86 86 84 88 99 93 90 98 110 106 109 111 111 99 92 91 90 80 85 95 88 90 85 88 101 115 111 110 114 118 121 126 139 154 155 152 160 171 170 153 160 163 167 160 149 158 144 127 115 115 128 120 107 112 102 97 102 100 87 78 81 84 66 78 71 52 62 70 66 54 40 53 50 46 49 52 45 50 43 58 46 39 44 42 39 51 63 63 63 68 74 83 86 96 89 104 106 94 100 111 119 114 119 116 118 109 98 97 96 85 85 96 90 94 94 97 103 118 117 115 118 134 146 136 140 150 155 155 160 165 153 159 167 171 168 165 155 164 159 151 126 124 121 114 117 115 110 111 120 111 98 88 93 82 72 72 67 52 61 65 57 56 62 65 52 48 49 58 61 51 44 50 43 49 36 41 39 50 50 63 81 81 84 90 104 100 101 113 106 101 105 118 122 128 125 117 114 116 109 106 97 97 94 101 98 95 102 106 114 141 140 135 122 148 159 143 147 151 151 152 155 163 165 168 176 176 168 167 161 158 159 162 145 119 133 110 113 114 115 114 112 109 101 91 87 74 63 74 70 74 61 58 59 55 56 56 60 56 47 45 69 55 50 42 46 48 47 42 43 49 48 77 93 98 100 113 107 110 117 111 111 113 110 126 129 124 119 123 116 121 115 118 109 103 103 111 103 108 105 120 125 127 136 128 130 151 148 142 153 162 166 169 167 172 174 171 168 175 160 159 164 162 155 157 155 144 140 140 118 121 126 127 120 115 108 86 86 76 71 67 78 61 53 57 59 60 57 51 46 48 54 45 60 53 47 43 45 57 46 42 53 42 63 92 101 103 102 105 113 119 118 107 123 125 117 132 131 130 119 126 129 128 122 130 112 118 121 108 116 109 109 119 121 114 112 115 130 138 134 152 162 164 171 169 168 169 172 170 167 175 168 163 165 165 160 155 155 151 146 147 139 130 131 139 127 125 114 86 78 70 67 50 62 74 61 50 63 57 52 53 50 57 62 51 68 55 38 38 44 53 44 51 56 39 77 104 110 112 110 112 117 120 111 118 133 131 130 139 132 129 118 127 138 117 132 130 125 133 126 124 120 122 114 120 120 117 125 125 139 135 136 162 167 166 171 167 168 169 169 171 169 170 172 167 171 168 165 157 158 152 154 155 149 147 141 141 139 133 128 91 77 75 65 51 54 57 65 64 46 55 55 62 54 52 51 52 51 54 42 39 49 46 46 47 51 39 99 116 119 124 121 116 118 125 123 132 142 140 130 143 140 125 139 127 144 121 139 133 137 142 138 128 125 126 128 127 126 130 126 136 137 142 149 161 164 165 167 168 165 166 165 169 171 174 171 174 172 170 172 165 163 163 158 156 160 155 158 147 148 135 129 99 80 69 71 64 50 61 54 52 56 53 52 55 56 59 50 57 45 55 40 45 41 40 42 46 40 55 112 127 131 137 127 121 125 136 143 143 153 142 130 144 145 134 147 139 135 143 135 134 147 149 137 136 134 135 143 142 145 142 137 135 141 143 149 153 155 157 159 162 162 168 177 175 176 178 175 179 177 174 171 172 171 168 166 160 155 158 159 157 143 138 127 101 87 80 62 67 56 56 58 47 60 45 46 53 58 58 60 58 43 44 41 33 39 35 40 44 25 74 124 137 139 139 136 135 140 141 143 146 147 139 136 144 142 140 143 152 146 153 141 146 148 146 139 139 149 142 148 140 137 135 138 144 145 147 152 148 150 152 160 163 166 172 177 180 179 182 180 186 188 183 181 170 181 177 175 174 160 161 160 160 149 135 130 112 86 81 70 67 66 59 59 55 59 57 58 43 57 51 56 49 39 44 42 30 40 36 34 36 30 99 130 139 139 144 140 146 141 138 141 142 147 146 143 147 146 145 148 155 157 152 154 156 150 148 148 147 151 153 144 145 143 149 147 152 153 155 154 159 163 163 167 175 180 182 182 184 186 184 184 187 188 187 186 179 182 184 177 176 178 161 159 158 153 136 121 110 94 74 74 66 75 67 57 52 59 54 63 57 49 51 49 46 43 40 38 29 29 35 37 39 42 113 130 136 144 143 144 147 147 147 141 144 148 150 149 149 149 149 149 151 154 161 159 155 151 155 145 150 150 154 151 154 158 163 168 171 168 176 175 181 181 182 182 191 190 189 191 189 191 191 189 185 189 188 191 186 184 187 185 173 184 177 166 160 151 147 117 111 100 87 72 70 76 75 64 51 52 61 66 52 57 58 47 42 48 58 29 26 27 40 51 34 64 116 129 137 145 146 147 148 149 148 142 149 150 151 150 151 148 152 149 153 154 163 160 159 151 156 158 158 159 165 162 165 167 174 176 175 181 181 186 186 186 189 189 191 191 191 194 194 193 196 192 189 193 189 190 192 187 190 182 179 180 181 179 167 153 153 128 108 95 93 76 63 64 65 63 64 54 60 60 51 58 58 57 45 42 46 35 28 35 37 57 32 75 119 130 136 140 146 147 148 150 151 148 152 156 157 158 156 152 161 160 165 162 170 169 168 169 165 167 169 167 170 170 172 175 180 179 183 188 185 191 190 190 193 192 192 194 192 198 198 197 193 195 196 191 194 192 193 188 186 184 181 174 183 183 175 160 154 141 112 96 86 91 67 59 68 57 66 63 50 65 48 56 49 56 44 43 34 46 20 44 42 53 26 93 120 130 137 140 145 145 148 152 153 153 158 161 162 164 163 163 167 169 168 172 174 173 169 173 171 178 175 170 179 175 179 183 186 187 189 195 193 193 195 194 196 196 194 195 198 191 195 195 198 197 194 193 195 192 188 189 185 182 184 180 183 183 179 170 149 146 119 100 80 88 76 64 71 64 64 71 58 50 64 64 46 43 52 46 35 33 25 47 49 53 30 97 122 127 139 138 145 146 149 150 154 159 160 162 160 166 168 168 170 171 175 171 177 177 175 178 176 179 176 177 183 179 178 184 186 190 191 193 194 193 198 197 194 198 192 197 196 198 199 195 198 195 197 195 197 195 191 189 192 184 185 186 183 185 186 181 166 142 122 98 84 83 87 74 72 70 66 64 58 63 57 61 51 46 43 48 37 32 29 49 58 52 29 97 121 131 131 140 142 150 150 157 156 160 161 162 163 173 172 173 182 177 175 174 178 182 178 181 177 179 182 181 182 182 182 185 191 195 198 197 198 197 192 195 193 191 186 190 192 196 200 199 199 194 195 193 196 196 192 195 191 184 182 182 185 183 181 181 180 169 137 104 86 84 81 74 62 61 63 57 61 62 61 64 44 43 40 48 42 33 31 51 58 55 36 102 120 128 133 137 141 150 153 156 160 164 165 170 169 172 175 178 186 181 179 181 180 182 180 179 180 173 178 181 187 178 186 190 191 196 195 196 196 191 192 190 190 188 188 187 182 187 192 195 198 199 195 195 199 196 198 194 193 187 182 187 187 182 186 184 181 183 166 127 101 87 79 83 60 62 59 62 54 65 52 60 52 42 43 43 36 38 42 49 56 53 33 102 118 127 136 139 145 150 152 159 160 166 166 168 171 176 178 179 185 185 185 183 181 182 183 181 181 174 176 179 181 181 185 187 186 189 189 188 191 193 193 197 195 193 193 192 189 195 191 186 192 196 201 199 197 199 197 192 196 187 183 182 187 185 181 185 182 181 175 163 127 96 84 79 59 64 58 62 56 61 51 40 52 44 42 51 42 41 45 38 59 56 32 100 119 130 133 143 148 153 156 158 160 165 167 164 171 174 176 183 181 184 187 181 183 183 179 180 183 176 179 181 177 181 178 183 184 185 190 188 187 193 193 195 195 192 193 192 192 199 198 193 186 194 201 199 198 199 197 197 191 189 186 182 180 187 184 188 186 184 182 170 160 115 97 74 77 63 68 57 58 59 56 34 45 44 42 50 40 43 45 33 55 60 31 101 120 127 135 141 149 157 158 158 164 164 167 164 169 172 174 178 176 182 183 173 180 187 187 182 180 178 178 177 176 180 177 181 187 182 185 188 187 191 191 191 192 190 186 196 194 192 198 196 193 188 193 192 193 198 195 192 195 192 183 183 178 183 184 186 189 184 184 175 174 139 111 95 72 72 62 61 63 56 56 38 42 54 46 49 52 43 47 28 53 59 39 99 122 128 135 142 149 153 157 159 165 163 166 168 172 174 178 178 179 180 185 184 190 193 190 187 180 183 179 174 181 176 174 181 181 177 182 186 189 192 192 188 190 186 187 191 187 176 187 183 180 170 164 162 166 176 174 182 182 192 188 181 177 182 185 184 185 182 180 184 174 166 123 108 78 72 59 57 59 64 52 37 50 60 56 48 45 40 51 37 43 74 26 102 124 131 140 136 142 145 153 153 157 158 166 165 168 171 178 180 180 182 184 185 191 193 186 178 167 174 164 159 165 161 164 173 184 183 181 192 192 190 189 185 185 173 170 156 147 139 139 136 141 134 137 138 130 127 133 130 129 152 160 156 174 172 179 176 179 184 183 187 184 171 154 120 91 63 60 70 57 64 53 45 56 60 42 44 45 38 47 49 38 59 18 102 127 137 137 132 139 141 147 149 144 150 152 153 153 156 162 163 167 168 173 175 185 189 185 182 171 176 169 165 164 166 168 175 177 177 174 162 158 157 159 158 166 153 152 157 165 168 180 190 189 160 141 135 123 97 98 97 100 104 122 115 133 146 144 150 152 156 161 164 173 164 147 129 102 62 72 67 60 52 52 57 53 54 41 37 39 67 47 49 40 43 14 99 134 134 131 139 144 149 155 155 154 159 157 159 160 160 160 159 167 175 179 182 190 190 194 190 187 181 170 170 166 166 166 167 171 159 157 161 155 164 170 165 170 144 123 135 138 141 138 141 144 150 148 147 144 133 158 230 143 82 105 108 111 131 136 135 143 143 142 146 144 149 131 112 97 62 58 56 52 39 42 44 47 42 45 61 124 152 46 52 42 44 13 97 137 118 116 127 134 144 146 149 152 156 154 163 163 165 166 168 170 166 174 181 189 189 188 188 185 176 172 171 176 175 169 165 157 159 157 173 160 143 137 118 109 114 107 103 92 94 101 106 107 113 117 128 116 128 130 141 160 124 112 126 120 119 131 149 163 170 168 171 176 175 169 156 144 91 52 60 65 55 65 49 40 50 73 129 176 174 50 47 47 43 17 88 108 90 103 100 105 115 112 119 119 123 128 132 142 145 160 168 177 175 175 176 177 183 184 183 180 166 163 158 157 150 138 138 155 158 142 144 135 109 110 104 111 126 118 118 121 139 149 156 152 155 158 150 127 168 173 161 161 172 106 154 165 160 157 173 182 184 191 191 193 185 165 142 112 76 77 75 54 41 53 43 54 86 111 162 173 163 50 47 52 34 38 66 75 76 95 91 98 109 123 134 143 156 139 170 183 173 165 165 167 157 162 148 128 148 163 171 167 143 148 146 149 149 166 147 135 153 137 150 148 135 149 155 159 162 161 162 152 159 169 168 164 161 166 156 129 173 177 177 184 183 181 90 181 179 180 176 181 185 181 158 131 105 75 80 113 114 102 70 58 44 41 61 79 104 140 163 165 156 45 29 36 57 112 151 127 116 114 107 135 132 130 119 113 109 104 109 111 112 109 114 180 135 162 165 142 144 172 165 148 138 138 132 132 154 172 152 144 157 163 169 171 170 170 171 166 164 158 159 147 135 138 143 144 140 149 137 141 164 169 172 176 186 184 154 106 176 176 183 148 145 100 78 75 117 124 166 184 148 114 81 56 60 36 59 73 110 157 186 176 159 86 138 190 210 188 141 90 86 84 81 89 82 84 87 90 97 96 101 93 101 112 121 123 130 161 179 158 159 166 169 160 154 163 167 135 237 207 179 173 169 168 165 163 163 157 161 159 143 114 106 105 102 96 107 115 114 120 104 112 125 140 151 165 178 183 178 167 193 227 116 56 112 85 101 138 176 182 181 179 173 135 89 62 68 44 48 77 127 179 198 185 159 165 129 90 85 61 64 81 105 128 129 135 136 132 135 134 133 128 127 126 127 139 146 140 167 128 159 159 166 149 161 174 175 159 174 130 227 205 185 184 179 176 163 161 149 144 142 122 88 103 110 102 101 97 88 94 91 84 100 108 141 136 142 140 155 178 182 186 88 197 133 63 133 165 181 186 185 183 177 170 178 174 102 73 52 56 78 144 165 183 196 180 167 71 53 58 54 42 80 97 122 120 128 125 122 122 121 122 121 115 119 114 109 119 118 120 127 107 85 174 190 121 122 137 171 152 180 132 224 194 183 179 172 158 153 144 140 133 121 91 106 109 107 135 128 91 91 102 86 82 70 87 124 143 146 157 149 170 179 196 104 166 204 167 180 175 176 187 188 185 171 171 181 184 135 68 68 53 111 169 157 171 187 181 170 65 63 57 59 44 79 111 112 117 127 122 109 100 94 96 92 80 84 91 83 94 103 106 110 97 81 145 174 101 160 174 184 177 148 125 212 185 179 180 174 165 157 137 131 116 103 111 116 94 121 167 113 110 61 123 42 108 63 150 134 77 130 163 157 160 177 196 124 170 188 179 184 181 187 190 188 184 178 177 181 188 158 76 97 79 142 181 170 175 179 186 183 68 64 67 69 51 73 124 110 112 112 99 99 97 87 79 84 65 67 76 87 90 82 77 90 98 122 119 123 123 182 187 199 199 177 105 173 179 173 173 152 160 154 126 116 116 124 109 112 107 120 174 106 133 89 28 139 120 68 169 166 82 104 142 151 163 167 178 149 170 185 178 187 192 189 185 184 187 184 182 179 184 181 94 95 119 162 190 179 190 193 190 197 76 86 92 101 66 81 125 124 114 93 96 90 70 77 101 87 57 63 64 62 62 88 99 86 84 129 105 127 124 189 184 196 197 201 92 205 195 156 152 192 218 207 189 191 133 104 93 93 105 124 176 161 128 110 70 104 109 103 139 128 137 131 135 152 167 171 183 146 216 186 183 194 196 190 183 185 190 185 182 179 179 183 127 92 158 165 189 149 136 172 176 178 104 110 99 90 65 88 130 126 121 100 84 62 93 131 140 76 73 39 98 55 62 68 94 96 61 179 131 139 119 174 170 182 185 197 138 153 234 179 92 213 225 221 220 220 215 87 102 97 97 104 124 150 128 85 86 83 105 122 108 146 154 149 155 166 174 182 174 149 221 208 188 197 191 191 186 190 191 187 183 180 178 182 151 117 176 167 169 208 130 163 168 165 96 77 78 70 33 62 100 121 119 81 59 87 121 142 152 60 112 55 30 51 66 75 103 84 34 148 139 93 129 162 170 176 170 172 199 86 224 232 59 139 227 221 220 221 218 111 107 111 108 114 133 121 129 121 125 128 136 159 122 168 163 158 168 176 177 176 168 181 145 201 193 193 191 192 189 192 192 186 182 180 180 176 170 145 180 169 157 182 166 160 168 140 88 69 72 33 161 221 217 212 212 107 83 93 119 135 163 90 120 88 51 70 60 78 95 85 59 109 89 65 148 170 174 188 187 175 185 110 168 239 139 86 115 156 159 156 129 109 113 115 109 113 129 126 144 137 147 155 157 152 144 162 169 170 177 179 173 175 174 201 130 189 193 190 192 190 194 192 193 183 182 178 179 179 170 161 175 175 174 168 177 181 169 117 63 65 69 14 223 224 220 220 222 198 97 100 95 108 127 130 83 78 76 88 97 92 98 108 105 130 71 75 158 170 180 190 200 189 173 177 76 179 139 167 144 149 143 132 121 113 113 115 116 118 125 131 142 148 150 162 159 144 155 169 175 179 180 181 178 182 182 200 138 183 190 191 193 192 194 192 187 186 184 178 179 180 170 163 177 170 191 199 188 194 159 106 54 60 51 42 99 215 221 217 216 151 94 103 107 109 108 108 108 108 112 108 106 99 106 105 111 141 75 113 163 179 192 199 197 191 190 183 156 101 150 162 161 152 149 144 129 121 120 121 117 123 121 131 135 141 146 150 138 145 167 173 180 176 182 184 185 186 185 194 141 180 191 192 190 199 189 192 188 188 182 177 181 176 163 161 194 177 178 199 207 191 122 112 58 55 55 44 12 73 143 150 127 115 100 111 125 125 121 124 125 122 118 111 108 107 111 101 130 137 92 138 164 183 192 204 197 188 194 183 175 137 137 136 163 161 159 155 144 130 131 123 122 121 123 130 123 122 125 123 141 162 170 178 185 184 184 189 191 181 185 189 152 182 194 192 193 196 191 190 189 189 184 176 178 176 167 157 196 193 127 144 160 137 115 151 54 56 52 57 45 72 138 134 136 126 106 109 127 130 127 128 129 124 119 114 111 110 116 91 184 130 106 156 166 178 195 203 201 190 192 191 174 163 154 132 141 168 170 167 158 146 141 129 122 120 119 123 118 121 132 148 163 170 174 179 187 189 189 189 192 185 186 179 193 181 196 195 194 194 192 191 187 186 184 177 179 174 172 155 196 212 138 127 142 144 173 183 53 56 50 58 46 64 137 140 134 131 112 110 119 127 120 122 119 118 117 115 119 119 122 99 219 123 129 162 164 177 196 201 199 192 189 197 185 180 170 147 127 150 164 161 158 147 137 130 123 122 121 125 139 149 161 172 180 179 182 187 192 194 196 188 189 186 188 165 176 192 198 197 199 194 191 192 186 184 182 180 177 172 173 156 200 199 137 155 184 192 191 185 53 55 54 54 55 49 135 141 136 132 122 120 126 125 120 122 122 126 126 124 126 134 130 150 204 114 139 162 164 180 192 197 193 193 192 190 195 181 186 182 170 143 141 151 155 152 149 147 148 150 154 152 167 166 180 184 187 193 191 190 195 199 195 191 189 186 185 137 182 201 200 198 198 194 190 187 187 183 183 177 177 175 172 159 201 149 139 160 189 195 182 168 54 60 53 55 51 40 136 141 139 135 133 118 128 135 129 125 134 129 134 135 140 148 129 205 154 103 156 159 169 183 187 193 192 194 191 189 192 184 180 190 183 185 155 145 176 173 173 172 167 171 172 170 178 180 187 189 189 194 202 195 198 201 195 196 192 178 145 178 198 201 198 199 195 192 189 185 186 186 181 177 179 175 172 167 188 157 168 179 193 191 171 166 58 55 56 57 59 34 124 144 145 137 143 127 119 133 134 132 137 137 144 147 146 142 163 183 122 117 157 153 169 180 192 197 191 193 191 186 187 192 180 192 194 193 189 171 165 199 180 175 174 174 180 187 188 189 193 187 189 196 197 200 201 198 189 186 160 153 190 194 194 201 197 197 195 194 186 187 184 184 179 177 179 179 175 166 189 193 197 195 195 191 172 190 95 51 57 56 57 34 120 142 143 142 142 141 127 125 138 136 141 143 147 153 141 149 194 134 133 129 157 150 167 184 197 194 191 196 193 190 185 189 181 188 193 192 190 186 177 182 167 176 178 182 184 193 195 193 190 190 194 192 187 184 179 167 167 167 184 189 192 193 197 199 202 196 193 191 187 188 183 181 179 180 181 182 171 164 197 202 203 197 198 198 187 195 154 90 60 69 70 40 103 146 143 141 143 145 144 140 135 135 137 140 144 148 138 176 155 146 142 126 157 157 173 190 199 194 195 193 193 189 181 181 184 181 192 192 189 192 192 188 181 173 163 158 154 152 151 151 148 157 161 164 167 175 179 192 187 177 183 189 195 197 196 198 199 199 192 195 188 188 179 180 178 180 179 183 169 164 199 199 196 195 195 198 196 153 63 167 115 80 72 60 94 148 147 149 151 149 152 154 157 153 152 152 157 155 150 148 155 152 140 129 156 159 172 197 198 199 196 190 196 187 177 176 178 172 185 191 195 188 192 189 182 181 182 190 196 196 197 196 198 197 199 197 197 194 195 189 191 185 190 192 197 195 199 199 200 195 196 191 192 184 181 179 180 184 185 178 166 173 197 193 193 193 195 196 202 86 44 67 189 162 108 79 76 144 144 152 154 153 156 161 165 160 153 147 148 146 149 155 160 154 139 131 159 164 174 194 196 203 197 196 196 186 174 172 173 163 178 180 189 188 187 186 181 179 183 190 194 194 196 200 199 200 203 203 200 201 201 199 200 196 196 194 196 194 199 198 199 191 196 192 190 186 180 182 184 182 184 181 166 181 202 194 192 189 195 200 176 46 46 35 30 133 183 196 157 161 159 159 166 175 169 154 141 138 138 145 150 154 154 158 160 154 139 137 163 166 178 192 199 200 200 192 198 183 176 170 170 159 171 174 181 184 182 179 173 175 185 191 193 194 196 198 196 198 199 200 197 199 197 201 197 195 197 195 201 195 200 197 195 187 191 189 187 181 179 184 186 183 180 178 157 186 201 198 191 190 194 188 105 48 51 47 47 35 44 51 129 142 156 168 177 179 165 154 154 154 157 162 161 159 160 158 155 152 142 144 161 168 182 193 198 197 201 195 192 187 183 171 175 169 164 168 176 180 177 173 167 177 185 187 188 191 193 193 191 195 194 196 194 198 197 197 196 194 200 200 198 196 200 198 192 191 191 185 183 181 182 184 187 183 181 180 160 180 191 194 191 187 185 135 53 57 51 50 48 45 50 24 99 142 139 142 149 154 160 158 161 159 159 162 160 160 157 153 155 156 140 148 160 172 186 193 195 201 198 193 190 190 191 177 184 177 175 173 171 173 169 164 170 182 184 185 185 185 190 190 191 193 193 197 198 195 197 194 198 198 198 199 199 197 197 196 194 193 192 183 182 182 186 185 184 182 177 168 155 159 127 168 162 156 114 63 57 56 50 48 48 50 48 35 74 141 143 149 153 152 162 160 155 161 159 160 153 159 156 151 157 153 146 148 161 183 189 198 200 197 198 199 189 188 193 185 188 190 190 188 178 178 171 166 173 182 179 183 184 185 191 190 190 194 194 195 194 196 195 194 194 197 198 195 194 192 197 196 193 193 195 178 181 183 187 185 185 181 178 164 149 166 65 51 65 68 56 61 59 58 50 49 48 47 51 42 48 136 144 149 154 150 153 156 149 152 156 153 152 151 151 150 157 153 143 141 166 184 190 195 197 209 198 188 190 184 189 191 190 192 186 189 180 169 161 165 166 170 177 184 180 184 186 190 190 192 194 194 197 195 197 194 194 197 197 195 194 193 192 192 193 192 193 163 180 188 188 185 187 183 179 163 159 158 62 55 56 61 57 59 60 58 55 48 48 50 47 50 26 117 141 145 150 146 150 151 151 147 149 147 148 145 147 152 150 143 136 130 151 193 187 193 193 193 183 179 184 184 182 184 185 180 182 181 171 160 157 172 171 169 168 177 183 183 183 188 188 188 190 190 193 192 193 192 195 197 197 195 193 191 190 193 192 193 192 180 184 189 188 184 183 182 177 151 153 141 51 54 56 60 59 56 62 57 52 49 46 47 47 49 28 86 140 144 147 143 149 148 148 146 148 144 147 149 146 149 150 130 135 125 136 179 185 187 186 190 184 178 157 128 113 117 144 154 168 156 152 171 184 190 185 177 166 169 177 184 181 189 189 187 192 194 183 193 194 195 194 195 194 189 193 192 190 190 192 192 192 183 186 189 189 186 180 180 177 157 148 116 47 58 58 61 57 55 62 60 47 52 47 45 50 46 43 50 132 140 144 142 144 146 147 150 149 149 147 152 148 144 151 130 130 114 131 165 180 180 181 198 196 142 132 132 133 141 153 148 135 137 157 175 198 196 193 186 176 166 172 176 182 188 190 192 191 193 179 190 196 196 194 196 190 189 189 191 188 188 190 191 186 181 183 191 192 185 176 176 172 147 154 92 47 56 57 58 58 58 59 58 52 51 48 47 48 48 49 28 115 138 140 142 145 147 148 150 151 147 149 149 148 144 148 141 138 108 90 145 166 172 170 185 192 136 155 165 155 148 133 123 125 148 147 163 183 198 194 192 190 179 174 170 175 182 186 193 196 195 196 198 198 198 195 192 191 187 187 191 187 189 187 190 187 186 186 192 187 188 176 175 171 147 150 72 54 56 55 59 55 61 55 60 50 47 50 51 43 47 48 33 72 132 136 142 140 146 145 151 149 150 146 148 145 144 148 146 147 111 78 86 119 161 163 171 181 162 168 156 133 117 119 111 108 129 137 148 165 183 187 192 193 191 180 174 171 169 180 188 190 195 198 200 197 200 195 193 190 186 185 186 190 188 186 188 187 183 191 189 187 186 174 170 155 150 135 57 54 54 60 58 61 60 61 61 48 47 48 45 50 47 47 48 30 125 132 138 144 147 147 148 150 147 145 140 146 144 147 152 143 103 69 82 79 108 145 157 160 162 149 122 117 97 98 105 100 105 115 138 139 155 167 179 187 186 182 183 174 176 169 178 183 189 192 196 194 194 193 192 191 189 183 187 190 187 183 187 188 183 187 187 186 183 172 171 159 159 106 53 56 53 62 58 58 57 67 53 50 45 50 45 47 49 46 51 27 78 136 137 140 146 148 148 146 139 140 134 140 143 135 133 118 95 72 89 69 104 118 130 136 137 120 90 101 105 83 96 90 94 106 104 125 133 144 164 161 167 163 182 168 176 165 164 169 179 186 184 186 190 192 188 189 189 187 190 189 189 186 187 190 186 185 184 183 174 174 173 152 157 91 56 52 58 56 54 63 57 62 60 48 49 49 46 45 46 46 45 43 39 129 133 136 142 148 145 138 128 133 129 126 121 117 112 95 84 68 78 68 93 93 112 127 117 98 75 93 97 84 93 89 93 85 95 99 118 132 139 146 130 145 153 153 153 155 166 171 164 176 191 186 180 191 192 189 191 192 189 189 189 190 189 189 188 185 184 183 167 173 167 150 146 71 51 58 57 55 53 58 59 60 58 53 44 47 49 48 46 49 48 47 26 116 131 131 142 145 141 121 119 123 111 111 106 99 93 83 72 64 73 78 100 105 103 121 110 82 83 72 85 80 83 93 85 85 76 95 91 113 126 127 108 117 139 126 126 124 135 165 166 158 187 183 178 184 190 186 191 189 191 191 190 193 192 184 183 184 179 175 167 174 165 152 142 58 53 55 54 58 55 59 63 60 59 45 47 45 51 45 50 45 47 50 25 90 132 122 132 140 135 104 106 107 97 97 99 82 77 76 65 74 77 76 99 94 99 122 102 88 78 80 81 92 78 86 77 89 72 86 86 86 104 114 100 104 112 126 116 110 122 120 151 141 173 184 182 181 192 181 194 190 177 192 193 193 193 188 183 188 171 173 163 168 165 154 138 50 53 59 56 53 56 61 61 62 57 44 45 48 46 50 43 46 43 47 37 64 128 123 112 125 121 93 102 88 95 88 88 71 69 72 71 73 72 78 94 90 112 122 115 86 75 89 87 85 78 82 84 88 84 85 85 88 89 101 100 89 103 123 122 113 116 117 122 131 153 179 176 174 175 184 189 191 179 190 193 195 192 189 184 183 177 168 170 165 167 151 124 55 51 60 56 60 56 62 61 63 59 47 44 45 47 50 44 47 50 43 42 47 120 120 114 123 117 91 97 87 86 88 77 75 75 74 74 70 78 72 77 101 111 126 127 105 75 95 93 81 77 96 93 96 104 93 96 97 93 103 106 97 103 116 119 130 119 120 117 129 131 163 161 171 155 179 175 184 188 192 191 200 194 185 182 179 180 169 171 170 159 145 111 49 58 55 57 58 58 61 62 62 61 48 44 48 47 48 45 47 50 47 42 47 101 122 110 111 107 87 96 94 88 81 81 83 90 96 95 84 81 93 98 110 113 135 133 124 127 117 122 100 101 114 121 120 129 130 112 127 111 108 105 107 98 97 101 121 122 113 123 123 128 151 148 155 158 183 161 179 194 191 194 192 194 181 180 179 178 169 166 160 160 150 102 49 57 59 58 59 59 63 64 61 64 45 47 46 47 40 50 42 48 43 48 41 85 125 107 103 98 87 85 90 98 84 84 87 90 110 108 104 111 122 127 134 137 152 149 144 143 140 141 129 129 133 142 134 142 139 135 124 113 98 86 103 108 112 116 124 113 125 116 129 140 140 151 153 157 165 168 175 191 186 189 188 185 179 181 179 171 169 168 166 149 152 92 49 59 58 57 54 63 61 57 62 59 48 42 46 49 43 47 42 46 40 47 47 65 113 109 101 98 88 85 86 97 98 89 98 70 89 105 106 114 120 119 124 127 136 139 135 136 140 140 142 147 138 149 138 136 124 115 110 110 109 100 108 118 128 131 123 127 134 125 126 142 148 165 159 167 157 173 177 184 189 188 185 182 184 182 170 174 168 166 163 154 153 86 50 61 57 59 61 59 61 60 64 61 47 42 47 45 46 48 43 44 41 42 45 52 105 110 109 97 104 86 93 95 110 109 120 112 80 82 95 104 113 112 124 132 133 145 139 136 145 131 128 124 113 112 116 120 121 119 118 123 128 138 149 132 147 151 137 135 137 132 139 151 149 147 165 166 149 175 184 193 188 190 177 187 185 178 169 171 175 161 154 154 155 89 52 62 57 57 64 58 59 54 64 55 47 45 44 47 44 46 45 44 42 45 45 31 85 105 117 102 118 106 97 111 113 124 128 132 114 94 88 87 83 85 98 98 111 114 109 100 101 101 102 109 119 130 135 138 133 132 130 147 164 170 178 159 161 163 153 142 140 139 152 163 157 150 167 172 148 180 187 188 188 187 181 186 182 178 168 168 173 161 155 133 169 84 47 59 61 60 62 59 58 58 60 59 48 49 47 40 44 48 45 42 43 41 41 41 45 109 122 110 110 122 115 129 118 130 133 135 133 122 101 99 94 89 91 96 95 100 97 103 106 111 115 124 127 145 142 138 146 150 169 177 181 179 180 169 171 186 177 154 162 152 163 157 168 171 173 171 159 182 190 186 187 185 186 180 175 179 173 167 171 156 146 142 174 75 50 56 61 58 63 61 59 58 59 62 50 43 45 49 45 45 42 39 41 41 40 39 42 90 120 113 121 124 121 131 114 125 135 133 134 136 122 116 100 102 104 114 114 114 118 119 122 121 126 132 137 145 152 158 169 177 184 181 180 179 178 176 174 185 178 166 170 164 178 169 176 168 179 183 175 181 191 189 185 182 185 183 165 177 169 169 159 162 138 168 181 76 50 61 58 63 64 58 59 63 60 61 44 50 43 43 43 40 41 39 42 36 39 42 50 49 114 120 122 115 111 120 108 108 131 135 131 136 132 132 124 125 110 121 128 127 132 128 130 127 136 141 155 164 174 177 178 183 177 179 180 183 181 182 177 178 166 155 152 175 184 178 176 172 180 185 181 186 190 183 185 180 183 174 171 161 169 163 158 140 137 184 179 69 56 57 63 60 60 60 61 63 57 58 44 43 46 44 40 42 41 42 39 38 41 36 48 40 97 115 117 108 109 110 105 111 126 131 133 135 132 130 128 135 134 143 144 144 142 144 144 143 160 162 167 170 173 175 172 164 170 176 178 181 173 179 175 164 151 161 148 149 190 185 174 174 182 184 182 191 189 189 184 185 173 175 178 163 170 162 145 133 168 188 180 72 48 58 60 60 58 60 60 56 60 58 43 44 45 43 41 40 45 37 43 40 39 38 41 33 54 106 117 105 110 116 94 107 118 128 131 135 136 125 121 118 124 121 125 124 117 119 114 113 133 133 145 144 147 144 161 158 174 175 173 173 172 171 164 152 150 132 152 129 165 180 176 181 177 186 185 188 186 188 178 181 175 175 166 163 165 148 137 161 187 184 181 70 54 59 60 58 61 57 58 55 59 50 44 45 46 39 42 44 37 39 39 38 40 36 38 41 37 92 119 106 100 111 84 96 111 126 126 133 133 132 119 104 106 98 92 87 93 93 80 81 91 101 108 110 123 129 149 154 167 169 166 165 167 157 157 147 147 129 127 149 160 174 181 181 182 181 185 181 185 184 182 183 179 179 160 160 164 132 152 185 185 183 183 72 50 63 58 57 57 53 58 55 56 54 44 44 42 39 42 39 40 39 36 36 37 37 40 42 43 44 112 109 103 103 88 93 107 120 129 128 128 127 112 100 97 87 78 62 81 82 56 62 69 83 83 95 122 123 138 153 155 158 156 153 154 149 141 142 139 129 119 126 163 165 172 184 182 185 187 178 184 173 175 183 177 177 158 153 134 146 182 189 185 185 183 73 45 60 60 54 57 57 55 55 53 58 44 44 40 46 39 38 36 41 40 37 37 38 38 47 43 44 63 100 97 97 93 91 108 119 129 119 125 118 105 102 90 73 77 64 70 71 49 59 67 65 76 86 110 114 132 151 147 150 151 149 148 143 140 130 117 136 133 129 148 157 179 183 181 182 184 180 177 177 174 177 163 170 160 144 162 181 190 187 189 180 186 75 46 56 59 54 54 56 58 51 52 54 45 44 43 45 41 35 40 40 39 39 37 36 36 45 45 45 50 78 95 86 89 90 107 113 120 109 120 103 99 97 82 72 66 74 69 56 50 67 66 73 82 82 110 107 129 135 142 144 148 145 140 143 138 140 110 130 126 130 131 137 166 176 180 171 182 177 175 170 175 171 158 153 155 167 180 188 188 190 185 180 186 77 47 55 52 54 53 54 58 50 53 52 48 40 44 38 42 40 39 34 39 39 33 42 34 46 42 49 50 48 78 81 77 97 99 100 101 105 105 94 80 97 86 74 70 67 69 44 64 78 72 76 85 86 112 113 123 131 135 139 144 143 144 137 114 140 111 123 120 136 111 146 146 174 169 161 175 174 175 170 169 162 148 164 181 182 190 190 190 191 186 178 190 78 45 56 55 52 52 57 50 52 53 51 42 47 41 40 37 36 39 35 39 36 39 39 37 44 49 60 55 53 55 74 69 86 83 86 98 101 110 90 83 80 79 85 70 76 66 64 84 89 79 78 88 90 111 124 126 126 130 134 130 125 140 127 102 127 111 110 110 113 116 125 151 167 169 159 164 162 167 162 158 144 160 179 185 187 193 191 191 191 184 178 191 92 39 49 52 51 53 57 44 57 52 49 45 47 41 39 39 40 38 40 34 39 39 39 42 43 44 51 56 52 52 64 68 72 74 76 86 101 90 85 85 90 90 88 76 86 74 79 105 93 93 85 87 98 112 131 129 120 123 143 133 118 123 125 104 114 123 101 100 95 109 105 142 133 144 149 154 156 156 153 154 180 170 184 190 189 195 190 190 187 185 177 195 96 39 54 53 55 51 54 50 52 52 50 44 46 43 44 42 36 42 37 36 37 38 37 39 41 45 45 44 49 54 59 67 64 64 70 69 89 91 90 91 89 97 87 98 81 80 101 115 99 99 101 89 113 116 129 124 120 124 150 139 130 110 110 102 108 112 103 89 107 82 104 129 109 118 127 136 141 140 165 179 182 183 191 190 193 196 193 188 185 185 178 195 104 35 48 52 48 52 51 49 50 53 51 41 46 42 45 43 39 40 38 35 42 33 45 44 43 47 43 45 51 62 60 62 59 60 75 71 76 86 94 96 81 91 86 97 89 97 117 122 109 94 110 101 118 121 124 113 126 126 128 132 130 115 98 97 100 97 94 86 92 84 95 106 98 109 109 125 137 167 184 181 184 193 190 192 194 192 193 189 188 183 179 192 113 29 45 51 48 52 47 49 52 53 52 43 42 43 44 39 45 38 39 37 39 41 38 50 55 52 51 53 66 66 66 58 63 68 68 73 73 83 88 85 85 91 95 101 95 100 111 126 106 102 104 108 121 130 113 122 120 123 116 112 114 112 91 91 96 95 86 83 81 89 88 89 79 96 105 137 156 187 188 190 188 191 191 192 193 193 190 189 186 182 179 195 122 29 42 51 44 47 48 49 44 54 51 47 38 48 40 44 39 40 37 42 40 57 65 73 65 75 73 66 73 73 65 64 71 70 63 64 67 74 73 78 85 87 93 101 105 95 106 117 97 102 102 119 117 122 115 117 115 116 112 98 90 103 83 77 86 86 81 88 78 96 86 81 87 95 119 143 145 185 190 190 190 188 190 193 194 194 191 190 184 182 179 192 129 31 39 45 47 44 46 48 40 53 45 44 43 49 39 49 57 70 84 96 108 116 105 91 86 101 75 71 74 67 63 71 67 63 64 62 63 65 69 83 87 90 88 101 105 90 107 97 89 91 95 109 106 111 113 108 109 102 99 93 86 84 78 68 67 74 85 74 73 90 89 87 98 114 126 139 151 164 179 165 182 191 190 193 193 194 191 188 186 181 181 188 143 27 38 41 47 41 49 41 43 49 47 51 76 83 97 111 119 126 119 119 114 118 104 85 113 96 72 73 80 63 65 67 64 57 73 65 68 69 75 80 80 78 88 91 97 80 100 95 75 84 92 92 98 93 100 99 90 90 89 82 78 82 66 64 59 78 78 75 74 76 88 98 95 101 100 161 149 149 184 159 188 190 187 193 192 190 191 189 189 185 184 179 171 44 33 42 37 40 41 46 44 43 46 