P2
92
112
255
48 45 50 49 50 48 47 47 49 48 50 50 52 49 52 54 60 57 53 57 56 59 51 50 56 49 57 47 49 45 59 58 55 58 51 50 55 59 54 51 49 56 56 61 67 73 63 50 60 58 63 63 59 47 48 52 55 52 56 60 62 57 54 61 52 61 55 61 59 58 53 61 59 61 55 59 56 54 53 56 58 60 56 57 53 55 55 55 52 57 57 54 46 50 47 49 46 51 47 51 50 51 53 49 52 47 55 54 58 56 58 60 59 54 43 54 46 59 58 58 53 50 54 49 49 49 47 47 51 55 44 41 50 50 50 56 58 58 55 55 63 53 60 51 51 51 47 52 51 61 64 57 57 62 47 54 58 61 61 69 58 56 57 59 56 57 56 57 57 51 58 52 59 58 56 59 57 55 56 53 52 57 52 57 51 47 52 48 51 54 48 52 50 53 52 49 54 50 56 55 60 59 59 57 52 58 48 55 53 56 58 61 54 49 48 50 44 44 40 41 45 45 39 39 44 46 44 43 46 47 47 55 45 48 46 54 54 45 42 57 60 55 56 56 60 70 53 54 59 64 70 67 61 64 59 60 57 57 57 56 60 49 58 58 57 59 56 57 63 53 53 55 56 54 58 52 48 47 49 50 54 51 50 54 51 50 51 49 53 48 56 61 58 53 55 51 58 66 56 55 51 57 58 58 53 45 49 43 44 36 37 41 42 43 35 36 40 38 34 34 38 43 49 50 40 48 46 51 50 51 51 51 56 58 59 55 53 67 58 54 56 64 73 60 66 77 67 63 61 57 58 60 54 51 60 57 55 58 60 53 59 53 54 57 52 57 53 55 51 49 49 46 52 52 49 52 50 51 54 51 52 44 59 66 63 54 56 49 50 63 59 49 48 51 57 53 52 45 45 39 44 43 41 42 40 32 35 36 36 34 32 33 38 46 50 51 57 56 51 46 52 44 45 49 57 65 56 47 49 63 55 57 49 54 69 60 64 65 67 63 60 63 52 62 54 53 64 53 60 55 61 54 55 56 52 57 54 52 60 56 49 46 50 47 53 48 55 51 52 53 49 57 54 46 53 57 59 62 49 48 51 62 63 51 49 49 45 56 46 43 39 37 41 40 51 47 44 42 31 37 30 34 34 39 38 36 40 41 39 36 33 37 48 41 49 53 57 57 43 40 51 56 51 65 47 58 65 61 61 62 59 64 64 59 59 57 53 54 61 54 62 53 60 52 57 54 55 56 52 57 51 57 49 49 43 49 50 53 54 53 58 50 55 59 50 52 53 50 57 53 57 50 57 61 57 55 53 42 42 45 52 44 39 41 37 40 38 40 37 38 42 44 37 33 38 40 36 36 31 34 29 31 27 35 34 42 52 47 56 46 42 45 57 56 57 67 53 67 62 61 70 55 56 66 64 59 59 52 48 46 51 58 58 56 60 53 58 54 58 54 57 56 61 51 48 48 50 47 50 50 56 54 57 57 56 57 43 54 55 45 48 52 55 53 60 62 56 54 53 47 40 42 50 43 41 39 39 42 40 36 30 31 40 47 42 47 47 50 50 51 45 40 33 40 32 35 41 40 50 54 59 45 41 57 62 54 58 60 64 60 59 63 61 52 50 61 63 69 68 56 41 49 46 56 57 57 56 57 57 55 54 56 56 56 54 57 48 51 49 48 47 54 59 56 54 61 57 58 56 60 54 55 48 47 52 51 53 59 55 51 52 47 41 43 47 49 38 36 42 39 44 38 34 36 39 40 42 49 58 67 66 64 57 48 43 40 37 35 35 36 41 51 47 51 53 60 54 55 52 65 58 57 59 51 58 54 63 70 70 73 71 62 61 54 61 43 50 60 57 55 58 56 53 58 58 59 56 57 51 49 50 47 51 52 56 59 56 64 60 58 61 60 51 49 53 47 46 50 54 52 55 52 50 51 47 43 44 45 45 47 46 45 43 40 45 47 42 39 40 52 52 50 61 60 57 52 50 53 41 38 32 35 44 44 40 50 58 56 53 52 47 63 61 70 61 54 50 56 62 70 71 68 76 71 72 55 63 49 37 56 54 58 57 56 57 59 54 61 57 59 52 53 50 47 50 52 58 56 66 68 65 62 60 53 63 52 50 47 50 50 51 44 44 47 52 56 54 59 49 45 47 42 45 44 42 51 44 44 39 43 45 43 48 50 50 50 49 50 46 49 51 45 36 33 48 44 51 62 59 50 54 53 51 57 71 78 66 64 60 53 62 66 65 67 73 83 71 66 64 49 48 52 55 59 59 60 59 58 56 59 57 58 52 48 49 47 52 53 49 66 69 69 69 62 59 57 64 56 48 44 50 48 49 45 46 54 62 67 66 65 59 54 51 49 51 48 43 47 37 44 45 45 48 54 52 47 44 40 43 44 48 46 41 48 37 37 44 37 47 51 54 60 67 54 51 61 70 75 58 59 53 58 58 57 70 75 74 77 73 65 59 50 50 45 57 62 62 58 61 61 55 60 59 58 55 49 48 48 51 54 58 64 63 61 56 58 52 62 65 60 56 47 48 40 49 62 64 58 63 71 76 78 68 64 58 59 52 51 46 45 48 51 51 60 56 51 57 50 42 39 40 40 46 45 39 39 46 37 44 37 39 45 56 58 61 55 52 56 60 62 61 62 50 49 52 57 58 64 73 79 74 76 65 59 51 50 54 54 56 62 59 58 56 62 58 59 50 50 51 51 53 53 65 61 60 63 56 57 47 58 63 62 55 50 57 52 45 53 60 63 69 76 72 71 66 67 62 57 49 48 46 42 46 51 58 53 56 54 48 46 46 43 46 47 50 47 40 40 41 50 42 40 38 40 49 61 64 60 66 74 68 60 67 55 42 42 43 57 58 62 60 70 77 72 71 67 55 57 53 54 57 57 62 59 57 59 59 56 51 51 49 52 48 58 67 60 56 60 55 54 46 57 56 67 60 57 53 53 58 48 60 72 64 64 67 66 65 61 61 61 60 52 48 53 47 53 56 54 55 49 49 42 47 45 47 43 47 44 47 43 48 46 44 47 42 43 45 60 60 57 60 65 60 58 55 50 38 45 52 53 60 61 62 67 71 76 75 61 69 66 51 56 59 55 53 61 56 56 60 54 51 50 49 52 51 58 64 60 55 62 57 55 44 49 58 64 66 63 59 60 62 61 56 65 68 61 58 60 58 64 69 58 56 52 48 51 53 61 57 65 57 56 58 52 44 40 39 37 42 44 48 52 50 46 45 43 44 44 49 45 47 46 46 49 57 54 54 45 41 47 53 52 56 53 67 65 66 71 77 68 68 76 57 57 55 55 54 54 62 55 62 59 52 47 51 52 50 59 61 55 58 62 59 57 47 48 59 62 61 62 59 60 60 60 62 62 60 65 63 61 59 63 62 52 52 46 52 48 61 64 72 69 70 63 70 57 50 47 39 36 36 51 51 51 59 57 49 57 48 48 52 49 47 46 42 52 67 76 69 56 58 52 54 63 73 67 76 68 74 75 75 57 59 63 59 57 64 56 61 55 58 62 64 58 53 49 52 50 55 58 54 55 53 68 64 67 50 44 59 60 60 58 63 63 59 57 62 65 66 68 61 63 70 62 63 56 54 50 51 63 74 67 75 82 75 76 72 66 55 57 39 36 51 58 68 63 73 66 68 70 62 59 54 55 50 50 54 71 67 74 78 77 78 65 68 74 81 84 86 77 76 78 65 58 51 61 77 64 67 57 65 55 63 60 63 61 49 53 51 55 55 61 53 53 58 65 70 63 61 56 61 58 58 62 63 58 57 57 58 58 60 66 64 71 70 67 70 60 52 53 65 72 70 65 79 78 73 69 71 66 57 51 42 47 54 76 75 80 89 74 68 71 70 70 70 64 62 66 74 70 57 67 80 79 81 82 75 64 59 70 64 74 76 81 68 55 53 60 69 66 54 55 61 61 52 63 58 62 47 53 50 55 56 55 50 48 51 68 67 56 62 63 60 58 62 58 58 61 60 59 59 66 72 72 68 73 72 78 75 64 65 68 71 66 66 79 81 81 80 74 66 70 56 48 56 56 56 71 79 83 86 75 74 72 74 84 84 80 83 81 71 59 56 66 75 67 80 85 84 88 83 75 75 70 72 64 73 61 52 58 63 79 65 48 48 60 41 66 59 58 48 56 47 51 57 47 51 49 49 69 67 66 56 61 62 60 65 60 63 63 72 70 66 68 76 73 76 79 80 85 81 70 73 75 72 63 63 78 85 79 79 75 72 77 64 56 66 65 70 76 73 81 78 72 77 83 86 93 102 102 102 93 85 83 86 69 69 76 77 82 82 89 83 76 73 67 83 80 70 68 55 58 52 70 86 67 59 50 50 57 61 59 49 50 46 46 59 49 52 52 52 57 59 66 60 62 61 64 62 63 66 75 79 73 69 70 80 82 75 74 87 84 82 78 76 71 65 66 78 82 89 77 76 80 73 73 70 61 72 78 80 87 91 81 79 85 93 99 108 112 109 114 110 108 107 97 86 75 75 72 82 76 79 84 81 66 57 57 74 82 79 67 55 64 56 57 73 64 58 45 46 58 63 59 52 53 41 44 54 57 53 52 54 58 58 58 60 59 65 62 66 63 68 70 81 78 74 79 88 89 79 85 89 81 87 77 79 71 76 85 83 93 90 87 83 76 68 76 77 73 72 85 89 91 96 94 85 92 93 104 126 138 137 125 116 121 124 117 98 98 82 83 81 80 75 71 75 64 62 59 62 70 66 55 58 72 62 50 58 57 54 53 43 44 73 57 56 46 42 46 45 57 57 57 60 60 53 56 54 56 60 54 63 66 70 72 77 77 83 83 91 90 95 99 93 94 90 87 88 90 91 94 96 96 85 86 88 75 74 83 82 84 78 87 102 112 108 100 89 99 114 132 138 144 151 146 133 135 135 132 116 108 99 90 92 84 85 80 70 64 63 66 65 69 70 65 58 66 63 56 60 64 71 51 45 36 62 58 58 33 43 45 46 57 54 60 58 56 55 51 57 52 60 63 62 69 77 77 89 93 94 99 106 106 106 109 107 104 97 98 106 107 109 119 119 114 100 82 90 86 88 90 88 87 89 96 98 99 106 97 99 100 127 144 149 154 148 147 147 145 137 137 130 122 111 104 93 89 88 89 84 67 61 74 78 76 65 73 66 66 65 63 61 64 76 71 48 35 51 62 50 33 40 46 43 44 53 59 53 53 62 54 50 55 65 67 65 74 82 95 101 102 105 104 108 106 110 108 110 109 108 113 119 115 119 133 130 123 109 91 96 90 89 87 90 89 95 107 113 120 116 118 118 123 132 141 146 156 162 160 159 160 144 141 140 135 131 114 97 97 95 98 92 86 67 60 71 71 68 67 64 70 71 60 59 61 58 54 58 36 42 71 47 29 41 43 48 46 52 53 56 53 46 53 48 65 68 69 81 90 97 106 105 102 103 107 108 110 116 117 116 112 113 123 126 126 134 137 127 122 117 106 106 98 95 94 96 95 102 112 121 121 123 123 123 135 147 148 155 165 169 172 173 164 155 157 157 151 144 133 113 100 105 100 94 93 85 78 69 75 71 67 65 76 66 58 52 56 60 55 41 42 36 68 44 40 40 50 51 47 46 43 50 57 50 48 52 60 70 82 101 109 106 107 115 123 128 115 120 132 129 121 124 116 126 129 132 138 140 133 127 132 125 119 116 107 103 106 107 97 106 115 131 147 147 142 134 150 164 159 154 155 154 162 159 158 166 162 161 156 148 152 134 114 103 108 95 100 89 89 92 79 82 74 66 79 71 65 58 52 61 49 39 34 33 58 37 41 39 51 50 48 45 44 51 47 52 50 58 69 80 97 112 112 118 121 125 130 120 131 138 133 133 132 128 129 140 136 136 131 140 132 134 138 130 126 127 116 114 114 114 108 116 126 130 146 152 142 136 156 158 152 162 166 170 172 173 166 170 167 165 164 156 154 151 131 113 104 106 105 96 77 67 84 75 75 67 64 59 73 73 51 58 72 40 31 37 46 47 40 40 52 49 41 54 50 54 51 55 59 66 84 96 109 116 121 126 129 126 130 131 136 131 136 133 135 138 146 150 142 140 143 143 141 144 139 138 140 142 125 132 125 121 114 114 122 130 130 131 128 134 147 141 153 168 174 173 175 174 173 170 165 160 162 161 153 155 141 136 118 115 113 104 85 77 79 69 65 64 63 65 62 60 54 49 63 58 37 37 46 34 47 41 50 43 48 53 54 49 55 57 72 78 98 105 121 123 128 130 131 132 134 130 138 142 137 132 145 152 159 152 149 151 146 140 143 151 138 141 149 149 139 141 138 134 124 119 124 127 132 137 141 151 145 147 163 170 176 176 175 171 174 175 171 172 162 164 160 151 146 139 133 123 126 116 87 68 66 63 61 72 72 54 55 59 51 49 54 61 37 35 47 37 50 39 50 44 52 50 54 45 54 66 78 95 108 116 127 139 141 144 143 143 137 134 136 141 146 153 160 162 164 154 153 159 155 147 148 150 148 150 157 152 153 151 142 140 137 134 134 137 138 141 149 149 147 154 167 170 171 174 174 171 172 177 177 179 173 170 164 159 153 143 142 134 128 124 106 65 63 66 49 54 77 76 61 53 50 56 61 54 45 35 49 39 47 48 42 45 44 46 48 48 54 70 93 105 116 124 141 150 148 153 157 152 145 143 148 154 158 164 168 163 162 153 156 162 159 157 156 151 161 159 157 158 157 160 146 146 148 148 148 147 144 144 149 154 153 161 161 163 167 169 171 177 177 179 182 182 183 182 170 166 161 151 147 147 143 134 117 79 65 65 56 56 65 69 59 46 50 56 60 48 42 37 39 36 37 39 45 45 41 44 44 52 54 82 103 111 121 135 148 150 152 153 156 156 154 159 157 154 155 156 160 160 163 158 163 164 163 163 166 162 169 162 162 164 163 159 157 158 157 152 147 141 141 146 148 151 159 158 157 158 167 170 173 178 184 183 184 182 187 187 183 173 170 160 151 151 149 141 122 89 74 72 68 56 66 61 52 53 60 54 53 45 37 39 55 32 31 34 43 44 42 40 42 42 61 93 108 117 129 140 146 147 153 154 156 155 160 162 165 161 160 161 159 166 166 168 166 168 165 166 166 165 173 171 166 168 163 161 157 160 161 160 156 153 156 157 156 159 166 167 171 172 176 178 184 184 187 184 183 184 184 188 185 179 176 170 163 154 153 143 126 97 79 67 66 56 61 60 70 56 67 60 47 39 34 32 55 26 37 34 34 37 37 37 43 39 67 107 114 131 137 139 143 150 152 158 158 157 163 161 162 163 161 159 165 166 166 168 165 166 168 167 164 167 172 173 169 170 168 167 163 170 172 171 174 175 182 185 188 189 189 190 193 192 192 195 192 192 190 186 187 185 185 182 185 177 183 177 169 165 156 146 125 101 81 68 69 72 55 54 64 60 54 46 43 38 35 34 59 31 36 40 39 37 37 43 48 48 74 107 121 134 137 138 145 146 151 155 160 159 163 164 163 164 165 166 172 173 172 170 170 164 168 170 173 174 177 177 179 178 177 179 180 185 187 188 188 189 193 190 192 195 196 197 196 197 197 198 197 197 195 194 192 191 186 186 187 185 182 179 173 171 166 151 131 106 88 80 67 75 75 51 65 66 53 46 39 39 33 44 67 35 36 40 52 48 42 46 53 52 77 104 130 133 138 139 143 151 149 155 158 158 161 161 165 169 171 170 177 175 180 181 176 177 178 179 183 181 185 185 188 187 189 188 188 192 193 192 193 193 196 195 196 198 197 200 198 199 202 199 199 198 198 198 196 192 191 189 189 187 182 177 175 171 175 158 140 108 87 87 66 67 77 67 68 58 55 50 39 41 38 54 67 33 36 42 47 48 43 48 54 52 79 108 130 139 138 139 143 148 151 155 157 158 159 163 166 166 170 174 181 181 183 185 186 185 185 186 188 190 190 192 191 192 193 197 197 194 195 197 195 195 198 198 198 201 202 202 201 202 202 201 200 201 200 197 195 195 194 188 190 187 183 179 172 171 175 166 148 120 95 83 69 58 78 66 62 61 53 47 46 35 31 65 68 29 38 44 48 48 47 45 55 51 79 109 131 135 137 140 144 146 149 153 154 157 159 164 165 171 172 175 179 178 185 191 193 191 192 193 192 193 191 196 195 195 197 197 198 196 196 198 193 196 199 200 201 201 202 203 201 203 203 202 201 200 201 198 198 196 191 193 191 189 183 179 173 171 174 173 153 127 99 75 74 62 78 70 71 62 52 43 42 37 37 60 66 39 39 51 44 53 46 47 58 53 83 114 127 136 137 140 146 145 151 149 151 158 163 166 169 173 174 181 186 187 190 193 194 196 199 199 196 195 197 198 199 199 198 198 194 197 199 197 198 197 201 202 203 201 204 204 203 203 203 203 201 200 198 198 195 194 190 194 192 191 190 186 174 172 176 175 168 131 101 79 74 74 69 71 72 59 68 42 41 40 33 64 66 29 34 53 53 51 51 49 60 57 80 108 129 134 139 135 141 147 151 151 154 156 161 167 169 175 177 180 183 188 189 193 197 199 199 200 200 201 200 199 199 201 200 199 193 197 196 196 200 200 201 204 202 202 203 204 205 204 203 200 198 192 184 185 180 181 185 190 192 192 191 187 176 173 172 174 174 158 105 74 77 58 61 56 63 54 64 49 40 37 33 67 65 31 29 55 62 53 52 54 58 53 79 103 122 134 141 136 142 148 151 152 156 159 166 168 171 175 178 183 186 188 188 192 195 198 200 198 200 203 201 202 201 198 199 200 196 195 197 196 198 200 200 203 200 200 197 199 199 200 196 194 191 190 190 195 191 189 187 188 193 195 193 190 180 177 175 174 174 174 135 86 75 64 69 64 57 62 50 53 37 35 48 69 68 28 32 46 53 51 58 49 57 54 75 105 125 135 138 139 141 149 148 153 157 162 169 170 171 173 175 179 181 184 185 189 196 195 199 200 200 201 196 198 200 195 197 193 193 190 194 194 196 195 196 196 190 180 179 186 193 199 199 200 198 197 199 201 199 197 197 195 189 193 193 191 183 175 177 171 176 171 161 109 83 64 61 68 58 63 51 41 41 31 63 61 71 37 28 39 41 46 57 51 52 55 74 105 125 136 137 139 143 149 147 154 158 162 167 166 166 170 174 172 172 179 177 185 186 190 195 192 197 195 195 191 192 188 181 183 180 177 179 181 180 181 179 178 177 178 191 198 202 202 201 198 195 198 197 196 199 196 196 195 186 186 190 186 182 174 170 174 176 176 169 139 90 66 65 66 61 53 51 42 40 35 62 65 74 48 30 39 33 40 56 52 59 56 80 103 130 136 135 141 145 150 150 154 157 161 161 159 163 166 166 169 172 170 171 172 170 172 174 174 179 179 177 181 183 184 181 181 182 179 175 179 183 185 189 186 189 195 200 203 201 200 200 194 190 189 187 181 187 183 179 174 172 171 171 169 173 171 164 170 176 176 172 155 103 74 61 65 64 46 45 43 42 39 47 69 68 53 35 33 33 38 54 55 60 60 78 110 136 137 138 144 147 151 155 157 158 157 157 160 170 171 168 169 171 178 183 179 179 179 181 180 181 181 185 194 197 200 196 195 194 193 194 195 199 188 187 191 193 196 192 192 190 187 178 163 142 114 118 115 134 139 144 144 148 138 130 119 119 137 142 153 163 170 175 168 124 71 63 63 62 41 42 51 48 39 38 63 71 54 37 29 40 35 45 48 55 49 84 125 134 137 139 142 148 154 158 162 157 155 161 167 169 173 176 175 176 176 178 184 189 191 192 194 193 192 196 199 202 203 201 201 198 197 196 191 180 168 171 165 169 173 165 166 166 172 173 182 188 192 214 218 216 157 154 152 156 168 192 183 171 140 112 121 131 138 157 166 147 75 63 67 67 37 48 58 51 35 38 64 69 51 45 32 37 37 40 44 50 43 94 132 135 135 137 138 153 154 150 147 144 150 158 159 165 166 172 172 174 175 171 176 174 180 187 191 193 193 193 195 202 204 203 203 204 203 201 196 195 197 199 197 188 164 150 158 156 150 138 137 130 118 118 121 122 123 138 140 140 149 155 147 152 155 140 127 123 132 126 139 127 82 50 75 63 33 53 59 41 38 46 69 65 49 51 35 39 32 41 49 43 49 109 132 134 136 134 139 140 129 122 121 123 122 128 128 129 130 129 137 144 143 149 155 152 167 185 202 204 206 202 198 201 199 203 196 183 174 165 158 155 147 133 130 131 133 142 138 127 110 99 106 103 99 96 99 118 121 124 126 131 134 133 128 135 126 126 141 135 141 145 146 138 91 39 62 58 41 39 43 60 62 48 69 67 51 49 37 38 35 37 49 34 62 119 133 138 131 118 107 104 99 92 106 113 129 136 143 150 171 174 172 171 165 171 173 168 166 170 169 168 171 174 169 169 171 174 181 179 170 147 143 158 149 134 144 150 139 150 138 125 125 131 137 136 135 147 159 169 172 172 170 159 157 151 141 159 167 158 149 150 152 165 177 171 142 66 40 60 49 45 51 130 151 131 60 67 54 50 45 33 33 36 43 32 79 123 134 136 118 89 93 93 98 110 123 134 155 152 148 134 124 115 102 105 107 110 116 121 123 137 140 134 148 154 145 147 150 155 162 169 161 150 161 166 147 158 164 160 162 167 165 169 172 169 170 175 170 174 175 173 172 177 179 169 171 159 150 166 169 174 166 159 159 161 178 176 167 88 73 58 66 73 105 170 171 170 115 57 48 49 52 41 29 38 44 31 93 132 133 131 96 106 115 114 106 105 104 103 102 95 98 96 94 94 96 109 106 113 116 124 124 117 129 126 152 173 167 177 180 176 170 167 158 173 191 194 191 191 185 181 179 175 175 172 172 175 171 166 156 149 146 143 146 149 156 159 165 152 156 174 172 171 166 167 163 148 155 163 120 78 93 50 99 116 137 163 144 144 177 44 46 51 48 52 32 32 43 30 97 134 125 120 118 113 103 91 96 112 137 144 150 153 152 154 151 154 155 157 155 153 144 143 135 145 153 161 156 169 183 179 179 184 187 191 173 171 189 176 179 190 182 171 170 159 155 156 156 142 122 111 100 105 105 110 115 115 103 119 125 133 159 174 172 172 178 176 167 169 207 221 159 82 72 54 62 119 151 158 171 97 195 81 48 51 45 56 47 28 40 30 100 123 130 127 94 94 104 113 131 137 143 150 155 152 151 157 159 161 163 164 162 149 131 137 142 155 157 160 167 168 161 144 181 205 181 217 192 128 180 189 171 174 167 157 151 147 147 139 121 105 107 113 109 109 108 101 105 96 101 115 120 134 157 173 176 176 182 181 179 165 212 223 223 118 66 56 77 146 165 151 175 114 173 121 52 38 76 95 68 34 32 34 96 119 126 119 89 103 113 122 142 143 141 150 149 150 150 144 139 131 126 124 118 106 99 105 113 121 126 134 131 157 156 131 145 168 182 192 188 155 174 168 164 170 169 159 144 144 137 121 108 117 117 112 126 123 116 113 79 86 90 93 111 135 160 171 181 186 186 187 184 176 208 218 188 158 75 53 122 174 174 150 163 126 149 160 43 55 137 131 114 53 28 44 95 100 116 121 107 121 130 134 141 143 130 120 116 115 115 115 118 117 104 98 97 88 89 85 93 106 120 136 130 134 138 139 169 192 203 207 206 184 154 140 156 172 172 157 140 129 120 124 135 125 124 139 158 149 117 120 43 71 94 114 92 110 155 165 180 190 188 190 194 186 221 224 162 166 89 38 181 189 171 156 153 125 139 175 44 69 140 136 138 109 38 75 95 99 134 136 127 127 130 131 125 126 113 101 102 110 115 108 103 110 90 75 68 77 87 92 93 99 114 129 128 129 142 139 171 196 204 209 209 198 154 141 156 169 164 156 140 131 135 130 126 136 139 147 164 155 126 101 171 160 97 122 103 96 135 193 212 215 207 193 208 213 222 221 205 166 95 55 159 183 179 170 163 120 147 178 36 76 124 95 136 132 80 110 98 106 144 137 131 130 132 127 119 117 108 100 107 103 87 92 119 126 87 98 101 45 61 70 97 107 113 113 96 142 170 150 164 188 193 198 203 203 160 163 188 162 155 152 149 121 112 119 105 113 132 153 176 181 144 93 113 111 101 114 121 127 141 201 226 222 218 215 221 220 220 220 230 172 101 105 179 187 188 182 171 120 150 157 33 82 133 87 109 110 157 199 112 107 147 140 134 136 136 133 120 114 105 93 80 83 107 133 148 135 96 61 52 36 59 61 69 85 113 124 108 228 240 130 158 170 170 172 176 182 158 130 146 122 140 156 140 115 112 114 114 113 115 117 132 147 138 111 106 116 129 127 131 150 162 183 226 221 213 221 220 221 219 219 201 167 124 112 180 188 194 192 178 122 176 106 34 80 140 94 96 161 215 222 134 82 137 148 148 136 140 132 124 115 90 69 77 112 114 168 168 143 112 68 49 53 62 72 85 90 121 139 105 161 162 105 158 174 185 192 191 184 171 117 92 104 135 153 143 136 134 128 122 124 131 136 136 136 138 141 142 148 151 146 139 158 171 176 194 202 199 212 218 219 210 205 183 170 147 132 161 178 181 191 191 130 172 73 40 68 146 99 99 148 225 218 210 144 226 220 225 188 137 133 120 96 81 80 81 103 94 185 195 133 113 81 72 77 90 94 100 109 116 128 114 99 93 126 164 184 195 202 203 197 179 142 89 110 144 153 144 130 132 126 128 128 132 136 141 146 148 156 155 160 157 153 145 167 180 184 185 186 187 186 186 187 189 196 182 168 164 163 170 179 166 168 188 160 148 59 45 38 148 99 113 100 186 225 221 221 208 222 225 206 139 137 125 111 106 96 98 102 103 108 111 108 106 100 106 102 108 102 109 109 118 125 113 90 103 141 173 189 201 205 208 200 189 164 118 115 135 153 148 136 134 131 136 136 138 140 143 149 154 157 166 159 163 147 152 178 187 188 185 187 185 185 180 182 186 187 183 170 155 173 180 183 146 150 179 180 109 57 54 22 124 117 106 127 109 208 221 231 113 124 170 146 148 148 134 126 122 118 115 124 128 127 127 121 119 114 111 106 105 104 105 106 119 128 114 98 122 156 172 191 200 206 207 201 194 175 151 133 132 149 157 149 137 142 138 141 141 142 146 148 148 155 158 161 154 146 172 184 189 191 187 186 185 180 178 185 182 180 182 169 160 181 188 180 135 142 179 188 78 59 50 42 65 141 103 137 112 93 147 131 117 143 150 153 154 151 141 132 132 126 122 129 136 141 137 135 125 122 117 108 109 110 115 119 130 137 116 114 135 161 170 186 199 203 207 201 197 186 164 165 141 141 165 162 151 147 144 143 144 145 150 153 150 153 155 154 144 165 187 189 191 193 189 185 179 178 179 185 172 178 184 169 160 202 195 163 123 156 185 162 58 67 50 52 28 129 125 146 132 122 142 105 131 143 149 150 155 154 151 144 136 134 120 124 129 128 130 124 122 114 116 115 122 120 127 135 145 137 120 127 147 163 168 185 197 201 203 200 198 193 175 167 158 135 151 166 169 161 156 155 156 154 154 157 154 152 144 152 166 183 187 192 195 195 191 184 174 174 180 172 168 183 182 166 161 193 173 130 147 185 188 137 49 66 49 49 35 77 135 143 119 105 146 109 122 139 148 154 152 155 151 150 146 145 133 122 125 124 122 124 124 124 125 127 132 137 143 148 152 131 118 136 159 162 165 180 197 201 200 198 197 195 186 179 182 175 147 142 157 155 153 154 150 147 143 146 147 152 162 175 189 187 193 193 196 194 191 186 179 181 178 159 173 188 178 164 171 153 135 158 181 186 186 95 62 69 53 50 45 45 131 135 110 70 188 170 114 132 151 150 157 156 153 151 149 150 144 132 131 129 137 137 137 136 138 140 149 153 153 160 147 118 124 148 165 161 167 182 196 197 199 197 197 194 188 178 182 192 186 159 145 165 171 166 168 168 168 171 173 183 186 189 194 194 194 197 197 192 190 186 185 187 162 172 188 184 177 164 168 167 178 191 185 178 174 63 62 72 53 53 46 32 114 139 105 50 162 217 125 129 146 152 159 161 156 152 151 151 150 142 137 136 144 144 143 147 146 148 154 156 155 154 126 121 134 152 166 161 161 178 193 199 199 197 196 192 190 181 184 193 198 190 167 159 177 188 188 191 191 191 190 192 190 194 199 197 198 197 197 197 196 195 192 176 177 188 188 181 174 165 156 164 192 188 166 193 119 57 72 69 51 49 55 30 89 141 108 66 82 140 140 132 142 148 159 164 159 156 158 156 157 155 151 146 140 134 143 144 151 149 150 150 148 127 128 141 143 161 164 163 161 178 195 202 199 195 196 193 190 184 182 193 199 199 193 186 162 158 174 192 199 195 195 195 194 199 198 195 200 199 194 187 192 194 187 187 188 191 188 179 172 163 163 181 194 179 176 180 72 65 68 65 48 50 52 41 52 149 132 92 59 112 135 139 138 144 155 162 160 158 161 163 162 167 168 165 150 144 143 153 156 152 154 149 126 136 146 140 147 159 169 160 167 180 198 201 202 197 193 193 187 181 182 192 194 201 204 199 196 184 170 157 158 162 161 161 158 162 162 163 168 171 170 176 188 192 188 188 191 190 186 178 169 162 181 204 196 183 196 121 57 68 69 64 51 47 52 49 30 113 151 130 77 110 123 139 144 147 159 161 164 160 161 163 166 171 172 171 160 158 152 161 164 164 144 124 144 158 153 141 148 160 161 164 170 180 196 203 203 200 196 192 185 179 174 189 197 198 201 202 200 198 197 198 195 198 197 195 196 199 198 200 197 196 187 179 184 189 187 190 193 191 188 176 167 160 191 202 199 196 174 69 63 67 64 68 48 50 50 50 45 50 135 140 130 111 134 124 176 198 172 165 163 170 172 168 168 171 176 173 170 160 154 149 142 139 143 154 164 161 151 144 148 153 158 167 174 184 193 200 204 201 199 192 182 173 165 177 194 197 199 199 199 197 200 200 199 201 204 204 204 206 203 201 201 197 194 188 190 190 190 196 193 190 187 175 169 161 189 198 198 207 123 55 70 65 64 65 50 50 51 51 51 35 98 123 139 113 126 129 138 159 169 179 182 181 177 171 169 168 165 158 150 144 138 143 145 153 161 166 168 161 154 144 145 149 158 169 178 184 197 200 202 202 198 193 184 175 161 170 187 196 200 196 194 194 197 198 200 202 203 205 204 205 205 203 202 199 199 194 192 192 191 194 192 189 186 171 171 163 191 197 197 210 108 48 67 68 66 65 53 47 50 54 47 47 47 115 138 132 124 136 145 150 153 150 156 156 155 156 160 162 162 167 169 174 181 180 173 168 168 167 163 160 153 140 142 151 162 167 175 188 199 201 202 202 200 195 186 182 172 159 176 193 193 191 186 191 193 199 198 202 200 199 202 202 203 202 202 198 198 196 195 193 191 194 190 184 181 167 173 162 192 196 198 200 79 57 67 66 68 64 52 51 48 50 50 52 40 74 140 148 122 126 144 148 152 156 157 157 161 166 169 175 174 182 181 184 187 190 185 174 168 161 161 157 144 136 147 160 165 165 177 191 201 203 203 203 198 195 191 188 189 176 169 179 186 185 182 187 191 194 194 199 197 199 199 201 201 202 199 197 194 195 196 195 191 194 189 184 171 170 174 167 194 192 200 151 54 63 64 63 73 64 54 49 48 49 52 50 49 39 136 145 127 124 140 149 152 158 158 164 162 164 174 178 178 179 180 183 188 187 190 185 170 158 161 155 144 150 158 169 165 165 180 194 204 204 204 204 198 195 189 190 197 197 186 180 187 183 176 177 180 187 189 197 198 199 198 199 200 202 198 197 193 194 192 193 192 192 189 184 167 175 173 164 194 185 175 79 60 64 67 59 68 66 48 50 50 49 48 50 51 35 119 139 133 120 142 152 150 156 158 165 167 166 169 174 172 174 178 185 185 187 189 189 185 165 157 153 151 159 158 155 155 161 181 194 202 206 208 200 191 186 186 192 194 196 185 177 181 184 175 174 176 179 183 192 195 195 199 200 198 199 196 196 194 193 190 190 188 190 189 177 169 174 176 130 154 141 90 55 64 61 68 66 60 66 45 50 51 50 48 53 49 37 74 139 134 119 139 143 147 152 159 161 166 164 166 169 175 173 178 183 183 182 186 181 172 160 154 146 148 156 155 148 144 144 174 191 197 200 195 184 179 178 176 178 179 178 173 167 179 185 185 179 175 177 180 182 189 193 194 197 197 196 196 193 194 194 192 192 185 189 189 170 172 174 181 74 58 65 60 64 64 63 62 65 62 66 51 48 52 46 50 45 49 50 34 116 142 119 133 142 145 146 157 160 164 162 164 172 173 173 173 179 183 181 180 170 157 150 150 143 133 150 159 142 129 145 166 184 192 193 191 187 171 134 133 153 159 154 161 172 188 194 191 184 176 180 179 181 184 189 192 195 191 192 195 191 191 191 189 190 185 186 190 171 176 177 175 69 51 63 59 64 66 66 70 59 65 68 55 48 49 49 50 45 52 49 46 49 133 120 128 143 142 142 151 160 162 160 163 169 169 174 180 181 183 181 167 156 146 148 151 146 133 131 142 123 103 124 164 180 185 188 194 190 155 132 147 154 141 134 155 171 191 195 194 190 183 181 181 182 185 188 192 191 187 183 194 193 192 189 187 190 182 186 184 172 180 175 167 58 54 63 61 64 63 64 65 59 66 67 47 47 50 45 49 50 51 52 48 46 50 109 131 137 141 140 147 154 160 161 167 170 172 181 178 182 175 165 153 148 147 148 152 153 152 129 111 113 107 109 137 167 179 182 184 179 162 157 146 135 124 142 149 160 178 191 192 191 189 186 183 182 185 189 194 196 193 192 196 193 190 188 183 186 183 185 179 173 183 177 155 50 56 64 61 63 65 60 61 66 59 67 46 52 51 50 50 49 48 52 47 52 49 49 133 135 141 141 145 153 157 164 164 169 177 179 179 174 160 148 150 149 147 153 150 157 161 141 117 107 107 113 121 145 170 176 176 174 159 138 118 118 121 127 140 148 162 178 185 189 190 189 183 182 183 188 191 193 198 195 197 192 192 190 185 184 184 184 177 179 181 180 139 50 59 62 64 58 65 68 61 67 64 65 49 53 50 49 50 53 46 51 50 48 52 35 127 133 139 140 143 146 152 160 169 173 174 178 171 163 151 149 143 150 151 153 156 159 150 133 105 89 102 106 116 140 159 166 167 160 135 122 115 109 111 116 124 134 142 158 173 182 182 186 183 184 180 187 190 191 196 197 196 193 193 188 184 185 186 182 179 180 183 185 110 46 62 63 59 62 68 66 62 61 67 64 53 53 47 51 49 50 47 48 50 49 52 23 114 136 138 137 142 146 152 156 166 173 173 170 160 149 145 146 145 147 152 150 148 140 134 118 101 92 98 89 101 120 135 144 137 132 111 105 111 102 101 105 112 112 124 138 156 166 166 167 177 179 175 172 182 189 189 192 193 192 190 190 185 189 183 183 182 178 181 179 104 53 65 63 61 64 65 68 60 68 60 62 51 52 50 51 47 51 48 54 47 49 50 27 95 135 137 140 140 146 148 152 156 163 167 161 148 138 139 145 138 137 137 135 126 119 115 101 93 84 83 85 92 106 116 127 122 110 93 95 103 102 97 97 100 98 105 129 144 147 147 144 157 159 153 164 169 178 188 189 191 190 190 189 189 189 184 182 184 179 176 177 91 52 61 61 61 64 64 66 64 61 60 66 57 52 48 54 49 48 47 49 46 48 50 35 71 135 141 140 142 146 146 145 151 156 158 151 132 129 135 136 127 121 121 117 108 107 94 90 82 81 83 92 106 107 117 126 117 99 94 91 94 92 93 89 94 86 94 104 124 134 124 122 141 140 130 127 151 169 182 188 186 186 185 185 187 188 188 187 183 177 174 172 78 52 60 63 63 62 67 65 62 64 60 63 55 52 49 51 50 45 49 46 46 51 47 41 47 134 141 142 141 144 146 140 143 152 152 141 120 117 121 123 110 108 110 109 94 92 90 82 85 87 93 96 93 92 113 129 121 95 85 92 94 92 90 85 85 88 91 91 99 116 114 109 119 131 120 118 125 135 171 185 185 185 191 192 184 191 190 187 180 176 164 170 67 54 60 61 64 64 62 67 63 61 60 57 50 54 50 49 52 47 47 49 50 47 48 50 25 133 137 139 141 144 146 138 135 137 137 129 105 113 116 110 104 102 101 99 86 82 80 75 83 79 86 95 96 103 118 133 131 101 86 97 96 87 82 89 92 90 89 92 91 100 108 108 105 120 126 121 122 116 132 165 179 178 178 183 174 175 185 186 183 172 160 156 63 49 66 60 66 60 63 65 58 63 60 59 48 56 50 49 47 46 50 48 47 45 45 50 18 118 139 140 142 141 139 135 131 126 132 123 111 112 115 108 103 96 96 89 83 83 87 88 87 80 86 86 92 109 124 135 136 119 106 101 106 95 91 100 108 103 109 103 101 103 108 108 102 111 129 130 116 124 124 136 158 169 170 182 179 185 190 185 177 173 164 155 57 57 60 61 62 62 64 63 60 66 56 62 56 51 48 47 47 47 45 47 42 48 43 47 26 94 136 138 142 135 137 134 130 130 133 119 110 112 117 110 106 95 96 94 100 103 112 112 106 104 108 114 122 130 138 150 149 148 143 140 136 118 116 127 131 130 138 127 121 110 106 105 107 103 115 130 119 123 129 135 144 147 156 171 171 186 193 183 174 171 166 144 51 60 64 62 61 66 64 59 64 64 58 62 52 51 53 48 48 52 46 46 45 45 47 41 36 55 136 140 135 132 131 134 132 126 119 116 104 111 107 107 106 98 91 98 120 123 125 127 125 127 137 140 143 146 152 156 156 155 149 152 154 150 145 147 145 146 142 131 117 101 90 102 116 115 108 121 124 130 128 140 142 149 148 160 166 181 187 177 173 168 162 132 44 62 66 62 64 67 59 62 59 60 60 58 53 53 52 52 47 49 48 45 48 46 45 42 42 33 130 139 139 133 131 131 127 123 115 114 107 100 107 104 114 108 93 72 89 111 120 125 131 132 135 133 136 141 143 146 148 147 148 151 156 160 152 145 138 127 122 116 116 111 110 121 123 132 121 120 129 135 128 145 153 163 165 155 176 175 176 175 172 160 168 110 48 62 63 66 62 66 62 62 63 60 60 65 53 57 50 48 46 49 45 46 45 46 43 42 46 19 122 135 136 139 136 126 124 125 113 113 114 113 109 114 122 126 127 111 90 90 96 106 112 119 129 132 133 143 144 149 154 147 147 138 125 126 114 119 124 123 123 117 124 138 155 151 140 156 147 127 137 140 139 153 149 152 155 164 185 182 180 178 169 165 159 88 53 61 62 63 66 59 66 63 64 59 60 56 57 55 48 48 47 44 49 44 47 40 47 40 48 18 77 136 137 135 141 133 123 127 118 129 137 136 124 122 133 137 145 140 130 112 103 99 97 92 91 95 103 99 112 108 110 103 104 113 114 123 131 132 136 132 130 134 153 173 177 174 164 164 151 141 145 146 160 161 157 152 156 178 186 183 179 177 164 165 155 63 55 61 61 63 62 61 64 60 59 59 59 55 54 53 51 54 49 47 42 47 42 44 40 44 38 41 41 132 135 139 132 131 123 126 123 130 136 136 132 129 133 144 147 144 144 143 130 113 110 108 106 110 112 114 112 114 113 115 119 123 130 137 147 148 139 145 157 170 181 184 181 178 175 183 170 162 160 160 164 161 170 164 165 176 182 184 178 174 161 163 120 59 60 62 62 59 61 62 61 58 60 55 58 58 50 52 50 50 52 45 46 43 44 42 44 43 44 43 21 113 136 141 139 133 123 130 127 131 134 133 141 129 128 138 145 147 147 149 150 140 133 125 120 125 128 134 128 128 131 129 130 137 143 151 159 156 163 172 180 186 186 182 182 181 178 185 174 170 176 169 174 172 170 174 173 181 184 183 176 165 161 166 93 51 59 62 60 60 55 62 60 54 61 54 55 60 50 51 53 50 46 46 43 44 42 41 44 38 49 37 39 67 131 141 136 125 126 130 129 132 129 123 138 120 116 128 140 146 144 147 149 147 147 149 149 145 140 142 139 137 142 139 142 145 152 165 174 179 186 184 180 182 183 184 185 185 180 179 167 153 173 179 179 174 178 180 181 184 180 180 171 159 160 142 66 62 61 60 63 61 59 62 56 58 56 57 56 59 53 53 49 49 45 46 43 42 42 40 41 42 42 41 41 30 121 137 136 124 129 127 126 124 123 124 128 117 113 124 135 142 144 146 146 145 144 144 150 156 157 153 156 152 151 149 151 152 165 169 173 178 175 176 167 176 182 182 180 182 179 166 158 149 157 176 179 172 179 183 183 185 179 175 170 157 161 97 54 59 60 61 58 60 56 60 55 55 58 56 52 58 51 53 47 48 47 43 43 39 42 43 37 42 42 41 47 26 74 138 136 134 133 127 119 126 125 122 124 110 108 118 128 135 141 146 150 146 141 137 126 134 129 126 126 121 118 117 114 113 130 139 142 148 148 157 165 179 181 181 181 180 162 154 142 145 141 167 167 170 183 185 185 185 179 171 167 163 131 57 56 60 54 61 59 56 63 55 57 53 60 53 53 57 49 52 45 51 50 46 43 44 40 41 41 38 39 46 40 40 29 117 140 135 138 125 121 132 127 114 116 107 96 111 120 129 136 142 144 144 142 132 123 115 110 101 93 89 87 93 85 83 94 106 110 125 135 156 169 173 175 173 177 171 155 155 139 127 146 156 168 175 186 185 183 183 178 170 154 161 97 49 59 58 59 60 54 56 60 54 55 53 58 55 56 55 53 44 53 43 47 44 42 45 40 38 40 39 42 47 39 38 34 55 136 137 138 125 132 121 119 119 106 102 104 112 117 131 136 136 136 142 138 124 118 111 103 89 81 74 79 79 68 72 80 89 97 129 141 145 161 161 162 164 168 164 143 147 141 122 125 155 161 174 186 182 180 177 177 172 142 166 94 49 58 57 56 54 56 57 54 53 56 57 53 55 53 57 53 46 49 46 45 42 42 42 40 41 41 39 43 37 43 41 44 25 93 135 137 132 129 117 107 109 106 104 101 105 119 132 137 134 133 134 133 119 114 100 90 80 78 74 74 68 64 67 74 88 94 124 136 132 153 159 158 157 162 160 137 129 128 129 121 155 161 171 184 180 174 170 169 157 143 186 91 46 60 54 54 56 57 51 56 52 52 54 56 47 54 51 52 49 47 48 45 45 46 41 39 44 41 35 43 39 37 43 39 39 31 110 127 129 124 109 101 107 98 104 100 101 122 123 129 132 128 123 117 110 101 90 88 79 78 76 74 62 67 77 77 89 87 116 131 131 144 152 161 157 155 147 141 135 122 132 116 131 157 167 182 179 168 174 152 154 167 195 86 50 57 56 57 56 53 52 56 51 52 54 52 54 51 51 50 51 47 42 47 47 46 44 41 41 43 39 44 37 38 44 42 42 23 82 127 126 128 105 86 105 97 95 102 107 115 111 119 126 133 124 115 102 93 87 90 85 85 79 74 72 83 86 90 88 87 108 129 141 148 153 158 161 154 138 127 130 117 123 119 112 150 159 170 172 167 158 157 171 177 197 85 47 51 54 54 55 53 54 51 50 54 51 50 51 51 52 46 50 49 47 45 48 40 43 44 40 45 37 46 38 41 41 42 44 25 91 125 116 116 98 81 90 86 87 94 97 95 99 109 116 121 121 117 99 93 93 89 93 81 77 90 93 100 100 99 95 89 110 127 142 148 150 147 138 147 136 119 119 107 114 114 106 149 157 156 161 153 165 175 178 181 195 83 47 54 53 54 58 52 54 53 48 54 54 48 50 47 55 44 47 47 46 42 46 42 46 43 43 39 40 40 42 41 40 41 43 23 99 133 113 107 95 84 86 74 77 78 81 84 86 99 114 111 110 102 94 101 100 102 101 96 95 105 113 109 112 114 98 107 115 120 132 132 143 154 140 127 124 114 116 105 97 92 105 132 136 152 157 163 180 178 181 181 197 91 38 56 51 54 52 50 57 49 52 52 46 52 47 51 52 45 48 44 44 45 41 42 47 42 45 37 45 39 40 41 40 45 41 30 112 124 115 109 85 74 77 67 62 75 71 72 78 87 94 97 101 108 102 99 106 103 101 105 103 109 114 116 120 112 105 113 127 131 132 131 136 158 146 123 111 105 109 99 87 92 93 108 120 138 165 169 175 184 186 185 196 86 54 53 58 50 55 54 55 54 51 50 52 50 47 50 48 44 48 45 42 46 45 41 46 44 41 40 39 41 39 41 40 40 43 71 120 118 116 107 83 81 71 65 67 66 70 67 75 83 88 89 101 98 98 103 108 95 104 105 105 116 124 121 121 112 112 121 134 139 125 122 128 132 131 123 106 97 93 95 93 92 88 95 113 143 157 175 185 190 186 182 200 88 47 54 53 54 52 51 52 54 53 51 49 51 50 49 53 46 49 47 45 46 46 43 47 42 41 41 40 40 34 53 36 53 93 96 120 116 103 92 85 80 66 65 65 66 66 66 71 83 74 86 95 89 93 99 101 101 107 109 111 120 123 115 117 112 113 124 135 137 133 129 119 113 115 108 93 89 84 85 92 88 89 85 123 141 147 178 186 188 188 181 199 94 41 55 48 50 53 49 53 54 48 55 50 50 51 47 52 48 48 44 49 47 45 47 45 44 40 39 42 42 33 71 84 103 126 72 115 111 93 78 81 81 70 63 63 64 61 73 81 76 69 84 88 80 90 94 90 103 105 114 111 111 109 109 110 106 117 119 123 129 130 124 111 104 103 99 84 79 75 75 91 83 94 89 119 153 158 170 183 186 186 179 198 104 34 48 46 50 52 48 48 56 50 52 49 49 45 51 46 50 45 45 43 46 46 42 48 45 54 58 74 83 98 117 127 138 124 70 117 98 91 81 84 84 71 70 66 57 59 68 72 70 76 78 79 76 90 90 93 98 97 105 108 107 101 104 103 100 105 110 112 122 112 114 98 92 90 91 84 67 69 71 85 91 113 96 118 148 156 151 165 175 170 168 198 106 28 47 49 47 45 46 50 48 51 48 53 48 46 50 53 