P2
92
112
255
44 50 46 48 50 50 49 50 48 47 52 45 48 49 49 39 31 29 22 35 24 128 122 89 72 88 85 116 72 53 60 83 65 67 100 86 79 82 101 93 90 109 111 108 125 120 109 91 107 83 95 78 70 68 59 57 64 62 65 83 73 58 63 64 60 53 45 58 63 51 51 50 44 32 50 39 45 48 52 48 41 43 40 43 41 42 44 43 40 44 41 44 51 46 48 50 47 48 52 49 49 50 51 51 45 50 49 25 32 25 23 19 77 123 96 92 83 70 89 93 63 45 78 77 82 99 96 85 95 113 104 104 103 109 105 110 121 121 97 100 86 82 87 88 83 78 61 68 78 72 73 79 68 77 79 73 65 49 52 76 61 36 61 31 43 38 46 42 46 38 58 49 44 45 43 39 43 40 46 40 43 39 41 43 48 46 48 53 48 49 49 51 49 51 50 50 47 49 36 24 31 21 25 29 112 117 94 101 76 81 88 91 61 79 85 100 116 106 99 118 131 137 128 135 129 117 122 128 129 126 125 132 111 122 114 101 94 72 63 78 74 75 75 81 81 83 79 74 69 73 67 67 69 58 54 30 47 37 53 47 43 36 63 55 37 44 46 38 43 40 41 40 45 38 37 42 46 51 48 51 48 47 51 50 51 54 51 48 46 44 23 26 29 28 17 72 124 108 113 97 77 87 84 95 79 108 124 136 140 116 136 157 155 173 149 167 157 151 149 149 155 152 152 145 145 151 122 121 107 82 88 84 88 93 88 95 95 88 86 82 97 81 70 72 66 68 51 45 52 47 47 49 44 43 58 64 38 39 40 42 41 38 42 41 40 39 37 41 46 53 48 51 48 49 55 45 53 53 49 50 40 35 28 33 23 28 30 98 118 115 116 83 84 95 101 105 125 148 168 148 160 155 172 174 178 184 176 181 184 175 175 177 175 155 149 165 148 145 130 128 110 106 101 104 114 109 104 106 109 98 91 104 95 85 78 79 70 74 58 53 49 57 41 55 43 56 67 67 42 37 38 44 36 44 37 42 35 44 38 41 55 45 50 51 49 50 52 49 53 49 49 48 26 39 39 27 30 23 52 104 103 111 98 91 103 131 144 147 166 175 171 170 179 183 185 185 187 189 186 188 186 185 187 194 182 173 182 170 161 158 148 125 118 120 120 142 147 130 130 129 121 116 112 120 104 101 92 88 85 85 71 68 49 49 49 61 44 56 69 69 46 44 32 37 40 38 39 36 44 39 41 35 50 45 53 50 44 50 49 54 51 53 51 38 38 34 29 31 37 22 74 99 98 100 96 122 140 164 169 171 174 186 171 183 184 185 186 186 188 186 188 189 188 189 186 190 186 186 188 182 179 165 169 131 142 144 153 170 161 156 159 155 154 154 144 141 134 120 108 96 95 97 80 83 53 70 48 64 43 51 68 75 52 51 35 30 35 38 38 35 40 38 36 37 45 48 54 50 48 47 51 50 53 51 40 49 45 29 30 42 46 39 98 97 85 113 120 156 166 176 171 178 175 182 179 186 186 188 188 191 188 191 194 195 194 191 188 193 189 192 189 192 183 176 179 164 172 166 175 180 175 169 172 163 167 165 162 154 151 133 116 109 106 101 86 102 69 78 61 59 47 47 65 70 57 58 44 25 36 37 36 36 34 40 37 37 47 46 53 49 51 50 50 50 51 45 34 71 39 24 42 68 44 79 95 85 91 138 154 170 174 173 170 173 180 183 183 187 190 191 189 196 192 196 196 197 193 195 193 196 195 193 191 193 188 190 184 185 184 181 186 186 182 179 179 175 169 168 167 162 157 146 139 129 117 102 92 106 93 83 75 61 44 41 53 59 54 66 56 23 32 35 34 33 38 37 39 36 51 49 49 47 52 51 47 52 43 47 28 82 32 17 76 76 65 98 91 82 135 158 165 171 171 168 171 173 184 183 189 187 193 193 193 195 197 193 195 198 194 196 196 196 196 198 194 193 193 183 189 188 188 187 189 190 183 183 179 178 174 170 168 164 164 159 153 149 132 118 107 113 105 83 84 85 69 35 40 57 54 69 62 29 29 33 33 33 34 39 34 37 48 48 49 47 48 50 51 50 45 45 39 77 27 32 92 77 94 107 86 120 160 162 167 170 168 170 177 182 184 185 187 190 191 192 195 195 198 192 194 198 199 196 200 199 197 200 197 194 194 187 189 193 190 190 191 192 186 183 183 175 176 172 167 162 164 163 161 153 147 135 130 123 112 100 99 102 90 66 39 50 51 63 68 36 30 31 33 35 30 38 32 33 47 51 46 46 53 49 51 51 45 40 45 66 36 64 95 86 110 110 110 150 163 163 169 171 176 179 184 184 186 183 190 192 191 194 194 194 197 194 196 200 200 200 200 200 202 201 202 203 197 187 195 196 189 195 192 190 191 184 189 176 175 176 167 160 164 167 158 156 152 145 137 132 121 117 114 111 98 91 73 37 44 61 70 38 34 35 32 33 31 33 34 35 53 48 48 46 51 49 54 52 34 42 50 50 61 93 86 109 118 98 149 154 165 167 174 173 180 183 187 186 190 186 192 194 192 195 193 197 196 194 194 196 197 198 198 199 194 197 201 198 194 187 191 197 192 196 191 189 187 186 185 179 177 174 172 167 164 165 160 156 155 147 143 137 132 125 123 116 103 101 100 57 24 59 60 46 34 35 32 30 30 30 33 33 47 49 50 47 48 51 54 48 29 43 46 45 78 82 100 120 109 132 157 154 165 167 174 176 184 189 189 191 193 188 192 195 192 192 191 192 193 190 193 193 193 199 197 197 194 197 198 194 191 184 191 188 192 191 189 186 187 185 183 176 176 166 166 168 161 161 158 155 158 152 144 143 139 133 124 124 107 106 104 88 31 40 59 57 36 35 42 32 31 28 33 31 49 51 52 49 48 53 52 40 25 46 48 60 74 88 122 119 132 158 152 160 160 175 180 186 193 191 191 191 192 191 188 193 191 188 191 192 190 191 191 188 194 194 195 192 195 195 194 200 189 189 191 188 191 187 192 186 186 184 183 178 171 170 165 170 158 157 155 153 155 151 148 142 141 137 130 126 116 103 107 94 63 27 47 60 46 36 45 31 29 31 29 33 55 47 51 54 47 57 48 38 33 45 53 80 83 112 126 130 158 158 154 158 161 178 184 189 195 187 192 191 192 190 184 192 189 190 190 195 190 192 191 187 195 191 194 191 193 190 191 196 193 192 190 187 187 189 193 185 188 188 186 184 174 171 168 168 159 157 152 154 152 150 144 143 145 136 135 128 128 109 106 95 92 31 35 60 61 48 40 40 33 31 27 32 50 51 52 46 50 51 55 37 30 55 57 91 97 115 130 155 156 158 157 158 169 181 183 190 193 186 193 189 192 189 186 193 190 192 195 193 193 195 194 191 198 192 195 196 197 190 190 195 192 194 190 192 183 192 190 193 182 186 189 184 179 169 174 168 161 157 156 152 148 150 144 144 140 138 135 127 133 119 105 99 92 70 20 43 65 68 41 44 24 32 22 33 50 47 55 49 51 51 51 28 41 70 54 92 105 123 140 162 153 154 166 158 182 181 187 191 193 195 191 191 189 191 191 189 194 188 193 191 190 193 193 189 194 188 188 189 196 187 189 195 195 192 191 191 184 187 188 193 187 185 190 180 173 172 165 171 161 160 158 152 151 143 141 145 139 140 138 132 128 127 106 100 95 91 33 26 66 70 59 40 31 30 33 27 50 49 51 51 48 54 45 24 46 95 80 75 94 140 146 161 147 161 162 170 183 185 189 193 193 196 195 197 193 191 195 183 189 191 193 193 194 196 194 192 194 189 191 191 192 188 187 188 192 191 191 188 186 186 182 184 185 186 185 175 180 177 168 168 161 158 153 149 148 147 147 142 141 139 141 136 127 129 115 101 94 96 69 25 49 76 70 46 26 32 26 34 49 46 53 51 49 53 41 30 56 101 106 80 123 144 151 159 148 163 162 179 183 186 192 195 194 198 193 198 194 194 192 188 194 197 195 198 200 196 194 198 191 191 196 194 193 187 188 188 191 191 191 189 190 192 187 181 184 186 181 182 177 178 170 170 169 162 156 150 150 142 141 144 147 140 139 136 136 127 120 105 96 96 80 47 28 63 75 52 33 29 29 28 45 52 50 53 52 51 60 32 66 93 121 105 131 146 158 144 163 149 169 178 186 191 196 194 194 198 195 192 192 196 195 194 198 201 199 201 202 202 196 199 201 193 197 192 193 191 182 191 193 189 186 190 190 190 195 184 187 182 184 184 184 181 177 179 173 170 163 158 155 145 139 136 141 144 146 141 134 129 123 113 97 94 87 54 31 41 78 66 42 30 26 27 49 53 49 54 49 57 50 36 93 108 105 117 142 162 149 145 170 151 170 182 184 191 194 193 198 196 196 192 196 195 198 199 197 201 200 201 201 202 200 203 202 202 199 201 195 194 185 190 195 191 180 187 191 193 195 189 190 190 190 190 185 189 179 176 176 172 165 165 164 145 146 135 131 143 146 148 132 136 125 115 102 94 96 80 44 30 64 79 50 31 25 26 53 49 52 55 49 54 51 33 113 107 90 125 154 155 150 144 166 161 172 183 183 192 196 194 200 194 193 196 196 198 199 198 196 197 200 203 203 200 206 199 200 204 199 205 200 200 190 194 200 194 186 184 192 199 201 195 194 191 196 194 192 186 183 180 181 170 167 169 163 151 152 152 135 141 140 143 143 133 125 114 112 91 97 83 58 25 57 82 59 31 27 30 55 46 49 52 51 53 41 63 121 90 104 116 153 144 151 144 170 158 176 185 187 193 195 198 196 194 194 196 193 193 189 196 196 197 201 204 208 202 208 206 204 204 203 204 203 200 198 196 202 197 188 188 192 198 202 201 200 200 199 193 194 191 189 180 175 176 170 163 160 151 148 149 151 137 141 143 141 136 122 113 110 94 91 89 88 27 49 75 65 30 29 28 49 49 51 51 47 46 48 77 117 73 106 108 149 140 151 143 170 161 179 186 187 194 196 194 197 195 194 186 181 186 190 194 197 196 201 201 207 206 206 204 206 206 207 206 204 200 202 194 207 202 193 190 193 196 202 204 205 201 206 193 197 191 186 182 171 179 175 164 158 157 145 137 146 140 140 139 136 130 122 115 111 91 96 85 113 57 29 75 65 33 29 28 47 54 49 50 50 40 49 100 101 67 95 109 144 151 155 139 162 166 179 184 190 189 193 196 196 191 182 180 179 179 191 191 192 191 197 195 197 189 189 193 199 203 207 207 203 198 202 195 210 205 196 196 193 193 201 211 206 198 203 193 197 182 175 171 171 176 171 170 165 163 153 140 138 136 130 141 136 127 123 117 110 96 92 90 101 63 23 81 71 28 29 26 49 52 52 51 53 36 61 110 94 65 96 112 145 152 150 154 161 166 178 184 186 187 190 197 183 174 171 176 180 183 185 187 185 185 178 163 162 163 167 166 181 189 195 207 200 200 202 194 209 203 200 201 194 187 200 210 204 200 200 196 183 171 159 155 147 144 148 157 162 151 153 145 140 137 125 128 134 124 124 118 108 99 93 92 88 51 30 73 65 31 24 28 51 51 51 49 50 43 43 102 91 70 115 113 151 152 148 156 162 167 174 186 184 188 185 184 173 172 179 179 187 185 182 168 168 152 138 133 131 148 160 160 164 180 179 200 202 199 199 193 202 194 205 203 191 182 195 207 201 196 190 193 167 157 154 137 130 119 127 133 137 140 140 141 137 136 132 131 125 124 118 117 107 99 91 102 76 57 35 56 70 32 26 24 54 49 47 53 51 51 35 78 84 81 114 107 149 147 154 152 163 169 172 180 189 185 178 178 177 178 183 184 178 177 171 152 137 127 115 116 121 136 145 154 159 173 178 189 201 198 194 196 197 191 208 205 181 174 184 203 196 189 175 176 151 141 139 120 115 113 112 108 109 117 129 141 140 133 137 137 122 117 115 115 105 100 93 106 77 59 33 43 83 35 23 26 55 49 50 51 53 51 40 73 84 95 107 104 154 146 157 148 161 170 170 174 189 172 175 187 179 179 183 173 157 157 158 147 123 120 116 110 115 128 135 139 152 157 180 170 196 189 193 194 197 192 207 204 179 169 182 198 188 177 159 147 131 125 110 104 102 94 93 96 97 107 118 133 131 139 139 129 134 120 109 112 105 103 95 96 84 61 36 40 73 34 27 27 52 51 47 54 51 49 47 78 82 106 116 106 143 149 158 151 158 173 161 177 172 171 184 184 180 173 163 156 150 160 163 164 139 138 137 120 120 115 114 121 134 140 165 158 182 187 193 192 197 194 208 204 180 174 184 197 183 167 144 127 118 107 102 93 85 84 79 89 96 107 110 122 133 132 124 128 127 123 111 110 104 100 99 83 78 65 39 42 62 28 28 29 54 49 53 52 48 50 58 77 87 110 122 119 127 150 159 157 158 169 163 178 162 177 181 174 174 174 178 178 177 176 182 189 192 204 205 205 207 200 168 158 154 143 142 137 154 161 165 169 182 184 195 193 177 169 181 188 181 149 121 104 101 98 92 77 89 96 112 124 133 137 124 128 137 135 124 117 130 130 107 104 103 100 100 83 64 63 42 44 58 35 26 26 55 50 52 54 54 40 75 83 73 119 133 120 143 151 156 163 158 163 165 171 155 172 154 153 153 163 172 176 181 184 197 193 194 189 187 181 180 175 152 141 138 131 127 131 136 137 141 139 150 148 149 152 138 138 137 141 136 124 108 101 101 99 95 88 87 101 125 151 160 155 141 142 145 142 140 121 120 128 118 107 98 97 100 82 57 57 37 49 52 54 24 27 53 50 53 52 50 48 61 99 61 120 121 128 121 165 158 160 160 166 169 167 145 140 149 148 157 164 180 193 181 172 172 167 170 157 151 139 130 127 126 141 146 136 131 137 135 117 99 88 94 102 108 105 103 102 102 102 101 98 96 95 98 102 104 98 94 90 99 101 105 107 102 105 108 115 124 114 119 116 119 106 92 99 100 83 60 51 38 43 55 52 35 25 51 51 59 47 55 47 52 113 48 108 117 101 138 160 154 165 157 171 172 137 147 156 156 150 153 171 190 171 159 168 172 188 205 173 160 154 152 142 126 129 138 133 134 151 169 172 178 86 108 188 189 169 155 151 96 87 73 95 75 79 94 105 118 120 132 141 152 133 120 130 125 131 139 126 102 98 93 98 110 109 94 96 97 96 65 45 39 40 44 38 24 27 46 55 53 49 50 51 49 105 35 106 95 97 156 155 159 163 161 184 146 133 170 163 162 144 165 182 153 151 193 193 172 184 172 136 124 124 131 146 140 137 134 130 134 137 171 190 204 132 122 195 176 157 154 177 146 100 99 88 61 84 107 126 135 138 130 123 142 129 140 139 125 125 124 138 131 114 100 90 79 96 101 93 96 92 71 42 42 41 34 26 24 28 49 50 51 49 51 49 41 80 48 69 90 101 146 154 158 165 161 182 121 166 162 160 154 145 172 140 118 179 183 159 115 112 77 63 66 56 98 104 126 125 140 143 153 130 166 192 200 139 137 130 113 102 95 121 142 105 94 80 74 114 122 123 120 114 63 77 169 42 81 100 114 137 132 103 114 118 103 92 96 96 79 111 96 90 73 37 34 44 31 22 27 22 54 52 50 52 52 48 48 55 56 59 69 103 135 158 158 167 185 122 166 178 165 165 152 160 136 107 140 145 125 100 58 73 42 34 61 61 128 122 88 100 114 163 193 160 155 184 179 133 141 98 111 125 111 86 133 104 79 73 119 116 100 104 128 142 29 81 67 21 54 47 74 95 118 112 76 98 116 100 103 98 99 90 128 88 69 36 33 39 26 27 23 27 52 53 50 51 49 47 51 51 57 48 59 71 118 150 162 174 163 124 179 168 174 162 160 149 129 142 122 103 99 138 58 55 59 73 76 75 156 157 109 108 146 140 191 178 154 154 155 142 170 61 165 182 174 116 160 83 80 114 109 97 95 142 179 177 57 64 48 49 65 39 83 70 74 86 88 65 103 111 104 102 101 99 111 106 62 41 39 41 25 22 28 23 48 53 47 55 49 50 52 51 56 28 62 85 68 182 137 169 123 155 179 167 169 165 172 162 156 146 128 122 127 139 114 65 67 96 74 108 142 135 120 116 147 155 183 162 138 142 172 159 212 109 160 178 177 119 163 93 88 131 116 108 112 146 167 178 119 80 54 69 67 70 108 110 74 68 76 90 97 108 103 103 104 101 93 107 66 45 46 31 23 23 27 22 50 54 53 49 49 52 51 52 49 35 83 64 90 185 106 131 125 158 177 179 169 171 164 170 156 161 146 144 151 125 124 114 109 118 109 114 116 117 111 116 136 142 151 138 131 165 176 135 157 115 104 112 114 95 110 97 94 120 129 125 117 129 145 139 127 124 75 82 84 113 121 120 97 83 77 103 107 106 95 103 109 102 100 83 83 23 42 24 27 23 27 23 52 54 47 51 99 117 103 68 46 53 89 64 86 146 107 87 136 168 170 174 171 176 171 164 162 172 161 139 159 142 137 121 138 132 135 149 139 120 115 114 122 118 125 125 159 168 177 99 53 70 75 77 68 54 66 85 95 105 106 100 96 103 110 101 101 94 89 88 97 104 107 120 119 95 90 102 115 109 106 115 116 113 101 76 80 32 39 20 24 25 29 23 57 48 36 123 156 163 156 142 116 134 114 50 133 136 146 24 161 186 187 180 180 175 167 151 161 164 150 145 161 160 170 168 179 167 178 173 169 148 145 137 139 148 137 162 169 169 168 79 82 171 156 145 137 109 71 83 81 106 83 71 74 69 89 92 95 94 97 88 100 98 108 117 119 106 107 106 115 117 116 128 122 114 84 66 74 63 39 27 27 23 21 26 58 34 86 168 147 151 172 176 166 176 133 39 146 151 200 31 176 187 198 191 189 178 171 151 147 146 140 146 152 161 170 168 183 181 194 193 188 181 175 166 161 182 167 180 168 165 160 48 170 210 176 167 169 154 76 95 69 96 99 71 79 87 99 109 114 110 119 113 117 114 116 117 118 118 113 106 112 105 113 122 116 96 85 86 97 80 79 77 58 18 24 26 60 15 143 143 81 66 125 181 187 192 152 31 143 152 201 40 182 192 200 192 193 176 170 153 151 154 159 165 174 170 171 173 192 195 197 202 196 183 181 173 178 189 180 179 172 152 122 81 205 209 180 175 166 179 68 96 78 76 99 93 91 121 129 137 138 132 137 137 128 121 122 120 120 112 109 103 97 86 96 113 111 106 103 108 84 62 86 86 92 65 17 26 51 32 168 112 72 57 126 152 179 199 165 39 134 146 190 43 183 192 195 191 181 171 161 156 167 178 173 180 188 185 184 188 193 200 197 203 193 185 185 186 187 189 179 173 164 150 58 160 204 204 193 179 168 193 56 87 90 79 86 108 114 139 162 160 157 158 151 151 142 136 132 120 114 109 96 89 79 71 92 118 124 123 112 113 77 48 74 75 100 95 13 22 47 42 174 118 93 111 166 157 138 193 169 60 139 143 186 44 176 188 191 187 173 164 165 175 186 189 187 186 190 192 192 192 190 200 201 201 187 189 198 192 184 185 173 167 156 128 74 198 206 200 199 176 176 187 56 63 101 89 81 107 130 151 172 164 160 162 153 150 147 141 141 126 119 106 95 84 84 88 105 121 127 120 108 116 68 61 78 46 74 108 21 20 47 39 174 121 107 139 174 190 109 170 163 92 131 143 181 41 166 183 186 183 164 170 181 190 185 193 192 192 186 192 195 189 196 201 198 197 194 199 195 186 187 175 170 174 150 89 161 215 204 196 197 172 176 184 108 35 99 103 85 103 130 154 167 165 170 160 148 153 149 149 144 131 125 120 105 105 116 112 117 122 122 114 105 115 67 85 72 29 60 100 25 23 38 72 171 125 131 144 170 197 131 128 158 112 135 137 176 41 163 165 182 173 160 183 189 192 188 189 198 192 186 192 190 196 201 202 196 200 201 194 190 183 181 170 184 164 113 135 207 211 191 191 192 169 170 176 158 78 70 120 88 98 131 153 155 159 166 161 154 148 149 147 144 138 131 128 126 130 137 129 127 125 119 113 103 112 64 92 86 22 57 102 20 19 29 127 170 130 158 135 176 185 166 150 134 115 133 135 162 59 142 155 162 163 173 190 193 196 190 189 198 195 188 192 198 196 198 199 196 200 197 192 188 180 181 176 188 138 102 191 214 193 188 192 190 177 165 162 170 146 46 115 100 101 127 149 154 151 162 159 163 152 150 140 146 147 138 143 143 143 147 142 136 123 125 112 101 107 63 101 97 23 54 102 29 16 8 170 153 138 175 133 185 185 188 175 97 117 131 145 143 98 107 146 153 161 184 191 195 196 186 196 196 196 193 189 195 191 195 198 192 199 192 192 193 187 174 174 161 82 173 199 202 191 192 190 185 181 170 159 166 167 88 69 121 105 124 155 149 156 158 160 163 150 150 147 154 155 149 151 151 151 158 150 137 127 127 116 99 102 65 111 99 30 53 105 34 19 14 204 137 153 169 152 182 181 167 129 84 119 126 146 130 142 64 149 143 168 181 191 188 194 189 195 194 197 189 187 192 193 195 194 196 195 190 197 201 180 149 153 106 113 202 199 202 187 199 191 186 179 173 158 156 165 141 30 122 119 128 157 144 152 159 156 156 146 148 146 154 154 157 164 162 157 160 158 137 131 123 113 102 95 72 116 102 31 57 106 45 23 56 200 135 167 163 167 181 173 157 104 135 114 121 140 131 147 71 135 144 170 181 187 190 191 191 191 189 192 182 188 193 198 194 193 198 196 197 198 186 147 136 117 96 189 194 206 202 192 207 211 189 184 171 165 155 153 161 60 68 130 144 154 148 159 159 146 158 150 149 145 149 160 155 168 164 163 161 152 138 122 120 112 107 85 83 115 110 38 56 115 43 20 57 201 140 169 153 175 182 157 147 111 176 123 121 136 131 126 141 80 149 163 183 179 187 188 190 188 185 187 191 191 193 194 196 197 194 200 201 187 158 133 116 101 187 194 186 199 205 197 212 216 201 179 169 172 168 150 156 125 51 104 135 159 159 153 161 153 156 152 151 149 147 152 157 162 159 160 151 146 134 118 119 107 111 80 83 105 112 53 55 112 45 19 78 199 144 159 155 178 178 153 139 129 199 143 126 128 134 131 138 138 104 166 178 179 186 179 191 185 188 192 196 195 192 191 196 196 190 196 186 163 132 121 74 185 202 189 175 181 192 191 198 198 185 173 172 177 156 140 146 149 131 41 125 161 161 157 160 158 149 150 140 141 151 158 158 151 143 145 139 152 124 113 116 111 104 86 71 96 117 59 57 115 35 17 58 204 152 150 158 175 170 144 131 145 196 156 122 133 128 136 139 146 153 130 157 184 184 184 186 187 193 193 191 197 192 198 190 193 187 179 162 131 122 102 145 205 197 188 166 174 174 183 171 160 174 160 147 137 114 116 136 143 157 116 40 149 167 160 164 160 161 151 145 139 151 157 162 152 150 138 142 144 110 110 108 127 88 92 56 83 114 65 66 107 18 27 18 186 169 149 148 191 158 143 138 136 189 152 115 138 129 136 145 143 158 179 145 152 180 202 188 183 196 191 190 198 192 192 187 193 175 150 122 111 167 127 171 189 179 172 153 168 173 179 166 150 151 152 119 111 101 105 124 136 139 151 71 66 154 167 161 159 153 152 151 139 142 151 156 160 142 142 142 118 112 107 129 119 91 89 62 67 112 75 80 102 10 26 30 135 184 160 133 185 164 137 140 144 155 149 106 129 129 131 148 142 155 184 176 174 162 157 169 149 156 179 181 174 175 172 158 144 132 121 124 151 185 137 123 159 137 117 82 142 178 160 142 131 131 131 111 101 92 101 108 111 125 139 129 20 81 141 163 164 154 159 148 141 133 143 157 151 144 147 139 128 118 110 109 94 98 85 78 58 103 85 91 81 12 21 49 47 194 174 128 182 166 145 168 173 131 153 98 129 142 128 144 150 144 177 175 177 183 184 189 178 170 170 157 152 157 155 157 155 152 141 135 162 155 113 82 111 88 49 26 29 160 147 110 108 110 104 95 99 91 62 74 88 100 116 127 28 56 84 103 142 153 159 149 137 123 138 146 152 140 137 130 114 103 97 93 99 95 84 68 54 95 88 96 73 15 17 51 19 158 177 142 151 176 166 187 191 177 159 86 126 143 134 143 148 137 171 179 178 182 185 186 184 187 191 182 173 163 150 128 120 111 104 111 119 95 92 106 85 79 40 41 28 55 130 96 86 82 77 93 76 38 22 25 49 70 102 101 57 40 72 84 87 102 117 126 121 116 129 130 122 108 102 96 99 112 107 100 93 98 68 70 67 100 90 104 52 10 27 57 32 77 176 171 130 176 177 188 188 194 161 95 120 137 132 149 140 146 152 169 171 178 182 170 177 168 168 150 131 118 103 89 77 72 71 72 87 99 141 167 114 84 52 51 49 61 96 92 71 68 82 67 41 34 30 33 31 56 70 69 59 61 72 71 70 79 91 87 89 101 105 107 110 113 111 124 118 115 104 97 97 89 66 92 100 107 90 102 32 16 26 52 54 32 164 169 168 153 170 194 188 193 156 114 115 146 142 140 146 146 149 150 163 158 163 154 149 140 144 138 136 131 124 120 113 107 95 106 137 167 187 197 170 133 90 92 68 68 100 62 61 60 55 44 66 53 48 46 46 50 42 50 37 65 117 101 73 65 61 73 95 118 127 133 128 131 124 131 119 119 109 97 101 80 64 111 119 107 86 101 15 20 27 52 57 20 117 174 176 162 162 190 179 192 155 116 116 138 154 135 149 147 148 143 146 139 144 141 139 147 161 176 177 177 175 173 173 157 145 151 186 197 194 195 162 157 119 105 85 122 96 67 45 42 46 48 69 59 65 60 69 81 65 50 53 74 137 144 128 110 93 94 99 115 111 121 125 123 132 135 124 116 102 99 99 68 72 108 120 96 96 89 10 23 23 54 48 47 58 165 177 171 156 187 183 188 168 118 138 126 153 131 152 143 154 148 145 149 149 153 162 176 184 193 185 188 190 187 185 164 170 184 183 192 188 180 134 130 149 96 115 133 113 106 42 34 42 63 55 50 55 59 71 103 87 78 85 110 149 166 162 152 144 138 128 120 112 112 114 115 132 133 133 119 100 101 94 66 71 102 110 98 104 71 6 23 26 54 47 52 33 100 173 164 164 183 181 184 181 110 107 126 136 136 143 150 156 159 157 166 164 172 178 186 191 194 185 183 189 192 178 168 181 180 174 174 169 145 111 126 131 82 134 106 132 100 52 41 41 61 72 56 48 58 69 114 90 108 118 142 164 170 168 166 163 157 153 142 119 111 109 102 114 119 129 121 100 99 92 62 76 103 106 99 106 42 13 26 23 52 51 48 42 30 110 151 172 185 179 184 190 124 95 120 140 130 136 153 157 169 164 176 176 176 182 190 192 192 187 180 187 186 172 169 184 162 149 165 144 104 100 132 108 94 133 101 115 91 89 62 66 94 74 73 63 83 85 94 94 115 124 149 157 169 172 170 161 156 157 151 141 119 112 101 111 99 117 115 99 98 85 52 73 106 106 96 101 15 18 24 21 46 51 47 45 47 38 85 161 175 174 176 174 126 96 115 139 121 142 162 155 172 175 169 180 178 177 192 193 186 187 184 188 187 170 176 172 134 127 150 125 92 108 121 107 123 105 102 102 91 127 86 96 107 114 94 81 109 89 94 96 107 100 138 126 156 164 171 159 158 157 156 141 134 118 112 102 97 102 102 99 98 90 50 73 109 101 102 56 13 22 22 22 47 55 44 50 46 44 31 97 155 166 163 151 105 105 114 132 112 144 153 140 176 169 169 179 172 174 189 191 185 184 187 183 184 168 165 138 115 134 127 115 102 122 118 126 137 80 99 109 114 143 92 120 108 124 105 90 107 96 82 110 100 98 113 112 130 137 172 163 164 155 155 145 137 120 118 110 101 99 89 91 89 84 48 85 111 108 78 20 20 23 22 20 48 47 50 48 43 41 38 28 79 125 129 107 72 112 110 124 117 136 138 136 174 164 168 180 167 182 180 186 183 181 189 188 170 148 138 129 111 136 120 124 109 137 135 151 128 101 125 145 142 151 141 122 115 103 105 96 111 102 86 86 102 98 98 107 110 122 159 166 162 153 153 152 137 123 121 140 95 103 77 95 89 66 56 82 105 94 32 17 19 25 21 22 52 42 50 46 45 42 39 38 35 46 64 42 50 98 120 121 126 127 138 121 167 161 160 172 163 175 176 173 183 183 186 193 131 146 134 124 129 127 123 125 128 144 125 145 134 130 125 135 159 163 178 154 124 133 110 108 123 105 86 77 108 89 101 96 99 104 139 160 165 158 156 153 140 132 125 149 105 100 81 78 84 60 54 76 90 41 15 23 21 25 22 22 45 48 47 49 42 42 37 40 38 43 41 44 43 101 128 109 128 114 147 114 167 157 138 159 156 163 169 171 179 190 185 182 106 138 133 122 135 111 122 135 126 117 102 111 105 105 93 94 92 108 107 110 111 112 104 97 111 100 98 103 92 95 101 93 106 95 111 143 159 151 151 151 138 129 111 139 117 94 87 72 59 76 53 50 36 19 18 23 20 19 24 26 47 49 47 46 43 39 38 43 34 39 38 40 28 107 100 106 122 104 132 126 162 133 129 143 127 155 176 172 182 190 184 167 110 129 128 113 123 109 113 114 97 78 66 65 50 40 51 55 54 67 52 62 79 76 81 82 87 84 88 111 91 87 78 84 99 99 94 124 159 152 147 142 134 125 110 128 114 92 85 76 50 78 62 30 21 18 19 25 20 21 22 26 49 49 45 46 41 39 36 38 38 38 40 40 20 105 98 85 113 115 115 124 155 129 121 140 125 157 168 170 179 184 183 146 127 113 113 111 98 96 87 79 65 60 32 19 31 30 34 40 37 40 20 35 36 38 36 47 68 69 68 60 84 78 79 75 90 100 103 102 145 160 151 138 135 123 100 119 114 104 75 82 46 70 72 30 20 21 21 23 19 21 23 20 54 40 50 43 38 43 36 36 36 38 40 41 21 87 109 68 116 124 117 114 152 136 117 122 133 152 166 163 174 183 176 134 112 112 114 102 84 84 68 45 42 66 44 20 24 35 57 40 42 41 41 33 35 35 29 22 22 67 55 50 56 59 74 94 92 90 111 89 115 158 156 129 132 122 104 108 124 98 72 73 59 59 69 35 22 21 23 21 21 24 20 19 49 43 47 43 41 37 38 36 37 39 37 38 21 69 93 93 101 119 109 110 158 130 113 103 114 146 158 156 180 186 165 144 108 107 96 120 139 144 135 109 108 135 147 131 107 72 112 79 106 68 81 92 55 67 65 68 88 125 117 97 70 39 54 88 105 105 103 108 107 141 157 136 122 122 104 86 121 87 85 58 71 65 70 24 20 23 21 18 23 25 22 20 50 43 49 41 41 40 35 38 37 38 37 39 22 55 104 86 93 97 117 109 117 109 117 91 119 136 141 147 159 167 155 136 123 90 98 146 176 179 164 148 154 161 160 156 154 146 148 125 141 112 120 135 124 136 149 138 141 141 151 135 127 113 119 88 106 129 107 112 114 139 151 133 111 113 101 81 112 100 72 66 55 78 59 19 18 25 17 25 20 24 20 23 51 45 54 40 42 39 35 35 39 36 38 36 32 43 112 77 105 98 111 117 101 108 120 87 132 120 128 139 162 153 145 125 133 80 130 172 176 185 186 172 163 163 169 161 162 183 145 167 152 159 156 148 162 164 154 148 144 149 143 129 122 139 157 140 107 141 108 128 105 132 146 129 103 107 100 81 97 113 74 76 58 79 66 29 21 23 22 20 22 23 18 23 47 49 46 44 36 38 43 35 37 40 37 32 44 32 93 89 89 126 98 108 100 101 113 95 117 128 99 122 143 148 148 118 111 72 149 175 169 184 175 177 173 156 145 160 158 204 160 172 161 156 165 157 154 166 146 141 139 142 130 124 142 139 144 151 118 122 119 126 128 126 130 132 100 97 88 72 107 88 70 77 64 71 42 26 26 22 22 21 18 26 21 24 55 43 48 42 38 40 39 35 37 36 45 30 30 44 59 83 89 135 90 103 101 98 116 106 105 136 74 128 141 138 143 137 69 85 151 170 182 183 174 165 160 167 157 141 145 155 154 172 144 145 156 158 140 159 145 137 127 134 136 143 132 123 141 148 122 125 128 116 128 130 132 134 101 91 75 63 87 99 70 67 62 60 35 20 27 23 24 22 21 23 19 22 49 47 47 44 40 36 37 37 36 40 39 38 34 37 35 61 100 110 98 88 95 102 105 104 106 110 89 126 128 127 121 124 95 74 160 169 174 171 175 173 147 153 157 165 155 151 150 150 138 145 163 146 145 139 145 132 142 137 127 117 114 115 138 132 120 136 128 127 114 128 115 121 98 93 66 74 77 79 80 54 55 54 31 23 24 22 23 19 23 21 19 21 52 46 47 42 43 36 35 38 36 38 41 38 37 38 33 45 80 84 107 83 99 95 110 95 110 105 110 111 97 129 130 98 125 66 158 159 172 170 164 170 151 150 145 138 145 148 147 141 144 152 148 138 141 135 130 125 116 112 112 113 118 122 126 127 115 138 118 124 100 125 108 118 98 109 57 73 74 75 70 50 39 51 30 21 22 25 22 18 20 21 26 15 51 48 41 41 41 35 38 37 36 44 35 37 37 41 30 47 60 101 83 92 99 87 110 94 115 100 107 111 90 127 146 105 105 112 162 159 159 163 156 158 146 153 154 116 135 103 103 92 92 98 92 85 96 81 93 87 91 113 98 116 119 123 132 118 112 131 128 125 87 110 101 109 94 89 72 59 66 83 64 46 44 59 26 22 19 23 21 19 24 20 23 16 51 50 42 40 41 34 42 31 40 36 38 36 37 40 28 46 43 96 78 76 86 79 110 99 108 102 104 98 106 118 135 82 105 133 165 164 157 160 163 142 145 141 147 125 132 104 89 88 75 96 84 67 104 60 98 75 85 108 88 114 116 121 123 116 121 135 131 117 79 88 93 98 75 79 79 62 68 63 73 41 43 37 25 22 21 22 21 19 21 19 20 20 47 51 46 40 44 38 39 34 40 37 37 40 32 41 33 39 38 80 71 72 82 63 107 110 113 94 108 87 110 97 124 70 100 123 163 163 160 158 165 152 146 148 116 129 108 108 94 87 84 122 96 74 106 82 101 80 92 105 94 102 109 115 129 133 123 125 115 104 88 68 77 77 50 66 74 67 65 64 61 52 33 23 24 19 25 24 19 24 19 18 25 23 51 46 45 43 42 37 39 35 38 37 35 40 34 40 33 38 45 65 62 79 70 74 81 113 93 90 106 94 103 85 96 82 89 110 152 142 161 162 163 154 152 150 125 130 114 107 114 84 83 91 117 77 93 104 105 105 104 101 103 113 119 126 133 130 120 132 105 91 93 65 63 60 54 53 75 64 70 69 55 44 24 24 24 21 21 24 20 23 20 15 24 21 50 47 46 49 39 41 39 40 32 40 36 33 38 38 38 31 45 46 60 61 69 83 80 98 85 86 94 93 101 80 78 96 88 97 143 127 175 160 156 164 161 166 151 138 138 109 137 113 89 107 121 99 134 120 112 121 112 105 109 114 143 135 127 119 109 124 85 88 89 56 45 69 64 47 59 62 70 49 52 40 19 27 20 23 22 21 22 20 25 17 22 23 49 49 45 45 40 43 37 39 36 38 35 40 40 41 37 35 40 33 68 58 74 80 75 94 98 71 86 68 97 72 68 82 92 83 122 139 162 144 149 170 160 170 172 161 169 135 137 145 99 126 118 116 143 127 128 128 129 113 117 123 138 134 115 119 105 104 91 83 74 52 46 65 60 60 55 68 66 34 66 39 17 25 20 22 23 23 20 19 25 19 22 23 49 49 47 42 43 41 41 37 38 40 39 37 37 38 42 35 32 39 48 61 78 67 76 91 86 75 87 53 79 68 73 66 92 83 125 146 137 155 144 176 177 175 174 169 178 146 145 154 123 124 129 126 138 146 145 135 145 132 146 141 126 131 110 101 89 87 83 68 78 48 43 62 61 60 53 65 62 34 40 43 32 24 22 18 25 23 18 22 20 24 17 21 48 45 52 40 45 40 43 39 36 40 42 37 37 38 40 40 34 38 30 62 64 70 75 85 71 80 79 59 52 81 74 65 73 72 109 122 122 139 143 174 183 167 164 150 175 148 149 143 130 123 126 124 123 149 151 152 141 120 140 150 134 110 105 82 95 63 56 61 50 48 40 43 71 53 58 54 54 42 24 30 26 23 22 22 21 21 19 21 23 22 23 23 46 51 47 48 41 43 43 38 35 41 40 38 37 40 38 30 54 43 31 58 70 69 62 78 67 68 64 62 65 68 69 67 59 67 90 95 117 127 156 150 167 138 147 154 154 137 159 126 141 139 107 130 135 151 158 153 139 128 109 147 121 126 95 80 82 54 49 50 47 63 44 40 60 51 56 43 62 45 29 18 24 21 22 24 19 19 18 25 20 26 18 22 51 47 49 43 47 45 37 44 40 37 41 40 38 37 38 32 37 33 69 85 64 69 52 68 61 40 61 56 59 53 72 66 49 68 74 84 114 110 117 155 118 126 139 126 130 169 125 127 147 146 113 127 131 151 157 131 136 133 97 117 122 105 85 81 63 54 43 58 35 62 41 41 48 50 38 72 44 66 30 20 23 23 22 25 18 20 17 21 21 29 20 19 51 51 47 49 46 47 39 44 38 40 37 42 36 39 40 30 28 87 117 70 63 61 53 63 44 47 43 53 65 30 91 45 46 74 84 58 113 103 115 129 105 112 129 110 115 178 107 119 136 145 123 112 108 162 142 137 124 106 97 108 98 73 86 65 57 48 38 48 40 46 36 43 46 58 36 49 62 65 18 25 21 19 27 18 20 22 19 20 24 23 18 23 50 48 51 43 47 41 44 42 39 42 33 40 40 36 31 27 122 129 71 24 77 63 41 55 40 40 47 62 51 48 60 43 49 75 70 56 98 91 103 97 97 97 103 109 104 148 115 119 118 113 112 97 113 157 129 153 100 107 82 102 76 93 65 49 61 27 42 37 33 50 34 37 51 43 44 37 45 50 21 18 22 23 20 24 19 21 20 18 23 23 21 17 51 48 49 49 45 42 44 42 38 43 36 36 37 35 26 144 139 90 41 9 97 67 44 46 42 45 59 41 62 42 46 58 31 84 67 56 77 63 86 74 90 97 82 114 93 134 132 121 110 109 101 84 113 133 129 140 97 96 79 82 94 95 58 47 51 35 26 35 40 42 38 33 56 23 53 40 40 35 24 20 21 23 24 21 21 21 19 18 21 24 21 26 53 50 47 48 47 45 44 41 47 38 41 36 34 32 142 159 116 60 32 24 70 91 45 44 37 45 42 58 45 29 58 41 41 88 63 53 57 66 79 63 91 91 92 103 90 101 143 121 95 101 84 90 106 107 112 113 87 104 86 57 74 55 52 45 33 36 37 31 31 46 43 36 44 32 39 52 29 32 22 20 21 21 24 20 23 17 19 18 23 22 23 20 51 49 50 48 50 42 49 42 47 40 40 37 26 146 174 130 94 32 38 24 46 102 60 38 51 44 39 47 42 40 47 34 50 65 51 67 46 68 68 48 93 84 81 99 92 96 129 119 99 97 85 89 111 78 97 121 73 90 76 63 66 45 35 41 29 52 39 32 38 41 43 29 35 42 33 69 36 18 21 19 22 22 23 21 22 22 20 18 23 21 22 21 49 51 48 44 49 45 49 43 49 40 42 18 115 183 150 110 46 36 29 21 33 105 77 47 41 47 44 43 41 33 45 26 57 47 35 84 43 65 58 53 83 97 48 96 80 73 113 74 80 89 83 81 72 82 64 120 37 94 60 76 34 57 33 52 18 40 41 33 46 42 37 36 35 42 27 58 88 12 19 20 22 20 25 22 21 18 17 20 19 20 24 21 50 52 50 50 46 45 46 44 45 45 26 77 187 169 139 62 41 31 27 25 28 103 92 67 35 57 40 38 34 33 35 51 63 40 37 76 49 52 51 76 43 109 40 80 65 72 74 70 66 84 77 70 55 87 41 100 35 88 53 63 27 39 33 40 26 30 35 35 40 37 30 37 34 55 45 32 86 77 9 16 23 20 24 21 21 23 17 22 17 23 23 21 45 56 45 47 51 47 43 47 43 38 39 168 184 155 124 35 30 30 27 22 24 98 95 94 37 49 33 38 32 28 36 50 67 60 56 48 47 32 53 69 52 88 54 43 60 74 34 78 54 71 73 46 61 61 37 83 45 83 37 42 27 34 28 30 23 32 29 24 34 33 31 31 28 80 37 35 37 111 44 9 23 19 24 17 24 19 21 18 17 22 20 21 50 52 46 46 49 48 47 48 48 24 127 191 169 164 81 34 22 58 48 22 23 101 94 109 57 39 36 34 36 35 45 36 49 53 58 35 43 37 52 42 63 66 46 42 45 72 25 64 42 65 64 44 59 31 38 59 61 48 34 32 24 22 29 24 26 25 22 29 25 29 31 30 41 81 22 31 38 75 102 18 18 23 23 21 22 22 19 19 23 20 19 23 49 52 51 44 46 50 47 48 35 61 185 182 160 156 65 16 96 101 38 16 25 100 95 104 90 40 39 42 43 40 36 47 27 50 55 31 51 42 38 43 47 46 35 47 51 43 35 68 25 47 52 50 25 37 27 51 65 32 30 39 19 20 31 17 28 22 27 23 27 28 35 29 66 80 10 17 59 51 111 71 24 22 24 19 23 23 19 19 23 20 20 23 49 46 52 50 49 48 48 44 32 150 191 172 150 158 39 59 150 55 18 19 28 102 92 99 95 59 38 53 52 39 34 39 32 41 37 31 32 54 34 47 31 38 39 47 35 40 27 78 28 31 47 35 24 26 24 50 65 19 21 41 23 18 22 27 22 24 20 26 26 27 29 50 76 66 8 8 54 63 88 112 71 58 27 18 21 24 21 19 21 21 19 29 45 44 53 48 50 43 45 71 119 184 178 155 161 128 23 136 119 15 19 22 27 104 96 99 95 91 56 43 44 35 41 31 39 37 39 32 25 33 42 36 31 32 35 47 34 30 50 32 25 26 45 29 30 23 26 45 59 13 20 36 22 24 16 31 15 22 26 30 32 27 28 59 85 58 8 14 39 71 72 106 94 63 71 39 42 40 39 41 35 33 26 31 48 48 51 42 62 84 115 145 160 185 168 158 185 113 19 186 68 12 24 19 23 107 98 93 97 96 67 33 40 34 41 33 41 36 41 33 33 25 36 37 27 35 25 39 31 39 38 25 31 25 38 27 32 20 39 47 51 19 26 27 28 26 37 23 21 22 25 32 31 34 48 74 80 46 12 20 29 67 81 87 115 51 68 88 101 103 102 103 101 100 94 89 45 39 62 95 133 149 189 186 168 184 155 191 157 97 71 185 34 24 20 18 20 107 97 94 92 103 58 44 28 47 32 23 42 34 44 29 35 18 30 32 35 28 28 22 47 33 33 21 25 39 25 35 25 23 39 30 32 38 39 18 25 32 21 24 24 21 27 27 31 40 63 75 81 26 18 20 39 39 100 80 102 93 66 114 115 90 91 96 100 96 100 92 35 69 149 173 185 204 214 173 170 178 166 212 116 86 132 150 9 17 23 11 24 94 104 99 96 103 70 47 26 49 25 33 26 30 31 28 32 27 20 33 34 28 30 19 43 31 35 27 23 40 26 35 29 28 30 25 26 28 25 16 26 28 20 26 23 22 28 36 47 60 70 76 78 9 16 34 36 30 92 89 91 115 71 85 124 119 83 74 76 79 79 83 101 176 202 191 189 190 195 167 176 163 198 189 108 83 129 119 9 16 19 15 41 82 110 99 96 107 80 52 33 33 35 30 29 23 26 27 30 30 27 27 28 26 27 36 29 28 36 30 25 34 32 31 30 27 30 27 25 29 19 17 30 20 25 22 26 30 36 70 60 73 71 83 61 5 17 36 34 50 53 113 87 110 86 38 66 93 113 100 97 104 121 114 194 187 155 131 123 190 172 173 171 165 229 143 117 98 119 81 8 13 33 38 51 74 112 101 97 99 84 83 46 27 34 28 35 25 25 23 33 26 26 26 26 29 27 36 31 34 28 29 25 32 28 29 25 23 26 28 27 21 23 22 29 17 39 25 29 32 58 71 74 72 72 85 37 8 24 39 27 69 38 129 92 94 115 31 47 70 80 89 93 96 123 165 169 139 150 121 156 186 172 176 167 186 229 110 130 98 148 47 4 31 65 42 60 67 109 107 100 93 96 107 72 30 35 48 29 26 27 28 34 34 28 24 28 21 31 27 30 39 40 20 45 25 35 26 30 30 25 27 21 28 26 20 24 39 31 20 33 61 73 71 75 69 80 77 17 10 27 36 34 71 49 112 98 88 124 55 39 67 78 93 98 95 93 140 145 148 144 120 194 166 175 175 163 212 197 116 138 97 153 17 9 64 68 46 65 67 112 109 103 98 108 102 96 51 52 49 38 22 33 22 22 41 22 26 26 33 34 26 23 39 31 43 43 36 41 23 37 33 30 29 26 28 24 26 37 38 19 46 55 74 81 67 72 76 77 59 10 11 35 36 36 73 95 63 103 93 119 83 34 47 80 87 105 106 102 104 151 167 100 179 177 174 175 169 178 226 170 147 126 104 143 1 26 82 71 56 67 70 108 115 103 104 105 106 103 90 91 66 74 39 31 31 26 27 27 24 29 29 31 25 28 38 21 27 42 41 36 33 40 44 37 19 24 22 25 25 30 21 42 62 62 76 73 73 72 79 77 30 11 18 36 38 41 77 103 28 109 108 119 111 39 52 105 122 123 100 105 103 150 155 138 189 189 171 174 166 203 210 177 150 127 113 141 0 51 83 73 66 75 70 99 118 112 108 104 102 108 101 98 91 95 75 43 47 50 33 29 32 31 38 35 27 24 51 24 29 42 33 23 32 34 28 39 26 26 29 26 26 22 47 75 64 73 82 67 72 78 80 62 17 11 27 34 38 42 94 77 32 133 122 114 132 60 56 58 77 129 140 104 95 