P2
92
112
255
47 46 46 40 43 50 44 45 44 48 46 48 46 47 49 46 42 48 44 47 49 44 34 17 35 58 70 57 55 68 56 66 54 69 69 41 53 58 37 38 36 32 37 35 39 40 30 30 36 24 34 37 20 46 30 47 49 43 20 42 31 42 22 48 47 37 47 39 43 39 55 50 54 44 43 44 42 40 40 44 41 39 41 39 40 40 35 43 36 38 38 39 47 45 47 45 43 49 46 46 45 49 45 47 42 46 49 47 46 47 47 46 47 40 21 26 48 94 75 70 73 72 68 73 72 82 86 65 67 49 60 46 35 34 45 47 35 35 44 33 33 30 45 43 14 54 45 48 40 39 33 43 34 44 24 49 49 39 41 45 38 45 45 44 57 50 48 50 41 43 41 42 40 40 38 42 41 39 38 39 33 40 42 39 45 47 45 47 46 43 45 49 50 46 47 48 46 47 47 49 49 43 46 39 33 27 37 47 77 117 83 96 65 76 103 78 90 85 66 74 74 65 55 59 64 46 52 48 42 37 71 46 33 51 51 39 27 50 51 45 46 37 35 39 57 40 27 42 48 38 51 38 52 30 47 45 47 55 61 50 49 41 35 42 40 40 41 41 43 35 46 40 39 39 38 43 44 47 46 46 47 44 44 50 49 45 48 42 50 46 49 44 47 42 35 30 26 39 61 61 104 95 93 101 84 95 117 86 102 99 99 97 81 79 82 74 61 72 68 57 47 53 52 63 48 64 54 55 46 49 42 58 41 40 52 50 47 39 32 35 51 35 54 46 42 28 43 48 46 51 63 63 52 43 39 40 41 40 43 40 40 43 41 41 37 43 34 41 47 49 42 45 47 46 48 44 49 44 47 46 49 44 45 50 47 33 28 32 25 36 71 96 98 79 83 93 71 97 102 84 106 99 115 88 84 89 89 95 88 85 73 71 65 69 58 74 61 55 63 46 49 44 51 55 63 56 57 57 37 43 34 42 55 37 38 54 30 35 47 50 41 42 47 63 59 45 42 38 42 41 39 44 40 39 45 42 36 41 37 40 45 53 45 50 46 47 49 49 43 50 47 48 48 50 48 48 39 24 21 39 26 38 109 99 81 71 76 94 83 102 83 86 96 92 84 79 78 82 102 90 104 94 83 83 97 117 75 79 71 75 61 49 41 68 49 47 43 68 59 52 41 69 33 50 55 36 48 45 38 39 44 50 39 42 39 52 56 49 40 44 40 44 37 45 38 40 45 39 37 43 41 34 46 48 47 45 49 49 47 47 48 47 48 50 47 50 47 35 32 24 17 32 34 47 152 107 76 72 82 96 106 73 65 76 84 61 69 90 80 70 93 98 95 94 93 104 120 117 93 94 80 85 78 61 55 63 59 52 57 61 58 52 68 63 48 61 56 49 40 57 32 51 41 47 44 38 37 51 44 49 46 44 43 39 42 40 41 46 45 37 42 37 42 38 44 48 47 47 48 48 49 44 49 50 48 45 50 46 48 28 31 23 27 23 40 95 131 89 85 80 77 98 85 52 50 79 65 76 93 97 81 83 96 101 92 102 111 105 115 128 109 100 91 85 85 87 75 73 64 60 63 64 61 78 71 61 68 62 62 48 44 57 64 45 49 51 35 35 43 46 39 47 49 45 44 41 41 39 42 43 40 42 43 40 37 39 50 44 43 51 46 50 52 45 51 51 49 47 48 46 38 24 24 26 24 20 62 120 112 88 94 65 84 92 80 48 68 83 81 103 101 90 96 114 117 104 108 110 106 108 124 122 112 100 92 80 90 88 85 75 65 64 76 71 69 80 64 78 75 73 67 52 53 75 57 38 54 30 42 39 41 49 36 48 58 41 46 39 40 41 43 44 36 42 38 39 41 39 48 44 49 51 47 49 50 49 53 53 49 50 42 40 28 26 26 30 23 23 109 119 104 105 88 76 87 86 84 66 97 109 116 121 103 121 137 139 151 133 146 130 125 133 132 133 136 135 130 118 129 103 103 84 61 72 79 75 75 83 76 84 76 71 70 76 65 67 62 61 45 30 46 41 47 43 41 46 59 46 39 38 42 44 38 42 40 38 39 42 38 41 48 48 48 49 53 44 54 46 51 51 51 45 38 36 26 30 25 33 18 58 126 111 108 108 78 88 88 93 86 116 133 148 143 142 132 165 162 173 173 160 172 164 158 159 157 162 152 143 147 148 138 120 116 88 90 83 90 93 88 94 89 93 83 82 99 83 71 73 63 68 49 45 51 48 41 51 45 48 68 49 40 39 40 39 40 39 39 37 41 37 40 37 48 47 47 53 48 48 52 51 50 48 48 41 29 35 34 30 29 23 42 78 112 108 112 92 87 103 114 122 133 157 174 159 169 164 172 181 177 188 186 185 183 184 180 181 182 164 153 160 156 151 136 137 115 108 105 105 118 113 111 104 108 101 95 101 94 83 78 81 67 75 55 54 49 50 38 58 42 63 69 49 37 39 36 38 39 38 38 40 40 38 38 36 51 50 49 52 43 51 48 50 52 50 46 32 33 41 32 30 35 24 52 94 96 98 101 100 115 137 161 163 169 172 182 169 182 185 186 183 186 189 184 187 187 187 183 187 194 183 180 186 166 170 150 144 115 122 120 141 150 140 135 134 129 120 119 123 108 107 95 89 82 89 72 63 56 47 48 60 42 60 76 48 51 38 33 41 36 39 37 41 37 37 39 39 45 49 48 50 48 48 51 50 51 52 38 40 46 28 28 38 42 31 74 103 84 102 109 127 150 173 174 171 174 182 182 180 182 183 187 187 188 188 189 193 191 189 188 186 190 186 187 185 185 171 168 158 139 155 145 170 167 158 160 157 157 157 152 146 138 126 108 95 91 100 76 84 63 65 48 63 41 52 73 57 56 52 26 39 34 37 37 38 36 39 36 39 50 44 57 44 47 51 50 49 52 44 26 65 49 28 35 56 50 54 93 97 74 114 137 161 170 179 170 174 175 182 177 186 187 187 190 188 192 190 193 196 198 193 192 192 195 192 189 191 191 181 184 175 176 173 170 182 176 173 174 168 166 162 165 154 152 137 121 109 104 99 84 106 75 71 57 51 42 56 62 54 60 54 25 33 36 36 35 36 34 41 34 38 51 48 51 45 52 48 50 51 39 43 25 76 49 17 64 71 62 84 105 77 98 147 161 171 174 174 172 170 178 181 183 189 186 194 190 195 192 196 197 198 195 193 194 194 196 194 192 192 193 186 186 184 183 186 182 187 181 183 175 176 172 170 164 163 158 150 144 138 116 102 88 109 92 78 72 61 36 43 46 55 64 61 31 30 34 31 37 33 40 32 38 33 49 50 45 45 51 49 51 48 35 48 34 84 29 29 83 77 82 104 95 82 142 164 164 174 170 171 169 178 182 185 186 187 193 190 193 195 196 196 191 198 198 194 198 194 197 196 197 193 194 189 183 187 188 187 187 190 183 185 177 179 175 172 165 165 159 164 154 147 138 122 113 112 100 82 87 87 56 31 47 51 61 64 41 27 31 31 35 30 36 31 36 36 49 51 44 49 50 49 52 49 37 41 37 73 39 52 86 87 102 112 98 127 162 163 166 170 172 173 179 180 181 187 184 188 193 190 192 195 197 196 194 195 201 199 198 199 200 198 198 199 193 189 185 188 192 189 187 192 187 182 181 178 169 174 168 156 162 163 157 153 147 136 130 123 112 103 101 97 88 57 36 44 60 70 45 28 33 32 32 31 31 35 35 26 54 46 48 47 50 50 49 52 28 42 46 50 69 75 87 100 119 107 120 157 161 167 170 175 175 182 183 188 187 185 189 192 193 194 193 194 196 198 199 194 199 200 197 200 196 198 199 201 198 193 189 193 192 192 192 191 185 185 186 180 173 174 170 162 162 166 156 150 155 143 136 132 122 115 113 102 95 91 54 26 57 64 50 32 36 28 33 30 30 30 34 32 50 51 46 49 48 54 55 42 29 41 46 39 79 82 94 117 115 114 149 159 160 167 173 176 176 186 187 191 190 188 188 192 195 192 196 193 196 191 192 193 194 198 197 197 193 195 195 198 193 185 188 189 191 191 189 186 182 186 182 180 173 169 168 166 163 163 158 155 154 145 140 134 135 124 120 110 102 99 82 26 43 61 54 33 36 36 29 29 29 29 31 32 49 52 49 46 47 57 51 36 24 44 48 52 78 86 114 124 116 153 155 157 165 165 179 181 185 192 190 191 193 190 190 190 195 191 188 191 193 192 189 191 190 192 199 193 194 193 194 198 192 186 186 188 189 186 189 184 185 182 181 178 171 169 163 164 159 157 155 153 153 151 145 138 136 129 123 116 103 105 97 49 30 50 58 39 34 43 28 30 27 33 28 32 55 45 53 51 47 55 50 30 31 48 47 74 79 100 126 125 147 159 158 158 162 168 183 183 192 194 191 194 191 192 189 186 193 188 191 192 191 192 192 188 189 191 193 193 192 191 190 193 196 188 187 188 187 186 188 188 184 182 183 179 172 171 166 165 160 153 152 152 150 150 142 146 138 132 131 123 116 103 99 79 28 38 54 55 39 42 33 31 29 29 31 27 49 49 52 50 49 51 53 31 37 50 60 87 91 113 130 148 162 155 161 163 162 177 183 188 195 192 187 194 189 192 189 185 193 188 194 192 193 195 195 191 191 195 192 192 192 192 187 190 191 190 190 186 185 183 189 188 184 180 186 182 174 169 166 166 159 155 150 154 144 148 140 139 143 132 131 126 125 104 102 93 54 23 46 65 60 36 38 31 28 27 31 28 50 51 48 52 49 49 47 25 37 67 62 78 103 118 137 158 163 154 162 167 163 188 183 188 194 192 190 193 191 191 188 191 190 193 195 194 189 194 192 191 189 194 190 191 195 197 186 191 195 188 192 186 187 184 188 186 191 178 189 182 178 173 166 170 163 158 153 152 144 143 139 143 139 135 132 124 131 110 99 91 87 23 33 65 63 55 36 28 29 24 30 30 54 45 52 52 49 53 41 27 39 93 83 74 93 129 146 160 157 149 169 164 176 188 187 191 196 196 194 195 192 193 192 193 188 187 193 194 191 192 193 194 190 192 188 186 190 190 184 186 190 190 190 185 190 180 183 183 188 180 183 181 170 174 166 166 159 159 151 150 152 140 143 137 141 136 138 129 126 122 100 93 92 60 19 60 73 65 35 30 32 24 30 32 55 47 52 54 50 52 39 33 48 101 111 77 112 141 152 161 157 151 170 170 182 187 189 193 194 197 194 196 193 196 193 190 186 191 196 192 197 198 196 191 195 189 189 192 189 189 185 184 187 189 189 186 187 183 183 182 181 185 181 180 173 177 172 164 164 160 151 148 146 139 144 143 142 137 136 132 128 125 106 96 93 80 38 37 65 68 39 32 27 27 28 28 51 47 55 49 49 53 54 34 66 93 119 104 128 141 157 153 159 152 168 173 183 189 192 193 197 194 196 194 193 191 194 192 192 196 198 198 200 202 198 193 198 194 189 195 192 189 187 182 189 189 187 184 189 184 193 186 177 182 183 176 183 175 173 172 171 169 158 152 151 144 135 136 143 143 141 132 130 125 112 101 92 87 46 29 48 75 56 34 26 26 29 29 50 45 52 52 47 59 49 28 90 104 109 120 134 157 154 148 166 157 163 178 184 189 193 193 196 195 197 193 194 193 194 198 199 199 201 200 200 203 202 198 200 202 196 197 194 194 187 181 190 190 184 181 186 188 191 190 185 187 184 182 185 184 177 174 173 171 163 159 160 146 138 132 134 141 146 138 131 129 114 110 91 94 77 33 34 68 74 37 26 28 27 26 54 43 53 48 56 55 44 29 110 109 96 122 152 161 148 150 161 164 168 179 184 187 195 196 196 198 197 193 195 194 199 198 199 197 200 199 201 202 200 202 201 198 202 199 203 197 192 187 192 195 187 178 185 190 198 193 191 186 191 188 191 187 182 179 176 174 164 164 163 149 146 144 128 140 137 142 135 129 115 110 95 93 83 45 29 62 79 47 22 33 24 31 50 52 49 50 54 45 50 51 120 96 99 110 155 148 152 149 163 169 167 182 188 189 193 199 197 196 193 194 195 196 194 196 195 197 195 204 203 207 200 206 202 202 201 201 201 200 197 189 195 198 189 183 186 192 201 195 197 192 196 194 192 189 183 181 175 175 165 163 161 150 147 150 141 136 136 136 139 126 116 110 99 89 86 84 16 55 77 52 26 31 26 29 52 48 47 52 51 34 55 77 115 78 101 102 151 141 150 147 161 172 170 184 189 187 198 196 197 195 195 197 189 185 187 189 198 195 198 203 204 209 206 209 207 203 205 204 204 201 195 198 194 205 193 187 187 193 198 198 202 200 200 198 191 191 187 185 167 176 169 164 155 153 145 138 144 141 131 138 136 124 116 110 100 89 86 115 35 38 76 53 28 24 29 25 50 51 49 48 50 31 59 103 96 73 92 107 143 149 151 147 153 172 172 184 188 191 191 195 198 198 192 189 178 180 183 191 195 193 191 199 196 203 199 197 199 202 204 208 205 200 196 199 195 208 200 191 192 191 193 203 208 200 200 200 190 190 178 178 169 175 173 169 164 159 154 133 138 134 133 137 132 121 115 112 99 91 89 102 47 25 81 55 24 30 24 27 54 45 51 48 57 30 64 112 96 67 92 115 140 156 151 157 153 169 175 180 190 187 190 194 198 187 179 174 178 179 179 184 192 188 190 184 175 180 168 173 176 190 195 201 205 198 196 199 196 210 199 197 198 189 188 204 207 198 199 195 192 178 168 162 156 152 157 157 165 157 154 142 138 134 124 130 132 119 120 108 102 88 91 85 44 30 73 51 25 26 29 26 51 49 51 48 54 33 51 100 93 66 113 107 151 149 152 159 154 173 169 181 189 186 190 188 186 177 172 177 176 188 186 183 174 177 162 144 138 132 150 163 154 170 179 184 201 199 199 197 192 203 195 204 199 188 178 203 202 194 199 188 190 161 154 152 131 127 127 135 141 145 142 141 136 133 131 124 128 118 117 109 105 84 107 77 49 34 66 54 24 26 27 28 52 51 50 52 50 44 39 80 87 73 122 104 148 144 155 154 156 172 171 177 185 191 187 179 180 177 182 180 183 180 183 175 153 143 129 119 121 120 141 146 160 158 174 176 195 200 196 193 192 194 190 206 197 180 172 195 201 190 187 180 171 150 137 141 118 116 114 116 110 118 126 136 140 130 134 131 119 117 111 111 101 89 104 80 48 33 55 74 22 25 26 24 51 51 52 50 53 43 45 83 84 90 120 91 154 142 162 150 157 169 174 173 182 190 174 181 185 180 179 185 171 163 162 158 143 118 121 102 105 113 128 137 140 155 162 175 178 194 192 191 193 193 192 205 197 170 167 184 195 186 165 161 145 127 122 113 104 99 98 95 93 99 114 129 134 137 136 129 130 114 109 105 102 93 93 85 52 33 55 59 25 26 27 28 50 51 54 50 50 48 50 86 81 104 121 107 145 137 168 153 157 167 170 171 179 178 171 187 186 179 179 166 158 148 154 159 151 122 135 132 128 116 112 121 128 140 146 166 159 183 186 191 191 192 194 205 198 170 171 184 193 178 156 140 126 110 102 97 93 80 81 79 90 93 108 117 126 133 130 125 126 121 107 107 101 97 83 74 59 31 53 44 27 26 28 21 53 50 52 49 52 48 65 86 83 108 127 121 133 141 165 159 156 167 166 172 178 165 181 179 178 178 176 172 173 179 183 186 193 191 196 197 191 172 159 128 129 127 129 137 142 163 176 179 186 195 197 208 195 178 173 185 194 173 136 117 104 95 97 83 74 85 83 98 110 124 115 118 133 133 117 121 126 123 104 104 101 98 81 60 51 34 60 37 25 28 23 29 55 48 51 55 50 37 82 88 72 110 135 122 135 147 162 162 162 162 166 170 172 162 182 166 168 172 168 171 178 181 182 176 183 180 174 172 152 156 172 157 146 137 134 130 131 143 140 142 141 149 150 159 153 140 143 149 154 137 110 100 89 89 83 77 86 102 115 147 159 157 136 137 138 140 136 120 117 125 112 101 96 99 82 55 45 40 50 46 38 24 20 27 58 48 52 52 50 44 74 98 60 107 128 124 117 156 161 162 162 164 168 169 173 160 152 146 149 161 166 177 177 153 156 151 183 177 143 138 125 125 116 115 129 138 130 127 121 121 102 97 96 102 110 110 115 110 109 109 112 107 105 101 101 98 89 91 90 89 92 101 115 116 112 109 118 124 130 119 116 113 113 103 92 96 86 55 48 39 46 49 40 24 22 28 51 51 54 51 51 45 65 107 36 104 115 106 125 159 160 162 167 163 174 172 162 138 150 152 154 158 172 166 143 156 167 153 156 131 107 93 94 116 130 123 112 125 127 140 149 166 157 148 82 82 140 147 132 116 119 74 75 74 87 79 82 79 99 117 116 109 106 93 101 109 104 96 106 108 102 96 95 106 111 101 95 94 92 58 39 39 42 34 28 22 27 23 48 51 57 44 53 52 45 101 33 92 105 94 140 154 161 161 165 166 176 177 129 154 163 157 152 168 161 119 172 168 134 106 65 122 70 60 54 105 100 127 133 129 126 134 148 175 181 195 136 101 202 186 168 164 182 109 88 93 77 69 89 115 127 126 115 56 101 52 60 67 80 105 113 105 124 107 91 86 84 93 97 94 89 62 35 41 38 24 24 25 27 25 52 48 53 50 47 50 36 80 42 58 95 92 137 152 158 165 167 163 182 149 141 163 161 149 152 165 101 133 151 108 116 88 33 116 78 50 80 115 117 95 121 139 146 150 136 170 183 192 152 117 146 127 110 114 142 128 100 74 64 98 118 117 113 136 170 29 207 58 34 64 64 69 84 102 90 113 98 91 93 88 88 111 88 68 35 36 38 24 22 27 22 25 49 52 53 49 47 48 47 57 43 59 68 89 125 157 156 165 173 165 177 133 174 166 164 151 158 113 116 130 95 110 168 84 59 89 42 85 85 139 171 89 106 123 175 192 151 165 178 175 136 132 101 101 100 95 90 129 93 66 97 120 95 112 143 187 167 38 140 31 29 91 70 78 51 77 73 92 108 100 93 96 98 90 135 60 30 43 31 21 27 24 25 26 51 52 51 52 47 48 50 48 56 32 64 61 100 142 154 167 175 181 128 167 171 172 159 160 140 128 142 129 113 167 165 148 59 86 81 108 81 166 176 125 122 139 169 196 178 161 161 154 138 167 65 142 162 155 96 141 85 99 128 94 101 151 181 195 194 66 76 53 64 86 69 109 75 55 75 68 107 108 96 99 99 100 105 99 26 43 21 25 25 26 23 26 49 56 45 50 52 47 51 49 50 27 83 52 91 94 147 154 154 174 115 186 167 170 164 168 155 154 151 139 169 160 153 162 116 108 107 107 113 150 142 126 134 155 174 188 167 148 149 170 155 213 79 157 178 180 106 167 94 119 139 123 124 134 162 187 202 152 67 71 79 66 126 129 116 92 62 91 101 107 98 101 100 99 90 102 45 33 21 26 23 26 25 25 52 51 53 44 64 67 60 50 36 38 92 59 110 56 169 133 128 147 145 182 180 166 168 166 167 155 176 155 168 159 146 129 126 126 120 116 117 123 114 115 125 141 147 158 141 142 163 178 143 178 121 110 121 123 95 114 102 110 141 140 129 133 132 143 153 138 103 101 99 109 142 137 139 104 84 93 106 99 94 103 104 97 95 82 65 19 22 25 24 25 23 25 53 51 40 96 138 144 124 94 57 95 110 43 138 68 144 110 107 95 175 177 176 170 177 170 165 172 180 169 147 165 145 142 136 147 131 141 142 130 117 110 115 117 122 121 137 160 171 176 113 70 65 68 71 67 54 62 96 103 108 114 105 113 108 105 110 101 95 95 97 106 112 133 137 102 102 102 102 102 103 113 112 101 86 65 76 30 23 22 24 25 22 25 52 33 83 162 164 171 164 157 137 165 132 45 126 138 138 139 80 98 203 189 181 179 177 169 159 168 167 152 150 158 161 161 171 172 165 176 166 158 142 138 129 129 138 135 166 169 175 167 95 66 146 137 130 119 84 57 90 93 92 83 78 70 85 82 92 94 97 97 94 107 111 123 124 109 119 116 104 108 115 126 117 91 70 75 69 67 27 27 21 24 28 21 56 28 147 156 110 121 169 182 174 186 148 47 117 157 162 197 90 120 206 198 190 189 181 176 158 154 148 140 150 154 161 162 173 180 184 198 189 186 179 166 152 159 171 171 175 176 169 151 66 145 209 170 165 163 147 61 92 82 94 84 69 67 87 98 98 103 113 109 113 112 115 119 119 118 120 118 112 94 108 118 104 81 85 92 88 82 74 64 15 21 27 25 38 55 163 107 54 59 125 176 189 196 173 50 114 145 160 195 97 131 204 199 192 195 178 177 162 150 152 151 166 175 170 167 181 190 197 201 202 194 178 177 164 179 187 183 175 181 153 129 65 191 212 179 173 164 180 50 95 84 80 102 79 89 113 121 126 124 127 128 125 119 118 120 115 111 110 110 99 83 93 104 105 101 102 100 79 65 91 86 17 22 29 22 28 85 160 99 64 108 155 140 173 194 181 60 114 147 149 194 77 145 201 194 192 181 178 166 157 164 173 170 181 186 181 185 188 195 203 199 200 190 176 179 187 185 191 180 175 171 140 84 121 205 205 195 176 168 188 39 86 95 75 93 95 103 132 142 148 145 144 142 139 128 129 117 109 102 88 86 81 76 97 113 122 108 108 101 71 48 76 78 26 18 30 20 27 97 156 112 98 147 187 149 126 186 177 89 116 150 147 182 78 142 196 190 188 175 170 160 165 182 187 188 186 190 191 190 194 193 201 203 197 179 184 195 189 187 185 173 174 151 129 71 180 207 198 199 174 173 183 47 61 102 82 83 100 113 145 156 149 154 145 145 138 134 130 117 110 93 82 79 84 92 111 124 123 108 109 103 66 42 56 90 29 21 24 23 21 119 149 119 122 151 185 189 97 164 166 112 120 146 146 165 84 129 191 188 182 168 166 174 186 185 193 193 193 189 192 195 192 198 202 196 190 191 196 196 185 188 176 172 175 143 96 143 211 206 195 196 173 174 182 95 39 103 94 81 97 124 146 160 160 155 140 146 140 142 134 122 116 101 100 100 112 109 116 122 118 106 107 101 73 35 52 94 27 24 23 28 16 167 149 132 151 141 183 188 136 133 157 120 128 145 145 155 95 112 174 179 175 155 175 184 193 187 192 196 194 186 192 190 194 200 201 192 195 203 196 191 183 182 171 184 160 113 122 198 213 193 190 189 171 166 175 152 66 74 116 82 97 131 143 152 161 156 147 142 139 142 138 128 122 114 119 123 129 125 120 121 116 102 104 100 74 27 54 101 26 22 27 22 22 195 135 144 163 139 188 184 182 156 122 120 125 143 143 142 120 80 164 162 161 166 185 194 194 190 189 196 194 187 195 195 193 196 194 194 198 199 194 192 182 181 179 181 136 98 182 205 202 185 191 189 176 164 160 166 134 42 124 87 101 124 144 144 152 151 155 144 145 135 140 140 133 136 138 139 141 137 126 119 117 102 97 102 70 36 49 102 34 24 24 26 62 203 126 159 161 153 187 182 176 127 90 126 123 145 147 133 140 59 155 148 154 176 194 193 195 187 194 196 194 192 188 193 186 192 197 193 199 194 192 192 184 182 174 154 88 155 200 200 194 188 191 183 177 170 157 162 164 63 87 113 102 131 141 145 150 154 153 147 142 143 145 151 148 151 150 151 154 143 129 124 117 103 96 100 68 43 51 105 36 21 24 23 98 193 127 169 151 173 181 171 150 89 118 125 118 139 144 133 146 74 129 137 161 175 194 188 194 190 194 191 194 188 187 189 190 197 193 197 197 191 194 201 189 160 152 110 99 198 195 201 192 193 194 182 179 175 155 154 158 128 23 129 114 137 141 147 148 150 149 141 141 143 145 149 155 163 161 158 156 149 131 121 115 101 99 93 85 50 50 113 37 19 28 20 113 185 137 177 147 183 176 156 148 99 168 129 110 137 143 135 132 126 82 147 158 182 186 187 192 190 187 191 186 181 185 188 199 195 194 197 196 195 200 195 163 141 120 89 176 195 198 206 192 202 214 192 180 174 161 158 148 158 37 80 131 140 148 149 155 143 151 146 144 139 142 148 155 164 164 164 152 146 123 117 114 99 99 84 104 59 52 115 37 18 25 26 132 186 137 175 148 187 173 145 143 117 190 156 106 138 140 135 131 146 99 119 157 181 180 188 186 189 186 185 183 189 189 190 198 194 198 194 201 201 197 171 138 116 80 179 192 189 191 204 195 206 216 198 181 168 169 169 147 146 117 43 114 135 157 150 156 150 151 148 146 137 145 143 157 155 159 151 145 143 120 113 109 99 102 74 115 67 50 115 32 19 29 23 123 195 137 160 158 177 164 143 134 140 196 174 108 137 133 136 139 138 149 107 138 173 182 184 177 186 182 187 190 192 196 190 193 193 197 194 198 193 176 140 126 66 162 202 191 178 175 185 187 192 196 182 171 167 168 152 132 137 144 117 53 130 156 154 157 153 153 147 139 132 147 151 154 148 141 135 136 144 108 109 105 103 104 56 110 82 56 108 21 21 22 26 78 196 150 152 159 186 153 139 134 136 196 172 118 136 138 132 142 142 149 154 145 125 168 190 182 185 184 192 195 188 200 189 196 191 198 189 190 167 136 116 133 122 199 192 187 170 170 171 176 175 161 162 160 146 134 110 108 127 138 151 84 71 151 156 160 162 155 151 144 136 142 151 158 151 141 134 138 129 104 108 101 127 84 57 101 91 72 93 11 25 21 27 21 185 169 153 144 186 155 136 142 138 165 170 109 132 136 136 140 147 148 153 178 167 139 153 188 179 183 196 195 185 200 188 191 192 186 179 151 123 113 159 149 145 187 176 166 154 159 175 172 171 147 144 147 122 109 96 100 114 127 134 139 39 92 156 161 162 152 153 153 142 135 143 157 155 138 139 132 111 106 106 121 111 82 65 89 96 85 78 9 23 24 20 30 117 186 163 131 192 156 140 158 161 133 163 121 113 138 133 138 146 153 152 177 173 179 172 158 159 156 165 190 182 178 168 171 159 149 141 126 131 138 178 147 107 152 135 114 79 96 175 164 143 129 123 126 112 96 97 94 99 105 114 141 73 35 95 140 161 156 155 148 144 129 136 150 150 137 142 132 120 107 106 96 96 84 65 85 96 90 65 12 20 26 22 46 27 188 174 130 175 166 163 184 186 164 155 119 105 145 136 141 142 155 143 171 175 178 181 180 193 178 173 176 172 171 165 171 165 162 151 139 130 146 147 107 75 104 90 58 28 17 107 155 117 102 103 98 94 97 86 49 60 84 91 120 88 32 63 86 109 133 151 150 139 122 135 144 146 134 128 114 102 96 93 95 95 82 57 89 99 95 55 15 20 21 22 57 9 135 177 159 134 186 175 187 190 199 164 103 108 134 138 140 144 151 143 161 175 176 181 180 186 180 186 189 180 175 158 149 130 115 104 96 95 105 92 86 110 87 77 51 38 33 37 105 104 79 80 75 88 75 31 18 26 45 72 101 80 48 56 77 88 90 103 105 106 103 111 114 112 99 93 98 100 108 100 96 92 71 78 105 95 98 35 15 22 22 22 51 39 66 174 174 153 164 175 192 190 191 169 122 115 122 146 139 148 150 150 147 157 166 174 177 167 174 166 166 150 135 114 109 92 82 74 71 69 83 108 144 178 135 90 64 58 55 62 89 88 75 64 73 70 46 35 34 33 43 57 56 52 50 76 86 60 69 84 91 94 109 114 117 115 118 114 117 114 110 101 95 92 59 105 115 90 97 24 19 21 23 21 48 58 25 152 173 175 163 162 192 183 184 180 109 128 116 160 141 144 153 152 151 146 150 150 156 153 144 137 140 140 135 135 134 129 122 116 106 112 142 172 192 193 186 154 113 98 80 87 106 64 61 57 49 57 75 60 55 56 58 56 47 39 39 93 127 96 75 61 73 97 114 126 130 125 124 123 122 116 112 98 98 83 66 111 108 93 94 17 21 20 25 23 47 55 30 85 175 177 171 157 186 183 184 187 122 130 131 144 145 139 155 150 152 146 138 137 139 143 139 144 157 180 174 179 179 174 175 159 153 152 186 196 196 194 171 163 131 106 90 128 120 87 53 42 48 54 68 64 67 66 83 89 78 60 64 100 144 147 131 110 102 107 111 111 116 121 120 133 124 119 106 99 97 71 68 104 100 96 87 15 18 24 21 22 53 51 43 37 134 178 165 161 186 182 183 197 120 112 134 129 144 139 154 153 157 153 146 154 147 157 160 176 180 190 189 185 189 187 183 169 164 182 182 194 190 184 138 129 153 94 113 128 131 124 54 37 45 64 56 50 57 60 86 101 91 92 103 119 153 164 157 151 145 132 121 110 109 112 116 128 127 125 107 96 95 71 69 99 99 100 72 15 19 24 23 20 55 43 51 39 36 139 154 170 187 178 185 194 150 98 108 127 135 138 139 159 158 161 159 170 165 171 179 184 193 191 189 180 183 191 178 167 177 182 173 173 171 148 109 123 132 81 130 109 127 111 75 57 57 69 80 51 52 55 89 101 100 103 128 146 159 168 163 161 153 154 138 118 110 104 101 112 112 127 106 97 95 53 71 103 102 99 34 15 23 22 20 23 49 48 49 42 46 44 107 163 180 174 174 186 154 106 106 128 138 127 144 160 161 176 163 178 175 178 183 190 190 191 187 179 184 185 173 164 185 162 146 161 144 107 97 125 114 100 124 107 106 99 107 79 95 108 76 76 67 83 90 83 100 107 132 142 160 166 166 158 150 154 146 135 118 107 107 103 102 112 107 96 93 46 66 107 104 75 15 21 20 23 21 27 51 49 49 49 48 42 31 117 157 168 164 164 125 110 104 119 140 118 156 160 153 175 171 171 178 181 174 191 192 184 185 181 186 185 171 170 174 141 123 148 125 90 109 116 115 125 98 107 99 99 130 92 111 115 120 100 81 107 86 93 98 90 116 127 142 150 168 159 159 153 149 137 128 112 109 102 96 95 98 93 96 50 75 108 103 27 18 23 21 21 23 25 49 45 50 46 42 44 35 34 92 136 136 128 71 102 109 117 126 117 145 144 142 177 161 173 172 176 171 186 190 183 178 187 181 182 166 161 139 114 134 124 112 102 117 130 130 133 84 103 113 118 138 98 125 101 124 99 85 108 86 81 108 86 108 109 122 116 165 162 160 148 148 141 124 117 117 111 103 85 89 91 74 54 72 107 62 16 18 20 23 24 22 24 47 46 48 46 44 44 36 37 33 52 69 57 33 80 107 116 129 118 137 134 134 168 159 170 173 167 180 177 179 183 178 182 189 170 142 136 128 109 134 120 121 111 132 143 149 130 112 137 146 151 151 144 122 109 103 102 94 99 111 58 101 85 105 101 97 111 144 162 161 152 150 144 132 120 126 123 96 85 83 85 67 52 77 69 20 25 19 21 21 22 20 24 44 51 45 46 45 39 38 39 40 37 42 48 21 88 107 113 123 123 130 141 118 171 164 149 169 157 179 171 173 177 182 179 195 132 138 131 124 123 127 117 123 129 137 131 137 133 128 123 128 146 157 166 142 120 128 98 107 114 99 60 90 97 90 100 92 93 121 145 161 148 151 141 134 126 123 139 98 87 73 64 69 62 54 29 15 22 22 18 23 19 25 17 46 44 46 46 39 38 39 37 36 40 37 41 30 77 100 114 104 126 113 138 124 159 158 125 150 146 161 162 172 173 185 184 186 109 127 128 120 131 105 118 132 122 106 94 100 91 91 84 81 83 96 93 97 102 102 90 92 102 88 89 90 91 96 82 101 93 97 129 156 143 141 142 129 117 111 132 102 91 82 53 65 74 33 23 18 24 20 20 22 20 22 22 52 49 42 46 39 39 37 36 41 38 39 39 27 49 116 100 99 122 109 126 132 154 137 124 142 124 152 169 177 173 187 181 173 116 117 124 110 114 102 106 107 91 70 60 39 33 28 32 39 42 49 41 55 62 65 70 74 77 64 88 96 64 81 65 95 84 96 105 150 149 138 133 133 110 107 120 111 80 83 54 57 82 32 20 23 18 24 19 22 21 18 25 51 44 45 42 38 40 37 34 37 40 35 39 38 33 125 90 75 123 121 121 120 143 139 121 133 134 145 165 166 169 180 177 155 131 102 108 103 91 90 82 67 59 48 24 15 18 18 19 20 19 18 17 23 15 22 26 36 63 56 54 69 65 55 70 72 87 97 88 125 150 145 127 125 114 101 115 117 77 75 60 53 60 44 17 26 19 20 21 23 18 21 22 44 47 49 40 41 37 36 36 38 41 36 34 38 26 96 105 78 111 122 119 115 149 135 118 109 130 137 168 159 170 181 177 139 109 104 102 91 82 92 85 53 90 109 104 87 55 39 34 27 20 18 19 23 26 36 40 49 78 75 53 46 41 45 75 78 80 99 97 99 141 151 123 123 115 98 105 108 85 72 56 68 60 42 16 24 21 21 22 21 21 18 26 48 44 46 42 43 40 38 35 38 39 33 37 38 28 84 95 85 97 111 112 110 135 125 114 97 109 138 153 145 168 177 167 148 102 103 75 110 155 166 147 129 150 159 157 153 153 141 132 123 108 87 102 119 126 143 137 132 137 139 128 101 70 49 51 84 96 85 101 107 132 144 129 108 113 93 96 103 91 62 56 67 68 28 16 22 23 19 24 20 22 22 15 47 46 47 41 39 37 36 36 39 34 37 37 33 37 67 111 90 89 104 115 115 108 109 121 87 117 126 139 141 156 160 158 123 131 80 87 157 171 178 172 159 164 165 169 157 177 161 163 154 163 162 149 161 153 164 139 142 147 142 137 120 122 137 105 89 119 94 114 95 129 136 119 104 111 83 92 97 105 64 59 74 74 37 18 19 25 21 21 20 21 21 20 46 49 44 44 37 36 38 38 35 39 33 35 36 44 47 102 99 91 118 104 111 100 105 114 85 121 126 118 125 163 141 151 114 123 65 133 169 174 179 177 174 163 148 158 156 194 172 173 164 161 168 159 160 160 163 140 137 144 125 124 131 139 140 143 104 126 108 123 108 125 129 119 105 101 76 89 96 95 72 62 69 55 30 26 19 20 21 21 22 18 28 18 46 48 44 42 36 36 38 36 36 39 38 34 35 40 42 72 87 103 127 92 110 100 98 116 98 102 143 83 128 130 141 150 119 96 71 149 168 173 176 163 155 160 159 148 145 145 156 173 147 155 161 159 150 155 146 136 131 137 133 139 134 125 124 147 117 120 123 111 128 117 129 119 101 88 72 69 96 86 65 63 56 40 27 24 24 22 22 20 22 20 23 23 44 45 44 44 37 37 34 38 33 40 37 38 36 34 38 49 84 98 117 90 101 94 97 110 101 102 128 77 132 130 133 131 134 68 85 159 166 175 171 168 153 140 146 158 156 154 157 149 142 151 156 153 140 139 142 138 136 139 122 115 114 108 126 142 118 131 125 118 115 122 119 115 104 75 67 74 80 81 70 48 53 37 23 23 22 23 20 20 20 20 25 18 43 45 46 39 44 36 33 39 37 39 39 37 35 39 36 36 69 82 100 95 92 102 95 105 101 107 105 104 115 115 120 122 108 111 61 166 162 175 165 162 159 137 141 130 131 138 131 128 123 126 120 113 115 119 109 108 99 110 108 112 112 112 122 129 121 138 117 120 108 121 106 112 103 93 53 82 78 69 63 41 49 34 22 21 22 18 18 21 23 17 25 15 47 44 40 42 36 38 38 34 38 37 38 39 36 40 33 46 48 78 93 88 87 103 82 112 82 114 98 114 105 98 123 132 102 115 82 161 153 168 157 154 149 136 156 118 127 105 91 75 61 77 71 61 80 62 70 84 70 119 82 116 112 117 123 120 110 129 116 120 90 116 103 99 91 99 53 72 71 68 60 36 51 32 23 18 24 19 20 22 21 16 23 21 47 44 49 35 37 41 34 37 37 38 35 37 36 37 38 41 35 71 96 69 88 85 89 116 85 120 100 99 110 96 118 141 100 99 125 164 154 157 153 157 136 134 138 118 124 101 99 77 68 92 105 52 94 86 84 77 73 103 83 103 106 119 114 109 105 120 127 116 81 93 90 97 88 76 75 65 65 71 63 32 41 27 21 24 16 22 19 22 18 20 20 25 49 44 46 43 40 37 37 37 36 33 41 38 35 39 38 39 28 58 87 65 74 89 66 108 95 114 91 102 86 117 102 130 69 104 135 164 159 152 153 163 138 141 134 111 110 100 88 92 74 69 121 74 64 105 87 85 93 96 93 98 98 104 114 110 106 121 114 107 79 67 81 79 60 60 78 58 68 60 59 39 26 19 22 22 19 23 20 18 20 18 22 21 52 45 42 43 38 37 39 38 38 34 40 32 38 36 38 37 30 60 68 65 73 86 63 85 117 103 89 100 92 105 83 104 76 93 111 153 147 155 157 154 146 143 139 117 115 113 97 121 82 81 125 98 104 125 92 113 103 99 96 109 108 104 120 111 112 117 108 82 99 62 65 59 55 58 75 59 73 62 51 31 21 20 22 21 21 24 18 20 18 22 22 20 46 43 47 43 42 40 40 34 34 38 40 34 36 41 36 34 41 39 62 54 73 74 78 78 97 86 88 99 89 104 78 82 91 86 102 149 123 163 152 150 156 150 151 145 129 140 119 128 125 81 130 99 137 122 109 120 111 98 100 104 125 120 119 108 105 136 86 84 95 56 44 68 59 49 62 56 75 45 51 25 22 23 19 24 18 23 22 18 20 20 21 20 52 44 46 44 38 42 39 33 39 35 37 41 38 36 37 38 37 30 53 62 62 74 81 79 91 99 72 87 80 101 75 70 95 77 88 121 127 160 139 140 159 150 151 167 158 168 130 134 140 109 133 112 133 142 124 143 128 111 109 108 125 125 112 117 102 109 85 84 64 50 53 64 56 57 58 61 63 43 51 28 22 20 21 24 20 18 25 21 18 20 21 21 46 47 48 42 45 41 39 39 36 37 39 37 35 37 39 41 34 32 41 60 67 75 64 80 81 97 61 89 48 102 58 54 76 95 83 116 143 134 147 138 164 165 158 161 152 170 136 139 138 118 130 108 122 134 127 157 134 112 144 127 119 121 104 101 97 88 89 81 74 44 46 63 63 58 53 62 47 46 24 42 32 19 21 23 16 18 23 25 18 19 20 21 44 49 47 45 42 38 44 35 36 43 34 42 34 36 40 35 37 40 27 61 60 66 65 72 90 66 82 75 53 57 82 72 65 79 63 113 129 120 136 133 167 167 152 148 151 152 136 143 116 153 109 120 121 139 149 150 139 114 126 142 127 101 99 86 86 72 65 55 62 40 46 48 66 54 55 54 49 36 20 27 30 16 24 19 19 18 21 27 17 25 19 18 45 46 47 47 46 41 40 40 37 36 41 39 36 40 38 36 28 52 34 85 56 71 63 65 96 53 80 70 58 55 77 65 61 65 62 92 99 107 129 140 138 139 122 135 132 139 151 132 110 167 107 126 110 139 143 145 115 140 96 113 125 124 85 69 85 48 51 55 47 57 40 41 64 44 57 46 54 42 26 20 27 20 22 18 19 18 23 22 23 23 21 20 52 46 46 46 42 43 42 40 39 38 40 39 37 39 37 34 26 57 112 86 69 65 69 45 72 61 47 63 53 63 57 60 64 47 69 72 80 115 104 114 140 110 110 122 111 138 136 122 105 152 107 126 84 145 130 150 104 131 91 98 109 98 86 72 71 41 43 57 29 74 35 38 57 43 44 64 49 48 24 25 20 21 22 18 16 17 22 24 21 19 19 22 47 49 50 41 47 45 44 40 38 35 44 34 42 34 36 24 76 130 92 40 105 50 64 42 70 46 40 40 57 64 39 77 58 44 69 79 54 112 101 106 113 97 99 107 107 116 129 124 104 116 111 104 94 135 138 139 118 110 78 95 101 66 89 50 56 58 30 42 35 59 32 40 55 49 34 54 58 48 22 21 25 22 22 17 18 21 18 23 21 20 22 20 47 51 47 45 48 39 44 42 36 41 36 39 34 38 21 98 151 108 49 19 112 72 49 35 67 36 45 41 63 51 48 57 53 45 67 78 53 82 89 82 80 87 87 96 105 104 130 132 104 111 109 85 95 111 139 125 124 92 69 98 68 113 63 46 58 32 37 36 34 49 31 36 52 40 45 41 42 44 22 22 24 19 26 19 20 17 20 21 23 20 19 24 57 44 52 42 49 39 42 40 44 38 37 38 35 20 101 165 126 73 30 18 104 101 44 41 47 43 41 53 51 52 43 44 57 33 72 64 57 69 62 80 62 102 82 96 92 96 117 132 99 105 90 77 98 105 95 128 92 98 84 79 62 103 58 37 50 34 27 38 36 37 34 36 52 32 46 42 30 35 20 21 22 24 21 18 18 18 19 23 20 22 22 20 49 50 50 44 49 39 44 43 44 40 37 42 22 105 171 142 103 34 42 15 81 111 54 42 48 34 41 45 43 63 26 56 45 37 87 50 56 56 54 76 43 92 90 82 94 94 105 123 100 100 91 80 88 111 65 131 76 104 79 47 72 45 63 33 33 35 35 31 35 48 39 37 47 31 41 45 24 31 21 20 21 24 22 18 20 18 20 21 22 23 21 20 47 49 50 46 48 44 46 42 48 38 43 19 82 178 156 120 52 35 36 12 68 107 78 50 44 43 48 31 49 44 30 44 47 39 70 37 72 50 68 62 52 71 109 51 100 78 69 112 72 74 96 77 82 68 77 103 60 103 57 68 59 43 46 39 20 60 33 27 37 43 42 29 34 45 40 46 28 18 20 21 20 24 19 22 19 19 17 21 21 25 21 23 42 54 49 44 48 42 47 45 42 40 35 54 172 172 137 68 37 33 32 14 56 105 96 66 36 47 41 33 57 41 25 53 26 54 50 32 85 54 64 38 83 41 109 49 80 65 63 80 62 74 82 85 62 64 69 83 45 109 31 83 38 46 29 48 24 43 37 37 43 38 46 33 33 39 36 83 26 15 20 19 22 22 23 19 19 20 17 21 23 22 20 19 44 52 44 51 48 43 47 43 45 40 25 155 182 160 113 40 37 30 26 15 52 102 99 81 53 39 50 41 40 37 24 40 28 71 52 33 71 57 35 51 86 60 81 49 55 57 80 43 66 72 60 87 39 62 54 58 62 94 23 59 27 42 23 40 29 30 33 32 45 35 30 38 31 57 25 78 83 15 20 17 25 22 22 21 20 19 19 21 22 20 23 17 50 46 50 40 50 45 49 44 48 16 113 189 167 155 73 36 22 41 40 9 59 100 96 103 76 31 57 27 37 35 27 37 36 70 65 56 47 57 26 52 50 77 57 49 56 45 70 30 65 40 71 63 57 43 43 36 79 50 35 33 30 30 25 29 25 33 29 23 38 28 33 30 45 63 32 39 106 49 12 18 20 22 24 19 21 19 17 21 19 26 16 23 56 44 51 48 44 51 42 49 36 48 176 186 163 151 54 18 82 90 45 5 65 97 97 103 100 25 46 29 38 34 30 41 40 42 39 65 31 57 35 44 52 52 52 45 49 50 47 38 70 22 52 54 40 30 36 34 65 48 35 29 27 22 23 28 25 22 23 26 31 28 30 21 59 42 25 45 75 108 21 18 22 19 23 20 23 20 18 22 19 20 23 21 45 53 50 48 46 51 48 47 19 138 190 169 156 138 30 65 141 63 18 9 71 98 99 98 97 64 45 36 45 39 39 42 41 28 58 24 47 39 49 43 34 36 43 44 48 35 40 49 53 37 33 50 24 27 28 25 74 28 24 39 22 22 24 19 31 22 26 27 20 30 34 32 80 23 17 58 62 107 91 50 27 17 24 20 22 21 19 21 22 20 27 15 45 45 55 47 50 45 38 55 97 187 179 154 165 118 29 143 106 12 21 12 75 101 95 97 99 79 52 32 56 45 39 38 33 36 34 40 34 23 30 44 33 24 45 36 37 38 41 40 24 27 28 44 24 28 22 31 68 19 22 28 29 16 24 23 28 21 22 27 28 22 30 56 78 12 12 52 68 85 112 70 78 37 22 24 25 23 21 22 21 17 25 16 45 47 46 47 47 63 100 134 160 187 168 154 173 85 54 175 42 14 28 10 68 109 96 94 108 84 88 26 50 41 33 39 35 39 41 40 38 26 34 29 35 33 35 27 32 36 41 33 28 22 38 30 30 24 24 54 53 20 23 32 24 26 25 19 22 22 25 27 30 28 33 65 66 10 18 38 76 74 105 85 50 79 85 95 92 94 87 86 81 70 69 77 41 42 46 82 122 137 178 179 167 184 154 189 155 81 93 167 26 17 22 8 61 114 97 92 101 99 70 46 34 41 36 33 34 36 37 36 37 29 28 30 30 38 25 30 23 41 37 25 28 23 37 25 34 19 38 39 26 36 41 15 27 31 33 23 21 24 20 34 28 34 56 72 52 11 23 26 67 90 86 110 59 84 110 98 91 101 101 103 106 102 84 103 39 47 132 156 175 201 217 168 177 178 158 212 114 78 152 112 7 20 21 10 55 116 100 98 97 101 73 44 40 40 42 27 30 42 30 40 44 27 23 21 33 32 26 36 27 32 38 32 25 26 29 29 32 27 30 30 20 29 23 21 19 45 12 24 23 21 25 29 30 43 62 79 35 14 28 36 41 103 77 106 95 69 119 130 84 79 74 82 77 80 83 97 81 164 204 200 202 197 198 165 176 164 194 179 108 76 163 77 5 20 15 20 60 103 107 101 94 105 86 47 34 34 32 31 26 30 26 25 29 28 30 24 25 29 28 25 35 27 34 34 28 27 37 29 29 29 29 28 21 30 18 25 21 23 23 18 30 22 23 50 49 67 72 78 16 19 26 47 33 88 95 93 111 56 52 87 120 101 88 88 100 105 93 102 185 200 162 136 129 189 170 171 177 161 231 128 127 79 143 48 13 13 39 43 61 95 111 103 100 103 93 70 37 36 25 39 23 28 28 19 28 31 26 31 25 29 24 26 34 32 39 27 32 28 29 27 27 25 21 28 24 25 19 20 26 17 27 26 27 29 40 72 66 70 70 70 8 19 35 39 47 67 118 86 112 75 29 56 73 88 98 94 114 151 143 90 