P2
92
112
255
97 94 92 93 90 93 89 89 98 92 92 88 88 90 86 75 80 91 94 92 76 74 73 60 48 47 55 43 39 38 38 19 23 19 48 49 23 36 15 34 43 60 50 65 55 51 47 40 40 65 50 56 85 73 58 50 43 54 74 66 67 73 69 95 83 72 72 62 48 35 29 33 31 31 33 35 53 56 48 63 85 82 84 79 86 84 86 82 82 85 84 80 89 92 94 92 93 91 92 90 93 91 89 90 88 81 66 82 97 102 86 87 85 78 63 39 43 46 45 39 34 28 34 28 20 31 43 48 27 40 21 32 41 40 63 57 68 71 55 50 38 41 58 67 79 65 63 54 56 64 48 66 65 54 57 58 71 77 75 82 73 54 44 38 38 22 26 22 24 33 47 51 46 68 85 80 86 82 86 76 87 82 83 85 90 93 92 92 91 89 94 88 95 84 90 79 70 74 76 86 87 90 82 86 82 52 37 47 38 48 45 38 33 32 25 38 26 36 44 46 34 46 31 34 44 40 42 63 58 61 86 70 58 60 49 46 70 70 67 59 46 75 71 64 62 54 57 73 53 50 57 70 77 68 58 63 55 33 28 28 21 15 25 42 48 39 64 74 86 83 83 79 86 79 85 82 93 90 91 97 90 92 93 92 89 88 78 69 70 69 74 91 88 89 90 72 54 39 43 49 53 45 43 36 35 31 31 28 43 39 42 43 39 53 45 37 49 47 42 50 72 51 65 77 81 85 77 64 49 63 73 71 53 56 63 63 62 64 61 65 65 48 50 48 62 63 57 66 75 63 49 42 24 26 19 20 41 50 42 38 76 86 81 83 81 84 83 79 88 95 89 94 92 90 90 93 86 70 67 62 68 72 80 94 89 78 68 48 48 51 59 49 56 46 40 43 35 37 33 30 33 49 45 47 33 55 58 29 51 56 43 46 49 72 64 56 69 97 97 87 79 66 57 72 58 55 47 52 54 50 63 61 55 59 55 60 49 49 55 44 59 74 65 59 47 42 27 22 27 36 44 39 28 63 86 83 85 81 83 80 93 93 90 91 95 91 91 97 68 62 58 66 80 70 67 83 67 57 51 55 74 71 67 44 52 40 34 52 32 44 37 31 30 35 53 46 51 55 68 41 35 67 59 45 42 51 71 71 71 67 68 99 102 105 74 55 72 44 44 49 47 56 55 54 50 47 52 61 69 58 48 51 42 58 61 66 60 60 50 46 28 33 31 40 38 22 59 84 81 83 83 80 91 91 89 91 93 90 101 77 61 51 61 66 67 71 69 76 74 58 68 69 77 71 62 41 48 35 35 48 41 45 38 40 39 38 45 46 44 59 72 68 23 56 68 61 68 44 58 66 77 69 68 64 94 99 98 102 85 76 55 56 52 48 57 55 44 47 46 44 44 60 62 61 46 38 44 53 61 46 46 52 42 38 38 30 35 40 27 56 86 85 83 83 90 94 92 89 90 95 93 71 50 53 59 70 76 67 72 79 69 72 56 67 82 78 61 43 39 38 31 47 58 44 43 40 42 39 47 49 48 58 63 65 51 43 66 55 77 82 53 60 79 69 78 74 79 87 98 109 111 96 92 89 66 53 50 55 50 46 48 56 45 46 44 56 45 49 41 43 50 48 37 38 41 43 33 31 28 37 34 47 75 80 83 79 91 97 89 92 91 96 84 65 44 61 70 74 74 69 64 61 64 61 57 86 82 57 50 50 49 34 36 37 52 60 43 53 49 46 49 49 43 57 63 62 62 66 57 72 67 73 94 97 65 72 87 77 86 65 79 98 113 106 87 104 104 81 71 69 56 45 47 49 51 46 48 44 46 50 45 55 46 44 49 37 40 39 37 27 31 29 34 38 73 80 85 79 89 94 91 91 94 98 68 57 49 69 72 72 72 65 55 53 50 67 87 76 69 58 46 58 41 40 35 46 42 52 44 55 56 57 57 52 45 53 54 75 60 66 76 64 74 73 91 122 103 86 91 92 91 76 57 71 85 100 93 73 98 101 97 94 80 56 52 42 52 46 46 38 56 32 46 43 53 51 51 51 42 40 30 29 25 28 37 26 45 78 82 83 92 95 90 91 97 83 61 57 62 77 75 71 57 46 54 45 60 77 67 77 80 57 41 47 43 43 46 49 46 42 50 40 44 74 58 63 61 60 54 66 73 47 71 76 80 80 88 95 111 115 105 87 105 92 73 53 61 91 101 98 88 100 90 93 116 65 41 55 54 52 55 41 39 50 40 36 37 44 45 52 51 42 42 34 23 27 26 28 31 54 84 83 91 91 92 92 88 73 56 68 79 81 69 52 43 52 41 55 80 83 84 89 64 50 45 50 49 45 53 59 54 45 52 46 43 51 73 59 62 58 50 71 76 63 46 83 71 85 83 96 101 109 107 96 86 96 98 85 66 54 78 105 88 97 99 97 90 108 75 40 61 52 55 56 52 45 54 37 41 45 30 34 40 49 51 37 38 35 25 32 31 36 63 83 96 90 93 95 87 68 59 70 78 64 43 44 48 44 48 74 83 92 87 83 61 57 51 44 66 54 51 50 55 50 32 63 54 49 52 79 67 68 58 53 70 73 66 47 80 87 88 85 94 104 93 89 93 77 102 105 97 62 53 85 101 80 78 82 92 78 92 86 62 60 61 57 51 45 57 47 37 41 44 29 27 30 41 39 38 38 29 28 29 30 46 78 91 93 93 96 82 53 60 66 49 45 38 41 33 52 74 84 97 105 90 80 64 66 59 70 83 68 43 47 61 51 47 49 61 67 58 60 70 71 60 59 46 72 79 67 56 67 94 102 91 77 93 87 90 82 79 100 103 101 79 70 84 93 91 82 84 72 82 86 89 73 60 56 63 47 41 44 39 42 34 37 32 36 36 21 30 35 38 39 16 24 27 60 91 95 93 87 62 49 62 37 42 35 32 30 53 70 85 92 111 116 97 83 74 70 80 85 86 77 48 47 74 40 56 65 63 58 79 70 59 64 54 59 51 48 73 62 76 75 54 82 102 82 67 71 81 86 81 78 100 89 102 99 74 70 104 94 77 82 74 83 85 81 76 43 50 69 44 32 41 39 38 42 34 31 33 36 20 26 35 40 34 23 16 37 94 93 91 73 51 55 41 34 40 31 30 54 64 81 89 111 116 118 92 86 73 97 85 100 100 83 66 57 69 53 45 58 72 56 72 72 73 57 69 69 37 39 48 58 55 70 69 52 61 87 78 63 72 78 80 78 75 85 84 96 91 85 77 98 90 73 83 78 73 80 84 62 52 42 61 39 29 40 45 43 42 26 33 26 32 35 36 25 40 42 20 21 94 94 73 48 52 42 33 37 41 31 45 61 78 89 118 113 113 105 95 88 96 114 93 110 103 86 80 74 79 50 59 55 65 57 61 64 78 71 75 83 69 32 36 43 45 49 60 64 54 42 77 73 66 69 77 79 84 77 87 77 85 86 88 88 88 87 80 75 78 91 83 71 83 60 49 47 52 30 41 57 45 39 28 30 26 20 25 24 28 36 30 21 91 69 53 45 47 39 34 40 37 44 66 65 88 102 114 100 94 104 100 95 107 113 91 118 106 107 82 79 80 57 65 62 63 57 58 69 64 81 68 76 83 54 32 55 32 46 46 52 49 52 51 66 60 67 74 79 70 72 84 84 82 75 85 90 88 91 94 87 69 75 79 76 76 76 73 58 50 52 33 41 42 45 29 32 33 22 25 20 18 26 37 33 69 58 52 39 52 35 34 41 46 63 68 81 97 105 94 86 104 108 101 106 115 110 108 126 117 105 89 85 83 57 62 63 71 67 56 84 77 80 80 70 79 72 59 58 57 41 48 34 41 52 38 51 56 51 60 72 74 70 70 68 75 80 68 69 83 97 91 91 82 66 91 45 75 75 68 74 62 47 48 37 42 39 44 35 36 32 24 22 18 15 28 39 72 53 44 41 35 37 38 48 61 62 77 84 97 88 82 94 111 104 102 120 117 119 124 125 130 89 91 96 82 64 63 60 73 75 65 66 92 71 86 82 84 85 63 60 56 54 54 47 36 34 48 40 45 51 48 65 61 82 72 70 65 69 79 75 69 76 85 79 75 85 90 76 58 60 78 66 74 58 55 44 38 39 41 48 41 36 30 24 19 20 23 32 50 45 39 41 24 43 45 59 68 71 77 75 81 75 90 106 109 108 114 122 124 136 129 140 135 88 93 105 91 61 56 65 73 75 63 61 80 87 77 89 78 99 79 59 47 58 52 47 48 37 37 39 44 41 48 46 63 58 87 86 82 69 72 65 67 73 69 70 58 69 99 87 83 72 70 66 69 66 62 38 45 41 39 35 43 39 35 32 25 18 26 18 40 49 47 30 39 46 57 67 76 71 73 70 73 85 104 106 115 116 128 136 145 146 138 147 150 91 99 102 91 75 60 57 65 89 70 72 59 83 90 89 87 72 93 72 58 50 53 51 36 34 38 40 47 38 43 51 51 49 67 62 71 71 63 68 56 56 56 71 74 60 63 92 79 71 76 75 57 71 73 60 51 47 43 39 24 42 45 31 19 26 28 25 49 41 39 41 45 52 59 66 67 62 73 74 80 102 96 103 114 118 132 140 151 159 149 145 144 105 95 99 91 87 70 52 70 71 91 75 66 52 90 95 89 83 71 92 73 59 43 52 38 38 39 33 36 44 33 52 45 44 52 54 53 56 68 73 68 64 54 47 45 62 64 62 75 71 71 68 65 64 64 61 61 53 40 36 25 26 39 37 34 21 29 26 33 36 41 47 48 48 67 65 54 69 73 88 106 105 97 112 117 121 127 141 150 157 150 131 137 124 94 93 87 81 86 57 68 69 80 91 77 63 71 91 91 86 80 69 79 78 79 45 45 46 34 42 32 30 38 49 39 42 46 52 55 52 55 58 71 67 69 61 52 46 51 46 61 70 57 66 58 64 68 41 57 50 41 35 35 24 32 31 35 24 32 22 32 37 43 47 46 63 58 51 67 78 85 104 110 110 111 125 134 142 146 158 162 151 146 122 133 132 105 88 83 75 76 88 71 71 63 86 80 73 61 85 87 92 80 73 70 70 87 66 41 55 36 45 51 26 32 47 43 43 46 52 49 68 58 64 64 56 56 70 67 68 56 51 37 58 64 51 52 68 63 51 42 55 44 48 40 30 26 20 28 27 32 25 36 38 46 39 59 63 46 58 82 77 100 95 97 111 118 129 147 163 165 172 178 167 163 123 124 135 118 92 82 73 74 71 95 87 68 69 87 76 63 75 75 79 88 74 69 81 66 83 58 62 53 47 54 56 34 40 43 45 43 54 52 63 60 75 67 69 63 69 64 77 81 74 59 39 54 47 51 50 60 65 42 54 52 54 29 47 24 23 23 25 27 25 39 38 47 53 55 48 52 74 76 88 90 95 108 120 116 145 154 164 165 166 165 166 164 136 142 138 135 108 84 76 76 65 70 96 98 95 89 76 85 63 72 59 85 93 74 87 76 73 86 66 64 61 34 49 54 46 30 47 40 44 61 53 40 61 66 69 68 66 73 69 72 68 65 60 65 57 55 50 44 54 56 38 48 46 40 32 35 26 23 25 24 25 36 40 49 54 52 53 66 82 94 92 87 113 116 111 128 136 143 147 151 158 154 162 142 149 147 142 138 111 97 88 73 73 64 76 77 76 97 94 80 66 66 61 54 74 79 76 80 63 86 84 66 61 62 56 40 50 50 38 47 36 52 61 59 50 48 48 62 57 59 64 62 68 61 51 51 44 56 45 46 37 41 51 38 37 43 40 32 37 14 26 23 20 40 50 44 48 55 62 77 101 87 88 104 115 120 134 151 154 157 153 145 142 146 154 126 146 145 143 132 108 94 88 85 80 66 73 78 74 88 94 84 77 72 70 65 63 67 81 83 61 66 76 89 72 69 71 66 50 50 54 59 51 35 52 60 61 52 48 61 44 46 53 48 57 56 52 56 57 51 46 39 55 32 34 36 27 42 35 44 42 34 19 25 22 38 40 48 51 56 69 84 85 86 98 116 116 128 147 155 159 160 166 168 153 151 143 117 132 131 137 123 109 101 86 81 89 80 69 57 56 78 83 78 72 73 65 66 66 67 65 83 76 40 60 77 88 78 77 71 68 62 55 63 55 58 48 40 59 57 52 49 54 51 43 45 47 49 44 46 47 52 54 48 38 50 39 32 25 28 34 35 43 46 20 23 21 42 39 55 51 58 84 80 83 108 111 113 126 137 141 146 155 150 163 162 163 174 155 122 147 135 131 111 110 107 94 83 77 84 83 74 61 67 68 70 73 72 65 67 66 69 69 62 66 49 44 56 69 78 83 96 82 74 70 57 43 63 71 58 55 57 53 58 47 53 44 47 43 50 53 49 49 39 47 54 45 36 46 41 36 28 26 34 34 36 24 24 32 45 39 56 60 66 95 86 94 118 112 116 132 138 134 145 154 153 150 154 148 166 153 131 159 151 135 123 113 111 108 90 80 79 86 63 68 65 60 65 54 65 67 65 60 60 66 67 57 53 56 46 40 60 58 63 91 102 95 82 66 63 50 56 54 62 60 54 53 46 57 48 49 53 53 61 58 40 43 41 53 50 37 41 51 47 39 31 30 45 31 20 26 36 45 53 72 83 93 99 105 107 107 122 135 135 136 139 142 144 148 148 148 151 152 130 160 162 141 132 124 120 119 102 83 75 83 78 72 52 55 46 54 44 50 64 70 53 52 57 55 57 65 66 67 55 52 45 48 57 68 92 93 56 41 48 43 46 41 47 50 47 42 44 48 47 40 38 53 63 63 63 37 40 52 37 46 35 51 48 48 48 39 18 26 30 49 66 87 85 98 102 106 111 132 149 150 152 148 155 153 145 142 144 150 150 150 128 150 153 137 136 132 132 127 117 100 86 78 76 80 57 53 49 48 45 36 48 42 56 51 50 46 48 46 55 74 81 79 69 55 58 58 65 62 60 53 48 43 44 49 45 33 32 34 37 33 41 41 40 41 38 51 64 70 62 54 43 48 45 33 33 38 36 35 30 26 35 52 80 93 87 101 101 114 123 145 156 158 161 153 161 165 158 151 144 142 154 147 136 141 147 139 139 134 136 133 119 113 92 89 80 74 69 60 50 56 45 47 37 33 36 42 41 47 46 47 52 49 70 77 72 61 58 57 55 52 45 43 41 45 43 47 40 51 46 35 33 40 29 39 38 34 30 32 37 53 58 63 65 40 31 35 30 35 27 42 32 33 41 57 84 91 94 96 110 116 134 142 158 161 160 164 163 170 165 159 164 156 157 154 142 136 140 142 147 138 135 138 132 119 106 97 87 81 69 60 59 57 46 45 38 35 30 32 27 36 28 40 33 39 47 49 48 51 55 67 66 58 48 39 43 43 41 52 43 40 48 38 40 30 36 33 35 42 40 44 31 36 39 46 62 56 43 31 31 30 30 30 25 29 34 60 89 92 97 111 103 121 140 143 148 153 161 157 162 169 166 160 166 167 165 162 148 140 136 140 154 144 136 138 138 131 118 103 100 86 81 75 57 56 51 51 46 44 39 31 36 28 29 28 31 25 29 43 40 51 39 44 62 58 72 62 49 37 37 38 45 39 36 43 35 47 44 36 27 38 31 43 42 36 32 26 39 38 42 36 37 22 24 24 19 23 33 53 92 96 100 106 105 119 140 136 139 145 146 147 149 163 164 161 165 169 167 172 156 148 133 142 153 151 141 137 133 144 133 117 102 98 86 86 71 61 55 57 46 47 46 45 40 42 37 36 34 36 30 27 31 30 33 24 34 37 40 47 42 40 43 36 43 38 32 36 35 32 35 51 49 33 35 32 38 35 53 42 32 34 26 26 28 25 24 22 22 24 29 59 95 101 94 109 122 113 132 123 134 137 149 140 137 142 157 154 164 169 164 168 163 149 136 129 142 146 141 142 135 139 141 127 122 112 102 89 90 76 61 69 54 51 49 44 43 41 36 35 31 28 33 28 28 29 27 31 31 38 32 39 32 40 35 39 33 40 37 38 43 41 35 26 44 51 41 30 33 31 35 39 47 39 38 27 26 34 26 32 27 22 25 63 91 101 107 113 109 110 114 113 118 131 131 137 135 139 139 142 155 162 160 156 159 146 135 122 129 138 136 130 137 138 135 133 127 126 111 99 91 94 73 70 65 63 53 45 45 42 37 36 38 37 40 31 29 32 29 36 33 36 33 39 44 43 40 46 47 40 33 37 49 42 44 33 36 46 43 45 29 24 28 26 32 39 38 33 27 30 26 28 28 26 13 73 100 102 115 101 93 106 92 110 101 109 117 121 122 129 129 131 141 146 143 149 146 147 132 124 114 129 131 133 127 135 136 134 126 128 121 112 108 94 96 85 81 73 74 63 62 52 42 45 37 40 45 44 41 37 30 38 33 36 35 37 39 49 48 37 43 44 41 37 39 35 40 40 43 42 40 43 35 36 31 21 23 27 29 32 35 27 24 20 21 23 19 77 109 97 104 89 92 97 88 97 91 79 90 89 92 97 116 122 124 131 127 136 143 135 134 119 116 110 119 126 125 126 132 134 128 125 122 118 116 106 98 97 89 88 85 85 76 76 63 63 51 47 46 50 40 40 39 32 36 35 38 35 30 41 35 45 46 40 40 40 31 39 40 37 51 45 39 44 48 38 42 36 28 25 26 19 24 25 23 21 20 20 12 92 108 94 87 83 77 85 79 77 80 67 72 68 70 80 90 100 106 111 120 123 135 131 134 114 109 114 101 111 115 116 112 121 126 126 121 114 118 100 105 94 95 88 94 97 88 82 73 70 68 61 49 51 53 45 40 42 39 40 36 31 30 31 36 36 40 40 45 36 38 35 39 31 34 42 34 39 37 47 28 36 33 25 23 31 23 19 20 20 25 17 16 99 104 84 83 70 76 80 74 74 74 78 69 66 66 63 74 82 87 96 100 114 125 128 132 105 113 108 103 102 109 106 104 107 113 119 114 115 111 104 98 96 92 84 93 91 90 86 77 80 71 65 65 55 59 58 60 49 50 42 46 45 37 38 34 36 31 31 32 39 38 37 33 35 37 36 41 38 44 36 40 35 32 30 18 26 27 25 23 19 26 23 16 97 106 79 78 74 81 81 86 83 78 80 80 70 71 68 65 74 81 83 93 98 112 119 119 110 117 103 96 105 103 88 95 102 109 107 107 106 100 96 91 92 85 85 81 85 86 83 78 80 78 75 74 76 70 73 77 75 72 62 59 51 47 47 47 40 36 35 36 31 37 32 38 45 48 51 46 40 42 36 31 37 29 32 25 24 28 28 22 22 17 21 22 100 95 83 77 82 83 84 79 81 77 77 72 73 66 69 62 68 72 75 82 87 101 113 110 111 111 99 95 97 91 92 92 99 100 101 93 95 95 91 86 88 79 86 67 62 68 69 73 75 77 78 73 72 76 79 82 89 81 77 74 71 68 64 53 57 53 47 45 43 44 40 50 54 56 62 60 48 34 30 25 28 32 29 30 31 24 28 27 22 26 22 24 105 93 86 82 79 82 80 69 63 55 48 49 47 46 47 45 58 63 69 75 70 90 109 113 111 104 94 92 101 102 99 95 97 98 98 90 88 88 85 88 81 79 69 68 63 57 63 67 73 68 72 65 64 71 79 82 89 85 91 86 82 84 89 78 65 65 62 57 58 63 58 64 69 69 66 64 53 39 23 22 23 19 40 31 34 31 27 27 27 26 19 26 113 96 76 76 86 75 77 43 48 46 59 59 60 49 47 38 38 43 58 67 69 70 98 120 109 105 99 97 99 107 106 101 98 97 94 83 91 83 85 81 79 77 69 77 69 66 73 69 75 75 77 74 76 77 82 90 86 82 86 89 90 91 92 94 80 69 71 76 71 80 79 76 81 85 79 71 62 41 30 28 18 17 37 38 35 40 33 28 24 26 22 29 118 99 80 81 81 80 50 52 64 70 68 60 63 57 49 52 53 42 37 49 62 54 87 119 127 118 108 111 114 111 105 103 103 91 85 81 83 78 81 79 75 75 75 65 68 59 55 65 61 68 78 79 85 83 87 91 86 88 85 91 85 95 98 99 87 83 81 86 90 90 92 93 88 90 96 84 71 43 31 18 27 16 32 38 41 32 37 41 22 30 18 21 110 110 81 78 79 64 49 75 67 64 67 85 68 44 50 29 35 41 45 38 51 58 55 116 141 135 131 132 134 124 114 103 97 85 83 77 81 74 75 77 73 68 62 45 41 44 45 49 48 51 54 52 62 70 86 84 88 94 88 91 90 89 97 93 93 94 95 94 88 96 97 96 97 97 101 96 91 53 34 21 21 26 27 40 29 42 34 38 41 31 29 35 102 115 83 78 77 68 63 67 50 74 102 109 56 24 57 26 35 26 41 48 52 49 45 100 162 155 154 154 152 136 119 103 88 81 83 80 76 77 71 78 66 51 50 47 51 52 49 58 58 65 70 66 58 53 55 73 85 88 91 90 90 88 91 90 93 91 93 93 93 103 98 103 104 102 104 99 95 77 34 29 18 23 30 34 37 33 41 27 34 37 29 53 111 115 93 65 75 70 63 62 54 92 121 106 49 39 33 24 35 34 40 48 60 53 33 102 165 165 168 163 160 145 130 98 78 84 85 81 71 76 68 69 51 50 49 52 58 57 39 40 34 40 46 63 66 71 63 44 68 82 90 87 88 89 90 91 85 90 96 97 103 106 104 102 102 105 103 99 86 84 47 29 22 17 37 33 32 34 29 40 33 24 35 74 114 120 108 80 73 83 88 87 95 96 112 119 66 53 48 49 42 36 56 50 61 68 37 110 170 167 167 168 159 148 126 91 80 92 83 74 71 68 63 56 54 53 51 73 95 79 33 44 50 28 33 33 42 61 80 72 51 70 83 87 88 88 93 89 89 95 98 100 102 108 104 97 103 103 105 94 84 70 61 19 25 17 35 43 23 40 25 38 42 30 26 52 110 129 129 113 101 122 128 118 109 105 115 119 107 92 101 101 80 66 72 65 67 83 69 122 164 164 163 164 162 151 122 88 91 88 83 67 69 68 66 67 57 57 75 95 113 70 51 35 27 25 36 27 47 54 56 72 74 67 75 83 91 88 93 96 89 99 98 101 102 110 103 102 103 102 103 92 69 73 54 31 21 20 28 47 26 37 37 28 44 38 30 50 120 130 134 133 125 127 120 122 122 116 110 106 100 108 117 118 104 99 93 108 102 105 102 139 164 165 166 163 160 150 127 99 102 93 78 70 74 77 79 46 76 78 76 90 113 94 46 55 51 39 38 36 69 67 57 56 66 70 77 84 91 87 94 92 96 99 101 103 108 109 105 104 99 107 102 84 64 69 59 28 15 28 34 43 32 25 35 40 35 39 42 64 119 128 137 144 123 133 123 113 120 128 125 123 110 106 104 100 91 89 94 98 112 115 117 146 165 169 166 154 156 142 123 115 114 105 81 79 89 86 83 59 68 69 67 81 96 100 72 67 60 60 56 71 80 78 85 84 77 76 75 85 91 93 95 94 101 101 104 108 103 109 106 106 107 104 86 78 49 68 39 30 23 28 39 35 31 25 32 36 38 34 36 63 116 133 136 146 125 131 132 111 101 105 110 108 106 100 94 93 86 86 107 115 120 125 123 150 168 172 165 155 143 131 125 123 123 111 99 95 89 90 88 85 74 74 75 85 89 96 89 96 87 105 96 92 98 107 110 108 105 100 100 98 98 99 104 102 104 106 114 110 108 105 109 101 105 97 74 60 46 47 40 29 28 30 42 30 35 28 27 35 29 37 37 67 127 125 126 137 151 131 148 141 125 102 99 94 90 90 95 96 112 114 119 133 137 122 132 148 173 167 158 149 132 121 118 126 131 126 115 112 92 96 95 90 81 84 90 102 105 105 110 108 106 115 123 114 115 119 119 111 104 114 107 105 103 101 104 105 108 108 112 109 106 107 105 104 98 87 70 42 41 38 39 27 33 29 39 28 36 28 25 42 28 34 25 71 124 117 128 149 166 132 123 133 143 151 147 145 138 135 130 129 127 128 130 141 141 118 131 162 174 164 153 136 120 112 113 123 134 123 129 132 116 114 114 104 107 96 83 100 102 113 115 117 124 121 119 117 117 114 107 106 103 108 110 98 112 108 108 102 108 113 111 109 100 104 101 100 99 91 58 38 39 42 34 26 31 26 39 35 34 36 24 43 39 37 30 100 100 124 144 142 152 144 129 146 144 137 140 145 139 134 132 132 135 143 152 151 124 117 150 164 170 156 150 134 118 111 108 121 127 127 129 136 140 131 132 115 109 116 119 107 96 94 84 99 93 100 96 99 99 101 111 112 111 108 107 110 113 115 113 106 105 110 114 108 101 99 98 94 102 90 60 34 40 42 24 29 31 26 38 30 40 31 28 27 44 30 34 88 114 133 138 142 153 163 144 147 150 149 146 140 135 138 139 144 153 156 151 138 110 125 160 160 163 153 145 134 113 107 109 118 125 129 131 137 144 145 146 133 124 123 124 129 125 118 113 109 104 104 107 108 114 116 121 119 117 124 120 111 115 117 119 104 116 110 110 115 103 99 99 94 98 97 55 41 37 35 28 35 31 26 36 30 38 31 30 32 34 38 20 97 123 121 124 147 149 159 149 147 142 131 141 137 135 142 145 148 152 146 145 124 109 139 170 172 161 149 142 121 104 103 109 111 117 125 131 134 150 153 156 154 143 130 130 125 124 121 129 134 132 132 137 130 135 128 127 131 132 133 132 129 113 116 122 111 110 118 113 112 107 96 95 94 100 96 59 53 37 36 30 36 28 31 38 30 39 24 39 26 35 38 33 103 118 102 117 144 146 160 160 161 158 153 158 153 149 151 148 147 148 149 133 115 115 144 184 178 163 144 128 105 97 109 106 108 114 117 129 131 146 152 152 160 162 144 141 135 125 126 131 129 133 138 133 131 132 131 133 130 135 137 133 131 134 122 118 119 104 115 117 110 104 96 92 94 102 101 79 59 45 40 41 38 35 31 34 34 44 28 42 30 36 39 37 112 96 104 134 148 152 166 169 165 168 169 168 166 159 155 147 142 143 145 132 111 126 147 187 175 151 138 111 102 100 105 109 110 110 112 122 133 141 149 143 153 164 165 159 151 143 140 138 135 136 136 131 136 140 141 142 138 128 128 144 140 129 133 119 118 115 103 113 111 100 94 96 90 99 101 92 90 62 55 44 49 42 32 36 32 41 38 31 40 32 41 38 110 91 131 137 145 152 159 158 162 162 163 165 158 152 153 142 134 138 137 124 113 132 158 178 166 139 123 108 103 100 107 107 106 105 110 106 123 134 145 141 153 163 167 172 167 169 158 150 147 148 143 147 155 161 161 150 150 145 142 130 140 133 126 121 117 116 107 104 108 102 95 94 94 98 100 101 96 91 69 64 65 48 37 33 34 39 41 29 40 31 33 55 105 100 140 138 143 146 151 151 158 154 148 157 155 150 150 137 128 127 129 124 114 149 173 181 155 136 123 110 113 110 113 107 108 106 107 106 112 132 132 141 150 154 163 163 175 166 166 164 161 166 160 167 163 160 160 151 151 145 150 142 127 127 128 123 117 117 112 103 99 104 96 95 94 96 101 101 100 94 80 87 69 53 46 38 38 36 39 27 38 40 33 43 93 107 134 140 135 144 144 149 149 148 145 152 144 142 141 132 121 125 124 121 117 161 187 165 145 140 126 118 120 115 116 108 110 111 102 110 106 119 130 134 141 151 151 157 159 152 161 167 168 165 175 172 171 169 170 156 157 149 145 137 128 112 114 120 118 115 109 107 97 99 101 92 92 97 98 104 98 97 87 83 79 65 56 45 31 33 38 33 32 42 55 48 81 114 126 130 136 136 134 138 141 138 140 144 136 132 132 136 129 125 118 122 128 172 175 156 145 134 124 127 121 113 114 112 110 110 106 109 105 114 126 132 139 148 146 152 158 162 166 168 162 167 171 166 170 167 166 155 160 149 137 136 128 120 94 111 112 103 108 108 101 98 99 95 89 98 101 102 97 97 89 90 82 77 64 28 37 53 58 54 52 54 68 63 85 114 120 125 125 126 129 131 131 132 134 137 137 130 131 132 126 118 116 123 137 171 167 142 142 136 128 123 112 111 110 106 102 103 103 100 111 112 125 127 137 144 142 155 160 166 160 164 167 166 166 165 163 163 157 156 155 150 139 135 131 120 109 92 104 102 105 107 99 99 100 93 94 98 104 91 98 96 92 83 95 80 67 34 58 77 84 67 71 74 68 62 77 103 117 111 117 116 120 122 119 126 126 132 133 129 130 125 118 105 116 131 149 164 160 148 137 135 123 107 103 95 97 97 101 102 100 102 102 111 117 125 136 140 144 153 152 154 160 161 158 163 156 159 161 158 146 144 151 146 140 135 129 116 117 99 89 100 101 108 104 98 95 90 90 102 98 100 93 95 88 81 86 83 89 80 85 98 85 69 61 67 71 49 75 101 105 103 101 110 109 119 124 125 122 125 129 127 126 118 108 108 122 128 156 167 153 146 137 114 103 99 93 91 94 110 117 119 118 100 98 106 113 118 124 136 140 147 146 144 152 153 148 153 158 156 155 152 146 138 139 143 134 135 130 115 111 106 89 89 98 109 104 89 94 94 93 97 97 98 91 98 83 76 82 75 86 96 87 99 81 64 76 82 61 15 73 98 97 92 96 103 110 117 116 123 118 122 124 121 122 108 108 120 126 135 152 158 148 143 124 111 97 98 91 101 114 126 129 126 126 110 94 101 109 109 112 122 134 138 141 143 145 142 142 146 148 149 146 146 138 140 133 136 130 125 125 114 111 104 99 85 97 103 101 94 89 96 90 98 93 95 95 87 83 79 72 84 88 98 88 93 84 75 84 66 18 15 74 96 92 84 81 92 109 112 110 112 118 118 119 117 107 105 117 120 124 137 147 152 144 132 115 100 103 104 103 117 129 128 123 124 123 113 101 91 103 115 110 116 116 129 131 143 137 134 132 139 140 138 137 137 131 138 129 129 124 121 117 117 110 103 101 93 85 92 99 94 90 98 90 100 93 92 92 86 83 74 61 87 98 99 86 93 85 89 66 20 14 18 74 94 97 69 78 87 101 100 108 107 105 104 101 90 87 102 115 119 124 131 148 145 142 124 118 110 109 111 115 123 122 125 125 118 112 107 104 92 94 107 111 109 110 117 122 136 133 130 130 131 133 134 134 131 125 129 124 120 115 114 110 115 107 100 97 92 82 86 104 95 94 88 95 94 97 93 89 85 92 66 56 88 99 97 90 90 85 67 19 8 22 17 69 105 110 75 87 94 93 99 99 91 89 81 75 73 90 115 119 113 129 132 138 137 131 123 118 115 106 111 108 111 108 106 108 105 99 100 99 88 84 92 101 104 101 93 107 120 131 131 128 126 124 127 125 125 114 121 114 115 104 103 103 105 110 97 96 92 87 86 102 96 95 85 90 94 96 94 79 97 91 57 58 82 95 96 83 93 55 18 15 13 21 18 68 100 114 86 90 99 82 92 84 81 75 68 64 89 108 122 120 115 126 118 121 127 125 118 117 104 94 95 94 93 89 92 92 91 92 93 89 74 95 108 118 112 106 91 80 90 104 118 123 127 122 123 118 119 116 113 107 106 104 100 101 98 103 98 95 98 98 86 103 95 95 84 90 101 97 92 83 91 95 55 55 75 95 91 79 42 15 15 17 19 21 17 67 99 114 98 90 95 87 75 71 69 65 68 90 108 116 119 123 106 110 106 107 108 110 109 99 92 89 86 77 60 45 44 56 64 73 76 82 79 94 114 123 124 119 106 91 72 78 91 105 114 114 119 110 108 107 107 105 93 96 98 100 97 96 99 100 96 98 89 99 98 90 86 92 92 98 88 92 87 89 51 56 70 70 48 24 16 21 14 16 17 25 21 73 88 108 97 94 99 85 82 86 78 76 99 122 118 118 121 126 104 94 92 95 102 99 98 95 87 84 71 53 51 56 53 54 62 68 81 92 85 92 106 116 123 123 118 111 100 75 68 77 92 104 105 107 106 105 105 102 96 94 98 96 88 91 99 101 95 93 89 94 102 95 84 93 92 95 82 86 93 74 54 64 76 26 17 13 20 16 17 18 18 20 24 76 77 105 95 89 105 88 105 99 87 110 118 127 120 120 123 123 114 96 85 85 90 85 93 90 86 74 61 59 69 65 64 68 82 84 85 88 89 92 101 111 118 116 113 111 110 94 91 72 69 76 87 105 103 107 105 102 102 93 97 94 85 83 95 104 94 96 96 98 99 94 86 90 93 92 83 79 97 64 63 85 71 10 13 20 16 18 20 14 17 21 18 83 70 111 103 87 91 107 117 93 102 119 119 125 130 129 119 121 127 116 94 90 87 87 91 95 82 73 65 71 71 69 75 82 86 89 86 93 85 93 101 114 115 106 116 109 105 102 103 88 75 79 67 73 87 107 103 96 104 93 97 104 82 85 93 103 102 95 99 103 104 92 85 91 94 78 88 89 85 73 76 96 46 7 11 19 20 12 19 14 26 16 18 79 71 101 100 102 99 120 107 99 109 110 104 114 114 123 125 119 123 118 96 84 82 93 88 85 72 64 56 60 66 66 78 80 80 87 84 94 91 89 103 111 115 114 116 112 110 111 110 97 86 82 77 75 59 86 101 104 100 94 103 103 92 81 94 106 103 97 98 101 98 95 87 85 97 84 86 87 83 79 93 87 23 11 13 20 16 15 24 19 24 23 25 83 72 84 105 99 107 111 102 98 103 100 97 97 114 114 131 132 114 114 114 97 59 51 56 52 50 45 51 46 68 64 74 73 73 82 84 82 91 84 94 106 108 111 120 111 109 111 109 104 100 94 79 84 82 61 79 98 97 99 99 107 93 79 100 102 101 94 108 97 94 92 89 90 91 80 95 78 81 86 91 76 8 11 18 16 14 22 18 17 22 29 26 77 81 78 108 98 104 106 112 101 101 93 84 85 87 100 114 130 116 107 122 108 83 60 47 48 50 52 48 46 65 80 71 71 78 80 84 80 87 96 93 105 108 110 117 117 104 101 106 109 102 95 88 81 85 84 63 88 92 96 98 109 93 78 98 101 98 100 95 96 94 93 85 97 95 77 91 87 75 87 100 52 3 16 15 17 17 12 20 20 17 28 25 80 76 79 95 98 100 101 112 110 112 83 68 69 70 72 90 120 113 112 114 111 101 75 61 55 55 55 46 54 67 84 75 79 82 77 84 81 85 90 98 100 102 121 115 109 107 101 103 109 96 94 93 79 82 100 71 69 87 94 100 103 97 74 99 103 97 104 94 94 96 91 90 93 91 85 81 84 79 87 96 33 11 18 15 18 18 14 17 18 22 24 21 76 78 75 83 110 100 107 102 115 112 95 80 65 66 56 52 68 90 100 104 104 101 94 79 73 64 69 61 68 80 82 79 85 75 83 82 86 89 92 96 106 102 115 105 107 99 98 94 89 94 96 97 81 84 103 80 69 83 98 99 99 93 76 99 104 102 96 89 92 92 89 89 94 88 84 86 78 83 90 89 18 14 20 18 17 20 17 22 19 20 25 26 82 79 73 76 108 111 92 109 109 109 92 85 70 77 78 68 45 33 16 62 83 87 86 82 73 67 74 72 74 78 85 80 86 77 83 90 88 91 94 91 88 106 94 96 104 80 96 90 80 89 100 96 85 91 98 90 76 84 95 102 99 87 82 98 94 102 88 90 88 90 88 86 88 95 78 82 82 74 93 75 13 13 16 16 20 21 18 23 27 20 23 28 77 78 75 72 102 106 92 104 97 114 100 88 82 86 96 107 104 51 8 41 82 66 68 79 73 73 71 74 80 76 79 78 81 76 79 79 78 85 79 74 66 80 67 38 53 37 69 84 75 84 95 102 78 93 101 92 84 92 91 99 102 87 84 94 97 97 87 90 89 97 88 89 86 91 88 76 83 84 92 65 9 18 16 22 15 30 18 27 21 27 26 26 79 76 80 66 105 103 99 103 103 96 92 93 92 97 101 102 123 110 33 34 90 70 62 83 87 75 68 64 68 72 78 80 69 74 77 54 77 83 86 69 53 70 45 23 37 48 63 74 76 79 98 94 85 92 104 91 85 100 91 93 101 85 80 98 97 91 93 94 86 94 93 86 84 91 86 78 84 89 91 50 7 19 18 23 23 25 23 30 20 26 26 31 80 75 78 77 73 102 97 107 101 83 79 110 96 102 105 102 113 134 89 28 78 39 71 104 106 97 91 72 87 92 101 106 76 85 98 45 84 91 100 64 49 53 45 48 71 78 79 82 78 87 86 89 92 102 104 86 87 98 93 89 96 84 80 94 97 89 93 97 87 89 83 89 91 87 90 81 85 86 94 40 6 22 19 21 29 27 22 25 25 26 28 31 83 74 78 76 78 73 98 109 82 91 82 102 95 104 115 109 102 117 129 71 47 11 71 123 113 108 98 81 98 104 114 119 91 94 108 44 34 99 94 42 36 60 78 83 88 86 87 80 84 66 81 86 90 101 98 86 90 93 92 84 82 84 83 93 91 90 93 92 90 81 80 86 84 90 83 86 92 82 95 34 9 32 20 25 24 28 25 24 22 26 24 39 78 75 79 78 80 75 90 100 98 97 99 100 97 101 116 112 104 103 130 129 98 57 36 108 116 116 101 58 103 107 112 120 88 100 89 27 33 70 71 60 73 82 88 90 94 90 89 79 83 71 74 87 93 100 90 84 92 96 93 85 83 85 87 92 89 96 91 93 92 76 90 86 83 87 88 78 95 79 99 26 15 31 23 22 28 30 23 22 23 24 23 33 72 81 79 75 78 76 71 96 107 83 95 101 103 97 111 112 98 104 127 144 125 120 94 67 53 58 55 26 68 72 72 64 37 57 46 37 63 73 78 80 83 88 91 94 97 93 85 84 83 79 83 92 95 103 89 94 84 89 90 88 85 87 90 92 90 92 85 91 84 82 81 97 91 99 85 84 88 95 91 17 15 21 22 25 19 32 25 17 27 26 25 20 76 78 74 77 75 80 72 79 92 84 100 91 112 115 107 112 104 102 119 141 125 111 113 115 97 43 43 35 45 44 43 43 46 65 63 75 88 92 84 78 90 92 91 95 95 96 92 88 86 82 88 91 93 99 85 81 94 102 92 80 84 87 78 107 97 86 82 95 85 89 87 96 91 88 80 83 92 93 85 9 17 15 23 25 24 22 32 24 21 29 35 26 75 80 79 77 76 80 78 76 77 109 106 97 102 111 105 111 111 100 110 113 122 110 107 104 106 84 81 77 82 74 73 80 80 91 89 85 84 80 82 86 93 97 88 98 93 98 87 96 80 81 85 96 88 98 87 71 92 100 86 84 90 83 85 100 93 87 86 89 86 79 90 82 83 85 85 87 91 95 80 3 20 22 20 23 27 25 22 31 26 29 34 36 77 73 81 78 78 79 77 77 69 91 116 99 88 111 112 100 116 103 103 94 106 117 111 93 104 112 116 119 104 101 88 87 91 96 89 76 81 79 86 93 93 92 91 97 89 95 95 89 83 83 94 87 91 91 88 83 75 88 92 86 92 88 93 94 96 75 84 78 80 83 93 85 83 89 85 88 95 99 81 4 22 25 27 19 27 27 25 30 32 37 35 43 75 78 76 76 78 76 77 77 78 77 103 107 101 105 114 99 103 111 103 92 95 108 124 81 106 113 121 124 113 99 95 94 89 86 78 81 80 90 92 92 93 88 92 92 97 94 89 99 92 80 77 94 88 91 81 83 72 77 85 90 91 98 89 91 89 78 72 74 83 89 94 88 91 81 84 90 96 99 72 3 24 24 29 23 21 30 28 30 40 49 46 48 75 79 78 76 77 77 79 78 78 79 70 94 123 108 106 111 105 90 107 103 93 95 89 93 103 102 100 102 91 86 89 83 82 78 75 83 86 88 93 94 92 92 92 90 93 93 85 94 94 85 84 93 93 103 79 84 69 88 83 98 92 93 87 90 84 63 84 88 73 94 86 87 94 85 85 90 89 98 71 13 23 33 32 27 26 31 37 29 51 100 46 47 75 78 76 74 79 78 76 79 79 73 77 75 121 115 107 114 116 90 85 110 107 94 92 85 91 83 85 82 80 74 74 77 71 78 83 84 88 89 93 82 90 88 86 90 88 96 91 87 88 91 84 84 88 87 82 78 75 84 89 87 86 79 80 78 75 72 98 87 80 86 85 83 83 85 91 93 91 99 70 23 21 30 37 25 37 36 35 43 67 109 80 50 74 78 75 74 78 74 77 77 81 78 70 70 110 123 114 123 133 105 77 86 100 91 91 93 94 95 85 78 74 75 70 73 80 76 86 86 93 83 83 81 90 80 88 88 90 82 86 92 87 89 82 91 84 81 74 82 78 82 87 87 81 81 70 76 81 83 93 92 84 84 87 86 86 86 96 90 94 99 70 29 19 23 33 26 37 44 37 43 64 96 113 62 80 75 78 79 73 75 79 78 73 73 95 136 181 184 115 103 121 105 94 74 77 76 90 80 89 99 85 86 82 87 77 83 78 82 82 82 84 81 79 80 87 87 79 85 87 83 79 85 90 85 94 83 79 78 64 79 87 80 91 77 73 86 68 74 85 88 93 87 85 91 87 84 87 98 97 95 92 96 72 42 18 19 25 22 31 40 44 45 54 87 114 111 75 73 73 79 80 78 77 78 82 141 187 200 204 206 154 110 130 113 110 84 73 61 71 61 68 62 69 73 81 73 66 71 74 72 75 64 79 75 82 76 81 86 82 83 87 95 84 84 91 89 98 86 83 75 66 85 94 75 73 71 83 77 83 70 82 97 97 90 86 91 80 91 90 100 93 93 98 93 74 55 46 25 16 19 24 24 51 52 55 89 106 125 82 106 136 156 168 166 153 131 177 199 198 199 195 197 207 118 110 137 115 108 97 71 63 54 56 50 52 45 53 52 53 53 63 65 65 57 70 76 82 73 84 84 87 84 87 91 95 97 93 87 92 87 77 76 67 77 71 68 72 71 76 66 85 79 85 92 99 82 86 87 84 95 96 96 91 93 88 100 78 58 63 49 26 19 18 9 36 65 71 93 117 121 173 186 188 192 187 188 190 192 199 200 195 199 193 197 207 167 110 137 139 118 125 103 92 67 66 58 61 55 60 65 59 70 71 76 76 75 75 83 72 77 83 86 88 89 93 79 95 101 99 91 88 87 84 70 80 59 70 69 76 66 68 83 79 89 91 77 93 85 85 96 87 94 92 95 92 91 96 96 83 68 65 67 37 23 21 12 18 79 75 101 123 123 187 188 192 193 191 193 197 199 200 200 195 200 190 201 198 169 140 137 137 136 122 115 102 86 87 81 70 66 74 76 82 81 88 80 90 85 91 87 78 86 85 90 94 92 90 94 97 92 102 98 91 86 79 77 70 68 69 68 69 70 75 83 81 95 88 78 87 90 84 96 93 91 90 96 94 95 94 96 85 81 69 78 55 26 22 13 35 89 81 104 126 126 186 191 196 195 198 198 200 201 199 197 198 201 190 204 185 175 164 131 142 134 122 124 112 105 100 104 92 87 88 91 89 89 81 84 92 77 99 88 89 92 92 95 95 94 94 89 96 92 100 94 75 79 74 70 70 73 62 72 66 69 79 87 92 88 85 85 88 95 91 94 93 97 91 100 97 97 95 89 88 91 75 80 69 28 26 11 49 93 90 110 128 135 190 194 196 199 200 201 201 201 199 196 205 198 193 204 178 179 162 139 132 131 120 117 113 103 97 103 104 105 96 92 91 90 88 90 89 85 89 88 90 83 89 98 95 100 96 84 98 90 96 88 64 72 69 66 57 70 68 70 75 71 90 90 88 87 90 84 86 97 93 88 94 93 95 100 96 97 97 88 91 91 86 75 79 34 29 11 44 107 94 111 131 132 192 196 198 198 201 200 201 199 197 201 205 194 198 198 176 183 163 144 127 129 129 114 109 103 94 93 88 95 91 92 87 87 93 84 90 92 85 96 93 95 87 100 95 94 101 99 103 97 72 80 60 62 66 55 61 73 70 74 84 80 85 88 85 97 89 85 83 86 93 89 92 95 97 99 96 98 94 92 93 93 88 83 72 41 29 13 60 115 101 114 137 134 194 196 201 200 200 201 200 199 200 203 203 194 201 195 181 180 171 140 106 107 129 123 109 99 92 96 81 75 72 77 88 73 91 94 89 92 83 95 84 93 101 96 99 109 101 90 87 76 58 58 58 67 65 69 78 75 80 86 89 81 89 93 91 87 89 88 90 91 95 96 94 97 96 97 98 99 92 89 89 90 93 88 76 43 18 38 98 118 101 123 138 134 195 197 194 195 195 194 189 199 201 202 203 193 206 189 187 182 172 152 94 95 111 126 115 104 91 90 88 68 67 68 81 81 83 89 91 83 84 90 83 94 101 90 100 101 106 86 59 56 53 61 69 67 70 77 71 86 86 90 83 85 82 89 83 89 86 92 93 91 92 98 99 99 96 100 95 96 94 90 89 98 95 92 78 42 12 71 104 121 105 129 142 132 187 194 198 198 200 200 197 201 201 204 199 194 205 186 191 185 180 165 120 88 110 105 100 104 91 99 88 69 71 73 81 91 90 91 95 94 85 97 93 102 89 99 91 81 75 69 66 59 69 73 66 76 78 74 79 79 81 86 87 80 89 89 82 92 93 92 95 92 93 101 104 100 92 99 95 98 100 97 100 96 95 98 81 36 22 86 117 122 107 138 142 134 197 200 201 200 201 197 202 202 199 204 198 196 203 188 195 182 187 167 124 76 107 107 100 89 95 94 89 79 75 74 82 90 92 83 94 83 85 99 91 83 77 79 85 70 71 69 75 68 73 82 76 74 81 78 72 77 78 79 94 82 89 92 84 101 96 93 95 96 100 101 103 99 100 101 99 100 100 105 97 100 99 102 76 39 26 101 124 114 116 138 146 132 199 199 199 200 199 200 203 201 202 204 195 199 203 190 195 183 179 175 144 68 104 112 108 88 85 81 81 73 76 74 83 81 83 81 82 78 70 86 74 70 68 65 77 72 70 74 78 79 83 88 80 78 81 78 77 80 71 86 91 89 93 94 90 95 93 99 100 98 102 103 98 101 102 104 107 99 98 106 103 95 105 102 67 38 46 121 115 109 129 144 143 129 