P2
92
112
255
93 93 88 90 89 88 92 89 90 92 90 91 92 88 91 91 91 92 88 89 89 88 89 84 92 87 88 92 83 74 87 92 74 59 58 47 32 35 37 44 44 49 43 35 41 55 53 64 64 73 63 69 50 48 43 35 68 73 80 84 70 71 83 78 84 84 85 84 78 83 82 86 83 84 85 82 81 86 83 82 86 83 81 85 84 84 79 85 78 84 81 82 91 89 92 89 92 84 92 91 90 92 92 90 90 88 90 87 93 94 84 89 90 92 84 84 83 81 81 84 87 75 81 80 66 54 45 36 28 38 35 36 42 41 47 43 42 40 37 52 46 77 70 74 79 67 55 49 35 68 59 71 79 64 55 80 82 84 84 85 85 82 88 82 81 80 86 80 82 85 80 83 82 83 84 84 82 80 83 79 81 82 82 82 92 90 93 90 89 91 90 91 92 88 94 88 91 88 89 88 89 99 92 94 91 83 80 78 78 77 74 74 80 78 76 72 52 47 37 31 40 29 30 33 27 35 34 42 41 33 41 43 28 45 45 65 91 80 79 62 54 41 57 62 59 62 73 54 63 78 84 84 84 84 83 85 84 85 84 85 80 85 81 86 84 80 82 87 82 78 83 84 83 83 83 77 92 90 91 92 90 89 91 94 87 92 89 89 91 88 89 86 98 102 86 80 76 71 66 63 60 63 59 64 76 62 64 57 35 42 34 36 36 26 31 35 27 35 31 36 46 34 34 41 44 43 47 42 46 65 83 87 81 64 46 54 55 49 74 80 55 63 73 76 85 81 86 79 87 82 83 85 83 84 84 81 85 78 84 84 81 81 84 83 79 82 82 83 91 90 88 91 94 88 92 90 90 89 89 90 89 88 89 94 85 71 70 68 64 61 56 59 51 49 47 43 60 69 54 40 31 37 36 36 34 26 33 36 37 30 31 37 40 46 39 51 42 41 52 52 49 51 55 63 79 79 67 68 61 61 54 61 65 66 57 69 80 78 84 81 83 84 80 81 83 84 84 81 85 82 80 84 77 87 79 86 82 82 83 81 91 92 90 90 92 87 91 93 85 92 87 88 92 84 95 73 75 73 74 74 66 60 57 52 53 41 52 42 34 62 59 36 30 38 34 30 32 22 35 31 37 35 29 31 37 50 41 51 43 37 41 48 57 55 55 60 62 65 67 62 66 61 61 51 61 62 53 61 64 71 78 86 82 85 82 84 84 83 83 83 83 84 83 84 80 83 84 81 84 81 82 83 93 88 91 89 91 89 89 89 88 89 88 80 86 86 77 71 71 76 60 72 58 38 43 46 42 35 35 34 39 50 52 40 30 32 40 29 27 29 31 35 22 36 35 35 33 49 42 52 52 43 44 39 44 49 57 53 55 65 60 57 61 52 52 66 56 62 52 45 57 58 69 67 80 83 86 80 86 83 85 81 84 80 83 86 81 86 80 81 84 81 78 84 91 90 90 89 88 89 86 87 87 82 79 86 86 75 71 67 70 69 60 50 45 43 44 42 32 27 28 40 41 35 46 42 35 31 42 34 28 34 28 41 34 28 34 39 45 48 50 45 55 62 54 51 43 41 47 57 65 63 66 60 49 43 44 52 58 76 73 55 48 44 52 58 62 75 84 84 82 85 84 83 85 78 86 81 83 84 78 83 81 82 78 88 89 93 88 90 88 90 88 86 71 81 84 85 80 70 77 73 76 69 50 68 67 42 37 33 25 27 44 44 36 32 41 45 35 29 35 38 37 44 33 40 45 34 28 35 50 39 57 52 57 58 74 77 68 50 44 56 65 57 73 73 76 51 36 50 48 60 58 75 59 42 43 45 53 50 76 81 85 81 84 84 82 86 79 82 82 85 80 81 84 79 83 83 88 90 94 88 90 89 82 71 77 85 93 81 78 88 77 65 78 78 70 70 44 45 39 24 35 45 52 30 40 31 40 49 36 34 40 46 46 42 31 39 46 46 33 35 41 49 54 48 66 56 57 61 69 74 68 48 58 59 64 74 76 89 76 48 39 53 54 54 66 56 49 41 34 36 47 72 86 82 84 81 83 82 85 79 81 84 80 83 79 81 83 83 90 87 91 90 94 82 75 85 88 77 82 97 87 75 81 88 85 79 58 56 45 43 32 32 62 51 41 41 33 34 48 43 46 42 53 40 37 49 39 37 36 57 49 46 42 31 38 50 53 51 54 52 66 64 75 70 62 48 60 62 61 67 82 89 72 54 53 56 58 58 68 53 40 31 29 28 74 83 86 79 84 80 82 79 82 79 81 82 82 83 81 79 91 87 90 89 84 78 81 75 78 78 85 94 75 73 77 81 76 71 63 51 51 27 42 75 54 37 49 45 27 50 49 45 54 66 51 39 50 58 43 38 34 54 70 59 53 40 30 34 41 52 51 61 63 75 56 63 68 61 46 53 56 53 54 78 79 84 73 62 56 50 57 75 60 36 36 26 40 78 83 83 81 84 84 79 82 81 84 79 81 84 81 82 91 87 92 96 74 75 67 72 63 79 89 73 63 70 88 98 78 60 66 54 42 35 84 69 43 44 58 39 33 72 50 43 66 48 49 51 62 53 40 35 38 46 65 61 73 62 45 32 35 25 46 47 53 66 66 55 53 63 56 55 51 47 48 58 66 72 84 73 76 65 57 54 69 74 53 33 29 37 81 84 85 85 78 88 78 84 84 79 82 84 81 84 88 91 96 83 68 58 68 62 60 73 60 56 58 85 77 61 77 79 56 50 40 61 65 51 51 56 59 33 55 59 45 70 47 51 64 79 48 49 40 44 49 54 51 63 81 75 73 42 34 40 30 48 66 63 61 53 63 45 66 52 49 56 43 38 50 69 71 70 67 78 77 74 52 61 79 69 41 33 46 82 88 81 81 87 78 85 84 81 86 83 82 84 91 94 84 65 53 62 70 45 51 54 54 59 71 58 65 75 82 72 65 55 64 62 52 53 52 70 49 51 57 54 64 59 52 78 72 62 51 50 54 48 53 57 50 54 73 82 79 74 41 43 42 38 55 67 67 51 55 59 55 62 58 43 55 50 38 32 49 62 56 52 65 81 77 60 62 77 65 52 39 65 84 84 84 84 79 84 84 86 81 85 86 82 93 89 71 53 52 60 50 39 51 63 56 54 63 68 74 86 64 82 76 68 77 59 60 49 61 74 59 64 60 68 84 63 57 65 70 67 59 66 53 62 65 64 50 60 61 92 87 86 63 47 51 48 50 66 62 69 60 37 62 67 62 65 56 42 42 46 36 42 51 52 47 51 66 74 71 70 86 74 58 36 66 82 86 83 85 81 86 83 83 84 84 83 90 76 64 44 60 50 37 44 64 60 60 58 72 70 72 63 103 92 67 81 76 68 60 60 83 76 51 61 70 80 69 57 63 83 83 75 67 76 60 63 72 79 76 79 80 89 98 96 84 61 60 61 69 76 73 65 73 55 46 65 64 61 71 66 48 40 34 39 47 44 42 48 50 46 70 72 66 86 82 55 49 71 81 86 83 83 87 83 85 84 83 86 75 54 47 50 54 34 37 46 40 51 66 71 74 78 53 79 99 94 73 77 75 65 65 74 83 65 45 63 79 67 59 70 91 90 95 75 67 75 68 75 82 74 87 100 99 88 102 113 103 92 65 81 66 83 92 71 74 77 57 58 62 72 66 65 65 58 45 34 37 31 48 43 52 44 44 53 64 69 76 71 52 52 79 79 84 80 84 87 84 84 87 83 54 39 43 47 39 36 36 36 51 62 64 63 69 64 87 108 85 85 67 63 45 65 64 85 70 43 66 71 67 64 59 93 107 87 91 77 76 80 85 88 81 83 109 110 104 108 115 126 127 105 79 73 82 79 82 98 87 74 73 77 62 65 74 74 59 62 72 49 37 35 35 39 42 43 43 45 57 55 62 69 64 52 66 85 81 78 84 84 81 85 84 81 44 37 36 36 36 32 34 41 66 53 50 67 78 78 84 87 63 48 55 50 47 67 78 76 55 38 82 74 68 61 86 102 101 100 97 84 85 90 91 92 95 102 117 120 109 119 123 131 145 131 109 77 74 99 81 91 97 102 61 87 84 61 61 77 92 66 69 68 62 48 42 43 39 43 39 43 42 50 39 57 63 62 50 66 87 85 78 80 82 87 84 85 44 35 34 33 34 36 44 80 66 30 58 81 66 64 58 59 45 46 52 55 59 74 82 69 42 65 74 75 74 87 106 116 99 105 105 96 91 99 99 107 113 114 129 127 115 127 125 140 146 140 132 106 79 89 95 91 87 86 94 76 86 87 65 66 73 85 71 63 66 63 51 47 44 39 38 28 37 37 51 45 47 57 48 56 76 83 80 84 84 89 82 85 29 33 40 28 32 53 58 68 38 49 64 71 60 55 47 43 42 47 54 59 71 73 70 53 55 74 93 91 93 105 120 115 108 115 100 102 93 111 111 114 126 123 141 125 127 135 132 143 151 141 141 130 92 87 75 96 86 83 80 88 90 79 81 64 60 59 74 67 59 63 60 63 49 37 37 41 28 33 33 48 44 46 38 49 69 74 80 86 86 82 87 84 38 43 33 34 50 56 62 36 63 64 65 59 61 50 36 42 43 55 55 55 72 79 69 66 78 107 108 96 101 111 123 115 106 104 108 100 107 120 117 129 131 132 140 125 130 140 143 152 148 147 139 137 116 89 83 80 84 83 87 77 92 83 71 80 80 54 46 60 63 62 66 65 56 65 39 41 37 40 29 35 33 36 41 39 54 64 81 81 84 87 84 80 44 42 36 45 43 52 59 47 66 44 53 46 43 39 39 44 50 58 59 70 67 67 84 82 120 125 101 90 105 126 124 126 100 103 105 100 112 124 131 135 130 140 132 130 134 144 148 156 151 147 141 141 138 101 99 71 80 85 80 78 81 82 69 76 71 80 66 53 46 60 62 66 66 46 60 58 51 38 42 39 31 28 41 43 48 44 76 77 87 82 85 84 43 40 35 43 32 62 54 46 44 42 35 35 38 36 45 41 54 55 69 77 63 75 108 132 134 114 78 109 113 123 121 104 92 100 107 113 128 134 133 135 137 140 127 137 138 152 157 162 157 149 141 147 145 110 112 84 73 79 79 59 70 83 73 66 69 71 71 73 55 43 56 72 63 65 50 52 42 47 36 40 49 35 34 49 45 41 56 78 83 85 82 87 36 38 36 36 40 52 42 40 33 31 30 41 39 44 49 45 56 63 80 74 74 109 138 146 118 87 92 120 113 115 106 92 101 107 113 127 135 130 140 144 143 139 131 140 150 156 158 156 153 153 149 146 147 117 115 102 69 78 73 70 53 56 64 71 71 68 66 67 73 66 59 61 58 77 64 54 47 41 41 38 44 53 44 52 40 50 42 71 83 87 84 85 38 32 35 36 50 29 38 34 30 33 33 49 36 45 47 57 79 82 78 88 108 138 137 129 102 87 112 121 110 103 95 95 105 117 121 137 134 139 158 155 141 138 136 144 157 159 162 156 153 163 149 148 148 127 117 106 84 69 74 70 64 58 46 42 55 71 59 64 60 56 61 70 67 54 76 69 54 48 45 30 47 30 56 64 45 44 50 73 82 83 82 84 34 26 30 48 39 28 32 29 35 35 36 37 35 46 63 85 90 88 85 107 130 133 118 109 87 103 116 112 106 84 89 105 113 113 136 131 133 147 161 142 141 140 137 157 158 164 163 161 154 158 153 150 152 126 128 105 93 77 70 62 64 63 57 50 39 51 66 63 57 53 54 57 63 70 59 66 59 60 58 35 43 27 50 42 52 47 40 77 83 85 83 81 27 26 40 42 28 22 29 27 33 32 32 36 43 58 84 93 97 104 104 114 126 112 111 83 111 115 102 99 91 85 94 119 107 121 129 129 143 157 157 144 142 151 159 163 162 168 165 158 159 153 149 148 154 127 134 114 97 85 78 61 57 60 59 62 37 41 46 49 56 65 62 47 56 56 59 44 52 65 58 60 53 28 37 41 36 38 43 70 83 83 83 83 33 38 36 41 24 24 26 30 29 31 39 45 59 95 95 109 120 112 121 118 110 124 85 97 115 97 95 80 85 89 100 111 113 124 122 143 152 151 149 142 148 159 169 166 166 170 170 158 163 156 145 154 154 135 141 120 102 98 76 76 57 54 58 64 55 47 33 42 43 53 55 60 56 58 50 43 41 49 51 59 58 57 35 34 41 41 26 62 87 84 83 85 39 33 30 25 20 27 30 33 35 39 55 49 90 103 115 131 116 124 120 111 116 82 85 110 101 91 76 82 93 90 113 109 111 117 129 147 140 145 139 143 157 169 169 169 168 167 162 157 158 152 156 151 157 134 139 130 106 101 91 73 66 56 57 56 48 57 42 35 37 37 40 43 41 55 54 49 46 47 34 38 62 58 64 46 34 45 33 38 72 86 84 83 23 29 26 20 19 30 37 44 47 64 61 91 102 117 134 129 123 121 119 119 94 70 109 94 86 77 82 86 90 104 108 104 111 116 140 143 142 139 144 144 163 168 169 169 166 167 161 156 154 154 151 152 151 131 136 134 116 114 95 86 69 66 55 49 51 50 49 50 40 29 33 29 34 39 41 44 46 42 45 33 44 40 50 63 47 35 38 39 62 83 85 87 24 26 22 23 27 38 46 55 62 64 81 102 110 114 122 131 111 122 125 91 61 100 100 91 67 67 88 86 103 112 107 107 108 127 138 146 144 137 137 150 156 161 157 165 160 157 160 156 155 159 144 158 154 127 134 140 117 120 106 93 77 76 64 48 46 56 47 43 50 44 31 28 25 26 37 38 33 39 30 38 53 42 40 41 39 35 32 39 54 77 86 78 21 23 31 26 32 43 49 56 66 90 92 98 108 119 124 119 130 132 96 61 91 99 81 69 66 67 87 104 104 95 110 109 125 142 143 144 145 142 145 162 166 170 171 167 161 155 154 152 146 148 142 159 151 131 134 132 123 122 112 102 92 83 73 62 48 44 44 54 40 40 36 37 37 31 26 27 29 27 33 34 44 49 40 37 26 34 24 30 46 65 84 81 21 30 32 35 36 37 54 58 76 93 79 99 108 108 105 123 136 106 54 78 97 78 57 61 70 80 102 104 95 106 114 124 133 147 147 141 148 150 158 164 170 166 166 169 160 161 163 160 161 152 155 162 149 140 125 134 124 126 115 114 107 92 80 70 62 51 38 42 45 48 40 33 34 29 22 21 19 22 25 26 37 35 46 29 29 33 34 21 27 61 80 84 26 37 30 39 36 43 46 71 84 76 73 88 87 95 119 134 117 72 60 71 77 60 61 68 80 101 102 96 107 116 124 129 142 143 144 144 154 156 158 168 170 166 164 165 159 157 165 161 156 157 154 156 150 137 134 125 128 122 123 119 112 99 96 79 66 59 49 45 41 38 43 35 37 34 30 29 22 18 22 20 26 33 30 44 35 29 34 27 21 43 85 84 29 33 33 35 43 43 48 92 91 60 78 90 95 113 127 119 84 68 67 65 61 64 80 81 94 108 102 113 119 124 129 138 143 141 139 142 161 164 158 170 164 165 167 165 166 161 166 160 155 164 150 154 153 139 140 131 130 120 132 126 116 109 103 92 82 71 53 52 47 39 37 38 40 33 29 31 27 30 23 20 19 22 25 23 37 28 26 34 27 45 78 85 33 31 33 40 42 42 62 107 64 70 84 91 109 115 105 82 91 80 79 73 63 81 86 91 92 109 112 124 132 130 135 136 137 141 144 147 161 170 161 162 161 165 167 165 168 162 167 162 160 155 153 155 152 142 143 137 135 122 130 125 121 118 113 106 97 87 72 58 51 43 39 35 37 44 27 28 28 26 19 25 21 20 28 23 27 23 23 31 28 37 73 81 35 29 39 40 35 47 82 108 60 85 91 106 109 107 102 93 96 91 73 64 71 89 92 102 100 108 119 129 132 128 136 132 131 136 146 150 157 166 164 161 176 168 164 162 159 162 159 156 160 157 155 159 153 148 140 148 132 128 130 131 127 123 131 112 106 98 93 77 63 53 52 41 34 41 35 30 28 30 26 22 22 25 21 26 33 29 23 32 36 25 57 86 31 28 40 45 29 53 108 88 73 89 96 93 102 106 102 100 94 77 72 87 89 90 100 107 108 113 124 127 128 131 132 139 138 148 157 164 160 165 163 160 168 160 168 164 163 159 159 157 160 155 153 158 142 152 142 146 141 131 125 137 128 127 128 123 115 111 100 92 84 69 62 55 35 35 42 29 34 30 30 26 24 23 24 28 21 32 23 31 33 25 51 88 27 32 41 33 36 62 112 77 83 81 83 92 103 101 101 114 91 85 88 91 83 92 108 111 118 119 121 125 127 132 137 148 151 159 159 160 159 160 166 163 163 161 167 166 163 156 160 163 159 163 155 153 142 155 153 134 144 133 120 130 138 138 131 130 127 127 118 110 97 85 78 72 61 49 50 39 36 32 31 30 24 21 22 22 24 24 25 29 36 31 53 83 33 37 34 28 40 69 104 79 73 74 85 88 86 93 103 113 106 106 95 87 88 97 110 111 118 118 125 123 129 141 146 156 160 157 160 163 163 165 163 162 159 163 159 160 153 151 151 155 153 157 153 148 144 148 149 138 136 137 124 123 133 140 136 131 130 129 127 122 110 106 97 90 86 77 65 53 47 48 34 35 30 22 22 23 19 25 23 28 38 21 50 84 30 38 25 35 42 74 99 81 73 68 63 63 75 87 96 108 127 122 99 99 106 112 116 119 123 129 133 132 140 152 155 150 153 165 168 167 160 159 159 156 155 156 152 153 150 149 149 143 142 146 143 141 140 137 143 136 129 128 128 122 120 134 137 129 124 124 123 122 114 106 105 96 100 87 91 75 58 61 61 42 37 33 25 27 27 19 21 30 34 24 31 81 34 28 27 37 40 80 95 80 70 57 43 63 78 93 106 118 130 131 121 123 128 130 132 135 135 143 139 143 149 143 151 156 148 162 165 164 164 154 143 143 147 144 137 141 139 138 144 138 134 132 135 133 129 128 135 128 127 122 123 122 113 119 128 124 124 115 118 117 112 108 104 100 100 102 92 92 81 72 72 68 57 44 34 27 30 31 23 28 35 18 29 71 32 26 32 40 34 85 86 77 56 38 27 58 75 91 120 125 132 129 137 135 132 138 137 139 142 148 145 144 138 146 157 153 138 145 145 149 153 138 130 129 132 137 128 129 128 126 129 135 123 129 128 123 120 121 125 124 115 119 107 117 110 113 113 113 111 112 114 110 107 105 109 102 105 103 104 99 89 88 71 78 79 73 47 38 29 28 32 21 33 17 23 74 25 24 37 39 45 86 82 67 51 21 32 56 83 103 120 132 135 132 136 137 131 132 134 125 141 148 146 144 147 147 153 148 138 140 119 122 125 112 113 114 110 116 124 120 116 115 112 120 116 121 110 119 115 116 119 120 100 109 100 100 100 104 101 104 99 98 108 104 101 102 104 106 104 106 98 104 87 86 76 69 74 85 69 46 38 25 34 23 32 24 22 69 26 27 43 35 47 78 80 69 32 23 38 58 90 114 125 133 135 132 135 133 131 127 126 129 135 140 141 139 144 137 148 141 138 111 109 123 120 110 104 97 94 92 97 100 98 97 107 105 106 104 106 109 113 112 119 106 102 102 96 94 101 91 95 101 97 97 97 102 93 100 98 102 101 98 92 93 90 82 78 81 66 72 81 70 37 18 23 32 37 26 31 62 24 33 43 40 47 71 80 58 28 23 34 62 89 123 131 133 134 133 134 129 127 130 126 128 134 136 124 129 133 125 134 129 123 104 99 113 103 97 86 77 78 72 74 75 68 71 77 80 85 92 93 100 108 113 116 107 98 99 85 96 94 87 90 99 98 99 91 92 94 93 87 90 93 90 88 88 98 83 78 81 82 69 68 83 48 10 27 19 36 29 30 49 26 37 44 39 50 64 74 53 16 20 28 51 91 128 134 130 135 136 133 130 123 131 122 127 134 133 117 121 112 114 121 115 103 99 102 108 93 77 64 68 60 51 58 53 62 65 70 75 73 82 86 90 101 111 107 107 97 89 90 98 89 93 91 96 88 89 84 77 78 74 77 89 87 89 89 86 79 80 80 78 76 81 67 78 55 9 24 22 31 39 23 36 30 41 37 43 56 61 77 46 17 22 29 55 94 127 136 133 135 132 128 131 124 122 126 124 131 122 110 118 114 109 112 103 93 85 92 80 75 67 70 70 67 64 61 62 64 67 68 69 74 74 81 81 93 109 109 108 96 92 99 109 100 90 91 78 83 73 60 64 55 56 54 52 56 62 67 63 75 61 68 70 74 76 71 80 60 24 13 28 35 36 28 20 36 35 45 38 59 56 76 51 8 20 24 61 102 129 134 131 130 130 139 135 126 127 124 116 130 122 114 110 104 95 96 94 90 82 83 84 82 78 78 74 68 60 62 66 71 71 70 71 74 76 73 78 90 109 120 114 112 112 121 117 105 84 77 64 61 65 55 62 57 58 56 61 66 67 72 70 69 66 73 70 71 67 73 79 66 25 21 28 35 31 27 23 39 38 37 43 52 54 70 46 16 15 38 73 103 129 133 129 129 127 128 125 127 122 118 116 119 107 107 108 99 87 92 85 89 88 81 79 64 64 52 60 47 50 43 40 54 69 75 75 79 79 77 78 90 117 136 137 141 139 143 128 111 78 59 59 57 51 43 38 45 33 38 34 46 45 59 63 67 70 79 77 74 69 75 85 61 41 21 25 37 31 26 30 35 43 28 51 52 48 69 50 12 22 50 64 104 124 131 130 121 139 133 129 120 113 119 111 115 103 105 103 96 92 86 79 72 71 54 47 41 40 32 40 55 47 51 52 41 51 72 74 79 79 81 80 88 119 153 155 158 162 158 140 111 77 58 51 43 42 32 23 39 24 34 21 45 47 39 47 50 51 66 83 84 77 75 85 63 41 37 22 35 33 26 44 36 36 34 55 44 49 63 47 18 26 41 62 103 126 128 135 123 128 139 138 129 114 120 117 114 104 102 94 92 81 63 60 59 53 34 41 32 31 35 32 74 89 59 46 53 58 62 71 74 74 79 82 88 127 155 169 162 165 160 143 115 76 51 48 42 45 35 30 30 23 30 28 49 81 55 38 46 51 45 74 85 87 80 85 64 28 39 27 31 40 26 41 40 36 37 42 42 45 61 40 22 26 37 63 111 127 124 124 132 123 126 136 140 134 131 116 105 100 94 88 78 51 51 50 49 60 44 39 39 40 31 48 97 101 77 69 52 59 69 69 71 72 78 85 95 129 155 164 168 159 155 147 120 78 57 59 44 57 47 38 39 40 30 38 76 91 64 53 46 55 49 63 79 89 84 89 65 33 33 39 30 31 34 44 39 37 42 36 42 34 63 32 25 29 37 67 115 132 133 126 129 125 126 124 116 116 109 118 118 105 85 69 59 53 59 62 60 66 63 52 51 50 45 74 94 90 70 72 68 49 68 76 77 74 81 96 109 133 148 161 169 159 152 144 131 83 74 67 61 60 59 53 67 63 55 59 77 79 74 68 71 78 75 63 70 75 90 91 54 32 32 36 27 29 31 51 35 40 45 40 42 40 53 36 21 40 43 64 110 125 126 139 143 140 147 142 135 120 104 91 82 82 76 74 81 86 99 108 101 92 100 91 90 73 86 81 85 85 85 80 82 83 81 79 96 82 84 110 129 139 140 154 165 165 151 151 135 98 77 88 90 69 61 61 71 73 71 72 75 83 91 95 95 95 99 82 72 86 93 93 43 26 35 29 32 26 38 48 42 38 46 39 36 44 48 36 20 43 49 62 104 125 118 124 119 115 125 127 130 125 131 128 115 102 112 121 109 112 119 119 123 118 126 116 112 100 100 99 93 89 88 82 85 85 89 92 101 91 99 125 137 143 141 140 153 172 150 147 140 110 80 86 87 73 64 67 70 80 83 91 101 100 101 96 96 97 96 87 86 87 94 94 37 22 35 26 32 39 58 65 41 43 44 43 37 43 45 34 18 52 49 56 98 124 117 127 129 131 139 142 142 142 143 145 143 140 145 133 127 137 127 120 112 110 120 122 114 108 110 100 95 93 85 84 90 94 92 100 106 113 119 141 141 139 133 134 149 165 149 149 140 118 81 87 89 84 80 68 66 77 78 80 88 91 90 89 96 101 99 82 95 92 88 92 32 25 36 25 28 49 75 76 53 39 44 37 45 35 48 34 24 55 49 55 93 122 125 125 138 134 136 139 135 134 140 142 149 160 137 125 138 139 144 121 118 107 99 96 98 93 94 90 95 93 95 98 99 100 107 113 122 135 141 146 146 133 131 121 143 163 153 144 140 125 89 87 93 91 85 90 97 92 92 89 89 98 95 102 107 105 101 99 99 99 87 103 30 29 34 27 30 48 74 75 65 48 44 43 46 35 48 41 30 46 61 55 95 110 117 120 132 133 128 129 131 148 143 141 143 143 138 143 140 150 161 154 148 137 131 122 124 120 119 113 110 110 107 103 108 111 129 131 136 148 140 144 139 131 132 122 130 159 167 141 136 133 101 81 99 105 102 98 100 99 101 105 111 111 116 113 110 111 105 109 99 96 90 98 48 25 31 33 34 38 77 75 65 51 39 42 56 26 47 34 24 46 57 70 87 119 118 122 123 123 127 143 142 140 133 133 128 142 158 166 153 147 142 147 147 146 144 149 137 134 134 121 116 113 114 116 129 137 146 145 140 147 137 140 132 130 130 121 128 149 169 150 141 134 113 70 99 109 114 108 108 102 103 107 108 114 113 110 111 113 107 109 106 103 88 99 46 26 29 42 41 49 64 80 59 43 39 40 46 39 45 29 26 50 46 70 90 115 121 120 118 122 139 138 129 133 126 134 150 155 156 162 162 147 141 148 153 151 149 144 142 134 137 124 127 125 128 136 148 150 150 144 143 139 138 131 133 124 125 115 119 143 170 153 148 137 113 68 92 107 112 120 117 112 113 112 109 112 108 109 119 112 105 106 108 100 93 97 48 25 36 53 54 65 70 75 50 42 40 40 28 47 35 44 20 56 43 69 90 115 122 114 125 131 131 125 120 122 132 138 149 153 154 154 155 163 157 147 152 150 153 144 142 138 131 130 134 138 148 146 151 147 150 138 139 140 128 129 127 127 122 123 122 133 171 157 149 143 108 75 83 103 112 123 129 127 125 115 113 118 112 120 123 111 106 110 105 105 87 99 47 22 37 45 70 67 73 74 48 39 40 37 27 42 36 48 24 54 56 68 94 117 120 118 123 130 126 121 124 134 139 143 150 147 147 155 165 160 164 146 147 145 143 132 138 138 138 142 146 150 155 151 152 154 150 136 134 135 126 123 131 121 126 128 126 135 169 165 146 148 115 76 77 93 111 123 127 134 133 123 120 122 127 122 125 120 116 113 107 99 90 96 48 22 34 45 71 73 75 78 39 35 46 30 26 35 36 42 31 47 70 73 110 124 123 114 125 127 117 124 132 135 139 142 139 132 142 148 156 157 152 162 159 160 158 155 155 161 157 159 156 156 148 153 148 148 147 137 131 126 124 127 128 128 129 125 128 137 163 173 144 147 121 86 82 82 105 118 128 132 130 128 133 127 134 134 126 130 117 112 106 93 88 90 47 15 39 53 74 70 77 73 40 39 50 31 26 30 31 47 40 45 84 89 120 124 116 116 117 117 124 124 137 135 136 124 126 128 138 144 152 163 164 174 166 168 167 165 164 166 162 158 157 150 146 143 143 139 138 139 126 124 123 126 130 128 133 131 132 139 160 175 154 142 133 100 89 73 99 111 122 125 136 132 132 135 137 131 133 127 125 112 108 91 85 88 49 29 42 73 77 74 74 78 39 50 58 57 57 50 41 37 46 57 107 111 121 116 111 111 115 115 124 131 128 125 117 111 124 135 141 145 154 158 163 164 167 160 169 162 163 162 158 156 151 154 140 128 131 133 131 130 126 123 126 128 125 127 131 131 137 136 160 170 158 145 131 113 94 74 89 107 116 125 135 138 135 136 136 132 132 125 119 116 107 92 82 87 57 56 71 71 75 76 76 79 41 52 61 66 86 74 49 43 33 64 114 120 121 121 112 106 110 118 132 131 125 114 111 120 138 149 147 150 147 154 154 157 159 159 160 161 156 152 154 147 145 145 136 129 131 131 136 125 122 121 125 124 126 127 123 131 130 133 154 172 153 145 136 118 95 76 82 97 112 120 128 128 131 136 131 132 127 122 110 114 105 96 80 84 62 70 71 78 76 76 75 77 34 35 63 52 83 95 60 52 34 61 115 118 112 117 114 106 111 120 130 128 118 116 120 131 143 149 144 149 148 151 152 155 155 157 154 151 151 144 150 142 140 129 136 134 133 128 126 120 125 126 124 123 128 126 120 120 129 128 151 169 154 144 141 125 90 77 79 89 102 115 117 124 129 125 127 129 122 118 111 109 104 93 80 83 61 69 76 76 78 75 74 77 29 13 53 65 81 93 80 69 41 74 120 110 112 117 111 107 112 124 123 120 106 119 130 137 134 143 139 143 146 145 146 148 149 145 144 145 143 139 142 138 136 129 129 128 123 121 116 122 121 130 138 132 133 130 120 120 115 130 144 162 153 147 148 123 92 74 87 84 89 107 109 123 123 115 119 121 118 110 112 104 99 88 80 72 70 75 75 76 75 78 74 76 30 18 12 58 98 96 90 80 53 73 101 111 106 115 113 113 113 120 122 112 100 120 133 128 129 141 140 134 140 141 138 136 139 137 135 136 128 133 133 135 128 126 124 113 112 108 106 107 117 129 144 138 140 135 127 125 119 118 147 155 149 145 143 127 88 75 88 84 86 92 100 111 115 107 114 113 113 107 108 98 96 88 77 75 67 75 72 77 75 74 75 76 34 26 18 24 98 104 97 86 72 70 98 106 108 107 113 117 112 114 115 104 98 121 126 126 134 134 128 129 131 129 128 127 129 127 129 123 126 128 125 130 125 122 115 105 102 104 112 96 116 133 136 140 139 135 124 125 124 122 137 148 138 142 141 127 93 76 84 88 82 82 90 105 111 104 106 106 104 105 99 97 91 86 80 71 69 75 76 76 75 74 74 77 36 30 26 12 75 106 98 99 81 70 115 105 101 110 114 123 113 113 113 101 98 121 123 121 125 126 121 123 120 114 121 117 121 118 123 124 125 125 121 118 121 114 104 97 100 113 121 102 117 125 128 128 129 130 127 122 127 125 133 142 137 139 133 121 96 82 80 82 84 73 77 92 102 104 106 104 99 100 98 94 93 81 80 70 70 75 75 79 79 74 76 74 41 41 29 15 18 96 98 98 91 72 109 101 102 105 114 122 117 111 106 108 109 120 115 113 117 119 111 113 109 108 106 108 111 115 117 118 117 119 121 117 115 111 93 100 114 126 126 112 108 111 113 108 115 114 117 119 115 125 127 136 132 122 121 112 96 79 77 81 86 72 66 82 86 95 104 101 96 94 95 86 89 79 79 73 69 76 72 79 72 77 75 76 45 46 44 27 13 27 81 96 95 69 102 115 101 101 112 121 119 110 107 107 112 119 113 106 111 106 110 101 96 103 96 102 109 116 115 111 114 116 113 112 105 90 95 111 123 135 137 137 119 90 85 82 69 71 85 111 108 114 118 124 120 108 105 100 90 79 73 90 84 85 74 64 74 81 95 94 99 94 97 82 83 78 73 73 69 76 73 75 74 75 76 73 40 31 41 34 27 16 18 38 44 46 105 107 105 105 108 116 108 106 110 116 118 113 115 102 109 100 91 89 88 96 91 100 102 112 109 103 114 102 99 95 83 94 112 128 133 142 142 132 146 109 54 58 49 47 33 77 103 107 108 107 101 95 96 91 85 76 83 89 91 85 92 83 65 67 83 92 93 97 92 82 79 79 80 59 70 70 73 72 77 76 73 74 51 40 31 35 29 26 20 20 12 32 77 109 108 115 111 109 110 102 115 121 112 115 115 113 104 86 91 92 91 100 100 105 102 109 109 97 93 93 86 82 96 114 126 131 142 135 137 129 130 131 75 54 51 59 60 50 75 106 97 90 86 84 86 84 82 74 79 86 81 84 99 93 90 80 60 77 94 97 91 79 82 87 78 42 55 66 68 77 75 70 75 72 43 50 44 35 36 34 28 29 11 20 72 109 116 116 106 112 113 109 117 126 114 122 118 121 101 80 105 109 101 108 111 99 99 95 88 85 82 88 89 109 128 131 133 132 135 139 135 128 127 122 99 71 56 59 57 63 56 86 97 85 85 82 87 82 79 77 79 87 81 82 91 96 92 92 85 60 87 98 93 83 83 94 74 39 58 70 75 72 78 71 77 73 33 43 57 49 34 34 33 39 27 12 70 121 102 108 113 104 105 112 117 120 122 125 124 119 97 92 117 118 112 108 103 96 82 94 92 102 100 114 130 131 133 130 131 132 139 132 126 128 129 119 114 99 73 63 59 60 58 60 84 88 86 83 86 68 73 72 78 82 82 85 82 99 93 89 86 82 68 95 95 80 91 86 69 65 78 70 78 73 76 69 76 74 47 36 51 48 33 38 36 40 30 17 46 102 108 114 115 113 111 102 119 117 118 120 118 120 100 102 122 109 107 106 104 85 107 117 113 108 124 136 142 127 124 126 122 122 125 129 126 120 126 119 116 117 89 81 73 59 53 54 56 50 63 68 68 66 62 72 73 77 76 85 81 87 93 88 87 90 73 91 89 84 85 91 65 73 74 73 76 71 75 73 74 72 71 40 35 47 29 37 29 44 46 14 31 95 100 111 114 106 118 117 118 111 121 117 113 113 93 108 127 111 118 102 97 119 128 111 106 127 137 132 132 125 125 124 125 122 124 125 123 119 122 118 111 114 105 98 82 73 62 54 57 64 50 73 69 71 74 74 71 80 78 86 84 85 92 89 80 81 81 84 93 71 95 81 51 56 76 76 73 73 75 73 73 74 81 62 35 37 50 29 28 23 34 26 9 81 113 99 109 110 111 107 118 107 115 111 113 104 87 101 118 115 107 105 120 128 118 103 114 132 127 124 118 113 113 114 119 123 121 125 115 123 111 110 124 115 108 111 94 93 76 64 74 75 64 72 76 72 80 70 73 73 84 89 89 83 90 91 84 85 79 88 88 79 87 77 30 40 70 70 71 73 72 71 73 77 77 77 52 36 49 40 31 30 18 28 5 65 104 104 95 112 112 104 111 113 114 105 112 110 93 98 113 118 105 121 130 116 102 113 121 116 116 106 104 100 111 104 118 120 115 124 118 111 114 95 121 119 109 114 101 104 94 91 87 82 77 79 85 82 78 77 78 75 88 93 96 80 76 88 87 90 85 87 89 79 83 71 43 43 69 72 73 73 71 72 72 74 78 74 66 54 45 46 46 30 29 28 17 38 97 111 98 106 112 105 102 111 113 102 110 109 101 101 118 122 114 126 117 108 101 106 111 101 100 98 98 86 96 91 102 102 113 111 110 103 110 107 110 113 111 109 113 117 105 106 100 89 88 87 87 84 78 73 80 77 76 73 83 79 81 85 88 90 84 92 81 82 86 65 48 60 71 71 72 70 73 70 71 67 74 76 73 64 50 43 48 43 36 33 20 31 84 116 97 101 103 92 100 109 108 100 104 105 108 102 113 124 116 117 112 111 101 107 92 88 79 67 68 60 48 51 75 92 88 94 99 100 88 99 95 84 88 93 89 90 97 95 100 83 84 83 76 76 72 55 45 40 43 52 68 77 86 88 85 88 81 90 70 85 73 59 62 69 70 72 69 70 72 71 71 71 77 77 76 75 60 36 41 47 30 33 19 29 78 103 103 112 94 97 101 109 105 100 107 107 100 90 112 129 117 115 112 112 104 109 93 72 72 62 64 50 51 22 26 55 56 66 74 86 69 64 70 69 64 78 80 70 73 66 73 67 73 73 59 77 71 30 36 60 71 71 69 75 86 89 94 81 87 74 75 78 71 59 69 69 68 69 69 65 72 68 71 68 76 75 77 78 75 38 26 35 38 25 29 21 77 102 104 105 102 94 95 113 103 101 102 99 103 91 106 116 106 113 108 110 111 107 92 81 66 71 72 74 74 64 41 42 39 54 88 98 66 61 90 75 77 97 96 92 77 71 81 86 96 100 49 79 64 37 68 79 84 76 77 70 81 90 83 86 84 70 81 71 57 68 66 71 66 70 68 69 67 71 65 69 75 74 75 74 81 62 28 21 31 31 28 26 61 93 109 110 109 97 96 92 102 102 104 105 101 97 109 115 108 109 105 109 109 104 90 77 79 82 84 90 101 110 90 75 44 30 87 88 22 56 97 80 93 102 104 102 90 74 108 105 111 117 46 42 65 63 79 86 86 80 80 69 87 87 83 83 79 77 88 62 59 68 65 68 65 68 68 66 69 66 66 67 74 74 75 72 77 74 43 31 23 33 32 18 64 88 109 113 99 96 104 91 99 104 97 107 101 99 116 104 92 108 107 97 114 105 85 80 92 100 91 94 110 121 129 124 99 72 60 56 19 25 77 69 76 106 103 109 96 38 118 108 105 86 33 52 78 84 76 85 90 78 83 74 94 87 81 86 70 73 78 59 66 68 65 66 67 67 65 69 64 66 68 68 76 77 75 78 74 80 58 37 26 22 28 15 70 95 106 118 109 98 99 95 102 111 97 109 98 89 110 99 92 108 106 94 93 90 84 95 94 108 104 106 115 118 125 124 126 130 117 96 70 46 41 40 27 50 52 57 55 13 63 62 54 57 66 91 81 75 78 86 89 87 80 91 80 86 70 87 81 60 64 62 64 67 68 61 66 64 63 68 61 70 62 66 71 76 75 78 74 79 72 58 34 23 24 12 73 97 102 111 114 95 99 93 101 106 115 107 92 99 90 90 99 95 112 89 83 77 97 92 95 109 107 109 115 112 114 119 113 140 139 142 133 101 87 79 66 49 49 41 44 49 59 76 84 93 95 84 68 73 80 84 89 85 81 85 79 80 66 89 69 47 55 65 64 66 63 63 63 63 63 66 63 67 64 65 75 73 77 75 75 71 92 106 58 32 26 8 68 110 108 117 107 106 100 94 91 98 103 100 92 101 94 91 99 87 97 84 101 89 95 94 97 102 106 111 111 110 109 110 112 126 132 143 140 128 112 113 99 91 94 87 94 91 110 95 95 100 87 74 66 80 84 89 88 89 79 81 81 71 69 78 45 59 63 63 64 63 65 59 62 64 62 63 59 65 64 62 73 73 72 75 70 85 138 142 86 43 22 4 71 118 103 110 120 118 101 87 93 102 102 95 96 90 119 93 104 95 83 96 96 95 86 95 93 98 101 110 115 109 102 106 109 112 118 121 123 125 123 117 101 103 110 112 124 107 105 97 95 88 77 66 78 84 87 87 85 97 84 85 84 66 75 55 57 64 61 65 60 64 60 60 63 61 60 62 63 65 60 62 71 73 71 71 100 147 158 155 115 55 13 4 71 128 109 113 114 118 111 93 77 100 102 101 108 86 105 109 96 97 86 84 88 99 83 99 109 104 101 103 114 102 105 104 101 103 103 109 105 113 119 128 97 91 117 121 124 117 99 91 84 79 69 76 87 92 81 87 88 94 91 73 81 70 62 57 58 62 60 65 55 64 60 61 60 61 62 63 58 61 60 61 73 74 65 131 172 166 173 170 147 73 5 11 87 125 121 105 116 108 101 99 99 84 92 109 102 103 93 92 91 98 91 89 92 88 93 91 104 103 94 97 104 101 95 102 104 100 97 92 93 103 105 108 101 96 109 104 100 100 78 79 80 72 77 91 87 78 79 82 94 87 78 72 81 64 57 60 59 57 59 58 58 59 57 57 62 58 59 57 60 59 61 56 72 65 129 183 180 178 187 191 163 95 4 37 107 124 119 114 108 115 101 99 101 93 83 93 103 98 92 86 106 106 99 106 86 101 91 86 95 108 95 92 97 100 92 93 89 97 94 97 93 93 91 89 89 83 92 81 84 83 71 67 69 86 86 81 83 74 89 78 91 95 71 60 93 94 56 55 58 59 60 58 58 60 54 59 58 60 57 55 57 61 56 56 60 138 185 181 183 189 196 196 182 114 7 82 123 123 120 114 104 117 113 102 104 100 84 91 83 86 102 104 84 95 97 103 90 90 94 86 96 96 93 98 103 96 86 88 87 83 89 92 107 101 86 80 81 88 84 86 80 76 81 75 83 81 76 76 83 80 87 89 89 95 79 50 73 102 88 52 58 60 56 56 56 59 52 59 56 57 55 58 56 57 55 57 136 188 191 182 186 196 198 203 189 119 33 117 121 124 117 115 115 118 115 108 100 108 96 88 88 87 87 105 99 80 100 98 86 108 108 88 100 87 91 97 101 95 89 85 82 87 81 81 78 80 81 83 76 76 90 73 80 76 74 71 71 73 83 75 87 76 91 100 100 69 52 65 62 85 111 83 50 57 54 56 56 57 55 53 56 55 54 55 58 53 54 57 188 193 194 183 186 199 201 201 188 139 69 129 123 119 121 117 109 114 112 109 100 102 104 96 89 87 76 90 101 90 87 116 87 108 99 100 100 97 91 97 111 98 89 76 79 76 75 75 68 70 64 64 58 52 66 54 56 62 64 65 70 75 78 81 86 92 82 101 97 51 33 73 69 76 96 116 65 47 55 53 56 53 55 53 55 55 55 53 55 54 53 53 194 194 196 186 186 198 201 203 188 161 99 138 127 119 121 120 117 112 112 108 101 95 100 95 90 83 81 71 98 97 94 93 102 112 101 94 103 90 107 103 99 88 92 79 70 74 70 73 61 62 60 58 56 49 53 56 61 70 79 83 74 84 73 90 93 94 92 95 84 31 44 60 78 71 88 112 98 51 52 54 51 55 56 54 54 52 55 53 51 54 54 54 194 195 198 191 184 195 204 201 186 167 124 137 134 124 122 130 120 117 110 116 111 98 97 98 96 93 84 82 86 82 94 95 99 108 115 105 96 99 109 109 97 98 96 81 92 90 87 84 76 70 75 69 66 67 73 83 85 85 85 90 86 91 87 92 97 99 89 110 48 19 54 53 69 86 80 100 123 65 48 53 56 49 57 51 52 52 52 52 50 55 52 56 195 196 200 193 183 193 203 203 183 170 134 133 136 127 122 128 125 115 109 110 106 97 103 103 89 98 87 83 87 81 69 81 89 86 102 108 104 98 110 105 107 106 107 95 115 115 107 108 104 94 83 86 76 80 81 83 89 93 78 86 84 91 92 98 98 94 100 96 36 9 52 54 55 95 84 89 119 100 40 54 53 50 53 48 54 49 52 52 49 54 51 51 197 195 200 195 184 192 203 205 184 175 152 122 141 129 125 126 124 124 121 118 106 104 103 108 87 101 87 85 87 93 83 77 81 78 97 102 99 105 107 98 122 116 107 113 121 118 111 117 103 108 97 94 89 83 88 86 87 86 84 82 85 91 94 92 99 98 99 89 28 8 42 58 64 87 97 87 110 120 55 50 50 52 50 51 52 51 52 49 52 51 52 48 199 195 198 195 184 191 201 206 186 181 165 114 139 139 130 132 127 124 125 127 117 113 96 106 94 94 89 88 86 89 88 82 86 80 86 97 99 113 112 109 117 111 120 117 111 118 110 123 108 103 100 89 90 88 93 84 81 76 88 81 91 89 89 106 101 100 87 80 28 15 42 61 73 81 103 90 104 124 98 71 63 48 50 50 51 51 52 49 46 50 47 51 201 198 197 197 186 189 200 205 191 184 187 137 130 144 138 133 126 126 124 126 126 108 106 106 100 90 87 93 85 83 85 84 85 91 71 83 84 116 108 117 108 104 129 107 102 113 104 100 105 95 92 92 84 77 77 83 77 72 87 85 84 87 93 101 102 84 82 81 38 14 40 69 69 83 103 97 97 120 112 106 101 87 61 54 44 49 51 49 50 53 45 45 204 201 200 199 188 188 200 205 195 184 186 164 117 145 141 132 130 127 126 126 125 122 111 108 105 102 92 96 94 88 85 83 90 94 81 72 62 94 107 113 111 102 118 109 97 116 95 102 101 84 93 82 85 61 68 61 77 81 72 96 81 97 103 86 88 90 79 78 58 14 47 69 63 86 107 101 93 118 120 107 108 109 101 97 72 54 54 47 49 49 47 48 205 202 201 200 190 187 198 204 200 185 196 180 120 133 144 140 129 121 121 130 129 125 121 110 110 102 96 93 83 90 92 91 90 88 90 79 70 65 84 94 106 103 106 99 107 114 102 92 106 82 95 82 78 65 72 73 72 95 84 96 96 99 95 85 87 89 76 85 72 16 35 66 66 97 98 107 91 116 122 112 108 112 108 107 106 96 92 83 72 59 53 48 203 202 202 201 192 185 197 205 203 184 193 195 122 115 140 143 136 127 125 128 128 126 123 122 112 102 99 97 86 89 93 91 88 88 85 86 71 72 71 66 74 85 102 100 101 106 96 82 103 79 92 82 74 67 75 79 90 87 96 86 95 84 90 86 86 80 81 83 79 23 33 70 78 98 89 106 94 116 124 111 110 112 109 107 107 107 106 106 107 103 94 75 205 202 202 203 195 184 195 202 207 186 195 194 185 107 133 144 136 137 127 131 130 130 126 121 118 108 103 99 92 91 95 90 89 86 80 85 80 75 76 77 71 70 70 83 89 95 89 94 94 81 85 86 67 75 77 68 81 80 83 87 91 88 89 86 89 84 74 81 80 21 43 73 79 81 92 105 98 115 127 115 111 112 110 110 106 109 109 108 108 110 106 109 205 204 203 204 199 186 191 203 204 193 192 194 205 161 121 139 143 131 130 131 134 133 125 125 113 109 106 102 90 96 86 86 87 82 86 87 85 81 75 74 79 75 67 65 70 75 70 75 75 77 61 70 71 81 78 73 84 87 91 87 88 91 82 87 84 79 77 85 70 29 55 91 86 69 90 104 101 115 128 123 112 113 112 109 111 109 109 111 110 108 111 109 203 205 204 203 202 190 189 199 205 198 187 195 193 192 130 132 142 138 126 131 138 129 129 126 122 113 103 103 104 88 87 84 88 85 89 89 83 80 79 77 85 81 79 66 76 68 68 67 59 76 76 72 81 84 82 86 90 88 91 92 88 91 85 80 84 78 83 88 70 25 65 102 90 61 95 110 102 116 131 122 121 115 118 116 115 112 111 110 111 112 111 111 