P2
92
112
255
88 85 89 87 88 88 93 88 92 85 95 89 92 92 91 93 94 89 100 89 95 81 90 86 86 88 87 89 79 90 75 59 49 36 37 35 28 35 30 33 36 37 48 33 42 46 43 36 48 53 80 88 97 79 75 52 56 63 63 62 101 65 62 75 84 89 86 89 91 86 93 82 89 87 87 84 91 88 87 87 89 88 84 88 87 88 87 88 87 89 87 84 87 88 84 86 89 87 90 90 87 94 88 89 89 93 91 89 100 100 91 92 85 78 79 78 78 71 77 78 74 81 65 39 49 32 43 30 26 37 34 37 29 37 43 44 40 37 41 51 51 54 41 55 70 85 91 70 82 64 53 66 67 69 72 66 71 84 88 87 84 89 88 89 87 87 88 87 88 86 89 86 87 89 91 86 90 88 83 90 87 86 89 87 85 88 88 87 88 91 88 90 91 91 90 91 90 93 89 98 106 89 87 71 76 58 61 62 58 56 70 79 65 62 46 33 42 35 37 32 29 37 39 35 29 37 36 48 44 51 50 44 49 53 57 61 51 67 65 84 73 70 74 74 69 57 70 60 62 73 73 85 88 90 89 88 88 89 89 88 91 85 87 90 86 84 90 85 90 87 85 88 89 85 90 83 84 88 86 89 85 90 89 89 90 90 91 90 92 89 97 89 79 67 73 70 68 61 58 59 49 45 47 59 74 56 33 33 39 36 28 34 25 39 26 43 36 27 36 45 49 54 44 47 43 44 51 58 58 56 62 69 63 63 66 56 62 70 61 62 49 59 63 71 80 85 88 89 90 90 90 87 90 86 89 90 86 84 91 87 87 87 88 86 85 87 87 89 86 87 87 88 87 91 87 92 90 90 89 93 87 96 80 75 78 73 75 69 63 60 53 48 51 48 40 41 60 54 37 29 40 37 25 33 27 34 33 26 38 33 45 37 52 44 58 59 44 47 46 48 51 62 65 67 69 63 51 49 52 55 71 81 65 54 52 58 59 67 81 89 86 91 87 87 92 86 88 89 88 88 88 89 85 88 88 84 90 87 87 86 88 83 87 86 89 86 92 86 91 92 88 87 93 86 77 81 82 66 71 59 45 38 50 43 43 31 36 49 40 50 42 32 38 41 30 30 30 36 40 35 26 33 50 43 56 52 53 64 76 71 62 48 43 59 72 65 70 70 67 47 39 51 55 64 67 77 58 40 53 56 56 72 89 86 89 86 92 86 87 88 85 90 85 90 88 90 86 91 83 90 88 88 85 85 88 87 87 84 91 85 95 85 83 90 85 75 73 69 74 67 52 50 50 42 44 28 35 31 50 40 32 47 42 39 31 43 34 37 47 34 41 47 36 30 46 45 52 58 63 64 59 76 80 77 59 54 61 69 65 84 82 86 72 51 45 55 55 61 71 54 49 46 40 41 71 89 89 90 88 87 87 90 84 90 85 88 91 90 86 87 90 86 88 87 84 87 89 88 86 85 88 85 82 80 84 77 79 79 77 74 84 46 71 75 49 38 36 26 32 52 39 39 32 46 48 34 37 42 47 47 44 31 38 50 45 38 39 38 50 57 58 63 53 61 67 70 80 74 60 60 66 66 70 76 89 97 72 50 56 60 58 64 62 54 36 33 31 58 89 88 87 86 92 88 85 87 88 88 88 91 87 86 92 83 86 91 85 88 87 86 84 92 88 73 70 87 91 70 88 90 74 65 92 73 77 55 45 43 23 34 64 44 36 41 34 48 46 38 47 49 47 39 51 43 37 39 64 57 41 48 27 36 47 58 51 60 66 75 65 68 75 70 52 58 62 56 57 85 92 81 71 63 57 57 65 76 57 35 35 33 64 92 86 87 88 84 89 86 85 87 87 86 85 89 86 86 89 87 89 87 84 89 89 85 73 80 83 85 93 92 92 77 82 92 92 65 60 48 51 30 42 66 54 38 48 35 40 49 49 46 70 56 40 55 64 42 37 35 61 73 58 54 42 30 37 30 54 42 61 69 86 58 57 66 63 59 52 52 55 59 72 81 90 85 70 63 62 49 77 67 47 31 28 69 88 90 88 84 91 85 90 84 89 88 86 87 87 85 85 86 90 83 87 87 89 80 82 80 85 78 92 93 75 71 77 78 83 76 56 53 40 29 95 57 38 49 53 23 62 60 36 69 55 47 57 60 56 43 35 45 43 62 67 76 59 48 31 36 26 37 62 60 61 64 64 51 63 62 53 57 48 40 51 70 73 73 65 83 75 74 56 69 83 57 43 36 75 88 88 88 85 87 88 89 87 88 89 87 84 90 85 90 86 86 87 88 77 79 69 68 64 76 83 78 67 63 97 104 68 67 68 41 39 67 78 45 49 59 46 39 64 49 66 58 42 61 82 57 45 43 43 55 48 52 68 84 77 67 48 36 40 41 45 71 70 58 53 66 52 68 56 44 58 51 37 34 46 63 61 63 57 79 83 69 71 76 64 50 45 87 85 93 85 86 85 88 90 88 88 88 89 86 88 90 87 83 87 93 76 56 68 64 62 81 68 60 60 91 78 64 78 82 49 50 66 72 49 58 58 65 41 56 58 46 77 46 73 76 69 50 53 53 54 51 58 49 60 68 93 81 72 47 46 43 45 55 67 64 70 44 55 66 64 66 60 47 44 44 42 36 53 53 49 47 66 67 81 71 84 77 57 54 80 91 88 88 90 87 86 89 85 89 83 88 87 83 84 83 92 79 58 55 73 51 56 49 54 57 73 60 65 77 79 72 63 68 75 58 54 50 67 63 60 62 58 76 71 56 65 65 76 57 67 58 61 65 66 55 61 69 93 95 82 67 52 52 59 65 69 70 66 67 40 63 74 59 72 70 51 38 36 36 45 42 45 53 47 52 61 75 70 88 82 61 54 85 85 86 84 91 87 88 86 91 85 88 87 86 80 91 82 60 49 58 60 40 45 56 50 56 63 67 79 79 67 88 68 74 77 62 58 57 79 63 61 64 72 82 61 57 74 80 80 67 79 61 65 75 73 78 84 85 90 103 102 90 73 65 70 76 89 81 72 73 73 51 70 69 70 66 67 61 48 33 36 37 38 52 45 45 45 54 59 72 75 72 55 71 84 84 83 91 83 91 83 90 87 87 89 86 84 90 70 51 50 64 39 38 62 62 55 58 63 67 76 59 104 90 74 82 76 66 65 73 86 58 50 73 79 61 62 81 90 92 85 74 73 75 74 85 74 93 96 101 101 108 127 110 92 71 80 76 83 88 90 85 74 81 59 70 72 78 74 62 75 61 42 39 37 40 41 41 43 46 52 52 64 73 66 56 73 88 86 83 86 88 89 88 93 83 90 87 82 78 63 42 56 45 32 46 52 45 61 65 69 71 58 76 105 91 71 78 62 62 66 83 75 50 58 70 73 63 66 104 101 87 88 76 80 82 91 82 86 110 111 106 116 120 140 137 111 91 68 89 88 87 99 107 86 70 96 71 60 73 98 78 71 75 72 56 43 46 44 39 38 46 37 46 53 51 62 68 50 80 85 87 88 84 93 86 89 85 88 89 85 51 44 46 45 39 33 38 40 54 62 65 69 63 81 104 92 79 66 55 50 60 74 81 57 45 83 68 64 66 88 112 100 101 93 87 87 93 96 94 104 119 124 112 123 126 144 150 139 115 86 79 97 94 94 92 98 84 82 93 81 68 75 89 80 68 65 73 54 57 46 39 40 32 37 35 48 49 46 62 49 68 78 85 87 91 87 90 88 87 87 89 68 40 35 43 35 35 33 35 55 64 47 56 78 73 93 85 62 47 57 49 51 71 82 69 44 61 79 67 74 87 108 107 99 109 102 95 92 104 102 119 115 129 130 122 126 130 147 153 148 137 115 83 85 93 96 93 86 87 99 84 90 77 64 65 71 76 62 60 67 60 60 41 41 40 36 35 32 43 47 45 33 57 69 83 85 86 89 89 87 90 86 91 54 31 43 28 33 36 32 50 73 41 40 78 73 65 59 62 43 48 49 55 59 76 78 58 49 72 82 76 94 103 120 112 109 112 106 97 104 112 114 124 124 138 135 125 139 136 152 158 151 149 131 103 82 82 85 93 88 88 87 95 86 77 91 70 50 55 64 66 68 69 59 61 62 42 46 40 40 31 34 32 44 45 56 66 86 87 86 89 89 89 85 92 43 34 34 36 28 36 41 74 70 30 54 67 68 48 52 44 36 51 48 61 65 80 66 55 61 90 103 93 103 114 123 113 112 106 107 99 119 119 130 131 135 143 128 132 143 148 155 154 151 147 142 128 98 90 78 85 91 87 86 88 87 75 77 76 88 62 49 57 65 66 65 56 47 60 58 45 44 40 43 26 38 49 46 48 81 86 89 87 88 89 85 89 27 31 35 29 28 48 59 54 37 60 68 62 60 53 41 40 34 56 57 53 70 73 74 71 88 117 105 93 105 120 123 123 102 108 106 106 121 129 136 135 138 142 129 142 146 155 159 157 154 150 148 149 112 102 81 81 82 81 63 82 87 75 68 76 76 77 70 54 52 65 66 70 60 52 48 42 45 38 56 48 37 47 47 47 57 86 83 86 91 86 86 85 36 42 38 36 42 48 59 46 58 60 50 54 46 35 38 39 42 65 55 75 69 62 83 100 127 121 92 95 117 125 125 109 94 106 111 118 136 138 136 140 141 135 136 143 157 165 164 166 153 148 153 150 123 112 101 69 75 74 73 49 56 75 81 71 72 70 71 74 74 66 60 65 77 65 54 46 44 45 41 54 53 54 38 60 49 70 94 87 87 90 86 90 36 41 45 33 45 25 80 44 54 45 39 36 32 39 44 43 49 58 66 76 67 74 114 142 136 94 86 116 118 115 111 97 101 107 119 134 135 132 145 146 147 134 141 153 162 165 163 156 158 157 153 149 132 119 106 84 63 72 74 61 57 42 48 57 76 65 63 60 54 62 67 72 61 86 63 56 51 31 44 37 45 65 57 46 51 82 86 82 90 89 85 92 51 42 34 36 35 47 49 39 40 39 26 33 41 40 47 46 48 61 77 75 77 110 137 149 116 88 99 125 112 110 96 96 107 117 127 142 135 145 163 153 143 139 144 158 164 170 167 164 160 163 152 156 136 125 109 93 80 66 68 66 68 57 51 41 56 69 69 63 52 55 62 67 67 66 61 67 64 54 52 28 52 46 46 45 46 76 92 87 91 91 87 88 39 35 36 36 35 49 33 40 37 22 35 38 45 42 40 52 64 85 77 84 105 136 135 124 102 90 113 122 107 97 91 99 116 113 139 130 141 152 161 139 150 142 156 162 165 170 165 159 159 161 151 160 133 132 117 97 82 78 64 62 60 65 55 42 42 54 51 63 69 60 54 60 55 57 47 52 65 64 63 47 35 42 43 36 42 74 88 88 89 86 85 88 34 35 27 31 43 43 30 33 33 31 36 36 35 40 47 72 86 89 79 101 125 136 115 106 88 112 111 110 96 87 95 113 113 118 128 133 144 163 154 139 150 163 168 169 171 174 164 166 166 151 151 161 139 139 127 101 94 81 74 59 58 56 65 62 41 38 40 48 54 54 60 56 60 53 43 47 48 48 67 61 52 40 39 42 34 49 92 88 88 87 88 85 33 27 25 36 45 30 23 26 33 31 31 36 32 47 63 91 90 104 100 115 124 120 113 89 109 112 102 89 84 90 94 114 111 125 121 144 154 152 150 142 158 168 175 170 175 173 169 165 165 158 156 164 143 142 136 109 101 90 76 70 61 57 58 57 57 44 35 37 37 41 46 48 48 55 49 52 46 34 51 57 63 69 41 46 43 40 76 92 88 90 89 87 29 22 33 38 40 26 23 27 32 27 32 41 39 69 96 92 114 115 115 122 113 120 92 92 114 100 90 79 91 89 111 112 112 121 129 150 143 144 142 148 165 173 175 172 172 168 170 161 161 159 154 165 142 145 136 119 113 98 85 74 67 60 51 56 50 55 49 41 32 29 34 32 40 43 47 42 42 39 40 49 39 53 57 40 37 42 62 91 87 88 90 89 25 35 36 36 30 26 23 31 29 32 39 48 49 91 103 118 124 115 128 113 114 98 78 109 102 90 81 85 84 100 111 107 113 120 133 144 142 142 144 153 167 174 171 173 170 169 163 161 160 160 154 164 141 139 139 125 119 110 96 80 75 67 53 48 56 49 50 46 44 34 27 29 29 36 42 32 38 34 45 56 44 47 37 34 33 39 49 77 90 88 89 85 30 38 26 32 22 22 26 36 38 44 58 55 85 103 118 136 123 121 123 118 109 71 99 101 88 76 80 88 92 112 107 104 111 121 138 147 145 142 142 154 160 166 161 170 161 161 161 161 158 156 157 164 146 136 141 125 121 118 103 93 82 73 68 48 47 53 51 48 42 38 38 35 31 29 24 30 26 33 36 49 47 40 35 33 32 27 42 58 88 88 92 82 35 24 27 26 19 23 29 45 48 61 60 78 104 110 117 127 125 114 129 114 76 82 102 93 74 64 84 89 102 111 107 110 111 136 143 148 148 144 147 162 169 174 175 172 162 161 157 156 154 149 156 163 150 133 133 131 126 122 114 110 89 86 73 61 51 46 46 48 50 40 36 35 32 24 20 21 23 24 31 35 42 46 29 33 34 34 25 50 86 86 88 85 26 22 28 24 20 26 43 48 58 61 81 89 99 115 115 128 119 137 125 78 66 103 91 67 68 71 81 105 106 100 106 118 130 143 148 144 143 154 158 170 173 171 171 171 165 167 166 166 163 157 162 162 148 141 129 133 128 128 120 115 105 94 81 74 60 53 46 45 40 45 45 38 37 32 29 23 24 20 21 30 29 29 50 36 31 35 32 31 82 87 90 87 29 19 23 27 29 36 38 50 52 70 97 85 98 117 113 108 130 139 87 56 92 91 63 53 74 72 96 109 96 106 123 125 137 145 151 148 151 160 161 171 174 166 169 167 162 167 170 166 161 165 161 161 155 146 140 131 128 132 129 121 115 106 94 85 76 56 53 50 42 41 40 42 30 35 29 28 32 24 27 21 26 22 23 38 22 36 33 32 80 90 89 90 20 22 27 34 34 36 36 52 61 82 81 76 95 93 89 119 134 116 64 67 72 75 56 75 72 95 106 103 108 118 124 134 144 145 141 144 156 167 159 168 166 169 173 167 172 165 171 167 162 163 157 158 155 145 141 137 135 130 130 128 120 114 109 99 92 80 60 59 41 47 35 41 48 31 30 26 28 19 27 21 26 24 28 29 23 31 33 36 62 87 91 88 24 22 36 31 35 39 43 48 74 95 71 70 93 96 112 132 121 83 65 68 67 68 70 83 87 98 110 112 121 131 133 135 145 139 145 147 163 174 170 169 164 169 171 168 172 168 167 170 165 161 159 164 158 150 148 143 139 132 138 132 125 134 118 112 101 97 82 74 54 53 49 36 41 37 36 28 33 27 24 27 26 25 28 35 32 24 38 35 39 90 88 90 27 34 29 34 34 44 43 46 93 86 67 83 91 104 118 111 85 88 77 81 71 68 81 93 93 103 112 119 130 132 134 139 134 138 143 146 151 166 166 163 174 176 168 165 165 165 162 160 162 163 161 162 155 154 145 150 136 135 138 137 133 131 134 123 113 103 98 86 78 64 59 43 37 42 33 35 36 30 29 25 23 27 28 26 28 25 35 35 32 88 90 91 30 35 30 31 38 39 42 57 106 67 74 86 100 112 114 102 95 97 94 75 63 73 91 96 103 106 111 129 131 135 132 139 134 136 148 159 162 170 168 164 168 170 167 168 167 165 164 162 163 164 159 161 150 155 150 150 144 133 130 141 139 139 134 128 130 124 111 102 90 82 75 69 53 49 47 40 32 33 33 26 23 23 22 29 25 24 35 40 29 88 87 92 33 32 28 33 45 37 38 77 112 66 83 100 98 101 107 102 97 97 88 67 89 88 93 105 110 111 120 126 128 131 133 139 144 151 158 161 161 162 166 167 165 166 167 172 169 162 162 166 163 167 160 157 153 158 154 141 145 136 130 130 144 149 137 136 133 131 126 117 107 104 93 88 84 72 59 50 53 37 37 30 28 23 23 27 20 31 31 39 22 82 89 91 26 33 27 35 47 34 40 97 103 74 87 89 92 104 107 99 110 92 89 85 92 89 96 107 115 121 121 126 123 131 136 149 155 163 160 162 163 164 165 170 161 163 164 165 161 157 153 158 154 159 156 153 150 152 149 142 139 133 134 123 134 148 139 135 132 131 128 121 113 108 101 96 97 92 83 70 62 66 49 38 38 29 26 28 27 19 35 39 18 64 95 88 34 34 23 43 36 29 51 103 89 81 76 81 98 95 94 102 116 102 103 93 91 90 99 111 110 120 122 126 126 136 148 156 159 159 164 171 170 165 166 163 161 161 159 158 155 155 152 150 147 144 145 145 140 140 142 140 130 130 131 125 122 133 136 134 127 124 124 121 113 108 107 99 106 98 91 89 75 71 72 62 49 40 36 24 35 27 30 37 18 48 92 88 34 29 32 40 25 39 47 96 90 84 66 77 76 78 84 94 109 116 121 102 94 104 111 115 119 126 136 132 138 151 149 155 154 160 170 173 167 165 154 150 153 151 145 145 147 142 145 146 140 134 140 138 132 132 135 134 127 126 123 122 119 123 123 123 121 116 119 117 110 110 107 104 105 107 102 94 90 81 73 84 72 57 46 33 28 37 24 34 14 45 88 87 30 30 34 33 24 45 46 98 91 80 66 56 58 76 87 98 111 125 132 116 118 123 126 129 134 136 144 141 147 146 146 157 158 146 155 162 162 159 146 134 138 141 133 135 131 130 130 135 132 128 129 126 121 124 128 125 115 120 107 115 110 114 110 109 106 109 113 108 109 107 107 109 107 104 105 100 89 83 71 75 85 75 56 41 25 36 31 34 21 33 83 91 29 33 32 27 29 43 45 96 89 72 60 38 50 78 80 108 123 129 128 131 132 137 133 136 137 148 147 150 143 145 148 155 154 138 146 131 135 133 119 122 125 117 131 120 123 119 113 121 121 120 120 115 120 116 119 125 102 109 102 99 101 107 102 105 98 101 106 101 101 105 104 108 104 99 95 95 87 81 85 74 73 81 78 55 14 29 30 39 22 37 78 90 30 31 30 23 35 48 41 94 78 76 40 17 51 69 91 110 131 130 136 134 139 132 135 131 132 140 148 146 148 147 153 155 144 141 125 118 128 122 111 108 105 100 96 106 106 100 109 108 108 110 105 108 114 117 121 113 103 106 93 101 100 95 94 106 102 103 101 103 93 98 87 96 97 91 90 97 94 85 83 88 75 68 86 59 13 21 27 37 37 29 67 85 39 29 27 27 38 35 62 86 75 64 29 24 46 69 100 116 128 135 133 134 135 133 131 122 134 130 142 138 142 137 135 145 140 132 107 108 117 112 104 91 86 84 74 82 83 68 77 81 83 91 94 99 106 116 115 117 102 102 90 97 97 90 96 98 92 99 88 84 88 89 91 98 98 96 92 85 78 85 80 81 82 77 72 76 15 19 25 33 40 22 50 79 34 24 19 35 39 42 51 81 76 54 27 31 49 78 101 125 130 136 133 131 136 125 130 127 130 133 139 126 129 133 128 128 127 114 104 108 112 103 84 76 72 62 54 64 63 62 70 76 74 83 88 84 97 111 115 109 102 90 96 105 95 100 94 92 91 81 75 70 66 63 61 57 63 66 73 75 72 71 72 77 74 78 75 80 26 19 24 37 36 28 32 75 27 20 21 38 45 37 54 77 76 45 21 23 41 71 109 133 127 134 137 131 133 124 128 126 124 132 135 119 119 114 113 119 118 103 93 101 103 77 74 68 67 66 61 61 63 63 71 72 75 74 82 81 92 103 116 112 106 100 106 112 108 91 92 77 76 67 62 62 62 61 63 63 66 72 70 74 67 70 74 75 71 71 75 87 32 26 23 36 40 29 29 51 26 23 26 37 45 42 51 71 75 38 17 21 37 65 112 134 132 134 131 130 128 129 120 126 124 127 128 111 116 114 113 109 105 96 86 89 81 79 79 82 75 80 68 70 67 74 74 72 75 77 78 77 88 100 122 121 123 122 129 129 112 92 77 62 64 62 60 55 50 47 51 49 55 67 64 72 79 77 84 82 76 69 85 82 49 26 24 37 37 30 31 64 25 23 27 42 40 42 58 65 80 34 21 19 35 73 114 130 133 134 130 133 137 132 123 125 120 126 126 117 113 102 98 95 97 90 89 89 87 85 79 70 61 55 49 50 50 66 76 79 80 83 80 81 85 101 135 142 151 149 151 145 120 91 67 57 59 44 41 33 35 31 27 32 44 48 50 45 58 59 79 90 79 79 84 86 44 50 18 37 40 30 39 72 28 26 32 37 42 38 61 57 76 40 15 17 40 77 110 134 129 131 127 130 131 128 127 123 116 120 113 109 110 104 91 92 91 86 89 79 68 58 50 42 57 51 56 49 51 41 62 74 79 80 82 85 82 101 136 161 166 166 168 155 128 92 67 54 45 43 33 29 34 23 32 28 50 79 52 43 53 52 56 84 88 86 85 88 42 40 30 34 39 32 40 80 32 25 38 36 36 43 52 53 73 44 15 20 45 77 109 128 131 125 132 132 123 123 114 113 117 111 110 102 104 100 94 89 81 70 64 50 40 41 37 36 34 72 77 53 50 59 53 68 75 77 80 83 84 103 139 166 170 166 165 154 134 95 65 55 45 51 44 38 32 32 32 31 60 98 78 49 47 54 51 73 85 89 88 91 51 33 42 36 33 36 41 70 29 30 36 41 30 45 49 52 65 46 12 28 46 71 109 125 132 125 125 134 139 133 121 115 119 116 109 102 99 94 85 69 60 53 55 43 40 33 34 35 39 84 106 81 62 52 68 66 71 76 75 82 87 104 142 160 171 170 160 153 144 103 68 71 57 53 58 43 48 49 39 49 80 90 70 64 63 68 67 66 77 83 90 92 47 37 38 34 32 33 52 73 34 35 38 37 35 50 44 51 61 46 19 29 39 65 111 123 128 132 129 122 131 139 135 126 121 106 105 96 93 84 62 51 51 48 66 52 40 46 47 32 62 106 104 85 70 68 45 75 78 74 79 87 98 116 139 156 168 170 162 152 146 119 79 80 78 67 66 64 69 79 70 72 69 77 86 89 90 94 94 80 76 85 97 90 38 34 30 35 31 35 43 78 40 35 46 31 39 41 44 40 62 44 23 26 38 70 114 130 125 123 123 119 121 121 125 120 120 121 116 94 77 63 56 58 66 70 66 74 65 65 61 62 83 96 91 84 79 81 77 76 84 92 85 86 115 133 142 147 157 169 167 155 151 131 89 82 97 82 60 68 64 73 76 83 91 98 98 103 97 102 97 93 85 91 97 89 27 32 34 33 31 46 62 75 38 39 39 37 34 39 38 40 58 35 26 31 36 69 113 130 133 138 139 144 143 137 128 110 92 87 83 77 71 78 83 96 108 110 99 106 97 101 87 85 89 86 90 88 87 87 91 91 91 100 91 97 129 143 144 144 142 162 170 152 149 139 102 83 89 81 71 66 70 80 86 88 100 100 100 93 93 100 98 88 97 91 92 93 26 36 29 33 29 68 81 79 42 37 40 36 42 48 32 43 49 46 18 40 40 60 109 124 121 135 128 127 134 133 128 125 122 116 104 97 110 115 109 113 121 121 118 122 123 115 113 105 108 100 94 93 84 87 90 94 95 105 109 120 143 147 139 136 138 155 169 153 150 140 112 91 87 89 87 85 80 81 81 79 84 92 89 96 103 107 104 96 99 100 86 96 32 35 36 26 37 72 82 81 49 46 45 35 47 37 41 39 50 43 18 39 52 58 101 122 120 122 126 122 135 139 140 147 150 147 140 135 145 130 132 135 130 118 110 112 118 112 112 108 97 98 92 90 92 98 102 105 106 118 133 142 149 147 136 134 128 143 169 160 143 141 124 96 90 93 91 96 97 104 102 102 105 108 111 113 111 110 104 113 101 97 90 105 38 38 29 31 35 65 81 82 43 55 33 47 41 42 42 42 45 43 18 44 50 54 89 127 122 126 137 134 135 140 139 137 141 144 151 156 136 131 142 146 142 122 118 109 97 101 102 101 100 105 104 104 105 105 107 118 127 137 147 148 147 141 138 132 128 131 166 171 150 138 133 101 87 103 110 104 104 106 99 108 111 116 119 116 111 114 111 109 109 100 87 106 45 30 31 41 40 55 83 82 40 54 38 53 36 40 47 34 44 41 24 45 60 43 90 114 121 121 133 132 138 130 135 142 142 145 151 153 142 138 143 155 159 151 149 139 133 133 132 130 122 121 116 110 112 115 130 140 144 145 150 145 141 136 134 131 124 130 154 168 159 145 139 106 80 105 114 116 111 113 109 112 113 112 115 112 116 116 108 106 113 104 91 102 56 28 37 52 50 72 74 82 41 37 51 54 43 41 45 41 36 50 25 47 57 58 80 115 117 123 129 131 124 133 139 144 138 141 141 142 162 164 150 149 149 149 149 147 149 142 137 135 129 121 120 119 127 138 149 153 149 149 142 142 136 135 126 131 120 120 143 170 166 147 141 108 76 98 112 119 124 120 121 119 116 118 114 115 122 119 111 106 112 103 94 100 58 24 43 55 72 74 77 84 40 29 54 57 50 36 49 44 37 43 24 42 52 67 78 115 119 125 120 123 131 140 138 135 134 134 148 159 159 169 164 153 145 153 154 152 153 146 140 139 133 133 130 132 143 147 154 151 148 144 142 135 131 133 127 128 127 125 138 169 169 150 147 111 79 88 106 118 129 131 132 127 120 122 120 122 123 120 112 117 109 105 95 96 63 27 32 53 76 78 78 82 32 34 44 56 45 35 46 43 38 41 19 46 41 64 80 110 121 120 118 125 134 133 129 128 133 141 151 154 157 158 159 165 156 150 154 154 153 147 146 140 133 139 142 147 153 154 154 150 146 137 139 133 126 131 128 129 127 131 140 164 172 153 150 121 85 82 97 114 128 131 138 128 125 128 129 130 130 126 122 119 108 102 90 100 64 19 35 53 74 82 82 82 25 40 39 53 38 35 38 38 41 43 26 47 43 57 82 107 123 116 118 132 129 127 124 130 133 140 149 152 156 154 165 165 165 145 147 146 144 136 144 142 142 149 151 155 155 153 154 151 146 138 135 126 125 131 132 130 130 129 141 157 178 158 148 131 98 86 85 109 122 129 134 130 136 133 137 136 136 132 126 118 110 102 91 93 66 14 42 66 79 79 84 83 26 50 41 51 41 35 38 33 41 37 40 29 66 55 85 114 120 119 117 130 125 122 128 134 133 140 145 143 145 155 162 155 158 154 155 154 150 154 155 158 159 158 161 153 152 149 150 148 141 138 126 126 127 132 132 133 135 137 142 157 177 163 151 135 115 95 83 100 117 124 132 138 139 135 138 136 135 131 128 119 113 103 87 92 68 35 55 79 80 81 80 81 37 50 49 41 34 40 33 26 36 39 37 31 66 61 90 118 123 114 116 126 124 123 129 135 133 135 136 137 141 145 151 157 162 169 166 168 165 164 167 164 161 162 159 154 149 139 142 137 137 135 128 127 128 130 130 129 135 138 142 154 175 167 150 138 121 102 84 90 112 120 131 136 137 138 139 135 135 128 123 121 109 105 85 93 73 59 76 80 81 80 83 78 40 51 53 38 35 50 23 30 21 41 50 27 66 77 103 124 122 112 115 118 119 122 129 131 129 126 118 132 134 140 150 158 164 163 167 165 166 166 164 164 161 157 157 155 140 128 134 138 135 127 127 126 126 125 131 127 128 135 130 144 171 164 148 142 130 103 81 82 99 114 124 128 134 128 134 137 133 130 119 114 110 103 86 89 78 71 80 81 82 83 83 85 50 63 51 35 42 51 31 35 36 36 42 42 71 105 113 121 114 110 110 115 123 125 131 125 117 118 125 137 138 148 143 153 159 156 163 165 162 165 159 151 157 150 150 144 138 136 136 132 131 126 123 125 125 127 128 128 117 129 129 140 168 165 152 148 139 97 81 85 90 105 115 124 127 129 123 131 126 125 115 111 110 97 90 84 67 82 78 82 84 80 82 81 57 63 40 42 53 68 60 70 57 40 41 33 78 115 120 123 119 107 113 110 123 131 126 122 116 121 129 142 142 150 145 146 151 153 156 158 162 154 159 142 153 145 142 130 137 134 136 129 125 125 125 132 131 133 136 124 124 118 123 139 159 161 152 151 138 107 74 91 86 89 108 113 126 120 116 124 118 122 116 109 105 94 87 81 75 78 83 80 83 80 78 82 64 51 48 32 56 57 66 88 83 50 40 44 63 118 113 114 115 113 105 116 119 130 122 119 122 127 136 140 143 142 147 148 145 148 152 148 146 150 148 141 146 140 138 133 129 133 122 119 114 116 121 133 146 139 138 136 126 125 122 130 154 155 153 147 144 106 77 85 95 84 88 104 113 114 111 117 113 116 109 107 99 98 79 83 72 81 81 82 81 86 79 88 67 40 44 28 31 67 60 78 93 63 54 38 78 115 111 112 116 108 110 114 123 121 115 110 122 131 131 131 139 139 138 146 143 141 142 142 141 139 136 134 136 134 132 130 123 121 112 110 109 99 117 134 142 144 139 135 131 124 131 130 145 145 144 145 142 114 86 84 90 84 81 96 105 110 107 110 111 110 104 101 98 89 80 89 70 82 81 83 77 85 84 80 50 39 25 29 13 41 71 81 88 77 65 51 71 109 108 105 118 113 112 112 120 119 116 106 123 129 126 129 140 133 133 137 138 129 132 133 133 127 126 132 129 131 127 125 118 108 104 105 116 97 116 129 134 134 133 131 130 123 131 131 138 145 141 138 130 112 93 82 86 85 78 83 91 108 104 110 109 102 103 99 95 93 82 82 74 83 78 83 77 83 81 86 64 40 23 27 21 13 41 97 93 88 73 63 67 97 108 107 114 109 118 112 113 115 110 102 119 125 123 130 131 126 128 124 126 125 123 126 121 127 127 126 125 123 121 118 110 100 103 114 122 104 116 117 121 118 118 118 120 119 121 126 133 138 128 122 113 109 90 76 85 86 81 71 81 93 101 106 104 96 99 94 93 89 77 83 74 80 82 81 82 80 85 83 60 43 28 29 23 22 9 82 100 95 81 77 61 108 107 103 109 113 124 113 113 113 108 104 117 121 118 121 123 120 116 119 113 114 116 114 121 121 120 120 125 121 118 114 104 98 115 128 128 123 110 105 97 95 86 82 93 110 109 113 122 122 116 106 102 96 88 78 89 87 88 78 74 77 91 96 103 100 98 97 90 84 80 79 73 80 83 79 82 82 80 79 46 46 38 30 31 26 11 47 101 89 96 89 63 108 104 102 107 115 123 115 111 109 111 111 118 116 108 113 116 112 108 109 105 101 106 111 120 116 116 120 121 120 116 106 98 109 125 135 141 141 139 99 81 65 54 45 39 79 105 107 110 104 102 96 97 90 82 81 89 89 85 97 87 76 73 88 94 99 98 94 88 82 82 81 67 78 77 81 79 83 79 82 45 44 37 43 38 31 21 10 63 93 96 93 72 95 105 110 97 112 122 118 110 108 108 111 117 115 105 111 106 107 100 101 98 95 101 108 118 111 117 117 111 111 102 98 109 126 137 145 143 142 138 131 72 55 56 60 60 50 80 106 98 93 87 86 91 86 79 81 85 86 82 99 98 97 86 73 83 98 103 96 80 91 89 74 47 70 75 80 78 82 80 80 63 43 45 38 47 45 24 18 12 44 81 84 68 90 112 103 102 105 120 110 108 110 116 119 112 112 106 109 98 96 93 90 94 94 107 107 117 116 112 110 111 101 100 115 129 134 142 149 143 138 136 130 101 66 62 59 66 61 68 84 98 93 85 91 85 86 76 80 83 84 80 94 101 98 99 84 77 87 102 96 85 88 96 67 44 71 78 81 81 80 83 79 60 38 48 37 29 41 35 26 20 19 17 19 42 81 105 107 113 109 111 107 104 113 119 115 110 111 114 112 88 95 96 96 104 109 111 110 116 107 106 106 101 105 120 137 141 141 142 146 143 138 135 130 117 88 71 60 61 64 63 65 81 92 83 86 83 68 75 76 82 85 84 84 101 98 94 94 85 80 97 97 85 94 89 67 74 81 80 80 78 80 80 77 77 46 38 51 36 32 34 32 21 23 19 10 40 59 107 108 119 108 111 116 109 111 123 115 117 121 118 119 84 103 113 111 111 118 110 107 107 100 107 111 115 130 139 145 142 141 141 145 135 133 133 132 120 115 93 75 68 65 61 61 59 56 64 69 71 63 68 75 78 80 78 88 90 100 95 93 91 84 94 92 88 87 93 77 73 83 75 85 82 74 82 77 73 69 43 34 51 43 38 32 32 34 24 16 27 54 108 103 116 106 107 110 106 119 119 117 122 126 121 115 95 116 122 117 113 113 108 101 112 122 120 127 135 148 139 131 134 127 130 133 131 134 123 128 124 114 112 89 84 72 58 63 58 61 60 70 73 72 76 69 78 82 79 88 85 99 92 85 88 86 89 95 77 94 87 57 78 78 80 80 81 80 83 77 75 74 61 32 38 56 45 33 32 34 35 27 18 55 106 104 110 115 107 116 102 112 119 116 120 123 116 120 100 123 118 111 114 116 105 120 132 117 121 131 145 142 134 124 130 123 127 127 130 126 122 125 118 117 116 110 101 91 81 61 76 74 68 76 74 78 77 74 77 77 87 91 88 91 99 87 90 83 87 94 82 87 86 28 57 75 80 83 77 83 78 76 70 72 75 46 35 47 48 31 37 38 38 35 10 44 89 100 110 117 107 112 118 116 113 114 123 112 114 113 99 127 119 118 119 105 123 133 118 110 129 134 137 127 126 117 118 123 122 125 125 121 123 115 113 128 118 116 109 97 94 85 80 81 77 81 86 82 80 75 81 78 101 92 93 81 89 91 91 87 88 90 85 88 79 41 45 79 78 81 79 77 79 80 72 71 78 72 40 38 44 33 29 36 44 42 15 28 77 103 97 109 106 117 110 121 109 109 119 110 112 105 97 118 120 115 112 115 132 122 112 112 130 129 117 116 110 109 108 119 130 118 127 115 118 112 107 121 119 112 120 116 109 101 96 91 88 90 92 85 81 77 83 79 91 81 89 81 87 88 98 88 91 84 87 88 76 49 62 77 77 78 76 80 77 79 68 71 71 76 64 39 34 46 31 30 25 31 24 18 61 101 106 98 104 115 106 107 112 110 114 105 115 107 104 103 125 111 115 128 128 107 111 121 121 116 108 106 93 103 99 110 106 113 115 111 107 114 112 111 112 109 109 110 112 106 106 92 91 85 82 83 77 69 62 53 50 60 72 80 91 86 92 89 92 78 85 83 68 63 76 77 74 77 77 78 73 81 67 73 70 73 75 58 32 43 43 34 25 22 24 12 56 81 109 99 97 111 112 103 104 113 107 107 116 106 106 107 125 117 123 124 113 108 105 113 104 97 92 91 77 70 72 88 98 97 99 106 98 94 96 89 84 83 87 79 88 85 87 81 79 76 67 75 74 28 38 52 67 65 73 82 89 90 96 84 85 77 85 74 63 75 79 77 77 77 74 78 75 76 72 73 73 72 74 65 53 40 44 47 31 28 30 15 42 75 110 106 94 103 102 94 106 112 104 104 110 108 113 109 119 123 117 116 114 108 108 104 89 86 72 58 55 39 27 35 62 62 76 78 85 64 72 77 65 77 78 79 75 68 66 74 79 90 57 71 70 37 60 78 79 77 77 73 89 93 86 90 77 80 84 65 70 75 75 76 75 75 75 74 80 72 72 73 71 71 76 74 65 52 45 40 43 28 37 20 35 80 100 103 100 105 95 100 103 107 104 102 109 110 96 106 115 131 114 114 116 111 107 109 81 68 72 58 63 65 50 33 43 33 59 89 87 45 72 83 69 96 96 97 95 68 86 101 99 116 69 40 69 54 79 83 89 84 83 72 87 92 82 89 73 96 68 64 73 78 75 75 77 73 73 77 73 78 71 70 71 72 73 75 70 68 40 37 49 27 32 21 21 92 95 107 100 105 91 93 106 108 106 98 104 102 101 99 111 112 114 107 115 111 115 102 88 73 67 69 72 82 82 74 59 39 34 90 64 15 69 93 79 100 105 101 111 56 99 109 110 108 57 34 69 77 78 83 93 85 82 81 92 94 85 84 72 87 71 69 69 75 74 73 73 76 75 73 72 78 73 69 73 68 73 73 73 71 51 26 29 39 24 27 16 91 97 106 109 108 102 95 94 100 103 103 103 106 103 99 114 111 113 107 109 110 109 95 84 74 86 80 81 99 112 125 116 87 69 56 43 21 35 56 47 59 87 85 101 41 46 86 71 58 54 78 85 78 78 87 88 88 87 90 85 87 78 94 73 72 70 73 76 71 73 72 75 73 73 73 67 77 74 69 70 73 72 73 76 74 69 28 25 30 29 35 17 78 94 105 116 104 99 99 102 84 102 103 104 103 103 105 111 100 101 106 104 104 118 94 82 82 101 92 90 110 116 128 126 132 132 115 100 78 49 56 39 40 29 38 32 30 38 53 63 75 90 94 74 72 80 90 88 90 84 89 82 80 80 90 57 55 71 71 73 71 71 73 71 71 75 71 71 72 71 68 73 74 71 71 74 71 78 44 28 26 29 31 13 63 99 104 111 113 96 104 103 95 105 105 98 110 91 103 110 97 100 110 101 102 88 90 91 94 97 108 107 113 116 116 122 118 138 143 151 136 109 99 93 83 63 73 59 80 83 98 96 100 100 84 68 75 82 95 89 88 87 88 83 79 71 75 54 66 70 70 73 66 65 74 69 67 70 72 67 71 76 68 70 72 70 74 68 75 74 61 36 21 22 34 14 67 96 112 112 110 102 92 94 94 106 111 113 106 94 99 95 88 102 106 107 89 81 87 100 86 101 108 108 114 112 113 112 117 125 132 143 145 133 116 117 98 97 101 103 107 100 105 97 93 91 73 71 83 88 87 86 99 86 80 84 70 77 58 62 70 72 70 72 69 70 70 67 71 67 71 70 67 70 69 68 75 72 72 73 71 75 68 62 26 25 31 11 66 97 107 117 110 105 95 99 98 96 99 106 104 94 103 88 96 97 89 94 95 95 87 98 87 99 103 109 113 112 107 109 111 113 117 119 119 122 126 116 107 103 110 126 121 113 99 94 86 78 67 82 92 89 85 87 95 94 80 87 77 67 61 66 71 64 69 66 68 68 69 66 70 67 66 69 66 70 74 70 74 70 71 73 73 69 83 101 60 34 29 12 49 114 104 123 112 111 101 96 83 101 102 104 94 96 97 116 92 107 95 88 96 95 96 89 95 104 97 104 110 115 104 100 105 105 105 107 106 107 119 127 101 96 117 113 114 103 87 86 81 74 79 89 88 83 83 96 92 92 80 75 70 62 68 65 66 66 68 66 68 64 68 65 68 64 70 66 68 69 74 69 73 72 73 73 67 72 120 129 92 44 24 14 41 122 100 120 119 121 117 98 88 90 101 104 101 108 87 114 103 99 95 85 83 93 93 91 99 110 101 101 105 107 101 100 104 104 96 100 94 99 106 103 99 100 104 96 91 94 73 75 76 84 91 84 80 91 77 97 97 83 77 72 66 66 68 65 67 65 68 68 66 64 70 64 67 68 65 68 64 69 68 72 74 70 71 66 76 110 147 148 127 72 21 9 34 128 108 115 120 113 110 97 93 85 90 102 107 106 99 98 93 96 100 85 92 90 93 95 92 107 101 94 96 101 99 96 94 96 93 100 97 102 93 87 90 91 86 83 84 82 81 75 85 87 86 82 85 86 88 88 98 85 79 98 65 63 65 63 63 64 65 64 65 63 70 61 64 67 62 65 64 73 69 69 73 69 66 73 130 158 155 170 161 112 24 2 39 127 114 113 119 119 104 94 98 100 86 91 103 102 102 94 88 106 104 100 104 87 99 90 82 106 99 95 99 100 92 91 87 89 87 93 101 98 93 83 85 85 97 85 87 80 80 81 79 80 81 84 85 86 99 95 94 73 75 114 97 59 59 65 64 64 62 64 60 65 64 61 63 67 58 69 60 70 69 70 69 67 68 146 176 171 175 187 186 158 41 3 70 124 119 115 114 116 117 100 97 98 96 87 97 86 91 102 102 90 95 100 101 89 97 95 82 101 89 92 104 99 98 87 86 86 87 82 83 79 82 82 77 70 80 74 74 70 69 73 66 84 79 85 87 89 94 108 81 71 71 94 113 92 54 62 60 61 60 62 59 66 58 64 59 68 59 59 61 67 72 70 67 68 143 179 184 182 187 196 196 188 71 13 98 123 121 115 110 117 119 108 103 100 99 91 90 90 88 91 106 96 87 103 98 86 113 103 88 99 83 85 104 101 101 87 82 81 78 77 75 70 68 65 58 51 57 55 56 63 70 74 77 82 78 86 96 95 87 107 67 71 81 79 103 121 75 55 57 63 57 59 61 60 64 54 66 56 62 59 60 68 70 70 56 142 192 180 183 189 193 200 200 204 98 36 118 128 119 120 112 121 120 113 108 100 105 98 93 93 87 79 97 103 91 93 112 90 107 102 101 101 99 99 101 104 92 86 80 74 75 73 71 63 66 64 58 57 62 66 77 78 87 88 85 87 84 91 101 96 102 95 60 53 85 83 92 109 122 60 55 61 62 55 62 59 59 60 58 61 60 60 53 72 89 98 121 191 195 186 182 191 196 202 202 210 124 64 131 118 122 119 108 114 114 117 109 98 89 99 95 87 86 77 79 103 98 97 93 104 112 101 95 100 92 102 107 90 96 90 78 81 84 79 78 75 75 79 69 79 72 90 90 87 82 91 84 99 96 99 100 98 102 81 47 63 53 101 88 99 127 96 45 59 58 56 57 60 61 56 61 57 57 59 58 172 187 190 189 193 193 195 185 188 198 202 203 199 169 85 140 120 117 121 118 120 118 115 109 104 91 92 94 93 91 83 87 93 91 95 101 100 104 115 112 94 106 112 106 106 107 106 97 110 108 107 103 98 84 90 85 79 84 84 92 90 83 89 84 93 92 91 102 100 116 55 44 61 65 81 109 89 112 129 62 56 59 58 57 58 57 60 55 62 54 60 59 200 197 192 193 195 195 197 190 185 196 201 203 201 183 123 136 127 122 123 124 123 115 117 116 110 98 94 96 91 96 87 89 86 88 72 87 90 86 98 110 102 103 108 106 111 115 104 116 118 118 115 111 106 100 97 89 88 93 86 88 81 95 84 85 92 98 98 105 103 105 28 47 57 72 79 102 99 102 129 103 44 55 57 57 56 57 56 58 55 58 55 56 201 201 197 198 195 198 197 195 185 192 200 202 204 186 153 127 132 124 123 126 121 117 110 114 102 101 99 105 87 92 87 85 91 90 82 74 87 84 93 101 98 108 109 104 124 121 112 122 120 117 123 120 107 98 95 90 87 91 90 86 77 88 87 89 94 92 106 105 100 95 18 49 61 78 82 93 112 97 118 131 77 54 59 53 57 53 58 54 56 55 54 55 200 205 197 201 195 200 197 197 189 188 197 203 207 185 170 125 134 128 122 125 125 124 122 121 107 109 99 103 90 90 91 87 89 89 95 82 87 85 83 96 98 112 112 115 112 111 132 113 107 115 106 108 103 100 96 89 83 76 79 80 76 82 86 83 90 96 102 102 91 92 17 45 64 76 73 97 112 103 107 130 114 108 89 73 59 58 55 59 51 53 52 54 200 204 198 202 197 196 201 199 190 186 194 203 206 191 184 141 124 136 123 132 123 128 126 129 119 110 101 97 98 92 84 87 86 84 88 87 83 91 77 81 83 108 105 118 112 108 122 112 100 117 101 102 102 87 92 86 80 60 73 67 90 80 96 96 99 107 94 88 92 88 41 29 65 73 68 102 110 110 103 123 122 115 114 111 103 98 92 82 68 56 53 48 195 202 200 203 200 198 199 200 194 187 192 201 206 194 184 175 116 141 137 131 125 127 128 128 125 112 106 106 99 97 90 86 94 89 86 87 89 100 83 74 69 81 105 106 111 105 105 106 109 112 101 96 106 86 92 86 71 72 75 82 89 98 88 100 97 97 91 91 91 90 75 12 63 74 77 109 93 113 101 118 131 117 115 114 114 116 109 113 109 101 70 47 194 199 201 203 202 199 198 199 194 190 188 199 206 202 182 196 151 133 148 132 131 130 128 126 128 121 114 108 102 103 92 89 88 86 94 93 91 90 93 83 72 67 81 78 92 100 109 103 103 110 99 86 107 81 98 80 77 71 82 81 94 88 92 94 90 92 91 93 86 85 92 9 64 77 82 98 92 110 104 117 130 120 118 116 115 117 112 118 116 118 112 93 198 200 200 205 202 203 200 201 197 189 188 196 203 206 184 195 185 123 144 139 135 125 122 125 131 126 121 118 106 100 101 92 90 82 92 91 91 90 90 88 82 69 78 67 72 71 96 95 99 96 94 95 99 80 91 83 71 80 78 72 87 86 93 91 95 94 93 92 85 82 94 15 67 85 95 83 89 113 108 115 131 127 118 120 118 119 116 117 118 118 117 114 199 201 201 206 203 204 203 201 201 190 187 194 202 206 195 189 198 153 123 142 140 129 125 126 132 125 121 122 118 106 103 93 93 86 86 92 91 92 82 85 88 73 81 77 78 70 69 70 79 87 78 86 83 83 68 81 70 86 77 78 92 90 92 94 94 91 89 85 86 85 94 22 69 91 112 73 88 108 114 110 132 131 123 125 124 122 117 118 121 116 120 114 199 200 202 204 204 206 204 203 202 194 187 190 199 205 203 183 198 187 100 142 142 138 132 129 129 129 126 122 117 114 103 100 92 93 91 83 89 85 88 86 90 87 80 77 79 78 78 69 75 73 67 73 61 78 82 74 83 93 85 93 90 96 94 96 92 94 85 87 83 94 95 23 77 87 119 74 80 115 118 113 131 134 124 119 122 127 124 117 120 118 119 117 192 195 203 204 203 205 202 204 202 199 187 189 196 204 208 184 196 199 180 125 140 137 136 126 133 135 132 123 121 113 108 100 101 88 83 84 84 83 87 90 90 85 83 78 83 82 85 74 76 76 71 68 77 83 89 80 87 81 93 95 96 95 94 95 97 90 94 95 86 92 98 20 83 87 121 73 84 117 123 112 130 138 126 129 128 129 117 125 122 117 117 116 