P2
92
112
255
86 90 87 89 92 87 93 91 95 88 95 89 93 92 90 92 101 101 96 99 129 136 140 154 144 132 121 123 111 114 113 105 95 101 118 141 160 161 168 174 179 183 185 184 188 189 181 177 178 173 172 163 164 152 151 152 150 155 157 158 155 147 153 144 143 143 143 144 144 137 139 133 134 134 143 142 147 132 110 94 94 95 86 89 86 90 88 88 86 84 85 87 93 86 87 88 91 89 93 89 92 88 95 92 89 91 93 99 97 102 109 126 140 152 165 165 153 134 119 111 102 105 106 102 98 106 116 127 144 152 152 157 152 156 155 153 167 176 176 182 181 178 174 179 182 176 162 160 152 150 148 153 150 152 146 147 148 143 144 139 145 143 148 139 138 135 139 135 143 145 134 124 107 92 89 87 89 89 91 83 84 88 84 88 89 86 88 92 93 88 91 93 90 91 93 97 88 93 91 101 96 112 129 144 166 173 178 175 149 135 114 112 112 108 111 105 100 109 117 127 132 146 141 144 138 147 148 143 145 152 154 154 160 155 151 148 152 161 158 165 172 164 162 157 151 145 145 141 142 135 142 137 139 139 142 147 146 143 141 137 138 138 144 141 143 101 88 88 87 87 87 86 87 88 84 87 84 89 87 92 89 90 89 92 92 90 95 93 96 101 108 107 121 137 149 165 182 180 177 156 137 119 112 100 111 108 105 107 108 125 156 159 174 169 171 172 161 162 164 167 171 173 175 172 170 169 166 160 150 151 148 152 156 159 158 169 162 150 141 139 132 137 134 140 135 139 140 143 147 152 152 143 140 137 138 138 144 143 101 89 97 88 87 86 90 85 84 90 94 87 93 90 90 92 92 89 91 95 94 91 103 110 111 121 129 136 168 172 180 177 162 141 130 124 113 112 125 131 129 132 137 148 170 171 178 185 178 177 184 188 181 179 177 176 169 162 160 164 165 162 164 166 162 156 156 163 148 146 152 156 153 139 141 136 132 138 133 130 134 135 144 147 152 153 145 133 138 141 147 129 142 103 93 97 88 90 89 87 86 88 90 92 85 89 87 91 90 87 90 93 95 96 106 103 114 122 151 150 168 185 181 180 160 137 116 118 112 123 127 120 113 108 116 118 126 139 146 151 163 161 167 182 187 184 186 185 179 176 172 165 160 159 156 158 152 152 147 148 150 149 140 135 144 154 146 141 134 138 132 131 133 136 141 142 142 140 145 147 134 136 138 139 126 137 114 93 98 91 91 84 90 84 88 91 89 92 86 92 89 86 96 101 101 103 106 105 114 127 133 148 181 184 182 176 147 130 110 110 109 110 104 95 93 96 100 111 120 120 100 99 114 117 123 135 141 156 159 167 163 172 170 171 158 151 151 150 159 145 143 139 145 145 141 135 130 129 141 145 148 142 132 133 137 132 133 140 145 141 141 144 145 135 130 137 136 126 134 115 95 91 93 90 92 91 89 87 89 92 89 91 91 91 100 112 98 108 105 104 110 127 145 153 167 171 168 167 145 122 106 112 108 112 96 84 74 79 74 71 86 103 107 103 96 118 130 119 114 121 132 145 142 144 148 159 162 159 163 153 151 144 141 136 138 141 143 136 133 132 132 123 138 146 141 134 132 137 140 136 142 148 143 145 142 136 138 132 142 132 125 128 115 86 93 94 90 88 93 87 89 90 91 86 92 89 107 96 106 100 102 115 126 145 153 156 164 174 169 160 130 112 106 100 102 101 93 79 82 65 58 54 59 71 81 85 82 88 115 128 131 129 122 122 130 125 129 128 129 137 147 150 159 152 151 146 136 138 141 138 133 135 129 131 125 128 135 147 146 140 135 139 148 142 135 139 147 140 131 132 136 138 136 124 128 107 87 93 85 89 86 91 85 96 95 92 92 94 104 95 99 96 106 115 128 146 165 170 176 173 161 140 121 110 100 91 82 80 76 61 67 63 60 51 57 53 50 49 61 80 73 98 93 109 114 124 133 125 123 121 125 132 128 125 136 138 151 154 151 149 150 141 140 131 135 132 133 128 122 125 137 142 146 137 134 141 134 131 146 141 133 127 133 132 135 130 119 127 100 95 94 83 90 84 94 87 92 94 89 100 90 98 89 101 111 109 134 147 164 174 157 154 145 127 128 117 101 90 81 71 68 57 54 52 61 54 52 49 39 52 53 60 77 70 69 77 92 116 119 124 127 117 125 130 122 123 133 129 118 131 141 152 154 156 153 140 142 146 134 125 135 125 125 128 148 150 138 126 131 138 138 133 137 131 130 126 128 131 123 113 130 98 93 93 87 89 89 93 88 93 98 93 97 88 96 108 116 130 140 147 161 158 151 145 142 137 124 120 103 90 74 67 70 56 47 56 55 55 58 49 44 50 42 42 51 72 65 70 70 83 89 97 105 122 117 115 129 119 111 119 120 128 128 132 130 145 147 146 144 151 153 141 126 131 132 125 125 139 150 145 133 118 136 127 121 130 128 122 129 126 131 116 112 124 93 89 88 88 91 88 88 96 96 90 94 92 104 108 120 125 140 143 144 146 157 153 146 142 129 119 104 86 75 72 66 66 52 59 51 57 52 50 47 45 41 40 42 56 69 67 83 71 74 82 81 90 100 117 114 117 121 113 111 111 113 119 122 128 132 132 142 147 147 151 147 136 129 132 120 119 135 143 151 138 119 133 122 120 120 124 119 123 132 129 112 113 119 92 91 96 87 89 89 104 95 90 90 92 101 107 116 128 137 139 148 157 171 171 152 137 124 110 100 93 81 73 63 70 65 68 58 52 52 47 48 45 38 47 48 49 57 61 66 64 77 87 83 90 91 97 116 103 110 111 111 113 109 108 105 106 109 118 125 130 142 144 148 145 138 135 132 126 120 130 146 143 137 125 117 117 118 118 118 119 123 129 126 113 115 113 87 89 94 96 106 105 93 95 98 109 112 115 124 125 133 137 152 161 171 174 165 136 125 115 105 97 86 73 70 67 76 71 60 54 52 52 47 43 50 50 54 47 46 57 63 55 57 85 95 100 107 121 118 121 119 104 106 97 105 111 116 118 117 110 102 112 118 129 142 150 143 142 136 139 130 117 122 127 139 133 130 104 105 120 117 116 114 122 122 124 109 121 92 87 95 103 107 100 97 89 97 97 102 125 119 124 123 134 143 160 166 165 156 132 109 110 110 92 91 80 71 75 76 74 62 47 57 53 50 51 57 52 51 48 48 49 52 57 66 69 69 68 77 90 99 92 101 101 102 105 100 102 109 111 117 113 107 103 104 111 116 131 139 144 138 147 139 134 121 113 119 127 138 123 96 103 109 110 113 114 118 118 117 117 86 89 101 105 102 99 88 91 98 101 102 112 110 115 116 130 139 154 163 158 146 132 111 105 106 100 88 80 80 79 78 80 65 61 52 57 49 67 57 52 49 52 50 46 49 60 57 62 80 76 74 64 70 65 64 70 64 80 86 89 94 94 107 114 113 108 100 94 94 112 120 129 139 138 139 143 123 123 114 112 124 137 125 94 94 106 102 111 115 116 120 123 89 94 103 105 100 98 95 105 98 100 99 107 103 105 117 127 133 139 141 135 129 120 116 114 98 97 93 84 82 85 83 87 76 72 58 61 59 65 64 61 54 56 50 61 56 58 58 68 63 65 71 60 72 90 83 73 55 51 49 51 46 59 72 83 89 104 106 104 93 102 110 113 121 137 131 141 138 121 114 109 104 120 131 121 98 90 100 96 109 109 116 121 91 94 99 102 99 102 103 105 99 102 110 109 107 110 110 120 121 114 110 113 114 112 115 112 100 98 86 87 94 84 93 88 87 72 66 64 79 68 72 69 63 72 67 70 65 65 66 68 62 61 77 90 106 105 78 62 51 42 49 47 38 42 44 44 62 69 82 86 102 102 89 98 109 118 131 140 143 147 110 113 104 100 115 125 120 97 93 92 91 108 111 115 92 98 101 97 100 97 95 99 104 101 100 97 100 102 108 102 105 109 110 109 110 114 121 116 112 100 97 87 97 95 93 98 97 85 80 79 88 71 84 87 81 90 88 83 76 68 74 61 62 64 78 88 95 83 81 80 67 61 56 54 56 43 41 46 41 50 38 55 66 98 103 88 90 110 117 128 138 149 128 107 111 103 95 112 126 116 101 94 92 94 97 107 103 102 106 95 96 92 100 99 94 88 86 86 94 101 109 109 113 108 111 105 114 121 129 126 126 114 107 103 106 103 104 107 100 98 93 93 92 91 88 97 98 97 104 95 87 78 75 69 70 72 80 71 67 75 87 95 83 71 54 55 49 49 51 47 49 48 50 44 43 60 85 91 101 89 108 123 132 145 139 116 109 105 101 95 113 120 114 104 84 92 86 99 105 105 97 100 92 90 97 91 82 72 85 88 103 103 113 111 110 110 108 105 114 118 132 134 127 124 127 119 115 123 119 118 110 117 107 103 105 105 99 102 116 114 111 98 90 79 71 66 76 78 68 71 77 90 97 92 78 84 79 61 52 46 43 38 40 41 56 59 57 46 51 85 87 95 83 112 128 139 147 132 120 102 98 97 97 114 114 108 80 88 91 84 105 105 100 93 93 89 84 79 68 84 87 96 106 109 102 105 107 98 99 102 106 121 137 151 139 126 133 138 138 134 133 135 128 126 134 125 126 121 116 131 132 138 124 111 104 86 77 77 77 73 77 76 80 71 73 80 81 70 72 58 45 48 48 53 48 53 50 59 66 67 56 70 72 64 90 84 115 134 140 152 128 118 97 92 91 99 110 115 101 75 88 87 100 102 95 93 95 87 74 72 64 91 85 99 101 100 98 102 94 91 98 104 114 124 146 155 154 143 143 152 152 145 145 150 149 148 147 152 140 143 131 153 146 141 145 123 107 93 84 84 74 75 63 63 61 55 54 65 50 54 58 72 75 67 66 64 64 58 65 65 67 68 72 73 66 66 65 89 96 123 141 151 139 125 109 85 92 97 99 114 108 92 76 80 100 103 96 93 93 85 64 68 77 84 82 97 100 99 97 91 95 103 115 120 129 140 158 170 171 155 159 165 168 166 163 167 168 171 163 176 172 159 156 167 165 159 154 140 121 106 89 85 79 81 62 65 53 50 64 49 62 73 93 109 104 85 81 77 70 70 71 73 75 66 74 81 63 60 72 64 93 112 139 147 149 124 138 95 81 92 94 104 112 105 85 68 102 101 96 94 95 73 70 72 74 81 82 93 101 100 94 93 108 104 116 136 148 161 171 176 174 171 170 183 181 183 181 182 186 182 188 188 196 184 183 184 181 175 167 164 145 116 109 91 74 82 74 68 62 62 72 77 84 98 100 108 109 101 86 84 75 68 76 61 72 82 66 69 78 54 75 66 81 99 136 145 149 137 127 132 89 81 95 98 106 107 98 80 97 103 100 96 88 69 77 73 70 82 77 95 100 95 92 100 104 118 134 158 167 173 177 185 176 178 182 185 181 189 188 193 193 198 199 200 202 199 199 197 194 189 188 181 169 144 128 111 95 76 76 72 73 68 78 89 89 102 108 104 94 82 79 73 75 63 56 50 50 72 73 65 69 71 65 78 81 89 129 143 153 140 130 126 130 78 84 92 97 109 99 96 100 101 103 93 78 72 82 66 73 77 82 96 103 91 94 102 110 127 150 162 173 175 174 173 182 183 186 188 186 192 196 200 198 203 207 204 205 204 205 203 205 200 196 192 189 177 145 121 114 98 80 88 81 81 82 96 91 92 92 93 83 82 79 73 73 66 55 45 45 56 66 63 66 67 74 80 84 82 120 141 148 144 131 125 129 121 68 90 82 94 111 98 100 101 98 91 70 84 79 69 68 77 77 99 102 89 103 109 123 138 156 161 169 178 176 181 184 188 186 189 193 191 200 202 204 206 207 206 206 206 206 205 203 202 199 195 198 186 165 137 121 109 107 101 96 94 94 94 95 88 92 95 88 84 81 81 68 70 59 54 50 58 52 54 56 62 75 82 87 91 114 137 147 150 120 137 121 133 92 67 93 82 105 104 99 104 93 84 84 78 80 67 72 65 82 94 95 92 105 108 128 140 160 160 170 181 182 183 185 189 187 187 193 193 199 203 204 207 206 205 204 204 203 202 202 202 201 196 195 193 181 155 132 123 117 117 113 107 103 105 96 97 95 96 95 92 95 88 83 89 74 68 60 66 46 54 48 55 80 84 84 92 111 129 141 151 118 129 136 106 118 79 78 89 88 111 101 98 94 85 81 83 71 72 71 63 75 82 94 91 99 107 128 146 151 170 168 179 175 179 183 185 185 190 189 194 198 202 204 205 205 203 201 201 201 201 201 198 200 196 195 192 191 180 161 137 137 133 128 124 113 114 110 114 109 110 120 120 120 114 106 99 89 91 82 65 61 53 75 67 73 80 81 94 104 120 138 142 125 108 143 115 109 104 69 86 86 99 98 97 94 81 81 76 67 74 66 62 72 86 83 90 95 110 131 143 157 168 170 175 176 180 185 187 188 190 190 191 199 200 201 202 202 200 198 198 197 198 198 199 199 195 193 193 193 182 173 158 153 146 141 135 130 132 126 130 129 133 136 144 140 140 131 115 107 97 92 78 71 73 77 52 51 77 87 87 95 122 138 142 120 108 137 135 111 102 95 77 84 89 100 101 96 93 86 71 65 70 58 68 66 79 81 88 100 116 133 146 162 172 168 174 174 177 180 185 187 188 187 193 194 198 200 198 199 195 195 195 195 194 197 197 197 193 192 193 190 188 183 171 170 163 155 150 149 146 146 143 149 149 150 157 156 157 149 132 118 108 100 92 80 76 72 44 51 75 89 84 97 129 137 140 127 92 127 144 122 98 93 84 78 84 95 94 96 93 81 62 68 58 65 67 69 77 81 92 104 129 139 156 166 172 170 176 175 177 180 186 184 186 185 188 190 193 195 194 195 194 192 193 193 196 194 195 193 192 193 191 188 187 187 185 177 175 172 164 161 163 159 161 159 163 163 163 163 161 157 138 130 118 111 97 89 81 76 50 65 81 92 93 103 131 134 134 121 93 111 147 132 104 69 92 84 76 95 100 97 89 74 66 66 60 66 70 74 83 83 96 114 135 150 158 165 169 171 175 173 177 182 182 183 182 180 187 188 188 187 191 191 191 191 191 191 193 192 195 193 188 191 191 188 187 189 189 183 182 181 181 177 178 170 174 168 171 168 172 169 165 159 143 136 124 118 108 95 89 79 62 69 87 85 84 106 122 127 130 119 88 102 141 135 113 64 69 93 86 104 105 95 87 86 83 74 63 74 72 77 93 93 106 125 143 155 159 164 168 172 176 173 176 179 179 181 182 183 186 185 187 186 186 185 187 190 188 191 188 190 190 190 190 187 189 187 187 190 187 187 184 182 184 184 184 184 180 179 179 170 174 170 167 162 147 142 132 122 117 107 94 85 66 76 85 73 92 111 117 118 125 106 93 96 134 137 121 70 51 83 86 110 99 87 80 83 76 79 75 79 86 91 88 103 114 140 152 159 161 163 166 166 172 169 173 176 177 178 178 182 178 183 186 187 184 187 187 189 188 190 188 190 189 187 187 188 186 186 185 188 185 185 184 186 182 184 186 185 183 182 180 177 175 172 166 163 151 145 137 126 121 114 104 84 77 76 77 73 101 110 108 113 126 92 91 101 126 130 122 86 37 64 83 114 115 102 99 91 80 80 84 88 90 95 102 117 130 148 154 159 161 165 163 169 168 169 173 177 177 178 177 177 177 178 182 184 183 185 186 185 188 187 187 187 187 188 184 186 184 183 185 188 183 183 185 184 183 179 182 179 181 179 177 176 169 168 162 163 152 149 139 130 121 119 103 94 83 77 71 76 106 101 100 111 117 88 88 99 125 129 115 93 42 47 76 101 97 103 95 87 83 83 74 83 98 101 121 135 148 155 158 163 162 166 165 169 170 169 172 175 175 181 177 179 178 175 181 180 182 184 183 184 184 187 185 181 187 183 184 180 186 181 183 184 183 181 182 184 183 179 179 182 180 178 178 179 170 164 165 161 154 146 141 132 128 122 106 99 89 72 70 98 99 96 102 106 107 81 89 93 118 128 113 93 57 30 60 94 92 95 103 101 90 88 89 89 105 114 137 146 154 160 161 165 168 171 171 172 170 173 173 175 176 179 176 176 175 174 180 179 182 182 184 184 182 183 182 180 182 181 178 176 179 177 178 181 180 180 179 181 178 178 174 174 173 174 173 171 164 162 159 155 153 147 146 135 131 124 113 100 94 84 93 100 89 98 101 102 104 72 85 96 118 124 106 92 73 34 39 72 79 71 76 83 83 85 71 81 107 127 144 151 157 163 166 164 165 173 173 172 171 175 172 178 176 179 182 181 174 176 180 181 183 184 183 185 182 184 180 180 178 176 173 174 174 174 177 179 178 178 175 179 175 173 173 172 169 174 169 164 164 161 157 151 154 144 146 137 130 129 118 106 91 99 93 94 91 90 104 102 83 59 82 103 114 115 108 83 81 44 33 73 65 61 59 66 63 57 45 75 115 132 141 150 162 164 168 167 169 169 175 173 173 170 177 175 180 178 178 179 178 174 182 180 184 184 184 184 185 185 182 180 176 175 173 169 176 176 176 178 177 177 178 173 176 173 174 174 173 169 171 166 162 159 156 152 151 146 142 138 130 130 123 109 100 100 98 95 94 85 97 94 48 62 89 100 110 120 101 79 74 62 30 71 50 54 53 48 52 39 46 83 123 134 141 146 159 164 167 162 169 170 171 170 170 172 173 174 179 180 175 182 176 174 180 179 179 184 181 183 182 181 183 178 177 176 173 172 172 178 172 177 178 175 174 172 176 173 170 177 172 171 167 167 165 163 154 155 148 142 140 136 131 130 123 115 108 109 96 91 88 85 87 73 40 65 96 96 112 118 94 71 74 66 38 72 64 56 50 41 45 41 48 94 123 135 141 148 156 164 163 165 167 171 167 167 168 172 172 170 177 176 178 179 177 175 180 179 179 180 181 180 181 181 179 180 176 174 175 175 174 176 175 174 179 175 178 171 174 172 167 169 170 166 168 161 164 163 158 156 148 148 140 140 131 133 129 121 117 106 99 104 98 79 73 61 31 70 101 97 105 117 88 63 75 67 48 80 89 44 37 47 52 38 54 98 130 136 139 145 153 166 165 169 170 169 171 170 173 173 170 172 175 175 179 183 176 179 179 177 178 181 181 177 178 174 177 176 176 173 170 175 173 177 173 175 171 175 175 171 172 167 172 166 168 170 165 164 160 163 151 154 149 151 143 140 137 135 133 127 117 107 110 116 102 71 52 48 47 76 98 94 109 115 74 59 75 68 49 82 90 59 38 57 46 34 60 110 130 139 137 148 159 165 170 165 163 161 163 170 164 170 169 170 173 172 178 179 178 177 178 174 175 178 175 175 175 171 172 171 171 172 173 175 173 176 173 172 170 170 174 167 167 166 167 165 163 165 163 163 158 160 154 154 149 149 140 142 136 138 132 133 123 111 116 114 94 73 48 49 62 78 96 94 112 105 72 50 78 65 55 92 71 75 50 54 39 19 70 119 134 137 143 144 159 164 158 146 139 142 147 149 150 155 158 164 168 169 175 173 175 175 173 170 172 174 175 173 173 166 171 169 169 171 169 171 175 174 172 173 171 169 171 169 165 161 166 162 161 161 161 160 155 155 152 151 150 147 140 142 140 137 132 136 127 123 119 104 88 68 49 57 62 79 98 94 118 99 59 54 72 71 63 105 76 77 64 54 33 12 92 128 136 138 136 138 144 143 136 127 124 122 127 132 128 137 144 157 159 164 170 171 175 172 170 172 168 170 170 171 167 171 167 168 168 169 166 170 171 168 170 165 169 166 166 168 161 159 162 161 156 158 162 159 156 155 154 156 151 151 144 144 141 140 139 141 134 128 111 95 85 74 54 60 69 76 99 100 109 96 50 56 68 70 57 114 92 97 74 52 29 14 112 135 138 137 129 125 120 126 122 124 120 120 116 113 107 116 123 133 136 147 158 161 165 169 168 170 165 165 170 167 164 165 166 165 167 167 167 171 166 167 167 161 166 165 162 161 161 158 158 157 154 152 156 154 157 151 154 154 151 150 146 144 142 140 143 137 139 125 109 86 88 78 65 60 76 84 94 103 107 83 45 60 59 74 61 123 110 132 92 51 27 19 128 139 138 137 120 119 116 122 129 130 137 132 126 117 107 102 104 107 110 112 130 129 139 148 157 163 164 160 165 161 162 161 158 162 162 161 167 163 167 167 159 165 162 164 159 158 158 152 153 152 154 150 156 153 156 150 159 151 148 143 145 149 146 143 138 140 136 127 102 86 90 79 73 68 71 84 89 109 99 62 54 59 53 69 56 129 132 150 102 60 27 42 129 141 137 135 126 130 135 140 147 147 148 140 142 132 120 110 104 100 104 100 104 99 109 110 135 144 155 154 156 157 155 160 155 156 161 161 163 163 164 161 162 162 160 157 155 152 153 147 147 150 151 152 155 152 150 150 150 145 140 133 135 141 139 134 128 133 141 124 108 87 87 91 82 68 68 73 97 105 96 54 49 65 54 61 56 140 147 131 101 73 34 60 132 141 132 123 134 134 142 148 147 147 147 137 137 133 119 116 106 97 96 96 95 88 83 90 105 117 132 145 146 148 145 151 147 150 155 157 159 161 156 154 158 158 156 153 151 148 142 147 144 147 146 146 149 146 143 141 134 128 120 116 111 119 118 113 117 123 129 122 109 91 82 85 85 71 66 70 101 98 75 58 46 61 59 58 53 127 124 113 87 71 48 82 138 147 133 122 126 131 133 134 130 129 124 120 111 111 105 99 96 96 93 88 89 88 76 76 75 90 102 128 132 136 136 139 143 145 150 150 150 150 149 147 147 148 145 144 140 142 137 141 136 131 129 125 123 124 122 116 113 106 98 93 96 99 102 101 98 107 105 104 91 80 79 76 81 72 66 75 104 88 65 57 56 53 62 57 60 121 113 96 77 64 49 96 140 142 136 125 122 114 116 113 105 99 96 80 85 77 80 82 74 78 77 84 81 91 83 73 73 79 85 108 119 124 127 133 133 140 141 142 143 138 145 138 136 138 135 135 130 132 131 130 121 107 98 93 91 100 95 93 98 86 90 95 96 107 105 104 103 100 96 96 88 75 75 70 79 70 70 85 99 79 60 38 54 60 62 54 57 112 104 86 70 65 60 108 138 147 135 120 113 108 94 92 83 66 65 49 61 51 57 58 57 52 55 63 68 79 83 81 84 83 85 99 108 116 120 125 128 131 134 134 136 131 134 123 128 126 124 121 121 115 115 103 97 72 71 65 63 77 80 84 87 91 100 111 107 117 111 116 113 109 107 105 89 84 81 77 77 77 75 92 95 73 47 48 39 55 58 57 64 113 101 90 84 66 69 113 140 144 146 130 115 104 89 76 51 58 53 55 50 48 47 46 51 36 44 44 51 57 77 82 83 88 88 90 102 107 109 120 123 133 132 129 131 128 126 125 120 121 112 114 107 105 94 87 73 62 54 58 65 77 80 85 87 88 97 108 108 109 112 119 114 117 115 106 95 89 93 88 82 85 80 98 91 59 37 41 35 33 45 49 74 112 112 106 97 77 76 117 138 144 146 134 124 110 86 65 54 48 45 43 51 45 40 43 43 39 35 39 41 46 60 75 87 86 86 91 97 97 108 117 129 134 136 132 132 127 131 126 123 112 108 108 101 96 90 75 72 60 61 70 69 73 72 67 78 75 87 92 92 101 103 110 111 114 113 107 96 90 97 99 93 99 91 98 81 60 34 33 29 27 35 42 85 121 134 122 110 90 89 114 138 143 143 145 128 111 88 63 54 42 40 58 81 68 57 34 46 26 43 41 40 43 52 62 82 88 89 90 92 96 104 125 134 142 148 143 141 134 136 131 119 110 104 100 95 90 84 76 79 67 70 62 59 57 52 48 55 55 65 65 65 75 85 93 100 106 108 103 92 90 101 102 103 100 101 100 85 68 35 36 34 30 32 55 93 117 141 131 125 103 94 123 137 145 145 157 152 132 116 100 78 66 59 87 108 83 72 39 35 30 41 49 59 53 56 62 61 82 90 89 90 93 108 131 143 156 158 158 156 149 141 135 123 113 104 96 87 88 86 72 72 69 59 48 49 49 44 43 39 50 66 61 60 55 56 68 74 92 99 95 85 89 97 102 104 109 104 100 98 82 45 37 44 41 39 58 88 119 122 129 137 117 97 124 140 145 156 168 168 167 160 146 106 77 83 92 115 98 79 64 46 46 56 59 76 90 57 61 65 71 83 93 88 90 113 138 156 164 167 167 168 162 150 139 123 116 103 92 84 84 80 67 66 60 54 44 42 36 37 31 30 32 48 47 58 57 62 53 53 71 81 88 79 81 94 101 108 105 110 100 104 89 46 36 46 46 44 62 81 129 107 121 135 115 97 124 138 149 156 168 172 170 167 159 128 96 86 95 101 118 99 83 84 75 69 74 99 107 70 57 56 72 79 85 92 100 121 149 163 170 181 177 177 171 157 140 127 115 103 89 86 82 71 65 66 59 44 55 44 41 34 29 24 28 36 28 40 39 53 59 58 53 69 76 83 84 94 104 107 105 108 98 106 93 62 41 40 48 48 68 63 132 125 126 138 114 100 122 143 146 162 167 175 174 174 159 145 125 118 117 111 122 123 115 108 98 98 105 103 114 93 84 73 65 87 95 110 122 136 159 172 176 187 190 184 181 166 150 123 118 105 103 87 82 72 69 62 46 57 77 67 53 37 26 28 28 34 42 48 39 28 45 54 56 57 75 84 90 97 110 113 110 107 100 108 93 64 50 46 46 56 62 66 130 138 139 144 123 104 130 142 149 161 165 173 174 170 158 145 139 138 135 130 130 116 127 116 119 110 112 112 115 119 117 121 107 106 120 132 145 153 172 176 182 190 193 187 184 166 148 129 117 113 109 97 91 77 65 48 52 68 90 84 55 50 37 24 28 48 50 75 57 40 28 35 51 68 82 88 100 107 115 115 114 107 100 105 91 71 56 54 55 62 64 66 140 156 153 143 139 117 132 150 152 161 163 173 174 172 160 144 139 134 132 130 134 121 124 123 126 119 117 113 120 127 132 135 139 137 148 158 169 168 172 177 185 195 193 189 183 169 151 131 123 119 116 112 100 82 64 60 64 68 81 92 65 57 53 43 48 57 70 85 65 54 43 52 57 81 105 106 115 114 123 113 114 107 103 101 91 78 76 68 64 66 68 81 132 151 162 149 143 128 134 153 151 161 167 170 176 172 171 163 151 137 125 124 124 122 120 123 125 124 122 130 134 140 144 154 158 164 169 176 176 174 177 181 185 195 192 189 180 171 154 133 125 127 122 114 115 99 96 92 85 87 84 83 74 73 60 70 66 73 71 82 68 51 63 84 87 99 105 120 119 122 121 121 111 105 102 104 89 81 86 81 64 70 83 103 117 143 164 159 131 129 136 154 153 164 164 171 172 179 185 181 179 168 154 142 137 132 131 131 137 140 139 144 149 155 169 174 182 180 179 177 178 176 181 182 189 194 192 186 182 170 153 140 134 132 133 126 126 114 110 107 105 101 99 94 94 91 88 89 92 95 90 78 89 81 89 102 118 123 122 126 125 125 122 118 111 103 100 103 88 82 94 85 79 88 104 119 98 125 158 167 151 136 139 154 158 164 170 173 176 182 189 192 188 191 185 182 174 163 156 151 155 158 164 164 173 182 183 183 186 183 180 178 175 176 178 184 192 195 190 189 181 169 155 144 142 142 147 142 145 139 120 122 118 111 111 109 107 110 105 109 108 110 109 106 108 109 108 113 123 133 134 130 126 125 122 118 108 103 100 102 88 86 87 102 109 107 111 109 76 81 145 166 158 144 144 153 162 166 169 171 181 182 191 195 193 197 194 196 194 190 184 182 179 183 182 185 186 188 186 185 187 183 182 180 172 176 175 183 192 195 190 190 183 169 156 150 148 147 155 159 162 161 150 138 130 127 121 116 110 114 110 112 114 108 115 112 118 115 119 123 129 135 141 134 129 119 120 115 106 101 102 97 90 81 73 98 120 114 104 104 71 28 134 158 152 144 145 156 161 163 168 175 177 180 190 194 196 200 198 197 198 198 195 193 191 190 188 189 189 187 187 188 189 186 177 180 178 170 181 186 195 197 189 188 182 166 159 150 151 151 161 170 176 176 178 166 161 148 141 129 122 111 112 106 108 107 109 108 115 116 123 131 133 134 137 127 127 121 116 115 108 102 101 94 91 77 75 110 121 117 109 108 79 20 170 151 130 137 145 155 158 163 169 175 176 179 185 193 193 198 200 198 198 200 191 190 189 190 185 186 189 188 187 188 190 185 181 180 179 171 178 187 196 198 194 185 181 163 151 149 155 155 162 173 180 182 183 182 178 172 169 158 148 138 133 130 125 129 125 126 135 142 148 148 143 142 131 126 124 121 117 113 106 103 99 93 96 89 100 114 119 115 112 114 62 32 83 75 103 130 143 154 153 161 163 166 175 173 180 186 191 193 199 195 196 195 192 185 189 187 185 188 187 185 184 189 187 184 182 182 177 178 177 186 196 196 190 185 175 162 153 154 160 159 166 177 181 182 183 181 184 184 183 186 177 173 167 166 164 161 156 157 166 166 168 167 157 155 135 129 124 118 117 114 108 101 100 93 102 111 111 115 113 120 116 113 57 61 66 11 81 136 141 150 152 163 168 169 174 172 173 182 184 184 190 190 188 186 183 184 182 183 182 180 174 171 171 175 176 174 176 181 177 177 184 186 189 192 189 182 179 166 158 157 163 170 174 181 182 181 179 182 181 179 182 181 183 185 185 182 179 173 174 177 177 180 178 173 166 159 140 133 125 121 116 113 105 101 99 93 104 109 108 111 116 120 115 99 64 51 62 12 77 137 141 146 153 152 161 160 168 168 171 173 176 174 179 179 180 175 177 173 174 171 167 158 151 152 155 163 170 167 172 176 173 177 188 188 189 189 186 184 181 164 153 151 151 166 168 171 173 173 175 176 180 178 182 178 182 184 184 182 184 180 182 178 180 182 178 174 169 157 139 134 126 122 117 112 107 99 92 100 112 109 105 112 118 114 107 91 66 54 47 11 82 133 137 144 149 147 154 160 161 161 166 167 166 167 172 170 168 165 163 160 154 151 138 120 130 151 166 174 177 173 166 174 172 176 189 193 191 188 189 184 179 167 147 136 144 151 154 148 141 143 152 163 175 172 176 176 179 180 179 182 181 181 179 179 174 176 170 169 161 158 142 134 125 121 115 109 105 100 93 98 116 121 106 107 117 114 81 82 82 54 35 30 81 133 134 137 143 146 149 151 157 153 157 157 156 158 159 155 152 151 144 137 134 121 104 93 126 159 174 181 181 176 169 171 170 174 189 195 193 191 187 186 177 160 142 136 148 164 163 158 141 126 112 127 149 158 165 168 170 180 174 177 176 176 176 172 165 169 164 158 154 147 140 131 116 118 112 107 107 96 81 91 101 119 104 79 107 76 48 90 96 54 35 14 90 128 132 134 139 142 142 149 148 151 151 148 152 148 150 145 140 135 129 117 113 100 90 77 121 161 174 181 178 179 172 167 169 170 186 193 194 190 186 186 179 160 141 141 162 174 171 164 158 143 115 100 116 137 148 154 160 168 168 171 167 170 166 163 163 158 151 154 141 145 136 130 119 112 109 107 109 96 51 56 86 95 98 58 92 52 46 101 104 68 23 59 93 127 127 131 133 134 137 142 143 138 139 138 143 138 141 132 124 120 112 99 98 84 80 76 116 154 165 175 175 174 170 163 164 168 177 185 188 185 184 181 176 155 139 144 163 176 173 169 160 147 117 91 91 110 123 136 145 156 156 160 158 163 159 158 150 152 145 140 138 137 130 125 119 108 111 104 110 85 27 30 58 68 67 31 73 119 42 101 97 92 30 170 142 119 124 123 123 130 127 135 134 133 127 131 131 126 130 122 112 106 95 92 87 78 78 95 110 141 150 163 166 166 161 159 160 168 166 175 177 175 173 167 161 143 139 137 159 172 171 161 151 141 109 81 78 86 99 115 128 131 145 148 143 153 151 148 146 143 140 131 130 130 124 122 113 110 105 104 113 76 20 46 85 56 51 19 33 80 69 105 95 97 50 187 172 119 112 116 118 120 119 127 126 125 117 122 121 116 115 109 103 96 91 85 79 76 83 101 125 121 127 138 149 152 149 147 143 155 159 165 166 159 159 150 146 136 129 133 150 156 160 147 134 127 95 79 79 80 85 96 107 117 126 135 135 142 143 140 135 138 131 128 122 123 118 119 114 106 104 102 112 59 24 37 128 63 44 17 29 55 68 108 76 71 98 184 169 129 113 105 107 115 112 112 113 113 111 108 107 105 103 96 92 88 85 75 82 77 103 119 137 125 106 93 112 121 120 121 121 128 138 142 144 143 133 127 120 117 116 125 128 140 129 122 115 105 96 88 83 81 75 84 91 102 110 120 126 126 128 131 123 124 122 121 115 109 112 111 111 102 104 100 109 54 23 37 56 51 43 30 28 38 67 108 80 73 151 221 207 136 107 103 102 100 101 104 105 96 104 97 97 95 92 88 86 85 79 69 80 100 125 137 148 147 124 82 75 75 85 87 100 101 116 117 121 118 111 110 101 103 99 99 103 107 101 97 100 101 100 96 84 83 81 80 84 96 103 108 114 116 119 115 113 111 112 116 108 100 106 110 103 104 98 104 101 50 27 41 53 40 38 42 31 41 65 95 81 61 126 154 161 128 110 104 99 98 94 92 95 90 92 89 88 85 87 88 78 76 70 77 87 124 145 148 151 165 149 105 80 69 67 69 84 90 91 97 98 101 94 96 89 89 79 75 72 77 80 94 101 102 104 102 92 85 83 76 80 91 95 101 103 109 107 106 104 106 103 99 106 95 110 100 107 100 102 104 90 41 24 46 53 38 44 54 35 39 49 85 98 71 86 126 115 110 109 103 101 94 83 90 88 90 85 84 84 80 86 79 69 75 74 79 113 138 145 157 157 160 166 137 100 87 74 74 65 76 85 77 84 81 90 78 80 71 70 70 74 89 99 103 106 108 108 105 104 90 82 75 74 82 86 93 89 93 98 92 93 97 99 94 97 101 95 97 98 96 101 101 88 18 29 46 53 28 65 65 35 28 43 74 125 115 110 115 100 105 116 105 103 94 92 86 86 85 81 85 75 83 76 76 72 77 70 92 119 139 145 148 157 155 162 156 130 101 88 82 77 74 73 66 75 72 78 74 71 81 81 87 99 105 109 112 109 114 110 110 110 95 81 83 74 74 79 87 85 83 90 89 83 88 93 88 88 88 94 91 97 93 98 107 67 18 29 46 45 27 67 114 34 31 34 59 148 147 142 141 129 130 127 105 105 101 95 92 91 85 86 85 78 84 75 82 75 78 80 94 115 125 134 138 142 151 154 157 152 125 113 91 82 81 76 66 70 73 73 82 78 94 96 106 111 114 115 117 115 118 112 112 107 106 91 89 84 70 75 79 83 75 86 85 83 84 87 78 82 87 95 87 93 94 93 104 46 15 23 44 34 39 75 204 91 17 40 50 169 170 167 160 145 128 121 105 102 105 98 96 92 95 91 90 84 84 89 79 79 77 78 72 86 87 97 101 110 118 123 132 136 135 129 112 101 86 84 80 84 84 77 89 91 107 112 111 113 114 118 116 114 113 114 109 103 110 97 89 83 88 69 75 78 78 80 78 84 80 83 83 84 84 89 91 95 91 102 90 32 19 23 36 25 39 83 182 128 20 37 49 148 151 139 136 115 95 91 107 101 108 104 102 99 106 101 101 91 89 91 81 75 71 60 49 40 30 44 57 66 72 75 81 87 93 100 96 101 91 83 89 87 94 94 94 97 104 106 110 110 109 112 110 113 106 113 109 102 99 99 90 88 85 84 68 79 75 78 78 85 83 82 89 86 85 87 96 94 93 103 74 22 27 27 28 27 76 120 200 182 65 21 60 98 96 93 92 82 83 70 100 107 103 107 104 106 110 111 110 107 102 91 83 71 66 65 51 34 24 14 45 55 79 75 63 70 66 62 66 70 71 71 69 76 80 81 74 79 76 79 78 80 87 86 93 95 92 95 94 96 90 91 94 94 88 83 78 74 84 76 80 88 81 86 91 90 86 91 94 93 97 95 61 30 31 26 33 17 74 113 141 141 66 13 51 80 83 83 80 77 78 78 88 101 106 108 111 104 116 118 126 121 113 100 94 77 76 82 94 81 65 30 35 41 74 86 75 86 94 68 87 94 95 76 52 61 71 72 73 60 57 58 67 59 56 65 67 62 62 60 59 62 72 84 91 85 95 84 92 90 93 93 91 87 94 91 93 92 94 95 93 95 100 88 48 33 37 32 30 23 45 86 88 81 39 32 43 82 80 86 82 77 84 81 82 98 102 106 112 106 116 116 124 128 125 111 101 87 93 96 120 121 112 90 63 42 57 82 68 86 97 89 104 107 116 108 75 72 98 102 100 82 66 79 88 75 63 77 67 54 40 35 20 30 41 65 77 81 87 88 103 107 109 104 94 95 95 92 94 97 96 95 94 94 100 71 33 33 33 31 32 27 28 43 45 40 36 43 38 85 76 84 80 81 87 81 78 89 107 102 110 111 112 117 125 129 132 119 111 104 110 120 117 141 133 121 118 96 75 67 66 72 94 98 110 115 107 108 91 89 102 109 115 95 87 99 97 76 71 85 69 46 37 27 37 48 70 84 83 86 84 93 110 121 116 111 98 99 95 95 96 97 104 96 96 96 99 49 28 40 35 36 32 28 36 33 35 37 46 30 43 79 80 85 79 80 87 81 80 74 103 100 106 112 110 114 121 128 131 123 119 115 127 130 135 127 136 124 121 125 114 104 83 75 75 89 113 112 102 106 83 92 96 101 106 96 87 90 95 69 58 75 57 42 49 63 73 91 101 105 96 94 95 105 118 125 118 112 101 102 101 98 97 105 98 96 102 95 81 44 32 40 36 32 44 26 32 40 34 39 42 39 46 76 82 85 77 81 82 81 81 80 84 99 103 110 114 107 121 124 127 129 124 121 133 141 147 137 122 130 116 116 132 134 124 113 107 98 106 102 90 95 70 80 84 90 91 87 72 69 77 62 52 64 62 72 79 84 96 105 107 110 107 104 100 115 123 125 114 107 102 101 100 99 105 101 102 93 102 88 70 58 44 40 39 43 40 30 26 39 37 42 44 48 47 78 81 79 81 80 81 82 83 79 79 89 100 106 110 111 111 121 129 133 132 124 133 149 152 151 128 120 117 112 107 138 155 162 162 170 150 138 118 102 94 78 79 69 66 66 60 61 61 63 76 83 83 85 87 92 101 105 109 111 111 107 109 116 121 120 110 103 105 98 99 101 100 105 95 97 95 84 73 69 60 52 51 56 43 33 28 34 48 42 50 45 48 72 83 77 82 82 84 81 81 85 79 77 102 106 107 110 108 118 125 136 137 139 139 149 151 153 138 123 116 117 104 105 123 137 150 152 152 137 139 131 129 121 109 95 86 80 76 76 79 82 87 88 91 87 91 92 104 110 112 114 110 108 113 116 116 114 104 105 102 94 103 101 98 100 97 94 87 75 74 76 70 64 54 53 48 44 34 38 44 46 52 58 62 84 85 72 84 78 83 85 83 81 79 59 119 137 106 111 103 113 121 135 144 145 150 144 152 154 147 137 121 112 115 107 104 101 111 115 117 109 120 115 122 116 119 110 101 88 87 84 85 78 82 83 93 89 95 105 108 114 111 115 109 111 110 115 111 107 100 101 98 100 103 97 99 92 95 102 73 68 80 72 78 73 62 48 53 45 52 45 57 55 68 68 68 77 78 78 79 79 79 80 83 80 85 41 152 212 131 105 101 104 112 125 142 150 153 142 153 155 152 145 138 128 114 111 112 104 102 97 98 92 103 100 103 96 100 87 88 87 82 82 80 85 87 87 97 100 108 109 110 111 114 112 111 109 113 111 104 105 99 101 100 100 97 99 90 89 103 110 95 57 72 77 77 75 72 60 64 61 72 67 68 68 75 76 77 77 81 79 76 79 86 79 82 85 73 45 186 211 151 108 101 95 107 116 135 149 151 147 147 156 158 152 148 140 132 123 111 108 104 100 101 96 96 102 96 91 84 85 85 87 84 86 92 93 96 95 102 107 114 114 112 111 116 112 115 111 113 107 106 100 95 98 100 97 97 95 86 91 118 109 109 80 68 78 76 76 76 69 77 74 75 71 73 73 78 74 74 79 82 78 82 82 82 81 82 78 75 79 215 196 143 134 108 98 98 112 123 141 145 148 149 153 159 157 155 152 146 142 128 119 115 113 113 112 114 103 106 97 99 98 90 93 95 94 100 99 105 103 112 114 115 113 117 112 119 111 113 113 113 108 100 96 100 102 98 98 95 91 79 104 130 116 116 113 79 72 76 78 72 80 73 76 74 75 74 75 74 71 82 82 75 82 81 78 80 83 74 89 81 123 220 177 124 145 127 105 97 99 107 130 145 143 151 153 154 161 153 155 150 145 146 138 138 131 133 127 124 125 114 117 114 116 111 111 107 105 113 110 115 116 117 112 121 112 120 113 116 114 107 113 105 101 98 98 98 97 92 95 98 87 69 126 151 121 118 122 104 77 75 73 80 71 78 77 73 79 75 77 74 75 76 83 77 80 78 80 85 80 78 97 101 139 215 165 113 146 138 111 97 93 95 112 135 138 145 151 158 158 161 157 158 157 157 159 158 156 147 146 137 137 136 133 135 136 133 134 128 125 122 120 121 120 119 119 122 120 115 117 114 115 112 110 100 101 98 95 92 94 90 97 105 85 78 148 155 129 125 126 122 92 75 74 80 78 71 78 74 78 72 77 76 76 72 77 80 78 80 83 78 83 94 118 111 164 206 160 103 142 144 123 104 95 92 94 113 127 135 144 155 161 162 163 166 169 174 171 181 178 180 173 172 170 166 156 161 156 153 154 149 139 133 134 125 124 126 123 121 117 115 114 118 114 106 101 100 100 92 95 92 88 92 109 105 67 111 158 150 134 130 131 133 111 96 77 75 74 78 79 74 77 74 74 71 80 77 76 85 76 81 79 75 87 120 125 132 193 206 155 97 141 148 127 109 93 89 95 95 116 125 134 144 157 160 166 164 168 172 169 179 184 185 182 183 181 179 172 172 170 162 162 159 148 142 136 130 133 131 124 122 118 114 113 113 109 102 97 95 98 88 94 87 98 107 115 83 75 143 156 152 133 133 138 136 126 106 107 73 76 75 77 78 74 76 74 74 75 74 77 79 80 80 80 73 106 141 123 171 209 207 152 92 137 145 134 118 100 88 91 91 97 119 122 131 149 159 162 160 164 163 163 162 173 174 175 168 175 170 171 165 169 160 162 156 150 146 140 134 135 128 123 118 113 113 111 105 102 90 93 91 94 84 90 97 104 115 105 62 106 155 155 151 137 138 141 139 131 115 113 108 75 73 78 73 77 75 75 73 75 76 78 78 80 79 73 84 143 157 141 200 209 209 159 89 130 140 141 120 111 94 92 87 91 97 115 124 130 150 152 151 153 153 154 154 158 158 162 159 163 164 163 161 158 157 156 153 149 147 144 143 129 127 118 111 112 98 104 96 90 88 85 88 87 91 96 103 108 112 73 75 136 156 155 148 139 148 143 142 135 118 116 119 102 74 75 79 75 75 78 74 74 74 80 77 83 77 67 109 168 173 176 204 208 210 163 84 127 144 137 129 115 106 95 92 91 85 101 111 117 132 137 142 144 143 146 148 147 147 148 148 150 150 157 152 148 152 150 145 141 144 143 133 126 118 112 108 101 98 90 85 82 89 77 85 89 101 99 111 115 93 59 109 153 156 153 148 151 153 156 149 138 125 116 117 121 99 76 74 75 78 77 70 76 74 80 79 86 70 67 146 192 188 192 205 208 211 166 74 124 146 137 132 125 115 100 97 95 90 87 100 99 116 120 129 132 130 134 132 134 136 137 137 141 136 142 138 138 137 131 135 131 128 127 121 114 107 102 97 93 88 79 75 78 80 85 87 95 106 104 113 112 59 73 137 151 157 150 150 159 162 166 161 148 131 115 119 117 128 111 85 73 76 70 79 71 76 80 78 80 75 72 177 203 195 198 206 209 211 176 74 108 146 139 133 132 120 110 105 97 99 92 92 95 95 106 114 117 118 118 114 120 125 125 128 128 126 128 126 119 119 119 117 116 118 114 110 99 99 93 89 86 80 73 75 82 82 95 97 104 107 111 112 91 53 112 153 150 156 152 153 169 171 174 167 158 137 127 116 118 124 123 121 102 86 75 75 75 74 78 79 89 84 107 194 206 197 199 207 207 212 180 86 96 142 142 134 133 125 118 108 100 107 94 94 95 96 90 101 101 103 104 102 111 112 113 111 114 109 109 108 104 101 106 103 103 102 104 91 90 91 86 79 76 73 71 81 88 95 99 101 107 110 110 98 56 84 141 148 152 159 151 161 173 174 175 172 160 140 133 120 123 122 123 120 124 113 97 76 74 76 97 103 126 158 177 198 205 195 199 207 205 214 191 107 83 140 138 139 134 128 121 110 107 106 100 103 96 99 96 93 87 83 86 87 92 95 92 93 91 88 86 89 86 84 86 90 88 86 91 82 84 78 74 72 72 79 85 88 97 101 106 105 111 111 106 68 61 130 149 145 159 163 155 167 174 175 173 169 158 143 137 128 127 132 126 120 119 123 128 109 94 81 177 182 191 200 196 198 202 193 196 207 206 211 201 131 78 129 144 142 135 130 124 119 116 107 107 104 102 99 100 95 91 89 80 78 78 78 74 83 75 74 75 73 74 74 78 75 86 79 81 80 78 76 71 79 83 90 96 100 103 106 106 109 109 107 82 61 113 149 146 154 165 163 160 166 180 174 171 167 154 143 143 138 140 144 135 132 128 135 136 135 127 133 203 203 203 206 199 199 198 190 196 204 205 209 209 153 80 121 144 141 140 135 129 123 120 114 109 105 106 104 103 98 97 100 88 83 82 73 78 74 75 72 70 73 71 74 74 78 81 76 79 76 80 80 82 92 93 103 99 104 106 106 110 108 106 85 56 105 146 146 149 163 166 163 170 174 177 176 165 161 148 150 143 145 148 155 148 152 144 147 144 153 142 139 