P2
92
112
255
89 95 95 91 89 81 89 106 103 108 109 108 107 99 104 92 79 69 66 55 56 42 42 51 46 47 49 54 55 60 69 67 56 53 52 63 80 77 73 62 60 70 78 85 87 88 83 88 101 111 123 112 108 107 124 141 161 171 168 157 145 130 131 129 127 133 128 124 119 143 151 163 141 130 128 134 124 113 129 132 121 130 152 142 139 146 147 145 149 152 144 134 87 97 88 89 88 94 95 104 99 100 110 107 109 110 108 101 89 83 66 65 56 49 50 51 45 44 49 47 53 54 56 58 62 50 71 92 90 72 67 53 48 55 65 65 66 62 73 69 63 86 100 120 128 106 99 122 145 166 167 164 159 149 136 121 123 124 127 136 119 120 140 155 157 138 119 120 134 121 113 126 123 124 132 144 137 134 145 144 144 155 145 140 92 98 91 95 93 90 88 95 96 105 112 107 112 110 109 99 94 82 72 74 70 56 57 57 47 44 53 50 60 55 54 64 70 62 77 84 67 64 55 69 69 68 66 59 59 55 59 62 53 54 65 95 113 120 105 99 117 148 162 161 161 165 148 142 121 113 121 131 130 120 120 132 150 154 138 116 125 129 117 105 121 125 123 126 142 139 140 148 136 144 151 142 94 92 90 94 93 86 85 82 97 103 106 102 103 111 108 101 96 91 87 80 72 64 66 61 53 48 56 57 63 60 62 62 66 70 70 73 61 68 78 83 71 71 75 57 57 46 59 69 74 57 64 69 72 104 115 99 102 131 151 159 152 166 163 154 148 124 113 116 126 126 123 119 130 149 152 132 108 122 127 116 106 119 124 124 125 154 141 146 140 132 141 145 91 87 87 95 84 86 76 89 101 101 101 98 103 106 107 106 98 95 95 87 73 71 77 69 57 57 60 69 68 72 72 66 64 71 70 61 72 94 92 68 65 70 67 48 38 39 43 57 73 76 71 70 65 65 91 106 98 116 136 161 149 145 165 160 151 142 138 110 111 119 130 125 125 137 154 145 126 110 119 123 115 107 117 128 119 128 156 142 146 136 133 146 91 91 86 87 76 80 88 97 94 80 86 86 98 90 105 102 99 99 97 98 84 85 83 79 71 71 75 74 81 78 73 66 71 68 70 79 90 82 88 71 68 59 50 41 51 43 55 59 74 83 79 68 77 64 68 90 106 108 129 150 158 141 141 163 162 143 142 142 121 107 112 130 124 127 142 145 139 125 109 117 124 116 99 117 124 112 134 145 141 143 130 131 93 91 90 91 82 90 90 82 82 69 66 88 97 100 95 106 101 100 106 101 95 90 92 83 81 87 86 83 90 87 74 74 83 81 80 77 72 70 64 68 45 38 48 57 72 70 79 80 84 87 84 70 83 71 68 77 98 109 126 147 157 153 139 150 161 153 129 131 144 127 98 117 131 120 130 145 143 130 120 110 118 125 106 103 118 118 113 134 144 142 137 125 95 88 98 92 82 75 81 83 67 73 71 82 99 105 111 111 113 114 109 108 103 101 100 99 95 98 108 106 105 99 79 87 83 74 74 60 65 55 55 47 44 56 83 107 110 102 98 90 90 91 92 75 82 85 74 75 88 108 120 142 151 158 141 141 154 167 154 119 121 148 127 106 113 132 110 126 145 136 128 120 114 110 126 109 101 116 123 107 139 140 138 135 88 92 86 75 80 68 78 86 77 68 70 80 87 109 121 120 120 125 119 121 113 111 112 110 110 117 128 127 118 108 93 90 79 67 73 64 62 59 48 49 55 87 95 110 111 115 104 94 93 85 82 82 77 86 84 80 75 99 122 146 145 152 140 137 142 161 163 143 106 125 141 129 102 117 124 110 134 140 134 123 121 109 118 124 96 105 121 107 115 133 133 133 91 88 76 69 63 70 80 84 84 74 72 78 92 109 120 131 135 134 130 129 127 127 127 122 129 137 141 144 136 116 102 94 82 79 77 73 67 57 61 59 75 88 102 114 115 99 96 81 75 65 68 69 72 73 77 86 83 91 123 144 147 147 145 130 140 149 160 162 127 100 119 140 126 102 116 116 110 136 135 128 123 123 108 114 107 94 108 115 101 120 129 130 93 81 75 65 65 83 80 82 84 75 72 83 97 122 128 139 146 141 142 145 143 148 142 137 140 153 158 158 154 136 116 103 91 84 79 70 62 66 62 74 79 96 96 103 101 88 87 81 69 58 61 63 69 65 66 81 88 99 123 148 145 144 145 133 134 148 155 169 150 115 100 115 136 128 104 121 110 121 137 128 125 121 114 108 110 96 93 108 112 98 124 125 88 81 78 63 78 83 82 81 76 69 74 91 102 124 134 143 155 153 150 158 157 162 163 161 160 168 171 169 171 156 131 119 103 86 80 72 68 66 74 79 83 85 88 85 85 81 83 73 73 72 65 69 67 63 63 79 85 99 121 141 142 141 149 128 129 142 157 168 163 136 107 99 113 137 126 112 112 111 120 132 123 109 122 108 102 110 88 89 112 103 105 119 88 81 72 71 78 84 83 80 69 71 85 97 115 134 145 154 166 170 169 170 167 173 177 176 178 183 182 183 181 177 159 135 117 99 89 78 72 77 81 84 79 88 84 86 85 81 85 84 88 85 83 72 74 75 87 70 64 90 117 132 126 136 150 125 111 130 148 168 163 145 126 103 88 113 135 124 109 111 111 125 118 113 111 120 102 99 92 83 93 107 98 103 82 82 73 70 76 85 81 80 72 84 94 114 127 146 158 161 174 176 174 178 176 178 184 180 186 185 188 189 189 190 184 150 124 110 101 86 82 86 83 88 93 92 98 92 97 95 97 99 100 97 90 88 86 94 85 76 66 85 114 126 127 134 149 127 98 122 144 162 168 152 131 121 91 88 117 131 118 106 108 113 122 116 100 117 107 93 92 95 72 100 95 102 78 90 67 72 79 88 73 84 82 91 113 132 144 158 171 173 176 174 180 177 185 187 189 185 189 188 193 191 194 193 195 177 143 121 114 105 101 100 100 100 108 108 111 112 113 109 112 114 107 111 103 106 101 95 92 87 75 77 111 133 127 133 147 130 97 108 140 155 164 159 135 126 113 82 84 111 124 116 108 101 118 117 107 106 109 98 89 91 85 74 99 96 89 82 71 73 83 85 70 83 90 102 121 135 154 161 174 178 177 180 185 183 185 188 189 188 190 189 190 193 194 194 197 186 161 139 127 125 117 123 120 118 118 125 125 127 128 127 126 123 123 121 116 110 113 102 91 97 82 92 112 126 126 127 139 127 96 96 128 151 160 161 140 126 124 98 77 83 111 123 112 107 102 116 100 103 101 105 88 86 93 70 88 93 85 87 67 75 88 77 74 83 94 108 126 137 154 162 173 178 182 183 185 189 186 188 190 187 191 188 189 189 193 193 196 192 180 164 151 141 137 137 137 136 137 140 145 145 146 140 136 137 133 130 131 126 120 113 109 101 97 86 109 120 125 130 131 122 95 87 111 144 155 159 144 118 125 111 86 68 86 106 118 110 100 106 102 97 96 101 96 84 84 87 65 81 90 84 74 73 87 76 74 90 108 109 131 144 160 174 178 181 178 185 184 189 187 190 186 190 188 191 190 191 192 193 195 193 184 176 165 158 157 151 152 153 155 157 156 161 159 152 150 149 148 147 146 146 142 129 124 116 99 95 115 116 117 120 129 113 95 87 104 135 150 153 147 118 119 120 96 80 62 85 113 113 104 102 103 99 91 87 99 88 77 89 60 70 95 87 70 74 83 70 78 93 110 107 138 150 170 172 175 177 179 183 183 186 190 188 187 188 188 188 189 191 192 193 193 190 192 179 175 178 171 167 165 166 168 171 172 174 166 167 162 166 163 164 160 162 159 148 138 128 114 107 117 119 112 114 128 112 89 89 100 128 145 151 145 123 109 121 102 88 65 63 88 112 105 99 101 98 88 87 87 94 72 78 64 57 89 93 71 72 90 73 80 94 99 113 135 154 165 168 172 178 177 179 184 185 187 188 185 187 188 186 189 191 188 193 191 190 189 185 184 185 181 180 177 179 174 181 182 184 183 182 176 176 174 166 168 167 165 156 145 139 127 119 123 119 100 106 124 111 83 78 96 114 136 141 147 124 98 114 106 98 75 62 56 88 111 101 91 95 85 77 78 84 77 63 79 49 90 88 73 69 83 73 69 91 95 116 143 156 164 173 178 182 176 181 182 185 188 187 184 185 189 188 186 190 189 190 190 190 188 189 188 188 183 190 186 188 186 190 184 190 187 181 180 178 176 172 174 171 167 162 148 145 134 125 124 116 91 109 126 115 74 71 92 107 132 137 139 124 94 104 113 98 90 70 46 63 98 106 92 91 82 72 76 77 77 64 74 56 96 92 79 76 69 74 64 82 100 118 147 155 161 168 171 178 176 180 182 184 184 186 185 187 185 183 186 187 187 189 190 190 187 188 189 187 186 189 193 191 192 192 190 190 186 185 182 181 178 174 178 173 168 163 155 148 136 135 127 113 100 108 121 110 79 70 82 100 128 129 136 119 95 89 112 102 88 80 52 48 64 101 97 90 86 64 70 65 70 73 59 59 94 92 72 70 70 65 68 74 93 124 148 152 162 161 175 173 172 175 178 180 182 182 181 184 184 183 187 186 188 187 187 189 187 189 189 189 188 189 191 190 193 189 190 186 186 182 181 178 175 176 175 175 170 165 161 151 141 136 128 117 108 108 117 103 74 68 81 100 117 125 133 121 87 81 104 108 91 84 65 44 47 76 95 96 85 66 63 64 66 68 63 56 103 88 82 68 63 58 67 66 100 128 151 153 162 164 171 173 169 174 174 176 175 178 181 181 181 180 183 181 186 184 187 187 187 185 189 186 186 188 190 188 188 189 188 186 185 181 176 176 173 174 173 175 169 165 162 156 145 139 130 124 120 119 114 90 71 65 80 101 112 121 132 121 82 74 86 100 98 83 68 55 48 44 78 95 84 75 56 58 55 67 57 64 96 94 81 64 64 63 62 71 103 136 145 155 160 163 170 169 172 171 178 177 176 177 181 183 182 182 180 182 185 184 185 184 188 183 191 184 186 187 190 187 188 188 187 185 183 183 177 177 172 172 174 174 173 169 165 157 148 139 133 131 123 124 108 79 67 62 80 102 105 113 132 124 82 69 79 90 92 90 79 60 47 40 47 79 89 81 48 49 48 61 58 62 98 98 83 62 57 68 63 76 112 139 146 152 157 159 165 166 166 169 172 174 175 178 181 177 182 181 179 183 181 183 182 183 183 182 182 186 182 186 187 185 184 183 182 181 183 175 173 170 173 169 174 173 173 168 164 155 153 143 134 129 131 126 113 80 62 65 85 97 100 116 129 126 77 63 72 78 93 85 84 68 54 40 38 50 84 87 59 40 49 51 55 55 101 108 94 75 59 67 70 76 117 136 147 146 153 156 164 167 170 163 170 168 172 178 178 175 181 179 179 181 180 181 182 177 178 180 183 180 182 183 186 181 182 180 182 178 181 172 168 174 173 172 171 175 173 172 162 154 150 144 136 134 137 130 117 89 66 65 86 96 88 106 128 123 84 56 69 70 84 87 80 69 65 45 39 33 61 84 65 43 44 46 51 51 102 107 84 76 66 69 71 71 118 138 145 146 154 152 164 164 170 169 168 169 172 178 175 177 180 179 178 180 182 175 177 172 176 176 178 177 180 179 179 177 176 178 179 178 177 177 168 173 166 171 170 174 170 171 165 155 147 151 136 130 140 130 124 101 83 71 78 90 85 97 126 125 88 57 62 72 66 85 77 76 67 51 43 33 43 67 77 40 42 48 49 50 111 106 91 80 81 80 75 72 123 140 144 150 154 153 163 163 169 163 166 165 171 170 173 176 176 176 177 176 174 175 172 173 174 172 177 177 182 181 182 183 181 183 181 182 176 176 176 172 175 173 175 173 170 172 167 159 153 156 144 131 134 134 124 113 98 83 83 92 75 90 123 125 87 58 54 69 67 81 77 72 71 58 54 36 39 43 73 63 31 43 52 50 110 106 104 84 77 82 74 81 132 138 150 156 152 160 158 168 171 166 165 168 171 173 175 177 176 178 176 177 174 175 171 171 172 172 176 177 179 177 179 181 178 178 178 179 175 174 175 174 175 172 174 174 173 171 167 161 159 156 149 137 133 131 130 114 106 85 89 85 80 88 119 118 88 60 49 68 68 70 83 71 71 71 58 45 34 35 54 77 41 35 43 51 111 110 99 92 86 85 68 86 135 145 147 159 154 157 164 168 170 169 168 168 177 175 177 179 178 179 180 179 177 173 175 171 172 171 176 174 175 176 176 176 177 176 172 177 175 171 170 174 174 171 177 173 174 171 170 161 160 157 150 137 135 133 128 125 109 98 91 86 85 93 118 117 79 67 51 50 71 65 80 78 71 77 53 54 42 39 39 55 60 42 32 47 105 113 106 103 91 82 48 86 137 143 150 158 159 156 166 171 163 172 167 165 171 174 172 176 177 179 176 177 177 173 174 173 173 171 174 175 176 179 178 177 176 175 175 174 175 174 171 174 173 173 174 174 173 169 170 165 163 154 148 144 142 139 135 130 117 106 93 89 87 89 116 118 78 54 62 46 62 59 76 81 69 82 70 55 44 39 39 43 54 58 44 44 94 103 96 95 88 72 27 84 140 146 149 156 157 159 161 167 166 168 168 165 169 170 173 174 177 175 178 179 177 174 173 173 174 171 173 170 173 175 172 174 172 176 172 173 172 173 172 171 173 170 176 175 168 171 169 164 166 155 149 146 150 143 137 131 123 113 95 94 92 95 113 114 80 51 65 48 54 61 65 76 66 72 73 58 45 46 38 37 41 55 59 51 87 102 88 86 82 58 20 74 142 146 148 153 151 155 160 165 166 168 169 169 171 171 172 175 175 172 176 175 173 172 171 175 173 172 172 170 174 171 169 171 171 170 168 171 172 169 167 172 171 171 175 178 173 175 171 171 165 157 150 152 152 147 138 135 119 117 96 98 94 103 114 109 78 60 56 51 48 57 61 70 70 56 73 65 48 48 42 46 43 58 55 61 87 93 101 86 84 64 16 75 139 144 152 150 157 158 157 165 165 169 171 172 170 174 170 176 176 170 171 169 174 170 170 172 171 173 173 170 172 173 171 167 171 167 168 169 167 174 168 172 171 173 178 175 174 176 171 172 166 158 152 158 154 151 143 131 125 112 108 103 100 106 108 109 87 61 60 52 54 40 64 64 72 58 56 66 58 50 39 50 58 50 58 59 96 93 97 89 93 66 19 60 141 146 147 158 157 157 159 160 167 166 171 168 169 169 167 171 170 171 169 169 170 170 170 168 172 170 170 170 169 168 169 168 166 167 167 167 163 165 168 170 170 171 176 173 174 172 171 172 168 162 161 159 158 151 147 139 129 115 109 111 111 102 105 106 94 73 62 62 54 58 48 65 70 67 56 57 69 61 56 47 72 62 64 62 88 88 93 90 93 71 39 47 135 149 147 150 150 151 154 157 165 167 170 170 166 170 166 168 170 169 168 169 165 167 167 167 169 168 166 168 166 168 165 166 162 163 163 162 161 168 161 171 170 174 174 171 170 165 166 165 165 156 148 151 148 150 147 145 130 119 107 109 105 102 101 103 95 82 73 66 61 57 54 56 69 69 66 55 64 65 65 65 69 71 58 65 87 91 86 93 88 89 42 49 134 140 132 132 131 139 143 151 159 164 169 167 169 166 163 165 163 168 165 165 166 165 168 166 167 167 164 161 166 162 164 163 160 163 161 159 163 160 161 167 167 167 165 161 155 150 145 145 142 141 130 134 140 137 137 134 133 120 111 97 99 99 100 97 97 78 78 72 67 72 60 53 51 70 64 60 58 60 68 72 65 65 57 68 84 83 90 88 90 89 59 52 132 125 116 117 120 121 130 142 147 158 163 168 164 162 164 161 161 163 160 160 161 163 160 162 164 162 161 160 162 162 164 157 162 154 158 158 163 158 162 164 159 158 149 147 134 131 125 124 117 120 116 117 124 119 115 115 109 107 104 91 93 96 103 98 97 86 77 77 70 72 65 64 46 58 65 63 68 60 64 60 54 53 48 59 88 85 85 92 86 89 69 80 112 115 105 109 108 99 110 120 131 142 145 155 156 160 161 159 158 156 156 158 158 159 159 161 160 162 161 159 158 162 156 157 153 154 153 150 152 151 152 145 146 137 133 121 112 109 106 109 108 111 109 107 112 110 106 113 101 102 96 98 91 97 99 101 101 93 86 78 73 75 70 67 59 60 54 53 58 56 58 54 45 46 46 66 87 82 91 86 89 88 81 89 107 108 111 109 100 95 93 100 105 113 122 123 137 150 152 151 153 153 147 150 151 153 155 157 157 156 153 154 157 153 149 152 145 151 147 139 135 129 126 120 116 113 109 102 98 105 106 120 118 121 119 121 119 117 111 113 107 111 104 108 99 106 98 100 100 98 94 87 83 80 70 74 53 53 53 39 46 40 49 47 46 49 51 73 87 83 90 82 88 81 96 89 105 112 120 118 109 104 96 91 101 95 97 99 107 127 136 141 149 145 145 144 146 147 147 151 152 150 147 147 148 148 143 142 141 143 134 120 112 96 97 95 93 93 96 100 101 106 117 119 122 123 124 124 123 125 112 112 103 111 114 111 110 104 108 102 100 105 97 96 92 85 79 81 67 55 47 42 37 37 50 38 41 47 60 79 84 87 89 85 87 86 97 97 107 124 129 125 125 109 100 93 91 85 86 80 83 93 112 121 133 133 135 135 138 137 142 141 144 142 142 138 136 139 138 130 131 123 111 93 79 66 59 72 82 86 92 93 100 106 111 111 116 121 125 124 121 125 116 114 110 111 112 115 113 115 117 107 107 110 116 109 109 106 98 94 88 74 54 49 47 39 48 41 41 49 68 75 87 83 86 92 84 95 93 105 112 131 127 124 120 110 99 91 86 84 85 77 69 78 84 102 114 125 126 130 133 132 132 141 133 137 137 128 129 128 124 119 117 110 100 75 72 56 60 76 89 85 93 91 88 98 99 102 103 108 115 116 116 118 116 115 110 107 113 114 113 117 120 117 105 117 115 117 114 115 112 108 101 89 67 57 49 49 39 42 51 58 69 77 86 86 84 87 88 91 84 106 115 119 118 116 107 95 88 82 76 76 78 77 70 70 74 81 101 112 116 120 120 125 126 130 131 127 130 122 120 121 116 113 109 102 87 71 77 53 75 79 88 81 85 76 73 74 78 77 76 85 88 99 103 106 107 109 102 102 103 108 108 115 117 122 113 115 120 120 116 118 119 116 110 101 80 63 50 54 47 49 58 59 78 58 86 85 85 85 87 89 83 103 114 104 99 94 79 73 63 64 57 60 59 62 72 75 71 76 83 101 100 111 113 120 125 127 126 126 128 125 122 118 112 104 107 99 89 82 84 71 84 79 75 77 63 57 53 51 55 58 59 58 62 67 80 83 95 99 102 97 96 100 107 109 116 117 121 121 119 118 114 119 115 120 112 111 90 73 55 54 52 56 59 62 81 68 81 88 84 86 85 85 90 97 105 88 84 67 55 47 47 44 48 38 43 39 54 61 71 73 81 85 93 100 108 119 125 127 129 130 129 132 125 114 110 103 104 98 92 90 84 87 80 81 68 60 55 51 41 41 50 47 53 60 50 52 59 58 70 89 90 95 92 97 102 110 113 120 123 126 123 119 119 117 117 118 115 114 101 83 58 56 57 66 71 73 78 74 81 84 85 89 84 87 100 92 104 86 70 52 42 41 38 36 39 30 32 30 32 44 50 65 79 81 82 93 101 116 129 136 140 133 136 137 126 120 107 104 101 97 88 91 87 86 81 69 62 50 53 40 32 34 37 29 37 43 47 51 53 62 49 65 78 91 90 97 102 109 115 125 127 121 127 123 121 118 114 120 113 114 108 93 67 62 66 74 69 77 86 82 85 82 86 87 77 94 93 92 114 87 65 51 35 37 35 38 47 42 35 30 28 33 33 52 73 79 77 84 91 117 134 148 143 152 145 144 134 120 110 102 101 101 94 87 91 83 71 65 57 42 42 47 42 37 32 28 27 35 33 40 41 50 54 56 60 80 90 92 101 110 115 127 129 128 127 125 124 114 116 120 115 115 114 88 77 66 78 87 81 87 93 84 87 84 83 86 83 99 95 89 117 107 59 44 34 30 39 62 83 58 40 42 31 28 26 41 46 69 78 76 85 117 142 153 161 165 159 154 145 131 118 107 106 101 94 93 87 76 65 68 47 48 58 82 61 43 30 37 27 27 39 42 45 41 42 52 62 73 84 98 108 117 119 131 130 133 134 122 124 118 117 117 120 118 112 101 80 76 95 117 98 93 100 92 82 82 84 83 89 95 97 89 112 107 75 52 36 36 46 89 101 72 49 29 29 25 36 36 46 47 67 74 75 118 144 159 169 172 168 165 151 140 127 113 112 102 100 91 87 70 69 62 50 55 75 103 67 54 37 27 28 35 41 59 60 51 39 43 67 78 92 103 113 123 127 136 133 140 130 124 121 119 113 118 119 116 113 104 84 79 101 123 111 97 95 91 82 85 85 89 91 92 92 100 112 110 102 82 50 50 62 96 111 83 66 47 38 42 39 52 59 53 51 62 79 110 147 165 176 181 186 174 163 151 136 123 120 115 104 93 81 74 67 58 48 68 93 109 94 67 52 42 33 51 57 75 80 60 53 64 78 107 115 123 129 131 139 143 139 141 132 125 118 116 118 117 118 116 114 105 86 98 107 124 116 95 86 82 85 81 90 89 90 96 97 106 118 134 138 121 80 57 68 99 115 101 77 71 57 60 53 62 66 63 47 52 85 118 149 171 177 190 189 182 173 159 145 131 129 124 115 99 90 78 64 55 54 72 85 106 110 80 65 60 59 62 68 85 74 71 80 97 109 128 134 144 146 143 145 149 143 141 131 126 118 118 118 118 117 116 116 105 87 104 113 116 124 97 81 89 84 80 83 87 92 99 101 114 124 142 150 135 102 64 78 105 109 117 95 86 88 83 84 82 75 73 54 51 102 134 156 172 184 192 191 182 177 166 153 146 142 135 121 106 102 79 74 70 69 72 83 91 104 100 90 88 87 88 79 87 83 88 110 121 142 146 155 159 162 155 154 151 147 140 129 124 115 112 116 118 118 115 117 107 90 108 115 113 121 102 70 91 82 80 87 84 94 99 97 122 132 146 154 138 114 98 100 110 110 115 112 110 113 108 109 105 101 94 80 82 126 145 164 175 187 195 192 185 179 175 158 156 151 146 127 114 114 107 100 101 93 93 93 100 101 110 105 114 116 101 105 107 115 113 121 136 144 155 166 168 167 163 156 153 148 142 127 122 115 113 113 114 114 116 116 108 92 106 118 121 119 98 70 102 86 86 76 89 94 89 108 123 130 149 157 139 125 116 122 124 117 113 117 108 112 107 106 112 110 111 98 112 146 156 167 174 189 195 193 185 181 180 168 157 162 158 143 130 128 127 117 114 110 105 101 112 109 116 116 122 127 127 122 128 132 134 130 137 142 155 169 172 167 163 157 148 145 142 129 119 119 113 117 113 115 112 115 106 89 105 114 127 105 76 80 116 84 81 84 90 95 89 118 126 131 143 156 140 120 113 118 122 118 118 122 118 114 117 119 131 132 129 127 146 163 163 168 177 188 194 190 188 182 180 171 165 168 175 173 157 160 152 140 130 126 119 117 117 119 117 125 124 128 128 132 129 133 131 135 141 154 152 164 161 161 157 150 150 144 145 130 123 120 115 116 114 112 115 113 103 95 103 118 126 115 85 109 130 84 84 79 96 93 95 116 129 134 144 158 152 127 113 106 117 111 119 119 124 121 127 134 137 147 144 153 160 165 164 167 180 189 195 193 187 184 180 176 172 170 181 180 177 180 174 166 150 139 133 129 121 120 115 117 117 115 118 119 121 123 130 143 149 161 157 157 149 148 153 151 147 145 140 132 121 122 117 118 114 116 114 113 100 98 104 122 126 127 116 126 131 77 84 86 95 85 101 131 129 134 143 156 156 151 138 119 116 114 115 124 127 136 139 141 155 164 169 172 168 165 163 168 182 193 199 196 188 185 182 178 175 173 177 185 185 191 185 185 178 166 159 150 137 130 125 122 121 119 118 125 135 146 161 173 175 175 172 168 158 152 151 148 143 143 140 129 125 120 118 117 116 114 117 106 100 102 106 116 119 121 122 121 122 80 86 88 89 77 106 142 129 136 145 157 167 172 165 155 145 137 130 135 137 146 146 158 171 174 176 173 171 164 158 171 185 193 199 198 190 183 181 179 174 178 180 187 185 191 189 191 188 189 182 175 164 156 157 159 156 161 162 170 171 183 188 188 190 185 182 177 168 158 153 145 147 144 138 133 125 124 115 119 113 114 115 108 100 106 107 113 118 121 121 123 120 84 87 88 87 79 119 143 131 138 150 160 168 178 173 176 174 167 161 157 158 167 173 174 181 175 175 173 170 164 162 170 190 196 198 197 191 180 181 179 178 178 182 185 189 191 190 191 189 188 190 189 186 184 186 187 186 187 191 192 190 197 196 189 191 188 185 180 172 164 153 149 143 144 137 135 125 121 117 120 113 115 112 105 105 110 111 109 113 128 131 126 116 87 86 86 78 94 124 155 129 140 153 165 170 174 175 177 176 181 175 178 178 178 180 178 177 174 176 172 168 162 162 170 190 198 201 194 187 180 180 177 182 181 183 183 190 192 189 189 190 189 190 190 189 194 194 198 197 196 195 196 192 196 194 188 190 187 183 181 171 168 153 151 147 140 140 131 127 123 117 119 111 113 114 105 104 113 113 104 109 121 134 141 96 85 88 83 81 89 134 150 130 145 150 164 167 173 173 181 176 178 179 180 179 178 176 175 175 174 178 174 169 167 165 170 191 201 200 189 186 183 180 179 182 188 183 185 189 191 190 188 189 187 187 188 186 190 194 200 197 198 195 194 191 190 188 182 184 187 183 178 170 162 149 148 144 143 132 131 121 123 117 113 107 114 111 108 105 114 113 98 97 113 124 133 94 80 88 83 79 101 144 146 134 141 153 166 168 174 175 179 179 180 179 176 176 173 176 175 177 172 172 171 170 166 170 179 192 198 195 190 188 183 181 181 182 183 184 183 186 183 184 183 189 183 185 184 184 186 190 193 193 196 193 192 186 182 178 177 178 181 180 173 173 158 148 148 140 133 131 130 120 121 115 113 111 111 115 104 104 109 115 76 44 81 100 104 74 82 84 85 71 116 141 148 135 143 151 162 164 172 175 176 178 176 176 174 171 173 173 169 166 162 164 163 164 166 174 183 189 191 194 191 185 183 175 177 175 173 176 174 169 164 170 169 182 183 182 181 184 183 187 187 190 189 188 186 181 177 173 174 174 177 176 171 168 157 146 141 138 129 132 126 123 117 118 112 111 113 112 106 105 113 116 46 11 27 64 65 45 76 86 84 81 124 145 143 143 137 145 161 157 169 172 174 175 173 171 167 164 165 161 156 145 149 153 155 164 170 178 187 191 192 192 191 184 177 165 167 164 166 171 168 161 154 139 137 153 162 172 172 176 177 182 180 181 182 178 179 175 174 168 172 170 165 167 168 162 157 146 137 136 132 126 122 124 119 119 105 114 114 112 108 103 112 102 14 12 7 71 60 16 74 91 76 89 132 144 143 143 135 149 158 159 165 165 168 172 166 163 163 159 156 149 134 131 151 161 160 161 169 179 190 193 196 192 187 184 172 163 161 171 179 180 181 172 168 152 133 122 127 150 157 168 170 173 174 174 175 178 173 170 168 169 166 163 156 162 162 157 149 143 136 135 128 127 119 120 119 113 109 112 119 112 111 104 110 72 9 13 19 53 131 20 81 82 83 92 144 142 144 141 133 145 150 156 162 162 161 162 159 159 153 152 145 126 107 132 160 170 166 159 169 179 190 196 199 193 187 181 173 166 162 180 184 184 181 179 175 170 154 113 103 115 131 149 155 163 167 164 166 169 166 164 162 165 161 158 150 154 153 152 145 143 139 131 123 123 116 117 117 114 110 112 114 117 108 106 97 51 8 17 21 14 79 28 84 76 81 108 137 135 149 139 130 138 150 147 157 153 158 150 153 149 144 132 125 103 80 133 167 172 165 155 166 179 191 198 198 190 188 184 170 167 168 183 185 185 183 183 176 168 151 113 87 91 103 120 132 142 151 155 155 160 158 160 157 158 156 149 148 145 144 139 140 140 129 126 120 118 113 115 116 111 115 108 113 117 106 105 81 36 18 18 34 21 33 33 80 85 78 103 134 120 147 140 127 136 143 145 146 147 148 144 143 141 130 119 110 92 67 133 164 169 159 152 161 172 186 194 191 185 183 185 171 165 174 179 185 185 186 182 170 163 137 100 82 80 85 95 113 120 131 139 145 152 149 155 147 149 147 145 141 139 139 132 133 134 129 118 116 113 117 113 113 109 114 111 114 119 107 106 67 30 23 19 30 31 18 34 81 80 80 100 128 115 141 134 122 126 134 144 137 141 138 143 129 128 119 107 95 78 65 129 159 168 152 146 156 168 173 179 180 177 176 171 168 166 174 176 185 182 179 170 159 146 121 92 76 87 85 84 85 104 112 119 131 135 136 139 141 137 133 140 133 126 124 125 130 127 127 119 115 115 114 116 101 114 112 116 111 110 111 102 59 20 29 42 23 31 24 34 93 79 82 104 124 121 134 136 118 121 129 133 130 132 132 132 126 120 107 97 87 75 63 119 151 155 144 141 150 159 164 168 168 167 162 157 156 157 164 171 172 169 156 147 135 118 104 87 85 89 94 80 76 91 101 109 120 125 124 128 131 126 127 127 128 119 119 120 121 124 120 114 114 115 117 106 107 110 115 114 112 110 108 102 46 17 22 45 42 36 32 54 92 82 78 102 121 126 135 135 115 115 120 126 123 119 127 126 115 113 100 87 79 78 64 95 132 138 133 127 136 147 151 152 153 144 138 139 132 136 142 146 147 133 127 118 108 101 94 96 94 98 99 91 82 83 86 97 105 110 118 121 120 114 116 118 116 117 114 114 115 116 112 112 113 112 113 110 108 114 113 114 113 114 102 96 41 19 30 26 53 51 34 41 82 87 79 99 122 127 130 134 117 105 111 118 116 113 116 116 108 102 95 78 80 72 66 90 114 113 110 102 108 124 132 132 128 125 115 118 111 112 113 112 113 95 95 91 89 95 96 102 102 108 112 103 91 76 79 88 94 100 106 106 107 105 106 111 103 112 108 105 110 108 109 109 111 109 108 114 106 109 112 114 112 114 100 93 35 13 25 22 33 44 27 54 76 83 76 106 111 127 132 137 117 104 103 106 108 109 105 105 98 96 86 83 71 69 69 101 127 105 82 82 87 100 107 113 106 106 106 103 98 88 83 77 79 72 76 89 92 103 101 109 110 121 118 111 104 83 75 80 88 89 92 95 100 94 94 99 97 96 98 100 103 107 102 106 106 107 109 107 108 107 112 113 112 111 97 90 27 13 21 19 21 30 26 83 81 74 74 105 109 121 135 140 115 107 90 97 93 94 98 90 93 89 81 77 72 63 72 114 135 125 77 63 70 80 89 89 92 91 94 95 82 73 59 76 78 82 99 99 101 108 110 112 117 124 131 114 108 96 83 71 82 84 86 91 93 88 89 95 92 89 90 93 95 105 94 102 104 107 104 104 106 105 109 112 113 109 96 88 23 20 21 22 21 20 26 93 77 79 78 93 112 119 129 133 122 118 93 89 83 87 91 90 86 83 80 73 67 57 77 122 144 130 94 69 61 72 84 82 83 86 86 80 73 63 72 83 87 100 102 109 110 112 122 114 125 136 136 127 118 107 98 84 74 78 81 81 91 87 90 87 94 89 90 94 97 97 96 102 104 105 103 107 109 107 107 108 111 108 95 80 26 25 27 31 25 15 65 125 77 79 80 90 98 121 129 133 123 129 109 86 79 85 83 84 81 82 76 76 63 63 85 128 142 141 109 82 73 72 68 75 68 72 77 70 73 72 85 99 102 108 112 113 118 118 119 116 129 138 141 125 126 116 111 95 89 74 79 79 84 83 84 86 90 87 95 91 91 98 92 103 105 107 105 109 110 107 100 108 112 102 98 67 37 34 44 45 39 24 35 104 76 84 82 88 93 113 130 122 125 122 137 97 79 84 81 83 82 81 78 67 65 66 89 123 135 144 118 96 76 79 70 70 65 70 70 66 75 80 91 104 107 111 112 117 119 118 120 125 135 138 141 133 123 116 109 102 96 85 75 80 74 85 81 85 88 88 98 98 95 99 94 104 105 103 107 108 111 106 102 106 108 97 88 56 37 33 40 48 40 33 27 64 82 84 78 87 87 112 120 131 133 127 147 132 84 83 77 82 81 78 71 68 71 70 85 117 125 135 124 103 85 78 75 74 74 77 72 71 75 86 95 104 103 112 110 113 113 118 122 130 131 135 135 132 118 107 109 110 107 97 84 75 81 81 86 80 92 91 96 99 103 101 99 100 110 109 105 108 111 108 107 106 106 95 80 43 43 34 35 38 40 35 25 37 79 81 79 83 86 98 109 125 137 139 143 166 112 80 81 79 75 76 78 71 71 70 81 98 103 110 108 103 88 79 77 80 78 87 82 81 82 94 90 97 95 100 97 103 105 108 116 118 118 122 120 121 112 105 100 112 110 104 94 83 85 83 87 92 93 93 98 98 106 103 101 102 110 106 108 106 110 108 106 105 106 89 70 44 43 48 38 41 38 37 30 41 73 80 78 80 84 84 98 96 123 134 136 163 161 88 82 79 77 80 75 80 64 76 78 70 60 67 67 72 70 66 61 63 70 78 78 80 78 77 75 76 71 72 67 75 74 79 85 85 85 83 90 87 80 90 90 101 104 102 102 90 92 96 94 98 95 96 99 101 106 108 104 105 106 111 106 102 110 107 110 104 99 90 63 46 46 43 39 34 27 42 35 39 77 80 85 81 81 83 88 94 95 110 133 157 176 118 73 82 84 81 82 79 72 74 67 56 28 28 25 41 68 49 61 45 49 61 67 49 53 52 64 67 60 54 59 76 66 57 67 73 60 61 57 48 41 33 50 73 88 92 100 94 105 107 107 106 97 99 101 99 104 108 107 108 110 108 106 110 109 110 105 107 93 79 66 53 46 56 50 35 37 42 40 44 79 81 81 77 81 79 85 94 87 90 95 130 149 133 76 71 86 86 88 85 80 71 66 64 43 33 16 26 72 59 77 57 73 84 84 53 54 73 89 99 75 64 75 99 87 72 79 92 60 57 57 32 29 21 48 69 86 88 96 103 114 117 118 106 105 104 105 105 107 110 111 108 111 107 106 110 107 107 106 104 88 67 65 66 56 64 64 49 50 51 49 49 77 77 80 76 82 78 79 88 86 81 82 83 91 101 83 76 82 91 96 87 88 80 67 77 85 60 33 23 52 63 73 81 89 105 103 94 72 93 105 116 111 76 100 106 105 70 93 93 68 52 48 33 46 55 84 101 97 101 104 117 125 126 122 117 108 110 103 109 109 109 110 113 112 107 109 108 106 105 106 96 81 64 57 43 64 75 65 69 66 65 58 62 74 80 80 78 84 81 79 86 84 81 86 84 82 83 86 80 83 90 105 98 100 92 80 83 116 91 64 37 30 56 57 80 88 102 103 102 78 96 100 115 109 88 94 105 104 70 86 83 63 51 49 63 76 92 109 110 113 114 118 123 133 130 124 120 114 110 107 109 109 112 111 110 112 103 109 108 109 103 102 94 70 68 55 27 47 61 71 80 67 77 71 76 78 75 80 82 77 83 80 83 79 81 78 85 83 82 85 83 80 91 104 111 113 103 95 105 116 123 96 75 57 44 41 61 87 94 90 96 74 88 92 103 107 82 87 89 85 71 70 70 54 76 76 93 99 112 117 121 124 129 128 129 136 130 124 116 113 112 110 105 109 113 109 109 111 107 105 104 107 99 99 88 64 73 44 34 24 55 72 75 76 77 78 74 80 76 75 79 76 84 78 84 80 82 77 87 80 82 80 86 83 87 104 116 117 112 109 120 119 125 108 98 93 73 61 50 70 84 83 81 68 67 76 84 85 64 69 69 68 61 73 75 80 91 100 107 107 117 121 129 136 135 138 133 137 130 125 115 113 110 111 111 109 112 108 111 109 104 103 103 100 97 92 85 63 65 52 33 26 52 79 78 80 80 74 75 86 78 78 79 79 84 78 86 78 85 75 83 81 85 82 88 84 84 97 112 122 119 111 127 137 120 116 101 108 101 96 87 79 82 79 62 57 50 52 59 63 64 57 72 76 79 89 94 100 102 110 111 106 118 125 135 141 135 136 135 136 125 120 113 114 108 109 109 109 109 108 106 109 100 101 101 99 92 94 82 67 67 51 34 24 50 95 79 73 80 77 79 78 77 78 80 76 80 80 81 81 79 80 83 75 86 78 80 87 86 86 107 124 126 115 125 143 130 111 101 96 106 111 112 103 102 104 88 77 68 62 63 68 72 78 90 92 97 96 107 109 111 108 111 110 126 132 138 140 139 137 136 131 125 115 112 111 109 113 103 112 107 105 101 106 99 96 98 90 89 90 79 69 77 54 33 22 62 101 68 80 76 80 76 79 79 76 83 76 81 74 83 78 76 85 83 81 81 85 82 83 91 81 101 116 129 123 121 142 141 109 105 93 97 106 120 111 109 114 97 88 75 71 75 74 79 88 86 92 93 97 107 104 109 111 111 127 130 138 142 141 140 140 137 130 123 111 111 103 108 107 111 102 108 107 106 99 98 97 92 91 90 83 79 74 80 53 40 15 71 112 76 67 77 77 81 78 77 76 74 81 81 77 83 81 78 78 84 80 82 80 82 78 86 89 84 112 124 133 127 137 147 121 105 104 89 95 97 97 96 97 93 91 74 72 71 75 78 80 83 85 99 97 100 110 108 120 124 136 134 139 141 141 141 140 142 134 122 115 108 106 105 102 108 103 103 103 98 96 94 92 88 86 84 82 74 80 82 55 39 15 86 114 85 71 81 73 74 79 81 72 80 77 80 80 77 80 79 78 81 78 83 77 82 83 81 92 90 94 120 132 134 133 148 135 115 100 101 101 93 91 85 87 88 90 77 71 72 76 76 86 86 96 103 105 106 114 116 126 134 139 143 143 148 142 144 142 146 134 122 113 108 106 104 103 104 103 100 105 97 92 91 97 88 86 83 82 75 76 90 48 27 22 101 112 96 86 79 79 75 76 78 76 80 74 80 78 78 78 78 80 83 80 81 87 76 86 86 83 88 87 104 130 138 130 144 138 132 114 103 99 104 90 92 94 93 95 90 82 86 85 89 87 97 99 108 109 113 122 128 135 137 143 147 147 144 141 146 144 140 129 116 110 103 109 103 100 103 100 102 96 96 91 96 100 104 91 89 83 79 82 85 50 17 38 122 110 106 100 90 80 81 80 77 78 75 80 78 82 75 79 78 83 84 77 83 85 78 85 83 83 84 89 90 117 136 130 137 144 143 130 116 110 102 95 99 101 103 96 104 94 97 94 96 97 99 108 114 118 124 136 138 142 145 150 149 142 143 144 142 136 131 124 111 109 107 101 103 104 97 99 93 94 88 96 100 107 104 97 93 85 77 87 91 52 7 64 140 106 110 114 99 83 75 80 76 69 82 74 82 75 84 75 83 83 78 81 79 78 85 78 84 80 80 86 90 99 126 132 131 147 146 141 131 129 116 114 115 117 114 112 110 106 111 111 111 112 116 118 129 131 142 138 147 145 156 153 150 141 145 144 143 135 124 119 111 105 105 100 105 96 98 92 89 87 91 101 101 109 108 97 96 82 84 90 94 41 5 95 148 105 111 125 115 95 75 76 77 75 78 76 80 75 86 77 81 74 82 84 80 78 84 84 80 83 82 83 92 90 112 127 132 143 146 144 138 136 131 134 133 132 125 120 121 122 124 127 126 129 133 133 142 142 146 150 152 158 157 154 145 144 140 141 141 131 120 112 107 102 100 98 99 94 94 84 87 90 96 103 105 110 104 100 91 93 82 96 97 32 11 130 145 105 122 129 132 106 85 71 75 75 81 74 78 75 80 78 81 76 80 83 81 80 81 82 85 81 83 81 82 95 97 120 131 141 149 147 149 146 147 155 150 156 145 142 145 139 145 142 139 146 143 147 141 147 150 151 157 160 159 147 148 142 134 139 131 120 112 105 103 102 96 93 98 86 88 86 90 94 101 102 108 104 104 101 94 91 89 99 95 14 41 146 137 107 123 131 135 118 103 80 74 76 78 77 77 78 80 78 79 77 81 82 84 78 83 81 82 83 82 84 77 103 122 108 120 133 153 152 153 158 159 166 173 173 175 174 173 167 165 157 154 157 157 157 153 149 154 155 163 163 151 149 138 135 133 126 120 110 103 98 99 97 89 88 86 85 87 94 91 97 102 109 110 104 103 106 100 93 97 99 81 17 101 147 132 107 123 139 143 129 106 75 77 76 77 78 77 78 76 82 79 75 82 79 86 81 80 80 82 81 86 77 78 117 152 139 110 126 148 149 153 160 157 162 174 177 175 178 180 177 168 169 164 161 158 158 158 154 157 158 157 153 144 140 133 126 126 114 109 107 99 94 93 89 87 81 84 83 91 93 99 98 106 106 109 110 102 107 101 97 100 95 51 42 130 148 131 110 124 139 144 134 103 73 82 71 78 76 78 74 80 77 81 76 82 77 83 82 81 80 84 85 80 68 103 151 185 187 108 109 135 148 151 151 149 147 159 163 166 165 175 173 168 165 162 165 159 158 158 160 161 154 145 148 139 130 120 116 114 103 99 95 91 86 83 81 84 76 87 84 94 97 100 101 107 107 109 109 107 105 102 103 102 83 26 88 154 138 129 113 124 138 143 134 112 77 78 75 78 79 76 76 79 80 75 82 80 75 83 80 77 80 84 86 76 65 132 188 198 205 113 93 120 144 148 143 145 142 150 152 153 155 162 167 164 163 163 165 155 155 155 158 156 148 140 137 125 121 110 113 101 94 86 90 83 83 77 75 81 80 88 91 94 103 100 102 109 109 112 111 109 104 108 104 105 58 35 135 154 134 129 117 127 140 146 132 117 78 76 77 75 81 79 75 77 77 81 78 85 76 85 82 81 82 82 89 69 70 172 207 202 208 130 76 104 134 140 141 136 140 144 143 145 146 151 151 152 152 154 154 153 152 143 145 146 135 133 127 114 108 107 102 91 80 82 79 76 82 73 78 84 84 94 95 98 101 101 106 108 112 113 113 110 112 111 103 96 38 78 159 145 133 126 124 136 143 140 134 115 80 76 78 74 78 78 78 78 80 75 82 81 81 82 81 78 83 84 87 64 94 204 206 200 208 148 70 85 114 128 136 128 128 133 134 135 140 138 140 140 141 138 141 136 140 133 135 128 126 114 112 101 99 101 86 77 80 75 79 73 81 76 86 88 94 95 102 100 101 103 109 109 115 108 114 113 115 110 103 74 42 130 159 138 133 126 138 140 144 138 132 115 76 78 79 76 79 78 76 82 80 74 80 78 82 77 84 81 85 83 92 63 131 210 200 200 207 156 87 55 101 113 121 122 119 124 125 129 128 133 131 133 133 121 127 125 124 125 124 121 113 106 97 96 89 90 77 77 77 74 74 77 83 86 91 93 98 100 103 106 103 107 110 114 112 114 116 115 114 112 91 53 79 163 152 135 135 138 146 149 149 141 130 117 72 81 74 73 77 78 78 78 79 78 79 81 76 81 76 91 95 101 128 126 172 211 194 197 208 172 109 46 60 102 107 106 105 109 115 118 122 120 114 117 113 109 112 112 110 107 107 100 100 90 87 89 83 76 79 73 78 73 77 86 86 94 96 97 101 102 104 108 110 108 111 114 113 112 115 120 116 103 76 47 136 164 140 144 136 146 159 157 152 147 128 119 73 77 76 76 77 76 78 75 81 77 78 82 70 81 99 138 156 164 178 173 185 207 191 195 204 182 117 68 34 86 98 92 95 97 105 102 106 105 98 98 97 92 97 93 93 90 92 92 88 83 85 84 74 75 78 76 78 81 80 94 93 103 101 102 108 103 104 107 109 109 114 111 113 112 120 117 119 91 60 90 163 147 143 151 143 154 162 160 158 148 131 124 73 78 77 76 76 77 79 78 78 77 79 81 85 121 194 205 202 196 192 190 193 204 190 194 202 191 134 90 43 66 86 87 82 88 84 91 88 93 76 85 75 80 79 75 75 82 78 86 83 79 79 77 74 74 79 78 83 93 91 98 97 107 103 107 111 108 112 110 112 113 112 113 115 119 117 117 110 68 81 147 154 144 151 156 148 164 169 166 160 148 130 130 72 77 79 76 78 78 75 81 73 81 87 98 152 201 207 205 205 201 199 200 196 200 188 189 200 192 153 99 56 55 76 81 86 81 75 80 80 77 75 72 75 76 68 77 73 79 82 78 74 76 71 78 71 76 83 78 86 97 97 105 103 105 109 109 110 111 110 112 111 112 114 112 119 115 117 112 87 68 130 163 143 150 159 157 157 169 173 165 159 144 131 141 76 74 79 78 78 76 78 75 81 101 143 184 204 206 208 205 205 203 202 205 200 194 186 188 194 197 166 110 68 56 78 76 84 89 89 81 81 76 77 75 76 71 78 72 81 75 79 77 72 77 77 79 80 78 88 85 100 94 105 102 107 106 108 110 114 110 115 108 113 112 110 115 113 117 114 96 67 104 161 152 146 156 161 165 162 169 173 165 157 143 139 148 76 75 78 79 75 76 80 86 137 190 207 207 203 206 208 206 205 203 204 206 199 191 187 185 189 193 184 123 86 53 75 73 82 85 93 88 88 84 78 82 75 84 78 81 82 73 79 72 74 81 76 82 76 86 88 89 98 101 102 101 107 108 107 107 112 111 113 105 114 114 117 114 116 112 103 67 93 147 157 146 156 164 166 168 170 170 173 162 152 137 146 151 77 76 74 78 77 76 96 154 207 206 206 205 207 209 208 206 206 204 205 208 198 191 185 185 185 190 192 138 106 57 66 76 85 85 92 82 90 89 85 83 84 81 84 76 79 79 78 76 77 80 81 82 76 84 87 94 95 101 103 99 104 110 108 107 116 113 112 107 112 114 116 112 115 103 84 76 131 161 147 152 160 169 169 170 170 169 168 159 146 147 152 159 