P2
92
112
255
95 89 89 90 91 99 110 96 87 90 98 95 93 88 88 109 133 135 137 139 138 144 137 127 126 129 143 138 127 108 102 102 78 76 90 93 84 82 70 62 65 47 49 45 67 63 77 54 44 58 51 52 51 51 48 47 49 57 63 76 68 63 69 104 115 114 117 111 113 101 113 111 104 100 110 118 122 120 125 124 122 115 120 125 127 118 94 96 90 103 112 91 95 95 93 88 91 104 98 88 92 100 95 89 81 94 106 120 119 128 131 139 140 140 137 147 152 154 151 148 136 118 104 100 89 88 83 89 90 79 75 67 66 52 51 68 80 72 77 55 40 53 56 50 45 45 42 45 55 56 63 80 86 67 56 73 87 106 112 115 114 111 99 98 108 105 108 105 109 112 117 124 122 123 118 112 121 124 108 100 87 89 107 111 91 95 94 102 108 96 84 84 101 100 92 87 90 99 104 103 114 127 131 134 138 126 131 139 143 142 144 144 128 121 106 98 86 93 85 89 93 78 75 70 64 48 66 79 96 82 67 66 53 56 52 49 42 43 61 61 65 63 70 69 83 91 80 81 69 80 92 113 105 113 118 116 100 94 92 100 101 98 105 111 113 111 117 123 111 118 115 110 100 80 99 100 94 93 91 101 108 87 83 93 101 96 92 94 94 92 97 105 117 118 123 128 129 131 135 134 141 139 143 142 124 109 97 95 86 94 82 90 94 80 81 75 67 65 82 83 90 78 54 71 65 58 47 51 49 65 64 63 61 61 61 65 69 79 79 89 85 83 88 95 105 102 105 116 120 112 93 85 88 90 95 97 108 113 107 103 106 112 116 111 105 94 90 88 91 91 90 106 95 81 93 94 93 91 90 93 96 101 105 111 115 118 117 123 122 122 126 129 137 140 138 135 124 112 103 99 90 96 89 87 93 85 84 77 67 74 86 91 91 73 59 66 74 62 50 61 77 69 66 59 59 60 60 58 56 65 76 96 93 95 99 105 101 102 100 117 112 106 103 94 91 82 84 81 83 104 114 109 107 107 113 113 112 97 103 91 87 83 94 100 89 88 90 90 86 85 86 92 94 96 103 112 119 110 110 113 119 121 127 135 141 128 122 119 116 97 94 91 87 97 100 88 84 94 83 80 79 82 88 95 90 72 71 76 73 59 66 82 77 69 63 68 59 61 57 55 53 66 70 79 78 69 75 82 89 94 107 116 116 101 94 90 91 89 86 82 82 73 94 102 109 110 106 109 114 117 97 99 92 86 100 91 93 91 89 88 88 85 87 86 91 96 104 107 113 112 112 115 118 120 125 123 124 114 104 96 98 95 97 91 80 90 104 96 85 94 93 78 89 85 91 99 90 77 82 77 69 71 83 85 77 69 71 68 66 63 59 58 67 67 63 56 69 67 69 71 64 57 64 77 98 110 109 105 88 87 88 81 77 84 73 83 89 105 105 108 104 113 112 92 86 95 105 94 97 93 85 81 93 91 84 91 91 93 103 108 108 103 102 110 103 126 132 127 112 105 97 99 96 99 93 105 95 91 103 101 95 90 98 90 93 83 92 98 92 83 83 78 67 80 88 81 85 83 76 78 80 82 75 78 71 66 69 74 76 72 73 69 60 50 50 52 54 56 84 86 94 92 83 84 78 76 74 74 77 87 95 106 109 93 123 107 91 93 105 100 94 91 87 88 89 90 91 86 88 99 109 94 88 94 88 100 122 132 130 124 110 112 105 107 102 103 106 112 108 106 110 109 108 100 95 101 104 97 91 99 93 97 88 82 76 88 89 82 89 94 95 96 101 96 90 88 79 73 81 91 71 51 72 75 83 76 66 58 53 44 36 52 47 60 70 80 83 81 70 66 84 78 82 96 110 101 92 123 90 98 104 90 89 88 87 92 85 86 83 83 95 104 84 86 88 80 91 113 130 125 124 120 112 111 111 116 113 108 112 116 119 118 115 116 113 114 107 99 118 107 101 103 103 101 98 90 87 97 90 89 95 98 116 120 115 105 96 85 84 86 82 68 71 64 88 90 86 80 56 42 46 44 35 48 34 31 37 52 58 71 70 72 68 86 87 88 98 115 97 90 87 100 99 90 93 92 89 90 89 80 76 92 95 77 79 83 77 86 101 115 123 127 120 112 116 118 109 110 110 113 113 115 121 121 129 125 119 125 130 115 119 124 116 112 115 113 109 102 95 101 99 92 101 104 124 127 120 106 95 88 87 84 84 77 76 79 97 82 70 93 73 63 61 58 57 63 45 38 35 39 31 46 60 68 70 74 90 95 88 104 116 93 97 91 91 95 89 89 87 94 87 76 92 92 73 72 75 75 77 86 106 115 119 120 111 115 113 114 108 104 107 112 113 120 126 134 136 134 127 133 141 139 134 133 133 127 126 125 128 111 106 105 119 101 106 113 125 128 118 109 99 87 86 80 79 83 75 90 87 76 69 84 94 80 68 68 62 56 51 42 40 43 37 28 29 52 74 68 69 87 95 94 107 120 89 92 88 85 82 87 93 93 89 91 95 80 77 73 72 77 78 89 101 114 115 108 111 117 111 108 106 117 126 131 133 134 144 147 149 146 141 147 152 155 151 144 140 142 141 137 143 133 113 119 127 113 116 124 131 134 110 99 91 83 76 71 72 85 84 81 79 70 79 82 77 69 67 69 65 62 55 49 49 44 48 42 31 18 64 66 67 79 91 96 99 119 88 82 91 83 78 85 94 90 94 96 77 75 80 74 73 78 79 90 96 106 113 110 112 116 105 111 124 130 135 144 151 153 155 161 163 164 152 153 164 171 171 161 153 160 164 160 155 158 136 139 135 130 139 139 143 144 123 107 99 89 74 72 75 87 80 79 82 84 87 82 72 82 85 80 67 61 54 53 58 45 39 49 58 29 28 66 53 76 87 94 101 117 91 85 92 86 86 90 93 91 99 90 69 78 81 73 76 74 82 88 90 96 111 112 110 111 112 121 130 142 145 153 163 163 169 172 173 169 172 166 175 184 187 183 176 175 175 176 172 168 171 154 151 148 159 155 147 156 143 121 105 95 84 79 88 85 76 72 76 73 73 76 77 86 72 62 64 80 74 70 73 68 58 36 50 66 28 49 70 54 79 92 99 102 91 97 102 84 86 89 93 94 87 73 72 81 78 74 69 75 87 89 87 89 104 119 111 114 118 125 141 149 157 168 170 168 174 176 179 173 176 185 188 186 193 191 187 186 187 183 182 181 187 181 170 172 178 175 164 170 162 132 119 98 86 87 84 78 68 65 62 56 59 68 71 65 67 61 71 88 86 76 71 73 74 55 49 55 66 45 83 55 52 86 96 102 90 92 98 83 87 88 89 89 79 78 74 78 76 74 70 77 82 85 83 84 110 116 116 122 125 131 147 158 166 173 177 176 173 178 181 180 186 191 195 192 195 193 195 193 191 193 189 188 191 189 187 189 188 185 177 174 175 154 134 124 99 91 93 90 76 67 64 60 64 62 72 69 83 91 85 94 85 72 68 62 61 62 60 55 58 64 73 83 51 70 89 113 97 86 94 90 94 82 84 83 86 76 75 76 80 69 68 78 86 76 76 91 107 112 115 125 134 136 150 161 169 179 176 182 182 183 181 187 192 194 197 196 200 197 200 198 193 195 194 195 194 191 193 194 195 192 191 185 183 173 164 145 131 110 90 87 84 82 79 76 75 85 87 94 95 91 81 93 87 74 72 70 58 48 71 73 49 71 73 79 86 44 84 101 94 93 91 93 90 82 85 86 82 81 77 82 75 66 78 84 77 79 72 91 102 109 112 126 131 138 153 168 174 177 179 183 185 187 186 190 194 197 198 199 201 198 198 200 197 197 196 197 198 193 197 195 196 194 196 193 190 187 184 155 137 130 110 90 84 85 86 78 82 89 97 97 104 101 90 92 86 67 69 59 53 49 65 64 65 58 80 75 88 50 71 90 93 98 89 80 81 89 81 83 85 76 79 74 65 68 80 77 76 74 76 88 102 107 112 124 133 138 161 174 172 177 183 186 184 187 188 189 193 197 196 197 200 199 200 200 199 198 196 197 194 194 198 199 199 195 194 194 197 195 191 179 139 125 122 111 100 100 93 91 96 95 99 104 98 91 79 72 70 73 70 64 51 46 44 51 71 61 63 87 81 78 60 94 87 93 79 74 93 84 81 87 86 86 72 66 67 74 77 73 75 74 78 90 92 104 108 130 135 140 164 170 172 180 179 183 182 183 187 188 192 198 195 197 201 199 200 198 201 198 197 197 197 195 199 198 196 196 199 196 196 197 195 189 160 133 123 120 116 112 103 99 102 102 103 101 97 94 90 85 81 80 84 65 56 48 40 37 65 80 66 71 81 85 68 81 91 81 83 92 88 85 91 97 92 81 74 67 75 78 68 70 75 80 76 91 97 110 109 136 137 141 163 167 175 184 182 178 184 185 188 193 192 198 199 201 197 198 200 199 200 199 200 199 198 197 198 200 197 197 198 200 198 196 200 193 179 159 142 128 122 125 121 116 112 110 106 111 107 103 101 98 91 93 85 80 77 65 45 33 57 64 89 58 74 86 77 67 79 82 90 85 84 87 94 92 79 68 66 75 73 73 73 74 83 81 77 95 103 108 119 144 143 149 167 174 181 184 181 178 186 186 183 191 191 195 196 197 196 199 198 199 200 201 200 199 200 198 199 200 199 200 197 201 198 198 198 194 191 176 163 152 138 136 132 130 122 118 114 118 116 111 108 112 108 107 107 103 104 91 68 57 42 46 72 77 62 88 81 69 77 97 91 96 95 97 89 84 80 74 74 76 70 61 79 87 88 83 83 100 109 116 125 150 152 161 170 176 179 182 181 180 184 187 185 190 193 195 194 194 197 197 199 201 201 200 201 201 200 199 199 199 200 200 200 200 201 195 198 194 190 185 170 164 160 152 146 139 133 135 131 132 133 132 130 140 133 133 133 126 121 110 95 78 50 36 54 78 75 77 88 79 104 108 106 103 97 89 84 85 93 93 85 80 79 82 81 91 88 91 95 102 121 126 135 153 163 164 172 172 178 181 183 184 185 189 188 190 194 196 195 191 195 199 199 198 201 200 201 201 201 199 201 200 199 202 200 199 200 195 198 196 194 192 181 175 176 171 162 158 150 152 156 155 152 155 154 157 152 149 146 136 130 123 109 92 63 51 52 62 81 88 88 81 117 111 107 100 103 81 83 88 78 83 79 75 85 89 90 93 91 98 104 116 130 139 152 155 170 172 172 175 177 182 182 187 186 184 191 190 192 196 196 193 194 195 199 198 199 200 202 200 200 199 201 201 200 202 200 200 196 195 197 196 194 192 193 185 185 185 179 175 174 171 171 173 174 174 170 164 162 158 155 147 137 131 117 106 73 63 67 59 86 82 90 78 113 118 115 113 113 108 96 94 91 86 85 82 89 101 100 100 107 113 111 127 137 151 160 165 172 169 177 176 177 178 185 181 184 188 188 187 189 194 193 194 196 194 199 198 200 198 199 199 201 199 201 202 202 200 201 199 197 195 196 197 193 192 194 192 185 190 186 185 184 185 184 184 181 175 175 169 168 163 161 157 151 136 130 111 89 79 66 55 87 75 92 75 98 97 99 81 92 100 89 88 86 86 88 94 89 98 100 104 119 125 133 146 154 159 164 167 172 172 173 176 179 177 183 182 181 187 187 189 191 193 190 192 193 196 196 199 197 199 197 198 198 197 201 200 200 199 200 200 199 195 196 195 196 192 197 192 189 188 190 190 187 189 189 185 182 178 174 172 166 165 160 157 153 143 132 120 96 101 55 47 87 77 92 77 73 81 83 86 80 96 103 104 100 91 89 90 92 107 108 123 136 147 148 158 161 166 167 171 174 173 176 177 177 182 182 182 182 184 187 187 191 194 193 191 193 194 193 195 198 199 197 200 198 197 199 199 200 198 198 199 200 197 193 194 192 195 196 192 191 193 189 190 188 191 189 183 183 179 173 174 166 167 158 161 155 142 136 124 103 97 59 56 83 87 88 77 74 72 54 65 54 71 85 90 93 90 99 104 107 110 120 133 150 151 157 162 162 170 172 173 174 177 181 182 183 184 183 185 182 185 189 186 191 193 194 194 193 194 196 196 198 197 199 200 199 197 198 200 197 199 198 197 198 194 192 192 193 193 194 192 191 191 190 191 188 192 186 183 184 179 172 172 165 162 162 154 151 144 139 122 112 94 72 79 84 93 84 79 67 57 56 47 61 66 67 75 82 82 82 98 103 122 129 142 154 160 162 160 167 168 176 178 177 178 183 184 186 186 186 186 185 185 189 190 191 192 192 193 193 193 194 194 198 196 199 198 198 198 196 198 194 196 199 200 196 194 196 193 193 194 192 190 189 192 190 188 187 187 184 182 180 182 174 166 165 165 160 158 145 147 138 122 113 96 85 88 81 88 77 75 53 50 50 52 48 67 63 65 66 60 64 93 115 120 131 145 153 159 160 159 168 174 175 181 178 178 181 184 184 188 188 184 187 188 190 189 195 195 193 197 195 192 193 194 198 197 197 197 200 196 198 198 195 195 198 197 196 193 194 193 194 197 193 191 189 190 193 186 185 187 182 182 180 178 170 163 161 166 159 154 148 147 136 124 109 97 81 81 82 79 78 64 54 51 46 54 51 47 50 61 55 52 77 104 119 131 141 150 157 157 157 160 173 176 178 181 181 179 182 182 185 190 185 186 186 190 189 192 193 194 193 195 194 195 193 197 197 197 197 199 196 196 194 197 193 194 195 194 191 190 191 192 193 194 193 192 188 189 191 186 180 181 181 180 178 177 172 166 162 165 159 150 149 144 134 125 113 95 77 79 77 77 72 64 69 70 68 55 48 41 57 62 57 64 87 110 120 138 143 147 153 152 154 162 167 171 181 177 178 180 183 182 184 189 181 186 189 190 189 191 194 193 192 192 194 192 193 197 196 200 198 198 199 198 197 197 192 192 189 194 186 188 192 193 192 190 194 192 188 188 187 184 178 181 180 178 177 171 171 165 162 160 159 156 146 143 132 120 110 93 70 74 77 72 69 82 44 54 48 35 36 49 61 61 69 76 103 113 131 133 144 143 153 155 152 159 165 165 179 180 176 180 183 184 184 182 179 184 187 189 187 192 193 192 193 192 196 194 193 195 198 198 200 198 196 198 199 196 196 195 191 192 186 187 192 194 193 190 192 190 185 183 185 176 178 177 172 180 175 164 170 167 161 162 155 154 149 135 131 120 106 88 73 76 71 77 83 98 43 47 38 30 40 64 65 50 72 90 112 123 134 141 146 149 150 152 155 159 167 173 177 183 182 179 183 182 186 184 184 188 189 186 187 188 192 194 193 193 194 197 196 195 197 195 198 199 198 198 199 195 196 195 191 191 191 187 193 192 192 191 193 189 183 186 184 180 181 181 180 176 176 169 165 164 164 162 155 154 148 139 128 122 109 91 70 65 58 68 98 93 46 41 37 31 58 66 57 50 71 100 120 131 138 144 147 148 149 151 153 161 169 172 180 183 186 179 177 176 184 185 185 185 184 188 186 188 192 191 194 195 195 197 195 193 198 196 196 196 198 195 196 196 197 192 187 193 191 190 193 193 190 188 190 190 184 181 184 179 171 179 178 175 171 173 165 162 159 158 151 150 145 141 125 118 115 100 63 54 55 75 94 94 50 34 37 48 62 56 42 55 88 111 131 136 138 142 145 145 149 150 154 160 168 176 178 178 170 158 158 161 172 175 178 176 178 180 185 188 187 193 192 193 197 195 193 193 195 197 194 195 199 196 193 195 194 190 188 191 190 190 192 193 191 188 191 190 188 183 180 182 173 175 176 172 169 165 171 164 162 157 153 149 144 136 134 112 123 111 60 51 74 88 88 92 45 42 46 64 44 40 47 60 109 128 136 140 139 142 140 148 148 143 143 151 157 162 154 146 143 134 137 137 149 150 155 161 166 170 178 184 187 186 190 191 194 195 192 192 190 191 195 194 194 192 189 192 189 187 187 192 190 191 193 192 191 188 189 189 187 184 176 178 173 174 179 173 168 168 164 166 162 158 154 148 143 138 137 118 126 121 81 48 71 71 76 78 49 41 55 53 39 40 50 78 119 137 142 143 137 147 143 146 143 138 135 125 125 125 138 128 121 127 123 125 130 131 135 143 151 163 173 177 182 186 190 188 193 192 188 191 191 188 190 192 193 189 188 188 188 186 190 190 188 189 192 191 188 188 189 188 185 180 176 173 173 175 173 173 169 169 165 162 162 159 154 146 140 139 133 131 120 120 107 56 43 61 92 89 66 43 48 46 33 42 65 99 128 142 148 142 139 139 143 142 136 125 122 120 120 119 122 135 139 137 145 139 128 120 109 109 118 135 144 150 158 179 184 186 191 191 190 188 189 188 185 187 190 188 189 186 187 184 186 189 185 191 190 190 187 186 186 185 184 181 173 173 172 173 171 170 168 164 165 158 161 156 153 148 145 134 135 140 121 116 114 54 41 84 105 113 75 53 50 44 45 41 79 116 132 141 145 147 141 141 141 143 137 129 132 141 147 152 158 165 166 168 172 173 160 153 134 119 112 107 110 120 121 146 163 165 179 188 184 186 188 184 185 188 186 185 182 185 185 182 188 189 185 188 184 186 184 181 187 184 180 178 171 173 173 172 171 173 170 166 164 161 163 157 149 147 144 135 133 144 124 120 99 79 77 91 92 89 87 64 64 51 45 46 97 124 138 139 142 139 147 130 130 134 133 145 154 165 168 173 177 178 177 179 181 174 177 175 172 156 149 145 120 111 106 111 117 124 134 152 176 185 184 183 183 186 184 179 179 183 180 179 184 185 186 185 181 183 179 181 183 179 179 173 172 173 172 170 169 170 173 167 165 160 167 159 152 147 142 138 139 138 128 109 93 89 83 75 66 50 90 78 65 51 44 64 113 138 137 141 143 144 142 135 123 128 124 139 158 160 162 169 171 174 173 172 172 170 171 166 169 160 153 151 143 128 111 115 104 99 109 108 136 163 182 178 180 182 180 179 178 179 179 182 180 185 180 181 182 181 178 181 183 177 172 174 169 167 170 172 169 162 166 169 160 162 157 157 150 144 137 136 136 136 120 103 103 103 72 41 47 59 87 76 63 58 56 76 122 137 143 144 142 145 142 137 124 136 137 135 150 150 154 155 160 161 156 156 151 152 149 149 148 144 141 143 140 134 123 119 114 94 98 100 111 128 153 177 178 177 176 174 175 178 176 180 180 184 181 177 179 182 177 177 179 173 172 168 170 167 167 171 166 165 163 166 163 161 155 144 145 145 138 133 134 132 123 110 108 85 41 32 51 79 81 74 68 68 60 94 127 136 142 143 146 143 142 138 125 131 135 134 136 136 136 141 137 133 127 121 114 115 118 123 128 128 128 128 125 128 127 127 115 102 91 89 95 105 132 165 170 170 172 169 171 174 177 177 175 179 178 173 177 177 175 179 173 174 169 162 168 164 168 166 165 162 161 165 156 151 151 138 129 138 138 127 126 131 121 106 89 76 31 19 64 87 81 86 70 77 72 109 130 134 139 146 146 146 146 138 133 133 128 127 124 123 120 112 109 99 86 87 72 88 80 97 93 96 96 102 116 125 122 120 123 111 95 91 98 90 114 151 162 165 169 162 170 170 174 172 171 176 174 169 173 171 170 171 169 165 163 167 162 159 160 157 153 154 155 156 146 134 127 124 116 110 113 110 119 123 118 95 87 64 25 28 64 88 89 93 78 89 85 116 127 131 139 149 151 146 145 145 138 137 129 128 118 109 111 85 75 80 77 82 63 76 73 80 90 103 77 74 80 101 124 118 121 111 104 99 104 106 113 145 152 156 164 166 162 168 169 169 166 167 165 164 165 163 164 168 165 157 159 164 160 145 136 137 132 126 132 135 123 116 105 96 100 88 91 101 106 109 102 96 80 61 24 45 77 73 99 95 88 89 100 123 128 126 143 146 155 154 151 147 144 133 133 128 117 98 92 83 69 59 55 56 47 46 54 45 56 71 52 82 92 74 97 121 125 122 113 107 109 115 119 138 146 152 156 160 160 166 163 167 160 163 159 159 153 155 160 155 159 152 152 150 139 117 106 107 92 94 100 97 98 94 92 83 90 93 90 90 83 87 82 73 70 55 35 59 73 63 106 103 90 96 113 126 126 129 140 146 155 156 156 154 149 141 125 118 108 96 78 69 47 37 56 72 59 51 69 64 57 55 37 52 77 106 85 96 128 128 129 119 112 109 122 128 137 150 154 155 162 162 162 158 159 156 153 151 152 151 152 146 148 141 138 126 97 89 79 71 77 78 73 76 86 99 102 112 121 127 119 110 93 83 78 61 66 48 36 53 62 57 114 106 94 105 119 127 128 125 140 145 156 159 159 163 160 157 133 116 107 98 71 56 46 55 109 106 80 85 34 122 135 73 62 70 58 78 111 92 103 134 136 132 126 117 114 128 130 142 150 162 163 166 160 161 158 156 156 152 153 147 147 139 136 126 121 100 81 70 63 59 67 74 85 93 97 109 129 135 134 136 135 131 123 110 93 63 67 53 27 53 61 60 120 98 93 111 117 131 129 129 137 147 159 160 165 174 179 174 162 146 131 109 77 90 87 100 144 118 93 87 27 31 99 85 79 112 113 53 77 130 92 115 138 145 133 126 125 126 136 143 155 165 170 173 170 166 161 160 159 156 150 139 135 127 123 115 103 80 71 64 60 65 79 87 97 105 108 114 126 129 134 132 140 129 128 120 109 77 79 49 14 59 60 85 120 96 96 109 118 127 129 131 140 147 158 161 167 174 182 181 175 170 162 153 120 72 105 121 149 131 86 100 73 33 54 95 85 137 159 96 59 119 122 91 128 145 139 134 129 125 135 151 162 165 178 182 180 176 168 169 160 155 144 136 126 116 103 102 91 76 70 61 64 64 72 74 78 86 93 105 108 115 119 128 128 128 124 118 102 83 82 42 6 51 80 82 122 101 93 113 120 122 130 129 137 149 159 161 169 174 179 181 180 179 178 174 149 97 80 106 131 151 108 96 105 98 98 90 114 166 170 147 100 73 119 121 104 131 140 142 138 129 137 157 172 179 180 190 187 184 178 172 164 150 140 128 111 104 95 90 87 77 68 57 81 100 88 95 95 73 74 81 69 87 101 109 116 115 116 114 99 91 85 39 21 60 83 79 124 101 94 112 120 121 130 132 136 150 158 161 162 173 178 183 183 183 183 179 165 128 104 100 115 139 141 111 94 110 101 115 154 169 170 156 132 90 92 127 129 120 139 146 148 136 138 163 178 182 188 193 193 187 182 178 162 149 135 114 103 98 91 82 87 92 80 51 71 82 58 61 62 55 91 104 81 55 61 95 104 108 108 101 95 91 93 30 33 75 75 72 131 108 92 109 125 123 129 132 143 154 159 163 167 171 179 183 188 188 185 187 176 159 140 138 138 135 131 136 141 137 133 134 141 145 139 144 126 127 134 95 140 152 140 152 161 153 151 167 183 186 192 197 200 193 185 181 157 145 125 111 99 97 91 104 108 85 55 41 46 57 32 51 35 32 47 53 68 82 60 57 86 95 94 90 89 101 95 36 51 72 69 54 133 111 89 108 121 125 127 131 143 155 162 158 170 173 178 183 188 188 186 186 181 167 162 155 157 153 140 139 133 136 134 129 118 137 132 144 145 148 158 142 137 168 157 159 173 167 165 172 187 191 193 199 201 196 189 178 156 136 122 107 101 107 123 97 92 82 65 81 33 124 82 40 55 47 58 29 34 52 76 55 76 86 89 81 90 106 95 43 53 59 56 44 126 118 92 103 122 123 130 137 146 157 162 160 170 171 180 185 188 191 189 184 179 167 169 164 157 148 156 150 138 152 149 159 129 139 140 143 146 164 174 175 168 167 169 172 180 178 176 183 186 195 195 199 201 196 191 172 152 126 125 109 121 125 114 88 105 139 76 98 35 54 118 30 66 65 111 76 17 27 30 62 63 80 84 89 95 108 95 40 48 54 45 45 124 124 97 97 117 125 132 135 147 161 162 158 168 175 179 183 187 190 192 187 188 182 173 160 156 153 160 155 146 157 162 166 149 153 157 161 164 168 167 172 176 176 177 183 187 183 181 184 188 193 197 201 199 195 187 171 148 125 123 121 139 93 118 138 122 164 86 97 66 27 31 62 73 75 132 114 43 27 21 43 61 72 81 100 105 111 89 36 34 67 41 39 127 126 103 97 117 123 128 137 150 160 159 161 163 174 181 182 184 189 191 192 192 196 190 183 172 167 169 162 159 160 164 173 168 167 169 171 170 176 176 185 184 184 184 191 190 185 185 185 190 193 197 200 200 191 184 167 144 132 126 131 137 108 107 161 118 142 122 84 97 75 66 79 75 109 138 117 79 41 24 39 52 74 99 112 112 117 79 37 33 61 51 39 142 124 104 100 121 123 129 140 151 158 163 161 165 172 181 179 184 187 188 197 195 195 194 194 188 190 186 184 177 180 178 181 179 174 172 176 177 190 187 192 191 188 187 189 189 187 186 185 192 194 195 199 196 190 181 164 145 127 136 134 153 153 152 151 131 131 115 107 107 85 72 86 109 135 131 114 96 65 40 54 67 90 113 126 119 116 78 33 47 56 52 52 166 119 105 104 121 124 127 140 151 159 161 164 169 173 179 181 185 188 193 194 198 195 195 195 195 195 197 190 187 185 183 185 185 185 186 188 192 194 191 190 194 193 186 188 185 187 186 184 192 196 197 197 193 190 176 165 141 131 141 138 147 158 155 149 143 130 118 113 119 105 97 103 125 119 104 96 78 60 61 91 101 94 115 129 127 112 72 49 57 58 59 59 158 116 103 112 117 120 128 139 153 161 162 166 173 177 178 179 184 188 194 198 198 196 196 195 196 198 198 195 193 192 189 193 191 195 197 195 196 192 190 189 193 193 185 185 187 186 183 185 191 195 196 194 190 188 181 159 143 138 139 143 153 153 151 154 143 130 123 118 123 104 108 92 105 104 88 77 82 63 84 114 114 124 128 135 128 102 73 68 60 62 68 73 112 90 107 115 117 118 133 140 152 161 160 165 172 176 177 181 185 187 192 193 200 198 199 197 198 197 197 195 194 199 198 195 196 196 200 196 196 192 188 189 193 193 183 181 190 186 181 185 189 196 193 191 190 186 177 158 144 141 140 147 154 161 157 146 148 144 132 126 128 125 124 116 114 112 111 101 105 97 98 137 129 118 135 139 124 98 87 74 69 68 84 77 49 36 110 116 115 124 133 140 148 159 160 164 168 172 173 182 187 186 192 191 200 195 200 200 200 196 198 197 197 198 201 195 198 198 196 197 195 194 189 192 193 193 184 182 186 185 182 180 188 198 191 193 190 186 177 151 146 138 145 148 154 164 166 156 153 157 142 139 128 132 129 135 125 121 127 119 118 124 122 139 142 128 129 132 122 93 83 80 71 80 94 94 66 8 96 120 116 122 130 140 140 152 158 166 171 166 171 181 181 182 186 190 193 199 199 200 200 198 198 200 199 196 199 198 196 195 197 194 195 195 192 191 193 192 185 184 185 180 184 179 189 197 192 190 192 188 176 148 140 143 144 145 158 165 163 170 164 159 155 146 141 134 130 132 130 127 129 127 125 133 136 147 150 135 126 125 117 91 85 86 80 86 100 99 101 4 85 123 121 120 134 136 141 147 156 164 167 170 174 182 180 183 186 187 190 195 198 198 199 197 199 198 197 198 198 195 197 196 195 194 195 193 190 194 193 189 186 180 183 182 183 182 186 193 192 190 191 188 167 150 141 141 143 145 154 167 167 168 167 168 161 155 149 146 143 133 131 126 130 130 132 141 146 153 150 136 125 120 110 94 99 87 84 99 109 109 49 5 86 123 115 124 129 133 141 148 156 165 163 169 171 178 181 181 190 185 186 193 195 195 195 197 198 194 196 195 195 193 194 197 192 193 191 190 189 188 187 185 181 177 184 180 180 182 187 191 187 188 187 186 175 150 138 146 144 150 158 167 167 170 171 178 172 169 162 161 153 154 148 145 147 148 149 152 152 154 148 128 120 121 101 99 112 81 95 108 113 126 22 0 82 124 120 120 126 133 144 149 153 161 163 163 166 174 178 178 181 186 187 187 189 194 190 193 195 192 190 192 194 188 191 194 190 186 189 183 179 175 176 178 173 176 180 183 177 183 189 189 188 187 185 183 179 156 137 142 154 156 162 163 170 168 174 171 179 177 171 176 172 166 164 158 158 164 165 162 157 156 145 131 118 118 100 112 109 82 110 111 122 118 28 5 77 125 120 118 124 130 139 144 153 155 162 166 167 170 177 179 180 180 183 184 186 192 189 188 195 187 191 190 190 187 187 190 183 179 179 176 175 170 178 183 175 171 177 181 176 181 190 192 188 188 187 185 179 161 132 139 153 158 162 165 166 166 171 172 172 179 177 180 175 171 169 170 168 167 164 164 155 152 144 131 120 114 102 123 96 88 119 116 126 115 34 10 86 122 118 118 122 127 136 145 150 148 159 160 163 167 169 178 181 181 178 180 181 185 187 182 188 187 185 187 185 180 183 178 174 169 168 172 176 177 184 190 180 171 174 179 177 183 193 194 187 189 189 187 184 160 133 134 146 149 150 163 163 165 168 169 171 174 180 179 177 173 168 166 166 164 159 161 154 145 138 126 122 109 107 128 74 92 128 123 124 107 46 19 89 126 115 109 123 123 138 143 147 151 152 160 159 165 172 170 176 179 179 174 180 181 182 182 179 181 179 182 176 176 173 174 165 155 163 169 175 184 183 189 183 176 170 177 177 184 194 197 192 188 190 187 183 161 135 136 148 138 139 151 161 167 167 167 172 174 174 178 178 177 173 171 155 165 150 156 151 141 132 133 119 106 112 119 50 101 138 124 120 103 53 43 94 125 116 111 117 124 129 139 142 145 153 156 162 161 164 169 169 170 170 167 175 175 177 175 178 174 175 172 166 165 169 166 159 144 154 172 179 185 185 186 187 183 174 172 176 177 189 199 195 191 191 190 180 165 136 147 156 153 128 129 153 162 169 164 169 171 175 174 178 174 171 171 155 153 148 149 153 142 131 119 123 107 116 72 47 118 142 121 107 96 54 51 104 122 115 113 114 118 127 134 136 144 147 153 154 159 161 164 169 165 162 164 171 174 175 171 173 170 167 166 164 156 160 159 153 134 144 173 175 179 187 188 186 183 179 173 172 178 186 190 199 196 190 189 179 163 134 145 163 162 141 126 139 155 166 162 167 169 171 170 172 171 165 167 158 149 146 148 144 139 132 117 114 115 99 29 67 120 134 116 93 105 52 60 105 124 119 109 113 116 119 126 129 142 138 146 146 154 157 158 160 158 155 162 164 167 164 167 163 165 157 162 156 151 149 158 158 125 128 155 165 173 183 189 179 177 174 171 171 179 184 185 200 200 188 179 173 158 134 136 162 169 151 122 129 152 158 159 163 167 170 169 168 167 165 160 157 151 147 142 135 136 131 116 113 80 107 49 59 120 129 108 90 110 66 62 105 122 120 109 109 116 120 117 123 131 138 140 148 152 153 151 154 152 149 158 155 160 159 159 160 160 150 155 152 146 154 159 171 147 116 136 151 159 169 177 177 168 166 163 161 170 175 181 188 191 182 170 162 154 135 131 158 168 153 123 120 146 156 153 157 162 166 161 162 163 164 158 154 151 146 135 135 129 129 119 137 56 112 167 39 110 122 103 91 120 82 55 102 123 118 112 107 107 111 116 115 124 125 138 136 141 137 142 143 145 145 150 149 151 150 152 151 147 148 146 147 153 160 165 170 169 130 97 116 123 124 137 145 147 151 141 141 148 159 165 173 174 165 154 148 137 130 130 152 161 147 122 121 142 147 152 150 152 153 159 155 154 155 156 153 147 141 134 126 129 117 117 106 82 34 104 79 102 124 92 105 113 89 68 93 121 125 112 109 110 112 114 112 116 120 126 128 135 132 136 138 142 141 143 144 144 145 143 143 138 137 142 143 160 167 170 165 170 158 98 80 78 74 73 87 104 117 126 136 135 143 151 158 163 147 140 132 123 123 125 142 143 133 121 126 140 134 146 144 146 147 150 153 149 152 157 143 146 135 134 123 121 119 113 111 70 29 59 85 104 120 94 105 112 115 76 78 122 118 118 111 110 110 111 114 110 115 111 117 126 126 127 131 129 129 137 137 135 136 130 132 126 131 139 155 171 173 175 171 168 172 158 120 101 90 83 71 64 58 103 120 128 127 134 138 139 133 124 117 103 103 114 119 115 113 126 129 138 134 142 142 147 141 144 146 142 143 148 135 134 135 123 122 115 116 104 99 37 24 52 87 106 120 93 93 105 112 48 74 122 113 118 117 110 110 114 114 114 115 113 112 122 122 125 126 123 127 125 126 128 127 115 123 126 133 153 163 171 173 177 169 171 172 178 159 144 135 128 112 105 62 60 103 115 115 123 120 120 119 110 97 72 70 71 85 90 112 130 135 134 140 142 140 144 144 137 140 138 135 134 128 130 129 117 109 115 113 105 80 28 31 51 79 102 116 97 83 100 78 32 67 121 117 119 120 117 112 116 115 116 115 118 117 118 120 117 119 114 116 118 123 120 118 130 133 141 150 167 174 171 174 181 171 173 174 176 173 161 154 145 141 132 116 65 69 90 89 97 105 105 99 81 63 56 55 60 75 97 121 135 132 131 128 142 137 142 136 133 133 133 130 127 122 124 121 115 108 108 107 95 82 30 25 50 73 93 112 104 71 97 56 29 59 115 114 116 122 121 112 120 125 117 117 127 125 123 124 121 113 113 113 123 121 130 132 141 149 154 160 168 175 173 174 179 174 174 177 180 178 174 170 162 150 141 138 108 62 66 59 72 78 81 75 79 82 99 100 104 108 122 129 138 134 126 124 132 132 132 133 130 122 125 123 120 119 120 115 112 109 100 98 86 70 33 38 47 68 89 102 106 58 93 55 42 54 107 110 117 121 119 115 120 128 125 116 128 128 133 130 130 125 124 125 132 139 141 148 152 154 158 158 158 164 168 172 173 173 176 176 178 180 178 177 174 161 154 146 132 104 83 70 61 69 82 98 116 122 138 134 132 129 136 135 135 131 128 120 121 127 128 128 122 121 119 112 110 116 110 107 106 100 95 76 114 58 40 38 42 63 90 94 106 75 75 58 45 34 96 106 116 124 124 119 119 130 131 124 125 135 142 138 141 137 134 133 138 145 142 138 147 145 142 138 149 155 159 165 164 168 170 173 177 178 178 180 178 167 166 152 136 127 119 111 99 107 119 132 136 138 146 140 139 140 137 133 131 131 128 121 113 118 125 121 119 116 118 111 106 106 96 97 98 90 85 43 139 83 42 37 42 62 80 87 102 91 72 58 47 20 68 100 114 118 124 122 120 127 135 128 130 134 143 149 150 147 143 137 135 133 128 116 119 116 108 104 111 122 136 141 147 154 156 164 171 171 176 176 177 176 168 157 148 144 142 139 136 135 142 144 144 144 145 145 141 142 138 135 131 130 135 129 120 113 115 118 117 113 113 107 103 104 90 88 89 79 48 47 193 114 19 39 44 55 72 83 94 97 82 48 48 29 45 93 106 112 119 128 123 127 133 134 133 136 144 151 150 155 152 142 131 124 114 106 102 99 97 82 64 61 72 87 96 108 116 125 133 142 150 155 161 165 169 165 163 156 160 154 155 145 149 148 148 145 148 143 138 140 136 130 125 130 132 129 129 117 114 116 113 109 106 104 99 99 89 85 92 93 52 83 226 175 26 48 41 52 63 75 86 95 95 52 58 43 40 82 103 106 116 125 124 129 134 134 135 138 142 154 150 157 161 148 143 135 125 139 134 130 129 139 107 90 80 75 76 76 77 78 90 93 102 104 111 111 126 142 156 166 166 161 157 148 147 142 143 141 146 140 139 134 132 126 121 124 126 134 130 119 110 113 109 103 107 103 101 93 87 89 94 71 21 62 203 192 98 15 35 46 61 71 79 86 99 52 56 57 43 65 100 99 111 120 121 130 134 136 137 138 142 149 149 155 158 153 151 143 149 150 152 149 142 137 155 134 116 114 114 97 82 77 81 82 89 98 95 87 77 83 97 118 128 124 115 112 112 109 110 117 125 127 128 122 117 117 114 110 118 130 123 115 114 114 107 109 103 105 97 95 89 95 101 46 49 121 200 189 145 10 23 42 56 67 74 86 91 56 58 56 60 40 93 94 94 113 119 124 133 135 136 133 141 147 148 153 156 155 147 150 151 155 159 155 160 146 131 148 138 125 121 126 125 130 130 125 107 97 93 92 75 72 69 77 77 81 81 79 87 84 81 84 87 91 89 97 94 97 103 105 112 117 115 115 119 116 114 110 110 106 99 90 94 94 96 31 28 110 131 130 105 19 34 35 58 67 65 76 91 59 57 58 61 45 61 90 90 99 115 124 128 137 132 137 138 144 145 152 157 153 154 149 145 154 162 161 165 155 142 124 141 143 120 117 120 135 162 159 162 147 147 126 102 91 84 79 73 77 76 75 74 70 72 68 75 65 57 48 53 58 76 88 103 108 111 122 124 122 120 114 110 100 97 97 93 99 78 27 20 44 93 80 49 42 50 41 45 63 74 82 85 55 55 53 59 59 38 85 94 87 105 118 128 132 136 134 141 141 145 147 155 153 159 143 140 154 157 164 167 163 153 136 122 132 147 114 107 124 139 143 156 161 173 183 146 133 131 117 113 107 106 101 87 78 72 66 61 65 57 73 85 96 95 101 105 111 113 128 129 126 121 112 108 100 95 103 101 95 58 25 31 34 40 53 53 46 52 42 45 54 60 80 81 55 53 62 56 51 60 75 98 90 90 106 121 124 133 135 134 140 144 146 152 155 154 154 143 145 152 166 170 165 159 151 133 120 123 137 124 103 113 123 133 127 127 140 141 136 143 138 128 132 124 120 109 93 91 84 86 73 89 108 114 114 130 132 118 126 119 129 131 123 119 110 106 102 101 102 101 81 33 29 46 33 40 51 50 51 51 42 47 53 42 72 75 52 55 57 59 44 77 74 95 105 88 93 112 115 130 134 130 135 141 143 154 156 153 157 155 152 143 165 165 163 167 157 147 136 122 115 128 128 109 107 109 114 111 114 114 117 124 113 118 119 110 101 105 95 84 85 95 96 103 105 118 129 136 139 131 132 132 130 131 121 115 108 102 105 105 100 96 67 28 39 49 36 36 56 50 48 42 47 52 43 41 62 80 57 55 57 51 55 95 60 95 105 102 84 94 113 121 129 125 138 138 143 152 153 156 161 155 160 143 151 168 165 169 168 162 153 142 125 112 116 121 117 106 101 95 99 101 110 100 102 101 105 93 88 90 90 95 102 110 106 100 114 128 135 133 138 131 134 129 130 125 118 113 100 106 112 104 94 85 42 41 58 39 39 39 56 52 45 53 50 51 47 49 63 72 52 58 54 47 74 94 44 97 104 102 91 88 97 115 124 119 135 137 140 148 150 160 161 158 161 153 147 159 164 170 173 169 166 162 151 136 118 113 110 104 104 99 93 105 103 96 92 93 91 93 94 103 100 107 105 103 109 110 127 129 132 127 136 133 131 133 124 121 113 108 102 109 109 101 85 71 52 49 60 48 29 41 51 52 51 55 50 54 57 52 63 54 58 52 60 38 103 79 38 97 107 101 93 87 89 103 108 118 121 129 137 140 150 154 159 158 156 152 156 154 158 170 174 172 170 169 174 159 145 137 129 123 118 121 103 101 100 102 95 97 99 99 100 101 103 107 110 113 121 124 125 129 128 130 134 130 132 126 119 115 110 104 105 107 100 98 61 37 58 55 51 44 34 43 56 54 51 58 57 54 54 55 58 59 55 56 49 47 121 72 34 99 106 101 95 76 83 92 98 108 120 125 132 140 146 148 155 152 153 153 157 159 153 169 171 174 172 174 176 168 168 160 157 145 145 140 130 118 116 123 116 119 109 109 111 109 112 113 121 127 130 127 121 126 128 131 134 132 128 122 115 114 105 106 105 103 94 82 47 39 51 49 55 41 46 49 58 50 52 58 54 52 58 50 57 60 54 58 36 61 145 68 28 98 110 105 91 86 60 88 91 98 108 115 122 133 137 146 151 151 154 154 152 164 158 167 174 174 178 179 178 180 184 179 181 175 174 164 157 153 149 150 148 143 146 134 133 134 130 135 133 135 134 131 123 126 125 131 133 127 122 120 109 109 103 103 95 98 88 49 47 56 51 51 56 53 53 55 53 53 53 54 54 56 55 54 59 58 54 55 30 86 172 69 25 98 112 107 95 89 75 69 82 94 95 103 118 120 131 138 143 147 153 151 153 155 159 160 174 171 179 178 179 174 182 180 181 190 187 180 180 174 170 167 160 157 160 149 143 143 143 138 139 136 135 125 124 128 127 134 130 126 119 116 107 103 102 94 95 103 80 44 51 56 53 53 50 54 50 57 53 53 53 53 57 53 55 57 59 55 51 57 41 121 196 76 20 98 111 112 94 92 80 77 72 70 96 92 96 113 118 127 134 138 145 143 146 150 155 153 166 171 174 178 177 175 177 176 176 183 184 182 178 179 178 172 170 161 159 151 151 146 143 141 138 137 130 121 124 127 129 129 126 118 111 109 102 105 91 96 102 123 101 69 43 51 54 49 49 55 52 50 54 54 53 53 55 52 55 58 54 57 55 73 65 132 207 79 16 104 113 111 98 97 91 79 73 69 78 89 94 95 106 112 120 126 137 138 140 148 150 148 158 165 170 176 172 171 173 178 175 179 180 180 175 177 178 174 163 162 155 152 153 145 146 140 139 133 125 121 123 124 128 121 120 112 107 105 103 93 83 107 113 132 143 102 51 48 50 52 51 52 51 52 52 52 52 53 55 54 54 56 54 60 74 105 69 143 214 90 17 105 115 115 106 100 96 83 83 74 77 73 85 95 95 95 105 109 123 133 142 143 143 147 153 157 164 167 172 165 168 179 179 178 177 178 176 176 181 166 161 164 153 151 149 148 143 138 135 126 125 120 123 120 123 119 112 111 101 100 99 81 66 120 124 146 167 155 97 44 51 50 54 52 49 52 51 51 55 55 54 51 59 52 55 56 106 124 71 150 229 101 19 102 120 116 112 102 94 90 84 80 78 78 75 82 92 89 94 96 102 122 130 138 138 145 148 148 152 158 166 163 161 171 169 170 169 172 168 166 168 162 155 164 153 147 147 152 136 136 128 122 122 117 118 116 114 113 106 99 97 96 98 42 70 134 124 160 178 191 135 100 62 45 53 53 49 54 51 51 53 58 54 52 59 56 54 57 131 121 93 148 239 119 14 103 123 119 113 107 99 96 87 80 82 79 77 76 82 85 95 89 89 97 114 126 135 134 135 143 144 149 158 158 155 164 160 162 167 164 158 162 155 156 143 152 147 142 135 143 134 126 127 119 111 118 111 107 105 102 96 96 94 99 74 16 109 147 123 175 191 199 162 128 151 64 36 53 50 54 50 52 53 51 57 54 50 58 52 57 133 134 119 151 237 145 14 100 126 124 118 114 105 96 95 87 83 83 78 79 78 81 78 90 94 88 98 109 122 125 125 131 142 148 149 152 146 153 151 158 157 157 155 150 153 148 135 138 135 133 132 132 127 124 118 111 112 108 101 99 96 93 92 94 97 97 43 20 151 158 121 181 195 197 186 125 171 149 47 37 55 51 54 51 55 54 54 53 51 53 56 55 129 153 153 138 228 165 24 95 132 129 122 118 110 103 99 93 89 85 86 79 84 82 77 82 87 91 98 93 99 117 110 122 133 137 140 142 139 146 146 147 148 147 144 146 143 137 131 132 131 131 128 129 121 119 111 109 103 101 91 90 93 92 94 89 94 93 22 66 180 160 122 174 200 198 193 152 137 181 121 24 53 48 52 54 56 50 55 53 51 56 54 58 142 174 182 138 230 197 29 98 130 134 129 121 116 111 105 100 95 89 87 84 86 78 82 83 79 80 89 99 92 98 100 109 112 121 128 130 129 133 139 135 137 138 132 131 129 126 124 124 129 123 121 119 112 109 109 102 93 89 86 87 89 88 89 97 97 82 24 117 191 158 127 165 200 196 194 176 130 159 169 110 40 47 52 53 51 52 55 52 52 55 53 55 151 193 194 142 218 217 53 82 136 137 135 125 120 119 110 105 99 93 89 90 84 81 80 86 79 81 76 80 90 95 93 93 99 107 114 121 116 115 124 128 126 130 126 123 121 116 116 114 116 116 112 109 102 98 105 94 81 79 83 82 87 90 94 102 96 71 49 166 182 151 133 164 195 197 191 185 143 150 161 169 131 57 48 47 51 52 50 54 53 53 52 53 161 208 203 149 201 219 75 63 141 143 138 132 129 124 116 113 105 100 92 95 89 83 86 81 84 81 76 79 77 81 88 91 88 92 94 105 104 104 111 113 118 113 114 111 112 105 108 109 109 108 97 96 96 90 90 77 72 71 87 91 91 96 102 106 100 64 103 195 163 158 138 170 194 195 189 187 150 148 156 174 182 169 112 66 43 50 53 52 52 52 54 54 173 209 208 156 187 227 109 51 136 145 143 141 137 128 119 116 113 107 99 98 92 91 85 84 84 77 81 78 77 77 73 82 90 90 86 93 90 98 103 104 109 110 108 101 105 100 103 106 94 98 87 92 78 74 68 71 78 84 90 96 101 103 108 111 104 71 148 190 158 164 147 177 193 188 188 184 153 148 147 177 180 184 183 173 97 52 46 51 52 57 54 54 180 209 209 170 170 242 170 48 117 146 146 144 148 138 125 125 117 116 111 100 99 95 88 84 86 77 83 79 78 75 75 73 74 68 80 84 84 83 91 99 95 103 100 94 93 98 92 86 85 80 75 68 63 68 75 79 89 89 100 104 107 114 116 121 98 97 191 162 164 170 150 183 191 185 185 179 148 162 143 173 182 174 186 182 197 173 77 39 54 54 58 54 184 207 208 179 155 232 205 64 101 145 151 151 151 146 137 133 125 119 117 109 101 103 96 87 88 86 80 80 75 76 72 72 70 67 66 65 72 72 78 85 82 85 88 87 79 80 74 70 72 66 67 67 70 73 80 91 93 99 106 111 118 127 126 120 92 153 185 146 179 169 156 185 190 185 187 173 146 180 147 167 187 178 170 186 183 200 170 99 81 43 55 55 