P2
92
112
255
88 97 95 95 96 97 102 96 95 97 94 97 104 105 100 105 109 109 117 123 130 138 142 133 127 138 144 150 144 135 133 133 123 117 101 102 96 85 85 89 93 79 99 73 67 68 76 52 47 61 79 92 77 63 48 61 51 62 63 56 51 45 54 58 51 76 72 66 80 68 63 103 115 110 108 94 92 93 105 87 96 101 112 112 109 101 107 104 105 104 87 80 94 95 96 94 96 105 98 94 95 101 101 97 97 97 96 95 106 110 116 124 127 129 135 132 131 143 154 142 138 138 141 137 131 113 104 90 87 79 80 89 94 75 94 78 68 69 72 55 57 77 84 94 75 61 61 58 62 53 57 43 44 52 73 69 68 64 74 82 83 81 66 78 87 117 114 109 104 86 82 98 99 88 90 106 108 101 107 103 96 109 105 84 93 101 101 97 97 109 100 97 98 94 90 87 101 94 91 94 101 112 116 119 126 134 128 117 123 136 144 136 144 146 135 121 116 106 102 98 93 86 85 85 96 81 86 88 74 69 69 63 76 86 89 85 66 55 67 70 64 48 46 53 69 76 71 72 76 70 76 81 80 92 94 79 74 88 105 104 100 109 103 79 80 89 94 86 97 98 95 107 102 109 105 104 98 104 101 93 96 116 103 100 100 95 92 89 98 100 93 95 104 106 113 108 119 129 124 116 124 129 138 138 132 136 116 103 100 91 95 85 79 79 78 86 101 89 81 90 77 71 71 75 85 84 92 81 63 62 65 72 57 51 66 85 66 67 64 66 65 61 66 72 69 71 84 94 83 95 84 105 105 94 92 106 87 75 73 83 86 88 96 100 93 95 104 105 105 106 100 87 99 106 111 100 97 96 94 88 90 99 101 97 103 99 100 112 123 118 112 115 121 128 130 131 128 117 100 100 80 87 92 84 87 82 83 70 97 101 79 83 87 77 73 89 84 92 93 78 70 82 71 61 65 78 86 78 64 59 65 60 57 65 58 59 70 83 96 90 94 102 105 98 107 107 99 91 90 90 74 70 75 66 81 93 99 90 83 93 111 103 93 93 101 103 100 93 99 91 92 95 92 95 96 98 94 92 105 110 107 104 110 113 103 132 142 132 124 114 97 100 98 93 92 88 93 92 95 85 93 104 87 88 89 88 79 89 79 99 97 79 72 84 67 60 82 89 81 69 68 64 62 59 59 52 51 54 75 70 65 66 70 74 73 82 96 106 110 99 91 79 76 73 76 73 68 65 88 91 92 83 111 96 97 95 97 106 102 97 96 96 97 92 96 93 84 88 85 95 110 103 96 111 98 95 131 147 139 117 115 113 102 106 103 103 99 94 104 104 108 104 96 112 105 94 93 96 92 93 84 102 94 88 81 80 71 63 94 92 72 83 76 72 63 70 73 58 61 61 66 67 62 69 66 72 74 60 44 56 72 91 90 98 80 75 77 69 71 71 61 81 82 97 105 96 96 99 93 96 104 103 89 92 94 90 98 91 82 82 98 93 90 99 92 86 95 117 130 137 127 115 111 114 112 106 106 108 109 105 111 114 120 120 108 114 114 110 101 97 105 107 86 109 100 93 90 81 76 77 100 82 72 97 86 82 81 84 83 73 70 67 62 69 70 80 71 59 74 61 43 42 52 44 49 72 84 86 76 67 62 66 66 66 70 85 101 94 99 99 93 93 90 89 88 92 92 89 103 92 82 95 90 82 92 89 78 81 104 116 129 132 128 115 120 119 115 109 108 109 107 114 113 121 119 123 125 129 121 120 126 112 106 122 113 111 112 106 98 90 84 88 102 80 85 101 102 116 104 98 87 84 78 82 81 85 83 67 48 70 88 81 71 56 51 44 37 32 43 50 64 68 69 64 57 68 65 71 101 97 90 98 94 94 86 90 90 92 89 96 100 91 87 87 77 93 87 79 82 83 96 117 130 121 125 119 128 117 109 107 110 114 117 123 123 126 133 129 131 140 131 129 134 133 120 124 133 117 116 115 114 103 93 99 105 84 93 102 115 126 114 100 90 85 81 86 75 74 62 68 73 86 87 75 71 52 40 42 40 25 41 32 27 36 56 66 64 60 65 78 102 92 97 98 100 97 93 89 96 91 92 102 90 86 96 76 85 92 81 78 82 84 95 114 119 111 119 129 121 115 107 112 121 133 138 141 143 145 151 152 156 150 144 142 152 150 142 134 135 141 128 124 130 123 100 107 115 106 98 114 117 126 115 99 101 80 79 89 81 88 80 80 81 94 82 54 79 78 49 54 45 57 51 31 25 27 24 39 60 58 57 67 95 94 100 104 106 93 95 89 95 97 98 89 83 94 84 80 93 77 73 81 76 84 98 102 101 112 120 124 111 113 113 127 131 143 153 151 158 166 165 162 167 167 149 152 161 168 161 152 137 154 153 143 145 145 116 116 125 117 112 121 127 133 104 96 91 85 72 75 76 74 81 86 90 77 74 68 75 82 71 56 50 53 48 37 30 30 27 22 38 51 59 60 97 102 97 93 100 102 89 93 96 96 88 91 85 85 80 83 88 79 77 73 82 91 96 93 93 111 121 114 115 116 128 135 139 152 160 164 169 179 179 178 172 176 174 167 175 185 180 178 168 162 166 166 164 160 150 137 141 119 138 137 136 136 118 101 90 79 71 68 69 76 81 91 78 73 69 74 73 70 58 59 61 57 49 43 40 30 37 35 23 25 55 63 100 101 102 94 94 97 92 102 90 88 87 84 89 85 85 85 85 84 72 75 86 92 89 91 90 107 118 118 119 124 135 146 154 159 169 170 175 178 181 182 182 177 179 181 183 186 184 185 184 179 179 175 174 173 173 167 153 145 157 153 142 145 136 112 102 86 81 74 75 81 71 75 72 83 82 75 72 77 84 74 63 59 50 41 44 30 38 53 36 19 36 58 87 93 102 98 96 99 95 96 86 90 87 81 90 88 85 83 83 76 67 83 91 87 83 86 87 110 116 115 126 136 144 154 159 176 181 179 180 182 184 185 189 189 187 189 191 187 185 188 191 187 185 187 181 185 183 188 175 174 177 172 157 159 157 129 106 90 83 83 83 71 68 70 64 73 68 74 78 72 76 59 55 66 70 54 55 53 36 30 61 34 22 54 92 98 100 95 96 98 81 77 97 90 80 85 89 89 88 82 77 71 74 90 84 83 85 88 85 110 112 117 125 142 146 152 159 179 181 182 180 189 190 190 196 199 195 193 192 190 189 191 195 193 188 192 191 188 187 192 187 186 188 183 173 169 166 147 130 107 94 84 86 78 66 65 62 58 60 63 76 65 74 66 69 71 76 64 60 56 51 39 29 66 31 47 100 95 96 97 89 81 84 97 99 84 78 95 94 87 78 74 73 76 81 83 85 90 87 85 90 107 111 116 126 139 147 151 168 177 182 178 185 190 192 195 196 197 196 196 196 194 193 194 194 196 192 193 192 196 191 189 192 191 193 189 188 182 173 162 154 136 121 95 86 84 82 77 72 66 68 70 74 78 81 85 77 75 79 63 56 51 51 50 38 49 63 33 102 100 98 84 83 98 102 93 92 90 98 97 94 88 74 65 83 82 81 76 82 87 92 82 93 107 110 113 131 142 142 156 175 181 181 182 186 190 189 192 192 194 197 195 193 194 197 192 197 198 195 195 196 197 192 193 194 192 193 195 191 190 186 179 175 143 129 121 99 84 86 86 84 77 81 82 86 90 87 81 69 77 81 65 61 51 49 51 55 45 60 48 93 86 72 86 96 99 94 92 94 90 97 88 87 72 74 76 83 78 73 82 85 92 86 85 96 110 112 119 137 149 142 157 172 176 185 185 182 187 189 192 195 196 192 196 192 193 197 194 197 198 197 197 195 195 192 193 193 193 194 194 194 193 191 189 189 164 133 122 116 102 95 90 93 84 89 91 90 93 93 89 78 79 75 62 52 47 47 40 60 59 40 63 75 87 90 106 113 100 107 99 103 97 86 76 88 76 80 81 76 67 83 93 95 93 87 92 102 118 113 127 148 149 150 164 170 183 187 186 186 187 192 191 194 199 196 198 197 195 198 195 196 199 199 199 194 195 196 193 196 194 194 193 194 193 194 192 190 175 149 126 116 112 107 100 96 92 93 95 93 92 88 76 69 62 62 63 59 49 42 29 50 58 54 46 93 112 123 121 117 114 106 98 97 91 88 98 99 92 83 81 81 82 91 98 100 97 93 102 110 124 123 136 155 158 161 174 177 186 187 188 182 190 191 190 190 194 195 195 197 197 194 196 200 200 201 199 199 196 197 193 195 194 194 193 193 196 194 195 194 186 166 146 128 117 119 121 111 102 106 97 95 93 87 79 78 73 68 66 65 45 39 34 36 52 71 41 105 109 112 118 117 111 106 104 94 92 91 84 93 84 81 94 98 98 96 99 100 101 103 109 123 131 135 147 159 168 170 173 180 185 190 185 186 191 190 191 189 194 195 196 198 194 198 199 201 200 201 202 200 194 194 196 195 194 196 196 193 195 196 193 193 189 182 165 149 140 126 125 125 113 109 104 100 102 99 89 86 85 78 73 63 52 44 38 25 39 74 68 117 118 113 116 116 108 121 119 109 101 95 98 95 87 86 92 101 106 103 106 104 107 112 119 136 142 154 161 161 175 182 176 178 184 187 184 191 191 190 193 194 194 198 198 195 198 195 199 201 201 200 200 199 197 192 194 197 193 194 194 193 193 196 192 193 188 185 174 162 155 147 136 129 122 120 110 108 108 109 99 103 99 96 86 86 80 61 48 35 34 50 78 107 99 91 83 93 95 85 97 96 94 85 99 98 93 101 101 108 109 108 115 121 125 130 138 151 152 164 169 171 180 181 176 180 183 185 187 190 192 190 190 193 194 198 198 196 197 195 200 203 200 200 200 197 197 194 197 196 196 195 198 192 192 194 192 191 191 187 183 173 164 164 155 143 132 131 127 125 127 127 125 125 128 116 111 110 100 82 66 48 38 21 67 78 72 79 83 84 79 90 86 101 107 108 105 103 99 101 101 110 114 117 122 137 145 153 158 168 169 168 173 176 177 181 179 179 183 185 185 186 187 189 192 191 192 194 196 194 198 197 199 201 200 196 197 198 197 194 196 197 194 197 195 195 189 192 192 191 188 187 186 188 176 177 172 162 157 155 153 151 148 149 145 143 144 139 132 118 117 98 74 54 39 26 50 66 75 66 68 54 54 73 60 73 89 92 99 97 109 110 119 119 124 131 146 156 164 162 167 172 172 177 177 178 180 183 182 178 184 186 186 185 186 185 191 193 193 197 193 194 195 195 196 201 199 196 195 193 194 193 195 195 195 195 193 195 192 189 191 188 190 186 185 190 182 183 181 174 174 166 164 167 165 165 161 155 149 145 140 133 118 105 86 63 32 43 54 72 69 58 59 62 56 56 67 71 83 81 85 89 95 114 121 126 137 137 157 164 164 169 170 172 176 181 180 179 179 187 182 182 187 185 187 187 186 186 188 191 191 195 196 197 195 196 195 198 195 198 197 197 194 193 194 193 194 193 192 194 193 190 188 185 192 187 188 187 186 185 181 180 181 176 179 175 169 168 163 160 154 147 141 143 128 115 95 77 24 35 74 55 55 51 48 55 53 59 63 68 74 72 68 74 89 116 127 131 142 153 160 165 170 171 169 172 178 181 183 182 181 186 184 188 189 192 187 189 188 191 189 191 193 193 194 198 195 195 196 195 195 194 197 196 192 193 194 193 195 195 193 189 191 190 191 184 187 189 187 187 186 185 182 181 183 179 178 175 170 164 162 162 151 150 145 143 136 116 106 84 41 28 76 78 74 71 68 67 59 50 47 61 69 62 65 81 109 122 131 140 153 161 162 167 165 167 169 178 182 178 184 185 183 185 186 186 189 192 191 188 192 191 190 194 194 196 193 195 195 194 195 195 195 193 195 197 191 194 194 194 193 190 195 191 191 187 189 183 186 187 187 184 186 186 182 181 184 180 178 175 169 166 161 163 150 151 148 140 139 118 109 87 53 33 80 55 62 57 68 59 48 45 57 64 69 68 84 100 112 130 139 149 155 158 162 163 168 166 169 179 182 182 185 184 184 185 188 184 188 192 191 189 189 193 192 193 194 196 197 196 198 193 192 198 192 193 195 193 193 194 194 194 191 189 194 190 189 189 191 186 185 187 186 182 184 184 181 174 181 177 179 170 171 163 160 156 152 148 144 138 137 122 106 89 59 42 85 44 47 50 52 45 36 52 69 64 73 81 98 115 125 132 147 150 153 157 163 163 168 163 172 172 176 183 183 184 181 190 188 185 188 194 188 189 191 191 192 192 196 193 195 197 198 196 195 196 194 193 197 192 196 192 193 194 192 188 193 188 187 185 183 183 187 187 183 179 184 184 182 178 177 175 173 170 168 166 155 153 151 152 145 133 140 119 108 88 66 65 91 50 47 47 40 39 49 69 71 68 75 93 114 127 134 141 150 155 156 162 162 163 166 162 169 172 174 183 184 183 180 189 188 186 189 189 182 184 193 191 192 192 195 192 195 196 197 196 192 198 195 197 198 193 195 194 192 192 189 189 185 188 184 179 183 181 185 185 180 184 181 176 181 179 168 174 171 169 169 162 153 153 147 149 141 138 133 123 100 84 70 68 82 44 44 43 42 51 62 72 60 70 86 102 123 137 144 148 152 156 160 161 159 161 166 165 168 176 178 182 185 188 184 187 185 189 188 187 187 190 193 190 189 192 193 195 194 196 196 194 192 196 195 196 194 195 195 193 195 193 191 187 184 182 180 176 183 187 182 182 182 185 179 176 179 172 170 168 169 165 164 162 155 147 149 146 140 138 131 119 102 84 66 70 73 64 44 49 53 62 60 48 58 76 106 118 136 150 148 146 155 157 157 160 157 163 164 163 172 174 178 183 186 190 186 183 181 183 187 192 187 190 192 191 187 190 194 195 193 195 195 196 195 195 193 193 194 196 193 194 195 190 189 187 184 182 181 180 182 183 184 181 183 182 177 174 173 171 164 166 164 167 158 156 157 151 146 143 141 135 128 114 100 80 61 69 66 50 57 51 55 61 45 47 65 92 122 138 147 156 148 154 154 154 158 158 163 161 157 169 168 175 182 185 181 179 173 166 163 169 183 186 186 182 189 187 191 191 193 195 191 198 196 195 197 196 194 195 194 194 192 194 192 190 186 189 183 179 183 182 181 185 182 184 182 181 173 179 171 171 170 169 168 161 159 152 154 149 146 145 137 135 123 111 97 73 53 71 66 49 48 48 55 53 43 61 89 112 133 148 153 159 151 151 153 159 157 151 159 158 152 143 145 160 166 160 152 149 146 144 145 150 160 165 164 173 177 180 183 190 190 191 191 195 196 194 192 194 193 193 193 192 194 191 188 188 187 186 182 180 181 185 184 184 184 182 177 181 171 173 169 166 163 167 165 160 161 157 149 149 142 141 136 134 120 104 103 67 51 54 57 67 60 46 51 50 49 73 105 128 138 152 160 157 159 152 150 156 155 149 157 150 139 139 131 121 125 135 138 129 128 132 127 135 135 142 149 153 161 175 178 185 186 189 191 193 192 193 191 194 190 188 190 192 192 188 186 185 183 181 181 183 179 185 183 184 184 183 178 184 179 173 168 172 157 166 161 159 157 154 150 148 144 137 134 129 119 107 104 71 43 47 55 80 65 64 58 55 66 86 118 139 149 150 154 158 158 160 150 154 151 154 154 145 133 132 135 131 127 132 135 140 142 147 141 135 127 118 118 119 136 153 165 165 179 183 189 191 189 192 189 190 190 186 188 190 188 183 184 182 182 180 183 182 181 182 184 185 183 182 180 177 175 172 164 167 162 166 162 159 154 154 154 148 147 139 136 127 122 109 105 83 32 39 56 91 80 61 58 56 70 106 139 147 152 147 154 154 153 157 155 133 145 147 151 152 150 156 162 165 167 172 173 174 178 177 177 172 156 144 122 108 108 114 128 134 150 169 181 187 186 188 190 187 188 185 183 186 187 183 184 178 179 181 182 180 178 182 184 184 180 180 177 175 178 168 165 159 164 163 162 158 151 156 151 148 145 142 131 128 126 108 105 98 25 42 53 85 81 65 66 71 87 123 145 151 153 156 152 156 154 153 159 136 137 138 131 143 158 172 171 174 177 185 183 181 180 185 179 182 178 175 165 145 142 127 113 115 103 119 143 151 165 180 184 184 185 183 182 183 184 179 181 178 177 179 180 181 179 181 179 180 179 178 177 175 174 170 161 163 164 160 159 157 153 152 149 147 142 141 127 128 124 120 100 95 41 45 75 80 79 71 75 78 99 130 146 152 154 155 155 154 156 151 158 146 134 142 147 142 156 165 165 163 172 173 177 173 172 175 172 172 172 173 165 158 155 153 141 121 111 108 105 110 121 143 163 183 181 180 179 183 180 177 176 176 174 177 180 182 176 180 175 176 176 174 177 175 169 166 161 160 164 159 159 158 155 148 147 146 143 136 133 121 124 121 109 85 63 62 65 87 87 84 81 92 112 142 144 150 153 154 156 159 155 149 154 151 133 140 149 149 145 153 154 157 152 156 158 151 153 148 148 148 148 151 147 145 146 147 145 135 119 119 102 97 97 107 119 152 176 176 176 176 177 173 174 173 171 177 178 176 173 178 174 173 173 175 171 168 167 162 159 161 160 158 157 159 157 151 151 149 144 133 132 123 122 122 109 91 59 50 54 93 85 97 93 102 125 139 146 144 149 156 159 158 158 153 151 151 143 136 142 139 137 135 135 135 132 126 124 115 107 100 110 113 121 128 127 132 132 131 137 136 130 124 110 96 93 98 106 127 153 170 175 171 167 171 172 171 173 175 178 174 173 170 172 170 169 174 169 167 161 162 157 159 158 158 152 154 156 148 151 145 143 133 125 123 121 122 106 82 18 33 65 92 93 100 108 116 129 139 142 145 153 156 163 158 157 154 152 156 144 142 139 133 128 122 117 106 89 89 81 79 84 66 87 87 81 92 89 97 112 123 128 129 126 129 122 99 90 95 88 104 130 159 166 168 166 165 169 168 172 169 174 173 172 168 171 170 169 169 167 164 157 158 160 155 158 156 154 152 152 152 149 137 134 132 125 116 120 115 96 72 35 76 83 101 94 105 114 125 139 140 141 146 150 157 163 167 165 161 159 157 145 140 137 134 121 110 94 85 71 77 64 60 71 55 66 67 71 88 87 77 78 85 119 125 123 122 121 109 100 98 103 91 124 152 158 160 161 163 164 165 169 168 168 166 167 165 167 163 168 166 163 159 154 152 155 158 154 155 150 150 151 144 138 134 117 127 124 114 115 117 90 78 66 61 44 104 101 112 119 129 141 136 141 147 150 157 160 170 167 163 164 159 150 138 134 126 114 95 85 74 56 43 55 48 40 55 55 53 44 50 60 58 91 86 80 114 127 128 120 113 106 107 111 111 125 144 153 155 158 160 160 162 164 163 161 161 156 163 161 158 160 161 156 153 153 152 151 148 143 143 139 142 140 132 116 111 104 103 103 93 104 113 93 60 26 35 56 96 104 115 123 132 143 141 141 149 150 155 161 168 171 167 168 174 160 143 128 115 112 99 74 55 44 57 88 68 57 68 88 68 67 49 54 44 60 96 94 84 120 131 128 125 113 114 113 125 127 141 149 152 156 157 158 160 161 156 153 152 152 154 148 151 158 153 150 147 147 150 129 121 122 117 117 121 123 107 102 87 95 85 79 77 102 111 77 19 26 48 58 103 104 113 127 132 137 141 141 149 150 155 167 171 171 172 180 184 184 168 150 145 121 92 70 88 77 119 125 83 98 54 60 169 91 75 78 110 52 55 105 90 100 130 134 132 130 114 115 120 132 133 144 150 154 156 162 157 154 151 152 149 145 144 146 146 140 144 142 136 131 115 101 95 85 83 82 83 88 82 86 71 76 83 73 79 85 83 50 22 49 51 55 111 104 112 131 132 136 141 143 147 150 153 167 168 171 174 183 186 187 181 179 173 158 140 95 94 115 139 145 86 98 61 12 48 86 87 89 157 121 41 58 121 93 117 136 140 137 127 123 124 131 133 144 151 159 162 165 156 153 151 151 149 148 142 145 141 134 134 128 122 105 80 77 71 61 68 65 68 68 87 94 100 106 112 100 85 75 64 49 32 36 50 60 118 103 118 127 131 134 137 147 146 149 155 168 171 170 175 181 187 187 181 189 185 185 166 133 79 98 137 161 101 95 101 75 65 98 77 124 166 159 102 51 102 122 96 127 143 142 136 129 136 133 143 147 157 162 169 173 165 159 154 151 151 149 138 133 130 119 114 108 91 79 64 55 59 59 65 72 83 87 103 118 125 124 125 122 114 103 73 32 25 35 63 65 119 103 117 129 132 135 140 143 148 149 158 167 171 169 174 183 185 185 189 190 185 187 177 157 110 95 98 141 139 97 98 108 103 92 101 152 171 156 134 93 69 124 107 113 133 142 140 138 140 134 146 159 168 164 179 179 174 166 161 153 153 145 135 125 116 102 103 85 77 61 55 53 55 58 74 82 94 100 108 114 120 123 126 121 115 115 79 21 21 54 66 48 118 105 110 131 130 135 141 143 148 153 160 167 168 171 173 182 186 186 190 193 192 189 186 179 146 127 123 132 139 135 119 115 112 129 152 167 165 161 143 122 94 96 123 121 122 140 150 149 145 137 152 164 172 180 184 188 181 173 168 159 149 137 124 110 97 81 73 74 58 50 44 62 62 63 71 71 68 72 88 98 100 115 115 113 111 110 72 15 24 46 53 51 120 104 111 129 131 135 139 142 148 158 162 170 167 171 174 184 184 188 191 194 192 191 190 184 170 154 149 149 153 131 130 137 135 138 136 138 141 137 134 117 133 107 92 140 141 143 155 163 153 152 157 172 182 184 192 193 187 177 170 163 144 128 114 92 82 74 69 73 68 53 43 80 73 63 79 77 75 75 53 64 89 96 103 105 104 104 54 11 27 38 50 71 118 105 117 126 126 134 138 144 152 155 159 171 170 169 178 182 184 188 191 197 192 189 185 183 176 172 161 159 158 146 151 127 139 124 135 111 131 124 132 137 140 153 120 146 172 162 164 179 169 161 169 178 188 191 195 198 193 181 175 160 135 117 91 87 77 90 95 72 51 37 49 50 41 37 37 28 50 79 82 48 46 78 92 92 94 93 32 16 25 52 63 59 113 106 122 122 128 130 139 141 154 157 161 172 169 169 175 180 187 189 191 195 194 191 188 187 175 166 167 163 155 153 155 139 150 141 161 123 129 134 128 144 152 164 165 154 175 174 172 186 183 173 177 187 192 194 197 200 195 184 178 153 129 109 83 97 106 98 84 55 61 27 106 76 52 55 37 54 33 33 44 65 47 65 75 82 81 86 31 21 37 58 56 56 114 115 127 126 129 135 134 144 154 157 163 172 169 170 168 182 188 186 189 192 195 192 193 193 194 184 170 164 158 159 156 150 153 156 161 148 146 154 156 159 160 157 166 171 179 183 186 191 187 185 183 191 194 195 199 200 195 186 168 145 115 104 103 113 105 87 130 75 92 40 34 121 25 85 57 115 79 24 20 36 53 45 74 71 82 80 27 24 40 58 45 48 116 123 133 127 131 129 138 143 154 159 161 168 172 172 171 181 185 186 186 194 194 196 197 196 195 192 189 188 179 179 170 165 163 166 171 164 161 163 166 165 163 171 180 186 186 187 194 192 192 188 187 189 196 198 197 198 193 182 166 134 111 115 117 80 157 114 153 85 84 71 26 31 53 74 67 128 121 60 19 23 30 50 64 66 95 75 24 31 43 43 41 44 122 129 133 130 126 132 135 143 154 162 163 171 171 172 174 183 184 185 188 193 193 196 196 198 194 196 195 195 195 191 188 185 178 177 179 174 166 167 173 178 187 191 192 194 189 193 193 193 190 190 188 193 197 197 197 199 192 175 163 127 114 114 125 108 120 126 134 112 90 95 71 64 83 67 97 134 120 85 38 23 28 43 57 76 103 60 24 30 30 38 45 47 123 129 130 126 126 128 136 145 151 162 167 172 171 173 180 183 182 183 188 194 196 195 196 197 194 196 197 198 200 195 193 191 183 179 184 178 181 184 189 190 192 195 194 197 196 193 193 192 192 191 188 194 199 198 194 197 187 173 157 128 116 120 139 147 143 143 130 119 117 93 78 74 80 96 130 134 111 90 60 37 45 54 79 94 109 50 24 35 30 29 50 49 122 133 131 124 125 125 138 148 153 157 163 173 165 173 178 182 180 185 186 196 195 194 195 198 195 195 196 199 196 197 195 193 192 193 193 192 195 196 195 192 191 194 195 195 193 193 190 190 194 188 190 192 198 196 193 191 186 173 154 125 118 128 142 148 147 140 136 125 114 114 100 95 100 129 125 114 102 88 64 51 82 86 83 101 98 47 26 33 29 31 46 54 123 129 133 125 127 126 140 147 155 151 163 169 171 173 178 177 181 186 192 192 194 194 196 197 195 196 198 198 193 195 195 196 198 194 196 193 196 196 195 195 194 192 195 196 195 191 187 190 193 188 189 192 196 194 192 187 182 177 151 124 121 130 146 147 144 145 133 122 116 113 107 89 95 91 105 92 74 64 51 71 95 104 109 116 88 44 32 36 29 37 48 57 129 131 130 127 126 129 141 149 150 146 161 159 170 176 173 174 182 185 182 190 194 193 193 198 198 197 200 197 195 196 195 195 196 194 197 194 193 193 193 194 193 195 192 196 196 190 186 192 192 189 185 190 198 195 187 189 182 174 147 128 123 129 145 154 146 138 142 134 122 119 119 112 111 104 102 100 90 85 75 88 123 102 117 130 86 45 42 36 37 39 52 57 129 133 128 127 126 128 139 146 145 152 157 160 170 176 170 174 183 185 184 188 192 190 191 196 196 197 199 199 196 198 197 197 194 195 198 193 192 194 192 194 195 194 191 193 196 191 190 187 190 191 184 188 197 195 187 190 187 174 139 127 125 132 144 151 155 144 145 144 129 127 121 123 118 124 107 110 109 101 104 107 129 119 111 120 87 53 52 39 35 45 55 60 126 130 126 127 128 132 138 141 145 153 158 160 170 168 167 175 177 183 185 186 193 190 188 191 198 198 198 200 200 200 196 196 196 198 195 195 192 195 196 194 195 193 193 194 194 191 187 186 185 189 186 190 195 192 190 188 188 169 138 122 127 128 143 147 154 156 153 146 140 136 129 126 126 124 119 120 118 112 119 128 141 126 112 113 83 67 59 45 36 51 59 65 127 129 125 126 128 128 135 140 149 151 156 161 166 167 168 170 174 181 181 184 185 187 189 193 194 199 196 200 199 197 197 194 194 195 193 194 195 192 195 191 192 192 191 190 191 190 183 187 187 184 185 190 192 192 184 184 190 163 138 126 127 128 139 146 150 153 155 152 145 140 141 131 131 119 118 118 122 119 128 138 148 128 113 104 87 82 62 42 42 54 64 66 132 128 127 130 127 125 133 137 144 148 154 160 162 166 169 170 175 173 181 183 185 180 184 190 189 194 195 196 196 194 192 193 190 194 191 190 192 188 190 188 182 181 178 182 180 180 182 186 187 185 183 187 187 187 184 182 184 170 145 123 126 133 141 148 152 156 158 160 156 153 151 144 142 135 134 132 132 140 141 143 141 123 112 99 91 95 54 50 47 63 71 70 132 132 128 128 125 126 131 135 140 146 158 156 163 160 166 169 170 172 175 183 184 181 181 185 188 187 191 191 191 192 191 192 187 185 185 184 181 174 178 174 177 179 174 183 186 180 178 183 185 183 182 189 190 188 183 184 179 180 153 127 129 139 146 147 154 153 160 156 164 159 162 154 155 148 143 148 151 151 147 147 140 121 105 100 97 85 60 52 58 72 77 78 130 132 131 126 123 126 129 139 135 148 150 155 160 159 162 167 168 168 174 177 175 182 179 179 181 187 186 188 182 184 184 183 177 176 178 171 167 168 168 170 178 183 179 186 189 184 175 180 183 183 181 193 194 187 185 186 186 178 161 125 123 137 146 147 150 150 161 152 162 163 164 163 155 155 153 156 152 153 148 140 137 118 102 100 99 80 68 66 56 75 84 87 129 131 132 129 123 122 132 129 137 143 147 148 153 156 160 163 169 169 166 176 175 175 172 173 178 179 181 182 179 175 179 172 168 167 169 163 163 158 159 168 175 179 187 187 189 186 178 178 179 183 183 194 197 189 184 185 185 181 162 131 123 128 134 145 149 154 156 155 160 163 166 162 156 153 150 153 146 150 143 138 128 117 103 103 93 78 71 88 70 52 99 94 132 130 132 129 128 120 128 128 133 136 141 146 150 153 156 159 162 164 161 172 169 165 166 165 173 175 176 174 172 168 166 165 158 153 161 159 157 154 148 165 174 184 188 190 186 191 186 180 176 181 181 191 199 196 189 186 186 184 164 130 132 134 119 138 150 157 157 160 159 163 162 165 160 161 148 144 143 140 144 130 123 119 101 99 91 81 89 96 78 36 92 111 128 133 131 133 127 121 122 128 131 134 130 139 145 148 147 153 153 158 161 165 161 160 161 168 164 168 169 165 163 161 160 158 154 150 152 154 153 139 136 160 174 180 183 189 195 188 190 183 181 178 180 185 192 198 190 188 189 178 166 131 138 141 122 124 145 152 154 155 159 162 162 163 159 159 152 138 139 136 142 131 120 111 104 96 90 90 102 88 78 43 86 113 124 133 133 133 130 121 121 119 124 132 128 131 139 144 145 149 154 153 155 152 155 153 156 157 157 162 160 160 158 153 149 153 146 146 151 158 166 152 114 144 162 172 176 182 193 187 181 179 175 177 178 182 191 195 199 188 182 175 160 128 133 147 137 120 134 150 155 154 156 160 162 160 159 152 149 140 134 133 131 129 119 107 100 92 90 107 96 77 75 58 92 105 127 129 132 133 131 121 125 120 123 129 124 127 128 136 137 141 145 144 144 144 146 148 152 151 149 152 153 150 149 147 147 145 147 149 155 166 169 175 131 115 144 155 159 169 176 184 170 173 167 169 172 176 183 191 193 182 172 166 154 124 122 151 142 119 134 145 150 150 156 158 153 154 161 151 150 143 134 130 125 123 115 104 94 86 99 111 82 76 95 44 83 105 120 128 128 129 133 126 120 122 123 125 123 125 122 124 129 131 133 137 133 140 142 141 141 147 143 142 146 141 139 137 140 141 146 162 166 168 167 177 166 99 108 119 123 127 139 153 155 152 152 153 152 160 166 173 179 170 160 152 139 119 124 143 140 117 126 141 147 145 147 151 153 147 153 148 147 135 136 122 125 120 115 96 99 81 105 100 69 79 111 45 71 93 118 126 127 130 132 131 125 122 126 125 123 126 122 122 118 122 127 131 131 131 133 130 134 136 140 136 134 130 128 128 130 143 157 170 174 174 168 168 176 140 91 82 75 71 79 95 105 119 133 138 142 144 153 161 162 156 143 134 123 111 122 134 134 123 128 137 142 140 140 144 147 144 142 145 142 140 130 124 116 117 105 96 102 82 107 83 59 91 114 51 63 88 118 124 125 130 137 130 129 124 127 125 124 128 123 129 124 123 126 127 130 123 127 127 126 125 127 125 121 119 120 132 142 157 167 174 179 176 170 172 177 177 155 122 106 94 88 78 53 63 109 126 132 134 135 142 146 136 124 113 106 99 117 121 113 123 130 125 135 135 138 138 139 139 138 143 135 130 130 116 113 112 102 87 113 83 97 77 54 97 114 63 54 87 118 118 122 130 132 131 133 128 126 130 131 128 128 131 131 126 122 124 124 115 118 115 120 123 115 116 125 134 136 146 157 172 172 174 176 178 170 177 177 177 170 161 146 136 131 121 102 57 67 114 117 122 123 125 123 121 105 94 82 83 97 96 109 127 131 132 133 136 136 131 134 133 130 135 126 124 124 113 109 106 92 82 111 91 84 77 60 83 119 75 46 79 109 115 121 127 131 138 133 128 123 134 138 133 130 136 136 135 131 128 123 119 119 120 121 126 128 135 144 154 155 159 169 174 179 175 180 177 173 177 177 177 173 173 168 153 148 139 137 109 49 90 97 93 101 108 104 103 82 61 40 50 73 84 112 129 123 132 134 133 132 131 127 126 126 127 117 118 118 105 104 102 84 77 102 102 78 84 54 77 110 88 43 73 108 106 117 127 130 135 137 130 127 133 140 139 130 134 139 143 140 138 135 131 133 130 142 141 143 151 154 157 160 161 162 165 174 174 177 175 174 179 176 179 177 177 174 166 156 146 138 131 92 62 58 68 78 89 78 74 57 59 61 70 87 101 125 127 123 122 132 130 128 127 121 121 122 120 110 113 113 102 102 92 63 78 94 101 79 91 52 60 105 94 44 69 91 105 103 124 129 133 135 133 132 134 145 141 138 139 141 147 150 149 147 144 142 139 142 147 143 140 150 144 142 147 153 160 164 170 173 168 170 176 177 177 181 180 179 171 166 155 144 129 120 89 65 57 58 65 66 75 86 104 106 106 116 119 124 126 114 116 121 127 120 121 113 114 106 110 109 108 101 101 97 71 42 73 94 93 81 90 65 53 100 103 52 59 76 93 105 115 123 125 137 134 133 138 142 143 142 142 146 149 154 155 156 151 149 138 134 128 119 113 118 116 107 109 123 138 141 155 159 160 163 171 174 172 177 177 176 172 172 163 142 132 127 119 112 96 87 88 95 109 122 128 129 127 127 125 122 123 117 110 114 117 119 112 115 109 103 99 102 88 97 94 83 44 37 70 82 96 93 85 74 51 74 112 71 51 60 92 95 112 119 123 132 132 135 141 141 144 144 143 148 150 156 153 161 161 146 137 131 116 114 106 106 103 99 74 69 73 77 104 118 125 138 146 154 158 167 171 173 170 173 164 148 140 144 137 135 134 129 125 126 131 136 134 134 131 127 124 122 123 121 110 109 111 112 112 108 103 102 92 87 81 83 95 61 26 43 60 77 85 99 91 81 57 49 109 86 58 48 79 95 100 111 111 131 131 134 141 140 147 145 144 149 151 159 152 159 164 154 146 143 130 141 143 141 134 140 136 105 95 76 77 79 74 82 91 102 108 120 127 137 142 155 158 155 153 154 152 150 147 143 141 136 139 137 132 131 130 123 119 118 124 121 118 109 110 106 106 100 96 98 89 80 68 91 110 49 27 37 59 69 76 94 96 96 77 42 92 98 66 55 63 99 93 100 104 116 130 130 135 140 145 144 144 145 148 153 153 159 160 158 151 145 150 154 157 155 156 145 145 156 131 121 113 107 91 76 76 73 84 88 101 96 94 95 108 127 144 151 157 155 148 145 134 138 136 137 131 129 126 122 114 113 115 122 121 105 105 103 96 95 95 92 87 76 55 135 168 84 13 33 47 64 73 82 92 93 101 83 83 90 87 55 64 83 109 87 100 105 120 133 136 141 143 143 142 146 149 153 151 161 157 156 152 150 150 159 160 161 162 161 142 140 154 141 128 124 133 130 117 106 96 82 93 96 81 80 69 76 89 107 113 110 106 106 103 103 111 120 122 122 118 112 108 100 109 118 111 106 106 101 97 96 93 90 82 72 71 110 133 90 16 35 46 57 67 77 87 97 101 108 110 114 106 72 63 78 107 106 89 94 110 126 132 137 141 144 145 144 146 152 149 155 155 156 156 140 149 156 165 164 168 167 154 139 134 151 143 118 122 135 142 142 140 140 137 105 91 79 66 66 65 70 67 69 72 78 73 75 77 77 84 88 86 88 92 94 99 109 103 110 111 102 101 100 97 84 80 72 67 93 90 60 29 41 39 59 70 71 77 89 98 105 115 126 119 68 60 82 102 112 93 87 100 114 122 135 135 142 144 140 143 150 150 152 155 158 157 142 142 156 157 168 170 171 161 153 134 128 140 149 111 116 134 151 153 166 200 163 137 117 106 98 86 80 76 71 70 66 63 63 65 63 53 48 42 57 69 88 94 97 114 117 117 109 108 95 90 82 86 60 25 55 55 46 55 38 43 51 66 79 81 88 91 99 110 117 119 46 63 81 107 110 98 92 92 102 116 129 129 138 141 141 141 147 149 153 159 157 157 157 156 151 160 169 170 167 166 161 144 136 121 136 140 115 108 125 133 140 155 146 135 136 132 130 122 123 115 102 101 78 71 64 57 54 54 66 80 83 92 98 104 105 119 123 116 110 106 90 87 92 79 36 33 41 49 55 50 46 47 36 53 81 75 74 83 85 96 96 104 35 59 87 102 108 100 89 93 94 105 117 128 133 138 134 142 142 146 153 159 158 159 162 163 160 149 165 167 166 169 165 156 147 136 119 121 137 122 107 103 115 115 115 116 118 119 123 124 119 113 104 110 94 82 77 76 73 82 95 106 117 126 113 120 116 124 121 113 106 101 86 96 95 49 36 34 43 54 48 48 51 44 35 43 74 83 76 61 65 82 89 87 30 63 90 102 107 107 89 79 95 96 98 120 126 134 130 139 144 144 153 155 160 161 164 163 164 152 157 172 171 168 172 166 162 149 135 125 115 120 124 112 102 100 97 102 102 105 106 102 105 105 93 91 91 79 77 89 92 88 104 117 130 128 125 129 125 121 119 111 100 92 97 97 83 33 39 43 45 51 43 48 51 42 46 51 56 91 88 71 58 67 72 83 27 66 90 101 106 103 100 74 74 94 95 102 115 125 127 129 140 141 145 153 160 165 163 164 161 159 158 166 167 168 179 174 170 164 157 150 124 119 110 108 108 97 95 94 100 99 92 90 95 87 82 80 83 88 91 100 92 101 119 125 126 129 129 128 126 116 113 109 91 97 98 86 52 49 35 50 43 50 42 57 50 53 54 51 50 63 99 97 76 72 68 70 24 68 95 104 106 105 98 89 65 79 84 97 98 120 119 128 132 140 146 147 156 161 164 161 160 161 162 162 164 172 177 174 170 172 170 164 154 136 125 119 113 109 103 92 100 94 89 87 90 88 93 92 93 99 91 95 101 113 124 119 121 126 128 123 121 114 104 96 94 100 92 73 42 45 42 45 51 48 55 55 53 54 53 51 61 56 71 98 103 87 67 75 18 74 99 107 106 102 98 89 80 68 73 92 95 99 113 115 127 130 142 145 152 157 162 160 159 161 164 166 163 171 174 175 176 176 175 172 169 162 156 145 137 135 128 113 105 110 101 99 99 94 95 91 96 97 103 112 118 113 118 120 124 129 125 120 115 106 100 91 97 95 71 48 44 40 45 53 56 51 51 57 53 55 49 57 57 61 64 67 87 103 91 78 15 84 103 111 108 104 100 95 83 75 73 72 90 93 98 103 118 125 129 143 149 150 157 162 161 159 161 167 166 169 179 175 180 181 181 178 185 178 177 170 163 156 148 140 134 134 132 125 125 115 117 110 113 113 121 120 122 115 118 116 125 127 123 113 110 101 94 92 95 81 52 47 53 48 50 52 54 49 55 52 53 55 54 59 56 56 67 65 66 82 94 95 16 93 112 110 109 110 100 98 91 81 74 80 74 87 93 96 100 116 125 130 139 145 145 155 153 157 157 162 163 165 177 172 178 181 178 178 181 184 179 186 183 177 167 168 159 160 154 147 150 138 131 133 132 128 127 126 125 111 117 123 128 122 116 107 100 95 94 98 83 58 52 49 54 52 50 52 53 47 59 49 56 51 56 53 56 58 64 65 68 64 70 79 18 99 114 115 113 112 105 102 91 83 78 81 78 76 80 96 93 98 110 118 126 133 137 148 149 145 152 157 155 158 169 174 173 180 179 178 176 180 172 180 183 181 174 172 168 166 158 151 153 144 138 140 134 131 129 125 116 111 122 126 124 117 106 101 96 90 96 104 61 46 51 53 55 51 49 52 51 51 54 53 51 53 59 48 57 57 63 64 66 70 66 70 22 104 120 119 116 112 110 103 96 92 84 83 79 80 79 77 88 96 95 98 110 116 124 129 146 144 149 152 151 152 162 163 169 176 178 171 174 175 174 176 180 174 170 171 172 166 156 149 148 141 144 137 133 131 126 117 114 112 121 117 117 106 99 96 87 93 111 147 84 51 45 52 55 50 52 53 51 55 51 56 54 53 55 53 58 55 59 66 66 68 68 66 20 104 126 124 118 117 112 106 102 94 88 86 80 79 82 77 80 84 97 93 96 100 110 116 137 142 144 147 150 153 155 157 160 169 176 169 167 178 175 175 174 173 172 168 173 164 154 150 144 136 139 137 134 130 121 115 113 115 113 114 106 105 91 87 87 121 129 152 124 93 70 39 55 49 55 50 50 56 52 51 53 52 56 52 59 52 61 65 65 68 67 69 17 105 133 129 125 120 117 116 107 98 98 89 86 83 78 84 80 81 81 92 95 92 92 98 111 134 136 143 144 147 147 150 154 160 168 162 161 172 170 164 168 163 165 160 160 155 148 148 143 135 136 134 126 121 115 110 108 112 105 106 96 95 86 101 105 131 144 153 156 122 138 67 39 51 54 50 48 52 54 52 56 55 54 54 55 57 54 62 59 71 70 66 19 108 136 132 128 130 121 118 112 109 100 95 90 89 79 82 80 81 83 79 88 96 93 91 92 112 123 133 139 136 139 143 146 155 157 158 158 161 160 158 163 157 155 155 152 150 141 141 138 132 129 131 124 115 111 108 107 103 98 96 91 82 92 119 111 126 152 159 178 147 139 144 51 39 50 54 50 50 53 54 54 52 53 54 55 56 52 59 64 66 70 64 15 107 137 143 141 134 126 123 117 116 106 105 97 92 88 87 80 83 85 81 84 79 92 97 90 93 101 114 127 123 132 136 142 146 149 152 148 146 149 152 153 151 149 146 148 140 131 129 128 125 122 124 116 110 101 102 95 94 90 93 76 49 104 127 115 123 159 168 188 171 132 158 135 33 40 53 52 52 54 54 54 53 52 53 56 53 53 62 56 66 65 68 16 108 142 140 144 139 133 131 125 119 112 108 106 99 91 86 82 81 84 83 83 82 81 84 97 98 93 100 110 116 117 127 133 137 139 138 140 140 148 144 143 139 137 143 134 132 125 122 121 122 121 113 111 100 98 96 88 91 98 84 33 41 126 132 119 123 164 183 188 181 142 136 165 123 43 45 54 54 49 55 54 50 55 52 53 54 56 56 57 62 65 69 13 96 140 145 144 145 141 136 137 124 117 115 108 106 101 93 91 83 83 84 84 83 80 81 83 86 95 97 95 95 104 110 118 121 125 126 126 126 137 132 132 130 128 124 124 118 119 120 119 113 113 108 98 97 94 90 89 94 93 53 12 89 146 136 120 138 173 190 185 184 158 137 145 172 163 91 57 48 48 57 53 51 52 55 55 53 58 54 54 65 63 66 22 85 137 149 145 147 146 142 137 133 125 121 115 110 106 102 96 87 88 82 84 79 82 79 84 76 81 88 96 98 93 90 101 109 114 115 115 114 121 123 121 122 123 114 117 111 109 110 115 105 100 97 96 96 90 86 86 94 77 30 38 139 153 140 133 148 176 188 185 183 161 135 146 169 178 184 147 93 38 49 53 51 55 54 54 57 53 57 56 58 65 68 64 79 134 146 148 148 149 150 140 139 141 127 126 117 114 108 102 98 91 86 86 77 84 75 82 77 78 74 73 82 90 91 83 94 100 99 98 103 107 109 111 106 107 107 103 99 105 103 101 92 90 88 82 82 85 86 96 88 61 17 103 175 148 156 140 161 181 186 181 183 156 149 132 174 171 176 186 192 157 82 45 46 56 54 60 53 56 52 60 57 61 65 119 68 125 146 153 154 149 155 150 142 145 137 134 125 116 114 109 106 95 93 90 83 84 77 78 78 73 77 72 72 68 78 84 89 89 91 92 90 106 102 110 102 95 97 98 95 97 93 91 89 81 73 76 86 91 94 95 81 44 48 165 167 150 170 145 172 185 183 182 179 152 169 142 170 180 166 175 186 187 190 106 42 55 48 58 54 54 58 54 57 58 65 189 72 111 146 156 156 155 155 155 151 148 144 141 137 127 121 119 113 105 98 98 91 85 83 79 76 74 72 73 69 66 62 63 66 77 77 80 86 88 90 93 91 91 89 92 86 83 85 78 68 71 80 88 90 97 96 96 68 49 139 186 143 168 177 150 180 187 183 183 170 146 185 156 168 185 176 165 176 186 190 185 153 135 64 50 53 56 56 55 59 63 55 221 101 98 143 152 159 157 162 159 155 152 151 146 141 136 128 124 122 111 107 101 98 91 94 83 77 75 72 73 68 69 64 66 62 61 63 63 68 68 76 78 74 76 76 71 73 71 68 71 73 80 86 97 99 99 97 87 69 101 189 156 145 181 177 161 181 188 182 184 159 149 200 160 171 190 185 173 175 181 186 188 171 156 163 78 54 55 56 57 59 59 60 227 169 83 139 150 160 158 161 165 162 155 153 151 149 135 142 131 132 120 116 112 105 97 98 90 84 77 80 74 71 73 69 68 62 65 59 62 59 63 58 61 64 64 65 67 68 73 73 83 85 93 93 103 103 109 101 88 99 177 170 136 170 186 175 172 185 185 179 177 141 167 210 163 172 193 193 188 178 179 188 188 190 163 152 185 113 51 69 64 57 64 60 224 208 115 115 150 158 158 161 165 161 161 155 155 153 148 141 136 133 126 121 118 111 101 102 92 91 85 80 78 75 73 68 71 66 67 65 64 60 61 65 62 69 66 72 69 75 80 79 87 93 97 102 105 107 112 106 89 152 186 137 156 182 184 180 175 187 185 179 170 135 179 212 168 171 196 194 191 186 187 186 186 193 184 152 176 186 105 41 74 71 64 62 222 215 180 105 138 155 159 160 165 164 167 162 159 157 152 144 142 134 133 131 125 118 112 103 100 96 94 92 82 78 77 75 70 72 66 66 68 64 70 72 66 70 69 75 76 83 85 90 92 102 101 109 113 124 110 104 129 194 151 149 179 185 187 184 182 180 183 172 160 137 195 209 180 166 193 193 194 193 191 187 185 193 189 173 168 178 170 113 58 80 73 77 200 216 204 143 128 153 158 158 162 167 166 166 159 159 153 151 145 141 132 134 130 125 118 111 104 100 101 92 88 82 83 79 74 75 74 66 70 72 75 70 72 73 76 83 82 90 92 98 100 100 109 116 125 118 108 122 178 174 144 174 182 188 189 185 183 179 177 171 146 147 203 206 188 158 194 194 196 195 191 190 186 192 187 181 175 173 163 155 82 67 68 69 