P2
92
112
255
0 0 0 0 0 0 0 0 0 0 0 0 0 0 1 0 0 0 0 0 0 0 0 0 0 0 0 0 0 2 23 22 9 0 0 15 4 0 0 0 0 3 0 0 0 0 0 0 0 0 0 0 0 3 0 0 0 0 0 0 0 0 0 0 0 0 0 0 0 0 0 0 0 0 0 0 0 0 0 0 0 0 0 0 0 0 0 0 0 0 0 0 0 0 0 0 0 0 0 0 0 0 0 0 0 0 0 0 0 0 0 0 0 0 0 0 0 0 0 0 2 10 9 31 27 10 4 0 3 4 0 0 0 0 3 0 0 0 0 0 0 0 0 0 0 4 0 0 0 0 0 0 0 0 0 0 0 0 0 0 0 0 0 0 0 0 0 0 0 0 0 0 0 0 0 0 0 0 0 0 0 0 0 0 0 0 0 0 0 0 0 0 0 0 0 0 0 0 0 0 0 0 0 0 0 0 0 0 0 0 4 11 14 24 44 26 23 7 2 0 0 0 0 0 0 0 13 0 0 0 0 0 0 0 0 0 0 0 0 0 0 0 0 0 0 0 0 0 0 0 0 0 0 0 0 0 0 0 0 0 0 0 0 0 0 0 0 0 0 0 0 0 0 0 0 0 0 0 0 0 0 0 0 0 0 0 0 0 0 0 0 0 0 0 0 0 0 0 0 0 0 0 0 6 20 0 11 31 4 0 0 0 0 0 0 0 0 0 2 6 4 5 0 0 0 0 0 0 0 0 0 0 0 0 0 0 0 0 0 0 0 0 0 0 0 0 0 0 0 0 0 0 0 0 0 0 0 0 0 0 0 0 0 0 0 0 0 0 0 0 0 0 0 0 0 0 0 0 0 0 0 0 0 0 0 0 0 0 0 0 0 0 0 0 0 0 0 0 0 0 8 0 0 0 0 0 0 0 0 0 4 14 14 10 0 0 0 0 0 0 0 0 0 0 0 0 0 0 0 5 6 11 4 0 0 0 0 0 0 0 2 0 0 0 0 0 0 0 0 0 0 0 0 0 0 0 0 0 0 0 0 0 0 0 0 0 0 0 0 0 0 0 0 0 0 0 0 0 0 0 0 0 0 0 0 0 0 0 0 0 0 0 0 0 0 0 0 0 0 0 0 0 2 18 27 2 0 12 7 0 7 1 11 11 2 0 0 0 0 8 8 13 9 13 20 8 0 0 0 0 0 0 0 0 0 0 0 0 0 0 0 0 0 0 0 0 0 0 0 0 0 0 0 0 0 0 0 0 0 0 0 0 0 0 0 0 0 0 0 0 0 0 0 0 0 0 0 0 0 0 0 0 0 0 0 0 0 0 0 0 0 0 0 0 9 22 12 8 3 17 3 0 10 0 17 5 0 0 0 0 13 18 20 11 10 11 11 13 3 0 0 0 0 0 0 1 0 0 0 0 0 0 0 0 0 0 0 0 0 0 0 0 0 0 0 0 0 0 0 0 0 0 0 0 0 0 0 0 0 0 0 0 0 0 0 0 0 0 0 0 0 0 0 0 0 0 0 0 0 0 0 0 0 0 0 0 0 13 5 0 12 17 4 7 3 15 23 2 0 0 0 0 13 28 35 23 19 8 5 1 0 0 0 0 0 0 0 1 0 0 0 0 0 0 0 0 0 0 0 0 0 0 0 0 0 0 0 0 0 0 0 0 0 0 0 0 0 0 0 0 0 0 0 0 0 4 0 0 0 0 0 0 0 0 0 0 0 0 4 0 0 7 0 0 0 6 1 9 7 9 6 11 19 17 17 3 6 21 16 7 4 0 1 1 13 21 23 28 26 20 5 3 6 4 0 0 0 0 0 0 0 0 0 0 0 0 0 0 0 0 0 0 0 0 0 0 0 0 0 0 0 0 0 0 0 0 0 0 0 0 0 0 0 0 0 0 0 0 0 0 0 0 0 0 0 0 0 0 0 0 0 0 0 0 3 0 1 9 7 11 13 8 7 18 20 19 20 18 16 28 24 23 18 17 6 3 7 8 21 27 29 26 9 2 7 9 9 0 0 0 0 0 0 0 0 0 0 0 0 0 0 0 0 0 0 0 0 0 0 0 0 0 0 0 0 0 0 0 0 0 0 0 0 0 0 0 0 0 0 0 0 0 0 0 0 0 0 0 0 0 6 7 3 2 5 0 3 7 11 18 23 28 19 21 26 24 25 27 22 21 25 38 38 34 29 33 18 20 16 13 16 28 23 35 8 7 9 10 8 3 0 0 0 0 0 0 0 0 0 0 0 0 0 0 0 0 0 0 0 0 0 0 0 0 0 0 0 0 0 0 0 0 0 0 0 0 0 0 0 0 4 0 0 0 0 0 0 0 0 4 6 5 10 15 18 24 19 17 23 18 22 28 38 42 47 46 38 40 39 38 32 28 41 50 45 44 45 37 34 36 34 36 27 26 18 19 13 1 1 7 9 13 0 0 0 0 3 0 0 0 0 0 0 0 0 0 0 0 0 0 0 0 0 0 0 0 0 0 0 0 0 0 0 0 0 0 0 0 0 0 0 0 0 0 0 0 2 5 11 13 13 20 21 29 28 29 27 27 27 30 32 27 29 36 39 49 61 60 50 50 47 42 40 41 43 58 47 46 51 50 44 47 45 45 39 33 28 18 17 6 4 2 12 12 0 0 0 0 0 0 0 0 0 0 0 0 0 0 0 0 0 0 0 0 0 0 0 0 0 0 0 0 0 0 0 0 0 0 0 0 0 0 0 0 0 0 8 11 15 16 20 23 25 25 30 32 31 35 30 34 34 33 36 35 36 42 49 59 60 56 52 54 48 47 43 47 51 55 50 51 58 62 59 51 43 44 38 42 41 36 33 10 8 10 11 13 1 0 0 0 3 0 0 0 0 0 0 0 0 0 0 0 0 0 0 0 0 0 0 0 0 0 0 0 0 0 0 0 0 0 0 1 0 0 2 0 0 11 17 20 19 23 21 24 23 29 30 37 33 38 42 34 37 37 37 38 43 51 54 62 58 50 56 64 56 48 45 51 52 62 63 54 54 58 64 56 50 51 44 45 45 48 46 26 10 18 12 9 8 0 0 7 0 0 0 0 0 0 0 0 0 0 0 0 0 0 0 0 0 0 0 0 0 0 0 0 0 0 0 2 0 0 0 6 8 6 7 0 7 16 15 26 24 26 28 27 28 27 29 31 36 37 38 38 40 43 41 38 49 54 57 66 58 49 60 59 58 45 53 62 61 66 65 66 60 65 65 57 57 56 56 50 42 44 44 48 18 16 6 0 0 4 0 5 0 0 0 0 0 0 0 0 6 0 0 0 0 0 0 0 0 0 0 0 0 0 0 0 0 0 0 0 0 0 0 6 0 2 11 11 19 14 16 22 19 23 29 23 29 28 31 32 31 32 28 32 43 45 41 43 54 59 61 57 55 50 58 56 50 48 50 58 54 66 67 71 71 70 72 68 67 53 52 51 44 39 42 45 39 15 1 0 0 2 7 0 0 1 0 0 0 0 0 0 0 0 0 0 0 0 0 0 0 0 0 0 0 0 0 1 0 0 0 0 0 0 0 0 0 8 20 18 23 18 20 22 17 19 26 28 28 36 34 32 28 30 29 33 41 37 38 46 52 51 54 46 53 55 60 54 50 47 50 51 46 55 62 60 71 69 69 64 61 55 44 45 42 40 40 42 43 37 9 0 2 9 5 0 0 0 0 0 0 0 0 0 0 0 0 0 0 0 0 0 0 0 0 0 0 0 0 0 0 0 0 0 0 0 5 12 13 20 23 25 25 27 26 20 20 19 21 27 32 43 33 31 30 31 30 30 36 34 33 39 37 38 39 41 45 53 51 51 43 37 46 40 43 49 48 52 53 59 46 50 49 48 44 39 38 40 37 36 39 37 30 15 22 17 16 16 3 0 0 0 0 0 0 0 0 0 0 0 0 0 0 0 0 0 0 0 0 0 0 2 0 0 0 0 0 0 10 20 25 29 32 30 27 25 31 22 20 18 18 32 37 41 33 27 27 31 32 28 31 31 23 31 29 31 30 31 37 38 40 34 33 35 31 26 32 34 32 42 42 44 38 37 35 36 34 31 32 34 34 34 35 32 33 33 29 31 27 20 14 0 1 0 0 18 0 0 0 0 7 0 0 0 0 0 0 0 0 0 0 0 0 0 0 2 6 0 0 0 0 22 34 31 35 29 34 28 31 26 26 23 27 36 34 31 24 18 17 28 27 26 20 21 19 27 19 26 26 27 29 29 28 26 25 25 20 17 27 25 21 33 28 25 26 25 24 28 28 20 27 28 31 33 37 40 33 40 42 39 33 25 24 10 3 0 1 0 11 0 0 0 0 0 0 0 0 0 0 0 0 0 0 0 0 0 0 0 0 0 0 0 0 16 28 30 32 29 29 27 25 30 30 32 30 30 30 22 18 13 11 17 17 12 10 19 17 20 12 14 15 18 19 25 25 18 14 16 12 13 25 16 18 24 25 22 20 21 21 22 23 21 20 26 22 29 31 38 44 52 49 45 38 24 16 7 3 0 0 0 0 0 0 0 0 0 0 0 0 0 0 0 0 0 0 0 0 0 2 0 0 0 0 0 0 12 19 25 28 24 21 24 29 30 29 32 28 26 22 19 11 12 9 11 6 5 8 14 6 7 10 9 11 14 11 19 17 14 12 7 7 10 16 9 12 15 12 15 15 12 16 17 17 20 20 19 23 22 26 30 39 49 58 57 45 32 26 12 0 0 0 0 5 0 0 0 0 0 0 0 0 0 0 0 0 0 0 0 0 0 0 0 0 0 0 0 0 0 17 20 23 20 20 18 22 23 21 19 18 14 13 10 10 2 0 1 1 0 0 0 0 0 1 1 5 5 5 9 6 10 5 1 7 12 6 7 11 11 11 9 11 11 8 13 14 16 15 11 18 16 17 22 28 39 48 59 52 37 31 20 2 0 0 0 6 0 0 0 0 0 0 0 0 0 0 0 0 0 0 0 0 1 0 0 0 0 0 0 0 0 8 13 12 16 10 9 6 3 4 3 3 3 4 1 0 0 0 0 0 0 0 0 0 0 0 4 3 7 3 5 7 4 4 0 9 7 0 3 6 6 7 3 6 6 8 6 10 12 11 11 12 14 11 15 22 27 39 50 54 42 33 22 13 0 0 0 0 0 0 1 0 0 0 0 0 0 0 0 0 0 0 0 6 0 0 0 0 0 0 0 0 0 5 3 7 5 2 0 0 0 0 0 0 0 0 0 0 0 0 0 0 0 0 0 0 0 0 0 1 0 0 2 1 0 0 5 6 0 1 2 2 3 5 3 4 4 1 4 5 9 9 8 10 10 11 12 21 24 28 36 41 50 30 23 5 7 0 0 0 0 0 0 0 0 0 0 0 0 0 0 0 0 0 0 0 0 0 0 0 0 0 0 0 0 0 0 3 2 0 0 0 0 0 0 0 0 0 0 0 0 0 0 0 0 0 0 0 0 0 0 0 0 2 1 0 0 1 0 0 0 0 0 0 0 0 0 3 1 4 4 4 6 3 6 6 9 10 14 12 24 23 24 34 47 35 14 5 0 0 0 4 0 0 0 0 0 0 0 0 0 0 0 0 0 0 0 0 0 0 0 0 0 0 0 0 0 0 0 0 0 0 0 0 0 0 0 0 0 0 0 0 0 0 0 0 0 0 0 0 0 0 0 0 0 0 0 0 0 0 0 0 0 0 0 0 0 0 0 0 3 3 2 3 2 1 1 3 6 9 12 15 18 21 19 24 33 32 20 0 0 0 0 0 10 8 0 0 0 0 0 0 0 0 0 0 0 13 0 0 0 0 0 0 0 0 0 0 0 0 0 0 0 0 0 0 0 0 0 0 0 0 0 0 0 0 0 0 0 0 0 0 0 0 0 0 0 0 0 0 0 0 0 0 0 0 0 0 0 0 0 0 0 3 3 4 0 0 1 6 3 7 10 13 15 19 17 22 26 24 23 0 0 0 0 0 2 0 0 0 0 0 0 0 0 0 0 0 0 0 0 0 0 0 0 0 0 0 0 0 0 0 0 0 0 0 0 0 0 0 0 0 0 0 0 0 0 0 0 0 0 0 0 0 0 0 0 0 0 0 0 0 0 0 0 0 0 0 0 0 0 0 0 0 0 1 3 3 0 1 2 2 2 7 9 14 18 19 17 16 20 16 20 1 0 0 0 0 0 0 0 0 0 0 0 0 0 0 0 0 0 0 0 0 0 0 0 0 0 0 0 0 0 0 0 0 0 0 0 0 0 0 0 0 0 0 0 0 0 0 0 0 0 0 0 0 0 0 0 0 0 0 0 0 0 0 0 0 0 0 0 0 0 0 0 0 0 0 2 3 0 1 6 2 3 7 10 14 20 19 14 17 14 14 11 3 0 0 0 0 0 0 0 0 0 0 0 0 0 0 0 0 2 0 0 0 0 0 0 0 0 0 0 0 0 0 0 0 0 0 0 0 0 0 0 0 0 0 0 0 0 0 0 0 0 0 0 0 0 0 0 0 0 0 0 0 0 0 0 0 0 0 0 0 0 0 0 0 0 0 3 4 2 3 3 3 5 7 10 14 18 15 15 15 20 6 13 1 0 0 0 0 0 0 0 0 0 0 0 0 0 0 0 0 0 0 0 0 0 0 0 0 0 0 0 0 0 0 0 0 0 0 0 0 0 0 0 0 0 0 0 0 0 0 0 0 0 0 0 0 0 0 0 0 0 0 0 0 1 0 0 0 0 0 0 0 0 0 0 0 0 0 0 1 1 5 4 3 8 12 11 14 18 16 11 16 19 13 7 0 0 0 0 0 0 0 0 0 0 0 0 0 0 0 0 0 0 0 0 0 0 0 0 0 0 0 0 0 0 0 0 0 0 0 0 0 0 0 0 0 0 0 0 0 0 0 0 0 0 0 0 0 0 0 0 0 0 0 2 3 0 2 0 0 0 0 0 0 0 0 0 0 0 0 2 0 2 2 2 6 8 11 15 18 15 17 13 14 19 9 14 0 0 0 0 0 0 0 0 0 0 0 0 0 0 0 0 0 0 0 0 0 0 0 0 0 0 0 0 0 0 2 3 0 0 0 0 0 0 0 0 0 0 0 0 0 0 0 0 0 0 0 0 0 0 0 0 0 0 4 3 3 3 0 1 3 0 0 0 0 0 0 0 0 0 0 0 0 0 2 6 7 7 15 14 17 14 15 16 13 16 16 5 2 0 0 0 0 0 0 0 0 0 0 0 0 0 0 0 0 0 0 0 0 0 0 0 0 0 0 0 0 4 5 3 0 0 0 0 0 0 0 0 0 0 0 0 0 0 0 0 0 0 0 0 0 0 4 6 0 0 3 2 3 4 0 1 0 0 0 0 0 0 0 0 0 0 0 0 1 1 2 8 9 11 14 15 17 18 18 17 14 13 20 7 4 0 0 0 0 0 0 0 0 0 0 0 0 0 0 0 0 0 0 0 0 0 0 0 0 0 0 0 0 3 4 0 0 0 0 0 0 0 0 0 0 0 0 0 0 0 0 0 0 0 0 0 0 0 1 5 0 3 2 0 0 1 0 1 0 0 0 0 0 0 0 0 0 0 0 0 1 2 3 9 9 13 13 14 17 18 19 18 10 14 18 16 0 0 0 0 3 0 0 0 0 0 0 0 0 0 0 0 0 0 0 0 0 0 0 0 0 0 0 0 9 4 4 0 0 0 0 0 0 0 0 0 0 0 0 0 0 0 0 0 0 0 0 0 0 0 1 2 2 3 0 2 1 3 3 1 0 0 0 0 0 0 0 0 0 0 0 0 1 7 10 10 12 13 13 20 17 21 18 19 11 14 17 17 6 0 0 0 0 0 0 0 0 0 0 0 0 0 0 0 0 0 0 0 0 0 0 0 0 0 0 3 11 0 0 0 0 0 0 0 0 0 0 0 0 0 0 0 0 0 0 0 0 0 0 0 0 0 0 4 0 2 1 4 2 3 7 4 5 0 0 0 0 0 0 0 0 0 0 2 2 10 10 8 12 12 15 19 19 16 17 16 15 15 19 15 14 0 0 0 0 0 0 0 0 0 0 0 0 0 0 0 0 0 0 0 0 0 0 0 0 0 0 13 10 0 0 0 0 0 0 0 0 0 0 0 0 0 0 0 0 0 0 0 0 0 0 0 0 3 0 2 0 0 2 0 0 5 5 5 2 1 2 0 0 0 4 0 0 2 3 5 7 11 8 11 16 18 15 19 22 20 18 16 13 18 18 15 20 3 0 0 0 0 0 0 0 0 0 0 0 0 0 0 0 0 0 0 0 0 0 0 0 0 0 12 4 0 0 0 0 0 0 0 0 0 0 0 0 0 0 0 0 0 0 0 0 0 0 0 0 0 1 0 1 0 1 0 0 3 3 4 6 1 5 4 4 4 3 2 3 7 7 8 7 11 8 9 13 19 22 16 23 23 22 18 16 17 20 16 17 5 0 0 0 0 0 0 0 0 0 0 0 0 0 0 0 0 0 0 0 0 0 0 0 0 0 7 2 0 0 0 0 0 0 0 0 0 0 0 0 0 0 0 0 0 0 0 0 2 6 1 6 2 4 0 2 0 2 0 0 4 4 5 8 6 4 6 5 7 8 7 12 9 8 9 10 5 8 8 15 14 16 15 17 24 28 33 19 13 18 17 19 1 0 0 0 0 0 0 0 0 0 0 0 0 0 0 0 0 0 0 0 0 0 0 0 0 2 5 0 0 0 0 0 0 0 0 0 0 0 0 0 0 2 0 3 3 5 0 5 8 10 8 11 5 10 10 8 4 0 0 0 2 7 10 16 16 12 14 18 14 14 7 4 4 0 0 0 0 1 0 0 8 8 12 6 10 19 26 24 20 13 21 19 11 0 0 0 0 0 0 0 0 0 0 0 0 0 0 0 0 0 0 0 0 0 0 0 0 1 1 0 0 0 1 0 0 0 0 0 0 0 0 0 0 0 0 0 4 15 9 10 11 4 6 3 0 0 0 0 0 0 9 18 17 20 24 22 30 26 18 15 10 0 0 0 0 0 0 0 0 0 0 0 0 4 9 2 9 14 17 11 26 18 15 25 22 0 0 0 0 0 4 0 0 0 0 0 0 0 0 0 0 0 0 0 0 0 0 0 0 1 0 0 0 0 3 0 0 0 0 0 0 0 0 0 0 0 0 0 0 0 0 0 0 0 7 10 9 13 13 10 10 13 13 13 8 13 17 22 25 17 21 15 8 0 0 0 0 0 0 0 0 0 0 0 0 0 6 5 9 6 13 11 14 23 16 22 30 0 0 0 0 0 2 0 0 0 0 0 0 0 0 0 0 0 0 0 0 0 0 0 0 0 4 0 0 0 0 0 0 0 0 0 0 0 0 0 0 0 0 0 0 0 0 0 8 22 33 32 26 29 25 23 18 23 21 22 14 23 27 39 30 28 19 22 14 0 0 0 0 0 0 0 3 10 4 12 22 21 23 24 20 11 11 11 4 9 16 21 37 0 0 0 0 0 0 0 0 0 9 0 0 0 0 0 0 0 0 0 0 0 0 0 0 3 6 0 0 0 0 0 0 0 9 5 0 7 8 4 6 10 6 5 9 7 15 21 26 25 23 38 39 22 23 14 10 8 13 18 10 14 35 39 26 23 18 22 15 8 11 21 0 0 9 19 20 24 21 24 26 31 38 46 38 38 26 17 0 4 17 21 38 7 0 0 0 0 0 0 0 0 0 0 0 0 0 0 0 0 0 0 0 0 0 0 0 6 2 0 0 0 0 2 0 3 13 18 14 27 6 0 0 25 17 12 17 21 21 23 31 30 34 35 60 34 43 27 24 18 25 27 19 32 42 31 27 28 32 30 27 13 12 19 0 0 6 3 10 14 23 24 25 31 40 43 43 34 25 39 14 7 16 23 44 20 0 0 0 0 0 0 0 12 4 0 0 0 0 0 0 0 0 0 0 0 0 0 0 11 5 3 0 8 8 1 19 24 33 35 37 38 22 12 8 15 0 0 0 0 0 0 8 27 27 32 55 43 42 39 33 12 17 34 35 47 16 34 28 31 37 33 31 0 0 0 0 0 0 0 0 0 0 0 0 2 15 24 36 41 19 14 49 16 18 43 48 26 7 0 0 0 0 0 51 87 55 43 0 0 0 14 37 24 17 0 0 0 0 0 0 17 10 10 15 14 12 8 34 51 45 44 28 9 0 0 0 0 0 0 0 0 0 0 0 18 19 26 44 49 36 24 40 19 29 52 52 53 27 31 33 33 36 33 18 0 0 0 4 43 28 0 23 17 0 0 0 7 0 0 5 27 19 9 39 45 21 47 45 35 19 0 0 0 7 43 72 95 68 60 52 0 0 50 45 51 37 13 0 0 0 0 0 28 21 12 30 10 27 19 39 54 28 10 0 0 0 0 0 8 0 0 0 11 0 0 0 0 20 27 45 49 47 51 53 46 45 58 49 49 36 36 30 28 25 31 9 0 2 11 17 43 34 0 0 0 0 7 0 35 48 0 0 0 12 11 37 49 42 37 35 43 38 0 0 13 37 73 83 89 59 53 81 7 0 62 39 59 59 39 24 0 0 0 5 32 36 16 34 19 32 25 42 28 0 0 6 34 0 0 0 0 0 0 0 11 24 3 0 6 6 36 35 44 54 56 51 50 43 57 59 45 31 34 22 14 16 15 0 10 0 22 28 44 57 0 0 0 0 49 26 56 43 8 0 0 0 16 34 43 42 37 29 48 53 0 0 26 64 79 80 71 35 65 53 79 0 34 37 35 69 54 49 33 17 0 10 16 42 13 32 28 29 26 27 3 0 17 27 46 58 10 0 0 0 0 0 40 30 17 12 16 0 17 38 32 45 35 36 19 21 34 54 51 37 29 15 6 7 0 0 0 0 12 27 37 54 59 19 2 0 19 43 39 15 11 4 0 0 12 32 45 37 43 35 47 58 0 7 43 74 78 60 66 49 62 42 87 6 23 32 40 37 59 57 50 41 0 16 11 46 22 27 33 40 24 34 4 0 0 8 93 85 89 0 0 0 3 16 31 15 25 12 14 0 13 37 34 48 32 34 24 21 34 63 54 44 41 23 7 0 0 5 12 20 26 29 29 32 45 30 17 17 12 16 6 11 8 4 0 0 13 40 52 29 41 33 37 46 25 27 63 81 39 50 74 66 47 46 50 77 9 24 41 45 14 57 62 56 27 15 18 44 42 31 43 51 25 33 4 9 0 0 15 49 36 12 2 4 3 0 18 18 20 30 22 8 12 30 28 46 24 25 18 20 31 67 49 46 42 32 9 0 0 0 14 19 21 17 33 38 34 27 18 17 22 32 37 24 21 15 12 8 18 43 48 35 47 45 39 39 31 38 68 56 15 54 76 65 53 38 27 99 1 25 49 58 45 8 62 63 43 22 13 44 59 39 60 44 21 32 16 13 22 11 14 11 12 8 0 3 4 2 5 10 16 21 19 11 21 29 24 37 26 18 16 16 23 55 52 45 39 33 25 6 0 0 0 4 15 21 22 23 26 23 18 26 36 49 58 50 36 31 27 31 28 36 44 43 57 42 35 37 33 46 68 25 12 50 82 66 59 28 20 83 2 34 45 57 43 8 41 67 44 27 14 54 58 34 51 33 19 37 30 25 29 38 30 28 26 24 7 5 1 0 6 9 10 5 5 14 25 22 17 26 20 12 12 10 21 45 45 39 43 21 38 15 4 0 0 10 17 19 27 22 22 19 14 25 40 51 51 49 43 36 36 37 30 36 45 49 57 38 39 32 34 42 58 32 30 59 80 63 66 25 23 61 21 38 54 62 50 40 40 65 46 22 34 41 51 27 37 27 15 35 29 32 28 44 47 36 26 26 8 2 2 4 3 7 3 0 0 13 28 14 22 16 8 5 7 11 12 24 33 38 35 30 34 25 7 10 9 11 23 26 28 22 22 23 16 20 29 35 39 36 35 34 35 29 27 34 40 55 55 39 41 33 30 47 17 50 60 64 72 63 64 44 20 54 34 46 54 53 53 52 14 22 46 20 31 31 42 22 38 29 15 27 29 24 27 38 39 31 26 18 3 1 0 2 1 1 0 0 6 21 19 6 26 15 6 5 3 8 9 17 16 34 29 29 28 22 16 11 16 19 17 24 24 23 21 20 18 15 14 13 21 24 27 23 26 21 23 27 37 54 54 38 41 30 26 33 0 0 10 40 51 58 61 66 19 58 40 44 41 30 15 0 0 0 32 22 17 26 39 28 31 30 9 12 18 17 16 23 19 17 14 8 5 1 2 6 3 0 0 0 18 16 6 15 19 15 2 0 0 3 6 18 16 22 30 20 24 22 11 23 16 20 19 13 20 23 22 22 17 12 18 12 17 21 20 18 14 19 19 27 21 55 46 40 35 27 28 35 0 4 0 5 32 45 54 72 19 73 36 43 28 0 0 0 5 0 0 23 10 18 29 31 24 30 17 7 17 13 13 16 15 14 5 4 2 4 0 0 0 0 0 11 22 8 0 20 3 6 0 0 0 0 4 8 23 17 34 10 11 16 7 13 28 21 14 13 11 12 16 19 17 17 16 16 20 21 19 17 14 16 20 23 18 55 38 36 35 23 24 48 0 20 20 0 17 35 44 71 22 88 41 40 24 0 0 6 1 0 0 11 20 9 23 32 15 30 29 3 14 11 6 11 7 4 0 3 0 0 0 0 0 0 4 22 14 1 7 6 5 0 0 0 0 0 2 4 21 23 19 26 5 11 6 6 19 31 22 13 13 9 11 11 10 16 14 14 24 22 16 13 16 17 30 26 41 40 34 33 31 26 29 45 3 15 31 3 12 29 51 66 36 92 39 36 27 0 0 26 0 0 0 0 21 31 18 33 12 35 34 16 8 3 0 0 0 0 0 0 0 0 0 0 0 5 15 13 4 3 14 2 8 0 0 0 0 0 2 7 20 24 16 27 30 4 4 5 5 20 34 32 22 15 8 7 10 11 14 17 16 18 15 18 24 30 35 30 42 33 36 35 28 28 37 45 27 0 27 6 16 33 54 61 62 85 36 34 27 0 0 10 0 8 1 0 10 31 36 17 8 25 30 21 16 2 0 0 0 0 0 0 0 0 0 0 0 10 6 3 3 19 8 14 2 0 0 1 0 0 0 7 15 27 25 21 27 31 11 7 9 10 18 29 33 30 22 17 15 16 19 21 24 25 26 30 27 24 19 36 33 33 33 36 28 28 30 47 29 6 21 4 17 32 66 54 83 49 26 42 31 0 0 0 0 19 3 0 1 20 25 23 36 0 20 19 18 4 0 0 0 0 0 0 0 0 0 3 3 9 2 4 27 19 14 7 0 0 0 0 0 0 0 14 18 25 26 19 19 24 31 6 11 11 12 17 19 15 17 20 16 18 19 23 22 22 17 20 15 13 24 34 29 35 29 34 30 26 26 32 23 10 22 3 43 49 67 56 93 22 27 52 47 32 0 0 0 13 10 1 0 16 18 19 34 33 24 29 27 8 0 0 0 0 0 3 6 6 0 2 1 4 8 27 26 24 14 0 0 0 0 0 0 0 0 17 23 23 20 20 26 30 21 18 28 14 11 12 13 8 9 11 6 7 11 14 15 13 11 13 12 25 24 25 28 32 25 31 27 30 29 12 23 60 52 43 61 55 54 74 77 0 55 33 54 60 14 4 0 0 20 3 0 15 20 26 20 38 16 18 39 26 6 6 1 2 6 4 0 0 0 0 0 14 25 29 29 22 0 0 0 0 0 16 15 7 4 19 26 24 14 17 19 27 28 21 34 40 30 9 15 0 5 2 4 5 4 4 4 6 11 17 20 16 17 21 26 30 25 25 25 25 22 2 24 69 67 59 62 45 54 92 41 0 67 32 31 54 28 15 14 0 0 2 4 13 23 28 27 25 30 15 12 19 10 8 4 6 2 7 6 5 0 3 11 20 24 26 22 11 0 0 0 0 16 24 21 15 18 23 29 24 10 13 10 17 18 21 30 37 37 47 36 18 15 11 12 14 12 17 16 18 20 15 12 14 18 21 25 28 29 24 26 22 16 6 43 67 67 63 44 38 70 71 0 0 18 63 29 31 27 24 34 6 0 4 4 13 22 30 29 25 26 21 20 26 24 20 22 17 15 10 6 6 3 11 15 15 15 18 19 13 2 2 3 14 26 25 19 16 23 22 28 22 16 10 10 9 4 4 19 25 36 42 32 26 26 18 17 20 18 17 16 12 16 16 14 16 19 26 28 25 28 26 29 29 10 18 48 65 61 60 38 52 75 22 0 0 0 51 49 31 37 33 39 29 13 0 2 9 21 27 30 20 19 17 10 12 8 11 8 1 3 0 0 1 1 5 7 8 13 23 31 21 10 13 17 23 31 26 14 15 23 29 28 31 20 16 10 12 0 0 6 8 16 22 25 23 24 16 19 17 20 20 21 19 19 21 20 23 24 27 28 24 28 30 30 32 13 24 53 53 55 50 40 65 27 0 0 0 0 0 42 32 41 37 38 28 27 0 4 6 15 26 25 22 14 18 12 10 14 9 10 3 4 0 0 0 0 0 7 13 22 35 45 37 27 20 28 32 30 30 28 22 42 55 44 34 20 15 6 10 0 0 0 2 8 11 18 17 21 16 15 18 15 20 21 25 24 23 24 22 27 31 28 24 31 36 28 25 9 24 36 41 56 34 37 21 0 0 0 0 0 0 0 13 34 49 34 11 20 0 0 3 13 34 29 25 22 21 15 20 17 14 16 11 6 0 0 0 0 4 13 20 33 42 49 48 46 36 37 34 28 28 44 40 41 52 44 41 23 6 0 11 5 1 0 0 3 13 17 20 19 16 14 17 20 19 25 29 28 26 27 26 26 32 30 25 30 33 24 23 5 27 36 45 47 8 0 0 0 0 0 0 0 0 0 0 0 56 59 15 26 10 0 2 17 37 25 28 23 26 23 31 22 20 19 15 12 2 0 0 4 7 18 26 40 44 52 48 53 56 46 28 25 24 52 57 47 47 42 50 21 0 0 2 17 9 1 0 5 17 18 22 23 23 14 21 20 23 28 28 31 34 33 33 31 34 32 28 29 26 22 17 16 33 43 34 2 0 0 0 0 0 0 0 0 0 0 0 0 2 57 46 38 36 0 6 19 28 24 35 29 32 33 35 29 22 25 21 18 8 9 8 9 11 23 32 40 50 47 30 45 55 23 0 12 35 38 51 52 50 50 31 11 0 0 0 18 18 4 0 10 21 23 25 29 29 25 25 25 30 28 28 32 35 33 38 34 40 33 31 29 23 24 14 16 15 0 0 0 0 0 0 0 0 0 0 0 0 0 0 0 0 0 15 32 37 1 7 16 27 21 42 38 42 37 34 28 28 25 28 29 22 18 22 19 19 24 43 51 51 44 12 8 27 24 23 40 43 42 39 42 46 39 31 18 2 0 0 0 5 0 0 18 27 28 29 33 32 32 30 30 28 29 32 36 33 34 39 37 38 38 29 26 24 27 17 0 0 0 0 0 0 0 0 0 0 0 0 0 0 0 0 0 0 0 0 0 0 0 9 16 31 22 44 47 47 36 34 26 25 29 36 38 35 33 29 26 29 31 48 60 62 55 31 6 10 21 36 46 47 35 38 40 39 33 21 18 18 5 0 0 0 1 17 31 33 32 29 32 37 34 39 34 36 33 39 41 40 33 44 38 40 39 32 27 22 34 2 0 0 0 0 0 0 0 0 0 0 0 0 0 0 0 0 0 0 0 0 0 0 0 15 15 32 30 45 53 50 40 34 34 29 34 40 40 41 40 35 34 34 40 44 52 50 46 27 12 19 25 36 43 46 41 41 49 41 31 27 27 36 21 14 17 23 22 31 41 36 34 33 34 40 36 42 39 43 43 40 43 44 39 45 38 42 43 33 26 22 39 0 0 0 0 0 0 0 0 0 0 0 0 0 0 0 0 0 0 0 0 0 0 0 0 0 21 29 36 48 52 45 41 35 39 33 38 40 44 41 38 32 37 35 40 40 39 26 31 17 10 12 18 26 33 40 42 53 53 48 38 39 35 35 33 33 32 37 35 35 41 38 34 36 40 39 38 39 43 44 47 41 44 48 42 44 47 45 46 35 28 27 29 0 0 0 0 0 0 0 0 0 0 0 0 0 0 0 0 0 0 0 0 0 0 0 0 0 26 25 40 49 47 48 43 42 40 38 37 45 45 42 38 40 37 34 37 35 36 25 23 15 9 8 13 13 28 35 47 55 60 54 48 46 36 39 39 38 41 45 43 39 48 49 39 41 41 44 44 43 48 47 51 45 45 48 45 45 47 48 45 38 34 36 18 0 0 0 0 0 0 0 0 0 0 0 0 0 0 0 0 0 0 0 0 0 0 0 0 0 24 20 34 37 48 47 45 47 43 43 36 43 42 45 41 37 39 36 30 26 27 24 18 14 1 4 6 16 29 35 44 53 62 56 54 44 42 43 38 36 42 48 43 44 49 57 53 48 46 45 47 52 52 48 55 53 53 50 44 49 50 52 46 43 34 47 0 0 0 0 0 0 0 0 0 0 0 0 0 0 0 0 0 0 0 0 0 0 0 0 0 0 10 20 27 30 46 48 48 50 45 44 41 40 42 42 40 41 32 31 22 23 17 17 15 15 6 8 19 26 32 32 39 57 57 52 54 44 44 31 30 37 33 42 43 39 54 55 57 56 52 49 50 57 53 54 55 56 56 50 47 51 51 53 49 43 40 39 0 0 0 0 0 0 0 0 0 0 0 0 0 0 0 0 0 0 0 0 0 0 0 0 0 0 0 21 28 25 46 47 48 49 43 42 42 44 39 39 36 35 31 29 30 25 20 16 17 17 15 19 27 33 30 36 34 45 34 37 39 36 45 29 24 35 26 34 38 42 49 48 54 59 62 56 52 59 51 53 54 60 56 47 50 54 56 53 46 41 43 23 0 0 0 0 0 0 0 0 0 0 0 0 0 0 0 0 0 0 0 0 0 0 0 0 0 0 0 24 25 28 41 50 50 47 45 45 44 44 38 42 37 32 33 29 32 29 24 25 28 21 23 29 34 34 31 30 22 27 14 9 21 24 36 46 32 42 36 40 30 38 31 37 39 50 53 52 48 52 48 48 53 54 56 48 48 52 52 50 43 41 44 3 0 0 0 0 0 0 0 0 0 0 0 0 0 0 0 0 0 0 0 0 0 0 0 0 0 0 0 16 25 31 37 54 49 49 50 49 49 47 45 45 43 36 31 38 38 42 43 41 38 30 33 41 37 30 36 32 26 26 24 26 34 42 48 58 49 39 33 31 30 35 31 41 45 43 45 43 44 47 47 48 53 51 54 46 49 51 50 44 44 41 38 0 0 0 0 0 0 0 0 0 0 0 0 0 0 0 0 0 0 0 0 0 0 0 0 0 0 0 0 0 21 27 38 55 55 56 58 54 58 55 51 45 50 42 39 42 45 48 49 55 57 59 62 63 37 26 24 30 28 20 22 26 38 48 44 45 39 36 33 35 34 38 39 45 48 46 46 46 45 41 48 53 51 51 50 50 52 50 47 45 40 48 21 0 0 0 0 0 0 0 0 0 0 0 0 0 0 0 0 0 0 0 0 0 0 0 0 0 0 0 0 0 27 29 39 55 50 65 64 65 75 58 53 47 46 48 43 39 40 43 60 67 79 75 70 67 48 32 32 41 30 27 29 22 26 29 25 32 25 33 34 38 42 41 45 50 53 53 54 54 48 43 45 51 53 48 49 47 53 50 48 43 39 46 5 0 0 0 0 0 0 0 0 0 0 0 0 0 0 0 0 0 0 0 0 0 0 0 0 0 0 0 0 0 27 37 42 51 51 53 59 67 81 66 51 49 42 50 44 37 34 32 50 49 45 30 22 37 32 27 28 42 28 24 38 36 31 24 17 16 12 14 24 31 39 43 54 55 56 56 57 55 48 45 43 49 51 50 49 50 52 48 49 40 35 39 1 0 0 0 0 0 0 0 0 0 0 0 0 0 0 0 0 0 0 0 0 0 0 0 0 0 0 0 0 0 0 51 51 62 43 49 50 60 70 76 62 61 55 56 49 34 24 7 21 21 7 0 0 8 6 0 0 20 15 7 11 19 27 20 9 0 0 0 0 6 7 24 42 41 37 41 46 55 47 49 45 50 51 50 50 50 50 46 46 41 31 34 0 0 0 0 0 0 0 0 0 0 0 0 0 0 0 0 0 0 0 0 0 0 0 0 0 0 0 0 0 0 0 52 50 64 50 42 50 53 63 68 69 76 72 65 51 30 8 0 2 10 0 0 0 0 3 0 4 6 5 0 0 0 0 0 0 0 0 0 0 0 0 0 3 7 9 20 34 42 50 50 44 51 51 50 49 53 49 44 47 34 22 35 2 0 0 0 0 0 0 0 0 0 0 0 0 0 0 0 0 0 0 0 0 0 0 0 0 0 0 0 0 0 0 1 50 62 66 43 49 53 58 58 56 62 57 47 33 20 19 9 9 3 0 0 0 0 0 0 2 0 1 2 0 4 10 6 0 6 2 6 5 0 0 5 10 12 17 25 36 35 50 47 49 50 48 51 52 53 45 44 41 33 21 39 4 0 0 0 0 0 0 0 0 0 0 0 0 0 0 0 0 0 0 0 0 0 0 0 0 0 0 0 0 0 0 0 45 55 69 50 47 50 54 49 47 45 43 30 21 13 18 22 24 12 1 0 0 0 0 0 0 0 0 0 0 0 11 8 10 8 5 7 12 8 10 16 25 32 32 39 44 35 44 46 50 51 50 53 54 48 44 45 38 32 26 46 5 0 0 0 0 0 0 0 0 0 0 0 0 0 0 0 0 0 0 0 0 0 0 0 0 0 0 0 0 0 0 0 0 54 63 63 43 47 46 46 48 43 38 36 25 23 22 28 34 34 23 13 7 7 6 6 2 1 0 0 0 0 5 6 8 7 3 6 15 14 16 26 36 42 49 45 49 46 44 50 50 51 48 52 51 44 43 45 34 33 32 49 10 0 0 0 0 0 0 0 0 0 0 0 0 0 0 0 0 0 0 0 0 0 0 0 0 0 0 0 0 0 0 0 0 47 60 71 53 45 43 46 52 46 43 42 40 36 28 33 36 40 38 35 27 25 24 16 12 12 15 13 17 9 10 6 3 5 9 15 25 23 32 38 44 49 48 51 48 51 48 53 52 53 51 48 44 40 43 44 30 38 41 55 8 0 0 0 0 0 0 0 0 0 0 0 0 0 0 0 0 0 0 0 0 0 0 0 0 0 0 0 0 0 0 0 0 27 54 64 66 46 45 44 50 46 48 41 45 43 38 37 38 43 48 47 39 38 40 36 32 31 31 29 25 27 23 24 21 26 27 28 32 30 34 41 48 44 49 48 49 52 46 51 53 55 50 47 39 39 44 37 32 42 51 61 11 0 0 0 0 0 0 0 0 0 0 0 0 0 0 0 0 0 0 0 0 0 0 0 0 0 0 0 0 0 0 0 0 22 42 56 63 63 42 45 50 47 45 46 43 47 41 37 39 42 44 46 44 43 46 49 48 47 44 45 42 46 45 45 45 44 41 34 33 32 39 42 46 43 51 47 47 51 48 53 54 53 47 42 37 41 43 34 39 43 58 61 14 0 0 0 0 0 0 0 0 0 0 0 0 0 0 0 0 0 0 0 0 0 0 0 0 0 0 0 0 0 0 0 0 23 45 46 55 62 52 45 48 47 44 42 42 45 47 37 39 46 45 48 46 44 46 45 46 47 44 44 39 42 44 45 48 40 38 31 32 34 43 46 48 46 53 50 47 45 46 49 53 45 43 38 35 39 38 36 43 55 57 67 25 0 0 0 0 0 0 0 0 0 0 0 0 0 0 0 0 0 0 0 0 0 0 0 0 0 0 0 0 0 0 0 0 9 48 41 50 60 61 50 43 47 44 37 37 39 40 38 37 40 40 43 42 46 45 42 42 43 43 36 34 35 38 42 43 38 35 33 36 41 43 43 48 44 53 44 43 42 45 44 51 39 43 34 36 39 33 43 51 58 61 68 26 0 0 0 0 0 0 0 0 0 0 0 0 0 0 0 0 0 0 0 0 0 0 0 0 0 0 0 0 0 0 0 0 11 43 43 43 55 60 59 41 45 47 36 30 35 38 33 29 29 26 26 26 30 34 32 31 28 29 26 29 35 34 38 37 38 32 34 37 41 45 48 47 44 46 44 44 46 46 46 43 37 40 34 31 35 36 49 60 57 63 71 28 0 0 0 0 0 0 0 0 0 0 0 0 0 0 0 0 0 0 0 0 0 0 0 0 0 0 0 0 0 0 0 0 8 45 41 43 46 54 57 35 43 43 37 33 33 37 32 27 24 17 19 18 21 24 23 21 21 20 16 14 22 25 26 27 29 30 29 39 41 43 48 44 44 44 46 50 46 47 39 38 37 36 30 25 30 44 55 58 62 64 72 26 0 0 0 0 0 0 0 0 0 0 0 0 0 0 0 0 0 0 0 0 0 0 0 0 0 0 0 0 0 0 0 0 7 51 45 45 45 51 54 37 38 38 38 35 28 31 32 29 27 21 18 17 17 16 23 20 17 16 12 10 11 15 17 18 23 22 31 29 43 43 45 42 46 50 48 48 46 42 40 38 37 33 22 16 38 48 63 64 63 67 75 24 0 0 0 0 0 0 0 0 0 0 0 0 0 0 0 0 0 0 0 0 0 0 0 0 0 0 0 0 0 0 0 0 4 54 50 42 51 45 53 36 37 40 40 34 35 33 30 26 25 18 17 15 14 16 17 16 11 8 8 5 4 6 7 11 22 18 28 35 39 46 42 46 53 50 46 41 41 40 42 37 32 25 18 23 49 53 67 64 65 68 73 27 0 0 0 0 0 0 0 0 0 0 0 0 0 0 0 0 0 0 0 0 0 0 0 0 0 0 0 0 0 0 0 0 4 56 54 51 48 56 47 37 27 36 35 41 34 35 26 26 25 20 14 14 8 8 10 10 8 3 3 1 0 0 8 9 15 12 25 30 37 38 43 45 51 47 46 42 44 40 36 32 26 18 20 31 53 54 63 69 68 70 75 24 0 0 0 0 0 0 0 0 0 0 0 0 0 0 0 0 0 0 0 0 0 0 0 0 0 0 0 0 0 0 0 0 12 56 62 59 58 54 56 37 28 35 34 38 40 41 27 27 24 26 20 14 10 5 6 8 9 5 6 4 4 7 9 16 13 14 22 26 32 30 42 47 45 47 45 44 41 33 30 27 24 23 26 38 53 57 72 69 71 64 75 28 0 0 0 0 0 0 0 0 0 0 0 0 0 2 0 0 0 0 0 0 0 0 0 0 0 0 0 0 0 0 0 0 20 56 62 64 66 60 57 59 20 30 36 30 40 43 34 35 27 32 27 17 19 13 8 11 8 12 15 9 9 12 15 21 21 23 24 31 38 44 40 47 46 48 44 43 35 27 25 23 30 29 30 42 52 62 74 69 70 71 71 24 0 0 0 0 0 0 3 0 0 0 0 0 1 0 0 0 0 0 0 0 0 0 0 0 0 0 0 0 0 0 0 0 26 57 64 67 76 70 63 65 34 26 31 33 30 39 44 41 43 42 39 34 26 31 20 14 14 17 22 19 25 24 26 28 26 26 32 42 48 49 50 50 51 44 43 41 34 19 23 32 32 36 34 45 61 70 74 70 68 67 77 22 0 0 0 0 0 0 0 0 0 0 0 2 1 0 0 0 0 0 0 0 0 0 0 0 0 0 0 0 0 0 0 0 35 55 63 68 75 80 75 53 48 42 38 35 30 40 44 51 49 50 48 49 38 43 34 20 20 26 32 31 34 35 34 39 37 37 44 51 53 52 56 55 51 44 39 34 29 21 30 32 33 39 40 52 63 76 77 65 68 65 72 19 0 0 0 0 0 0 0 0 0 0 2 1 0 0 4 0 0 0 0 0 0 0 0 0 0 0 0 0 0 0 0 0 42 57 59 70 75 84 69 67 64 53 48 46 35 38 41 48 52 52 58 57 49 53 45 39 37 35 40 40 40 43 48 47 49 47 48 56 54 58 58 58 43 46 32 26 30 29 30 33 36 42 45 63 67 73 80 65 67 64 73 23 0 0 1 0 0 0 0 0 0 0 2 0 0 0 1 0 0 0 0 0 0 0 0 0 0 0 0 0 0 0 0 0 46 53 61 67 75 78 57 79 83 62 58 52 54 43 40 46 56 58 57 64 59 59 57 57 51 45 47 51 51 54 58 55 53 50 54 53 50 55 54 50 43 36 28 33 39 30 29 33 43 50 59 69 70 74 73 63 68 60 72 23 0 0 3 0 0 0 0 0 0 3 0 4 0 2 0 0 0 0 0 0 0 0 0 0 0 0 0 0 0 0 0 0 48 51 63 68 73 53 67 77 91 77 69 65 56 58 53 47 47 54 58 64 64 64 60 57 62 61 59 63 62 63 66 59 55 53 53 48 51 49 50 47 37 33 38 35 36 35 35 38 48 55 65 69 71 76 73 64 67 59 70 23 0 0 2 0 0 0 0 0 0 0 0 2 1 0 0 0 0 0 0 0 0 0 0 0 0 0 0 0 0 0 0 0 32 56 60 69 57 45 64 74 94 81 67 77 65 58 69 67 57 52 53 56 63 63 70 61 64 67 69 65 65 66 63 59 59 55 54 51 53 46 44 37 41 43 39 34 36 34 41 45 50 63 68 69 68 76 72 62 71 60 68 13 0 0 0 0 0 0 0 0 0 0 2 0 0 0 1 0 0 0 0 0 0 0 0 0 0 0 0 0 0 0 0 0 0 59 63 62 34 53 57 72 93 81 69 75 76 68 71 74 69 69 65 53 56 58 68 60 70 69 68 70 66 67 61 62 55 59 55 52 48 45 47 43 47 39 41 36 35 39 37 49 51 71 69 68 68 73 74 62 74 60 66 0 0 0 0 0 0 0 0 0 0 0 0 0 0 0 0 0 0 0 0 0 0 0 0 0 0 0 0 0 0 0 0 0 0 55 62 41 36 47 58 69 94 86 72 72 77 74 73 69 72 74 75 71 70 66 59 53 60 60 59 64 64 66 62 60 55 58 55 54 52 53 49 50 40 38 41 36 39 35 43 55 64 70 69 66 69 71 69 64 71 68 49 0 0 0 0 0 0 0 0 0 0 0 0 0 0 0 0 