P2
92
112
255
105 104 102 102 104 102 103 102 103 100 104 103 102 102 103 102 102 103 104 101 106 97 90 84 85 91 85 64 51 44 43 43 55 77 70 69 82 76 71 83 61 55 48 65 64 62 69 64 50 52 59 57 38 46 60 78 67 59 59 50 67 81 78 75 83 73 65 65 57 54 54 44 54 66 69 82 92 100 102 100 105 100 101 101 102 102 101 103 102 100 102 100 104 102 105 103 103 104 104 104 104 101 104 104 101 103 103 100 103 104 103 103 96 93 83 61 65 58 54 46 42 34 54 56 72 91 81 67 58 54 69 70 69 59 60 77 75 59 43 37 55 30 34 40 41 38 44 65 51 42 49 54 64 62 59 64 60 81 79 76 76 65 58 58 60 60 60 65 66 80 76 95 103 97 102 101 103 100 102 104 98 101 103 101 101 106 102 103 102 106 102 104 103 104 104 102 102 100 94 77 80 93 93 76 64 61 66 52 83 55 44 57 46 35 59 64 76 82 67 57 51 46 62 76 78 65 69 78 80 59 47 33 32 22 33 31 33 29 45 54 76 79 66 57 57 62 54 56 47 51 66 94 79 78 67 65 59 60 60 66 71 86 73 83 94 98 102 101 103 102 103 103 101 101 102 102 104 103 105 104 101 102 104 104 101 101 104 104 105 80 72 61 67 71 65 39 46 49 49 52 90 73 47 75 69 45 56 84 81 63 40 54 52 54 43 72 79 74 71 58 87 82 59 50 24 28 32 32 29 30 52 82 91 93 96 91 85 85 67 67 60 45 37 68 82 84 79 70 65 52 50 64 69 88 87 91 95 96 97 102 102 101 102 101 101 103 101 102 102 103 103 101 102 104 100 107 104 104 105 97 80 54 62 81 73 54 78 50 45 64 55 53 78 72 53 95 85 60 56 75 78 73 44 65 51 69 43 75 88 87 76 54 62 87 69 51 52 32 27 30 25 51 81 84 65 66 73 80 73 66 66 60 57 57 35 42 57 67 91 85 73 66 57 51 75 95 90 86 87 94 103 102 100 102 101 102 101 100 103 101 105 103 102 104 104 104 102 104 104 103 108 75 60 51 59 62 62 50 61 74 67 73 77 65 72 73 53 87 87 51 54 65 84 75 58 69 69 66 69 66 99 79 85 54 62 69 77 79 55 48 28 28 39 57 69 60 51 51 65 80 99 87 67 57 56 57 45 51 58 56 64 77 74 67 70 66 62 79 91 84 89 88 101 101 104 98 104 104 100 104 101 101 104 100 103 103 102 105 101 104 104 105 97 75 65 60 46 57 58 59 51 62 90 77 77 75 67 56 58 69 71 57 69 72 75 55 69 85 92 68 84 64 96 73 65 52 51 51 71 80 84 48 45 30 32 42 30 32 41 60 80 102 109 86 68 58 60 50 51 47 60 66 52 59 71 66 62 70 68 68 61 80 80 83 96 99 103 100 103 100 104 104 102 104 104 106 104 101 103 104 102 104 100 102 92 60 68 71 55 42 62 81 68 66 80 91 74 60 72 53 42 69 76 83 99 73 56 31 71 97 112 88 84 58 77 86 46 47 48 44 41 86 88 64 49 40 28 28 27 30 48 70 84 94 95 90 88 88 74 63 60 51 47 62 74 63 70 73 70 68 66 58 69 62 73 90 90 97 101 101 104 102 104 100 106 104 102 103 105 103 103 102 104 101 105 98 78 54 73 75 71 60 69 85 76 86 84 87 95 64 63 50 36 75 82 105 104 60 37 28 59 98 114 100 56 39 44 79 37 35 42 40 33 56 87 78 37 56 30 23 29 46 57 75 73 86 90 97 91 89 66 65 55 52 56 51 59 64 65 88 76 66 61 68 59 72 75 67 88 99 101 101 102 100 104 101 102 102 104 102 103 102 101 105 100 98 101 99 63 54 74 68 69 85 79 101 71 85 91 80 88 74 62 43 41 76 71 98 81 48 31 43 54 98 110 87 32 35 24 65 44 27 33 40 31 34 68 81 52 40 47 30 26 33 48 55 57 67 74 70 80 85 70 63 53 50 53 55 60 54 57 67 84 94 73 72 58 67 77 89 79 91 102 99 104 102 101 101 102 104 105 103 104 104 103 105 96 94 105 96 43 48 73 74 60 92 87 89 78 71 91 88 81 74 57 39 41 64 59 74 64 49 36 56 81 83 99 78 34 29 18 44 48 26 25 34 32 30 53 67 68 29 36 34 30 31 34 41 41 49 68 78 91 98 86 64 51 55 50 48 62 76 62 63 73 90 94 77 61 72 73 84 97 83 97 104 100 105 103 103 100 104 100 103 102 106 103 106 97 85 105 78 52 64 72 63 67 79 85 72 81 60 75 80 66 68 53 44 40 48 55 53 60 51 54 63 76 77 91 94 87 73 52 35 40 33 34 27 30 36 43 64 66 43 33 38 30 27 32 37 42 53 67 91 91 81 67 55 51 56 49 37 37 79 83 52 90 65 74 95 56 68 87 83 94 96 100 106 100 104 105 101 103 105 102 103 104 100 108 100 79 64 75 80 88 76 79 70 58 69 87 61 71 61 55 80 50 51 57 33 41 37 47 44 41 37 50 57 61 72 82 76 86 91 80 86 72 52 37 43 38 27 45 61 67 56 39 32 36 32 31 40 43 54 58 70 76 72 73 64 51 52 48 46 34 62 91 76 85 68 62 93 67 53 75 95 101 92 97 104 102 98 106 101 103 103 102 104 105 101 103 83 64 63 76 88 81 72 64 70 60 48 64 73 52 78 58 63 54 43 46 36 42 44 43 34 37 38 40 41 48 76 92 86 78 93 78 72 70 88 83 56 55 38 35 45 63 65 44 37 36 31 33 39 36 46 49 68 70 68 67 56 58 63 51 42 29 67 87 83 82 78 72 73 69 61 66 79 103 98 102 101 104 102 104 100 103 103 105 104 105 93 74 50 51 78 90 83 81 69 63 53 66 56 45 63 49 79 71 60 47 52 42 39 50 50 34 37 33 44 47 37 45 51 83 87 82 86 77 68 59 44 67 91 51 48 37 45 49 53 52 42 34 34 32 33 39 43 54 80 96 77 48 61 71 48 44 37 41 87 81 79 76 88 93 64 66 60 71 73 94 98 100 98 103 103 102 106 102 101 99 104 102 72 48 46 52 70 103 92 78 72 78 58 62 60 61 56 54 66 68 55 49 54 49 37 49 38 35 39 33 37 37 25 45 44 67 98 85 88 88 57 39 42 35 63 75 51 41 44 46 53 44 44 37 33 38 37 47 67 68 80 71 50 58 80 53 31 41 48 77 91 79 78 74 88 82 66 64 55 76 65 81 102 104 97 100 106 100 104 102 105 101 104 95 60 68 64 58 65 89 83 75 81 83 82 86 82 74 76 59 65 61 54 52 49 54 36 46 41 44 39 41 38 36 31 37 38 42 84 80 90 87 75 47 35 36 41 48 50 49 45 43 56 48 46 44 43 42 46 51 54 65 71 59 50 63 70 50 43 58 73 83 85 85 73 76 83 61 65 67 62 69 73 60 101 103 102 102 104 102 102 105 102 99 106 89 51 74 82 74 62 73 62 77 93 88 90 91 94 83 78 64 63 63 57 49 49 51 51 40 44 44 41 49 45 36 35 37 49 36 58 75 75 66 93 76 35 41 44 49 41 48 50 49 52 48 47 49 48 40 49 46 51 66 68 72 64 72 71 54 67 79 81 83 85 80 72 75 60 59 73 61 72 62 68 60 88 105 103 100 101 105 102 102 103 97 102 94 60 62 72 71 63 70 79 92 84 85 93 79 74 74 68 66 67 62 63 52 53 48 48 51 48 47 44 55 51 44 39 43 51 38 49 52 78 51 57 91 59 43 49 48 50 47 51 48 57 56 52 52 48 40 52 61 66 79 74 76 77 84 85 77 84 86 92 93 80 72 62 62 57 72 66 61 70 66 55 56 83 107 99 104 102 103 101 104 101 95 96 96 85 57 63 61 53 64 91 74 77 85 60 48 57 64 66 64 67 60 60 62 62 59 55 54 48 54 56 58 51 58 52 65 48 47 49 46 59 54 43 63 64 64 54 55 52 60 52 54 64 52 56 59 47 56 60 56 71 67 80 81 97 92 82 73 84 93 95 84 69 57 66 71 66 83 39 67 63 60 59 64 80 103 101 103 100 101 101 104 101 94 94 89 87 66 53 55 50 66 81 64 71 68 56 56 59 59 54 53 63 60 65 67 69 73 67 68 59 67 68 69 70 67 75 63 50 52 53 52 48 56 50 46 61 60 61 60 64 55 67 66 62 65 68 68 65 68 66 75 77 86 92 100 92 82 84 90 91 86 78 70 61 66 84 70 76 64 50 56 61 61 49 66 87 96 95 104 101 102 104 103 103 89 91 82 78 74 63 44 47 64 64 60 55 63 61 64 69 67 58 55 52 63 63 75 77 73 72 76 78 92 89 90 104 96 91 73 61 60 56 55 52 49 58 53 58 64 67 73 75 78 76 78 69 74 78 80 78 76 75 79 89 93 98 88 77 81 78 80 73 66 67 70 81 90 87 72 60 59 59 55 54 60 51 39 86 97 91 102 101 103 101 102 104 87 84 78 79 74 64 56 39 63 60 50 46 59 64 60 69 65 58 65 72 75 79 78 79 81 89 92 102 109 113 126 132 122 101 79 75 71 66 55 62 51 59 73 82 67 89 91 94 101 100 93 81 93 95 90 90 85 87 91 89 86 82 78 76 81 79 73 75 77 77 85 99 78 71 59 52 63 67 61 61 68 76 27 62 99 99 99 102 102 102 100 104 82 81 77 76 76 71 46 43 52 58 45 48 54 56 51 50 39 50 57 78 90 89 89 100 104 110 120 126 133 147 149 141 142 119 96 94 85 81 64 72 69 70 81 92 86 103 110 114 121 120 112 103 98 109 104 98 94 93 95 76 80 87 87 85 88 90 85 83 82 81 77 75 69 54 50 64 68 63 70 63 68 75 46 37 96 104 100 100 100 105 100 103 78 78 74 76 72 71 56 39 53 58 48 51 48 48 40 34 47 63 87 104 104 113 116 120 124 130 135 144 153 157 158 146 147 138 125 116 105 103 93 83 82 89 99 99 109 119 122 129 138 133 130 129 112 109 114 110 104 97 94 90 86 88 88 87 84 88 85 81 75 80 71 72 70 74 71 64 70 69 59 64 57 60 53 32 83 105 98 102 98 102 100 104 76 74 75 67 75 71 49 43 47 53 46 49 42 34 35 49 65 90 113 112 119 126 133 130 136 138 150 150 158 155 160 160 156 155 152 150 133 128 117 104 101 104 108 121 125 126 125 139 140 143 147 141 134 119 120 122 121 113 108 108 107 98 94 97 89 91 85 85 75 76 78 80 73 76 63 74 62 66 56 50 55 48 49 37 61 104 98 99 100 96 103 100 69 77 66 78 78 71 37 41 44 46 48 44 39 35 54 66 89 119 118 127 132 137 143 146 144 150 160 155 160 157 166 175 174 171 172 173 152 146 143 123 118 117 128 126 129 137 140 133 143 141 151 150 144 136 129 130 133 127 123 122 123 114 104 98 101 97 94 88 89 76 72 84 80 71 63 57 52 53 45 48 48 43 43 41 43 92 102 101 100 97 103 99 74 73 70 77 69 73 54 38 47 41 43 39 41 53 64 88 117 123 125 137 139 142 148 149 155 156 161 157 162 171 172 180 181 179 183 182 167 155 157 147 137 134 128 144 148 145 152 145 144 144 150 152 154 143 144 135 136 137 136 128 129 133 116 112 109 108 106 100 104 93 74 75 88 88 72 54 46 53 43 39 37 45 42 32 41 92 101 99 100 102 100 103 71 69 71 71 67 71 63 40 42 40 40 41 50 67 78 111 125 127 133 140 140 142 152 158 160 162 160 159 171 177 177 178 184 181 187 183 175 165 161 166 156 146 144 142 150 150 153 154 153 159 160 156 156 154 155 148 145 146 147 138 133 136 129 125 122 130 120 112 108 107 97 84 74 84 90 68 60 47 43 35 34 39 43 32 26 90 104 99 100 98 103 100 70 68 69 71 66 72 70 37 41 38 41 46 60 81 93 122 126 129 136 142 146 152 154 166 165 168 164 166 176 184 176 172 184 184 184 182 179 174 172 170 168 162 156 149 154 156 153 155 162 161 164 163 161 160 160 154 148 148 149 145 140 142 137 134 135 140 136 122 116 112 107 106 91 67 80 70 64 66 59 54 38 36 40 43 33 85 104 99 101 100 102 99 69 70 65 69 68 74 64 46 35 41 37 53 74 87 107 126 129 134 138 140 149 158 156 166 164 169 173 171 180 183 180 174 183 183 181 177 182 177 170 173 171 170 163 156 150 155 136 152 163 164 164 160 168 168 163 160 151 152 150 151 147 148 142 137 143 141 139 126 129 121 113 117 104 89 63 64 45 43 54 55 59 49 47 39 55 96 105 96 101 98 101 101 70 69 68 67 70 70 54 44 39 38 34 59 77 106 114 126 128 142 144 138 153 155 163 163 167 174 173 175 180 180 175 179 180 187 185 176 180 178 178 177 173 171 168 163 159 158 160 159 165 165 164 162 168 171 164 165 155 154 149 153 146 149 147 140 142 142 141 129 129 131 122 118 113 88 76 62 42 45 37 32 39 42 45 38 61 92 101 100 101 99 98 103 68 72 68 68 69 69 52 46 37 39 50 62 96 116 115 127 130 140 142 140 154 156 162 162 168 172 177 178 178 177 180 180 180 183 184 184 180 180 179 180 175 175 176 169 167 161 164 167 163 166 163 165 168 168 168 166 161 152 151 151 148 147 147 147 142 142 136 127 130 132 125 125 118 105 86 57 55 37 33 33 29 32 41 21 69 101 98 99 100 100 102 104 69 70 67 68 70 66 52 40 38 46 57 81 109 124 120 126 135 138 141 143 152 161 162 164 166 169 178 175 173 176 177 178 181 179 180 180 178 181 175 178 176 176 177 172 173 173 176 174 170 175 170 167 167 168 169 163 163 159 154 160 150 144 147 146 143 139 131 128 128 135 127 119 121 109 100 74 60 48 30 37 27 25 40 26 76 107 96 100 98 99 101 101 68 68 65 65 71 71 52 41 40 53 78 92 117 122 123 130 134 141 131 144 148 162 157 161 166 169 175 177 178 176 179 176 181 180 180 182 183 184 180 182 179 180 180 179 176 176 173 178 176 178 172 172 169 163 167 163 162 166 157 159 152 141 154 146 145 140 132 130 133 135 125 126 124 111 101 93 73 60 41 33 27 28 34 35 86 103 96 99 99 98 100 103 66 69 65 68 67 69 59 39 40 60 94 98 117 122 121 128 134 134 136 142 147 154 161 167 168 167 173 175 174 174 176 172 173 175 175 181 178 174 176 176 174 175 181 176 173 175 178 171 173 180 165 169 173 164 171 167 163 163 166 157 153 149 153 152 145 141 130 131 132 133 124 125 125 120 108 93 72 56 56 35 34 22 35 36 90 101 96 97 99 97 102 97 67 67 68 69 67 72 61 38 38 70 93 99 115 124 121 127 135 136 132 145 146 147 153 162 158 163 168 166 173 171 176 174 172 173 175 175 176 172 175 179 174 176 180 173 173 175 176 170 176 173 167 168 164 169 168 163 162 162 165 162 154 156 158 157 151 145 134 123 138 123 125 123 124 113 110 99 76 56 50 51 38 28 31 44 93 99 95 93 99 96 98 99 65 69 69 67 68 73 58 37 39 72 99 96 115 123 121 128 133 135 135 139 144 151 149 159 157 159 164 165 165 169 168 171 170 171 176 177 178 173 177 178 178 174 177 173 171 178 175 168 177 173 170 170 166 169 165 162 161 161 160 161 161 159 157 158 151 145 134 127 137 122 128 128 124 116 107 96 83 63 41 50 43 32 22 66 93 97 98 93 98 97 99 98 69 66 69 65 71 65 61 33 49 77 100 96 110 124 123 128 133 134 134 136 137 146 153 151 157 161 165 160 156 173 165 169 171 171 172 171 170 173 176 175 174 173 171 177 171 175 174 171 176 172 172 170 168 168 164 163 160 164 161 162 162 158 159 159 150 141 135 129 136 122 125 128 129 113 105 100 82 70 47 39 50 29 33 83 97 93 94 95 96 97 97 100 69 69 65 67 69 70 55 46 54 80 100 97 107 126 124 128 133 133 136 139 136 143 149 151 153 159 162 162 162 167 174 167 173 172 171 172 171 171 174 172 168 173 168 173 174 175 173 173 175 179 179 174 174 173 172 170 166 171 167 164 157 155 162 156 148 145 130 134 137 124 124 126 131 119 111 100 83 69 54 40 37 35 37 92 94 92 94 92 94 95 96 96 67 68 65 69 65 66 61 43 57 85 101 100 105 121 129 126 136 131 135 141 135 138 144 156 158 163 166 163 163 167 170 173 171 168 168 173 171 170 174 171 166 171 172 173 168 180 174 176 173 176 176 171 175 172 171 170 169 170 168 165 156 160 159 158 149 141 133 135 137 127 124 125 129 124 118 103 90 66 58 48 45 30 47 96 93 94 89 93 91 93 99 95 66 69 66 66 66 67 61 48 57 85 99 102 101 119 128 127 132 132 131 145 142 144 148 157 155 156 165 170 167 169 169 173 174 171 168 167 173 168 171 167 160 165 171 171 169 173 178 178 171 179 178 174 177 174 171 172 171 171 170 165 158 155 160 154 147 139 137 137 140 127 123 126 128 126 119 114 96 71 56 50 46 31 43 90 93 88 90 91 92 91 95 94 66 66 69 65 65 67 61 46 57 87 98 105 99 117 126 126 133 138 134 139 144 145 155 158 161 160 159 169 169 171 171 170 173 171 167 169 172 164 173 167 162 161 166 165 169 168 178 180 174 177 174 179 175 172 168 173 172 174 167 164 155 151 155 154 151 142 137 135 139 126 126 126 126 124 124 119 108 78 62 50 48 35 40 95 89 89 90 91 91 93 91 96 69 64 67 66 68 67 64 47 57 85 97 105 102 112 126 129 130 140 142 141 143 143 156 158 161 162 167 171 170 171 170 173 175 171 166 171 162 160 168 165 161 170 166 163 156 165 175 177 175 173 174 176 174 170 172 169 171 171 166 159 155 153 153 153 146 140 138 136 137 130 127 128 123 125 122 120 111 84 65 51 46 36 46 91 86 90 88 90 90 93 90 95 65 66 68 65 66 66 60 47 50 84 97 103 105 106 119 130 126 142 139 145 148 142 148 152 163 156 165 170 172 176 171 171 172 173 169 172 166 166 165 172 164 165 166 165 157 166 172 173 172 169 175 172 172 164 166 169 168 170 164 157 153 152 153 158 150 140 132 134 135 129 130 125 123 126 121 120 116 83 70 56 52 38 53 87 87 86 87 87 89 89 90 91 66 69 65 68 65 69 58 48 44 85 96 100 105 103 114 127 128 134 139 147 142 144 145 145 159 161 159 168 167 169 169 165 172 167 164 167 164 163 165 171 165 167 169 163 158 167 166 163 163 164 161 162 159 164 156 160 160 163 160 155 154 154 158 161 157 139 132 135 133 130 130 120 122 125 119 120 119 82 68 59 54 42 65 96 101 98 80 86 88 90 84 91 66 62 67 63 67 69 63 48 38 81 98 100 104 105 108 127 128 133 139 148 146 145 146 141 141 157 158 158 165 161 163 164 168 168 157 167 163 157 166 171 167 165 163 162 158 160 158 154 148 143 139 136 141 142 143 145 145 141 144 154 143 148 154 164 154 143 133 137 127 132 128 120 125 121 120 122 114 81 72 63 46 46 84 134 139 128 106 73 85 89 84 89 67 61 67 64 68 65 65 50 36 75 99 99 100 103 109 121 131 134 141 143 147 146 142 141 139 141 149 147 153 158 158 157 164 156 159 164 156 156 161 163 161 159 162 159 159 159 153 141 132 124 117 109 115 116 124 129 131 133 133 137 135 139 148 147 151 142 138 136 127 128 128 126 125 121 123 120 109 79 74 63 46 63 119 142 144 72 102 84 82 84 86 88 65 68 64 67 65 66 66 58 29 69 101 98 101 103 112 120 120 138 134 133 146 139 132 136 130 132 139 133 143 151 152 149 159 144 143 154 153 144 159 160 158 157 157 154 156 153 144 131 122 116 104 103 103 99 102 110 119 125 127 136 133 138 141 136 140 141 134 134 128 128 124 128 124 125 124 122 111 77 77 61 47 101 136 139 108 64 111 79 82 84 84 87 63 67 67 64 68 65 70 62 33 55 100 100 95 102 111 118 115 122 119 114 122 117 115 119 119 115 121 120 115 138 140 144 145 141 130 144 144 138 151 154 149 149 152 148 145 142 137 121 112 110 102 98 96 93 94 98 112 115 121 130 136 138 136 133 137 133 130 133 133 126 121 129 123 125 124 123 112 86 81 63 76 115 138 117 83 92 111 76 83 82 82 88 68 65 65 64 64 64 70 68 40 51 94 102 96 98 102 109 108 118 114 112 110 102 97 97 101 93 95 101 107 114 123 129 135 138 137 139 145 148 151 155 142 142 145 141 133 126 126 106 104 106 101 102 105 111 118 118 126 127 124 132 137 137 141 140 135 130 124 126 127 122 126 126 127 127 122 124 120 93 87 92 112 117 119 118 89 106 133 66 84 83 83 83 67 68 66 65 60 86 110 100 54 38 91 103 95 96 99 99 106 109 115 110 102 99 93 89 85 80 76 85 90 95 107 111 121 127 141 139 143 151 157 162 155 139 139 130 125 114 113 102 100 103 106 100 100 104 109 114 115 123 124 130 134 136 134 133 132 131 129 124 124 124 125 130 130 127 129 123 123 107 91 114 119 98 125 149 97 99 137 67 81 80 83 87 65 66 66 63 69 91 118 134 96 36 90 103 94 96 96 101 99 103 110 112 104 106 104 94 93 80 81 78 75 79 84 89 103 110 127 143 143 147 165 170 164 150 136 124 115 106 105 98 105 108 94 87 80 82 90 100 102 101 105 108 113 123 122 126 124 125 126 122 129 129 123 131 132 130 129 122 123 111 99 115 112 122 146 147 110 103 133 71 78 84 82 82 65 65 64 59 81 42 78 120 128 50 79 99 100 90 94 103 101 103 107 109 104 103 102 91 82 80 69 62 67 68 76 74 76 91 103 130 149 140 168 179 170 158 146 120 115 105 105 112 113 101 94 96 109 96 79 73 82 81 95 115 103 98 94 114 125 122 121 126 133 133 127 128 134 135 127 123 123 112 109 111 116 145 142 140 118 106 137 64 85 80 81 84 68 68 64 62 83 45 31 74 119 76 78 93 98 93 94 93 101 104 101 95 82 77 85 101 110 113 102 96 83 66 63 70 71 65 79 116 140 159 173 181 175 172 154 121 119 110 114 120 105 106 102 91 114 95 73 38 114 82 29 84 95 110 104 76 115 124 123 129 133 137 129 128 136 135 126 126 118 115 111 88 97 127 127 129 128 119 119 63 82 83 80 81 66 66 64 60 80 57 34 38 70 80 89 94 95 87 88 92 96 97 80 65 84 90 93 71 64 69 72 60 98 100 83 74 68 70 56 88 139 164 179 182 179 178 159 122 121 118 130 123 122 108 89 95 148 104 76 35 38 65 48 100 106 71 90 105 103 115 126 134 136 136 132 132 133 133 128 122 120 115 104 92 103 112 115 128 137 123 111 64 83 82 80 83 62 68 65 58 79 60 41 38 53 55 94 99 95 93 82 84 98 90 60 80 84 86 88 57 53 48 116 39 85 129 86 85 87 76 59 68 132 157 179 184 180 179 164 130 126 129 144 142 130 112 85 113 148 135 76 73 60 64 69 120 125 94 80 95 115 121 124 134 140 140 137 133 132 129 125 122 116 116 106 104 111 113 108 124 141 126 94 72 82 83 81 79 67 67 63 60 72 76 52 46 56 53 88 101 97 99 87 87 98 87 70 83 56 97 113 57 67 17 49 67 102 152 140 108 62 101 72 67 126 152 178 187 179 182 174 139 124 137 151 148 127 137 108 98 133 149 124 91 81 93 113 123 127 119 112 109 115 119 125 140 145 146 145 136 131 129 125 125 114 113 137 128 121 117 116 120 142 124 88 72 82 83 79 83 65 60 69 60 64 79 72 64 61 68 81 100 105 106 99 87 94 88 71 67 54 93 124 82 74 73 72 80 136 152 110 106 85 104 92 88 124 159 174 185 183 173 176 147 122 138 146 145 148 147 128 120 129 137 150 143 140 134 134 129 128 114 123 138 136 135 131 143 151 151 148 138 127 124 126 120 108 120 151 158 139 120 119 131 143 121 75 75 83 83 82 83 64 62 65 64 59 66 87 85 69 75 81 94 104 122 121 104 94 86 74 90 99 86 109 118 107 97 105 127 145 130 118 119 119 108 101 100 123 160 172 176 181 174 174 149 119 141 146 153 150 142 134 130 132 127 130 131 124 125 122 126 129 126 142 150 147 145 149 153 151 155 151 142 127 120 121 120 105 122 155 143 147 116 118 134 144 115 69 82 81 82 79 84 65 63 66 66 64 59 73 96 86 73 76 89 103 129 136 121 109 109 108 82 109 112 122 129 135 139 137 129 132 126 131 134 124 117 117 111 116 152 185 179 181 181 172 147 117 134 149 156 161 158 142 137 138 143 142 150 145 141 143 140 146 147 150 153 151 154 158 163 163 155 152 141 124 121 119 124 98 129 153 134 131 109 121 140 133 105 71 80 82 87 78 83 60 67 64 60 66 57 64 85 97 74 77 86 104 132 139 137 137 137 137 109 97 108 113 114 119 122 129 129 139 141 140 137 134 133 132 109 113 149 182 185 180 183 172 138 128 129 147 154 160 173 164 150 148 151 147 147 145 146 146 145 153 156 161 160 158 168 162 169 168 160 151 136 117 122 121 116 98 131 143 125 129 116 135 135 128 97 64 84 82 84 78 83 69 63 65 63 65 66 56 74 94 82 80 82 97 133 139 147 150 143 136 133 128 129 133 140 141 145 150 145 150 150 151 148 147 142 128 111 111 142 175 187 183 179 168 137 129 127 140 151 150 164 176 178 169 155 151 155 156 157 156 160 160 165 169 170 165 171 169 169 168 157 148 135 119 118 120 112 98 148 120 128 148 135 117 123 128 78 79 83 82 81 82 84 63 66 62 66 63 63 62 58 86 87 89 84 89 129 137 148 148 147 140 133 129 143 139 144 146 144 145 146 152 155 164 155 148 141 122 113 112 142 167 179 183 174 165 137 131 134 136 146 144 162 171 179 183 180 172 166 159 160 161 161 163 166 171 173 173 175 170 166 163 155 142 135 119 117 118 111 100 145 121 134 156 134 118 133 122 71 76 85 80 84 80 84 67 65 66 63 66 64 65 57 73 91 95 91 85 118 133 148 148 150 154 147 139 148 146 147 148 150 151 157 161 167 161 154 140 133 122 113 119 137 161 173 177 174 162 147 134 135 143 143 148 161 174 174 177 183 181 179 173 171 170 168 170 172 175 167 174 171 164 163 155 151 141 133 117 117 119 111 102 139 138 146 151 139 119 136 104 69 79 82 81 84 82 82 66 62 68 64 65 61 64 63 58 86 99 110 72 112 125 140 153 147 157 147 146 146 150 162 159 167 161 167 164 163 161 150 142 127 123 118 128 144 160 175 177 174 165 154 144 134 143 146 154 161 171 182 177 180 177 176 176 178 176 176 166 167 167 164 171 164 160 156 152 145 139 128 118 114 121 108 104 134 152 155 147 140 126 123 85 74 80 84 77 86 84 83 63 66 64 63 69 64 60 68 55 73 92 116 81 99 120 131 146 147 149 149 151 142 155 158 160 165 165 161 162 160 157 152 144 128 121 125 141 157 165 177 176 176 172 162 153 139 137 143 158 166 175 177 179 173 181 178 178 176 174 174 168 166 164 162 163 162 154 154 147 138 135 126 114 115 122 107 103 144 147 146 144 141 128 114 75 78 82 84 82 79 83 80 63 65 63 60 68 60 65 66 58 58 102 88 88 87 109 125 134 144 145 142 152 147 152 158 153 158 164 159 160 161 157 148 144 129 118 138 147 162 171 176 180 178 175 164 157 145 134 142 149 160 168 175 177 178 173 180 176 175 178 173 171 170 159 159 160 157 153 147 143 136 130 118 113 118 124 102 108 149 143 142 141 140 122 105 70 80 85 78 82 83 81 81 63 67 64 65 62 64 65 63 68 50 88 113 87 85 102 115 128 135 138 136 143 148 148 155 152 155 159 154 161 155 155 141 129 119 121 144 154 170 180 181 184 180 178 163 154 155 127 149 148 142 155 168 179 178 175 176 174 171 175 169 170 163 161 157 161 149 151 143 136 136 125 116 114 122 125 104 107 142 141 136 138 129 121 84 75 79 82 82 84 80 81 83 68 62 67 64 65 63 65 68 66 53 66 119 124 76 83 117 115 124 135 134 140 142 148 154 146 152 151 154 158 155 136 124 129 124 118 142 159 172 185 177 186 183 172 161 150 154 132 148 159 137 141 159 169 170 174 173 174 165 168 171 163 159 159 154 153 150 147 147 133 129 127 120 119 123 122 107 91 130 131 127 129 118 91 76 79 83 81 80 81 83 80 83 63 66 61 62 63 67 61 63 69 56 52 112 127 83 79 102 116 119 129 129 137 143 145 150 150 144 148 151 153 143 123 117 139 113 120 136 153 169 177 178 189 190 182 156 152 146 130 146 163 143 131 145 149 161 169 168 165 166 163 168 160 160 160 152 147 149 146 140 133 126 124 116 121 121 122 110 61 90 109 112 106 88 77 80 82 83 78 77 82 82 78 84 65 63 64 63 62 67 63 63 65 58 54 99 125 94 72 99 105 118 123 132 136 137 145 145 144 146 149 148 143 134 104 124 133 116 116 127 146 163 170 174 179 191 177 155 146 137 132 146 160 144 119 139 144 149 157 159 165 161 164 161 159 159 156 152 142 141 141 136 135 129 122 119 121 125 116 115 59 64 81 81 81 80 77 81 84 82 80 81 83 76 81 83 62 64 62 65 66 63 62 65 63 64 49 91 112 101 70 93 104 109 117 131 131 132 142 142 141 142 147 139 133 117 93 118 132 113 98 111 129 147 162 164 163 168 162 140 128 124 127 144 150 138 118 138 142 141 148 158 162 164 158 159 155 158 153 147 142 139 139 135 130 126 122 120 122 122 121 112 58 71 75 77 76 82 82 79 81 83 77 83 80 81 79 80 69 64 63 64 65 63 60 68 61 65 54 66 97 99 76 84 98 104 117 121 124 135 131 139 136 135 143 136 122 104 82 107 115 111 87 82 95 119 144 152 145 150 136 120 118 111 124 128 133 124 126 139 149 143 141 148 158 161 160 156 153 157 151 147 142 143 135 134 132 126 122 122 126 119 120 109 63 66 76 79 78 81 80 81 80 81 81 84 79 82 79 81 66 63 61 62 64 64 61 68 56 68 60 61 64 85 84 80 95 98 110 111 121 125 133 132 139 137 137 129 120 105 99 92 86 79 63 56 71 83 115 129 130 133 118 102 81 69 71 79 99 116 135 140 156 160 147 141 151 155 158 156 153 153 152 149 146 138 135 134 129 127 125 123 127 121 118 106 62 68 76 76 80 78 80 77 81 78 81 82 80 79 81 85 64 64 64 61 62 64 62 63 65 62 63 65 58 58 84 84 88 96 106 108 114 124 131 129 139 142 136 127 125 109 108 110 72 54 44 41 45 65 96 110 114 119 112 78 83 78 67 65 88 124 139 141 153 165 159 143 146 154 156 156 153 151 148 145 143 139 134 129 128 126 124 123 127 123 123 100 57 74 78 76 80 79 81 83 80 83 77 82 80 80 80 82 60 65 63 64 62 61 64 62 60 63 62 64 63 54 70 92 91 92 101 109 109 118 124 130 136 136 140 133 132 122 110 124 86 48 52 53 60 50 81 94 100 99 108 109 124 109 112 120 127 138 141 139 151 158 163 156 143 152 154 152 152 148 150 144 140 139 132 128 129 124 127 121 123 122 120 100 59 76 79 76 80 79 79 85 77 80 78 81 84 77 83 80 68 66 61 65 63 63 62 62 65 63 63 61 61 56 70 87 91 94 94 107 111 117 126 128 135 135 137 138 141 134 128 133 114 79 68 68 60 61 66 77 83 85 109 112 120 125 134 141 139 144 142 144 147 155 162 160 157 147 154 155 154 148 148 142 140 136 132 127 129 127 122 124 123 122 126 89 59 78 76 77 85 79 79 82 83 76 81 82 78 78 79 81 66 64 63 65 59 65 60 61 63 58 64 60 66 56 58 89 87 91 98 100 106 110 123 130 132 137 137 139 138 140 135 131 132 112 97 87 77 73 77 74 89 95 109 116 124 141 137 137 138 136 140 145 149 149 154 159 163 160 149 154 151 146 142 142 137 139 131 132 127 129 121 125 121 127 119 83 65 72 81 81 80 81 80 80 81 81 79 77 81 79 83 77 66 62 63 60 63 64 60 61 64 61 66 58 64 61 52 84 89 89 98 102 105 110 118 130 134 138 143 147 138 134 135 131 130 134 120 111 102 104 102 106 101 115 116 123 127 139 141 131 137 132 136 140 143 150 151 157 158 162 150 150 146 150 140 143 140 138 128 128 127 128 126 125 122 125 119 69 63 74 80 77 82 78 79 81 80 76 82 76 81 80 81 83 66 65 57 62 63 63 63 61 61 63 61 65 61 63 54 75 90 88 97 103 100 112 118 130 135 143 154 149 143 137 131 125 126 133 128 125 128 127 124 122 120 121 123 127 129 140 138 137 140 131 137 139 141 149 148 155 153 153 154 147 149 146 140 141 140 138 131 130 128 128 125 121 120 128 108 65 71 77 80 77 82 80 80 80 77 81 78 80 78 82 80 80 64 62 67 60 65 62 59 63 61 63 59 62 60 64 57 60 91 85 95 101 102 105 113 127 137 146 150 143 138 138 133 120 129 132 137 138 152 157 149 135 117 139 132 135 140 138 144 145 138 138 138 140 139 136 147 146 147 144 148 146 148 144 140 133 136 134 134 128 132 126 126 124 121 124 94 63 71 82 75 81 75 81 77 82 77 79 79 81 79 76 83 81 67 64 61 63 62 63 62 61 64 59 61 65 59 66 58 53 86 86 90 106 103 97 110 131 136 146 142 135 130 127 126 123 123 133 146 147 157 166 168 160 138 144 145 134 140 138 144 149 145 143 137 138 134 131 133 141 137 139 148 142 141 146 136 132 135 135 129 127 133 125 126 123 124 121 85 65 73 80 78 80 78 78 77 81 79 78 79 83 78 79 77 81 69 63 63 61 62 61 64 60 63 59 61 65 61 63 59 56 71 90 88 100 104 94 103 130 130 135 140 130 123 119 122 116 120 120 115 111 101 112 126 123 129 122 119 108 106 112 122 128 135 138 136 143 136 127 121 133 135 134 142 135 140 142 139 130 133 133 130 130 132 127 125 124 118 121 79 67 79 78 75 79 78 82 80 82 78 81 79 78 80 80 79 78 68 63 66 60 62 62 60 64 62 61 63 59 61 60 64 59 60 84 90 96 96 96 97 124 127 128 132 128 115 117 103 105 99 90 72 71 75 76 80 75 81 84 88 84 70 78 87 78 90 91 108 119 116 105 107 121 132 130 136 136 134 148 137 130 131 131 133 129 126 127 125 122 113 117 83 65 78 80 82 75 80 81 76 81 76 83 79 79 79 81 80 78 66 66 63 63 66 61 61 63 63 61 62 60 64 59 64 61 50 79 89 93 96 96 91 120 125 126 129 127 114 112 82 77 68 50 39 59 101 108 125 119 106 128 134 135 109 86 111 99 53 47 51 44 61 61 75 108 121 123 130 135 132 148 138 131 130 133 129 128 128 125 124 120 104 132 76 73 74 83 80 79 76 79 78 80 76 82 77 78 78 75 82 77 66 65 63 62 63 63 59 65 59 63 64 62 61 62 64 59 59 59 86 88 93 95 92 108 127 125 129 125 115 108 83 46 39 35 23 26 83 114 132 133 98 141 138 131 121 42 64 76 64 42 37 16 74 80 107 130 130 129 137 135 136 147 135 130 131 128 130 129 124 124 124 108 118 128 79 66 83 79 78 79 77 79 78 80 77 80 78 79 79 77 81 76 65 65 62 61 59 64 60 62 62 62 61 62 61 62 60 61 61 52 75 90 88 92 90 102 125 122 128 125 121 117 123 82 72 60 26 33 38 44 64 64 29 69 65 58 51 42 76 105 86 77 58 52 101 100 127 144 137 133 138 136 137 145 135 128 131 130 128 128 124 124 120 104 125 131 76 67 81 77 77 80 80 77 80 78 77 76 80 76 76 81 76 82 63 66 60 62 62 65 60 61 61 60 62 61 57 61 61 58 61 54 55 89 83 91 87 90 122 128 135 133 134 126 149 136 99 106 89 63 52 63 58 62 42 47 57 65 73 94 120 84 81 111 100 90 104 119 136 147 145 142 143 141 140 144 130 128 132 129 129 125 126 120 109 111 136 123 76 71 79 80 76 80 81 76 81 75 79 78 79 77 75 82 76 80 65 67 59 63 64 59 63 61 61 59 65 60 63 61 60 59 62 60 55 66 89 82 91 82 112 123 138 145 143 140 137 144 115 112 116 108 108 103 104 96 71 92 117 127 132 154 142 70 107 100 108 109 118 127 138 148 145 146 146 145 143 141 132 129 127 130 125 124 125 109 107 128 135 115 66 78 79 77 78 81 75 78 80 75 80 77 81 75 79 79 77 79 68 60 67 59 64 57 65 59 61 62 60 64 57 64 56 65 58 60 61 52 83 86 85 81 93 122 129 144 155 146 141 129 122 112 115 111 112 111 121 118 95 116 133 135 125 139 126 106 113 117 127 112 118 129 137 142 143 144 150 143 134 136 129 126 129 128 124 123 115 108 121 132 139 104 34 104 84 74 78 81 75 77 79 77 79 80 76 77 76 80 75 80 61 66 62 66 57 63 62 61 59 63 61 60 58 61 58 62 59 59 57 58 59 94 86 85 86 109 128 135 154 147 140 126 115 113 104 107 107 109 122 132 130 126 128 129 131 137 137 143 134 119 112 110 123 132 136 142 143 144 147 140 133 134 132 126 127 125 123 119 104 113 131 130 142 106 7 145 129 94 76 77 77 80 79 75 76 82 79 76 75 80 77 80 63 66 65 64 60 59 62 61 62 61 61 62 58 63 58 61 61 60 61 55 44 86 88 88 80 97 119 131 140 143 141 123 120 108 106 99 98 101 112 116 124 133 132 124 130 130 129 129 114 106 110 118 126 129 137 141 142 141 139 131 130 133 129 124 123 120 121 111 102 127 134 128 135 105 0 89 155 143 117 89 73 80 77 81 76 78 81 75 77 76 80 79 65 68 61 62 62 62 58 61 61 61 59 57 63 61 64 58 59 61 65 51 18 93 88 87 84 81 112 122 133 136 135 128 119 111 93 96 102 100 107 109 114 126 126 122 115 120 111 109 105 109 118 125 128 125 135 137 142 146 144 127 128 132 128 127 121 116 116 104 113 134 132 131 148 84 1 44 151 150 139 138 129 97 81 74 80 77 75 77 78 75 82 76 67 68 62 62 64 63 58 63 58 62 57 61 58 62 58 60 57 66 61 34 9 88 94 81 84 81 95 108 128 135 130 129 119 114 104 93 91 93 97 99 101 103 111 107 104 106 106 105 105 115 120 121 123 130 139 141 147 147 138 130 126 128 127 125 120 110 99 107 128 133 136 127 142 80 13 15 106 148 142 137 144 153 127 99 77 74 77 75 81 74 78 76 68 66 63 60 65 64 57 62 56 60 58 59 57 60 57 59 60 66 44 23 8 75 108 81 80 83 90 101 115 132 131 130 123 114 112 106 93 96 92 94 90 89 92 94 91 97 106 109 114 120 124 124 129 129 139 146 149 145 134 133 126 126 126 121 118 97 99 119 132 132 133 125 145 63 10 11 72 156 150 152 142 146 138 154 122 68 82 83 78 82 77 81 68 66 68 61 61 61 62 62 61 58 58 61 60 58 56 62 61 65 31 18 6 65 106 93 75 88 85 96 108 122 133 141 132 118 117 115 106 110 107 107 107 105 103 106 106 112 108 117 119 123 123 130 133 134 144 149 151 137 137 132 124 124 118 119 97 92 117 130 132 133 128 127 138 49 15 15 46 144 147 147 142 154 146 141 152 126 123 131 113 95 100 96 65 71 64 65 61 59 61 61 58 58 60 57 59 58 56 61 67 56 24 18 4 57 108 98 79 83 83 92 105 115 131 138 145 135 124 123 113 117 114 111 112 110 110 114 116 119 114 118 117 125 129 128 138 142 150 151 146 138 132 126 119 119 116 97 86 113 127 127 131 132 127 121 129 42 13 21 22 126 146 156 151 140 155 159 146 139 122 151 139 132 132 130 71 67 64 65 62 60 62 60 58 60 58 59 60 57 63 51 113 65 13 21 6 57 108 95 86 72 81 84 100 112 125 135 150 146 144 135 126 129 125 127 126 124 124 127 125 129 128 130 132 134 136 131 143 141 151 149 146 138 128 120 116 115 89 82 107 125 126 123 130 130 122 123 121 27 14 26 24 116 153 157 160 152 141 152 161 154 127 139 132 139 139 133 73 66 64 65 61 63 60 60 59 58 58 60 60 55 51 89 156 78 4 18 4 47 109 94 90 80 65 83 92 102 121 128 145 145 145 154 147 156 150 154 145 149 146 146 145 138 145 150 147 150 142 142 147 141 146 143 134 133 122 107 112 93 80 100 121 128 128 111 128 126 124 121 105 14 20 25 12 112 155 153 155 156 150 154 147 157 139 139 132 134 148 128 70 71 66 66 62 62 60 59 62 54 61 57 56 53 74 135 164 63 12 20 5 44 107 98 89 88 75 55 87 98 106 123 132 140 144 154 156 153 161 157 162 153 154 152 154 151 155 159 156 157 145 156 143 143 143 137 129 124 106 106 90 84 105 120 128 133 119 117 126 124 120 122 91 10 18 32 14 103 149 161 155 149 152 161 154 142 146 153 142 123 151 138 68 67 69 64 58 65 59 60 58 60 57 57 53 82 128 154 161 61 11 24 3 44 103 96 91 87 81 70 59 81 99 113 128 129 138 140 149 146 149 151 149 149 150 154 148 151 156 159 161 151 147 153 145 142 136 134 122 111 98 88 88 104 119 126 128 128 129 122 129 122 117 116 70 13 31 22 18 120 156 160 155 150 148 156 160 153 138 150 166 128 137 154 69 65 68 68 60 64 59 60 59 57 54 57 93 134 147 156 145 57 14 26 5 35 100 98 90 89 82 76 59 55 86 98 116 122 127 128 132 133 137 136 132 145 148 146 138 138 146 149 147 143 143 145 139 130 131 125 108 93 86 93 104 113 125 124 130 130 127 122 126 120 116 107 52 16 28 30 20 131 159 160 161 158 148 153 152 154 140 141 157 144 121 162 67 70 66 67 63 61 62 58 61 57 47 94 149 135 155 169 147 52 12 34 4 37 92 96 94 94 86 77 67 59 58 83 103 108 121 122 128 126 126 133 129 135 138 133 135 126 137 133 130 129 133 135 128 126 120 109 86 81 98 109 114 124 123 124 129 128 128 120 123 118 115 89 28 23 33 25 15 141 162 164 155 154 152 155 156 145 143 154 149 151 119 158 69 66 71 64 65 60 63 60 67 73 87 139 147 141 168 176 146 35 20 32 7 34 86 89 98 93 92 81 72 61 60 54 75 98 103 112 114 118 116 119 119 122 124 125 127 119 120 122 123 123 125 123 121 121 97 73 74 99 113 116 120 123 118 126 123 130 129 124 122 117 112 61 18 28 34 15 62 148 162 158 157 147 154 159 153 144 137 152 159 157 126 145 69 68 66 69 67 76 104 115 138 158 136 151 143 154 155 181 156 39 22 37 16 28 82 82 90 97 92 93 77 71 57 57 52 69 87 95 102 103 110 112 110 114 121 118 112 112 115 113 117 118 118 115 105 89 71 82 98 115 116 124 117 118 118 124 128 130 129 128 125 115 101 37 20 35 23 30 122 160 162 162 154 154 151 157 157 149 136 161 158 153 134 124 69 62 78 106 133 135 166 167 172 154 148 155 142 147 162 179 187 75 15 37 25 24 72 85 86 92 97 90 85 82 62 56 54 55 53 75 83 93 101 105 103 106 113 111 105 106 110 106 109 112 103 92 73 77 85 105 114 124 119 115 116 114 121 130 130 130 128 129 122 108 67 20 26 39 15 50 144 165 154 160 155 150 159 151 156 142 150 153 153 169 140 124 72 86 143 166 174 152 173 175 174 150 152 150 148 140 163 179 185 126 21 32 31 17 60 82 84 86 97 95 90 78 77 66 56 52 51 49 49 58 68 81 84 87 99 94 89 94 90 90 87 79 75 76 79 95 107 116 119 126 115 115 112 115 128 130 131 130 127 124 115 82 22 23 32 30 15 103 162 164 160 146 154 154 155 155 148 144 139 159 147 170 150 132 144 149 178 178 165 162 175 179 192 157 140 159 152 142 160 176 191 151 37 25 35 24 33 81 80 85 90 96 97 87 83 75 64 58 56 54 46 49 42 49 54 55 62 63 59 61 67 65 65 71 75 86 95 113 117 121 115 122 116 112 113 126 125 126 133 131 126 125 90 26 25 31 38 11 65 147 164 166 158 155 145 157 160 154 148 142 147 157 161 175 147 138 162 161 172 177 153 166 177 182 179 160 138 164 149 144 156 171 178 190 131 19 26 33 21 57 78 83 86 92 98 96 87 80 72 64 57 59 49 48 50 44 53 52 60 55 58 61 61 66 71 75 91 100 110 116 121 122 119 115 113 114 120 121 128 129 131 129 130 103 31 22 31 33 28 10 88 154 161 164 161 153 155 154 157 153 148 151 145 152 175 167 152 142 159 169 164 183 151 161 186 177 178 161 145 158 151 149 143 170 183 193 194 88 15 31 33 27 54 76 87 87 95 99 93 88 80 70 65 58 55 52 47 47 50 51 57 59 56 60 59 72 85 97 100 110 113 121 121 119 120 112 116 114 119 122 131 132 131 130 106 35 21 29 35 27 24 40 119 166 161 142 166 151 157 167 148 155 144 155 150 164 171 171 155 138 157 177 166 183 153 172 188 179 188 169 146 155 157 146 149 166 182 184 192 144 39 25 33 29 26 34 83 82 92 93 97 90 90 76 67 63 56 52 55 52 53 48 57 55 56 57 61 85 99 109 109 103 116 115 119 120 119 117 111 117 119 125 131 130 135 100 33 20 33 29 34 14 51 138 162 164 165 145 144 156 159 159 158 153 132 158 167 178 154 173 161 122 