P2
92
112
255
95 95 99 94 95 98 97 99 92 94 93 98 94 97 95 95 93 93 95 94 92 95 92 90 95 92 94 95 79 45 52 46 52 52 67 67 86 104 89 64 60 72 58 49 50 67 55 57 69 57 55 60 76 72 69 74 77 76 69 73 64 59 65 63 55 50 76 81 75 90 87 93 89 91 90 91 89 88 91 90 89 94 91 89 90 93 91 89 93 89 92 91 98 96 95 98 97 92 96 99 93 97 92 97 94 95 98 93 96 93 97 93 97 91 93 95 92 89 87 89 66 58 56 51 47 65 78 82 86 100 92 69 66 63 56 48 60 54 62 67 64 61 65 60 65 67 76 80 67 73 73 76 78 74 76 62 62 50 51 77 78 85 90 88 89 91 91 88 89 92 88 92 89 89 90 89 92 90 88 92 88 93 89 94 98 97 95 98 93 99 95 94 97 98 92 96 92 98 94 95 95 92 97 89 97 93 93 86 80 67 77 74 61 49 45 46 59 67 101 87 77 80 76 73 69 65 54 61 66 67 55 55 65 50 46 53 56 61 68 67 58 69 86 93 94 73 84 85 68 63 52 46 74 74 83 85 87 91 92 93 88 91 88 92 88 89 93 92 92 92 92 88 90 90 89 92 95 97 96 98 97 95 95 96 98 95 96 96 97 95 95 97 94 93 93 94 95 89 85 85 67 61 71 57 60 46 48 39 68 83 104 83 70 68 53 68 91 85 69 67 82 81 60 41 45 32 34 40 41 45 51 67 66 62 56 59 72 64 62 61 78 79 73 54 59 66 60 72 78 86 88 89 92 89 87 92 89 91 88 90 86 91 88 93 87 94 89 87 97 99 97 97 95 100 96 95 98 96 94 96 96 93 97 96 80 73 72 78 76 59 57 61 69 61 96 64 54 69 58 45 78 86 93 61 52 58 55 55 77 89 77 72 67 95 78 66 33 27 28 35 35 42 66 96 102 89 76 64 77 67 67 53 54 82 78 68 57 58 62 65 60 69 83 88 90 88 93 92 89 93 86 90 90 89 93 87 93 91 88 93 96 95 100 95 94 98 97 94 100 96 95 95 97 93 97 77 71 63 63 61 68 43 50 59 62 62 90 87 67 97 81 64 67 93 85 57 47 62 58 63 66 95 84 77 52 70 96 68 57 41 26 32 30 61 89 87 84 86 92 84 61 64 68 66 39 50 72 76 67 55 49 74 71 73 77 82 88 90 91 91 89 94 90 89 89 94 88 91 89 91 91 91 97 100 97 94 97 95 97 94 96 94 95 95 102 85 77 58 67 65 73 55 75 83 66 68 74 79 75 80 73 101 92 66 57 65 96 67 52 77 65 74 68 102 84 83 63 56 72 86 69 53 37 27 39 75 91 80 61 71 84 78 72 65 64 59 46 40 59 61 80 69 51 68 76 79 83 80 87 89 94 90 92 89 95 92 85 93 89 91 88 90 93 89 98 98 97 98 95 98 97 98 94 96 96 98 100 78 68 60 61 58 60 63 59 80 90 91 85 85 80 65 60 77 81 60 67 62 74 63 66 87 83 66 77 84 82 60 55 54 52 79 86 58 55 32 44 47 53 48 59 86 111 100 77 68 57 54 48 53 58 58 64 72 62 65 83 79 83 77 83 91 90 90 91 91 93 91 90 93 88 92 92 93 90 93 98 95 99 97 97 97 95 96 98 95 98 92 92 78 65 71 67 62 56 74 76 69 83 102 87 73 72 57 46 60 72 77 88 74 55 38 71 95 99 80 67 57 85 42 48 45 39 49 84 83 48 50 36 24 32 40 63 97 118 94 73 68 64 58 62 50 59 69 69 71 61 67 76 77 70 74 78 91 86 90 92 92 93 92 91 94 90 86 89 96 93 88 101 91 99 95 95 96 95 96 97 95 96 95 91 67 68 80 82 77 54 72 89 87 89 93 90 68 59 49 36 57 81 101 113 73 39 30 61 86 117 89 48 28 69 46 31 40 40 35 54 81 66 44 41 30 34 54 73 90 105 101 93 81 74 69 66 65 57 54 62 65 78 76 66 69 71 69 74 85 91 89 92 90 92 90 91 91 90 93 88 91 95 90 96 93 97 96 97 94 94 98 94 96 95 98 76 62 69 86 73 78 78 86 103 85 94 93 88 77 52 46 29 61 76 91 93 64 37 39 55 93 108 71 37 21 45 46 32 34 37 34 39 58 84 41 46 34 39 49 73 85 85 102 85 77 64 63 58 60 56 56 57 55 61 80 86 60 69 71 72 82 89 88 92 90 90 92 93 91 92 91 90 94 89 93 96 97 96 94 97 98 95 97 99 92 93 96 62 47 74 81 71 71 95 95 102 78 78 86 76 70 53 42 34 54 57 61 67 49 35 65 86 93 96 74 33 27 27 44 35 28 31 35 30 48 72 55 31 34 32 37 49 56 61 76 83 82 62 67 63 58 51 56 56 65 59 69 82 99 69 76 77 70 86 95 93 88 94 90 92 92 91 92 91 94 89 94 97 99 93 95 99 95 93 97 97 87 95 88 54 45 65 86 66 68 82 95 71 80 60 79 65 57 51 43 37 48 46 52 57 63 57 77 87 92 89 95 89 67 34 42 30 31 26 35 32 42 57 60 35 35 32 35 37 43 57 75 106 89 66 56 57 53 58 41 43 77 74 80 78 78 92 72 87 76 80 92 93 90 90 91 93 94 88 95 90 94 88 94 95 96 96 97 98 96 95 98 94 89 87 82 62 76 76 80 72 64 71 81 60 68 62 63 65 40 50 40 37 41 41 46 46 41 50 64 63 79 79 76 83 79 73 72 57 30 30 38 33 37 53 61 42 37 35 33 35 48 58 75 87 78 55 61 61 57 54 38 39 70 88 80 85 67 87 80 82 81 80 90 92 91 92 93 91 94 92 90 91 93 92 92 96 97 95 95 97 94 95 100 85 68 71 95 102 103 100 71 72 61 55 68 64 50 66 62 54 47 39 37 36 37 40 42 35 33 37 41 49 68 96 76 72 70 68 71 72 74 52 48 35 33 43 60 57 39 34 33 39 43 55 62 75 63 61 61 59 56 55 47 42 67 91 73 84 65 78 72 81 83 83 89 89 89 91 91 88 94 90 92 90 90 93 94 95 98 92 97 96 94 95 90 71 68 87 93 102 81 74 63 62 59 55 48 56 42 65 72 55 46 41 39 34 45 44 35 35 32 46 39 41 45 66 94 72 76 62 61 44 53 73 61 34 39 36 46 50 46 36 34 34 31 47 57 67 79 74 55 49 69 45 41 36 70 88 80 78 88 76 67 69 89 80 94 88 90 94 89 90 91 90 92 91 91 87 92 97 97 95 100 96 97 87 66 58 78 106 106 93 84 62 64 51 55 51 48 49 46 51 72 52 46 47 41 38 44 40 36 34 34 34 34 39 37 49 83 83 75 81 50 42 41 45 72 50 36 36 40 45 39 32 33 33 35 59 69 80 78 63 52 63 55 37 50 45 80 86 80 73 96 73 65 68 84 79 95 87 92 93 92 92 94 90 93 91 93 92 95 98 97 93 99 98 93 72 48 60 68 108 122 99 69 72 78 78 74 70 63 65 51 46 63 46 44 48 41 37 37 39 39 35 33 41 29 33 39 30 68 74 75 83 69 36 30 34 41 49 45 35 36 45 37 43 36 35 54 73 69 67 62 53 60 66 37 44 59 66 79 88 75 75 85 69 66 60 81 92 88 93 88 95 91 91 95 88 93 92 92 91 95 100 93 95 97 97 87 66 63 66 71 90 105 81 77 84 98 96 102 90 85 68 64 54 53 47 43 46 43 37 41 40 43 40 40 37 40 37 40 36 42 62 67 59 84 61 33 31 34 36 44 33 37 38 38 42 41 44 52 49 63 78 61 57 55 69 49 61 70 71 79 83 76 74 68 65 65 68 73 86 89 93 91 92 87 91 88 91 93 88 90 92 90 94 96 94 95 96 85 60 79 73 71 75 75 73 95 93 104 100 97 84 79 70 61 59 55 53 38 45 43 39 41 45 42 49 49 43 44 47 43 35 46 47 61 46 60 73 52 31 34 37 37 41 34 39 34 41 41 48 56 68 74 80 77 73 76 74 70 75 73 75 85 70 72 69 65 73 65 59 79 87 87 93 90 92 90 92 92 89 94 92 90 94 92 93 98 95 93 92 90 71 72 74 70 73 70 101 96 87 98 82 69 65 65 65 64 56 54 56 51 43 42 40 44 50 53 54 56 50 55 58 48 40 47 44 51 47 45 57 63 43 37 34 39 40 39 42 39 42 42 52 61 70 77 88 85 82 90 81 78 79 78 80 73 71 57 62 73 74 63 55 71 87 91 88 93 92 91 90 90 94 90 94 86 94 89 97 93 97 92 91 94 84 70 61 55 63 63 97 77 86 70 67 53 48 55 54 64 58 58 56 57 57 51 49 47 52 55 61 61 69 70 61 51 49 47 47 45 47 45 47 50 55 43 42 45 47 44 48 46 50 54 54 65 75 83 85 93 92 81 77 82 84 79 70 61 63 61 69 74 65 55 60 70 87 92 89 89 91 91 92 89 91 89 94 92 92 92 93 94 93 93 93 94 87 74 58 54 53 60 76 63 78 60 60 61 58 52 47 55 53 56 62 61 62 62 59 57 67 67 77 79 84 80 66 58 57 48 51 37 50 46 43 50 50 57 49 48 55 53 53 58 56 65 72 76 90 92 88 94 86 78 80 76 72 60 64 64 72 74 68 64 56 53 57 72 89 82 88 88 89 90 90 96 89 90 94 91 91 93 93 94 92 91 94 91 90 82 64 45 46 56 59 63 53 68 66 68 72 64 58 59 62 62 65 71 68 68 69 77 81 93 106 108 107 90 77 64 63 56 51 43 50 53 55 50 62 60 67 68 63 64 62 73 67 69 71 80 85 91 84 79 73 76 74 66 67 59 71 82 82 72 66 61 53 46 60 70 82 79 85 86 89 93 89 92 90 90 90 93 90 92 94 93 94 90 90 91 93 84 70 57 36 57 55 53 48 61 64 65 60 59 54 66 74 80 78 72 81 88 92 96 106 123 131 122 122 111 92 80 69 66 57 56 55 60 71 57 71 77 81 87 84 78 75 76 81 75 74 85 82 81 80 82 77 77 78 75 75 71 84 75 71 53 61 57 62 56 45 73 75 77 84 86 89 91 91 94 88 88 92 92 91 93 94 92 96 88 92 88 91 90 69 51 40 51 54 42 52 61 58 50 43 49 59 86 101 98 96 97 102 105 111 121 130 141 141 131 136 127 111 98 91 76 69 69 67 70 73 71 86 86 100 100 101 94 88 86 81 84 77 84 71 71 77 78 78 79 79 74 74 77 75 61 53 60 61 63 63 62 53 60 72 80 84 88 89 88 90 89 93 86 95 91 93 90 96 89 91 90 90 91 83 82 73 58 42 45 52 54 50 55 42 39 46 69 92 115 112 118 119 125 116 122 127 135 143 147 149 152 154 149 142 129 113 100 88 85 85 88 93 89 94 102 107 111 111 109 100 92 94 93 86 87 80 78 81 79 72 81 71 69 73 66 70 66 65 70 63 63 57 65 60 53 63 81 86 85 88 93 86 92 91 90 93 90 92 96 89 89 91 88 87 87 86 87 62 69 46 40 48 49 45 37 31 47 62 99 124 116 124 130 133 131 135 134 144 150 146 150 158 166 172 169 169 150 131 126 111 99 100 99 98 95 100 108 106 113 117 117 111 101 98 102 96 94 88 85 84 83 84 81 77 69 65 67 73 65 63 62 64 58 54 50 52 49 54 81 83 87 87 89 87 92 89 93 91 97 88 91 92 88 88 88 87 85 94 90 56 52 44 40 40 41 37 30 46 59 92 121 129 127 134 139 143 139 148 147 155 152 148 160 167 183 177 180 179 162 139 138 127 115 112 111 113 106 107 109 111 111 118 122 117 114 108 105 104 102 95 95 92 85 83 89 86 81 72 61 71 72 68 50 55 48 50 45 50 37 47 77 85 87 84 89 86 90 91 91 93 91 91 92 86 90 90 84 85 88 89 88 75 37 42 42 37 41 31 37 60 79 119 130 129 134 143 142 145 149 153 157 157 155 157 168 178 182 184 181 183 167 148 141 142 131 124 116 115 115 114 117 117 118 124 127 127 124 122 113 114 114 110 101 106 88 88 97 94 89 77 65 63 69 74 61 50 40 42 43 39 42 38 65 91 84 88 89 88 92 91 90 91 91 88 94 89 90 85 86 87 83 84 87 77 51 34 42 39 36 33 60 69 102 130 132 135 138 144 140 150 157 163 164 162 163 166 179 176 179 181 179 180 169 154 144 147 143 139 129 121 121 120 121 124 123 129 135 132 133 131 121 119 120 117 107 108 101 95 108 105 99 85 75 65 60 75 74 66 54 43 34 34 41 33 68 82 88 84 90 86 87 87 93 88 95 91 91 88 86 85 84 86 87 83 89 73 49 31 41 40 36 43 70 87 120 128 133 137 141 149 148 157 162 167 171 170 171 176 183 180 173 180 180 179 171 163 149 151 150 147 141 130 124 120 117 124 129 137 138 140 140 139 131 124 125 123 118 117 113 109 111 114 103 98 87 77 71 62 71 61 67 62 54 38 34 40 63 83 85 85 84 90 87 92 89 89 92 91 95 87 89 85 84 86 86 85 86 64 46 39 36 33 44 60 74 106 124 135 136 141 145 146 158 160 158 164 170 173 172 179 181 176 174 175 179 171 169 164 158 155 149 147 142 136 132 126 119 124 135 136 142 142 144 142 139 125 125 125 124 121 119 114 117 115 106 106 101 86 78 76 54 55 44 43 58 56 48 45 57 84 83 89 81 89 88 91 90 88 91 91 89 85 87 85 83 88 84 88 82 46 49 36 33 39 50 68 91 116 127 134 140 145 148 148 155 157 160 165 172 176 176 181 180 172 178 177 175 177 172 170 164 162 152 149 144 140 141 131 133 135 136 136 143 142 146 143 142 135 129 130 124 125 119 120 118 116 110 108 104 106 85 69 66 48 40 37 34 40 38 57 60 70 83 87 88 84 88 89 90 88 93 89 95 84 85 86 87 85 84 90 66 47 44 37 37 37 65 85 114 125 129 135 139 141 147 149 158 160 158 169 170 175 176 176 174 174 177 175 172 170 165 166 162 158 154 153 147 146 142 139 143 136 143 141 140 145 143 145 137 136 128 133 128 121 124 123 119 115 106 109 108 110 99 80 62 49 41 33 35 29 32 50 84 76 79 88 86 87 88 92 85 94 89 91 93 86 84 84 85 84 85 85 72 46 43 35 47 56 82 109 127 129 129 136 139 141 145 148 156 158 162 160 168 169 175 172 171 172 168 174 170 171 168 169 168 165 159 156 156 153 150 144 146 142 149 143 145 143 141 142 138 139 136 136 134 123 126 125 122 114 105 111 109 109 102 100 79 56 48 35 35 26 28 51 76 85 80 83 84 86 87 88 87 90 91 91 94 85 84 83 89 84 84 86 72 41 38 40 54 86 99 116 128 129 131 136 137 145 138 145 146 156 159 158 166 167 172 172 167 168 167 162 165 166 167 163 162 160 156 154 160 157 150 153 144 144 145 145 141 146 140 143 143 139 139 132 131 124 127 129 121 116 107 113 110 111 104 102 88 72 60 44 31 26 32 55 76 80 80 80 86 82 85 86 87 91 89 90 89 88 83 83 86 80 88 87 77 39 40 42 64 97 106 116 130 131 131 135 140 138 142 142 144 151 158 158 162 162 164 166 167 161 165 158 157 158 160 157 154 155 153 153 157 155 149 149 147 144 143 144 137 142 141 143 142 139 140 138 132 128 132 131 124 115 110 112 108 107 106 107 88 84 55 55 38 26 29 53 78 74 79 82 84 81 84 87 89 89 90 94 88 84 83 85 83 87 82 85 87 43 41 37 79 104 111 118 128 133 129 134 139 139 141 143 143 143 149 151 150 151 156 158 160 159 163 157 156 155 161 154 156 155 157 153 154 149 147 152 145 146 147 140 142 136 138 140 139 135 137 138 133 131 136 137 128 115 110 110 107 109 109 101 93 80 64 50 46 36 25 55 74 74 76 81 80 84 85 85 86 86 89 92 90 84 84 85 83 83 83 80 92 53 39 44 85 105 114 113 127 132 128 134 137 137 137 138 138 145 146 145 151 150 151 151 158 154 153 157 153 156 158 156 155 156 153 150 148 155 148 150 147 147 145 146 144 143 137 142 133 135 137 138 139 137 135 135 131 116 112 111 107 111 108 106 87 80 69 50 42 43 29 60 71 71 76 74 81 77 81 87 86 87 90 92 90 87 84 81 87 81 83 82 90 54 39 46 84 110 114 113 124 131 128 135 135 136 139 131 140 141 141 144 147 153 149 150 156 157 153 156 156 153 152 148 153 152 151 150 150 151 153 150 146 151 149 152 150 146 146 144 139 139 141 137 138 135 134 135 127 117 111 113 107 109 109 100 94 76 68 55 38 42 38 57 69 66 71 72 71 80 79 84 80 89 87 92 91 82 85 87 81 85 83 86 88 58 39 54 91 106 117 114 118 134 129 133 135 132 137 135 132 137 139 141 149 152 152 153 155 154 159 154 154 155 153 153 153 153 150 149 151 151 154 153 150 152 153 155 151 153 152 147 147 144 143 146 137 135 135 133 126 115 110 116 107 108 109 106 94 78 66 55 41 37 46 61 64 63 74 62 76 75 77 81 81 88 87 91 88 80 82 86 82 86 83 84 88 61 41 62 91 106 118 114 119 129 132 133 134 133 136 138 134 136 138 146 150 153 154 157 155 156 157 158 155 152 149 150 152 147 144 147 150 152 153 152 153 152 152 154 156 153 153 149 147 147 146 145 133 140 134 133 123 115 113 117 111 106 109 106 98 82 67 56 45 35 44 64 58 67 65 66 73 75 75 77 83 81 87 89 91 85 82 89 83 83 83 84 86 63 48 57 95 105 115 115 117 128 131 130 132 133 132 137 140 142 144 148 150 148 157 158 158 157 156 158 153 150 147 150 148 147 141 145 146 148 152 153 156 155 154 154 162 152 158 148 152 151 148 145 135 134 132 132 122 117 114 118 109 105 108 105 104 87 71 53 48 37 46 59 59 65 62 65 67 72 75 72 78 86 83 85 87 81 84 80 81 83 89 79 91 66 46 64 95 109 114 117 112 126 132 132 133 133 134 135 138 142 147 151 152 152 157 160 158 156 159 157 152 152 148 146 142 147 141 144 145 149 146 146 153 157 150 150 153 154 152 150 151 151 148 144 135 129 127 129 123 118 116 114 113 102 110 104 105 100 78 59 49 37 42 58 56 59 61 62 66 71 72 74 78 83 81 86 83 83 79 84 82 83 84 83 88 64 49 62 90 108 111 118 117 120 129 133 133 139 136 137 139 144 147 151 153 156 154 161 163 157 158 156 157 152 152 144 142 146 145 143 148 147 142 140 149 152 149 147 151 152 149 148 150 150 151 143 139 129 129 129 124 113 117 112 112 110 107 104 107 102 84 62 51 42 41 55 56 55 58 62 65 65 72 72 77 77 85 81 88 79 82 82 85 81 84 84 83 71 46 65 92 108 109 118 117 119 125 129 133 140 137 143 142 142 143 145 154 150 154 157 162 159 153 153 155 151 150 143 150 143 148 145 148 149 142 142 146 145 142 140 144 145 143 140 144 147 152 143 136 132 131 135 125 115 114 112 108 107 105 106 105 106 84 69 53 48 41 52 59 55 55 61 59 64 69 66 72 74 79 80 82 80 82 83 80 82 85 80 89 62 50 57 89 103 110 114 118 115 119 129 134 136 142 144 142 140 141 142 147 148 147 155 153 149 152 152 150 141 147 142 141 149 145 147 147 143 140 139 137 136 129 130 129 129 136 135 136 137 138 139 135 134 136 142 129 118 115 111 112 103 107 104 104 106 93 62 60 43 43 71 81 64 53 55 57 60 66 70 69 74 78 77 82 80 82 80 83 79 83 82 85 69 44 54 89 100 111 115 111 121 121 129 135 136 143 148 139 140 141 131 135 143 136 146 146 140 146 144 147 142 143 140 141 149 144 143 147 137 135 134 129 126 117 111 112 111 118 121 119 124 122 123 129 126 135 140 133 122 118 113 109 106 106 107 104 104 89 67 60 42 52 98 112 105 58 51 59 57 59 69 65 72 76 77 77 84 81 84 81 81 86 81 85 73 43 50 88 102 109 111 114 116 123 128 138 141 145 143 146 136 135 133 127 130 127 133 136 136 137 144 139 138 137 134 138 143 138 138 141 136 135 132 123 112 105 102 91 94 102 104 103 110 112 113 117 121 127 127 136 126 121 112 108 112 103 108 105 102 91 64 61 35 68 109 98 82 75 48 54 56 63 64 69 68 75 76 80 82 83 78 84 82 79 82 83 78 51 44 81 106 109 111 111 115 128 131 136 145 139 139 144 135 127 123 119 121 117 114 123 127 130 136 127 124 129 125 131 136 132 129 133 128 126 120 116 103 93 88 80 82 84 79 88 95 102 109 112 113 116 119 120 127 124 116 110 103 110 105 110 103 93 63 55 51 83 103 75 70 69 49 53 54 56 62 62 72 69 75 75 86 79 81 83 81 81 81 81 81 53 38 77 104 112 111 112 115 129 129 131 131 129 120 125 114 111 108 103 101 102 100 105 115 117 124 120 113 120 122 126 129 126 119 123 121 116 110 103 90 83 81 76 71 78 78 84 86 97 96 113 106 111 111 113 118 120 117 112 104 110 106 109 107 90 70 60 62 89 86 49 76 60 51 51 55 56 59 66 65 68 74 72 80 82 82 78 83 84 77 84 84 58 41 69 104 110 112 111 119 121 121 126 121 123 111 112 100 97 89 88 84 82 90 92 97 105 113 112 113 120 122 130 132 129 112 116 113 105 97 91 83 72 79 76 79 81 83 86 94 92 99 104 103 109 107 107 108 115 113 112 101 111 105 110 109 94 76 77 76 94 89 46 82 63 48 51 53 53 60 61 64 68 71 75 83 78 80 82 81 77 96 104 95 61 43 63 106 108 114 109 114 108 110 114 115 112 100 93 88 83 79 78 75 74 72 79 81 83 100 102 117 118 123 137 140 135 120 112 99 94 87 82 75 73 75 76 71 74 80 80 83 92 91 101 99 102 100 103 106 103 111 111 107 112 107 112 109 98 84 85 82 103 112 43 88 59 52 51 54 52 58 59 62 66 72 69 84 80 82 80 78 86 119 139 141 82 45 58 102 112 115 112 105 107 112 101 109 104 95 85 88 84 79 79 72 77 72 71 73 75 82 87 104 118 127 134 149 144 135 112 96 88 78 78 73 76 68 55 56 58 65 69 69 75 76 81 83 92 96 97 98 95 109 108 110 115 112 109 111 105 88 88 98 103 123 56 87 61 48 56 52 56 57 60 62 64 69 71 85 78 86 75 83 85 73 128 157 116 45 55 99 116 114 115 102 103 107 99 100 93 95 85 82 83 68 69 60 62 65 67 71 70 72 73 91 118 131 141 155 156 141 125 100 82 79 77 75 69 57 55 66 63 56 49 60 65 73 81 72 70 85 96 96 99 103 114 114 111 113 110 107 107 89 92 107 101 116 75 91 62 42 53 52 55 55 58 58 65 63 68 83 79 84 78 83 86 41 63 125 130 61 54 101 113 115 108 102 99 101 94 92 86 79 71 63 66 61 67 56 55 55 53 61 71 65 64 75 113 138 158 164 163 155 137 98 91 83 82 76 69 61 66 72 55 43 40 36 48 57 70 80 82 57 85 100 96 107 110 111 112 114 112 107 107 90 68 85 91 104 97 92 62 44 54 48 55 51 60 61 63 66 71 80 83 78 82 80 88 53 40 69 107 81 56 105 113 112 106 97 95 92 88 83 68 61 64 67 61 57 50 48 48 65 58 57 63 65 62 58 106 139 160 170 167 163 147 108 90 92 89 86 70 54 69 93 60 43 26 31 38 66 81 62 71 75 74 91 99 106 110 113 110 112 107 107 110 76 57 66 82 90 108 90 51 48 54 49 51 54 59 55 63 64 68 83 83 77 80 78 89 54 43 51 69 81 71 106 113 113 107 95 85 85 81 67 55 66 74 64 41 49 37 46 30 72 70 54 65 64 65 55 99 131 158 176 174 167 161 123 94 102 104 96 65 54 73 101 78 51 45 43 44 82 91 73 73 70 87 93 97 111 115 117 113 111 108 107 108 68 50 68 70 84 109 92 45 52 54 51 54 54 54 58 57 68 64 75 81 80 81 79 86 71 50 62 71 58 78 105 115 113 111 99 86 80 74 60 68 68 68 76 49 36 29 33 43 84 84 58 50 68 72 68 100 132 155 177 183 172 168 145 99 104 109 102 86 68 75 93 100 84 67 70 78 97 97 93 95 94 95 99 102 111 120 116 115 106 108 103 108 90 55 71 71 83 111 82 44 49 54 53 53 55 53 59 58 66 62 79 81 81 79 76 91 79 78 70 89 71 67 104 116 115 114 102 90 83 70 67 69 52 65 92 66 50 52 48 63 90 91 57 58 70 82 93 110 130 160 175 178 175 166 156 114 103 116 110 104 97 92 99 109 113 102 103 101 109 106 100 107 112 111 108 113 116 124 120 117 107 106 99 107 120 74 67 74 89 114 73 44 50 55 51 52 56 55 57 58 63 64 81 77 82 79 76 82 94 95 81 99 92 66 98 114 114 123 115 104 88 81 76 73 65 69 91 91 71 71 74 90 103 94 79 88 84 88 111 118 129 159 172 172 169 162 157 116 106 126 122 113 107 109 110 115 111 109 107 107 114 117 115 117 118 118 119 125 127 129 129 116 108 103 100 100 127 97 64 75 100 114 67 42 52 56 52 54 54 56 58 58 62 64 83 79 77 82 84 68 92 109 107 95 105 78 90 105 110 124 135 123 117 108 107 91 88 96 107 115 124 123 120 114 111 107 104 110 101 113 128 126 122 148 177 179 174 168 150 118 106 128 134 136 126 114 112 118 117 120 118 119 112 115 115 122 122 128 131 134 139 136 133 117 108 101 104 100 119 103 61 77 111 110 55 46 54 53 53 52 52 55 57 62 59 64 80 82 77 82 79 78 73 104 120 97 100 86 88 99 114 127 138 135 138 136 138 123 105 103 113 110 119 118 116 120 118 123 122 127 124 136 138 127 120 142 172 182 173 167 146 114 106 128 132 147 144 142 130 120 118 116 114 116 112 120 127 134 132 135 138 141 145 139 132 116 106 101 100 103 109 94 84 95 107 99 57 41 55 54 52 53 54 59 58 59 62 66 81 78 78 83 75 82 72 89 113 104 102 93 85 99 110 129 139 143 150 145 140 133 129 123 123 123 128 126 130 128 131 135 140 145 142 147 135 130 118 140 164 177 174 163 142 115 111 120 132 135 152 162 157 149 138 131 127 123 131 133 141 145 150 151 151 144 145 141 131 114 104 102 97 108 97 94 119 102 101 95 51 49 51 51 55 52 56 56 56 61 66 61 81 76 82 82 75 82 77 67 109 105 102 106 94 93 107 123 140 148 151 143 138 133 124 129 123 125 123 128 129 129 143 153 161 153 147 142 133 126 123 138 157 170 169 164 141 119 116 119 128 134 153 159 165 167 168 161 153 149 151 152 156 158 157 156 152 147 144 141 130 119 105 103 100 110 94 92 116 107 108 87 48 48 52 53 53 53 56 49 62 53 62 61 79 78 77 80 77 81 78 73 91 109 109 119 108 93 98 123 134 147 151 151 153 153 138 140 139 137 144 144 144 156 160 166 158 152 146 143 134 128 128 140 152 165 167 162 144 130 123 117 127 142 154 160 166 166 167 167 163 161 164 161 160 156 158 157 154 144 143 140 127 115 104 103 96 108 106 104 113 110 117 78 39 55 51 50 52 53 55 52 60 55 59 60 81 79 77 80 80 81 79 76 77 105 110 127 128 92 97 118 134 140 151 153 153 157 155 149 155 158 161 167 163 166 164 163 156 154 145 139 132 131 135 146 155 164 167 165 154 140 129 121 130 144 160 166 166 166 167 170 168 169 164 163 166 159 153 154 150 144 143 136 128 114 105 104 97 103 112 114 111 116 115 65 43 52 53 54 52 55 52 56 54 57 58 61 79 80 75 80 82 80 80 80 71 96 104 135 139 108 94 110 131 133 144 149 152 151 159 156 159 162 161 168 165 164 163 160 157 153 146 139 130 139 140 155 159 167 168 167 156 148 136 121 126 138 153 162 166 166 167 165 171 167 166 167 165 161 154 156 152 143 139 136 126 111 106 101 98 103 101 110 106 115 116 56 49 51 50 56 52 54 49 55 58 53 60 60 79 79 77 86 78 80 80 80 74 77 110 114 145 128 93 107 122 125 136 142 146 149 152 154 159 161 160 167 167 163 163 160 156 149 143 134 132 139 146 157 168 172 173 171 163 151 144 124 128 133 133 144 158 164 168 166 168 165 167 166 163 160 158 153 151 147 138 133 123 111 108 103 95 96 101 104 109 112 112 55 48 54 53 50 57 50 54 55 55 55 59 60 80 77 79 80 79 79 78 86 78 63 108 106 108 150 97 102 117 125 130 135 145 146 150 154 160 162 162 164 167 158 163 156 149 138 133 133 131 142 149 160 179 175 179 170 163 146 138 128 131 136 122 126 140 148 158 166 161 163 160 158 163 155 157 151 149 144 142 130 120 109 105 107 92 84 102 102 107 109 99 44 52 51 55 51 55 52 53 54 50 60 57 61 79 79 77 83 75 83 79 82 81 72 84 128 116 162 114 97 112 122 127 134 139 148 152 158 162 162 163 160 157 159 151 143 122 121 137 140 129 136 145 160 176 172 173 170 161 147 134 127 127 151 128 116 121 129 141 149 150 153 158 155 156 153 154 148 153 138 135 128 119 104 108 109 88 79 96 99 105 95 72 45 54 52 52 53 56 51 54 53 55 55 60 59 79 77 79 80 80 80 77 81 80 74 70 125 137 157 131 87 115 118 126 134 143 147 153 156 159 158 162 154 153 145 135 119 107 122 142 137 129 129 135 154 164 166 163 166 161 142 130 121 119 147 132 108 107 115 124 132 139 145 151 147 150 145 149 144 143 134 127 123 113 106 106 111 84 61 85 91 91 73 57 47 51 54 51 53 51 56 48 56 53 59 56 59 80 77 80 79 81 76 80 76 78 81 62 111 133 149 143 90 106 120 126 132 141 147 149 156 152 153 152 149 146 127 116 96 103 125 142 132 124 126 130 139 155 158 154 153 151 131 120 112 115 134 131 104 98 105 105 120 127 135 143 143 141 140 136 143 134 131 122 120 112 106 106 110 81 39 60 71 60 55 51 53 48 54 52 53 52 56 50 55 57 55 60 55 79 77 78 81 76 80 77 86 72 83 62 105 130 140 145 93 102 116 123 128 137 143 146 146 145 147 137 138 127 109 93 81 94 119 133 125 116 103 110 121 137 141 139 132 127 116 100 97 106 117 118 99 106 112 105 104 111 123 128 134 134 129 133 128 128 126 115 113 113 105 103 113 80 41 47 56 49 52 51 51 51 54 52 51 56 50 50 57 55 56 59 59 76 79 80 80 78 82 74 80 78 83 67 94 115 130 139 99 94 113 121 126 132 138 140 139 139 139 135 125 111 94 81 93 106 111 114 111 103 82 84 97 109 124 121 119 106 97 89 85 93 97 102 100 115 126 124 106 100 110 117 123 128 125 127 117 118 119 114 108 109 106 105 113 78 35 50 52 53 52 52 52 51 53 52 53 51 54 52 55 57 57 58 59 81 77 82 81 80 80 80 77 80 81 75 72 101 111 123 106 90 103 118 120 126 130 133 132 135 131 127 115 101 78 91 110 128 113 89 76 69 55 63 73 90 97 106 99 95 81 61 56 63 75 92 95 114 137 136 127 99 94 103 114 118 117 120 117 110 113 106 108 111 106 107 112 72 39 50 54 48 51 51 54 53 52 52 54 49 50 58 51 54 60 58 61 75 78 83 79 75 85 73 78 81 75 79 73 77 89 101 99 93 99 105 118 121 122 124 122 126 124 115 104 95 81 108 124 134 134 85 57 47 49 45 57 73 87 90 93 85 64 55 55 52 86 88 99 107 131 140 144 126 100 87 95 110 113 117 115 104 107 107 106 110 106 106 113 71 38 51 54 49 53 50 49 51 50 54 46 58 49 57 53 57 55 59 53 76 78 80 80 79 80 79 74 85 79 75 79 79 77 78 84 95 100 98 110 117 115 115 121 115 116 105 94 84 98 123 135 135 146 102 56 54 56 65 55 72 82 78 87 80 73 74 73 82 98 103 102 106 122 137 141 139 134 100 76 89 108 113 114 107 103 106 107 107 108 109 107 66 45 51 51 51 52 50 49 52 52 53 56 50 50 58 51 58 52 60 56 81 75 83 78 84 78 77 78 77 80 81 80 78 83 76 74 97 99 90 102 103 108 111 119 110 107 97 84 85 118 132 141 135 139 123 79 64 63 66 70 70 71 75 76 79 79 90 89 102 104 107 106 104 116 130 137 135 138 128 99 60 92 107 115 111 109 106 103 110 109 105 111 60 47 52 51 52 49 50 53 47 55 52 48 56 52 56 53 54 56 60 56 80 78 80 79 78 82 76 78 80 79 78 80 79 82 81 67 96 100 93 91 102 101 109 112 109 99 80 87 106 136 138 136 133 135 128 107 86 76 71 72 75 76 73 72 77 83 90 99 100 100 103 105 103 110 121 129 127 124 120 120 89 62 94 113 113 108 109 108 106 107 107 108 55 46 52 46 57 49 51 51 49 55 48 53 55 49 54 56 58 52 63 60 72 82 75 82 75 83 79 75 83 79 77 77 80 79 80 73 89 98 99 84 90 98 110 113 102 89 70 102 131 137 138 134 125 125 125 122 109 91 84 81 77 79 74 79 81 84 96 95 99 103 99 105 107 106 111 112 115 108 109 111 116 64 85 109 110 108 110 109 104 110 110 102 46 51 49 55 48 53 49 53 50 51 53 53 52 52 53 54 56 56 58 63 73 84 78 80 76 82 76 79 79 80 81 77 74 84 76 76 81 97 100 91 83 96 111 111 96 67 91 123 135 133 134 127 121 114 120 119 115 108 96 99 84 83 83 84 90 88 98 96 99 100 103 104 105 103 101 99 89 91 93 96 110 78 87 113 109 108 109 109 105 108 109 94 45 49 47 53 51 51 49 51 50 50 54 55 52 51 56 52 57 55 61 62 83 77 78 81 77 82 77 79 76 78 77 80 82 75 81 79 73 97 98 98 91 92 108 113 90 72 107 125 124 115 112 110 111 107 114 120 115 118 122 115 111 92 86 94 89 97 97 102 102 108 103 106 104 106 96 71 63 66 83 84 101 86 101 116 105 111 108 109 111 109 114 72 43 50 53 51 49 46 56 50 49 54 56 50 51 53 53 56 56 56 57 67 85 77 80 77 79 79 76 82 78 78 77 76 77 80 77 80 71 91 98 101 98 95 103 109 97 80 113 114 108 96 92 95 102 108 114 121 120 128 133 138 133 125 105 100 101 96 96 96 97 104 100 101 97 91 71 65 86 103 98 97 98 92 119 119 107 109 112 110 108 108 110 61 46 50 48 54 51 47 54 50 51 49 54 50 52 55 51 55 54 59 60 62 79 77 79 78 78 79 76 79 79 79 77 79 78 79 80 75 78 81 97 102 104 97 95 108 107 101 115 103 93 78 65 65 88 95 102 95 97 93 92 107 112 109 107 91 81 78 75 74 77 72 77 71 72 66 72 99 109 112 107 109 105 110 133 112 106 110 108 108 104 108 101 50 47 49 46 51 53 47 55 49 53 54 49 58 49 57 54 54 58 50 64 59 74 79 79 78 76 84 74 79 75 80 76 78 79 76 80 79 76 73 97 97 106 102 88 105 118 118 115 105 92 77 68 57 54 58 57 61 66 61 63 66 68 58 72 64 55 60 60 60 63 67 79 84 87 86 101 111 120 112 118 114 110 122 131 106 107 110 106 108 105 109 85 39 48 52 47 52 51 52 47 55 48 51 53 52 50 52 51 56 57 57 61 58 82 77 77 77 79 79 79 80 78 75 82 79 80 78 80 80 79 77 81 98 103 104 96 92 118 130 120 117 110 108 101 113 101 77 66 66 73 70 72 74 82 66 68 62 65 64 65 73 78 84 96 93 98 107 111 114 116 115 123 123 112 129 122 106 105 106 107 106 107 109 61 41 50 50 49 54 48 52 50 54 50 53 51 52 54 53 53 54 53 58 60 58 76 77 75 80 83 75 76 78 79 79 78 82 74 80 75 80 79 78 75 89 96 104 101 86 104 126 127 126 125 132 133 141 135 126 108 98 102 104 105 127 130 132 111 108 112 95 90 90 89 93 93 95 103 113 112 112 113 120 121 117 109 125 116 106 108 106 105 110 100 109 63 36 49 53 46 50 53 50 50 49 55 52 49 52 50 53 54 53 58 54 60 60 77 78 77 78 79 77 80 78 81 79 79 78 78 75 81 78 77 79 75 80 87 100 103 96 91 112 128 124 128 137 137 139 134 129 118 107 97 98 101 116 124 129 126 121 120 106 98 91 87 90 95 103 111 110 110 116 116 117 115 113 109 112 110 104 108 103 108 103 102 114 54 44 49 54 45 53 52 51 50 50 52 54 51 52 55 54 53 56 59 53 59 58 75 81 76 80 79 79 75 82 79 80 78 80 79 75 79 75 78 81 78 70 82 93 99 107 86 94 121 120 121 134 139 137 130 129 120 110 105 95 94 102 103 114 109 113 107 99 99 91 94 94 100 106 109 109 113 115 114 114 111 106 112 109 107 105 106 103 105 103 105 111 52 41 48 52 49 51 49 50 50 51 51 51 53 52 57 50 55 54 56 59 56 62 77 78 79 78 78 77 77 80 76 79 77 79 77 80 78 79 77 75 80 74 74 88 91 103 93 82 104 117 123 128 129 134 127 129 117 110 102 100 98 94 96 96 96 98 94 95 96 90 97 94 100 105 103 110 118 116 116 118 112 107 108 109 106 105 104 107 102 104 112 112 53 41 50 50 51 45 56 48 48 51 50 53 54 52 53 56 51 58 54 61 55 60 80 78 79 78 74 79 78 76 79 79 78 75 80 79 78 77 78 80 75 79 70 83 92 91 100 87 85 108 116 123 126 125 126 124 118 113 104 95 87 91 86 83 83 84 80 85 86 90 91 94 98 101 109 111 116 118 118 118 107 106 108 103 106 103 103 101 99 106 114 109 42 48 48 52 48 51 51 48 51 46 53 50 51 52 53 53 56 57 53 60 61 62 80 81 76 77 79 76 78 77 81 77 79 75 82 77 77 78 80 80 77 74 73 100 83 89 99 93 86 94 108 116 123 124 123 126 121 110 109 96 92 89 84 80 78 78 77 80 84 87 91 97 97 103 111 114 116 115 117 112 110 105 110 104 106 102 102 99 102 111 113 105 42 47 46 53 47 55 49 47 52 50 52 50 53 51 54 52 55 57 57 58 60 59 77 79 75 80 79 78 79 76 78 78 76 79 78 79 77 80 79 77 77 77 72 108 102 80 94 101 89 90 101 104 118 123 123 124 122 120 107 108 101 94 92 84 84 82 79 84 88 83 93 97 102 107 115 116 118 116 111 113 112 105 108 107 103 101 96 100 106 108 118 91 42 51 56 50 47 52 50 50 53 47 47 56 49 52 49 56 52 59 55 61 57 63 79 78 77 78 78 77 78 77 77 81 75 75 77 76 76 79 77 77 79 76 51 105 118 84 86 92 97 89 98 105 113 118 124 131 129 121 117 111 105 100 98 90 89 88 87 95 94 98 99 105 106 110 114 116 119 116 113 109 110 107 106 105 101 98 96 103 108 110 120 85 30 109 73 49 51 46 52 48 53 47 52 53 52 53 48 56 55 56 55 59 58 58 77 80 76 79 75 79 76 78 79 80 75 76 79 74 78 75 79 78 81 72 16 101 124 100 81 85 92 92 92 102 111 117 120 129 132 128 123 117 107 109 108 104 108 106 111 115 115 121 120 122 121 117 114 115 115 116 114 110 105 104 107 105 103 94 97 104 107 109 121 84 2 113 118 89 62 53 48 51 53 45 51 51 50 51 55 52 56 56 56 55 58 61 77 76 76 79 75 79 73 82 77 78 77 78 76 80 79 75 79 79 82 53 3 88 124 117 87 80 83 95 93 99 110 113 121 126 132 131 136 130 132 136 137 136 135 136 136 134 135 140 139 137 130 126 113 112 115 111 112 109 108 103 103 101 98 90 100 105 107 110 120 73 0 72 126 119 115 86 61 50 49 52 48 48 53 52 56 53 56 53 56 55 57 61 76 78 79 79 76 79 76 79 76 79 74 78 78 77 80 75 77 83 72 34 2 75 123 115 99 74 82 89 90 96 103 112 117 124 126 129 133 147 143 145 149 145 146 138 136 139 135 140 143 139 130 127 116 112 114 108 107 105 103 102 98 99 91 94 102 105 108 107 121 61 4 32 108 119 120 123 116 80 57 48 52 47 51 47 57 52 57 50 58 58 54 59 75 78 74 79 75 78 77 77 77 77 78 77 75 78 79 75 77 85 54 34 1 71 120 116 108 81 70 81 88 91 103 104 115 121 124 123 132 138 145 140 144 134 141 132 131 137 132 141 136 132 122 120 112 110 113 108 104 103 101 102 94 90 89 98 105 103 109 105 117 48 13 17 92 119 128 126 126 128 104 49 52 52 49 54 55 53 59 54 59 54 57 59 75 75 79 77 77 80 73 76 77 78 74 77 77 80 74 77 85 84 47 20 7 63 115 118 108 97 68 70 86 88 94 102 110 111 122 121 120 126 125 132 131 119 129 132 128 124 126 129 123 119 113 108 108 103 108 105 99 100 102 96 87 88 91 100 100 106 107 108 106 38 10 18 70 114 131 125 132 127 138 95 75 80 69 58 61 56 57 54 57 56 55 62 71 79 75 77 76 73 77 73 80 72 79 77 78 78 75 70 105 128 43 22 6 57 120 116 111 101 88 65 70 80 87 96 99 106 112 118 115 115 120 121 120 119 113 120 116 116 113 117 111 107 101 103 104 102 103 103 98 100 96 87 86 89 95 96 94 106 103 104 94 26 17 14 55 116 132 135 128 135 138 125 114 120 109 102 96 79 68 65 57 62 57 61 78 77 77 76 78 72 75 77 79 75 79 73 79 75 74 86 139 166 52 13 5 51 119 116 110 106 93 78 62 71 80 86 94 102 105 106 116 110 113 111 107 106 106 107 101 108 102 104 102 101 98 96 105 100 99 101 97 95 88 84 84 98 95 98 91 103 101 105 80 16 18 23 40 119 131 139 139 130 139 136 121 123 109 127 120 115 119 108 73 80 71 73 76 76 76 76 77 76 76 75 77 71 78 79 70 78 75 120 174 160 48 15 6 60 115 118 109 107 99 86 73 62 64 84 84 90 92 100 102 99 100 98 97 94 98 100 93 96 92 92 95 96 96 100 93 102 95 97 90 89 84 90 91 99 98 92 89 100 100 100 60 9 26 22 39 119 133 131 142 139 135 136 131 123 112 122 127 124 134 139 134 131 131 134 73 76 76 76 78 74 76 77 75 73 78 77 75 78 111 155 175 156 44 21 3 54 117 117 112 108 103 94 81 70 62 66 77 82 84 89 98 90 90 93 90 88 89 93 90 86 88 90 89 93 95 98 93 98 89 88 87 90 91 96 94 98 99 95 97 96 99 97 36 10 32 19 43 122 138 141 136 138 143 142 128 131 125 110 135 121 138 131 134 125 137 146 74 78 74 77 76 78 75 77 76 75 75 74 82 119 151 165 173 137 45 28 8 55 114 116 112 109 99 102 91 71 70 63 61 69 86 82 91 86 87 90 88 88 87 90 87 86 89 89 92 89 94 98 89 87 83 88 91 96 90 98 95 98 97 96 97 101 96 85 15 17 32 13 54 124 141 142 140 136 137 146 133 130 141 111 131 130 138 128 129 124 134 144 69 75 78 74 75 74 77 72 79 75 77 75 132 156 159 170 175 128 35 31 11 57 112 113 114 112 104 99 92 88 73 68 66 50 62 74 86 86 87 88 88 88 87 91 86 87 87 84 87 84 85 85 80 83 89 93 97 93 96 96 98 94 94 97 93 97 91 46 16 22 35 8 65 129 140 140 146 144 137 138 137 122 141 121 119 137 136 140 122 133 146 142 74 73 78 75 75 74 78 77 74 88 85 109 157 159 154 171 169 119 37 34 13 55 107 112 117 115 112 101 96 88 84 70 65 64 54 54 66 69 76 84 82 86 83 87 82 84 83 81 74 79 71 79 87 90 95 96 94 96 97 94 96 93 96 97 97 99 73 28 21 27 28 14 79 137 146 139 137 142 147 134 128 127 135 138 105 141 138 146 134 118 154 146 74 74 76 75 75 79 78 103 103 136 145 147 163 158 157 166 175 122 38 34 21 39 102 106 110 117 116 111 104 89 89 77 65 62 62 58 59 47 56 67 63 67 72 68 66 64 59 65 56 65 77 88 94 92 92 97 96 94 98 94 94 93 99 97 96 97 50 16 25 29 22 34 109 139 146 146 131 140 143 144 122 128 138 142 103 139 137 153 140 116 149 158 74 72 71 80 103 129 138 164 164 174 164 162 163 153 156 173 175 156 56 32 35 20 84 104 108 111 118 116 110 107 95 85 75 67 57 64 60 55 55 57 57 54 54 51 54 56 59 56 65 84 90 96 93 97 95 96 97 90 93 95 97 96 99 98 102 78 23 23 28 27 13 74 122 140 146 147 145 134 140 146 122 135 136 142 109 129 144 151 145 127 139 156 74 78 87 128 151 170 162 173 179 176 162 160 163 158 151 166 176 159 83 36 34 21 51 107 107 107 116 114 115 111 106 94 81 74 60 63 62 63 63 62 61 57 62 59 63 62 70 68 85 90 90 93 98 93 93 99 92 93 89 94 99 96 94 101 91 43 26 21 26 28 13 100 132 143 129 144 146 146 131 142 129 132 129 148 120 125 150 151 145 126 158 149 79 118 145 162 170 171 165 171 176 183 163 155 166 156 154 160 177 173 114 42 27 34 22 86 108 105 110 115 117 113 108 105 92 82 69 61 58 59 67 66 66 67 69 68 68 70 74 84 91 88 89 95 94 96 92 95 88 87 94 95 93 99 92 100 59 25 24 22 30 19 48 124 141 150 129 126 149 145 141 132 124 131 128 149 128 121 157 149 154 111 165 162 