P2
92
112
255
103 102 104 104 105 101 104 102 103 104 105 103 103 99 104 104 101 106 96 98 87 78 75 80 78 62 44 53 57 69 63 54 45 75 59 48 55 42 46 45 61 84 91 87 66 68 83 77 69 73 78 67 50 51 62 68 59 63 74 47 42 56 63 70 79 60 66 77 78 86 74 85 74 59 61 68 77 97 95 100 101 102 100 102 101 102 101 102 102 103 100 101 105 104 106 106 102 105 99 105 102 104 104 102 103 101 105 102 107 102 97 67 64 66 63 56 51 64 51 41 51 61 73 76 48 82 72 51 52 62 51 47 63 89 92 88 63 51 64 62 53 61 83 78 68 50 74 79 76 54 43 42 31 42 54 57 54 47 49 66 60 63 72 79 65 69 78 71 71 68 83 88 97 98 104 100 101 99 100 102 102 101 102 105 105 101 104 107 99 103 103 103 104 102 105 102 103 101 103 106 93 76 65 57 59 66 63 53 45 66 80 60 55 56 81 82 63 75 85 52 54 89 69 54 62 85 90 67 46 40 51 54 50 54 69 85 83 73 59 74 90 69 52 37 26 30 49 45 54 74 75 72 74 63 58 58 63 58 60 81 88 64 58 71 65 94 104 102 99 105 100 98 106 101 100 104 102 105 103 104 104 105 103 106 103 105 104 102 108 105 102 88 75 54 55 59 68 66 54 58 60 71 72 78 84 84 75 87 63 72 79 59 53 98 90 65 49 58 80 69 59 43 45 62 47 59 62 84 95 81 55 44 74 79 68 55 31 28 44 43 51 80 93 90 81 83 82 72 61 64 60 55 71 74 55 81 76 79 91 104 101 101 102 97 100 100 103 100 104 100 106 103 106 103 105 107 102 104 103 101 107 95 64 53 48 48 52 72 76 55 52 65 63 77 69 66 72 89 84 73 64 63 70 54 51 85 89 63 47 55 65 82 65 52 44 78 51 56 75 76 94 79 66 49 65 68 81 75 56 36 35 49 76 93 79 82 70 88 86 66 55 53 52 49 39 68 75 63 79 81 89 97 103 103 99 102 103 103 101 102 105 104 104 102 104 105 102 104 105 105 103 102 109 80 48 54 46 50 65 74 70 67 67 67 57 61 78 74 70 80 85 79 66 53 63 47 42 75 66 67 58 66 71 78 52 46 52 84 71 55 81 63 99 75 57 51 64 59 61 84 79 56 40 37 71 83 81 79 82 81 71 60 56 49 53 54 46 53 59 81 84 85 84 87 101 103 100 103 102 101 101 102 105 103 103 105 103 103 104 106 104 105 103 105 105 84 69 48 44 51 76 80 72 65 65 76 68 58 78 84 77 86 85 92 76 57 53 47 37 64 56 74 78 91 73 57 44 33 71 96 83 68 78 50 90 77 50 45 50 54 46 65 99 67 52 41 46 57 67 80 100 100 85 69 61 51 49 50 46 58 56 61 71 82 84 84 91 103 104 100 99 101 103 104 101 103 105 102 107 101 104 105 100 104 102 101 97 95 64 33 26 51 80 75 80 68 53 59 72 89 82 93 81 87 86 91 90 66 47 38 31 45 57 76 94 109 70 51 24 35 81 98 98 96 54 29 70 73 43 34 41 47 39 34 83 86 44 51 29 36 58 85 108 102 87 72 60 63 58 56 48 53 59 67 70 70 75 67 92 99 103 101 101 101 99 102 101 105 100 105 103 104 104 104 105 102 104 100 86 91 56 41 43 41 66 72 73 69 48 53 66 97 86 82 80 81 88 95 83 74 44 38 26 39 62 75 91 96 60 40 31 47 78 90 105 94 37 25 35 69 41 29 32 38 37 31 44 90 51 50 47 40 62 90 104 93 90 91 80 73 62 63 58 60 50 55 66 74 86 73 74 94 101 102 101 101 99 98 102 104 105 105 102 101 104 100 104 102 98 85 60 78 75 75 90 54 55 63 67 71 51 51 58 88 92 68 83 71 79 86 71 72 41 41 28 34 56 62 71 65 56 42 41 64 86 81 98 86 41 26 22 47 40 28 28 34 35 33 30 66 71 46 42 39 54 83 92 89 84 85 73 66 55 57 49 52 55 55 53 61 67 84 72 75 100 100 101 101 104 98 101 102 108 104 105 104 102 100 102 95 81 58 66 83 92 96 101 82 52 56 63 61 59 53 57 70 96 57 68 82 54 82 63 54 52 40 28 38 46 49 56 63 63 60 66 77 80 78 81 84 79 76 49 39 37 26 33 32 32 34 35 49 73 54 42 37 43 54 58 62 76 85 87 74 59 60 55 53 47 58 72 70 63 76 87 86 92 103 95 105 100 103 103 102 104 103 104 100 103 99 93 74 70 83 91 94 83 79 87 71 52 43 53 51 57 53 57 48 71 70 53 70 65 65 63 43 47 34 31 34 37 46 46 39 47 43 52 57 66 68 74 82 83 91 90 84 74 40 33 31 35 28 41 49 54 63 49 36 33 44 52 65 83 95 91 74 58 54 54 52 51 50 61 82 72 74 72 81 90 97 103 99 99 102 104 104 102 100 104 99 103 84 71 50 73 87 96 108 92 77 78 63 51 42 32 51 55 62 51 56 55 59 54 43 75 70 59 50 42 40 30 36 40 41 41 35 38 37 41 41 42 61 71 87 79 84 86 74 85 84 70 49 38 38 32 43 48 61 51 43 36 47 59 73 84 87 79 62 57 56 61 51 59 51 46 71 86 75 74 63 78 87 103 98 102 99 105 104 101 104 99 99 94 71 60 53 58 83 101 110 104 82 80 58 51 63 55 58 53 51 52 50 52 54 49 34 62 82 55 54 45 47 39 37 47 48 41 38 37 38 40 41 44 43 52 80 90 81 86 62 54 47 63 74 60 43 44 33 38 55 55 42 44 47 55 63 63 73 77 55 53 59 63 63 67 69 49 64 88 81 65 70 78 75 95 96 102 97 104 103 103 98 97 93 84 69 65 70 65 70 83 81 86 83 69 64 69 84 95 87 83 82 79 65 60 52 61 43 43 74 56 48 44 45 34 42 47 43 39 37 41 40 36 35 36 38 44 55 92 90 91 84 49 39 37 43 68 55 38 36 37 46 41 40 37 39 44 56 67 67 69 71 61 52 51 68 68 61 65 75 88 83 74 78 75 73 88 98 99 102 105 102 100 101 94 85 91 66 62 72 74 75 70 63 60 68 74 87 93 89 95 98 88 82 91 76 66 62 59 57 41 60 56 45 45 44 43 46 48 45 39 40 45 41 37 35 40 31 40 39 75 87 81 88 61 41 38 34 39 59 51 38 42 42 45 38 39 41 46 66 70 80 84 69 53 57 63 62 49 61 64 80 86 81 71 95 70 70 82 91 104 102 102 103 98 102 89 88 86 78 61 63 69 67 72 58 57 61 107 122 100 82 93 89 83 78 79 75 79 63 60 61 53 53 55 43 45 48 46 46 52 50 48 45 51 44 37 43 33 33 45 32 51 79 66 63 84 61 38 30 36 42 44 43 43 37 45 48 50 50 69 82 78 62 72 64 51 67 66 58 57 64 82 74 84 82 80 84 65 71 89 88 103 101 98 101 99 95 92 87 82 79 74 70 68 61 55 58 57 79 116 116 85 67 74 72 56 58 67 70 64 68 67 58 60 58 58 50 51 50 45 55 57 59 61 63 56 52 54 39 32 39 34 41 46 52 65 47 53 80 59 35 34 43 40 42 42 43 41 48 48 57 56 67 68 74 73 58 55 70 74 61 70 80 75 80 79 77 83 74 66 85 86 91 102 101 100 99 96 94 91 83 79 74 68 69 67 63 58 51 55 87 101 81 66 70 61 50 60 53 50 66 61 66 66 64 63 64 62 62 60 56 56 57 60 66 72 74 74 72 61 52 41 36 36 38 46 45 60 52 47 58 70 50 33 39 43 43 43 42 40 49 51 61 75 80 81 84 83 78 81 75 74 81 82 77 73 77 75 74 82 69 74 97 87 89 106 102 96 100 97 89 82 79 79 77 54 59 67 53 45 41 53 78 81 65 77 79 69 69 69 57 62 58 55 66 59 69 69 71 72 74 70 72 67 72 77 76 80 83 94 92 70 51 48 43 41 38 49 49 50 55 50 53 57 59 49 42 43 51 51 47 47 52 56 65 73 77 86 89 95 85 86 82 79 78 87 86 77 71 71 68 82 67 86 97 87 93 103 104 97 95 92 88 79 77 82 64 43 63 62 54 44 38 55 65 74 74 70 74 86 82 64 55 66 71 73 71 78 73 80 84 79 84 82 88 89 90 96 98 108 121 116 105 90 61 55 53 50 51 53 55 44 52 56 54 57 58 56 53 51 60 67 59 61 64 70 66 83 89 95 93 98 82 93 88 83 84 84 85 73 64 70 73 72 79 92 92 85 92 105 99 94 93 88 86 78 80 75 61 44 62 63 50 43 40 49 64 66 75 73 79 72 51 58 63 72 78 83 94 97 100 96 97 97 108 108 110 113 112 117 126 132 137 137 127 102 72 69 61 63 61 56 50 59 56 68 67 69 72 67 73 65 71 74 76 75 72 71 78 87 92 100 93 93 96 90 86 86 81 78 68 69 69 73 77 82 81 89 89 89 93 97 101 90 88 82 82 76 74 76 58 52 69 57 49 43 41 49 64 67 71 71 65 56 60 67 82 80 97 109 116 114 117 116 120 119 124 128 135 133 135 140 151 151 153 149 145 115 94 81 72 65 71 62 57 69 72 79 85 86 83 92 89 81 83 88 85 86 85 75 78 90 91 99 95 87 84 76 82 74 64 60 65 74 90 80 79 82 89 86 93 94 90 96 101 87 83 76 79 77 71 76 66 53 68 59 56 45 39 45 63 66 54 56 60 62 83 84 96 111 128 132 129 132 140 140 138 138 141 145 144 150 153 158 162 158 158 157 145 125 111 97 93 83 80 72 79 82 79 87 95 101 105 107 106 101 95 99 93 93 87 87 76 82 86 84 87 88 80 78 84 82 75 76 79 91 91 78 70 81 88 88 94 96 90 94 97 79 83 76 79 73 72 80 71 54 45 49 44 42 44 48 59 56 54 61 70 90 97 98 121 137 142 141 140 146 152 154 151 149 152 156 158 164 165 164 161 165 166 168 157 143 137 122 113 109 96 93 101 103 106 100 105 116 121 124 125 122 110 105 106 105 99 88 91 78 72 77 83 80 85 88 83 88 76 78 74 76 75 76 67 72 88 93 88 89 90 97 97 78 76 78 77 71 75 80 61 73 51 40 39 43 51 52 58 61 59 74 92 99 103 109 144 148 148 144 147 153 158 158 157 160 161 169 171 172 172 166 163 170 174 174 168 160 158 144 134 134 117 112 116 120 116 120 116 117 130 134 135 132 129 118 113 116 110 105 97 86 78 78 80 82 77 76 74 77 68 68 71 68 65 71 66 66 78 88 84 94 96 102 99 75 75 73 75 70 74 55 54 73 51 44 34 42 54 58 66 66 76 89 104 99 108 132 148 146 149 148 156 154 158 164 164 165 170 173 179 176 174 168 169 174 183 180 179 175 175 157 154 147 142 126 132 128 139 134 125 133 130 138 139 137 140 130 125 124 118 115 109 103 93 83 83 82 80 72 65 71 68 59 60 62 56 62 61 64 61 87 91 97 99 103 98 76 75 74 71 77 52 39 49 60 52 37 42 39 58 60 73 77 93 110 102 100 128 144 149 152 153 151 158 149 155 165 169 169 173 178 182 180 175 172 176 178 184 182 180 181 182 170 164 157 148 149 142 140 138 143 145 145 146 139 136 141 145 140 133 131 124 124 119 112 114 100 90 83 85 85 69 62 74 71 55 46 47 56 49 51 46 84 101 99 101 100 101 74 72 72 73 70 42 35 48 46 47 45 41 41 57 71 83 84 104 100 104 115 136 142 147 150 153 152 159 161 163 167 172 175 176 182 183 178 180 178 179 176 179 185 183 183 186 179 172 170 165 162 162 150 146 151 151 149 150 148 147 148 145 143 145 143 134 128 131 121 120 116 104 103 95 87 72 65 56 75 70 54 44 50 37 43 42 77 105 100 100 101 100 72 72 68 75 62 44 40 43 37 36 52 43 39 54 78 86 93 98 104 113 129 138 142 150 152 153 153 157 166 169 170 171 178 180 185 184 182 183 185 186 181 182 182 182 182 183 179 178 174 172 165 167 165 155 154 153 149 150 154 151 148 152 147 146 147 138 137 134 131 125 121 117 118 113 102 83 75 60 44 66 64 53 42 37 26 54 78 95 102 100 97 97 69 69 70 73 68 43 40 36 35 42 54 41 51 64 79 95 106 107 119 127 133 133 140 148 152 157 159 155 163 169 168 175 177 182 184 184 183 184 185 185 182 183 183 183 184 180 179 180 177 178 174 170 168 161 162 161 142 147 153 152 152 148 146 146 148 142 135 141 136 130 125 126 125 123 119 95 88 76 61 39 54 48 58 57 39 28 81 101 95 101 99 104 69 70 69 72 67 51 38 30 37 45 45 47 68 78 89 108 113 127 137 135 132 139 146 144 150 157 155 155 163 173 170 178 178 181 187 184 184 183 184 182 183 186 185 182 186 185 180 180 181 179 177 176 172 167 168 165 156 156 159 158 151 151 149 150 149 144 134 143 141 132 129 129 129 127 120 113 105 84 71 50 37 45 36 46 55 57 52 86 97 98 100 101 72 69 68 70 69 50 39 29 36 51 37 57 78 98 107 113 119 128 137 137 133 143 145 144 154 152 153 155 163 171 174 175 176 181 182 182 185 181 181 180 185 184 185 186 183 183 181 179 180 176 178 177 175 173 170 167 162 160 160 155 150 148 148 149 153 147 139 141 141 133 135 131 132 125 118 116 109 103 71 56 47 37 39 37 42 77 78 64 84 95 100 101 68 73 63 69 72 57 30 28 37 46 44 63 86 107 115 118 115 128 140 133 134 140 146 144 150 152 147 154 159 168 172 173 172 177 180 180 185 180 182 181 183 182 184 183 183 179 182 182 181 174 177 178 178 171 176 168 171 163 163 166 156 153 153 151 149 147 141 140 144 134 134 135 135 122 116 122 115 107 88 59 43 39 38 28 51 94 98 94 94 91 98 102 69 68 68 69 70 55 36 31 39 43 50 66 93 109 116 115 118 126 135 136 138 136 145 146 147 148 152 155 155 162 167 176 177 175 178 181 178 181 181 179 179 181 181 182 181 183 180 180 177 181 175 180 178 178 172 172 169 167 164 167 161 159 154 151 146 147 148 147 145 140 132 138 138 125 112 122 117 106 100 74 59 40 40 21 46 105 97 93 99 97 93 99 67 71 66 66 76 61 37 34 39 46 50 72 99 111 113 118 114 125 134 139 136 134 142 147 151 150 151 155 159 159 162 164 171 173 172 176 177 176 180 182 180 180 179 177 176 178 177 174 174 177 173 177 179 180 170 172 171 170 163 165 157 157 158 153 153 150 149 150 146 137 133 139 140 121 115 125 115 112 101 89 61 49 44 23 35 98 100 94 94 99 93 100 68 68 67 66 71 66 37 31 44 42 55 78 99 110 115 117 110 122 135 140 138 138 141 148 146 149 147 152 154 157 160 163 168 169 167 171 170 173 174 177 178 180 178 180 176 179 177 173 174 177 176 178 177 177 169 170 167 164 168 165 161 157 156 159 155 150 149 147 146 140 139 141 137 128 117 119 113 111 108 88 65 51 45 33 42 97 96 97 95 97 95 98 68 67 68 65 73 70 39 30 41 48 60 85 96 110 117 119 110 123 129 142 141 134 144 149 148 146 146 152 148 153 158 164 166 165 171 171 168 166 174 174 172 173 173 175 176 180 176 172 177 176 179 176 177 176 173 172 172 164 166 162 161 161 153 158 154 151 150 148 147 144 141 141 140 128 118 118 115 112 107 89 70 52 42 36 83 95 96 95 98 93 99 94 64 69 66 67 70 71 37 35 40 53 66 88 99 111 112 118 115 118 125 138 139 140 143 147 147 145 149 153 149 149 156 162 162 161 169 168 169 166 168 175 172 173 174 174 176 172 168 166 173 174 172 176 171 179 175 170 167 165 169 165 165 163 157 159 154 147 151 150 151 149 146 140 140 127 117 122 114 115 111 91 68 57 39 39 88 92 94 92 95 92 95 95 64 67 67 70 72 66 33 38 47 55 67 89 101 112 115 118 117 118 124 133 140 142 144 148 145 148 149 149 153 144 152 155 164 166 172 171 172 169 170 172 174 171 173 171 176 173 173 171 174 173 172 175 175 173 176 178 165 170 170 167 172 165 164 161 157 154 153 152 148 149 144 144 138 125 118 122 112 115 113 93 75 55 38 39 88 92 89 93 92 96 92 94 66 66 66 71 70 66 34 44 50 59 71 92 104 111 115 115 116 118 120 130 142 138 145 142 148 148 148 154 157 153 158 159 166 166 165 175 173 173 172 173 174 177 176 175 175 170 178 173 174 172 171 173 174 173 176 179 171 173 170 169 171 165 167 161 161 158 156 155 151 145 144 146 141 125 116 125 112 119 114 99 78 54 48 33 92 91 93 89 93 92 91 94 67 66 68 65 69 61 39 36 50 58 73 93 105 107 116 114 125 117 119 126 140 141 140 146 146 155 149 150 159 156 161 163 169 170 166 168 170 179 173 174 171 176 178 173 169 171 176 172 175 171 170 170 174 175 174 175 176 171 173 170 172 165 170 162 160 157 158 151 154 145 145 140 139 126 119 124 113 113 118 104 80 54 39 55 85 93 85 90 91 94 89 94 65 68 65 64 70 66 32 44 48 58 77 93 106 110 113 110 124 122 116 124 134 144 145 143 149 155 154 153 154 157 162 167 169 172 174 172 174 177 175 173 174 176 173 172 173 171 171 168 174 171 166 170 168 171 174 175 175 176 176 171 173 171 172 164 159 163 161 153 153 144 142 142 138 124 120 124 112 114 114 111 87 48 41 56 92 90 87 85 92 88 91 93 67 66 68 63 69 63 41 41 52 60 75 93 106 110 111 115 119 125 118 124 131 141 143 140 151 153 158 159 156 158 160 160 170 169 170 174 177 176 179 173 174 176 177 170 171 175 166 163 172 168 164 174 173 172 168 166 175 178 174 171 170 170 168 163 161 160 162 157 151 145 140 140 138 126 120 122 117 113 112 115 94 62 36 68 87 89 86 85 88 89 92 90 67 64 69 63 70 65 37 45 50 56 75 89 103 109 110 115 116 122 121 119 131 135 142 144 148 155 154 164 155 155 157 155 157 168 172 168 174 176 178 176 171 173 173 173 170 173 167 169 168 171 160 169 173 171 162 163 173 173 171 167 168 164 163 160 160 154 156 158 155 143 137 143 136 122 121 120 117 111 113 116 95 63 42 59 91 81 89 83 83 86 87 88 67 65 66 67 68 69 40 46 51 52 73 94 104 107 113 116 118 117 117 124 126 137 142 144 146 152 155 159 155 157 157 156 155 157 167 168 167 172 171 168 170 169 175 166 162 170 164 163 169 169 167 170 172 166 161 164 167 164 160 163 160 157 156 152 152 153 155 159 150 142 137 143 144 121 117 121 118 110 112 117 94 59 49 55 88 86 84 80 87 86 86 88 66 67 66 66 68 66 53 45 51 51 70 92 104 108 111 114 113 121 116 124 126 135 136 149 146 147 153 156 157 156 155 155 151 146 155 158 158 162 164 165 161 168 167 169 161 167 164 161 174 173 164 170 169 161 161 163 160 154 152 146 145 143 147 148 147 145 147 146 147 139 136 147 144 126 115 119 120 109 112 113 96 51 44 67 93 87 81 82 86 84 87 87 65 66 67 66 65 73 56 43 54 47 63 92 103 110 115 115 112 119 116 126 127 138 135 140 147 144 146 150 159 155 152 149 146 140 147 147 148 152 156 159 156 161 166 158 158 164 156 162 171 166 159 161 168 157 158 160 153 148 137 128 121 121 126 128 130 131 135 128 137 130 129 138 150 123 119 112 118 113 113 114 90 55 38 104 132 117 84 76 82 84 84 86 65 67 64 66 66 70 69 45 51 48 60 91 104 108 115 112 117 116 121 120 132 140 135 139 137 141 136 134 142 145 135 127 132 128 131 134 138 136 147 150 150 155 155 144 145 154 151 153 167 158 156 158 160 155 155 149 143 130 123 114 100 104 109 109 114 118 122 126 128 125 125 133 133 126 118 114 113 118 113 113 85 47 49 125 141 114 84 74 87 79 85 83 64 64 72 69 69 71 65 47 47 47 60 87 104 107 115 118 113 118 116 122 128 132 136 131 130 132 129 124 126 119 116 114 112 107 110 113 117 116 127 139 140 145 146 138 137 142 147 146 159 152 150 151 153 145 142 141 134 119 112 104 94 96 100 94 97 108 113 118 124 128 128 121 122 119 118 110 112 118 115 115 81 41 70 140 127 90 78 84 78 83 80 85 59 72 108 122 103 69 65 49 53 50 54 84 103 113 111 114 119 115 113 117 121 115 121 125 126 124 122 117 111 112 101 97 96 94 87 94 99 103 116 120 127 132 141 135 140 142 148 155 161 154 138 144 143 138 130 130 118 105 101 98 92 94 89 99 97 110 112 118 119 129 124 122 122 116 116 114 111 117 117 116 82 40 101 138 103 87 79 79 84 81 77 84 73 94 103 136 151 131 86 49 46 58 51 88 99 111 117 114 116 116 111 111 112 121 121 114 118 119 117 115 106 104 101 92 93 86 85 85 88 93 99 103 112 120 127 136 144 144 154 161 161 160 144 133 131 125 119 114 102 95 95 94 95 103 106 114 117 125 127 127 134 129 129 127 122 118 113 108 107 116 119 118 75 76 118 107 110 106 63 83 78 83 78 79 96 92 45 75 138 145 132 80 47 49 51 91 104 105 113 117 116 111 114 105 113 117 122 111 110 119 115 116 111 111 110 101 96 90 88 86 82 86 83 91 96 105 113 123 142 148 156 159 171 165 149 132 124 114 104 99 90 93 91 87 84 87 93 103 110 113 115 125 127 128 124 125 123 118 117 107 108 119 121 120 84 88 118 94 118 106 66 81 83 80 82 81 101 97 48 32 80 132 126 119 68 42 50 95 107 109 107 117 109 112 109 105 113 117 116 115 117 113 112 103 95 92 95 95 91 83 79 76 78 85 88 83 82 88 97 112 131 156 157 159 179 171 156 139 117 106 92 98 97 93 85 88 98 97 102 106 106 103 99 100 102 114 117 120 116 111 115 112 110 120 120 117 95 92 128 108 120 103 66 78 85 75 86 81 111 100 54 45 48 70 104 108 98 58 52 104 108 115 114 108 109 109 104 105 101 112 110 107 105 96 84 84 90 106 114 116 111 106 106 107 94 79 79 91 84 81 77 90 130 148 160 174 178 177 167 144 112 101 100 110 98 98 100 103 87 67 52 85 59 64 89 105 112 85 87 116 118 115 113 123 118 118 120 112 101 119 136 108 127 95 68 81 80 81 81 79 109 104 73 47 70 68 63 81 91 87 68 102 108 115 116 105 111 110 107 97 100 101 107 100 73 77 91 102 84 76 49 84 76 48 96 110 107 109 99 89 93 85 79 80 116 143 168 179 182 179 175 153 109 106 118 112 116 97 94 125 83 74 27 90 77 34 83 104 74 104 96 82 119 116 119 126 121 116 122 112 105 122 119 116 124 92 68 80 81 83 81 79 107 112 96 62 83 98 75 53 71 79 83 101 105 113 118 109 111 116 113 104 98 100 108 88 70 93 95 93 62 54 33 53 88 42 108 139 100 91 109 115 102 96 87 78 111 137 164 177 187 181 178 166 114 117 129 135 118 86 104 149 104 68 55 34 59 58 106 130 77 58 99 97 108 122 122 127 124 119 122 108 106 113 118 124 118 81 76 80 82 79 83 81 89 119 111 91 77 112 104 71 52 62 83 103 107 110 119 114 116 119 117 106 103 103 106 93 84 80 63 111 88 61 69 42 64 69 129 162 130 97 82 109 127 117 93 92 103 135 156 174 191 186 177 177 137 117 142 146 115 110 110 145 138 86 70 71 69 85 121 124 102 87 79 102 116 121 134 134 128 119 118 110 108 109 122 131 104 74 80 78 83 82 79 82 56 120 123 118 80 102 116 92 71 46 68 100 102 110 117 117 121 129 130 116 108 103 105 96 74 79 71 103 119 85 73 84 80 112 153 157 126 95 120 107 121 125 108 113 114 130 159 178 189 189 178 178 164 123 134 142 141 130 116 124 136 137 122 107 113 130 119 119 121 112 104 109 113 123 136 144 132 122 113 106 119 121 126 136 92 75 78 82 80 80 81 81 44 84 135 130 98 90 110 97 73 41 35 97 103 105 110 113 125 140 144 131 124 116 108 106 89 109 115 106 116 124 120 114 127 145 143 141 128 122 134 137 130 119 116 124 120 125 157 179 184 183 178 176 172 130 125 135 142 141 127 125 129 129 141 132 123 129 124 119 117 111 126 130 124 130 141 145 137 122 112 99 128 127 141 130 90 70 83 80 81 79 84 79 53 48 117 134 117 85 99 95 70 41 27 92 100 105 101 119 127 144 152 144 144 137 133 141 130 95 115 122 127 137 143 142 145 140 132 133 130 139 144 144 130 123 130 133 122 128 147 175 190 177 178 181 174 132 119 139 145 141 137 137 131 125 124 117 115 115 115 118 123 131 139 139 141 139 143 141 140 119 107 98 126 125 139 140 74 76 81 81 82 79 83 78 68 44 77 129 118 87 102 93 69 43 45 88 100 100 103 115 127 143 155 153 156 155 158 155 157 136 118 115 116 121 118 123 131 133 138 144 149 146 150 148 139 146 144 136 129 124 144 162 192 186 182 182 172 130 117 132 148 149 142 139 145 144 144 143 137 140 131 133 134 145 143 141 145 153 149 144 140 122 104 102 115 120 143 115 75 78 80 86 77 81 82 79 67 63 50 100 124 91 107 97 75 54 85 101 89 100 101 109 124 142 150 156 164 161 158 152 156 151 151 141 146 147 150 154 157 158 154 157 154 154 158 156 154 155 144 135 134 128 135 156 183 188 181 184 169 131 119 131 139 158 158 148 149 151 149 145 147 145 143 142 145 146 148 144 153 152 152 148 139 117 99 106 115 125 139 112 71 78 83 81 81 81 80 81 65 67 51 69 124 99 111 104 83 79 100 113 78 98 98 106 120 140 147 159 162 161 161 163 160 151 153 161 160 160 161 164 161 158 160 162 160 171 167 165 153 150 142 133 133 129 138 154 177 186 181 181 163 131 117 131 135 145 170 170 154 152 148 148 154 152 148 152 153 155 150 150 155 151 150 145 136 115 93 113 134 118 124 101 70 83 81 81 80 82 80 81 66 63 61 47 103 105 108 114 96 91 108 115 75 92 100 101 119 135 143 153 162 164 162 170 171 164 160 168 164 164 165 167 161 159 164 169 174 179 173 163 147 144 144 132 131 130 139 149 168 176 179 178 166 134 122 131 132 144 165 176 172 169 160 154 150 152 147 151 155 154 159 154 162 150 149 140 135 116 84 128 145 122 125 96 66 84 78 83 77 85 77 81 62 63 65 54 63 116 97 127 111 99 113 123 73 88 95 99 113 127 136 144 153 167 161 165 171 162 161 161 171 169 174 172 177 172 180 180 179 175 162 160 146 139 137 134 130 135 142 146 167 172 179 175 170 148 126 126 129 143 157 167 169 173 169 166 160 161 153 159 159 157 156 163 159 149 146 141 132 114 85 138 146 132 123 89 71 79 79 81 84 79 83 83 65 63 65 65 48 101 102 100 125 115 111 127 84 78 96 92 105 124 127 140 145 160 161 160 162 159 164 158 160 169 177 177 183 176 178 178 177 170 166 157 147 136 133 133 135 137 147 156 167 173 179 178 173 158 138 125 129 142 158 168 168 169 164 164 165 162 161 155 158 155 154 158 153 146 142 136 130 106 96 145 142 135 120 77 77 80 82 80 81 79 79 84 64 63 61 67 55 57 132 91 84 116 128 129 84 82 89 87 104 113 128 129 135 146 158 161 151 163 164 163 160 168 169 171 177 176 177 174 175 165 163 157 145 135 132 130 132 149 152 163 174 173 178 179 177 167 152 134 120 139 154 168 165 173 164 167 163 162 165 159 158 148 157 155 149 145 138 134 129 93 106 146 139 134 116 86 72 81 82 77 79 83 79 82 68 62 65 67 60 52 101 132 101 107 131 143 111 75 85 89 94 111 116 125 125 142 142 152 154 157 157 160 158 164 166 163 169 176 173 173 174 165 169 154 149 141 128 120 139 150 161 165 179 181 181 182 180 175 156 140 127 129 151 162 162 167 170 169 166 164 162 161 157 151 153 150 144 142 136 130 124 91 114 141 134 134 111 75 77 82 84 78 82 81 81 81 67 62 67 68 64 44 75 131 127 124 129 137 135 77 83 83 90 102 113 121 127 133 134 144 150 149 151 157 158 159 166 161 169 168 175 171 175 164 165 155 138 135 128 122 136 151 160 172 186 185 180 182 184 174 155 140 131 127 145 159 170 163 168 166 164 169 161 161 157 151 150 151 141 139 130 125 121 90 122 137 132 128 94 79 76 80 80 81 79 78 84 80 69 63 65 66 63 62 47 120 124 124 128 126 128 88 84 84 83 94 109 113 124 126 129 138 144 145 148 154 157 162 163 163 165 165 170 169 168 165 159 145 130 138 133 120 134 147 154 170 185 184 182 181 187 176 156 139 130 121 143 161 164 164 171 165 162 167 164 157 155 152 150 147 144 137 130 124 116 91 118 133 124 106 80 76 82 78 82 78 81 84 79 80 64 62 69 59 61 69 48 91 124 125 128 119 126 100 83 89 85 88 103 114 121 125 130 135 142 144 152 154 162 158 164 165 161 160 159 168 165 162 150 129 128 141 139 127 131 143 145 161 175 183 183 187 187 184 150 141 124 125 140 155 156 167 166 164 159 161 162 157 152 153 148 139 145 133 130 118 109 102 107 115 99 86 76 81 78 80 83 80 79 81 80 77 63 66 64 64 66 64 56 73 114 122 119 114 119 98 89 91 86 83 96 109 119 121 126 133 137 147 150 150 156 157 156 162 160 161 160 163 161 155 138 123 133 145 139 133 126 130 138 147 165 176 179 178 180 165 147 131 120 130 133 145 157 160 160 161 158 158 157 155 149 153 147 137 139 129 129 116 108 104 77 81 79 80 78 81 80 80 81 82 78 82 77 80 64 64 66 63 64 65 58 59 86 108 110 107 103 99 85 96 85 82 89 109 114 117 127 128 138 140 148 147 152 153 153 159 159 155 158 156 151 150 128 117 131 139 140 128 112 106 112 126 140 156 164 161 162 147 129 113 119 131 132 141 156 157 157 157 158 158 154 151 151 149 146 135 132 127 128 112 108 107 69 81 77 78 81 80 78 81 80 78 81 78 80 81 65 65 66 63 64 64 61 61 62 75 90 97 87 77 87 102 88 85 85 103 110 116 123 126 134 136 138 150 149 147 148 158 148 153 153 146 144 143 120 108 120 127 123 113 101 90 91 99 112 134 143 148 142 126 111 102 114 121 125 139 154 158 157 158 159 155 153 146 150 146 141 135 132 127 122 107 120 94 75 78 79 81 80 81 77 80 79 79 80 79 78 79 64 66 61 65 61 68 62 61 65 61 68 74 76 59 82 97 95 94 81 98 102 113 116 126 127 132 135 143 145 151 150 153 154 148 145 144 144 142 116 102 100 104 82 54 40 38 53 80 97 109 121 124 128 103 65 46 74 96 119 142 148 151 157 155 152 155 149 147 145 145 138 134 128 124 121 105 116 97 70 78 80 80 80 81 74 81 81 79 80 79 82 79 64 65 63 63 62 61 64 62 62 64 62 61 62 55 71 100 97 98 88 93 102 107 110 125 127 129 130 138 142 147 148 150 153 151 143 142 147 147 130 112 88 90 76 61 58 61 47 55 89 93 111 111 109 89 71 78 72 95 129 139 154 150 154 150 149 152 151 144 142 140 135 131 125 122 112 107 122 89 71 77 78 83 77 79 79 76 84 81 79 83 75 84 65 64 61 65 63 61 62 64 62 62 59 65 62 57 62 94 99 98 92 94 99 104 109 117 122 135 128 132 135 143 148 145 150 152 148 143 151 149 137 125 105 77 81 87 89 96 74 59 79 89 93 92 106 116 106 95 94 119 134 137 148 151 150 148 150 148 147 141 141 136 133 131 125 116 113 108 118 91 71 78 82 80 82 78 80 76 80 80 80 79 76 83 62 63 62 63 66 64 65 62 65 64 62 62 60 63 49 89 98 98 93 90 96 103 106 116 119 125 124 129 138 142 141 146 147 145 145 150 148 146 144 150 142 121 110 101 107 114 101 83 72 79 87 103 119 122 118 128 132 132 135 139 137 151 152 148 144 150 141 140 135 132 132 124 122 115 109 109 123 78 70 82 79 80 79 81 79 78 79 79 80 80 78 77 66 62 64 59 67 59 65 57 64 63 62 60 62 64 47 80 98 98 100 91 93 102 104 116 118 119 121 127 134 140 141 148 143 145 144 150 150 145 148 150 146 142 133 127 127 125 121 109 96 92 106 117 124 130 128 140 135 136 137 137 140 142 149 151 146 147 143 140 132 129 129 126 118 115 107 116 122 70 76 79 81 76 80 81 80 75 77 79 81 77 80 80 66 63 63 63 63 61 63 63 64 60 66 60 63 62 55 67 95 101 102 96 94 103 106 108 118 118 123 124 129 137 140 141 141 146 144 148 147 147 144 144 144 145 141 138 140 134 129 126 111 113 116 124 129 135 133 134 135 137 133 139 139 136 139 150 148 140 141 135 134 125 126 126 115 114 105 121 112 70 78 79 82 76 84 78 79 75 81 79 77 81 79 79 60 64 62 64 62 61 65 62 62 63 65 65 65 60 63 52 90 98 105 98 95 97 108 106 118 114 119 123 130 133 137 141 146 146 150 145 145 144 144 137 135 140 144 137 134 144 142 136 126 125 133 129 130 131 137 128 131 128 131 133 133 131 138 141 142 137 131 136 134 125 128 120 117 111 111 121 99 68 79 81 79 79 78 76 76 78 80 78 82 81 78 79 62 61 64 61 62 65 63 65 59 62 64 62 61 61 66 53 68 96 108 102 96 98 107 108 111 115 113 122 123 134 135 143 147 150 152 151 143 138 132 131 128 133 134 137 137 151 144 144 133 136 130 132 131 134 137 127 132 124 129 131 131 129 133 136 131 132 127 134 132 122 124 116 115 112 116 117 82 74 80 76 79 78 79 78 79 80 81 77 81 77 79 76 61 64 60 63 62 65 62 65 62 62 61 61 61 61 62 57 62 88 100 109 96 96 106 111 115 114 111 114 125 133 136 144 142 142 145 144 147 136 131 126 129 134 136 139 148 165 161 161 143 149 149 145 143 139 137 133 131 127 129 129 126 125 129 125 126 131 123 128 132 119 121 118 113 116 117 111 74 74 81 79 76 82 80 75 80 78 80 78 80 73 81 78 64 62 63 63 61 63 62 63 64 61 63 60 63 60 66 59 52 81 89 108 104 94 101 111 113 114 115 109 122 128 131 136 141 130 137 132 129 125 124 127 127 140 148 157 165 176 175 179 169 163 169 159 153 140 140 146 131 127 127 126 120 120 123 121 123 129 122 127 132 115 121 118 115 119 123 98 66 80 78 79 78 82 80 76 81 77 79 76 82 77 82 77 66 59 64 62 61 62 60 61 63 60 66 57 65 63 60 66 50 75 85 97 108 102 102 111 111 110 109 113 118 128 126 133 129 124 122 116 116 114 120 125 130 133 135 129 125 127 131 139 139 148 140 137 122 117 129 132 140 128 129 130 118 110 114 122 121 125 120 132 127 116 124 116 116 118 118 79 72 80 79 76 76 79 79 78 78 79 78 79 81 79 79 79 63 63 61 64 60 62 65 60 63 59 65 60 62 63 60 62 50 79 88 86 104 104 102 109 108 111 111 107 117 127 126 131 130 129 115 104 97 103 106 112 108 102 84 80 72 79 67 69 80 86 74 73 72 69 84 89 107 106 117 111 93 86 99 115 116 125 119 133 123 118 121 116 114 121 105 67 76 76 78 79 78 78 77 79 79 75 81 75 80 79 79 78 59 63 62 61 66 63 62 61 65 62 62 62 64 59 61 64 45 80 100 79 96 100 101 108 107 109 108 106 117 126 123 128 130 125 113 89 68 71 71 77 63 41 31 28 39 63 58 41 72 70 57 43 28 21 23 19 57 64 76 83 92 118 120 118 122 127 128 131 118 119 120 115 118 112 88 70 77 78 80 79 79 75 79 80 75 79 81 76 79 80 78 73 64 61 63 62 61 62 61 63 60 62 58 60 61 62 59 65 51 68 119 78 86 100 99 101 110 106 109 100 111 126 120 128 125 123 120 111 102 84 55 66 69 37 23 21 22 30 25 24 36 35 24 27 22 23 29 55 90 98 97 108 120 132 135 128 131 131 129 127 115 120 118 116 115 106 69 75 77 77 78 77 79 78 76 78 75 77 75 76 80 73 84 75 65 64 61 63 64 63 59 63 62 60 61 60 57 63 60 63 47 64 112 101 79 93 100 98 105 109 103 102 105 122 132 133 138 138 141 145 139 139 122 112 113 107 85 70 68 64 53 61 50 50 55 57 73 80 91 101 114 110 110 117 127 138 135 139 136 133 130 121 118 119 118 119 125 76 70 79 76 79 79 80 78 75 79 78 80 79 77 76 78 79 75 82 64 65 64 62 61 65 58 64 62 60 59 63 57 62 60 62 49 62 107 114 89 82 96 102 100 107 107 96 100 116 131 135 144 150 158 160 151 137 129 125 116 116 125 119 112 115 116 116 106 111 115 121 127 128 126 118 113 107 115 124 131 137 138 138 137 129 127 118 121 116 118 113 118 78 72 77 78 77 75 78 76 76 78 76 77 79 76 77 77 78 75 80 63 68 64 62 61 63 60 59 62 61 61 58 60 63 59 66 50 59 106 115 106 78 90 101 105 101 108 94 89 105 126 126 140 155 159 154 153 144 122 115 121 110 112 108 120 130 136 139 130 136 142 138 136 131 121 111 111 111 122 124 133 136 137 136 137 122 121 119 120 118 117 109 121 100 85 73 78 77 78 76 78 74 79 77 79 77 77 74 78 75 78 73 68 67 64 64 60 61 60 59 59 60 61 60 61 60 63 64 53 41 109 112 115 82 77 98 102 106 108 102 89 95 116 128 136 147 149 154 150 143 137 117 100 114 114 110 111 120 121 134 138 137 130 133 124 114 108 105 116 117 128 130 134 135 135 132 129 122 119 119 118 114 106 124 104 99 147 105 83 74 79 77 78 74 77 78 80 76 77 74 77 78 76 75 68 64 64 64 59 65 61 62 60 58 62 58 61 61 63 64 38 22 107 114 112 100 74 92 93 104 110 111 93 89 109 120 127 140 142 145 140 143 140 130 106 97 98 108 104 110 109 113 119 118 114 115 110 111 104 109 116 122 127 135 134 134 132 131 121 118 120 118 114 110 106 141 110 45 152 151 134 104 88 81 76 77 78 81 76 80 78 74 77 76 78 77 70 65 68 66 59 64 61 58 62 58 63 60 60 63 63 53 11 17 102 113 115 106 83 75 89 98 100 112 103 88 96 113 120 130 136 138 136 137 141 135 127 111 98 93 99 97 98 92 99 96 97 101 99 107 112 120 123 127 129 136 138 132 136 127 117 118 119 117 111 106 120 143 129 20 130 149 136 135 141 120 84 76 78 77 79 75 78 77 76 78 77 77 68 67 66 64 64 59 60 59 61 58 58 60 58 66 56 25 15 14 95 111 110 113 99 72 80 91 96 98 108 91 97 108 112 124 132 136 132 136 137 135 132 128 119 111 106 105 108 100 101 102 105 107 111 118 122 124 125 130 129 132 137 134 130 125 120 115 118 115 99 121 127 145 114 3 80 152 146 142 139 155 144 118 78 75 75 76 78 78 75 79 76 76 69 69 63 66 66 59 62 59 60 57 63 59 61 64 41 17 13 9 93 108 111 106 104 83 70 82 93 90 106 96 89 110 112 118 130 131 133 133 136 132 130 128 124 121 113 113 114 108 108 107 109 116 111 114 120 124 128 132 134 133 135 134 131 122 121 114 115 106 103 132 129 147 95 3 52 154 155 151 147 148 138 148 147 87 85 86 90 78 79 85 76 77 68 68 68 62 64 62 59 60 60 62 63 57 65 61 27 15 17 6 87 108 107 109 103 99 71 72 83 90 99 98 89 102 113 113 126 129 132 137 142 136 131 131 125 118 117 112 114 109 110 110 118 121 116 114 124 127 127 134 135 132 135 133 125 121 116 112 105 105 121 133 127 143 64 1 24 133 144 150 143 148 151 144 149 139 125 139 129 105 107 105 86 77 68 66 66 65 62 65 56 63 58 59 60 57 85 57 24 19 17 4 84 113 103 108 105 97 95 68 67 87 91 95 85 94 108 117 122 128 134 141 143 142 143 137 132 133 130 133 133 125 126 125 127 127 134 133 139 135 132 132 135 133 133 132 126 120 112 104 99 120 129 133 126 131 31 9 6 119 147 154 153 144 146 158 152 144 123 140 146 131 140 131 127 138 70 70 68 62 63 63 62 61 58 57 60 67 146 75 11 17 17 9 84 110 106 104 108 101 97 84 65 72 86 89 82 92 104 111 115 124 133 138 146 143 147 160 155 155 161 158 152 144 144 139 137 134 142 141 144 139 140 137 129 132 130 125 124 116 103 92 110 122 129 128 131 108 12 26 12 109 147 154 162 156 145 146 156 159 137 135 133 129 149 133 141 143 65 73 67 61 66 59 61 60 60 54 61 131 162 70 12 20 19 7 85 107 109 103 105 107 97 91 75 65 68 86 82 90 92 105 114 119 128 134 137 144 145 160 161 158 160 159 159 154 144 144 142 139 142 147 145 140 138 132 127 134 124 121 119 102 92 105 122 122 126 124 133 79 7 30 11 99 149 155 151 155 155 153 150 149 148 137 139 130 148 137 144 142 69 68 67 66 63 62 61 60 55 54 117 168 165 57 20 21 13 6 77 111 106 108 108 105 104 93 83 72 58 63 86 85 87 91 111 108 122 133 139 136 138 144 152 150 153 152 146 144 145 143 138 141 150 146 141 131 134 132 125 131 128 118 106 86 101 123 125 113 121 123 136 38 15 26 9 91 142 159 157 150 149 162 157 147 142 155 151 129 140 150 138 143 70 66 68 67 64 58 60 55 77 118 164 173 156 51 24 27 17 6 77 111 112 105 111 105 107 101 90 78 69 55 62 85 87 83 93 104 112 121 130 131 126 131 133 132 142 140 131 134 137 136 133 133 135 135 132 128 128 127 123 126 120 107 91 96 122 128 126 117 125 125 114 21 23 24 14 104 152 164 155 154 148 152 160 155 145 141 169 146 125 155 140 151 70 68 65 66 63 61 47 90 134 151 165 183 140 47 25 34 10 8 75 107 107 112 109 109 105 102 102 82 74 65 54 62 78 84 84 93 102 110 120 125 125 125 126 128 127 130 127 121 125 126 128 124 126 126 122 123 125 120 125 117 106 87 99 116 125 127 127 123 125 126 80 10 26 30 5 119 156 161 160 163 150 153 154 149 151 139 151 154 126 143 153 149 68 70 65 64 68 54 73 146 148 141 175 197 148 39 20 43 13 16 80 101 103 115 116 115 108 104 101 91 82 72 58 58 54 74 84 85 88 95 108 116 113 117 112 120 114 114 118 116 119 118 116 119 118 119 123 122 115 118 120 104 82 95 113 121 127 127 125 124 124 112 42 16 32 30 3 122 159 167 158 156 153 154 155 150 143 152 154 156 129 131 164 144 70 65 72 70 103 96 127 157 146 151 180 194 147 36 29 37 18 19 72 96 104 112 118 118 119 108 101 94 87 81 72 55 61 50 53 79 88 86 94 100 106 106 104 109 107 109 109 112 117 108 112 113 110 114 115 118 109 110 94 77 88 113 121 122 126 132 126 124 122 82 19 27 32 17 46 140 160 161 156 151 146 162 155 151 137 147 161 155 137 124 165 135 90 115 141 147 180 154 148 157 144 159 161 193 164 33 24 37 30 23 63 88 97 108 113 119 121 118 111 102 94 83 80 66 61 56 53 54 58 79 85 92 96 100 96 100 106 104 105 107 110 105 104 108 107 105 105 105 94 78 75 90 105 121 122 123 129 130 129 120 119 46 17 35 29 22 112 155 163 164 157 152 154 152 162 148 139 155 163 153 147 114 161 150 145 165 176 176 170 149 158 155 140 151 168 187 202 92 16 35 38 20 56 90 94 105 109 119 124 120 118 114 102 90 83 71 63 59 53 56 52 54 66 67 80 86 90 93 93 92 97 97 98 100 93 91 92 83 82 77 72 76 92 105 113 120 126 129 130 131 130 120 79 18 22 40 19 33 134 162 161 157 158 151 156 157 151 149 146 159 147 162 157 124 151 160 156 170 176 180 172 151 152 153 148 142 168 186 193 139 21 30 39 22 42 88 92 102 110 114 124 126 118 113 114 100 88 78 68 64 56 52 56 58 53 59 54 61 65 65 66 67 68 68 66 71 68 59 64 64 65 64 82 90 104 112 116 123 130 134 129 129 121 89 21 25 32 31 7 84 160 160 169 149 147 160 149 160 150 147 138 159 147 157 164 127 146 169 157 175 177 190 186 142 149 167 147 148 164 178 194 165 53 19 38 30 22 82 89 100 106 107 124 122 125 117 116 111 102 86 82 67 58 59 53 56 64 59 59 60 59 58 58 57 52 55 55 60 60 60 68 65 72 76 94 106 109 114 122 130 129 130 129 126 98 19 28 28 40 9 58 143 162 168 163 157 149 150 163 154 150 144 146 154 156 165 162 134 152 167 156 177 184 177 179 146 149 164 149 144 153 173 181 193 156 29 31 32 20 46 90 93 99 109 115 121 129 127 119 116 110 99 91 79 67 57 58 53 58 60 60 62 60 60 57 63 59 59 61 64 67 65 69 72 80 93 103 110 113 121 127 124 129 130 128 100 33 20 31 33 37 3 65 155 159 166 162 156 155 155 156 154 148 147 152 140 167 170 157 137 154 173 149 181 187 175 179 153 149 157 152 149 147 171 189 193 212 113 24 28 32 27 41 92 98 107 113 123 125 136 126 122 117 111 106 90 77 69 59 56 59 59 60 68 60 61 63 64 63 67 66 68 75 74 72 83 94 106 106 113 123 124 124 126 133 132 106 34 23 30 32 31 24 29 106 162 168 142 165 154 156 166 151 150 146 150 155 151 174 166 160 139 152 178 