P2
92
112
255
59 60 59 63 56 59 57 58 62 58 62 61 62 63 57 58 54 46 36 39 50 37 46 41 44 46 51 37 44 47 39 47 48 38 53 38 42 38 32 36 37 36 43 40 30 36 38 35 45 39 40 33 40 37 45 38 43 38 45 41 37 47 45 43 41 45 38 42 42 39 45 56 48 53 53 49 45 44 59 66 65 66 59 65 63 64 64 64 63 65 65 64 58 60 61 58 57 56 60 59 61 56 62 60 56 54 53 53 45 38 40 32 38 41 37 53 43 42 44 43 49 44 48 41 40 38 48 37 39 34 33 37 39 37 37 34 43 35 34 36 50 33 41 35 36 42 43 41 35 41 39 37 38 39 35 48 48 41 40 41 44 47 48 45 58 49 52 53 54 44 44 57 66 65 62 67 64 62 63 63 65 63 61 60 59 57 61 58 59 60 61 60 57 62 63 61 58 54 45 40 40 35 38 39 35 40 43 41 43 39 44 49 55 51 38 37 42 39 47 36 30 38 31 40 39 36 39 36 35 36 32 41 45 37 35 40 40 34 38 35 36 38 33 36 35 38 44 52 48 46 46 45 49 51 56 48 49 49 44 48 54 48 47 44 50 61 64 64 62 67 61 63 67 58 65 60 62 58 63 60 61 60 60 60 58 63 63 54 55 51 43 36 32 36 42 42 39 44 42 40 36 35 37 50 50 69 48 34 36 39 47 43 28 43 31 39 45 44 38 35 35 38 28 47 35 43 35 35 43 35 41 30 36 34 32 31 36 47 44 40 45 44 42 46 52 47 44 50 50 51 46 41 44 50 47 47 43 48 57 62 66 63 67 57 62 62 62 63 63 54 62 61 58 59 63 61 62 60 61 51 39 35 33 32 38 40 39 44 40 38 37 33 44 37 49 48 38 61 40 36 31 45 35 46 36 36 32 39 45 37 37 39 34 38 35 44 36 42 36 36 46 33 39 32 33 30 28 32 37 39 35 34 33 43 51 51 57 53 48 56 58 55 48 46 41 45 50 53 50 43 43 54 66 64 69 59 63 60 64 64 63 62 60 62 62 60 62 60 58 63 62 53 46 38 34 35 39 40 36 43 44 42 32 34 38 49 42 55 47 27 48 31 37 40 36 42 41 31 34 30 43 33 39 39 28 37 48 48 33 44 45 38 41 34 32 35 32 29 27 38 35 34 29 34 38 45 47 48 52 51 44 48 55 56 49 44 48 48 51 45 49 38 43 40 54 65 68 63 62 67 61 66 63 58 64 65 61 66 62 62 55 62 50 50 39 32 41 47 36 41 32 33 42 45 38 40 38 35 44 33 36 32 29 41 31 44 44 46 47 27 36 41 45 34 43 35 37 33 44 44 44 45 44 44 43 34 34 39 29 31 33 40 32 30 30 37 42 43 49 51 50 54 50 53 49 43 46 40 52 41 45 47 42 48 45 42 41 59 62 65 62 63 64 69 58 63 60 61 66 60 64 62 59 52 46 39 42 40 43 43 48 43 40 27 32 40 36 31 33 37 27 37 35 32 28 42 40 36 41 45 44 27 40 37 51 37 36 43 41 35 42 45 41 47 46 45 50 35 36 37 35 29 34 36 32 33 39 39 40 38 44 48 42 44 41 36 36 39 38 41 47 44 49 49 41 46 45 45 45 38 57 64 65 67 65 62 62 58 64 62 66 63 64 62 53 45 32 37 36 39 43 45 43 40 47 45 34 32 37 33 36 33 35 30 46 40 46 52 42 38 47 35 49 35 40 41 45 39 36 51 49 40 51 39 63 47 47 42 48 41 48 38 41 41 36 42 35 40 41 41 39 35 35 40 37 39 38 35 35 34 37 45 46 35 52 46 43 42 44 41 44 35 41 56 64 65 65 63 65 57 64 67 60 67 63 61 54 44 35 38 42 37 39 37 35 33 33 33 40 30 35 29 35 37 39 48 53 55 54 51 57 48 51 47 56 39 47 43 46 48 38 55 53 55 50 45 69 46 57 51 59 51 58 47 53 46 40 42 38 44 34 39 43 37 41 40 32 41 36 40 36 37 33 34 35 37 41 45 42 44 57 51 39 46 40 45 64 63 65 64 63 57 65 61 61 66 59 55 51 40 38 35 41 41 38 35 29 35 30 26 31 42 38 38 41 48 51 71 74 72 74 64 66 65 59 57 59 54 53 51 54 48 55 58 63 64 54 67 72 54 74 61 70 55 69 61 65 57 50 53 56 45 47 43 48 45 49 42 47 49 37 33 30 31 29 32 28 39 40 37 43 36 43 42 41 38 40 37 57 60 61 64 65 61 65 65 66 63 59 49 42 40 33 39 48 40 44 37 27 37 33 26 30 29 34 38 57 72 76 81 91 92 90 86 93 89 85 72 64 64 61 59 71 63 63 84 67 82 70 91 75 71 89 70 79 76 86 97 73 82 65 76 69 56 63 76 61 72 66 52 59 61 48 38 34 35 29 28 25 36 37 36 35 40 40 40 51 42 39 41 37 58 58 62 64 66 62 63 66 61 56 46 37 33 36 42 42 38 34 27 27 28 24 30 34 35 42 60 79 90 98 97 102 104 103 102 109 104 105 101 83 86 70 79 88 90 89 90 91 90 97 97 78 97 87 87 82 92 102 111 85 103 88 87 74 67 90 83 77 90 79 71 76 72 72 57 42 32 35 27 28 39 33 47 35 40 38 39 43 47 51 44 40 44 65 62 61 61 60 67 59 65 52 40 43 39 35 40 34 32 30 37 32 29 28 28 29 34 68 93 99 106 109 109 105 112 114 119 105 110 103 110 112 102 99 101 83 111 109 107 113 99 107 91 94 113 92 98 99 88 126 122 108 101 108 91 98 89 104 103 99 96 95 101 103 102 97 89 74 60 34 33 30 29 37 40 41 37 44 38 44 43 51 42 37 31 63 62 63 63 63 69 67 66 49 40 39 35 30 40 32 43 36 32 26 29 32 27 40 70 93 98 106 108 115 110 112 121 123 119 121 118 113 116 126 127 114 122 109 106 124 112 125 111 105 117 105 130 105 115 115 112 115 124 129 107 116 107 115 112 122 112 108 102 106 105 106 108 116 107 100 90 63 43 33 32 30 33 39 43 40 42 41 53 46 50 38 34 41 65 64 68 66 66 65 63 40 41 34 38 39 35 29 42 28 33 27 31 29 37 73 92 102 106 111 118 117 118 121 125 124 126 127 132 130 129 134 135 136 132 122 129 134 126 137 123 124 127 118 125 124 128 136 140 137 121 128 134 118 132 126 132 119 119 122 123 112 105 106 106 114 117 105 113 92 70 37 35 29 34 38 39 42 47 46 46 46 50 42 40 37 57 64 64 69 64 63 54 37 48 29 40 32 39 29 38 42 30 36 29 39 75 94 100 107 111 120 120 120 121 126 127 126 128 132 130 129 136 139 137 141 137 133 138 138 137 146 136 139 144 134 134 133 142 144 146 152 130 129 144 149 151 150 152 154 151 146 140 130 127 124 114 115 116 112 112 115 93 60 39 29 29 35 32 47 59 57 46 56 54 41 39 44 45 66 63 64 64 68 46 47 44 31 46 34 37 36 40 37 38 33 40 69 100 104 106 113 119 124 121 125 127 127 133 127 129 134 135 135 139 138 138 140 140 137 144 139 150 147 148 148 149 143 144 144 150 143 148 154 147 148 151 168 174 181 176 164 174 177 155 152 141 139 130 123 122 117 121 115 118 96 57 31 32 30 31 40 52 58 51 55 52 48 29 34 36 66 63 64 64 68 36 50 44 37 40 31 36 39 42 39 37 36 72 98 109 108 117 120 122 126 120 126 128 127 132 132 131 136 141 138 136 133 140 145 145 148 143 146 154 148 150 157 157 152 150 154 154 155 155 156 165 147 164 177 191 187 197 178 176 172 171 157 160 150 141 137 134 132 124 119 122 117 87 42 29 35 29 37 33 39 50 45 56 47 38 35 35 59 67 65 64 65 29 42 45 36 27 43 40 44 44 31 35 56 99 111 111 113 120 122 125 127 127 130 130 131 132 133 135 135 141 135 134 138 145 149 145 149 150 152 159 159 168 164 164 156 163 156 163 163 163 159 173 156 176 175 201 200 219 195 191 196 182 175 166 156 146 143 135 144 138 122 124 120 123 75 31 35 30 43 47 44 47 52 52 47 45 28 34 62 62 70 65 54 32 28 47 42 33 35 41 40 40 34 48 91 113 112 115 117 121 122 129 128 127 131 130 133 130 135 136 133 137 135 137 143 145 153 152 155 156 151 163 170 172 169 163 164 166 174 166 171 172 166 168 173 192 178 205 193 203 200 196 197 190 170 173 152 147 144 141 144 139 141 130 123 129 109 60 33 32 32 41 43 46 41 49 48 43 46 21 64 66 64 69 43 29 26 44 42 43 33 39 41 33 37 72 106 112 115 121 120 126 127 127 131 128 131 128 132 133 131 137 133 137 142 146 152 149 153 157 151 161 161 164 169 178 166 175 183 181 179 178 176 169 168 174 174 189 191 193 198 184 195 194 190 190 173 167 151 148 144 144 146 138 148 139 129 132 133 91 44 38 35 45 56 59 42 41 40 40 44 28 63 64 63 65 57 26 28 35 44 47 37 37 37 42 47 91 113 116 118 126 123 123 131 132 132 129 130 132 133 135 134 135 137 140 147 147 153 157 154 161 152 169 165 170 158 184 178 188 190 190 178 182 176 171 171 175 173 179 180 192 190 182 194 184 184 176 171 163 156 150 148 145 146 144 145 150 137 129 137 125 72 42 38 36 49 69 53 36 36 44 34 34 63 64 64 69 52 28 29 27 42 40 35 38 41 41 67 105 117 122 125 125 123 129 134 136 134 131 137 134 138 136 139 137 140 145 143 146 155 160 155 164 158 169 169 164 164 177 175 186 192 189 192 190 180 175 175 172 175 175 176 177 183 180 189 179 174 167 157 159 157 152 151 151 145 147 147 146 144 134 129 138 102 55 45 42 34 60 49 45 45 43 30 43 66 65 65 66 42 27 31 39 45 34 37 39 43 55 88 112 120 128 128 125 131 131 132 135 132 134 138 138 142 135 143 140 138 149 144 145 156 161 158 165 171 164 174 169 162 179 178 172 181 187 180 178 173 175 180 176 180 172 173 170 177 180 177 176 172 167 156 152 154 154 151 153 146 149 145 150 146 142 131 140 123 72 50 50 50 45 52 41 39 45 39 41 61 70 66 66 33 27 36 42 50 36 38 33 48 66 102 119 122 130 131 131 132 133 136 138 137 136 138 139 138 139 141 143 146 146 152 153 155 160 159 169 176 167 170 170 164 168 176 168 170 177 174 177 177 175 177 173 175 178 178 179 177 176 172 175 172 163 160 155 150 153 150 153 153 149 150 147 146 144 141 133 139 95 56 50 44 50 49 39 42 39 35 42 64 67 64 69 43 24 29 45 44 41 37 32 51 86 106 119 131 131 133 135 138 140 138 139 136 141 138 140 143 145 148 149 150 146 157 157 158 164 165 171 168 172 172 174 168 173 174 173 178 170 176 174 177 174 174 173 173 175 183 178 182 176 176 174 169 164 160 156 154 160 154 152 154 150 153 150 145 143 144 133 141 117 64 60 46 43 35 51 34 44 46 41 64 64 67 66 49 32 24 44 56 46 41 33 60 87 110 131 136 135 137 136 141 139 143 141 142 142 142 147 148 148 152 152 155 154 162 159 167 162 168 173 171 173 175 177 175 173 180 173 177 178 172 173 176 174 172 173 173 170 176 174 173 177 173 174 168 166 163 154 157 158 157 150 153 151 153 151 145 144 149 132 139 132 84 63 43 41 38 45 40 41 43 38 65 61 70 65 62 34 28 28 54 48 36 39 69 95 120 135 136 140 135 141 140 145 145 145 144 150 148 150 151 155 154 155 158 159 164 158 167 165 170 174 172 169 177 170 179 165 178 175 177 181 177 175 179 172 173 178 174 173 174 170 172 170 168 175 167 163 165 154 159 160 157 162 156 157 152 150 152 145 145 142 138 131 98 65 43 41 53 40 45 34 40 34 66 64 64 64 68 30 33 27 41 43 34 49 69 100 129 133 138 140 133 148 144 147 144 144 145 153 151 148 159 162 154 159 162 161 164 164 167 160 172 175 178 172 179 173 183 169 176 179 176 181 178 175 178 176 173 175 173 173 176 173 169 171 169 171 164 158 166 156 159 160 158 159 158 154 154 152 152 146 145 141 139 132 103 64 50 40 56 36 43 29 35 33 64 67 59 63 68 33 32 25 49 52 39 43 66 111 126 134 136 141 141 146 148 146 148 150 153 154 154 158 162 162 163 164 164 167 166 168 167 166 176 178 180 177 176 183 177 175 183 176 185 183 182 176 179 179 175 183 179 176 173 173 170 172 169 171 166 162 164 160 161 161 163 162 161 158 158 151 149 149 146 142 143 132 110 73 45 46 46 44 35 27 33 33 61 68 61 65 69 39 26 36 39 61 40 42 79 110 125 136 141 142 144 147 152 151 146 155 159 161 159 165 163 164 166 172 166 171 173 174 172 171 176 178 179 185 177 185 177 183 177 181 183 184 187 186 184 182 180 183 179 177 172 170 170 171 170 168 166 166 168 163 165 162 163 162 162 161 155 156 153 146 146 142 144 133 110 75 42 43 50 39 36 42 27 32 69 63 64 68 63 51 28 37 43 51 46 47 81 104 130 138 139 141 144 147 151 151 145 158 162 159 159 164 169 168 171 171 172 175 175 179 177 173 180 180 182 187 186 179 185 180 183 184 176 182 186 185 178 184 186 187 186 177 176 175 172 170 172 169 166 166 169 167 166 164 164 165 164 161 159 158 155 145 149 143 142 131 104 76 49 37 56 36 33 36 31 29 64 66 61 69 64 54 27 33 31 48 45 51 86 114 137 141 141 140 140 154 156 157 156 161 161 164 160 166 165 168 169 169 173 173 173 180 182 178 179 184 181 180 185 185 182 185 180 188 178 181 187 187 180 182 185 187 179 182 175 176 173 170 173 169 162 165 168 169 161 170 164 166 171 160 164 159 156 151 148 146 142 129 105 72 44 42 54 39 29 33 31 43 67 67 67 62 66 46 41 31 37 43 42 64 108 129 142 140 143 140 144 158 157 162 161 159 166 167 164 167 163 166 167 168 170 171 173 180 178 177 182 181 177 183 181 189 182 183 182 184 182 182 187 185 183 187 187 187 185 183 181 173 172 170 173 170 166 167 172 169 166 166 165 167 167 167 161 154 151 152 141 146 143 120 101 71 40 50 52 36 31 26 41 67 71 63 73 63 64 67 45 32 49 37 29 66 116 140 136 142 140 135 150 153 159 161 161 164 167 166 163 166 163 163 169 166 169 173 175 174 171 178 176 182 175 185 180 184 183 182 183 183 183 185 184 187 182 182 186 188 181 175 175 171 172 176 174 172 170 170 168 167 166 166 163 166 164 169 164 154 150 153 143 146 144 116 99 65 45 51 43 35 28 22 50 59 68 66 69 66 64 65 45 33 39 54 44 56 127 134 144 145 142 148 153 154 159 161 167 168 167 167 163 166 166 168 164 167 168 171 172 174 168 173 175 182 181 185 181 185 186 177 183 184 186 186 185 188 187 181 184 183 178 175 175 167 172 169 170 170 167 170 166 163 167 164 166 166 163 167 163 156 149 152 147 143 142 126 89 58 50 50 40 34 23 29 56 57 71 65 66 64 65 60 35 31 41 40 49 44 132 139 142 143 142 153 153 156 159 161 171 167 166 167 166 166 164 165 165 164 171 168 173 174 176 174 176 180 176 189 189 182 190 184 176 186 186 190 183 186 181 181 185 182 178 172 175 170 171 173 170 173 170 169 169 166 163 162 163 167 161 165 160 157 148 153 147 143 143 128 86 62 46 50 33 39 23 45 60 57 65 70 67 66 66 64 40 31 35 49 54 34 124 141 146 140 143 154 157 159 160 156 164 167 163 168 170 168 165 163 163 166 168 166 169 166 173 177 172 178 185 187 188 184 190 179 180 182 184 189 181 183 185 186 182 178 181 171 170 169 169 172 172 175 173 169 165 165 163 163 161 169 161 164 158 154 151 152 145 141 141 133 81 55 46 45 27 34 33 53 56 61 71 66 68 66 67 72 40 33 42 40 45 31 122 138 145 145 148 152 154 160 161 162 167 164 168 168 170 172 168 168 168 168 170 167 164 170 176 172 178 186 176 190 179 181 182 185 187 182 180 187 183 184 188 183 180 185 176 173 167 172 168 171 171 174 172 169 168 165 169 168 166 170 163 162 158 157 148 152 143 144 139 131 90 45 59 35 30 30 50 61 57 59 70 65 68 63 67 66 38 44 36 35 46 24 104 136 145 143 146 152 153 151 163 161 159 162 163 167 169 171 169 172 171 174 171 165 171 172 178 176 179 187 186 186 184 185 186 182 184 180 183 185 184 181 183 179 183 180 182 173 170 174 174 172 171 172 173 168 169 167 167 169 165 167 163 166 155 150 153 146 145 145 139 131 79 42 44 39 30 31 57 63 59 60 75 71 65 62 65 70 44 28 40 41 49 31 88 141 144 138 147 151 151 150 150 157 154 160 162 161 166 168 168 173 176 174 176 173 175 175 177 178 180 180 187 178 192 185 194 184 185 185 184 182 182 183 185 184 185 183 183 175 171 174 177 176 171 172 174 171 172 169 169 165 167 163 158 161 158 150 154 145 145 144 140 129 70 47 45 42 29 44 64 66 58 59 67 71 66 63 67 65 56 19 47 35 48 42 69 141 144 141 141 149 146 144 147 150 150 152 152 159 155 163 168 172 170 171 173 177 174 173 179 174 184 188 187 185 184 189 187 185 188 186 183 183 181 187 178 183 189 181 178 175 175 175 179 172 173 174 174 170 175 172 169 163 163 163 157 157 155 154 151 148 147 142 140 124 51 44 37 34 32 56 61 57 62 59 68 63 85 86 83 62 60 24 37 34 43 40 58 137 138 134 145 142 143 145 145 145 138 129 137 141 142 149 163 159 161 164 171 174 178 176 177 179 182 188 192 191 189 180 188 189 186 185 186 184 182 187 181 182 191 178 176 177 177 180 176 172 169 171 175 169 170 175 165 161 163 161 156 153 153 152 151 150 145 140 138 114 48 38 34 33 49 61 56 58 53 62 58 90 151 144 116 87 65 28 39 35 43 34 52 135 139 133 141 135 132 140 137 125 109 105 124 122 126 133 145 153 159 158 161 166 170 174 177 178 185 189 194 187 191 177 188 185 191 181 183 193 184 192 189 185 186 177 175 173 182 176 172 171 168 169 167 166 167 169 160 156 160 157 155 151 152 151 150 148 145 137 140 95 44 35 39 35 56 57 58 61 52 59 42 122 165 152 149 133 86 51 41 30 41 46 43 136 140 135 136 129 117 111 96 86 78 95 110 105 113 121 126 136 140 151 153 153 161 169 175 175 181 185 192 189 192 189 191 189 196 188 182 192 189 187 184 185 177 176 167 171 171 168 161 163 160 162 159 158 157 159 157 156 160 149 155 152 151 153 150 147 141 137 134 78 30 38 40 28 60 61 62 55 56 61 30 140 164 165 143 149 131 95 47 37 34 35 44 134 143 136 132 109 82 83 83 79 74 85 89 94 92 88 100 102 110 107 123 136 142 164 175 177 176 179 183 186 188 185 189 188 192 188 181 188 183 182 181 176 178 163 161 158 157 155 153 147 138 152 155 145 150 147 143 153 155 148 146 147 148 148 148 139 145 140 115 65 35 31 36 35 55 59 60 59 56 62 31 165 158 170 123 171 164 138 71 32 33 38 50 130 145 126 105 89 97 95 99 102 99 100 91 83 79 83 83 87 89 80 78 90 111 135 151 173 172 178 188 184 181 183 180 181 187 174 177 178 176 172 172 167 164 147 149 135 132 140 139 137 122 135 137 126 120 128 114 133 155 154 146 140 140 145 139 137 143 144 93 60 32 36 51 40 63 60 59 63 57 54 22 169 150 170 129 146 187 171 93 25 37 37 52 134 150 132 101 99 105 115 117 122 116 118 110 100 88 99 93 94 101 95 67 71 77 88 121 155 171 175 181 177 184 181 179 177 178 175 179 178 171 159 165 160 135 130 113 100 90 94 95 94 90 98 102 95 88 92 95 96 123 155 148 138 134 138 138 141 145 137 73 42 30 40 40 48 62 55 60 57 59 60 27 176 137 170 125 152 183 185 104 36 30 24 64 141 142 132 103 128 130 131 141 150 153 148 148 132 128 138 138 137 141 124 105 88 93 83 91 126 152 179 176 182 181 178 179 172 180 175 181 179 163 159 149 137 120 99 84 69 61 62 66 66 66 76 78 77 86 83 84 91 81 113 133 132 133 129 137 143 140 125 58 40 32 36 33 49 58 58 68 67 56 59 21 185 133 163 126 173 187 166 128 40 31 25 86 140 138 142 113 137 152 165 170 175 174 168 173 167 164 155 162 158 161 162 153 147 142 119 113 104 137 176 177 187 179 180 172 180 170 176 177 182 160 159 130 127 112 88 93 82 72 73 84 78 75 69 77 82 93 91 89 96 94 83 111 88 123 131 135 142 148 108 48 34 33 38 29 51 70 106 136 138 93 48 25 179 143 155 126 167 183 144 154 46 26 36 97 139 137 141 138 153 178 179 184 184 176 172 173 163 161 152 144 139 144 151 155 165 173 170 161 140 146 171 188 192 183 180 172 169 176 174 182 185 171 154 136 130 136 120 124 128 126 130 136 130 125 112 101 102 100 91 101 109 108 98 98 100 87 123 134 145 147 95 44 34 32 38 35 69 119 147 171 141 173 46 34 142 154 148 135 165 180 179 145 69 25 26 121 144 140 140 142 161 175 184 179 158 130 119 124 117 106 105 100 102 94 87 92 119 160 168 172 172 165 176 186 189 185 178 174 166 171 177 181 186 177 152 138 151 149 146 147 135 138 140 147 148 145 150 142 148 142 143 131 120 117 115 111 104 87 111 139 143 152 78 38 31 40 32 71 108 134 147 147 115 178 59 61 81 170 127 148 186 183 210 152 65 25 48 131 144 138 140 153 160 174 177 168 131 126 94 99 124 99 58 53 74 66 87 101 83 78 143 161 172 171 165 184 191 186 177 172 170 170 176 185 185 165 148 160 153 144 125 105 97 89 95 103 111 127 142 150 159 165 168 169 161 146 138 130 116 102 118 140 147 147 56 49 32 38 52 97 107 136 123 139 131 177 64 72 36 181 124 167 184 181 174 148 46 24 75 137 144 143 144 164 165 174 170 157 111 84 119 168 182 88 42 79 78 35 74 124 108 101 78 136 160 167 162 175 184 183 176 172 169 168 175 177 173 155 156 148 130 103 73 75 90 96 95 82 85 88 92 111 120 133 153 172 178 163 164 154 137 115 125 143 153 146 43 40 35 45 100 114 130 126 114 157 126 169 46 76 33 142 133 173 164 158 166 129 33 29 98 138 140 144 146 165 169 165 157 131 103 110 165 192 195 79 69 47 87 41 68 160 121 109 95 102 148 163 154 161 182 177 172 168 172 163 170 173 160 149 143 132 110 93 85 88 97 119 73 42 61 52 47 68 110 113 121 120 154 169 170 163 151 131 135 144 152 137 45 38 22 90 146 140 151 131 132 148 123 157 41 67 63 70 147 176 157 142 149 91 32 34 122 145 143 146 149 164 169 164 153 132 122 105 125 194 212 127 158 60 53 49 117 168 143 119 116 97 150 155 137 149 176 173 164 167 166 159 166 167 154 135 133 138 98 113 98 97 131 154 80 35 136 55 33 59 144 100 93 123 106 162 167 163 154 144 141 141 153 135 43 39 25 120 143 137 165 127 156 135 150 124 45 67 71 41 124 181 152 122 119 71 41 40 132 144 142 146 151 164 159 161 159 145 124 119 104 143 196 202 158 89 89 115 157 159 120 138 113 91 118 144 128 140 171 168 159 167 169 156 158 158 147 128 133 136 87 111 97 111 146 171 78 49 56 49 106 77 185 183 101 75 115 146 163 160 158 148 146 147 152 135 44 37 35 128 129 157 175 126 156 126 165 84 49 68 67 55 66 180 151 112 108 73 40 49 139 141 139 144 153 153 156 155 161 156 145 131 133 119 120 153 160 136 141 138 125 135 113 106 116 120 121 132 128 136 165 161 157 168 175 172 157 152 142 125 133 135 123 109 94 98 126 162 136 66 67 51 145 180 205 191 142 89 86 141 163 162 163 154 150 153 153 144 39 43 28 132 160 177 173 132 136 145 132 52 60 65 69 63 29 176 153 112 101 78 47 62 139 142 146 149 161 158 159 153 160 161 162 160 153 152 150 138 123 129 129 133 123 123 117 120 128 142 138 123 122 143 156 162 154 176 185 189 161 147 138 130 123 133 121 104 104 107 110 114 153 144 129 144 179 200 185 149 109 112 109 129 152 167 162 161 150 150 152 144 48 41 28 121 167 179 178 133 109 169 77 50 65 65 70 65 30 151 163 116 100 92 61 54 139 143 145 150 163 156 154 155 165 166 166 174 175 171 179 177 157 151 138 141 134 128 131 137 143 142 132 129 133 142 154 167 160 171 183 190 173 148 140 134 123 135 128 119 115 119 113 110 124 126 121 126 137 140 127 124 117 124 130 144 153 164 169 162 154 151 148 147 55 47 38 106 156 171 179 123 117 175 50 57 59 67 72 66 40 102 177 139 114 103 73 49 139 144 149 152 160 158 154 159 162 164 171 176 177 179 185 188 176 169 158 155 150 149 147 146 148 141 134 135 143 146 157 157 164 170 178 186 177 155 147 136 127 135 132 139 133 128 132 131 130 135 128 130 135 149 152 146 140 147 154 155 158 165 167 159 154 151 149 147 52 50 42 94 143 160 176 116 146 129 44 57 64 66 67 66 52 55 167 168 149 122 91 45 137 144 147 150 158 156 156 160 156 164 168 174 178 184 187 185 183 176 165 159 159 156 153 152 152 141 139 148 148 155 155 159 164 176 184 181 171 168 147 142 143 129 142 137 145 146 141 143 147 154 154 162 169 167 172 159 166 157 159 158 165 167 166 157 150 151 151 141 53 50 67 83 133 147 175 131 131 58 56 60 66 70 65 67 58 52 141 159 185 161 106 107 121 146 145 152 153 160 157 164 158 162 166 169 177 180 192 184 184 181 172 171 162 161 161 155 151 142 152 152 154 162 159 162 168 170 179 177 167 167 155 144 150 140 141 143 142 154 152 149 153 157 160 168 177 175 178 172 169 161 156 156 166 167 162 158 149 150 151 129 48 68 78 73 112 141 168 129 67 58 61 59 58 61 69 58 64 37 145 156 182 183 155 167 105 150 148 151 159 164 166 168 164 163 163 162 169 186 190 192 188 183 182 172 162 171 166 158 153 153 158 155 158 166 160 164 165 180 174 176 166 166 157 154 149 149 141 147 149 148 156 155 162 159 165 170 174 176 181 174 163 158 157 159 168 161 158 158 153 153 151 105 54 83 62 78 112 144 172 82 49 58 51 59 61 68 67 65 64 57 159 158 170 180 194 182 101 146 152 150 156 164 166 171 172 164 168 169 162 173 178 187 188 182 179 174 167 168 158 156 160 158 157 162 162 165 163 166 171 178 175 180 168 165 158 157 144 150 148 148 167 148 158 158 167 161 171 173 180 179 176 165 159 153 159 164 164 163 159 154 151 149 150 76 77 78 56 83 112 160 148 50 52 57 60 50 63 68 64 69 51 78 174 164 167 174 178 173 105 149 155 153 158 166 168 178 179 174 170 173 166 176 175 183 174 178 174 179 170 164 161 162 157 154 160 165 164 161 161 166 165 184 171 178 172 167 161 158 150 149 149 155 160 168 157 162 167 174 170 179 184 181 173 161 159 161 167 167 166 159 164 148 152 151 138 31 104 68 61 99 127 177 106 45 59 51 54 57 53 70 63 66 71 52 182 172 171 161 162 168 100 145 155 152 164 164 176 177 183 186 180 180 179 177 180 174 179 175 176 166 162 165 164 165 159 162 165 166 162 158 161 168 161 181 175 177 177 163 165 152 151 151 152 148 159 164 162 163 167 170 174 173 169 170 156 162 162 164 168 167 165 164 160 151 147 152 105 47 91 101 126 130 167 158 52 55 58 52 56 57 61 66 63 64 68 38 131 182 179 171 151 165 114 136 152 160 165 172 170 177 186 187 189 186 189 184 180 170 176 170 167 163 163 161 164 165 158 167 166 162 159 154 161 161 173 181 174 174 179 161 165 155 152 150 153 152 148 165 162 162 166 162 167 171 165 165 158 162 166 170 167 167 165 165 154 150 148 150 60 121 98 142 175 153 163 93 47 62 58 58 52 55 58 67 65 62 66 63 44 122 184 185 171 181 145 118 154 160 168 172 174 172 182 194 187 188 183 182 186 176 179 171 168 159 163 164 165 167 159 168 167 157 158 158 160 169 174 180 178 188 179 171 165 152 156 153 155 154 156 160 161 161 162 163 164 164 160 166 164 172 165 180 168 174 169 164 154 149 151 117 106 156 157 173 189 160 145 61 54 55 57 57 58 56 56 65 66 67 65 65 56 48 78 151 192 198 171 100 155 156 172 173 174 181 188 192 189 191 189 188 188 180 179 171 166 165 164 170 164 170 170 165 165 156 154 164 155 168 170 173 174 183 186 173 168 150 153 158 156 154 160 155 156 156 155 158 162 159 161 171 170 177 171 179 177 170 166 162 155 151 154 90 136 156 178 173 166 166 147 52 59 61 54 60 57 57 58 70 64 61 70 64 60 58 52 43 78 99 109 101 149 159 169 175 170 182 188 190 193 187 184 185 185 175 171 169 167 171 166 171 164 177 177 156 155 156 150 162 163 171 177 180 172 171 177 178 174 149 152 159 161 160 157 165 158 156 157 158 163 158 161 171 175 180 179 180 179 167 171 162 154 149 138 85 142 155 170 172 165 164 170 45 52 64 52 55 58 55 62 70 64 62 63 63 59 60 60 54 57 57 44 80 142 163 171 178 171 178 185 195 198 189 184 192 185 178 168 169 170 175 166 171 170 181 166 149 149 156 152 161 160 177 175 173 171 172 173 172 174 162 137 170 166 160 160 159 161 160 157 162 163 163 165 173 175 180 182 181 182 168 172 161 152 153 120 95 158 169 167 171 170 168 171 47 59 59 57 57 55 59 55 64 67 61 63 60 63 59 56 59 57 56 52 56 134 157 169 179 182 176 186 192 194 194 188 188 180 180 169 172 170 169 168 168 180 185 150 147 148 160 159 163 164 172 171 171 167 173 168 167 168 170 142 175 171 167 160 159 163 165 151 160 165 160 167 174 180 178 184 181 179 172 169 158 149 150 96 116 168 177 170 171 174 178 121 48 60 56 59 53 60 57 59 64 65 60 66 64 66 54 53 58 52 58 51 47 121 146 163 176 179 174 180 188 188 191 192 184 181 173 173 171 169 171 170 177 187 172 144 150 158 161 172 164 162 182 184 178 178 171 171 169 176 168 151 172 178 177 161 166 160 170 166 162 170 164 171 173 175 167 175 181 179 173 166 156 150 139 85 143 180 182 182 175 171 135 61 53 59 57 56 56 58 60 58 64 63 62 64 66 61 57 57 57 56 54 55 44 113 136 158 173 180 183 183 185 191 185 189 187 181 174 171 170 170 169 170 179 191 157 147 159 164 172 175 171 170 196 200 185 185 171 174 173 175 165 155 165 181 179 162 164 160 167 175 167 171 170 176 172 183 171 175 183 178 173 163 157 150 113 95 139 168 173 168 142 101 62 55 56 60 58 59 57 59 64 58 63 67 62 64 65 62 59 58 57 57 59 52 37 101 126 146 170 173 182 187 189 186 186 183 184 178 176 171 170 170 172 179 182 183 159 165 171 169 179 185 177 180 191 188 188 180 174 184 172 174 162 162 160 175 176 167 162 163 168 175 174 171 176 175 173 176 183 178 182 177 172 168 154 140 105 75 53 66 80 81 62 60 57 59 58 57 58 57 59 56 66 59 63 66 63 67 58 63 59 60 58 55 59 57 40 88 127 139 156 167 178 192 187 183 185 181 181 173 177 170 172 169 171 182 183 173 170 189 185 171 172 179 193 185 181 178 183 174 182 199 188 159 170 172 148 165 173 164 163 162 169 171 175 174 170 175 171 180 182 176 172 176 167 161 153 129 118 62 54 56 55 58 55 58 57 61 51 59 60 54 56 60 66 60 68 69 63 65 67 64 60 57 60 54 57 54 48 71 129 148 153 157 175 189 183 183 187 181 181 175 176 177 169 170 172 171 172 169 155 182 151 115 113 169 200 194 184 183 184 186 192 196 171 113 179 169 130 164 173 170 161 166 165 169 170 180 174 176 180 179 180 176 173 173 163 153 141 118 107 55 55 55 53 58 54 58 55 58 50 59 54 57 60 58 66 64 66 67 66 66 63 65 62 60 58 56 59 54 46 64 129 148 146 155 167 188 179 185 184 186 176 169 172 172 166 171 172 171 170 168 152 147 167 158 134 148 189 206 196 195 189 195 203 162 133 110 126 129 146 165 162 168 159 165 166 172 171 175 175 176 177 177 182 175 170 168 158 150 133 122 89 51 55 55 50 55 52 56 55 56 55 57 57 57 59 58 63 61 67 63 67 65 61 68 63 60 59 57 56 57 51 49 127 130 142 146 157 180 183 186 184 183 176 175 171 168 166 170 174 166 168 168 156 149 143 150 175 179 166 187 198 183 177 175 154 104 113 118 127 140 154 161 163 163 166 169 163 173 181 176 179 176 183 176 183 180 171 168 158 138 132 132 70 46 53 54 54 53 50 53 57 56 57 58 57 54 63 63 56 65 68 63 69 62 66 67 61 62 62 59 56 57 55 47 121 131 146 137 159 174 178 178 185 179 179 174 170 172 171 176 172 164 166 164 143 138 129 120 158 152 144 144 156 154 138 116 118 82 95 120 136 130 153 161 161 165 168 172 165 170 174 179 181 177 182 180 181 176 168 159 149 137 128 124 61 47 56 53 51 52 54 55 52 55 53 56 56 56 61 60 62 63 67 66 67 66 70 67 65 65 67 59 64 56 59 60 109 144 141 146 160 160 174 174 177 179 181 170 171 172 178 173 169 156 164 156 131 123 107 105 143 128 128 138 140 151 130 118 124 94 97 111 115 117 135 153 152 157 165 170 176 168 175 181 183 181 182 179 177 176 171 156 140 130 132 107 54 47 59 49 51 50 52 50 57 54 56 53 55 58 60 60 60 68 71 68 63 71 66 67 66 67 64 59 66 61 53 68 109 139 136 148 137 163 169 166 173 173 177 166 169 161 160 156 160 147 149 140 133 113 101 110 126 132 123 121 136 115 138 125 125 100 94 102 109 110 122 131 142 137 142 164 177 169 166 183 180 184 178 180 174 166 167 147 143 140 130 96 51 52 51 53 54 49 51 56 54 56 55 60 56 59 64 58 64 70 68 66 67 64 68 64 64 69 61 66 61 60 53 80 98 121 145 150 143 164 168 158 176 171 168 160 172 154 151 137 149 130 142 128 133 111 97 111 123 134 134 112 111 81 119 135 118 110 109 100 118 101 117 122 124 125 128 144 165 177 170 182 178 179 175 175 170 162 150 134 144 139 125 88 50 50 56 47 51 52 53 54 57 55 57 55 59 64 60 65 61 63 67 69 69 67 61 68 65 64 63 64 62 60 54 82 116 117 145 152 146 158 157 164 174 168 162 163 166 136 134 126 133 120 137 135 135 116 115 123 126 145 144 114 105 102 118 146 137 129 142 147 129 118 121 109 121 124 122 113 151 164 172 170 176 173 175 172 163 161 144 141 147 137 121 88 49 50 52 56 51 53 52 54 58 52 64 57 62 61 66 65 62 65 66 64 69 63 64 65 64 62 65 64 64 62 52 85 128 104 138 153 145 155 158 158 165 172 161 159 164 144 139 144 143 152 149 145 151 149 150 153 163 170 155 133 133 125 142 152 157 153 156 163 162 145 141 137 132 138 127 115 131 160 175 160 168 174 171 169 151 154 144 142 140 140 114 93 45 55 50 50 52 51 53 54 54 52 56 56 63 64 64 67 60 67 67 65 72 64 69 59 67 63 71 63 63 60 54 80 146 103 125 137 140 160 160 154 161 167 163 166 160 160 151 153 171 179 162 162 174 176 177 178 173 171 169 158 167 159 155 147 159 161 157 158 164 172 167 159 170 165 127 135 133 157 173 164 167 176 160 158 152 142 146 147 148 133 108 93 42 51 56 48 54 49 51 54 53 56 58 59 63 65 65 62 65 62 66 73 66 67 67 68 69 65 67 64 63 64 50 76 155 114 117 144 137 157 160 154 155 156 166 169 156 168 167 169 183 188 188 173 177 172 172 170 175 172 168 159 167 159 151 158 166 161 144 151 156 156 167 168 178 175 154 150 142 169 167 162 163 164 161 154 149 147 141 143 139 119 110 90 46 52 51 55 52 50 54 55 55 56 56 61 65 61 65 67 64 63 69 68 70 65 68 68 65 65 67 63 65 62 53 73 158 142 106 135 142 140 157 153 143 160 169 169 157 166 165 166 165 149 158 148 145 142 131 107 134 159 162 158 156 149 147 133 121 86 47 69 91 113 117 117 124 146 159 162 155 167 170 163 162 165 164 160 144 145 142 142 131 113 117 83 44 49 51 53 52 54 56 57 56 57 58 61 58 66 66 65 66 63 67 67 68 66 65 68 62 67 68 66 63 66 53 63 159 152 110 121 136 128 153 162 140 153 168 169 174 168 155 153 135 117 111 105 112 98 78 63 58 72 82 91 90 86 84 72 72 68 70 84 86 99 100 96 114 134 147 146 157 171 157 166 161 151 160 160 137 142 138 151 129 99 131 70 50 48 55 49 55 54 55 60 55 60 58 61 60 69 62 65 64 57 69 64 66 69 67 67 61 64 68 64 64 64 56 62 158 153 133 112 130 136 144 163 146 148 170 167 179 178 158 162 145 152 124 114 117 120 113 103 99 96 101 90 88 91 96 97 96 98 102 108 110 112 114 118 132 152 139 140 156 157 177 168 156 153 158 148 147 147 142 131 123 91 141 67 48 48 50 51 53 57 54 62 56 60 57 61 62 65 64 62 61 64 67 68 67 65 67 66 66 63 67 65 63 61 57 49 160 157 153 121 119 123 136 153 145 142 168 165 184 173 164 162 162 178 162 140 124 124 120 118 116 115 105 106 103 104 105 115 110 113 121 121 115 128 134 146 161 168 147 153 146 160 167 178 165 147 160 148 145 136 134 142 98 109 141 59 47 49 54 51 55 58 58 62 62 63 61 65 66 59 62 66 56 68 68 65 66 67 66 66 68 68 62 64 66 60 55 49 155 160 161 134 110 121 128 152 155 145 169 176 182 171 173 171 166 180 180 168 146 137 140 136 132 132 121 121 125 120 128 130 134 131 135 130 132 143 157 158 164 164 163 171 150 166 171 168 173 146 157 147 149 137 130 121 100 127 145 55 45 51 54 53 58 57 59 58 62 64 61 64 61 67 64 62 61 69 66 69 66 68 66 64 68 64 62 62 64 59 56 42 154 164 161 154 99 122 128 135 149 143 164 173 177 167 174 184 172 182 181 179 181 163 164 160 162 151 148 143 138 143 147 149 143 141 142 154 156 164 164 159 165 166 171 175 159 158 173 153 166 155 156 144 146 131 122 117 101 143 141 42 45 53 56 51 55 59 59 61 57 66 62 61 63 61 67 68 65 62 64 69 63 69 66 64 64 64 61 66 63 58 57 38 149 163 164 166 115 108 129 126 145 144 150 164 166 169 169 185 185 183 180 168 181 182 184 183 188 179 167 166 155 164 164 159 161 163 168 174 170 160 162 159 167 170 177 176 166 157 159 160 157 150 141 142 128 125 122 105 120 151 137 41 48 53 52 53 53 59 59 57 61 63 63 61 64 64 68 68 66 61 65 64 65 73 61 68 65 66 63 63 60 59 61 33 145 166 165 174 139 117 123 126 137 125 135 164 159 164 182 187 187 191 181 171 163 168 159 171 162 153 144 146 147 151 146 155 164 172 157 163 159 155 168 170 173 176 178 179 171 161 156 155 145 139 139 131 118 126 124 98 130 162 125 41 50 50 51 53 55 62 61 60 59 64 63 59 64 67 64 67 68 60 69 67 64 69 63 64 63 63 63 63 58 59 62 38 136 169 164 169 155 117 119 122 128 123 129 159 150 148 178 186 185 187 190 189 183 181 179 169 142 148 131 135 148 127 100 136 136 149 155 170 165 175 175 176 178 179 176 174 153 150 154 142 138 114 139 130 122 121 110 95 147 168 119 40 45 53 48 55 57 58 57 65 59 62 64 60 64 63 64 68 64 65 72 60 68 63 67 62 64 61 61 61 61 53 60 34 133 164 172 168 177 135 119 141 119 125 130 147 144 139 159 176 182 183 185 191 184 193 194 191 176 154 138 138 149 139 126 136 156 164 165 178 177 176 174 177 180 176 168 171 150 145 157 141 130 125 126 131 121 113 115 116 154 175 95 39 48 52 47 54 58 57 62 57 60 65 58 62 64 63 65 71 66 65 61 64 62 66 59 61 65 59 62 61 55 59 56 34 122 168 169 170 174 157 123 133 126 119 133 122 132 144 154 173 181 180 188 187 193 186 190 183 183 162 148 148 150 148 150 142 158 165 167 169 174 179 176 177 162 167 165 164 139 147 149 130 125 111 126 131 111 105 112 143 158 174 84 35 46 47 49 55 52 58 60 57 60 58 59 58 61 63 68 67 64 69 60 67 60 61 61 59 62 58 61 58 55 57 53 33 117 168 167 170 173 180 125 114 119 122 120 123 132 137 144 160 172 182 185 184 186 187 184 184 177 155 158 156 159 155 162 160 162 163 169 167 170 170 174 173 163 167 151 146 148 138 140 132 120 122 131 132 112 114 117 153 159 168 68 36 48 49 45 59 51 60 58 61 63 61 57 60 62 64 65 64 65 68 59 62 61 65 58 57 60 57 55 57 54 52 53 33 112 165 164 168 171 178 173 117 120 130 121 123 132 132 136 152 164 175 184 177 177 179 173 180 169 163 162 161 163 157 160 161 156 156 154 157 156 160 162 168 152 160 153 142 142 139 126 137 121 110 126 133 113 108 137 159 159 162 50 35 44 48 49 53 54 56 61 58 61 61 59 60 59 66 64 61 67 63 64 57 64 60 58 57 57 57 58 54 54 52 46 43 120 163 166 170 169 175 180 154 104 130 131 129 131 128 121 137 157 174 180 182 171 174 168 174 168 169 164 161 162 153 160 156 148 149 145 148 152 155 161 155 150 147 138 146 139 129 126 117 124 115 115 121 114 121 150 163 159 154 40 34 44 45 48 53 57 56 55 55 61 61 61 57 60 60 63 62 66 70 66 57 61 63 58 56 59 59 55 54 56 44 46 136 138 161 166 173 174 176 177 178 118 121 133 116 133 120 106 141 144 168 172 180 158 172 165 169 169 164 162 165 159 152 158 157 149 150 148 147 157 154 162 148 158 141 135 133 127 119 125 117 122 118 122 112 110 139 158 163 154 149 51 33 40 42 47 51 54 54 55 55 59 61 58 62 59 61 68 65 68 69 57 64 60 61 57 58 64 52 61 57 54 29 154 179 132 157 169 168 175 177 175 179 169 106 127 128 129 120 127 134 150 157 160 178 177 169 174 162 174 172 167 173 166 166 162 165 154 156 154 143 161 150 149 154 151 146 131 121 121 116 130 118 134 118 110 111 131 155 163 165 161 136 188 94 31 39 45 55 51 53 53 60 59 59 55 65 59 59 62 70 65 60 58 66 61 60 58 59 61 56 58 59 36 93 207 164 116 157 167 175 171 183 177 175 184 153 121 132 121 128 126 117 129 138 148 157 171 166 170 163 171 178 176 179 178 171 173 171 167 159 156 149 149 159 146 153 142 134 127 114 119 115 132 120 119 120 117 113 149 162 164 162 161 103 135 223 130 38 37 51 48 52 52 57 57 53 58 62 59 62 64 64 66 66 60 63 56 58 57 57 56 55 59 56 31 186 216 150 120 158 169 171 172 175 179 180 181 185 144 117 128 118 123 121 119 129 147 150 155 175 166 173 164 180 174 184 187 179 176 177 170 171 152 155 151 157 138 149 141 124 118 91 103 121 121 133 114 119 114 141 160 161 164 158 158 119 97 153 219 144 39 41 50 50 51 49 58 56 58 52 61 59 63 65 62 69 59 55 60 57 56 58 51 56 55 30 112 218 213 142 109 165 167 173 173 176 170 181 181 181 184 141 109 113 121 122 113 127 137 141 155 158 157 176 177 173 171 178 185 180 172 177 169 171 166 165 159 149 134 144 124 136 105 91 107 124 121 119 121 114 138 157 164 162 163 157 157 119 97 136 161 224 140 38 44 46 49 50 55 48 54 53 58 58 57 64 63 64 54 56 55 51 55 54 53 51 55 31 203 219 212 164 83 164 170 173 175 174 170 174 180 182 182 178 147 102 115 131 115 115 131 142 145 160 172 165 177 174 166 175 177 176 161 165 160 167 162 165 148 138 130 139 110 124 98 98 120 117 129 110 112 142 154 165 167 164 162 156 152 129 67 130 128 192 224 109 34 51 49 52 50 49 55 47 59 54 56 62 63 62 52 55 53 53 52 54 50 51 30 121 223 217 211 183 74 130 170 172 173 175 175 176 174 181 185 183 178 157 98 118 132 108 98 125 143 143 159 169 166 164 159 181 176 175 171 154 161 164 156 149 138 133 141 122 100 94 107 107 118 120 102 116 142 153 162 166 169 163 163 158 153 111 102 80 143 140 212 222 67 43 52 51 54 50 53 51 52 53 56 57 60 61 55 57 54 52 51 50 54 45 40 213 217 218 213 201 89 91 139 172 174 178 177 174 179 180 181 183 180 177 163 119 120 126 97 102 121 133 132 151 157 157 154 166 166 171 174 166 157 153 143 135 130 123 132 106 101 114 114 109 110 115 118 146 152 164 165 164 165 161 161 157 143 104 102 103 94 142 193 223 179 46 48 52 53 50 49 52 54 48 55 54 60 54 52 56 49 54 51 53 55 25 144 229 214 218 216 216 115 80 101 139 166 179 176 177 179 178 180 175 181 183 179 169 126 130 126 139 108 128 116 124 143 127 143 134 138 156 145 152 142 136 130 122 123 111 99 125 119 126 118 99 105 137 149 154 161 165 167 165 165 162 158 160 121 98 97 134 75 140 165 219 232 94 50 56 61 51 53 51 54 56 51 55 53 56 