P2
92
112
255
60 57 59 62 59 61 60 55 59 64 57 63 57 63 62 66 57 63 59 62 46 45 41 32 43 38 44 46 41 47 56 56 44 47 38 47 42 49 39 38 34 42 39 41 44 33 30 46 43 47 33 44 36 33 35 30 36 33 30 30 39 33 33 38 39 43 48 50 55 52 51 51 52 55 57 51 46 43 49 59 64 59 67 63 61 63 67 60 65 61 61 63 58 60 59 58 58 62 59 61 60 58 59 65 59 60 62 57 62 57 58 49 49 44 41 41 39 42 42 56 57 54 52 45 41 47 32 48 41 49 40 30 32 40 42 32 33 43 31 43 57 32 39 47 37 38 35 31 39 32 28 35 33 36 31 34 42 39 37 42 45 53 56 49 47 50 51 43 54 47 48 47 55 61 65 61 64 65 66 58 66 66 60 63 59 59 60 57 62 62 58 63 55 63 59 59 61 62 55 49 50 49 44 42 45 51 38 44 42 41 47 40 42 57 45 31 30 42 31 34 47 37 43 34 32 41 44 29 30 46 35 41 49 33 49 43 38 42 37 34 34 38 31 33 32 34 33 35 38 31 34 32 39 40 41 37 40 42 47 45 51 53 47 43 39 54 57 64 62 66 62 62 67 64 60 61 55 63 59 55 64 58 61 61 61 63 61 58 59 58 59 55 49 43 38 39 38 37 43 37 45 36 38 42 33 35 47 31 27 38 36 26 44 35 48 38 37 40 31 38 31 39 39 41 39 44 41 43 42 39 38 34 36 41 31 30 32 30 34 42 34 28 36 31 38 35 41 31 43 36 46 48 52 51 47 49 46 43 44 56 66 64 63 66 63 67 64 59 57 56 67 58 61 58 65 59 63 60 60 61 65 54 50 44 40 44 41 34 42 43 46 44 38 51 46 36 28 40 32 36 32 26 33 30 29 38 33 42 47 33 35 39 36 42 49 45 43 62 48 52 54 49 48 43 38 42 36 34 33 33 36 37 32 31 32 34 30 46 38 38 40 42 38 45 49 45 50 48 48 46 37 55 60 64 64 63 63 67 66 62 61 59 61 58 67 59 63 64 66 60 61 57 60 43 43 39 41 43 44 38 39 41 44 45 37 42 40 35 33 37 37 38 42 34 39 38 42 38 36 45 42 42 51 48 52 63 56 60 62 75 55 70 54 61 61 63 65 53 50 42 47 44 36 37 33 33 30 34 30 51 36 30 40 37 37 39 46 41 50 50 50 43 42 47 48 59 63 60 69 64 63 62 60 62 59 63 59 63 65 62 64 59 63 59 48 41 39 41 39 44 42 45 40 37 45 47 27 40 31 30 26 34 42 49 51 51 59 57 66 55 55 54 59 51 72 66 69 85 74 77 80 73 75 81 68 76 67 76 95 73 65 61 55 56 50 47 46 45 39 39 35 37 31 35 33 36 34 37 37 39 53 47 48 47 50 48 40 57 62 68 60 66 66 60 58 61 61 60 62 62 64 61 68 64 60 56 41 41 39 40 42 47 48 37 37 46 40 43 41 41 39 33 36 49 66 80 81 83 83 87 90 78 85 88 77 82 75 96 97 101 88 88 89 87 100 95 91 96 85 97 95 102 83 77 71 65 63 70 67 65 59 51 42 34 33 31 29 32 33 33 31 40 44 39 41 46 45 47 42 41 60 72 64 67 60 65 61 59 63 57 65 68 62 65 60 59 46 43 41 40 40 38 36 40 38 39 34 36 37 36 32 32 39 49 65 80 94 98 104 106 99 98 94 107 111 113 107 109 96 113 114 113 109 103 107 105 104 101 106 110 115 119 102 109 103 103 88 88 82 93 82 78 81 68 66 59 45 34 32 31 33 35 27 36 35 39 37 39 44 44 34 38 43 59 70 64 62 62 60 60 62 58 67 63 61 68 60 59 47 42 41 40 48 44 38 34 36 33 34 32 33 28 32 39 60 86 96 101 106 110 112 116 117 116 117 118 128 123 130 125 121 127 131 123 126 124 124 124 116 124 124 124 123 136 124 106 119 117 114 107 99 104 103 98 97 85 84 86 82 62 36 34 32 32 30 36 33 41 37 38 41 45 37 36 41 54 59 63 64 67 58 61 62 62 66 60 67 69 56 55 37 40 40 42 40 36 36 32 33 28 31 30 32 34 50 77 93 107 108 109 113 118 117 119 126 123 131 130 132 131 132 134 129 132 133 136 137 133 135 143 131 136 137 136 137 135 138 124 133 137 135 122 121 121 119 120 121 110 99 96 99 96 73 42 34 28 29 36 36 38 41 32 42 44 48 40 42 47 63 59 64 63 64 65 64 64 63 65 67 62 47 50 37 38 39 37 35 36 35 31 28 30 29 27 30 52 83 101 108 114 114 118 119 119 123 123 130 131 134 132 133 135 136 136 138 132 141 142 141 145 144 147 142 144 144 149 144 141 141 141 139 146 147 145 144 144 136 135 138 134 130 119 111 105 103 89 49 39 35 32 39 39 39 36 39 45 48 46 41 42 46 60 65 60 65 59 63 64 61 66 63 60 48 43 42 34 37 36 44 36 34 28 32 34 25 29 53 85 103 109 115 115 118 121 125 125 127 127 133 135 135 129 138 135 141 143 142 142 144 150 146 149 150 144 147 147 147 151 148 156 150 149 152 146 157 156 160 163 148 146 147 142 139 136 130 119 114 104 96 55 39 32 40 36 47 44 44 43 44 55 38 40 41 55 61 62 60 67 64 65 60 66 62 59 50 41 34 37 40 34 39 34 30 28 33 27 28 51 90 103 109 118 117 118 122 123 125 128 129 130 132 129 131 132 138 139 144 148 150 144 143 145 154 149 153 146 151 148 155 159 156 158 161 157 163 163 181 166 168 167 166 165 161 150 147 139 135 134 127 123 114 101 58 39 32 33 41 42 44 51 42 49 50 48 45 54 63 63 60 62 66 68 63 68 69 49 41 39 40 39 36 31 37 38 31 37 32 23 63 91 107 114 117 117 123 124 123 127 127 126 129 129 128 132 136 140 145 143 146 148 146 152 149 155 156 155 159 156 159 155 161 162 162 174 166 166 176 177 177 178 192 184 176 171 169 159 153 146 137 133 132 136 127 115 102 54 34 28 36 30 38 62 64 64 60 50 38 33 51 63 70 60 62 69 66 65 62 45 36 32 42 33 36 37 38 42 35 34 28 63 93 107 108 116 121 121 124 124 127 124 130 128 126 130 131 137 140 142 146 154 149 151 153 162 159 161 168 168 162 170 167 168 164 170 168 171 183 181 175 180 175 173 176 180 185 179 176 168 162 152 142 140 133 133 134 126 122 100 43 29 34 33 32 39 46 48 66 59 44 39 39 52 58 69 62 62 66 68 64 43 42 30 42 33 36 40 45 38 34 36 53 97 107 109 114 121 123 122 128 126 125 127 125 131 130 135 138 139 140 139 150 154 156 158 166 161 167 159 162 171 167 167 183 179 175 175 173 180 179 180 178 176 166 177 182 175 193 176 175 173 162 159 147 143 142 138 130 135 127 123 90 35 26 30 31 41 48 46 52 58 44 33 35 44 62 68 60 64 63 68 50 51 33 41 31 37 39 41 40 37 34 47 92 105 111 115 118 121 129 129 130 128 130 133 135 134 139 135 137 145 142 146 150 157 157 167 169 164 169 161 167 171 173 166 170 171 174 176 175 180 182 177 177 179 177 179 182 186 179 186 169 164 162 158 154 148 146 141 139 140 140 122 131 79 37 34 34 27 36 47 47 52 52 39 39 29 66 67 65 61 63 68 43 38 42 37 28 36 43 39 38 33 37 81 106 111 116 117 121 125 128 133 129 129 135 132 135 137 139 140 142 144 151 153 156 161 160 171 172 169 171 168 167 177 177 176 176 174 175 176 175 177 179 177 180 181 186 185 180 178 185 184 175 164 163 153 156 147 147 148 141 142 140 134 123 129 55 36 36 37 43 49 58 44 43 46 44 24 64 68 62 63 70 60 40 34 43 41 39 32 39 42 35 32 59 100 112 119 119 121 129 125 131 132 133 133 132 138 137 140 144 142 149 152 156 158 163 161 170 168 174 172 179 172 177 178 185 178 178 178 180 174 178 173 182 178 178 178 184 182 182 178 179 177 177 170 159 156 160 154 149 151 145 144 142 141 131 130 108 41 39 43 34 58 67 51 45 44 36 36 65 64 60 64 69 63 38 30 39 49 44 38 40 38 42 43 81 109 116 124 122 128 129 131 132 134 133 133 137 140 144 146 146 151 153 154 161 161 167 166 173 179 176 177 183 175 179 175 179 176 181 181 180 177 180 176 181 182 178 184 184 188 188 184 184 176 171 172 161 155 163 159 152 150 148 149 144 140 142 129 135 85 42 46 42 54 58 51 47 41 43 36 59 67 61 63 71 50 28 27 35 49 38 34 40 40 44 62 98 114 122 128 127 131 134 133 135 138 137 141 140 143 147 150 149 153 156 158 161 166 165 164 169 175 179 177 179 178 176 176 176 173 178 177 179 172 181 180 180 178 180 183 183 184 182 178 179 179 166 168 163 156 163 158 159 152 151 147 145 145 138 137 136 119 53 55 43 52 53 51 46 41 43 27 68 64 61 64 66 51 30 27 34 54 36 37 41 34 50 79 106 120 128 127 129 134 133 138 140 138 140 145 145 144 152 155 153 155 160 162 160 168 167 161 172 174 181 176 172 183 171 178 179 179 181 177 185 174 181 176 181 184 178 182 176 180 180 179 176 175 170 166 163 161 159 159 161 156 153 153 145 148 139 145 129 135 78 57 50 49 44 41 44 42 43 39 68 65 67 64 68 62 27 34 35 52 38 43 35 35 62 89 113 128 131 130 129 138 139 140 142 139 144 145 149 154 153 155 160 162 161 164 168 169 168 166 174 176 174 181 174 181 179 175 177 180 179 179 184 180 180 181 180 179 183 175 175 175 176 175 175 173 170 170 164 165 161 162 162 159 155 154 147 152 142 144 135 137 113 59 67 39 46 46 40 40 42 42 61 66 68 61 68 49 31 34 46 43 40 39 36 42 68 96 120 130 135 131 133 141 142 142 145 147 151 151 153 159 158 157 163 165 164 170 170 175 170 172 176 176 178 179 178 177 180 180 177 182 177 179 183 183 175 180 180 183 181 180 178 178 174 173 176 171 169 169 168 166 165 160 165 162 161 157 154 150 144 143 139 137 124 76 63 43 41 32 44 33 48 32 62 68 65 66 72 39 31 30 38 54 44 40 37 50 72 105 125 129 132 136 138 140 146 145 142 153 153 151 152 156 161 160 164 166 163 170 169 172 176 174 175 177 174 180 173 181 179 177 173 184 175 178 182 184 179 182 180 183 181 180 179 176 175 172 174 169 164 167 169 167 166 165 165 165 164 157 154 152 145 142 142 143 126 95 58 52 44 44 43 38 40 46 63 63 65 63 68 33 28 32 39 56 48 38 41 53 77 111 124 131 135 135 138 141 146 147 142 154 157 155 155 157 159 160 161 163 166 167 166 173 173 174 172 179 173 178 175 183 177 175 171 183 175 181 182 180 178 179 180 182 181 178 176 172 172 173 178 172 164 168 169 167 166 167 167 169 166 161 156 156 145 145 143 140 132 104 70 47 45 50 38 44 38 43 64 66 66 61 73 44 26 29 33 38 46 33 44 44 92 107 125 130 136 137 139 147 148 155 152 154 158 161 158 159 159 159 164 163 163 167 168 171 167 172 168 174 175 179 178 181 179 177 179 181 182 177 182 185 182 177 183 182 178 176 172 171 170 171 174 169 170 169 166 169 163 166 168 167 169 163 158 153 150 146 145 141 131 106 75 49 42 45 39 38 32 34 62 67 62 62 67 53 33 26 31 38 47 44 41 57 82 111 132 135 139 136 136 153 148 157 152 158 160 162 156 160 155 161 162 162 165 165 165 169 168 169 170 172 180 182 185 184 182 176 176 183 186 186 181 183 181 177 178 178 176 175 173 172 173 166 172 170 167 169 166 165 167 165 165 165 166 169 160 149 152 144 143 140 132 108 71 50 42 50 35 36 30 39 65 66 67 63 64 57 33 34 26 41 53 42 37 51 93 125 137 139 140 132 144 150 152 157 157 161 163 160 157 159 161 162 160 162 165 166 168 170 172 171 170 178 182 185 190 182 188 183 176 186 186 187 182 184 182 177 179 176 175 170 176 171 170 171 172 173 168 169 166 164 166 164 168 165 162 169 160 152 150 144 144 145 120 109 75 54 39 50 37 37 33 35 67 64 64 67 67 63 29 34 29 38 45 52 40 76 116 136 140 138 135 138 147 153 152 156 164 160 161 161 164 159 160 159 160 161 166 164 162 166 168 170 170 176 182 180 187 179 184 182 184 182 178 183 181 178 185 183 172 181 176 169 167 173 170 168 172 173 170 168 164 164 160 163 165 167 163 162 159 150 150 150 141 142 128 103 74 47 42 48 44 33 51 30 65 65 65 63 66 65 30 38 36 36 51 49 43 88 123 138 137 142 138 150 151 153 153 157 161 160 160 162 164 162 161 162 162 165 167 164 164 172 172 169 172 177 182 182 182 179 180 183 179 180 179 185 181 179 182 175 182 179 176 171 170 172 172 169 175 174 172 166 168 163 166 163 168 165 161 162 154 152 150 151 142 146 129 97 74 41 47 49 35 39 34 30 65 73 69 65 65 64 38 39 39 31 39 38 37 99 128 142 143 138 142 152 153 156 152 153 159 161 162 162 163 165 165 163 168 170 169 164 167 172 172 173 174 178 179 175 177 179 182 177 182 181 181 174 180 178 180 184 183 184 179 178 174 171 176 171 173 171 174 169 169 166 167 165 167 166 163 160 157 153 153 148 141 144 136 101 58 46 44 48 40 33 33 34 65 71 66 66 60 68 36 38 33 39 38 36 40 103 131 140 144 140 146 151 155 153 156 158 158 157 158 163 163 164 164 166 173 172 175 171 171 171 174 179 173 180 174 174 177 176 182 175 177 183 178 177 179 181 181 181 183 179 180 176 174 175 180 175 172 173 176 171 172 170 165 165 161 162 162 162 155 151 151 145 142 144 136 99 63 53 45 39 35 30 25 32 70 68 69 62 66 65 54 37 36 44 36 57 27 102 134 145 144 145 144 149 152 151 156 154 151 156 155 157 156 161 161 168 167 165 169 170 169 170 174 175 178 182 177 180 177 176 178 178 174 180 178 176 178 178 177 177 179 180 176 177 175 180 179 173 175 173 174 173 174 172 169 163 163 160 160 162 153 152 152 143 144 143 138 99 54 47 48 34 41 27 22 46 68 65 68 65 67 62 42 39 34 38 40 48 32 91 132 143 145 143 146 153 151 143 144 149 147 149 146 149 143 149 157 158 158 158 167 169 171 174 169 174 179 181 183 179 180 174 174 179 180 176 175 180 179 181 183 183 182 182 173 179 179 180 174 172 168 172 172 171 171 176 165 161 160 158 156 157 156 151 149 148 145 143 134 98 55 52 40 40 38 26 35 61 65 68 65 68 68 61 51 44 30 37 41 51 31 86 131 141 146 137 144 148 146 141 140 141 134 123 128 128 130 136 144 148 152 154 152 158 164 169 173 176 183 186 188 183 180 179 180 179 187 180 176 182 184 180 184 183 183 180 171 174 175 171 169 168 171 171 167 170 167 172 160 158 160 159 154 154 154 150 151 146 145 143 138 99 38 47 39 31 36 26 43 60 70 70 65 70 60 65 61 39 34 43 47 43 42 61 130 143 145 141 140 146 138 141 139 124 105 101 113 110 117 115 127 128 136 138 138 143 151 162 173 175 180 180 188 190 187 190 184 184 189 190 176 184 181 183 181 180 180 173 166 167 168 162 160 157 158 160 161 161 162 163 162 156 159 156 153 151 152 153 149 147 145 142 134 86 48 43 38 29 39 36 50 58 70 65 68 69 65 62 66 37 33 41 44 37 38 44 126 142 139 140 145 137 132 128 108 89 74 84 97 96 98 99 102 101 106 105 109 118 129 144 163 173 178 180 192 191 192 191 187 187 191 186 180 183 184 179 178 172 168 159 153 146 143 145 151 143 139 146 154 145 153 149 150 157 155 151 152 151 152 150 150 147 140 140 135 77 39 41 38 34 25 41 57 63 70 70 69 69 67 67 64 37 36 36 40 38 44 32 120 141 137 136 141 126 104 92 74 81 72 83 83 84 81 77 83 80 82 84 78 83 91 119 129 154 168 173 181 190 189 192 187 182 186 186 179 181 178 168 173 164 145 134 129 114 109 116 122 119 116 120 132 120 125 131 124 145 158 149 145 150 151 151 151 148 138 139 130 59 41 36 35 32 24 54 60 61 68 71 70 66 70 62 67 32 54 36 37 44 46 30 109 136 141 136 135 108 83 85 87 98 93 97 94 87 77 78 89 77 89 91 73 72 75 77 101 128 152 170 174 184 182 184 180 179 182 173 182 178 169 158 158 140 128 112 92 74 73 73 74 82 83 88 100 88 94 95 95 109 140 157 141 139 147 147 150 141 142 136 123 49 36 36 38 31 29 57 59 63 70 67 78 66 69 65 66 31 44 43 40 36 44 26 100 138 143 138 117 87 91 105 106 115 115 115 118 105 101 112 114 114 122 117 95 92 88 87 84 103 131 163 169 174 181 176 176 177 168 176 176 178 166 154 131 132 114 90 83 65 60 55 67 59 62 74 76 77 85 81 82 89 97 139 147 134 138 144 138 142 142 138 103 41 40 30 41 38 47 62 57 59 72 68 73 66 66 63 65 31 23 44 38 40 37 30 94 136 141 130 104 100 112 121 131 134 150 146 151 143 140 140 151 146 155 154 140 144 136 122 119 108 119 163 172 183 187 176 175 170 170 170 175 176 168 151 134 121 116 101 92 79 77 71 82 82 73 73 75 87 91 89 86 88 88 91 117 127 132 138 140 142 142 138 76 38 39 39 36 30 64 54 62 59 72 66 69 67 65 64 75 30 22 39 34 44 42 25 88 139 142 130 99 124 134 147 156 167 167 163 173 162 165 157 162 158 155 159 158 166 169 174 163 146 142 161 180 182 184 177 175 163 165 174 177 179 178 148 137 135 136 132 133 134 131 129 135 131 128 113 96 101 101 91 98 104 109 84 101 87 125 135 138 144 147 125 52 36 30 42 30 45 60 61 56 51 70 65 64 88 97 86 73 48 23 39 33 36 42 21 92 139 150 129 105 136 154 170 182 177 177 178 178 178 171 166 158 153 144 149 150 152 162 177 181 176 172 172 178 184 182 174 171 170 161 172 176 174 178 155 145 156 157 157 148 145 145 146 149 147 145 147 139 139 141 129 122 109 109 109 99 100 91 132 141 146 146 104 52 38 22 43 32 59 60 64 61 54 67 55 92 155 154 132 115 71 19 42 39 29 43 22 99 138 144 137 125 148 178 181 185 183 175 161 149 140 128 120 110 106 104 105 118 126 146 160 167 178 177 169 183 186 181 174 176 169 166 171 179 180 172 150 162 165 155 145 137 134 131 144 142 146 151 153 153 161 160 160 151 139 128 114 114 100 84 125 137 146 145 83 39 38 37 33 35 58 61 61 62 60 65 43 134 167 157 152 145 129 74 42 42 31 37 23 108 141 143 145 138 161 180 184 184 163 132 114 122 118 103 100 100 98 100 86 80 73 95 143 152 171 176 169 175 185 178 174 169 169 166 166 176 170 160 157 162 152 136 111 99 90 86 92 95 98 110 131 147 163 172 170 177 164 154 144 129 111 88 116 140 148 135 68 47 31 37 45 51 53 58 61 57 65 75 37 155 158 168 132 167 161 142 79 38 26 37 25 121 138 143 136 148 166 175 183 171 134 127 92 99 137 115 55 51 59 50 94 103 102 79 90 142 153 169 163 165 177 176 171 165 173 171 164 167 164 154 151 151 130 111 75 74 87 97 95 90 93 97 103 109 115 129 161 175 173 167 166 155 133 109 128 137 148 132 45 43 36 33 37 56 59 54 64 61 60 72 30 168 164 171 128 153 186 166 102 39 28 42 44 128 140 143 137 155 163 174 177 159 113 81 120 168 181 97 38 86 64 35 92 154 109 109 82 109 143 168 148 156 169 172 163 170 177 187 168 163 155 144 138 132 115 93 82 87 89 108 88 54 54 67 58 84 114 121 115 128 168 167 169 165 143 119 133 142 150 127 46 37 34 39 30 57 58 55 63 57 63 75 45 176 155 167 130 152 183 178 123 42 30 26 65 135 140 138 147 161 168 173 164 138 104 108 155 189 190 85 68 51 78 42 68 159 140 101 88 97 137 157 135 142 162 162 165 167 175 195 179 158 148 132 122 136 108 87 90 89 125 153 91 29 95 45 31 68 124 92 114 110 124 169 164 164 154 131 137 145 155 115 41 41 33 41 35 49 62 77 96 74 56 72 45 179 144 165 121 161 168 181 160 68 29 20 89 138 141 142 147 165 163 166 151 124 117 106 110 180 210 108 161 68 51 48 115 157 144 105 127 91 126 132 126 132 152 161 155 163 172 195 186 162 146 124 122 126 92 102 98 103 139 158 82 34 100 64 38 66 175 159 79 106 103 155 162 163 156 141 139 143 157 103 38 37 29 36 38 62 115 148 162 166 82 65 60 173 132 161 119 171 171 154 172 88 33 22 110 139 139 141 149 164 163 158 150 132 119 118 109 118 154 158 116 75 72 83 127 131 113 90 115 99 99 125 117 135 150 156 163 161 172 195 188 167 142 121 117 125 117 102 90 92 115 156 92 65 63 61 138 121 186 192 138 71 99 144 163 161 156 146 142 143 156 100 26 50 34 38 66 102 140 153 149 138 167 63 67 179 126 154 125 165 167 147 167 95 24 40 121 137 142 141 155 160 159 155 156 144 133 132 137 129 121 132 122 113 129 133 125 128 120 112 113 124 121 115 119 137 147 153 160 163 170 193 188 175 146 134 111 124 128 105 104 109 107 113 128 87 71 60 126 187 186 158 117 110 86 130 161 163 162 149 146 145 158 92 31 43 42 59 102 110 129 128 146 121 180 72 62 180 133 146 131 158 168 172 167 79 19 65 132 140 143 142 152 159 150 153 154 157 157 152 157 157 158 157 139 134 134 134 134 127 127 120 125 125 122 128 136 137 147 154 162 163 183 195 178 172 160 137 120 121 130 121 113 116 119 117 131 130 112 102 123 144 129 121 112 110 116 122 147 165 162 153 149 150 156 85 38 35 49 111 120 139 124 119 160 127 169 71 40 174 139 141 148 174 185 207 162 51 20 87 140 139 139 143 152 153 155 152 160 160 161 165 170 172 177 181 170 158 150 143 144 142 140 141 142 131 135 136 140 144 158 151 165 168 179 189 180 162 169 145 137 123 129 139 142 127 131 136 138 137 130 133 132 144 146 139 131 128 129 139 148 164 167 159 149 151 158 93 36 28 78 144 151 156 129 126 160 142 153 71 37 143 149 127 163 171 182 182 121 46 25 99 141 138 141 149 161 154 153 156 165 164 168 171 168 170 173 173 173 166 157 155 154 161 161 156 152 142 140 142 145 150 159 154 166 170 186 190 176 159 165 162 143 137 131 141 149 158 147 142 144 154 152 158 168 165 172 157 156 146 149 154 155 166 168 159 152 151 155 106 30 27 98 152 142 163 134 134 158 136 138 66 53 98 169 120 168 165 163 169 120 47 28 106 139 142 141 156 157 155 151 157 163 164 165 172 173 170 176 165 167 166 162 165 167 165 169 159 154 149 146 145 150 156 158 159 161 174 185 189 176 165 159 173 151 148 132 144 150 158 162 150 146 153 154 163 173 172 173 164 164 154 153 158 165 166 164 159 153 151 157 114 31 35 106 128 140 166 130 151 138 151 124 69 66 34 175 130 172 156 149 153 123 57 26 108 142 146 143 152 157 152 152 157 158 161 166 165 172 167 173 167 169 169 168 167 163 164 167 163 156 151 150 151 156 158 154 160 157 172 188 189 179 165 161 172 162 145 143 142 154 154 161 158 158 154 154 158 165 164 166 164 161 157 159 156 166 165 163 156 148 154 156 116 37 38 101 122 155 171 122 155 130 165 98 63 73 33 124 142 178 148 128 120 124 87 25 110 141 148 140 153 152 154 155 162 158 160 163 158 165 174 170 176 178 175 175 168 164 170 165 162 155 151 150 158 159 154 150 158 160 174 185 194 178 167 161 165 167 146 146 148 161 159 154 161 168 160 158 161 165 165 167 165 159 158 163 166 167 164 160 158 149 153 156 116 41 28 112 153 165 168 130 144 132 161 74 66 65 63 42 151 176 149 118 104 127 113 33 105 143 147 144 154 154 161 159 165 163 162 161 164 159 168 170 176 177 178 172 173 169 166 159 160 156 151 155 161 160 149 155 158 165 177 184 202 185 167 159 163 165 152 146 153 160 171 160 166 166 170 166 165 172 170 168 160 163 166 170 169 168 164 159 156 152 152 156 105 49 28 102 174 177 173 139 124 149 112 59 65 66 64 46 94 173 154 116 105 111 162 34 101 142 145 147 150 153 163 162 171 169 162 161 167 160 169 171 177 166 175 176 173 168 165 162 162 151 158 162 159 155 148 159 151 167 176 173 190 203 171 161 157 166 157 150 148 158 163 169 166 168 170 175 169 171 171 163 166 167 175 175 177 172 164 163 157 152 154 151 95 44 35 111 149 169 172 143 104 162 79 57 65 68 62 58 46 166 153 119 114 93 161 88 89 143 150 147 154 153 167 167 175 174 173 167 172 167 170 172 169 177 170 172 165 162 160 162 159 156 158 165 156 154 150 158 153 177 177 183 176 204 188 170 156 166 162 149 152 150 157 166 170 168 168 171 172 170 169 163 167 175 174 172 176 171 167 165 151 152 150 149 79 56 57 94 142 160 170 132 118 161 60 66 74 63 67 71 25 146 166 134 135 122 101 143 86 132 152 153 153 157 165 174 174 176 177 176 179 182 177 171 165 169 165 164 159 159 156 163 158 166 161 162 150 149 151 156 160 184 187 183 178 193 190 173 162 158 162 155 148 156 156 162 165 168 172 166 168 172 172 168 171 174 179 172 174 170 169 161 152 150 146 141 55 73 78 86 135 151 169 124 144 128 57 57 66 64 65 57 43 99 172 167 173 155 78 191 92 137 150 158 152 167 167 172 176 183 182 182 180 181 172 175 171 171 162 164 156 158 163 163 161 170 163 150 149 153 155 163 164 192 188 178 181 179 181 169 167 159 161 157 154 156 158 157 158 163 168 168 173 168 168 174 175 171 174 176 171 173 168 159 153 150 151 119 31 110 82 86 122 146 165 141 134 67 53 58 65 69 64 66 37 91 138 163 187 180 145 194 103 131 149 154 165 167 174 172 174 178 186 182 183 182 181 177 168 172 167 162 162 162 160 166 167 175 155 144 154 157 170 158 163 184 183 174 178 182 171 175 173 160 159 158 159 157 162 156 157 159 163 165 166 168 169 175 170 173 170 180 173 170 163 161 147 147 149 89 37 140 67 86 104 139 167 141 73 60 56 63 70 62 62 65 45 77 139 154 171 182 185 190 123 117 150 153 164 170 173 174 180 183 184 186 185 183 179 179 166 166 165 159 165 162 164 165 175 162 146 152 160 171 172 163 172 191 181 176 173 175 177 172 178 159 157 166 158 157 163 161 160 161 162 164 167 164 169 171 175 178 177 181 171 170 164 160 152 148 143 47 96 120 64 82 115 148 172 101 55 51 59 54 74 62 67 69 38 89 157 157 166 173 174 165 130 106 143 156 160 173 175 175 182 186 186 187 181 177 179 177 170 164 167 164 168 163 162 171 175 155 149 161 172 178 181 175 188 201 193 182 183 174 180 174 176 162 155 169 166 163 156 157 164 157 163 169 167 167 171 172 174 179 178 183 174 170 167 160 148 148 118 78 145 94 95 99 132 166 154 58 50 63 57 52 68 65 67 68 49 102 168 166 163 160 156 152 151 97 140 157 160 173 174 171 178 183 192 193 182 186 182 176 176 164 167 165 163 162 166 176 162 156 166 182 172 181 176 184 183 186 191 184 180 183 187 179 168 162 159 168 173 167 161 163 165 162 158 170 168 166 172 173 172 177 181 177 176 173 168 155 147 145 95 139 146 123 166 144 161 178 110 48 56 57 60 52 71 68 64 68 52 62 178 174 171 162 145 149 163 90 133 152 164 172 183 174 180 183 187 189 185 184 179 174 172 168 164 165 162 165 167 177 162 175 195 193 159 163 176 204 187 183 182 185 184 200 204 155 168 175 166 158 178 168 166 167 164 172 169 170 170 168 171 173 170 171 179 177 178 169 163 153 148 129 83 164 167 168 189 177 161 151 62 51 57 61 57 55 70 65 63 65 63 36 112 181 184 180 166 167 181 92 126 146 164 173 181 176 175 180 187 182 185 184 181 175 169 170 163 166 163 169 169 171 169 188 190 132 62 58 159 204 200 192 188 188 192 201 168 59 137 196 177 150 171 171 166 166 167 178 174 172 171 174 174 175 177 166 181 180 174 169 158 148 147 112 104 156 180 180 174 179 148 111 54 57 59 60 60 58 67 68 61 60 65 57 43 91 149 183 197 194 202 114 110 141 157 169 178 177 178 180 186 185 181 182 180 177 173 165 164 164 169 171 172 169 156 188 163 125 100 80 127 174 205 197 189 192 195 164 118 72 118 190 168 150 172 171 170 170 174 177 180 178 173 179 176 174 180 176 182 176 177 168 156 149 140 102 122 160 170 175 172 165 175 96 45 57 59 59 56 57 62 68 63 66 63 64 56 49 51 76 125 139 137 136 106 127 151 162 175 178 184 180 184 183 179 178 175 168 172 166 165 165 162 169 168 167 149 156 169 157 149 136 176 166 189 194 177 179 160 130 126 134 131 151 150 164 174 176 171 173 173 178 176 181 176 177 175 176 182 180 175 178 176 169 158 142 129 91 139 173 170 169 175 168 184 111 50 54 56 61 60 57 66 64 68 61 64 66 59 57 56 53 52 63 40 102 94 127 138 160 173 172 184 188 183 179 181 176 174 169 171 170 166 163 167 164 168 163 152 143 150 160 160 160 178 186 172 173 162 156 141 122 131 131 128 150 163 167 176 178 172 170 175 177 179 178 184 176 177 181 182 177 173 172 171 162 153 139 110 94 156 175 177 167 173 173 184 119 43 57 54 66 55 55 68 62 69 66 61 61 61 59 53 61 52 57 54 51 104 128 131 151 162 172 180 187 181 177 183 175 172 166 170 166 159 164 167 164 166 162 151 145 138 131 153 160 139 157 157 170 160 147 127 119 91 123 133 156 166 170 179 179 178 177 181 175 184 181 181 178 178 181 182 178 174 173 166 156 153 134 102 103 168 182 179 178 175 177 162 81 49 59 59 59 56 59 67 65 63 67 60 63 59 56 56 58 56 54 58 44 88 119 132 146 153 164 181 182 180 180 181 177 171 167 167 163 164 166 168 161 160 162 142 132 120 116 127 153 113 139 143 149 158 129 123 117 81 107 123 153 159 171 182 176 179 180 180 173 181 185 183 180 181 181 181 182 171 168 159 152 140 126 101 121 173 184 182 179 169 141 92 57 56 56 61 55 62 59 65 58 64 64 60 64 61 59 56 52 55 52 58 40 81 123 135 153 154 155 175 182 177 179 182 174 172 174 167 166 169 171 165 156 158 158 135 117 99 107 109 134 114 129 124 133 121 135 115 118 89 99 112 130 134 151 174 171 172 175 181 179 174 180 183 183 181 182 180 181 175 171 159 150 135 113 116 75 77 111 125 119 88 68 55 53 55 57 58 58 56 56 64 66 62 61 62 64 62 57 52 53 57 53 56 51 49 120 136 148 151 150 166 177 178 177 179 175 173 168 168 164 165 163 155 146 147 141 128 117 97 107 116 121 128 125 101 120 81 129 113 116 101 95 115 113 123 133 149 151 150 156 174 183 173 177 183 187 183 183 182 179 175 163 158 137 137 120 103 58 50 52 59 59 58 56 57 55 54 58 58 57 59 65 63 68 63 67 65 60 68 57 55 54 56 59 55 53 46 111 135 138 144 144 160 172 172 172 174 177 171 166 165 152 150 142 146 133 132 125 129 123 97 115 112 127 135 128 95 112 95 122 129 126 127 133 129 121 113 124 130 129 133 135 158 183 171 174 183 182 180 184 172 175 175 161 152 138 131 127 73 49 50 54 52 52 56 54 57 55 55 61 54 58 58 63 65 69 67 62 64 64 62 57 64 57 58 58 57 56 35 110 130 137 145 150 160 164 171 168 169 169 169 160 170 147 140 122 132 116 134 132 138 132 126 134 144 156 155 134 126 119 119 134 151 146 152 163 164 139 137 128 115 121 135 124 130 156 177 176 179 176 176 174 177 171 167 165 143 131 128 124 62 53 51 52 52 53 54 54 57 56 56 54 56 61 62 64 63 68 66 72 61 64 63 62 62 55 61 59 56 56 39 91 134 146 145 144 158 162 166 158 174 168 160 161 165 127 130 130 127 137 143 140 150 155 164 173 169 174 167 162 153 166 149 145 148 150 158 155 162 172 161 150 139 139 130 129 112 144 162 170 169 179 172 175 171 164 162 139 143 143 129 108 50 51 52 52 53 50 56 49 57 50 58 52 54 62 56 65 65 65 72 63 67 67 67 68 61 55 55 57 57 55 45 70 135 147 143 141 149 166 160 166 169 165 160 162 163 147 146 140 150 170 157 155 174 182 183 175 178 164 161 159 155 165 156 149 153 164 163 154 158 166 177 167 167 168 153 126 127 133 156 175 162 167 168 174 160 163 157 138 138 148 132 96 47 46 58 50 51 47 50 54 54 54 55 52 62 55 60 68 67 65 63 71 64 66 62 66 64 58 60 58 54 57 47 62 126 145 147 151 146 169 154 161 166 169 156 165 164 157 155 160 177 188 185 177 178 179 169 176 175 175 171 163 160 157 151 155 161 158 147 151 155 151 149 169 175 181 169 148 144 143 162 173 163 167 176 166 159 153 149 139 145 138 128 80 46 49 51 51 48 50 46 47 56 54 58 52 56 64 58 70 64 66 62 65 69 65 65 66 60 64 59 59 57 56 43 73 114 139 146 159 146 161 156 156 155 169 160 169 159 166 174 170 186 173 181 168 152 161 157 145 110 138 138 147 144 138 132 122 101 80 61 65 97 117 117 118 133 140 160 166 156 153 174 164 163 159 166 157 151 147 152 146 137 141 127 71 41 52 49 48 53 50 45 54 53 50 59 54 57 58 65 63 65 63 68 63 70 65 66 67 66 57 68 59 61 62 44 86 101 142 148 161 147 162 159 159 151 159 165 170 160 166 162 160 153 131 129 126 124 124 114 82 70 69 78 77 82 79 83 82 87 77 81 84 86 99 97 97 95 109 140 150 158 161 165 168 163 164 163 157 150 146 143 143 149 136 127 61 49 47 48 48 50 49 49 55 48 56 56 54 55 53 71 60 64 68 65 68 64 70 66 64 66 64 65 62 65 59 44 92 102 132 141 150 150 161 162 156 144 164 170 170 172 169 157 153 129 123 107 102 108 119 115 110 101 101 99 94 95 93 96 96 101 103 106 116 108 112 115 117 121 134 141 146 142 159 171 157 166 156 161 159 153 145 147 138 144 138 111 58 46 49 47 51 48 50 48 52 51 55 53 54 57 60 63 70 68 66 73 66 71 64 71 65 64 67 64 62 59 62 39 96 111 119 130 151 144 160 156 155 140 155 166 171 178 176 160 160 144 152 145 131 121 124 125 123 121 117 117 103 108 107 113 109 117 122 125 127 126 127 138 144 153 162 161 144 143 155 160 175 167 150 151 159 153 142 141 142 138 125 109 53 46 48 47 48 49 48 53 50 57 51 54 62 56 62 67 65 64 69 70 66 68 69 64 66 63 66 64 60 62 60 42 95 135 108 136 151 144 147 158 164 146 151 168 163 185 176 163 163 155 170 176 165 149 141 142 142 142 138 144 134 131 128 130 139 138 139 133 138 147 146 157 161 163 168 168 160 160 148 167 168 181 154 158 153 147 141 136 148 138 118 109 50 44 49 51 48 50 49 54 51 54 61 54 65 59 63 67 65 66 64 67 63 71 66 62 66 64 64 62 62 59 67 36 96 151 102 132 141 142 139 151 164 148 149 169 174 181 173 170 168 169 170 181 178 178 179 169 171 167 172 168 157 158 144 154 154 153 154 154 163 170 168 165 164 160 167 170 169 170 151 171 172 174 165 146 157 145 150 145 144 134 115 109 50 46 43 55 47 51 53 51 56 57 60 58 64 64 63 65 70 69 66 67 64 67 66 67 61 66 62 65 66 58 59 44 91 159 119 113 128 151 144 154 158 148 148 170 174 184 172 166 180 173 173 183 175 181 187 187 189 191 187 182 173 168 168 171 175 173 183 179 172 173 165 154 165 160 172 176 178 172 157 163 173 158 164 149 156 147 143 132 143 119 113 106 45 47 50 51 48 48 54 55 54 57 61 58 60 61 65 66 67 65 68 66 70 66 66 69 66 66 63 65 67 59 60 40 87 160 154 104 123 143 137 143 154 159 153 164 176 175 169 167 181 180 181 180 166 164 172 163 170 163 155 135 136 138 135 129 131 139 150 156 151 155 157 158 170 164 175 177 181 174 165 156 166 159 161 155 155 149 145 131 136 103 121 106 42 47 49 50 46 56 53 58 59 55 63 57 61 59 65 63 66 68 66 68 70 63 71 66 65 62 65 63 60 59 60 41 84 159 167 118 121 126 132 132 149 155 148 154 169 166 164 178 184 184 192 184 181 179 174 174 178 150 146 141 123 144 149 110 113 137 146 150 163 166 169 171 174 176 177 179 184 178 169 160 158 152 155 151 145 141 140 128 123 96 141 96 39 51 48 53 49 55 54 57 58 55 62 60 57 59 67 57 69 67 64 63 71 67 63 71 64 64 62 67 57 65 59 45 75 161 164 154 108 121 134 141 141 147 150 151 164 164 155 177 186 183 186 187 189 188 185 188 192 176 159 148 128 143 144 135 120 140 159 161 163 175 173 177 175 178 184 178 176 171 155 153 154 148 139 147 137 137 129 127 109 108 150 86 43 46 50 49 51 55 52 59 60 60 56 64 58 62 61 61 66 67 63 68 63 68 64 65 64 62 59 64 65 59 58 44 71 162 165 165 133 104 125 146 128 138 136 130 168 151 147 160 183 187 178 187 185 186 189 188 184 180 167 150 136 146 144 140 139 136 150 162 161 165 174 177 177 177 183 170 172 169 148 149 153 137 132 128 133 128 123 120 95 124 155 77 39 51 50 48 51 57 53 56 58 58 58 57 61 62 61 63 64 69 67 67 66 64 70 63 62 63 62 61 60 58 61 43 65 161 165 169 165 104 111 140 135 142 135 135 156 152 141 156 164 183 177 187 183 192 191 184 185 177 169 150 156 156 154 153 158 153 155 160 165 169 173 176 177 176 168 162 169 157 149 148 160 136 136 118 141 132 125 115 106 142 156 72 37 50 51 47 53 54 55 61 56 61 60 57 60 65 61 59 65 68 65 68 65 63 64 66 63 61 64 63 58 61 59 50 57 159 163 171 172 138 104 126 132 131 124 140 140 136 143 155 164 179 175 185 181 184 187 182 181 175 169 155 159 162 159 159 161 155 161 161 159 168 166 172 175 174 169 165 150 153 144 144 147 131 129 128 126 131 117 94 124 151 159 66 39 50 51 50 54 52 58 59 60 57 62 64 61 63 63 58 64 62 67 64 63 62 64 68 61 65 66 57 63 59 60 49 48 158 168 168 172 171 115 122 130 136 131 135 139 130 145 144 151 163 175 184 179 173 179 172 174 171 167 163 164 164 160 161 164 158 158 168 162 170 166 171 172 170 155 163 155 146 154 132 146 131 126 118 130 124 105 97 142 154 157 58 43 48 48 49 49 60 61 60 56 60 55 61 63 62 58 62 62 60 66 69 63 64 64 69 60 61 60 61 57 59 52 56 49 152 170 168 172 179 153 104 145 133 124 133 126 146 137 137 156 158 174 176 181 174 171 173 173 172 166 161 164 161 163 160 165 168 166 172 163 169 162 167 171 159 155 151 141 152 139 141 136 142 122 125 131 114 91 125 154 159 158 52 41 47 45 53 55 55 56 60 59 58 55 65 65 54 62 62 62 63 65 63 67 59 63 63 61 59 61 57 60 56 53 48 43 152 168 172 172 174 169 132 121 127 127 124 131 133 133 133 135 147 172 177 175 174 158 172 168 170 167 166 165 173 170 171 173 174 168 172 162 164 169 163 170 155 162 141 143 143 135 131 130 131 117 119 132 104 115 143 161 168 153 50 42 46 52 52 55 58 57 60 60 59 58 61 65 55 66 62 65 57 68 62 64 62 68 57 63 64 58 58 58 52 55 55 42 149 169 173 172 173 181 170 118 110 137 132 130 143 132 116 132 152 164 164 172 181 162 178 167 164 172 178 172 180 180 181 180 181 173 169 162 155 167 158 152 155 155 153 130 132 127 131 128 121 118 116 113 104 134 156 163 171 146 43 43 45 56 50 53 59 58 57 62 56 64 58 62 59 59 64 63 65 63 67 63 63 65 60 63 55 58 59 57 53 56 50 35 147 169 171 175 174 175 180 153 111 119 136 122 142 138 121 141 153 156 153 157 173 170 168 167 160 173 176 178 183 183 179 185 176 178 173 161 155 154 157 154 157 148 140 135 117 114 129 127 128 119 112 106 126 147 161 163 173 136 46 41 51 48 54 54 60 60 58 60 59 61 59 63 57 61 62 63 63 66 65 56 65 58 60 61 57 56 56 55 55 50 51 35 141 169 171 175 176 177 183 177 144 109 124 125 129 136 142 131 135 146 148 160 156 167 167 167 170 169 176 177 181 186 182 178 178 176 176 163 165 157 157 137 156 141 128 124 119 121 128 128 133 105 104 113 143 157 162 166 174 126 38 46 47 50 48 54 59 56 60 56 61 58 60 59 61 57 61 62 61 65 57 60 59 61 57 58 58 57 54 55 51 51 47 30 137 167 174 171 176 178 180 185 174 135 114 125 122 128 141 128 134 134 144 152 150 166 164 160 186 175 172 176 181 183 178 168 176 164 176 166 165 164 152 138 151 140 132 120 104 113 121 122 114 103 110 135 154 163 165 165 174 117 37 49 45 51 48 59 56 58 59 57 57 59 63 55 61 60 58 67 59 62 55 64 57 58 59 53 59 54 55 54 52 49 48 29 135 169 171 172 174 175 182 180 185 160 132 128 121 119 129 124 126 133 140 142 160 157 167 174 176 178 175 170 180 181 179 162 169 160 168 164 166 155 138 135 143 123 135 111 102 120 119 114 106 112 132 153 160 167 166 165 170 109 30 44 45 45 57 55 56 55 58 59 57 64 59 54 63 58 63 65 63 57 57 60 57 58 56 56 53 58 50 53 52 53 45 26 135 167 169 174 173 175 181 179 183 178 150 135 121 116 119 127 124 131 133 144 153 144 175 172 173 173 165 166 187 174 176 173 159 166 164 159 156 142 143 141 127 115 121 103 109 119 116 108 114 126 150 162 161 171 168 164 171 99 31 41 43 46 57 53 58 57 58 60 60 60 58 60 61 57 62 65 60 55 57 58 57 54 58 52 54 52 52 52 46 50 47 30 131 170 171 174 176 177 182 182 185 181 177 152 136 116 110 120 122 119 115 125 143 144 150 155 170 168 171 160 178 166 176 182 169 167 155 152 142 135 138 138 118 99 106 104 108 114 106 116 125 147 154 167 168 170 169 161 170 93 29 40 45 44 53 50 54 57 59 56 55 55 62 60 56 61 58 65 58 53 58 54 56 54 54 51 51 51 49 50 45 44 43 107 139 165 172 172 176 178 181 179 179 185 183 173 158 139 123 112 119 121 111 109 130 131 139 146 148 153 151 160 148 152 169 158 160 150 137 144 129 133 130 127 107 113 102 109 112 103 112 125 150 162 165 169 171 171 167 160 151 116 44 35 41 45 51 53 56 54 56 57 56 57 61 62 60 62 61 67 55 53 54 54 58 49 52 48 53 49 53 45 48 33 136 164 137 163 173 175 178 175 184 182 182 184 187 183 171 159 144 136 126 115 119 109 127 129 135 126 133 151 140 143 142 150 153 143 139 144 141 127 123 124 104 120 115 119 112 105 114 112 139 154 163 167 168 171 172 169 167 165 149 159 182 80 39 44 47 48 55 54 51 57 58 58 56 60 62 63 60 62 55 50 55 54 51 51 48 55 49 49 49 50 24 102 199 148 138 162 171 174 179 177 178 183 186 184 188 189 180 175 162 149 140 118 120 117 128 118 131 120 135 137 144 131 149 144 153 137 125 138 126 131 128 123 108 127 123 119 105 119 116 125 156 165 165 172 170 172 170 168 165 160 156 101 180 208 108 41 44 49 52 53 52 55 54 58 54 58 59 59 62 64 54 53 52 53 52 49 51 48 49 45 50 42 35 186 209 130 137 163 171 174 177 177 177 174 183 187 185 188 185 184 183 166 160 145 138 118 115 123 126 133 134 142 142 137 154 141 149 162 143 140 136 124 132 124 123 121 118 116 121 125 142 154 163 167 170 173 174 172 170 170 162 158 154 119 116 167 217 123 49 40 51 50 53 52 51 59 57 52 58 57 64 56 54 51 54 52 50 48 49 50 49 47 47 25 119 212 213 115 141 164 170 175 178 180 176 175 177 186 189 186 186 186 185 179 157 169 162 148 140 130 127 122 123 129 132 133 145 141 127 152 139 139 130 129 135 123 121 130 129 141 143 148 154 167 168 171 172 176 171 175 170 170 162 160 159 114 127 124 180 219 114 50 43 47 51 50 49 52 53 54 54 57 57 57 54 53 50 49 51 46 49 46 47 47 41 45 205 216 209 124 124 166 174 173 177 180 179 177 178 181 187 188 189 188 184 180 176 156 173 168 162 159 150 155 134 130 120 127 135 133 124 130 132 141 132 136 139 138 124 150 147 155 159 152 166 167 171 173 175 174 170 174 170 168 165 156 159 122 70 141 129 210 223 88 51 46 50 50 52 52 50 52 50 56 54 61 54 52 46 49 44 48 47 47 43 51 16 127 221 217 207 161 84 162 173 175 178 178 180 180 183 179 184 187 186 188 186 186 184 170 171 177 174 177 162 170 177 164 167 149 162 148 132 146 137 170 141 149 166 149 145 152 157 158 161 164 169 172 172 171 173 173 171 169 166 167 164 159 153 117 97 83 143 161 219 206 69 46 52 53 49 53 50 53 52 49 55 54 