P2
92
112
255
61 62 64 62 65 63 64 58 55 58 45 50 37 35 39 42 45 33 38 26 42 42 40 31 40 31 35 35 31 33 26 47 31 41 42 48 48 25 39 36 48 39 38 37 37 37 40 46 42 43 47 41 50 40 35 36 33 31 33 36 35 33 29 39 40 47 44 53 53 49 47 48 42 41 40 42 39 52 40 46 50 39 51 47 45 40 55 59 64 59 66 63 59 63 61 64 66 64 60 61 55 49 36 36 35 48 42 48 44 49 45 32 29 39 34 37 33 39 28 39 40 33 35 40 44 33 49 36 44 34 36 40 47 38 37 45 46 35 46 42 48 48 49 41 47 40 41 35 41 34 33 35 35 33 39 40 35 39 37 38 42 40 43 38 31 35 36 41 44 46 43 52 47 45 39 45 43 50 29 52 64 66 67 64 60 63 63 62 66 65 62 59 47 40 34 38 37 40 40 40 41 32 45 40 35 30 32 29 33 33 36 31 47 45 46 58 46 42 45 40 52 37 41 42 45 39 37 46 56 47 52 39 62 51 48 42 53 43 54 43 47 39 43 41 40 38 43 36 46 38 35 34 39 35 37 39 34 39 34 37 42 41 34 49 45 38 47 49 41 37 42 41 52 64 61 69 56 63 64 65 58 68 64 57 53 40 38 34 42 41 38 33 36 30 33 29 45 34 41 32 38 40 43 54 61 62 59 50 61 53 51 52 55 42 51 45 44 51 43 51 57 56 51 47 68 52 56 54 62 52 62 51 51 55 41 43 42 42 41 37 42 39 41 44 37 39 43 35 40 33 35 33 31 35 41 40 43 44 42 55 54 40 44 39 43 61 65 61 60 62 63 63 60 65 56 50 47 40 31 39 41 40 39 30 31 34 30 23 28 44 34 38 43 52 55 77 77 75 81 70 69 69 66 60 57 62 54 52 60 49 58 61 65 70 58 64 80 62 74 66 68 66 65 73 70 67 58 55 61 53 49 49 50 53 48 54 39 59 43 38 29 30 31 27 31 26 43 39 36 43 36 42 38 43 36 40 36 55 59 61 62 65 64 67 67 63 51 48 42 34 33 46 44 43 38 39 26 38 33 26 30 29 32 43 63 78 82 84 94 97 93 88 100 95 91 77 69 65 63 62 69 73 63 80 82 76 79 86 81 74 85 78 75 88 77 103 81 86 81 67 80 61 60 76 78 65 75 69 51 64 62 46 36 35 36 28 28 26 37 35 37 32 41 40 42 52 45 39 44 35 56 58 65 62 67 64 60 63 48 42 38 30 40 41 40 31 35 28 26 30 24 31 32 36 49 66 83 94 100 99 103 104 106 105 110 104 105 105 88 88 75 81 88 92 94 87 100 88 100 97 84 98 90 87 88 92 96 114 96 99 101 85 85 73 77 93 83 80 95 73 76 83 74 75 54 43 32 34 26 29 40 34 47 36 41 37 40 43 47 51 41 40 42 66 64 57 62 70 56 64 47 39 43 39 33 39 33 34 31 37 31 28 29 26 33 35 75 96 101 107 110 108 106 112 115 119 106 110 103 110 113 105 100 102 88 105 112 106 115 100 103 100 90 112 96 97 104 86 112 126 122 93 112 96 96 93 99 106 103 97 95 96 107 100 105 95 84 77 50 36 31 31 30 38 41 40 40 44 38 44 44 51 42 37 31 62 63 63 66 68 63 68 42 38 39 32 34 35 37 41 35 31 26 30 30 27 45 74 95 99 106 110 114 109 112 120 123 118 121 118 114 116 125 128 116 122 113 105 123 114 123 114 107 113 107 124 110 115 114 111 115 121 128 113 116 109 111 115 115 123 105 105 105 104 105 105 112 115 104 99 84 54 41 32 33 30 34 40 43 39 43 41 54 47 51 37 34 42 65 71 64 66 65 55 43 33 36 37 40 34 28 44 29 28 28 32 25 42 78 90 103 107 111 118 116 118 121 125 124 126 127 132 130 128 133 136 135 133 123 128 131 130 131 126 123 123 120 121 124 126 132 139 138 128 123 133 123 123 130 128 125 116 118 125 119 105 105 103 111 114 116 104 112 85 60 33 35 29 35 38 40 40 49 45 47 45 49 41 38 35 63 68 64 61 68 34 52 36 35 36 37 32 27 47 39 26 39 28 40 77 95 99 109 111 121 120 120 121 126 127 125 127 132 130 129 135 137 137 142 138 132 136 138 137 142 138 136 143 136 131 133 136 146 142 152 139 124 139 146 146 149 145 155 147 146 140 133 126 124 120 111 115 117 109 114 109 84 48 35 30 28 36 36 50 58 55 47 55 54 41 42 44 62 67 61 67 65 33 52 35 37 39 38 37 37 41 36 38 34 37 75 101 104 103 113 119 125 121 124 126 128 132 127 129 133 133 134 138 139 138 140 140 138 141 140 147 146 146 148 148 145 143 141 150 145 145 152 152 141 146 164 163 177 175 171 161 182 162 155 140 138 137 122 121 120 115 118 117 112 81 45 31 30 31 30 42 56 60 48 56 52 45 29 35 62 67 61 70 57 32 54 45 37 37 32 35 40 39 39 35 38 69 97 108 107 118 118 123 125 119 127 129 126 133 131 131 135 140 138 139 134 139 143 142 145 142 143 153 148 146 156 152 155 148 149 152 152 152 152 163 153 152 171 186 183 192 186 167 175 175 157 160 153 144 137 133 132 126 123 117 121 110 68 35 29 33 28 38 36 44 53 47 55 48 36 37 64 65 62 71 51 34 43 43 33 32 40 39 50 38 35 34 60 100 110 111 113 119 123 124 128 125 129 129 129 132 133 134 136 142 135 134 135 144 145 148 146 147 152 155 159 163 163 163 155 159 159 159 161 161 161 168 161 162 176 188 199 208 209 185 193 185 176 166 164 149 145 138 137 145 128 120 122 122 109 52 30 36 31 44 46 40 48 51 53 47 44 28 63 66 66 69 34 40 34 45 39 29 39 40 43 38 31 48 90 112 112 115 117 120 123 129 127 127 130 130 132 131 135 136 134 137 134 136 139 145 150 149 152 154 151 158 166 172 169 166 160 164 167 165 169 168 166 165 169 177 175 191 203 202 209 195 193 198 177 176 167 150 148 143 139 145 138 132 126 123 126 88 43 32 30 33 45 43 47 42 51 49 44 43 64 66 65 71 30 29 33 48 41 36 36 39 44 31 39 75 103 115 114 118 120 123 126 128 131 129 131 128 132 132 132 137 132 135 139 143 149 147 153 154 153 158 158 159 169 174 166 169 173 173 179 173 175 172 165 171 172 184 198 190 204 184 198 197 194 195 186 168 164 146 147 142 143 141 140 145 130 127 133 121 66 33 39 34 44 51 49 41 44 42 41 45 65 63 62 72 30 30 24 44 47 42 33 40 36 36 50 92 115 114 116 124 123 126 128 132 130 129 129 131 133 135 132 135 136 139 144 147 152 153 152 158 154 164 166 166 162 176 179 183 185 192 181 179 181 171 169 171 176 178 184 190 197 182 190 188 191 182 184 162 163 152 147 144 147 145 142 148 143 130 131 138 100 53 37 36 43 58 67 49 36 38 42 37 64 64 62 73 37 30 22 37 50 36 35 42 39 43 68 104 117 120 122 127 123 125 135 134 134 130 134 133 135 136 136 138 140 141 146 146 155 157 157 159 156 165 167 166 163 175 178 184 192 192 186 187 181 176 176 172 174 174 178 181 187 187 186 193 176 174 168 166 161 156 150 151 145 146 147 148 148 141 129 137 128 78 49 38 35 40 72 45 43 36 45 33 64 65 64 71 27 31 29 38 43 31 38 39 42 50 85 115 121 127 125 123 128 131 135 135 133 133 138 137 141 135 143 136 139 148 142 145 152 161 157 164 164 169 173 165 165 176 175 180 188 189 188 191 180 175 176 175 176 175 173 174 173 185 176 184 175 173 159 156 153 157 152 152 152 145 147 148 146 144 135 131 139 106 53 48 51 37 51 52 40 49 44 34 63 62 71 55 29 29 34 48 43 30 38 41 44 69 103 117 119 133 128 128 134 129 136 135 133 135 137 138 140 138 141 142 142 147 147 149 155 160 158 164 174 165 171 171 164 173 179 166 172 183 176 177 173 176 180 180 176 179 172 175 171 180 180 174 175 168 165 156 152 154 154 149 153 146 150 145 148 148 141 135 138 126 73 51 47 52 50 50 42 37 42 37 64 67 68 57 25 29 38 48 50 31 36 36 53 86 109 120 127 131 130 134 134 136 137 138 136 138 139 140 139 140 144 145 147 146 153 155 155 161 161 169 171 171 170 170 164 166 175 171 173 170 177 175 179 174 175 171 174 177 182 179 184 175 173 170 177 166 159 159 153 151 154 151 154 152 152 152 146 146 142 142 134 138 95 54 55 44 46 45 42 41 40 40 61 64 66 65 28 31 24 49 47 40 39 30 68 88 113 125 134 132 134 136 140 139 140 139 137 141 139 141 145 147 149 149 152 148 158 157 162 163 167 171 170 172 173 174 172 172 176 176 175 175 173 173 174 175 176 171 173 173 177 179 177 182 176 173 175 167 162 159 153 157 161 151 151 153 150 152 149 144 144 142 133 140 115 64 59 45 39 35 51 34 45 43 64 66 68 63 41 25 29 57 47 48 33 41 73 92 119 135 136 135 136 138 142 139 146 141 142 143 143 149 149 149 152 154 157 155 161 159 167 164 167 172 171 171 176 176 176 172 179 176 175 180 174 173 175 173 174 173 175 173 171 177 171 177 173 172 172 166 165 159 155 157 158 156 152 152 151 154 151 144 144 147 133 139 128 83 63 40 43 40 43 40 41 42 66 62 69 65 54 24 32 34 52 42 37 43 78 104 129 134 139 139 136 142 139 147 144 144 144 152 148 150 152 156 154 155 158 159 164 158 167 164 171 172 175 168 177 172 175 169 175 174 175 178 180 175 178 175 172 175 175 174 172 175 169 175 166 170 173 165 164 162 153 159 161 156 163 156 157 150 152 148 147 144 142 137 128 93 61 42 43 53 39 47 33 41 63 64 67 62 53 31 34 28 47 38 36 53 79 110 132 132 141 137 135 149 145 147 145 143 146 153 151 148 158 161 155 159 162 162 163 165 167 161 170 174 179 173 177 176 180 172 174 180 176 178 180 176 175 180 172 176 175 172 176 176 170 167 172 169 169 161 159 163 157 159 160 157 159 156 155 153 152 152 145 144 142 138 130 100 60 49 40 56 37 41 29 34 64 65 67 60 56 31 23 36 56 45 40 47 76 121 127 135 139 140 142 147 148 145 151 150 154 153 154 158 162 162 162 164 164 167 167 167 169 164 177 176 181 179 176 182 178 175 180 180 182 184 181 180 177 182 174 180 182 177 174 174 171 171 173 169 169 164 162 162 160 161 162 161 163 161 157 159 149 150 148 146 142 142 130 107 67 44 47 47 43 35 27 32 61 67 64 61 61 31 31 30 57 49 38 49 95 111 129 137 142 141 145 148 154 148 149 154 159 160 158 165 163 164 166 172 166 170 173 174 173 170 176 179 177 184 178 183 179 181 177 183 181 185 183 190 181 186 179 181 182 179 172 174 167 171 172 168 168 165 167 167 162 165 162 163 161 163 157 156 156 152 145 145 142 143 131 106 70 39 44 51 38 36 41 27 65 67 64 66 63 36 28 44 46 50 44 55 87 111 135 137 141 140 145 147 152 149 148 157 162 158 160 164 168 167 170 171 171 175 175 178 177 172 179 181 180 185 186 179 184 182 180 184 178 183 183 187 181 181 185 185 189 179 176 175 173 171 170 175 164 166 168 169 163 168 162 164 165 163 160 159 156 153 144 149 144 142 128 101 73 46 38 56 35 34 37 31 70 63 61 64 65 44 26 33 40 48 43 56 98 118 140 138 143 138 143 153 154 155 156 160 162 162 160 167 166 169 170 170 173 174 174 180 182 176 181 184 181 181 185 184 182 186 181 186 183 179 185 188 183 179 185 186 181 182 176 177 174 171 169 175 164 164 166 171 165 165 169 164 166 171 158 164 157 155 150 147 145 141 127 101 67 44 40 55 38 28 35 29 65 67 64 66 57 43 31 37 31 51 42 79 109 134 143 138 144 140 144 158 158 162 160 159 165 167 163 167 164 167 167 168 170 171 172 180 179 177 181 183 178 180 182 187 184 185 180 183 185 180 185 185 185 183 187 188 185 184 182 177 173 172 168 175 164 166 169 172 166 166 166 166 167 169 164 160 154 152 149 143 146 140 120 98 70 37 52 50 38 31 27 39 66 71 67 62 67 59 33 40 44 34 32 84 121 142 140 141 139 136 151 155 160 164 160 162 166 166 164 166 164 163 170 166 171 171 174 175 175 178 178 182 176 182 183 184 184 181 182 182 185 183 186 186 185 180 183 192 182 181 177 175 173 172 176 174 169 170 169 169 169 163 168 162 169 164 169 162 150 152 152 143 146 143 110 99 60 44 51 46 34 29 22 49 69 62 71 65 65 59 42 31 49 46 34 85 128 139 141 143 141 143 156 154 157 164 163 169 168 169 164 167 164 167 165 167 166 171 174 174 167 173 175 181 183 183 180 184 183 181 182 185 187 182 186 186 188 184 184 183 183 174 176 168 171 170 173 170 172 168 169 163 165 166 166 163 167 164 169 160 157 148 154 143 145 140 120 87 57 50 50 39 33 22 29 52 64 70 65 64 62 57 33 33 37 58 36 82 132 141 143 143 145 153 153 157 159 163 169 167 167 167 163 167 166 166 165 163 172 170 171 175 173 174 176 178 176 185 188 185 189 182 179 185 185 187 185 184 186 178 183 184 181 176 174 174 170 173 169 172 169 167 169 166 164 167 162 170 164 161 166 159 155 145 154 146 143 144 123 80 55 50 47 37 39 23 38 62 68 66 69 64 70 48 35 29 43 48 41 68 133 145 144 141 145 155 157 157 162 161 169 166 162 170 168 169 164 164 165 167 169 166 174 170 175 176 174 181 184 188 190 185 189 182 178 185 185 192 184 184 183 184 184 180 184 172 173 173 166 171 172 173 175 169 169 168 166 161 160 162 168 159 164 157 153 153 153 144 142 141 128 75 60 40 51 27 37 27 51 57 71 68 69 62 70 59 33 34 42 48 38 61 132 142 144 141 151 155 155 160 158 157 164 166 167 167 171 168 166 164 166 167 169 168 162 166 173 176 175 180 179 187 182 184 184 183 183 183 178 185 185 182 186 189 183 184 174 177 170 168 171 169 170 174 174 172 168 167 162 167 165 167 170 163 163 157 154 150 149 142 143 140 125 80 48 51 39 29 32 43 60 57 66 67 69 68 67 61 38 35 45 32 44 39 132 139 145 144 149 149 157 155 163 165 163 163 167 169 170 172 171 171 169 169 169 165 168 173 177 174 177 184 181 188 181 183 182 183 187 181 183 187 185 185 182 179 179 183 179 174 168 172 171 169 171 173 172 171 166 169 165 169 167 167 166 161 164 154 155 148 149 143 144 137 128 77 38 58 31 30 29 55 61 60 69 67 68 63 67 63 29 38 33 47 45 28 124 141 144 140 148 156 153 150 161 157 159 163 161 166 168 172 166 174 173 176 172 168 172 171 176 175 180 184 187 181 188 184 187 186 182 184 184 180 184 179 182 184 184 184 184 177 174 170 176 177 170 172 172 173 170 170 166 167 167 167 163 162 163 151 150 154 143 145 147 140 124 72 47 41 40 33 37 60 67 57 75 69 58 67 63 73 26 33 46 37 57 23 114 143 145 136 148 150 147 146 147 157 153 156 163 159 164 165 170 174 177 173 177 174 178 173 180 179 180 182 186 181 191 188 192 186 184 186 184 183 182 183 185 185 186 183 186 178 172 172 177 175 176 170 176 172 169 173 169 168 165 167 163 159 159 156 152 151 146 146 141 139 123 55 45 42 43 26 50 65 62 61 72 65 67 64 70 67 42 20 49 31 55 22 107 143 140 141 146 147 148 144 148 146 151 147 147 156 153 160 167 170 166 171 172 177 173 174 178 174 182 190 187 188 184 186 184 186 188 184 187 181 183 186 180 177 190 181 179 174 175 176 179 174 173 171 175 172 172 176 173 165 161 162 159 157 153 153 154 150 150 143 143 139 114 40 47 34 33 35 61 59 57 59 60 79 102 94 77 68 47 21 37 37 44 27 91 142 131 137 145 138 141 144 144 142 130 122 135 136 139 147 161 156 160 160 169 174 178 177 175 180 182 185 192 192 191 175 189 188 187 188 185 184 184 186 185 178 193 182 177 176 177 180 179 172 171 169 173 172 168 174 170 157 162 163 157 152 155 150 152 150 149 145 137 138 102 44 36 35 34 52 61 55 57 52 44 154 151 139 114 77 60 27 37 36 46 24 88 137 139 134 142 132 132 138 134 113 105 104 121 119 124 131 141 151 157 159 160 164 168 172 178 177 183 191 192 189 191 181 185 185 190 185 180 191 187 189 191 187 185 181 174 170 180 178 171 174 166 168 167 166 164 166 166 155 159 159 156 152 152 151 151 149 148 143 136 137 80 39 36 39 34 57 57 60 61 51 43 173 151 156 144 125 76 41 41 31 40 39 75 140 140 135 136 121 113 103 90 81 76 96 108 105 112 118 123 133 137 148 151 152 159 167 174 174 180 183 189 192 189 190 191 191 192 193 182 190 188 189 182 185 181 174 171 170 170 169 163 158 160 160 162 155 158 156 154 158 157 158 146 156 153 150 153 150 143 141 137 128 66 28 37 40 28 61 62 62 55 57 52 180 163 147 154 143 114 80 45 29 40 25 77 139 143 134 128 103 80 83 86 76 76 86 88 95 90 87 100 101 108 105 121 135 140 162 174 177 177 178 182 186 186 188 184 190 190 190 181 186 186 182 180 178 180 167 163 159 157 155 154 149 140 145 152 152 143 153 141 146 154 153 147 145 147 148 149 146 138 146 140 103 61 32 32 36 37 56 60 60 59 56 71 175 162 155 134 180 151 122 41 31 38 29 81 139 142 122 99 89 97 95 99 101 99 101 88 84 80 83 84 88 88 80 79 90 110 134 149 171 174 178 186 185 179 184 182 179 186 179 176 175 181 171 174 170 163 157 148 142 134 136 139 143 128 127 139 135 122 122 128 117 142 158 151 143 140 142 144 139 136 143 142 82 58 29 39 51 41 63 62 58 62 57 78 173 155 160 114 182 180 152 55 24 44 23 90 137 150 122 99 95 107 115 116 120 112 117 108 97 84 97 90 90 98 94 65 72 75 89 121 155 171 174 180 177 182 182 180 175 181 175 177 180 174 161 165 162 149 134 122 107 98 94 99 99 93 96 103 102 93 90 97 97 99 144 156 145 136 136 139 140 140 146 132 62 40 30 41 41 49 62 55 61 57 60 82 170 147 156 120 171 190 172 55 36 36 16 98 142 146 120 101 135 126 128 138 151 145 147 140 124 123 137 131 133 137 120 100 83 89 79 89 126 153 178 179 180 183 178 179 173 182 172 182 178 169 160 157 144 129 110 92 76 64 62 64 66 68 72 79 78 81 83 80 89 91 87 133 136 139 127 133 137 145 140 117 51 39 30 39 32 50 60 58 65 63 57 98 173 133 161 127 197 170 167 83 30 33 22 114 140 140 132 110 139 151 162 166 172 169 167 169 165 159 152 162 158 162 159 147 138 132 110 105 104 133 172 176 184 181 176 177 179 171 177 178 182 169 159 141 131 121 93 91 83 71 66 70 79 69 68 67 77 85 95 89 87 96 85 92 111 97 137 129 136 143 144 99 44 36 34 34 32 54 62 95 123 125 77 93 176 128 159 129 192 159 162 112 25 38 36 124 140 139 139 136 155 175 180 182 184 179 174 179 170 169 160 153 148 151 156 158 166 171 166 151 129 140 168 187 191 185 181 175 169 175 174 179 180 178 155 143 127 131 120 110 114 112 116 115 125 115 111 94 97 94 95 88 105 106 106 88 106 87 102 131 134 147 146 80 50 27 32 40 32 63 116 143 169 151 161 61 181 133 154 134 176 179 156 130 35 21 50 130 141 141 137 144 164 181 181 181 167 144 130 134 122 120 115 109 107 101 104 118 139 167 171 173 169 161 171 188 189 186 178 176 165 168 176 177 187 182 162 141 139 146 144 146 141 140 143 146 150 141 144 136 131 135 127 125 120 111 114 109 108 101 85 125 138 145 148 69 33 34 40 31 65 104 132 149 155 114 183 38 170 138 138 160 183 192 194 134 36 22 72 137 141 138 139 154 163 176 181 169 132 125 106 108 115 93 78 73 90 88 87 86 80 107 156 163 173 171 168 182 192 187 176 173 172 168 174 181 186 178 155 152 153 153 145 132 122 110 111 119 129 134 149 153 156 164 156 165 149 143 132 122 117 102 92 126 139 146 142 47 49 25 43 45 95 110 144 130 140 127 177 39 140 152 132 174 186 182 187 114 33 21 94 141 143 141 146 164 162 173 177 157 122 94 93 136 165 89 40 57 64 36 77 112 105 82 93 148 165 168 163 176 188 186 179 175 169 168 173 180 181 165 153 155 148 129 103 78 81 85 90 89 88 95 105 118 131 144 160 172 182 164 157 155 140 126 109 128 146 152 134 34 49 32 44 75 108 123 125 116 150 131 174 53 89 169 133 178 168 172 173 99 24 38 114 139 140 142 148 168 167 170 161 138 90 101 164 189 188 72 55 81 98 39 63 149 109 114 85 108 149 166 158 165 181 181 176 169 172 167 169 175 170 157 150 144 129 99 79 80 88 101 96 69 64 67 75 71 105 115 121 131 159 173 168 167 160 137 122 136 144 156 127 28 44 24 79 135 129 139 126 123 155 119 167 69 36 159 147 174 150 155 159 65 31 50 124 142 140 143 154 167 167 163 150 123 115 106 164 192 204 90 101 46 60 46 84 164 139 107 101 98 142 160 146 153 176 177 169 168 170 161 165 171 161 148 137 136 115 99 94 90 97 133 118 43 64 69 47 26 92 108 105 125 106 149 171 167 161 149 136 139 141 156 120 36 41 25 115 149 141 160 127 146 140 139 141 67 45 105 161 177 137 145 117 55 27 70 140 142 147 144 155 166 164 164 151 134 120 108 112 189 209 148 158 62 60 64 140 169 140 139 125 97 135 150 134 142 169 170 165 165 167 160 160 165 156 139 123 149 108 103 115 104 119 164 119 55 47 120 38 27 126 165 104 79 119 115 166 162 161 152 144 144 146 155 113 40 34 35 140 133 146 169 124 160 128 158 112 68 68 35 158 178 131 119 98 58 32 78 141 140 146 145 156 162 157 159 162 145 126 122 110 127 178 207 174 115 118 137 148 147 114 116 109 99 106 139 130 133 166 167 161 164 171 163 156 157 148 133 127 140 110 100 95 98 124 164 147 55 58 51 112 111 156 198 176 95 74 123 157 162 161 157 150 147 148 153 122 36 34 48 130 136 170 173 127 150 132 160 64 67 71 31 125 177 131 106 95 65 26 87 144 139 142 146 154 154 156 156 160 158 149 139 142 126 118 136 140 130 136 136 120 132 114 110 119 129 131 127 127 134 159 160 158 164 178 181 162 151 146 130 123 137 129 111 106 96 107 131 164 113 76 71 75 173 207 201 162 121 84 102 146 161 164 161 154 150 152 155 127 31 46 28 147 170 179 172 130 128 153 111 54 67 67 49 77 177 138 105 96 71 40 95 143 141 146 153 164 156 159 151 162 163 164 163 159 156 160 147 129 133 129 132 125 123 120 121 131 141 137 126 122 139 155 162 157 167 185 189 172 150 142 134 123 133 123 114 106 107 110 108 126 155 137 143 167 193 183 156 124 107 115 116 142 155 169 163 161 150 150 152 131 41 45 35 128 167 180 177 127 110 176 66 50 66 66 63 59 175 147 107 91 90 48 82 145 144 144 157 163 151 156 155 168 166 169 174 178 174 181 181 160 156 141 145 137 132 135 139 143 143 134 131 134 141 154 162 164 164 184 186 181 157 142 138 125 130 130 130 117 117 120 112 122 121 124 120 122 136 129 130 124 121 132 137 151 154 168 167 160 153 150 150 132 49 43 40 114 157 171 178 116 125 168 49 57 69 66 66 28 160 170 130 114 98 57 78 145 145 149 156 159 160 155 159 163 164 171 177 176 179 185 188 176 170 159 156 151 150 147 146 149 142 134 135 145 145 155 157 162 170 177 184 179 164 148 140 134 129 134 137 139 133 130 135 134 136 135 130 137 144 160 148 147 144 153 154 158 161 167 165 155 152 149 151 133 45 47 51 100 145 160 176 112 154 115 44 58 66 68 64 33 116 172 159 147 98 91 61 145 147 144 153 158 156 154 162 157 163 169 176 178 185 187 185 184 176 165 159 160 157 153 151 153 142 139 147 149 154 155 157 165 171 182 183 172 172 152 143 145 133 139 136 142 148 143 143 144 152 156 157 171 167 171 166 165 163 160 155 161 166 167 165 154 150 151 154 126 47 51 70 87 137 149 174 132 124 55 57 60 66 71 60 36 116 136 175 187 128 131 81 139 148 140 159 153 161 157 165 156 163 166 169 178 181 192 184 184 181 172 171 162 161 161 156 151 143 151 152 154 161 161 159 168 169 177 178 170 165 161 146 148 145 136 145 141 149 156 149 150 153 160 163 172 178 175 178 169 166 160 154 161 167 166 163 154 150 149 152 113 46 72 77 76 116 144 169 124 63 59 61 59 63 66 63 41 92 143 168 191 167 165 131 127 149 148 154 158 167 166 167 162 163 164 160 171 188 190 193 188 183 182 172 162 170 166 159 154 153 158 155 158 164 161 162 168 174 175 176 171 164 160 156 149 150 143 141 151 146 156 154 159 162 160 169 170 176 177 179 170 160 158 156 161 169 159 159 157 153 152 150 88 54 86 61 81 116 147 169 78 48 59 51 60 67 64 66 36 118 157 163 175 184 197 147 116 150 150 150 158 167 166 171 170 163 169 168 162 176 179 189 189 182 180 173 166 168 159 156 160 158 158 160 161 165 164 165 169 177 177 179 172 164 161 159 147 150 147 146 159 159 149 157 165 164 163 173 175 181 178 173 162 158 155 159 164 166 161 158 154 151 149 146 60 91 68 59 87 115 165 144 48 52 58 59 49 67 65 80 28 141 164 164 169 179 182 152 115 151 155 155 155 169 167 179 177 170 167 173 164 177 173 184 176 179 175 179 171 164 161 161 159 155 158 165 164 162 160 166 165 181 173 178 174 168 165 158 152 147 150 151 156 168 160 160 165 169 172 173 183 184 179 171 155 161 160 167 166 164 161 160 147 153 151 130 26 112 57 62 99 127 176 104 46 58 52 54 57 67 69 66 38 140 177 166 170 163 162 154 107 150 157 153 160 168 176 176 183 184 176 179 175 176 178 175 176 176 177 168 163 166 163 164 160 160 163 167 164 160 160 169 159 179 176 178 176 167 165 155 152 148 155 148 158 165 165 159 168 169 176 171 177 171 166 162 162 161 166 168 167 163 163 159 150 148 150 96 46 93 98 109 125 164 163 55 50 58 52 56 58 67 65 60 62 70 182 177 172 158 151 164 97 151 152 160 167 170 171 176 189 184 187 184 189 184 177 172 180 171 168 163 162 160 164 164 158 165 166 164 159 154 158 162 168 178 173 172 176 165 165 158 153 148 154 151 147 158 163 162 166 163 167 170 170 167 159 159 162 165 167 169 162 165 163 153 150 148 149 45 113 82 141 164 154 169 100 45 66 58 59 52 55 68 62 65 63 52 99 184 185 172 160 182 105 142 154 165 166 175 173 176 186 191 189 186 184 179 187 172 174 169 167 160 163 161 164 167 157 168 166 160 160 156 159 168 171 183 179 183 182 171 168 155 155 150 156 149 158 156 165 160 163 164 165 162 165 163 162 166 168 168 175 168 172 166 163 150 149 151 112 98 154 141 172 190 145 150 60 52 54 59 55 57 56 63 62 66 68 60 40 85 159 194 190 205 112 134 154 163 170 172 173 178 184 195 186 188 186 188 186 177 183 171 167 161 162 168 165 168 165 166 168 157 151 162 157 165 172 173 176 182 186 174 171 155 152 157 155 151 157 157 155 158 158 159 160 162 162 159 173 167 175 166 182 173 171 164 162 151 151 152 83 147 159 177 174 175 167 135 49 60 58 54 60 57 56 66 66 62 66 65 54 52 45 97 157 169 121 124 155 160 173 176 174 184 189 190 193 190 189 188 186 176 175 169 167 169 166 170 165 174 176 161 159 156 152 162 159 164 174 174 173 173 183 178 172 158 147 158 157 159 157 161 156 157 153 159 159 161 158 165 172 174 183 175 181 174 167 168 161 153 148 137 84 147 161 176 170 160 165 149 40 53 63 54 57 57 58 66 62 65 69 63 58 60 55 49 52 62 58 124 149 163 173 176 166 183 189 194 196 184 181 186 184 176 168 170 166 173 166 171 166 177 174 155 151 155 151 160 161 170 182 177 174 173 171 172 176 165 145 161 162 163 161 160 168 159 157 161 161 161 160 170 172 179 179 179 182 176 166 172 159 151 152 114 98 159 161 168 174 167 169 166 37 61 62 53 56 57 56 68 60 66 59 59 59 62 56 56 56 59 33 95 148 167 170 181 176 179 186 195 197 190 188 193 183 180 169 170 173 173 166 168 172 187 161 148 147 158 154 162 162 173 172 170 170 170 172 172 169 172 140 160 170 163 164 156 158 162 157 157 161 162 162 170 179 180 178 186 179 181 166 174 156 151 147 92 121 166 176 164 170 169 172 151 40 60 58 58 55 56 59 62 63 60 70 59 63 60 55 58 53 58 45 86 131 158 172 177 180 174 185 190 188 194 189 185 180 178 169 174 169 169 169 171 184 183 150 146 152 157 162 163 164 169 176 171 171 172 169 166 170 171 156 160 179 172 165 157 164 165 161 154 166 164 164 173 173 178 177 182 179 178 169 165 151 145 142 81 143 176 177 173 174 178 174 80 54 59 57 58 54 59 57 68 59 63 67 65 59 56 50 57 56 56 41 67 123 155 165 179 180 176 183 189 190 190 191 186 181 170 176 168 170 170 171 178 189 168 144 150 161 164 170 172 160 185 194 178 183 172 175 170 174 174 156 158 180 183 164 165 164 165 172 166 168 169 166 174 173 175 162 180 181 177 170 161 155 148 122 95 166 182 185 185 173 157 96 53 52 60 57 57 56 59 61 60 65 60 69 63 61 57 53 62 55 53 51 55 126 137 159 176 179 185 184 186 190 186 188 187 180 176 168 172 170 169 169 179 192 157 151 160 164 174 178 174 170 192 202 192 187 175 175 173 175 170 159 156 176 180 169 160 167 157 177 172 169 170 175 176 176 183 174 180 183 177 171 163 154 141 97 95 130 159 164 149 111 74 55 55 58 60 56 58 59 59 66 65 63 66 63 64 66 52 59 56 59 55 50 39 115 128 152 172 171 187 189 188 184 186 181 184 175 176 171 170 171 173 182 183 181 162 169 174 171 177 185 182 179 187 184 186 176 178 181 178 172 167 160 162 165 179 169 165 162 166 172 176 173 171 177 172 173 179 184 176 182 174 170 164 149 131 99 61 44 51 63 66 54 61 56 60 57 56 58 58 58 57 65 71 58 67 62 65 60 60 55 61 57 55 61 34 109 131 144 153 169 181 192 186 182 186 180 182 172 178 170 172 169 171 182 182 173 170 191 187 169 167 178 193 187 183 177 184 176 183 193 196 165 166 177 156 152 172 167 164 163 164 171 171 176 173 170 174 174 182 179 176 172 174 163 159 145 124 109 52 55 56 56 56 56 58 57 61 50 60 60 54 55 60 65 67 69 64 66 63 64 61 55 62 53 53 61 29 101 135 153 152 158 179 186 184 182 188 180 181 175 176 176 168 170 173 171 171 169 153 178 154 118 106 162 195 198 186 183 185 186 192 195 182 115 158 177 135 150 172 171 162 166 163 167 169 177 178 174 180 181 178 180 172 175 170 159 147 135 115 92 51 54 54 53 60 54 58 54 57 51 58 54 56 60 57 66 64 66 68 63 62 68 59 61 56 55 55 60 34 92 133 150 148 155 174 186 180 185 183 185 176 168 172 172 166 171 171 171 170 168 153 147 164 161 139 139 183 205 198 195 190 194 202 175 140 116 118 129 140 159 162 167 165 160 166 169 173 170 178 173 178 177 178 183 169 170 165 155 145 127 121 72 50 56 56 49 55 52 56 55 57 54 58 57 57 59 59 63 65 68 63 66 64 64 60 63 57 58 54 57 43 73 134 131 146 145 165 181 183 187 184 182 177 174 170 167 165 170 173 166 168 168 158 150 143 152 171 177 171 184 199 188 179 180 165 117 111 115 125 134 152 156 163 164 163 167 167 168 177 179 177 179 178 180 178 182 178 170 165 153 136 128 125 57 46 55 53 54 53 49 54 57 56 58 57 58 54 64 64 56 66 68 64 66 64 66 62 64 59 57 56 57 52 56 130 132 146 137 160 179 178 180 185 178 179 175 170 171 171 175 173 164 166 165 146 139 133 122 154 157 146 145 155 158 142 124 119 95 83 116 134 132 145 159 162 164 167 171 168 167 170 179 180 178 180 182 180 179 173 168 153 148 134 127 114 49 48 56 53 53 50 54 56 52 56 53 58 56 56 61 61 61 67 66 68 68 67 69 58 66 68 58 61 56 58 63 126 147 143 148 163 161 178 173 178 178 180 169 171 173 178 174 170 158 165 157 134 126 109 108 139 139 124 143 138 149 135 118 121 105 87 110 114 119 130 148 156 154 166 170 171 173 168 182 179 183 182 181 177 180 175 166 151 138 127 129 97 46 51 58 49 51 51 52 50 57 54 57 51 57 57 60 59 62 65 70 67 67 66 67 65 63 63 62 65 60 48 84 115 150 131 146 149 161 169 172 173 177 177 166 170 162 166 160 161 150 152 146 132 115 101 108 125 131 122 125 134 130 135 127 126 108 91 105 106 109 119 128 148 139 147 156 175 175 165 178 180 184 181 182 174 176 165 164 145 141 132 132 76 49 52 55 51 55 49 52 54 56 55 55 60 54 60 64 59 62 65 71 60 72 65 66 65 70 60 65 63 61 44 96 104 137 142 148 145 165 170 157 179 171 170 162 170 158 150 144 154 133 144 129 134 118 95 111 123 132 132 119 113 97 107 138 116 113 105 95 113 102 114 123 128 123 134 133 165 179 163 176 183 177 179 176 174 168 161 141 139 145 137 121 76 46 52 53 47 52 53 51 57 55 56 57 57 60 64 60 62 63 75 66 67 64 66 66 61 68 60 65 61 64 39 114 98 126 141 154 144 167 156 167 176 168 162 162 167 143 140 124 136 122 136 130 133 110 105 116 118 136 143 119 99 103 102 140 130 124 127 132 127 112 116 113 119 120 128 116 139 165 175 173 181 175 175 178 166 171 157 140 143 147 131 115 74 46 52 54 51 50 53 53 53 58 56 61 53 62 62 64 66 61 63 66 69 64 65 65 63 67 60 63 66 61 35 121 104 128 141 158 142 161 154 162 169 168 160 161 165 133 132 139 135 137 146 144 146 137 134 139 148 160 151 128 116 115 123 149 150 146 152 159 157 135 134 127 117 133 131 113 122 155 167 169 166 170 172 176 162 154 149 143 137 141 137 111 75 45 53 49 54 52 51 53 57 54 50 61 59 60 64 65 66 61 64 66 67 66 65 64 63 65 70 63 61 62 42 117 123 109 129 149 140 164 157 156 163 171 161 160 161 157 149 147 160 167 153 150 160 165 169 173 172 176 168 155 157 149 153 148 160 159 158 159 164 167 160 147 152 160 130 128 125 145 165 173 164 171 175 164 158 146 153 144 147 146 127 110 70 48 54 52 47 53 52 51 51 55 54 57 60 64 63 65 66 61 73 63 69 68 68 66 68 64 72 62 63 63 35 119 145 99 130 142 139 164 160 156 161 162 163 169 159 163 156 164 180 189 179 171 182 178 177 175 175 168 167 159 163 166 151 152 158 163 160 156 159 165 175 169 176 179 150 140 139 149 173 161 164 164 171 157 147 153 142 141 149 139 117 114 69 43 51 55 50 54 49 54 57 53 57 59 58 65 64 67 62 66 72 66 66 72 61 68 68 65 64 63 63 66 32 115 156 109 126 142 137 153 158 150 147 158 167 168 155 167 171 171 180 178 184 169 166 167 166 159 171 173 169 162 163 160 152 155 162 148 112 116 133 142 145 151 159 162 165 160 147 161 174 161 167 163 166 158 151 147 145 139 139 136 103 125 63 47 52 51 54 51 53 54 55 56 58 57 61 63 61 66 69 63 68 69 67 68 69 65 67 66 65 62 71 63 37 110 160 135 103 133 139 136 157 158 139 164 171 170 164 168 159 157 149 127 135 128 126 114 96 73 84 120 135 142 138 133 126 109 93 67 42 55 62 93 104 97 104 122 150 156 159 162 169 160 169 158 167 161 155 143 142 148 141 130 96 132 53 50 46 52 54 52 55 57 59 56 58 59 62 57 68 65 64 67 69 67 69 64 68 63 64 66 67 68 63 65 38 101 161 149 108 121 138 129 153 163 138 152 171 169 177 171 155 156 137 127 109 105 113 108 93 83 71 73 77 80 76 77 81 79 81 79 86 90 98 101 102 104 110 132 145 141 149 163 168 158 169 146 157 158 150 139 139 143 141 118 96 141 39 55 48 55 48 56 53 54 61 55 61 58 61 61 67 63 63 62 65 68 70 62 72 62 66 62 66 64 66 66 35 99 162 153 130 117 133 132 147 168 140 150 172 162 185 176 160 162 152 161 135 120 119 120 116 108 104 104 102 96 93 94 98 102 100 100 105 111 113 113 118 121 133 155 144 140 143 159 164 176 169 147 161 155 140 152 142 142 125 108 107 134 46 52 44 54 50 54 58 57 62 56 62 58 63 64 63 63 62 61 66 66 67 68 66 66 65 62 67 65 63 64 43 83 161 158 153 114 115 124 135 153 141 145 169 168 182 172 165 163 161 179 168 148 126 127 124 121 120 119 109 109 108 105 110 117 115 115 121 124 121 124 136 145 157 169 160 154 150 154 169 168 181 149 152 158 144 146 133 133 132 88 129 127 39 53 49 56 50 56 59 57 62 62 65 61 64 66 60 63 67 55 63 66 68 67 65 69 66 65 65 65 63 60 45 76 163 159 164 124 110 126 129 156 152 148 170 177 181 169 174 172 167 179 182 171 153 139 144 138 137 134 126 123 124 124 128 132 135 135 134 133 134 141 158 156 164 163 166 167 163 153 173 164 172 161 147 157 146 147 133 128 110 106 145 119 41 50 50 55 53 58 55 61 57 63 63 61 64 61 67 65 62 62 70 65 67 69 65 66 64 67 62 62 61 58 51 65 162 165 161 143 103 121 129 137 147 143 166 172 177 166 173 185 173 182 181 178 182 168 166 163 167 154 151 147 139 145 149 150 145 143 141 154 157 164 161 162 160 168 170 175 165 155 165 168 154 163 152 155 142 139 127 121 106 114 156 111 33 48 54 57 52 56 59 59 61 58 67 63 60 64 60 67 68 66 64 66 65 69 64 68 59 66 60 67 59 59 51 58 163 164 162 163 108 110 133 123 148 144 151 164 165 170 170 185 185 183 180 167 179 182 184 184 187 181 171 165 157 162 163 161 160 165 167 173 173 163 159 163 161 170 175 178 168 163 153 165 153 158 146 138 136 126 124 118 101 133 160 101 41 50 54 52 52 55 59 58 59 62 62 63 60 65 65 67 67 65 66 65 67 70 64 64 66 68 60 63 62 55 59 47 163 165 167 173 129 117 126 126 138 123 140 164 159 165 182 187 187 191 181 170 163 168 159 171 163 158 146 145 149 151 148 155 162 172 162 164 160 155 164 170 170 175 177 180 173 167 158 156 151 142 141 132 130 116 130 114 103 140 170 87 40 52 50 51 53 56 63 60 61 58 65 64 59 65 67 64 66 69 69 65 68 67 62 65 63 61 64 60 61 59 58 45 160 168 166 171 144 115 123 121 130 122 133 159 151 148 179 186 186 188 190 188 182 180 176 169 140 150 131 129 147 133 105 126 135 143 152 168 159 173 176 174 177 180 176 178 163 151 153 150 141 132 117 138 134 113 122 102 107 157 169 81 42 46 53 49 54 59 58 57 65 58 62 64 61 65 63 65 68 63 67 63 64 67 67 64 61 61 61 61 61 54 63 37 158 167 171 170 170 124 125 133 119 126 130 151 143 140 163 178 182 182 186 191 184 191 193 190 175 157 140 133 151 141 124 131 150 164 161 176 177 175 176 174 180 179 169 171 161 139 153 153 132 127 122 132 129 114 120 105 129 160 171 60 42 49 50 48 55 58 58 60 58 61 65 57 62 64 63 64 71 66 66 63 62 63 64 59 65 62 57 63 55 56 58 28 154 165 172 169 177 140 125 140 121 122 133 126 136 143 154 174 183 181 189 188 191 188 190 185 182 166 147 144 149 147 144 142 151 164 166 169 173 178 176 178 169 171 163 172 148 149 146 147 131 116 118 131 125 108 105 120 147 161 165 53 41 47 48 49 58 51 58 62 56 61 58 60 60 61 63 68 69 64 68 59 59 64 60 61 62 59 62 56 56 57 60 26 153 169 168 172 176 171 114 118 121 120 124 123 131 142 147 165 175 181 185 185 188 187 185 184 180 160 153 155 160 153 158 160 159 162 168 170 171 172 175 176 164 168 156 148 154 138 139 145 123 118 124 134 120 115 109 128 158 162 156 44 39 50 49 48 57 54 57 59 61 61 62 58 59 63 64 66 66 64 58 66 61 61 60 56 61 57 55 58 54 53 56 23 146 166 163 171 172 181 150 106 125 127 118 123 137 132 139 154 164 178 186 180 179 182 179 183 171 163 159 160 163 158 157 163 159 163 159 161 162 162 164 170 159 164 161 142 149 143 124 142 128 114 119 138 123 110 109 145 158 166 137 34 40 46 49 50 55 53 57 62 59 62 61 56 62 59 66 65 60 68 62 62 60 60 62 57 56 56 57 54 55 50 57 26 145 165 164 172 170 178 181 127 112 132 127 129 124 133 130 145 161 173 179 179 173 177 168 173 170 169 162 162 164 159 158 161 150 149 149 145 154 150 162 159 151 150 151 142 146 135 133 125 127 117 109 123 127 112 127 155 162 164 128 27 38 46 45 50 54 58 54 57 56 63 61 61 59 59 63 61 63 64 57 64 60 57 60 59 55 58 55 54 54 45 39 112 143 163 168 172 172 175 179 166 102 129 130 117 138 120 106 133 148 172 178 182 167 171 166 174 168 167 164 162 160 153 155 157 151 146 148 144 157 149 165 152 155 145 137 140 134 126 125 115 122 113 122 118 107 110 143 160 161 162 110 30 39 38 46 47 51 53 56 57 51 61 59 60 59 59 61 67 63 67 57 62 64 59 57 62 57 57 58 53 56 28 136 167 136 165 166 171 176 176 179 180 135 115 133 123 131 120 117 143 147 164 167 180 166 169 170 165 171 164 163 169 161 162 159 161 153 154 155 140 161 153 157 156 154 154 138 128 129 117 125 123 129 122 115 112 111 135 153 165 164 144 163 87 34 39 40 48 55 55 51 54 61 59 63 58 65 57 64 64 68 68 65 62 59 59 61 60 60 53 62 56 35 95 205 145 133 162 169 170 175 179 171 179 180 113 127 130 124 121 131 125 140 146 150 166 181 166 176 163 171 177 174 176 171 168 167 169 161 158 154 148 152 159 148 146 152 142 140 117 126 101 135 123 123 118 128 107 121 151 160 164 161 155 112 213 144 31 41 44 54 48 56 53 59 57 57 55 65 62 55 65 68 63 63 62 63 53 63 55 57 60 55 59 27 183 214 124 133 160 166 175 171 183 179 177 183 168 118 128 123 126 120 118 126 136 148 154 161 174 164 166 166 181 177 182 184 176 175 174 167 167 157 152 145 159 145 151 155 125 127 112 108 109 124 130 116 121 119 108 137 159 165 162 159 158 82 136 216 165 42 35 51 47 51 51 53 55 55 59 56 58 62 64 64 64 61 64 54 56 55 58 57 53 61 28 103 211 216 105 140 161 170 172 174 173 176 181 180 186 159 112 125 117 124 116 116 127 141 148 152 172 165 179 168 173 171 182 185 185 174 181 170 175 157 161 158 155 144 134 151 128 118 105 92 114 124 127 124 120 109 135 156 165 161 162 156 157 94 125 145 214 166 36 41 48 48 52 48 60 51 58 53 59 58 62 65 62 58 58 54 53 56 55 51 56 52 26 201 214 211 108 129 167 168 173 175 174 169 179 182 179 183 155 102 109 123 131 115 126 139 139 156 152 157 170 180 174 171 177 181 177 173 170 169 168 169 167 155 154 138 132 136 125 117 100 101 111 130 114 118 112 132 152 162 166 161 162 153 157 91 110 136 165 227 146 35 43 50 48 51 54 50 53 51 58 55 59 63 64 57 53 52 53 56 53 53 53 31 109 222 215 204 145 89 167 171 174 174 175 171 174 179 184 183 179 164 98 109 125 117 108 122 142 141 161 172 166 173 173 167 173 175 180 167 161 161 160 166 161 153 141 128 136 119 116 101 99 107 123 125 121 105 134 150 162 167 167 163 161 153 151 104 72 138 124 202 224 100 35 50 49 53 51 48 55 49 58 57 54 62 62 55 54 53 54 52 53 50 54 18 208 218 218 201 169 63 142 169 174 171 176 175 177 174 181 186 185 175 171 97 120 134 111 91 119 145 134 156 167 165 164 156 176 179 171 173 159 159 167 153 147 143 127 146 125 108 92 96 116 105 127 103 100 136 151 156 168 165 169 161 162 156 146 95 108 77 153 145 217 221 53 42 56 51 54 50 54 50 53 52 56 56 60 55 55 54 50 48 53 50 27 118 228 214 218 207 194 72 90 150 174 174 178 177 175 180 179 180 183 182 176 171 119 117 128 101 101 115 133 128 146 154 154 157 161 165 167 172 174 152 155 141 140 126 126 130 115 100 111 118 115 102 120 107 144 149 161 165 164 165 164 159 161 157 124 99 110 93 105 144 209 225 161 42 50 51 52 51 48 53 54 48 56 54 60 54 49 55 51 49 58 50 36 210 222 215 218 214 219 70 94 103 145 171 176 176 177 179 178 180 173 182 184 178 171 128 129 127 140 110 125 116 122 139 128 139 135 135 147 151 147 146 138 130 125 118 120 97 118 125 123 124 105 99 124 146 152 157 164 166 168 165 164 160 159 154 104 94 111 125 75 150 181 219 229 67 51 61 60 50 54 51 55 57 51 55 53 