P2
92
112
255
46 45 49 52 44 49 43 46 48 44 47 42 43 47 44 46 49 49 47 50 50 50 49 49 50 51 50 43 46 49 38 39 40 31 39 44 42 50 47 44 35 37 29 30 27 18 37 46 52 33 45 50 45 42 40 37 37 41 44 62 61 46 53 45 49 48 53 43 46 48 44 48 47 44 47 44 45 49 47 46 46 43 46 40 47 46 43 46 44 45 45 44 47 49 49 47 46 48 44 48 45 47 48 43 38 47 46 44 53 46 49 48 48 52 43 51 49 54 50 42 47 47 32 37 32 24 30 40 41 40 46 33 31 40 44 28 28 24 32 35 44 50 55 50 38 50 40 39 37 41 55 53 53 35 53 50 42 46 58 51 47 48 46 49 49 42 48 41 49 46 46 47 43 46 44 43 44 47 42 48 46 44 46 45 50 49 49 48 47 47 49 46 49 44 49 43 43 43 47 48 51 50 50 51 48 47 51 48 53 54 51 38 45 44 32 32 25 27 24 38 43 41 39 33 34 57 59 29 33 27 43 50 50 51 64 51 42 55 41 31 44 61 50 47 45 28 42 49 50 50 58 58 47 46 54 46 45 43 47 46 45 47 46 48 43 47 45 45 42 43 45 45 47 42 47 47 49 47 49 50 45 47 48 46 51 45 48 44 46 42 43 51 48 49 49 55 50 46 49 54 58 57 54 42 39 44 33 31 27 27 27 41 47 44 31 31 43 53 50 46 50 39 48 58 74 57 64 63 49 53 49 37 45 59 48 32 35 29 33 35 53 50 36 48 51 55 56 44 45 45 45 48 43 47 48 46 43 47 45 45 44 44 49 40 47 43 47 42 48 48 46 50 46 50 48 50 49 50 45 47 47 39 45 44 51 45 54 50 49 50 47 52 46 47 45 39 39 35 34 28 29 28 30 43 54 43 37 42 52 55 50 61 64 66 58 66 91 68 63 61 61 56 67 53 52 48 45 41 44 35 31 36 42 43 38 40 41 56 60 44 48 42 47 48 46 46 45 47 43 49 45 50 46 46 44 46 44 46 47 42 47 47 47 49 54 48 48 49 47 50 48 46 43 45 44 44 48 49 50 53 50 52 51 54 45 42 43 42 46 37 36 39 43 46 47 51 53 40 52 52 68 67 66 75 87 86 86 86 96 76 76 71 68 75 65 69 71 71 60 61 71 66 53 48 42 38 36 34 37 40 47 50 51 46 48 47 51 46 47 48 49 45 48 49 43 47 47 49 43 46 46 45 46 49 48 48 49 48 49 45 51 47 47 47 45 45 45 46 50 56 54 55 52 54 53 51 47 40 47 49 56 60 71 68 72 69 70 68 69 57 62 65 81 82 84 95 108 115 107 110 110 92 95 82 84 87 78 81 89 83 79 76 90 88 83 88 78 70 51 40 39 38 41 42 54 49 49 44 52 48 49 45 51 46 46 49 46 45 50 48 46 45 45 44 51 51 46 49 52 47 48 50 48 49 48 47 44 44 46 46 50 58 60 60 55 58 56 44 33 47 65 89 93 102 98 93 98 96 91 91 91 81 84 83 97 105 108 112 131 135 128 126 125 106 112 102 106 110 98 101 107 95 98 96 105 111 112 113 113 112 102 84 65 40 33 37 44 50 51 48 47 54 48 45 51 51 46 48 49 46 49 46 47 49 47 46 52 47 48 49 52 47 47 50 48 49 52 44 46 46 43 47 46 56 56 53 52 66 61 47 53 90 111 118 119 117 113 112 117 112 112 110 107 104 91 97 113 124 124 126 142 147 135 138 136 120 123 117 122 129 115 117 121 111 106 115 121 128 127 129 128 133 130 130 124 84 40 24 32 55 57 54 50 52 53 49 49 47 47 47 50 46 50 49 42 49 47 49 48 49 50 49 53 46 49 47 51 47 46 53 40 46 42 45 42 48 59 55 50 51 55 67 105 125 131 126 123 122 120 121 122 123 120 121 125 109 104 114 133 139 145 141 151 151 145 145 144 135 129 129 131 133 128 134 132 118 115 124 128 133 135 136 137 139 142 142 145 143 111 45 34 40 60 59 58 50 54 50 47 48 46 51 46 50 48 49 44 47 49 47 50 49 49 50 52 48 48 47 50 46 50 52 43 49 40 44 44 54 60 40 39 52 86 120 132 131 129 130 127 123 124 126 127 123 125 134 133 126 129 135 150 155 155 151 161 158 153 151 148 146 133 135 135 136 136 133 135 124 122 126 129 134 136 139 141 143 145 147 150 150 151 123 70 42 44 47 53 57 52 48 52 45 51 46 49 48 47 46 52 44 47 48 49 49 48 48 53 45 52 46 48 50 47 47 51 41 40 48 44 58 54 41 53 99 122 136 132 132 130 132 131 127 128 128 131 127 134 141 141 144 152 151 160 160 158 160 161 167 162 155 150 150 136 138 136 138 140 133 135 128 132 131 133 138 137 139 140 143 145 147 149 151 152 149 134 97 51 36 47 67 62 47 47 50 45 50 46 48 46 47 51 46 48 52 54 49 49 50 52 46 50 50 49 48 47 46 45 43 48 46 51 53 47 44 104 125 134 134 133 130 131 134 131 131 134 133 139 142 150 145 156 156 163 161 158 159 153 158 156 161 160 152 148 153 140 135 138 138 142 138 134 135 137 138 138 140 140 137 139 143 143 147 147 152 153 155 153 143 112 46 35 68 70 59 45 53 45 50 50 46 50 48 49 48 49 50 48 48 48 53 47 49 50 49 48 45 50 44 41 42 44 54 52 39 47 94 133 134 138 131 133 133 131 134 135 133 135 141 145 147 158 149 162 157 160 160 155 157 151 150 152 152 152 149 146 150 145 137 142 138 141 138 135 140 140 141 141 142 142 143 141 146 144 146 148 150 151 158 153 152 155 112 27 47 71 69 53 52 52 50 46 49 49 48 47 48 49 51 49 49 48 50 52 50 48 51 49 49 46 43 41 45 51 49 35 38 97 131 137 138 134 139 132 133 132 131 132 137 137 145 146 152 153 155 157 156 154 159 158 156 151 144 147 148 146 151 143 147 144 146 139 143 139 132 139 137 143 140 144 139 143 138 148 145 147 144 152 147 149 156 157 154 156 162 101 25 50 50 65 58 45 52 47 49 46 50 48 49 48 50 49 51 45 50 51 53 47 52 48 50 54 38 49 56 43 30 35 89 130 133 134 138 131 138 132 132 129 130 133 137 143 143 147 152 152 154 153 154 158 158 153 154 146 147 147 146 147 144 143 139 145 143 143 139 137 138 138 141 139 141 142 146 148 145 140 146 150 148 149 154 150 154 159 159 157 158 163 89 31 36 52 64 44 54 50 50 48 50 52 50 50 48 52 50 49 48 50 50 52 49 51 51 46 51 51 49 34 33 85 130 135 130 137 137 133 138 133 132 130 135 135 140 139 144 145 151 152 151 156 154 154 152 150 149 145 141 144 145 140 141 143 143 144 139 140 141 137 138 139 137 141 140 142 147 149 150 148 143 147 152 151 158 154 153 154 162 160 158 162 156 69 26 39 49 59 50 52 51 51 48 48 52 50 48 51 53 49 51 47 51 52 51 49 57 50 60 47 39 33 68 128 137 136 131 137 139 136 137 137 131 133 138 136 138 139 141 148 147 152 150 150 149 149 152 150 145 143 143 142 142 137 143 142 143 141 141 140 141 137 139 142 137 144 141 141 143 152 153 151 146 150 156 152 160 159 157 156 162 161 159 159 165 139 48 32 39 48 57 49 50 52 49 51 49 52 48 49 51 49 52 45 52 49 51 53 48 47 48 45 29 50 118 135 133 137 136 138 140 139 137 133 134 138 139 139 142 140 141 146 143 145 151 147 142 145 149 150 144 141 142 140 140 142 144 143 141 141 143 141 138 141 139 141 138 142 142 142 144 151 157 159 152 152 159 158 164 162 161 162 164 160 160 162 162 159 123 30 40 43 49 55 51 52 50 49 50 54 47 53 51 52 50 52 50 51 54 47 39 48 45 33 39 100 132 137 134 138 135 138 139 138 137 135 137 136 140 145 137 141 143 142 143 140 144 141 142 145 146 149 146 142 141 142 141 143 139 142 140 142 143 143 138 141 141 139 142 144 148 147 149 153 158 164 157 159 163 168 165 168 163 166 166 166 163 162 164 163 154 83 27 49 36 54 52 48 50 48 55 53 46 50 53 52 48 51 54 53 51 40 40 45 37 33 74 123 133 138 137 140 138 137 137 140 141 140 141 144 140 144 142 141 144 143 139 145 145 141 140 143 142 142 144 140 143 139 141 142 138 138 138 138 143 143 141 139 139 140 145 143 148 147 148 159 156 167 157 161 168 174 162 170 172 171 166 166 167 165 163 162 165 139 46 43 45 32 59 58 50 51 52 53 52 52 49 52 50 52 54 53 46 36 42 41 35 47 107 131 136 137 142 142 136 138 139 141 139 141 141 149 141 143 143 143 143 144 143 140 142 143 140 145 140 141 141 141 142 139 137 140 137 138 138 137 142 140 140 136 138 138 144 146 145 149 152 157 158 166 169 165 175 177 170 174 175 170 173 171 173 169 166 161 163 160 98 39 41 37 48 61 52 49 52 51 51 54 51 51 55 50 56 53 42 37 45 41 31 79 123 137 137 140 142 142 140 141 139 143 141 139 145 147 144 144 144 140 145 140 143 138 139 145 142 144 140 139 138 142 139 138 136 139 134 139 137 136 140 142 140 139 136 141 144 144 145 146 154 157 167 174 173 171 175 177 174 173 175 172 173 177 180 174 172 163 165 164 136 60 32 40 49 51 58 51 54 49 53 51 52 51 47 57 52 41 37 41 38 38 45 96 128 139 141 139 144 146 144 141 144 141 141 143 144 144 144 145 141 142 141 142 139 139 141 140 140 142 141 140 141 142 140 139 134 136 136 138 141 137 136 141 140 139 138 141 141 145 146 149 149 158 167 168 172 172 174 176 171 173 174 171 175 180 184 178 179 173 168 165 154 93 26 35 52 48 53 54 52 47 52 50 53 52 53 56 47 36 40 39 35 37 66 106 132 143 143 141 146 148 143 145 144 144 142 143 148 144 146 147 143 140 139 140 140 139 140 137 136 142 140 142 142 138 144 138 136 132 132 135 138 138 140 140 141 137 136 141 143 145 146 151 158 157 165 170 168 171 176 173 169 173 170 176 176 180 186 185 186 178 173 173 157 121 36 32 48 43 55 57 55 50 53 53 50 53 54 58 45 35 36 39 36 40 80 115 136 145 143 146 149 146 145 147 146 144 145 148 148 147 145 146 144 142 143 141 140 140 143 141 138 139 139 140 139 139 139 138 136 133 129 135 135 135 139 138 139 138 137 138 142 146 143 151 161 158 163 167 174 178 175 171 170 172 168 175 183 184 186 188 188 181 179 176 162 131 59 21 51 44 40 59 58 52 53 50 54 51 55 55 39 33 38 39 29 49 91 123 135 147 146 151 150 147 150 150 153 146 147 148 146 144 148 145 143 141 146 143 141 140 141 141 139 137 138 139 144 136 137 133 136 128 132 132 131 135 137 136 138 139 138 141 140 148 144 153 161 164 161 166 176 178 175 170 170 171 171 178 183 187 188 191 189 183 181 179 167 139 74 24 48 49 37 57 60 50 53 55 53 54 54 48 38 30 41 34 31 47 98 129 133 145 148 148 154 151 153 153 153 147 150 147 147 146 146 146 146 141 145 143 142 139 137 140 142 139 137 140 140 136 136 133 132 128 132 133 135 133 135 137 137 139 137 140 142 148 150 153 163 167 163 168 175 173 177 168 170 173 172 180 184 190 190 191 192 184 183 181 172 146 83 25 56 59 40 52 57 53 50 49 53 50 56 43 36 32 38 37 28 52 102 124 138 145 151 146 152 154 158 154 156 148 150 151 150 149 150 147 143 145 145 143 140 140 141 140 145 140 140 141 140 137 139 133 137 128 133 139 133 135 137 140 136 136 142 141 146 147 156 151 166 171 170 169 168 170 173 164 176 175 174 178 186 190 194 194 191 188 186 181 182 146 96 27 52 78 50 51 50 54 52 52 53 53 50 45 37 33 41 36 34 56 98 131 149 151 154 149 150 155 158 154 156 150 150 152 153 153 153 147 148 146 148 146 142 141 143 140 142 141 143 137 140 141 136 135 135 132 136 134 136 136 139 138 138 136 139 140 144 148 153 153 162 175 171 169 169 173 175 168 175 178 178 180 186 188 195 196 195 188 187 186 185 152 103 40 44 76 71 37 53 52 52 53 50 52 48 50 29 34 48 33 31 63 105 136 154 159 150 150 157 159 156 157 152 154 152 154 153 150 156 148 144 150 147 147 143 145 145 142 141 143 142 142 139 139 142 135 138 135 137 135 137 139 136 137 138 137 141 144 147 147 153 157 165 172 175 171 167 173 174 171 177 179 176 182 187 189 189 198 197 192 189 185 188 154 106 48 48 61 64 44 54 51 54 54 51 52 53 48 33 46 48 33 33 65 117 151 165 160 158 162 164 163 160 158 152 151 153 152 153 150 153 149 146 150 145 145 141 144 139 138 137 139 142 139 141 138 142 135 139 132 136 135 135 135 139 137 136 141 142 145 146 142 148 152 162 166 166 166 166 171 169 170 177 178 174 182 186 189 186 194 201 194 188 192 187 159 102 57 53 60 58 47 56 50 57 55 52 57 55 40 36 37 56 37 35 72 126 158 167 163 165 169 167 166 159 158 153 152 152 152 149 147 148 144 144 143 142 141 141 140 137 138 136 137 138 140 138 135 140 140 134 136 133 136 136 131 137 134 134 136 137 137 141 139 143 151 157 157 157 156 155 162 160 157 169 170 173 174 186 185 186 191 198 198 192 192 189 160 99 73 43 53 51 38 53 57 52 51 57 55 55 38 30 39 55 43 40 74 131 161 168 165 168 174 168 164 148 155 154 147 147 150 142 142 134 135 135 135 134 131 129 134 129 133 133 135 137 138 137 138 138 140 135 134 134 136 136 134 138 132 134 134 136 135 130 129 133 139 142 146 151 138 141 147 153 148 151 159 167 175 183 187 185 193 195 198 191 193 195 163 95 74 39 53 54 30 54 54 57 55 54 54 53 43 30 31 47 40 39 76 139 167 171 165 175 173 159 163 149 156 148 148 138 137 130 129 123 122 126 128 121 117 118 119 124 122 130 130 132 133 139 139 133 134 131 127 130 134 133 126 130 129 125 126 128 125 115 116 116 117 118 121 131 125 120 121 129 126 132 141 141 154 177 185 186 191 199 192 192 190 191 167 90 58 50 52 68 34 54 55 55 52 55 52 55 39 32 32 40 47 31 72 136 167 169 169 170 174 166 159 154 153 145 126 117 118 113 110 107 104 107 108 105 104 99 103 108 110 115 121 122 130 129 133 130 131 129 127 122 126 129 122 125 121 117 116 114 111 95 86 82 79 79 78 90 93 85 90 96 98 100 112 115 117 153 178 178 187 198 194 193 184 194 167 83 42 60 66 56 41 51 59 52 54 55 53 51 40 33 35 37 47 34 64 138 171 171 171 166 172 165 159 153 148 129 104 103 97 92 92 90 83 84 79 76 74 75 74 85 92 98 110 113 119 123 123 125 125 125 121 120 124 124 122 121 114 110 103 96 93 75 57 57 55 50 51 53 60 56 58 65 65 80 83 85 95 123 163 176 180 189 193 192 187 192 169 74 24 53 56 52 47 49 56 52 52 55 54 55 38 30 36 37 49 31 57 135 169 174 174 168 173 167 156 144 126 97 89 81 77 70 71 64 62 60 52 52 52 50 56 58 67 78 90 99 106 111 115 119 122 118 116 118 117 119 118 115 113 105 96 83 79 61 51 50 48 39 37 36 44 43 47 51 55 74 82 69 87 98 125 160 173 182 192 189 185 192 165 68 19 43 43 49 46 53 54 56 56 55 55 59 52 28 31 33 42 45 46 122 172 174 171 170 169 164 139 115 95 85 84 77 71 65 58 51 51 48 47 43 46 46 53 47 47 63 69 78 90 105 105 116 118 110 114 111 114 115 118 112 114 105 95 85 71 58 54 61 53 47 52 46 61 58 65 66 56 69 74 81 92 103 114 119 140 177 189 185 187 191 155 67 17 45 34 43 52 52 53 53 52 55 54 57 59 31 33 37 50 43 41 106 166 176 166 169 170 143 116 103 101 92 86 79 72 67 60 61 68 68 72 66 71 70 75 64 64 65 66 74 88 100 110 117 115 112 112 111 113 115 116 120 114 111 104 93 83 74 84 83 77 74 78 84 96 89 90 94 92 99 97 104 110 107 124 125 114 147 187 189 193 191 129 59 26 31 54 37 56 50 54 50 50 56 50 58 53 36 37 36 42 47 23 92 163 178 164 166 163 126 117 114 120 115 97 97 93 88 81 82 92 92 95 91 91 95 97 98 94 96 87 84 99 110 115 119 119 114 112 115 114 117 125 126 129 124 115 104 96 96 88 89 85 90 99 100 100 108 109 113 116 125 128 125 121 122 125 139 130 110 176 194 193 186 109 46 28 31 55 41 51 54 52 50 47 56 54 55 49 39 35 39 36 37 26 73 153 174 165 165 150 119 118 130 132 129 118 114 114 111 102 104 104 106 105 100 102 101 98 105 112 115 110 107 122 126 124 124 128 119 117 116 121 125 136 144 149 141 128 111 102 87 92 91 97 102 105 108 103 110 116 123 131 139 144 148 147 145 143 150 154 98 152 196 195 176 90 38 32 44 48 35 48 54 51 51 51 55 54 52 56 37 33 39 32 36 29 54 147 172 169 162 136 126 143 149 143 140 141 138 129 126 121 117 116 113 109 108 106 105 98 103 106 112 111 122 128 129 137 136 133 124 120 124 125 137 148 163 165 153 126 105 90 86 90 92 90 95 93 95 96 98 106 120 132 143 155 167 169 168 159 166 168 115 130 193 194 167 71 44 35 43 46 33 48 54 54 52 52 57 52 57 52 41 37 36 36 33 30 44 132 169 171 160 132 141 159 159 155 151 154 149 147 140 130 123 119 109 110 103 106 103 100 95 104 94 99 106 120 129 147 154 141 126 132 131 137 146 167 182 177 155 110 85 82 77 71 72 74 73 76 82 84 87 95 109 117 124 142 171 178 181 176 178 182 146 141 187 197 157 55 43 50 36 43 35 49 51 57 53 53 55 52 51 55 47 36 35 38 29 34 30 121 170 175 167 137 147 174 168 160 159 164 160 149 133 119 110 99 91 89 84 79 76 73 81 90 89 91 94 99 123 154 168 153 139 137 145 148 155 178 189 176 132 82 68 70 64 62 69 72 70 69 66 72 74 82 98 120 136 138 135 163 186 180 186 183 166 155 180 194 147 54 36 53 53 38 37 48 55 53 52 53 54 52 53 49 50 34 37 36 30 27 28 112 168 180 166 143 161 181 174 164 166 156 144 127 117 107 94 83 76 70 74 68 69 67 68 64 71 82 85 83 109 152 168 162 143 150 156 152 155 178 187 161 100 62 65 67 65 63 60 67 67 51 39 58 42 47 63 83 119 146 163 124 167 188 186 190 177 167 185 195 139 39 46 44 49 39 40 49 56 53 55 50 57 53 51 47 52 40 31 40 31 29 22 103 170 183 167 155 175 185 176 168 150 133 132 124 107 94 65 53 49 47 45 53 65 61 65 63 58 66 76 77 95 142 164 167 151 149 161 155 153 175 183 146 71 63 74 76 60 51 64 85 99 38 24 114 43 10 77 116 73 92 148 145 118 182 187 194 184 178 186 201 130 29 40 49 41 53 32 52 53 57 52 53 53 55 45 49 50 36 30 39 34 22 16 106 169 182 175 168 178 185 178 158 123 123 134 105 89 103 72 26 40 113 35 33 89 87 58 54 57 64 67 69 88 131 157 167 154 147 165 159 146 171 174 149 68 67 78 73 59 66 81 115 114 41 38 62 34 14 81 198 189 47 83 140 109 158 186 190 190 182 186 203 126 25 45 46 35 65 34 51 56 57 54 54 51 52 47 50 51 35 33 37 29 31 14 107 169 180 175 174 183 185 173 142 128 125 86 92 141 137 78 21 40 64 35 35 94 119 82 60 56 62 67 72 79 125 151 165 155 153 166 157 140 167 174 159 93 63 84 79 77 70 80 101 127 55 36 49 35 19 91 171 205 120 68 88 134 151 181 193 197 188 187 203 129 25 40 60 35 57 42 57 64 54 51 44 53 82 88 67 44 43 35 30 31 23 17 119 171 177 171 177 188 186 165 146 135 119 90 136 226 207 106 22 35 52 35 49 106 122 92 85 83 73 66 75 85 124 148 159 154 148 165 160 145 165 186 166 142 67 86 91 82 78 87 93 100 82 64 56 35 59 126 164 185 134 99 114 122 147 183 193 200 191 187 204 130 28 30 80 28 39 67 99 139 118 40 41 123 141 142 104 59 40 32 35 26 28 30 125 174 174 173 181 188 184 158 147 137 120 100 117 195 189 130 61 34 49 43 64 103 106 85 84 82 80 80 81 96 126 152 157 151 151 165 151 148 167 192 175 153 114 78 91 85 83 87 91 91 87 84 79 70 80 114 132 155 153 123 140 146 162 183 198 203 192 187 204 143 21 48 69 38 35 82 139 125 163 103 80 151 140 152 129 77 47 39 34 29 21 34 136 175 172 172 184 185 176 158 146 137 122 122 132 151 143 105 81 58 64 71 83 94 94 88 86 86 93 87 98 115 139 154 159 153 150 164 155 147 169 189 180 161 149 101 86 93 96 93 93 93 94 90 85 86 98 109 141 154 166 155 168 171 177 191 201 207 196 187 205 149 26 46 58 31 56 108 154 89 133 163 105 161 135 150 143 100 65 45 35 32 17 47 144 175 171 172 180 181 171 157 149 137 132 135 142 148 131 107 90 78 78 76 86 90 95 85 94 94 95 101 119 131 145 161 160 152 150 162 155 147 170 187 179 168 160 142 100 98 103 107 102 98 90 94 90 97 114 125 138 162 166 179 184 193 191 196 202 208 198 188 204 164 30 42 46 34 91 127 156 80 120 184 117 158 140 158 154 148 110 54 32 34 19 67 153 175 167 173 177 175 163 158 153 148 148 151 156 148 129 118 110 93 87 87 89 94 97 100 104 103 109 122 130 142 156 161 159 153 147 153 154 148 167 188 178 171 172 160 143 107 106 113 115 108 103 98 92 97 112 128 139 167 176 187 195 197 197 197 202 205 198 190 199 181 47 35 42 72 99 140 167 74 126 168 122 160 139 173 171 185 144 93 43 33 19 94 159 170 169 172 174 171 162 156 155 158 154 157 158 151 134 126 116 109 99 99 96 108 111 112 110 114 124 131 139 152 164 160 160 151 146 152 155 147 163 185 177 170 180 169 161 154 119 111 122 118 121 122 119 117 128 134 149 166 178 189 196 198 195 197 201 205 198 189 203 185 67 23 45 103 154 145 167 73 141 149 132 159 133 171 176 189 140 118 67 30 23 113 165 171 169 173 172 166 164 155 159 165 161 158 155 146 141 133 122 118 112 111 112 115 117 113 118 124 137 138 149 160 168 158 159 153 148 155 158 147 162 170 169 166 180 176 168 171 161 120 114 117 123 132 130 133 140 148 158 167 178 187 193 193 192 195 202 203 198 187 197 196 80 25 52 129 180 194 157 74 151 137 124 160 124 171 183 199 144 118 84 33 33 129 169 171 171 172 174 169 157 156 158 161 161 156 151 146 139 134 123 121 122 118 116 118 112 116 130 138 143 143 154 165 168 157 157 152 152 158 153 146 152 160 159 166 176 179 177 178 185 154 124 116 123 129 133 136 145 153 162 165 173 179 187 187 189 194 200 203 195 187 195 197 92 18 86 147 197 205 145 73 162 126 130 162 118 163 190 201 157 120 111 38 42 138 171 172 172 173 176 169 160 155 151 157 154 148 143 145 137 132 128 126 125 123 117 114 116 126 136 147 145 151 162 168 165 157 154 154 155 158 150 153 145 150 158 162 175 181 181 182 194 178 151 127 125 129 132 140 144 156 157 163 166 170 181 186 188 195 199 201 194 189 191 201 94 18 128 188 200 210 132 86 174 111 123 163 114 155 191 200 172 155 124 54 46 147 174 174 172 178 175 170 159 157 150 150 150 147 140 139 144 131 131 131 126 123 121 119 126 132 144 151 149 156 168 166 161 153 149 155 162 161 149 146 145 145 153 164 168 181 185 185 194 183 165 149 133 131 133 140 145 152 154 155 158 171 178 185 190 197 199 200 193 184 191 198 94 23 154 201 200 218 117 110 159 86 111 167 123 143 195 199 185 173 132 49 51 149 175 174 171 179 173 172 164 160 151 150 147 144 138 137 138 132 133 126 129 124 126 128 133 142 149 152 154 169 169 166 157 150 149 147 163 157 146 146 141 144 151 164 169 172 186 191 192 193 170 155 150 142 138 135 142 150 145 154 157 170 178 185 195 200 203 197 192 182 190 193 90 27 125 192 204 216 119 138 140 65 83 162 132 134 194 181 168 156 111 56 54 145 179 174 170 176 176 171 173 163 155 151 143 144 137 132 134 132 133 128 126 126 129 134 138 144 152 155 165 173 172 162 155 153 148 145 151 151 144 140 142 146 153 168 174 171 185 192 195 190 177 162 151 147 140 139 141 145 143 152 156 172 181 193 195 200 202 198 188 181 188 183 89 36 117 170 198 222 120 167 106 48 67 150 144 142 187 164 148 134 107 77 58 144 176 177 172 176 178 173 177 170 161 155 150 142 139 132 135 132 129 127 130 130 133 134 138 146 156 163 178 175 162 157 156 156 147 144 146 151 141 137 141 143 148 173 190 175 175 193 200 191 175 166 156 151 142 142 138 142 143 153 153 170 185 192 197 199 200 195 187 178 190 173 84 53 98 152 187 217 133 177 91 46 52 117 159 149 185 147 130 116 104 117 69 132 177 177 177 171 176 174 180 177 165 157 151 149 138 137 132 136 125 128 130 133 135 135 141 151 160 171 183 171 154 151 167 163 151 142 143 151 140 134 136 137 145 176 214 194 166 192 200 196 176 169 160 152 146 145 138 142 141 153 152 160 188 193 194 197 196 194 188 177 189 161 79 59 83 132 172 211 151 165 75 36 40 88 152 164 184 141 114 106 100 154 101 120 174 180 176 177 177 176 177 173 171 161 155 147 139 132 132 132 129 128 137 137 138 139 145 153 164 180 172 160 154 160 176 206 170 132 135 137 130 131 128 132 140 172 203 190 164 185 200 192 179 163 163 159 149 150 145 143 150 152 155 166 182 189 192 191 196 195 184 180 190 133 74 63 74 112 158 208 169 119 54 45 43 70 111 174 186 143 110 98 104 171 155 114 165 178 179 177 177 180 176 172 171 164 161 150 140 132 132 134 131 135 140 142 146 145 151 158 167 180 172 155 162 176 167 193 196 130 125 121 120 122 115 125 137 164 180 165 160 181 191 188 177 168 164 163 154 155 151 148 155 156 159 166 182 190 186 194 191 197 181 178 186 107 78 72 72 99 154 205 149 76 49 55 44 50 88 142 194 151 106 93 102 150 172 114 163 176 180 179 182 182 178 169 171 162 161 154 139 137 135 134 139 137 147 150 151 154 151 159 165 174 169 167 175 168 155 169 172 142 119 113 107 111 107 120 139 150 137 139 149 175 184 178 172 177 166 164 158 157 161 159 164 164 162 167 179 186 187 191 192 194 182 179 171 95 93 88 65 100 165 193 109 51 52 64 49 45 55 109 175 164 115 100 108 123 160 124 152 177 178 179 184 181 175 172 171 166 163 155 143 144 140 142 143 141 150 154 154 159 155 156 162 168 174 172 163 144 118 121 141 151 126 106 100 100 99 115 130 116 81 97 133 164 174 169 168 173 171 165 160 162 164 165 169 173 170 173 183 186 189 189 193 192 182 181 149 105 112 124 83 112 176 185 66 43 60 62 52 47 44 74 144 183 143 141 131 117 145 125 150 176 179 179 187 185 178 169 173 170 165 156 148 146 145 153 150 145 152 156 155 156 157 153 155 170 170 154 133 103 69 65 112 140 136 107 90 84 99 111 106 60 47 74 114 155 169 162 160 173 175 171 172 168 166 171 169 177 176 181 187 186 187 191 191 191 184 176 131 120 132 143 157 148 184 142 44 50 61 60 51 50 41 47 115 178 186 184 168 149 158 137 132 171 176 178 185 187 181 168 170 171 163 160 152 149 155 155 154 154 159 156 161 156 158 151 150 157 168 131 99 58 36 56 113 150 141 115 88 91 113 137 122 60 29 66 113 151 157 160 154 164 174 176 178 175 167 175 165 179 173 189 188 188 182 188 194 186 184 174 114 131 185 175 192 188 172 99 36 55 63 58 50 48 50 32 85 160 186 196 184 179 175 142 119 159 175 178 185 189 184 172 175 169 166 157 158 158 161 155 160 158 161 156 161 158 155 148 147 148 153 118 88 78 84 95 129 138 133 114 95 100 122 134 142 132 72 90 129 144 155 157 153 158 171 178 180 178 173 177 171 176 180 186 189 187 183 187 192 187 182 157 109 143 191 191 189 204 158 46 48 58 61 61 52 48 49 35 63 145 191 193 190 184 176 152 108 146 174 177 187 188 187 172 178 165 167 159 158 162 165 162 164 162 165 160 159 159 150 147 143 145 144 123 113 133 133 121 127 122 104 92 82 95 111 121 127 137 127 124 146 152 156 155 155 157 169 179 183 184 181 176 179 174 185 190 193 187 185 187 192 189 173 142 100 175 189 192 194 207 164 21 51 60 58 65 51 46 51 40 44 142 191 192 185 178 177 156 101 129 167 175 185 190 185 178 174 167 168 164 161 166 165 167 164 167 165 161 161 155 148 142 143 143 145 137 133 149 145 126 113 98 87 76 67 77 96 110 119 120 140 145 154 158 162 156 156 157 162 180 182 187 189 183 185 179 186 190 194 191 186 186 189 192 167 121 104 184 189 191 192 203 192 25 50 61 56 63 52 48 48 37 42 142 198 191 181 171 170 159 102 116 154 169 183 186 187 178 177 170 166 166 162 167 168 166 167 167 172 163 156 153 145 142 140 147 149 145 140 144 131 118 110 77 74 70 65 67 82 105 116 108 122 141 150 159 166 162 157 154 161 173 182 187 191 190 188 184 187 190 190 192 183 183 184 188 165 105 102 184 189 191 194 203 194 43 45 58 60 63 48 50 48 42 45 120 193 197 184 175 174 165 117 109 139 156 177 184 183 182 180 171 168 166 167 169 169 168 169 172 167 160 157 151 146 142 140 149 146 137 127 124 110 105 99 71 63 71 67 58 80 100 109 95 103 125 133 146 157 164 153 153 154 164 176 191 189 190 194 188 191 188 192 188 187 189 182 186 150 105 100 172 188 194 193 193 159 36 49 65 63 61 51 52 49 41 38 97 150 179 182 181 179 166 143 113 124 148 166 180 183 180 180 176 170 168 169 171 172 172 170 171 169 158 154 148 143 142 141 144 143 126 109 99 93 100 95 81 66 67 69 52 88 105 106 88 91 109 116 124 139 147 141 138 134 140 162 187 191 189 194 193 192 191 190 191 186 182 188 175 152 106 80 150 171 180 172 149 105 39 58 60 62 57 52 52 49 43 34 62 109 129 141 150 160 141 134 120 114 139 156 170 183 178 181 175 169 170 171 172 175 172 172 171 169 159 152 144 138 137 139 139 132 109 91 82 87 93 97 95 91 71 72 66 90 118 122 109 107 105 108 105 118 122 115 117 113 117 131 170 195 190 192 192 192 190 191 186 188 178 172 165 147 106 61 102 132 135 121 99 72 46 56 61 60 56 49 52 49 41 43 41 66 89 102 111 111 102 98 119 114 139 144 158 170 176 178 175 168 169 173 174 173 178 172 172 169 157 141 131 126 127 126 124 113 99 87 79 83 98 105 114 108 92 81 80 102 125 133 132 135 134 129 114 106 108 99 101 95 95 105 140 183 194 190 190 191 184 192 186 188 185 167 155 149 101 47 72 91 95 80 73 54 51 57 58 57 60 45 50 47 41 46 39 45 56 61 72 77 65 75 108 126 132 143 155 167 172 174 174 169 170 177 178 179 176 174 176 161 145 123 113 114 115 109 105 100 96 92 87 106 112 117 120 110 104 106 102 112 121 123 129 140 152 158 155 143 118 115 106 81 80 86 120 163 192 191 181 184 183 181 187 183 176 164 154 147 98 48 56 67 69 59 56 57 52 56 60 57 55 51 52 46 47 41 47 47 46 43 49 52 46 55 90 125 136 149 159 164 157 168 171 173 176 179 181 178 179 176 174 149 125 108 96 98 93 95 93 100 118 119 122 123 116 111 102 97 103 107 107 108 105 111 116 125 131 137 140 155 151 129 126 96 77 84 105 139 176 187 182 179 180 178 179 186 172 150 165 146 92 37 57 57 58 56 54 56 52 51 62 56 55 50 50 47 44 44 46 44 47 46 45 46 48 37 76 125 136 148 153 155 154 162 168 171 180 180 176 178 178 174 169 135 114 94 87 88 88 98 111 122 134 139 127 113 108 97 94 84 92 98 99 95 95 98 104 114 118 123 122 124 132 129 121 99 86 85 113 122 163 182 180 178 178 172 170 176 161 154 164 146 80 38 56 58 60 58 56 54 53 55 56 58 56 55 47 47 41 44 44 46 44 45 45 46 45 38 62 119 138 142 147 151 148 159 159 164 173 174 175 179 172 169 165 126 110 86 85 94 106 115 131 135 132 125 113 102 94 94 85 76 78 85 76 80 82 83 93 94 94 99 102 101 100 102 97 86 92 93 109 122 153 172 180 173 174 166 167 166 161 147 163 143 77 36 56 56 57 58 54 54 53 52 54 59 53 53 51 43 45 43 41 49 40 48 45 47 48 41 50 115 136 141 149 153 152 149 154 164 161 170 178 171 167 161 153 123 108 86 89 105 114 124 133 118 109 105 100 90 78 82 73 64 63 64 58 65 72 79 99 99 98 99 98 97 100 104 91 84 86 94 108 127 151 168 180 174 174 166 158 164 159 149 151 145 57 45 56 58 58 61 55 55 52 54 56 58 56 55 47 48 42 43 43 45 49 42 50 43 46 43 46 106 138 140 151 159 147 141 154 163 157 162 174 170 158 155 145 126 110 94 89 99 103 108 106 88 90 92 92 80 75 72 70 63 60 62 59 64 83 95 119 123 118 125 123 120 127 139 120 91 83 98 103 132 156 161 183 168 170 164 154 159 158 147 155 133 51 48 55 54 58 60 53 56 52 52 58 57 57 54 48 46 43 44 44 45 46 47 47 46 47 46 41 94 139 140 153 161 144 143 152 160 150 160 164 159 161 153 143 127 111 96 88 86 76 80 72 78 85 97 104 93 85 84 84 77 83 74 78 82 95 104 125 131 135 139 153 156 158 158 149 113 92 101 107 134 159 162 168 161 161 158 157 157 153 152 157 119 38 50 59 55 55 58 50 57 52 58 54 57 59 54 49 45 45 47 45 46 48 45 47 48 47 42 42 83 131 145 151 152 150 142 149 158 146 154 159 153 163 156 145 127 110 95 82 77 71 83 93 105 106 112 114 109 99 91 97 85 88 80 83 87 93 106 121 135 144 153 160 162 164 157 161 134 115 113 101 132 156 166 168 151 155 158 159 157 163 150 157 107 38 54 55 56 53 59 54 54 52 58 56 58 53 55 50 48 48 44 46 46 50 43 48 48 46 45 40 72 135 142 146 149 147 150 149 153 150 152 152 146 157 155 147 132 115 94 81 80 81 105 130 136 132 129 129 119 108 95 100 85 81 74 78 84 86 96 115 129 139 147 154 153 158 150 160 149 141 126 113 129 153 161 169 149 149 156 156 159 164 161 147 94 39 53 53 55 55 54 55 59 53 55 55 58 57 52 49 51 47 47 47 48 46 47 49 47 47 46 39 64 135 136 142 142 151 152 148 154 153 150 142 143 150 157 148 136 111 97 86 89 91 126 143 145 144 144 136 122 110 97 86 75 72 68 66 74 71 84 103 115 122 133 133 138 147 147 160 158 158 142 126 129 154 150 170 148 147 152 158 162 165 160 141 75 42 52 57 54 52 58 55 58 55 54 55 57 62 54 49 52 51 45 48 47 47 46 49 46 45 46 37 62 137 138 139 140 153 145 146 157 150 151 133 142 147 154 147 134 112 101 92 99 106 131 150 143 145 141 133 115 99 84 66 59 59 59 54 58 57 70 81 97 109 116 126 126 146 151 161 167 169 157 141 131 148 153 155 154 148 155 155 158 165 151 132 59 45 54 54 56 53 54 56 57 57 52 56 54 57 55 51 49 51 48 49 49 44 49 48 47 48 46 36 62 136 145 136 144 148 141 141 151 152 151 135 133 144 156 142 132 118 105 106 113 121 129 142 140 135 128 116 102 84 70 52 55 51 56 57 42 50 64 73 80 110 122 131 133 154 155 163 168 169 168 151 144 139 158 143 157 150 160 148 156 154 139 127 56 42 53 54 54 56 55 55 56 59 55 56 55 59 55 46 53 47 51 49 47 47 46 47 48 48 48 34 59 145 148 136 144 141 144 142 146 147 152 136 128 141 153 148 129 117 110 113 124 130 136 141 135 126 118 112 97 85 70 56 66 52 63 64 52 57 70 84 95 114 127 141 146 154 155 162 168 168 163 151 139 143 143 144 151 155 150 147 148 148 132 126 63 45 50 52 58 54 55 54 58 56 55 56 56 57 52 48 51 49 50 45 50 47 45 48 45 50 47 38 60 143 156 143 141 136 143 145 140 149 147 135 131 137 146 145 128 119 111 119 129 135 140 141 138 128 122 121 114 100 91 82 78 66 80 74 73 83 96 103 119 124 131 144 149 155 155 161 160 165 161 146 131 135 139 140 148 154 147 132 143 140 115 139 65 41 56 53 55 55 56 53 52 58 53 56 52 62 54 51 49 53 50 49 46 48 47 48 48 48 51 34 55 147 161 151 140 130 142 143 138 141 140 137 129 132 142 138 129 122 115 122 135 136 140 142 140 135 132 131 125 115 113 101 96 90 91 93 89 106 118 124 131 133 136 144 147 154 152 151 156 155 159 142 130 133 129 131 139 142 140 124 139 129 119 151 63 41 57 54 53 54 55 51 53 54 53 54 54 55 59 48 51 53 54 46 50 48 50 47 48 52 48 38 54 144 164 158 145 126 139 142 135 137 143 140 133 129 133 135 126 125 118 126 136 136 137 136 141 138 138 135 132 129 125 117 104 105 97 103 103 116 124 133 140 140 141 145 151 152 151 143 151 144 150 141 128 127 123 118 133 131 129 126 134 114 125 167 57 44 54 51 55 54 51 56 56 52 48 56 54 57 53 54 49 51 50 52 50 52 48 49 47 50 47 42 51 139 172 168 150 127 134 139 128 133 140 142 131 133 131 132 129 121 116 125 135 134 133 135 142 138 141 134 134 134 134 120 115 109 103 100 111 118 123 132 144 146 146 148 150 154 154 145 143 146 139 133 126 119 116 113 122 122 125 128 119 100 139 170 48 43 60 53 53 52 56 55 52 58 50 58 54 55 53 54 51 53 52 53 50 49 50 51 46 50 49 42 45 134 173 172 164 141 129 132 125 134 135 133 128 134 127 126 133 119 112 120 134 133 132 137 140 134 138 139 133 141 138 126 121 110 107 102 110 117 125 133 143 148 149 157 154 151 150 139 141 134 128 124 126 118 107 116 119 118 135 132 109 96 156 169 46 45 52 57 53 55 54 55 53 53 55 58 52 55 54 53 57 53 55 52 54 49 49 48 51 47 51 45 37 127 176 176 173 154 132 124 120 134 128 127 123 125 128 127 133 121 115 119 125 133 134 140 137 136 136 142 137 145 140 129 119 115 107 107 110 117 122 131 144 146 144 159 160 153 151 131 136 130 115 122 119 112 107 115 124 117 127 135 98 109 168 169 44 39 59 54 55 51 53 59 53 53 54 55 51 55 56 57 57 54 58 54 51 52 49 46 50 47 52 43 34 125 175 179 177 163 143 116 120 126 125 120 120 115 125 130 124 122 120 114 109 128 131 141 140 137 139 141 145 145 140 129 119 116 111 112 111 116 122 130 139 141 139 152 161 153 152 137 132 120 108 118 107 107 103 116 119 117 117 115 99 130 179 160 49 42 56 54 56 51 55 55 56 54 57 53 60 52 54 57 59 54 54 56 52 56 45 53 48 52 47 46 37 110 178 179 179 170 153 132 120 119 118 115 119 116 118 125 124 118 117 111 108 117 134 135 141 142 140 141 151 139 139 128 124 115 117 113 109 113 121 127 133 131 133 143 155 152 143 142 128 114 104 106 98 93 105 109 113 112 111 100 107 154 181 161 43 42 59 52 53 54 57 52 54 55 53 54 61 53 53 58 58 56 56 57 52 55 49 49 49 49 52 47 30 110 174 182 179 174 163 149 123 117 114 111 109 114 117 120 117 112 114 111 108 115 129 139 142 142 136 136 148 141 135 126 120 112 111 108 108 109 114 119 125 125 125 137 149 147 132 131 121 108 101 101 96 90 94 108 106 105 110 92 129 172 184 157 36 49 51 55 54 55 57 50 59 56 51 55 57 51 53 57 58 61 56 57 51 58 49 50 52 48 51 49 40 92 171 181 180 174 170 157 137 113 112 106 112 111 118 113 107 105 109 108 102 114 129 137 141 133 132 140 138 130 125 118 111 106 103 107 98 101 108 105 115 115 112 128 139 130 124 120 115 102 98 94 87 85 100 104 112 109 97 103 149 180 182 159 33 45 56 53 54 59 51 51 57 55 55 54 56 51 51 55 62 59 57 56 54 55 53 51 50 49 52 50 34 92 163 182 179 174 177 166 144 127 104 103 105 111 110 110 103 105 105 104 104 109 124 132 135 129 128 130 128 122 116 110 102 100 95 98 96 95 93 100 101 104 106 116 125 119 113 114 106 103 94 93 76 85 105 103 114 108 85 121 164 180 183 154 35 48 58 49 52 58 52 52 52 55 54 55 56 57 51 54 59 59 55 58 54 56 51 51 50 51 52 50 40 78 159 177 180 177 176 169 159 139 114 101 102 108 104 102 101 104 99 102 104 102 120 129 129 125 122 122 119 115 107 102 96 93 88 89 92 87 87 84 89 95 99 105 108 108 105 102 104 96 91 84 69 84 109 104 108 95 91 143 172 179 182 150 34 50 52 51 54 57 57 49 54 55 56 54 56 56 54 58 58 58 62 56 57 54 56 55 54 51 53 50 38 74 154 176 180 178 177 169 166 149 127 111 99 101 100 104 104 101 103 98 98 97 110 120 118 117 114 113 109 105 101 95 91 86 87 85 86 80 76 75 76 83 91 90 94 94 92 95 101 85 78 78 71 79 108 105 99 87 113 159 175 180 177 158 36 48 50 52 51 58 53 52 55 52 56 58 54 53 57 64 58 60 59 56 58 58 53 56 56 47 56 49 34 99 150 175 177 179 174 173 167 160 141 124 106 96 92 99 102 96 99 96 94 97 98 112 111 110 100 105 99 103 95 89 80 84 81 83 84 72 70 73 71 75 79 83 82 82 83 86 91 79 62 73 80 86 97 103 92 97 138 172 173 176 176 145 125 38 49 50 52 57 58 52 53 52 54 53 53 55 59 60 58 59 60 56 59 58 56 53 53 51 54 42 54 141 160 170 176 176 172 168 168 162 154 140 119 98 99 89 93 95 95 88 90 88 93 105 101 102 96 91 91 96 89 80 77 74 77 79 73 70 64 65 66 65 65 74 69 76 69 80 80 71 63 66 93 86 97 94 93 119 155 174 174 177 178 125 142 125 29 49 51 56 56 57 52 57 53 53 55 54 60 59 57 60 56 59 57 61 54 50 54 52 58 29 81 189 157 159 179 174 170 168 164 165 157 148 132 114 105 90 84 84 86 85 81 86 87 93 92 91 89 85 84 81 78 74 70 65 66 72 62 62 64 59 57 58 56 64 62 64 63 69 71 68 59 71 90 93 95 94 102 140 161 174 173 176 179 123 100 192 74 34 52 55 58 55 56 55 56 52 55 58 57 60 56 57 60 58 57 62 51 50 51 58 53 34 110 214 167 144 175 174 169 168 162 163 156 152 141 123 118 99 88 83 75 79 80 84 86 85 84 86 80 78 75 70 68 65 65 55 60 57 59 56 58 51 52 51 50 53 54 57 58 61 66 66 70 78 83 96 89 111 122 153 170 171 173 174 182 113 88 165 171 27 44 54 60 52 61 55 55 53 55 54 60 61 56 54 61 53 61 57 49 50 54 61 47 34 136 219 194 146 150 173 172 168 161 162 156 153 141 138 123 113 100 87 78 76 74 81 81 80 72 78 78 68 65 63 58 61 61 50 49 56 52 54 49 45 49 46 46 50 44 52 58 56 61 70 73 85 85 95 102 123 144 162 167 173 172 173 182 103 65 161 225 62 40 55 57 54 58 55 55 53 58 55 60 59 56 54 57 53 56 55 50 53 55 61 39 42 160 223 202 183 154 138 166 169 158 158 158 152 145 138 133 125 111 104 89 83 77 75 76 75 70 73 72 65 64 59 54 59 53 50 52 52 53 53 48 45 45 51 48 48 43 50 62 53 65 71 77 83 86 105 114 145 153 163 170 168 171 173 183 96 44 161 232 107 23 52 57 53 53 59 54 56 56 54 61 56 59 52 54 55 56 51 54 56 57 59 40 57 187 224 209 191 182 146 130 150 154 157 156 152 148 138 134 130 121 113 100 91 83 77 74 70 67 66 69 64 68 59 57 54 53 49 51 56 51 51 46 50 44 51 51 48 45 49 58 63 61 78 78 90 95 118 131 151 158 168 167 171 169 175 184 80 39 173 232 132 20 51 53 53 54 56 54 59 55 58 57 57 56 56 54 52 56 53 57 54 57 61 29 78 205 221 210 203 194 183 146 124 128 142 147 151 148 141 134 137 125 122 110 101 94 86 87 75 69 64 62 66 65 66 58 56 55 54 56 56 55 52 47 52 52 51 50 46 49 51 60 67 67 79 85 107 113 129 143 156 161 168 167 170 172 176 182 57 57 186 235 164 19 45 56 52 57 52 57 56 57 59 57 55 54 55 55 53 56 57 59 53 58 55 36 107 210 217 209 208 205 194 185 144 126 111 126 134 140 140 137 135 132 127 117 111 109 100 91 84 82 72 63 63 64 60 58 61 56 56 57 55 56 51 47 54 53 51 50 48 47 54 61 71 75 87 100 125 131 134 150 155 160 167 169 168 172 178 174 26 91 203 224 206 39 39 53 53 56 52 58 56 60 58 