P2
92
112
255
61 58 59 64 60 66 52 54 59 49 50 44 43 41 49 38 46 43 33 52 38 35 32 27 33 36 43 25 39 26 32 28 32 31 29 43 23 38 35 22 34 32 31 43 41 36 44 49 37 39 34 44 36 28 33 37 53 37 37 41 41 43 37 32 33 35 36 34 36 39 42 40 52 56 52 57 52 56 47 56 41 56 54 60 64 65 63 61 64 60 61 62 61 62 54 60 59 62 56 51 47 38 41 41 46 40 46 47 44 46 34 37 35 38 33 28 34 30 42 39 25 32 30 29 24 30 36 29 31 26 43 25 32 32 28 39 34 37 33 51 47 35 43 33 41 32 35 45 41 40 35 41 44 45 41 30 36 34 44 37 36 35 37 39 49 44 46 59 51 50 51 53 44 50 48 59 58 66 56 68 62 64 56 61 58 64 60 58 51 53 44 41 40 31 39 35 47 47 43 49 46 43 31 40 44 31 37 32 30 25 32 35 28 25 28 31 26 29 27 36 26 39 33 29 33 35 32 31 37 32 38 35 60 34 38 30 36 42 34 38 42 40 36 48 34 43 42 29 29 28 39 38 36 30 35 44 36 39 47 50 51 48 42 51 46 53 50 56 62 66 63 64 63 65 55 59 61 58 56 55 50 36 35 35 35 39 39 46 45 39 44 42 40 36 36 36 38 28 28 29 29 33 28 30 32 31 28 34 31 31 40 35 38 48 42 36 48 40 42 42 42 32 49 44 45 39 46 44 49 46 48 44 48 44 41 52 40 40 45 32 27 38 34 36 27 33 35 39 33 46 44 39 43 56 48 45 46 47 56 51 64 61 65 59 63 66 63 62 56 62 54 49 44 38 36 33 32 35 40 47 46 49 43 37 39 33 37 36 33 29 24 33 34 22 34 28 29 28 33 37 50 52 49 54 53 68 57 51 65 68 55 57 54 56 53 53 55 54 55 65 69 60 67 52 61 52 56 61 51 50 48 41 35 34 39 32 32 30 40 32 40 45 42 45 54 56 50 50 47 44 52 51 59 66 65 62 65 62 59 62 56 59 50 48 43 38 37 36 37 39 45 42 50 47 43 33 33 33 39 26 35 27 38 37 35 35 35 33 28 43 51 67 74 75 78 76 79 80 91 79 86 89 81 80 73 87 70 80 79 75 78 84 86 79 83 70 84 63 77 76 59 67 55 63 51 42 42 34 30 35 40 33 34 36 44 43 48 54 54 51 46 50 43 50 58 62 59 59 63 65 58 61 62 58 57 48 43 37 33 44 41 40 38 43 38 38 37 35 36 26 37 28 25 29 30 30 29 37 43 46 50 65 76 89 94 98 99 99 103 109 107 100 99 98 93 102 101 110 100 99 116 85 100 107 96 97 93 88 87 89 95 83 84 79 77 84 80 65 56 42 36 33 38 35 30 37 43 42 49 48 47 45 43 46 48 47 59 60 59 65 62 62 61 61 60 56 54 48 45 41 41 39 44 36 41 37 40 40 36 33 29 29 25 27 25 26 27 30 38 45 58 71 86 93 98 105 104 106 110 111 116 120 121 114 119 114 115 118 119 124 120 120 128 114 114 121 116 112 113 112 104 106 109 95 104 92 96 104 102 84 76 64 53 45 49 43 37 39 52 37 39 42 42 46 47 56 50 51 51 51 60 61 62 62 60 63 55 55 47 44 40 39 35 39 41 41 43 41 48 36 28 36 25 29 28 21 29 25 30 43 58 74 88 89 101 106 110 113 109 112 117 118 122 122 124 125 131 134 131 136 132 136 134 132 139 125 132 133 131 124 136 129 125 127 124 120 117 115 109 115 124 108 96 87 82 73 75 51 44 44 37 39 41 46 49 48 45 47 56 46 56 51 44 66 61 62 63 61 55 43 43 39 35 36 38 34 40 43 36 45 32 23 30 35 26 32 25 23 31 31 41 60 81 94 96 105 107 114 113 119 115 121 123 121 124 128 125 133 133 135 136 142 139 142 139 136 136 142 135 138 138 139 138 142 137 139 136 132 137 132 128 125 118 123 111 109 113 98 86 85 77 57 47 37 37 39 39 40 50 30 50 44 49 58 55 59 64 64 63 63 47 45 42 38 37 37 37 40 36 35 34 46 31 27 43 31 29 27 24 32 31 36 70 83 98 104 109 110 115 122 122 123 120 126 128 126 131 132 134 132 134 141 139 143 142 140 141 146 140 145 144 140 142 148 147 145 146 142 144 137 141 143 141 142 131 133 138 129 130 125 112 112 110 96 77 55 31 32 35 43 43 42 45 45 44 55 60 63 62 59 64 55 46 48 43 36 33 34 39 40 29 37 36 37 30 41 31 33 24 28 31 32 40 67 90 100 105 110 112 114 118 120 130 122 126 128 129 130 135 136 136 136 137 138 140 143 139 140 144 148 146 149 147 147 150 150 152 151 159 154 158 149 150 145 150 147 151 141 137 141 142 136 137 133 122 123 118 102 53 35 39 39 46 34 42 46 46 51 58 60 59 61 60 66 40 44 40 30 31 37 42 32 32 40 37 31 36 31 32 33 29 27 32 44 68 88 97 107 110 112 117 118 124 126 129 122 127 130 131 135 135 135 138 137 141 138 141 140 140 141 145 149 153 152 154 157 155 149 157 160 163 164 153 154 153 148 154 160 162 160 149 148 142 146 139 142 137 125 126 122 116 62 42 38 50 52 43 35 43 44 58 56 62 64 63 64 34 44 31 30 33 41 36 34 45 39 32 32 34 34 34 33 39 33 45 64 88 103 106 110 116 113 122 121 127 127 131 126 131 134 133 134 133 138 131 141 137 143 141 142 150 148 154 152 154 158 157 160 160 166 157 166 165 163 162 167 166 169 172 173 178 163 167 165 159 151 146 148 141 137 133 127 127 121 69 38 43 44 50 41 40 44 44 55 65 60 63 64 36 31 25 35 39 33 29 37 40 35 30 38 39 37 38 40 35 39 59 81 103 111 113 113 117 118 125 124 128 130 130 131 132 136 133 136 132 139 137 141 136 139 148 148 149 155 155 156 167 164 161 165 164 175 168 172 171 176 171 180 180 183 184 179 184 185 175 173 175 157 150 148 147 142 138 134 130 128 123 71 43 39 50 48 45 43 38 52 59 63 62 64 39 33 28 32 42 36 27 44 39 34 34 40 39 45 37 36 36 57 76 103 112 115 115 119 121 126 127 131 132 131 135 134 140 133 135 138 136 137 143 142 146 147 146 151 152 154 155 154 163 170 164 172 170 175 178 171 175 176 172 180 178 194 201 203 198 195 184 177 175 172 163 151 153 154 142 138 132 131 123 124 61 34 48 49 56 56 54 43 53 62 65 57 39 36 28 41 26 38 35 40 41 37 36 38 43 38 36 40 41 72 100 112 115 113 120 118 127 127 125 129 131 134 140 140 138 138 138 141 139 145 148 144 149 152 148 153 157 159 159 162 166 168 167 172 178 176 176 176 175 174 181 185 165 194 194 199 199 196 195 185 178 176 170 163 158 162 152 136 138 134 129 126 128 45 37 52 56 53 70 58 46 49 59 64 34 33 35 40 26 37 36 31 35 38 36 44 37 38 39 46 52 87 103 117 117 119 126 126 130 132 125 135 135 135 139 140 138 138 138 140 143 146 144 146 149 152 155 157 155 159 164 168 169 171 172 175 179 180 178 184 176 176 176 185 174 180 177 189 193 194 187 188 182 178 177 171 158 160 152 148 135 135 132 131 132 118 26 37 49 44 57 47 54 46 35 56 30 41 47 29 37 40 32 29 35 42 33 43 40 37 41 51 65 90 104 117 120 127 129 132 134 128 134 136 140 136 140 144 144 140 142 143 145 150 142 149 150 161 153 163 161 164 173 168 177 173 173 178 182 177 185 178 185 185 183 190 183 190 185 183 186 189 183 185 181 182 184 179 169 162 155 156 145 136 138 134 131 140 99 35 39 54 51 53 52 41 39 35 34 39 38 36 36 42 40 26 47 38 32 41 35 37 47 52 71 95 113 113 129 125 131 139 136 134 133 141 140 143 141 143 144 138 144 145 143 149 149 153 155 159 159 165 163 167 176 174 179 179 179 177 184 177 187 185 181 186 181 185 184 184 186 187 183 185 185 185 180 187 180 178 174 167 157 157 152 143 137 136 133 129 140 89 31 48 50 54 51 40 39 28 34 36 31 35 34 47 40 31 48 39 34 42 42 43 48 59 82 104 114 119 125 129 136 135 138 136 138 141 143 145 144 147 150 144 147 149 148 150 153 152 163 157 159 165 167 171 171 178 180 176 175 178 180 184 175 182 183 178 181 176 179 179 184 184 183 183 185 183 182 186 182 181 176 169 168 158 160 148 143 136 142 136 130 136 64 38 58 57 54 42 32 40 25 30 30 31 25 41 33 38 40 43 31 36 44 47 48 70 90 108 120 122 130 137 139 137 142 140 142 143 147 143 150 146 154 143 150 154 151 151 148 157 162 161 157 165 170 171 170 171 177 172 165 174 174 182 180 178 184 181 178 175 183 178 182 174 184 173 185 182 182 181 177 183 180 170 165 164 161 151 151 135 142 141 132 138 119 50 46 65 56 41 37 35 33 23 32 30 34 33 38 34 39 42 44 40 42 48 49 78 93 105 116 126 134 140 135 140 142 140 139 145 146 146 149 146 153 151 150 154 154 155 158 159 162 164 161 168 167 171 170 179 175 173 170 170 177 178 180 178 174 179 172 182 180 183 177 176 180 176 178 176 179 183 178 178 175 165 167 165 163 156 151 150 142 143 142 131 143 91 41 56 53 50 45 40 39 24 29 35 38 37 32 33 40 38 44 35 51 42 62 88 93 102 118 133 137 140 141 143 141 138 144 148 146 149 150 147 157 157 159 158 159 158 167 163 160 161 167 172 170 171 177 179 182 176 172 174 181 180 172 180 177 174 182 176 175 176 180 175 180 178 176 173 175 179 178 173 169 165 168 163 159 158 156 151 146 144 144 140 130 131 56 48 42 48 40 42 42 33 35 29 39 36 38 40 38 35 39 41 37 56 76 81 94 110 119 137 138 136 141 142 145 146 144 151 147 151 153 150 149 162 160 162 157 157 163 164 166 166 167 171 174 171 182 179 181 182 173 179 178 177 176 173 177 176 173 178 175 179 175 176 181 179 176 174 174 184 174 174 169 169 165 167 166 162 159 155 152 150 148 143 138 138 103 42 44 41 44 39 46 39 35 26 33 39 35 48 45 43 36 44 47 62 69 79 97 107 130 129 139 135 143 145 146 146 150 145 149 151 154 144 148 160 160 165 160 156 164 163 165 167 161 171 171 172 176 173 181 177 178 179 180 174 177 178 172 172 175 171 172 174 175 170 178 175 175 173 171 175 175 174 171 170 170 167 167 160 156 160 152 151 151 146 142 135 133 60 36 40 41 39 37 42 28 27 32 30 39 50 46 48 37 43 43 60 61 79 95 121 121 127 138 142 141 145 147 145 147 147 152 154 156 156 156 161 162 166 164 162 162 164 163 165 166 169 167 171 177 175 179 176 179 179 179 174 174 173 173 172 170 173 168 172 171 166 174 173 174 172 169 173 174 171 170 169 169 164 174 156 154 160 153 156 152 154 145 137 137 93 37 40 46 36 33 33 31 25 30 29 33 41 47 38 40 42 51 52 64 65 110 107 117 132 140 143 144 144 144 146 145 152 156 157 157 161 158 159 163 168 162 166 161 162 161 164 167 170 168 172 176 180 178 173 175 181 175 172 178 174 177 170 170 172 171 173 173 167 171 172 178 173 170 172 174 164 168 164 165 170 171 163 158 160 155 155 151 158 151 142 137 111 47 49 43 38 32 38 31 27 30 34 31 37 44 41 43 40 56 58 59 71 101 110 126 138 149 148 141 147 145 145 146 154 155 159 157 163 158 162 165 167 166 167 161 165 165 168 166 170 173 174 175 176 177 175 177 180 174 174 170 176 172 175 170 170 169 173 172 171 173 171 175 169 168 166 172 162 168 164 166 162 166 162 159 159 157 154 153 155 156 146 134 129 59 48 40 32 40 35 31 29 30 40 41 35 42 53 46 39 58 54 58 78 108 120 135 148 150 152 148 148 142 143 149 154 156 157 158 162 162 159 166 165 163 164 161 166 164 168 167 168 171 179 176 174 180 178 178 179 177 175 173 174 176 176 171 171 165 170 170 171 175 171 169 170 163 167 168 159 168 167 165 163 163 160 160 160 155 155 153 152 157 147 134 138 73 47 33 28 40 31 32 24 32 42 32 40 43 45 41 47 59 55 72 98 132 140 150 151 145 153 149 147 146 151 153 159 156 160 155 162 170 163 164 163 162 168 164 166 167 165 166 173 169 176 174 174 175 175 173 172 175 171 172 168 173 167 171 173 166 173 165 171 172 168 167 174 168 166 168 164 164 168 165 167 161 166 160 154 157 152 156 154 155 149 132 134 86 45 34 41 46 29 33 32 35 32 39 36 38 47 38 48 60 63 90 123 133 146 151 151 148 154 151 152 152 160 158 158 156 158 158 159 163 164 162 165 162 168 165 170 165 170 168 176 176 173 171 175 174 177 176 173 173 171 172 170 164 170 167 173 168 169 166 167 172 168 166 171 172 172 166 169 158 165 166 161 166 165 161 157 156 152 150 157 151 150 130 138 86 46 39 54 45 26 36 37 39 39 34 34 38 35 40 43 67 70 104 134 140 147 152 154 155 152 151 150 157 161 162 160 162 160 158 158 165 163 162 165 165 163 169 163 171 167 172 172 180 180 174 175 176 177 178 175 175 173 172 171 165 170 172 170 167 168 166 167 170 173 170 174 169 180 171 170 164 168 165 164 166 166 163 159 152 158 154 152 152 146 134 134 98 43 37 58 45 25 33 35 40 34 30 34 42 38 51 36 74 74 111 137 151 150 158 158 152 156 153 151 163 161 161 160 161 161 160 161 162 155 164 159 162 168 164 166 168 166 173 176 180 180 181 181 180 177 177 179 177 174 169 171 172 164 172 167 170 173 173 169 172 179 174 172 174 172 175 174 168 167 171 167 166 165 163 157 159 157 155 157 149 141 135 136 106 38 43 56 33 37 25 42 31 39 34 39 35 31 62 56 58 82 121 144 151 155 155 161 159 155 156 157 159 155 162 158 154 157 158 157 150 158 159 161 155 161 162 160 163 168 174 173 169 176 177 181 182 175 182 178 177 175 173 170 176 167 174 170 171 168 178 174 172 174 170 170 174 169 174 170 170 167 174 170 162 165 163 162 162 156 151 155 147 141 133 134 106 42 39 63 35 32 36 40 31 41 33 45 40 35 54 45 48 86 125 147 145 154 158 156 153 162 151 161 157 162 160 159 151 149 147 152 149 152 150 151 151 155 148 150 158 161 163 161 166 172 173 181 176 177 179 179 175 171 176 166 172 178 169 170 170 172 177 173 172 171 169 167 169 170 170 167 172 170 175 166 165 166 163 164 161 158 150 147 148 140 130 137 105 32 52 55 33 31 34 43 38 32 29 40 43 44 50 48 48 88 133 143 143 152 151 161 159 156 145 157 155 160 157 154 148 146 145 147 144 145 131 132 137 145 135 142 149 155 157 162 164 169 166 168 173 176 176 178 173 182 174 170 169 174 166 172 170 177 172 169 173 173 171 173 173 175 171 167 175 177 171 170 159 164 164 164 167 156 150 144 144 142 132 136 100 37 51 62 32 32 37 43 36 36 37 37 43 44 50 49 46 83 128 143 141 154 161 162 161 154 154 151 153 158 153 149 147 144 145 142 135 120 112 122 126 121 126 128 129 134 140 146 153 161 160 162 164 174 177 176 175 177 175 174 172 174 171 168 168 173 174 170 177 172 171 171 170 172 171 162 170 172 166 164 164 165 163 157 164 154 146 146 135 143 127 139 93 44 54 62 35 32 31 42 35 36 34 41 46 44 48 47 48 72 119 143 141 153 158 164 152 157 155 154 153 148 148 140 142 140 132 123 109 94 96 110 110 100 116 114 118 118 120 126 126 135 128 142 153 164 176 180 179 174 177 173 171 173 170 166 166 172 172 172 179 169 166 168 171 170 165 160 163 165 157 152 154 159 156 156 156 151 148 146 136 136 130 142 86 43 59 54 34 40 38 44 37 37 42 34 46 40 54 35 42 67 111 142 140 154 156 163 141 148 154 153 150 142 135 135 121 113 95 91 83 81 84 91 98 92 98 93 84 92 91 87 87 92 89 98 111 149 149 164 174 173 180 178 172 172 170 170 163 173 165 171 168 169 160 161 164 159 153 150 142 140 143 144 137 137 149 145 146 145 145 144 134 135 127 140 76 43 59 63 36 33 42 37 36 32 45 39 44 46 44 42 38 61 100 138 143 152 155 155 152 152 151 150 148 141 125 107 91 95 92 94 99 95 93 97 87 81 85 73 83 76 73 78 78 72 63 68 68 87 130 142 166 165 177 175 166 173 173 169 166 171 166 169 169 163 156 153 155 144 135 130 114 118 120 129 119 123 133 121 131 125 139 138 132 131 134 133 57 49 59 66 40 26 35 39 45 34 43 42 45 43 41 50 35 65 95 137 140 148 153 152 155 156 148 147 143 127 112 102 101 107 109 107 106 112 104 109 96 86 88 83 86 99 97 110 108 95 82 70 89 65 88 117 147 157 174 171 177 173 168 166 169 167 169 167 170 158 152 149 138 122 108 92 83 74 76 81 89 90 100 97 97 92 108 137 124 131 135 120 48 50 61 59 36 31 31 43 43 31 48 45 45 38 40 47 39 70 87 143 141 149 157 154 160 156 146 135 128 108 103 103 112 123 129 133 125 140 122 128 126 110 117 115 132 121 135 137 118 112 109 99 97 94 88 102 120 150 158 169 180 171 169 168 168 165 167 166 168 156 148 133 119 106 83 75 67 68 71 66 64 73 74 73 82 68 66 91 128 117 143 93 40 59 58 64 25 26 23 28 36 39 51 43 43 36 44 41 39 60 82 134 145 146 154 154 151 150 144 132 120 123 139 135 140 143 139 145 142 155 145 149 144 145 142 132 146 142 144 144 148 136 147 138 153 126 123 110 123 150 165 173 185 173 176 159 163 162 166 165 173 155 139 120 100 94 75 71 58 61 64 67 68 66 70 72 84 75 69 72 92 120 139 64 52 56 60 59 22 25 21 20 39 39 44 44 35 44 38 39 51 41 99 132 145 147 153 162 160 149 147 136 121 128 153 149 160 171 167 168 168 170 160 156 159 150 152 150 140 143 138 134 138 135 143 157 171 159 154 142 144 158 169 177 182 176 168 165 153 165 165 172 178 159 129 116 113 112 93 102 95 94 100 98 98 87 82 82 89 84 84 76 64 85 133 45 51 59 55 61 24 28 19 24 19 55 44 46 38 40 40 49 43 44 96 129 144 153 151 167 163 158 141 139 132 138 163 177 179 175 183 177 176 170 173 171 168 164 152 147 139 138 131 134 126 130 134 143 161 167 166 173 166 167 172 179 179 176 166 161 153 163 169 172 170 153 124 130 137 141 148 153 144 148 152 143 142 131 115 108 96 82 81 92 72 65 84 52 62 56 56 60 81 40 21 22 24 36 49 43 37 34 47 39 42 43 99 133 149 154 157 159 159 158 151 150 154 164 178 193 194 183 181 180 177 156 147 139 131 119 114 102 95 97 100 103 118 123 129 136 138 151 173 173 177 173 177 175 178 179 171 163 158 163 171 174 170 141 143 152 158 155 155 148 149 150 153 151 145 155 151 151 138 121 103 92 94 81 54 46 63 54 63 58 151 124 54 25 29 41 48 47 40 30 45 46 36 44 101 132 148 154 154 154 158 169 159 159 163 179 184 189 190 183 171 147 125 118 118 120 115 113 108 98 92 88 88 73 66 71 120 137 127 141 157 181 178 175 182 175 172 178 174 171 167 166 171 164 153 142 154 156 149 140 136 130 136 146 148 152 151 158 163 166 159 148 124 111 95 89 46 55 62 62 58 57 167 157 134 103 72 53 42 48 55 31 35 46 36 48 106 137 150 152 158 156 156 165 151 166 172 182 188 186 183 165 128 123 140 114 98 94 70 66 64 41 85 105 90 85 87 71 63 114 126 131 142 172 177 174 181 178 176 175 178 178 183 174 165 148 142 141 139 125 101 88 85 90 89 93 99 103 125 140 161 171 169 159 149 131 117 81 47 56 57 66 59 60 175 183 162 141 141 102 34 49 63 38 31 37 32 60 109 139 150 152 157 154 157 162 149 170 179 179 186 178 167 133 123 132 111 107 136 98 45 45 61 34 39 150 151 110 87 92 71 72 105 122 137 166 168 170 170 181 175 173 176 180 186 182 170 142 130 135 123 99 78 92 95 99 101 92 90 87 89 105 117 129 164 161 154 144 137 100 39 60 60 57 63 60 197 178 186 165 159 129 65 40 64 43 25 33 35 71 108 135 155 156 153 157 155 156 166 172 186 184 179 171 153 129 136 117 105 168 184 99 65 36 134 56 26 115 166 138 111 87 81 76 82 109 141 162 151 164 168 175 172 169 173 175 187 184 177 131 132 137 119 99 91 105 101 66 56 56 47 85 113 84 105 115 111 154 152 150 149 88 43 61 59 61 60 57 195 162 176 185 178 143 99 62 56 54 27 34 31 69 118 143 150 157 150 157 159 157 165 176 175 176 168 147 137 132 116 117 101 156 198 91 105 51 53 58 40 123 163 141 124 113 93 78 84 110 135 145 132 152 163 171 174 162 169 170 176 190 180 135 114 123 105 100 108 141 96 35 72 40 41 39 173 159 97 86 99 127 154 150 149 76 40 57 56 60 59 61 176 171 136 192 191 166 128 79 68 53 36 36 42 86 131 141 151 159 147 155 157 153 168 172 171 167 156 143 138 130 127 119 115 107 164 128 152 89 55 46 81 149 163 136 113 107 109 86 81 113 125 129 122 144 161 157 167 162 163 169 165 191 187 159 109 95 83 98 131 151 77 35 129 72 39 4 160 189 187 106 57 118 152 150 140 53 53 59 60 57 58 61 169 172 123 163 199 191 165 99 76 53 45 30 48 106 130 143 148 148 156 149 154 158 166 169 171 165 159 149 144 133 134 127 138 121 125 136 108 96 78 75 120 138 134 124 105 92 91 90 99 110 121 125 124 148 160 150 160 164 160 168 176 179 199 175 124 101 89 84 99 136 66 44 45 46 108 25 158 190 184 153 66 74 146 146 132 37 58 84 79 57 56 59 167 175 144 126 196 194 182 133 88 51 36 39 65 115 132 144 150 150 154 158 151 157 167 167 164 161 164 163 158 155 153 134 147 151 147 128 132 135 118 116 127 120 118 115 110 98 101 99 118 112 120 123 133 152 150 145 158 156 161 157 185 178 202 186 147 121 113 106 100 114 96 75 65 45 119 138 183 197 173 134 92 79 132 143 125 27 93 112 142 96 52 54 160 174 163 128 174 189 184 158 99 49 35 40 79 114 140 149 155 149 151 158 150 159 156 162 160 156 160 160 161 166 166 159 163 164 161 159 153 143 133 126 130 115 122 111 107 107 111 115 119 125 136 139 143 148 145 145 162 154 152 158 183 178 196 182 164 107 119 113 113 120 114 118 100 74 113 170 172 167 136 98 104 102 128 147 121 24 90 132 131 136 46 58 173 179 192 169 119 189 170 166 101 43 43 49 90 128 143 155 150 150 145 151 150 160 159 161 163 158 158 164 164 167 163 166 164 167 166 166 164 164 147 143 138 131 126 125 127 128 124 129 136 147 138 142 150 147 157 152 163 163 159 156 187 184 191 187 171 108 129 132 124 132 131 126 130 121 120 118 128 116 110 108 96 114 135 152 118 20 99 104 132 119 50 62 166 179 169 121 102 183 163 163 85 63 42 44 92 133 144 156 150 153 152 154 156 166 165 162 154 160 158 169 167 168 169 170 170 160 164 165 161 156 155 150 144 145 146 145 147 140 139 147 153 148 143 151 149 157 156 159 162 167 163 156 181 185 196 182 169 125 128 142 138 133 142 145 148 148 140 152 148 139 131 122 108 129 147 158 120 20 115 103 146 96 42 66 154 156 149 109 127 157 162 158 102 66 46 45 93 133 146 159 152 155 155 154 161 170 159 164 156 159 158 163 167 163 164 168 171 168 167 169 165 158 164 163 162 165 162 152 147 144 153 156 152 149 151 154 156 156 161 159 166 167 160 160 165 185 193 186 171 147 124 147 149 146 144 143 153 161 164 168 172 159 147 138 130 140 152 164 122 28 132 121 138 61 57 59 142 142 127 115 137 132 159 156 126 68 45 43 95 129 151 158 157 155 162 159 162 169 164 158 159 155 163 158 162 168 164 165 168 166 163 168 166 167 171 173 171 166 158 147 153 159 162 156 156 153 158 157 156 158 167 160 163 164 153 161 168 174 190 187 169 161 126 145 151 157 148 143 151 157 164 168 172 162 149 147 133 148 155 158 130 27 125 137 112 51 60 56 122 125 106 138 122 137 174 170 134 82 46 45 106 128 153 153 159 158 161 155 163 168 156 161 161 154 165 165 157 165 164 162 160 166 168 168 167 170 163 168 165 154 151 154 159 165 161 157 158 157 157 156 158 165 162 164 157 157 155 157 162 176 187 191 170 158 139 142 154 156 154 157 155 156 156 163 164 157 151 146 141 151 155 151 127 49 90 147 86 46 63 61 119 111 116 147 105 129 185 187 139 92 42 53 105 144 152 155 161 156 164 149 164 171 159 166 166 162 165 166 165 163 167 165 166 161 170 168 170 171 166 165 159 161 159 162 162 161 157 160 156 153 156 158 162 166 163 158 156 158 159 157 168 175 186 199 178 159 145 142 160 151 163 164 165 154 161 165 160 164 153 150 151 154 156 151 127 49 89 154 63 56 61 57 114 112 128 137 98 128 187 192 162 93 48 61 103 142 153 162 159 161 163 159 164 166 169 162 171 164 165 172 167 165 163 173 159 164 169 167 173 164 165 168 167 170 171 162 163 160 162 161 157 153 161 165 165 160 164 158 158 156 160 163 161 178 181 186 192 175 148 145 157 161 166 168 173 172 164 171 167 162 157 154 158 155 152 145 131 40 105 137 48 56 63 55 118 111 132 134 116 103 194 194 179 114 61 70 109 142 157 156 160 167 160 164 165 161 169 168 174 170 175 176 173 171 167 171 166 162 166 169 165 166 161 168 170 169 168 159 163 163 160 161 160 155 165 168 163 161 160 153 154 154 159 162 165 184 188 188 197 190 164 146 149 161 164 166 171 178 169 171 172 161 161 163 165 163 150 148 125 38 132 83 51 56 59 57 123 112 133 141 132 88 154 193 188 153 69 84 123 138 158 152 163 170 166 166 169 166 171 167 176 175 179 173 175 174 175 176 175 174 174 164 162 168 165 167 167 164 162 154 160 160 159 163 163 159 167 167 165 161 152 153 152 152 154 159 178 182 192 192 196 201 177 157 144 156 159 168 166 171 174 167 170 158 167 168 167 165 154 145 113 61 115 59 60 56 63 62 148 120 132 144 126 132 69 185 189 173 103 93 129 136 154 148 162 171 167 170 168 166 179 167 175 180 178 177 181 172 176 177 176 175 175 171 158 170 162 164 162 157 159 160 157 165 159 164 170 172 165 164 161 152 149 156 151 160 154 160 196 187 183 184 180 194 182 164 146 152 157 164 167 162 169 169 170 165 168 170 167 159 157 145 103 95 88 51 58 58 60 61 190 170 158 168 156 118 75 157 198 181 142 108 117 141 151 157 162 171 173 172 171 173 180 182 176 175 181 175 179 177 172 176 167 171 161 171 162 166 167 162 161 155 155 156 162 163 163 166 179 173 169 153 149 148 145 157 153 162 160 162 186 188 178 179 176 187 180 168 152 147 150 160 164 171 167 164 168 173 172 167 171 161 156 144 90 110 76 54 61 56 60 60 177 176 171 192 194 170 139 166 198 189 149 116 123 132 144 158 165 167 171 172 178 177 183 181 182 176 169 178 175 180 175 177 173 165 171 168 164 166 169 162 158 165 160 158 166 164 162 171 173 170 161 145 145 151 151 163 161 165 163 165 173 173 174 170 168 174 175 174 163 150 150 152 162 160 167 170 170 171 170 159 165 162 158 136 96 91 63 58 60 62 59 59 130 154 165 178 189 183 190 178 188 188 164 126 121 136 143 151 169 164 174 168 180 184 187 182 182 184 183 181 182 179 176 178 172 170 168 170 163 162 169 160 160 163 165 158 162 167 166 178 173 153 146 145 142 153 162 171 174 174 175 168 184 179 174 171 170 170 174 177 169 150 156 157 161 164 167 167 168 173 172 170 166 159 156 120 105 66 57 61 57 62 59 56 153 148 158 168 173 178 188 174 168 183 172 129 118 127 138 152 159 169 170 173 170 188 190 185 185 182 187 183 187 181 180 172 163 174 172 172 163 164 164 165 162 165 165 163 161 166 171 174 167 150 144 155 151 161 176 181 183 190 185 170 204 192 170 174 172 171 173 179 166 146 153 160 163 168 167 171 167 169 169 169 172 152 163 119 114 58 52 64 53 61 54 61 165 162 161 166 168 167 172 165 158 171 178 130 127 141 133 148 159 168 174 171 177 185 191 186 180 178 185 182 185 183 181 172 174 172 173 171 170 163 164 164 165 159 163 162 167 173 174 166 159 156 157 162 176 181 200 196 183 189 200 173 184 183 175 176 184 183 188 174 164 145 151 163 157 169 165 170 170 172 168 169 168 160 153 133 123 55 52 58 57 58 54 63 181 175 171 168 166 162 161 160 156 161 182 128 131 135 126 142 157 163 171 178 181 186 188 191 186 179 182 188 177 180 176 176 178 172 172 169 170 165 167 160 167 161 163 162 169 171 174 162 160 161 182 189 197 205 189 179 174 180 181 204 190 186 183 184 190 198 207 175 152 148 150 167 167 168 168 163 168 168 166 165 168 161 144 151 111 43 55 56 59 56 62 50 138 186 182 180 176 172 159 158 162 163 170 147 126 123 129 146 154 162 166 176 186 186 191 189 188 181 180 183 183 178 180 180 180 176 173 171 171 167 163 164 166 164 166 165 172 174 171 158 163 180 195 201 175 130 84 92 134 123 160 196 200 196 190 189 191 195 184 180 153 150 153 166 176 170 170 168 168 172 164 163 168 160 139 150 85 44 59 59 60 55 61 56 40 136 185 190 189 189 179 176 178 173 164 160 129 114 137 148 143 160 166 174 180 185 192 187 189 187 178 180 180 182 177 177 176 182 175 174 171 169 163 167 163 168 167 176 174 170 170 158 155 183 196 173 123 94 84 118 158 151 107 169 200 201 189 183 189 165 149 163 151 150 158 168 178 174 168 172 170 173 164 165 165 150 152 132 54 53 58 60 63 59 59 62 50 44 86 141 167 192 195 194 191 185 174 155 131 124 133 140 144 154 154 169 177 179 190 190 187 191 186 181 182 182 181 178 177 176 172 171 174 173 164 169 166 171 169 172 174 168 169 162 144 162 181 164 145 146 131 149 179 188 179 160 195 189 172 155 149 135 144 149 153 157 165 169 177 176 172 175 170 170 170 164 166 142 156 128 44 53 60 61 57 58 57 66 59 55 47 49 61 93 136 153 170 175 190 159 127 131 134 129 154 148 152 167 173 177 188 190 187 191 191 184 182 178 178 177 177 174 172 170 172 175 171 169 165 171 168 172 170 166 159 161 146 140 157 174 160 162 152 157 177 190 184 184 168 156 128 122 116 134 141 150 164 169 166 166 172 172 175 175 172 171 171 162 163 142 148 158 73 48 59 60 57 59 56 61 54 59 54 58 53 49 49 57 155 159 178 170 137 131 123 120 141 148 148 157 164 182 187 189 182 189 195 185 183 177 179 179 173 175 174 173 172 176 167 167 168 173 170 173 172 164 163 165 153 133 137 143 168 166 162 143 150 169 176 177 168 144 107 107 109 137 149 156 168 174 164 169 171 172 175 174 173 170 168 158 161 127 150 159 121 45 56 60 53 61 56 62 56 59 56 54 49 57 62 21 132 174 162 162 137 131 118 126 149 156 146 154 151 176 178 179 186 188 191 185 185 180 179 182 177 171 172 167 171 168 167 166 170 171 172 167 164 165 164 157 152 136 133 126 131 153 160 117 127 152 168 170 160 122 103 79 117 144 155 160 169 172 176 171 166 175 173 172 170 170 167 159 153 129 149 165 137 48 58 59 58 56 60 57 57 61 56 57 52 58 55 32 95 173 168 164 137 140 130 133 137 142 146 154 153 171 166 174 178 185 185 176 177 182 176 180 180 175 175 174 173 171 171 167 173 172 168 164 161 164 162 154 140 133 121 117 116 127 147 110 124 142 156 164 134 128 103 76 107 136 146 157 165 170 174 176 166 169 173 172 175 166 169 160 132 137 158 169 118 51 51 62 57 57 62 56 61 54 56 60 51 61 56 44 50 164 173 150 142 122 126 140 156 140 153 155 173 170 170 169 177 186 184 184 183 185 180 181 174 180 178 173 172 172 173 169 176 166 164 157 155 159 152 146 142 130 114 117 120 120 134 122 124 131 154 127 131 125 109 88 104 111 127 137 149 156 169 169 175 163 171 173 173 170 170 162 127 141 161 134 75 53 58 60 58 59 63 63 56 53 56 56 55 55 58 56 35 145 172 153 140 133 128 150 147 145 155 162 172 165 165 168 167 179 180 184 178 182 180 180 176 179 178 169 172 172 164 157 160 153 149 157 140 146 138 138 140 136 115 122 122 132 127 138 131 138 147 89 139 121 112 89 98 111 117 125 130 134 138 156 180 163 167 172 175 170 165 160 112 110 96 67 53 55 57 59 59 57 57 65 53 55 56 53 57 53 53 58 29 125 170 158 131 134 123 149 136 148 155 159 156 157 162 161 168 174 178 181 178 177 176 180 177 181 177 165 175 172 157 152 145 139 135 148 129 142 131 136 144 132 112 120 128 125 144 149 146 121 133 89 135 136 119 109 98 118 109 114 119 119 120 130 170 165 161 172 174 167 164 159 104 52 56 58 56 57 53 62 57 59 60 69 54 59 56 60 54 56 52 59 30 94 169 168 128 127 143 146 148 142 159 152 151 168 155 163 174 174 167 181 177 175 170 179 172 176 171 162 176 168 152 141 134 121 127 131 126 140 142 143 147 138 135 133 146 146 160 171 148 125 112 119 143 148 136 140 142 127 122 119 105 111 127 101 146 162 164 169 162 161 156 160 83 49 56 59 57 57 59 56 57 59 61 59 63 59 57 58 57 56 57 57 33 70 167 164 138 124 140 142 144 155 156 160 165 167 164 164 168 175 161 186 168 167 174 181 179 165 170 167 178 171 124 139 134 131 128 150 144 150 152 152 159 155 155 159 164 167 178 174 161 142 136 139 151 157 151 153 160 156 139 137 127 125 115 100 123 154 158 166 161 160 151 143 69 48 57 58 55 54 58 53 61 61 61 63 66 58 60 61 54 59 56 56 47 48 162 167 140 128 131 139 142 158 154 169 163 148 170 157 155 181 169 187 167 175 177 180 175 167 171 169 168 169 151 147 144 138 146 172 164 163 166 166 174 176 175 171 176 166 166 158 159 161 163 155 146 147 153 151 150 159 163 151 157 155 116 115 120 150 158 148 155 154 148 125 62 49 55 57 54 56 53 55 59 62 60 64 66 59 60 57 59 54 57 58 48 28 160 163 152 123 118 135 149 151 162 171 164 154 174 166 162 171 179 176 163 177 177 182 174 176 165 172 168 164 165 147 155 156 175 182 191 188 179 178 182 176 175 163 160 166 157 152 144 151 164 146 144 146 150 147 147 142 148 159 165 175 144 131 131 152 158 150 159 151 137 120 54 51 53 56 51 57 52 57 57 59 64 62 61 62 60 58 59 56 56 53 56 22 146 165 158 136 115 122 143 154 155 171 161 165 178 163 171 159 178 169 162 174 170 172 174 179 167 174 175 157 166 160 172 174 183 172 174 173 161 156 165 163 164 164 153 162 157 154 151 144 155 150 141 147 143 139 138 131 115 115 128 158 164 149 143 164 153 147 159 137 132 112 39 53 49 55 55 55 53 53 63 57 64 62 61 66 60 58 58 57 57 55 54 26 136 163 158 146 124 131 143 150 148 164 161 161 181 176 160 174 176 180 160 175 174 175 162 177 174 171 171 159 161 157 162 156 138 101 104 114 121 128 135 134 129 132 121 142 137 144 150 144 144 140 124 111 101 96 105 100 98 89 109 136 153 160 154 164 156 151 142 137 128 98 43 49 44 52 54 55 57 58 59 56 62 65 63 65 61 59 57 60 55 56 61 22 121 162 164 157 127 135 137 140 157 168 165 167 172 179 161 173 175 171 170 166 178 167 169 180 179 174 177 167 161 152 151 132 122 106 99 97 104 107 111 106 107 106 99 100 89 93 100 103 102 104 93 96 107 114 113 113 111 120 127 136 146 143 160 160 152 145 148 127 122 88 43 45 53 56 53 51 55 50 57 62 61 61 66 55 69 64 62 57 61 64 56 31 120 160 165 162 136 114 147 144 156 162 158 163 169 169 161 182 176 173 167 166 171 162 176 178 172 184 176 178 164 159 161 136 142 158 138 134 130 126 122 129 129 136 140 142 127 112 108 105 107 101 109 131 134 136 128 132 131 139 154 148 141 140 155 162 152 137 143 132 117 66 46 49 48 50 54 57 49 55 55 62 62 65 66 62 67 58 61 62 57 59 60 23 113 159 167 166 152 122 138 144 152 155 150 155 170 163 158 181 171 170 173 166 163 161 173 166 186 179 176 185 168 153 166 143 155 174 176 163 157 142 141 134 142 143 148 157 146 136 130 124 127 127 131 145 141 134 137 133 147 146 156 163 152 150 154 152 169 132 134 131 114 56 44 48 50 49 56 49 59 57 59 62 64 60 68 63 64 63 59 62 57 59 54 35 121 160 168 168 167 120 123 143 143 156 164 163 170 171 155 161 171 174 174 179 170 166 166 176 176 174 178 179 162 165 162 163 154 178 179 177 179 177 170 157 157 155 160 165 156 149 143 135 142 138 146 142 143 147 154 159 151 150 152 161 163 165 148 161 161 138 129 125 103 40 49 49 49 55 53 51 59 55 60 64 66 61 62 63 62 62 60 59 58 58 57 27 122 162 167 169 167 163 115 138 142 153 163 157 165 162 156 152 163 174 169 181 171 164 160 185 181 182 188 179 161 164 175 167 166 177 173 177 183 189 193 189 185 184 186 183 177 168 165 158 162 162 153 166 165 166 167 161 150 151 155 167 172 165 155 157 158 139 128 135 86 43 48 47 48 52 55 48 61 59 59 63 63 67 59 64 63 62 63 59 58 59 57 29 124 161 171 171 168 170 133 123 139 147 166 139 168 166 165 162 165 173 174 173 170 161 169 177 183 183 180 179 161 158 178 176 176 172 173 161 167 171 182 170 178 179 176 163 161 170 159 167 167 172 168 175 171 160 162 149 147 153 158 171 174 169 148 156 142 141 133 124 68 42 48 53 47 53 54 51 60 56 65 65 65 65 58 63 63 59 61 59 58 58 58 31 112 164 172 175 175 174 157 136 132 138 154 145 145 163 161 150 164 167 170 175 179 159 176 172 181 181 169 169 170 161 180 174 182 180 173 166 168 166 169 153 159 154 136 146 119 126 130 127 122 126 132 138 149 147 148 154 161 166 164 172 177 170 154 141 139 138 140 112 50 43 49 51 48 50 51 49 56 56 60 64 66 62 67 57 68 61 61 56 59 56 59 30 109 163 170 180 180 182 171 142 135 139 158 157 149 152 161 147 148 166 171 169 176 157 168 168 171 177 168 164 167 177 181 180 185 184 181 180 179 180 175 176 174 156 136 147 129 127 144 141 105 115 140 140 148 164 161 167 171 170 172 171 179 172 151 139 133 130 138 89 49 44 51 47 47 51 53 50 52 58 60 61 67 63 66 59 65 57 58 59 58 56 60 31 93 167 172 178 184 186 176 159 131 128 150 155 143 141 149 160 147 161 159 162 165 165 156 167 166 177 157 165 147 180 182 180 177 181 179 183 184 183 182 184 185 178 155 152 135 128 145 140 126 122 138 158 151 169 171 172 173 172 177 176 171 159 138 131 129 124 123 66 42 49 50 45 50 48 51 52 51 56 57 62 60 66 59 63 61 58 60 59 58 56 57 29 90 169 176 180 185 186 182 169 156 143 140 146 149 149 144 159 168 157 146 163 159 164 148 152 165 177 153 148 147 170 179 179 181 178 180 181 184 181 186 187 187 183 171 156 144 142 144 141 135 132 139 151 164 167 168 173 173 174 170 171 169 158 136 129 113 117 113 52 42 52 43 53 45 52 52 50 50 61 56 58 65 60 60 64 60 61 57 59 56 60 55 30 82 170 177 180 186 184 184 181 158 156 145 136 134 148 150 147 174 154 142 175 149 154 148 144 169 164 161 141 151 160 167 181 170 180 183 180 188 187 182 184 183 181 179 157 162 157 159 149 148 150 150 160 166 169 170 171 174 176 157 161 167 143 137 136 104 123 85 43 46 52 47 50 47 50 52 50 53 61 57 59 65 58 62 56 57 61 56 58 57 53 58 29 73 168 176 183 184 184 184 183 173 165 151 128 135 139 142 151 154 160 144 159 149 143 160 147 161 146 150 153 152 158 174 181 169 179 177 179 181 180 180 178 182 177 174 160 162 166 158 158 153 161 162 165 164 167 168 168 170 168 163 163 143 140 131 118 105 127 65 43 48 50 47 51 43 48 51 52 58 56 55 62 59 62 63 61 56 62 55 62 55 54 54 40 68 166 179 182 181 185 182 187 182 176 161 127 143 142 136 144 153 156 145 153 146 142 152 135 153 148 138 163 149 153 160 165 171 177 178 172 169 173 174 173 173 173 170 170 165 167 163 161 157 164 160 161 161 160 160 163 164 167 153 159 144 145 127 118 106 108 52 48 46 50 50 50 48 54 51 57 55 62 60 59 61 63 60 58 59 54 64 55 53 57 53 39 63 170 178 181 182 186 182 187 184 175 177 145 146 142 135 142 149 143 142 153 148 147 148 144 139 153 155 143 137 160 159 167 168 172 171 170 166 165 171 165 173 169 168 168 164 167 166 165 166 168 165 164 167 157 166 148 164 159 146 145 135 132 120 109 105 73 46 48 52 49 53 47 52 49 51 55 57 59 57 60 59 60 57 60 54 54 60 54 57 51 55 38 58 169 176 183 185 186 186 189 187 185 182 158 146 134 140 156 169 156 142 150 151 140 145 150 136 153 148 152 137 144 158 156 170 175 168 172 171 155 167 166 167 168 168 165 164 167 171 171 165 171 170 167 169 159 159 156 156 154 153 134 132 132 115 109 98 49 50 45 50 49 50 45 50 47 53 55 58 59 54 62 60 62 58 60 54 58 57 55 49 54 52 33 65 167 173 180 184 186 187 186 188 186 181 170 149 147 143 147 146 147 144 141 147 138 143 129 145 135 143 137 132 126 150 158 159 167 164 163 171 152 164 171 164 162 169 171 171 173 178 176 169 171 172 169 165 160 152 161 147 151 151 142 125 116 105 106 72 47 44 48 52 50 47 51 50 50 53 62 51 60 58 58 62 63 57 55 57 57 56 51 53 51 50 34 70 165 172 178 184 187 188 189 187 185 188 183 165 156 140 145 128 132 142 151 152 144 153 141 155 155 151 127 125 140 165 164 164 160 154 161 171 167 156 171 163 157 164 170 177 175 179 178 173 173 173 173 164 161 147 153 148 142 142 138 115 107 97 99 51 48 47 46 49 48 49 56 49 50 53 59 57 57 56 65 60 67 60 55 57 56 51 53 52 51 52 30 78 167 176 179 185 188 186 190 188 186 183 191 179 163 144 141 142 133 148 145 155 146 137 140 135 148 147 142 139 138 150 156 159 147 153 152 159 155 165 156 162 156 156 169 169 173 177 180 173 178 174 171 173 157 153 150 148 144 146 123 115 87 107 80 49 45 50 43 51 52 49 53 49 51 52 57 59 56 55 58 68 60 54 53 58 54 52 51 54 52 50 28 92 163 175 179 185 189 188 191 192 186 184 188 188 169 159 149 138 130 132 147 148 150 146 142 149 139 141 143 157 135 135 145 156 145 153 162 149 155 158 156 162 165 158 160 163 170 174 180 178 170 174 171 178 160 163 159 145 129 138 110 91 99 112 60 42 50 47 48 48 53 46 48 51 54 56 53 57 59 56 59 65 62 55 51 55 54 50 53 47 52 48 22 99 167 175 182 185 187 188 191 192 186 189 189 191 187 173 161 146 140 133 144 141 143 148 139 137 149 142 139 157 131 142 134 145 151 152 149 150 162 153 154 154 165 172 166 158 168 170 177 170 163 166 163 171 167 162 157 140 131 129 108 71 92 137 55 41 45 45 45 47 52 43 56 47 52 56 55 51 61 55 61 62 65 58 54 50 53 53 51 51 51 46 23 118 163 175 181 185 187 188 188 188 189 190 190 191 191 182 166 150 149 143 142 155 143 150 138 135 142 132 140 143 136 133 137 143 149 156 141 158 159 160 161 170 161 174 169 159 163 173 173 175 158 158 160 162 161 164 147 129 129 115 86 83 132 142 57 38 47 42 50 49 45 50 51 49 53 54 57 53 58 54 63 61 65 56 51 52 54 49 52 47 49 48 15 127 167 175 181 186 185 191 186 186 187 188 192 188 186 189 177 160 154 146 151 144 152 155 145 136 134 133 128 152 136 133 145 135 140 148 145 151 144 166 169 174 162 166 163 151 167 179 165 169 169 149 162 159 156 151 133 137 113 95 79 119 156 138 42 42 40 48 47 47 45 49 50 51 54 58 56 54 56 58 61 63 61 48 53 51 51 49 54 44 53 42 28 140 165 170 182 183 185 186 188 188 186 187 190 187 192 186 181 174 158 149 150 141 135 143 138 130 133 138 135 141 145 133 132 138 133 133 140 149 144 142 161 161 173 165 168 159 160 167 162 172 180 161 168 154 151 131 127 137 89 64 106 148 161 124 44 29 44 49 47 45 48 48 45 53 54 56 58 58 56 57 61 64 59 48 52 51 53 51 44 51 44 41 49 139 164 173 181 185 187 186 185 189 187 187 191 189 189 189 186 181 175 164 150 154 152 145 137 137 137 137 141 125 139 143 129 123 124 129 130 135 139 138 137 164 156 154 160 161 157 154 165 164 172 149 140 143 127 132 117 106 71 109 144 151 162 117 34 37 42 38 47 42 46 51 44 51 51 57 60 55 57 54 59 64 61 