P2
92
112
255
48 46 49 46 48 46 51 46 48 49 50 47 50 50 48 50 48 46 48 55 45 50 52 48 50 49 49 46 50 47 53 46 55 46 46 38 44 44 37 27 31 17 28 22 26 26 26 32 31 34 27 24 27 25 20 28 27 24 25 21 29 32 27 36 31 36 32 36 33 41 49 42 40 35 47 39 40 42 43 41 43 40 43 38 41 42 37 41 41 37 39 40 43 53 46 46 47 43 52 49 50 45 51 52 45 51 50 49 46 53 48 51 50 58 47 52 50 48 51 47 46 43 50 46 45 40 44 35 35 33 37 30 29 24 21 21 21 19 26 21 27 18 26 27 23 28 21 21 27 23 22 27 30 31 32 29 34 30 35 34 34 34 40 41 42 37 41 41 39 43 44 41 42 40 42 40 42 39 42 40 44 36 40 41 52 43 53 45 47 46 52 49 48 51 51 49 46 51 51 49 45 51 50 51 50 51 49 49 53 50 50 44 47 42 50 42 41 38 46 38 45 35 36 31 34 30 22 31 21 21 23 27 20 20 31 28 28 28 24 26 22 25 28 33 26 28 26 28 32 26 35 32 30 31 39 30 39 38 39 46 41 43 43 42 42 43 44 44 41 40 41 41 42 40 39 41 51 47 48 49 48 44 47 52 53 46 50 48 52 52 52 50 47 49 51 50 52 46 53 51 53 46 49 40 48 51 50 41 38 38 31 38 40 33 35 41 43 38 31 34 37 23 28 22 29 28 31 31 30 31 35 27 30 24 29 30 21 28 28 28 31 27 30 26 27 32 30 34 33 29 35 37 42 43 44 39 47 46 45 39 44 36 42 39 42 40 40 40 47 52 45 47 45 48 46 51 49 51 47 51 47 53 49 50 47 51 53 51 49 44 50 51 46 48 44 50 45 45 39 37 31 31 28 31 31 30 27 31 38 47 37 39 38 38 29 25 36 31 32 40 30 42 36 32 30 33 23 33 29 30 38 25 31 29 26 25 23 26 25 27 32 29 29 33 34 37 41 36 47 37 42 40 38 43 38 43 39 38 39 38 47 53 49 48 46 50 48 45 49 50 52 52 51 51 49 48 54 52 50 49 39 34 39 44 47 50 45 50 43 36 32 33 29 31 31 30 25 38 32 30 28 46 37 40 44 40 41 30 36 40 41 43 39 45 40 44 34 32 25 34 36 33 33 34 34 28 27 31 24 26 28 25 26 29 32 33 33 35 34 39 40 40 43 40 37 42 41 41 40 38 38 37 50 52 47 48 48 49 50 46 49 47 49 55 48 49 53 49 47 46 35 27 32 36 42 38 38 44 38 43 37 34 34 32 31 35 32 36 43 41 41 41 33 41 42 43 48 43 40 49 28 49 57 42 46 55 40 55 33 35 32 37 33 28 31 33 36 34 27 24 27 28 34 28 26 28 28 31 34 35 30 41 34 42 41 37 45 37 45 38 45 37 42 35 47 50 46 48 48 46 50 51 50 51 49 49 53 46 52 43 35 29 28 29 32 45 34 39 36 39 38 43 35 35 41 45 40 44 38 41 45 52 44 45 44 43 47 45 37 46 30 49 32 68 59 58 48 57 47 63 35 37 38 36 25 23 23 27 33 33 34 32 32 30 26 35 26 27 24 29 36 29 34 29 31 39 40 36 42 42 39 43 40 39 39 42 54 46 52 50 47 46 53 49 50 50 48 51 47 51 45 35 28 35 31 44 33 37 45 42 38 37 43 50 35 43 47 45 39 46 40 34 45 52 38 44 49 42 42 40 39 44 28 44 51 60 60 48 46 51 55 73 41 37 36 33 17 20 22 30 25 30 24 31 37 35 37 33 24 26 29 26 25 29 34 26 32 30 37 44 36 40 39 42 40 38 40 35 48 51 50 48 50 54 49 46 52 49 49 53 46 56 32 27 35 32 46 55 35 44 54 48 45 42 44 48 40 50 47 45 37 41 30 33 43 37 36 35 49 42 53 40 31 46 35 37 52 48 56 34 44 41 61 67 44 20 42 20 18 24 31 29 27 32 23 34 31 42 39 42 35 32 27 25 24 26 30 30 29 32 31 36 46 37 35 43 37 44 39 41 53 43 54 47 49 50 48 46 52 47 56 52 51 36 35 25 39 49 47 44 41 47 47 41 48 57 48 50 42 44 38 34 31 40 33 37 36 39 35 30 40 40 41 48 24 48 39 43 47 48 42 34 39 52 57 39 35 26 31 22 26 29 31 38 24 39 28 36 35 36 34 34 37 37 30 30 27 27 28 23 27 30 29 33 41 37 42 41 36 41 45 41 49 48 53 44 52 48 49 53 46 56 60 44 31 31 30 44 46 52 46 44 49 46 52 39 51 46 47 37 37 35 30 34 35 35 32 30 28 37 32 34 36 43 30 49 26 50 46 44 41 51 30 27 43 50 41 19 38 28 26 33 27 22 28 27 29 30 31 28 32 30 30 31 35 29 38 27 31 25 25 27 27 28 32 31 33 40 36 44 37 43 45 44 51 49 48 49 50 53 49 52 50 55 46 31 26 27 39 49 50 47 49 51 45 56 52 44 46 39 34 33 32 32 39 35 31 29 29 31 28 39 33 32 40 42 37 40 38 52 49 40 40 40 39 30 48 40 26 26 27 32 21 27 24 24 23 24 20 33 24 29 34 29 38 36 35 31 35 30 35 25 28 24 32 24 35 25 35 39 35 39 41 41 42 43 54 47 51 48 51 48 49 49 56 45 34 34 27 42 46 57 49 49 46 45 46 69 44 43 39 38 39 40 41 36 33 23 29 29 27 31 27 32 43 45 32 43 45 37 45 63 45 45 35 47 31 47 42 28 28 27 29 27 22 25 21 24 21 24 23 31 38 31 28 38 26 36 33 36 39 38 36 24 27 30 31 33 36 29 29 35 32 40 39 41 47 41 49 53 51 46 58 49 44 52 54 35 42 32 44 51 48 58 42 41 37 41 51 58 46 42 37 38 49 45 37 36 24 24 29 24 30 30 33 37 47 62 47 40 51 47 55 55 45 45 48 39 45 42 43 27 38 31 32 37 22 28 28 21 20 27 21 38 47 33 27 26 33 38 37 30 39 40 37 38 34 26 33 36 36 30 26 30 31 41 38 41 44 42 49 55 48 52 54 51 54 48 42 42 39 45 52 57 57 45 35 30 43 40 49 51 42 43 37 43 55 48 39 26 25 29 37 43 44 49 58 59 63 87 65 57 54 50 63 51 50 52 55 49 53 56 51 57 63 61 61 67 56 39 41 34 25 26 23 47 49 30 34 23 31 38 37 34 34 34 29 35 32 34 29 39 33 31 28 28 31 35 39 43 42 43 52 50 52 52 50 45 48 44 44 49 52 54 50 58 48 39 33 34 57 45 45 47 45 42 44 48 56 51 40 31 44 56 75 80 93 106 102 103 95 104 88 79 68 66 62 63 68 72 74 77 86 86 93 96 105 104 99 104 98 82 83 68 58 44 33 44 51 33 32 38 30 25 46 32 33 26 19 32 31 30 36 31 37 25 29 29 31 31 41 35 42 45 52 50 55 50 49 43 53 43 55 59 57 49 55 52 35 51 39 37 51 45 37 50 45 43 46 63 58 44 57 59 95 112 125 124 129 135 136 135 133 122 123 110 83 93 78 90 90 97 109 115 117 114 112 124 125 119 120 118 113 109 106 98 97 82 59 55 41 28 36 37 34 35 41 32 30 28 19 26 25 30 29 35 38 29 34 30 29 36 32 35 44 47 54 51 53 51 54 48 55 50 64 62 51 43 57 40 43 58 36 42 49 49 47 56 43 45 57 73 54 39 83 102 119 131 134 138 146 150 154 149 158 147 140 136 116 116 109 114 109 123 137 134 138 137 130 133 132 128 128 124 124 117 115 109 110 102 80 77 44 32 27 36 29 47 33 32 34 31 23 26 25 26 26 32 42 36 40 28 34 33 33 37 40 44 55 49 52 54 53 55 45 69 57 49 42 50 42 39 54 41 46 39 55 54 75 46 38 61 72 61 57 72 109 120 136 141 144 147 154 154 160 157 162 163 155 146 150 136 140 133 130 146 152 149 147 144 145 141 136 140 137 137 135 131 126 127 119 116 91 96 64 38 33 21 30 43 39 32 39 33 26 19 32 20 33 31 36 50 35 31 36 30 33 38 44 38 52 53 54 52 49 67 53 70 44 45 45 51 38 34 75 33 45 47 64 73 69 35 51 60 72 58 82 107 129 139 146 153 157 153 159 165 162 164 165 169 164 161 157 159 160 154 150 156 159 158 159 156 154 148 144 149 145 147 144 136 139 135 135 129 111 105 91 59 36 25 26 33 49 39 40 39 33 25 22 28 29 32 33 46 26 38 38 33 36 32 39 44 51 56 51 52 70 66 65 46 34 43 43 49 37 49 52 40 50 72 73 77 41 49 55 66 62 75 111 136 147 158 160 165 162 163 166 169 167 170 171 167 170 168 167 169 171 170 165 162 162 162 165 160 155 155 155 155 150 151 148 145 149 145 145 140 131 120 113 94 61 37 15 36 27 55 33 38 46 36 18 30 28 33 36 37 30 37 35 33 28 37 38 46 47 60 55 67 61 67 44 38 39 32 45 50 30 60 46 47 73 75 71 42 49 51 63 76 72 120 143 158 166 170 172 175 172 175 169 176 177 169 176 171 175 176 173 170 170 169 170 169 171 170 169 162 159 160 160 163 157 153 153 152 154 151 149 146 139 134 125 114 102 70 40 22 21 41 45 45 36 52 38 18 35 27 37 31 40 30 40 31 26 34 39 40 54 58 68 61 64 47 41 49 32 39 45 44 56 43 60 81 69 64 48 50 58 57 81 73 97 155 167 172 179 183 181 181 181 180 178 179 179 171 177 178 182 178 174 177 173 174 177 175 178 170 171 166 162 166 166 167 162 161 154 157 154 153 156 149 152 138 136 122 122 102 82 54 38 23 43 48 48 41 46 24 26 34 33 35 40 32 39 34 35 32 37 44 50 62 63 49 53 40 42 49 19 46 48 40 65 40 96 76 65 53 63 68 54 80 89 91 137 177 180 181 188 189 189 189 185 183 185 177 176 179 179 182 184 185 176 173 179 182 185 180 179 182 177 171 171 168 175 168 166 155 162 158 158 157 155 153 151 144 146 132 128 117 106 86 68 44 27 43 48 38 43 34 21 31 31 38 32 33 30 41 33 31 33 46 52 56 48 48 43 45 48 32 31 47 49 54 47 57 102 58 56 65 80 60 72 94 101 133 180 188 181 189 190 189 192 192 187 187 188 179 179 185 184 184 187 186 180 178 181 187 182 182 182 183 180 177 173 175 178 166 166 163 159 165 157 159 152 154 153 153 148 143 133 120 117 103 91 68 49 36 46 29 35 29 24 30 36 37 30 34 29 34 39 34 41 39 50 46 55 42 47 50 47 31 43 49 39 54 49 76 69 74 72 75 72 70 96 116 130 181 191 191 189 192 193 190 192 190 187 190 188 188 190 189 187 188 189 188 188 181 182 188 187 180 181 182 179 175 175 177 175 172 162 169 163 165 158 161 152 156 154 156 154 148 139 129 116 117 101 85 71 42 43 34 26 28 30 31 38 39 23 44 32 35 32 37 44 30 44 54 51 45 54 42 40 37 51 40 41 49 69 71 70 80 96 74 68 90 138 138 189 193 196 194 195 193 191 191 193 186 185 188 188 189 184 188 184 190 184 189 186 188 183 185 189 183 180 180 179 177 175 173 173 170 162 165 161 161 160 160 159 161 155 158 153 150 143 137 127 125 107 96 83 65 27 46 21 31 30 40 36 43 26 40 40 39 32 35 43 29 54 63 48 53 45 36 41 43 41 41 41 49 80 84 69 86 86 73 99 142 163 184 203 195 195 198 193 196 190 186 189 186 184 184 182 186 179 183 182 182 182 183 182 182 184 178 184 180 178 176 174 175 175 168 169 167 167 162 163 158 159 162 158 160 157 158 153 151 148 143 138 130 116 97 88 75 42 37 32 29 32 38 44 39 30 34 40 39 44 32 40 38 73 54 51 47 35 38 34 41 34 42 42 65 96 85 82 73 82 114 164 170 187 205 200 198 198 196 198 191 192 187 186 186 184 182 182 180 177 179 179 180 179 181 176 182 179 176 176 177 177 176 170 174 170 172 164 166 162 163 163 159 158 160 158 157 159 160 155 153 152 144 145 140 121 106 90 80 49 28 37 30 31 38 40 37 40 33 36 48 49 46 36 35 75 44 55 44 38 43 32 47 29 38 49 78 107 80 71 70 121 173 186 189 205 203 201 198 202 195 195 189 194 187 185 187 184 186 178 177 176 175 176 172 176 174 175 175 179 171 176 179 167 169 172 164 168 172 168 163 164 163 161 162 162 160 154 162 157 153 156 153 160 154 146 141 135 117 94 82 55 31 30 36 25 39 42 26 33 47 39 47 52 49 31 44 60 55 41 48 41 51 33 40 36 40 58 74 95 53 65 141 176 185 195 202 205 201 203 200 198 199 194 196 190 189 190 187 186 184 181 180 179 173 175 170 171 173 168 172 178 171 178 178 175 170 177 169 168 170 167 160 163 164 159 165 163 159 162 163 157 154 157 158 162 157 154 144 142 128 103 87 59 36 20 31 33 32 39 29 23 48 39 38 54 44 37 34 67 49 47 50 47 48 33 39 38 43 65 73 57 39 130 187 198 199 203 205 202 203 200 201 198 197 196 195 193 191 193 191 187 188 188 183 179 180 176 174 173 169 175 172 181 173 180 178 173 180 182 176 169 168 167 169 166 164 165 165 163 157 163 162 157 156 157 158 161 161 159 149 146 136 113 88 65 35 27 24 35 38 27 26 27 44 36 34 52 49 34 33 63 63 55 50 49 48 30 31 44 64 67 75 32 84 199 207 205 205 203 204 203 199 202 197 198 198 198 199 192 193 195 192 189 193 189 187 185 181 182 176 178 175 177 177 183 178 182 176 184 183 185 182 173 172 170 174 171 168 168 169 168 156 163 158 161 162 155 161 162 165 163 162 153 137 115 101 66 38 30 23 36 37 23 25 26 40 40 33 51 53 41 39 54 70 54 47 52 55 29 25 57 74 65 62 35 149 213 207 205 204 205 203 203 200 202 198 197 197 197 195 200 197 196 197 195 197 192 194 195 190 188 187 186 186 180 186 186 186 189 187 192 196 185 187 177 176 172 175 170 170 168 167 164 160 159 161 156 161 154 155 164 161 166 161 161 143 116 103 82 36 28 24 32 43 29 23 24 43 36 36 51 50 42 43 57 57 46 56 39 55 27 30 65 65 57 51 56 187 205 206 202 207 206 201 200 198 201 195 197 197 197 196 201 197 199 197 200 197 197 198 199 197 194 199 196 196 186 190 190 194 196 194 196 201 191 187 179 181 176 174 170 165 161 159 152 154 154 151 152 154 148 150 155 158 159 165 160 145 117 105 85 39 28 25 26 30 34 27 28 34 38 36 48 43 44 52 61 48 57 49 45 57 26 46 66 52 51 32 104 196 202 205 205 206 205 198 198 196 192 192 192 195 193 190 195 199 200 199 200 199 198 198 194 203 196 196 197 200 199 193 198 199 198 192 191 200 189 184 177 179 174 174 167 161 154 155 147 139 146 141 144 144 148 150 148 150 157 157 162 148 115 108 93 40 25 30 22 26 23 35 28 34 38 31 50 47 39 42 54 50 62 36 57 52 34 45 58 46 34 36 149 201 200 203 206 205 205 197 193 194 189 186 180 180 184 182 194 194 200 196 194 196 194 192 190 196 196 195 192 200 202 188 196 199 192 183 189 190 180 170 170 166 165 162 163 148 151 143 137 133 133 131 136 134 140 148 151 144 151 153 158 147 115 112 89 47 30 25 26 21 23 28 30 39 40 42 48 57 27 41 45 60 46 35 54 41 35 53 50 38 16 66 179 197 201 203 203 205 197 195 191 184 178 163 163 165 173 174 183 177 190 183 181 179 181 174 182 189 192 193 194 194 196 188 190 194 186 168 181 173 161 155 147 132 133 135 135 130 130 125 120 110 113 111 113 116 112 123 143 145 150 151 155 144 118 114 89 49 33 19 26 19 25 24 30 39 42 41 52 59 21 38 57 56 43 36 55 37 44 50 50 29 19 103 189 194 202 200 204 201 194 193 177 166 141 124 138 144 152 146 147 142 149 131 133 132 146 153 167 179 189 190 191 189 193 185 185 182 179 167 165 159 149 128 99 89 95 96 84 82 86 84 85 80 81 86 81 77 80 81 105 145 144 147 153 139 122 115 89 55 37 21 22 20 28 22 32 39 39 45 65 42 29 23 57 54 43 32 55 46 42 51 34 23 39 132 185 197 198 200 201 191 194 167 134 117 102 98 108 110 106 97 88 82 87 77 87 85 98 119 148 165 183 186 190 188 191 185 182 176 172 162 156 145 134 95 66 68 63 72 52 55 50 52 56 53 50 58 56 61 61 53 54 104 128 139 150 135 122 121 93 60 40 20 22 15 27 24 23 43 29 54 82 34 27 25 67 46 40 36 53 44 47 41 27 36 63 147 188 194 197 199 196 191 164 102 105 80 75 73 82 76 61 74 58 51 65 58 62 73 65 89 121 152 177 187 191 189 186 186 182 173 170 163 154 134 118 74 66 60 50 55 32 44 43 56 39 43 38 49 35 46 55 48 46 65 89 127 146 135 122 123 99 68 39 25 16 21 22 23 30 33 28 77 76 35 31 24 67 46 32 46 38 38 48 27 26 64 83 149 197 193 200 199 201 156 94 89 94 89 76 62 61 52 54 50 46 40 50 53 63 62 68 84 113 137 170 203 201 191 188 198 178 176 167 169 162 127 109 86 71 69 48 57 45 46 39 49 48 50 36 44 42 41 42 62 58 55 65 91 138 135 123 125 104 73 44 22 15 21 23 33 33 24 50 82 52 30 36 31 48 38 30 50 28 44 35 15 45 68 88 162 201 193 196 202 173 99 89 90 70 91 70 68 62 63 72 76 75 72 75 82 89 102 109 114 118 149 178 212 210 195 192 205 190 175 169 179 175 144 112 89 84 79 84 87 91 104 115 112 100 92 89 72 68 58 66 61 63 71 59 69 97 133 126 122 107 84 40 26 20 20 31 25 32 22 59 53 44 37 43 28 34 30 46 44 28 39 28 15 60 35 103 182 197 193 201 189 119 96 78 86 90 99 103 114 118 127 134 152 163 156 157 149 132 129 143 143 152 184 193 209 212 199 189 199 179 171 166 176 170 144 110 96 100 114 135 138 144 160 168 170 172 164 145 131 120 109 94 76 83 73 68 67 66 108 130 118 109 83 46 33 20 27 18 23 30 30 52 34 45 45 39 40 30 29 63 25 34 33 23 19 52 19 130 193 199 197 212 140 78 80 83 132 141 157 150 164 175 180 182 190 188 175 163 159 151 151 152 148 154 182 201 202 209 198 185 178 174 167 171 159 157 124 98 104 123 137 149 145 139 144 159 167 171 171 165 152 150 140 123 111 96 90 69 67 70 80 126 119 111 88 51 34 21 25 22 18 30 39 37 33 44 49 39 48 22 51 39 26 37 27 23 27 38 35 157 195 199 195 208 107 89 94 126 166 183 190 186 190 189 183 171 167 153 131 126 123 122 123 135 146 144 164 190 195 201 191 177 162 167 162 170 145 135 94 96 119 138 127 117 121 125 136 129 147 141 138 142 145 158 155 146 147 122 119 92 81 68 76 117 116 111 89 53 35 30 23 24 13 31 34 39 30 39 39 48 44 23 48 27 24 40 20 24 30 29 57 174 196 197 195 208 103 105 132 174 192 198 203 195 183 174 176 157 168 134 107 108 109 114 106 103 107 116 157 175 187 192 179 168 157 159 156 162 141 101 90 111 130 122 119 116 115 102 112 82 106 103 106 108 125 137 134 152 168 155 136 119 98 92 98 113 112 111 92 54 38 31 22 22 19 29 36 33 37 32 39 52 42 42 36 19 31 31 22 15 33 43 63 183 196 198 194 196 106 127 158 177 196 207 194 180 194 178 153 94 81 101 54 57 127 113 91 92 114 109 125 168 181 175 169 167 156 149 144 151 135 106 109 116 126 112 103 95 90 136 115 46 113 83 43 38 85 106 127 143 146 168 150 136 113 111 102 109 111 104 94 58 40 32 18 23 17 29 36 36 30 33 41 41 44 41 32 23 31 26 24 15 39 59 70 186 196 198 205 182 127 149 180 194 195 183 166 193 126 108 142 65 36 34 96 75 156 162 126 105 91 89 107 175 176 166 169 153 158 148 140 141 134 129 124 116 71 92 106 132 140 183 120 92 81 19 45 48 86 110 67 136 144 123 159 151 131 120 113 111 112 109 94 62 47 29 19 28 23 22 47 36 28 36 44 35 43 31 28 27 33 23 22 15 52 56 83 182 198 200 202 155 143 169 190 198 181 151 174 102 89 195 114 84 82 53 121 96 174 163 127 142 122 120 137 181 171 175 160 153 153 146 143 134 136 148 129 121 110 125 143 144 145 180 170 91 104 60 83 66 95 148 80 53 104 118 121 157 151 135 120 120 121 111 100 68 50 27 25 21 22 31 46 41 24 44 41 36 47 32 27 26 28 22 21 16 50 54 93 184 198 200 196 149 164 190 196 194 153 153 94 63 168 197 169 100 97 117 121 130 171 145 139 137 148 158 179 173 175 176 165 154 153 145 147 138 134 148 140 109 141 148 147 134 143 146 162 130 116 102 92 100 143 147 115 51 51 94 115 143 168 154 138 125 131 114 105 78 49 26 23 27 18 39 42 46 36 39 45 43 44 30 32 23 28 24 19 15 56 68 101 192 201 199 194 181 190 199 203 190 155 87 79 112 148 176 184 160 139 125 157 142 159 152 146 153 173 152 173 175 171 177 168 150 143 140 150 142 132 149 150 116 128 150 153 145 152 150 156 134 137 124 108 120 120 135 126 102 89 65 104 131 173 172 158 158 141 117 110 91 50 30 19 25 27 28 43 45 40 36 53 43 47 28 26 31 27 24 23 25 44 65 118 196 205 196 197 196 204 206 210 188 112 137 134 166 174 153 174 142 181 149 156 168 159 169 154 168 170 172 179 175 173 170 171 155 140 145 148 141 133 141 157 133 133 143 156 157 145 141 162 143 158 146 119 145 115 149 154 154 147 112 125 120 165 174 168 167 149 129 127 90 59 29 23 20 23 32 30 35 46 39 57 36 40 33 34 28 29 23 22 33 44 49 127 202 202 198 204 202 208 208 212 191 171 183 195 204 207 188 198 173 182 170 170 182 169 171 178 176 185 188 180 176 179 172 179 153 150 144 142 144 135 142 150 149 144 152 160 168 166 158 153 144 145 145 135 148 139 154 169 174 174 158 141 130 159 170 168 165 152 139 135 99 61 34 22 26 25 26 28 27 43 51 41 43 41 37 28 30 25 24 17 36 41 68 128 206 200 200 202 203 208 209 206 194 196 198 209 211 209 198 189 184 190 185 182 175 181 190 183 186 197 189 180 172 183 175 179 153 144 152 141 147 143 149 146 149 145 156 155 171 170 175 164 163 158 145 145 142 147 142 165 174 173 171 162 143 153 165 169 169 160 147 137 103 59 35 19 29 29 31 23 31 54 52 39 46 47 24 29 27 27 25 25 38 49 52 141 205 203 203 200 202 210 205 203 201 203 212 208 210 206 192 194 190 189 194 192 186 191 190 191 198 195 188 181 175 179 188 178 154 151 149 137 143 144 151 149 155 150 161 163 164 171 173 176 161 170 164 164 152 155 158 168 172 174 175 166 164 162 160 170 171 165 151 133 100 56 32 23 28 22 30 26 37 45 53 38 52 44 24 30 26 33 26 27 34 51 54 141 208 202 200 202 204 209 204 203 204 205 210 209 207 201 200 194 191 188 194 199 187 191 189 198 199 197 193 177 174 185 190 199 151 164 149 142 139 143 143 151 158 157 157 164 163 164 175 166 169 175 168 167 169 166 163 167 172 176 175 165 171 164 169 168 168 167 153 138 85 63 26 24 27 18 42 27 36 47 40 49 47 47 35 25 27 30 30 35 37 43 60 144 208 203 199 204 202 205 204 204 207 208 208 204 205 202 201 196 199 186 195 194 189 192 194 200 201 198 195 174 174 184 193 201 154 157 150 144 142 140 139 151 162 159 162 167 168 170 165 163 169 169 169 170 167 173 167 170 171 174 171 168 168 165 168 168 164 161 154 133 78 53 24 27 24 25 36 25 44 41 38 41 48 54 24 20 35 100 104 65 50 42 35 135 203 201 201 200 201 204 204 208 206 207 205 205 206 200 200 199 198 193 197 189 191 197 196 202 200 202 187 178 175 169 173 186 161 153 148 146 145 140 134 151 160 156 166 168 172 172 169 168 170 163 166 166 168 166 169 168 173 169 169 167 170 166 170 168 163 156 160 123 76 46 26 22 27 31 29 34 47 38 41 47 37 66 31 25 147 189 197 170 150 75 20 110 201 202 202 197 199 205 207 209 205 206 206 205 207 202 194 198 198 198 195 192 198 198 201 204 204 200 182 182 175 171 171 172 157 158 145 147 142 146 128 151 156 157 168 168 168 170 176 170 174 163 170 170 167 164 170 172 169 166 168 171 174 169 171 162 163 155 154 113 73 42 20 22 24 30 36 56 42 38 49 42 48 61 27 96 195 164 194 206 200 198 22 101 197 204 197 196 196 206 208 209 207 207 207 203 205 203 195 199 198 194 197 198 198 199 203 207 209 195 181 188 182 185 200 177 175 168 154 150 145 140 136 146 154 166 172 165 169 174 181 175 173 173 170 173 167 165 175 173 169 169 170 174 178 177 176 162 162 153 150 103 67 40 24 19 25 27 52 66 46 40 60 40 64 66 0 169 192 88 84 191 207 234 74 90 195 202 193 193 197 203 207 209 204 208 206 203 203 204 196 197 200 194 200 198 197 199 200 210 210 181 181 209 190 194 194 177 198 176 151 164 166 149 132 143 148 168 174 169 169 171 171 174 177 171 174 169 173 166 171 171 171 171 168 172 167 178 177 168 155 151 143 93 60 36 25 20 27 37 62 65 52 37 67 42 77 63 5 199 153 70 91 176 207 223 122 46 188 200 196 191 198 204 208 205 206 208 205 206 201 203 201 200 197 201 201 201 197 201 200 202 195 186 175 206 183 171 162 157 164 157 149 162 204 165 143 134 145 157 164 165 167 171 175 176 179 176 172 169 173 160 164 167 172 168 172 164 168 176 175 164 154 150 135 86 53 33 25 26 37 45 52 53 55 51 56 44 79 51 4 212 154 89 136 193 214 209 143 29 171 203 191 192 199 203 206 206 208 205 203 206 203 202 205 199 200 202 200 202 200 200 199 194 186 186 163 176 171 145 131 136 146 138 134 134 136 132 134 137 137 146 154 166 166 171 176 172 180 178 178 164 171 167 153 165 169 164 166 169 169 172 177 160 149 148 132 74 57 26 24 32 46 55 44 47 51 45 41 50 56 53 0 203 166 106 148 202 210 200 164 60 157 202 185 192 199 200 203 208 205 208 201 205 205 201 203 202 199 203 200 195 200 198 195 182 194 175 158 173 166 133 116 106 115 117 114 112 112 114 117 133 153 141 142 167 168 169 175 171 175 184 174 168 171 173 160 164 168 165 162 169 170 173 168 160 150 146 136 67 51 26 22 36 51 46 41 30 38 38 50 49 49 44 8 197 167 102 157 199 206 200 219 63 131 198 181 191 202 199 205 206 202 205 203 206 203 203 203 201 199 201 199 196 197 189 182 170 193 168 100 104 169 139 94 85 85 87 104 100 85 96 102 122 157 126 137 158 172 172 173 178 178 181 179 168 169 170 165 165 165 163 163 164 163 174 161 156 147 144 134 59 47 24 24 38 44 34 36 26 27 36 43 39 39 43 9 163 184 105 157 202 209 210 212 60 110 194 178 191 201 199 201 205 201 203 205 204 209 202 202 201 199 199 199 198 192 190 175 166 191 134 78 15 142 156 98 70 82 100 104 80 21 20 61 100 150 101 128 154 167 171 179 180 179 176 179 175 169 174 170 165 164 156 165 162 158 156 163 151 148 142 132 56 41 22 31 43 38 29 29 30 24 29 47 35 37 29 22 134 214 108 151 213 209 205 185 49 102 186 174 193 200 200 190 201 198 202 208 203 208 204 200 200 196 196 200 188 176 172 163 177 185 160 92 65 169 149 134 85 80 104 86 96 113 70 31 78 131 74 121 158 161 167 170 175 177 175 176 179 170 170 169 166 169 159 165 161 163 156 157 149 149 138 133 48 36 22 42 73 32 24 24 28 22 36 33 45 26 21 35 78 220 114 163 218 206 195 181 83 76 179 174 192 198 192 190 198 201 204 205 202 205 204 200 201 195 195 193 186 176 172 183 184 189 180 165 137 148 126 126 96 81 75 67 75 122 130 98 116 122 94 112 152 159 169 170 174 174 174 171 173 168 164 173 162 169 158 168 168 157 161 143 145 149 139 134 44 38 22 49 81 24 21 21 25 31 37 33 32 19 28 51 35 209 135 174 215 196 180 180 127 55 171 179 186 190 190 190 199 197 202 205 205 207 204 200 199 194 192 187 177 175 180 192 194 194 181 166 139 141 111 112 91 69 80 63 86 99 108 119 117 126 112 127 151 158 169 167 167 170 170 168 170 166 169 163 165 169 153 162 173 152 151 144 144 147 144 128 43 36 13 72 60 18 19 29 19 37 36 28 23 22 32 61 13 176 163 171 217 174 175 183 132 53 148 172 182 178 177 192 197 197 201 204 204 207 202 198 194 194 186 184 178 183 184 195 199 199 193 141 119 138 110 104 88 78 97 94 108 102 98 107 99 129 140 152 158 158 164 166 166 163 162 164 163 167 166 164 164 162 164 147 173 159 158 145 144 144 138 128 48 32 20 57 38 19 22 26 23 26 25 30 24 30 35 56 11 131 189 174 217 167 181 193 141 56 134 162 162 184 186 189 195 197 203 198 208 207 199 197 189 189 184 175 181 188 189 201 190 184 147 101 112 117 111 106 87 84 106 97 117 91 82 96 82 111 156 155 161 162 157 164 161 160 156 159 161 166 161 160 161 157 162 159 167 171 151 150 142 144 130 123 59 21 20 53 22 24 33 28 38 52 55 74 20 37 31 57 26 80 195 178 210 172 170 190 166 44 115 153 155 185 170 186 194 198 201 203 207 206 200 191 188 184 182 179 184 191 189 187 173 137 109 104 103 118 111 90 73 92 98 99 108 102 75 87 67 85 135 143 153 160 155 162 158 159 157 152 159 154 163 146 159 159 155 167 157 167 152 146 141 150 123 96 69 32 17 87 54 44 63 44 54 71 139 73 17 33 31 49 51 45 184 177 198 179 152 185 177 55 96 136 158 194 172 184 198 201 199 207 206 201 198 192 185 181 182 186 179 193 163 141 146 100 92 86 114 115 115 88 62 97 92 83 103 99 83 76 70 80 91 107 130 137 153 156 161 158 160 153 152 151 159 148 158 157 154 164 156 158 143 153 132 135 120 94 62 31 34 108 112 107 120 100 79 119 131 24 23 32 31 49 51 25 141 189 193 195 186 198 224 69 72 114 163 188 178 190 200 207 197 201 208 193 197 190 185 183 190 188 173 161 131 114 115 103 99 103 104 120 115 81 76 133 94 95 106 97 83 101 81 76 83 90 95 117 124 138 154 160 159 157 151 150 156 152 157 160 160 167 156 148 140 142 134 118 109 86 60 22 62 116 122 129 142 120 133 148 45 18 30 32 31 45 54 38 65 206 186 189 191 201 232 104 35 120 155 179 184 190 194 205 200 201 204 189 192 191 191 180 194 172 147 126 112 111 101 113 124 111 125 122 131 118 146 146 125 127 105 96 96 113 75 81 92 83 86 98 107 102 138 152 146 166 157 155 154 143 157 159 169 160 157 141 136 138 138 110 109 74 71 26 66 109 125 129 139 134 141 63 23 29 30 30 29 50 57 50 14 151 206 191 185 200 228 91 52 104 139 185 181 180 189 200 203 203 204 199 192 189 192 180 175 130 117 122 108 109 106 123 115 116 123 115 130 149 164 172 160 141 108 97 98 87 92 97 99 90 87 97 89 107 119 129 136 154 165 158 153 154 155 164 168 159 155 140 124 129 136 126 104 70 66 23 75 110 127 142 143 133 51 26 27 31 32 31 28 53 65 53 28 51 174 198 184 198 218 147 43 84 126 181 151 178 193 198 198 204 201 201 195 189 176 161 138 95 109 93 118 103 116 154 127 83 112 110 115 124 124 133 110 106 99 83 80 77 77 95 112 81 100 70 89 79 91 108 125 134 157 162 154 162 158 166 160 159 160 143 131 129 105 116 92 75 56 36 91 110 128 141 149 79 18 33 26 32 32 26 33 56 57 50 41 40 48 161 186 200 209 198 52 82 148 169 144 176 182 186 196 203 191 204 195 198 169 146 114 92 99 93 111 109 131 147 111 81 90 98 103 112 106 102 89 81 85 77 73 66 66 68 83 75 105 75 71 67 66 91 113 135 138 163 160 158 161 160 159 160 161 138 126 107 113 106 76 83 42 32 77 98 111 115 73 12 34 30 33 27 31 30 31 53 59 49 51 52 22 72 188 188 192 184 60 79 121 150 154 168 193 181 185 196 194 201 193 188 170 144 79 94 112 103 138 129 122 105 82 70 64 62 55 98 99 81 71 72 77 60 58 51 55 60 57 58 84 72 56 66 61 87 94 125 141 158 163 160 151 161 152 150 145 134 130 95 111 105 82 68 48 33 36 46 43 34 29 28 33 34 27 32 29 30 29 52 58 55 50 48 38 28 86 138 158 151 78 87 120 145 162 168 178 192 185 194 193 193 191 178 182 100 96 102 105 97 125 130 89 77 70 62 70 47 74 123 111 90 62 53 83 81 95 56 60 58 50 45 53 58 52 64 78 81 85 109 113 160 158 162 145 149 143 149 124 130 129 112 108 108 81 58 52 37 24 26 30 22 30 32 28 35 27 29 29 28 34 58 55 54 53 47 44 44 38 52 68 71 53 75 102 135 160 163 176 183 171 193 191 186 198 173 167 127 100 106 97 74 66 79 56 68 67 42 125 91 166 183 148 131 81 110 128 121 130 122 87 88 39 46 39 28 30 69 90 88 85 93 106 153 157 161 141 148 139 149 126 124 112 126 115 97 66 55 51 35 23 27 27 28 26 30 32 27 29 32 27 33 34 63 53 59 52 44 49 47 47 45 48 47 56 62 97 137 154 166 177 182 178 182 192 188 191 173 165 138 93 112 93 93 75 53 29 60 109 37 162 155 190 207 179 171 123 130 171 156 169 160 115 114 43 61 58 67 91 102 105 100 88 97 90 145 156 161 130 151 129 146 121 115 120 121 116 93 70 46 48 37 23 28 26 32 26 30 33 30 27 32 25 32 32 57 56 59 51 48 41 50 45 49 46 45 48 62 81 133 168 146 175 165 178 174 178 183 191 169 167 150 108 131 112 136 153 131 121 112 125 34 157 170 185 205 185 184 178 139 181 168 182 153 112 111 68 105 117 125 130 135 121 112 105 109 96 126 158 151 122 141 126 136 119 111 117 110 103 101 64 55 44 29 25 29 25 32 23 29 33 31 29 30 28 28 30 60 60 55 52 47 41 45 47 47 44 54 37 63 71 134 170 143 187 164 169 169 166 175 188 158 166 147 105 149 126 162 181 169 160 162 157 126 121 131 130 164 146 140 139 112 141 140 135 125 110 120 124 130 130 144 127 134 133 119 104 113 126 121 152 144 127 133 126 128 111 100 113 123 97 96 54 52 41 25 29 28 29 29 26 32 29 32 29 31 29 25 32 54 62 56 52 49 44 38 47 46 48 49 42 63 57 123 148 153 178 150 172 168 156 183 174 171 167 145 114 154 134 178 185 174 168 166 171 160 152 148 137 135 133 125 134 134 132 127 126 119 126 132 131 140 142 153 133 137 146 134 110 105 122 124 151 132 139 133 127 137 122 99 121 126 100 75 49 52 34 25 32 26 31 29 28 31 33 31 29 30 27 34 28 54 63 59 53 51 38 53 42 46 49 49 45 54 76 108 137 166 151 170 170 180 143 176 159 165 164 146 139 159 172 177 182 173 165 170 180 163 174 168 163 152 147 144 144 149 140 133 135 132 136 137 141 139 144 148 145 141 141 148 131 95 116 117 143 121 144 110 122 142 133 103 116 117 103 59 43 44 33 27 27 31 25 28 29 30 33 31 31 32 26 34 32 62 57 60 53 48 41 47 43 52 44 51 42 52 74 63 121 157 138 158 168 171 155 163 171 149 168 157 163 162 178 178 173 163 154 161 170 149 167 157 164 149 146 150 145 145 132 131 125 134 133 129 137 138 146 153 150 145 141 146 131 120 91 108 133 114 134 119 110 128 133 102 102 97 95 52 42 35 31 31 25 28 27 24 31 30 34 33 31 33 32 34 28 57 65 58 54 52 44 43 47 45 43 50 46 53 65 63 112 131 137 158 155 163 161 165 162 161 169 179 180 175 186 185 165 129 146 165 158 148 144 140 132 126 119 133 126 106 110 111 116 115 118 118 134 137 146 150 150 151 147 140 140 141 109 90 124 110 127 123 114 126 108 98 96 82 76 52 47 37 30 31 23 27 27 26 30 31 29 29 30 32 30 26 36 55 63 59 54 53 42 45 53 44 50 47 43 48 51 70 82 119 130 161 152 162 155 167 153 169 164 183 182 180 189 189 174 144 148 165 169 149 152 136 120 97 103 118 88 91 94 97 102 112 116 125 127 135 140 147 145 151 139 143 135 145 130 104 111 104 118 114 108 115 104 86 96 85 69 51 46 32 23 32 27 23 29 30 29 34 28 32 29 31 32 28 33 57 62 56 55 51 41 45 52 45 48 47 43 53 50 48 68 111 135 159 154 142 169 159 167 169 165 167 176 179 181 185 163 154 164 164 171 148 143 129 120 98 101 102 84 96 101 111 97 120 107 124 125 129 134 139 142 146 149 136 128 133 131 109 121 103 112 112 106 112 117 84 87 81 62 40 36 27 29 28 27 26 28 27 31 31 28 32 30 30 28 37 29 57 67 55 52 53 43 43 43 45 52 48 43 54 35 62 54 85 121 152 159 149 162 159 164 166 175 165 159 177 173 181 166 163 173 152 152 137 125 117 110 83 107 86 79 94 89 98 83 103 105 110 120 118 132 143 131 145 136 135 103 109 129 110 110 120 109 100 118 96 115 79 82 79 43 42 30 30 29 23 30 23 30 28 26 32 30 32 30 31 30 32 30 61 59 59 57 48 47 47 40 49 49 51 42 51 34 69 59 50 113 139 135 148 147 160 165 170 171 176 154 180 181 181 184 174 166 150 143 128 127 98 108 92 84 92 68 81 78 83 79 96 99 102 124 112 135 131 131 140 138 126 90 99 115 117 106 111 117 88 124 96 104 83 65 71 45 36 25 31 27 27 26 27 33 27 31 29 33 31 31 29 31 33 29 59 62 61 56 54 53 44 46 45 49 49 46 44 42 57 66 34 89 130 136 159 144 147 147 170 167 168 161 161 178 190 182 178 165 170 128 127 116 102 119 98 76 89 70 62 68 78 93 86 99 107 120 111 122 128 142 138 143 119 97 90 95 98 117 102 105 79 98 94 88 59 60 40 50 35 28 27 28 26 25 29 31 31 26 30 30 29 32 30 31 32 34 63 61 57 58 51 52 48 51 47 45 49 44 47 46 44 92 35 56 101 141 146 137 157 143 154 159 148 156 170 185 190 181 177 177 179 131 133 115 128 132 103 79 81 67 76 68 62 95 86 97 110 120 122 124 135 133 128 141 136 99 67 89 84 115 83 88 99 91 97 61 46 49 39 42 35 23 28 28 29 28 25 32 29 30 30 28 33 32 28 31 28 35 60 62 58 53 57 54 52 49 47 45 48 45 48 43 23 134 54 32 82 123 127 136 154 147 150 145 128 160 177 183 175 181 184 181 175 144 151 125 145 133 117 86 90 72 77 92 72 94 94 115 135 116 136 138 126 121 113 122 123 110 77 94 102 109 87 91 88 100 76 61 49 30 42 54 30 26 27 26 27 30 29 27 32 26 29 30 30 34 30 31 30 33 62 58 58 50 54 49 53 54 46 51 43 48 46 49 13 158 92 38 50 105 114 140 110 131 129 135 120 149 169 158 162 184 171 160 171 160 155 151 137 126 115 79 77 97 74 97 99 102 122 136 144 113 140 145 110 119 103 115 127 102 82 72 102 89 85 100 90 93 79 58 39 32 36 61 19 29 24 29 28 24 31 26 30 29 33 26 35 32 32 26 32 32 61 62 56 50 58 53 55 54 54 46 51 45 42 52 7 155 135 52 41 61 99 119 112 121 131 105 116 118 153 137 153 172 152 122 165 148 165 142 124 139 91 66 113 95 62 105 99 120 128 140 133 110 126 130 109 120 98 123 113 100 87 55 98 65 83 92 88 71 73 51 43 20 64 56 23 28 22 32 24 30 27 25 31 26 33 26 36 31 31 32 30 34 57 57 54 54 51 64 52 49 57 48 50 46 46 56 1 153 148 83 41 41 93 113 99 105 121 94 93 102 149 125 163 159 142 120 158 141 138 110 131 121 101 57 117 80 88 93 107 130 110 130 110 119 114 107 118 113 119 94 105 85 87 66 76 64 81 77 83 66 53 48 30 31 100 48 17 27 27 28 25 27 30 26 29 29 29 28 33 29 30 27 38 34 56 64 57 54 52 58 52 52 54 52 52 47 44 31 52 157 165 128 61 38 59 103 107 99 99 94 82 112 126 130 152 141 135 118 133 135 124 110 120 95 87 77 107 103 103 90 118 127 109 117 101 110 117 101 118 104 103 103 86 74 94 91 67 74 80 71 76 61 38 40 16 84 129 26 19 25 31 25 27 30 26 31 27 27 28 31 33 31 34 29 35 39 57 60 60 52 56 55 54 52 55 54 49 47 30 136 156 148 165 171 82 36 50 71 107 83 88 87 85 104 112 112 150 138 101 123 108 126 134 124 104 96 104 88 106 107 84 91 126 106 124 89 98 101 95 115 119 97 85 103 86 76 64 96 52 66 64 67 61 66 27 20 47 124 128 24 20 25 29 27 25 31 28 27 32 30 31 26 33 31 30 31 31 36 55 58 55 59 53 57 55 50 58 55 44 41 172 196 85 143 169 172 126 49 54 46 77 59 77 69 86 89 95 136 123 126 103 114 107 123 136 123 102 116 96 81 108 111 65 108 118 87 114 91 94 95 71 105 95 75 82 78 94 55 56 72 59 62 41 64 58 51 28 45 91 141 112 17 27 22 30 26 26 31 26 25 31 29 34 28 29 31 34 27 34 30 63 53 56 56 56 55 58 53 57 40 79 185 201 154 59 147 173 167 166 126 98 31 54 49 72 62 62 72 90 126 116 113 94 98 97 129 122 108 95 121 75 64 110 88 57 111 103 86 86 88 85 85 65 90 96 58 60 59 81 52 47 58 51 56 55 52 46 29 60 99 128 136 101 13 26 28 28 33 24 26 29 30 27 31 27 33 28 28 34 28 32 38 57 59 55 60 53 54 52 58 35 106 202 176 154 133 70 150 169 173 176 167 170 63 33 45 73 51 54 65 80 99 114 99 89 77 111 105 114 102 72 104 62 63 88 96 40 95 93 64 62 88 96 84 59 72 82 46 46 52 55 48 43 42 44 53 46 34 38 66 104 129 122 139 80 13 24 27 30 27 25 28 26 30 29 30 31 30 26 31 27 30 35 32 58 58 54 55 54 52 55 37 124 213 174 150 143 126 60 155 170 175 170 172 188 124 32 41 52 49 59 54 63 84 102 87 68 67 92 89 93 95 70 79 41 72 69 92 52 76 76 58 52 75 76 70 59 63 75 29 41 52 44 41 38 46 42 50 33 33 66 117 116 131 123 127 96 14 25 25 33 20 32 25 25 31 28 29 32 26 26 32 28 32 32 33 61 50 56 54 55 58 28 133 211 175 153 150 136 115 71 157 172 172 171 178 170 179 102 43 48 51 57 42 42 57 69 80 63 69 63 75 67 92 73 74 49 57 61 78 65 59 54 60 54 68 63 54 52 47 60 36 37 35 44 38 36 37 47 40 21 65 98 121 124 125 130 103 141 76 18 26 27 31 28 29 26 28 29 30 32 27 26 32 34 31 33 34 61 51 61 52 58 43 78 226 157 156 158 144 132 144 47 161 171 174 173 176 161 178 171 85 54 60 35 47 42 41 45 53 58 63 58 72 47 70 72 56 41 43 54 69 67 49 39 57 50 36 56 50 31 50 52 36 36 31 35 33 37 41 33 22 55 101 117 121 122 126 122 117 60 165 68 19 29 22 28 31 27 27 31 27 29 28 31 29 32 30 30 38 60 56 52 52 39 67 208 193 132 151 141 144 136 157 11 166 170 173 174 172 174 172 177 142 101 84 41 44 43 38 31 47 49 60 40 55 51 48 57 45 40 38 40 58 53 49 37 41 40 37 48 38 40 40 51 23 40 29 30 36 29 33 19 51 97 112 120 122 124 124 125 114 28 97 166 64 17 27 23 27 29 26 28 29 29 29 31 32 29 33 32 35 62 48 49 51 138 213 219 135 142 131 137 153 156 130 0 152 174 172 178 169 175 173 175 170 145 133 105 25 35 35 36 39 52 43 31 49 36 52 44 37 32 39 35 47 45 45 41 33 30 39 41 32 46 32 29 28 34 29 28 34 25 19 44 103 100 115 122 121 122 122 131 84 39 69 121 158 33 22 25 28 28 26 29 29 30 25 30 28 32 30 33 32 56 25 92 198 213 220 180 131 129 139 114 161 157 74 9 125 175 175 178 176 174 175 169 169 157 163 152 74 22 33 36 47 42 38 32 39 41 38 36 35 30 34 34 45 46 38 44 36 34 33 35 29 37 25 23 32 25 36 33 26 28 56 98 104 105 113 118 122 120 123 132 61 39 73 102 141 154 18 22 28 29 25 29 30 31 31 27 29 30 32 31 30 43 110 215 213 207 220 169 130 138 125 139 139 163 38 102 77 167 173 178 177 184 169 168 169 167 164 163 151 53 64 41 43 36 44 34 41 39 32 37 31 37 28 40 34 41 41 34 45 31 34 37 33 29 23 28 30 27 36 18 43 68 98 106 102 111 109 123 122 118 121 137 21 34 74 85 137 179 130 7 27 32 29 29 26 38 25 30 31 31 31 31 36 