P2
92
112
255
48 44 49 49 49 49 51 49 50 46 55 48 51 44 52 50 52 52 49 47 51 51 51 48 53 48 51 48 46 51 48 46 48 49 47 52 43 54 43 54 48 44 46 46 50 36 33 32 31 33 39 41 40 43 40 44 34 34 27 27 24 26 25 22 36 32 33 40 38 41 41 40 43 39 44 44 42 43 40 44 40 37 43 42 38 43 43 42 39 40 39 37 49 45 47 49 48 51 48 51 46 51 51 48 49 48 49 52 51 52 51 49 50 48 53 46 48 48 48 48 47 49 49 49 47 45 48 42 44 44 43 43 40 38 34 37 36 33 23 24 26 20 26 26 33 27 35 37 27 29 28 28 24 26 28 26 28 38 31 28 30 33 39 33 36 40 44 39 48 40 41 43 41 43 40 41 40 42 37 41 41 39 40 37 45 42 51 47 49 50 49 51 48 49 48 52 47 54 49 49 53 45 53 48 50 53 49 53 49 49 51 47 53 47 51 44 50 43 41 37 45 39 38 38 36 34 47 31 27 32 27 25 23 26 15 24 26 16 26 26 23 26 23 24 24 26 25 28 26 32 30 32 34 29 39 31 34 33 43 44 36 43 39 42 39 43 45 37 40 42 40 40 39 36 40 34 46 46 46 50 46 54 46 52 49 50 51 50 49 50 53 47 51 50 53 52 49 51 51 50 47 54 51 42 46 48 43 41 42 47 40 43 44 41 37 36 29 33 40 38 36 35 32 33 24 30 18 24 21 25 20 27 21 29 26 25 21 25 26 29 27 26 28 36 34 36 36 31 36 31 37 46 32 43 40 40 42 43 38 42 40 40 39 40 41 37 40 41 45 47 47 48 50 48 50 50 49 51 50 53 50 43 59 47 48 52 53 51 49 56 49 51 47 33 42 30 36 33 48 51 48 42 46 41 35 36 27 29 27 30 31 33 24 32 34 40 34 31 31 25 23 21 25 25 27 30 28 28 26 27 22 24 38 29 30 36 28 33 33 33 32 38 35 40 36 38 37 40 38 41 42 40 39 38 42 38 42 40 38 40 44 48 46 48 46 48 49 52 50 49 51 50 49 47 55 52 47 54 54 50 49 48 39 32 32 22 28 30 37 41 46 44 47 44 39 36 35 30 30 27 29 30 25 33 24 33 25 42 40 35 38 36 25 27 32 29 29 38 30 32 32 30 28 31 32 30 25 31 27 31 31 28 35 33 32 35 35 40 41 39 39 42 43 38 41 36 42 38 41 38 42 38 46 48 48 48 48 49 46 52 51 50 51 51 51 49 52 55 48 51 55 47 45 35 35 29 24 25 33 47 39 35 43 41 37 34 38 32 38 32 33 30 37 27 37 39 35 35 30 30 39 37 45 30 42 26 43 30 36 40 34 40 33 35 28 33 25 31 27 30 30 31 28 30 28 28 31 39 33 33 40 37 43 52 41 44 40 44 41 41 41 39 41 35 50 47 47 50 50 46 48 52 47 50 55 48 48 51 49 54 51 52 45 52 32 34 32 31 37 40 44 39 39 44 39 37 37 42 36 40 38 42 36 38 38 37 43 46 40 45 37 38 43 35 46 37 43 35 38 37 49 41 45 48 38 42 28 28 34 38 30 34 28 28 28 25 26 24 26 31 31 30 34 35 36 44 44 44 40 42 47 38 43 40 40 40 46 51 46 48 53 47 50 49 50 51 50 46 49 50 51 48 54 50 45 37 28 29 31 39 46 53 41 40 44 46 40 38 43 43 44 45 50 39 37 40 41 27 49 46 37 45 42 43 47 40 34 42 34 48 34 61 54 48 52 47 47 46 32 31 41 36 34 30 40 28 29 23 29 30 25 27 28 27 29 34 37 38 40 39 41 39 41 40 41 40 40 42 46 48 51 48 53 46 51 51 52 46 48 48 45 50 51 57 53 38 34 30 33 38 43 46 44 47 41 45 43 42 46 51 49 42 50 42 45 38 34 35 37 34 41 40 32 39 40 53 30 41 37 42 31 43 53 59 65 48 59 51 56 53 35 37 40 33 26 28 29 33 32 20 28 28 29 30 26 26 29 30 32 37 36 37 43 41 38 43 39 43 41 40 43 51 51 48 49 51 50 45 55 48 46 49 50 52 48 53 43 19 30 27 38 47 52 42 42 44 51 46 54 39 40 52 45 50 43 39 28 36 30 37 36 33 35 35 32 32 44 38 51 32 34 47 32 52 50 47 65 34 51 52 69 53 36 34 40 18 22 22 27 27 33 35 31 32 28 30 32 24 26 28 37 36 33 38 40 40 41 41 42 41 43 42 46 52 46 54 46 50 55 47 54 48 54 50 55 50 46 41 33 29 25 40 50 52 44 48 47 46 56 45 51 45 42 46 38 32 31 29 38 33 32 32 27 33 33 36 32 32 33 39 40 35 28 54 31 58 33 57 37 38 47 56 62 51 26 42 23 18 19 25 30 28 25 30 33 41 30 32 26 31 25 27 32 28 36 32 37 41 40 42 38 47 40 41 49 57 48 51 52 50 52 48 49 52 55 46 50 52 43 31 34 31 41 50 47 55 40 42 49 41 54 61 48 47 46 37 35 33 35 38 41 29 28 28 26 29 32 35 33 34 38 40 32 44 26 54 36 53 47 40 33 33 52 55 41 36 28 33 22 24 29 35 30 33 31 31 34 38 41 41 31 24 24 24 30 25 37 31 33 34 44 37 43 39 42 38 45 61 45 49 50 53 49 51 50 49 47 46 52 44 36 33 31 41 47 49 52 55 31 36 38 36 56 59 47 41 41 39 39 43 44 34 27 26 26 29 24 29 30 39 40 34 38 39 42 40 45 49 41 39 41 37 27 42 53 36 32 28 31 25 42 20 29 28 32 36 28 34 29 36 35 37 40 38 32 24 29 24 35 32 33 37 37 44 42 41 40 45 51 53 50 46 52 47 49 55 52 46 48 44 49 41 50 42 42 40 52 53 48 37 31 39 45 41 49 54 38 42 38 44 47 46 38 30 22 28 26 23 28 30 33 40 52 43 40 41 48 37 61 47 49 29 44 36 37 45 35 26 29 30 25 24 26 24 23 24 30 27 32 25 31 32 30 29 30 36 33 29 28 25 26 33 28 33 37 39 46 42 39 43 52 51 51 49 54 50 54 56 49 49 49 53 46 42 59 47 45 43 52 43 40 37 36 40 55 48 45 50 42 42 43 50 54 46 35 25 24 40 40 39 50 50 48 54 73 54 47 47 51 48 58 45 45 36 39 43 41 41 26 28 29 28 24 24 22 21 20 29 18 30 28 30 33 30 37 32 37 28 30 31 28 28 22 32 27 37 33 37 40 39 43 42 61 48 49 51 55 53 51 54 48 55 52 54 40 50 57 44 41 45 46 40 38 46 38 39 50 42 44 48 43 45 54 54 56 42 40 39 58 82 81 86 101 95 94 80 94 72 66 57 58 52 55 45 46 52 44 49 39 44 35 38 31 34 25 30 20 28 19 23 25 28 40 31 31 35 32 30 37 35 36 32 25 26 27 30 33 33 36 31 39 40 39 39 54 52 51 50 55 50 53 53 49 53 51 47 55 57 41 41 41 44 35 41 44 45 36 43 47 58 55 42 47 47 63 69 46 40 69 85 109 125 128 127 130 130 128 118 112 102 89 66 74 55 59 60 67 69 62 69 70 62 68 72 64 61 52 37 32 26 25 18 25 38 46 32 26 30 36 36 32 32 35 28 36 26 29 28 39 39 37 32 36 43 38 43 48 51 58 51 50 48 57 56 49 50 63 53 66 47 39 42 42 40 32 47 53 41 39 55 69 61 57 40 49 73 71 64 48 69 102 115 130 138 136 142 146 147 144 149 130 126 115 90 87 77 89 86 91 105 104 102 99 105 111 105 106 97 94 76 65 52 33 30 27 46 48 28 31 28 36 38 31 32 34 36 39 30 30 31 36 42 34 31 33 40 42 47 53 54 56 54 49 54 56 55 53 64 63 56 57 35 39 37 47 40 29 60 45 42 55 75 69 67 40 40 66 71 69 65 79 105 123 135 143 142 144 152 153 153 152 158 151 145 132 125 112 110 109 110 120 131 124 127 124 117 129 118 118 116 110 105 102 90 77 54 37 50 45 28 32 37 27 32 47 29 30 26 33 26 30 33 31 42 29 30 36 37 38 49 53 59 50 56 54 57 55 59 64 57 58 51 35 39 38 40 46 33 41 53 41 55 77 77 63 41 47 57 65 65 64 89 118 128 142 147 153 152 149 159 157 156 158 160 162 152 150 144 137 137 128 136 144 144 143 139 139 136 130 130 127 126 122 115 110 102 100 83 62 55 38 27 34 37 34 32 38 31 22 27 21 33 29 34 34 39 31 30 36 36 36 51 50 53 52 54 55 61 57 64 54 52 50 36 48 39 36 47 44 38 53 46 63 77 64 63 39 41 56 56 70 66 92 130 142 153 156 161 162 161 155 162 164 161 167 161 166 161 156 159 155 156 146 150 154 150 152 151 143 142 134 142 137 133 133 126 123 119 114 89 90 65 42 29 27 34 37 41 35 31 25 26 22 26 28 28 35 42 35 32 36 38 33 44 53 54 49 55 58 57 57 49 52 41 43 43 39 20 51 49 41 51 46 74 86 65 56 46 59 44 58 75 75 87 138 159 163 167 170 167 173 170 168 166 168 166 169 166 167 172 163 166 167 165 161 158 160 157 161 156 153 149 142 149 144 146 144 138 134 132 128 116 89 91 50 34 28 32 31 45 39 35 31 24 27 28 28 26 34 53 35 36 32 34 38 33 51 50 55 51 56 44 46 53 46 38 51 44 33 36 47 43 51 39 53 103 60 54 52 63 67 52 73 90 88 133 169 172 177 177 184 181 179 177 179 171 175 171 170 169 172 172 171 170 167 166 165 164 160 165 161 158 155 150 154 150 149 149 146 145 142 145 139 129 113 102 80 43 25 21 32 44 42 36 39 25 22 28 25 35 30 56 41 36 29 34 39 31 56 59 50 52 52 42 55 46 42 54 42 38 33 47 46 36 51 42 76 71 57 56 67 71 58 71 92 101 131 174 179 180 183 186 187 189 188 183 183 177 175 172 174 174 177 180 173 172 168 171 166 172 168 164 166 159 155 158 157 155 157 153 150 151 154 149 145 140 133 117 108 70 37 16 32 33 54 34 40 38 20 25 30 35 32 43 41 33 37 36 36 39 63 57 52 55 42 60 56 46 54 47 37 34 40 45 43 40 43 73 66 59 72 74 65 59 77 103 118 135 181 188 182 186 190 190 189 191 190 185 184 182 176 177 180 177 180 181 174 167 171 177 177 174 176 171 168 165 158 159 164 159 158 154 156 151 156 152 149 148 142 130 113 109 66 28 22 24 51 41 46 40 34 20 35 28 37 40 38 38 35 34 35 43 63 57 61 58 47 68 56 52 48 40 36 37 48 26 46 39 59 81 66 64 79 79 58 76 116 141 150 191 187 192 190 192 190 190 190 190 186 184 188 189 182 186 187 182 184 184 178 174 173 178 175 176 175 177 172 167 165 166 165 161 156 156 159 160 153 158 151 153 145 143 123 120 106 68 38 27 24 57 46 44 45 27 31 32 34 38 40 32 40 29 33 45 61 62 65 58 61 63 57 54 40 34 42 33 44 25 42 46 77 85 72 73 67 72 92 131 159 165 190 199 189 194 192 192 189 188 188 188 180 183 185 190 184 187 185 188 185 185 184 179 172 185 178 172 177 176 172 169 168 172 166 160 161 159 162 160 156 157 150 157 150 148 135 124 122 96 69 49 21 36 51 47 40 33 28 35 33 41 39 29 39 32 33 39 70 64 61 64 61 55 59 36 44 43 36 30 39 35 31 64 91 86 72 77 74 114 158 169 173 195 201 196 194 193 193 192 188 185 183 182 179 177 181 181 177 180 180 180 177 181 184 180 176 181 179 174 174 173 174 168 171 170 168 160 162 161 161 160 157 159 151 158 152 153 147 127 121 112 91 71 44 21 45 42 36 34 27 35 32 41 36 34 35 39 32 35 57 64 56 61 67 59 47 45 43 54 32 30 36 36 45 65 87 76 62 93 137 163 181 184 199 200 197 194 195 194 191 189 188 185 184 181 184 176 177 175 176 174 176 177 178 178 176 177 176 174 177 171 176 171 168 173 165 165 168 161 163 159 162 157 159 162 155 160 158 157 151 137 123 118 103 88 61 37 36 37 31 28 33 32 40 38 38 32 35 36 46 31 63 59 60 66 65 54 58 50 44 50 28 36 25 44 55 65 73 49 94 154 181 182 192 198 199 200 197 195 196 195 190 190 187 185 183 182 183 178 173 175 170 172 172 172 173 173 171 175 173 171 173 169 174 171 166 169 163 163 163 162 162 162 158 159 160 161 161 159 159 155 153 145 130 125 114 95 83 44 30 43 24 30 32 40 39 36 37 39 38 35 41 42 64 63 62 61 59 55 62 48 41 50 31 31 27 63 58 69 52 74 164 197 199 198 198 200 199 197 198 197 193 195 192 191 189 186 188 182 184 182 175 173 171 171 172 168 171 171 167 176 171 168 171 173 160 168 165 162 166 164 161 162 161 163 159 159 157 162 156 158 160 155 152 153 138 133 117 106 85 63 28 36 31 29 37 46 41 39 31 45 41 37 33 43 50 73 61 61 54 55 48 48 35 50 28 24 50 65 58 69 42 142 204 203 203 202 199 199 198 195 197 194 194 193 192 194 192 186 190 186 186 184 184 180 174 173 172 164 169 169 163 170 170 169 171 174 161 166 165 160 171 165 161 161 160 163 159 163 158 154 160 157 163 153 156 154 143 143 124 108 87 75 35 27 36 29 40 43 47 36 33 39 48 38 44 33 56 66 62 49 50 52 46 35 41 47 21 36 61 60 65 48 75 184 205 203 202 202 201 197 200 196 196 197 193 194 193 195 192 191 193 191 189 191 185 186 177 175 175 171 169 167 169 171 172 170 174 173 167 174 170 165 161 166 158 161 160 158 165 160 156 161 161 152 159 156 159 159 149 143 132 116 89 79 30 22 39 33 38 44 39 37 39 34 44 48 44 43 48 69 53 43 43 50 48 28 56 45 21 46 63 57 44 48 132 196 201 200 203 203 200 197 197 195 194 193 193 195 192 194 195 195 194 194 196 193 192 194 185 186 174 176 173 172 172 176 175 178 173 175 175 179 173 167 164 165 165 166 161 164 163 161 160 164 160 155 156 161 161 162 156 146 145 125 90 78 38 20 29 32 38 48 29 29 48 42 38 52 53 42 52 74 43 47 45 48 47 25 62 33 35 55 52 53 21 77 176 195 199 202 202 203 201 191 193 193 190 189 189 194 191 194 194 195 198 195 203 196 197 200 198 188 190 188 183 181 181 181 180 183 179 181 184 178 179 167 169 165 170 167 166 166 166 163 160 161 159 162 159 160 162 165 163 152 149 139 100 73 46 18 24 36 35 35 36 22 49 41 36 56 49 43 53 65 42 41 55 41 36 34 51 35 41 52 56 29 22 130 191 195 200 201 203 201 197 193 188 189 186 183 180 185 184 185 193 196 199 198 198 200 197 196 201 195 197 195 191 187 183 188 187 191 186 189 194 185 183 171 171 170 169 168 169 167 167 163 156 161 158 165 158 161 166 168 168 163 153 138 107 80 39 23 24 36 44 27 29 23 46 42 30 58 49 36 62 53 46 41 61 33 36 34 47 35 49 52 45 19 58 165 192 196 200 199 202 199 191 192 183 178 176 162 166 172 176 179 188 192 195 195 193 196 194 187 197 197 195 194 198 195 188 195 193 194 187 188 195 184 181 175 173 173 169 165 164 163 157 157 158 156 158 160 155 158 164 167 169 170 160 140 111 78 40 25 19 34 47 29 19 24 41 47 28 54 52 40 64 58 43 54 53 33 40 41 53 44 53 37 36 27 101 177 191 195 199 197 197 192 187 187 164 154 133 138 141 156 159 166 171 176 174 176 177 177 182 175 193 190 196 192 195 198 187 189 196 188 179 186 191 179 174 170 173 170 166 161 154 154 148 145 147 144 149 150 148 153 154 163 167 172 162 137 103 91 41 19 20 36 38 37 22 26 38 45 39 51 55 36 59 77 47 55 41 36 40 37 56 46 42 29 39 53 132 184 191 195 197 197 189 188 179 134 121 109 96 109 112 123 122 115 121 127 123 120 129 143 155 160 182 186 189 194 191 194 185 184 189 180 169 180 177 164 158 158 156 157 159 151 147 147 141 136 136 136 142 138 149 151 146 155 164 166 164 135 100 99 33 24 22 29 26 32 25 29 37 41 41 54 51 39 64 82 62 50 42 30 45 31 48 44 27 33 66 81 146 194 192 197 197 195 187 166 113 94 97 72 73 80 89 74 83 69 64 78 65 84 84 95 114 152 163 182 185 190 189 193 179 179 178 173 163 166 161 146 133 122 120 125 126 128 131 128 128 115 121 121 128 126 132 147 150 149 158 158 162 129 105 91 38 24 22 22 22 27 30 31 37 44 39 51 46 43 82 77 67 40 33 34 47 34 44 37 17 49 63 98 168 196 190 196 193 196 154 99 91 90 85 83 65 65 66 53 50 51 47 52 56 60 73 63 90 128 156 180 185 188 189 190 178 175 172 166 159 150 144 131 91 80 82 86 86 77 84 90 92 92 91 95 97 103 107 121 148 150 155 157 156 124 103 94 36 25 17 23 21 24 26 31 41 43 42 52 52 36 57 77 47 32 26 64 26 39 38 25 17 58 37 126 186 194 195 194 194 163 100 87 86 76 82 77 66 58 55 67 60 48 42 48 56 66 66 73 83 121 145 183 197 192 188 188 182 174 170 165 150 146 123 101 60 64 55 66 52 58 53 51 58 57 56 67 69 71 69 73 122 149 152 154 148 121 110 86 39 24 17 22 19 23 31 33 38 44 40 63 42 33 49 65 33 28 54 48 23 39 33 20 28 41 44 165 192 198 194 200 171 103 95 73 86 102 97 100 107 105 107 109 118 118 104 100 98 103 111 109 114 125 158 189 211 197 192 199 193 171 169 169 159 134 110 85 63 59 45 48 39 39 50 51 35 45 42 45 48 57 55 43 70 123 140 152 143 119 114 84 34 23 20 18 24 27 28 35 43 33 51 72 29 30 46 56 23 36 51 26 33 34 27 17 36 30 82 193 189 199 191 201 118 86 79 94 144 141 152 146 159 167 170 174 182 173 160 158 148 137 137 148 151 162 183 199 215 200 191 208 191 174 169 178 172 137 105 81 71 70 55 55 44 48 38 48 44 43 32 44 32 47 50 48 53 80 123 148 140 119 119 88 32 20 20 18 25 25 25 36 42 31 71 59 25 26 45 43 24 48 36 24 34 27 25 23 36 38 122 198 192 194 195 191 108 92 117 146 174 188 187 184 186 188 181 187 178 161 150 145 149 146 151 153 153 171 200 201 209 204 190 194 181 172 171 175 164 132 106 85 84 92 99 100 108 114 114 96 77 66 55 52 48 47 55 68 59 61 87 139 135 122 119 86 36 23 16 16 25 21 34 34 30 43 87 51 28 33 50 20 50 43 28 26 33 24 20 28 38 46 148 198 192 196 193 180 103 124 150 186 198 202 196 188 186 175 166 193 157 124 117 114 112 114 122 140 147 153 185 196 206 197 188 173 170 171 173 159 154 121 95 102 114 129 146 153 152 169 177 171 150 138 123 96 81 74 65 64 72 63 71 107 134 124 121 91 33 21 16 19 27 27 36 33 33 58 75 38 32 26 38 40 54 36 27 31 29 23 21 28 75 45 168 193 195 198 197 171 119 156 176 187 201 199 187 199 182 158 128 103 116 68 71 104 105 98 109 102 117 150 162 185 203 188 173 161 164 163 171 150 137 91 92 121 133 140 142 137 136 159 175 174 163 160 151 138 128 108 89 83 72 72 68 72 123 124 117 88 40 22 16 22 28 27 28 30 46 54 49 41 41 26 28 50 34 34 25 31 26 21 17 47 74 61 179 189 199 195 192 146 149 171 192 199 184 172 190 149 79 182 59 47 102 62 72 140 137 90 85 107 118 133 176 184 189 174 166 157 159 155 163 137 104 84 107 129 119 112 122 127 122 143 146 159 127 146 151 152 147 134 122 93 94 69 70 59 101 126 115 87 36 23 21 26 23 23 29 30 51 37 47 42 46 25 40 37 31 34 29 28 25 16 26 51 58 94 183 195 198 197 166 150 177 192 199 193 146 166 121 83 196 194 81 67 28 108 96 160 163 125 110 92 89 132 189 183 170 165 162 159 151 142 152 120 89 103 111 128 117 109 102 106 96 70 98 93 94 117 118 139 148 153 154 120 118 89 72 68 97 122 114 87 36 20 27 23 19 24 29 35 38 34 47 46 47 24 36 34 30 33 28 28 23 18 36 63 67 116 191 196 199 193 181 181 194 201 201 163 142 101 61 161 196 177 82 102 108 113 120 177 160 128 129 121 111 142 194 168 169 165 151 158 152 135 139 125 107 111 86 89 88 104 113 165 120 41 147 50 44 50 86 123 127 147 169 146 133 110 84 92 102 111 113 91 31 23 32 20 23 18 36 29 36 34 47 49 44 35 33 30 38 33 26 28 23 21 44 56 57 140 196 202 198 195 196 200 207 206 201 147 98 92 105 139 192 201 170 125 118 145 141 163 138 140 135 154 158 176 179 172 179 159 149 155 148 139 133 135 128 121 73 89 166 141 154 195 109 98 71 18 61 44 111 62 104 154 130 152 142 122 109 106 109 108 105 92 32 28 32 23 19 23 35 35 36 34 40 45 43 44 38 37 30 34 28 28 18 30 43 58 57 158 201 200 198 201 203 207 208 212 187 135 148 153 155 160 137 171 146 153 136 169 139 163 142 150 154 169 153 176 175 173 176 165 151 156 148 143 131 141 143 115 126 110 187 130 150 187 148 100 91 58 98 60 133 112 38 113 119 126 150 134 119 111 107 111 98 90 34 30 24 21 19 24 39 40 37 30 39 43 36 53 38 27 29 31 30 23 25 39 43 66 61 178 201 200 201 204 203 208 208 205 189 180 186 197 202 198 181 191 175 173 165 176 173 162 160 156 166 171 175 180 176 169 175 164 148 142 146 146 132 141 151 120 117 148 151 140 153 147 166 128 103 92 91 115 143 139 60 39 108 102 145 148 131 117 118 117 100 85 49 23 23 23 25 28 37 43 34 30 42 33 37 57 32 32 32 28 31 28 33 37 52 63 62 194 202 203 201 202 202 208 204 198 197 198 202 208 208 203 196 188 183 188 178 175 169 171 172 182 179 188 183 186 175 173 173 167 152 143 148 140 134 139 149 139 118 143 156 150 154 151 151 128 127 116 124 133 141 143 97 56 55 102 128 159 151 130 121 125 106 86 47 27 25 26 22 27 41 43 28 40 37 39 43 51 34 32 27 27 34 33 36 40 45 56 88 197 202 204 201 205 204 208 203 197 202 203 207 206 210 199 190 189 189 189 191 188 180 190 187 184 190 192 185 180 174 178 175 171 156 149 145 141 135 136 147 150 132 139 157 159 151 145 158 139 149 119 113 115 120 144 129 130 79 89 123 161 168 155 146 129 103 93 52 22 21 28 23 39 48 44 40 38 39 36 44 54 30 20 20 95 148 119 72 39 44 55 96 200 202 203 198 205 203 205 201 201 203 202 208 207 203 198 198 192 191 194 198 192 189 192 189 193 197 191 188 185 172 184 181 172 147 151 140 141 140 142 147 146 142 151 154 169 163 156 152 146 151 142 136 156 137 171 169 164 143 129 123 165 178 165 159 142 117 94 56 19 24 26 25 36 44 55 47 33 41 45 52 48 50 13 98 184 199 200 180 128 55 17 95 196 204 201 200 201 204 203 203 205 207 202 204 203 203 199 201 193 196 191 200 193 191 187 192 194 199 192 193 175 176 178 200 167 155 151 139 138 143 154 149 147 147 156 151 172 165 163 158 155 152 149 143 154 144 165 185 179 175 149 135 162 179 165 158 147 130 109 56 22 23 27 24 29 35 46 53 39 54 33 59 47 45 33 191 179 135 206 206 205 144 17 82 196 203 200 202 199 203 204 203 206 204 203 205 203 200 199 202 197 197 193 196 189 190 190 195 198 199 197 192 168 183 185 207 182 155 161 140 136 140 150 159 154 154 159 161 166 169 168 160 159 156 159 149 152 148 169 183 186 179 166 152 158 174 171 158 151 138 111 46 25 22 26 30 24 31 36 44 43 46 40 52 50 15 79 201 135 48 154 207 209 213 42 94 197 204 200 198 196 201 207 206 205 203 204 203 203 204 193 199 197 198 196 192 191 195 192 200 198 199 202 180 174 172 191 209 180 147 157 146 136 139 141 159 157 161 164 163 167 165 170 160 167 165 164 161 159 159 173 180 185 179 170 170 165 169 170 165 148 139 110 46 19 24 30 26 26 34 25 62 41 37 51 38 49 15 123 189 96 107 172 203 202 216 64 78 203 200 197 195 197 203 207 207 205 205 206 204 201 203 200 193 200 194 195 195 196 195 196 200 204 203 197 173 185 165 174 196 171 157 149 146 144 133 142 160 163 167 165 174 172 165 164 165 166 164 165 168 169 165 172 178 183 176 167 173 171 174 168 162 150 136 94 38 16 27 27 24 26 36 32 58 48 30 54 40 45 12 150 191 100 144 193 209 199 215 73 53 205 200 198 194 196 202 208 209 205 205 205 204 202 203 201 194 200 193 197 196 197 198 199 203 209 208 185 179 179 170 170 178 162 154 149 144 144 140 137 156 164 167 177 169 172 169 165 169 163 166 163 169 172 166 173 174 180 171 171 173 174 172 165 160 150 130 79 35 17 26 21 30 32 38 43 38 47 40 50 35 52 14 159 187 103 156 198 207 190 194 101 60 195 199 196 192 198 204 210 203 207 205 205 206 200 203 202 198 199 197 198 200 196 199 199 205 207 200 177 187 184 182 197 180 167 166 151 144 145 141 134 149 162 172 172 170 169 178 169 173 161 169 164 163 167 169 173 174 174 169 170 173 175 171 163 155 154 119 64 25 22 23 27 27 30 42 43 30 44 45 52 29 63 17 167 182 103 160 199 203 199 222 116 76 188 200 189 194 200 202 206 207 207 206 204 202 204 200 204 201 198 202 203 200 199 200 200 201 198 188 182 202 195 194 199 175 188 178 153 162 158 145 132 146 158 176 169 169 174 179 176 172 170 169 170 161 165 175 173 168 172 172 175 177 176 165 158 153 150 105 55 17 21 25 30 30 36 43 34 35 49 34 64 32 53 22 154 192 108 156 207 206 211 212 96 71 179 197 183 195 201 202 203 208 206 207 203 202 206 199 203 203 200 203 203 200 203 199 199 191 186 189 179 194 195 175 166 160 167 165 146 175 202 154 132 144 151 174 169 167 171 173 176 175 172 170 171 168 170 173 170 174 173 178 184 186 178 164 157 149 143 88 38 19 19 23 32 36 55 44 31 40 53 33 68 47 34 25 131 209 100 172 214 207 203 188 93 72 169 195 181 193 203 200 205 206 203 204 203 203 203 202 203 202 200 202 202 197 204 196 191 177 190 189 166 171 180 149 137 142 152 144 136 145 157 140 140 137 139 157 162 167 171 176 174 172 172 168 172 166 169 173 178 172 173 179 175 182 178 162 152 145 132 67 31 21 22 22 25 64 62 42 34 50 49 59 58 51 24 24 90 209 111 194 214 200 191 185 104 60 170 186 177 196 203 202 200 204 205 202 203 204 206 202 205 201 200 204 201 197 198 189 177 176 199 181 142 179 174 132 116 114 130 120 116 117 114 125 127 143 131 149 165 158 170 175 174 178 176 167 174 166 165 168 173 172 174 170 170 181 174 159 149 143 116 52 19 28 14 37 36 67 60 50 31 61 38 69 53 46 28 46 57 210 122 207 203 183 183 180 160 45 159 187 179 198 200 200 192 199 200 201 205 205 207 203 202 200 200 199 201 199 188 187 167 175 189 142 59 67 181 136 94 87 89 98 104 104 106 109 115 145 125 142 166 161 166 172 169 178 174 168 168 168 158 166 171 166 171 173 170 178 172 153 146 140 93 45 20 18 35 48 50 45 56 45 49 46 43 71 50 46 28 52 39 213 139 209 193 167 180 176 161 43 145 186 184 192 197 193 193 197 202 203 203 202 205 205 202 199 200 197 200 188 172 167 164 191 185 131 76 24 177 144 84 69 85 99 77 40 32 74 109 152 94 142 159 168 165 176 170 178 174 169 166 174 164 167 173 161 168 172 169 173 163 150 140 139 75 31 17 25 45 54 47 48 43 48 43 33 48 54 47 30 37 51 19 205 160 209 186 167 190 182 169 37 135 178 178 188 189 190 193 200 200 201 205 205 204 205 202 204 197 200 194 189 170 178 181 196 181 156 117 131 167 143 120 72 96 99 87 73 32 25 85 142 66 131 161 157 173 174 173 174 175 172 168 173 165 168 169 160 167 161 172 164 153 148 142 130 58 26 18 30 36 43 41 32 30 42 39 40 44 42 36 29 25 61 9 183 166 207 179 160 178 192 173 43 135 172 167 181 181 183 190 196 200 200 204 204 205 204 201 202 195 196 186 181 174 190 196 192 190 161 170 172 134 120 118 90 84 75 75 122 113 66 108 120 67 117 159 163 168 173 172 173 176 171 173 168 168 166 158 163 166 152 158 162 150 142 139 117 39 28 16 33 37 34 31 28 28 33 33 42 35 40 27 24 31 53 15 134 177 193 180 152 163 191 154 45 110 163 154 163 185 186 191 194 199 202 201 206 205 202 198 199 196 192 185 186 185 197 198 193 194 186 156 147 130 109 102 82 80 66 78 97 119 119 122 121 96 114 157 164 166 169 174 170 175 173 169 169 165 168 160 161 157 160 148 155 145 144 135 101 34 19 17 47 36 31 22 28 23 29 36 39 28 32 22 29 33 49 36 76 195 187 196 191 188 211 180 47 101 143 150 170 188 173 183 196 197 201 204 208 206 200 199 193 199 188 188 192 193 199 194 188 186 158 114 128 126 111 100 86 96 95 103 92 99 108 115 127 125 133 156 166 165 170 170 170 169 169 167 167 165 169 151 165 158 158 152 144 140 142 132 92 28 19 22 58 32 21 21 26 24 27 30 48 25 20 29 30 31 58 60 41 195 190 184 196 200 209 218 36 81 122 134 172 195 176 184 200 201 201 206 206 206 199 199 191 194 191 189 194 194 197 184 164 148 115 101 117 113 107 101 90 109 102 122 83 91 93 106 132 145 156 163 165 164 165 165 165 168 166 165 169 162 169 148 164 160 146 146 137 137 141 130 70 23 17 42 64 19 22 20 22 33 31 31 35 18 25 33 35 28 59 54 36 125 208 191 187 200 206 214 38 85 100 143 162 186 178 193 200 206 197 205 205 200 201 198 194 195 193 188 196 182 162 165 138 103 109 92 106 127 100 74 95 100 107 110 82 86 87 83 137 151 162 168 165 166 165 158 163 164 167 164 164 162 164 152 151 164 146 149 136 141 135 128 56 23 14 52 54 16 20 25 22 31 31 22 24 19 33 35 33 31 61 52 44 43 163 194 188 198 205 208 57 76 99 131 155 179 184 189 195 207 199 204 202 194 201 198 197 197 198 173 190 138 131 130 123 88 87 93 111 115 105 62 84 94 90 105 95 77 72 72 115 146 157 169 169 162 165 160 161 161 165 164 158 161 150 168 142 175 141 156 133 136 132 116 52 21 18 52 30 18 26 22 28 23 24 26 26 28 31 35 33 28 57 56 48 46 43 178 192 200 204 220 111 45 99 126 125 190 169 181 194 202 204 205 206 197 202 201 195 198 191 163 146 112 117 100 103 114 90 97 105 115 96 53 110 85 99 100 89 84 75 73 89 113 134 156 166 171 162 162 158 158 160 157 153 158 152 159 150 167 140 149 136 146 112 100 52 19 16 96 22 27 51 29 59 51 41 30 33 37 28 35 31 37 60 60 55 51 27 125 194 197 197 212 95 72 95 121 162 171 151 189 193 201 202 207 205 203 200 199 194 188 155 126 120 102 117 96 109 125 103 113 128 112 102 105 131 105 115 105 90 93 94 70 81 96 101 128 151 169 169 166 158 154 158 159 152 158 154 157 153 148 145 137 131 128 111 76 54 23 39 125 99 82 75 45 60 104 44 30 32 32 36 34 33 31 58 59 53 53 47 31 125 168 179 179 94 71 94 103 140 160 152 172 185 193 202 204 204 205 204 189 179 140 103 111 113 116 116 99 126 131 97 139 134 129 142 168 148 141 122 96 91 106 76 69 94 81 81 107 111 145 167 168 167 155 162 155 160 160 154 163 154 138 142 129 122 114 91 80 40 19 82 120 130 135 118 117 133 71 20 27 31 33 34 32 32 33 57 57 50 54 45 44 36 64 94 91 70 83 95 121 135 148 155 188 185 189 195 198 206 205 207 183 154 114 93 104 101 110 111 116 154 153 110 103 116 115 126 137 153 132 115 100 91 96 91 83 92 80 91 87 110 115 155 160 172 167 159 154 157 158 168 157 151 127 137 127 115 104 74 76 41 34 97 124 131 135 138 144 92 13 30 31 34 35 33 35 30 29 61 60 49 54 46 43 52 44 50 43 48 88 76 103 134 152 168 168 188 192 194 199 204 198 198 182 141 81 104 118 116 136 118 137 152 135 102 85 95 99 107 119 113 98 89 80 71 84 97 112 88 100 76 88 91 113 125 147 167 171 162 159 160 162 166 159 144 127 118 126 122 103 71 69 38 41 104 122 132 138 132 79 24 28 31 27 35 32 31 33 28 38 62 53 60 48 52 47 51 49 49 39 49 81 72 93 122 141 166 166 189 176 193 198 199 202 191 187 89 94 115 130 146 170 136 120 115 95 70 59 55 69 108 107 93 86 74 70 70 77 85 97 80 112 73 83 69 88 106 129 150 169 166 161 167 165 159 156 141 132 122 103 109 86 73 67 37 64 110 121 135 149 96 16 29 28 34 31 34 31 29 34 26 33 65 56 52 52 50 47 52 47 50 38 43 73 69 84 121 175 154 164 190 177 188 197 196 204 180 185 101 113 131 120 132 132 108 96 92 67 49 32 74 80 82 89 65 77 65 47 52 60 70 70 75 104 82 56 70 72 92 116 135 160 165 161 167 166 156 161 138 130 108 99 98 72 76 52 33 57 95 104 120 101 23 26 32 29 31 31 32 33 30 32 33 29 58 57 59 49 45 51 51 52 46 42 39 64 68 90 115 180 143 171 174 177 181 188 199 196 184 177 113 113 125 110 103 73 92 110 78 34 45 48 131 116 118 78 64 77 66 65 51 49 67 62 61 77 77 74 66 79 84 101 138 158 167 162 155 161 149 142 134 128 88 102 96 70 72 44 41 30 43 52 54 30 27 28 32 29 29 34 28 33 33 33 30 29 65 55 57 49 50 47 49 48 44 45 38 71 73 80 132 155 152 187 163 173 180 175 194 192 175 175 130 127 131 127 141 136 128 141 117 44 52 73 189 154 167 130 68 103 87 94 85 46 55 55 48 42 76 94 80 91 87 94 116 154 163 163 144 152 142 131 116 122 104 96 99 59 69 43 42 24 27 28 33 28 30 27 34 30 28 31 32 29 34 27 32 31 62 57 56 49 50 48 49 51 45 46 36 71 76 87 134 134 167 167 156 177 172 175 187 192 158 177 114 136 137 152 173 179 159 161 151 113 76 34 157 138 156 161 77 112 110 125 97 43 56 85 74 75 103 110 90 104 88 86 105 150 160 158 143 144 138 120 117 107 115 98 77 53 58 46 37 24 31 27 28 30 33 26 31 32 26 30 33 31 33 28 33 33 61 60 53 50 49 48 52 50 46 44 47 65 67 78 105 129 168 142 175 175 169 174 181 179 173 162 112 141 142 168 179 175 168 164 164 153 112 92 99 68 101 112 75 98 87 114 84 82 116 123 116 127 134 121 100 108 89 96 93 143 157 153 139 132 141 113 107 114 111 98 72 65 45 44 36 23 31 29 28 33 32 27 30 30 29 33 30 32 34 32 32 32 64 54 51 59 47 46 54 48 46 46 41 62 70 80 95 129 152 150 165 172 164 165 178 165 163 151 128 155 167 177 173 168 159 165 172 165 139 124 111 107 115 128 109 120 114 115 114 117 132 127 128 141 129 119 111 104 94 109 87 137 149 143 125 125 129 114 99 113 94 108 63 58 57 40 26 24 30 28 31 30 33 33 28 32 29 29 33 34 36 28 35 32 52 63 51 60 51 49 49 47 49 45 48 53 60 75 92 116 119 147 160 164 167 170 175 164 154 155 168 156 171 179 155 169 145 154 171 160 161 149 121 126 121 117 131 129 134 125 120 126 141 131 136 136 123 116 124 106 104 109 112 127 147 134 125 119 122 109 83 120 98 88 62 58 48 33 25 31 27 31 25 33 33 30 30 34 29 29 28 32 34 28 32 30 54 71 47 59 53 45 48 50 45 44 49 49 60 73 60 119 131 157 166 159 168 169 166 166 163 174 189 178 177 188 158 152 131 142 154 143 160 150 151 143 137 133 145 137 129 135 131 131 131 133 120 115 125 122 127 116 92 105 118 134 141 124 130 122 131 109 103 117 104 70 56 46 41 33 27 28 27 32 26 31 30 33 31 29 30 32 30 31 30 29 31 29 56 60 51 61 56 48 53 45 50 42 53 41 76 53 60 106 118 148 170 148 172 167 170 174 163 173 188 181 187 185 171 149 128 143 142 122 134 120 133 128 122 130 133 126 123 123 123 126 123 111 115 127 136 130 129 123 114 90 106 122 131 134 110 115 132 121 89 111 99 51 49 41 44 23 28 24 30 28 31 27 30 30 29 29 34 31 30 32 29 33 31 33 56 57 52 58 59 54 47 49 48 44 49 37 93 62 52 91 122 144 158 152 167 159 168 170 172 160 174 177 176 182 161 147 147 150 160 131 121 102 106 92 105 104 95 98 100 102 101 100 104 107 122 132 145 128 131 122 126 89 97 114 113 123 115 111 117 111 82 92 81 61 44 44 35 26 29 28 29 28 29 29 32 26 35 31 34 28 32 32 32 25 35 33 57 55 53 60 49 59 53 47 53 41 51 36 79 66 58 61 119 139 132 154 153 162 169 167 176 167 156 172 171 175 159 148 160 152 152 131 122 100 78 62 79 85 64 63 70 75 87 98 106 111 128 139 142 129 135 128 139 107 85 107 105 112 119 111 97 86 95 74 64 52 48 47 25 33 22 31 29 25 33 30 32 30 30 30 32 29 28 34 28 33 30 33 54 52 51 59 50 60 53 49 48 45 47 32 88 74 56 47 114 128 149 164 146 149 152 169 163 174 154 176 174 179 174 163 151 143 130 124 106 91 74 46 63 75 49 65 67 75 92 94 103 111 128 135 131 135 139 123 137 123 97 108 96 107 107 104 102 84 88 78 64 49 42 39 27 30 26 35 23 32 27 30 31 29 30 32 30 29 31 32 29 32 29 34 56 57 57 55 57 55 57 49 45 49 46 24 117 72 57 41 110 107 150 142 149 155 136 159 157 148 155 158 182 186 171 170 146 151 127 110 113 73 79 45 73 53 54 73 58 69 80 86 102 105 138 119 138 134 134 111 120 120 98 108 99 98 103 92 108 78 77 79 44 47 37 32 30 25 29 32 29 27 30 30 30 28 29 32 30 29 30 31 31 32 27 39 52 54 53 61 57 58 55 49 46 49 48 24 120 109 49 48 80 114 123 144 139 157 145 150 141 137 169 173 190 181 175 165 162 148 112 112 96 80 91 46 79 46 59 65 60 69 83 80 105 106 130 115 133 129 127 84 94 116 98 103 103 85 99 91 95 84 63 73 36 48 36 29 28 29 24 31 27 30 30 26 36 25 29 29 32 29 30 31 34 29 32 33 55 55 58 56 56 54 57 53 48 49 47 23 132 138 58 53 75 93 107 132 136 118 127 146 119 142 167 176 180 176 178 169 163 151 113 119 97 114 88 55 66 51 60 53 73 68 83 86 99 108 118 130 130 129 111 88 83 98 100 97 98 75 91 87 92 63 56 55 44 45 38 26 28 29 33 27 30 29 29 30 29 31 32 29 32 28 33 30 30 34 34 33 54 51 58 55 61 56 56 56 54 49 45 27 123 164 56 55 63 72 111 116 126 113 133 123 119 129 152 162 154 182 174 164 162 140 137 120 116 117 101 62 79 45 78 46 72 75 81 94 105 112 120 130 124 136 114 82 69 76 87 97 80 82 73 88 73 43 54 38 42 44 38 23 30 28 31 25 31 31 30 24 31 35 26 34 29 32 30 32 30 31 31 36 55 57 57 56 64 59 60 58 51 55 51 25 128 183 91 50 55 78 108 116 115 114 115 99 99 102 151 132 157 168 160 134 156 149 150 143 123 124 99 68 79 55 89 68 80 83 103 111 118 128 124 119 111 122 119 95 58 95 85 79 75 78 85 79 52 48 42 46 28 65 26 27 25 29 28 25 28 29 31 31 31 32 32 30 29 37 26 34 31 29 31 31 53 61 58 54 61 59 61 58 54 58 53 29 128 183 146 36 60 70 97 108 124 111 99 110 86 105 140 121 167 161 147 113 146 146 146 143 111 124 82 59 92 67 83 95 94 114 135 113 122 136 113 117 95 115 116 77 68 82 82 74 75 78 91 60 63 40 38 32 44 70 22 21 32 26 29 29 28 24 31 30 29 32 26 32 31 32 30 27 34 30 28 33 54 58 56 54 57 60 61 62 53 52 43 74 146 180 180 54 44 56 95 101 114 90 88 98 87 124 122 134 155 137 137 121 147 126 129 112 121 114 70 84 94 54 87 99 115 122 139 114 125 135 108 116 97 113 118 87 51 78 73 65 86 84 76 73 55 48 31 19 66 57 19 25 29 28 27 25 27 32 27 28 33 30 32 28 34 32 25 35 32 31 31 30 54 61 55 59 53 60 58 58 49 53 161 189 141 174 174 113 50 53 61 89 80 73 80 74 93 105 106 123 152 136 106 116 117 110 116 97 113 94 69 86 82 90 86 111 122 104 123 114 117 117 118 112 108 103 92 76 67 55 64 65 77 71 57 57 46 48 25 18 118 31 21 26 28 28 29 25 30 28 29 29 28 31 32 27 34 30 32 31 30 33 29 33 57 55 54 57 57 62 52 46 64 192 188 119 134 181 180 177 126 66 57 72 67 65 73 63 77 102 111 140 134 124 100 114 118 109 125 99 95 88 88 86 109 77 95 125 119 99 107 106 118 97 116 108 106 91 80 67 92 56 58 69 66 75 60 42 52 45 22 66 118 21 24 29 25 25 27 26 27 30 28 33 24 33 25 33 29 29 32 28 33 32 29 35 64 56 54 54 58 55 44 96 198 194 152 88 142 179 181 183 187 91 42 66 62 76 54 58 69 92 107 124 127 106 103 99 115 106 130 98 103 99 88 101 90 73 105 116 106 101 100 98 102 108 119 100 87 96 84 48 96 50 55 60 62 63 66 43 43 29 29 121 100 14 26 26 28 26 30 25 28 31 27 30 32 29 29 28 30 31 35 29 35 33 32 35 55 55 59 52 57 37 120 204 170 155 132 88 156 173 181 178 195 139 32 56 43 77 57 56 66 80 98 114 104 105 86 98 117 123 108 93 115 83 67 109 80 75 114 103 101 97 103 91 75 102 98 87 74 90 75 46 66 58 50 47 63 60 72 44 35 27 70 143 75 13 29 27 28 23 28 31 26 31 29 28 30 28 28 28 30 31 36 29 34 34 35 34 53 56 55 53 36 137 214 168 151 140 125 76 158 173 182 186 177 189 95 39 48 77 56 65 45 57 84 104 92 83 59 107 102 110 101 85 105 70 55 101 81 60 113 96 81 82 98 79 74 84 92 56 65 65 67 41 55 51 46 59 54 60 61 37 39 72 112 144 53 14 27 29 25 25 26 30 26 31 34 23 29 32 24 32 31 31 34 33 36 34 32 38 54 59 56 32 148 210 170 155 143 138 110 91 159 176 180 189 174 189 168 55 52 69 62 57 38 47 51 82 86 66 70 82 87 94 100 80 74 60 75 77 98 45 103 74 58 72 102 81 60 70 73 55 34 56 51 50 34 49 46 52 44 53 61 37 85 107 124 142 33 22 29 27 26 29 27 28 27 28 30 31 25 33 23 33 30 33 35 28 38 35 33 39 55 60 36 107 218 157 161 156 144 129 138 53 164 176 180 181 185 185 187 119 70 67 51 53 45 43 43 50 66 59 82 55 73 75 97 75 65 59 63 59 100 54 71 64 59 62 83 69 58 60 67 30 43 43 41 36 40 44 47 51 48 51 63 87 114 125 120 137 51 23 27 28 25 28 29 27 27 31 30 27 33 27 28 30 30 32 34 31 38 36 38 41 52 45 65 215 175 138 152 145 134 145 128 21 174 172 182 178 187 188 188 155 129 88 42 52 43 37 38 39 49 65 63 46 70 53 81 62 56 46 50 61 85 62 39 63 53 61 64 52 50 49 50 30 35 38 41 37 34 42 48 37 42 47 76 112 125 121 130 98 161 39 16 28 24 29 26 28 30 25 37 21 33 31 27 31 31 29 34 33 37 37 40 40 42 131 213 207 135 144 133 142 154 152 85 26 174 174 180 184 184 186 187 169 163 146 87 39 39 36 35 42 46 59 43 39 61 46 54 55 39 42 44 58 63 56 39 51 52 33 57 45 33 53 38 36 26 34 35 34 41 41 43 30 46 67 101 123 123 125 127 68 130 142 18 27 25 26 28 28 27 29 31 25 34 26 31 29 30 32 33 35 34 43 37 39 194 212 222 161 144 124 133 138 154 150 33 67 151 173 183 181 189 180 187 181 167 172 124 56 40 32 41 53 50 44 37 41 48 46 51 43 30 39 44 49 57 50 43 37 36 39 46 38 34 47 36 27 39 24 32 32 31 34 29 41 65 96 124 121 124 122 130 51 97 155 98 17 22 27 31 25 31 29 26 33 26 29 26 30 28 28 35 33 38 37 40 42 211 209 224 151 131 139 132 129 165 132 38 124 114 176 177 180 187 185 185 183 172 170 160 87 57 39 42 44 38 48 35 44 42 38 41 34 33 33 45 39 57 42 42 34 35 39 36 37 35 29 26 31 28 26 40 23 32 27 25 85 93 111 120 125 122 121 122 32 91 132 175 54 19 27 30 28 31 33 27 33 24 31 28 32 33 33 31 33 38 38 35 44 