P2
92
112
255
44 48 45 47 48 46 46 50 50 49 49 49 46 45 46 50 46 52 47 50 48 41 39 33 19 24 21 26 24 21 24 23 27 21 32 30 27 33 17 36 27 30 28 32 25 24 26 36 25 40 29 25 27 25 25 23 32 28 33 32 35 30 37 30 32 29 34 35 38 41 35 44 40 43 42 42 43 41 43 37 43 42 38 41 37 42 43 36 40 39 40 40 47 49 46 47 47 52 44 51 50 52 46 54 47 46 51 48 52 46 42 50 31 31 28 27 24 22 25 19 31 25 31 32 29 27 34 35 30 39 29 44 32 28 37 29 27 32 30 45 25 38 24 37 27 34 31 33 29 26 31 27 30 29 34 31 29 31 36 31 32 39 37 41 38 41 42 40 44 36 43 41 40 41 40 43 32 46 40 40 39 40 42 38 44 47 51 44 49 52 44 51 48 49 49 49 46 50 50 50 58 41 37 42 35 38 33 36 35 33 26 28 28 29 31 28 32 27 33 39 37 41 46 48 37 34 39 24 37 30 37 33 32 33 33 39 29 34 27 36 36 37 25 32 26 32 27 26 32 29 30 32 33 32 37 40 35 39 41 42 40 41 43 38 45 41 38 40 43 37 41 38 41 39 42 41 45 45 51 47 50 48 48 44 52 47 49 51 46 46 48 46 39 37 43 32 52 38 40 44 36 40 38 39 39 34 42 30 36 37 34 46 46 43 47 45 41 47 33 30 39 32 35 26 30 30 32 35 34 32 33 31 27 38 28 36 29 26 26 28 23 34 23 30 31 31 31 33 37 36 40 45 41 43 37 38 44 39 42 43 45 37 41 43 39 39 44 39 43 49 49 51 44 50 52 49 52 49 49 55 42 40 45 38 34 35 42 35 47 47 38 46 47 46 46 47 45 43 56 31 42 37 42 61 54 39 60 45 54 40 39 32 40 32 21 21 23 27 25 33 29 28 28 32 30 41 33 36 35 28 30 24 27 24 22 26 28 33 24 29 31 32 38 39 35 45 39 41 37 41 45 43 40 44 35 46 38 44 39 42 46 45 52 50 44 49 51 52 50 53 50 47 38 41 40 37 36 44 34 37 37 35 32 32 40 40 42 51 48 47 51 45 46 37 51 68 58 38 69 39 55 44 42 37 39 24 23 17 25 26 28 21 26 25 28 34 38 39 38 45 42 29 33 30 33 25 23 28 28 26 28 27 38 28 34 41 34 42 38 42 38 39 42 42 42 40 41 44 39 44 35 46 51 47 47 50 46 52 48 52 48 50 44 42 40 37 36 38 42 37 35 30 41 27 36 44 33 46 42 43 47 57 47 30 47 45 58 56 58 38 53 47 54 57 54 26 40 19 18 20 25 25 30 28 32 28 30 35 36 29 35 40 39 40 35 32 33 31 38 22 26 29 29 23 37 32 29 29 41 40 37 40 39 38 41 40 39 43 42 42 44 37 41 44 52 46 49 44 51 50 44 44 41 42 44 36 44 34 35 38 39 28 37 30 37 54 48 42 48 42 52 51 52 39 50 31 27 58 55 52 50 34 41 41 53 60 48 27 31 20 21 29 22 37 23 32 27 30 29 30 29 36 32 37 38 36 42 34 33 32 39 32 30 32 28 25 27 28 30 30 33 37 40 38 35 38 41 42 34 44 41 42 40 42 39 43 52 43 50 48 50 37 30 37 36 35 41 37 46 45 37 36 34 31 37 41 42 54 60 51 47 46 51 53 47 41 41 41 23 50 52 52 36 39 38 37 66 46 34 31 22 26 28 27 20 30 24 27 27 24 30 26 28 29 33 42 37 37 42 40 36 32 29 37 39 29 29 30 24 28 23 34 34 34 36 35 38 34 37 42 35 39 43 40 45 40 42 42 51 47 53 44 30 25 30 35 36 32 37 38 47 46 38 34 40 44 48 50 41 43 57 50 49 44 56 57 38 42 34 52 28 43 38 58 37 45 31 49 60 26 31 30 26 33 23 17 30 18 23 24 31 21 34 33 24 33 33 35 40 40 43 45 40 46 30 27 37 36 39 27 27 27 24 28 34 35 31 35 33 36 36 40 41 37 42 39 44 42 39 45 55 44 42 29 23 26 38 32 41 30 41 51 57 44 37 41 49 46 48 51 38 38 38 45 38 38 52 48 56 36 30 55 38 41 43 58 43 36 32 53 36 21 31 25 29 22 23 21 25 18 24 23 34 39 27 28 27 31 29 33 34 40 45 38 39 44 42 33 26 42 44 26 30 25 30 33 27 36 29 34 37 36 37 44 41 43 41 43 40 43 43 41 53 36 33 32 35 48 36 42 41 49 47 46 48 41 43 53 47 43 46 43 31 40 31 42 38 32 41 47 37 49 27 52 52 45 41 62 46 23 45 48 29 22 30 34 20 27 27 21 27 19 29 23 40 53 38 33 23 26 32 35 37 33 37 34 31 31 37 39 34 29 43 41 32 30 30 26 27 30 37 33 34 40 35 40 41 39 48 46 42 43 46 36 41 31 40 37 41 59 51 46 58 58 55 46 43 50 44 48 42 36 32 34 37 35 35 35 39 33 35 40 40 37 36 52 49 50 54 55 41 29 46 45 24 32 35 33 32 34 34 32 32 31 24 28 50 58 41 32 40 28 24 32 47 42 34 28 25 26 34 34 28 33 36 41 40 40 27 23 29 34 35 39 32 38 38 39 38 36 40 60 38 42 42 41 40 29 34 44 56 64 37 52 56 40 50 53 45 51 43 40 33 35 27 36 26 33 32 31 35 34 34 50 40 37 39 58 57 43 67 47 31 50 41 42 30 50 52 59 69 76 66 53 66 54 49 39 51 53 43 30 45 37 40 29 38 34 42 28 30 27 24 23 35 30 37 33 44 46 38 26 27 36 30 31 33 41 42 43 50 48 48 36 46 43 43 40 39 33 46 54 55 46 39 53 50 47 52 48 40 34 35 33 24 40 29 36 33 29 36 28 32 50 41 41 50 41 40 65 61 52 60 53 47 48 54 59 67 92 100 105 108 113 113 104 105 104 96 74 67 48 42 34 31 45 43 43 35 33 33 41 26 29 30 21 30 32 36 39 33 41 47 41 31 25 34 35 39 44 46 40 52 44 60 55 32 44 43 44 34 37 62 57 54 40 45 42 44 55 52 42 37 45 40 31 35 34 32 30 22 34 29 33 37 50 62 51 46 53 52 71 63 64 65 66 62 71 93 98 107 123 128 128 125 131 123 125 121 114 122 97 95 63 49 32 33 31 46 49 40 34 36 41 33 22 24 27 31 29 24 38 37 29 44 31 40 26 26 43 39 42 37 49 42 42 49 56 40 53 39 44 41 51 66 65 55 47 60 38 57 52 43 41 42 49 41 37 36 28 30 29 30 31 36 43 55 63 84 77 60 61 68 65 75 77 86 86 101 118 117 118 136 144 136 135 134 134 129 130 123 123 128 115 106 94 70 48 42 32 29 41 47 40 40 42 42 32 29 25 34 37 18 41 38 33 36 34 35 31 27 30 42 45 36 39 42 46 47 44 36 38 37 45 40 71 66 65 62 46 47 53 57 54 44 45 36 55 42 45 29 27 43 35 53 65 78 84 94 94 112 104 90 81 90 76 92 109 100 121 133 135 140 135 139 144 144 143 140 140 142 138 133 136 133 128 117 115 91 81 63 45 34 23 39 52 38 46 38 45 40 31 25 45 24 30 37 37 31 34 43 28 35 31 37 55 34 32 31 36 46 32 32 33 33 32 66 77 70 68 45 39 40 55 61 56 45 42 38 52 49 49 35 49 69 80 99 106 119 131 129 135 133 132 131 109 111 101 116 122 125 144 150 152 157 154 154 148 151 154 150 150 149 143 146 144 143 142 132 132 121 110 91 76 65 34 24 37 49 43 45 51 57 45 19 38 37 30 29 37 33 33 37 40 32 29 33 49 44 33 27 28 38 32 37 41 37 32 77 79 77 50 35 41 51 57 62 57 44 43 36 60 63 62 62 92 117 125 135 138 145 150 154 160 165 151 153 141 140 133 144 137 148 163 160 163 164 163 163 154 159 162 160 158 156 148 155 152 152 149 141 142 136 128 124 105 98 77 57 37 36 58 52 45 54 47 32 17 42 34 28 31 31 42 28 40 38 34 34 34 50 40 31 29 26 35 36 44 39 30 83 80 63 38 51 47 58 57 47 57 48 41 42 74 61 73 100 121 125 140 141 146 156 165 165 170 174 170 161 164 159 161 159 160 166 170 173 171 172 170 168 168 167 170 166 165 160 157 160 159 157 154 151 148 140 140 133 132 119 110 94 87 48 62 49 53 37 47 34 18 27 44 30 25 38 38 34 31 37 39 29 33 43 42 37 26 26 33 28 38 36 36 88 66 56 56 56 40 60 52 51 65 46 41 62 68 57 90 120 129 135 149 150 156 169 170 172 174 176 178 173 174 172 175 175 173 177 175 178 177 180 172 171 170 174 172 173 171 163 164 162 163 162 157 159 153 146 146 133 139 131 120 111 101 89 59 65 46 41 37 30 29 23 35 40 20 45 36 37 39 23 46 36 31 37 37 47 38 26 28 28 30 27 37 78 52 62 63 52 45 71 50 82 71 47 49 74 56 89 108 132 141 149 160 163 164 174 178 177 178 180 179 182 180 179 180 184 183 181 179 184 181 181 175 178 175 180 183 181 175 167 167 166 164 164 159 159 157 154 151 138 141 136 127 117 118 101 89 62 57 42 34 26 29 28 32 36 31 34 34 39 52 28 40 34 32 38 38 37 54 27 26 29 33 31 42 78 40 67 66 40 63 73 66 97 62 50 60 68 66 106 127 146 155 166 173 175 173 177 178 182 181 184 181 182 188 182 184 185 185 184 183 189 182 187 183 187 181 188 189 186 176 172 172 169 162 164 159 156 159 155 153 151 140 144 134 122 120 109 109 82 59 57 38 28 30 27 38 33 34 39 28 52 44 43 34 40 33 31 37 31 47 49 30 30 33 36 31 73 31 85 52 58 70 60 104 78 63 58 64 64 80 124 144 165 172 178 182 182 182 179 184 186 180 184 186 183 190 187 184 188 187 191 188 193 193 191 189 191 192 191 191 185 187 174 174 170 164 168 160 159 160 157 156 151 149 148 140 131 124 119 111 102 76 59 53 29 32 27 40 37 33 44 39 44 53 45 39 40 28 36 34 32 35 52 36 35 29 31 28 66 42 79 49 65 73 80 105 65 64 65 82 64 108 145 161 181 184 186 189 186 189 186 188 189 184 185 188 189 191 186 188 188 189 194 191 197 193 195 194 194 191 193 191 186 183 179 175 167 165 162 166 163 161 161 156 155 151 150 150 142 131 125 120 102 96 65 47 35 30 29 35 36 25 32 53 40 57 44 39 43 36 26 45 30 37 47 33 40 33 34 29 54 60 52 61 79 83 101 74 64 64 81 91 75 144 158 183 194 191 192 193 191 192 191 190 184 184 190 189 191 192 193 193 191 191 189 196 197 195 196 196 192 188 192 191 185 180 176 171 170 166 165 164 160 164 162 158 154 154 152 151 149 137 133 129 113 102 74 52 37 30 30 36 32 30 21 46 37 49 51 43 44 45 35 45 43 33 47 41 34 41 29 37 49 62 51 84 88 88 92 62 82 76 99 86 100 164 187 192 197 197 195 195 192 193 194 188 186 188 193 187 194 195 196 195 193 192 190 202 193 194 195 195 192 186 186 184 189 177 183 169 172 162 166 164 160 163 162 164 157 156 158 156 150 146 138 129 120 106 89 61 39 35 31 30 29 30 26 29 48 34 55 41 52 52 48 36 42 36 42 39 36 37 33 34 58 65 63 102 92 86 77 78 97 95 101 96 131 198 189 196 200 196 198 197 192 194 192 194 194 195 194 193 192 199 197 195 196 192 189 201 190 193 191 189 186 187 185 183 179 180 175 176 171 168 165 161 161 164 158 163 160 160 163 161 157 146 143 132 127 117 96 73 45 36 36 26 30 19 27 30 41 31 50 52 45 49 52 43 34 44 34 36 39 43 34 30 64 58 82 83 92 76 88 93 99 94 111 109 184 207 197 201 201 197 196 197 194 192 191 194 194 193 193 192 191 190 197 192 193 192 189 189 191 186 189 185 184 182 186 177 177 172 173 172 169 169 166 161 166 162 160 159 163 161 164 162 161 155 145 136 126 117 107 79 60 38 29 32 27 22 25 27 38 31 44 55 29 53 48 46 35 45 37 30 41 39 41 28 54 72 79 83 92 93 88 112 91 98 129 161 206 206 203 204 203 197 196 197 190 192 192 191 192 189 191 191 189 192 192 187 189 189 183 187 189 185 182 184 180 179 190 178 173 174 171 170 171 171 169 165 169 165 163 160 161 166 165 168 163 162 153 143 126 119 112 91 64 41 33 31 30 28 25 26 37 34 46 50 28 43 54 51 42 36 37 37 43 48 36 42 37 84 71 90 100 97 103 102 81 133 164 202 207 208 205 204 203 198 193 196 191 191 190 190 190 186 189 188 187 188 187 186 184 189 182 182 191 179 180 183 182 180 184 182 179 175 176 170 175 169 171 168 166 166 165 167 162 163 167 166 165 163 158 146 128 125 105 97 69 46 38 28 28 27 33 23 36 31 48 59 39 19 64 44 47 39 35 33 37 54 39 35 52 71 77 97 106 78 110 76 119 175 193 213 206 209 207 204 203 200 197 195 191 194 191 191 186 186 187 184 182 187 185 182 183 185 187 186 189 188 184 189 190 187 184 189 185 184 181 175 173 176 171 166 163 166 162 169 161 154 164 158 165 160 158 149 130 126 113 98 71 56 42 30 22 26 31 21 40 31 61 55 40 19 40 49 48 44 38 40 30 52 46 33 60 63 73 110 104 63 84 109 184 188 209 212 207 209 206 205 202 200 197 193 194 194 192 188 187 185 186 186 182 183 184 181 180 184 188 188 190 187 189 195 198 194 190 189 189 185 185 178 177 177 171 165 164 161 160 161 156 153 154 155 157 159 152 153 134 123 119 96 75 62 48 30 25 23 25 24 39 36 66 55 36 32 23 54 48 47 32 35 38 42 53 35 46 65 86 114 78 51 93 173 203 202 211 210 207 209 208 205 202 200 199 198 195 194 194 192 191 189 186 189 183 183 186 182 189 187 188 193 189 191 195 200 202 197 193 194 189 192 185 178 177 173 159 159 158 154 153 155 154 154 154 153 152 153 150 151 134 127 122 100 80 65 60 36 23 18 26 20 40 34 76 52 33 35 26 43 60 39 44 28 40 37 50 35 36 61 98 99 36 62 167 197 206 211 210 210 208 209 205 205 204 203 198 201 201 195 196 197 193 192 185 190 187 189 190 189 189 192 193 198 195 202 201 204 201 198 192 195 196 188 181 174 170 167 153 150 149 148 150 143 146 146 151 155 146 149 150 151 136 129 124 102 87 70 70 45 23 18 21 26 36 29 94 50 21 38 35 26 60 40 57 30 35 40 33 54 37 58 88 62 31 133 204 208 212 210 211 210 207 210 205 206 204 205 199 202 203 200 197 200 196 195 194 194 192 200 196 198 196 198 198 202 205 205 203 204 202 194 189 192 188 184 178 167 164 162 149 145 139 139 135 135 126 120 128 143 151 146 150 147 139 125 124 109 92 78 72 58 28 18 21 32 29 33 94 36 24 32 44 25 48 60 56 41 31 40 30 59 42 70 81 26 57 192 216 212 210 210 211 209 207 208 205 206 205 206 206 204 204 203 202 202 197 201 200 197 200 205 200 201 199 199 203 201 206 200 195 201 195 188 175 182 174 173 168 157 155 150 134 123 121 117 107 104 101 89 86 98 134 142 140 146 142 124 122 115 99 81 77 63 39 17 22 34 22 44 80 22 32 38 46 35 44 60 50 46 29 41 34 66 70 62 79 18 97 222 211 211 211 210 211 209 209 208 206 205 207 206 210 205 208 206 203 202 202 201 195 199 198 201 200 202 203 198 199 200 200 188 192 189 187 167 174 151 148 142 135 129 122 114 108 94 92 86 80 72 73 62 66 50 74 104 120 144 140 131 113 121 103 90 86 66 51 26 26 33 19 40 55 30 32 39 45 52 33 52 44 55 37 28 43 58 91 52 63 20 113 222 211 208 212 210 210 208 207 207 205 205 206 206 208 206 210 209 202 202 201 198 195 196 194 198 193 195 197 193 196 194 197 179 182 175 172 155 139 107 103 104 93 80 73 67 65 75 59 56 50 50 59 58 50 50 47 63 86 121 140 131 113 117 109 93 83 72 63 38 24 21 27 35 41 32 30 42 42 63 28 43 54 56 49 27 47 43 86 30 56 23 130 216 207 209 210 212 208 208 204 204 202 202 207 199 203 207 204 208 201 197 194 191 190 194 189 198 195 190 189 192 188 192 188 180 169 166 161 141 102 80 75 67 62 52 40 59 56 50 46 51 41 43 42 48 47 64 60 58 54 85 100 132 118 114 113 97 88 72 67 45 26 15 35 30 25 30 39 38 44 53 47 29 56 64 65 41 35 38 78 35 39 26 143 209 209 206 210 212 207 203 205 201 196 193 193 193 196 202 198 203 191 186 178 175 168 187 184 190 194 184 184 187 184 186 181 175 165 157 150 128 75 75 64 55 49 38 36 37 42 47 50 37 46 43 40 59 61 55 69 74 65 55 69 93 118 112 109 105 88 75 70 61 26 24 30 29 30 26 38 39 40 48 53 30 42 71 63 55 23 46 58 34 32 27 161 207 205 206 209 208 204 201 198 200 178 171 184 185 184 179 175 165 151 145 138 141 151 163 173 188 187 188 184 186 179 191 182 175 166 161 138 117 90 76 67 57 58 50 57 54 57 76 71 84 88 73 90 83 78 67 75 82 68 58 67 63 103 114 106 101 97 76 72 61 38 21 27 28 34 23 27 40 47 42 49 39 35 70 73 54 31 29 49 38 25 29 167 204 206 203 208 204 202 201 195 168 148 146 162 155 140 129 114 106 104 86 86 95 110 136 153 172 186 193 187 180 181 185 182 171 172 163 148 120 100 81 75 75 77 87 102 124 143 145 162 168 154 142 136 132 113 108 89 97 73 82 68 66 85 108 105 102 98 73 77 65 40 25 22 30 34 26 21 46 55 40 48 42 40 66 89 53 30 27 43 36 21 32 168 202 201 204 206 197 204 182 164 128 114 121 124 104 90 83 66 66 66 68 68 62 74 101 126 150 187 205 196 189 184 199 194 173 172 175 161 131 99 89 97 109 125 136 141 152 154 158 161 178 174 156 161 155 143 143 127 117 116 99 94 79 99 106 106 103 101 83 79 71 48 24 23 32 40 22 26 45 47 40 47 50 37 66 79 51 47 28 32 40 19 55 160 200 202 200 201 198 185 127 109 96 96 93 92 61 68 59 46 51 50 59 56 57 71 85 112 138 185 213 211 196 190 216 195 172 164 169 151 122 100 106 121 131 135 126 117 120 123 123 119 143 134 109 136 136 144 153 159 146 146 115 111 101 101 99 102 107 98 87 82 80 61 27 23 33 31 31 26 41 53 43 47 49 38 66 63 55 45 38 29 24 45 61 147 198 200 200 202 193 109 100 88 96 83 66 59 43 58 42 46 43 58 68 75 88 91 107 123 153 187 214 217 199 193 201 187 172 166 160 135 109 104 117 131 122 109 111 112 94 113 64 67 101 57 62 92 107 123 135 140 155 162 146 122 122 113 105 100 110 102 94 88 80 65 35 17 33 33 33 28 34 43 56 37 54 40 60 53 48 46 37 22 22 49 68 127 199 199 200 211 127 86 96 106 101 63 52 68 55 76 85 100 112 120 117 114 113 120 125 135 166 188 205 214 201 190 186 174 167 172 158 137 98 107 133 118 111 112 96 87 123 128 60 70 114 16 52 30 114 83 113 138 118 139 157 141 139 122 119 107 110 107 99 95 83 70 40 26 23 28 40 28 34 41 54 43 48 43 53 55 45 39 38 27 17 58 44 111 200 199 207 178 106 104 103 75 94 80 92 109 119 132 154 176 173 164 145 140 133 134 138 135 144 178 196 206 197 183 174 173 166 172 161 134 109 122 137 123 105 83 98 131 167 160 81 95 30 40 95 45 197 184 45 77 117 102 131 163 159 146 135 123 119 111 96 103 90 73 47 29 24 28 39 38 36 40 54 46 33 47 47 53 54 39 40 24 21 46 22 111 201 202 214 129 102 88 99 100 128 130 149 165 175 176 156 163 156 122 111 112 103 104 100 115 130 174 184 196 190 180 167 161 159 162 154 144 127 132 137 90 95 111 136 148 181 198 111 110 88 90 84 95 166 178 83 50 56 105 115 148 169 165 156 150 132 119 107 105 93 78 55 30 27 35 23 44 48 33 58 48 30 44 46 42 56 32 45 23 21 43 17 116 199 205 208 90 81 86 121 156 179 181 182 182 168 150 128 112 118 67 69 112 100 96 101 107 90 149 180 185 181 176 163 153 149 154 147 151 140 142 124 110 140 131 130 146 174 184 174 140 115 107 123 163 158 146 100 89 73 81 112 128 159 168 165 160 142 127 122 106 96 79 65 33 25 34 27 39 60 31 57 46 33 41 42 49 53 35 44 20 24 34 19 121 198 206 201 105 93 109 152 186 192 189 170 175 175 118 87 21 176 40 66 139 164 127 97 90 73 112 183 177 187 168 169 154 146 147 146 154 154 131 131 160 165 151 136 150 146 145 154 160 148 130 132 129 140 129 136 144 121 104 132 129 149 164 166 162 152 134 121 114 99 84 65 35 24 34 28 40 53 41 38 55 30 34 51 41 61 36 36 19 23 28 31 101 202 203 211 113 113 136 184 194 199 156 157 181 96 134 72 48 32 68 103 135 192 156 137 152 92 121 179 180 176 161 163 151 148 148 141 156 156 146 116 149 169 161 145 155 147 152 162 145 171 122 133 140 128 153 162 170 166 141 145 134 155 160 164 163 163 150 123 115 97 79 72 42 21 36 34 38 44 42 42 59 34 39 45 39 54 53 30 21 18 31 42 80 205 201 207 135 123 154 182 197 168 139 158 47 159 156 61 105 86 112 101 166 182 145 135 156 138 178 182 187 173 166 164 152 153 153 141 151 157 160 140 135 162 168 159 158 147 154 163 148 169 139 143 162 132 159 166 172 178 165 160 152 163 160 160 165 165 158 131 112 97 79 73 48 20 44 25 37 40 38 43 70 52 35 38 40 54 51 31 24 12 40 51 64 197 205 208 154 134 169 193 197 122 170 68 89 186 200 129 101 118 118 142 171 152 168 151 160 151 188 181 187 175 165 158 145 153 155 142 147 158 158 156 145 146 173 171 169 169 168 166 159 168 156 148 161 150 147 170 173 175 170 164 168 170 163 163 165 163 165 134 112 103 74 76 49 18 52 36 38 46 47 57 49 59 43 41 30 56 54 24 20 16 38 57 53 191 209 207 145 150 177 200 182 120 116 26 145 198 202 195 173 139 156 140 170 160 161 169 172 163 179 177 189 175 165 146 146 154 152 145 143 152 161 158 157 151 160 171 182 170 178 170 173 173 163 158 162 155 160 166 171 170 174 168 168 176 167 165 162 161 158 140 112 97 77 71 49 16 36 38 43 48 59 50 58 62 44 47 29 45 49 32 21 19 21 54 63 192 206 200 155 167 187 199 162 128 72 100 148 152 177 141 169 142 154 158 164 172 163 173 169 190 187 175 187 178 171 151 152 151 151 147 143 152 153 158 155 155 164 154 182 175 182 184 170 180 176 171 173 169 165 171 174 172 179 170 172 174 164 165 167 164 156 144 113 93 82 72 50 20 25 34 48 51 63 58 63 67 38 47 38 43 40 35 24 14 24 54 81 187 211 196 190 192 198 202 166 93 147 154 189 182 202 165 193 169 167 175 171 169 179 179 184 206 184 177 186 187 173 154 157 144 150 153 153 156 156 157 160 157 161 167 160 180 181 184 178 188 189 176 181 175 174 171 174 171 176 173 169 172 167 167 162 159 155 148 108 92 83 79 48 21 23 35 53 50 60 56 68 70 42 57 47 45 36 36 17 26 21 31 68 185 212 196 198 202 204 208 182 160 193 203 212 205 212 194 183 178 178 172 167 179 186 183 204 204 186 179 190 185 173 145 156 147 146 149 154 152 159 158 160 164 159 166 167 168 171 175 177 182 180 183 177 183 173 172 173 177 172 171 175 175 169 171 165 158 158 147 108 91 83 76 53 19 30 39 50 44 51 41 68 52 51 51 47 53 37 37 25 24 21 30 65 181 210 200 205 206 208 210 208 193 203 212 212 211 208 193 188 185 185 182 174 189 184 200 208 203 190 181 195 185 175 157 156 147 144 145 150 151 150 160 164 163 166 164 177 174 179 169 181 177 173 180 178 179 171 174 178 174 171 176 172 178 174 174 169 161 158 147 115 91 86 76 54 29 40 45 42 37 35 40 54 43 55 45 29 52 50 37 22 27 19 33 63 166 212 203 204 206 210 210 208 204 209 212 212 209 203 197 191 186 186 186 178 191 193 206 209 205 191 180 201 191 194 162 161 151 144 147 146 149 153 157 170 163 166 172 167 176 177 177 185 182 173 184 181 174 175 177 179 174 171 172 171 173 168 179 173 163 157 149 124 92 89 74 58 44 33 46 33 33 34 34 38 49 62 35 19 51 47 44 22 26 28 24 55 149 213 206 203 205 209 209 206 211 209 213 212 209 208 198 192 191 189 193 189 195 203 206 207 210 184 187 207 184 220 166 153 150 146 149 145 141 149 158 163 165 170 168 171 170 182 188 181 179 182 182 179 181 177 177 179 178 174 171 163 169 164 176 176 161 161 150 136 91 91 69 56 46 38 40 29 32 29 27 41 51 59 25 13 65 40 43 26 22 25 30 48 133 214 204 202 205 210 208 207 212 208 211 208 210 208 200 204 195 193 197 191 203 204 211 209 207 184 183 197 180 200 183 154 151 151 146 150 144 139 156 160 171 171 168 168 171 183 181 184 185 178 182 178 177 170 172 171 176 168 177 167 171 163 180 171 164 156 150 152 92 86 75 50 39 41 52 30 28 28 32 39 42 50 21 18 78 38 36 13 45 50 50 34 107 209 203 205 202 208 209 211 210 211 212 210 210 209 207 202 200 200 200 201 204 208 211 210 201 188 184 176 164 193 173 166 150 149 147 150 144 138 148 156 162 171 170 167 174 177 179 185 187 181 183 174 178 175 163 167 170 168 167 167 171 167 174 167 165 157 149 152 101 80 69 49 38 43 63 30 26 24 37 30 42 26 23 42 81 32 29 61 133 139 135 76 61 194 206 202 201 205 208 212 210 210 212 212 211 209 206 206 202 203 201 204 206 207 213 216 192 189 186 176 179 204 178 190 159 153 152 144 149 138 147 146 156 159 159 170 170 176 183 182 187 186 186 177 174 178 167 169 166 177 155 169 166 172 173 166 160 152 147 148 116 71 75 36 42 37 60 30 24 30 24 37 33 26 19 81 54 27 32 146 150 181 192 180 21 155 210 204 198 204 210 210 211 210 212 210 212 211 204 207 204 202 205 206 205 210 210 220 184 199 198 185 184 196 180 201 167 159 158 165 158 148 142 142 151 150 150 168 168 174 181 180 176 190 184 179 176 176 177 168 166 169 164 164 170 158 162 169 155 154 150 143 133 74 71 43 37 35 84 19 22 32 28 26 29 20 37 67 37 27 32 189 128 78 153 213 78 110 210 198 195 205 209 211 211 211 212 210 209 211 207 206 206 203 205 205 204 209 207 215 174 208 212 182 173 161 160 164 156 155 170 191 169 144 141 146 154 143 138 159 171 168 173 179 181 190 185 183 176 179 174 166 167 163 163 164 169 162 159 161 154 155 150 143 136 89 63 45 31 28 71 17 27 27 28 31 26 43 82 74 26 29 33 200 122 56 82 193 151 60 207 198 193 201 208 210 210 211 211 209 211 210 209 206 207 207 206 207 204 208 202 192 185 181 189 164 147 139 141 139 138 136 136 124 126 121 135 160 159 135 130 151 160 170 174 182 183 181 184 182 179 177 175 170 168 170 158 165 162 162 167 152 153 148 150 143 135 102 55 36 35 30 29 26 41 24 48 51 96 89 135 67 20 32 31 194 149 60 108 191 211 28 179 200 193 199 206 207 209 209 210 210 210 210 208 209 204 206 208 208 203 201 193 181 186 161 171 145 120 111 109 113 114 116 113 113 107 109 118 141 161 132 123 144 161 159 168 174 176 175 178 180 178 173 172 171 164 173 154 168 176 157 163 151 147 151 153 146 128 116 68 34 21 44 29 34 57 35 57 60 106 127 126 17 29 33 26 134 203 79 94 193 218 86 125 200 190 197 204 207 206 208 208 209 209 208 208 207 206 207 204 206 195 197 184 171 187 152 170 150 113 100 85 82 88 100 113 96 36 51 63 104 139 112 129 153 159 155 161 162 171 173 175 171 173 171 167 171 166 170 158 156 177 162 154 163 144 143 154 141 122 119 76 46 20 45 80 54 97 98 86 84 120 148 48 18 31 30 32 76 218 107 87 184 217 166 88 195 188 198 200 203 208 208 207 210 208 211 209 207 205 205 204 203 189 186 183 148 184 129 72 122 133 90 79 72 89 113 95 115 87 75 63 77 118 84 136 153 149 164 162 159 162 167 169 170 170 169 165 168 164 166 164 142 165 174 163 160 146 154 147 138 109 100 86 59 30 53 91 104 124 117 130 121 149 81 16 31 30 29 33 30 215 144 88 187 210 221 42 175 187 199 200 205 206 206 207 208 209 208 207 207 205 204 201 200 190 177 170 152 171 135 83 39 148 133 112 68 92 93 68 70 104 135 107 112 107 95 141 158 146 162 164 161 159 157 164 162 162 166 163 165 163 163 158 160 153 172 166 155 148 143 152 130 112 89 67 55 50 63 94 104 117 116 122 142 93 17 30 30 30 30 28 20 157 206 80 180 219 210 60 144 187 195 199 200 204 206 204 208 208 211 209 206 204 202 196 194 184 164 162 160 155 175 188 125 148 121 124 88 70 68 49 62 89 109 118 115 106 118 154 161 156 159 166 165 160 156 151 156 155 164 160 160 157 161 151 162 161 164 158 155 156 131 141 124 106 92 70 50 67 41 88 112 113 128 138 146 22 27 31 32 29 32 27 37 78 224 99 184 219 206 64 106 181 191 199 195 198 201 203 208 207 209 208 204 202 199 193 190 180 166 161 175 174 193 201 166 132 106 114 93 59 58 62 68 104 95 105 118 103 128 153 159 154 159 163 160 161 158 152 151 149 157 157 154 149 162 152 153 166 155 154 139 149 135 132 111 104 73 83 65 51 43 96 118 120 132 142 68 19 29 32 31 27 33 32 57 29 194 152 175 218 178 123 59 170 190 198 190 187 199 203 200 206 206 208 203 201 196 191 185 170 164 161 191 197 195 195 140 118 113 86 90 54 52 77 89 114 89 84 101 85 92 135 147 150 152 159 156 161 160 155 156 151 151 155 157 151 156 154 155 165 152 150 138 150 134 134 116 112 71 75 64 61 48 84 107 112 111 68 21 28 28 34 25 30 31 28 53 37 121 198 164 224 153 154 55 144 185 189 187 188 198 198 200 205 204 207 202 201 196 184 178 167 169 170 203 205 196 163 103 104 96 83 97 61 59 85 93 108 99 77 85 76 76 107 113 136 126 141 149 156 159 161 156 151 147 149 153 152 152 153 167 157 161 141 135 131 134 133 120 98 83 69 62 53 44 44 52 50 41 26 30 28 29 31 25 29 30 29 49 41 53 204 169 218 160 164 87 104 176 180 182 186 193 194 198 202 205 204 201 197 188 184 173 168 171 184 209 204 182 114 105 98 102 108 91 70 74 84 87 100 104 83 79 82 73 92 92 98 105 114 127 129 148 159 151 158 155 155 151 148 154 158 166 163 159 147 129 133 125 110 114 85 88 69 46 61 39 30 28 31 29 28 28 34 25 30 25 28 29 29 53 52 16 172 182 213 174 168 106 80 160 164 183 181 186 192 201 199 203 205 198 196 179 180 171 171 175 197 196 184 142 101 103 112 122 111 96 69 94 95 74 106 91 94 99 95 76 87 94 82 92 103 103 105 130 149 135 153 162 157 154 154 156 158 167 156 160 155 135 125 111 113 111 86 82 75 52 60 39 27 28 29 29 29 30 32 26 29 25 28 31 28 50 57 24 100 189 195 187 169 147 57 127 148 182 181 183 193 198 200 202 205 197 189 185 173 173 180 185 195 156 153 114 101 94 107 121 116 85 90 131 113 97 113 98 93 115 89 85 89 101 82 86 104 91 101 110 121 127 132 154 162 154 153 161 161 160 156 165 149 134 120 103 107 109 97 65 83 51 64 40 23 29 27 32 29 29 26 28 30 25 30 24 35 50 52 48 38 180 185 195 183 212 75 87 148 177 163 178 192 193 200 202 199 198 188 182 172 180 182 177 172 132 110 112 121 100 117 125 121 106 145 160 143 140 121 98 101 93 83 101 101 110 82 100 83 84 79 95 86 119 123 132 152 159 153 159 156 161 154 152 134 139 133 115 108 114 94 62 86 46 61 48 25 27 30 30 28 28 28 26 29 30 27 27 30 53 54 53 24 103 205 185 174 219 120 38 132 173 175 175 193 198 193 199 195 190 187 181 176 187 187 168 139 115 108 107 123 112 133 106 113 128 140 154 152 129 113 102 76 80 75 85 84 102 81 104 89 66 76 58 69 95 120 123 148 160 161 158 147 154 139 153 128 127 116 123 130 105 82 66 71 37 62 34 29 25 30 30 30 25 29 26 30 29 25 28 24 58 47 47 43 31 171 206 177 210 159 41 101 159 176 182 188 199 188 192 188 184 186 179 178 184 180 142 127 106 122 97 132 111 106 95 101 107 107 120 111 95 93 82 81 72 68 68 66 65 66 87 87 61 61 52 76 69 103 118 127 158 158 158 146 141 138 145 131 130 108 123 129 109 89 60 70 62 56 29 25 30 29 26 31 28 31 27 28 31 26 29 22 62 49 48 54 37 56 177 190 198 183 59 67 134 176 167 175 189 197 193 197 188 184 178 179 175 142 111 106 115 100 111 133 118 86 81 84 77 82 87 80 76 75 77 61 58 60 57 56 58 60 56 60 63 52 61 70 73 86 99 108 152 155 159 139 147 132 147 124 131 99 128 110 113 95 62 60 56 50 32 28 27 32 29 27 32 32 28 28 29 27 26 27 57 54 51 48 46 41 59 180 192 207 120 40 95 175 143 175 184 192 189 199 192 189 181 167 153 117 96 88 89 100 108 134 90 64 62 56 40 38 70 68 61 52 42 77 85 99 95 54 67 58 45 45 43 23 50 74 72 71 92 91 140 152 150 133 151 121 142 122 133 103 122 117 102 90 64 59 51 46 29 29 25 33 27 26 29 28 32 27 27 25 29 26 62 44 53 52 52 51 20 131 182 191 154 46 103 160 124 173 174 184 190 190 191 192 190 165 145 109 86 93 84 125 118 99 67 58 56 47 53 57 99 92 86 68 66 118 121 133 159 95 101 83 34 61 31 37 79 92 91 72 100 72 123 149 144 134 133 122 133 120 121 94 122 131 103 84 67 49 55 51 29 26 27 27 26 30 22 27 31 25 29 25 27 26 68 46 52 48 55 47 37 31 113 143 137 63 83 126 139 146 171 169 174 183 187 190 188 163 147 92 72 96 81 112 119 74 60 62 36 54 83 95 135 124 110 103 93 156 158 165 187 138 121 89 22 79 79 106 134 113 121 88 98 97 107 138 151 135 130 132 131 135 133 99 118 128 107 81 45 60 43 47 31 26 27 29 29 27 28 24 29 27 28 25 25 33 59 55 46 54 51 51 49 40 50 50 65 52 100 94 137 156 164 177 168 182 182 180 180 169 147 86 87 105 81 72 77 56 43 56 60 46 116 113 186 149 151 157 134 164 166 165 185 96 52 35 43 117 116 134 146 139 112 105 98 121 115 130 149 132 146 120 128 140 141 115 96 124 88 85 55 66 46 49 29 31 27 28 31 28 28 28 29 26 32 26 28 35 62 54 57 50 52 50 48 51 42 48 45 44 71 78 124 151 153 168 159 171 183 170 182 160 150 119 91 101 79 69 42 33 27 51 81 12 129 120 181 162 140 147 102 84 105 106 111 67 59 69 116 125 127 140 139 137 136 119 103 100 116 120 143 121 143 114 109 130 136 106 96 108 84 69 62 68 45 41 25 31 30 26 32 27 27 32 28 30 30 28 27 28 65 55 51 53 50 55 47 50 43 47 50 43 58 61 101 151 154 168 158 167 176 176 182 156 158 127 99 103 91 106 95 86 84 84 56 22 65 52 67 117 90 132 131 98 121 114 96 113 108 125 124 132 138 142 142 140 137 145 120 95 104 108 132 117 126 137 102 136 124 93 100 95 82 72 54 53 39 43 24 29 27 28 24 29 24 30 28 31 28 25 29 27 60 55 55 50 50 51 50 48 38 53 48 45 52 51 79 152 138 164 153 169 169 168 176 159 157 143 109 122 122 116 142 161 151 152 142 118 98 97 63 146 133 166 173 123 132 128 125 122 123 129 131 135 145 143 145 140 139 145 132 120 98 103 116 116 110 131 106 118 122 109 83 104 85 60 59 40 49 37 23 28 30 26 28 29 27 29 27 31 29 23 32 27 55 56 56 49 44 53 51 49 45 46 52 43 47 56 57 143 134 161 146 159 161 147 168 167 148 153 114 121 129 132 166 178 174 169 170 164 132 136 117 125 122 126 130 138 138 140 133 131 126 134 134 137 140 144 150 150 140 145 142 142 127 107 106 116 102 120 110 115 116 123 80 92 85 54 52 38 49 36 24 29 29 27 29 25 28 28 31 28 25 30 26 34 63 59 60 56 51 51 47 50 47 49 46 49 39 59 58 99 137 165 141 163 147 142 171 154 151 153 117 126 140 141 173 177 166 168 175 171 167 165 153 145 145 140 149 156 152 145 141 136 129 130 135 134 141 149 146 152 145 140 141 137 143 114 116 124 102 113 106 112 102 123 82 77 80 59 49 26 65 26 25 29 28 25 27 24 31 28 29 29 29 28 28 29 59 62 57 60 53 50 49 49 47 48 50 44 41 46 76 70 128 148 143 152 153 138 165 140 145 148 130 133 147 158 168 173 162 155 169 163 169 170 164 154 153 151 147 155 140 129 124 119 126 114 124 133 137 143 142 142 149 140 141 127 128 123 119 113 115 124 90 121 108 103 98 52 68 54 44 38 77 25 28 25 28 28 25 31 28 28 29 32 25 28 31 30 62 58 64 54 48 54 52 47 46 49 47 48 51 43 57 58 90 130 132 143 144 143 149 149 139 145 147 148 151 164 176 169 148 138 156 144 146 137 146 141 125 124 127 114 109 109 104 106 106 111 122 130 129 140 136 138 149 139 138 109 98 118 124 103 111 116 82 99 101 93 82 41 59 51 29 49 91 19 31 25 25 29 29 27 25 29 28 31 26 30 36 30 54 57 63 56 54 49 48 44 47 50 47 47 50 47 48 57 75 105 125 143 141 146 146 145 140 142 154 163 164 165 180 165 135 126 155 146 129 125 117 107 100 96 108 92 80 80 86 90 110 111 120 113 126 128 136 131 144 142 132 105 86 108 115 109 111 105 85 103 87 104 55 54 53 46 35 54 106 14 25 27 26 26 28 28 25 29 28 28 28 26 32 36 58 60 55 57 55 47 50 48 43 53 46 50 42 49 39 53 59 81 114 143 132 145 136 148 136 148 145 169 162 172 177 174 148 137 148 160 144 138 115 98 79 81 80 71 75 75 93 86 96 99 103 111 112 123 141 126 132 143 127 100 102 78 80 102 110 78 94 96 94 85 63 52 44 40 25 66 114 8 22 28 25 30 31 24 25 34 24 31 31 29 28 34 56 57 62 57 56 54 52 40 49 50 45 48 40 47 40 46 57 57 102 127 148 128 136 142 140 150 146 150 159 162 163 164 137 151 149 156 140 129 118 101 84 66 81 70 74 77 84 67 80 94 94 107 111 119 125 128 144 142 140 117 91 64 101 92 111 77 96 84 94 92 67 57 51 28 20 108 109 5 29 22 28 29 28 29 28 29 25 32 27 35 29 31 62 62 59 54 59 49 48 48 42 54 44 50 41 38 40 45 70 53 64 112 142 129 130 145 142 144 155 156 140 160 162 165 150 159 155 139 127 115 112 88 87 56 77 68 64 70 66 75 69 86 96 102 107 115 111 136 128 125 134 130 107 83 86 104 97 77 99 98 80 87 52 59 50 21 50 122 112 8 29 25 27 29 28 30 27 25 30 27 29 33 30 30 65 61 56 47 60 55 48 46 49 48 52 45 37 47 43 46 59 59 35 89 119 124 133 128 133 147 145 154 146 156 163 168 167 154 150 138 125 117 110 71 100 73 58 69 54 57 60 71 80 76 94 106 112 119 129 134 121 106 114 115 100 85 67 98 67 87 80 83 75 65 55 61 49 14 91 135 107 14 19 29 28 27 27 28 23 30 28 28 30 29 31 32 61 58 63 54 57 53 55 44 48 45 49 42 40 43 48 40 53 58 45 52 110 133 137 121 129 132 148 146 145 140 153 178 168 161 152 156 117 117 101 102 113 92 67 53 62 64 60 64 84 81 102 125 109 134 138 118 124 101 113 126 101 103 69 73 62 75 87 80 82 76 31 64 26 28 108 140 110 5 27 27 29 25 30 26 24 32 26 29 32 25 36 32 54 70 55 57 60 54 53 52 52 50 51 44 45 42 48 39 49 50 62 34 80 113 129 114 135 133 131 136 124 152 165 180 164 166 165 166 129 120 105 124 118 102 82 69 60 70 71 75 82 104 123 149 106 138 144 104 129 99 110 112 89 92 73 77 77 67 76 75 76 76 48 39 28 73 128 140 98 9 23 29 27 26 29 27 26 29 28 29 32 29 31 36 52 62 57 56 57 60 53 48 58 50 47 43 46 44 43 42 44 47 68 45 44 101 113 121 122 122 122 124 111 147 164 170 165 177 174 168 141 136 124 130 118 124 84 71 80 62 83 98 91 122 135 143 111 120 124 120 102 127 98 99 92 83 98 81 64 71 54 73 64 84 54 24 63 111 129 137 98 12 21 31 25 28 26 30 25 33 25 32 28 34 32 32 57 56 60 62 52 58 53 51 56 49 47 44 43 44 45 39 45 38 79 65 44 62 94 102 112 106 113 115 114 125 156 145 159 173 163 147 164 147 149 137 120 126 73 77 111 65 85 99 116 123 117 135 109 120 104 113 109 105 101 93 81 72 77 83 61 59 47 64 56 74 42 51 103 129 127 126 118 39 19 27 26 27 28 28 27 32 30 28 29 32 35 30 59 56 57 57 60 53 52 60 50 52 45 45 45 45 41 44 35 44 128 85 52 35 77 100 103 102 107 89 104 103 140 129 150 164 141 123 163 148 143 119 134 113 64 98 103 63 96 90 123 122 105 116 109 114 108 112 113 99 76 104 81 77 53 74 59 55 47 63 42 52 54 107 115 131 126 133 89 131 85 20 22 27 32 25 27 31 27 28 30 32 34 34 56 57 55 58 59 56 55 58 53 51 47 44 45 43 43 38 37 159 150 123 66 37 66 80 101 93 94 87 86 85 130 118 153 154 126 136 141 136 116 115 126 95 74 88 99 92 90 93 127 119 106 91 109 97 82 113 103 75 72 81 77 57 45 59 56 43 51 52 38 30 81 118 124 125 126 133 77 61 139 125 21 22 30 27 27 30 30 29 32 28 39 28 54 57 58 53 56 58 58 53 57 53 47 43 47 40 40 34 161 168 90 153 101 41 46 67 93 95 92 76 75 83 122 119 140 138 127 121 118 132 117 120 103 78 90 91 104 89 74 99 118 97 113 85 98 89 64 105 95 54 58 64 67 47 43 46 46 42 55 47 36 46 106 124 122 125 122 136 71 40 64 166 113 15 25 27 26 31 29 31 31 31 36 37 50 59 59 57 56 56 55 55 57 54 48 44 43 43 27 168 188 111 81 155 144 46 53 57 74 90 66 80 58 81 100 101 132 133 101 114 99 120 126 122 92 97 92 87 100 91 67 103 114 69 105 87 78 80 67 77 89 54 43 48 54 44 45 37 45 46 54 28 45 82 120 121 125 123 126 134 58 39 60 96 184 109 16 26 28 32 31 28 34 31 35 38 52 60 58 53 58 56 52 60 56 60 45 51 43 14 170 208 132 113 83 137 158 120 104 46 49 68 55 73 61 68 86 100 125 115 96 105 95 112 124 112 95 115 76 74 99 85 49 98 99 64 76 80 89 85 58 63 93 39 38 47 41 43 38 36 43 38 40 25 88 92 121 121 123 122 122 137 52 18 72 83 132 212 112 9 31 28 28 28 35 29 34 34 51 62 54 52 55 53 56 51 59 55 55 45 31 73 236 147 135 119 102 114 172 164 155 108 36 48 47 68 48 57 69 83 111 108 91 96 81 104 119 92 82 107 67 54 81 85 41 79 88 55 54 65 78 72 57 43 80 41 32 35 33 43 31 36 43 33 17 56 111 104 115 121 124 122 122 137 53 9 57 94 122 178 208 74 18 24 35 27 34 33 35 33 51 58 52 52 52 54 49 54 57 56 44 38 40 193 205 130 133 129 96 106 168 167 169 160 60 36 41 67 43 51 55 72 97 103 86 65 85 89 110 82 70 79 51 64 67 68 53 62 65 54 52 54 68 62 39 47 57 44 34 31 31 34 39 28 30 27 28 91 103 109 113 124 123 123 117 139 39 11 60 89 130 163 190 201 37 20 30 30 32 36 30 39 54 49 56 54 51 56 56 51 53 51 32 84 202 233 142 140 128 125 134 85 167 165 171 167 146 62 38 51 46 59 45 59 79 83 68 50 71 70 77 76 73 69 53 56 46 66 67 51 42 57 42 46 42 56 30 41 55 44 30 37 25 28 36 29 20 30 76 100 98 110 114 124 121 121 118 133 29 20 57 84 120 158 179 197 186 5 28 32 31 32 34 37 62 46 49 53 57 71 79 83 94 76 146 215 219 205 127 129 142 107 154 60 160 162 164 161 174 135 49 46 55 52 31 43 51 57 68 46 66 47 56 52 75 56 49 38 43 61 60 50 34 39 48 38 36 47 33 44 39 33 29 32 26 36 27 29 29 59 100 102 108 108 115 117 123 119 121 121 18 18 68 102 107 146 165 194 216 104 16 30 33 33 36 37 