P2
92
112
255
45 49 47 47 52 44 47 45 54 48 47 51 49 47 48 54 47 50 50 43 52 50 51 49 51 52 47 53 48 48 42 41 41 39 26 27 19 27 20 18 22 22 27 25 28 26 30 24 25 22 23 20 31 23 27 23 29 30 30 30 35 29 40 34 34 34 38 43 44 42 44 37 48 41 38 38 43 40 42 40 42 39 44 40 38 41 41 37 39 40 39 42 46 51 50 47 48 46 45 50 50 47 49 48 50 49 49 50 48 49 51 44 52 50 52 48 53 49 49 47 43 33 33 29 27 23 25 20 26 15 25 20 18 23 20 22 25 33 21 27 22 22 24 22 28 22 28 25 31 26 28 25 29 27 37 24 33 32 33 41 42 39 41 43 44 43 43 45 49 45 41 39 42 38 40 42 42 38 39 41 40 41 39 37 48 48 51 48 50 48 46 45 53 49 50 48 52 50 46 52 51 52 48 50 48 49 48 43 53 44 47 46 37 34 34 39 33 30 30 26 29 21 27 26 26 24 26 24 23 37 21 37 19 24 27 28 20 38 23 28 29 21 28 26 26 30 29 27 32 35 27 30 35 31 38 38 40 43 36 44 47 41 44 37 39 40 39 40 43 39 39 39 41 41 38 38 44 46 50 48 47 48 47 47 46 54 51 50 50 52 51 52 54 53 43 52 52 47 46 40 39 42 31 43 41 37 46 40 40 40 33 35 27 30 30 26 26 26 28 26 28 42 30 33 26 37 26 31 28 35 18 28 29 26 36 28 28 33 22 28 33 28 30 26 30 30 33 30 36 41 39 41 40 43 40 43 40 42 41 38 41 39 37 43 41 42 40 39 48 43 52 47 51 48 49 47 46 51 53 46 52 52 52 48 51 51 51 51 44 43 40 35 38 44 35 49 45 38 51 43 46 49 42 39 37 41 39 31 38 29 31 35 32 36 38 36 43 39 33 32 31 30 23 34 32 36 31 32 27 28 30 21 22 28 25 26 28 28 30 36 29 32 33 43 39 42 41 40 43 38 47 35 41 39 42 39 44 37 40 41 50 46 52 50 50 50 47 49 45 52 51 49 51 54 56 52 47 49 47 45 37 38 38 42 43 44 39 43 36 35 37 37 35 31 42 42 44 47 38 48 45 33 35 44 35 48 43 45 47 43 42 34 30 27 43 29 37 28 35 33 29 32 28 28 28 31 21 25 27 29 27 35 33 31 32 35 37 42 38 48 39 44 41 39 39 42 39 41 45 40 38 41 48 48 52 46 49 50 48 48 47 49 52 44 50 52 50 43 32 36 38 40 37 39 49 39 42 41 40 35 31 36 32 31 37 33 30 48 34 47 46 47 45 41 40 39 50 65 41 48 58 40 56 35 31 37 40 35 25 33 37 37 33 30 27 26 30 35 27 30 23 28 28 39 26 30 39 35 32 38 41 42 40 39 41 45 40 36 41 38 45 37 39 40 46 51 47 47 49 45 50 44 53 49 50 50 48 41 31 29 27 30 37 42 36 46 46 45 40 36 37 33 31 40 35 49 39 44 37 44 41 42 46 47 34 43 41 47 55 73 43 56 61 41 56 38 40 34 37 26 22 23 30 33 33 32 36 36 31 30 36 29 26 28 29 29 29 31 29 32 33 32 40 40 37 37 44 41 44 37 41 41 40 42 39 38 46 48 51 48 52 48 48 47 55 42 53 38 31 31 24 27 38 31 39 35 41 31 49 44 34 36 37 42 43 39 46 60 52 48 43 48 58 49 46 40 38 25 45 56 57 65 43 57 49 56 58 40 41 34 28 20 19 20 30 26 30 26 30 33 33 41 33 27 27 23 28 26 22 26 31 28 29 29 35 37 35 40 40 39 45 39 39 38 45 35 44 38 51 48 51 46 50 48 46 54 45 51 32 34 31 31 30 40 35 33 42 33 43 49 48 40 36 39 51 46 50 40 40 57 53 51 43 52 49 45 46 32 43 26 44 56 46 61 33 43 44 57 72 50 28 34 25 15 23 24 30 30 29 29 31 35 44 38 46 41 29 30 29 24 25 30 23 24 31 28 32 33 38 37 37 41 42 42 41 39 44 34 48 41 54 49 49 49 48 50 45 46 54 42 27 35 37 29 48 43 41 48 44 43 39 49 42 41 45 49 49 42 53 40 37 40 47 39 44 49 54 34 34 39 48 28 41 49 43 55 29 35 34 63 56 41 24 31 19 20 33 33 32 29 37 33 38 31 42 30 36 33 41 33 35 23 33 27 23 25 31 25 32 36 33 33 40 38 45 36 46 43 40 39 48 38 52 48 53 45 53 44 47 58 43 35 23 38 33 47 56 41 42 51 50 51 42 40 42 48 51 43 42 34 45 30 36 35 38 31 37 49 38 50 37 28 57 35 40 41 52 37 36 37 52 51 33 32 28 26 30 24 23 31 30 26 30 26 30 35 28 35 30 30 33 32 34 32 30 24 28 27 23 30 27 28 39 27 41 44 39 37 45 40 43 40 46 45 49 49 53 48 49 50 62 49 24 36 29 37 52 50 50 39 47 53 42 41 53 51 50 43 46 38 36 28 38 35 40 34 40 38 32 37 43 32 45 23 56 45 42 42 50 34 33 38 50 37 19 33 28 26 35 21 22 23 24 26 27 26 30 35 32 35 34 43 32 36 39 28 30 26 26 35 28 34 29 28 32 31 32 35 42 44 42 41 44 38 45 43 47 47 56 50 50 52 54 29 27 27 36 53 53 45 41 42 49 50 43 51 47 47 35 37 31 31 38 36 34 33 28 33 34 37 33 38 40 33 44 29 57 45 47 42 46 40 25 46 45 22 26 28 25 23 25 20 24 23 25 22 33 33 28 30 36 30 35 36 43 40 42 34 27 32 23 36 37 36 31 24 29 27 36 34 37 42 41 38 47 41 39 51 53 46 54 50 50 44 36 30 24 31 51 58 59 45 39 45 38 57 52 55 41 41 36 36 31 36 36 32 31 30 31 30 35 40 40 38 43 40 36 43 59 50 44 53 42 38 37 45 32 30 28 30 30 27 26 28 26 23 23 24 32 53 36 26 25 32 33 31 38 37 40 38 41 34 24 28 38 40 29 26 26 28 25 42 36 36 39 39 43 48 46 39 52 47 56 51 54 38 45 27 40 51 66 57 48 47 45 45 45 61 50 38 38 44 47 35 41 31 29 31 24 30 29 31 33 41 57 41 43 48 42 51 62 54 47 51 42 43 46 41 36 39 41 49 47 50 37 38 32 30 26 26 48 56 30 40 21 33 34 36 34 35 33 33 33 30 34 31 30 38 30 23 28 27 31 37 34 36 39 40 42 47 49 41 55 48 53 51 47 42 46 33 58 66 70 53 41 43 35 45 65 49 44 40 39 46 45 39 41 29 28 27 33 29 37 39 44 52 75 64 46 61 46 64 60 55 51 62 50 54 55 60 65 78 85 90 89 95 77 72 68 61 47 38 50 57 33 33 40 33 25 44 42 34 26 26 29 26 32 34 31 35 36 25 33 23 32 33 29 39 34 43 40 43 46 53 49 50 50 44 40 48 44 60 58 72 69 46 32 34 39 45 58 50 42 43 40 44 53 48 40 26 38 38 54 62 81 75 85 77 97 88 70 71 55 67 69 62 77 72 73 82 93 99 100 120 117 119 118 121 112 114 103 100 88 68 63 48 34 32 39 35 35 39 42 37 27 22 24 23 28 24 32 38 37 36 31 29 22 33 29 37 42 40 47 44 42 50 45 51 47 49 45 55 64 60 70 66 51 42 33 45 56 49 54 50 45 46 37 48 66 48 46 43 74 100 101 111 120 126 123 122 117 118 104 83 84 72 89 91 95 99 119 118 118 119 130 138 130 130 127 126 122 123 112 113 110 90 87 56 33 27 39 34 45 39 37 36 37 28 24 28 21 25 31 34 43 37 33 35 27 28 32 37 40 42 38 46 56 43 51 49 59 51 48 63 69 57 71 55 37 52 40 42 57 43 44 58 42 43 44 60 65 51 66 95 119 136 137 143 145 149 152 154 145 140 135 112 113 96 114 110 115 135 138 136 142 136 135 139 137 136 136 134 130 128 123 120 123 97 103 75 42 32 31 27 39 47 35 38 45 32 23 28 24 32 28 28 49 33 30 42 33 28 31 31 38 45 48 47 57 67 53 55 64 43 68 65 62 54 72 41 43 57 48 40 52 52 71 56 39 39 58 73 54 60 107 121 140 142 148 149 159 164 161 167 168 158 151 142 136 130 134 127 139 152 152 151 153 152 149 142 149 144 143 143 140 137 138 130 132 113 111 96 66 49 24 29 31 46 48 37 43 42 29 17 30 33 28 32 39 37 32 35 30 31 31 29 36 41 53 46 48 53 56 56 53 64 66 54 50 63 54 37 55 48 44 46 65 73 85 48 43 49 71 63 76 92 124 140 146 151 158 158 167 168 166 170 172 173 160 165 155 160 151 150 160 164 164 158 164 159 156 148 155 154 151 150 147 145 147 142 142 129 124 116 95 74 55 32 27 29 54 44 38 49 35 37 24 30 37 30 33 37 29 40 28 31 29 27 40 39 47 51 54 41 53 61 64 63 61 39 62 56 48 35 72 37 50 56 84 85 70 39 54 54 70 59 98 120 140 153 156 162 163 167 172 172 172 174 175 178 171 171 171 172 172 167 169 172 169 170 169 163 165 158 162 161 158 154 152 151 153 152 150 141 135 128 122 109 86 58 41 19 38 43 52 39 49 49 23 29 38 31 34 35 32 32 34 29 34 27 38 36 45 38 52 48 63 69 57 58 35 50 51 54 42 47 62 46 53 86 84 84 47 57 48 64 59 87 125 143 157 163 172 171 172 173 175 176 178 177 180 176 185 174 176 181 179 178 177 172 174 178 169 166 164 168 165 165 165 154 158 158 158 154 152 147 145 135 131 127 116 100 78 52 41 29 64 55 40 43 42 24 30 37 30 35 32 29 34 41 27 34 33 40 50 32 37 43 67 66 55 39 38 42 47 51 36 64 39 61 80 88 78 57 53 56 63 79 66 129 142 162 173 175 180 181 178 181 179 179 180 180 181 181 182 182 181 180 180 181 183 179 180 179 173 173 171 173 177 170 169 159 161 159 160 162 157 155 149 146 135 130 130 116 100 92 75 44 47 52 47 30 43 26 23 40 28 34 32 29 33 38 35 35 29 42 45 39 30 29 63 64 36 43 47 28 53 44 48 56 61 85 90 74 58 54 62 62 85 76 98 157 165 179 184 184 186 185 185 184 183 185 183 181 183 187 185 187 182 184 185 187 189 187 188 185 181 181 175 184 182 176 166 163 164 164 160 160 157 157 153 152 145 135 132 124 120 97 90 81 48 57 39 29 33 28 23 36 39 29 32 34 35 29 38 38 34 31 47 39 28 27 60 48 35 58 31 28 54 43 59 51 85 103 74 66 54 76 67 85 88 87 141 181 181 188 192 190 192 189 191 191 187 185 184 185 189 188 192 187 187 186 190 192 194 191 193 193 186 187 181 189 181 178 173 164 167 166 161 159 157 157 154 155 151 142 128 130 123 113 99 93 74 52 43 27 30 24 27 34 37 31 29 50 30 37 29 41 34 30 43 42 33 33 51 39 48 36 35 38 50 51 59 60 101 87 66 71 88 72 80 93 101 120 177 190 188 192 195 192 193 195 189 192 191 184 188 190 189 193 192 198 191 189 192 192 191 196 194 195 188 189 186 188 186 173 175 165 169 163 162 162 156 160 156 157 155 147 141 135 126 120 110 95 92 63 42 37 23 29 33 42 33 37 30 33 44 36 34 32 44 32 37 40 40 36 42 49 48 37 38 45 48 53 58 71 91 77 71 83 92 76 90 112 110 178 199 191 193 197 194 193 197 193 190 193 194 192 194 197 191 194 197 201 196 194 194 193 199 194 192 197 188 187 187 186 185 175 171 168 169 162 163 161 162 160 159 157 155 151 145 141 134 126 113 102 95 82 44 44 29 30 32 42 42 31 36 31 43 36 51 33 39 33 34 37 40 49 47 57 39 41 42 50 52 48 62 86 81 87 94 92 89 80 115 139 168 199 198 197 200 196 193 195 196 189 190 191 194 195 193 196 192 198 196 199 201 197 194 196 200 191 195 189 189 188 182 182 181 176 169 168 164 162 165 164 160 161 161 158 154 154 147 148 145 134 117 109 93 90 57 33 35 25 29 43 37 31 43 35 36 46 56 42 32 37 29 39 33 44 48 48 44 38 52 42 44 60 52 95 87 87 98 93 84 109 159 163 206 199 202 200 199 198 192 194 193 188 188 192 192 192 191 193 189 194 192 194 196 195 192 193 193 190 187 187 181 187 182 177 175 173 170 171 164 164 161 162 162 159 159 161 156 154 151 153 148 141 129 116 99 92 66 32 40 23 33 37 40 22 35 43 45 49 48 43 33 34 32 36 36 41 50 38 45 43 47 40 43 56 63 98 102 80 82 91 116 168 175 201 207 203 202 201 201 197 196 189 192 190 188 186 189 187 189 186 192 189 190 187 190 188 187 184 187 187 184 187 179 178 182 177 170 168 167 171 165 163 166 160 160 160 158 159 157 157 161 159 148 144 140 125 104 96 70 35 32 29 33 29 38 28 22 51 43 39 49 46 27 38 36 45 34 44 45 34 50 36 38 41 46 47 89 109 87 64 77 125 181 185 197 209 207 202 203 198 201 195 196 191 190 190 188 189 187 182 186 182 185 183 185 183 181 186 186 179 181 186 171 182 175 172 182 176 170 168 166 168 163 170 167 159 165 163 158 155 161 161 161 161 154 149 145 129 115 96 77 41 32 26 33 30 29 27 25 44 49 25 59 49 32 44 43 43 33 46 47 53 49 38 39 44 42 55 86 111 39 57 133 179 193 199 206 208 203 203 203 201 200 194 196 192 191 193 187 190 184 183 184 181 182 176 185 176 180 183 183 182 185 184 177 179 185 173 179 177 174 166 166 169 164 170 164 164 165 164 159 161 160 163 165 165 161 155 147 130 119 106 84 40 37 27 31 35 21 20 26 39 39 31 51 53 42 45 47 35 39 40 55 54 46 43 36 41 47 71 72 58 37 128 192 194 201 207 207 206 205 203 203 201 200 198 195 194 195 191 190 189 188 188 184 183 183 176 181 179 176 180 186 183 188 184 183 189 188 180 174 178 175 177 172 167 167 171 164 162 167 163 164 164 160 162 167 167 165 164 158 135 121 110 83 54 35 24 25 43 26 22 29 40 34 32 53 50 40 50 47 35 42 40 64 45 52 31 39 44 58 69 77 20 89 189 207 207 208 207 207 204 203 204 199 201 202 200 198 193 198 194 193 193 193 191 186 188 185 183 183 179 184 184 186 187 187 188 191 196 198 187 179 179 182 179 176 174 170 174 166 162 162 162 165 164 156 163 165 165 165 166 160 139 119 108 100 45 42 27 22 33 29 26 30 30 40 37 47 48 35 50 55 35 39 42 71 46 55 33 38 47 80 59 62 19 157 212 208 208 207 207 206 204 204 202 200 202 201 201 199 197 198 200 191 199 194 194 195 189 193 190 189 189 188 188 193 195 193 199 199 202 197 192 184 185 180 182 174 174 171 168 164 163 160 159 161 157 154 157 157 163 162 163 163 141 123 109 94 56 41 28 22 23 23 30 29 29 46 34 52 54 30 48 55 47 36 46 76 43 56 39 27 63 78 40 55 39 189 212 207 208 209 207 206 203 206 205 201 201 201 201 204 202 199 200 199 199 197 201 203 199 198 201 200 196 196 197 199 200 205 204 202 206 194 189 184 185 185 178 174 168 168 157 155 155 152 151 154 152 152 154 152 151 162 156 164 142 123 115 93 56 45 27 23 23 23 26 25 37 48 33 56 59 22 45 44 47 36 43 80 38 56 35 47 69 53 45 26 84 197 206 207 207 211 207 204 204 201 202 200 202 201 202 205 201 204 201 204 199 200 200 201 199 201 203 203 202 199 197 205 203 206 198 198 203 189 186 182 184 179 175 164 161 161 155 144 144 145 144 145 142 151 151 153 148 152 156 156 146 122 121 92 60 45 28 23 24 23 27 26 33 42 39 61 52 30 29 50 53 35 45 69 39 55 35 53 60 46 36 17 123 203 202 203 206 209 208 201 201 198 197 196 197 199 198 199 202 205 202 201 201 199 196 195 199 196 197 199 201 202 195 199 202 194 188 191 194 183 175 171 175 163 169 159 151 152 144 136 132 134 130 135 128 128 139 153 147 154 155 157 141 123 125 96 63 54 29 24 21 20 27 22 32 34 49 69 46 32 21 48 57 46 34 47 43 43 44 41 48 39 26 21 161 198 202 202 206 208 205 198 198 197 193 189 187 191 190 194 200 202 199 196 194 193 191 190 192 194 195 193 193 198 190 194 195 186 175 183 180 164 164 153 148 144 142 141 135 135 122 116 112 109 106 103 105 100 97 126 154 146 152 154 138 126 127 95 75 51 35 21 18 20 26 21 34 23 63 85 36 37 21 42 54 52 32 31 52 33 54 36 45 35 20 40 181 195 203 201 206 204 199 198 191 192 179 171 170 179 181 186 186 193 188 183 181 178 174 178 188 188 193 194 189 191 189 189 188 184 166 174 165 150 140 105 105 107 102 93 89 93 86 80 81 76 79 73 72 64 69 68 121 138 143 152 137 125 125 103 80 54 40 22 16 22 22 33 29 24 77 72 24 39 28 29 53 57 44 39 40 57 44 47 38 30 23 70 181 197 199 202 203 198 193 197 183 172 137 146 147 162 162 157 152 154 142 134 135 142 152 163 178 187 190 188 184 189 184 184 177 175 165 156 152 140 103 75 68 73 65 58 57 60 51 62 55 48 48 52 55 59 51 41 73 98 131 149 141 120 130 105 86 62 39 25 18 22 29 33 24 34 79 45 30 40 37 19 52 66 56 40 29 73 33 43 31 26 36 98 172 196 197 199 197 191 200 166 145 129 102 115 120 118 110 99 91 90 82 92 80 94 107 137 156 178 185 191 185 187 181 185 177 172 162 151 142 117 76 68 58 51 48 44 33 49 56 41 41 42 40 35 46 49 49 53 51 66 94 137 137 123 124 107 95 63 45 28 20 27 22 24 23 36 60 24 46 37 45 19 51 58 58 32 48 47 37 34 26 33 61 101 176 193 200 200 193 194 161 103 104 83 80 88 91 76 78 68 58 60 58 64 68 64 71 107 135 164 188 195 189 183 181 183 173 169 167 155 131 106 82 66 62 50 51 42 44 37 47 52 44 41 47 44 40 61 56 65 63 59 70 92 125 131 116 116 89 66 51 33 26 27 15 27 26 39 37 29 43 38 47 29 38 57 62 25 55 23 41 27 19 46 64 95 185 192 198 195 200 154 90 90 91 88 75 68 60 45 54 47 47 40 50 55 60 63 71 96 119 153 195 211 199 186 196 190 182 171 172 171 140 111 84 77 69 69 70 75 88 97 105 100 98 97 82 73 76 71 61 61 77 71 61 65 87 126 116 108 103 65 50 43 27 22 22 20 33 31 34 33 37 45 44 35 30 53 62 35 48 29 31 28 18 49 31 103 191 197 196 199 175 94 101 88 87 99 57 61 57 59 70 66 66 67 75 81 88 97 108 119 134 163 202 214 208 188 207 202 181 170 176 175 147 107 86 89 97 109 126 133 147 160 170 171 177 159 139 132 123 110 88 82 87 69 65 70 69 114 122 106 106 68 50 48 33 23 20 22 35 26 31 35 35 39 47 37 24 54 67 57 32 29 30 25 19 47 13 134 194 197 201 194 119 99 89 93 74 97 91 103 106 112 123 142 156 144 148 128 122 122 131 138 159 187 198 212 209 193 199 193 177 168 166 160 131 93 97 110 127 135 136 129 128 138 144 158 159 161 154 157 148 136 130 106 109 89 87 69 70 100 115 105 106 76 53 48 32 23 17 24 32 35 30 27 33 41 42 41 33 47 71 48 22 33 26 24 23 39 19 158 191 197 207 159 78 86 82 119 136 141 143 160 167 172 174 181 176 157 147 134 136 137 143 142 150 178 196 206 205 194 183 179 172 172 155 138 101 91 110 127 120 110 112 121 114 123 106 121 124 125 115 138 137 150 151 150 128 119 103 92 92 112 110 102 105 80 57 54 32 21 21 23 31 41 33 27 38 40 38 45 40 44 72 30 20 33 26 21 22 35 28 167 196 193 211 130 91 86 118 154 182 183 185 186 184 170 154 161 165 111 111 107 106 102 103 114 136 170 178 204 197 184 173 172 169 172 159 114 90 103 124 119 114 111 101 94 109 96 28 148 46 55 69 104 117 130 140 157 156 139 118 109 104 102 110 104 102 80 67 55 33 21 22 25 32 40 29 32 36 41 36 47 41 50 67 15 29 30 24 22 20 45 42 168 198 197 208 136 104 114 164 185 194 196 182 178 173 159 123 93 138 56 55 116 98 97 99 102 101 151 167 197 187 178 166 166 161 163 153 119 103 120 127 110 97 88 101 128 175 81 76 97 19 60 29 127 80 105 145 120 143 155 134 124 111 114 111 105 110 85 73 54 34 21 23 26 41 33 35 30 42 49 48 44 48 54 69 21 31 27 23 21 22 67 34 173 197 199 201 142 115 143 172 195 199 172 176 196 126 138 63 36 109 47 76 144 155 116 90 88 84 132 178 185 174 173 165 155 150 152 143 134 123 129 95 93 100 127 144 155 193 113 110 70 30 94 40 133 145 57 82 120 98 139 152 142 127 121 119 109 118 89 79 58 35 20 25 24 36 39 39 26 42 47 53 45 45 57 61 32 27 29 24 18 30 67 37 175 197 198 202 148 134 163 189 196 167 161 170 66 156 157 76 71 26 95 99 151 178 134 143 128 91 127 188 167 183 168 167 163 145 147 139 146 143 121 120 125 136 135 136 159 182 182 103 106 90 91 88 143 147 100 45 56 110 112 150 164 147 138 140 121 117 96 87 62 38 25 23 28 25 38 43 30 41 45 54 42 45 50 54 30 25 25 26 15 28 60 52 168 201 201 187 142 152 177 195 187 132 160 60 113 191 170 73 100 112 118 103 181 163 133 139 143 147 174 178 173 175 163 161 158 146 144 139 152 159 118 132 157 159 147 142 153 151 167 164 130 118 122 148 150 147 101 89 57 83 107 139 166 169 162 163 131 122 111 90 63 40 29 26 27 28 21 41 35 37 50 56 37 50 49 56 30 26 28 22 17 31 62 71 180 200 201 181 155 171 191 196 154 136 83 68 167 197 200 177 127 119 151 150 171 148 160 148 161 164 193 175 185 172 164 159 154 151 146 136 149 157 131 116 149 169 155 152 150 151 160 125 148 120 119 120 121 136 134 141 122 106 122 126 160 171 167 170 136 134 119 93 67 47 24 29 30 29 23 26 49 35 43 58 41 42 47 55 25 34 23 21 27 22 59 69 190 205 197 193 187 197 199 196 161 92 94 116 145 156 180 158 162 128 167 135 179 155 162 166 169 165 182 177 183 176 165 159 150 151 150 137 152 156 153 131 137 163 167 161 149 149 167 136 169 135 130 150 123 158 164 173 166 139 136 136 155 172 166 167 148 131 134 95 63 51 22 24 30 23 32 33 52 42 43 58 39 44 46 57 33 27 28 19 28 21 52 70 196 203 194 199 199 204 207 204 136 146 164 177 189 166 187 151 185 162 164 175 168 172 161 173 178 189 182 168 185 178 164 145 146 154 147 138 145 152 161 148 140 158 167 174 166 159 159 148 157 149 137 155 137 154 168 177 179 173 147 144 155 168 170 170 161 137 125 97 66 46 25 28 21 30 34 39 52 48 40 56 41 38 52 67 31 30 28 28 24 25 62 75 198 202 199 204 205 208 210 212 185 185 199 207 211 198 205 184 181 175 167 173 164 174 184 183 195 192 183 173 180 178 167 145 151 153 144 144 142 151 158 151 153 154 163 180 175 171 162 161 161 151 149 153 148 148 169 178 179 176 164 162 164 162 171 171 161 148 121 90 59 50 23 28 17 39 32 36 48 44 41 56 48 38 54 62 27 30 28 28 27 29 56 65 200 203 202 203 203 209 209 208 196 201 207 211 213 208 194 186 184 182 175 175 180 189 191 191 202 191 182 178 181 187 168 152 152 146 147 150 149 154 155 154 153 165 156 176 173 180 174 159 168 161 158 156 154 156 170 176 175 177 167 170 171 167 172 167 165 152 120 87 63 45 23 25 24 47 28 51 41 38 46 61 57 44 52 58 23 29 27 31 39 29 48 74 198 203 204 201 205 208 209 205 202 208 210 213 211 199 196 189 186 187 189 181 190 188 195 202 200 191 184 181 180 195 164 150 154 144 146 149 156 161 158 158 155 164 162 163 173 183 169 171 182 164 171 164 168 163 172 174 178 174 169 173 166 172 170 164 160 159 112 83 59 37 26 24 32 36 46 59 46 44 48 52 64 43 39 52 23 18 83 117 95 60 39 71 191 207 200 203 205 210 206 206 207 207 213 209 208 206 202 189 192 187 196 190 190 195 200 203 202 197 182 181 190 192 169 149 154 145 142 149 147 163 164 160 165 162 167 171 167 174 166 176 178 177 174 174 171 169 171 175 177 169 171 172 166 172 171 166 156 155 109 80 60 37 21 20 23 45 50 55 47 52 45 55 69 47 33 44 15 89 165 189 182 172 63 40 183 204 199 203 202 206 207 208 210 207 212 206 209 207 202 198 199 190 200 192 194 197 201 205 202 198 180 185 194 209 180 161 157 147 144 144 148 154 166 164 169 165 171 175 176 170 169 177 166 177 170 175 171 168 171 175 173 169 172 175 170 173 166 163 154 150 103 73 58 36 24 17 29 50 60 47 45 68 46 71 68 53 36 39 7 170 168 135 202 212 165 12 154 210 202 201 201 206 207 210 208 209 211 208 209 204 206 202 200 193 202 191 198 200 203 207 204 199 171 198 201 207 193 151 155 150 143 144 138 157 161 170 164 174 169 174 172 174 173 178 165 176 172 171 167 171 174 172 167 173 176 179 176 177 166 165 155 141 95 74 52 32 26 20 40 56 59 54 47 66 51 68 60 51 41 45 20 196 144 48 117 204 212 31 135 211 199 198 199 206 208 209 210 209 210 209 208 206 203 203 201 202 198 196 201 203 207 209 206 188 179 196 203 198 192 155 153 148 148 147 139 146 157 169 168 175 170 171 177 185 175 177 173 177 175 168 173 177 174 174 171 171 180 175 181 177 171 160 152 138 90 69 51 29 27 26 50 45 56 40 52 44 50 59 49 48 40 36 22 208 132 59 125 196 220 74 101 210 198 195 198 206 209 210 210 209 209 208 210 208 200 206 201 201 199 202 202 205 209 212 204 182 190 184 190 194 188 169 156 154 145 149 144 138 159 158 174 174 167 171 180 182 182 181 175 178 177 176 174 175 177 174 174 169 172 165 181 176 169 158 152 136 85 76 46 26 31 36 46 45 42 33 37 37 45 46 50 32 33 35 2 204 162 75 141 201 227 128 55 210 197 193 197 206 208 211 210 210 210 208 207 210 203 204 202 201 202 204 203 206 211 213 196 185 195 186 181 201 189 173 162 153 147 154 148 134 156 151 163 170 168 172 173 176 181 182 174 173 176 172 167 171 173 170 171 174 169 164 177 181 165 154 148 136 84 67 42 31 28 43 41 42 27 32 31 37 41 49 44 27 24 37 0 173 172 88 149 204 208 169 17 202 197 192 196 203 208 208 206 211 210 207 207 209 204 204 205 203 207 203 202 209 207 207 185 193 198 193 194 194 179 185 177 163 149 155 158 134 146 153 147 158 164 172 172 180 184 180 183 176 175 172 168 165 168 169 169 168 173 166 174 176 163 155 145 148 75 64 43 28 30 57 45 26 31 27 29 34 44 44 39 23 32 41 30 144 189 95 158 202 209 220 49 172 198 188 196 201 210 205 209 206 210 209 206 208 206 206 203 206 208 205 202 210 199 189 184 199 210 200 194 168 165 178 167 171 168 171 178 159 135 151 136 150 170 162 172 178 170 183 180 182 168 176 168 166 167 172 161 165 169 174 174 164 162 150 144 146 77 58 38 29 38 97 33 27 24 27 27 37 44 39 30 22 32 37 33 104 215 105 152 210 212 215 58 143 196 186 197 202 203 208 209 208 207 204 208 206 207 203 205 207 205 204 206 199 191 184 185 182 198 190 175 146 151 149 147 147 166 154 156 139 137 157 130 146 169 165 169 175 168 183 181 175 170 173 176 164 165 173 162 164 165 164 171 164 155 148 141 145 76 55 29 29 53 92 23 22 20 30 24 40 44 29 19 26 39 34 43 62 226 122 152 218 209 197 73 113 191 184 199 200 203 206 208 207 206 207 207 208 204 206 203 207 204 201 200 195 179 185 178 160 174 167 139 124 132 135 130 128 132 120 121 115 134 164 129 147 162 170 171 174 181 178 181 180 175 174 171 164 168 158 167 162 164 156 159 160 151 151 140 145 77 54 34 26 61 68 22 20 26 26 35 41 29 26 23 33 36 28 50 18 200 145 162 221 201 189 81 88 189 182 196 201 200 207 205 204 206 207 207 206 204 205 203 205 203 200 194 187 171 177 175 125 157 163 116 100 99 103 102 108 116 105 88 94 113 151 124 144 155 162 168 176 174 175 178 178 175 175 171 169 166 160 161 164 162 164 153 157 148 150 140 140 86 46 34 25 45 39 22 22 27 26 31 28 25 24 30 36 29 29 52 23 147 178 158 218 186 170 122 56 176 177 197 198 201 197 207 201 207 207 209 207 205 202 204 203 201 199 187 184 165 180 170 90 56 155 127 89 71 73 84 106 96 36 24 37 79 133 98 146 159 157 164 170 170 176 173 177 176 169 170 166 167 157 163 166 157 162 151 144 149 146 140 135 91 37 27 34 34 28 26 33 23 35 28 41 57 33 35 34 28 36 50 36 101 199 164 218 176 170 160 37 162 180 193 197 196 190 202 201 205 208 205 208 205 199 202 199 198 194 178 170 162 191 178 135 74 91 158 108 76 70 102 104 92 64 53 65 95 105 90 144 156 158 164 166 170 171 173 171 169 168 165 168 163 160 150 172 162 151 153 142 146 147 141 123 103 39 25 25 57 26 32 52 29 61 56 117 87 26 29 32 31 34 51 41 54 205 173 214 181 171 184 51 131 178 187 192 190 192 197 203 203 205 202 206 205 201 201 197 197 190 184 167 186 202 186 172 158 161 163 119 116 81 95 69 57 96 118 113 125 98 110 147 158 163 169 164 167 168 172 167 173 162 167 162 162 162 145 159 168 152 162 144 145 148 136 116 99 51 24 17 86 65 73 89 60 52 107 139 35 21 34 31 29 35 43 56 14 183 174 208 183 159 184 67 110 170 180 186 184 192 199 198 198 205 206 205 204 200 201 194 196 184 178 176 197 208 196 170 177 177 129 97 121 82 81 58 59 91 113 122 117 126 134 160 163 158 171 163 168 162 166 165 167 165 164 160 161 156 156 151 173 160 154 147 143 151 125 97 84 68 24 40 102 108 120 132 126 122 141 58 23 31 28 32 29 38 48 59 15 127 186 193 188 163 201 75 93 146 168 172 184 190 194 196 202 201 203 204 202 197 199 192 194 184 180 185 205 208 201 193 180 137 127 85 113 84 95 85 84 98 103 121 111 139 158 166 162 163 170 163 165 159 160 159 165 160 162 154 157 150 159 156 162 156 155 147 136 141 126 90 72 52 43 59 106 110 125 134 130 138 64 17 29 29 30 29 32 36 50 49 43 53 197 186 195 191 219 134 60 133 147 176 183 187 191 200 200 199 202 205 198 197 194 193 190 185 187 193 207 206 203 192 160 108 132 101 105 106 115 112 113 106 100 106 103 132 162 155 161 158 162 165 165 157 160 155 159 159 156 148 158 149 153 158 160 141 148 150 134 122 114 78 81 55 56 50 102 116 134 139 155 82 17 29 29 34 29 30 32 24 48 56 60 26 161 201 183 185 205 188 38 100 152 179 177 175 188 197 197 204 202 206 198 194 191 192 189 185 189 199 207 208 192 163 122 109 124 106 115 122 118 124 108 113 74 106 89 99 146 154 154 158 162 163 168 164 162 154 156 159 156 151 159 152 155 160 145 145 144 139 135 109 110 67 79 57 46 53 108 115 140 142 130 16 25 30 32 32 28 30 32 30 56 51 47 37 59 199 201 183 208 211 41 80 144 166 190 172 193 204 193 206 202 201 199 192 192 186 190 189 190 202 196 184 177 127 122 101 111 120 104 108 109 105 111 105 81 94 73 83 112 130 127 145 149 160 164 164 159 155 156 156 153 154 149 163 158 154 153 136 137 135 138 122 106 76 68 62 52 59 87 105 118 97 27 27 28 32 29 32 30 27 29 33 52 52 51 45 25 105 185 187 199 211 66 56 132 166 184 184 194 205 200 197 203 196 198 195 191 188 190 192 191 193 161 157 151 100 117 110 120 115 112 82 98 99 85 97 84 87 70 86 92 102 109 120 125 136 155 163 159 160 162 158 157 151 158 164 167 160 150 139 128 131 119 119 87 83 62 56 46 36 37 44 41 29 25 30 33 26 33 31 34 27 31 30 58 58 46 47 48 28 117 192 199 219 97 47 110 144 185 177 187 198 204 196 202 189 193 192 191 190 195 195 179 166 130 126 122 99 101 101 112 114 105 75 105 84 96 97 94 95 86 82 86 91 89 102 103 108 132 155 146 160 164 162 159 161 162 167 163 158 163 143 128 122 106 116 68 88 54 48 49 31 27 31 28 27 26 30 29 31 31 31 29 27 31 29 57 56 51 44 52 46 46 171 190 196 144 48 84 134 181 161 184 194 203 199 202 201 190 192 190 187 201 187 162 114 134 102 117 108 105 99 106 99 107 89 126 98 100 104 98 96 93 74 96 75 93 99 85 106 114 125 137 141 160 164 161 162 167 168 158 164 163 138 127 112 105 111 77 73 65 48 48 28 28 30 31 26 25 29 28 31 30 31 31 28 33 26 56 60 54 46 52 43 39 62 133 157 136 58 87 151 157 150 188 191 201 198 203 200 196 189 185 194 191 152 119 116 119 101 108 105 116 94 117 91 117 122 155 131 111 90 90 98 80 79 94 79 98 78 88 77 92 99 117 133 135 163 163 162 162 165 155 154 145 139 136 113 102 115 74 62 70 50 49 23 28 28 27 23 29 28 28 28 34 29 31 31 28 33 54 58 54 52 46 49 43 44 48 63 62 64 85 118 149 145 177 183 191 201 198 202 197 186 179 182 143 105 110 108 112 108 100 119 102 103 114 98 113 127 150 145 110 97 95 77 82 94 99 78 95 75 68 75 62 86 97 124 128 154 164 168 154 158 145 153 135 128 123 122 122 101 67 58 55 51 47 27 27 34 24 29 32 26 25 34 30 29 31 30 29 30 58 58 53 50 54 45 49 44 44 48 40 55 94 106 144 152 183 182 185 193 192 201 200 193 174 162 112 93 103 99 98 98 101 133 111 93 103 95 92 106 122 118 100 93 73 60 71 93 78 71 81 74 57 74 58 86 83 102 119 142 163 166 157 137 149 148 131 132 111 123 127 98 67 63 54 48 36 26 29 32 26 27 27 27 27 33 29 31 32 32 28 30 57 57 57 54 47 47 48 45 40 48 44 51 64 93 125 160 162 183 190 189 194 198 192 192 165 158 80 101 118 109 111 108 103 125 116 90 90 100 96 103 116 103 94 100 76 70 68 70 73 69 55 41 34 60 66 85 82 87 97 130 160 161 150 142 139 145 129 128 105 124 108 110 63 53 67 48 30 25 29 29 26 26 27 30 28 28 32 30 30 33 27 29 52 62 51 59 45 47 51 40 45 42 49 48 61 76 125 158 161 189 166 184 194 191 196 181 177 113 84 104 119 110 102 94 98 109 118 92 73 97 66 127 127 92 84 107 68 56 65 81 86 83 76 78 75 76 56 81 83 74 86 119 156 157 143 138 125 140 120 128 101 123 101 98 62 54 51 43 31 26 26 27 30 26 27 28 28 31 30 31 31 28 32 29 62 52 57 57 51 49 48 39 52 44 44 45 52 63 121 158 148 189 167 184 187 186 197 183 164 113 115 105 111 83 53 34 91 112 116 96 82 97 78 107 102 68 70 92 106 105 110 129 129 122 127 131 116 109 96 95 81 86 83 92 149 149 136 122 123 130 116 113 96 128 115 82 58 48 54 46 24 30 28 27 28 26 28 29 27 30 32 33 35 29 32 34 62 53 62 54 51 49 43 44 41 50 48 42 57 56 104 160 144 190 147 182 182 187 192 180 155 146 104 110 96 78 114 137 145 160 167 169 154 153 149 148 144 138 137 141 128 132 131 130 137 136 138 131 114 118 126 107 95 99 96 95 135 152 130 124 125 130 128 128 99 129 114 77 34 58 49 38 28 30 27 28 29 28 25 29 29 34 29 35 31 32 29 34 62 53 59 60 55 44 50 42 46 50 41 50 44 75 78 138 164 182 152 169 170 169 189 179 161 150 112 119 102 122 157 173 169 161 168 166 162 168 162 159 152 148 148 138 132 135 138 133 140 126 113 121 127 129 131 122 103 98 109 116 124 141 126 123 115 130 134 127 92 112 89 74 49 46 55 33 26 32 26 30 24 31 25 30 31 31 27 35 31 29 29 35 63 55 56 64 52 51 43 46 41 53 43 46 50 71 71 123 166 153 157 168 159 166 178 175 155 151 110 130 121 148 170 170 156 153 160 170 154 158 159 158 144 142 142 132 129 128 125 121 124 115 127 136 136 146 130 129 131 87 104 105 120 128 112 122 94 115 127 111 95 96 87 55 64 49 46 31 32 33 27 27 29 25 29 30 28 32 29 32 29 33 30 33 64 57 60 52 57 46 47 42 40 55 45 53 47 65 59 95 146 147 161 161 152 164 164 163 168 150 114 134 125 161 176 162 155 139 146 155 138 145 144 135 116 136 118 101 103 103 111 111 122 121 132 138 145 149 127 136 127 116 88 100 104 111 102 128 93 120 114 90 93 89 75 52 61 35 45 32 27 27 30 23 30 22 30 28 29 31 30 33 27 33 32 34 60 56 62 58 55 49 47 42 40 48 43 54 49 48 68 79 119 143 155 153 150 151 158 146 157 143 127 147 138 161 183 166 144 126 139 154 135 141 134 111 99 118 105 94 99 105 110 118 120 116 136 144 146 146 130 133 129 137 102 95 97 102 95 109 96 102 112 100 82 93 72 48 54 36 37 30 28 26 32 28 25 25 29 28 27 32 35 32 28 34 32 30 54 56 62 60 57 49 43 47 43 45 46 50 48 47 60 59 102 132 157 145 157 146 153 150 136 151 142 161 143 161 185 169 152 130 137 156 144 141 131 114 96 102 94 89 98 98 100 102 110 113 134 133 139 141 143 139 129 140 129 90 102 99 85 106 92 95 110 98 78 83 69 38 49 36 40 23 28 30 28 26 25 35 26 32 27 32 31 31 29 30 33 32 57 60 60 63 61 51 47 49 44 45 43 52 42 51 68 52 80 131 160 145 143 145 151 138 147 144 151 167 148 156 175 169 152 143 149 147 140 128 120 99 84 92 85 81 88 72 89 90 101 109 126 137 129 141 144 140 124 124 125 110 95 102 87 93 92 95 97 94 77 67 66 49 37 47 32 26 28 28 27 27 25 29 34 27 30 29 32 31 33 26 35 29 57 54 63 59 61 52 48 46 46 45 47 47 49 36 75 57 50 113 147 152 141 149 142 146 146 155 155 162 159 165 160 168 144 146 160 134 132 114 106 89 68 92 67 77 69 76 77 91 89 111 121 125 130 133 147 131 115 97 106 120 91 100 95 80 86 105 84 99 58 58 52 42 47 51 28 27 26 29 26 30 27 25 39 24 34 31 30 33 31 30 31 32 54 55 64 59 59 53 51 49 48 43 47 45 46 43 63 65 28 86 136 134 137 145 145 142 147 166 174 152 171 180 174 175 165 157 148 132 129 115 97 96 76 74 74 58 70 69 79 83 96 107 116 111 141 134 143 121 113 98 94 92 102 99 88 81 82 90 83 75 42 55 47 32 49 64 19 30 23 29 26 29 31 26 31 27 31 30 30 33 32 29 35 30 55 60 61 58 61 49 51 47 47 50 42 52 42 43 58 64 48 47 115 136 140 127 137 125 148 159 170 162 166 177 182 187 174 167 153 140 121 110 87 103 86 68 64 62 62 66 75 79 98 112 112 120 134 130 130 136 117 94 67 87 83 85 76 79 94 82 89 55 50 49 42 36 49 57 24 24 26 26 28 29 24 32 24 36 27 32 29 31 32 27 36 32 59 59 62 62 57 53 50 56 44 53 43 47 52 43 50 72 59 42 83 125 141 128 131 136 131 153 148 152 166 173 192 186 175 167 163 157 106 107 101 111 83 62 57 63 75 53 81 82 108 116 126 128 128 120 114 125 122 107 74 98 89 86 73 87 75 101 80 59 57 34 40 27 71 44 21 26 27 25 31 25 30 32 27 29 32 32 32 34 31 29 35 30 56 58 59 61 55 51 53 59 44 49 47 47 50 47 31 94 60 39 56 117 114 140 116 143 127 136 129 145 175 177 187 165 176 169 169 149 134 109 117 111 88 72 64 53 78 64 94 98 132 111 132 127 121 108 97 116 116 98 81 74 90 72 76 96 84 84 84 55 59 49 26 24 104 27 22 26 31 24 29 29 28 28 28 31 26 31 30 34 31 28 34 36 59 58 66 59 56 58 53 53 52 48 43 51 48 47 25 95 90 53 46 85 101 125 118 106 107 133 107 137 167 168 160 172 176 161 160 154 149 138 127 117 104 69 71 65 78 89 95 118 138 111 123 134 108 117 93 110 123 96 87 47 82 58 67 89 72 63 64 51 68 42 21 59 120 5 25 29 25 25 28 30 27 28 24 31 30 32 28 35 32 29 34 36 48 66 65 56 60 54 49 56 50 48 50 53 49 35 56 146 96 54 59 45 99 104 109 103 111 102 108 114 151 133 142 162 160 135 146 159 146 145 125 119 93 70 99 61 92 85 116 122 129 110 112 116 113 112 110 94 108 85 81 61 63 61 73 73 82 79 39 58 55 39 20 94 118 8 26 28 27 27 26 29 27 29 30 25 32 31 33 31 32 30 36 30 52 64 60 56 54 58 50 57 49 54 51 49 36 53 178 147 135 55 58 50 95 95 111 100 99 87 91 88 141 118 149 162 150 118 136 150 139 113 121 117 71 84 96 64 87 89 122 93 121 101 111 97 106 107 101 101 83 83 71 92 49 65 67 59 76 73 51 55 44 30 40 112 108 7 27 30 27 24 28 30 24 32 26 27 32 32 31 31 34 33 31 35 59 61 62 55 56 54 57 56 50 56 47 42 77 194 174 100 169 88 47 51 73 89 116 94 95 80 78 87 126 114 144 144 139 116 140 126 117 102 117 94 73 77 94 87 79 102 120 98 97 99 101 94 112 96 94 89 90 80 51 81 51 59 48 67 65 77 72 54 38 36 85 133 82 10 28 29 27 28 26 29 27 31 26 29 31 28 33 29 32 30 35 36 60 61 61 55 56 57 54 54 54 53 29 89 204 177 124 88 172 143 40 44 65 90 103 84 77 74 72 83 105 103 136 141 108 112 109 116 123 107 93 82 85 81 98 76 77 114 98 106 78 91 86 80 107 90 90 60 101 67 55 56 61 52 42 71 55 72 70 61 31 85 110 136 78 8 26 28 30 29 26 25 28 30 26 30 29 30 31 31 32 32 34 38 59 61 57 59 54 54 56 51 57 35 95 217 179 148 119 78 164 157 113 76 42 60 86 63 68 67 65 73 95 119 118 132 100 112 102 111 126 112 91 101 82 86 101 59 87 109 76 100 75 83 80 62 106 77 51 64 75 59 43 47 55 45 52 65 38 68 74 59 75 112 126 117 132 43 20 28 29 29 27 27 27 27 29 29 31 32 30 29 34 33 35 39 59 62 57 59 52 56 54 54 38 96 215 181 151 146 116 72 173 167 169 143 62 50 72 64 66 60 50 59 83 110 111 119 94 96 92 115 114 98 96 111 58 78 104 49 86 98 79 67 84 80 78 54 84 77 38 45 61 53 39 40 45 40 51 60 51 49 71 79 117 119 127 117 92 162 20 23 32 28 28 28 27 29 26 31 31 31 28 34 34 33 39 36 58 63 59 54 56 56 55 45 47 225 176 153 161 144 119 82 167 170 166 184 96 37 57 56 63 62 38 56 69 89 111 102 85 78 102 101 105 98 77 95 58 64 93 54 64 95 56 51 82 78 86 43 81 64 34 44 47 44 34 42 42 47 47 50 54 39 65 91 119 124 125 122 32 139 145 23 28 28 27 28 28 30 26 29 31 31 30 36 32 33 38 37 52 66 56 59 54 54 53 26 171 209 130 158 144 142 131 90 165 168 167 176 157 61 42 45 57 62 48 49 55 78 100 85 66 61 92 85 86 96 62 67 54 65 69 74 50 74 52 54 69 71 60 48 62 59 29 39 37 44 38 30 43 39 60 21 45 58 79 116 124 125 127 106 35 64 165 117 14 27 26 26 30 28 25 31 25 33 31 33 35 31 35 38 53 62 59 50 56 39 57 159 234 150 143 134 141 146 152 59 163 168 169 162 178 147 50 49 63 64 55 40 36 53 69 80 56 66 66 68 61 92 67 63 49 55 57 80 53 44 63 48 54 64 46 42 50 53 36 34 26 42 28 33 42 40 41 27 53 78 103 124 123 121 133 76 38 69 102 172 77 15 25 29 29 28 27 31 32 32 33 29 30 36 33 36 56 56 54 47 39 122 203 223 194 130 126 138 136 156 151 36 151 171 173 159 171 183 103 67 43 73 47 38 44 37 43 55 58 63 54 64 49 76 63 52 38 47 56 65 63 40 52 52 33 52 49 31 45 59 25 41 31 26 33 36 34 34 32 19 98 99 110 122 125 120 136 53 27 78 92 145 183 52 18 26 30 32 26 28 33 28 35 30 33 37 39 36 67 84 88 61 163 217 210 220 172 135 128 136 114 163 148 26 126 174 172 166 171 175 159 107 92 56 50 45 42 35 32 42 53 59 44 54 48 52 54 41 34 45 42 61 55 48 29 41 35 51 34 46 43 38 30 37 26 22 41 26 29 35 16 64 111 106 114 122 121 120 130 36 36 64 88 147 188 169 19 25 33 24 35 28 31 33 32 31 32 40 30 44 