P2
92
112
255
47 47 47 49 45 51 49 50 47 52 49 46 48 50 49 47 49 49 53 44 53 51 51 49 55 48 45 47 42 38 40 39 38 35 33 36 34 42 39 37 34 36 32 28 31 35 33 33 34 26 30 27 30 19 27 18 21 23 19 21 23 26 21 26 24 20 24 28 27 25 29 30 38 34 39 29 33 32 43 38 39 39 40 40 41 41 39 37 38 40 38 39 50 45 47 48 43 51 50 47 48 49 47 49 49 54 47 44 49 53 44 48 48 55 46 49 45 40 31 33 26 28 23 30 31 38 46 41 44 46 35 35 31 32 30 26 25 29 32 33 29 27 33 39 33 25 28 20 25 21 23 28 21 27 29 26 21 25 27 24 23 31 30 35 36 38 36 34 35 30 45 37 40 35 39 41 38 42 40 34 41 38 39 36 46 49 47 46 48 46 48 53 44 50 50 48 47 51 48 49 51 53 41 51 54 54 39 35 32 23 27 24 21 27 32 34 41 41 48 41 49 36 34 29 32 30 28 28 26 30 26 33 23 25 30 38 39 34 33 29 23 28 32 24 29 29 25 31 29 28 26 23 34 40 29 28 31 32 32 37 36 36 36 34 42 32 50 32 38 45 37 36 39 40 39 36 48 48 50 46 50 49 50 50 47 54 47 54 44 51 49 50 49 49 53 48 52 42 35 31 33 32 37 29 24 33 50 43 37 41 46 43 36 30 38 37 39 29 32 32 32 33 35 35 35 30 26 32 35 36 35 29 36 29 38 31 31 34 35 34 37 30 28 30 31 30 25 34 29 35 26 36 29 33 33 41 36 39 42 44 38 42 43 37 36 42 39 43 47 46 49 47 46 49 49 50 46 49 53 50 50 52 47 50 51 48 51 46 46 40 31 33 35 38 34 48 42 47 46 44 40 48 43 38 37 38 40 45 40 30 37 37 34 45 47 38 43 43 28 34 31 42 39 37 43 39 36 36 37 44 33 42 39 33 32 29 26 32 30 34 30 32 31 26 28 31 29 36 36 34 40 36 45 43 46 40 38 38 42 38 48 47 48 44 48 46 52 50 44 51 52 47 52 50 45 52 46 51 45 38 42 30 31 34 39 40 43 61 41 43 48 42 44 41 41 37 43 41 43 52 39 34 35 33 41 38 47 38 39 44 41 41 46 34 36 39 37 46 37 44 53 43 51 45 43 46 33 31 29 40 35 34 33 30 23 29 24 28 26 27 30 30 39 31 39 44 40 39 38 42 41 36 50 49 44 50 48 46 50 48 52 45 54 46 51 53 46 54 49 46 36 31 37 34 36 34 49 48 46 55 44 41 47 42 40 40 49 46 40 52 36 44 38 40 28 33 37 37 39 33 31 36 45 42 41 39 28 40 28 47 41 60 54 63 50 51 42 51 39 34 36 38 41 29 35 36 22 26 25 31 26 24 28 28 26 35 36 40 38 38 41 40 37 42 45 53 44 51 49 46 50 52 47 46 56 45 47 50 47 49 44 35 28 28 40 33 48 51 49 49 44 49 48 44 43 46 42 35 47 48 50 48 37 36 29 39 29 32 33 31 38 34 30 27 41 37 42 33 32 39 38 41 52 57 53 63 50 49 58 56 44 38 38 36 28 23 30 31 29 24 26 24 28 32 27 27 27 30 34 36 37 39 42 41 41 35 50 46 45 48 48 49 48 49 48 45 59 46 52 53 51 39 34 34 25 33 38 37 48 51 48 43 47 49 41 52 48 49 42 42 48 42 41 35 28 32 30 31 31 28 28 31 27 33 31 25 37 34 41 37 24 41 41 51 48 47 59 43 46 43 68 58 48 27 38 28 18 26 27 28 31 32 35 30 28 27 31 25 26 28 30 38 36 34 44 35 42 37 49 49 48 54 46 49 48 50 44 52 54 41 50 52 46 31 25 31 31 34 48 47 50 44 51 40 45 36 42 51 54 52 52 46 48 35 35 31 35 34 35 31 23 20 23 27 33 29 33 30 30 38 33 39 19 50 33 56 40 47 45 32 44 54 60 54 33 30 32 17 20 24 27 28 32 27 31 43 33 27 22 31 20 32 24 33 32 34 41 36 43 37 46 45 50 51 50 45 50 50 51 54 44 43 48 44 39 26 24 30 37 41 48 44 50 45 48 33 31 33 43 55 60 56 41 46 41 36 35 44 39 33 29 22 27 23 26 26 35 31 32 31 34 40 36 36 26 51 43 45 41 42 35 35 46 61 42 36 30 29 25 25 31 32 31 33 28 31 31 37 42 35 28 27 26 27 29 26 34 33 34 36 44 38 52 48 43 50 50 47 49 50 50 50 44 47 45 45 44 31 31 39 42 39 46 51 44 41 37 30 35 44 46 51 54 43 35 43 38 39 53 39 37 30 23 22 27 25 26 26 27 38 43 32 31 41 40 36 39 53 45 36 39 40 31 39 46 42 28 26 31 24 35 26 24 32 35 29 34 32 28 33 30 31 37 38 28 28 30 27 31 32 33 35 42 39 55 50 46 49 49 50 50 52 47 52 50 50 45 47 39 37 46 44 39 42 47 44 39 37 33 34 39 47 51 50 47 42 42 41 46 49 53 45 28 29 20 30 34 31 30 40 34 55 55 47 32 41 44 40 51 52 44 35 34 35 40 44 39 23 31 27 22 25 23 24 22 24 26 34 26 30 26 32 31 28 28 30 32 32 28 26 26 36 28 35 33 42 54 48 50 51 47 54 54 50 50 57 52 48 45 38 36 48 48 40 41 41 43 39 36 37 35 40 33 52 48 46 51 45 44 47 55 50 59 36 38 30 40 51 62 72 74 71 65 68 75 59 41 48 49 38 57 45 39 39 37 44 48 38 28 26 29 30 22 23 24 20 24 24 23 27 33 23 37 31 35 35 34 31 27 31 28 25 24 34 33 34 35 40 53 48 51 58 48 47 55 48 54 55 48 42 53 50 41 59 42 37 35 46 38 37 34 32 49 33 41 57 58 60 47 43 50 53 62 61 55 30 58 72 96 111 112 116 116 114 110 95 94 77 66 56 51 52 56 44 45 49 45 52 46 42 36 35 30 35 22 28 22 23 21 24 23 27 43 30 36 36 29 32 36 37 29 29 27 30 25 31 36 37 34 36 53 49 50 55 54 45 52 52 54 48 44 54 62 54 53 54 37 40 42 43 35 34 42 45 39 43 66 79 67 49 42 48 58 59 75 65 44 59 96 108 124 137 135 139 137 139 133 128 109 106 92 68 68 63 63 55 72 63 67 75 67 68 68 62 64 53 49 34 29 26 23 20 25 27 49 38 27 32 31 33 36 28 30 33 25 30 27 32 34 36 43 31 53 51 54 51 54 50 53 53 56 45 47 54 60 60 51 41 39 38 42 43 34 37 53 48 49 71 80 71 60 44 39 53 71 69 70 68 61 101 117 129 135 143 141 146 148 148 147 152 131 130 119 96 84 86 86 88 94 102 107 103 99 104 103 107 101 92 88 64 60 43 32 26 24 40 45 32 33 30 33 35 32 31 30 31 30 31 29 34 33 36 46 33 49 55 54 51 54 49 61 64 50 53 50 55 55 51 36 46 33 43 45 40 35 38 50 62 66 87 75 61 48 43 45 75 66 69 65 84 103 127 131 142 146 146 145 152 150 152 153 155 151 145 134 126 114 112 110 108 121 129 128 128 123 116 124 122 116 115 108 100 93 83 64 48 27 43 53 27 32 37 33 28 37 32 29 23 26 33 28 31 36 40 29 43 49 54 60 47 60 58 70 66 53 63 46 48 47 36 49 40 35 57 39 37 34 47 71 78 79 70 60 40 44 42 68 67 74 66 90 118 138 141 145 156 150 152 152 156 156 157 158 158 158 153 148 148 134 138 130 132 140 142 143 141 139 134 127 130 122 123 119 115 103 99 92 79 47 50 42 25 31 36 34 29 42 28 26 19 26 26 29 32 26 49 33 32 50 54 51 52 64 65 58 55 49 56 48 44 34 47 40 28 54 42 41 50 30 71 85 92 63 57 46 40 56 49 63 78 73 85 136 144 154 154 161 162 161 161 160 159 158 162 164 161 162 161 153 156 156 154 146 149 151 153 150 151 141 145 131 139 135 130 132 125 120 115 107 90 74 62 39 30 25 32 36 36 37 25 29 23 18 28 26 29 34 42 35 33 51 50 55 54 52 56 49 39 52 46 40 41 46 45 30 46 55 42 42 40 54 85 98 68 47 56 47 72 60 55 74 86 84 133 161 165 169 169 174 172 170 168 165 166 165 164 167 166 162 168 162 163 164 164 160 157 157 154 158 157 149 148 141 144 142 143 143 134 131 128 122 109 81 78 47 31 29 30 34 41 40 35 23 23 27 30 26 27 34 50 40 30 53 52 60 49 48 57 41 48 64 32 50 53 41 30 37 48 44 33 46 46 69 88 62 61 47 59 76 62 62 74 91 97 128 163 176 173 179 183 181 185 175 177 176 172 172 170 166 168 167 171 168 165 165 163 165 159 159 160 161 157 152 151 147 150 148 148 145 141 139 140 135 129 104 90 70 33 26 23 32 40 39 41 28 21 28 31 23 36 27 60 37 35 56 45 58 51 53 48 47 62 47 48 68 42 33 30 38 47 38 43 46 63 75 60 55 69 62 65 65 62 74 99 103 132 178 182 180 180 185 184 189 193 183 184 178 178 172 168 171 172 169 176 168 168 163 169 164 165 166 164 161 157 154 151 151 155 153 151 149 145 145 149 142 137 125 109 101 50 21 19 28 40 50 38 40 31 19 28 30 33 34 46 44 32 57 54 58 58 53 48 56 53 55 57 47 33 33 38 41 37 45 25 59 85 73 62 57 70 73 55 57 83 115 125 146 181 183 187 183 193 189 192 191 192 186 187 182 178 174 176 174 175 174 177 168 167 166 173 169 171 167 168 165 161 155 157 159 161 157 153 152 152 150 153 145 141 139 124 111 90 38 14 21 30 53 39 43 39 23 23 36 30 39 38 37 40 45 75 55 65 46 58 55 62 69 43 40 42 42 36 41 22 45 33 80 95 66 64 60 69 62 65 95 136 146 160 188 189 188 190 190 189 191 189 190 190 184 188 187 183 186 181 186 180 177 180 173 169 167 171 175 171 168 173 167 164 162 157 163 158 157 154 155 157 151 156 151 149 144 134 121 110 83 37 16 21 36 55 41 37 40 22 34 33 37 37 43 31 70 59 57 64 49 66 65 61 59 39 36 47 42 33 30 26 36 56 92 86 65 73 65 63 93 117 157 162 172 194 194 192 190 190 191 193 189 188 187 183 180 185 184 185 182 183 184 186 182 175 180 174 169 174 178 167 169 174 167 166 164 165 163 156 158 153 157 159 153 155 152 153 146 147 127 118 112 72 42 28 23 47 52 44 39 31 31 36 35 32 45 29 65 46 65 57 60 65 71 53 46 44 44 52 30 29 27 40 42 63 92 76 69 76 66 110 146 173 172 179 198 199 195 192 192 187 194 188 188 183 183 177 176 179 177 179 175 177 176 175 175 175 180 175 168 175 174 168 170 169 168 164 166 169 165 159 157 159 157 160 156 155 150 153 151 153 141 122 115 98 69 44 18 26 50 43 35 35 29 38 34 43 38 31 53 51 66 66 68 57 71 53 46 49 44 46 31 25 30 44 48 70 65 76 67 95 142 168 172 182 190 197 198 197 191 195 192 189 191 184 188 183 180 178 179 176 174 172 170 175 170 174 173 173 171 170 173 167 172 169 171 169 166 167 164 165 163 162 158 161 159 157 156 157 155 155 153 156 147 131 114 113 86 64 36 14 42 39 28 36 31 36 35 42 42 26 46 65 69 67 63 61 52 61 55 39 42 42 25 31 32 57 52 58 68 62 91 154 187 189 191 196 197 198 197 199 193 194 195 190 191 188 186 181 180 181 180 175 171 170 170 172 167 170 172 173 167 168 170 165 167 168 168 168 163 165 163 162 162 161 161 158 156 158 157 158 159 163 153 161 151 139 121 118 98 81 52 23 34 34 30 30 32 33 40 41 43 35 58 61 74 63 59 52 59 51 60 44 35 51 27 28 48 54 57 61 67 79 166 199 201 201 199 198 199 195 194 196 196 195 192 190 191 186 186 187 184 181 179 178 173 168 171 167 169 164 170 165 166 167 168 163 164 170 166 166 165 164 162 164 158 163 161 159 158 157 158 160 157 161 158 158 151 149 130 122 107 93 70 27 21 40 23 33 35 45 40 37 39 41 68 55 72 60 57 51 46 56 51 31 41 44 23 32 63 51 63 68 54 134 204 203 203 202 201 199 199 197 195 193 193 193 191 190 193 191 185 190 186 185 183 184 178 174 170 172 168 165 167 166 162 167 167 167 165 170 155 162 163 157 163 166 161 161 158 162 161 159 157 156 156 158 158 157 155 149 142 129 114 96 78 38 15 49 26 34 40 50 45 34 35 44 65 48 56 63 51 41 47 52 42 31 47 38 25 44 62 48 63 49 81 184 202 202 205 202 201 201 197 197 195 197 193 193 192 192 191 192 190 191 189 190 186 188 185 179 174 172 171 166 168 165 162 164 170 167 172 172 159 165 165 159 165 166 159 159 159 161 158 161 158 155 156 156 156 157 153 155 145 138 122 100 79 50 17 31 37 32 44 43 44 36 37 39 57 40 67 58 42 38 53 46 41 26 55 32 33 58 54 47 45 57 137 200 200 201 204 202 203 200 194 196 194 194 194 190 192 191 192 193 194 193 193 193 195 193 190 189 180 175 175 170 171 167 168 169 174 168 172 165 169 171 170 166 164 162 162 161 160 158 160 162 157 159 158 153 157 158 156 159 151 142 134 107 80 55 16 21 41 33 42 43 31 36 44 37 50 44 76 43 39 46 54 39 38 34 41 31 44 61 44 39 29 99 178 199 198 202 204 204 201 200 193 189 196 186 190 190 188 193 192 193 195 193 197 195 200 197 199 197 191 187 182 178 176 177 175 175 174 174 175 169 174 174 173 168 165 162 165 163 160 161 162 160 159 162 159 158 152 160 159 160 155 145 143 118 80 58 14 19 36 35 37 47 27 31 48 49 54 50 60 43 43 47 49 32 33 37 35 45 44 50 49 18 47 151 190 195 200 201 203 203 200 194 193 186 191 185 185 182 183 185 187 187 194 196 198 201 200 198 198 197 195 193 193 191 185 183 179 181 178 180 178 177 184 178 173 171 166 165 165 167 168 161 165 162 156 161 161 161 155 159 162 163 164 154 143 127 85 52 22 19 28 40 33 38 27 31 51 44 48 59 53 43 52 54 39 36 25 44 39 48 49 42 34 28 92 174 192 195 201 202 203 203 197 190 192 183 183 177 171 166 169 174 178 184 189 194 195 198 197 197 195 189 193 196 191 192 193 190 184 188 182 189 185 182 187 185 176 172 170 165 167 167 166 168 162 163 156 159 158 159 161 159 165 165 169 163 151 129 93 53 22 19 30 37 41 28 26 27 53 36 68 51 65 48 41 57 29 40 31 48 52 46 40 35 26 46 128 180 192 199 200 199 201 197 192 184 190 170 165 148 134 146 152 162 161 176 174 185 182 187 185 182 185 176 192 187 194 188 192 192 183 186 187 189 179 180 184 179 175 171 170 167 168 161 165 156 157 154 157 155 153 156 155 151 162 165 169 168 156 127 95 53 18 17 33 32 44 23 19 31 49 43 84 34 82 56 49 42 35 38 42 40 52 49 29 37 47 83 146 189 194 197 199 199 197 191 187 187 151 132 120 107 105 119 124 133 134 136 141 155 137 143 151 157 164 160 184 180 188 195 185 191 182 179 186 184 168 180 177 174 171 163 168 162 166 159 154 150 151 144 142 145 144 149 146 150 149 161 163 168 158 126 90 57 21 15 33 31 35 28 19 31 46 48 66 55 86 55 42 42 32 41 33 43 46 33 27 47 71 103 162 197 194 197 199 198 195 188 178 126 101 100 80 78 79 92 91 92 88 79 84 91 83 94 96 114 134 153 165 177 180 191 185 188 180 176 180 176 162 174 165 160 155 152 150 148 155 152 144 149 136 137 133 133 138 135 145 149 145 152 159 166 155 118 91 61 13 17 27 24 26 30 25 34 41 41 57 74 77 51 34 34 27 45 36 42 41 19 36 52 65 125 181 198 197 198 197 195 195 160 110 91 91 86 88 65 66 66 72 49 63 48 47 69 47 74 72 76 98 137 156 171 178 189 185 185 176 172 169 172 158 157 153 141 130 116 115 117 119 124 129 129 127 121 120 120 122 132 126 146 151 145 155 156 155 114 86 56 19 18 23 21 24 26 31 27 41 39 62 66 63 43 33 21 53 40 35 38 28 19 47 31 87 157 194 197 197 200 196 193 159 102 89 87 77 87 79 68 63 43 56 45 41 43 35 52 51 57 60 66 85 118 148 167 182 187 184 185 176 167 169 167 155 147 139 125 94 72 78 79 87 72 79 89 89 92 92 95 100 102 109 110 146 149 148 155 148 110 94 50 15 19 23 19 22 27 25 36 43 35 62 55 53 35 28 36 62 16 52 27 21 26 34 33 121 180 196 199 198 200 200 159 108 95 79 79 87 84 88 76 80 75 72 79 77 71 59 66 66 78 83 80 93 119 142 177 200 191 187 189 178 168 168 168 154 139 120 99 62 56 50 59 53 52 62 45 54 60 55 66 69 68 73 68 116 144 145 149 136 109 94 40 18 21 23 20 24 27 31 37 48 37 61 47 42 29 41 49 31 28 45 21 21 32 27 60 154 194 196 198 197 200 184 105 91 76 83 133 126 124 122 135 144 142 139 147 146 142 125 129 115 113 119 122 124 133 164 193 214 192 194 201 188 169 163 174 166 130 107 83 59 58 40 44 37 37 46 46 36 41 43 47 49 59 51 44 65 119 138 144 133 110 95 40 18 16 20 22 29 26 33 38 44 33 61 47 30 36 56 37 28 41 26 24 17 35 33 91 177 199 195 198 197 200 165 103 90 110 132 160 170 168 166 169 181 182 189 181 164 159 154 150 143 136 140 144 148 170 188 206 213 197 193 209 187 171 173 183 178 133 103 75 71 66 55 52 43 44 32 52 33 39 29 50 29 44 57 44 53 75 124 145 125 116 97 30 18 18 20 23 22 25 35 41 30 55 43 44 34 60 44 26 32 35 24 20 30 38 46 110 189 197 196 199 193 203 149 107 121 157 179 194 192 191 184 187 175 166 175 156 128 125 121 123 129 140 149 146 143 165 198 199 208 200 191 190 179 168 172 177 158 133 102 85 80 87 89 88 97 99 97 85 62 55 45 49 46 43 54 61 61 60 86 138 124 114 98 29 17 16 19 22 22 31 35 42 23 71 43 37 50 54 29 20 40 30 18 23 25 70 52 131 198 196 198 201 197 196 141 124 160 170 183 204 202 186 169 167 170 160 155 125 93 97 109 104 106 100 105 131 142 141 173 192 204 196 186 174 168 170 174 164 146 117 92 98 104 126 144 147 152 162 168 159 139 124 114 81 69 60 66 58 73 64 68 112 125 120 95 32 13 19 19 26 21 38 37 31 39 81 44 35 49 35 32 27 31 23 18 21 46 70 61 160 191 196 201 199 204 172 142 153 180 193 197 195 178 182 171 120 107 78 69 85 51 47 126 107 79 96 108 106 116 160 151 189 205 184 178 160 163 164 167 146 132 86 91 111 131 141 140 137 142 157 174 162 161 157 145 133 119 102 80 82 66 72 68 82 121 120 88 34 14 18 20 25 28 27 32 34 53 57 52 39 36 35 31 31 29 22 16 29 47 63 84 173 194 197 200 201 186 150 164 181 194 199 196 147 177 161 92 160 175 65 48 13 82 90 144 161 115 86 85 112 119 159 177 188 190 174 168 157 162 156 156 138 102 78 103 116 118 116 124 128 126 158 134 145 127 149 155 151 146 130 114 92 79 64 63 62 101 121 88 27 17 17 28 21 24 29 31 42 48 42 40 38 33 32 32 32 25 21 21 46 63 66 108 183 196 200 200 195 186 171 186 196 200 199 153 149 125 62 149 206 134 64 100 59 118 96 169 170 121 130 101 102 93 167 189 181 179 165 166 160 162 140 147 125 76 96 109 119 117 104 104 107 84 89 91 99 104 124 123 139 155 148 151 106 114 77 71 68 100 117 85 24 19 20 25 20 23 29 33 36 40 41 39 33 47 34 31 30 22 20 27 53 49 59 125 198 199 204 199 200 198 199 205 206 205 184 156 97 82 96 182 201 197 114 108 113 113 139 179 157 130 126 125 135 125 173 188 166 174 171 161 156 170 143 137 119 95 103 78 82 94 104 128 166 88 64 149 24 52 57 96 139 134 152 174 130 125 94 69 81 98 114 85 17 21 23 22 21 21 30 36 33 34 47 43 39 34 33 33 28 21 21 42 44 65 64 138 202 199 203 199 200 202 208 209 210 210 173 118 112 121 129 145 173 187 179 152 134 154 145 160 133 140 138 151 161 163 177 184 167 190 171 149 155 160 141 133 127 119 105 72 101 170 153 163 184 73 105 60 13 72 55 82 66 129 144 145 147 131 109 98 104 107 103 84 30 16 32 17 21 22 33 34 34 31 41 35 32 30 31 32 27 24 32 50 54 62 76 154 203 202 201 203 206 208 206 209 210 198 175 157 168 167 177 176 131 160 138 160 137 143 148 154 146 151 154 169 161 161 183 181 177 179 174 152 158 155 144 132 137 135 122 111 114 158 142 169 196 97 111 56 61 96 71 135 67 63 135 116 140 136 122 109 104 105 98 81 22 21 24 21 15 26 35 42 31 36 35 35 34 28 30 36 27 38 33 38 70 57 69 172 204 203 204 206 204 204 207 208 202 192 190 188 193 196 197 202 169 194 172 193 167 161 189 163 172 160 165 170 166 178 184 184 173 172 179 154 150 149 144 135 135 144 122 129 133 149 148 147 178 153 103 97 95 82 116 140 118 30 76 114 115 142 132 114 113 113 95 81 32 13 23 22 26 25 41 43 33 29 39 32 28 24 41 52 40 41 37 38 61 50 92 183 207 203 206 205 204 205 206 206 198 196 200 200 202 203 205 205 187 197 186 192 188 182 185 173 175 182 177 180 186 187 188 185 172 171 175 158 144 142 141 137 134 146 135 126 141 149 157 150 144 145 125 122 111 128 137 140 131 69 35 88 106 142 146 128 117 120 105 76 35 17 23 23 24 31 43 43 31 33 39 26 19 72 137 162 135 91 52 41 54 50 102 186 207 204 205 201 208 205 207 202 199 199 200 203 207 204 206 200 190 191 192 197 195 191 172 191 185 190 184 193 191 191 187 183 178 174 180 162 149 151 138 133 133 143 143 132 135 160 160 155 144 147 120 127 112 123 123 140 129 107 76 60 102 138 161 147 130 128 106 75 36 18 18 26 26 39 45 42 35 41 37 29 56 176 185 199 204 185 153 66 61 24 102 188 207 203 204 203 207 205 204 203 201 202 202 201 207 204 204 200 195 195 194 198 195 189 180 195 192 189 193 195 192 194 188 178 184 174 186 164 152 152 130 136 141 141 150 139 144 161 162 158 150 156 140 150 117 126 114 143 150 141 143 101 104 142 171 165 154 136 110 73 34 20 20 22 32 38 48 50 40 35 41 8 150 199 139 128 210 207 202 185 93 18 90 184 205 204 204 204 205 204 203 204 202 205 203 202 208 203 203 199 199 194 197 198 195 196 187 192 191 193 199 197 195 196 186 179 179 187 188 166 150 147 132 136 149 147 142 152 151 153 171 163 155 158 152 160 142 149 149 153 175 172 169 145 123 155 177 168 159 142 123 84 36 19 18 23 25 34 42 51 47 33 42 25 200 158 76 81 183 208 207 223 177 18 101 186 204 204 204 203 201 203 204 204 205 205 204 203 204 205 201 201 201 198 200 200 198 195 190 189 193 196 201 199 200 196 182 178 183 188 207 168 159 149 130 134 155 155 145 155 160 158 163 164 155 159 156 158 157 154 159 158 183 182 178 167 142 151 178 171 157 143 132 93 31 20 20 26 23 31 31 40 49 43 43 52 214 122 82 151 193 211 197 210 229 19 98 192 204 203 203 201 200 204 207 207 207 205 205 203 205 205 202 200 202 200 200 198 200 187 190 191 196 197 205 203 204 195 176 174 189 189 227 161 160 162 133 130 147 160 152 163 162 162 163 169 161 150 161 156 162 153 161 166 186 190 178 168 164 155 170 168 163 145 134 97 27 15 23 31 20 32 31 30 55 43 42 86 216 126 100 179 207 213 185 202 234 38 62 195 204 204 201 200 201 205 207 208 207 206 207 206 205 205 205 198 199 201 201 201 196 191 193 196 196 202 208 204 205 185 175 177 181 196 225 148 150 160 143 129 142 160 156 167 166 163 165 165 165 155 166 157 166 159 164 168 187 187 180 168 169 165 164 167 161 150 132 83 20 18 25 24 21 31 37 27 67 40 37 105 216 114 119 183 210 210 185 177 228 50 57 188 204 201 201 200 200 206 207 209 209 207 208 206 206 204 204 200 197 201 197 196 198 197 199 199 196 203 209 204 196 183 180 184 169 189 225 152 149 153 145 135 136 156 158 174 172 171 170 166 163 162 168 160 169 167 168 173 182 185 181 167 175 170 168 164 160 150 124 65 22 17 24 17 35 31 40 38 53 48 34 111 208 112 125 187 206 203 201 202 214 77 75 185 204 200 200 197 201 205 207 209 209 204 208 205 206 205 205 202 196 201 199 199 203 199 202 198 199 203 208 201 184 185 183 177 170 181 192 154 150 143 148 140 135 147 158 175 178 172 174 170 164 170 166 165 166 170 172 172 179 180 177 169 175 171 169 161 154 152 118 49 17 21 23 20 41 35 46 37 35 52 39 105 217 117 126 193 208 207 210 205 137 120 75 176 202 201 195 197 202 206 206 209 202 206 204 207 206 202 207 202 197 203 197 202 203 201 200 198 202 196 197 192 178 187 190 181 186 199 175 158 161 141 145 146 132 139 153 181 178 168 172 172 171 167 163 166 163 167 173 177 178 177 174 172 178 172 173 163 150 149 101 33 17 22 26 27 38 36 39 32 33 42 45 88 222 118 132 207 212 201 201 165 121 107 78 165 200 199 190 201 202 206 202 206 205 206 202 205 207 205 204 203 202 200 201 206 204 201 201 199 198 176 185 190 187 197 201 192 198 186 163 182 166 152 158 146 131 133 147 180 170 169 176 178 172 172 170 170 166 166 173 179 177 176 176 179 179 177 167 160 147 146 80 26 15 19 27 40 43 35 40 28 43 44 37 56 224 118 158 213 205 195 184 162 160 116 71 151 195 194 188 199 206 204 202 204 204 204 206 203 204 208 201 206 201 202 201 204 202 201 198 194 183 157 188 187 183 188 202 187 176 155 152 164 156 153 193 173 130 129 138 169 167 170 175 179 176 176 172 170 174 163 177 179 177 179 180 182 186 183 162 155 147 129 59 19 16 22 29 57 49 38 36 34 44 48 52 22 220 128 173 214 193 179 179 150 197 116 65 151 196 190 185 199 204 207 204 204 205 203 204 204 204 207 203 203 203 199 201 203 195 197 193 187 163 151 195 183 170 162 184 167 146 131 142 147 139 136 164 154 129 130 132 151 168 169 166 173 175 176 170 172 177 171 177 176 180 177 183 179 185 183 159 154 146 109 37 21 16 20 49 59 59 36 38 42 55 41 64 2 203 150 176 217 168 162 175 137 204 140 63 128 195 188 182 197 208 204 202 204 200 201 204 204 206 204 205 204 202 200 201 199 195 190 181 168 148 165 194 181 132 162 178 154 118 107 120 129 120 121 124 119 131 131 111 145 160 167 171 173 181 171 174 168 172 169 175 178 176 169 168 166 177 169 159 145 143 88 27 16 24 32 46 63 51 48 48 45 51 43 65 9 186 168 186 209 159 170 179 142 199 143 57 118 192 186 184 199 205 204 200 197 195 204 200 204 208 207 204 205 200 197 200 197 193 183 171 148 144 164 191 145 67 50 174 153 104 90 87 98 99 107 113 112 117 142 98 135 160 161 168 171 175 180 178 168 177 170 167 175 168 166 160 157 171 162 154 144 133 64 18 17 35 55 51 40 49 46 48 47 31 55 62 20 149 177 188 206 155 164 184 171 192 165 51 113 182 183 183 199 203 199 200 197 194 198 204 202 204 206 205 202 198 200 196 195 189 161 154 141 163 175 177 126 66 31 150 153 96 64 75 85 91 65 46 89 114 147 73 131 151 156 166 165 169 176 176 168 178 167 170 172 161 162 161 158 162 159 147 147 120 44 17 15 47 59 29 38 41 33 48 39 31 55 50 29 76 190 182 196 163 144 168 184 195 150 50 124 171 179 175 198 193 201 193 198 193 198 201 203 203 202 205 202 199 197 194 189 178 150 144 146 174 187 180 132 108 135 160 145 129 66 85 110 83 28 17 41 104 148 57 109 151 154 165 167 168 177 167 172 179 175 168 170 157 164 157 157 157 151 148 146 107 33 15 22 40 39 26 35 27 32 43 37 39 46 38 52 44 196 184 194 191 166 175 190 179 123 54 106 149 171 167 185 184 202 179 200 193 198 194 204 207 203 205 202 201 195 194 184 169 147 150 170 189 196 186 181 170 173 136 122 115 83 86 81 97 115 43 37 102 125 49 96 144 158 168 168 170 175 176 170 172 175 168 165 156 158 153 160 147 148 145 141 86 23 16 29 33 36 30 30 26 27 31 38 32 30 31 51 11 168 194 184 197 203 197 206 213 174 50 103 145 160 157 169 186 197 195 198 193 198 198 202 204 204 204 201 200 191 189 170 156 147 174 191 196 188 192 188 152 152 125 123 89 70 68 65 82 113 108 89 123 123 63 83 142 156 161 164 168 170 173 173 169 171 165 158 157 152 146 155 147 149 138 138 65 19 18 37 41 35 23 24 25 22 36 38 22 34 24 50 32 89 207 192 183 198 200 201 211 202 40 83 131 135 145 176 200 192 188 188 197 196 199 202 203 205 203 198 197 189 184 165 145 162 194 195 195 188 181 148 119 138 127 112 85 52 72 69 90 93 109 124 132 124 103 76 132 153 159 162 169 168 177 170 170 166 166 156 153 153 150 143 144 151 137 126 50 14 25 45 31 27 17 27 24 25 34 29 22 23 22 45 52 24 151 207 194 190 201 195 207 199 41 86 109 120 138 173 194 202 186 189 197 199 196 202 205 207 199 199 190 188 175 159 155 188 195 194 181 166 133 117 113 124 108 110 93 78 88 85 103 80 101 110 129 140 127 87 127 157 158 160 170 166 171 165 167 168 167 157 155 147 158 133 147 148 135 111 35 13 35 56 17 20 24 23 24 40 25 22 22 20 29 50 52 35 52 144 193 191 200 197 210 200 57 92 98 109 142 166 191 202 187 197 200 205 198 205 205 203 200 196 185 185 168 155 175 199 194 180 151 141 116 102 102 120 118 87 100 102 102 96 111 71 86 87 116 141 140 112 121 152 158 156 165 167 171 168 167 171 162 153 161 145 149 142 143 141 135 89 23 14 49 46 17 21 23 25 20 30 29 17 25 27 30 53 54 44 45 39 179 196 200 200 204 212 93 72 87 110 129 161 196 193 195 203 202 206 200 204 206 200 199 195 180 178 163 164 192 197 178 158 134 102 111 90 109 113 121 89 76 118 104 91 103 87 81 82 89 138 152 141 129 147 155 154 161 162 167 168 170 164 167 145 157 147 151 138 146 142 122 74 20 14 69 30 19 28 25 28 25 21 28 26 25 36 31 57 56 48 49 27 100 189 192 194 194 189 83 76 100 101 124 140 199 194 193 193 201 207 198 202 206 194 194 194 177 169 170 184 189 168 150 148 115 93 95 89 104 113 115 80 66 148 91 95 91 93 76 69 80 134 153 155 143 144 152 153 155 160 169 170 168 166 161 151 155 156 156 141 142 135 109 62 19 26 129 48 29 52 33 53 49 17 35 34 32 32 36 63 52 47 50 39 37 92 142 165 163 147 77 79 99 106 133 157 190 166 191 197 202 204 202 203 203 191 191 184 177 171 175 195 157 142 117 131 103 115 106 94 112 110 114 93 96 155 91 112 97 86 83 78 77 111 141 160 156 141 151 151 158 156 170 168 166 164 154 163 153 157 154 132 157 119 79 55 17 51 138 116 81 80 64 62 32 26 31 33 28 36 33 60 51 48 45 46 48 38 51 75 80 65 53 100 94 102 104 162 170 168 195 198 202 202 203 204 203 193 187 180 179 182 178 178 120 133 93 118 119 121 116 118 131 130 133 138 144 148 120 116 94 92 92 82 79 90 108 150 164 145 148 155 153 157 166 168 161 169 161 162 153 149 154 129 146 98 64 48 18 89 132 129 127 127 143 50 21 27 32 29 30 35 34 53 54 52 46 45 46 51 41 50 46 40 52 93 102 106 118 139 170 173 196 188 201 200 202 205 201 190 179 177 181 193 165 132 116 117 99 108 129 135 111 114 143 136 136 152 164 146 138 119 100 95 88 76 81 82 95 110 152 153 149 155 153 159 163 172 164 168 166 165 161 132 150 137 122 71 73 40 36 97 128 129 132 141 83 22 28 30 31 27 31 31 32 63 50 58 44 48 46 50 44 52 44 38 53 88 77 86 116 141 177 178 205 193 194 198 201 201 201 185 165 184 190 165 130 115 115 112 102 116 147 155 143 94 127 128 116 130 145 126 117 110 99 97 95 88 83 81 95 88 127 149 154 151 154 155 164 166 171 168 170 166 163 132 148 131 113 53 70 33 50 111 132 135 139 78 27 26 30 29 28 30 35 30 35 56 58 55 44 46 46 47 44 50 49 40 54 80 76 82 97 132 173 167 197 200 196 196 197 200 200 174 155 186 167 112 111 109 106 108 104 140 169 157 136 125 123 130 122 129 132 108 112 109 89 88 104 108 96 94 88 85 103 119 155 155 149 156 166 161 166 169 178 169 159 138 128 139 101 57 67 27 80 113 128 137 124 18 29 29 33 29 30 31 33 32 28 55 57 49 46 46 46 45 45 50 50 41 37 71 77 67 100 156 166 173 203 191 195 198 197 201 195 172 159 174 137 104 103 113 119 135 130 143 148 136 130 122 119 110 124 137 111 106 111 103 107 101 99 105 111 102 82 92 88 101 135 152 150 158 164 166 165 171 177 168 157 136 131 120 86 65 47 30 67 95 111 99 43 22 29 30 26 30 32 28 30 32 35 55 58 53 53 45 47 45 45 49 49 43 35 78 78 78 92 167 156 177 208 185 188 197 197 196 185 165 155 163 104 95 124 141 151 172 151 128 120 121 106 83 78 70 118 128 91 84 105 82 82 88 92 97 104 92 103 81 81 94 118 145 143 160 161 168 172 169 176 164 167 137 131 106 83 60 40 40 29 37 41 32 28 32 28 30 30 31 27 33 27 33 35 53 62 46 51 42 46 45 48 44 50 45 34 78 82 72 99 169 149 185 197 178 197 194 190 191 192 159 159 126 94 115 129 151 155 143 108 93 113 119 111 103 105 96 109 97 69 69 88 68 51 66 79 93 85 87 116 72 77 81 104 126 131 156 161 168 168 172 168 164 165 135 121 104 64 62 43 35 26 28 26 26 30 28 30 30 31 29 28 28 30 30 32 58 55 53 49 40 45 46 49 47 53 43 33 68 82 71 101 144 164 205 167 184 191 184 191 194 197 151 162 101 124 120 134 129 118 84 102 139 158 161 154 151 146 139 137 132 124 122 127 117 117 106 101 76 60 78 98 69 71 82 80 112 119 140 161 167 165 166 165 157 154 136 125 101 56 49 42 32 24 30 25 31 26 31 33 29 30 25 31 26 33 30 34 68 52 53 53 40 47 44 44 53 47 41 48 60 77 71 83 141 173 172 163 193 185 179 182 189 191 136 158 117 118 126 113 103 125 155 160 159 168 163 153 161 154 154 146 131 132 129 130 128 129 130 132 131 85 31 71 81 92 73 84 100 110 122 166 164 161 157 156 149 132 129 123 107 32 47 44 32 24 27 29 27 31 28 34 31 27 26 32 29 29 33 34 56 56 56 45 42 49 42 46 50 48 43 38 62 69 76 62 134 156 168 175 179 179 172 181 187 192 139 156 136 110 123 115 151 189 178 165 158 171 166 145 161 147 157 153 134 137 135 130 133 134 140 139 140 134 124 40 92 102 70 92 88 106 122 161 167 162 136 149 147 136 125 111 102 59 43 38 30 24 30 27 24 30 27 30 34 32 29 32 28 30 31 36 57 53 54 54 41 44 47 49 39 45 46 45 48 62 69 70 118 152 161 178 172 175 166 176 184 179 138 154 126 130 134 158 185 184 168 155 147 154 144 135 131 129 120 106 108 137 111 102 117 123 134 132 140 138 146 142 74 90 97 97 96 87 107 160 167 159 134 150 139 134 114 119 89 56 45 32 24 27 31 23 29 30 32 28 29 33 31 30 31 28 32 27 59 56 55 52 46 48 49 42 56 39 50 38 42 74 63 56 104 127 164 170 169 160 157 167 170 172 161 141 110 145 147 185 184 165 159 131 134 137 137 130 130 118 109 86 93 99 88 94 95 106 111 115 127 129 131 155 114 73 91 97 85 81 101 155 157 145 136 132 135 125 112 111 63 46 44 29 27 27 24 31 28 29 27 30 33 28 29 28 32 28 29 31 61 59 54 56 41 48 48 46 50 50 42 45 37 81 66 54 98 141 172 162 162 163 153 160 159 156 149 145 128 161 172 189 186 164 151 121 133 121 144 131 119 115 106 78 88 93 80 103 109 111 118 120 122 127 135 147 144 91 91 97 93 83 86 152 154 140 126 127 125 120 99 109 52 39 37 28 25 25 28 28 27 32 24 31 29 29 31 33 26 31 34 29 58 54 54 49 43 50 47 46 46 51 45 48 28 84 88 57 62 139 179 155 148 159 154 152 152 141 128 146 159 161 171 188 183 167 150 128 131 133 128 115 107 98 85 68 85 72 72 91 89 97 100 113 115 124 136 138 155 121 101 85 94 100 70 145 142 134 118 124 125 117 109 91 44 39 32 23 25 26 27 30 27 28 29 33 27 32 26 31 30 28 32 33 59 58 51 51 49 44 44 50 49 44 52 42 28 95 83 48 44 136 172 158 153 160 146 146 138 142 140 144 174 164 163 183 174 151 130 126 141 126 116 111 99 86 75 58 77 62 74 71 69 84 89 98 116 118 136 141 162 143 120 92 82 112 99 125 142 121 121 117 131 119 113 67 52 31 34 21 29 24 27 30 26 30 27 34 30 28 31 28 30 26 30 33 57 61 54 51 49 51 44 50 53 40 45 53 13 112 102 53 28 125 136 146 144 159 146 144 147 142 145 147 162 164 164 151 147 139 132 142 126 119 110 101 90 61 79 55 73 58 57 63 74 73 86 92 107 112 125 139 149 146 121 124 82 95 116 112 130 120 101 109 114 119 89 45 47 38 23 32 25 26 31 30 26 32 27 33 28 32 28 32 25 29 32 29 59 61 56 55 52 50 47 51 48 45 45 47 27 107 143 55 35 82 144 142 157 137 142 137 150 142 164 169 145 168 168 147 157 168 158 153 118 124 89 98 77 73 81 47 56 53 60 52 74 70 86 92 95 109 121 118 134 136 117 113 101 84 96 103 100 114 98 101 103 93 76 47 41 26 27 28 25 27 30 29 26 32 30 28 33 28 31 30 32 30 28 35 59 62 53 54 49 54 51 48 49 46 43 52 26 112 173 69 38 59 125 152 135 148 146 121 136 151 162 163 157 159 169 184 188 178 151 142 125 114 91 94 86 103 87 46 61 37 75 49 66 71 86 91 87 104 102 104 117 130 110 118 96 82 77 89 95 96 93 96 99 84 64 48 32 28 24 30 27 27 26 31 27 31 32 26 31 27 32 26 30 32 27 33 62 56 55 54 58 49 55 50 50 42 49 47 23 105 179 101 48 30 118 123 134 142 141 142 129 152 146 142 156 173 185 180 163 168 143 136 139 125 129 116 100 113 83 55 63 50 74 55 73 84 107 100 94 106 117 88 97 117 102 130 122 83 86 81 81 86 88 90 101 72 50 41 26 29 26 28 26 29 27 32 27 31 24 35 27 28 33 29 30 32 31 33 60 54 53 53 55 49 58 46 54 43 51 47 18 111 181 119 55 38 77 104 137 134 113 130 112 153 122 140 154 179 166 163 161 159 142 144 154 141 150 112 119 103 68 75 75 52 76 66 97 103 119 116 119 115 124 125 98 105 83 104 108 85 76 74 77 77 91 75 91 55 40 45 23 29 23 31 25 25 30 28 24 34 25 30 30 30 27 33 29 29 33 30 61 52 51 61 53 56 55 56 49 51 46 52 21 108 187 144 70 41 47 95 118 117 95 110 125 117 114 120 137 152 141 157 154 145 119 133 152 142 125 108 110 90 57 89 72 46 75 80 107 113 114 111 142 103 122 122 121 105 86 76 87 81 68 73 82 65 92 72 74 40 38 44 22 27 24 26 27 24 29 26 27 35 25 33 30 26 31 27 32 34 26 30 56 55 47 60 56 53 54 59 51 55 48 56 23 110 185 168 105 47 40 93 104 115 102 104 115 93 99 83 143 120 143 156 148 130 114 146 118 128 103 96 86 79 59 80 78 62 70 94 84 98 102 99 130 107 111 99 112 106 77 57 72 80 73 69 71 61 83 66 53 23 46 40 22 30 21 30 27 26 27 27 30 28 32 28 29 27 30 32 33 29 30 31 60 56 50 59 52 56 54 54 58 48 46 40 91 138 175 177 137 43 39 78 91 117 99 93 96 99 82 88 128 117 131 149 140 112 112 121 89 122 105 77 79 84 63 89 67 61 78 96 65 91 91 89 109 108 108 95 107 103 83 62 75 79 55 70 69 73 75 60 33 26 45 33 24 25 23 30 29 26 25 27 30 26 34 26 31 31 29 29 34 30 29 32 60 53 53 56 52 57 50 61 54 42 57 159 175 137 168 173 152 70 49 54 84 109 85 87 82 90 79 95 108 108 121 141 136 91 105 95 86 103 101 75 83 73 72 94 56 62 70 84 65 72 83 84 81 99 104 94 100 102 70 56 77 60 58 69 69 81 67 50 25 30 53 25 25 27 28 25 26 28 26 29 29 32 27 29 29 29 29 30 28 31 33 30 56 57 54 55 52 58 53 59 47 57 193 185 115 116 172 180 173 147 111 33 59 89 58 79 72 79 71 79 107 113 120 121 131 92 86 88 87 93 71 73 86 50 76 80 36 68 72 61 64 63 64 75 83 98 89 92 89 82 60 47 59 54 49 76 77 59 60 37 25 50 52 21 28 24 30 25 26 28 26 27 27 32 26 28 30 29 28 30 30 32 30 28 52 59 55 56 58 50 56 41 76 200 201 151 87 116 172 180 180 171 166 48 38 74 58 69 58 68 57 77 97 98 122 109 117 82 70 83 80 82 57 60 69 46 63 74 26 68 67 51 55 65 54 56 85 88 87 79 95 60 58 55 56 53 55 69 68 47 49 26 25 92 40 19 27 29 22 26 28 25 26 27 30 26 30 29 26 31 29 30 28 32 30 32 58 56 52 57 53 52 38 86 207 177 153 133 94 122 173 175 177 174 190 89 35 51 58 79 55 48 62 63 87 88 110 91 97 76 49 85 77 60 57 57 46 49 48 75 38 58 67 32 61 69 57 48 88 72 64 63 91 59 46 62 46 54 56 62 64 38 38 18 54 117 32 18 21 33 24 28 26 26 29 26 29 30 26 30 27 27 28 32 30 31 35 26 58 55 55 52 52 40 88 215 183 147 139 128 84 123 173 175 176 180 174 163 64 33 50 78 54 59 56 46 74 86 99 83 77 61 50 67 49 58 56 63 37 39 53 74 48 38 59 42 61 64 54 42 81 67 31 55 78 48 47 52 45 47 48 56 59 41 23 36 99 121 23 18 27 30 26 24 29 24 26 29 25 33 27 27 26 30 26 31 31 29 32 32 54 51 59 55 34 87 213 184 149 147 134 109 98 124 175 173 174 179 166 186 123 45 45 72 61 53 51 35 53 57 75 70 77 49 60 52 45 57 57 54 30 39 44 72 54 34 50 51 49 52 49 42 76 41 35 41 57 43 44 44 47 42 58 50 57 30 51 82 116 125 22 24 27 31 29 23 24 30 24 30 28 32 28 26 28 29 29 29 31 34 30 32 55 53 60 47 59 213 183 153 160 140 130 133 67 124 176 173 176 176 170 175 171 89 57 69 55 51 43 46 44 41 55 44 72 49 54 43 57 39 56 40 31 51 41 63 55 29 55 39 46 52 42 39 61 36 35 37 43 41 37 37 49 42 45 39 48 47 100 120 110 130 97 11 22 30 28 23 30 26 27 28 29 31 29 30 31 28 30 26 34 33 33 34 51 55 57 23 161 203 136 159 146 139 132 142 24 136 172 170 182 168 175 171 181 128 111 75 48 47 40 42 36 40 42 53 53 52 37 40 43 42 52 30 40 49 44 57 46 39 36 44 45 47 35 42 56 38 33 35 43 33 30 42 37 46 37 29 64 110 111 119 123 70 164 82 13 27 27 23 25 30 28 25 28 29 28 37 26 27 27 31 33 32 33 33 54 51 30 120 227 160 142 135 141 143 149 114 12 141 171 172 176 179 174 177 174 159 146 119 76 35 49 34 40 36 43 50 48 49 33 36 43 39 40 36 39 52 39 56 39 35 33 38 40 32 44 41 53 37 36 25 40 30 35 36 43 32 37 42 90 116 117 119 125 44 91 164 54 18 25 28 25 30 28 28 29 28 31 26 27 30 28 32 28 33 34 30 37 65 170 227 198 135 139 131 137 156 158 54 52 129 171 172 177 180 179 172 173 165 161 159 109 43 34 36 54 34 49 47 47 40 37 38 39 40 35 37 35 47 35 47 48 38 38 41 35 33 43 39 31 32 36 28 27 32 42 32 38 23 48 88 113 115 116 121 112 35 65 127 152 14 23 25 27 27 26 27 32 29 27 29 29 27 31 31 26 35 33 27 104 212 213 223 161 142 124 137 115 164 150 46 125 97 169 169 176 176 180 175 170 168 164 167 153 67 51 36 39 38 40 39 46 35 36 39 31 43 31 35 37 36 39 56 38 51 32 36 33 35 40 25 26 35 28 29 30 29 32 30 15 66 89 105 117 118 117 121 94 25 63 114 145 111 6 25 29 29 28 26 31 29 28 32 24 36 26 32 31 30 35 33 