P2
92
112
255
50 46 49 49 55 47 46 53 50 51 54 52 48 49 54 51 49 49 44 47 30 31 34 32 32 39 45 33 46 39 43 38 45 37 37 39 38 46 39 40 36 37 43 55 43 42 42 37 35 44 36 44 37 46 43 37 39 45 45 46 45 41 41 37 35 23 37 34 29 36 23 35 25 29 21 31 26 27 29 31 32 34 40 34 46 43 36 48 35 43 41 36 46 48 52 45 54 47 53 48 50 51 50 49 49 49 52 47 57 48 41 36 26 28 35 32 47 46 44 42 48 49 38 42 40 41 40 40 51 50 36 37 40 36 42 49 47 36 44 46 45 51 39 34 42 37 46 28 55 59 51 53 52 48 50 34 31 31 41 36 36 31 40 26 28 30 27 29 25 25 35 21 30 30 36 36 43 37 45 39 41 38 44 43 48 49 53 48 51 48 51 47 55 50 50 45 49 50 53 58 50 32 34 28 33 38 41 53 45 46 43 44 42 47 46 42 47 41 47 44 49 46 36 38 36 46 27 45 39 38 38 46 41 46 41 35 38 32 45 42 66 57 61 54 61 44 53 48 32 41 39 33 27 33 27 39 28 22 28 31 28 25 29 25 27 28 31 35 36 34 42 40 43 37 45 38 55 48 47 48 51 47 54 44 53 48 48 46 53 48 54 51 33 29 25 28 44 41 49 47 42 46 48 46 46 39 43 45 55 52 41 51 37 39 34 34 37 29 40 34 38 31 34 44 45 38 32 36 43 31 45 50 54 56 54 47 52 57 69 36 42 38 36 23 26 23 28 31 32 27 30 29 28 33 32 27 23 27 27 35 41 36 36 42 40 41 39 43 49 46 52 48 50 50 51 51 50 50 47 52 49 48 49 38 26 25 25 35 43 46 56 42 45 39 51 46 55 36 43 47 46 48 41 38 31 29 34 34 37 35 31 39 29 35 26 43 34 48 32 26 51 37 47 46 47 61 29 48 38 66 64 46 25 42 26 18 22 24 30 26 31 34 35 36 30 30 26 27 29 23 28 36 34 33 35 41 40 38 43 42 43 58 50 52 50 50 51 49 48 53 54 46 47 51 44 31 26 31 36 52 47 51 50 43 43 43 56 49 48 47 49 42 36 34 30 30 34 40 32 31 27 29 29 35 34 37 30 34 37 34 42 20 53 37 52 41 42 44 27 42 48 60 47 44 18 35 18 23 24 29 36 25 26 31 31 46 44 36 21 28 23 30 30 20 37 31 33 36 37 42 40 38 52 53 49 51 52 51 49 49 50 51 56 42 52 44 35 34 32 43 50 50 48 62 37 42 39 45 49 59 55 46 46 42 36 37 35 41 37 34 27 28 24 28 27 37 33 33 31 36 40 36 42 27 53 37 50 37 47 31 33 44 56 43 29 38 30 25 29 27 32 34 32 32 37 31 37 37 38 37 37 31 25 27 29 24 29 33 28 39 33 38 43 40 49 53 48 47 49 51 47 56 49 46 47 44 43 45 36 37 44 49 50 50 52 46 31 31 37 38 51 63 47 41 42 41 37 44 51 39 30 26 24 27 23 27 28 32 40 43 31 38 38 46 34 43 55 40 38 41 44 28 35 46 42 25 28 29 27 31 29 22 27 33 27 33 31 32 30 31 34 28 39 36 34 30 31 25 25 33 26 35 34 35 42 43 52 48 52 50 51 56 45 61 45 44 51 47 40 55 46 43 50 45 55 48 48 34 28 43 42 45 49 52 42 40 38 43 46 49 41 39 21 24 27 24 27 27 32 31 42 55 47 35 39 50 32 61 54 39 41 37 36 37 44 37 29 27 25 25 27 24 23 25 22 23 28 29 29 28 35 31 33 29 30 32 30 30 30 27 23 25 31 31 36 35 41 44 52 51 51 48 53 51 55 50 48 54 55 52 40 54 48 50 46 46 55 41 38 35 34 44 51 51 48 54 39 45 39 42 57 54 36 37 24 25 38 44 45 52 53 51 60 77 55 41 54 41 50 59 47 44 38 42 38 44 40 32 28 29 34 21 29 21 24 21 25 24 23 31 33 30 32 33 37 34 37 32 31 28 32 27 24 27 30 31 38 32 40 39 48 53 52 48 53 54 51 52 53 53 50 42 45 56 52 46 43 50 45 34 38 42 45 40 51 44 45 59 42 47 42 56 59 57 35 41 45 69 76 86 93 104 94 94 81 94 72 59 64 48 57 60 42 52 50 43 51 47 43 40 37 36 37 33 29 28 25 20 21 24 24 28 46 32 29 40 32 29 38 35 35 33 28 25 26 30 30 35 39 33 36 39 51 54 55 53 47 55 57 52 51 55 45 50 59 56 45 38 41 46 36 40 32 59 36 43 53 60 63 45 46 46 52 67 64 43 56 63 95 116 128 130 126 132 127 131 116 108 100 87 66 68 60 63 54 66 65 59 69 68 66 68 70 71 67 64 52 39 36 26 28 23 26 40 46 34 30 29 39 32 40 31 32 35 32 31 27 33 33 36 44 30 35 36 51 56 55 48 49 52 60 51 46 61 58 55 63 49 39 37 48 37 32 46 53 40 37 61 78 71 63 36 44 56 69 71 57 43 87 103 120 135 140 141 145 144 148 148 143 126 126 110 88 83 76 81 84 86 91 101 96 99 105 102 110 108 101 100 87 76 67 52 39 32 26 49 49 27 38 25 37 37 30 34 32 34 36 31 35 25 32 40 38 32 29 32 53 60 53 50 54 55 54 56 57 67 63 57 46 34 42 41 44 38 33 56 53 40 55 78 79 65 47 37 47 75 75 62 65 80 116 119 138 146 144 147 153 154 157 156 160 145 141 133 113 104 106 106 103 116 124 125 124 122 116 127 127 122 119 112 114 102 101 90 80 52 42 51 42 31 34 33 35 28 43 29 29 26 24 31 28 35 28 40 36 31 27 36 58 48 59 51 54 63 50 58 63 60 58 46 35 38 39 42 45 31 36 58 41 58 79 80 72 55 39 47 64 66 66 68 92 113 133 138 150 153 149 153 156 162 158 159 163 162 154 146 142 127 132 124 122 138 142 143 137 140 135 132 132 125 126 125 120 116 109 102 102 79 70 56 41 22 33 34 37 31 43 29 28 23 23 29 23 35 30 40 36 31 29 37 55 49 55 54 55 61 62 56 59 57 42 39 48 32 46 41 46 35 49 53 59 77 74 65 53 39 48 58 63 78 65 96 125 138 149 154 158 160 158 160 162 164 163 166 165 164 163 155 156 154 147 144 142 153 152 150 148 144 147 135 138 140 134 135 130 123 122 117 106 96 89 64 43 26 31 31 36 39 42 29 28 26 23 26 23 31 33 38 43 31 32 33 57 46 57 58 59 56 62 50 51 46 35 50 37 25 53 42 44 46 52 59 90 76 59 53 41 53 51 62 74 76 90 138 147 158 165 165 168 169 167 167 167 167 168 171 166 170 166 161 166 164 164 159 157 158 160 156 158 153 149 141 143 148 141 143 141 134 131 131 123 109 86 85 51 33 29 27 31 47 33 41 28 28 27 26 24 27 34 40 46 37 31 34 48 51 52 61 52 54 50 55 40 40 52 40 27 40 40 49 43 55 53 99 87 55 53 49 62 60 53 76 81 80 141 164 168 172 177 175 175 177 173 172 173 172 169 175 171 171 175 171 169 167 175 163 164 161 163 161 162 158 153 148 150 151 148 149 144 143 142 138 137 124 102 102 69 39 22 27 29 42 38 41 40 29 22 27 26 34 32 34 62 31 37 35 56 57 50 59 47 50 51 50 32 57 46 41 35 47 42 38 56 37 79 93 56 49 60 75 67 57 76 88 94 123 169 180 178 182 185 186 185 182 182 180 179 177 176 172 176 176 178 171 174 172 172 167 169 166 168 167 163 158 156 157 153 155 154 150 151 147 149 149 142 136 126 110 100 62 29 18 33 34 47 36 43 37 25 22 28 34 33 37 50 38 30 39 57 60 49 59 47 62 45 47 46 51 39 35 40 49 39 39 53 55 85 57 66 59 76 76 60 72 94 103 123 176 183 181 186 187 189 191 192 189 187 185 184 176 178 176 180 180 183 175 172 170 174 173 174 174 172 168 163 159 160 158 161 158 159 150 154 153 155 151 145 143 139 120 116 91 59 18 29 21 51 42 40 48 35 20 32 27 38 37 39 34 38 37 51 59 57 54 57 58 56 46 53 40 38 32 50 40 41 39 56 78 69 61 80 79 65 65 77 104 120 128 178 188 189 185 191 191 191 193 195 189 189 189 183 180 181 184 180 183 186 176 175 173 183 179 182 177 180 174 170 164 164 165 165 160 161 154 157 155 156 153 154 153 144 135 120 115 95 55 29 20 33 60 47 37 46 31 18 40 26 43 34 42 30 36 67 57 65 53 67 60 57 43 41 36 38 38 45 30 42 42 75 85 63 65 88 78 59 80 112 141 146 183 192 192 193 191 194 192 192 196 191 188 191 191 189 187 191 191 182 187 187 184 173 179 183 183 178 179 181 179 172 169 167 171 164 166 155 156 163 157 159 156 155 153 146 147 127 123 119 86 67 35 23 46 62 47 40 41 22 41 23 43 39 35 30 39 68 69 53 61 69 58 51 48 34 45 33 37 33 43 29 64 95 82 70 76 70 75 89 128 160 164 183 200 190 196 194 195 192 191 192 192 187 187 189 190 191 190 190 189 192 190 187 189 184 178 185 188 175 178 183 176 172 172 175 172 166 163 163 159 164 160 158 157 152 159 150 155 138 129 121 108 85 65 39 28 45 47 38 41 26 31 39 35 42 39 28 39 65 53 60 66 66 48 41 49 37 47 29 33 35 37 36 77 102 82 81 80 70 111 152 176 169 192 201 200 195 192 195 195 191 190 187 187 182 182 183 186 186 184 184 184 186 183 187 192 184 180 187 185 180 179 179 179 171 174 174 172 170 157 168 159 163 160 157 159 153 157 157 151 148 130 123 118 100 82 60 33 38 40 35 31 30 31 37 31 48 37 28 33 63 56 61 64 69 40 47 51 46 44 27 37 33 38 53 73 87 80 59 86 133 166 181 181 193 201 201 199 193 198 191 196 190 189 186 187 182 184 178 180 180 179 178 181 179 183 180 182 185 179 180 183 179 177 175 175 174 171 168 170 166 162 160 165 158 161 160 158 161 158 161 159 152 142 123 124 111 93 77 45 34 45 25 31 31 30 33 41 39 35 34 34 61 68 60 65 63 52 51 42 54 36 28 31 37 42 66 67 69 55 87 150 182 177 191 197 200 200 199 196 197 199 192 194 189 189 186 184 184 184 183 178 175 176 175 178 175 180 178 175 181 175 178 176 174 179 172 172 173 169 165 166 166 162 164 160 158 161 161 158 164 161 161 157 153 147 133 123 121 100 87 68 33 35 32 26 31 38 40 37 37 33 41 38 55 69 62 58 55 57 58 37 56 33 32 29 49 59 60 66 54 71 155 191 198 196 200 200 201 200 201 195 198 196 195 191 192 188 187 188 181 183 182 178 173 175 172 175 169 176 171 177 173 177 171 175 175 171 173 168 171 167 170 163 162 166 163 161 160 159 161 160 160 161 161 156 155 152 143 132 123 109 94 74 40 33 36 29 32 45 49 34 37 33 43 39 57 67 60 55 55 50 66 19 59 42 26 30 59 63 60 66 49 132 200 203 204 202 199 202 200 198 199 197 197 194 195 193 193 191 187 191 182 186 184 178 177 177 172 172 170 172 168 171 173 175 171 171 177 164 166 172 160 169 172 164 165 161 163 161 160 161 158 157 158 161 164 154 158 153 146 145 130 114 92 83 45 28 32 33 34 45 43 42 35 34 37 49 54 68 54 55 50 50 46 35 46 45 16 45 64 62 63 47 74 180 207 204 203 202 203 201 200 199 198 197 194 196 195 195 197 189 191 194 189 190 188 188 184 178 178 174 169 168 172 166 172 174 172 176 178 168 171 175 163 170 168 165 160 164 159 163 164 162 158 159 161 154 163 153 162 156 151 145 137 121 94 83 48 28 24 38 34 43 42 35 40 41 31 50 54 73 38 52 45 56 37 36 57 35 26 57 62 57 44 45 127 197 202 203 204 203 204 200 199 196 201 197 196 196 195 195 198 194 194 196 189 194 194 189 190 181 179 176 173 173 168 176 175 179 173 180 172 175 179 176 170 168 165 166 161 164 163 161 168 160 161 161 164 153 159 162 163 162 157 147 147 131 96 82 51 24 23 36 30 46 48 21 37 45 38 43 72 59 44 47 42 50 39 34 57 32 36 59 50 50 26 75 169 197 200 203 202 207 202 197 199 195 197 194 195 196 195 192 200 198 196 197 197 199 196 194 200 191 188 182 179 177 178 175 181 177 179 179 177 180 184 179 174 167 168 168 168 168 162 168 165 159 162 164 163 157 158 162 165 164 162 152 149 145 107 79 58 25 19 34 33 34 41 31 24 51 41 39 78 46 47 49 47 46 36 36 51 33 40 58 44 31 27 121 192 196 199 202 203 204 204 194 193 194 191 192 192 192 196 193 196 197 199 198 199 201 201 198 204 196 192 197 190 187 185 183 188 182 187 185 185 189 186 178 180 168 167 170 170 169 166 169 170 161 159 161 162 163 160 164 166 169 167 161 153 143 114 87 52 29 22 28 37 38 29 30 24 53 39 30 68 41 46 55 51 36 34 45 38 41 45 55 42 17 56 162 194 195 202 202 202 203 197 193 190 192 188 187 182 187 187 190 189 197 200 198 200 200 200 197 196 200 194 200 196 195 191 184 193 189 193 191 189 195 194 180 178 174 172 170 170 169 169 167 166 163 158 162 161 163 161 163 168 169 170 171 163 144 118 91 56 26 25 24 38 43 18 25 22 51 40 30 63 50 43 66 45 36 33 49 36 45 52 44 30 22 100 176 193 195 202 200 201 201 192 192 189 184 181 175 171 171 177 180 187 192 196 194 196 194 195 192 191 196 193 197 193 199 196 189 196 192 196 190 185 195 189 180 178 175 174 170 166 169 161 160 157 158 157 156 157 158 156 157 161 166 170 173 169 145 115 95 56 24 21 24 39 42 27 20 28 45 47 33 65 60 39 66 33 43 35 49 47 50 43 33 29 42 134 179 193 196 200 199 199 194 188 192 177 170 158 138 151 159 166 168 177 176 187 181 183 183 183 180 182 190 191 196 189 193 198 188 191 192 192 178 181 190 182 177 168 176 169 168 166 158 153 156 146 147 148 144 150 151 150 154 156 159 167 170 167 148 106 100 54 23 23 22 29 33 32 21 33 39 43 37 88 64 57 45 41 32 38 42 48 47 29 30 54 75 142 188 191 197 196 199 191 187 194 169 139 133 115 110 123 131 138 138 140 140 152 134 141 148 159 164 166 184 187 190 193 189 195 184 183 189 185 167 180 174 174 161 162 161 155 163 158 150 148 147 139 140 137 138 144 142 147 156 148 154 162 165 167 139 107 101 57 24 20 22 24 23 34 26 31 38 42 33 90 80 57 43 35 34 38 38 48 32 22 45 75 93 159 194 191 196 199 197 187 191 152 112 105 90 85 90 96 100 100 90 86 84 94 83 91 96 114 132 156 171 186 185 189 187 190 183 179 178 182 160 169 163 154 145 140 130 129 135 135 135 136 132 127 125 125 124 133 129 137 148 156 148 161 161 164 138 105 98 51 29 17 22 22 18 30 24 34 44 42 32 75 79 48 34 28 52 29 42 37 26 21 62 59 110 179 195 192 197 195 195 186 140 94 88 94 79 67 69 72 73 61 68 54 51 68 57 72 76 77 101 142 159 180 184 187 187 189 177 177 170 171 161 154 152 139 118 92 92 95 99 90 96 107 103 102 100 102 103 106 115 107 128 154 152 156 156 158 129 109 98 51 27 20 25 19 21 29 23 39 41 47 40 65 61 31 28 46 51 25 38 30 21 34 41 50 143 192 196 194 198 193 185 136 84 99 83 87 86 68 62 56 56 48 48 43 43 52 54 61 64 64 90 119 152 178 191 187 187 185 180 177 169 164 156 143 139 119 81 68 59 65 71 57 65 60 56 71 68 70 78 76 78 83 79 141 154 152 154 150 125 114 94 47 29 20 17 20 30 20 33 36 43 35 43 67 38 33 27 64 26 31 33 29 20 35 25 75 172 195 197 196 198 188 144 102 90 87 74 84 88 71 68 65 64 76 66 61 54 65 68 80 84 83 98 119 150 183 207 193 189 189 185 172 166 168 155 143 119 100 63 65 50 49 52 38 53 44 50 53 39 48 55 59 61 57 47 90 136 143 151 147 120 118 98 50 22 23 20 15 30 23 27 41 37 33 60 58 29 33 41 39 22 37 29 22 22 37 35 107 196 190 200 193 201 162 96 93 74 90 107 111 102 109 121 117 120 119 131 132 121 117 115 113 124 125 129 140 164 197 216 199 192 202 198 173 170 167 169 142 108 91 69 61 53 48 42 41 38 47 50 39 32 47 38 41 50 55 36 60 93 132 147 143 122 121 99 47 27 17 20 16 27 19 31 42 31 34 78 40 25 37 43 27 26 40 17 24 29 27 48 138 200 191 196 192 197 123 92 86 84 125 147 145 157 156 170 175 182 175 182 170 160 153 145 134 142 146 153 173 193 203 213 204 191 208 197 174 174 173 177 144 111 85 74 77 67 69 66 63 54 53 59 46 39 45 45 35 42 54 52 61 64 106 142 139 120 122 101 46 21 19 18 22 23 23 36 39 23 49 92 33 31 48 36 24 30 28 25 15 30 42 52 163 198 193 197 192 193 125 98 105 148 165 175 181 188 192 196 196 196 199 193 172 167 162 152 150 145 140 143 166 201 203 208 205 191 192 184 172 169 171 166 137 105 90 86 96 105 111 114 125 134 134 117 91 86 70 58 51 57 60 71 61 65 78 117 135 126 122 98 52 23 18 15 28 20 36 29 32 31 68 68 36 43 43 30 28 35 24 21 18 44 60 65 176 196 194 200 191 186 115 119 144 167 191 195 201 203 205 207 197 196 203 196 172 168 162 160 151 145 135 130 140 189 198 206 196 188 174 170 170 173 169 151 123 91 93 106 122 134 149 150 169 177 186 178 171 147 127 107 92 77 62 71 67 72 69 81 134 123 123 99 53 26 22 17 24 27 33 27 32 46 58 47 41 43 31 31 26 32 29 17 15 64 62 80 188 189 197 198 201 174 134 151 172 188 190 202 209 209 206 192 186 176 167 153 142 143 134 137 134 130 128 105 133 185 195 201 188 179 163 164 165 176 161 137 86 86 101 117 138 148 166 156 173 185 187 185 179 166 155 141 133 111 81 88 64 72 65 62 99 128 120 99 48 26 22 22 22 18 29 30 31 49 37 42 37 32 33 33 30 27 22 16 30 52 53 109 182 195 203 197 181 149 147 170 186 194 194 201 206 195 187 180 183 174 163 138 146 137 132 127 123 134 133 128 113 194 190 188 176 169 159 162 158 165 159 111 80 89 106 120 139 147 149 151 157 170 186 185 176 169 163 161 152 137 110 103 89 73 74 72 94 124 120 99 48 29 22 25 23 22 27 26 40 38 32 46 41 27 33 28 34 20 27 15 37 68 62 124 192 197 196 196 169 155 170 194 200 197 191 184 187 192 195 200 190 182 170 133 136 123 120 115 116 112 122 104 117 191 187 172 168 166 160 154 143 147 152 101 98 95 121 136 139 134 131 139 135 138 150 152 152 161 168 167 163 160 146 115 109 82 66 72 94 119 118 101 46 28 22 25 24 20 20 37 35 30 37 42 31 33 37 27 31 25 21 23 52 58 64 152 196 199 198 195 190 185 196 198 205 203 185 182 194 194 189 169 157 156 121 94 83 78 81 74 77 76 104 123 119 184 173 166 168 159 159 158 141 143 136 114 108 96 97 143 134 134 133 146 144 150 155 146 144 135 147 154 163 180 168 137 128 102 96 99 111 114 104 101 53 24 25 27 21 17 23 36 31 31 40 35 31 39 36 28 27 25 15 36 39 58 64 170 197 202 195 196 201 200 207 206 204 204 183 166 141 140 116 94 93 92 92 70 80 88 87 109 103 129 131 150 145 176 171 180 161 152 154 151 145 134 136 125 101 102 95 88 87 77 87 97 100 121 136 143 144 140 142 135 137 162 174 148 140 120 111 103 109 117 99 96 60 27 26 24 18 19 29 38 39 34 32 35 35 31 29 32 27 26 23 44 43 69 73 178 202 200 199 203 204 206 208 211 205 190 168 130 105 85 92 97 97 79 123 104 110 109 125 132 124 149 154 143 167 168 183 179 164 153 159 152 149 129 137 128 96 119 140 126 110 91 87 112 87 52 63 72 102 119 132 147 147 136 141 148 146 131 121 113 111 118 98 95 60 32 22 24 24 26 23 41 44 32 30 41 28 32 31 30 31 29 27 42 50 61 80 190 202 200 203 203 204 206 210 206 202 200 196 164 157 150 152 165 137 136 158 142 145 145 149 151 155 165 168 164 179 171 176 178 169 153 148 150 152 136 132 141 107 115 138 138 132 121 115 111 119 97 71 58 55 72 85 119 144 153 118 128 149 153 135 120 120 123 108 95 64 37 24 25 25 24 28 46 42 24 37 44 33 33 27 33 29 37 34 39 53 55 88 201 203 202 203 203 205 207 209 203 202 207 206 201 194 187 187 190 166 163 186 179 169 161 164 166 180 179 183 182 181 172 176 174 167 153 141 145 149 140 129 146 130 118 135 149 146 138 141 125 127 103 97 86 84 81 60 64 89 112 136 135 156 164 151 135 128 128 111 92 68 31 24 24 22 27 35 46 42 30 40 43 25 22 31 90 112 74 46 41 45 60 113 201 203 203 200 206 207 209 206 202 203 205 207 207 200 199 193 188 181 180 191 185 179 173 185 183 185 188 192 183 182 173 180 172 173 154 147 150 143 135 130 144 146 125 133 155 160 152 152 143 154 126 106 101 92 95 83 77 65 92 111 134 158 170 167 158 152 141 112 97 67 33 21 23 21 30 39 48 52 38 34 42 43 16 125 176 195 170 146 62 41 38 119 200 203 202 201 207 204 207 205 204 205 205 206 206 202 200 196 197 184 188 191 191 186 186 192 190 191 195 190 189 178 175 184 174 176 153 153 149 141 137 135 141 150 138 141 157 166 170 163 154 159 151 136 136 133 125 114 126 117 117 138 138 155 172 169 169 160 146 126 107 72 34 18 26 22 29 33 46 55 44 32 44 29 86 189 170 192 209 201 177 64 16 111 200 203 202 202 203 205 206 205 206 208 206 204 203 201 199 197 197 190 192 194 196 192 191 189 193 196 199 191 189 181 175 186 181 173 151 149 149 140 142 145 147 146 143 152 150 166 170 165 159 165 156 151 155 148 150 149 154 150 150 170 157 167 171 174 167 162 148 136 117 73 32 20 27 26 22 31 35 45 42 41 54 7 150 193 115 78 206 208 218 159 22 99 196 202 202 202 200 203 205 205 206 205 205 202 203 202 198 198 200 198 193 197 197 189 190 191 195 197 199 193 189 177 180 177 198 170 155 152 146 134 143 148 153 152 151 152 162 162 169 171 166 158 161 154 160 152 151 160 166 170 159 172 166 166 171 175 172 166 151 136 128 67 29 19 29 29 24 34 27 33 45 44 46 10 192 155 78 89 177 202 211 198 33 109 196 204 201 200 197 203 207 205 208 203 206 202 203 203 200 196 200 199 199 197 190 190 193 192 198 198 197 198 188 172 183 184 203 188 149 163 145 136 141 141 154 155 157 157 165 159 167 170 169 157 169 159 161 157 153 165 170 177 174 170 166 168 166 175 173 168 152 141 119 64 26 21 26 29 21 35 33 29 58 45 37 22 218 142 88 150 192 211 195 217 34 104 199 202 199 195 197 203 208 207 205 203 204 205 202 202 201 193 200 199 196 195 192 194 196 195 201 202 198 200 179 174 177 189 207 187 148 159 148 138 138 137 154 159 161 165 167 170 164 167 159 168 168 165 164 165 164 164 167 176 180 174 163 171 172 180 171 166 152 138 107 55 24 21 27 21 29 31 38 38 55 48 33 35 220 150 95 167 203 212 187 217 56 78 202 198 198 194 198 203 207 208 207 204 204 206 201 203 203 191 203 197 195 196 197 196 196 200 203 205 204 196 172 185 166 179 197 183 152 153 148 142 139 134 153 161 162 169 174 174 174 167 163 170 164 166 167 169 170 164 173 172 178 171 169 171 175 177 169 162 153 139 97 43 25 24 20 24 38 34 42 42 39 51 37 38 225 136 108 172 205 204 185 203 78 69 196 200 195 192 196 203 208 207 205 204 206 205 201 203 204 192 202 195 195 199 196 199 200 199 207 208 204 184 179 182 171 169 171 172 153 152 146 145 145 133 151 160 163 171 175 168 176 167 172 168 162 167 164 168 168 168 171 173 173 167 169 171 174 177 168 156 153 133 84 33 22 25 22 25 32 35 49 38 34 43 42 45 221 138 110 178 205 204 205 228 85 89 192 200 191 192 201 201 208 204 206 203 205 205 201 201 202 200 200 197 201 200 200 197 198 202 203 205 193 180 185 181 175 194 177 164 161 153 143 146 145 134 142 158 165 174 172 168 177 180 173 172 165 169 169 162 164 172 171 171 171 168 175 174 177 172 162 156 152 125 67 31 20 18 31 28 42 49 42 33 39 48 34 30 219 153 109 178 212 206 212 198 80 84 182 199 184 197 199 201 203 207 207 207 203 201 205 201 203 200 201 200 204 202 201 200 200 199 196 194 188 180 198 189 192 206 176 182 177 152 154 153 143 138 140 151 167 175 164 171 176 179 175 172 173 167 170 164 167 173 174 169 172 173 180 182 178 167 161 149 152 108 57 24 18 24 25 28 67 56 39 34 43 52 31 16 206 164 107 197 215 202 202 175 87 77 174 193 183 192 204 201 203 207 206 203 203 202 202 202 200 203 200 201 204 199 201 201 198 194 182 187 188 182 204 197 183 178 163 180 173 154 156 203 159 131 139 148 164 169 167 171 171 173 177 175 174 169 172 168 170 173 174 173 171 179 181 184 182 166 157 147 142 97 46 20 23 17 36 30 84 52 38 36 48 50 52 9 178 165 124 211 211 195 187 180 92 69 167 189 183 192 203 201 204 205 202 201 204 203 202 203 202 202 201 199 201 199 198 200 190 186 171 193 184 167 181 182 158 149 144 157 149 145 142 199 158 136 135 143 145 156 163 169 171 174 177 174 174 165 172 164 169 170 173 173 171 171 171 178 177 164 154 142 140 72 33 20 22 21 42 41 71 53 41 40 55 43 70 23 136 181 134 215 200 180 181 179 125 56 164 183 177 198 200 202 198 202 204 200 205 204 206 202 203 201 202 199 200 201 194 190 181 161 180 203 175 160 174 170 138 122 121 140 135 124 132 125 126 131 134 142 133 152 165 159 173 173 176 177 181 167 167 171 160 167 172 168 174 169 170 180 177 160 148 143 126 61 29 21 22 41 54 46 54 56 48 47 53 39 70 41 115 194 145 218 188 160 184 164 164 52 147 186 180 199 199 197 192 198 200 202 204 204 207 205 202 199 202 198 200 198 188 181 171 155 183 187 153 84 155 176 134 106 97 109 108 107 107 113 114 118 134 147 125 149 162 162 172 168 169 179 174 170 167 174 156 167 172 164 168 172 171 170 171 155 144 144 115 40 26 22 25 50 50 43 54 42 46 44 37 49 66 36 79 199 162 215 179 167 190 178 159 47 140 182 185 193 192 193 193 196 203 203 203 203 203 203 201 198 200 196 197 190 170 167 156 161 195 171 109 48 42 179 130 87 73 86 81 101 91 77 98 105 126 145 105 146 156 165 167 171 170 177 175 164 167 174 165 164 174 161 165 168 170 169 166 156 142 147 100 28 23 25 23 50 36 42 34 29 46 36 33 48 45 43 59 197 169 211 177 159 188 191 160 46 131 170 186 185 189 191 193 200 197 200 207 205 205 205 201 202 196 197 193 185 174 161 172 180 194 178 128 75 108 172 145 98 65 82 106 79 52 16 28 81 126 128 82 142 156 159 170 174 176 171 175 174 167 172 166 164 168 162 165 159 165 172 153 149 139 140 75 34 14 23 32 40 35 35 24 30 37 37 41 39 38 52 24 186 172 198 173 149 165 192 171 46 134 162 173 173 184 183 189 196 201 198 203 205 205 203 200 200 195 194 183 177 164 172 189 191 198 173 162 145 165 139 124 130 80 88 89 71 109 100 37 58 120 107 69 137 156 157 166 169 173 172 175 173 171 169 168 166 160 156 167 157 153 160 151 146 138 140 59 25 22 26 41 35 33 26 26 30 23 33 42 30 29 51 18 155 184 193 189 176 170 203 146 42 105 153 160 161 192 190 190 197 198 204 202 204 206 201 197 195 194 190 179 176 177 187 197 193 197 189 175 149 152 115 108 108 86 73 63 69 91 127 100 117 126 117 77 127 152 160 164 166 171 168 172 172 171 168 164 167 164 160 164 157 157 149 144 149 135 128 52 23 15 41 50 28 25 22 27 25 24 40 34 27 21 59 28 97 202 182 193 202 196 212 194 60 91 144 150 181 182 175 185 197 197 203 203 206 207 199 199 189 193 184 174 180 189 191 197 193 189 190 171 122 133 135 91 87 65 69 64 77 87 95 115 115 128 125 108 126 156 161 163 164 169 169 166 167 166 165 168 164 161 159 168 147 167 137 142 142 135 126 36 25 16 55 43 20 25 18 24 25 25 35 29 21 20 55 53 39 191 197 182 193 201 205 208 59 76 108 155 178 198 174 187 201 199 204 205 204 205 198 193 186 189 183 179 184 190 193 198 183 167 160 121 102 125 114 100 95 59 74 86 93 90 83 96 91 120 129 132 145 154 160 163 161 164 163 168 168 164 164 164 165 161 152 170 152 148 139 137 140 138 114 23 26 17 75 37 18 19 23 26 33 34 25 23 18 25 61 56 24 114 208 196 187 200 202 211 57 64 109 150 171 189 181 195 202 206 197 205 206 199 199 193 186 183 186 183 189 190 178 171 162 142 118 106 96 112 119 96 94 69 97 97 101 91 69 88 74 104 136 146 159 161 158 162 159 156 160 161 163 160 165 159 164 160 144 164 153 148 141 136 140 136 101 27 18 30 61 27 18 22 24 25 29 29 25 18 24 31 57 53 39 42 130 194 189 198 201 204 64 65 102 147 169 186 183 195 200 207 192 204 199 191 197 192 187 187 189 185 174 179 144 128 149 113 87 96 96 112 121 98 69 82 91 101 102 100 71 91 62 93 134 148 159 166 159 156 158 155 156 156 164 160 158 161 159 156 152 160 163 144 147 134 138 127 90 32 8 45 47 19 21 31 30 27 28 27 28 26 32 34 62 54 47 46 30 165 194 201 201 221 109 48 93 139 149 192 177 182 197 205 203 203 204 192 195 194 191 187 197 172 166 134 126 107 113 103 101 88 92 115 115 98 49 87 90 81 100 100 79 66 69 82 106 137 146 161 163 161 158 155 154 154 158 156 150 158 151 152 161 153 161 144 140 141 141 104 88 31 6 78 86 19 47 48 28 66 57 27 32 35 33 31 59 53 54 49 35 92 193 193 197 213 120 61 84 142 148 173 165 185 197 203 200 205 204 195 195 194 191 190 171 152 129 111 114 98 107 104 118 88 105 112 113 88 56 120 89 93 103 85 89 90 70 82 85 102 119 142 158 163 162 158 152 154 150 160 147 154 154 151 154 152 146 147 134 139 127 97 69 36 10 103 122 89 90 68 47 87 45 22 32 35 33 33 56 57 51 49 50 22 109 160 176 180 113 60 95 130 163 159 161 185 191 197 200 204 203 201 197 186 182 170 122 114 114 119 113 109 103 116 126 101 122 126 117 103 132 137 116 112 102 96 84 102 73 80 85 83 98 115 127 153 164 161 155 151 151 154 153 154 156 153 158 152 134 141 133 120 113 94 67 26 27 120 127 129 131 126 137 80 20 27 31 36 31 32 59 58 47 51 48 40 43 59 97 102 69 78 89 121 135 160 156 185 181 191 200 197 204 201 202 185 165 136 101 95 106 107 113 106 116 140 121 99 129 120 121 133 169 158 146 121 102 85 105 86 77 84 85 86 86 94 109 126 157 156 167 160 154 149 152 153 161 160 155 150 125 140 126 113 99 76 69 21 56 116 129 130 135 141 110 24 25 32 31 34 31 34 66 56 53 51 49 47 53 41 50 43 45 85 92 130 134 162 162 187 187 189 194 195 204 197 200 176 161 114 91 100 107 108 121 102 142 152 129 86 106 109 105 119 132 143 110 107 91 84 84 80 96 93 92 83 92 86 109 114 135 148 164 167 159 152 154 154 165 161 153 143 118 127 132 116 103 63 66 25 75 115 133 135 145 94 22 29 26 29 32 34 34 28 63 51 56 48 49 47 52 47 50 44 49 69 68 120 128 156 165 170 189 189 195 194 201 194 189 185 135 83 84 123 121 139 145 109 136 126 109 82 79 91 95 106 117 105 85 87 75 70 70 77 93 104 82 104 67 91 79 101 109 134 151 166 164 152 161 155 166 156 152 141 123 122 116 114 93 68 64 31 95 115 130 142 128 31 24 30 35 27 34 35 34 27 65 51 54 48 50 45 53 50 46 43 43 73 61 111 129 151 168 172 189 172 192 197 193 201 180 183 106 103 108 118 133 144 140 105 105 93 71 59 46 52 74 96 103 84 78 68 61 55 63 65 73 81 76 108 75 66 68 75 97 119 138 153 165 157 163 165 163 151 159 138 127 118 99 101 74 74 46 33 81 100 113 105 52 21 26 31 32 33 31 33 33 27 61 57 57 48 47 47 54 51 45 42 41 66 53 101 142 169 154 170 185 179 185 196 192 201 176 176 128 107 119 113 106 94 88 85 84 78 40 51 30 87 101 89 88 56 64 66 53 53 44 58 62 59 69 90 76 47 70 78 82 105 137 147 165 161 158 160 159 151 154 126 126 94 106 90 76 67 40 35 38 51 50 40 26 29 30 30 33 28 30 31 33 29 61 61 57 46 52 42 52 48 43 47 37 63 63 91 135 181 140 182 164 179 179 183 193 192 177 171 137 103 124 100 104 94 81 91 94 80 32 59 49 171 130 124 103 64 86 80 77 78 39 48 64 50 50 61 64 70 64 84 87 92 127 143 165 165 155 151 154 141 135 130 126 85 104 95 68 61 38 35 24 27 33 28 32 28 29 30 28 31 28 32 31 32 60 57 56 51 50 50 47 53 47 43 46 57 67 91 137 161 153 189 158 176 178 168 186 192 169 169 140 122 129 122 147 163 155 142 150 146 118 90 72 172 164 156 137 80 116 105 100 104 61 57 46 58 45 40 52 84 80 96 85 89 101 137 158 164 150 143 140 141 120 122 116 114 95 93 52 63 41 26 29 25 31 29 33 29 31 28 29 28 31 27 36 32 60 56 49 51 49 49 51 50 46 42 37 60 78 91 128 147 163 170 152 177 174 165 182 188 159 170 129 122 137 140 174 180 177 161 157 165 156 132 115 110 128 149 150 112 118 116 111 116 91 108 110 107 103 103 109 99 85 106 87 89 92 137 154 157 150 139 140 135 117 114 106 121 98 72 49 47 42 30 26 28 30 28 31 32 26 31 29 30 31 32 30 31 60 57 53 58 40 51 52 52 43 50 43 58 68 84 105 143 166 145 175 170 171 164 178 172 171 166 124 127 140 149 184 179 172 167 159 168 163 157 150 132 128 126 119 118 129 125 123 118 114 132 125 125 124 133 128 122 106 104 87 103 83 124 151 156 133 144 125 137 111 105 115 111 99 72 60 40 38 33 26 27 33 29 32 34 27 29 31 30 31 30 36 29 58 52 54 62 46 50 50 52 45 44 52 54 70 77 90 134 158 145 164 167 171 157 173 162 165 154 135 141 160 173 180 169 169 155 159 172 160 164 162 157 148 141 136 133 139 130 128 128 124 136 133 134 138 142 125 119 117 103 103 103 96 113 152 145 123 130 126 125 110 101 111 90 105 67 50 54 24 26 30 28 29 30 31 34 32 27 34 31 32 30 34 29 55 60 53 56 51 48 43 48 48 45 47 49 56 75 101 116 125 146 156 162 164 163 168 172 143 164 151 162 156 178 180 162 166 143 143 172 144 163 147 160 154 145 143 140 139 128 128 134 135 135 137 137 132 135 133 121 131 112 97 108 118 112 144 141 119 127 119 118 99 91 129 87 89 63 49 39 30 29 29 26 26 34 31 32 32 26 32 32 30 29 29 34 61 59 53 57 59 46 56 43 47 44 48 51 58 64 70 118 122 151 162 155 171 160 168 159 161 163 178 182 171 183 182 160 147 120 149 155 140 141 133 141 132 126 129 124 122 121 124 127 136 120 132 123 129 136 138 122 133 124 100 93 117 120 142 130 127 124 124 124 108 106 118 99 70 49 46 41 27 24 34 28 29 31 32 29 33 20 35 31 30 30 35 31 61 58 50 62 57 51 52 46 48 40 50 39 73 57 57 108 125 150 168 145 161 165 169 163 167 160 185 180 182 186 187 171 156 131 144 165 141 140 132 118 101 106 127 97 95 100 104 109 112 115 120 126 135 137 143 135 126 124 127 83 107 111 137 126 128 107 127 130 114 100 109 99 50 42 47 33 24 29 30 25 35 24 33 28 33 32 31 31 31 32 34 30 55 54 47 61 53 55 48 53 51 44 45 43 82 57 52 96 124 133 173 152 165 161 161 170 165 164 165 176 176 173 184 159 153 150 156 164 149 140 128 122 93 98 100 80 86 93 97 113 112 119 123 130 135 143 155 132 134 129 130 91 94 107 122 104 132 103 108 126 101 91 89 88 54 38 37 35 23 28 25 28 31 30 32 28 28 31 29 32 31 29 33 30 53 54 54 60 45 61 52 47 49 44 50 39 68 76 51 68 115 140 142 145 158 161 165 163 173 172 158 163 168 171 179 161 154 164 159 150 138 122 121 105 83 91 99 73 96 104 101 109 110 117 118 127 137 146 142 131 139 123 143 117 87 95 113 103 128 106 118 93 95 89 81 63 51 48 36 29 28 26 33 25 31 29 36 31 34 27 30 33 32 26 35 30 54 54 51 59 52 63 52 47 46 47 46 35 71 73 55 50 107 133 133 146 153 141 157 167 166 174 161 154 179 178 180 178 171 156 150 134 129 115 112 91 69 99 67 87 77 95 82 94 97 105 112 117 136 134 137 141 142 126 134 134 97 106 102 101 108 107 98 96 77 90 77 64 46 44 31 28 30 28 29 29 29 29 29 33 27 27 33 30 30 25 35 28 51 59 54 57 58 54 53 55 44 47 49 25 81 85 55 38 97 112 147 159 148 154 140 150 173 162 163 155 159 178 186 178 173 160 152 139 124 115 91 95 75 74 71 75 70 82 66 89 94 91 112 116 142 120 138 136 132 119 121 119 102 108 104 97 109 101 97 104 74 84 72 51 44 33 34 22 30 29 33 25 29 29 30 32 28 34 30 30 31 31 32 30 55 52 55 58 61 55 59 49 48 49 48 28 83 129 49 31 87 108 127 139 144 152 156 143 159 148 142 163 166 189 189 174 166 170 165 115 121 105 93 105 72 73 76 52 65 66 80 80 93 84 111 118 127 121 132 131 128 91 95 120 101 99 108 94 91 102 87 99 69 81 62 39 40 35 25 30 28 26 31 28 30 27 31 29 25 30 27 32 28 26 36 28 53 56 59 54 61 50 57 48 54 47 46 21 79 161 49 45 63 102 119 120 156 132 155 139 151 130 141 173 177 185 176 179 169 170 164 128 116 102 112 112 68 71 60 67 63 59 81 77 89 100 100 111 120 134 128 128 112 85 90 102 106 97 99 99 78 110 78 97 66 70 58 43 38 27 31 23 30 28 29 30 25 32 33 29 32 28 29 35 28 31 30 31 53 55 59 56 61 56 57 49 58 47 45 33 78 175 68 53 64 80 97 110 143 112 128 124 145 119 148 163 176 173 177 188 174 175 148 147 133 116 112 119 75 74 62 63 76 52 80 76 92 103 114 115 123 130 128 131 117 85 74 77 93 101 92 86 69 97 74 80 47 57 46 44 42 28 31 26 26 31 29 29 28 30 33 29 31 31 33 26 31 31 31 30 57 59 55 58 60 58 57 55 54 56 47 27 78 190 81 50 60 61 98 113 125 112 121 133 112 119 123 156 147 144 176 167 155 161 162 152 151 137 113 127 82 77 67 62 86 68 84 83 116 107 124 127 122 117 120 124 119 88 52 89 77 93 78 76 89 82 77 52 41 52 39 40 39 28 27 28 26 28 27 29 30 32 32 33 29 27 32 29 35 29 29 33 53 64 54 57 58 63 62 57 53 61 50 32 85 190 133 47 62 60 99 102 127 110 110 125 90 100 100 157 122 159 170 158 128 138 164 144 154 129 120 113 76 64 86 69 88 88 107 109 144 104 127 133 117 108 101 115 111 90 60 93 80 90 70 77 94 72 70 47 44 41 38 48 38 25 27 29 23 30 28 31 30 26 34 30 32 24 33 29 32 28 27 36 51 61 55 57 53 64 60 60 51 54 43 56 121 179 176 65 49 63 83 91 134 107 103 109 102 84 107 138 115 163 156 142 120 139 145 136 128 114 123 93 68 97 81 68 92 101 117 124 145 108 130 131 108 110 97 110 116 81 59 79 83 71 77 93 74 86 59 54 34 41 27 60 26 24 27 28 28 26 28 26 31 27 31 30 31 31 30 36 30 30 34 29 54 57 55 58 51 64 56 59 55 40 120 181 148 170 184 108 37 48 73 100 114 98 92 95 93 92 117 126 122 155 142 131 115 144 116 125 99 122 106 93 62 96 69 83 91 116 117 118 125 114 119 119 109 111 93 113 95 82 55 69 75 67 83 82 68 79 55 52 37 26 45 60 20 24 29 27 29 26 25 30 30 28 29 32 31 29 29 31 31 27 34 32 54 53 57 56 55 61 60 53 37 139 203 147 111 176 174 147 67 61 56 68 104 65 86 73 85 87 107 107 112 152 137 99 112 119 107 130 107 101 91 83 69 93 90 89 97 125 111 106 106 115 110 99 107 112 103 95 84 74 66 56 67 64 75 73 73 47 54 54 35 20 79 46 19 27 27 29 25 26 29 27 31 28 30 32 31 26 30 29 34 27 30 31 56 55 57 56 55 58 50 51 158 217 171 108 105 178 181 176 152 91 56 53 85 53 80 67 72 77 102 106 144 124 130 98 113 113 113 131 118 90 96 99 79 106 84 74 118 116 117 95 97 106 108 102 109 95 99 89 81 61 100 53 61 69 65 74 67 39 54 47 25 49 113 16 25 26 27 22 34 21 27 27 32 30 29 27 31 28 28 30 30 32 28 34 57 54 56 58 55 48 55 188 193 166 144 96 118 175 183 178 183 154 52 46 72 57 77 57 58 74 93 101 128 116 113 98 101 108 116 121 110 100 111 84 82 117 59 96 114 99 109 92 93 91 86 111 104 93 85 91 85 47 93 54 59 61 59 64 70 45 46 34 20 92 115 12 25 31 25 25 30 26 27 28 30 30 29 31 26 28 29 30 31 33 35 32 58 53 54 55 43 66 201 198 148 152 126 99 122 175 180 177 179 193 67 46 48 53 82 50 55 67 80 96 112 108 105 82 95 113 123 110 97 100 110 60 78 114 51 99 113 89 96 88 89 87 67 105 85 78 64 96 62 53 70 57 56 42 63 57 79 48 37 28 49 130 89 7 30 28 24 25 29 23 29 32 27 32 27 28 29 31 30 27 32 34 31 37 56 55 56 44 69 200 199 153 151 137 119 87 130 176 178 181 184 181 158 47 43 51 78 47 73 49 55 91 101 96 93 55 97 103 106 89 99 86 85 56 70 110 46 86 101 85 65 89 86 79 61 91 81 46 59 70 63 37 55 56 52 47 62 55 67 45 32 61 98 143 61 11 27 30 24 27 27 26 27 28 32 28 28 27 30 28 30 29 34 32 30 37 60 57 49 51 202 195 156 159 142 135 119 88 128 175 177 184 181 174 192 113 43 49 78 51 62 39 42 62 79 88 74 65 84 81 93 88 95 74 58 63 75 91 65 70 89 66 49 87 91 82 46 82 67 46 37 61 53 40 40 47 50 48 49 48 61 43 65 102 117 141 44 18 27 26 29 25 28 27 24 30 30 27 30 29 26 31 26 32 36 30 32 37 58 56 21 170 206 142 162 150 143 129 145 49 130 175 179 180 180 179 184 171 74 53 65 53 50 44 45 51 48 73 66 79 67 70 64 94 82 73 58 62 60 78 71 63 68 65 45 82 67 72 46 78 51 32 47 41 46 36 43 42 46 53 50 39 62 75 115 114 126 126 104 15 24 26 27 27 31 27 26 23 32 27 30 28 32 26 30 31 30 32 34 34 46 40 117 229 160 140 142 149 135 146 130 24 136 177 178 180 179 183 185 184 127 104 72 46 48 44 46 40 43 47 62 67 58 64 59 73 74 64 45 49 53 72 77 52 45 65 51 63 63 48 49 52 49 30 37 40 46 35 35 39 53 39 46 39 67 105 122 122 128 86 169 86 11 30 23 29 30 24 30 23 32 28 29 34 27 30 29 31 33 32 35 34 62 170 224 193 134 140 134 138 156 156 92 13 133 175 175 183 181 186 183 186 152 153 112 57 42 40 36 39 37 54 57 58 37 60 55 48 59 47 39 45 39 67 66 45 45 51 51 33 65 37 42 54 41 33 31 33 35 33 41 34 57 28 33 58 94 115 124 125 125 71 97 174 37 17 29 24 31 24 28 29 32 26 27 29 31 26 29 30 29 38 34 37 211 214 222 148 142 129 130 141 154 153 37 74 119 177 175 182 187 182 182 184 167 166 161 104 41 32 36 40 42 51 51 46 30 56 47 52 48 39 36 45 44 55 64 48 34 40 39 46 45 44 35 59 34 32 36 31 33 27 41 35 32 32 56 87 116 125 121 123 127 54 82 139 135 19 22 30 27 25 27 32 27 33 29 25 34 30 30 27 29 31 33 32 210 210 218 144 130 139 131 122 166 133 43 146 72 176 177 180 184 185 179 184 172 172 171 139 56 44 36 44 47 47 39 41 38 44 43 39 40 32 33 43 40 46 61 37 46 35 34 44 33 36 45 30 31 28 30 26 36 30 28 31 21 57 97 101 122 122 124 121 122 33 75 124 166 93 10 26 29 28 28 30 28 33 27 26 33 25 31 29 32 33 33 41 