P2
92
112
255
103 109 105 105 109 102 106 108 106 107 110 105 111 107 108 107 110 109 103 109 111 106 108 106 104 99 89 81 67 66 55 59 71 71 87 92 97 85 86 80 74 86 78 82 95 93 97 92 99 96 101 90 86 89 89 90 91 80 71 74 75 75 69 72 75 69 67 68 83 97 105 98 102 101 98 103 101 96 105 98 105 102 99 97 103 101 99 102 99 100 93 100 104 109 103 107 108 101 109 109 105 108 108 104 112 105 108 104 109 105 106 107 110 104 102 89 79 74 80 89 86 90 85 76 80 88 85 99 99 104 95 95 92 95 93 97 101 112 100 104 99 96 107 99 104 102 97 100 96 93 82 74 80 85 87 81 77 73 60 49 64 89 99 100 100 102 100 99 103 96 100 99 103 101 100 101 101 98 100 101 95 99 98 97 106 108 101 106 108 105 103 105 110 104 108 104 110 106 106 106 109 103 107 109 104 96 79 58 65 62 85 95 101 95 102 94 95 105 105 108 100 101 98 92 93 98 100 99 95 97 99 103 100 98 99 97 105 106 104 101 100 98 98 85 86 78 84 81 81 74 62 59 58 71 88 93 96 100 100 100 99 101 94 96 96 102 100 101 99 101 99 92 101 98 100 96 105 106 106 108 104 109 104 109 104 106 109 104 109 106 104 110 103 106 106 103 98 74 67 50 62 67 77 91 92 97 91 78 86 89 91 92 95 96 88 89 82 88 83 97 92 92 87 96 92 93 84 87 88 97 100 101 99 93 97 96 93 86 81 81 79 71 62 65 51 65 70 81 77 84 90 99 99 94 96 89 94 87 101 98 100 104 95 94 97 99 99 98 103 105 109 103 107 105 109 108 103 107 105 104 106 108 105 110 102 106 100 97 88 73 76 66 71 67 73 77 82 87 93 86 83 79 81 85 79 71 76 78 77 75 78 94 88 96 94 94 108 103 96 83 73 79 81 88 93 93 90 87 84 80 73 76 76 80 73 57 54 54 56 59 54 50 55 68 88 95 86 90 95 86 92 90 102 98 98 98 97 97 101 95 107 107 107 106 104 105 105 107 111 107 108 105 109 103 107 100 94 89 91 83 77 69 80 93 99 87 75 70 69 87 95 110 96 93 87 91 85 71 80 70 65 64 62 81 86 93 104 112 116 112 112 102 101 86 82 72 71 75 88 86 92 81 68 71 73 70 76 74 65 59 45 53 48 52 49 39 58 77 80 78 83 90 84 88 93 105 95 95 97 95 101 97 104 102 105 107 106 108 104 107 104 107 104 105 106 106 97 85 73 66 76 67 68 71 79 94 94 102 94 80 64 69 80 89 96 95 90 86 92 92 79 77 62 62 59 76 81 86 84 80 92 101 105 99 89 87 89 93 89 73 60 62 85 88 80 67 62 65 65 60 68 62 64 55 44 44 43 42 34 45 52 54 64 77 78 81 88 96 100 95 96 98 102 99 105 106 106 104 104 106 105 105 107 108 104 107 106 93 80 62 53 62 77 70 76 65 67 75 86 88 100 99 94 86 85 76 75 76 69 67 63 66 76 73 78 65 64 74 92 100 109 102 89 79 81 93 89 74 76 78 85 91 75 67 61 78 87 72 60 57 50 67 54 63 54 62 58 35 36 38 35 46 58 65 55 69 72 81 83 94 93 91 92 90 100 96 104 107 105 106 104 107 104 105 105 105 107 106 106 82 60 50 47 59 74 68 67 64 73 89 90 88 87 98 102 110 108 96 87 74 67 65 57 54 53 58 69 74 79 80 81 82 99 101 101 95 76 76 84 80 77 72 67 73 81 67 72 59 75 80 70 54 45 55 57 49 54 54 53 43 35 39 27 35 51 71 69 68 67 73 81 90 92 91 91 90 99 93 105 108 105 105 105 108 105 109 106 108 103 104 86 72 46 50 59 68 72 66 62 70 84 86 92 77 68 70 70 72 81 74 74 65 61 71 55 53 59 59 54 50 62 78 93 102 103 103 91 88 73 81 85 90 81 84 84 79 70 65 68 65 75 78 75 72 39 50 53 47 45 45 50 41 35 31 34 37 46 63 68 73 62 65 78 86 84 95 90 98 99 97 103 101 109 102 105 107 108 101 108 106 104 91 77 60 44 59 58 79 72 69 55 64 64 70 83 84 84 65 72 76 78 71 67 61 50 55 48 64 67 71 71 62 47 48 64 88 104 106 101 95 90 82 81 104 105 94 87 80 87 75 67 57 52 70 77 81 61 46 46 49 47 38 41 41 30 30 32 41 51 56 69 72 59 66 66 79 83 87 87 97 99 99 108 105 107 102 107 106 105 103 107 104 91 82 63 57 52 54 66 78 77 65 61 59 50 70 72 87 91 82 89 98 108 102 96 89 84 86 73 77 83 83 89 86 76 72 70 69 81 94 106 107 93 79 82 75 85 99 92 92 84 79 82 68 58 43 56 70 80 69 65 71 60 45 38 41 28 34 34 44 54 60 65 64 58 65 61 68 74 80 82 96 95 89 105 106 105 106 105 107 107 108 103 96 69 62 57 55 48 56 71 68 69 68 59 56 61 55 68 85 92 103 108 111 105 104 101 92 96 102 79 83 87 89 103 103 104 93 90 86 85 83 92 94 98 100 87 79 74 72 75 82 83 78 80 71 63 57 46 49 59 69 77 70 74 74 64 44 49 30 46 39 49 55 53 58 53 64 52 66 65 68 67 83 96 93 103 106 107 105 108 105 108 105 101 82 58 64 56 59 54 61 60 66 63 59 56 50 53 50 69 78 87 96 91 90 80 92 92 93 92 91 86 82 84 92 103 98 99 98 80 83 84 91 94 90 84 82 88 87 87 75 60 61 60 67 67 77 72 57 50 44 44 56 67 80 76 76 70 67 51 42 40 46 46 45 42 51 47 54 55 58 57 69 66 67 78 90 102 106 107 104 107 104 102 107 91 75 60 58 57 58 53 59 51 54 50 49 49 55 54 59 65 68 73 75 81 69 61 66 75 83 83 86 85 85 87 100 101 95 94 94 91 95 90 93 90 93 84 74 66 73 73 79 76 73 65 57 53 53 60 65 60 42 43 39 41 55 66 69 64 64 59 45 32 40 47 41 41 40 39 44 52 55 50 48 62 58 76 81 108 103 106 107 103 105 105 105 91 68 60 52 53 54 44 50 40 43 51 58 65 59 59 56 58 58 65 63 69 57 64 59 64 69 80 85 95 100 96 108 107 104 96 88 91 100 105 97 93 82 77 77 79 66 69 61 58 63 60 56 49 50 43 45 53 56 45 42 33 35 42 56 61 51 55 51 41 41 29 42 37 39 38 41 44 42 57 45 50 39 65 79 104 105 107 105 104 104 109 99 78 66 43 56 47 46 37 33 38 47 44 54 57 43 55 46 46 54 57 59 65 54 72 74 76 78 81 85 99 103 102 94 90 85 75 68 60 72 94 96 99 92 81 65 73 68 73 68 61 56 51 50 42 42 35 37 32 42 41 40 29 28 26 35 45 50 43 47 53 54 50 34 35 39 45 46 48 42 51 54 52 39 48 61 106 106 106 105 100 109 99 91 63 56 43 51 44 28 34 35 43 43 39 44 42 42 46 44 39 39 42 49 54 57 65 72 76 79 90 91 104 106 108 101 92 87 75 64 51 53 61 75 69 78 78 79 66 71 69 68 61 65 59 50 53 35 43 36 34 32 27 35 36 27 25 29 29 39 40 37 40 51 61 61 43 36 38 54 50 49 44 40 60 50 34 55 107 102 106 104 108 101 88 64 47 44 44 41 30 30 32 35 36 31 24 37 35 44 32 35 39 31 37 38 36 49 50 50 68 72 76 80 83 87 81 83 73 63 58 56 54 49 64 64 82 70 71 67 64 64 58 68 65 65 64 53 58 52 45 29 41 29 33 33 33 28 28 28 26 24 35 33 36 39 40 54 50 48 40 49 46 55 44 45 43 44 44 45 109 106 103 104 97 84 53 46 34 37 36 36 27 24 33 28 34 23 27 31 35 34 30 40 32 30 33 34 38 33 41 44 50 54 60 67 57 59 54 53 55 49 57 57 54 42 49 50 64 65 73 69 66 69 58 65 66 74 62 65 56 54 62 49 43 44 38 40 39 31 31 26 33 19 31 29 26 31 24 37 41 46 45 41 50 52 59 48 43 38 41 31 105 105 107 101 71 51 36 32 31 29 36 31 28 30 24 27 32 23 29 28 31 35 30 36 31 36 34 38 39 40 46 56 57 61 56 60 60 62 57 63 56 57 54 57 52 50 45 49 51 63 65 73 65 65 63 65 61 63 59 56 52 47 48 43 49 45 47 34 37 31 34 24 28 19 25 29 20 22 28 28 30 37 42 42 40 52 53 53 43 42 44 20 103 106 91 66 41 41 32 25 25 30 34 31 25 31 29 27 23 27 28 30 29 34 36 37 39 47 47 48 53 54 56 62 65 71 71 73 82 85 88 88 89 81 77 69 57 51 52 39 49 43 48 48 60 66 63 68 61 69 57 59 57 54 58 55 45 52 46 44 41 36 31 33 23 26 22 25 27 20 27 32 29 37 39 38 46 43 52 51 52 42 43 37 106 91 56 33 42 32 27 19 28 36 36 30 25 29 22 29 19 31 25 33 27 37 36 50 58 61 61 57 64 67 75 89 91 107 108 118 116 121 117 116 118 115 112 105 88 83 73 62 51 44 54 49 53 62 62 65 64 65 71 75 68 70 62 68 55 62 56 48 46 38 35 37 26 23 27 27 20 22 27 24 30 33 34 38 45 39 49 53 50 42 50 45 93 53 31 34 30 24 26 32 40 47 39 33 20 26 24 22 25 26 33 34 44 30 43 64 67 71 66 68 80 99 115 125 136 144 148 148 150 144 141 138 136 137 133 129 119 109 100 89 82 65 69 68 62 67 68 67 66 69 69 75 78 75 71 70 61 53 53 44 45 31 32 31 25 25 22 21 20 22 23 23 30 23 35 34 39 41 47 43 41 40 56 50 62 38 31 28 20 22 31 38 44 40 31 31 20 26 22 23 26 31 45 51 59 62 51 60 69 74 81 104 120 146 153 158 160 157 154 144 148 144 142 140 135 133 127 126 119 116 116 107 102 93 89 76 78 73 73 75 71 74 76 79 79 80 74 69 61 61 59 46 43 45 39 29 26 21 24 21 19 18 23 23 25 30 31 40 45 50 49 47 52 33 37 57 38 27 33 21 25 31 39 36 36 32 27 21 17 24 23 31 30 40 65 78 89 87 80 72 79 102 121 148 161 173 175 179 179 180 172 165 154 154 145 142 142 136 128 126 126 117 120 117 112 110 99 98 89 84 83 84 82 83 81 93 88 90 84 76 66 72 67 60 64 57 46 46 27 16 24 20 19 20 22 28 31 35 33 39 43 50 53 50 53 36 38 39 28 29 28 26 29 33 28 30 28 22 22 20 23 31 25 30 49 67 99 119 139 142 131 117 124 149 168 176 182 185 184 186 188 192 189 188 181 174 167 162 155 149 142 141 134 132 131 126 130 122 117 111 105 101 100 95 98 96 101 102 99 100 90 94 85 75 83 72 78 73 67 59 41 21 22 19 21 19 25 32 28 39 43 39 38 45 53 56 45 44 34 36 31 21 32 24 28 29 26 24 23 19 21 28 32 41 47 65 87 115 141 159 170 174 168 168 168 178 187 186 188 191 189 191 192 194 196 196 196 191 185 175 171 168 162 161 155 155 157 149 153 146 137 129 118 117 114 110 111 111 114 108 111 107 105 105 98 98 95 84 88 84 77 73 56 31 24 20 20 17 22 30 30 34 37 38 47 36 45 59 41 47 37 31 33 23 25 24 25 21 25 28 21 33 33 41 47 65 76 106 125 145 157 168 174 177 179 185 185 185 189 189 192 191 192 191 194 196 199 201 198 196 193 191 187 185 182 179 176 174 173 172 175 172 163 152 142 130 126 125 128 127 125 121 120 118 113 117 112 109 107 102 99 87 87 84 68 53 28 23 21 18 23 28 26 46 34 38 46 47 37 46 45 45 37 33 27 31 22 21 27 28 26 37 26 40 33 43 56 70 102 123 148 159 164 169 176 179 185 186 187 189 191 191 190 194 194 193 194 197 199 200 199 197 196 198 193 193 193 193 187 186 183 180 181 186 179 174 160 147 137 133 131 138 136 135 133 132 131 126 125 121 116 116 110 103 91 94 82 66 52 26 21 24 27 26 40 43 46 44 40 50 41 35 41 34 29 35 32 31 17 17 28 35 37 35 33 29 36 41 66 89 114 138 149 163 169 173 180 184 188 190 190 188 192 192 192 194 194 193 196 199 197 201 198 198 198 197 197 195 197 195 191 190 191 188 189 191 188 184 176 167 152 145 138 140 143 144 145 148 146 141 133 130 123 122 116 115 104 101 94 76 64 40 26 29 25 36 41 46 52 50 43 41 45 34 29 34 31 29 30 30 20 34 29 31 22 24 23 29 29 42 70 101 124 144 156 169 170 182 182 189 192 193 193 192 194 193 193 195 195 195 197 201 199 201 199 199 200 200 198 197 196 196 191 194 192 192 193 196 191 192 188 182 172 167 157 153 152 154 151 152 152 146 144 140 129 130 126 120 110 113 95 86 70 55 34 27 31 34 45 43 52 56 47 41 35 41 24 30 36 29 28 26 28 32 30 21 19 25 31 30 37 53 87 112 133 158 161 174 177 187 189 190 194 195 195 195 194 195 193 198 196 196 199 201 200 201 200 200 197 201 200 199 197 197 194 195 195 193 195 196 194 193 194 190 186 183 178 167 164 158 159 151 152 148 145 143 136 130 131 122 123 113 108 102 80 59 44 37 29 41 35 43 49 54 51 46 36 30 31 21 34 30 32 26 37 25 23 22 23 29 28 32 43 68 93 123 140 161 167 180 181 189 192 194 196 197 195 196 197 195 195 198 199 199 200 199 200 201 200 198 200 199 197 199 196 196 193 193 196 193 197 196 195 194 195 192 192 190 185 182 176 166 162 157 149 150 145 145 138 136 130 133 124 123 117 108 96 67 52 41 37 43 37 38 47 48 50 48 38 30 30 24 24 28 39 36 30 24 21 24 32 27 33 37 45 73 102 125 145 166 178 176 180 189 193 195 196 196 198 197 198 197 198 200 198 197 200 201 200 201 199 199 199 199 197 196 199 195 197 194 196 195 196 195 197 193 194 192 191 190 193 188 187 181 175 163 161 147 150 143 143 138 133 135 134 125 123 115 104 86 62 42 37 38 42 40 44 47 38 48 27 36 24 21 30 24 52 35 22 26 35 25 32 27 30 40 50 82 103 132 152 170 182 180 184 189 193 192 196 198 197 197 199 200 199 200 199 198 201 201 201 201 200 201 198 201 195 197 194 195 193 193 196 196 195 197 196 193 194 191 192 192 188 191 189 187 183 176 166 160 156 148 147 139 142 134 133 134 124 121 113 93 72 54 39 33 42 39 42 39 47 37 37 31 25 27 23 21 72 36 29 29 26 29 23 33 33 38 62 77 106 133 155 172 178 182 185 190 191 194 193 197 197 196 199 199 198 200 199 200 200 201 201 201 200 199 200 200 197 197 197 195 191 194 192 193 195 197 194 194 194 192 193 193 191 189 190 190 185 185 176 168 163 158 146 147 141 140 133 137 126 124 116 101 84 58 41 37 32 43 39 38 39 32 30 30 26 27 20 25 54 36 32 29 27 26 26 32 34 39 56 87 114 140 160 173 177 182 186 189 192 191 194 197 196 196 198 199 198 200 199 200 200 201 201 202 200 199 197 198 195 194 196 194 192 194 192 193 195 195 193 192 192 193 192 194 194 192 190 188 186 186 186 176 172 165 158 149 143 141 134 138 132 125 115 104 92 66 45 35 33 39 37 31 37 24 37 24 22 23 21 26 39 27 31 27 28 28 27 32 36 39 69 92 118 143 164 172 177 183 183 189 192 193 195 194 196 198 199 200 199 201 200 199 198 200 199 201 200 197 196 196 196 192 195 193 192 193 194 193 194 195 195 194 194 193 195 196 192 193 189 191 187 185 186 181 178 172 164 154 148 142 137 137 131 125 115 106 94 73 45 35 35 33 35 27 27 28 24 27 20 29 15 24 34 30 31 30 28 32 26 34 35 47 65 89 119 140 164 171 176 183 184 190 192 193 197 196 197 197 198 197 199 199 202 201 199 200 198 199 199 194 194 193 193 194 191 193 193 193 194 194 195 193 194 193 196 194 192 195 194 192 191 189 187 186 186 182 183 174 168 162 152 146 139 140 129 123 118 107 97 83 55 33 32 27 31 27 26 23 23 31 19 29 15 17 29 30 29 22 23 25 31 34 38 47 63 96 124 149 161 170 180 184 183 191 189 192 193 198 196 198 198 196 196 198 200 200 200 200 198 200 200 198 195 197 192 192 192 192 192 190 191 193 194 196 193 193 195 194 193 194 192 192 192 189 186 186 185 181 180 176 174 160 163 145 141 138 131 123 111 113 103 85 58 36 32 30 31 26 23 16 21 29 20 24 18 18 34 35 23 28 23 29 40 33 39 42 72 100 135 155 166 169 175 182 185 189 191 192 194 198 196 196 197 194 195 195 197 198 198 198 197 197 196 195 195 195 191 190 193 194 192 192 193 188 194 194 193 194 194 193 193 194 193 191 191 191 186 185 186 182 177 178 171 166 156 153 144 139 130 124 113 108 105 88 58 43 32 29 30 29 23 19 23 19 24 24 23 26 46 33 30 17 30 35 32 39 45 51 72 111 146 158 165 169 177 180 185 192 191 193 194 195 196 198 197 193 192 191 192 195 195 196 196 194 194 194 192 191 193 190 192 192 191 193 194 193 193 194 191 192 191 191 190 193 191 190 189 188 186 186 184 180 177 172 170 165 157 151 145 142 135 120 113 108 106 95 68 42 31 27 29 34 24 14 27 17 26 14 23 44 49 33 28 27 41 36 35 34 45 53 92 125 149 163 158 172 177 184 185 191 191 192 193 192 195 194 192 191 190 190 191 193 190 193 193 192 191 191 190 192 189 188 190 192 190 190 191 191 192 192 191 192 192 192 189 190 188 192 186 185 186 184 184 180 179 173 166 162 158 151 148 140 129 120 113 109 105 95 73 44 32 24 31 34 25 18 23 19 30 13 23 47 57 41 29 30 34 32 39 37 43 69 108 140 154 162 164 174 180 186 185 190 188 191 191 192 191 191 190 188 187 184 188 186 189 187 190 190 188 187 190 191 188 189 190 188 187 187 189 187 192 192 190 192 188 190 187 187 185 183 185 182 179 181 180 179 174 172 165 161 156 152 144 142 132 121 111 110 103 92 75 47 34 27 32 30 29 23 21 22 28 25 20 45 82 70 56 39 37 37 44 45 53 96 128 150 156 159 168 176 183 183 183 186 187 190 190 191 189 189 186 184 184 183 181 179 182 186 184 186 184 187 186 187 186 188 188 187 186 190 185 189 189 190 189 191 186 188 183 183 181 176 177 174 178 178 178 175 173 171 165 162 156 151 147 140 131 117 114 110 103 92 68 47 33 28 30 29 28 26 18 18 28 21 32 44 99 89 75 52 49 44 48 49 80 119 149 158 153 156 160 169 173 172 164 163 176 178 182 184 184 182 177 176 175 178 174 172 175 178 176 177 179 180 181 185 188 183 184 187 183 185 185 185 187 188 185 188 182 180 175 175 176 173 175 175 173 176 172 175 170 169 163 161 162 148 148 135 129 118 111 103 106 95 63 38 37 30 26 33 23 25 27 19 20 29 25 39 107 87 83 63 44 46 48 65 109 139 159 159 158 151 144 139 146 147 134 133 150 152 162 163 164 154 157 154 156 157 161 165 167 172 168 171 172 175 173 175 178 179 177 177 174 179 179 183 183 183 181 180 182 177 176 175 178 175 175 177 172 175 171 170 169 169 169 163 153 151 143 134 129 112 111 102 107 91 59 42 28 31 23 30 31 22 29 24 22 18 40 40 114 95 74 68 46 49 58 88 131 153 169 164 157 142 137 133 131 141 130 131 129 136 135 126 127 122 120 109 116 117 122 135 140 145 147 151 157 162 168 165 170 169 174 169 171 172 173 175 176 175 171 174 178 175 175 174 174 175 172 174 172 169 169 168 165 171 170 165 160 149 143 130 129 107 111 105 101 93 57 41 22 31 29 21 28 24 22 29 21 24 27 57 123 105 74 79 57 57 77 108 152 164 166 166 152 139 134 137 132 135 129 122 112 116 115 112 101 97 92 94 88 86 85 87 96 101 113 120 131 141 148 156 159 157 165 164 167 166 165 164 166 167 154 158 162 164 161 172 168 165 164 163 158 163 159 165 160 166 167 162 159 150 144 130 126 109 104 103 105 90 60 32 28 25 26 24 26 21 22 26 23 27 33 66 133 125 113 108 71 57 89 133 163 167 165 162 145 132 131 138 141 144 149 135 135 121 114 113 104 102 98 95 94 87 86 84 72 85 87 95 107 118 130 137 148 153 159 161 169 161 163 156 153 150 144 138 141 140 133 147 148 150 144 147 146 142 143 146 145 153 152 157 154 141 143 138 125 111 98 102 99 96 58 30 24 25 22 24 24 19 21 23 25 30 44 82 137 135 137 114 73 72 108 147 169 168 162 152 140 123 123 124 129 131 131 131 126 118 116 112 113 104 107 105 103 98 101 99 95 93 94 89 94 101 115 124 141 152 165 169 170 163 158 149 137 129 124 110 115 118 108 106 109 114 120 122 127 126 132 126 126 133 133 138 143 133 127 129 130 109 103 100 100 99 56 32 25 19 25 17 28 22 20 22 20 30 57 87 133 142 142 125 70 76 126 157 168 162 158 148 140 129 128 115 113 107 102 95 92 83 86 77 70 61 65 64 84 86 80 92 101 95 101 96 98 97 107 126 145 157 170 174 173 164 153 141 125 117 100 94 95 85 84 75 72 78 75 87 87 96 100 109 112 117 120 126 122 120 117 109 110 109 99 98 95 98 64 31 25 27 15 25 25 24 18 26 19 30 59 82 124 147 144 122 78 85 141 161 165 165 162 153 142 136 122 113 99 94 78 85 84 90 82 61 55 74 73 58 59 82 90 90 82 78 90 93 92 103 118 141 167 173 179 183 179 169 157 136 119 106 103 85 94 85 83 77 85 75 80 70 71 72 74 78 91 102 105 108 115 109 106 95 97 97 98 94 97 96 78 35 30 22 19 21 18 18 23 21 23 23 39 70 118 146 142 119 76 105 153 160 165 164 161 158 148 142 125 105 91 94 92 87 89 100 101 69 54 45 50 62 83 103 95 84 95 99 85 86 81 105 134 164 183 189 193 190 187 178 160 143 125 103 99 88 84 91 79 88 78 84 85 89 95 90 96 90 92 96 98 99 107 110 103 92 92 89 92 93 102 100 89 43 31 31 20 22 23 20 19 26 21 20 41 68 106 140 140 116 77 117 159 157 161 165 161 162 162 153 130 118 124 140 138 134 133 137 141 107 82 73 71 82 108 119 109 85 68 99 111 93 89 112 150 177 190 198 201 197 196 187 171 146 127 107 86 81 80 85 73 84 76 78 78 68 70 69 83 87 95 100 101 103 101 112 108 97 86 85 88 92 100 103 96 53 34 29 31 18 26 16 24 25 21 20 38 73 116 150 140 109 94 131 155 156 160 163 171 168 169 161 151 157 168 173 168 163 162 160 172 166 159 133 128 136 146 143 125 116 98 103 125 114 105 131 164 180 192 199 200 200 196 189 170 144 127 107 81 79 91 93 86 84 86 91 70 61 53 52 47 55 65 77 93 90 104 102 106 102 91 80 85 94 101 104 99 69 31 35 34 21 24 17 26 19 29 43 57 71 133 158 126 103 114 142 153 156 159 161 166 176 179 173 170 168 173 172 171 175 179 177 173 176 175 173 163 162 159 161 153 155 150 149 152 149 145 151 172 182 191 199 199 197 197 183 165 137 125 108 86 89 96 96 88 86 94 102 77 52 54 52 47 44 70 75 69 67 72 90 95 101 93 82 82 94 102 105 103 77 43 31 37 28 23 25 27 26 46 54 72 78 157 162 133 112 139 151 153 149 157 159 167 175 179 184 173 173 164 169 170 163 152 153 156 155 154 153 148 141 147 150 156 156 154 151 160 165 164 167 171 185 192 195 201 198 192 185 155 142 126 111 106 109 102 91 83 84 111 121 101 68 57 44 42 59 86 91 72 70 63 56 84 92 93 90 83 92 100 103 102 78 47 27 38 28 29 24 31 51 64 66 73 72 178 182 140 142 158 150 152 153 154 160 170 177 181 185 179 171 168 168 170 174 173 165 168 160 160 167 174 175 176 171 162 158 152 162 169 176 175 171 173 185 192 197 197 197 190 176 151 139 134 116 121 124 137 137 124 119 122 130 132 104 71 73 78 96 104 112 99 72 74 72 67 88 92 95 92 95 97 103 106 78 42 40 32 32 37 44 48 64 69 69 67 69 182 188 152 155 155 146 150 150 150 162 167 175 179 183 184 176 166 161 166 171 172 175 173 183 185 186 181 175 170 158 157 159 173 177 180 177 178 177 171 185 193 197 198 194 179 163 141 140 136 130 122 127 136 139 143 145 143 149 149 150 143 131 127 126 131 116 113 101 94 77 82 85 91 100 98 100 101 103 104 90 46 32 40 39 58 60 57 65 65 62 74 61 152 177 173 159 150 146 148 145 152 159 169 175 179 187 189 181 170 165 170 172 174 175 175 174 177 178 168 162 160 166 175 179 184 185 178 177 176 172 175 185 194 197 197 190 169 155 141 134 138 135 136 140 144 148 146 157 155 152 148 150 146 148 147 144 142 130 126 116 113 106 88 91 101 101 102 102 103 103 103 90 48 30 32 61 72 63 60 62 65 61 65 59 152 174 184 162 139 146 147 147 150 157 166 175 175 186 188 187 179 172 171 172 172 167 168 171 170 164 173 180 182 186 191 190 187 181 175 173 173 171 174 188 196 195 192 183 167 148 141 142 138 137 148 152 154 157 156 164 164 164 157 156 149 149 147 143 139 134 128 126 122 115 107 97 108 103 100 108 107 103 102 92 47 27 38 73 85 57 59 60 60 56 65 64 155 178 182 161 137 146 148 147 151 157 166 168 176 184 189 190 186 182 176 176 179 180 181 185 184 183 189 193 193 193 193 187 184 178 174 173 173 167 177 189 199 194 189 182 159 148 143 140 136 139 146 159 165 167 166 161 168 160 155 164 166 160 154 147 140 136 135 127 121 119 110 112 110 113 104 104 103 103 101 93 43 29 45 80 86 55 54 58 60 55 64 60 147 169 196 167 130 142 151 145 155 155 165 171 174 176 183 187 187 186 185 182 182 187 187 193 194 195 196 191 196 192 190 186 181 179 174 177 171 172 179 195 197 197 187 177 156 149 140 140 137 135 148 156 168 170 173 168 167 162 155 149 163 164 155 152 145 137 137 125 119 124 119 117 115 117 111 102 107 96 100 104 47 39 64 82 82 58 51 51 61 58 58 60 160 165 188 168 124 143 149 151 154 160 162 166 162 169 173 184 185 187 185 190 189 192 192 193 195 195 196 192 189 193 189 180 174 169 164 173 171 174 186 197 199 195 185 174 150 139 141 143 137 136 142 159 165 174 176 180 176 167 156 149 148 151 147 141 140 128 126 123 125 127 127 127 120 117 111 106 99 101 95 103 69 41 65 83 83 60 51 53 58 50 59 62 164 177 173 149 130 138 148 152 157 162 161 162 164 164 169 177 181 183 182 190 189 191 192 193 193 192 195 192 190 186 184 173 169 157 157 169 174 174 187 200 201 193 179 160 149 140 135 134 139 137 141 156 166 171 177 182 180 178 174 167 157 151 144 149 144 138 132 127 133 137 138 129 124 114 112 99 98 98 96 101 70 46 64 81 87 50 51 46 57 53 50 52 157 177 169 141 128 136 144 155 150 154 159 162 164 166 164 169 175 180 183 186 192 189 191 193 193 191 192 189 189 181 174 163 151 152 162 170 174 174 190 200 202 197 178 152 138 133 131 121 126 136 140 157 166 172 181 183 182 182 180 175 175 166 152 149 148 147 143 143 144 144 136 131 123 113 111 99 96 96 93 95 84 48 65 84 82 45 44 53 48 54 48 47 136 155 158 136 129 130 144 155 154 155 156 157 160 165 162 168 177 180 181 186 190 190 189 193 189 186 188 186 184 169 156 151 155 158 162 179 178 179 193 199 199 195 174 151 131 136 131 122 109 122 137 150 166 175 180 184 184 181 184 185 178 174 162 159 159 149 151 159 157 149 143 129 120 113 104 98 99 92 95 93 85 50 65 86 77 51 40 52 45 54 52 45 107 125 129 122 133 129 141 155 160 157 157 155 157 161 164 169 174 182 183 187 190 185 185 188 188 182 176 177 163 152 141 153 164 170 171 176 181 185 198 199 198 189 175 147 137 138 146 129 103 110 131 153 166 174 182 186 184 180 181 182 179 177 171 169 167 159 151 155 159 149 144 128 117 109 101 99 96 91 92 90 74 57 68 88 63 46 40 51 44 50 53 42 101 93 90 109 133 124 139 150 157 154 153 156 147 157 166 171 176 180 185 187 189 183 182 181 183 182 175 159 150 137 139 154 167 171 174 179 180 184 198 203 189 186 176 150 136 144 146 144 117 106 123 146 165 175 178 186 183 182 184 184 179 177 171 175 171 165 158 152 154 143 132 127 113 108 100 101 98 89 97 82 77 72 82 79 54 39 46 50 43 47 48 45 97 96 91 109 129 127 130 152 151 155 159 160 159 161 165 169 176 180 183 183 181 178 178 175 177 167 163 146 137 127 129 149 156 160 154 160 172 182 176 182 176 176 171 149 130 139 143 136 131 114 114 144 164 172 178 179 183 179 182 181 176 178 172 169 170 165 159 149 149 128 129 114 115 104 98 98 93 90 89 78 76 84 93 67 35 44 47 48 44 53 39 56 95 101 93 107 126 126 133 140 153 158 164 162 164 164 166 169 173 180 179 180 177 173 169 169 162 151 142 128 131 127 120 128 138 128 127 121 130 147 147 148 145 155 148 140 118 123 124 122 132 117 103 135 162 170 177 178 178 178 178 172 172 170 167 164 160 160 152 142 141 126 119 114 109 106 99 95 93 89 89 78 85 90 88 62 40 43 45 43 40 48 45 43 98 93 95 101 126 128 124 138 151 155 161 162 162 163 169 170 173 173 170 172 171 164 160 153 153 133 128 130 137 141 130 114 105 90 76 96 109 107 109 111 108 118 116 108 101 109 105 118 119 113 100 132 158 167 172 175 177 179 175 175 168 168 164 163 152 147 145 135 128 125 114 113 108 100 99 95 91 90 84 92 94 94 83 51 37 43 41 47 38 51 42 42 96 99 89 102 117 125 125 124 144 153 161 162 161 164 169 168 171 168 163 167 159 160 153 148 137 130 135 147 158 162 168 145 93 79 60 56 82 94 88 88 87 91 93 85 77 77 92 104 110 101 100 132 151 164 169 173 168 171 169 169 169 161 158 152 146 139 134 129 118 116 113 112 108 101 102 94 88 89 81 98 94 91 70 30 46 44 39 44 44 44 45 45 98 98 95 91 118 127 125 126 138 150 159 163 163 161 168 168 168 167 160 161 159 149 145 139 129 137 146 159 166 169 169 165 134 80 66 67 70 70 72 79 70 77 69 68 63 48 77 84 102 102 105 129 152 156 167 166 169 162 162 159 158 151 153 143 143 133 124 124 117 110 110 112 105 100 99 93 86 86 81 92 94 95 53 37 43 42 39 45 38 45 40 49 98 94 96 95 111 127 120 126 135 148 152 163 163 161 164 168 159 157 154 159 153 147 138 146 142 151 162 165 165 168 162 158 163 133 96 75 85 73 67 66 69 66 69 53 64 57 77 90 106 110 115 136 152 157 162 163 166 161 159 152 150 142 142 139 131 128 116 116 113 105 109 104 107 102 94 89 86 79 87 91 93 89 40 41 44 41 42 46 39 43 38 48 96 97 95 97 103 117 128 121 133 144 148 158 157 161 161 161 160 154 151 144 152 143 145 147 161 160 162 163 159 164 158 145 150 149 141 124 115 95 84 76 84 83 85 75 86 92 109 111 122 121 126 130 149 162 159 159 158 162 155 149 143 139 131 134 123 119 111 118 111 104 111 108 105 96 86 93 78 80 85 90 88 63 41 43 41 38 42 37 49 40 47 37 96 93 97 97 97 116 129 122 126 137 150 148 152 153 158 157 155 154 153 145 141 147 151 154 157 154 156 159 153 150 157 150 144 153 149 142 135 118 97 88 93 98 104 102 104 101 119 118 125 125 128 134 147 160 162 157 158 151 154 146 141 136 127 121 119 116 109 115 109 110 110 108 107 91 89 91 79 70 77 80 67 52 43 40 38 49 41 43 42 44 42 46 96 94 97 96 93 109 129 125 124 131 141 144 145 150 152 154 151 146 145 147 139 146 150 152 149 144 147 145 148 148 143 143 149 149 156 151 147 133 116 102 100 102 106 103 105 104 110 114 121 123 125 129 143 155 159 156 151 151 148 143 139 128 127 119 115 111 112 109 107 112 107 108 103 85 89 91 72 51 58 55 45 40 45 37 42 42 45 40 46 41 39 46 99 94 99 94 94 101 120 128 128 130 140 140 142 149 151 152 148 143 140 142 139 142 145 152 145 143 144 140 142 149 143 136 148 150 159 164 170 158 146 130 114 111 109 109 106 104 107 106 113 115 120 128 143 145 160 155 152 148 142 135 135 126 123 117 120 112 111 106 109 110 106 106 95 85 89 84 61 37 40 42 40 42 43 40 46 41 40 43 45 44 45 42 94 96 98 95 94 91 121 127 129 129 137 135 137 143 149 147 142 141 140 140 139 141 145 150 140 141 141 138 136 144 146 147 146 159 166 169 184 175 175 166 147 129 119 110 111 106 109 105 103 112 111 120 135 137 146 150 150 141 139 131 126 127 113 116 113 114 109 110 109 109 104 105 88 90 90 69 44 40 42 39 40 42 40 44 42 41 44 39 45 45 43 40 95 98 95 96 96 93 109 128 123 129 130 135 134 143 145 139 142 139 137 133 139 135 141 138 137 139 133 128 132 130 141 143 143 143 145 134 158 176 176 177 159 142 133 123 110 108 101 106 98 103 107 117 125 128 139 145 138 140 138 132 127 118 111 113 112 110 109 110 101 108 102 96 86 91 84 52 38 40 40 40 34 44 47 40 43 41 44 38 42 45 40 48 98 96 96 100 93 91 102 122 134 125 130 130 136 143 144 141 135 137 134 137 138 135 130 137 129 123 118 121 125 120 117 109 103 94 89 80 84 100 121 117 108 96 104 111 113 110 100 90 104 104 103 108 117 124 131 141 135 132 134 133 123 116 114 111 107 110 111 105 107 100 94 91 87 90 63 45 37 40 44 43 40 44 36 41 40 43 37 47 37 42 39 43 95 93 99 96 97 97 89 118 128 127 133 130 132 135 139 136 136 132 130 141 137 134 131 118 110 94 94 99 101 92 77 69 67 64 70 66 69 65 73 71 62 67 68 73 94 109 103 98 99 102 103 105 112 120 126 134 128 133 123 124 123 116 110 113 107 110 108 103 102 95 92 87 96 71 43 39 40 35 45 45 37 39 39 42 40 39 41 39 43 43 36 44 100 92 96 91 99 93 93 105 125 128 133 131 129 131 128 134 136 135 132 138 138 122 117 104 83 58 48 54 65 62 64 67 78 79 106 100 95 75 73 84 82 77 52 54 61 71 95 101 101 102 100 106 109 116 124 124 128 123 119 115 118 115 113 109 108 108 105 103 91 97 91 94 84 59 36 40 43 37 39 38 47 38 41 39 44 38 45 41 42 40 44 46 97 92 99 89 98 96 95 103 115 123 132 134 132 125 119 130 127 135 140 135 131 114 104 87 70 41 20 28 32 59 55 69 87 106 126 131 119 100 93 108 113 112 69 71 70 55 57 85 95 103 98 100 104 115 116 123 118 117 116 113 117 115 107 104 109 110 104 100 96 88 95 90 73 37 36 42 36 44 39 41 38 43 35 46 41 37 45 40 41 38 43 42 99 90 102 94 98 93 101 90 115 123 129 134 129 138 135 135 138 134 135 130 122 113 102 88 85 87 74 54 42 49 33 57 57 79 127 145 131 106 112 127 133 124 99 97 89 67 43 56 75 86 85 93 96 110 113 118 122 109 113 108 113 111 104 107 109 102 106 96 99 93 91 83 50 38 37 39 42 39 41 42 42 38 38 44 42 39 44 41 42 39 39 45 95 98 89 99 96 93 96 96 104 119 128 132 130 138 139 146 141 135 138 135 127 120 120 124 132 156 150 122 110 94 68 70 77 65 60 69 64 53 80 103 123 124 86 68 75 54 63 44 33 34 67 82 90 110 110 117 115 107 111 106 112 108 104 106 111 108 103 100 90 97 88 60 33 38 43 37 45 39 40 39 42 41 35 43 38 38 45 40 37 40 46 43 93 95 94 94 89 98 93 92 95 117 124 123 134 135 139 143 144 139 141 136 142 131 135 155 162 162 159 145 135 135 119 113 94 89 113 114 95 112 88 75 83 74 70 75 59 65 40 31 29 24 29 65 90 102 112 111 110 107 105 106 111 108 107 107 112 111 102 96 95 95 75 35 44 37 38 40 43 38 36 39 37 39 44 41 41 45 37 42 41 37 44 41 95 94 95 91 97 96 92 92 105 110 115 123 127 136 133 134 141 134 135 138 134 139 140 159 165 155 156 139 143 143 152 149 137 129 123 119 103 116 107 98 98 100 75 82 76 71 74 61 75 70 59 76 95 98 101 106 110 104 103 107 112 109 108 105 112 105 101 94 102 83 43 36 42 38 40 41 41 38 41 39 43 37 42 37 44 36 42 41 44 36 48 38 94 93 96 96 92 97 92 101 128 110 116 121 120 132 134 128 131 129 132 137 139 145 142 156 161 150 155 141 138 145 142 157 171 165 155 144 132 138 140 143 138 141 121 121 113 112 109 103 107 120 97 96 106 106 101 105 108 111 107 104 114 106 107 109 107 103 97 95 95 55 39 35 43 35 43 39 36 41 39 35 43 35 43 40 41 40 39 44 40 39 40 39 93 95 91 93 94 93 121 138 141 119 103 117 116 123 125 127 126 125 127 132 139 147 142 149 156 146 148 144 133 133 132 130 145 150 157 147 146 155 155 153 153 151 144 135 131 129 121 114 126 127 123 113 108 114 106 108 104 114 106 110 103 111 110 107 106 106 99 93 74 35 39 40 42 36 43 38 38 41 35 41 41 38 42 41 43 39 42 39 39 42 40 43 95 96 90 90 98 126 153 136 132 135 103 107 113 115 122 122 122 125 124 129 138 139 148 149 156 147 147 145 132 123 121 120 120 123 130 134 132 141 135 133 133 129 128 128 128 116 115 119 126 132 125 124 113 108 115 108 106 112 109 107 103 110 102 107 104 106 95 83 48 34 39 41 41 35 43 38 36 37 41 40 38 36 43 42 40 37 44 40 39 42 40 41 94 93 86 97 142 160 120 98 143 137 118 94 109 107 111 112 121 121 122 128 129 135 141 149 151 148 145 139 134 111 107 97 102 104 111 119 121 118 117 113 111 115 108 114 106 108 115 122 125 135 127 122 121 119 111 113 103 112 113 104 103 104 105 101 97 98 95 46 38 36 40 34 46 34 38 40 38 40 33 37 37 33 42 42 28 44 38 39 42 38 45 39 91 87 94 148 157 120 58 109 150 135 130 109 88 111 112 109 111 123 125 131 130 132 144 147 147 146 152 143 137 124 104 89 83 76 81 83 95 90 83 81 85 89 86 95 101 109 113 118 134 133 124 123 118 118 115 106 105 105 103 108 101 104 107 99 97 94 71 33 38 34 40 36 38 38 42 33 47 33 43 35 41 44 33 40 46 37 40 41 40 39 39 44 91 85 139 159 128 79 50 131 151 137 132 130 88 94 107 111 112 120 125 130 134 138 137 144 141 142 146 148 142 137 124 103 93 71 76 68 74 72 73 73 82 85 87 95 103 109 114 128 129 127 125 119 117 104 111 108 106 102 103 101 105 102 96 98 92 89 53 30 39 40 35 38 37 44 34 42 40 38 37 41 39 39 38 38 42 37 39 39 41 37 41 38 73 115 161 131 105 50 49 144 145 139 131 134 121 80 94 103 102 118 126 134 134 143 136 145 152 146 147 147 143 144 135 123 118 96 88 82 79 82 81 85 88 97 97 101 109 114 120 128 125 119 120 116 113 105 106 102 104 103 100 103 100 100 89 93 87 72 40 44 33 44 33 38 38 38 38 37 39 36 38 39 37 37 37 42 37 40 38 38 44 41 39 31 90 156 136 113 82 20 82 149 149 138 141 129 135 108 79 92 102 114 126 137 140 141 143 146 159 155 152 154 148 147 140 139 137 130 121 117 109 103 100 106 110 111 113 110 119 123 124 128 123 119 113 111 106 108 98 102 101 99 95 97 91 96 84 85 87 67 40 50 40 34 41 33 42 34 38 39 33 40 38 32 42 40 37 38 39 39 38 38 44 40 37 37 134 153 122 112 55 9 118 148 138 141 138 131 127 131 98 78 85 108 122 131 137 139 144 150 148 154 150 149 154 154 152 153 157 158 154 151 143 138 140 139 135 135 132 122 132 132 133 123 125 119 110 105 106 105 99 102 98 98 92 97 85 96 79 85 81 62 56 58 42 38 35 38 40 36 38 39 38 37 35 38 39 38 35 40 40 39 38 36 41 41 38 37 159 129 128 98 27 27 142 142 142 139 133 135 127 130 125 92 65 98 110 128 135 138 144 145 146 160 159 155 154 160 163 163 160 161 162 157 155 154 156 162 149 147 147 139 146 141 140 132 126 123 118 110 106 108 103 100 97 96 87 91 87 85 80 86 80 47 65 61 54 36 38 33 36 38 39 34 40 37 40 33 42 37 42 37 35 44 38 37 42 40 39 36 138 129 131 68 3 82 153 142 146 141 138 133 139 128 120 119 91 65 97 115 128 126 145 149 153 153 161 165 163 159 164 168 161 159 168 160 161 162 165 166 159 152 156 148 147 155 146 134 125 122 117 111 106 104 104 93 95 90 82 83 76 87 85 88 84 20 50 78 57 47 35 39 39 32 41 37 32 42 38 36 38 36 42 32 42 33 40 36 39 39 38 40 120 142 130 45 17 121 148 143 139 141 140 131 134 133 123 119 118 79 68 103 122 128 137 140 148 150 155 170 159 157 162 164 162 160 161 167 163 162 161 161 155 154 157 150 143 143 143 135 125 123 116 108 104 101 94 91 87 82 74 81 91 90 83 83 87 13 38 78 63 59 36 33 36 39 35 42 34 39 36 40 34 40 36 38 37 40 37 40 37 38 36 40 110 155 123 26 46 144 143 146 141 144 141 134 129 139 128 122 115 108 71 72 106 123 132 139 140 147 147 161 158 152 161 157 157 165 155 161 162 162 160 156 153 148 155 146 148 146 131 128 122 112 116 99 100 93 86 79 80 80 79 91 93 89 87 82 82 24 26 66 79 54 48 38 29 41 33 40 38 38 30 38 34 41 35 39 35 42 37 35 40 39 37 42 120 169 114 14 57 153 144 148 144 145 142 143 128 134 137 129 117 109 106 58 78 102 117 128 134 137 140 141 151 146 148 147 147 155 155 159 162 157 158 155 149 143 148 141 132 137 126 127 112 109 101 96 97 81 84 72 79 87 85 95 90 86 88 82 80 30 29 53 85 54 49 42 36 37 34 38 35 38 36 37 36 37 39 38 37 34 42 34 37 39 39 39 140 170 96 7 78 158 149 144 152 137 147 145 131 129 131 136 127 114 109 92 56 76 98 114 123 130 123 127 128 139 137 137 140 139 140 139 148 138 137 139 133 133 134 129 121 125 122 112 112 100 96 90 85 68 71 82 90 90 89 89 89 88 80 89 72 40 26 45 91 63 42 54 56 46 32 39 39 34 37 39 35 38 38 37 34 40 37 34 39 38 36 42 160 168 93 8 95 157 152 143 152 148 142 140 136 129 127 130 132 126 109 105 84 65 67 95 98 109 121 110 119 110 116 132 130 132 138 136 135 135 121 119 118 125 118 123 113 106 104 105 94 96 85 70 74 73 85 92 95 90 91 92 88 82 81 90 66 40 34 44 75 83 54 38 62 55 58 43 40 36 37 32 42 31 38 37 37 42 31 41 34 46 28 43 165 154 93 15 81 161 152 146 154 153 151 137 136 135 127 127 131 135 121 106 96 75 71 61 80 83 90 101 110 102 109 118 112 117 123 123 115 116 109 114 102 111 111 102 107 104 93 95 84 75 69 67 88 84 95 89 91 92 92 92 84 80 84 97 47 37 59 28 72 85 60 29 67 54 60 67 55 57 42 39 34 39 37 34 36 40 34 42 33 39 38 37 172 137 108 30 81 165 152 152 153 154 153 140 136 133 126 129 136 127 127 117 106 89 77 67 68 65 67 86 89 96 93 102 98 96 95 103 105 103 100 104 95 102 93 93 93 94 82 83 66 68 79 88 91 92 94 94 97 91 95 90 84 82 91 92 35 42 66 33 70 86 70 27 58 51 46 71 59 54 53 62 55 54 47 43 42 38 39 36 36 38 38 38 170 111 116 39 65 161 158 150 155 156 153 149 139 135 126 129 139 132 123 125 113 98 85 76 72 68 53 67 70 77 75 79 84 81 77 81 81 86 81 89 86 88 82 84 75 75 65 69 74 83 94 90 90 90 97 94 95 92 96 87 87 89 90 93 16 51 67 36 68 90 73 39 41 82 53 62 61 55 55 68 52 65 64 64 61 52 57 45 42 40 32 40 166 93 119 64 53 158 159 156 155 155 158 148 142 139 129 128 138 138 127 125 115 111 93 83 70 71 70 60 58 66 67 70 69 66 71 69 71 69 69 67 74 68 66 65 71 68 65 89 88 96 92 93 91 99 96 93 93 97 85 92 87 91 90 75 10 56 76 34 64 98 70 45 36 86 51 65 67 62 50 57 57 64 65 59 69 63 61 61 60 56 45 36 161 97 122 76 47 153 160 162 157 156 158 155 139 142 132 122 137 138 136 128 122 115 105 89 74 76 69 74 61 54 57 55 67 65 72 64 68 67 71 65 68 64 65 66 74 83 83 98 92 95 87 96 95 97 89 94 101 91 88 91 89 92 92 60 5 61 82 41 66 96 76 46 34 87 59 38 66 66 54 55 71 50 68 69 58 60 70 60 57 53 58 54 