P2
92
112
255
110 111 114 112 109 112 109 113 113 114 109 111 111 111 110 113 111 110 113 111 110 114 111 108 81 58 42 50 60 49 52 56 54 65 69 68 57 72 60 70 70 61 58 63 69 69 56 72 72 62 83 88 91 92 84 74 68 67 70 77 75 80 91 72 75 67 74 63 56 74 83 75 77 86 103 103 108 104 104 109 90 91 96 109 106 104 106 102 106 106 107 105 109 112 110 110 112 108 112 112 112 112 110 109 111 111 109 112 110 110 115 112 111 102 92 84 62 45 51 62 82 65 59 63 36 54 69 84 81 82 80 76 80 69 69 66 61 55 54 56 66 64 76 78 89 90 89 82 76 74 70 66 64 72 88 80 63 67 67 69 66 57 61 61 44 48 73 97 100 99 98 109 98 84 73 103 107 106 100 104 109 104 104 106 109 112 109 110 114 111 111 111 111 113 109 112 110 111 110 112 112 110 115 112 90 67 54 74 43 50 51 66 68 76 74 70 45 47 57 65 64 69 71 67 75 81 80 67 59 55 47 60 69 71 69 52 60 79 84 77 77 71 75 85 68 55 74 86 79 48 64 62 66 56 52 65 52 48 46 62 96 86 94 108 103 88 59 87 113 105 100 96 107 101 106 102 109 113 108 113 110 111 109 108 111 111 112 110 110 113 108 111 108 115 112 83 52 48 50 63 65 57 43 54 63 65 63 76 72 76 66 73 63 73 62 68 66 60 62 65 72 62 51 52 65 81 87 88 84 68 66 79 79 65 69 73 81 73 64 60 88 68 52 52 55 63 50 46 61 51 43 27 80 66 84 100 101 83 71 82 112 104 102 88 108 105 106 107 112 111 110 111 110 110 110 111 111 111 112 109 111 112 111 113 105 122 91 53 41 35 50 61 59 48 43 55 77 77 60 61 61 87 88 83 76 76 65 61 63 54 39 50 54 60 66 55 65 73 71 77 80 82 74 68 75 81 73 67 65 69 71 57 66 82 72 37 44 63 44 48 54 42 42 30 32 38 60 85 103 74 85 70 104 102 95 94 108 107 104 107 108 112 108 112 108 112 109 112 112 110 111 112 107 113 109 110 113 110 66 39 37 40 62 67 55 40 50 71 86 77 50 46 58 59 50 66 62 67 56 56 58 51 52 48 57 35 39 52 63 86 84 79 78 75 67 74 82 80 75 75 72 65 67 55 50 66 87 59 32 53 57 34 51 46 47 36 28 18 47 61 88 78 87 69 101 93 83 98 100 108 102 105 109 113 111 111 110 110 110 112 112 110 113 111 110 110 113 111 107 79 49 40 37 43 70 62 51 48 54 55 61 64 76 70 59 58 67 72 69 65 51 53 43 54 51 65 62 57 36 38 49 57 87 84 90 84 89 71 72 76 86 79 72 75 74 71 45 42 58 86 55 31 55 45 44 46 42 30 24 31 49 55 79 87 81 69 94 93 92 94 102 108 101 107 105 112 113 108 111 109 110 112 111 109 112 114 107 113 112 107 92 65 45 44 42 55 73 67 50 47 48 45 57 70 94 72 61 75 92 93 94 84 78 82 68 70 58 64 70 78 68 63 56 65 56 67 81 96 91 84 74 71 65 76 73 69 84 70 57 49 44 58 72 59 54 63 58 55 36 28 19 44 48 58 75 77 71 62 88 92 87 99 103 106 103 105 109 111 110 111 110 110 111 109 111 109 110 109 112 112 112 99 77 60 51 39 40 63 73 66 52 46 49 48 60 68 70 74 87 97 96 91 90 76 85 89 80 71 59 64 77 86 79 78 79 74 63 61 72 80 88 95 89 83 63 56 71 62 73 77 69 60 43 46 52 73 65 64 72 75 46 35 27 49 41 59 64 69 57 66 84 78 85 98 98 106 103 103 113 111 108 108 115 108 112 109 112 111 110 113 110 113 113 66 56 66 47 42 50 63 67 60 65 52 52 42 49 47 66 77 89 87 72 69 77 78 87 84 83 65 64 71 72 85 90 88 84 62 55 69 79 75 81 81 83 91 84 68 51 52 53 57 67 72 52 37 41 49 62 72 70 72 62 49 42 41 47 50 58 63 57 63 75 66 79 95 95 98 104 104 110 114 109 111 113 109 111 112 111 112 110 112 110 117 85 49 61 59 47 57 51 64 58 58 52 47 41 42 47 63 58 67 85 73 53 54 57 69 65 72 67 61 60 78 81 81 82 89 80 75 68 69 79 78 80 83 64 69 65 63 68 59 57 46 43 47 58 50 37 30 46 41 61 65 58 55 45 38 42 49 41 49 50 66 61 67 66 79 91 99 104 104 109 112 113 111 111 110 110 111 111 111 112 111 114 108 59 56 65 50 56 53 52 55 43 49 54 69 50 48 54 61 52 67 66 56 55 52 54 61 64 64 71 80 74 85 93 90 89 82 75 80 85 77 77 70 71 85 80 72 59 48 46 50 42 45 34 35 38 46 45 28 30 31 33 55 58 46 48 32 36 43 35 45 43 56 56 62 67 74 77 88 107 100 107 113 110 112 113 109 111 109 112 109 113 110 116 103 48 65 53 48 56 45 42 40 41 55 63 67 57 41 47 55 56 58 56 57 54 64 61 66 61 67 71 80 83 81 87 82 85 74 61 52 76 80 79 82 76 75 77 75 69 55 47 52 39 39 32 35 31 30 36 35 33 24 28 32 47 41 40 37 51 46 32 39 47 50 53 62 60 58 73 84 98 104 108 112 109 113 110 114 109 111 112 110 113 107 116 88 55 47 52 51 47 38 36 43 48 47 45 46 46 38 46 53 51 47 53 53 55 53 59 68 67 72 86 95 86 87 99 90 85 75 59 35 48 69 71 79 80 85 76 71 70 59 53 48 53 43 30 33 38 27 23 29 36 31 26 22 31 44 34 33 44 52 55 35 49 59 59 58 55 44 43 84 104 102 112 110 109 110 110 112 109 111 110 110 110 109 104 70 41 50 47 46 34 34 34 48 40 37 32 37 44 37 47 41 40 42 37 48 52 42 54 56 65 68 78 78 81 83 91 73 75 62 59 47 51 60 77 71 81 82 71 63 68 55 56 50 52 51 48 35 38 34 31 32 30 34 24 26 17 38 38 26 31 48 45 50 40 49 60 60 52 60 27 75 100 107 110 111 109 110 112 109 112 108 111 105 114 98 77 54 37 43 44 38 27 35 32 42 31 27 28 43 36 37 39 41 37 26 38 40 37 40 46 39 58 63 74 65 60 58 47 56 50 62 52 47 43 47 54 76 80 81 79 65 74 59 60 70 53 56 46 54 54 42 35 37 34 31 30 28 24 23 33 27 24 39 35 46 42 44 49 54 52 59 43 52 102 104 111 109 111 112 112 109 107 111 110 112 101 70 57 34 35 35 37 29 30 29 41 32 22 26 31 38 40 33 44 40 33 31 34 40 46 42 53 54 60 54 58 54 48 47 48 46 60 55 59 47 41 44 51 54 77 87 76 66 71 64 59 57 50 44 40 38 44 37 42 37 30 28 33 22 28 19 29 24 22 25 38 37 40 39 46 49 55 37 57 30 93 109 112 112 111 111 110 109 108 110 109 103 74 52 40 30 25 34 33 28 26 33 34 26 26 22 34 31 40 33 38 40 37 46 53 59 56 62 69 68 66 62 71 72 70 73 77 75 73 62 52 46 44 28 52 42 46 62 74 69 71 68 65 65 53 51 50 53 47 45 42 42 37 37 31 29 25 21 25 28 25 24 34 41 42 41 43 48 61 44 44 36 69 108 110 111 110 113 108 110 111 110 109 75 38 43 29 27 22 35 31 29 31 31 27 28 26 23 34 29 40 29 43 57 60 70 68 68 72 79 82 83 89 97 102 105 109 110 123 116 113 99 78 69 53 45 43 46 48 55 58 67 70 64 66 65 72 61 72 65 60 56 53 44 48 40 33 36 27 26 26 25 21 27 34 30 46 46 49 38 58 57 55 31 46 104 108 110 110 108 108 105 111 110 75 42 40 40 26 20 26 34 32 27 25 31 30 24 25 29 33 31 40 26 64 87 91 93 91 100 100 109 117 131 128 140 143 148 144 152 148 153 146 142 126 104 90 78 64 67 64 71 72 65 65 70 72 63 67 67 77 74 75 62 55 37 36 32 33 23 31 20 22 26 20 29 25 30 29 49 44 43 49 53 63 42 29 84 111 109 111 111 105 110 107 70 40 29 45 26 17 27 43 36 33 26 22 32 27 24 27 28 35 41 46 27 83 109 103 108 118 127 137 144 153 157 156 155 164 165 161 161 157 155 155 152 150 138 123 105 100 86 85 82 75 68 73 75 74 75 77 81 79 84 80 64 53 41 28 22 30 20 25 20 20 21 22 22 27 29 28 44 35 50 55 49 56 56 27 53 110 107 109 108 107 110 76 28 32 30 31 21 26 41 48 40 28 26 22 28 24 24 29 35 39 54 61 36 90 117 117 122 135 154 168 167 172 172 175 165 166 164 167 166 163 163 158 158 157 156 147 138 127 116 105 94 92 80 84 83 90 88 96 87 87 92 87 83 73 53 35 28 32 19 28 23 20 23 17 26 29 26 34 38 47 50 67 46 65 51 41 40 107 110 105 109 112 87 38 32 31 23 22 22 45 39 42 33 30 20 25 21 28 33 33 52 64 64 88 70 101 121 127 146 165 176 183 177 180 184 190 183 182 180 170 176 171 170 167 164 164 165 160 159 156 145 137 119 112 104 98 104 104 110 107 101 102 102 95 89 82 67 61 50 40 26 19 23 24 22 22 25 30 41 35 32 45 61 62 51 51 53 28 60 111 104 106 111 94 41 36 24 31 19 26 36 37 35 30 31 22 23 21 29 33 42 64 82 100 103 128 126 119 140 159 175 180 184 186 186 188 190 192 193 193 191 181 180 182 177 176 174 175 175 169 174 173 167 157 149 135 132 120 120 113 118 111 108 105 107 102 93 91 85 74 74 65 32 19 20 29 20 23 26 34 31 38 40 36 55 72 45 47 49 33 80 105 108 109 110 55 31 29 29 26 27 26 32 28 28 31 22 22 27 29 33 51 70 101 123 140 145 161 164 155 168 181 183 184 187 189 189 190 192 193 198 197 196 190 189 187 185 185 185 183 181 180 183 184 178 169 170 154 149 147 140 134 134 133 124 127 126 120 118 110 105 94 89 82 64 20 19 29 19 22 24 30 36 31 41 47 48 58 48 37 45 38 80 105 106 113 85 24 36 23 32 29 31 25 28 26 26 25 25 29 33 40 56 84 105 131 147 150 155 169 175 180 182 183 186 187 191 190 192 192 195 195 199 200 197 195 195 193 192 195 189 187 190 182 186 189 188 184 183 170 163 158 157 156 155 160 149 146 147 145 138 128 128 113 103 96 88 58 21 29 25 19 30 28 36 39 39 45 54 48 44 37 39 41 68 102 109 114 39 29 26 30 24 28 30 22 25 31 21 33 34 35 46 55 79 108 125 144 149 153 158 173 180 182 186 186 190 188 192 191 194 193 195 196 198 197 198 197 197 197 197 195 194 192 192 190 189 191 193 189 190 178 173 170 159 166 164 169 162 164 153 152 141 137 132 125 114 104 100 94 36 26 26 21 36 30 45 43 42 35 55 45 35 40 28 38 37 103 113 92 18 35 30 27 18 29 25 17 33 34 31 28 34 36 47 62 87 117 138 148 152 156 165 177 187 185 187 189 191 189 193 194 193 194 194 198 200 198 196 199 199 200 194 197 197 194 194 193 192 196 195 191 197 187 184 179 173 172 174 171 170 170 161 159 153 142 137 133 124 110 107 99 76 32 26 25 33 38 41 60 51 35 49 42 30 37 32 33 32 104 115 62 23 31 29 27 22 24 18 30 38 36 27 24 28 34 55 73 96 127 140 150 158 162 173 183 191 188 189 193 192 190 194 195 195 196 195 198 200 201 196 200 198 200 195 199 195 196 197 194 196 197 197 194 199 195 189 190 184 180 180 179 171 172 167 163 158 150 138 137 133 118 112 102 94 43 31 31 32 44 44 57 68 45 48 45 23 33 29 42 44 102 108 52 18 31 34 26 21 22 28 37 26 23 20 24 30 35 59 81 114 132 147 155 161 173 181 184 193 191 194 194 192 192 194 196 197 197 197 198 196 201 198 196 197 199 196 199 195 195 199 193 196 199 197 199 195 194 195 193 190 187 186 178 177 171 167 163 160 152 142 140 138 130 123 107 98 73 35 34 45 38 56 36 74 56 48 51 21 23 38 40 53 98 103 49 26 27 29 28 24 26 32 27 18 24 27 30 31 38 74 92 115 137 152 158 165 176 184 184 194 193 190 195 194 193 194 197 197 198 199 199 200 200 196 198 199 197 198 198 195 198 198 196 195 200 198 199 194 193 194 195 195 189 190 186 178 176 167 164 161 156 149 146 143 138 123 123 98 89 47 37 50 45 50 44 64 65 42 49 20 27 30 40 40 96 98 65 24 25 32 24 30 32 24 21 19 27 30 27 36 48 74 105 118 141 157 165 167 176 184 187 192 193 190 197 195 193 196 200 197 195 200 200 200 199 197 199 197 197 198 195 199 196 197 198 196 200 196 198 198 192 195 193 195 191 191 191 184 183 166 170 164 155 154 148 143 145 129 127 105 102 55 44 52 55 48 44 60 56 42 42 23 26 29 30 46 90 95 81 34 28 24 33 34 29 19 28 24 31 26 33 33 56 78 102 122 148 163 165 167 173 182 187 192 194 191 194 195 196 197 199 198 198 198 200 202 199 200 199 200 195 198 197 197 195 198 198 197 199 198 196 198 196 194 197 191 190 191 190 189 188 176 178 169 166 154 156 143 147 137 131 120 100 70 45 43 54 55 41 54 50 40 36 29 29 27 22 60 91 89 89 49 24 30 28 37 20 27 29 33 28 28 31 44 54 85 103 129 151 164 164 172 175 184 188 191 192 193 193 195 195 199 196 198 197 199 201 200 199 199 198 199 196 199 198 195 198 199 194 197 200 199 194 196 197 193 198 196 192 190 189 188 188 180 179 173 168 161 155 150 146 140 135 121 105 82 45 54 41 59 41 47 38 40 31 25 33 26 17 69 88 87 90 59 30 31 27 31 25 30 31 26 28 27 34 49 55 82 110 131 150 162 169 172 179 182 185 190 189 192 192 195 198 196 199 197 198 198 201 200 200 199 198 197 196 197 196 199 196 195 197 197 201 197 197 195 196 196 197 197 193 192 190 187 185 188 177 179 171 159 159 151 150 143 136 125 105 91 43 52 37 50 53 29 41 30 27 29 30 25 11 64 86 84 80 81 47 31 40 21 34 29 32 24 30 26 40 47 61 87 115 131 155 158 167 171 177 179 187 189 191 191 194 196 198 196 200 200 199 199 199 200 201 199 201 197 197 199 198 196 198 197 198 197 199 198 197 198 198 195 198 197 193 192 190 190 185 189 183 178 171 164 157 154 152 144 140 123 108 97 59 38 45 41 46 28 28 29 30 24 25 24 17 51 84 81 82 81 70 43 34 31 33 25 31 25 26 35 35 50 69 97 112 137 151 161 163 171 177 183 185 188 193 191 195 198 194 194 201 198 202 199 200 200 201 201 199 197 197 197 198 194 197 198 198 198 201 199 195 199 200 196 197 199 192 193 190 190 186 185 185 181 173 167 161 155 148 150 134 128 109 103 75 28 42 39 40 27 21 29 28 26 27 24 10 56 79 80 77 79 80 35 34 30 30 23 32 27 25 35 39 54 61 92 113 137 148 157 167 169 177 184 182 190 191 193 197 197 199 195 200 197 200 201 201 201 200 202 200 199 200 197 198 197 197 197 197 197 200 198 198 198 199 198 196 198 192 193 191 183 189 184 183 178 177 166 163 157 150 150 136 126 114 107 81 40 32 37 45 23 23 23 26 28 22 26 7 67 79 78 77 81 74 26 34 31 28 25 29 27 36 33 42 50 64 95 125 139 147 154 161 171 177 182 184 190 189 193 198 196 198 197 194 196 200 200 199 199 199 201 199 201 201 196 197 200 197 197 199 198 199 197 199 200 196 194 200 197 195 191 194 187 190 186 185 178 180 168 162 157 149 149 137 126 118 108 85 50 30 29 48 27 22 20 25 23 31 21 7 73 75 78 73 84 69 29 30 30 27 25 20 32 31 35 43 48 67 102 133 140 143 150 155 174 174 186 185 187 193 191 197 200 192 197 189 195 198 198 199 200 199 196 200 197 198 197 199 196 198 197 198 198 199 198 195 198 197 196 196 196 195 188 192 191 185 188 185 177 174 170 162 154 148 150 137 125 114 110 85 50 30 32 49 35 21 16 25 22 30 19 28 91 78 75 76 82 70 25 35 27 26 20 26 37 34 36 40 54 69 114 135 141 144 150 160 172 179 186 184 191 191 192 196 196 194 194 193 193 196 197 196 198 198 195 198 198 197 199 198 198 197 198 194 197 199 197 198 195 197 199 198 195 193 192 188 188 190 186 187 180 177 170 162 155 151 149 138 119 117 112 91 53 33 32 45 40 23 19 22 27 27 11 76 104 76 75 77 84 70 29 41 30 19 26 31 31 34 38 48 50 87 121 137 143 143 148 163 177 183 183 185 186 192 192 193 193 194 195 190 188 190 194 198 192 197 197 194 197 199 197 199 198 196 197 196 193 199 198 200 195 197 197 196 193 193 190 189 190 185 187 185 179 175 168 163 158 148 148 136 120 115 112 95 54 38 32 41 42 31 13 25 30 11 27 99 107 78 76 75 79 80 34 37 34 23 32 31 31 37 37 41 64 107 131 139 148 139 157 172 178 180 175 182 185 189 190 191 191 190 191 188 190 188 186 193 192 194 194 195 194 198 197 198 198 192 197 194 193 200 197 198 198 195 193 193 193 189 187 183 188 183 188 183 182 178 171 165 161 152 146 132 117 121 106 93 56 41 44 33 42 29 23 19 32 17 31 104 104 77 73 77 76 83 37 25 36 22 33 32 33 38 43 40 94 123 137 138 141 138 159 171 175 166 156 173 183 181 185 187 186 185 183 186 186 184 180 188 187 187 188 193 192 194 196 198 194 192 195 194 193 195 197 196 195 195 189 189 187 187 186 187 186 186 185 182 180 177 172 167 161 149 148 123 120 117 111 87 50 38 40 39 40 27 24 21 27 21 43 104 101 75 78 72 76 82 35 34 27 24 31 37 37 44 45 65 121 135 141 138 128 141 146 147 148 141 124 141 167 160 173 165 169 166 164 168 176 175 177 187 186 181 184 189 188 190 190 196 189 191 193 192 191 196 195 194 192 192 192 187 188 184 190 187 183 185 185 176 180 182 175 166 161 147 143 125 117 118 109 96 42 37 38 38 41 24 27 24 25 16 56 106 102 79 72 78 80 80 46 84 66 21 39 40 46 43 55 94 133 143 144 135 131 128 116 118 133 131 117 127 143 144 147 149 143 137 124 133 133 146 154 160 166 169 172 177 184 182 185 191 185 188 191 186 187 191 190 180 188 190 183 189 184 185 188 182 182 181 185 177 181 181 181 168 165 151 142 126 113 111 107 92 39 30 37 34 37 25 23 28 26 15 66 101 94 73 78 72 81 76 66 84 114 52 34 39 50 45 75 116 146 151 143 136 125 117 117 118 128 135 122 120 127 131 127 120 101 109 108 95 100 98 104 105 127 132 146 164 171 173 180 183 179 188 190 182 183 185 186 173 174 182 177 180 182 183 178 177 174 176 176 178 178 179 175 171 157 147 140 131 109 108 110 85 48 22 33 30 34 25 22 24 28 18 67 100 96 73 76 75 74 75 88 40 124 74 30 39 45 63 94 136 149 154 144 135 116 112 124 127 134 143 132 131 129 137 129 118 106 99 104 93 92 82 85 75 94 105 117 138 153 163 171 175 179 184 190 180 179 175 174 164 151 170 155 145 163 164 163 160 159 157 161 166 165 165 166 166 152 144 146 132 102 106 111 92 34 29 26 30 27 24 18 23 29 22 68 96 96 76 74 79 72 66 109 30 99 91 44 41 60 69 126 149 150 157 143 128 114 111 128 134 149 154 156 157 151 150 145 144 144 133 127 124 117 109 98 91 93 94 98 113 135 149 163 171 186 192 190 182 175 166 156 144 129 140 130 109 106 120 120 122 135 140 138 143 130 149 146 150 144 130 141 135 103 102 108 93 27 29 24 23 28 29 12 25 28 28 81 91 97 73 75 75 75 64 122 44 70 107 65 50 64 87 135 150 155 152 137 118 105 111 119 124 135 134 139 135 126 131 126 117 120 107 113 121 117 116 118 116 110 106 95 116 121 145 165 174 188 193 191 181 170 158 141 125 115 110 97 92 80 81 84 94 105 103 110 118 120 130 129 133 134 118 110 121 104 101 107 95 33 27 19 21 24 29 18 23 21 42 81 91 94 77 76 75 73 63 130 54 85 119 80 52 69 103 148 153 154 147 137 122 113 116 117 122 112 104 104 94 95 86 62 46 73 58 86 109 120 111 90 106 115 118 110 119 129 149 174 186 186 196 195 184 164 153 140 117 110 94 91 82 80 73 75 71 72 72 88 93 114 121 122 122 118 114 97 107 102 93 106 104 36 25 23 22 24 24 20 22 19 44 86 88 92 76 75 76 71 59 141 74 121 116 80 55 82 117 152 154 153 148 132 134 126 113 123 112 94 87 92 79 117 85 94 33 173 99 77 149 119 135 129 120 98 109 110 118 141 166 184 193 194 199 198 184 167 152 142 120 114 109 112 108 109 104 107 111 106 102 99 105 111 117 123 115 118 114 99 91 92 93 104 110 47 29 27 18 23 29 16 26 17 44 85 85 86 70 74 78 74 49 148 95 127 120 80 62 81 137 149 151 154 154 143 141 135 125 116 112 102 97 108 101 151 92 96 56 51 99 93 172 147 111 124 145 149 121 98 114 161 176 190 197 200 201 201 190 168 157 140 118 109 111 109 105 94 100 102 111 114 121 127 129 126 121 126 118 124 119 96 90 83 90 105 113 60 26 32 16 27 27 15 24 22 33 65 83 87 78 74 79 71 48 144 109 125 124 69 69 93 146 146 152 153 153 152 154 150 131 115 113 132 131 145 149 167 143 100 99 85 99 135 182 168 144 130 112 182 157 97 127 166 177 193 198 201 201 199 192 167 156 136 108 107 116 119 122 118 124 115 89 73 73 83 96 115 125 135 125 126 126 110 89 80 88 108 117 73 23 38 23 23 24 23 22 21 27 65 81 84 74 78 74 79 51 126 126 125 118 93 49 114 148 147 149 158 152 156 165 166 143 134 151 171 161 166 158 172 178 177 156 152 152 183 191 173 170 156 138 176 187 123 145 172 174 190 201 197 199 200 185 163 150 134 102 134 143 140 127 110 129 107 70 76 131 47 60 103 85 101 108 120 120 109 95 75 86 110 118 92 23 44 32 20 22 23 24 19 29 75 84 86 76 73 75 76 51 116 127 121 99 73 56 131 141 145 148 154 158 164 172 172 163 155 164 174 174 177 178 179 172 169 176 175 170 178 185 180 181 192 199 189 189 149 156 171 174 190 198 197 197 199 180 157 149 128 118 155 158 124 114 122 158 104 91 46 100 61 59 126 96 91 75 73 113 105 101 79 81 112 116 100 35 52 35 24 17 23 22 26 37 79 82 79 77 74 76 78 58 101 127 119 103 58 79 136 142 138 151 147 151 166 176 180 174 161 162 168 173 175 169 168 174 168 171 167 165 165 178 187 197 194 189 190 174 160 164 166 172 191 198 195 197 202 175 153 156 122 142 164 156 127 132 129 177 133 87 72 58 77 76 136 116 74 96 63 87 104 99 87 88 109 119 103 43 48 41 25 20 24 22 49 66 79 77 81 76 74 78 76 60 98 135 113 100 59 108 135 138 137 143 148 149 166 178 183 185 172 159 165 175 183 177 175 179 178 177 183 188 193 197 198 197 189 179 174 171 168 170 165 172 190 196 195 196 195 165 153 154 134 137 171 193 183 168 149 170 175 122 97 90 92 118 138 132 101 86 101 89 98 106 94 93 110 117 107 49 45 34 32 24 26 45 73 79 75 78 79 76 74 76 77 56 115 139 105 81 94 120 138 140 136 142 139 155 168 176 185 189 181 168 159 178 181 186 188 189 192 195 198 195 199 204 189 185 179 179 180 174 171 172 165 171 193 196 195 195 182 160 156 154 144 136 154 185 183 178 170 166 185 173 170 158 152 159 144 137 127 96 96 102 101 111 108 105 110 115 113 44 49 31 32 29 39 76 76 78 80 77 80 72 75 76 77 43 146 143 102 82 137 122 136 140 138 143 142 152 167 179 184 189 191 179 166 172 176 185 188 188 189 197 195 195 185 192 181 186 179 185 179 167 170 167 162 176 199 198 193 188 172 159 156 155 143 147 147 175 179 185 185 170 173 161 160 163 157 154 148 143 125 127 118 95 105 120 112 109 113 112 117 63 36 36 37 45 62 79 75 81 77 78 78 72 77 80 68 41 175 154 102 108 150 116 134 137 132 134 144 149 165 177 185 193 198 186 175 179 182 185 187 188 182 189 186 188 183 189 189 189 193 183 171 166 169 160 161 179 199 201 193 187 169 161 152 160 146 150 160 152 179 189 189 185 179 176 166 158 164 155 151 145 130 137 132 108 111 124 113 113 113 117 114 68 40 27 54 67 77 79 77 84 76 79 88 72 76 73 76 40 184 160 111 125 143 117 138 136 132 134 142 145 164 174 184 188 197 190 179 181 185 182 189 180 184 187 178 178 196 199 192 192 190 178 171 168 170 158 164 187 200 202 193 184 171 156 154 156 144 147 170 168 168 187 191 194 184 192 188 182 171 163 152 146 146 138 131 123 128 133 120 117 115 114 119 58 22 47 68 73 80 77 79 76 78 77 79 72 75 74 74 34 164 167 121 122 135 115 140 134 131 134 136 148 159 173 181 188 194 192 181 184 182 179 189 183 185 189 189 191 197 200 192 193 188 173 171 169 164 159 172 189 200 201 192 182 164 151 150 156 146 149 163 172 173 175 195 193 181 180 191 188 181 177 166 150 148 137 129 133 130 132 127 114 113 112 117 56 16 71 85 74 76 78 79 76 77 78 81 77 76 72 72 61 120 159 150 126 118 116 137 134 131 136 138 147 159 171 181 177 192 187 185 187 183 178 187 191 185 197 195 199 195 194 196 190 184 171 168 159 166 160 167 188 202 202 192 177 159 148 147 155 148 145 168 169 181 174 185 186 181 176 181 174 172 172 162 148 140 136 137 146 134 131 130 113 111 106 120 54 15 111 90 69 77 79 78 80 80 78 79 72 72 78 68 62 150 175 158 130 117 115 133 135 134 139 137 148 158 170 178 168 183 184 184 187 184 189 193 191 194 198 195 200 195 194 194 190 180 167 158 144 167 164 165 184 205 203 200 172 151 152 143 149 149 142 164 168 182 184 179 188 185 175 174 167 161 163 156 149 139 145 155 156 144 133 129 112 109 104 116 56 56 127 91 67 75 81 75 81 78 80 77 74 75 75 68 62 137 175 164 149 110 115 132 129 138 134 148 149 159 164 170 161 173 184 176 187 183 188 195 191 194 195 195 200 195 195 189 183 179 167 136 151 171 172 166 188 203 202 196 172 144 152 142 130 149 147 164 166 184 186 187 182 187 181 183 167 163 170 160 158 153 155 163 160 147 130 127 111 104 105 107 77 98 128 96 66 76 78 79 80 77 79 77 76 74 74 72 62 127 132 164 166 105 116 125 129 136 143 146 144 165 162 165 167 174 177 177 180 185 187 192 190 195 198 195 198 193 195 187 187 176 153 125 161 179 172 173 192 201 199 195 172 146 157 155 117 141 150 161 171 186 188 189 183 187 175 183 170 155 169 162 162 156 165 167 157 145 129 121 113 102 102 101 88 111 131 93 66 80 77 80 80 74 79 76 76 73 73 73 49 146 153 139 152 106 114 123 119 132 145 143 139 157 162 164 168 168 170 170 180 185 185 193 193 191 196 193 196 191 192 191 189 166 141 142 172 178 167 176 204 202 198 194 179 149 155 162 123 123 154 165 179 189 189 190 183 188 187 181 170 172 171 164 162 164 167 162 155 139 126 120 106 96 105 93 90 121 134 96 64 77 81 76 81 74 77 82 74 75 72 78 48 136 163 143 139 104 118 117 118 127 146 151 147 162 157 168 167 171 171 173 183 181 186 192 191 192 193 194 193 186 189 190 189 149 144 150 169 157 161 187 194 194 203 195 187 141 154 159 136 118 155 173 180 186 195 190 185 189 185 183 173 176 175 169 159 160 162 162 150 140 125 116 106 95 109 85 101 130 142 83 69 79 76 77 77 76 77 77 73 73 74 71 49 123 149 141 131 100 119 116 110 126 145 151 154 157 159 163 162 166 172 170 180 184 188 194 189 189 186 192 196 186 185 188 181 136 145 145 151 123 130 175 179 170 181 185 178 152 133 149 138 113 153 176 179 188 192 191 185 193 185 185 179 178 176 176 165 159 156 159 139 137 120 111 105 96 106 79 109 136 140 83 70 76 80 76 78 76 78 78 73 72 76 75 65 85 132 123 112 105 115 115 106 123 142 152 150 158 163 158 159 164 175 173 177 185 190 191 188 186 188 190 192 190 186 186 177 126 140 141 118 113 99 135 153 143 152 158 147 123 120 132 133 122 144 185 184 189 187 191 187 185 186 180 183 177 176 174 167 153 157 145 134 128 123 107 102 99 104 79 106 124 133 66 78 77 78 75 78 78 75 81 74 72 75 75 75 66 92 97 81 102 117 114 102 119 138 154 152 158 168 163 163 165 169 173 179 185 189 189 188 186 189 190 185 185 185 183 179 112 122 131 82 72 104 111 121 113 116 125 123 109 112 122 135 121 140 181 187 185 190 187 187 186 181 181 175 177 169 170 163 153 152 136 137 128 119 106 96 102 98 79 101 125 109 66 76 78 75 75 75 77 78 78 73 77 72 77 73 74 74 78 63 94 119 118 103 119 129 153 153 161 168 166 171 168 165 171 182 182 187 187 187 186 183 186 177 178 180 183 184 120 97 117 77 23 52 91 102 89 88 100 92 68 84 119 128 119 152 178 187 186 188 188 186 186 182 181 171 175 165 159 157 148 145 134 135 124 115 105 96 103 91 89 118 131 65 76 72 80 79 73 78 76 79 78 70 77 68 76 75 71 75 81 59 97 114 118 109 108 124 146 153 162 168 173 166 170 170 173 181 179 186 185 182 189 178 179 182 176 185 189 186 148 101 104 88 53 62 63 68 81 71 68 63 52 78 103 107 132 155 175 182 189 188 184 181 178 181 174 173 169 160 155 150 139 135 130 131 123 119 99 97 100 86 105 131 131 72 68 76 82 79 74 83 70 80 74 67 78 73 73 74 77 73 75 66 83 116 120 104 107 118 138 155 159 173 170 169 169 170 172 183 178 179 184 179 183 182 176 182 181 189 191 191 184 150 98 83 75 96 92 90 92 91 81 90 89 90 90 117 144 159 174 181 187 187 184 180 176 171 166 162 165 157 150 142 138 132 126 129 124 115 102 96 101 75 129 145 127 59 76 75 76 77 79 78 80 77 76 71 75 74 73 75 73 75 73 68 75 112 114 112 102 113 132 152 164 171 172 168 167 172 171 180 180 178 184 182 179 177 175 179 184 185 192 191 189 184 170 134 108 133 145 138 130 139 127 100 96 94 117 148 158 165 175 183 183 187 185 181 176 164 167 160 160 151 144 135 136 126 121 129 117 113 96 93 94 80 135 121 92 66 75 73 78 80 75 80 75 79 76 76 72 73 76 73 74 74 76 69 63 115 113 113 107 108 132 146 164 169 173 170 164 168 174 180 173 180 181 183 175 181 180 182 185 184 183 183 177 172 169 161 139 147 166 158 139 151 138 124 140 147 149 165 164 165 173 179 182 184 180 182 175 165 161 154 153 150 137 133 137 123 124 130 115 112 91 93 89 89 125 114 78 69 75 78 79 78 77 79 73 78 75 71 75 72 71 75 70 73 76 73 62 102 111 111 109 107 129 146 160 163 167 172 172 170 181 178 173 177 167 181 174 178 182 188 184 184 178 176 174 155 150 161 142 150 171 157 147 148 135 126 136 152 156 164 163 164 168 174 184 180 178 177 172 166 161 154 146 139 134 132 134 122 127 124 120 108 88 97 83 102 122 112 72 76 73 76 77 72 78 74 79 74 84 72 76 74 73 72 76 75 71 76 64 92 105 114 109 113 117 141 163 158 168 167 166 171 178 176 175 178 169 172 173 180 182 180 174 179 172 164 173 156 152 166 153 171 174 157 163 159 141 129 135 137 150 155 156 163 164 170 177 177 171 176 174 161 162 150 144 139 135 132 128 131 133 125 119 99 92 98 79 113 116 98 66 81 75 75 76 75 77 78 78 76 79 71 75 73 72 71 74 78 69 79 62 85 103 108 113 118 111 137 147 164 162 166 165 168 176 174 170 171 175 163 173 173 177 168 167 175 165 164 157 150 155 166 169 188 183 174 174 180 161 140 132 134 141 149 144 160 164 164 175 174 174 169 164 160 159 144 142 136 135 130 125 130 124 125 114 86 98 96 85 107 104 81 74 73 80 76 75 78 78 76 78 76 78 74 73 73 71 70 76 73 76 72 77 64 99 109 107 122 114 124 143 155 155 163 167 172 173 175 167 166 171 164 161 177 170 170 164 159 161 165 160 149 162 172 175 194 188 180 186 192 180 152 142 137 135 141 146 141 163 161 157 168 166 165 159 157 151 140 140 136 134 130 132 131 129 120 104 85 93 96 69 78 81 70 70 74 74 75 78 77 73 78 76 76 76 71 74 76 67 72 77 70 75 70 77 67 87 105 106 118 119 124 141 154 153 158 162 171 171 172 164 162 158 159 163 176 170 172 163 158 161 162 169 165 163 182 169 170 191 189 189 183 175 168 156 138 133 128 140 141 152 149 157 164 158 161 157 160 142 137 135 134 133 135 131 129 124 117 88 92 94 89 59 73 75 73 76 76 78 76 79 75 75 78 75 75 77 70 76 74 72 73 75 73 71 72 77 70 72 99 108 114 120 121 136 148 147 152 158 166 170 168 165 162 152 154 165 168 168 173 163 153 161 158 158 168 151 150 130 113 143 170 153 137 125 143 157 148 125 131 138 138 149 142 153 162 149 159 161 152 145 134 136 133 135 135 130 121 117 108 88 95 92 75 69 73 77 73 80 73 77 75 77 78 74 79 76 76 77 71 73 73 73 74 74 71 73 76 73 75 67 89 106 112 116 121 129 145 143 152 156 162 165 167 157 150 150 158 162 170 167 162 163 157 153 154 147 135 113 102 104 101 97 110 102 97 94 96 137 155 132 137 139 133 143 149 147 157 145 147 149 147 142 135 133 131 134 130 124 120 108 96 85 97 86 65 71 75 72 77 76 75 77 75 76 78 76 77 77 75 71 72 72 69 75 71 73 72 76 71 77 70 69 81 96 116 121 121 124 141 142 148 158 158 162 155 152 149 153 163 158 169 167 149 151 146 148 136 113 89 83 77 85 93 89 88 94 89 87 71 88 136 139 147 138 142 142 147 150 148 145 139 139 148 142 134 132 129 133 129 123 111 108 92 87 94 70 64 76 73 74 76 79 73 80 73 76 75 77 76 78 74 77 71 72 74 72 73 71 72 76 72 72 74 70 73 85 110 121 122 130 135 138 144 149 160 154 152 147 149 156 158 162 160 156 132 124 122 123 103 73 69 61 84 78 81 62 72 87 88 69 53 67 101 131 144 148 142 147 152 149 143 141 132 135 144 141 134 128 132 135 128 117 106 105 89 91 80 63 69 75 71 77 73 77 73 79 71 78 76 75 74 76 77 77 71 77 73 73 68 76 73 71 75 75 74 73 68 85 99 112 123 129 131 138 138 143 154 147 157 148 150 156 153 157 143 135 105 88 85 70 53 43 36 58 132 127 107 72 112 123 129 105 54 59 70 101 136 140 143 142 153 142 139 139 126 134 137 139 134 124 130 135 121 115 106 97 93 89 67 64 70 71 75 73 78 75 76 74 77 75 79 73 77 75 80 74 70 71 72 68 77 69 75 70 74 72 73 74 74 65 98 109 115 130 134 136 139 136 146 142 143 149 150 149 151 144 130 110 99 81 79 72 39 60 84 39 60 72 76 72 129 146 159 112 64 43 45 69 103 116 130 136 149 145 142 143 128 130 131 133 130 124 129 126 118 113 103 97 92 76 65 63 70 75 72 75 78 73 77 72 76 73 77 72 75 76 77 75 72 74 69 72 72 68 71 72 73 75 71 75 67 69 93 101 117 125 133 134 138 149 147 148 147 145 148 146 146 145 137 132 154 158 132 137 125 116 115 113 124 103 106 111 83 84 92 89 82 47 15 47 72 85 104 126 140 146 142 136 121 129 130 129 129 124 125 122 120 106 104 93 87 65 61 70 71 74 72 77 73 73 76 76 76 74 77 73 75 78 74 72 72 72 70 71 72 72 70 75 71 71 74 73 70 72 94 95 115 122 131 128 139 152 153 147 150 142 150 154 147 157 159 176 178 185 163 157 157 153 154 163 158 147 139 147 138 142 134 115 112 94 72 69 82 67 81 112 125 139 136 131 131 124 129 131 127 123 123 123 118 104 101 98 72 57 64 67 74 71 76 73 77 74 77 74 75 70 79 74 74 74 78 71 73 71 71 68 72 76 69 75 72 69 75 73 69 70 100 89 105 119 123 132 138 147 148 151 151 146 151 158 155 158 175 184 178 179 160 152 158 156 156 172 177 168 156 169 162 172 164 163 146 138 141 139 127 133 117 125 132 129 130 134 128 124 128 134 126 120 117 122 112 105 102 83 49 67 61 70 71 73 74 75 78 72 77 73 76 72 79 71 75 72 76 73 70 74 71 69 73 71 71 76 72 71 73 73 67 72 110 84 97 115 118 126 139 138 136 148 146 146 149 151 148 154 175 177 179 171 164 146 153 158 147 152 157 164 161 164 166 167 163 157 151 149 149 145 148 162 154 143 144 137 134 127 134 130 128 129 124 120 116 114 112 106 97 60 50 66 63 72 70 73 75 75 75 77 75 75 73 76 73 75 74 74 75 75 71 72 73 70 75 72 70 74 71 72 69 71 69 66 117 92 84 113 117 117 135 134 132 140 136 146 144 151 156 149 163 172 166 165 163 144 139 140 137 140 140 144 151 152 153 150 147 143 145 145 137 140 157 168 173 152 139 139 138 130 135 134 121 127 123 120 119 115 112 106 75 47 54 66 66 73 70 74 73 74 75 75 74 76 76 75 76 74 72 77 72 76 71 72 72 71 72 73 68 77 71 69 70 70 69 68 115 104 80 101 113 110 125 130 128 132 129 137 134 145 153 148 151 168 156 163 164 146 124 124 109 110 114 116 137 134 121 121 124 126 127 130 131 143 158 163 166 158 143 129 136 127 131 131 126 121 120 115 118 117 102 98 54 44 61 64 66 70 68 73 73 75 71 74 75 74 75 77 72 75 76 72 72 75 68 70 71 71 73 69 73 72 69 74 74 67 74 62 119 114 88 87 105 109 112 122 125 128 129 135 131 141 146 147 154 155 159 160 163 152 135 120 108 99 97 85 89 97 91 89 100 107 113 127 135 143 149 162 159 154 147 137 135 132 132 135 120 120 115 112 116 108 102 89 47 51 64 66 70 70 71 75 72 73 75 74 76 71 70 77 72 75 76 72 72 72 70 70 74 70 67 71 71 72 66 72 72 67 71 70 117 113 106 76 97 103 108 113 117 120 127 128 131 136 138 144 154 149 154 159 166 157 149 142 124 114 109 101 97 100 105 102 112 116 120 132 136 142 151 156 146 144 142 139 132 127 122 127 123 116 113 114 107 104 86 87 45 53 67 61 72 70 73 71 73 72 73 73 74 77 73 72 74 72 74 75 74 75 70 67 73 70 72 70 72 69 71 69 69 71 75 104 113 114 112 87 79 94 104 111 107 117 127 130 136 131 137 140 148 142 144 154 163 167 159 157 149 143 135 129 121 122 127 123 128 136 134 138 135 141 144 140 140 138 136 123 130 128 124 121 113 117 112 109 109 95 78 92 45 58 62 64 71 71 73 68 76 70 75 72 77 71 75 73 74 73 75 70 75 75 71 68 72 69 68 72 67 71 72 70 65 75 114 116 108 114 117 105 75 80 99 107 108 115 123 126 133 139 140 137 146 149 151 156 166 169 171 169 167 171 166 160 150 150 144 146 150 145 146 141 143 142 141 137 137 129 134 122 124 122 122 116 112 114 107 106 107 81 85 93 46 61 63 66 71 73 72 73 74 74 73 73 73 70 75 72 72 74 75 70 76 74 70 72 69 72 73 67 68 70 73 65 73 110 124 102 116 110 116 119 91 69 85 99 104 106 117 131 130 141 141 146 145 158 164 162 163 174 181 174 178 181 182 178 173 169 165 167 167 164 152 152 149 141 137 135 132 122 126 121 119 117 118 112 110 109 103 100 92 73 94 89 55 58 68 67 70 71 73 73 71 74 73 75 73 70 76 69 75 73 73 73 73 71 70 71 70 67 72 71 68 73 63 67 112 130 88 86 118 115 118 117 109 87 62 82 91 105 103 130 135 139 144 144 152 156 158 164 158 169 179 178 179 180 176 179 177 174 178 179 174 168 164 158 155 142 136 138 133 119 124 126 116 121 113 104 107 97 101 90 80 82 107 78 55 63 64 69 69 73 72 68 71 73 73 70 75 71 73 70 75 71 72 73 69 75 74 68 71 68 66 70 69 68 58 99 137 105 40 101 119 114 117 121 111 106 69 70 79 89 104 120 129 136 139 142 157 155 162 165 169 178 175 180 181 180 177 183 177 181 175 182 172 172 167 159 166 151 138 139 139 125 126 124 119 117 111 105 97 100 96 77 76 98 104 73 57 64 69 65 71 71 72 71 73 72 75 71 73 72 72 73 68 75 73 75 69 77 69 68 70 66 70 67 73 61 69 141 122 85 27 115 118 119 113 123 115 107 93 68 70 74 93 112 125 130 136 148 154 158 166 162 169 181 175 175 179 177 169 180 183 179 175 175 169 177 169 153 161 152 144 137 140 130 125 121 115 110 108 100 91 95 84 71 87 103 102 70 65 60 67 72 68 74 69 72 71 73 72 76 71 72 75 68 75 71 76 71 68 73 69 66 67 65 74 61 70 47 115 141 104 60 29 127 115 118 111 120 117 112 103 85 62 64 72 96 107 124 126 139 150 152 163 153 166 172 168 178 171 173 173 170 172 180 171 175 166 176 161 161 150 152 141 144 130 123 121 119 113 103 98 90 86 78 67 87 101 102 95 87 66 67 66 69 72 70 76 70 73 71 69 69 71 68 73 70 77 69 69 74 68 75 69 66 69 67 69 66 62 61 149 119 99 33 50 126 115 117 120 110 121 117 107 92 70 58 59 74 99 118 123 135 148 145 155 158 153 169 160 169 157 162 166 166 172 166 173 170 171 166 162 150 148 149 138 135 128 122 115 108 101 92 91 89 71 66 82 101 107 105 84 102 82 69 68 69 72 74 71 69 72 73 69 71 72 71 72 73 71 72 71 72 73 68 68 67 67 68 66 74 50 100 154 115 100 21 69 123 119 115 119 122 115 118 108 100 88 67 56 59 78 99 116 125 142 144 146 149 146 154 158 157 156 156 149 158 159 158 152 161 158 162 149 137 143 146 137 133 116 114 113 100 91 84 78 72 66 71 101 108 107 108 85 85 103 73 72 65 72 70 72 69 70 73 70 72 70 71 69 75 69 68 73 70 71 71 65 71 65 69 63 68 52 146 140 118 92 14 97 125 122 116 121 124 118 112 114 104 98 80 67 54 56 80 97 111 120 135 141 134 142 134 144 150 158 155 149 156 151 158 142 151 145 147 144 138 135 134 129 125 108 113 100 83 82 73 61 64 68 94 109 108 108 106 84 59 114 87 70 70 67 72 72 68 69 69 69 71 67 68 72 68 72 67 70 71 67 71 68 69 64 68 72 75 111 156 122 136 71 14 121 121 122 121 118 121 123 117 108 111 103 90 78 60 55 50 77 91 103 118 120 124 124 133 123 138 148 140 149 146 144 151 134 140 132 140 131 130 126 123 122 110 106 95 76 71 66 59 60 73 82 105 112 110 105 106 90 34 99 113 66 68 68 68 69 71 68 70 71 70 69 71 70 67 71 70 70 69 68 75 68 69 66 75 87 87 133 147 120 154 62 24 128 118 123 127 118 118 122 121 117 111 103 101 90 65 63 55 50 72 84 96 101 103 107 119 122 124 132 127 130 129 130 131 125 133 126 135 125 121 117 116 115 103 84 74 62 66 59 60 72 82 101 109 115 108 108 106 93 42 73 119 81 67 67 70 72 67 69 70 69 70 69 71 70 68 67 71 67 66 70 72 69 81 99 108 107 97 146 127 121 169 51 38 132 122 121 127 123 121 122 120 124 120 101 105 94 77 65 60 55 50 66 69 81 86 93 94 106 101 108 112 109 107 114 114 111 124 117 112 111 112 110 105 101 76 61 65 65 61 66 68 87 98 113 106 112 112 108 96 97 70 42 111 100 67 69 65 72 69 67 72 68 72 66 70 69 69 71 68 71 71 65 72 123 128 128 135 97 109 152 110 127 180 47 46 133 124 121 131 130 125 117 120 120 122 115 106 99 88 73 66 63 57 50 57 67 69 72 77 80 82 83 89 97 90 92 96 95 100 100 100 97 96 92 83 69 56 62 63 64 62 73 84 106 112 115 108 115 111 101 103 90 84 40 95 118 69 67 70 69 66 66 71 67 65 72 67 69 65 69 72 67 70 69 68 139 126 125 118 98 123 157 104 145 179 51 51 134 125 126 129 128 128 121 121 118 117 121 111 104 90 85 72 67 65 53 56 56 67 67 68 67 68 68 70 76 75 78 81 82 77 83 74 71 75 65 59 64 58 65 62 66 79 87 104 115 114 114 114 114 107 98 114 79 96 54 73 129 76 62 85 78 69 71 68 72 65 72 67 70 65 69 69 67 70 67 65 123 100 131 99 97 139 143 102 157 180 53 57 134 130 137 128 129 126 129 128 113 117 121 118 110 95 91 76 68 68 62 61 61 55 57 70 71 71 66 64 66 63 71 66 65 66 63 65 57 63 56 69 58 61 63 68 75 100 107 114 115 113 116 117 109 105 104 119 58 100 69 63 122 94 50 93 93 83 80 70 70 70 65 69 69 69 65 68 71 65 72 65 