P2
92
112
255
114 112 110 112 113 114 110 112 110 111 115 108 115 111 113 112 114 109 117 113 112 107 118 111 113 116 109 112 112 112 112 113 115 112 97 81 65 65 64 66 60 56 58 58 51 49 87 94 111 111 108 106 102 91 87 91 81 77 88 103 114 104 110 108 111 107 111 109 112 111 106 108 109 110 107 109 109 104 112 105 107 109 106 104 110 105 106 109 104 107 105 103 109 115 113 112 113 111 112 110 114 110 115 112 114 110 114 112 113 114 113 111 114 107 115 111 114 110 113 115 113 111 101 95 94 81 44 33 22 37 40 43 52 54 51 54 46 46 57 61 89 82 72 63 69 51 52 52 53 50 47 57 97 101 106 112 108 110 109 110 108 106 108 109 109 108 108 109 109 107 110 107 109 110 104 103 109 106 107 107 107 107 104 107 110 112 111 111 114 108 111 112 114 112 113 112 114 114 115 112 115 112 115 113 111 111 115 110 113 114 111 114 98 83 69 71 71 57 45 39 38 41 40 39 42 56 56 49 54 49 52 52 58 58 53 54 67 54 52 51 52 48 50 40 52 77 81 88 106 111 107 100 101 103 112 108 108 110 106 110 108 108 108 109 108 107 105 107 107 107 106 105 105 109 104 104 114 110 112 109 114 114 110 108 114 112 114 109 116 113 113 112 112 115 112 112 112 113 114 108 110 112 108 98 56 45 52 60 65 58 59 58 56 53 51 43 51 55 61 53 55 58 52 61 62 58 49 53 62 65 66 63 57 56 44 54 40 43 88 76 74 82 100 81 66 101 105 109 110 108 107 110 108 107 110 108 108 104 108 106 106 107 107 107 106 108 107 105 112 110 114 109 112 110 117 109 113 111 113 110 112 113 111 114 112 109 113 113 116 113 109 99 83 77 82 66 34 38 48 46 59 58 73 71 66 57 53 56 60 68 69 64 65 68 75 70 69 69 66 66 74 64 70 68 70 59 46 58 66 46 66 87 59 66 67 62 27 70 108 107 111 108 109 107 108 107 110 106 112 107 107 105 107 105 109 105 108 105 106 109 111 112 111 113 114 110 112 114 113 112 114 111 111 112 112 111 114 109 114 114 115 90 65 50 49 66 60 67 54 58 58 54 71 67 72 86 78 71 72 65 64 76 80 80 71 70 76 76 82 72 72 83 76 82 75 77 76 72 51 65 71 72 74 68 79 53 52 49 34 39 96 98 111 108 106 104 104 106 107 107 108 106 106 109 106 107 105 109 107 107 105 107 112 111 113 111 113 110 114 111 111 112 112 111 113 116 110 114 110 112 115 114 82 52 38 49 60 75 65 68 70 74 77 79 81 84 78 77 79 78 76 84 74 74 68 88 77 78 81 75 76 80 82 82 74 75 87 84 85 79 82 61 59 73 72 70 87 65 47 57 40 43 80 92 96 99 107 103 105 95 102 104 106 104 108 105 107 108 104 104 106 106 107 105 109 112 112 110 116 109 115 112 113 114 111 113 111 112 111 113 110 114 101 74 52 38 44 43 55 68 64 68 45 59 74 63 71 73 73 78 78 90 73 68 81 83 67 70 83 82 69 68 78 73 76 88 76 68 81 81 88 80 83 75 77 68 70 71 67 59 59 53 52 45 54 67 67 70 85 100 105 100 93 91 95 102 108 106 107 107 104 104 107 106 104 107 111 113 112 111 114 111 109 111 111 114 109 112 113 114 112 106 103 91 69 54 49 56 50 48 53 48 60 68 54 56 61 64 59 61 63 62 73 79 73 63 73 81 71 70 82 101 80 76 70 64 69 77 75 80 78 71 89 79 80 82 65 78 75 75 62 58 41 48 50 51 41 56 42 54 50 73 94 99 91 90 76 90 108 104 104 105 103 102 108 108 107 107 108 115 110 111 110 112 112 106 116 110 112 109 116 111 88 69 66 61 42 51 56 78 62 58 46 40 64 71 82 77 70 74 80 66 65 73 61 60 70 61 64 74 63 80 92 92 86 94 88 67 72 70 57 63 79 83 82 83 77 71 75 67 71 71 72 74 50 40 40 42 31 52 48 50 55 42 62 72 66 71 68 61 105 107 108 109 101 100 107 107 104 108 110 112 111 111 111 111 109 110 112 111 113 115 114 80 52 47 51 48 43 51 58 69 74 74 42 38 59 56 70 83 83 73 91 88 76 71 67 64 57 55 66 57 68 58 65 91 84 83 85 85 80 77 83 69 48 61 86 82 84 74 54 65 63 59 70 67 58 66 49 31 33 33 48 45 43 32 40 60 61 62 56 30 79 100 113 107 100 94 104 108 103 109 112 110 110 113 111 112 111 108 114 110 114 120 82 40 35 39 58 54 40 38 54 54 59 71 72 61 56 51 57 66 62 70 55 76 81 76 75 64 58 47 75 75 72 74 64 59 75 86 75 80 77 77 87 84 74 58 40 76 91 83 56 44 63 60 50 66 51 46 72 41 36 34 37 23 36 33 47 68 69 64 69 37 47 79 106 103 89 97 104 108 104 104 113 110 111 115 111 113 111 111 112 112 118 104 53 33 35 48 54 48 38 47 62 68 56 63 67 75 85 84 69 72 76 68 73 59 51 61 60 68 68 55 52 64 75 84 90 89 62 73 83 70 76 68 72 76 88 81 63 41 73 87 75 50 42 51 49 60 41 48 53 57 37 32 28 22 27 33 39 57 64 65 59 54 41 46 103 101 82 93 106 105 105 107 110 113 111 111 113 111 111 114 109 116 112 70 39 34 46 52 46 40 45 49 72 64 55 50 57 55 58 69 64 64 71 73 64 56 53 51 53 50 52 64 69 74 68 69 79 76 83 80 78 74 85 78 74 60 70 81 67 48 68 59 88 61 51 37 49 63 39 38 51 51 36 33 25 23 28 37 38 50 76 63 52 48 52 52 83 92 91 103 100 105 105 105 112 114 109 114 109 113 110 111 115 114 89 49 39 36 51 58 48 41 51 41 55 58 69 61 62 52 55 67 67 65 64 56 60 58 56 54 65 43 28 42 64 75 89 79 79 79 71 72 79 88 84 68 80 78 74 71 57 58 45 64 73 77 56 46 35 48 55 26 42 52 34 27 20 20 37 43 41 63 70 63 57 46 51 64 73 82 88 100 100 104 103 107 113 111 113 114 111 113 111 112 115 95 60 43 38 38 55 59 44 44 42 44 48 60 73 66 60 72 82 92 89 94 87 76 78 72 66 71 67 69 54 52 51 56 78 84 86 81 88 78 72 76 88 85 67 82 79 73 72 61 42 40 63 70 70 71 59 39 52 46 30 36 41 33 17 17 49 44 41 62 50 59 48 46 60 60 59 62 83 89 93 102 105 104 115 109 113 112 112 109 114 121 97 58 48 40 42 47 50 54 42 47 44 50 47 53 61 69 81 87 98 95 80 84 91 90 94 76 63 67 79 83 72 64 74 77 57 62 92 93 99 91 75 73 64 76 96 73 88 76 74 69 56 47 38 58 64 75 81 75 73 63 51 47 30 39 23 25 48 41 44 42 43 52 35 44 60 51 45 62 68 75 81 100 100 104 113 112 109 113 111 109 117 119 73 54 43 45 43 45 53 44 44 38 38 38 39 55 54 68 72 68 67 79 75 84 82 86 85 71 65 72 77 85 83 88 78 79 68 68 74 73 88 97 95 92 69 46 69 68 84 78 77 80 51 56 45 36 50 66 71 75 79 83 77 66 46 33 37 37 38 42 39 37 39 32 36 41 54 42 51 53 63 62 64 86 87 111 115 109 113 113 109 115 115 117 59 40 50 46 42 46 40 38 44 40 40 43 50 47 51 64 65 47 47 47 72 64 73 63 63 57 70 70 80 98 80 91 75 62 68 73 84 69 83 89 88 91 90 87 65 58 53 59 58 79 72 58 47 38 41 43 49 64 65 77 73 76 49 38 26 32 30 35 35 37 27 32 35 37 42 42 45 49 57 49 56 64 86 101 113 113 110 111 111 113 117 90 49 38 48 42 35 36 35 41 50 50 39 47 43 43 50 56 51 45 43 42 61 64 63 65 69 76 82 85 89 94 87 90 83 81 73 79 76 73 83 87 72 74 75 63 80 67 64 61 51 47 51 61 56 42 36 37 35 34 50 62 64 68 59 51 30 28 33 38 33 30 27 28 33 33 39 42 47 46 54 48 41 41 82 96 113 112 111 110 111 115 110 65 42 49 38 33 34 30 40 46 38 38 40 43 38 48 47 52 52 52 52 57 53 61 58 67 76 74 81 89 91 95 87 83 76 87 76 85 70 70 76 88 88 81 63 51 55 57 50 43 44 38 37 36 53 47 39 28 33 21 33 37 54 52 52 36 53 41 38 33 35 32 28 29 34 43 41 41 46 55 45 53 51 27 53 93 111 114 109 110 113 117 89 46 47 48 31 23 33 37 35 34 29 43 35 37 42 36 37 42 45 49 55 58 60 61 61 74 82 84 86 84 86 95 89 68 48 59 77 77 85 79 74 71 78 78 74 65 64 61 52 49 42 45 37 33 24 39 42 33 28 25 23 19 34 45 35 36 51 54 63 48 22 27 30 34 34 39 43 43 45 55 53 43 55 44 26 83 110 110 110 110 115 103 46 27 44 37 28 23 33 39 25 21 33 40 34 36 37 33 33 26 37 36 47 47 56 60 60 77 66 71 81 89 86 84 74 78 64 50 70 68 62 82 76 79 81 79 82 69 60 64 66 50 41 43 34 38 26 23 30 37 37 25 29 23 17 25 39 27 35 43 53 61 51 27 35 28 37 29 42 53 40 49 61 53 43 49 24 56 113 110 112 111 98 53 25 18 42 31 26 26 34 34 19 22 33 38 26 34 38 27 31 29 33 35 36 50 43 57 68 65 59 64 60 56 51 52 57 59 57 57 57 72 73 71 85 78 75 70 73 70 64 63 68 63 61 48 46 42 43 42 43 38 30 35 36 26 24 18 29 33 25 31 34 41 37 46 40 34 37 32 38 51 53 48 49 55 46 36 35 24 108 113 110 88 49 34 25 21 38 27 27 29 31 28 21 19 36 40 30 33 38 25 35 40 44 48 50 57 68 65 64 64 61 63 53 66 61 56 65 62 59 47 49 48 70 76 80 78 83 91 82 73 74 71 67 57 58 59 62 53 54 39 44 36 36 36 30 30 25 23 22 34 21 26 29 27 31 36 38 41 37 36 39 43 54 58 52 55 44 35 38 30 112 112 75 33 35 30 17 26 37 32 27 29 29 27 24 23 30 36 32 32 40 44 54 56 63 62 68 61 74 66 74 76 82 79 85 87 94 90 82 70 69 56 60 58 56 62 77 75 75 84 77 75 70 68 59 53 59 53 47 49 48 55 47 42 43 33 33 29 31 27 20 24 31 21 25 29 24 27 33 36 36 37 43 54 41 54 62 65 52 43 29 37 117 96 29 23 32 16 26 32 39 35 19 25 26 22 25 23 31 35 35 30 55 77 72 67 69 75 81 85 96 102 108 113 113 117 120 128 130 126 111 101 87 82 81 72 67 57 66 70 71 88 75 76 81 81 74 70 76 79 69 68 67 63 60 56 47 42 35 35 33 29 22 25 26 27 22 33 24 32 32 31 37 38 48 49 51 48 57 59 56 46 38 45 110 58 28 24 20 28 33 41 32 32 16 25 21 20 19 25 31 39 40 33 69 94 91 89 95 98 117 126 133 135 143 148 153 156 154 158 158 151 144 124 111 99 99 89 88 74 74 73 75 86 73 78 81 83 84 78 84 90 82 86 85 83 76 67 59 47 43 35 34 30 17 21 23 19 24 24 21 26 27 33 32 35 52 40 58 66 54 47 51 39 42 69 81 32 23 18 32 37 37 35 27 24 15 24 21 19 27 23 46 62 60 51 69 111 106 117 131 146 160 159 156 160 158 159 160 163 160 156 163 162 154 144 134 121 115 109 106 95 89 82 85 80 89 82 79 83 91 88 92 93 97 93 98 92 88 82 59 69 61 60 42 41 25 19 19 18 22 21 23 25 26 37 28 34 57 59 50 55 63 49 43 40 35 54 34 23 28 25 33 28 26 34 17 17 21 19 24 24 24 44 63 83 91 91 102 114 131 147 165 172 182 169 178 178 176 174 171 172 173 168 170 166 165 160 158 152 137 127 120 109 109 98 96 92 91 98 93 92 109 100 102 106 104 111 103 99 86 86 76 73 86 81 69 58 39 27 18 16 25 23 28 29 29 32 41 36 45 66 72 52 54 39 49 36 35 29 19 24 29 30 29 21 25 27 20 22 25 27 26 36 48 72 110 122 142 142 128 146 168 175 178 183 183 183 185 187 190 189 186 186 178 179 177 173 172 168 169 171 162 158 157 141 132 120 118 109 106 113 114 115 119 117 117 119 111 115 103 102 94 95 92 93 95 109 88 81 64 43 23 19 23 32 35 35 33 34 38 39 37 50 78 61 56 33 45 40 36 32 24 23 34 26 24 25 24 20 29 28 34 36 45 66 93 121 134 144 166 170 165 177 180 184 183 185 187 186 190 191 194 195 195 194 186 186 184 186 180 180 186 179 181 181 183 171 158 152 147 137 128 129 123 124 127 119 120 121 120 122 112 117 108 108 113 108 110 116 109 94 93 81 30 27 20 33 34 28 40 37 35 46 42 37 66 60 47 38 39 33 36 36 20 24 25 25 33 26 32 27 31 32 36 40 69 101 126 137 142 155 169 178 179 178 182 185 189 185 189 187 192 191 199 197 196 198 195 193 191 193 193 189 191 190 185 191 193 186 179 179 163 159 152 153 149 144 150 143 146 142 145 146 144 136 136 129 130 121 120 121 117 105 104 104 58 21 27 30 31 36 36 43 46 44 49 41 47 48 44 39 39 30 32 33 30 22 21 28 43 31 28 25 29 34 37 51 89 120 135 142 154 162 180 183 178 185 184 185 189 189 188 192 188 192 197 195 196 195 198 198 198 198 199 196 195 193 190 191 195 196 189 188 179 172 169 166 168 170 173 168 168 168 166 157 160 154 150 148 140 128 131 127 123 120 107 111 91 40 18 38 38 47 40 38 64 31 59 37 43 32 36 30 40 25 30 28 27 31 25 39 31 21 17 20 27 31 44 70 106 129 146 152 159 173 185 185 187 187 184 190 189 191 189 193 190 193 198 198 196 198 197 199 196 197 200 197 197 193 198 197 198 198 196 196 186 180 177 175 172 172 182 173 176 177 177 169 169 162 156 150 146 144 140 130 127 125 112 104 101 67 20 39 38 60 50 43 66 44 60 40 34 32 31 33 30 29 28 26 26 32 32 32 19 21 23 27 27 39 55 87 123 142 149 161 170 181 188 187 190 193 188 191 190 192 192 193 193 195 199 198 197 198 198 200 197 200 198 198 198 197 196 198 200 199 197 199 194 187 189 182 182 182 183 181 181 180 180 172 171 169 158 154 149 153 147 143 130 128 115 108 103 75 36 41 49 58 54 58 65 52 66 47 23 31 30 30 31 28 29 21 41 34 26 20 23 28 25 31 24 39 69 101 130 147 156 167 176 184 188 191 191 193 192 190 193 192 195 193 196 196 200 198 198 198 197 199 198 201 198 197 200 197 197 197 200 200 197 200 199 197 195 191 190 189 184 182 183 182 178 177 171 173 162 156 157 154 153 146 143 137 125 112 105 85 49 50 50 50 54 65 67 63 57 54 24 28 26 32 31 31 24 28 58 30 18 24 27 28 30 24 34 43 80 109 137 155 157 167 178 183 190 189 190 193 193 193 196 196 196 196 198 198 199 201 199 199 200 198 200 201 197 201 199 197 198 200 201 200 202 198 199 199 198 196 195 196 191 186 182 184 175 174 173 172 165 164 161 159 154 156 142 141 137 117 117 94 69 50 54 51 51 61 65 56 55 44 29 26 28 25 30 33 20 24 72 34 26 30 28 29 25 28 40 47 89 112 147 157 164 164 178 184 193 187 192 194 192 196 196 201 195 196 200 199 201 201 199 199 200 198 201 199 201 200 198 201 196 201 202 200 203 198 197 199 198 198 196 197 197 192 190 188 177 177 177 174 166 166 166 156 157 160 147 145 138 124 114 109 73 59 36 61 46 52 62 53 42 41 23 31 25 27 26 28 29 16 71 36 30 27 29 28 27 33 36 52 87 127 145 159 163 170 178 187 185 189 191 190 196 197 194 198 197 199 199 200 202 200 200 202 200 198 202 201 200 196 202 199 200 201 200 200 202 201 198 199 199 197 196 198 198 195 194 189 180 187 176 176 173 167 170 164 156 163 149 148 143 125 123 104 82 80 24 55 54 49 48 46 36 36 25 27 31 22 29 24 28 13 54 33 30 30 23 33 29 34 35 58 102 129 151 159 166 171 181 183 184 188 189 192 194 198 197 197 198 198 200 201 202 201 200 200 199 199 201 201 199 201 200 199 198 199 202 199 197 200 200 197 201 200 197 196 198 195 196 195 186 182 184 179 174 173 165 163 164 162 154 151 143 139 114 110 83 76 44 36 56 46 36 35 37 33 25 24 30 22 26 20 26 9 35 35 29 28 25 33 27 34 42 66 106 134 150 158 164 168 180 179 187 186 191 194 195 196 197 199 199 199 199 200 202 201 201 200 199 198 201 201 200 200 200 199 200 200 200 198 199 200 199 199 201 201 199 197 198 196 193 193 194 185 191 180 178 175 166 164 165 161 159 151 140 129 120 109 91 67 59 30 54 41 31 24 32 26 29 24 26 24 19 21 24 7 33 25 30 34 26 32 29 42 42 65 112 131 149 155 167 172 180 184 187 190 188 198 192 195 198 200 200 199 200 198 201 201 201 199 199 199 201 201 199 202 201 200 201 201 201 201 200 201 197 200 202 201 199 199 196 199 195 191 197 189 190 182 180 177 168 169 162 166 155 151 143 129 121 121 97 69 63 35 43 41 28 24 27 28 23 22 26 25 17 20 22 4 33 27 21 23 33 29 39 31 47 75 116 136 143 159 167 175 176 183 185 191 192 196 191 191 196 199 200 201 199 201 201 202 200 199 199 196 199 200 197 198 201 201 201 201 200 200 199 201 200 199 201 201 198 199 198 196 197 192 196 190 193 184 180 180 170 167 163 163 152 149 142 128 127 120 110 75 53 50 29 44 30 18 28 26 22 24 26 21 21 21 17 7 36 33 18 33 34 33 40 38 35 85 127 134 140 155 169 177 176 185 185 190 190 196 194 193 192 196 196 201 199 200 199 202 200 202 200 200 199 200 200 198 200 199 200 202 199 201 200 202 201 200 201 201 198 198 197 193 196 195 193 189 190 189 181 173 175 166 164 162 153 148 140 129 129 120 106 88 46 41 31 45 34 21 25 19 25 21 26 25 20 24 14 36 55 32 22 30 32 33 40 33 43 95 134 134 143 159 170 179 180 185 186 190 196 196 192 193 188 194 195 197 200 197 200 198 200 202 200 201 200 200 201 198 202 201 199 199 200 197 199 201 195 201 201 199 199 196 198 196 194 196 191 192 188 187 183 176 174 169 162 166 156 143 139 131 129 121 106 92 52 39 31 40 44 25 18 23 24 19 29 19 25 20 24 84 61 33 30 38 35 32 40 26 67 111 136 132 146 158 176 180 180 187 187 190 192 195 190 194 190 192 194 195 197 198 198 194 201 201 199 200 197 198 201 200 197 200 199 198 201 199 199 202 197 200 198 200 197 194 197 197 192 193 195 188 189 183 181 176 173 167 164 168 150 145 134 131 127 120 111 90 56 38 29 38 49 28 22 23 23 23 27 20 24 19 37 96 61 44 29 36 34 43 32 34 93 121 137 132 154 169 175 176 176 186 191 187 192 193 192 192 187 190 190 194 194 194 196 192 196 199 198 199 196 200 197 197 199 195 198 199 201 199 198 200 200 198 197 197 196 195 193 193 192 193 193 190 187 184 178 178 173 167 165 167 151 142 131 133 124 123 112 86 59 38 39 34 45 29 26 20 26 27 24 21 25 17 35 86 69 77 56 37 42 44 33 71 119 133 124 137 160 174 163 168 176 181 188 187 191 190 187 190 187 187 183 190 189 191 192 193 194 197 198 199 198 201 197 196 197 194 196 198 200 197 199 199 199 197 195 196 193 190 192 191 190 192 190 189 188 184 177 177 175 169 160 166 148 138 133 133 123 119 108 85 54 40 40 33 44 29 29 25 25 21 25 23 35 26 21 66 80 77 86 46 43 38 51 103 132 129 124 135 152 160 140 150 168 176 180 186 187 186 185 183 188 187 177 183 185 187 189 191 189 193 197 197 197 199 194 193 198 196 192 199 198 199 198 196 194 195 190 191 189 185 189 187 192 190 189 188 185 183 181 176 175 167 165 163 146 133 129 134 121 118 105 79 49 37 40 33 41 33 24 26 27 19 27 24 28 31 19 50 73 92 79 40 40 34 89 130 137 125 122 114 124 126 116 119 144 154 162 168 160 171 164 168 170 173 172 178 185 181 181 183 188 188 189 191 197 194 190 191 196 195 191 197 196 197 193 196 191 190 189 186 188 190 192 186 190 189 184 187 183 184 177 179 174 164 160 160 139 133 130 127 123 120 107 79 40 38 37 30 40 30 21 26 25 28 22 27 29 28 22 52 74 102 70 41 43 66 116 141 140 127 108 104 114 122 117 108 125 135 138 147 140 141 124 131 137 145 150 160 161 168 168 173 177 184 182 183 190 189 189 186 191 190 190 191 193 188 190 193 190 188 189 187 188 190 188 186 183 188 183 184 188 187 185 180 172 165 163 150 142 131 127 127 117 121 108 69 40 33 32 25 36 27 19 23 26 23 30 24 30 24 25 72 70 114 70 54 47 86 137 146 138 118 99 115 113 124 122 112 115 122 121 123 102 104 107 99 96 97 100 109 114 126 134 151 157 169 171 173 182 178 185 188 186 183 181 185 182 175 182 186 182 184 186 185 180 180 182 182 180 183 181 184 184 186 183 181 167 169 158 151 144 126 123 121 119 122 107 80 26 41 24 31 25 29 18 19 24 28 28 35 26 17 28 75 61 120 93 53 57 112 144 144 132 107 106 111 124 133 142 142 132 130 125 121 115 105 103 102 90 82 81 80 77 92 100 115 137 140 159 163 170 171 182 186 185 182 173 177 174 161 160 177 161 155 173 173 169 166 171 165 165 172 172 175 176 174 179 176 162 163 162 151 144 125 115 122 119 116 118 76 35 29 24 27 26 26 22 19 17 26 28 34 28 20 44 91 57 125 91 48 75 128 144 140 123 105 100 102 116 122 132 140 132 135 138 137 138 138 126 124 120 106 96 92 85 85 89 85 111 118 138 149 164 176 189 188 186 178 171 157 156 143 131 146 134 115 120 134 132 134 144 144 150 154 148 151 156 162 158 164 151 152 159 156 143 130 108 122 119 113 121 79 32 32 22 19 25 29 20 18 22 19 27 30 30 28 68 90 60 113 89 35 101 140 141 138 123 113 101 101 99 98 99 94 98 94 98 90 72 68 97 63 92 109 96 85 96 94 93 87 97 106 126 148 166 179 192 187 189 178 162 154 131 120 115 112 96 95 82 89 88 93 121 121 125 120 134 128 139 138 141 146 144 126 129 137 133 128 109 117 115 114 119 96 34 30 27 22 18 25 25 18 21 18 30 25 26 47 86 89 65 101 91 40 126 139 142 142 130 126 107 104 96 82 70 99 84 100 100 64 69 26 148 105 45 106 127 119 93 87 89 93 97 110 136 161 177 182 192 197 187 181 160 150 135 115 110 94 88 84 78 76 74 73 68 74 76 89 104 112 124 123 127 133 120 121 105 114 119 126 107 110 111 115 119 116 59 17 35 22 25 22 25 19 21 24 28 25 21 40 70 88 66 96 96 56 140 134 145 143 135 141 125 110 92 102 98 109 96 115 138 88 88 73 47 87 84 144 143 96 117 150 133 90 86 116 157 174 188 194 197 196 195 184 168 156 142 127 115 105 102 94 97 85 89 87 95 96 96 96 102 113 113 122 120 122 123 126 101 105 97 108 106 106 117 120 120 118 80 24 37 24 21 21 24 19 23 28 20 28 19 31 57 88 64 105 91 80 136 135 141 145 145 157 146 123 113 134 134 139 145 147 170 153 100 97 89 108 145 172 171 126 92 127 192 136 67 137 168 183 194 200 202 202 199 184 175 162 142 127 108 110 107 99 104 97 99 99 104 104 106 123 124 126 122 120 124 120 131 132 105 98 101 92 107 105 113 122 121 123 92 32 37 32 26 20 25 21 25 24 20 23 22 33 60 82 59 127 96 101 129 133 139 145 155 167 160 140 143 160 155 161 158 161 165 181 184 172 161 171 189 182 166 150 154 133 179 157 97 149 172 187 198 203 203 201 197 180 166 162 139 116 112 125 125 128 129 122 117 120 99 76 50 111 67 86 112 118 126 124 128 129 121 110 91 89 96 108 112 123 127 122 100 47 43 45 28 23 22 20 25 21 22 25 40 59 76 81 81 135 104 109 127 133 132 141 157 172 173 154 149 157 162 165 170 175 168 162 165 168 159 162 175 175 177 185 192 188 174 162 133 156 172 189 198 199 201 201 189 178 160 158 136 112 127 156 148 128 121 108 115 151 86 90 24 103 62 46 80 91 90 93 112 118 115 113 93 91 90 109 111 126 121 127 108 55 46 50 23 33 21 23 24 25 27 37 65 76 83 85 97 153 107 116 127 125 134 143 163 173 182 170 145 154 165 167 155 158 165 160 165 162 161 157 169 170 186 196 190 187 170 161 148 158 176 192 197 198 202 200 186 168 166 161 137 118 160 172 144 103 144 111 143 180 132 81 77 47 62 63 94 104 93 82 61 78 112 112 101 99 95 104 116 129 122 125 108 69 32 41 31 29 25 29 23 25 45 65 76 82 77 85 130 165 117 119 125 131 126 148 167 175 186 180 152 146 170 174 173 179 180 182 180 184 187 190 193 189 184 184 179 177 162 165 157 158 182 192 197 197 201 196 175 165 163 164 134 134 163 175 177 177 159 141 158 163 179 124 93 87 86 107 132 122 97 100 84 82 86 107 109 101 109 107 113 123 122 125 112 64 51 33 35 31 35 34 32 43 68 77 84 83 81 82 98 166 120 120 122 122 133 146 169 173 183 188 172 149 160 168 177 178 181 187 187 192 186 182 190 178 174 180 176 175 169 167 158 159 186 196 196 199 199 186 167 164 162 163 153 145 153 171 170 170 168 158 158 171 172 165 171 148 146 161 143 135 126 104 106 104 100 99 118 116 117 116 121 122 125 122 118 82 45 35 33 46 50 53 50 66 83 80 82 75 85 79 89 149 121 120 121 125 128 150 168 176 188 194 181 166 168 176 176 180 177 178 184 182 182 168 185 175 181 181 182 170 157 163 159 161 191 196 195 201 189 174 169 166 162 158 152 157 161 164 180 163 179 181 167 168 164 157 168 161 155 156 150 148 135 129 133 121 102 110 124 121 124 117 123 125 122 120 123 78 43 35 27 72 71 82 68 72 81 79 78 80 83 78 122 159 112 116 125 118 130 143 167 174 184 192 184 173 172 176 176 177 170 176 176 169 176 182 192 183 190 187 177 162 159 156 154 174 196 199 196 195 184 171 169 164 166 160 155 162 172 168 173 176 176 185 188 180 180 168 166 166 165 159 155 150 138 146 143 135 124 114 135 128 123 128 121 126 121 119 126 73 39 29 34 85 110 111 81 68 78 81 78 84 80 83 137 163 109 119 120 121 132 144 160 175 178 191 185 178 175 174 176 183 172 180 180 179 181 191 195 189 187 185 167 160 160 152 157 182 200 202 194 192 180 170 167 162 166 158 154 162 177 177 174 184 179 176 188 184 191 194 185 179 170 166 155 152 149 148 146 133 136 136 141 140 129 128 124 125 119 120 121 72 36 31 47 90 119 125 82 64 81 78 82 75 80 79 109 152 108 115 125 125 134 144 161 170 168 183 180 182 178 175 173 183 178 185 191 189 193 189 192 189 188 177 163 161 158 148 168 190 202 200 195 191 173 166 163 162 162 155 155 160 175 177 185 178 191 183 180 173 177 192 192 186 183 179 169 151 156 145 141 141 149 142 136 143 130 127 123 119 118 109 121 101 29 35 71 114 117 129 80 64 80 80 78 80 77 83 137 140 99 113 125 128 135 143 160 164 153 174 175 178 183 179 185 184 186 191 194 192 196 191 189 185 186 173 156 145 156 151 174 195 201 201 189 184 173 160 155 162 160 158 157 159 178 177 182 192 182 191 182 172 171 177 172 172 167 174 156 154 146 148 149 154 156 153 140 143 135 124 118 118 115 110 113 120 52 48 90 113 122 135 78 71 78 81 77 80 76 83 142 144 100 106 124 133 134 151 152 159 153 169 169 171 181 176 186 187 188 192 191 194 196 192 189 182 178 171 142 132 165 153 172 197 206 201 190 172 168 160 158 154 156 163 152 157 177 177 184 189 192 186 192 188 179 175 168 165 170 171 161 157 158 156 162 170 162 155 140 139 133 123 113 114 115 112 115 110 79 90 93 108 124 145 69 74 75 82 77 76 80 81 125 135 105 97 123 133 130 148 151 156 157 162 163 167 177 180 184 188 188 192 193 195 191 189 190 186 175 166 123 147 169 158 178 201 205 201 191 165 159 161 156 151 139 147 161 158 179 175 187 188 194 190 192 191 186 190 178 156 176 172 169 166 163 168 170 170 167 155 139 137 130 122 116 110 111 113 114 97 99 114 105 114 133 142 65 72 70 80 80 79 77 80 99 119 102 97 122 138 138 148 148 156 158 161 160 169 175 177 184 190 190 189 193 191 190 187 190 188 175 145 130 164 171 165 189 204 200 198 184 161 160 164 166 153 125 134 162 156 175 180 192 194 191 191 190 195 188 188 180 165 174 173 167 177 169 178 172 170 156 149 140 127 129 113 113 108 112 115 106 92 108 122 111 122 147 147 52 74 77 82 77 81 79 78 73 84 103 102 120 138 144 146 149 155 151 162 160 165 177 176 187 188 186 186 191 193 184 183 185 190 165 130 150 174 164 171 203 205 200 195 188 159 159 163 168 159 125 121 148 169 178 185 192 192 196 194 186 194 190 186 182 180 177 179 163 165 172 174 170 170 157 152 135 133 121 116 110 105 115 114 98 92 112 120 108 116 147 113 64 77 75 79 78 79 80 76 73 60 114 92 119 143 140 149 155 149 151 161 168 166 176 183 186 188 183 180 187 193 185 181 185 180 150 135 149 151 166 188 190 196 201 207 187 162 153 165 167 162 140 121 135 170 178 185 188 196 194 191 191 196 188 192 178 186 183 180 180 170 170 168 168 154 153 143 131 125 118 114 109 110 114 106 99 92 109 108 103 128 130 86 69 74 81 79 79 75 81 79 72 67 103 101 111 140 145 153 160 160 151 161 162 168 176 184 183 184 184 181 186 182 187 183 185 179 127 131 129 109 143 176 169 171 181 185 184 167 140 153 157 146 148 132 124 169 182 188 190 191 194 189 191 193 188 188 187 185 182 182 181 169 165 165 159 149 141 138 130 123 116 112 107 110 115 100 98 90 103 116 122 115 91 67 76 77 76 81 78 79 79 79 79 57 101 108 104 136 141 154 162 162 160 160 158 170 179 183 183 183 181 181 184 181 176 182 182 175 119 118 106 92 103 135 144 140 149 158 154 134 128 134 139 136 146 133 120 163 187 187 191 190 192 188 192 182 188 185 182 185 177 175 177 166 161 161 149 140 146 132 130 123 110 105 109 112 108 103 91 101 116 131 140 125 73 69 75 80 74 77 79 79 79 77 79 61 90 107 98 122 149 152 163 165 156 161 161 171 173 178 177 180 181 173 175 181 169 173 183 176 119 105 93 53 78 103 110 111 107 122 126 112 109 109 125 133 138 127 124 168 187 187 188 191 190 190 187 187 185 184 177 181 177 163 174 160 156 152 145 140 141 130 129 117 115 106 109 111 107 107 82 123 141 143 134 109 70 72 75 79 79 79 79 78 77 81 73 63 87 106 98 115 147 154 164 162 159 162 163 171 174 174 175 172 180 174 171 180 172 177 190 181 138 120 86 68 43 73 83 84 83 83 98 81 52 61 104 123 121 117 135 169 180 188 189 192 187 186 180 186 184 182 174 176 169 164 161 156 143 144 137 141 135 128 128 117 109 107 106 110 103 100 80 133 145 128 103 93 62 77 73 78 80 74 77 80 76 76 77 70 75 110 96 112 142 158 162 167 158 161 167 169 174 172 173 175 175 171 171 177 178 183 195 189 172 160 93 58 67 70 58 58 72 64 75 78 68 70 79 100 110 135 152 169 181 181 190 188 184 181 175 182 175 171 169 169 166 163 148 148 144 143 133 133 134 129 124 117 109 105 109 102 105 90 96 127 123 119 104 70 72 73 76 77 76 78 75 78 77 82 77 75 68 100 100 107 141 153 157 166 159 160 170 168 170 168 173 174 174 173 177 180 182 180 187 187 178 157 147 110 83 94 99 97 96 111 122 105 91 88 93 116 148 161 168 174 182 185 183 184 187 182 176 173 169 172 167 164 161 155 146 140 142 133 131 128 138 119 127 114 103 100 103 100 101 90 106 126 124 121 93 62 76 79 73 76 78 74 76 80 77 78 76 77 65 94 104 101 137 149 154 158 163 160 168 169 169 170 158 172 174 170 182 185 184 184 178 179 173 151 149 139 126 136 147 140 132 144 145 131 136 144 153 158 162 169 170 171 181 187 185 182 185 182 179 172 170 165 161 162 156 148 138 145 141 132 129 137 128 130 124 112 101 101 102 104 96 87 116 123 118 106 75 69 71 77 74 79 77 76 78 73 81 73 74 80 62 82 114 98 128 142 152 153 156 160 169 167 168 170 162 161 175 174 178 184 175 176 173 169 171 151 149 154 135 152 164 148 134 143 140 135 139 142 155 161 165 162 172 169 179 184 187 184 181 179 176 171 170 165 157 156 148 144 143 138 140 136 137 136 130 134 120 104 99 104 103 106 90 73 103 104 97 83 70 66 77 76 73 79 76 78 77 76 78 75 74 74 68 69 108 107 116 137 146 145 158 159 163 163 164 162 162 162 173 174 172 171 164 172 167 161 157 152 147 163 150 174 170 155 145 145 146 138 134 134 141 155 155 159 164 174 173 182 185 183 176 182 172 168 167 162 155 150 149 141 142 140 133 134 140 135 134 126 115 96 99 104 105 106 82 48 75 75 72 74 73 74 79 75 76 74 81 73 80 75 72 79 75 74 70 61 106 103 120 135 142 146 150 162 160 166 160 157 159 158 160 176 170 170 163 156 163 165 146 141 156 160 171 190 181 177 158 161 159 145 140 135 140 144 148 148 155 173 171 178 182 182 174 174 168 160 170 160 147 152 145 143 141 133 136 136 139 132 133 125 103 93 105 101 104 100 62 59 67 71 69 78 75 72 77 77 75 75 77 75 81 78 75 81 73 74 76 59 100 108 112 128 138 132 149 157 160 159 157 155 151 155 162 177 167 168 157 158 158 157 162 155 162 170 170 194 187 185 184 184 175 156 145 141 143 138 138 145 146 157 169 162 175 175 171 169 164 162 162 148 145 147 145 142 140 144 139 141 134 132 128 111 99 100 104 106 99 82 56 64 70 71 71 74 74 75 77 78 77 77 76 74 76 80 76 76 73 73 77 59 87 107 111 120 129 135 146 152 154 157 149 147 149 153 164 168 166 169 155 148 156 146 161 159 156 156 138 155 190 186 185 169 165 167 155 148 133 133 130 145 147 151 155 157 170 169 161 168 169 162 162 149 137 148 142 139 145 139 138 134 130 125 119 106 99 99 104 103 90 59 60 67 69 74 71 74 73 77 79 76 77 78 78 76 77 74 73 76 78 72 78 66 74 111 108 117 125 131 145 152 150 146 144 146 147 160 157 168 159 157 149 149 145 141 140 135 112 108 100 91 123 140 118 108 107 116 144 154 140 131 134 143 140 148 157 154 166 166 158 164 159 162 157 147 144 145 139 139 143 143 134 131 127 114 112 101 96 100 101 104 58 55 59 68 69 72 74 71 78 74 77 76 75 76 75 77 79 75 79 75 73 74 73 76 58 101 112 115 123 126 136 146 143 144 135 148 148 160 158 163 154 139 133 134 132 120 95 88 72 72 90 85 88 99 90 87 81 80 99 137 140 141 139 137 140 143 154 151 164 159 156 157 148 156 153 152 141 143 142 136 141 140 127 125 117 114 107 98 96 102 100 81 44 56 66 68 68 72 75 78 74 77 73 78 77 77 72 78 76 75 78 76 74 73 72 81 61 94 107 113 119 122 129 133 139 140 137 145 149 147 151 140 132 106 92 93 98 81 54 56 43 72 77 70 68 69 79 83 78 62 48 85 123 137 144 141 142 146 155 158 162 148 150 145 143 148 152 150 140 139 140 137 140 140 123 119 111 110 111 97 99 102 89 45 50 61 70 66 72 73 74 77 73 78 73 76 77 76 78 72 76 76 80 73 72 71 75 79 62 78 109 115 116 124 124 131 133 129 141 144 142 149 136 125 108 86 65 54 63 49 28 41 32 80 103 96 63 72 110 112 114 80 42 51 79 117 132 138 142 142 153 155 146 152 150 137 144 143 150 145 142 136 131 137 141 131 125 118 113 105 106 96 102 103 60 37 53 65 69 63 76 71 73 74 76 73 77 75 79 71 77 76 72 73 78 72 71 74 71 72 71 62 104 114 116 120 136 142 137 136 135 142 135 139 136 138 134 143 159 132 134 134 109 101 108 90 98 90 68 97 133 145 162 90 62 46 27 60 96 104 117 133 138 159 146 153 152 138 137 137 141 138 139 134 131 139 128 124 129 110 112 113 100 97 95 78 33 41 62 62 69 62 77 68 78 76 74 77 73 76 72 76 73 77 73 73 75 79 71 75 69 72 73 63 93 112 110 121 126 142 137 139 134 145 148 141 152 162 177 170 175 149 153 150 146 151 165 163 144 136 133 124 127 123 128 101 88 79 58 45 61 67 67 100 125 144 147 147 147 135 130 140 135 142 131 134 127 131 130 128 122 111 108 109 99 95 90 54 31 48 60 69 63 68 75 71 74 75 73 75 76 71 77 76 71 75 74 75 74 76 71 70 72 73 73 61 85 101 105 120 124 129 135 139 139 144 149 147 155 164 180 170 167 149 146 152 148 155 171 174 165 158 168 165 166 161 165 150 139 131 135 126 114 112 91 87 112 124 138 138 144 137 133 130 137 142 133 133 123 129 133 124 117 111 111 107 90 84 82 44 34 50 62 64 68 70 69 72 74 71 76 75 75 72 78 70 73 77 72 76 74 76 70 70 74 73 70 74 63 98 102 108 121 119 127 133 138 136 141 149 143 160 167 170 158 150 135 145 144 146 144 154 165 161 160 163 167 160 163 159 154 145 155 147 149 153 155 135 134 133 126 129 137 135 134 134 135 139 135 127 124 123 125 122 116 115 107 99 85 79 87 35 43 56 65 66 66 73 67 74 75 71 75 73 75 73 73 75 72 76 74 77 75 73 71 74 72 74 70 76 62 85 98 100 113 114 124 120 132 135 140 154 138 142 163 159 162 154 134 125 127 128 130 136 140 145 148 150 146 146 143 148 149 144 138 142 156 165 175 172 143 145 135 131 131 137 140 135 127 132 131 122 127 125 123 119 116 111 99 90 69 87 89 28 45 61 65 64 69 73 67 76 72 72 76 75 72 76 71 76 74 76 76 73 79 71 70 72 75 68 75 77 62 75 93 91 101 109 117 113 126 123 133 139 146 145 157 155 149 160 133 117 102 101 97 98 103 128 123 111 112 120 121 123 124 130 142 149 160 164 167 170 155 143 134 134 129 134 131 135 128 123 126 124 126 118 126 120 110 105 89 76 78 102 77 25 52 64 64 69 66 72 72 70 78 72 71 77 74 75 73 75 76 74 75 73 76 74 69 73 73 70 74 69 68 87 96 86 94 100 105 113 118 118 128 132 138 145 147 150 153 159 149 144 120 110 96 96 76 81 87 84 86 94 99 102 122 131 140 148 157 162 162 159 156 150 138 136 134 132 139 136 132 121 126 124 119 121 117 111 113 97 77 76 89 114 60 30 57 62 65 70 70 71 71 71 76 73 73 75 74 72 75 70 76 70 78 71 75 72 71 72 69 68 72 65 87 123 110 77 92 92 100 109 115 127 123 128 132 137 136 139 155 158 161 153 145 135 127 114 112 105 109 108 112 110 121 121 124 132 144 146 158 158 153 149 151 144 144 134 132 131 126 129 127 121 120 122 120 115 108 110 101 81 78 95 96 111 46 36 64 63 67 71 67 73 73 73 73 74 73 74 70 74 75 74 74 75 72 72 71 73 72 70 69 73 63 86 129 111 107 89 77 90 93 109 111 122 128 132 133 137 138 142 154 161 166 161 162 159 158 148 142 133 133 132 134 133 139 142 133 137 147 147 151 140 148 141 140 135 128 132 130 126 124 120 120 123 116 118 118 111 114 105 85 77 89 94 100 112 38 47 66 64 64 70 70 69 73 68 75 73 73 73 69 76 72 74 74 72 74 74 72 74 74 70 69 60 81 130 120 64 95 125 78 69 87 91 119 125 128 136 141 139 147 162 157 162 169 172 171 174 180 176 179 165 165 163 159 164 161 157 146 148 149 147 144 141 135 133 132 137 123 129 122 120 124 116 115 119 116 114 110 110 106 93 75 85 98 97 105 97 54 53 62 64 68 68 73 69 76 72 74 72 74 75 71 72 75 71 76 74 73 71 72 72 72 73 66 53 127 132 97 26 102 122 117 73 72 83 107 124 128 135 144 144 152 156 162 152 171 180 174 181 178 180 181 176 174 177 179 175 175 171 160 155 154 146 143 142 137 132 121 128 124 122 120 118 118 114 113 115 106 112 101 104 99 77 76 102 98 105 105 84 61 63 58 69 68 72 68 70 73 71 72 69 74 74 72 71 72 72 78 74 74 70 73 75 72 69 58 88 141 104 71 10 115 121 117 116 67 65 98 113 126 134 138 146 152 154 160 165 177 169 179 180 175 178 183 176 178 175 183 178 172 178 165 166 165 155 148 142 143 133 128 131 127 121 117 119 110 107 109 110 103 105 103 89 79 71 96 99 108 106 96 89 87 71 62 69 66 72 70 72 70 73 69 72 70 71 70 69 73 68 71 76 71 71 72 74 69 66 58 130 112 96 48 2 125 119 122 109 107 61 74 96 118 125 140 150 155 161 158 168 177 169 174 175 171 168 183 176 175 174 174 171 173 176 167 160 171 159 152 150 147 145 136 132 124 127 114 117 112 110 95 109 97 101 86 76 67 94 99 106 107 103 96 78 105 87 67 66 72 70 71 70 72 70 74 74 73 73 71 72 75 70 72 72 73 68 74 72 68 50 99 134 98 102 25 32 134 118 117 118 109 99 58 75 107 115 133 139 144 155 152 164 169 164 169 166 170 168 167 170 173 170 173 165 176 169 167 159 159 163 150 151 146 140 135 129 124 126 106 112 104 98 96 96 88 87 74 69 83 104 106 109 108 103 104 55 81 112 80 67 69 69 70 72 70 70 71 66 73 71 70 69 71 72 72 69 72 69 72 70 69 63 139 117 103 99 1 64 127 122 114 121 113 103 88 66 86 112 122 139 139 145 150 156 159 159 161 156 159 159 167 169 160 170 168 168 170 168 160 152 159 159 145 147 138 139 127 119 117 113 104 100 95 98 90 86 79 71 68 84 100 109 110 106 109 102 107 52 59 106 100 75 62 71 74 67 73 67 74 68 73 71 70 69 75 71 70 67 73 67 73 67 81 116 142 103 114 84 1 84 121 122 112 116 120 106 98 82 67 82 108 122 135 136 138 141 146 156 148 155 149 144 154 158 153 151 158 154 164 160 143 144 155 155 147 145 133 128 117 116 106 102 97 92 87 85 73 79 67 63 83 96 106 113 111 109 107 102 101 75 39 81 121 80 70 62 78 70 74 71 70 71 70 73 69 71 70 68 72 74 65 71 74 69 89 139 130 96 132 70 10 100 116 123 118 119 121 115 106 93 67 69 80 100 122 121 125 131 126 133 150 153 147 153 153 154 161 145 146 145 145 140 150 138 144 141 133 138 118 117 119 104 95 84 87 79 68 70 75 65 67 77 99 103 113 113 117 106 113 97 102 80 56 51 120 103 65 67 70 70 73 67 70 74 69 68 71 72 68 69 72 72 65 74 67 76 107 147 119 93 150 62 16 109 116 120 121 121 118 112 107 102 80 62 68 73 96 96 100 113 121 119 133 138 133 139 143 133 147 137 137 133 135 142 132 138 130 129 129 122 113 108 99 86 69 77 74 74 76 73 64 70 83 94 115 114 111 114 111 116 108 99 101 67 85 34 100 120 76 62 73 72 73 69 69 70 68 71 69 66 71 67 71 67 72 66 72 74 121 159 104 114 163 62 21 111 118 119 123 121 119 113 108 103 94 79 66 56 70 74 82 87 100 109 108 114 115 117 119 122 124 125 127 128 134 123 125 124 116 119 120 104 95 82 73 70 72 74 80 77 66 69 70 84 103 110 116 118 110 112 116 111 102 102 107 41 102 51 76 126 89 54 86 74 68 71 70 70 69 72 70 72 70 70 72 68 73 70 67 74 136 155 95 131 175 71 18 107 122 124 119 115 120 122 107 105 95 97 73 68 60 63 61 71 80 83 83 88 97 95 98 100 102 104 112 109 110 113 109 109 109 103 99 82 65 65 74 81 81 83 82 68 65 74 91 106 108 120 115 118 114 115 118 104 103 107 111 25 110 79 62 115 111 50 85 95 84 79 71 70 69 69 69 69 71 71 69 71 70 69 70 72 144 140 106 149 175 95 12 106 120 126 118 112 125 120 111 108 100 98 82 75 63 64 57 58 59 67 68 68 74 74 79 77 85 87 88 87 92 90 83 85 84 74 68 61 67 79 82 79 80 72 67 65 77 99 106 118 114 116 112 119 116 117 108 109 106 113 109 22 101 102 58 104 118 63 62 87 94 88 80 82 74 72 67 70 67 69 70 68 70 70 70 68 148 129 107 159 172 110 7 96 126 127 123 115 119 116 111 112 107 97 92 79 67 68 58 62 56 48 61 67 65 64 66 66 77 67 70 70 66 66 65 61 64 59 64 72 77 74 81 65 71 60 74 90 105 115 117 122 116 116 121 118 118 116 113 110 106 115 107 29 85 119 55 91 122 78 46 102 93 85 83 86 90 84 83 83 79 72 75 64 73 67 70 68 