P2
92
112
255
113 109 113 108 112 113 111 111 113 113 115 110 114 111 114 109 114 109 115 110 110 110 114 111 111 112 120 90 55 52 50 50 52 48 50 54 50 59 57 63 74 61 49 58 53 53 49 54 59 50 55 56 66 53 64 56 62 58 64 73 69 69 42 61 82 104 103 110 106 107 108 105 111 110 110 105 106 107 108 106 104 107 108 107 105 105 106 106 107 105 107 106 110 111 112 110 108 110 112 112 110 111 115 110 111 108 113 111 112 112 112 111 112 114 112 114 102 96 83 47 45 51 55 57 57 58 64 54 51 44 51 52 64 70 61 71 58 59 53 58 68 65 74 69 74 69 72 65 60 65 64 76 64 55 60 50 47 74 96 104 110 106 111 105 107 109 106 108 106 108 106 108 107 106 108 108 107 107 107 106 104 108 104 107 110 112 111 112 111 113 111 113 113 111 111 112 112 110 112 112 112 112 111 114 110 112 115 102 63 42 41 52 53 56 48 55 57 57 80 71 66 72 63 65 73 67 74 72 76 80 61 68 76 75 78 80 86 80 78 77 75 73 70 81 81 64 68 67 55 61 74 90 105 109 105 106 107 109 107 112 108 106 107 108 105 108 105 107 104 108 104 107 105 105 105 106 113 109 114 112 111 114 108 114 111 112 112 112 113 110 109 110 108 113 109 111 112 115 102 49 44 50 68 65 50 46 57 58 62 67 80 88 72 76 70 76 76 80 81 78 79 77 72 73 75 89 82 74 87 78 85 76 77 82 80 82 82 79 77 70 67 81 71 69 88 101 102 107 108 110 105 110 112 105 104 109 101 107 106 108 107 107 105 110 101 107 104 104 110 110 110 110 113 111 112 110 112 110 113 110 112 110 112 110 112 110 113 112 112 111 73 58 75 75 68 60 58 52 60 50 57 61 71 72 88 75 76 57 64 68 75 75 79 69 75 69 75 70 65 77 73 62 71 80 79 69 80 83 77 78 84 75 71 82 81 69 65 72 71 92 101 105 106 107 107 107 102 110 105 101 101 99 104 106 105 108 102 110 102 105 111 111 111 109 112 114 109 110 111 110 113 107 112 112 110 111 112 112 112 111 109 96 81 74 83 85 79 66 55 54 70 65 74 54 59 63 71 69 69 61 59 68 60 65 71 58 66 66 71 72 59 71 76 69 61 64 81 85 67 73 77 68 79 75 70 81 82 79 65 66 61 58 76 75 77 91 102 106 102 105 105 107 99 96 95 109 105 106 107 105 102 104 112 110 111 110 111 114 109 110 110 111 112 108 111 112 110 109 111 114 108 101 80 78 74 67 69 82 81 50 49 60 82 80 84 68 61 57 56 56 56 72 67 73 61 57 73 69 64 50 56 65 60 65 68 70 61 66 75 86 85 71 69 66 60 68 74 75 77 86 74 65 69 59 55 52 44 52 68 100 103 104 103 108 101 102 91 93 104 106 103 105 105 102 112 109 113 108 113 108 112 110 110 111 111 110 111 109 111 111 111 108 97 83 68 71 61 56 59 76 83 61 61 56 75 78 83 78 80 76 58 47 48 84 84 85 81 83 77 70 73 61 59 61 51 43 64 55 61 68 95 95 85 82 89 75 59 58 65 57 75 80 77 61 60 55 56 65 48 53 38 64 99 104 102 108 105 106 104 81 86 102 106 101 109 99 105 114 108 111 111 112 110 109 112 113 109 111 111 110 113 112 111 89 85 90 63 48 48 45 51 66 83 81 76 55 63 76 80 78 74 77 83 65 51 69 60 62 67 74 69 60 75 77 67 59 53 37 50 60 61 77 65 57 71 85 88 76 67 71 67 70 50 60 77 77 51 49 52 50 56 51 53 37 69 95 100 101 104 99 108 86 62 90 109 97 101 102 112 109 110 114 111 112 113 108 109 111 110 112 111 110 111 109 90 81 88 66 60 34 44 39 51 79 82 74 53 52 61 71 80 79 66 72 77 81 90 80 74 67 69 56 61 56 56 52 62 59 63 45 48 52 77 77 78 81 58 58 69 81 69 62 63 75 79 56 51 72 73 47 47 44 55 44 47 49 56 53 82 92 101 102 99 90 63 75 108 103 93 103 115 111 110 114 111 111 112 112 109 113 108 113 109 112 117 82 77 88 82 51 47 37 44 46 61 91 83 54 45 50 65 86 92 84 61 56 55 70 82 84 77 76 67 58 56 57 55 38 37 50 50 56 63 44 57 72 80 83 85 79 60 64 81 72 54 59 68 74 56 62 59 78 40 40 47 50 41 52 45 44 35 67 85 92 94 81 78 65 99 99 98 99 112 110 109 112 112 111 109 113 110 110 111 108 110 118 106 71 77 88 74 53 48 45 50 48 72 92 91 60 54 61 59 71 70 63 55 65 57 61 58 49 48 59 54 50 40 58 48 47 42 51 44 36 46 56 68 78 82 70 75 72 67 56 67 66 66 68 55 51 60 59 52 70 71 28 39 55 35 48 47 39 25 38 54 74 84 84 85 63 94 88 98 101 110 113 109 112 112 112 109 113 107 114 108 112 110 118 89 63 73 69 56 62 62 49 44 54 74 89 92 62 57 51 49 53 58 58 82 89 67 63 58 72 77 64 58 54 44 38 41 48 46 60 53 49 26 29 47 66 81 88 82 86 71 61 67 69 70 71 63 66 51 56 42 42 73 65 23 49 43 29 52 31 37 51 42 85 79 86 80 60 90 92 99 100 113 109 114 110 111 113 108 114 108 111 110 111 112 103 76 50 56 51 53 77 62 37 43 65 75 86 77 66 53 53 53 52 62 72 84 82 78 83 78 88 97 87 68 70 70 66 56 52 59 56 61 68 62 46 44 44 56 80 84 94 90 75 70 70 74 82 79 64 64 63 57 33 33 66 73 32 41 37 45 31 47 48 57 67 76 75 75 60 83 94 95 100 107 111 113 110 111 110 111 114 109 114 111 102 83 68 53 42 43 56 73 70 49 52 69 64 72 79 72 75 59 51 44 49 50 62 63 77 97 104 101 92 91 78 68 60 74 70 66 56 61 70 73 74 78 62 59 62 66 51 60 81 91 87 69 63 58 62 81 55 66 67 62 46 39 38 72 63 48 55 55 44 48 49 57 64 71 57 65 59 81 90 90 102 110 110 111 112 109 112 111 111 110 113 91 56 54 56 59 32 53 63 67 55 60 67 68 56 68 65 62 55 55 59 46 50 35 52 68 79 90 94 92 76 62 63 66 76 82 79 63 66 56 67 70 73 82 77 77 70 72 57 64 74 73 83 82 79 68 56 60 58 58 61 68 58 47 35 45 60 58 58 66 69 57 50 51 55 57 59 54 67 62 73 98 102 113 110 111 111 110 112 112 111 112 81 43 43 64 65 65 44 61 54 44 61 56 65 50 55 52 48 49 68 88 85 60 62 44 66 79 61 84 87 75 60 49 50 60 71 64 72 61 62 49 72 78 67 81 84 64 77 51 50 71 76 72 76 71 69 74 67 61 44 38 42 48 60 63 38 37 37 50 51 68 55 56 49 46 44 48 54 48 55 66 77 75 93 113 110 109 112 110 110 117 104 73 34 52 70 57 74 49 56 50 48 45 56 50 49 43 45 46 54 68 74 74 70 65 61 45 55 58 69 70 63 60 59 57 63 59 58 69 78 68 77 69 77 84 78 81 80 63 67 79 76 63 76 76 78 77 61 49 52 56 55 51 43 36 42 39 48 47 28 34 39 39 60 54 46 44 41 48 46 47 55 43 81 78 81 111 110 110 109 111 112 116 71 45 52 77 69 70 64 45 48 45 56 36 48 41 39 35 45 46 56 54 49 44 48 56 46 41 52 60 60 53 59 59 59 61 67 71 64 64 73 69 77 76 73 80 80 78 82 65 58 77 91 81 77 70 73 71 71 61 45 43 34 47 38 36 36 31 30 41 38 32 28 30 39 49 42 37 37 37 50 46 61 51 50 68 92 109 110 111 108 113 114 92 52 55 61 67 62 63 47 40 38 40 40 35 45 35 32 34 41 45 40 38 32 37 44 45 39 40 49 49 48 45 50 53 56 55 61 64 70 75 79 80 91 85 85 85 79 72 64 59 46 38 62 79 82 84 74 67 63 62 57 47 41 35 40 30 30 30 26 24 29 33 33 24 25 38 39 38 34 39 50 51 57 72 34 55 85 113 108 109 112 114 89 58 44 46 47 47 48 44 36 30 36 35 28 34 34 30 30 33 41 33 29 32 27 35 42 39 33 42 45 45 39 43 47 39 53 42 59 58 71 66 81 77 88 76 86 92 91 74 64 56 48 40 36 70 83 73 76 76 72 56 53 57 40 41 37 37 27 32 34 33 19 20 33 32 19 21 46 30 27 33 55 55 46 63 59 42 80 114 111 113 110 73 42 41 42 36 43 58 52 30 31 31 26 28 26 38 26 32 28 34 34 32 22 28 27 33 40 31 40 39 48 47 43 55 61 63 70 62 64 63 56 71 78 79 77 76 76 68 61 53 53 44 39 45 44 58 80 86 73 74 58 52 53 46 42 39 36 41 39 30 27 30 25 20 27 37 23 25 22 38 29 24 53 47 48 47 53 44 62 109 112 100 60 41 35 32 38 40 54 52 37 24 26 23 27 28 32 33 31 25 33 34 24 28 30 25 33 33 36 37 36 39 55 64 70 79 78 83 81 86 82 75 77 75 70 73 75 67 57 46 55 53 57 56 55 42 37 41 53 80 78 75 65 60 56 50 49 51 53 48 44 46 44 37 35 31 30 31 24 24 27 27 31 30 36 48 46 48 45 46 54 115 96 52 47 31 32 34 38 36 42 32 31 18 24 36 56 39 34 35 24 28 30 32 26 35 31 33 34 31 42 35 29 50 82 96 98 95 93 90 88 91 91 87 89 93 81 86 85 88 80 75 78 70 72 65 54 39 41 44 53 64 78 85 72 64 58 57 49 61 46 44 34 32 47 37 36 32 27 31 25 22 28 23 31 32 34 41 43 46 52 38 44 94 44 33 42 29 33 39 32 28 28 24 21 33 34 60 50 44 45 29 21 22 26 33 31 39 43 34 41 40 62 34 15 101 113 113 115 120 119 118 112 109 117 114 119 123 116 117 112 111 112 114 117 113 105 91 70 53 41 46 60 68 67 68 68 67 65 63 59 56 52 39 38 41 36 31 34 36 29 28 35 24 31 21 30 30 39 38 43 51 51 40 32 43 21 33 33 39 30 30 27 28 18 20 29 43 48 45 37 46 35 25 22 24 28 37 46 53 58 44 51 50 80 43 41 122 125 120 127 133 137 147 147 149 158 151 152 152 152 152 153 154 150 151 152 152 145 133 114 88 67 66 70 81 74 72 69 65 60 64 56 59 67 60 62 52 58 46 45 45 35 35 33 28 27 22 28 26 38 42 45 55 60 38 32 17 28 31 38 29 28 28 30 23 21 29 41 35 38 44 35 32 26 29 23 29 37 50 67 74 73 75 73 79 95 55 81 131 131 135 137 148 156 168 171 173 182 177 173 169 164 165 168 166 166 159 155 156 158 153 148 123 110 87 84 85 81 70 75 67 65 68 69 64 65 68 72 70 59 49 49 31 35 27 27 23 25 27 24 26 36 30 43 48 45 55 28 22 28 34 35 19 27 31 27 22 27 27 36 27 30 35 29 27 27 27 34 42 55 68 90 105 108 116 123 128 126 107 115 132 138 144 158 171 177 185 186 183 188 190 189 184 174 168 168 169 170 167 165 161 164 161 154 149 140 122 104 96 89 83 79 73 69 76 84 74 76 78 82 79 74 32 27 24 24 24 22 23 22 25 26 25 29 28 47 58 37 56 46 31 32 33 30 19 28 24 22 34 24 26 28 23 31 28 28 26 36 41 63 74 87 101 114 129 147 158 164 169 168 172 153 147 160 176 183 185 187 192 193 191 195 198 196 195 188 187 173 176 175 171 168 166 168 168 162 161 158 149 136 118 104 95 90 86 77 91 88 87 88 84 79 84 85 57 26 21 20 28 25 24 20 24 27 27 30 41 29 61 52 45 47 27 33 35 24 28 19 27 27 26 24 19 26 36 30 32 35 45 43 68 92 99 115 124 141 159 163 165 166 175 181 186 182 181 187 190 191 189 192 195 195 197 197 198 199 199 198 194 186 185 182 182 179 174 176 172 167 169 170 163 159 147 135 121 117 102 103 103 106 109 97 95 97 95 89 76 53 24 15 24 23 25 23 30 27 28 39 42 42 41 54 41 32 35 30 29 26 28 22 25 23 19 22 21 39 37 36 36 35 40 55 64 87 108 125 139 154 166 160 167 170 173 180 186 189 189 191 191 192 193 197 193 197 199 200 200 199 201 197 198 192 191 185 186 187 179 181 175 173 175 178 172 164 157 157 145 146 128 124 121 117 108 105 96 101 95 90 86 68 55 24 24 17 24 31 18 29 27 40 40 35 52 42 40 30 32 25 26 31 26 24 25 18 20 25 34 35 37 29 32 30 40 57 76 91 112 134 150 157 163 167 169 174 175 181 190 191 190 191 192 194 195 199 197 197 201 199 199 200 199 199 197 197 194 194 193 190 188 183 181 176 178 181 180 175 176 168 164 159 150 147 142 137 129 123 116 117 110 102 98 85 69 60 27 15 23 33 20 31 29 37 43 32 49 51 33 34 32 24 24 31 24 24 23 19 29 32 36 23 28 23 24 32 41 57 74 99 112 137 149 155 167 167 172 175 176 187 193 191 191 192 197 198 195 199 198 198 200 200 198 200 201 198 198 197 197 197 196 193 194 192 187 185 185 184 186 188 183 180 172 167 160 157 160 153 151 149 137 139 127 123 118 104 86 78 54 10 24 32 23 36 33 36 49 42 36 53 37 38 28 25 27 20 28 23 28 23 33 27 20 28 24 26 34 34 47 62 84 116 121 144 155 163 167 168 173 180 184 189 194 195 193 197 199 197 198 198 199 200 201 199 196 201 202 199 196 200 200 199 195 195 195 198 194 188 192 191 191 190 191 187 174 178 169 163 168 164 162 163 153 150 141 131 131 121 107 94 83 20 29 31 31 29 41 41 61 56 28 49 36 31 31 26 25 23 33 28 25 32 24 23 23 31 27 30 34 48 54 67 90 113 129 139 152 164 171 170 174 183 188 189 194 194 197 199 200 198 196 199 198 199 201 198 200 200 200 201 197 199 197 199 197 196 196 196 194 192 195 196 194 192 193 191 186 185 179 179 173 171 168 164 160 156 149 136 133 128 116 100 92 59 20 40 40 34 43 49 51 70 32 50 34 16 35 23 29 29 28 29 33 30 22 30 28 29 35 36 35 46 59 77 98 117 129 142 159 170 176 175 175 184 188 192 194 197 196 197 198 200 198 197 201 200 201 199 201 201 199 201 196 200 196 198 196 197 197 194 194 193 193 198 194 196 194 193 190 190 184 183 179 172 169 167 157 159 151 143 133 129 122 114 99 72 34 37 50 44 43 56 42 58 52 43 38 6 43 28 32 34 27 29 23 25 31 29 31 28 31 31 32 48 59 82 97 114 129 141 161 171 175 177 175 182 187 192 194 198 196 198 199 199 200 199 200 202 200 197 201 202 199 200 197 199 198 198 199 196 195 198 194 194 194 197 197 195 198 188 190 190 190 185 187 177 171 168 156 158 152 148 137 136 129 117 113 80 30 37 56 55 47 49 39 48 47 43 33 9 60 32 37 33 33 30 28 33 30 31 28 28 28 33 36 55 63 76 96 112 134 152 161 171 175 178 179 183 187 193 194 194 197 198 198 199 199 199 200 202 200 200 201 201 201 200 200 199 199 200 197 197 197 195 194 194 195 195 197 195 196 191 190 192 187 187 188 183 179 171 162 157 155 148 141 132 133 126 118 95 43 22 58 53 42 39 35 47 43 39 30 22 72 35 31 35 34 27 33 30 30 28 26 29 29 36 43 53 59 82 103 122 132 151 162 172 175 178 181 185 190 190 196 192 193 198 197 196 200 201 199 197 201 199 201 200 200 201 199 199 197 198 198 195 196 195 194 193 197 193 196 195 197 193 191 194 189 186 188 184 181 176 163 162 154 151 144 141 134 131 120 105 65 16 50 46 42 27 41 47 34 36 34 24 71 44 30 33 33 28 34 25 30 25 23 29 30 35 40 50 71 82 106 122 136 152 167 169 174 177 180 183 190 189 193 195 194 196 198 195 201 200 199 200 201 199 200 201 199 200 200 198 198 196 199 196 197 195 194 193 195 195 195 197 192 193 193 192 193 191 186 187 183 182 171 163 160 152 147 142 135 131 123 111 73 25 34 50 35 31 42 33 33 34 27 27 68 44 34 28 32 28 32 28 28 27 26 32 32 37 40 59 70 80 100 118 137 153 164 169 175 174 180 183 188 189 194 194 195 198 197 199 200 200 200 197 201 199 199 200 198 201 200 197 196 195 198 195 196 195 193 194 194 197 195 196 193 193 194 193 192 191 188 187 182 178 182 168 166 153 144 140 138 134 129 111 81 34 18 43 37 37 35 26 32 31 19 26 77 35 36 31 31 27 29 27 25 21 23 32 29 43 44 60 57 83 107 123 140 156 162 164 174 175 181 182 187 188 191 193 196 197 199 199 201 193 197 200 200 203 201 199 200 199 200 198 195 197 197 194 194 193 196 198 196 197 195 198 194 195 192 197 194 193 191 186 184 181 179 178 166 156 144 143 138 134 130 114 92 41 15 33 38 31 25 24 24 32 17 23 75 44 33 33 33 26 25 25 20 23 31 32 31 45 47 53 61 86 114 141 147 158 162 162 173 171 181 185 189 188 189 195 193 194 198 200 200 199 197 199 199 202 202 200 200 200 200 198 197 198 197 192 193 192 192 197 196 197 197 196 194 196 195 193 194 194 190 188 182 185 177 180 172 162 147 145 132 134 123 117 99 54 19 18 43 27 25 19 23 30 18 36 75 55 26 32 38 29 22 20 25 28 31 34 35 42 46 55 68 97 125 146 150 158 159 162 167 169 181 184 188 191 192 193 193 196 199 199 198 200 196 195 199 199 200 200 200 200 198 199 197 198 197 193 192 196 194 194 195 198 195 198 198 197 195 195 193 192 190 187 181 180 182 174 169 168 151 143 132 133 125 113 100 57 27 20 35 32 25 18 23 20 29 71 70 54 28 33 31 30 27 24 26 39 31 35 33 39 55 62 79 117 132 150 150 156 161 161 169 171 181 184 190 189 192 192 194 196 199 200 198 196 197 191 195 198 198 200 199 200 196 197 197 197 196 196 192 197 192 196 196 195 195 195 196 196 190 194 195 192 190 185 185 182 180 175 169 167 155 146 134 134 125 108 102 62 24 23 29 38 24 20 20 11 50 109 69 41 38 37 30 24 31 29 31 41 35 36 42 46 52 71 103 130 142 152 155 161 161 157 168 174 182 187 190 190 192 195 193 196 197 196 198 193 195 193 193 197 196 197 197 199 196 195 196 193 196 191 191 197 193 193 194 196 193 196 195 194 193 194 190 192 189 184 185 179 177 175 170 160 157 142 135 134 124 109 104 70 28 28 26 38 25 19 17 13 53 111 59 51 82 104 76 20 28 31 34 42 35 41 51 48 64 102 131 145 146 149 155 161 158 156 174 180 184 187 189 185 189 187 193 194 193 196 194 194 193 189 191 191 194 195 195 195 195 191 192 196 196 192 193 193 190 192 188 194 193 194 195 191 195 193 189 186 190 183 181 180 177 176 171 166 157 144 140 131 126 106 106 67 27 34 27 40 26 22 15 12 89 107 62 89 49 107 143 74 23 33 39 41 42 46 57 68 92 133 148 151 152 154 152 154 149 161 176 179 185 189 180 175 187 187 186 189 191 191 192 189 190 191 192 188 185 192 193 191 193 192 190 195 195 191 194 193 189 192 188 191 193 196 191 193 192 190 188 185 187 177 178 175 174 173 169 166 153 146 140 132 118 108 105 62 28 34 28 34 29 25 15 22 104 102 92 101 43 45 151 111 51 39 39 41 48 51 68 84 117 151 152 155 161 152 153 147 146 165 162 164 172 176 157 153 165 179 178 175 187 182 184 182 182 186 186 185 177 187 188 186 190 189 190 192 196 190 193 190 187 191 189 190 194 192 192 193 189 186 183 182 178 173 173 174 175 172 170 163 156 147 144 132 118 106 101 57 25 36 29 37 26 26 16 44 106 99 116 116 39 35 119 130 66 28 47 43 49 67 80 99 140 162 158 162 165 154 150 144 150 144 130 128 142 143 135 124 136 155 158 159 167 158 165 161 162 167 176 173 178 185 184 181 183 183 187 186 189 191 190 186 187 189 189 189 191 192 189 189 186 181 181 178 179 179 176 175 175 170 164 163 155 151 139 134 118 101 101 49 24 33 34 34 29 21 10 71 101 102 149 120 46 66 119 128 86 55 52 45 63 73 90 134 156 164 162 168 164 153 147 141 134 127 132 125 132 141 141 128 122 136 141 137 139 136 129 127 113 127 126 147 152 163 171 170 171 176 181 181 182 185 183 181 185 183 184 187 189 185 183 183 186 183 177 175 182 179 175 173 173 163 167 169 165 149 144 128 115 103 95 41 20 32 29 32 27 16 25 86 98 97 153 129 61 109 130 125 116 78 63 64 63 81 110 149 162 165 166 166 165 145 142 137 122 127 141 141 134 145 139 132 117 129 132 126 118 101 98 102 97 92 94 94 101 107 121 139 146 161 167 170 176 177 174 179 183 177 179 178 183 175 168 178 176 179 174 179 174 172 170 172 168 168 168 167 167 155 137 133 113 99 94 26 23 30 25 33 26 13 28 92 97 95 168 140 88 129 140 119 127 101 68 64 74 100 119 161 169 163 164 163 162 139 137 129 120 129 137 147 151 156 158 155 148 144 138 132 122 116 108 101 102 95 91 83 82 79 94 106 118 139 147 158 169 167 169 179 182 178 171 171 176 167 156 163 165 157 165 170 166 160 160 155 158 162 163 165 156 155 137 124 120 94 88 21 25 23 25 27 28 9 29 96 97 92 150 149 103 143 150 125 120 111 66 72 93 106 130 166 169 164 162 163 155 136 130 127 119 124 131 132 137 145 143 153 147 146 150 147 147 142 135 131 124 119 118 104 93 93 90 93 96 120 132 149 160 168 177 187 182 177 171 158 153 150 133 138 139 124 124 141 141 140 138 137 145 143 142 146 143 144 129 124 123 94 85 16 22 25 20 27 27 8 46 91 94 90 132 153 114 144 161 133 119 102 65 93 85 114 155 163 166 163 166 160 150 141 146 135 124 131 127 123 115 106 107 100 101 83 71 80 102 63 82 100 107 106 99 111 119 112 107 102 102 116 129 146 164 175 185 191 181 176 157 147 133 117 110 109 101 98 89 96 106 102 113 119 115 117 117 124 125 128 123 108 111 98 74 22 23 20 21 30 22 16 46 89 88 87 114 154 126 147 142 93 107 92 81 83 86 136 164 159 162 167 164 168 161 146 147 144 129 130 121 110 87 83 95 97 92 65 66 33 177 61 75 130 102 128 123 100 101 109 115 112 120 129 139 159 180 184 188 192 189 169 153 141 118 101 94 82 81 74 65 71 68 71 74 84 84 93 108 110 110 113 112 96 88 94 78 20 26 21 23 27 19 17 49 87 81 90 99 145 137 150 129 58 67 106 90 71 98 153 159 157 157 168 161 165 160 159 158 149 138 120 113 113 107 103 109 112 123 75 81 49 60 81 95 164 144 102 122 133 133 118 101 112 120 136 154 175 189 194 194 197 189 171 152 136 110 101 91 85 83 79 79 78 81 82 79 76 79 83 101 111 105 100 100 96 75 85 91 15 30 18 26 27 19 25 52 83 81 84 91 147 147 142 125 73 45 99 82 70 127 153 155 158 161 162 169 162 164 165 175 164 146 127 135 155 157 140 152 149 171 132 92 94 80 94 149 183 170 125 122 110 145 157 131 103 117 147 171 187 197 198 202 199 193 174 149 138 107 93 91 91 85 87 90 91 101 109 114 116 117 112 114 106 103 102 106 93 74 75 93 23 31 29 20 29 19 32 72 88 78 83 71 164 162 136 107 87 49 99 103 112 133 154 151 151 159 160 166 167 170 173 176 176 161 159 172 184 181 175 171 169 171 188 167 153 157 169 180 185 165 152 149 126 135 192 159 107 125 170 179 189 195 203 200 198 198 177 149 133 94 98 118 129 125 118 110 92 77 74 58 80 97 111 120 118 116 109 108 102 73 73 106 30 32 36 23 21 23 53 83 84 79 80 92 182 161 122 96 80 98 141 125 124 140 153 151 150 153 162 158 158 171 176 183 186 176 169 174 181 180 178 182 182 187 181 168 173 177 175 172 178 174 167 177 188 175 191 184 125 150 179 178 183 197 202 196 198 196 171 142 126 96 132 158 129 100 128 92 87 38 153 69 48 78 86 88 92 97 104 109 94 71 75 109 36 36 36 33 28 45 81 76 79 77 82 116 196 170 135 87 91 162 160 128 131 148 149 151 147 150 155 158 161 171 179 184 189 184 175 173 172 178 183 182 171 173 176 168 170 168 162 156 165 165 177 183 175 175 181 172 157 164 180 176 185 195 199 193 197 196 167 138 118 117 152 137 112 116 161 111 83 58 51 66 64 92 115 75 89 59 69 97 90 66 82 108 43 38 24 55 60 71 79 79 79 78 81 138 210 173 142 105 130 182 155 118 135 146 154 151 149 150 155 148 165 173 178 183 191 191 185 174 168 177 187 189 182 182 184 180 177 178 184 188 193 194 196 179 167 172 181 172 173 171 180 172 184 195 197 193 197 197 165 140 121 130 163 157 138 127 152 153 95 78 71 73 78 124 132 87 65 91 49 82 85 72 90 110 46 36 27 68 81 77 76 82 76 78 76 106 209 183 137 122 153 186 145 115 139 147 153 150 145 150 154 154 160 170 182 185 190 194 191 187 173 170 186 184 191 192 191 196 194 199 200 199 201 188 171 172 174 183 181 178 178 176 182 172 180 195 195 191 198 194 155 138 129 119 155 188 167 162 149 167 159 134 110 107 136 139 132 116 90 74 95 84 91 87 93 111 45 26 51 80 75 79 78 80 78 81 76 118 141 178 170 123 143 176 133 120 139 145 153 145 141 145 150 153 160 168 179 187 189 196 199 194 181 180 182 184 189 191 190 189 196 199 196 178 181 171 173 183 187 188 185 177 177 179 180 175 176 194 196 193 196 177 146 140 137 121 137 172 165 165 162 145 159 140 143 147 139 141 126 125 107 93 85 92 104 94 100 110 47 29 68 79 75 79 77 76 75 83 74 157 131 169 192 156 118 164 127 121 132 150 151 144 139 150 145 149 158 165 176 182 189 194 200 194 187 183 188 188 188 192 187 187 188 180 180 174 182 185 191 194 194 187 183 176 171 179 172 172 180 196 196 192 190 167 142 141 135 129 133 154 173 181 177 162 155 147 144 148 148 140 138 127 119 115 90 96 110 103 104 108 39 32 76 81 73 82 75 80 76 80 80 149 149 168 191 179 121 151 124 125 132 150 150 145 141 149 144 146 157 164 170 182 188 191 199 195 189 185 189 187 186 192 180 186 183 177 175 190 201 197 193 200 191 184 181 174 172 177 166 175 180 194 197 191 187 161 146 139 139 134 143 143 165 183 185 181 172 173 158 147 148 144 128 130 121 120 105 109 119 103 109 109 29 43 78 78 77 78 79 77 82 76 81 139 138 139 192 198 163 136 121 125 129 142 147 147 143 147 147 148 159 165 169 180 186 185 192 197 189 187 188 183 181 191 185 187 191 188 192 199 201 199 195 197 192 180 181 175 175 168 170 167 182 193 193 194 184 161 141 141 134 131 147 161 155 177 190 182 163 183 179 176 160 152 138 130 126 115 113 120 119 108 109 94 32 63 79 77 76 78 81 73 81 79 75 97 149 148 155 198 191 129 117 123 136 132 149 143 146 151 148 149 160 160 169 177 183 179 184 189 189 191 188 187 188 189 194 189 198 195 199 198 198 198 197 197 185 178 178 171 171 173 168 171 183 192 195 195 182 162 136 135 137 128 146 158 162 160 179 173 162 165 175 167 164 160 138 130 123 116 127 120 124 109 103 93 44 73 76 78 76 80 77 77 74 79 77 78 141 180 168 168 170 126 112 127 128 133 137 142 145 156 149 155 159 165 166 173 175 168 178 185 183 187 189 188 193 194 192 195 198 197 200 199 198 195 195 196 181 173 169 157 163 172 171 166 179 196 198 194 179 157 134 131 135 127 146 153 170 165 173 173 165 158 155 151 148 150 134 122 122 128 134 127 122 105 95 89 62 74 76 78 75 81 77 78 75 80 79 60 132 169 173 169 157 128 112 133 125 133 133 139 144 153 155 159 145 167 167 169 174 168 176 180 180 181 190 187 191 194 193 194 198 198 198 201 197 196 191 189 181 171 158 143 164 176 168 163 176 193 203 199 186 147 133 127 132 128 141 154 162 175 172 170 172 164 158 145 148 150 136 132 130 135 141 123 119 104 90 90 64 72 76 78 74 76 80 74 75 77 80 56 100 147 159 158 144 120 113 127 131 126 131 130 140 151 158 157 146 159 168 166 175 170 173 173 176 178 186 190 189 196 194 196 197 199 199 197 195 195 193 186 177 153 143 146 175 174 174 167 175 194 200 200 185 144 132 129 119 135 144 154 171 172 176 173 170 165 170 139 149 149 139 142 141 144 141 127 114 98 92 86 65 78 73 79 72 80 80 76 77 76 78 71 68 112 130 134 109 110 117 120 127 132 122 129 136 151 163 163 159 169 161 167 176 171 174 177 176 183 185 186 191 194 196 195 195 195 195 194 194 193 192 182 162 148 153 156 176 178 173 166 183 198 195 196 190 151 134 135 112 137 143 160 174 175 178 171 177 169 165 150 152 155 141 149 151 142 135 122 111 90 91 83 67 75 74 79 78 78 79 77 75 79 77 70 74 73 86 100 70 80 116 124 130 126 124 120 140 144 164 158 165 159 167 164 173 167 170 179 175 179 187 188 190 196 193 192 193 193 196 191 190 189 187 176 141 154 159 161 173 171 165 171 185 203 197 195 188 158 132 142 112 135 152 163 175 181 182 174 177 173 167 159 159 155 144 146 147 141 132 121 105 88 92 76 66 76 78 78 75 78 77 78 76 77 79 75 74 73 71 80 59 52 121 121 126 125 126 114 136 144 159 164 160 163 170 167 166 163 170 182 182 180 185 191 192 195 192 190 188 192 195 193 188 185 181 163 136 157 160 159 166 155 154 174 188 198 199 190 189 167 129 141 119 135 156 165 176 182 180 178 182 173 171 162 164 161 154 145 142 140 125 122 96 89 86 65 72 74 81 77 77 78 79 73 78 77 80 71 71 80 73 76 68 66 116 117 127 131 122 118 131 139 153 162 161 164 175 170 173 167 172 178 179 182 185 192 193 191 191 193 187 192 190 192 188 183 176 156 129 150 154 144 144 131 118 150 177 175 166 175 169 168 132 126 117 141 162 168 178 179 180 175 176 172 172 167 166 161 152 142 137 125 124 112 97 82 96 64 72 75 76 76 78 76 86 72 76 77 77 73 72 74 78 70 74 67 108 120 124 131 122 119 125 137 149 161 161 168 174 172 176 177 174 176 173 185 186 189 192 190 191 188 190 188 186 183 182 174 181 156 113 135 143 126 90 116 115 111 139 140 134 143 151 126 109 111 118 135 163 174 174 178 176 178 171 170 164 162 159 154 148 137 137 122 122 112 87 77 123 65 77 75 79 76 74 81 76 77 82 70 78 74 72 75 74 74 74 62 103 116 124 128 123 117 119 132 137 155 164 167 174 176 178 172 175 177 178 184 186 185 189 187 188 189 183 185 183 174 177 175 187 161 106 107 118 99 27 42 98 109 107 105 106 109 115 101 88 104 115 150 161 172 176 179 178 178 173 170 166 159 158 145 140 131 126 120 116 106 79 82 113 67 75 72 78 79 77 78 75 77 77 78 78 75 71 78 73 74 75 62 92 119 118 124 129 122 120 126 136 148 165 169 175 176 175 176 175 178 179 184 186 187 183 188 182 186 183 178 180 175 179 186 185 181 133 97 103 102 59 50 66 74 87 84 77 80 78 64 75 94 125 154 158 171 176 177 175 168 170 165 161 152 152 140 135 125 122 117 114 101 78 87 77 70 74 76 78 76 78 77 75 76 81 75 79 75 71 78 71 76 73 65 86 109 123 126 125 125 120 124 131 145 160 171 175 175 180 174 173 181 178 184 185 184 182 186 182 182 180 179 180 180 186 193 189 192 183 143 97 92 87 89 79 62 70 65 60 58 62 66 72 100 142 156 157 168 175 175 172 164 164 156 152 147 147 133 128 124 112 114 112 94 78 102 64 75 75 76 78 75 77 77 75 81 71 79 80 76 75 77 70 78 71 71 72 109 114 120 124 127 120 124 133 148 160 169 170 175 179 176 172 179 178 182 180 181 182 185 183 177 183 181 178 182 186 189 188 190 187 190 180 155 124 134 134 112 101 99 88 60 67 79 107 134 156 158 163 163 168 176 172 166 158 149 151 144 137 128 121 121 107 113 107 85 80 98 62 76 76 77 76 78 75 75 74 79 76 78 80 71 72 76 74 72 75 76 65 105 106 117 122 127 126 123 129 143 156 168 163 172 177 175 180 177 180 183 178 178 175 176 185 178 181 184 185 186 188 184 182 182 171 170 168 165 145 147 164 153 134 142 128 106 115 134 142 151 154 155 161 162 167 170 168 169 152 152 139 139 132 120 121 118 110 116 106 75 90 85 66 78 72 78 75 78 76 77 79 75 80 75 79 75 72 72 74 72 76 74 67 89 109 113 122 123 130 133 122 134 152 162 165 169 171 171 172 178 180 180 182 178 179 169 182 178 181 184 187 182 181 179 175 179 167 157 156 160 148 147 166 148 148 151 131 115 122 138 147 149 153 154 160 161 169 163 165 164 152 150 138 130 126 119 118 116 115 114 101 74 82 70 75 74 74 74 77 75 79 76 78 74 77 76 73 77 72 74 70 73 73 74 69 79 99 112 118 117 128 134 127 130 148 148 168 159 169 175 170 176 179 175 176 175 177 171 173 180 180 181 178 169 178 173 165 170 165 160 153 166 155 165 165 146 163 164 139 117 121 129 143 143 150 155 155 156 162 159 164 160 151 144 135 129 124 119 117 112 118 115 87 78 67 73 75 72 78 74 79 77 76 77 74 77 76 74 76 72 72 75 71 75 74 74 74 69 93 97 114 122 121 135 130 130 148 153 165 160 165 169 172 181 175 178 174 169 171 175 168 172 182 176 169 169 168 162 168 163 149 152 159 165 174 187 178 162 172 180 162 130 122 125 134 138 138 152 147 150 154 160 155 152 144 142 134 125 122 120 113 118 116 108 79 71 71 78 74 79 74 75 79 75 75 78 79 71 82 77 75 71 75 71 75 73 73 74 72 72 74 98 109 120 126 128 130 132 141 151 157 155 160 166 170 175 173 172 171 170 162 166 163 171 180 174 167 166 159 161 163 165 162 156 166 176 174 189 186 173 185 191 183 142 127 128 130 129 134 138 147 135 148 150 149 148 142 138 125 126 123 118 122 117 115 96 69 70 73 74 76 77 76 75 78 74 78 75 78 77 74 77 77 67 76 72 73 72 73 74 73 69 71 90 101 113 124 129 129 128 140 140 154 153 155 162 166 169 172 170 171 164 163 161 157 174 174 173 169 166 160 157 161 161 170 168 164 176 170 162 184 185 187 181 166 152 141 128 123 122 130 134 136 133 144 139 143 145 142 132 123 123 119 122 119 114 104 80 71 73 74 75 73 79 73 79 73 76 78 76 76 79 73 77 77 72 77 69 75 76 69 75 70 75 67 83 92 98 123 130 132 135 129 138 149 152 154 162 163 167 167 166 163 160 157 163 166 169 174 166 163 168 153 155 156 155 159 157 138 134 119 104 124 152 149 129 110 119 140 131 122 124 127 129 135 131 139 137 138 141 140 130 124 117 122 122 118 108 89 74 72 70 75 75 76 79 72 75 79 73 77 75 75 75 77 76 75 73 72 70 75 72 69 76 73 71 70 93 83 98 107 127 126 133 136 140 146 148 151 155 164 163 164 153 154 153 159 162 170 163 167 167 153 153 148 153 144 142 123 108 94 93 94 93 95 99 94 89 84 80 117 135 125 126 123 125 131 132 133 132 132 130 134 132 121 122 117 121 110 99 78 68 71 74 74 75 75 75 77 76 78 75 75 74 78 72 75 78 71 73 74 70 71 75 73 74 71 77 62 107 81 89 102 119 123 129 138 141 137 147 145 152 152 161 154 156 153 152 165 157 164 160 155 145 125 125 123 128 115 95 73 65 74 73 71 75 80 76 80 69 67 58 81 117 129 134 127 129 135 136 130 127 125 123 132 129 120 119 121 120 104 95 69 68 74 77 73 79 74 77 74 75 76 75 77 72 77 77 76 75 76 73 71 71 75 73 72 73 73 78 57 113 91 78 102 106 123 126 136 144 141 143 146 139 144 152 147 153 153 158 161 154 153 147 131 109 90 80 83 77 59 57 37 75 105 101 77 58 83 85 91 64 46 52 68 89 121 133 131 127 138 135 128 124 119 123 127 131 115 114 122 113 101 87 65 71 72 74 73 78 75 76 73 77 73 75 76 76 72 75 75 75 75 74 72 71 72 72 74 70 78 69 66 109 108 72 91 107 117 125 135 137 143 138 148 147 147 153 154 144 154 154 153 148 148 130 112 100 97 79 82 68 52 67 48 51 84 98 77 76 116 125 140 92 77 36 49 65 97 116 120 126 137 133 125 130 119 119 121 123 115 115 116 109 95 73 66 70 75 71 76 77 76 74 72 76 73 77 75 76 73 72 75 74 75 68 64 78 71 73 72 73 75 71 67 108 116 86 80 95 116 126 131 134 141 135 150 149 161 154 155 152 151 150 151 143 147 141 141 154 175 163 149 147 143 127 120 121 124 108 105 98 78 93 104 87 62 31 19 53 61 81 103 115 133 137 129 127 115 117 121 122 110 113 111 99 96 63 70 72 75 73 72 78 74 71 75 76 75 75 73 76 74 76 69 78 75 72 71 70 72 75 66 75 69 71 62 104 120 105 75 86 111 122 130 130 134 142 147 150 154 154 154 156 150 155 161 148 160 168 188 181 186 177 164 159 157 159 159 160 165 156 138 139 135 137 132 117 101 81 82 80 77 68 82 107 123 128 129 123 117 114 119 120 110 108 111 100 81 64 71 75 71 78 71 74 76 76 73 77 77 74 73 74 72 75 72 76 75 69 70 72 77 67 74 73 74 68 57 110 119 112 85 77 99 112 121 129 125 136 144 144 143 153 150 152 152 155 157 153 164 171 182 183 179 177 161 155 160 158 154 166 174 169 157 158 167 163 162 155 143 122 125 124 120 129 112 122 119 122 121 123 119 114 119 118 105 107 105 95 73 65 74 74 73 76 72 74 75 76 73 74 76 74 74 76 76 74 76 72 72 76 68 74 74 68 72 72 69 68 69 114 117 115 97 85 83 110 123 128 125 126 144 140 136 145 142 147 150 146 151 156 156 165 170 176 173 167 163 146 149 156 150 147 152 154 156 156 163 163 157 150 146 138 137 124 131 152 142 134 133 125 120 120 122 118 115 114 104 107 101 84 62 71 72 71 76 74 74 73 73 75 72 75 71 76 73 73 77 74 73 74 75 73 70 71 73 68 73 70 69 70 97 113 113 112 110 97 75 94 116 120 120 120 134 140 132 139 133 135 145 141 153 160 155 149 167 170 164 167 162 148 135 136 132 131 134 134 139 144 140 145 136 133 132 132 128 125 139 152 154 136 128 128 122 118 123 117 109 107 104 109 96 67 66 66 76 70 74 74 75 71 76 71 79 70 77 74 74 75 71 77 68 77 73 72 72 69 72 71 69 71 80 108 115 111 113 116 112 107 82 82 103 119 111 120 123 129 128 134 126 136 137 134 145 154 154 158 159 166 159 162 157 146 125 116 105 98 100 99 113 123 113 107 109 114 113 113 125 129 138 145 146 142 130 124 121 118 124 118 107 105 102 105 81 57 67 73 72 73 71 72 77 73 72 75 73 76 74 72 77 72 77 69 76 72 73 72 71 70 67 72 67 83 118 108 101 118 113 112 117 107 95 78 86 110 109 109 119 120 117 126 125 131 136 132 143 148 145 159 155 159 161 160 160 152 143 122 108 101 93 89 79 83 84 85 92 95 101 117 122 131 138 144 137 136 133 123 121 122 118 116 103 104 98 90 69 60 70 71 74 70 74 74 74 71 72 74 73 73 75 73 75 70 75 75 70 75 73 69 72 68 70 64 84 124 127 74 103 120 113 115 114 115 105 90 70 93 101 112 117 111 114 121 127 129 139 134 136 138 144 153 145 149 154 162 166 159 154 145 130 122 112 107 108 104 109 109 113 118 115 125 125 135 136 135 128 130 126 124 122 114 109 110 99 101 97 78 57 68 66 71 71 73 74 73 74 71 72 74 74 72 76 70 77 70 72 76 69 73 75 69 70 73 59 80 136 133 89 45 117 124 113 116 115 115 110 101 79 68 90 100 112 111 113 120 126 125 134 139 141 150 140 151 146 151 155 162 167 165 165 164 156 151 139 134 128 132 125 129 129 133 129 130 129 133 128 127 126 121 118 112 116 116 105 95 102 93 93 59 64 65 69 70 70 72 75 67 77 68 74 75 71 74 72 72 71 71 72 71 69 78 71 69 70 60 62 137 143 107 46 54 127 124 112 114 118 118 116 105 98 69 74 83 99 98 115 108 121 140 136 143 148 151 148 150 158 173 168 166 172 174 175 176 181 177 175 167 155 154 147 148 148 144 133 140 133 129 126 122 120 117 115 114 106 109 97 95 90 86 81 61 65 65 76 72 70 77 73 69 74 69 74 76 70 76 69 72 74 72 73 70 72 73 72 72 68 52 100 161 128 92 23 74 132 123 116 118 114 122 113 112 107 88 72 68 85 93 102 108 115 134 137 145 147 150 151 159 163 165 167 162 165 176 179 179 182 177 178 176 170 167 168 164 157 151 143 138 133 124 129 123 115 114 115 111 106 99 92 90 83 80 86 62 62 68 73 71 69 70 73 72 70 72 70 75 70 72 73 72 72 73 73 71 69 76 76 71 59 61 146 141 116 73 18 105 129 129 113 120 117 115 120 112 113 97 82 69 69 79 84 104 109 130 128 147 141 153 151 160 162 163 172 166 174 178 178 178 183 175 174 175 175 173 176 173 160 160 151 143 138 127 127 126 119 113 117 104 105 90 88 86 72 84 88 71 64 69 69 74 72 73 70 72 71 72 72 72 72 70 70 72 72 71 75 71 73 75 72 70 49 92 165 122 120 50 25 128 127 125 119 117 121 113 114 120 113 107 84 72 64 67 65 89 100 116 122 138 138 145 156 160 164 172 168 170 180 184 176 181 182 171 172 179 176 172 174 167 163 166 154 148 147 128 127 128 119 115 113 99 99 86 80 72 76 92 91 85 70 68 69 73 71 68 73 72 70 73 70 70 73 74 71 70 72 75 72 69 73 72 70 62 50 146 148 126 122 27 50 138 124 129 124 122 119 129 113 115 115 112 102 87 74 61 61 65 76 99 114 126 132 140 151 152 157 167 161 167 175 172 170 175 171 170 165 167 173 174 166 164 161 163 155 142 142 135 126 122 114 114 107 97 85 77 67 72 92 93 84 106 76 68 67 74 70 71 70 73 71 71 71 72 72 69 75 70 75 67 71 69 70 71 73 64 93 158 126 142 108 3 90 134 128 129 130 123 120 124 119 116 111 114 115 92 88 71 54 61 65 75 105 118 130 136 147 154 153 156 164 160 167 169 162 166 156 163 161 166 163 163 165 163 158 159 144 139 140 130 121 120 109 105 91 84 73 67 69 88 102 92 61 104 98 65 68 73 70 73 67 74 70 69 72 70 71 69 72 69 70 69 70 69 66 71 71 94 138 147 123 153 87 20 118 129 129 129 130 125 123 118 126 120 115 111 118 102 97 77 64 59 60 62 79 100 113 126 132 146 147 151 153 150 154 161 157 153 155 149 149 158 156 152 152 150 152 152 132 130 136 131 121 110 104 88 78 64 64 66 83 100 104 92 41 91 112 72 65 67 74 71 71 73 67 71 70 69 68 69 72 71 67 71 71 72 68 72 70 100 152 123 128 160 86 38 131 130 137 131 131 133 126 122 127 121 124 118 110 110 104 91 73 69 56 58 61 82 94 109 115 126 138 139 138 140 141 136 151 152 151 148 148 148 151 150 139 139 140 139 127 124 129 120 117 103 87 68 59 62 67 76 98 104 107 94 45 58 119 90 65 67 71 70 71 64 75 68 68 72 70 70 71 65 75 70 74 70 68 70 73 120 152 104 134 170 66 47 137 133 138 130 137 133 132 128 125 121 120 123 115 110 108 99 82 70 60 63 58 63 69 88 97 108 115 117 122 122 130 125 128 144 141 133 150 138 142 137 133 129 127 128 123 119 117 114 105 87 59 56 60 68 74 92 102 108 102 96 65 36 113 106 67 71 67 70 70 69 70 71 69 72 65 71 72 69 70 68 69 69 68 71 73 137 151 105 149 172 64 60 135 140 133 137 135 140 131 130 127 121 122 123 123 118 108 100 94 80 71 64 53 61 64 68 72 81 96 98 101 104 113 119 117 125 122 121 125 126 122 120 124 121 122 118 115 109 105 103 79 61 59 63 70 72 94 102 107 106 97 94 83 42 87 120 66 73 82 75 68 70 70 69 71 68 71 69 66 69 68 68 70 67 68 72 68 149 135 106 164 168 74 65 140 138 136 140 142 136 134 132 130 127 121 116 125 124 114 107 96 94 76 70 63 58 63 62 72 66 70 77 81 88 96 95 98 102 103 103 104 104 108 102 112 108 111 102 105 98 90 77 59 62 62 72 79 92 106 110 111 98 107 83 102 52 72 124 79 58 91 89 82 78 71 70 67 68 70 71 68 70 68 67 71 66 70 69 68 152 126 120 176 160 83 71 140 141 144 143 152 138 134 139 139 131 126 124 124 127 129 114 102 95 84 77 61 65 65 59 64 72 68 66 67 68 79 72 79 80 82 82 86 84 90 89 88 93 87 86 82 70 66 61 61 72 70 79 93 105 113 111 105 102 112 56 108 67 65 116 91 43 87 77 94 85 75 82 78 69 67 70 64 72 70 69 70 67 72 66 71 