P2
92
112
255
86 87 86 88 86 88 85 87 89 87 89 89 93 95 97 97 94 94 93 88 86 84 83 87 91 92 93 98 95 102 110 107 100 96 90 92 90 82 81 83 80 82 83 87 82 80 77 85 83 83 83 78 80 84 78 80 79 77 75 76 78 82 78 74 73 72 76 81 80 83 86 89 92 91 88 92 93 88 93 89 92 90 87 84 85 83 87 85 86 87 85 85 85 88 85 87 88 84 86 88 87 85 86 87 87 92 91 92 91 88 88 83 80 81 83 88 91 95 95 98 96 99 97 98 99 99 96 92 90 90 88 81 84 78 79 85 86 84 83 85 79 81 83 85 86 88 80 84 84 81 73 73 71 75 73 70 68 69 72 75 76 80 83 88 90 90 89 88 92 94 93 92 90 89 87 86 84 83 83 85 86 86 84 85 86 88 86 87 87 87 85 88 85 85 84 86 86 87 88 84 87 85 81 81 76 84 93 90 92 94 95 95 96 97 99 92 99 105 108 104 99 96 94 85 81 83 86 82 85 86 90 90 87 86 87 90 85 91 87 82 84 79 71 68 66 68 74 70 70 72 75 75 70 73 81 85 91 90 94 92 93 94 94 92 92 89 86 86 86 83 82 84 85 85 86 85 88 87 86 87 88 87 87 88 84 87 90 92 87 90 90 90 87 88 88 82 82 86 89 91 90 88 87 90 92 90 101 101 109 120 113 114 109 103 98 90 86 86 92 89 88 85 88 93 96 87 87 86 87 87 83 82 84 84 74 75 73 68 76 73 73 70 72 70 68 66 77 82 92 92 94 97 94 93 93 93 93 90 91 87 83 83 82 81 84 84 84 86 88 86 86 87 87 87 88 86 90 88 88 93 93 89 88 91 85 84 81 78 79 89 90 86 85 88 90 88 97 101 105 108 114 112 110 102 108 104 101 97 91 87 90 86 90 81 85 87 93 91 89 87 91 85 85 79 82 84 80 80 77 75 79 82 78 73 73 68 68 69 72 81 93 93 89 96 93 95 94 89 90 92 89 90 83 85 81 83 82 83 85 84 87 86 88 86 87 85 86 88 90 90 90 93 92 87 89 85 83 82 75 76 85 89 85 81 84 90 98 102 108 110 114 117 110 115 102 106 98 102 99 101 101 94 95 94 87 85 85 89 90 90 93 87 87 82 83 82 86 87 87 84 83 79 84 85 83 82 76 72 68 73 70 76 87 91 91 85 90 88 89 89 88 85 84 83 84 83 80 83 84 84 84 87 87 88 87 89 86 86 86 88 90 90 93 90 89 86 84 80 80 79 77 77 90 87 82 80 89 95 105 107 107 106 109 111 103 107 102 103 102 99 100 96 103 103 104 98 93 88 91 97 96 93 91 88 93 85 85 82 85 83 81 80 81 81 85 85 80 83 81 78 74 79 75 77 84 85 89 87 84 80 81 85 88 87 86 83 85 85 82 83 83 86 86 83 86 88 87 88 86 85 90 90 93 92 91 91 82 83 86 80 80 82 81 82 84 86 87 87 99 104 111 109 108 103 97 105 102 97 98 97 99 101 102 96 104 104 114 113 96 98 94 95 96 94 89 90 93 88 90 90 84 79 71 76 80 81 81 84 83 82 86 85 84 82 82 76 81 91 89 85 82 76 77 84 88 86 86 83 86 86 83 82 83 83 85 84 88 86 88 91 87 90 91 91 89 92 90 85 81 80 81 79 75 76 87 92 94 95 96 100 106 107 108 111 107 102 101 95 102 93 92 95 93 96 93 95 96 96 100 108 103 100 98 92 94 93 88 90 91 93 95 92 86 79 70 74 78 72 77 78 86 88 85 81 80 79 83 72 78 93 88 79 78 76 79 84 83 85 85 84 85 85 86 83 81 84 85 84 87 88 89 88 88 90 91 90 94 85 87 86 86 86 78 73 72 78 88 91 91 93 98 100 106 107 110 110 113 108 108 108 105 101 98 96 100 98 93 91 94 95 98 105 107 111 110 98 97 91 96 95 100 96 95 86 88 82 71 73 70 73 69 72 83 81 81 81 78 75 78 68 79 92 87 81 74 70 78 83 75 82 81 85 85 86 84 88 85 81 86 85 88 88 88 91 87 88 92 99 87 87 83 89 83 85 77 72 73 77 83 89 88 91 96 99 104 117 116 116 116 117 116 115 110 107 104 97 98 101 95 94 97 102 106 104 107 108 106 102 102 102 108 105 103 98 97 87 89 85 79 78 72 71 72 74 82 77 75 85 80 81 80 81 88 87 85 78 76 70 75 80 78 80 84 85 87 85 85 84 86 83 83 85 87 88 88 88 85 91 92 87 88 87 84 85 82 76 74 74 77 82 88 92 91 96 103 107 112 120 122 124 117 117 118 113 110 108 101 102 103 104 104 100 101 100 101 100 105 106 107 108 111 114 114 112 116 112 99 100 90 87 85 84 82 80 78 76 86 79 78 81 83 81 83 85 87 85 82 79 76 75 75 79 79 77 81 84 86 87 85 83 86 84 85 85 88 87 90 86 86 86 88 90 90 89 87 82 75 72 77 76 82 91 98 97 97 100 107 110 113 113 117 115 114 111 111 111 111 110 107 102 104 102 107 104 104 106 103 102 104 105 110 117 116 119 117 122 118 116 108 108 102 91 87 82 86 86 88 87 83 78 77 79 84 85 86 88 88 84 82 82 79 78 69 70 79 79 83 86 83 85 90 83 86 82 84 85 87 87 92 82 86 84 81 91 89 87 88 78 72 71 77 79 90 104 101 100 99 102 108 112 111 113 109 109 107 107 109 109 113 112 110 109 108 105 110 110 106 110 110 112 113 113 116 117 122 118 117 124 121 113 109 113 103 102 99 93 93 88 87 86 84 79 78 83 84 86 92 89 84 80 80 78 80 73 69 66 76 74 81 88 84 84 87 85 85 82 84 85 87 87 86 81 82 82 79 81 86 85 79 70 71 68 84 89 101 103 101 104 101 105 109 108 110 110 109 107 106 101 103 107 105 108 107 110 110 111 110 114 112 113 119 120 119 119 121 120 122 120 119 123 123 118 117 113 106 104 103 100 96 86 88 87 86 86 79 84 87 85 84 85 76 80 80 76 75 77 71 70 74 72 79 81 84 84 85 84 86 80 84 84 89 89 83 79 84 80 82 79 84 76 70 66 67 70 80 94 105 105 105 108 108 108 106 103 105 105 108 108 109 107 105 107 106 106 107 109 113 114 118 121 119 122 124 123 126 126 127 126 120 121 124 125 125 120 125 119 110 108 109 104 102 97 92 88 91 89 86 88 88 92 83 84 83 83 80 79 78 71 68 70 69 73 75 74 77 78 82 83 81 83 83 83 88 86 86 85 81 83 80 81 76 68 62 65 70 73 83 92 102 111 108 111 111 111 108 108 106 109 113 111 111 111 111 115 117 114 115 116 117 121 123 125 127 128 131 128 133 133 132 129 128 124 133 131 131 127 125 125 123 119 117 113 108 107 103 100 94 90 89 91 87 87 96 92 91 87 84 83 77 73 69 66 74 69 75 75 77 75 74 79 76 81 84 83 87 88 82 78 75 79 81 80 73 66 70 66 70 78 93 98 104 107 107 109 112 111 116 119 116 116 118 113 114 117 120 121 124 123 126 127 126 127 129 132 129 135 134 135 137 137 137 136 131 132 139 135 133 132 124 129 131 128 124 122 122 118 114 112 105 98 90 87 85 81 85 91 91 92 84 82 76 71 68 69 70 67 68 71 77 78 77 79 74 78 84 83 86 86 74 71 71 77 77 69 66 65 69 70 79 91 100 106 104 107 108 105 113 119 120 124 129 126 119 114 122 126 128 129 129 131 134 134 138 140 140 141 142 141 141 140 142 141 143 142 133 142 143 138 141 137 130 135 136 137 135 133 133 131 128 121 118 110 101 95 88 86 86 90 92 93 91 87 78 75 67 68 64 67 59 61 71 75 78 80 78 81 83 85 88 84 73 72 69 76 69 66 67 69 66 78 93 99 104 107 104 104 107 110 114 122 125 134 137 126 121 120 125 131 133 133 135 140 139 140 146 147 147 149 152 148 147 144 146 151 147 147 147 148 147 148 147 141 137 142 142 142 144 141 140 138 139 132 127 123 112 102 99 95 96 91 95 99 91 92 86 77 75 75 61 62 61 57 64 73 76 78 79 84 83 83 87 86 74 68 61 62 60 63 65 69 77 89 101 101 106 108 108 112 110 114 118 121 129 135 129 127 128 132 137 142 140 139 142 144 149 149 149 148 153 154 157 155 151 151 153 154 153 157 156 156 149 151 156 144 145 148 149 149 150 148 145 147 145 142 139 133 128 112 106 101 102 102 101 99 96 94 89 83 75 74 67 56 61 60 61 70 72 75 81 82 84 83 89 80 72 58 54 52 56 57 68 81 93 100 108 110 111 115 114 116 116 122 124 122 129 127 129 132 135 142 148 151 150 147 151 155 158 156 156 155 161 160 162 159 156 156 155 160 163 162 163 160 152 160 157 152 154 154 155 154 153 154 152 151 151 147 144 142 136 127 118 109 105 107 110 109 105 98 89 81 76 74 66 58 61 57 62 65 71 73 81 81 83 84 84 78 69 58 48 45 54 63 81 97 108 111 116 117 117 120 119 125 125 128 125 125 129 130 134 139 144 148 155 154 156 157 159 161 162 160 164 166 165 167 168 168 166 164 167 168 167 168 168 161 159 166 159 158 160 159 160 161 159 157 155 155 154 152 149 148 145 136 128 119 109 105 113 106 107 104 96 93 81 75 66 65 55 59 63 67 67 69 79 83 83 85 82 74 65 52 41 50 56 72 89 101 111 114 118 124 125 126 126 129 132 135 134 134 139 143 148 151 155 158 158 161 164 168 167 167 170 173 173 172 176 176 172 173 173 170 173 171 171 175 171 162 167 165 162 161 162 164 165 166 164 161 159 157 155 156 151 152 151 145 138 126 117 104 107 115 103 100 94 93 84 79 73 66 57 57 62 68 66 62 74 82 84 83 75 72 61 45 46 52 69 80 94 105 107 115 124 133 133 135 135 136 140 147 151 157 154 159 164 164 167 170 170 175 177 176 175 177 181 182 178 180 179 179 177 176 176 177 179 177 176 179 169 170 172 168 168 167 167 167 167 167 167 166 165 161 161 159 156 156 153 150 146 135 125 114 100 109 105 98 95 93 84 81 72 71 58 57 62 68 66 67 67 79 83 84 77 65 54 43 51 57 76 81 101 107 110 117 122 133 138 144 143 147 152 160 168 173 172 170 172 173 173 175 178 182 182 181 184 185 186 184 187 184 182 183 182 182 182 182 183 182 182 177 174 177 173 173 172 172 171 171 170 167 168 168 167 167 164 162 160 157 156 152 149 143 134 125 112 103 107 98 91 94 86 83 71 67 67 56 58 65 71 72 64 72 78 84 73 58 49 45 52 62 73 87 102 110 113 119 125 136 146 147 151 155 161 168 174 179 176 173 175 178 180 179 181 183 183 185 185 187 189 189 188 187 186 189 188 185 182 184 187 187 181 179 179 180 175 176 176 174 173 174 171 170 168 169 167 168 167 166 164 159 158 155 152 148 139 135 122 106 106 101 96 93 93 83 81 64 65 65 56 61 70 72 66 70 75 80 64 52 49 47 55 63 78 99 109 112 117 119 130 144 153 155 157 158 166 175 177 178 179 180 179 180 179 180 182 183 183 185 185 187 189 187 188 189 188 190 188 185 185 187 189 184 183 184 181 180 179 178 177 176 174 175 174 172 168 170 168 169 170 169 166 163 160 158 152 149 142 140 131 116 107 102 98 97 96 88 84 75 70 69 59 61 62 68 70 68 73 75 54 52 50 51 61 67 93 104 114 112 119 125 136 148 155 161 159 163 167 173 175 177 179 178 178 179 176 181 181 184 186 184 186 187 188 188 189 187 188 187 187 185 189 188 187 187 186 185 182 182 181 178 179 176 176 176 174 172 172 169 168 171 169 171 167 166 162 159 153 150 145 143 134 126 111 102 102 95 95 91 84 77 69 66 68 60 64 62 69 71 70 73 54 49 50 57 66 79 100 105 107 109 117 130 140 150 156 163 162 166 168 171 177 178 177 179 176 175 176 180 181 182 186 185 185 186 186 186 186 187 190 188 189 188 188 189 189 188 187 186 184 182 180 180 180 178 177 176 175 173 173 169 169 171 170 169 170 167 164 160 155 149 148 144 137 128 118 107 102 98 93 96 84 80 67 63 67 63 67 61 70 69 69 71 50 53 45 62 72 85 96 100 106 109 117 130 139 150 155 164 165 169 173 176 177 179 177 177 176 175 177 180 181 182 182 182 180 180 182 183 183 187 188 190 190 189 189 190 188 189 186 186 184 183 181 181 180 179 178 176 175 175 175 172 171 170 169 171 168 168 165 160 155 152 149 145 139 133 122 109 105 102 95 92 88 81 69 62 63 66 67 65 67 69 68 68 53 54 50 66 75 84 95 99 107 109 116 126 137 150 158 165 168 169 174 177 177 178 179 178 178 175 177 180 181 181 183 184 182 184 184 186 188 189 191 192 191 190 189 189 188 186 187 184 185 184 181 180 181 179 177 176 176 174 175 172 174 171 171 171 170 167 163 159 156 151 148 147 140 132 125 115 107 101 96 91 88 80 71 63 63 59 67 69 65 68 69 67 62 58 51 68 80 87 92 101 105 105 115 124 136 152 160 164 168 171 172 176 178 177 179 178 176 178 176 177 182 181 184 187 187 187 187 187 188 190 190 190 191 189 187 189 187 186 186 186 185 184 182 179 179 179 178 176 176 176 175 175 174 172 172 171 169 166 162 159 155 151 149 147 143 132 134 114 112 102 98 94 89 82 73 66 62 60 63 69 67 66 68 65 64 60 62 69 83 89 100 105 102 105 114 126 139 155 159 163 167 169 173 174 176 176 177 177 177 173 178 182 186 187 187 187 187 189 186 189 190 191 190 190 191 190 188 189 189 186 185 185 184 184 182 180 180 178 176 178 176 177 176 176 177 174 172 170 169 167 161 158 156 150 149 147 142 135 134 124 110 106 97 97 87 83 76 63 66 59 57 68 70 64 64 66 68 57 60 75 83 91 96 97 102 106 114 129 141 151 159 162 168 170 173 174 174 174 175 174 175 180 183 186 188 187 187 188 187 189 187 188 191 191 191 190 190 189 192 189 186 189 184 185 186 184 182 178 179 178 177 177 175 177 176 176 176 174 173 169 168 165 161 160 156 152 149 147 142 140 133 125 116 107 98 98 89 78 76 63 73 57 57 64 70 63 65 65 69 53 63 75 81 87 93 96 98 109 118 135 145 151 158 161 167 169 173 173 175 174 174 176 181 180 182 186 188 188 187 189 189 190 189 188 190 190 192 191 192 191 191 189 188 189 187 185 186 185 181 180 177 180 176 177 176 176 177 176 176 175 172 170 167 163 160 159 155 153 149 146 144 141 135 124 120 110 101 95 97 78 72 66 63 64 60 60 71 60 67 65 65 57 71 76 89 86 90 94 101 111 125 136 144 152 159 162 167 170 171 174 175 175 178 181 184 180 180 186 186 186 187 189 189 190 191 191 191 191 194 191 192 192 191 190 187 188 187 186 186 187 183 178 179 178 176 177 178 176 176 176 174 173 171 167 165 163 163 158 155 152 147 145 146 142 137 128 118 112 101 90 102 79 74 70 56 61 63 61 68 64 62 63 67 65 70 79 90 84 89 96 103 114 128 141 145 155 159 163 168 168 172 173 176 178 181 181 183 183 184 186 188 187 187 188 190 189 192 192 192 193 194 189 192 194 191 192 190 187 184 183 184 184 181 176 175 175 173 174 172 171 174 173 173 169 166 167 162 161 162 157 154 151 148 146 145 141 133 131 120 111 102 94 96 80 67 71 58 58 63 64 71 61 58 64 72 62 73 77 90 83 92 94 101 117 129 142 147 155 162 165 168 168 171 175 176 179 182 181 183 183 185 186 187 185 187 188 188 189 192 192 191 192 193 189 192 193 190 192 188 188 183 180 182 181 175 173 172 170 169 166 169 166 170 169 167 164 165 165 163 162 160 158 156 152 149 146 144 138 132 128 124 107 102 98 90 79 64 66 61 57 60 67 68 63 57 66 69 63 74 74 87 86 88 96 104 121 135 143 150 157 163 166 166 169 173 176 177 180 180 181 182 184 184 185 185 185 186 188 186 187 187 187 188 187 191 188 191 190 188 191 187 186 183 179 179 176 171 170 166 166 162 164 165 162 165 166 162 162 161 160 160 160 158 157 156 151 149 146 145 138 130 128 122 105 102 98 85 80 65 67 59 58 58 66 70 61 58 66 70 64 74 76 76 85 84 93 105 126 135 147 153 159 164 166 168 170 174 172 175 177 178 180 182 181 182 182 182 182 182 182 180 180 178 179 181 182 185 186 186 186 185 188 185 181 179 176 175 174 167 166 166 163 161 164 160 159 161 159 160 160 158 156 157 154 153 153 151 148 149 145 142 137 130 127 125 104 99 102 84 81 68 62 61 58 58 65 68 62 57 61 71 66 74 78 76 84 84 94 107 128 139 148 152 161 166 163 168 171 172 167 172 173 175 176 175 176 175 173 173 174 173 173 169 171 171 172 172 177 178 179 179 182 181 182 180 179 175 173 171 170 168 164 165 162 159 158 155 154 156 152 154 158 153 152 152 148 149 146 146 145 142 139 139 139 130 127 122 106 101 96 86 81 68 61 60 60 58 65 67 68 53 63 66 63 76 79 77 89 88 98 113 128 140 148 153 161 166 163 167 170 167 166 170 171 172 167 166 165 161 158 157 158 158 160 161 162 162 162 164 166 168 170 169 176 180 179 177 177 170 168 167 162 160 153 152 152 148 148 145 145 146 148 148 147 151 149 151 150 145 144 144 148 141 138 136 134 132 126 123 108 97 91 88 74 70 61 60 62 60 64 67 77 58 62 64 69 76 81 73 95 91 99 117 127 141 149 155 157 159 155 160 159 160 161 163 161 168 167 160 156 150 144 139 135 139 138 144 155 162 163 167 173 177 185 184 182 181 170 162 162 160 157 155 151 147 150 150 145 139 131 131 137 141 143 144 142 145 142 144 145 146 142 138 141 137 132 141 132 128 128 124 111 103 85 84 80 72 63 61 59 61 65 65 79 64 61 71 70 82 79 76 94 90 105 119 129 143 150 152 145 152 152 157 160 163 164 164 156 157 160 153 145 150 148 157 159 161 164 164 166 164 159 155 156 160 164 166 169 169 168 164 164 165 161 156 148 150 148 145 140 135 133 128 131 133 134 135 134 136 135 137 142 145 141 138 135 132 127 139 139 124 130 125 111 103 87 79 81 76 65 62 59 66 65 69 78 68 59 72 78 82 73 76 93 91 108 119 131 143 142 146 155 163 159 162 161 162 164 155 150 146 143 135 132 140 138 147 140 141 141 139 143 136 128 129 136 144 150 154 159 159 160 158 153 153 147 135 142 137 140 136 136 140 137 131 151 146 143 131 134 131 127 125 128 133 130 130 129 132 126 132 138 133 127 125 115 102 91 82 80 76 63 58 64 62 68 77 76 72 61 71 88 87 72 78 86 95 109 122 131 139 143 155 158 160 158 158 153 152 154 151 148 142 142 142 140 140 135 134 130 127 128 127 132 135 136 127 132 143 152 165 169 170 166 163 158 158 137 137 148 146 141 136 139 139 133 123 148 143 138 132 133 132 133 130 135 137 136 130 128 118 121 122 135 136 126 127 117 102 92 83 79 71 66 56 64 61 70 84 77 74 59 68 95 87 85 74 82 95 106 126 122 131 147 152 152 154 150 150 152 155 156 155 157 142 158 174 161 139 146 143 136 132 132 136 130 133 134 140 118 146 142 160 158 159 154 153 150 137 131 147 151 145 139 135 134 141 136 123 145 140 128 125 123 123 125 128 130 131 133 134 133 130 131 106 121 135 124 122 109 116 87 84 79 69 64 61 60 73 81 88 79 78 59 76 96 105 91 80 90 86 107 118 116 131 141 144 145 136 143 153 149 153 153 147 142 136 146 158 151 140 148 146 135 130 136 153 146 128 134 140 125 138 148 153 152 164 162 147 135 122 151 134 142 141 137 134 127 149 145 129 121 122 116 107 98 105 103 103 109 115 116 123 129 129 141 132 96 125 126 105 100 129 85 83 78 68 63 66 73 86 102 100 83 80 62 99 105 114 110 100 95 86 102 107 121 126 137 139 137 137 145 152 149 144 142 138 141 148 157 153 145 139 146 143 122 125 120 122 126 126 128 137 129 134 149 159 140 158 145 128 118 113 143 131 131 133 131 129 125 118 119 114 117 121 115 100 99 122 98 96 94 111 109 107 120 127 140 144 107 104 125 104 104 118 87 78 76 65 64 79 83 86 97 105 97 76 71 116 115 109 117 116 100 96 118 106 116 117 129 140 131 146 141 156 143 132 138 127 128 134 135 129 132 150 140 144 123 130 126 111 113 114 122 132 133 124 132 126 124 131 124 122 124 119 129 126 127 130 133 129 123 110 109 119 126 133 123 114 107 103 92 108 99 120 122 110 110 121 136 141 111 104 109 116 114 113 81 75 74 66 75 85 91 86 95 97 106 87 63 115 120 112 118 126 115 96 124 114 115 119 117 142 132 144 140 153 133 126 124 111 126 139 128 115 126 121 123 133 126 135 133 115 107 112 114 131 129 117 115 117 126 124 123 124 117 127 131 126 127 132 135 126 126 121 115 119 120 123 125 118 117 115 110 126 110 123 122 116 118 122 132 136 116 116 111 116 122 105 86 75 76 72 86 89 98 85 95 104 100 105 61 104 122 119 120 131 124 114 110 105 119 135 113 150 138 148 137 151 123 122 125 118 136 139 131 121 120 115 110 113 111 120 125 118 108 112 111 130 122 116 116 136 140 146 141 144 130 133 138 131 130 133 134 133 129 122 114 107 106 109 119 124 109 105 106 122 128 117 118 121 119 123 127 134 124 119 121 112 120 105 95 88 84 81 92 96 94 85 97 109 97 110 73 104 125 131 124 132 130 130 123 98 124 142 114 145 145 145 137 140 110 126 140 133 128 141 137 140 112 109 109 105 117 111 109 113 108 110 116 126 109 108 106 131 133 140 139 138 126 129 144 131 127 131 131 133 133 128 125 107 109 106 106 112 108 114 107 111 121 122 124 127 126 124 119 127 119 115 133 117 124 112 106 98 96 90 100 98 100 95 108 104 103 107 98 111 128 132 129 122 133 129 130 107 122 134 118 126 141 140 137 138 109 134 141 135 116 121 137 128 124 121 133 132 132 122 118 113 115 121 121 118 102 113 110 136 139 143 144 142 123 124 141 136 126 129 128 127 124 128 132 119 116 106 108 101 106 116 111 105 109 118 120 126 124 127 124 120 114 115 129 114 116 114 113 99 99 99 109 105 106 97 112 110 105 101 110 110 128 123 114 126 121 135 129 105 120 137 119 108 134 125 139 137 111 133 144 140 125 119 123 123 125 137 143 147 143 131 128 125 126 126 116 109 101 121 118 135 145 145 144 148 136 121 137 136 127 121 129 134 132 126 129 125 119 114 111 113 119 129 123 117 115 117 113 114 121 123 121 122 121 120 123 105 122 118 115 100 102 108 109 106 103 86 110 114 106 101 103 111 124 117 115 124 124 131 130 105 116 139 111 113 138 125 136 136 118 130 140 144 140 137 131 130 130 145 147 146 141 138 136 134 137 130 118 112 117 130 132 142 151 153 149 152 148 130 136 135 141 119 127 136 127 121 125 126 122 113 118 121 128 133 130 122 119 121 121 114 121 121 120 129 126 122 115 108 125 118 116 104 107 111 110 110 105 91 108 114 108 100 93 108 125 122 119 134 134 130 131 104 120 124 124 122 142 129 134 141 126 133 141 155 151 148 144 143 139 149 150 146 145 140 142 140 139 134 127 117 137 133 146 156 157 156 150 154 156 143 135 141 136 128 120 132 131 121 114 117 121 118 120 124 126 131 130 131 129 127 127 126 125 126 130 134 129 123 110 110 127 117 114 107 109 103 117 119 114 99 109 116 110 103 88 116 127 126 128 141 138 122 126 106 125 127 134 128 146 126 131 145 136 136 148 155 152 149 149 148 146 155 154 150 149 144 144 144 140 137 130 134 150 133 149 163 161 158 155 155 153 155 135 144 138 133 130 127 133 128 121 115 117 120 123 128 129 132 133 137 136 137 132 137 135 137 139 141 134 128 109 111 123 118 117 116 100 93 111 114 113 106 107 114 115 105 88 122 130 127 133 137 125 119 117 120 126 139 138 131 143 135 131 150 147 143 154 155 153 152 151 153 152 154 152 152 150 149 149 153 150 136 138 155 148 148 153 164 167 161 161 159 153 156 141 139 147 139 139 138 124 129 128 124 127 124 125 128 131 132 135 137 140 137 135 140 143 146 143 146 137 144 111 119 122 123 120 120 90 92 117 111 112 106 106 111 115 108 90 129 127 127 137 133 124 129 129 138 125 146 145 139 139 143 134 144 153 148 154 157 153 149 153 159 157 158 159 161 160 158 160 160 149 138 151 165 147 164 160 168 168 162 164 165 164 155 155 136 157 152 147 146 132 120 132 135 136 135 134 135 138 136 140 140 139 135 134 141 146 148 148 144 145 148 113 127 125 122 122 117 100 95 118 111 116 108 103 112 117 110 97 133 127 123 141 133 130 139 143 147 137 134 152 146 138 154 132 134 157 151 155 157 158 158 162 161 160 164 164 168 167 165 167 156 144 154 162 159 160 164 171 173 171 167 170 165 169 156 157 155 145 158 158 153 141 129 121 130 141 142 142 140 143 141 143 142 141 135 136 140 148 149 147 139 142 127 130 131 127 125 120 110 106 108 117 114 119 110 104 107 119 105 99 137 127 121 144 136 136 143 155 147 147 131 130 153 139 154 131 131 149 156 162 167 167 169 168 168 165 167 166 168 169 170 162 149 154 165 165 154 168 160 174 173 173 167 178 166 163 155 150 158 146 137 163 159 149 140 134 125 125 136 143 147 145 145 144 142 141 140 141 146 143 141 138 136 140 127 136 132 127 125 115 103 104 110 111 112 120 111 104 109 118 97 92 136 131 124 140 140 136 145 163 146 148 145 131 132 153 156 147 139 143 153 168 172 173 173 171 169 166 166 168 171 168 161 155 160 163 166 153 165 161 169 174 172 166 166 171 169 165 159 151 151 153 142 139 156 152 146 143 139 127 126 132 138 144 143 142 142 140 139 138 139 138 139 145 149 134 135 138 134 127 123 114 107 103 105 102 111 117 110 116 113 110 93 84 134 134 132 137 147 147 141 167 151 149 149 145 144 149 135 178 150 153 154 171 172 172 174 171 170 167 168 168 165 163 162 162 168 165 152 160 163 162 173 171 169 162 161 168 168 164 161 155 154 158 152 148 136 151 155 151 151 142 141 144 146 143 144 143 143 143 143 146 149 149 154 159 143 136 143 135 137 129 120 115 113 113 102 99 105 115 116 123 115 99 93 75 126 137 133 134 152 150 147 162 157 145 150 151 149 154 141 147 149 148 146 168 174 177 179 176 169 166 161 164 173 167 166 168 163 152 156 163 156 167 171 167 165 158 152 166 165 163 158 154 159 154 144 144 145 128 139 157 160 149 147 154 152 155 155 153 156 153 154 155 156 159 157 146 143 147 140 136 136 132 122 117 114 119 112 110 113 116 120 127 113 97 87 68 123 132 141 136 156 151 159 152 157 145 146 148 148 154 158 142 157 160 138 148 162 165 168 169 167 168 170 171 174 172 169 159 153 154 160 160 155 165 166 164 159 144 145 154 166 160 155 152 162 155 150 142 141 133 127 138 143 155 152 159 158 160 161 163 165 166 165 163 159 154 150 152 150 145 141 138 136 134 124 120 119 123 117 111 116 115 119 128 111 94 77 63 121 130 134 137 152 147 158 160 149 147 144 147 148 154 154 155 146 163 161 157 160 164 166 169 171 169 168 169 171 169 164 157 155 160 164 159 154 156 158 156 145 136 141 150 161 157 152 155 163 161 157 150 150 145 128 135 138 127 135 148 151 155 155 156 155 155 153 150 150 156 157 152 151 147 139 136 136 129 121 120 124 127 116 111 117 112 120 123 111 86 64 63 103 129 137 128 139 149 147 167 150 145 146 146 148 153 154 156 154 156 152 152 152 153 154 158 161 165 163 168 169 164 161 163 165 164 159 152 148 148 150 146 133 138 145 151 153 158 150 152 161 161 159 159 162 160 144 140 139 135 139 145 147 147 150 152 152 154 153 157 157 154 153 150 150 146 139 137 134 128 116 115 124 126 116 113 119 110 121 122 108 71 59 63 85 125 141 135 133 153 147 158 157 144 149 147 148 151 157 159 161 165 168 168 168 167 171 174 175 176 172 170 173 171 169 171 164 155 143 143 141 141 148 144 135 144 153 149 153 152 146 145 157 159 162 157 166 163 158 153 155 153 146 148 149 150 150 152 151 155 153 154 156 150 149 147 148 143 138 137 135 124 114 115 122 118 118 124 123 115 128 113 95 58 64 64 87 95 140 140 136 146 149 159 145 144 149 152 152 150 155 161 164 166 169 171 168 170 173 174 176 175 175 177 174 175 167 164 155 140 126 124 132 142 143 144 144 147 149 147 152 149 138 141 155 159 163 157 163 162 159 158 159 162 157 156 156 158 157 155 155 155 153 153 154 150 148 148 145 140 137 139 133 118 115 118 124 120 124 126 120 125 123 93 81 57 61 63 86 78 104 135 137 134 141 159 148 146 151 151 152 143 150 157 159 165 165 165 165 170 169 169 175 175 180 177 174 172 160 155 143 132 123 117 121 141 145 148 149 150 148 138 138 139 132 140 161 159 162 156 161 164 161 157 157 160 158 154 155 158 160 158 156 156 153 150 151 148 146 146 144 139 136 137 131 119 118 120 127 132 130 127 123 121 97 80 73 57 62 62 78 77 79 102 119 132 127 158 150 153 150 148 146 139 151 153 156 161 159 159 163 169 166 164 170 175 177 176 171 166 154 144 136 128 118 117 124 138 141 142 143 143 142 141 132 133 134 136 155 156 156 154 159 163 160 152 154 158 157 153 151 153 157 157 158 156 154 151 151 146 144 142 140 136 134 134 132 124 120 121 127 131 129 126 120 105 81 78 66 57 61 60 76 75 67 85 88 106 118 142 155 159 146 147 140 143 157 148 151 153 156 157 161 165 164 162 162 169 171 170 168 161 149 139 132 124 125 123 134 136 129 125 128 134 133 142 135 134 129 132 143 149 147 140 150 157 154 144 154 154 156 149 148 147 149 153 153 154 153 153 151 145 143 141 139 133 134 132 130 122 121 119 127 124 119 111 107 93 77 76 58 58 59 61 77 77 67 75 75 73 85 106 143 154 146 145 141 143 157 143 143 147 154 158 159 160 160 157 156 157 160 158 158 155 146 129 123 125 133 129 126 129 121 119 124 117 123 138 141 136 136 130 134 140 146 142 140 147 143 144 153 151 153 148 143 146 145 146 149 151 149 148 148 144 142 139 136 132 131 132 128 119 119 116 110 107 106 105 98 81 77 65 57 59 61 58 80 76 66 73 78 66 74 75 102 120 131 141 143 139 153 138 138 142 150 158 159 160 155 151 148 148 150 152 152 147 143 128 117 120 125 134 133 132 128 119 120 117 119 128 138 141 139 127 126 131 139 139 135 137 139 143 146 146 149 148 145 143 142 143 146 145 146 145 144 143 140 140 131 129 129 131 127 122 118 113 101 101 99 102 89 76 74 55 59 59 59 59 79 77 71 65 73 64 72 68 91 104 114 136 141 141 139 138 133 141 150 155 156 160 156 150 149 144 147 148 145 143 139 132 121 127 130 135 138 140 138 128 125 125 126 126 130 136 127 121 126 123 129 129 130 133 134 138 143 146 149 148 147 141 139 140 143 142 141 145 141 140 139 136 131 127 127 128 125 120 118 102 94 95 96 90 78 74 62 56 59 61 58 60 80 79 74 67 65 67 68 68 83 100 104 130 137 138 136 135 133 144 149 154 155 157 156 150 149 146 147 147 142 140 139 138 135 141 143 141 140 141 141 139 133 132 129 125 128 126 123 124 123 125 117 114 119 119 126 133 141 147 149 149 145 144 134 139 138 139 140 138 138 136 138 134 127 128 124 125 120 118 116 93 85 87 83 78 70 64 57 57 59 59 58 60 79 79 78 72 67 63 70 68 79 94 102 117 136 139 135 133 139 142 147 152 154 156 156 148 149 147 146 142 144 144 140 141 138 145 146 145 143 144 142 143 139 132 120 116 119 117 115 118 118 115 110 108 109 116 121 127 135 135 143 144 145 140 136 137 133 134 135 134 137 135 134 129 126 125 123 118 114 118 103 77 69 74 70 67 61 58 58 57 59 58 57 58 78 79 80 76 71 66 69 68 67 92 98 114 139 141 137 143 139 143 146 147 152 154 156 150 149 144 146 146 142 145 144 147 143 146 148 144 150 147 145 143 137 130 122 115 115 114 113 112 110 112 112 111 110 115 118 124 127 126 131 137 140 141 136 132 133 130 130 133 132 133 130 126 123 122 119 110 108 111 90 68 61 66 65 63 59 56 58 57 57 57 59 57 82 77 79 78 77 72 73 73 66 87 94 104 137 141 139 150 141 142 146 146 152 154 154 153 150 147 148 146 145 146 145 148 148 151 152 147 152 151 141 135 131 131 124 117 120 118 116 117 108 120 119 123 124 116 118 120 119 124 126 128 130 134 132 128 131 129 128 128 129 131 129 125 120 120 116 109 108 109 79 66 63 66 65 57 59 56 57 59 56 59 56 58 79 80 78 78 77 75 76 80 75 82 107 101 126 139 141 145 139 142 143 148 151 155 155 154 152 151 149 150 145 146 142 145 146 152 153 149 152 148 135 132 132 125 124 117 134 131 129 126 113 125 126 129 134 118 118 120 118 124 124 119 120 122 125 126 133 132 131 126 129 129 126 123 117 119 113 108 108 101 74 65 62 67 63 58 58 55 57 56 58 56 58 57 80 78 79 78 76 78 74 85 81 80 105 107 118 136 141 143 139 138 142 149 150 154 155 154 154 149 148 149 146 146 145 144 146 149 148 150 151 142 130 131 127 120 126 116 133 140 135 135 119 114 127 126 130 125 128 132 133 135 131 126 125 130 128 134 135 134 132 127 126 126 126 121 118 118 115 108 111 92 75 62 61 68 61 58 57 57 55 57 59 56 58 58 80 78 79 78 78 77 76 81 84 80 94 110 109 138 139 141 143 133 143 143 146 149 150 150 148 144 146 145 143 144 141 141 143 142 142 147 145 134 129 136 125 119 119 114 113 115 112 113 104 102 114 126 135 135 139 137 137 135 131 130 132 136 135 133 137 134 134 128 127 128 127 119 117 117 115 107 109 83 71 61 61 64 59 56 57 58 56 56 57 57 60 57 79 77 79 79 77 77 73 80 85 84 80 100 107 129 139 144 140 131 136 136 137 141 141 143 141 143 141 139 144 145 141 141 141 131 127 124 121 118 134 142 138 131 125 126 124 118 117 111 111 116 126 130 136 137 138 137 135 133 130 130 132 133 133 129 133 131 131 129 130 128 124 120 117 117 118 107 104 75 69 61 62 64 57 57 55 57 55 57 56 56 58 58 79 78 78 78 77 77 76 77 83 84 84 82 93 112 138 142 139 134 137 126 125 131 123 137 139 143 146 139 145 149 148 144 133 126 113 110 114 103 116 124 125 112 117 121 120 124 120 118 122 119 130 132 136 134 134 136 131 131 126 126 126 127 130 130 130 133 128 131 130 127 120 120 117 119 114 109 98 70 69 60 62 58 55 56 56 53 57 56 57 55 58 56 79 78 78 78 77 76 77 77 80 85 83 77 81 84 123 132 130 129 141 138 132 128 117 128 142 143 148 142 141 150 142 141 127 134 128 125 124 109 109 112 113 104 111 111 101 100 108 118 126 128 126 127 123 125 128 131 123 121 120 121 123 126 132 132 129 131 129 133 128 127 119 117 116 118 110 109 91 74 62 61 61 58 55 57 55 55 56 56 56 55 57 55 78 78 79 76 78 78 76 77 77 86 82 71 76 88 99 116 120 121 144 143 143 136 127 120 132 130 139 134 131 139 132 131 119 123 128 132 127 106 101 102 100 92 96 103 98 97 99 99 110 115 117 116 113 112 117 120 112 115 117 121 125 126 132 132 131 130 128 131 127 121 120 115 116 119 108 106 88 69 61 58 59 55 58 54 54 57 55 55 55 55 56 57 77 78 79 77 76 77 77 75 77 79 79 70 74 90 87 112 122 118 137 145 145 141 131 125 127 121 123 118 115 121 119 121 107 106 118 123 121 110 99 97 98 95 92 95 96 99 97 101 102 100 97 101 100 100 103 106 105 106 113 119 121 126 130 129 132 129 127 129 125 119 119 118 116 114 107 104 82 71 60 56 57 54 56 55 56 54 56 55 55 56 57 56 79 79 79 80 76 78 77 75 74 75 75 69 72 89 91 99 118 120 123 146 145 141 138 136 141 136 137 131 132 128 132 134 126 128 135 142 140 135 130 125 121 118 114 111 105 108 99 103 98 96 93 92 100 101 104 103 103 106 111 118 120 125 127 131 130 131 126 125 120 117 117 118 116 109 105 101 80 72 55 57 54 56 54 55 55 54 56 56 53 56 57 57 76 79 77 78 75 79 76 75 73 71 71 69 71 88 91 89 111 119 115 139 144 142 142 146 152 153 152 150 147 149 151 151 144 144 145 146 146 147 147 145 146 150 148 140 134 128 127 121 112 112 112 110 111 110 113 108 108 109 114 117 121 123 129 128 127 129 127 120 118 117 116 116 110 101 103 96 81 72 55 54 54 55 55 54 56 55 56 54 56 56 56 55 77 77 80 75 78 77 77 76 74 68 67 65 69 87 91 90 100 115 117 125 144 145 145 149 151 155 153 154 153 152 153 154 150 149 149 146 144 143 144 140 143 142 147 143 140 134 131 129 126 125 125 124 123 124 124 122 120 118 119 118 124 128 129 129 128 125 125 118 116 116 115 113 105 97 99 93 81 73 54 55 55 54 56 55 55 56 55 55 57 54 57 55 77 78 78 77 78 76 74 76 73 64 63 63 67 86 88 92 86 111 113 116 134 145 148 148 149 154 153 152 152 154 151 150 148 151 150 149 147 143 142 142 139 136 133 134 131 131 127 128 129 130 126 127 126 128 126 126 125 124 123 122 128 128 129 128 126 123 121 117 115 118 109 106 100 98 91 91 83 73 54 52 56 53 56 55 56 55 56 56 54 55 56 55 76 77 78 78 76 77 74 75 73 63 62 61 66 83 88 88 87 105 111 117 118 140 146 148 149 153 154 152 150 154 149 146 145 143 144 140 144 141 142 139 137 133 132 130 128 127 125 124 124 123 123 125 125 126 130 127 126 127 126 127 128 128 126 127 123 121 120 115 115 113 107 99 100 96 82 90 84 73 53 52 54 54 55 55 56 54 56 55 55 55 56 56 78 77 75 77 76 76 74 75 71 66 60 59 65 81 87 87 85 105 106 114 115 121 148 147 148 152 155 154 150 153 152 150 146 144 145 143 137 139 137 133 133 128 129 126 123 126 125 127 124 126 127 130 127 131 130 130 129 129 128 131 128 125 123 121 120 118 116 115 116 108 98 95 97 96 78 89 85 73 54 52 53 56 53 53 54 55 53 55 56 56 57 55 75 76 74 78 75 78 74 74 71 66 62 58 64 79 83 87 84 106 107 110 114 118 132 147 146 152 151 153 150 151 150 154 149 149 144 144 140 139 137 133 132 128 126 124 125 126 128 128 128 131 134 135 136 133 133 128 130 129 129 129 126 126 124 121 116 115 114 116 114 103 95 92 98 89 81 88 81 71 55 52 55 54 54 55 54 54 57 53 55 56 55 56 75 75 76 77 75 77 73 71 70 66 65 56 64 79 83 87 80 103 109 108 111 119 118 138 147 148 150 151 149 151 154 154 152 155 152 149 147 142 141 137 134 131 129 126 129 129 130 130 132 137 137 139 136 133 131 129 129 129 128 127 125 125 119 120 116 116 113 115 107 98 91 94 97 83 81 87 77 66 48 50 50 54 52 56 54 55 54 55 55 53 57 55 75 75 76 74 77 76 74 71 71 63 67 59 67 78 81 83 82 102 111 112 110 113 116 124 146 145 150 150 150 154 155 158 159 162 165 163 163 160 156 153 148 145 144 138 138 133 132 134 133 137 138 139 137 134 131 130 127 129 125 127 125 124 116 119 114 115 111 113 109 95 91 95 89 85 82 88 77 63 44 43 48 50 52 53 54 55 55 54 55 56 55 57 75 75 76 74 76 78 73 71 67 66 66 62 77 75 78 82 79 100 113 112 114 108 113 120 141 141 146 150 151 157 158 160 163 166 171 168 169 164 161 160 157 153 152 150 149 144 138 139 139 139 139 139 135 131 130 127 126 126 123 123 121 121 116 117 111 112 109 113 108 92 93 91 87 85 84 87 78 63 43 43 42 45 47 50 54 52 54 55 54 55 56 55 73 75 71 75 76 76 71 71 66 67 61 66 83 76 74 84 80 97 113 114 113 111 108 114 139 138 143 150 152 156 159 161 160 164 170 169 168 166 162 159 158 157 155 153 153 152 149 145 144 140 141 136 135 127 123 127 126 124 119 120 117 117 115 114 111 109 112 111 105 93 93 86 88 87 86 88 76 62 47 42 44 43 44 44 49 45 53 54 54 57 54 57 74 71 72 75 75 77 69 71 65 68 61 66 86 85 72 80 86 95 110 115 113 114 112 102 131 139 139 146 149 152 155 157 160 160 168 169 168 167 162 160 159 159 157 155 156 155 154 149 148 142 141 136 130 127 125 126 123 119 118 117 118 116 113 110 107 109 112 109 102 93 94 85 89 89 87 86 78 61 57 49 42 43 45 43 45 42 47 48 52 53 56 56 75 72 75 76 76 71 72 67 66 67 60 72 84 88 78 77 79 99 107 112 114 115 115 104 116 138 135 140 144 148 153 153 158 161 165 169 166 164 163 160 158 155 158 155 156 155 151 145 144 143 141 136 130 126 125 125 120 117 118 116 115 113 112 106 107 108 109 108 103 93 95 86 91 90 87 88 76 59 54 60 52 42 43 45 44 44 45 44 45 51 52 56 72 72 73 76 75 71 72 68 66 68 60 75 88 84 82 80 77 95 107 105 112 115 115 112 112 132 131 134 137 144 147 148 154 159 161 165 166 163 162 159 158 155 155 153 150 150 146 140 137 140 137 131 128 125 124 122 119 120 117 117 111 109 107 106 105 105 108 105 105 99 96 85 93 88 87 88 75 61 48 50 61 57 40 42 44 46 43 45 44 47 45 51 73 73 76 73 76 70 71 69 66 67 60 77 87 85 81 79 80 93 106 106 106 111 114 113 111 131 128 126 132 137 142 144 148 150 156 157 163 164 160 157 157 158 151 149 146 144 140 135 133 131 127 122 124 125 121 120 119 117 116 115 108 105 104 105 104 103 105 109 108 101 97 87 92 90 86 90 75 62 46 48 56 64 54 42 42 44 42 47 45 47 45 45 74 72 76 73 74 71 68 67 70 67 59 78 87 87 80 80 80 97 102 106 104 103 112 110 113 129 127 123 124 130 135 135 141 142 148 149 150 155 156 150 152 150 147 142 138 134 130 128 125 126 122 121 120 121 117 118 116 112 109 113 103 102 104 105 101 102 109 113 107 101 95 87 92 90 87 89 76 61 46 44 51 61 68 52 41 44 42 47 44 46 45 46 72 71 73 76 73 72 68 68 67 68 59 80 86 89 78 83 81 99 105 102 107 103 102 107 127 127 124 123 118 123 123 130 130 136 140 140 140 146 144 142 143 141 140 134 130 128 123 120 119 117 118 117 117 116 114 115 108 107 103 102 97 100 101 104 105 108 112 113 106 102 96 87 95 89 85 89 74 62 44 42 52 57 71 65 49 42 46 43 46 46 46 47 72 73 76 74 73 71 68 71 68 68 60 82 83 93 78 80 79 108 104 106 106 106 99 116 121 114 124 123 120 116 118 118 125 126 129 127 130 135 133 135 137 134 132 128 125 124 119 115 113 113 115 118 113 110 108 107 104 102 99 95 96 97 103 109 108 111 113 111 104 102 95 87 97 91 84 90 74 62 39 37 55 54 70 72 66 43 43 44 46 46 47 46 76 73 76 71 72 70 69 69 69 67 59 81 85 96 65 80 83 109 107 108 106 105 105 129 110 102 119 119 118 115 112 109 113 117 118 117 117 122 121 124 124 126 123 121 121 116 112 106 109 107 110 109 106 104 102 100 99 94 91 93 96 101 109 110 112 112 114 109 102 103 93 90 96 90 90 87 77 57 38 38 50 61 62 78 71 62 42 45 45 47 46 49 72 74 73 73 70 69 68 70 69 67 61 81 86 94 64 79 83 110 109 107 109 104 130 124 113 98 114 112 115 109 109 109 105 106 105 107 106 111 111 110 112 114 111 111 109 106 106 102 102 104 100 98 100 99 94 94 90 90 91 97 102 106 110 110 111 113 114 106 103 103 92 93 95 88 89 92 75 54 38 39 46 61 63 70 76 71 52 43 45 44 47 45 74 72 76 70 71 67 70 69 72 68 55 70 88 89 66 86 84 107 110 109 105 121 138 125 117 96 114 111 110 106 105 107 101 103 98 99 99 99 101 99 102 102 101 100 101 98 99 97 101 97 98 93 94 88 90 87 90 93 98 104 107 110 112 110 112 114 111 103 105 103 91 95 96 83 88 92 75 48 41 35 51 57 69 62 79 71 69 44 43 44 46 44 71 75 73 73 70 72 71 76 70 56 53 75 90 84 72 88 88 98 113 107 112 140 131 126 122 100 114 118 112 108 104 104 101 101 103 99 99 92 94 93 94 94 93 93 92 93 93 95 94 92 92 89 85 87 86 90 95 98 103 105 106 113 111 110 114 112 108 102 104 105 94 95 96 79 87 90 74 44 39 36 56 58 63 64 72 75 74 60 45 49 48 47 74 76 78 74 73 73 79 74 58 57 70 76 90 77 77 88 94 88 111 107 131 139 132 126 120 101 108 121 117 111 110 106 106 105 104 101 100 95 95 93 91 94 91 91 87 91 86 87 84 87 87 86 85 90 91 95 97 103 105 106 108 112 110 115 114 109 102 102 106 102 98 96 96 78 85 91 66 45 43 38 50 66 60 71 61 77 71 72 63 68 66 69 