P2
92
112
255
111 107 109 106 109 111 105 109 106 110 107 106 104 97 93 74 103 100 96 81 78 58 69 77 82 81 66 44 58 52 44 49 36 31 38 35 32 49 41 35 37 30 36 41 32 31 36 36 35 32 34 33 29 32 36 45 43 42 41 46 43 54 59 57 56 53 63 66 73 78 67 73 72 80 71 87 82 90 104 106 102 103 103 105 103 104 102 100 102 102 104 101 107 109 106 109 108 109 109 93 103 108 105 99 103 99 94 69 73 102 102 86 64 59 64 61 71 68 69 50 45 41 41 48 33 34 29 32 30 29 48 34 35 29 31 28 34 28 32 31 29 29 30 33 29 30 36 38 35 37 41 46 45 46 55 52 50 50 50 59 54 61 65 66 73 68 69 81 66 88 90 103 104 104 103 103 99 100 103 105 102 103 100 105 106 108 107 109 108 103 112 108 91 98 107 93 96 93 66 88 59 65 102 103 70 50 59 63 56 60 62 44 35 34 40 41 32 31 33 26 32 25 33 43 33 25 26 21 29 27 33 32 25 27 27 28 27 29 27 35 31 33 44 41 38 33 42 49 45 43 44 52 53 55 63 73 75 76 73 70 75 70 79 80 101 101 99 79 79 95 105 103 103 103 104 99 108 108 107 108 112 100 88 108 104 80 82 92 94 84 77 61 59 60 66 84 68 57 47 56 58 50 49 35 33 30 30 34 34 24 40 40 31 28 22 31 35 25 20 19 30 25 29 28 30 22 24 27 30 25 25 36 34 26 32 48 33 29 35 38 38 41 45 43 46 62 58 71 71 70 59 70 66 66 80 79 92 82 74 62 85 98 92 90 102 104 102 103 111 106 108 109 110 100 94 87 96 94 82 66 74 70 70 71 56 55 64 57 63 59 41 45 50 48 41 31 29 30 27 26 36 33 28 38 33 33 27 23 32 29 24 18 28 27 22 26 27 24 25 21 32 26 27 38 35 29 27 26 34 29 33 30 39 37 36 37 47 59 51 56 58 53 52 57 62 62 68 67 74 62 75 70 71 81 60 75 102 103 102 101 110 106 106 109 106 87 92 83 80 70 70 68 70 63 56 64 71 58 54 59 61 63 55 48 51 50 53 37 30 33 34 25 28 29 33 31 35 31 35 29 25 28 22 22 26 26 22 20 21 31 27 18 33 31 36 33 29 29 26 20 31 34 31 30 34 32 32 39 34 40 42 50 49 43 46 40 55 55 56 54 66 66 72 70 72 64 74 92 104 103 104 101 107 108 109 107 111 95 94 80 76 76 66 61 67 61 61 56 58 66 56 63 66 61 59 56 56 50 48 53 45 45 43 41 28 25 29 31 25 30 31 33 30 29 28 23 24 21 22 22 19 21 34 22 34 28 28 31 28 30 25 25 27 27 30 30 30 32 28 35 29 36 39 39 39 37 44 38 44 50 45 55 51 67 65 66 74 77 90 99 100 98 102 103 106 110 107 103 104 101 92 95 72 63 58 74 67 58 56 60 52 58 50 56 56 48 44 51 52 57 50 42 44 46 45 44 42 35 27 34 30 29 29 27 29 31 33 27 24 20 24 20 21 19 35 31 24 30 25 29 30 27 26 28 22 24 29 27 31 26 28 25 32 39 35 33 31 33 38 41 42 42 47 49 53 58 61 55 59 76 80 77 64 93 100 102 106 106 106 102 104 107 96 87 78 88 71 66 74 59 54 52 52 44 42 47 51 47 39 34 42 49 46 46 41 37 40 45 46 39 30 29 38 30 27 29 27 30 28 32 29 22 22 20 24 22 24 34 27 22 32 27 27 23 26 24 18 26 26 30 25 24 27 30 36 41 37 30 29 35 32 37 38 43 41 45 46 52 50 49 43 45 69 71 47 76 94 100 110 89 89 85 83 86 88 71 60 75 71 71 65 66 61 54 48 37 35 40 40 49 42 34 35 35 33 37 32 34 36 36 40 50 45 33 34 38 29 30 24 27 28 28 34 31 23 23 26 22 24 31 29 23 29 33 26 32 24 30 25 26 26 34 30 25 33 34 33 37 31 30 21 32 27 37 36 50 38 37 40 42 42 53 54 60 50 50 48 68 83 101 111 103 93 91 67 61 62 65 66 63 57 63 68 61 58 57 53 54 48 42 31 34 40 29 37 36 35 37 40 35 30 35 30 30 30 33 38 37 36 29 28 28 28 27 28 32 35 28 29 23 24 27 33 22 22 30 29 29 33 27 29 31 28 28 31 29 28 32 27 25 24 24 22 27 30 28 39 47 39 36 32 37 33 50 44 52 36 54 64 68 80 98 100 105 98 94 92 84 79 79 58 68 60 57 60 58 46 52 46 41 40 43 35 30 42 45 38 47 41 40 38 38 34 33 30 29 28 28 26 30 31 34 37 33 24 33 25 29 36 38 31 26 24 28 33 27 26 26 36 28 29 26 29 30 31 31 25 31 27 24 31 28 34 20 22 30 31 23 29 43 35 35 37 34 29 43 40 46 41 57 52 76 73 86 85 76 80 74 67 60 52 61 47 44 52 54 58 55 50 51 47 39 38 40 44 44 50 54 36 43 37 31 31 30 30 30 30 26 27 30 31 29 25 30 35 44 39 31 33 37 36 40 34 29 28 30 30 35 28 25 32 32 25 28 23 27 29 32 26 27 26 30 23 24 21 35 34 25 27 23 22 42 34 39 37 27 26 30 38 50 44 51 57 80 102 95 77 63 59 55 46 40 45 54 44 51 54 44 48 41 36 36 38 37 42 46 55 54 50 46 47 37 35 32 30 32 33 35 35 28 30 34 32 39 35 33 41 31 47 49 39 38 44 45 41 29 30 35 31 46 31 33 32 34 27 28 29 28 27 32 25 23 30 29 20 19 22 17 37 28 19 24 23 37 40 37 29 27 25 22 39 46 45 55 72 92 97 87 73 55 61 63 61 61 46 46 47 43 51 47 36 33 51 51 49 50 54 59 61 54 50 51 49 40 37 34 38 35 37 43 52 40 39 33 39 41 47 48 49 50 43 51 55 40 47 51 44 38 41 40 39 58 38 39 35 33 34 30 35 30 26 34 30 35 27 30 18 21 20 23 21 25 26 22 23 43 37 31 35 23 23 22 32 33 41 58 76 75 80 84 76 56 66 56 43 58 54 54 57 55 47 44 49 65 73 62 68 64 49 54 63 60 51 52 64 54 58 58 54 50 49 49 49 47 51 46 44 45 45 51 50 52 53 49 54 55 51 58 51 47 51 51 56 65 65 41 39 41 34 35 34 33 30 29 40 40 45 31 25 22 20 26 20 19 31 22 29 43 34 32 31 23 27 24 28 34 46 63 70 65 65 63 71 43 52 51 45 45 50 48 46 41 49 68 70 76 70 73 66 55 51 61 60 57 52 61 63 69 75 80 77 74 65 56 58 60 49 51 48 46 45 48 54 54 59 49 56 68 68 64 58 60 50 50 66 62 72 55 56 54 41 41 37 36 36 35 39 42 40 55 44 32 21 22 22 21 25 38 36 32 36 28 26 25 33 25 28 31 45 49 55 55 54 79 80 56 40 47 50 42 50 49 47 56 61 74 79 76 81 71 57 55 51 62 62 54 66 65 71 80 85 82 77 66 61 64 58 51 51 47 49 45 48 56 56 58 58 54 64 69 85 81 64 72 66 66 66 62 69 71 69 59 45 48 50 42 45 37 41 39 41 65 42 40 34 21 25 24 24 33 48 30 39 25 31 31 30 24 24 30 41 40 48 51 77 70 38 47 43 49 47 51 51 54 60 62 76 79 68 75 67 50 48 45 49 47 49 58 65 75 82 87 85 92 76 77 74 69 64 55 55 51 53 52 48 54 48 66 72 71 71 77 70 63 60 75 84 70 77 93 83 72 73 62 55 53 62 60 50 55 48 52 42 60 61 44 40 31 27 24 26 27 46 35 39 35 30 39 21 23 27 28 34 47 39 45 77 78 44 53 64 62 56 66 64 68 64 62 74 70 68 55 44 44 37 40 44 44 59 68 80 75 79 81 83 85 78 74 70 70 70 67 68 63 55 53 49 55 64 66 72 71 77 78 67 72 82 83 78 87 94 97 75 63 76 76 72 67 57 56 56 63 65 55 49 51 53 57 38 40 37 25 32 28 21 49 35 43 38 36 21 26 23 26 34 39 39 54 79 93 70 74 63 50 53 54 55 59 54 59 66 68 58 38 41 35 39 43 47 58 69 62 69 75 74 77 91 97 99 94 87 83 79 81 81 77 70 64 60 65 60 66 72 78 75 83 74 81 93 93 85 77 98 89 78 64 73 79 77 69 60 59 49 46 73 63 57 58 54 59 48 43 41 31 33 32 24 34 37 40 36 36 30 24 24 21 33 44 26 63 83 98 76 61 50 48 40 48 56 60 46 58 64 69 45 36 39 37 45 54 57 57 63 57 70 74 79 76 82 91 90 94 94 97 89 85 84 84 92 89 84 76 81 83 79 79 77 89 91 83 91 87 90 80 77 80 75 71 68 71 81 65 70 63 55 48 61 71 67 55 57 63 56 45 43 39 34 32 26 30 39 31 38 38 37 26 23 22 32 25 36 61 78 92 75 61 46 43 40 41 56 50 51 61 54 57 44 38 39 46 55 56 58 55 61 67 71 77 82 89 89 91 91 92 92 92 92 94 95 91 93 97 96 91 81 86 85 88 85 96 99 92 85 82 87 86 87 80 88 75 57 82 88 62 68 70 57 58 60 65 70 69 59 58 60 47 47 47 40 37 30 31 37 32 34 39 40 29 22 23 27 28 29 41 57 76 87 62 40 42 41 45 47 50 60 54 48 49 43 43 45 53 56 56 59 67 72 83 84 93 93 96 96 92 100 100 96 96 103 102 110 116 110 114 111 112 93 90 97 99 99 102 101 99 87 92 94 88 86 91 87 70 71 81 85 69 58 73 62 63 68 65 51 61 72 61 57 47 47 51 52 40 37 31 38 35 33 35 39 35 24 22 28 26 30 27 44 49 77 65 36 38 45 37 45 48 61 48 44 48 42 50 51 51 53 62 71 78 89 97 100 105 107 109 109 111 112 117 117 122 127 126 130 135 136 132 130 124 116 116 109 109 109 104 109 109 99 105 97 103 87 90 80 83 72 85 76 65 65 78 70 69 72 69 71 54 66 68 58 58 48 53 54 47 41 35 43 37 35 37 37 45 27 22 27 26 28 28 27 42 85 54 37 45 34 36 51 50 50 40 47 48 47 54 49 52 58 72 85 96 106 111 114 120 119 125 127 128 134 140 147 152 148 141 151 156 152 147 141 142 140 133 140 116 113 120 123 119 122 113 107 110 104 86 90 86 87 73 78 63 83 88 72 72 80 76 67 67 66 75 70 62 59 61 60 57 49 46 51 44 40 37 41 49 32 21 24 25 28 31 26 66 66 51 47 35 37 43 47 44 41 47 48 48 51 51 48 49 73 89 99 111 121 119 129 135 142 146 151 153 151 156 154 148 158 159 161 153 152 147 151 153 148 145 139 130 131 135 136 127 130 124 125 122 107 94 104 91 88 85 92 77 94 100 89 87 89 89 80 70 78 88 79 80 77 82 76 67 65 59 61 55 46 48 43 52 34 28 22 26 29 23 35 46 70 53 36 41 40 42 47 40 45 44 48 48 44 49 49 68 87 106 121 126 128 126 137 148 154 162 163 164 162 159 153 149 148 150 146 140 149 154 157 156 152 148 147 138 133 139 146 139 134 138 142 127 106 112 108 103 104 98 102 93 94 105 107 102 105 96 97 91 78 102 88 90 91 91 89 93 87 74 73 76 65 62 56 54 35 28 25 25 24 28 32 42 77 46 41 41 40 44 41 40 43 46 49 47 44 51 57 79 98 125 133 131 131 138 144 154 162 163 164 164 161 154 149 156 158 161 156 163 167 156 157 152 153 155 148 140 145 154 159 145 153 152 145 113 124 131 116 108 113 110 109 105 105 116 115 105 109 100 90 95 97 100 105 104 99 105 101 98 104 98 94 90 90 84 66 56 45 32 27 24 24 32 35 49 75 58 45 37 42 39 41 43 50 44 48 47 46 54 67 90 114 127 138 133 140 145 154 160 167 164 167 171 164 156 156 161 159 152 156 158 163 160 161 157 160 154 158 142 157 165 151 151 165 161 137 110 142 138 121 110 110 124 125 114 120 136 135 127 135 124 115 95 99 109 116 120 110 115 117 115 115 116 116 109 109 101 93 54 55 28 27 23 27 38 38 43 86 65 41 40 42 40 40 54 48 43 49 49 51 61 79 97 120 132 139 137 142 152 155 161 168 169 169 176 163 163 161 151 149 152 155 161 163 157 160 160 165 159 163 154 167 154 137 159 165 162 122 135 148 137 124 111 116 129 134 120 124 141 129 128 134 132 134 127 107 112 120 122 125 118 120 129 129 128 126 116 119 115 100 72 56 37 26 22 34 53 52 63 90 78 42 45 35 38 53 58 47 46 50 45 55 68 82 99 118 131 138 138 145 151 154 160 166 169 170 172 167 166 160 158 162 167 160 163 166 165 167 173 175 167 164 172 172 135 144 166 169 146 123 151 145 128 118 123 115 131 137 120 131 148 130 131 127 136 137 127 123 107 119 125 128 129 113 126 135 130 129 125 116 118 105 91 66 51 33 20 24 39 53 70 95 84 46 41 40 53 51 57 52 47 48 48 55 71 87 101 113 130 136 141 146 150 153 158 167 170 171 173 172 172 168 153 162 166 152 150 156 165 169 178 177 172 165 173 161 137 161 167 165 138 121 149 142 127 120 119 124 137 134 120 140 148 127 131 130 126 133 131 127 130 104 117 122 137 138 111 127 136 128 131 119 113 112 95 84 67 41 39 19 27 33 55 91 76 48 36 54 57 60 53 49 49 48 50 63 76 88 95 114 127 139 141 144 150 153 159 164 165 166 171 169 168 166 155 161 168 157 144 152 171 171 170 176 173 166 166 150 136 158 159 147 135 125 148 144 126 123 114 120 139 125 122 144 129 126 133 136 127 125 130 139 136 128 112 111 125 142 143 113 116 126 131 122 116 106 104 92 72 57 43 32 25 28 51 94 76 47 40 51 57 54 44 48 46 51 50 73 80 85 93 111 132 135 139 146 147 153 161 163 166 166 164 168 170 175 171 166 163 167 161 162 172 171 170 171 175 173 155 152 160 145 155 146 144 134 158 148 132 126 106 132 142 120 133 145 121 125 139 146 132 123 130 138 140 140 119 117 126 120 127 143 120 110 122 127 116 103 100 98 76 63 51 31 35 26 63 89 91 50 38 52 50 40 43 48 50 55 58 76 84 90 102 117 125 131 135 143 149 153 159 162 164 166 161 164 171 169 172 165 163 168 166 167 170 174 172 172 174 166 153 165 159 163 160 152 156 154 157 145 131 117 107 138 135 124 133 138 135 145 147 142 137 131 129 131 134 139 131 109 123 134 105 110 135 125 120 118 114 103 98 87 83 63 55 49 22 37 73 89 90 52 39 46 41 37 45 48 51 55 63 73 87 95 107 118 122 126 134 145 144 153 153 157 161 164 161 165 165 164 169 171 167 166 170 173 174 172 173 167 174 164 164 169 167 166 165 162 158 163 159 151 131 115 120 135 120 138 138 137 151 151 151 142 139 136 137 127 129 133 128 125 117 116 114 120 122 127 128 119 111 104 93 72 73 77 49 42 42 42 70 89 89 69 41 48 40 41 46 53 49 60 67 74 86 95 95 105 116 128 137 137 144 151 153 157 162 167 165 170 167 156 168 163 165 171 169 173 167 170 171 174 171 171 170 166 169 164 152 161 164 157 154 153 125 113 136 123 129 145 143 148 154 157 148 153 147 143 139 133 137 129 121 139 126 122 119 127 130 128 124 120 109 102 87 66 70 72 56 42 40 48 82 86 93 78 42 42 43 42 45 55 58 62 72 75 84 92 99 108 119 126 135 141 142 148 150 158 161 166 167 168 168 163 170 171 171 177 177 179 169 175 177 176 169 171 172 173 172 173 161 163 161 160 161 148 111 124 131 129 142 141 150 159 153 153 155 153 151 137 136 143 136 126 134 136 131 132 122 128 132 129 122 118 107 101 81 55 66 69 59 47 39 66 68 86 90 84 46 43 39 32 50 54 62 66 68 78 88 99 104 112 121 128 135 142 145 143 148 155 164 164 167 169 172 172 179 174 177 178 171 176 184 177 172 184 181 181 171 173 168 174 170 165 150 145 148 120 122 139 142 143 143 151 159 156 156 151 157 152 136 139 141 155 145 123 138 143 134 133 130 127 130 126 120 114 105 98 76 54 53 69 55 52 49 68 100 89 88 90 46 42 38 41 49 53 63 65 64 82 98 110 111 113 124 130 137 144 142 142 145 153 161 162 167 171 171 176 185 176 176 184 179 181 185 183 183 185 189 184 177 182 175 166 175 165 157 152 152 139 146 156 156 158 144 167 163 161 167 160 163 159 134 141 151 156 146 131 142 146 149 134 137 132 131 128 120 112 101 92 65 51 47 60 58 50 60 62 92 85 92 85 52 37 41 45 45 54 69 61 70 99 113 126 128 127 131 131 140 143 141 145 148 150 160 164 167 172 169 176 179 182 178 184 181 184 185 183 185 171 179 183 182 183 183 180 179 168 165 164 163 151 155 165 167 160 163 168 163 162 171 161 156 153 148 149 158 154 147 129 151 148 144 145 143 136 134 127 117 108 100 88 57 46 46 57 55 60 56 76 87 84 89 92 57 40 40 43 47 59 61 57 89 117 127 134 137 134 137 137 143 142 144 142 152 156 162 165 169 171 175 174 180 181 182 183 184 182 186 183 184 178 178 182 185 183 183 177 176 159 168 169 168 169 162 169 172 174 172 171 170 165 170 166 157 157 159 163 156 158 151 138 144 153 133 147 144 137 131 127 113 105 94 85 54 43 39 57 58 59 68 83 94 88 88 94 61 42 44 42 48 63 55 69 108 132 132 135 140 142 140 141 142 142 145 147 155 159 163 167 167 170 175 175 176 178 176 181 179 176 179 182 183 179 179 183 182 183 177 181 176 167 172 175 165 170 169 169 176 177 176 170 167 165 168 171 153 159 164 165 160 161 159 157 143 144 128 144 145 134 130 126 113 100 92 79 57 35 38 53 59 57 75 92 93 86 87 90 68 47 46 43 47 60 54 80 117 139 139 137 142 142 142 138 142 142 147 156 157 162 161 153 156 160 166 168 167 167 170 171 175 169 178 174 180 170 176 174 172 166 171 175 176 174 172 175 170 164 168 165 168 176 175 172 171 171 168 167 149 159 166 166 161 165 163 164 157 150 141 144 142 135 130 125 113 99 92 76 52 37 35 52 51 64 88 93 94 86 89 89 75 49 52 38 54 58 60 93 123 139 142 138 142 141 142 135 147 145 147 157 151 146 142 135 135 146 148 148 149 149 156 151 158 160 164 169 158 159 168 165 149 132 149 167 173 172 169 171 158 160 161 159 163 166 163 168 164 169 167 165 158 162 160 166 162 163 162 159 155 153 146 145 141 134 133 126 113 98 96 75 51 40 37 49 50 77 93 94 93 84 87 88 76 53 47 42 58 61 69 103 133 140 144 142 140 132 136 141 147 143 137 137 125 121 120 115 115 115 119 115 107 116 125 126 128 133 133 141 137 128 153 145 134 132 139 160 160 169 162 158 155 158 153 158 165 160 159 164 165 163 165 159 162 160 158 164 158 155 156 151 150 148 145 143 136 135 129 124 117 98 95 83 50 39 39 45 56 86 94 94 91 87 93 92 79 53 46 41 61 60 70 115 137 141 143 147 136 133 132 131 124 112 103 96 98 94 91 89 91 81 84 85 89 83 89 88 85 84 97 103 112 112 126 124 104 123 133 145 151 152 156 150 146 153 157 153 163 158 158 143 152 156 154 154 153 150 150 153 153 150 149 146 145 142 139 134 131 132 128 123 114 99 95 91 47 36 42 43 84 93 89 93 94 120 136 136 112 65 43 51 63 51 87 124 139 141 142 148 133 125 121 104 90 80 77 81 75 78 71 76 78 70 70 65 68 61 63 68 62 64 64 78 84 93 97 106 107 108 123 126 125 136 145 142 145 148 154 158 157 155 146 142 146 144 143 142 129 136 131 134 132 135 132 133 132 124 127 121 111 114 112 112 121 97 95 101 42 34 41 59 90 93 92 91 95 121 139 148 157 127 57 51 58 55 98 134 137 140 142 146 137 119 93 81 73 71 62 64 68 73 68 71 65 59 58 53 50 54 52 51 48 49 55 56 60 75 78 96 105 102 112 108 122 137 146 147 155 155 147 156 149 140 140 139 143 133 128 117 109 113 102 94 87 90 89 90 86 84 90 92 90 86 87 78 107 104 92 103 41 31 50 78 92 89 90 91 91 99 98 141 152 167 129 56 45 67 111 139 140 143 140 147 135 119 88 80 80 81 87 88 93 94 97 101 98 92 85 91 79 74 73 69 68 62 63 61 60 72 73 91 96 103 104 94 118 135 144 145 145 152 135 147 136 124 134 128 121 117 110 96 92 98 76 63 56 57 54 47 51 50 52 56 61 63 59 66 67 89 85 101 46 34 53 89 92 90 89 91 90 66 46 87 141 159 149 89 39 85 127 140 141 142 144 148 145 117 103 94 98 99 100 107 114 111 108 113 109 105 105 101 91 87 81 78 72 71 69 70 74 79 82 86 93 94 98 105 118 121 136 136 133 145 133 137 127 120 126 127 111 100 91 79 78 82 56 48 43 42 39 41 44 44 47 43 51 51 50 57 60 58 57 92 50 38 65 84 91 91 91 91 94 68 62 84 101 138 158 112 42 97 143 141 138 142 145 146 143 133 120 106 107 105 103 103 106 103 91 86 79 66 67 55 47 43 63 49 53 62 59 53 54 66 73 76 83 86 96 103 107 115 122 134 143 147 134 140 133 132 125 117 108 91 79 72 69 63 56 50 46 45 45 48 45 46 42 44 41 48 46 50 45 48 50 65 58 40 67 93 91 87 90 91 90 91 77 121 113 100 142 140 62 105 139 141 138 146 148 146 145 145 137 121 117 104 98 97 91 80 69 64 55 54 47 35 54 31 74 57 45 75 68 72 75 68 67 70 73 78 80 97 108 118 130 149 165 163 156 152 143 132 118 100 87 72 63 54 52 47 48 49 50 48 55 56 66 67 64 64 59 56 56 59 56 46 47 64 49 50 65 93 91 89 90 91 92 114 94 150 150 104 118 144 87 104 143 141 136 150 144 145 152 151 151 137 122 112 101 95 93 84 65 47 41 68 90 49 68 61 33 70 55 104 129 89 64 83 95 82 89 78 80 92 102 118 137 155 172 160 161 160 155 131 109 84 58 52 49 54 52 43 37 46 40 36 43 50 55 58 58 83 82 86 85 81 73 60 54 81 44 62 81 92 91 86 97 89 93 141 129 145 166 145 122 132 112 114 138 142 141 144 146 152 147 155 149 147 138 127 115 108 101 82 72 63 60 79 119 98 60 83 74 79 89 135 140 120 92 80 83 110 125 106 86 96 105 112 136 163 175 173 170 171 155 125 98 58 70 77 70 68 81 39 50 53 129 38 24 53 40 54 55 43 63 82 87 88 83 69 70 100 50 74 81 88 87 89 91 91 90 157 131 150 164 157 139 114 115 114 135 142 136 145 150 151 156 162 152 152 147 138 136 126 113 104 91 94 88 95 113 122 99 82 78 95 119 130 118 104 92 112 93 89 137 124 108 103 108 122 149 163 175 178 177 174 148 118 80 74 114 94 73 115 116 48 68 43 44 72 31 71 84 31 41 59 50 66 81 87 89 81 85 106 53 57 75 95 89 87 90 91 91 139 128 149 154 138 105 93 122 121 131 144 142 138 150 149 156 159 158 158 153 156 156 150 140 133 128 126 116 111 113 115 124 112 122 112 113 113 114 114 108 113 121 124 127 120 115 112 118 132 154 160 168 184 172 173 151 107 86 98 99 88 112 107 134 85 67 77 74 74 61 107 94 65 41 44 55 75 77 87 92 98 99 111 40 75 89 85 93 87 89 91 91 122 135 155 143 127 91 52 137 138 123 138 138 143 143 146 162 157 160 158 161 158 161 159 154 149 145 140 137 132 129 121 123 112 114 110 114 113 111 108 106 114 118 130 129 117 114 126 129 142 151 159 167 182 177 171 150 112 95 94 111 108 102 101 104 113 95 79 76 84 112 125 103 74 63 57 52 72 86 92 103 107 105 113 39 114 99 84 91 91 89 91 91 105 141 164 137 112 84 78 157 151 117 133 136 144 142 145 154 153 159 160 163 167 163 165 160 156 150 145 140 138 139 135 135 132 129 128 124 123 119 116 118 117 118 126 123 120 135 145 146 150 150 161 169 182 181 174 165 117 97 100 116 122 114 106 115 121 119 114 106 108 109 109 99 83 74 66 71 88 98 107 117 111 109 111 66 116 101 82 89 88 90 92 87 103 133 177 126 108 88 117 164 156 115 131 133 143 143 147 155 155 154 162 162 169 162 170 164 162 161 157 151 147 140 143 140 143 134 138 136 134 128 129 120 128 130 131 132 141 155 154 155 155 153 163 168 185 187 173 172 129 101 106 108 120 118 112 109 108 108 107 98 102 103 98 98 95 96 94 97 108 113 116 119 119 110 106 85 126 84 86 92 90 89 95 88 111 125 177 126 115 120 146 159 155 119 126 133 136 143 148 151 152 158 161 168 166 168 173 165 168 164 169 164 162 156 148 156 155 147 146 144 138 131 138 143 150 144 147 153 159 161 153 153 158 158 163 168 189 187 181 170 137 101 115 113 110 120 120 114 116 117 116 115 113 110 111 112 111 114 115 117 126 124 126 127 118 112 99 110 124 81 86 91 87 92 93 89 133 113 174 136 121 131 142 154 156 118 124 129 133 140 150 150 150 153 165 160 166 167 172 168 167 172 169 166 168 161 157 155 154 152 146 150 152 153 164 166 164 156 161 156 158 159 152 154 157 159 161 173 190 183 180 166 138 110 112 123 116 117 120 121 120 125 122 122 121 120 117 123 120 122 125 129 133 131 130 126 122 111 97 121 105 81 91 89 90 93 94 90 148 110 168 152 129 125 136 139 153 124 123 128 131 140 147 146 148 151 155 155 159 167 170 169 166 170 170 162 168 162 159 154 159 156 158 166 168 171 172 173 167 162 168 167 158 160 157 158 156 160 160 180 193 184 184 166 140 117 114 118 126 121 124 126 121 125 132 130 131 128 128 133 131 130 135 138 136 137 129 128 118 112 101 119 93 86 88 91 89 89 90 92 163 120 128 165 148 138 133 121 151 126 120 126 127 137 142 150 137 152 146 153 155 161 166 165 169 169 166 167 166 162 162 166 169 171 167 171 169 165 172 173 170 167 171 164 162 161 161 159 156 163 166 182 188 182 180 166 144 124 115 115 124 128 127 131 130 126 131 131 130 131 130 135 136 137 141 142 134 136 129 124 116 109 108 114 84 86 89 91 86 93 89 90 151 146 119 129 153 162 158 114 130 130 119 123 124 131 140 144 138 151 150 148 154 156 159 161 166 164 164 168 168 167 172 171 171 173 166 170 171 159 170 173 168 166 169 162 160 160 160 161 160 163 170 185 188 184 175 166 148 128 118 113 122 131 133 134 125 138 137 132 131 128 133 133 138 139 140 140 136 134 129 118 116 109 119 109 86 86 91 91 88 91 90 90 135 155 149 133 140 162 165 146 131 131 118 120 125 128 135 140 141 145 147 149 149 153 155 157 163 162 162 165 170 168 172 174 172 170 172 167 173 166 169 170 167 160 165 150 149 155 155 163 161 167 172 183 185 181 179 166 157 135 122 117 123 133 136 138 133 132 142 137 138 134 137 135 141 141 142 138 137 132 124 118 105 121 122 113 88 88 88 91 90 91 89 87 88 147 160 157 147 146 154 152 138 129 118 120 122 126 133 133 139 144 142 147 147 150 153 157 160 163 160 159 172 168 173 173 171 169 170 168 175 173 171 166 162 152 140 142 135 151 153 160 162 170 173 186 186 182 181 173 157 144 124 111 121 132 142 141 143 135 139 142 143 144 140 135 137 137 140 137 133 127 121 116 99 119 119 113 94 83 87 92 89 90 90 90 70 110 153 166 160 147 156 154 149 128 117 123 116 122 133 131 130 137 142 142 145 147 156 157 162 159 161 162 167 170 174 169 169 168 165 167 163 171 166 160 143 132 131 144 145 151 152 154 163 171 176 186 181 182 180 174 158 145 129 108 111 127 142 144 148 140 142 142 139 148 141 135 135 133 139 132 127 121 117 111 102 120 98 123 91 82 92 91 91 90 90 92 78 76 117 156 163 165 170 165 160 134 119 119 121 122 129 131 129 130 141 142 144 147 147 153 157 157 154 163 167 168 173 167 169 172 168 164 159 166 157 145 130 125 134 150 155 149 150 161 167 173 178 183 181 184 182 172 161 150 127 114 109 119 139 144 143 144 140 137 139 143 141 137 135 132 130 125 123 115 115 107 106 103 105 121 85 82 93 90 88 91 89 86 79 80 66 122 150 154 167 163 162 148 117 117 125 120 128 132 130 131 138 144 142 143 150 143 149 154 154 162 163 165 169 167 169 166 165 154 157 154 144 137 122 127 135 151 154 148 152 165 167 171 181 182 186 184 182 169 160 150 131 120 116 113 138 140 143 143 140 135 138 142 139 139 132 131 124 123 119 116 112 98 109 106 117 110 79 87 90 88 92 87 91 90 81 78 78 70 106 135 151 158 157 151 121 117 121 121 126 131 130 131 133 139 143 142 146 144 149 153 154 157 163 168 167 167 168 164 161 148 143 142 131 139 113 130 136 150 146 137 157 165 166 169 172 178 184 187 181 164 163 149 128 115 119 108 127 134 138 141 131 130 134 137 139 135 130 128 122 122 116 119 106 96 115 115 119 91 79 90 87 90 89 86 91 86 80 79 82 78 75 82 127 137 143 142 124 119 118 129 124 133 133 131 133 140 137 141 142 143 147 147 152 156 165 168 158 166 159 158 150 146 136 139 141 147 121 127 137 145 143 140 149 151 164 163 165 167 178 179 174 158 150 146 119 108 121 109 116 130 136 138 140 133 133 136 137 137 135 129 122 117 113 113 98 102 120 122 108 81 86 88 90 86 88 87 89 86 80 80 80 76 78 72 76 89 103 127 123 120 119 127 123 135 128 132 132 136 138 138 143 147 147 151 156 154 163 165 160 160 153 151 145 138 133 149 152 157 124 118 129 132 137 130 128 133 147 148 153 159 162 161 156 149 134 124 107 110 105 114 118 121 131 130 137 142 133 135 139 134 133 129 116 116 112 105 94 112 130 120 92 81 86 83 89 89 91 85 88 86 81 81 78 82 80 78 79 78 71 88 126 118 121 124 128 126 135 133 137 134 135 139 140 146 146 155 158 154 159 158 158 158 147 147 135 132 147 161 165 168 138 110 111 117 114 110 100 111 125 132 137 139 144 141 135 128 115 101 97 99 105 123 124 120 123 128 134 141 130 129 133 129 123 120 114 110 111 93 101 118 123 106 80 85 84 88 86 88 86 88 87 85 83 80 78 81 77 78 81 80 82 59 116 124 119 127 127 129 129 132 135 131 139 142 142 144 153 154 157 147 161 158 154 152 145 143 147 148 166 170 172 169 151 132 98 89 78 70 53 64 101 111 121 124 122 124 121 102 79 73 91 85 111 135 128 126 121 129 129 134 130 129 126 127 122 114 115 112 104 91 106 114 107 86 80 83 86 85 89 84 89 83 87 83 81 79 79 81 78 79 80 76 82 63 89 125 118 127 129 129 134 127 134 134 132 134 140 143 139 152 157 160 158 159 157 156 155 153 157 165 170 169 172 173 167 149 128 80 73 77 79 71 65 95 103 109 106 99 92 69 39 53 81 95 124 140 131 136 123 126 125 125 132 129 128 123 124 118 109 105 102 87 99 93 83 77 86 83 85 87 84 86 86 85 86 86 78 80 77 81 78 78 80 76 78 76 66 121 121 126 130 124 133 131 122 137 134 135 138 144 142 150 155 158 162 158 156 158 160 162 168 165 168 170 167 172 169 164 154 120 105 104 100 82 73 71 76 78 78 74 61 62 55 76 88 119 133 136 133 135 130 128 125 118 131 130 125 120 119 111 110 104 104 79 77 78 80 84 82 84 85 83 86 86 85 82 86 85 78 84 75 79 81 76 80 79 77 79 61 101 125 126 126 130 130 134 130 130 136 130 137 141 147 144 146 156 160 157 159 162 164 162 166 160 164 169 164 159 164 158 163 147 133 124 120 108 90 75 74 69 70 77 81 91 97 110 117 125 136 137 137 138 129 127 132 122 131 128 121 120 120 113 103 103 98 76 77 81 81 80 81 83 83 85 84 86 84 87 87 85 78 81 80 77 77 79 74 80 76 78 65 85 124 126 127 127 133 133 134 130 135 130 135 141 144 147 143 157 157 160 167 161 162 166 162 158 164 165 160 154 155 163 168 156 146 130 133 132 117 103 96 93 92 100 115 125 124 126 129 126 128 136 134 134 135 134 127 132 127 123 120 120 115 108 106 103 95 75 77 80 78 83 81 83 83 85 83 82 84 84 85 85 82 78 78 78 76 79 76 78 78 76 75 68 123 126 127 126 131 131 132 134 138 133 136 138 145 152 156 156 160 160 166 154 151 163 162 158 164 168 162 157 159 164 166 166 154 144 136 138 125 119 126 122 123 126 133 138 134 131 128 129 132 133 130 134 134 130 130 128 128 123 122 117 111 106 101 103 88 71 78 78 78 85 78 85 83 82 85 82 83 86 83 85 79 79 80 79 77 80 75 78 75 78 78 60 115 122 126 125 130 130 131 132 134 136 136 142 147 154 156 157 159 158 160 158 148 152 165 162 158 165 161 159 161 167 173 160 159 161 150 134 116 130 135 133 138 143 139 134 136 138 137 138 137 136 130 135 133 133 127 128 129 124 122 113 112 105 101 102 77 77 78 82 78 82 83 82 82 82 85 81 83 84 83 84 80 80 79 78 79 78 80 78 78 78 80 59 111 118 127 125 130 126 131 133 132 136 138 144 146 155 154 160 157 161 162 157 153 148 161 159 149 154 159 157 159 161 164 165 162 166 172 150 140 147 140 144 147 142 146 135 139 136 140 133 137 135 134 131 128 133 128 128 128 126 119 115 111 107 103 98 74 76 81 74 81 80 80 84 81 83 80 84 82 83 82 80 79 79 78 79 80 77 78 78 79 75 77 59 115 118 123 125 131 132 121 135 129 138 144 144 143 155 152 160 155 160 163 155 147 143 146 147 141 146 150 152 152 149 145 141 143 147 156 154 150 157 156 152 152 141 138 129 127 127 132 131 133 132 129 125 126 130 127 128 129 124 116 115 112 105 105 90 71 76 77 78 79 78 81 81 81 82 81 83 82 82 81 81 76 79 77 77 79 76 80 76 77 77 79 60 118 120 120 122 132 134 125 132 135 134 138 143 143 154 154 153 154 158 159 148 143 128 123 124 130 132 133 126 115 111 105 95 101 101 98 104 114 126 141 137 126 112 106 105 107 111 114 115 120 124 119 119 120 125 131 130 126 125 114 113 111 107 101 80 70 72 79 80 77 81 80 79 80 83 83 81 79 81 82 84 79 77 78 77 78 77 77 76 74 79 74 61 124 124 115 117 128 131 129 131 136 133 134 136 136 152 155 158 155 154 147 138 130 117 82 85 93 98 95 90 75 67 72 73 64 80 77 78 82 85 90 91 83 78 86 91 87 91 95 91 93 102 103 110 116 126 131 130 125 124 114 113 110 107 99 67 73 75 75 75 79 79 82 77 81 81 82 80 79 82 77 81 80 76 78 76 78 77 76 76 77 77 73 63 121 129 115 116 126 131 134 135 135 136 136 123 134 145 153 154 150 148 141 140 129 132 94 68 60 57 50 42 33 27 45 44 23 73 83 76 64 61 78 74 76 55 57 59 44 49 65 68 73 72 71 98 119 123 129 127 120 122 115 109 108 107 81 68 74 75 75 75 79 76 80 78 76 84 76 81 80 79 77 78 76 75 79 76 78 74 78 76 77 77 72 61 131 130 119 110 123 129 139 131 134 138 140 123 133 142 149 153 145 139 139 142 139 150 147 133 116 96 89 79 78 81 79 70 46 61 72 73 63 51 79 76 80 48 38 44 34 25 25 34 48 57 75 107 125 122 125 128 123 118 114 110 111 101 72 69 74 75 78 73 81 79 80 75 79 79 77 80 80 76 80 78 77 76 75 80 77 74 77 76 75 76 74 68 134 130 130 106 114 126 133 135 135 136 139 134 134 140 146 148 147 138 140 151 150 160 165 159 143 130 131 125 127 144 144 140 131 125 119 110 111 103 100 105 95 87 84 87 87 87 77 81 85 103 120 125 131 120 120 126 121 120 110 109 110 93 61 70 74 73 75 76 74 78 74 77 78 77 80 79 78 78 78 77 78 75 77 78 75 80 76 74 75 80 67 72 137 127 135 119 108 118 129 136 132 139 135 134 137 139 144 141 137 144 146 148 152 158 168 168 150 135 137 129 126 141 142 156 155 158 155 151 151 146 138 140 135 129 127 132 127 123 115 105 107 118 127 130 124 128 120 125 121 114 109 107 103 72 67 69 75 71 74 74 77 76 76 75 79 75 81 77 76 79 78 76 78 77 76 78 75 76 76 76 78 79 66 82 132 128 132 134 111 109 122 128 129 132 134 132 137 138 141 138 144 150 146 149 154 161 165 166 164 143 135 123 121 127 132 133 138 145 144 147 143 149 151 149 144 146 138 131 124 119 106 104 111 121 135 134 122 126 122 120 116 112 109 108 96 59 64 72 74 73 72 75 74 77 76 79 75 76 77 77 76 74 78 75 76 77 74 77 75 74 79 76 77 81 59 89 137 129 128 131 120 108 117 120 127 135 128 133 136 132 137 144 144 145 147 148 149 155 163 163 164 162 143 136 131 128 126 122 124 126 118 118 118 124 129 119 111 121 116 115 111 108 104 108 112 128 129 128 123 125 118 115 117 109 106 105 68 60 66 73 72 75 72 75 76 75 77 75 75 76 78 78 76 76 77 75 74 79 76 76 78 78 74 77 78 75 58 98 132 132 117 126 119 105 110 115 124 129 128 130 139 132 137 145 149 149 154 155 141 144 163 152 161 156 152 142 129 137 137 126 120 118 113 105 95 103 101 101 96 103 106 104 107 107 111 114 121 129 118 119 126 119 120 119 105 108 111 80 57 62 66 70 73 73 73 73 76 75 73 79 74 79 74 76 75 78 76 75 77 78 75 74 77 76 75 74 74 83 54 105 137 130 125 119 121 108 105 108 113 126 125 125 132 135 130 137 147 152 158 162 154 150 161 150 158 155 153 147 134 131 124 124 114 114 115 105 97 97 88 98 102 102 108 110 110 113 116 115 125 127 118 117 127 124 118 116 107 107 103 58 59 64 68 72 69 74 73 73 75 76 75 75 77 75 75 74 75 75 75 75 79 75 74 78 75 75 77 73 78 73 60 118 126 127 126 120 117 114 103 101 105 115 119 125 129 133 132 131 143 149 151 160 152 152 159 160 158 154 157 151 137 144 131 122 120 116 116 113 110 107 102 106 112 109 114 111 114 114 115 121 120 129 116 115 123 116 118 108 104 109 76 49 61 65 65 72 69 72 74 73 73 73 73 74 76 75 74 74 73 72 76 73 77 75 77 77 77 74 76 78 75 79 62 119 136 132 120 120 124 111 105 101 95 110 111 115 122 126 127 130 140 144 147 148 153 156 147 155 146 156 157 152 144 143 144 149 137 136 132 129 121 121 117 119 123 125 122 116 119 124 127 127 125 124 120 126 118 119 110 105 109 85 56 57 61 64 72 68 72 71 73 72 73 74 73 76 74 77 73 74 71 76 74 73 76 73 79 73 76 73 78 75 77 67 74 133 130 136 128 110 123 113 111 109 99 100 112 109 112 123 122 131 138 142 144 144 145 156 153 150 149 153 162 155 159 159 152 159 159 157 159 149 142 130 137 138 136 131 131 133 127 130 139 135 130 127 119 125 121 114 114 106 98 61 58 60 62 67 70 70 69 72 73 73 72 72 71 76 72 75 73 72 73 71 75 71 77 74 78 72 77 76 77 76 77 65 91 135 134 137 131 117 117 123 118 113 104 97 94 108 108 114 120 127 131 139 145 146 150 157 161 149 159 157 153 162 170 168 167 168 168 165 169 164 160 153 142 153 146 145 140 143 140 139 135 139 132 129 126 123 121 113 106 104 70 52 63 59 62 67 70 71 68 75 69 75 67 76 72 73 71 74 74 71 76 71 73 72 79 76 75 76 75 77 74 76 77 56 108 138 135 133 132 128 121 125 121 116 106 100 91 90 107 110 111 120 126 132 140 139 140 149 157 151 151 160 156 158 167 160 161 169 167 172 165 169 161 157 152 153 154 162 154 149 148 149 145 142 134 126 129 122 120 107 103 100 54 57 60 61 64 67 68 69 70 72 71 73 70 73 73 71 72 74 70 73 74 70 71 76 78 74 80 72 77 75 76 75 72 73 123 140 139 135 127 133 124 123 120 116 114 104 97 94 92 97 110 112 117 126 135 133 135 141 149 144 146 155 162 164 159 162 159 166 164 166 166 162 159 161 158 159 154 158 156 148 158 152 147 144 138 129 126 118 108 104 86 96 53 57 58 64 64 72 66 69 72 69 72 72 71 71 72 71 73 75 68 73 68 73 72 70 77 75 79 71 72 83 92 101 95 113 129 139 139 145 135 131 125 124 119 120 119 107 106 95 95 93 98 107 107 115 127 129 131 135 137 140 140 156 153 154 160 157 162 162 164 165 161 159 158 159 160 162 161 155 149 146 156 149 146 140 136 129 116 116 105 93 84 104 50 58 59 66 67 70 66 70 71 71 74 71 70 71 72 71 73 71 70 74 70 72 71 69 73 75 71 93 120 165 152 139 124 124 129 138 141 144 139 135 124 123 124 117 121 115 111 102 99 97 94 94 105 106 112 125 128 128 131 137 140 148 142 137 150 154 161 159 160 159 161 153 156 155 153 154 154 153 147 150 149 149 140 135 131 122 115 107 95 82 91 101 50 62 63 69 67 71 67 71 68 71 70 71 71 73 72 69 75 71 70 74 72 69 72 68 75 86 140 183 200 158 134 132 131 126 131 140 142 143 140 140 130 124 130 121 120 118 110 108 107 98 92 95 100 96 105 114 121 123 128 132 135 139 133 125 145 153 157 159 152 152 153 150 148 149 146 147 144 144 146 145 143 139 134 128 121 119 110 96 78 87 99 97 47 63 62 66 69 70 68 71 70 68 74 67 73 72 71 70 70 73 66 73 65 73 70 66 150 179 199 205 188 140 139 137 138 132 134 141 142 144 141 140 137 125 130 128 122 117 110 114 110 106 98 94 101 98 87 101 110 116 115 125 127 128 130 133 141 145 147 148 143 145 145 143 142 144 141 142 140 142 140 136 137 128 125 121 116 111 100 78 87 92 104 95 50 63 64 68 69 69 70 69 72 70 74 67 73 71 70 73 67 73 69 70 70 70 69 65 204 201 197 216 171 145 140 140 146 129 136 142 141 146 141 140 141 130 128 131 121 121 118 111 111 111 105 99 100 95 94 93 90 105 112 118 116 120 119 120 132 137 133 140 135 130 140 133 137 134 135 140 141 135 132 131 122 117 118 113 107 96 81 81 95 97 105 101 63 72 70 68 69 69 70 71 68 71 70 74 70 69 71 70 69 70 69 68 71 71 68 69 200 202 196 219 173 146 142 146 147 132 137 144 139 148 144 142 146 135 134 129 126 121 124 116 113 114 107 110 98 101 97 94 91 84 98 108 111 116 111 109 122 122 121 131 127 124 130 127 130 123 127 135 131 129 125 123 118 110 112 105 97 76 81 92 96 106 107 103 100 106 117 111 77 70 69 71 69 72 69 72 70 69 71 69 71 70 70 66 69 69 70 65 200 204 196 217 180 145 148 149 145 135 139 145 142 144 146 143 144 142 136 134 131 127 128 123 119 119 113 111 104 107 104 94 97 91 89 88 102 108 112 102 110 116 113 116 116 117 113 120 118 116 115 125 115 119 112 113 111 106 104 93 81 77 90 96 101 110 110 99 107 108 111 106 153 121 81 67 68 71 68 72 69 70 71 68 69 70 66 68 69 66 69 68 200 204 199 213 191 147 152 148 148 137 141 144 147 143 141 151 143 145 142 140 134 133 131 133 121 121 114 115 111 106 105 101 103 96 93 87 79 89 101 107 107 106 110 112 111 106 108 109 112 107 110 113 109 104 110 102 101 99 90 82 81 85 95 102 108 111 108 104 106 110 116 103 112 183 170 117 73 66 69 72 69 69 68 69 71 71 67 66 69 65 68 66 200 204 201 206 207 155 152 149 147 141 144 146 149 146 150 144 147 148 145 141 140 137 131 132 129 125 119 116 116 110 106 106 103 102 99 95 92 84 76 80 90 98 102 104 103 99 104 103 101 103 105 107 102 100 96 95 91 90 80 83 86 95 98 110 111 112 110 102 111 112 114 119 101 180 181 178 164 96 61 70 69 70 70 66 68 71 66 69 68 65 66 66 205 203 203 198 217 169 151 153 148 143 146 145 150 149 150 150 147 145 149 144 139 142 129 133 132 128 125 119 117 112 110 104 103 102 100 102 96 94 87 80 72 72 71 78 79 79 82 87 87 89 93 96 94 92 89 85 88 83 84 90 92 99 108 111 112 114 110 102 115 114 115 118 109 183 180 181 167 191 98 57 68 70 67 67 69 71 62 69 64 68 68 68 207 201 205 195 210 202 150 151 148 144 151 147 150 148 151 152 149 147 149 152 144 152 140 131 129 129 127 121 116 111 113 106 108 104 102 101 100 99 93 85 79 77 73 70 72 72 70 76 74 80 85 88 87 89 86 87 85 87 86 93 96 105 113 111 115 117 109 101 115 118 118 112 134 187 183 181 174 180 177 125 74 66 71 68 68 68 71 65 70 67 65 67 209 203 203 201 200 219 163 148 148 145 149 150 149 148 154 153 155 151 153 149 148 148 149 140 135 124 124 125 116 118 114 109 105 106 101 104 103 105 96 93 81 83 78 72 74 77 72 73 80 82 86 88 86 88 86 86 87 88 94 97 107 110 115 114 118 117 108 106 115 119 122 111 163 185 182 180 176 183 173 166 162 117 66 65 68 68 69 65 66 65 68 65 