P2
92
112
255
109 107 108 111 106 110 106 93 112 108 106 109 100 92 91 97 79 107 106 89 52 87 78 73 59 58 53 55 45 57 43 30 35 35 51 49 28 37 32 33 41 35 30 31 36 36 31 35 31 31 31 40 41 39 40 40 40 36 46 41 47 54 55 54 56 62 65 72 67 68 65 60 74 76 92 83 89 93 94 95 101 102 104 104 101 107 101 104 100 107 101 101 109 106 110 110 108 109 108 109 87 108 98 83 98 102 85 76 75 79 103 96 75 55 71 75 48 61 44 46 48 51 35 33 31 37 32 48 43 31 30 27 33 33 31 30 29 34 27 29 32 32 30 33 34 36 34 44 38 38 45 46 42 48 58 45 47 50 61 54 65 59 63 69 66 71 67 67 76 76 61 82 102 103 100 103 105 103 102 105 104 102 104 100 108 109 108 109 114 89 103 110 108 92 95 81 63 80 78 76 73 76 85 79 78 64 56 71 50 47 45 41 39 42 41 33 32 28 31 35 43 34 28 25 21 31 30 32 31 27 26 27 27 30 29 32 34 36 27 42 45 36 30 40 44 43 45 39 41 42 48 50 58 57 68 66 77 69 68 75 85 64 59 91 86 85 102 104 100 90 94 102 105 101 103 98 107 108 108 110 108 107 84 90 103 94 79 69 71 61 58 64 74 68 67 76 58 66 56 55 48 41 38 39 32 39 47 38 35 33 24 29 32 35 30 23 18 27 29 28 29 28 25 25 25 29 23 34 37 28 31 28 41 37 24 34 37 39 43 31 40 37 45 44 50 61 69 66 70 71 69 65 70 60 68 87 85 84 90 100 68 66 99 104 101 103 102 103 111 108 107 109 107 100 88 82 81 87 91 74 69 74 58 55 71 69 61 66 53 54 53 41 49 39 35 36 38 36 36 46 33 33 34 22 28 30 29 21 22 26 30 22 26 25 24 21 23 30 24 36 37 27 27 26 25 38 27 30 31 33 38 31 38 34 47 43 52 53 54 58 49 63 56 54 61 72 67 75 85 93 77 62 55 81 91 84 87 105 103 101 110 107 109 112 105 87 88 90 83 82 65 75 64 62 63 64 63 69 66 64 61 61 56 48 53 46 42 32 31 30 31 35 37 34 37 29 23 29 28 20 25 23 27 19 27 29 25 18 23 36 26 34 31 25 28 31 18 30 35 24 30 33 34 29 33 34 39 37 46 47 49 43 47 46 54 52 57 60 66 67 81 83 68 54 75 74 62 66 91 105 103 100 109 108 104 107 101 102 100 77 64 76 76 63 63 62 55 60 69 69 59 61 58 55 59 59 49 53 50 47 39 34 31 31 29 34 31 34 34 30 28 24 20 24 23 21 18 32 29 18 30 29 28 32 22 28 26 31 21 22 34 27 29 30 31 31 30 34 32 35 37 43 44 37 40 42 46 48 42 54 59 51 71 74 62 70 82 62 60 68 93 101 102 103 109 103 102 106 98 85 100 105 86 70 66 69 72 61 57 51 56 59 56 45 51 56 55 59 47 48 52 46 40 37 38 38 32 31 30 28 33 35 30 22 27 23 20 24 16 25 30 24 28 33 24 32 23 29 27 25 20 20 31 28 28 30 27 29 23 31 33 31 36 35 35 36 35 43 42 43 43 50 42 54 60 62 61 66 59 47 62 90 92 100 95 96 109 91 87 88 98 95 86 80 89 80 70 69 78 53 59 52 47 51 57 47 44 46 48 46 41 43 45 57 49 41 32 40 37 33 23 31 27 31 27 33 27 22 21 22 25 20 27 34 25 27 29 27 30 22 27 24 18 18 29 31 23 25 27 29 27 30 34 31 32 29 29 33 35 42 35 43 45 41 35 50 54 51 47 51 50 53 52 67 68 74 77 63 112 91 75 70 65 71 76 68 64 67 77 71 69 67 60 53 50 41 44 49 40 39 36 36 33 35 35 38 52 51 47 37 41 37 28 32 25 27 27 31 34 29 20 24 26 23 25 31 26 20 32 27 33 26 29 29 19 24 23 32 27 20 31 33 30 34 36 35 26 24 24 33 33 39 41 39 40 39 36 47 37 40 42 45 47 44 47 48 64 70 59 49 111 104 100 95 71 68 73 68 68 65 73 61 60 55 52 52 53 45 41 46 45 46 43 45 43 40 36 31 31 34 31 39 38 42 30 31 28 32 29 25 32 34 26 29 27 28 24 31 27 24 25 33 29 34 30 32 30 22 28 24 35 26 31 26 27 29 23 28 26 20 23 31 34 44 40 36 37 32 36 37 32 38 37 43 52 50 57 62 51 52 58 49 91 99 92 80 79 75 73 51 49 50 55 60 60 54 52 41 47 42 53 51 42 44 44 40 41 39 37 35 31 29 26 29 28 33 30 39 31 29 32 27 28 27 34 32 38 26 24 29 32 27 23 33 33 28 29 34 29 30 27 25 27 27 27 29 25 27 30 24 20 22 28 28 28 43 35 35 37 27 33 34 32 31 37 42 46 52 46 52 41 59 73 78 61 58 64 59 58 46 41 52 48 50 55 54 49 46 40 48 52 50 53 48 50 40 38 33 33 31 27 29 30 28 25 29 31 26 25 29 34 43 36 31 30 30 37 32 38 29 27 28 36 28 29 27 37 28 30 26 33 31 27 30 21 28 31 28 20 21 28 32 28 21 29 24 22 34 34 38 42 29 24 31 27 28 33 33 44 44 39 56 46 66 66 53 86 63 64 58 50 46 45 43 54 52 42 42 45 42 47 57 57 59 53 50 53 45 39 35 33 31 29 26 34 35 33 29 35 33 29 35 28 36 39 47 38 39 44 39 39 31 28 33 52 33 37 32 41 30 31 29 24 32 31 29 24 24 38 21 21 22 21 15 33 41 23 17 22 30 39 35 37 25 25 29 25 25 30 28 34 47 55 50 40 53 54 53 74 55 58 57 63 59 51 51 49 51 51 58 68 63 59 60 64 53 58 59 53 52 47 41 41 38 43 41 41 47 40 42 34 43 50 43 46 50 41 42 54 46 43 50 44 41 35 39 51 52 40 40 46 35 41 36 29 35 33 31 33 27 29 28 20 23 21 22 16 29 34 17 20 33 43 29 32 27 23 27 24 25 24 27 28 42 47 42 42 49 54 68 67 63 54 44 51 51 49 60 58 59 77 82 68 66 49 56 52 60 51 57 78 70 65 71 63 57 59 55 54 49 49 49 42 46 47 55 48 44 53 47 51 53 49 52 50 47 45 55 49 69 57 46 45 42 35 42 33 37 34 36 43 37 23 35 22 25 21 20 25 24 23 26 26 41 35 28 25 34 18 28 24 23 21 26 26 32 34 40 44 46 64 80 90 67 55 52 45 45 50 56 65 76 79 81 67 62 50 55 55 54 54 63 66 75 87 80 82 72 72 58 68 62 64 50 47 47 46 51 56 46 51 51 53 63 60 55 60 52 52 50 56 67 62 67 56 51 46 41 38 44 36 45 36 50 53 42 37 24 28 23 25 20 28 28 34 22 43 28 27 30 24 30 23 25 20 25 24 30 27 36 46 59 69 67 71 60 46 50 51 53 57 66 76 73 73 67 54 53 46 51 50 58 68 61 74 86 82 79 73 68 69 59 53 60 56 51 46 38 44 52 50 52 55 57 61 65 79 75 63 62 61 64 59 70 62 75 70 66 51 53 40 47 44 49 46 41 63 53 51 39 28 32 29 21 16 50 35 25 37 37 22 30 33 25 21 27 22 20 28 25 30 38 42 51 53 53 53 48 60 67 64 67 64 71 73 66 60 47 41 42 39 42 57 60 70 74 85 86 93 81 80 79 68 69 68 59 68 55 53 48 51 49 50 64 65 66 64 66 61 61 68 76 76 70 75 83 83 82 82 61 57 59 57 53 63 53 61 38 58 79 59 56 38 38 31 28 25 34 52 19 39 44 25 32 42 27 18 27 20 21 26 25 34 34 40 47 39 48 70 61 65 63 66 59 63 69 69 59 45 35 38 37 45 54 64 65 69 71 74 92 93 79 77 79 74 77 78 75 73 62 56 53 56 62 62 66 68 72 70 63 70 81 84 78 77 95 95 95 70 67 79 76 78 70 66 67 63 71 59 54 61 62 68 66 59 54 39 32 31 29 45 36 29 46 40 32 36 33 24 24 21 20 22 26 33 26 36 36 33 57 66 63 57 50 52 58 54 71 68 42 41 30 45 50 54 52 56 58 68 72 67 81 93 87 87 87 83 80 85 87 85 75 72 70 65 67 67 68 68 74 71 68 80 90 96 89 90 84 94 82 71 64 80 83 80 78 66 70 47 57 77 61 61 68 61 56 58 59 43 44 31 34 30 49 32 35 46 27 29 35 32 27 21 20 27 23 24 29 35 30 49 46 65 64 60 51 57 48 55 64 60 42 33 44 55 54 48 52 55 64 67 74 83 80 85 85 94 96 95 91 86 88 86 91 91 84 78 88 86 77 76 77 79 76 94 87 80 86 87 81 86 75 88 69 61 80 87 71 72 71 55 50 74 81 72 63 65 59 59 56 53 49 37 36 36 38 42 33 42 36 26 34 38 27 26 20 23 22 24 27 31 28 41 55 86 82 69 53 46 51 59 58 47 41 39 51 51 47 47 56 65 66 70 78 83 84 85 86 87 88 90 89 94 93 97 98 97 95 92 87 86 85 83 91 87 98 97 82 78 97 86 88 88 79 100 70 57 83 86 68 68 67 58 62 60 69 82 70 65 70 56 61 59 46 47 38 43 36 42 29 39 41 29 35 43 30 29 23 20 24 25 25 27 24 36 49 90 71 50 42 39 56 55 48 44 42 48 52 46 51 53 65 74 77 87 89 90 94 96 95 98 99 99 98 104 110 114 112 112 109 105 98 100 98 95 100 100 95 108 83 98 100 98 87 87 97 83 71 65 90 91 68 63 79 61 64 68 72 58 72 75 77 64 47 64 54 50 43 45 44 42 37 33 40 35 36 40 36 25 26 20 25 26 21 26 28 34 28 92 58 37 41 40 50 48 41 46 46 47 51 48 52 60 76 87 93 98 102 104 107 107 109 114 119 123 123 127 128 130 134 134 128 126 115 110 109 108 107 104 105 114 100 110 108 106 92 85 91 84 79 70 88 80 64 70 91 70 64 76 75 76 52 72 78 70 58 53 61 50 52 46 47 45 39 36 40 35 39 38 42 27 28 25 19 25 22 25 30 26 31 72 43 37 41 43 46 43 43 47 53 49 44 49 57 73 92 103 109 109 119 118 127 128 132 139 145 144 145 141 146 145 145 147 141 146 142 135 120 114 118 123 125 117 126 128 112 114 104 86 94 95 83 72 83 75 70 84 86 75 72 75 78 79 60 70 76 76 66 56 57 62 55 56 52 54 49 42 41 40 47 33 53 35 28 23 23 22 23 23 29 22 30 69 42 39 45 45 37 42 43 47 49 44 45 59 66 89 112 117 116 124 137 140 149 149 150 146 143 146 152 156 146 145 144 148 148 150 145 142 134 132 135 136 137 130 136 130 129 124 105 97 104 89 83 85 89 83 81 97 91 84 82 86 85 73 81 70 77 84 82 74 67 71 74 63 60 62 55 55 49 48 48 44 51 42 35 29 26 20 22 26 26 24 25 55 43 39 43 43 39 39 43 48 43 43 53 63 88 111 123 122 123 136 148 156 156 155 159 151 147 141 143 138 133 139 150 156 157 151 148 151 139 136 137 144 142 147 140 141 143 116 113 114 111 95 102 99 107 89 91 102 113 98 94 95 98 88 83 88 92 90 87 92 88 89 89 86 75 68 71 71 64 58 56 60 55 51 37 34 29 23 20 27 24 24 29 58 43 40 41 38 42 42 49 45 43 50 57 76 106 126 126 128 138 146 153 157 160 158 156 146 152 151 155 155 157 160 160 153 151 151 155 155 139 142 150 155 151 153 152 156 134 110 133 132 116 104 112 104 109 99 97 105 112 107 102 102 109 103 95 99 103 102 90 100 98 99 99 102 104 89 83 82 86 84 69 73 70 59 46 31 27 26 21 22 26 22 28 60 53 43 40 37 47 40 50 43 46 52 66 88 117 130 127 137 143 152 159 160 162 166 154 160 157 155 152 141 149 154 159 157 159 155 157 158 143 146 164 160 148 159 162 161 113 127 140 137 122 110 112 125 122 124 112 137 135 122 118 119 95 95 102 108 114 112 109 104 111 113 110 105 109 115 109 106 94 109 97 85 84 70 48 38 29 27 23 24 26 21 29 84 58 39 35 47 53 42 48 47 48 57 74 97 120 132 131 140 147 152 159 161 168 163 163 158 151 144 143 149 156 156 159 154 158 162 160 166 150 161 162 143 143 162 168 150 116 148 142 138 120 110 115 134 138 125 122 139 146 126 136 144 134 122 100 112 124 120 128 113 120 124 121 122 124 129 128 123 112 115 119 105 97 89 66 38 29 25 24 24 24 22 29 92 59 36 42 59 53 46 48 44 48 58 78 99 120 129 135 141 146 150 161 162 166 165 167 165 160 154 161 159 153 157 164 160 169 172 173 167 165 174 148 132 156 165 163 125 138 156 142 124 121 116 118 139 139 127 124 145 142 127 133 141 139 144 123 114 124 123 131 132 122 128 133 132 137 137 136 133 119 123 121 112 107 94 80 46 33 26 24 23 26 28 33 79 48 49 56 56 50 47 46 48 52 66 79 97 118 132 136 140 147 150 160 164 162 169 169 168 159 144 153 160 146 142 155 162 166 172 175 166 176 161 137 158 159 169 157 112 141 153 135 128 121 120 127 141 137 120 138 148 135 126 132 135 137 137 139 120 109 127 127 137 135 124 125 142 143 138 136 134 131 123 119 107 116 104 93 68 36 40 20 20 28 26 29 74 55 49 58 53 45 46 44 47 57 68 80 101 122 131 135 141 142 152 156 156 161 160 165 162 165 154 159 160 154 142 154 167 168 168 173 170 173 145 138 160 155 153 141 121 141 149 137 129 121 112 126 142 130 117 140 141 130 127 134 134 133 133 139 137 116 118 116 123 145 154 105 128 145 141 132 140 135 124 120 117 105 113 101 80 58 40 40 23 21 23 28 85 55 57 50 43 43 47 45 54 60 76 85 102 122 128 132 141 144 153 157 157 163 158 160 167 172 165 162 159 164 158 161 169 166 168 169 175 160 154 141 155 160 151 146 132 146 152 144 129 118 107 137 141 120 128 142 128 124 124 140 142 130 130 141 139 145 112 132 108 135 154 148 115 126 135 133 135 137 126 118 116 105 108 109 90 61 57 47 29 30 22 20 91 59 52 38 45 42 50 48 54 64 82 94 108 116 122 132 138 143 150 152 159 162 160 158 167 164 168 160 162 163 164 167 167 172 169 169 171 154 160 163 158 164 151 151 149 153 158 142 129 106 118 145 136 124 134 136 134 140 138 143 146 130 122 133 140 140 142 105 131 131 131 127 139 127 121 125 133 136 130 121 111 102 103 107 91 71 61 53 35 31 28 26 91 74 54 44 43 43 51 52 59 67 81 88 101 112 124 129 139 143 147 150 158 159 160 163 161 160 167 167 163 163 167 169 172 172 168 169 163 163 169 165 169 164 155 163 160 161 161 146 128 107 133 138 123 134 143 133 146 149 150 147 140 133 128 135 133 136 141 115 130 128 143 122 106 131 132 130 121 132 128 119 109 104 104 98 88 74 70 45 50 24 32 25 85 89 59 43 42 47 52 56 63 69 79 89 98 112 125 128 138 140 146 154 153 165 165 167 159 157 163 161 165 168 169 168 164 168 172 173 167 174 172 170 173 163 153 163 165 156 157 149 116 121 136 126 128 149 138 147 154 156 154 152 146 142 140 136 134 138 125 132 125 133 124 127 115 125 129 131 134 128 126 115 109 102 100 93 75 80 67 46 51 30 30 40 88 91 62 44 39 52 51 61 64 73 83 93 104 114 124 132 137 141 141 151 156 162 162 166 163 162 168 166 174 174 173 173 167 175 175 172 168 173 176 173 173 170 158 165 163 158 162 137 114 132 131 130 142 147 146 156 156 155 153 156 156 149 145 136 142 138 129 133 136 137 129 128 126 129 136 131 134 126 123 111 108 103 92 82 69 79 62 54 48 42 30 36 85 94 71 40 43 49 53 57 62 76 95 99 106 118 125 134 140 137 139 152 156 160 161 166 169 173 174 173 174 172 167 179 177 175 171 185 177 177 179 172 171 178 167 157 154 149 147 119 120 137 145 140 146 146 156 160 158 153 156 164 153 142 135 148 152 130 135 144 137 138 137 130 129 134 133 132 133 126 117 110 106 102 89 67 65 74 59 57 53 35 41 44 86 91 72 43 46 46 54 54 68 92 110 113 116 120 128 134 138 135 141 148 153 157 164 165 169 174 179 169 177 177 176 179 182 178 181 187 187 176 179 181 171 170 174 161 158 148 148 133 148 150 155 157 146 156 164 160 159 162 158 164 147 131 151 158 161 139 132 147 145 145 140 134 135 131 134 129 131 120 116 108 103 96 81 65 57 64 62 54 56 41 39 47 86 92 78 42 48 44 55 48 83 108 122 126 126 127 130 134 137 137 144 146 155 163 164 169 166 174 179 175 178 180 183 179 183 182 176 175 184 181 181 184 182 179 178 168 164 158 156 148 157 162 166 166 155 167 167 164 167 169 163 162 145 143 159 163 160 142 139 148 154 152 147 135 140 136 137 130 128 120 113 105 95 93 74 61 51 56 56 58 47 53 45 36 84 90 82 47 45 49 49 57 106 125 128 136 132 132 132 136 136 140 143 152 155 163 167 169 167 174 178 178 178 179 183 180 184 179 179 173 178 182 183 180 182 183 173 165 172 170 167 165 160 172 167 168 169 173 168 167 171 170 158 152 156 160 162 161 159 147 136 154 152 152 147 145 143 140 136 133 124 118 112 101 98 84 66 57 45 54 52 60 51 51 54 55 86 88 85 55 45 46 49 65 122 130 132 138 136 136 134 137 138 145 149 156 157 162 161 169 169 172 173 174 176 178 174 176 179 181 180 177 180 180 183 181 180 182 169 166 177 174 168 174 170 172 173 179 177 172 171 168 172 176 164 160 163 171 167 159 161 153 144 144 155 145 145 150 144 138 134 131 124 113 107 99 93 84 59 55 38 49 57 56 47 54 55 69 88 90 85 61 39 45 53 84 126 137 135 134 137 133 135 135 139 151 145 155 148 145 152 157 163 163 164 164 168 173 168 171 174 176 172 172 172 173 169 171 177 183 177 175 176 181 171 171 174 167 175 175 177 173 170 166 168 175 157 156 168 170 166 166 163 163 160 147 146 135 141 151 144 136 134 129 121 111 105 97 88 83 62 44 35 47 59 58 43 47 61 73 83 91 84 60 44 52 61 97 131 137 138 137 135 133 138 142 141 146 134 131 129 125 133 139 143 142 143 152 150 154 158 162 166 164 160 167 166 158 137 145 167 173 175 175 174 178 168 165 169 161 167 172 168 172 170 172 173 174 160 160 168 170 169 163 169 162 166 161 156 144 143 149 142 138 136 131 121 113 102 100 86 81 62 45 33 44 54 50 49 44 71 78 86 93 84 63 44 55 60 114 133 138 142 133 124 134 129 123 118 114 108 115 103 111 106 109 108 107 103 115 125 123 128 135 140 140 126 150 149 143 130 137 153 163 167 171 161 167 151 163 158 162 163 163 160 168 163 164 166 168 167 164 164 165 165 161 167 160 162 161 156 151 149 146 142 138 136 131 121 110 101 101 91 72 55 48 37 40 51 41 44 55 80 91 129 125 99 66 51 46 77 120 136 136 143 130 128 119 101 92 88 87 86 79 81 84 74 79 78 84 81 80 83 86 81 93 101 105 113 126 127 112 119 134 143 154 155 162 159 155 152 160 151 159 165 162 157 155 163 162 164 164 162 165 162 161 163 158 160 157 152 153 152 152 148 142 139 136 134 129 123 111 105 96 97 76 59 48 38 40 42 36 41 62 89 94 136 148 140 98 53 40 87 128 137 138 143 126 106 86 71 63 66 69 66 67 68 73 66 65 57 60 54 58 63 61 60 67 72 84 84 98 100 107 104 120 129 136 128 146 147 145 141 152 159 159 162 156 156 140 149 151 152 155 152 151 154 154 155 155 155 153 149 149 146 144 140 140 138 136 132 130 123 108 102 100 95 86 69 43 40 40 36 34 48 81 87 95 114 142 151 147 67 29 101 135 137 138 138 132 89 70 71 66 62 62 73 70 71 68 58 62 53 52 48 48 50 45 49 51 56 58 70 69 86 105 100 108 116 115 131 141 144 148 154 153 156 155 157 151 138 148 144 137 140 139 124 134 129 132 131 139 138 140 137 135 132 132 131 121 117 124 119 125 125 111 102 100 98 98 75 47 34 40 31 41 48 92 89 92 40 110 147 156 83 40 116 139 137 140 145 123 102 81 85 83 92 96 98 96 104 103 98 94 91 87 78 76 73 72 65 64 59 55 64 67 78 92 98 107 94 102 130 141 148 144 157 152 145 151 143 137 134 139 138 130 126 113 107 112 106 92 91 86 92 93 95 93 94 100 98 103 92 99 96 92 123 121 99 97 96 103 84 48 34 40 33 54 74 86 92 90 53 74 122 149 93 49 135 136 138 138 143 130 115 95 97 96 97 104 108 108 103 108 99 101 97 93 87 80 83 73 70 69 68 70 72 77 84 87 91 97 94 109 120 130 140 134 139 145 132 144 126 122 129 126 117 112 108 93 93 99 85 64 59 55 53 50 54 53 64 57 63 69 71 67 72 75 84 109 103 94 94 101 91 54 34 39 39 61 86 90 92 87 69 104 108 131 114 64 137 137 135 143 139 134 130 110 105 101 98 98 103 91 81 73 67 67 59 51 49 40 58 53 50 59 62 48 57 63 73 79 83 86 93 105 110 116 125 132 136 140 135 133 131 130 125 124 115 96 93 83 77 82 67 54 43 43 40 40 43 50 45 53 44 55 57 54 56 64 69 63 70 86 97 101 92 53 38 42 37 67 84 89 90 88 85 132 134 112 121 83 137 133 143 140 141 141 144 128 113 105 96 89 91 74 66 56 54 50 56 46 45 50 30 57 57 45 71 63 72 60 64 65 73 74 83 96 105 116 129 149 156 156 150 147 141 133 122 113 107 91 81 74 70 67 63 54 50 48 44 47 47 48 45 46 45 43 51 53 52 55 52 53 56 58 85 108 93 48 44 43 32 73 88 89 89 88 119 141 149 130 119 110 136 136 140 139 143 144 151 141 127 117 105 93 94 75 62 44 45 61 103 79 55 77 44 47 71 58 120 102 68 71 86 80 79 74 72 89 97 120 138 159 166 158 159 159 146 131 116 102 88 69 62 57 53 49 48 49 51 45 48 56 58 60 63 64 59 57 58 50 60 57 51 48 54 46 61 107 96 46 38 43 57 57 89 92 87 89 130 142 150 145 120 115 135 136 141 144 147 151 153 143 139 131 123 114 105 85 72 69 68 71 110 124 67 76 70 81 76 106 133 133 99 79 81 102 114 101 82 86 96 116 139 168 175 163 168 171 155 136 113 90 64 60 59 60 54 58 59 38 44 43 49 39 35 45 58 62 70 79 83 83 83 80 69 59 60 48 67 102 98 46 40 46 88 83 82 91 88 91 122 142 142 127 100 114 136 138 138 142 150 153 153 152 146 141 145 137 122 110 107 103 98 100 112 122 121 92 87 89 98 117 116 112 95 103 102 85 125 123 100 98 99 123 147 169 176 173 178 169 150 122 104 72 74 96 90 71 73 90 91 42 64 37 86 41 30 41 41 50 52 50 72 85 90 91 84 76 71 61 79 105 100 52 42 60 92 88 86 86 88 93 132 145 128 107 71 106 136 139 138 140 149 154 155 151 156 152 154 150 143 137 131 129 125 120 115 117 121 105 118 111 112 112 111 112 106 109 120 121 125 117 114 103 113 137 153 162 175 176 174 166 143 112 97 80 99 117 99 76 102 126 127 56 73 55 48 71 36 66 69 34 47 53 48 64 82 89 87 91 82 79 94 110 95 52 55 85 71 58 86 91 89 91 144 153 119 89 70 124 129 135 136 138 149 150 151 157 156 160 159 156 152 146 143 136 132 135 131 128 127 118 115 116 114 118 109 107 106 110 117 126 127 113 115 119 127 138 151 161 174 179 174 160 142 113 98 94 103 104 97 99 92 113 137 96 71 72 73 71 68 97 90 58 41 43 59 67 76 84 87 98 93 103 101 110 96 45 81 65 46 79 89 89 89 91 151 158 109 73 94 148 128 132 138 140 147 151 148 156 157 165 158 164 158 152 147 142 133 131 129 126 126 127 123 121 121 122 113 117 115 118 122 125 120 117 135 137 140 144 155 163 176 182 174 162 132 110 106 101 104 124 124 114 103 110 114 119 107 88 76 92 112 115 95 69 66 54 53 78 85 86 98 105 106 109 105 108 93 64 94 61 70 120 85 86 91 89 144 159 107 85 125 157 124 125 137 140 145 148 154 157 159 161 163 163 162 158 160 156 154 148 141 139 138 140 134 134 135 133 131 129 126 129 133 132 131 140 150 148 149 145 159 165 178 187 174 167 139 110 109 107 108 116 121 114 111 108 121 113 123 115 107 104 111 104 100 83 76 71 71 91 98 96 113 116 115 111 110 111 96 84 106 88 81 134 85 87 90 89 135 157 112 99 132 153 124 124 132 144 147 147 152 158 162 162 163 170 164 164 165 162 162 164 156 155 152 155 148 147 146 140 139 142 147 148 142 147 153 155 151 149 150 150 159 164 185 190 178 168 142 106 111 120 111 111 121 119 115 109 111 115 113 111 110 112 106 109 105 105 103 100 97 110 118 112 118 123 123 111 113 108 96 99 114 98 107 112 77 91 91 91 125 164 121 111 122 150 126 124 130 139 144 145 147 154 153 160 163 166 164 159 169 163 163 163 160 156 153 154 150 155 157 160 160 167 164 158 156 156 154 155 149 147 151 155 163 172 189 189 181 169 141 113 110 124 125 115 118 125 124 122 116 117 116 118 117 118 115 116 116 115 116 120 121 124 126 126 129 124 123 115 115 106 93 112 114 97 131 107 83 89 89 90 106 150 147 123 128 134 132 121 130 141 145 142 146 146 154 155 160 163 164 166 166 165 163 161 157 158 161 165 162 165 166 166 168 166 170 161 165 165 161 152 151 154 151 155 156 178 192 187 181 168 142 120 113 121 128 129 126 124 126 128 130 128 129 126 123 123 117 121 122 122 125 131 132 133 134 134 131 128 127 112 114 102 90 115 111 100 140 80 86 90 88 89 127 113 141 154 144 119 130 116 125 134 143 139 151 149 150 154 157 157 164 165 165 163 167 166 170 172 170 175 170 168 167 160 162 169 169 170 168 164 160 157 157 154 154 159 168 185 192 184 184 163 143 124 118 118 123 131 135 134 130 136 134 132 137 136 138 136 130 131 139 134 134 140 142 137 136 134 130 128 120 115 114 100 93 119 111 120 112 85 87 90 89 90 149 128 131 151 160 137 127 117 122 133 137 140 149 148 149 151 155 158 163 161 163 163 166 169 171 171 171 170 168 165 169 161 167 171 168 164 165 157 160 156 156 155 158 160 172 186 190 181 178 166 142 130 124 118 119 127 139 139 143 139 132 142 135 138 133 135 135 135 141 137 139 143 142 138 134 136 125 122 121 114 112 96 91 117 116 115 102 83 89 91 87 88 158 152 141 142 145 150 135 114 118 125 133 138 143 145 148 151 153 156 161 166 163 159 169 172 169 171 171 169 169 166 172 173 169 166 165 159 160 146 147 148 159 158 161 166 173 191 187 183 170 166 150 135 128 121 119 132 140 143 142 141 137 134 143 142 142 134 136 139 138 142 144 142 142 139 135 133 124 118 118 116 108 95 91 123 119 116 86 89 91 90 88 87 154 158 152 139 143 150 138 120 114 125 125 131 136 143 145 146 157 160 163 164 164 164 166 170 171 169 169 166 162 166 165 168 171 161 153 145 134 134 136 146 154 161 162 166 180 189 187 181 176 168 151 142 131 116 120 129 139 145 147 147 146 139 141 139 149 148 142 143 138 143 144 145 143 137 135 127 123 116 115 110 103 108 96 144 112 112 91 84 92 91 89 90 107 151 157 155 155 158 150 118 114 123 126 123 132 140 146 145 149 154 160 161 159 164 169 172 170 168 168 169 167 166 158 166 162 151 136 125 126 144 143 150 149 157 165 169 180 189 186 182 178 169 151 149 131 113 108 121 131 147 152 151 154 144 143 148 146 149 151 144 139 142 139 145 138 136 130 123 124 114 108 109 103 107 103 146 110 115 92 87 91 90 90 91 67 118 151 151 152 154 152 121 119 120 125 123 126 138 143 144 149 150 147 158 158 160 167 169 169 166 169 167 164 160 156 155 150 134 122 121 135 155 151 145 154 163 164 170 180 177 185 186 178 171 151 147 130 114 115 109 120 139 148 150 151 149 149 146 146 147 152 145 137 145 137 141 135 133 126 124 120 113 111 101 101 98 122 128 103 115 91 84 89 89 92 85 76 76 116 137 146 147 154 122 119 120 128 125 123 133 138 145 145 149 148 155 156 161 163 169 167 167 168 163 159 150 145 142 133 131 114 125 140 154 151 146 159 164 168 178 180 181 187 191 172 167 156 148 127 120 132 109 113 131 146 147 151 151 152 141 146 148 149 147 145 143 139 137 131 128 121 122 121 111 108 92 118 121 122 102 114 117 82 87 89 89 90 88 79 78 72 103 128 136 145 126 118 124 127 129 123 127 132 141 140 145 148 151 154 157 163 169 160 164 163 158 152 150 140 134 140 141 121 128 141 148 136 150 164 162 163 175 177 182 187 186 170 162 153 143 127 121 134 113 104 121 134 140 145 150 143 139 141 143 146 147 145 142 141 133 132 126 122 121 115 104 95 110 132 121 107 109 126 98 83 85 91 84 91 85 82 78 80 73 85 96 120 127 120 125 130 130 127 126 130 135 139 143 151 150 156 154 161 164 161 162 157 151 147 142 135 143 155 155 125 127 140 141 134 146 156 157 162 161 168 177 180 178 164 161 152 139 119 116 133 118 102 113 121 131 141 145 148 142 139 141 143 148 148 143 138 132 129 124 125 120 109 97 97 125 130 120 114 119 113 91 79 88 87 87 88 87 79 78 78 77 79 76 77 111 123 128 129 134 129 130 128 134 133 144 144 152 158 153 159 161 159 159 153 146 145 137 145 156 169 167 126 118 125 137 129 129 141 151 152 153 163 167 166 167 152 149 141 126 114 112 125 111 105 119 116 122 133 138 142 149 142 142 142 149 146 151 141 133 129 123 118 118 96 95 105 124 121 121 124 117 95 81 84 89 89 86 89 89 82 81 78 81 79 81 67 91 127 125 131 132 132 130 127 134 134 137 145 151 153 155 151 161 158 156 148 150 151 147 160 170 175 168 135 110 107 115 109 107 117 134 134 144 147 154 149 148 144 133 117 112 106 109 111 107 120 134 126 118 123 133 139 149 142 137 139 145 138 138 136 129 121 121 110 105 89 101 126 129 119 134 128 98 84 83 87 88 85 86 88 86 81 81 78 78 82 80 70 79 128 130 131 134 133 129 130 129 132 135 138 143 151 156 157 161 159 159 162 162 162 166 172 172 175 171 150 126 91 80 77 67 84 108 118 126 126 134 131 128 119 109 92 93 97 99 95 117 138 139 140 131 124 131 135 138 139 134 134 137 137 133 126 129 116 114 105 95 88 116 136 124 128 133 109 83 82 85 87 86 86 85 83 88 79 81 79 78 80 79 71 72 124 128 132 132 135 125 133 133 129 135 138 139 147 153 160 161 160 157 166 166 174 172 170 172 173 174 161 146 105 75 66 75 64 77 101 107 114 114 111 108 97 76 54 52 78 83 89 133 141 144 143 148 129 132 131 129 134 135 134 132 136 131 124 120 116 107 99 96 85 122 133 122 119 113 89 80 82 86 83 88 84 87 87 85 79 78 79 79 76 78 77 62 126 130 131 131 139 131 133 134 130 133 137 144 140 145 156 160 159 164 167 171 171 166 166 169 167 167 163 159 143 110 92 84 81 71 72 86 95 91 89 80 68 57 47 50 66 89 113 142 138 142 142 153 145 136 136 123 131 137 129 134 130 129 123 115 106 103 94 94 91 112 114 110 96 85 80 81 82 85 85 84 85 85 86 87 82 78 79 81 80 81 77 61 119 129 131 135 139 139 132 136 130 134 140 145 142 144 156 155 164 166 163 169 166 165 168 170 161 156 158 161 161 143 126 105 95 79 70 72 69 72 67 70 74 82 87 92 111 117 127 134 140 143 141 149 146 136 140 128 131 136 129 127 126 122 117 111 101 100 98 98 67 81 83 83 77 82 78 79 84 82 85 86 83 86 86 89 77 79 81 78 77 81 76 56 113 128 131 133 134 137 135 140 135 137 139 146 148 154 156 155 159 158 153 170 169 165 167 169 156 156 155 165 165 160 144 126 118 103 82 78 82 79 81 86 109 125 130 126 130 128 130 130 139 141 138 146 152 147 141 137 134 127 125 125 121 120 113 103 100 96 101 94 60 73 77 76 81 78 82 84 82 82 84 82 85 83 83 83 81 78 76 80 78 78 78 59 100 128 127 132 134 134 134 141 137 141 141 146 154 155 155 154 154 159 151 164 170 165 165 170 161 161 161 171 170 164 160 148 134 130 97 98 111 111 114 126 135 140 146 136 135 131 135 136 139 137 140 150 147 145 133 141 127 127 125 125 120 112 107 105 102 104 102 87 55 70 78 76 80 78 78 81 83 83 82 84 81 86 82 82 80 77 81 74 79 76 78 64 88 129 125 135 132 134 135 133 138 141 142 148 152 159 154 155 154 161 158 159 169 167 162 167 167 167 164 174 173 164 164 162 157 136 115 123 133 133 137 140 145 136 149 143 144 140 149 145 148 142 139 149 147 145 135 129 131 129 122 122 114 110 104 103 100 104 102 68 64 70 76 75 82 79 77 85 82 79 85 83 82 85 81 86 79 79 78 77 78 75 79 69 77 125 125 135 132 130 137 135 141 142 148 146 158 156 156 149 156 156 158 153 157 159 159 163 168 165 168 169 165 166 163 165 168 153 134 138 131 136 139 135 141 139 142 140 140 145 143 149 145 151 144 144 144 141 134 127 128 127 124 117 114 112 107 102 107 98 98 63 64 72 73 77 78 75 78 82 79 83 80 81 81 82 83 84 80 79 79 76 79 77 79 72 64 118 125 132 137 134 135 140 138 141 146 147 156 159 158 149 153 149 149 144 139 142 145 154 154 149 143 137 131 124 131 128 134 139 142 150 146 148 142 138 134 131 131 134 137 141 136 145 148 147 140 142 141 137 126 125 130 127 121 119 116 110 110 106 104 103 88 56 66 72 73 75 77 75 79 81 79 81 80 83 83 82 85 81 80 78 82 76 79 74 77 79 60 103 124 129 134 132 136 137 139 135 142 139 153 160 158 151 143 139 146 128 99 105 123 128 120 113 103 98 90 86 87 85 86 93 102 114 131 126 117 105 101 107 106 115 117 121 124 128 133 140 131 132 132 130 126 126 129 126 122 115 121 112 108 108 104 102 73 54 66 71 74 75 78 76 78 78 79 83 78 82 83 80 83 83 75 78 81 74 78 76 78 79 62 83 125 125 131 135 138 138 142 136 127 138 148 159 156 147 139 143 141 141 122 70 79 86 84 83 79 84 59 40 41 51 75 81 73 75 87 83 82 74 66 77 75 76 91 101 99 108 109 115 110 120 128 129 124 123 127 127 119 116 114 112 110 107 102 97 59 57 69 69 76 73 77 75 77 79 78 79 81 78 80 81 79 78 79 77 77 75 77 75 77 76 72 67 120 124 129 137 131 136 140 141 126 138 147 151 155 142 136 140 140 147 157 146 113 93 89 92 108 119 110 74 42 58 76 76 74 47 72 87 87 73 41 55 41 32 68 85 83 86 89 77 85 114 127 121 123 121 125 128 119 118 111 113 112 104 107 79 53 63 67 68 75 74 73 79 74 79 79 80 79 79 80 80 78 77 77 80 76 77 73 78 76 79 69 72 124 118 127 134 137 138 137 142 136 139 145 148 148 143 140 143 144 145 156 154 141 121 124 119 127 151 151 138 115 100 90 84 78 64 88 97 97 87 60 63 71 78 92 104 89 78 71 89 100 122 123 116 124 124 126 125 117 115 114 112 111 103 101 61 58 65 65 71 73 75 75 78 75 80 75 78 79 79 78 81 77 80 76 77 77 77 75 74 77 77 64 77 133 116 120 130 134 137 138 137 139 143 142 145 141 139 145 145 140 144 154 151 137 115 120 119 122 144 154 161 156 152 133 121 120 113 112 112 113 107 98 110 114 119 118 122 113 103 105 122 120 122 121 114 126 125 126 124 116 116 112 113 110 103 89 50 64 65 68 71 71 75 73 73 76 75 77 78 79 77 78 80 77 78 78 78 77 77 73 79 75 80 63 81 134 129 108 123 127 132 135 132 135 138 138 143 140 144 151 144 139 147 153 151 144 125 103 106 112 127 131 147 152 163 160 152 153 154 144 150 150 145 141 141 142 139 128 120 106 104 112 123 126 114 123 118 124 125 122 119 117 110 111 109 109 100 63 55 62 66 66 70 73 73 76 71 77 76 78 76 79 75 79 77 79 77 76 75 76 76 75 78 76 80 61 88 134 134 118 113 124 126 132 129 135 135 131 144 143 146 143 144 139 138 150 153 150 146 121 100 104 109 113 119 124 134 137 143 138 149 148 151 154 150 151 149 138 128 116 102 101 103 114 121 120 113 124 123 117 124 119 119 111 109 110 107 108 77 55 62 60 68 67 70 73 74 73 76 75 77 75 77 77 76 77 75 78 77 75 77 76 74 79 75 77 79 56 94 138 125 128 109 114 123 126 125 134 137 133 139 146 149 150 151 141 131 149 147 151 152 140 115 99 105 100 103 104 107 108 107 108 119 128 125 122 130 121 120 113 107 101 102 100 104 118 115 117 116 123 122 112 124 116 117 109 108 110 103 99 55 56 60 62 66 69 71 71 73 72 76 76 71 78 77 75 78 74 77 77 76 76 78 75 76 77 74 76 75 56 107 134 127 120 116 108 116 125 125 125 133 132 131 141 149 150 154 148 139 150 147 153 157 151 144 112 100 100 97 94 94 89 84 82 95 99 94 89 98 97 97 101 97 94 99 98 117 119 107 114 119 118 122 120 113 114 109 111 105 103 103 70 51 59 60 61 62 70 70 72 70 75 73 75 75 75 77 72 82 70 80 73 77 77 76 73 78 73 77 74 77 58 114 131 128 122 118 105 105 118 117 124 127 131 130 139 145 151 150 150 143 148 151 153 154 157 148 141 131 110 107 103 99 100 95 80 79 76 84 84 86 89 88 94 100 95 103 106 123 124 106 111 119 125 119 123 113 110 109 107 104 103 71 52 58 61 60 60 63 70 72 70 70 72 72 74 73 77 75 74 74 73 77 76 74 77 76 78 77 76 74 76 69 70 124 128 124 122 123 111 99 113 111 116 121 122 127 136 142 143 140 148 146 142 144 142 154 152 143 140 143 144 138 127 126 123 118 115 111 105 104 103 102 103 95 101 100 105 113 117 128 123 109 114 118 122 121 118 111 108 106 106 105 76 56 57 58 61 60 59 62 70 70 70 69 72 72 73 73 73 77 73 76 72 74 76 71 76 75 78 73 78 80 75 71 74 129 135 124 113 125 117 101 100 110 107 117 118 127 134 144 142 146 141 152 141 152 146 158 159 151 155 150 153 157 147 150 143 137 128 133 133 132 133 133 126 124 117 123 129 130 132 128 123 115 125 128 121 121 110 108 108 105 98 93 54 54 60 59 59 61 64 67 69 71 70 73 72 73 72 77 73 70 75 73 73 73 76 74 75 74 77 76 74 75 76 59 92 132 132 127 116 117 119 112 107 95 108 111 111 125 125 137 143 140 148 150 154 149 152 155 161 167 166 167 170 172 165 165 159 150 146 135 147 147 147 146 133 139 137 130 133 135 140 133 128 118 125 130 119 119 113 106 105 97 88 87 47 59 57 57 62 60 62 67 67 70 71 68 72 70 72 73 70 73 73 70 76 73 74 75 76 77 75 75 75 75 75 61 107 135 130 135 118 119 123 119 114 98 86 105 111 116 122 133 140 136 137 151 150 147 157 155 160 169 165 168 170 172 174 170 172 166 161 155 144 156 151 156 146 143 144 139 141 139 145 135 131 128 128 128 124 111 109 102 100 86 81 84 52 55 61 55 60 62 66 66 71 68 73 69 70 75 71 72 73 73 74 74 74 71 72 72 74 75 76 74 76 75 73 60 128 134 131 123 128 119 121 118 113 108 94 90 101 110 116 128 133 133 135 139 145 143 154 163 166 163 167 161 170 170 169 171 171 167 165 165 161 159 154 166 162 155 153 147 154 146 148 137 130 128 132 121 119 107 106 94 82 72 97 85 48 57 58 58 59 61 63 69 69 69 70 69 69 73 71 69 74 73 73 69 73 72 72 71 76 76 77 70 77 78 74 93 130 135 136 128 127 118 122 116 114 114 103 98 83 102 108 116 130 129 134 134 139 140 154 154 156 162 162 165 163 168 170 168 168 168 165 167 170 166 167 161 161 157 156 157 156 155 147 142 133 124 124 113 110 103 96 80 78 77 99 83 50 59 60 58 61 62 68 68 69 69 69 71 71 71 71 70 74 71 72 70 72 71 71 69 77 73 86 119 129 121 114 119 133 134 136 133 128 120 120 117 114 116 110 105 95 90 98 111 114 124 128 126 133 142 147 145 145 155 159 166 160 162 168 166 165 164 168 163 166 164 163 165 156 153 157 161 157 155 144 141 128 123 119 109 107 93 82 74 80 87 107 83 48 59 58 61 61 65 66 67 69 68 70 69 69 74 71 71 72 72 70 73 72 70 70 74 110 145 173 154 136 130 128 122 132 134 137 135 128 124 121 120 117 115 112 108 100 100 94 93 105 116 120 125 129 136 139 132 129 147 160 164 161 154 161 159 157 157 159 159 154 156 157 158 153 151 159 157 154 146 142 130 125 122 110 104 91 82 79 81 87 94 112 79 50 59 59 58 64 64 69 67 70 68 67 70 70 72 69 72 72 70 72 70 71 71 69 69 191 204 169 128 138 130 129 127 134 133 139 134 129 128 119 124 122 116 115 105 106 103 100 96 89 105 115 115 125 126 129 133 135 143 151 155 155 153 153 151 152 148 149 156 153 149 145 151 148 149 153 151 145 141 129 122 120 111 101 91 80 78 79 87 93 100 113 72 52 58 60 62 63 68 69 68 71 67 71 69 71 69 70 70 72 69 71 70 69 72 69 67 198 209 150 138 141 134 135 131 137 138 141 132 135 128 124 120 126 116 114 112 106 107 102 100 94 98 98 112 115 119 120 119 129 137 141 141 142 142 139 147 143 146 146 146 147 146 146 147 141 142 147 139 134 127 124 119 111 102 83 74 78 84 81 95 103 106 111 67 55 60 61 65 64 70 67 69 70 69 69 70 70 69 72 69 70 71 73 69 70 71 69 69 202 205 148 146 140 144 140 130 141 139 144 139 135 131 127 122 124 118 113 116 110 108 106 100 102 96 99 98 108 113 116 111 118 127 128 133 137 139 133 142 135 140 135 135 140 145 144 138 137 136 133 126 122 123 112 107 97 81 81 74 80 86 93 105 106 107 105 97 64 74 70 67 67 66 70 66 69 70 72 68 71 69 70 69 72 70 71 70 68 70 67 68 202 208 147 147 142 148 140 131 140 140 141 143 135 134 131 124 124 122 118 116 116 111 113 106 103 101 104 103 92 106 110 113 105 117 120 120 124 122 126 125 128 127 125 125 134 127 135 126 128 129 119 113 114 110 105 91 85 78 77 81 84 97 103 107 109 112 100 105 102 112 120 119 82 68 68 68 70 70 69 71 69 70 70 70 70 71 70 69 67 69 69 67 203 211 153 149 149 149 141 134 141 142 142 140 143 135 135 128 128 126 123 123 119 115 114 111 104 106 104 103 100 100 100 107 108 104 114 113 119 117 116 115 116 121 115 114 121 122 118 112 117 114 117 107 105 98 91 86 80 78 82 86 93 104 107 111 111 113 101 101 108 109 108 103 160 135 89 65 70 71 68 71 69 70 70 72 70 68 69 72 67 70 69 68 199 216 166 150 151 147 141 142 140 146 143 143 142 142 136 137 127 129 126 122 124 120 117 116 108 111 104 104 105 102 101 100 96 102 106 109 108 108 107 109 113 108 111 109 112 111 107 111 107 103 103 99 95 87 83 86 80 87 85 95 105 108 108 112 114 114 99 107 107 114 116 104 114 184 172 134 72 69 69 70 70 71 70 69 70 68 69 68 68 69 67 70 198 212 190 151 152 148 144 143 143 145 145 145 145 141 137 140 131 128 126 122 124 121 117 116 116 110 109 105 104 99 101 103 101 89 93 91 95 96 98 104 103 103 102 107 105 108 102 104 97 96 93 91 84 86 85 86 87 90 95 103 109 110 112 113 114 110 104 108 110 113 116 119 97 184 182 180 169 123 53 68 71 68 69 69 69 69 72 66 68 68 67 66 199 203 217 155 151 150 144 146 145 144 147 149 147 146 139 140 136 129 135 124 123 123 120 116 117 114 110 106 108 105 104 106 99 98 96 82 80 77 77 76 77 81 82 82 86 87 87 86 87 91 86 89 84 85 87 91 93 97 104 109 117 115 111 116 113 114 100 109 113 113 117 115 112 187 180 184 169 190 130 57 67 69 68 69 69 68 67 67 68 68 67 65 203 198 216 183 149 149 144 147 150 147 148 148 148 149 146 141 139 135 137 135 124 122 117 114 118 114 112 111 108 103 105 104 104 105 104 94 86 79 79 78 74 76 75 75 75 80 84 85 91 83 89 88 84 88 92 93 97 105 110 111 113 115 113 119 116 113 102 110 116 118 118 106 140 188 184 182 177 179 182 141 92 65 68 70 70 69 66 68 69 65 69 70 204 200 201 213 157 146 147 150 147 148 147 148 148 152 148 145 144 130 138 134 130 125 122 117 109 115 110 116 113 107 106 105 105 104 107 101 89 82 81 77 79 79 79 77 81 86 84 90 88 88 88 90 90 91 92 100 106 113 114 113 118 115 117 118 116 113 103 113 114 119 124 110 169 182 183 181 177 181 178 165 168 137 80 60 70 68 69 67 70 66 67 67 