P2
92
112
255
110 108 109 108 110 107 109 108 107 105 109 106 107 84 109 108 102 103 109 101 98 67 100 109 98 82 68 81 69 76 101 91 48 63 58 73 42 64 55 54 42 40 34 50 47 51 51 57 50 48 69 66 60 58 61 53 55 75 77 76 78 71 71 74 60 75 95 86 79 94 88 93 99 103 104 101 101 103 102 102 103 100 105 101 103 101 103 101 101 100 98 104 110 110 110 108 109 108 110 106 107 110 106 108 105 116 76 105 102 96 99 103 95 78 70 103 107 84 63 77 65 62 103 79 53 60 46 50 57 51 47 46 36 31 37 41 48 43 41 52 34 47 59 47 46 45 40 41 55 64 58 60 61 64 62 56 61 72 75 72 81 75 63 78 80 97 100 101 100 102 102 98 105 99 104 101 101 102 102 100 98 102 99 102 110 108 108 108 107 108 107 108 108 106 109 100 95 106 92 72 100 96 87 97 105 95 52 67 112 83 73 62 71 52 85 75 57 49 45 37 50 45 43 40 31 32 30 38 36 53 35 41 33 41 34 48 38 39 34 35 48 44 47 51 49 53 53 56 65 72 56 72 69 67 57 60 63 93 96 93 101 102 103 103 104 101 101 102 101 102 102 100 103 102 100 102 105 112 108 107 108 108 108 107 106 106 101 102 99 82 98 89 75 72 85 82 83 101 54 41 78 83 73 46 60 55 65 68 47 42 35 49 34 40 39 38 36 25 27 30 31 35 40 33 27 34 28 41 34 30 35 35 42 39 39 43 47 34 39 55 61 58 53 58 65 65 61 63 67 83 83 84 94 101 104 100 106 100 103 99 103 100 100 100 100 101 101 100 106 107 110 108 110 108 110 106 109 104 96 96 87 74 64 70 70 61 65 70 69 74 77 52 49 66 64 46 41 48 61 57 40 35 33 36 26 35 35 35 26 32 24 28 26 31 37 34 29 28 24 27 36 31 33 33 36 33 33 36 32 30 33 53 49 55 40 50 64 67 59 69 59 76 81 70 76 88 91 93 98 101 102 100 101 100 99 102 101 100 100 100 109 107 108 108 110 109 109 107 110 108 111 87 86 78 82 60 56 64 63 60 56 60 65 63 56 51 55 56 39 39 43 45 44 31 28 25 30 26 29 32 25 24 26 30 26 23 32 37 32 21 21 25 31 32 30 27 32 29 29 30 32 29 33 40 40 44 42 48 53 60 58 54 56 66 70 69 66 69 73 71 70 81 104 100 103 100 101 103 99 100 99 101 109 109 107 111 105 111 104 106 108 105 95 95 77 64 60 62 64 63 61 57 59 49 54 61 60 48 55 58 51 49 46 32 41 33 25 27 25 26 24 27 27 24 23 32 33 22 30 23 35 21 20 25 25 29 30 23 28 25 28 28 27 31 31 35 29 34 36 52 45 44 55 57 47 62 59 69 75 69 62 57 56 62 91 101 101 99 102 99 101 101 101 100 110 106 109 109 105 110 107 105 101 102 108 90 80 83 77 54 70 67 55 57 54 52 44 49 62 41 55 50 59 52 62 53 43 44 41 29 23 26 23 25 21 32 29 24 39 31 22 22 30 26 18 21 32 21 28 25 27 23 25 28 25 30 27 32 33 30 41 39 35 38 42 57 44 48 55 58 66 68 72 62 48 64 83 83 95 102 102 101 105 91 97 99 106 108 109 108 107 110 97 77 81 71 71 73 83 77 68 74 69 65 61 53 50 46 50 52 51 46 46 57 51 48 52 54 48 40 40 44 41 36 33 30 24 27 27 26 29 34 32 23 28 26 20 25 28 26 23 26 25 21 27 24 25 25 24 30 39 28 31 40 32 32 36 43 43 38 50 53 66 73 64 63 69 74 72 69 79 99 97 85 76 78 99 100 108 109 109 109 107 109 110 98 83 71 64 66 67 73 71 62 60 67 61 60 51 40 41 39 41 41 37 56 36 36 33 43 45 50 43 36 41 40 41 38 37 25 27 26 25 29 31 29 30 26 23 24 24 25 22 21 22 21 30 21 28 33 31 29 41 30 21 37 31 25 31 35 39 39 45 48 61 70 59 71 62 63 64 70 69 79 74 77 63 83 98 91 107 107 106 110 107 98 98 98 86 79 58 64 55 67 70 60 50 53 58 56 57 54 50 46 29 31 32 33 48 37 31 29 34 42 35 46 35 33 36 43 35 34 27 27 32 26 29 25 28 29 24 27 27 20 22 23 21 17 25 29 32 32 32 26 33 29 22 24 29 30 27 33 37 35 42 47 56 59 54 58 53 49 64 60 52 68 71 66 69 74 78 58 110 107 108 108 105 82 59 77 70 60 48 41 55 57 60 66 59 51 50 46 45 40 44 44 57 42 28 33 33 35 31 33 27 33 31 36 35 33 34 37 43 38 34 25 30 37 26 24 27 24 30 28 25 27 20 22 18 23 28 39 18 33 24 32 29 28 22 25 30 29 27 33 34 26 35 41 39 52 41 38 45 54 48 59 57 60 57 63 66 62 58 65 111 108 108 103 76 65 68 51 56 52 46 42 49 51 52 48 57 55 49 54 51 49 46 39 33 38 36 30 26 36 28 31 31 34 35 39 33 35 32 36 30 33 45 40 29 41 28 27 27 28 31 29 27 30 23 21 26 26 24 33 24 24 32 30 28 28 24 23 27 28 26 28 32 28 36 32 40 41 35 40 43 42 40 50 46 57 48 70 62 72 66 83 109 110 110 102 80 51 65 54 64 56 50 41 50 48 49 56 53 41 42 44 32 36 34 33 34 35 33 32 31 32 38 45 38 47 40 34 37 35 31 32 31 29 27 34 42 32 38 29 29 25 29 26 28 33 28 25 27 26 20 31 27 27 33 26 31 23 20 25 23 21 31 28 28 27 30 30 34 36 33 36 37 34 44 43 46 48 49 65 58 65 44 63 106 109 110 98 59 52 58 48 49 51 61 58 56 48 45 37 49 35 28 29 40 38 33 37 42 36 35 45 57 52 52 53 36 40 33 29 33 33 29 34 28 29 31 30 27 26 35 32 33 28 29 30 31 43 33 28 27 28 22 28 29 28 22 34 23 29 29 21 23 27 28 28 25 29 28 39 38 44 30 31 31 33 39 41 40 40 51 53 50 57 42 62 108 111 99 90 66 34 44 43 41 44 46 51 44 55 49 48 38 43 32 51 61 46 46 44 50 55 56 60 64 44 47 42 36 37 33 32 34 41 34 35 29 26 29 39 30 30 33 25 42 38 33 30 39 42 37 33 31 28 27 23 33 27 21 29 30 32 34 27 32 35 27 30 31 30 33 34 30 28 32 27 26 32 35 39 43 44 41 42 51 47 47 55 109 110 100 69 40 47 52 42 40 48 45 46 41 42 32 38 41 58 70 72 65 49 59 65 59 50 49 67 67 49 48 42 40 40 34 38 39 41 61 51 41 36 27 44 46 33 48 42 31 51 45 37 37 52 44 36 29 29 30 26 29 33 27 24 36 26 29 26 27 36 27 29 29 28 24 33 28 21 23 24 25 34 30 34 47 43 36 36 58 39 62 53 110 106 80 46 47 61 49 43 44 43 47 46 49 48 43 52 63 77 80 64 65 74 72 56 48 58 64 63 61 54 50 56 51 51 46 46 42 39 48 53 48 42 33 43 46 48 53 56 58 46 62 55 37 52 50 43 34 32 36 31 30 41 31 28 29 27 25 29 24 27 29 31 27 27 22 19 26 41 26 20 30 34 24 25 46 39 34 28 45 41 46 68 109 100 83 81 88 64 43 45 45 52 55 64 63 64 61 68 74 80 79 74 79 79 63 64 57 62 69 67 59 66 63 64 66 75 74 75 65 54 52 49 45 46 45 53 52 55 51 54 55 52 58 58 57 51 54 51 36 41 41 37 34 50 35 31 30 32 28 25 27 23 29 30 29 26 18 26 31 22 37 27 30 25 22 26 38 38 27 31 47 38 61 91 108 104 86 68 54 43 50 52 55 60 60 65 58 63 62 63 83 71 71 78 73 56 55 56 50 60 63 61 62 70 75 74 85 88 71 69 66 64 59 61 51 50 47 48 42 50 53 57 61 63 61 64 68 57 59 60 49 51 54 55 55 58 38 40 31 32 32 26 33 29 26 32 28 23 21 27 26 17 22 31 27 22 25 25 35 32 27 36 39 40 67 95 110 100 100 81 62 48 44 49 53 43 53 55 60 59 48 60 78 71 70 59 39 43 46 40 44 52 48 55 69 78 83 88 86 86 80 80 74 69 53 58 50 49 46 48 49 51 65 62 58 56 50 60 67 81 64 66 65 58 58 59 65 66 50 41 37 33 31 31 36 33 23 33 32 41 27 24 21 18 26 21 27 21 26 26 32 43 36 22 34 44 54 85 108 94 98 79 50 46 49 39 36 42 53 59 61 54 52 66 68 68 53 38 44 38 41 43 48 47 55 74 84 77 82 79 87 86 82 87 72 69 68 63 58 53 53 48 48 45 54 60 53 65 64 69 83 90 85 74 82 68 70 73 69 66 61 54 42 41 34 41 32 35 28 31 41 31 47 32 22 20 22 19 24 28 21 28 44 39 27 22 35 33 45 51 105 101 95 70 53 42 44 39 39 49 53 58 58 50 58 60 54 61 46 40 43 44 45 49 56 60 72 73 67 74 80 81 79 93 93 90 98 80 75 67 65 60 61 55 51 50 59 61 69 81 67 84 85 81 73 70 72 74 59 71 77 72 67 58 48 43 42 40 43 35 36 31 35 36 47 48 34 22 23 19 21 23 35 35 38 30 30 26 30 39 44 48 104 97 94 82 46 34 35 41 48 44 47 49 54 64 59 45 53 53 44 44 50 51 58 61 68 66 68 67 69 77 86 85 82 91 89 92 98 90 92 78 76 75 72 68 64 55 68 59 65 75 68 82 86 76 71 70 80 75 77 89 80 66 66 71 62 51 49 54 49 40 44 37 40 36 48 53 28 37 16 23 24 25 30 48 35 28 31 21 33 40 47 52 99 101 90 70 39 33 37 47 38 40 47 57 54 60 51 44 53 47 44 60 54 57 63 63 67 74 74 81 83 88 89 96 97 99 96 96 96 96 94 93 90 82 84 83 88 79 74 74 69 79 77 79 87 82 69 82 99 75 75 96 81 63 77 74 67 60 54 52 45 52 48 55 43 47 41 55 41 30 30 24 30 26 29 48 39 29 28 23 34 38 62 32 100 97 83 59 33 43 46 41 37 48 47 59 48 46 51 47 54 50 54 59 56 57 67 74 82 88 93 99 106 107 105 110 107 105 101 105 97 95 98 101 101 100 91 94 93 95 81 84 85 86 84 87 101 90 78 81 97 78 72 86 86 54 71 67 70 69 63 51 50 41 57 52 48 45 43 46 48 31 33 32 25 27 27 37 46 33 27 38 26 55 35 45 99 99 90 53 42 42 38 43 45 43 46 52 43 43 58 50 54 53 57 55 57 66 82 92 103 102 115 116 120 119 122 120 119 118 116 117 115 114 117 120 115 119 120 111 112 110 109 100 88 94 98 98 109 95 88 88 84 74 73 88 76 67 60 76 71 64 64 58 58 39 51 59 52 49 50 46 48 44 30 34 27 30 24 30 42 36 37 30 26 41 38 66 95 101 89 60 41 40 46 42 44 46 50 40 43 51 52 50 51 53 54 62 64 88 99 117 128 120 131 129 132 134 135 142 142 138 140 134 137 143 149 142 137 141 142 138 136 132 123 118 112 95 115 112 105 103 94 82 89 81 76 93 80 76 60 70 85 64 61 62 55 51 54 55 58 52 51 53 45 46 34 37 32 31 23 27 35 43 44 21 24 32 42 54 96 98 91 77 47 40 39 39 46 41 40 45 48 56 48 56 48 53 59 70 86 103 125 135 140 134 139 134 144 153 155 162 163 162 163 160 164 165 167 159 161 159 162 159 149 147 136 134 130 135 122 104 108 110 104 92 99 93 87 93 85 73 66 73 77 77 61 67 59 58 66 50 49 64 52 50 46 42 41 38 44 29 29 31 36 36 41 29 22 33 31 42 91 94 96 77 52 40 41 42 38 39 45 54 53 49 52 51 52 56 68 81 98 119 138 146 144 142 143 144 153 161 165 171 167 173 171 167 165 156 153 165 171 163 162 150 145 145 155 145 148 142 133 114 117 121 117 110 106 105 104 93 88 77 79 77 78 75 57 70 62 69 71 64 55 51 59 56 45 48 40 40 49 38 29 27 39 32 39 31 23 30 27 37 92 91 97 87 42 42 43 43 35 45 56 65 52 45 53 55 55 63 78 93 110 130 144 145 142 150 151 154 163 168 169 171 172 173 170 169 162 161 158 155 153 151 146 148 155 161 157 157 145 143 134 129 135 132 129 119 117 120 115 102 87 89 91 79 83 71 63 83 77 70 83 71 61 57 68 65 57 49 47 47 43 45 33 32 39 34 40 36 24 29 27 42 93 92 91 85 52 42 41 40 43 60 60 59 51 50 53 54 59 72 87 100 114 129 146 147 149 151 155 158 165 169 174 176 173 179 178 169 158 168 165 170 172 166 166 159 157 153 157 151 151 151 137 135 141 143 127 128 137 133 118 99 99 101 98 84 89 82 81 100 85 90 88 91 69 62 84 78 72 61 59 54 51 49 42 40 46 36 42 42 23 30 30 30 89 90 92 88 46 37 41 44 58 57 64 58 54 55 46 55 66 77 88 102 118 129 144 145 151 152 159 162 163 168 171 177 179 184 180 165 170 166 161 164 159 154 159 158 167 158 164 162 158 152 139 142 155 144 137 144 140 138 108 114 113 107 103 101 95 97 91 104 105 100 100 102 87 69 87 90 80 79 77 71 65 55 57 55 49 41 46 39 28 29 30 34 92 89 94 85 49 41 43 56 56 60 58 52 56 52 52 56 67 82 92 103 110 128 139 149 149 153 155 162 159 171 172 175 177 179 174 166 166 159 157 159 164 164 168 159 162 168 157 157 150 156 136 152 153 141 149 149 151 122 113 133 120 111 108 108 107 101 102 110 104 99 105 96 90 89 76 107 89 94 87 81 88 75 71 70 57 52 53 36 27 27 34 49 91 89 91 87 49 42 40 53 51 51 46 53 56 54 52 63 78 89 94 98 110 127 142 146 150 154 155 163 162 166 172 168 177 178 175 177 170 163 171 171 161 163 166 160 165 174 165 161 161 160 159 159 130 144 154 153 146 116 130 134 122 112 107 117 115 114 118 129 127 119 122 111 92 80 89 101 104 105 102 99 97 95 90 93 78 55 49 41 24 37 42 60 92 88 89 85 49 44 44 47 43 43 49 54 57 55 63 69 84 90 100 104 111 131 138 144 146 155 155 156 167 169 168 169 173 177 172 174 168 157 166 168 150 142 158 163 169 175 174 168 164 161 170 144 135 156 157 150 127 128 137 127 125 114 109 115 123 112 127 131 122 123 126 121 121 102 93 110 109 109 105 112 114 108 106 106 99 66 50 40 34 42 51 69 88 89 89 86 41 47 52 40 39 42 51 60 59 60 65 75 88 93 107 111 124 128 135 140 145 153 154 157 165 170 168 172 169 167 175 175 177 169 170 170 164 157 163 170 168 169 176 166 161 156 165 134 145 156 153 142 119 129 140 126 117 114 115 123 123 113 138 134 120 123 123 123 120 114 103 107 115 108 114 103 117 114 109 109 110 74 62 42 33 31 49 70 89 89 91 85 49 43 46 42 40 47 52 65 57 65 76 79 91 98 102 107 116 124 132 137 143 152 155 156 164 160 169 169 169 167 173 169 176 171 164 169 168 165 163 170 170 169 171 169 162 160 148 145 133 153 146 138 117 135 135 130 116 109 118 129 118 123 140 132 121 128 112 119 120 117 120 100 103 111 123 115 101 119 114 110 105 89 68 51 47 17 33 56 89 89 89 91 44 45 44 42 37 44 56 64 62 72 78 86 87 97 102 105 107 121 130 138 144 149 152 157 162 161 163 171 165 169 170 167 170 175 167 168 170 167 170 172 176 168 171 166 166 154 154 154 151 139 147 140 131 141 141 130 115 102 122 130 112 131 125 115 131 123 116 116 122 127 125 122 98 98 126 130 105 100 115 110 103 97 72 63 54 29 40 50 88 86 91 85 48 40 44 42 38 49 61 62 72 79 72 85 90 97 109 111 115 129 133 138 145 148 152 155 161 164 164 172 171 174 170 159 168 168 170 168 170 171 169 171 173 169 171 171 163 156 161 153 158 162 149 148 146 143 137 126 107 107 130 120 117 135 118 127 131 126 117 119 120 130 130 130 104 110 100 121 130 104 102 110 102 89 78 70 57 35 36 77 86 87 90 86 45 45 41 40 45 55 52 69 79 73 72 88 97 112 117 117 122 130 135 142 150 150 153 151 157 163 165 174 167 172 173 167 172 171 170 176 175 176 161 171 174 174 171 173 169 160 163 155 151 165 153 144 152 147 137 122 107 115 126 121 128 129 137 132 134 127 127 128 121 125 128 129 115 103 108 105 104 126 105 99 100 75 80 71 57 41 36 77 86 86 90 87 55 43 43 38 50 50 59 76 74 63 84 102 118 126 138 131 131 138 134 143 152 149 150 152 155 162 166 171 170 173 179 176 180 179 179 180 177 180 176 179 177 178 172 168 169 164 161 161 152 158 155 150 150 151 135 111 116 124 120 133 133 137 146 143 139 138 133 129 127 120 122 121 119 104 95 113 110 109 118 102 96 69 67 73 53 51 42 74 87 87 89 87 54 42 44 45 48 55 60 82 66 72 106 127 136 138 146 144 140 143 143 145 149 148 148 153 153 158 164 169 171 177 177 179 185 179 180 182 179 178 183 181 174 181 183 175 170 166 158 169 162 159 151 146 152 143 120 117 125 125 129 131 142 142 144 148 140 144 139 127 131 126 122 109 122 117 100 113 122 111 114 104 96 61 54 75 50 48 61 82 87 85 92 84 52 42 49 52 46 55 69 74 62 89 125 143 145 143 148 150 148 150 147 149 150 149 150 156 160 162 168 173 172 178 174 180 184 181 184 184 185 184 184 185 182 181 188 176 172 174 161 161 165 156 148 142 140 122 121 130 137 133 130 143 146 149 146 146 141 139 134 128 132 131 120 113 123 126 112 116 117 118 111 102 87 48 55 65 61 43 63 80 87 86 93 82 40 50 52 48 45 63 78 61 75 104 133 147 147 147 148 152 150 151 148 149 150 153 153 157 167 163 170 173 177 178 177 180 184 184 186 181 188 185 186 185 180 169 177 179 178 177 174 170 169 155 154 153 149 138 144 150 147 138 141 158 152 156 154 148 145 136 135 131 142 136 119 120 127 117 120 115 117 116 102 101 76 42 50 60 58 56 82 87 87 94 98 78 47 48 49 50 47 72 74 66 95 117 142 148 151 145 150 148 150 147 151 149 154 154 163 161 170 169 167 168 171 174 177 179 180 180 179 185 183 180 185 186 182 180 177 180 182 177 173 175 168 157 161 163 157 147 155 156 158 147 159 156 157 163 153 148 151 136 133 142 147 132 124 131 132 123 123 122 117 111 103 94 61 41 47 55 56 62 81 97 112 133 142 126 72 43 48 45 53 79 69 77 106 130 147 148 152 152 151 144 147 150 151 155 160 154 162 161 158 158 150 147 156 165 169 168 167 172 171 178 176 171 177 180 178 180 177 181 181 175 170 172 161 154 167 163 163 164 160 164 169 165 166 163 158 165 153 150 150 147 142 146 146 129 129 138 130 132 130 123 120 106 100 84 46 41 43 60 59 73 87 92 128 134 149 164 146 75 39 53 64 75 66 89 115 139 149 147 151 157 148 143 136 150 150 151 151 141 147 142 127 132 127 128 130 142 142 144 146 154 156 159 166 167 171 173 171 171 174 170 165 162 166 171 168 161 168 163 160 165 159 166 171 169 167 164 158 164 160 151 153 154 150 145 150 140 125 141 128 133 132 125 116 105 95 75 43 34 43 59 67 83 87 94 107 84 129 161 164 157 78 56 66 70 73 104 130 144 146 148 152 156 143 139 140 132 128 124 114 109 106 102 106 108 99 108 102 108 108 105 107 122 129 129 144 142 150 156 140 162 162 155 132 140 153 167 167 161 169 157 155 161 153 159 169 169 168 167 165 161 158 138 157 157 152 155 151 150 142 131 125 133 130 123 115 103 87 67 41 31 43 61 75 89 91 92 71 55 67 136 155 172 141 74 51 71 90 119 142 147 144 146 151 151 145 135 113 109 98 85 81 81 89 80 85 82 83 86 78 82 83 87 83 89 90 90 89 104 112 124 119 137 145 132 126 133 147 156 159 159 154 149 150 152 152 156 158 159 165 164 164 160 158 145 155 155 154 152 155 152 152 142 133 133 127 124 115 100 84 60 40 31 46 65 87 90 89 91 81 69 96 98 127 163 160 97 48 75 115 131 148 147 147 146 149 152 143 134 96 90 80 77 76 62 71 65 76 71 71 68 69 66 58 65 63 64 62 66 63 72 83 95 101 116 115 109 108 133 136 148 148 152 146 145 152 142 153 159 153 153 161 158 158 154 152 153 152 153 154 151 147 147 145 142 135 131 127 121 116 95 81 52 33 39 53 80 89 87 92 91 114 89 137 132 91 146 167 119 51 91 135 145 147 146 149 148 152 158 146 124 110 93 93 91 91 93 94 94 91 92 89 82 70 64 64 56 53 54 48 52 50 58 57 72 82 89 101 108 104 115 124 127 129 143 139 137 143 152 149 154 151 147 140 150 148 148 147 146 144 148 147 144 145 141 137 136 133 128 124 121 110 96 84 42 31 57 72 87 90 91 91 92 132 114 161 168 104 120 154 139 64 103 140 147 147 145 145 150 152 154 151 137 123 108 108 108 104 107 111 118 107 110 114 111 103 97 98 82 74 74 68 66 58 61 57 58 74 75 93 102 101 106 107 117 132 141 143 147 143 151 148 146 142 137 142 139 135 139 129 130 130 136 136 139 134 136 127 133 124 118 120 115 111 97 79 29 39 78 86 90 88 89 91 92 149 135 161 173 154 129 142 138 92 112 142 148 144 145 155 152 150 152 153 151 139 122 119 111 106 105 106 102 97 86 87 78 80 74 74 61 65 62 64 65 66 71 71 74 80 84 89 95 102 96 98 121 137 142 144 150 143 143 140 133 133 131 134 129 122 119 105 106 103 100 97 107 108 114 105 106 109 98 101 96 105 102 70 23 65 87 88 88 86 91 88 91 138 139 163 170 170 146 131 128 114 122 137 149 147 146 153 148 149 153 157 157 150 133 124 113 103 95 93 83 70 61 58 52 42 39 39 37 54 44 44 56 54 54 51 70 76 84 88 91 97 102 110 117 127 136 134 140 134 128 131 115 122 126 114 107 106 88 90 87 72 66 58 59 59 60 58 65 72 79 69 73 72 103 57 38 85 83 87 87 87 89 87 92 128 143 156 154 143 109 114 129 121 126 136 147 146 146 151 153 156 156 158 158 152 146 131 123 110 100 92 81 66 46 46 83 56 50 56 22 48 60 55 106 64 65 65 60 65 74 77 83 92 102 107 114 118 131 136 138 129 128 126 120 117 115 109 88 82 68 73 66 54 43 43 42 39 42 41 45 43 45 53 51 59 72 52 55 87 85 87 87 89 89 87 90 132 156 153 135 127 75 81 145 139 124 135 143 149 145 146 156 159 159 165 161 154 150 146 135 127 116 103 91 76 61 63 99 107 59 78 62 72 64 94 137 119 78 63 86 79 79 75 76 87 99 110 121 129 144 158 156 144 137 132 121 111 101 89 70 70 61 61 51 49 42 40 43 40 43 38 40 39 46 46 49 54 54 39 69 86 86 88 84 87 89 87 90 129 168 149 120 117 81 97 166 156 124 131 141 148 145 149 152 157 161 163 162 163 155 153 150 148 134 125 114 101 98 94 98 122 96 74 71 81 99 135 144 124 100 88 77 96 102 106 84 91 104 108 123 139 157 167 159 151 144 134 115 95 72 58 49 45 44 44 43 43 43 44 51 54 57 51 50 43 39 43 44 42 40 41 64 86 86 86 90 87 89 87 90 116 175 136 111 122 109 138 182 163 127 129 135 143 142 152 150 152 162 164 161 163 162 162 163 156 154 148 139 137 125 116 112 118 128 116 106 106 117 121 119 109 88 111 97 80 125 131 105 104 109 112 126 141 168 176 165 160 157 137 108 60 50 44 48 46 37 29 58 40 28 31 37 43 51 59 69 68 67 55 58 52 40 44 74 86 86 85 87 88 88 87 86 117 175 133 119 144 151 161 178 161 128 126 136 142 144 152 149 153 162 159 160 167 162 167 165 164 159 156 151 147 142 138 129 121 124 121 104 118 108 111 108 109 105 104 114 114 127 128 123 113 113 118 137 155 173 179 175 172 157 126 84 55 76 60 84 70 41 44 52 75 39 30 61 31 40 43 46 73 75 78 71 61 51 59 84 86 83 87 87 92 87 86 88 111 170 142 124 151 156 162 173 157 129 125 135 142 138 151 152 153 162 161 157 166 164 170 166 168 164 163 155 153 143 142 138 136 133 128 123 121 115 115 112 105 104 109 113 124 132 123 119 122 121 130 149 161 168 179 178 171 158 121 72 85 85 81 108 107 52 67 48 64 64 41 92 66 28 41 46 50 73 77 74 72 65 71 85 85 85 89 87 86 90 87 89 108 164 156 134 142 139 144 170 155 130 123 133 138 138 147 151 155 158 159 163 168 169 167 169 169 165 166 161 162 156 146 139 135 136 134 129 129 124 124 116 114 114 112 112 125 126 118 124 139 133 144 153 159 171 176 181 172 161 121 74 93 92 88 93 111 84 68 62 73 66 93 109 78 50 31 49 57 68 76 75 82 79 78 83 84 90 87 86 88 88 87 91 121 130 166 155 145 141 120 159 157 129 122 133 134 142 142 151 155 153 157 159 168 167 170 169 170 169 168 167 169 166 164 155 148 149 148 143 138 138 132 126 127 119 125 129 131 128 135 145 154 155 154 157 160 171 178 182 172 170 123 81 98 114 105 102 110 109 103 86 89 104 116 112 85 59 54 41 57 72 77 84 90 81 81 85 85 87 88 85 90 87 86 90 146 125 135 158 172 173 120 131 157 128 125 131 134 136 144 148 157 150 154 155 161 161 165 168 169 171 166 169 172 164 169 163 155 156 153 151 145 143 135 133 141 141 150 147 148 151 157 164 164 160 162 160 158 174 180 186 179 169 139 90 98 113 109 104 99 107 104 104 96 104 100 94 91 74 60 58 74 85 99 98 97 81 78 86 83 89 87 87 88 88 89 89 161 148 145 141 170 179 165 128 150 129 124 127 131 132 140 144 155 148 148 155 152 160 163 165 168 170 170 165 172 161 164 164 157 151 156 152 149 157 155 163 167 166 170 161 163 160 167 165 159 158 162 164 166 171 180 184 181 173 142 98 97 108 113 111 105 107 105 105 97 97 100 97 91 87 84 82 95 104 109 107 102 81 79 85 84 86 88 86 87 88 87 87 158 164 163 150 153 165 176 150 142 129 122 127 128 132 132 144 148 151 144 160 151 154 158 160 164 167 169 168 167 168 163 162 163 162 166 169 165 174 169 171 177 175 172 167 169 172 165 163 161 159 162 163 163 172 184 184 179 172 142 98 108 108 110 114 112 112 111 112 109 109 107 106 102 105 103 105 115 114 117 111 101 80 82 87 84 88 88 84 90 87 87 88 122 157 168 163 152 160 168 158 135 130 124 127 128 129 134 140 143 147 147 153 154 151 156 158 163 162 168 161 169 166 167 170 173 170 174 176 171 174 173 164 175 175 173 173 175 172 166 166 164 162 162 163 164 173 186 186 179 173 139 105 103 113 110 117 115 114 119 120 117 117 109 114 110 113 114 118 124 124 119 111 102 76 85 85 84 87 86 87 90 88 88 87 71 125 158 169 172 176 179 173 142 127 123 128 128 126 130 138 139 141 146 149 146 153 153 156 156 161 167 161 162 168 170 173 173 175 172 176 171 172 171 167 175 173 172 171 171 169 169 170 165 165 162 166 170 181 189 181 181 168 137 113 104 111 116 117 122 117 119 123 126 123 119 122 123 121 126 128 127 125 119 113 100 74 86 86 85 87 85 87 90 88 90 89 81 70 129 157 166 171 175 183 153 126 122 128 130 123 133 136 136 131 139 145 145 150 151 156 162 164 166 162 163 165 172 169 174 174 174 171 173 172 179 171 172 171 169 165 167 160 162 165 160 168 166 168 172 182 187 182 177 165 140 119 106 108 121 121 120 123 124 123 121 122 121 125 127 130 131 131 126 123 117 112 92 79 86 86 88 86 89 88 88 88 91 88 80 76 74 119 145 161 168 177 161 126 123 126 131 129 129 135 135 134 134 143 146 146 152 151 159 159 163 156 167 165 172 173 172 170 177 163 170 169 173 174 170 161 158 150 146 144 145 157 159 171 165 172 179 181 183 179 176 160 147 121 108 111 123 127 122 119 126 128 125 121 123 126 130 131 129 131 126 120 110 111 80 84 83 87 86 86 89 88 87 92 87 87 82 79 79 74 97 139 149 168 158 128 123 125 132 132 128 137 139 135 135 139 148 146 149 152 151 152 160 156 163 167 169 172 173 169 175 169 169 164 162 168 156 147 131 135 140 149 147 159 160 163 167 173 178 185 181 180 175 170 148 131 107 110 122 130 129 123 124 128 135 131 129 128 129 133 131 129 124 117 108 100 78 82 83 88 85 88 86 86 87 89 86 88 81 80 81 80 70 86 102 139 143 129 123 127 130 133 134 135 142 137 138 137 143 148 146 151 149 151 154 159 160 165 170 171 172 169 170 167 160 157 156 152 137 129 123 141 140 156 157 152 156 162 168 174 178 185 180 180 179 169 149 137 106 101 123 132 133 130 125 132 131 140 129 126 125 128 128 124 118 111 109 87 75 85 83 86 83 86 86 86 88 85 88 88 81 78 80 78 79 78 76 73 121 128 124 126 129 136 135 138 142 136 139 139 141 141 147 146 146 154 152 157 161 167 171 168 169 169 165 160 149 142 140 130 131 117 126 141 140 158 164 156 153 168 172 175 176 181 181 181 180 167 152 137 110 99 116 133 132 131 130 128 129 135 129 125 125 124 123 121 109 107 104 78 79 85 82 88 80 86 88 87 88 87 86 90 80 77 80 81 79 78 80 69 83 132 122 127 131 134 137 138 141 139 141 142 140 142 144 146 153 148 154 158 160 164 171 160 164 161 158 148 144 134 132 131 138 122 124 141 144 161 153 148 160 171 173 171 182 182 187 181 178 160 149 139 114 105 113 131 129 134 129 128 130 132 129 129 123 120 116 113 106 103 95 76 82 85 85 84 83 87 87 85 86 88 86 86 79 80 81 79 79 77 79 77 63 122 120 129 131 135 136 141 138 146 138 141 141 142 145 145 151 148 161 160 160 168 165 162 162 154 149 138 132 129 140 145 148 128 123 139 143 155 145 142 157 170 168 168 173 176 185 178 171 156 150 133 114 107 108 123 126 132 124 122 126 128 127 124 122 116 112 112 104 101 80 74 83 86 82 83 84 87 86 84 88 86 87 86 83 76 82 78 77 79 75 81 66 97 130 126 133 139 137 140 141 141 141 140 139 146 145 144 153 155 160 162 152 167 160 160 154 145 143 131 133 144 153 161 164 140 112 131 135 145 143 140 145 152 162 166 163 164 172 171 163 149 145 129 104 111 104 116 123 130 133 121 122 128 129 125 119 115 105 110 102 90 75 78 81 83 83 82 85 85 85 86 86 87 86 88 83 77 77 82 74 79 78 79 72 71 132 128 133 136 140 138 142 137 136 145 137 137 144 147 146 151 159 163 161 163 161 157 151 147 146 143 150 166 168 169 164 154 116 112 119 124 123 120 125 130 148 147 151 159 157 158 153 140 130 115 98 104 112 110 121 122 130 131 123 126 129 127 119 110 108 103 94 80 73 78 82 83 81 83 86 82 87 83 86 83 86 86 78 78 78 77 78 75 78 77 76 63 129 130 134 133 137 139 141 140 136 140 143 137 142 147 147 151 158 162 165 161 162 157 155 157 159 161 168 169 169 170 171 165 139 99 87 88 85 71 86 111 122 132 134 137 141 137 133 119 107 93 90 108 121 112 117 119 129 129 120 122 126 114 115 105 103 94 84 73 78 78 83 80 82 84 83 83 88 83 85 85 84 88 78 77 78 79 79 76 75 77 77 64 124 128 131 135 136 143 142 144 139 138 144 137 142 147 149 152 149 158 162 163 161 161 165 164 170 170 166 170 168 172 170 170 158 133 86 72 83 73 62 71 101 114 117 123 119 122 106 89 80 83 85 122 127 117 116 121 120 126 123 118 122 110 109 105 97 86 72 76 80 80 80 79 82 84 81 85 83 86 83 87 85 86 78 76 81 76 76 75 78 77 73 63 124 124 131 133 136 139 142 141 141 142 144 138 142 148 148 155 143 155 161 165 163 169 166 166 170 164 158 167 169 161 168 164 160 157 129 108 106 96 79 69 73 92 99 104 100 91 69 51 68 85 99 128 132 126 117 118 116 122 122 118 117 109 107 104 94 73 74 77 78 81 79 83 80 81 83 83 83 83 86 83 84 85 79 79 81 73 78 78 78 77 73 65 124 120 130 130 135 137 138 143 141 142 148 139 145 146 152 156 158 160 163 163 172 169 161 167 173 160 165 165 167 158 159 160 164 162 149 134 126 119 102 76 69 64 72 70 69 59 43 65 81 95 115 130 130 127 121 121 113 120 122 117 114 107 104 102 86 68 76 79 76 83 78 80 82 82 83 81 84 85 84 83 83 86 79 79 79 75 78 75 79 77 71 71 125 119 127 130 135 136 140 138 142 140 145 138 150 145 155 159 160 160 163 164 166 167 150 161 169 164 164 170 167 160 161 161 167 167 156 142 130 134 122 99 81 73 71 63 69 67 74 94 101 108 125 131 131 129 122 122 121 122 119 113 111 109 100 95 73 75 76 82 77 81 77 82 80 81 82 85 80 84 85 83 83 85 77 79 78 79 79 75 81 75 71 73 130 118 127 131 133 140 132 136 141 138 141 147 147 154 151 161 159 163 163 167 169 166 160 156 168 172 164 168 171 162 165 166 171 171 162 153 137 134 127 112 107 99 91 85 94 107 110 116 116 120 128 127 127 132 126 122 124 119 115 110 110 101 99 89 69 75 76 77 79 78 79 80 79 78 83 82 81 86 81 81 82 85 78 76 77 77 75 76 79 77 68 80 135 120 122 128 133 141 140 131 141 141 142 149 150 152 152 161 158 164 161 167 168 163 159 155 160 166 159 158 168 164 167 161 173 169 160 163 158 136 112 116 124 123 124 127 128 125 130 126 128 131 127 128 128 131 127 119 123 121 112 111 105 97 98 77 72 76 77 78 76 83 78 81 81 81 80 81 80 80 84 80 80 80 79 80 78 75 80 78 77 77 67 91 131 122 118 123 129 137 138 137 139 145 143 143 151 149 154 161 161 160 156 167 162 157 147 143 146 147 150 152 158 159 162 159 164 160 159 162 168 154 130 136 136 142 146 141 141 132 132 135 130 134 131 132 126 131 128 118 123 119 113 107 104 98 91 73 75 78 76 77 80 78 80 77 80 81 77 84 79 82 79 82 81 80 79 76 77 76 77 77 74 81 58 105 127 129 114 121 129 133 135 141 141 144 143 143 142 142 150 162 162 162 162 157 149 141 136 115 110 121 136 136 138 137 129 129 123 117 121 125 135 145 142 147 149 149 154 139 139 127 128 127 128 128 128 127 123 124 128 119 121 121 111 108 100 101 81 71 74 75 77 75 76 80 77 78 77 80 76 79 79 79 79 80 80 82 77 76 76 77 77 76 74 79 57 117 132 133 117 114 128 133 142 136 140 141 145 147 126 137 146 159 162 156 156 149 143 136 130 107 67 76 92 94 96 89 75 75 75 76 77 85 84 89 102 114 135 137 131 115 111 110 108 113 116 120 124 119 116 122 123 120 121 117 108 107 101 98 71 72 73 74 75 75 77 77 80 78 78 79 78 78 79 78 77 77 80 79 77 78 76 74 77 76 75 77 61 124 129 134 128 106 122 131 137 140 137 144 145 148 134 138 147 153 159 153 143 140 142 143 144 155 137 118 89 81 75 65 51 44 49 43 49 81 79 71 66 79 86 83 75 75 79 86 87 94 92 96 103 104 106 112 122 121 120 116 104 106 98 88 69 74 74 74 73 77 76 75 79 75 78 76 79 77 79 79 77 77 80 78 79 77 75 72 78 76 76 74 69 134 126 132 137 116 111 125 133 139 138 144 144 144 142 142 147 148 151 149 145 142 147 151 157 170 169 154 136 131 129 123 113 113 85 42 60 88 83 76 49 78 77 76 53 52 53 40 42 66 68 79 71 76 104 116 121 120 116 115 106 104 98 77 66 75 75 73 72 77 74 76 78 74 77 77 76 77 76 77 76 79 77 77 75 77 74 77 77 75 76 64 81 135 129 131 130 132 105 114 125 134 134 142 138 142 142 144 148 145 144 136 145 149 144 155 157 167 173 156 140 134 136 125 141 159 148 122 102 87 84 74 58 80 79 79 51 48 50 40 41 41 44 58 62 84 112 114 115 117 113 112 102 100 87 64 71 74 72 73 74 75 75 76 75 78 74 76 76 76 74 77 76 77 76 72 75 78 76 76 78 74 78 57 97 135 133 127 122 130 113 110 119 127 127 136 134 142 138 141 142 143 143 145 152 150 147 152 164 165 164 164 144 131 131 120 135 147 159 158 149 141 121 119 106 99 99 97 85 92 97 99 99 93 85 89 108 115 124 113 116 118 115 107 103 101 72 65 71 73 73 74 74 75 76 75 76 76 74 76 73 77 76 76 76 75 76 76 77 76 75 76 79 73 82 55 112 136 129 130 119 123 118 104 111 119 130 132 135 133 141 140 135 144 147 147 148 147 148 147 157 163 163 166 158 137 124 116 124 129 137 147 153 153 152 145 149 137 142 133 129 125 128 124 116 105 95 105 125 119 116 116 115 118 113 103 102 88 63 70 69 74 71 76 73 73 76 74 75 77 75 77 73 74 77 73 77 75 74 75 76 74 76 73 76 75 77 58 125 132 128 126 125 118 118 103 102 114 120 130 129 131 138 143 137 141 151 152 159 157 157 141 149 161 156 165 157 146 130 130 122 117 119 125 129 134 136 137 142 148 144 149 138 140 126 120 105 95 98 112 124 122 113 120 111 115 104 102 95 65 66 70 69 74 74 72 75 74 74 74 74 72 76 76 74 75 73 77 74 76 74 75 76 74 77 77 75 77 72 65 130 134 131 126 121 120 123 108 97 102 109 121 122 131 132 139 138 135 146 152 155 163 165 154 154 160 152 166 159 150 134 121 134 125 115 111 110 109 103 109 116 123 113 116 117 113 110 102 95 98 101 120 119 115 114 118 107 112 102 101 76 57 68 74 68 74 69 74 73 73 75 74 74 72 74 73 76 74 72 75 73 75 73 74 76 74 75 75 73 77 66 84 134 134 136 130 118 117 123 110 107 98 103 112 117 122 129 133 138 135 142 150 154 160 161 155 156 165 161 164 162 158 147 133 121 122 118 107 110 98 92 86 99 94 92 93 97 95 100 95 96 102 111 120 108 110 115 114 110 102 101 87 54 63 67 71 70 71 72 73 70 76 70 75 74 70 76 73 73 75 74 75 74 72 75 74 76 76 77 74 78 73 58 106 137 133 136 134 123 111 119 119 112 109 92 99 114 109 119 131 127 137 138 146 152 147 153 159 156 153 161 155 163 159 143 151 138 123 118 108 109 103 99 91 85 88 96 95 98 97 105 101 107 103 116 121 104 113 117 113 106 101 102 55 60 65 69 69 72 70 70 75 69 73 73 70 75 71 73 74 74 71 73 71 72 73 72 71 75 76 77 72 78 73 56 128 138 137 136 135 128 122 120 123 116 111 100 89 95 112 111 122 125 131 139 146 148 152 148 159 159 148 153 156 162 154 152 151 150 149 137 127 117 116 111 109 103 106 109 108 111 108 107 107 109 112 123 118 110 110 114 109 103 99 68 58 61 66 67 68 71 68 72 71 71 70 73 72 70 72 70 73 71 72 72 72 71 72 69 72 76 76 73 77 76 66 87 136 141 139 136 128 130 124 121 119 118 114 105 101 90 95 112 113 117 129 130 140 148 148 152 158 165 155 161 161 165 166 163 159 156 157 154 150 141 134 126 127 125 125 128 128 124 115 116 120 122 126 125 114 117 117 112 103 102 75 53 60 62 67 69 70 70 66 72 70 72 67 73 71 72 70 72 70 75 70 69 73 70 72 71 74 77 74 78 74 74 71 116 134 141 140 145 135 129 126 122 120 119 116 111 105 98 88 97 106 117 119 126 134 142 143 139 153 160 153 157 163 153 166 170 165 171 168 163 164 158 153 145 133 144 143 141 136 132 135 127 130 133 135 127 121 114 117 110 106 85 53 56 61 65 67 68 67 71 67 72 70 71 70 70 71 70 72 70 70 70 70 72 70 72 70 68 73 74 79 87 88 92 116 129 133 142 142 144 139 133 126 123 118 116 116 116 110 103 95 96 93 104 109 117 126 137 136 138 140 157 146 158 163 164 165 168 159 170 165 169 168 167 168 159 154 143 153 149 146 140 142 139 137 133 139 126 123 118 113 109 87 59 57 58 63 65 67 69 69 70 69 72 68 72 67 73 70 72 72 68 70 69 70 70 68 72 70 69 70 140 174 158 142 127 129 130 133 141 144 143 141 138 128 121 127 120 118 115 113 106 107 94 98 89 105 108 115 131 130 135 136 144 141 148 160 164 163 163 165 163 167 167 169 166 169 159 159 153 155 150 159 151 147 146 145 144 138 126 123 116 111 99 59 57 59 62 63 64 67 70 65 70 70 69 73 67 72 71 69 72 72 69 68 71 71 70 67 70 70 71 69 195 144 137 132 135 134 130 138 143 143 144 142 139 134 121 131 124 122 117 108 111 111 105 97 90 102 96 107 115 125 128 131 133 143 150 157 154 157 164 159 163 165 162 166 163 162 159 164 160 160 157 154 151 145 153 146 145 137 126 115 109 106 68 53 58 56 64 63 70 67 70 67 68 69 70 69 70 71 71 69 69 70 70 71 67 72 71 67 72 69 69 69 165 140 145 133 144 140 130 142 142 144 145 142 139 138 127 124 128 119 117 115 111 113 109 101 96 99 94 92 105 114 120 125 133 137 138 148 130 144 156 155 164 157 166 164 160 153 162 157 160 156 159 154 148 143 150 145 140 131 122 113 102 95 59 55 60 56 63 65 65 69 66 70 67 68 71 68 69 70 69 68 69 68 68 69 71 69 70 66 69 70 69 67 149 149 144 142 146 141 133 142 144 140 150 143 142 142 133 129 129 121 121 121 115 113 110 107 104 103 96 98 93 98 111 113 123 128 130 137 132 138 150 159 158 156 154 155 152 147 155 151 146 150 152 148 144 144 146 139 130 123 114 110 88 90 59 57 59 61 62 64 67 69 66 68 67 69 68 70 68 70 69 67 70 68 71 65 69 69 66 68 70 67 67 67 156 149 144 151 145 141 132 147 143 144 144 147 140 144 138 130 130 126 127 124 121 118 117 111 109 102 106 99 94 89 89 110 114 118 121 124 129 136 145 146 150 152 145 146 146 143 142 147 144 141 137 142 136 138 135 130 121 111 109 96 84 91 78 84 86 70 64 66 68 69 68 66 69 66 69 67 69 67 71 66 69 67 66 65 70 67 69 64 68 69 66 68 162 149 151 150 146 142 138 145 146 145 143 146 147 142 143 139 136 131 131 130 127 118 117 113 112 109 105 102 95 98 92 89 108 113 112 111 118 122 135 132 137 135 131 135 136 136 132 140 135 134 137 136 127 128 127 116 112 107 93 81 94 89 90 93 95 123 118 73 66 67 67 69 68 70 66 70 67 69 67 69 68 71 67 69 66 68 66 68 64 68 63 69 173 152 154 149 148 142 144 145 150 147 146 146 148 146 148 142 137 136 132 132 132 123 123 115 115 110 105 108 104 101 96 93 89 99 109 111 101 115 117 122 124 129 121 127 126 122 127 122 131 133 133 125 126 117 111 108 105 94 80 89 96 95 94 96 111 79 144 167 126 67 64 69 68 70 66 69 68 69 68 70 65 72 68 66 70 67 64 67 67 65 68 68 201 150 155 152 146 146 144 146 147 150 146 154 143 145 148 142 141 142 131 134 133 128 123 121 115 116 109 106 102 101 103 99 100 88 90 105 106 104 112 106 113 110 114 110 112 116 113 113 121 115 121 113 115 111 103 99 94 81 86 92 97 95 94 102 112 99 108 181 175 164 114 56 67 66 69 69 67 68 67 67 68 65 68 62 68 66 67 65 63 65 68 61 220 163 152 155 146 144 147 149 150 150 150 153 152 147 147 151 143 150 141 132 131 130 124 123 118 115 110 108 106 100 102 101 101 100 92 85 84 97 105 107 106 106 102 100 105 108 104 105 108 109 105 104 101 99 93 89 82 86 90 96 103 95 101 106 110 109 113 186 175 172 175 139 55 66 69 66 67 68 68 68 65 68 67 67 66 66 67 64 66 67 64 66 212 193 150 154 149 146 148 150 148 149 150 151 155 150 149 151 145 150 148 140 131 124 123 124 119 115 116 108 107 105 100 98 101 100 101 94 88 74 76 86 95 93 101 99 100 103 97 102 104 98 100 97 94 87 83 80 85 91 95 101 105 98 104 110 114 101 142 181 176 176 170 181 138 75 63 66 68 70 64 68 69 63 68 65 68 65 67 63 66 65 66 64 199 215 163 148 151 148 152 146 151 153 147 153 155 153 153 150 147 147 146 141 141 132 123 117 119 118 118 111 109 105 103 100 96 101 99 100 92 88 68 82 75 73 70 76 73 83 87 90 94 88 89 84 84 79 83 85 88 96 102 106 108 98 106 111 115 104 169 176 179 174 174 178 164 164 122 70 61 67 67 67 65 66 66 66 66 66 66 65 67 66 63 67 200 206 206 145 150 151 152 151 152 152 148 150 150 151 152 150 151 147 142 139 136 137 129 130 117 117 119 114 111 110 105 105 97 100 101 103 96 93 83 86 79 72 72 79 75 79 82 85 87 84 81 84 85 82 83 92 92 99 107 110 105 101 107 114 114 129 184 174 179 174 178 174 169 163 161 157 111 64 66 67 66 67 65 65 66 65 67 63 66 66 64 63 