P2
92
112
255
112 109 112 109 113 113 102 109 109 96 106 106 103 114 87 67 80 64 69 77 61 66 48 41 49 44 35 29 31 29 44 36 38 32 31 35 27 35 37 36 30 31 35 33 35 36 30 38 37 42 40 44 43 44 54 52 48 51 52 48 49 40 40 47 56 51 56 67 67 52 53 53 63 68 87 85 94 99 96 104 104 101 103 103 103 102 102 101 101 103 103 101 111 112 111 110 110 113 95 99 101 101 82 98 102 108 96 95 62 61 60 62 56 48 56 45 44 47 28 33 30 26 32 36 31 34 26 33 28 33 26 40 35 28 39 36 28 36 33 39 39 34 34 34 33 36 42 39 57 55 59 52 39 56 48 49 57 59 62 65 60 45 51 45 52 69 78 73 80 94 101 101 81 98 101 101 103 100 103 104 101 102 101 101 112 111 113 99 103 104 108 92 105 98 89 84 88 103 85 89 95 48 57 57 52 37 47 47 45 36 31 32 30 26 31 28 26 32 28 34 30 30 29 28 49 26 31 41 26 34 30 34 31 27 27 32 28 32 34 55 51 55 48 43 44 53 51 55 61 65 69 56 62 49 46 37 69 74 67 65 63 73 95 81 85 87 91 104 102 102 102 103 104 103 102 105 110 111 113 104 78 74 92 99 97 100 96 81 74 76 80 86 83 63 39 50 47 42 27 46 42 38 33 31 30 26 27 19 30 27 33 32 30 30 28 23 34 41 22 38 28 32 32 30 30 24 30 30 27 35 36 50 44 43 45 36 50 54 54 51 52 59 74 48 58 40 50 62 75 57 70 66 53 70 73 78 72 70 82 93 91 100 102 101 103 102 104 101 111 110 114 103 104 68 67 72 78 84 96 97 77 71 62 65 74 63 39 43 37 46 30 33 35 33 31 33 27 26 22 22 27 26 33 28 30 28 30 21 24 44 31 27 32 26 32 27 30 33 34 20 30 34 32 45 39 34 40 42 49 49 51 41 52 57 51 42 54 63 68 67 64 57 61 63 55 59 57 66 72 83 81 80 85 99 101 103 100 104 102 103 113 109 110 109 102 100 77 61 70 67 78 81 87 83 67 58 57 54 53 31 35 34 33 33 30 31 28 31 26 28 23 21 27 30 28 34 25 30 27 26 23 32 33 28 35 21 33 28 27 32 27 20 30 35 30 44 36 34 34 41 38 40 44 39 48 46 41 50 59 59 56 48 46 58 51 52 53 53 49 61 79 91 67 65 72 87 98 103 100 102 102 102 109 108 105 106 97 80 101 80 78 70 73 75 72 80 71 66 55 48 55 41 34 35 31 35 31 25 30 24 31 23 27 25 24 31 26 30 23 26 30 25 27 27 29 29 32 22 26 35 26 30 21 22 31 33 31 42 37 32 31 31 35 39 38 40 42 36 37 48 50 46 37 46 41 44 51 50 43 56 57 60 65 67 66 65 69 79 91 97 97 101 101 102 109 98 89 94 102 88 76 81 76 69 65 62 64 64 61 60 65 47 54 48 39 37 34 31 28 30 27 23 31 22 23 32 21 29 29 27 25 25 27 25 25 24 29 30 28 25 24 32 29 25 23 25 28 32 32 38 36 30 32 29 32 34 31 36 35 33 34 39 35 34 34 34 36 37 46 49 47 47 51 52 51 63 68 69 70 75 70 71 97 102 102 102 110 107 88 75 92 93 85 71 71 65 68 66 62 61 53 54 55 48 42 48 43 44 34 34 29 32 21 29 27 29 23 32 24 29 27 29 22 25 21 26 25 27 22 30 24 26 27 30 27 26 22 32 25 30 32 38 37 28 36 28 27 29 26 32 31 33 30 30 29 33 31 29 33 38 45 46 50 51 53 68 52 57 58 54 61 45 48 74 94 99 99 99 109 89 79 82 75 87 92 87 75 69 61 61 55 59 52 47 52 46 37 42 39 41 33 36 28 28 26 26 29 32 27 25 30 28 32 23 24 23 25 23 26 31 23 28 27 25 29 30 27 29 26 24 30 29 33 36 35 25 34 29 26 23 30 27 30 31 22 27 25 32 28 25 32 34 33 37 46 54 51 57 49 45 36 45 52 44 60 77 77 84 98 101 106 99 76 56 63 75 76 80 80 77 69 54 60 59 51 55 49 52 45 37 41 35 40 32 30 34 25 26 25 31 26 23 31 37 33 26 27 23 28 28 25 28 30 28 25 27 24 27 26 26 26 21 29 33 35 33 33 23 35 30 20 21 34 24 28 30 25 19 28 35 24 27 25 33 31 36 44 45 45 47 47 38 50 58 43 55 70 56 74 91 99 101 102 103 105 101 73 70 66 75 73 73 66 54 53 48 49 50 50 51 48 36 38 39 36 36 35 27 32 28 26 30 36 25 30 38 39 30 29 29 26 27 31 22 30 29 23 23 26 25 29 25 24 19 32 32 33 32 26 27 34 28 20 23 27 22 21 34 18 21 26 31 31 20 21 30 29 26 30 39 38 43 44 35 48 51 43 59 57 48 59 70 87 94 103 82 74 65 63 64 65 67 64 61 50 52 50 51 55 44 33 35 37 48 41 35 34 27 26 33 31 24 29 30 35 34 26 31 34 38 32 32 26 28 31 33 26 29 26 24 25 21 27 45 19 29 19 40 37 33 24 32 33 35 18 20 27 20 24 31 18 21 25 25 32 21 24 19 29 26 33 41 39 41 35 34 37 43 43 48 50 65 63 56 83 99 83 67 50 78 67 68 63 58 46 46 51 57 51 48 35 38 37 31 31 25 36 45 35 35 31 27 29 36 31 32 37 35 34 37 39 27 43 33 28 33 31 35 26 32 35 23 28 20 26 27 39 28 20 35 35 30 31 21 36 35 18 23 23 18 25 31 16 20 29 20 29 22 25 16 30 21 35 31 28 36 36 40 37 40 42 48 46 52 63 69 67 72 86 61 67 75 65 53 53 53 57 57 68 59 59 45 38 35 42 31 32 27 27 28 34 38 40 33 32 35 34 37 49 41 34 41 40 32 34 41 32 34 29 34 31 32 41 30 27 29 30 30 20 37 33 31 31 31 31 15 31 37 25 24 21 20 26 27 23 25 25 19 24 25 22 17 23 25 28 21 29 30 27 29 31 37 41 42 44 54 74 64 50 60 100 86 79 66 67 66 53 55 56 70 76 67 54 52 46 45 43 48 37 43 39 36 40 37 41 37 41 42 38 38 59 46 40 46 39 41 42 38 44 45 33 36 34 33 39 30 29 36 34 41 22 34 37 28 32 30 33 21 25 39 33 23 20 18 24 29 25 22 29 20 22 23 27 18 22 28 25 20 31 23 29 27 25 37 37 32 42 44 47 45 38 51 102 94 96 68 74 56 54 56 55 68 84 83 75 73 72 65 56 63 56 56 45 45 47 45 45 42 43 41 44 41 53 55 51 44 42 35 40 43 46 52 48 42 46 32 33 37 39 39 43 48 35 32 35 31 34 37 29 33 30 29 47 26 23 21 23 26 27 28 21 28 20 22 27 19 19 29 23 20 31 25 23 27 27 30 34 34 39 56 45 69 73 73 108 95 88 81 62 57 55 72 71 70 74 72 77 83 81 72 63 57 55 49 49 47 46 47 47 48 52 50 48 51 60 57 53 57 52 48 40 36 39 46 56 61 55 44 52 38 41 38 45 46 49 36 41 34 31 38 36 49 29 24 39 33 31 31 24 26 25 27 24 21 30 20 24 26 17 26 22 25 26 26 19 25 28 25 31 35 36 64 65 61 79 84 101 100 77 59 48 60 60 66 67 72 84 85 75 77 79 71 57 53 48 48 44 45 41 48 57 57 52 54 54 55 60 55 55 60 56 58 61 49 44 39 36 63 58 54 54 53 47 48 45 48 40 57 48 39 34 37 47 45 31 25 31 39 33 43 40 29 25 28 27 19 29 24 21 27 22 23 21 23 22 23 20 27 25 25 32 30 38 43 55 68 70 79 94 85 62 46 46 59 67 71 75 77 89 95 89 80 78 74 59 62 54 55 49 45 50 51 65 60 53 57 55 64 68 62 68 70 70 64 69 72 68 61 60 44 66 55 55 52 57 60 55 60 42 58 59 42 40 42 44 48 35 35 25 34 37 35 47 35 32 39 29 26 26 29 22 22 27 22 22 19 26 18 22 26 21 26 29 27 38 45 57 73 77 85 86 69 52 49 54 58 72 84 75 77 90 90 82 85 82 73 69 66 64 67 63 65 60 62 63 63 58 63 64 66 71 71 66 74 68 81 71 76 81 74 68 68 58 63 51 45 61 57 60 63 52 52 69 53 50 47 50 43 43 38 33 33 36 38 45 34 38 36 35 33 27 26 27 25 25 26 18 24 22 20 21 27 20 28 24 28 28 34 44 60 67 79 90 67 55 51 48 54 55 75 73 77 82 84 91 96 93 85 75 76 71 69 67 66 65 67 65 66 68 68 71 75 72 82 67 73 80 85 66 69 84 71 73 63 62 55 61 52 57 58 59 65 57 47 71 68 62 52 46 44 47 43 41 35 35 40 46 45 34 41 34 35 33 31 29 28 25 29 18 27 20 19 24 23 25 23 21 28 32 34 34 36 45 60 97 76 61 43 49 56 61 67 74 80 91 97 103 105 106 100 89 95 91 81 83 75 81 78 72 78 80 76 70 84 85 87 79 76 80 65 64 80 77 63 65 68 59 65 61 59 58 66 61 63 67 55 54 65 65 59 53 45 46 50 44 43 34 40 39 52 40 37 39 38 41 36 34 31 28 25 26 25 20 21 21 20 26 21 24 25 37 32 35 38 41 47 100 80 53 50 51 55 62 59 62 74 81 87 95 100 95 101 92 90 93 96 89 77 96 92 89 89 92 82 93 94 86 77 86 81 77 65 71 71 64 63 73 76 54 64 75 56 59 65 70 65 63 58 63 59 67 66 63 50 47 41 51 49 44 39 46 39 55 39 46 43 50 44 38 36 27 28 24 27 20 20 21 22 22 20 22 25 30 26 36 44 51 49 94 78 56 53 47 56 51 50 67 82 89 89 100 99 101 99 99 108 109 105 99 99 104 101 98 92 95 95 103 101 88 86 86 81 80 73 71 69 72 73 76 70 62 68 81 61 64 64 61 64 65 63 58 69 57 66 62 53 57 47 46 47 47 46 53 51 46 61 49 47 55 53 48 38 33 30 30 23 21 23 19 23 19 22 27 22 25 31 36 45 42 54 97 67 54 55 55 51 51 60 84 100 100 102 110 111 118 117 114 115 112 114 114 109 111 103 105 106 104 122 120 108 96 83 93 85 71 68 73 78 74 74 82 76 68 72 73 67 61 75 67 65 65 60 68 65 64 68 69 64 58 63 54 47 62 55 56 54 61 56 64 58 49 51 56 49 43 31 28 28 29 21 23 21 21 23 19 23 27 32 33 37 42 43 68 60 60 54 57 49 50 71 104 107 117 116 119 122 124 127 128 121 120 117 113 117 117 120 130 126 133 141 131 116 102 90 83 83 80 91 87 81 73 80 81 76 79 78 75 72 67 77 67 74 72 73 65 67 67 69 83 79 72 64 60 57 61 76 66 66 63 67 68 66 63 57 57 53 47 35 34 28 28 23 23 19 24 21 25 24 23 29 24 37 35 44 74 65 53 53 54 50 49 96 112 120 119 124 133 125 132 124 122 126 128 132 126 136 129 137 136 140 152 133 121 110 103 102 101 92 99 97 99 85 86 88 90 84 85 89 76 91 77 88 81 78 82 92 92 86 77 79 83 84 84 79 67 73 69 76 85 80 71 79 86 72 71 68 70 60 53 45 37 33 26 24 21 26 18 24 26 17 23 26 26 29 36 37 78 66 47 52 50 45 67 109 126 133 126 125 118 116 117 124 131 132 129 133 131 136 141 144 141 151 147 130 117 118 120 113 107 108 102 101 102 102 98 93 94 97 100 103 85 95 103 95 87 92 92 99 100 102 98 97 95 103 100 96 84 89 87 90 103 95 89 90 94 86 78 76 64 75 63 48 35 34 28 21 24 22 23 22 20 18 23 19 27 31 33 36 92 63 48 52 49 43 92 125 134 131 134 138 131 132 135 135 134 130 135 134 140 152 151 145 149 143 142 123 127 129 125 113 113 113 108 106 109 104 102 100 94 105 98 104 100 105 106 105 98 103 99 106 109 107 109 108 106 117 114 110 105 105 101 106 112 113 110 108 104 98 84 91 81 68 64 57 40 40 29 25 22 23 22 20 21 21 20 21 22 33 40 47 97 66 48 51 47 50 115 132 137 139 142 145 134 129 129 140 145 139 145 142 148 155 154 148 140 151 126 126 136 138 125 118 116 118 123 124 116 115 112 111 112 111 105 99 106 105 110 114 108 111 113 114 115 118 122 116 122 122 124 121 123 116 116 114 116 119 122 118 113 101 100 92 94 74 68 61 49 35 30 29 25 24 22 19 20 24 19 24 25 34 50 65 109 76 44 51 48 60 124 139 134 143 142 140 136 137 141 148 146 145 149 152 154 156 149 137 142 144 122 140 141 131 123 123 113 117 126 131 115 115 118 117 120 120 126 112 108 112 117 117 117 112 118 121 121 123 127 121 126 126 128 132 133 127 124 122 124 124 125 123 121 112 107 103 95 87 79 68 52 47 29 31 25 23 24 20 20 25 23 27 26 32 40 72 107 74 47 48 46 68 132 139 145 147 146 148 146 142 150 144 142 149 151 153 159 152 133 142 152 139 129 142 136 122 126 125 112 116 129 128 114 113 116 115 121 126 125 122 112 112 121 121 115 119 115 121 131 134 133 123 129 130 128 131 134 133 131 123 127 123 114 125 121 114 113 109 101 104 84 71 56 56 40 32 23 24 21 23 21 24 18 24 30 29 36 62 103 73 51 45 48 79 132 141 146 147 149 147 151 137 147 136 130 145 150 151 159 137 142 149 157 128 126 138 129 126 129 121 108 117 124 122 112 113 119 115 124 124 123 125 127 110 115 116 114 119 126 115 128 135 135 127 131 134 132 131 133 131 135 127 122 125 115 118 120 118 110 111 109 108 89 77 69 59 49 43 26 24 19 23 20 27 22 24 23 33 43 44 113 79 54 46 50 90 130 139 145 151 146 152 155 147 143 147 136 147 148 156 142 137 150 142 145 125 133 141 135 130 130 117 107 118 128 114 112 116 115 121 125 120 123 128 127 126 110 117 111 110 123 130 131 126 135 131 129 131 131 132 135 132 133 130 123 120 122 111 112 120 112 112 106 103 91 82 79 61 54 43 38 27 21 23 24 20 29 27 40 29 47 61 112 93 55 49 53 96 131 141 148 152 143 152 154 149 142 148 145 146 152 153 138 147 152 144 146 139 137 143 137 128 131 106 114 128 132 108 119 122 115 125 124 114 114 126 124 122 119 105 135 120 108 126 137 132 125 124 126 128 131 133 132 135 130 130 124 120 119 113 106 110 110 114 105 99 92 79 83 65 51 52 34 38 22 25 27 22 24 29 33 55 45 73 112 105 69 51 55 97 130 137 145 150 146 150 149 148 145 147 146 151 152 155 140 151 147 149 153 147 139 143 142 135 130 101 125 131 124 110 124 120 123 126 123 126 127 124 118 123 119 123 111 127 123 115 118 123 125 125 116 115 123 126 131 130 131 128 122 120 118 114 108 111 110 107 103 88 93 80 82 58 49 59 37 32 34 24 29 25 24 29 39 38 61 89 111 113 78 49 61 94 128 137 141 149 150 149 141 145 144 147 151 148 144 151 141 154 152 156 156 152 142 140 145 132 125 104 133 126 114 125 119 126 129 130 125 134 133 129 123 119 123 137 119 114 133 125 122 131 121 121 108 109 119 123 123 129 129 126 122 115 112 113 110 112 109 103 95 85 81 80 73 61 48 65 40 30 35 28 21 29 26 31 29 54 57 93 109 108 86 54 56 99 124 136 142 151 151 154 142 145 145 153 156 144 144 149 152 149 158 163 157 149 140 134 141 134 113 115 134 118 122 132 125 130 136 138 132 126 136 136 133 126 135 131 133 117 132 130 121 121 130 122 116 120 120 129 124 126 128 123 121 115 111 108 110 109 103 96 88 77 78 75 64 61 49 63 38 45 29 35 32 26 24 37 31 48 75 89 106 111 99 51 64 102 126 136 139 150 150 154 152 155 155 159 155 157 156 158 160 156 162 163 163 159 151 140 142 131 120 126 124 129 134 130 127 133 137 138 134 129 136 136 136 131 134 130 132 128 132 133 130 127 131 128 125 120 127 124 126 125 123 123 116 114 108 109 108 106 98 94 81 72 73 67 67 60 56 63 40 53 46 29 37 32 27 32 41 62 80 97 108 111 107 56 69 111 125 133 139 147 152 157 159 160 161 162 160 165 167 160 170 170 160 163 160 146 148 140 133 121 121 134 136 143 142 135 137 135 142 140 137 139 140 135 129 132 141 133 130 132 134 131 131 127 128 126 122 125 126 125 124 126 122 118 114 111 108 105 104 103 93 84 78 68 63 66 60 59 60 59 51 45 54 39 34 34 35 32 41 73 88 94 109 110 110 57 83 116 127 133 137 145 157 157 160 165 163 166 170 168 173 169 167 175 161 172 171 157 152 153 137 145 141 148 145 150 150 143 141 141 147 145 146 149 143 131 138 140 142 136 130 132 138 133 134 134 132 124 121 130 126 127 126 126 119 114 114 112 105 93 102 97 88 83 70 66 59 57 60 58 61 50 54 48 52 47 41 35 38 42 46 79 92 95 107 107 116 55 93 130 130 132 139 150 157 158 165 168 169 168 174 174 171 172 161 166 170 169 172 167 159 156 145 150 151 149 143 149 153 146 144 148 149 142 151 151 134 136 148 147 142 138 130 128 135 138 137 136 131 132 130 133 128 130 128 122 119 116 111 109 106 97 101 89 83 78 70 58 51 55 58 60 58 50 55 42 55 46 50 41 40 44 54 92 91 92 108 108 113 55 110 132 129 137 143 150 155 160 161 164 168 167 171 171 176 172 171 173 176 173 165 163 157 149 152 153 152 154 152 153 156 154 151 150 152 145 152 153 141 149 149 153 148 140 141 127 134 139 137 133 131 134 135 136 129 129 126 121 120 113 111 107 104 101 100 96 81 76 67 49 50 49 55 60 56 42 52 44 50 46 50 48 47 37 68 93 92 95 105 109 116 56 118 135 128 138 143 142 145 151 153 156 159 163 162 165 169 167 168 169 168 166 160 162 162 158 159 156 148 149 153 152 152 156 155 149 147 144 149 160 141 149 150 155 149 147 145 146 136 133 137 135 127 137 138 136 131 129 127 123 118 113 111 104 107 98 96 90 85 74 64 51 47 47 54 57 54 40 45 44 43 50 45 45 50 53 75 91 94 92 108 109 115 59 126 134 128 128 128 125 129 137 138 138 144 147 151 158 157 158 158 159 153 137 149 160 163 160 159 163 153 144 148 142 145 154 149 149 150 152 158 155 145 149 152 157 154 150 153 149 149 136 140 139 131 137 141 138 134 133 130 124 119 113 111 105 106 99 94 89 86 74 62 53 48 44 56 49 51 44 36 43 42 46 48 47 39 66 87 92 92 91 107 108 113 63 131 126 115 112 105 108 105 106 101 107 121 120 128 135 136 128 143 144 138 120 135 149 155 160 153 156 143 145 146 140 139 146 142 147 149 150 156 156 153 156 150 155 154 151 153 147 148 142 145 141 141 140 141 137 135 135 131 123 122 116 112 106 107 101 97 91 82 72 65 59 51 44 50 45 44 41 37 39 43 45 47 48 40 69 96 90 91 91 107 105 112 73 126 96 87 86 79 80 71 72 75 74 82 85 94 93 106 106 121 120 113 122 122 144 145 149 147 147 142 147 137 139 142 143 141 145 147 149 151 152 155 158 151 152 149 146 146 142 142 139 141 143 140 139 139 131 135 134 130 127 124 118 112 110 104 104 100 95 89 81 72 64 57 47 47 43 43 38 38 31 37 46 44 46 48 74 93 93 92 93 106 105 118 97 98 72 71 63 68 65 63 56 57 52 58 67 61 63 80 82 94 99 96 102 117 128 128 133 140 138 132 136 144 140 141 146 138 129 142 141 146 146 145 144 142 144 141 144 141 141 139 137 133 135 136 132 132 134 137 133 133 125 124 121 110 111 107 103 101 100 91 89 83 70 64 45 48 41 45 40 37 31 35 41 39 45 58 83 94 91 88 90 104 104 115 106 78 58 60 62 65 61 55 50 47 45 47 48 47 55 58 62 64 81 92 94 100 105 111 120 132 133 135 138 139 143 145 137 130 132 132 132 132 125 126 125 123 125 126 134 127 131 130 128 129 125 124 123 116 125 126 124 129 127 125 123 116 114 106 107 103 104 100 100 92 85 71 60 44 41 39 46 40 37 33 38 41 40 70 90 95 87 92 90 104 101 113 99 90 76 81 88 90 98 90 86 86 77 72 71 64 61 55 51 55 68 82 93 100 88 102 118 129 132 139 143 137 137 140 128 120 124 132 120 120 102 104 107 98 92 89 95 98 99 99 102 102 102 102 102 98 100 109 105 107 126 128 125 119 116 110 108 107 97 103 104 98 93 83 66 47 41 46 42 45 35 42 35 41 46 71 93 95 89 91 93 104 102 111 115 134 96 103 107 104 106 105 99 103 97 91 94 88 88 84 77 73 74 81 88 89 92 101 112 121 127 126 133 126 131 128 115 119 117 113 109 102 85 89 96 85 66 61 60 57 56 56 56 62 66 74 73 77 72 84 82 87 97 121 126 125 115 112 106 109 97 95 106 105 98 89 78 43 46 53 39 45 38 46 38 43 47 72 91 92 91 90 93 109 99 112 129 151 116 106 104 106 103 94 90 84 82 83 83 84 79 71 69 72 74 80 84 82 89 101 106 111 123 117 132 124 127 118 115 112 114 110 96 90 78 75 88 75 62 49 49 44 40 41 43 44 52 45 55 55 55 61 69 72 77 84 94 104 110 112 110 108 107 99 109 108 104 95 79 52 48 54 46 43 35 45 40 47 44 80 89 93 88 91 91 106 94 113 151 148 132 108 98 99 89 69 69 70 63 61 57 67 68 68 72 67 60 65 66 69 75 85 92 101 108 123 137 129 131 125 124 120 109 106 98 87 89 74 79 73 64 57 51 48 46 42 45 44 40 45 47 51 53 55 62 61 63 67 63 69 89 94 98 104 106 108 105 108 107 104 78 55 43 56 52 44 37 40 42 58 55 73 91 90 90 87 92 107 95 110 155 147 146 116 104 94 85 67 61 45 49 36 42 35 35 45 67 75 71 66 64 65 66 71 72 90 112 132 148 141 140 136 128 119 105 101 96 84 78 73 69 69 63 60 58 58 63 64 68 67 57 58 57 53 56 50 54 55 54 54 57 60 70 73 73 92 103 102 103 104 112 106 79 53 46 56 53 43 39 40 60 99 85 85 91 85 91 90 90 107 98 103 151 148 149 129 110 100 83 61 56 39 68 53 57 22 37 52 77 98 95 82 61 71 72 76 75 74 109 142 155 149 151 150 139 118 108 89 84 73 62 55 57 51 49 46 50 50 62 61 71 74 72 80 81 79 83 75 75 76 71 72 67 68 69 64 66 81 96 99 103 108 111 111 79 53 46 55 53 47 43 56 77 100 86 88 93 90 88 89 90 106 100 98 148 153 152 138 123 116 95 78 67 63 73 67 59 47 52 58 93 111 107 89 67 67 77 91 90 77 105 150 167 164 168 165 146 122 104 83 74 59 58 61 57 58 53 50 43 41 50 54 53 59 68 71 72 71 81 83 88 87 84 86 82 81 84 77 74 81 93 103 109 112 108 110 85 66 49 56 52 53 55 76 91 82 55 64 90 91 87 88 89 103 97 98 148 151 153 145 142 135 123 107 97 87 90 96 82 73 71 80 90 94 90 77 70 77 70 97 99 84 119 158 165 176 176 163 145 115 100 78 67 57 65 75 70 56 52 72 45 48 36 40 37 41 47 61 62 53 60 62 68 79 84 88 88 83 95 92 82 95 103 103 109 112 108 111 90 85 55 53 54 65 77 88 92 54 54 45 91 88 90 90 90 106 100 99 145 154 151 153 153 148 144 128 118 112 102 104 105 93 105 102 95 94 89 89 82 91 97 102 100 99 134 153 171 175 169 159 141 115 96 80 71 66 72 79 63 65 59 82 56 51 36 41 52 53 68 63 57 49 46 49 54 61 74 83 89 88 96 94 100 103 111 105 112 109 115 108 100 107 63 55 63 85 89 96 109 66 56 49 105 90 88 90 91 105 97 101 147 147 152 155 157 157 151 141 130 121 121 114 110 103 100 101 104 97 90 85 85 91 96 105 110 123 141 158 173 174 163 148 137 110 102 89 77 79 76 82 71 73 61 67 70 50 54 49 56 64 98 84 66 50 48 39 47 58 67 77 84 89 98 99 106 109 110 110 107 110 112 107 109 116 78 70 88 97 93 105 111 83 59 53 117 85 88 90 84 103 99 99 145 152 152 156 162 157 159 149 144 133 123 116 113 110 107 104 106 100 99 98 100 102 107 117 132 139 147 162 179 178 159 139 122 107 103 105 90 80 83 89 93 87 85 83 87 87 72 69 64 86 97 86 74 65 64 56 53 67 79 80 83 94 102 107 111 110 113 110 110 109 115 106 115 112 91 90 95 98 110 111 118 96 61 75 106 92 82 92 88 101 96 103 150 147 158 159 159 161 159 155 157 152 146 134 131 132 124 123 126 122 114 114 118 120 129 141 147 141 154 169 189 179 160 142 115 103 109 110 113 98 82 80 88 85 86 85 88 95 88 87 90 91 95 88 88 81 84 80 80 86 90 98 95 99 108 111 119 111 115 113 114 112 106 112 111 111 91 94 91 99 118 110 120 98 60 105 103 82 89 89 87 99 100 101 149 147 151 156 162 162 162 162 157 158 153 150 145 149 140 136 136 133 135 144 147 142 149 148 144 148 153 174 203 178 163 131 111 100 111 122 124 118 104 86 89 94 94 89 96 97 100 97 101 99 101 100 101 100 100 100 99 102 109 110 111 115 115 114 120 115 117 114 113 107 107 108 109 109 94 90 79 81 98 107 114 103 66 113 94 86 86 87 89 104 94 106 149 142 148 150 160 164 159 159 160 154 156 150 146 147 147 143 153 155 160 159 154 148 150 144 147 149 163 184 202 173 155 129 110 107 113 120 127 127 126 113 100 104 102 106 105 101 102 99 104 100 101 105 104 104 106 110 113 117 116 120 118 123 122 118 121 120 114 115 111 110 103 108 106 109 108 88 54 61 85 101 116 98 79 104 87 89 86 87 90 101 100 108 146 144 141 147 157 160 159 158 157 153 151 150 154 157 158 158 158 159 160 159 153 157 148 149 144 152 171 190 184 165 150 128 110 109 116 117 123 125 129 130 125 116 120 116 115 117 117 115 115 113 110 112 114 114 117 121 124 121 127 125 125 123 125 118 120 117 114 117 108 107 107 105 107 113 128 96 51 60 69 93 117 93 99 96 83 89 88 88 85 102 95 100 147 139 145 144 148 152 155 153 154 156 154 161 160 163 162 159 157 150 160 160 158 154 154 149 149 157 179 187 180 163 145 128 115 111 112 116 119 124 130 131 135 133 132 130 132 121 124 124 126 124 128 124 129 128 124 129 127 131 127 128 128 123 123 121 118 115 116 116 110 106 109 102 105 118 132 119 60 61 59 87 119 87 100 95 84 90 88 87 91 98 101 95 141 143 142 143 145 150 152 150 151 156 161 163 164 159 161 156 153 155 161 156 155 153 154 148 152 163 182 189 172 164 143 128 121 110 115 113 114 118 127 133 137 141 141 137 140 139 135 133 128 124 128 129 131 130 136 132 130 131 128 127 130 120 121 118 117 116 117 114 107 106 105 99 108 120 129 124 75 68 58 94 117 86 114 86 86 90 86 87 87 102 99 91 135 138 140 140 145 150 151 151 146 157 158 163 162 163 158 159 158 158 156 153 147 145 151 152 155 174 185 189 173 161 151 129 121 118 112 116 114 119 130 133 139 143 140 141 135 144 144 141 137 130 133 133 133 134 137 136 133 132 129 132 126 120 117 113 116 115 115 113 108 105 106 97 112 118 121 118 88 66 65 109 115 83 114 86 88 89 87 89 88 102 101 90 117 135 138 139 145 153 152 150 150 155 159 161 161 157 156 154 159 158 146 138 131 138 152 153 160 178 189 185 175 161 151 134 124 120 112 110 114 119 128 132 139 146 140 146 139 141 145 141 146 141 139 136 134 136 135 141 133 135 130 129 123 120 116 110 113 112 111 110 107 108 102 101 116 112 114 99 78 63 80 123 104 92 115 81 90 88 89 87 87 102 101 97 98 131 135 139 140 147 151 144 153 156 161 158 160 159 154 145 151 151 139 118 132 146 152 156 163 182 186 179 168 163 147 142 127 116 104 103 105 110 121 130 139 142 144 148 140 139 144 142 142 146 148 137 135 136 131 134 132 130 125 120 120 117 112 110 111 113 109 109 107 105 97 106 115 108 93 99 88 85 106 116 82 109 101 84 87 89 87 88 90 101 99 99 88 129 133 139 142 141 143 145 152 155 160 157 156 156 149 144 142 139 119 122 143 151 154 161 164 173 185 175 167 160 148 141 128 111 99 106 106 98 106 120 134 137 143 144 141 144 143 143 141 144 146 137 134 137 130 130 126 123 119 116 116 113 113 109 113 114 105 105 106 99 100 109 118 91 90 112 128 116 104 89 95 114 90 83 85 91 87 87 88 101 100 102 89 117 136 133 141 140 142 147 150 156 157 158 157 148 143 131 131 119 110 140 150 153 159 169 172 175 177 170 161 157 150 139 127 111 103 124 117 98 96 114 128 137 139 143 144 143 135 141 142 141 141 142 139 139 132 129 124 123 115 110 113 113 111 104 109 109 100 104 100 96 102 110 112 103 106 118 126 108 99 94 111 102 81 87 86 90 85 85 85 100 100 101 91 111 135 135 135 137 144 141 149 157 155 152 152 142 136 127 119 113 123 141 149 155 154 165 171 173 171 165 157 156 145 137 125 111 116 126 120 101 90 106 121 131 132 141 141 138 135 141 137 140 137 140 139 130 134 127 122 123 119 115 113 112 105 104 103 107 102 103 100 97 108 107 109 117 112 110 124 111 102 108 105 88 85 89 85 85 88 86 85 100 99 102 95 100 140 133 135 139 141 143 148 155 152 148 143 136 128 116 113 124 134 137 143 149 153 151 161 172 166 159 156 154 142 133 118 106 117 123 116 103 83 95 110 114 126 133 138 134 132 139 133 140 141 137 137 135 133 125 124 120 115 114 114 110 104 100 104 104 102 101 99 97 111 103 98 112 110 104 125 116 116 104 87 84 89 85 87 86 85 87 89 102 98 100 98 89 137 132 132 133 142 149 149 152 149 147 135 131 119 113 123 143 135 132 131 140 144 149 156 160 158 150 142 137 132 116 107 102 110 118 111 101 80 92 102 104 118 126 133 134 139 142 135 141 139 140 138 141 134 132 123 118 116 108 109 106 99 99 105 100 102 102 95 100 111 111 112 119 116 119 119 122 109 90 84 84 86 85 86 88 83 89 87 102 100 98 102 85 130 133 133 134 142 147 145 152 147 141 128 127 117 123 143 158 145 114 108 122 134 134 141 143 138 139 125 117 108 103 103 100 100 105 98 96 79 87 107 106 108 117 122 132 137 144 136 139 133 140 136 128 126 125 119 112 111 108 102 101 98 101 101 101 101 103 96 104 107 111 114 118 120 124 124 111 92 84 84 88 83 86 85 86 81 88 81 102 99 97 102 85 120 136 129 130 134 144 152 149 145 140 135 132 135 148 153 158 159 137 97 83 119 119 121 122 119 112 107 99 90 93 92 92 95 96 93 90 89 95 112 116 110 111 118 125 132 134 132 133 131 131 129 125 118 117 119 110 106 107 101 95 97 101 97 99 102 99 101 108 93 105 109 109 113 108 110 91 79 84 86 81 86 83 84 83 86 84 84 97 100 100 101 87 114 135 131 126 136 142 151 153 144 140 139 145 148 159 155 156 157 160 117 66 89 109 114 107 106 101 90 82 67 63 65 75 84 83 83 92 95 106 120 126 120 111 115 121 123 127 132 130 137 127 125 125 117 115 114 107 107 104 98 97 97 97 99 102 101 102 101 105 90 96 95 98 97 91 87 81 84 85 83 83 84 86 83 86 85 86 86 102 99 101 100 89 103 143 130 125 137 136 147 146 146 145 149 151 151 150 155 152 153 156 120 90 82 92 95 100 94 86 77 70 64 59 57 54 62 81 90 96 101 106 124 128 135 126 116 117 117 119 129 130 129 129 123 121 120 112 110 107 101 99 99 94 99 95 100 103 101 100 105 89 79 82 85 86 85 82 84 81 81 84 81 82 82 86 79 87 82 85 83 101 98 97 99 95 89 143 132 127 135 141 144 146 151 150 148 155 148 151 153 145 148 149 131 104 93 94 86 84 79 74 68 72 75 71 65 71 80 91 99 102 109 106 121 125 138 132 126 121 118 113 128 131 132 122 119 116 114 109 106 105 97 99 98 98 95 96 100 104 102 101 101 75 81 83 81 81 80 81 83 79 82 80 84 82 82 82 82 85 84 84 83 100 96 97 98 98 86 136 135 130 135 145 145 147 153 148 144 154 148 151 148 143 143 152 143 119 103 102 97 93 87 81 82 81 84 85 89 91 94 100 100 103 107 110 120 123 134 134 134 126 124 122 128 123 125 118 118 115 108 110 105 97 98 101 99 99 95 98 102 104 99 106 90 75 82 80 80 81 81 80 80 82 81 79 82 80 81 84 81 83 82 82 82 100 97 99 100 99 81 132 134 129 135 149 146 147 151 149 140 150 150 148 150 143 147 152 148 133 115 116 104 97 102 97 93 90 93 103 105 103 104 104 105 104 107 111 118 121 128 132 133 130 124 126 125 120 119 117 120 112 110 107 100 96 98 103 98 99 102 95 102 101 103 100 77 78 82 82 81 80 79 81 79 82 77 84 79 82 80 80 82 85 81 83 84 100 97 99 100 98 85 123 134 131 141 146 148 150 154 151 142 148 148 146 145 144 147 157 144 144 131 121 101 94 105 102 101 105 105 109 110 108 109 106 111 108 110 114 117 123 128 129 131 131 124 124 128 125 122 114 114 113 108 105 100 95 100 102 101 97 101 94 99 103 108 85 78 80 81 83 79 79 78 79 82 80 78 78 82 78 79 84 81 80 81 83 83 97 99 99 95 101 87 107 138 131 141 144 147 147 151 151 136 138 138 135 143 143 148 152 147 147 154 134 118 110 111 107 109 111 111 108 113 111 115 114 117 118 114 118 121 122 127 128 131 130 127 121 126 127 121 120 113 112 109 105 103 102 101 103 101 100 96 95 100 107 103 74 77 81 79 79 79 76 79 79 78 77 79 81 79 79 80 77 83 80 82 80 84 99 101 94 100 100 95 89 138 133 140 142 150 146 150 145 133 121 122 127 131 138 137 132 136 139 155 150 140 135 123 116 116 114 113 114 113 112 114 114 112 116 114 118 120 121 119 120 125 128 122 117 128 125 123 120 117 111 109 106 108 102 106 100 102 99 94 97 97 112 89 75 78 83 76 79 77 79 79 79 76 78 75 81 79 78 79 78 78 79 80 76 81 97 97 98 99 98 99 79 134 133 135 137 149 150 146 134 130 109 89 106 113 108 104 95 96 98 104 120 128 134 134 126 119 110 108 106 103 107 108 114 109 116 116 114 115 111 114 113 116 120 123 120 125 129 122 117 114 113 109 110 108 105 104 103 104 96 96 95 102 105 75 79 78 79 78 81 76 80 77 76 77 79 76 80 77 76 79 76 80 84 76 79 81 99 97 96 96 96 99 82 115 144 131 129 148 143 142 134 132 130 96 58 75 81 71 63 56 70 74 78 84 93 105 100 92 84 83 84 85 89 92 95 97 101 103 106 108 101 100 100 102 117 118 122 123 125 122 120 118 113 110 107 110 105 104 103 101 100 93 98 103 94 70 78 75 76 75 78 78 75 78 73 76 77 75 76 78 74 76 79 76 78 79 76 77 98 96 97 99 97 98 86 101 137 140 132 141 144 131 130 137 135 144 120 79 58 43 20 28 25 52 41 82 79 77 69 70 71 76 76 73 72 73 76 74 74 79 82 85 87 78 90 105 112 120 122 121 122 118 119 117 114 112 106 108 103 105 105 96 99 94 95 105 76 74 82 76 78 76 76 75 76 75 74 74 78 72 77 76 76 76 73 77 75 80 80 74 99 99 96 100 98 101 100 80 138 139 135 137 143 133 133 145 144 157 151 124 99 83 65 59 39 60 34 67 77 78 63 67 79 85 82 50 55 56 45 42 48 55 52 50 42 42 73 106 109 116 115 119 119 118 115 115 111 114 105 107 104 105 102 103 93 95 91 102 73 76 75 78 76 73 79 77 75 74 77 75 74 76 76 75 75 73 75 75 75 74 79 77 97 98 97 99 95 97 97 90 110 141 139 139 134 133 140 138 146 159 165 134 126 117 121 123 114 90 69 64 71 58 60 60 63 66 57 48 55 40 50 39 37 37 44 48 64 74 90 114 117 114 119 120 119 113 118 114 110 110 110 107 106 106 103 102 92 88 98 100 70 74 75 76 73 77 74 76 76 72 76 73 75 74 75 73 72 77 72 77 72 77 74 74 100 95 97 96 98 94 98 92 90 139 136 140 136 140 139 140 146 156 160 139 127 117 126 136 144 141 136 118 113 110 92 89 84 82 73 74 76 78 78 81 81 77 82 88 98 108 110 115 117 109 115 118 118 116 113 115 112 107 105 104 105 104 104 99 94 90 103 89 73 74 76 77 72 75 75 74 73 74 71 73 73 74 71 76 71 73 74 74 74 74 74 72 99 97 95 97 95 96 95 98 80 123 139 133 137 142 138 139 145 151 155 153 129 110 122 123 132 146 154 155 151 148 137 137 138 127 122 117 113 113 108 106 104 96 101 107 110 121 121 119 114 123 113 113 115 109 113 110 111 106 107 104 106 104 101 99 89 96 107 85 73 77 75 75 70 78 73 74 74 74 72 71 74 73 74 71 73 74 70 74 75 71 75 72 94 97 96 96 96 96 98 98 91 98 132 139 136 145 144 143 131 148 146 156 141 122 116 113 116 121 126 135 135 141 143 137 145 133 134 123 117 114 107 102 103 102 105 112 112 121 122 117 113 114 116 105 112 109 111 111 107 107 107 103 108 101 99 91 91 102 108 74 74 76 77 73 73 75 73 71 73 72 74 71 72 72 71 74 71 75 73 72 71 77 71 76 94 97 95 98 95 97 99 93 97 84 122 133 130 143 143 151 137 143 144 147 143 129 122 115 107 107 104 103 104 114 117 108 112 113 107 105 104 98 96 96 97 100 105 114 118 115 114 117 114 114 112 107 107 108 108 108 107 106 105 102 104 101 93 94 98 99 110 72 71 75 73 74 70 77 72 74 71 70 70 74 69 71 72 72 69 72 71 72 74 71 72 72 94 98 96 97 98 95 98 94 98 93 93 129 130 135 143 146 141 145 143 150 143 131 123 118 111 102 98 90 88 96 96 88 88 93 91 89 94 93 92 96 99 103 111 116 116 109 111 116 117 112 112 110 109 101 106 106 102 106 104 102 97 97 90 93 98 101 106 69 73 75 74 71 71 75 70 72 73 69 74 66 75 70 71 71 71 69 70 73 70 70 72 70 97 96 95 96 94 94 97 96 97 98 87 128 124 133 141 140 144 141 148 146 147 135 130 118 111 98 99 94 86 82 84 80 86 84 87 92 90 96 98 101 103 104 112 114 117 110 106 115 116 115 112 109 109 102 109 105 105 104 102 101 95 92 92 94 97 98 106 67 73 75 73 71 71 74 71 74 68 73 71 70 71 70 70 69 69 70 69 69 70 68 72 71 96 92 98 96 95 97 96 97 98 96 86 146 126 130 136 137 144 138 139 142 147 139 130 128 120 113 103 100 91 89 86 82 86 88 90 95 95 95 99 103 101 108 113 114 118 109 106 114 109 110 109 103 105 104 106 103 106 97 99 95 92 95 93 89 96 100 103 67 76 70 73 73 70 71 72 69 72 70 71 69 71 66 73 68 69 70 68 70 71 66 71 69 98 97 93 101 94 96 98 94 93 92 97 149 144 119 134 138 148 141 142 142 148 145 146 134 135 131 124 118 109 98 96 92 91 94 100 102 100 99 105 109 111 116 118 118 114 112 116 117 114 109 109 102 105 104 104 100 103 96 95 92 92 95 94 90 94 106 100 68 72 70 73 70 72 71 70 70 68 70 71 66 70 68 70 71 67 71 68 67 69 69 69 69 94 97 97 94 95 95 96 95 96 90 111 151 141 129 129 133 143 145 143 145 140 154 151 149 149 146 142 143 132 121 114 113 111 112 112 109 113 110 110 117 118 124 125 120 120 115 113 117 113 111 106 104 107 102 101 99 99 95 94 88 90 94 93 93 102 109 100 68 72 71 71 70 71 69 67 70 66 68 69 68 70 67 70 68 67 68 67 71 69 65 71 67 92 97 94 96 93 93 92 94 106 101 124 153 147 136 124 131 134 143 138 147 145 151 149 153 150 155 152 153 152 151 143 135 137 131 129 125 126 128 121 126 126 126 131 120 123 124 118 113 113 111 103 102 103 101 98 97 94 92 93 86 89 89 90 97 104 110 98 65 68 73 71 72 72 65 72 67 67 69 68 66 69 67 68 68 66 68 68 66 69 67 69 69 98 95 95 91 92 108 137 185 182 165 141 149 149 140 126 126 129 135 131 147 153 148 151 146 155 156 158 155 160 148 151 142 147 146 151 148 142 142 137 140 140 137 135 127 119 124 120 116 108 107 104 100 98 99 96 94 92 92 95 91 90 95 97 98 106 111 98 65 72 71 71 70 67 72 69 68 67 69 69 69 69 66 67 69 70 66 67 65 71 66 67 69 97 89 91 105 157 197 203 162 149 144 141 149 145 144 132 124 125 128 137 140 143 147 146 146 147 153 152 153 153 152 149 148 149 147 148 150 145 145 150 146 144 145 137 132 125 118 114 109 102 99 99 100 95 95 95 92 94 95 94 97 93 98 100 101 105 112 97 63 72 70 69 70 70 69 68 69 68 68 68 67 69 64 67 68 67 66 67 67 63 68 68 70 91 98 164 197 201 212 177 153 152 146 142 150 149 143 135 131 124 124 134 132 129 138 147 142 147 149 151 147 148 147 147 149 152 150 147 146 138 144 152 143 143 140 135 127 121 113 108 107 103 99 97 98 92 91 92 93 96 95 95 90 96 100 99 104 104 107 107 76 69 72 69 69 68 70 68 71 68 69 67 67 67 67 67 68 70 64 69 63 68 66 66 67 119 188 206 205 205 211 159 156 153 146 145 150 149 146 140 131 125 123 127 126 115 132 146 145 142 143 144 142 141 146 142 140 145 146 145 143 137 142 144 139 135 128 131 115 116 110 104 100 101 97 95 92 92 91 95 94 95 96 95 87 97 102 102 105 104 105 106 103 88 76 77 71 67 69 68 66 70 68 69 65 67 68 65 67 67 64 69 63 66 65 64 63 196 207 202 204 207 204 159 156 154 146 148 148 149 149 145 133 127 123 120 120 123 128 137 142 138 140 138 137 134 136 136 134 136 134 133 135 134 138 140 133 128 121 115 110 109 102 103 98 96 93 90 90 95 96 94 97 93 92 94 96 101 103 105 105 105 106 108 105 107 104 112 105 106 75 66 68 66 69 64 68 68 69 62 66 66 65 67 63 66 63 65 64 203 205 203 204 207 204 158 155 158 144 148 150 148 149 146 138 132 127 127 113 116 125 128 129 127 128 128 132 126 129 130 130 130 126 128 128 126 131 128 123 118 110 106 103 104 98 97 93 92 88 96 93 97 97 98 94 94 90 98 98 102 105 101 108 104 108 107 107 105 108 108 102 88 146 117 81 63 69 64 69 65 66 67 64 67 61 67 64 63 64 65 65 203 206 204 204 207 205 159 159 156 145 152 149 150 149 147 145 137 130 132 120 112 112 119 120 123 117 117 122 119 121 121 120 127 126 125 119 121 119 117 108 105 103 97 94 97 93 85 88 92 93 101 95 97 101 97 93 94 96 100 103 102 104 106 109 107 106 109 108 109 111 110 114 91 114 165 156 106 73 64 69 66 65 66 65 65 65 63 64 63 64 64 63 204 207 204 204 206 212 161 161 156 150 151 151 152 148 146 149 139 134 133 125 118 111 109 106 110 108 109 112 110 109 109 111 120 117 116 112 114 111 101 96 99 95 95 94 86 88 88 95 99 100 99 99 98 104 95 95 95 98 100 104 102 104 108 110 110 107 106 112 110 109 111 114 113 88 167 165 165 153 95 57 66 65 64 65 63 65 62 66 60 64 65 61 202 207 203 206 202 215 172 161 159 152 153 154 151 153 148 148 143 136 136 125 127 123 116 107 106 102 102 97 103 101 99 100 106 102 105 96 104 102 99 95 94 96 91 88 88 91 95 97 99 100 97 100 102 105 98 100 97 104 99 106 101 107 106 109 109 107 107 110 111 113 108 116 113 103 169 165 168 164 174 94 59 66 62 64 63 63 65 65 59 64 64 62 204 207 204 205 200 212 191 158 155 154 154 154 153 153 153 145 149 139 143 129 126 125 123 116 112 108 103 101 104 102 100 98 102 99 95 95 98 94 95 96 95 91 88 90 93 97 97 101 98 100 99 103 102 104 99 102 99 102 105 104 105 108 108 108 110 107 105 110 111 114 111 115 103 132 172 168 168 165 170 163 127 81 63 62 65 63 62 60 59 64 61 62 205 205 205 205 203 201 212 162 154 154 155 151 154 152 155 150 150 143 141 135 129 127 120 117 116 117 113 109 108 107 106 109 106 106 102 98 99 94 93 89 84 90 90 97 93 97 100 95 101 102 99 102 105 103 102 103 102 101 104 104 108 108 111 110 109 107 106 111 112 114 114 115 103 163 170 170 166 168 167 169 156 156 127 72 61 64 65 62 62 63 62 62 203 204 209 203 205 198 215 181 152 157 155 152 154 151 155 156 151 148 139 138 132 128 123 117 114 115 117 113 109 108 108 107 105 96 90 90 84 89 86 93 89 94 95 95 96 93 100 94 101 100 101 99 104 101 101 103 105 103 106 107 108 109 108 112 109 108 108 112 112 114 114 112 127 170 169 168 167 170 167 167 156 159 157 160 120 66 59 64 62 61 62 62 