P2
92
112
255
112 110 113 111 112 105 106 111 87 91 89 104 83 85 68 58 77 56 53 62 48 49 44 25 32 43 36 32 32 42 31 29 34 32 35 29 34 33 35 35 46 34 28 45 32 28 37 35 34 28 31 31 35 38 50 50 49 43 46 42 52 55 56 59 50 61 56 53 68 77 70 60 67 64 63 57 81 67 67 86 101 95 86 100 102 103 105 104 105 102 103 103 110 113 109 111 106 107 97 111 104 83 74 76 97 66 70 51 75 47 48 54 47 56 42 30 37 31 38 30 30 34 30 29 24 30 35 29 31 34 31 25 41 43 27 30 41 31 34 35 29 30 36 31 37 37 37 45 40 39 40 36 48 43 54 45 42 57 47 47 59 58 53 52 50 66 64 69 72 55 66 68 72 79 82 85 98 103 101 105 103 103 101 107 110 111 111 113 109 104 99 95 115 96 72 71 76 65 60 55 53 52 42 38 48 50 47 35 27 30 36 26 30 29 30 25 29 23 31 32 29 30 32 23 25 40 34 20 36 30 34 32 27 26 31 37 29 31 36 40 30 45 38 38 42 36 43 40 44 45 40 47 48 47 39 43 45 60 54 49 53 58 62 68 63 76 55 63 86 103 104 104 102 104 104 104 113 114 108 104 111 105 99 90 98 98 76 68 90 75 44 63 47 44 42 36 36 42 42 41 29 26 29 29 27 31 24 26 24 31 23 33 31 32 31 28 20 22 37 27 25 35 28 31 31 28 29 32 25 31 31 35 33 39 35 34 36 37 38 32 44 37 36 38 40 36 34 35 42 59 49 49 60 60 66 60 53 67 53 62 87 89 93 102 104 101 105 103 110 108 106 102 90 96 97 105 90 99 75 73 65 89 48 43 53 39 36 33 36 31 31 37 34 25 25 29 25 26 26 25 22 25 28 29 31 26 29 30 25 23 31 33 26 30 29 27 24 34 30 27 30 31 24 30 32 38 37 37 40 34 31 29 38 37 32 32 29 32 36 28 43 52 46 52 61 58 58 48 43 71 67 62 58 86 99 102 107 102 102 103 106 101 98 102 101 92 85 83 91 92 78 82 63 68 57 48 43 46 34 31 30 33 29 31 32 27 24 30 24 26 25 23 22 24 28 30 30 24 25 30 25 24 27 29 26 29 28 24 25 30 30 22 29 30 22 31 29 39 34 37 39 32 27 27 35 29 33 24 26 30 38 26 34 45 42 46 52 53 54 42 54 62 58 63 59 92 99 101 108 100 102 106 79 87 80 85 79 86 96 90 70 69 71 68 66 49 50 44 46 41 42 35 29 31 29 32 26 25 27 24 28 23 29 20 23 28 28 25 30 21 29 23 27 22 26 28 27 25 26 26 24 30 28 34 30 25 20 27 34 37 33 39 32 33 21 27 28 31 27 27 21 28 36 31 26 38 38 37 45 50 47 46 52 58 51 44 54 79 97 94 104 102 101 103 107 80 61 60 73 66 77 76 70 63 62 55 59 52 48 39 40 36 45 41 37 29 31 29 32 23 23 24 22 24 30 26 21 28 31 25 31 24 27 25 23 21 25 31 26 21 27 28 23 31 25 29 28 21 16 29 30 39 34 31 35 34 22 23 28 22 30 24 22 27 32 31 25 29 32 33 42 46 45 37 53 51 52 52 63 71 82 83 86 101 103 105 87 93 81 62 67 71 73 81 74 74 69 63 58 53 52 45 47 29 39 41 38 41 33 33 25 28 25 25 23 22 30 31 28 22 31 31 29 29 25 23 21 28 26 27 33 25 29 27 24 27 20 28 23 22 20 26 28 35 35 37 27 40 23 21 24 23 28 24 21 27 26 29 27 23 31 28 39 34 38 36 45 43 54 62 57 58 77 73 62 84 105 101 97 91 79 77 66 70 78 72 66 57 54 57 59 51 54 53 51 40 41 30 41 31 42 36 30 31 29 24 22 25 23 34 29 24 20 41 26 36 36 27 23 29 27 31 25 33 26 25 21 24 21 34 39 22 22 28 18 34 37 41 24 36 32 22 22 23 26 24 25 26 19 27 29 21 25 25 30 31 31 35 36 42 57 60 44 54 54 50 60 76 91 102 86 89 86 71 73 82 65 59 60 64 59 62 46 46 46 38 42 39 44 32 35 33 33 35 35 32 35 27 25 27 27 27 31 26 26 32 39 31 34 33 30 24 29 27 24 32 33 25 24 25 19 21 26 32 32 23 20 29 40 30 29 21 43 26 21 17 27 29 24 27 24 20 26 26 22 27 24 30 27 36 32 40 43 36 36 46 66 57 66 84 99 99 84 73 69 76 83 68 71 65 58 60 51 49 55 56 55 44 50 39 49 37 36 32 40 33 36 31 33 31 30 30 29 27 33 32 26 26 36 32 30 37 26 36 25 31 28 29 31 31 25 23 26 23 22 19 28 32 25 34 32 35 30 19 32 46 22 16 23 28 27 24 24 23 19 30 21 24 29 23 30 31 28 38 30 37 40 73 98 85 81 95 90 106 101 101 80 70 77 72 67 67 57 52 41 38 44 42 54 45 39 51 44 47 40 32 29 34 33 25 30 29 32 34 34 28 28 36 32 38 31 37 36 33 30 37 33 34 30 28 34 28 33 23 23 29 25 22 25 21 34 34 22 42 31 21 18 56 37 21 18 25 25 26 22 26 19 24 25 19 27 27 27 27 25 32 26 42 40 62 68 88 88 95 103 103 77 75 79 75 76 82 75 74 55 55 52 52 48 42 46 40 33 31 33 35 34 42 42 36 31 33 31 30 31 34 38 33 28 46 42 44 41 37 41 32 35 36 41 35 44 31 31 25 38 25 29 40 33 27 27 32 32 28 28 32 41 29 23 42 39 32 28 25 25 27 23 25 28 16 30 21 26 24 24 26 21 29 29 33 44 64 73 83 92 91 97 107 65 62 71 71 68 68 66 71 56 49 50 51 45 52 47 39 32 33 31 27 27 27 31 31 33 40 34 38 36 41 43 42 34 43 52 42 53 47 39 35 38 49 40 36 51 48 52 33 39 33 31 45 45 32 28 39 44 33 27 29 41 46 36 28 25 40 39 40 27 32 27 20 28 21 24 24 22 25 23 24 20 28 28 30 38 55 66 81 89 94 90 101 62 64 59 63 74 73 68 58 44 45 50 51 43 38 35 30 34 26 40 34 26 31 30 33 39 42 45 41 42 45 44 44 49 43 59 48 50 56 54 39 38 40 53 35 48 53 65 54 46 46 37 44 45 40 40 34 42 55 27 27 38 54 44 26 27 33 37 40 38 35 35 30 20 29 20 21 28 24 24 23 21 28 29 26 28 37 41 56 64 73 65 72 63 51 55 59 73 59 50 55 53 57 59 47 46 33 33 34 36 40 37 49 42 44 46 49 48 49 46 49 44 47 48 51 54 44 56 53 52 56 62 56 49 43 43 42 45 48 49 67 55 54 58 51 50 53 56 40 31 60 47 31 40 47 44 37 32 29 37 40 43 40 32 33 32 23 25 23 24 27 21 22 21 25 28 25 31 37 41 37 38 50 57 51 51 53 55 50 56 56 54 57 63 65 66 57 57 50 51 57 56 53 47 54 55 53 46 43 49 47 47 54 49 58 62 55 57 59 57 55 55 59 69 60 64 47 61 58 59 54 55 55 68 59 56 58 56 62 61 48 35 50 60 43 41 37 42 45 35 36 32 41 49 45 34 34 34 28 27 25 23 30 21 23 22 22 25 27 28 34 32 35 53 50 61 69 54 55 60 58 59 59 55 62 58 63 76 74 74 66 72 73 76 65 56 53 50 52 45 49 46 45 50 54 57 64 60 62 60 61 64 65 72 75 70 66 65 65 72 72 70 58 58 57 59 66 59 56 54 59 57 54 42 53 55 53 47 37 39 39 48 37 36 36 46 47 39 39 38 34 33 27 20 27 28 19 23 22 25 22 25 29 31 39 52 74 67 67 70 69 72 72 57 53 56 60 54 73 85 75 79 73 71 75 73 70 55 50 46 45 48 45 45 51 65 61 57 63 55 69 69 64 71 80 68 75 75 70 78 73 79 77 67 66 58 60 64 59 68 59 62 61 56 57 57 48 57 58 51 46 39 42 41 44 44 38 45 45 49 43 45 38 36 30 23 25 25 22 19 24 23 24 24 25 33 45 43 50 60 60 67 67 82 70 50 46 60 52 67 73 76 82 93 94 77 69 68 65 61 58 53 50 52 53 58 63 66 61 60 62 70 85 76 81 74 80 77 71 80 78 64 75 83 66 66 62 59 61 68 59 62 59 61 61 64 56 50 56 56 60 56 51 49 44 51 41 47 43 51 50 51 58 48 42 47 35 33 29 22 22 25 22 25 23 26 25 31 31 39 39 42 47 71 74 69 56 51 50 57 60 66 72 85 88 92 94 90 82 73 72 70 56 62 60 59 64 62 64 68 66 65 63 79 85 84 70 80 87 66 92 81 63 61 80 74 57 57 76 64 55 75 62 55 62 66 63 58 63 57 56 57 56 58 55 56 52 56 46 51 51 57 51 58 61 64 55 49 49 43 31 25 21 25 25 23 22 23 27 26 28 30 40 41 44 64 65 47 45 42 49 62 66 70 89 95 90 91 92 78 76 85 80 81 67 65 76 75 73 74 69 71 79 69 79 88 83 80 85 90 85 74 90 78 66 66 84 72 58 64 74 67 62 67 78 60 53 67 75 67 55 66 66 62 62 67 64 71 63 60 56 63 59 67 71 68 71 70 66 63 60 44 40 34 22 23 19 23 22 26 21 27 28 28 42 49 57 66 57 41 41 50 54 59 55 65 72 82 83 83 92 96 96 101 94 98 96 85 83 85 82 78 71 77 94 91 91 89 84 90 100 92 84 85 73 84 74 72 77 61 69 75 69 70 65 67 74 73 54 70 69 73 79 72 74 75 71 69 73 71 76 73 76 75 75 83 85 85 83 84 74 75 63 59 44 34 29 27 18 24 23 23 24 25 28 32 30 51 73 70 53 41 47 53 47 52 60 61 72 77 82 87 96 99 96 95 88 95 93 85 92 95 95 87 89 94 99 98 94 107 95 103 99 97 94 82 91 82 79 70 75 81 67 78 77 72 73 81 70 79 76 73 84 81 79 91 89 93 90 94 95 87 93 87 89 88 93 104 106 101 100 99 84 87 87 56 50 38 30 27 26 20 21 26 21 24 26 40 56 54 77 69 55 50 52 46 44 56 56 65 75 77 77 85 85 96 93 91 95 101 103 101 100 102 102 107 105 106 107 102 107 111 114 125 107 113 95 95 91 83 81 86 87 88 72 80 90 80 78 88 82 79 86 94 90 96 88 100 101 100 102 103 105 101 108 108 111 113 114 114 121 120 117 109 102 93 90 75 62 42 38 25 26 25 21 24 25 23 27 33 39 59 83 74 55 54 45 43 51 56 57 64 71 82 86 89 96 100 102 104 107 112 114 115 121 116 114 108 112 111 115 124 129 125 138 128 120 116 104 99 92 98 96 95 98 96 88 89 92 96 95 97 102 93 92 104 102 99 101 103 114 108 114 116 112 115 122 125 124 128 123 124 126 131 124 119 118 107 102 94 77 57 44 42 21 24 24 20 27 26 25 29 29 46 67 50 57 51 45 42 55 53 58 71 83 94 96 100 104 109 114 113 122 119 120 124 124 122 124 122 126 125 130 136 137 139 149 129 124 109 115 115 111 103 104 101 95 97 98 100 94 100 95 99 98 97 101 104 108 110 110 113 120 118 125 126 124 129 125 133 132 131 131 131 129 124 120 124 123 112 109 104 94 71 56 52 40 32 24 22 24 22 28 31 33 37 69 56 50 49 47 48 53 46 58 83 96 102 105 109 115 121 121 124 132 133 125 123 131 131 130 136 136 132 133 147 139 150 145 145 120 114 124 125 114 108 112 113 114 114 112 108 110 116 112 118 113 102 100 109 114 116 121 119 115 122 132 132 126 134 131 134 130 133 137 132 129 129 120 114 128 117 109 111 104 82 74 62 53 40 35 27 22 25 27 38 44 52 67 56 45 51 47 52 45 49 67 96 103 110 113 120 120 120 125 127 128 120 121 128 139 132 129 141 138 139 146 152 150 141 144 147 105 124 127 128 111 115 112 121 124 119 113 109 116 118 118 120 121 115 113 106 114 121 117 127 130 116 129 132 128 133 139 136 129 134 133 135 127 126 123 116 113 119 112 111 102 90 77 77 47 55 29 36 28 25 33 44 50 68 84 46 42 48 45 45 50 49 80 105 109 120 126 135 128 131 131 124 126 128 140 138 141 134 135 153 147 148 151 152 150 134 150 132 113 128 135 126 113 121 112 123 123 121 107 112 114 119 120 121 122 116 121 117 105 116 113 120 129 134 128 123 126 129 135 134 132 137 132 132 129 126 125 115 113 109 114 110 102 93 82 85 47 58 47 21 35 22 32 39 53 69 94 42 38 46 47 43 46 59 95 109 116 127 136 138 129 137 140 136 131 133 136 141 145 140 146 155 153 147 153 146 133 136 149 122 128 129 130 120 120 123 105 121 126 116 109 113 119 108 120 119 127 122 119 123 122 103 119 112 114 136 142 139 126 119 123 133 134 132 132 133 128 121 124 119 110 114 112 106 96 92 83 85 56 45 64 26 34 30 27 26 48 78 98 48 38 50 42 44 44 66 107 118 123 133 144 140 135 145 140 136 128 131 147 147 145 142 148 157 159 151 154 134 134 147 149 115 127 132 122 127 126 116 103 117 125 114 104 118 113 118 118 116 128 126 122 121 126 121 113 128 110 116 118 127 133 129 116 122 122 129 133 132 131 122 117 116 112 113 113 103 92 82 81 74 65 47 64 37 33 35 30 31 35 74 98 49 37 48 43 41 50 72 116 121 127 131 146 134 141 139 134 137 136 144 143 146 147 144 148 154 154 157 145 130 149 149 143 108 126 131 125 126 129 113 100 123 126 112 110 119 112 123 111 108 123 125 118 115 124 124 129 100 136 120 128 123 117 109 108 113 129 128 131 129 127 122 115 113 111 113 111 92 85 77 78 64 68 56 60 42 52 34 37 30 56 76 97 42 40 46 48 44 49 82 115 122 132 136 144 139 150 148 148 143 137 145 148 137 132 141 147 149 153 163 135 139 143 142 137 122 130 135 127 131 133 107 108 127 124 113 117 118 113 122 123 122 127 121 121 119 124 124 133 116 110 133 117 125 125 119 113 121 125 131 131 129 126 122 116 110 115 110 108 96 78 69 68 72 62 61 62 46 48 46 36 36 50 88 100 44 45 42 47 42 51 79 113 123 132 140 146 147 150 152 144 147 139 143 143 136 128 143 150 149 148 156 139 136 143 142 143 137 128 134 134 131 130 103 112 129 116 111 118 123 119 125 127 127 131 127 123 128 121 132 130 126 118 127 128 126 128 126 119 121 130 129 127 130 123 117 117 110 108 107 100 92 77 65 62 64 60 66 51 54 51 54 42 38 49 84 95 50 49 47 42 46 53 78 112 124 132 140 141 147 147 149 149 152 152 144 143 142 142 143 147 148 153 157 144 149 146 147 148 139 138 135 136 131 129 107 115 127 115 117 124 121 130 131 131 125 135 135 135 127 125 132 128 124 130 130 128 128 128 128 126 125 127 128 130 127 122 115 115 109 100 104 98 84 79 60 61 58 58 66 56 54 56 51 51 38 64 86 96 60 53 45 44 46 52 80 109 123 131 137 146 147 155 143 148 156 151 146 141 140 145 144 146 152 153 148 147 153 150 151 153 143 137 141 134 132 127 113 125 118 117 130 124 128 134 135 133 129 134 140 133 122 132 134 135 127 129 134 131 130 132 125 124 132 125 130 130 128 121 117 113 111 102 104 93 81 75 58 55 51 65 63 53 51 51 54 54 50 55 84 97 67 51 50 44 46 55 75 107 122 128 138 143 148 151 144 147 151 146 147 144 144 147 150 148 147 150 152 156 157 159 158 153 144 135 137 138 137 122 120 123 128 128 132 124 130 136 135 132 136 137 143 127 125 139 139 138 128 134 136 137 135 136 129 132 135 129 133 128 126 121 115 111 111 106 102 97 82 69 57 46 50 59 64 54 46 50 48 58 59 65 80 97 78 50 47 53 49 57 83 107 113 126 136 142 141 149 147 150 148 142 147 139 149 148 153 142 148 151 158 155 160 161 165 159 153 140 138 132 131 117 119 131 140 136 136 129 133 141 141 137 147 144 142 126 140 140 141 142 131 128 138 141 141 135 133 138 137 135 130 132 125 123 113 112 110 105 102 94 87 68 58 49 47 58 56 54 42 48 46 56 60 79 94 94 95 57 50 54 49 58 79 99 112 123 133 138 144 146 153 152 152 140 146 144 154 159 158 154 155 159 162 163 164 162 162 158 148 145 141 137 134 137 141 142 149 147 145 130 138 148 140 146 152 142 135 140 145 147 140 139 143 128 134 139 138 132 134 142 142 137 131 132 126 123 116 113 109 107 98 96 90 71 58 54 42 54 47 48 36 44 48 57 51 82 95 93 106 76 55 52 48 61 73 95 112 122 131 135 141 144 153 151 152 149 152 156 157 158 152 163 162 159 166 177 169 159 166 163 151 151 150 140 147 151 144 143 149 147 150 142 145 150 149 145 155 147 143 148 149 154 145 139 145 143 137 136 135 130 134 139 147 139 137 133 128 123 119 114 109 110 102 98 87 71 60 63 44 53 44 46 38 37 48 55 59 84 98 94 106 97 71 54 54 57 80 93 109 123 133 130 136 144 150 152 155 155 164 157 160 166 164 167 171 173 169 172 172 163 171 170 164 161 154 148 150 156 151 147 151 153 151 154 149 152 151 144 155 157 142 146 152 154 150 148 151 148 147 143 140 145 138 144 143 139 137 138 131 125 123 116 111 110 104 103 92 87 69 64 50 45 46 43 36 29 52 47 62 89 95 93 106 109 94 52 49 57 83 97 113 120 132 130 135 141 144 154 157 153 163 163 164 167 169 171 173 171 164 157 167 172 169 166 163 161 150 148 159 154 150 153 157 152 154 156 156 150 152 150 156 156 141 145 152 154 155 149 152 146 146 143 145 143 142 142 140 140 138 137 132 126 129 115 114 110 110 102 102 96 86 71 57 47 47 42 43 29 45 52 65 94 92 95 104 110 101 57 54 55 92 112 114 122 131 129 138 137 152 154 162 157 162 169 170 170 170 171 172 174 171 166 171 172 170 162 160 162 159 156 161 155 150 148 150 145 146 154 149 152 150 156 154 153 153 146 150 148 153 146 148 140 142 140 139 140 141 139 136 137 139 135 135 131 127 122 114 112 109 110 107 108 99 88 68 45 44 47 44 39 45 46 79 95 92 97 106 105 112 74 41 50 107 122 123 124 129 132 136 145 152 158 162 164 160 166 161 166 166 163 163 168 164 162 164 166 157 152 155 160 162 155 161 165 144 147 143 138 137 145 140 148 146 147 150 149 148 150 146 148 147 142 145 140 140 138 132 133 130 130 122 121 129 122 123 127 133 125 120 113 111 112 103 110 110 99 82 50 47 41 49 40 44 53 73 92 90 91 103 107 107 91 42 56 116 128 125 127 131 133 142 150 152 154 152 157 158 154 159 157 161 157 159 162 157 154 154 154 129 125 142 150 155 154 154 153 137 141 140 132 143 139 141 136 143 142 142 142 141 142 137 139 138 135 138 129 131 125 123 116 115 110 107 98 102 105 97 106 123 132 126 115 110 112 96 105 108 106 90 58 46 50 47 39 46 50 68 91 90 96 104 107 107 106 43 52 122 133 129 132 127 138 147 148 145 134 145 146 146 142 143 141 143 141 143 147 131 135 142 136 126 117 128 144 144 145 148 144 136 136 139 134 140 140 139 128 125 132 130 132 127 121 119 118 111 109 108 105 99 92 91 88 82 81 78 75 71 79 78 83 92 102 108 112 109 111 106 104 113 110 99 64 47 55 48 46 38 59 55 84 92 92 104 103 108 104 50 53 123 136 132 126 134 136 140 133 124 119 120 120 118 108 111 118 113 112 113 115 112 107 121 113 102 107 116 127 129 129 139 134 127 130 137 140 141 139 131 119 131 123 119 120 104 100 100 95 81 74 68 63 58 52 53 54 52 54 55 53 55 61 64 67 71 72 69 79 93 94 105 112 107 115 106 67 44 56 46 45 35 91 91 88 90 91 105 106 105 107 63 48 125 140 128 129 131 128 117 114 99 102 94 87 81 83 78 84 79 76 75 78 86 81 94 90 95 91 104 106 109 113 122 130 130 137 136 138 136 131 123 115 116 117 111 102 89 81 87 84 62 49 48 46 40 38 39 41 39 44 47 49 51 53 54 57 55 57 56 65 70 68 92 106 106 114 114 71 42 58 45 48 51 92 102 87 98 87 105 105 105 106 79 43 128 140 132 124 106 95 92 85 74 76 71 64 65 63 56 56 60 57 54 58 61 63 66 71 88 86 94 92 89 108 120 126 129 134 131 124 134 119 109 112 111 105 93 89 78 72 75 69 57 47 41 42 41 43 43 47 47 45 49 48 54 49 53 58 62 61 63 66 65 68 78 102 108 113 118 81 48 50 57 53 73 95 72 56 91 95 105 99 122 131 107 42 125 143 134 102 75 77 72 67 66 63 60 54 48 47 47 45 46 47 45 53 51 50 58 64 77 85 92 86 87 102 111 121 119 118 129 118 124 116 107 111 106 104 96 85 81 71 71 69 62 60 59 55 63 64 70 69 72 73 73 77 75 77 75 76 80 78 80 82 80 78 82 103 111 113 117 95 66 48 55 70 97 77 55 42 98 90 99 109 135 147 147 47 117 148 134 84 67 61 57 69 68 71 69 69 69 75 67 67 70 77 71 72 70 67 66 71 80 77 86 85 95 98 100 108 109 115 128 122 123 123 119 114 104 95 94 81 76 65 65 56 51 47 48 57 58 65 68 70 72 72 77 74 74 81 82 83 86 87 88 92 95 86 102 104 113 112 116 103 88 44 65 90 109 90 53 45 107 95 106 110 114 139 154 66 112 145 134 83 78 72 86 89 90 97 97 97 96 95 93 86 84 86 76 71 69 64 63 62 69 69 72 76 84 88 94 96 108 126 142 137 137 132 131 119 105 93 86 69 62 52 52 46 50 47 46 46 45 48 53 56 70 70 65 58 57 60 66 73 81 89 85 99 100 102 109 113 113 114 115 111 108 55 84 103 113 112 68 41 115 99 101 113 79 81 152 82 113 144 145 109 93 92 98 105 104 100 101 92 88 85 79 74 69 70 65 66 63 64 60 55 58 58 61 64 67 68 86 96 115 137 146 142 146 151 146 130 114 92 77 53 52 59 56 50 55 47 34 41 30 29 42 28 49 54 55 53 57 54 59 60 70 76 89 94 104 106 113 116 111 111 117 112 115 81 99 109 113 122 81 44 108 96 102 117 92 45 91 100 116 142 148 137 106 103 106 97 101 96 81 65 66 60 53 40 37 34 31 41 49 71 70 63 65 62 67 61 75 64 76 88 109 139 162 157 166 165 156 132 109 92 69 52 60 69 61 45 69 75 38 52 43 47 56 40 85 71 56 46 45 45 50 59 73 78 87 99 106 114 113 114 112 118 115 115 115 100 90 115 116 123 94 54 118 95 95 117 116 63 89 98 124 140 140 145 123 107 101 96 92 82 64 58 50 40 50 37 52 28 32 49 55 97 102 86 69 57 68 74 84 86 80 83 113 145 163 169 177 171 154 134 104 92 76 62 72 68 57 56 57 72 65 52 55 50 55 74 103 95 75 53 57 53 53 67 85 87 94 102 112 116 118 119 117 118 109 117 116 94 88 106 106 122 103 68 115 86 95 104 152 83 94 122 125 146 141 145 141 117 104 99 91 83 63 47 48 39 76 66 50 54 49 55 73 110 99 86 65 65 70 62 93 96 92 87 121 148 157 172 176 167 157 138 104 95 84 82 80 77 78 74 72 73 79 81 74 73 78 91 97 85 81 75 74 78 84 91 101 108 105 113 115 118 123 117 121 115 112 112 114 96 64 82 98 113 110 82 102 89 100 89 164 130 116 138 136 141 141 146 148 128 117 104 96 88 70 64 67 62 66 86 70 61 61 71 88 88 85 83 77 77 86 93 98 99 93 99 128 147 155 174 176 165 147 133 107 100 97 90 86 90 90 89 80 81 82 91 90 80 89 92 92 92 92 93 94 102 104 107 114 116 117 117 123 119 124 118 119 115 109 110 120 90 51 71 88 108 112 92 103 85 103 90 136 169 136 148 145 138 145 149 151 141 127 114 112 106 95 94 91 86 88 87 98 88 86 92 84 91 86 85 81 79 86 92 101 95 103 120 139 149 155 176 185 169 149 132 106 104 108 102 94 91 88 87 88 88 86 94 96 97 96 100 101 99 102 104 105 109 114 118 121 122 125 124 122 123 123 117 121 117 110 108 120 126 44 62 67 105 117 95 100 84 102 90 112 157 130 141 145 138 142 147 151 150 140 136 132 126 117 114 111 108 107 103 101 103 95 98 95 96 92 87 83 86 91 94 98 108 130 143 138 156 157 178 193 168 159 135 108 105 119 118 112 100 95 90 97 96 95 97 96 99 101 100 102 104 108 107 114 116 125 124 128 127 127 125 125 125 122 117 122 117 113 105 115 148 69 55 61 101 119 92 107 83 103 99 100 136 125 144 136 140 135 149 150 150 151 148 147 139 135 129 122 116 118 115 111 111 107 105 104 104 100 97 99 97 103 106 116 134 144 146 142 153 157 179 203 178 161 139 111 106 119 124 126 121 114 104 103 105 109 107 111 111 112 113 113 113 119 122 125 123 130 131 130 128 130 126 124 124 122 122 120 116 108 104 117 142 95 61 60 109 119 89 110 87 103 97 94 136 125 151 130 136 136 146 145 152 152 158 154 153 147 142 133 130 124 121 116 117 120 114 116 122 113 110 112 116 125 129 141 150 144 148 145 155 158 184 199 180 161 138 122 106 118 122 125 129 127 125 116 119 119 119 113 121 120 122 119 122 122 128 128 131 131 130 131 129 131 128 123 120 118 120 119 115 113 105 119 129 103 61 66 117 119 90 115 82 101 104 90 135 118 157 129 128 139 142 149 148 152 157 158 157 154 151 149 149 144 141 135 138 135 134 126 132 125 126 139 144 146 144 151 146 144 146 147 150 161 189 190 175 161 141 127 112 118 119 123 127 130 133 133 132 131 128 129 125 127 126 120 123 126 129 127 134 135 133 134 128 132 125 123 118 114 117 115 115 110 113 120 116 88 65 86 122 99 97 111 85 102 101 85 134 115 150 139 124 139 142 144 151 156 157 159 163 159 159 154 157 153 150 147 145 143 140 135 139 147 152 153 160 150 155 155 147 148 147 149 149 168 187 185 173 166 146 132 122 119 115 119 124 129 136 141 140 139 129 134 136 130 133 128 128 132 127 129 132 135 137 132 130 128 122 124 115 111 116 113 115 109 115 119 90 108 112 120 101 87 109 107 82 104 102 89 121 135 133 154 131 134 144 143 146 152 151 158 163 162 153 160 158 153 152 148 145 146 150 149 155 157 155 159 159 156 159 154 152 153 146 149 153 168 183 185 173 165 149 141 129 123 122 123 122 136 136 144 147 145 142 140 140 140 138 136 139 133 130 128 130 129 135 127 127 119 119 119 114 111 119 112 110 104 120 109 89 115 136 115 98 93 116 91 85 99 102 88 111 146 119 171 154 130 142 139 142 143 145 153 159 160 157 155 157 153 152 150 156 157 166 159 160 158 148 158 162 156 158 150 156 153 151 153 156 177 184 190 174 162 160 147 139 130 123 120 122 131 137 145 148 150 152 148 140 143 142 135 141 139 131 127 134 125 128 119 123 116 115 115 112 112 114 111 106 103 117 114 115 116 126 117 99 102 108 91 84 101 103 93 96 153 120 134 171 152 136 141 137 136 147 145 151 153 153 151 153 154 155 159 163 157 163 160 158 156 151 160 158 150 151 144 144 151 152 154 157 179 187 189 179 169 161 155 146 135 121 110 113 118 124 140 143 149 150 152 144 150 140 141 139 137 133 130 132 129 122 125 119 116 112 114 112 105 108 109 103 107 112 113 121 107 121 121 113 111 97 84 90 100 99 99 93 137 150 113 143 175 134 137 138 143 138 143 146 146 152 145 150 152 156 161 163 160 161 161 155 161 156 158 152 148 133 127 140 149 153 157 160 176 188 182 173 170 158 152 150 135 114 119 118 106 103 126 138 139 149 145 151 144 141 145 140 134 136 133 129 126 123 119 120 115 115 115 110 103 109 110 102 108 110 109 123 115 121 120 125 99 87 90 89 100 100 97 93 117 155 142 140 173 144 133 134 138 142 135 143 143 145 149 144 146 156 158 161 160 159 152 155 154 159 158 143 128 117 134 144 148 154 156 164 169 176 180 173 168 162 155 147 139 119 132 143 115 95 109 127 130 139 143 145 138 143 139 140 136 134 132 127 123 120 121 116 113 110 114 108 101 112 108 107 105 122 119 122 126 127 130 111 92 85 87 87 103 101 101 95 93 145 162 161 154 153 128 132 136 134 135 138 146 149 147 146 149 148 158 158 156 160 152 154 143 151 146 132 109 122 148 142 149 157 159 169 169 173 173 170 160 162 154 148 139 122 136 142 126 96 95 110 117 123 133 136 136 136 136 137 138 133 136 134 130 125 119 114 113 108 105 104 103 106 108 105 107 113 117 116 124 117 122 99 82 90 87 87 98 99 102 99 94 114 158 167 165 168 134 123 128 132 135 136 144 146 148 142 145 150 157 155 153 158 155 152 141 142 134 117 104 131 147 143 152 155 161 169 174 169 171 168 158 161 151 143 133 117 129 137 129 103 85 98 103 112 124 130 131 141 139 140 141 134 137 125 125 121 116 110 109 106 104 101 105 104 106 104 109 101 109 107 108 108 96 86 86 88 87 87 100 103 99 103 93 92 132 158 168 179 146 123 122 129 133 134 135 139 140 141 142 148 152 156 155 154 149 144 129 127 115 110 107 136 141 138 154 152 155 158 161 167 163 164 153 154 146 134 121 108 118 127 121 101 81 97 100 101 113 115 127 136 138 138 137 134 131 123 119 114 113 112 107 107 101 103 102 103 109 107 107 88 96 93 95 90 85 86 92 83 86 85 99 100 99 100 99 95 93 142 151 168 162 124 121 126 134 132 135 134 134 140 144 146 153 153 156 151 146 135 125 116 109 115 123 135 136 135 141 146 150 147 153 157 154 156 143 136 127 116 110 103 112 110 107 97 85 105 111 104 102 113 120 125 132 132 130 137 125 124 120 110 115 109 109 104 103 102 99 103 106 110 99 81 83 89 83 82 87 82 88 85 86 89 99 100 98 99 99 98 93 96 134 150 164 129 124 124 127 132 130 133 133 136 142 143 154 149 148 144 138 126 122 108 115 128 132 125 130 126 121 131 136 135 140 143 140 134 131 118 108 96 98 95 99 99 98 96 96 111 121 118 107 108 112 117 121 127 132 132 129 122 119 114 111 111 103 104 106 102 99 105 107 111 83 83 84 85 82 84 86 86 83 88 83 85 97 102 98 96 103 96 95 94 95 119 130 137 130 122 124 130 130 131 133 134 141 141 150 148 145 139 132 123 113 111 132 143 151 121 115 110 103 109 117 120 121 122 123 114 110 101 90 80 75 75 85 85 92 97 102 115 125 130 131 112 110 110 113 118 130 127 128 123 115 117 108 108 106 103 103 101 97 105 108 108 75 85 83 84 84 81 86 85 83 87 84 89 98 99 98 99 99 96 100 98 94 99 85 119 134 126 124 129 125 130 131 136 144 143 150 146 144 133 126 118 110 126 146 153 152 147 115 99 71 69 95 106 111 107 109 102 98 89 68 59 51 53 70 90 90 103 105 108 129 127 139 131 113 115 108 114 125 128 126 121 116 114 113 103 103 106 103 104 102 103 109 101 69 87 83 81 84 82 85 81 85 83 84 85 98 97 101 98 97 99 97 95 97 97 95 91 134 131 124 126 128 127 131 138 143 144 144 146 137 132 123 124 127 143 153 154 154 157 146 97 70 69 75 81 95 101 97 89 84 71 70 69 62 73 92 95 103 106 109 112 125 129 136 133 126 120 114 120 120 121 122 121 121 111 110 101 105 105 103 102 101 103 115 91 72 82 82 82 83 80 85 82 83 82 82 85 97 101 96 97 98 97 98 100 96 99 101 81 127 130 128 123 124 125 132 133 139 148 146 144 139 133 130 138 142 156 154 154 155 157 152 107 87 81 91 82 78 78 77 73 70 74 81 82 84 93 99 107 104 106 107 114 121 127 132 132 133 125 116 121 118 117 119 121 117 114 110 102 101 105 106 104 96 101 117 82 75 84 84 81 81 84 84 81 81 82 85 80 97 99 97 99 97 100 99 96 98 98 100 86 107 136 127 120 124 119 127 129 133 145 151 145 138 131 141 144 152 147 153 153 152 151 148 129 102 91 91 94 91 89 84 80 85 81 83 91 99 107 104 112 107 111 108 114 122 128 130 136 131 131 117 121 125 121 121 120 117 115 108 108 102 108 104 103 100 103 116 72 79 76 83 77 82 77 81 83 79 81 82 80 97 100 98 98 98 96 96 98 96 97 102 92 94 136 129 121 123 125 121 130 136 139 143 141 141 139 142 149 150 144 152 152 143 143 149 146 129 109 91 104 99 98 98 101 96 93 92 101 109 113 113 115 116 120 121 117 122 128 131 132 132 130 128 114 124 119 122 122 115 114 110 108 108 105 107 102 98 106 109 69 81 78 80 77 81 78 80 80 80 80 82 84 97 98 99 97 100 98 98 97 98 98 97 100 86 125 132 129 122 123 120 129 140 130 143 140 143 147 140 151 150 143 151 149 141 143 148 153 144 134 111 108 103 91 99 105 101 105 105 109 107 116 112 121 118 120 123 119 125 128 123 125 125 130 127 115 125 122 122 116 120 112 112 113 108 106 105 99 98 108 96 72 78 78 81 76 80 80 79 80 84 77 80 84 99 98 99 94 99 98 95 97 97 96 99 100 86 112 131 129 122 126 123 127 135 139 140 141 142 149 133 145 149 147 149 151 145 145 151 156 147 145 143 129 113 95 107 105 108 112 112 113 114 116 117 116 120 119 119 121 122 122 116 118 120 121 123 122 121 125 122 119 117 114 114 110 110 111 103 100 101 110 83 73 80 76 79 77 81 78 78 78 84 78 78 80 96 100 97 98 97 99 94 101 98 95 98 98 94 94 132 129 125 127 123 128 133 144 138 144 142 146 142 133 146 148 142 146 143 145 150 152 151 148 155 154 135 121 118 109 110 118 114 114 112 106 108 105 114 110 114 118 118 115 106 109 105 110 120 121 124 119 120 121 119 113 113 108 109 110 103 99 100 103 78 75 76 75 79 74 79 79 78 76 80 74 79 79 100 97 97 97 97 98 98 98 99 96 98 98 99 85 124 131 128 123 124 129 133 142 143 142 145 147 144 134 139 141 133 139 141 143 145 136 136 129 130 132 131 126 121 118 112 112 101 97 91 84 87 87 89 89 89 93 92 103 94 93 96 110 114 118 120 120 120 121 119 116 114 106 111 105 109 101 99 97 72 76 78 74 80 76 76 76 76 77 75 80 78 75 98 98 96 98 97 94 99 96 96 98 98 99 97 88 107 133 127 124 122 128 135 137 143 143 143 145 142 130 128 127 124 129 129 124 117 103 94 93 85 82 84 91 88 92 87 80 77 76 76 65 73 75 67 65 66 70 67 70 59 63 90 103 110 115 114 117 120 118 118 114 115 109 111 110 107 100 100 81 73 77 75 78 73 78 74 77 80 75 76 79 80 76 99 96 98 100 97 95 98 98 97 98 98 96 97 100 86 126 134 127 126 125 136 136 143 140 141 144 140 123 119 106 108 109 106 96 83 71 53 66 81 56 76 95 91 86 63 82 93 100 86 61 78 82 52 41 46 40 36 25 28 39 84 108 111 110 117 119 116 118 120 116 111 109 107 111 104 104 93 78 71 75 75 75 75 75 72 74 75 75 75 78 74 76 95 97 97 98 97 96 98 97 96 97 99 99 96 97 90 105 132 132 127 125 131 128 140 144 143 139 129 120 111 97 69 65 68 57 39 35 24 39 58 24 69 101 99 99 67 95 95 102 92 44 50 47 41 33 35 34 17 36 47 74 95 112 113 104 114 115 117 115 119 115 110 107 110 109 104 102 86 71 74 75 75 76 73 74 76 73 71 78 71 74 75 74 94 99 97 95 96 99 95 98 95 97 100 96 99 100 97 88 130 128 133 127 131 121 135 142 142 139 127 123 115 116 90 58 55 37 24 27 29 27 47 29 29 58 57 52 33 55 62 52 41 48 59 49 66 46 47 47 47 64 81 100 111 113 113 113 114 111 114 110 117 111 112 106 111 102 106 102 69 73 74 72 76 73 71 75 75 73 73 77 72 75 72 74 97 99 97 98 93 100 96 95 96 98 100 95 95 97 102 88 108 134 136 128 132 122 128 138 138 131 122 125 122 130 131 118 97 75 60 54 42 35 79 53 52 87 66 61 66 60 70 82 58 93 99 62 91 80 56 72 87 96 100 114 123 116 113 115 114 106 112 115 115 110 111 109 104 110 98 104 64 71 76 69 74 73 72 72 72 75 72 73 75 74 73 71 95 100 93 98 93 99 94 99 95 97 97 99 96 97 94 98 88 122 138 131 134 131 128 133 137 131 123 128 132 136 147 144 130 111 102 95 86 82 88 76 63 94 80 70 104 75 89 108 61 90 104 67 79 85 94 107 106 108 107 114 122 122 114 114 115 106 110 115 110 111 110 109 106 99 105 100 64 74 71 69 73 72 71 72 70 75 69 73 70 73 70 76 98 92 98 96 97 97 95 99 96 98 94 98 97 96 98 98 81 130 127 135 135 131 129 132 130 128 127 130 134 137 147 153 141 123 121 124 113 137 140 134 119 116 103 97 105 99 89 99 89 91 93 94 104 115 111 107 101 103 113 115 122 114 121 113 113 111 110 110 111 109 106 109 103 94 108 90 67 69 70 72 71 70 69 73 71 72 72 71 73 72 72 76 98 93 99 95 97 95 97 97 99 95 97 98 99 95 99 100 84 129 135 123 129 130 131 130 130 128 132 134 128 140 147 149 145 131 122 118 111 128 130 147 148 150 152 141 142 140 127 136 131 127 124 127 116 118 102 97 100 99 111 116 114 115 119 121 117 112 115 107 111 109 107 108 95 100 112 83 67 71 73 70 69 73 70 72 71 72 71 70 70 75 70 69 97 95 96 99 96 94 96 98 95 96 98 95 101 99 97 102 80 132 142 124 125 128 130 130 126 131 135 131 130 138 142 145 146 145 128 115 106 111 112 119 124 136 139 139 135 138 134 132 133 123 119 115 105 98 89 91 94 103 107 117 118 111 116 116 114 109 107 109 110 106 106 101 96 98 108 80 67 69 73 69 74 70 72 70 72 69 70 71 69 71 70 70 97 96 96 95 95 94 95 98 96 98 99 96 97 97 95 101 78 129 145 125 121 129 125 134 125 134 138 135 139 135 134 145 141 148 136 124 115 110 103 104 107 109 108 107 109 110 115 108 102 102 97 88 91 86 86 89 101 99 107 114 121 109 115 118 111 109 108 109 109 106 104 97 98 92 110 80 63 72 71 70 67 71 70 68 70 70 70 69 67 73 68 71 94 98 97 95 98 94 98 97 95 100 94 97 97 99 98 99 81 134 141 133 119 121 124 126 127 126 135 138 147 145 136 146 138 147 136 131 117 111 108 102 98 95 94 87 85 91 94 81 79 80 82 79 82 88 89 93 97 100 105 118 117 116 121 122 114 107 110 109 104 106 96 98 97 98 109 75 66 71 70 69 69 71 66 74 64 71 68 73 68 69 67 76 95 97 93 96 97 97 94 96 96 98 96 98 98 96 98 97 84 139 140 135 125 116 118 124 128 124 128 138 142 143 139 145 143 148 144 141 127 115 109 102 96 89 93 85 78 77 77 70 79 76 78 80 85 88 89 98 101 108 115 119 119 116 117 119 114 110 107 106 106 98 94 95 93 100 117 70 67 68 68 71 67 70 67 74 65 67 72 69 71 67 69 69 94 96 93 96 98 95 95 98 96 97 99 95 97 98 96 96 83 145 146 129 128 117 116 115 124 123 127 135 138 136 142 139 146 139 143 146 131 124 123 110 103 99 93 93 88 81 84 76 80 81 87 91 94 96 98 105 107 112 122 121 123 124 119 115 112 110 103 105 102 100 92 93 94 103 117 70 67 65 68 69 67 68 68 67 70 66 69 69 68 68 67 64 96 96 96 93 96 96 94 97 97 96 95 97 97 96 97 93 98 144 149 133 127 128 117 114 116 119 124 131 132 133 139 140 136 134 139 147 138 134 131 127 124 115 109 102 101 93 97 96 99 97 101 102 103 109 106 105 113 116 128 128 122 126 120 116 106 108 102 102 97 99 99 93 100 105 118 71 66 67 68 66 69 64 69 66 65 69 67 69 67 69 66 68 95 95 96 93 96 96 96 94 96 97 96 95 96 94 98 93 110 148 142 144 132 133 127 114 112 117 121 127 134 137 138 145 135 141 141 143 147 144 144 139 140 138 131 125 117 115 109 107 114 112 111 111 111 114 118 117 120 127 133 134 125 120 116 112 101 106 102 100 98 103 95 101 102 107 115 72 62 72 66 67 66 67 69 66 67 68 68 70 63 69 66 71 95 95 95 93 97 95 93 99 94 96 94 96 96 116 155 165 143 144 145 139 137 136 127 122 111 111 115 124 131 131 134 143 143 137 142 135 146 152 149 151 152 149 150 145 146 139 134 128 123 126 125 130 130 127 130 130 133 138 139 137 128 123 114 108 104 101 100 98 98 99 95 99 104 111 113 71 63 71 67 66 65 67 70 67 66 68 67 66 69 68 63 67 92 97 92 94 96 93 95 94 93 92 92 137 175 198 167 143 136 146 148 144 135 134 129 122 123 104 109 117 124 128 128 137 138 138 141 151 146 150 145 145 156 153 153 154 154 152 146 142 137 142 135 140 141 134 135 143 133 144 136 136 123 117 111 104 102 101 97 95 99 97 93 104 104 112 113 66 64 67 68 64 69 67 67 67 65 65 63 64 67 64 65 66 95 94 95 95 96 95 94 90 94 134 177 203 208 167 147 142 140 146 152 141 140 130 130 123 126 116 111 103 116 127 125 127 132 130 136 145 147 145 148 143 147 146 151 149 149 148 145 148 147 149 148 144 140 135 137 139 136 136 127 129 115 112 105 103 101 96 101 93 97 97 101 107 108 107 112 91 64 69 65 66 68 66 69 64 68 63 64 67 65 66 66 65 94 98 92 95 93 97 89 99 177 203 202 208 197 152 147 147 140 148 146 146 142 133 136 129 125 122 114 109 104 116 122 123 122 132 136 139 138 141 143 142 142 146 146 148 143 145 141 144 145 141 143 144 141 138 133 140 140 131 127 110 110 105 106 100 99 99 97 92 99 103 102 105 106 108 109 110 102 82 73 71 67 66 67 65 69 64 65 68 63 66 67 67 94 95 92 91 98 126 153 187 206 203 201 215 184 152 148 149 142 147 149 147 142 138 132 136 127 123 119 108 110 107 117 118 121 126 129 131 116 131 140 145 140 138 142 140 138 135 137 139 132 132 138 131 130 127 131 134 129 124 114 105 103 104 100 95 102 96 95 96 100 104 104 106 110 111 105 107 109 110 113 113 108 95 68 67 64 65 64 63 66 65 64 66 94 90 96 115 166 197 200 205 203 203 201 217 177 151 152 150 144 145 151 146 146 142 134 135 130 124 122 115 110 110 107 110 117 119 120 126 115 126 133 142 139 137 134 131 133 130 128 132 130 127 124 121 123 119 122 128 118 111 107 95 100 98 96 98 97 99 99 97 102 104 105 107 111 112 107 110 109 113 110 113 94 114 142 105 70 61 66 66 65 65 66 61 97 116 159 191 200 201 203 206 203 204 199 218 175 155 153 151 144 146 148 150 146 147 138 136 134 128 123 121 117 113 110 111 111 112 114 115 113 121 128 130 127 125 123 122 126 121 123 121 123 119 121 124 115 114 116 112 104 100 102 93 99 98 99 102 102 101 99 101 103 105 104 107 111 110 107 109 109 113 111 114 123 74 147 167 148 93 67 64 66 60 66 67 166 193 197 200 202 201 202 206 202 205 200 215 179 156 153 151 145 148 148 148 149 145 143 140 138 133 132 127 124 113 114 112 112 112 112 110 106 108 118 117 118 118 115 109 115 110 113 111 108 115 117 117 106 111 106 103 96 92 98 100 98 98 98 106 100 100 101 101 104 105 109 108 109 112 106 111 111 112 113 115 124 88 129 174 168 165 145 75 58 62 66 63 201 199 199 201 203 201 202 207 202 206 199 212 192 155 154 153 146 151 150 149 147 147 148 145 139 136 134 131 129 123 116 113 116 117 108 113 109 107 104 106 104 106 104 102 104 101 103 98 96 103 101 101 96 95 98 94 96 94 98 102 101 98 102 107 103 103 101 103 105 107 106 111 111 111 107 109 114 114 113 117 126 93 139 175 168 168 169 165 75 60 61 66 203 199 200 203 202 202 203 206 205 205 202 206 208 157 153 154 149 151 152 149 150 145 147 149 142 139 139 127 133 128 121 118 115 116 114 113 107 111 107 105 101 99 96 98 93 92 101 98 90 98 96 96 93 94 93 95 96 96 96 103 100 101 102 104 102 100 103 104 106 106 109 111 110 114 106 107 114 112 114 117 119 101 160 170 169 168 170 173 158 106 67 62 203 198 203 203 203 202 205 204 208 203 204 199 216 167 154 151 152 152 150 155 151 152 142 148 144 141 145 132 132 131 125 123 118 116 113 114 114 107 107 107 108 106 105 97 100 98 101 99 96 101 101 101 98 94 96 92 95 97 99 101 101 98 105 100 103 104 106 107 106 109 108 111 110 110 108 107 114 113 115 116 114 123 172 169 168 168 167 171 165 159 150 103 202 199 202 205 203 202 203 202 208 202 205 197 211 193 147 151 154 152 151 151 150 153 146 149 150 143 147 141 131 127 122 123 115 118 114 117 116 108 109 107 102 105 105 103 98 89 89 88 89 96 97 92 92 92 97 96 97 98 98 102 95 97 101 103 103 106 106 107 107 109 106 110 109 111 107 111 111 116 112 120 107 156 171 168 171 167 171 167 166 157 159 167 