P2
92
112
255
116 112 115 117 113 116 113 119 117 114 113 119 113 114 115 116 114 115 117 112 115 112 118 116 119 112 97 89 88 78 91 92 88 99 86 87 101 117 108 110 112 113 105 94 81 89 69 63 60 49 47 48 64 61 51 47 51 45 55 51 37 35 46 57 50 47 56 61 59 60 74 91 98 102 110 111 113 109 104 102 109 112 111 109 110 114 111 107 112 107 109 113 116 117 114 114 117 113 116 116 113 119 110 117 112 116 116 118 113 114 117 115 113 115 117 109 93 79 78 70 64 63 70 74 79 79 84 92 104 116 109 113 103 105 98 72 65 73 49 59 58 46 44 31 38 52 56 40 39 38 50 48 35 31 45 45 47 44 46 58 52 65 61 80 98 103 111 111 106 103 110 102 113 108 113 111 112 111 113 106 109 112 106 114 117 113 118 115 117 113 119 118 112 114 118 113 116 112 117 112 118 114 118 116 115 114 96 73 67 60 53 57 45 60 61 77 87 92 102 105 108 107 99 94 94 83 74 68 64 69 60 50 41 41 38 39 37 23 35 47 31 27 41 37 36 30 39 29 44 40 53 48 55 56 60 68 85 103 108 110 103 104 108 104 113 110 110 108 112 111 110 110 109 112 111 111 117 114 117 117 114 116 117 116 116 117 116 113 121 116 115 116 118 114 118 109 100 84 58 52 49 51 50 51 64 81 84 98 103 109 112 114 119 110 97 93 90 79 65 67 60 62 53 46 51 32 33 26 33 29 25 27 41 26 31 33 28 34 34 23 39 38 55 50 48 51 71 72 75 93 104 105 100 105 107 110 116 112 110 110 110 113 110 112 110 108 111 109 115 119 117 116 114 121 116 115 115 113 119 115 114 116 114 116 118 116 104 78 54 57 41 39 49 57 62 48 71 66 76 89 89 105 113 110 105 85 70 66 57 57 47 46 52 51 50 52 50 37 37 29 27 18 31 24 28 33 22 28 30 27 30 25 30 37 44 52 57 55 70 82 84 67 99 105 101 109 112 112 110 111 111 114 107 110 110 110 107 107 111 107 113 115 117 114 118 116 118 116 118 116 118 115 114 114 118 119 112 84 60 45 48 38 49 44 54 63 57 51 65 67 82 102 115 112 110 102 86 67 53 55 45 45 33 29 25 27 21 30 31 26 37 29 34 18 21 30 25 29 24 28 33 33 25 25 27 42 42 48 51 55 72 77 91 75 78 91 109 107 108 110 109 108 110 110 111 110 111 111 105 100 108 111 111 118 116 117 115 115 118 112 119 117 115 112 117 112 125 113 79 51 51 59 46 39 42 47 54 49 70 55 77 81 109 101 105 90 85 79 72 60 49 39 40 36 23 28 34 24 25 23 21 26 25 28 26 29 21 30 26 33 27 35 29 30 23 29 23 46 41 41 58 69 82 79 86 85 79 77 100 100 106 114 109 109 109 114 108 107 109 102 98 102 105 107 114 117 112 116 115 115 117 114 118 115 116 115 117 115 110 78 53 47 38 43 40 34 43 50 55 61 68 63 68 86 75 81 79 78 60 69 60 52 47 48 48 52 46 44 35 34 28 39 29 28 29 26 26 28 30 28 32 31 27 36 35 27 21 24 31 43 37 39 47 61 78 74 88 86 81 86 86 90 101 104 102 99 104 95 99 89 97 87 109 100 105 110 110 121 115 115 115 115 116 115 118 114 117 115 122 112 88 55 58 37 38 39 47 45 55 58 65 60 66 54 56 61 63 86 87 101 88 77 81 72 80 67 74 61 51 51 46 36 38 40 37 34 32 34 34 35 33 39 36 29 37 42 29 29 29 29 38 36 36 34 47 55 78 81 90 90 82 78 82 78 87 85 85 92 95 86 94 96 107 104 109 107 108 114 115 115 120 115 114 116 114 116 115 113 117 121 108 74 65 49 45 52 61 51 54 60 80 62 44 45 45 49 59 74 90 95 106 120 99 111 106 96 77 60 70 47 40 43 39 41 45 50 38 50 43 44 50 42 44 50 43 39 41 42 34 21 32 34 46 29 37 33 44 62 69 85 90 80 78 73 88 80 80 69 80 97 102 96 99 108 105 110 109 107 114 110 117 116 113 120 110 116 114 117 114 114 115 109 73 46 52 43 42 44 57 49 61 55 70 51 25 47 38 53 68 74 90 89 86 93 91 87 78 60 50 44 41 47 38 38 48 53 42 65 53 64 65 59 65 57 62 68 52 49 51 47 42 37 31 54 36 39 36 33 37 52 60 65 72 68 71 90 86 83 83 67 82 78 93 99 98 97 97 106 110 111 110 108 114 118 116 116 117 114 116 115 116 116 106 75 40 37 35 37 33 70 91 62 51 33 34 41 38 43 55 48 58 59 70 76 63 69 68 66 55 57 49 56 36 53 43 58 61 57 58 67 73 79 83 76 80 70 86 80 62 57 59 56 56 41 43 52 40 40 41 30 33 39 47 46 55 60 68 78 86 75 83 73 67 71 79 78 85 88 85 96 105 113 111 113 114 115 116 115 115 116 114 117 116 113 70 41 36 36 29 51 33 47 47 43 30 27 33 33 33 37 33 45 53 58 72 69 70 78 80 58 53 51 55 47 49 61 70 75 68 73 84 87 90 100 97 93 95 89 85 93 85 74 78 77 61 56 58 54 45 43 45 36 50 47 47 57 58 70 65 74 79 77 73 68 74 71 80 81 78 63 73 65 72 87 100 110 111 118 113 117 115 116 118 115 109 75 42 37 29 38 26 36 29 33 31 27 30 33 28 42 33 36 48 49 64 66 66 61 60 60 61 58 63 54 57 68 63 99 89 84 88 102 102 104 106 111 111 109 106 106 105 98 98 99 91 87 80 79 66 69 60 52 51 49 53 53 47 52 52 59 58 70 80 88 76 69 72 77 81 76 80 70 87 65 69 64 81 76 119 114 117 114 116 115 119 113 64 40 24 33 30 25 25 37 34 43 33 30 35 35 31 38 38 38 55 59 56 50 53 58 49 51 55 72 84 77 75 97 90 102 98 106 114 120 120 117 123 132 128 128 130 126 126 124 111 117 113 108 102 94 85 86 84 74 70 72 64 58 57 53 59 49 51 36 55 67 69 70 73 64 74 74 72 78 74 88 67 81 95 92 116 112 115 113 119 115 116 102 41 32 32 29 36 31 35 48 35 51 36 33 36 33 44 38 35 54 53 49 52 62 62 69 60 68 72 90 94 91 104 106 109 113 116 130 131 139 141 137 144 148 148 145 146 144 144 142 135 131 137 131 121 112 111 110 105 101 96 89 79 74 66 54 56 65 62 41 46 34 50 54 72 63 71 81 71 75 72 77 75 70 94 101 118 114 116 116 118 119 109 68 31 39 30 40 43 43 45 47 51 69 49 38 45 46 43 50 45 56 57 57 61 73 68 77 77 89 90 106 106 109 118 126 127 133 144 150 157 156 160 159 160 166 171 165 167 164 158 157 155 147 158 146 144 136 131 123 131 122 113 111 95 88 83 51 32 52 50 66 55 58 33 47 59 57 70 77 86 85 81 75 74 69 75 107 115 112 119 114 119 100 54 40 30 42 40 44 46 45 42 53 63 70 62 51 49 48 45 52 49 51 63 65 72 73 86 93 96 103 112 115 114 124 135 142 147 150 165 158 173 169 174 173 174 182 183 181 180 176 168 174 170 170 168 156 158 158 142 139 142 136 130 121 118 110 99 84 34 26 37 47 55 52 57 47 55 51 66 63 74 98 99 88 81 77 84 92 116 116 112 121 109 63 37 33 35 37 42 40 35 41 42 55 55 60 60 49 45 52 49 56 61 61 80 75 82 90 98 105 109 111 119 125 125 134 146 156 155 164 167 171 172 174 182 182 183 185 187 189 183 177 181 178 181 180 178 168 166 169 157 148 151 145 145 133 125 129 117 106 79 21 18 36 38 44 51 47 63 53 66 70 53 77 107 101 88 53 77 100 114 114 118 119 92 45 34 33 32 28 39 32 39 44 50 47 54 63 55 56 46 51 58 64 69 80 72 86 96 96 105 110 115 132 137 146 151 163 177 183 181 180 185 185 184 183 188 191 189 191 188 185 185 182 183 188 189 187 185 182 179 175 176 165 152 155 153 148 134 138 136 127 108 73 19 23 29 19 28 41 54 58 62 67 67 65 93 103 111 61 59 85 117 114 125 111 55 41 37 30 31 31 32 28 30 47 39 49 50 59 53 48 59 59 64 71 69 72 84 96 101 110 118 132 139 162 165 171 181 188 193 191 190 187 190 193 193 192 191 194 194 188 187 188 185 188 187 191 191 188 186 186 187 182 186 178 165 163 164 151 149 137 140 141 130 112 47 25 17 23 16 33 33 47 60 52 67 62 76 97 106 86 54 79 116 117 121 89 31 29 39 28 27 35 25 26 31 27 33 39 48 56 47 57 55 56 60 77 73 93 93 116 134 134 149 168 175 183 185 191 195 199 201 198 195 195 192 197 199 194 190 196 192 192 188 189 189 190 186 190 192 188 189 191 189 191 187 184 183 169 172 165 158 145 141 143 146 134 103 31 15 26 18 22 36 38 56 54 47 62 60 82 99 88 76 58 117 119 118 54 30 42 29 27 25 30 23 30 30 25 39 41 44 46 63 59 64 69 87 96 107 107 121 142 155 158 179 184 187 185 190 196 201 201 202 203 197 196 198 195 199 197 195 193 193 194 191 191 192 194 180 187 192 191 191 191 192 192 191 186 187 184 179 177 172 161 154 147 142 135 133 80 21 21 21 19 27 42 55 51 48 51 62 62 91 93 100 74 119 122 87 37 32 37 25 24 28 24 24 30 29 32 39 45 46 57 54 73 80 89 106 117 119 137 155 162 163 183 188 190 188 188 191 200 202 201 202 204 200 198 199 196 198 198 194 194 193 194 192 192 193 193 186 191 193 192 191 193 191 193 191 191 188 187 183 178 175 174 164 163 151 142 128 118 58 16 26 24 23 37 60 56 42 49 50 47 83 98 101 90 117 91 41 30 28 36 23 23 26 25 29 30 34 44 48 51 48 59 59 74 97 117 124 130 150 168 180 171 179 193 190 193 191 191 194 202 201 206 205 203 200 200 200 198 197 194 195 196 193 193 191 191 193 192 192 192 190 193 191 195 190 193 194 192 189 186 189 179 177 181 178 173 169 161 134 123 105 45 25 32 24 32 43 62 51 39 49 39 67 99 98 95 94 45 35 30 26 23 26 22 29 25 26 35 39 47 42 50 55 59 79 103 130 141 154 156 161 177 173 181 187 194 191 193 195 195 194 201 202 203 204 203 200 201 197 197 196 195 195 194 197 194 192 193 190 196 192 193 192 192 191 193 191 192 192 191 190 188 185 183 175 181 181 184 177 171 153 128 119 79 35 30 31 27 46 57 53 47 38 47 49 88 99 95 70 45 29 30 24 20 35 23 33 31 31 38 40 40 48 59 61 96 111 140 157 161 166 170 163 173 175 178 191 193 192 200 196 198 196 204 199 202 203 203 203 199 196 198 196 194 195 196 195 195 191 194 194 197 195 193 194 189 190 192 190 191 192 192 189 191 186 182 181 183 180 185 185 173 164 145 124 114 55 46 26 37 43 42 57 41 42 36 44 78 96 100 84 29 34 29 30 25 30 34 33 28 42 43 45 54 53 67 88 110 126 152 163 170 169 175 162 173 178 178 187 196 198 199 197 199 197 202 200 202 204 202 201 199 196 198 196 195 195 195 198 194 194 194 195 196 194 194 193 191 193 188 190 191 193 188 191 192 188 183 186 187 181 182 184 180 166 152 127 126 79 47 40 37 41 36 52 44 44 36 35 61 102 99 70 24 33 25 34 44 23 29 37 31 49 50 53 70 66 79 98 115 134 149 163 171 172 176 172 180 179 186 191 192 197 197 194 199 198 200 201 202 204 200 200 198 196 194 194 193 197 195 197 193 195 195 196 193 194 193 194 192 194 191 189 193 192 192 193 190 191 185 187 186 187 186 183 179 170 158 131 131 103 50 46 40 52 40 44 42 45 35 28 45 114 94 42 34 34 34 29 31 23 26 34 38 48 57 59 70 84 78 98 119 128 149 162 172 171 174 178 180 178 187 191 195 198 199 195 198 198 200 200 201 203 199 197 198 193 197 191 197 195 198 194 195 194 197 197 193 193 194 191 191 192 192 192 192 191 192 190 192 192 186 187 188 186 190 185 179 174 164 140 133 121 66 45 55 52 50 41 34 41 40 29 28 105 109 59 36 31 28 25 34 22 29 39 37 46 58 54 73 73 73 97 115 129 151 162 173 168 174 178 180 182 188 188 196 199 196 198 198 199 201 200 201 202 199 199 198 196 196 193 196 196 196 194 195 194 196 196 195 192 190 190 189 192 193 190 192 189 192 190 191 191 189 187 190 187 189 183 181 173 162 145 133 127 90 60 48 64 59 38 35 32 30 36 22 85 117 102 39 32 37 31 28 32 32 42 36 51 60 57 65 60 79 96 112 140 154 169 174 178 171 181 180 182 185 191 194 195 198 197 199 199 199 199 202 202 201 199 201 199 195 195 196 194 196 196 193 194 193 197 194 191 192 190 190 193 191 190 192 190 192 193 191 189 192 191 192 190 182 183 183 175 164 146 136 136 102 80 63 59 82 52 30 33 23 36 19 56 112 98 31 34 32 27 20 36 32 34 41 52 53 58 51 60 79 92 118 145 162 169 171 178 173 179 181 184 186 192 191 192 194 197 199 197 200 200 200 201 202 201 200 199 195 198 197 194 193 197 196 193 195 196 196 190 196 191 192 193 190 188 191 190 192 191 193 189 192 191 191 190 185 188 182 174 161 149 138 136 121 71 78 62 86 72 34 34 23 32 27 46 94 85 33 32 29 23 24 34 21 33 48 54 52 48 43 66 76 105 123 157 172 171 168 179 175 175 182 184 186 190 193 193 195 195 199 197 199 199 201 203 200 199 196 197 197 198 196 192 195 198 196 196 194 196 197 192 197 193 192 191 194 190 192 192 190 188 192 190 191 193 193 190 186 187 181 172 166 154 139 139 134 80 63 75 82 87 45 33 27 29 24 54 94 69 30 26 30 29 24 37 23 43 47 51 48 38 49 67 80 112 141 162 172 171 169 175 179 176 180 185 187 191 192 198 196 198 199 197 202 197 197 205 202 197 194 198 199 198 193 192 194 198 195 194 195 196 194 195 193 196 192 193 195 189 190 192 190 190 190 193 189 193 192 187 186 186 183 174 167 157 138 140 140 103 57 66 79 91 66 27 38 25 32 45 104 69 30 25 29 32 30 30 33 51 38 50 38 37 57 66 85 120 150 169 169 170 174 174 181 176 181 186 187 191 190 196 197 196 199 197 199 196 196 202 200 196 193 197 195 198 193 193 194 198 191 191 193 195 194 197 192 195 191 194 193 192 188 190 189 189 189 188 187 190 188 187 184 187 182 173 167 154 143 137 140 117 61 56 74 94 78 24 39 32 22 58 101 70 30 19 35 34 29 37 48 47 47 40 36 45 57 76 104 143 162 170 174 175 178 177 182 171 184 184 185 190 194 196 199 197 199 199 198 196 196 197 195 193 193 195 193 193 196 192 194 197 188 192 192 194 195 195 193 193 190 190 191 189 191 190 186 187 186 184 183 187 187 186 183 185 182 175 170 155 144 141 138 131 65 42 65 95 72 34 36 46 25 65 108 77 28 18 36 45 43 40 51 51 42 35 42 51 55 92 126 160 166 172 174 176 178 178 183 177 184 185 186 187 194 195 198 199 197 197 198 196 191 195 191 191 191 191 190 192 191 192 191 192 190 192 193 192 193 193 192 192 189 191 188 188 188 186 186 180 182 182 178 182 186 184 185 187 179 177 165 158 142 146 139 138 78 34 50 90 72 44 33 53 35 71 103 78 14 24 41 59 46 34 54 47 38 35 47 53 75 105 145 159 169 173 178 179 176 178 180 177 183 186 189 192 186 181 190 191 186 193 193 191 189 188 185 183 185 185 187 187 184 186 189 187 195 191 187 192 190 188 190 187 183 189 183 184 181 183 179 178 181 185 178 178 177 183 186 185 177 176 167 159 146 144 138 142 108 19 44 69 70 50 37 48 48 75 104 70 15 33 42 46 39 52 63 39 44 35 43 58 82 127 151 163 168 175 173 177 176 180 181 182 181 185 185 185 173 162 166 169 166 174 172 169 173 175 171 173 182 173 175 182 177 183 184 182 189 183 186 187 185 182 186 185 180 185 183 176 177 173 178 168 173 175 171 174 167 168 173 171 160 162 160 151 152 144 143 138 129 25 39 54 62 47 32 43 59 96 105 90 30 40 34 41 46 60 57 36 35 42 53 58 98 142 159 157 172 169 173 172 177 179 186 183 179 174 177 173 162 164 159 154 150 148 143 134 140 136 134 139 154 154 165 172 171 168 171 175 181 181 177 181 181 178 179 180 178 179 173 173 166 157 162 143 146 143 140 144 147 140 143 143 142 146 147 144 148 148 139 140 140 48 34 49 51 54 31 29 83 103 106 135 93 49 34 51 49 65 56 45 35 44 51 66 124 152 159 160 169 173 173 175 180 174 178 175 170 173 174 170 154 150 141 136 132 125 119 113 117 107 93 96 115 114 143 148 152 156 162 171 173 172 171 175 179 173 171 168 170 166 155 154 146 133 125 112 103 93 108 99 105 113 120 117 123 128 138 137 136 137 137 142 143 68 26 48 44 53 39 20 89 109 105 159 173 98 60 43 51 58 54 44 32 48 50 85 136 161 158 164 167 171 174 175 177 178 177 169 154 143 141 127 105 103 101 97 102 106 117 110 112 111 101 102 109 114 127 134 144 150 145 167 176 179 179 184 186 179 159 157 158 154 137 133 126 111 97 82 71 72 75 68 77 95 109 103 116 118 136 139 138 129 139 138 141 90 23 51 44 45 44 27 89 107 102 93 118 120 112 79 46 62 45 39 36 51 51 87 150 159 163 163 163 165 173 177 177 163 155 113 87 127 155 165 157 153 143 136 119 102 98 85 89 89 86 84 84 79 85 84 76 84 48 79 104 101 117 118 116 122 120 117 114 119 117 112 108 112 124 123 121 118 114 106 108 113 107 98 108 99 80 92 92 96 109 126 139 119 22 51 46 44 30 65 93 105 103 72 70 112 137 136 84 59 49 30 43 52 49 84 155 164 166 162 163 163 166 166 167 155 94 107 145 163 164 160 149 141 130 134 120 102 97 84 80 84 89 88 94 96 101 108 112 116 110 63 129 175 177 179 164 154 146 132 112 118 81 51 70 85 83 85 84 82 85 81 85 91 105 109 116 120 114 123 108 101 84 83 95 121 41 40 44 38 37 81 110 99 106 96 99 77 132 171 133 71 57 31 41 48 45 75 147 165 165 167 164 157 156 151 149 88 109 152 157 155 147 150 143 108 129 188 168 100 105 106 96 88 91 110 95 101 103 108 106 114 133 155 32 154 176 178 175 170 152 133 124 105 44 73 119 145 94 94 93 88 98 94 104 103 116 120 124 125 127 138 132 141 86 56 114 86 43 42 38 44 62 94 108 103 106 134 138 113 104 156 158 117 85 78 54 54 44 34 99 161 168 168 165 159 152 158 96 93 149 141 148 142 138 136 135 105 112 183 167 97 103 94 106 104 130 206 140 83 101 104 104 103 120 166 63 113 194 188 186 175 159 131 115 57 84 81 154 214 157 63 103 105 118 83 174 156 100 118 117 125 122 130 128 144 109 11 87 135 100 20 47 43 79 109 103 103 106 150 155 160 113 124 162 157 123 123 97 76 77 52 30 80 131 166 162 163 158 145 58 145 144 132 139 144 143 140 130 114 85 122 143 135 130 113 79 115 66 94 103 92 91 114 117 93 115 149 108 71 200 192 185 178 155 125 101 34 91 73 70 109 106 70 83 82 102 74 135 174 98 105 120 115 115 124 135 132 119 25 85 120 143 60 23 54 88 104 104 103 103 159 167 172 154 89 135 168 157 136 116 115 127 122 96 57 56 77 112 147 167 96 109 171 155 155 151 157 138 115 133 154 162 160 152 131 118 130 115 126 116 69 67 93 88 92 102 92 120 146 129 68 183 187 183 179 147 119 83 46 99 81 75 79 79 67 91 92 126 168 111 120 112 101 106 106 100 110 123 140 114 57 106 112 122 133 26 69 93 106 102 104 105 162 170 171 162 111 106 159 169 152 125 128 138 161 160 100 83 59 44 124 184 112 154 175 159 152 150 138 122 118 150 145 133 109 114 99 79 86 106 115 112 95 75 74 87 88 90 101 123 142 119 32 70 59 69 67 79 63 53 65 95 78 67 71 85 79 88 107 120 129 114 124 136 139 102 79 96 112 117 135 127 78 112 112 118 147 63 64 102 102 103 101 102 169 168 168 164 172 130 133 155 164 145 127 143 158 168 157 110 105 65 91 178 144 154 170 167 158 144 133 133 123 121 111 116 98 97 94 71 80 84 114 104 102 88 81 65 89 101 107 138 139 122 57 116 165 168 155 123 94 30 58 109 77 60 61 76 77 64 79 60 77 37 63 83 97 120 98 83 107 117 130 129 79 79 95 92 138 121 43 94 105 101 102 105 162 172 175 166 200 186 124 141 156 148 126 147 158 161 166 154 111 106 125 130 96 166 168 173 167 153 138 133 119 118 128 144 107 111 91 82 91 94 132 114 77 76 83 87 87 124 134 139 121 103 40 118 156 169 162 153 126 40 60 113 92 72 74 79 65 53 56 60 74 42 58 94 75 78 104 103 101 119 132 123 80 58 63 35 117 157 108 128 89 96 102 100 151 167 167 164 174 170 111 127 148 147 127 149 154 153 162 167 145 109 129 116 85 152 153 165 150 138 139 150 136 143 162 178 160 118 115 108 112 127 150 135 84 79 68 117 129 149 150 117 94 62 49 154 181 187 178 174 136 44 57 105 82 72 76 105 108 71 67 45 65 61 77 113 90 89 86 106 115 122 127 107 105 108 105 83 116 159 108 122 83 96 104 102 161 155 150 136 119 87 55 120 142 145 129 149 150 147 157 161 167 144 111 74 104 115 121 151 138 148 153 163 150 129 140 157 164 155 131 124 131 139 137 138 112 110 118 134 169 168 133 76 109 41 90 180 197 193 185 188 181 48 48 97 90 106 90 112 137 114 96 69 62 97 117 124 112 111 108 94 100 127 98 91 120 109 109 104 143 156 53 95 96 95 101 101 159 154 138 120 98 87 59 98 141 142 130 144 145 148 152 156 169 167 144 75 106 131 101 148 158 165 165 172 168 156 155 137 128 113 123 113 119 118 118 121 119 119 139 154 163 145 105 62 95 44 127 191 194 190 185 185 194 104 32 89 83 93 104 123 146 157 139 105 105 129 139 133 119 111 122 115 104 109 75 119 123 103 113 108 145 149 42 95 91 97 95 101 156 141 120 105 109 99 82 82 151 141 127 140 147 149 150 150 166 175 169 97 90 161 102 132 164 175 172 173 177 171 162 155 142 135 135 133 125 117 113 113 121 124 120 141 136 129 102 78 64 92 162 194 197 196 181 190 195 144 19 101 87 105 112 122 121 119 119 120 115 116 119 118 122 128 126 133 115 86 82 134 119 102 112 110 153 120 58 92 92 92 97 94 156 143 115 116 124 116 112 115 159 140 124 138 143 146 146 153 166 172 172 141 65 181 125 121 160 174 181 174 172 168 151 151 150 141 140 135 132 123 117 116 118 121 117 134 133 126 130 112 44 153 174 186 195 194 185 189 197 169 69 70 110 107 128 129 117 111 112 114 119 123 128 125 133 133 131 134 117 102 124 133 122 97 114 110 159 104 65 89 88 94 92 97 159 145 123 142 152 166 179 167 176 133 124 133 142 146 152 151 170 169 173 187 52 173 157 123 144 167 181 183 176 161 152 148 152 151 144 140 133 130 123 123 122 124 124 145 134 128 150 69 110 175 165 181 194 195 190 185 192 183 127 38 122 109 141 135 127 117 121 123 121 123 130 129 134 131 125 119 118 137 153 149 104 99 115 116 161 79 82 87 86 87 90 93 160 146 131 150 181 198 197 182 171 136 120 136 137 145 147 155 159 170 173 202 100 124 180 142 132 160 174 175 166 153 149 148 149 142 141 141 131 128 121 130 134 136 143 156 123 151 99 91 162 170 164 183 192 194 190 184 192 179 164 59 77 125 135 141 130 119 125 125 131 128 130 135 134 134 129 124 130 155 176 150 100 99 117 135 143 85 78 86 82 88 89 93 166 154 136 166 183 189 188 183 170 135 119 128 139 144 142 153 152 163 172 189 174 59 196 164 137 162 162 162 154 150 150 147 148 135 139 129 130 133 131 143 149 154 154 149 146 113 68 162 168 167 165 183 194 194 196 184 191 178 166 129 26 126 144 140 128 116 121 122 131 133 141 139 141 134 135 139 146 167 182 162 88 106 122 164 109 99 68 84 80 80 86 81 179 167 143 159 171 172 168 183 167 129 122 127 136 140 143 146 150 160 172 171 200 115 124 191 159 153 157 164 154 151 153 149 150 143 141 139 146 149 155 145 161 155 153 161 123 69 149 171 161 166 176 182 198 197 198 188 193 189 160 155 93 43 151 159 144 124 119 112 123 119 133 131 135 130 131 142 156 170 176 157 99 117 170 160 79 116 60 82 79 77 86 86 192 179 155 156 152 160 158 170 161 132 118 122 137 137 139 144 148 154 165 171 177 206 82 154 192 161 158 157 154 154 158 160 153 153 153 162 164 162 159 142 156 153 165 105 73 148 171 161 159 164 176 188 195 203 197 193 194 190 176 149 141 73 59 168 159 151 135 129 117 121 123 133 135 132 137 147 157 162 170 153 109 159 204 108 102 114 58 73 82 78 80 84 189 198 165 164 156 162 170 168 156 126 115 118 133 135 140 142 143 151 158 168 178 175 196 114 134 188 182 164 162 162 164 157 154 158 150 154 158 151 155 167 179 150 94 94 143 171 156 153 162 165 179 190 192 201 199 190 191 192 179 162 138 122 101 57 159 166 155 152 141 137 129 135 136 136 144 150 142 152 165 157 160 207 130 91 128 110 51 71 75 70 77 84 162 192 176 173 181 171 171 180 148 130 119 121 127 132 140 147 142 147 153 161 172 180 180 185 145 83 157 186 183 175 167 160 155 155 156 159 175 185 185 175 134 104 105 143 166 161 151 151 152 176 179 194 191 199 199 191 183 193 185 164 143 120 135 114 57 149 168 158 150 146 128 130 138 139 144 147 149 159 176 185 182 137 110 119 120 105 57 65 70 78 72 78 137 167 157 163 180 188 174 176 145 125 118 120 122 133 138 147 147 146 149 162 165 169 178 176 159 139 85 82 116 130 153 166 177 175 168 161 158 155 138 119 129 111 147 164 153 150 152 153 158 165 181 182 193 203 202 190 188 188 181 167 145 126 133 131 130 90 107 159 178 166 157 150 154 154 163 175 180 188 181 148 119 132 132 118 120 97 55 65 64 75 71 79 167 168 161 154 161 177 192 177 142 122 123 120 118 132 135 146 153 143 149 157 155 160 170 173 158 135 123 127 123 119 120 119 120 128 133 136 145 147 144 132 137 154 176 156 145 155 161 154 156 163 168 170 185 201 199 184 190 182 172 154 141 138 122 150 135 118 120 100 95 139 161 160 163 170 166 164 146 126 124 138 145 139 128 119 120 91 53 66 68 63 72 73 182 178 173 145 162 150 158 147 121 123 123 120 117 124 132 142 152 151 151 157 158 163 168 173 157 126 120 118 126 127 127 132 134 137 138 139 141 143 150 162 173 185 175 155 154 153 159 157 148 151 153 154 165 182 185 174 178 166 156 134 126 141 132 135 159 138 125 115 110 82 81 80 89 90 98 99 118 136 147 143 137 135 129 114 120 75 55 64 67 66 71 67 164 179 184 168 164 164 153 152 140 120 117 114 118 117 131 142 154 152 152 157 161 158 165 171 160 141 127 117 124 122 122 128 135 133 149 154 168 181 188 191 182 170 160 151 158 157 151 133 132 131 127 133 143 157 164 158 153 142 121 116 117 132 139 127 156 164 165 144 125 109 116 114 123 122 127 131 137 137 137 130 136 129 126 110 130 64 56 62 62 64 71 66 132 165 182 182 183 182 168 164 158 129 118 117 122 114 126 142 155 147 158 156 158 166 163 167 165 155 157 149 154 159 160 163 172 175 184 185 190 192 193 189 176 168 152 143 145 156 127 99 88 105 111 114 124 136 143 143 131 113 104 98 102 116 136 127 146 168 166 174 160 149 141 133 135 142 140 138 140 134 133 133 132 126 127 117 127 63 54 60 66 59 71 65 92 122 153 162 175 177 175 169 169 137 115 115 120 114 127 144 144 144 156 153 156 159 169 164 168 172 170 176 177 184 188 188 193 192 193 197 194 191 191 184 174 166 150 141 139 129 89 28 22 32 68 105 112 114 112 113 107 89 80 44 66 98 127 123 130 165 168 169 173 162 168 157 159 148 147 137 136 130 134 133 129 127 125 123 123 55 60 57 64 59 60 68 100 97 110 130 144 155 162 155 165 141 114 115 117 119 127 140 150 147 159 152 155 153 156 164 163 166 169 167 176 184 185 189 193 192 192 194 192 189 191 181 168 158 148 129 119 108 46 21 23 18 39 63 95 93 93 94 95 49 26 21 31 95 112 123 130 159 168 169 168 166 168 170 174 167 153 146 136 133 129 128 127 127 126 126 113 44 66 52 66 64 58 65 104 108 91 104 102 124 131 129 141 150 110 117 117 120 121 133 148 151 154 152 153 155 157 157 159 158 168 164 179 180 185 188 189 193 189 187 190 186 183 177 160 156 141 115 108 88 57 28 21 49 73 57 72 79 81 91 78 17 24 29 28 86 106 113 122 150 161 171 172 164 164 168 172 171 168 153 143 135 128 125 124 121 123 129 93 41 64 60 61 57 64 62 101 104 102 100 101 98 90 99 100 122 113 114 119 122 122 132 142 151 150 152 149 156 159 156 162 152 165 166 171 178 183 182 189 187 189 186 183 181 180 159 162 155 141 98 97 89 67 77 77 110 107 81 70 80 81 98 94 43 30 41 43 79 96 110 118 138 156 170 170 166 162 165 170 166 171 156 143 146 133 126 120 120 124 115 81 49 61 62 56 59 60 62 103 106 103 103 106 107 101 108 92 101 104 114 120 126 123 130 137 144 153 147 152 153 152 149 153 156 157 166 165 178 184 178 187 185 186 182 177 174 157 142 157 158 150 97 81 92 75 119 138 143 130 104 82 76 81 103 107 101 80 71 66 78 88 114 114 131 158 166 169 171 163 167 165 168 165 152 148 141 138 131 116 123 124 101 54 57 63 58 58 60 63 56 104 100 101 106 104 104 103 108 103 100 100 110 117 127 123 131 128 138 147 142 144 148 148 143 155 153 153 163 163 174 176 177 186 186 182 176 170 165 156 155 169 169 159 135 80 66 56 105 126 144 133 126 109 97 97 104 104 109 106 89 83 75 98 117 118 125 152 155 167 169 166 168 164 164 164 148 142 134 132 129 119 119 124 71 49 58 62 53 61 58 60 61 105 100 105 103 103 105 104 103 101 108 98 103 120 126 122 128 129 136 138 140 139 143 144 143 148 148 154 161 162 164 168 171 173 184 174 176 169 163 163 172 176 178 170 165 128 88 99 104 117 141 135 133 118 106 104 109 100 100 92 80 64 92 113 125 125 126 141 151 168 162 164 161 154 156 152 146 141 136 131 131 119 120 122 54 54 61 60 55 57 65 57 54 102 104 102 104 102 107 101 105 103 100 105 99 120 123 124 120 129 132 140 132 145 140 143 138 146 145 150 156 160 164 163 168 169 171 170 168 168 160 173 177 172 180 177 181 171 154 168 148 119 149 141 129 119 114 118 112 107 106 99 94 104 119 127 135 136 133 133 153 157 157 159 155 149 147 145 143 137 140 134 125 119 124 112 57 51 60 59 60 57 62 57 61 107 99 100 102 103 99 106 102 102 108 102 94 118 124 123 126 125 129 131 130 136 140 147 132 147 144 153 157 154 157 163 165 169 165 170 169 164 165 175 176 183 184 170 177 165 151 164 156 140 147 148 137 116 124 127 120 108 114 113 116 119 133 128 136 135 137 132 149 150 161 157 157 140 146 139 136 142 135 130 125 116 127 99 48 58 62 59 58 60 53 64 64 105 103 102 108 97 103 103 103 103 105 104 97 113 122 124 125 123 124 130 129 132 143 148 140 142 140 149 155 156 159 160 156 164 162 165 165 161 166 169 175 180 179 170 176 168 152 150 156 143 158 154 133 123 134 132 134 116 118 119 121 124 136 138 136 138 134 134 148 149 154 155 146 146 140 138 129 136 126 128 124 115 126 81 49 56 55 59 61 62 54 61 58 98 101 102 106 101 101 101 108 103 103 101 102 103 117 122 130 125 126 124 128 131 140 147 146 142 148 151 157 156 156 158 150 157 157 157 157 160 161 167 174 171 170 175 169 169 166 152 158 146 161 159 130 131 135 145 147 134 130 119 125 128 134 138 139 144 136 134 145 137 147 143 138 146 138 132 137 133 129 126 122 117 123 74 51 59 58 60 58 58 63 53 68 102 99 103 100 101 102 102 105 103 107 102 100 102 115 118 128 130 127 124 124 127 140 143 147 146 146 150 152 153 149 157 150 155 152 151 144 161 160 163 169 171 162 163 163 167 165 164 163 155 163 163 133 143 151 154 156 146 133 131 132 128 133 138 140 134 139 135 139 138 147 133 136 148 136 128 137 131 130 120 119 120 122 70 49 60 60 57 62 56 62 55 58 102 102 102 98 105 102 105 100 105 103 102 105 92 116 113 123 128 130 131 125 133 137 141 143 144 146 150 149 145 149 154 150 149 146 146 152 156 155 159 162 164 164 159 164 164 164 169 165 168 176 172 149 160 175 171 163 154 142 134 141 134 126 142 134 134 130 134 140 140 137 134 142 145 135 129 132 130 125 121 118 121 117 55 50 61 56 60 58 57 56 62 57 102 97 105 98 104 100 101 98 106 101 106 107 95 106 118 118 126 129 131 126 137 139 138 142 144 147 147 147 145 148 153 142 144 145 143 151 148 144 150 153 156 159 161 165 161 168 169 177 176 190 182 166 171 188 185 176 173 162 146 144 133 131 142 129 135 130 133 135 132 132 131 134 134 131 126 130 125 128 117 117 121 113 44 57 55 56 59 60 63 59 58 61 102 98 104 101 102 101 99 103 107 100 107 103 100 101 116 122 124 133 131 130 136 140 135 142 142 144 146 144 141 146 140 137 135 146 135 141 135 142 146 144 148 162 159 166 176 185 181 171 157 145 154 175 186 186 179 158 171 174 168 156 140 138 136 126 132 127 133 124 131 123 128 123 122 126 131 127 124 122 121 114 123 104 39 54 62 56 56 60 55 59 55 62 97 103 97 103 100 103 103 101 103 104 102 106 101 97 111 115 118 125 130 131 136 138 137 135 141 142 147 141 145 141 136 132 135 130 126 121 126 130 134 134 144 153 152 154 146 131 110 83 67 61 59 93 117 108 95 77 83 112 139 154 154 144 134 129 130 118 125 114 123 116 116 112 118 127 127 127 121 122 120 114 125 90 44 55 61 56 59 53 62 56 60 55 101 101 99 101 99 99 102 106 103 99 105 101 105 94 110 111 118 127 126 129 132 134 136 137 143 143 150 143 145 142 141 129 133 123 113 108 110 108 113 123 124 124 110 103 79 67 57 62 60 71 76 81 84 71 68 71 68 61 69 91 130 140 131 124 123 122 119 106 109 110 110 97 114 119 128 122 122 124 119 118 119 73 49 58 56 59 58 56 61 58 55 58 97 100 105 97 101 101 103 105 100 105 103 104 104 104 96 112 111 126 124 131 124 131 128 137 139 145 142 146 139 140 139 128 129 118 103 82 78 78 68 85 70 67 58 52 53 50 51 62 53 56 77 72 70 63 66 63 79 71 64 54 44 88 102 107 109 109 101 96 90 96 101 100 107 120 123 123 115 116 113 111 117 54 55 52 56 60 57 56 58 55 59 54 99 99 102 101 102 100 101 101 97 104 103 102 102 110 97 101 112 115 125 129 127 126 131 132 137 136 144 145 142 139 137 125 120 106 87 72 59 41 43 41 34 49 42 47 43 44 47 52 42 40 53 51 46 53 47 55 58 54 59 47 60 49 50 78 79 81 83 73 79 85 95 98 106 118 124 119 118 117 109 117 104 49 54 56 54 62 56 51 57 60 53 61 104 100 102 99 97 102 103 103 101 105 101 102 103 115 102 95 109 107 121 118 126 125 134 131 130 135 140 142 146 138 135 125 112 96 87 85 81 79 80 71 68 66 67 78 83 100 124 133 125 105 95 87 72 71 75 72 67 65 50 61 51 51 50 33 47 46 51 62 68 83 82 94 115 114 121 123 113 115 108 119 81 47 55 59 56 60 56 55 60 61 57 58 105 95 100 99 99 102 97 104 104 101 105 108 100 112 110 90 99 109 114 120 124 125 127 134 132 134 138 139 138 138 136 135 113 104 115 128 128 135 139 134 124 121 118 120 119 116 127 142 138 140 134 133 123 130 136 126 114 110 92 89 79 78 78 76 89 96 84 81 77 82 77 92 118 119 120 122 113 115 108 113 60 53 57 57 56 56 58 54 61 60 59 60 98 100 99 100 99 101 99 98 102 101 106 103 98 103 127 84 99 104 114 117 122 118 127 131 133 130 137 140 135 136 133 141 126 125 134 152 157 155 148 153 144 137 133 137 133 129 119 119 120 120 115 118 117 132 119 120 115 111 101 104 101 95 107 106 112 117 115 102 96 93 87 100 112 118 118 116 111 114 107 104 46 55 60 54 55 58 59 57 56 57 55 56 98 99 99 99 100 103 99 103 98 103 102 104 99 103 127 108 78 102 106 110 115 115 118 129 127 127 132 129 131 133 136 133 132 136 144 156 159 156 152 146 137 131 127 122 121 118 121 120 126 106 110 116 112 115 101 109 111 119 119 118 117 117 115 112 117 115 114 116 110 100 100 107 108 111 115 109 113 106 112 71 47 60 55 60 51 58 57 53 54 62 54 57 99 100 100 97 104 100 101 104 101 104 103 107 101 101 125 129 78 92 102 103 112 120 113 117 124 127 126 126 125 134 132 131 134 139 148 151 152 152 149 148 134 132 134 113 113 93 92 85 92 95 85 104 93 99 89 97 104 108 104 108 108 106 111 115 118 120 114 119 110 109 105 100 107 108 107 111 108 112 103 55 52 55 56 56 52 59 56 58 53 55 60 56 99 98 97 103 99 101 100 105 100 103 105 102 105 102 118 136 107 69 98 103 109 114 116 114 118 125 123 125 122 130 135 119 128 145 142 144 145 151 149 144 141 139 131 124 111 96 96 81 76 81 68 65 73 66 65 76 86 83 92 98 101 113 115 120 121 117 114 119 113 104 112 101 104 103 106 109 103 111 78 53 57 56 60 50 58 51 59 57 53 61 55 59 99 103 95 103 99 102 103 95 106 101 104 104 102 101 116 129 130 70 88 96 105 103 115 113 114 115 115 121 117 125 134 126 128 147 136 149 148 151 148 142 137 137 135 122 118 108 102 91 85 81 80 67 79 74 73 76 84 88 91 96 101 111 122 120 114 118 111 112 112 99 107 103 102 101 102 107 106 101 58 52 61 43 61 53 58 56 59 55 56 52 58 57 98 97 99 103 95 103 101 100 102 102 102 102 104 100 118 123 130 107 70 88 97 103 102 112 111 108 112 116 116 117 125 129 135 143 139 150 148 148 151 140 138 136 142 135 124 132 122 105 102 95 88 78 81 84 82 86 86 91 97 99 106 109 121 119 118 117 112 112 105 108 106 104 102 98 100 96 107 86 43 58 57 54 57 52 55 61 52 59 54 56 56 58 97 103 100 99 99 101 101 102 99 103 102 104 101 104 115 126 125 124 83 68 94 91 101 104 117 110 116 113 114 115 123 127 136 134 137 146 149 146 147 152 151 153 147 153 147 157 166 161 157 161 149 136 127 130 125 110 112 99 106 107 112 117 116 124 114 116 110 108 103 106 108 97 94 97 89 105 95 63 46 58 52 57 57 56 50 57 55 61 56 61 53 58 96 100 101 99 101 97 99 104 100 102 102 105 103 102 114 126 126 121 110 64 76 86 91 105 108 114 108 113 119 118 127 128 133 133 136 137 143 144 156 155 158 164 162 157 162 177 181 185 185 176 182 168 169 173 169 159 158 140 121 118 122 122 123 118 108 111 107 108 108 100 107 96 96 93 98 102 71 54 52 60 57 57 54 58 57 55 55 60 57 58 54 56 102 94 104 99 101 103 97 103 102 106 102 104 101 101 117 122 124 124 112 95 60 72 86 91 101 104 111 104 119 110 119 117 129 126 131 134 133 131 147 152 153 174 179 170 167 167 179 179 180 178 177 169 173 169 179 172 177 173 160 141 134 127 122 119 104 111 114 102 102 109 100 96 91 98 101 82 54 51 57 51 59 55 54 63 49 53 55 58 54 61 51 59 99 97 103 100 103 105 96 105 96 103 107 99 103 104 111 118 124 127 115 106 71 63 74 87 81 101 106 110 114 118 114 118 122 124 123 145 128 139 145 158 156 160 167 167 161 170 174 173 175 174 174 165 159 163 162 163 171 169 168 159 150 142 129 121 114 111 111 96 110 100 99 97 91 97 91 53 57 52 60 53 58 55 56 59 52 58 56 57 56 53 57 55 94 104 94 107 96 100 102 100 106 101 105 102 103 99 117 119 120 123 115 107 95 55 66 69 82 81 98 106 107 118 111 118 117 120 117 136 138 139 143 151 151 153 162 159 158 172 172 175 167 164 158 159 146 147 156 162 156 161 154 139 156 149 141 128 121 117 112 109 102 97 99 95 90 85 64 48 53 55 53 54 55 52 54 53 57 51 57 55 57 52 59 51 98 99 100 102 101 100 103 99 106 103 101 105 101 104 108 122 120 122 117 105 98 78 55 69 64 73 77 91 97 105 109 105 117 115 117 131 142 135 139 142 140 153 149 151 149 173 179 169 168 160 154 145 149 144 156 154 150 152 149 141 145 148 130 128 122 117 113 109 105 94 99 88 85 63 50 56 55 52 55 55 51 53 60 53 58 50 54 56 56 54 56 51 105 97 103 101 99 98 103 105 101 99 103 100 103 104 109 119 116 120 118 108 101 86 64 59 57 66 67 76 81 89 101 102 104 115 114 122 134 138 135 139 130 141 138 141 150 152 168 154 167 162 157 148 152 148 154 146 143 151 146 142 130 127 127 121 118 107 105 101 101 90 95 78 53 54 54 51 60 52 55 55 52 51 54 56 56 52 57 52 58 55 56 52 105 97 100 98 102 100 102 103 104 100 104 103 108 96 114 119 115 119 117 112 105 90 78 59 58 61 63 69 66 74 76 91 95 104 104 112 119 131 129 133 132 135 137 138 136 145 147 152 140 150 144 141 140 144 142 140 134 138 133 125 119 124 133 121 109 102 100 93 90 77 97 59 46 53 54 52 50 57 50 59 50 58 49 55 53 55 54 54 54 58 51 56 102 101 100 101 102 102 100 107 98 103 102 104 100 104 111 116 123 115 119 116 105 97 84 67 60 62 56 65 62 68 65 70 84 91 102 105 110 116 125 123 130 134 127 129 127 136 129 140 129 122 129 121 132 128 126 129 119 119 129 104 115 117 131 113 106 104 85 87 71 84 114 65 43 55 53 51 57 53 54 48 55 52 52 53 57 59 52 54 51 50 60 48 99 97 99 102 100 101 101 97 104 104 102 106 98 100 116 115 124 120 116 115 111 102 88 75 70 58 65 60 59 63 65 63 67 69 78 89 101 102 101 116 111 119 110 116 115 116 114 114 110 108 107 111 119 122 119 114 114 119 112 104 108 109 136 103 95 83 75 70 94 106 117 50 53 51 54 49 52 55 54 50 54 55 52 56 52 55 53 56 53 53 56 56 98 103 94 103 94 106 103 103 102 107 100 112 96 88 119 118 119 122 117 117 111 105 97 79 77 61 63 63 61 62 66 60 67 60 64 71 76 87 89 103 109 103 98 102 101 110 102 104 94 104 94 98 107 115 107 107 109 104 95 97 95 96 100 89 84 69 77 98 103 108 111 53 47 55 55 44 56 54 48 58 52 53 52 53 54 55 53 50 55 51 53 55 100 98 101 97 102 102 102 103 99 115 104 80 41 92 121 116 121 117 120 116 117 106 98 88 78 78 62 65 61 60 63 59 58 65 61 61 57 66 74 78 94 81 89 88 86 88 91 87 83 84 92 87 98 95 94 95 93 89 79 93 79 78 71 74 73 89 99 98 103 108 110 44 52 53 52 52 51 50 53 49 56 48 57 47 55 52 58 50 59 52 57 58 101 93 105 99 103 99 100 100 112 115 67 28 87 137 117 112 123 118 120 120 115 107 107 90 86 79 68 66 60 63 60 64 60 58 57 64 57 61 62 59 68 69 74 81 70 73 79 76 83 73 83 77 87 83 82 84 83 82 76 85 83 65 67 81 96 102 100 100 102 113 104 44 46 46 57 45 55 54 48 55 55 48 55 49 52 50 57 51 54 59 49 55 98 101 97 100 100 102 97 105 130 71 29 98 135 140 113 112 119 121 121 123 119 108 112 97 91 86 76 66 64 61 62 63 61 57 64 59 56 63 53 61 60 61 64 67 64 67 68 69 75 71 71 70 73 74 73 70 70 65 68 68 64 66 83 99 101 96 96 106 107 110 99 49 51 44 63 44 55 48 51 50 51 50 58 50 48 54 52 58 51 49 56 49 100 99 98 101 100 98 101 119 111 27 108 148 130 140 115 108 118 121 126 126 127 114 110 104 102 86 81 75 61 68 62 63 65 59 59 59 60 59 53 60 64 59 64 58 62 61 66 60 61 67 66 67 65 65 63 62 64 56 59 52 66 82 96 99 101 98 99 103 106 109 89 71 45 53 49 47 53 45 58 48 55 49 50 52 51 51 53 54 50 57 53 52 102 100 110 104 103 112 100 123 79 48 153 137 131 138 121 105 112 119 132 118 128 122 111 105 109 94 85 79 71 64 66 65 60 62 66 59 61 60 60 55 64 62 58 62 68 58 61 69 55 69 59 63 60 60 63 55 58 56 56 65 83 92 94 93 103 97 109 104 105 111 66 77 58 45 46 50 52 48 51 57 47 56 42 57 48 51 55 54 52 51 55 54 