P2
92
112
255
112 115 120 113 120 113 119 117 116 116 114 117 117 117 114 113 118 112 118 106 109 103 99 93 103 112 98 88 72 75 77 80 92 95 99 97 96 95 72 72 77 76 71 81 72 75 62 59 49 59 61 69 49 46 54 43 53 46 54 45 65 63 79 89 96 105 104 100 111 104 89 102 110 108 115 115 107 115 112 109 115 110 115 108 114 112 111 112 110 109 114 105 118 112 115 114 117 114 118 114 114 119 113 116 115 118 114 116 113 117 116 105 108 101 105 98 90 89 76 80 80 98 99 101 91 89 84 90 63 82 68 61 64 49 61 58 65 56 59 48 47 37 44 53 47 45 45 37 50 42 42 43 48 49 57 90 95 104 102 97 87 81 84 81 98 80 106 111 107 110 110 112 112 107 114 109 113 109 111 109 112 109 111 109 116 116 115 117 116 116 116 116 115 115 114 117 109 119 116 115 116 118 115 110 107 108 99 71 77 79 83 83 91 91 97 80 75 75 65 68 63 59 58 49 59 50 40 49 49 53 35 46 47 40 35 33 48 47 43 34 42 38 38 37 36 39 49 70 93 108 92 87 87 82 90 86 89 79 77 84 105 106 110 115 110 111 110 113 110 110 109 111 110 109 111 112 115 115 114 117 115 113 117 116 112 117 118 114 115 116 116 113 116 116 114 98 92 79 76 85 109 108 111 101 98 94 94 82 69 68 63 52 52 45 58 47 43 50 36 35 44 42 34 32 33 34 40 23 38 45 42 33 39 37 41 31 35 35 39 65 81 94 90 88 94 88 86 81 87 80 86 75 75 89 108 112 109 113 109 111 110 112 110 108 114 113 110 111 118 116 117 114 117 118 116 116 111 117 119 115 116 112 117 112 117 105 87 67 62 72 84 105 111 101 99 100 97 97 92 78 68 81 55 49 50 32 50 39 42 27 35 33 36 35 36 26 27 29 34 21 38 35 35 30 37 37 43 35 33 44 40 59 61 75 82 90 92 91 86 90 95 92 100 88 79 65 93 108 111 112 111 111 109 112 111 107 107 114 110 113 114 118 116 119 117 117 117 114 117 121 116 115 117 113 120 115 105 77 62 73 76 72 70 75 81 96 82 87 78 63 60 48 51 52 55 52 48 39 40 25 37 37 26 23 34 35 33 29 25 23 34 20 37 42 36 32 31 30 35 39 21 44 47 38 47 68 73 82 90 86 88 95 93 102 98 97 91 95 60 90 108 113 108 109 107 110 108 112 110 111 110 110 114 120 112 118 113 117 117 117 113 120 114 116 114 112 118 105 87 75 65 64 52 56 64 69 77 88 67 79 63 53 44 31 37 30 31 26 32 36 36 29 29 32 25 25 33 34 31 28 24 26 37 21 42 41 32 37 28 32 27 37 32 30 34 39 39 67 70 87 87 97 85 84 81 84 93 101 90 100 91 69 90 112 110 105 99 105 111 110 111 109 112 110 116 117 115 116 117 114 116 117 116 115 114 114 113 113 100 72 65 55 40 46 53 54 61 68 63 71 69 56 58 53 43 42 37 37 37 24 35 29 24 29 30 31 29 22 35 34 34 25 29 30 35 25 35 40 35 30 32 29 37 34 39 28 32 37 36 65 68 85 94 95 85 80 77 71 81 85 95 96 93 91 79 93 94 101 105 107 106 110 110 110 111 112 116 117 116 114 118 115 112 118 113 116 118 116 116 94 77 49 38 47 38 48 50 64 92 86 85 95 87 81 79 71 57 51 44 39 50 30 32 34 25 26 28 33 33 30 39 33 43 36 32 38 41 42 38 38 37 36 35 33 39 35 35 30 35 46 47 65 75 80 81 87 91 87 92 77 75 78 83 86 91 94 92 71 92 108 112 106 110 110 114 109 111 111 116 115 120 115 117 116 114 120 117 113 120 117 92 57 43 40 28 34 34 53 70 92 107 96 109 103 106 91 87 71 48 54 55 36 40 31 35 33 28 34 31 41 38 41 51 42 50 48 36 46 51 45 40 44 34 40 44 47 39 41 42 45 49 57 68 87 98 96 85 83 96 90 95 92 74 75 73 77 82 103 90 72 82 106 111 106 111 110 112 108 113 111 119 115 117 119 116 113 118 115 111 115 115 92 53 42 29 29 40 35 51 56 70 73 79 81 76 66 61 49 47 50 47 43 34 29 30 32 44 41 36 46 42 53 54 56 56 67 53 58 43 61 59 46 49 54 44 45 46 50 46 43 46 60 64 68 71 82 70 82 80 79 80 97 92 96 72 72 68 74 66 82 90 89 69 92 106 110 111 111 108 111 110 111 117 116 116 119 115 114 118 115 117 111 100 53 36 38 33 40 37 38 50 53 51 63 60 68 66 60 58 58 62 57 40 30 36 33 37 36 48 49 55 60 61 70 67 66 69 80 71 63 51 66 70 61 63 60 59 42 59 67 45 51 45 49 53 51 52 52 71 78 82 89 88 95 87 95 84 82 74 73 70 67 70 106 90 68 102 110 111 110 107 109 110 110 116 115 116 116 117 114 115 119 117 110 74 30 30 35 31 32 41 36 46 58 52 56 79 80 76 59 68 59 39 41 35 42 47 46 47 58 61 72 68 80 81 84 86 81 80 90 99 69 76 78 82 78 80 71 67 63 74 72 56 57 55 52 53 48 40 46 59 63 84 92 94 95 92 89 84 83 78 74 73 70 67 86 99 64 79 105 112 109 112 111 111 112 112 115 117 116 117 117 116 119 122 89 49 32 32 30 31 33 37 40 50 42 57 55 60 72 66 50 46 42 39 47 52 56 62 67 78 84 85 95 95 98 108 106 109 100 100 93 100 98 88 89 86 95 95 78 80 70 69 73 68 68 64 64 72 72 65 71 56 63 71 68 75 76 80 78 75 81 71 74 68 75 66 72 86 81 61 89 109 112 111 110 111 109 114 116 115 120 115 113 117 117 126 67 48 27 35 21 36 37 39 33 42 50 58 59 61 55 60 46 46 55 52 70 69 84 87 95 106 106 110 120 122 123 131 130 131 131 125 119 118 116 115 109 100 98 104 98 95 89 77 74 76 86 85 77 79 84 75 80 78 71 65 64 72 65 74 71 76 82 72 69 70 66 68 61 70 71 68 64 84 104 108 110 111 104 118 116 116 116 118 115 115 121 109 55 42 37 32 33 34 34 32 35 59 57 59 66 56 57 50 71 69 77 77 92 95 114 117 118 138 130 139 140 152 149 150 153 157 157 151 146 142 144 140 130 132 118 108 111 116 107 100 99 89 96 98 95 89 81 80 74 67 73 64 66 79 75 56 63 69 73 75 69 71 69 72 68 69 68 78 67 61 87 85 101 104 114 115 115 116 116 119 118 105 108 66 45 37 32 38 37 38 34 43 52 55 59 64 69 63 67 69 88 93 93 104 116 127 134 144 150 157 159 161 169 169 170 167 169 171 173 170 161 155 160 159 152 145 136 128 133 128 125 120 121 112 109 110 106 104 94 98 88 69 59 49 45 55 56 65 68 63 71 70 71 67 71 67 75 73 81 57 87 68 100 94 99 99 104 113 118 114 120 111 98 69 58 45 43 38 40 41 36 41 44 47 55 59 65 85 83 77 84 88 96 109 120 132 139 146 160 163 170 178 172 182 182 185 183 183 181 184 185 180 168 173 172 172 165 160 152 152 148 146 145 134 131 131 124 121 113 112 106 102 105 87 67 49 30 24 31 34 45 56 71 72 66 74 73 68 66 67 79 70 69 78 91 108 107 110 113 115 116 117 115 81 52 46 33 40 39 35 36 40 38 38 45 55 63 70 71 95 87 90 97 105 113 128 148 156 158 166 175 179 185 187 189 193 192 193 194 193 188 189 190 185 182 180 175 175 173 170 164 162 158 155 152 148 148 134 138 135 129 119 114 109 110 107 84 63 39 22 22 22 27 39 55 61 62 73 81 81 66 71 70 58 64 70 81 106 107 114 107 116 111 119 107 66 36 37 39 37 37 35 40 37 43 45 51 61 72 80 86 94 92 109 112 129 145 164 171 180 183 189 190 191 194 194 198 195 195 199 193 197 195 194 193 193 191 186 185 186 181 180 174 172 165 167 160 157 156 147 151 143 141 136 133 112 117 116 105 94 57 32 23 26 22 28 54 45 59 59 69 76 73 80 70 64 58 66 71 90 110 113 109 117 117 121 85 51 21 31 36 33 42 44 48 35 45 51 55 67 79 85 100 113 125 140 152 165 177 187 187 193 195 198 199 199 197 201 198 197 199 202 199 201 199 197 196 197 194 193 190 190 191 185 185 180 176 173 172 170 164 159 160 157 155 149 150 142 115 115 112 106 94 79 53 21 32 19 39 51 55 53 65 64 71 70 75 57 62 61 61 70 105 111 111 116 118 119 69 37 23 28 31 28 44 45 45 38 43 60 55 83 94 118 137 152 159 158 175 184 187 189 195 197 199 201 201 202 201 200 201 201 199 202 204 202 200 199 198 196 196 198 194 194 192 188 187 187 185 180 185 179 171 162 165 161 162 159 161 158 142 128 109 106 93 76 75 79 61 30 39 51 55 52 65 60 66 68 70 66 57 50 55 69 95 112 108 117 127 100 46 23 28 21 28 20 39 48 38 32 55 72 82 113 127 154 168 169 168 174 185 191 191 193 198 200 202 202 202 203 204 199 201 201 201 200 205 203 204 196 196 195 196 199 195 195 196 192 187 186 192 187 186 187 177 173 167 165 168 171 171 164 163 150 126 109 95 76 49 30 49 56 51 47 49 53 63 64 63 61 64 65 66 49 54 65 83 108 103 116 124 68 25 25 23 24 23 33 45 40 36 50 75 89 117 136 159 176 176 172 177 181 185 191 193 197 194 200 203 204 201 203 202 202 202 202 202 201 201 203 203 196 193 199 196 198 196 193 194 194 190 189 191 190 187 189 189 178 174 172 169 171 173 172 172 155 146 128 111 96 75 38 19 24 42 49 44 56 55 59 64 53 61 57 61 58 51 57 67 96 111 122 103 40 27 23 25 26 41 37 41 27 45 79 96 117 140 166 170 181 180 181 180 186 186 189 195 197 200 203 203 203 200 206 203 202 203 202 202 199 203 203 204 203 199 198 200 199 197 196 195 193 191 193 191 187 190 190 188 188 181 174 172 170 175 175 174 164 152 136 128 117 85 54 30 22 19 33 55 52 57 50 61 64 45 66 50 56 60 62 61 78 115 120 70 33 24 27 32 33 40 38 41 40 67 111 126 138 166 171 180 177 185 183 184 190 188 191 191 198 199 203 202 204 204 203 205 201 204 201 204 197 199 202 201 203 199 200 197 199 196 195 194 193 193 192 191 188 189 192 189 190 186 186 182 175 175 170 175 164 155 137 138 130 120 67 48 25 26 15 57 63 52 53 49 53 55 53 60 44 62 49 75 76 103 111 53 33 35 33 32 40 37 39 49 56 108 135 140 152 167 173 175 180 185 185 186 189 189 190 194 199 199 201 203 202 203 203 203 201 203 202 200 200 199 204 201 202 201 198 196 196 197 193 193 193 193 192 193 188 187 189 190 189 189 188 185 180 178 171 173 165 154 143 137 143 130 96 66 25 36 23 43 75 54 52 56 47 47 48 55 49 52 57 62 70 105 86 35 31 42 37 32 41 41 53 61 85 134 147 154 161 171 177 182 187 187 186 186 187 187 191 192 197 200 202 202 202 203 201 202 201 200 201 200 201 202 202 200 201 201 197 196 192 194 193 192 192 194 193 193 188 190 186 191 190 192 187 187 187 188 180 171 169 154 145 136 142 141 114 87 47 35 47 21 60 67 46 58 49 40 41 49 54 48 49 51 61 89 60 32 40 49 32 32 47 56 50 66 103 144 160 163 168 178 183 181 186 188 186 185 190 189 190 192 197 197 201 202 201 201 201 200 202 202 201 202 201 202 201 200 198 201 198 196 196 190 194 192 194 193 193 193 190 187 190 191 192 191 191 186 190 187 186 173 167 155 143 144 142 139 127 101 62 41 52 34 45 63 56 44 48 41 36 39 53 49 39 48 55 60 56 37 66 48 30 40 46 58 43 77 115 151 164 171 172 180 185 186 188 188 187 190 188 191 189 191 195 196 198 200 201 198 202 201 201 201 201 203 202 201 202 199 200 199 196 197 196 193 192 195 194 193 192 194 192 189 193 187 190 190 193 193 190 191 189 184 169 157 149 143 145 138 131 105 81 51 51 56 37 53 59 47 34 45 44 32 39 52 44 35 54 59 89 51 61 46 28 41 62 39 49 88 129 161 159 171 176 181 187 189 191 190 189 193 193 190 195 195 196 196 199 199 198 198 199 202 201 202 201 202 201 202 200 195 198 196 198 194 195 194 193 195 194 192 191 193 192 190 192 191 189 192 191 194 193 194 192 187 174 156 147 148 148 136 124 110 82 63 44 60 55 42 48 52 39 33 38 42 35 41 56 31 44 46 116 79 53 41 27 49 43 39 52 108 146 163 164 171 174 182 188 187 188 191 192 194 194 194 196 200 199 200 201 200 200 198 203 201 200 201 202 201 202 202 200 197 199 193 195 198 196 194 193 192 194 193 193 192 193 193 193 193 190 190 193 193 192 195 195 185 174 163 152 150 148 142 129 118 90 68 61 60 82 52 37 50 48 31 28 36 39 33 48 40 32 43 120 103 43 28 42 45 40 41 60 134 153 163 163 175 176 185 188 185 189 193 192 194 195 197 198 199 200 201 201 203 199 200 204 202 201 202 200 202 202 202 200 197 199 198 195 194 196 194 195 193 195 193 192 194 193 194 192 192 191 192 192 193 193 193 190 184 171 164 158 151 145 145 133 109 104 73 80 54 85 72 36 45 33 41 34 24 33 37 39 46 31 36 119 112 33 24 49 40 42 33 83 149 156 162 162 177 179 186 188 187 191 193 192 192 196 199 199 201 199 199 200 203 204 201 201 203 202 201 201 202 203 200 202 197 201 196 197 194 194 197 193 194 195 192 192 192 196 190 193 195 192 194 194 195 192 194 189 180 177 163 160 153 152 152 140 115 100 99 81 71 84 79 58 36 45 22 41 28 22 34 39 39 38 22 121 107 24 40 41 35 35 47 105 159 160 165 165 177 182 185 192 190 194 190 194 191 194 199 196 197 200 200 201 200 201 200 202 203 201 200 203 202 202 202 202 200 201 199 199 198 196 196 194 196 192 194 194 194 194 194 193 193 193 195 195 192 192 191 190 182 176 169 164 157 155 151 151 124 97 95 88 98 64 88 72 32 42 31 31 41 24 30 32 44 44 27 121 112 31 34 42 41 38 59 134 159 163 162 170 177 181 188 188 193 194 191 193 190 189 193 195 197 199 199 196 199 200 202 203 202 199 198 203 203 202 201 202 200 201 199 200 198 195 192 194 194 195 190 194 193 193 194 195 196 190 194 195 190 189 188 185 180 170 168 163 161 158 156 146 138 98 91 86 105 70 83 91 32 32 47 20 37 40 22 32 40 42 36 125 109 34 44 36 45 29 86 152 160 167 168 168 177 181 185 192 194 193 193 191 191 188 189 187 194 195 199 196 195 197 199 201 198 196 197 203 201 202 202 201 198 200 195 197 197 197 191 193 194 194 189 192 193 192 192 195 195 193 197 194 190 190 190 182 179 170 167 160 166 162 156 149 134 115 89 84 107 77 82 92 46 38 42 35 20 45 21 31 41 25 43 123 106 38 49 34 38 26 123 158 163 167 167 173 175 177 185 193 192 193 192 191 190 189 186 188 188 192 192 192 195 193 193 200 190 196 199 200 200 200 200 197 197 195 195 194 195 193 191 191 191 190 189 190 190 193 192 194 194 194 195 192 190 190 191 181 177 173 161 165 161 159 152 152 144 114 89 76 97 87 81 79 57 33 44 50 30 30 37 20 37 31 40 119 100 52 49 44 27 37 146 161 166 165 167 175 180 178 180 177 181 185 188 188 186 187 185 182 187 185 185 189 189 191 191 194 194 196 195 194 198 198 194 192 193 194 192 191 191 192 188 187 188 187 188 190 187 189 190 193 193 193 191 192 188 191 187 180 177 167 167 168 163 158 156 147 151 121 86 67 81 89 80 71 62 32 46 56 44 37 34 26 30 32 34 124 90 62 44 42 20 65 158 162 163 169 166 172 174 170 163 164 165 164 169 174 168 171 177 176 180 175 177 181 184 184 187 188 191 188 189 192 191 189 192 188 188 190 193 183 186 187 185 186 181 183 187 187 186 184 182 187 191 191 190 189 183 186 183 180 177 168 167 167 164 157 159 150 150 137 96 67 71 73 80 72 60 45 48 48 54 43 38 31 24 41 26 123 79 61 41 46 14 106 157 162 164 162 166 164 169 156 159 155 150 140 142 138 136 135 135 143 148 157 164 170 177 171 172 179 185 183 182 189 183 184 187 186 184 187 184 186 176 182 175 176 173 168 170 163 174 170 164 163 170 177 172 167 173 172 175 171 176 172 169 169 165 160 157 155 153 137 110 75 65 60 78 60 59 49 44 51 39 54 34 33 27 34 37 148 86 63 55 41 32 132 158 164 157 145 130 137 146 133 128 121 127 116 95 87 95 90 85 93 105 116 138 150 152 159 161 171 175 177 176 178 179 180 179 179 180 180 170 171 166 167 153 142 143 131 122 122 133 138 140 139 141 146 147 151 154 157 164 170 166 169 166 166 164 157 158 153 150 141 118 80 78 44 65 54 60 45 43 48 44 43 46 28 27 29 42 126 101 70 52 35 53 145 142 119 94 95 97 103 123 124 118 117 152 177 175 177 196 194 174 153 139 129 126 144 150 159 156 172 175 175 178 179 177 179 166 161 166 162 151 144 145 141 121 117 98 95 84 91 92 98 103 113 124 122 125 131 136 148 154 157 155 151 164 167 161 158 158 150 147 147 126 90 81 50 53 48 52 49 38 40 35 34 47 36 30 29 46 64 99 108 52 30 82 126 102 107 82 145 152 149 161 149 135 122 113 100 88 80 79 79 67 71 67 72 89 97 118 118 138 162 168 166 162 161 166 178 177 181 181 175 162 153 142 140 123 113 105 98 99 91 93 89 92 101 105 106 104 108 124 141 151 151 153 144 147 162 161 161 153 150 149 146 131 96 86 61 43 50 43 50 37 37 44 32 48 32 33 37 61 48 88 139 65 38 68 110 126 97 68 153 150 143 149 139 140 121 124 109 84 79 83 87 79 96 85 84 93 96 96 59 44 128 136 145 143 149 139 136 129 131 124 105 65 76 98 101 108 102 104 104 111 107 111 114 119 117 117 108 88 81 72 84 96 122 143 149 149 156 151 159 151 153 151 144 138 101 97 67 43 46 41 39 38 33 42 39 42 35 39 42 82 84 92 146 97 21 84 127 125 72 96 155 142 140 131 136 134 128 132 140 106 127 229 209 91 98 91 92 100 91 117 121 81 54 147 161 172 184 180 177 165 164 132 78 100 121 121 112 108 93 84 74 83 79 72 78 82 104 114 128 134 141 142 129 121 98 76 82 128 144 147 147 151 143 145 145 139 119 98 85 34 45 44 41 38 42 34 50 41 38 33 81 91 124 125 132 121 47 124 118 122 66 130 143 125 134 125 129 128 136 139 132 108 81 137 147 101 79 77 89 119 86 181 178 112 30 118 167 176 187 187 180 170 162 80 90 121 118 112 103 105 100 101 59 141 197 155 71 105 116 118 123 132 147 140 142 146 141 139 119 89 91 135 143 143 143 143 145 143 126 107 90 43 42 31 39 37 38 46 43 51 36 49 100 101 137 149 130 66 97 132 113 115 79 146 139 123 125 117 121 117 114 114 118 128 142 140 136 107 81 65 53 84 104 90 119 117 48 83 174 176 187 188 184 180 149 67 116 118 103 99 91 81 80 76 53 99 187 184 107 130 149 149 104 172 207 146 124 138 135 140 139 149 96 64 138 146 134 141 145 147 126 120 93 46 39 35 48 32 43 38 45 41 57 46 98 101 150 119 157 110 124 105 87 71 69 155 138 124 117 108 97 106 125 138 144 142 164 159 146 142 121 94 66 87 128 108 100 123 73 55 164 160 175 171 161 163 120 73 130 117 105 90 87 78 79 79 97 110 126 149 146 153 151 141 143 128 163 127 107 116 134 125 129 134 161 78 72 146 134 138 142 148 136 132 102 46 33 37 38 36 39 48 56 51 62 64 76 101 157 111 164 192 141 64 72 71 75 163 144 136 119 108 103 127 132 133 126 129 134 135 131 147 128 124 124 122 99 104 116 129 77 22 63 68 83 93 95 100 82 83 130 114 101 100 103 102 104 108 107 111 146 163 170 165 158 138 185 148 123 144 132 108 131 121 122 131 143 143 40 120 143 140 141 146 141 129 79 39 37 36 44 42 36 66 75 67 61 68 80 106 147 138 134 132 143 92 119 108 82 161 151 142 128 118 111 110 104 103 87 60 58 48 79 105 116 108 115 128 110 97 118 138 77 72 110 157 160 150 121 113 51 78 125 115 114 120 105 106 112 114 128 129 148 161 169 166 169 174 163 159 137 103 120 131 126 128 124 134 134 156 91 56 159 143 134 126 105 64 50 54 59 69 75 63 78 91 102 83 54 40 94 109 134 162 158 104 147 111 113 118 94 151 164 146 128 114 106 98 84 84 95 64 37 63 76 85 117 115 108 101 120 118 127 144 63 69 113 151 171 167 157 167 73 69 115 122 128 127 107 99 97 124 131 128 122 134 133 128 140 145 144 153 149 119 108 102 112 118 127 134 132 144 128 62 124 122 95 76 63 74 92 93 90 96 101 87 95 100 113 97 73 25 85 113 146 156 143 101 152 112 105 134 113 114 161 146 131 138 134 118 118 115 128 119 71 92 104 113 148 142 126 116 109 144 165 141 49 64 143 183 194 189 175 153 64 74 99 110 132 130 116 108 119 114 106 110 106 105 90 94 84 88 101 120 125 122 120 114 105 107 120 133 134 136 145 150 144 143 62 70 123 131 131 124 100 109 121 108 110 101 116 121 84 25 82 115 149 154 131 87 155 114 97 140 141 87 148 154 146 159 155 135 127 124 119 114 118 117 117 114 116 115 98 127 128 142 145 105 28 100 178 195 197 195 192 189 78 69 77 81 124 140 127 103 98 95 90 125 143 120 117 91 69 65 86 96 97 94 114 116 120 126 122 132 128 110 135 137 133 122 83 130 150 137 137 124 105 112 122 118 116 107 122 134 91 28 72 116 141 152 123 79 159 116 93 136 157 87 146 171 169 160 151 140 142 140 120 112 119 111 112 109 97 103 99 122 143 145 109 56 37 144 186 187 195 190 186 207 106 57 88 59 95 139 127 99 115 103 103 133 140 132 108 84 79 93 111 105 94 96 106 100 118 118 132 118 109 104 146 90 88 131 139 148 142 137 131 130 102 117 116 123 114 112 122 135 105 28 72 133 139 149 131 73 156 125 105 101 164 92 145 185 185 163 141 136 139 141 144 137 138 130 133 114 103 102 103 114 119 129 95 25 99 177 198 198 192 188 185 186 170 52 95 76 93 116 141 149 139 128 115 117 120 124 123 114 112 117 114 120 123 117 142 144 124 110 114 115 115 136 166 77 117 158 150 152 141 134 131 126 110 118 116 119 125 125 124 133 119 34 72 120 143 149 144 91 136 151 101 98 154 112 148 189 181 158 141 141 141 139 143 141 145 134 138 124 115 107 111 119 120 136 75 72 144 187 205 201 190 187 184 175 175 84 85 122 106 109 133 142 138 121 111 106 105 109 113 112 116 116 118 132 141 138 150 154 141 129 117 114 131 154 161 72 139 162 153 146 143 133 126 126 111 122 118 110 135 135 127 139 125 42 73 125 148 153 153 113 87 192 110 93 146 124 160 180 163 148 149 141 143 143 145 140 143 140 128 132 124 117 126 132 145 95 77 147 162 188 206 200 184 182 182 172 166 144 57 140 122 121 113 145 136 122 116 113 114 124 124 130 128 130 125 136 145 147 142 145 143 145 141 149 156 164 148 66 161 157 156 145 145 130 125 121 115 122 116 62 89 117 123 131 135 46 97 120 147 162 157 141 75 173 163 94 137 129 153 171 164 147 152 149 142 144 135 140 137 133 133 128 131 133 135 151 116 66 117 160 174 198 206 199 190 180 183 167 156 172 94 83 163 131 116 132 137 130 125 121 120 123 130 127 132 134 133 138 142 139 135 140 147 162 166 169 168 177 124 82 176 158 148 145 135 128 123 121 113 123 93 50 68 96 112 122 132 71 114 109 150 172 168 131 129 81 206 131 136 137 139 160 161 156 152 149 151 142 140 140 136 136 141 139 141 143 149 144 68 85 152 169 192 204 207 197 191 187 182 170 154 157 166 64 136 158 118 134 134 133 123 121 123 129 126 130 133 135 135 143 142 145 132 132 144 167 174 172 175 175 101 115 176 152 146 144 129 127 119 120 115 119 79 67 86 101 105 119 134 92 122 109 166 187 192 128 127 132 93 200 167 159 138 150 157 158 153 152 153 144 143 145 150 155 155 138 145 149 138 81 88 146 167 182 196 205 206 198 191 191 189 167 155 151 163 146 38 163 156 146 145 143 137 128 118 121 130 131 135 147 141 146 148 150 145 139 149 169 170 173 180 158 83 152 163 150 141 137 135 118 123 121 115 125 109 76 91 108 102 114 133 99 130 81 167 192 192 139 111 151 137 87 187 193 163 157 155 151 156 157 153 150 147 148 153 158 153 144 149 123 82 101 139 160 176 187 200 202 205 197 189 190 197 170 157 140 151 169 127 58 182 169 155 154 151 143 133 122 124 120 130 135 142 146 145 153 151 152 160 166 171 170 182 112 105 167 151 148 138 136 132 123 120 118 106 130 131 96 88 103 99 111 133 104 129 74 145 175 189 153 113 135 143 142 87 140 200 192 181 176 161 165 153 154 156 152 156 155 145 136 102 92 116 142 151 170 182 186 199 202 199 197 188 194 198 186 157 138 143 155 160 122 59 173 189 158 162 158 148 150 133 134 136 137 143 148 139 151 156 166 163 168 176 187 162 91 150 162 144 143 136 131 126 123 121 119 104 132 136 127 119 100 104 122 129 100 134 62 146 146 183 165 110 139 144 149 128 82 64 123 177 180 189 195 193 192 186 168 151 131 111 115 117 118 143 147 159 176 185 189 196 205 197 189 189 193 193 184 158 136 138 143 149 150 134 88 153 206 181 165 156 159 148 148 135 134 148 145 141 145 148 163 163 180 199 195 113 136 162 154 142 137 129 126 129 121 125 116 108 131 138 148 142 119 108 134 123 113 123 55 172 149 161 154 119 136 140 152 145 100 101 89 81 92 112 119 131 136 131 138 126 135 145 137 118 146 159 143 164 170 181 187 197 207 198 188 189 183 185 179 157 138 131 146 140 145 153 139 101 106 184 201 183 160 154 151 140 139 139 145 144 143 152 173 186 207 187 126 146 164 156 147 137 134 132 122 129 121 122 117 106 129 127 140 139 131 116 137 110 122 106 59 178 157 157 140 114 143 146 150 140 112 99 110 117 119 125 126 133 142 139 144 142 143 139 143 162 163 152 151 161 158 172 183 191 199 190 181 188 174 164 162 159 146 136 151 138 133 157 164 146 116 88 91 163 179 191 187 185 179 179 181 177 180 183 177 164 137 137 163 163 156 150 143 132 129 131 123 123 122 120 111 108 131 119 122 123 124 128 131 103 133 88 57 179 170 166 146 120 141 148 152 141 124 104 108 112 122 116 121 125 125 133 142 151 160 171 174 169 159 145 144 139 139 154 174 181 180 177 172 163 153 139 140 155 149 147 152 143 123 155 168 173 151 130 114 91 91 100 97 105 117 118 116 112 114 118 132 136 156 162 160 151 150 149 137 136 125 129 126 123 121 122 109 115 124 116 118 111 118 139 125 104 137 59 64 168 173 182 176 119 140 146 156 149 145 135 137 144 152 150 161 164 169 178 178 186 181 183 176 165 146 136 112 116 114 132 152 162 162 155 149 126 125 123 121 126 139 152 150 144 123 145 168 177 181 181 159 141 115 119 117 114 119 121 122 118 134 136 161 158 152 151 144 145 143 140 135 130 129 131 120 126 116 120 113 113 122 115 122 106 121 143 110 115 127 43 68 130 156 168 173 128 131 152 148 158 152 160 160 162 173 178 180 187 184 187 186 180 178 181 177 160 137 123 72 66 93 116 123 138 141 130 118 105 101 96 104 99 114 144 145 134 122 124 166 175 179 183 186 182 164 141 128 121 121 124 122 125 130 144 149 147 143 138 141 139 140 135 136 133 129 122 123 126 120 114 107 117 115 103 122 128 126 111 99 132 89 47 64 109 122 144 154 135 138 146 146 149 155 157 153 161 173 177 183 185 184 185 186 180 181 178 178 147 121 99 50 15 33 98 109 113 106 109 100 94 80 55 46 56 91 124 137 134 122 104 155 166 178 181 183 187 190 182 180 169 161 149 141 144 135 141 139 141 135 135 139 139 133 129 133 135 131 122 121 124 117 115 107 118 137 125 130 136 116 97 115 130 67 50 60 96 99 103 116 126 142 144 149 147 150 150 156 157 172 175 180 183 181 177 182 179 179 180 177 141 100 88 39 37 19 34 85 87 95 92 89 70 39 18 27 10 49 105 125 124 120 104 147 170 176 181 182 184 181 181 183 186 189 182 174 165 153 149 141 137 136 137 130 133 128 132 129 131 132 124 119 117 117 113 107 108 121 120 119 124 116 110 137 111 35 65 60 100 105 102 89 111 148 143 149 148 147 147 154 158 171 173 177 180 180 177 180 181 182 179 172 144 100 86 64 56 40 43 65 86 83 91 87 67 69 21 28 18 26 80 117 112 121 107 145 165 176 177 180 181 181 181 181 184 185 190 179 175 169 163 153 149 138 139 125 133 130 129 131 132 131 123 118 120 115 111 110 113 108 117 120 118 127 137 126 83 46 60 60 103 103 105 98 107 141 141 141 144 143 147 149 157 165 175 172 177 175 172 173 172 164 157 159 159 92 90 85 101 111 104 80 73 79 81 92 101 98 43 32 33 43 69 97 107 117 101 124 157 172 166 177 179 181 176 176 185 183 177 179 177 167 167 164 158 149 137 132 128 128 124 129 129 130 123 120 115 117 105 113 129 119 127 123 131 124 138 93 56 47 65 58 104 103 105 96 110 135 138 136 139 144 142 151 152 161 168 171 176 177 172 172 174 155 158 159 165 122 86 62 101 134 130 111 76 84 82 92 106 120 99 83 72 62 77 86 105 106 101 115 158 171 174 177 177 178 176 171 181 179 176 178 178 169 161 160 161 155 148 136 128 125 121 129 125 128 119 119 112 115 105 117 132 121 127 126 128 126 111 59 56 58 62 60 100 103 107 99 105 133 134 132 135 142 138 151 153 151 160 160 174 173 170 171 169 165 168 169 162 151 91 57 67 121 138 130 107 87 92 97 106 110 109 114 89 74 79 85 91 101 99 122 143 169 174 169 176 174 175 173 177 175 176 173 175 164 163 155 160 147 152 142 129 129 122 123 125 121 119 115 112 111 104 121 128 120 120 111 120 104 73 50 63 58 62 55 100 105 101 99 103 128 135 133 130 140 138 147 151 152 156 156 162 166 164 167 163 174 173 162 161 165 136 124 127 117 137 136 125 106 94 97 112 102 99 103 86 68 67 80 95 108 114 119 138 169 172 163 177 173 171 175 172 172 170 172 168 161 155 150 144 144 146 139 132 129 121 121 124 120 118 118 107 116 103 119 111 105 101 101 86 80 48 62 60 57 62 60 101 99 105 99 105 126 125 135 130 141 141 150 149 147 154 159 160 162 167 167 168 172 178 168 168 164 152 154 154 132 137 143 131 115 99 105 113 110 107 111 96 91 85 109 114 122 123 131 145 163 169 169 171 171 169 171 169 166 167 159 162 158 155 150 144 146 148 138 131 127 123 123 121 119 118 117 109 112 106 102 80 90 79 72 62 54 62 55 59 60 60 59 105 102 102 98 107 119 124 136 135 138 137 142 147 150 150 153 157 158 159 161 163 170 173 173 168 163 152 148 146 143 142 153 141 125 113 116 114 113 116 119 113 116 119 127 126 123 136 132 152 163 172 168 163 173 169 163 161 156 158 155 155 155 152 153 151 149 138 133 129 129 123 124 118 118 119 116 109 117 88 55 61 61 60 59 60 57 62 54 62 55 60 61 101 100 105 93 109 114 125 128 138 136 139 146 147 150 144 149 152 148 154 155 161 167 169 163 167 160 160 144 140 140 155 152 145 133 127 133 132 122 121 126 120 122 126 139 140 144 143 146 152 167 169 171 167 169 165 165 164 155 157 155 146 153 158 145 146 144 136 128 127 122 121 121 115 115 117 112 114 115 64 51 61 53 63 52 65 53 60 58 58 56 63 55 101 99 101 99 104 121 116 129 136 140 138 146 144 142 148 147 147 145 145 158 156 160 166 153 158 155 157 154 147 150 157 159 143 142 138 141 149 139 137 130 128 130 138 143 148 157 157 163 160 167 172 169 164 162 160 157 162 158 154 152 146 148 146 140 137 143 140 126 121 124 116 114 115 118 116 111 116 108 45 63 53 54 64 55 61 51 60 52 64 57 60 60 96 105 103 95 101 122 121 131 133 134 140 141 143 141 144 142 138 142 146 149 154 152 153 153 153 151 159 155 158 156 164 165 153 161 155 155 155 154 142 145 143 147 142 152 159 156 165 163 163 167 165 167 155 160 149 151 149 160 148 142 148 148 146 141 141 137 134 125 121 123 115 114 116 116 117 109 120 83 47 65 56 58 57 58 65 51 65 57 62 56 54 59 97 102 102 98 96 124 117 129 129 134 138 137 142 139 140 141 138 138 145 141 142 144 152 152 152 158 156 157 160 169 180 176 166 176 176 172 168 165 148 149 152 159 155 152 164 159 167 157 155 163 162 164 161 157 151 148 156 152 150 146 143 150 145 142 139 132 130 128 123 117 117 111 117 116 117 110 116 68 53 61 59 54 59 56 59 58 60 57 61 54 62 58 101 104 99 100 95 120 120 126 127 133 134 135 140 135 131 130 134 134 133 132 140 138 147 154 151 167 171 170 168 177 178 188 183 186 189 187 184 177 174 164 161 158 152 154 164 156 156 159 158 157 159 159 153 146 145 151 153 152 145 140 146 141 141 138 135 135 128 123 117 115 117 118 115 117 112 114 104 50 51 61 57 59 57 56 60 55 57 63 54 61 58 61 100 103 98 101 98 111 121 122 124 132 135 134 137 138 128 130 125 119 124 123 132 130 143 151 148 155 152 136 116 104 99 124 161 175 167 152 147 165 176 173 170 167 149 160 155 147 154 154 152 153 148 151 144 146 145 142 141 139 139 141 141 139 136 135 134 126 122 123 114 116 112 113 117 116 112 119 83 44 58 55 61 50 63 54 60 56 55 61 59 59 58 58 103 96 103 98 94 111 118 121 123 133 139 138 135 139 131 129 123 111 105 109 109 117 123 130 119 101 84 65 62 55 60 63 83 97 86 78 58 82 112 141 164 167 166 161 149 147 154 140 138 144 138 142 136 137 132 129 133 131 138 140 139 139 134 132 132 128 118 119 120 120 111 116 118 117 113 116 60 51 59 53 60 60 56 58 58 59 61 53 60 61 52 57 96 101 99 100 100 96 119 114 121 128 134 140 133 137 131 123 120 114 87 75 78 81 84 76 63 53 55 60 60 72 65 82 84 78 74 72 79 81 63 59 79 119 143 148 143 140 139 130 132 126 124 120 128 122 127 116 124 126 138 135 135 133 133 133 127 127 122 117 115 111 118 113 120 115 112 97 50 56 52 58 57 54 59 58 57 54 60 55 57 57 55 53 101 103 95 102 100 96 114 116 120 119 129 136 141 135 131 127 109 102 75 67 57 46 46 38 46 46 41 39 47 50 38 64 65 63 61 60 72 74 79 63 58 48 71 100 115 117 122 115 120 113 110 104 112 110 115 107 114 119 130 131 138 133 130 129 126 124 124 115 113 109 121 113 115 118 112 79 44 60 46 64 62 54 54 57 57 60 56 58 53 60 54 61 104 97 104 99 98 96 104 114 116 127 125 132 139 133 131 127 106 95 97 97 84 74 65 50 51 59 65 73 69 94 77 62 66 45 49 44 50 53 56 51 46 54 48 56 59 65 85 88 89 91 93 89 86 95 102 99 114 117 122 133 132 128 127 124 123 119 113 112 117 113 114 114 117 113 105 61 50 65 51 57 52 59 56 56 55 55 58 61 50 59 54 62 100 97 101 100 101 97 102 108 114 123 123 132 134 135 130 131 114 111 131 144 138 133 121 107 102 102 105 108 117 137 145 151 149 119 93 110 113 96 79 73 67 63 62 49 54 46 40 52 52 49 59 58 73 79 90 97 109 116 126 130 135 130 126 118 122 115 111 107 119 116 113 111 112 116 84 48 57 57 55 56 51 55 57 57 58 55 59 56 58 56 55 59 96 95 99 100 98 100 85 110 106 121 123 127 127 132 130 134 127 133 136 154 160 149 149 134 130 131 125 113 109 114 118 129 145 138 136 144 169 148 130 127 126 122 99 86 72 75 62 66 74 66 65 65 68 67 80 85 107 124 130 122 126 133 127 118 116 120 114 112 113 115 114 105 118 106 67 49 49 61 56 54 58 55 56 61 56 57 55 56 60 51 63 59 105 97 99 98 100 98 98 96 102 114 115 122 122 127 130 132 133 134 144 153 153 151 144 134 127 126 116 122 119 117 115 116 116 120 123 116 123 118 118 116 118 115 111 116 105 101 105 110 113 116 111 108 93 91 84 90 106 123 129 127 123 126 125 119 114 114 111 107 112 112 107 112 107 101 45 53 55 55 57 55 56 55 53 55 57 60 52 55 58 60 54 58 100 97 102 102 97 99 104 92 102 104 115 116 118 125 131 125 127 140 139 146 146 147 141 133 127 122 110 97 93 105 109 104 109 117 114 103 111 115 115 123 129 126 122 126 123 113 116 123 118 117 122 123 119 119 106 114 111 122 123 120 126 123 121 114 113 117 108 107 109 108 107 108 113 80 37 61 56 54 57 52 54 56 60 52 56 62 56 54 60 57 50 59 98 98 97 102 101 96 103 86 97 108 103 113 114 118 129 124 121 140 137 141 141 144 137 142 134 129 114 95 89 76 77 80 74 75 86 82 82 93 98 106 101 103 105 104 103 115 111 120 118 133 127 130 138 131 126 119 120 117 115 116 116 116 113 111 116 105 107 108 102 105 104 106 109 72 50 54 58 56 58 55 56 58 62 53 54 59 52 64 53 60 56 52 95 98 94 99 100 96 104 98 83 102 99 105 107 114 120 127 126 136 132 144 140 143 137 136 136 130 120 107 101 92 83 74 76 67 71 75 62 77 82 87 87 93 99 104 108 118 126 126 129 132 133 135 142 137 137 130 123 108 111 110 109 106 107 113 112 106 106 108 100 105 100 107 105 65 48 55 56 55 56 54 57 56 58 51 56 59 54 60 59 56 60 55 96 98 100 98 103 98 97 105 86 89 101 105 102 108 109 122 133 134 138 142 141 144 139 132 135 135 129 123 117 107 94 90 85 78 78 70 75 73 84 81 87 92 96 105 112 125 134 133 126 132 132 125 137 133 126 120 122 111 108 105 104 105 103 105 110 104 107 101 102 98 98 99 109 55 49 55 54 53 63 51 56 60 52 52 58 54 56 56 58 53 59 55 99 95 101 97 102 98 103 100 106 76 90 101 103 107 108 122 124 131 129 138 140 139 147 140 143 145 138 139 149 141 133 130 121 112 99 99 103 93 94 97 97 99 110 111 122 133 134 133 126 128 132 127 125 127 121 116 122 111 101 104 102 99 108 105 107 98 102 102 104 99 90 112 101 48 54 56 52 54 52 52 58 55 56 54 56 59 52 57 56 60 54 58 95 99 97 100 99 97 97 97 103 95 83 90 102 100 112 118 123 126 130 134 133 140 146 146 155 152 149 157 167 175 175 171 180 174 164 167 168 152 141 124 120 119 122 127 130 133 132 133 132 127 128 124 122 116 120 119 116 107 99 103 98 98 99 102 99 99 101 103 97 93 95 113 96 39 54 57 49 54 58 49 59 58 54 56 54 55 55 56 58 57 54 58 99 96 102 95 99 98 98 99 97 104 96 71 95 101 111 106 116 119 122 129 123 133 144 143 163 164 157 159 166 173 178 179 183 179 182 182 184 173 177 172 157 145 142 137 143 138 139 132 123 120 122 121 120 118 110 105 113 108 96 104 96 95 95 95 101 105 97 99 86 97 100 118 84 38 60 59 52 55 54 56 60 51 55 58 56 56 57 55 55 61 54 57 103 97 99 102 97 98 101 98 98 102 104 89 77 95 107 106 112 116 115 138 124 130 147 146 148 160 152 157 165 165 174 179 181 177 171 173 175 172 172 178 174 163 160 155 142 143 136 131 119 116 121 122 117 114 108 107 105 105 90 98 97 99 94 101 94 96 100 85 91 105 109 115 78 43 53 56 56 57 53 52 57 58 49 59 56 60 50 54 56 57 55 55 98 97 96 101 100 99 101 101 100 103 104 103 87 75 95 101 107 110 109 129 133 131 143 142 144 150 148 158 159 169 166 170 171 164 154 161 164 170 168 177 169 165 166 164 159 151 141 131 125 117 126 118 114 106 107 111 100 102 95 93 94 99 92 103 92 94 96 80 100 106 109 111 71 44 54 56 56 49 57 54 56 56 57 54 56 55 57 54 58 58 55 60 97 99 96 99 99 101 97 103 101 99 105 97 119 82 67 88 99 107 110 122 131 130 130 138 142 142 146 164 167 169 165 162 156 155 153 146 162 166 156 158 165 147 148 161 160 156 144 138 135 129 129 124 117 112 110 106 95 98 101 102 92 92 90 94 89 88 85 97 105 106 109 118 52 48 55 58 54 50 54 57 54 51 56 56 56 55 50 57 61 53 55 51 100 98 100 104 92 97 98 101 101 101 104 95 121 108 72 63 92 95 104 111 129 132 122 130 131 137 137 162 157 162 169 164 150 156 151 156 157 156 157 164 160 157 151 155 159 145 144 129 136 132 131 127 116 114 106 100 93 96 101 97 94 85 82 91 89 78 101 109 105 108 113 110 46 49 57 56 52 55 55 53 58 49 56 55 57 53 56 61 56 53 59 54 94 104 97 100 99 97 99 102 97 104 102 94 113 115 101 67 62 74 93 98 117 123 129 128 130 129 134 141 150 150 156 156 155 153 154 158 153 152 147 154 155 150 144 136 139 138 142 132 127 124 125 123 111 106 101 102 95 98 93 92 88 81 80 73 75 104 114 105 107 107 115 100 44 52 58 50 54 57 54 50 55 52 55 55 54 56 55 48 58 53 56 59 99 99 99 95 101 98 101 99 104 100 101 96 113 118 105 84 65 57 75 90 103 111 115 126 123 125 126 131 137 139 131 139 139 138 143 141 146 141 138 140 139 137 123 132 129 142 144 135 120 118 111 108 101 96 95 97 90 92 87 84 83 73 70 77 101 104 106 106 106 109 115 93 39 51 54 54 55 51 58 48 54 58 48 57 49 58 54 54 53 57 55 54 98 97 100 99 95 100 96 98 105 99 104 93 115 117 110 93 67 55 53 70 81 99 104 111 113 112 121 112 120 121 111 123 118 129 128 131 127 131 123 128 134 122 117 128 127 141 141 120 117 115 104 95 96 91 89 93 86 81 80 77 71 62 86 98 107 104 105 103 106 106 120 75 44 50 58 47 57 52 54 51 59 52 56 53 55 56 49 62 49 58 55 55 96 97 94 104 94 101 98 101 104 102 98 97 113 123 106 99 80 60 54 53 64 65 92 98 100 94 104 105 104 102 104 105 102 109 120 126 117 116 125 124 117 111 114 116 121 140 134 108 104 99 93 86 82 84 74 84 73 71 67 62 70 82 96 105 103 103 107 103 108 107 116 68 43 51 56 51 54 47 58 51 50 51 54 53 54 57 49 56 55 53 50 55 95 98 97 100 98 100 102 102 101 104 102 98 113 118 112 106 87 66 58 54 59 53 69 80 81 88 88 89 95 92 92 95 93 101 107 110 109 109 109 106 103 99 104 105 99 108 99 93 89 90 81 74 74 80 61 66 65 60 58 63 80 93 92 104 100 101 100 108 103 105 117 61 35 58 52 55 52 52 47 60 47 56 49 54 51 56 53 51 54 55 56 53 96 100 97 98 95 106 94 98 105 117 104 41 101 124 117 109 97 75 66 61 55 51 62 59 63 73 72 75 73 84 77 84 87 83 94 93 94 94 93 89 88 90 87 87 87 72 81 79 78 77 70 67 57 70 59 63 61 61 74 86 84 101 101 98 98 105 101 105 105 108 108 68 43 52 56 52 47 54 54 52 56 54 52 47 56 49 56 51 55 57 51 59 98 103 93 96 102 98 99 101 121 96 39 62 114 120 118 115 101 83 73 59 60 58 58 55 61 64 67 66 67 70 75 78 72 71 77 74 81 77 76 79 78 76 84 81 76 71 73 74 61 62 64 66 58 59 64 61 72 72 86 93 99 101 101 97 104 101 103 104 105 111 87 71 56 48 54 50 50 50 49 57 45 58 49 53 47 52 55 49 53 51 57 48 96 98 100 99 97 102 88 123 120 31 59 146 122 111 122 117 110 90 78 65 62 55 62 58 60 56 59 62 60 66 66 66 66 70 69 67 69 70 69 65 69 65 66 72 61 62 58 62 55 64 60 55 64 62 62 69 77 88 86 95 97 107 97 101 105 102 107 102 109 110 72 25 84 55 49 53 48 51 56 50 51 55 49 54 45 55 52 52 51 52 53 43 97 96 104 95 100 103 101 128 77 49 147 146 118 110 119 120 111 110 75 81 57 60 65 62 62 57 53 58 61 61 62 61 63 67 60 66 62 62 63 60 65 56 60 55 56 59 58 65 57 63 61 61 57 62 75 75 82 93 94 96 101 100 102 95 106 101 106 103 99 119 60 11 79 75 43 46 55 47 53 49 54 52 49 48 53 50 54 49 50 54 50 54 107 110 109 107 111 110 95 132 36 117 153 139 129 103 119 126 110 112 91 79 66 56 67 62 63 57 58 54 57 60 62 58 60 65 63 61 61 61 62 60 59 62 49 61 58 64 60 60 55 59 61 59 67 69 79 83 89 96 94 100 99 106 101 101 106 100 107 100 102 119 44 12 73 77 44 51 46 53 49 51 54 45 52 55 54 47 51 49 51 53 53 54 