P2
92
112
255
119 121 119 120 122 117 122 123 120 120 122 118 119 119 120 120 118 121 123 120 121 120 117 116 114 101 93 73 70 84 80 89 86 102 106 107 113 111 113 108 92 87 86 76 79 71 67 67 70 63 64 78 59 55 48 50 37 36 44 42 55 59 52 66 74 79 63 65 79 84 90 115 112 119 111 107 117 115 118 117 119 118 117 117 118 116 119 117 117 118 118 119 118 120 121 119 120 124 117 122 122 118 119 122 122 118 120 121 123 117 121 121 120 121 116 98 79 70 66 64 69 71 78 94 101 117 121 108 107 107 101 93 82 81 85 77 78 76 64 56 63 66 51 67 52 39 44 53 40 38 41 35 51 48 49 68 74 79 70 81 85 77 76 91 109 116 103 117 116 118 119 117 119 120 116 115 116 115 117 116 117 119 119 120 120 120 124 122 121 123 122 121 121 122 121 121 121 118 121 120 120 118 120 122 118 101 75 58 58 57 59 58 71 89 105 115 112 111 108 98 88 98 87 84 78 72 78 73 79 60 61 60 54 47 49 55 57 37 32 38 42 42 39 36 44 44 45 63 74 68 84 86 104 85 93 75 83 103 117 114 117 114 119 115 117 120 115 116 116 113 118 116 115 116 116 116 121 120 120 123 119 121 120 120 122 121 120 124 121 118 119 122 121 121 121 105 83 61 50 48 48 59 64 70 80 83 91 102 96 98 97 91 86 85 78 60 55 53 49 52 58 65 57 46 43 42 46 39 52 42 28 37 33 38 30 33 40 45 40 56 55 66 73 92 106 91 85 104 77 79 110 116 114 115 116 117 119 115 116 115 116 116 117 119 116 113 115 117 118 124 120 121 123 118 121 123 122 119 121 122 121 121 116 120 123 114 89 63 56 48 47 46 47 57 53 53 64 74 77 81 81 98 96 91 84 75 64 52 56 56 50 48 35 34 52 50 42 36 38 39 42 40 31 38 24 27 34 33 44 42 39 46 55 63 68 72 83 84 91 96 97 73 79 118 118 115 116 115 116 117 115 119 116 117 118 116 118 117 113 119 120 121 122 119 122 119 123 120 122 118 120 120 120 117 124 117 97 66 43 48 48 39 41 49 49 53 48 65 73 78 83 85 88 97 90 83 74 67 61 60 53 51 37 47 42 34 34 26 38 45 27 34 34 33 34 32 21 23 28 34 50 40 36 41 44 71 67 80 72 71 91 90 104 88 61 99 124 114 119 113 118 117 116 116 118 114 113 117 112 122 116 115 120 122 119 121 119 121 120 121 118 121 120 120 121 123 111 74 51 43 37 38 38 39 53 54 52 60 54 82 78 87 90 95 103 102 91 80 65 70 63 61 55 46 43 35 40 29 36 41 23 31 38 31 31 36 30 31 25 25 26 41 48 39 32 32 45 63 74 71 80 69 80 84 94 106 81 68 108 116 120 116 118 115 117 116 112 107 110 114 113 118 117 114 120 124 121 121 121 122 118 117 123 115 119 119 123 112 68 45 36 40 46 35 42 44 61 59 60 59 65 79 82 96 115 111 93 86 73 76 65 63 69 55 51 53 56 42 36 35 29 33 41 28 38 31 31 38 32 33 24 24 22 50 47 39 27 39 39 52 63 61 73 71 77 89 79 94 107 74 85 104 120 123 113 116 110 107 102 101 115 114 112 113 117 115 120 123 120 122 120 119 120 115 120 116 116 124 112 74 41 47 39 43 51 49 47 49 52 45 52 65 65 85 102 117 105 92 81 67 53 46 34 29 27 27 36 34 35 41 44 42 38 33 41 39 37 40 37 42 37 31 31 22 32 48 40 33 28 40 35 47 57 64 72 76 76 83 77 81 91 88 73 85 95 97 96 90 93 98 108 111 112 116 114 119 113 119 122 119 119 121 119 118 122 117 117 118 119 116 81 47 41 36 40 32 44 52 50 48 50 47 58 67 86 95 90 82 74 68 59 45 39 32 31 31 33 29 35 33 35 38 41 49 48 52 50 48 48 43 48 51 44 31 30 28 40 49 35 33 34 41 41 44 58 68 74 87 84 85 88 84 78 84 83 70 76 83 92 103 105 111 115 115 117 115 119 115 115 118 122 119 117 122 118 117 119 114 119 117 108 77 44 37 36 34 33 35 39 52 47 45 49 47 67 78 82 67 68 77 68 52 45 48 50 50 52 45 41 36 45 44 47 55 52 63 70 73 73 61 58 53 57 53 47 48 32 37 50 43 41 37 42 36 45 49 65 67 82 82 88 77 81 75 76 70 78 77 87 85 95 103 102 103 111 120 116 119 114 120 115 116 119 121 117 119 116 118 117 114 119 104 69 53 38 35 31 38 35 42 42 43 44 38 41 59 59 63 66 81 85 84 68 69 77 80 71 63 64 55 55 50 51 59 64 72 79 88 97 89 90 91 77 69 63 71 65 61 44 50 51 41 42 45 42 39 44 43 56 58 69 61 72 83 78 79 82 75 76 77 82 83 80 89 93 99 96 107 120 119 115 115 116 119 117 122 119 121 118 116 115 117 108 71 36 43 33 32 34 44 43 43 44 32 34 33 37 46 54 67 77 107 94 88 92 101 96 78 70 71 70 55 62 69 64 79 90 88 99 110 106 98 102 110 99 81 78 91 78 69 59 64 59 57 54 53 49 44 48 44 46 55 54 41 62 69 75 77 85 79 77 78 76 72 67 70 58 80 83 86 107 114 118 114 118 118 118 116 121 115 117 115 118 106 71 36 39 48 41 42 45 40 46 37 34 26 28 35 41 47 57 70 71 79 76 90 96 82 69 63 64 59 58 69 74 80 84 98 117 115 127 129 119 113 117 117 119 103 103 107 95 75 79 74 68 69 60 55 55 55 59 50 59 54 52 63 61 70 68 62 75 79 71 68 67 76 78 71 80 71 58 63 67 81 101 114 117 115 119 117 117 115 118 112 114 82 43 35 29 37 43 48 42 39 32 30 32 32 36 42 39 45 55 55 58 64 74 78 73 72 66 64 69 78 91 102 96 101 118 132 130 137 145 142 130 135 133 127 125 118 129 125 109 87 90 97 85 78 75 69 71 70 69 66 71 57 51 53 55 69 74 70 63 73 68 74 70 68 70 79 76 82 73 63 77 88 76 74 100 112 117 115 117 113 116 110 88 42 38 33 36 38 44 49 35 24 26 30 34 30 29 37 38 44 51 62 69 66 77 76 76 78 78 91 102 115 119 124 129 133 144 152 148 150 151 147 150 158 153 152 146 133 146 142 126 123 112 105 108 106 96 98 98 97 87 83 86 79 68 45 38 44 49 62 61 64 65 71 72 69 60 72 76 69 67 76 72 99 115 94 106 108 116 117 112 109 113 100 52 32 31 35 32 27 35 38 23 28 31 30 30 26 33 36 39 54 61 54 65 61 64 61 84 106 109 120 131 135 136 140 148 157 158 156 154 157 162 162 167 167 171 161 167 160 156 158 153 151 140 135 138 132 134 122 120 114 117 99 102 97 87 72 46 30 31 30 39 49 60 68 84 74 62 69 72 80 78 69 68 67 109 114 114 116 115 115 112 109 106 85 45 29 32 28 30 29 37 35 27 31 28 32 31 35 35 43 44 51 49 55 65 70 63 77 112 130 130 137 141 144 150 158 159 165 163 165 162 170 171 174 172 176 176 170 173 167 174 173 169 164 164 163 156 158 156 147 139 131 131 120 119 102 100 85 70 54 43 24 22 32 48 53 68 76 61 68 70 88 89 87 65 60 82 105 116 116 111 112 107 106 82 49 34 31 34 33 35 31 37 34 34 29 34 30 37 33 47 40 45 59 59 70 79 83 85 112 138 136 141 145 149 158 164 172 172 177 176 174 175 178 182 182 185 181 182 180 176 175 175 182 177 176 170 169 163 167 166 159 155 152 139 139 132 122 110 104 88 58 54 48 44 29 29 45 60 60 65 51 55 79 98 99 88 60 73 102 101 115 112 109 109 77 46 40 30 33 36 40 37 34 38 38 35 37 39 32 37 42 43 52 58 61 75 80 102 92 110 131 145 145 147 158 164 171 174 181 180 185 186 183 184 187 190 188 190 187 185 184 185 182 179 182 180 181 179 173 170 171 170 170 164 161 157 153 149 139 127 115 102 83 55 45 50 52 48 47 54 62 54 54 38 60 94 103 95 79 64 100 105 109 109 111 101 63 33 43 31 36 39 33 38 38 45 47 39 37 37 40 38 42 49 58 63 68 86 109 113 108 133 146 149 152 159 169 177 178 183 183 188 186 186 190 189 193 191 191 190 190 188 188 192 189 186 187 185 185 185 180 172 174 171 174 173 167 162 161 158 155 145 128 110 94 64 40 41 50 54 64 72 72 57 46 53 38 76 96 97 83 65 74 115 109 107 105 85 48 31 36 31 34 36 36 34 37 42 45 40 33 39 41 38 49 59 68 69 79 115 118 112 132 148 156 158 161 169 183 184 189 188 189 193 189 193 194 196 193 196 191 191 190 193 193 191 194 190 187 188 188 183 187 182 180 178 178 173 171 166 160 163 163 158 146 130 104 104 52 21 29 30 38 60 84 70 60 66 54 47 79 100 104 97 67 95 116 105 99 59 36 31 31 31 30 31 40 33 34 39 50 41 41 38 46 51 60 63 69 81 103 123 117 123 146 161 164 160 168 185 188 193 192 192 194 196 193 195 197 195 197 192 192 194 192 194 193 192 194 192 191 191 190 189 189 183 185 185 180 179 177 173 166 165 165 164 157 143 119 112 90 43 16 30 29 30 69 63 51 49 64 38 58 102 106 102 94 95 121 105 89 42 32 29 26 31 23 30 30 32 38 45 45 45 46 51 47 63 64 70 76 101 123 125 131 149 166 173 175 173 186 193 198 198 200 198 197 201 200 199 196 197 199 194 194 199 199 194 190 191 194 193 194 193 190 192 194 185 188 188 183 183 186 179 171 169 169 165 162 154 136 118 115 72 32 28 28 28 45 72 54 40 37 43 38 84 101 101 104 108 116 99 69 42 31 26 27 31 22 27 23 27 37 47 43 46 47 50 55 56 68 85 103 127 141 137 160 173 180 181 184 186 194 199 201 202 199 201 200 200 200 200 198 197 198 198 196 198 200 198 189 191 194 197 195 196 193 193 193 192 191 191 184 184 185 183 180 176 174 170 170 157 148 124 123 112 55 32 34 31 35 64 64 43 38 40 26 54 95 103 108 112 116 80 50 38 30 26 24 27 30 24 28 32 40 42 48 45 50 54 63 77 91 105 130 150 145 154 182 184 183 182 186 191 196 200 202 202 200 201 202 201 202 200 200 199 200 198 196 198 198 199 197 194 196 198 198 196 193 195 194 193 193 192 189 186 186 183 183 187 183 176 176 170 148 132 128 127 88 44 33 38 39 48 67 52 38 33 31 34 70 105 111 113 112 46 33 31 28 24 21 24 24 28 33 35 40 45 52 51 62 77 96 104 116 132 158 153 153 180 186 185 184 183 189 193 194 198 203 203 202 203 202 201 201 199 199 200 198 197 199 195 196 197 198 196 197 196 196 195 193 196 194 192 194 194 191 187 185 184 184 186 188 185 180 179 160 138 131 134 115 71 34 37 52 37 53 60 39 27 35 28 36 96 112 118 116 30 32 26 26 26 27 24 28 30 37 40 42 51 48 62 77 101 120 123 134 149 165 151 174 186 186 189 189 185 192 195 195 198 202 204 202 203 202 201 200 200 201 200 201 199 196 195 197 199 198 197 198 194 193 194 196 195 192 193 194 193 190 190 185 185 185 189 185 185 187 180 170 150 133 133 121 91 49 33 52 58 45 60 47 30 29 34 20 83 107 117 117 29 30 21 28 28 25 24 25 37 41 37 42 55 53 77 109 120 135 142 145 159 157 163 183 185 186 192 189 186 192 193 199 198 201 202 204 201 202 201 200 200 200 201 201 199 198 198 199 198 200 199 197 196 198 193 194 196 193 191 193 193 192 191 187 190 184 188 186 185 184 184 170 160 138 133 129 104 60 42 45 63 53 49 43 38 32 29 26 56 114 110 117 30 33 26 31 27 29 30 35 37 36 40 50 69 82 103 124 138 144 154 149 152 160 175 182 186 191 192 188 191 191 194 195 198 200 202 203 201 199 201 199 200 198 200 200 197 197 199 197 198 198 198 195 198 198 193 192 195 195 192 196 193 191 189 189 189 188 191 188 187 183 184 180 164 143 141 129 118 81 43 42 53 71 55 42 32 32 31 23 26 102 118 114 34 32 31 30 30 32 32 36 49 50 53 67 80 93 110 129 143 152 155 152 158 166 178 182 187 191 192 190 191 190 193 194 198 199 201 202 199 198 201 198 200 199 199 198 199 197 200 198 197 197 197 195 197 198 194 195 194 195 192 194 191 190 191 188 191 187 190 192 188 184 183 180 168 151 141 134 124 100 58 44 50 75 73 44 28 28 32 29 15 57 124 117 36 34 34 31 30 32 28 42 57 67 59 80 75 99 108 127 145 154 158 156 164 172 180 184 184 191 192 189 192 193 192 195 196 197 198 198 199 197 199 199 197 198 198 198 200 196 202 200 197 198 194 193 195 194 197 192 196 194 192 192 192 190 192 191 191 190 190 189 189 184 184 177 168 154 145 137 133 103 81 51 50 72 93 57 29 33 26 30 27 31 102 117 39 33 35 29 28 34 33 44 65 72 75 67 74 94 108 127 144 154 154 157 170 168 181 182 189 190 191 191 192 194 194 193 196 200 199 198 199 197 197 199 198 198 200 200 198 197 199 199 198 196 194 193 193 195 195 195 193 192 192 193 194 189 191 193 188 190 190 187 188 185 182 176 169 154 148 141 142 113 81 79 53 65 92 90 30 34 27 33 32 28 102 117 36 40 32 29 29 35 30 56 65 73 72 54 66 93 106 131 146 158 154 159 171 171 178 187 187 192 189 192 192 192 193 193 197 198 198 200 200 199 197 199 199 198 199 198 199 198 200 200 200 198 198 195 195 195 193 195 194 193 193 194 196 189 193 192 192 190 191 189 190 186 181 175 171 161 149 142 142 127 86 82 70 59 87 102 49 34 36 29 39 20 94 116 38 33 30 27 35 27 47 59 57 74 51 50 67 84 122 136 148 160 161 160 167 174 178 186 189 187 190 191 191 193 194 194 196 198 200 200 202 197 200 200 197 198 200 200 199 197 199 198 201 197 200 197 197 195 197 192 197 194 195 191 193 192 192 195 192 191 190 191 189 189 180 179 170 160 152 144 146 132 98 71 88 59 73 104 62 37 46 25 61 32 82 123 34 27 30 32 32 23 56 58 57 64 43 51 63 90 127 146 145 158 161 162 168 175 178 187 187 186 189 190 191 193 194 193 197 196 200 199 201 200 200 202 200 198 200 202 200 197 200 198 202 199 201 197 199 197 199 197 196 196 195 193 193 194 193 193 192 193 191 189 191 189 180 179 172 160 152 148 143 141 112 65 82 76 77 82 73 44 45 32 78 61 79 117 33 31 24 38 30 25 61 52 54 46 47 51 69 102 134 156 147 152 160 159 167 176 178 187 186 191 189 189 193 193 194 190 196 200 199 199 200 200 199 201 199 199 200 201 200 197 201 199 201 201 198 201 198 200 199 198 196 196 193 195 194 192 191 194 193 193 191 191 189 190 184 180 170 165 153 149 146 141 126 69 64 90 77 76 68 60 37 28 73 85 91 115 35 29 31 36 25 37 61 51 50 36 51 49 76 116 141 149 151 156 161 164 169 176 182 184 186 191 191 192 194 191 195 190 194 196 200 197 199 201 200 201 199 200 201 202 197 198 201 201 200 201 200 199 199 201 199 198 197 194 193 196 195 192 192 192 192 193 191 192 190 187 187 179 172 164 153 157 143 139 137 92 56 85 80 70 59 57 45 26 59 104 111 114 31 34 36 34 33 43 56 51 44 37 48 53 92 133 144 152 152 160 163 164 168 175 181 186 185 191 193 194 193 193 193 192 192 194 196 197 201 200 200 200 199 200 201 201 200 199 200 201 200 202 201 199 199 199 199 196 198 194 195 192 194 191 190 188 191 191 193 193 191 187 189 180 172 166 156 153 147 142 139 110 58 79 82 71 46 57 44 24 58 107 115 111 23 34 48 45 34 50 48 49 40 41 42 63 116 140 150 154 157 158 168 161 169 172 178 182 188 192 193 196 194 196 197 191 194 196 192 198 198 200 197 199 201 197 204 200 200 201 202 200 202 201 200 200 199 199 198 198 197 194 192 191 192 193 191 188 187 184 193 192 188 179 178 175 169 168 163 152 151 143 141 124 69 70 77 73 45 55 58 17 49 115 116 110 31 39 54 37 36 54 48 45 48 35 41 87 126 142 149 157 158 159 166 166 168 175 180 182 182 188 192 195 191 197 195 192 196 196 191 194 199 196 197 198 197 199 201 200 202 201 200 202 200 201 197 199 197 200 195 197 194 192 192 190 189 191 189 182 182 169 175 183 176 167 161 161 159 156 160 152 149 143 141 125 93 65 68 64 57 48 47 32 49 112 113 110 62 34 52 38 44 52 54 52 32 39 53 101 133 144 151 155 164 155 166 162 167 178 178 184 174 173 179 184 185 188 191 189 190 190 188 190 196 191 193 196 192 195 199 197 199 198 198 200 200 198 196 195 197 200 196 195 189 188 185 179 167 168 157 158 159 156 151 154 144 151 145 151 153 154 141 145 147 143 135 133 110 65 59 65 50 52 37 32 81 107 115 111 97 38 49 43 59 54 49 53 35 41 71 114 135 147 152 155 160 160 165 168 168 167 176 175 163 162 164 163 166 166 165 161 166 164 161 170 178 180 182 187 192 190 187 191 195 198 194 195 197 193 196 192 197 194 186 187 180 176 159 151 132 121 118 123 121 117 125 139 129 130 133 146 147 153 141 133 144 143 139 134 120 70 53 54 49 49 46 43 100 113 112 115 132 60 52 45 72 54 45 49 36 51 88 123 135 143 154 154 158 159 162 164 167 156 167 169 160 167 161 157 157 142 137 138 136 134 116 131 136 144 166 170 179 181 183 187 192 193 194 193 192 194 190 188 189 189 178 172 165 156 136 122 105 92 96 98 95 100 110 127 125 127 129 147 149 152 142 139 140 140 140 135 128 87 48 47 38 55 48 48 107 114 111 116 106 87 83 56 63 55 43 56 33 53 100 133 135 143 151 156 159 155 154 154 147 157 164 162 156 154 154 145 143 125 121 111 112 106 92 90 103 110 125 141 156 167 164 181 187 189 192 192 193 193 187 183 179 175 174 154 148 141 120 103 90 80 86 81 78 99 117 141 137 142 143 147 151 151 145 136 133 136 135 135 125 105 58 41 37 59 53 48 96 116 113 111 66 99 119 90 64 57 42 50 35 61 115 134 138 144 148 154 156 160 152 156 149 158 166 159 152 145 137 132 124 107 100 101 84 81 83 79 87 95 102 121 134 151 155 167 185 187 193 192 192 192 188 185 175 166 164 144 139 124 110 108 111 113 115 123 132 140 156 162 159 153 157 150 149 144 149 143 140 128 130 135 128 121 69 35 55 74 58 76 102 110 112 116 78 70 133 102 93 59 46 38 43 63 124 136 144 146 147 151 155 153 149 149 153 150 157 158 155 152 146 149 155 142 137 135 120 117 117 116 116 115 109 113 127 140 151 163 175 187 192 193 193 191 185 184 170 168 161 140 132 119 116 125 135 141 148 154 159 163 159 161 160 159 158 151 149 139 141 133 139 131 132 134 133 133 81 42 88 86 66 88 111 109 112 113 132 95 101 106 122 103 68 40 45 67 123 143 145 152 143 145 141 140 143 149 152 150 152 156 160 159 155 167 168 166 170 164 163 152 144 136 129 125 121 123 121 129 144 153 169 177 191 194 194 194 187 179 167 157 145 127 115 116 127 136 134 141 147 148 158 156 165 160 158 156 157 141 132 131 136 132 143 140 134 136 139 141 90 86 124 81 76 113 110 107 113 110 152 148 90 108 139 130 99 64 50 52 127 142 148 155 149 144 135 139 138 144 145 146 146 146 157 153 159 161 163 155 155 146 139 130 125 118 113 117 118 120 116 119 131 148 161 173 189 194 199 196 188 183 165 152 127 115 118 127 123 113 113 115 116 129 129 139 132 134 133 129 135 136 133 127 134 134 137 144 138 137 143 139 107 114 126 74 81 137 101 107 111 110 162 175 132 82 133 149 128 100 66 59 114 144 151 153 153 147 142 142 143 141 142 143 134 140 138 131 130 136 142 152 157 161 153 139 135 127 116 105 104 110 110 111 110 130 154 172 187 196 199 198 195 182 161 138 115 119 121 112 97 99 114 111 124 138 144 160 151 148 143 142 131 112 109 123 136 135 140 145 139 143 145 143 119 116 128 101 94 138 110 108 109 115 168 171 171 121 92 145 152 116 90 99 123 140 154 157 156 149 150 145 148 141 135 135 130 118 115 132 140 153 155 154 159 166 154 142 136 122 121 108 100 109 108 108 105 114 148 169 188 195 202 200 196 189 156 124 116 117 109 98 101 109 112 113 112 126 132 128 106 116 118 135 132 118 113 120 130 135 144 147 138 146 150 142 127 111 135 116 98 141 97 105 111 114 166 171 176 177 102 117 149 129 91 120 130 143 155 159 157 152 154 152 151 147 132 132 125 116 128 137 142 138 136 125 109 123 132 107 117 124 115 114 106 106 109 105 113 111 133 161 186 198 202 203 198 197 159 119 116 111 107 100 102 103 111 110 86 55 67 116 28 47 71 91 99 112 110 125 139 134 145 149 140 146 149 142 125 115 143 124 101 139 100 108 108 113 165 176 177 182 173 105 132 134 98 122 136 144 152 161 163 158 161 152 155 151 145 131 126 116 111 112 103 103 91 61 45 42 95 32 46 83 102 106 104 116 129 111 118 124 135 149 185 194 199 201 201 201 165 113 113 129 113 100 99 94 103 132 83 58 46 33 45 41 69 103 71 82 103 108 127 135 140 147 143 147 151 143 130 115 144 129 117 143 96 106 108 108 157 172 171 159 163 80 118 126 105 120 137 147 154 162 166 165 167 164 160 154 141 128 118 108 100 103 93 99 110 70 53 63 46 58 65 118 128 103 95 114 144 138 123 137 147 140 179 188 200 201 195 201 168 110 120 145 123 109 120 105 124 167 126 76 73 42 64 62 116 125 101 98 113 107 110 122 142 148 144 151 147 146 133 105 133 127 128 144 90 108 105 108 166 169 163 141 133 80 81 120 108 126 130 143 153 165 169 167 170 169 163 146 138 127 136 128 117 128 129 125 150 133 69 67 70 78 88 144 146 111 123 134 123 154 149 142 147 135 168 186 196 197 192 192 178 110 128 145 122 128 137 125 141 162 158 125 108 83 100 119 141 134 121 119 130 135 129 126 134 141 145 144 152 147 137 106 133 129 141 133 97 106 104 113 169 167 160 142 148 133 62 107 112 125 128 136 150 163 168 164 172 162 161 146 148 159 162 154 142 138 143 152 155 171 144 133 131 127 136 145 146 130 135 157 159 158 154 150 151 138 160 176 192 191 192 188 179 131 125 143 151 145 139 142 139 142 137 151 149 139 139 132 128 138 139 140 143 149 153 153 141 145 149 142 149 142 138 107 127 138 140 137 95 103 109 110 167 169 150 144 153 149 86 99 110 120 131 135 144 160 171 169 171 162 165 167 169 162 163 167 161 159 163 155 147 133 143 140 140 138 139 138 141 134 137 155 161 151 155 159 150 132 156 176 187 188 188 187 182 146 125 132 148 148 139 137 134 132 137 145 154 151 154 142 141 148 148 152 153 156 163 167 165 158 156 151 144 141 134 106 125 143 141 127 94 105 106 108 167 174 156 161 169 164 130 123 103 119 130 136 140 155 169 173 167 168 178 186 185 172 160 168 169 171 177 170 169 165 165 165 155 151 146 137 144 138 141 151 151 158 166 169 146 134 160 179 189 186 183 187 187 152 132 137 144 161 153 140 137 132 132 141 149 150 150 146 145 153 153 157 159 166 171 174 178 174 162 157 145 138 133 107 132 157 140 126 94 105 103 111 169 177 166 165 180 187 167 142 96 111 129 130 134 154 165 167 170 176 183 190 185 183 172 164 171 171 170 176 175 171 173 170 164 154 150 149 147 149 156 157 157 174 173 165 141 139 158 175 188 187 185 185 185 163 135 145 143 155 164 161 155 153 147 150 150 151 155 157 159 165 168 173 168 170 173 181 181 180 175 158 146 136 132 102 136 159 138 132 90 102 104 104 163 180 169 169 179 182 166 145 96 111 124 132 137 155 162 165 174 177 188 190 191 185 181 176 178 180 181 179 180 177 175 178 170 160 160 164 161 164 169 167 176 183 171 157 143 144 155 173 183 190 184 180 188 171 144 144 153 155 162 170 168 162 165 164 170 169 177 177 175 176 179 183 182 172 175 185 184 188 183 164 145 137 127 102 138 152 140 121 90 105 101 105 158 186 188 164 179 163 149 149 97 106 123 132 135 147 160 168 176 181 189 190 192 185 184 183 184 183 183 184 185 179 184 183 181 174 172 174 185 179 182 184 185 177 167 150 148 147 159 170 180 188 186 181 183 174 149 144 151 172 172 174 179 171 166 168 171 173 171 180 179 179 181 182 185 182 182 186 188 185 179 166 150 129 122 106 136 141 139 132 79 101 105 103 169 191 192 166 159 146 146 145 99 101 123 129 129 139 154 167 176 186 190 190 193 189 188 185 186 187 184 184 183 175 179 180 178 177 182 184 191 188 188 189 183 175 157 149 149 151 160 177 182 192 186 183 184 172 154 146 143 167 176 184 187 186 185 179 175 173 173 176 179 184 184 187 186 189 186 185 185 185 177 167 151 128 120 101 143 137 145 117 90 98 103 99 167 197 184 173 160 139 133 139 99 99 117 123 130 133 150 164 168 184 188 191 193 195 192 191 188 189 190 190 184 183 182 184 185 189 196 184 194 192 189 179 183 167 156 149 146 159 167 179 190 192 192 187 188 181 156 148 146 155 173 184 187 194 192 191 192 184 188 181 186 189 187 190 186 191 188 183 186 184 172 171 148 128 121 95 140 137 146 103 93 93 99 101 148 186 186 167 175 167 139 135 99 92 116 121 126 132 142 158 166 177 185 190 192 192 192 195 191 191 193 195 192 191 189 194 195 199 198 186 193 193 186 182 174 162 147 145 150 164 172 178 191 194 194 192 185 188 167 151 145 148 165 183 189 193 194 195 194 190 196 183 184 192 193 188 188 188 186 188 187 182 177 165 148 128 113 103 128 121 153 97 92 99 100 101 151 167 159 156 186 188 156 129 101 91 113 117 128 128 141 150 161 173 180 189 192 189 192 193 193 191 197 196 194 193 193 195 198 197 194 195 197 188 184 178 172 162 139 144 154 161 176 178 188 195 193 189 190 188 176 158 145 140 155 177 186 191 193 194 192 192 194 194 191 190 193 188 190 191 185 188 187 178 169 163 144 132 115 101 138 126 161 84 99 92 100 99 176 171 146 137 187 191 190 140 97 93 104 112 124 130 132 146 152 167 177 185 185 185 194 194 194 193 196 198 195 196 198 197 199 197 198 197 196 186 186 176 164 148 136 141 159 165 180 180 191 197 194 184 190 192 176 161 147 142 139 167 186 185 192 194 192 194 194 195 193 193 194 187 189 192 185 178 185 172 162 157 141 124 114 106 134 140 146 91 89 96 97 98 191 183 163 136 173 169 178 136 98 96 100 109 123 131 134 140 148 160 171 178 181 181 190 191 191 195 193 199 198 197 200 198 198 198 199 194 195 183 177 177 149 134 143 147 156 165 176 183 190 204 196 192 188 187 175 162 146 148 137 157 181 180 183 194 194 193 193 193 192 192 191 188 189 188 185 175 174 164 160 151 138 132 107 105 134 142 138 77 95 94 96 95 184 181 178 153 163 168 161 129 88 99 97 104 115 136 132 137 146 150 162 172 178 180 186 189 191 193 194 195 196 200 201 200 198 200 198 192 187 180 176 173 136 136 151 152 151 163 166 180 194 200 200 195 191 187 166 153 148 149 148 149 174 181 181 190 193 191 194 190 194 193 190 188 188 188 178 171 164 163 155 143 138 131 105 111 140 144 115 83 90 94 95 97 129 172 178 180 179 179 175 151 107 94 97 98 112 129 136 141 146 154 159 167 175 175 179 185 187 192 193 193 198 199 198 199 197 195 194 188 185 180 182 166 135 149 152 154 149 147 159 167 185 193 202 195 183 174 155 142 143 148 149 144 170 178 182 186 189 188 189 188 191 193 191 186 178 182 171 167 161 160 153 141 135 130 101 122 153 142 98 84 92 92 97 92 70 129 173 178 186 185 186 164 130 89 95 93 103 129 140 138 149 155 159 161 171 173 175 186 182 193 190 194 196 195 195 197 192 194 192 187 182 182 175 151 140 152 148 139 137 133 141 153 175 184 185 183 170 154 136 135 130 143 152 136 160 175 183 183 185 187 185 186 188 192 186 182 180 174 167 162 159 157 150 140 135 130 98 129 142 126 85 89 91 93 91 97 74 73 129 160 169 171 181 174 138 91 94 96 99 124 135 139 148 150 160 160 166 171 170 183 183 188 188 188 191 192 193 195 189 189 187 187 185 187 171 133 144 158 135 99 104 112 123 135 149 166 171 165 145 128 110 102 109 135 151 139 143 177 183 185 184 183 184 185 182 190 185 176 177 171 166 161 156 149 147 135 137 128 100 128 125 102 80 91 92 90 94 93 76 72 75 106 139 147 161 157 136 100 86 94 98 121 133 136 146 146 154 163 163 170 176 173 177 181 187 187 190 190 192 191 190 190 185 190 186 188 163 117 145 143 113 54 28 47 94 121 134 144 145 137 125 93 58 32 58 133 146 135 148 175 181 183 186 180 185 179 185 183 183 178 173 169 164 163 155 147 142 134 132 126 98 108 97 81 90 88 93 90 94 91 83 73 72 73 88 106 124 130 109 103 91 94 97 116 132 139 147 147 150 154 162 162 172 169 172 175 184 184 188 191 191 187 189 190 188 190 189 189 150 111 136 134 106 80 37 27 51 86 118 123 124 121 106 53 52 61 68 109 142 132 131 171 179 180 183 183 183 176 178 182 178 181 178 164 163 161 156 147 142 128 130 125 99 73 88 80 89 91 93 92 92 91 81 76 76 78 76 72 79 84 80 72 88 99 91 106 129 139 146 145 149 154 160 158 160 168 166 174 180 183 184 186 191 186 184 190 189 187 195 187 147 105 126 136 124 133 79 75 101 70 92 110 107 109 115 89 83 110 109 105 131 128 132 160 179 181 183 181 184 178 175 180 182 179 175 164 158 156 148 146 138 129 124 126 95 72 87 84 87 93 88 87 94 94 82 76 77 77 77 81 74 84 76 73 85 100 94 99 125 135 146 145 148 155 155 160 155 164 166 171 175 185 181 186 188 186 183 187 186 184 186 185 162 107 105 137 138 143 136 125 136 115 94 100 108 118 139 130 128 143 137 120 124 114 140 160 172 185 179 182 182 180 178 179 179 174 171 158 160 148 152 147 135 128 124 128 85 76 84 86 87 92 89 91 89 92 77 80 77 74 83 76 77 80 80 72 82 91 98 104 112 133 139 142 148 149 150 155 159 158 170 167 179 182 179 185 184 185 182 187 183 175 176 177 174 132 89 108 123 117 137 152 148 144 125 126 123 140 148 145 147 144 140 126 111 117 147 155 168 180 176 183 180 177 180 171 171 166 168 161 155 154 150 142 137 125 127 112 87 74 86 88 85 87 90 93 91 91 80 73 78 79 78 74 83 72 78 79 73 88 100 101 113 122 134 136 141 148 146 153 156 156 166 162 173 172 175 182 187 182 184 183 182 178 186 180 180 165 127 102 100 98 108 145 155 157 145 138 139 147 149 132 128 119 110 105 109 139 156 157 163 176 175 181 176 177 178 167 170 163 159 164 158 157 154 141 131 126 118 116 73 77 83 88 87 87 92 85 94 92 76 76 77 80 74 77 80 75 77 82 74 83 100 99 107 122 127 135 136 143 142 148 150 153 164 163 164 167 171 175 182 181 183 183 180 183 185 178 175 172 164 143 136 142 110 138 160 156 151 138 140 150 148 135 132 123 121 136 134 146 160 162 161 175 178 175 177 177 173 165 165 163 156 161 161 148 148 143 129 120 117 110 76 78 83 92 87 92 87 88 92 92 78 76 74 79 77 77 77 77 74 84 71 82 97 100 107 117 122 129 136 141 142 143 151 151 161 165 163 167 174 169 176 179 179 183 181 183 183 180 171 169 171 163 160 170 141 139 161 162 158 141 145 152 149 140 143 138 141 145 151 148 159 158 157 173 174 176 176 174 169 166 166 160 153 160 155 145 146 143 125 124 116 108 77 80 87 85 84 92 89 92 90 94 79 76 76 80 74 76 78 77 77 80 71 77 92 102 104 107 119 123 130 143 142 142 150 148 160 160 161 168 169 174 173 178 176 181 179 181 181 180 178 168 168 164 149 161 145 150 170 175 158 146 150 157 153 143 148 139 145 149 153 157 163 159 155 167 171 173 171 167 161 162 166 154 152 158 153 150 143 135 130 122 114 106 72 79 89 86 85 86 90 92 87 89 76 74 76 79 80 74 77 78 76 79 81 74 82 106 104 105 112 123 130 138 152 141 147 151 156 163 160 169 161 169 172 173 174 178 173 175 178 174 176 166 170 166 154 150 154 154 176 176 154 157 155 166 163 154 151 141 146 150 154 158 157 163 160 164 167 162 171 163 149 163 161 153 153 158 152 149 141 136 126 118 115 99 79 81 86 88 87 90 86 88 90 89 74 76 78 73 76 76 77 78 76 79 74 71 84 94 112 107 113 116 123 137 146 148 146 154 156 160 159 166 160 165 165 167 167 170 165 170 173 170 163 165 164 166 161 161 161 161 176 180 161 168 164 172 174 161 153 154 154 152 151 160 161 158 151 164 157 168 167 165 156 162 160 152 150 154 149 144 141 130 123 120 110 102 72 84 86 86 89 88 91 88 88 90 77 77 74 77 75 74 74 78 80 75 79 73 76 92 105 112 113 115 123 134 141 149 151 147 156 158 154 161 164 159 163 166 158 170 167 168 166 164 161 158 162 166 165 166 165 172 184 179 173 183 178 179 179 169 157 158 159 158 150 165 158 154 152 163 159 163 157 154 160 154 153 148 151 152 144 144 136 127 124 116 114 92 72 87 83 89 87 89 88 89 92 84 80 75 79 81 77 74 77 78 79 75 77 78 73 89 100 110 113 119 125 138 138 143 149 150 154 152 156 158 162 153 159 156 158 165 159 164 158 158 161 160 164 166 163 163 170 175 193 185 174 181 186 183 187 185 174 163 164 154 160 162 153 160 158 164 155 158 147 153 153 145 143 146 152 150 144 136 139 128 117 116 112 84 78 83 86 83 86 89 88 89 88 90 79 75 78 79 78 77 75 80 77 77 77 80 77 84 99 111 115 117 123 137 134 139 144 150 151 150 151 157 153 147 160 148 153 156 151 154 152 151 164 167 162 171 176 173 178 172 172 175 185 192 189 184 172 183 180 177 172 166 167 159 157 158 149 156 153 153 147 142 140 141 147 148 146 146 143 136 139 128 116 116 105 82 81 82 85 88 84 89 87 91 87 92 77 80 74 76 79 72 75 84 75 77 77 80 74 81 84 109 112 120 121 136 135 137 146 144 149 148 154 148 147 142 152 148 146 146 147 150 146 150 159 165 164 168 170 155 130 107 100 101 135 151 141 114 101 116 138 152 173 172 170 163 159 151 150 152 147 145 143 135 132 133 139 143 142 147 138 136 132 122 119 112 103 72 88 81 90 88 89 87 87 89 91 89 77 76 78 78 74 77 74 74 76 77 76 79 76 74 90 95 112 117 119 133 131 132 143 145 151 147 154 150 143 143 143 133 135 136 137 131 138 141 148 149 143 126 100 90 93 96 99 102 106 115 112 107 108 103 95 87 101 135 152 154 147 146 143 138 139 134 130 124 122 129 133 140 142 141 137 133 128 115 115 113 91 76 83 87 89 86 87 87 87 88 87 91 78 80 76 76 77 75 75 76 77 76 79 80 75 74 80 98 105 118 119 125 126 131 144 146 148 153 148 149 145 142 138 136 125 125 119 110 115 117 112 100 88 89 76 82 91 91 87 97 105 108 102 97 102 102 103 92 81 79 97 110 120 128 123 122 121 123 115 118 120 125 133 139 140 140 137 130 125 116 114 105 87 75 86 84 88 88 86 89 89 89 86 87 80 79 80 75 78 76 80 78 75 76 78 76 81 73 74 87 102 110 123 122 126 129 139 144 148 149 148 151 148 136 136 132 114 107 89 74 73 68 62 60 61 72 64 59 74 64 56 60 78 74 79 75 81 75 76 73 75 79 73 63 72 77 79 88 86 96 102 111 116 120 137 139 135 137 136 126 120 117 110 101 77 80 81 84 86 87 88 88 87 86 87 90 81 79 76 80 74 78 74 81 75 74 79 76 79 78 81 73 95 105 117 121 125 130 132 139 142 152 151 148 148 141 129 123 115 122 115 109 98 84 80 86 96 84 84 90 104 110 104 110 108 92 96 109 102 99 102 97 87 85 79 71 68 87 100 116 113 113 114 112 112 121 139 137 139 135 134 125 119 111 109 91 76 85 82 87 88 85 90 87 88 88 89 93 83 81 78 76 77 76 77 77 80 77 77 76 79 77 73 73 87 100 112 117 123 128 134 138 137 148 148 148 148 144 129 126 132 146 143 143 135 122 110 110 116 112 104 110 118 130 133 154 152 119 136 152 134 125 123 111 102 97 98 111 111 126 142 146 145 135 128 124 127 128 140 135 135 133 129 119 116 111 101 85 75 86 84 87 87 88 88 89 87 87 86 90 85 79 79 82 79 79 79 77 75 75 79 76 78 72 86 69 77 93 105 115 114 127 131 133 139 144 143 148 143 154 140 140 151 159 164 154 151 150 134 138 131 133 123 118 118 116 126 130 123 127 121 130 124 123 113 109 112 116 118 122 134 137 141 140 142 141 137 137 128 133 134 132 129 128 122 116 115 108 89 80 84 85 83 85 88 85 85 93 89 86 87 87 85 81 79 80 78 77 78 77 77 76 76 71 83 76 77 81 66 83 100 109 110 121 130 127 136 139 138 145 147 148 146 149 154 167 168 163 156 152 137 132 131 132 131 138 126 125 124 126 129 128 119 117 118 123 120 124 126 128 126 128 132 137 136 145 141 141 142 142 134 132 129 129 125 121 119 115 110 104 84 76 83 84 87 86 89 83 87 90 89 88 88 87 83 83 82 77 82 76 76 77 76 75 80 75 77 80 78 75 74 71 86 104 113 112 123 121 134 130 136 141 146 145 146 151 151 161 160 163 157 150 138 133 125 115 111 116 116 117 115 110 120 120 107 106 117 122 123 123 119 122 119 126 134 137 136 146 136 142 144 137 128 134 132 125 122 117 117 109 109 93 76 83 87 85 85 86 84 86 86 89 89 90 85 87 86 81 81 79 82 78 75 76 77 82 76 79 74 80 74 77 83 68 77 95 103 116 112 120 126 128 132 136 148 137 134 154 144 153 153 155 157 152 148 143 138 126 110 108 108 105 104 103 89 98 98 90 104 102 108 111 117 117 126 131 142 137 137 137 132 135 134 132 132 134 129 127 118 111 107 110 101 85 76 79 83 83 87 89 87 87 83 91 87 90 83 89 84 84 83 80 80 80 79 77 78 79 75 77 75 80 76 75 75 83 72 79 92 112 114 112 114 123 122 132 139 142 138 150 145 152 153 154 151 149 145 150 144 135 124 124 118 115 113 119 104 108 112 106 111 114 112 120 123 122 128 135 143 134 136 132 134 135 132 130 131 134 123 117 112 109 102 110 90 78 78 82 82 84 84 84 86 83 84 90 83 86 89 86 83 83 84 81 83 79 80 77 77 82 76 79 76 80 78 77 76 87 81 72 77 101 111 113 112 118 120 125 125 143 141 149 147 152 152 147 154 150 138 149 150 147 140 142 136 125 119 118 113 107 119 122 124 124 123 130 131 132 136 136 135 140 134 133 131 130 127 129 123 131 119 112 113 108 107 92 78 75 83 77 84 84 84 85 84 87 85 88 85 85 87 87 84 83 86 80 79 79 80 80 78 81 76 78 75 79 80 73 76 79 93 78 68 86 100 112 116 117 114 124 123 137 139 143 145 149 154 148 152 156 152 161 159 158 159 163 173 164 159 159 156 151 149 165 154 155 147 143 140 143 140 143 142 138 130 127 132 132 129 124 127 123 116 106 111 107 98 86 71 79 78 80 82 83 86 86 85 86 87 85 91 82 88 91 84 85 84 79 84 78 79 80 77 82 72 81 74 78 80 74 76 77 91 93 65 73 89 108 112 113 114 122 125 136 138 141 143 145 145 146 156 156 160 168 169 162 169 178 182 184 184 177 185 178 180 181 177 171 173 163 154 152 146 150 143 135 128 130 131 133 122 120 124 117 111 106 104 100 90 76 75 78 77 80 82 82 84 85 85 86 86 84 83 88 85 89 85 85 82 80 81 78 80 79 79 79 75 80 78 78 73 79 75 76 90 95 81 64 70 88 99 114 112 117 120 121 128 133 131 145 135 139 144 156 152 172 181 170 166 170 180 181 181 184 186 180 182 185 184 180 179 181 172 169 160 160 152 138 136 133 137 128 122 127 116 108 110 107 95 85 93 80 74 79 78 81 81 82 85 82 87 85 86 87 84 84 87 86 84 83 84 81 82 79 78 80 77 78 78 79 75 78 77 79 75 76 95 89 86 71 66 68 88 104 109 117 119 123 125 132 124 141 145 137 146 154 156 158 165 165 157 173 172 181 182 184 184 180 172 176 177 178 175 178 173 159 165 165 158 142 137 137 134 133 124 121 110 108 104 94 81 91 97 73 75 77 82 78 83 83 80 83 84 86 84 86 83 84 86 86 82 84 85 85 79 76 82 78 79 78 80 77 74 77 76 77 73 74 85 93 87 79 67 55 73 80 97 110 112 114 120 124 116 129 145 140 145 149 149 155 154 160 154 171 171 181 182 180 178 176 165 165 173 181 168 169 164 152 151 166 150 140 137 134 130 129 116 115 107 103 96 79 80 101 107 67 73 77 81 81 82 82 83 84 86 86 85 87 87 81 87 86 87 89 77 84 78 82 77 82 78 78 81 76 73 77 76 79 72 70 91 92 87 83 73 56 59 65 72 87 96 107 107 118 119 125 137 139 139 142 139 152 148 149 152 170 181 175 187 179 170 168 170 169 174 174 169 171 165 159 152 145 138 145 133 127 119 117 109 101 95 84 78 78 97 105 105 69 76 76 79 81 85 79 84 82 84 87 84 84 87 86 83 85 88 86 85 77 81 80 79 84 77 77 80 74 73 79 77 74 72 73 83 92 91 83 77 64 57 51 61 70 76 94 99 109 114 116 126 139 137 135 138 135 140 142 146 163 176 166 183 183 175 168 172 172 173 166 166 165 161 151 136 136 139 141 133 124 120 104 98 88 81 76 80 86 100 113 105 67 74 76 79 83 76 81 82 82 82 85 83 83 84 86 82 85 85 85 85 86 78 77 84 78 75 75 75 75 79 76 72 80 72 51 77 96 95 88 81 73 62 51 52 62 70 64 78 92 99 105 112 126 131 133 137 136 137 140 140 149 163 166 163 167 168 159 163 167 163 164 155 154 150 133 128 132 138 141 120 116 105 98 80 70 76 82 87 100 111 115 100 69 77 77 79 80 82 78 81 82 80 84 85 84 83 84 84 84 88 86 86 86 78 79 79 79 80 77 75 76 73 77 84 76 54 17 66 101 91 87 86 75 64 58 52 57 58 60 64 71 78 87 100 113 113 121 125 134 130 129 133 148 146 158 152 148 152 148 151 155 150 148 146 138 144 130 126 127 136 140 107 103 91 71 67 77 81 87 98 107 116 120 88 55 86 79 82 78 82 82 83 82 83 84 83 86 83 83 83 84 88 92 79 85 82 79 80 78 78 77 77 76 73 93 87 53 24 14 83 100 96 91 95 75 72 63 50 61 53 59 58 62 63 63 76 94 100 106 115 120 117 119 122 132 135 143 138 136 134 135 143 148 144 137 139 139 133 117 118 123 118 114 89 87 68 71 75 82 88 96 110 120 114 125 80 17 70 95 78 77 83 86 79 83 82 84 84 85 81 79 84 84 87 85 86 82 83 78 79 77 79 78 74 73 82 107 62 15 21 72 107 90 98 99 96 87 78 70 59 55 57 55 53 60 57 56 58 67 72 85 100 108 105 105 107 116 123 126 122 127 123 125 125 132 129 127 120 121 115 107 110 105 99 80 71 67 71 78 85 89 92 110 116 117 116 122 82 8 36 85 87 69 80 85 80 85 79 84 78 79 83 80 83 81 81 90 83 81 84 79 82 80 80 81 71 76 98 109 31 34 91 106 107 85 94 103 99 98 85 76 65 62 55 57 55 57 57 58 54 59 61 61 72 89 90 92 96 95 110 113 110 107 116 116 117 117 112 113 111 106 103 102 105 94 85 63 67 71 77 80 90 107 106 120 118 121 112 122 73 20 10 77 103 74 76 78 83 83 80 79 84 77 81 81 83 80 84 86 83 82 85 88 91 94 93 90 80 89 117 94 19 98 115 105 109 84 96 105 104 101 93 84 74 68 59 61 59 57 60 57 54 58 56 59 54 57 73 73 79 77 91 95 98 100 106 101 96 101 102 94 90 89 83 82 78 70 60 64 74 76 80 90 103 113 112 124 120 121 115 115 80 16 8 76 96 86 75 79 82 83 79 78 82 81 82 80 79 87 87 82 89 96 104 109 103 107 107 104 97 92 124 77 47 125 109 115 108 88 93 110 111 103 106 88 80 72 66 62 61 65 59 60 59 58 51 57 58 56 59 61 60 65 67 72 72 79 78 77 72 79 75 73 67 61 60 57 56 56 63 75 79 86 92 102 108 124 121 124 119 122 111 109 101 52 4 75 96 93 77 77 80 79 80 79 80 78 83 78 85 76 85 88 105 109 108 107 106 108 106 109 99 87 124 72 84 124 114 119 113 90 90 107 115 115 106 105 90 79 75 68 68 63 58 62 58 57 57 53 60 51 58 56 60 61 59 57 63 65 59 65 55 64 52 60 54 49 52 55 59 62 73 74 90 98 99 107 116 126 123 120 122 121 109 104 104 76 24 61 87 93 91 86 76 85 82 73 82 81 81 82 78 80 