P2
92
112
255
119 121 122 120 121 121 121 123 122 119 118 119 124 119 119 118 123 121 120 121 120 119 112 98 81 70 72 83 89 101 102 95 92 96 88 92 104 110 107 105 117 116 103 99 97 91 79 72 79 68 67 71 68 52 52 57 54 46 52 70 51 45 49 51 47 45 67 76 62 61 56 77 105 104 112 118 118 114 115 115 116 106 116 112 120 117 116 115 120 117 114 121 120 122 122 122 120 122 120 120 124 120 119 122 122 119 121 119 121 122 120 116 106 84 74 68 60 83 96 102 98 88 81 76 79 82 83 93 98 113 126 116 117 105 88 88 89 78 69 71 69 64 74 69 68 57 50 55 47 54 48 47 47 39 46 55 48 50 58 72 61 52 53 61 108 99 117 115 116 111 118 112 111 116 117 113 121 117 114 117 117 117 117 117 122 122 121 125 122 119 122 120 124 120 120 119 124 122 119 121 121 117 103 79 60 60 60 57 81 87 86 69 57 64 73 82 77 87 102 115 109 122 117 102 99 89 79 85 83 62 64 55 55 59 55 77 67 58 38 50 42 44 46 49 44 33 34 50 44 48 59 64 61 54 58 57 90 108 116 114 114 110 112 111 117 117 117 116 114 116 118 118 113 116 113 116 125 121 122 123 123 120 121 120 122 117 121 121 120 122 123 117 107 77 59 53 57 55 54 53 59 46 49 50 51 62 68 73 79 84 99 105 110 105 92 101 92 85 68 62 60 56 44 49 46 36 35 34 41 59 60 29 42 34 40 47 38 32 34 39 37 40 58 67 50 53 64 66 67 102 113 110 110 109 113 114 119 114 118 116 116 115 113 119 116 115 113 115 121 121 122 119 124 120 121 122 121 118 124 116 118 126 114 89 67 52 47 49 53 48 47 43 49 44 44 48 62 55 63 76 76 75 85 97 96 92 88 92 82 86 66 66 57 54 44 48 45 44 47 30 24 23 43 53 35 31 28 43 37 36 30 37 28 38 55 53 42 58 60 71 71 77 101 105 112 111 114 111 113 113 118 118 118 115 113 122 116 114 114 116 121 117 122 122 122 119 123 120 119 121 117 121 123 103 66 45 52 52 43 43 42 42 40 43 47 36 53 45 53 70 67 76 73 80 80 97 91 90 83 69 75 74 67 53 58 66 52 42 35 36 32 34 33 30 21 32 36 37 29 25 35 35 29 28 27 38 44 42 51 54 61 64 79 70 88 102 106 109 113 108 116 111 114 115 113 115 114 119 117 113 115 113 121 121 121 122 120 117 121 122 117 119 125 113 84 49 52 43 41 53 35 37 35 36 36 44 40 47 52 77 66 65 79 86 92 95 91 86 95 101 94 85 76 66 76 62 55 55 48 47 41 35 36 32 29 29 32 30 24 37 37 19 34 34 29 25 33 31 39 42 50 58 55 64 82 78 77 88 93 97 107 110 116 115 112 115 116 113 114 116 115 109 104 108 120 123 119 123 116 119 122 115 123 124 109 67 36 45 43 43 41 37 39 42 29 52 57 39 38 51 58 59 66 79 85 89 93 82 77 90 103 88 78 64 56 50 49 45 41 47 44 47 40 44 45 38 33 31 24 36 31 34 36 20 29 38 28 27 27 27 44 40 49 53 56 63 81 84 73 79 92 86 92 109 109 109 109 113 118 118 113 108 101 98 102 118 121 121 121 118 118 120 116 120 120 107 63 33 45 42 41 56 45 40 38 40 40 48 50 50 53 51 59 63 80 85 79 86 91 101 105 102 92 66 58 46 41 31 28 23 25 32 32 35 38 35 40 43 39 39 37 31 30 42 30 32 34 39 28 24 24 37 31 49 46 41 53 69 67 75 81 78 83 93 89 88 86 92 96 92 88 86 93 84 97 100 113 114 120 121 118 121 117 119 118 122 112 69 37 50 51 37 32 43 43 43 35 32 44 35 54 49 54 60 71 71 78 73 84 99 97 98 81 68 57 42 40 34 32 26 32 36 37 34 42 44 45 51 51 52 50 51 43 44 35 45 37 31 40 40 31 29 26 36 38 46 41 42 55 63 77 80 79 87 78 82 81 80 71 77 84 76 92 84 102 103 111 112 114 117 120 119 120 116 117 118 117 116 73 48 51 49 40 37 34 33 38 33 35 34 40 40 51 53 56 55 60 62 58 76 88 92 81 68 66 60 50 39 40 44 57 48 48 51 47 45 50 63 60 60 79 74 69 67 65 52 55 51 37 48 44 40 26 36 31 41 42 37 43 41 55 61 71 76 75 80 78 76 65 79 76 76 88 75 88 99 99 97 103 121 116 116 115 120 117 117 116 118 106 78 44 50 46 44 41 38 37 30 34 32 46 45 46 52 53 54 51 54 41 56 61 71 88 78 92 77 78 65 63 69 73 70 67 62 60 66 72 59 81 73 74 81 102 102 90 89 79 84 70 50 53 62 52 46 35 38 37 54 43 42 36 37 43 50 50 58 66 69 77 73 68 81 86 72 82 75 70 73 80 84 85 98 115 114 116 116 118 111 116 104 62 44 40 39 31 35 32 29 38 33 41 47 49 52 56 54 39 39 39 37 45 56 64 77 91 91 104 94 88 95 93 85 84 77 76 71 68 69 72 74 95 91 94 113 114 113 103 93 108 109 86 72 67 68 62 51 51 45 49 59 43 40 35 36 41 50 51 51 57 63 69 65 70 65 75 78 74 74 71 68 62 67 61 63 83 101 117 117 114 116 101 62 37 46 36 29 32 39 41 49 39 54 47 45 44 54 60 31 32 37 36 37 56 55 74 82 84 82 85 86 80 83 89 74 61 61 66 66 79 88 100 89 109 123 127 133 133 126 118 117 124 117 104 98 98 92 78 70 64 59 61 55 44 55 48 49 45 45 56 51 59 64 65 64 70 70 71 70 74 70 63 72 75 69 86 65 68 68 114 114 111 107 65 35 43 32 33 27 28 36 31 36 33 61 60 42 43 31 34 37 33 38 44 45 44 56 56 64 66 63 68 75 79 76 71 67 73 79 89 103 110 110 119 114 134 146 142 144 146 137 135 140 137 129 120 125 121 114 98 88 83 73 75 69 64 64 71 65 57 55 51 55 51 41 57 55 63 70 72 69 73 71 68 70 69 70 74 76 69 77 116 114 107 59 36 36 35 32 33 30 30 30 33 38 42 61 43 30 32 31 32 32 34 36 42 36 32 55 57 59 73 72 77 87 72 66 80 86 106 117 126 121 136 131 140 144 155 154 150 156 151 146 154 157 153 152 145 143 141 143 124 115 97 106 108 92 101 87 89 87 84 71 51 59 54 50 45 36 36 45 64 65 70 83 78 72 72 73 67 61 78 70 110 113 68 37 33 29 31 32 30 28 27 22 37 31 33 31 26 27 28 37 28 39 34 38 40 39 47 63 70 66 63 66 72 66 65 93 113 117 136 139 141 142 145 151 156 160 164 160 163 168 160 160 168 169 166 164 162 156 154 160 152 146 138 136 137 133 125 119 108 103 100 89 68 38 49 51 62 40 48 44 45 57 60 67 65 73 81 86 72 72 61 71 107 99 56 33 31 30 32 29 32 29 23 34 33 29 42 39 23 32 34 36 29 37 39 38 39 46 53 58 54 53 59 79 80 67 77 128 132 140 145 141 154 152 155 161 165 169 170 165 167 172 173 170 173 173 169 170 165 166 164 170 165 162 160 151 150 152 148 136 131 125 115 99 96 58 18 44 47 52 41 57 56 53 53 64 64 56 61 102 101 84 74 60 108 78 36 35 26 33 34 31 31 35 32 39 36 34 41 39 36 36 28 35 34 40 34 40 49 56 54 59 64 68 79 100 99 88 115 149 144 152 151 156 160 164 175 175 178 177 175 176 174 179 181 182 183 178 178 174 172 173 171 175 170 173 164 160 159 159 160 156 145 140 138 126 115 101 60 14 33 37 47 42 56 65 72 63 66 60 54 75 105 110 97 59 69 46 38 28 35 30 30 31 40 37 41 37 43 44 56 49 41 35 38 42 43 40 44 48 58 61 61 66 76 91 98 115 110 118 139 156 155 158 161 167 169 174 183 181 182 184 180 182 181 188 185 186 186 183 180 180 181 180 177 182 173 177 173 172 164 162 166 161 161 152 144 147 134 125 103 48 19 25 31 28 41 60 76 77 73 71 60 62 85 112 103 68 36 30 32 34 29 34 34 37 36 42 38 36 44 50 53 63 48 44 43 45 43 38 50 52 57 71 69 78 93 113 121 123 124 136 159 163 160 166 170 175 178 183 184 185 183 185 187 186 187 189 190 187 186 189 187 185 190 187 185 183 183 180 178 180 174 165 164 168 163 159 149 149 147 148 132 95 37 24 25 21 24 36 67 76 71 55 66 68 73 95 98 90 32 31 35 36 25 35 32 36 38 31 39 42 40 43 51 54 56 41 48 47 49 48 55 63 78 82 80 96 107 130 130 124 139 155 170 171 167 171 179 183 186 186 189 190 187 187 192 191 193 193 193 188 190 189 189 189 192 191 189 184 185 185 182 183 181 176 175 170 169 163 154 157 152 150 147 127 100 33 24 20 23 26 43 67 60 46 37 53 53 75 101 96 33 38 35 30 30 31 29 33 34 29 37 42 45 41 51 57 56 45 53 55 46 62 71 86 83 79 95 113 126 141 129 130 153 169 175 175 174 179 190 190 190 189 193 194 193 193 195 192 196 194 191 191 194 190 190 190 189 192 189 190 187 188 189 187 180 182 180 179 172 172 166 161 157 156 146 138 127 78 32 24 24 28 28 57 69 52 29 43 47 55 96 101 35 33 40 28 28 30 26 29 29 26 39 41 36 50 52 52 56 51 59 58 64 74 75 82 78 94 116 132 149 143 144 158 177 181 186 190 187 192 197 195 197 194 195 195 199 198 196 196 195 196 194 192 197 196 193 187 186 193 189 193 191 191 190 193 186 183 184 184 174 176 173 168 163 166 162 145 131 117 75 33 28 30 26 43 58 57 38 35 45 36 76 104 35 35 37 25 26 27 30 28 24 22 35 31 36 43 50 52 48 55 58 55 64 70 78 87 105 121 137 154 164 150 172 183 187 186 192 195 197 200 202 199 200 198 199 198 198 201 199 197 196 195 195 196 193 197 196 188 188 194 194 193 193 192 191 192 189 190 189 183 183 174 175 177 174 172 166 161 147 118 116 63 38 30 35 40 55 59 47 36 30 50 44 93 33 37 32 26 25 30 23 21 29 33 25 41 51 48 49 60 54 61 61 70 81 89 107 112 127 146 158 170 161 174 189 190 191 191 193 197 201 200 200 204 200 197 201 200 199 202 197 197 199 195 195 197 191 194 194 196 193 194 194 197 193 191 192 194 191 189 190 184 184 177 177 174 179 179 172 170 163 127 125 101 49 37 38 44 54 55 52 42 27 43 31 88 30 30 27 24 28 20 27 25 28 25 38 38 48 50 57 62 60 72 87 101 115 122 127 134 152 168 176 161 169 193 191 195 191 190 194 198 200 201 202 204 201 201 202 200 201 199 198 198 198 198 197 195 193 193 194 195 195 194 194 193 193 191 192 192 191 188 191 186 183 177 177 179 176 179 180 171 167 145 125 123 82 40 42 50 60 44 58 39 34 35 18 66 29 33 23 23 25 30 28 28 26 35 39 44 51 46 59 55 70 85 108 122 137 139 148 153 165 184 171 163 189 191 192 194 193 192 196 200 199 202 203 204 201 203 202 201 198 200 198 198 196 199 199 195 194 193 195 197 196 195 194 194 191 193 192 192 187 190 192 190 185 182 179 183 178 176 178 173 167 158 133 122 102 53 46 45 69 53 46 38 38 35 20 39 23 29 22 26 28 28 26 28 29 37 47 36 47 53 66 61 87 112 132 144 148 160 159 155 175 173 161 183 194 192 192 197 194 195 195 201 198 201 201 201 202 203 199 200 200 199 198 194 198 199 197 195 196 196 197 197 197 196 194 195 194 188 189 192 187 190 191 190 186 183 185 185 182 184 178 176 168 164 141 129 116 69 47 43 63 66 49 37 35 31 29 16 24 27 27 32 27 32 25 37 42 40 36 38 49 64 72 100 110 135 146 151 160 160 169 162 165 166 178 184 193 193 195 197 196 197 196 201 198 200 203 200 202 202 199 198 199 198 196 195 197 200 195 196 198 194 197 195 196 194 196 194 193 191 190 191 192 191 193 187 188 184 187 185 183 185 187 177 172 166 154 129 126 91 66 47 43 79 63 38 27 31 30 23 23 34 28 27 32 32 33 37 43 47 47 59 63 74 100 105 119 138 145 155 162 167 170 166 162 176 181 187 191 193 196 200 193 197 198 200 198 198 203 201 199 202 198 195 200 197 196 197 198 196 196 195 198 198 195 195 195 195 193 193 191 192 191 192 190 190 191 187 190 187 188 187 183 188 186 180 176 165 154 139 126 109 75 62 43 66 92 41 27 25 31 19 33 32 36 24 32 36 41 38 52 61 55 75 68 91 93 104 121 132 145 154 165 170 171 168 170 181 178 187 192 190 196 199 196 196 199 199 197 200 199 202 198 200 198 195 199 194 196 195 198 199 195 197 198 198 195 196 194 191 190 190 192 194 188 194 188 189 191 189 187 187 188 186 187 186 179 181 173 172 157 141 129 129 73 72 57 51 103 76 26 30 26 25 28 33 28 29 30 38 38 36 60 67 65 81 85 84 82 105 117 128 140 153 165 165 169 164 178 177 181 187 190 193 198 198 195 196 197 198 199 199 200 202 200 198 200 194 198 195 198 195 196 198 196 194 198 196 199 197 194 192 189 192 193 193 191 192 189 188 189 191 187 188 188 189 186 184 181 182 176 171 164 144 133 133 100 63 76 45 85 103 45 29 28 26 31 35 26 23 34 39 34 40 74 61 70 79 81 74 82 97 113 131 145 153 165 169 165 165 176 179 179 187 189 192 196 197 194 196 195 199 199 198 201 202 197 200 200 198 196 198 196 196 196 199 197 194 200 197 197 197 196 192 193 194 194 190 190 195 187 189 191 189 189 187 190 192 186 186 182 181 177 168 164 151 136 136 112 65 69 64 58 108 69 27 35 29 27 32 25 31 31 30 33 62 73 63 74 78 61 71 86 92 111 137 153 156 166 171 165 168 177 178 183 183 190 193 191 194 194 195 198 199 200 198 199 200 200 200 200 202 196 198 200 196 196 198 199 197 197 198 198 197 197 197 194 193 194 193 194 191 190 193 189 188 188 189 191 189 189 186 182 183 177 171 167 151 138 134 131 78 43 88 63 90 79 38 31 41 25 25 25 33 32 31 29 68 65 58 68 66 47 72 82 93 115 146 160 160 158 170 166 166 174 184 180 183 189 192 191 193 192 196 197 198 198 197 200 203 199 201 199 199 198 201 200 199 195 197 200 198 196 196 198 199 199 195 197 198 194 196 195 194 192 191 190 189 187 190 188 189 186 188 183 184 180 173 167 153 140 140 135 95 27 75 83 76 76 48 21 56 27 28 26 34 34 28 37 74 56 49 60 52 54 73 77 105 125 154 164 163 156 162 170 169 172 179 183 186 189 191 193 194 192 196 198 196 198 196 196 203 202 200 200 198 201 201 200 196 198 198 200 198 196 196 198 198 200 195 195 195 198 195 197 195 191 189 191 193 186 186 188 188 187 185 183 185 181 178 166 156 144 141 135 122 29 45 86 76 77 52 20 50 34 25 31 33 33 29 53 70 57 49 51 49 59 70 83 115 139 156 162 165 163 164 170 172 172 179 183 186 191 187 195 194 195 198 198 196 198 197 195 201 202 200 200 200 199 201 202 198 199 200 200 196 195 197 198 199 200 199 195 197 197 192 194 194 193 191 189 192 185 186 181 186 185 186 182 187 179 182 170 159 147 142 136 137 64 19 78 83 69 59 20 61 37 28 36 30 43 36 54 60 52 48 46 44 64 64 98 127 151 159 160 163 167 166 170 174 165 178 182 184 191 190 193 196 196 199 196 198 198 197 198 197 199 197 201 201 200 200 200 200 203 199 198 199 197 198 197 198 200 199 195 199 195 193 194 195 192 191 189 186 186 188 180 179 182 189 187 187 178 179 173 162 149 144 136 141 93 9 61 89 71 47 27 53 46 41 40 43 43 43 59 59 51 44 44 54 54 78 115 148 157 158 165 164 167 169 173 176 167 177 182 184 183 187 194 194 200 199 197 200 199 197 197 197 198 196 200 200 200 198 200 200 200 198 200 198 199 201 200 197 201 198 195 194 195 194 192 194 189 189 189 184 186 187 187 180 178 172 186 182 170 161 161 152 147 148 136 138 121 19 50 79 71 56 32 45 52 56 48 32 44 49 59 52 54 45 48 43 70 99 133 151 154 166 165 167 168 170 173 177 173 177 181 184 185 188 190 191 194 195 195 198 197 196 198 197 196 195 198 198 197 197 199 196 198 199 197 200 200 200 198 198 199 194 196 194 192 194 191 190 187 185 187 182 177 180 173 168 166 157 161 158 156 145 150 147 138 137 135 134 133 45 44 70 67 49 42 63 42 55 45 37 49 53 57 58 55 40 43 46 82 121 141 153 155 165 165 171 172 167 173 171 173 175 185 180 190 188 172 174 176 185 182 190 193 189 188 193 189 188 193 195 188 189 194 193 194 199 194 195 197 197 198 195 196 193 191 193 194 191 189 190 178 179 168 160 142 144 132 136 131 136 134 126 123 129 130 142 140 128 126 130 138 71 42 63 62 43 62 101 34 51 58 45 56 58 48 64 51 36 47 65 102 130 145 149 156 164 164 164 173 167 173 175 178 175 174 177 183 175 167 164 167 161 164 169 161 157 160 160 153 150 167 169 170 181 182 188 187 184 189 191 195 194 191 192 192 192 187 189 191 185 176 175 168 155 142 128 112 98 106 106 95 96 117 130 115 122 129 140 139 131 123 124 138 99 36 55 47 59 87 110 34 52 59 61 57 67 48 59 50 34 53 79 117 140 148 145 154 164 163 161 170 170 169 173 173 177 165 172 177 174 166 168 168 159 160 153 140 133 134 136 124 110 120 128 128 153 164 167 176 178 185 190 190 192 192 190 194 189 179 183 183 178 166 160 151 137 116 102 80 82 91 87 81 94 104 117 123 126 131 140 141 135 126 125 133 119 50 50 36 66 112 107 91 60 53 72 49 69 50 48 54 37 58 89 131 145 147 148 150 164 166 165 167 170 162 167 166 159 161 171 169 166 160 156 157 149 146 132 124 116 108 101 96 91 85 89 104 116 134 147 161 158 172 187 189 192 191 193 190 190 179 177 171 167 160 141 137 117 106 89 87 81 92 91 103 120 148 147 145 141 140 140 137 135 128 119 124 133 64 38 35 87 114 107 128 108 74 59 44 67 55 41 52 39 64 99 140 147 149 151 154 157 163 163 166 171 165 163 169 158 161 173 171 163 160 153 142 136 132 120 110 108 93 87 83 94 91 99 96 107 121 132 148 152 169 177 186 191 192 194 190 185 181 175 162 162 151 130 124 106 106 114 126 127 140 145 149 151 159 154 152 151 148 138 131 134 132 122 118 136 80 39 65 88 112 108 135 149 99 77 42 70 59 34 42 46 60 109 141 150 150 154 156 160 158 161 166 168 159 158 161 162 160 163 162 165 159 160 153 154 160 157 150 149 138 136 127 126 129 125 126 122 121 130 141 149 160 172 178 191 191 194 192 187 177 170 158 157 140 120 112 116 126 139 144 151 155 159 164 156 161 150 152 148 140 135 131 124 126 130 121 139 96 59 97 96 109 108 101 152 108 121 106 85 74 38 47 50 61 111 144 151 151 161 160 158 151 157 157 148 152 156 159 163 158 154 158 162 169 164 168 170 174 178 175 170 168 155 150 141 136 130 127 125 127 128 135 143 160 162 177 189 192 195 196 189 177 166 150 136 116 108 120 134 137 136 136 137 141 139 142 141 145 140 145 142 139 130 120 126 131 133 126 135 121 75 107 103 113 109 102 112 132 148 149 117 99 61 58 50 56 99 148 151 154 163 162 160 157 152 149 144 153 148 154 154 157 148 153 157 164 162 170 169 171 169 159 149 142 132 126 120 114 110 119 116 123 121 123 131 150 162 173 187 193 197 200 194 184 168 142 116 108 123 131 120 113 114 117 120 128 127 131 128 130 129 128 114 111 121 125 128 128 134 131 130 135 95 105 101 113 105 157 86 113 163 164 156 135 90 86 77 65 96 137 149 157 163 166 162 165 156 153 152 152 153 149 152 146 151 143 152 145 142 137 141 148 158 155 162 159 147 137 137 117 101 97 107 112 114 111 124 137 160 171 187 194 200 201 195 190 169 121 107 119 121 109 104 105 120 121 120 133 133 149 148 146 140 139 129 107 95 119 129 129 136 129 136 138 109 103 107 109 109 179 140 75 137 163 170 173 110 98 118 109 116 134 148 158 163 167 160 166 161 159 157 157 153 148 144 140 141 132 128 132 139 153 158 166 170 164 167 161 149 144 131 124 113 91 99 105 113 114 113 128 154 170 186 195 201 202 201 196 179 121 103 110 109 105 108 112 115 117 119 122 127 132 112 97 98 106 116 110 106 128 127 133 139 128 138 140 109 101 101 110 106 176 185 127 94 148 162 177 127 98 121 128 137 141 150 162 165 169 167 164 166 165 163 161 157 150 137 137 134 127 135 144 148 151 157 154 155 151 151 139 133 123 120 118 114 103 102 106 106 124 114 126 146 159 183 194 200 202 202 196 193 126 90 111 109 105 109 105 109 111 119 97 67 80 35 45 45 66 71 89 103 124 135 131 139 134 141 138 116 96 106 110 110 184 189 204 124 124 146 167 143 102 113 134 140 146 150 158 162 169 172 167 169 168 162 160 161 156 148 142 131 133 125 125 128 119 119 118 107 82 57 62 32 42 57 76 91 97 111 142 113 118 132 137 150 158 172 193 196 200 202 197 199 130 107 126 100 104 112 96 102 108 144 111 59 48 29 43 48 79 82 81 95 107 117 136 137 139 137 137 124 99 102 108 105 177 175 189 141 86 146 147 149 108 112 127 141 149 152 161 164 168 175 171 173 174 171 168 166 157 138 125 123 121 106 101 118 103 103 115 104 85 49 63 37 54 69 94 95 80 117 136 142 127 146 145 158 155 160 186 192 200 197 192 197 145 119 141 119 118 194 109 122 139 154 147 85 65 46 58 83 123 108 96 115 113 110 126 135 135 139 141 124 102 99 109 103 163 150 138 109 40 144 131 152 110 110 130 138 142 149 160 163 170 177 175 173 177 175 172 160 149 134 136 143 147 126 120 139 134 125 131 129 136 66 65 63 80 82 123 110 107 139 117 154 160 157 148 162 153 152 175 188 196 195 188 193 163 124 126 116 116 129 135 135 143 148 162 151 116 108 120 122 122 123 121 136 132 135 126 125 133 137 131 137 96 106 106 107 160 142 143 147 79 96 127 142 119 109 129 139 141 137 154 158 164 179 172 172 173 170 166 161 152 157 162 167 172 150 145 148 154 149 155 154 164 153 131 127 123 132 134 131 125 147 161 157 158 155 161 164 147 145 166 179 190 189 188 188 180 133 119 142 138 135 135 131 127 133 125 135 134 131 128 122 134 137 142 143 147 151 147 141 138 139 134 128 104 103 107 108 152 148 152 166 141 69 125 138 116 107 127 137 138 145 148 152 162 178 175 178 176 168 169 170 178 168 164 172 176 169 169 171 174 163 160 143 146 142 134 140 131 128 129 130 135 142 157 153 159 167 169 167 139 149 161 176 186 190 183 185 187 150 113 137 142 132 135 135 125 139 145 148 154 148 140 132 138 144 149 152 154 155 163 161 144 143 129 127 103 106 104 105 150 159 163 172 177 104 127 145 117 105 125 132 138 145 151 146 158 175 178 178 178 173 180 185 192 182 172 162 174 174 176 178 184 180 173 178 172 169 155 149 138 132 141 135 138 153 145 161 171 175 172 162 141 152 160 172 185 190 182 179 189 172 125 128 149 150 146 137 133 130 136 142 141 141 141 145 148 158 157 160 155 163 165 174 161 152 129 126 103 102 105 105 161 172 183 200 203 153 158 147 115 107 116 132 136 144 144 141 160 170 174 175 178 182 184 193 193 190 184 170 171 175 176 175 180 179 182 175 174 171 164 153 147 144 150 148 153 163 156 176 184 183 171 156 146 155 156 173 181 186 185 181 182 180 139 128 140 160 164 160 153 151 153 156 156 161 163 159 164 168 172 170 161 167 172 174 175 159 134 123 104 100 104 103 165 175 193 203 201 163 170 154 112 104 116 131 131 142 147 144 159 169 169 174 180 181 188 192 195 191 187 181 181 182 186 185 183 182 184 182 179 176 169 160 157 159 161 164 170 173 182 184 186 182 162 150 154 156 156 168 175 184 185 183 179 181 153 130 145 155 168 170 162 163 163 165 169 170 177 172 172 174 176 174 169 168 175 179 177 162 134 121 100 104 99 106 172 182 186 194 184 154 182 148 113 107 108 123 132 140 146 145 151 161 177 172 182 187 190 194 195 195 188 190 185 188 187 189 190 187 189 184 185 185 180 176 170 170 181 182 184 190 191 187 184 177 160 157 156 155 158 167 174 177 185 184 176 183 165 140 137 164 171 177 178 169 162 163 163 163 168 170 174 177 178 179 182 180 178 176 177 160 150 119 97 94 104 104 177 171 175 188 159 153 187 146 115 108 107 122 129 138 140 144 146 156 167 171 184 188 191 194 196 194 192 191 190 190 189 193 189 187 189 182 182 180 179 178 182 183 189 192 191 194 189 188 182 169 158 156 151 155 161 165 176 183 187 188 182 185 175 149 133 150 174 182 187 186 181 177 172 173 174 179 181 180 180 183 185 181 173 176 176 162 147 123 92 97 100 103 176 168 163 183 148 130 179 143 114 104 110 117 126 135 134 137 141 153 159 168 180 183 191 193 193 198 197 192 195 193 192 192 191 193 185 188 186 185 187 191 196 192 185 199 197 192 185 184 177 166 160 154 152 150 170 170 173 187 191 189 190 188 180 166 135 137 165 178 187 191 188 190 182 187 180 175 184 186 180 182 181 181 180 176 174 166 153 118 92 95 102 99 177 172 172 180 168 124 161 139 116 106 106 111 126 133 128 139 141 146 158 166 172 178 188 191 192 196 194 197 198 199 193 193 195 197 194 193 191 195 199 197 198 195 193 201 195 190 184 178 173 165 151 148 153 157 163 176 179 182 193 194 187 190 182 175 153 128 147 175 182 188 190 188 189 189 188 180 185 188 184 183 185 178 183 178 171 161 145 122 90 91 100 100 178 167 178 188 183 135 154 137 117 103 107 111 121 130 131 137 141 140 152 162 167 175 184 186 190 197 192 195 197 197 195 196 198 199 196 195 196 198 200 201 195 198 202 200 194 190 185 178 173 160 147 140 150 162 161 172 177 182 194 197 188 182 190 180 161 140 126 168 180 184 190 189 189 187 192 189 185 188 186 180 186 179 173 174 168 156 138 125 86 101 95 97 148 146 176 193 196 166 161 135 112 112 104 111 121 122 130 134 143 140 146 159 162 171 177 183 191 190 190 196 198 194 199 199 199 198 200 198 198 201 201 200 201 201 200 198 187 189 184 177 160 149 143 144 146 161 172 176 185 182 194 199 193 186 187 189 167 149 126 148 175 178 189 189 191 190 188 189 186 190 184 181 184 182 168 168 156 152 139 121 95 90 99 96 161 142 168 184 189 194 176 132 106 110 105 115 111 122 127 133 141 145 143 148 159 167 170 181 185 186 185 196 194 191 198 201 197 200 199 199 200 202 200 200 202 201 201 195 184 182 186 165 143 138 149 146 151 154 165 174 172 187 200 201 194 195 184 181 170 144 132 141 167 171 176 190 189 189 188 188 190 187 182 185 181 175 166 157 156 146 132 125 87 95 93 97 181 151 158 182 165 174 162 117 108 113 109 110 113 116 123 132 141 150 141 146 151 163 158 174 179 182 186 188 192 193 194 200 196 196 199 201 201 201 202 198 202 198 199 190 185 181 186 157 132 145 152 156 153 161 160 167 168 179 193 201 204 190 187 175 164 136 131 139 158 174 175 183 184 185 186 184 191 186 185 178 177 168 163 151 154 142 132 127 88 86 97 95 184 180 166 176 180 172 176 140 101 107 108 105 114 111 118 126 140 147 147 152 152 163 161 170 173 184 182 182 189 189 193 199 195 196 199 203 198 200 201 199 199 197 195 189 184 188 186 144 143 151 153 159 152 157 146 155 156 164 180 193 197 186 175 162 138 128 126 136 145 171 173 179 184 180 181 183 187 188 180 176 166 164 154 153 145 142 131 123 91 88 92 95 184 180 179 189 187 182 183 171 105 104 105 104 111 113 110 119 137 148 146 152 152 161 167 165 169 177 181 181 186 186 190 198 192 196 198 200 197 198 198 194 199 194 196 187 186 186 173 127 144 156 160 151 134 140 133 138 141 145 164 181 178 170 161 136 117 112 118 141 135 160 178 178 177 178 175 182 182 185 175 171 166 160 156 149 144 139 128 125 87 92 92 92 156 169 178 187 186 183 187 185 128 99 105 102 114 111 109 116 129 149 141 149 159 156 163 170 170 171 177 175 183 187 187 193 192 193 194 196 194 199 197 194 191 193 193 188 189 193 151 128 140 161 157 126 76 70 95 118 123 138 140 154 160 153 135 109 67 61 117 142 127 155 175 179 181 176 174 178 176 180 176 167 163 161 156 147 139 133 129 118 90 90 91 91 82 130 155 163 167 176 174 184 147 90 107 104 106 112 108 113 127 145 136 148 157 154 159 165 173 171 172 181 180 182 183 187 189 191 192 195 192 193 194 194 194 190 194 191 188 192 140 119 140 152 136 79 41 26 25 63 93 123 128 135 137 130 104 52 48 53 107 138 123 145 174 171 178 179 172 171 175 176 170 174 163 153 156 148 143 129 124 115 85 91 89 93 73 72 100 134 142 152 152 158 154 101 94 107 106 112 109 113 121 143 145 150 158 152 160 158 164 171 169 175 178 175 176 184 186 187 189 194 194 192 190 194 190 193 193 191 194 178 142 112 133 140 117 96 78 56 60 100 63 89 120 113 115 116 58 42 104 90 102 134 116 141 168 170 176 178 176 169 169 174 168 173 165 154 149 145 141 129 126 107 86 89 88 94 75 77 75 73 85 96 98 107 120 100 90 106 103 114 109 105 117 133 145 151 153 153 152 160 161 168 162 167 170 174 170 182 183 186 186 193 191 192 190 188 193 192 192 192 186 188 136 109 124 134 126 128 115 102 115 127 116 92 94 100 105 113 96 100 138 116 115 123 114 143 165 173 170 178 174 172 169 174 170 172 157 151 143 142 137 129 123 109 84 86 93 94 80 79 75 79 77 75 79 78 82 79 84 105 104 112 113 109 110 127 139 148 151 153 155 157 165 164 164 169 164 169 175 175 182 185 189 189 190 191 189 190 188 191 184 179 182 188 159 99 108 127 134 139 144 147 146 150 132 113 111 107 120 134 131 137 147 139 130 109 117 144 158 168 169 177 175 174 171 167 165 162 161 149 146 141 141 123 124 103 83 88 91 93 79 77 77 78 82 77 80 80 84 72 75 97 105 108 114 108 114 122 133 147 147 152 152 158 159 160 159 165 164 166 172 175 178 188 184 188 188 191 190 186 189 187 178 175 180 184 174 134 92 99 110 110 121 144 161 153 154 139 129 127 141 142 130 130 121 118 110 104 135 147 156 165 167 173 177 170 174 163 160 155 156 149 147 149 134 123 129 88 88 87 92 90 76 78 78 74 79 79 77 80 79 74 76 90 96 107 112 110 113 121 127 138 144 146 150 150 156 153 155 163 167 160 171 169 178 181 176 187 190 188 187 189 184 186 180 185 186 190 183 163 144 117 112 106 107 127 156 159 156 150 135 142 146 143 126 118 107 102 114 129 150 155 157 160 167 168 170 169 165 161 155 155 146 156 144 141 136 125 119 86 81 91 91 88 81 76 81 75 74 81 76 81 78 77 75 78 98 104 111 113 109 121 122 135 137 143 144 144 155 148 152 159 159 162 169 171 173 169 174 182 183 187 186 185 185 183 183 188 186 183 181 174 172 155 155 157 137 126 157 161 157 150 138 145 155 140 130 130 120 131 139 133 148 154 156 159 160 164 168 168 165 158 155 150 145 151 139 139 136 124 123 80 89 89 89 91 79 77 80 77 78 77 84 77 79 80 80 73 90 100 110 112 108 117 120 128 141 136 143 145 151 148 145 157 160 157 168 170 170 171 177 180 176 181 183 180 186 181 188 186 182 184 180 173 176 170 160 174 159 146 154 167 168 148 143 147 157 144 136 139 138 134 147 145 153 155 148 156 160 169 167 160 158 158 155 148 146 148 141 136 131 124 113 81 91 87 89 92 79 76 79 75 76 79 79 82 79 77 81 75 77 103 104 114 109 121 118 121 134 132 136 145 150 152 141 158 158 158 166 170 168 171 174 176 180 177 182 182 179 183 184 181 183 184 178 173 172 168 154 158 160 152 168 175 170 145 152 156 165 155 145 144 132 142 145 153 151 156 154 151 154 158 162 157 145 156 151 146 147 146 143 133 130 120 109 80 87 87 89 91 76 78 76 76 78 79 76 80 82 78 74 74 78 93 106 105 116 116 119 118 127 130 136 143 149 158 149 155 157 156 163 169 166 172 170 169 176 177 179 177 181 177 179 183 177 181 173 176 171 175 161 157 163 156 168 180 168 144 155 162 173 167 151 149 139 143 144 154 149 155 149 153 149 153 162 158 141 155 153 143 144 149 135 136 126 119 103 79 88 87 90 85 73 76 74 79 78 75 77 78 80 78 79 82 69 92 95 102 114 122 121 116 127 124 134 138 145 156 158 149 156 158 165 168 165 169 173 166 170 169 172 173 173 176 172 176 175 171 169 170 166 171 170 164 167 169 171 184 169 156 174 175 178 171 156 149 145 153 146 149 153 149 141 146 149 154 154 148 151 152 144 142 141 141 137 132 120 116 91 85 87 92 88 87 75 76 76 78 77 78 81 79 78 76 81 82 73 79 97 101 107 119 121 122 126 124 128 138 144 152 155 157 157 157 163 164 163 160 173 167 167 168 171 164 169 176 172 172 166 170 166 164 166 172 168 170 168 176 181 188 171 164 183 187 185 180 172 157 154 152 146 155 152 146 149 149 149 149 145 142 149 141 138 141 143 140 131 130 121 113 87 82 90 87 86 93 81 77 77 78 79 75 77 77 79 77 83 80 76 71 91 100 107 111 123 121 130 128 130 139 147 149 152 153 156 156 163 160 161 160 167 166 163 162 162 163 168 167 166 165 160 166 168 164 169 170 169 170 175 179 183 191 183 173 183 191 190 187 182 174 163 160 145 158 145 148 146 146 147 145 146 135 138 133 136 141 138 141 127 132 120 108 80 88 85 89 88 90 77 76 77 77 79 78 77 75 81 77 79 82 80 69 79 99 107 110 116 125 127 127 133 140 147 142 148 151 156 153 160 157 160 160 162 158 157 162 156 160 161 155 159 159 157 162 169 168 169 175 185 182 176 172 159 158 165 179 189 176 160 138 154 165 167 166 162 161 149 148 143 139 144 139 140 131 127 127 135 138 138 135 129 125 121 101 80 87 87 88 89 87 79 74 79 78 79 79 78 79 80 78 78 78 87 66 82 87 104 108 118 125 124 131 133 139 146 143 145 150 155 155 154 157 160 156 153 149 149 157 150 153 151 151 156 149 153 157 168 170 167 173 167 155 121 104 91 93 95 117 129 114 105 92 94 105 110 145 156 162 148 144 143 138 141 132 134 123 122 121 131 135 134 137 125 119 112 100 79 86 89 86 84 91 79 76 78 78 73 81 77 79 79 78 80 77 81 79 73 87 95 101 112 117 127 127 135 134 145 137 142 148 151 152 157 157 157 155 154 148 149 147 141 135 139 139 139 137 144 149 151 147 134 120 96 90 88 104 103 102 108 114 115 103 109 106 104 102 85 76 97 128 130 133 128 126 126 123 117 114 114 126 130 132 135 129 126 117 117 86 76 88 88 88 86 86 77 78 79 80 75 80 77 78 81 77 78 75 79 71 89 75 90 103 110 117 124 128 131 132 138 138 141 149 154 153 159 156 155 154 152 148 144 143 137 127 128 122 116 115 117 118 105 93 80 87 77 78 85 88 78 81 97 103 98 91 86 98 90 89 83 79 76 70 83 95 101 101 104 99 105 108 112 116 133 131 129 132 121 114 109 80 80 87 87 89 87 88 80 76 82 77 80 76 79 77 80 75 77 82 76 75 87 82 78 102 99 113 119 123 131 129 134 138 136 147 152 153 155 154 156 152 152 142 140 137 126 115 99 86 81 73 60 67 59 68 66 71 69 70 74 73 65 58 70 72 70 77 78 78 74 74 63 72 74 57 52 61 74 84 89 97 102 105 102 126 134 134 125 129 118 110 103 72 86 82 91 87 87 91 78 82 77 82 77 81 76 84 80 79 79 79 79 76 80 97 69 93 99 105 114 122 125 132 132 136 140 142 144 147 154 157 160 149 153 148 133 131 119 116 117 112 116 105 92 91 93 107 100 93 95 100 117 124 115 131 127 111 111 129 120 113 115 105 91 88 91 86 90 107 129 135 127 124 117 115 119 123 134 133 126 122 115 107 88 78 82 86 86 86 85 87 83 80 81 76 83 80 75 81 82 74 79 81 74 78 77 100 76 79 91 104 106 119 124 129 129 136 137 144 146 143 148 154 159 152 150 153 134 126 132 136 143 145 147 139 130 124 116 123 123 114 115 122 125 133 129 153 148 116 123 149 138 117 113 109 97 98 105 109 119 129 136 135 142 133 131 126 130 128 130 129 122 119 109 106 78 85 85 85 88 83 89 85 83 80 81 82 75 76 78 79 78 76 79 81 80 75 68 103 90 73 84 94 105 113 120 124 126 133 135 143 141 148 147 150 150 149 150 153 150 134 145 156 164 160 157 157 158 146 142 140 147 136 130 126 124 127 125 132 123 124 128 125 117 116 115 108 114 119 121 126 128 132 135 138 135 137 134 132 125 125 125 118 118 111 108 93 76 84 81 88 86 87 85 89 83 80 80 84 78 80 81 76 82 76 77 76 79 77 74 93 101 78 72 84 97 105 115 124 118 128 133 140 138 142 146 147 145 146 152 152 148 147 156 163 167 171 164 159 157 143 140 136 133 133 135 139 130 135 127 117 129 126 120 115 114 120 121 123 125 120 116 120 128 132 134 138 136 140 136 131 130 125 120 118 110 109 102 82 80 85 84 86 86 87 85 92 85 83 77 81 80 84 77 84 74 78 79 75 78 78 72 93 100 93 71 77 92 100 107 120 120 122 124 136 132 139 137 137 142 145 152 150 150 153 155 162 164 166 163 158 151 142 142 135 125 115 112 112 111 113 108 99 107 108 100 95 101 106 112 112 106 115 116 123 131 134 133 132 133 134 131 121 129 123 119 112 104 100 95 80 77 85 81 89 81 89 90 83 83 84 83 81 80 82 79 79 75 81 77 78 79 81 65 94 95 100 84 63 82 97 99 109 117 122 124 125 131 137 133 137 143 143 155 142 135 150 152 156 153 162 162 160 152 151 154 138 137 119 116 113 110 108 110 109 99 98 100 100 102 108 103 110 114 113 124 130 137 131 129 130 133 128 127 129 127 120 114 105 101 98 80 81 83 82 85 87 82 85 89 89 87 83 88 81 85 77 80 79 76 81 79 79 75 79 70 88 96 99 95 72 72 86 98 103 109 118 128 118 124 126 129 129 135 138 150 146 136 156 149 153 157 156 161 157 148 148 154 146 138 134 132 126 120 116 117 115 106 110 107 113 112 118 114 123 122 121 130 132 135 131 130 128 131 124 123 124 126 116 101 109 99 88 71 80 83 82 81 89 85 84 83 89 88 85 87 80 86 79 79 82 77 81 78 79 79 77 68 88 93 99 94 87 65 68 88 98 99 111 117 127 117 125 120 127 132 129 136 147 147 149 155 151 163 153 158 154 152 143 154 152 155 145 150 149 137 129 128 128 119 118 124 134 132 134 128 130 129 135 136 133 132 130 126 127 126 123 118 119 123 107 100 103 97 69 81 81 80 88 82 83 85 87 82 88 84 86 82 87 84 83 83 81 79 83 76 82 74 76 79 71 97 96 95 91 76 65 67 87 95 98 110 117 122 126 127 118 133 127 131 145 143 148 150 152 155 158 151 159 162 158 166 162 165 162 171 180 177 174 168 166 167 158 159 163 161 158 153 144 142 142 137 141 136 127 119 125 131 121 113 120 114 107 100 96 78 76 77 80 83 82 82 87 81 88 85 83 85 89 78 85 88 77 84 77 80 78 78 82 75 75 80 72 95 92 96 96 81 72 60 75 81 93 102 117 120 123 122 121 130 130 136 144 144 148 146 150 149 151 154 164 166 162 174 173 170 172 177 184 186 185 185 179 185 175 176 179 177 172 176 163 156 151 148 143 133 127 124 124 125 112 119 114 104 106 95 77 76 78 77 76 84 84 83 83 87 85 84 82 82 89 86 82 85 79 80 82 76 79 77 77 79 76 75 67 94 98 97 91 89 74 69 56 73 81 91 101 109 116 124 120 122 127 126 133 135 140 138 148 145 142 145 155 161 157 175 185 178 176 168 176 183 183 182 185 186 179 175 177 177 170 173 176 166 157 157 147 142 130 130 125 131 121 112 106 99 97 77 71 73 79 75 82 78 84 85 78 87 84 88 87 85 87 86 84 85 79 78 83 80 79 78 77 79 72 86 64 92 99 96 94 92 77 72 61 55 71 80 89 98 109 116 121 122 131 124 135 131 137 132 140 157 140 145 150 163 162 160 166 170 160 172 176 178 185 183 181 185 174 166 167 168 172 171 171 160 146 147 156 142 129 130 124 129 116 110 97 96 78 67 77 74 79 77 81 80 78 85 85 81 84 83 89 85 84 88 81 84 81 82 81 80 78 76 80 76 79 75 66 88 102 90 95 94 85 73 66 55 60 64 71 88 95 102 113 116 120 123 126 128 131 123 128 152 147 148 148 159 153 160 157 170 161 168 176 180 187 182 178 175 168 164 161 170 173 165 163 158 149 152 145 130 130 124 119 119 104 98 91 77 61 69 77 76 76 79 83 79 82 80 84 87 84 84 83 88 86 88 85 86 83 83 81 80 80 80 76 76 74 81 60 92 98 98 93 97 90 83 67 61 56 56 57 67 76 85 94 101 109 116 115 117 127 123 130 141 146 146 140 153 140 158 152 155 150 163 179 184 179 187 178 170 166 163 168 170 169 160 168 158 150 141 126 134 134 121 111 104 99 84 87 57 66 69 77 76 76 79 78 82 82 81 85 82 83 87 82 86 88 83 86 82 83 82 78 78 76 78 79 76 72 77 67 87 99 101 95 98 95 87 74 63 59 53 56 63 61 69 78 86 93 100 115 108 121 122 119 133 138 146 139 146 138 144 144 147 150 152 169 179 172 180 179 174 166 164 167 168 164 156 156 149 139 127 126 134 131 114 110 98 75 76 98 55 70 70 76 77 71 85 76 82 79 81 84 77 85 85 81 84 89 86 85 83 81 79 81 82 76 78 76 78 74 72 55 88 103 100 102 102 98 90 84 73 58 57 58 55 62 62 62 71 77 82 90 95 110 110 115 116 121 138 135 138 142 142 144 140 143 147 159 158 168 161 155 165 152 154 157 156 157 147 139 140 129 118 125 133 133 103 90 79 74 95 96 59 71 71 74 76 77 77 77 83 79 83 82 80 86 85 84 87 87 85 88 82 81 82 78 77 75 78 89 82 69 33 35 101 98 104 107 105 101 96 91 81 70 61 58 59 57 61 58 63 64 64 74 79 85 94 103 107 114 117 127 123 131 140 134 130 133 143 146 148 157 152 138 146 140 146 148 147 144 137 138 131 121 118 115 127 115 85 77 77 91 98 95 60 71 73 76 76 78 76 81 78 78 83 80 85 84 81 80 89 85 86 83 87 79 82 81 74 75 104 102 60 43 10 64 111 94 103 107 108 112 103 96 85 82 64 66 63 57 61 55 64 60 59 60 61 65 68 77 89 99 109 106 119 116 121 125 120 121 129 134 130 140 132 134 126 130 134 143 136 134 128 126 125 109 112 109 105 82 68 77 90 96 104 91 25 83 81 73 74 75 80 78 81 81 77 82 83 82 80 82 89 84 88 86 82 83 79 84 72 88 120 87 26 19 45 113 107 86 107 107 113 116 111 106 96 91 73 74 65 60 65 61 60 58 61 61 52 68 52 62 62 75 85 86 97 112 112 110 107 111 111 122 121 124 118 122 118 120 123 125 122 117 118 112 101 104 100 93 78 73 78 84 95 99 119 91 16 59 86 78 72 76 76 81 77 78 78 83 81 83 82 77 88 85 88 87 83 87 82 75 76 105 122 50 21 85 98 116 110 81 98 104 116 114 122 110 101 104 91 76 72 75 63 67 63 59 62 60 57 60 58 56 61 55 62 66 70 82 92 97 96 96 100 99 109 110 110 106 108 112 110 112 112 102 104 95 95 90 88 75 74 81 88 93 104 109 118 92 12 32 100 88 72 74 78 80 83 79 79 79 81 79 80 79 89 85 96 95 95 94 89 85 87 128 103 28 99 121 104 120 113 85 95 103 116 119 116 126 108 110 101 95 81 82 77 73 69 70 66 56 62 62 60 56 58 57 59 57 55 58 62 74 79 82 77 87 90 99 98 103 95 93 95 91 96 80 79 71 68 71 64 73 78 85 95 107 115 109 123 78 9 26 89 93 75 70 79 76 77 81 81 76 81 79 80 84 100 108 108 106 110 107 104 98 97 132 81 60 132 116 111 124 117 91 96 99 115 120 113 124 120 105 104 100 96 90 82 87 81 80 78 72 64 71 56 59 59 58 57 57 58 61 58 59 58 65 63 67 67 72 74 70 73 66 71 63 61 62 57 61 70 73 66 79 82 102 107 116 116 113 118 85 18 22 85 92 85 74 72 79 77 79 73 82 81 79 82 84 107 108 106 107 109 105 115 95 93 131 75 88 128 115 118 123 123 98 96 97 110 119 122 118 125 116 101 99 99 99 87 93 82 83 86 86 75 74 69 60 60 59 57 54 60 59 59 58 62 59 60 58 65 59 60 58 57 54 58 42 56 55 61 65 72 78 70 82 97 108 118 115 113 119 106 98 44 21 77 85 95 89 79 78 80 74 79 83 79 79 80 82 