P2
92
112
255
121 123 121 117 124 117 119 120 121 122 117 119 115 108 104 95 79 80 86 86 74 60 73 72 61 62 82 82 90 84 79 73 77 75 69 71 78 65 55 58 52 52 56 49 41 44 54 48 41 43 38 30 42 30 30 25 30 34 38 32 25 34 35 29 36 41 35 50 73 65 66 65 65 67 79 76 84 75 92 85 94 105 88 75 90 91 119 121 117 113 118 118 120 123 123 119 122 119 119 121 119 121 118 119 113 109 105 90 95 92 83 72 52 54 51 57 65 77 70 76 75 84 80 66 76 55 55 62 61 61 47 40 43 41 49 51 34 39 42 40 43 43 41 30 35 26 23 26 25 27 34 32 22 36 35 26 36 32 34 43 57 52 63 55 59 59 66 69 70 71 71 79 78 81 100 88 80 85 99 119 117 115 116 116 116 121 120 118 123 119 122 121 117 124 115 118 115 100 105 101 86 68 58 66 63 79 89 92 92 92 82 75 74 72 79 64 72 62 43 39 55 47 48 34 35 45 39 39 34 26 41 34 36 39 41 35 34 27 18 25 27 27 29 32 32 34 32 30 31 33 35 42 45 52 53 73 67 66 62 66 67 69 70 63 66 71 67 94 85 80 93 99 120 118 112 115 121 121 119 122 119 122 118 120 118 118 117 113 110 95 89 70 50 52 56 69 86 92 89 82 82 74 77 75 64 68 64 54 60 56 48 40 37 44 42 37 35 38 37 29 28 31 38 34 35 35 46 39 34 33 23 27 27 34 30 32 35 37 29 38 41 43 50 47 44 58 55 53 52 68 72 71 63 68 69 62 61 64 62 62 73 79 89 84 111 119 116 120 119 121 120 121 119 117 121 120 118 116 115 108 89 62 55 48 44 53 60 68 69 72 72 79 91 85 85 75 67 63 60 42 47 45 40 41 38 37 35 32 30 46 31 21 27 35 42 37 34 36 41 43 43 43 27 35 29 35 35 28 33 36 33 40 50 56 70 75 60 62 59 70 61 48 60 80 66 71 61 60 68 58 57 56 57 68 80 84 95 109 117 120 120 121 117 119 119 118 117 117 118 116 114 79 53 57 49 48 46 50 46 53 58 62 66 73 81 74 68 61 58 65 62 42 37 37 44 31 28 41 37 33 28 40 45 26 29 40 47 38 40 40 46 42 55 56 41 39 38 38 35 40 35 34 33 33 46 55 63 70 64 73 66 73 79 75 55 61 79 72 68 57 67 62 69 56 59 53 72 67 87 93 117 116 123 117 121 117 118 115 118 117 117 126 98 65 67 58 43 41 44 33 53 38 56 55 55 59 54 47 39 40 36 47 54 40 36 35 44 31 31 39 36 40 34 41 52 34 37 50 51 48 46 48 50 44 54 67 58 46 40 46 48 45 45 38 41 41 51 51 59 68 64 75 74 66 73 73 78 70 62 84 73 60 61 66 65 57 57 49 52 67 75 84 105 119 116 118 118 120 117 119 117 118 122 114 83 61 46 45 37 32 48 50 48 63 62 63 66 65 67 58 51 45 47 44 44 35 34 42 38 39 32 44 46 49 48 44 62 41 45 59 53 57 57 57 59 56 64 76 66 53 48 56 55 50 47 52 70 63 66 63 68 86 86 83 85 79 72 77 73 73 71 75 78 73 65 65 73 61 61 57 51 52 69 78 87 111 121 118 119 114 119 117 114 120 108 87 53 37 30 36 35 41 59 73 85 74 85 91 85 86 75 64 53 52 45 42 42 39 36 42 46 47 48 45 61 59 59 65 71 61 63 67 63 67 72 69 73 71 75 72 62 55 50 55 53 54 66 64 77 73 72 78 89 88 89 89 80 78 75 76 74 75 66 80 76 83 70 53 68 64 64 59 58 46 49 79 77 97 117 117 115 117 111 114 115 107 67 43 31 32 27 31 46 52 76 79 87 84 87 95 96 85 74 63 53 53 38 49 44 44 44 59 55 65 72 63 70 75 74 77 79 78 80 78 75 78 86 84 91 83 76 73 73 73 63 70 64 66 77 77 71 77 69 75 76 74 67 70 70 79 80 75 76 74 68 70 73 75 82 66 52 70 68 60 54 57 43 54 84 81 117 116 114 117 112 117 114 79 40 38 35 34 37 43 43 50 50 55 68 81 72 75 67 68 52 56 49 45 44 48 51 50 62 70 73 82 85 77 79 86 90 101 95 80 93 85 86 95 100 100 105 92 95 94 87 87 74 80 78 64 65 67 61 63 60 74 74 78 76 80 87 86 84 83 84 81 84 83 69 70 70 87 71 60 71 65 54 53 55 43 62 79 115 118 112 115 114 108 109 70 36 47 38 33 39 39 45 39 46 60 75 82 81 80 66 65 52 44 54 59 58 69 81 86 94 102 108 106 100 100 103 93 97 108 108 99 96 97 98 107 108 102 112 99 95 110 104 98 86 69 85 68 75 78 66 67 71 73 77 82 86 86 93 86 83 87 87 84 76 82 72 75 72 71 94 69 57 76 64 47 51 66 33 72 115 112 115 111 112 109 110 88 47 36 39 27 39 35 40 41 46 63 81 79 69 60 53 54 67 77 88 91 105 106 112 122 124 122 126 130 134 133 128 122 109 113 117 118 106 101 110 121 109 101 119 93 85 104 120 108 104 102 91 89 92 91 76 75 76 70 62 71 69 78 77 83 74 78 71 77 76 63 72 76 63 63 70 75 66 69 69 62 43 57 44 45 115 112 112 109 108 108 105 90 39 34 32 33 33 34 36 37 58 67 73 62 49 67 72 88 92 105 116 123 124 133 142 140 137 136 142 153 154 154 150 154 144 142 136 123 125 133 138 121 110 115 125 124 90 101 121 122 125 117 110 113 106 101 99 87 92 83 75 71 65 61 48 59 63 76 78 80 69 70 71 71 61 66 65 61 67 58 59 67 53 51 53 40 109 111 110 109 108 106 80 51 34 31 36 30 33 27 46 62 65 74 64 63 84 94 107 111 122 128 134 138 149 142 151 150 155 153 165 168 170 167 177 173 164 168 160 158 154 162 163 143 125 136 145 140 143 114 124 138 141 141 130 118 126 119 119 110 109 103 84 82 66 53 37 46 53 50 70 68 80 79 74 68 75 65 64 70 64 72 57 58 57 56 60 42 105 107 107 103 98 79 52 40 35 31 32 31 32 43 60 67 63 73 69 87 103 110 121 132 135 142 146 151 158 157 166 166 170 169 172 179 177 182 186 183 178 179 179 178 180 174 173 162 159 167 165 154 149 150 132 136 152 149 143 135 132 124 132 135 130 114 105 98 89 79 57 43 44 61 63 60 60 83 88 82 83 70 65 62 63 64 71 60 56 52 53 51 106 105 98 85 58 55 40 44 34 32 30 34 39 54 57 78 78 80 92 106 116 122 137 145 149 153 159 166 172 176 177 176 179 178 179 188 188 192 190 190 186 185 183 184 189 184 180 176 175 177 174 167 156 155 155 137 141 154 152 147 140 128 132 138 138 127 115 107 104 96 80 59 52 51 65 64 60 61 67 94 95 74 67 69 67 62 54 79 61 54 53 56 102 110 80 53 41 36 40 36 38 35 29 39 48 48 63 89 92 102 110 118 128 141 152 156 165 164 173 176 180 186 186 182 189 188 188 192 193 196 197 194 192 187 186 186 189 189 185 182 181 182 180 179 172 166 160 156 154 146 163 154 151 139 136 143 138 136 120 124 113 97 84 73 49 64 75 72 67 68 68 78 76 79 73 68 71 56 52 58 74 58 53 50 103 101 84 44 38 33 30 32 40 31 35 40 45 56 72 95 107 110 121 130 139 152 161 166 171 175 183 182 183 189 190 191 193 190 193 194 198 198 197 197 196 194 191 191 189 192 190 182 184 185 178 182 179 178 168 164 164 168 154 156 165 151 139 152 153 144 124 124 122 107 103 75 36 35 54 70 81 79 67 73 66 72 79 70 67 64 57 49 62 66 46 51 97 105 85 32 29 38 36 34 33 32 37 38 48 67 87 105 117 116 135 145 155 167 172 177 182 184 192 186 188 192 194 194 198 196 194 197 200 203 202 199 199 198 194 192 195 192 192 190 190 190 184 181 183 182 179 170 169 168 176 166 163 166 149 156 149 147 136 132 126 121 115 98 61 33 23 41 65 84 73 77 71 67 70 71 56 65 52 44 57 61 60 53 99 101 76 30 30 36 39 36 34 37 36 39 59 83 105 118 127 133 150 160 170 175 180 185 188 188 194 194 191 192 194 200 201 198 196 198 200 205 201 200 202 200 196 195 198 193 192 191 192 196 190 190 187 187 186 180 175 175 178 179 181 174 168 167 154 148 134 134 128 132 118 103 79 49 27 34 52 68 73 70 70 74 63 60 61 50 62 55 40 57 61 54 99 92 57 27 17 28 37 38 37 35 29 47 77 112 132 138 142 152 166 176 177 181 186 189 191 193 196 197 196 190 197 199 201 200 200 201 202 199 201 200 202 202 200 198 199 199 195 191 190 197 195 192 192 187 189 185 183 182 178 178 183 178 182 180 176 165 155 139 134 132 128 109 89 70 34 20 55 52 71 66 63 69 59 46 56 58 44 67 51 39 49 57 98 89 42 24 26 27 34 35 37 29 39 69 110 143 153 156 154 164 174 182 185 186 189 189 192 196 198 199 199 192 198 202 201 201 200 200 200 190 196 202 201 201 200 198 200 200 198 195 195 198 194 195 193 192 192 190 187 185 185 185 182 179 176 175 177 171 167 151 146 138 130 121 106 74 50 26 31 68 62 67 58 66 56 48 41 59 47 54 57 42 38 48 97 92 51 29 26 38 36 38 24 34 58 94 138 155 164 160 161 171 175 178 186 189 187 190 193 199 197 198 199 197 197 203 202 201 199 199 196 196 198 202 202 202 201 201 200 200 198 198 196 195 194 198 195 192 193 191 191 188 189 188 188 187 181 177 175 167 168 155 156 153 145 124 107 88 58 44 26 59 73 59 64 53 58 60 37 38 55 42 52 51 38 32 97 89 43 33 32 41 32 36 30 48 81 130 153 163 167 162 169 169 180 182 185 190 189 193 195 198 199 196 199 199 200 202 199 198 198 199 198 201 201 201 202 202 199 199 200 201 200 199 198 200 194 195 199 193 195 192 193 193 190 191 189 191 189 183 178 167 163 156 160 164 154 134 119 94 70 54 42 39 61 72 62 65 46 52 44 36 39 48 37 52 49 31 102 67 44 39 29 32 40 38 40 70 108 140 160 165 169 170 170 176 174 183 187 189 191 194 197 198 197 198 200 198 201 202 199 196 201 198 199 202 202 201 197 201 200 199 200 201 200 198 198 198 197 194 197 195 195 193 194 193 193 193 189 190 186 190 178 171 164 157 162 166 161 142 125 102 71 65 42 43 49 73 69 55 54 39 44 40 31 41 42 42 52 47 91 56 48 30 41 42 51 34 62 104 121 151 160 171 174 171 172 179 175 179 185 191 190 191 196 198 196 197 198 198 199 197 198 198 199 201 200 200 200 201 199 197 201 200 199 198 198 200 197 199 195 196 196 197 196 194 194 191 194 194 191 189 186 190 181 170 165 162 165 160 160 145 131 119 79 74 53 45 43 60 71 55 42 48 38 43 39 28 44 42 42 57 78 80 49 28 59 49 48 25 91 117 135 152 160 180 174 172 175 177 178 181 183 189 189 191 195 198 197 197 197 199 196 200 198 195 200 201 199 200 201 200 201 198 198 201 198 200 197 200 199 199 197 196 195 196 195 197 194 194 194 195 194 189 187 188 182 174 167 164 168 162 154 147 137 116 90 70 68 51 59 42 64 55 42 38 43 46 37 34 40 34 40 47 82 95 65 28 60 57 30 38 111 131 145 158 164 173 175 170 175 178 178 181 185 187 190 191 196 194 198 196 196 197 198 200 199 198 201 200 200 198 202 201 201 200 197 199 198 200 199 197 198 197 196 194 199 195 195 196 196 194 196 194 194 195 190 189 178 176 168 168 169 164 159 141 134 118 93 72 67 67 65 47 53 56 47 46 29 38 38 38 32 34 32 38 90 93 55 44 53 46 28 59 122 139 149 162 169 172 173 172 180 176 178 181 184 184 185 190 193 194 194 196 196 196 199 199 199 200 198 201 199 197 200 199 199 200 199 200 198 199 196 196 197 199 195 193 196 196 194 196 199 195 197 195 197 195 194 187 181 173 171 170 167 162 157 144 128 120 93 76 59 67 74 58 51 56 42 45 41 29 33 33 37 31 31 29 88 96 45 45 56 26 25 77 132 140 156 163 172 176 173 173 181 180 178 182 187 184 186 192 190 189 193 195 196 197 199 200 197 199 198 198 196 197 199 198 200 197 200 197 197 200 198 195 195 199 196 195 198 197 193 198 199 199 194 197 196 197 195 187 184 175 172 171 164 166 160 148 130 113 98 71 72 49 88 68 59 51 48 36 40 43 24 23 34 38 31 34 90 91 55 44 39 34 28 109 129 142 158 167 174 171 177 177 180 180 182 187 190 191 192 191 192 193 195 197 197 197 198 199 199 199 197 198 201 195 197 199 199 199 198 198 194 198 198 198 197 198 196 196 195 196 194 195 196 199 195 195 196 195 191 186 179 177 176 170 173 168 168 153 131 118 100 79 84 45 71 85 79 52 42 51 35 42 43 23 18 29 32 40 92 85 58 42 37 20 53 115 131 145 158 169 170 173 178 179 179 182 184 188 192 190 193 194 195 195 194 202 198 200 200 199 196 197 196 199 201 199 199 198 197 199 198 197 196 199 198 195 196 199 197 198 195 198 195 198 198 199 196 196 198 194 191 188 182 179 173 171 171 174 169 161 141 112 101 88 81 65 48 88 89 74 38 41 51 31 31 43 26 23 22 34 93 89 56 44 33 18 70 127 126 145 164 169 169 170 178 180 180 185 187 191 190 189 191 196 198 193 197 199 202 200 200 200 198 196 198 201 197 199 196 201 197 199 198 199 198 196 198 197 196 200 196 197 196 197 197 196 199 197 195 198 194 194 188 192 183 182 176 175 175 172 171 168 148 121 99 93 78 82 36 84 91 92 53 26 61 44 30 33 38 25 24 24 94 89 53 44 31 18 85 130 131 150 164 171 173 177 178 180 179 187 187 187 194 193 193 190 195 195 199 200 202 199 201 202 200 196 198 201 197 197 200 199 198 200 199 199 198 198 195 200 196 200 197 198 197 198 196 199 200 196 196 197 194 192 189 184 185 180 174 180 172 172 171 166 154 129 100 98 82 92 53 67 98 88 72 36 43 55 41 42 36 25 31 21 91 88 54 40 27 21 109 128 138 153 166 169 176 181 180 180 177 184 188 188 187 193 193 190 194 197 200 201 197 201 200 200 202 200 197 200 200 198 202 198 199 199 201 198 200 199 199 199 199 200 201 199 201 198 196 199 201 198 196 198 194 194 187 187 182 181 175 180 172 170 168 168 164 137 105 101 90 95 78 57 98 77 76 49 45 54 48 57 43 23 33 30 93 78 60 44 16 39 121 135 136 151 166 174 179 181 180 178 178 181 183 188 190 191 192 188 192 197 198 197 196 197 200 201 199 199 199 198 198 199 199 198 197 199 200 199 200 198 201 196 197 200 201 201 203 199 197 201 198 196 200 198 194 189 189 185 181 182 177 176 172 170 165 167 166 148 118 100 92 98 98 63 81 77 67 68 53 57 38 65 52 40 24 33 87 83 60 43 13 53 136 130 143 150 165 178 181 184 183 183 180 182 178 184 189 192 191 190 192 192 199 196 196 194 198 201 199 199 197 198 198 199 199 198 195 199 200 200 199 200 201 198 198 200 200 201 203 200 200 201 199 197 200 197 194 189 190 186 181 184 183 177 171 171 171 166 166 158 133 109 92 100 94 74 71 73 66 67 61 71 39 49 52 51 27 26 90 82 83 43 5 79 141 130 147 157 165 172 180 183 184 184 183 183 177 181 189 188 188 189 190 189 196 198 196 192 197 197 199 198 195 196 200 197 200 197 195 200 198 200 200 199 202 202 198 199 200 200 205 200 200 198 196 195 199 194 194 190 189 184 182 183 180 178 175 173 173 170 166 157 141 115 96 91 84 73 66 61 67 60 64 67 55 37 47 46 43 29 84 101 84 40 2 107 137 134 141 152 149 154 168 174 178 178 181 179 179 180 186 182 187 188 184 189 193 195 194 192 192 195 195 195 197 194 195 197 198 194 196 198 198 197 197 197 200 199 198 199 194 193 200 199 200 193 191 187 189 189 187 189 188 185 184 183 177 179 175 172 174 168 165 162 138 124 98 89 77 71 64 64 59 65 53 62 53 44 44 45 47 39 83 113 68 40 16 118 130 124 133 139 141 139 145 155 153 158 159 161 162 173 178 177 174 185 183 181 189 190 189 191 191 193 192 189 197 194 194 195 195 194 192 193 193 194 188 189 192 185 187 188 187 178 182 188 188 180 172 179 177 177 176 183 181 186 182 182 176 180 171 173 176 161 162 160 140 123 102 89 76 63 68 64 48 65 47 50 56 52 36 49 46 44 119 104 68 35 34 126 117 123 131 138 136 134 134 129 118 126 130 118 126 134 145 161 163 175 177 175 180 184 188 187 186 190 191 191 193 195 194 189 192 187 186 188 172 171 157 155 140 139 142 147 157 156 151 150 153 159 160 163 169 172 176 176 172 172 177 178 175 178 173 171 173 163 160 163 141 122 102 97 70 68 67 58 45 48 62 46 45 59 35 44 49 39 133 89 63 30 58 123 121 117 129 131 127 122 123 114 99 101 104 100 87 102 107 123 140 152 165 166 175 180 185 186 185 186 190 189 190 189 191 183 178 174 176 167 157 146 133 116 110 108 105 113 130 122 137 147 144 145 143 153 163 168 174 176 167 163 162 177 175 176 176 168 168 166 160 163 137 125 118 104 84 72 56 45 49 39 55 47 45 61 47 43 50 41 130 62 54 56 78 130 114 117 126 128 120 114 112 100 88 77 77 80 68 68 82 92 98 122 143 144 154 172 180 181 187 184 188 191 189 177 175 180 169 158 157 158 140 129 111 92 94 94 92 87 90 102 114 131 139 139 141 147 164 171 171 170 173 163 167 169 166 173 173 169 165 169 161 160 142 130 127 117 105 76 56 39 48 39 46 49 56 54 58 36 46 56 123 47 61 79 102 120 115 118 118 127 128 125 133 136 126 118 113 103 97 91 87 88 84 98 116 133 144 157 174 179 186 185 188 188 191 187 173 169 167 152 143 145 132 116 118 107 104 97 88 91 88 105 132 148 147 155 154 153 166 170 172 170 170 165 169 166 167 165 168 170 163 166 162 163 142 141 139 126 124 97 62 38 44 41 40 54 55 49 51 53 52 71 115 47 67 94 114 113 107 113 115 121 136 135 149 158 157 151 158 152 143 136 132 112 102 94 95 113 135 141 161 176 184 188 191 187 190 188 177 170 168 153 146 139 129 128 129 128 134 127 134 142 142 149 159 163 165 171 169 170 164 167 162 165 167 167 169 164 162 155 156 166 165 161 156 163 145 145 146 133 138 118 85 49 40 44 44 53 64 62 50 79 94 83 112 50 83 97 123 113 106 109 105 112 126 141 146 157 161 157 152 150 145 140 139 137 128 121 97 94 109 125 145 171 181 189 193 194 191 189 179 169 161 150 138 132 125 122 124 128 129 136 140 149 160 162 169 170 170 172 171 177 161 165 165 158 163 159 157 163 159 154 155 162 159 161 163 165 153 151 150 145 148 137 97 54 62 53 67 72 84 94 95 118 119 104 107 62 87 104 129 119 111 105 105 108 106 108 112 124 134 137 136 138 131 134 126 122 119 125 117 101 82 101 129 159 179 193 197 196 194 191 182 170 157 143 131 124 119 115 117 117 118 126 139 148 171 177 181 184 179 177 173 168 160 157 151 150 148 153 152 156 160 160 155 159 157 158 162 170 155 159 152 150 154 147 90 85 78 82 94 105 114 125 117 146 135 111 113 74 92 109 133 129 120 117 111 96 83 107 126 140 145 156 162 157 155 151 150 134 123 117 111 112 94 72 107 154 181 195 197 198 198 191 181 173 156 138 127 121 118 111 99 88 94 108 117 129 135 134 142 143 152 157 161 163 162 158 152 140 144 151 151 151 156 162 163 161 158 160 168 170 168 164 163 157 153 149 102 98 107 108 109 117 138 146 137 144 126 120 126 86 92 112 135 133 125 122 120 107 84 113 123 130 138 142 154 152 147 142 139 135 129 122 114 112 114 75 72 158 185 195 202 202 198 191 184 170 153 131 126 126 111 95 80 88 103 121 138 147 152 153 153 155 159 150 146 138 136 134 140 146 151 151 149 150 157 162 168 160 162 162 174 168 166 168 162 160 148 155 127 118 114 115 111 121 147 151 145 134 118 139 129 106 95 115 138 141 137 132 122 106 78 85 77 80 75 82 91 114 124 128 120 126 125 122 119 114 116 89 69 140 189 202 202 200 199 194 181 161 150 130 136 121 105 91 81 102 109 115 132 144 156 159 158 154 161 156 155 157 145 137 134 130 131 147 148 150 158 167 167 163 160 166 178 173 171 170 168 156 157 151 144 134 115 111 114 122 145 144 146 124 140 151 138 117 89 121 141 144 145 130 120 113 75 83 67 52 47 39 39 44 87 124 111 108 111 106 112 112 137 115 67 151 189 201 201 198 202 194 173 151 141 144 135 113 122 100 84 98 93 81 90 96 111 119 141 144 149 149 145 146 146 141 135 135 143 147 149 150 167 173 167 165 161 172 173 173 168 168 166 158 156 151 147 131 124 112 108 134 137 144 135 139 159 156 124 127 83 122 141 147 147 129 127 135 109 90 90 83 58 48 50 47 111 146 125 127 138 115 99 110 126 129 90 156 187 200 200 198 196 194 157 148 141 147 137 117 149 123 90 67 63 61 47 22 45 48 102 112 102 109 113 114 115 123 132 129 130 151 157 156 162 169 169 168 172 174 175 171 166 166 164 156 158 151 142 130 119 114 110 135 132 143 114 156 168 158 96 132 91 119 147 145 148 147 141 136 141 120 109 118 113 101 86 100 130 140 130 140 142 133 131 136 132 130 111 163 189 199 196 191 195 183 149 149 151 142 151 154 149 115 118 89 84 76 74 47 46 44 112 129 113 109 107 110 106 119 121 125 114 128 139 146 168 172 164 170 174 177 173 173 171 171 166 155 155 148 143 132 122 110 118 130 125 131 95 98 132 137 86 131 93 117 143 148 153 166 159 145 153 141 135 120 111 120 119 121 128 126 126 130 140 135 140 149 148 127 124 172 192 196 194 188 186 180 136 151 160 152 158 170 154 144 137 128 127 117 100 88 71 83 142 154 147 120 126 133 129 137 145 151 138 134 133 140 158 169 173 172 175 178 178 173 173 171 164 150 153 141 139 134 119 110 121 131 124 119 133 118 126 136 59 133 98 120 143 150 169 176 167 158 155 157 148 142 131 132 135 136 137 135 132 128 133 132 137 146 140 119 151 183 192 194 190 187 182 178 134 136 162 163 151 147 166 161 150 140 124 138 150 153 154 141 152 150 145 146 143 154 159 153 165 171 163 158 160 156 154 159 167 173 172 170 176 174 171 171 165 156 152 137 139 131 121 108 122 129 115 135 157 136 149 149 62 123 110 118 140 156 172 178 168 165 165 164 157 152 148 144 151 150 151 142 137 134 138 140 146 148 133 129 169 191 189 191 191 188 180 171 153 125 155 171 162 135 160 164 154 140 127 111 117 127 141 141 148 156 158 161 159 164 168 167 171 168 171 171 174 174 170 167 171 172 172 171 172 171 173 167 161 153 147 141 138 129 120 107 118 132 114 157 167 149 147 149 61 112 119 113 144 165 177 179 171 163 170 170 171 165 160 151 161 158 153 147 146 150 147 156 154 152 131 142 182 197 190 188 189 187 176 165 157 149 150 171 170 158 140 165 163 155 142 132 119 125 133 144 151 160 156 159 163 166 163 173 177 176 177 179 185 183 190 183 178 180 177 176 171 171 165 166 156 150 147 136 138 126 119 112 115 140 133 157 175 171 154 150 53 105 124 116 145 166 180 183 175 168 171 168 169 171 161 154 168 164 163 153 161 167 161 161 159 150 127 159 187 199 189 187 187 189 183 168 157 159 162 173 167 170 160 161 166 167 159 155 145 145 140 146 151 159 163 168 172 171 173 177 178 180 180 189 191 188 189 192 179 183 180 171 169 165 166 161 154 149 145 136 133 130 120 111 115 141 148 163 170 172 175 161 67 92 132 112 141 169 176 182 183 176 172 171 170 172 159 155 163 161 159 160 169 174 167 166 159 139 140 170 196 195 187 186 192 187 180 173 167 159 166 174 173 178 180 172 177 172 168 159 162 167 164 175 171 179 177 182 186 185 189 191 192 188 184 194 193 193 190 195 187 186 181 168 169 163 164 156 157 147 145 136 127 135 119 110 112 148 147 163 179 180 181 173 60 85 134 117 140 159 174 180 177 181 177 174 178 174 169 166 167 170 173 175 175 179 169 165 144 136 164 185 196 189 190 185 193 189 178 173 173 163 165 173 174 185 185 186 188 183 189 170 162 169 171 176 178 185 191 189 194 191 192 196 195 190 192 194 196 193 194 194 191 188 180 168 170 159 156 154 152 146 145 132 129 130 120 108 117 147 147 152 174 174 174 170 68 75 134 113 136 161 173 179 177 180 176 179 184 181 178 175 180 181 185 171 165 178 169 148 138 149 181 193 195 191 189 191 190 188 178 171 176 165 167 172 175 184 186 189 192 197 194 191 185 179 169 174 176 183 187 189 193 193 193 195 195 193 194 195 194 197 195 194 187 186 182 165 169 161 155 148 146 148 141 134 134 122 117 108 113 147 147 143 171 167 164 165 75 63 123 110 130 161 169 173 180 179 179 181 182 183 179 179 181 184 174 176 177 175 156 138 149 170 184 196 200 192 186 190 190 185 174 167 167 174 167 172 174 178 190 190 192 194 198 196 196 196 190 185 185 187 192 192 195 191 194 198 198 197 196 196 196 200 195 195 188 186 180 173 163 154 151 145 141 143 134 136 130 124 118 110 115 146 153 161 178 174 165 161 79 58 106 109 127 152 159 168 175 178 181 183 181 185 182 182 179 183 181 180 178 168 144 140 163 174 189 196 203 191 187 192 192 183 175 166 165 172 172 167 172 174 189 192 191 195 197 199 199 199 198 193 196 184 188 195 197 195 196 197 197 197 197 197 196 197 195 192 188 184 181 163 159 154 150 144 140 144 135 131 130 125 119 106 121 147 153 164 174 175 145 144 84 65 91 111 116 147 156 167 172 174 183 180 184 188 184 183 183 183 184 179 172 149 136 152 168 179 191 196 197 192 186 190 192 183 172 166 165 162 168 168 163 173 186 191 192 194 200 199 198 198 199 198 198 193 190 195 198 194 194 196 198 197 197 198 196 194 194 190 188 181 177 161 149 154 145 140 141 138 130 133 131 124 114 106 121 147 124 137 143 161 138 136 82 72 71 111 120 136 155 155 167 175 179 178 183 188 187 189 184 183 184 174 165 133 140 162 173 185 194 201 195 193 189 188 189 184 171 164 159 162 167 169 152 168 182 192 192 195 198 199 200 198 201 199 199 200 197 196 198 196 197 200 198 195 198 197 198 191 192 189 185 175 173 161 148 150 142 141 141 132 129 129 132 120 117 103 127 155 132 152 160 170 137 126 77 81 60 100 125 135 148 153 164 171 180 179 181 188 187 187 183 181 176 169 153 134 135 159 178 187 199 203 198 191 191 187 184 179 173 163 156 165 176 165 146 158 186 188 195 191 193 199 199 200 200 200 199 199 200 196 197 195 198 199 201 195 193 194 195 185 183 184 180 166 165 154 151 147 144 142 137 134 130 126 126 118 113 110 127 156 158 168 166 147 134 129 79 80 63 100 124 138 144 151 160 173 175 173 180 182 179 181 179 176 171 163 142 129 126 154 182 184 190 195 203 198 185 178 171 170 176 167 162 170 168 172 149 148 183 187 192 193 192 196 199 200 198 200 197 201 197 200 198 197 199 199 197 196 192 190 186 180 179 183 173 164 158 160 149 145 142 138 135 133 130 126 119 121 116 105 127 141 144 144 153 140 134 152 79 77 60 101 127 134 144 150 155 162 173 171 175 175 180 177 171 171 173 155 131 111 111 138 178 180 181 191 196 183 177 169 159 162 170 168 166 177 165 166 157 132 180 184 192 195 191 194 199 198 195 198 199 199 199 200 196 195 195 198 195 190 190 180 180 180 176 174 168 162 160 157 150 146 138 137 134 128 132 122 121 116 113 108 142 148 146 150 153 150 147 154 80 73 61 100 125 131 138 149 149 159 164 170 170 175 177 176 174 170 164 144 126 82 82 116 154 170 169 176 173 160 149 149 148 152 143 159 167 176 164 155 156 125 160 185 190 190 195 191 196 197 193 195 197 198 198 198 196 196 190 190 189 187 182 183 177 180 175 169 159 159 158 154 148 145 138 136 125 128 125 126 120 112 103 121 147 155 154 160 159 161 156 150 77 76 60 98 129 124 135 142 149 150 165 164 172 175 171 173 175 177 161 128 135 76 37 87 129 148 159 159 153 138 132 127 119 115 109 124 154 169 164 154 154 130 137 178 185 192 193 193 195 194 193 194 194 195 198 195 194 194 188 186 188 178 178 181 174 171 174 166 158 155 156 154 149 144 138 132 126 123 126 118 116 112 103 130 158 155 156 155 152 151 146 127 76 81 59 96 123 130 136 136 146 148 164 166 165 178 169 165 179 181 154 116 123 106 37 26 106 124 133 133 134 122 101 98 67 28 22 48 126 155 164 155 148 136 141 185 190 188 195 195 196 194 191 192 193 192 195 193 191 188 187 181 184 180 176 176 172 165 171 166 158 155 159 151 150 144 134 134 122 120 120 120 116 108 105 138 152 152 148 147 138 133 118 85 74 82 61 86 119 127 131 135 145 148 161 165 166 172 168 169 174 178 160 112 111 125 83 43 32 90 112 117 125 105 101 125 105 67 64 23 59 137 155 147 141 135 142 179 187 187 191 192 194 195 190 189 192 191 192 189 191 188 183 182 178 180 177 168 168 166 161 159 158 150 157 148 143 141 131 130 120 121 119 118 119 102 115 145 135 133 128 121 114 85 70 70 75 82 62 83 120 120 128 131 145 146 161 163 166 170 170 168 172 171 157 119 97 124 116 79 46 58 91 103 111 117 129 138 126 98 98 84 55 107 138 142 142 134 137 173 184 189 187 191 192 194 191 184 191 192 191 188 191 190 181 180 177 180 176 169 171 165 159 156 152 147 148 148 138 133 132 126 122 120 115 120 117 104 119 134 91 80 81 76 62 56 65 76 76 82 67 74 108 123 123 130 138 144 152 156 166 171 169 167 174 165 164 150 116 99 98 92 91 99 84 90 106 123 133 151 157 146 137 146 127 97 120 134 133 129 140 169 187 187 189 190 190 192 190 187 188 190 190 187 190 189 182 181 174 173 173 168 170 163 155 152 150 146 142 146 137 131 132 124 121 120 117 119 111 113 98 64 39 48 53 53 55 57 66 79 76 77 72 74 109 117 123 126 142 141 148 151 161 170 169 167 171 171 164 162 156 112 82 63 102 127 119 117 120 126 141 153 155 156 158 153 140 116 113 124 123 127 152 175 184 183 190 186 189 193 187 188 188 188 187 185 191 185 177 173 175 167 171 162 165 161 150 158 143 142 144 143 137 121 132 121 124 119 115 121 113 113 51 39 49 48 53 52 55 61 73 77 76 73 73 71 95 121 117 132 135 140 150 153 153 163 164 167 168 172 167 158 159 145 119 106 98 129 136 130 124 132 141 153 145 133 140 125 114 107 101 111 130 145 165 173 181 189 188 184 188 188 187 187 189 184 181 180 183 184 175 176 174 167 167 167 165 161 150 150 143 140 145 140 131 125 125 123 122 118 116 116 128 78 33 43 49 52 53 51 58 63 75 80 77 73 78 68 88 121 120 123 136 138 143 151 152 160 163 164 168 170 167 165 155 152 141 139 117 132 140 142 127 126 139 154 149 141 150 130 132 128 133 146 150 158 172 180 185 189 188 186 185 187 185 185 183 182 178 180 178 177 175 171 175 173 172 167 162 155 150 152 144 134 146 131 127 126 125 121 124 115 114 116 124 77 26 46 51 53 52 52 61 67 76 78 76 75 77 67 84 114 121 122 136 137 146 144 149 158 163 158 162 166 165 163 159 151 137 137 125 138 155 154 134 121 138 155 154 152 158 147 152 155 159 164 153 160 174 178 185 187 190 184 183 185 188 182 182 177 175 181 178 172 177 181 172 169 169 168 159 155 146 148 144 132 138 130 121 127 124 118 125 112 114 111 126 71 24 49 57 49 55 55 64 72 78 81 74 74 79 67 75 109 121 125 128 135 140 145 142 152 155 154 155 160 157 153 154 154 140 130 131 154 165 163 145 120 136 155 156 154 160 154 157 159 168 175 174 170 182 182 180 188 187 188 187 185 183 182 182 183 177 176 173 168 172 170 167 163 162 171 158 149 149 141 140 129 133 130 120 127 123 122 124 112 112 107 127 74 27 50 55 56 53 57 67 75 79 85 78 75 73 71 77 101 117 121 130 127 142 141 143 149 145 154 153 153 155 148 147 150 145 139 134 154 174 166 151 131 139 163 166 165 162 155 159 168 173 178 180 177 185 186 181 184 189 180 183 183 180 176 175 181 176 174 173 170 173 176 167 167 162 164 156 151 148 139 140 137 128 130 125 125 127 122 121 113 110 101 129 75 32 54 49 53 58 61 69 76 81 85 74 76 79 68 78 100 111 121 128 126 142 134 137 142 144 148 149 150 146 145 143 152 149 145 149 161 176 181 165 148 147 168 174 168 169 172 172 173 176 179 180 180 184 183 182 184 186 178 178 183 179 163 172 174 178 168 171 169 173 170 170 167 160 157 155 149 144 140 135 132 130 125 127 128 121 124 120 114 103 97 138 74 34 46 58 57 59 65 76 77 80 81 74 74 83 66 74 101 109 119 122 130 134 132 138 134 139 143 141 139 140 147 146 149 147 148 157 174 184 186 179 162 162 176 178 173 168 176 180 179 176 181 186 179 182 174 173 183 178 179 185 179 176 169 174 179 172 170 170 170 170 169 166 164 161 155 155 147 138 137 136 130 129 125 129 125 124 122 118 112 97 109 141 67 38 52 56 58 64 68 76 80 83 81 75 76 80 70 74 86 109 114 123 126 129 126 127 132 133 135 132 130 138 146 146 156 159 155 165 178 194 190 180 173 173 190 188 184 181 181 179 176 178 184 181 174 182 177 175 179 176 177 177 170 168 171 172 170 169 168 164 172 166 165 161 164 159 151 147 143 138 142 132 128 131 125 132 131 128 116 116 105 93 121 139 59 43 57 57 59 70 75 77 79 84 81 73 77 78 71 68 88 100 115 123 129 131 128 127 125 119 124 128 121 132 143 146 153 150 138 123 127 159 182 196 177 164 174 186 187 188 186 185 175 185 180 169 174 184 175 176 180 173 172 169 165 168 168 165 162 157 168 166 167 164 162 160 161 156 150 145 140 140 141 133 128 132 125 126 128 127 116 110 100 97 130 134 49 45 54 62 67 74 75 85 81 84 81 75 75 75 73 68 81 97 112 125 125 132 129 123 123 116 116 107 104 117 128 134 113 97 82 78 77 82 104 131 123 99 101 122 145 175 188 184 185 189 178 172 176 174 167 166 173 167 169 169 158 153 158 157 156 162 164 167 166 165 163 157 154 153 152 149 141 137 132 127 131 134 126 122 129 118 113 111 92 107 130 124 50 46 56 66 73 78 76 82 84 83 80 76 73 75 75 72 72 93 102 118 128 130 133 123 125 115 103 91 78 79 78 75 69 66 72 88 87 90 95 111 108 103 105 98 101 89 114 151 176 182 180 173 169 167 166 163 163 162 153 162 155 150 148 148 150 157 159 161 160 163 160 153 154 152 152 141 144 131 130 129 131 126 129 120 125 117 112 101 92 117 130 117 43 51 65 73 75 74 84 81 82 83 86 73 73 77 73 71 73 83 103 108 128 129 132 130 120 114 106 110 87 55 47 39 52 53 53 57 54 67 84 99 98 95 97 100 105 94 89 77 107 137 153 155 155 157 159 152 151 156 141 148 144 142 143 136 143 147 153 158 158 158 157 149 150 150 148 136 137 129 136 130 130 126 124 119 120 113 109 97 102 120 131 105 47 57 66 79 79 77 85 85 82 83 86 74 72 73 77 73 67 84 90 111 119 130 131 138 126 118 127 134 130 106 89 70 69 65 63 76 84 64 55 67 73 71 66 75 74 84 86 73 77 76 84 95 111 130 126 126 131 133 131 128 121 132 133 133 141 143 148 157 155 156 155 150 146 145 144 134 134 126 134 130 125 120 121 119 114 110 104 88 118 122 128 95 52 64 76 76 80 83 83 83 84 83 86 76 73 75 77 73 75 66 89 99 115 121 130 137 138 131 136 155 154 130 120 102 99 94 93 104 108 107 114 110 101 95 96 100 100 96 99 90 85 80 74 68 66 71 80 79 87 96 91 94 102 118 122 131 122 142 149 153 148 156 153 151 146 143 142 138 131 131 129 128 119 118 122 115 113 109 92 101 121 119 132 85 60 73 82 77 83 77 86 82 86 85 87 74 72 75 73 75 77 73 77 94 107 115 125 136 140 139 140 156 159 146 132 118 119 119 101 108 104 119 128 129 117 118 127 133 137 145 138 127 121 105 100 100 100 92 95 102 112 122 115 102 106 110 113 114 123 142 151 153 147 157 151 149 147 140 135 137 129 127 127 124 120 122 116 115 112 103 89 115 126 121 123 84 68 77 81 79 83 79 88 85 84 87 82 73 77 70 76 76 70 74 69 85 97 107 123 132 136 139 138 153 157 147 133 119 107 117 123 113 112 118 118 129 124 117 118 122 126 126 129 129 118 119 124 120 132 135 137 151 156 153 157 145 134 123 124 119 123 136 152 153 148 148 146 148 140 139 134 134 130 126 122 116 120 118 113 112 113 92 95 123 121 120 120 79 71 81 78 81 79 85 82 85 86 83 90 71 73 76 75 72 73 70 76 75 87 96 119 130 122 136 133 139 147 142 136 126 106 95 101 117 117 114 123 122 122 120 119 115 125 127 126 135 134 144 149 137 143 151 150 154 157 151 154 155 149 145 136 135 136 136 148 144 145 142 145 144 138 127 137 130 126 126 119 119 114 110 113 112 103 85 106 127 121 112 122 81 68 82 82 86 82 83 87 89 81 86 87 77 72 75 72 78 73 75 68 78 71 86 102 122 122 128 132 134 137 138 135 133 120 108 85 84 93 96 98 101 108 104 109 115 126 133 135 136 136 136 132 132 138 144 145 149 152 158 157 151 162 154 147 140 138 135 134 140 138 135 136 137 131 134 133 128 129 124 117 114 113 109 110 103 92 98 123 123 121 119 108 80 80 78 85 82 82 87 86 82 93 82 86 74 72 75 72 73 75 74 75 68 74 74 90 107 124 129 130 133 138 137 131 132 135 121 108 99 98 93 101 96 81 99 91 90 94 108 113 113 124 126 131 128 139 145 149 147 151 158 154 149 161 163 154 145 144 141 136 134 135 130 133 136 127 131 128 126 122 122 114 112 112 113 104 87 92 116 124 125 119 113 115 75 76 81 85 81 86 85 86 84 86 88 85 70 75 72 73 72 79 74 77 76 71 81 81 94 115 123 127 132 138 135 132 130 136 133 125 122 112 106 106 113 98 102 113 102 102 106 109 113 119 124 128 135 141 153 156 148 147 148 148 148 152 151 150 140 141 144 134 138 133 129 133 127 129 127 123 122 122 119 119 110 111 114 94 83 107 126 125 124 119 116 107 75 82 82 84 82 85 81 88 87 84 85 89 72 70 78 71 74 74 74 75 76 74 73 77 87 112 118 124 127 132 131 135 136 145 145 138 139 143 128 124 121 116 110 112 117 116 118 119 122 130 132 136 140 146 153 153 146 148 146 151 145 149 147 142 144 146 144 139 132 132 128 124 123 122 117 123 119 120 117 113 112 106 104 77 98 121 123 121 120 119 121 98 74 85 80 84 85 88 84 86 85 85 86 90 77 73 71 78 76 71 75 76 76 79 68 70 83 94 110 115 126 122 124 142 144 151 150 145 153 164 165 161 161 161 156 148 156 155 147 142 139 136 142 148 149 154 151 153 150 150 148 149 145 142 142 138 142 141 139 140 130 125 127 125 122 122 122 116 117 117 115 111 105 98 84 87 114 123 122 122 121 123 116 101 71 85 82 84 86 85 86 82 89 87 83 86 73 73 71 76 75 74 72 75 76 73 78 72 61 85 100 111 118 126 116 135 135 154 159 150 151 167 166 172 173 182 180 184 189 183 182 184 174 161 155 164 160 161 162 154 152 145 142 141 143 145 137 140 138 136 134 135 127 124 124 122 123 124 122 119 116 107 113 105 95 73 81 116 125 128 119 125 122 116 123 85 77 80 87 82 82 88 81 87 84 86 83 88 69 72 75 73 72 71 74 77 74 75 74 73 70 71 86 105 108 127 118 128 137 142 149 146 150 164 164 173 178 181 175 179 185 183 188 190 185 181 178 172 167 169 166 158 154 143 141 147 145 146 142 132 135 137 135 129 124 125 120 121 116 122 119 115 110 108 104 95 77 73 100 125 128 126 127 125 120 119 113 88 75 84 85 85 87 81 88 88 84 86 85 83 74 75 72 71 69 75 75 77 69 77 77 73 77 67 69 89 98 120 119 125 131 136 137 140 152 162 168 171 177 172 167 171 179 179 183 188 190 182 185 180 182 176 172 166 157 157 152 149 147 146 137 127 141 137 130 119 127 127 124 123 110 112 111 112 107 103 91 72 71 104 111 130 124 125 126 125 121 115 114 81 73 88 78 82 85 80 89 84 86 85 86 83 76 73 73 71 74 74 72 80 72 73 76 75 71 79 66 71 87 114 112 118 124 133 131 143 158 164 166 167 167 168 161 161 166 178 179 176 187 173 169 166 177 179 173 169 158 155 157 150 150 151 144 134 139 129 126 114 121 125 121 119 115 101 107 101 96 83 72 74 94 117 119 124 125 120 123 125 122 114 115 76 77 84 82 83 83 84 86 78 90 84 83 82 72 74 78 70 73 70 75 73 76 72 78 74 72 77 78 63 69 89 114 116 114 123 121 143 163 161 168 171 159 165 165 163 163 172 177 172 178 171 171 162 168 175 157 154 151 155 156 151 148 154 140 132 131 127 125 118 115 116 115 113 103 97 98 87 72 69 75 93 112 125 122 126 129 120 122 125 119 119 99 84 76 82 85 84 84 86 83 80 86 82 83 86 72 71 78 70 73 70 75 72 73 73 72 76 74 75 73 77 68 71 87 112 113 116 121 128 158 153 166 173 166 165 168 164 167 169 176 174 179 173 173 159 154 154 152 155 157 150 142 143 137 140 126 121 121 121 120 112 111 110 109 104 96 88 81 69 66 76 89 105 119 120 121 125 124 123 125 120 124 112 107 68 79 83 81 87 83 83 83 82 84 82 84 84 71 77 72 71 76 71 72 74 75 73 72 71 78 72 76 82 86 49 68 95 108 113 113 128 142 151 152 159 166 160 161 165 162 166 162 165 167 160 157 145 150 147 154 158 152 148 139 140 132 123 118 114 117 108 107 108 107 100 94 86 79 68 60 68 73 89 108 115 120 118 118 127 122 129 118 121 119 110 105 53 56 82 92 85 85 82 85 84 84 81 86 87 74 72 76 72 72 74 75 72 74 74 75 75 70 76 90 88 59 19 27 77 92 96 103 119 127 144 142 144 148 150 147 149 153 151 151 147 148 154 140 136 146 143 151 154 145 129 136 129 120 116 112 106 101 95 93 89 92 89 72 65 65 59 66 87 93 107 119 121 120 118 126 130 121 123 125 122 115 106 114 57 14 54 87 94 80 82 86 83 81 86 80 84 77 72 72 73 72 76 73 75 75 71 76 74 70 76 95 73 20 18 74 81 66 84 89 99 117 124 128 130 133 134 137 146 143 138 145 144 142 145 137 138 140 138 149 155 132 113 126 113 108 103 100 91 88 86 84 76 71 71 65 66 58 75 82 103 107 111 124 121 123 125 129 125 125 121 122 117 115 100 108 87 25 23 60 95 80 82 81 83 83 84 82 83 78 73 78 71 68 75 75 68 78 73 73 74 72 85 99 35 24 98 121 83 65 63 69 75 100 109 116 118 117 125 122 128 133 132 130 133 135 128 124 126 131 123 120 115 107 101 111 100 94 91 82 74 70 75 74 64 62 62 71 64 80 92 93 107 112 118 122 125 119 121 126 128 123 124 119 117 109 93 106 104 46 13 34 91 100 78 81 82 82 79 82 84 74 71 72 71 77 73 80 74 81 82 80 81 78 98 84 14 86 122 116 79 73 65 54 66 69 85 99 101 102 113 111 111 118 116 118 118 118 110 116 111 111 110 105 90 99 93 90 78 79 69 66 66 68 60 64 63 65 67 83 84 92 102 105 116 113 115 126 128 122 122 129 128 126 122 120 114 106 88 110 112 51 11 27 91 96 82 78 82 82 80 80 79 76 68 75 79 89 85 85 88 91 89 91 86 84 101 54 9 124 113 115 81 75 69 63 58 53 62 75 90 92 101 96 96 100 99 99 106 100 105 101 101 110 102 98 93 80 75 67 62 62 65 65 61 61 58 60 73 80 87 89 99 100 108 113 108 108 116 122 124 119 126 132 127 126 126 116 113 99 89 106 121 77 10 27 93 92 84 79 81 76 82 78 81 77 77 91 100 86 89 95 86 94 89 94 82 79 97 53 17 131 113 117 90 73 75 65 61 56 53 52 59 61 72 69 71 76 79 84 79 78 75 81 75 78 81 66 66 60 56 62 64 57 57 59 57 69 75 80 89 93 99 103 103 104 111 113 108 110 117 119 122 130 127 133 126 124 125 114 110 93 94 114 111 107 44 20 80 92 94 90 80 82 81 78 86 85 97 105 101 87 100 96 93 88 86 90 85 72 96 54 34 125 111 121 85 73 77 74 63 61 58 53 54 45 53 52 54 57 63 59 62 62 63 61 66 62 54 61 58 56 56 59 54 61 59 63 75 84 86 88 99 101 98 107 106 108 111 113 109 112 116 118 130 133 131 126 128 127 124 115 105 91 101 112 113 109 54 37 81 84 85 95 90 86 88 83 78 