P2
92
112
255
118 114 117 115 117 117 116 119 114 116 114 114 117 115 115 115 115 118 115 116 110 103 107 102 94 102 113 96 86 78 77 77 85 92 95 92 98 86 81 92 79 61 67 68 65 73 70 61 64 50 48 42 53 58 54 42 55 43 46 47 44 50 61 67 77 95 89 106 102 102 108 102 92 106 105 115 112 112 113 110 117 109 109 114 109 114 110 112 110 112 112 105 115 114 114 116 113 116 117 113 116 114 117 118 116 114 113 117 113 116 115 114 110 110 105 111 97 86 87 76 79 82 95 107 100 87 87 80 80 75 67 61 72 55 64 47 47 56 58 51 52 55 45 35 43 47 40 47 41 44 43 45 41 44 44 54 59 91 86 102 102 92 90 80 80 89 89 88 103 107 112 106 117 105 114 110 111 114 110 111 113 109 112 104 117 115 114 116 115 115 118 115 116 115 116 116 114 114 118 118 115 114 113 117 112 111 102 98 67 75 88 91 91 96 91 92 84 70 74 73 57 58 57 57 50 48 61 44 34 44 44 49 32 38 41 39 43 28 37 55 43 36 39 43 33 45 34 43 44 77 94 101 88 82 87 86 94 87 84 81 76 94 104 108 113 113 108 113 109 113 107 113 113 110 110 112 117 117 116 116 116 117 118 115 115 120 115 116 113 114 118 116 113 115 121 107 101 83 78 73 93 115 119 111 107 103 103 89 91 71 68 65 54 50 52 41 46 48 44 36 36 33 43 40 35 22 34 25 45 20 32 41 41 32 35 39 35 45 31 36 46 62 89 96 85 85 90 85 85 87 84 83 80 70 79 96 110 111 115 107 115 107 113 110 110 110 111 110 120 111 118 116 116 120 117 116 113 116 116 115 116 117 115 118 111 113 103 77 60 56 79 84 92 99 100 92 94 88 89 91 68 73 63 70 61 53 46 37 32 40 42 27 25 33 34 34 34 28 26 20 36 25 31 38 40 33 36 33 30 45 36 34 53 56 71 74 89 89 88 89 87 93 93 95 101 85 66 73 101 111 114 105 115 109 110 111 109 111 110 107 116 115 115 119 117 117 116 116 117 115 120 117 118 116 113 123 112 104 84 62 79 68 63 70 69 85 89 93 77 83 73 57 49 39 39 43 44 43 44 49 37 31 29 39 18 30 27 37 32 20 34 17 32 28 32 40 37 37 34 25 34 35 38 36 33 47 56 72 73 92 84 95 93 92 98 102 97 96 94 83 68 89 110 113 110 109 110 109 107 107 112 113 117 115 115 118 116 114 117 116 119 114 117 118 114 114 112 120 107 84 74 68 59 50 47 62 73 78 80 73 71 64 52 47 37 37 29 32 19 25 30 34 32 32 24 38 25 20 35 34 28 25 31 25 30 31 33 42 32 31 33 27 35 30 47 24 35 36 50 66 73 98 86 97 86 80 85 87 97 103 88 107 78 73 97 111 109 106 104 103 105 112 110 113 117 115 117 116 116 115 115 117 114 117 115 116 115 116 111 89 71 58 53 45 46 51 52 59 72 71 73 70 68 61 64 54 50 44 34 49 29 44 27 28 29 20 31 33 30 20 37 36 38 26 33 23 39 35 32 44 32 36 27 32 34 24 46 30 25 37 46 57 72 77 94 96 86 81 84 76 77 85 97 87 99 82 79 93 95 102 110 108 108 113 106 110 115 115 114 114 114 119 113 118 114 117 116 119 116 111 92 76 42 47 36 41 45 52 70 95 99 95 99 100 83 79 82 61 57 57 43 36 36 38 28 28 23 27 31 38 33 33 38 38 35 44 32 38 42 38 40 39 32 43 34 29 43 30 38 39 35 45 52 62 82 87 87 88 95 89 94 81 79 85 82 87 93 96 78 82 98 112 108 112 105 115 108 113 114 116 117 116 117 120 117 116 114 114 119 117 114 83 58 35 37 31 31 38 50 74 82 105 99 107 103 96 95 72 67 50 48 55 40 41 33 34 37 29 31 36 32 46 44 39 48 45 48 44 44 45 50 42 40 45 33 46 43 33 50 43 36 52 53 65 77 88 87 92 88 82 88 94 93 88 78 78 74 73 87 101 88 69 88 106 107 108 111 114 109 112 116 115 116 114 116 116 116 114 116 115 112 116 85 52 38 26 35 29 46 42 53 61 72 71 82 67 67 52 53 42 59 46 43 40 23 34 32 35 40 42 44 52 46 63 50 56 60 71 57 57 49 55 60 52 53 49 45 40 40 52 54 44 42 52 62 61 68 73 69 80 80 88 79 93 94 94 83 75 69 71 74 84 96 85 73 94 109 108 112 110 108 113 115 114 115 115 116 116 116 115 116 116 112 92 48 35 37 33 42 41 39 45 52 47 57 64 69 75 69 57 63 54 63 43 35 33 35 35 35 45 50 56 59 69 65 71 67 66 78 76 74 61 60 66 65 71 65 60 53 51 50 63 48 44 44 46 40 46 49 49 58 73 80 98 94 99 91 95 87 84 72 72 75 65 88 95 71 75 102 108 114 108 109 108 114 115 120 116 116 114 117 117 118 114 107 61 20 36 26 31 30 38 38 48 57 58 56 67 80 83 61 49 59 49 35 33 39 48 50 54 53 64 70 76 77 87 93 85 94 87 84 88 96 79 79 84 75 90 82 69 69 65 71 67 59 56 58 55 57 55 48 53 49 56 77 82 84 87 90 83 80 84 74 78 74 71 72 79 90 72 78 106 110 109 112 113 113 116 116 115 116 118 112 117 117 115 77 44 26 36 29 25 40 30 47 44 48 52 48 59 66 70 49 50 49 39 39 57 58 58 74 71 89 90 94 98 105 102 113 113 110 104 105 97 104 103 92 96 81 95 95 80 81 69 68 71 70 66 67 65 63 78 71 76 65 65 66 68 71 78 80 74 70 80 73 69 70 72 66 67 77 80 65 88 101 112 109 110 120 119 117 115 116 115 116 114 124 104 49 38 33 33 27 37 35 37 39 45 51 61 55 65 51 52 57 46 56 64 60 75 85 90 93 108 109 113 118 127 131 136 135 139 135 140 131 127 121 122 118 118 114 99 101 104 96 92 85 70 75 85 87 79 77 75 76 69 73 75 70 68 74 73 66 70 69 80 74 66 68 71 62 60 74 70 65 67 68 85 102 107 118 114 118 116 118 113 115 118 118 93 45 40 34 34 30 38 34 35 39 51 57 62 61 61 56 57 68 68 75 83 89 95 108 115 127 130 138 139 146 151 153 155 154 156 159 162 153 150 144 145 145 135 130 122 107 119 115 112 99 109 94 95 97 100 93 79 79 73 64 54 62 52 66 80 63 67 68 73 73 71 74 75 67 67 74 83 70 67 78 85 84 88 115 116 116 116 119 116 116 112 92 67 43 36 34 39 41 40 29 47 50 51 58 63 77 60 73 68 84 96 97 107 115 123 136 146 151 157 163 163 166 171 178 170 171 170 172 178 166 163 160 163 162 156 147 141 131 139 135 128 121 122 120 115 109 105 106 100 94 91 76 53 40 38 35 43 45 62 66 71 67 74 70 72 71 69 64 80 84 66 69 106 103 101 116 114 116 116 117 106 92 71 47 46 50 37 36 44 43 31 38 54 57 58 66 78 90 78 86 87 97 110 115 133 140 150 152 169 167 176 180 182 187 182 189 187 186 184 186 184 181 176 175 169 172 170 162 158 153 151 148 141 142 136 126 130 131 116 112 106 101 108 91 76 50 34 21 19 32 34 45 58 67 68 72 73 80 65 62 70 71 73 56 92 113 109 117 114 117 118 101 71 49 39 34 41 44 41 30 42 38 42 39 61 59 66 75 89 90 85 100 99 111 127 141 153 160 168 171 179 184 187 189 193 190 194 195 191 191 189 192 190 184 183 178 179 174 175 169 169 162 161 157 149 151 151 135 137 141 129 127 118 106 114 103 103 72 49 26 16 22 27 35 46 49 57 65 77 79 75 72 72 59 70 65 64 105 111 118 115 115 117 86 50 30 40 36 39 32 39 41 39 43 42 53 59 73 73 86 98 92 112 115 133 144 169 173 184 186 191 193 194 193 194 198 197 195 195 199 194 197 196 192 195 193 192 188 188 188 185 180 176 174 170 168 165 162 157 156 149 153 144 143 137 119 114 115 106 100 83 68 34 22 26 20 42 49 54 55 65 69 66 76 73 62 65 72 50 83 112 117 116 119 112 67 29 30 32 35 37 38 49 47 40 45 52 54 68 68 89 98 110 127 136 151 160 176 183 186 193 196 195 199 200 198 198 200 199 196 196 203 200 200 199 196 195 194 194 192 189 193 191 186 183 185 178 176 176 173 166 158 156 162 151 153 150 141 128 112 114 103 88 83 71 76 50 38 34 47 53 55 61 62 67 65 68 69 50 66 63 66 99 113 115 126 96 43 28 18 30 28 33 48 51 43 41 45 53 61 84 94 114 139 150 160 162 170 185 186 190 192 198 200 199 201 203 200 199 198 201 200 197 203 203 201 200 199 195 194 194 195 196 192 196 188 186 187 186 187 183 182 174 166 163 158 163 162 166 157 152 132 117 106 91 68 40 37 65 59 54 56 58 57 56 65 63 69 69 69 59 52 57 62 88 110 121 119 72 35 26 23 30 22 34 35 41 45 37 58 66 85 106 124 153 167 172 169 171 182 190 191 193 196 200 201 201 203 203 202 202 197 200 201 199 201 203 203 202 196 192 197 194 196 194 194 195 191 191 185 187 190 187 188 185 175 168 168 166 170 169 168 162 151 135 119 100 92 54 36 23 22 38 55 58 52 55 58 68 59 61 62 64 59 53 64 68 120 124 104 35 26 26 21 28 28 33 41 45 39 47 71 91 113 131 157 172 180 177 170 182 186 189 192 197 196 199 202 202 202 203 203 202 203 201 201 201 200 202 204 202 197 193 196 199 198 195 194 194 193 192 191 189 190 186 189 189 183 177 168 171 166 170 174 172 157 150 128 123 105 76 44 29 19 17 35 49 52 60 41 68 61 55 61 59 58 62 67 49 120 117 67 25 17 31 26 26 39 37 45 34 43 79 104 117 144 162 171 179 182 180 179 184 187 189 189 198 198 203 203 204 203 203 205 205 202 201 201 202 197 202 201 204 201 195 200 199 199 195 195 195 194 192 192 190 189 186 193 190 189 184 180 174 171 174 171 176 164 157 139 129 127 102 60 44 28 20 20 46 60 51 54 52 62 60 51 53 58 56 71 77 124 97 39 27 27 26 37 32 45 37 43 25 75 106 124 135 158 176 176 178 182 185 182 186 189 187 192 196 201 202 204 205 203 203 203 204 202 203 202 199 199 202 201 202 202 200 197 198 197 196 192 196 195 192 193 193 186 187 190 189 189 187 189 182 183 171 171 174 165 159 142 129 134 126 87 45 38 21 22 31 66 60 51 55 48 57 45 59 51 59 51 79 122 71 29 35 29 39 35 36 34 42 45 62 113 137 139 152 167 173 178 178 187 185 184 189 186 191 190 195 201 200 202 202 202 202 201 201 202 202 202 199 200 201 202 202 202 201 197 195 194 198 192 194 191 194 192 192 189 185 190 188 188 191 187 188 185 180 177 173 165 154 149 133 137 141 115 70 34 38 36 18 60 79 43 63 49 45 50 44 50 48 55 62 109 45 23 42 41 35 33 40 42 50 66 94 132 151 154 161 170 171 181 186 187 186 185 185 187 190 193 196 199 201 202 202 202 202 201 201 201 200 202 200 201 200 200 202 202 200 198 197 192 193 191 193 190 192 194 193 190 189 187 189 190 190 191 187 188 187 185 172 171 156 148 141 139 143 124 93 57 41 40 33 39 74 57 50 52 45 38 45 56 44 49 51 80 35 36 49 35 31 35 55 51 49 79 109 142 158 165 169 175 181 183 186 188 186 186 189 189 191 190 196 197 200 200 200 201 198 202 199 201 201 201 202 202 200 200 200 200 198 197 198 193 192 193 193 193 195 192 193 192 190 191 191 187 191 192 190 191 188 187 178 171 158 147 142 142 142 135 106 79 44 48 49 24 54 65 47 42 53 39 39 43 59 40 53 68 29 56 62 29 40 41 62 52 52 82 118 153 160 169 173 177 185 187 186 186 187 189 191 191 191 192 197 197 195 198 199 200 200 201 201 199 201 201 202 200 203 198 198 199 199 194 196 195 197 193 193 194 192 192 192 194 189 191 191 189 191 189 194 190 192 191 190 176 167 143 146 145 139 131 114 91 58 44 60 40 45 53 58 42 34 39 45 33 46 46 43 85 30 70 56 26 41 47 59 49 49 94 129 162 163 172 176 179 185 189 188 191 190 191 195 191 195 194 199 197 199 200 198 199 200 199 202 201 202 200 202 202 202 198 195 198 192 198 197 197 194 194 193 195 193 191 193 193 189 193 193 190 190 191 194 194 194 193 191 181 166 148 149 147 146 132 110 94 74 50 51 60 51 42 54 53 31 35 45 40 36 50 47 118 67 73 51 36 25 55 44 41 67 109 146 164 167 169 177 180 186 189 188 192 192 195 193 195 195 199 201 198 201 201 201 198 201 201 201 200 199 201 201 202 199 202 195 199 195 193 198 195 192 194 193 194 193 194 194 192 192 195 194 192 190 194 192 194 193 193 193 181 166 156 147 149 146 134 118 105 72 63 55 81 69 46 40 43 46 37 27 43 35 37 48 118 107 61 33 32 42 44 39 37 78 128 153 165 163 174 175 182 188 186 187 193 193 194 193 195 198 199 200 201 201 202 202 199 201 203 201 201 200 201 200 203 202 200 196 199 196 196 194 195 193 193 194 196 192 193 193 194 190 195 193 193 192 192 192 192 193 190 187 176 164 162 151 148 147 138 121 108 84 76 68 73 82 58 38 41 32 45 26 29 34 38 47 112 119 61 20 37 50 38 35 40 92 152 157 162 165 172 177 184 189 187 188 192 192 193 194 198 199 201 200 201 200 201 202 202 201 201 204 201 200 200 203 203 201 201 199 198 198 196 196 195 196 196 194 194 190 193 194 195 192 194 192 193 193 194 193 192 192 189 187 177 168 163 157 149 155 154 116 106 103 81 84 77 84 78 39 48 30 38 31 24 28 40 37 111 123 55 24 40 46 31 43 51 116 156 163 162 169 173 181 185 188 191 192 193 193 192 188 198 198 198 198 201 201 201 201 198 201 202 203 200 198 202 203 202 202 202 198 201 197 198 197 197 196 195 193 196 190 192 193 193 193 196 192 192 193 194 193 193 190 188 186 179 171 165 159 153 152 156 133 103 99 87 98 80 80 79 49 29 45 23 42 39 20 29 40 114 127 46 26 46 37 33 42 71 132 161 163 165 168 175 184 184 188 193 196 191 192 192 189 191 193 197 196 199 198 199 197 200 202 203 200 199 199 202 202 202 202 201 201 199 198 199 199 195 192 194 196 194 192 193 193 192 192 195 194 191 192 196 195 189 187 185 185 174 165 162 160 161 153 151 142 117 88 83 93 92 63 98 63 21 48 29 29 35 30 28 38 118 121 49 38 40 38 45 28 101 149 161 164 167 168 176 176 185 190 194 194 194 193 189 189 191 187 190 194 197 197 195 194 196 201 198 198 196 202 198 201 203 200 199 199 198 195 195 197 195 194 190 194 194 190 192 192 191 192 198 193 192 193 195 193 190 189 185 181 173 170 161 164 161 155 153 143 131 95 81 92 102 78 91 83 29 36 45 29 20 46 22 31 115 124 49 39 44 38 30 47 128 158 164 166 169 173 175 180 183 190 194 191 192 194 190 191 189 185 189 192 192 192 192 193 193 197 196 193 197 198 199 200 201 198 196 197 195 196 194 194 192 191 191 190 191 187 189 190 191 190 195 193 193 193 193 190 190 187 184 179 176 168 164 159 164 153 150 150 131 96 78 81 99 77 86 77 37 41 43 43 24 34 36 26 119 122 52 48 46 39 26 51 149 162 167 168 167 173 178 182 176 179 181 184 186 189 185 190 183 185 182 187 187 186 190 188 189 193 192 196 197 195 193 197 198 193 192 195 190 193 189 194 188 190 188 184 188 189 190 188 186 191 193 194 191 193 191 189 190 186 185 177 174 163 169 167 155 155 149 147 146 93 74 70 85 84 77 69 55 25 51 48 43 31 35 20 125 101 67 53 44 40 17 89 156 162 164 168 170 170 176 177 163 168 166 165 166 171 164 170 170 171 177 179 174 175 185 181 184 187 188 190 189 190 192 191 191 191 190 186 189 192 186 185 185 184 187 180 182 183 188 185 185 183 180 187 189 188 189 183 181 185 180 179 168 165 167 164 159 156 152 151 147 113 77 68 68 83 71 65 64 28 62 32 56 36 41 25 122 100 63 51 36 39 21 117 161 158 165 164 166 163 170 162 157 163 153 147 144 142 139 139 135 136 145 153 160 165 172 174 171 176 177 184 184 182 186 187 185 184 185 185 187 185 185 178 180 174 175 171 167 162 165 160 170 167 160 165 171 173 170 169 172 174 169 176 169 172 167 164 162 156 157 149 149 125 86 67 63 70 68 59 59 38 51 44 48 49 37 21 126 93 63 64 42 35 41 142 160 164 160 143 129 129 140 132 130 129 125 145 127 121 111 111 100 88 96 98 112 137 142 151 157 161 170 173 175 175 179 177 181 181 176 176 177 171 167 164 162 155 137 140 130 119 112 123 132 133 139 139 139 143 147 146 153 159 165 166 163 170 165 164 159 159 157 150 146 134 97 77 61 53 62 56 59 38 36 50 44 48 41 23 156 112 71 59 47 30 62 156 154 131 99 93 98 109 120 126 122 113 122 174 192 185 192 190 180 162 152 148 156 169 183 184 185 176 184 179 180 178 182 177 186 166 161 167 163 160 143 146 141 131 112 110 95 86 89 89 96 97 112 120 125 127 128 134 138 150 156 156 148 154 167 163 159 158 156 146 143 140 103 83 66 48 52 51 54 42 35 39 33 41 43 29 94 102 95 64 41 23 101 139 108 98 88 144 157 149 158 156 144 134 118 99 88 69 55 44 46 48 48 63 76 86 94 97 97 135 157 159 150 154 150 162 162 166 161 166 161 148 141 136 133 122 117 107 100 107 97 96 102 93 99 97 109 100 95 104 130 140 153 154 148 140 152 161 159 157 150 148 150 139 115 92 68 49 48 46 50 43 35 34 37 36 37 31 49 70 134 83 43 39 101 107 119 99 57 151 150 147 148 148 142 134 124 120 106 94 98 92 82 87 80 84 87 88 91 93 70 38 138 148 153 159 160 159 148 145 139 131 115 61 72 90 102 97 96 98 92 105 96 94 102 98 107 112 112 104 93 80 87 73 91 112 139 144 152 152 152 156 147 150 146 141 121 96 82 57 44 37 49 42 37 29 45 36 46 28 68 54 145 119 52 41 72 126 132 68 89 160 146 140 137 142 140 135 131 134 106 70 171 183 119 86 89 101 99 100 93 104 125 72 60 148 161 175 181 182 175 171 162 146 67 97 122 124 115 111 87 97 83 85 79 74 80 76 93 113 118 136 139 141 146 134 124 95 84 81 121 149 147 150 147 144 144 143 131 105 95 56 39 44 43 37 49 20 46 47 34 40 96 107 121 147 75 28 109 131 118 67 116 149 133 136 133 129 127 122 113 110 99 50 144 197 121 72 72 94 109 86 105 200 143 123 26 115 168 178 188 188 184 170 172 92 72 129 122 117 108 102 98 106 76 121 203 158 72 106 108 125 120 134 145 139 144 148 145 145 138 127 87 83 137 142 145 141 142 144 139 112 106 62 37 39 41 39 37 44 38 47 38 38 129 139 124 146 76 57 140 113 119 77 137 144 124 130 124 116 103 100 104 115 124 129 128 132 112 81 69 56 64 107 78 141 136 119 39 97 168 180 185 188 185 175 167 54 111 126 110 106 99 85 76 85 54 77 171 161 90 115 128 140 104 146 198 160 122 144 135 141 141 143 152 84 57 153 142 138 139 153 134 125 108 68 42 37 41 39 38 47 46 39 49 37 138 158 120 132 103 106 121 89 87 74 152 145 126 124 118 92 85 124 134 125 111 97 113 114 121 112 91 84 54 106 122 79 84 122 50 77 158 163 173 168 161 157 140 42 130 124 112 92 89 80 77 77 75 73 103 114 100 114 115 103 116 98 153 152 102 121 126 131 126 141 136 158 67 78 149 130 141 144 142 131 122 69 38 33 44 36 35 45 56 50 57 57 146 178 105 153 207 147 83 65 56 73 159 142 134 122 99 85 102 112 96 94 70 30 72 56 80 89 99 111 122 104 106 115 104 119 52 24 63 62 77 90 94 92 86 69 128 121 98 88 84 85 93 97 108 126 142 163 156 165 142 127 170 153 105 93 109 101 117 131 119 132 135 149 140 33 138 133 141 143 144 140 116 54 34 35 36 36 34 51 68 65 60 70 139 167 122 127 135 151 92 112 99 91 161 153 140 126 115 101 95 73 90 125 82 50 42 73 96 88 101 115 126 107 99 110 125 154 59 76 117 156 165 156 125 111 53 63 125 127 115 114 114 112 110 116 100 131 136 122 127 113 97 118 114 138 143 138 107 104 107 117 114 129 136 135 157 79 79 153 142 135 126 93 59 42 58 49 64 53 60 80 89 86 67 40 143 157 163 168 98 144 116 118 112 95 154 160 151 128 120 107 112 117 115 137 107 48 72 64 110 112 113 127 112 108 117 123 134 166 47 66 117 150 174 166 155 160 98 47 126 138 135 118 107 106 108 122 113 123 121 90 104 105 93 116 78 107 106 125 130 109 101 120 124 132 136 136 143 126 55 136 120 95 69 65 75 85 91 81 96 82 86 97 107 100 75 40 138 150 160 163 110 141 113 117 119 115 123 162 148 133 130 134 121 135 142 137 143 83 89 110 122 148 157 151 130 123 121 160 163 155 31 65 139 179 198 188 178 153 83 54 97 122 143 133 108 102 113 109 98 138 146 108 100 87 85 77 73 128 107 68 102 105 101 110 108 131 135 132 138 151 148 147 141 58 85 118 129 126 106 96 113 110 103 103 109 117 95 39 142 152 154 131 75 156 123 100 138 137 82 148 150 145 154 157 135 130 123 137 131 137 125 128 133 140 147 140 127 138 145 157 163 113 20 99 176 194 198 195 189 189 107 50 92 100 139 140 137 119 121 109 102 169 171 133 131 103 89 86 88 133 128 94 104 93 100 114 126 123 131 122 115 144 129 128 106 97 145 140 136 133 116 98 126 113 121 99 116 132 100 38 144 150 144 122 62 155 125 93 146 153 85 131 166 170 157 158 146 139 135 130 113 125 118 114 113 105 104 106 106 130 141 149 110 64 40 137 186 188 191 189 188 192 146 32 98 71 104 141 138 111 132 132 124 159 164 151 123 100 83 94 121 149 144 125 118 115 98 108 122 122 111 104 108 160 70 103 132 141 148 141 135 130 120 103 122 116 121 101 118 136 118 40 139 148 130 126 76 141 139 96 123 164 95 131 183 188 169 144 139 133 145 140 141 140 133 135 119 111 106 102 109 113 124 133 91 27 104 173 200 200 192 187 187 188 181 57 87 70 86 114 135 154 144 129 120 129 121 136 138 121 116 126 131 130 136 132 131 151 138 125 111 115 114 112 143 163 55 146 157 149 150 138 131 132 118 109 121 118 113 125 118 134 131 55 140 151 132 131 90 120 160 96 101 162 113 135 187 190 169 138 136 137 137 147 139 143 138 140 124 118 114 108 111 112 126 132 77 68 150 184 203 203 189 185 187 177 180 113 63 124 101 108 123 151 141 122 111 106 104 107 113 119 114 122 115 133 137 150 147 149 146 137 123 114 122 138 156 156 41 166 161 150 151 136 129 126 119 114 120 112 124 135 126 132 139 65 142 154 145 144 131 86 186 115 89 154 130 146 185 181 153 147 144 138 143 144 145 145 142 138 139 129 118 119 125 132 143 105 75 151 157 184 205 203 185 180 188 173 160 166 48 128 126 118 116 141 146 123 115 110 114 119 123 129 128 131 129 129 142 158 147 142 135 140 140 141 151 156 162 138 56 174 157 152 144 139 128 123 117 120 118 93 100 136 124 132 142 63 146 157 147 143 144 82 159 160 92 144 134 151 174 165 151 147 147 143 145 139 138 141 141 133 129 129 131 133 140 146 125 54 132 160 171 195 209 204 189 183 185 170 154 164 114 58 168 133 120 128 139 132 124 121 121 118 127 127 126 133 131 132 138 139 138 135 133 143 160 173 166 164 175 115 88 177 155 147 144 133 125 122 115 119 111 58 61 93 114 123 140 79 144 158 162 152 130 126 81 203 138 140 138 138 160 164 157 155 151 149 143 142 136 134 132 135 136 137 141 145 147 142 61 90 155 162 189 202 208 198 192 189 190 172 156 151 173 68 108 172 126 132 132 137 128 122 124 129 133 133 135 138 137 139 144 149 141 135 132 152 168 179 174 168 180 83 134 167 149 142 141 132 124 122 119 118 99 54 71 90 103 117 131 104 153 170 177 160 117 138 132 94 199 171 159 135 153 156 163 156 156 157 149 149 146 144 148 152 147 143 150 156 135 82 87 147 164 182 194 204 206 200 192 193 194 177 155 148 163 168 44 136 166 141 148 141 142 123 120 121 130 130 135 143 139 147 147 147 151 143 139 164 164 174 174 178 157 68 168 150 148 142 134 132 121 122 115 120 107 70 89 104 102 113 133 109 156 184 193 169 117 120 160 127 87 204 190 158 158 153 153 156 158 155 150 151 147 154 160 162 148 145 153 128 75 95 138 163 171 185 196 203 204 200 193 190 197 179 162 140 150 164 142 61 153 184 156 158 150 146 130 124 121 120 125 133 141 143 145 145 152 152 151 164 169 173 169 185 111 105 169 145 146 136 136 128 125 118 113 121 127 88 89 104 103 101 136 105 149 186 187 182 122 119 140 148 144 80 153 204 188 176 170 165 160 157 152 154 156 154 158 148 153 138 105 91 116 140 152 169 180 183 197 205 198 198 190 189 198 192 169 140 138 154 157 137 67 156 203 163 161 163 151 147 136 128 135 136 142 145 144 143 150 162 162 165 167 175 194 148 82 164 159 140 140 129 127 132 120 124 112 122 137 123 99 104 99 111 130 113 132 170 177 193 130 118 139 147 150 136 87 74 169 194 194 197 190 183 180 177 178 164 158 136 108 109 116 119 140 151 154 176 184 187 195 203 202 190 190 192 193 191 169 145 135 142 146 149 141 98 117 202 186 165 160 162 146 144 143 135 147 147 144 144 146 156 162 171 181 208 185 105 143 163 150 140 135 132 125 122 127 122 108 118 138 135 137 118 100 120 137 106 150 151 158 197 137 120 131 148 154 149 106 87 89 63 94 122 118 129 137 147 142 130 120 124 141 135 119 146 156 141 166 169 180 189 196 204 203 188 188 186 187 180 167 146 130 139 144 137 151 146 117 95 156 207 186 168 157 155 147 133 141 145 147 144 147 157 175 188 209 181 113 151 163 156 146 134 136 125 126 124 117 121 110 118 133 142 148 132 111 129 128 103 176 162 148 171 138 119 138 147 153 149 119 105 114 116 118 118 120 129 133 143 143 147 146 148 137 137 152 166 150 153 161 160 165 183 193 198 195 184 187 181 166 163 161 153 140 144 146 128 151 163 152 120 112 79 161 185 184 184 178 168 172 170 168 174 173 180 177 171 135 140 158 165 156 150 145 129 132 128 125 123 118 120 110 117 129 126 135 132 121 136 113 117 174 170 145 163 116 125 143 149 155 142 129 104 105 109 118 118 120 128 127 125 137 139 144 154 167 170 171 161 148 152 143 141 153 169 181 181 178 175 171 160 146 139 149 157 148 149 147 128 141 165 172 158 132 108 94 88 106 116 122 131 134 136 128 129 123 124 129 135 161 166 161 153 150 147 138 131 127 126 124 121 119 125 106 120 125 116 119 120 130 137 106 121 174 178 166 174 137 115 147 145 157 148 143 130 126 127 138 137 135 151 153 161 169 179 181 185 179 173 164 146 134 125 117 118 126 150 161 164 156 157 139 124 121 126 127 133 149 154 145 131 129 163 173 180 175 162 141 123 110 114 113 116 116 118 118 125 129 144 161 157 155 153 142 146 146 138 136 129 127 125 127 120 118 118 109 119 120 123 111 113 133 133 100 139 158 171 176 186 157 115 140 146 151 160 153 156 155 158 174 168 177 183 184 188 188 185 181 184 178 177 158 138 126 85 79 102 112 122 144 146 137 126 109 102 98 113 106 108 140 152 144 128 117 158 174 180 180 186 183 163 135 122 118 119 121 125 122 127 133 150 153 145 148 141 139 140 146 135 138 129 126 128 125 123 116 113 111 121 108 117 117 120 133 112 112 125 123 146 158 173 162 121 141 149 147 154 158 159 159 161 169 177 182 189 187 185 185 186 180 184 178 174 146 127 103 55 19 38 95 110 114 113 108 104 98 82 65 62 58 80 114 140 137 132 103 137 164 172 180 181 189 188 187 180 171 160 154 143 142 137 138 145 143 138 138 139 140 137 131 132 137 133 126 125 123 122 120 111 107 127 110 121 133 125 106 95 138 94 101 110 133 148 147 124 143 145 144 150 152 153 157 156 170 176 176 186 187 181 183 182 182 182 181 174 135 110 83 48 33 19 36 85 92 94 92 97 81 48 18 24 24 28 94 122 129 130 109 123 160 176 179 180 184 184 182 179 188 186 185 176 163 161 146 144 142 135 139 133 136 135 131 128 135 131 131 123 121 123 113 111 106 129 134 127 130 122 100 115 134 78 96 99 99 110 116 122 144 142 146 151 151 148 153 158 168 174 175 181 181 180 179 184 182 184 179 172 134 98 87 55 56 29 37 64 86 77 91 94 70 64 36 18 29 12 59 115 114 120 113 121 163 173 174 183 184 181 179 180 185 183 188 185 179 174 166 156 150 144 138 134 128 137 125 128 131 132 126 124 117 117 114 110 105 114 117 111 120 125 120 131 124 51 106 99 103 102 84 121 139 147 146 145 146 147 151 154 165 172 177 179 175 177 175 178 176 171 169 167 149 91 93 87 92 88 99 81 72 80 80 88 98 96 51 35 30 36 50 92 110 114 108 109 145 172 168 172 180 180 180 175 183 183 183 179 180 174 167 166 161 156 143 135 130 131 126 131 131 133 127 125 119 115 112 108 117 120 116 121 121 130 134 136 76 54 100 103 105 106 99 113 138 140 144 142 143 148 152 151 161 172 172 175 179 175 171 177 171 155 154 158 160 108 78 83 114 136 130 113 81 73 86 86 105 112 105 73 60 66 59 81 101 112 104 106 138 171 172 174 178 181 179 173 177 181 181 176 182 176 169 159 164 164 150 145 134 127 125 125 130 126 127 126 115 115 111 101 129 123 126 125 123 134 135 107 48 55 101 103 104 103 96 113 134 134 137 135 144 138 149 150 156 157 165 173 173 175 171 173 166 164 166 163 167 140 75 63 66 126 138 134 110 88 89 95 106 107 116 117 97 86 77 76 91 99 102 107 136 160 175 173 171 179 175 175 177 177 180 175 176 174 162 160 158 156 154 149 138 126 128 121 122 127 118 121 115 114 106 108 129 129 122 121 120 125 116 64 46 61 103 101 102 104 98 111 127 135 137 135 139 134 151 151 158 151 161 160 170 167 171 167 167 175 172 166 163 161 116 93 106 111 137 139 127 105 92 98 111 104 103 100 96 78 67 69 86 102 108 112 131 158 175 164 171 181 170 178 173 175 172 173 175 167 157 157 151 147 146 147 137 131 121 123 120 126 116 123 112 109 109 111 124 117 117 107 110 103 72 55 56 58 102 103 103 98 100 102 132 124 139 135 134 140 145 151 150 157 162 158 164 164 170 167 168 177 175 165 163 166 155 152 159 123 140 141 135 122 99 104 116 108 109 110 98 91 78 91 105 117 121 128 132 158 169 165 171 175 167 171 176 168 165 163 164 163 154 159 144 143 149 145 137 129 129 121 128 120 115 121 114 108 111 111 110 100 96 91 91 67 52 57 62 59 102 100 105 101 92 114 115 128 131 135 134 139 143 147 148 150 154 156 160 161 163 166 169 171 175 172 167 162 155 143 153 136 142 145 144 130 111 113 115 116 114 118 109 117 111 124 122 119 131 132 137 160 166 169 170 172 169 168 167 162 158 158 157 154 153 153 151 150 145 137 135 128 125 123 121 122 113 118 115 110 107 93 69 69 70 69 55 63 55 59 59 58 99 103 100 101 100 109 118 122 131 140 138 139 143 150 153 150 146 155 155 159 155 161 168 169 171 166 169 160 163 137 147 138 157 156 145 136 125 128 130 121 119 122 117 123 119 131 137 134 137 143 141 161 167 172 167 168 172 168 163 162 153 157 160 145 156 158 147 146 145 135 130 124 125 119 121 117 113 114 114 116 97 59 54 53 67 55 63 50 64 56 62 57 102 101 100 107 99 102 119 119 127 138 141 138 146 145 144 147 143 151 148 146 151 157 157 167 165 159 161 159 161 147 154 144 155 163 146 139 136 139 151 142 132 134 125 124 136 140 146 150 154 159 156 164 171 169 168 165 165 162 162 160 155 157 148 146 149 146 145 138 144 137 125 127 120 119 119 113 114 113 109 122 80 50 55 62 60 50 65 53 60 53 63 59 99 100 100 102 93 107 117 122 127 135 140 139 144 147 137 146 150 143 148 140 151 156 159 159 159 153 155 158 159 156 158 152 162 164 152 153 152 149 158 154 141 145 142 140 144 146 157 152 160 165 165 163 172 165 163 160 157 149 153 158 153 151 144 150 149 145 140 137 143 129 127 122 118 115 115 118 114 114 110 125 55 47 61 58 53 56 63 55 62 50 61 55 96 102 102 104 94 103 126 117 128 135 133 137 142 142 142 142 142 141 138 140 151 145 148 152 152 153 154 158 157 156 159 167 174 175 163 170 172 166 171 160 158 142 148 156 155 148 155 164 165 161 155 161 164 164 159 163 156 147 148 158 158 146 143 148 149 143 143 136 131 132 127 119 119 114 118 114 118 111 117 104 48 58 54 55 61 52 63 55 59 56 59 54 100 100 100 104 95 103 117 124 126 128 131 140 138 140 144 139 131 138 138 140 138 141 141 144 152 152 154 164 162 164 169 175 187 185 180 179 187 184 183 175 173 162 157 162 158 151 162 165 156 160 156 158 161 161 161 157 152 149 153 159 151 148 144 142 147 141 137 137 129 130 120 119 117 121 112 118 116 112 115 93 48 55 57 55 56 58 61 57 54 62 55 57 99 99 103 103 92 103 112 121 127 127 132 133 138 140 139 134 130 129 131 127 128 136 135 137 148 153 157 164 174 159 152 135 136 160 181 187 192 178 174 176 183 174 170 166 154 157 162 154 151 159 157 156 152 151 151 143 145 144 146 145 144 140 143 141 142 137 136 134 126 127 121 117 117 113 115 116 113 117 114 57 53 58 60 54 62 59 52 59 55 59 61 59 99 97 99 103 102 93 114 114 126 125 131 136 135 138 141 134 131 130 125 115 113 121 121 126 138 139 140 130 117 86 73 65 57 69 97 121 116 96 85 100 129 157 164 168 169 168 154 147 150 151 139 147 146 139 148 138 141 136 135 135 136 143 134 145 135 135 138 130 119 119 122 119 115 113 117 119 113 117 103 48 56 53 58 55 62 58 53 61 54 61 55 56 99 97 100 103 99 96 104 124 116 122 128 137 139 137 138 130 131 131 120 104 103 97 95 104 117 97 84 73 64 52 69 69 74 85 83 79 77 75 67 76 67 78 98 143 156 165 147 149 145 141 135 133 133 125 134 130 128 124 126 130 138 140 137 139 137 133 133 126 126 118 121 117 118 111 119 121 109 122 74 55 53 55 59 57 58 57 55 58 58 58 53 66 102 99 102 101 101 95 100 116 120 120 124 134 135 138 143 138 130 122 113 98 79 69 63 69 55 49 48 56 49 48 63 53 52 73 79 71 68 69 72 82 83 74 61 44 92 117 129 128 126 128 123 123 121 116 114 116 114 120 108 119 125 133 132 136 133 130 127 128 127 118 116 111 117 117 119 111 116 109 61 48 58 53 61 57 57 60 51 60 56 60 59 63 101 100 99 100 95 102 92 113 119 119 122 128 131 143 137 133 130 119 105 87 82 73 52 46 41 41 40 47 46 46 45 59 39 44 59 52 51 53 54 62 63 68 61 53 48 63 70 83 99 105 101 97 104 100 96 102 108 105 108 111 121 128 135 131 132 123 128 124 124 115 117 114 112 116 114 117 117 97 50 53 60 59 57 55 55 61 54 51 62 54 59 60 98 99 100 105 98 100 95 104 113 117 123 130 128 138 138 133 137 119 104 106 114 115 107 100 86 73 67 83 89 103 108 128 131 121 113 82 62 66 72 62 47 64 46 48 55 50 50 46 48 67 61 69 74 72 75 80 94 96 105 114 116 128 133 132 130 125 121 121 115 108 111 119 113 115 115 114 119 69 45 59 59 60 50 55 59 53 56 57 56 60 55 57 98 98 101 99 98 106 101 96 110 115 122 122 130 136 135 132 132 129 119 123 144 152 152 142 139 124 122 115 118 114 112 127 130 150 164 148 134 142 166 141 121 113 107 107 89 67 69 56 53 47 43 51 53 46 64 69 76 87 91 112 124 128 131 129 132 121 118 121 115 113 111 117 114 113 109 112 110 55 51 55 56 60 54 55 56 54 53 59 62 50 57 55 99 97 95 98 99 97 99 92 104 107 120 120 124 133 127 132 134 132 133 134 148 156 161 148 150 138 130 128 124 126 113 111 118 125 121 124 135 125 137 136 124 128 121 121 115 107 90 90 96 89 98 101 100 89 83 83 80 80 89 114 129 129 124 131 125 122 120 114 116 113 115 110 110 113 104 119 84 48 56 54 56 59 58 52 58 54 59 56 59 56 56 62 98 102 97 102 96 100 104 91 95 106 109 115 117 127 118 132 133 129 133 141 143 155 150 150 138 134 126 117 115 114 114 115 122 108 115 121 119 111 114 113 116 121 119 121 124 124 116 114 115 113 118 120 118 120 111 111 99 98 105 113 126 127 127 122 126 121 119 113 116 112 109 107 107 111 109 105 58 53 62 49 54 57 58 50 58 53 54 56 58 55 57 66 96 102 99 94 98 101 99 103 85 105 104 110 118 118 123 131 130 124 131 139 140 150 143 149 141 135 129 126 107 98 89 80 93 92 97 99 108 99 97 111 116 120 120 120 116 116 115 111 119 116 122 123 121 126 130 127 120 122 112 119 123 124 118 119 123 116 110 119 110 106 110 103 106 109 112 93 46 58 56 51 57 54 53 55 56 57 58 57 52 56 57 56 102 99 91 104 101 100 99 105 91 87 109 103 110 114 115 119 133 118 128 141 136 141 144 141 138 136 138 128 118 101 94 88 74 82 67 65 70 67 66 82 80 91 86 91 105 100 105 109 119 122 122 132 133 130 138 141 135 125 124 111 112 117 109 112 110 112 110 112 107 109 107 105 103 105 116 59 51 56 55 54 59 51 61 54 61 52 55 56 57 53 63 53 94 100 94 98 101 100 102 98 103 83 96 109 101 104 111 115 126 129 131 136 136 144 143 144 138 132 134 131 122 114 111 97 89 85 77 72 75 75 68 73 80 84 83 91 98 99 111 118 126 132 130 133 133 131 139 142 134 132 124 118 111 108 106 108 110 109 108 112 105 110 104 102 98 103 121 46 47 61 53 59 56 55 58 54 53 61 53 58 54 55 56 58 100 95 98 102 99 99 100 96 102 95 78 93 105 106 103 109 120 123 132 133 140 146 141 142 140 136 137 143 132 131 129 115 107 105 87 86 85 82 80 78 82 89 91 90 102 99 118 124 137 136 125 130 132 124 132 127 129 117 119 117 109 103 105 102 107 103 112 104 102 101 105 103 97 101 111 45 49 57 54 54 57 59 52 54 59 57 53 53 62 58 57 57 99 96 99 96 100 99 100 97 99 104 87 80 102 108 101 114 116 127 125 132 135 137 139 140 149 146 147 146 144 149 158 160 157 155 155 149 131 133 130 121 114 108 104 108 112 116 126 131 138 130 132 131 133 124 124 126 122 121 116 114 106 106 104 98 101 102 106 104 100 103 101 99 94 103 113 40 50 54 55 50 56 58 52 62 53 59 51 59 55 52 59 61 95 102 94 101 98 99 99 99 100 102 97 78 89 104 100 109 114 117 127 124 130 131 134 143 150 148 161 154 153 163 173 177 177 180 183 183 177 183 182 171 167 156 135 129 133 131 135 134 137 133 132 128 125 128 119 118 117 121 110 112 101 104 97 99 90 96 102 97 103 100 102 94 94 111 104 38 51 47 59 58 53 56 50 60 52 60 56 55 59 53 58 57 96 99 97 104 91 98 99 99 98 101 107 96 79 85 99 104 107 111 117 120 129 126 125 140 145 145 163 166 158 157 165 171 173 181 183 180 179 181 180 175 174 176 170 159 151 149 141 139 136 137 125 116 119 120 123 117 111 109 108 108 101 97 102 101 97 99 94 101 99 100 92 89 102 119 88 40 58 52 54 57 50 57 55 56 54 56 60 52 57 51 62 54 100 96 102 104 94 100 100 99 100 104 101 104 91 74 87 102 109 113 115 114 120 136 128 134 149 147 149 158 145 162 163 170 172 178 180 172 171 171 167 171 170 174 176 168 170 162 151 149 143 130 125 111 120 126 119 118 108 107 114 104 98 96 98 97 99 100 98 89 102 88 91 96 107 119 82 39 57 49 60 52 54 58 55 54 56 56 52 57 59 56 53 56 92 96 102 99 98 102 97 101 102 103 99 94 114 99 72 86 99 100 110 106 114 133 128 137 136 145 148 151 147 163 164 168 164 166 166 158 152 151 162 166 169 171 169 162 155 165 163 156 148 137 130 129 128 121 120 110 106 112 106 96 97 98 90 104 94 96 97 92 91 86 89 110 105 118 68 45 56 52 54 57 51 60 51 57 53 57 59 51 55 55 54 54 93 102 98 97 100 99 99 104 100 100 101 102 99 124 85 68 74 99 100 109 112 127 128 135 128 139 141 141 142 168 167 168 171 161 157 154 152 151 159 162 160 155 163 156 149 155 164 161 152 142 137 135 131 126 123 117 105 110 98 97 97 101 99 89 88 94 90 92 83 93 107 107 103 118 58 51 55 53 51 58 56 55 53 54 54 53 56 57 54 55 52 55 95 99 103 100 97 99 103 98 100 103 102 92 107 119 106 78 62 81 87 100 105 114 129 131 125 126 133 135 136 154 160 153 171 165 157 154 157 159 159 152 155 161 162 160 156 149 152 145 140 133 137 135 128 128 122 114 107 104 98 97 95 96 97 83 85 87 81 78 98 111 103 106 109 113 40 56 53 58 53 55 49 58 52 56 51 57 52 55 56 58 54 54 97 96 102 101 96 99 97 103 102 100 102 99 100 119 113 98 72 65 65 87 93 104 115 122 126 131 128 128 134 139 149 144 147 152 150 150 149 153 153 150 146 147 152 145 144 133 140 137 145 140 130 127 117 122 114 105 100 103 101 89 95 90 92 83 80 80 71 96 116 107 108 103 115 105 40 57 54 53 56 48 55 54 52 54 56 51 54 55 56 54 58 57 97 100 93 97 97 99 99 100 101 98 103 102 94 122 113 101 82 62 58 66 77 95 103 114 112 130 118 121 125 131 132 134 128 135 133 133 137 142 137 138 136 133 136 132 125 127 133 140 143 138 129 118 117 106 106 93 98 91 98 91 88 87 80 78 73 72 100 107 105 108 104 106 115 94 41 52 57 53 48 56 54 54 54 51 55 57 47 60 51 53 54 52 94 96 99 99 95 103 100 101 99 104 103 97 105 113 120 110 89 70 59 50 58 73 84 93 103 113 107 110 110 114 113 113 111 115 114 122 123 132 127 124 127 123 131 126 112 124 120 133 144 127 114 110 110 92 94 86 90 87 92 84 72 81 67 65 74 102 105 106 106 99 108 107 118 82 36 60 54 50 53 50 53 51 52 51 51 58 57 52 52 58 51 54 96 97 96 103 96 100 102 100 99 104 97 102 98 114 121 106 99 80 64 54 55 57 65 74 92 99 91 100 93 107 99 104 104 105 104 106 115 122 116 114 121 122 116 106 107 117 109 124 135 114 101 101 96 85 86 84 76 71 80 76 66 67 62 87 88 105 104 105 106 103 104 104 114 76 42 52 58 49 57 51 49 48 60 51 54 53 56 51 55 55 54 60 99 94 101 93 99 98 99 102 102 102 100 107 101 114 122 113 100 86 77 53 57 59 52 63 63 84 76 84 86 84 96 90 85 90 96 96 104 105 108 105 105 102 98 98 98 100 97 94 91 84 92 90 81 76 74 67 69 61 67 59 60 72 79 95 89 105 101 102 104 104 105 107 116 67 39 60 54 54 52 49 55 47 57 50 56 49 54 55 44 61 47 59 93 97 100 101 95 101 97 103 104 105 112 77 64 115 121 118 108 94 80 62 57 62 59 51 60 64 66 66 74 70 77 76 83 73 92 82 87 95 87 89 89 88 85 84 91 80 88 78 72 78 77 73 66 72 55 69 64 66 59 63 72 82 85 104 97 98 101 102 104 104 104 107 113 62 39 60 46 57 52 49 58 51 53 49 48 58 55 49 55 56 51 53 97 97 95 102 93 104 100 94 114 113 83 27 74 119 126 120 115 94 86 69 65 62 57 57 55 62 58 58 68 63 69 68 73 75 76 70 72 79 75 73 74 77 78 69 80 78 77 80 66 63 66 57 65 59 60 61 64 65 65 74 84 90 102 102 99 98 102 104 104 99 110 111 98 70 51 54 50 53 58 43 55 57 53 46 53 55 48 52 54 55 53 50 101 97 98 98 98 98 96 105 128 94 21 94 142 112 117 118 118 111 92 83 66 63 58 61 57 62 58 52 62 54 70 59 65 64 69 67 65 69 73 65 67 67 71 57 59 67 61 59 61 59 60 61 63 57 62 59 67 67 81 84 86 95 102 104 99 99 105 105 101 107 102 116 82 36 75 53 48 51 54 55 46 51 51 49 54 50 58 52 48 60 49 54 96 91 98 101 95 98 101 111 129 39 80 153 139 112 113 123 120 117 102 81 78 68 52 63 62 68 58 52 60 56 62 61 67 58 64 62 63 65 68 56 68 59 59 56 53 59 63 58 60 61 58 61 64 58 59 68 73 71 87 91 91 99 100 102 97 100 102 104 106 105 102 118 68 23 83 64 45 52 54 49 55 49 49 55 52 46 53 56 48 58 54 52 