P2
92
112
255
114 118 114 117 114 115 115 116 114 114 115 117 116 115 117 117 120 115 115 117 116 112 116 117 116 114 99 83 69 73 71 85 91 90 101 108 112 118 110 109 110 106 101 105 109 103 92 83 80 93 82 62 75 68 64 61 65 63 54 34 53 56 50 41 47 49 54 66 59 60 76 76 67 90 109 112 109 108 115 105 102 106 113 107 111 109 112 111 110 109 112 112 113 115 117 114 117 113 115 119 115 114 116 116 119 114 112 117 116 114 116 120 118 113 119 115 105 83 64 64 60 57 66 77 75 77 81 93 101 112 113 117 117 113 101 89 87 78 63 64 57 59 65 69 56 51 57 57 48 61 54 34 32 44 56 42 39 47 53 58 56 66 73 65 61 86 89 105 107 111 104 103 108 111 113 109 112 110 110 114 108 113 108 114 118 111 118 116 114 115 117 117 113 120 111 117 118 116 115 116 116 117 115 118 116 114 109 88 59 66 50 51 48 51 61 71 61 78 84 98 106 104 101 114 110 96 79 72 70 53 63 62 51 43 36 48 63 47 35 43 45 46 48 31 38 32 42 41 36 40 44 47 59 65 66 68 73 76 75 87 102 101 106 106 112 109 110 111 110 113 107 113 107 113 111 108 115 116 117 118 116 119 116 113 119 116 116 117 119 113 114 116 118 114 118 116 104 83 69 53 48 49 47 48 55 62 65 85 85 104 95 106 100 100 88 107 94 73 72 66 72 60 48 43 45 45 32 40 34 46 42 36 31 40 49 30 37 35 29 43 35 37 48 44 60 55 74 72 87 87 85 77 81 104 104 105 112 116 107 112 110 109 112 110 109 112 110 109 117 117 115 115 120 116 118 116 117 118 113 119 115 115 117 115 118 116 120 90 65 54 42 48 43 50 43 55 79 81 89 90 104 108 110 121 116 102 94 101 91 71 74 66 60 50 52 42 32 37 32 35 38 21 31 38 30 30 36 30 33 28 29 24 39 41 48 40 52 55 70 80 95 90 84 94 71 87 105 106 112 116 109 112 111 108 111 110 109 111 108 110 112 116 116 120 113 120 113 117 116 118 115 117 114 116 115 118 116 116 84 55 50 43 35 53 63 56 49 57 63 62 78 92 103 120 118 117 102 72 67 63 59 50 55 57 57 55 58 45 42 31 33 25 28 33 16 33 32 29 32 26 28 30 20 23 33 46 45 41 44 55 63 66 90 91 84 91 89 72 90 113 109 111 114 110 111 107 112 112 111 108 107 107 118 113 120 113 121 115 116 115 118 115 117 114 116 118 114 121 119 89 60 48 58 46 38 51 62 65 50 59 61 74 104 116 115 111 115 94 79 62 61 48 41 45 34 24 29 32 34 38 33 42 37 26 24 25 37 17 39 23 28 29 38 19 25 21 30 52 44 33 37 53 80 80 75 89 84 82 98 88 65 101 111 108 114 108 111 109 110 112 111 108 107 104 117 114 115 116 117 118 116 116 117 116 115 116 115 119 119 108 91 50 45 42 38 39 42 40 58 56 56 69 84 102 90 99 95 78 80 70 59 51 40 46 28 30 28 27 19 25 26 18 25 21 28 38 32 21 28 30 33 28 32 31 33 19 25 22 40 45 40 36 34 50 78 79 85 78 82 83 94 93 82 79 110 108 111 113 107 110 109 108 99 98 104 108 117 115 116 115 115 116 118 114 118 117 115 115 119 114 115 80 65 46 37 37 39 40 43 46 57 60 56 62 66 79 68 73 80 69 76 63 58 49 46 48 46 46 46 33 33 33 37 28 36 28 30 33 27 36 32 36 32 33 39 40 28 30 17 28 50 34 35 37 33 46 65 76 78 89 72 84 84 88 81 77 97 99 103 107 100 101 97 97 97 106 106 108 116 114 119 116 118 116 116 115 115 119 114 113 119 109 74 52 48 52 43 41 52 56 63 56 46 58 47 38 54 57 83 86 100 99 84 84 81 78 78 74 64 53 55 43 40 36 35 39 39 32 41 37 38 39 41 40 31 40 46 41 31 31 26 39 47 34 34 37 43 45 60 69 80 91 94 87 84 86 85 77 79 87 90 87 87 86 101 99 107 109 110 110 120 112 117 117 116 115 116 112 118 118 114 114 106 71 51 44 46 55 46 53 47 65 59 42 34 37 37 47 64 77 93 96 114 105 106 115 98 87 74 72 54 58 43 43 43 43 49 44 48 42 52 50 50 52 50 48 50 46 48 40 37 35 33 43 38 31 40 36 40 55 53 77 82 88 85 84 82 81 84 74 74 82 90 99 97 103 99 112 104 110 109 112 118 115 116 115 116 113 116 114 118 117 117 112 68 44 39 29 42 56 59 57 46 46 37 33 37 37 44 52 60 84 81 84 89 86 85 87 70 53 47 56 41 35 39 46 48 46 55 61 56 65 65 62 58 72 65 72 51 52 56 54 49 40 50 46 33 39 41 30 40 48 58 67 75 68 73 84 79 84 81 81 73 66 84 85 96 105 96 97 109 110 114 107 116 115 117 115 115 115 119 114 119 115 108 78 42 32 39 40 44 75 61 43 33 28 30 34 42 40 41 47 55 67 60 73 65 73 69 61 59 52 51 43 59 45 66 53 60 57 66 74 72 88 80 84 77 83 87 84 70 63 66 59 55 60 55 52 57 44 45 38 38 41 41 52 55 48 68 80 87 88 84 81 71 62 78 80 78 90 93 91 90 104 111 113 114 115 119 115 114 116 116 115 117 116 72 42 36 31 38 41 28 40 40 37 26 34 28 31 35 37 35 43 55 65 63 70 70 78 66 65 54 55 49 47 56 68 79 66 68 75 84 92 92 98 95 94 90 98 86 91 84 79 86 69 68 69 65 54 55 53 47 48 44 45 48 57 57 61 54 69 78 71 81 73 65 68 70 68 76 73 73 82 71 77 99 112 112 120 114 120 114 115 116 114 122 98 52 27 36 25 38 35 30 45 31 28 35 24 37 37 35 45 43 52 65 63 54 54 62 57 66 62 65 58 60 79 98 79 88 88 97 99 104 106 113 110 107 112 109 108 107 99 97 99 92 92 75 78 81 67 65 55 56 59 61 61 56 47 51 59 66 73 86 82 75 81 72 82 72 74 75 78 80 77 69 67 61 80 118 114 115 116 114 116 120 120 108 68 39 31 38 31 35 47 32 46 40 29 34 35 30 35 41 45 57 44 56 50 58 49 53 53 69 74 77 80 79 104 98 95 100 107 114 118 111 119 126 126 124 126 127 125 124 118 112 120 103 112 105 87 92 93 79 76 79 73 68 68 72 55 52 43 44 56 64 92 70 64 69 71 65 61 70 75 81 78 79 75 84 85 114 115 114 115 117 117 119 93 61 41 34 37 43 34 43 38 46 51 39 34 44 37 44 34 54 48 51 55 60 61 62 61 67 74 86 92 88 103 103 107 111 116 125 134 136 134 136 134 146 144 147 143 144 143 144 136 125 138 131 127 123 108 114 112 108 102 103 99 93 85 85 80 66 51 32 34 32 41 53 58 64 68 63 67 68 77 79 76 71 80 78 100 118 116 112 115 113 120 106 60 35 44 34 45 45 42 41 48 54 64 48 41 48 48 54 40 53 58 54 55 75 70 72 81 89 94 95 114 109 116 123 123 131 138 148 155 158 157 154 155 163 164 166 161 162 158 155 153 148 152 155 143 142 136 128 134 127 127 118 114 111 95 98 89 74 62 60 41 27 24 37 49 46 61 60 64 71 72 84 81 76 66 76 80 115 115 117 117 116 117 94 52 23 37 39 40 39 40 36 48 49 61 52 40 50 44 47 49 49 61 60 67 77 83 92 98 100 106 109 115 119 131 135 144 145 160 159 169 167 174 170 174 178 180 184 178 175 167 169 166 165 164 160 160 159 147 143 144 140 139 129 125 127 116 106 99 87 65 52 68 61 31 23 30 47 47 64 61 55 75 92 87 98 73 61 62 113 113 114 118 122 108 57 36 33 32 38 31 41 41 45 35 52 60 51 45 48 48 46 58 64 75 75 82 86 96 105 103 110 116 116 124 133 145 153 159 161 170 172 176 173 184 182 185 187 185 187 185 180 178 179 180 178 178 173 165 171 161 154 156 154 151 143 136 135 133 125 115 96 85 55 58 56 47 50 43 33 48 55 57 51 55 76 98 106 98 76 81 116 116 115 116 122 82 34 35 32 32 30 28 32 46 37 46 48 58 55 46 50 53 56 63 74 67 82 89 95 102 103 112 125 129 134 142 154 176 174 179 178 184 185 186 184 187 190 191 191 187 186 184 183 182 185 187 186 186 180 177 176 172 159 160 156 156 154 148 143 142 140 131 115 94 71 36 50 52 46 51 52 48 53 53 58 53 57 93 100 105 70 65 115 114 119 117 111 55 36 34 26 34 26 25 30 24 30 40 53 56 53 54 58 62 57 72 67 80 89 103 104 116 130 141 151 160 167 171 189 194 192 192 190 192 195 194 192 192 193 192 190 189 187 185 184 190 189 192 190 186 184 187 186 183 177 168 165 166 164 158 148 142 147 148 137 123 97 54 17 27 40 44 50 45 67 61 64 57 47 69 102 109 86 54 116 114 120 115 84 48 33 28 27 29 20 30 27 29 31 32 46 51 53 50 59 58 65 82 84 97 109 127 130 142 164 169 177 179 185 190 199 200 200 196 197 192 196 197 196 194 193 195 192 186 190 190 186 192 190 190 191 188 189 189 191 186 182 181 175 172 170 164 154 147 145 155 147 139 114 81 41 17 15 28 32 44 49 59 56 66 58 58 85 97 91 74 114 120 111 80 41 40 28 27 24 24 20 22 30 25 38 39 45 50 56 67 70 82 98 103 109 119 137 152 156 175 183 184 179 187 191 201 201 204 202 201 199 196 197 201 196 195 193 194 192 191 191 192 192 186 184 191 188 192 189 192 194 191 183 185 182 177 175 178 164 152 155 146 152 143 127 112 76 23 20 20 26 41 50 49 48 48 51 62 63 88 104 95 117 116 80 43 31 34 25 29 22 25 29 29 23 36 45 37 47 51 56 73 88 107 109 122 135 152 158 162 178 187 188 187 182 189 198 197 203 203 206 200 199 200 196 201 199 196 195 194 194 192 192 191 194 189 185 192 191 192 190 193 191 192 190 191 185 183 180 180 175 164 161 155 147 146 138 117 111 47 22 21 25 27 45 61 49 45 39 48 53 82 104 101 117 97 57 30 31 15 32 25 24 28 19 31 38 44 46 41 52 57 63 88 115 122 135 142 162 178 169 176 189 188 190 190 186 196 198 199 203 205 204 201 200 200 197 198 200 196 197 194 192 192 193 192 194 192 191 191 194 194 192 193 191 192 191 192 188 185 182 182 177 180 171 164 157 151 139 123 120 94 29 28 31 24 28 69 57 41 36 45 37 67 98 98 115 106 42 32 33 26 28 31 28 30 35 33 39 43 43 56 59 79 98 129 145 151 157 159 171 173 176 189 189 191 192 194 189 197 196 202 203 205 205 204 200 201 198 198 197 198 192 198 191 196 191 191 193 195 191 192 190 195 190 193 195 193 192 193 189 186 185 181 180 183 183 175 171 162 146 131 117 118 66 31 30 30 33 44 65 51 37 39 38 45 89 96 115 103 31 26 28 31 29 33 33 38 34 41 36 50 45 57 86 99 128 147 161 161 168 165 165 174 178 190 186 190 197 195 191 195 200 199 202 203 206 201 200 200 197 196 194 196 196 198 196 192 196 193 194 194 193 193 191 190 192 192 194 190 191 193 189 189 187 178 182 183 188 188 180 176 159 136 120 123 98 50 33 34 38 33 56 54 44 22 45 38 74 95 127 65 40 36 29 40 30 34 25 33 38 47 45 61 61 75 93 114 133 154 167 165 172 164 171 177 176 183 193 197 195 195 196 196 198 201 203 202 202 205 197 199 195 198 196 193 198 195 193 193 196 194 195 195 193 192 194 191 190 190 192 191 192 192 190 189 189 183 185 185 188 186 184 181 167 149 123 124 115 64 45 33 44 36 43 50 44 32 38 25 53 95 119 76 42 49 21 32 27 26 29 31 43 51 52 67 80 67 104 112 136 151 167 172 172 172 178 180 182 189 187 197 196 194 195 195 200 198 203 202 202 202 198 198 196 197 197 195 198 196 194 196 195 195 194 196 192 195 194 194 188 190 194 191 190 193 191 189 190 189 186 186 186 189 185 183 170 156 133 126 120 83 44 48 47 48 34 47 44 35 37 32 35 98 113 110 53 42 29 29 30 26 30 35 44 48 61 66 64 73 102 117 133 154 166 169 170 180 178 178 187 189 191 196 196 193 197 198 199 200 201 203 200 200 198 196 198 194 195 198 198 196 195 197 199 196 194 195 195 193 191 194 193 192 192 193 192 192 190 192 188 188 190 187 188 189 187 186 174 160 137 133 127 91 56 44 56 53 41 36 37 43 33 30 25 84 114 122 65 36 35 28 27 24 41 29 52 46 57 58 57 72 100 123 135 157 171 172 173 181 180 181 188 188 193 194 196 195 196 197 199 199 201 203 200 200 196 198 197 195 197 198 195 195 198 196 197 199 195 194 190 193 191 194 195 191 195 193 192 190 190 190 191 190 190 191 192 188 186 184 174 161 143 133 133 109 72 52 58 67 49 34 35 31 40 33 18 59 109 126 64 42 28 25 29 35 32 33 50 50 59 51 53 76 96 124 152 160 171 176 171 181 181 181 185 192 191 193 195 197 195 198 199 199 202 201 201 202 200 198 197 197 199 196 196 195 196 196 195 199 196 193 189 190 190 194 193 194 193 190 193 193 189 192 191 189 190 192 188 187 183 182 176 161 148 138 135 116 88 65 55 74 68 39 33 33 25 33 20 39 115 117 65 31 30 23 29 31 23 42 48 47 52 39 63 78 100 136 159 163 170 177 169 178 184 180 184 192 190 192 193 194 195 199 199 199 201 202 202 202 201 198 198 200 196 197 198 196 194 196 195 199 195 193 190 191 193 194 191 192 194 192 192 195 192 191 192 190 191 191 188 187 185 180 171 162 146 137 140 128 85 83 62 75 87 56 28 34 23 31 28 15 117 116 59 20 32 32 27 25 32 51 46 46 36 47 60 86 114 146 167 169 169 174 171 176 183 182 188 190 191 191 192 195 196 199 199 199 201 201 201 201 200 198 199 201 195 195 196 198 193 196 195 200 192 195 193 192 191 193 189 191 193 192 193 193 193 192 193 193 191 191 189 187 185 178 172 162 152 138 138 138 97 71 71 85 79 82 17 38 26 27 27 25 115 118 60 17 39 33 25 35 35 47 49 24 44 53 68 95 128 160 167 174 171 175 175 176 184 183 191 191 193 195 192 197 194 197 198 195 202 202 201 197 198 197 201 198 194 196 195 201 195 194 197 197 195 193 196 193 193 193 193 192 194 192 194 190 194 191 194 194 191 191 190 189 184 177 172 164 149 144 140 139 117 71 72 77 90 84 35 32 30 30 30 30 114 124 56 24 34 38 31 46 44 45 38 23 55 53 75 108 147 163 168 172 174 174 176 176 183 184 190 189 193 194 197 194 195 199 195 192 201 202 200 194 197 197 201 195 193 196 197 195 195 195 199 194 198 196 194 195 192 197 192 192 193 193 192 193 190 191 190 193 192 191 188 190 183 179 170 166 146 144 145 141 122 84 65 70 90 87 48 23 44 28 31 29 116 135 47 18 42 46 39 51 47 39 30 41 47 60 91 129 160 168 171 172 173 177 177 176 181 183 187 190 191 196 199 195 194 195 194 193 197 197 195 193 196 197 195 194 194 194 199 191 192 193 195 196 196 195 192 194 191 195 191 190 191 189 191 192 187 191 190 188 189 188 188 190 182 178 173 164 148 144 144 136 135 81 55 68 90 71 55 29 43 37 42 32 118 127 51 25 44 51 37 54 51 40 32 41 49 72 115 146 162 170 173 175 173 178 180 179 180 184 183 192 193 196 196 193 196 196 193 189 192 191 191 190 194 193 192 191 193 193 195 190 188 193 193 193 194 194 192 190 190 186 189 187 189 186 189 187 185 187 183 187 187 186 187 186 182 180 171 165 153 148 146 135 144 91 38 56 81 76 44 39 42 32 73 38 113 116 89 39 38 48 45 65 44 42 31 40 53 87 130 154 165 173 173 180 173 178 175 178 183 188 186 188 187 191 194 191 193 196 194 188 191 185 186 187 188 187 188 190 190 189 189 192 192 193 190 193 191 192 188 191 189 188 186 187 185 186 183 183 183 182 178 185 184 189 188 185 180 180 171 162 155 149 146 136 145 116 50 36 69 68 52 40 39 30 79 59 113 115 123 63 24 50 54 59 40 35 43 47 59 103 147 157 167 169 171 175 174 179 177 182 184 186 186 179 172 175 176 177 181 187 182 183 184 183 182 182 181 183 182 184 188 185 186 193 190 186 188 191 188 186 186 184 187 181 185 179 182 180 175 177 185 183 179 181 179 184 189 184 177 176 172 165 154 148 146 139 141 134 58 40 47 67 54 32 40 34 69 89 130 157 163 88 39 47 56 62 42 34 38 50 70 125 156 152 170 167 169 172 174 180 184 181 176 179 177 167 159 161 154 158 160 160 156 163 167 164 166 174 173 171 178 180 181 182 182 185 184 181 184 187 181 180 184 181 181 183 177 174 174 176 173 172 175 176 173 176 163 173 177 166 162 162 168 154 158 154 149 140 140 137 73 34 47 59 51 43 36 32 70 99 140 127 141 111 81 43 54 57 39 30 46 49 89 147 155 159 165 172 166 176 175 178 177 175 173 169 171 160 159 155 146 146 137 130 126 125 123 111 125 133 144 156 159 164 165 166 167 179 180 173 177 180 178 176 181 176 177 172 172 166 163 155 149 140 141 137 141 144 142 142 139 139 144 143 150 150 148 152 147 143 137 141 92 37 51 41 47 49 31 19 69 107 99 67 92 117 118 91 58 52 31 39 45 53 103 156 157 161 162 169 170 176 174 178 173 159 162 161 158 146 138 130 118 122 122 113 107 108 99 83 90 102 105 128 141 146 152 156 164 169 173 168 172 174 173 169 167 167 167 154 153 148 138 127 116 106 101 101 101 109 108 121 115 117 124 128 141 141 139 143 144 142 138 136 110 40 46 40 45 38 41 19 77 107 68 75 68 94 144 152 79 56 26 34 58 47 116 162 159 161 160 160 172 174 172 163 142 114 108 132 134 129 121 115 109 111 132 131 115 116 110 104 101 96 104 112 120 132 136 135 161 168 175 178 181 178 178 158 151 154 149 139 131 128 118 98 85 71 71 72 72 71 82 103 109 112 115 122 137 142 133 132 141 142 135 139 122 47 39 43 42 42 30 45 94 103 74 107 113 87 139 166 106 75 37 40 57 40 113 163 160 167 157 160 165 163 156 118 94 123 140 162 159 149 147 126 121 114 101 105 87 93 85 100 93 91 84 81 81 75 78 58 78 104 104 115 127 126 133 129 126 124 125 125 109 111 107 103 84 90 92 94 93 100 102 110 98 103 105 83 103 114 123 123 131 138 136 134 133 64 23 50 37 41 27 66 110 105 107 137 148 129 112 152 140 103 85 71 48 35 85 163 164 165 161 152 157 149 98 96 141 151 149 145 147 136 147 95 142 184 162 89 93 85 83 72 85 97 91 87 99 109 114 90 54 141 171 168 173 158 144 136 121 106 103 83 55 49 69 80 78 79 86 91 100 110 114 129 121 121 120 103 96 92 86 88 78 98 132 129 144 82 28 46 43 41 34 91 106 102 133 150 163 166 121 114 164 147 116 109 81 79 36 121 166 163 157 161 153 97 104 143 140 145 145 145 137 149 149 136 158 210 202 124 112 106 115 93 128 227 127 69 98 107 113 138 103 58 162 176 180 177 170 152 138 125 103 53 103 103 118 218 192 49 78 88 97 89 117 147 121 122 124 128 127 134 131 135 122 94 65 95 146 110 28 40 45 51 39 96 102 104 152 157 167 170 140 98 145 165 142 117 108 115 76 54 145 168 158 170 135 70 147 146 129 144 151 142 146 153 152 138 152 176 190 180 158 124 96 103 75 141 105 71 80 116 109 123 150 45 134 185 187 185 175 159 130 120 51 82 106 72 60 147 140 68 79 103 123 106 159 227 146 117 128 126 120 123 136 128 142 62 90 86 86 129 22 46 54 56 58 91 106 104 148 161 165 166 155 131 116 156 158 129 117 145 146 83 68 111 142 175 80 124 154 146 132 138 144 140 137 150 159 153 159 169 177 173 169 167 124 141 124 94 85 85 74 103 119 106 160 70 108 195 190 189 178 162 132 91 41 122 111 93 92 109 106 88 93 109 111 146 125 138 133 120 119 128 113 116 132 128 141 89 33 128 86 85 46 67 77 50 84 99 106 101 146 157 168 165 164 181 132 133 153 145 122 148 169 138 71 69 121 135 88 150 157 150 151 129 134 139 138 137 144 153 156 168 183 177 176 169 149 124 106 96 93 95 85 77 98 110 163 85 101 190 192 185 175 147 130 69 51 130 106 95 91 103 110 97 104 130 142 177 169 152 150 135 114 118 104 110 120 130 139 103 52 114 148 41 57 100 76 52 99 97 103 102 144 152 164 173 166 199 173 123 142 148 131 150 162 167 123 37 171 177 132 154 156 148 145 144 146 153 152 156 156 158 161 167 178 174 170 163 147 142 115 91 71 69 75 78 86 113 149 87 40 73 74 86 88 80 80 55 77 115 107 79 88 73 85 81 96 133 146 144 141 138 129 123 115 114 111 108 120 127 145 109 80 115 138 109 22 96 56 68 100 101 102 100 149 155 157 156 143 149 110 99 135 142 133 151 153 165 157 68 122 135 134 148 156 150 148 146 145 138 132 134 141 142 144 157 162 155 149 139 125 120 120 107 85 56 54 86 97 129 150 79 64 104 143 142 127 96 80 23 91 114 85 79 86 77 75 89 116 140 151 144 146 143 129 117 105 110 120 120 124 130 141 116 50 79 104 158 22 57 47 67 109 104 93 104 150 156 152 139 122 98 74 61 132 137 138 149 145 160 164 126 117 78 124 133 154 160 154 143 132 126 118 114 129 131 136 142 140 142 131 120 104 102 101 95 76 78 68 98 127 130 125 69 68 126 165 173 166 152 123 26 82 106 84 75 81 84 97 98 107 121 126 127 138 125 125 121 118 115 106 120 122 134 127 118 78 58 42 163 93 94 66 63 111 96 101 96 145 155 139 121 109 95 88 66 118 139 138 147 146 149 162 158 128 44 148 112 109 148 154 145 138 134 128 119 94 89 97 100 95 98 98 89 84 65 67 74 67 88 125 147 139 108 82 51 76 156 180 182 173 162 126 14 71 109 89 58 90 105 110 126 118 119 115 114 126 113 110 116 116 111 121 121 123 130 107 117 111 109 77 157 125 132 89 68 103 98 95 97 144 149 135 111 105 111 98 83 113 141 132 144 146 150 156 171 153 37 163 132 88 125 162 157 155 161 164 159 129 120 103 76 77 62 75 65 83 77 78 92 126 132 147 165 121 71 76 49 115 192 196 192 187 187 160 14 47 105 104 35 79 77 88 88 103 105 105 99 110 107 101 109 110 105 114 118 131 109 86 131 108 99 105 170 84 122 87 76 104 92 94 95 142 155 135 116 129 134 135 138 145 146 124 143 143 150 148 162 181 58 155 162 106 116 166 178 171 161 174 172 158 150 140 117 112 95 84 92 96 98 104 115 141 157 154 136 85 69 53 69 156 194 192 189 186 184 184 67 39 83 92 77 85 80 71 70 58 74 62 65 76 80 74 97 102 109 108 113 117 82 105 139 105 106 111 174 61 121 103 97 95 91 90 95 144 158 136 131 141 164 188 189 175 139 122 142 143 142 156 163 183 76 143 169 129 116 158 179 179 171 170 174 159 154 152 137 133 121 116 107 115 114 122 120 135 149 137 128 100 72 39 124 177 198 196 188 181 188 186 114 15 93 89 99 110 109 101 84 80 90 75 71 86 91 92 105 133 139 125 118 87 85 129 135 99 106 116 164 59 115 107 108 92 86 92 92 146 158 142 132 162 175 196 190 179 131 118 137 144 146 156 162 188 110 116 183 148 116 144 169 178 181 171 164 153 149 144 142 138 130 123 112 122 117 117 118 126 127 131 122 140 68 74 164 175 196 198 185 184 187 175 150 54 95 104 115 138 130 128 106 96 108 106 94 98 111 121 128 140 154 141 117 98 122 139 133 97 108 125 148 67 111 112 118 88 83 91 89 147 168 157 139 164 175 176 179 179 128 117 134 142 146 151 158 181 164 78 182 171 135 136 162 178 176 165 158 146 149 148 144 143 135 129 120 125 124 123 125 128 145 124 137 118 69 135 169 172 189 196 191 186 189 180 155 99 48 118 109 141 139 132 114 106 116 121 119 120 126 127 137 138 152 140 123 136 150 145 128 88 110 139 126 84 110 118 123 80 80 84 86 154 183 169 153 152 159 162 172 174 127 119 134 137 143 145 156 164 205 68 167 176 158 135 161 174 165 153 149 143 147 146 139 136 137 133 124 124 135 134 139 144 143 133 131 64 131 166 167 168 190 194 193 185 190 192 152 145 30 120 109 133 141 132 117 111 119 125 131 131 138 144 147 143 143 138 137 164 169 159 120 85 113 158 92 110 106 120 115 78 79 83 88 141 192 187 160 156 150 155 160 165 121 119 129 135 139 144 149 162 188 141 99 192 159 148 155 162 164 152 150 145 145 143 140 132 135 132 136 138 150 147 151 150 147 134 72 112 162 167 164 174 189 193 192 182 192 193 163 149 91 47 145 129 139 136 110 115 119 126 132 138 140 146 141 145 144 141 149 176 181 164 109 90 139 154 77 121 115 119 123 67 76 78 81 131 176 197 173 167 165 166 174 156 122 113 130 131 140 142 148 160 161 191 87 150 189 159 147 151 156 152 152 155 151 147 145 141 148 150 158 150 141 155 148 143 149 70 106 160 165 159 169 177 191 196 194 187 190 188 168 141 149 43 99 157 144 144 123 114 108 118 123 128 136 134 133 137 136 148 166 178 172 163 116 104 174 113 98 116 124 117 115 68 74 79 77 150 142 170 169 179 183 170 172 156 123 111 130 127 140 140 140 158 162 171 195 99 138 197 169 151 152 154 156 154 160 158 150 154 159 160 157 152 144 153 148 129 74 103 162 165 160 159 176 183 194 199 197 192 191 193 176 155 133 140 52 109 168 158 148 137 125 119 118 123 127 132 131 133 140 146 162 161 165 157 117 167 169 71 126 112 123 118 110 59 71 75 74 181 153 162 150 167 186 188 180 153 120 116 124 127 140 142 137 149 158 166 170 180 118 118 194 184 163 164 158 157 149 152 150 147 153 156 152 156 163 160 108 84 112 156 162 153 157 162 179 183 193 200 198 191 192 191 184 160 139 129 127 62 128 168 161 149 150 133 133 125 132 135 131 135 142 145 148 156 161 161 172 195 108 110 120 116 116 118 108 60 68 73 77 184 179 171 159 152 162 177 189 142 119 120 119 126 138 144 140 144 154 162 170 171 165 128 84 128 168 193 182 179 170 162 166 164 175 184 190 167 136 108 103 120 153 165 156 146 159 165 180 188 190 200 199 189 190 195 184 165 144 121 130 144 85 91 180 164 155 145 143 127 125 135 135 140 142 142 148 165 171 196 186 120 115 126 117 124 111 126 85 64 68 68 68 167 179 181 162 151 157 149 148 127 120 117 113 126 135 148 142 143 154 153 159 171 164 145 118 84 86 87 114 153 159 163 169 172 163 153 127 131 129 119 125 156 156 148 151 151 157 169 183 191 191 200 202 190 185 195 181 170 143 132 118 142 136 122 88 155 183 169 156 147 140 143 148 148 163 164 176 186 182 151 122 140 134 124 115 125 116 121 80 54 68 66 72 123 166 177 179 173 167 157 151 147 118 114 117 118 130 148 147 151 150 154 158 165 168 142 120 120 124 116 113 102 93 103 110 127 132 143 145 138 130 138 161 169 141 148 156 151 159 161 178 179 196 206 200 189 188 181 175 162 144 142 122 134 150 127 129 96 119 138 178 190 185 182 191 192 191 180 151 133 128 134 143 140 129 118 115 116 98 125 57 65 64 68 62 99 125 167 177 182 184 176 165 165 136 103 116 115 128 147 146 155 151 156 161 163 166 147 120 114 114 121 120 124 122 126 127 131 137 144 150 157 167 175 177 161 148 154 161 157 154 152 162 163 186 196 187 180 184 179 158 143 137 143 138 117 155 156 130 128 109 87 60 59 67 84 85 92 94 106 122 138 149 138 139 133 131 118 114 119 111 126 56 60 64 68 63 103 91 134 149 166 170 173 165 176 143 103 117 115 126 150 146 153 153 154 163 161 165 153 132 124 118 123 124 123 132 133 138 153 158 174 183 185 184 172 165 148 159 152 154 145 142 137 140 148 165 178 172 169 168 154 137 128 124 134 149 120 145 165 164 152 133 112 110 109 114 125 113 117 123 126 132 142 136 135 132 130 128 119 109 116 125 113 56 57 65 66 66 103 105 97 113 127 142 155 156 157 148 106 110 114 127 141 140 150 156 150 160 167 165 165 159 155 159 161 167 171 176 179 187 191 190 189 191 188 183 173 156 147 147 154 126 109 111 114 117 125 141 153 158 145 138 126 110 107 110 122 140 129 129 160 168 169 176 157 139 139 130 132 133 131 131 139 134 137 130 135 127 124 129 119 109 119 139 95 42 65 61 63 59 105 105 104 101 98 114 118 127 132 149 109 110 113 125 143 146 152 152 153 151 159 166 163 168 163 172 172 180 186 190 192 189 193 193 191 187 184 177 168 152 143 139 137 99 45 51 76 106 108 121 125 135 128 112 106 92 85 91 102 133 131 116 149 170 167 175 171 167 161 154 153 145 146 137 140 132 133 132 132 125 129 128 117 108 125 139 69 51 59 65 58 60 103 105 106 104 104 100 96 93 100 115 112 116 117 117 142 144 154 150 150 153 155 158 157 161 164 167 173 184 183 187 194 191 188 190 191 186 184 174 160 149 135 123 111 53 20 18 17 56 95 106 104 106 100 94 81 42 30 41 90 115 129 113 144 163 173 172 167 172 169 172 177 163 150 143 136 134 129 131 125 129 128 129 116 118 126 130 49 57 60 58 63 53 103 104 104 106 103 107 109 106 102 99 108 118 119 120 131 147 147 149 151 153 160 153 157 155 164 165 177 179 185 183 188 191 185 185 188 181 180 168 153 144 118 107 91 50 26 28 28 54 59 82 92 83 91 78 25 27 22 25 75 103 124 113 135 158 169 172 170 167 166 174 174 174 165 153 144 134 133 126 123 125 124 129 116 108 122 95 56 56 63 61 62 59 105 100 107 103 102 111 103 106 103 105 104 110 124 123 129 141 147 147 152 151 154 149 155 153 162 163 169 180 183 182 188 187 182 183 177 179 170 156 159 142 108 98 90 65 52 52 74 75 65 76 82 81 89 77 28 24 35 28 67 100 114 107 125 148 162 167 170 165 159 170 172 171 169 160 147 143 138 128 123 122 119 125 118 101 98 70 53 62 56 59 63 59 101 103 104 103 104 104 105 104 105 108 99 113 119 123 127 133 141 144 141 148 146 148 153 156 159 160 167 180 178 180 183 184 181 171 173 161 145 150 154 154 119 81 86 78 98 120 135 109 87 74 76 79 88 106 80 52 55 53 70 87 111 102 122 145 162 166 169 165 163 167 169 168 168 159 149 144 141 133 125 119 117 129 102 78 63 55 59 62 58 59 68 55 101 103 102 102 105 105 105 105 107 103 98 110 120 119 128 128 135 144 138 142 143 142 151 148 154 160 162 169 172 177 186 178 175 168 168 157 153 163 170 155 152 75 67 68 90 131 138 129 114 83 81 87 93 109 111 101 84 75 78 82 104 110 111 141 155 159 168 164 163 164 170 164 164 154 143 136 136 133 122 117 116 128 98 44 63 52 60 58 57 60 61 56 104 102 104 105 101 104 103 105 100 106 102 107 125 121 125 131 137 133 140 140 140 141 145 144 151 158 161 158 165 165 175 174 170 172 161 159 170 172 173 169 167 123 88 76 93 116 139 135 127 111 94 99 103 103 105 97 87 70 76 89 112 116 112 140 147 155 168 163 168 159 160 161 155 152 142 134 133 135 125 120 118 135 74 49 57 58 58 64 57 57 60 54 100 101 102 106 105 107 101 106 101 104 104 106 117 126 119 124 134 128 135 140 140 137 144 145 154 154 157 163 160 166 160 166 166 168 159 163 176 173 171 172 173 167 142 148 138 121 136 137 130 116 99 106 108 104 104 95 84 77 92 113 118 129 124 131 145 155 161 160 162 154 154 152 147 146 140 139 141 130 121 119 114 138 58 52 58 62 55 61 56 62 58 62 101 104 99 106 99 105 103 106 101 103 105 98 123 122 124 120 127 126 133 142 140 137 143 142 147 156 150 157 159 162 161 165 164 159 166 168 169 181 181 172 170 166 151 164 158 135 139 142 132 114 114 116 107 110 111 109 105 113 123 117 121 131 130 131 142 150 157 160 160 150 145 143 141 144 143 135 136 131 117 118 117 121 57 57 57 59 61 53 61 59 61 63 102 103 101 108 100 102 104 102 105 105 106 100 111 124 126 120 125 127 132 140 145 140 141 146 144 152 154 156 152 157 155 160 157 156 161 162 173 177 174 171 169 167 150 147 148 143 154 146 134 119 123 125 116 111 106 116 119 118 128 129 131 134 131 135 141 150 154 158 156 148 147 144 134 135 135 131 126 131 117 115 112 125 45 54 63 60 59 55 62 59 55 67 101 105 99 103 101 104 103 108 102 102 103 99 112 116 129 122 122 120 126 138 139 148 143 144 148 150 153 153 148 151 157 149 152 154 158 160 167 173 167 171 164 169 159 149 151 144 156 152 129 124 130 137 132 122 116 119 113 127 132 138 137 142 131 136 141 146 148 150 146 147 143 141 135 134 136 127 125 127 119 113 119 113 47 60 55 58 56 63 55 62 55 61 103 107 94 106 103 101 101 101 106 101 105 101 108 114 121 134 122 126 125 141 140 143 147 140 150 147 147 149 150 147 149 146 142 154 159 156 163 169 163 157 160 164 164 156 162 152 153 160 136 136 145 145 145 139 123 129 121 128 131 137 137 136 137 136 143 141 144 143 137 137 145 136 128 137 130 131 127 120 122 112 123 100 42 59 61 55 62 58 60 54 62 59 104 102 99 101 103 102 104 102 102 101 107 104 99 115 116 130 126 123 133 141 135 140 144 144 147 144 145 147 145 145 143 139 149 150 149 158 157 157 163 154 161 164 166 162 161 164 166 162 148 151 160 158 153 146 128 129 131 130 128 138 139 138 129 135 139 142 144 145 132 148 141 135 131 133 133 129 125 119 119 114 122 94 38 60 54 57 62 56 61 60 58 61 100 99 101 101 102 99 103 105 102 103 104 98 104 107 122 127 127 125 134 135 136 135 142 141 142 141 142 145 143 134 139 138 141 143 134 146 150 149 160 154 160 160 163 164 169 170 186 174 164 170 186 175 172 162 147 139 137 135 123 142 134 133 134 132 134 137 136 128 132 139 132 132 129 131 126 126 120 115 115 111 123 72 50 59 54 59 64 54 62 55 55 55 99 100 102 103 101 104 98 104 103 102 106 103 96 105 109 121 126 126 135 137 133 133 141 142 138 139 139 136 135 129 135 136 131 131 133 142 141 146 160 158 160 172 179 175 181 169 174 174 177 188 189 184 177 180 168 156 147 133 129 138 131 131 131 138 131 133 126 129 129 129 124 129 131 126 122 124 119 111 118 114 121 61 52 54 61 53 64 53 63 61 56 58 94 100 100 105 102 99 99 104 103 104 101 105 101 103 113 122 123 125 129 131 131 136 135 142 139 141 141 133 129 130 126 119 112 119 125 129 132 140 147 156 156 156 149 125 112 87 80 92 125 154 146 130 112 133 155 164 158 147 142 127 134 129 125 125 124 128 118 120 122 118 117 132 124 131 121 120 119 117 112 117 110 45 59 56 58 60 57 56 56 59 58 59 101 96 102 102 105 101 99 105 102 102 102 100 109 93 111 116 120 124 124 127 127 136 139 145 142 137 141 133 131 127 119 110 99 103 99 107 119 120 124 117 105 91 72 62 60 57 60 67 69 82 77 69 58 62 74 95 126 141 145 129 129 125 127 115 111 114 108 117 107 107 115 125 125 122 120 119 121 114 111 119 96 45 55 62 56 58 58 60 56 59 57 58 99 98 99 103 97 104 99 106 103 100 105 105 104 93 108 111 118 123 126 125 128 133 137 140 141 138 140 140 125 124 113 105 83 74 67 77 78 76 69 66 59 55 51 55 61 53 66 78 74 74 65 64 69 74 66 57 57 83 116 121 116 117 118 108 109 94 97 103 101 97 110 119 121 122 120 116 116 111 110 120 71 49 56 54 61 58 60 59 50 65 52 64 97 100 95 102 102 103 100 103 102 103 100 104 110 97 98 104 113 121 120 123 125 128 131 136 138 142 136 137 130 112 107 85 77 61 52 44 35 43 42 46 46 46 41 42 53 38 42 54 59 50 54 55 50 66 62 60 56 45 57 68 86 92 90 94 89 81 83 94 94 97 110 117 123 116 120 116 108 110 112 115 57 45 64 52 62 55 57 56 60 57 56 54 95 98 103 99 102 102 98 105 96 104 100 102 108 105 91 101 111 117 118 123 125 130 131 130 139 138 138 133 128 109 98 90 90 87 84 86 77 63 62 62 68 65 78 90 101 98 77 71 59 53 46 52 51 52 51 45 42 50 47 47 40 51 54 60 54 64 71 87 85 95 111 117 122 121 113 118 110 108 115 102 41 56 56 57 55 57 59 58 54 58 58 54 101 98 103 96 102 100 104 101 102 100 103 98 105 110 92 90 106 114 118 120 124 126 126 131 140 131 136 131 128 119 110 115 129 138 135 139 141 126 120 110 113 112 114 122 144 149 152 140 135 107 121 120 119 95 104 94 87 69 67 64 56 65 77 71 71 72 71 78 78 95 118 116 115 121 115 109 111 104 116 77 47 47 63 61 48 54 61 58 53 59 56 53 99 98 101 97 101 100 100 102 100 104 99 103 103 106 108 86 95 106 110 115 119 126 122 132 132 129 131 131 131 128 125 129 144 154 153 149 148 143 136 126 134 129 125 110 117 122 119 126 122 122 129 131 125 119 111 106 100 90 86 90 98 105 114 111 108 95 90 85 78 101 116 115 117 117 115 109 109 111 104 60 51 58 54 59 57 53 63 57 57 56 56 61 102 99 97 97 100 100 101 104 102 101 107 100 105 98 115 98 86 100 110 115 109 118 121 123 125 123 129 128 132 126 133 136 145 152 153 147 143 141 127 129 119 118 122 122 119 123 111 112 115 116 116 106 113 106 115 105 113 108 112 105 111 112 114 114 117 108 104 98 94 107 109 111 111 112 113 106 109 103 85 49 53 57 57 54 55 57 59 56 59 60 56 54 98 104 95 101 101 101 100 100 103 103 103 101 106 100 112 119 80 92 101 110 112 111 114 123 117 119 123 130 124 123 132 137 141 142 148 145 147 134 131 125 119 104 99 90 87 106 97 100 99 109 99 97 106 104 110 115 110 109 104 110 109 113 118 112 114 118 109 101 100 102 106 103 102 110 108 105 105 108 60 49 59 55 57 60 56 59 55 56 57 59 60 54 97 104 94 104 98 98 103 103 102 102 103 103 104 103 101 133 89 84 96 100 113 108 109 113 117 110 116 126 126 111 134 137 138 138 145 143 140 138 135 126 122 110 90 86 79 73 75 71 70 75 69 71 82 81 91 86 91 105 106 106 112 109 118 111 113 119 114 109 106 101 100 102 103 108 103 102 106 86 52 52 58 56 55 56 61 56 57 60 55 52 61 54 103 101 102 100 100 102 99 99 105 101 102 103 104 102 103 124 127 75 90 92 104 109 102 105 109 115 110 124 125 126 139 135 138 143 148 142 138 135 132 132 121 112 108 97 88 79 78 69 69 71 71 65 68 80 83 86 92 94 106 111 118 115 114 110 111 110 110 100 101 104 99 98 98 102 104 98 102 61 52 50 62 51 59 54 56 58 56 57 54 53 59 53 100 101 101 96 104 100 98 105 99 102 103 103 109 96 108 117 129 98 77 85 96 101 112 108 110 106 111 112 121 130 134 138 142 146 143 144 140 134 133 135 135 122 123 116 99 93 85 75 73 78 73 71 80 75 92 88 92 96 106 114 119 113 109 114 105 110 108 101 106 96 101 96 93 97 96 107 76 52 59 49 59 56 57 56 58 54 51 61 59 57 54 57 106 96 99 102 103 99 106 98 106 99 107 102 106 102 100 118 123 124 80 78 81 100 107 108 104 110 115 114 127 123 131 133 138 139 145 142 150 147 146 147 147 143 151 163 155 149 147 135 118 112 113 110 98 96 96 98 100 112 107 115 115 118 113 114 107 102 102 107 100 98 95 89 90 93 104 87 63 45 58 55 53 56 54 53 53 54 55 54 60 50 60 47 98 99 103 99 103 99 105 99 101 100 105 105 103 103 102 116 120 124 106 76 73 92 97 104 107 109 112 115 118 125 130 128 134 130 139 145 149 154 158 161 154 163 174 180 184 185 177 182 169 164 167 161 145 138 125 111 111 115 115 120 116 109 109 105 105 100 102 97 98 93 96 93 91 92 99 70 49 54 52 57 53 54 62 50 61 52 59 50 58 54 59 57 96 101 99 103 97 104 95 102 103 105 106 101 106 104 101 116 116 120 112 92 72 73 83 90 104 106 114 110 113 115 121 123 132 127 131 134 152 146 165 174 168 166 165 179 182 181 181 178 171 172 176 177 171 172 170 151 138 126 125 125 117 111 103 106 111 96 101 104 100 89 93 91 94 93 77 54 52 56 55 52 53 54 57 60 56 50 59 53 57 51 58 57 100 94 109 100 100 106 101 102 102 105 105 105 104 105 102 115 120 117 113 95 86 63 71 84 95 101 107 113 113 117 116 116 133 136 129 142 151 155 149 166 164 161 169 170 176 172 176 174 166 161 165 162 167 169 177 171 161 150 142 128 122 115 105 108 105 97 104 100 97 90 97 85 94 80 59 51 57 54 52 54 51 54 56 59 54 56 56 54 56 54 55 57 103 100 101 103 100 102 104 100 103 102 105 103 104 102 98 119 113 116 116 101 94 67 68 68 81 84 101 105 108 116 112 108 125 136 137 138 147 143 152 154 158 160 166 168 173 165 166 161 156 148 150 158 165 161 167 160 147 155 151 143 130 123 116 112 111 104 102 97 92 95 89 80 87 53 50 56 56 57 50 51 57 57 48 62 52 55 53 58 57 53 56 54 102 95 105 97 99 102 105 100 103 107 100 105 104 110 94 117 118 116 110 111 94 77 59 66 67 73 81 97 97 102 114 109 120 131 134 133 140 134 150 144 149 148 170 172 172 163 158 150 146 141 146 149 155 151 150 146 146 143 152 139 126 127 123 116 108 107 95 100 90 90 77 94 61 50 52 53 53 46 58 52 54 56 54 54 50 59 51 58 54 60 51 58 98 102 99 99 100 101 101 102 104 98 102 105 101 105 103 111 120 115 114 111 94 86 65 53 65 65 71 75 92 95 109 105 114 125 136 134 131 129 135 138 141 140 161 163 155 167 161 149 149 144 151 149 147 149 152 150 145 137 132 131 124 123 115 110 104 99 101 88 88 76 84 105 60 50 52 51 50 57 55 52 55 52 60 51 50 59 52 55 55 56 55 53 96 102 96 100 102 103 100 101 99 104 103 106 104 104 96 115 116 119 114 112 102 95 68 64 59 56 68 64 68 73 91 97 98 110 125 124 128 131 136 134 135 136 139 148 149 148 154 145 146 142 146 146 143 134 143 136 133 123 118 132 130 112 108 100 95 93 89 81 70 85 107 111 52 47 54 53 49 53 57 58 48 58 53 55 54 60 53 52 56 56 54 56 98 98 101 99 100 102 103 98 107 101 105 102 107 107 89 115 114 118 118 112 106 96 83 67 60 61 58 61 68 67 69 86 93 102 110 115 118 126 131 126 122 131 127 134 139 128 127 132 128 130 133 134 129 123 125 126 113 114 115 132 124 106 106 95 91 83 74 79 86 102 110 108 47 52 51 54 55 47 56 53 49 54 54 45 60 55 47 59 54 53 51 56 99 101 99 99 102 100 102 104 104 100 110 106 106 76 74 117 116 118 109 121 104 101 86 75 63 67 60 59 62 62 64 60 71 83 100 96 110 107 121 108 114 113 113 119 115 112 107 111 112 124 120 121 116 116 116 118 107 105 110 135 121 97 88 83 78 70 81 96 98 103 116 92 45 54 53 50 53 51 54 58 48 54 53 51 57 47 54 52 57 55 50 58 99 97 104 100 100 101 102 102 101 103 114 107 62 26 105 117 118 120 118 119 111 100 94 76 74 63 65 58 59 60 62 62 64 65 70 83 93 104 101 97 98 102 103 103 97 100 98 95 98 106 112 108 110 109 108 98 97 98 95 110 97 88 75 67 69 100 94 99 99 104 111 93 43 50 53 53 52 55 54 50 53 53 53 50 54 49 55 50 60 49 55 56 103 93 110 97 100 102 99 100 100 113 118 56 32 100 137 114 110 124 115 120 113 102 99 87 82 66 62 64 61 59 65 53 62 57 62 61 67 87 85 86 84 89 87 88 86 83 85 90 88 98 99 96 98 93 87 89 89 81 88 71 76 74 59 85 92 105 97 103 100 109 110 91 55 48 55 50 53 52 55 51 49 50 54 47 58 48 54 54 53 51 55 52 98 101 98 100 99 99 100 98 102 130 74 32 130 138 139 113 109 119 124 122 122 104 106 92 83 71 64 65 57 62 60 56 62 57 60 59 53 66 63 76 70 71 67 76 77 76 75 79 79 81 85 82 83 84 78 81 86 73 75 68 63 68 81 95 101 97 99 102 105 105 115 62 67 56 48 46 56 49 54 53 54 51 50 59 50 50 59 46 54 49 54 55 96 101 98 105 102 99 106 105 111 125 30 105 151 126 139 121 103 115 125 123 122 118 104 96 97 75 77 60 61 66 59 59 63 56 64 58 58 60 57 62 68 64 66 64 73 72 73 70 72 69 72 76 64 75 70 64 74 66 70 55 66 82 92 98 101 99 96 106 99 105 111 41 83 64 42 49 54 44 54 51 51 50 51 52 54 43 57 55 49 54 55 52 