P2
92
112
255
37 37 42 35 42 40 38 39 41 35 38 39 40 33 40 33 45 71 106 113 105 106 116 102 111 87 86 78 83 86 93 112 101 101 95 97 99 83 84 80 88 84 82 90 98 104 99 101 107 110 119 114 104 109 112 103 114 116 100 96 96 103 99 107 100 111 88 74 76 76 67 34 47 51 39 48 39 36 40 36 34 39 34 38 32 37 33 35 33 31 35 36 35 38 42 38 38 36 42 38 37 40 37 43 39 32 32 57 91 110 115 118 108 95 102 97 97 98 109 107 90 91 89 99 98 99 92 102 102 95 100 96 113 100 105 115 120 120 121 115 115 108 116 111 103 108 116 118 121 134 111 105 107 108 105 101 107 93 122 80 83 69 89 48 52 49 32 42 48 32 46 39 38 31 35 38 32 37 35 35 36 31 37 35 39 37 37 37 41 38 37 39 40 37 37 42 33 34 77 103 119 120 115 97 102 95 105 95 88 93 99 96 83 91 91 96 85 96 108 108 113 123 123 125 125 125 121 121 129 128 131 132 121 124 126 124 121 116 126 124 119 133 126 125 125 124 118 113 108 98 110 115 82 79 64 87 55 41 34 42 47 34 37 39 45 31 42 31 39 36 34 36 38 31 38 33 33 42 39 36 42 37 41 36 37 39 36 35 49 79 118 122 113 109 115 97 107 95 94 84 88 90 91 94 95 86 92 100 101 117 125 124 127 128 121 128 119 118 123 124 137 131 131 128 118 111 111 117 114 115 120 125 127 128 128 127 126 126 119 118 119 113 109 117 93 89 55 110 56 41 44 60 50 34 42 39 50 41 38 33 36 37 35 39 34 36 35 38 31 43 37 37 39 43 36 42 43 36 45 63 91 132 137 120 96 104 101 90 84 94 94 73 91 92 78 98 108 107 111 122 113 113 115 118 117 126 111 118 120 123 122 135 130 129 122 122 114 107 107 100 109 101 109 108 116 109 120 115 131 143 139 128 123 133 127 123 99 83 66 108 76 36 46 78 52 36 47 42 40 59 37 37 35 33 36 39 36 37 32 40 41 38 40 35 38 40 41 46 46 40 79 110 126 129 112 108 98 83 88 85 84 84 95 89 71 95 107 114 114 119 124 119 117 113 108 116 118 115 108 112 123 120 116 112 107 103 97 92 86 84 88 68 66 88 62 82 94 106 111 86 93 108 116 129 131 130 127 123 129 108 84 94 102 67 58 85 44 53 38 37 41 46 49 48 45 32 36 40 31 42 35 37 38 38 40 36 40 37 43 43 43 74 122 116 114 109 104 104 88 90 93 85 85 93 106 87 110 118 119 123 117 115 110 105 120 100 115 126 115 111 108 112 104 102 91 89 92 87 89 86 71 70 67 69 46 75 65 58 68 67 104 90 70 90 95 95 101 118 128 119 119 123 106 104 92 91 69 89 60 47 49 39 54 53 50 44 46 36 37 36 36 38 50 45 42 42 36 41 37 42 38 59 76 120 120 101 109 105 82 103 94 104 102 98 97 106 108 121 125 120 111 108 96 75 100 111 110 113 112 112 97 95 76 71 71 74 69 74 66 68 58 59 57 47 53 61 58 54 74 61 74 71 88 83 64 83 87 75 83 86 99 118 124 110 112 108 92 100 83 86 67 61 68 63 69 51 55 52 58 44 39 53 51 44 63 38 43 40 40 36 40 40 55 87 106 113 105 109 97 85 112 109 108 105 98 116 115 128 135 134 115 101 89 87 99 105 100 102 105 106 99 87 60 61 63 52 55 58 49 44 42 51 44 42 43 36 41 46 56 64 50 66 73 73 86 75 75 88 88 82 74 86 79 96 110 111 103 112 93 109 105 93 77 94 93 97 73 65 71 58 64 47 49 49 50 47 52 39 41 42 35 43 47 53 88 109 93 109 113 101 107 102 109 105 125 116 114 145 147 141 125 106 108 94 98 105 126 95 95 104 101 73 82 65 56 62 56 38 43 45 35 36 46 51 45 48 50 36 48 48 63 63 58 66 74 79 78 78 84 96 105 86 100 86 87 100 112 97 106 103 104 116 108 108 104 101 100 95 93 83 67 59 56 50 52 48 43 41 52 33 37 37 50 47 40 80 88 104 102 120 101 106 113 117 114 114 131 137 140 148 118 106 101 103 111 108 113 104 99 94 92 75 69 46 61 60 36 41 45 34 41 40 44 50 45 41 45 72 61 59 60 70 71 72 67 76 80 79 87 89 106 111 106 93 93 95 97 108 107 113 112 109 112 108 104 110 108 113 100 92 97 86 88 71 60 58 59 54 37 51 47 45 41 50 44 48 61 77 99 106 113 110 117 120 113 116 137 148 148 148 123 102 95 89 94 110 112 107 107 98 84 80 65 46 47 32 45 37 38 48 42 38 43 45 58 44 44 47 61 76 69 66 68 71 76 81 74 89 89 91 100 104 100 112 106 102 96 97 99 108 98 108 91 84 87 93 99 84 105 111 111 99 88 87 96 97 92 66 67 65 59 58 53 45 42 51 51 62 75 90 105 116 100 141 135 122 130 154 160 170 133 117 110 89 87 92 117 116 113 108 98 78 82 57 45 36 40 41 42 38 44 57 54 52 59 56 59 57 56 76 67 89 83 82 78 78 85 92 88 98 97 99 100 98 103 101 118 107 108 103 107 111 101 93 91 81 72 80 86 81 82 107 106 108 100 91 99 96 91 92 75 64 54 56 56 58 45 50 68 76 103 113 116 102 131 156 134 141 166 166 140 130 118 99 87 89 111 125 118 121 113 88 50 82 71 37 43 41 46 53 53 56 58 67 73 70 69 73 83 81 87 94 93 102 98 97 96 93 97 93 93 97 103 100 103 101 98 101 111 114 104 114 117 105 111 104 94 88 84 83 63 69 88 97 95 112 100 98 99 105 91 96 99 79 55 54 55 60 44 68 80 118 112 123 120 133 163 164 160 165 139 123 114 120 96 79 107 134 126 129 122 110 87 33 56 89 62 51 61 62 63 74 76 81 88 91 96 96 95 104 108 107 119 118 116 121 118 121 120 118 116 113 111 115 110 111 108 104 102 103 110 114 104 106 114 111 115 109 108 104 97 86 69 84 80 80 99 112 100 91 106 106 99 101 96 93 76 67 48 69 49 82 128 119 115 127 152 156 176 168 138 116 116 122 114 99 111 112 139 138 118 119 104 69 52 52 86 93 68 79 85 95 92 102 100 110 118 114 116 115 127 122 127 133 139 132 148 133 139 142 141 142 140 130 133 136 133 133 125 121 114 115 118 117 114 116 118 109 112 118 118 119 106 106 94 91 75 63 101 112 119 91 95 111 100 116 99 64 101 78 66 51 70 126 134 135 122 157 168 170 148 131 108 111 115 112 102 118 129 128 141 124 112 96 78 51 69 86 107 90 96 100 114 114 119 125 129 129 133 133 136 137 145 143 150 143 146 142 158 146 150 149 153 153 149 144 143 142 139 138 143 138 134 127 130 127 128 132 128 126 119 126 123 124 119 111 111 105 83 85 96 106 123 100 96 109 112 100 112 61 74 97 80 63 121 136 128 151 152 162 146 134 114 109 107 114 105 99 135 146 158 133 116 109 96 85 69 80 93 111 110 103 115 132 134 139 143 147 148 146 144 148 152 151 150 159 156 151 153 153 161 155 155 158 156 157 147 151 151 146 147 145 149 144 141 139 140 140 134 136 139 137 133 132 129 127 124 124 119 120 102 96 90 98 112 114 98 104 121 106 97 92 73 89 90 78 137 132 144 164 155 130 121 114 114 115 99 99 121 139 170 178 151 111 109 101 84 80 93 96 108 118 126 128 145 155 153 158 165 161 162 162 159 163 159 160 161 158 159 161 159 158 165 162 161 164 166 160 153 155 154 153 154 155 154 150 145 152 149 149 145 140 145 143 136 138 144 135 133 132 131 123 122 105 83 95 108 115 100 101 118 120 103 93 95 83 95 84 143 152 169 156 135 112 118 110 110 98 99 140 159 164 178 149 106 102 115 88 94 101 98 113 125 137 148 154 159 167 168 168 171 170 165 169 164 167 161 166 159 151 160 161 163 155 161 157 155 163 166 158 157 155 157 154 161 158 157 151 153 156 148 152 153 149 149 148 142 145 146 141 137 141 132 133 130 116 96 97 103 122 95 99 120 116 119 107 90 84 114 89 148 162 160 122 114 129 109 95 90 129 134 158 174 159 134 109 100 120 95 103 104 104 122 135 152 161 165 174 161 176 170 171 176 171 171 170 170 173 173 170 162 162 170 166 165 168 164 165 156 159 172 160 161 163 159 161 160 162 161 159 157 157 152 159 152 156 148 151 150 151 155 144 144 143 140 139 140 124 122 106 104 118 116 85 121 110 115 130 84 98 99 89 158 161 142 117 125 111 83 109 146 155 152 161 152 111 100 108 113 114 101 113 121 128 151 168 175 173 176 176 174 182 176 179 177 178 173 171 174 176 174 165 151 157 174 163 161 166 170 169 155 163 169 164 167 159 162 159 161 161 156 161 155 157 160 154 150 154 151 155 155 149 153 148 154 145 143 143 143 142 130 123 107 124 122 94 109 112 110 129 93 98 90 87 170 138 122 122 96 90 122 148 132 133 154 129 104 103 112 129 107 107 104 128 143 159 173 184 178 186 184 184 180 182 176 176 177 170 171 173 172 172 170 165 155 156 171 162 167 164 166 171 159 164 170 168 164 160 166 154 164 161 152 162 160 158 162 158 146 155 156 153 154 152 151 155 146 153 145 149 145 143 138 132 116 123 126 96 109 103 115 118 123 84 86 109 152 105 132 84 93 142 157 117 126 133 119 82 107 131 140 115 107 113 130 151 167 179 185 183 184 190 188 190 185 183 180 184 174 165 175 173 170 174 172 162 166 159 164 161 167 163 160 161 156 163 170 167 163 167 165 156 165 159 157 159 159 157 160 159 156 159 156 158 154 154 154 159 153 149 147 153 150 148 141 136 131 127 114 109 104 105 108 115 129 101 77 111 110 111 100 102 145 144 97 101 150 114 63 107 144 165 128 105 117 135 157 174 183 191 197 194 191 195 188 185 185 187 176 181 173 166 170 164 168 168 165 168 166 166 163 154 167 166 159 156 156 160 166 162 160 166 160 162 166 155 159 157 156 157 160 158 156 160 155 157 154 152 154 158 158 154 151 148 152 151 147 139 140 133 116 115 107 113 110 113 123 109 89 90 130 108 127 140 142 109 80 129 135 48 99 159 173 150 101 121 138 157 179 191 198 199 197 196 194 193 193 193 188 189 185 181 177 178 168 156 165 162 159 159 158 158 158 158 165 173 159 164 160 160 162 164 163 166 163 169 166 158 156 162 159 157 162 156 153 158 158 157 152 157 153 152 157 155 162 160 152 149 148 148 142 133 122 119 121 111 122 110 121 96 110 101 134 138 119 148 125 107 115 124 69 93 167 158 149 104 113 150 165 178 193 200 200 196 199 201 200 195 194 197 193 191 188 181 184 178 175 168 168 162 163 165 159 154 142 149 165 161 158 162 163 161 162 163 159 168 162 164 160 155 159 161 159 161 158 151 156 163 159 153 159 158 159 162 158 155 153 149 169 159 149 151 147 134 125 119 122 121 118 121 129 116 96 107 119 129 116 154 107 120 128 86 101 151 155 150 104 114 150 167 181 195 197 200 203 202 201 202 201 197 194 194 193 190 186 184 184 177 181 174 174 170 168 165 161 155 149 148 158 163 151 152 156 160 160 163 162 166 164 159 161 157 160 161 157 160 160 155 158 152 158 152 155 158 163 162 162 159 159 152 164 154 159 150 149 140 126 119 130 130 128 132 124 123 104 110 115 144 136 122 102 113 98 123 148 150 157 110 114 145 169 181 189 203 203 201 206 203 197 200 201 199 195 190 189 187 186 183 186 179 183 177 174 174 175 168 163 159 161 160 163 158 157 157 158 156 155 157 162 163 160 161 166 162 160 161 155 164 158 153 155 156 160 158 162 161 163 165 161 160 157 157 164 161 157 156 145 147 139 114 124 134 137 143 121 122 116 112 143 153 122 99 98 102 128 157 124 156 127 101 140 173 186 191 203 207 201 205 202 199 200 205 198 199 190 187 185 182 179 180 183 188 183 171 172 174 177 174 170 170 163 166 164 162 162 159 164 155 151 163 162 157 165 161 168 166 162 165 158 163 159 153 158 159 164 164 165 165 168 166 167 162 163 149 156 169 160 154 154 148 140 125 118 135 142 147 139 134 136 112 157 125 106 81 91 127 163 112 148 137 103 117 162 184 200 204 207 207 203 203 204 201 199 198 195 191 184 186 181 176 183 174 170 190 186 167 170 172 176 180 175 178 170 176 165 168 159 164 167 155 148 166 170 158 175 160 176 170 173 167 164 169 160 162 166 166 165 170 169 163 169 166 164 159 164 152 151 158 167 154 152 149 145 128 123 136 138 149 144 150 139 122 138 96 74 76 111 153 119 131 156 108 114 141 177 187 211 210 206 209 198 205 208 199 201 190 199 188 177 178 169 175 182 173 168 182 179 164 173 167 175 176 175 178 177 168 169 173 157 167 171 164 143 168 181 164 176 164 177 176 174 174 169 168 164 169 168 166 168 172 166 166 163 165 163 159 160 150 157 157 154 166 147 152 150 127 131 135 145 139 141 140 160 114 112 57 65 109 152 134 132 141 126 111 138 165 185 198 213 208 210 205 198 205 202 203 196 184 178 177 154 146 154 166 166 158 167 167 169 165 167 161 169 168 170 169 165 162 162 169 160 166 173 165 149 164 182 166 166 166 170 176 172 167 169 164 167 165 166 166 168 166 165 161 164 164 164 159 160 153 149 151 150 161 157 153 156 128 123 136 148 139 138 144 151 126 67 47 103 145 140 131 144 127 112 124 157 181 193 206 209 208 211 203 198 202 200 200 192 164 156 159 134 125 137 147 139 131 135 138 139 147 146 147 159 157 155 155 154 154 158 167 158 164 171 163 152 162 171 162 166 160 165 171 163 165 163 165 164 164 167 163 164 164 163 161 163 168 160 154 152 161 149 144 146 154 157 153 156 135 122 133 149 138 146 140 150 129 51 87 139 141 118 138 133 110 114 141 178 191 198 209 206 209 211 202 203 194 194 188 178 154 158 149 133 135 121 121 114 115 120 106 103 114 110 129 130 132 136 141 140 147 155 163 160 164 169 163 146 160 167 155 166 156 160 160 162 163 156 165 161 160 165 160 159 159 153 153 150 146 136 142 144 149 143 146 144 142 154 153 155 139 123 132 143 145 147 145 152 124 95 137 133 132 144 118 114 110 118 157 189 194 205 205 207 208 209 198 204 185 192 183 167 172 173 154 154 153 144 136 128 128 120 106 87 97 103 106 117 110 116 126 124 138 151 155 161 161 163 159 143 153 158 153 166 155 157 155 158 155 153 159 156 156 149 138 140 132 129 121 123 112 109 109 122 125 129 134 145 136 138 150 153 139 129 139 140 152 150 162 141 145 133 133 135 140 121 99 111 119 129 181 197 203 202 206 205 214 201 200 197 186 195 183 181 182 183 179 178 165 163 159 149 140 138 131 125 109 113 105 109 108 101 120 107 128 148 146 166 155 149 160 145 150 152 156 162 156 151 149 151 151 152 152 149 139 121 112 108 98 102 96 99 92 87 100 110 121 139 139 126 136 129 144 143 150 123 134 144 165 159 180 143 147 134 136 139 113 109 109 123 125 150 189 202 206 203 204 204 208 203 193 198 197 193 188 190 189 193 188 175 166 158 152 148 142 139 137 143 131 131 123 115 116 106 113 116 130 140 155 158 152 149 154 143 153 152 155 155 159 146 149 144 150 145 146 131 120 108 91 86 87 98 97 100 104 117 127 138 145 145 142 134 127 135 133 143 149 121 126 146 168 174 176 161 130 125 122 117 101 114 124 120 133 172 194 204 209 203 202 203 205 201 191 202 203 204 204 190 189 191 172 170 156 142 137 137 127 132 130 137 138 137 134 128 127 126 119 128 128 142 154 154 149 151 151 138 153 153 147 144 149 148 143 145 148 134 136 115 111 96 80 94 102 108 112 114 127 139 145 154 156 159 159 158 148 143 135 135 150 124 121 145 166 174 184 179 123 105 102 103 115 128 125 120 149 187 200 202 208 205 197 205 201 196 198 201 209 212 205 184 179 177 163 157 135 122 121 121 112 117 119 130 137 137 137 126 134 133 130 135 132 151 151 155 152 154 153 138 149 152 147 148 144 144 148 144 137 133 126 108 107 102 103 115 121 126 122 128 130 135 141 154 152 154 164 175 174 157 143 132 146 123 117 136 157 161 187 173 144 100 100 120 122 125 127 127 168 194 203 204 206 203 200 203 198 197 196 198 209 208 196 168 181 170 146 126 118 115 128 126 131 138 135 138 138 148 147 131 134 135 132 142 143 157 162 154 150 161 156 140 146 158 154 151 143 142 143 145 146 127 120 120 120 120 127 131 141 147 147 136 136 136 138 139 148 151 151 173 188 176 149 135 139 130 107 127 151 163 175 169 166 95 127 129 125 120 132 142 187 200 203 205 205 198 200 205 195 200 200 200 202 202 173 166 167 136 130 128 133 159 174 171 171 167 162 158 160 158 160 141 140 134 128 134 149 156 172 172 163 164 162 151 153 161 160 159 144 142 146 142 142 138 126 126 125 136 146 151 163 165 167 162 163 157 156 144 139 140 152 162 173 178 155 141 142 134 99 121 134 171 166 169 164 121 131 119 128 133 134 158 197 197 205 204 205 198 201 199 199 196 203 202 195 189 159 176 129 139 148 166 187 191 189 178 177 170 165 160 160 154 157 152 142 134 127 119 127 147 181 191 183 172 169 160 161 166 165 155 152 153 155 151 144 128 115 126 139 160 173 169 164 165 165 170 170 169 163 165 155 145 157 161 162 163 159 142 141 134 105 114 121 173 155 165 152 125 122 118 132 152 143 168 202 199 202 206 201 197 197 197 200 198 201 197 192 167 171 165 130 182 189 199 197 186 177 158 152 140 133 135 127 134 140 147 141 137 127 118 105 133 172 193 201 185 177 168 170 176 164 155 157 165 168 156 128 101 124 148 163 170 167 156 142 154 160 170 174 169 160 168 167 168 165 173 164 156 156 150 139 131 122 108 119 169 145 169 136 109 110 132 143 144 145 177 205 200 201 208 199 198 196 198 201 201 198 198 184 144 193 137 192 212 204 194 175 159 145 133 128 121 119 120 119 107 110 127 137 139 125 124 105 112 158 181 207 204 181 179 172 180 169 162 161 169 183 133 91 112 132 152 148 133 122 116 118 130 131 146 154 164 163 167 174 170 167 162 161 153 154 144 139 129 136 103 120 157 145 152 120 105 126 147 145 133 154 190 202 201 199 205 203 192 196 203 201 203 197 200 173 153 183 177 214 213 202 170 129 113 74 92 79 72 81 95 108 115 102 108 119 130 122 132 114 100 149 168 196 213 196 184 174 180 167 169 153 178 169 93 90 127 124 120 112 104 112 124 109 106 89 84 91 99 117 147 174 176 167 166 149 149 144 141 142 127 144 95 120 147 146 142 116 110 139 153 131 134 163 197 202 202 197 204 199 193 194 206 203 204 194 194 169 166 197 203 193 221 174 90 81 56 29 70 130 26 50 83 62 84 108 112 121 118 124 128 125 103 137 162 186 208 204 192 182 179 171 161 171 175 148 103 101 124 108 99 106 108 113 81 52 61 118 29 44 44 63 95 109 159 183 163 144 140 153 151 137 134 139 115 123 140 146 151 116 114 150 132 119 138 178 200 197 205 194 206 195 190 197 206 205 205 190 189 168 186 205 190 189 172 77 44 148 50 31 18 89 56 40 101 101 65 69 96 116 136 140 136 135 129 132 160 181 203 198 200 184 176 164 152 171 173 142 127 114 116 113 104 89 90 74 35 65 81 53 43 54 31 102 91 49 109 150 172 144 142 150 146 138 135 125 124 110 134 138 140 131 141 122 103 131 144 184 204 200 203 199 200 195 190 199 205 197 206 197 188 170 202 196 185 133 81 89 90 86 82 61 40 89 58 54 107 125 98 74 66 87 116 142 152 166 162 143 171 186 197 193 202 189 171 161 152 163 162 147 135 145 144 97 70 52 89 96 44 85 69 11 61 60 63 174 190 39 57 109 152 151 146 158 146 133 146 117 116 110 117 133 129 138 118 93 118 146 150 188 207 204 201 204 198 195 188 201 208 202 207 190 186 193 201 185 139 113 122 132 139 100 102 103 91 111 89 102 112 124 119 118 112 105 118 141 151 166 174 160 179 189 193 189 199 182 159 158 153 156 153 144 147 165 145 104 76 82 110 121 89 93 93 58 80 62 64 151 151 75 37 74 123 154 160 166 139 142 144 111 108 105 98 126 130 142 83 97 152 143 151 190 205 204 202 203 199 196 195 199 204 204 209 186 174 188 184 138 133 185 184 175 168 149 129 140 114 126 117 140 140 138 137 137 142 132 136 143 142 155 168 170 189 188 194 183 193 173 160 147 151 150 151 143 152 155 139 137 127 124 125 121 126 139 113 120 125 87 103 131 133 106 116 93 100 140 154 149 140 142 142 115 101 86 78 111 141 139 77 140 136 153 168 184 204 205 204 201 201 199 199 198 200 202 196 177 167 174 173 155 175 197 192 194 196 178 163 163 160 145 162 170 157 160 154 143 130 132 134 135 136 147 172 182 195 186 194 184 186 183 177 154 148 152 149 143 150 150 139 145 135 135 136 141 153 148 139 150 154 125 121 146 156 151 151 138 119 135 147 159 153 142 139 120 101 54 73 101 146 139 133 146 132 143 174 193 201 205 201 200 201 200 202 205 200 210 197 177 172 181 187 183 181 191 190 197 187 181 185 182 169 156 168 161 145 136 137 142 138 144 132 138 148 161 183 188 183 184 192 186 182 192 187 158 154 148 155 140 150 156 149 145 140 143 137 131 136 138 136 151 160 154 150 157 175 177 159 149 147 138 136 151 148 138 140 118 102 50 67 89 129 140 140 128 128 145 190 191 202 203 202 204 201 199 200 205 197 200 200 182 182 195 193 194 190 188 185 195 188 179 190 171 166 158 140 133 129 138 148 158 151 147 143 160 164 184 191 182 175 188 195 186 183 194 192 177 155 154 164 136 150 150 159 159 141 145 146 143 141 133 128 133 150 147 157 162 165 172 167 163 156 160 148 162 158 139 143 115 106 38 62 70 120 133 133 119 132 152 195 190 204 201 202 203 201 197 200 207 205 208 203 195 190 196 194 196 193 192 191 187 189 166 158 145 149 149 149 151 159 165 162 154 151 145 162 178 180 198 187 181 188 194 194 183 188 187 190 185 166 156 167 140 150 147 160 167 153 150 151 152 154 148 151 138 136 139 158 163 164 167 162 161 163 164 163 159 157 146 140 112 101 52 54 59 123 127 140 128 130 149 198 194 204 200 203 200 200 197 205 209 208 205 200 199 197 192 191 199 183 176 185 173 175 166 176 173 164 160 168 165 165 155 152 149 163 163 172 189 191 199 185 185 196 198 193 186 187 182 182 189 177 167 160 142 148 154 154 163 166 158 150 149 151 154 161 155 152 152 149 146 149 159 171 168 172 159 166 168 161 150 146 112 91 97 46 61 105 135 144 142 93 159 196 200 207 203 197 199 200 201 201 208 204 203 198 206 195 195 197 177 183 185 182 188 175 180 176 172 167 171 167 163 166 155 162 168 182 178 176 193 194 190 196 198 194 198 192 185 184 181 189 185 172 173 160 144 145 164 154 159 164 165 158 156 157 143 148 159 158 163 153 159 163 166 153 160 160 167 167 170 165 155 149 110 105 116 66 56 94 143 130 133 80 144 202 205 205 198 194 200 198 201 203 207 205 205 207 202 201 200 184 186 181 184 181 177 177 183 176 178 176 171 166 173 178 166 175 179 180 170 182 196 195 191 198 200 195 193 190 186 180 186 190 181 176 191 159 148 142 161 165 158 162 159 163 161 163 154 151 161 157 154 157 159 166 164 156 164 167 160 167 169 164 154 151 112 102 105 90 46 88 148 130 112 76 131 201 209 201 196 196 197 197 201 203 206 204 208 207 207 197 197 201 186 183 191 182 183 182 179 173 181 178 172 174 171 172 172 179 176 179 169 183 201 196 192 197 199 195 194 188 185 180 188 187 172 186 197 153 151 147 144 166 156 159 154 160 164 163 160 156 161 161 159 153 163 162 162 162 164 173 167 167 170 161 161 153 112 109 98 109 65 73 156 141 75 78 124 203 207 201 194 198 195 194 201 200 204 202 206 211 204 193 207 203 191 186 189 191 190 180 173 176 176 177 175 172 171 164 167 180 177 174 176 176 196 194 192 200 195 195 190 181 181 178 193 181 173 189 194 156 154 154 136 157 173 159 161 157 165 161 162 157 162 161 159 159 159 163 166 158 159 170 164 176 169 162 165 156 112 81 100 133 85 58 157 100 52 74 120 195 206 199 198 193 195 194 195 199 201 201 205 206 202 206 202 204 195 190 195 195 188 183 181 175 179 170 173 173 176 165 172 180 173 170 174 172 180 183 176 188 193 186 185 178 182 187 192 172 176 184 188 155 152 152 145 145 171 166 160 159 162 166 157 159 160 159 154 160 156 162 166 158 164 169 163 185 172 170 157 156 114 47 65 134 141 52 141 17 53 81 120 173 204 197 197 193 191 196 197 198 198 203 207 198 206 204 204 204 198 199 200 192 188 182 182 178 178 172 167 178 181 166 179 172 170 171 173 160 158 149 166 192 190 185 187 178 190 203 193 166 172 168 161 150 146 151 161 144 148 139 154 160 159 166 164 162 163 161 156 159 160 156 165 154 168 174 171 176 178 172 162 157 101 41 50 91 129 88 132 6 56 105 121 167 203 196 197 194 192 192 198 195 197 202 201 204 203 204 207 203 202 202 199 192 185 184 186 182 175 178 166 178 177 169 179 173 167 160 157 148 133 137 178 190 189 189 189 179 198 210 184 164 159 145 144 145 147 154 181 159 146 117 143 147 155 165 165 168 160 159 162 159 161 160 161 158 168 172 167 175 176 176 166 160 76 53 54 69 87 90 119 21 102 114 126 160 200 195 197 195 190 193 193 192 198 202 197 199 201 202 203 207 202 204 197 187 186 185 191 179 176 180 172 177 176 173 171 171 157 146 143 141 124 133 181 195 194 196 183 167 172 172 161 152 147 129 126 132 135 150 186 154 145 135 131 142 149 162 171 166 164 159 162 161 165 160 160 163 170 169 170 175 174 178 170 151 78 49 62 79 65 92 108 33 124 128 140 151 194 197 195 192 190 190 190 193 195 200 198 197 198 199 202 205 205 198 194 192 190 185 185 182 179 175 173 167 167 170 160 151 145 138 135 138 115 115 196 200 191 182 164 143 148 143 140 137 139 119 114 115 126 136 151 128 127 158 125 134 143 156 162 166 163 156 157 159 164 154 164 167 168 173 172 176 178 172 172 147 63 69 48 91 69 72 104 26 115 148 153 152 172 200 190 190 191 188 186 190 195 195 202 195 195 203 204 201 203 200 195 197 195 186 178 182 177 167 170 163 158 155 150 142 136 133 128 135 112 112 200 174 151 130 117 116 134 144 134 134 121 101 98 108 105 111 127 113 114 159 124 120 135 146 152 157 156 146 144 156 156 156 164 170 172 171 177 177 173 166 167 136 64 73 55 91 84 56 87 24 85 158 167 167 151 191 191 191 193 187 181 190 196 194 196 194 191 197 200 197 200 202 202 199 188 185 181 180 173 163 164 157 146 142 135 131 128 123 120 140 126 91 188 147 106 39 20 21 50 116 144 127 92 76 76 83 88 116 106 43 91 146 113 105 124 134 148 146 148 142 144 142 156 158 165 176 180 172 171 171 168 160 162 137 55 68 71 106 81 62 74 40 29 137 166 181 156 175 187 193 192 187 182 189 186 197 195 189 193 191 190 195 193 198 203 196 184 184 180 171 167 155 154 151 144 137 128 123 118 116 113 132 136 79 154 149 91 55 39 55 102 121 127 144 88 67 69 76 111 91 27 36 94 126 114 97 99 117 130 135 143 134 148 144 151 148 166 184 185 174 170 163 161 153 161 124 56 65 69 118 75 60 84 40 35 57 157 176 162 162 186 187 193 190 182 185 187 189 192 190 188 187 187 190 195 192 202 185 182 181 176 164 161 155 138 140 136 125 119 115 109 105 118 124 136 113 123 139 116 83 88 110 123 129 126 157 112 69 80 101 122 100 50 78 96 95 118 114 87 94 115 128 129 131 142 139 140 144 163 179 183 173 168 156 154 154 156 121 51 62 83 123 75 57 89 41 51 20 103 171 162 156 182 187 190 193 181 183 190 175 190 188 188 188 188 187 192 191 194 179 182 174 165 161 158 146 131 129 124 118 113 110 101 118 127 122 136 147 140 140 141 123 112 122 133 139 115 106 102 88 90 106 117 101 84 108 98 100 114 131 117 89 101 120 129 124 134 139 134 143 157 167 177 169 162 149 150 146 154 108 55 70 80 127 66 67 85 66 62 35 39 156 145 157 175 188 188 193 185 181 191 180 187 181 186 187 187 186 186 186 190 177 180 172 164 159 151 142 134 121 117 114 108 109 114 135 129 133 136 165 161 168 164 150 139 131 147 127 94 56 55 68 69 102 115 113 116 125 135 126 110 137 132 108 93 108 120 116 128 132 128 139 145 162 162 161 153 149 146 140 151 91 67 85 83 119 52 77 90 99 109 79 92 150 104 142 171 186 190 190 187 184 182 183 183 183 178 184 184 181 184 176 174 176 177 171 154 150 137 134 124 118 111 107 109 110 129 135 129 136 151 165 173 176 172 172 158 144 146 103 88 63 43 63 67 95 109 117 120 142 157 135 126 135 136 127 106 101 105 110 116 123 125 128 137 153 146 151 151 147 141 147 145 84 80 83 99 106 48 84 94 95 113 107 125 125 92 97 175 187 186 189 188 184 182 181 181 183 183 183 181 179 183 173 163 169 172 160 147 139 132 127 116 111 106 110 112 117 142 136 143 155 164 168 165 181 170 170 169 158 152 125 105 78 55 73 70 95 101 122 127 147 154 142 141 143 142 132 120 106 100 106 111 114 121 124 128 142 144 145 145 146 139 145 140 69 92 85 113 97 55 91 86 65 77 93 107 95 101 108 152 185 186 187 188 186 186 178 182 181 183 178 182 179 179 172 165 164 163 154 141 140 129 120 108 103 103 109 111 128 140 146 159 172 162 168 173 170 173 159 171 165 159 154 137 123 99 107 109 116 114 135 131 141 145 140 148 148 141 139 132 112 97 98 100 107 117 118 124 138 135 139 143 141 140 145 134 61 97 88 117 74 64 94 90 83 72 76 86 91 105 122 136 178 183 188 180 187 188 177 184 180 181 178 178 181 173 171 170 162 156 156 146 137 121 98 108 105 84 98 129 140 154 164 165 171 169 162 174 159 165 157 150 167 147 148 146 149 134 136 137 129 126 141 133 137 137 137 146 153 142 138 148 126 107 92 96 106 108 117 123 132 134 138 141 141 140 146 130 63 98 99 108 64 77 98 81 96 87 76 81 82 93 131 127 160 184 188 182 186 189 180 179 170 184 175 172 184 172 169 169 159 161 164 148 132 116 98 112 111 91 113 148 152 162 165 169 168 176 170 174 152 140 135 125 137 119 125 112 133 139 126 114 119 118 131 124 136 138 133 144 147 146 135 151 151 118 100 96 104 103 118 123 128 132 138 136 145 146 151 116 76 99 105 98 59 92 96 72 100 102 81 92 88 90 129 134 130 185 186 189 182 186 179 183 162 187 179 177 179 173 171 168 158 168 161 147 123 116 107 117 116 106 159 161 145 167 170 180 184 175 146 124 107 99 92 82 90 81 76 80 87 101 96 98 84 87 92 95 105 130 131 140 142 151 143 141 164 132 116 100 100 112 126 125 137 135 135 139 146 151 148 110 79 101 111 77 68 103 96 75 97 105 92 94 93 99 134 139 111 178 186 190 170 181 187 184 171 182 186 182 177 172 177 171 167 174 160 143 123 119 127 126 110 147 170 154 147 174 191 157 137 115 84 60 58 47 59 48 50 55 67 51 75 72 80 66 68 45 51 50 59 76 98 125 143 158 149 130 151 149 122 126 111 122 135 141 143 145 143 142 149 149 153 101 90 104 109 64 81 107 93 86 52 96 99 96 99 105 134 142 81 161 190 185 178 181 181 185 178 185 185 182 178 162 175 172 176 179 164 147 128 141 136 125 119 174 154 149 163 180 155 107 94 76 48 40 44 40 44 41 54 60 56 48 50 60 64 67 56 32 40 40 42 41 60 76 105 150 157 127 141 162 126 141 132 125 137 149 150 144 139 147 147 147 146 110 90 106 91 70 97 96 97 86 32 39 90 96 94 107 127 129 40 114 189 184 181 182 181 185 182 189 186 188 183 172 179 179 183 184 167 149 142 152 144 122 149 176 134 153 150 129 101 90 78 46 36 40 65 66 29 66 107 114 96 51 41 94 99 117 108 31 43 39 41 34 41 56 74 111 155 124 128 162 129 146 143 124 139 146 154 148 140 144 152 145 144 107 90 99 77 88 94 96 92 88 84 25 32 71 84 95 93 67 17 71 182 188 184 183 184 184 181 185 187 186 176 183 171 184 185 186 174 147 155 155 154 123 163 157 128 125 102 73 72 76 56 40 16 60 107 121 43 125 162 160 158 96 60 170 132 160 177 59 125 74 20 35 34 53 73 78 113 110 133 154 133 143 146 138 139 147 150 147 145 150 155 146 136 105 82 89 85 98 90 98 88 94 127 90 20 35 31 36 19 20 18 43 164 188 180 179 178 184 184 189 187 187 158 182 174 185 185 186 170 161 155 162 150 129 153 133 125 101 60 51 54 35 33 53 22 75 132 143 75 134 167 159 156 120 120 174 125 175 149 155 229 201 18 44 29 42 71 53 70 105 127 150 128 144 144 149 146 153 144 153 148 156 152 145 141 93 86 76 104 89 95 95 96 95 137 131 81 44 21 27 20 12 25 17 135 187 177 183 176 180 185 191 176 189 177 186 173 179 187 183 167 168 162 161 153 140 140 122 125 134 125 96 68 41 34 54 39 80 140 174 71 126 166 153 155 114 160 188 144 176 159 115 178 196 68 67 8 33 51 72 95 117 129 133 133 142 146 152 149 150 144 150 153 154 154 143 135 80 78 88 88 75 109 92 99 95 148 141 121 89 38 32 27 12 28 27 84 191 177 180 176 175 185 185 175 185 180 183 182 176 175 168 163 167 167 157 155 145 125 121 144 162 163 151 132 134 126 98 66 73 111 173 55 127 178 158 151 139 129 181 156 162 134 96 135 146 31 29 58 94 112 127 134 130 129 125 137 142 145 149 149 143 146 149 152 153 150 140 123 71 83 84 78 95 103 98 96 88 123 148 135 126 86 37 34 33 34 37 31 178 177 173 174 180 180 187 182 186 187 180 180 181 174 163 161 168 164 163 149 141 125 124 166 179 172 164 146 140 138 142 136 119 120 132 81 108 136 110 118 110 67 101 127 138 131 44 81 96 43 82 113 122 124 138 144 141 124 128 138 137 151 141 148 144 146 152 151 154 144 141 105 67 82 78 84 101 92 108 89 87 61 120 142 136 132 100 64 35 35 38 16 138 180 166 168 175 178 182 187 186 187 183 175 175 173 165 163 163 159 156 155 135 127 133 178 182 179 167 151 158 148 141 161 141 162 156 129 136 127 113 121 109 96 98 125 126 118 89 108 119 99 114 121 120 125 132 149 151 124 125 140 134 139 147 144 144 147 156 150 151 139 136 80 68 83 81 94 100 104 100 89 98 74 61 110 129 132 129 108 88 73 51 22 87 177 164 166 171 173 182 189 187 189 171 176 172 172 168 161 166 152 160 151 134 130 144 179 185 178 170 172 153 160 155 138 134 151 145 143 135 159 139 161 131 124 125 110 123 124 130 124 123 114 123 122 127 128 141 150 156 134 124 137 135 144 143 146 142 149 154 145 148 146 116 67 64 86 82 98 95 99 87 107 117 87 79 81 111 118 124 123 111 97 91 72 56 148 167 167 164 172 176 181 193 190 160 173 168 171 166 150 164 147 159 144 128 137 153 182 176 175 167 169 168 150 149 150 148 132 141 120 117 115 93 107 111 115 111 113 131 125 117 124 130 118 128 135 123 133 150 151 153 143 129 135 143 133 140 148 145 148 148 149 141 144 89 55 75 76 83 100 101 87 102 120 109 103 67 55 85 105 95 121 111 96 106 90 79 97 154 163 161 166 174 182 180 182 166 169 162 162 151 147 155 147 153 145 134 159 156 172 180 174 165 162 168 155 152 143 148 131 140 109 105 99 97 91 81 92 91 88 83 92 92 106 109 115 120 116 130 137 146 151 148 140 140 138 133 134 141 144 143 141 144 144 139 132 64 57 71 67 100 101 96 98 119 111 78 93 87 71 51 84 64 73 90 97 73 72 89 74 107 153 160 167 166 183 173 155 166 162 169 154 156 145 149 149 150 150 140 156 160 170 174 167 163 157 158 159 150 146 148 134 132 105 100 87 87 79 82 86 89 84 72 80 92 93 96 111 111 127 137 138 139 147 141 143 139 137 132 129 137 140 141 143 142 142 139 103 52 63 74 84 95 92 99 115 120 87 57 66 83 58 66 69 73 37 35 50 62 53 58 57 49 128 151 165 163 171 182 155 159 163 165 158 154 142 150 146 150 149 152 153 163 170 170 161 154 150 157 150 151 142 139 126 127 107 102 89 79 79 74 82 81 75 71 77 87 95 102 113 115 134 136 131 137 145 140 149 141 137 133 130 135 133 142 140 138 140 135 65 60 70 85 90 94 98 112 111 101 66 78 57 78 54 35 65 60 43 28 35 22 56 44 49 60 76 129 154 162 173 169 167 163 163 153 160 157 152 148 149 145 159 164 160 164 172 168 156 154 157 155 150 139 140 131 121 115 100 92 91 88 86 84 84 77 84 75 80 91 96 110 114 126 130 134 136 136 133 151 143 143 136 131 132 134 134 138 142 138 143 97 66 58 77 82 93 97 109 103 99 79 72 92 24 63 66 34 34 38 37 35 32 13 54 62 66 71 81 96 132 153 170 171 167 163 162 155 163 157 150 140 154 155 161 165 169 172 171 160 160 158 155 156 144 133 131 123 122 115 99 98 95 93 90 91 100 78 100 95 90 96 100 118 118 128 130 132 136 134 139 137 141 143 136 132 129 136 139 140 136 147 130 60 66 64 72 85 96 108 103 104 80 65 74 96 30 35 51 42 35 38 31 39 32 10 52 88 85 88 102 107 115 131 161 158 172 160 158 154 163 158 150 139 152 159 160 166 171 167 165 162 166 155 146 153 141 135 130 125 121 112 109 104 101 93 100 100 100 97 109 103 107 109 106 115 122 132 133 131 134 135 140 139 142 139 136 138 131 130 140 135 137 143 97 44 57 69 64 91 107 102 92 84 66 54 88 101 36 31 43 38 34 40 31 36 28 12 52 109 100 105 122 125 125 121 151 155 154 162 150 155 153 159 152 145 151 155 163 162 164 163 163 165 159 156 150 154 141 140 138 123 128 125 119 114 123 116 115 108 119 108 118 114 115 118 115 117 125 131 134 140 127 138 136 137 144 129 139 137 132 135 136 136 137 130 52 50 56 66 83 101 87 86 79 62 60 72 103 54 41 31 39 38 34 38 38 29 37 18 40 138 106 120 132 136 134 133 137 145 149 158 142 155 145 155 153 149 160 160 167 163 156 157 165 161 161 159 158 154 151 144 141 130 137 138 133 132 132 137 132 130 135 129 128 128 119 129 132 130 127 135 139 139 134 134 139 142 138 131 136 131 137 137 134 138 141 82 41 50 66 84 81 63 72 80 65 54 81 94 50 23 38 34 40 31 39 34 36 32 32 31 40 148 122 126 140 140 141 145 146 138 141 149 145 150 144 145 150 145 151 158 158 157 159 165 159 158 169 152 161 155 154 150 145 136 149 145 145 141 134 141 131 135 123 130 123 121 120 128 131 139 137 130 142 136 135 135 138 136 130 134 129 127 137 135 129 145 101 44 49 63 66 66 50 63 68 61 69 70 79 46 28 44 37 36 35 37 34 36 37 31 38 20 27 154 136 139 144 144 149 147 148 147 151 133 142 139 137 143 143 144 147 157 151 150 154 158 156 163 168 155 163 155 161 158 141 144 147 143 138 139 133 142 135 130 121 127 123 120 123 125 133 130 137 136 143 142 134 132 135 136 134 125 132 127 127 129 136 122 21 29 56 56 48 34 40 63 55 68 62 68 53 27 35 31 39 35 38 36 38 34 34 33 30 32 28 147 146 148 147 146 150 150 158 148 151 154 133 129 132 128 133 138 140 143 149 136 151 152 155 161 160 164 157 158 156 148 144 146 144 137 141 142 141 141 132 126 126 126 125 121 127 124 130 128 135 139 144 139 137 127 130 131 130 125 129 118 126 129 119 39 15 38 48 36 42 19 53 38 42 40 52 48 40 29 33 33 39 34 41 36 35 37 32 33 38 22 22 147 156 147 147 150 151 153 152 155 144 159 157 136 121 118 125 130 128 132 140 140 149 152 152 158 159 161 153 148 153 150 140 145 145 141 138 138 133 136 128 127 128 130 127 124 124 122 127 130 125 133 140 135 132 134 129 124 124 126 125 116 125 119 40 13 27 29 27 37 30 23 59 22 31 35 44 37 29 27 27 36 37 36 36 33 32 34 35 34 33 25 19 135 155 156 144 146 154 154 156 150 156 156 158 155 139 107 118 127 127 125 134 145 145 147 146 149 155 154 144 149 145 137 144 137 133 136 140 129 126 121 121 118 122 118 112 117 117 120 121 131 127 135 129 131 131 126 128 120 119 125 119 121 103 41 21 16 29 23 28 35 26 29 45 25 32 35 39 35 22 27 30 36 39 35 31 38 31 38 36 28 37 28 19 138 150 154 155 144 155 157 158 152 152 160 151 160 153 138 111 113 119 130 130 139 142 146 138 145 144 146 141 143 139 135 138 134 125 123 127 121 118 110 113 112 107 102 107 111 114 112 121 123 123 125 128 122 128 122 118 115 116 123 120 76 23 22 27 25 23 28 21 28 33 27 29 31 33 29 37 31 23 32 27 26 40 36 31 39 31 36 35 33 39 23 16 138 153 152 154 152 149 154 165 151 154 154 148 152 161 139 132 123 113 125 137 131 128 135 132 138 138 136 140 136 131 131 130 119 115 117 110 108 108 103 103 96 104 96 108 107 104 107 113 112 116 121 121 124 121 116 117 113 127 102 46 21 22 32 24 27 23 25 31 23 29 29 34 28 29 32 31 32 29 26 28 28 43 30 35 34 34 36 36 34 35 24 26 147 150 147 148 158 147 143 163 150 153 144 141 146 150 149 134 127 116 118 123 130 119 124 123 126 132 125 132 129 127 124 118 106 105 101 101 99 102 92 98 92 91 96 89 101 99 102 98 105 109 108 113 115 112 114 114 122 83 27 24 29 26 29 26 25 21 28 27 25 31 27 29 28 32 25 33 28 30 32 25 25 35 33 36 33 35 33 38 37 37 21 46 158 144 146 148 154 154 149 156 150 151 142 143 147 141 146 135 123 120 119 124 126 112 120 127 113 118 122 124 121 122 117 114 103 98 93 97 90 95 88 89 89 83 85 78 92 100 94 95 96 99 104 103 115 106 109 121 116 23 22 26 30 27 28 24 22 31 24 25 27 24 29 33 25 30 26 29 32 26 32 28 25 34 41 28 34 33 34 38 30 35 25 67 156 142 143 148 152 148 164 153 146 152 144 149 141 140 136 130 127 122 125 132 141 116 110 114 114 111 114 118 114 119 103 107 93 84 85 91 78 85 88 79 82 84 79 74 96 103 87 86 94 94 102 107 110 102 113 130 100 11 31 30 23 25 28 23 27 30 23 27 28 25 25 31 24 27 28 30 28 25 31 29 26 35 37 31 33 34 35 38 32 46 4 73 165 139 140 144 145 153 156 162 143 145 145 149 139 143 130 125 126 129 137 151 129 144 136 111 102 106 106 106 111 110 104 95 86 87 78 86 67 81 69 72 71 71 70 72 95 97 77 78 84 97 105 103 110 105 118 142 68 11 23 32 21 29 25 22 27 28 24 24 28 28 27 24 30 27 30 26 30 24 32 27 30 32 34 35 37 30 41 31 39 33 14 105 161 143 137 139 144 152 146 155 152 139 151 149 148 142 119 121 127 129 150 158 141 144 147 142 136 115 95 98 90 95 103 89 88 79 78 74 71 78 67 69 72 70 68 71 76 95 77 82 83 103 103 111 110 112 113 146 40 11 28 27 24 27 26 26 28 26 23 29 24 29 28 27 26 30 29 28 26 30 24 32 27 33 32 40 31 37 30 43 29 37 24 130 150 146 143 135 143 147 151 147 149 149 137 142 142 133 120 116 129 132 152 157 143 151 142 140 147 159 134 98 92 88 87 85 85 82 77 79 71 78 76 65 70 76 72 75 79 74 96 92 96 100 109 105 112 109 114 142 15 15 25 27 24 26 29 21 31 26 26 29 27 22 28 27 27 29 28 27 27 26 30 28 27 32 32 36 38 38 32 39 34 22 45 148 143 151 141 136 144 146 152 145 155 147 136 139 139 135 123 125 128 142 156 145 139 147 137 136 148 152 149 113 92 88 88 84 74 82 84 80 79 80 82 80 72 86 88 95 96 100 97 103 99 105 103 113 107 114 118 122 9 20 27 26 26 25 28 19 25 27 27 26 28 23 28 29 25 33 22 30 28 28 26 32 31 30 38 37 33 36 36 36 35 26 78 146 146 147 144 135 144 144 153 146 151 145 141 139 136 139 127 133 134 142 142 133 138 137 137 136 151 145 144 105 64 84 104 77 56 82 85 65 54 67 89 86 65 93 114 112 108 111 98 98 99 102 112 108 103 108 125 111 11 23 27 23 27 27 25 24 27 24 26 25 29 27 27 27 23 29 24 32 25 28 24 32 27 32 36 35 34 37 36 27 32 87 118 139 147 142 143 135 142 142 148 145 145 147 144 145 135 129 137 134 131 141 133 132 131 138 137 138 142 142 134 97 78 93 112 51 67 80 66 52 50 63 82 84 73 101 114 109 111 108 90 99 98 104 115 105 111 99 128 108 7 28 24 24 26 28 21 25 24 25 27 24 28 25 28 28 26 26 25 26 27 27 29 28 27 