P2
92
112
255
41 34 40 36 40 37 36 40 37 39 38 38 38 38 39 38 41 35 41 38 41 34 37 39 35 46 43 36 53 63 83 109 103 96 107 99 95 113 108 111 105 97 93 110 103 103 98 106 97 102 106 110 100 100 92 91 76 83 72 65 61 53 65 59 62 53 37 46 37 63 46 40 41 34 41 34 39 40 37 36 34 36 35 32 32 33 34 35 31 34 31 34 35 44 38 37 43 35 40 40 38 41 40 36 40 36 38 37 42 39 37 42 39 37 41 42 44 41 42 84 90 95 99 105 107 100 115 106 105 122 114 109 101 92 89 98 95 92 89 93 97 100 90 100 103 98 106 92 103 97 99 90 63 75 67 84 58 60 56 50 51 45 58 41 41 48 35 39 39 36 36 35 33 41 32 32 34 29 36 33 35 32 34 34 36 40 39 40 40 39 41 41 39 39 38 40 41 39 37 42 34 42 41 37 40 44 44 33 55 75 88 100 101 103 90 102 107 97 107 100 96 101 106 108 99 94 75 75 75 73 70 76 87 79 68 73 77 80 88 89 98 101 99 104 86 95 83 84 94 62 61 50 66 54 74 60 48 51 41 39 49 36 39 35 34 36 34 33 34 34 32 36 35 34 34 33 39 40 38 37 41 38 42 38 41 42 36 43 40 38 39 42 33 39 41 40 44 40 41 61 106 110 104 106 109 97 98 107 97 90 102 96 94 90 87 77 72 62 59 64 72 70 66 70 64 68 59 61 63 63 73 72 90 92 98 106 97 109 99 87 84 91 63 67 56 76 82 85 57 63 44 55 57 30 40 41 37 34 34 34 32 37 35 35 32 34 36 28 36 42 38 37 39 40 41 38 42 39 38 38 42 39 41 35 38 36 42 45 42 52 72 107 112 110 106 103 101 88 94 95 98 95 106 87 84 72 70 72 74 80 82 76 80 78 79 65 73 69 66 78 80 76 77 74 85 82 93 107 95 107 107 112 91 108 87 83 81 71 74 107 83 63 60 59 44 37 35 39 41 32 36 31 34 33 36 36 32 35 36 28 37 40 41 35 42 39 39 41 38 42 36 40 41 41 36 41 39 36 43 46 76 98 101 110 110 107 105 96 94 80 90 87 96 97 89 86 88 89 87 86 90 83 77 74 82 88 83 72 80 77 83 90 81 79 74 79 85 86 88 99 109 114 113 123 125 112 116 97 94 77 67 114 98 72 72 52 32 37 37 34 43 32 38 32 36 34 38 35 32 36 32 35 39 40 41 37 44 36 41 41 37 41 38 41 41 45 34 39 43 38 64 91 105 119 107 115 96 99 99 92 90 91 97 99 95 89 88 93 89 80 74 79 73 73 84 76 89 79 80 81 87 94 102 99 91 100 101 110 119 117 118 112 113 118 112 111 118 110 118 123 114 100 96 115 92 103 79 38 36 38 32 37 46 37 33 36 38 34 36 34 33 35 31 37 38 42 42 38 43 40 38 44 41 42 39 40 40 36 46 38 54 75 94 109 117 109 116 110 98 95 101 91 104 89 96 93 89 79 89 65 82 78 84 85 93 89 88 87 82 98 103 109 112 114 112 116 116 124 124 127 123 116 113 114 128 123 117 121 128 121 117 126 138 129 128 131 113 106 92 35 41 36 35 33 49 39 35 37 35 31 40 32 33 34 30 34 42 42 39 39 45 38 39 44 39 42 40 42 43 44 38 56 96 125 122 120 111 110 101 106 101 97 101 99 93 76 80 88 81 83 77 72 88 87 84 94 88 85 94 106 109 119 127 127 118 118 120 125 122 128 124 117 121 124 128 136 130 115 113 113 114 119 106 117 115 132 138 134 123 120 94 45 43 31 43 33 58 48 35 39 39 41 38 37 32 33 33 36 44 38 39 38 41 40 41 39 38 45 40 47 38 37 82 116 121 133 119 111 98 100 103 97 102 106 93 89 68 76 89 84 74 82 81 83 88 89 90 79 91 106 117 121 125 125 134 122 124 121 127 133 131 126 117 109 133 128 128 124 109 107 96 99 90 113 109 96 106 110 121 118 138 130 108 93 60 28 44 37 70 50 38 39 37 39 34 39 39 33 33 37 37 42 38 37 44 40 41 38 41 42 41 39 53 82 129 125 124 110 105 94 94 102 91 100 106 84 76 84 83 90 80 80 85 72 88 77 85 87 88 95 119 119 125 128 119 118 115 108 108 113 121 126 133 123 117 109 118 112 105 95 90 86 78 77 69 86 91 80 85 107 108 89 102 132 114 95 100 66 46 66 60 42 39 34 39 40 33 37 43 37 30 41 40 38 40 40 41 41 39 40 41 40 33 56 120 122 129 112 111 108 97 91 89 90 96 103 79 72 83 100 89 80 84 85 80 82 95 93 89 95 101 117 120 124 112 108 94 90 94 108 108 116 122 125 118 104 95 77 87 85 77 70 68 65 67 77 62 67 82 87 81 88 91 77 81 102 116 114 109 62 74 83 44 47 33 41 32 38 37 36 37 40 36 47 37 39 43 42 42 40 44 41 42 29 74 120 139 120 111 107 100 92 101 91 87 97 100 79 75 80 92 104 69 91 94 70 96 94 97 103 112 116 117 112 101 105 97 91 81 80 94 111 97 132 113 94 81 72 76 61 69 52 50 53 49 50 55 67 65 63 77 77 67 82 89 71 81 87 105 118 111 58 75 64 45 52 40 37 37 50 58 39 49 45 50 58 37 44 37 41 41 39 39 40 37 90 129 131 111 88 95 81 82 100 95 100 102 90 74 82 98 95 93 80 78 81 83 93 97 104 112 119 128 110 94 90 97 128 98 90 84 80 111 105 100 128 66 83 66 58 69 44 47 51 54 54 48 51 55 62 70 71 77 73 83 88 81 71 84 97 104 106 98 85 82 70 67 67 65 64 57 56 72 48 54 46 65 45 48 38 40 42 40 36 45 54 98 134 118 105 92 84 81 76 90 91 101 100 102 74 83 101 90 90 92 82 90 102 106 97 111 115 113 111 98 96 95 108 127 132 82 94 92 99 92 76 84 81 54 67 57 64 65 52 62 65 57 74 69 74 70 75 79 78 78 76 79 88 89 92 104 108 106 103 102 102 97 93 80 73 71 53 45 53 72 35 42 45 41 38 42 40 41 38 42 53 51 104 129 111 96 87 97 79 78 93 98 95 100 86 85 86 111 101 96 87 87 102 110 121 112 120 118 108 93 76 85 109 120 123 136 96 97 100 79 70 66 56 58 51 48 56 60 62 55 61 74 78 67 82 74 82 84 80 92 86 85 88 90 91 99 97 97 104 111 108 109 106 95 80 74 60 49 45 47 54 58 41 38 37 31 40 43 42 37 48 61 41 95 129 101 98 90 91 89 80 102 95 97 101 97 78 93 110 96 97 99 96 99 123 127 125 113 111 95 86 84 83 116 136 132 112 103 97 91 74 59 53 51 47 50 50 47 63 69 61 62 69 75 89 76 91 84 87 98 96 97 96 96 101 99 89 86 82 86 91 104 103 104 107 95 72 74 60 50 54 51 52 52 36 36 33 34 33 37 44 47 59 36 86 119 96 94 99 100 88 84 88 101 100 94 115 80 96 106 107 100 105 105 110 122 124 112 96 97 87 81 81 100 128 141 130 113 90 88 96 72 58 56 57 57 57 63 62 65 70 77 70 82 80 86 104 91 101 92 93 101 107 102 102 102 106 100 93 87 78 67 80 89 96 100 99 107 104 76 56 50 55 40 52 38 45 36 38 38 38 38 54 49 42 79 108 88 95 117 102 92 88 98 90 108 107 111 92 101 114 122 128 104 119 122 116 108 92 88 82 87 74 93 113 128 136 118 89 89 73 85 97 77 82 80 83 82 84 88 89 85 91 96 97 105 100 107 111 116 117 112 104 110 112 110 105 104 109 108 103 96 66 71 65 78 77 96 90 98 109 104 67 53 57 53 37 46 40 36 36 36 35 57 47 44 67 123 97 94 117 118 90 100 96 89 108 115 121 87 108 128 142 136 135 132 122 108 85 78 86 79 89 80 84 127 123 120 129 76 77 81 81 105 101 106 105 105 105 100 104 102 105 110 112 114 121 123 132 120 127 142 129 132 125 127 126 121 114 112 111 107 111 107 90 71 64 72 80 85 95 97 96 105 101 39 61 64 46 39 51 39 37 30 39 52 39 49 125 106 103 123 103 101 109 109 104 103 113 119 104 120 139 147 142 121 122 112 86 78 76 86 78 83 90 102 122 129 110 128 102 67 95 100 110 121 120 115 119 116 113 120 117 121 127 128 132 140 133 144 141 139 138 151 152 148 145 142 138 140 135 127 126 118 116 112 106 94 66 63 72 83 102 106 84 93 107 95 41 59 63 46 41 45 36 36 38 26 61 97 107 112 118 110 97 107 116 109 110 105 115 121 133 147 136 125 111 103 94 82 74 77 81 70 75 98 114 129 124 99 114 109 85 105 112 120 121 119 126 130 132 136 134 141 137 137 146 145 145 151 152 155 152 150 154 155 160 153 157 156 145 146 146 144 134 136 123 124 118 107 93 67 72 75 116 96 91 90 112 90 75 48 55 55 50 41 42 34 38 38 108 107 114 117 116 106 110 124 127 121 110 114 131 133 157 141 117 103 90 85 79 74 71 75 69 74 112 121 126 126 98 106 99 100 109 123 112 124 124 132 141 150 152 159 158 157 158 152 156 152 151 153 158 156 162 157 160 163 165 160 161 162 156 159 157 149 150 151 136 134 131 125 112 87 81 73 118 98 101 109 109 86 90 73 49 44 49 53 40 36 37 99 106 110 126 128 100 129 129 120 130 118 126 141 156 144 126 109 101 91 81 84 68 61 85 87 95 100 128 115 107 110 100 106 95 110 118 114 125 130 141 149 149 163 166 169 164 160 162 161 160 158 156 156 159 162 163 155 161 160 168 161 162 161 162 164 160 154 158 152 153 146 143 134 128 114 87 83 98 106 109 106 113 89 93 84 63 50 48 49 46 35 35 117 98 119 140 125 117 137 142 118 118 141 148 154 150 127 105 89 87 95 78 65 63 75 104 109 119 111 111 90 104 114 110 97 118 116 125 126 138 147 155 161 157 166 170 174 168 174 166 166 162 163 162 150 164 162 161 159 161 163 164 160 167 164 169 163 161 159 158 153 160 155 150 148 139 126 109 97 87 112 109 108 109 107 102 67 76 64 57 45 46 36 36 92 117 133 147 115 128 147 130 123 154 147 129 148 133 133 80 85 96 69 62 77 76 113 116 108 116 93 76 100 116 116 102 114 123 128 132 140 148 159 167 168 170 177 177 176 170 176 164 165 164 170 155 140 162 161 161 161 163 162 168 162 167 169 163 165 160 161 159 161 160 156 153 153 146 141 128 110 97 111 112 109 95 117 122 54 80 64 62 52 45 38 36 118 128 139 140 115 140 126 148 158 121 126 130 141 130 90 101 87 67 72 94 109 117 107 120 104 77 64 100 124 110 114 111 121 132 136 148 151 159 169 171 173 173 176 175 177 175 166 167 170 173 163 160 149 158 164 163 162 160 162 165 163 169 166 165 166 158 161 159 158 160 149 156 156 146 148 136 128 101 108 123 111 87 121 132 54 75 83 48 51 55 42 39 139 142 139 138 135 132 143 163 129 114 148 152 120 102 86 92 71 90 109 118 104 83 110 120 65 63 99 133 115 110 119 126 134 141 151 163 161 171 169 170 168 170 171 169 174 175 162 164 175 173 159 162 160 158 162 157 162 156 154 165 165 164 167 166 165 161 164 162 160 160 160 167 157 156 155 138 134 121 96 133 111 84 127 107 94 80 62 47 48 54 42 42 147 132 149 147 148 158 136 129 125 145 150 120 90 108 100 90 131 130 116 99 79 91 122 72 60 96 142 123 111 112 129 134 142 154 164 166 168 172 171 172 174 175 180 177 175 176 167 163 165 162 159 161 159 160 160 158 164 157 159 162 163 163 165 166 165 163 164 158 158 162 160 164 160 159 158 143 138 129 106 126 114 106 107 92 104 102 55 38 57 62 44 42 138 145 151 156 148 151 133 135 157 146 106 92 104 123 124 134 124 98 104 83 90 99 89 64 110 142 144 100 111 127 141 144 155 169 168 172 180 180 180 180 180 182 180 179 178 178 175 177 163 158 163 161 158 159 152 159 162 159 163 165 164 162 165 170 166 166 159 160 159 166 158 162 160 159 151 144 147 138 116 116 131 122 81 91 98 113 55 46 56 54 47 36 156 145 154 157 136 142 154 161 147 106 74 118 150 150 125 94 91 82 114 81 94 82 86 116 130 139 116 103 131 145 149 157 166 176 181 182 178 180 181 174 179 181 179 178 174 176 180 177 171 168 166 161 162 158 144 156 161 157 156 163 162 162 166 168 169 159 158 162 161 164 156 162 161 162 157 155 145 141 123 114 136 133 97 84 88 107 63 44 58 47 41 40 171 137 158 148 136 155 159 130 112 96 131 157 158 104 85 96 92 100 96 85 86 87 125 132 130 113 114 126 144 148 160 174 175 180 187 179 175 185 184 184 185 178 180 179 179 183 182 176 179 174 172 167 163 161 154 155 163 158 154 162 160 162 164 165 164 160 159 163 161 163 158 164 161 159 162 160 152 142 138 109 137 145 122 62 94 91 74 58 54 42 37 45 177 144 141 145 169 163 124 102 125 167 147 117 120 88 87 106 104 90 86 86 104 125 117 142 115 116 138 143 146 163 175 180 185 182 178 183 183 189 187 187 183 173 180 176 176 182 182 179 178 173 171 177 167 165 162 163 168 159 160 164 160 164 162 162 162 167 163 160 160 168 158 158 158 164 161 160 156 150 136 119 123 155 131 78 91 84 71 69 46 39 38 47 171 140 154 177 179 138 119 140 159 122 116 108 103 117 90 103 92 94 90 86 141 106 134 115 118 144 153 160 157 176 183 187 181 181 190 186 182 192 186 183 176 178 178 178 181 176 182 180 182 162 167 175 169 170 164 166 167 164 163 165 154 167 161 162 162 167 165 161 165 166 159 163 164 169 165 166 162 153 138 131 122 153 147 86 105 68 74 71 44 49 33 49 150 166 173 175 157 131 152 129 96 109 106 113 113 114 88 92 87 90 85 132 121 123 127 105 137 150 160 174 175 184 195 181 182 192 191 182 187 186 179 175 165 168 170 170 174 171 177 181 174 161 165 173 171 169 170 167 167 167 163 164 157 165 167 164 166 169 166 163 166 167 168 168 174 173 164 166 163 159 134 136 125 142 152 116 109 67 76 54 59 47 39 47 179 173 170 163 129 130 131 82 94 122 109 123 116 100 81 79 93 98 126 132 120 123 114 125 154 156 174 183 187 196 192 179 189 191 191 187 190 177 163 159 153 144 143 146 157 154 163 166 167 161 161 168 166 167 169 170 169 171 164 166 165 164 174 164 167 171 167 166 167 168 170 178 175 176 164 166 160 162 145 135 132 134 149 123 120 77 71 59 59 45 44 46 197 150 175 144 103 129 106 95 117 124 120 121 101 85 72 82 108 126 124 123 122 114 126 148 155 169 183 193 200 194 194 180 187 194 183 186 183 159 149 144 137 119 126 129 135 126 138 136 145 146 155 157 159 156 164 163 165 170 164 168 165 165 171 168 165 172 164 169 165 169 175 180 179 177 170 168 164 161 153 130 134 143 144 106 131 100 65 66 55 44 45 47 156 174 160 99 124 133 99 129 121 129 124 99 87 81 90 103 122 125 113 126 116 114 141 152 158 184 190 201 205 196 196 178 200 186 175 179 165 149 144 137 126 123 111 110 102 104 107 98 103 117 120 138 143 146 153 157 164 170 163 168 161 167 171 165 168 170 164 170 169 170 184 182 183 182 180 174 166 154 151 131 122 151 134 117 106 135 73 58 54 46 40 50 177 173 102 112 120 121 122 129 142 115 106 92 90 101 107 120 120 123 125 119 114 130 154 161 171 194 199 208 201 207 183 196 194 169 181 175 155 154 154 150 138 136 128 113 103 102 96 85 81 96 97 117 115 127 141 142 160 163 165 166 164 170 167 166 169 170 161 170 168 175 188 180 180 180 169 160 139 135 134 126 122 142 128 145 85 141 94 58 56 46 38 42 184 118 104 133 119 128 140 125 123 92 90 79 107 108 108 131 133 125 121 118 130 151 165 170 187 196 203 207 206 199 188 198 186 173 176 166 162 167 171 166 161 156 152 142 132 123 107 102 95 97 106 96 111 112 130 125 155 158 163 159 166 177 163 162 170 172 162 168 172 174 182 170 147 144 134 129 108 110 114 117 122 131 141 152 102 118 115 70 49 48 37 37 122 103 147 120 115 137 134 113 106 91 87 113 109 99 118 130 128 119 127 127 143 160 171 181 199 197 207 202 213 187 205 184 193 171 176 162 171 173 176 177 174 155 149 149 140 135 122 116 118 107 115 101 107 110 118 121 146 151 155 160 163 175 162 159 170 171 159 171 172 179 163 139 117 111 105 105 94 118 134 134 123 116 146 150 138 81 123 85 46 48 39 37 110 124 147 131 106 157 130 81 110 105 108 113 91 112 120 126 121 126 135 140 152 168 172 197 205 203 206 207 202 198 203 187 183 177 176 175 171 166 168 164 159 149 140 140 141 133 127 123 119 115 114 110 115 111 124 122 140 143 151 158 163 170 159 160 154 173 158 170 170 159 138 116 97 97 110 117 131 157 177 161 131 109 146 162 158 72 132 72 55 53 41 40 156 124 147 144 128 165 113 92 110 110 105 88 98 127 124 126 124 135 144 145 161 175 184 206 206 207 204 210 195 207 196 201 175 185 182 179 166 156 156 147 148 140 128 128 125 119 118 120 121 115 117 109 115 112 123 119 137 141 148 155 163 163 157 160 154 167 164 167 159 133 119 103 107 120 126 135 154 169 189 188 155 120 136 176 154 87 113 102 48 47 42 39 152 120 173 132 143 133 111 101 108 99 81 91 115 115 125 128 127 145 147 151 171 177 193 207 207 207 205 209 199 208 202 197 174 190 179 175 156 149 151 140 130 125 123 130 132 138 135 132 132 132 120 113 114 114 120 118 138 142 146 154 165 154 157 160 163 162 168 163 143 117 126 123 132 138 138 146 155 156 188 183 165 135 122 174 143 105 88 136 48 41 43 40 137 144 158 122 122 117 102 112 88 69 86 111 105 116 132 128 138 153 150 161 176 178 203 208 203 205 207 204 205 205 204 191 187 184 176 165 137 149 131 119 115 132 154 156 162 161 158 156 154 147 137 127 119 114 110 119 134 145 149 155 162 156 156 164 169 164 167 147 136 130 137 145 148 165 156 152 162 154 175 179 167 143 118 161 143 112 83 133 92 30 42 43 130 165 153 130 115 107 103 104 53 79 110 107 107 131 135 132 143 155 153 166 175 188 206 209 204 204 206 202 203 205 197 191 196 176 170 141 139 128 109 125 158 175 179 172 166 169 170 164 158 153 149 137 128 111 104 106 122 153 159 172 160 156 158 164 173 170 164 140 135 136 151 160 162 170 174 172 167 170 156 168 164 144 114 164 147 109 103 107 131 34 36 46 149 153 141 126 108 109 102 65 65 117 107 99 122 138 142 134 134 157 166 169 183 191 209 204 206 203 204 202 205 202 198 186 184 173 143 136 135 115 168 191 191 190 179 165 151 153 146 138 136 144 148 142 128 115 105 95 113 142 166 179 168 160 164 162 172 176 161 129 133 149 171 175 169 168 172 175 182 174 170 173 163 140 105 155 131 117 119 79 135 47 35 42 159 163 127 112 108 117 47 53 111 108 106 102 130 138 140 134 136 158 167 176 184 202 207 202 207 204 199 203 204 204 199 179 179 168 109 158 119 193 200 185 164 170 146 136 130 132 130 124 113 109 125 135 127 115 105 97 110 127 164 181 185 174 168 168 172 177 156 103 140 158 159 144 131 138 156 174 182 170 178 170 156 141 109 150 129 113 96 83 91 78 39 43 174 154 125 98 122 67 37 96 116 95 107 114 129 127 140 124 147 153 172 179 189 203 206 205 204 200 205 205 200 205 196 176 177 143 117 153 185 203 186 156 110 111 106 77 84 99 101 106 111 105 108 121 120 115 107 106 112 117 153 185 185 183 174 170 176 178 134 97 136 133 133 131 117 110 119 135 146 162 190 166 146 137 119 115 124 114 81 84 64 101 56 37 165 130 122 119 97 26 88 115 96 103 113 125 122 119 136 128 152 151 178 186 190 202 207 202 202 201 205 209 196 200 191 173 166 118 140 190 194 197 159 100 51 61 118 31 56 111 91 61 74 100 110 120 117 117 114 121 117 121 144 193 187 187 178 175 177 182 125 110 111 119 114 118 71 61 66 99 91 111 151 176 144 134 123 92 121 99 82 74 57 89 64 47 131 126 116 141 32 64 119 107 93 105 126 128 112 115 135 137 151 162 171 192 198 202 205 203 197 202 207 207 194 205 186 168 150 113 181 201 172 148 89 44 42 20 70 55 47 126 121 81 65 68 96 122 127 120 134 140 125 127 145 179 192 184 187 176 172 171 145 118 117 92 63 111 53 63 44 121 113 61 102 144 151 129 124 100 111 83 89 60 46 80 57 55 124 129 125 114 30 95 130 83 101 115 127 109 106 118 137 135 154 172 177 195 203 203 202 203 199 201 210 199 192 204 190 164 151 127 199 184 131 62 62 52 74 29 79 59 60 120 125 98 100 72 75 95 121 141 172 157 130 136 155 180 193 189 191 183 163 163 164 127 73 35 80 47 29 78 99 203 205 83 44 108 143 116 120 105 113 71 96 42 54 63 64 42 131 136 128 95 64 120 113 95 105 129 100 102 109 122 127 142 162 182 185 198 203 204 201 205 204 202 207 194 198 203 181 154 157 166 193 135 103 136 121 114 104 97 113 89 99 114 118 113 112 113 109 107 127 149 164 167 130 147 168 185 193 194 193 183 161 154 170 129 62 66 95 63 55 70 92 196 199 122 26 84 135 97 113 115 117 68 91 34 58 50 62 41 117 147 116 63 105 131 99 97 120 100 92 106 116 114 124 144 162 182 198 201 202 204 208 202 203 205 201 189 191 185 168 143 139 160 154 88 174 183 171 156 135 128 133 114 123 127 146 139 132 135 136 130 130 131 147 150 133 162 171 193 194 193 193 184 157 156 150 156 128 119 132 118 113 88 105 154 148 117 94 78 121 82 115 111 121 85 79 34 56 49 76 31 120 141 102 60 133 113 83 114 100 88 103 116 106 117 128 147 164 188 202 204 203 205 207 206 206 204 201 195 190 187 169 149 149 151 154 130 192 189 187 183 172 156 158 160 153 165 164 153 146 139 126 127 129 126 146 143 147 163 175 189 199 189 193 189 177 171 152 158 145 140 140 139 146 135 139 152 136 145 153 118 128 70 120 113 109 96 62 46 59 51 68 37 133 138 76 112 132 86 108 102 85 97 113 102 104 124 132 151 168 195 202 204 207 206 208 208 208 207 205 197 181 179 168 148 167 175 176 172 177 183 187 178 163 172 169 163 163 163 148 135 132 132 127 129 130 137 152 143 159 161 167 186 199 194 196 195 188 183 161 153 156 146 140 143 156 164 172 180 162 169 179 136 130 71 118 110 108 80 66 40 55 62 52 39 143 123 76 154 94 105 117 87 99 88 96 98 110 131 124 165 170 203 202 205 208 211 208 208 207 206 201 193 185 188 180 169 178 185 186 183 180 180 176 188 175 173 159 150 152 129 126 131 136 141 139 129 144 151 152 153 165 161 172 190 199 199 195 193 199 189 178 159 164 153 151 147 143 144 165 181 178 180 176 148 143 71 100 120 98 78 64 49 54 55 56 44 128 109 96 154 78 121 91 80 91 84 93 98 111 131 129 173 178 207 201 209 207 211 207 206 206 205 206 197 190 190 184 182 186 186 186 185 194 177 177 173 163 145 138 135 140 140 149 147 148 139 145 134 162 161 154 166 172 175 182 190 200 199 193 195 195 186 187 174 166 158 162 160 159 154 148 157 177 179 166 156 155 85 94 116 89 84 58 46 68 61 52 49 122 111 128 109 124 98 62 83 82 91 108 97 117 130 144 179 189 207 204 208 205 209 206 208 210 207 208 198 194 187 183 186 189 177 182 186 171 165 169 167 165 158 169 157 158 161 151 147 137 145 156 150 171 165 161 175 174 178 186 196 201 195 193 192 191 179 185 183 177 162 160 164 166 172 169 166 165 164 168 167 166 102 99 108 95 83 47 43 51 62 60 53 134 118 145 74 118 61 65 69 83 119 109 96 111 130 153 179 196 207 206 207 205 206 208 206 211 206 202 202 200 193 188 188 183 187 188 163 170 178 159 167 155 165 169 162 164 153 153 147 148 155 168 158 175 168 172 171 180 182 186 196 199 197 193 192 183 185 186 184 178 165 157 163 170 169 167 177 175 172 163 159 170 130 107 120 81 88 44 42 42 61 50 46 156 131 143 83 69 68 70 71 115 112 103 97 105 122 159 183 200 206 205 207 204 206 206 206 208 207 205 205 204 198 188 187 182 186 170 183 166 180 172 158 165 165 175 171 164 158 160 155 156 160 158 162 168 173 175 174 177 182 190 198 197 196 192 191 182 184 182 181 192 170 157 155 175 165 166 177 179 172 165 169 175 149 120 127 78 87 49 40 42 53 49 45 141 147 133 84 33 67 81 99 110 102 92 112 93 110 163 186 200 203 204 206 205 205 205 204 206 209 207 207 204 200 193 189 182 173 190 179 168 183 176 174 179 170 167 173 169 159 156 154 157 159 156 164 169 174 177 171 180 183 191 199 196 193 188 187 182 181 178 188 188 161 165 155 164 168 167 171 172 172 169 174 177 153 140 132 71 93 42 38 42 51 45 40 112 155 118 54 42 70 107 111 76 103 94 124 92 101 160 182 199 197 206 204 199 206 201 202 204 208 204 208 204 200 192 190 173 187 185 182 175 174 184 186 180 172 173 169 166 165 152 152 152 159 163 161 171 170 174 172 173 180 191 194 189 188 186 185 184 181 178 207 191 154 165 164 150 169 166 163 172 166 170 167 174 162 157 144 63 93 46 37 45 54 44 42 111 150 94 53 65 91 129 65 71 102 98 128 95 101 145 176 197 191 204 199 199 202 199 203 201 205 206 206 206 201 190 179 186 184 181 178 179 175 182 183 182 175 183 173 164 165 159 152 157 160 160 160 163 162 154 149 170 181 189 184 184 186 186 182 186 176 178 210 179 149 159 172 145 169 162 163 163 165 169 166 169 164 160 144 73 90 52 36 49 48 44 44 143 135 78 81 93 127 64 41 105 94 90 115 104 101 140 172 190 193 198 195 199 193 198 198 201 204 204 202 202 203 189 188 180 190 182 180 181 182 178 174 180 176 180 178 170 167 162 157 156 157 156 152 153 147 127 137 174 185 183 184 185 190 194 197 186 172 176 183 159 141 158 181 156 161 169 168 157 166 166 167 165 164 157 148 96 64 78 33 46 46 43 40 186 100 86 107 125 69 26 58 131 90 89 110 107 106 138 163 187 194 194 197 196 195 197 196 201 200 200 203 201 196 194 187 187 190 185 177 182 185 175 172 166 181 183 177 181 164 166 161 158 153 154 144 139 136 115 131 175 189 189 188 193 193 190 187 172 160 157 152 142 132 146 187 173 154 176 170 165 166 164 170 164 157 154 166 105 64 83 52 39 47 42 43 196 93 91 146 65 58 24 101 131 100 102 104 103 111 134 150 180 185 192 193 192 193 194 198 195 197 199 200 196 199 191 189 186 186 183 183 182 179 174 168 164 173 182 177 182 169 166 158 151 148 149 132 134 130 112 113 198 199 196 186 188 173 156 139 146 138 134 132 129 124 127 169 155 154 171 175 171 169 172 168 164 157 152 177 97 74 75 49 42 47 44 41 175 89 142 127 41 48 63 96 123 118 111 107 104 119 122 146 164 182 187 187 187 190 191 193 189 194 198 195 197 194 193 192 186 191 183 183 182 175 169 173 173 166 172 171 167 163 155 150 147 144 137 123 120 134 100 120 206 194 165 149 136 131 123 128 140 129 129 122 106 110 122 126 129 152 160 174 172 171 173 167 165 154 151 170 108 62 95 44 39 45 45 40 154 123 157 81 68 45 107 57 117 126 118 112 101 118 122 132 154 173 185 186 187 190 190 190 185 190 197 194 194 192 194 190 183 194 185 180 179 180 177 170 175 162 165 163 155 155 148 137 136 134 124 109 123 143 103 113 185 154 115 52 42 45 58 68 96 131 120 96 84 91 107 115 128 141 148 165 168 179 177 172 170 151 144 169 113 61 82 57 40 45 44 45 141 175 134 54 82 74 121 32 89 119 121 117 98 118 127 123 145 163 179 187 187 190 190 186 183 190 191 194 190 191 191 190 184 190 183 183 174 184 178 171 165 158 158 156 144 147 140 130 129 123 111 101 133 143 127 76 149 128 80 23 36 41 62 64 74 127 127 82 71 91 105 118 118 127 141 150 162 178 189 181 173 150 141 166 127 57 55 79 37 45 44 44 154 195 113 64 81 111 97 54 42 108 115 120 101 108 133 128 138 166 168 187 190 190 188 180 185 191 190 188 187 189 187 188 184 183 180 182 175 181 179 166 162 153 151 144 140 133 133 132 124 111 93 110 130 134 139 75 87 99 88 74 64 74 85 77 113 146 124 81 85 117 108 84 105 119 129 139 148 176 187 185 170 151 141 149 150 64 39 88 39 44 42 43 185 194 86 90 99 133 42 57 60 65 107 114 108 94 132 133 128 167 161 183 186 194 184 183 181 187 186 184 181 184 186 187 177 181 180 179 177 178 171 156 157 152 146 136 141 122 124 125 117 93 87 126 129 135 125 115 83 81 91 100 102 104 104 81 87 104 106 99 121 128 97 61 98 109 121 129 140 161 173 176 164 156 129 151 168 78 36 88 40 45 45 46 208 171 89 97 164 82 55 42 60 58 85 108 103 96 116 142 132 151 174 166 185 188 187 181 184 185 188 190 164 187 178 177 183 183 178 176 177 172 164 155 152 147 137 135 130 118 123 121 103 77 121 136 133 137 127 131 124 122 124 126 137 131 108 90 65 72 98 119 123 132 109 60 92 104 113 124 133 148 161 166 159 153 129 143 178 104 26 79 50 45 41 43 196 147 95 142 171 51 106 100 93 57 64 105 90 99 99 145 143 133 176 175 179 188 186 183 184 183 187 187 178 184 180 176 180 184 175 169 181 165 156 152 147 142 130 130 125 124 121 113 83 101 137 133 133 140 133 135 137 139 140 138 149 144 121 121 65 78 112 122 122 128 126 93 90 96 107 116 122 141 146 153 149 146 131 144 179 122 26 63 57 40 40 43 186 122 111 167 120 36 103 115 161 118 106 84 80 93 100 132 149 141 170 181 175 186 185 186 184 181 183 172 181 178 179 178 174 176 170 170 176 146 150 152 149 133 123 123 120 122 112 94 90 129 135 134 140 136 137 135 146 144 142 147 145 149 144 144 97 83 113 118 116 119 122 127 109 93 101 107 116 132 139 143 142 143 129 130 163 148 32 47 71 40 38 48 185 111 115 172 109 30 75 81 148 116 112 83 60 93 101 116 151 143 161 184 178 184 185 187 184 184 182 177 176 178 179 179 175 171 170 168 166 147 147 141 138 124 117 118 116 114 97 83 116 133 134 127 136 134 134 136 146 150 151 151 157 157 150 150 140 108 115 112 108 109 117 138 138 101 95 101 111 123 131 135 141 137 126 117 158 151 49 29 73 40 40 47 195 111 107 151 107 91 77 69 106 99 108 102 77 67 96 111 141 149 159 181 177 180 189 182 180 187 184 176 177 182 176 176 168 170 166 165 156 150 144 135 132 121 120 110 109 103 74 105 131 129 130 120 129 138 137 148 144 157 153 141 156 143 140 143 147 146 141 136 122 106 109 128 150 129 92 92 105 122 128 131 138 136 123 119 157 144 77 30 56 50 42 43 198 118 101 143 92 120 103 97 92 91 101 103 109 66 82 99 139 145 161 173 185 176 187 175 184 185 184 174 178 180 173 175 169 166 170 156 153 150 139 133 132 122 116 94 98 95 55 128 132 124 127 122 128 148 153 160 145 132 129 113 122 111 111 111 124 139 134 137 147 120 115 125 144 156 107 92 108 117 130 128 138 135 114 114 162 135 74 31 55 50 44 38 180 122 106 113 123 105 105 121 101 107 97 98 115 99 49 98 120 148 151 168 191 179 182 184 180 186 181 173 181 159 180 176 159 169 165 153 152 148 132 137 135 116 110 96 103 84 94 131 118 113 125 130 148 150 135 118 112 102 104 91 90 102 94 97 99 114 130 125 128 124 123 125 141 162 125 104 106 122 129 132 138 129 112 109 165 129 77 26 71 63 37 41 124 146 119 101 127 103 109 120 116 123 114 102 113 135 38 80 112 144 155 163 185 183 180 186 170 180 184 179 185 160 182 180 162 173 159 151 153 145 140 141 128 113 101 106 99 96 125 121 111 111 127 127 113 107 102 82 72 71 64 67 54 81 89 87 103 110 120 98 90 94 102 113 145 154 132 125 111 127 140 139 138 124 118 116 153 128 64 26 59 79 36 41 57 181 113 101 109 126 103 108 113 121 125 112 116 136 67 41 104 132 153 166 179 186 183 179 171 173 186 178 185 168 178 179 166 175 148 153 153 145 145 141 122 109 109 114 98 115 118 108 107 115 99 76 78 90 66 45 52 47 38 53 63 58 60 54 72 83 107 81 79 51 84 91 133 150 135 137 135 131 147 139 139 111 118 107 141 129 73 25 48 70 39 46 22 176 131 106 111 121 120 97 108 122 125 119 123 135 57 23 89 121 147 162 173 182 183 174 175 178 183 178 186 177 182 183 169 170 145 153 155 151 153 145 121 112 120 119 106 126 101 105 94 75 54 56 66 54 35 57 112 90 55 106 149 123 83 52 102 134 122 106 74 51 66 88 119 141 137 144 146 138 149 138 141 99 115 92 135 125 68 24 40 71 44 44 79 93 155 98 103 111 129 107 85 106 113 118 120 103 28 17 70 105 138 156 165 175 180 181 174 183 182 179 185 176 180 179 171 164 153 162 151 161 154 151 120 119 124 120 114 127 94 81 57 35 34 47 60 55 37 110 154 147 88 164 172 165 158 89 160 203 133 132 168 44 38 74 97 143 137 145 152 146 143 140 140 92 112 87 132 122 57 32 38 65 46 42 144 55 150 125 66 103 114 126 75 65 86 87 71 46 32 28 46 95 124 156 158 171 177 177 175 178 181 184 184 179 185 177 174 140 159 157 150 164 153 148 121 119 128 127 120 113 94 40 23 35 29 53 81 83 66 122 150 149 89 164 163 150 160 119 158 226 142 164 213 32 13 44 101 145 130 149 155 146 140 145 138 81 96 91 116 122 50 35 39 62 38 44 124 96 104 131 93 73 109 112 128 60 44 41 33 36 37 42 35 69 117 142 167 165 169 167 177 173 175 178 182 182 184 170 175 143 155 160 147 169 159 137 128 125 130 129 124 106 104 88 28 31 29 38 102 115 60 101 138 152 69 150 154 143 147 135 153 239 133 180 171 12 39 82 126 139 130 150 156 148 135 155 126 72 85 111 99 115 48 34 38 61 44 43 88 131 87 119 127 57 87 106 111 126 55 32 40 45 46 46 42 50 99 133 167 163 167 172 172 178 172 183 176 182 185 157 173 152 158 158 147 160 152 133 129 131 130 130 120 110 122 124 110 88 58 24 77 91 23 53 92 140 49 159 159 145 151 94 159 209 116 128 78 47 115 140 141 131 137 152 147 142 138 155 106 76 75 116 78 113 33 42 41 54 47 45 91 100 112 125 64 116 57 88 101 112 117 57 49 69 45 46 55 45 71 128 158 166 164 168 172 172 168 182 175 185 176 166 172 164 148 167 143 158 140 125 131 132 129 132 122 112 127 122 122 123 108 108 108 51 67 85 50 57 80 63 88 84 93 57 90 107 56 15 73 122 136 150 144 124 143 152 145 140 138 154 89 79 80 106 63 105 29 49 43 49 47 43 109 93 100 115 110 85 93 61 84 101 120 117 81 53 60 52 54 58 52 107 151 165 160 165 169 169 168 172 179 180 177 174 175 168 149 167 137 160 141 123 140 128 127 131 118 113 130 129 135 124 125 129 123 127 125 129 116 109 114 83 86 88 58 99 105 77 83 83 111 127 132 153 148 131 144 147 146 140 149 145 65 82 98 77 70 92 30 38 47 52 48 43 124 93 93 94 122 110 101 97 59 69 99 124 105 82 60 51 60 58 52 76 133 164 153 161 164 167 167 172 173 176 178 176 178 167 146 165 129 160 139 127 140 127 130 126 116 114 131 134 144 139 139 137 130 136 138 143 151 163 154 136 121 118 115 113 123 108 126 129 137 119 130 155 150 134 143 147 146 140 155 117 57 79 112 46 76 73 32 40 38 56 52 42 117 96 86 78 81 117 92 106 105 57 58 89 112 111 94 73 65 70 64 49 111 153 146 155 161 168 170 166 172 173 177 176 184 169 136 152 138 154 147 121 142 125 130 119 112 117 127 136 144 147 148 145 139 132 129 133 126 127 124 132 123 118 129 135 134 135 156 163 129 117 134 157 151 145 145 145 147 143 163 82 54 88 93 34 73 58 37 39 39 51 51 45 88 91 89 80 71 75 98 81 107 104 83 65 89 114 108 108 96 76 71 54 73 136 143 147 151 164 170 160 166 169 171 176 187 167 137 145 139 146 138 117 130 126 130 114 117 119 123 145 147 145 147 152 134 139 135 128 124 124 105 103 99 106 104 122 116 114 130 141 130 113 141 154 150 149 141 143 151 145 152 52 65 97 58 29 81 41 36 42 36 53 48 40 59 94 93 79 78 54 75 82 73 81 83 74 66 94 107 102 109 101 74 56 48 100 137 139 145 157 164 164 166 170 168 179 175 147 137 137 149 129 137 115 130 129 125 112 117 118 134 151 147 146 139 150 145 144 139 133 124 115 90 90 95 100 101 113 111 105 113 114 115 130 141 147 151 144 139 140 149 151 132 40 83 82 36 39 72 35 38 39 36 55 50 39 26 54 107 82 89 77 57 61 81 66 85 81 59 63 69 93 99 92 80 58 47 56 111 134 131 146 161 163 163 165 166 170 167 141 132 131 148 128 135 112 125 128 128 117 115 127 135 149 144 140 137 147 143 136 136 131 124 112 103 95 96 94 96 107 106 103 114 122 119 138 139 147 151 144 140 141 145 158 89 60 85 43 27 53 61 30 39 40 34 58 48 36 36 33 67 104 71 54 77 66 50 57 56 50 53 67 70 59 66 70 59 42 51 48 68 110 126 134 154 157 164 163 171 162 160 150 143 139 132 134 134 117 120 126 126 129 126 130 138 150 141 139 137 144 138 137 129 120 112 109 101 105 101 103 98 98 109 107 117 121 129 137 139 147 149 147 139 140 147 148 73 73 57 30 28 63 41 33 42 37 41 61 42 40 40 30 46 66 88 53 39 49 46 40 18 44 17 78 68 65 67 50 57 47 51 52 59 76 106 121 138 153 155 159 173 164 155 147 145 141 126 139 134 115 113 132 133 137 133 138 151 143 141 144 143 147 133 127 122 114 113 98 101 106 108 105 110 103 122 113 119 131 138 138 142 142 149 147 133 142 150 131 54 49 53 28 38 62 36 32 41 40 39 56 42 40 40 36 39 35 55 63 36 36 35 36 10 37 20 91 81 85 81 71 64 63 54 60 64 72 84 103 117 144 150 152 171 147 154 149 150 144 121 141 132 118 103 139 140 140 146 143 149 142 147 148 136 141 129 121 120 111 110 106 106 106 109 111 115 120 128 126 131 134 143 138 139 145 148 144 138 140 150 101 18 57 40 26 52 47 33 34 39 37 43 53 40 39 35 40 38 33 42 41 41 38 32 35 15 33 22 84 118 103 98 93 87 73 71 68 73 77 85 98 114 120 148 150 161 156 139 153 141 139 128 132 130 119 110 133 139 147 142 142 148 143 145 145 139 138 129 128 125 113 114 115 118 121 123 120 123 131 137 141 137 140 142 141 142 140 148 136 141 145 141 37 30 57 25 31 58 35 33 35 37 39 48 40 39 41 36 39 40 35 43 37 37 38 37 30 24 24 19 75 139 123 118 119 109 91 88 76 79 84 92 98 113 122 132 144 149 160 139 145 141 134 129 127 129 120 122 136 151 144 141 142 143 148 140 145 143 143 132 133 128 121 125 128 128 129 135 131 133 139 143 146 152 148 149 147 139 142 145 136 142 149 108 7 48 42 24 47 40 30 34 37 38 37 48 37 43 46 35 43 40 34 38 40 35 34 38 30 36 32 13 80 152 134 142 139 126 118 103 90 78 101 99 103 110 132 126 131 141 143 144 140 138 132 130 118 128 118 119 136 140 144 144 140 147 143 148 145 147 141 139 136 138 129 138 138 131 127 138 130 133 127 138 147 147 149 149 154 139 140 138 130 145 141 43 27 47 28 38 41 29 36 34 37 39 37 48 43 41 44 37 38 40 36 38 38 36 35 36 36 30 49 12 92 152 137 145 151 146 122 121 102 92 102 111 109 118 125 130 133 128 126 138 137 129 127 126 110 122 117 123 140 132 143 142 147 144 150 155 147 143 146 144 144 134 139 139 140 134 131 131 130 132 129 133 141 146 134 147 151 131 133 135 131 145 77 22 25 44 33 42 31 29 33 34 33 40 47 44 39 40 40 38 38 40 39 38 35 39 33 33 35 36 33 16 128 147 149 155 159 154 143 130 116 103 111 118 118 124 131 130 132 137 120 121 133 128 113 117 107 111 116 117 130 132 122 141 143 136 151 145 152 143 145 143 140 133 134 140 130 137 132 135 125 125 135 127 142 147 133 149 143 134 129 130 134 110 24 26 29 45 39 33 30 30 30 33 33 41 48 40 40 41 42 39 34 38 40 41 35 39 32 34 36 32 27 28 158 142 144 161 161 154 155 142 134 118 115 120 125 132 136 135 133 132 138 121 125 126 113 109 90 107 106 109 120 127 126 139 139 140 145 147 154 143 137 136 135 134 132 138 131 135 128 128 124 126 133 131 148 150 136 135 135 132 127 131 120 34 26 26 29 40 33 29 31 33 31 35 35 39 45 39 37 40 44 35 38 38 38 39 34 41 29 41 28 34 26 49 174 146 147 156 160 162 161 152 143 128 119 128 126 133 143 136 135 134 136 128 133 122 118 101 87 105 102 113 111 131 139 127 139 139 140 147 148 136 137 132 126 130 123 123 126 124 116 119 115 122 124 127 135 147 141 131 129 130 131 112 38 30 33 31 31 36 31 31 31 30 34 37 37 44 41 44 38 40 39 37 39 35 37 38 37 32 37 35 31 43 14 76 177 147 143 157 154 161 165 160 156 138 126 137 131 129 142 142 133 133 130 126 130 133 127 113 82 108 101 109 119 129 130 132 134 130 132 140 135 134 133 126 123 125 118 112 111 112 108 103 108 114 116 121 126 137 128 122 125 133 114 35 22 29 32 30 31 31 29 28 30 30 32 38 37 41 40 43 35 37 41 36 36 38 40 32 34 37 34 33 37 37 7 100 172 153 131 159 155 159 167 166 164 153 135 142 133 133 138 139 133 130 134 128 131 135 133 131 108 104 112 114 123 123 119 116 120 127 126 131 127 129 126 119 119 119 105 103 100 98 94 97 100 105 109 113 120 116 119 119 129 124 40 19 28 31 31 32 33 30 31 31 28 28 35 38 38 40 40 41 38 40 39 39 37 38 38 35 36 35 33 40 30 35 14 128 175 155 134 151 160 160 160 167 170 155 153 140 127 135 132 139 128 129 134 129 134 136 134 126 121 108 107 124 112 114 113 102 113 102 110 124 115 126 116 117 109 107 96 90 90 88 93 89 90 96 95 103 110 113 105 114 132 51 13 26 31 26 32 27 35 27 31 34 34 27 34 34 40 39 40 38 39 41 34 42 39 36 37 31 34 36 31 42 30 36 23 155 162 160 135 145 154 172 146 168 169 159 159 130 123 130 130 128 125 131 131 129 138 136 132 122 117 108 105 112 123 102 97 106 108 99 90 112 106 111 112 110 104 99 85 88 85 81 78 86 88 91 95 88 116 104 106 130 76 15 26 25 25 27 31 26 32 28 30 30 33 30 36 37 37 38 41 41 38 38 39 39 40 34 39 32 37 34 32 40 28 29 34 169 154 167 137 138 151 168 158 163 167 161 155 141 132 123 125 119 119 126 127 134 135 141 129 115 111 103 104 98 112 101 97 97 102 98 90 91 103 105 104 102 93 87 80 75 74 76 77 76 78 84 90 89 117 99 121 93 16 22 29 29 24 29 28 26 32 30 28 30 33 32 32 39 39 37 38 41 39 37 40 38 36 38 33 38 35 36 38 36 36 22 61 175 157 152 150 130 150 164 166 174 163 161 159 150 139 117 116 103 111 120 126 133 136 139 129 115 118 115 110 97 92 92 93 95 96 99 91 90 85 94 95 97 88 77 78 73 71 74 72 64 70 81 87 94 106 106 81 24 28 25 26 30 25 29 28 28 31 30 30 28 33 31 34 36 39 38 37 40 40 36 36 39 34 38 35 36 34 35 36 36 38 24 97 172 160 145 163 129 141 164 161 177 162 159 157 157 138 125 103 93 108 117 132 141 141 140 132 136 134 133 127 118 105 103 102 93 104 102 93 90 84 79 84 88 84 79 77 76 70 72 73 68 77 92 89 93 71 66 28 23 24 30 28 26 25 28 25 29 28 30 33 30 32 35 31 39 34 43 36 44 38 39 38 38 37 32 37 34 36 36 34 36 43 11 125 167 156 148 157 135 131 160 158 167 168 157 159 159 145 129 96 84 102 123 145 154 133 144 138 142 139 133 127 125 123 125 117 101 108 109 101 89 84 77 79 75 74 77 82 78 79 75 77 78 92 76 61 39 28 23 35 36 20 30 27 25 33 24 30 28 26 31 33 31 34 36 36 34 38 39 36 41 39 39 35 39 35 34 34 38 36 35 36 27 37 21 151 166 152 152 156 137 131 153 163 158 164 160 155 150 144 131 100 79 102 125 155 156 135 137 144 140 132 135 124 121 128 127 114 102 111 96 105 91 81 82 84 79 79 84 90 87 95 101 108 115 123 25 22 33 25 26 22 33 31 26 29 29 29 26 21 32 28 29 32 31 31 37 31 36 36 41 33 41 38 39 37 