P2
92
112
255
127 131 128 129 127 128 127 128 128 129 126 126 131 129 123 127 130 125 129 128 127 127 125 126 127 129 126 123 113 113 110 104 105 105 92 95 95 94 101 105 114 107 104 107 115 122 135 139 134 132 136 130 137 141 138 143 140 140 137 139 141 139 142 137 144 140 124 116 112 107 124 117 122 124 128 122 127 124 123 125 125 124 123 125 121 126 127 123 123 123 127 122 132 126 127 132 125 129 128 127 128 126 128 126 127 129 124 128 131 126 128 127 130 127 126 124 129 122 120 109 109 97 95 92 96 93 93 99 91 99 96 103 94 98 98 100 108 107 112 118 121 121 130 128 130 134 134 130 132 128 132 131 133 137 141 141 136 138 144 133 124 120 109 115 123 119 123 126 126 124 126 121 124 122 124 124 127 123 125 124 125 124 126 122 128 127 122 130 126 129 129 127 128 128 127 130 128 129 128 127 129 128 125 126 127 128 126 121 119 113 109 100 99 89 90 93 90 89 94 87 92 89 88 81 83 97 93 91 97 102 102 101 109 111 115 111 117 120 125 121 127 128 131 131 130 131 135 138 132 129 137 140 138 132 128 124 119 124 122 125 125 123 124 124 126 122 123 126 124 122 126 123 125 123 126 124 125 129 124 127 127 128 131 127 127 129 128 126 130 127 129 128 130 128 126 127 131 129 130 120 114 108 98 94 94 85 81 81 80 86 89 79 83 78 71 66 82 86 80 83 91 83 84 88 107 105 117 116 116 123 123 128 134 131 141 135 134 130 137 132 131 134 124 131 134 138 135 129 118 112 121 127 123 125 123 124 123 125 126 124 126 125 124 125 124 125 124 124 131 128 128 129 129 127 127 129 127 132 127 124 128 128 129 126 127 128 132 136 131 127 126 115 109 99 95 92 89 81 73 73 69 65 70 66 71 69 67 70 81 76 76 77 75 80 86 93 101 100 103 109 113 118 125 132 131 139 147 141 140 141 142 142 132 133 128 125 126 126 130 135 127 118 106 116 127 122 123 126 126 122 124 125 124 126 125 124 124 124 124 125 126 130 125 130 130 125 130 125 129 126 129 127 127 129 131 124 127 133 131 133 125 129 125 117 109 111 95 89 84 88 81 75 70 67 61 62 72 69 72 81 69 70 73 75 74 79 79 86 89 90 100 105 113 118 124 131 134 141 139 144 137 138 143 147 140 141 137 135 125 114 116 118 125 117 111 112 117 126 125 125 125 122 126 125 126 123 126 126 121 129 122 128 127 128 127 128 129 127 129 130 126 127 130 127 124 132 133 139 138 144 136 139 139 136 121 115 114 110 103 98 92 94 83 76 79 71 69 66 72 70 78 81 69 69 69 76 85 79 87 93 92 99 103 113 121 129 130 133 143 142 140 144 140 139 139 140 133 134 135 139 142 131 120 108 102 106 107 111 123 116 123 129 124 125 124 124 126 125 124 126 122 127 127 123 130 128 127 128 126 129 126 129 127 127 128 124 130 129 141 147 149 153 155 149 144 136 125 125 121 115 112 104 95 94 87 80 78 75 72 66 71 76 74 86 67 76 70 80 85 75 77 87 97 94 99 106 117 127 135 132 134 141 138 139 137 137 132 126 126 118 116 115 127 125 131 121 104 94 89 101 110 114 121 126 123 124 123 127 120 127 127 124 126 124 125 124 128 128 128 127 127 127 128 127 129 126 128 133 137 149 147 152 155 164 159 155 151 145 142 134 127 115 110 102 98 93 93 81 79 72 75 68 70 75 73 83 78 79 74 80 91 81 76 77 87 104 109 116 123 131 136 136 132 135 137 132 132 125 115 113 113 112 111 112 105 106 114 128 122 101 89 92 100 100 115 124 122 124 124 126 123 125 125 123 125 124 125 123 126 127 127 127 127 130 130 125 128 129 142 143 134 138 136 156 171 169 168 164 158 164 148 134 122 111 106 101 94 95 88 89 77 73 69 71 68 77 74 80 89 94 87 76 74 87 91 79 86 96 114 122 124 129 131 135 140 149 148 143 138 131 121 117 109 107 113 105 108 103 96 104 116 117 92 86 100 101 97 114 121 127 119 127 122 125 124 126 129 121 124 125 126 129 127 130 124 129 128 129 126 132 131 125 125 128 147 167 173 165 166 165 166 156 139 129 120 111 102 102 97 91 96 87 88 79 71 75 74 80 80 84 92 99 108 105 70 73 89 97 98 103 121 130 134 148 153 157 155 155 150 147 138 131 125 119 114 111 108 99 99 94 88 90 94 105 100 78 83 101 99 99 122 119 124 127 122 125 122 128 126 126 120 126 124 126 128 125 127 122 131 122 120 114 107 114 124 140 147 164 161 157 158 160 149 144 135 125 123 103 112 116 106 99 97 93 89 90 79 81 77 82 87 90 91 90 114 123 113 89 90 103 109 115 123 129 143 152 155 158 160 151 147 140 133 120 124 114 115 110 116 112 94 96 78 78 79 86 83 80 74 92 90 102 94 124 124 124 123 123 130 125 125 123 126 127 130 128 128 127 128 125 123 120 103 106 101 119 125 134 149 153 146 164 164 160 149 146 137 132 123 119 126 131 122 107 102 100 96 93 91 95 85 96 104 95 89 92 104 121 130 112 107 116 117 129 136 146 159 167 174 170 167 154 145 141 125 111 108 102 96 97 101 105 91 90 84 79 81 77 75 77 61 84 94 92 94 105 120 126 121 124 127 126 125 125 126 123 127 131 123 134 129 127 120 105 95 91 106 107 119 130 139 140 163 179 174 166 147 137 139 145 131 132 130 123 125 117 114 113 106 108 107 105 102 109 118 114 99 105 105 104 119 125 124 116 109 118 121 133 135 139 142 151 148 141 133 118 112 100 94 89 85 78 86 85 85 86 81 87 69 74 70 85 72 73 79 96 100 86 109 126 119 125 127 122 126 125 127 125 129 127 126 129 129 117 109 94 94 92 107 109 118 130 134 158 167 176 174 158 144 128 150 145 132 130 129 127 131 123 125 127 117 120 122 119 110 114 118 114 116 122 112 112 92 115 131 124 112 115 108 124 140 147 141 130 126 123 120 110 105 101 95 90 91 89 81 87 76 76 81 84 86 76 74 80 80 71 80 89 97 96 79 121 128 120 127 124 125 125 122 124 125 126 127 129 124 111 91 97 88 100 107 112 121 125 134 150 151 154 152 148 136 140 156 153 136 132 131 132 142 138 137 134 128 133 138 142 133 124 121 121 118 116 118 115 111 94 117 125 127 119 103 108 122 125 118 114 113 121 123 123 121 115 106 101 99 101 93 79 85 78 83 85 83 86 71 85 85 77 67 98 79 84 71 76 125 126 121 122 125 126 126 124 127 126 125 134 120 102 91 90 101 108 102 115 121 118 129 137 139 142 144 142 127 151 164 152 135 134 139 144 151 143 139 137 140 144 144 155 149 132 124 126 130 125 113 119 128 118 112 118 120 130 110 109 111 107 111 116 122 120 123 126 124 119 116 112 107 101 100 91 90 86 80 90 80 88 82 72 85 75 77 87 91 85 79 64 92 120 126 120 127 125 124 123 126 125 129 138 107 93 76 90 110 103 104 118 115 116 121 129 128 133 148 132 124 159 172 147 144 147 152 152 150 155 143 147 158 162 154 160 155 150 136 136 142 137 127 129 123 126 135 131 120 110 124 119 111 110 114 114 119 121 118 113 115 111 113 109 110 109 113 111 102 92 84 86 81 87 84 71 80 71 76 81 95 96 97 76 82 109 123 125 124 124 125 123 125 122 132 123 99 90 83 88 110 103 110 108 114 111 121 120 124 136 136 123 131 168 165 146 153 158 160 159 155 160 153 158 169 174 167 165 160 159 157 152 152 148 142 132 132 125 129 140 134 118 117 122 125 126 121 123 124 115 120 120 122 120 107 99 93 99 101 109 107 106 94 99 77 80 75 67 64 74 67 80 72 100 98 90 69 109 123 127 123 124 125 120 125 126 127 115 96 87 96 85 100 102 104 101 105 115 114 113 119 128 120 126 145 162 153 154 161 162 163 161 159 165 170 168 175 182 177 165 163 168 170 171 168 166 157 152 142 141 132 134 141 144 135 136 134 132 132 135 136 132 136 133 126 112 100 91 84 87 86 89 98 109 95 90 85 78 74 61 62 57 66 71 78 88 98 95 79 89 127 124 124 125 124 126 121 127 124 110 93 85 90 94 88 100 94 101 106 109 109 111 120 122 122 130 147 157 158 159 162 165 162 165 160 168 175 179 177 184 187 174 170 172 180 177 177 180 174 167 160 153 159 151 147 149 155 150 151 150 144 145 147 146 145 141 130 124 113 104 92 91 94 89 88 91 97 77 74 74 68 72 59 64 58 68 83 79 84 69 76 103 121 129 124 126 124 124 121 124 119 102 89 78 82 86 86 95 93 100 101 104 103 112 116 122 130 137 142 159 161 164 163 164 167 168 166 170 182 183 184 184 188 184 174 174 181 180 183 188 190 182 170 167 168 170 167 163 163 158 155 159 156 149 155 150 153 148 147 139 143 132 116 93 90 87 90 83 89 87 68 64 57 68 64 59 58 71 74 87 76 60 67 104 124 125 122 128 124 122 122 118 111 98 82 84 75 77 93 91 89 99 98 100 106 110 112 127 134 138 140 155 166 164 160 169 174 167 168 175 185 186 187 188 186 188 178 176 183 179 186 192 196 193 185 181 172 168 170 172 171 172 169 167 172 160 160 164 164 167 164 150 156 155 139 127 108 95 87 91 89 80 81 55 58 62 60 64 67 70 78 80 80 70 55 88 123 124 131 126 130 123 116 114 107 92 83 73 68 83 89 87 88 86 95 102 100 107 111 133 142 138 139 153 165 156 162 175 176 169 172 178 187 190 188 189 186 182 186 175 176 177 188 196 198 199 193 193 187 178 178 175 170 176 180 180 181 184 175 176 178 176 175 161 156 167 152 143 132 120 101 93 84 79 78 66 58 58 69 67 75 72 80 74 76 74 66 75 112 127 128 127 122 122 109 107 101 93 78 67 77 91 83 80 82 80 97 101 101 104 120 139 144 138 144 148 160 161 171 178 174 175 176 182 191 189 193 192 192 184 185 184 174 169 175 196 200 202 200 198 195 194 191 187 180 175 178 179 178 184 185 182 184 182 178 174 172 172 161 153 146 138 126 116 96 80 77 73 60 50 69 82 77 89 71 74 66 72 70 74 115 126 127 124 126 124 108 98 102 90 69 58 71 81 72 79 78 90 96 97 100 110 128 145 139 143 139 147 154 165 171 173 171 168 179 182 193 192 195 195 195 191 184 184 184 175 168 188 200 202 202 199 202 198 196 193 192 189 194 188 187 183 183 182 185 186 182 178 178 173 165 159 159 142 134 126 118 102 86 89 70 47 69 111 91 89 78 63 65 58 69 65 101 127 125 124 125 125 95 100 97 78 56 51 45 76 68 76 68 87 94 97 101 121 139 143 140 148 138 146 157 166 173 171 171 175 186 191 192 193 194 195 200 196 189 178 175 181 171 166 191 200 201 201 202 202 199 197 198 197 200 196 199 195 191 190 191 192 188 184 182 176 167 163 160 148 147 133 130 120 118 119 105 77 58 124 132 87 78 66 53 60 53 55 81 122 123 123 123 124 95 100 93 79 56 48 39 52 73 79 74 86 81 94 106 130 135 139 140 146 141 146 164 165 172 170 170 176 189 188 195 195 195 196 201 198 195 185 179 173 178 174 169 195 200 201 198 201 202 201 201 200 199 199 199 199 199 196 196 194 191 191 185 180 173 161 163 153 146 143 134 125 131 138 128 101 86 102 151 102 71 66 60 54 51 44 65 113 127 122 122 127 98 98 94 81 64 54 36 41 44 75 80 76 81 99 119 129 130 132 142 145 133 145 166 155 165 164 169 179 188 190 197 197 196 197 201 201 199 194 191 183 175 174 182 182 199 199 199 199 204 203 199 201 200 199 197 200 199 199 199 197 194 191 189 178 181 172 160 162 150 146 143 137 140 146 140 115 114 114 134 125 82 58 51 57 52 48 60 107 126 126 124 120 89 96 93 88 65 54 41 42 47 58 61 73 86 103 120 128 129 134 139 141 140 145 167 158 156 162 166 179 188 194 196 198 197 200 199 201 199 198 198 197 189 185 186 189 193 197 200 199 202 204 201 202 201 198 198 201 200 198 199 198 195 192 191 183 184 176 169 163 161 151 144 142 144 146 151 129 117 125 124 133 94 57 56 46 49 57 56 101 124 123 125 119 91 96 91 89 62 51 44 41 46 51 54 68 91 106 110 134 132 132 138 141 144 151 164 165 159 160 170 178 186 190 192 195 197 199 200 199 200 199 200 200 196 197 192 194 196 201 201 202 203 201 202 202 201 200 201 201 202 197 199 198 195 195 189 185 183 181 169 167 166 158 150 145 144 145 151 144 126 128 125 125 108 56 43 53 49 53 51 84 126 121 122 124 86 94 88 88 58 46 45 33 44 47 49 71 98 101 121 132 134 132 136 143 148 156 161 170 160 160 167 177 186 187 190 194 197 197 197 199 199 200 200 201 198 200 199 196 199 201 203 203 203 202 203 201 201 202 201 201 200 199 197 197 196 195 192 185 186 183 175 174 165 160 152 147 146 144 147 145 138 128 137 113 106 69 47 47 37 54 54 67 121 123 122 123 84 90 95 80 47 46 40 38 47 40 46 81 92 101 121 134 135 132 137 144 155 158 162 168 165 159 170 178 184 186 187 192 193 198 198 199 200 197 200 201 201 201 201 201 203 201 203 202 202 204 200 202 203 201 201 201 201 197 199 196 193 194 193 189 186 182 180 177 166 156 152 150 141 145 144 143 146 123 121 122 88 76 54 46 42 44 45 65 115 124 122 122 85 88 92 76 51 46 34 39 45 42 57 79 83 95 119 133 130 136 133 150 154 159 167 167 164 161 169 178 182 184 186 188 194 195 197 199 199 200 201 202 200 202 201 202 203 201 203 201 203 202 202 203 202 202 200 203 200 199 197 197 194 191 191 191 188 182 183 178 174 160 151 149 144 146 145 142 148 129 102 109 91 68 55 49 46 49 44 70 115 125 121 121 92 85 93 76 56 42 36 41 43 48 66 73 76 96 116 129 132 133 138 146 154 155 169 166 163 163 166 171 182 182 184 189 191 194 197 198 200 201 201 200 201 202 201 203 203 202 204 202 202 202 202 202 202 202 199 203 201 200 198 199 194 193 191 189 188 180 178 178 174 164 158 149 142 143 147 142 136 131 104 89 88 61 51 45 47 47 49 58 112 126 124 121 90 87 89 84 66 43 38 39 46 58 64 71 76 92 105 128 133 129 137 146 148 158 167 164 163 167 169 174 182 178 183 189 192 197 195 200 200 201 202 201 201 201 202 203 202 202 203 203 202 204 202 201 201 201 202 201 201 201 201 198 197 194 192 193 188 184 177 176 175 167 159 151 144 139 146 146 137 122 102 87 72 65 46 46 51 48 43 48 110 124 123 122 84 87 87 87 81 51 38 40 49 57 65 62 76 86 107 120 136 130 137 145 148 159 167 163 163 165 173 178 180 183 183 189 193 197 200 201 200 202 201 202 203 201 202 202 202 202 203 202 202 202 202 201 202 201 201 201 202 201 199 201 199 195 196 194 188 183 184 180 177 172 160 155 143 138 141 142 130 117 99 71 75 56 50 50 51 46 45 46 105 125 123 117 88 82 88 91 77 46 42 40 52 59 57 65 75 91 106 122 137 133 135 143 152 163 167 165 165 172 173 180 183 188 188 191 196 199 200 201 201 202 202 200 203 202 202 202 202 202 202 202 204 201 202 201 201 201 200 202 201 201 199 201 199 195 197 193 190 183 185 185 181 184 167 154 147 143 143 137 129 109 90 71 59 60 51 48 41 40 42 49 96 125 121 124 90 87 84 91 71 46 42 43 53 61 50 70 73 86 105 120 134 139 132 145 152 164 168 169 169 176 176 181 187 188 192 195 199 199 200 202 202 200 202 201 202 203 202 202 201 203 200 201 201 203 202 201 201 202 203 200 202 199 200 199 199 195 196 194 192 188 188 186 184 184 173 155 145 148 141 135 127 109 92 62 56 55 52 49 38 37 35 50 100 124 119 123 85 84 83 89 72 48 41 38 52 58 59 64 76 87 104 125 133 138 137 142 150 166 169 172 177 179 181 183 186 191 194 194 199 199 199 203 200 202 201 200 201 202 203 201 199 202 201 201 201 202 200 202 201 201 202 202 200 197 196 197 197 196 197 195 192 191 190 187 189 183 179 161 145 149 142 136 124 105 90 55 57 48 50 48 38 34 33 52 105 124 120 121 85 85 83 85 82 60 42 37 46 57 55 58 69 89 103 121 133 136 133 143 151 166 172 174 177 182 183 184 191 191 193 195 197 199 200 201 203 201 201 200 201 202 202 202 201 201 202 202 201 201 200 200 202 200 202 202 200 195 196 196 199 197 198 195 193 192 194 187 189 185 178 168 152 146 142 133 127 99 84 63 45 46 47 45 38 32 36 59 113 122 122 120 85 86 87 86 87 68 38 42 47 50 49 57 65 81 105 124 134 130 131 145 154 164 176 175 182 183 183 186 189 192 192 194 196 197 197 200 198 198 199 199 202 201 200 200 200 201 202 199 200 201 199 198 200 198 198 200 196 194 190 196 198 197 195 191 190 189 189 189 181 184 180 174 152 146 143 136 130 102 82 58 57 41 46 47 33 34 37 60 111 123 120 119 84 85 83 81 86 76 50 40 50 40 52 57 63 78 104 121 133 125 136 144 156 166 171 177 178 181 183 184 188 190 191 193 194 196 197 198 196 197 196 198 196 199 199 200 199 201 200 199 198 200 197 196 195 196 195 195 194 193 193 193 195 193 191 189 183 180 180 179 169 173 178 176 160 143 140 136 135 104 79 62 55 47 48 44 33 36 41 69 112 124 119 119 85 83 87 84 86 80 57 42 43 46 49 51 61 81 102 122 128 124 134 150 162 163 164 164 173 172 177 178 179 181 182 185 190 194 190 193 190 193 194 190 193 195 196 197 198 198 198 192 198 193 193 192 196 191 194 190 192 189 192 189 188 182 179 174 169 163 164 164 160 156 159 170 165 144 136 133 139 112 80 66 56 46 48 43 35 40 46 95 118 117 118 118 79 81 84 81 83 84 64 41 37 46 51 48 55 82 106 117 127 122 131 149 158 152 155 149 160 156 160 156 156 159 155 166 169 174 177 189 185 189 190 186 187 190 193 192 193 195 196 192 192 191 192 189 191 191 188 185 184 178 176 170 160 157 158 157 147 141 152 148 146 149 147 153 153 147 132 132 133 126 91 59 57 42 39 40 38 37 50 110 118 117 115 121 81 84 81 82 84 80 68 44 37 30 47 46 50 84 113 121 121 121 129 137 144 148 142 137 131 135 136 127 131 132 129 129 139 141 150 167 177 182 184 181 182 181 185 189 189 193 194 191 187 188 186 183 189 182 175 169 157 153 136 132 124 123 125 124 126 124 129 135 129 133 134 136 139 136 127 131 131 135 105 69 56 44 38 39 38 35 59 112 118 112 118 119 87 81 84 81 85 84 70 50 36 31 35 45 51 83 114 118 123 119 122 129 133 134 129 126 118 112 114 108 111 112 106 107 112 117 123 145 158 161 167 174 175 175 180 186 187 191 190 187 184 184 179 179 180 169 162 145 139 119 113 106 105 100 104 98 107 107 108 115 121 126 131 128 131 128 119 122 132 133 118 75 61 43 39 32 36 33 73 113 112 116 115 116 84 81 88 78 83 86 81 56 37 32 37 40 49 85 116 123 118 113 114 120 119 119 116 114 109 106 99 98 96 96 94 92 95 97 99 124 131 142 152 162 167 172 176 181 187 189 191 185 183 181 179 173 171 161 146 129 124 105 107 93 96 89 94 99 98 101 116 114 128 135 133 130 134 127 113 115 131 131 119 88 62 51 45 40 25 45 89 111 108 112 110 119 84 81 86 81 80 84 88 61 38 39 34 46 45 89 118 123 117 105 107 111 115 118 120 117 116 118 113 110 105 100 100 88 89 86 89 102 108 121 132 148 156 164 174 179 185 191 191 188 186 182 177 171 162 146 127 112 102 99 94 88 86 89 95 106 106 109 115 124 132 137 133 134 138 131 124 112 127 133 129 90 75 54 43 45 29 52 102 108 108 110 113 115 85 77 84 77 84 82 88 70 45 45 37 44 52 82 124 123 116 105 98 113 121 127 132 122 127 125 125 123 117 108 102 98 86 80 79 87 88 96 108 127 143 160 173 179 188 193 195 194 191 187 180 169 152 130 117 100 96 97 102 103 107 113 122 128 121 110 110 105 122 128 132 135 137 133 128 123 122 132 130 105 83 63 48 40 39 69 105 107 106 105 113 113 85 79 81 81 83 81 88 76 54 44 38 51 49 92 122 121 116 103 102 108 125 129 129 125 125 121 120 124 129 129 129 130 118 107 90 92 83 83 86 104 129 152 172 184 189 195 199 199 195 191 179 169 147 118 107 100 113 122 126 125 128 132 138 142 140 132 134 117 101 115 122 126 133 132 136 130 121 132 129 114 95 74 54 42 54 82 108 102 106 107 105 112 84 79 85 80 81 77 86 80 62 48 44 42 55 96 122 126 115 106 106 111 119 122 126 118 112 118 136 145 149 145 139 141 137 135 127 118 109 96 84 80 107 136 167 183 192 199 204 200 199 193 183 165 133 111 106 121 128 127 131 134 131 132 124 133 132 134 137 138 114 106 109 117 123 127 131 132 126 129 133 110 106 92 59 41 68 103 103 104 104 105 105 109 85 83 82 83 85 78 86 84 63 51 44 48 63 96 123 122 117 113 115 115 110 111 110 101 118 130 138 127 113 108 104 107 115 134 141 137 135 126 108 83 80 118 160 177 195 201 202 201 199 193 180 150 125 117 130 137 130 128 134 116 95 86 117 104 100 107 121 128 124 113 114 113 117 126 126 133 128 138 135 108 102 98 69 46 78 132 134 111 97 108 102 107 86 79 83 81 81 82 85 86 75 49 42 53 61 97 122 122 116 114 116 108 107 100 91 109 118 115 116 101 93 71 136 92 94 131 133 142 142 144 139 103 81 97 147 173 192 200 201 202 198 193 179 145 126 139 147 144 133 128 141 126 113 77 170 144 92 100 131 109 109 115 117 121 115 121 126 127 130 138 136 113 93 95 81 63 89 139 152 126 108 98 104 104 79 84 82 80 75 106 127 126 98 59 48 51 56 95 122 127 120 114 110 112 101 93 98 107 89 119 125 105 101 52 94 114 89 166 163 136 125 144 150 130 98 99 133 166 186 197 201 200 199 193 166 138 131 152 160 143 131 138 173 144 103 94 54 110 89 107 150 141 98 103 105 119 117 117 124 136 138 141 138 122 96 95 79 81 91 125 119 120 126 100 100 106 86 80 83 71 95 128 148 158 137 93 60 42 53 102 125 129 127 114 113 107 109 104 93 100 91 124 148 115 113 86 79 112 114 175 184 163 119 128 152 148 123 119 132 162 186 194 201 201 198 194 164 140 139 155 163 142 135 151 172 167 121 107 97 106 101 125 154 147 127 111 109 116 124 121 123 140 144 142 139 127 92 94 80 82 94 94 59 81 134 105 101 103 84 79 80 77 105 104 129 159 165 126 70 41 59 108 129 135 129 130 120 111 111 108 105 119 133 140 161 147 118 123 118 128 146 170 174 163 146 145 153 162 148 138 141 156 179 190 197 198 200 192 167 144 143 160 166 151 139 142 156 164 150 133 133 127 132 146 149 142 134 127 131 131 136 131 129 142 153 142 145 128 91 83 87 74 98 79 76 76 129 115 95 99 87 76 78 88 109 62 67 137 143 121 72 37 69 112 134 137 130 139 132 123 118 121 122 119 130 142 152 160 151 156 159 162 159 165 164 158 155 157 158 153 150 147 150 151 174 190 198 199 200 194 174 152 145 156 160 163 154 144 147 155 153 147 149 142 142 139 137 138 133 139 146 150 149 147 135 147 153 146 142 137 92 80 73 88 118 107 95 96 123 122 91 95 79 84 68 97 117 66 34 58 105 102 71 46 76 114 130 138 135 142 144 135 132 135 139 134 132 141 140 140 146 146 150 150 155 149 155 152 162 163 171 158 151 157 158 150 172 190 195 195 201 196 177 160 151 153 157 159 164 151 140 144 149 151 151 146 147 148 142 141 150 150 157 157 157 155 146 153 154 148 139 142 103 67 86 111 141 124 104 104 130 114 92 100 80 84 67 102 122 79 43 47 69 76 73 62 75 112 132 137 138 146 146 145 141 148 145 140 145 149 152 151 153 160 152 148 147 150 153 166 171 172 173 165 156 163 161 149 165 187 190 197 199 196 181 163 158 156 162 165 168 164 156 147 145 147 147 145 147 146 147 145 162 161 164 163 163 164 156 155 156 148 140 144 103 58 118 146 153 130 109 117 132 109 92 103 80 87 68 96 129 89 48 83 80 59 66 68 71 112 131 137 144 147 153 150 145 156 153 151 146 147 149 145 144 144 146 155 162 169 172 176 181 183 179 164 161 164 161 149 161 179 194 198 198 196 178 164 163 158 169 172 177 173 174 170 167 168 159 158 160 165 167 169 176 177 170 170 166 169 160 159 155 151 138 145 96 85 138 155 158 142 109 127 129 103 96 99 85 88 67 86 130 101 60 108 108 80 66 67 68 109 126 136 144 150 153 155 152 157 166 168 164 165 163 162 164 166 171 181 184 182 182 184 187 187 179 167 161 166 161 148 154 180 197 201 199 194 182 159 165 161 164 182 183 183 180 183 184 182 180 180 177 183 181 184 179 182 175 170 168 171 164 163 153 148 141 141 98 92 136 151 158 152 120 133 133 93 102 101 84 79 79 70 132 112 88 114 125 109 73 65 62 105 127 134 146 152 154 160 157 157 166 174 177 180 184 184 185 188 183 192 192 191 186 192 188 185 180 170 161 166 158 147 152 176 199 200 199 192 182 163 163 162 161 178 187 187 185 188 189 187 187 191 187 188 188 187 181 187 177 176 174 174 171 165 156 151 137 135 99 102 137 148 157 158 127 153 118 90 99 100 85 83 76 61 125 120 103 124 121 111 88 65 47 97 120 135 144 156 158 164 163 159 164 173 175 184 189 190 193 191 189 193 196 190 192 191 190 185 179 172 165 162 153 144 150 172 198 200 201 194 182 171 158 164 168 176 185 190 188 191 190 190 189 189 192 186 191 187 187 189 182 183 182 176 176 167 161 150 135 127 112 111 135 139 148 159 148 149 117 96 98 95 86 83 81 66 104 126 113 134 121 100 82 58 34 84 112 131 147 153 162 164 165 166 167 175 177 177 187 187 194 194 190 191 194 192 191 192 190 184 179 177 166 159 156 148 153 170 194 201 200 196 180 177 159 153 171 179 186 188 191 193 191 192 190 190 189 193 187 188 191 189 187 183 183 180 173 175 160 151 137 121 121 124 128 127 137 169 160 146 106 90 101 102 84 82 85 67 81 124 118 141 123 93 71 50 40 66 108 119 146 151 159 166 167 170 174 179 179 179 184 187 188 193 188 190 193 192 191 191 190 186 186 176 165 150 151 154 158 168 192 198 199 195 183 176 160 150 157 178 189 192 189 196 192 193 194 192 190 194 191 190 192 191 186 184 183 178 174 172 162 150 132 120 132 132 130 124 132 160 169 140 97 92 103 96 84 80 80 79 66 108 124 141 127 95 68 53 53 62 94 117 137 151 159 166 169 175 174 180 180 181 184 187 191 191 192 189 193 193 194 193 193 188 187 172 156 149 150 154 164 171 189 201 200 194 181 172 166 154 150 164 187 196 192 195 194 193 195 193 192 191 193 191 191 192 187 185 184 178 175 172 161 148 126 124 150 142 137 121 129 156 168 125 100 92 104 99 89 87 78 83 70 96 104 147 139 96 78 62 62 81 101 102 131 149 158 163 166 171 174 175 185 187 188 186 192 190 193 190 191 193 190 194 194 189 180 162 149 151 163 156 168 176 192 199 201 196 183 172 175 166 159 160 170 192 192 194 193 191 194 191 192 194 191 192 190 190 187 184 184 176 171 168 160 150 120 130 162 156 129 119 131 155 156 132 92 92 101 101 92 84 75 83 71 83 102 139 149 112 86 75 81 99 115 92 124 142 153 160 164 169 174 178 182 189 186 190 190 192 193 191 192 188 190 192 193 193 171 146 150 159 163 162 167 179 196 200 201 199 190 174 177 177 164 163 155 178 189 192 192 189 193 191 193 193 192 192 191 189 185 179 178 171 169 166 158 145 117 133 156 143 120 119 142 155 154 115 89 98 98 101 82 81 81 81 77 74 97 116 163 134 100 79 105 117 128 91 115 135 151 158 164 167 173 180 179 185 188 191 191 191 191 189 191 185 179 190 192 188 153 141 144 159 164 157 165 181 194 193 200 199 191 172 163 169 168 161 150 158 180 183 187 188 191 190 188 190 194 189 191 189 186 181 176 172 162 164 150 144 117 131 139 143 142 142 152 146 145 103 95 100 101 102 80 81 78 79 80 67 97 100 145 152 114 91 104 136 130 102 105 131 145 156 162 168 174 177 179 181 191 192 189 192 190 190 186 182 181 185 182 183 149 126 136 145 144 146 149 172 191 186 189 190 183 164 150 147 153 152 139 146 170 174 175 185 187 189 187 190 189 188 183 190 182 177 170 170 159 159 151 137 120 122 127 154 159 140 129 151 135 104 90 101 103 98 83 79 81 79 76 65 90 106 108 143 134 128 122 124 134 109 100 115 141 144 158 164 168 173 175 183 185 186 188 187 191 184 183 178 176 175 171 172 153 113 101 106 107 112 126 144 169 169 162 163 161 140 118 109 114 126 132 138 164 168 161 169 180 182 187 187 187 184 183 182 183 168 166 164 161 149 145 131 110 148 161 170 167 138 143 150 122 89 101 100 96 100 78 75 82 75 77 80 59 114 118 93 109 139 150 132 128 119 96 110 129 142 148 159 164 168 170 180 181 185 185 185 186 184 183 172 168 166 167 168 158 127 95 75 66 66 90 116 139 146 143 145 136 110 94 79 96 119 138 148 162 175 167 157 170 180 181 183 180 177 176 180 175 168 165 156 153 148 139 129 108 157 164 163 147 150 154 143 104 95 97 101 99 99 79 77 77 79 78 83 61 83 141 118 81 120 148 145 142 128 100 103 120 129 142 154 166 158 171 173 180 179 184 181 181 179 176 167 162 172 177 178 168 148 121 81 62 60 49 75 112 119 122 122 112 107 120 118 127 143 153 149 171 184 184 165 158 169 174 176 176 170 173 172 166 162 157 154 150 143 137 123 113 149 170 163 155 154 154 121 97 96 101 101 97 98 82 77 78 78 78 75 80 61 116 148 121 110 123 121 126 134 108 92 113 118 136 147 156 155 159 165 173 174 177 176 173 177 171 164 170 183 187 184 180 166 151 121 83 78 67 65 86 101 105 113 115 127 140 143 146 158 161 157 170 189 192 179 158 160 167 174 170 170 167 167 161 154 153 148 149 142 135 119 118 165 173 167 164 158 139 101 95 95 102 100 99 99 78 79 78 78 77 80 77 67 77 133 148 135 121 120 119 113 104 89 103 117 121 138 144 150 155 157 163 167 171 167 168 171 170 169 178 187 185 186 182 178 168 151 126 104 90 81 80 87 90 105 129 136 148 152 157 165 166 161 165 182 189 190 177 155 158 169 172 168 161 161 155 149 148 145 143 137 132 112 124 176 172 162 162 144 109 98 92 99 99 98 98 98 77 76 75 79 77 78 78 74 68 96 133 142 140 129 131 130 117 95 99 106 118 127 136 146 144 152 158 160 163 165 159 166 170 178 184 183 179 182 183 178 167 164 158 145 128 112 103 100 113 130 142 154 157 162 156 168 165 164 165 170 181 184 191 168 146 160 167 164 155 156 149 148 144 143 139 130 126 112 131 172 165 153 142 125 96 96 98 99 98 96 100 96 78 75 80 78 75 79 79 79 71 71 101 132 140 139 139 145 141 100 95 103 108 114 132 134 142 146 153 156 157 163 161 161 176 183 184 172 175 175 177 175 170 172 174 173 162 155 142 141 147 149 152 162 167 169 158 162 164 162 170 166 170 176 179 181 142 147 162 162 159 152 151 144 143 143 137 124 123 116 121 150 140 127 112 96 95 95 101 102 94 102 97 94 75 77 81 73 76 78 78 78 71 77 72 98 122 126 130 138 145 104 95 98 103 107 124 128 134 138 147 147 155 161 159 166 175 175 172 169 168 173 173 175 174 180 181 181 175 178 167 161 159 164 161 166 172 169 168 166 166 162 170 164 163 165 169 168 154 131 157 160 157 151 148 144 141 144 136 127 123 117 101 105 104 95 91 93 97 95 96 100 99 99 97 97 81 76 78 78 73 79 77 76 70 83 70 77 84 107 108 114 126 107 91 96 105 106 119 128 125 139 139 149 157 159 158 164 168 165 164 163 166 172 174 177 178 182 183 184 185 187 187 176 171 170 169 169 172 167 168 167 165 162 167 170 165 159 157 157 154 136 148 160 156 155 150 143 145 142 134 126 124 117 81 68 83 89 88 93 96 97 97 99 97 100 96 99 78 79 71 77 78 74 77 74 76 77 75 73 75 73 77 81 84 93 95 95 97 105 116 120 131 135 143 150 158 156 156 159 160 155 154 158 164 167 172 170 170 168 165 168 172 171 178 172 171 159 155 149 147 145 147 144 152 156 161 167 165 149 151 152 149 146 155 157 160 150 152 144 142 144 130 127 122 117 71 69 86 86 94 93 98 95 96 99 97 100 97 96 78 75 75 75 80 75 77 75 77 76 78 73 76 74 75 77 67 84 98 93 92 101 115 120 127 139 144 150 161 157 157 149 151 146 141 148 156 149 149 151 144 139 138 141 144 140 145 142 142 140 130 135 130 131 128 125 133 131 137 147 151 146 149 153 153 155 170 160 156 155 150 147 143 140 129 123 127 107 70 74 86 88 94 94 99 94 96 99 95 100 97 96 81 76 75 74 79 74 77 75 75 77 80 70 72 75 78 77 72 75 96 91 89 98 109 121 131 141 145 154 161 163 157 147 146 131 126 117 111 106 106 111 117 107 111 115 126 125 125 119 124 123 121 119 118 120 116 115 111 113 107 106 114 132 142 154 161 169 181 165 157 155 148 145 144 135 128 123 124 101 54 81 88 89 94 95 94 97 99 96 98 98 99 95 74 76 78 74 78 75 78 75 78 75 76 72 75 77 79 75 75 73 93 92 90 90 105 116 133 137 145 153 163 167 163 152 136 125 113 97 71 71 78 85 91 81 84 92 96 97 100 106 101 97 112 100 104 103 99 95 90 82 81 79 98 119 143 158 168 177 179 167 159 152 148 140 142 132 125 121 119 98 53 87 86 87 95 94 96 95 97 96 95 98 98 94 77 77 74 77 74 73 76 72 78 76 72 77 73 78 75 74 78 66 88 88 91 83 94 113 122 137 139 152 161 169 171 161 147 147 140 124 92 49 47 61 104 80 72 109 122 102 110 135 151 135 136 137 133 144 134 111 101 69 79 104 136 149 157 164 174 182 177 169 157 156 143 139 135 129 125 123 122 76 59 85 89 92 92 95 95 101 96 97 96 95 94 96 79 77 79 74 73 77 72 77 77 75 74 78 74 75 76 76 76 68 80 92 84 89 87 104 120 131 138 149 161 173 174 173 171 167 174 166 153 110 76 67 114 90 69 121 151 133 129 150 176 177 174 166 159 167 151 123 117 109 120 140 153 161 165 172 179 182 173 162 155 148 140 138 131 128 122 125 106 71 69 85 89 96 92 98 96 96 99 96 99 95 95 95 76 75 78 74 74 77 75 80 70 73 77 73 78 73 78 72 77 73 73 86 84 88 84 95 109 124 127 140 154 167 180 178 181 181 177 179 179 168 132 121 117 114 92 100 116 111 100 97 113 150 151 142 137 142 134 124 123 139 147 157 161 164 172 176 176 175 167 154 149 142 138 131 130 123 122 120 94 60 76 88 88 94 93 97 94 99 97 93 97 96 96 97 80 73 80 71 79 73 74 77 72 77 78 70 80 75 76 72 75 76 74 72 86 80 90 89 102 117 118 134 144 160 176 177 183 182 178 176 177 169 154 145 143 145 149 141 129 126 116 105 105 118 134 134 133 133 139 131 135 142 153 164 165 165 175 177 171 169 159 149 142 142 134 128 128 121 124 106 83 60 87 89 90 95 91 97 94 100 96 93 97 96 98 98 83 76 79 73 76 78 71 77 77 71 77 74 79 71 73 74 77 74 76 74 70 88 86 95 94 104 118 123 135 151 167 178 181 184 180 179 175 170 156 148 143 160 169 174 174 178 177 163 160 164 164 154 151 145 140 138 135 150 161 167 162 170 174 177 167 161 154 142 143 136 133 126 126 123 114 98 61 73 88 86 92 93 95 96 97 97 96 97 96 94 98 93 82 77 75 76 75 74 74 76 75 73 76 76 77 73 73 76 75 75 73 70 72 75 82 93 95 102 111 118 125 139 154 171 176 177 177 176 176 169 160 146 138 147 161 167 169 178 180 167 168 177 174 167 158 145 138 140 146 158 169 164 168 168 176 172 165 156 146 143 135 140 132 125 119 120 111 78 61 74 90 89 93 91 92 97 93 97 96 96 98 99 95 97 81 82 75 72 77 75 73 73 72 77 75 76 73 72 75 76 75 74 74 70 78 77 73 85 97 101 109 113 122 130 145 158 167 174 173 178 173 171 166 156 140 138 143 149 155 160 161 154 152 160 162 153 149 140 140 145 157 162 164 163 169 168 176 168 158 149 149 138 139 135 127 121 115 114 92 60 68 87 81 92 94 91 98 96 95 95 100 95 96 98 94 95 85 81 78 70 77 75 77 75 77 71 74 74 72 76 69 75 74 74 77 64 83 98 74 76 88 102 110 107 117 126 135 145 157 164 174 174 169 169 169 164 148 135 137 131 141 138 139 140 139 140 142 139 138 140 144 155 162 164 164 165 170 170 169 163 152 151 145 137 132 128 125 120 115 106 67 56 75 89 88 90 95 89 94 97 96 99 97 98 98 99 97 95 87 80 80 69 78 71 74 75 72 74 72 79 73 75 77 73 71 72 80 63 73 116 94 74 74 95 105 114 113 122 128 140 153 155 168 172 168 166 174 167 161 151 144 133 129 128 125 131 131 129 133 135 137 147 154 163 169 168 163 168 170 172 167 156 149 146 142 137 132 127 121 118 109 83 65 61 78 89 87 91 94 94 98 96 92 99 98 95 97 95 95 97 84 82 83 74 77 75 73 75 73 73 76 73 73 72 78 73 73 74 72 72 73 109 119 85 73 83 101 114 117 120 124 137 144 155 163 175 170 173 173 174 166 161 152 144 139 137 130 137 140 140 144 145 149 155 164 168 171 173 169 173 169 167 158 153 148 142 143 132 132 123 118 106 108 78 53 78 84 85 89 93 95 93 97 96 94 97 96 97 95 93 97 97 89 80 81 74 77 76 72 72 75 73 71 73 74 70 76 78 74 73 76 68 78 109 120 109 71 71 94 112 117 126 122 133 142 149 160 169 173 177 180 178 176 170 170 166 165 165 156 152 153 154 158 164 162 160 169 175 176 177 176 172 171 164 156 147 145 142 138 132 126 118 107 103 109 79 62 82 88 86 92 92 96 93 96 94 95 97 94 95 93 95 97 95 81 84 82 76 77 78 71 75 72 76 70 70 73 71 72 74 69 75 73 64 74 108 114 116 84 66 76 102 117 125 127 129 142 150 163 164 173 183 187 184 180 183 186 183 183 188 186 177 176 177 179 178 180 176 181 181 183 181 178 175 171 162 155 144 142 140 135 129 122 114 95 104 117 86 69 86 86 87 91 95 95 96 93 96 98 90 98 95 92 96 94 97 83 85 84 83 74 76 75 71 72 76 69 76 69 75 74 69 72 75 69 73 74 106 113 114 98 73 59 83 108 121 127 130 137 150 161 164 167 180 189 189 190 186 194 190 193 193 193 193 192 190 190 189 191 191 189 191 186 184 177 175 168 159 151 143 137 136 133 124 116 99 94 111 122 94 72 91 82 93 89 95 95 95 94 96 97 97 97 96 95 93 94 97 86 87 81 78 76 78 69 74 74 70 74 71 73 74 72 69 73 71 74 62 85 106 115 116 104 86 62 65 87 108 119 127 137 148 158 163 171 176 183 192 191 191 194 195 196 198 194 195 194 195 193 196 195 196 195 193 192 185 178 173 162 153 143 135 132 136 125 113 92 89 107 123 124 92 74 91 88 89 93 96 90 96 94 94 94 95 97 95 92 92 96 95 90 84 82 83 77 76 79 72 75 68 70 70 73 73 71 69 74 70 73 66 80 110 110 117 106 91 72 60 63 88 105 119 127 145 153 159 168 176 181 189 189 191 194 194 195 198 197 195 197 193 195 196 196 194 193 196 193 185 177 167 157 147 138 132 132 125 114 90 84 95 123 127 125 91 78 90 93 93 92 91 97 92 99 97 93 94 97 95 93 93 95 93 88 82 83 82 81 72 76 76 78 66 75 66 77 68 73 71 70 69 73 60 92 101 114 115 110 93 88 63 57 59 81 97 111 132 142 156 159 169 176 184 183 189 191 193 192 195 195 194 195 196 198 194 194 192 191 192 190 180 162 165 150 140 129 128 119 105 84 84 91 115 127 131 123 94 85 85 95 90 94 91 100 91 93 93 94 95 94 93 94 90 98 97 90 83 86 80 79 78 75 77 71 71 72 73 74 71 71 71 74 72 70 55 90 105 109 115 109 101 90 72 57 57 60 70 92 111 127 144 149 162 167 178 177 183 185 187 188 191 190 190 192 193 194 192 190 191 188 185 180 173 160 154 142 130 124 114 104 84 73 92 112 124 132 132 121 92 88 88 97 91 92 97 93 94 94 98 95 92 96 95 94 92 93 94 89 82 87 81 81 77 76 73 72 74 71 73 71 71 75 67 72 75 72 56 90 111 105 111 108 106 95 82 64 64 53 57 57 84 106 128 137 144 156 166 171 175 183 181 183 184 183 186 184 187 185 184 184 184 183 176 172 156 149 137 128 118 109 93 79 73 90 109 124 130 133 128 124 97 81 91 93 92 92 94 90 95 92 94 93 95 93 98 89 94 94 92 88 85 85 83 78 80 75 74 73 74 66 75 71 68 72 69 73 75 75 48 86 112 108 109 113 104 97 85 70 63 59 55 55 58 78 104 117 133 140 150 158 167 167 175 172 175 178 173 175 176 176 177 171 175 171 161 156 142 135 125 110 100 85 74 72 88 104 123 133 137 134 126 124 93 87 90 92 93 93 93 92 93 92 95 90 94 92 95 91 92 97 88 86 88 85 88 78 80 74 76 73 69 72 67 69 72 72 74 76 70 62 34 85 111 113 108 107 108 98 91 77 65 60 60 55 54 55 74 89 110 118 132 137 150 153 155 158 155 161 156 162 160 161 160 161 154 154 143 139 128 117 101 89 76 73 75 83 109 120 132 137 135 131 124 119 95 84 92 93 91 91 95 91 90 95 94 91 91 92 91 91 93 93 92 89 86 87 80 80 83 76 75 74 73 69 70 74 79 86 66 58 56 51 28 80 111 111 111 111 109 107 93 82 74 63 63 57 55 56 51 65 80 91 103 118 126 131 134 138 143 137 135 145 142 141 143 141 141 130 127 115 107 89 82 69 75 81 92 99 123 130 138 139 138 130 127 117 96 88 90 95 92 91 95 95 88 93 95 91 91 96 92 88 91 96 92 88 90 86 85 79 79 76 76 75 70 66 77 93 90 66 49 41 48 41 33 88 113 115 115 114 109 109 92 89 79 66 65 56 60 59 51 52 57 61 66 79 94 102 108 108 116 113 114 116 118 118 118 118 119 107 102 85 75 69 73 80 80 93 104 123 131 137 138 143 140 126 132 118 92 88 92 90 97 91 96 88 90 93 93 86 97 90 94 88 93 94 91 91 85 88 85 81 81 76 75 75 67 69 92 99 65 53 38 43 54 45 43 91 111 116 118 115 111 106 95 91 85 74 65 60 62 57 60 50 57 50 52 55 67 66 74 76 84 83 81 89 85 92 88 81 85 77 66 67 62 73 86 87 93 109 120 132 135 137 134 142 137 129 132 121 89 86 93 92 90 91 92 89 94 93 89 90 95 90 94 92 93 91 91 90 86 82 86 83 77 77 76 73 65 77 103 90 56 48 48 41 57 36 23 99 115 117 116 119 118 110 100 95 89 80 72 60 64 57 61 53 57 49 51 46 54 54 50 57 54 58 54 62 57 60 57 55 58 56 62 64 78 77 96 97 109 121 130 132 133 133 135 134 136 131 133 123 85 88 84 95 92 85 94 88 90 91 91 93 91 91 92 91 93 91 88 94 86 83 83 83 81 78 77 69 69 86 111 87 63 59 46 39 54 28 35 108 115 121 120 118 118 118 108 98 89 81 78 68 67 58 61 53 58 56 57 52 49 51 48 53 48 53 46 52 49 52 55 57 56 59 72 79 79 94 100 114 121 135 135 134 136 134 135 132 136 132 129 123 80 74 87 99 90 92 90 95 90 92 91 87 91 93 88 95 90 90 93 95 89 86 85 81 81 81 76 69 73 96 112 86 73 57 40 38 47 17 52 112 116 124 124 118 115 120 113 105 97 83 80 71 66 64 58 59 55 58 60 53 56 49 54 55 50 50 47 52 52 52 63 64 61 68 74 87 91 105 111 123 128 137 135 137 135 135 133 132 137 136 132 124 77 56 95 91 94 91 90 93 90 89 91 91 89 90 88 92 89 91 93 99 91 84 83 84 76 79 76 71 81 98 112 95 66 71 42 44 38 28 71 118 121 122 130 121 121 119 114 111 106 92 83 75 69 70 61 60 58 59 57 60 54 51 53 48 51 53 55 55 55 58 62 66 70 77 79 93 100 114 121 126 134 137 137 138 137 134 133 135 137 136 128 126 78 49 90 90 95 91 91 88 92 88 95 89 92 86 90 86 93 87 90 96 94 88 82 80 80 80 75 67 91 99 111 111 74 67 54 45 25 56 95 109 125 123 127 126 124 121 117 111 108 98 87 73 69 67 63 64 53 64 55 63 60 58 54 54 51 59 52 61 59 66 69 73 76 85 87 105 113 115 122 130 133 135 138 135 132 135 133 138 137 136 128 131 82 37 89 88 93 95 92 91 88 91 90 87 91 90 90 89 94 84 89 