P2
92
112
255
125 119 124 125 124 121 123 125 123 123 121 125 123 124 120 126 123 130 132 126 122 119 118 112 113 110 101 92 88 93 94 94 77 75 90 85 97 114 111 115 127 131 132 126 132 138 116 148 174 173 186 184 191 197 192 182 173 173 166 153 162 141 143 144 140 141 139 132 128 127 118 113 113 121 125 122 119 122 121 122 120 120 121 123 122 121 122 121 120 122 120 116 121 124 118 126 122 125 127 121 123 124 124 123 123 123 120 134 127 133 127 119 126 115 117 121 118 102 91 94 82 81 80 84 86 89 103 92 96 96 107 118 122 119 112 110 126 122 127 151 181 179 185 186 179 177 171 169 165 156 162 163 158 161 144 148 139 135 139 149 139 133 137 125 124 116 118 127 120 122 120 121 122 120 122 118 124 120 117 124 122 119 120 120 122 125 122 126 120 124 122 120 126 119 126 124 123 128 137 146 129 119 119 120 125 117 124 116 111 96 80 86 81 87 81 91 83 85 100 114 102 101 106 100 102 99 105 104 115 122 132 149 164 147 142 144 138 143 152 161 163 166 167 165 162 159 155 142 141 146 137 146 152 145 143 141 130 130 135 120 132 119 120 119 124 116 122 120 120 122 120 124 116 121 118 121 121 125 123 128 120 123 121 121 120 121 123 119 137 145 142 133 118 113 117 121 128 128 126 113 104 101 87 91 87 85 86 94 106 112 110 113 95 98 94 91 100 98 97 97 94 106 102 106 118 130 135 141 145 143 142 148 151 148 149 152 149 149 143 140 137 137 145 138 144 151 164 139 132 131 128 121 117 128 115 121 123 117 125 115 121 122 119 123 118 115 124 116 120 126 120 125 124 125 123 121 120 118 124 134 146 136 139 114 123 131 118 138 145 129 122 111 104 103 99 87 84 83 92 91 90 88 106 104 94 82 85 79 90 91 88 83 83 90 94 109 129 137 135 138 147 151 154 159 165 164 156 157 154 146 140 142 133 142 140 136 129 148 150 154 131 132 128 121 122 125 122 115 126 120 122 119 120 119 119 123 121 118 120 117 122 124 121 124 120 122 120 124 120 131 147 155 153 145 156 149 143 145 144 159 154 129 123 114 116 107 102 100 94 92 88 98 87 84 99 90 84 87 82 83 86 83 91 81 77 83 96 111 114 115 111 128 144 149 153 171 168 177 180 176 179 160 152 148 144 143 143 146 134 139 134 143 136 137 131 118 122 127 128 120 131 117 123 118 118 125 119 118 121 121 121 120 119 125 123 123 124 122 120 126 130 149 178 168 177 182 172 164 154 165 168 166 137 129 118 123 131 110 117 102 100 93 97 99 95 93 105 103 89 88 84 90 85 85 82 80 72 79 99 101 86 99 103 110 126 131 136 148 156 163 165 168 171 161 157 152 144 149 150 145 145 139 133 129 135 118 116 118 111 118 122 130 124 114 120 119 122 120 121 116 120 121 120 119 119 120 126 122 122 122 122 143 172 183 172 183 186 186 185 163 174 180 169 150 137 125 126 146 134 112 118 107 107 101 105 104 100 109 100 109 97 92 80 97 87 91 86 68 81 89 76 91 84 101 113 116 120 130 136 149 156 155 161 158 150 150 142 137 137 139 138 149 147 146 145 137 132 118 107 104 114 109 116 137 121 119 119 119 122 113 127 113 124 120 119 119 122 124 124 118 125 135 152 179 171 165 168 167 176 181 180 183 188 177 160 161 155 134 155 154 140 119 126 122 112 112 104 113 113 112 104 112 96 99 87 93 92 85 88 84 81 79 71 86 106 123 121 131 142 146 142 147 148 155 156 160 151 152 148 144 145 134 134 137 138 141 146 145 143 132 112 99 111 108 106 117 130 116 116 124 118 117 125 119 121 119 117 118 125 125 119 123 156 156 164 161 150 147 155 166 170 187 189 189 195 176 177 172 175 173 175 159 147 123 127 113 116 118 107 116 113 109 100 94 93 95 109 83 107 76 91 76 92 107 98 90 113 118 114 112 120 127 127 140 140 152 151 149 144 132 130 123 138 129 127 124 127 130 141 138 143 148 125 106 106 103 104 102 117 128 114 124 119 118 121 119 122 117 120 122 122 123 126 135 158 133 135 138 142 154 168 179 185 191 189 188 193 173 169 194 197 188 165 160 140 124 118 114 117 122 117 109 108 102 91 88 89 78 107 85 115 79 97 93 80 99 104 96 94 104 109 119 123 138 151 149 160 154 162 151 146 139 130 125 127 121 128 124 119 106 119 115 125 139 134 116 106 91 99 102 95 124 118 120 122 121 119 117 122 120 115 122 123 118 148 149 126 119 112 123 129 150 171 178 187 191 183 186 182 164 181 197 191 187 168 145 141 125 123 125 120 116 112 107 112 109 91 86 91 81 104 86 109 87 105 98 89 104 104 93 99 119 102 111 127 127 138 137 140 136 153 148 130 127 120 113 117 112 131 122 113 122 117 106 103 114 126 124 112 82 91 99 90 107 122 118 116 122 123 119 117 122 117 122 118 138 151 130 115 94 120 123 137 155 169 171 177 175 176 186 155 175 187 189 188 171 154 151 133 129 125 130 118 116 117 114 117 111 100 98 97 83 100 90 103 114 104 110 83 120 108 104 83 93 127 121 128 143 142 150 151 162 156 148 144 139 133 126 127 118 112 109 115 115 123 115 111 109 107 110 111 89 70 95 96 81 100 127 119 117 123 120 121 124 115 122 132 147 119 108 104 104 108 124 132 140 146 169 169 163 170 165 160 174 188 184 184 164 159 149 135 141 133 137 127 133 133 119 125 113 103 110 100 95 101 92 105 117 125 96 99 98 114 117 113 112 111 143 149 143 157 170 170 177 171 169 156 146 141 136 130 122 118 111 114 111 113 112 104 99 92 94 91 86 69 88 81 72 75 123 121 119 119 123 117 122 119 123 139 135 92 98 98 100 95 117 127 136 144 158 156 159 156 157 164 185 196 191 187 169 147 156 151 156 163 153 145 150 143 133 141 118 114 118 116 113 102 106 97 119 142 128 85 87 88 103 119 117 119 124 143 141 154 167 177 176 173 162 157 137 138 127 122 121 132 129 126 120 121 109 107 94 84 74 88 80 71 85 96 72 62 100 117 116 119 123 117 121 119 121 138 102 91 99 81 106 107 113 139 131 142 145 153 152 150 149 172 192 201 201 191 171 142 160 169 184 180 162 156 155 148 156 154 134 130 132 130 125 113 114 114 113 134 174 117 95 100 94 109 132 124 136 134 146 161 157 164 160 159 153 138 132 132 127 128 132 130 129 136 135 138 113 102 94 89 86 71 78 68 73 97 84 88 96 126 117 117 116 118 118 121 119 117 89 72 106 82 117 128 117 132 124 132 145 156 149 149 151 178 197 199 201 180 148 159 168 176 183 177 163 165 172 165 168 169 145 147 151 154 131 132 140 129 111 125 149 170 117 108 121 122 141 139 151 150 156 180 176 184 183 171 157 147 143 141 132 139 136 131 132 129 122 129 113 99 95 87 86 73 77 77 68 93 93 96 96 123 118 119 117 117 122 120 118 94 73 68 91 93 107 145 117 124 116 138 148 141 143 142 154 178 177 185 176 146 153 170 178 167 185 187 171 178 178 174 183 176 149 162 172 175 158 132 148 147 139 120 140 156 149 120 122 114 122 140 151 159 176 168 172 168 172 170 157 145 139 130 124 122 125 110 105 113 109 109 107 98 88 88 77 80 75 88 68 75 106 96 93 111 119 122 116 120 117 122 119 85 68 73 95 92 103 131 124 115 112 139 142 127 145 141 149 156 158 170 149 146 162 174 169 175 193 191 179 172 183 183 174 177 156 167 183 183 176 148 142 135 173 134 145 140 149 124 121 131 108 114 123 134 141 147 154 159 165 167 150 141 131 123 120 117 110 99 102 104 100 95 97 99 86 93 82 84 78 82 78 81 99 100 93 111 121 120 118 116 118 118 125 86 64 82 96 107 99 108 128 120 122 131 126 136 138 137 138 139 153 142 147 163 162 165 164 187 203 188 178 181 187 175 175 169 174 168 180 187 181 163 146 136 148 163 156 135 141 146 113 126 126 128 143 130 141 155 162 161 148 142 121 126 128 116 121 112 95 96 103 100 99 98 94 94 94 90 88 90 83 82 78 85 98 85 80 116 118 118 119 119 121 132 114 72 68 84 98 105 102 105 119 115 117 119 127 136 129 135 129 135 128 139 156 155 163 159 167 185 196 181 182 190 179 179 175 167 185 179 178 194 177 169 151 142 152 162 165 148 145 147 144 128 128 122 121 111 122 135 135 137 125 131 128 133 127 117 114 99 91 95 99 106 97 108 101 96 91 86 88 87 77 81 76 92 97 80 48 119 119 118 118 121 119 124 116 67 71 85 75 89 112 108 104 110 118 118 127 129 131 122 128 128 129 146 153 147 160 162 163 177 182 178 185 186 177 176 176 172 191 192 179 190 178 173 159 154 152 167 173 164 152 148 153 145 135 119 121 119 130 128 129 132 138 125 130 120 118 109 105 92 96 96 100 95 91 100 105 103 106 111 77 79 69 72 63 90 90 74 56 94 128 119 119 118 116 119 116 78 71 77 73 76 98 101 95 107 110 111 115 123 125 119 129 137 139 156 149 153 157 162 168 170 176 180 186 174 175 176 178 172 195 200 185 185 184 181 172 163 169 170 178 169 158 156 147 155 145 130 126 118 125 125 131 127 134 136 129 124 120 119 110 101 106 93 90 84 91 93 103 104 91 93 85 82 64 66 52 76 88 67 68 95 121 118 117 118 120 116 119 74 66 77 76 70 97 94 97 100 98 111 115 123 118 119 136 143 152 156 155 151 156 170 167 169 179 182 178 172 178 185 183 174 197 204 192 181 184 182 173 168 174 181 181 182 167 168 153 153 152 141 135 131 137 133 131 132 135 137 134 127 131 129 119 110 106 92 88 87 82 90 103 106 97 83 78 80 77 68 60 64 83 67 62 86 117 118 123 118 123 116 119 68 70 64 79 74 87 94 93 107 99 102 114 123 110 111 144 132 153 153 157 148 150 161 171 161 183 175 175 182 181 190 186 178 195 209 194 187 185 185 180 170 178 181 185 187 178 178 162 156 160 143 146 147 142 142 138 136 139 139 136 133 129 130 126 115 118 105 95 93 97 86 100 96 101 76 65 67 72 71 55 69 71 60 57 66 102 116 119 123 119 119 117 64 63 62 72 72 96 93 83 98 99 92 109 115 112 127 143 139 158 160 152 143 153 166 171 157 176 171 180 189 189 189 187 184 192 208 199 190 174 181 180 170 176 183 183 186 186 187 177 153 167 153 148 155 149 141 150 143 144 142 143 139 133 137 135 126 120 115 99 96 84 86 96 97 97 93 70 64 68 63 62 62 79 52 49 57 80 120 118 117 118 117 118 58 52 59 55 45 81 94 71 94 84 97 104 115 127 133 135 159 151 162 150 142 148 168 170 159 169 178 187 190 187 190 186 187 196 202 205 184 178 173 176 180 174 188 190 182 187 191 182 168 166 162 159 150 158 152 157 159 158 150 154 151 151 151 150 141 135 123 112 107 101 84 80 86 83 95 92 75 78 96 80 58 73 57 55 44 74 120 113 117 117 115 120 56 36 49 43 28 56 106 58 87 78 99 111 118 117 127 152 160 162 161 155 147 151 174 166 154 171 184 189 187 185 182 182 186 200 198 211 191 179 173 172 179 181 187 192 191 183 183 188 175 175 166 166 160 154 159 162 170 166 164 164 164 169 166 155 153 148 136 116 113 107 100 87 82 76 91 101 85 89 101 94 61 62 52 53 50 72 122 117 114 116 117 117 55 37 43 38 37 25 81 104 71 84 100 108 106 112 146 176 168 172 156 149 148 161 174 165 145 173 190 189 186 183 181 183 193 200 203 204 201 185 172 163 178 181 187 193 193 190 186 183 184 178 179 167 166 164 159 166 172 165 173 171 170 176 176 165 161 155 145 132 125 113 96 98 92 80 83 115 100 100 92 104 85 56 44 49 45 72 115 116 113 111 116 117 39 43 43 32 38 35 39 64 94 99 101 105 117 137 165 170 170 156 149 144 157 166 176 160 146 175 186 189 186 184 184 188 196 202 203 206 199 196 174 149 166 171 188 193 195 194 188 188 185 188 189 178 178 182 161 168 178 176 179 181 175 172 174 170 168 160 151 144 141 125 121 100 102 86 96 114 117 102 105 98 97 64 42 55 42 68 118 113 112 116 115 117 43 38 50 39 32 39 43 37 61 89 87 112 109 136 159 159 158 147 147 148 163 164 176 156 154 180 180 189 184 176 180 187 195 202 204 202 203 199 192 155 157 178 189 195 198 198 195 192 189 190 194 190 192 191 181 166 173 169 169 172 172 165 164 169 171 163 156 145 151 136 132 124 112 94 100 120 127 110 106 112 93 68 54 37 45 53 110 113 115 114 113 114 40 36 45 51 31 38 32 45 59 54 83 96 114 140 155 147 145 154 145 142 159 160 173 156 159 163 173 181 174 179 182 183 195 203 206 201 202 196 195 178 141 170 190 191 197 200 198 195 189 190 190 192 197 192 190 185 184 178 172 175 170 172 166 168 164 165 156 154 149 141 132 127 126 113 110 119 132 123 108 109 100 57 61 47 40 40 97 112 111 109 114 116 33 31 35 38 33 27 32 46 48 59 72 91 114 134 143 147 161 160 140 143 160 160 168 156 160 178 174 169 171 174 179 189 194 201 205 203 200 201 191 192 160 143 185 195 195 201 196 197 194 191 186 190 193 195 194 195 189 187 175 181 179 172 169 168 164 161 156 150 155 141 140 134 129 122 120 122 129 128 114 94 95 61 53 48 49 39 85 110 113 107 112 115 31 26 43 35 32 25 38 44 50 60 60 92 115 125 144 161 159 162 148 146 164 162 169 160 168 179 175 174 164 171 177 192 193 194 201 202 198 201 190 193 177 154 167 185 190 192 200 200 197 196 187 185 187 192 193 194 193 189 184 187 183 179 170 168 165 160 158 156 158 147 145 144 137 129 122 125 128 133 118 89 71 79 47 42 46 40 63 110 114 112 110 117 34 35 36 34 29 27 35 33 54 50 72 95 105 118 142 170 161 156 160 146 160 163 173 167 180 170 180 169 171 164 172 189 192 191 196 199 197 198 196 185 184 171 162 180 191 187 197 197 199 199 193 186 185 186 189 192 197 191 188 190 185 180 171 168 168 161 159 158 160 152 148 151 137 130 131 127 124 125 123 93 75 67 56 35 42 44 62 109 111 110 110 113 34 38 35 32 22 30 34 35 50 54 75 94 89 115 143 164 156 152 158 157 150 167 168 178 180 173 177 173 166 166 175 181 191 191 191 193 196 196 192 189 183 172 162 177 182 192 199 197 199 201 195 191 186 184 186 191 193 191 189 188 187 182 175 170 170 163 159 157 163 145 148 147 143 133 132 123 125 129 115 97 59 65 52 43 44 36 60 107 107 111 109 111 58 29 38 30 25 36 38 37 52 58 77 86 87 120 140 152 150 157 157 158 160 163 174 184 179 171 176 175 163 161 174 182 187 190 185 188 192 194 189 191 188 176 161 171 183 195 199 198 198 200 197 195 192 186 182 185 191 187 184 185 185 184 177 172 170 168 165 160 158 150 148 145 146 137 131 124 119 125 114 101 72 64 49 44 47 51 43 89 113 109 111 107 61 33 29 34 31 44 38 38 53 65 72 85 97 110 132 139 149 156 153 158 158 170 173 176 179 169 171 174 163 160 169 179 182 189 182 185 188 191 188 195 192 189 178 174 185 194 196 198 198 200 197 195 189 190 184 183 186 183 182 185 187 186 184 182 176 176 170 166 160 150 142 146 142 136 133 123 123 118 111 83 78 60 53 45 50 39 40 81 114 107 109 109 51 34 35 30 38 42 36 40 56 63 61 83 96 104 120 137 147 158 157 153 163 173 168 180 172 173 172 177 163 161 165 183 181 183 183 186 191 194 190 197 195 196 192 187 186 192 194 197 199 198 196 197 193 189 188 187 187 182 186 185 190 189 191 188 184 184 180 177 170 157 148 146 144 135 138 125 124 120 108 86 66 58 52 55 40 31 41 83 114 108 108 109 58 39 42 22 41 41 44 39 56 61 61 75 91 101 124 129 147 159 156 150 160 169 171 168 171 172 173 170 161 166 171 184 184 185 187 187 194 198 195 197 198 197 195 194 189 194 193 197 198 200 196 197 195 191 191 190 189 187 186 191 193 192 194 190 193 188 185 180 177 157 152 155 151 145 136 125 127 121 109 80 70 50 50 53 53 26 58 104 107 113 103 111 72 49 39 31 34 42 37 41 55 67 59 76 91 107 122 127 145 157 155 148 157 169 158 156 171 169 170 167 153 172 178 186 190 190 190 193 194 199 197 200 201 196 197 194 196 194 196 194 196 195 196 193 196 190 191 191 191 192 186 191 192 194 194 191 190 191 188 183 179 167 161 159 157 152 138 126 129 123 110 88 73 41 44 55 48 26 58 110 109 110 107 107 91 53 44 38 36 31 36 48 46 56 70 70 88 98 121 128 146 157 162 150 158 163 162 158 171 171 176 167 166 181 185 190 191 194 195 197 198 200 200 199 200 198 197 194 194 196 196 195 193 187 193 191 193 190 189 192 191 191 188 193 192 189 193 192 187 190 186 187 184 175 173 165 163 156 144 130 126 123 116 85 66 49 42 49 47 27 63 110 109 108 111 107 97 71 40 38 36 30 34 48 42 51 60 70 81 116 121 127 147 147 162 154 153 165 158 172 174 179 183 177 179 184 186 191 192 195 196 200 198 202 196 198 200 198 196 194 195 196 196 194 190 189 189 191 191 192 192 192 193 188 189 193 188 191 189 185 183 186 188 185 187 177 178 171 169 160 145 135 125 122 117 81 61 60 38 53 41 34 88 113 110 105 106 102 105 98 59 33 37 34 36 37 43 48 52 60 75 96 119 129 144 154 161 157 152 167 161 173 178 179 181 186 186 190 187 192 192 194 198 197 199 198 197 199 198 196 197 194 193 191 194 190 188 190 194 189 190 190 189 191 193 188 189 190 189 187 177 176 178 187 182 184 182 174 179 179 169 165 147 144 127 122 124 81 47 55 58 50 39 40 112 106 109 112 104 108 107 111 75 33 36 40 33 41 44 45 44 55 78 96 110 133 148 157 160 154 153 160 165 174 177 185 181 190 189 191 190 192 192 195 196 193 198 196 195 195 194 197 196 192 189 189 191 189 187 189 191 187 192 190 187 190 188 185 186 187 188 176 169 171 170 183 178 178 172 174 171 174 166 167 152 151 132 118 125 87 54 45 44 44 44 43 113 106 108 109 103 109 109 107 97 49 40 37 42 31 51 57 44 59 75 101 111 126 140 152 151 152 152 161 166 176 178 185 187 189 191 191 191 187 193 193 193 187 191 192 192 189 191 189 190 182 188 187 188 188 187 185 189 184 187 185 187 186 183 182 174 175 174 164 162 164 168 174 176 165 165 157 153 157 147 147 150 158 143 117 121 98 48 50 47 42 28 73 110 112 103 110 109 103 107 102 101 58 47 30 38 32 34 59 52 49 73 105 112 131 137 152 150 149 152 167 168 177 180 182 187 187 190 190 186 188 187 189 187 185 187 186 186 186 185 183 185 182 184 178 183 183 181 182 183 182 181 180 181 178 175 171 165 165 162 159 159 165 163 165 156 153 143 138 137 133 134 132 134 142 143 127 116 105 58 51 45 48 23 97 108 110 99 108 104 107 106 101 111 66 46 43 27 31 23 39 63 52 61 99 116 128 137 146 148 143 152 167 168 185 184 179 181 183 185 176 186 181 179 187 181 181 184 185 180 179 180 172 177 177 172 174 178 177 171 176 177 176 172 175 169 168 160 167 159 162 157 155 156 151 155 144 140 133 133 117 117 118 122 118 120 129 130 129 114 110 70 53 43 39 50 105 109 108 102 108 107 107 107 104 113 86 30 57 33 26 31 33 42 52 65 98 120 130 139 144 145 144 152 164 174 180 180 171 169 170 168 164 166 153 157 155 155 155 162 169 166 164 173 164 165 165 160 159 171 168 161 167 170 174 167 162 160 159 154 155 152 151 142 142 142 131 120 124 113 107 108 101 102 107 105 109 107 113 110 118 110 120 73 59 49 28 83 110 104 108 107 105 106 106 110 102 115 93 33 41 34 30 31 31 44 42 61 101 121 135 139 145 146 145 145 164 167 168 171 164 163 145 146 150 140 132 126 129 119 123 122 130 133 144 154 154 161 158 150 148 156 155 159 158 166 166 163 152 153 148 145 145 142 137 130 113 112 107 95 94 95 86 79 85 84 92 90 94 98 101 102 109 104 119 88 66 49 36 89 105 104 102 105 109 101 112 106 103 109 113 35 39 32 36 32 36 34 54 58 101 123 140 141 139 142 143 144 154 159 155 158 143 142 134 124 131 120 110 104 109 101 96 96 102 102 109 127 132 139 139 139 138 141 144 150 152 159 154 150 147 143 138 130 131 122 118 107 95 85 77 82 62 67 75 77 68 78 79 86 90 98 90 103 101 108 114 95 78 60 36 88 104 103 105 107 105 107 102 105 105 105 116 58 33 41 40 36 34 43 55 63 99 132 143 141 140 139 135 132 140 138 141 134 123 121 118 112 97 92 92 89 79 84 79 76 83 83 86 111 108 111 121 129 129 134 132 148 150 156 157 147 142 139 128 127 122 108 104 93 78 76 60 62 45 52 55 57 62 62 80 82 90 89 96 101 103 111 113 102 84 74 33 74 105 101 102 104 107 105 102 108 98 103 116 80 31 38 53 43 41 44 56 61 102 138 143 145 139 142 130 123 132 127 126 117 103 101 96 96 86 87 83 84 70 73 77 68 78 75 80 90 89 99 111 113 123 131 132 140 152 156 160 155 146 134 126 125 111 100 91 76 68 54 52 45 51 54 62 62 57 64 56 63 76 85 90 97 101 114 112 103 71 88 57 53 110 91 105 98 106 102 104 104 101 101 117 89 39 31 60 41 43 48 55 61 109 138 146 146 135 138 135 121 117 113 118 110 104 97 98 93 90 86 70 74 56 58 58 51 61 58 69 76 79 87 96 106 108 125 145 144 164 165 173 165 157 140 124 117 102 88 75 63 57 57 57 56 77 73 86 93 87 90 93 71 47 72 78 88 93 108 117 113 68 82 75 59 80 56 99 101 102 104 103 103 101 104 107 108 52 40 48 44 49 48 49 72 112 143 146 149 142 137 141 113 117 103 115 111 106 93 93 84 75 70 62 72 67 60 66 61 54 51 56 65 72 73 76 96 102 121 146 159 169 180 176 171 168 152 133 118 101 75 59 59 56 61 74 69 64 57 62 60 78 88 95 102 69 62 72 82 91 100 116 119 75 78 78 63 47 23 92 102 101 101 103 102 103 104 128 142 116 51 44 45 53 43 54 75 109 145 147 142 145 141 139 116 109 99 105 95 98 83 69 66 82 92 97 83 81 71 77 73 77 67 63 74 76 67 63 77 96 117 141 168 181 186 188 185 178 167 136 125 84 59 67 64 71 81 71 45 73 30 101 59 73 106 73 73 90 79 75 83 88 99 114 121 86 67 82 64 38 23 86 98 100 104 97 105 98 143 152 175 173 124 66 47 51 42 59 76 109 141 146 149 139 143 134 127 106 97 89 89 79 63 76 92 103 93 76 62 54 57 59 72 75 82 77 74 73 77 63 69 77 114 144 172 185 192 194 193 184 172 148 113 78 84 68 79 78 97 67 58 63 43 72 63 59 126 126 58 78 77 83 78 90 102 114 123 91 66 76 64 47 25 85 99 99 96 101 99 119 131 135 157 178 173 141 101 46 52 51 64 107 143 148 155 142 145 127 123 108 86 85 80 51 79 108 97 92 57 53 63 40 67 51 96 99 80 85 81 75 87 85 57 67 94 145 174 189 197 197 196 189 179 152 102 88 97 83 84 77 121 80 68 63 45 44 58 73 115 123 99 84 71 84 88 89 101 122 120 104 54 76 78 31 46 93 94 101 95 99 97 130 73 71 119 152 177 157 123 79 40 47 59 109 148 149 152 148 148 123 115 95 84 77 61 69 97 83 89 100 78 56 40 30 46 66 99 128 101 77 73 79 93 91 69 63 88 139 170 180 198 202 195 192 190 152 100 93 103 104 78 91 108 107 73 74 66 67 66 101 115 114 112 97 95 98 99 93 106 119 119 117 49 74 95 26 62 86 93 94 96 98 107 122 45 25 29 97 142 135 127 80 33 48 60 120 150 148 155 147 150 130 108 97 89 73 72 76 93 71 92 136 92 95 61 61 70 82 120 134 109 95 69 71 97 95 82 77 102 131 169 184 192 202 197 195 195 163 96 101 118 108 88 88 96 105 104 85 84 89 107 109 109 105 95 106 108 119 113 105 110 118 124 123 53 63 113 23 81 89 87 88 94 94 113 124 37 34 43 53 75 113 102 89 39 41 72 122 150 154 159 150 147 144 127 107 100 89 97 108 115 132 131 142 130 96 106 95 101 111 132 127 111 99 82 88 98 104 104 93 130 149 165 184 193 196 198 196 199 180 107 101 116 112 107 98 88 99 95 98 98 97 103 99 97 102 102 114 122 115 121 116 112 120 117 125 66 66 110 47 90 84 86 87 90 87 114 118 39 25 53 75 63 73 72 109 57 37 83 120 148 152 156 156 150 148 138 126 117 108 118 133 117 127 143 149 174 167 172 159 155 154 142 136 115 110 103 101 105 108 106 116 148 166 160 178 188 198 197 197 199 185 138 100 107 111 98 100 84 88 93 100 105 97 110 105 107 106 109 116 124 117 123 123 120 124 118 124 78 72 96 85 89 74 84 82 88 88 109 110 63 13 90 122 95 66 58 92 94 40 72 118 152 150 153 161 156 152 147 145 127 142 150 146 138 129 127 120 120 120 126 121 123 127 125 127 113 101 109 119 124 119 121 144 166 175 161 174 181 197 201 197 196 196 167 123 107 110 112 102 101 89 89 93 101 100 98 107 97 107 108 127 122 125 127 125 119 122 117 122 76 66 87 100 93 71 78 85 83 82 100 109 80 17 110 146 121 92 74 79 100 59 66 112 150 148 155 157 158 160 153 150 148 154 162 158 143 138 141 140 141 137 135 138 134 124 114 110 106 123 129 131 128 142 147 163 173 177 167 169 183 195 201 196 198 200 171 134 131 121 118 114 110 111 102 102 100 101 103 107 116 117 125 131 126 130 129 121 128 123 115 120 80 54 87 102 99 70 72 83 81 82 98 98 109 29 126 143 128 115 95 71 92 72 51 110 151 146 152 159 161 165 155 156 150 162 161 155 147 139 135 132 126 119 117 117 107 104 107 119 136 140 146 145 160 168 167 165 179 175 173 164 173 189 202 200 199 201 179 143 136 143 137 135 121 128 123 130 120 122 125 129 128 131 127 140 128 130 124 128 131 122 119 119 74 56 72 116 83 66 71 75 79 79 100 95 115 58 136 137 119 111 88 66 42 96 47 98 144 141 155 153 165 165 162 161 159 160 163 168 164 157 140 128 113 110 105 114 113 135 148 156 160 158 168 181 183 184 172 167 178 175 175 159 170 183 194 202 198 199 180 145 137 143 158 165 153 146 149 151 142 142 150 144 141 146 140 144 138 139 135 133 132 125 118 124 60 50 77 110 83 64 71 70 74 80 103 94 123 92 130 145 104 94 77 57 42 74 78 76 137 144 148 154 167 168 166 163 164 160 162 163 170 172 169 166 162 161 154 163 167 176 182 181 177 179 188 189 187 181 174 168 173 178 170 163 154 175 194 202 199 197 180 150 139 140 158 174 176 165 169 167 165 162 165 163 153 157 156 156 153 148 144 136 136 126 125 120 58 43 89 107 81 57 68 71 71 71 102 91 112 112 124 144 108 85 65 56 57 73 82 76 123 140 140 152 163 169 174 166 173 164 160 164 169 177 175 183 184 184 186 191 187 187 195 189 191 189 195 192 189 184 178 170 167 177 167 155 152 170 187 203 195 194 170 153 139 142 154 168 176 171 176 174 177 175 169 172 169 162 169 171 165 161 154 144 137 129 127 116 45 61 103 110 68 55 68 73 69 68 100 104 98 118 118 145 114 88 71 58 66 74 68 118 108 130 137 154 159 167 165 173 173 172 167 169 169 177 175 180 187 189 192 195 191 193 197 196 196 198 195 190 189 186 173 170 166 171 164 152 151 167 180 201 195 193 172 158 145 144 157 170 177 181 180 183 181 183 179 182 182 178 178 176 169 166 157 147 140 133 124 112 63 99 100 108 64 56 62 67 67 67 100 101 95 119 109 146 128 101 83 71 85 78 88 165 111 118 126 149 157 166 169 173 179 176 177 177 178 184 177 177 190 190 192 198 195 194 196 197 199 197 195 192 190 181 177 173 168 160 169 160 153 163 180 194 199 194 183 165 152 129 150 170 181 180 183 187 181 187 184 182 184 185 184 182 175 173 160 159 147 136 127 107 110 102 86 113 42 61 59 63 66 69 97 105 94 105 114 135 152 125 97 85 114 107 90 180 145 97 117 144 155 164 169 173 176 179 179 178 180 189 185 182 185 194 193 196 196 194 194 196 200 197 193 191 187 182 179 169 155 159 168 166 159 168 176 193 198 195 189 164 153 127 131 150 179 177 184 184 179 186 182 182 181 182 180 182 174 173 164 152 144 136 124 110 114 93 89 97 49 52 63 62 58 71 102 101 101 88 130 98 180 153 120 102 123 148 94 168 178 95 103 127 148 162 165 171 170 182 179 173 179 185 189 185 190 192 199 194 196 195 192 196 196 196 193 188 180 183 169 165 150 162 165 165 169 169 175 192 193 192 189 157 146 138 131 136 150 169 174 179 171 176 175 179 181 182 179 175 173 165 159 147 141 134 126 106 112 97 106 81 45 55 54 56 63 57 102 101 99 93 119 109 122 187 152 121 117 164 150 147 180 109 95 118 145 153 162 171 170 176 172 175 177 186 187 192 193 191 193 196 194 196 192 190 195 188 185 185 174 176 154 154 162 168 171 171 167 170 179 188 199 193 190 164 146 148 155 146 117 142 151 167 168 167 170 178 174 176 167 171 164 157 153 143 138 129 122 106 98 112 110 61 50 51 58 55 62 62 101 99 101 106 81 145 77 152 178 167 155 156 183 161 158 133 94 108 135 151 158 168 166 171 171 176 180 179 187 190 188 189 192 194 191 191 190 186 186 180 174 173 172 159 143 149 169 166 178 174 172 169 180 193 195 189 195 166 152 159 163 162 120 122 131 146 158 156 166 164 164 166 162 163 160 151 147 134 134 126 121 106 107 113 103 39 60 47 57 59 51 59 98 98 98 104 80 114 142 69 92 140 174 190 163 158 153 135 101 107 125 145 155 158 167 168 173 172 179 183 183 180 186 192 191 189 187 182 187 181 172 157 159 158 157 141 126 154 165 168 178 171 173 169 185 192 193 184 189 179 152 153 156 153 121 109 113 126 140 147 154 150 160 158 155 149 149 144 129 131 124 125 117 106 104 116 78 39 53 48 54 54 54 54 99 101 100 96 102 71 158 143 66 92 152 193 184 176 152 138 105 108 116 139 146 153 164 163 172 169 176 176 180 176 183 187 185 183 182 176 177 169 161 150 146 130 146 143 119 138 165 161 168 165 164 169 182 189 185 174 179 174 148 132 130 133 112 105 111 104 121 133 146 141 148 146 142 141 141 134 126 121 122 115 117 100 103 102 58 46 49 49 52 47 56 53 102 102 95 99 99 94 100 165 156 123 110 144 157 156 184 161 115 107 116 126 138 149 154 154 164 165 165 168 166 174 175 180 177 176 171 171 168 154 146 133 115 113 140 152 115 102 127 126 131 130 143 137 158 168 162 149 148 145 131 111 97 107 104 106 121 109 106 119 134 135 130 133 123 128 128 123 116 117 116 115 112 96 87 74 50 48 49 52 49 50 51 49 101 98 96 102 94 105 82 124 163 176 156 129 118 123 133 129 110 110 116 119 137 138 146 149 155 160 163 161 162 165 167 170 170 165 164 164 156 139 127 114 100 121 151 148 148 117 82 81 65 84 108 112 124 139 132 121 109 120 117 73 85 108 108 112 128 134 120 111 118 122 125 121 120 118 119 115 110 111 115 116 111 75 65 51 47 45 54 49 52 46 55 46 101 100 99 99 102 92 103 85 136 166 180 157 136 148 137 125 115 112 112 116 121 132 135 140 151 152 160 153 157 161 160 163 163 165 150 153 141 125 115 107 115 151 170 161 157 154 103 60 59 50 49 75 100 103 102 93 99 100 97 80 114 120 116 113 130 153 141 111 106 120 118 120 121 110 114 111 105 107 110 113 103 48 44 51 46 50 41 49 51 43 52 46 100 93 100 96 102 93 98 97 92 127 158 173 167 158 166 167 164 122 109 114 114 124 124 133 138 143 147 147 144 143 147 150 148 148 139 138 126 112 105 120 155 178 183 176 171 163 154 99 58 69 72 58 67 82 84 85 92 93 101 111 123 126 125 122 128 149 147 140 102 103 116 117 112 106 111 108 104 103 106 110 101 25 52 47 48 47 48 52 42 50 47 51 98 99 98 101 96 98 99 99 91 96 122 152 162 164 168 180 189 146 107 113 117 118 120 128 132 132 134 141 136 138 134 138 136 133 127 127 117 107 109 152 174 182 186 180 177 174 170 139 81 75 76 67 75 70 78 81 96 99 100 119 126 128 133 124 124 140 140 150 127 84 100 112 107 109 108 106 101 105 107 117 88 29 48 47 50 44 47 52 44 51 48 50 97 97 94 97 96 97 99 98 95 96 92 106 128 142 147 155 168 154 106 114 114 115 109 119 117 131 123 129 122 122 122 124 121 126 117 115 106 114 149 172 176 173 180 184 180 170 166 154 127 100 86 82 73 74 78 82 93 106 107 124 118 126 136 127 131 124 132 131 132 98 83 110 109 111 104 108 105 104 106 119 77 33 48 45 44 50 43 46 49 47 43 47 93 97 96 98 96 97 99 99 96 100 96 86 94 97 100 109 117 121 113 113 112 111 112 111 113 113 118 118 112 115 116 120 117 114 118 108 113 143 166 172 168 164 170 170 174 166 163 158 154 134 105 91 86 95 92 94 99 100 121 122 119 125 126 133 128 124 120 123 120 113 77 101 108 107 112 106 106 104 110 113 73 28 51 48 46 49 44 44 49 51 46 48 96 94 97 101 92 97 97 98 99 94 97 100 97 91 90 87 95 77 107 121 109 114 105 113 111 108 109 113 108 102 107 112 112 112 116 107 139 159 157 162 160 156 168 165 165 162 166 161 165 150 131 113 101 102 108 108 106 111 124 122 128 128 124 130 129 126 117 110 100 113 86 98 109 103 113 108 106 107 108 108 51 41 43 46 48 46 44 53 41 46 46 48 100 95 99 99 96 96 96 97 98 96 95 96 92 94 101 92 103 91 100 117 106 115 108 111 111 107 106 108 101 103 107 107 112 121 113 119 149 159 148 148 152 151 160 163 166 166 169 168 170 161 159 150 130 119 115 113 117 117 124 123 127 127 122 120 132 131 115 104 101 102 97 107 109 107 109 111 109 101 108 98 40 45 45 46 41 44 49 42 47 49 45 52 94 96 95 97 94 96 95 99 93 97 91 100 92 94 100 96 98 98 96 112 114 110 109 106 108 110 109 104 106 107 108 117 119 123 116 128 142 145 137 137 136 144 164 163 177 170 172 172 175 178 178 170 164 135 128 118 113 117 101 105 105 105 110 115 117 133 114 102 104 107 103 120 110 104 114 108 109 102 109 92 38 40 50 43 41 44 51 44 44 49 45 48 92 96 95 96 96 95 101 92 102 98 97 96 96 95 101 99 96 97 95 109 112 103 107 106 100 112 106 111 109 120 117 124 130 124 108 125 130 120 115 114 139 160 163 160 164 154 139 134 126 128 118 116 117 108 106 96 86 91 86 85 93 81 91 87 84 100 94 96 106 109 109 129 111 114 108 109 107 102 114 61 34 49 48 45 46 47 45 49 45 43 48 47 97 96 94 96 99 91 99 98 97 97 93 99 96 100 92 100 98 97 93 98 115 100 106 103 100 111 105 117 111 125 124 130 135 123 121 124 117 104 93 99 120 124 122 109 114 110 110 99 100 105 108 99 99 89 94 85 83 80 87 78 87 78 83 72 69 62 81 96 107 111 120 125 115 111 111 109 100 104 107 44 40 48 40 47 42 49 50 47 42 49 42 45 100 95 92 95 96 98 95 99 95 96 98 94 93 99 95 95 97 95 94 97 99 105 103 102 99 96 105 114 117 123 124 132 136 127 131 127 105 96 80 78 75 65 57 76 79 75 80 70 71 75 73 71 84 76 82 63 83 73 70 71 69 70 48 42 46 83 99 104 105 121 124 118 118 110 109 103 103 111 94 32 43 45 44 45 41 45 46 41 51 47 42 49 94 96 95 95 97 99 95 94 97 95 99 92 99 94 95 96 97 101 98 93 90 104 102 92 103 91 98 112 114 127 127 132 136 135 135 131 106 90 93 90 74 43 29 50 49 62 71 43 64 84 83 60 73 76 86 65 82 83 87 98 78 72 52 60 86 104 110 109 111 119 123 117 112 106 107 97 98 114 63 34 44 40 47 46 47 46 43 48 45 43 46 45 94 99 93 95 94 94 94 93 95 96 96 95 101 94 98 94 95 96 98 97 69 96 97 99 93 91 93 107 108 119 128 130 142 142 140 134 123 118 119 126 126 113 56 45 38 36 102 25 61 103 109 78 93 105 124 107 113 107 109 102 84 63 82 100 109 113 116 115 117 115 114 120 106 106 105 97 106 104 50 31 42 50 42 37 48 43 43 47 43 44 47 47 94 97 94 93 100 92 97 95 93 97 93 95 95 93 96 92 97 96 93 101 66 82 91 98 96 94 96 95 106 111 117 124 131 136 143 134 143 152 159 167 161 162 154 101 79 63 71 42 31 65 81 56 80 83 76 111 97 95 76 89 83 91 106 111 117 123 119 120 120 115 113 111 106 104 97 99 106 79 37 45 42 47 44 48 46 41 47 43 50 43 44 49 97 91 93 92 95 97 97 95 97 91 95 96 99 92 96 94 97 97 100 96 78 86 76 95 97 96 93 97 94 98 110 119 122 134 136 142 151 169 168 174 170 165 169 161 138 129 115 103 77 62 50 45 48 46 40 68 77 71 91 100 107 98 105 114 123 120 123 123 120 117 112 104 102 104 102 97 98 53 34 44 45 42 43 48 45 45 46 37 53 44 39 43 95 94 92 96 93 92 93 91 96 94 97 95 93 98 92 93 95 97 98 96 61 132 87 74 88 94 95 94 94 101 101 108 111 121 131 144 157 172 168 167 167 173 163 152 154 144 163 184 166 152 139 125 107 101 97 100 105 106 106 111 110 97 104 123 122 120 120 130 116 116 112 103 103 102 99 103 79 32 38 47 37 45 44 45 38 46 38 45 47 46 42 40 95 90 96 95 97 90 93 97 93 95 96 97 95 94 95 96 95 99 95 95 71 128 134 63 73 87 94 100 98 91 101 103 107 105 124 139 151 161 165 164 167 165 165 155 143 145 138 175 179 177 168 171 156 137 138 134 129 121 109 108 100 97 116 123 120 124 122 125 119 114 111 105 97 100 101 99 51 31 44 40 41 40 44 46 40 45 39 45 47 38 46 48 91 93 94 93 94 96 92 94 96 92 94 93 98 94 95 95 95 94 98 88 83 126 153 99 60 81 88 96 100 96 99 104 104 98 118 133 147 156 164 159 166 164 163 159 149 132 135 129 147 148 149 145 148 130 132 129 128 117 103 99 105 107 121 120 120 125 121 126 112 118 104 109 103 98 97 75 31 42 41 44 42 43 39 43 44 45 43 46 38 50 39 48 94 96 90 90 97 94 94 91 96 93 94 92 92 95 93 95 92 92 100 86 92 132 138 138 79 60 82 86 94 100 99 99 96 105 113 124 134 148 159 167 167 161 157 153 151 139 123 121 120 121 125 121 118 119 121 116 111 104 98 96 110 116 117 122 119 131 126 125 115 115 107 105 100 103 90 33 38 39 46 39 45 34 48 39 38 49 37 45 47 42 40 43 94 89 95 89 94 91 93 89 97 92 92 90 96 94 99 90 96 93 101 76 103 129 138 139 115 60 65 89 87 102 103 103 98 104 111 119 133 144 149 166 163 158 162 155 148 151 124 112 101 105 100 97 97 99 96 96 97 99 98 107 109 118 121 120 127 128 119 128 114 110 112 105 104 98 57 28 40 37 45 42 44 40 40 46 44 46 38 44 49 37 50 49 94 94 89 96 88 94 96 91 94 88 96 96 90 97 88 95 98 91 94 86 103 133 132 141 125 90 59 73 82 95 104 106 109 103 117 119 135 140 146 162 165 163 158 158 154 145 138 119 111 95 93 88 83 99 85 97 95 102 100 110 118 118 123 122 132 126 126 117 115 110 107 108 101 65 31 42 41 40 44 44 36 45 39 32 51 39 40 46 45 40 40 49 93 92 92 89 95 91 93 93 91 90 95 97 98 91 89 96 97 90 96 76 115 130 131 140 128 108 72 56 71 88 104 108 116 117 120 127 134 140 145 154 163 165 163 158 155 154 140 133 119 107 105 97 96 94 98 105 107 105 107 113 118 126 127 125 131 130 124 118 113 113 107 103 97 38 39 38 41 35 43 40 39 46 40 39 42 41 42 45 43 47 40 47 89 92 92 92 91 93 90 95 93 93 90 98 92 92 94 90 95 94 98 79 115 130 126 138 129 117 100 60 57 74 93 106 116 129 124 133 133 141 145 151 153 163 175 173 172 155 155 147 151 143 135 128 117 111 109 116 115 121 116 118 128 130 130 128 132 128 122 119 115 111 101 89 97 41 27 46 35 41 44 41 44 42 40 38 46 40 38 50 40 44 40 48 93 91 90 89 93 94 87 95 92 93 94 93 88 94 91 93 95 97 82 62 114 134 134 129 133 119 105 80 58 57 80 91 105 124 125 131 137 143 147 155 150 162 178 177 179 173 175 176 178 175 173 164 153 150 144 142 146 140 141 138 143 138 138 130 130 126 120 120 108 110 89 92 97 34 39 34 42 42 38 43 40 40 42 40 46 39 40 47 40 49 37 45 90 94 88 90 90 92 92 92 95 89 90 93 88 97 92 97 102 85 61 30 127 132 127 134 137 121 111 91 71 54 63 71 89 111 119 132 137 146 151 156 158 166 171 175 186 183 181 184 184 182 182 178 173 177 173 176 172 174 169 158 156 149 145 134 132 127 114 119 109 89 90 90 100 35 34 42 43 38 41 41 41 38 42 41 43 46 42 41 42 48 42 47 93 85 90 94 93 90 93 90 92 90 90 90 92 96 98 98 84 58 33 41 127 133 131 130 132 135 110 108 77 68 61 56 69 87 106 116 132 132 149 158 158 161 172 174 181 187 183 187 184 185 185 184 182 182 182 180 179 178 180 170 166 165 150 133 128 122 118 109 94 91 90 94 93 46 37 44 36 38 41 35 43 39 42 43 38 43 42 34 45 40 45 39 91 91 90 91 87 91 90 91 93 88 91 90 96 108 92 64 61 45 23 47 132 135 131 128 134 132 122 110 90 78 56 61 50 62 83 97 118 131 136 156 154 159 164 174 181 179 184 186 186 187 180 182 184 179 184 177 181 180 174 172 170 163 154 130 126 118 111 96 88 91 90 85 95 52 49 38 38 46 38 37 44 36 42 43 41 42 41 36 44 35 50 38 87 91 90 90 92 88 90 90 92 88 94 96 111 83 55 43 39 45 18 73 134 131 132 129 129 132 123 114 102 85 67 58 62 51 58 70 88 108 128 133 147 150 161 165 174 170 174 178 174 179 172 174 180 176 171 174 178 174 165 168 158 157 141 130 116 114 96 89 88 92 92 92 91 41 57 54 35 41 34 42 36 37 45 35 41 38 46 38 43 43 37 47 89 88 89 88 92 91 85 87 91 93 87 111 100 45 33 32 42 60 17 94 131 129 134 132 119 134 126 117 109 87 81 63 65 57 58 54 63 79 104 117 135 142 147 159 159 164 163 164 166 165 164 164 166 165 158 161 165 156 155 156 145 143 127 115 110 100 79 91 90 94 86 95 93 34 52 58 44 39 33 43 36 41 44 35 45 35 46 36 45 39 42 42 89 86 89 86 97 87 90 94 86 90 101 114 80 34 27 38 52 40 7 100 130 132 130 132 130 131 130 124 107 102 83 72 68 64 62 58 55 58 68 93 117 127 131 141 145 151 154 158 156 159 150 157 148 147 147 145 144 141 136 138 137 119 118 102 100 83 83 86 90 88 89 91 103 23 44 60 57 34 38 32 43 38 41 43 37 43 38 42 37 40 41 43 82 92 86 89 90 88 90 88 88 83 114 112 72 28 40 29 51 24 5 122 127 132 131 137 129 133 128 122 109 108 91 81 72 61 63 66 61 51 54 62 82 104 109 119 126 128 138 138 140 140 139 141 138 132 129 124 131 126 121 115 111 107 104 93 86 80 85 81 84 92 85 96 101 27 30 55 66 41 36 40 41 37 37 42 40 41 35 41 38 37 41 40 85 93 82 93 84 88 90 89 88 93 120 112 85 28 30 25 49 12 43 128 130 128 134 133 136 131 129 120 117 108 96 87 73 61 71 65 71 60 58 56 55 71 84 97 108 106 115 114 117 118 118 114 116 114 112 115 107 108 102 104 92 90 86 84 90 79 86 83 84 87 85 94 101 34 21 45 62 54 36 36 39 34 43 34 39 36 39 41 36 48 35 43 87 92 85 95 86 92 88 90 80 114 114 108 99 46 14 38 21 31 110 126 129 130 128 136 137 132 131 123 118 113 106 95 87 76 65 64 71 65 70 57 53 54 57 64 72 80 81 90 89 95 91 91 90 88 88 93 89 87 85 87 83 73 83 84 85 86 88 79 87 87 89 94 103 35 14 46 52 69 35 36 36 45 32 35 40 36 38 39 41 40 39 35 79 93 89 89 87 86 89 82 88 116 99 111 106 60 38 14 8 101 132 124 133 127 133 134 133 131 131 127 118 111 106 94 91 80 66 68 68 68 69 67 65 55 51 49 57 60 63 63 71 74 70 76 72 75 73 74 71 72 68 69 80 81 82 88 82 88 81 88 79 93 86 92 103 44 8 34 47 63 54 29 38 34 40 34 38 37 32 41 40 36 39 40 