P2
92
112
255
106 109 105 105 111 108 110 106 110 110 107 113 111 110 116 108 114 109 110 113 114 115 110 114 110 112 111 114 112 114 106 114 112 106 102 110 114 119 124 147 150 160 175 176 177 182 181 181 180 172 161 160 158 155 134 120 109 113 109 114 108 113 114 111 114 112 113 110 117 107 114 115 112 113 112 115 111 111 116 109 115 111 110 115 110 114 112 113 112 111 108 113 108 109 108 110 107 110 110 110 112 107 110 110 113 105 112 112 111 114 108 116 109 116 109 111 112 111 112 112 111 105 104 110 110 115 125 137 144 140 151 167 167 177 179 180 183 177 183 179 183 180 172 167 171 165 156 144 144 129 110 111 107 111 110 113 115 111 113 113 112 113 109 116 110 112 114 112 115 112 114 111 110 114 110 111 111 112 115 110 113 109 113 111 108 111 107 109 109 110 110 107 108 114 105 113 110 112 116 110 112 111 109 114 113 113 112 115 109 117 111 110 110 103 111 129 143 158 155 167 173 165 173 177 182 182 185 186 189 183 183 181 182 178 184 177 173 169 160 154 153 151 141 124 111 107 107 104 112 113 113 113 116 113 112 112 115 105 114 113 110 112 116 113 113 113 112 110 112 114 113 111 114 112 113 113 108 113 107 106 105 109 111 110 109 110 108 114 111 110 111 108 110 113 114 115 108 116 111 113 112 109 104 101 127 141 163 175 182 172 173 183 183 183 183 183 189 187 190 192 191 188 190 190 186 187 186 179 183 182 166 165 158 151 156 149 137 124 108 109 108 114 110 114 111 117 111 112 113 112 112 111 113 111 113 116 115 112 116 108 113 115 112 114 108 117 108 113 105 110 107 107 110 108 109 112 110 113 109 110 112 110 110 110 112 112 112 113 110 113 111 111 104 104 125 147 174 180 182 187 186 180 183 182 185 186 189 189 189 191 192 196 190 189 192 189 190 190 185 179 185 188 180 174 168 161 156 160 144 147 134 126 109 98 109 111 111 113 111 113 113 111 115 108 114 109 116 112 114 114 114 112 112 116 113 113 111 115 113 113 110 109 109 108 107 114 110 110 110 108 109 113 111 111 114 105 114 114 112 109 110 112 105 112 113 151 180 183 185 184 189 186 190 189 190 192 194 193 193 194 193 193 193 195 195 195 192 193 190 190 189 188 186 185 187 185 170 171 169 167 166 157 151 146 140 119 89 107 112 110 115 113 111 113 114 113 111 115 111 112 114 110 113 108 111 112 113 112 112 114 114 115 107 106 109 110 106 108 109 109 112 110 108 112 110 111 112 109 111 113 106 112 110 103 115 142 177 185 189 190 188 189 192 192 193 198 199 199 200 198 197 197 195 198 195 195 197 195 197 193 193 192 190 191 190 187 186 183 176 181 173 174 171 167 165 163 151 145 117 85 105 109 113 111 115 113 112 112 116 114 112 111 117 114 112 114 112 113 112 110 116 110 111 114 106 111 107 105 113 111 110 108 115 108 112 110 110 110 112 106 112 111 108 109 103 129 165 181 187 190 190 190 191 195 195 200 199 201 201 203 201 202 202 199 199 200 200 195 195 195 196 197 194 193 193 190 191 189 186 179 177 179 177 181 170 165 172 174 159 156 142 110 101 98 109 116 112 114 111 113 114 113 109 111 117 112 112 113 114 111 114 110 114 112 112 113 108 110 112 110 107 111 109 109 111 109 109 112 108 111 110 112 109 100 94 109 150 178 187 188 188 189 193 193 194 199 198 200 202 203 204 206 206 206 206 203 202 201 200 199 197 198 198 197 195 195 188 182 188 191 191 182 171 172 167 172 168 169 170 174 162 155 159 144 127 104 93 113 108 111 113 113 113 112 113 112 114 113 111 116 114 116 111 118 111 113 111 111 108 109 106 109 109 112 110 105 112 101 111 110 102 103 101 96 88 88 114 160 179 186 190 189 188 194 195 196 198 199 204 201 207 208 208 209 210 209 210 208 204 200 198 199 196 198 197 197 196 194 192 188 184 188 186 178 164 169 167 168 172 177 176 175 161 151 159 156 143 133 111 96 101 113 110 112 114 109 112 111 115 109 113 111 112 114 110 113 110 116 109 114 108 105 110 108 108 112 109 104 112 106 107 105 99 93 76 64 63 116 164 179 187 186 188 191 192 195 199 200 197 204 202 209 209 210 209 210 210 211 211 209 207 198 200 198 199 197 198 197 193 193 193 191 186 187 186 179 177 166 166 173 175 178 173 176 172 166 164 169 155 147 137 109 86 109 111 109 115 114 116 109 113 109 114 113 111 113 109 112 111 113 111 111 107 107 110 106 112 108 111 104 113 107 102 97 87 75 50 73 125 164 174 185 182 187 191 192 193 199 199 197 202 203 206 209 210 210 210 210 210 209 211 207 203 203 199 198 199 197 200 195 195 192 192 190 190 188 184 188 182 176 177 176 178 181 175 177 185 175 166 169 171 160 144 141 106 95 106 110 108 111 119 111 114 114 113 112 113 114 109 112 114 111 112 113 103 109 110 109 110 109 113 104 111 99 90 91 70 45 54 121 164 174 178 183 186 190 193 195 197 196 199 200 203 203 205 210 209 209 209 210 208 208 207 206 203 199 197 199 198 198 196 196 193 194 192 189 190 191 190 187 188 182 183 179 183 184 180 179 182 179 176 169 177 174 149 141 136 98 84 109 111 107 113 107 115 113 110 111 114 116 109 116 112 107 114 112 101 110 106 108 112 105 110 100 98 89 84 70 57 47 111 160 172 175 178 187 188 190 193 194 197 197 198 204 205 204 205 208 208 206 205 207 205 205 204 204 202 193 191 197 196 197 198 194 192 194 194 189 190 192 189 191 191 188 184 186 186 185 182 185 182 183 181 174 175 171 163 153 150 127 88 80 100 101 106 113 112 117 110 112 115 114 110 114 112 112 113 115 103 107 106 108 113 107 103 101 82 80 70 56 58 99 153 169 175 174 179 186 189 190 193 194 199 197 197 201 204 203 205 205 204 204 203 204 204 202 202 203 199 194 191 194 199 198 198 196 193 195 193 194 190 194 192 190 189 189 187 191 189 187 183 186 183 179 180 177 173 170 166 158 157 144 110 83 89 93 102 109 111 112 113 112 113 113 113 111 117 112 113 112 111 105 109 107 111 106 91 83 72 63 61 59 81 150 164 169 172 174 177 187 188 188 192 193 197 198 200 201 201 201 202 203 204 201 202 200 201 202 201 200 198 198 198 198 199 198 196 196 193 198 191 194 193 197 193 191 189 191 191 191 191 189 185 184 183 183 178 179 174 172 165 158 159 149 132 102 75 85 79 103 109 112 109 113 115 112 110 111 112 111 114 112 107 109 106 113 90 92 67 66 64 56 58 81 132 159 169 170 171 174 178 186 185 188 192 192 195 198 198 198 201 201 201 201 202 200 200 200 201 201 201 200 199 198 199 198 198 198 197 195 196 195 194 193 193 194 194 191 193 192 192 193 191 187 186 185 182 180 176 175 173 169 166 160 158 157 144 115 81 76 69 80 98 99 112 113 110 115 110 112 114 113 111 109 107 109 109 105 102 84 59 58 66 47 64 120 147 165 164 168 171 175 179 186 183 188 193 191 195 195 197 198 200 201 200 201 199 199 200 201 201 200 201 201 200 198 199 198 198 195 193 193 193 193 196 193 194 194 195 190 193 192 193 191 189 188 184 185 183 180 178 173 170 167 167 164 154 153 157 128 92 75 66 74 68 82 96 113 114 110 115 112 112 116 110 112 109 108 109 96 94 83 76 66 64 59 92 141 159 163 163 169 174 175 180 180 186 188 192 191 194 196 197 199 199 200 201 200 200 199 201 201 201 200 201 201 200 199 199 198 196 196 191 192 192 193 194 193 192 196 194 192 193 192 193 189 190 188 185 184 185 182 175 172 168 165 165 162 158 152 151 141 111 75 67 69 61 64 83 94 105 108 110 113 110 111 112 108 110 108 109 99 92 86 69 60 67 88 120 150 160 159 165 171 174 174 179 181 184 189 192 192 193 197 197 198 196 198 200 200 200 200 201 201 202 202 203 202 199 197 198 199 194 196 189 191 193 193 193 191 192 195 193 191 191 191 189 186 187 185 186 188 181 182 175 174 167 164 164 162 155 150 151 147 127 81 64 73 76 49 64 73 80 98 106 110 110 114 111 113 103 109 105 105 96 83 67 62 59 107 137 153 161 158 165 169 173 175 180 184 184 188 187 191 193 197 196 198 199 198 198 198 200 201 201 201 204 203 205 204 202 199 198 198 194 191 193 191 193 193 191 192 192 193 195 189 191 191 190 182 187 187 185 185 184 182 174 172 169 168 163 157 153 146 151 147 135 82 54 68 79 62 49 65 65 82 102 111 104 109 117 113 111 110 104 103 92 80 69 63 66 122 151 149 160 159 167 170 171 173 181 182 188 183 187 190 194 197 194 199 200 199 198 200 201 201 202 207 207 204 207 205 202 201 199 199 194 193 193 189 191 192 191 191 190 194 191 191 191 188 190 185 183 187 185 184 186 179 173 174 160 168 162 155 152 152 145 147 142 92 45 62 74 73 47 60 48 74 98 112 92 106 115 113 105 109 108 100 86 71 64 55 88 142 151 152 153 165 168 171 171 171 177 183 185 186 185 189 195 194 200 199 200 202 200 202 201 205 205 205 205 208 205 204 206 200 203 198 194 193 192 188 190 193 188 191 191 195 193 190 191 189 188 186 187 186 185 183 181 178 173 172 160 161 160 158 153 151 141 147 142 105 54 45 68 73 63 52 59 64 81 110 101 110 115 113 109 108 106 96 74 69 50 64 108 153 151 146 153 165 166 170 173 173 178 180 185 185 188 189 194 194 198 199 200 202 201 200 203 204 204 205 205 205 204 203 204 205 201 200 193 192 190 189 185 191 187 189 190 191 193 188 188 187 190 186 184 186 182 185 178 178 172 169 170 162 162 156 159 153 143 140 143 114 67 41 63 65 68 63 55 54 69 96 109 112 113 111 104 106 97 92 74 84 57 80 126 153 146 143 155 163 163 170 174 174 175 180 185 188 187 189 190 192 196 199 202 202 201 201 203 204 204 204 204 203 203 202 202 201 200 199 192 190 189 188 186 189 188 189 190 192 191 188 187 185 187 188 182 180 178 182 176 171 171 170 162 165 163 156 160 153 143 135 142 131 85 63 64 63 62 63 58 51 52 81 105 114 115 109 105 106 95 96 80 68 50 96 139 152 145 146 155 164 161 170 172 175 175 178 185 186 185 189 188 191 193 197 199 202 201 200 201 204 203 204 204 204 202 202 200 199 199 197 193 191 189 186 188 189 188 189 190 193 191 187 187 185 185 186 185 177 180 179 174 174 170 167 163 156 165 161 156 149 138 134 139 136 112 60 75 59 55 66 61 44 48 63 113 113 108 109 109 101 100 94 73 56 52 120 138 153 148 143 158 159 164 167 173 170 176 178 176 180 184 186 181 188 187 195 199 200 203 199 202 201 201 202 202 200 201 201 200 199 197 191 192 193 190 189 188 190 187 188 190 191 190 187 188 184 180 183 181 182 179 172 172 171 170 166 161 160 164 159 154 149 136 130 137 139 122 67 64 65 53 64 57 53 35 47 107 112 111 112 106 107 96 87 72 45 78 122 143 153 142 147 160 158 165 166 171 172 174 175 177 176 183 181 184 188 190 192 195 201 202 200 200 201 200 201 199 199 200 201 198 196 194 191 190 193 191 188 190 189 188 189 189 188 188 187 185 181 183 179 179 178 180 173 173 170 173 164 161 167 159 160 145 142 137 132 135 142 124 84 52 78 63 61 51 51 31 37 93 116 108 114 108 109 94 78 67 53 80 124 145 148 138 151 157 159 166 169 168 171 176 174 175 176 180 182 185 187 185 186 192 198 201 200 198 202 200 198 198 198 197 199 198 195 193 193 190 192 191 189 187 187 192 188 186 188 188 185 186 183 180 179 175 176 175 174 169 170 171 164 161 170 159 157 148 131 135 132 135 139 129 94 64 78 67 67 59 51 30 24 81 115 114 110 96 108 86 69 55 44 93 127 145 147 143 142 159 158 165 167 168 167 170 172 173 174 181 182 182 186 186 188 189 195 199 196 194 197 199 194 199 195 195 197 197 194 194 190 190 192 190 191 186 188 189 188 184 184 186 180 181 182 173 176 172 169 175 169 166 163 165 162 161 163 163 151 142 137 131 134 137 141 128 98 76 75 76 62 56 50 28 27 74 115 115 110 103 100 70 59 44 49 98 129 143 144 140 144 155 162 160 164 168 164 165 171 173 177 180 182 180 182 184 188 190 191 194 194 194 194 196 194 197 196 197 196 196 194 193 190 190 190 189 186 187 185 187 186 182 186 180 170 176 178 173 175 173 168 169 169 163 167 162 165 160 158 159 151 135 133 132 132 138 140 132 100 69 86 79 64 52 50 30 32 70 110 113 113 95 72 52 59 26 60 94 125 140 145 145 141 156 167 158 163 166 164 168 169 174 176 174 180 182 183 187 186 189 191 193 191 192 194 193 193 196 194 194 195 196 193 191 190 190 192 190 184 190 186 187 186 180 185 179 178 172 175 171 169 170 168 171 169 166 166 167 164 162 161 157 145 133 130 130 135 135 140 135 108 81 71 79 61 51 52 31 28 68 110 113 111 79 49 38 43 38 66 95 115 137 146 137 146 159 163 161 162 164 168 168 170 173 175 179 183 186 187 189 189 189 192 195 196 196 195 197 200 194 194 195 194 194 190 192 191 190 192 189 190 188 189 186 184 181 182 179 178 173 172 173 170 167 169 171 170 169 169 167 168 165 162 149 137 137 128 130 136 133 138 132 109 90 59 76 73 51 46 31 30 65 106 110 115 69 41 33 36 47 72 90 117 136 142 143 142 159 161 163 165 166 168 172 173 175 177 181 183 187 190 190 189 192 196 198 198 197 196 198 199 199 194 192 196 193 195 191 191 190 190 191 189 190 192 184 182 181 182 181 176 178 174 170 167 171 179 174 173 169 172 168 166 162 158 142 137 128 127 129 136 132 137 134 110 92 60 69 79 61 38 43 36 53 102 114 112 63 43 33 39 58 78 99 117 134 144 141 146 154 163 155 166 167 168 173 173 179 179 183 185 188 191 191 191 192 196 198 200 202 198 196 198 195 196 193 195 193 192 193 190 190 189 191 192 190 188 185 183 185 185 182 181 178 175 173 167 174 180 177 167 168 167 165 163 158 151 141 131 131 128 131 135 137 130 126 111 89 57 67 68 77 41 41 33 41 101 108 114 69 44 34 50 63 59 93 124 134 142 139 148 153 163 160 172 168 172 174 175 180 179 186 187 188 191 190 192 193 197 199 199 200 200 196 198 192 195 191 193 196 190 191 192 192 191 193 194 190 187 190 185 185 188 183 184 179 180 179 173 181 179 173 166 168 167 165 164 156 155 141 131 131 126 132 130 139 136 121 111 80 46 76 44 63 48 33 37 41 86 115 112 78 59 48 57 63 62 82 122 136 142 143 147 153 160 163 170 171 175 178 180 182 180 188 188 188 191 190 191 194 196 199 202 199 199 197 194 193 194 191 193 192 191 190 193 191 193 194 194 193 190 192 186 187 187 188 182 184 180 181 179 183 180 171 170 169 168 162 155 158 144 143 129 126 130 128 132 130 133 123 102 91 34 66 54 48 54 37 27 55 84 114 109 94 73 55 76 58 49 74 125 132 135 140 150 149 164 165 173 174 178 181 181 184 182 185 185 187 190 190 189 190 193 195 199 198 198 194 194 194 192 190 191 192 191 191 196 192 191 194 193 191 188 190 188 186 189 185 180 177 182 179 180 184 178 169 172 169 170 161 155 151 142 132 133 123 129 126 133 123 131 117 104 91 32 47 54 38 61 39 32 55 95 103 109 100 92 72 82 57 33 78 131 137 131 137 150 154 168 173 178 181 182 181 186 186 186 186 185 186 188 187 183 188 190 189 191 194 195 195 191 192 190 183 188 193 192 191 194 193 191 195 193 191 191 184 184 183 187 182 184 179 180 183 183 182 177 170 172 169 162 157 155 147 138 132 127 126 125 127 129 122 124 115 99 87 47 39 42 24 45 50 41 53 104 106 108 93 101 76 69 50 33 82 133 137 134 135 154 165 177 181 179 186 186 185 184 189 191 189 183 181 189 187 184 183 185 190 186 191 188 188 192 192 186 177 189 192 190 193 192 191 194 191 190 188 188 185 183 184 183 179 182 180 182 185 180 183 175 173 170 170 162 160 154 143 137 134 124 126 129 121 127 118 118 112 96 70 64 40 28 25 30 37 40 69 101 103 109 95 93 81 66 44 34 93 133 140 135 139 150 170 171 172 170 171 181 180 179 181 187 185 179 171 179 187 183 181 184 187 186 184 182 184 190 189 184 187 191 189 191 190 187 191 187 188 184 186 181 179 175 182 180 182 179 181 182 182 184 189 181 181 176 174 168 162 155 143 136 130 127 125 125 124 123 119 115 105 94 71 63 43 23 24 39 22 31 78 93 113 101 103 101 72 67 39 32 97 138 135 136 138 149 162 166 166 160 156 165 167 158 168 174 176 179 166 170 182 183 182 181 182 183 185 182 184 186 189 184 184 189 185 187 186 185 178 177 183 177 181 176 180 171 175 177 183 182 180 183 183 186 189 185 183 177 180 171 166 156 143 135 126 124 125 120 123 121 115 113 103 86 71 54 54 25 26 27 27 31 79 97 107 103 105 94 74 48 38 25 109 136 131 135 137 143 147 156 153 154 151 150 152 145 137 149 155 157 154 158 173 178 179 182 181 177 183 179 186 184 186 179 179 187 184 186 182 183 177 176 179 176 173 177 176 172 178 178 181 180 184 184 184 185 186 182 184 171 179 175 170 167 146 135 125 122 120 117 122 124 114 110 95 77 56 56 51 36 27 27 21 36 97 98 106 98 110 87 66 44 24 40 110 137 134 132 136 142 139 134 146 143 141 137 135 127 116 129 124 128 119 127 146 151 164 172 176 174 180 177 179 184 184 178 177 181 182 180 180 175 170 175 172 173 171 172 176 172 174 171 173 174 170 174 173 172 165 165 170 165 161 166 164 161 153 135 130 124 117 114 117 122 113 101 93 68 47 50 48 36 34 31 23 52 103 108 104 105 111 81 68 54 26 42 118 139 138 137 131 138 131 117 126 128 121 122 134 125 101 117 112 109 113 116 118 128 134 150 161 169 171 175 171 175 174 171 170 173 177 178 177 175 165 168 167 167 169 162 165 169 166 160 151 153 148 151 149 159 146 150 153 158 153 155 153 156 149 138 133 117 121 113 114 124 110 97 78 73 41 56 53 36 22 44 30 62 106 106 103 104 106 93 78 61 36 50 120 145 146 135 120 120 126 93 151 174 170 181 199 183 124 179 183 152 113 133 134 135 138 176 176 181 162 161 167 167 167 173 169 171 170 171 174 171 162 160 154 152 154 142 144 143 144 138 127 130 122 125 129 134 135 142 140 144 146 143 141 136 142 134 134 125 116 109 117 119 117 96 73 58 50 58 60 37 33 31 51 64 99 105 105 102 121 120 103 76 39 58 128 146 138 115 106 107 113 114 117 142 147 147 146 155 148 145 137 120 95 98 100 100 89 106 119 128 112 87 93 134 133 145 170 149 146 139 149 151 137 133 152 133 132 118 118 121 122 119 126 112 108 118 115 114 118 130 138 136 146 134 135 135 133 132 130 121 116 112 115 118 116 101 78 52 44 64 56 46 39 33 47 59 95 107 102 105 154 159 138 101 64 65 133 130 112 130 135 118 113 122 124 139 150 155 146 163 186 181 154 113 100 90 88 92 98 106 120 130 145 133 87 113 159 155 160 161 159 156 145 141 98 77 104 115 109 106 97 95 100 96 106 117 97 101 98 85 83 102 116 124 134 130 126 128 130 127 128 121 113 116 112 111 117 102 76 43 44 50 58 47 43 45 28 43 94 108 103 106 138 130 129 139 99 76 112 94 110 149 141 110 106 117 141 151 155 158 154 149 157 159 149 133 111 96 95 84 84 93 103 118 135 162 155 82 136 174 174 167 165 164 152 101 107 119 115 116 106 110 96 92 84 85 88 92 92 97 107 117 112 109 115 111 117 112 106 124 123 123 119 124 113 114 112 115 117 100 63 49 40 50 47 56 43 45 34 43 97 107 106 102 95 104 96 108 107 81 116 71 109 153 142 111 97 134 143 142 132 121 112 102 97 100 99 90 82 78 76 79 81 83 96 116 121 139 169 99 113 189 190 181 177 178 139 99 127 124 113 106 110 107 92 87 87 80 82 94 93 106 109 115 122 116 119 123 124 125 117 124 110 122 128 117 118 114 115 118 119 95 55 50 37 50 42 54 51 37 52 70 103 107 104 106 54 67 84 67 82 122 143 89 117 151 138 119 111 138 127 109 106 91 94 83 75 65 71 70 60 68 61 52 61 69 81 87 99 124 149 98 84 171 179 175 170 174 119 109 140 123 101 99 95 97 83 98 129 138 116 104 118 121 126 131 130 126 120 119 120 119 117 120 118 120 130 128 112 115 118 118 117 93 58 37 42 44 42 41 40 46 66 99 105 103 104 104 59 38 92 96 105 122 114 95 119 153 138 121 120 119 89 96 88 73 87 96 59 46 61 53 50 42 65 65 63 54 71 74 74 106 135 107 100 136 154 145 136 140 100 117 135 111 91 85 76 74 62 74 123 131 122 79 97 106 124 134 140 133 128 130 147 153 120 103 113 111 134 109 96 119 125 119 120 93 58 55 26 51 54 42 41 48 76 105 99 102 101 105 69 31 85 149 120 96 77 58 134 151 144 125 121 93 81 86 68 73 118 123 64 59 55 46 54 50 82 77 68 69 76 75 69 78 134 91 88 149 175 163 148 130 88 119 127 91 79 70 68 59 54 53 74 76 81 61 66 71 86 94 106 121 123 124 134 139 121 102 107 111 119 124 103 96 122 122 120 83 46 54 41 44 45 34 44 62 79 95 100 102 104 103 58 49 47 114 119 75 57 66 139 155 140 141 131 110 99 107 108 103 124 133 92 80 78 71 71 71 108 97 87 65 61 85 80 75 108 72 82 123 150 153 155 147 113 114 117 86 62 70 69 62 64 68 80 72 56 57 53 45 53 61 82 89 107 106 121 128 123 116 105 105 118 121 130 94 109 124 121 78 46 48 40 41 37 54 83 96 107 110 105 102 103 103 56 86 86 113 123 73 46 88 134 157 152 144 142 130 127 120 133 146 141 147 134 111 91 89 95 110 119 108 102 83 77 75 96 93 86 72 135 172 181 170 159 143 111 108 107 88 79 81 74 76 60 84 108 80 60 62 41 61 43 70 86 70 90 89 83 109 125 115 108 108 117 125 124 121 84 119 123 77 44 57 42 48 75 98 113 114 111 108 119 100 105 102 78 104 107 115 134 88 45 108 134 156 157 154 153 148 141 136 134 136 148 153 156 152 151 143 147 132 125 122 115 110 104 108 111 121 76 86 171 192 195 191 186 164 102 91 109 104 104 79 72 78 78 92 117 102 64 80 49 68 57 94 119 90 61 84 78 81 114 114 105 114 115 129 126 117 96 106 112 81 61 62 40 65 96 101 108 104 95 93 107 111 103 103 86 124 110 117 127 105 72 116 132 153 164 168 157 159 156 147 143 151 152 146 143 136 135 133 122 115 104 108 111 129 123 126 132 134 110 127 172 195 197 192 190 172 116 82 114 115 110 87 85 88 96 108 121 140 119 87 76 83 97 130 131 110 100 98 91 86 90 107 105 114 121 126 131 109 99 92 73 73 72 59 54 57 89 91 83 67 55 38 67 104 107 104 101 131 114 114 122 121 91 116 132 149 164 172 167 164 159 154 148 151 160 159 160 150 148 140 131 121 125 139 141 145 125 138 150 125 107 152 170 194 197 192 192 173 113 109 125 120 101 103 91 95 105 123 138 163 170 145 143 132 143 148 136 121 119 118 114 112 96 112 109 118 117 123 125 106 89 85 81 97 66 62 61 67 76 86 84 74 52 27 55 108 105 108 125 140 122 118 113 138 115 125 132 148 161 176 170 161 158 155 165 167 158 156 156 145 142 151 153 150 153 141 141 130 143 158 162 95 90 149 169 192 200 192 193 175 119 86 133 113 115 99 109 111 116 120 130 142 146 137 150 145 144 149 143 138 130 135 131 126 112 119 115 114 121 119 110 118 97 93 108 122 71 52 57 74 82 96 109 102 59 22 74 103 106 99 129 139 129 128 105 134 136 128 135 146 165 173 174 165 162 161 168 165 167 169 168 176 166 168 163 148 140 136 129 139 166 166 130 58 95 147 163 190 203 194 191 173 127 76 110 110 107 107 107 122 134 141 131 137 143 149 149 158 161 164 162 155 147 134 131 131 125 125 123 119 113 106 120 129 111 94 112 134 82 43 48 69 93 111 115 107 60 29 85 108 101 109 141 134 138 132 107 125 139 130 134 145 163 179 182 175 167 165 175 173 174 175 177 173 164 158 155 143 134 135 142 167 181 144 108 73 116 146 162 193 198 197 186 168 129 105 81 124 106 115 119 119 136 147 145 140 135 134 138 156 156 158 158 157 150 138 136 139 136 137 131 122 110 119 126 127 111 91 111 130 92 38 43 85 102 108 119 109 53 34 102 106 101 111 147 129 148 133 120 112 143 128 137 139 148 174 179 180 178 174 175 176 170 167 160 159 147 142 143 138 146 147 165 176 146 114 127 96 128 149 164 194 201 196 187 166 134 116 107 91 119 119 136 134 135 141 143 148 150 147 138 146 147 149 153 153 152 146 142 139 147 149 138 132 124 128 125 126 110 98 114 122 83 47 55 104 109 113 126 107 38 63 107 102 103 106 148 131 141 137 129 113 143 131 137 138 129 155 177 183 185 182 173 168 173 167 154 151 146 153 149 160 167 165 163 157 108 130 137 124 137 156 170 194 202 195 186 170 141 118 128 107 93 117 134 153 155 142 141 139 138 147 150 155 157 156 155 155 158 155 154 149 156 151 149 146 138 131 122 122 120 103 112 132 68 51 84 109 104 111 122 111 29 82 107 100 105 105 152 135 131 159 129 136 133 139 131 136 128 138 162 179 182 181 165 161 165 165 162 164 160 168 165 168 171 166 162 115 118 136 130 143 151 151 169 195 200 195 189 174 152 126 124 133 88 109 128 154 162 167 157 147 137 138 136 153 149 159 159 158 159 161 160 172 168 165 158 155 144 129 118 119 129 102 116 130 76 48 80 97 95 110 127 112 24 100 97 98 106 106 124 153 114 171 134 128 152 145 129 133 123 134 156 167 170 164 157 155 163 167 166 167 170 168 170 170 175 162 126 124 139 126 131 157 153 157 173 191 199 196 190 179 160 141 128 119 121 90 121 144 161 165 167 166 156 150 150 146 147 157 158 165 161 166 167 169 174 170 162 158 142 129 115 130 130 95 119 123 68 57 81 83 89 108 127 106 41 101 102 104 99 101 116 152 120 144 170 86 156 158 137 132 130 135 152 162 158 156 161 155 160 166 165 162 166 166 164 167 168 125 122 144 132 124 147 159 159 169 178 189 198 190 189 184 167 145 145 127 130 114 96 141 152 165 169 167 169 157 160 157 154 157 161 164 163 165 164 172 165 159 163 155 143 121 120 140 112 101 117 117 72 65 73 81 86 101 122 96 52 109 92 100 105 103 100 154 138 142 176 122 87 168 159 134 137 144 145 153 146 154 159 156 154 158 165 154 162 160 163 159 125 123 148 142 117 136 154 164 166 177 185 194 196 191 188 188 172 157 136 143 131 145 110 107 160 161 168 168 170 164 162 168 160 161 165 155 156 161 160 163 153 148 155 146 139 120 141 138 96 115 111 122 93 75 79 75 85 101 122 87 67 108 93 96 103 106 85 142 164 126 165 133 124 105 140 171 152 146 142 141 146 147 156 151 153 157 162 162 156 156 144 122 139 147 148 124 116 147 158 164 159 183 193 197 196 195 188 190 177 161 137 128 130 133 152 121 114 171 164 166 160 166 164 165 156 162 163 154 156 153 151 156 148 146 149 150 128 138 154 109 111 112 108 123 117 86 84 87 88 110 122 73 91 98 95 97 99 94 84 125 173 153 155 131 111 136 126 106 173 171 159 137 143 145 148 150 155 164 172 172 156 133 131 144 153 144 127 113 125 159 161 163 162 181 193 199 196 191 190 186 172 160 143 128 130 133 137 161 124 118 171 163 156 159 157 161 155 152 154 151 149 146 146 147 133 135 143 143 149 164 123 109 122 112 103 123 132 93 88 90 97 115 107 78 98 97 96 97 96 93 74 112 172 182 151 117 116 127 133 133 105 96 143 173 194 198 194 182 171 161 157 144 134 147 148 146 139 131 108 112 147 164 159 160 166 183 196 197 193 188 187 181 170 162 151 127 138 132 132 143 155 136 113 167 176 156 162 154 156 148 147 146 148 150 146 141 137 138 151 175 178 129 115 122 117 114 104 125 130 100 83 86 113 121 94 80 111 81 95 92 93 96 94 93 162 179 167 115 113 128 134 137 139 127 110 115 120 131 138 145 145 148 148 147 148 142 142 139 126 119 100 128 158 167 159 159 165 185 198 193 188 186 181 174 164 157 154 129 145 151 133 127 137 145 147 121 142 174 174 160 155 143 141 143 146 146 148 143 160 178 199 177 131 127 122 122 115 113 107 121 126 102 79 95 117 111 84 103 96 86 91 88 94 93 87 99 148 173 174 124 107 128 134 132 144 134 128 121 134 133 140 140 144 146 145 140 140 130 132 132 117 106 103 148 161 168 160 152 169 181 199 191 181 184 177 166 159 155 152 135 147 162 141 116 125 133 138 137 134 125 139 176 202 195 187 176 171 169 179 178 198 182 148 122 138 127 124 120 119 109 103 123 121 96 86 108 118 104 94 107 90 85 92 86 91 89 88 94 136 158 173 129 113 123 127 130 139 126 122 118 122 134 127 130 131 134 133 131 127 127 121 116 111 107 126 154 164 167 153 156 163 186 190 185 176 183 170 163 147 150 150 137 142 153 151 113 114 124 123 126 135 137 128 113 108 117 135 140 143 137 132 122 124 130 138 132 129 121 120 120 112 112 104 114 123 123 114 124 118 95 103 97 85 83 90 91 86 86 101 86 121 147 161 130 116 118 128 128 137 118 117 109 117 127 123 125 127 122 126 125 119 123 116 114 116 116 136 142 158 157 150 151 155 171 178 172 175 174 167 155 146 145 145 141 136 139 141 120 100 116 117 120 126 129 131 127 127 130 128 121 123 133 140 141 138 137 139 128 123 119 123 114 111 113 103 121 131 128 111 112 97 105 108 84 78 87 86 81 91 88 98 91 104 133 156 127 115 121 124 123 133 122 114 110 111 116 121 122 120 122 119 119 122 123 122 125 132 137 128 111 126 131 136 132 145 152 163 163 165 168 157 146 136 140 138 133 120 115 122 111 89 104 114 119 121 115 112 122 127 126 128 125 126 131 142 136 135 134 129 129 118 118 122 113 113 108 108 124 122 120 101 96 100 113 102 69 84 81 84 77 87 86 97 100 97 99 129 127 111 123 125 120 127 123 116 102 105 113 111 118 116 120 123 127 134 139 135 145 151 157 132 85 74 83 102 112 123 133 139 151 150 146 134 121 112 115 107 104 94 90 98 99 90 101 113 117 119 109 113 114 116 122 125 131 125 139 133 138 129 126 131 116 120 125 117 110 116 112 107 116 114 123 115 115 116 109 73 82 76 79 76 80 82 82 102 99 101 90 102 123 117 118 127 120 118 122 117 103 102 107 111 113 119 127 136 138 150 148 160 158 162 161 162 106 70 49 58 98 105 117 119 126 131 121 109 102 94 80 76 60 54 65 77 96 98 108 120 118 123 117 116 118 116 122 122 135 130 135 136 133 129 129 123 121 119 119 114 114 114 111 111 117 119 123 124 127 120 87 70 75 79 75 83 77 83 77 96 98 102 98 96 119 120 119 126 128 115 125 115 117 108 113 118 124 136 138 151 156 156 158 163 162 164 166 172 154 87 56 43 63 78 90 93 100 98 103 101 94 69 69 57 54 58 60 95 115 108 118 131 132 132 131 125 126 128 124 131 136 137 134 128 132 129 124 127 119 124 118 111 115 112 111 106 119 121 123 124 135 106 72 73 75 74 77 74 77 79 76 101 100 99 100 93 119 114 124 127 129 125 120 121 122 117 123 127 136 149 150 157 167 160 164 164 165 166 169 168 161 113 74 71 55 60 67 67 70 75 85 90 80 67 79 79 75 81 102 109 120 113 122 137 145 140 138 133 139 131 133 128 133 134 125 125 124 129 126 118 118 122 118 115 110 115 108 119 113 124 120 122 124 95 55 76 73 71 73 74 74 73 75 93 103 94 99 97 117 119 123 125 135 126 125 123 126 126 131 135 141 158 159 159 168 166 167 164 161 171 169 166 166 138 116 91 75 69 66 56 61 62 79 73 74 78 92 93 94 111 117 115 125 120 121 137 150 152 144 140 140 136 136 134 123 132 127 124 123 127 127 109 122 108 118 117 108 116 108 123 114 121 116 110 112 72 67 68 74 68 70 76 71 69 78 99 96 98 100 90 113 124 121 131 136 136 133 130 132 131 127 142 148 154 158 161 157 159 163 164 167 166 169 166 159 163 146 134 115 90 79 61 57 62 62 59 80 93 92 96 113 111 121 123 126 126 124 128 144 151 153 146 141 137 136 136 128 129 126 123 127 123 117 116 115 118 114 116 113 114 106 111 116 112 107 103 74 63 70 67 66 67 71 68 68 68 74 94 98 94 96 95 110 121 122 130 138 136 136 136 134 134 136 147 151 153 158 152 154 157 162 167 162 161 165 166 157 154 150 146 139 120 98 79 76 74 78 69 78 90 98 98 115 107 123 123 123 125 122 133 139 145 149 152 136 141 132 135 133 131 129 121 125 120 119 113 120 115 116 113 114 115 96 96 102 97 92 71 65 62 67 65 67 63 67 67 70 66 67 99 93 98 95 93 103 119 126 127 134 133 142 144 136 132 140 145 146 149 149 150 150 152 154 164 151 157 154 163 157 156 146 152 143 138 117 99 94 91 96 84 85 100 103 108 105 112 119 125 125 117 121 132 134 143 139 144 142 136 132 130 134 135 126 125 119 121 117 115 120 120 117 110 116 117 86 64 83 72 64 60 65 65 65 61 65 61 65 64 67 64 68 95 96 93 98 93 100 113 125 127 140 130 137 150 141 141 139 143 145 143 145 153 143 150 139 154 147 146 150 150 148 152 146 149 142 141 136 115 107 100 98 97 104 99 105 108 107 106 116 119 121 118 126 127 130 141 140 140 132 127 128 130 131 125 130 119 122 122 124 119 120 122 116 115 116 117 77 53 64 62 63 61 58 63 58 59 64 57 62 58 61 64 60 95 94 94 96 96 94 111 122 126 136 136 127 155 146 140 142 138 138 142 143 145 145 144 139 140 138 135 140 138 147 140 144 140 140 134 135 125 105 99 96 95 96 99 101 102 106 108 113 116 119 117 126 125 130 130 135 132 133 118 131 129 125 127 123 120 123 120 120 122 122 116 118 117 116 115 70 52 63 59 64 58 58 63 55 58 60 60 60 63 57 62 60 96 95 98 98 90 99 98 119 124 130 133 137 151 148 142 140 131 128 130 133 132 131 131 123 123 126 124 130 133 131 131 131 133 135 125 124 118 110 102 96 88 95 91 98 97 100 108 113 111 112 109 118 114 117 118 110 123 127 117 111 133 126 129 117 123 124 121 121 124 116 118 119 112 118 101 61 54 60 54 64 54 61 52 58 56 58 58 55 60 60 60 57 95 96 96 97 94 94 102 109 117 130 143 121 140 142 144 143 134 113 120 120 116 111 102 100 92 95 103 110 115 120 119 121 118 118 110 114 112 114 103 101 95 89 92 97 98 101 105 109 99 108 100 102 103 103 110 101 109 120 113 111 131 133 130 124 121 128 124 124 121 118 120 119 118 115 93 55 55 56 60 56 56 58 50 57 56 55 56 56 56 62 57 55 93 98 93 96 95 96 90 107 117 120 141 116 119 142 141 141 145 106 109 108 100 95 73 68 67 71 72 86 93 105 112 109 113 112 108 124 124 130 118 114 101 94 95 105 98 102 99 106 97 98 91 88 88 84 97 95 106 111 108 112 134 131 128 130 129 128 123 123 126 125 117 121 109 119 76 51 56 50 62 55 51 57 54 54 53 56 54 57 50 59 54 57 93 91 98 93 97 97 83 97 109 115 131 126 124 138 135 137 143 120 94 94 80 73 65 60 55 60 53 58 57 73 83 91 100 99 107 111 113 116 120 113 106 90 91 96 86 85 87 80 81 74 80 74 76 73 87 95 103 99 101 117 134 136 123 127 129 131 117 123 118 127 119 122 106 114 62 48 62 53 53 55 58 47 57 49 56 56 50 60 53 56 58 49 92 90 95 93 96 94 100 77 101 117 120 126 129 133 131 129 130 129 106 97 100 99 94 101 118 118 97 79 68 66 57 59 60 55 64 65 70 83 101 91 78 72 60 56 53 51 59 49 53 52 52 53 58 61 73 87 94 99 91 120 135 129 124 131 129 127 118 125 119 123 117 115 113 99 53 54 54 54 52 55 51 53 49 55 56 52 54 54 53 55 54 49 94 90 99 93 96 94 93 82 91 106 110 121 127 132 132 133 129 127 121 102 111 126 129 143 146 142 141 130 118 114 108 104 105 80 82 62 58 51 61 59 50 52 56 49 57 60 65 66 79 75 76 92 97 93 86 88 93 101 95 121 132 127 123 120 126 125 119 122 118 123 112 113 110 81 44 54 53 49 53 52 55 55 55 51 57 50 52 51 54 56 57 52 93 91 95 91 93 95 99 92 80 91 106 110 120 124 127 127 129 123 130 113 115 123 140 142 137 137 135 137 134 135 131 129 143 152 179 162 121 114 116 120 98 96 97 85 84 84 95 89 102 102 105 112 104 112 100 104 104 100 104 124 122 123 123 121 120 122 123 119 117 114 111 107 105 62 47 52 53 52 52 57 45 62 54 55 52 52 52 57 50 49 55 50 86 95 93 94 88 95 92 105 77 81 99 99 114 119 119 122 127 115 122 124 119 125 133 142 131 131 136 133 131 134 139 132 135 133 147 158 142 144 145 148 129 122 118 108 101 103 105 108 110 109 109 116 112 116 113 105 106 107 111 120 120 120 116 116 120 121 119 117 111 111 107 108 86 45 57 50 52 54 52 55 47 57 50 51 53 55 50 52 51 52 57 54 88 90 95 88 95 94 94 95 102 71 85 98 112 113 115 123 119 112 118 119 119 124 123 135 128 127 127 130 124 121 131 129 134 128 132 128 128 131 131 136 128 128 129 126 120 111 109 109 110 113 107 112 112 119 118 116 108 102 116 115 114 115 111 110 118 118 111 117 102 111 99 106 65 44 53 52 53 48 53 55 55 47 50 50 53 54 52 52 52 51 54 54 88 94 87 94 91 93 94 91 104 79 69 98 102 110 106 107 115 112 115 116 123 123 114 121 118 117 116 121 118 112 117 116 120 117 116 105 106 106 111 108 114 114 114 117 113 111 103 107 108 108 110 111 117 115 120 109 110 97 107 107 113 109 106 113 112 116 108 109 106 97 97 88 48 49 54 51 53 52 51 54 48 53 54 50 51 52 53 50 51 56 52 57 88 87 90 93 92 89 95 93 99 94 76 76 96 99 108 98 109 117 116 113 126 127 118 112 111 110 107 110 105 100 93 99 98 94 88 83 89 80 91 91 101 102 100 102 105 101 101 97 103 104 111 113 113 113 114 111 104 95 103 101 106 108 107 104 109 108 107 102 101 95 92 68 45 51 51 55 47 58 50 56 48 49 53 53 55 48 52 55 52 57 49 57 87 89 86 93 92 90 94 94 95 96 96 73 71 95 107 103 111 111 120 115 127 131 130 117 116 110 105 102 100 91 79 83 70 73 70 63 70 81 77 79 76 80 82 89 84 90 90 94 102 104 104 105 110 109 104 107 101 105 102 98 105 104 103 104 106 100 106 98 97 91 65 37 55 50 50 55 46 56 41 56 48 57 49 51 54 54 49 54 50 54 52 55 91 91 85 94 91 92 94 88 93 85 104 111 63 80 101 103 112 108 121 116 124 131 133 128 128 120 106 103 99 101 88 84 77 67 71 62 69 74 75 69 70 70 81 80 85 87 87 94 97 103 101 103 109 109 104 110 108 98 104 91 104 98 103 102 98 100 99 90 95 84 20 27 54 51 53 50 53 52 50 49 55 51 48 48 50 52 52 51 48 50 54 53 92 93 87 95 84 93 93 87 90 80 118 131 91 60 84 98 102 109 118 116 118 129 134 139 148 134 128 122 110 104 97 94 87 77 65 71 66 75 71 72 69 71 81 83 89 87 91 97 98 98 100 107 116 112 106 108 106 102 102 95 100 101 99 98 98 99 96 87 96 99 9 13 41 47 55 45 49 53 54 52 47 54 48 49 53 54 47 50 52 46 53 55 88 91 87 91 92 93 87 99 62 70 198 125 127 69 57 81 93 106 117 116 122 128 141 138 157 151 155 140 130 119 115 115 111 100 91 85 84 84 86 86 83 91 87 88 95 92 100 100 105 108 111 122 116 110 106 106 107 105 98 103 95 100 102 97 93 92 88 86 92 122 26 12 16 31 54 45 51 50 56 41 55 52 55 47 53 54 48 51 53 54 49 51 92 85 92 87 94 89 81 82 23 121 225 121 119 107 55 61 75 91 104 113 118 127 130 148 148 155 161 157 150 146 143 145 146 135 121 108 104 103 100 94 93 111 107 99 107 105 109 109 118 117 124 125 124 113 109 106 107 106 103 102 103 101 99 92 92 80 82 90 95 122 77 9 21 25 19 44 47 54 51 50 51 51 60 47 53 46 51 50 48 59 44 51 95 83 92 90 85 92 52 15 13 199 220 110 123 111 92 45 63 71 89 97 109 119 125 140 139 154 160 162 166 167 171 172 171 181 171 151 126 126 119 122 125 139 139 128 125 130 132 129 126 132 127 132 121 119 106 110 103 106 106 100 105 95 88 89 92 73 88 100 97 123 125 32 14 21 19 19 44 54 47 53 50 52 48 51 50 54 45 57 47 51 51 47 85 88 88 89 61 53 32 13 49 237 199 112 115 116 101 69 51 54 64 81 95 110 123 130 143 150 156 160 171 165 168 165 170 174 172 172 156 162 163 163 166 167 171 157 163 154 153 147 140 139 131 126 121 113 109 106 108 98 103 98 90 95 87 83 77 79 94 101 85 136 139 87 8 13 27 14 19 47 46 48 49 56 49 50 53 51 51 54 49 49 51 50 87 89 84 61 35 26 28 6 101 233 167 116 115 119 103 86 56 49 51 55 76 106 121 127 139 139 154 150 164 160 160 160 163 163 162 159 152 158 155 162 171 160 168 165 172 166 156 152 148 137 136 124 118 112 105 108 101 93 94 90 86 82 80 73 77 87 99 100 80 152 134 139 12 16 22 21 15 30 39 57 46 53 51 51 51 48 55 46 51 56 49 50 90 79 43 25 29 22 30 6 169 208 111 123 127 122 110 95 68 61 50 42 50 81 103 115 129 125 144 146 147 151 145 154 149 151 145 146 142 143 145 154 163 161 162 156 165 159 152 147 143 138 132 118 114 110 107 100 88 84 85 80 81 72 69 70 83 97 101 103 84 165 122 161 45 7 20 22 16 20 23 41 48 55 47 51 45 53 48 49 50 53 47 50 89 48 24 25 28 27 29 18 194 191 72 135 126 123 113 102 83 67 54 55 38 49 81 98 116 113 129 132 138 135 136 141 141 138 140 129 138 131 138 142 148 153 151 147 144 144 138 140 137 128 121 115 109 99 96 90 78 76 78 71 72 63 66 83 96 100 104 107 87 155 143 153 108 11 16 23 20 17 18 20 40 44 53 46 51 51 50 49 48 51 50 51 49 23 19 25 25 29 21 35 202 195 74 137 132 122 117 110 90 76 56 55 48 50 47 82 97 110 109 116 125 129 131 133 129 127 131 125 126 130 132 134 135 142 132 137 133 129 125 128 126 123 114 108 99 88 86 77 78 66 64 59 67 70 75 94 95 104 106 110 85 153 155 134 144 41 13 17 22 17 18 19 20 35 52 47 50 48 49 43 52 49 49 50 21 22 25 23 29 25 8 54 185 229 123 119 133 129 122 110 97 87 69 56 57 48 45 50 63 83 96 107 106 117 116 120 116 120 118 119 115 115 123 113 124 120 117 115 118 121 106 115 109 109 97 100 83 81 71 67 67 63 55 69 74 74 90 93 96 104 107 105 84 166 160 131 149 89 10 20 20 19 18 23 17 18 28 46 46 50 49 45 54 51 48 48 19 17 25 24 30 21 14 107 152 242 174 112 133 132 127 118 101 85 76 63 55 54 49 49 47 55 80 87 88 90 95 99 102 102 97 96 97 101 104 102 107 104 103 95 101 98 97 101 100 92 88 85 74 64 61 63 63 60 62 71 82 83 90 92 94 100 106 96 97 194 140 133 143 118 14 15 27 15 21 18 17 21 18 32 36 52 50 49 49 47 52 47 22 23 23 26 27 17 25 158 122 219 220 114 131 129 125 122 111 93 84 74 54 54 54 50 48 47 47 55 63 72 68 76 72 81 75 70 80 72 82 89 86 81 86 86 86 74 82 85 82 82 72 61 67 51 60 60 62 71 70 78 88 88 88 102 91 101 110 85 132 203 122 144 132 141 25 7 22 17 20 20 15 22 22 17 22 31 44 45 50 51 46 52 19 19 28 24 29 9 50 183 121 180 236 158 119 131 128 126 114 99 91 82 66 59 58 52 49 55 47 47 47 53 48 58 53 57 60 55 66 50 64 64 68 64 66 64 74 60 72 71 70 62 59 54 61 59 58 64 72 74 80 80 87 91 96 103 98 104 101 85 175 185 102 154 124 151 42 7 18 19 14 27 14 28 19 18 20 22 24 28 42 45 50 46 17 31 16 30 21 2 97 179 152 132 225 207 115 136 133 122 121 103 96 87 73 66 57 51 51 52 52 48 54 45 44 42 51 47 53 47 50 50 50 53 52 45 53 55 49 55 50 55 50 46 58 59 62 65 65 70 77 77 74 91 90 95 97 98 101 107 88 106 202 151 115 156 123 154 39 13 14 20 14 24 17 23 20 21 18 19 20 25 18 35 45 48 