P2
92
112
255
104 105 102 106 99 106 105 105 105 105 110 107 106 106 111 109 106 109 106 107 102 104 112 115 141 148 162 173 179 176 181 180 182 183 184 186 180 183 184 182 182 180 186 169 177 175 172 173 168 161 175 167 156 158 151 131 110 106 100 98 110 110 118 113 113 114 117 111 114 117 113 116 113 114 116 110 115 114 113 114 117 115 112 114 113 116 111 116 114 113 115 113 102 106 100 106 106 102 109 103 109 99 109 108 104 109 112 105 111 109 101 105 108 112 136 155 158 174 172 178 182 185 185 186 188 184 187 185 184 185 186 185 187 183 186 169 176 176 180 166 168 169 176 174 163 159 163 154 136 127 122 106 98 106 114 117 116 112 117 114 116 114 116 110 117 115 114 112 115 114 119 113 115 115 115 116 113 113 117 115 111 114 114 114 103 104 103 108 107 102 108 102 108 102 107 105 108 105 109 109 106 105 109 120 139 148 165 166 168 182 184 183 186 188 190 188 193 191 192 189 188 185 186 188 188 190 175 162 174 164 172 168 181 173 177 174 160 161 162 160 159 156 145 129 122 104 100 108 111 112 113 118 111 113 116 112 114 115 115 115 114 117 112 112 117 115 113 117 116 114 117 115 113 117 114 113 104 106 105 105 103 100 107 103 108 108 107 105 111 109 108 105 105 117 138 154 164 165 176 175 181 185 184 188 191 190 191 192 193 194 194 193 192 188 181 184 185 187 172 160 169 171 172 173 182 176 178 182 177 164 169 169 173 170 158 146 146 137 107 88 92 118 112 116 113 117 112 112 114 114 113 113 110 114 113 114 118 112 115 116 116 110 117 111 112 117 113 118 100 107 104 106 106 106 103 105 107 102 110 109 109 103 103 112 132 153 168 168 174 184 180 182 189 190 191 192 198 196 194 198 196 197 198 195 192 190 190 187 187 185 185 179 168 176 177 182 182 184 179 183 188 179 175 179 177 178 174 159 152 149 137 119 86 99 114 113 113 111 112 113 112 117 110 118 113 117 114 115 115 113 115 117 112 115 115 115 118 113 115 115 102 105 104 107 103 108 105 104 106 107 107 110 106 100 104 158 161 169 174 179 182 186 183 184 185 194 194 196 197 197 200 200 200 199 198 196 194 192 190 191 188 187 188 184 174 186 182 185 183 187 185 187 188 186 181 181 182 181 176 169 161 153 150 131 122 90 88 112 108 108 110 112 112 114 117 114 118 115 118 113 115 114 119 115 116 114 115 114 113 116 112 117 107 103 99 101 104 102 107 102 106 106 104 105 102 123 159 169 173 173 181 181 183 188 189 182 191 191 198 201 202 202 204 206 204 203 202 196 194 196 191 192 191 192 188 190 186 190 188 190 187 188 190 186 190 186 184 185 185 178 180 174 169 171 158 155 134 113 93 87 96 103 102 103 117 111 114 114 113 114 112 116 113 118 110 113 111 118 114 115 116 114 110 113 103 104 100 103 106 101 110 101 103 104 102 105 121 160 167 174 171 181 180 185 186 189 190 190 190 194 197 202 205 207 207 211 206 204 202 196 193 197 192 192 192 195 191 190 192 191 190 191 190 190 190 185 193 186 185 186 183 179 181 174 174 169 167 161 143 131 111 100 84 94 82 94 111 111 114 116 114 115 115 113 114 119 114 111 115 113 117 113 115 116 110 116 101 105 105 106 102 103 103 108 106 99 109 129 157 169 173 176 178 182 185 186 188 191 190 192 192 197 198 204 209 211 208 210 205 203 201 195 197 195 195 197 192 197 194 191 191 192 194 193 193 192 191 188 188 188 185 180 184 182 180 176 176 173 170 165 164 142 130 96 92 77 76 70 84 103 106 113 117 110 116 115 113 114 118 110 114 116 111 116 114 115 116 115 102 102 105 105 102 109 102 104 103 102 130 156 169 171 178 179 183 183 187 185 189 189 191 192 196 192 200 208 207 205 209 204 208 203 200 198 197 198 196 196 195 196 194 193 193 194 194 195 190 193 190 190 187 187 186 180 183 180 179 177 174 174 167 170 167 155 143 110 83 85 73 67 67 79 92 94 110 110 111 111 112 113 114 116 113 112 113 119 116 118 112 112 104 104 101 104 103 108 103 101 103 125 160 166 166 178 183 182 181 186 186 186 189 192 191 193 192 200 199 203 202 202 204 204 203 203 198 200 197 198 197 196 197 196 194 195 194 195 194 191 193 189 188 190 187 185 184 179 179 181 177 178 177 170 172 163 166 163 156 127 97 74 70 74 55 61 65 73 84 92 98 111 103 110 113 110 115 115 111 115 114 112 117 113 103 104 104 103 105 103 103 99 114 149 164 169 176 181 184 184 184 186 187 186 190 190 191 194 192 198 198 202 202 200 203 204 201 200 198 198 196 198 197 197 197 198 195 194 195 195 195 190 192 191 190 187 189 188 184 180 183 177 179 173 178 171 172 164 164 167 157 138 107 75 66 59 75 58 52 61 71 77 70 100 103 105 116 114 117 113 112 114 116 113 120 112 104 104 101 107 100 107 90 113 142 164 167 173 179 182 180 183 185 188 191 187 192 190 192 190 195 195 197 200 199 201 199 200 200 196 195 197 193 201 198 194 196 198 196 195 193 194 192 187 190 190 189 190 187 189 183 177 181 179 178 175 175 167 169 163 163 169 162 151 118 78 57 60 60 81 39 48 63 62 56 85 99 102 110 115 113 115 112 117 112 114 119 112 101 103 102 106 105 92 80 120 155 166 172 171 180 182 182 188 183 189 188 190 190 192 189 192 192 197 196 199 199 197 199 199 198 196 192 196 193 198 198 193 195 197 198 192 193 195 190 188 187 190 188 187 187 187 182 181 177 167 177 178 174 169 166 165 159 162 167 152 120 83 55 55 57 74 60 52 61 59 76 60 91 112 110 112 114 112 116 115 115 114 113 114 104 96 108 103 94 76 97 152 155 171 169 174 177 183 185 187 184 187 188 188 191 193 193 194 193 196 198 200 198 198 198 198 197 196 193 194 194 197 197 195 194 197 196 193 190 194 191 189 189 189 187 187 186 184 182 177 182 167 167 175 172 169 168 165 160 154 159 159 128 89 71 50 58 60 65 66 69 54 49 47 65 92 108 109 114 112 116 114 116 113 119 112 102 98 102 97 75 59 134 151 161 166 171 174 174 182 184 184 185 190 189 188 190 193 194 195 197 192 199 199 197 198 200 197 197 196 194 196 194 195 196 192 193 198 194 194 191 194 190 191 191 187 187 182 187 182 183 181 181 179 174 176 172 169 171 165 163 152 157 158 140 103 78 56 54 57 58 60 64 61 50 38 51 70 97 112 115 107 119 112 115 116 115 116 104 101 95 74 62 98 152 153 163 166 169 173 176 180 181 185 184 188 192 190 189 194 194 193 194 198 197 201 198 200 199 200 197 198 192 195 194 194 193 193 194 194 194 194 192 194 190 189 192 184 186 184 186 182 180 181 174 179 175 178 174 172 173 165 165 155 152 158 154 128 92 57 77 45 54 66 61 56 57 41 42 46 82 109 114 117 113 117 112 115 117 115 100 101 87 59 62 135 150 154 163 163 171 175 177 179 182 186 183 187 192 187 188 194 194 193 197 197 198 202 201 202 206 202 203 198 199 193 194 194 193 193 195 195 196 195 193 191 195 189 190 184 184 182 185 183 184 178 177 175 170 171 177 173 170 164 162 152 145 157 159 142 110 64 75 74 49 53 65 56 55 44 40 33 56 102 113 115 113 114 116 115 117 117 96 86 70 49 96 140 150 154 162 162 176 178 176 184 185 184 186 188 187 184 191 194 195 195 196 201 200 203 204 205 204 206 202 201 200 196 193 194 192 192 194 197 196 194 193 188 191 191 186 188 183 184 181 181 180 180 181 173 170 173 172 167 168 161 160 151 152 152 160 153 129 78 66 77 74 61 47 58 60 49 33 29 48 73 105 114 113 113 114 115 115 116 93 80 49 62 116 148 149 157 162 166 175 180 176 180 186 180 191 186 187 187 193 194 198 197 200 201 203 202 207 208 207 205 209 203 205 200 197 198 195 195 195 198 197 194 194 189 188 187 188 188 184 183 182 179 180 183 179 171 177 172 171 169 164 154 154 151 150 151 155 155 139 105 55 81 74 69 52 55 60 51 31 28 37 49 97 116 114 115 116 115 115 115 86 76 38 89 136 144 149 157 161 165 173 175 178 176 181 185 186 190 187 186 192 194 201 200 201 201 204 201 202 207 205 207 208 206 204 202 197 199 197 199 195 197 197 192 190 191 189 184 183 183 187 180 184 179 181 182 178 175 175 175 175 170 163 158 147 147 143 155 151 153 142 124 69 82 80 71 67 42 53 57 31 24 31 35 80 107 117 117 112 113 117 115 65 56 45 110 140 144 152 158 165 167 170 169 178 179 184 183 188 188 189 186 191 195 199 200 200 204 203 200 203 206 205 209 204 207 203 202 197 196 195 198 196 195 191 193 189 190 189 184 182 179 182 179 184 178 176 173 176 174 171 172 173 166 163 155 143 149 147 148 152 153 147 130 85 84 77 78 65 51 52 56 27 25 29 39 66 99 112 115 118 109 119 119 60 48 73 126 140 149 149 154 165 168 172 172 176 180 178 185 189 189 189 191 193 193 200 200 201 202 202 200 201 206 202 201 207 203 203 199 194 193 196 196 195 191 190 191 190 188 186 184 184 178 180 179 184 175 175 176 174 177 169 171 172 165 161 146 143 148 151 148 154 150 148 139 98 87 88 82 69 53 56 57 32 14 40 43 48 85 111 114 115 112 118 113 56 47 101 130 143 148 150 152 162 165 172 172 172 176 181 182 185 187 190 189 191 196 197 199 198 200 200 204 200 203 205 202 204 202 202 194 193 193 195 195 194 187 188 188 182 184 186 181 182 181 180 178 177 177 178 177 174 177 172 175 170 162 158 146 140 146 147 154 146 154 148 140 112 91 77 86 78 57 60 53 39 20 31 37 48 60 106 112 110 118 113 113 52 53 110 132 142 145 152 151 158 166 169 175 174 177 178 182 184 186 190 190 190 193 193 197 200 200 198 202 200 202 202 202 200 199 200 195 193 191 194 193 191 186 187 187 179 180 184 179 178 179 179 175 181 178 181 181 176 173 175 174 173 158 154 148 142 141 150 154 145 153 152 142 119 97 80 87 83 70 72 44 49 27 30 38 47 51 80 119 112 112 119 114 54 67 110 134 140 147 148 157 153 165 168 168 173 171 172 180 183 189 192 192 191 193 194 196 201 199 197 200 200 201 202 201 198 199 196 195 191 190 193 193 190 186 186 185 181 184 179 181 180 179 180 179 182 180 181 182 179 176 180 172 171 153 151 150 143 142 146 157 148 152 146 141 122 103 86 81 87 69 77 52 48 40 23 44 41 41 74 111 116 110 117 113 49 76 124 127 140 143 149 152 157 161 162 169 171 169 176 176 179 183 189 188 192 190 192 194 196 197 198 200 199 201 200 202 196 196 198 191 191 192 194 192 188 186 184 185 183 182 181 181 179 177 185 183 182 182 182 181 180 178 176 172 164 150 154 145 140 143 145 154 155 149 146 139 122 113 87 69 79 68 57 65 42 53 22 48 38 30 65 105 116 110 117 113 41 93 120 130 137 143 147 152 159 157 158 167 164 171 178 173 174 181 185 190 191 188 189 194 191 195 196 199 199 201 199 201 199 196 194 195 193 194 194 193 184 186 186 184 187 184 185 181 176 180 184 180 185 180 178 183 177 181 176 170 168 155 152 144 142 142 144 150 151 147 146 137 124 111 96 55 76 76 42 68 60 48 39 35 38 33 50 96 115 115 115 111 67 99 123 127 136 144 141 154 155 155 158 161 168 168 172 174 178 178 181 186 187 186 188 192 191 194 195 196 200 201 196 199 199 196 195 195 195 194 198 193 188 188 190 187 186 185 187 183 179 186 185 184 182 179 181 182 181 179 172 171 162 157 147 143 143 140 147 148 144 144 144 131 127 108 107 48 65 68 43 63 62 61 41 35 36 37 55 88 110 112 120 112 52 105 123 123 135 137 148 150 150 159 156 164 167 167 171 168 176 178 178 186 188 188 188 193 194 194 196 198 196 201 198 198 198 196 194 198 196 197 195 192 190 190 192 189 191 187 187 187 184 185 187 188 181 184 183 181 184 179 169 170 158 151 144 142 143 141 146 143 144 145 143 132 119 116 106 66 48 60 42 32 55 56 60 44 37 40 41 91 102 117 113 115 38 103 121 126 133 141 146 151 150 149 159 163 164 162 171 173 177 180 180 183 192 191 189 193 196 196 196 198 197 199 199 198 197 196 198 196 198 200 196 191 192 193 192 189 193 184 184 188 186 186 185 187 186 184 181 184 179 179 172 166 159 147 144 139 138 141 141 141 140 140 141 135 114 113 102 83 62 42 38 29 42 37 43 52 46 40 30 79 107 112 110 118 42 109 116 119 137 139 143 149 146 152 160 159 164 172 170 182 178 183 182 187 192 195 192 189 198 197 197 198 194 198 198 197 198 196 195 197 197 202 197 194 192 193 192 189 193 182 181 188 188 189 187 183 186 185 182 181 181 174 168 167 159 154 142 141 137 139 140 137 138 136 125 127 121 111 103 79 74 48 25 34 28 44 32 34 45 43 30 61 104 109 112 118 56 108 120 116 139 138 147 145 153 154 162 158 167 174 175 178 181 180 186 189 192 194 194 193 195 198 198 194 196 197 194 197 197 197 195 197 201 200 195 195 193 189 190 190 188 189 184 190 188 188 189 182 184 186 184 184 180 181 172 167 159 150 143 141 137 135 142 135 134 134 123 128 117 114 96 84 70 53 35 30 30 34 24 34 37 43 27 61 98 107 110 114 56 108 121 117 130 140 148 145 148 159 160 164 168 170 179 179 180 180 188 186 190 194 194 195 196 199 197 197 193 192 196 197 196 195 197 198 200 198 197 196 190 187 191 190 189 187 186 188 189 187 188 190 189 189 186 186 183 180 175 171 157 151 139 140 138 138 135 135 135 131 126 121 120 112 94 83 61 58 46 27 38 32 25 30 35 41 25 51 101 105 112 112 60 99 122 116 131 137 145 148 153 157 164 162 167 174 179 179 180 182 184 190 187 196 193 197 196 197 195 195 191 191 193 196 199 195 195 197 200 194 194 190 190 184 188 187 188 186 187 190 187 191 189 191 190 187 186 185 186 184 179 176 165 152 143 136 136 133 131 131 135 130 123 122 116 105 94 71 60 59 52 45 37 30 32 28 28 46 36 31 97 107 111 105 68 88 120 117 130 138 143 153 153 162 161 167 170 174 178 180 182 182 180 186 187 190 192 195 196 196 193 191 184 186 194 197 197 193 198 193 193 192 190 190 185 183 184 184 189 187 189 189 188 190 191 189 190 189 184 178 188 179 183 177 171 156 145 137 138 131 130 123 134 126 126 121 111 105 92 70 54 66 50 44 51 28 42 40 43 49 40 33 98 107 108 112 62 76 113 115 127 140 142 152 156 163 165 173 168 176 175 179 178 176 181 177 183 185 188 189 191 191 193 191 184 189 193 195 196 190 189 188 186 189 184 185 183 182 184 179 186 189 185 184 189 185 184 179 179 180 176 168 175 174 173 179 169 158 146 135 140 133 130 121 131 129 127 118 111 100 92 70 52 71 58 38 54 38 33 42 44 50 55 26 88 109 107 106 60 68 117 114 126 133 140 153 158 167 167 172 172 172 176 175 179 178 172 175 180 184 184 181 181 190 191 191 186 186 194 194 188 187 185 179 184 184 181 179 186 181 181 181 179 183 179 173 175 173 175 167 160 166 167 167 171 165 162 160 161 153 152 143 139 133 126 126 125 127 129 123 108 106 87 66 56 77 65 36 54 49 49 39 54 38 54 33 61 107 108 108 62 63 108 115 119 133 142 156 156 166 171 177 179 179 172 171 182 176 173 174 179 181 180 175 180 187 190 188 185 185 190 190 191 185 184 183 182 181 180 182 179 182 183 180 174 165 160 147 152 151 154 155 152 156 154 163 163 156 158 154 151 151 151 143 140 130 128 125 125 123 125 120 125 102 91 62 55 79 68 42 51 56 48 56 53 59 42 34 49 94 112 108 62 56 104 119 121 131 143 161 167 169 174 175 183 179 163 163 174 174 173 173 177 179 180 177 180 184 185 186 184 178 188 188 188 182 178 183 180 177 184 180 175 167 165 165 152 147 138 127 126 131 133 131 136 149 150 153 162 161 150 147 150 147 137 144 139 123 124 126 128 121 122 125 123 112 87 65 51 68 54 54 56 52 48 43 53 60 55 29 38 75 105 107 55 41 95 116 120 138 149 157 170 179 171 167 175 178 169 164 161 175 177 177 178 178 174 178 175 179 181 185 181 173 179 185 183 183 175 178 172 173 171 170 159 149 143 138 134 124 116 111 118 118 119 124 126 132 149 146 152 146 143 141 143 143 136 136 144 121 121 127 124 124 123 125 125 114 86 61 52 57 46 50 56 50 55 47 50 53 51 38 22 62 97 105 67 34 87 114 114 139 143 151 149 160 152 147 150 156 154 153 149 158 165 169 172 170 175 173 175 172 176 176 173 169 168 177 178 177 174 168 169 160 155 150 140 128 121 113 109 104 102 94 101 105 108 123 122 124 130 137 133 138 142 137 135 140 131 132 136 129 123 128 127 119 130 129 129 115 76 65 48 49 54 53 49 47 53 54 42 55 40 38 31 29 97 109 52 34 72 117 114 131 143 144 137 141 151 126 131 128 141 117 123 132 138 146 153 161 163 173 167 172 167 171 172 163 172 173 174 169 174 162 167 149 143 138 130 117 107 100 95 82 97 96 96 104 119 125 133 139 143 140 136 132 130 124 127 123 131 124 124 125 126 123 129 129 128 128 129 116 87 67 42 45 60 46 39 50 41 56 32 48 47 29 20 23 83 111 45 25 68 111 114 127 132 135 135 132 124 119 110 115 111 109 112 116 112 121 130 136 150 156 159 161 166 167 166 159 162 171 171 166 164 161 163 150 132 125 119 107 97 91 92 86 96 105 115 128 140 151 156 157 152 147 146 134 136 124 119 121 119 116 124 122 120 122 131 137 132 130 129 117 100 81 57 32 46 45 56 48 40 45 42 35 41 39 22 56 96 106 47 24 57 113 110 121 124 133 128 123 126 122 104 102 105 89 102 102 105 104 112 119 131 141 149 152 156 163 166 161 166 169 169 171 168 160 160 140 127 113 114 100 98 94 96 100 105 115 130 145 165 168 173 167 166 157 151 143 143 137 127 125 116 113 117 121 120 121 133 137 135 132 135 121 97 71 64 39 36 49 56 40 40 44 38 30 39 43 56 82 101 105 36 26 43 107 111 120 108 123 130 120 118 123 106 103 97 90 89 90 86 85 88 96 112 120 132 137 150 161 169 174 174 174 182 174 172 168 152 137 124 110 102 93 95 90 90 81 82 81 93 116 118 121 125 124 133 130 132 137 144 144 135 133 123 113 119 116 122 124 129 139 136 142 130 132 100 70 49 40 48 53 44 40 36 35 44 67 83 92 73 90 95 102 46 35 25 108 108 120 103 111 126 125 119 126 121 123 109 112 104 92 89 76 82 84 90 98 104 120 140 159 172 178 184 185 189 185 183 170 153 132 119 105 93 92 87 85 63 64 70 87 97 108 104 88 103 102 106 113 111 91 118 132 141 134 126 114 119 121 119 119 128 145 139 146 133 132 111 75 42 47 56 51 48 37 43 72 104 116 126 129 127 97 97 105 54 31 28 103 111 106 105 104 121 138 137 143 146 152 157 152 135 119 102 94 89 81 83 75 75 98 120 150 173 184 190 193 192 191 187 177 156 130 115 97 86 85 80 60 69 67 86 73 60 51 72 41 67 49 69 87 93 103 94 90 104 129 137 121 117 121 117 125 128 144 146 141 142 133 114 81 54 61 51 52 48 39 85 111 128 125 121 122 122 131 103 97 56 26 24 111 116 93 99 106 131 137 145 149 145 144 149 138 128 108 94 79 79 74 83 73 71 66 92 138 169 183 193 194 193 191 187 180 153 131 107 90 81 77 71 74 81 62 95 99 61 55 55 31 54 44 63 100 82 70 83 99 86 98 107 118 120 123 121 131 132 142 144 149 142 140 113 89 71 61 55 49 43 58 99 112 112 104 96 78 76 110 110 94 60 29 26 115 130 84 87 116 129 137 133 124 113 96 101 113 115 110 87 77 58 64 54 48 73 60 52 110 161 177 192 195 195 189 190 177 146 115 107 99 82 92 81 86 72 74 117 134 83 71 72 46 74 65 90 128 107 92 100 92 103 99 99 106 119 123 133 130 138 143 146 144 145 145 125 95 89 61 64 48 54 50 95 104 90 82 73 45 36 64 121 100 74 38 19 109 135 82 75 118 132 123 102 99 110 99 95 79 70 72 61 50 58 63 69 59 62 66 46 71 154 174 189 195 194 189 194 170 138 115 106 103 101 104 81 68 77 89 119 139 122 78 84 59 83 85 131 137 129 129 130 130 136 125 114 117 129 139 143 140 140 142 144 145 143 144 133 111 91 65 68 55 59 71 88 92 96 104 97 71 32 54 119 110 72 60 32 104 139 97 77 126 114 82 93 97 74 84 71 50 45 44 33 49 34 59 72 66 67 74 72 59 111 170 183 198 194 191 192 163 126 119 103 110 121 101 69 89 99 125 137 153 163 158 149 136 130 145 144 145 144 147 156 157 162 154 147 140 150 152 146 158 150 150 146 144 147 140 139 128 101 63 63 54 68 93 84 93 114 124 121 92 48 45 124 113 68 74 32 108 138 105 98 113 82 74 86 77 53 99 104 54 54 41 28 60 44 74 93 73 70 50 63 60 91 165 184 198 197 193 194 152 112 121 102 109 123 100 93 112 123 135 142 144 152 146 148 150 137 150 154 163 164 159 156 152 153 154 152 160 161 166 165 158 155 154 156 150 148 139 145 133 110 79 59 34 72 96 81 95 117 128 129 99 44 53 128 108 85 88 54 103 130 118 110 98 72 70 64 49 71 107 131 73 68 64 65 63 74 101 108 94 87 71 84 69 91 153 186 196 202 195 198 157 109 126 126 111 113 117 117 120 125 133 134 142 147 150 156 163 162 171 170 174 173 164 158 152 161 171 173 177 172 177 179 174 168 161 155 147 140 137 134 131 124 83 59 48 82 98 91 102 118 126 133 111 37 64 134 116 106 84 55 102 128 126 117 97 66 69 81 93 103 109 119 120 88 91 105 115 127 138 127 124 112 110 115 87 96 143 188 197 201 198 195 168 116 123 141 125 122 124 130 142 136 127 123 129 137 147 151 156 164 162 161 160 153 152 146 142 151 148 161 173 178 177 183 176 168 163 161 154 145 136 134 130 124 88 66 44 84 117 98 107 114 128 136 121 35 71 137 111 111 56 40 111 140 127 136 121 87 99 110 118 131 131 133 131 140 143 148 133 120 112 106 106 126 137 145 121 117 133 184 201 202 198 198 173 132 125 146 145 136 144 142 141 145 145 140 133 123 117 115 113 124 122 128 131 141 146 159 164 175 169 170 166 172 168 176 175 176 160 161 157 144 131 130 129 123 103 60 58 106 131 111 107 118 132 139 128 56 67 145 108 97 67 20 104 142 133 130 130 123 120 125 128 132 135 126 128 118 127 120 114 105 98 114 129 151 144 146 140 135 132 169 197 205 197 198 174 142 123 146 153 153 156 166 157 154 151 157 156 158 158 160 152 156 151 155 154 164 164 168 171 177 180 181 184 186 174 168 170 173 169 158 157 141 131 125 130 125 112 73 78 83 120 114 103 112 129 134 138 66 70 142 113 75 56 29 105 133 149 142 139 138 136 120 128 143 148 150 146 140 138 129 115 111 129 147 142 139 139 150 161 146 127 170 197 202 199 193 175 153 130 141 157 168 163 170 182 170 163 158 160 157 152 162 157 166 172 172 173 180 181 185 190 193 190 189 189 183 179 179 174 168 166 162 152 140 133 124 127 119 107 111 100 48 70 93 97 102 115 138 145 86 76 141 103 87 50 24 102 140 147 151 151 144 145 130 128 138 135 144 134 121 116 115 121 139 142 151 140 140 147 162 162 144 131 170 193 202 196 194 179 163 143 141 153 174 163 163 173 183 186 180 173 169 169 163 169 171 179 180 184 191 189 194 193 192 194 186 191 185 174 176 178 172 165 159 152 134 132 122 123 121 110 122 103 55 58 84 88 94 109 134 147 93 82 137 106 91 67 21 97 137 146 158 157 149 139 140 133 126 123 120 113 118 132 144 152 158 156 143 142 150 169 171 162 140 133 170 190 203 199 194 184 171 155 145 152 170 164 163 167 178 192 193 187 195 192 190 185 188 189 193 192 194 195 195 191 187 188 185 188 190 177 178 181 174 167 157 156 141 134 124 120 124 107 114 125 78 49 78 79 94 96 117 147 100 86 135 102 94 110 23 79 138 154 156 153 138 140 142 140 153 151 157 156 165 167 168 175 161 160 149 151 169 179 165 160 142 133 173 190 200 199 194 186 181 162 152 160 158 156 165 167 176 187 192 191 196 199 195 197 194 192 198 195 196 200 195 191 184 181 185 188 183 173 173 173 177 172 159 148 149 134 125 118 124 109 106 140 105 56 79 80 81 97 119 143 107 93 134 93 88 135 66 60 144 148 149 152 160 148 143 144 154 163 164 168 166 163 161 167 159 161 169 176 183 174 159 152 139 140 170 186 201 195 194 188 182 176 162 162 165 161 162 171 178 185 191 189 195 198 199 196 200 197 199 197 192 194 193 191 181 180 182 184 182 166 165 170 170 173 168 153 148 138 128 116 123 111 105 130 134 86 76 91 82 98 127 142 101 106 130 91 79 125 95 47 139 148 151 164 164 160 162 159 156 178 174 172 166 166 165 171 170 179 183 183 179 172 155 150 147 153 172 187 198 198 194 188 182 180 173 161 162 169 164 171 183 182 187 191 193 197 196 195 199 195 196 196 194 192 188 190 185 185 186 185 183 171 173 169 166 168 163 150 140 139 128 118 121 116 102 127 137 114 82 87 92 101 124 139 94 114 129 84 83 113 124 68 124 147 155 161 170 175 178 176 172 181 187 185 179 182 177 181 183 184 187 183 179 168 155 149 154 172 183 189 196 199 193 190 184 177 180 162 150 155 158 166 176 182 185 188 192 193 192 193 197 193 194 198 194 190 188 181 189 189 188 190 183 175 173 172 165 166 157 142 142 136 129 122 116 120 109 124 139 131 95 89 90 104 141 132 96 128 122 79 82 90 152 95 127 145 157 154 166 173 179 178 173 182 184 185 183 186 185 179 187 187 188 180 177 168 156 145 158 174 185 191 201 198 195 189 180 178 180 173 149 150 155 161 165 175 177 183 190 193 190 192 194 195 191 191 192 189 186 181 189 187 189 187 185 179 169 173 169 161 148 137 139 143 129 121 118 121 108 118 135 136 99 93 83 109 143 123 99 137 107 79 96 73 137 129 124 151 153 160 167 171 179 181 176 178 185 184 183 186 184 181 187 188 187 179 179 164 148 144 165 172 183 196 200 198 195 189 181 178 179 173 160 158 157 163 156 159 165 169 183 187 188 185 190 191 192 182 186 189 188 185 183 185 184 182 182 176 174 168 163 161 147 132 137 135 129 119 118 122 108 110 132 137 110 93 83 116 139 111 118 131 98 74 96 80 113 148 120 151 153 157 167 175 177 180 179 179 181 181 183 182 181 184 182 186 182 179 173 155 146 144 165 172 185 196 198 195 189 187 178 174 177 173 164 167 166 168 164 153 152 154 169 175 179 177 186 187 186 181 182 184 188 186 181 177 175 180 180 176 172 159 160 150 144 143 137 129 133 119 119 122 111 107 130 129 113 96 94 125 136 114 123 137 72 79 93 90 79 144 133 148 159 161 171 170 172 176 178 172 176 179 183 181 184 180 183 178 179 174 159 151 144 150 155 169 186 195 196 193 181 184 175 172 170 170 170 161 176 164 169 151 139 145 145 151 167 165 181 182 175 172 178 180 177 178 183 179 169 179 172 171 167 157 158 154 139 142 139 129 129 128 123 120 113 109 106 113 130 123 122 137 124 109 140 117 60 76 93 95 73 128 128 157 156 160 164 172 175 177 173 166 173 177 177 179 181 181 180 178 174 170 155 141 152 150 150 171 183 194 194 192 179 178 171 165 170 168 168 159 170 166 163 157 137 132 133 135 148 156 163 167 168 166 174 172 175 176 176 177 159 174 167 165 164 154 151 147 143 142 133 132 135 125 125 123 114 110 116 120 145 126 120 118 103 129 145 88 64 76 94 89 82 102 135 147 152 160 163 167 176 169 173 167 171 171 173 179 172 176 181 174 168 166 148 136 159 150 153 169 182 185 193 188 179 174 166 161 165 164 159 157 157 152 151 150 129 115 130 133 133 134 140 149 153 158 164 166 168 171 170 173 162 157 156 157 156 147 148 139 138 141 133 130 130 127 127 120 117 107 126 133 130 123 110 108 109 145 118 74 64 72 85 89 92 86 116 144 147 150 159 167 166 160 168 167 169 168 172 169 172 172 175 174 167 156 144 143 159 148 143 161 172 174 183 180 178 172 160 158 162 156 150 144 142 137 137 135 123 100 129 141 137 136 126 140 142 150 158 163 156 164 159 160 151 153 143 142 145 144 142 135 133 135 131 138 127 129 120 122 117 107 121 126 126 120 121 117 131 140 99 60 69 66 88 90 99 78 106 138 144 145 151 157 160 159 158 163 160 166 166 167 167 168 168 165 161 144 140 145 156 140 134 144 156 167 169 171 173 162 144 143 136 132 127 119 109 111 107 112 103 102 134 156 160 150 140 133 141 142 150 149 153 152 152 151 152 144 139 131 132 136 139 126 129 133 132 134 130 129 123 121 111 113 111 125 124 119 136 135 151 132 77 52 72 68 89 95 93 78 107 120 140 140 144 144 151 157 148 158 160 159 161 161 160 170 163 161 156 145 137 132 135 123 110 129 130 143 161 153 157 136 122 113 111 110 85 76 69 71 73 91 98 109 133 165 168 165 159 149 135 138 145 145 151 149 150 149 145 141 138 125 128 126 134 125 129 129 136 133 137 125 127 116 117 112 105 126 120 124 138 141 156 117 58 50 69 69 88 94 88 87 91 119 120 131 132 134 142 151 147 148 152 153 151 162 157 163 157 154 152 153 148 103 101 94 85 99 124 120 133 136 129 119 111 101 94 85 58 60 64 59 59 95 111 108 124 162 173 167 171 164 157 142 141 141 147 145 154 154 154 158 144 132 120 124 124 125 129 127 138 142 137 126 130 118 121 107 112 113 123 133 135 142 154 89 46 56 66 62 94 88 94 89 90 101 108 116 118 122 135 138 145 145 144 152 149 157 153 159 156 151 153 155 168 115 74 59 62 81 91 99 105 111 109 111 104 85 74 75 73 87 83 81 86 113 121 112 124 157 169 166 167 163 162 159 145 133 135 139 151 155 168 163 167 159 138 120 125 124 129 137 140 142 137 121 128 116 119 106 116 121 120 131 131 135 135 65 49 57 63 61 92 91 87 94 92 91 93 103 108 113 123 129 135 142 145 144 149 148 148 153 156 152 156 160 161 167 115 60 45 52 65 70 78 79 85 100 94 78 76 72 85 93 97 104 115 122 123 127 125 149 163 160 165 157 154 152 151 136 119 115 134 142 162 158 164 166 160 141 128 128 133 144 138 147 132 127 123 125 114 108 112 116 117 126 129 126 96 51 58 61 62 58 91 89 88 95 79 107 80 87 90 105 112 122 124 134 134 130 138 145 145 148 152 150 156 155 158 168 148 76 46 53 49 52 62 66 65 88 94 77 71 74 99 101 113 119 121 121 123 124 133 149 156 158 159 155 149 151 144 144 128 104 100 121 143 147 158 162 156 155 142 127 136 140 144 140 136 127 131 117 119 106 103 115 115 118 117 97 69 47 63 55 57 66 91 92 90 90 87 101 102 72 72 86 106 116 121 123 126 122 127 141 148 151 151 150 158 153 155 164 151 103 68 68 62 57 54 47 55 64 70 66 70 84 99 98 110 117 116 123 119 129 134 145 146 151 155 151 147 154 148 142 141 134 96 85 125 135 154 164 149 151 155 134 135 144 141 138 134 132 129 119 117 107 83 95 97 96 91 61 50 53 58 57 56 58 86 90 93 92 80 104 114 91 62 84 97 110 109 109 109 113 125 141 150 153 152 151 148 154 155 160 156 127 92 79 73 62 66 52 57 60 66 66 68 83 96 102 109 111 116 115 122 130 141 148 144 151 160 154 146 135 132 129 130 141 123 79 103 138 149 166 152 152 151 140 142 143 141 136 139 129 129 120 121 109 67 76 70 72 54 54 58 56 55 58 54 53 93 86 93 92 76 103 118 116 83 66 102 101 101 100 88 112 135 146 155 148 153 151 147 148 151 154 148 144 123 109 89 70 79 71 77 72 79 76 78 89 93 110 111 112 112 118 124 130 140 136 143 142 147 134 130 114 102 109 110 118 125 99 93 131 147 162 157 156 146 138 138 148 146 140 138 132 127 116 120 111 58 50 53 60 50 54 59 51 59 52 59 62 90 90 87 89 90 84 116 128 111 83 97 108 99 87 100 142 152 153 145 141 136 147 142 143 143 150 140 144 137 125 108 93 87 82 89 89 93 91 92 94 100 105 105 113 112 120 116 127 131 126 130 124 122 116 105 99 90 93 98 103 113 108 95 137 155 153 154 153 147 134 134 143 147 144 135 131 124 116 121 109 57 45 54 54 59 57 52 59 59 51 59 62 83 90 86 91 87 89 110 128 129 108 99 126 108 102 144 150 144 148 139 135 129 136 133 134 131 140 138 140 134 136 122 110 99 90 93 92 98 103 95 95 102 96 104 101 107 111 118 121 119 113 119 109 102 92 78 79 67 80 83 87 99 100 106 150 159 155 148 147 141 131 133 146 143 144 136 130 119 114 118 107 51 47 58 54 62 53 59 48 56 57 53 60 88 87 90 89 87 84 107 124 142 127 111 138 127 138 159 140 138 132 140 132 125 115 121 120 123 125 124 129 129 130 125 116 108 96 91 95 97 98 89 95 95 92 99 100 104 104 108 113 106 100 102 95 89 70 63 61 66 68 76 86 102 105 120 159 158 154 147 134 133 133 129 142 147 135 135 124 123 108 119 99 51 49 55 59 55 54 53 56 53 60 57 58 89 81 92 87 96 81 97 122 135 134 117 138 142 153 149 127 128 126 125 124 111 93 103 99 116 109 113 118 116 117 117 111 103 97 89 90 96 88 93 91 89 92 96 98 100 99 102 99 96 90 85 78 66 65 79 102 104 104 110 98 108 113 132 163 163 158 144 128 127 129 134 140 142 130 127 121 116 111 116 95 52 47 53 57 56 53 61 50 61 49 58 56 84 87 89 88 88 85 91 122 129 139 129 140 149 150 148 119 117 113 107 96 92 77 77 79 87 90 96 96 98 97 101 100 91 89 88 86 92 90 88 94 93 89 98 97 100 93 90 78 77 73 79 86 97 97 107 114 114 118 121 116 120 120 136 163 161 157 137 123 125 122 130 138 134 128 118 118 115 102 115 96 44 57 51 58 56 54 56 56 53 56 51 55 86 87 89 86 98 77 96 105 126 137 136 134 147 140 153 124 100 90 86 76 74 67 42 50 57 65 75 65 76 87 74 75 79 81 80 93 89 92 86 92 91 86 82 85 69 78 67 84 88 104 116 120 125 116 114 121 132 139 140 140 147 138 141 161 158 151 132 117 119 118 128 128 130 116 117 114 105 107 114 81 45 53 52 56 58 53 57 48 55 55 53 57 89 86 89 83 93 87 84 105 125 136 133 135 139 134 151 149 109 85 80 79 72 60 38 47 43 44 51 53 54 65 64 65 71 71 78 84 79 81 82 74 71 75 68 74 78 99 111 122 127 137 141 139 137 131 124 135 147 159 154 149 147 140 138 159 151 144 123 118 118 119 122 124 121 114 115 110 106 104 109 74 45 54 52 54 55 57 53 58 53 58 55 58 92 87 87 89 83 92 80 99 118 128 145 118 132 123 146 156 137 104 88 88 85 75 57 65 67 55 57 56 59 51 59 54 66 71 68 84 83 80 76 81 87 86 94 106 122 128 142 144 144 145 146 144 138 140 131 145 153 163 160 145 150 151 134 145 142 135 117 109 111 115 119 119 114 107 113 104 103 101 105 65 40 57 53 52 58 49 58 58 52 55 52 58 89 88 79 93 86 93 86 82 109 118 142 131 112 115 126 147 150 134 120 114 106 91 80 97 105 103 108 111 115 106 107 112 123 124 136 144 146 130 115 113 111 105 117 123 133 138 147 147 147 142 146 136 138 132 141 147 153 151 150 140 152 141 146 136 135 128 114 104 108 110 116 112 107 106 107 98 94 109 98 53 51 59 46 54 59 53 50 59 56 57 50 57 89 88 84 87 90 85 91 85 83 113 129 138 106 109 112 140 144 160 149 148 140 130 125 132 125 122 123 127 134 135 137 139 138 142 154 148 148 140 135 126 123 122 125 131 131 133 139 142 144 139 136 130 132 132 141 148 150 146 144 147 152 142 140 137 121 120 112 105 103 105 110 104 107 102 100 97 94 107 81 48 54 57 49 52 56 54 46 58 56 58 54 58 87 85 88 85 91 85 89 94 69 104 119 141 119 97 93 131 144 146 138 139 145 153 151 143 136 124 125 123 128 133 141 139 146 148 153 146 143 140 136 124 125 125 129 129 123 132 129 134 135 128 127 130 134 131 140 141 146 153 149 142 144 135 134 126 115 109 107 99 100 101 108 103 101 99 94 93 94 101 83 48 48 57 53 52 56 53 54 55 52 58 52 55 81 83 91 82 89 90 85 89 80 77 114 129 131 92 78 107 131 137 131 124 139 143 158 143 134 121 115 124 125 125 133 133 129 140 140 131 133 129 123 123 117 122 113 118 121 118 120 125 118 120 124 127 129 133 136 134 146 154 144 133 135 127 126 119 111 106 99 106 106 103 106 107 99 97 92 95 94 97 82 46 50 58 49 52 58 50 58 50 51 53 57 55 80 86 79 88 86 87 87 85 89 66 87 110 133 96 78 76 113 125 133 118 116 143 146 146 131 119 113 111 115 113 120 121 115 120 121 116 112 116 111 114 110 111 106 105 111 115 117 115 116 116 122 124 128 128 126 141 157 152 147 135 129 125 117 117 100 99 106 104 107 107 106 99 105 95 94 95 87 97 84 52 52 53 55 50 55 50 58 51 53 52 56 54 87 85 82 87 82 89 87 89 89 90 61 91 114 107 76 70 88 104 122 114 110 128 140 146 133 120 114 105 103 98 103 97 102 95 96 97 102 105 107 107 103 103 105 103 101 109 114 114 117 121 123 125 126 132 132 154 163 159 149 136 120 121 119 113 107 98 108 112 105 108 100 105 96 104 93 89 79 97 91 43 49 53 56 47 59 50 55 52 51 53 58 51 86 81 84 89 84 87 86 89 86 96 70 66 87 106 87 72 62 78 107 121 100 112 132 147 143 131 111 108 106 93 92 90 88 86 84 89 98 93 96 104 100 102 109 97 94 107 112 117 121 118 128 122 130 134 145 163 165 161 142 135 130 117 121 113 113 110 110 111 114 103 102 102 104 97 93 84 78 103 94 47 50 48 52 51 54 49 47 62 51 54 52 48 83 87 85 87 84 86 89 88 90 84 95 67 66 87 97 75 62 56 80 106 104 103 113 141 143 135 121 111 107 102 100 100 94 93 96 86 98 94 100 100 104 114 108 110 104 117 114 116 119 121 125 130 140 147 155 168 162 164 152 131 134 122 122 120 113 116 118 111 115 114 103 103 102 94 94 81 78 111 94 48 49 51 50 51 57 49 52 58 45 61 56 50 82 84 85 84 88 81 91 84 88 84 91 96 61 55 77 90 73 59 58 83 98 102 103 124 140 147 137 125 112 103 108 106 99 100 104 101 100 108 107 116 123 119 114 111 127 125 126 121 120 132 137 141 153 161 163 166 155 158 144 139 129 120 120 127 118 110 118 114 112 110 106 106 98 92 88 82 93 112 98 41 50 47 55 54 51 48 50 58 48 56 56 55 84 87 86 85 85 83 91 75 92 87 88 95 87 59 62 77 72 76 62 68 100 103 99 117 133 149 151 140 130 111 112 110 104 111 107 109 114 112 111 121 122 116 106 120 126 130 137 135 140 149 154 161 163 168 166 164 161 149 145 136 125 120 120 122 119 120 117 114 115 104 110 105 102 85 88 85 99 115 102 49 48 48 49 56 55 53 46 60 52 52 53 52 85 84 86 84 88 82 90 83 87 88 86 83 99 85 58 57 74 80 74 66 93 104 106 113 122 143 148 157 151 139 116 123 114 125 123 124 131 118 122 125 114 122 123 139 159 164 169 159 163 164 168 173 173 170 170 165 157 148 141 129 126 110 120 119 115 122 117 113 108 106 106 104 92 90 81 96 98 113 108 44 49 55 49 49 55 52 51 55 55 50 50 51 85 80 84 86 83 88 89 86 88 89 88 86 90 96 82 55 58 77 85 77 88 101 112 109 119 135 148 149 156 157 146 148 139 147 145 154 159 153 155 167 152 155 158 168 173 169 174 164 173 169 170 170 172 165 163 158 152 145 132 120 119 112 107 117 111 115 117 105 104 108 98 101 86 89 88 104 96 111 110 46 48 51 49 51 51 53 54 56 54 53 52 50 78 88 80 88 81 85 87 91 81 87 94 84 89 87 96 76 46 64 80 86 89 101 101 103 111 128 144 149 156 160 161 161 161 153 154 154 158 162 160 167 168 162 162 177 177 175 173 168 175 169 172 167 169 165 164 148 152 134 121 113 111 110 104 112 110 108 103 103 94 101 97 94 78 89 98 102 103 116 106 55 43 46 57 48 52 53 56 51 48 52 49 60 84 81 83 89 85 82 85 89 83 88 91 90 87 90 87 97 66 52 76 87 94 102 101 94 107 119 132 142 151 156 163 157 156 157 154 153 155 160 158 158 163 155 161 174 177 177 171 165 169 165 165 164 163 163 162 148 141 132 117 112 107 109 109 112 105 101 101 99 95 97 94 83 84 90 103 100 103 116 113 47 35 51 52 46 57 49 51 52 48 54 53 57 82 80 81 89 80 85 80 92 84 94 85 88 90 89 89 94 100 61 58 74 86 102 95 91 100 108 125 138 142 144 160 156 159 153 155 151 151 154 152 153 150 150 152 158 166 166 165 165 159 165 152 156 156 147 146 142 132 121 118 107 102 102 109 102 103 86 91 102 96 92 87 84 89 94 97 94 103 105 125 51 10 38 54 53 55 51 49 50 52 59 42 57 83 83 83 81 85 83 81 89 83 87 90 84 88 88 86 95 97 89 55 55 73 93 95 87 86 97 114 130 133 132 162 147 150 149 148 151 150 151 144 144 150 148 151 151 158 157 153 153 151 157 151 139 149 144 135 133 126 117 108 103 101 100 103 98 99 91 91 91 96 86 92 86 92 100 98 103 108 91 134 108 6 16 43 48 54 52 51 49 55 54 54 54 82 81 84 84 81 85 86 84 88 81 91 87 85 89 92 89 83 104 81 47 59 80 86 83 77 81 100 110 128 124 136 141 143 144 145 145 135 143 145 146 144 144 142 139 146 146 141 139 140 143 139 129 141 136 124 120 110 110 98 93 97 92 97 91 92 85 91 91 93 87 85 91 96 98 103 109 105 96 118 157 44 2 17 34 51 49 48 55 47 49 52 50 89 80 84 82 86 85 83 85 86 84 93 83 90 87 91 85 92 94 100 56 49 61 74 73 81 61 76 98 117 120 120 130 138 136 142 145 135 140 143 138 139 138 136 134 137 137 131 136 141 127 123 124 127 124 122 114 103 96 91 81 96 82 97 88 92 84 85 92 90 90 88 91 99 100 104 111 114 99 113 167 99 16 18 19 34 47 48 51 53 48 56 49 80 83 79 83 85 83 84 91 86 87 86 85 89 81 95 86 88 95 99 80 44 48 66 66 72 62 53 77 97 105 117 123 121 123 129 130 134 129 135 123 126 130 128 123 129 120 124 116 129 123 105 119 110 108 114 103 103 83 85 88 90 90 87 83 92 88 84 90 91 88 96 94 99 100 109 113 116 104 111 164 139 50 7 20 23 21 41 51 53 50 49 54 85 81 81 83 85 85 85 85 89 84 87 87 88 84 95 87 83 101 101 84 55 50 55 56 63 66 55 51 70 88 116 113 112 111 114 118 124 121 124 115 114 114 111 112 111 114 109 108 109 101 103 104 100 98 100 92 82 84 79 82 90 88 85 83 87 86 86 91 85 94 93 93 99 102 108 112 119 101 110 163 139 118 6 20 24 19 19 44 52 51 53 46 81 83 85 86 85 84 86 84 84 85 83 92 85 88 100 62 75 138 104 93 69 47 56 51 53 67 52 55 55 54 85 85 98 98 102 106 99 108 100 97 106 97 92 94 100 90 89 94 90 79 89 94 79 87 82 77 78 71 80 80 79 85 81 71 90 87 88 91 91 92 91 98 103 96 105 115 117 107 96 176 134 165 13 14 18 17 23 22 44 49 52 50 77 81 87 83 83 85 85 85 82 88 82 89 88 88 88 25 88 184 107 98 82 49 58 50 50 55 60 49 46 47 63 69 78 83 91 92 86 88 86 84 86 93 73 80 89 74 75 75 78 75 77 76 77 69 78 67 75 67 75 83 72 84 80 73 86 85 90 84 93 96 91 101 104 96 106 115 110 111 97 173 140 166 71 7 18 23 22 16 22 46 53 52 81 80 84 83 82 85 80 87 85 87 89 94 88 62 69 6 129 211 115 105 91 65 51 57 47 52 50 57 49 51 38 47 51 69 63 69 67 76 65 64 71 67 71 69 71 65 60 69 66 64 61 64 64 56 66 71 68 74 74 82 87 81 83 85 86 90 90 84 94 91 93 99 105 100 110 115 114 115 91 173 157 142 141 29 21 17 17 25 14 17 54 51 85 83 83 86 83 82 80 88 84 88 84 93 68 26 35 21 171 199 120 103 97 82 59 53 53 49 56 49 53 54 46 43 41 54 46 53 58 63 56 59 61 57 60 63 58 57 53 59 56 59 48 56 56 57 75 67 71 80 81 84 80 82 86 88 85 86 90 83 96 94 103 104 112 107 105 121 111 113 91 186 156 138 149 76 12 19 14 22 18 20 28 34 