P2
92
112
255
108 112 110 113 110 107 114 115 112 112 111 115 111 115 114 110 118 116 114 117 117 112 115 117 118 116 112 117 103 98 108 109 114 122 122 133 141 135 129 149 151 153 158 160 162 163 165 153 152 161 151 152 148 142 124 127 122 114 104 107 113 109 114 115 120 119 121 120 119 121 121 120 122 119 121 124 116 122 116 124 119 118 124 118 119 120 123 118 122 119 119 122 111 110 113 111 110 110 111 117 111 115 111 116 117 113 113 115 115 115 116 113 116 114 116 114 117 113 106 109 103 105 125 132 148 149 142 145 156 152 155 161 159 166 169 168 174 169 169 163 169 165 162 163 155 153 149 131 138 120 115 112 103 109 111 115 119 117 120 122 119 120 122 120 122 120 122 121 120 119 119 118 121 120 119 122 121 117 122 122 118 121 120 120 111 111 111 114 107 114 112 114 114 113 112 116 117 109 113 116 114 116 115 118 113 115 110 113 112 97 102 115 133 148 150 157 162 160 151 154 157 158 160 167 167 165 174 172 176 173 170 171 173 168 165 167 153 165 164 153 147 134 129 125 114 104 112 107 110 114 117 122 121 121 121 118 121 120 119 122 119 120 117 120 121 117 124 120 120 118 120 122 119 119 119 120 111 109 111 111 112 113 109 117 110 113 112 115 115 110 116 112 117 114 115 117 113 117 105 103 98 115 136 155 159 162 164 164 163 165 164 167 166 172 168 172 179 175 175 178 175 180 176 174 178 171 174 172 164 168 165 170 162 144 142 145 129 132 117 104 104 104 112 118 119 119 119 120 121 117 121 120 120 120 121 120 120 119 121 121 119 120 121 120 122 119 122 118 109 113 111 110 112 114 111 114 112 110 115 111 113 112 114 113 113 116 113 116 108 115 98 101 129 149 165 165 164 165 167 172 169 171 176 178 179 180 179 178 180 176 177 185 179 181 180 178 180 175 176 173 173 172 172 168 162 150 159 152 151 148 136 125 119 97 85 101 125 116 121 119 122 120 118 119 119 122 121 122 122 118 122 121 124 118 124 116 123 120 122 123 108 113 111 111 112 111 113 114 112 114 110 115 113 115 110 115 112 112 115 111 103 98 118 152 163 169 168 172 172 173 175 179 180 183 184 188 185 191 185 187 188 183 182 186 184 181 179 185 182 183 180 181 174 173 175 171 162 151 158 156 164 151 145 145 145 123 98 73 103 120 118 114 122 120 117 121 119 122 120 124 120 122 120 122 120 120 121 121 120 119 124 121 112 112 109 112 112 113 111 111 115 111 111 114 116 115 108 109 114 106 108 93 109 133 156 163 170 170 165 173 173 174 178 182 183 185 187 193 190 193 190 190 193 189 188 187 187 184 182 186 187 184 181 182 172 163 175 175 171 153 149 150 154 153 136 148 155 135 132 98 89 107 119 119 118 121 117 122 120 118 119 120 122 118 122 118 123 121 122 120 123 119 121 121 110 111 113 110 112 113 112 109 113 115 112 114 116 111 110 106 105 87 80 121 146 158 168 168 168 167 164 174 179 180 182 186 186 189 193 197 197 200 202 197 201 193 192 189 185 186 187 187 188 189 187 181 180 171 170 174 176 147 147 147 143 152 147 160 152 144 129 140 117 90 101 120 120 119 119 123 121 113 121 121 125 120 120 118 121 124 122 122 121 121 123 120 111 110 111 111 112 112 111 110 113 107 111 103 101 101 86 79 74 76 124 150 161 165 168 169 167 169 173 183 186 184 188 192 190 199 199 204 205 206 205 211 203 199 193 191 189 186 189 188 187 189 186 182 184 180 177 174 171 157 156 148 152 159 158 163 161 155 142 153 145 122 90 105 115 119 118 124 116 118 119 119 121 120 122 121 122 120 124 120 123 122 120 122 112 110 112 112 108 113 109 106 115 104 99 98 85 66 49 37 89 124 149 153 162 165 163 168 171 175 179 186 188 186 191 191 199 200 206 206 207 207 209 207 206 198 195 192 191 187 189 190 190 189 188 185 185 184 181 177 177 173 168 158 164 162 167 167 161 166 157 152 158 144 124 94 103 120 117 121 117 119 122 120 115 122 121 121 118 121 123 120 119 121 121 120 111 110 113 110 115 109 107 112 108 102 83 70 60 44 32 80 137 149 153 159 162 167 168 174 176 177 185 189 185 191 190 193 200 199 204 206 206 205 206 203 202 196 194 191 187 186 191 189 192 187 186 187 189 180 183 183 181 176 180 174 170 168 172 171 164 170 165 158 161 163 143 126 92 100 121 119 121 117 120 120 120 117 124 117 122 119 121 118 120 120 122 123 107 110 114 106 112 109 109 109 98 89 71 53 37 29 73 130 147 152 158 159 163 171 173 177 178 179 185 189 183 194 195 197 194 199 201 201 200 202 199 200 199 195 195 191 174 181 191 188 192 190 186 186 190 184 182 185 186 177 181 180 175 174 179 175 168 169 172 160 164 162 153 144 121 87 93 115 116 112 118 119 123 119 122 121 126 119 123 119 122 123 120 123 111 109 113 109 108 111 96 96 80 69 51 44 26 50 127 147 148 154 156 161 162 174 174 175 178 182 185 187 185 191 196 194 195 198 198 199 196 199 199 197 196 195 194 191 181 184 193 192 194 189 189 191 189 186 188 187 185 181 181 179 183 180 181 175 175 171 171 164 166 157 158 146 149 115 64 85 116 114 113 116 121 121 119 119 123 120 123 119 123 120 121 125 111 108 116 111 103 108 91 72 58 55 48 49 37 106 144 146 149 154 155 160 163 174 172 175 180 181 182 188 190 192 191 192 193 196 195 197 196 194 196 194 193 193 190 192 190 190 192 193 192 190 190 191 188 188 186 187 189 182 184 183 182 184 184 178 175 174 172 166 165 161 160 150 145 148 91 61 94 106 108 111 122 119 116 121 121 119 122 120 121 122 122 119 110 109 109 114 96 88 74 54 58 44 51 34 81 140 143 149 152 153 154 161 165 170 170 177 180 178 181 186 190 189 192 192 192 193 196 195 195 193 194 194 193 193 194 193 192 191 192 192 192 191 188 189 191 187 188 188 186 183 185 184 182 188 179 179 175 173 168 169 164 161 159 156 149 144 137 75 45 78 94 105 117 119 122 118 122 121 119 125 119 122 120 123 108 112 107 88 85 61 45 53 42 49 44 63 127 143 140 146 149 154 154 163 164 171 175 175 182 182 183 187 185 189 191 192 194 194 192 193 194 193 197 196 193 194 194 193 193 193 190 191 190 184 187 187 190 189 188 189 189 187 185 185 184 185 180 180 173 173 169 172 164 158 157 156 149 149 152 124 44 53 66 76 96 116 120 123 117 123 121 121 119 116 121 122 107 112 106 88 69 59 45 47 45 47 51 100 140 140 143 147 147 156 156 161 168 170 171 181 183 183 185 185 187 187 191 193 194 194 193 194 194 194 196 194 194 196 193 192 192 193 192 188 192 186 188 189 187 191 189 187 189 187 186 185 185 184 182 181 177 173 175 169 167 161 157 154 154 150 147 147 81 43 49 68 76 93 109 119 116 120 122 120 122 116 118 122 108 108 94 85 74 58 49 56 56 56 78 127 139 139 143 145 147 157 155 161 169 167 168 181 185 185 185 190 189 191 193 193 192 196 193 190 194 197 197 196 196 197 196 192 192 194 192 192 188 189 186 190 191 188 191 188 187 188 186 184 184 183 175 180 180 177 170 170 165 162 160 152 156 148 144 148 118 41 42 72 53 69 81 95 117 115 119 117 123 118 120 123 106 100 91 88 72 49 44 60 60 60 106 140 132 143 143 148 149 157 159 162 166 173 176 180 182 183 187 191 190 189 192 194 191 194 192 192 193 199 197 198 198 198 195 194 192 192 195 189 191 188 188 191 190 189 186 189 188 189 185 181 186 181 179 182 179 176 174 170 165 161 163 158 150 150 141 145 141 65 25 64 64 55 62 69 92 118 118 116 112 121 121 123 107 103 99 88 67 52 50 59 49 70 130 141 128 143 143 148 149 155 160 161 170 173 177 179 177 181 187 188 191 189 195 195 194 195 190 197 193 199 200 199 201 198 197 194 192 197 192 190 192 188 184 192 188 187 187 186 188 189 186 183 182 184 182 175 179 175 175 172 164 161 148 162 152 149 142 140 152 103 17 55 69 60 52 57 82 113 118 110 106 123 121 121 105 99 95 83 50 64 58 50 52 104 140 137 129 137 148 148 153 158 161 161 165 174 176 178 181 180 187 189 190 193 198 196 197 196 195 198 198 202 197 202 203 200 198 197 195 198 190 194 189 188 185 189 190 186 186 187 189 188 186 186 183 185 182 178 180 175 174 172 165 167 151 157 152 150 146 136 147 133 28 46 55 69 56 61 72 104 111 105 113 125 120 120 107 97 75 60 57 57 60 47 69 124 141 133 128 134 145 152 153 155 162 160 168 173 177 177 184 184 188 192 191 193 197 198 200 199 196 198 199 200 200 202 202 201 196 198 197 198 195 193 191 186 187 186 187 184 186 186 189 190 188 183 184 186 181 177 176 174 171 172 168 162 161 160 155 150 148 144 139 142 57 47 47 61 70 60 50 90 111 116 116 121 121 122 99 95 71 55 48 62 53 57 93 133 141 130 127 129 143 155 151 154 161 164 169 171 175 178 183 187 184 189 192 194 198 196 202 200 200 196 200 201 199 202 202 200 199 198 195 198 194 193 191 189 182 191 188 185 185 190 186 191 187 184 179 188 181 179 173 174 171 172 167 164 157 159 155 154 150 142 132 149 92 61 56 47 63 62 38 69 113 114 122 121 120 121 89 85 70 57 64 62 56 75 117 138 140 129 124 132 145 152 152 157 159 163 172 171 176 180 182 185 186 188 191 191 197 197 200 199 201 200 200 201 199 201 200 201 200 200 194 199 193 193 190 191 187 190 191 187 189 190 191 188 185 188 180 183 183 179 177 172 171 170 174 163 160 153 156 156 150 143 128 143 121 70 76 42 64 56 48 45 103 122 120 120 118 118 89 88 62 68 54 54 51 87 123 134 140 129 125 131 147 151 149 156 158 165 168 170 172 178 182 185 184 185 186 189 197 199 199 200 199 201 200 201 198 201 198 197 199 199 198 197 192 192 194 192 192 190 193 187 188 190 188 192 186 186 183 180 179 180 179 176 169 169 171 162 160 160 154 152 150 140 128 141 137 79 72 64 54 70 58 19 91 126 119 120 120 120 92 80 52 64 57 46 55 94 122 136 136 127 122 133 147 149 148 160 157 164 170 169 175 176 177 182 182 184 188 190 193 193 202 200 202 199 198 202 198 200 197 196 198 198 195 196 195 195 195 194 191 193 192 190 192 189 186 190 191 184 184 185 175 177 181 179 171 169 175 163 162 161 157 153 141 136 131 131 143 100 69 69 67 65 56 19 64 128 121 119 118 123 87 78 55 62 55 51 64 90 129 132 133 127 123 135 146 145 150 160 158 162 170 169 175 171 178 182 183 186 189 185 187 195 195 202 200 197 198 200 198 197 197 194 197 196 198 196 195 196 195 194 192 191 192 193 191 190 188 188 190 188 185 185 175 173 175 176 172 168 166 164 160 163 160 157 139 133 132 134 138 113 68 66 70 64 61 27 46 130 119 120 122 123 79 66 49 71 50 65 62 100 124 131 136 126 125 132 147 146 154 158 161 164 167 171 171 177 176 183 184 188 186 187 189 192 194 197 201 196 197 197 196 199 198 196 196 197 197 196 195 196 196 195 191 194 191 194 194 190 186 190 187 180 185 179 181 173 171 174 172 166 164 164 160 157 163 152 137 135 130 134 139 115 70 75 75 67 54 38 41 119 126 119 121 118 73 61 63 68 46 45 68 99 125 132 128 127 127 128 144 151 150 156 159 163 166 164 168 175 180 181 184 186 186 185 193 193 193 197 195 197 196 200 196 196 196 196 198 198 197 198 196 196 198 197 190 194 193 191 193 189 185 190 185 176 181 177 182 173 175 173 171 169 171 164 165 157 160 154 131 130 134 134 141 119 68 65 76 76 62 27 39 118 123 122 119 115 68 52 57 57 36 40 63 108 127 126 127 126 126 129 140 154 150 157 159 164 163 166 169 177 179 177 182 186 189 188 193 192 193 200 196 197 196 199 197 196 197 196 197 196 198 196 196 195 195 195 192 193 192 192 189 192 186 189 188 181 179 183 174 172 174 175 172 173 169 165 163 161 158 146 133 129 135 135 138 121 83 55 68 77 69 20 48 114 125 119 120 120 45 48 50 44 26 51 65 102 115 122 131 126 125 132 145 151 159 159 160 162 169 167 172 175 175 177 186 190 189 193 194 194 195 198 199 201 197 200 200 200 197 199 196 199 198 194 196 192 195 194 194 196 195 193 190 188 191 187 190 179 183 182 178 179 177 178 175 172 176 169 164 165 157 142 137 122 140 134 136 127 84 77 44 81 77 23 41 112 121 120 120 119 34 42 37 35 38 57 71 96 105 121 130 128 125 131 142 151 159 159 159 167 170 168 175 178 177 183 183 192 190 191 194 196 193 199 200 201 197 200 199 200 198 197 197 198 196 196 194 195 195 194 195 194 194 196 192 188 193 187 189 186 182 179 175 180 182 183 175 173 172 169 164 166 150 146 134 129 135 136 130 129 90 84 43 74 79 44 26 112 120 116 121 119 47 36 33 28 49 58 74 93 105 124 127 127 131 125 146 155 155 157 162 170 170 173 174 178 181 183 185 190 192 190 194 194 198 198 200 201 202 199 197 198 199 198 196 196 200 196 195 197 195 194 194 197 190 192 192 193 191 191 189 189 184 181 179 181 185 178 171 175 169 168 165 160 148 136 133 134 133 139 131 123 90 84 62 55 76 65 22 103 122 118 113 122 39 35 31 28 56 57 70 94 110 121 125 126 126 131 145 148 157 160 163 168 173 173 179 180 183 187 189 191 191 193 191 197 196 199 201 200 201 201 198 197 197 198 197 196 199 195 196 199 195 197 195 199 195 191 194 193 191 191 192 186 185 185 182 186 186 177 169 176 172 168 163 158 149 138 132 129 131 136 136 119 91 73 67 55 56 65 23 87 126 121 112 118 34 29 26 44 54 43 67 90 112 121 121 128 124 133 147 144 158 162 167 169 178 178 178 183 185 187 189 190 192 192 195 193 197 197 201 201 199 201 200 195 200 196 198 196 200 195 198 198 198 196 198 196 196 192 194 192 193 189 193 183 185 187 186 184 184 178 175 173 178 168 158 157 147 133 133 133 133 133 129 124 83 73 52 51 48 56 42 82 125 119 116 120 44 28 28 50 52 58 62 87 116 115 123 125 127 131 143 142 161 166 168 174 176 178 181 182 189 186 187 189 191 192 192 192 192 197 198 200 197 201 201 199 198 197 195 196 200 196 195 198 198 193 200 199 195 193 191 194 193 191 193 182 187 187 190 184 184 183 176 177 173 166 162 152 141 132 132 133 133 128 132 119 89 68 37 41 47 38 43 83 119 119 116 116 61 30 34 60 47 62 53 82 117 119 117 126 124 133 141 147 164 166 172 176 176 180 182 186 191 186 188 185 189 193 191 191 189 193 194 199 197 200 199 200 198 193 189 195 201 199 195 196 200 194 197 198 197 194 192 192 192 192 191 186 188 188 190 187 181 180 180 174 171 167 163 151 141 131 126 134 127 129 122 118 87 79 36 33 43 39 31 86 111 118 115 118 68 44 46 61 49 56 33 95 120 121 121 121 121 129 144 157 168 170 172 179 184 181 180 185 191 191 190 179 186 193 191 189 191 192 194 195 196 196 197 202 199 196 192 196 199 198 198 198 199 196 197 198 196 195 190 195 192 193 189 189 188 189 188 188 181 180 179 175 172 166 163 149 144 130 127 129 129 127 117 115 78 72 49 25 28 40 24 68 113 116 119 114 71 56 65 53 54 42 42 104 121 123 123 121 122 134 144 160 161 160 156 162 175 182 174 177 184 186 186 176 177 188 191 191 190 190 194 197 191 194 200 199 202 196 195 197 200 197 198 195 192 196 196 197 198 189 189 191 189 191 193 191 188 190 190 188 189 184 180 178 177 166 164 149 138 134 124 127 128 123 117 113 70 65 56 30 23 39 14 71 110 118 115 114 72 63 57 53 54 37 44 109 121 120 125 122 121 126 143 151 151 160 154 148 155 165 157 158 164 176 175 174 169 175 190 192 190 190 193 192 194 193 198 199 202 197 191 198 202 199 195 197 193 195 194 194 190 192 189 193 189 191 192 190 188 189 191 187 189 184 179 172 174 171 166 147 135 131 125 123 126 125 121 114 58 65 60 38 28 35 13 55 115 116 116 116 75 63 51 51 44 42 46 113 122 122 120 126 118 123 135 140 145 154 149 151 145 145 143 126 132 143 147 144 151 161 172 182 188 189 191 187 192 190 197 196 197 196 188 197 199 198 197 193 196 195 191 191 190 188 188 191 188 184 190 186 183 187 186 181 174 183 174 164 173 172 167 151 137 128 122 119 122 122 116 105 57 41 55 48 32 26 17 63 123 121 112 116 75 59 49 54 35 33 57 116 121 122 119 118 115 126 138 135 131 142 144 144 140 139 134 122 122 131 127 124 126 130 148 160 172 182 185 185 186 189 188 192 195 193 183 189 199 195 195 189 190 190 187 188 185 184 183 190 188 177 181 175 166 169 170 164 151 165 165 157 159 155 158 155 138 126 123 115 121 124 113 93 61 33 42 51 35 25 29 92 120 118 116 112 82 59 52 59 27 32 58 122 124 124 116 120 115 126 142 129 128 162 178 177 167 117 114 109 102 126 125 84 151 138 122 133 133 149 157 139 152 179 160 167 171 171 168 163 169 189 186 184 184 184 180 178 170 176 165 166 163 140 122 107 99 113 124 145 148 151 155 159 152 149 141 143 137 125 122 115 119 121 112 79 56 33 54 50 36 22 66 108 120 116 116 115 78 63 45 50 36 26 68 125 122 127 122 122 110 102 99 92 106 129 143 149 144 128 138 132 119 114 112 100 113 121 118 128 122 123 113 102 100 105 78 124 141 138 137 140 123 152 162 153 153 147 142 129 101 162 196 155 170 169 149 112 184 194 199 186 154 157 133 153 149 147 138 138 128 128 117 121 117 119 115 77 46 35 61 53 23 27 89 114 112 116 116 118 83 72 42 43 36 28 71 125 121 128 131 107 92 93 113 130 131 127 130 148 139 138 146 140 129 117 102 102 91 89 104 133 138 149 150 149 153 142 146 79 146 165 154 163 159 161 159 143 102 97 101 100 100 99 126 108 105 107 109 72 98 138 148 159 153 139 108 106 114 122 130 134 131 127 112 117 120 123 114 79 51 40 62 56 26 26 94 117 113 113 116 115 77 83 47 50 42 22 77 130 128 130 110 95 117 115 111 125 119 132 142 147 174 191 198 183 161 164 147 135 110 100 112 160 162 158 184 189 170 163 172 153 93 204 185 179 185 184 188 115 105 147 139 135 136 127 125 109 95 98 102 94 109 121 131 142 143 150 152 152 140 130 119 96 110 119 112 122 119 116 121 78 48 35 59 47 46 31 101 112 117 111 114 118 112 97 67 62 37 23 86 131 137 118 108 124 129 113 103 118 126 135 149 151 156 175 171 172 166 172 176 158 129 146 200 209 202 133 168 185 170 154 172 184 85 197 192 181 183 196 172 92 154 173 150 142 146 131 124 105 96 96 98 101 107 119 121 124 127 131 135 140 144 145 145 132 122 114 90 113 122 119 115 77 42 43 45 47 47 48 92 116 114 117 115 115 150 130 114 92 34 18 98 135 118 110 128 138 125 123 106 110 130 140 141 142 128 129 123 114 117 127 129 116 82 154 206 225 203 109 91 117 132 143 152 179 99 174 190 181 167 192 134 78 167 165 143 131 121 118 121 118 116 125 142 151 150 156 158 149 147 138 133 132 136 134 140 131 123 120 125 96 95 128 111 63 40 45 39 41 36 65 100 115 115 111 114 114 133 116 131 121 75 12 92 131 104 111 134 139 125 127 117 113 132 132 110 114 104 106 99 78 70 75 83 80 70 104 140 151 119 101 103 87 96 126 147 164 98 113 130 136 127 185 183 105 165 151 126 109 100 136 142 137 111 116 134 142 148 172 179 163 157 150 148 141 125 123 128 123 123 117 122 116 88 93 116 69 31 42 44 37 30 88 104 119 116 112 114 113 86 104 99 97 61 16 90 147 104 102 138 136 128 124 114 115 122 96 92 102 87 95 111 66 53 61 136 69 39 99 102 118 106 101 101 94 71 96 145 164 80 127 163 156 133 143 120 87 167 130 103 101 87 108 120 113 98 95 108 99 138 208 216 187 143 163 175 157 133 126 124 122 118 119 131 117 53 86 91 75 49 30 43 33 44 112 106 117 115 115 113 114 46 77 87 58 46 33 35 126 88 91 140 139 130 132 114 109 99 86 90 83 83 141 149 58 82 60 82 95 53 147 130 104 108 113 131 130 83 72 142 118 99 153 176 174 175 190 134 60 148 113 101 106 102 106 101 107 106 66 64 43 103 164 206 179 103 112 130 141 141 130 127 130 121 127 135 121 38 68 93 46 49 48 39 31 70 103 110 109 115 114 114 118 63 72 72 68 30 63 67 113 51 95 145 137 131 139 128 107 101 100 106 123 114 138 160 93 81 84 87 83 108 188 159 173 175 81 113 150 111 76 124 72 123 184 197 190 185 186 149 59 122 122 123 127 117 111 94 139 125 72 58 116 105 58 97 119 95 111 114 102 137 128 119 130 126 127 137 118 36 21 120 64 52 39 26 56 91 116 112 120 110 114 114 121 81 90 64 66 35 63 93 114 62 102 131 141 137 140 140 128 118 125 116 133 152 154 155 162 129 101 109 126 150 157 141 127 172 118 126 131 138 110 112 46 148 197 196 198 191 193 163 70 97 153 156 124 108 110 111 170 134 53 85 58 108 74 70 148 120 64 107 102 97 130 116 125 128 131 139 125 30 30 105 208 78 38 98 117 124 128 132 119 115 111 116 113 95 119 91 67 31 78 97 106 74 114 120 140 144 149 145 143 140 140 136 127 133 145 156 165 157 163 158 164 157 139 143 137 143 152 157 153 132 137 82 98 158 191 200 196 192 200 161 95 61 163 150 118 123 110 124 146 161 104 79 76 87 90 130 157 138 101 85 96 107 104 114 120 127 137 140 129 20 28 91 134 30 67 134 141 132 122 118 123 114 111 115 116 104 129 124 84 25 83 97 108 80 122 116 135 147 155 158 145 149 149 148 141 148 151 149 151 142 147 149 138 133 121 129 130 147 157 160 158 143 121 71 122 157 186 200 199 193 198 158 121 45 126 153 134 127 125 134 148 166 178 142 130 124 143 171 160 141 127 121 106 109 103 111 120 124 138 147 130 13 75 145 135 23 78 127 128 108 91 69 86 112 113 115 114 109 126 132 95 28 88 96 111 81 127 115 128 151 160 161 152 153 153 150 155 159 159 163 164 167 164 168 160 149 151 159 164 161 158 162 165 143 76 64 124 149 182 200 199 196 199 161 115 65 127 143 142 130 126 125 134 141 152 151 152 160 146 158 155 141 140 133 136 124 114 115 126 124 132 138 127 32 59 111 129 34 52 101 111 102 83 73 65 115 113 114 113 115 128 123 102 26 86 97 115 90 122 121 132 147 159 167 159 158 156 160 168 174 174 170 173 170 165 168 177 174 175 166 165 158 165 172 159 141 76 73 129 149 165 202 203 195 204 156 143 46 104 137 135 137 142 143 141 143 151 157 158 162 154 161 161 161 154 146 137 136 125 125 122 122 121 124 132 61 45 116 138 52 38 105 134 127 94 85 91 120 112 111 115 118 127 120 111 41 77 93 119 95 121 124 128 145 164 173 167 161 160 162 167 176 176 171 176 180 180 176 186 171 166 155 158 162 177 170 149 143 82 116 115 142 162 197 204 195 200 157 137 101 79 150 134 136 143 151 165 154 146 155 155 155 159 164 160 162 162 149 142 139 138 135 131 124 112 123 128 76 44 115 147 40 34 106 146 136 93 86 104 131 101 115 115 117 128 114 106 52 73 101 106 108 115 120 138 138 167 175 176 174 164 165 168 178 169 173 169 174 168 165 167 159 158 143 160 177 180 154 121 139 113 113 131 140 170 194 202 195 199 161 127 120 124 126 132 153 150 151 163 160 163 165 159 157 157 165 159 167 161 158 152 146 143 147 138 126 121 128 129 74 88 129 132 27 53 128 153 140 89 79 120 125 104 112 111 115 129 107 95 72 68 113 84 128 103 128 133 134 152 169 174 180 175 167 169 173 167 167 160 168 156 157 162 156 160 165 176 178 174 117 112 145 134 118 138 142 172 195 200 195 198 170 132 117 142 124 81 156 160 156 154 154 158 165 169 165 157 159 158 156 167 163 157 145 155 153 147 141 121 129 129 95 131 141 109 20 92 149 153 138 85 86 130 118 101 112 112 107 133 105 95 89 85 110 80 121 122 119 130 136 129 155 171 181 184 179 162 170 175 174 170 166 165 169 174 178 175 183 177 176 138 97 141 140 137 145 139 140 173 191 200 195 195 179 144 120 129 149 85 116 178 172 168 161 151 149 157 158 160 158 159 156 168 169 164 166 168 160 156 148 126 126 117 128 142 157 60 49 132 158 151 137 79 102 136 106 101 109 110 97 131 122 99 101 93 95 106 81 145 126 132 131 132 142 157 177 184 176 165 169 172 177 178 176 179 179 182 178 182 181 183 151 100 124 147 129 137 151 142 143 171 188 199 194 192 183 157 129 129 125 141 54 174 178 177 177 171 162 165 157 161 159 163 163 170 172 171 165 174 163 154 150 130 119 109 142 147 145 43 99 144 152 148 137 80 107 136 102 104 108 110 94 116 133 111 109 105 86 108 98 92 154 129 132 128 144 149 163 173 170 163 165 172 174 179 181 183 177 179 182 184 184 168 100 133 147 130 133 156 158 140 156 174 187 197 194 189 186 169 139 141 126 135 140 71 176 177 181 179 175 172 171 176 166 169 171 173 171 172 171 167 154 147 152 123 111 117 156 172 84 80 130 133 143 153 142 78 125 119 103 98 108 110 93 105 142 116 108 114 87 91 126 95 109 161 134 136 139 149 161 167 164 169 169 173 177 176 178 177 176 177 184 188 155 104 147 160 139 127 143 161 148 154 173 184 190 195 196 191 185 176 155 139 137 127 163 111 96 185 185 177 177 170 172 174 169 173 170 170 173 162 169 156 144 147 139 124 113 129 169 144 66 108 127 133 146 152 133 84 122 122 93 103 102 108 110 90 140 122 112 113 85 95 111 134 109 100 182 154 144 146 155 157 160 168 170 169 172 175 175 171 176 177 180 144 111 150 163 156 128 130 151 157 142 164 178 189 195 197 196 192 188 177 167 140 132 142 132 175 117 105 186 182 180 176 173 176 172 176 171 166 165 159 164 158 137 143 136 120 117 151 172 85 98 122 125 129 144 152 125 92 132 107 99 104 103 109 123 87 122 136 116 116 85 92 109 126 132 126 119 154 160 158 151 151 153 159 163 158 168 175 182 175 171 153 120 138 165 168 158 139 121 140 154 144 152 163 178 190 194 198 197 193 188 177 167 156 120 135 154 142 179 137 97 168 182 177 171 174 169 171 170 165 155 153 153 145 132 135 129 125 169 173 104 104 93 144 137 128 150 158 114 103 135 94 99 106 100 104 139 104 110 142 137 129 82 91 105 121 128 133 137 126 117 129 173 174 179 178 183 179 186 181 169 144 135 141 156 165 175 162 140 133 128 149 152 147 152 166 183 189 195 196 194 190 185 180 164 165 131 126 137 163 151 174 163 88 139 175 171 174 166 164 166 157 150 149 148 131 128 140 152 190 168 102 126 107 97 157 145 134 155 150 100 123 119 100 95 102 103 99 139 129 88 108 155 146 90 91 105 112 122 132 143 140 136 125 95 108 136 149 154 148 139 131 146 153 164 170 170 167 163 154 130 129 138 151 148 149 151 162 179 192 197 191 193 187 181 173 163 167 141 128 127 150 164 167 155 166 127 110 132 167 174 166 153 158 147 150 152 158 173 191 184 142 100 123 135 95 103 155 136 135 160 132 101 132 113 87 100 100 97 99 114 143 122 99 134 145 95 93 102 112 124 136 139 140 143 138 145 147 149 146 154 157 156 161 161 163 162 169 167 160 157 150 124 128 142 152 153 150 147 162 184 192 197 190 190 187 175 170 162 164 149 141 132 135 155 173 167 155 158 157 129 117 113 144 164 173 176 175 168 196 171 121 111 134 129 128 124 88 118 157 126 143 157 113 116 133 95 94 97 98 97 100 85 149 135 129 105 108 98 97 101 113 128 131 143 143 147 137 141 143 149 145 157 154 153 164 163 163 164 163 159 159 149 149 129 125 147 154 157 150 146 163 185 195 195 192 192 185 174 164 157 163 152 141 144 118 148 169 170 158 155 158 153 154 148 131 106 116 110 109 113 134 128 130 134 144 130 132 119 76 142 142 132 155 140 106 136 109 89 90 96 100 94 103 65 134 138 144 125 102 101 96 102 113 129 135 143 150 149 148 139 144 149 156 151 161 155 162 160 158 161 158 154 149 145 150 137 124 148 153 157 153 144 161 173 192 189 195 191 184 169 157 154 160 153 140 145 121 131 155 160 164 166 161 152 144 152 153 145 151 143 146 147 141 139 148 146 137 128 129 109 81 137 131 140 153 126 117 141 95 89 90 95 95 96 97 57 113 139 137 136 114 96 102 102 115 127 132 132 148 139 143 134 143 148 154 149 159 152 154 158 152 159 152 154 156 153 156 125 117 137 144 149 140 133 154 163 176 186 192 191 182 166 150 152 156 145 134 134 121 120 148 154 167 169 163 153 151 159 160 157 152 146 152 154 153 152 149 147 133 127 126 97 79 158 138 138 145 112 133 118 90 89 95 92 93 96 94 61 103 126 125 138 126 94 103 108 115 129 129 134 152 129 138 132 139 144 147 149 150 150 144 154 152 156 159 159 168 161 164 121 105 106 110 116 118 116 129 153 157 168 183 182 171 143 139 134 136 127 119 127 111 123 142 155 163 160 158 153 150 154 151 155 154 144 154 155 153 148 139 135 130 130 116 100 75 172 143 118 120 124 148 94 81 95 91 91 92 93 95 62 75 122 124 131 127 98 104 103 116 132 126 129 144 139 139 137 134 144 140 150 150 148 159 153 162 166 170 170 174 174 174 132 101 88 76 63 71 98 121 131 146 149 160 163 144 127 123 114 96 88 90 98 106 134 147 154 159 164 161 156 156 152 153 155 155 149 153 155 146 144 139 131 127 126 112 99 90 156 134 116 126 153 113 81 87 94 91 92 90 93 92 69 58 101 116 123 124 98 105 106 111 133 128 128 139 138 136 141 134 141 140 149 150 151 164 166 169 175 175 176 173 177 175 156 138 86 73 58 34 50 98 112 123 130 140 138 134 123 104 75 69 71 77 80 121 143 145 155 159 164 162 160 165 159 156 157 155 146 151 150 146 140 138 135 126 117 117 94 96 148 123 136 138 146 86 87 85 92 91 89 93 92 92 72 71 64 88 107 109 101 109 104 111 127 131 131 129 140 138 143 145 141 149 149 155 157 163 175 175 173 178 176 173 172 179 177 164 133 85 66 53 52 50 72 99 103 106 119 117 100 81 93 94 93 97 99 144 145 150 152 162 170 165 161 167 164 158 151 155 153 144 143 143 142 133 132 126 120 111 94 101 144 128 138 144 117 78 81 93 87 90 89 88 89 93 67 71 66 65 81 74 92 115 104 110 127 135 136 133 135 138 143 148 144 147 153 161 166 166 173 180 173 172 175 171 174 180 181 167 165 139 106 76 69 56 55 57 76 82 93 96 87 101 110 104 114 124 126 147 147 153 152 160 166 167 166 163 165 158 147 151 151 140 139 142 136 129 125 125 118 106 94 109 148 133 139 141 102 75 85 92 90 93 86 88 89 90 74 71 70 72 68 61 86 114 109 114 126 134 137 136 140 137 149 144 147 151 155 162 166 169 169 178 176 173 170 168 176 182 177 164 175 171 151 132 105 92 78 66 56 69 82 106 115 118 119 128 133 133 138 148 150 148 153 155 167 164 164 165 166 156 152 150 148 143 138 148 134 129 125 118 115 110 90 115 148 137 128 132 81 80 83 92 89 92 86 91 92 89 70 72 70 66 76 58 89 115 109 112 126 133 142 138 144 140 151 145 144 150 153 161 161 170 172 168 171 174 169 170 172 179 171 166 170 166 163 166 155 129 123 107 99 108 113 111 124 124 125 127 134 127 139 147 143 145 149 156 161 166 167 164 159 158 154 152 147 142 143 138 130 127 122 124 111 111 90 122 137 127 129 102 82 81 89 85 90 91 87 88 91 92 64 75 65 68 76 58 80 118 113 113 125 139 143 143 145 149 149 149 146 148 154 158 160 170 168 160 166 169 174 170 171 171 172 170 162 163 167 161 167 159 155 136 134 132 134 129 128 132 137 131 132 128 138 149 143 147 148 150 155 161 166 164 158 153 159 153 150 139 138 135 132 123 127 124 108 110 94 125 126 120 105 80 84 88 87 87 90 88 92 84 91 91 72 66 65 71 72 57 81 107 114 112 125 130 143 141 151 155 155 150 146 151 153 155 157 163 157 156 159 164 171 165 161 165 167 168 166 163 167 165 158 162 163 155 146 143 145 147 138 141 144 134 125 130 139 146 134 145 145 144 153 153 154 163 154 155 155 153 149 135 136 137 134 127 128 127 107 108 91 108 104 95 76 84 84 86 89 90 86 88 90 86 89 86 70 69 65 68 69 61 77 104 114 116 119 135 138 136 149 155 155 151 146 147 151 151 156 154 157 152 155 152 167 161 153 161 162 162 164 167 165 168 160 163 166 156 150 149 143 147 145 138 139 137 129 130 136 144 135 146 148 140 151 143 149 154 152 155 151 147 145 134 137 138 138 126 126 125 110 110 92 69 83 78 84 82 88 83 91 87 88 88 92 86 90 85 70 66 67 69 65 66 61 105 107 117 120 134 142 126 136 162 160 154 148 144 150 151 153 149 153 157 158 149 162 154 145 154 155 156 161 155 157 165 156 156 154 156 150 146 135 136 138 136 132 128 129 136 137 136 141 146 148 141 140 137 141 141 151 154 145 148 135 135 136 134 134 128 129 114 115 112 84 63 78 79 82 84 86 86 86 86 90 87 89 86 87 89 68 65 67 65 72 64 68 93 104 118 121 128 141 135 129 158 166 157 148 145 149 147 148 146 150 155 154 152 151 141 146 143 156 154 149 153 147 158 143 143 148 142 145 144 137 136 133 132 130 127 129 141 140 132 134 140 138 140 133 121 138 138 137 151 154 146 130 136 141 135 131 127 122 119 116 107 77 67 78 85 80 86 84 82 87 87 84 89 86 89 86 91 70 67 67 62 70 67 58 91 102 104 120 124 139 139 133 159 162 157 151 148 140 132 141 142 147 142 143 147 133 131 128 132 137 147 142 144 144 143 138 134 145 154 156 153 146 135 134 136 134 129 132 136 135 127 134 123 128 135 130 125 129 132 134 155 160 146 133 140 142 140 131 127 126 122 118 100 70 71 77 80 77 88 89 81 87 89 84 89 86 88 84 86 63 71 67 64 68 66 56 80 96 103 112 121 141 147 110 143 156 154 151 155 145 118 134 133 134 129 128 117 112 114 105 115 116 122 133 136 136 143 141 144 153 151 161 156 154 150 136 146 137 130 129 127 128 127 118 116 118 122 122 127 130 126 132 160 160 149 136 140 143 133 128 134 128 116 114 93 68 73 81 84 78 84 84 90 88 86 90 85 90 82 92 86 66 68 66 65 68 71 61 72 86 100 108 118 134 146 115 128 155 151 147 156 158 115 118 125 121 116 107 96 81 79 79 81 93 87 104 114 114 121 121 130 130 130 141 148 137 140 121 120 110 104 104 101 98 107 104 104 114 114 127 127 129 120 132 158 164 142 137 142 144 131 130 131 129 124 104 90 64 76 81 79 85 81 86 86 85 86 86 88 87 83 86 87 66 65 63 67 68 66 63 69 71 89 107 111 125 138 127 130 149 147 139 143 160 132 108 121 121 111 103 111 116 114 90 76 77 79 75 77 71 62 64 69 77 79 101 115 102 84 81 71 70 69 69 70 73 75 75 81 91 93 113 124 123 115 128 164 158 143 132 141 138 129 133 130 127 114 103 76 69 72 80 81 85 82 86 84 85 88 87 85 88 88 82 87 62 65 67 65 67 68 71 57 68 76 95 112 121 132 128 135 144 140 142 136 152 139 117 123 135 141 136 148 154 149 146 129 124 119 116 128 120 117 109 104 100 92 89 98 94 88 97 93 96 97 98 105 101 105 103 120 129 111 114 128 127 119 132 161 153 141 136 132 130 135 131 124 118 114 93 71 70 80 83 79 83 84 85 87 86 85 85 81 88 83 86 87 63 64 68 65 68 64 68 64 66 64 87 100 112 119 125 135 136 141 140 140 140 155 130 121 136 146 151 159 161 150 146 150 145 142 130 130 139 139 154 157 146 139 144 153 135 120 126 111 111 111 116 117 120 122 128 136 144 130 132 138 132 124 139 150 150 137 138 133 128 138 133 120 117 105 85 65 77 78 83 81 83 82 88 84 86 86 84 86 88 85 85 86 61 66 63 65 70 64 69 68 68 59 76 85 104 107 116 128 131 133 134 142 139 141 148 131 131 148 154 155 148 138 154 151 144 151 155 149 141 148 148 159 162 151 157 169 153 145 144 143 136 133 131 137 130 134 134 134 140 135 135 133 128 133 143 145 142 136 127 131 128 129 125 116 111 99 69 73 79 77 81 85 81 83 85 87 89 82 84 83 84 89 83 86 63 67 65 65 70 68 65 67 64 68 59 80 89 108 109 121 125 126 135 135 141 132 139 143 136 141 149 152 150 144 147 151 138 143 149 154 150 152 152 157 158 155 159 164 157 159 157 159 152 149 138 140 135 134 130 135 135 136 138 136 125 137 148 142 140 133 121 127 126 123 122 109 103 85 68 76 78 76 79 81 83 84 87 81 84 85 85 83 81 86 87 84 63 66 63 65 65 67 66 68 67 71 61 56 86 96 108 119 118 120 132 131 134 131 134 138 138 136 137 145 143 137 142 144 138 141 137 142 143 147 148 136 136 136 140 139 145 144 149 140 146 145 140 136 134 132 131 140 136 139 136 129 124 131 139 138 131 127 122 128 121 121 111 106 90 71 75 73 83 80 80 81 81 83 83 84 84 82 82 87 85 85 84 84 65 66 68 64 65 67 68 67 66 69 64 61 59 91 99 104 122 108 114 128 130 129 127 138 140 137 133 133 136 131 134 131 130 130 122 126 125 128 128 119 116 121 124 127 127 138 130 130 133 133 129 131 129 127 132 138 134 134 131 123 124 125 135 126 129 123 120 119 115 114 105 97 74 73 74 75 78 83 78 81 82 82 85 84 85 82 83 85 83 80 85 86 62 70 62 66 65 65 65 69 67 61 69 85 52 65 94 98 115 113 105 119 126 135 123 131 146 136 137 133 134 129 127 123 125 120 110 106 105 106 108 108 109 121 118 117 117 116 118 120 119 121 120 128 131 127 126 134 128 134 122 117 125 131 127 128 125 121 116 118 113 105 105 77 69 74 77 75 79 78 77 85 83 79 81 82 81 85 82 82 82 81 82 83 65 61 65 65 68 64 64 69 62 65 58 93 97 50 68 87 102 114 113 117 118 127 126 128 140 147 144 138 142 131 131 125 126 126 118 118 107 108 106 111 109 108 111 113 111 104 114 118 119 124 123 125 124 128 124 132 134 133 122 122 126 125 122 120 121 116 114 109 107 99 99 46 45 72 85 78 81 79 81 83 82 79 84 83 80 84 80 82 82 85 80 86 61 63 67 65 68 67 63 69 69 63 50 94 116 72 39 71 92 105 109 116 114 121 125 124 129 144 143 149 148 145 141 137 126 131 124 124 120 114 106 107 105 104 107 110 111 110 116 122 122 126 122 128 123 129 125 134 137 136 123 117 126 120 115 113 116 113 111 105 106 91 97 25 5 38 83 79 78 78 82 81 86 79 82 80 77 86 82 82 81 86 80 81 65 65 65 65 66 62 68 66 68 62 27 78 113 98 46 40 73 92 96 109 112 116 126 114 130 145 151 152 164 165 156 159 142 138 140 134 133 128 120 116 114 113 118 114 115 122 128 128 124 130 131 131 131 138 139 151 142 135 117 116 124 112 112 109 114 112 104 101 92 78 102 25 11 11 60 76 81 80 80 83 78 83 82 78 79 84 79 82 81 84 82 79 66 65 65 65 62 67 67 66 51 45 8 77 113 98 74 40 52 71 83 89 106 112 123 119 127 144 144 158 167 171 172 172 157 156 161 160 160 155 149 131 122 125 126 117 118 128 140 139 135 141 143 140 148 143 148 153 142 134 119 120 112 110 111 113 114 105 104 93 70 74 110 35 10 20 11 47 83 80 83 78 82 79 83 81 82 79 83 82 79 82 80 79 65 64 65 66 61 68 61 66 26 17 5 80 104 103 77 58 38 52 65 74 86 99 112 113 123 132 139 156 155 164 175 174 177 177 178 182 181 183 184 171 154 144 142 139 138 160 169 158 158 157 160 159 158 148 155 150 143 130 117 114 113 107 111 107 107 100 95 80 65 84 108 80 9 23 18 12 51 71 85 79 80 82 76 85 79 82 80 81 85 76 81 84 64 64 63 69 64 64 39 26 29 4 52 112 98 102 87 69 44 46 46 62 60 82 87 104 112 128 133 146 157 165 171 174 178 177 177 180 179 184 186 186 180 180 179 175 181 184 175 176 175 175 168 174 164 156 154 146 135 126 118 112 106 103 105 97 96 95 76 60 80 98 94 122 41 13 25 18 18 30 84 83 79 81 80 83 79 82 83 78 85 80 79 82 60 66 63 67 60 35 26 23 26 3 99 148 87 105 91 80 50 46 47 51 58 53 65 87 99 121 127 138 148 159 165 165 174 172 175 174 174 183 185 184 181 180 181 178 186 187 178 176 172 179 168 168 167 153 156 136 130 125 112 110 101 95 96 92 88 83 59 65 92 92 95 132 96 9 24 26 19 8 45 69 81 83 82 80 82 80 81 81 83 80 80 80 65 65 69 47 25 17 22 22 21 12 148 171 79 97 95 84 69 48 48 50 45 48 46 54 78 106 121 126 147 140 156 160 162 168 167 166 168 169 174 174 174 172 169 171 183 185 181 172 169 169 159 163 157 151 144 137 124 117 108 93 85 87 88 89 73 60 58 86 103 77 116 121 148 37 7 25 20 23 14 21 67 86 80 78 84 81 80 78 81 79 83 80 65 65 64 23 23 23 23 26 15 27 182 163 79 98 94 91 75 60 47 50 51 45 50 41 46 82 100 114 134 131 139 162 148 151 160 158 163 162 167 160 157 162 160 165 172 173 174 169 152 152 153 149 150 142 135 127 119 102 95 82 75 79 85 72 59 58 76 96 111 69 134 126 147 93 9 13 28 19 22 15 30 58 83 80 79 81 78 79 79 79 83 75 68 58 32 16 19 21 23 24 10 47 216 145 82 104 97 95 82 64 60 46 52 48 49 40 41 53 70 99 119 129 121 140 137 146 148 153 152 146 155 154 154 155 157 161 158 157 160 152 149 148 141 138 140 132 130 113 107 90 75 71 74 73 66 66 52 70 92 103 115 67 149 138 128 130 37 8 29 18 25 17 21 21 51 83 76 78 78 81 80 82 77 79 58 31 16 22 24 23 21 25 6 74 229 132 86 104 100 98 90 71 64 57 49 49 50 42 49 38 46 72 88 108 114 125 130 132 145 144 146 146 150 153 143 145 148 149 144 152 143 137 135 137 135 121 130 116 111 106 92 73 65 66 68 64 64 66 62 84 98 104 114 68 158 161 116 142 75 5 25 20 26 17 23 19 18 41 76 76 78 77 83 74 78 83 38 24 19 22 20 23 26 13 4 101 222 150 81 108 101 100 92 85 68 60 50 53 51 46 46 46 46 45 48 81 108 110 120 112 123 130 132 129 137 137 129 132 136 134 137 133 126 124 121 121 118 111 124 104 102 90 69 55 65 66 63 65 72 66 80 95 96 106 115 64 165 168 114 134 111 17 18 24 20 22 21 22 21 14 35 68 74 79 78 75 78 81 19 20 23 23 25 27 24 6 65 111 200 198 84 107 109 102 98 90 75 69 59 54 53 47 50 50 50 43 42 42 68 83 86 96 101 105 109 112 114 114 115 111 119 120 118 123 107 113 116 103 99 105 101 98 79 56 52 61 64 62 67 71 69 74 85 98 100 102 109 73 188 157 112 121 135 28 12 22 22 25 16 25 22 22 16 28 46 65 75 78 76 81 18 22 23 21 26 27 26 4 102 110 172 222 107 105 111 110 108 92 78 68 62 58 50 49 51 47 51 48 52 39 42 52 58 69 80 88 88 90 91 92 96 96 90 99 98 101 95 93 95 87 88 88 84 64 51 52 60 67 63 74 72 72 78 82 94 99 95 103 93 101 218 134 111 122 141 54 11 17 25 23 17 23 23 16 21 22 26 23 45 66 72 77 23 23 20 26 26 27 20 16 131 118 134 229 159 86 117 113 114 96 88 76 69 62 52 53 52 47 46 52 50 49 42 39 42 44 51 60 63 70 53 70 74 76 68 77 77 73 69 76 65 69 53 60 50 48 52 65 66 62 72 80 74 71 82 88 96 109 98 110 69 143 234 96 125 116 141 85 6 16 25 20 20 20 24 17 22 16 22 23 25 23 35 62 27 28 23 24 22 32 12 31 135 143 99 220 206 93 111 116 112 106 97 81 75 71 59 56 53 48 48 54 48 54 49 45 50 42 41 42 44 46 40 45 48 48 52 49 51 51 50 52 46 43 44 48 50 62 65 67 71 77 78 77 76 77 92 97 103 110 106 97 70 195 207 80 142 111 142 97 8 19 23 21 21 24 23 17 22 22 16 23 23 24 20 27 25 25 19 25 23 32 12 45 136 159 95 183 241 149 81 125 118 109 102 86 81 74 66 59 56 51 49 55 45 55 51 42 54 44 50 42 45 41 47 39 44 43 41 44 42 41 42 47 47 45 56 69 69 59 73 69 74 76 83 75 81 87 99 101 108 100 106 86 98 222 152 95 147 106 144 106 7 25 18 21 17 20 23 18 25 21 22 16 22 22 30 20 