P2
92
112
255
111 112 110 112 112 109 113 111 111 115 110 112 113 113 117 116 117 114 116 112 119 118 118 114 116 117 113 120 115 115 119 112 112 113 109 111 104 96 108 106 102 105 111 124 132 141 148 147 157 148 143 144 137 135 137 132 128 116 108 109 115 117 114 116 119 121 119 120 123 118 122 122 120 116 120 120 118 123 119 119 121 117 121 120 117 123 120 118 123 118 121 119 108 114 110 110 113 110 113 115 112 114 109 116 114 115 112 116 115 115 117 114 117 116 115 117 117 118 113 116 118 111 117 111 108 108 106 105 102 101 110 125 129 137 144 155 154 156 159 158 160 160 156 151 148 147 147 142 140 135 127 123 113 117 114 114 116 121 117 121 121 120 120 122 118 120 121 119 119 125 120 117 122 121 121 119 118 124 120 119 121 120 122 121 113 109 112 110 112 112 112 114 113 116 111 117 112 116 111 117 115 117 114 114 117 113 115 115 116 117 114 116 114 110 111 108 102 109 106 125 131 129 144 149 151 158 163 162 161 162 164 166 160 157 163 166 146 154 149 140 142 139 140 142 138 119 123 111 112 111 113 118 117 120 118 117 123 121 120 120 119 122 121 117 122 118 123 122 120 118 122 121 119 118 121 122 112 111 113 114 112 114 112 115 112 115 114 113 113 114 115 115 113 119 113 114 118 111 117 114 118 113 113 112 116 105 123 121 127 138 148 152 156 158 160 169 168 170 174 167 174 173 175 174 172 168 171 165 165 165 155 145 140 140 145 138 144 137 134 128 118 108 108 111 115 122 122 118 118 123 119 125 121 117 118 120 121 119 120 121 120 122 119 120 121 121 120 121 111 107 115 112 113 112 112 113 112 111 113 116 113 115 111 114 113 117 116 118 113 114 115 117 113 114 110 121 123 139 150 149 147 149 157 156 166 164 166 171 175 173 178 174 174 175 178 179 174 170 168 162 177 176 171 158 147 155 151 142 148 142 131 131 137 130 114 106 101 119 119 118 120 122 120 121 124 115 119 122 119 120 121 121 119 118 123 117 119 119 117 121 111 109 113 115 113 111 112 111 115 113 110 118 112 115 115 110 113 115 114 121 110 112 117 112 106 123 141 149 155 155 155 156 160 162 167 166 172 180 175 179 181 181 182 179 180 177 180 181 180 174 178 172 173 173 180 168 158 159 158 147 156 153 149 136 137 139 137 126 102 102 112 115 121 118 119 120 124 117 120 122 119 119 122 120 120 121 123 120 118 121 120 123 111 110 111 114 111 114 113 115 112 112 112 114 112 114 115 113 111 115 114 115 118 110 112 128 143 158 160 155 162 163 166 173 172 175 179 178 176 180 180 182 184 182 186 181 184 185 181 179 180 179 179 182 178 175 174 170 163 170 170 157 167 159 161 157 145 147 143 139 121 88 100 102 109 116 119 116 121 121 121 121 119 121 123 117 122 121 121 119 121 119 118 123 113 111 113 112 112 115 112 112 114 113 113 114 113 113 112 118 110 111 117 109 115 120 135 154 163 166 163 167 171 174 175 180 182 179 186 185 186 186 186 186 188 183 186 183 189 185 186 180 186 184 179 180 183 177 169 167 169 169 175 171 163 157 169 166 159 153 151 151 127 105 106 116 92 107 115 126 119 120 120 123 119 119 123 119 120 119 121 122 119 121 122 120 111 111 113 112 112 115 112 116 112 115 112 117 116 115 113 115 113 114 107 117 126 155 159 158 162 170 166 174 176 176 183 183 187 184 182 193 193 193 193 192 190 191 186 191 192 190 186 181 185 177 173 182 183 186 169 156 166 162 162 158 159 161 170 166 161 154 152 152 152 131 126 117 114 88 101 120 122 118 119 118 120 119 124 122 119 121 117 121 122 120 123 122 111 109 115 113 109 113 115 114 110 111 115 114 112 113 112 106 109 105 121 140 159 159 158 164 170 170 176 179 180 180 187 187 189 188 193 198 203 202 200 195 191 193 191 191 192 192 191 186 188 182 176 174 181 177 163 150 164 162 155 158 168 172 167 171 158 147 156 153 153 152 139 131 129 116 100 101 111 114 119 116 120 121 118 122 122 122 118 123 120 120 122 124 107 112 115 108 112 111 114 114 112 108 113 108 112 109 96 82 75 122 147 156 161 158 164 174 177 180 179 181 185 185 189 191 193 196 204 205 207 208 206 201 194 195 192 192 193 194 188 186 189 185 185 178 182 172 176 159 160 164 164 168 177 177 169 175 171 160 161 167 164 163 153 137 138 133 123 98 88 94 122 118 124 120 119 118 118 121 117 123 116 120 124 122 111 113 110 115 112 112 113 115 113 106 112 112 109 95 80 68 116 151 155 157 164 166 174 181 177 177 184 185 186 186 190 192 195 202 207 208 207 207 207 205 194 194 193 192 193 191 191 187 191 187 185 183 184 182 184 175 172 177 171 176 182 182 174 174 183 173 170 168 172 170 167 150 138 147 138 121 104 86 108 121 119 119 122 119 117 120 122 122 118 121 121 123 113 112 107 114 109 112 113 112 114 110 107 95 93 57 56 119 147 151 160 163 169 172 177 180 182 180 184 188 185 188 193 189 200 201 205 207 206 205 202 196 193 195 194 192 193 191 191 190 192 183 188 186 189 185 184 185 180 182 182 180 184 184 178 180 183 180 175 172 173 177 172 163 148 146 147 126 119 109 84 102 122 113 118 120 116 121 123 125 118 124 120 123 112 111 109 117 110 110 112 112 114 104 86 81 70 58 108 151 147 160 164 167 170 179 178 177 183 185 187 188 189 192 189 194 193 200 204 204 203 201 193 183 191 195 195 194 193 192 190 192 193 188 189 189 192 185 187 187 186 183 185 184 184 181 182 182 182 181 178 180 176 173 171 167 162 158 145 142 128 114 91 88 97 111 109 116 113 119 122 122 123 119 121 123 109 114 111 111 111 111 109 108 104 80 76 53 48 108 143 145 152 162 167 169 172 178 178 181 184 184 188 191 192 190 193 192 193 197 199 198 200 197 189 187 194 197 194 194 194 194 191 192 192 191 191 191 192 187 185 185 188 189 186 188 184 183 181 185 181 178 179 179 172 170 172 172 163 163 154 150 140 112 99 95 90 91 96 100 119 116 121 122 117 123 121 123 109 110 117 110 112 110 106 103 95 64 61 48 96 137 142 148 157 161 168 173 173 180 180 187 184 184 189 191 190 191 191 191 194 191 197 197 194 195 192 193 197 197 195 193 194 194 194 192 194 191 192 189 193 189 189 186 191 187 188 189 186 184 182 183 182 180 176 177 177 171 174 173 161 164 165 156 140 124 115 103 87 84 69 86 100 120 116 118 123 118 119 124 110 107 111 112 111 97 83 85 73 54 36 87 134 143 141 154 157 162 171 172 172 180 182 185 187 185 188 190 189 192 193 191 192 192 194 195 194 195 194 194 193 195 192 194 193 192 194 193 192 193 189 192 190 190 191 189 191 189 188 185 186 184 184 177 181 182 177 176 171 172 173 170 166 163 161 162 156 131 122 99 87 80 70 62 76 103 113 116 123 116 121 122 111 109 107 112 110 94 74 65 53 39 71 123 136 139 148 155 159 165 171 175 177 177 182 185 186 187 193 189 189 191 193 193 194 192 194 194 196 196 196 197 192 195 193 186 193 192 192 192 194 192 193 192 192 190 191 190 191 189 188 188 185 182 183 182 180 181 175 175 173 171 171 174 166 166 159 166 160 143 128 92 81 74 74 57 57 72 84 100 112 123 120 120 109 106 110 105 110 97 76 62 54 54 108 135 136 143 144 158 159 166 173 176 180 179 183 186 184 188 193 191 190 194 193 193 195 192 194 193 196 196 195 198 193 195 193 190 192 191 192 191 196 192 193 193 191 191 192 190 189 187 188 187 187 184 181 182 181 179 175 178 176 171 173 171 171 164 163 160 161 159 134 105 82 60 72 64 48 55 64 81 92 109 119 123 109 108 110 105 104 90 63 57 59 97 129 134 145 144 151 160 160 171 176 177 180 186 185 185 187 187 192 190 190 194 196 195 194 195 197 200 196 195 197 198 193 194 193 191 193 193 192 189 196 193 190 193 192 188 192 192 188 184 184 188 188 185 183 183 180 180 173 181 175 173 172 167 170 163 160 162 162 156 147 111 89 60 54 67 51 45 57 58 66 75 92 117 106 107 105 107 111 87 61 44 77 118 132 138 141 149 154 163 167 170 171 180 181 185 183 187 190 187 190 190 192 194 195 195 196 198 201 202 200 198 200 199 194 197 192 193 192 194 193 191 193 193 193 192 192 188 190 190 189 183 187 189 187 183 185 183 183 180 178 175 179 175 170 170 167 165 158 159 163 157 148 128 75 55 48 64 65 46 38 55 55 54 65 99 108 105 105 102 98 83 53 48 106 124 135 136 145 147 156 162 169 170 168 177 182 183 186 188 190 190 191 192 194 198 198 197 200 200 203 204 202 202 205 202 198 197 193 192 194 196 192 193 191 193 193 191 192 188 190 188 190 187 182 190 183 185 187 184 181 176 183 159 167 176 169 170 163 162 161 156 160 162 152 128 78 53 44 56 76 52 37 38 61 41 55 86 101 103 104 98 90 65 50 74 120 128 138 137 146 147 156 165 169 168 172 179 181 182 186 188 191 190 194 193 195 200 200 199 201 200 202 204 210 206 205 202 200 195 194 195 193 193 193 190 193 193 193 192 193 188 188 188 189 188 185 186 186 185 184 181 182 176 182 173 170 171 170 168 166 163 161 151 156 159 156 132 79 63 51 42 62 69 53 48 54 63 52 62 99 98 104 86 77 53 51 98 122 126 135 141 146 150 154 164 170 171 174 177 182 182 186 190 193 192 190 193 193 198 199 201 200 201 201 203 203 207 204 203 198 200 190 198 191 191 192 189 193 191 194 192 190 189 191 189 191 187 183 184 186 184 182 180 181 176 179 176 180 170 168 171 170 162 165 155 153 155 158 137 88 65 50 43 46 65 59 59 52 59 42 50 95 99 87 75 72 57 62 117 119 128 138 143 149 153 156 166 171 173 179 177 182 183 187 192 190 191 193 194 195 198 200 200 202 202 201 201 199 203 200 200 201 199 194 194 195 195 191 193 193 194 192 191 192 187 188 192 191 189 185 184 183 184 182 183 180 177 175 174 172 174 171 172 166 166 162 155 144 154 160 145 111 68 55 54 45 50 62 56 62 46 33 39 93 89 89 78 63 38 90 121 117 131 135 144 147 155 156 165 170 174 175 173 179 181 185 188 190 191 193 191 196 196 200 201 200 200 199 201 198 202 201 200 198 196 196 194 195 197 192 193 195 195 194 192 191 192 187 186 192 190 186 187 186 182 181 183 183 176 175 174 170 170 173 167 168 164 160 156 143 151 160 160 124 85 60 72 45 44 61 60 50 54 43 31 91 84 85 79 46 49 100 123 122 132 136 138 151 155 160 161 166 173 173 176 175 178 184 191 190 195 194 192 194 195 200 198 200 199 201 200 201 198 195 198 199 197 197 194 196 196 192 194 193 194 195 193 191 192 190 186 186 187 189 190 189 181 180 183 181 178 176 171 176 169 169 166 160 161 160 149 147 151 156 156 140 95 66 72 65 50 52 66 52 47 40 31 88 82 89 67 32 63 110 119 121 133 139 143 150 155 161 161 165 169 174 177 178 181 180 185 193 193 193 195 194 197 199 198 198 197 200 198 198 199 197 200 195 198 195 192 196 196 193 192 194 193 194 192 193 191 194 187 185 186 188 188 184 184 182 185 180 177 175 177 176 169 171 168 152 149 156 149 149 153 156 153 141 101 84 59 71 70 53 49 62 41 34 31 87 80 79 67 34 72 119 116 122 132 138 147 152 157 161 164 163 173 175 177 184 177 179 185 190 195 194 192 194 194 197 196 197 194 199 196 200 200 197 198 195 197 195 192 193 197 195 195 193 191 193 193 193 192 192 189 188 183 182 187 183 182 178 181 178 177 173 174 178 171 170 164 157 145 154 150 148 150 153 150 131 108 86 61 74 69 60 51 54 54 30 22 85 76 67 44 35 83 118 120 121 135 139 146 154 153 158 164 167 170 176 181 180 180 183 185 186 191 193 192 191 194 195 194 196 197 199 197 198 200 199 194 197 197 196 193 194 195 194 195 192 194 193 189 190 191 188 189 189 184 182 187 182 180 179 177 176 178 175 168 172 168 169 156 152 146 151 148 147 150 152 150 133 105 91 65 71 68 72 45 51 54 31 24 70 53 54 28 51 86 123 116 125 136 138 150 148 153 154 165 168 170 172 175 181 179 184 185 189 188 192 190 193 194 193 196 194 198 199 198 199 198 199 195 198 196 195 194 195 194 194 193 189 194 193 190 189 189 188 184 188 184 182 186 182 182 183 182 176 177 175 172 175 169 165 154 147 145 150 154 150 149 154 148 130 110 95 50 81 72 74 52 47 60 16 25 49 45 42 34 56 85 117 119 125 139 144 150 151 153 159 164 163 172 179 180 183 183 183 187 187 195 193 192 193 195 197 195 195 197 198 198 198 198 198 194 198 196 198 193 196 196 193 194 194 193 193 191 191 190 191 187 185 185 183 188 183 183 185 182 179 178 175 177 171 164 160 152 143 142 143 157 152 147 154 144 135 111 108 59 59 77 73 57 56 54 29 20 42 40 34 40 54 83 117 115 126 139 144 148 155 158 162 166 168 175 180 185 184 185 183 191 188 195 195 194 193 199 199 197 196 197 197 200 196 196 199 195 195 197 197 195 196 198 193 190 195 195 192 192 190 193 192 186 189 185 189 190 186 183 184 182 182 178 177 178 174 159 157 153 142 141 143 156 151 146 151 142 133 115 102 79 45 71 81 60 56 58 31 18 59 37 34 53 57 84 117 116 128 138 143 150 158 163 164 170 171 175 181 184 183 186 187 189 192 195 198 198 192 199 200 200 196 197 198 195 198 197 196 196 195 198 196 196 196 198 193 193 195 196 195 192 193 193 191 185 188 189 191 191 186 186 185 180 183 179 176 173 168 151 156 149 146 147 145 148 154 147 150 140 134 114 101 81 54 56 74 80 61 58 42 22 80 35 33 54 51 83 118 115 129 139 142 151 162 163 166 168 174 178 182 186 184 184 185 192 191 195 196 199 196 196 199 197 198 196 194 197 198 199 197 197 196 197 198 199 194 196 197 195 197 196 197 195 193 193 190 190 190 193 193 186 185 184 186 181 181 177 171 172 165 152 150 149 141 147 144 151 151 146 148 135 128 118 96 75 67 52 68 73 79 47 43 25 82 50 47 42 48 85 117 118 129 140 146 158 165 165 169 174 178 183 184 185 184 186 187 192 191 195 198 199 196 199 199 198 197 196 196 198 197 196 199 198 194 199 199 201 196 198 199 196 197 199 195 196 191 193 192 191 193 193 194 189 183 185 186 183 179 175 174 168 162 156 148 146 143 147 145 144 151 148 141 135 125 116 98 69 64 60 53 59 59 67 47 33 84 59 49 53 38 83 115 117 127 143 150 158 165 168 174 175 179 181 180 184 185 185 185 188 191 190 199 197 198 199 199 200 195 195 195 197 196 199 198 198 195 200 200 199 198 196 197 197 199 198 196 192 189 194 193 192 194 193 191 190 188 185 188 184 180 170 171 163 159 150 147 144 142 149 146 144 144 141 139 129 124 112 106 52 54 56 45 55 54 59 58 48 76 64 58 51 33 81 119 114 130 150 155 164 164 170 176 178 180 180 178 181 186 183 183 184 188 187 194 196 197 198 198 197 192 188 194 194 198 196 197 200 195 197 200 196 200 199 195 195 198 197 195 192 195 194 194 194 195 190 192 192 188 186 185 182 178 172 169 160 156 146 143 143 143 145 146 141 142 141 135 129 117 113 104 53 36 46 41 46 40 43 58 50 69 70 63 31 27 86 114 116 139 152 157 168 173 175 175 184 185 183 176 180 186 183 178 183 186 186 194 192 193 196 199 195 192 184 195 196 196 199 198 198 196 199 199 198 199 200 196 198 199 196 196 195 194 196 196 195 194 193 187 192 188 183 185 180 176 172 164 162 155 144 144 144 143 143 143 142 138 132 133 122 116 109 100 67 28 38 31 41 42 28 43 53 74 76 58 28 28 94 114 120 143 145 141 154 174 172 171 176 187 180 171 171 187 184 182 187 185 189 192 185 191 194 197 196 194 191 196 196 198 197 195 193 193 198 199 197 199 198 195 195 197 199 196 196 199 194 196 193 196 194 189 191 190 187 186 183 176 173 165 159 152 141 141 141 140 142 138 141 136 129 127 120 117 105 86 74 42 27 33 33 36 29 36 38 82 69 61 20 34 95 114 120 135 145 141 140 154 155 150 162 172 179 168 164 177 184 185 184 187 187 189 188 187 193 195 195 194 189 194 196 195 194 195 187 187 199 198 193 194 195 195 194 195 197 198 196 199 195 194 196 194 197 193 186 190 189 185 182 179 173 161 158 149 139 144 141 138 138 140 138 135 131 129 121 113 99 85 69 55 32 28 32 32 23 33 28 76 70 51 31 28 102 108 117 126 138 134 133 136 137 122 123 140 142 148 154 162 178 179 186 186 184 187 189 185 192 193 194 189 188 192 194 196 194 195 191 190 195 193 191 194 196 194 196 194 194 196 194 196 195 193 196 197 189 192 190 181 181 180 189 181 179 163 158 149 138 140 138 136 132 137 140 131 128 131 116 98 88 77 58 66 49 34 25 26 27 29 22 79 68 59 17 40 105 110 114 119 130 128 125 128 127 102 119 125 132 122 126 132 152 160 172 179 180 183 185 185 187 188 195 190 182 190 192 194 194 189 191 188 193 190 191 191 196 192 192 193 190 189 185 184 189 185 184 177 173 180 184 172 171 176 178 180 177 166 161 148 138 142 134 128 127 135 138 128 129 128 113 86 84 65 53 57 60 45 27 25 29 27 23 82 68 61 11 50 108 94 91 95 105 99 117 143 169 109 188 220 199 170 167 167 172 144 170 189 194 186 182 183 184 187 184 190 180 187 192 190 193 190 184 187 187 188 184 189 182 182 187 179 173 172 160 159 164 163 164 164 158 167 169 171 163 168 166 166 170 166 156 147 137 139 135 129 124 133 134 127 128 121 104 88 78 52 55 56 43 54 29 23 44 35 27 77 74 52 42 61 78 86 106 110 114 124 124 117 121 106 86 105 103 91 90 90 94 90 80 129 146 142 94 94 139 142 127 160 174 177 169 155 163 169 153 162 189 202 210 183 158 171 165 161 154 168 156 147 138 140 152 158 162 162 159 168 161 163 158 150 154 152 153 148 142 131 134 129 126 128 131 128 130 115 100 86 77 47 57 62 40 61 42 26 42 47 40 69 68 79 91 80 41 98 109 117 103 127 134 132 131 137 124 108 107 112 122 130 117 110 109 116 115 121 129 84 110 143 139 131 138 149 151 142 147 122 83 62 86 106 138 126 110 112 114 112 126 159 156 154 131 97 107 114 134 151 150 158 167 163 158 155 150 151 147 143 140 131 125 129 126 130 129 127 126 122 108 82 68 49 68 60 49 51 55 25 45 42 46 74 101 99 88 63 44 98 108 103 112 130 139 148 146 151 155 143 139 156 156 137 103 99 106 117 137 183 214 208 169 151 175 169 172 170 176 180 148 87 125 138 138 138 129 130 130 121 112 109 116 119 121 120 133 133 128 126 124 118 107 112 102 136 170 155 148 148 142 142 137 125 122 131 129 128 128 125 125 131 107 82 58 49 70 60 51 45 48 47 49 46 53 112 95 83 87 76 34 110 102 99 123 134 146 149 149 147 150 154 147 149 136 124 114 108 96 99 131 225 220 208 230 184 146 195 182 184 194 196 117 127 165 158 148 138 135 131 122 108 98 92 97 99 95 107 115 124 132 143 145 148 154 156 155 117 134 199 165 139 140 142 134 130 119 127 129 126 127 129 124 132 108 65 51 51 59 53 53 52 39 40 50 54 55 98 84 87 83 68 62 122 100 93 126 127 124 120 115 107 111 112 111 117 120 113 103 89 93 98 94 185 226 207 235 126 135 186 175 182 195 177 93 159 182 161 149 141 133 131 125 120 116 109 105 114 122 125 130 136 139 145 139 144 142 146 150 151 145 146 153 102 122 140 133 126 121 127 131 125 132 132 129 126 98 63 50 52 44 48 57 53 51 39 39 51 59 86 81 84 75 90 100 120 105 104 118 95 102 95 90 88 95 72 53 65 80 79 90 101 84 69 69 83 137 183 172 50 108 158 163 169 175 139 82 167 182 162 144 132 121 120 122 124 126 134 124 141 178 188 177 168 172 166 152 136 142 150 145 131 138 141 147 138 121 133 119 127 126 129 131 131 135 123 131 124 92 59 49 50 47 44 37 56 41 38 49 42 52 75 75 69 75 80 98 125 110 102 87 79 89 70 80 123 129 76 56 67 131 87 52 81 106 100 96 77 86 123 118 66 106 148 153 147 146 118 75 163 174 155 132 110 112 117 109 106 95 93 90 101 124 138 142 140 160 162 154 163 197 206 205 157 122 156 157 132 136 132 97 119 128 127 135 136 134 130 127 127 101 53 38 40 38 39 49 52 34 35 41 40 54 73 71 67 75 32 89 135 119 99 76 72 94 75 105 144 149 72 84 74 69 101 52 110 133 107 99 103 91 96 82 85 138 163 173 177 182 154 82 149 164 141 116 109 109 112 105 95 93 94 95 96 78 78 94 83 102 118 110 142 200 218 225 185 132 140 138 133 122 148 107 87 126 137 135 132 135 133 131 119 86 71 38 35 35 40 52 49 33 29 35 41 56 83 77 82 71 41 103 139 129 120 87 82 119 140 123 135 150 131 79 87 80 78 95 142 152 132 112 81 88 92 55 112 173 189 194 191 188 167 74 130 148 125 114 115 120 124 115 112 96 100 136 138 85 56 99 133 55 42 71 91 109 135 144 147 140 144 132 129 129 128 145 87 109 138 143 136 137 133 130 123 75 51 49 37 41 36 36 29 28 34 57 74 73 84 82 81 65 38 118 142 135 128 107 108 112 134 149 151 148 158 145 131 119 131 142 152 151 135 126 109 99 78 53 137 183 194 198 197 197 187 90 103 142 130 118 138 146 133 115 113 114 124 165 145 73 80 60 116 92 45 91 104 88 117 108 108 134 139 131 130 134 127 137 129 114 134 123 122 117 117 121 110 72 47 59 52 41 51 44 48 88 109 127 130 139 82 82 84 61 64 121 143 145 135 129 124 122 128 135 138 137 137 146 149 152 141 135 138 146 148 156 146 117 61 80 154 184 193 200 193 196 189 114 78 144 124 126 162 152 111 115 119 124 132 162 178 112 79 74 86 92 85 133 144 105 80 113 106 107 125 131 130 135 130 133 139 137 109 44 66 84 83 89 81 62 58 52 50 36 50 89 123 141 149 141 134 133 80 80 78 65 83 121 147 150 140 132 133 128 140 142 143 141 138 145 134 135 124 123 131 141 156 165 161 115 61 89 153 187 195 197 199 194 172 144 73 122 128 131 150 148 127 124 128 141 156 162 180 185 136 109 112 125 156 160 147 134 119 114 118 113 112 123 138 136 137 130 160 124 76 117 119 127 120 110 76 74 69 55 60 35 57 119 142 140 132 116 107 101 83 81 75 67 89 127 149 155 150 142 140 147 156 148 147 156 150 156 154 151 155 151 152 164 166 160 149 114 77 93 149 189 203 199 197 194 167 138 95 82 111 125 138 139 133 132 129 130 136 142 157 158 170 173 161 163 169 163 147 140 136 140 137 125 122 126 145 143 139 133 144 144 86 123 124 121 113 126 96 94 83 58 58 40 68 111 130 116 106 104 101 83 83 80 82 58 100 128 154 159 152 145 147 154 166 163 158 158 160 158 161 166 164 158 157 158 153 139 137 74 68 107 146 195 203 199 198 193 165 135 111 74 77 114 137 140 132 145 150 144 131 137 146 146 150 167 162 169 171 175 174 168 160 154 150 145 132 132 144 134 130 114 121 134 90 103 117 127 129 138 121 104 83 56 56 45 96 114 101 118 138 138 122 102 82 80 76 66 94 135 153 167 163 158 153 154 157 159 159 160 167 161 159 164 155 147 135 148 153 106 109 102 79 116 144 195 204 197 200 187 163 129 135 73 82 123 141 149 151 140 148 150 155 146 143 146 159 162 167 173 174 172 174 171 161 152 153 146 142 143 145 136 120 111 125 142 79 120 136 138 138 136 133 116 79 52 37 62 96 113 120 140 149 148 132 98 83 76 76 65 101 125 153 168 173 169 155 151 158 159 154 157 162 153 152 155 148 147 137 158 141 76 124 117 86 115 159 194 200 199 192 182 168 132 136 129 75 124 149 152 163 166 150 148 162 153 157 164 159 164 169 171 174 172 174 169 162 157 154 154 152 159 161 154 139 130 149 141 82 137 144 133 135 137 130 123 83 53 38 51 119 137 140 147 148 155 134 101 80 81 77 60 105 117 138 163 173 170 160 147 154 159 157 151 156 146 146 153 155 155 166 157 93 118 142 125 95 121 170 193 199 196 192 179 165 148 127 150 119 94 142 150 158 172 168 152 150 153 157 165 173 173 164 170 170 171 166 168 165 163 161 156 166 166 167 166 160 147 163 125 91 148 143 140 130 128 132 114 86 56 30 81 162 169 151 150 154 152 138 107 74 79 73 68 99 121 127 153 164 171 159 151 157 163 168 161 159 160 163 165 168 176 173 104 115 145 129 119 108 137 177 193 199 197 188 180 167 152 140 132 146 101 109 152 157 175 180 173 167 157 149 153 162 167 167 172 174 165 164 167 170 168 165 174 174 175 166 169 170 149 166 108 108 155 142 135 127 127 130 117 79 48 33 117 169 159 146 152 158 154 139 96 109 76 70 65 101 109 131 141 149 157 158 151 155 168 163 166 165 165 170 167 176 176 115 110 151 145 126 127 121 144 176 196 197 195 188 181 171 146 155 151 131 135 90 125 160 173 183 183 179 177 169 161 162 165 164 169 170 172 166 168 169 169 168 186 180 172 172 165 173 156 156 99 128 153 139 126 124 124 125 125 83 58 70 86 131 146 142 149 151 152 141 93 183 117 79 63 92 118 123 133 142 150 154 156 157 161 165 165 165 171 159 171 168 119 110 162 157 131 124 136 134 161 180 195 198 191 189 182 171 161 152 161 155 133 143 93 134 168 180 184 184 186 182 179 174 177 175 176 176 177 181 177 174 176 173 172 171 163 159 165 168 168 122 103 149 142 133 127 119 126 121 114 93 109 122 98 110 136 129 138 154 156 141 92 61 151 136 69 97 108 132 130 141 142 149 158 160 159 161 163 163 163 169 153 110 130 160 163 147 125 129 138 159 180 186 197 196 191 192 181 172 169 150 157 159 148 138 153 93 148 177 183 186 187 182 182 177 180 182 179 179 181 180 182 177 176 169 170 155 155 148 159 172 159 100 132 148 134 133 121 120 121 120 100 103 133 147 110 113 132 125 133 150 157 140 83 71 49 107 168 140 112 124 124 135 141 146 155 158 154 160 164 164 150 131 109 140 171 167 162 131 118 134 148 170 185 194 199 197 191 194 185 172 171 156 146 149 161 152 142 164 81 159 186 185 187 184 186 182 182 181 180 184 182 175 172 173 168 168 166 148 143 150 160 175 113 119 153 144 134 129 120 118 123 116 96 103 144 156 122 126 125 123 129 143 156 133 84 75 63 101 88 152 184 180 164 154 163 160 167 163 151 151 140 129 114 140 153 165 168 160 144 125 119 138 159 177 189 197 200 196 195 189 180 172 170 160 138 143 146 154 152 144 184 101 130 183 187 178 183 182 183 181 174 181 182 176 173 164 161 161 155 152 140 154 169 128 115 149 151 142 134 127 122 113 119 115 88 111 141 163 147 129 139 125 126 153 157 116 100 79 56 88 91 85 78 102 110 137 147 144 133 126 124 128 133 144 156 159 164 165 159 157 122 125 120 144 167 179 193 195 198 192 193 189 180 174 173 164 140 142 149 145 154 158 147 173 143 108 171 180 182 177 178 180 174 172 175 169 164 151 153 154 145 142 154 167 123 118 161 148 145 140 136 125 119 116 114 112 92 113 141 153 164 139 141 131 132 158 151 99 123 74 71 75 105 108 122 113 115 121 137 136 139 149 152 156 154 158 157 160 162 156 150 141 111 129 134 142 171 183 192 195 194 192 189 186 179 172 177 166 145 149 149 148 142 155 163 154 163 167 134 139 153 189 184 177 171 170 157 158 158 154 158 169 190 185 155 106 132 160 157 144 139 138 135 126 115 114 111 111 92 111 141 146 168 137 132 125 146 166 121 103 145 72 67 80 96 109 112 116 113 123 133 137 142 149 151 152 155 154 153 152 152 150 143 129 125 139 136 145 174 188 194 191 195 193 186 178 177 174 171 168 152 153 158 154 149 138 157 165 164 161 156 152 152 117 141 161 176 181 180 170 168 173 175 179 168 121 125 147 163 161 158 141 134 131 133 125 113 110 114 111 93 114 131 163 166 141 124 130 157 154 104 124 146 72 69 78 100 103 113 114 119 127 130 141 142 145 148 149 151 151 148 148 147 144 137 131 136 146 132 150 179 186 191 194 192 189 182 177 168 170 168 169 157 149 158 161 146 129 143 165 173 166 158 157 157 164 147 131 130 126 126 123 131 132 136 131 138 145 153 159 157 158 148 133 136 133 130 123 107 109 116 111 101 109 136 177 163 131 124 141 158 131 104 136 135 75 63 82 102 103 112 115 116 119 130 136 143 141 143 145 142 142 144 145 147 148 141 124 135 137 129 145 170 181 183 190 197 188 178 175 162 168 170 163 159 149 149 152 145 129 127 154 161 166 164 165 167 165 153 152 154 159 157 155 154 158 154 159 156 156 161 164 155 148 134 131 134 132 126 112 109 113 116 107 96 107 130 150 137 125 132 146 144 119 123 143 90 73 68 72 96 108 109 121 106 117 125 129 134 139 137 136 140 143 144 151 154 162 149 114 104 114 109 129 151 169 178 183 193 187 170 165 160 165 162 154 150 141 140 140 138 123 120 140 153 160 169 166 169 163 160 159 161 164 164 157 159 159 161 164 159 160 158 157 151 143 133 131 133 131 117 111 111 112 115 104 92 117 146 161 141 120 145 145 128 113 145 116 77 72 75 56 100 107 107 116 109 113 120 127 131 138 137 143 141 151 157 159 168 160 151 126 66 78 79 113 137 146 167 174 179 166 153 144 141 141 144 131 125 120 123 128 127 114 116 145 151 155 160 162 158 161 159 160 158 158 162 165 156 154 164 162 156 156 152 146 143 139 136 135 133 124 119 112 113 115 116 103 95 132 162 169 140 107 127 125 121 138 133 80 94 74 72 65 88 110 104 110 112 112 114 125 127 136 139 147 154 160 165 168 166 159 141 138 108 59 39 85 112 132 135 154 158 145 133 123 118 108 94 78 76 79 83 101 108 111 130 146 159 157 162 162 162 160 164 159 155 160 162 162 157 158 160 160 155 155 147 149 140 137 136 132 129 127 115 117 114 112 114 100 94 143 143 151 127 110 133 123 145 139 95 80 86 68 73 61 93 105 113 104 114 113 119 124 131 141 144 149 164 165 168 166 163 162 145 138 145 100 42 44 79 101 114 124 134 137 127 112 93 87 83 88 98 96 87 81 106 131 144 150 161 166 166 161 165 161 169 165 165 165 161 164 152 157 156 158 156 151 150 143 142 142 134 131 125 125 117 117 111 116 113 96 102 145 146 137 129 129 136 144 140 111 76 86 90 66 72 63 88 107 116 107 111 115 123 126 133 144 156 151 159 171 164 163 165 160 155 149 145 123 67 53 49 63 79 89 101 119 108 102 98 98 100 111 109 103 105 111 127 145 150 152 162 173 175 168 165 165 166 168 169 164 158 159 160 158 153 148 152 150 150 139 141 140 134 134 122 123 118 116 110 116 111 91 113 151 143 137 128 137 135 142 119 83 80 90 87 72 66 68 86 107 117 111 114 121 123 128 136 145 152 154 158 167 164 161 161 164 164 161 149 133 108 79 65 58 54 53 69 87 91 99 106 114 120 123 123 129 140 142 146 146 158 154 163 172 172 175 169 172 167 169 168 164 159 154 158 152 150 145 148 150 140 141 132 134 128 130 123 123 111 115 110 115 109 87 127 151 141 144 133 134 143 128 89 77 83 90 85 73 70 58 97 98 122 119 123 119 128 127 137 140 143 158 160 161 162 163 161 163 164 164 152 146 132 116 101 78 66 59 73 92 101 107 122 126 126 132 135 147 143 147 148 150 156 154 161 169 173 173 175 170 168 172 166 164 164 159 158 157 150 144 150 150 138 139 135 134 126 129 126 117 115 111 115 115 104 90 138 150 137 141 132 132 134 112 71 85 85 87 94 72 68 64 80 103 119 127 127 132 130 128 137 137 144 152 159 150 155 162 162 160 164 168 158 150 148 147 140 126 114 112 110 124 128 114 119 129 131 136 132 145 141 139 151 156 150 151 157 165 171 170 173 175 171 165 162 165 163 163 159 152 148 151 149 145 139 133 133 135 126 131 122 121 115 115 114 116 92 96 145 143 131 129 129 122 117 71 83 81 85 85 83 66 74 54 85 103 113 122 129 140 138 130 131 136 140 150 146 147 148 161 157 157 154 159 160 153 156 155 152 148 140 134 134 138 136 133 132 134 142 143 135 140 136 141 150 153 148 149 157 169 167 163 167 171 168 169 164 168 163 167 160 156 148 145 146 142 139 133 133 133 131 131 122 115 117 114 111 113 90 102 135 128 124 128 106 104 75 82 83 85 91 83 82 67 69 55 80 101 116 118 130 143 141 131 129 133 141 139 144 144 143 150 152 149 148 159 152 155 157 159 154 154 153 146 141 143 140 141 148 139 144 146 141 137 138 143 148 152 148 144 157 163 158 163 160 164 164 167 158 163 162 162 164 154 150 142 142 142 140 138 133 135 133 134 118 116 118 112 109 111 94 90 107 108 100 94 86 72 77 83 78 86 87 89 86 69 72 62 71 93 117 118 110 152 150 132 130 126 137 138 138 151 141 149 143 141 145 149 153 152 152 157 153 152 154 149 145 141 138 131 137 140 140 139 134 140 135 142 145 149 153 153 165 164 161 163 157 154 158 157 157 165 163 153 157 151 146 142 144 148 141 143 136 130 135 127 120 121 119 113 108 109 98 46 55 68 64 68 75 77 83 78 81 85 84 85 87 66 74 60 67 92 113 123 112 150 150 137 128 125 129 134 138 139 144 141 137 133 134 147 145 146 143 151 149 144 148 144 141 142 135 126 132 134 131 137 130 134 142 146 142 141 145 152 158 155 157 150 145 148 158 150 151 163 160 150 154 148 140 146 144 142 134 142 137 134 131 123 126 121 119 112 108 111 82 38 47 58 65 74 71 78 82 81 84 82 89 82 87 70 65 72 54 85 107 125 110 149 147 141 132 114 122 125 131 132 134 127 122 114 120 133 139 137 139 139 138 132 139 148 145 145 141 135 126 129 133 135 134 134 140 148 140 139 145 138 147 149 147 148 133 141 146 147 145 149 163 160 152 144 138 150 146 147 138 139 135 133 126 129 125 123 114 113 107 110 65 37 53 61 67 76 74 80 82 83 84 83 88 83 88 64 71 70 59 70 100 124 100 127 143 130 144 122 102 123 120 118 111 106 93 98 96 106 119 128 129 131 137 134 143 156 156 161 147 139 136 135 143 142 142 138 139 140 135 133 132 127 124 129 133 131 138 140 138 145 139 153 165 160 154 152 143 149 151 149 141 141 138 135 129 130 125 117 115 108 107 102 44 44 53 64 70 71 77 79 76 83 86 90 83 83 91 65 69 70 62 66 90 120 111 114 139 126 140 142 101 105 110 103 99 87 66 66 67 74 90 104 109 121 125 130 134 143 142 154 145 139 140 125 134 132 124 124 122 121 125 120 117 117 115 120 120 125 131 141 135 140 138 151 167 163 154 148 148 154 149 149 136 135 142 139 129 131 123 112 112 106 107 84 38 51 57 65 72 71 81 77 78 83 82 86 83 84 90 65 67 68 66 60 78 109 111 118 132 128 122 144 118 101 114 112 103 103 104 95 69 62 57 64 63 66 69 72 81 90 98 122 124 116 106 97 90 83 79 78 81 81 79 82 86 88 88 93 102 113 124 137 133 131 125 150 171 161 150 146 151 155 151 146 139 137 138 138 133 130 121 113 108 103 103 66 38 57 62 73 73 73 79 77 80 78 87 82 85 82 89 63 69 67 71 61 66 92 111 114 129 124 125 134 137 103 116 133 131 135 145 138 132 114 102 102 105 104 91 85 90 80 80 79 87 85 81 77 86 82 84 86 88 95 91 93 91 93 98 110 111 102 112 132 136 129 121 155 168 159 150 146 147 149 148 140 137 142 138 131 131 122 122 106 98 99 97 47 45 60 70 69 76 78 76 81 79 82 80 83 84 83 88 65 70 64 67 66 59 84 96 112 115 123 128 129 143 122 113 132 138 149 149 139 133 138 129 120 118 132 131 140 152 151 137 130 130 126 118 117 116 112 107 110 115 114 117 119 118 127 128 144 142 135 130 140 139 134 131 151 164 155 151 146 143 142 145 143 140 144 135 128 126 118 114 101 100 107 77 40 56 63 74 71 78 75 79 79 85 79 85 88 80 86 86 64 65 65 71 61 70 60 85 100 112 111 121 130 128 139 123 120 141 146 135 131 135 133 139 143 133 135 136 134 157 166 159 153 161 154 147 138 139 128 129 129 132 140 135 141 142 141 148 153 152 149 146 147 145 135 145 153 152 153 147 149 143 140 142 141 144 134 129 124 125 118 108 93 98 90 73 48 59 68 72 73 72 79 74 83 84 81 81 82 84 84 81 66 67 63 70 68 67 60 72 92 104 108 121 124 124 125 131 127 131 139 139 133 132 128 128 136 144 139 141 145 151 153 155 159 165 155 162 158 160 152 155 152 142 151 146 144 146 142 150 150 150 152 150 146 143 139 154 153 149 151 148 139 135 135 138 137 137 129 128 120 118 110 105 96 87 97 71 55 64 75 74 70 76 79 76 81 84 82 84 83 84 85 80 63 67 67 68 68 65 68 60 80 97 93 118 117 118 120 128 125 122 129 134 122 129 124 122 126 133 132 140 143 135 136 136 142 141 148 150 153 154 151 149 156 144 146 146 142 149 137 148 148 153 154 150 150 139 141 149 154 149 147 143 135 135 132 139 132 135 122 124 117 111 98 95 90 81 98 72 54 72 73 74 77 78 75 79 79 78 84 86 83 81 86 83 62 69 65 64 67 68 65 63 66 87 89 91 113 119 113 127 127 123 117 125 121 121 118 110 103 116 107 121 123 113 110 110 119 124 130 133 136 133 137 141 143 139 141 140 138 141 142 149 152 150 153 144 140 136 130 136 144 140 141 136 132 127 134 129 125 129 115 116 117 105 88 93 79 80 114 52 39 73 70 77 77 73 78 79 76 82 83 83 81 84 81 83 67 63 66 71 64 69 63 69 55 67 85 93 100 114 116 118 132 129 124 126 120 115 117 112 99 93 93 98 101 103 108 110 114 117 115 114 119 120 128 126 125 127 133 137 134 140 138 148 144 143 148 138 129 136 131 137 134 137 133 134 125 127 125 126 124 119 119 107 109 91 90 83 72 87 121 43 8 39 63 71 79 75 79 81 77 81 78 83 87 81 79 86 62 66 67 66 66 70 66 67 65 61 67 91 97 105 113 113 130 135 134 136 125 125 115 118 110 111 103 100 96 104 103 105 106 115 115 106 110 113 121 118 124 126 131 135 137 135 136 143 139 139 141 129 131 135 132 138 137 128 130 125 130 121 126 122 117 115 113 107 97 82 84 66 75 95 117 70 14 12 19 45 78 78 82 78 83 80 82 83 80 82 81 83 64 66 64 63 68 66 68 65 71 63 54 70 88 94 109 107 119 132 140 145 145 141 135 124 124 122 119 113 111 102 103 100 106 111 114 112 112 121 125 128 126 132 130 136 131 135 136 135 145 144 141 141 128 136 133 129 128 123 127 126 120 123 119 115 112 104 109 92 96 80 60 73 93 92 104 130 37 15 14 13 54 81 80 76 80 80 81 79 79 79 81 78 62 69 63 63 67 67 65 68 63 70 45 41 74 84 103 107 116 134 142 148 164 154 157 139 136 141 131 133 130 116 115 118 120 121 123 124 130 133 131 132 129 136 141 138 140 141 145 148 152 150 143 132 121 131 131 123 123 123 119 121 124 119 113 113 108 102 101 92 89 65 63 91 103 89 91 171 85 10 12 17 13 50 83 77 80 82 76 80 81 80 83 76 64 67 61 64 65 64 69 66 58 50 29 15 53 63 85 104 117 123 138 147 160 167 170 162 157 159 160 162 158 141 132 126 129 130 126 129 141 146 148 143 147 150 152 149 154 155 157 163 162 151 144 132 123 129 127 119 121 122 121 122 117 117 113 103 100 92 87 86 63 56 89 101 104 86 83 189 136 40 7 25 16 14 35 73 83 82 77 81 80 77 80 81 66 64 69 63 66 67 65 60 33 19 14 13 74 59 51 83 97 119 132 141 155 163 169 171 174 173 178 178 180 181 175 162 145 145 142 150 163 177 174 164 165 172 172 166 166 163 162 166 158 154 141 131 128 123 122 119 116 122 119 118 112 109 105 100 91 85 78 71 55 76 104 105 103 82 74 197 131 119 11 19 20 24 14 18 73 82 80 79 79 81 78 78 62 66 66 63 68 67 41 28 21 24 8 40 151 89 49 45 83 110 126 140 152 158 167 171 169 167 170 173 180 183 183 182 176 179 175 181 185 186 185 182 184 180 181 180 174 170 166 165 151 150 140 131 122 120 122 116 114 117 114 110 110 103 95 95 85 84 67 58 73 96 105 108 103 88 65 209 108 153 63 13 15 29 19 17 27 60 78 78 82 80 81 77 62 66 64 65 71 40 16 19 25 23 11 97 194 101 75 40 43 102 116 135 138 153 158 159 165 161 167 166 173 178 179 178 182 180 177 184 185 183 181 181 187 180 176 181 175 168 166 160 150 137 133 127 119 120 112 107 108 107 103 102 93 94 89 78 77 68 61 70 89 97 100 104 102 86 65 211 104 147 122 33 10 25 19 23 18 11 43 83 81 77 79 80 63 64 66 67 44 23 14 25 19 24 2 142 200 99 80 71 35 61 97 124 129 144 153 149 155 157 159 165 163 167 170 169 172 167 171 177 187 185 179 175 178 172 167 169 165 162 161 154 143 136 129 128 106 115 101 97 97 98 100 93 90 80 80 69 65 66 66 85 100 100 101 108 100 80 63 216 112 129 143 79 8 20 23 19 25 14 15 46 73 81 82 78 59 70 67 34 18 16 22 22 30 8 0 182 171 94 87 79 63 38 57 100 118 124 145 136 144 146 152 157 153 165 156 160 159 162 161 166 175 176 175 160 163 158 164 156 160 153 149 142 132 133 117 112 100 102 93 85 94 90 86 87 77 65 71 66 62 75 75 93 100 106 109 108 100 87 63 210 122 130 136 122 16 10 26 21 24 21 19 16 29 72 82 83 68 68 38 21 19 17 20 18 31 10 6 200 170 95 84 81 75 54 37 66 99 105 118 127 135 135 146 145 142 152 150 153 151 155 155 158 156 159 157 151 156 152 145 146 147 146 142 129 124 116 104 96 90 81 84 82 82 80 73 65 71 68 67 74 70 79 93 100 106 104 111 110 111 88 63 204 133 124 130 137 67 9 22 24 22 21 21 21 17 21 49 76 67 50 25 19 18 21 20 23 19 13 15 189 200 96 96 86 82 61 50 43 53 85 105 112 116 130 135 137 136 143 144 142 141 144 139 144 145 143 141 139 141 143 134 134 135 134 120 118 112 104 94 89 71 76 77 74 73 72 69 69 71 74 76 76 80 86 98 99 101 112 110 111 115 87 69 213 135 122 128 137 102 5 19 17 22 23 21 22 19 21 13 41 64 31 19 20 18 25 17 19 23 6 41 167 217 107 95 94 92 60 56 49 37 55 77 94 92 98 118 117 123 129 125 122 129 127 128 130 131 122 132 126 123 126 120 119 126 117 106 108 103 88 73 70 65 71 67 71 73 73 70 74 81 81 81 77 86 92 103 103 100 112 112 117 109 76 114 222 118 126 123 132 115 14 17 16 23 25 19 21 20 22 18 23 31 20 26 19 19 20 24 24 14 21 96 120 223 150 72 101 93 78 60 50 45 51 44 46 65 72 89 92 100 101 101 103 104 105 110 108 115 108 110 118 113 103 103 111 107 107 97 83 70 63 57 61 68 68 70 66 74 81 74 80 83 85 80 88 85 96 103 103 92 110 110 113 102 70 165 207 92 142 114 122 136 30 10 22 24 25 18 21 19 22 21 16 25 22 23 24 23 14 21 26 8 38 134 96 191 193 70 90 94 84 69 60 49 52 45 42 49 50 56 70 73 74 75 82 84 77 81 86 94 92 93 93 90 91 90 92 90 86 73 57 53 59 63 67 68 74 69 69 79 89 79 88 85 84 85 90 92 95 103 102 99 106 115 118 85 97 211 178 81 153 110 119 143 45 11 24 19 25 18 21 22 21 21 22 21 23 23 22 21 23 22 26 5 51 160 92 145 226 117 64 98 85 76 68 52 49 54 44 43 49 43 47 47 52 46 50 58 58 56 58 58 64 64 62 64 70 62 54 53 53 52 56 66 62 68 74 74 76 79 75 87 92 87 82 84 80 88 94 100 104 109 108 109 109 115 116 74 151 228 124 102 149 109 117 149 48 10 21 23 21 21 21 21 24 17 20 24 23 21 23 21 23 15 27 8 72 155 121 93 216 183 51 84 87 82 72 63 42 50 51 50 44 45 46 43 46 44 40 43 42 44 41 38 44 48 43 39 45 47 42 51 61 66 68 74 72 73 77 74 76 88 87 85 87 87 85 86 92 95 100 101 106 109 103 108 107 124 91 93 200 209 70 152 123 113 117 152 36 15 19 23 18 18 21 16 21 21 19 24 20 22 19 24 18 22 26 10 90 135 156 73 178 216 79 63 93 82 79 65 53 54 44 47 49 51 44 44 44 42 44 47 35 44 38 44 38 44 41 46 48 53 58 64 65 76 88 74 74 75 83 82 80 86 90 90 91 91 82 99 91 97 99 108 103 106 108 111 116 116 78 146 218 160 69 173 104 123 126 141 21 14 20 22 21 18 19 18 21 20 17 