P2
92
112
255
110 106 106 105 108 110 105 107 110 109 108 109 110 111 114 106 112 110 110 112 111 111 112 109 109 112 113 114 110 116 111 111 117 112 112 114 116 113 114 112 109 107 108 110 108 111 113 112 111 110 111 110 107 109 110 115 116 117 117 116 117 117 117 117 115 118 116 119 115 120 117 118 118 117 117 118 122 118 119 118 122 116 117 118 118 120 118 120 118 117 117 122 109 103 109 105 105 108 105 110 107 109 107 110 111 110 110 111 109 111 111 113 109 114 112 110 112 112 113 113 112 112 115 110 113 109 106 114 111 104 103 102 110 110 113 118 121 128 137 131 124 123 116 111 113 106 106 111 110 116 114 114 116 117 115 120 117 116 121 116 120 119 116 116 121 118 118 117 121 118 114 116 119 120 119 117 119 117 119 116 118 119 119 121 107 104 108 105 110 106 105 108 108 107 110 108 108 110 108 110 109 111 110 108 111 109 113 107 111 112 111 114 112 111 110 108 107 99 99 103 106 107 107 121 124 129 143 146 151 158 155 157 153 146 136 128 131 115 112 106 115 104 116 110 113 116 119 115 121 115 118 117 118 116 119 115 118 119 115 116 119 119 116 118 115 120 117 121 115 120 118 117 117 119 117 120 105 105 103 107 107 109 107 107 110 110 105 110 108 107 110 110 110 112 110 110 110 110 112 115 108 112 113 114 102 109 105 104 98 107 114 119 127 130 125 133 136 154 150 152 161 159 162 162 157 159 156 153 143 144 138 126 114 105 108 107 111 113 112 114 117 118 118 118 118 115 118 117 118 117 119 116 119 118 117 120 114 119 120 117 117 118 118 123 118 116 120 122 108 107 106 106 106 113 106 110 107 109 111 110 106 110 110 107 107 113 110 111 113 112 110 117 112 107 111 105 92 105 111 119 121 136 139 142 146 143 144 137 146 156 153 159 162 169 166 172 166 160 154 163 151 159 151 144 126 124 116 107 99 104 112 115 113 118 119 115 118 117 119 118 117 119 118 120 118 117 119 117 115 119 119 119 119 117 118 120 119 119 116 122 102 109 106 104 109 109 107 108 108 105 110 108 107 112 111 109 111 109 111 111 113 109 110 113 107 101 100 107 107 126 137 137 146 151 159 156 151 152 160 155 161 168 160 168 174 174 176 174 174 166 171 170 168 166 163 159 152 138 143 122 108 107 102 109 109 112 120 116 115 121 119 116 116 116 118 118 121 114 121 117 118 120 118 118 120 119 117 121 118 117 117 119 104 105 106 107 106 107 108 108 106 110 107 109 110 107 112 111 112 110 112 110 106 105 113 102 95 93 116 136 144 147 156 157 165 169 169 167 161 160 162 155 166 166 171 167 172 178 177 176 175 171 173 177 168 176 158 158 169 159 159 145 135 134 119 108 102 97 109 115 117 116 117 116 119 117 121 117 117 120 118 117 122 123 117 120 120 120 120 117 122 117 119 120 107 106 107 107 107 108 110 109 105 105 111 108 110 103 112 110 110 110 113 108 103 107 102 91 103 134 138 155 161 164 168 168 171 168 175 168 168 169 170 167 175 174 179 177 174 182 178 179 180 177 176 176 176 175 171 165 169 165 173 153 144 149 141 138 122 103 97 94 98 119 115 118 119 115 116 118 112 123 117 119 122 115 121 121 116 121 117 121 121 118 119 121 110 108 108 106 109 106 108 109 109 110 108 109 112 106 109 111 111 111 111 106 99 90 92 117 132 153 157 170 171 167 173 171 175 173 179 175 180 183 186 185 184 182 181 183 178 182 184 182 185 181 181 179 178 180 172 171 174 169 175 159 152 161 156 154 146 141 118 102 74 102 117 115 117 118 117 122 117 115 121 116 121 119 116 121 117 120 119 119 121 118 121 122 105 106 109 107 111 105 107 107 108 110 111 108 109 107 109 107 109 108 100 96 80 101 133 148 158 165 169 176 174 176 179 176 179 181 186 185 189 194 196 193 193 192 191 187 184 185 186 182 180 180 185 184 184 180 181 175 171 172 174 164 148 156 148 161 154 139 143 140 112 73 108 118 114 114 117 118 118 115 113 120 119 117 120 120 120 119 119 120 120 117 121 119 102 109 105 107 107 110 105 107 110 112 105 113 105 106 106 103 107 98 75 86 114 137 148 163 165 168 174 175 171 177 180 183 178 186 191 190 191 197 200 200 201 200 194 195 188 191 189 188 185 185 186 188 184 184 185 175 164 171 174 174 158 150 142 149 150 138 144 148 133 118 94 99 116 114 117 117 122 120 112 120 117 119 119 121 118 120 118 120 116 120 119 120 106 109 106 108 107 104 108 106 108 108 108 109 105 103 97 97 78 72 76 118 146 155 164 168 172 175 173 177 172 178 184 185 184 187 196 193 198 205 208 204 210 206 205 198 195 192 191 185 187 187 189 189 188 187 188 179 175 176 169 174 164 138 150 144 151 147 158 150 144 138 135 106 93 119 111 118 122 117 118 118 120 121 117 118 119 119 122 120 114 121 121 116 106 106 106 107 103 105 101 100 101 101 95 90 76 71 65 58 62 81 130 149 156 160 167 174 175 174 174 177 179 181 190 191 186 193 195 206 207 210 209 211 206 211 205 204 197 195 192 191 188 188 190 188 190 188 185 180 185 176 178 176 168 156 156 145 158 160 158 160 158 150 149 144 114 90 115 116 113 116 119 116 114 118 119 117 120 119 118 121 119 119 119 122 106 104 106 105 101 104 106 102 89 100 77 64 52 48 33 57 101 129 145 155 160 162 169 173 174 171 178 179 182 184 192 191 192 194 201 205 207 206 207 204 207 204 203 201 197 194 190 193 189 188 189 189 189 189 185 182 183 181 178 179 174 172 168 165 165 163 170 161 163 162 152 162 142 110 93 117 115 114 119 117 117 118 120 120 116 119 117 124 118 121 119 119 102 107 107 105 103 99 100 101 89 80 45 44 39 41 35 90 140 146 149 161 162 165 170 168 174 176 179 182 182 186 192 192 192 196 197 201 202 201 202 201 203 201 200 197 194 193 191 192 187 187 190 190 188 189 186 185 187 178 180 182 180 173 176 174 168 168 172 168 165 164 161 160 157 145 105 85 105 111 114 114 116 118 120 121 121 120 119 120 119 120 122 118 106 107 107 103 107 103 98 87 75 47 37 44 35 32 90 136 148 152 157 154 168 167 167 174 178 180 179 183 186 191 189 186 198 199 197 197 197 197 199 198 196 200 195 197 192 192 193 190 175 178 188 193 190 190 186 185 188 187 183 183 184 179 180 179 174 177 175 171 168 167 164 163 157 150 149 100 81 109 111 108 116 119 119 117 122 119 118 122 120 120 119 119 105 107 103 104 95 90 72 67 57 44 34 43 33 66 131 145 146 155 159 156 167 166 168 177 179 181 179 184 184 188 190 187 191 196 196 196 196 197 198 196 195 196 197 194 193 192 193 190 183 179 188 195 192 191 188 189 188 188 185 186 186 181 180 178 181 181 181 171 172 168 166 160 158 157 146 145 88 75 92 100 112 115 119 119 114 120 119 118 120 116 120 119 107 106 106 95 93 67 57 46 57 45 50 44 46 113 148 145 150 154 157 162 163 169 164 176 179 181 176 186 185 185 190 192 192 193 193 192 197 195 195 196 195 195 195 193 192 194 192 190 192 189 190 194 193 191 188 191 189 186 188 188 185 184 182 182 182 184 181 175 172 169 169 160 159 154 155 147 147 65 54 77 99 110 114 122 122 118 117 117 120 114 118 120 101 99 102 73 57 54 42 46 49 41 54 36 78 144 146 145 150 158 156 160 160 164 169 172 176 172 183 182 185 184 188 191 190 192 193 193 194 194 195 194 193 196 195 195 193 192 192 193 192 192 190 190 192 189 189 189 187 187 187 188 186 187 181 184 184 181 181 179 173 171 169 165 156 155 152 142 154 122 53 47 75 87 105 108 121 121 115 121 119 116 119 114 103 101 74 58 55 43 34 41 43 42 47 55 125 142 141 147 151 156 155 159 161 163 169 171 176 179 177 184 187 183 189 189 189 191 194 193 195 195 194 194 197 196 196 197 195 193 192 192 192 192 193 191 191 187 185 188 189 187 189 186 188 185 185 185 184 183 180 180 172 172 169 168 158 154 153 145 145 147 92 39 56 77 78 91 102 122 114 119 117 118 115 119 97 91 76 55 63 49 41 44 48 47 43 81 141 145 141 147 151 152 154 158 163 163 167 173 178 177 179 185 187 189 186 189 189 192 190 194 193 197 198 191 195 195 195 198 198 193 196 192 192 194 192 191 190 189 187 187 187 185 189 190 186 188 185 184 185 182 180 175 177 173 171 165 161 155 152 148 148 142 137 61 33 76 64 66 84 102 119 112 118 114 115 121 94 80 72 55 61 44 43 53 57 56 61 115 145 142 142 149 153 148 153 158 161 164 166 172 175 176 177 187 188 187 188 192 192 192 194 193 193 196 196 194 192 197 197 198 197 195 194 196 192 193 191 193 189 188 187 186 189 186 189 187 187 185 190 181 184 185 179 176 180 175 171 169 161 154 154 153 146 138 149 100 20 63 74 62 66 88 112 119 117 108 113 121 83 82 87 50 55 42 44 60 64 51 81 135 146 137 142 149 151 150 156 161 161 168 169 171 175 177 180 185 188 187 192 194 193 194 195 194 195 194 195 193 192 196 197 197 196 197 195 195 194 189 194 194 189 190 189 187 186 190 189 187 187 186 189 182 182 182 182 176 176 175 172 169 163 152 147 152 148 138 142 131 38 47 72 67 60 87 105 106 117 107 114 120 90 96 79 45 47 52 55 57 46 47 116 143 145 135 139 149 147 150 155 158 164 166 168 176 176 179 184 182 184 184 194 193 194 194 198 198 197 195 194 193 195 197 200 198 197 199 196 195 194 190 192 195 189 192 187 187 187 190 187 186 185 187 188 184 179 183 182 180 175 174 171 170 164 160 147 151 143 146 135 144 79 33 67 67 65 61 103 98 110 117 118 115 87 84 61 46 49 51 60 60 36 78 128 142 142 132 140 145 149 153 155 158 163 166 164 169 175 179 182 184 186 185 189 194 194 196 195 201 199 198 198 195 197 199 199 197 200 201 198 194 192 192 193 193 192 187 187 188 185 188 185 184 186 185 190 184 183 182 180 182 176 170 174 165 167 158 161 153 148 148 136 142 115 63 57 51 67 55 79 109 115 118 114 122 74 69 55 44 47 51 58 49 51 100 136 143 141 135 140 140 142 156 158 158 162 167 164 169 171 181 182 181 188 187 189 194 194 196 198 201 201 200 199 196 199 198 200 198 200 201 197 195 195 192 195 195 191 187 188 184 187 185 184 180 186 184 190 189 181 180 186 182 177 170 169 167 166 161 154 153 151 148 140 133 132 76 80 51 55 57 56 105 120 120 115 119 71 68 53 54 45 56 57 55 75 109 143 142 137 134 132 133 142 154 159 157 159 163 167 170 174 175 180 186 185 187 190 191 195 195 199 201 199 200 197 200 196 199 200 199 197 198 199 196 197 191 194 194 190 190 187 187 189 185 185 185 185 187 188 185 184 178 180 184 176 170 170 165 166 163 156 149 150 151 140 130 134 108 76 74 51 62 44 88 120 121 117 120 71 61 57 56 55 54 64 57 86 125 143 140 138 134 134 131 140 153 157 157 160 163 165 169 177 171 182 181 187 185 189 190 194 194 194 199 198 199 196 201 197 198 199 198 199 198 199 195 197 193 194 193 189 191 191 191 187 189 190 186 187 188 189 186 183 182 175 180 175 173 173 163 162 161 161 150 154 148 140 132 127 133 73 74 66 62 34 72 120 118 121 120 63 51 52 60 58 43 62 66 100 126 137 141 137 137 126 131 142 152 157 156 156 163 162 170 174 172 178 179 182 185 188 190 185 189 195 196 200 198 198 201 199 197 199 195 198 197 195 198 196 197 193 194 189 192 192 193 190 190 191 188 190 184 188 188 184 182 179 175 172 173 174 166 163 164 156 155 154 151 139 124 131 133 94 74 71 65 37 81 118 122 119 121 56 45 38 67 50 49 53 77 104 128 137 141 139 133 134 127 144 149 156 154 161 161 162 169 174 173 177 179 179 183 185 190 185 189 194 194 196 198 201 200 198 199 196 198 196 196 195 194 196 194 195 193 196 193 192 193 191 192 190 191 190 188 186 187 185 182 181 174 169 171 171 166 164 165 157 152 158 150 142 124 127 136 95 80 73 77 39 70 126 118 121 121 46 42 44 63 56 46 70 73 102 129 139 139 133 137 127 130 142 149 152 151 162 163 164 166 173 173 178 174 176 180 186 186 188 192 190 188 193 198 202 199 197 197 197 196 195 196 194 192 196 195 196 198 195 195 193 192 190 194 190 193 190 187 186 189 182 181 180 173 172 166 169 166 164 159 154 156 152 153 136 123 129 134 108 77 68 73 58 59 117 120 119 117 38 44 55 68 56 47 74 76 96 127 132 137 132 132 128 134 137 150 151 154 160 162 167 166 173 172 175 176 178 182 185 186 189 189 194 189 195 194 200 199 196 198 197 198 195 196 195 192 197 196 198 198 196 195 198 193 192 191 189 192 191 185 186 187 175 173 179 172 172 172 170 163 165 164 156 157 155 151 135 120 128 135 117 83 62 66 63 65 114 119 120 118 48 58 61 65 53 39 56 76 101 120 135 131 134 134 133 132 136 141 156 156 154 158 165 167 167 168 170 178 177 184 187 185 186 190 189 193 191 197 198 196 195 197 198 196 195 193 195 196 196 195 197 199 195 194 196 196 191 191 191 191 189 187 185 188 180 175 178 171 166 168 169 166 163 166 162 155 159 147 136 120 127 129 126 88 68 55 67 61 113 118 121 115 42 53 55 56 39 32 53 75 102 119 136 129 134 134 130 131 136 144 154 159 157 162 167 167 166 167 169 177 179 181 182 186 189 192 192 193 194 195 198 198 197 198 197 198 198 195 197 194 197 197 196 196 197 193 194 195 193 191 193 193 188 189 185 185 182 177 181 175 169 170 172 169 168 171 163 157 159 151 131 123 130 127 131 98 74 47 63 72 101 118 116 116 32 40 50 44 28 39 53 80 97 111 124 124 133 136 129 132 134 145 154 162 158 159 164 166 168 169 169 179 178 179 183 190 190 192 194 195 195 195 197 199 199 198 198 196 200 198 196 195 197 196 196 193 196 192 192 196 193 191 195 193 188 185 189 185 185 180 180 172 170 172 180 172 168 169 165 159 158 146 131 128 123 132 125 92 85 53 51 72 102 115 120 113 30 35 40 26 39 49 65 80 94 102 116 122 129 134 128 130 130 150 148 161 163 158 165 165 172 170 174 178 182 181 187 187 191 193 194 196 193 197 200 201 200 200 198 196 201 198 197 197 196 197 194 197 193 195 193 196 194 193 193 193 189 186 192 188 184 183 179 176 167 177 179 170 168 166 163 161 154 144 130 124 126 128 131 89 71 64 48 47 77 121 119 114 34 39 35 27 27 63 62 83 91 102 115 123 130 133 132 130 135 144 152 155 161 158 162 171 171 173 176 180 178 184 188 189 192 193 195 194 193 199 199 198 199 201 200 195 199 195 198 197 196 195 197 195 197 195 194 194 196 195 189 191 193 190 191 189 189 181 184 178 174 181 179 169 166 171 164 158 153 144 131 127 125 125 132 91 68 59 46 30 66 108 121 122 31 33 21 31 50 59 56 74 89 103 120 125 128 134 132 128 136 146 149 156 160 161 167 170 172 178 178 182 183 184 189 193 190 192 197 195 193 199 199 199 200 201 198 199 199 198 195 197 197 195 198 196 197 198 192 197 195 196 194 194 192 193 191 191 191 178 184 179 181 179 181 173 165 170 167 157 153 141 130 125 126 127 127 98 70 41 38 30 42 95 117 120 33 22 28 42 43 53 51 69 85 98 127 118 125 132 133 130 136 145 149 151 161 165 169 174 173 180 179 184 183 185 189 193 192 192 195 194 195 196 199 196 202 199 200 200 198 197 196 196 198 197 199 197 197 197 194 193 198 195 195 194 191 190 193 191 190 178 181 182 186 181 179 174 170 169 166 159 152 138 126 126 122 122 122 94 75 49 26 36 29 76 107 118 42 22 25 51 59 47 60 66 76 102 122 124 124 130 130 129 137 143 147 151 158 171 169 177 177 179 183 184 186 188 189 189 190 191 192 194 193 193 197 198 198 198 199 201 200 198 195 194 192 196 199 196 196 197 197 194 195 198 195 194 190 185 192 188 186 184 183 184 182 182 176 173 170 169 163 158 152 136 127 120 128 123 116 88 67 57 31 29 27 59 112 118 43 32 29 57 73 40 63 48 72 111 120 124 124 125 125 133 134 142 151 152 165 173 173 178 180 180 182 186 188 189 190 192 188 188 192 196 193 192 194 195 195 199 198 197 199 201 199 194 190 194 201 197 198 197 199 196 197 196 195 193 191 187 192 190 187 183 185 185 182 184 178 176 173 173 166 160 150 138 127 123 123 121 118 84 55 59 30 36 23 53 110 116 49 33 49 62 47 60 47 48 75 119 121 124 127 127 122 129 130 142 151 162 170 178 175 179 183 184 185 183 184 190 196 190 188 180 191 196 191 189 194 192 194 198 197 193 198 202 197 199 196 198 200 199 199 195 196 195 198 193 194 192 183 188 185 188 186 187 188 183 184 183 186 180 172 175 166 156 151 137 126 123 119 125 114 88 34 66 43 33 20 58 121 114 56 34 55 48 59 48 47 39 85 126 120 122 124 130 126 123 135 140 149 162 169 165 163 162 166 172 181 172 178 179 189 189 182 178 178 190 192 193 192 192 195 198 194 193 198 200 200 198 195 199 199 200 197 194 193 190 193 190 189 188 182 187 186 185 187 185 186 183 186 185 185 183 170 172 169 164 155 137 124 116 119 119 112 80 35 47 52 29 31 92 119 117 57 37 50 58 62 41 47 39 91 122 127 123 124 131 125 124 134 134 146 160 153 162 161 158 157 154 161 159 154 159 171 174 173 170 169 178 187 191 192 193 194 191 195 192 198 199 199 195 192 198 199 200 196 195 193 192 192 186 183 185 187 182 190 182 184 186 181 183 182 184 170 173 171 158 162 161 155 141 126 114 117 121 105 71 42 31 52 28 54 112 117 114 50 43 38 54 58 29 43 41 103 120 123 127 124 128 126 122 129 135 142 146 145 156 153 152 159 145 142 145 135 126 141 140 145 136 144 160 162 179 185 190 190 189 191 190 193 196 196 193 187 190 197 195 197 188 188 189 185 186 183 181 183 186 187 179 179 176 166 164 163 163 150 151 158 155 152 144 144 141 124 115 112 121 95 61 37 45 46 25 76 113 117 112 53 41 46 54 53 26 35 45 107 125 122 130 124 124 119 119 124 133 142 146 135 140 148 151 148 138 143 141 129 122 125 100 128 129 133 136 138 154 166 177 174 191 196 196 186 189 187 188 181 180 198 199 198 188 183 181 175 161 165 169 160 163 167 162 139 142 138 136 137 146 147 147 147 154 146 139 128 131 123 113 112 120 102 60 39 47 50 27 78 119 115 110 61 45 40 50 53 32 34 45 106 128 121 129 134 123 122 119 124 127 140 143 133 138 155 174 149 109 115 112 101 104 113 95 156 198 200 180 138 152 163 155 132 200 206 218 188 148 168 175 156 179 216 209 219 207 178 181 169 133 182 182 194 168 159 176 172 162 177 180 118 127 120 138 140 141 149 139 132 127 123 109 115 123 101 63 40 48 52 35 87 115 115 113 66 46 31 41 44 40 35 43 108 128 126 126 135 131 120 122 114 123 134 120 135 170 150 143 143 143 132 140 146 132 118 109 100 112 110 117 112 124 116 109 87 71 97 118 114 58 114 125 113 103 135 151 177 151 119 92 75 50 67 103 122 107 90 99 102 98 106 139 117 110 113 110 109 108 104 96 99 116 114 104 113 119 105 53 45 39 44 41 83 113 111 118 69 57 26 32 53 42 27 48 111 126 129 131 135 132 120 114 107 108 103 109 126 145 129 168 186 185 151 143 148 143 130 112 99 113 118 101 92 122 132 135 137 138 143 150 149 146 74 149 183 169 166 170 173 159 101 137 126 122 122 125 117 116 99 99 101 101 103 116 123 127 128 132 145 143 143 131 124 119 116 89 79 114 99 50 39 40 44 50 88 105 112 114 109 79 37 25 42 42 26 43 120 126 135 136 139 131 123 116 92 105 120 122 127 132 136 153 169 169 162 162 170 168 168 148 156 192 202 197 125 129 145 132 133 140 145 153 165 178 93 125 208 188 180 184 195 156 61 225 170 132 134 131 116 109 94 91 95 101 103 116 121 121 125 127 127 124 133 141 135 125 118 120 82 94 97 52 39 44 34 61 93 108 111 116 162 144 120 54 41 39 13 48 124 128 132 141 137 136 130 83 112 125 110 113 127 136 143 151 154 147 144 135 128 132 129 114 165 206 221 219 146 110 118 107 106 116 131 142 168 184 122 107 195 188 183 182 192 127 62 193 183 146 138 123 112 117 113 115 127 148 158 152 156 152 145 144 132 127 128 124 125 116 118 120 75 25 90 91 35 33 53 85 102 108 115 114 136 132 131 140 74 57 19 42 107 133 128 136 145 137 107 113 130 129 121 119 125 142 134 129 122 107 99 97 76 73 80 64 83 135 156 145 89 90 106 114 100 91 104 130 145 169 141 97 140 159 209 209 187 90 121 192 161 155 147 125 91 87 98 84 95 152 190 175 138 142 172 162 139 140 134 118 119 112 121 125 68 47 29 93 94 31 81 99 109 110 112 114 86 117 100 114 97 42 24 32 68 115 135 136 152 119 106 139 134 135 125 118 129 127 105 97 103 82 97 94 50 49 78 91 49 70 110 104 115 99 92 98 108 97 72 112 133 165 142 76 108 130 156 180 148 49 127 190 112 103 98 89 93 93 104 57 112 197 233 215 101 89 134 131 134 137 140 128 122 121 121 129 69 34 49 70 130 67 80 115 115 116 108 113 60 75 101 76 70 43 33 35 63 72 87 77 151 129 137 138 141 132 119 111 111 94 81 88 78 96 149 108 63 75 54 132 68 66 157 135 98 109 116 119 120 116 78 80 117 161 118 106 156 178 178 173 179 95 84 167 101 110 104 105 104 115 94 36 57 128 142 101 98 94 86 103 106 106 135 121 117 122 128 137 57 30 83 96 114 117 60 120 125 118 113 108 88 80 76 74 75 49 28 54 106 119 106 45 69 144 150 140 138 138 126 112 98 99 95 110 109 115 154 137 74 87 77 90 79 103 173 168 134 120 102 105 135 150 99 77 114 133 88 133 184 192 184 178 175 143 44 148 140 126 113 102 118 156 79 77 50 122 113 48 96 155 119 66 99 99 94 125 107 114 130 144 62 13 97 108 94 104 121 91 73 113 111 114 112 108 78 52 65 60 27 65 128 129 126 133 59 125 152 143 139 144 140 127 119 126 127 127 146 158 160 163 136 96 78 83 106 151 166 159 136 138 127 116 116 143 125 103 129 102 81 155 196 201 193 190 185 153 74 97 161 119 107 116 136 170 100 68 81 69 92 68 112 154 141 112 73 90 92 101 111 110 124 150 74 20 85 87 87 82 130 79 27 67 117 111 136 127 108 75 57 58 41 81 126 133 127 121 92 124 142 146 144 151 146 149 150 142 148 144 136 142 152 164 173 165 157 155 159 157 152 145 145 133 139 140 152 132 132 134 138 88 95 165 196 199 198 188 193 153 124 73 130 124 122 123 125 131 150 113 85 85 101 128 155 152 136 128 118 101 100 100 110 110 118 148 94 37 94 91 113 107 145 72 61 80 118 105 144 128 124 116 77 37 48 93 119 126 134 119 88 125 130 146 148 158 156 148 159 155 152 152 156 164 164 164 161 155 153 155 145 135 132 127 130 133 146 145 153 139 146 154 116 86 120 157 189 201 197 192 194 164 123 53 112 143 135 127 126 139 140 154 149 140 148 147 145 147 140 133 132 128 118 109 115 117 116 130 115 38 75 92 115 108 140 85 69 104 121 106 143 131 120 130 93 39 54 94 113 119 133 125 83 132 123 140 154 160 158 158 164 165 156 151 157 162 167 175 177 175 170 170 156 147 143 137 153 154 156 151 160 153 167 125 74 86 119 153 179 203 198 193 199 172 130 36 126 136 141 137 128 131 140 146 147 138 149 150 142 151 157 153 147 138 127 120 121 122 111 120 127 40 73 120 113 105 146 88 70 116 119 99 138 134 114 115 90 42 41 93 114 114 125 126 88 135 125 140 152 160 163 156 154 155 158 159 161 162 163 158 160 156 159 161 172 168 172 168 160 153 154 166 170 177 147 99 62 93 121 153 167 192 207 194 201 180 145 52 95 145 130 129 139 145 142 146 151 154 158 163 159 164 160 156 150 140 135 129 130 127 114 114 119 50 96 121 112 100 146 82 73 130 106 115 142 131 109 100 85 40 41 88 107 117 118 135 85 134 136 137 148 160 166 170 164 158 154 156 167 169 170 169 168 179 176 176 178 170 169 158 156 157 172 184 174 161 143 80 80 113 127 148 158 186 206 196 197 181 138 102 82 125 133 139 139 153 157 151 151 145 144 148 149 152 147 147 143 142 135 134 137 131 120 121 108 77 119 119 105 107 151 73 102 123 109 108 142 133 103 86 85 63 39 84 103 114 114 138 84 123 142 144 143 162 174 178 177 167 159 162 174 180 180 186 180 184 178 171 172 162 164 154 155 178 190 186 167 157 113 106 110 121 137 147 162 182 204 195 199 187 135 103 143 92 99 151 141 148 152 156 157 162 163 153 148 151 146 145 152 151 151 146 142 136 132 119 111 99 124 112 102 116 145 75 115 125 103 110 145 138 105 80 86 78 60 85 102 110 109 138 106 103 146 143 141 151 163 173 185 187 177 176 180 188 185 182 177 174 168 169 174 171 171 175 177 188 183 168 157 125 114 139 128 130 140 151 162 180 201 198 193 193 150 112 127 147 69 129 168 157 156 154 144 149 151 156 154 153 156 154 155 171 166 165 156 142 138 126 104 112 120 102 96 134 124 72 126 117 102 113 133 146 110 93 86 92 104 95 98 108 106 124 150 75 152 143 147 142 150 162 178 186 189 187 184 189 190 190 181 184 175 180 183 179 184 183 181 175 175 167 132 106 145 134 136 149 146 149 161 180 198 198 194 193 171 122 120 136 126 75 168 169 175 170 165 160 162 160 158 166 169 169 174 183 178 172 164 144 139 129 101 129 103 96 102 151 99 83 132 113 103 108 111 149 129 103 91 104 126 96 94 97 113 118 152 106 111 163 144 142 142 155 167 181 187 191 180 188 187 184 184 184 182 182 185 184 187 183 182 178 172 154 101 130 148 122 143 160 150 148 161 176 194 200 194 193 180 143 127 119 149 127 85 176 177 179 179 167 167 172 167 166 170 172 171 179 173 170 163 145 143 123 109 122 96 86 127 151 84 105 126 114 105 108 94 138 143 110 99 112 134 95 90 102 110 127 132 159 75 144 162 150 141 154 169 174 178 187 184 182 184 183 185 181 184 186 185 187 186 187 179 180 144 117 131 146 127 141 160 165 155 154 160 177 189 199 193 189 184 161 139 131 121 165 107 92 189 180 176 179 173 170 174 170 172 172 161 160 160 161 164 141 141 130 108 106 82 112 162 117 103 115 125 97 112 110 96 123 153 117 96 121 120 97 90 105 108 129 135 154 157 82 152 160 151 163 165 165 172 177 182 174 179 183 184 183 181 186 182 185 185 188 185 152 114 142 149 138 127 153 164 162 156 165 175 184 188 194 194 188 189 173 150 132 134 132 171 93 112 180 179 175 180 170 172 172 166 169 166 157 150 156 147 132 135 135 101 85 111 167 129 130 104 127 117 101 106 110 111 103 143 135 93 128 138 95 92 104 111 124 138 142 160 156 91 135 176 161 164 168 171 173 173 169 170 184 184 184 181 184 182 182 185 187 135 125 148 159 138 128 141 159 161 155 156 170 178 182 193 195 196 193 187 181 166 136 127 150 139 181 113 83 180 174 175 170 172 172 164 168 165 161 156 149 145 130 128 138 98 108 190 134 143 131 105 130 110 101 105 110 143 95 134 145 119 129 143 90 90 103 115 117 133 138 147 155 166 109 110 164 172 164 166 169 169 165 172 176 180 180 184 186 185 181 150 128 137 160 160 150 128 127 154 164 153 152 161 169 175 183 195 196 197 191 191 180 166 151 121 133 156 144 169 152 85 133 178 173 171 169 167 166 157 160 153 148 142 132 136 146 169 193 94 131 165 110 118 129 102 99 107 105 158 123 103 129 143 153 139 94 93 105 113 113 125 135 145 149 153 157 143 116 168 193 185 175 180 179 180 184 184 189 180 174 148 135 141 160 166 161 147 139 128 142 162 165 152 156 163 161 180 185 196 195 195 189 187 181 163 162 137 121 145 158 154 152 155 117 97 146 158 166 168 165 153 160 155 158 157 159 182 190 154 107 83 158 144 106 138 108 95 105 107 102 163 150 117 93 127 154 151 96 96 106 112 107 126 135 141 144 149 152 154 147 144 124 129 108 117 115 123 144 146 149 141 136 157 166 172 171 165 154 139 123 133 150 166 163 156 158 163 158 177 189 195 193 192 190 183 175 162 160 143 139 131 140 160 164 150 140 147 128 101 109 119 137 152 155 158 147 142 133 132 142 114 112 101 158 130 118 138 100 97 99 102 105 118 165 146 131 109 115 122 98 101 103 114 108 117 133 132 144 149 150 150 145 143 141 146 144 151 149 148 148 159 151 158 170 167 169 170 165 155 152 130 119 138 162 160 165 160 156 157 155 173 191 199 190 186 187 179 168 157 158 145 141 140 125 148 159 155 153 155 145 141 140 136 135 121 118 121 119 129 134 132 134 132 124 100 148 116 134 122 92 99 104 97 102 84 150 151 148 136 102 108 94 104 106 119 110 114 125 120 135 146 142 146 144 139 142 139 145 142 147 150 154 160 158 162 171 166 166 166 158 149 140 134 119 142 159 162 165 164 156 150 156 172 191 196 193 189 186 176 165 151 153 151 138 142 126 133 147 157 156 160 160 147 145 145 142 142 146 134 137 147 149 145 140 133 129 100 127 126 143 102 92 102 102 103 102 47 129 150 146 150 122 122 91 101 107 126 118 115 114 120 125 142 130 141 138 143 144 141 147 152 149 154 152 157 160 162 163 166 160 160 156 147 137 126 114 143 152 162 160 162 156 150 157 168 182 189 196 192 183 171 164 147 149 149 139 134 124 125 143 151 152 149 149 147 157 150 150 151 157 142 146 149 148 145 136 129 124 99 124 152 129 89 98 98 101 98 100 48 97 141 138 141 135 133 93 99 110 123 120 125 119 110 115 126 132 132 138 138 136 141 141 150 150 150 154 156 153 161 161 161 157 158 156 150 160 138 103 129 131 134 145 147 140 134 145 160 165 176 189 186 183 172 152 139 142 139 124 117 113 132 148 146 151 153 148 143 155 148 155 149 156 148 144 145 145 136 134 124 117 100 143 151 103 89 94 98 96 95 99 62 60 130 132 131 138 136 98 97 110 119 121 130 130 119 105 113 122 125 133 134 134 135 136 140 146 144 150 152 153 156 161 160 156 157 163 167 172 162 117 98 105 91 95 111 112 120 122 144 151 153 172 177 169 156 130 127 116 108 95 93 105 142 156 151 152 157 152 145 153 150 150 149 148 150 145 138 135 132 125 120 113 101 147 136 94 88 95 94 96 97 97 67 51 92 132 125 125 129 107 94 112 115 120 134 141 130 115 101 117 126 128 136 135 134 136 136 140 141 142 147 154 157 158 162 164 167 170 176 182 177 162 103 81 76 48 53 59 88 113 125 132 144 144 158 147 132 117 106 76 66 61 81 127 145 151 155 160 158 153 150 147 150 148 144 143 141 140 129 131 127 121 118 106 102 142 135 87 91 92 94 93 98 93 67 63 59 86 103 116 120 92 102 118 111 117 140 145 144 125 110 118 125 129 134 131 131 136 130 142 144 152 149 160 170 167 167 170 175 177 177 186 184 169 164 112 88 69 57 50 39 67 98 106 119 121 128 126 120 96 72 81 85 99 114 144 146 147 158 157 160 158 149 151 150 145 147 143 141 134 132 124 125 118 117 106 105 146 107 89 92 88 92 90 98 93 71 60 66 62 74 84 81 77 100 117 113 118 137 143 147 143 116 125 130 135 137 134 134 136 132 135 148 155 159 164 173 175 174 171 174 177 180 186 182 174 176 170 135 119 91 78 62 46 57 74 91 94 100 108 94 84 99 106 123 127 132 142 146 142 151 154 156 160 149 149 146 147 145 146 145 134 125 122 120 116 119 110 104 128 94 87 90 91 92 89 91 95 69 67 64 67 66 69 50 59 100 116 115 116 138 142 155 156 129 123 145 152 148 143 136 132 143 154 153 165 166 175 165 171 174 170 169 170 175 181 179 175 174 184 168 158 143 117 88 74 57 57 57 64 78 85 97 108 115 132 131 127 133 139 138 137 140 150 149 149 148 140 143 147 144 150 148 140 124 122 122 125 121 112 102 101 80 90 84 91 89 90 87 90 71 64 67 64 66 70 60 62 92 117 115 120 129 147 151 164 131 125 154 162 158 151 153 159 164 158 158 166 164 162 159 163 163 166 167 168 170 175 175 174 164 173 169 164 170 151 130 116 100 80 70 74 85 98 117 117 123 131 131 125 133 141 135 136 137 144 143 143 141 135 127 134 143 146 148 140 128 125 130 128 124 119 91 80 83 89 85 89 91 86 89 88 63 65 67 63 67 64 63 58 87 110 115 120 124 143 148 161 134 124 156 164 167 161 157 167 161 154 160 159 165 160 156 155 151 161 156 159 163 162 171 172 164 162 166 164 163 165 159 147 135 124 112 122 121 120 121 133 131 127 129 128 130 141 131 126 139 136 142 140 137 133 120 119 145 141 145 138 126 122 129 132 123 112 95 74 85 88 87 84 88 88 86 89 64 64 66 67 64 65 64 64 75 108 114 121 131 132 148 168 142 107 159 170 167 161 158 164 153 151 155 151 152 159 145 145 133 140 151 144 150 152 162 161 163 158 160 163 157 155 160 153 147 142 141 139 141 139 136 135 137 134 125 130 128 133 129 130 137 134 135 124 124 133 127 116 135 144 150 134 126 125 129 127 119 122 74 80 80 85 86 85 87 87 87 85 63 64 65 63 66 68 64 60 70 95 112 115 129 139 145 159 146 111 149 169 163 152 166 161 138 141 142 141 139 135 138 127 119 126 135 132 134 145 147 148 154 157 155 154 153 152 154 153 149 148 146 146 144 138 139 133 129 128 130 124 126 127 120 125 124 121 115 112 115 121 121 117 142 151 148 135 124 123 129 131 118 109 81 79 90 82 87 83 82 90 85 85 66 66 62 64 63 67 69 58 63 91 102 111 124 134 146 154 148 108 147 167 154 153 166 169 137 117 126 125 118 112 105 98 88 97 106 114 116 133 133 136 143 145 140 147 144 144 140 143 142 146 139 143 134 129 135 123 126 124 122 126 124 123 114 113 99 98 95 105 116 118 117 120 147 156 151 135 120 119 126 130 117 111 70 81 83 80 88 83 88 85 84 87 64 60 65 63 64 64 70 63 63 75 101 98 120 126 140 153 158 107 116 158 146 146 164 180 155 114 108 117 112 107 88 76 59 56 59 82 93 101 112 120 122 126 130 131 137 126 126 132 131 133 135 136 133 129 127 122 118 118 118 115 117 107 97 84 78 71 78 94 108 118 113 122 160 163 148 129 118 117 131 124 122 99 71 79 83 79 86 82 83 86 82 91 61 64 61 64 64 64 64 65 61 67 87 95 107 123 135 146 155 116 104 149 142 142 153 172 168 131 120 123 130 132 125 117 111 103 79 65 64 72 80 89 104 108 113 112 117 115 117 129 130 132 141 135 135 129 124 128 124 118 112 99 93 90 77 86 107 115 117 122 124 129 117 129 169 161 143 125 109 117 132 124 116 86 74 83 85 82 85 81 82 85 82 83 64 61 63 63 68 63 66 63 63 65 72 88 98 123 130 142 150 119 111 138 141 130 144 154 172 148 133 138 143 141 134 138 137 143 132 125 110 90 81 75 74 81 90 100 103 109 110 116 121 120 132 129 122 121 113 107 100 93 81 79 89 101 106 113 117 124 132 137 135 136 127 142 164 153 142 112 107 126 125 119 102 83 76 84 80 85 82 82 85 79 85 86 61 60 66 59 61 69 66 62 66 66 62 69 88 106 122 133 148 125 112 130 140 119 141 155 159 169 157 158 167 160 157 160 163 148 146 148 145 145 136 134 111 117 113 117 110 104 97 94 96 88 102 107 96 95 89 93 88 88 107 114 124 123 122 122 120 129 132 136 140 135 137 155 158 153 121 108 106 127 121 109 94 69 87 81 81 83 81 80 85 84 85 84 60 62 65 62 58 65 66 64 67 63 60 55 73 97 112 122 138 123 108 122 130 121 121 146 156 146 148 155 163 168 163 163 165 155 141 148 149 149 155 161 152 147 146 153 165 159 159 155 147 138 143 142 138 130 122 123 123 121 125 130 128 124 121 121 129 137 133 131 139 136 139 157 153 141 113 93 111 122 110 101 82 73 85 82 81 84 83 80 86 82 85 84 63 63 63 60 62 61 66 60 65 64 64 56 55 80 96 108 125 124 105 117 123 114 113 136 145 141 140 136 154 160 161 158 158 154 148 147 147 151 147 154 161 161 160 156 159 164 173 178 180 176 174 178 168 159 146 141 142 137 135 136 128 125 122 126 129 139 133 127 136 126 139 149 143 125 97 100 115 111 100 85 75 76 88 80 83 83 81 84 81 81 84 83 62 62 67 58 64 61 64 66 63 66 67 65 51 60 76 94 110 116 108 108 122 109 115 123 128 139 135 128 147 155 157 151 146 148 140 146 144 147 147 151 152 157 163 152 166 165 173 165 173 170 169 173 165 167 156 146 138 138 138 137 135 124 120 130 131 135 129 125 129 133 139 136 130 104 87 104 110 103 82 72 79 80 80 80 84 83 76 85 84 79 82 85 65 61 63 63 65 64 58 67 63 68 57 78 72 47 55 84 97 114 109 103 118 108 98 112 116 136 128 122 136 148 150 152 147 144 138 141 140 139 141 142 145 148 156 144 148 162 157 151 154 150 156 156 160 160 155 144 133 139 138 130 131 126 125 125 133 136 133 125 129 127 132 131 109 87 93 104 103 86 72 80 79 83 80 79 83 79 81 81 80 84 78 84 63 61 67 58 64 60 61 65 64 64 58 70 111 53 44 70 81 96 109 104 110 112 96 100 115 123 131 125 127 144 154 156 147 146 141 132 137 134 133 131 129 133 138 134 133 139 142 140 136 136 148 142 155 140 141 138 133 135 129 130 125 122 123 124 132 137 130 114 122 121 122 113 83 94 96 100 90 74 70 79 81 79 80 84 82 83 79 82 84 82 78 84 64 57 65 60 66 61 67 61 64 67 54 64 113 96 42 48 68 86 96 104 107 115 109 109 117 117 127 133 124 132 146 157 157 150 146 136 134 134 133 126 121 125 121 125 119 124 123 128 133 131 128 130 134 133 126 129 130 125 130 123 126 117 122 125 137 133 124 111 116 114 107 86 91 103 101 94 73 73 77 76 82 79 80 80 83 78 82 80 81 85 78 81 61 61 60 60 60 65 62 64 64 64 62 59 104 111 80 38 53 71 88 99 102 112 118 115 119 126 126 132 125 129 142 155 160 160 154 146 141 133 131 134 125 131 127 124 121 120 122 123 122 119 122 122 126 124 119 125 128 128 127 123 122 122 129 138 143 133 122 103 110 110 94 93 101 107 94 84 67 74 76 76 79 78 79 79 81 78 77 83 80 82 81 82 59 62 58 65 57 67 62 60 61 72 49 47 104 112 100 52 41 58 66 92 98 109 116 118 124 126 133 133 128 128 144 154 160 163 169 162 152 144 137 133 130 133 130 127 127 122 122 125 121 122 128 127 123 124 127 129 130 122 127 124 125 130 137 145 142 131 118 102 111 111 100 103 103 99 88 65 73 74 77 78 78 74 83 78 80 76 78 79 80 81 80 79 60 61 64 59 63 59 64 65 61 64 36 19 107 111 104 74 44 47 54 73 88 99 109 111 118 128 130 133 137 130 144 147 156 164 170 175 173 168 150 136 142 140 140 135 138 134 138 130 132 139 143 126 123 124 136 134 129 127 134 134 138 141 147 140 140 129 113 108 110 113 108 106 106 101 66 34 55 79 79 76 79 73 86 76 82 82 75 82 79 81 82 75 60 61 60 58 67 60 63 60 43 28 18 44 103 107 103 83 62 42 44 56 83 90 102 116 115 122 124 127 125 127 135 143 150 163 164 170 176 178 173 167 161 163 163 160 159 158 149 137 137 137 136 127 122 137 145 143 138 139 147 148 147 148 144 141 131 124 114 100 107 111 108 105 94 89 24 20 8 54 83 79 79 78 82 79 80 79 82 79 83 76 85 77 53 65 59 61 64 64 52 51 21 22 22 115 102 99 105 88 71 47 41 51 54 73 89 109 116 112 124 120 120 119 126 137 147 153 164 167 179 177 181 183 180 179 177 176 172 184 174 167 164 156 161 158 159 165 162 158 153 152 150 155 153 143 146 137 129 120 105 99 107 109 104 95 94 55 9 26 17 20 51 78 78 78 77 80 74 77 85 74 83 80 79 81 59 61 60 61 64 53 16 23 27 9 47 182 103 89 106 92 78 64 43 44 50 50 73 82 103 106 100 114 108 115 119 131 143 146 156 164 175 171 177 179 181 174 177 175 173 180 180 176 178 172 178 174 176 175 163 158 161 162 149 152 147 143 140 131 129 111 97 95 98 105 92 82 77 93 15 22 20 23 7 40 79 79 76 81 79 77 78 79 78 84 77 79 55 61 59 61 40 27 16 23 21 5 70 209 103 84 108 97 83 70 58 43 47 53 48 60 74 86 90 101 103 100 109 121 139 137 152 155 157 165 172 170 177 175 173 172 169 177 177 173 178 169 172 171 175 174 167 159 154 151 152 148 147 140 132 127 117 99 85 94 98 92 69 61 79 120 49 8 24 19 18 19 32 70 80 76 78 77 80 77 75 77 77 81 59 62 58 38 25 19 23 27 18 2 117 218 106 86 102 105 93 79 64 52 45 51 54 47 59 60 75 82 95 85 94 116 121 127 137 154 140 159 173 162 166 170 168 173 166 174 170 167 169 166 160 167 172 166 162 155 146 146 146 145 143 136 133 118 110 89 83 93 85 79 56 73 88 134 93 3 18 23 22 22 13 23 62 76 78 81 77 79 78 79 79 76 61 56 35 17 24 20 21 26 7 23 161 216 100 94 102 106 99 86 72 61 51 47 49 54 53 46 52 59 73 69 69 93 105 122 122 144 139 135 156 154 153 163 159 165 163 160 167 156 154 160 158 163 157 156 150 146 141 143 143 134 137 124 118 112 97 80 83 80 66 54 80 77 97 161 132 31 12 22 27 18 18 28 12 41 76 74 77 75 77 78 78 81 56 30 21 19 23 27 21 22 14 75 179 218 98 96 105 103 101 95 80 66 60 52 50 50 54 51 44 52 53 54 59 58 89 107 120 125 132 130 144 142 150 154 159 158 156 149 157 155 154 153 153 153 149 149 143 137 130 132 132 123 129 118 110 102 80 74 73 64 54 64 99 81 98 186 139 72 5 20 26 22 16 21 22 16 27 68 71 77 74 79 75 81 36 20 20 22 23 26 31 5 45 108 178 211 99 102 107 107 109 94 88 78 63 61 47 50 51 57 49 48 46 47 51 45 61 80 95 108 121 127 136 136 137 139 148 146 153 144 151 150 145 145 146 147 144 143 131 125 128 124 115 116 126 113 103 79 68 62 66 54 64 78 106 79 95 201 126 117 23 18 21 21 19 22 25 20 13 25 39 51 67 75 77 76 22 20 24 25 27 25 25 9 95 115 164 222 96 109 114 109 103 108 98 86 73 66 58 49 54 50 51 50 48 47 48 42 47 48 74 80 96 120 119 122 123 120 129 134 137 137 135 135 132 135 134 134 134 129 124 113 120 113 107 111 115 103 75 57 64 54 57 62 77 89 103 74 117 209 116 128 50 12 18 21 23 16 22 23 19 18 22 21 27 41 59 72 21 23 22 23 25 28 14 16 135 121 137 236 134 99 118 118 110 112 102 95 80 75 61 60 54 50 51 48 50 49 50 43 49 40 47 49 67 91 96 99 112 106 120 117 117 120 116 120 123 119 118 117 115 112 109 107 103 102 96 104 89 71 53 55 58 63 62 72 84 91 102 59 145 212 99 129 97 3 17 24 20 23 17 25 19 18 18 22 25 20 20 38 26 16 29 24 24 32 14 39 157 138 94 218 206 97 119 123 121 118 109 103 84 83 72 67 57 59 51 53 50 40 52 52 47 45 45 38 40 61 67 79 94 93 100 100 102 99 98 102 107 105 98 100 99 99 93 95 89 87 85 71 59 44 59 56 65 67 70 78 95 96 99 58 175 193 101 123 124 12 13 22 19 20 21 23 20 17 19 21 19 25 23 25 24 21 28 24 21 34 8 74 156 161 81 186 235 144 108 125 123 127 121 110 95 82 81 72 62 63 54 56 53 52 47 51 50 53 48 46 41 42 47 46 55 60 69 75 78 72 70 84 82 81 82 82 80 79 73 76 71 55 54 49 49 52 64 69 71 66 76 91 103 101 93 63 208 161 106 122 139 20 18 14 24 23 15 22 23 17 23 18 19 23 19 24 22 22 24 27 22 32 7 93 159 149 124 114 237 210 108 126 124 122 124 119 105 96 90 85 71 70 65 57 52 48 53 52 44 53 57 46 46 46 45 39 48 41 45 49 54 48 50 62 49 57 47 55 52 53 50 49 46 47 51 52 62 55 75 74 72 76 88 95 93 101 82 85 215 131 118 120 140 34 15 19 20 19 21 15 21 23 23 16 20 20 18 21 20 30 25 24 19 32 9 103 160 123 175 58 214 237 169 98 126 127 125 126 110 104 97 94 86 69 73 63 61 51 52 55 47 52 52 51 47 47 47 47 48 45 45 41 42 43 38 46 47 36 44 43 45 43 47 46 45 61 66 59 64 71 74 77 77 83 90 97 96 108 73 121 206 96 136 115 134 38 14 21 22 21 17 20 17 24 19 20 18 19 21 19 