P2
92
112
255
140 134 135 136 133 136 133 134 136 137 130 132 132 136 137 133 132 135 135 134 134 128 123 132 136 98 44 36 35 36 39 29 38 30 34 32 34 33 40 27 42 25 24 31 38 42 31 34 44 45 38 44 45 57 90 124 111 100 118 122 124 124 128 126 127 130 131 127 124 131 130 130 128 132 131 131 130 131 132 126 131 129 131 129 130 127 130 128 128 129 126 128 140 136 135 137 134 135 137 135 135 136 135 131 132 134 136 134 134 135 132 136 132 132 133 129 104 56 35 36 33 36 39 25 32 30 30 33 33 35 35 34 36 28 29 24 32 31 34 32 33 42 36 40 43 45 41 43 111 84 106 115 109 111 124 130 128 127 126 129 121 130 130 130 128 128 130 128 130 127 129 127 129 131 127 127 128 129 129 128 128 127 126 128 142 132 137 139 135 136 136 136 134 134 137 131 133 133 132 133 136 130 129 131 136 126 131 105 51 35 37 34 32 35 35 24 33 32 26 32 32 32 34 32 35 29 31 30 24 29 29 27 32 32 35 35 46 34 29 18 30 53 51 75 117 109 111 125 130 130 124 132 123 127 131 128 131 128 129 129 131 127 131 129 128 130 130 127 128 128 128 126 127 126 128 128 136 135 139 132 137 135 138 132 134 137 132 135 136 137 135 138 131 136 125 133 136 121 74 51 40 37 31 31 32 37 30 27 32 29 30 30 35 28 28 35 30 29 34 25 28 25 30 28 29 33 29 36 42 26 31 25 24 23 31 28 46 95 88 104 118 129 130 126 125 121 132 128 131 131 131 127 132 128 131 130 128 130 130 129 127 130 128 126 129 126 128 128 132 136 133 135 137 135 140 133 136 136 134 133 132 136 134 134 131 133 130 127 123 71 46 40 33 31 34 31 30 36 31 30 31 32 27 32 34 29 26 36 26 30 30 31 25 29 25 31 28 31 32 33 33 32 28 31 29 26 26 30 22 38 44 47 42 77 106 126 124 117 128 129 128 131 131 129 130 128 131 131 126 131 130 129 129 129 129 127 126 129 127 126 132 136 135 138 136 137 135 135 132 137 132 128 138 132 135 134 135 131 130 107 60 40 46 47 33 31 35 30 34 35 30 28 33 31 30 30 34 26 31 30 30 30 31 36 32 25 27 30 32 31 31 30 25 36 30 35 30 28 25 30 30 21 33 37 30 29 33 66 117 117 126 126 125 129 129 128 129 129 131 129 130 130 128 128 130 130 130 127 126 129 127 126 133 139 134 135 138 136 133 134 134 127 133 130 130 136 138 134 127 113 87 50 41 32 49 44 34 33 32 31 34 40 28 29 33 35 28 33 32 25 32 32 32 38 31 30 43 32 29 24 36 29 32 28 28 33 32 29 37 32 22 29 38 24 28 30 35 30 32 24 28 83 122 126 128 126 125 128 128 125 131 128 128 129 125 129 127 127 125 123 127 125 126 124 136 136 133 139 135 138 136 136 131 130 131 134 131 132 120 86 61 47 46 36 39 38 49 45 31 32 31 31 35 37 31 31 34 33 33 32 33 33 37 30 31 45 31 32 30 36 28 28 32 29 32 26 32 31 32 32 31 30 31 19 44 40 18 40 27 37 28 29 27 28 45 89 134 125 126 124 124 122 123 125 128 130 125 128 128 126 126 126 128 126 127 124 136 134 135 136 135 137 137 136 133 131 132 129 125 110 63 36 36 40 38 37 36 38 43 38 35 30 33 35 34 35 35 27 37 31 30 33 37 32 44 35 29 45 34 32 31 27 34 31 31 24 37 33 29 32 29 35 26 27 34 24 30 48 23 46 37 32 33 29 28 25 34 28 73 130 125 121 129 124 129 125 127 127 129 130 125 133 125 128 127 125 128 127 135 133 135 135 136 135 137 134 134 129 133 133 97 46 37 38 36 28 42 33 39 39 36 33 33 32 32 33 38 40 34 29 35 34 29 33 38 34 43 40 26 49 52 32 31 27 39 31 31 26 39 41 25 35 33 36 28 23 31 28 29 41 44 42 69 23 48 25 33 28 31 40 17 67 126 120 124 125 125 126 123 128 127 130 128 126 127 126 127 127 124 129 135 134 133 134 138 136 132 129 138 127 120 85 41 31 37 36 36 30 38 39 36 37 37 36 34 32 30 37 42 43 35 32 32 36 27 39 36 32 46 42 29 48 65 31 40 28 33 40 28 30 41 44 31 31 36 36 31 26 27 35 32 32 55 38 68 39 42 43 23 30 30 36 36 34 57 105 127 129 124 124 124 129 125 128 130 129 126 127 127 127 127 126 135 135 136 133 136 138 131 130 139 120 75 36 32 32 42 36 36 35 39 37 36 38 37 41 35 35 25 36 49 56 36 33 40 36 31 34 45 32 55 44 33 35 83 40 41 36 27 48 33 32 36 63 45 23 40 44 28 30 25 41 32 34 34 54 57 64 33 48 36 22 35 41 33 41 47 34 90 131 124 118 126 125 124 127 126 127 126 125 127 125 125 127 136 132 135 136 131 131 132 140 121 76 32 33 34 35 45 39 39 41 45 37 35 42 33 44 34 37 28 41 54 60 43 35 44 40 33 30 55 33 64 52 39 33 84 40 55 40 28 43 43 36 22 64 65 21 39 46 39 30 31 36 39 31 41 42 58 54 35 54 42 25 27 51 34 36 49 59 19 78 130 120 123 125 127 125 126 128 126 129 127 127 126 126 135 134 137 136 135 131 133 119 70 40 32 37 37 37 49 33 31 50 49 38 46 42 41 42 41 47 28 48 56 66 50 44 49 44 36 37 61 36 66 63 58 49 62 59 61 47 33 43 45 40 37 43 92 30 34 52 55 28 33 40 46 39 55 44 50 40 39 67 51 35 19 46 43 31 40 67 36 29 75 136 125 123 128 124 124 129 125 124 127 127 125 127 134 134 131 136 132 136 130 59 44 39 36 37 36 43 47 48 34 41 54 40 49 44 44 46 52 53 34 56 61 70 53 48 62 41 38 50 66 51 53 77 66 61 68 71 67 61 38 50 50 52 51 30 77 46 39 49 71 34 30 48 41 49 49 52 47 28 46 66 71 35 24 35 53 27 40 55 40 43 26 101 128 124 125 123 122 128 125 122 125 124 126 128 135 135 134 135 132 130 72 29 36 41 41 38 44 36 49 39 45 47 43 40 52 42 48 44 60 53 47 58 68 67 57 49 72 47 44 53 72 65 51 79 78 65 88 66 75 76 54 50 65 58 69 49 50 62 49 51 69 44 36 49 36 47 46 59 34 34 45 53 67 52 24 30 56 27 43 45 49 38 45 26 115 126 125 123 124 124 125 121 120 124 120 124 136 132 134 137 128 96 32 32 42 37 48 48 44 42 47 51 43 48 42 45 47 43 49 44 53 53 57 59 57 71 56 56 66 61 47 54 69 67 57 75 66 69 74 86 64 74 67 53 57 72 70 60 47 68 51 58 65 57 45 57 30 57 40 66 39 36 34 45 55 69 42 28 43 31 35 52 49 38 37 31 58 135 124 123 123 123 123 126 123 124 126 124 133 132 136 137 115 58 32 35 37 45 52 55 42 49 54 51 45 51 37 48 45 48 51 53 49 53 64 56 54 60 65 59 68 69 60 49 74 72 64 64 67 54 62 85 64 57 71 69 49 69 68 52 61 61 50 53 65 61 58 50 41 65 49 66 41 46 35 45 43 70 59 26 43 36 34 54 49 35 40 38 33 120 129 122 121 121 125 125 121 128 123 122 127 131 136 130 103 38 42 46 45 49 60 51 43 52 54 48 52 51 48 46 46 53 43 58 40 60 64 49 48 58 71 53 72 71 61 46 69 74 61 54 62 52 41 87 65 59 60 79 47 63 60 43 61 72 40 50 54 63 57 51 40 66 47 66 64 46 43 48 54 62 64 38 45 39 38 53 54 35 48 31 35 69 134 119 121 124 119 124 120 127 122 122 135 134 132 122 72 36 38 56 55 55 59 55 53 58 52 48 63 49 55 48 60 51 42 57 34 52 62 52 38 50 65 50 56 65 63 50 62 66 61 54 50 49 37 77 64 56 53 67 53 49 49 43 40 73 45 36 51 60 58 60 34 70 43 59 73 61 54 52 48 64 64 48 33 50 39 47 61 44 49 34 39 36 102 124 123 120 128 120 117 121 123 121 128 136 129 95 67 46 45 55 57 57 60 57 59 55 54 54 58 56 62 54 53 51 39 47 33 50 55 43 40 46 60 47 49 55 64 58 47 58 55 47 55 43 38 55 62 53 46 58 51 43 48 40 30 58 50 36 42 54 53 66 28 67 51 57 60 61 63 60 39 64 67 39 32 50 49 53 69 70 64 49 45 40 48 127 120 121 124 121 120 120 118 122 129 126 121 63 57 55 51 54 58 59 63 50 58 59 53 57 66 56 67 54 44 51 40 42 37 52 48 41 40 53 47 47 45 47 60 57 44 54 55 40 42 46 34 54 64 48 40 51 51 35 50 37 31 37 55 28 42 40 46 56 30 55 53 55 59 55 69 66 34 70 60 37 38 54 52 59 64 59 47 37 36 51 32 92 127 126 121 120 123 120 120 123 126 130 96 35 54 57 54 54 59 61 57 55 61 47 56 56 65 55 63 48 47 44 42 43 40 50 42 40 38 52 42 45 39 46 41 54 45 52 49 38 38 46 30 41 64 46 36 41 48 40 37 40 30 29 44 34 41 39 40 48 33 36 61 46 61 54 59 66 49 55 53 44 39 60 58 59 54 51 40 31 39 43 21 55 120 124 125 117 118 121 116 120 128 126 68 31 52 53 58 59 59 54 57 52 61 49 56 59 62 53 57 47 48 46 45 40 42 47 36 39 33 54 36 40 40 40 36 51 45 52 46 37 32 46 30 37 51 44 41 39 37 44 32 37 34 31 34 37 37 36 32 46 38 25 65 37 55 53 47 68 55 43 46 44 45 69 51 47 61 43 46 29 42 49 11 41 99 122 123 118 115 121 118 123 132 101 42 38 45 57 56 66 59 47 61 48 53 52 54 57 55 58 52 55 42 44 36 47 45 46 44 42 37 48 42 40 39 40 36 51 43 49 44 38 32 41 37 32 46 45 47 38 39 39 33 31 36 33 30 41 32 37 36 42 36 25 61 30 48 49 49 67 50 45 41 49 54 56 42 52 56 36 49 25 43 50 17 35 58 127 115 118 116 119 119 121 121 74 32 38 50 50 58 61 59 36 66 53 55 48 62 59 57 59 54 57 49 50 48 52 46 45 51 42 43 44 45 43 47 43 49 54 50 54 46 46 36 37 35 39 40 49 46 42 44 40 37 39 30 40 36 43 41 38 37 37 34 27 54 37 37 50 49 65 46 39 55 44 49 49 43 48 59 38 42 35 43 46 26 39 28 105 111 124 111 123 123 123 106 60 35 44 54 45 61 59 54 43 59 58 61 53 63 69 58 60 64 62 62 59 53 57 54 55 52 56 59 60 57 59 51 66 67 59 54 54 55 48 49 39 40 48 47 50 49 57 51 49 45 44 37 51 44 55 50 47 45 39 40 37 40 37 38 54 56 58 55 55 81 62 53 54 53 47 57 42 38 35 50 41 33 42 20 85 109 111 115 124 123 116 92 49 42 42 55 62 51 57 58 52 60 64 68 63 63 67 63 68 62 70 64 70 76 74 66 68 69 79 95 85 91 82 80 87 95 81 68 70 68 66 61 51 60 48 68 64 71 74 75 76 55 60 56 63 64 68 64 69 61 55 51 55 39 45 39 53 50 56 58 47 57 57 56 53 56 45 46 46 35 32 41 38 40 39 19 60 116 107 108 115 122 119 73 51 41 45 58 57 58 58 58 54 59 71 63 68 77 73 65 68 62 75 80 95 104 105 111 104 95 120 135 132 120 130 116 124 130 134 109 93 93 89 87 74 89 66 79 98 103 102 103 102 92 90 92 103 100 99 103 95 94 84 75 83 50 55 47 59 50 62 62 49 51 51 42 56 50 49 56 49 35 36 35 42 45 34 26 38 104 107 118 107 119 122 65 44 51 47 46 55 64 53 48 55 72 80 76 72 85 79 73 72 75 69 78 100 117 132 139 148 131 139 156 162 130 151 155 155 152 163 137 113 123 116 108 104 109 97 106 116 125 124 137 125 134 118 131 124 134 136 128 129 118 112 100 95 83 66 56 66 63 67 63 57 62 61 55 59 57 42 47 42 39 36 35 43 44 28 28 43 91 103 112 114 111 122 55 54 52 45 54 61 57 61 51 72 82 80 73 86 87 87 94 79 85 89 98 100 121 127 148 166 178 139 154 161 159 159 177 167 170 154 164 146 144 150 138 143 144 139 125 131 137 139 155 152 140 145 149 131 142 145 155 141 132 130 124 109 91 76 71 84 69 80 66 67 60 68 57 62 60 54 44 41 36 47 37 44 30 30 23 44 88 101 99 107 109 122 52 59 52 53 56 65 68 58 57 77 78 69 83 89 96 97 92 97 101 103 100 110 111 134 149 160 173 153 139 168 153 145 169 158 178 158 164 166 159 160 159 151 159 154 152 145 152 160 161 167 160 154 173 160 155 139 159 156 132 125 112 110 88 82 91 87 87 80 70 72 66 74 64 51 63 64 48 49 40 45 40 37 32 30 26 37 90 94 116 104 112 117 56 54 57 54 56 67 69 56 64 76 73 77 90 84 97 106 103 124 120 123 113 116 121 145 157 166 169 161 140 168 155 147 160 157 170 159 166 155 154 153 150 150 163 157 157 154 165 161 166 174 172 159 181 169 159 154 146 172 152 130 111 107 104 92 94 85 84 78 75 69 76 69 72 61 62 62 54 43 43 36 36 33 29 30 25 26 89 89 114 108 114 116 57 56 52 50 61 63 68 62 72 82 79 85 87 91 103 118 119 123 125 122 119 126 134 152 157 162 158 164 147 153 158 141 163 167 178 166 174 167 164 164 152 162 173 162 162 163 180 163 166 179 177 169 183 171 163 164 158 169 161 141 123 107 111 94 96 87 81 73 72 70 70 76 67 65 58 66 51 49 38 33 33 34 30 29 31 18 62 94 116 107 113 116 60 47 55 48 49 59 70 69 73 76 81 83 81 96 117 122 122 118 122 124 134 133 142 165 159 161 179 173 172 171 172 150 191 183 185 179 178 181 176 176 160 170 172 168 173 170 182 179 164 181 184 180 183 178 174 173 169 176 169 152 130 117 109 98 87 79 76 71 67 68 60 65 72 62 61 63 70 50 51 35 29 38 25 29 33 27 33 93 110 104 108 113 57 49 52 49 46 57 68 65 77 70 80 79 81 103 119 120 116 119 131 127 144 148 156 175 164 174 185 181 191 186 166 166 193 195 190 185 180 187 181 180 166 173 167 176 179 173 185 185 172 179 185 184 185 180 182 179 175 179 177 170 143 128 114 104 96 81 74 69 60 64 65 69 66 68 64 62 65 63 49 41 30 31 32 25 29 31 21 81 111 108 106 115 48 48 53 51 40 53 54 61 71 68 78 78 85 104 113 129 116 128 133 131 149 159 172 183 179 183 191 188 193 195 181 164 196 198 194 185 180 189 183 181 161 173 172 181 183 179 188 188 183 176 187 186 187 186 187 182 179 182 182 174 157 138 118 112 99 93 76 71 64 63 61 60 70 69 63 63 64 57 62 42 33 32 29 30 28 36 10 74 114 107 106 114 46 48 52 56 44 48 47 56 65 64 79 75 87 114 117 120 134 125 145 145 157 169 179 186 186 189 192 194 192 197 192 185 188 195 191 189 183 186 184 183 159 168 177 187 184 184 186 188 182 181 187 185 189 187 188 187 180 176 186 176 166 148 130 117 111 101 92 83 73 63 62 59 64 71 64 59 65 55 61 52 44 28 25 28 31 35 18 59 116 103 107 107 43 44 44 59 45 42 43 60 58 64 72 75 92 119 125 131 138 132 148 153 164 176 182 186 188 190 191 197 195 198 192 195 192 192 188 193 186 189 186 184 170 168 176 187 189 184 188 189 181 189 188 185 190 189 187 187 183 179 182 177 169 163 140 132 119 108 95 98 73 66 65 57 66 60 62 56 64 50 55 45 46 31 26 26 32 36 19 39 118 95 108 112 42 45 48 53 45 40 37 64 55 59 73 72 95 126 137 141 146 137 149 160 166 176 182 184 189 189 191 193 194 199 190 192 196 192 189 192 190 189 188 182 180 170 179 187 190 185 188 188 185 190 191 185 188 188 186 187 181 179 180 174 166 168 146 141 126 118 98 98 87 65 62 58 61 53 60 54 60 53 46 43 40 41 29 26 32 32 25 26 110 97 106 109 41 48 50 42 48 36 40 56 52 56 69 72 101 132 147 145 147 158 151 166 166 175 184 180 190 189 189 193 197 191 191 192 192 193 192 189 191 189 192 180 182 176 178 185 187 185 185 188 185 190 187 186 187 184 184 187 184 179 179 174 170 163 156 144 137 125 114 102 88 87 60 62 52 56 50 51 53 53 44 38 39 35 36 29 32 30 26 18 100 102 101 105 50 46 42 41 39 37 40 51 44 49 66 76 102 136 150 146 151 163 158 164 170 171 174 180 186 189 187 193 194 191 190 193 194 191 190 191 191 188 192 181 180 180 178 185 186 186 189 189 184 186 186 185 187 183 182 183 179 178 175 170 170 165 158 147 139 133 119 107 100 89 80 53 57 51 45 47 39 51 37 37 32 31 33 30 34 31 26 19 83 102 100 110 52 44 50 37 36 31 43 45 42 47 65 84 110 133 152 145 159 168 164 170 171 170 169 181 183 185 190 192 192 191 188 193 190 191 188 188 189 187 191 184 181 182 182 185 187 185 190 186 181 183 184 183 186 182 180 182 177 174 168 170 170 160 157 147 137 140 128 114 107 101 88 62 56 47 42 43 32 45 36 32 33 30 30 29 30 30 30 17 71 108 94 112 52 42 49 36 33 37 35 42 40 44 62 84 120 130 145 149 164 171 160 174 177 176 177 175 182 183 191 190 189 191 186 192 189 186 187 186 186 187 189 184 181 183 182 186 187 188 186 185 178 181 182 181 184 182 177 182 175 171 166 166 167 159 156 147 136 137 133 123 108 108 91 85 49 48 39 34 34 38 30 32 33 27 28 30 27 32 22 29 67 105 91 106 53 38 53 32 33 38 36 35 39 38 67 86 120 131 142 157 165 171 162 178 179 176 176 177 182 182 189 189 187 190 187 188 189 186 189 185 188 184 185 183 183 178 184 184 186 188 186 182 173 177 181 182 182 180 177 178 175 168 164 165 161 159 153 147 143 133 138 126 107 109 97 86 60 49 34 34 35 34 32 30 28 28 28 29 27 28 26 31 71 102 92 106 55 38 49 40 31 36 36 33 33 42 55 88 119 130 141 164 167 173 164 176 178 180 179 179 182 183 185 187 188 188 187 187 186 187 184 188 187 184 184 183 185 176 180 186 185 183 182 177 168 176 180 180 181 172 172 173 171 165 163 163 159 156 148 146 145 133 137 131 110 108 99 84 70 48 37 31 31 28 33 26 28 27 27 25 29 28 25 38 80 87 94 104 54 48 36 45 31 33 37 32 33 42 47 86 118 132 142 168 169 170 168 176 181 183 179 180 179 181 186 185 187 187 185 185 185 185 184 185 185 184 183 184 183 176 183 185 181 182 181 177 176 177 176 173 172 169 167 169 169 163 159 158 159 155 149 144 140 138 132 133 121 103 102 84 76 51 36 32 29 30 30 27 25 25 26 24 31 29 25 47 80 73 99 103 58 44 34 45 29 33 34 33 36 38 46 79 119 128 147 165 172 169 172 179 177 182 180 182 183 184 183 185 187 187 187 182 185 185 183 186 185 188 184 181 184 177 183 182 181 181 177 178 173 175 173 171 168 168 165 159 163 158 159 157 154 152 146 144 138 137 132 132 124 106 94 87 74 55 35 31 26 30 30 25 22 23 30 26 23 31 18 57 90 73 99 102 62 43 34 34 32 32 31 30 34 35 43 85 115 129 153 163 171 170 174 179 175 180 183 183 183 186 185 186 187 188 187 186 187 186 185 186 187 187 185 184 185 181 180 182 181 179 178 177 177 171 174 172 167 166 166 163 159 159 157 159 152 150 147 143 140 137 134 131 119 113 94 80 73 51 33 29 26 28 26 26 25 22 30 29 24 27 22 63 86 71 93 100 58 50 35 24 32 27 30 33 31 31 45 78 114 134 151 160 169 170 174 176 182 180 184 184 187 186 188 189 188 189 186 190 190 186 188 187 191 187 187 188 187 185 183 182 184 181 176 175 176 174 172 173 174 172 171 167 167 164 166 158 150 150 144 144 140 137 137 129 122 115 97 84 62 50 35 27 22 30 23 29 21 28 29 26 27 22 29 55 80 78 92 101 65 52 38 29 26 29 35 28 32 31 47 86 112 126 150 159 162 165 172 175 183 184 184 185 188 189 192 190 191 193 189 192 189 190 191 191 189 189 189 187 188 185 187 186 186 181 181 180 179 176 177 176 177 175 173 169 172 167 170 162 155 152 142 145 142 135 137 130 119 113 103 83 67 45 35 27 24 22 23 26 26 32 24 25 30 25 18 57 67 90 94 102 66 55 37 28 27 31 34 33 27 36 53 94 124 124 147 162 168 168 176 176 183 184 184 185 185 187 192 193 192 194 192 191 192 193 192 193 189 190 192 191 189 187 191 187 185 181 183 182 180 179 182 179 180 178 178 173 175 171 169 162 159 156 149 146 144 142 133 128 120 114 99 88 63 42 37 24 27 21 25 23 26 24 24 28 30 24 19 61 64 96 86 101 58 50 41 29 28 36 30 38 28 37 57 101 131 137 138 156 171 173 173 177 175 179 179 183 184 186 190 193 194 192 192 189 195 193 192 192 192 188 193 193 191 188 191 185 186 184 186 183 179 181 183 179 181 182 181 182 176 173 168 166 163 160 153 147 146 146 134 128 119 113 99 83 61 40 34 30 22 24 23 24 21 23 28 28 27 27 18 53 73 89 83 107 57 45 46 29 31 36 35 34 29 41 73 115 135 139 156 160 161 150 151 160 167 163 171 180 179 181 185 186 190 192 190 191 194 191 190 192 190 189 192 192 190 190 188 186 184 185 186 182 180 183 184 183 181 182 185 182 177 175 176 168 162 158 156 149 147 142 137 125 117 111 101 78 59 42 27 32 25 17 26 20 24 21 28 26 26 30 28 34 96 82 84 109 52 50 39 34 34 36 37 37 27 45 101 128 137 139 159 155 121 107 114 126 137 138 155 161 164 171 177 180 184 186 185 186 187 185 185 190 187 189 190 191 189 189 188 184 182 182 185 181 181 182 184 183 182 179 179 176 170 172 168 166 157 150 147 149 141 142 135 129 116 112 99 82 55 42 31 27 26 21 22 21 23 22 26 25 28 26 30 21 95 80 86 106 55 52 40 29 35 37 35 33 27 61 121 137 143 142 137 107 74 79 85 84 86 94 99 113 122 139 144 149 161 168 175 173 175 174 181 183 185 186 189 186 188 187 184 181 178 176 179 178 177 179 181 176 177 170 168 161 159 164 156 153 152 144 138 136 133 131 133 126 117 112 97 84 57 42 33 26 24 24 22 17 22 24 24 29 24 31 30 15 78 84 90 106 55 54 46 27 38 34 33 30 24 82 135 150 145 106 79 59 71 66 71 61 65 66 66 63 72 80 79 82 100 122 125 143 151 156 169 175 180 185 184 183 184 184 180 175 169 166 168 165 162 162 162 157 148 142 133 124 122 122 124 113 119 110 110 110 106 102 121 129 118 106 106 92 60 45 38 28 22 21 21 18 20 23 26 24 30 30 22 19 53 87 94 97 56 60 43 34 34 38 35 27 27 98 145 157 118 69 75 89 90 84 73 68 71 66 63 55 60 63 56 60 60 77 93 102 115 145 158 169 177 180 183 185 183 181 175 170 164 159 153 148 143 131 121 112 97 88 86 75 68 70 71 77 75 75 69 69 73 64 88 115 123 108 105 101 75 54 38 30 23 22 21 21 20 19 25 29 25 31 23 21 45 86 98 100 59 60 43 34 42 36 36 20 33 108 154 152 84 76 110 141 144 132 128 110 107 99 96 79 70 63 61 61 60 70 76 87 89 114 145 162 171 174 180 185 183 179 170 166 158 158 149 132 115 91 83 74 64 61 60 57 52 51 48 54 46 54 56 53 56 55 47 79 112 110 105 103 87 61 41 30 30 20 24 17 23 18 24 27 30 30 29 18 46 80 98 101 49 52 43 35 44 33 35 20 40 131 157 130 95 109 137 154 157 148 145 142 130 126 123 117 112 96 79 77 86 86 96 98 98 97 130 157 171 176 177 182 180 174 168 161 155 150 143 114 93 76 68 60 57 54 53 49 52 50 51 51 53 53 59 62 68 63 49 37 63 105 106 106 99 71 51 23 31 22 22 22 20 27 20 26 28 27 29 16 51 66 100 102 49 44 40 38 37 35 37 16 56 141 156 117 110 126 136 141 138 125 116 101 91 81 76 74 80 79 77 80 95 101 110 113 113 108 130 155 170 171 178 184 178 169 163 153 151 140 128 97 95 83 79 74 66 68 62 66 73 81 88 89 94 98 101 109 103 104 77 58 33 66 107 109 106 85 57 23 27 24 22 23 21 20 27 27 29 24 25 19 52 53 99 98 54 37 35 40 33 37 34 19 72 151 154 126 122 130 126 124 115 90 73 68 63 64 53 49 51 49 49 56 66 85 106 115 112 118 122 148 168 178 182 183 178 170 164 152 143 133 115 96 94 96 95 92 90 90 88 95 98 107 108 115 117 120 121 118 121 116 120 102 66 37 86 111 106 97 63 28 23 24 19 23 22 24 27 26 25 21 24 19 50 55 98 98 40 40 32 42 31 37 42 19 92 156 157 134 126 123 118 106 88 76 53 57 61 77 59 38 44 41 28 31 51 71 78 102 112 114 111 141 171 183 188 189 186 176 174 153 140 120 106 92 93 99 95 88 77 67 63 61 57 66 73 85 89 101 110 109 115 116 114 115 104 52 64 106 113 101 68 33 19 24 20 22 21 24 27 27 23 18 23 22 41 73 82 102 33 36 34 38 35 40 41 30 104 157 159 143 136 127 113 103 92 66 53 66 110 146 93 39 70 50 52 20 60 81 86 87 99 113 111 125 173 190 193 197 190 185 175 154 132 113 94 94 92 89 73 73 72 49 46 48 41 45 49 50 64 71 72 88 103 104 103 110 112 88 67 100 111 105 78 30 21 22 24 20 21 23 27 23 18 21 19 26 20 91 72 99 30 31 34 36 33 38 47 26 114 160 162 161 149 139 120 112 93 61 66 100 145 181 102 46 42 42 53 33 66 136 82 89 87 111 114 120 168 197 199 202 196 189 178 154 124 102 96 96 83 76 80 79 83 48 37 39 26 39 34 41 38 54 65 57 76 96 100 105 107 102 88 97 114 109 87 29 22 24 26 21 18 30 24 22 23 23 19 24 11 86 65 94 30 30 35 37 35 46 52 27 122 162 167 178 174 164 150 134 128 70 76 105 134 190 134 60 51 61 50 39 105 142 114 78 93 111 122 122 165 199 201 204 199 192 179 143 116 97 104 96 88 84 77 104 138 48 52 78 40 47 23 52 60 47 38 62 63 77 96 102 102 104 104 107 115 110 94 36 19 21 23 25 22 22 26 27 25 31 19 29 15 71 69 86 30 33 30 37 38 49 51 30 129 161 175 178 184 178 172 160 154 111 85 84 109 148 159 84 68 68 57 78 122 122 106 99 99 129 133 138 171 196 204 204 201 198 175 133 110 106 109 108 90 70 92 134 154 52 38 52 40 50 20 76 117 71 38 36 73 80 91 97 103 107 108 108 117 116 96 41 18 22 23 24 21 22 18 18 18 26 24 25 22 49 81 68 31 31 34 38 35 43 57 33 127 160 176 178 185 182 180 172 165 135 129 108 102 117 131 135 131 131 117 128 130 124 115 122 135 145 144 155 179 196 206 203 201 195 174 128 113 111 118 118 96 79 94 128 154 87 42 61 46 44 33 104 127 96 53 36 53 90 90 101 107 118 112 115 119 114 102 45 18 25 26 24 20 27 13 16 16 20 20 20 29 28 77 65 28 32 36 34 36 45 63 45 122 160 177 181 183 184 182 175 165 155 145 139 138 131 122 120 115 119 123 124 126 126 127 126 139 158 158 168 184 197 206 203 201 195 171 126 115 120 124 120 118 112 104 110 123 119 83 65 67 56 77 116 105 87 59 58 69 90 93 106 119 122 124 125 121 118 102 51 24 25 30 23 25 22 16 14 15 20 18 18 22 26 55 56 25 34 37 36 32 35 95 48 116 164 177 180 182 185 180 178 170 159 150 148 142 141 138 128 128 126 126 125 123 131 125 135 151 178 169 177 185 198 205 203 202 192 164 133 117 122 125 119 113 131 127 128 123 113 116 114 111 98 96 102 84 76 75 86 107 110 112 118 129 137 129 129 126 120 103 47 28 29 27 31 34 18 20 16 16 19 17 19 23 26 61 75 27 38 37 39 32 25 118 59 103 162 179 181 181 184 184 178 178 170 162 151 146 140 134 133 129 129 126 122 125 129 143 162 180 185 175 181 187 201 205 204 196 189 156 135 122 123 131 132 119 119 132 139 138 125 116 108 108 102 99 111 105 100 102 102 118 126 128 130 136 141 132 136 124 121 107 49 31 32 43 45 38 17 21 18 16 15 22 14 20 33 50 83 32 31 41 33 37 18 97 83 89 159 170 181 182 185 187 189 181 183 174 159 148 144 136 134 130 131 127 133 139 158 176 189 192 181 179 185 187 200 205 202 201 187 149 131 129 129 138 151 147 131 121 131 142 140 134 126 122 120 118 120 112 113 111 118 125 131 136 139 142 145 140 136 129 125 98 50 43 34 52 55 33 16 18 21 13 18 18 16 21 32 56 74 31 35 42 36 35 27 41 104 86 153 171 176 182 184 188 190 191 195 195 190 184 176 169 162 160 163 165 172 177 190 190 194 188 184 183 187 187 199 207 202 202 182 145 133 133 133 145 157 168 161 139 130 124 129 132 129 123 123 119 120 117 118 110 128 138 139 143 143 143 144 142 136 125 123 88 44 57 36 74 53 18 21 19 19 16 17 23 18 18 31 51 70 34 33 40 36 35 28 22 124 83 149 171 179 178 185 188 189 195 195 197 197 196 192 190 189 185 188 189 190 192 195 194 194 188 185 185 187 188 202 207 199 201 176 139 134 132 133 142 157 174 175 171 152 141 129 124 122 119 125 119 126 124 123 126 140 141 145 147 144 148 143 141 134 126 117 80 47 54 45 79 62 15 20 21 19 19 20 18 19 20 18 50 62 29 34 42 27 34 30 7 118 91 139 168 179 180 184 188 190 197 199 199 201 202 200 200 200 195 198 198 195 193 195 196 193 189 187 184 187 189 202 206 200 198 171 133 135 134 130 143 157 173 181 187 178 173 154 142 134 124 129 128 131 136 135 140 143 146 151 149 145 146 143 135 130 123 113 64 55 51 62 97 53 14 26 16 25 17 20 18 21 18 19 60 60 28 34 39 29 33 25 7 100 96 129 161 176 181 188 186 192 196 201 200 199 202 201 202 200 200 199 198 196 194 194 194 193 189 189 186 185 190 201 207 200 194 164 134 135 133 131 142 156 171 177 184 186 188 188 181 178 166 165 158 162 161 166 166 162 160 149 151 147 143 142 135 130 121 105 55 65 55 86 109 35 15 26 21 21 19 20 20 16 20 18 60 59 30 37 33 30 30 24 6 81 110 120 156 168 181 185 189 194 195 200 202 200 202 202 201 201 200 199 197 196 194 196 193 190 190 188 186 185 188 201 206 198 188 156 133 139 136 135 142 155 170 179 183 182 187 189 187 187 185 188 181 179 176 177 174 173 166 156 145 149 141 138 135 125 118 86 51 76 80 93 92 13 19 25 24 18 21 22 18 20 19 13 55 64 38 28 29 31 25 27 11 51 126 110 152 164 179 186 191 193 196 199 200 201 202 201 202 198 196 198 197 194 192 192 190 186 187 184 185 186 190 198 205 197 181 152 136 134 136 133 141 156 166 179 180 182 184 185 189 187 191 191 190 184 182 180 172 174 165 157 150 143 141 136 130 123 112 72 57 90 91 87 72 4 24 26 23 20 18 20 19 15 23 10 47 74 31 23 25 31 22 25 24 20 114 110 145 161 179 182 187 191 194 198 198 200 199 197 199 197 195 195 196 186 187 188 182 178 178 179 184 190 192 201 201 195 178 153 141 136 136 135 133 153 157 175 176 181 182 187 185 186 191 191 189 187 183 180 179 170 168 158 154 149 140 135 123 122 94 69 89 94 95 91 52 6 26 29 20 22 23 19 21 20 21 16 30 73 29 24 23 26 26 22 22 16 43 114 141 156 172 179 187 189 195 195 197 198 198 197 195 194 193 192 190 181 178 173 161 167 173 174 187 191 197 201 201 191 180 158 147 135 131 128 131 142 153 169 174 178 184 186 185 184 188 189 187 187 182 178 179 174 169 160 156 145 137 132 119 118 75 79 106 96 98 84 27 9 23 30 23 20 22 18 19 20 22 16 23 63 27 22 24 23 20 24 17 23 7 74 142 153 167 176 184 191 191 193 192 193 196 192 191 191 187 182 181 172 160 150 140 163 177 172 188 195 201 201 200 190 179 167 149 133 124 124 118 127 139 162 171 177 178 184 184 187 189 187 186 185 184 178 181 176 167 161 153 144 135 129 119 110 69 87 105 97 107 63 7 16 23 23 25 24 18 22 18 21 22 17 18 47 26 21 22 21 22 24 15 25 8 52 139 144 164 174 177 184 186 192 188 189 190 191 186 184 177 174 166 156 146 135 145 182 188 176 187 199 200 202 197 190 180 171 159 126 128 133 115 106 130 154 163 170 176 184 182 189 186 181 178 182 180 177 176 170 160 153 149 139 132 121 115 97 68 97 107 104 100 24 13 15 18 26 23 25 17 19 22 19 19 23 16 26 28 25 21 21 21 20 19 19 7 41 136 139 156 170 173 178 181 185 183 187 186 183 182 175 171 162 151 142 142 129 165 191 188 179 188 198 198 201 196 185 183 171 157 131 140 152 130 102 117 145 160 166 172 180 183 183 183 175 172 179 172 172 164 164 158 149 143 136 126 120 108 84 89 102 108 109 66 12 16 18 14 27 21 23 20 22 19 19 20 23 16 27 25 28 26 18 25 17 19 17 11 41 133 139 148 163 167 175 173 180 179 179 183 171 175 166 160 151 132 133 136 145 168 185 188 184 187 197 198 198 194 184 182 172 154 141 146 161 145 98 105 137 151 158 166 176 176 179 180 174 170 172 169 164 163 155 151 143 137 132 125 115 103 78 98 111 100 83 21 18 18 18 13 25 21 24 21 25 19 20 25 18 16 29 27 22 22 20 23 16 24 18 15 32 131 131 142 153 156 164 165 174 172 169 170 163 154 151 141 131 123 119 138 166 161 154 174 183 189 193 195 194 190 182 175 168 157 145 138 150 144 105 106 128 138 150 158 162 173 175 169 171 163 164 164 158 160 150 149 135 132 126 122 109 99 80 97 88 54 21 19 18 17 18 16 19 21 21 27 20 25 17 21 23 19 28 24 24 20 17 21 19 22 20 24 18 131 129 135 149 150 157 158 162 163 159 158 151 141 131 127 119 110 120 149 170 184 145 126 163 183 187 188 186 183 173 162 156 142 131 123 128 127 109 116 120 128 139 146 155 161 162 161 163 161 158 156 154 152 144 140 136 128 123 116 105 94 85 60 32 16 17 19 18 22 15 19 20 21 20 24 19 25 21 18 22 18 28 18 23 21 23 19 19 16 27 28 12 127 133 132 140 144 151 155 154 155 149 146 137 131 120 114 106 117 145 167 178 180 175 125 123 152 171 178 171 165 159 144 131 112 105 91 105 116 121 121 115 117 126 138 144 150 149 154 156 154 151 149 147 143 137 136 132 125 116 114 99 100 80 12 14 15 17 19 17 22 16 16 20 19 23 21 19 25 25 17 21 18 21 20 17 30 22 16 19 17 25 26 1 116 135 128 131 136 140 146 143 145 139 134 127 118 111 107 120 147 166 174 179 180 180 155 121 119 136 141 138 134 131 116 98 84 77 88 111 123 122 125 115 104 111 124 131 136 143 145 147 150 142 141 140 136 132 130 125 119 115 111 98 104 68 5 18 14 16 16 21 14 21 13 22 17 19 22 20 22 23 19 18 20 9 28 15 39 20 19 17 26 25 27 3 97 139 130 126 127 136 138 138 133 131 122 119 107 111 123 140 157 175 178 182 181 183 169 137 129 123 116 109 107 104 92 91 81 90 114 120 119 126 127 125 113 103 111 124 123 135 139 140 143 136 136 130 131 128 125 119 114 109 108 95 103 48 6 17 16 15 16 19 18 18 19 15 25 17 23 22 18 25 20 16 19 14 32 19 35 24 18 20 26 27 26 8 71 141 136 124 126 129 138 135 130 126 118 109 108 125 134 150 165 178 184 182 184 185 176 152 142 125 112 103 97 101 95 96 96 112 118 123 125 131 129 130 130 107 104 115 118 126 130 135 132 135 130 126 126 120 117 115 110 107 102 99 101 33 6 20 18 13 17 18 19 18 18 18 23 17 21 21 20 18 29 15 18 15 32 22 28 26 25 26 27 26 19 14 45 138 140 129 125 132 136 131 125 124 111 105 120 131 133 147 165 177 184 181 184 186 184 168 151 134 119 111 113 109 106 107 115 121 123 119 133 133 130 135 136 128 100 105 109 114 122 127 126 129 126 122 117 117 109 113 106 106 104 100 90 20 12 21 17 14 17 20 18 20 18 19 22 18 21 22 24 21 23 25 17 18 36 19 27 32 30 30 27 21 16 28 24 122 138 136 129 129 137 130 126 124 109 115 110 119 124 141 168 177 182 181 183 182 187 179 164 146 126 129 124 118 114 115 121 127 125 127 135 138 133 137 137 129 122 92 95 111 112 119 123 124 122 119 109 107 109 111 109 105 106 107 69 10 19 17 15 19 12 21 16 22 19 19 22 20 20 22 24 24 17 25 17 15 37 22 27 36 31 28 22 17 18 37 13 96 141 139 135 130 136 133 134 127 122 116 101 107 110 131 163 174 176 181 184 186 186 185 176 157 142 136 135 130 126 130 125 129 133 132 136 137 130 135 130 127 119 105 77 110 111 116 119 119 120 116 110 101 107 107 112 103 103 104 46 10 16 17 20 17 14 19 18 21 19 18 23 20 18 24 21 24 21 21 21 17 34 25 33 34 37 27 17 16 29 40 23 50 136 137 136 132 132 139 139 143 137 107 98 113 95 81 113 136 150 166 173 174 183 180 174 167 152 145 143 145 142 143 139 137 141 137 139 138 130 134 120 120 105 109 86 81 115 116 118 120 117 119 108 103 110 109 110 104 100 94 18 19 14 21 17 17 18 17 19 20 22 16 24 19 21 18 26 23 21 19 25 20 39 34 44 37 30 28 17 24 35 40 25 18 115 133 137 134 134 131 142 144 141 109 109 135 139 122 70 67 99 110 121 128 132 133 142 157 157 152 148 147 141 141 134 133 137 136 134 131 130 123 117 109 95 95 95 73 114 121 120 121 119 119 108 108 113 111 109 104 104 63 14 18 16 18 22 14 20 19 18 22 22 19 25 19 20 24 23 27 21 18 22 24 38 39 43 34 27 25 24 31 43 32 30 10 73 136 133 137 135 125 136 141 138 115 124 151 157 168 131 83 62 72 83 110 107 111 114 117 125 132 128 122 117 113 110 109 107 110 109 107 104 96 86 75 65 90 96 83 118 124 123 122 116 117 109 114 115 113 106 101 98 31 14 19 18 19 21 15 20 20 18 24 19 23 21 19 22 22 24 30 18 21 17 23 40 40 30 34 25 23 28 36 38 27 31 23 19 123 131 135 133 131 129 131 136 125 137 158 170 174 178 147 114 86 67 124 127 118 122 107 110 110 106 102 100 102 87 97 87 79 86 81 79 54 51 73 99 107 104 93 125 135 129 120 115 112 110 112 115 107 105 100 78 12 18 21 19 18 21 13 24 19 19 24 21 19 23 18 21 21 27 25 25 22 14 24 43 39 19 34 21 24 34 43 35 29 32 37 12 68 123 129 134 134 129 126 137 137 147 160 172 174 176 173 152 135 115 100 109 133 158 144 112 101 100 100 102 104 83 116 104 59 63 58 60 73 94 123 122 122 110 106 135 136 131 120 116 112 111 114 113 107 103 89 54 9 19 19 23 20 20 21 17 22 21 22 24 19 21 22 17 19 27 25 24 20 17 18 34 41 21 23 23 31 39 37 30 34 38 43 20 15 105 126 131 134 132 133 140 143 151 163 167 170 175 172 165 147 152 140 104 114 148 145 124 120 137 133 130 115 100 116 98 66 71 83 92 107 126 130 130 132 117 115 134 134 125 115 113 107 113 112 106 105 96 74 40 12 20 20 21 20 20 22 18 21 24 22 22 19 25 18 13 22 25 26 23 22 22 15 36 46 21 21 26 34 42 30 39 39 38 50 22 16 51 118 127 130 137 139 144 148 152 164 163 166 167 170 170 155 154 155 158 139 124 119 103 111 138 129 122 105 86 96 96 100 92 101 113 125 130 128 139 131 121 120 130 125 122 109 109 109 110 109 104 94 78 61 26 16 19 21 25 18 25 18 21 23 17 28 20 22 21 22 15 23 30 24 23 22 20 19 33 34 20 23 26 43 33 29 35 42 35 36 25 22 14 78 122 125 134 140 147 151 161 159 161 159 157 169 168 162 152 142 145 162 166 150 129 111 115 104 111 102 109 108 106 101 101 112 125 129 128 135 136 132 122 117 126 121 112 107 107 107 104 103 96 79 63 50 10 22 21 23 22 22 21 19 24 22 25 21 20 23 19 20 21 18 26 28 20 23 20 17 32 22 23 22 34 38 31 27 31 36 23 30 20 20 18 19 100 122 128 137 150 157 161 160 159 158 161 154 163 162 158 147 134 132 143 147 136 137 129 123 116 113 108 100 98 104 110 125 124 126 126 136 132 129 122 120 124 113 109 103 107 102 100 96 86 62 53 30 13 22 21 27 24 21 22 19 23 22 24 20 18 24 21 22 17 21 22 25 21 23 20 15 23 21 26 25 35 32 25 28 32 27 21 22 18 21 19 14 32 113 122 135 149 156 168 160 164 163 163 153 146 162 155 152 139 125 118 117 112 116 112 107 107 101 99 102 110 118 124 128 123 125 133 137 131 128 125 123 117 114 108 105 103 102 95 86 62 31 28 16 15 25 21 28 22 24 23 19 25 22 25 17 21 23 21 18 19 21 22 23 23 24 17 19 25 20 30 28 34 24 22 28 30 21 17 20 15 20 19 22 4 71 118 126 142 147 165 169 164 166 168 158 147 150 151 152 143 131 122 117 114 114 105 109 108 110 116 116 121 126 125 121 120 130 134 135 130 124 125 122 115 110 102 98 97 94 83 75 48 9 19 17 20 28 23 27 19 26 23 23 21 22 25 19 19 20 21 19 16 23 21 21 22 26 17 15 16 23 22 34 33 20 25 25 25 19 20 16 18 19 17 20 7 56 108 116 136 147 157 172 169 170 170 166 156 148 140 141 142 136 129 127 122 121 117 120 119 122 123 120 124 119 121 121 126 130 136 131 130 122 123 119 110 106 104 95 98 77 82 69 40 13 16 33 23 28 24 25 21 25 27 20 24 24 26 18 23 19 19 19 18 23 16 23 22 22 17 11 19 21 21 31 36 30 30 31 25 17 20 18 18 21 15 22 5 58 114 106 121 142 155 167 173 172 172 172 163 160 143 136 135 130 126 125 126 121 125 119 121 121 119 115 116 115 121 126 131 134 134 132 127 125 119 110 108 104 97 91 82 79 85 61 22 24 27 27 26 23 26 23 19 26 25 24 26 23 24 18 23 22 16 18 19 20 21 20 23 19 18 13 20 23 26 29 28 31 29 25 23 16 17 20 18 18 18 15 10 60 117 116 108 121 143 160 168 176 173 177 171 167 165 157 141 135 125 127 121 120 120 120 116 114 119 116 120 125 126 127 136 135 133 130 126 122 114 104 103 96 90 79 89 87 82 46 19 16 18 22 23 22 26 17 25 21 28 20 24 23 22 23 22 17 17 14 19 23 18 20 20 21 17 14 57 31 21 33 24 28 19 24 21 20 16 16 19 16 19 21 6 66 116 119 119 109 130 152 167 174 176 180 177 171 172 168 162 153 142 135 129 126 125 128 124 127 125 130 125 132 130 134 136 134 134 129 124 114 105 99 94 87 84 91 94 87 67 35 18 18 19 23 20 23 21 20 24 23 23 25 21 21 22 23 22 19 16 20 16 22 18 20 22 17 20 19 88 39 30 26 42 32 25 19 20 18 17 17 16 19 18 28 10 76 116 123 126 121 108 139 160 171 174 182 180 177 178 177 177 177 171 165 160 155 152 145 143 142 139 139 131 134 135 136 140 135 132 128 119 101 98 91 84 86 96 93 93 81 51 28 18 21 19 21 20 23 17 24 24 26 24 23 21 26 20 23 20 16 21 20 15 20 21 21 18 14 25 22 63 48 47 19 38 31 29 23 29 20 24 19 18 22 24 37 34 84 117 121 125 127 119 110 145 160 170 180 184 187 180 182 188 187 183 183 180 184 177 172 164 165 154 145 140 142 141 144 136 134 127 122 102 93 89 80 96 97 99 92 90 71 40 24 22 23 18 23 17 23 21 22 23 23 21 23 17 28 23 19 20 17 17 18 15 20 17 21 20 15 26 27 42 45 48 19 31 25 30 24 24 27 22 18 19 21 36 45 48 88 115 126 127 131 127 112 122 152 163 172 183 185 185 184 187 185 185 178 180 179 180 178 175 170 164 155 152 148 144 142 136 125 121 108 90 84 85 98 100 98 99 94 88 56 27 23 19 20 20 18 20 20 23 19 24 19 21 22 18 24 23 18 21 14 21 15 18 22 14 22 18 23 24 36 43 55 43 23 33 24 29 23 28 24 24 20 12 37 53 51 59 87 114 125 131 131 128 126 107 133 152 165 177 180 188 183 183 185 183 178 179 174 178 177 176 171 162 160 155 149 146 134 127 120 107 92 81 92 97 103 101 97 101 99 79 54 19 21 17 21 16 19 18 23 21 19 21 18 22 26 23 22 18 18 18 15 18 18 18 21 15 21 21 25 26 49 