P2
92
112
255
137 135 136 136 136 138 136 126 139 128 132 127 137 137 133 136 142 136 82 59 86 56 40 30 37 38 29 39 23 35 31 30 27 31 30 27 28 35 28 30 32 32 27 29 31 27 27 33 29 30 30 34 28 33 27 27 35 30 35 28 35 19 33 35 73 78 109 118 119 126 128 131 129 129 131 129 129 133 129 130 132 130 132 128 128 130 130 127 131 129 131 128 137 135 133 133 136 135 137 124 129 134 121 125 127 136 132 133 138 129 59 40 41 41 35 32 38 36 29 41 37 30 29 30 29 28 29 24 34 34 30 29 32 28 28 32 24 32 28 30 34 26 35 34 29 27 33 30 28 37 32 30 33 29 30 32 35 40 43 78 113 125 126 126 125 132 129 131 129 128 130 126 132 131 131 130 129 128 131 127 128 133 128 127 137 134 136 136 137 137 132 123 126 128 133 109 118 125 123 126 129 94 33 31 39 36 35 33 37 34 27 42 53 33 31 25 35 28 26 29 33 33 37 26 33 31 32 32 27 33 28 29 34 30 28 34 36 28 28 37 30 35 31 30 28 36 28 37 32 45 34 28 46 80 117 131 121 131 129 131 128 129 128 129 130 129 129 131 129 129 127 128 130 130 125 127 136 135 135 139 134 138 134 119 117 115 115 113 99 105 92 81 66 42 29 32 36 34 34 30 34 36 30 32 54 33 35 26 34 28 30 29 33 35 35 33 29 33 34 32 26 35 29 28 31 30 38 31 33 42 32 25 45 29 41 27 29 28 38 29 36 35 42 46 28 33 44 80 115 122 131 131 124 130 130 129 127 129 124 123 126 126 130 130 129 125 131 126 134 138 133 135 139 134 130 131 127 113 100 89 68 47 43 40 46 40 31 35 33 37 31 30 32 36 36 31 52 32 34 29 31 34 28 32 29 38 35 31 29 33 34 34 29 36 32 38 36 33 33 46 31 30 53 34 28 34 39 32 32 32 34 25 35 34 30 51 50 31 50 38 55 78 120 129 130 122 125 127 127 126 125 122 127 125 127 132 129 128 130 127 137 135 134 138 135 136 135 121 125 121 101 45 31 26 29 39 34 29 31 44 39 38 36 30 31 35 28 36 52 40 34 29 29 38 29 31 27 35 44 32 29 33 38 35 32 44 34 39 49 35 31 44 43 34 37 44 32 29 33 44 33 35 37 29 25 39 40 28 48 47 56 60 39 31 58 102 126 125 125 131 126 128 128 129 128 130 126 127 130 127 130 128 131 135 136 134 137 133 129 127 120 101 57 31 23 24 31 39 31 29 36 33 39 30 42 28 36 33 35 28 55 51 43 31 28 40 25 29 32 38 48 39 27 37 34 36 33 38 50 32 49 44 35 41 73 46 40 42 38 33 28 40 60 30 43 38 32 30 41 38 37 46 50 67 48 47 43 47 84 121 127 124 123 125 126 126 130 127 130 125 127 128 131 125 135 134 136 135 136 132 127 128 110 52 35 26 29 27 34 35 28 32 42 29 31 35 36 33 35 40 33 32 47 51 42 36 29 40 27 24 41 38 56 45 34 40 37 41 38 27 59 35 38 59 42 36 69 66 44 49 44 39 31 33 53 57 27 59 38 32 34 44 42 37 39 61 61 48 51 45 48 87 126 125 121 125 126 121 126 129 129 123 129 127 127 127 134 136 136 136 132 132 134 105 64 33 36 25 30 26 36 37 27 33 39 41 28 37 37 32 33 39 31 34 41 46 43 42 28 44 33 27 39 44 57 63 37 35 45 37 50 27 51 53 46 52 60 44 49 87 57 59 50 49 37 39 35 66 48 44 48 42 36 40 54 43 41 51 66 38 50 63 39 63 85 120 132 132 124 128 124 125 124 123 128 127 123 128 137 134 138 133 133 123 115 64 31 31 33 26 33 25 37 37 29 29 38 48 30 44 42 35 33 40 33 36 42 32 40 51 31 46 41 32 35 48 54 75 46 36 47 47 42 39 49 66 55 54 72 61 55 78 77 55 75 48 46 46 37 47 64 45 52 38 49 39 60 58 49 58 60 37 40 76 48 50 66 70 107 131 125 128 128 128 122 120 124 129 126 125 133 133 130 126 122 95 53 42 28 31 32 35 33 26 37 36 34 30 40 42 37 44 43 39 40 36 37 38 51 31 36 54 35 46 49 34 43 55 51 76 68 39 50 56 41 49 50 66 71 50 72 74 74 66 80 65 80 63 48 53 57 46 79 52 58 44 40 57 63 62 54 67 62 45 38 64 83 47 49 60 50 99 131 124 122 127 118 117 130 124 126 131 136 129 138 129 79 41 30 35 40 24 33 38 37 35 33 37 38 29 36 42 38 43 48 37 44 42 37 47 55 36 40 56 45 47 60 37 43 61 55 75 71 45 48 65 52 46 56 63 74 59 63 76 75 75 67 78 61 86 50 62 63 69 69 77 47 74 36 57 66 63 60 53 81 59 33 59 64 68 51 53 56 52 83 120 120 118 122 123 125 121 120 120 129 134 126 96 44 26 35 43 39 28 31 35 36 33 39 41 36 27 41 42 45 35 42 35 50 45 31 47 60 27 47 56 40 50 65 38 52 57 65 64 69 54 47 70 64 47 57 65 70 75 53 63 67 68 74 84 54 80 72 60 69 67 73 69 58 66 54 38 77 67 54 54 66 71 42 42 58 57 64 54 55 54 45 86 119 117 123 124 125 125 124 128 126 132 109 60 32 21 41 44 41 29 36 35 38 38 42 48 41 29 40 37 44 38 41 35 48 48 29 50 55 35 45 55 37 50 56 51 49 58 62 58 57 58 56 63 69 53 56 71 62 73 61 52 57 63 65 75 64 62 77 77 56 61 59 68 60 55 64 23 62 83 54 68 52 76 56 43 46 60 71 54 53 54 64 27 108 114 119 124 128 125 123 127 131 131 77 40 30 28 35 45 43 35 36 39 38 47 42 52 44 29 47 44 45 44 45 35 50 43 32 55 55 32 46 58 41 53 51 43 62 48 62 52 55 51 65 58 61 64 66 63 63 65 53 56 56 55 59 62 59 59 64 72 71 54 53 53 68 51 48 47 37 67 69 57 58 66 66 59 48 52 67 58 61 53 58 46 62 119 113 112 119 126 117 125 129 113 50 32 34 30 38 40 41 45 33 41 39 62 44 49 49 34 56 52 48 47 47 39 55 45 34 61 56 27 48 59 44 61 37 43 66 46 56 53 52 53 61 56 56 62 66 55 63 62 55 49 43 54 49 55 59 48 63 58 73 51 50 44 45 69 39 49 28 55 69 57 63 47 81 68 58 42 62 65 58 49 61 67 37 105 130 111 115 125 124 123 136 83 29 38 34 41 45 34 55 45 41 40 39 62 57 44 50 50 59 53 47 53 48 50 56 44 44 54 48 36 52 52 40 59 33 40 56 42 53 47 47 54 58 51 46 56 56 52 55 62 58 51 31 52 45 44 57 41 58 50 59 54 45 46 32 73 54 33 46 33 62 55 43 55 62 75 63 55 46 61 53 55 62 67 39 71 128 125 115 126 120 121 110 48 27 46 45 42 47 48 40 53 41 49 37 55 63 54 52 58 60 48 53 56 54 50 60 51 57 54 49 46 50 48 38 54 30 37 55 41 48 43 43 51 55 45 41 54 49 52 47 54 57 52 38 38 47 36 56 51 41 45 52 54 45 41 33 44 58 31 41 37 52 60 35 51 52 68 53 66 46 61 53 61 57 63 58 51 109 123 125 108 124 121 85 39 19 57 48 48 51 49 48 53 43 61 40 41 64 60 53 52 61 56 54 59 57 53 58 61 50 64 52 53 45 49 37 45 32 37 52 31 49 35 41 50 44 45 36 51 42 51 45 48 62 51 43 29 48 30 42 62 36 44 41 53 47 38 34 26 45 40 26 38 36 52 35 43 55 54 55 59 57 52 60 54 60 66 62 36 94 123 127 114 114 122 54 29 19 40 67 52 57 54 53 50 55 62 54 37 56 67 48 61 58 48 45 58 57 56 62 65 50 67 52 48 44 39 40 40 29 39 44 42 41 31 39 46 46 38 36 40 43 42 46 46 48 47 47 31 39 38 27 52 37 36 33 44 41 42 34 29 27 46 26 32 31 44 38 25 59 44 55 52 54 48 72 43 62 61 62 57 56 114 122 122 111 122 42 33 31 36 64 50 48 55 53 55 55 58 57 43 49 60 62 53 64 42 40 59 54 62 59 67 49 65 51 42 42 42 37 39 33 38 45 41 38 30 37 41 39 34 41 33 37 42 44 38 46 43 43 29 34 37 26 36 51 31 36 34 43 33 36 28 26 39 35 25 31 39 43 16 56 48 52 43 52 57 65 31 57 65 65 59 35 73 125 120 112 119 41 39 39 34 58 49 44 59 57 60 55 59 46 52 41 61 58 49 63 55 35 57 52 68 56 61 52 56 51 41 44 38 39 43 34 37 46 41 35 35 35 38 36 39 41 40 39 32 41 34 45 40 40 30 31 36 28 34 52 33 37 30 40 33 31 35 28 28 34 28 29 36 40 25 38 50 40 44 49 55 60 31 52 68 47 61 39 39 103 118 104 106 40 38 29 38 39 58 32 63 57 56 47 54 46 42 48 66 62 62 64 55 54 71 50 59 70 55 51 58 49 46 47 42 43 41 43 48 37 38 36 43 35 39 44 37 47 31 45 37 43 40 41 45 38 36 29 39 31 37 42 41 31 33 39 32 37 32 32 30 35 30 34 28 46 33 30 46 29 46 46 55 54 43 57 63 46 60 52 32 74 103 94 95 44 35 38 37 45 45 35 49 61 54 46 51 46 50 50 82 73 63 69 66 58 79 58 57 72 59 55 58 58 49 53 53 52 49 46 45 48 49 43 46 42 46 44 45 41 42 47 40 54 52 42 46 43 38 36 40 36 39 39 44 35 43 37 38 35 35 43 38 41 38 41 31 42 31 28 38 29 44 55 63 67 53 60 68 51 59 63 39 65 99 102 101 49 39 44 40 51 49 32 42 52 56 46 51 49 61 60 73 101 66 63 78 66 89 69 67 69 71 57 68 64 68 59 63 66 57 61 53 63 58 53 58 64 57 61 50 56 62 68 63 68 64 50 53 57 44 46 48 41 50 43 58 51 56 52 59 45 46 53 53 52 58 47 43 43 41 29 37 36 46 51 54 48 49 48 52 49 48 49 40 42 85 99 107 57 46 38 58 48 63 51 38 38 46 61 53 59 61 79 84 105 87 70 81 84 84 82 80 70 76 76 69 80 72 83 84 91 69 79 70 87 87 77 95 106 93 90 84 89 106 94 99 95 96 74 72 73 64 62 67 59 52 68 78 76 83 80 97 62 75 75 80 76 84 74 67 67 57 49 43 38 45 46 46 42 47 47 54 50 46 40 36 30 75 101 95 53 52 40 49 56 52 73 36 40 45 60 69 58 63 92 97 97 102 74 86 97 91 90 86 95 68 96 75 75 87 99 100 112 99 102 102 114 112 103 128 139 130 113 124 126 135 123 123 128 128 97 103 88 88 84 88 83 66 92 102 108 110 112 110 100 105 106 118 102 108 100 95 92 80 67 53 50 53 46 46 44 56 47 49 52 51 47 40 33 63 106 99 54 49 48 47 55 53 48 57 48 50 73 70 74 76 88 84 105 109 105 81 95 95 97 94 111 83 90 95 86 86 88 102 124 121 131 143 152 158 130 147 156 163 142 139 155 157 147 132 161 156 126 111 124 115 108 112 112 106 107 120 128 121 142 125 123 124 134 130 124 137 121 113 110 103 84 59 62 65 62 55 49 52 57 44 47 40 47 44 30 52 100 109 49 59 49 52 53 57 48 42 62 58 67 76 80 83 91 88 106 104 102 95 96 97 98 106 104 110 91 107 109 103 103 99 122 130 144 153 170 185 162 157 152 164 165 144 163 166 151 147 159 160 146 137 140 140 136 138 137 137 135 138 139 138 147 144 137 142 152 143 138 139 142 116 105 98 88 69 73 75 74 69 59 52 48 43 48 38 41 36 33 51 95 111 44 59 60 49 55 57 52 50 60 61 76 87 77 87 96 96 95 98 99 96 107 112 111 113 109 110 103 97 106 111 112 113 113 137 149 145 162 176 174 164 166 151 166 138 158 170 143 154 156 155 152 143 149 157 139 150 153 146 142 142 147 143 154 161 149 151 164 159 151 136 155 137 121 105 91 90 76 72 72 69 68 56 55 43 45 38 49 34 21 45 88 106 48 46 68 58 55 58 63 51 55 63 76 88 73 93 95 94 92 89 94 103 109 117 114 113 118 113 118 118 130 131 124 123 125 142 149 149 160 175 183 169 172 152 153 154 148 179 145 144 160 154 152 138 138 147 131 135 155 144 146 151 152 150 163 168 163 153 168 167 158 150 149 153 135 123 99 91 78 73 69 58 64 56 59 52 45 49 42 47 21 28 93 96 59 45 64 61 61 64 63 53 64 68 84 87 81 95 91 97 91 87 101 106 113 118 109 115 120 133 132 133 139 133 119 131 139 144 154 159 158 175 185 178 172 163 156 154 141 155 150 138 158 150 164 146 157 153 139 147 161 154 160 161 157 163 160 171 170 170 173 174 164 159 159 151 146 133 112 98 81 64 66 55 60 57 63 58 53 47 51 41 36 28 93 106 78 47 58 62 55 64 58 64 65 74 82 84 87 91 96 91 91 96 100 110 120 110 116 124 124 144 134 127 130 127 130 142 147 151 165 166 162 169 184 181 177 177 168 163 153 164 161 160 168 165 175 171 160 167 148 153 161 163 168 168 162 171 167 174 174 176 181 178 167 168 167 154 150 149 119 109 91 73 61 55 53 60 57 61 62 57 45 54 33 31 94 116 78 53 52 63 53 51 65 63 65 76 73 96 91 86 94 88 87 96 98 113 108 112 121 126 131 136 133 127 133 144 140 146 150 159 168 174 178 176 184 186 190 194 194 167 174 165 161 173 178 171 168 177 169 162 155 153 163 168 172 173 171 172 174 172 180 181 183 181 179 174 172 159 154 156 131 115 100 88 76 61 56 56 56 51 59 57 46 58 44 30 80 108 70 63 51 65 57 50 59 58 59 69 78 100 95 83 90 81 86 97 98 109 106 110 122 124 132 141 134 133 139 145 145 156 161 173 173 186 190 183 187 192 196 194 194 180 180 181 150 177 181 176 169 176 174 170 160 156 165 171 177 177 179 171 176 169 178 179 183 185 180 179 170 157 157 156 145 126 107 98 87 72 62 57 55 50 48 55 54 43 44 33 84 102 67 57 53 61 65 52 45 50 53 73 77 92 93 77 93 65 87 92 105 104 107 114 118 125 141 141 143 133 146 152 150 162 173 182 179 189 192 190 192 194 197 196 193 189 187 188 172 169 180 177 178 173 179 169 162 168 155 168 180 177 184 172 177 179 181 180 181 184 181 178 174 162 156 156 150 140 119 108 93 76 73 56 52 48 46 45 48 43 31 38 70 86 67 59 45 59 66 57 40 44 54 73 70 78 89 80 83 63 79 87 107 101 103 121 120 137 141 156 152 144 158 165 160 164 179 183 181 189 192 192 193 193 196 198 194 193 189 185 179 185 182 177 183 180 181 170 170 170 166 165 179 176 181 175 179 183 184 176 180 178 179 179 173 168 159 157 147 150 129 114 104 88 68 69 51 47 40 47 40 40 34 32 56 78 49 58 47 52 59 55 45 55 56 61 63 73 82 82 81 58 80 90 100 94 101 123 127 145 153 167 155 144 161 171 169 169 179 178 182 188 189 193 193 191 195 198 193 194 191 183 180 187 187 181 180 184 182 169 172 168 173 167 176 178 177 173 179 183 186 176 179 178 177 177 170 169 162 155 150 148 141 123 109 98 85 67 57 43 44 42 38 41 28 40 47 76 40 52 47 51 57 45 55 58 53 54 55 68 82 76 69 57 85 90 94 92 103 127 147 150 160 162 156 152 172 174 180 173 184 178 174 184 189 197 189 189 193 195 193 192 193 183 181 189 187 184 181 185 182 174 168 174 173 170 168 180 175 175 181 181 179 175 177 175 175 171 167 167 162 150 148 147 143 123 120 105 95 77 60 49 36 37 35 38 26 49 54 76 43 43 48 48 55 50 47 52 53 48 53 67 71 71 57 54 81 85 89 93 103 134 148 159 161 160 160 165 174 176 179 181 181 177 171 180 186 193 187 189 193 193 191 188 189 185 183 184 187 182 184 183 184 178 170 175 172 174 169 179 172 179 181 177 176 171 173 175 173 167 166 163 159 148 150 145 142 127 118 111 103 89 70 50 38 33 35 30 27 41 51 91 54 46 49 47 50 48 52 46 49 42 55 59 66 62 56 48 82 79 99 92 112 138 155 160 169 161 159 168 175 178 178 185 181 174 166 177 183 190 187 187 192 190 188 190 187 186 188 182 182 182 182 180 181 179 178 176 172 175 173 178 170 175 179 172 174 166 174 175 173 165 167 161 152 147 146 143 140 128 118 113 109 94 75 51 39 32 28 30 26 30 57 69 62 41 54 45 47 50 47 48 44 43 51 58 57 58 48 52 75 77 105 103 121 139 155 162 169 169 163 170 172 177 179 180 183 174 173 180 185 183 188 188 186 188 188 185 186 185 184 181 181 174 177 181 178 178 174 177 173 174 177 175 173 172 177 170 167 165 170 170 165 165 163 160 151 143 144 138 138 128 121 114 111 100 77 56 34 34 29 28 26 25 52 81 52 48 46 56 45 48 38 40 40 42 48 49 56 52 45 50 70 87 102 110 119 139 157 159 169 167 167 172 173 178 181 180 182 171 179 181 183 186 184 187 187 187 186 184 183 184 185 179 184 176 179 176 178 176 169 178 174 173 177 175 174 174 174 161 159 165 169 166 160 161 158 154 149 148 140 137 131 131 121 117 110 101 84 47 34 33 27 25 26 20 44 102 41 55 43 62 49 42 40 35 33 45 42 48 46 48 45 58 71 78 104 121 120 138 156 160 167 168 170 172 176 182 180 184 178 176 181 182 184 186 184 183 186 184 184 183 181 183 182 179 180 179 176 174 177 173 173 175 174 171 170 177 166 171 171 160 155 167 163 161 157 152 155 151 143 146 139 136 132 129 125 116 110 101 83 55 29 29 29 21 30 23 29 99 38 46 46 56 60 44 35 45 33 38 44 45 42 44 38 60 69 78 96 123 136 134 156 159 161 167 170 173 180 180 180 183 177 181 185 182 183 183 183 183 183 183 183 180 180 177 179 179 178 176 178 174 172 176 173 173 173 175 172 172 163 167 168 160 162 161 159 154 153 150 149 147 141 142 138 132 129 129 123 118 109 104 85 49 33 25 27 23 25 26 28 75 58 35 42 47 53 46 34 37 37 40 38 41 41 34 49 50 70 80 99 111 141 139 158 160 155 167 172 178 178 180 182 179 181 183 185 184 186 183 182 182 182 183 183 180 180 179 177 180 179 179 177 174 177 170 173 170 173 175 173 170 164 164 168 160 159 158 156 153 152 149 145 142 140 141 138 131 129 126 123 119 112 106 84 45 26 24 24 26 21 32 24 61 62 42 29 37 51 41 33 35 41 37 32 43 33 37 47 47 66 85 96 109 131 141 142 164 167 165 178 180 179 181 180 176 183 186 184 185 184 186 183 183 182 183 184 180 181 178 179 179 178 178 176 179 173 173 177 174 172 175 171 172 164 166 165 163 160 158 158 155 156 156 150 147 146 144 138 133 129 124 123 121 112 105 85 43 24 22 24 24 24 26 32 44 63 51 32 29 39 45 28 37 37 34 38 34 34 37 46 49 63 68 106 118 129 131 140 151 168 169 175 178 180 183 178 180 183 185 188 188 186 187 187 182 184 185 183 183 182 184 181 183 181 183 180 181 174 178 179 179 174 173 172 170 168 165 164 166 160 159 159 160 159 156 155 151 150 148 140 133 130 128 121 122 112 107 83 43 25 19 24 28 18 23 51 35 62 46 38 26 30 33 36 33 36 34 34 31 31 42 40 46 57 69 109 120 135 144 146 140 158 171 177 175 178 182 177 183 186 186 188 188 187 190 187 188 187 185 188 185 184 185 185 182 183 184 183 180 180 177 181 179 175 179 175 175 171 168 169 166 164 164 164 162 162 159 158 155 153 152 139 138 130 128 126 122 108 107 82 34 26 22 24 25 20 22 60 47 58 55 35 33 27 22 35 34 29 33 33 36 38 38 43 50 57 79 115 125 143 152 153 161 148 165 173 176 176 175 178 182 186 189 188 190 187 189 191 187 188 188 187 188 185 184 187 185 187 184 184 181 181 183 184 183 179 179 180 174 172 171 170 167 167 169 169 163 168 164 166 156 155 148 146 142 135 129 129 119 112 105 81 25 22 27 20 24 25 19 45 61 64 67 41 24 32 26 27 34 30 31 35 39 42 38 40 53 67 90 116 128 146 154 158 159 167 157 175 179 182 180 179 182 188 190 186 189 186 188 188 189 187 189 189 187 187 183 188 187 186 185 182 181 182 182 185 182 180 180 179 173 175 174 173 168 169 171 171 164 173 172 172 162 157 155 147 138 136 131 124 120 111 104 73 24 26 25 19 18 26 35 30 65 63 68 48 25 25 27 25 27 28 34 34 42 41 38 46 60 75 100 116 137 150 153 157 159 173 179 170 178 179 179 183 176 184 184 181 184 183 183 187 186 184 186 188 185 188 183 186 187 185 185 182 180 183 185 184 178 181 178 176 173 174 176 173 167 172 171 173 170 169 172 171 159 154 158 147 141 132 132 124 121 113 104 66 26 24 24 23 18 22 44 43 67 49 62 55 34 32 29 24 24 29 34 45 40 41 44 57 68 86 111 127 143 152 155 159 165 175 179 184 178 159 160 163 169 172 166 173 183 174 178 178 177 177 182 180 181 184 181 181 184 180 181 180 183 182 183 182 180 182 177 174 173 174 173 172 169 170 174 170 169 164 161 153 147 151 144 141 133 124 117 117 112 117 103 70 16 25 26 27 20 17 60 64 84 47 57 57 34 32 31 26 26 30 37 42 46 42 51 64 82 114 131 136 148 152 157 160 171 176 176 166 141 121 118 123 138 136 132 143 157 149 159 164 167 163 167 169 174 174 174 171 171 173 175 176 179 179 179 177 180 177 175 171 167 167 164 166 161 162 165 162 158 151 142 134 127 130 124 120 116 104 101 93 99 105 106 71 15 25 25 28 20 15 61 72 90 53 61 47 39 26 30 27 26 30 42 40 47 47 58 81 105 131 149 155 147 159 161 165 171 167 145 117 98 92 95 99 93 88 88 91 94 101 105 113 111 118 120 136 145 147 153 153 154 159 167 173 173 177 173 177 176 175 168 165 159 155 155 151 153 149 144 138 130 113 104 89 83 79 76 78 74 70 61 63 59 86 98 74 15 21 29 24 26 9 56 87 89 56 62 51 35 36 29 26 28 32 42 40 48 54 77 97 118 146 157 163 158 163 161 155 137 105 82 77 85 78 80 79 79 70 71 72 65 67 70 73 68 67 63 76 93 105 113 125 131 147 160 165 169 175 173 180 176 170 165 158 152 150 144 135 131 119 102 93 77 66 61 58 51 48 44 46 42 45 46 43 41 44 79 75 13 17 28 21 28 23 45 87 90 59 59 50 40 34 32 30 29 34 43 44 51 63 89 111 134 160 164 168 167 156 148 112 85 80 86 94 96 87 86 78 70 76 73 65 63 53 63 61 59 57 53 59 64 84 95 93 109 131 148 162 165 167 171 176 175 169 162 152 146 147 140 124 108 81 70 57 55 53 49 53 43 43 39 43 39 43 46 51 50 40 43 64 16 18 24 25 20 36 65 86 96 59 57 62 48 38 32 33 31 42 49 43 50 76 105 117 144 160 171 169 171 145 103 86 94 113 133 148 142 137 133 121 112 110 106 104 92 86 76 60 66 61 71 64 82 85 96 87 99 111 144 155 164 168 169 175 173 166 158 147 144 137 134 114 82 67 61 52 51 44 48 44 52 55 61 59 67 72 85 88 82 59 36 46 19 18 23 22 23 37 76 88 100 62 59 68 47 48 39 32 36 47 46 46 52 86 111 130 154 166 172 173 150 114 101 109 126 142 164 170 161 154 148 144 136 129 122 119 113 109 104 86 83 81 87 95 101 103 105 109 103 115 143 155 163 164 171 175 173 159 153 141 138 131 118 89 79 76 74 70 68 67 71 76 80 93 100 98 109 107 106 109 110 102 58 42 20 22 21 20 29 36 89 90 104 54 62 67 49 52 40 35 39 47 44 52 50 96 119 136 160 168 175 160 130 120 125 130 147 151 159 154 151 136 124 117 103 95 81 73 71 67 71 58 67 69 87 94 105 113 113 114 119 120 142 151 165 170 173 177 172 161 152 139 129 122 102 85 84 89 86 84 79 75 77 78 77 80 89 88 98 102 106 104 106 116 79 50 20 18 24 19 25 38 83 94 98 54 57 64 54 55 45 40 45 47 40 53 57 104 123 147 164 170 169 149 131 132 139 144 139 136 132 129 113 97 83 72 71 67 65 58 48 45 44 43 37 48 53 67 91 108 110 110 117 120 135 152 170 179 178 183 177 167 158 140 125 106 90 82 89 89 73 72 56 43 48 43 36 46 44 52 64 65 86 92 96 103 98 67 18 18 26 23 23 42 79 85 90 65 54 64 63 63 42 46 39 48 37 56 68 111 131 156 167 170 169 152 138 138 140 136 126 124 113 97 87 77 66 60 60 78 89 65 48 38 39 34 28 34 50 65 67 93 109 109 112 118 129 154 176 184 186 191 183 177 163 143 115 91 84 83 80 73 72 71 57 38 32 36 32 31 34 36 45 51 61 83 93 98 99 91 16 15 23 25 20 33 71 82 86 61 56 77 83 68 46 42 47 42 44 52 73 116 141 159 171 172 170 153 143 137 137 128 116 110 92 93 83 59 60 68 92 130 148 96 60 55 44 47 35 23 85 64 80 80 100 110 116 122 121 153 181 193 193 198 193 183 173 139 105 85 86 71 78 76 87 102 90 62 30 45 40 16 31 45 37 47 56 69 88 93 104 102 27 11 23 21 23 28 46 63 79 45 73 110 101 67 41 46 42 47 44 51 76 121 146 170 169 175 167 164 153 151 140 125 114 112 109 87 64 60 78 114 146 167 185 115 49 55 44 41 39 33 108 101 65 86 96 112 119 124 123 151 185 197 201 201 199 189 177 135 94 92 86 82 82 83 127 148 100 54 34 51 31 25 39 90 34 35 59 75 84 95 103 111 32 15 22 21 27 26 58 74 55 33 93 114 90 47 46 45 45 47 46 46 80 124 147 171 169 175 177 179 174 167 160 146 128 127 131 109 72 66 103 124 147 165 190 153 74 66 52 41 41 68 119 110 79 77 111 121 123 121 138 157 186 197 203 202 201 198 186 126 94 109 98 74 87 104 137 164 122 65 48 41 35 23 60 102 49 27 54 79 91 105 107 117 41 12 28 20 15 35 47 84 93 21 111 111 66 42 55 47 45 51 49 42 90 124 153 169 171 182 182 185 186 182 179 173 165 158 163 153 111 87 96 106 112 137 170 174 121 62 65 66 65 102 115 98 96 94 116 132 128 134 151 170 188 198 202 206 201 197 193 133 94 116 105 88 87 93 116 139 142 71 40 43 40 41 91 91 58 44 59 78 101 115 117 124 48 16 28 23 7 42 49 72 92 16 117 87 53 55 56 53 51 61 45 48 80 130 154 162 173 181 185 186 189 189 186 187 178 175 177 165 148 129 131 120 108 110 132 137 137 118 123 117 115 118 122 114 116 120 126 135 138 145 171 183 190 195 200 206 204 199 195 149 100 115 115 110 107 102 105 110 107 98 90 88 84 79 88 67 65 68 96 99 113 124 122 131 49 19 26 21 7 44 59 67 86 11 95 73 55 62 58 52 61 74 44 46 85 127 154 166 174 180 185 189 190 191 188 190 187 179 179 172 162 154 150 149 137 132 134 125 120 114 115 117 115 120 121 122 124 121 132 150 149 157 180 186 188 195 201 205 203 201 200 161 106 114 111 98 111 109 114 112 109 100 95 91 97 74 85 89 87 90 111 117 122 130 125 137 57 15 36 19 10 38 62 70 81 10 71 79 68 67 58 54 73 82 48 44 84 126 153 165 174 179 188 191 187 191 190 193 187 186 179 168 167 162 154 151 147 146 141 135 133 123 122 124 121 117 123 127 126 137 153 169 168 169 187 189 191 194 202 207 204 197 197 169 111 116 119 104 99 108 118 124 125 119 116 112 112 108 106 106 100 107 116 126 130 131 132 137 65 10 41 22 12 26 70 72 81 22 26 103 80 60 64 60 87 68 59 47 74 126 145 160 173 181 186 192 190 189 191 191 192 183 180 178 178 169 162 154 147 142 137 130 131 124 124 125 119 122 127 135 152 169 180 185 176 179 186 192 190 195 200 207 206 197 199 171 122 113 131 126 111 102 110 114 123 122 121 112 111 110 109 106 100 114 124 134 130 133 130 139 67 7 37 26 11 17 70 72 87 25 19 103 86 57 66 75 81 78 62 47 72 117 139 156 169 181 181 191 191 188 191 192 193 190 188 180 176 170 162 157 146 147 138 132 133 124 128 122 127 134 149 166 178 191 191 188 181 185 188 193 192 192 198 205 205 196 202 177 129 113 131 139 136 119 118 113 114 111 116 110 113 113 109 114 113 123 133 133 132 132 131 140 65 4 37 24 16 12 60 75 77 25 27 50 79 69 104 103 65 79 81 57 62 110 138 149 162 171 177 186 191 189 190 192 193 195 194 194 195 196 189 184 175 171 157 157 152 152 153 158 165 169 182 188 189 192 191 189 190 190 189 193 192 189 196 206 206 198 200 178 130 119 126 141 147 148 136 129 122 116 114 114 114 112 119 120 127 131 135 134 133 132 124 139 53 4 26 30 17 11 40 89 67 31 37 42 60 76 141 115 64 81 97 60 57 105 137 148 161 170 175 186 187 187 188 191 194 197 194 198 200 200 197 195 193 192 183 184 185 179 182 187 185 188 191 193 193 194 194 189 190 191 189 190 193 190 196 204 205 199 199 181 131 121 129 144 151 161 157 159 149 143 135 135 133 135 139 146 145 144 141 133 134 130 128 131 42 8 22 30 21 10 33 79 80 34 34 45 51 80 147 120 91 86 111 71 58 104 129 146 151 169 176 183 187 188 187 192 195 193 197 197 202 201 200 201 199 197 196 198 198 191 195 196 194 192 192 195 196 198 194 193 192 190 190 190 194 190 191 204 206 199 200 182 136 119 132 140 152 161 166 173 172 170 165 165 162 156 152 156 153 152 150 136 132 130 129 128 26 12 21 33 22 12 17 70 82 31 40 33 41 105 128 121 107 109 112 89 56 96 128 134 150 162 170 182 186 188 188 191 195 195 196 200 202 202 202 201 201 201 199 201 198 198 197 197 197 195 192 194 197 195 193 193 194 194 191 191 191 190 193 200 205 199 197 177 133 126 127 139 153 162 168 171 175 178 175 179 178 175 167 164 159 153 148 139 132 130 127 122 10 13 18 30 25 17 16 46 82 39 32 29 38 124 117 120 94 112 109 95 65 91 128 133 145 156 166 180 182 185 189 192 194 194 198 199 201 202 203 201 201 201 201 200 199 198 198 198 195 194 192 193 196 195 191 193 191 191 192 191 193 188 193 195 201 199 198 171 135 125 130 137 149 159 166 168 173 177 176 180 183 179 169 169 160 155 149 144 133 130 131 102 7 14 25 25 21 24 18 30 67 37 28 40 19 108 124 128 89 108 108 105 69 85 132 129 140 152 160 176 176 179 188 194 193 195 199 200 201 201 202 202 202 201 201 201 200 196 191 196 197 192 192 191 193 189 188 191 189 189 189 188 193 191 194 195 199 197 194 173 141 125 125 134 142 155 165 168 175 174 172 177 179 178 173 168 161 160 150 147 135 132 129 82 7 18 25 28 19 22 18 27 47 34 35 41 23 47 123 141 96 124 128 113 85 82 127 133 134 147 155 171 173 177 189 192 194 193 197 199 199 201 200 201 201 202 197 199 198 194 192 194 193 188 185 186 183 180 176 182 184 181 187 188 189 192 195 196 201 196 194 173 142 128 121 126 136 151 157 169 170 175 173 175 178 174 176 170 162 159 153 146 133 129 128 57 10 22 21 29 21 22 13 40 37 37 39 33 23 12 92 145 111 134 144 127 90 85 129 132 136 142 155 161 172 174 185 190 192 191 197 197 198 200 199 198 200 199 197 198 195 190 192 192 190 181 173 173 161 155 166 174 182 177 181 187 190 194 197 200 201 195 192 174 154 130 120 112 128 141 154 158 170 172 176 177 176 169 170 166 164 157 151 143 130 130 116 35 13 26 17 28 22 24 15 37 65 37 35 29 17 23 15 91 110 125 144 143 99 86 126 137 136 142 151 163 161 174 181 187 189 189 196 194 198 198 197 195 197 196 195 192 191 189 185 184 177 173 156 152 133 136 168 177 183 180 177 185 189 194 198 202 198 195 193 175 161 141 120 98 119 134 145 152 164 172 172 175 170 158 164 160 160 151 147 139 130 130 99 15 26 21 23 20 22 20 25 15 72 36 39 22 18 23 14 17 64 93 131 134 110 85 126 136 138 139 147 158 163 167 177 183 186 188 193 193 194 194 195 193 191 192 190 190 185 183 177 171 165 157 145 136 128 133 177 189 190 190 187 183 188 193 199 200 200 196 189 177 165 145 133 107 108 129 143 148 157 164 171 170 163 155 157 158 151 144 144 132 126 131 72 10 25 27 18 23 21 20 28 12 49 35 41 18 21 21 19 20 19 33 70 99 102 90 126 136 140 138 144 154 160 163 174 180 184 186 187 190 188 192 190 188 191 188 186 184 181 175 166 161 151 143 136 136 127 134 188 193 192 193 192 187 186 190 198 199 199 192 186 174 169 150 135 131 100 118 137 141 154 156 164 162 159 157 152 151 146 142 138 131 124 131 41 11 26 24 22 18 19 25 25 12 42 37 33 18 19 21 19 24 21 24 21 13 47 95 125 143 136 140 143 149 155 157 167 174 179 182 183 185 183 182 187 182 184 187 177 173 173 162 159 145 135 128 128 144 144 133 180 187 185 189 191 189 189 190 191 197 194 190 184 180 168 151 135 139 108 113 131 134 143 145 159 154 152 148 146 140 142 139 130 127 125 114 16 15 20 25 21 20 21 24 30 15 21 33 33 14 23 19 19 31 24 28 21 20 16 90 126 144 140 143 145 147 150 155 163 168 171 179 176 178 178 178 182 175 173 173 168 160 154 150 144 131 124 117 133 153 165 162 157 157 154 163 176 184 187 189 187 191 190 183 181 171 162 147 131 127 114 106 121 127 133 139 145 143 144 141 142 136 135 135 129 122 125 93 7 18 22 21 20 22 21 19 33 15 18 29 31 13 19 19 23 27 24 31 23 19 5 77 124 142 146 143 144 147 149 150 157 162 166 169 165 167 169 167 174 166 162 162 156 148 140 130 127 117 110 116 138 159 168 178 165 132 93 107 128 155 166 179 183 181 179 177 169 157 146 127 116 110 109 104 108 118 125 131 134 134 135 138 135 134 128 126 122 119 118 62 7 21 22 19 21 26 18 23 25 21 18 32 25 15 20 18 30 28 25 29 27 21 3 59 122 141 143 145 143 150 147 144 148 157 160 158 162 162 163 159 160 159 150 147 145 131 127 116 111 109 117 133 155 166 167 168 179 157 121 109 104 113 128 142 155 160 162 151 147 139 119 113 104 112 110 95 99 108 117 122 126 130 131 128 130 126 125 119 118 115 109 30 11 21 22 19 21 23 24 20 23 23 11 29 23 21 15 22 32 27 19 34 24 23 13 31 117 136 144 146 149 146 149 144 145 150 155 152 155 157 156 154 150 148 142 136 132 120 117 104 112 119 136 149 166 172 173 171 175 166 143 125 119 118 114 117 122 131 128 123 119 112 104 109 111 115 114 105 91 101 111 114 119 123 126 127 123 124 120 114 112 113 90 14 16 18 24 17 20 21 20 20 22 25 9 28 24 16 17 29 28 21 20 34 23 21 19 14 107 135 143 145 152 146 147 147 141 143 146 144 148 146 148 143 139 135 133 121 117 109 106 112 127 139 145 163 174 174 180 177 175 173 157 142 131 126 118 107 103 102 99 96 96 93 111 118 114 118 114 119 98 94 105 110 111 118 122 119 124 116 113 106 104 114 54 16 15 21 22 17 20 16 25 24 19 25 12 27 18 20 19 30 25 19 21 35 30 22 21 9 85 131 140 145 150 150 150 142 140 139 133 139 142 145 139 135 135 126 121 116 106 109 120 127 129 143 158 172 180 181 180 182 180 180 170 154 142 134 116 104 95 100 98 95 99 111 117 119 119 117 121 119 113 95 96 103 106 110 114 118 114 115 109 98 108 103 31 13 23 16 20 21 19 19 22 25 16 20 20 29 17 18 27 26 22 19 20 38 32 22 23 5 58 130 137 146 151 151 148 146 139 140 136 137 143 141 138 134 127 122 118 103 110 118 121 127 130 147 165 174 185 177 180 184 183 182 180 167 148 134 119 109 112 116 105 107 111 119 121 121 124 122 119 121 115 103 84 93 103 106 110 112 114 111 101 96 109 88 12 18 22 17 22 22 17 22 22 24 19 19 23 22 19 20 28 26 23 12 29 44 27 23 25 11 35 123 132 142 146 152 149 149 140 140 131 138 143 141 137 131 121 120 106 108 112 117 114 121 134 148 168 177 180 184 181 184 180 186 182 178 162 142 124 122 123 126 114 121 118 122 124 124 128 122 122 116 112 109 81 87 104 106 107 111 114 108 100 98 114 63 9 18 27 21 20 23 17 15 24 22 23 20 20 22 23 24 25 21 22 16 36 45 25 14 33 11 22 109 128 137 142 148 148 148 146 142 135 138 142 143 137 128 129 115 114 111 105 108 111 122 134 159 171 177 177 182 181 180 181 184 184 180 172 151 137 132 133 128 129 132 128 126 129 126 128 121 121 112 103 103 83 71 105 108 112 112 114 109 96 109 109 32 10 16 25 20 20 21 20 17 19 24 24 20 19 28 31 24 24 24 21 22 40 43 21 19 27 11 20 94 120 131 137 148 147 148 149 144 139 138 143 137 139 135 137 125 122 100 98 104 94 99 120 151 158 165 171 175 180 185 183 182 185 182 172 156 149 144 142 141 141 140 137 132 131 131 128 128 117 112 97 98 88 69 106 114 117 113 115 107 103 117 84 9 16 21 20 21 25 18 19 17 18 25 23 22 19 31 27 23 25 19 29 26 41 33 23 21 24 16 26 96 113 120 133 141 143 146 145 144 140 143 138 141 138 146 142 141 118 98 110 121 111 93 64 75 101 117 120 127 137 141 145 141 148 144 141 152 154 154 149 143 141 132 126 120 122 120 118 108 103 89 78 85 86 80 109 123 122 114 110 102 111 108 58 4 22 19 21 20 20 17 20 16 18 25 24 18 22 32 26 23 22 29 27 32 42 29 16 25 22 16 18 105 111 115 128 134 140 145 144 144 145 142 139 135 137 144 144 141 115 105 124 136 141 146 114 71 59 81 91 87 103 109 109 104 112 109 107 115 126 133 131 118 116 105 101 94 93 93 93 85 72 82 95 97 94 92 119 127 125 114 104 104 110 91 23 14 22 19 20 19 23 18 21 14 20 21 30 14 25 33 25 24 23 28 30 35 42 21 26 25 19 16 20 109 113 111 114 131 135 140 141 145 144 145 141 133 134 138 141 137 113 116 137 148 152 163 162 139 112 83 80 57 88 115 107 98 114 107 104 104 104 110 105 100 96 93 95 76 62 69 68 73 86 112 115 113 99 104 127 125 124 108 102 107 108 53 10 18 19 17 21 21 22 20 18 15 21 19 26 20 23 33 26 22 30 26 36 43 32 23 26 20 22 12 18 102 115 111 105 122 128 133 141 140 144 140 141 136 133 132 133 134 121 132 147 158 163 166 170 178 167 148 136 125 100 106 113 99 149 142 121 100 95 95 93 90 91 90 103 69 40 57 71 95 115 121 123 123 108 114 125 119 115 107 98 111 84 14 18 17 20 20 25 20 23 19 16 18 17 24 23 23 17 29 25 27 33 28 36 46 28 22 28 18 21 12 21 101 119 112 107 106 123 124 132 136 141 139 143 136 135 127 136 136 132 144 150 160 163 164 172 176 174 167 158 154 154 134 105 91 138 141 131 114 108 121 116 116 101 88 89 77 73 80 97 113 120 124 128 122 111 114 119 116 106 99 102 94 45 11 20 24 18 22 22 20 24 19 19 17 20 21 23 22 19 24 23 39 26 36 36 45 19 31 25 20 20 11 24 101 118 113 108 104 108 121 124 126 137 136 142 141 133 138 138 140 140 148 158 164 162 168 168 173 173 167 166 154 159 167 153 136 114 112 110 95 97 125 111 111 93 84 90 96 90 92 110 117 120 126 130 124 107 117 114 105 103 94 99 57 16 16 22 20 21 18 28 17 22 16 20 19 17 20 20 21 20 21 31 35 31 41 40 37 21 32 27 17 19 13 21 104 117 117 114 109 100 113 122 119 132 134 134 138 138 142 142 144 147 158 163 167 164 166 160 163 174 171 169 162 151 146 145 155 150 144 132 119 106 108 101 104 110 105 104 91 94 103 118 115 120 128 129 116 113 114 108 104 94 99 74 22 18 20 23 23 19 22 25 24 19 17 20 18 20 19 20 22 16 25 35 33 37 42 39 34 29 30 22 16 20 14 27 103 117 115 116 113 105 101 112 120 126 131 132 134 139 141 147 147 157 161 165 166 165 154 159 158 163 168 165 163 157 150 140 131 139 135 141 130 122 123 116 113 107 99 89 93 107 117 120 115 125 130 125 114 115 110 104 97 97 76 37 19 21 21 25 20 20 21 25 25 16 18 17 17 20 22 17 19 16 25 34 37 40 33 42 41 33 22 24 15 20 8 30 101 119 119 116 113 111 106 100 110 117 124 132 132 138 143 149 152 165 166 167 165 165 156 159 158 152 152 159 160 153 152 145 134 119 115 110 108 104 102 100 102 98 98 102 111 119 121 115 119 130 128 125 113 113 105 98 92 82 34 17 25 18 24 26 23 22 22 21 22 20 18 15 15 16 25 17 17 12 30 33 31 41 37 36 40 29 23 22 18 16 9 40 101 116 119 120 117 115 111 108 94 108 117 126 129 137 142 149 153 161 169 170 168 169 163 166 162 157 145 149 152 149 150 143 135 118 117 113 109 107 104 105 107 109 113 114 118 118 114 117 125 129 129 124 112 109 98 98 81 40 17 21 24 22 22 24 19 21 22 20 20 20 15 20 17 22 22 16 22 18 35 26 29 38 32 33 34 25 25 21 24 17 15 50 96 116 117 123 116 115 110 109 103 96 104 120 128 131 140 146 153 154 170 172 172 170 170 170 162 157 153 146 144 142 142 142 136 125 124 122 120 115 115 119 116 120 117 114 112 113 115 121 130 129 129 121 110 102 95 86 35 22 17 25 24 16 23 24 18 22 24 17 22 17 17 17 16 18 19 17 17 24 25 29 30 29 30 32 26 22 24 21 17 19 10 49 99 112 122 119 122 122 116 113 107 104 99 105 117 127 133 142 149 153 164 173 174 173 173 170 165 161 156 151 147 134 132 127 126 123 120 121 117 116 116 116 113 115 110 106 110 117 123 129 129 132 125 118 106 94 80 32 18 18 23 23 20 19 27 24 21 20 22 19 16 22 14 25 18 17 20 19 13 30 30 23 30 24 31 27 21 19 19 20 20 15 22 62 101 114 118 125 121 120 124 116 112 109 105 101 100 121 125 136 144 150 158 169 170 173 175 173 167 169 160 158 151 149 142 129 126 123 117 119 115 113 115 110 114 112 113 114 117 122 128 132 129 129 124 108 96 80 35 17 23 19 20 23 17 21 24 22 20 21 22 21 18 19 22 17 15 19 18 20 16 31 32 27 28 21 32 28 18 19 18 20 18 23 40 75 96 117 117 124 125 121 119 121 117 113 107 105 98 103 116 126 133 138 151 166 166 168 177 175 174 170 171 169 166 165 156 147 138 129 126 121 118 122 119 118 123 120 125 122 125 128 131 135 133 125 122 100 79 32 14 21 19 17 23 17 23 23 20 22 20 22 21 19 21 18 22 15 18 20 19 24 16 45 27 27 23 27 30 21 20 19 21 19 23 33 91 73 96 111 120 122 124 128 121 119 123 120 112 111 108 100 104 114 125 127 141 153 162 165 173 180 177 175 174 169 170 170 174 166 163 158 149 145 146 141 140 133 138 134 130 128 131 134 136 134 131 120 114 72 28 17 17 21 17 20 21 18 23 21 18 23 19 23 19 22 19 20 16 20 19 13 25 26 17 50 26 28 19 29 28 20 19 27 24 22 32 53 101 76 94 115 121 125 127 124 131 123 118 122 118 115 111 108 102 104 113 120 127 138 154 166 171 176 173 180 181 184 178 177 178 183 180 177 168 168 167 160 156 151 147 151 140 137 138 137 135 133 126 115 89 22 18 17 20 18 19 19 19 21 22 17 23 18 25 20 20 18 19 20 19 16 16 18 30 24 23 43 26 27 28 24 29 19 23 35 39 31 39 80 101 74 93 114 122 125 126 129 128 128 126 119 122 120 117 110 111 106 104 110 116 126 137 158 160 167 168 176 184 183 185 179 181 186 182 180 175 167 173 172 167 165 157 158 149 146 146 142 131 128 120 95 27 16 15 25 15 17 17 21 12 24 17 20 20 21 22 20 16 21 17 18 18 14 18 19 28 28 21 22 23 25 25 25 27 20 30 43 40 41 43 102 94 77 96 114 124 128 127 131 132 130 129 131 121 119 119 115 116 113 104 106 105 111 123 132 151 157 164 166 177 181 184 184 180 182 179 178 175 168 169 170 167 170 163 158 151 145 147 138 127 117 109 47 12 23 18 15 20 14 20 17 22 18 19 21 20 21 19 21 16 18 16 16 18 16 20 22 28 19 21 26 24 28 24 23 27 26 41 51 45 51 50 99 78 84 95 114 125 126 131 131 132 135 127 131 130 119 121 115 118 111 111 110 108 105 107 116 136 145 156 160 170 172 178 182 177 181 174 173 169 165 163 158 160 162 157 155 143 135 141 128 118 106 79 33 11 21 15 18 20 17 19 21 20 21 19 23 20 19 18 20 15 19 19 16 14 20 21 25 22 19 24 41 