P2
92
112
255
132 118 124 129 133 138 135 132 142 126 98 72 62 88 77 44 35 38 37 34 31 39 33 33 29 26 35 48 38 28 30 33 29 27 30 25 30 36 32 30 29 35 29 33 24 34 24 31 39 23 36 31 34 38 39 33 35 36 31 32 37 31 39 51 28 63 118 125 119 125 130 130 132 133 133 131 131 129 129 131 132 130 131 131 130 131 130 131 130 132 129 129 130 122 110 127 121 132 136 126 140 127 95 66 56 58 43 35 28 34 37 34 31 30 34 34 34 28 32 41 43 36 26 30 32 26 28 26 29 35 41 28 30 30 36 27 26 30 33 26 30 34 31 32 39 30 36 47 34 37 31 30 39 35 36 39 44 42 46 109 121 117 128 128 128 132 132 129 130 127 128 129 127 129 125 130 130 130 129 129 132 129 129 129 115 120 108 101 128 117 125 123 121 105 62 44 42 37 42 25 30 33 37 35 37 23 34 30 34 34 33 45 35 40 31 28 39 31 27 28 27 37 42 28 32 35 39 31 29 32 36 32 32 34 32 43 38 40 31 37 42 40 36 34 40 24 45 34 34 50 43 48 83 108 127 128 123 128 126 129 124 130 125 125 129 125 124 127 130 129 130 129 129 126 131 132 107 99 98 80 93 117 116 105 70 44 32 32 40 39 39 30 36 33 38 36 35 29 31 33 36 24 33 49 50 37 42 19 40 34 30 31 29 36 47 36 33 39 34 37 33 43 32 43 43 33 33 51 46 38 40 37 35 34 50 36 41 40 31 36 40 34 45 46 67 55 86 123 131 117 124 130 130 129 128 128 133 129 128 125 126 132 128 133 128 131 127 130 119 105 92 78 62 76 85 53 31 27 30 30 42 33 35 25 33 36 36 38 37 36 26 34 36 26 30 41 64 35 49 24 36 38 32 26 32 32 50 43 30 39 36 38 41 39 54 35 51 51 41 33 68 52 40 53 38 29 47 60 36 54 37 31 41 32 42 43 57 64 50 69 118 124 120 127 127 126 130 131 132 130 128 130 124 127 127 133 128 128 130 128 122 108 100 89 89 63 36 36 31 23 26 32 42 32 33 27 36 36 39 34 35 37 23 36 35 33 29 27 71 35 50 44 26 45 30 25 40 35 57 53 34 39 43 38 53 25 67 50 37 63 55 36 58 82 44 56 57 35 37 44 70 36 58 33 42 35 41 50 42 57 57 48 66 105 124 122 124 125 125 123 129 128 130 129 130 126 131 130 127 133 130 126 117 101 87 85 80 53 30 31 33 23 29 27 37 31 29 30 38 37 36 35 34 37 30 36 36 37 30 34 62 42 38 52 24 48 40 30 40 43 52 72 49 33 53 44 50 35 48 67 49 53 61 53 49 74 71 49 66 50 44 39 56 62 41 44 42 42 43 48 58 47 64 38 49 79 100 125 125 130 127 125 122 127 126 130 131 123 131 130 128 129 128 128 112 96 91 76 50 33 28 34 29 25 31 32 38 33 30 27 35 36 47 32 44 35 33 31 38 37 31 39 47 35 34 52 38 38 52 35 36 49 45 73 66 38 44 53 46 49 41 62 66 65 46 73 58 60 78 64 68 66 52 51 42 61 50 46 49 39 55 44 63 71 57 46 31 76 75 86 115 130 126 127 129 131 124 130 129 117 129 129 128 129 126 129 91 68 61 47 33 29 33 38 30 23 32 34 40 31 30 29 29 36 46 39 51 42 40 36 37 35 38 37 54 28 39 48 40 33 70 41 36 55 47 61 78 53 41 62 58 49 48 59 68 79 49 64 75 71 62 77 70 81 71 56 54 52 66 44 70 35 49 58 51 76 72 52 37 52 77 70 77 116 124 122 124 127 130 127 122 123 123 125 128 131 129 126 72 52 36 35 31 30 36 32 36 27 34 33 39 32 31 32 25 40 36 49 46 40 39 37 40 41 33 44 57 44 29 52 51 35 72 55 32 57 58 52 73 69 43 62 71 45 57 65 59 83 61 57 74 76 63 60 72 67 85 69 63 57 78 67 55 65 30 64 53 70 65 73 50 41 60 72 67 75 109 119 119 123 129 123 118 121 122 126 122 127 129 125 43 29 33 31 35 34 29 31 38 33 30 42 39 32 40 31 28 42 41 38 47 34 50 36 45 46 31 45 68 49 21 58 55 34 72 59 36 53 58 58 64 70 48 58 69 67 50 69 55 61 74 47 63 63 69 67 72 61 78 82 66 69 65 86 49 62 49 39 71 61 64 66 67 47 46 58 73 63 55 113 117 118 128 125 117 121 130 129 122 129 122 123 28 33 30 31 47 35 30 36 31 35 32 38 42 36 44 38 25 39 45 35 47 35 40 31 47 48 29 40 70 47 24 58 55 32 63 60 40 54 56 61 56 66 51 65 64 74 56 63 69 49 69 57 48 52 64 58 79 61 60 85 65 70 48 73 62 52 62 32 51 75 68 62 62 63 41 52 66 80 56 54 117 120 110 118 122 125 128 131 122 128 128 124 36 33 26 33 46 45 33 32 33 34 34 36 46 46 42 44 32 34 46 37 47 39 35 35 47 55 32 45 63 53 22 53 57 43 51 57 43 57 45 58 55 59 49 63 56 67 60 63 73 49 64 62 52 54 55 57 60 69 50 63 77 62 51 48 70 56 48 49 28 60 74 65 46 75 61 42 52 70 70 50 61 124 121 106 120 125 126 125 122 122 127 127 31 35 23 37 47 54 34 37 30 38 33 43 53 45 38 47 41 36 61 31 46 43 46 34 56 53 31 46 64 46 26 51 60 46 57 46 41 62 44 50 55 57 49 55 63 51 58 68 59 53 49 61 49 38 53 50 49 62 44 55 69 64 54 40 46 56 48 45 41 41 65 65 47 66 71 57 44 57 65 60 47 103 123 123 106 118 124 125 122 129 122 125 31 35 27 34 47 51 35 49 32 49 34 54 61 49 42 47 47 39 69 37 52 50 50 39 60 48 42 46 62 48 25 53 52 44 63 43 39 59 47 42 49 53 53 53 55 53 51 61 57 44 47 61 55 33 44 49 44 58 42 50 56 62 52 50 31 48 60 35 46 39 50 64 52 53 78 64 52 46 60 53 55 78 118 117 124 113 117 130 123 126 123 121 32 42 34 39 57 37 45 52 38 41 41 37 64 56 49 52 45 51 60 53 51 52 54 46 59 51 44 54 58 47 36 49 47 42 55 43 31 57 40 40 49 42 49 55 47 48 51 57 52 49 46 60 56 46 28 47 38 46 61 34 56 43 61 37 41 34 62 43 33 44 43 57 51 42 67 61 61 45 62 52 57 66 97 113 129 123 115 122 124 123 128 125 34 59 41 48 61 43 47 51 36 53 43 36 52 61 59 56 45 54 61 55 61 52 60 49 54 60 52 54 58 50 46 38 50 34 46 41 29 51 39 41 45 40 43 46 51 42 43 50 46 49 38 58 59 50 32 39 42 30 66 40 44 39 56 47 33 31 37 50 35 30 36 46 47 37 52 58 51 58 52 60 61 70 73 116 114 125 121 116 118 123 125 125 29 66 47 51 57 48 47 49 42 56 56 40 48 55 51 63 50 51 56 47 59 59 57 55 54 61 67 44 55 58 45 38 47 40 42 30 29 51 39 43 36 37 40 41 53 39 34 50 36 46 41 51 52 53 34 34 40 30 46 48 29 39 46 45 39 34 21 37 41 30 25 35 48 37 48 52 54 49 45 63 69 62 56 93 124 121 125 121 115 123 124 127 17 53 65 42 62 54 50 55 52 56 61 56 38 47 54 63 58 55 57 47 57 59 52 60 55 59 68 46 63 61 48 32 47 39 38 33 28 44 44 38 37 31 40 41 41 41 31 42 38 44 38 45 45 43 38 33 38 32 29 50 29 35 31 41 37 36 26 25 42 28 25 30 46 32 36 55 54 48 45 63 59 58 54 73 122 118 121 120 117 119 123 125 24 32 69 46 60 59 52 55 52 54 59 60 45 45 52 66 58 51 66 54 50 53 54 57 63 54 69 47 59 55 44 39 39 40 42 30 32 44 43 40 37 33 32 38 40 38 31 34 41 36 37 43 39 43 38 26 35 32 29 40 40 37 32 34 34 34 28 29 28 36 23 25 40 36 22 56 46 45 51 58 56 55 64 58 84 122 111 116 108 111 121 118 34 37 66 53 42 67 53 59 59 51 55 57 47 39 43 65 57 59 61 55 47 60 53 52 69 52 62 48 56 53 49 38 38 41 39 33 35 45 44 39 36 31 28 37 39 35 33 34 48 38 39 39 37 39 39 31 28 34 26 34 47 32 33 33 33 31 34 32 26 34 30 27 36 35 23 47 42 44 46 59 43 59 62 52 63 107 107 104 89 99 119 121 30 39 35 64 34 60 60 53 55 54 47 54 44 52 62 63 66 64 66 54 61 71 63 49 69 60 56 55 56 55 45 47 41 49 39 39 44 44 41 38 38 35 39 36 39 40 37 42 40 38 41 48 37 39 40 38 31 34 32 35 41 35 33 38 28 31 40 35 32 35 34 28 30 37 27 38 37 37 54 60 65 73 70 62 53 87 97 106 99 94 116 117 37 33 46 42 49 39 60 54 52 50 47 53 44 58 81 90 70 64 72 70 63 80 76 56 69 67 64 60 60 55 50 54 45 57 50 43 50 46 46 41 47 48 46 49 46 36 50 44 55 38 48 56 44 47 42 43 36 36 40 42 43 36 48 42 41 38 41 43 45 39 43 43 34 41 29 31 34 40 56 63 61 63 64 55 39 77 97 93 95 98 112 109 56 32 50 54 37 32 44 49 59 49 49 54 69 68 75 111 93 63 65 92 72 82 98 69 80 72 69 71 69 69 57 66 49 73 61 52 54 63 59 57 62 63 70 64 55 53 59 77 69 73 68 71 52 62 55 49 48 45 42 59 58 51 57 57 63 62 60 53 65 63 55 57 49 49 36 33 38 39 46 46 49 48 57 54 31 52 109 91 101 106 104 110 50 65 33 64 50 36 43 40 52 61 54 63 90 97 72 109 112 87 61 86 92 85 101 87 86 72 79 78 76 88 70 81 76 95 75 72 83 82 81 84 86 108 105 99 83 88 97 111 98 100 106 96 81 80 66 71 64 67 61 66 78 84 87 90 92 86 85 85 92 90 81 81 74 66 55 51 43 49 44 42 46 55 56 51 46 41 91 96 104 107 106 108 51 58 62 42 71 49 37 46 45 66 72 70 85 92 87 117 96 114 80 75 101 99 98 96 94 85 73 109 80 87 89 91 101 123 110 106 106 106 107 107 109 136 136 133 114 123 133 134 126 124 132 126 95 108 88 99 87 95 83 80 99 109 109 117 113 111 107 112 127 113 113 109 101 88 84 59 50 53 56 49 45 50 53 46 50 33 88 105 100 111 109 104 57 51 50 52 44 63 46 37 58 77 93 86 84 97 105 108 89 110 115 96 85 96 99 105 99 116 91 95 119 98 88 83 107 122 131 126 128 144 147 149 135 149 147 159 139 140 153 150 146 128 146 152 130 119 125 118 112 120 117 111 117 130 122 131 137 126 121 131 133 121 128 128 121 95 77 75 60 64 73 63 46 43 47 46 41 29 72 122 103 105 112 107 55 59 43 53 51 46 57 48 57 79 87 91 113 98 100 100 98 110 104 107 99 101 96 104 107 111 109 107 113 110 108 111 104 119 127 129 147 146 175 182 157 157 146 149 160 137 158 154 149 144 141 155 142 139 137 138 132 136 136 132 138 137 139 137 142 145 134 147 147 139 134 140 131 108 94 77 79 64 70 60 63 52 54 41 42 30 68 110 112 105 116 114 63 53 57 50 53 47 52 55 70 81 80 102 118 98 102 96 95 99 100 105 106 113 113 109 117 111 121 121 108 109 105 113 120 120 124 140 157 133 164 174 175 156 163 137 160 133 146 167 143 143 145 157 151 131 135 149 139 138 150 139 140 139 141 139 153 161 146 156 157 149 143 144 149 122 105 89 78 70 61 57 57 59 59 55 44 29 56 101 117 109 111 108 65 65 52 48 53 53 47 56 64 83 89 98 93 110 100 85 95 97 101 100 111 112 123 121 122 126 122 127 117 130 124 129 139 124 129 147 158 146 149 175 182 168 159 150 157 139 141 171 160 130 148 153 152 137 138 142 135 128 152 143 156 155 149 146 158 167 158 160 167 161 151 144 150 138 114 98 84 62 61 51 59 58 60 59 54 38 55 87 103 119 112 115 57 64 59 54 55 48 47 64 67 84 98 90 98 104 101 82 96 93 100 103 113 117 119 117 115 131 133 130 135 143 131 131 138 128 140 152 150 163 151 172 184 172 173 155 153 159 136 153 156 124 143 148 159 151 147 152 146 136 156 152 162 173 154 157 161 170 170 167 169 171 162 152 150 147 130 109 95 72 59 48 56 56 54 60 56 45 50 86 96 107 111 112 57 62 55 61 59 54 58 65 67 92 96 101 94 105 107 77 96 97 104 103 116 125 124 112 123 140 133 142 131 138 122 131 140 146 147 159 152 170 160 164 184 179 174 177 170 161 151 156 165 145 154 168 161 172 164 160 154 147 153 161 167 171 164 159 165 169 181 173 176 173 170 160 156 151 140 120 102 83 67 63 48 51 51 56 54 49 55 78 91 97 114 97 55 63 52 63 49 68 64 61 72 89 93 98 90 108 108 83 85 99 107 105 116 121 119 118 139 135 133 131 136 141 133 142 150 149 152 161 163 172 171 175 183 178 180 189 191 178 167 163 167 152 161 174 162 168 171 165 152 153 157 166 172 171 178 162 171 165 180 178 177 180 173 161 162 151 147 129 111 97 78 70 59 47 46 52 49 46 42 83 86 82 102 105 46 64 52 54 56 64 64 58 81 85 90 91 98 100 104 79 76 104 106 109 116 117 115 124 140 130 129 132 145 143 141 146 157 159 158 172 177 180 187 186 186 179 190 192 189 185 182 174 178 149 155 177 168 163 174 172 157 162 151 166 174 177 184 169 170 166 176 179 176 180 170 167 165 156 144 135 128 106 90 76 64 50 44 46 45 41 39 54 101 81 94 95 52 56 63 54 49 55 59 58 71 81 89 94 99 99 104 80 67 106 100 110 109 117 115 127 138 124 141 148 148 146 145 157 166 164 167 179 184 184 190 193 191 186 193 191 190 189 188 184 182 169 163 173 175 172 175 178 160 163 163 158 172 179 180 176 166 176 179 178 175 176 171 168 169 158 150 136 142 119 102 86 66 56 43 43 39 41 43 33 82 92 94 81 48 52 64 54 53 51 51 54 77 80 83 94 95 95 99 82 56 109 92 111 104 120 115 131 132 126 149 157 151 154 155 168 170 168 178 182 186 180 192 191 191 187 191 194 194 189 187 189 182 169 179 176 176 175 175 177 162 165 164 168 168 180 179 178 167 176 183 179 170 171 173 167 165 162 149 137 141 128 109 92 77 60 41 47 34 30 45 58 44 77 93 98 46 50 52 51 58 53 49 59 69 76 77 87 94 87 102 79 53 98 95 104 102 124 115 129 134 138 162 166 159 158 162 172 175 173 186 181 189 173 190 192 193 187 187 193 192 189 188 189 179 174 183 179 181 178 178 181 166 161 170 171 162 173 176 174 166 178 178 180 169 168 169 166 164 161 148 143 136 137 118 101 94 67 48 38 34 43 24 67 42 38 88 101 47 51 44 52 48 53 47 60 67 62 69 82 90 86 90 78 55 94 92 97 101 120 112 134 149 149 168 163 159 167 164 176 177 177 183 185 192 170 184 193 189 185 188 191 191 191 186 189 181 173 184 184 183 180 178 178 170 164 172 170 166 166 179 178 172 171 174 174 167 169 168 162 159 155 146 145 138 133 123 110 100 82 54 36 36 34 27 49 68 42 59 101 47 44 47 55 45 45 52 60 62 58 65 80 79 78 86 67 56 97 89 91 102 127 115 140 155 150 164 162 167 173 172 174 178 180 183 185 187 174 179 191 185 186 187 189 188 188 184 187 181 180 181 181 182 183 179 179 175 167 171 169 168 165 177 175 172 167 168 171 165 168 168 161 156 151 147 144 136 130 123 111 106 88 57 30 32 35 31 26 80 41 59 79 51 42 48 50 56 46 51 56 58 56 65 72 74 74 79 57 67 87 93 90 100 126 129 137 164 161 167 166 169 175 175 177 178 182 180 180 182 169 177 185 183 182 189 188 187 184 185 185 184 182 182 173 176 178 178 178 177 174 175 169 172 171 174 169 169 167 168 162 164 170 163 160 155 146 141 141 135 130 121 114 109 95 61 34 29 31 37 16 81 49 58 85 50 47 40 47 53 49 57 53 51 56 62 67 70 64 73 50 68 84 93 98 102 133 140 140 166 171 168 168 171 177 173 177 175 182 181 183 179 177 179 183 182 188 186 185 186 183 183 182 182 179 180 174 174 175 174 177 172 170 172 171 168 171 173 172 167 164 161 159 164 164 161 153 151 149 140 139 134 127 122 120 108 98 61 33 29 28 38 21 56 73 38 98 42 47 45 40 51 52 52 46 46 53 64 62 62 60 64 49 64 88 92 97 114 134 142 142 165 169 169 169 172 175 171 174 180 179 183 183 173 176 178 181 183 186 184 183 183 181 181 181 180 182 179 178 172 174 170 172 171 165 171 172 168 169 171 173 163 154 150 158 160 160 149 148 147 145 138 141 133 127 122 118 113 100 67 28 28 23 38 39 26 79 29 78 44 50 51 44 50 50 41 43 44 53 55 56 54 55 55 50 66 89 104 91 120 138 143 140 160 174 165 170 176 178 174 176 183 180 182 188 175 178 180 184 184 182 183 181 182 182 177 178 178 178 172 175 176 171 173 172 171 166 170 168 166 171 164 167 162 153 154 157 157 152 148 145 145 140 137 132 135 121 120 119 109 101 70 25 27 24 29 42 29 64 50 46 53 49 58 54 42 49 43 38 42 48 48 55 46 52 46 57 70 86 94 103 116 143 153 147 143 174 163 169 171 175 177 176 183 180 185 186 176 179 180 181 184 180 179 179 180 178 179 171 175 174 171 174 174 171 170 169 172 165 169 171 170 165 163 162 156 154 156 154 150 149 146 143 139 132 135 133 132 119 123 119 112 103 68 25 22 25 26 39 46 47 50 51 53 46 58 54 56 49 38 45 36 45 47 47 47 48 45 61 67 81 88 108 126 133 151 165 148 165 164 165 174 179 178 181 182 181 185 184 177 182 182 182 180 180 180 179 182 178 178 174 175 173 176 170 175 173 170 170 169 169 167 170 169 166 164 163 156 158 154 153 151 147 145 146 141 136 139 134 130 123 121 117 114 103 63 24 21 20 34 31 51 50 50 77 45 49 48 49 52 45 36 37 42 45 42 46 37 46 43 62 67 75 91 108 122 139 144 158 156 158 171 173 173 180 181 181 183 180 184 182 180 185 185 184 183 180 178 181 180 180 174 177 176 173 175 174 174 175 172 172 170 173 168 172 169 170 164 158 156 157 155 153 151 154 150 151 145 145 143 136 128 127 121 117 113 109 57 22 24 20 32 40 43 59 47 88 38 36 48 45 46 41 33 42 41 37 44 40 41 38 47 55 63 72 92 106 118 142 146 149 153 153 163 176 178 178 182 182 182 182 181 180 184 188 183 187 185 181 182 180 180 178 178 179 181 179 177 176 179 178 176 172 175 176 173 171 171 169 164 162 159 161 159 153 157 155 156 149 149 146 145 139 132 124 125 116 115 103 57 21 22 17 29 57 45 60 46 84 44 38 26 47 51 38 37 37 39 34 38 36 34 41 46 56 61 67 88 112 118 138 146 155 155 154 147 168 176 181 177 181 180 183 186 180 182 187 188 188 188 186 182 185 184 183 181 182 183 178 181 182 179 180 177 174 177 177 173 171 176 172 168 165 161 164 158 162 159 160 158 156 156 150 147 138 137 131 124 123 115 109 45 20 28 14 26 73 43 65 46 92 43 40 28 31 41 36 37 37 38 32 36 34 37 46 40 50 60 64 92 119 121 143 157 155 164 165 159 151 173 181 178 179 180 182 188 183 185 191 186 187 189 185 184 187 186 186 184 183 183 183 184 183 181 179 179 180 180 177 176 174 176 174 169 168 164 162 163 162 163 161 162 163 160 152 148 141 137 133 124 121 116 103 42 18 28 21 17 74 57 51 55 86 32 40 42 30 29 31 37 39 34 34 36 39 38 43 45 51 54 78 105 122 129 148 156 164 163 168 176 166 168 180 183 184 180 181 190 186 187 189 187 184 186 184 185 189 186 187 183 183 182 184 186 180 183 180 178 179 183 180 177 176 178 170 172 169 169 164 165 163 169 163 163 167 164 156 149 148 138 128 125 123 117 99 38 19 28 22 23 77 77 62 63 89 49 26 37 33 27 25 36 38 35 32 34 46 44 46 42 64 66 86 113 127 134 148 158 163 161 170 174 180 175 172 184 180 182 182 186 183 181 184 184 181 181 184 184 183 183 184 183 181 183 183 183 181 181 180 175 183 179 180 176 175 173 168 172 170 169 164 165 168 167 164 161 162 152 151 146 141 134 125 115 115 116 100 33 21 29 20 26 85 96 84 79 93 66 33 30 29 30 30 29 33 32 34 42 43 44 52 47 66 79 92 114 134 145 149 163 161 165 170 178 182 188 185 175 169 173 177 180 177 169 177 181 176 177 178 174 179 178 177 179 179 179 176 182 175 177 177 176 179 177 178 177 174 170 166 168 167 165 162 160 165 162 162 155 151 139 138 140 128 126 115 106 98 113 93 27 20 33 20 27 91 99 96 95 103 54 46 40 24 35 31 29 27 32 40 43 47 47 51 60 75 92 113 131 143 149 149 160 163 169 176 180 180 180 164 143 135 139 145 154 148 143 160 159 157 164 168 166 166 168 167 167 172 168 166 165 167 173 175 174 177 174 172 172 173 166 162 155 158 156 152 153 151 147 141 132 120 109 93 98 88 88 82 66 69 73 79 24 26 29 31 29 97 95 102 101 106 62 44 35 30 35 33 28 30 37 40 48 50 51 59 77 92 112 135 148 154 155 155 162 167 174 179 181 169 146 117 104 100 105 107 107 96 100 103 106 111 114 122 119 121 125 137 144 142 151 146 148 154 164 166 172 170 174 171 168 170 159 157 149 148 141 141 135 127 118 108 90 74 68 59 54 51 49 51 47 41 49 56 26 24 26 40 32 96 102 98 106 104 53 50 36 28 32 31 30 27 39 34 52 50 60 71 97 106 130 149 160 160 165 162 161 170 171 168 137 111 92 85 83 85 87 84 81 72 75 70 69 70 69 74 67 72 68 84 95 106 115 125 132 144 157 161 170 168 174 172 168 162 154 150 145 143 129 124 110 86 76 65 56 52 47 46 42 36 41 38 37 41 44 42 25 26 19 42 57 94 103 101 104 104 51 45 41 31 31 30 31 33 37 41 50 54 67 92 107 125 142 164 167 170 170 174 158 153 139 101 89 81 89 97 83 81 83 74 70 72 68 59 60 56 66 59 53 57 59 60 64 84 91 97 105 134 149 159 164 162 170 173 167 161 150 144 137 138 126 101 73 62 49 48 47 46 41 46 44 41 47 49 60 74 64 45 29 20 19 57 65 100 102 107 101 104 54 47 45 34 35 35 29 38 36 48 53 59 86 105 120 132 156 170 171 176 173 171 149 121 102 89 97 111 122 121 117 113 105 96 90 94 93 84 75 75 58 64 62 61 72 68 84 83 95 91 98 120 142 158 161 163 168 170 166 156 145 139 135 126 115 79 67 59 56 50 50 53 55 66 75 79 85 93 98 104 103 65 28 19 23 72 81 102 104 105 101 101 62 52 52 44 36 35 32 31 46 50 52 71 98 117 123 146 162 170 175 177 169 139 115 92 103 116 138 157 169 164 159 148 149 141 131 128 122 123 114 110 102 80 81 81 90 96 99 105 106 106 103 126 145 153 161 160 170 174 163 150 140 131 128 117 89 70 78 78 75 74 72 82 86 96 101 102 102 107 105 102 111 99 22 12 30 78 95 100 103 102 104 104 66 64 48 48 39 39 29 37 50 56 48 75 112 117 130 155 168 172 180 172 145 120 119 123 129 145 156 164 164 160 150 138 136 127 115 109 98 97 92 85 82 82 85 89 95 104 106 109 112 116 115 131 138 152 163 168 172 174 164 154 142 129 118 101 81 78 84 86 80 71 67 64 61 65 70 68 76 88 92 96 104 101 25 14 31 77 93 96 99 99 99 102 63 64 55 57 44 40 35 42 51 58 58 79 117 123 139 160 171 172 173 156 132 127 133 139 145 147 147 147 144 135 121 104 97 88 78 74 60 58 53 52 51 44 52 64 72 98 104 108 107 113 118 127 138 156 169 174 179 183 169 159 146 125 109 81 81 83 78 66 69 54 47 46 44 38 47 41 64 49 75 86 98 91 20 17 34 68 93 94 100 102 98 97 68 64 55 59 56 39 34 48 45 57 62 91 122 131 152 163 173 174 172 151 138 138 148 142 141 136 131 124 108 95 79 79 74 58 75 73 62 49 33 39 40 27 47 49 65 69 93 107 108 109 116 122 140 161 178 184 184 191 179 170 150 119 90 76 70 74 75 70 84 43 25 37 38 21 39 32 36 52 53 76 97 97 14 20 35 51 76 89 90 94 98 99 77 68 65 62 55 38 44 45 43 65 62 100 127 135 154 167 177 173 171 153 141 140 142 135 129 120 115 97 89 84 72 62 62 66 105 111 78 57 35 45 49 27 34 80 52 84 77 99 110 113 119 122 132 161 183 193 191 198 190 178 159 108 88 72 74 79 81 106 111 74 29 52 33 19 37 58 32 43 57 74 97 97 23 14 58 76 61 57 91 94 100 97 97 87 76 73 46 36 50 44 45 63 65 107 125 148 159 173 177 177 166 158 148 143 141 129 120 109 105 99 88 69 57 69 86 114 147 159 81 59 38 50 38 38 24 122 82 60 92 90 112 117 125 122 135 159 186 199 200 202 196 191 164 100 89 82 78 77 114 139 110 56 31 50 28 22 37 92 37 32 57 84 96 112 27 14 77 88 101 79 68 65 100 104 109 108 73 72 35 46 46 42 46 59 62 110 131 150 167 174 176 175 174 168 164 154 149 135 118 116 119 110 79 62 71 94 127 150 166 184 96 68 58 41 45 26 56 126 104 65 73 107 118 122 125 129 143 167 189 195 202 203 200 202 172 102 105 86 78 92 121 152 125 63 43 40 36 18 58 99 54 35 51 90 109 121 38 15 75 92 97 96 93 79 57 98 101 88 73 49 41 48 48 45 45 57 63 113 128 153 170 173 175 179 182 184 180 172 166 154 147 139 146 146 117 87 78 104 121 134 155 178 142 66 56 46 48 37 83 115 99 88 85 115 128 127 127 140 159 172 191 196 202 207 202 198 186 112 106 106 86 83 99 112 123 66 41 49 46 42 84 87 56 55 81 93 122 127 51 12 60 105 93 94 95 94 74 51 91 81 63 46 44 50 51 46 49 57 69 113 133 155 168 175 179 185 187 186 188 186 185 183 178 172 173 173 154 133 111 105 107 104 118 142 153 114 91 93 95 94 110 112 110 110 119 125 131 132 134 154 174 187 189 199 200 206 203 200 196 135 102 106 112 103 104 105 103 90 93 92 88 84 76 69 65 79 110 116 123 136 60 32 49 92 105 92 98 100 95 71 102 75 53 58 52 56 51 50 48 52 72 112 136 157 166 176 176 188 189 185 189 191 190 188 186 182 183 175 163 154 141 141 138 123 116 119 120 117 113 107 114 108 113 116 116 119 121 128 144 138 147 169 184 187 190 194 202 204 204 197 200 159 105 100 96 106 105 108 110 99 93 92 86 91 82 90 95 95 118 124 129 141 69 40 60 85 100 101 89 101 97 87 93 64 49 68 57 58 65 57 49 52 68 115 132 160 168 174 180 186 188 190 189 192 193 193 191 187 185 177 174 168 157 150 152 143 139 137 133 123 117 114 116 117 114 118 124 121 128 143 157 160 160 178 189 191 189 194 202 206 204 199 196 174 111 113 99 93 103 114 117 117 109 108 105 104 101 103 99 110 123 129 125 143 77 28 79 71 100 98 91 90 101 104 84 60 68 73 52 67 80 63 48 59 64 110 133 154 166 170 182 183 189 192 189 193 193 193 192 190 185 181 173 171 161 158 144 144 143 131 134 124 120 120 121 116 116 126 125 141 158 170 176 176 173 183 189 193 193 194 199 204 209 198 198 192 115 121 124 112 100 101 105 113 113 108 106 104 103 105 109 118 129 126 127 142 93 23 79 67 90 100 99 91 90 108 95 61 78 74 51 88 82 67 56 57 59 108 131 150 159 171 179 185 188 191 191 193 191 192 195 193 190 184 185 180 170 166 155 149 142 137 129 128 125 122 120 120 122 133 150 169 181 186 186 183 183 184 190 193 194 190 198 202 208 197 201 199 128 118 131 130 122 110 110 109 106 104 108 103 110 111 117 124 131 128 125 138 99 5 77 75 78 101 96 97 94 100 121 77 65 58 60 104 85 75 57 57 63 97 127 146 155 167 175 185 184 190 190 193 191 193 195 194 197 191 187 184 178 171 161 157 149 139 139 136 135 136 139 149 152 166 181 185 187 194 189 186 192 189 190 194 193 192 194 201 208 202 196 199 142 117 129 143 140 137 130 122 116 117 117 123 122 134 135 137 133 133 123 138 94 0 60 88 69 93 97 93 100 95 108 93 70 60 75 98 92 78 63 60 58 92 124 141 154 164 171 176 182 188 191 192 193 193 193 196 198 196 199 199 199 193 194 187 187 176 177 171 170 171 176 176 178 186 189 190 192 195 192 191 194 191 191 195 195 192 194 199 205 204 198 202 149 118 132 141 151 151 156 152 147 146 146 141 145 146 150 146 143 131 125 138 87 0 43 87 67 81 97 94 98 90 92 70 76 85 105 81 96 76 73 62 59 91 118 143 148 162 171 175 180 189 188 191 192 191 195 197 197 198 198 201 200 201 196 197 193 192 193 191 188 189 190 189 188 189 188 194 198 196 193 192 194 193 191 192 192 192 194 197 204 205 196 200 156 117 130 140 154 154 163 164 168 163 168 161 159 151 155 144 143 131 125 136 77 1 19 85 75 79 92 91 89 95 72 57 52 110 135 100 92 86 88 72 64 90 118 138 148 153 163 173 181 182 188 194 191 190 196 197 195 197 200 201 202 201 199 199 199 199 199 199 198 194 193 193 191 191 190 194 196 196 193 194 196 193 193 191 194 191 194 197 200 202 198 197 159 120 131 145 152 158 159 165 170 166 173 171 166 159 155 148 144 137 128 131 68 10 15 54 76 73 90 76 91 92 69 54 62 136 139 124 100 91 99 79 67 92 114 137 143 147 160 168 174 183 185 190 190 193 192 199 196 198 200 202 202 202 201 201 200 200 200 197 198 195 193 195 191 190 191 196 196 193 192 196 194 192 192 191 193 193 194 196 195 197 198 196 160 124 124 140 146 157 160 166 167 166 174 174 167 162 158 152 145 139 128 132 55 5 29 31 70 81 70 84 89 96 65 62 83 131 118 131 105 90 104 88 67 88 118 134 139 143 153 164 167 181 180 182 187 192 197 196 198 201 200 200 202 202 202 200 202 200 198 201 197 193 192 194 191 192 190 195 192 190 189 191 190 188 189 190 193 194 195 196 195 197 198 195 165 132 123 132 143 152 162 165 168 164 170 168 169 163 156 152 149 137 133 125 45 8 22 43 61 85 66 74 85 94 49 59 111 132 108 125 102 84 110 96 77 85 119 136 139 143 149 161 165 175 178 177 186 190 196 194 198 200 199 201 202 201 202 201 200 199 196 200 196 190 189 194 192 185 187 185 182 180 176 186 186 182 184 190 191 191 194 197 199 200 197 192 169 138 115 123 139 148 156 161 169 170 170 169 163 166 157 155 150 135 137 110 40 20 11 61 45 67 71 74 89 82 24 37 128 137 114 135 117 98 110 105 83 86 114 137 142 140 142 153 160 174 177 176 187 190 194 196 195 198 200 199 202 200 202 201 200 196 196 197 190 189 191 190 188 178 175 174 159 157 166 177 183 180 179 189 190 192 196 199 200 202 196 193 172 152 116 110 128 143 147 157 168 168 172 163 159 156 158 147 144 133 131 101 16 29 12 42 78 25 82 73 71 93 27 16 115 134 132 151 127 118 122 106 90 86 118 137 146 143 145 149 163 165 167 178 180 188 192 193 194 194 199 198 200 200 198 199 197 197 194 194 192 187 185 183 177 167 160 144 133 143 168 178 181 185 178 182 188 189 198 197 200 199 194 192 176 160 126 99 123 134 146 151 162 164 170 156 148 157 146 143 137 130 135 75 10 29 12 22 87 53 44 91 66 78 38 24 33 89 128 141 126 124 137 112 93 90 116 136 148 141 144 150 161 163 167 172 179 184 186 190 190 196 196 197 195 197 196 193 194 193 190 189 185 180 175 172 162 154 145 133 119 146 174 190 191 191 188 184 186 191 194 197 197 199 195 187 178 164 144 104 111 131 137 148 155 161 161 154 149 147 145 139 133 130 129 55 6 33 16 15 70 81 49 56 90 74 38 31 17 21 82 112 110 115 138 116 98 90 115 137 147 143 142 151 157 160 165 169 176 181 184 187 188 192 194 193 191 196 192 193 189 189 187 186 180 174 166 158 150 141 137 132 119 144 183 195 195 192 192 192 185 189 189 196 199 193 194 186 176 165 146 128 106 121 130 143 148 154 151 150 145 142 142 136 131 127 120 34 6 32 21 15 49 77 82 52 64 82 42 26 20 23 13 32 65 73 99 116 94 98 112 139 144 144 146 150 154 155 163 167 167 177 184 184 187 185 186 188 186 189 188 186 185 185 179 175 170 164 157 144 136 129 133 140 136 128 179 187 188 189 189 192 192 189 191 191 193 191 189 185 177 168 146 137 110 113 126 133 140 144 141 145 136 138 134 131 125 130 102 9 18 28 22 16 32 63 88 77 58 54 37 22 25 27 16 20 22 29 27 69 94 100 110 143 149 148 142 148 153 152 158 163 165 172 181 180 183 182 183 182 181 183 183 178 180 178 170 160 159 155 145 131 123 125 135 157 160 146 153 163 161 166 169 179 185 185 189 188 185 190 183 181 170 158 145 128 107 111 116 125 132 135 130 138 133 132 131 124 120 128 76 6 20 23 30 9 34 53 75 82 68 54 26 24 21 26 23 24 26 22 12 30 86 97 117 140 155 145 151 148 154 154 154 158 163 168 172 172 177 175 175 177 174 176 176 167 168 164 158 147 141 137 127 117 111 119 140 164 167 174 149 126 103 102 105 134 152 163 175 178 179 172 175 166 154 140 129 113 95 101 109 119 122 125 129 127 129 124 122 120 117 119 43 12 22 21 25 14 30 47 62 75 78 46 27 25 24 23 25 29 23 22 10 18 80 94 113 137 154 146 152 147 154 153 153 152 154 162 166 165 169 162 166 168 162 165 165 159 154 153 142 138 124 122 111 113 120 133 154 163 167 170 174 139 109 106 108 97 114 126 134 146 155 157 149 144 134 123 109 111 91 94 101 110 117 120 123 125 124 120 117 115 116 94 23 15 25 25 18 25 14 56 44 78 79 69 25 23 27 26 22 34 21 23 14 15 73 92 113 134 148 146 151 154 151 151 152 148 152 154 161 165 161 159 163 161 159 157 155 148 143 141 134 125 115 109 109 120 135 144 161 168 168 170 169 158 133 121 120 119 117 107 116 114 125 124 117 116 112 107 110 114 105 91 95 106 110 113 119 120 119 116 114 111 110 66 10 20 23 20 24 24 10 42 56 64 82 79 20 31 28 26 17 38 22 24 16 14 64 87 107 131 145 149 153 157 154 153 153 153 147 148 152 153 156 153 156 154 147 151 141 139 130 125 117 110 107 117 129 135 143 160 169 170 174 172 168 168 152 140 131 123 121 108 99 100 95 97 89 101 115 117 119 113 117 101 88 98 104 106 112 114 113 115 106 105 104 29 9 22 21 25 21 18 13 26 59 56 79 74 16 35 30 23 18 40 23 26 19 11 62 83 102 129 143 148 153 152 158 155 149 150 148 145 145 147 145 146 144 144 141 134 135 127 123 117 107 110 120 125 132 139 153 165 174 174 178 176 174 174 166 149 141 131 118 101 95 99 96 88 106 109 120 122 118 117 116 112 85 90 99 101 107 111 110 111 104 103 87 16 15 18 21 22 24 19 18 17 48 53 71 70 22 30 27 20 22 40 24 29 20 6 62 77 95 122 140 145 151 153 158 154 154 148 146 142 140 141 139 140 143 139 132 131 124 117 111 108 109 122 124 125 132 145 160 177 179 176 177 182 179 179 180 165 147 134 116 106 109 111 109 106 115 116 120 125 123 120 114 112 91 80 97 101 100 110 109 109 96 108 58 15 14 22 19 20 23 24 19 10 42 43 71 75 33 26 23 21 22 45 21 28 28 8 56 92 90 120 134 143 147 156 156 156 154 150 144 142 141 136 140 140 141 138 131 125 123 115 103 114 117 120 117 125 129 152 165 176 183 173 180 179 179 183 179 174 158 137 119 119 121 118 118 115 117 124 120 125 125 117 108 103 98 69 90 108 105 109 112 104 105 100 30 17 18 18 22 21 25 24 25 12 27 48 58 75 32 25 20 19 28 46 20 27 30 8 51 98 89 113 130 140 146 150 155 156 154 151 148 142 139 131 143 142 144 136 130 123 119 112 108 110 109 115 112 123 138 156 172 174 178 183 180 177 181 181 182 175 167 142 129 124 131 128 127 130 124 128 125 125 125 121 104 94 96 64 86 105 111 110 112 103 109 78 19 17 19 17 22 21 21 26 24 23 12 46 61 62 26 18 27 18 35 40 25 24 37 8 52 97 105 103 122 134 140 147 153 153 151 152 149 145 137 138 144 142 144 135 127 131 121 118 107 101 104 101 104 117 144 157 168 168 177 179 182 183 183 183 183 179 165 149 143 140 138 140 137 140 133 126 132 126 124 119 98 91 91 66 93 112 118 112 109 106 114 37 14 22 21 18 20 20 22 23 26 22 11 27 61 59 20 23 22 26 33 41 20 27 45 11 50 102 116 100 113 126 137 143 147 151 152 151 151 144 143 144 142 143 142 142 133 140 132 122 99 103 109 99 76 80 105 124 131 135 144 147 155 158 159 156 160 150 146 150 152 155 146 145 135 129 118 115 116 115 107 96 79 88 84 78 100 119 121 114 101 112 87 22 13 28 21 15 19 17 25 22 26 23 19 19 46 60 21 24 27 29 38 37 18 31 44 14 58 107 114 118 98 121 129 142 139 147 149 151 146 145 142 146 144 141 139 144 141 143 140 116 99 115 123 129 121 71 58 66 93 100 105 104 108 119 117 107 112 108 110 117 126 135 130 119 110 102 96 91 87 92 81 84 98 103 93 93 110 123 123 110 101 112 53 10 18 24 24 16 19 15 23 23 21 23 17 22 30 57 24 35 27 28 44 29 14 34 51 12 64 111 116 127 102 107 125 134 138 141 146 145 148 144 149 143 142 138 136 137 141 143 137 113 107 128 137 143 152 136 114 85 67 79 62 68 105 103 97 101 106 107 100 101 101 112 101 95 94 100 71 56 57 69 87 108 115 116 107 102 119 121 117 102 107 84 21 13 23 24 17 22 18 18 22 23 22 25 19 28 33 39 31 34 30 32 48 26 19 37 47 15 61 114 116 125 116 96 114 124 133 133 138 143 144 145 146 145 142 139 136 130 138 136 136 112 125 133 149 149 156 163 159 142 126 116 103 83 99 121 97 120 137 126 105 93 94 93 91 86 87 100 64 42 55 80 106 115 118 124 110 108 118 116 109 99 103 42 15 20 21 24 18 20 17 18 21 20 22 20 23 15 55 31 35 30 33 35 49 20 22 36 41 13 70 113 117 116 128 104 99 114 124 130 133 136 144 141 145 145 140 139 135 133 128 134 129 124 133 144 153 157 155 165 173 170 165 155 162 144 125 109 82 114 149 135 126 98 117 114 114 107 85 86 69 83 81 99 116 115 123 126 109 111 117 108 100 102 70 11 19 21 25 18 17 21 19 18 20 25 19 28 22 26 53 52 33 35 31 36 41 22 23 38 35 13 71 116 121 118 118 115 100 100 114 122 129 128 136 135 142 141 140 139 137 132 129 136 132 133 144 150 157 159 159 162 174 172 168 164 158 154 168 150 130 110 115 112 111 86 116 120 108 105 82 93 96 92 94 112 117 119 129 119 111 111 109 103 98 83 27 15 20 24 25 23 16 19 18 20 18 24 15 39 26 13 68 53 36 29 36 36 37 25 23 39 26 13 76 113 120 123 115 114 111 96 104 111 121 128 127 133 139 137 137 142 137 136 136 138 140 142 148 157 158 159 162 159 167 172 168 169 164 150 154 151 149 150 137 127 118 102 102 101 99 105 107 106 88 91 106 117 117 123 125 117 111 107 104 98 96 38 18 21 23 23 22 20 20 19 17 15 22 21 14 43 27 10 68 61 29 34 38 34 33 24 31 35 14 14 81 115 119 120 123 115 113 106 96 101 115 121 124 124 133 136 133 133 142 137 145 141 145 147 161 159 164 162 160 154 154 165 168 169 158 162 152 141 136 139 133 141 140 123 120 119 112 108 103 90 87 103 119 113 119 127 130 113 112 107 98 95 51 17 24 25 21 23 24 20 20 17 17 18 20 20 19 40 22 18 56 67 29 39 35 35 33 28 29 26 12 25 84 111 119 124 121 120 116 110 101 94 101 115 121 122 130 131 135 137 138 140 144 147 152 154 163 163 163 158 154 156 155 155 154 162 159 158 154 146 143 125 118 115 111 107 104 102 98 96 93 93 106 118 116 115 121 131 124 116 107 101 97 59 21 19 22 25 19 25 22 18 19 19 17 17 20 16 24 40 21 21 59 63 30 40 35 35 31 24 27 19 10 37 79 111 120 125 123 117 119 112 107 106 95 98 112 122 122 128 132 138 136 139 145 153 157 162 167 167 164 165 160 160 159 155 146 147 153 152 150 146 140 124 117 109 107 106 102 98 101 104 109 110 113 118 111 115 127 127 124 116 104 95 72 25 17 23 23 22 20 23 23 16 22 15 22 13 25 14 29 39 25 25 53 62 32 41 37 37 32 20 32 29 11 50 82 109 121 124 127 123 117 118 113 108 104 97 96 109 113 123 125 136 134 146 147 155 156 165 171 171 170 167 165 168 164 154 151 146 143 144 142 143 138 128 122 120 118 114 113 113 115 116 117 113 112 109 116 121 129 127 121 111 100 68 26 21 21 25 22 22 24 22 21 17 19 17 18 19 18 24 27 40 23 21 60 68 31 37 38 37 29 22 45 33 21 61 84 105 119 122 124 128 120 116 113 112 102 106 96 96 105 115 121 129 135 138 147 150 155 160 170 175 173 172 170 171 166 160 154 150 147 139 134 131 128 128 122 121 119 116 116 111 117 112 113 108 106 113 119 129 128 128 120 109 77 30 18 20 21 23 24 14 27 18 23 17 19 17 18 20 18 30 33 32 18 29 68 55 35 27 38 36 25 26 22 18 35 71 79 109 114 125 125 124 123 119 117 110 108 107 105 96 98 98 114 121 130 136 142 149 156 159 168 175 174 173 175 172 169 165 158 155 149 145 137 128 126 121 118 121 114 113 110 113 108 108 112 108 116 119 124 133 125 126 120 81 31 14 24 16 20 23 17 21 24 22 19 18 16 23 15 18 20 34 31 23 22 41 64 51 30 27 33 34 21 24 22 17 60 78 79 105 117 123 129 126 124 122 121 114 110 110 106 104 102 93 98 106 122 127 136 139 149 154 163 171 168 171 178 173 171 172 164 163 162 158 155 141 134 128 126 119 116 118 116 118 118 117 124 120 124 124 128 133 128 127 103 33 14 20 20 21 20 23 21 19 19 22 17 20 15 20 14 15 27 33 30 15 30 51 57 48 26 29 31 27 18 20 18 31 66 82 79 106 119 122 124 128 127 119 120 118 117 112 110 106 107 100 97 93 106 117 127 131 137 146 156 166 166 167 174 174 176 174 172 171 167 166 163 159 152 145 142 132 131 134 132 132 130 133 130 124 128 131 133 132 129 122 57 11 17 22 18 23 20 20 21 21 20 23 16 18 19 18 17 17 33 35 27 15 47 55 48 54 21 27 31 21 22 10 16 40 76 77 84 106 116 126 125 130 129 127 118 120 121 118 111 110 110 107 105 94 96 99 116 123 124 135 143 153 161 167 172 174 177 175 171 174 169 174 173 171 175 170 167 161 160 158 151 145 146 145 139 134 136 133 135 131 129 91 15 16 19 19 17 23 17 22 16 23 24 17 19 18 18 13 17 26 29 31 18 33 51 50 53 61 19 26 30 19 29 17 21 64 74 81 86 103 117 126 127 127 129 129 124 121 116 123 116 115 114 111 109 104 101 95 102 108 118 127 129 142 152 164 167 169 171 175 180 180 180 176 176 181 182 176 176 165 170 165 161 159 154 150 147 136 143 134 132 129 115 41 8 22 15 22 19 16 19 22 21 20 20 18 19 16 21 13 20 28 26 20 27 40 55 58 65 61 21 27 31 28 33 30 42 71 78 81 89 99 119 125 130 127 129 130 132 127 120 118 120 122 114 118 109 112 108 105 96 101 104 113 120 127 138 150 159 160 166 172 176 182 180 183 178 182 178 178 175 169 167 167 165 165 160 149 148 138 140 139 127 127 66 11 18 19 21 20 18 21 20 24 18 19 22 18 15 18 18 20 20 27 17 21 45 56 66 62 64 68 27 32 36 35 42 41 62 80 81 80 87 101 118 128 126 130 130 135 130 125 133 124 118 120 117 115 119 110 114 108 110 105 102 101 104 111 119 133 144 154 155 165 162 176 180 180 182 178 176 172 172 165 164 160 159 160 156 151 141 128 136 131 118 93 22 15 19 20 18 23 19 18 22 22 18 19 17 22 14 16 17 22 18 25 18 34 63 65 66 58 65 71 32 38 39 42 48 47 69 85 80 82 94 99 120 127 131 131 133 134 134 127 130 130 127 116 120 118 117 115 116 112 111 109 110 104 100 102 105 116 128 142 146 157 161 168 171 175 177 171 165 166 161 159 155 147 144 146 147 137 130 127 122 120 99 38 16 18 18 22 18 20 22 18 21 18 17 18 19 16 19 14 19 21 20 27 26 53 66 61 65 56 67 62 