P2
92
112
255
134 138 136 134 137 135 132 129 133 131 135 135 134 135 133 137 138 84 90 113 122 137 103 68 42 38 39 37 33 30 34 27 27 29 31 33 29 33 31 30 33 33 35 28 30 29 32 31 26 30 23 33 35 34 37 41 63 72 98 121 120 118 116 126 126 134 131 131 130 132 134 131 132 130 134 132 128 133 129 129 133 133 129 132 131 133 131 129 132 129 131 127 134 135 135 137 135 131 131 132 129 127 134 135 138 132 135 139 120 55 88 112 137 126 75 46 35 36 36 34 31 34 29 30 27 28 27 33 25 27 31 29 31 32 32 29 27 29 32 29 29 27 31 23 27 32 28 30 31 28 29 59 89 113 116 111 124 130 127 131 133 129 132 132 132 132 132 132 130 133 131 130 133 132 129 133 131 131 130 132 130 130 130 129 133 134 135 135 140 126 124 136 122 121 130 135 137 134 133 141 104 56 70 120 138 97 32 36 37 38 24 41 26 30 28 31 27 28 29 26 29 27 28 29 26 30 24 31 29 29 30 30 30 30 29 31 24 25 29 28 30 28 24 25 23 46 70 75 98 119 127 131 128 131 129 133 132 132 129 135 131 133 132 132 134 130 131 132 133 131 129 133 130 127 132 133 132 136 136 133 135 126 125 127 131 109 118 121 125 136 130 133 97 59 57 75 74 43 30 36 36 35 27 29 27 29 27 28 26 25 26 26 30 26 26 28 30 26 27 28 28 25 31 27 32 27 34 25 31 26 25 31 28 32 24 32 27 27 25 38 26 49 83 120 134 127 126 131 130 132 132 133 130 130 133 130 133 129 132 131 129 132 130 134 131 132 128 132 134 135 139 136 136 126 123 121 122 123 97 118 118 123 130 124 84 58 44 39 34 35 37 29 34 34 26 32 28 29 28 25 31 23 28 25 29 26 26 26 30 25 29 29 27 28 25 30 28 25 30 28 26 30 30 28 34 31 24 30 34 26 26 40 32 27 31 48 94 127 124 130 131 128 131 132 131 129 133 128 128 132 131 132 129 133 130 133 129 129 130 127 134 136 135 136 134 129 129 118 105 97 96 90 108 119 120 105 72 40 36 30 35 36 28 27 35 29 28 30 44 25 29 25 33 21 27 24 26 33 29 24 27 29 28 26 24 28 25 27 33 22 29 34 25 27 35 31 28 34 26 24 37 32 24 32 39 34 27 29 35 56 87 119 132 133 123 131 124 128 124 124 126 128 127 128 130 131 132 130 126 132 131 129 135 134 136 135 133 131 126 129 111 96 90 73 65 73 74 54 35 34 29 25 35 33 31 25 34 32 28 26 53 36 27 27 28 31 26 26 26 30 34 26 30 30 29 27 23 31 25 24 29 31 26 29 37 36 24 37 33 33 29 28 28 32 28 33 31 40 47 30 36 40 41 46 99 130 129 124 130 130 130 128 130 132 134 125 127 130 130 133 132 129 132 127 133 135 133 137 129 133 121 121 113 102 99 83 50 34 33 34 35 36 23 26 35 31 29 28 28 36 30 21 52 34 31 28 28 32 27 25 28 34 33 29 28 32 28 30 26 27 31 29 30 27 42 32 31 43 34 23 35 32 37 26 33 27 26 36 30 31 35 48 37 58 37 36 42 74 124 127 125 129 129 125 129 130 130 132 125 128 130 130 130 130 130 126 134 132 135 134 131 130 123 118 108 93 88 55 29 26 20 38 33 35 29 28 34 31 31 28 27 36 32 25 45 38 30 27 30 34 26 27 25 34 37 28 24 38 27 33 35 34 25 44 36 30 32 44 29 35 40 32 27 26 47 32 31 34 29 26 33 39 26 40 40 57 45 40 40 40 55 123 130 131 131 128 128 126 130 132 130 124 132 129 130 129 131 128 134 137 133 138 134 127 125 119 103 96 49 32 21 24 27 39 31 28 30 37 34 37 33 27 30 32 31 25 43 44 35 39 20 41 31 26 26 35 41 33 27 36 32 35 31 43 34 39 50 36 28 46 51 35 36 41 31 29 28 60 33 41 37 30 28 37 34 36 32 50 51 43 52 48 47 57 112 134 128 130 128 127 127 130 130 125 130 130 130 129 129 131 134 139 133 132 127 127 113 103 85 53 28 31 23 23 27 39 29 23 32 32 33 33 33 31 28 34 33 21 41 53 35 43 21 37 36 20 35 30 54 36 31 36 35 36 34 35 50 33 52 44 35 37 69 43 47 48 37 35 28 41 58 27 47 31 36 29 40 46 33 44 54 45 43 61 44 51 52 96 131 133 126 132 123 127 125 122 131 129 129 130 130 129 134 134 129 126 120 115 99 79 59 34 29 29 24 24 32 32 31 23 33 36 32 30 36 26 31 36 32 28 30 54 32 44 33 35 37 21 37 37 59 51 33 36 39 35 40 30 51 48 39 51 49 39 58 67 46 61 41 41 37 35 49 50 34 47 36 38 31 56 44 55 43 50 36 56 54 45 49 43 75 125 130 125 127 133 122 122 121 128 124 128 131 130 136 132 125 117 101 90 74 48 33 27 32 31 23 26 32 35 30 30 29 40 28 33 39 29 29 36 32 31 35 45 32 45 36 34 47 29 36 44 52 59 49 32 44 47 42 41 46 60 48 44 60 52 48 76 55 66 50 49 39 45 36 53 41 56 35 44 40 47 65 52 53 52 47 43 67 54 48 43 52 57 112 127 126 130 119 115 129 127 127 126 129 123 133 135 125 118 97 81 50 33 29 26 34 30 28 24 32 37 30 32 25 37 41 31 38 34 30 32 36 31 36 40 35 45 45 30 51 36 33 45 48 57 59 34 43 52 39 45 46 60 66 46 57 64 57 61 68 54 78 47 47 54 46 55 61 49 55 32 56 44 66 52 57 65 46 44 54 66 53 43 52 47 52 121 123 126 118 119 134 128 128 128 128 130 134 126 107 93 68 38 33 29 32 30 23 34 32 26 31 35 29 30 27 33 46 37 40 37 36 34 36 32 39 48 25 44 51 29 60 44 37 46 51 49 68 44 40 58 49 42 54 61 63 54 49 66 60 59 62 56 62 69 54 59 52 56 73 54 57 45 45 57 55 58 50 69 50 36 50 51 63 51 44 54 44 45 132 117 118 122 130 131 124 128 130 128 130 123 120 97 50 25 31 32 37 29 24 39 31 32 30 34 37 30 29 38 43 39 38 40 34 44 33 34 55 55 30 50 54 34 58 49 38 48 51 48 62 53 41 56 58 47 49 53 61 51 54 55 51 60 62 65 42 73 62 55 60 55 63 64 51 56 35 58 59 60 55 50 57 48 38 53 63 60 48 42 57 24 99 123 111 124 132 123 121 127 129 128 126 125 114 70 39 25 25 37 40 32 26 32 34 30 32 34 38 34 26 40 37 44 36 39 34 50 39 33 59 60 30 48 51 36 59 48 44 46 56 52 51 55 45 56 58 55 48 54 48 62 47 42 49 57 60 79 44 61 73 59 52 53 55 58 55 56 35 37 64 67 61 38 64 55 44 48 60 62 46 48 51 47 43 125 123 111 124 122 122 126 124 128 128 122 87 49 32 28 25 43 40 38 26 30 32 34 38 37 41 38 27 40 29 49 32 43 31 49 40 29 57 58 27 53 45 40 50 47 49 49 46 53 47 48 54 53 58 54 52 60 48 63 49 43 44 59 52 57 63 52 77 68 44 56 57 56 54 54 52 26 46 77 60 49 50 67 52 44 57 57 47 55 47 59 36 97 127 122 110 124 127 122 126 128 120 107 62 38 31 27 27 37 41 39 29 36 32 35 47 39 40 40 31 43 38 44 44 37 39 52 42 33 53 55 36 54 51 41 52 45 53 48 45 54 48 45 46 54 52 48 61 52 54 59 55 45 42 58 65 49 67 55 76 68 55 47 66 51 55 55 54 46 38 65 73 48 48 61 68 47 45 57 54 48 51 66 46 52 127 129 116 121 128 119 124 129 111 99 50 30 31 30 33 40 35 41 38 34 38 39 55 41 40 42 33 43 49 48 51 52 34 58 42 40 58 50 33 54 49 47 51 41 47 53 39 60 51 51 46 57 48 48 52 51 47 52 62 46 34 54 74 49 63 59 81 69 63 49 67 50 62 65 52 69 35 62 75 44 49 52 66 52 48 49 61 51 60 64 53 33 119 123 131 115 120 124 128 126 111 82 42 24 41 35 41 53 35 42 44 34 41 35 48 51 41 46 40 50 55 54 52 47 52 51 49 46 55 48 42 45 52 46 54 41 42 51 50 57 59 56 53 54 47 48 51 57 44 51 67 59 47 44 70 50 58 66 61 62 65 70 53 61 46 65 58 52 48 44 72 57 45 53 51 56 57 49 60 66 65 59 60 33 75 124 127 119 112 127 127 125 111 68 34 20 46 45 43 47 41 41 46 37 47 38 49 57 53 48 52 57 54 51 58 56 47 58 53 49 57 53 47 46 49 42 50 42 38 48 52 62 60 56 52 59 50 57 57 57 53 45 59 68 63 39 63 49 51 82 36 64 54 72 60 57 44 39 61 47 36 38 62 63 41 61 47 51 57 48 59 73 58 55 56 50 52 99 128 121 113 121 124 124 91 50 30 18 41 52 43 50 40 44 41 40 51 44 37 52 57 56 50 61 53 54 63 55 46 55 60 45 57 57 42 49 48 43 48 38 37 55 50 62 50 56 46 61 54 50 66 57 59 45 54 75 75 41 64 45 39 76 55 51 42 70 57 52 40 28 43 52 31 31 42 63 34 61 55 55 47 49 56 63 45 51 64 62 36 56 122 121 112 117 119 125 61 45 29 21 25 60 46 54 48 42 50 50 52 54 34 44 58 62 52 63 64 51 57 59 49 49 63 45 52 59 45 44 51 45 46 37 45 58 47 51 47 52 50 62 55 50 60 57 56 55 56 60 69 51 46 57 29 53 60 39 44 56 51 46 36 28 31 52 32 31 42 43 32 47 66 62 47 44 62 51 40 60 62 52 40 30 101 112 106 100 109 122 55 42 30 32 20 57 51 52 53 46 51 48 53 46 47 42 56 59 55 65 58 44 56 54 56 51 63 51 50 58 46 47 48 42 47 29 53 59 42 44 40 41 51 52 51 49 49 49 46 52 58 55 61 48 36 55 28 42 60 38 35 38 48 42 35 34 29 41 39 30 38 38 33 28 61 50 46 55 60 50 44 64 55 53 50 37 65 105 99 94 118 121 51 39 34 35 40 35 54 42 51 52 50 47 55 51 48 38 50 60 59 58 58 43 50 54 56 56 53 57 51 57 52 48 42 41 47 34 52 55 43 42 38 35 43 49 39 43 44 42 45 49 47 59 51 45 34 43 34 38 54 44 34 40 36 39 36 38 40 34 46 35 33 37 36 29 47 43 47 56 54 57 52 62 66 64 57 49 39 112 104 107 116 125 51 42 37 34 31 39 47 42 48 52 46 51 49 51 40 44 60 61 63 56 62 49 62 58 52 62 53 63 56 60 57 50 45 45 45 49 47 48 45 42 42 39 43 44 42 46 46 43 47 52 48 60 52 45 36 45 42 41 51 52 39 52 45 40 39 41 50 49 49 50 41 34 47 40 39 38 39 62 63 63 59 65 62 63 65 63 50 83 97 107 112 115 51 44 41 38 29 47 42 42 39 50 46 51 48 49 51 48 72 75 63 66 69 58 69 70 53 62 67 67 58 68 64 57 49 57 47 55 49 48 51 48 54 51 57 50 47 58 55 61 50 66 60 55 59 54 43 48 50 58 56 63 55 62 62 66 51 58 66 70 65 70 57 50 63 54 37 42 47 58 59 53 45 55 62 54 50 43 36 64 106 93 106 111 39 47 46 36 47 38 57 30 40 45 50 50 48 53 64 69 65 98 66 60 76 68 80 75 62 67 78 69 70 74 75 65 59 71 59 58 58 62 70 65 71 77 74 67 62 78 88 88 74 82 74 65 68 65 59 60 60 68 86 78 81 93 86 98 88 86 95 92 88 103 86 85 84 77 59 50 50 53 55 49 52 56 65 57 53 47 25 64 103 109 101 109 40 50 50 44 44 52 45 56 45 45 36 54 59 63 59 80 70 94 86 64 75 82 84 89 75 78 75 85 68 82 75 87 75 101 72 80 75 86 101 91 112 123 105 105 104 112 130 118 119 120 100 103 99 95 83 90 90 84 103 104 121 124 125 132 118 129 131 137 120 138 120 120 113 97 81 60 59 57 55 50 55 57 56 53 48 47 36 54 102 108 105 112 39 43 50 46 41 46 48 53 58 38 40 57 76 68 68 69 91 94 99 76 81 94 97 91 78 92 75 89 82 84 87 96 102 125 103 112 105 112 121 114 150 165 145 125 151 152 162 140 146 156 137 117 130 112 114 121 117 107 118 128 157 142 153 149 144 147 160 162 139 149 141 127 129 116 84 61 69 74 65 58 54 47 55 53 45 38 36 53 94 113 101 114 49 43 49 46 52 33 52 47 50 52 45 63 80 78 72 80 92 90 95 103 85 92 102 91 87 97 93 82 102 82 85 90 118 131 133 142 141 146 159 143 169 179 175 149 171 182 176 157 159 185 168 136 151 150 146 144 161 148 141 153 163 154 164 169 151 165 171 161 146 159 157 122 113 110 89 73 77 77 77 70 66 59 52 50 48 50 27 40 99 96 111 104 56 46 49 47 48 49 50 48 45 50 56 69 71 81 84 78 87 88 99 95 98 92 94 99 95 99 102 95 98 101 104 102 106 118 128 147 154 178 195 180 171 167 172 175 164 184 169 165 164 182 174 165 164 169 169 169 180 174 174 173 175 164 170 176 174 173 186 169 170 157 175 154 122 112 100 90 84 76 76 72 72 74 69 50 53 48 39 25 98 108 114 118 58 50 43 52 54 47 54 50 48 53 66 71 76 87 83 87 90 83 93 90 99 101 109 102 110 109 110 114 107 103 108 110 113 110 133 145 150 173 185 183 174 175 162 179 156 176 175 156 167 176 182 167 165 180 181 163 190 178 177 168 173 166 173 188 182 176 189 179 178 159 174 176 141 124 104 95 88 78 76 73 68 72 77 60 53 51 45 26 90 124 99 123 50 58 40 43 62 48 46 55 52 60 69 67 85 84 70 89 81 90 90 92 97 106 114 116 114 119 122 116 111 116 118 132 125 121 133 146 156 161 182 188 177 180 168 173 167 173 189 166 167 187 182 170 161 167 169 147 177 174 172 177 176 175 178 190 191 187 190 189 185 170 178 184 165 140 122 102 84 70 72 70 67 65 64 65 58 56 46 26 75 122 105 109 44 58 43 41 57 46 57 59 54 63 67 81 86 84 73 85 88 92 92 95 104 112 122 118 110 121 130 126 125 128 137 138 125 137 142 152 156 160 185 192 186 186 180 182 172 175 181 178 164 185 179 186 167 183 176 158 188 184 180 191 179 185 189 190 195 194 194 195 188 178 184 185 171 165 133 120 100 79 72 68 57 63 55 55 62 47 55 27 75 108 103 105 40 54 50 41 52 52 51 62 55 68 73 80 86 86 76 91 87 89 92 102 103 119 129 109 116 133 126 133 133 125 137 133 127 153 152 158 169 170 184 188 192 192 179 180 176 168 168 173 172 193 183 190 189 190 191 168 190 189 187 195 185 189 195 193 195 198 197 199 192 184 184 189 174 173 152 132 115 101 83 67 56 54 54 48 53 48 39 35 66 93 108 96 47 44 58 42 53 49 53 57 59 66 69 81 81 91 82 90 87 85 92 103 103 121 116 112 125 133 123 132 130 128 138 146 144 159 158 165 175 183 188 191 194 197 198 201 187 182 185 184 192 202 195 191 198 198 191 177 189 190 194 197 191 193 198 195 194 197 197 198 196 193 187 187 178 174 170 146 130 109 98 79 59 53 50 46 45 42 37 30 51 88 96 92 33 48 52 48 49 53 48 48 53 61 60 64 84 93 88 82 84 81 92 103 108 115 113 115 129 121 128 134 136 136 146 151 155 170 169 178 184 198 198 195 195 202 201 202 199 192 198 184 188 203 200 193 197 203 192 187 189 191 198 197 197 197 198 199 193 199 196 199 198 192 193 186 180 173 175 165 142 123 115 85 71 51 49 45 43 37 38 44 44 77 90 73 32 41 53 48 46 53 48 49 44 48 53 65 80 91 84 80 84 77 97 97 110 108 114 118 125 121 134 144 146 138 151 159 163 172 178 185 188 199 201 199 198 202 201 202 202 197 200 195 187 198 200 199 200 203 195 195 193 187 197 203 200 196 198 199 198 200 196 198 197 195 193 189 181 175 173 169 150 131 121 107 80 56 47 41 38 36 31 46 55 65 90 67 46 31 54 46 42 47 50 45 43 42 62 63 73 81 79 80 84 64 100 95 112 103 107 123 121 131 148 157 154 152 165 175 165 177 186 189 191 200 201 198 199 203 202 204 203 199 197 195 201 197 200 201 199 203 195 195 194 191 196 202 202 194 200 202 198 201 194 195 197 192 193 188 184 176 171 170 156 142 133 119 102 70 42 38 35 32 32 33 53 77 73 65 49 38 38 44 38 48 48 42 40 47 63 58 62 76 75 79 82 60 88 93 107 101 106 124 123 147 162 170 163 156 174 179 173 175 186 189 190 199 200 200 198 201 202 202 203 202 195 195 202 203 203 201 202 203 194 197 197 197 195 201 201 193 197 201 201 197 196 195 195 191 190 186 186 175 171 171 158 145 136 125 120 83 50 30 37 32 25 36 48 66 94 52 46 48 36 39 40 49 44 40 40 51 59 55 54 72 80 79 74 58 82 95 99 98 101 136 136 157 167 171 167 162 180 182 183 176 189 183 189 195 200 200 196 201 202 203 202 202 198 198 202 204 202 204 202 204 197 196 197 198 196 198 201 197 199 202 197 195 194 193 197 190 188 184 185 176 171 166 157 144 141 130 123 105 51 28 35 31 25 29 40 83 76 87 33 55 37 40 40 42 45 41 43 49 56 47 55 66 76 75 63 56 84 92 94 99 106 139 154 165 170 170 173 166 180 182 187 184 185 187 178 191 198 198 197 201 201 201 201 202 201 200 203 203 202 201 201 202 200 197 197 196 199 198 200 196 196 200 194 196 193 194 195 190 187 184 179 175 168 163 158 147 144 135 124 112 59 30 28 29 26 25 31 77 75 83 36 41 51 36 44 36 41 42 47 49 43 44 53 51 69 64 54 53 79 84 98 94 116 140 152 167 172 171 175 170 183 181 187 188 186 183 173 189 193 198 198 199 201 199 200 199 201 200 201 202 202 200 201 201 199 197 200 198 199 200 199 197 194 197 194 193 190 193 194 189 182 186 179 173 168 160 156 151 143 136 125 111 67 28 27 28 24 25 31 55 93 75 38 38 48 40 41 38 36 47 44 41 37 45 55 48 60 55 42 52 79 79 98 101 119 146 160 172 176 174 177 174 177 187 187 187 190 184 179 186 195 194 197 200 199 199 199 197 200 201 200 199 199 199 200 200 197 197 199 197 197 199 196 198 196 196 190 190 191 193 190 184 182 180 177 175 169 160 154 150 145 134 125 117 66 30 23 27 24 24 29 44 94 71 43 35 42 42 38 46 41 40 35 41 29 44 43 46 49 47 44 47 71 81 103 107 126 147 163 167 176 175 175 180 175 187 191 187 192 182 184 189 196 194 197 199 199 198 196 197 198 199 199 198 200 197 200 197 197 195 198 197 192 196 195 197 194 192 186 188 190 188 185 178 181 179 174 170 168 161 150 150 140 139 122 112 70 28 22 26 28 13 56 26 67 93 42 40 33 45 41 47 45 36 37 34 28 40 41 44 44 44 41 50 67 80 106 111 124 149 159 169 173 177 175 181 182 185 189 188 192 184 186 193 196 196 197 198 197 198 198 196 197 199 199 197 199 196 199 197 196 195 198 194 192 196 195 194 193 190 187 190 189 185 183 181 176 174 170 170 165 159 153 146 145 140 123 114 60 25 22 25 24 14 63 41 60 91 36 49 32 43 43 40 49 36 37 40 30 34 41 37 38 41 39 57 62 71 103 117 125 146 157 164 174 173 176 181 184 186 188 191 191 186 192 194 195 196 196 196 197 199 197 197 197 197 197 197 199 195 198 195 197 196 195 194 195 195 194 194 191 190 188 188 187 184 183 180 179 171 172 173 167 162 153 148 145 140 126 111 59 27 16 25 28 10 59 54 56 94 30 47 49 37 36 41 37 39 34 31 33 38 37 35 41 36 40 51 65 76 90 117 131 145 156 160 167 174 178 185 183 190 187 191 190 188 196 197 194 195 196 196 195 199 200 196 198 198 198 196 200 197 199 198 196 198 196 196 197 195 192 195 191 189 190 186 188 186 188 184 183 181 179 175 170 162 154 149 144 141 125 111 51 25 24 23 26 16 45 71 46 77 33 40 58 44 26 36 40 37 36 34 31 37 36 36 34 37 36 48 59 77 87 109 138 132 152 170 165 170 182 185 186 188 190 186 189 193 196 196 195 196 197 198 198 198 199 197 199 199 197 199 198 199 199 198 199 199 199 197 196 196 195 196 191 191 190 189 188 187 190 187 184 185 179 181 170 165 156 151 150 138 125 111 44 23 27 21 20 29 32 68 54 71 36 42 52 44 36 22 35 39 28 31 31 34 32 35 29 33 42 46 55 67 96 108 125 132 139 171 169 171 183 188 185 190 190 190 190 197 195 198 197 198 199 200 200 199 200 197 201 200 197 201 201 201 201 199 200 200 201 198 198 196 197 193 194 193 193 192 191 191 192 188 191 188 183 179 175 170 164 152 147 144 123 105 44 20 26 25 15 35 41 57 64 72 37 40 43 42 34 30 24 34 27 32 33 31 33 28 33 36 38 44 55 67 101 121 132 135 135 153 173 174 179 187 188 191 192 189 195 198 196 198 198 200 201 201 201 202 201 200 200 202 198 201 200 201 201 200 201 202 201 197 199 198 196 196 196 193 193 193 192 192 194 192 193 192 184 181 173 171 161 156 149 137 122 105 32 25 26 26 12 40 61 77 70 76 42 39 39 49 32 35 27 23 30 33 27 33 31 31 35 37 38 47 54 81 109 126 139 144 150 141 161 175 184 186 189 188 190 187 194 196 197 198 197 198 201 201 202 202 202 202 201 202 202 202 200 202 201 200 201 202 202 197 200 200 196 199 198 193 193 193 194 193 194 195 194 189 183 181 176 166 155 150 145 137 126 97 32 24 27 29 13 35 77 99 86 102 40 40 45 57 44 24 30 24 25 32 26 29 35 34 37 34 45 48 71 92 108 128 142 152 150 158 150 173 185 186 189 185 185 184 193 191 193 195 193 196 198 200 201 201 202 201 200 202 201 201 201 200 201 200 202 202 200 200 200 198 197 199 196 195 193 196 193 194 192 193 189 181 179 172 162 159 145 135 132 130 124 101 24 24 26 31 18 28 89 98 104 109 46 34 44 53 49 31 22 28 25 25 25 29 37 34 39 40 48 61 79 99 116 134 143 155 153 163 167 169 179 183 181 172 179 179 183 180 185 191 187 189 194 195 197 197 199 198 201 199 201 200 200 199 199 199 201 201 201 199 197 197 195 197 196 195 192 195 194 190 192 183 177 165 160 159 141 134 120 111 101 100 115 98 23 22 27 26 33 20 83 102 109 104 44 36 38 51 53 35 30 26 23 24 25 32 33 41 40 42 56 69 97 116 129 138 148 153 156 166 177 180 175 158 136 139 143 158 160 158 173 180 176 180 185 188 191 192 193 194 196 195 196 197 196 198 198 200 199 199 199 199 197 196 192 192 190 188 189 188 187 180 177 162 147 126 109 105 100 91 77 63 60 63 87 93 25 18 27 23 37 36 81 110 107 108 44 46 38 50 45 42 28 27 29 23 28 33 38 42 42 52 74 96 126 140 142 144 151 159 158 167 176 170 140 108 89 101 106 113 112 110 119 129 132 143 156 161 157 167 175 179 185 185 182 187 190 193 193 196 195 197 196 197 193 193 188 183 183 178 179 168 160 147 126 99 93 75 59 57 52 51 47 49 44 43 43 72 31 17 22 22 33 60 90 118 108 108 49 47 37 47 45 33 31 26 23 25 27 33 44 38 48 65 92 113 138 152 150 149 154 159 158 154 137 107 83 76 70 79 90 71 75 74 79 85 81 85 88 94 94 95 116 134 134 157 161 171 179 186 190 194 192 196 197 193 192 188 183 180 172 164 153 133 103 88 71 59 63 56 53 45 46 39 46 52 65 64 39 41 32 20 24 20 31 75 97 112 109 107 48 47 42 46 46 32 33 30 26 25 31 35 40 40 56 81 109 122 148 158 160 156 159 150 134 112 80 73 75 87 78 73 72 63 66 70 65 65 59 60 71 66 65 63 68 84 106 113 128 151 170 182 185 192 188 197 195 191 189 185 178 176 171 155 120 95 68 59 50 55 54 53 56 58 63 75 97 104 115 110 73 40 26 19 22 20 33 82 103 108 106 105 46 46 54 45 44 40 34 30 27 26 30 38 41 41 69 100 117 133 155 162 166 161 151 127 96 78 84 109 123 126 122 110 106 92 92 94 91 87 75 65 69 61 62 62 73 82 93 100 106 123 155 172 185 190 190 193 197 191 187 181 174 167 165 135 91 78 64 64 57 65 76 88 104 115 126 135 138 135 130 128 120 64 22 19 20 18 35 92 91 105 108 108 36 44 51 47 52 49 40 32 32 31 33 39 42 47 77 109 123 142 156 166 168 159 120 91 83 104 131 154 172 170 169 158 160 154 150 143 139 137 126 116 103 92 90 92 97 100 106 109 109 120 150 169 183 185 189 192 196 188 185 175 167 161 142 104 85 84 89 91 97 111 116 120 124 124 132 130 131 127 123 117 119 89 28 13 23 23 21 85 89 99 105 106 42 41 44 49 52 54 41 38 33 30 36 42 45 48 84 117 127 149 162 167 170 137 105 102 118 135 149 156 160 165 158 146 143 139 130 131 126 132 125 126 120 121 125 122 121 123 118 119 119 122 147 166 178 186 189 194 197 189 187 174 166 148 117 91 92 98 96 95 99 107 108 97 109 107 105 93 95 104 111 105 106 105 37 15 20 20 25 56 73 83 99 100 29 45 48 38 54 51 47 42 36 33 41 35 48 51 93 118 138 151 164 166 153 117 116 124 128 138 139 139 140 138 120 110 105 104 100 99 97 104 107 95 95 102 106 106 122 131 136 127 117 119 139 159 178 189 194 195 198 192 189 181 165 123 93 92 91 89 94 93 96 87 84 72 83 91 97 111 88 62 91 100 98 106 59 10 19 18 23 62 82 64 70 97 14 38 52 46 57 54 55 45 39 34 40 39 49 61 98 125 142 157 165 165 149 127 127 133 134 127 126 124 116 104 89 96 94 85 77 79 63 79 75 62 72 93 103 120 102 111 133 136 131 119 119 152 178 194 194 198 201 199 194 186 149 104 92 94 103 98 76 42 79 77 31 35 63 59 47 60 82 77 81 96 97 116 70 11 21 13 28 64 85 104 90 66 10 32 51 55 74 71 62 51 36 34 44 38 52 68 104 131 147 162 169 168 153 136 134 132 131 121 112 109 99 98 89 77 67 70 51 48 33 48 85 21 62 126 91 101 127 115 112 134 144 132 125 137 174 196 199 201 204 199 197 189 135 98 110 112 114 78 32 34 45 77 31 18 102 95 51 46 38 80 96 96 110 122 82 14 23 10 34 63 79 102 102 100 16 16 55 66 100 84 72 51 32 38 44 39 57 71 105 134 156 167 171 171 160 151 149 140 133 122 117 115 110 90 68 55 78 113 63 47 52 41 53 39 93 184 165 111 100 126 124 132 150 145 138 131 165 196 204 205 206 205 203 184 120 130 129 116 136 128 41 52 61 51 45 47 136 139 100 66 42 54 100 114 127 132 96 18 26 10 28 72 82 94 107 101 19 11 48 88 98 84 65 35 37 45 42 49 52 68 109 131 156 166 171 174 174 170 170 159 151 138 126 134 105 76 67 70 104 159 114 65 61 67 49 61 147 202 192 159 124 107 128 156 171 150 146 145 163 193 200 205 206 206 210 186 119 154 137 121 137 153 82 58 61 56 47 110 158 145 103 83 49 73 95 135 140 146 103 25 22 13 23 73 86 86 109 102 19 8 37 106 102 79 48 29 47 46 44 55 49 71 111 133 155 169 172 178 185 186 187 183 177 166 150 154 137 106 61 90 122 150 163 99 66 68 60 129 189 201 189 150 143 140 135 172 179 159 154 161 171 187 203 208 208 203 212 188 133 157 165 147 134 142 134 109 108 99 97 145 150 132 101 68 59 106 122 144 150 147 117 19 28 17 11 75 88 83 99 107 19 20 22 126 112 67 29 44 51 45 62 49 54 70 106 135 154 165 177 183 186 190 193 191 194 189 175 175 169 134 106 97 101 113 139 166 145 134 150 165 169 163 158 153 148 157 175 181 176 157 165 176 181 192 197 205 208 208 205 201 140 154 167 159 153 140 142 125 120 117 113 106 93 94 93 84 90 118 144 155 156 158 122 26 26 18 4 62 81 90 86 109 21 18 5 127 117 52 35 56 53 50 62 53 51 68 107 131 156 162 174 185 185 193 194 195 196 194 189 182 179 159 141 132 135 117 116 125 128 130 133 134 139 144 153 152 153 154 169 181 184 163 170 181 188 186 202 205 207 205 207 206 152 146 169 153 147 152 149 142 136 125 125 123 112 118 123 110 110 133 152 155 159 153 131 25 31 17 6 50 89 83 84 104 23 20 0 97 104 52 43 59 51 54 72 54 50 67 102 130 151 163 174 183 190 193 194 195 196 197 193 189 183 176 167 152 150 147 147 147 140 135 141 138 146 149 149 152 161 165 180 189 190 174 177 188 187 190 197 204 207 206 205 205 168 136 175 169 142 145 151 155 155 144 139 133 128 127 125 117 123 151 159 156 156 155 128 26 42 22 12 31 85 86 84 86 24 26 9 50 86 59 52 53 56 63 73 57 51 63 95 128 144 161 171 185 188 193 194 195 195 200 196 192 187 182 176 172 156 152 151 150 145 146 145 145 152 154 156 167 178 184 197 198 192 184 183 185 192 190 196 203 207 207 203 209 181 131 167 180 171 155 143 147 148 148 145 139 135 135 137 138 139 157 159 156 155 152 123 22 28 34 23 11 70 87 85 75 23 31 20 17 68 76 55 51 67 68 66 61 56 54 88 119 138 154 170 179 189 192 193 193 197 199 197 192 192 192 188 186 176 171 167 162 160 159 160 159 163 162 169 181 190 196 203 200 192 187 185 190 192 190 194 200 207 206 205 210 188 137 152 180 182 174 165 154 151 144 142 139 139 142 143 149 152 160 161 155 151 149 116 19 26 27 28 8 41 81 88 79 23 31 22 14 55 69 58 61 100 67 64 71 60 54 78 119 129 149 165 175 181 191 195 192 195 201 196 198 194 196 194 193 189 181 183 176 175 175 175 175 175 182 186 192 202 200 201 198 193 192 188 191 193 191 190 198 206 209 202 210 195 138 147 172 184 189 182 176 165 161 155 154 157 162 169 172 171 172 164 154 149 151 98 15 26 26 27 21 21 68 84 83 28 25 22 20 43 48 52 94 118 78 49 87 66 54 73 105 129 141 156 165 175 185 191 193 195 197 198 199 199 200 202 202 199 198 197 190 193 188 190 188 192 197 196 201 203 201 200 199 194 193 193 189 192 192 190 197 205 204 207 209 193 148 142 167 180 188 188 190 189 185 182 184 181 178 182 181 180 176 169 149 148 148 85 5 30 25 27 17 28 45 84 81 25 22 25 26 29 56 47 107 119 93 62 92 79 52 68 106 120 134 153 165 173 183 186 190 192 196 197 197 199 202 203 203 203 202 201 200 197 199 197 197 201 202 200 201 201 201 201 199 195 196 193 190 189 193 190 195 203 207 206 205 198 147 145 157 178 187 189 192 192 191 188 192 188 187 182 182 177 175 166 149 145 152 61 6 27 31 28 18 23 50 60 81 26 26 23 32 23 56 59 104 114 99 86 97 88 60 64 102 116 126 145 159 171 180 187 191 189 195 194 198 199 201 202 203 203 202 203 203 203 202 203 203 201 203 201 202 200 201 201 197 194 196 194 192 189 187 191 194 201 206 207 205 195 153 147 155 174 185 190 187 194 192 191 194 191 191 186 183 180 174 168 155 150 141 50 13 22 32 26 31 11 75 46 51 22 22 26 30 31 33 71 108 104 102 88 91 95 65 60 97 114 118 132 152 164 175 183 189 190 192 197 194 199 202 204 204 203 203 203 204 203 203 203 205 202 203 202 203 200 201 199 197 195 194 193 191 190 190 191 193 198 201 208 205 197 155 146 151 166 182 186 187 193 191 190 195 193 189 189 184 180 178 170 157 146 135 37 18 21 29 21 28 10 51 87 26 21 26 25 33 33 25 58 112 105 106 82 94 93 77 59 96 112 113 130 141 157 172 176 183 187 192 194 195 200 201 202 203 203 205 203 204 203 203 204 203 204 203 202 202 201 200 196 193 192 191 190 186 189 191 193 196 196 201 206 207 196 167 146 148 161 179 185 187 191 192 189 192 191 190 190 182 181 175 170 155 142 118 40 27 19 26 25 23 13 26 90 68 20 25 30 35 29 42 17 90 120 117 89 116 106 85 64 90 111 116 120 136 151 165 170 175 187 189 195 196 200 201 200 202 204 204 203 203 204 204 204 201 202 202 202 200 200 198 192 187 185 184 181 184 185 187 193 198 199 202 209 205 197 173 146 134 156 174 182 185 191 192 192 194 192 187 189 185 179 176 162 150 137 93 44 36 23 21 29 21 18 12 72 99 27 24 35 34 34 40 15 30 113 121 97 128 117 94 66 89 111 113 120 126 143 158 167 170 183 190 193 193 199 199 200 202 200 203 203 203 203 202 203 201 204 201 201 198 195 194 182 170 171 180 180 176 180 188 192 198 200 205 204 206 198 185 158 126 149 172 177 183 191 191 191 191 187 185 184 182 176 169 161 144 134 61 35 43 33 20 24 28 16 18 47 87 22 23 31 33 41 29 18 9 41 98 90 125 121 102 75 86 111 118 121 123 136 149 159 166 178 187 192 192 193 198 200 201 201 202 202 203 202 202 200 203 200 200 199 194 187 185 167 158 168 182 185 179 175 185 194 200 202 203 205 206 197 191 170 132 146 171 178 181 187 189 192 191 182 182 182 175 173 162 153 142 120 37 29 43 40 23 25 23 18 23 33 69 24 21 32 32 38 26 18 18 10 26 55 95 111 101 79 86 113 118 123 123 133 146 155 160 171 180 187 188 196 194 200 201 200 198 201 200 201 200 200 198 198 197 192 188 184 174 155 147 179 191 193 191 178 184 192 199 204 203 207 203 200 193 175 149 146 168 175 181 185 189 187 185 184 178 177 173 165 159 146 139 99 16 33 33 50 31 22 24 16 13 35 49 24 24 27 35 33 20 22 19 17 22 20 27 53 66 79 86 113 120 121 122 129 142 143 158 166 176 184 186 192 195 196 199 198 198 199 199 198 198 198 195 195 190 187 181 177 176 156 147 186 194 193 193 189 184 190 199 200 205 205 205 200 192 180 159 151 163 171 175 179 185 182 181 181 177 168 167 162 153 144 133 69 18 35 29 46 41 27 26 27 15 22 56 24 22 31 33 34 17 21 18 22 21 25 23 15 11 64 92 117 125 120 123 127 135 145 150 160 172 180 184 188 189 194 193 198 197 197 197 195 196 194 192 191 187 180 176 174 183 156 141 177 187 187 188 192 188 190 193 201 203 205 203 198 194 183 159 151 160 169 170 174 181 176 177 175 174 165 161 157 147 136 129 42 20 37 32 32 51 32 28 26 21 14 57 22 15 34 36 31 16 17 21 21 24 22 27 18 1 38 96 115 129 124 122 130 132 138 147 152 164 174 179 183 185 189 190 192 192 193 193 193 188 189 188 186 177 170 170 180 189 181 138 145 149 156 166 178 183 189 192 196 199 201 199 196 186 177 149 143 160 162 166 170 169 168 173 172 166 161 156 147 140 135 95 29 20 37 35 24 40 43 27 25 23 11 33 20 17 33 36 29 18 20 20 29 25 24 22 21 12 24 90 113 129 126 127 129 133 137 143 148 160 166 172 177 181 181 187 187 189 187 186 186 183 179 176 174 166 166 169 179 191 190 161 136 104 92 105 128 152 166 180 190 191 192 191 185 176 152 128 153 162 155 163 162 165 159 166 166 161 158 150 144 132 123 76 18 22 41 44 23 28 39 38 27 26 17 16 19 15 32 36 25 17 19 24 31 17 30 24 19 16 9 82 111 125 130 130 129 132 133 140 143 152 162 167 171 172 176 180 181 183 180 180 179 175 172 166 166 160 166 173 184 190 189 181 156 115 97 90 88 109 127 145 165 175 177 172 167 150 112 127 161 160 153 159 160 163 159 164 163 157 152 146 136 119 117 51 18 28 33 43 26 27 31 46 31 24 18 10 18 19 27 32 24 13 23 33 26 22 24 28 20 19 7 57 108 123 130 131 134 132 135 136 138 142 159 160 164 169 174 174 175 173 174 169 171 168 164 158 158 162 173 189 186 189 193 187 178 147 124 109 105 105 101 107 118 128 132 126 123 109 111 140 163 161 155 155 157 158 154 157 154 151 148 137 119 116 97 25 29 36 28 39 23 32 30 42 35 29 21 13 20 18 29 33 23 16 28 32 22 18 28 32 19 19 6 39 101 123 128 131 138 133 134 138 137 140 149 156 159 164 168 169 170 168 167 163 162 160 156 156 160 173 184 189 188 188 196 191 190 174 149 127 116 112 100 93 88 92 91 88 94 111 127 152 161 160 157 151 152 151 146 149 147 145 143 128 112 116 73 14 33 31 34 33 27 30 29 40 37 33 26 21 19 18 28 31 20 20 30 21 25 12 37 31 26 15 8 34 89 116 128 130 138 134 134 135 132 137 137 146 148 154 159 159 160 157 156 155 152 155 154 160 170 182 186 189 190 190 191 192 191 188 172 147 133 123 102 90 87 88 86 88 105 118 144 161 159 160 162 145 147 141 138 140 144 139 134 123 103 112 49 17 30 33 32 30 31 23 29 35 35 33 27 25 17 22 28 29 13 34 28 24 21 19 38 32 20 25 10 35 78 109 122 128 138 136 137 130 130 134 132 136 143 148 153 153 156 149 150 149 150 152 159 172 174 178 180 186 190 190 192 193 193 191 185 172 153 130 110 95 104 100 100 103 119 140 157 161 161 159 153 144 136 134 140 139 134 134 132 108 109 98 27 21 30 32 33 30 29 22 26 28 40 30 25 29 22 19 27 23 24 31 27 20 25 28 42 31 18 20 10 33 77 100 119 125 132 138 138 136 134 130 129 131 139 142 149 151 154 150 150 153 147 155 165 168 172 168 178 184 190 192 189 191 192 193 191 183 170 147 124 115 114 114 110 123 139 148 160 159 157 154 143 140 122 125 134 143 138 139 124 107 114 74 15 25 29 35 34 28 34 20 22 26 35 32 29 21 19 17 27 26 36 24 26 19 36 30 42 30 13 23 12 36 79 90 113 119 128 135 137 136 139 133 129 131 136 145 150 149 149 146 149 146 144 156 153 152 153 164 169 183 188 190 190 189 191 190 191 189 182 165 145 135 130 128 138 141 153 156 162 156 153 144 126 126 113 104 133 142 138 135 119 104 117 45 16 28 29 32 38 27 32 21 20 26 31 31 25 23 20 19 31 31 31 28 19 32 37 32 42 29 19 19 10 47 83 84 100 115 125 131 135 136 141 137 133 131 135 141 150 151 151 156 152 148 147 134 129 133 143 156 171 182 182 184 187 189 188 193 193 191 190 180 167 161 160 158 166 164 163 166 165 160 155 135 114 103 108 103 138 150 144 133 103 114 95 23 17 34 27 33 34 34 26 25 20 22 35 25 19 31 20 22 36 33 28 26 21 42 38 30 42 23 23 16 7 47 86 90 90 104 121 126 133 136 136 137 133 134 134 141 147 154 156 162 154 147 126 114 108 103 106 122 141 157 164 169 176 182 180 185 184 185 182 182 181 181 179 176 172 164 160 163 155 147 131 112 89 101 108 116 145 154 143 124 99 116 65 16 22 34 30 35 36 34 28 22 25 19 31 25 21 32 19 22 33 36 26 22 28 47 39 38 42 19 24 17 7 43 85 93 92 95 112 120 126 133 135 137 138 131 137 135 146 156 159 163 164 149 120 127 130 128 127 91 91 97 109 116 126 132 142 138 142 140 148 166 176 179 173 161 144 128 121 120 118 103 88 109 115 132 123 137 153 148 132 108 107 98 27 21 27 36 32 36 39 30 31 21 21 22 22 27 16 47 26 29 37 32 24 31 35 42 39 49 32 24 23 19 8 39 88 92 94 88 98 113 119 128 134 135 141 136 132 135 132 147 157 155 158 144 136 153 167 171 177 174 150 116 107 98 95 91 93 87 94 97 106 110 129 132 126 113 103 82 76 77 81 99 128 142 157 154 141 140 142 137 116 99 106 52 14 26 29 37 33 39 38 31 23 23 21 23 23 21 18 43 29 37 33 30 28 31 50 40 41 50 31 24 22 18 7 36 86 99 91 94 87 98 115 117 128 132 136 134 130 135 130 135 147 148 150 146 151 164 176 178 179 187 189 181 160 147 138 135 121 109 88 92 95 94 100 99 96 95 91 93 104 98 107 132 147 146 168 151 137 136 135 123 99 98 81 24 17 31 33 35 34 41 39 32 23 21 19 24 24 20 13 49 32 38 28 31 31 46 40 40 40 45 30 30 20 16 10 32 88 97 93 96 90 85 104 111 118 124 129 133 128 130 129 128 131 142 146 151 158 169 174 179 178 180 184 182 182 170 158 165 168 171 157 137 124 110 100 98 107 125 128 135 120 119 130 140 140 152 160 140 137 133 124 107 96 89 42 19 25 29 36 39 30 46 35 34 22 24 17 24 21 21 15 49 37 32 21 27 36 52 37 44 46 42 33 30 19 16 9 31 84 100 95 96 95 81 87 108 112 117 124 130 129 133 130 131 131 141 150 151 162 169 172 176 177 174 179 180 180 180 174 158 152 162 176 179 178 164 152 154 147 147 141 127 114 130 134 136 140 155 150 136 137 130 114 97 96 46 25 25 32 30 38 42 35 42 31 34 24 22 18 23 17 22 24 46 32 25 22 23 42 49 32 56 42 39 38 25 18 18 9 28 84 97 99 96 96 89 82 92 106 111 118 125 124 129 132 137 136 143 150 155 162 171 172 170 175 166 164 173 174 172 174 170 160 149 151 151 155 153 144 147 138 132 127 125 127 135 133 129 149 155 142 136 137 122 103 99 62 17 29 28 36 36 41 41 34 34 28 33 23 18 22 18 21 23 32 42 21 22 22 21 44 45 36 52 39 48 33 22 14 19 8 36 80 97 99 101 96 95 90 82 92 102 111 120 122 126 130 140 139 144 153 156 164 165 169 168 170 168 162 156 160 163 168 163 160 158 146 138 135 137 136 132 128 127 129 132 131 132 121 142 150 152 146 135 128 110 99 67 20 27 31 29 39 39 39 35 28 33 32 29 19 20 19 18 20 21 36 28 20 18 22 20 45 33 40 46 33 52 24 22 16 17 8 38 80 95 97 102 101 97 95 89 83 89 99 105 121 119 126 135 141 148 154 164 165 165 168 168 169 171 172 159 144 147 156 154 154 152 142 134 131 131 130 127 126 128 132 129 123 121 132 151 153 151 144 130 115 98 73 21 20 34 35 28 37 38 33 30 24 29 39 29 18 19 22 16 19 30 44 12 15 19 17 29 35 30 40 31 39 42 26 20 16 17 7 50 75 96 99 102 102 100 99 91 93 81 87 99 106 119 118 131 143 145 154 165 169 170 171 170 172 178 174 168 156 147 141 139 140 142 142 135 133 130 128 125 124 120 120 114 121 132 151 154 153 150 136 125 100 76 28 16 29 30 32 28 35 35 28 21 23 31 37 27 16 17 19 15 22 37 31 13 16 17 20 33 32 24 37 23 35 34 21 17 20 17 11 53 79 94 103 103 105 102 101 94 94 92 84 86 92 110 116 123 134 143 147 161 168 174 174 172 177 177 179 175 168 160 153 141 135 129 127 123 122 118 117 117 114 116 120 132 143 150 159 155 149 146 132 107 79 22 15 24 24 26 27 22 33 25 19 19 28 34 26 23 17 17 20 19 26 32 14 31 20 12 26 28 26 32 26 28 29 25 20 18 18 21 24 61 79 95 96 106 106 104 103 101 96 94 92 82 85 92 106 113 121 140 144 156 162 171 174 178 178 176 179 184 177 173 172 169 154 151 141 134 128 127 130 133 140 144 150 155 157 160 162 153 150 143 119 77 28 15 23 19 22 27 19 24 28 17 22 20 36 29 24 19 18 19 20 20 25 20 18 59 20 17 18 30 25 31 22 28 25 21 20 18 19 23 43 64 79 92 101 104 109 104 104 105 102 95 96 92 87 82 92 103 113 122 136 146 156 166 168 177 181 180 183 185 185 183 180 181 179 175 170 168 167 167 168 169 167 168 167 164 165 166 163 154 145 129 91 28 10 22 21 19 24 20 23 22 20 18 21 29 33 21 24 19 18 17 19 17 28 23 34 78 25 19 21 29 25 29 21 24 29 19 27 26 20 33 71 62 78 92 104 103 105 111 104 105 106 101 98 99 89 90 82 92 100 107 118 130 144 154 164 171 178 181 184 184 189 189 188 186 191 190 190 185 186 189 183 181 181 181 173 175 170 162 159 149 129 108 30 11 21 21 18 18 21 17 23 19 17 19 26 31 23 24 19 19 19 19 21 20 41 27 57 81 26 22 19 27 27 25 21 29 20 25 38 36 24 55 70 63 75 97 102 105 108 109 113 104 104 105 102 104 95 94 89 88 87 98 103 115 126 141 157 165 173 177 178 188 190 191 190 191 192 193 194 190 186 187 184 183 181 179 174 174 171 160 147 132 115 48 10 23 20 21 16 18 18 19 19 20 19 25 27 24 24 21 19 19 17 24 34 35 38 30 71 81 21 25 22 25 28 22 24 28 23 40 50 41 38 65 71 67 75 99 105 108 110 111 107 112 104 107 104 104 101 101 93 92 90 87 95 100 115 122 142 157 161 171 174 182 189 187 193 191 192 192 192 189 188 185 187 185 182 178 170 166 163 151 135 123 74 14 24 20 16 18 17 17 19 22 18 26 22 26 22 24 20 17 20 21 32 36 40 42 29 55 79 81 