P2
92
112
255
135 133 136 136 136 132 137 134 132 137 131 139 133 133 134 129 127 113 126 125 118 108 54 45 40 31 32 34 31 27 33 35 26 25 30 31 27 29 27 35 29 33 34 28 31 26 25 25 29 28 25 26 31 30 36 33 26 26 18 23 26 29 45 82 58 83 110 125 128 128 127 129 129 132 128 131 133 132 132 133 132 130 133 129 129 132 133 131 132 129 131 129 135 139 132 136 135 134 136 135 131 139 130 136 134 133 133 129 120 126 106 128 88 51 38 33 37 30 33 29 30 27 31 35 26 28 27 31 27 27 28 33 26 29 28 27 32 25 26 25 25 33 22 25 31 26 34 35 26 27 25 25 20 26 26 32 31 36 40 57 98 121 131 126 125 132 129 131 132 133 129 133 133 130 131 134 130 133 131 133 129 131 133 129 137 134 137 136 135 138 136 138 132 136 132 134 134 136 132 136 122 116 97 69 43 31 33 34 33 30 30 27 30 25 32 34 23 27 28 26 27 31 26 33 20 30 25 30 26 31 24 29 21 29 25 26 30 31 28 31 29 28 27 29 29 21 32 23 25 29 34 28 26 42 88 133 123 122 132 127 133 129 132 129 132 129 135 129 130 132 132 128 131 131 131 130 137 134 137 135 132 137 136 133 136 135 128 135 137 137 132 121 111 98 40 44 32 28 31 45 37 28 30 26 28 27 26 33 31 24 31 25 31 25 30 31 24 26 30 29 22 31 34 24 27 23 26 29 28 32 29 25 30 27 31 31 27 19 24 34 18 27 26 32 30 28 23 44 94 120 128 131 130 127 129 133 128 130 133 130 132 127 130 128 128 130 128 128 137 133 137 136 134 131 131 131 132 133 132 135 138 122 97 71 49 47 37 31 36 34 26 55 39 28 27 27 29 29 27 33 29 27 29 27 31 24 32 27 25 28 29 30 30 25 32 37 34 24 21 34 29 31 26 25 28 26 30 32 30 24 19 35 35 18 25 28 33 28 30 24 28 42 97 135 131 127 126 128 128 127 127 125 130 128 132 132 127 135 129 128 136 135 135 136 136 132 133 132 126 135 130 124 94 54 31 31 41 34 36 31 34 39 25 52 41 29 26 31 29 28 32 34 28 25 29 30 30 26 28 33 26 31 30 24 50 23 30 32 32 34 24 23 35 34 25 30 25 29 29 30 32 29 22 23 46 32 23 37 28 34 27 29 25 34 20 66 134 126 125 124 133 128 133 127 125 128 133 130 128 132 130 131 133 134 136 136 136 135 136 127 125 137 120 73 37 27 33 36 35 35 33 28 35 39 28 53 40 28 29 31 28 28 30 34 27 29 28 29 30 32 29 31 28 32 31 28 37 33 28 31 31 34 27 28 26 34 30 27 28 31 27 31 27 29 28 22 32 44 24 48 39 29 31 28 26 31 38 29 51 116 125 127 128 128 128 130 131 124 132 130 130 132 127 132 134 136 136 136 134 135 135 126 141 120 74 32 27 29 32 37 31 37 32 35 27 38 35 47 37 30 29 31 30 26 31 35 29 31 28 34 27 30 34 30 30 42 34 27 34 46 31 31 24 35 36 28 26 31 34 30 31 37 28 29 31 22 30 26 26 43 38 42 64 26 42 33 28 26 37 38 33 53 97 135 133 131 128 129 128 125 129 130 131 132 128 131 137 137 134 137 134 132 135 129 113 58 26 32 24 33 35 33 29 26 40 32 32 32 38 37 37 28 30 33 28 26 34 40 34 29 32 33 31 26 30 34 27 42 39 31 27 66 38 35 32 26 42 29 31 24 42 39 33 37 35 29 31 25 29 34 29 29 36 49 55 50 34 51 24 26 39 35 36 45 46 56 128 130 127 129 123 123 125 132 127 130 129 130 135 135 135 133 133 134 132 110 56 28 28 28 34 36 36 34 31 35 33 36 33 31 31 36 35 33 31 32 27 29 36 46 40 30 32 35 30 30 30 38 32 35 44 34 28 64 56 29 39 28 38 39 31 25 33 62 36 30 39 29 36 28 24 35 29 35 32 47 63 53 35 46 40 21 36 41 40 37 61 37 41 115 134 128 118 126 131 127 132 130 128 131 135 133 129 136 136 135 113 56 30 30 25 31 34 36 35 35 28 38 38 33 30 31 32 35 37 35 36 34 25 30 39 55 43 30 34 38 33 31 29 47 31 42 54 40 31 49 76 41 44 33 34 46 36 29 28 62 56 30 37 34 41 31 29 29 38 34 41 34 61 45 41 42 56 27 23 42 43 38 49 58 28 31 122 131 121 125 124 127 129 129 127 128 134 135 130 134 137 106 53 33 25 34 30 32 34 30 38 38 31 45 30 38 34 33 36 37 34 36 34 40 29 35 44 59 53 39 36 45 38 33 33 46 47 43 68 50 42 44 75 51 53 45 27 45 38 34 37 41 68 40 36 31 47 49 27 34 40 43 45 45 46 54 39 43 75 34 28 27 51 32 42 55 37 35 29 115 129 125 125 123 123 128 126 125 136 133 135 136 110 53 32 34 34 33 34 33 38 30 39 38 35 41 41 40 36 38 39 37 43 41 38 47 29 45 48 56 60 45 43 55 38 34 34 50 59 38 69 61 59 50 62 61 53 67 31 43 43 44 48 26 76 52 42 35 41 64 33 34 38 51 48 64 36 57 35 40 72 57 29 27 45 36 43 47 39 37 41 35 125 131 129 123 126 129 126 127 134 132 140 124 53 24 41 28 36 31 35 33 35 32 45 41 32 35 44 43 38 43 47 37 48 40 48 50 32 44 53 53 63 47 37 58 49 36 38 55 63 43 55 70 59 65 64 68 49 69 47 40 57 50 57 49 45 69 45 45 38 68 44 34 38 45 54 59 49 48 33 48 48 67 43 28 41 40 34 49 38 40 45 36 58 142 128 125 124 128 126 128 133 136 132 80 21 30 42 31 30 36 37 37 34 32 39 46 34 36 42 40 32 48 45 38 50 43 52 56 37 50 54 55 59 55 42 59 58 37 42 52 68 49 43 62 54 61 65 80 45 72 66 44 59 59 60 56 47 51 59 52 39 65 59 38 46 42 48 52 62 35 39 36 48 50 71 34 31 42 35 46 47 39 45 39 25 115 134 126 124 126 125 127 134 136 113 46 21 31 39 34 29 39 42 39 33 32 40 48 45 43 43 44 33 51 45 46 50 49 49 54 46 53 51 54 54 56 47 53 65 46 43 58 61 57 52 55 52 62 51 86 50 64 69 66 49 58 62 53 53 44 60 60 38 58 65 47 61 47 55 49 68 42 42 31 53 52 70 56 24 43 33 44 56 46 46 33 29 77 129 122 121 127 123 126 131 132 69 31 31 32 42 37 33 37 52 38 37 47 48 49 46 48 49 48 40 53 44 46 54 53 53 48 52 52 55 56 53 51 52 59 56 61 51 52 65 57 51 51 48 64 51 73 63 58 64 72 60 53 58 55 51 55 68 51 41 50 68 52 58 62 61 51 66 54 44 45 47 60 61 59 38 45 38 41 58 49 40 37 30 38 111 121 123 127 128 127 135 104 52 29 37 39 44 41 34 43 54 45 42 49 48 53 46 49 49 44 42 53 39 53 56 48 53 49 61 50 56 54 54 56 54 53 59 59 56 51 60 64 55 40 44 68 55 60 63 62 71 66 67 53 59 52 39 63 63 55 41 52 70 60 50 63 59 56 57 72 58 56 50 51 60 65 44 53 51 37 58 53 45 39 33 29 72 122 125 128 123 128 128 76 40 38 34 40 48 48 43 46 55 53 51 51 50 52 48 52 52 47 56 52 47 55 54 46 58 43 54 54 60 57 51 59 53 47 56 54 52 50 54 62 58 43 38 64 60 49 70 63 77 62 65 58 51 54 37 61 66 61 44 54 66 66 56 52 58 61 46 67 65 52 60 49 53 70 54 48 40 50 55 60 53 64 55 53 27 105 118 131 127 119 92 42 51 42 39 44 49 49 50 53 58 63 52 60 49 55 54 49 52 43 57 55 55 56 50 49 48 41 47 65 61 52 50 57 61 42 54 54 56 50 43 54 60 49 42 61 58 44 72 60 70 60 65 65 45 53 52 47 62 63 45 49 60 67 63 65 41 70 50 51 64 51 66 56 47 80 61 36 49 51 56 56 59 60 42 46 17 69 117 128 127 129 61 29 57 49 50 43 51 49 53 57 63 49 49 59 47 51 52 55 62 47 61 54 53 54 49 47 41 44 47 65 63 49 48 54 68 40 59 53 56 55 44 46 59 55 41 59 56 47 68 69 63 49 63 61 51 66 54 44 49 60 51 37 46 67 61 66 35 64 54 45 62 59 64 56 53 78 60 38 59 52 53 67 53 51 31 45 25 30 108 123 130 123 42 23 60 48 53 46 54 52 51 56 61 48 51 58 49 48 51 56 63 49 61 51 44 52 43 55 45 48 59 50 55 49 52 50 69 52 60 62 49 62 50 46 54 65 44 63 53 40 64 85 56 48 52 65 44 62 64 44 31 55 55 40 40 47 64 67 35 55 62 48 51 50 56 64 55 56 57 43 49 63 58 59 41 42 31 46 38 11 84 119 126 122 30 27 52 48 49 54 56 55 40 44 58 53 57 53 47 46 55 56 58 51 55 47 51 45 41 52 44 52 62 43 40 42 51 50 58 53 57 57 50 54 60 48 55 55 53 51 56 33 55 83 56 43 49 52 50 45 55 37 35 42 51 34 41 34 48 56 39 44 66 54 62 45 53 60 61 47 45 44 62 64 47 55 43 41 31 39 42 13 48 110 113 121 32 33 45 44 52 50 53 55 39 42 57 47 55 55 46 48 57 57 54 51 57 53 49 42 45 49 42 49 53 43 33 34 45 51 45 51 52 51 44 51 58 54 53 53 51 40 53 29 44 69 54 44 46 46 49 44 44 39 38 35 45 37 38 37 39 46 46 32 72 54 58 49 52 64 51 52 41 51 61 53 41 54 59 42 36 39 40 26 30 101 98 115 35 33 47 36 51 52 50 51 46 34 52 53 54 56 49 56 55 58 55 52 65 61 54 42 50 48 43 48 48 46 40 38 46 52 44 46 49 47 39 56 59 58 46 55 47 34 49 45 41 58 54 44 45 44 45 41 42 37 42 39 44 46 39 43 44 45 49 31 62 48 45 57 58 72 43 50 57 51 54 49 55 57 57 47 40 45 39 41 25 83 105 109 35 31 52 48 42 52 52 47 53 40 45 66 60 55 51 57 62 55 59 55 69 66 53 53 56 47 48 49 54 51 49 49 54 56 51 47 51 52 47 59 63 61 55 52 48 41 42 44 49 55 66 50 56 48 51 46 45 40 49 51 53 50 56 47 48 43 56 45 50 40 43 56 66 67 56 60 62 66 71 56 56 53 49 47 44 36 33 38 25 69 102 99 35 37 53 55 41 45 57 49 48 44 56 63 66 60 57 60 69 58 63 60 76 71 60 63 59 62 56 62 63 59 62 71 73 73 66 62 64 73 77 64 66 64 60 64 57 51 50 47 55 69 70 66 71 76 66 66 62 61 71 71 74 66 82 61 67 56 75 63 52 49 47 59 65 74 68 60 56 54 66 68 66 64 64 46 48 36 38 39 26 52 100 89 37 36 49 52 52 52 52 50 52 48 62 68 71 65 76 69 71 59 66 68 73 76 75 73 85 80 72 78 87 77 97 112 110 100 107 93 109 101 110 98 91 81 81 83 76 77 74 76 64 88 97 98 100 109 103 99 88 99 95 107 102 102 112 98 101 85 104 92 65 69 51 60 67 80 67 63 58 53 56 62 61 61 60 61 47 40 43 40 30 25 99 101 43 39 43 49 61 48 49 40 60 60 66 78 72 65 78 78 73 72 67 71 77 84 86 89 104 102 109 104 113 107 116 144 144 123 137 142 135 129 137 143 133 102 104 106 95 109 94 105 86 101 122 129 131 142 135 142 121 135 127 143 147 129 145 128 135 118 123 111 90 76 60 66 69 80 65 62 67 61 62 65 63 57 54 53 48 43 42 35 29 14 84 116 37 41 60 55 46 53 55 55 61 66 71 79 84 76 74 83 73 83 73 75 76 73 78 90 114 123 137 141 151 143 141 157 175 149 157 176 160 159 160 179 172 123 127 137 124 128 129 122 115 128 139 155 151 168 160 161 162 154 160 162 159 171 172 159 165 156 145 119 105 76 77 83 85 87 73 71 73 72 59 65 63 55 50 54 48 43 35 37 30 12 76 112 40 54 57 57 54 59 54 63 66 80 77 75 77 82 86 84 85 86 95 81 87 81 91 97 115 124 133 161 172 180 166 151 168 168 166 178 171 167 178 180 168 158 150 167 158 154 169 166 168 159 161 161 165 170 184 174 167 183 174 169 167 152 182 163 150 147 134 119 94 86 93 92 92 85 72 75 79 76 68 62 61 54 48 58 44 43 38 30 33 17 51 114 58 49 57 58 61 60 58 63 70 78 74 72 79 89 93 97 97 94 96 92 93 93 105 105 117 117 129 153 168 172 176 156 152 168 155 160 170 157 188 173 163 176 177 175 173 170 181 179 188 180 171 180 174 183 189 188 178 191 183 184 178 157 176 182 157 136 124 118 104 100 98 95 85 75 83 71 75 70 74 62 68 57 43 54 45 40 31 33 35 17 42 102 51 53 65 50 61 66 64 63 77 80 70 77 88 95 97 97 102 97 116 115 113 110 113 117 122 124 138 163 171 175 179 163 148 180 162 168 165 155 181 174 173 174 170 170 173 164 181 182 178 179 173 190 184 185 193 198 189 188 191 189 184 166 182 187 175 149 134 121 114 100 101 95 86 79 70 73 69 82 76 73 66 74 67 43 58 34 28 28 31 25 23 93 51 54 52 49 67 68 63 69 81 77 78 86 92 98 100 93 105 113 122 121 118 116 122 124 125 132 144 164 182 182 176 177 159 171 167 164 165 162 183 181 169 172 171 169 159 160 180 185 177 189 180 197 193 188 193 199 194 192 194 197 187 177 187 196 186 153 144 132 115 103 98 86 89 88 73 75 69 75 83 78 67 65 71 62 52 44 26 27 31 30 13 78 49 52 45 47 59 70 66 76 78 73 84 87 91 100 91 95 115 120 123 121 108 120 127 137 133 144 162 170 175 171 175 168 169 162 168 162 166 176 183 188 180 182 187 188 174 172 188 190 187 194 189 199 198 196 195 199 199 198 198 197 191 186 193 198 192 183 154 143 129 113 100 95 87 85 82 75 74 78 88 85 69 65 65 61 73 45 34 20 31 28 20 53 48 54 38 41 57 63 68 72 75 77 75 90 91 92 90 105 117 110 126 114 112 131 140 143 139 154 175 174 175 183 190 182 189 185 180 168 184 195 196 196 186 189 193 188 187 177 195 188 195 201 196 198 204 200 198 200 202 199 201 201 197 192 197 195 195 187 176 159 139 121 112 101 94 90 76 76 76 73 81 83 68 70 71 47 68 59 41 28 23 38 25 33 49 59 34 40 52 61 59 70 72 69 73 87 90 79 101 111 115 118 121 122 123 137 139 154 152 174 187 187 185 188 194 195 196 196 189 169 188 200 200 200 187 187 200 189 188 183 197 193 202 202 198 201 203 205 195 200 203 200 202 201 200 197 197 196 197 190 187 173 154 144 128 116 109 98 82 71 74 68 70 75 65 68 72 53 45 57 47 37 23 33 31 20 41 58 43 46 57 53 54 62 70 61 75 88 85 87 107 109 122 123 126 133 129 148 154 159 165 182 190 193 190 194 199 199 193 198 197 186 183 196 201 199 195 187 198 195 191 191 191 198 205 202 202 202 204 206 199 199 205 202 202 202 203 196 200 195 198 193 188 183 169 154 143 129 122 106 94 73 68 65 67 61 60 61 65 70 40 41 37 34 39 28 37 15 41 43 49 49 51 46 43 63 65 61 72 82 79 87 108 112 129 132 136 142 138 154 165 160 175 186 190 195 189 195 196 201 200 195 196 194 197 195 199 200 201 194 198 199 195 195 190 198 202 206 203 202 203 204 203 203 203 203 202 202 203 198 201 198 197 194 190 185 183 163 153 148 130 123 96 89 66 64 60 56 49 57 56 61 48 31 38 28 45 39 35 15 45 42 51 47 44 41 37 67 62 59 66 79 72 90 114 123 132 145 148 142 147 157 171 163 180 186 192 192 192 193 194 200 200 197 194 193 202 200 199 200 202 198 199 200 196 195 194 199 202 203 203 202 204 204 202 203 203 202 202 201 203 197 199 196 197 193 187 184 184 169 159 151 145 132 113 89 79 60 58 51 51 44 53 47 44 31 31 27 41 37 39 13 43 52 38 44 42 32 43 53 61 54 62 73 68 93 126 133 141 150 150 153 157 159 165 163 180 186 187 190 193 190 196 196 200 197 199 192 202 202 203 200 202 203 199 203 197 198 198 196 202 201 204 201 203 204 205 200 206 205 199 199 202 198 196 197 197 192 189 187 184 180 161 161 154 149 130 107 93 74 52 51 42 45 37 40 40 30 28 27 34 30 38 27 45 44 35 42 36 35 37 52 57 51 58 72 67 97 128 139 145 153 155 160 164 169 158 168 174 182 182 189 192 192 194 196 200 200 195 199 201 201 201 201 202 202 201 202 200 197 201 196 199 200 201 202 205 204 201 202 204 202 199 200 201 197 196 197 195 190 189 185 182 179 165 159 155 149 141 123 106 89 54 51 41 36 36 36 35 27 29 24 32 33 28 35 48 39 35 39 35 38 34 50 48 47 53 68 76 108 130 143 149 156 156 163 169 170 167 166 173 176 179 188 192 191 193 197 199 198 197 199 202 201 202 200 200 201 200 201 202 196 200 198 198 202 201 201 204 203 200 201 201 201 198 202 199 197 195 194 193 187 188 186 179 177 168 160 157 160 148 129 117 102 67 51 39 33 34 32 32 28 29 27 26 33 34 35 49 43 32 34 32 36 35 39 45 37 51 67 76 116 129 142 148 157 159 169 165 174 174 173 173 174 179 186 191 190 195 195 198 196 198 200 198 199 202 200 198 201 200 199 202 197 199 200 198 200 203 201 202 202 199 198 200 200 198 200 198 198 195 195 190 186 186 183 181 176 172 161 158 162 148 132 117 106 79 54 40 25 32 31 31 26 24 26 32 27 27 43 45 44 31 32 26 35 36 38 41 32 52 62 83 114 125 144 149 157 159 172 166 177 175 181 180 180 181 185 191 189 196 195 195 195 197 199 200 199 198 199 196 199 200 198 200 199 197 200 197 198 201 203 202 199 197 198 197 198 198 197 198 197 192 193 189 187 183 182 176 173 171 165 158 157 153 134 118 110 89 56 40 32 27 30 29 27 24 26 34 25 26 34 40 41 38 29 31 33 32 39 37 33 44 63 77 114 125 138 149 158 163 166 171 173 173 182 183 186 183 187 190 189 194 194 195 194 196 196 197 198 197 199 198 199 200 197 199 196 200 195 192 199 200 202 200 197 190 194 197 198 197 195 193 195 189 190 189 185 186 180 176 172 170 166 159 154 154 143 121 110 91 62 34 30 28 22 31 27 24 27 26 34 18 44 33 36 35 31 32 32 29 38 38 34 40 57 71 112 123 139 146 158 161 169 173 177 173 182 185 189 186 186 189 192 193 192 197 193 195 195 196 196 198 196 197 199 198 196 199 196 195 198 193 196 198 200 198 195 191 194 195 196 192 191 192 191 189 187 185 184 183 180 176 168 168 164 157 151 152 146 121 113 90 59 36 29 25 26 24 30 26 25 26 34 28 30 31 30 35 36 28 32 28 31 40 36 39 52 69 106 125 133 143 158 165 171 174 179 176 181 186 187 188 188 191 189 191 194 196 193 196 195 194 196 196 199 197 197 198 197 197 199 194 198 194 195 198 198 196 196 194 192 194 193 188 192 192 191 185 182 183 183 179 178 172 169 168 162 160 155 148 144 129 107 86 57 34 25 28 24 23 28 27 27 25 34 35 39 32 22 36 28 32 30 27 26 36 35 40 46 71 108 121 134 148 155 166 173 174 177 179 183 185 190 189 189 191 193 193 196 197 195 197 196 194 196 197 197 198 198 199 196 200 196 194 198 197 196 197 199 196 198 194 192 194 195 192 192 192 193 188 188 185 186 185 179 173 173 167 164 162 159 151 138 133 112 86 55 32 24 25 20 24 27 21 27 26 30 39 62 34 27 29 30 29 27 27 31 29 35 36 49 69 101 121 130 150 153 166 174 173 179 181 185 187 190 190 193 193 194 196 197 198 196 196 199 198 199 197 199 199 200 199 199 201 201 196 200 198 196 201 197 196 196 194 195 192 195 194 196 193 193 191 194 190 191 182 181 174 171 168 164 163 162 147 137 127 118 85 53 27 27 24 22 21 24 25 22 27 26 35 70 45 29 25 26 30 28 28 32 29 32 33 53 77 96 125 135 150 153 167 173 174 180 185 190 188 192 192 192 197 196 197 200 200 199 199 199 199 199 199 201 201 201 199 199 201 202 200 200 198 199 200 199 199 197 199 196 194 197 196 197 196 194 192 193 193 190 188 183 178 173 169 171 162 158 147 138 127 109 86 49 27 25 24 21 24 25 23 23 29 28 34 70 49 28 26 26 26 29 32 31 32 30 37 61 86 105 114 132 144 151 164 169 175 177 180 186 190 190 191 191 195 196 199 199 201 201 200 200 201 202 200 200 202 201 201 202 202 200 198 200 201 200 201 199 198 198 199 197 197 198 198 198 197 197 196 193 194 190 187 185 182 176 173 170 165 158 148 133 127 109 85 43 26 30 23 23 23 21 23 22 25 32 29 73 46 31 22 25 27 29 34 31 32 34 43 67 91 115 125 120 143 156 166 176 171 176 176 181 185 185 190 188 193 195 197 202 201 201 201 200 201 202 200 201 201 200 202 201 203 201 201 200 202 200 201 201 199 200 199 199 199 200 196 200 200 199 200 194 194 191 186 185 181 179 175 167 163 158 145 132 123 107 78 45 23 33 25 22 23 19 22 26 22 32 27 55 51 37 25 23 24 32 37 31 30 38 41 78 103 122 130 130 135 150 162 167 160 166 169 173 173 179 184 182 188 191 193 196 199 200 201 199 201 201 200 200 200 200 200 202 203 201 202 201 201 200 199 201 201 200 197 200 200 202 196 200 201 198 198 193 193 191 190 180 176 175 173 169 161 157 144 133 119 108 78 43 32 25 28 24 21 18 22 26 27 35 21 57 45 35 26 26 27 35 35 34 37 36 64 100 118 125 131 135 152 160 141 126 117 124 142 149 151 164 175 174 181 183 186 192 195 195 198 198 199 199 199 199 199 201 199 201 201 201 201 201 200 200 200 198 201 201 198 200 200 200 199 198 197 193 190 190 186 183 180 174 167 159 161 156 157 155 144 133 119 108 80 46 32 26 24 25 23 17 20 24 30 33 23 54 52 27 30 22 29 37 35 35 31 44 84 120 131 129 134 140 149 141 109 83 76 96 102 102 111 119 135 139 157 172 176 178 182 186 191 193 193 193 194 194 198 199 198 201 200 199 200 201 199 198 198 195 198 198 196 197 198 197 194 193 190 185 174 177 181 168 162 163 149 144 143 133 133 149 144 133 120 111 87 53 31 32 24 26 22 22 19 27 27 37 18 45 53 36 24 26 33 32 36 32 29 63 105 130 139 142 134 125 105 73 63 59 63 74 64 64 66 75 85 85 91 102 106 120 137 153 163 173 174 179 182 189 191 193 195 195 196 199 197 199 196 193 192 190 192 191 190 185 188 185 174 170 159 144 133 116 125 119 114 109 103 94 98 92 86 102 138 132 121 118 107 65 39 24 24 25 23 24 19 20 30 31 23 28 53 37 28 30 31 37 28 29 35 77 109 144 144 146 119 86 63 65 76 72 69 63 57 56 61 59 62 57 58 65 68 71 80 93 108 123 141 156 170 179 186 191 193 192 196 197 197 197 196 190 188 184 179 179 177 163 151 145 126 102 98 94 85 74 72 72 72 66 71 63 59 64 59 55 106 127 121 117 115 83 35 23 29 25 23 21 20 26 26 29 23 30 53 42 26 33 37 35 30 25 38 92 117 145 151 133 84 61 82 107 123 118 107 94 84 79 78 76 73 58 57 60 55 56 56 59 74 92 102 116 152 166 181 188 189 189 198 196 194 197 191 188 184 183 175 165 151 122 100 94 78 66 63 67 61 64 59 59 52 49 55 58 57 67 64 43 36 88 116 119 119 99 41 14 25 26 21 21 20 24 29 28 17 27 52 45 29 34 38 38 31 23 47 103 132 144 151 104 76 87 114 146 159 156 148 143 141 138 126 116 112 103 92 77 67 64 70 73 83 84 94 96 118 151 170 184 188 188 193 198 195 196 189 186 180 178 178 154 112 95 81 72 64 56 56 58 60 62 64 68 63 74 83 98 102 107 108 86 47 26 79 125 121 112 56 14 18 22 26 22 19 24 29 24 14 36 51 40 36 38 35 37 33 19 52 112 138 151 129 95 94 111 132 139 146 148 137 126 125 113 106 100 96 98 101 90 87 84 92 92 101 100 98 104 112 137 167 178 185 186 193 195 193 192 188 180 176 168 167 129 103 98 86 83 71 71 68 72 80 94 105 113 123 130 143 144 143 144 140 134 106 50 39 116 128 115 64 13 19 22 27 22 22 27 26 21 13 37 33 42 32 35 36 36 32 20 58 123 142 147 122 99 108 117 121 121 126 121 100 86 86 76 73 70 71 71 86 77 72 81 88 94 110 113 110 112 112 132 155 171 184 190 191 198 192 192 185 177 171 164 139 112 104 105 105 105 104 95 100 102 102 110 115 125 128 135 141 142 145 141 139 138 142 104 42 84 130 123 73 10 20 22 25 22 25 25 23 20 16 23 35 34 35 34 38 36 37 28 71 132 145 149 131 113 114 114 111 112 107 88 74 70 63 68 72 59 41 36 57 62 47 70 88 95 91 109 120 117 108 114 146 169 187 190 194 198 195 193 193 178 170 147 125 105 107 114 110 102 92 77 76 76 80 82 90 96 91 100 100 103 118 128 123 124 131 122 71 81 128 124 77 14 22 21 25 25 23 25 23 21 15 23 28 34 31 40 47 40 41 33 81 138 149 151 135 124 119 115 107 105 92 88 68 55 55 82 102 63 43 42 82 129 29 46 100 97 117 99 110 127 116 104 125 168 188 196 198 198 200 199 195 179 168 134 107 105 114 104 99 98 93 69 54 61 58 54 57 68 63 90 97 84 77 105 115 115 120 121 97 92 126 126 86 12 20 21 21 22 23 28 20 23 20 20 31 29 32 44 48 43 50 29 84 141 151 157 150 142 138 129 113 110 108 84 59 58 86 137 157 84 52 42 34 115 54 40 154 157 99 130 108 119 131 117 108 153 195 198 201 203 202 202 199 184 151 117 115 124 104 106 116 115 88 40 32 57 109 36 30 50 59 50 55 79 84 70 100 113 112 115 111 112 125 127 99 18 20 21 21 23 18 24 16 18 21 14 26 30 33 47 52 49 48 29 90 141 153 160 169 168 161 156 134 122 119 82 58 80 103 151 191 111 61 57 57 52 51 68 175 198 140 99 128 130 140 130 112 143 192 201 204 206 202 202 200 179 140 123 132 128 123 121 108 145 123 42 51 51 132 43 18 68 117 82 51 41 76 98 97 111 110 115 118 118 128 132 97 28 22 22 22 23 20 18 15 20 17 5 28 31 33 46 57 49 43 34 92 142 155 166 178 182 181 178 166 148 138 119 63 83 121 144 191 155 80 62 66 52 55 137 196 198 164 148 120 150 159 142 125 144 184 204 206 206 204 205 199 168 132 135 152 159 122 117 136 183 159 54 57 52 49 57 32 95 150 134 85 51 43 101 112 108 115 129 129 127 133 131 106 30 21 26 24 24 22 15 12 20 19 7 31 33 26 59 58 47 51 31 90 143 150 172 178 184 187 190 182 166 158 137 106 85 95 115 155 178 141 92 87 89 122 172 176 166 139 145 156 168 170 154 144 153 186 202 207 208 206 206 199 159 135 148 171 172 140 150 138 166 184 92 49 65 60 47 61 142 160 138 107 72 55 81 116 112 136 143 145 139 136 135 99 42 22 32 25 27 22 17 15 19 22 6 30 29 28 66 60 48 51 35 88 140 153 169 181 184 187 190 188 173 166 155 128 120 112 104 112 139 148 149 146 153 153 160 163 159 155 157 175 182 173 156 160 167 183 203 208 207 205 208 196 160 141 158 172 180 167 150 137 143 156 134 89 96 93 75 116 158 148 121 100 68 85 113 124 131 149 159 156 150 142 134 114 29 27 39 29 22 25 17 16 17 21 7 28 34 29 50 67 53 60 38 78 137 153 168 182 185 185 191 191 186 167 166 152 135 138 135 133 127 120 124 124 135 142 150 153 150 152 157 169 186 181 164 170 171 188 202 208 207 209 205 193 161 146 153 173 170 156 164 157 149 151 137 138 143 141 129 114 118 108 95 89 96 113 137 151 155 164 165 165 154 149 135 109 38 33 43 25 26 24 19 18 20 19 11 33 37 28 45 77 64 67 38 70 130 150 170 182 184 186 191 190 186 178 172 159 156 140 143 141 139 140 140 137 143 149 143 151 156 163 174 185 193 188 170 174 177 189 203 207 207 206 206 195 162 149 156 172 179 152 149 159 160 157 148 133 130 126 128 112 123 131 123 116 116 134 147 164 167 172 174 169 159 153 137 100 40 49 44 23 22 27 14 22 17 25 11 38 34 36 38 68 76 90 47 58 122 148 164 181 183 184 190 193 188 179 183 176 170 159 155 149 143 145 140 142 146 150 153 161 170 181 191 195 199 187 174 179 179 188 205 208 206 204 205 190 163 152 160 172 186 179 155 146 161 163 166 156 146 144 142 136 136 140 138 125 132 148 159 167 173 172 175 168 165 147 138 86 35 63 56 20 24 24 17 21 14 26 11 33 37 42 24 41 78 112 65 43 116 137 160 173 181 186 189 192 193 187 192 186 183 177 171 168 164 165 161 163 165 164 167 178 187 195 200 200 194 185 176 179 182 187 201 208 207 206 206 192 162 156 161 169 186 194 183 160 153 152 161 158 162 147 144 139 141 143 141 139 144 164 168 174 173 172 172 166 160 150 133 72 33 83 60 21 21 24 21 18 19 22 19 29 39 42 27 33 76 115 91 45 104 135 150 169 177 184 188 192 191 191 195 197 196 192 187 183 180 178 179 181 183 183 187 192 197 200 199 198 191 184 179 183 179 184 201 209 206 206 208 188 163 158 159 167 180 194 193 185 170 161 160 155 156 148 152 150 152 153 157 153 157 169 171 172 172 172 170 163 159 148 121 60 50 87 55 24 26 21 26 17 19 20 25 29 44 40 26 26 72 105 108 57 89 128 151 165 173 178 183 192 190 193 198 200 201 199 196 196 193 192 190 191 195 192 198 199 200 200 200 195 190 185 181 184 179 186 200 207 207 207 208 182 163 162 156 166 177 191 196 196 193 183 173 164 158 150 155 158 158 163 166 166 170 173 177 173 174 169 169 159 149 147 104 65 75 70 43 41 30 20 28 17 19 21 27 34 39 27 28 12 76 92 114 76 79 119 144 162 176 176 181 188 189 191 198 200 201 200 201 200 201 201 199 199 202 199 200 200 197 201 200 193 189 189 181 181 181 184 202 206 207 207 206 182 159 162 157 166 173 191 194 198 198 199 195 191 190 181 183 182 182 182 185 189 187 186 183 174 174 170 163 157 146 137 88 88 78 56 33 61 37 21 29 19 23 14 28 40 31 26 29 14 56 96 111 90 67 110 134 156 167 178 183 185 186 192 198 200 201 202 202 202 202 204 202 202 201 200 202 199 197 197 198 192 190 188 186 179 179 185 201 208 205 208 203 180 159 163 161 165 172 183 193 199 199 202 200 198 197 196 196 197 189 193 192 191 192 190 185 177 172 167 164 152 149 119 88 105 86 43 32 66 43 28 27 25 17 21 23 38 25 23 26 17 19 86 118 106 72 100 129 149 158 174 178 184 187 192 194 201 201 201 201 202 204 203 202 202 202 202 201 200 198 199 196 187 190 186 184 180 179 186 198 206 209 207 199 179 157 164 165 163 170 183 193 197 200 198 199 202 198 201 200 202 197 197 194 192 190 191 181 176 170 163 161 153 139 103 99 109 87 22 36 57 49 49 17 26 19 24 22 31 22 21 24 29 8 56 120 126 85 91 120 144 154 166 178 184 189 192 195 199 199 202 202 202 201 205 200 201 201 201 199 201 197 198 191 187 185 183 178 179 182 188 195 205 208 205 198 177 160 161 162 165 169 178 189 193 195 198 197 200 197 200 202 200 197 197 195 195 189 190 185 177 174 164 158 145 127 97 103 120 67 8 28 53 53 51 29 21 24 21 25 25 23 21 18 33 8 12 93 130 95 86 112 135 148 164 178 183 186 194 193 198 201 200 201 203 201 203 200 202 199 201 198 197 196 194 187 180 179 177 175 175 187 190 196 204 206 207 194 179 163 163 156 161 168 171 187 191 195 198 198 199 197 200 200 200 198 198 194 192 193 189 184 178 173 162 152 142 113 95 117 123 44 10 23 56 52 54 38 21 21 21 21 25 20 21 20 24 19 11 20 97 97 91 108 126 142 155 174 181 183 189 193 199 195 199 200 202 199 201 199 200 202 199 198 193 192 190 178 157 172 170 166 179 192 194 200 204 208 204 197 186 169 154 153 148 155 169 182 189 195 195 196 200 199 198 200 200 196 199 193 193 195 189 184 177 169 156 149 136 105 108 127 111 21 20 16 45 54 50 45 30 24 19 26 16 22 18 19 23 20 16 17 24 69 94 105 123 134 149 164 179 181 190 191 197 196 195 199 199 199 198 198 200 197 196 196 191 186 180 164 147 171 176 163 180 193 198 203 202 206 204 197 191 175 151 149 143 141 163 179 188 191 194 199 198 200 198 199 196 197 197 193 194 191 186 181 172 167 151 144 122 97 116 113 63 11 19 29 32 49 40 47 30 27 24 19 17 20 17 21 22 23 15 24 15 15 86 110 117 131 145 160 171 177 187 189 193 196 194 196 197 198 195 196 196 193 192 188 188 180 173 148 158 182 190 163 177 196 200 203 202 208 204 197 195 180 151 161 146 134 157 177 187 189 193 196 198 198 198 196 194 193 194 192 189 186 182 175 170 162 144 134 114 94 102 58 27 29 20 29 32 37 38 34 34 24 27 17 20 17 17 21 19 23 19 20 22 7 85 110 112 123 133 154 166 173 177 188 186 194 193 195 193 196 196 192 191 191 189 181 183 179 172 145 175 190 190 173 178 195 201 202 205 204 202 201 191 185 155 170 168 133 154 173 185 188 191 194 196 197 195 193 190 192 190 189 185 182 177 168 162 152 143 125 111 79 29 21 30 30 24 26 31 31 33 36 32 22 33 22 18 20 14 19 22 21 23 23 25 1 73 117 111 119 132 145 158 168 172 182 183 187 191 191 192 190 190 189 185 187 181 178 176 178 172 148 171 184 188 181 178 194 199 201 204 205 203 199 192 183 165 168 176 144 151 170 180 182 188 191 194 192 191 192 191 188 184 187 182 178 173 165 153 147 135 118 115 50 6 24 31 28 27 23 28 36 32 32 35 24 30 29 21 19 16 19 24 18 25 23 27 2 63 121 109 121 123 139 149 162 170 177 178 184 187 184 186 185 182 182 184 180 174 170 169 176 181 154 146 158 177 181 185 191 198 201 202 204 200 200 194 180 175 162 166 151 157 167 176 182 181 186 191 189 188 189 190 183 182 181 177 173 167 160 150 139 128 114 106 27 10 17 36 24 26 20 26 42 23 31 33 34 24 29 19 16 17 16 16 26 25 25 22 11 47 120 114 118 117 131 144 153 157 167 169 177 177 177 180 181 176 169 172 168 163 166 168 177 177 166 137 112 124 160 175 189 192 197 198 200 196 195 187 179 161 144 131 147 167 171 170 175 178 181 188 181 183 183 186 181 177 178 171 167 165 152 147 133 119 110 99 14 19 23 31 27 25 18 28 38 29 23 35 35 28 22 21 18 17 15 18 27 30 19 20 19 27 119 117 116 119 122 139 145 153 162 164 169 168 169 171 171 169 162 162 160 157 165 171 181 178 163 167 125 85 110 144 174 184 188 194 191 190 182 169 150 123 102 106 164 178 171 169 169 171 177 176 179 179 179 183 175 172 173 164 163 156 147 137 131 111 112 86 11 21 22 27 27 25 25 25 35 35 27 33 32 32 25 19 19 17 14 28 24 27 19 18 26 10 109 121 118 118 120 131 138 147 155 162 160 166 162 165 161 162 157 153 155 159 174 185 184 179 171 162 147 115 97 105 124 153 165 168 169 163 151 125 96 86 97 138 172 178 171 164 167 168 170 169 169 172 176 174 172 169 168 162 159 147 140 132 121 108 109 67 12 22 23 25 26 26 23 22 38 34 25 32 34 34 25 21 18 15 20 30 23 28 17 21 32 12 91 123 119 115 116 120 129 138 144 151 150 155 155 153 152 152 151 152 162 171 182 185 186 182 175 169 154 132 112 106 106 109 123 122 127 121 109 88 85 109 131 152 170 176 171 167 166 167 167 167 167 171 172 172 166 167 165 156 149 142 133 123 113 108 111 49 10 21 26 25 22 30 22 25 40 35 28 25 36 34 33 21 21 20 29 24 24 16 18 26 41 12 56 124 122 117 116 118 120 129 137 144 145 147 145 145 146 151 147 159 170 179 183 185 186 187 182 169 161 143 125 117 113 102 91 89 91 90 88 89 112 142 158 165 174 171 171 168 169 163 163 165 162 165 168 164 163 163 156 147 141 134 124 121 111 109 112 27 17 18 26 24 25 26 27 21 37 37 28 25 34 37 34 19 28 34 29 24 19 17 21 38 33 9 35 115 121 122 119 114 115 123 130 141 144 145 144 142 145 144 157 170 173 171 178 181 189 185 186 177 169 155 136 128 120 109 96 89 98 94 104 119 143 158 164 170 171 172 168 174 168 163 158 158 153 150 157 157 158 154 152 138 131 124 123 119 108 115 92 10 20 24 19 24 25 28 27 27 34 37 29 29 30 42 35 26 39 32 27 21 19 21 26 40 28 14 13 96 121 124 120 119 112 119 131 136 142 143 142 145 141 145 161 163 166 164 173 182 188 186 185 184 174 167 153 139 125 111 103 106 105 113 126 144 154 164 167 172 170 171 169 169 171 156 152 149 147 144 151 151 151 151 145 132 121 121 121 114 111 113 60 7 24 24 24 22 27 26 29 27 34 38 28 33 27 44 37 40 36 32 24 15 18 28 33 35 17 21 6 57 123 122 123 121 116 115 124 139 139 141 145 141 140 145 137 146 146 155 164 181 185 186 185 183 177 177 165 152 136 122 117 124 121 133 146 155 166 167 171 170 168 172 168 165 166 158 146 141 150 146 148 144 147 145 142 127 119 118 118 114 106 105 34 10 23 28 23 30 21 28 29 28 33 40 25 35 33 39 40 43 31 29 21 17 25 33 37 31 13 22 19 17 112 118 121 123 119 115 123 135 143 149 155 144 141 131 116 126 129 147 163 178 180 182 184 185 183 185 178 170 156 143 138 143 143 153 162 163 172 170 170 169 166 166 163 154 150 149 139 125 137 147 150 149 149 147 137 126 118 122 122 112 113 75 18 18 23 28 26 28 30 30 30 25 34 36 24 35 31 41 37 47 25 21 19 23 28 32 39 21 18 25 20 7 75 117 121 122 124 115 119 133 149 152 155 156 134 113 107 97 92 108 139 158 167 175 183 184 185 186 188 182 173 165 162 164 168 170 178 174 170 174 172 172 165 164 155 144 133 130 132 107 123 144 149 149 147 142 138 120 121 122 121 113 106 46 17 22 25 28 25 29 29 32 31 27 36 33 22 24 34 42 34 32 17 21 20 27 36 39 32 18 30 26 23 12 28 105 117 122 124 121 116 120 140 151 154 163 143 117 134 129 130 107 80 97 112 125 143 155 163 167 170 172 179 183 182 185 187 177 178 175 171 176 173 169 169 160 150 133 112 111 113 110 113 151 155 155 147 140 128 120 124 121 116 112 81 20 22 22 27 29 34 30 31 38 32 28 33 33 23 20 33 45 39 22 18 24 24 36 38 40 28 26 32 23 21 16 3 79 111 119 125 117 117 118 124 144 144 155 144 135 157 163 163 166 146 104 95 90 93 97 106 105 111 124 149 161 173 172 169 154 143 141 136 145 144 137 132 116 106 106 97 101 112 115 124 154 161 157 144 134 121 117 126 123 117 98 48 13 27 22 29 32 35 30 37 42 29 31 37 30 23 18 34 43 37 19 20 25 33 36 41 37 25 40 35 20 18 21 8 42 106 109 118 117 116 117 115 125 138 147 146 151 166 170 177 176 183 176 143 120 112 97 91 75 80 93 103 115 132 131 122 117 104 95 88 91 96 93 93 88 108 140 145 139 140 132 133 158 158 153 139 127 116 118 120 118 110 69 21 22 23 26 28 35 36 34 38 41 32 34 31 31 20 25 29 37 34 13 24 26 36 39 42 36 31 41 36 18 20 18 13 35 98 101 107 117 115 122 113 119 128 141 151 155 164 172 175 171 176 177 181 157 149 155 150 130 107 92 94 90 96 99 98 96 91 81 88 99 94 97 112 139 158 159 162 171 161 147 141 150 148 144 127 115 112 118 115 112 82 39 30 22 30 28 32 34 42 35 42 38 38 32 33 26 22 21 28 33 29 20 19 32 36 44 34 37 36 30 33 18 20 21 11 36 99 95 98 112 113 115 120 121 129 140 147 159 161 168 170 167 169 175 170 176 157 152 156 170 168 157 136 119 103 105 112 124 126 135 132 132 122 131 143 157 155 161 167 174 157 144 140 140 138 132 112 109 111 112 116 90 46 30 30 29 29 31 35 35 46 31 45 42 35 32 35 21 21 19 26 30 28 21 21 34 37 35 32 35 32 24 25 17 20 19 8 35 103 98 90 105 112 110 123 125 130 138 149 154 161 165 167 164 151 167 167 168 171 158 142 154 163 176 176 171 157 164 158 161 153 142 130 127 130 140 150 149 149 163 164 164 150 145 141 136 127 119 109 111 109 108 100 48 15 30 39 32 33 38 39 37 42 39 43 44 29 32 27 24 18 22 20 23 24 17 28 34 34 32 28 34 26 20 18 16 22 19 8 37 100 105 97 91 102 109 113 126 130 141 150 154 156 160 159 159 157 148 157 161 162 158 158 147 144 144 150 148 145 146 142 137 135 129 129 138 143 146 146 144 149 166 159 157 149 146 140 134 121 110 110 106 107 95 43 14 12 34 38 35 31 46 41 43 41 37 43 35 29 36 24 21 19 19 28 18 22 20 26 38 30 25 29 26 24 19 15 14 22 15 5 34 101 105 104 94 88 103 107 120 132 139 154 158 153 158 161 161 162 154 138 147 156 153 152 144 135 132 137 137 136 134 131 132 133 136 140 141 146 139 136 146 161 163 156 156 150 147 141 131 115 110 104 105 96 48 16 14 18 34 41 37 34 49 40 42 41 38 33 32 33 37 22 19 20 18 21 21 18 22 29 34 25 22 28 24 18 18 18 17 18 17 8 47 99 108 106 105 95 89 103 113 123 135 148 160 162 162 164 168 169 162 151 135 135 142 148 146 138 130 129 130 130 127 128 133 138 139 138 139 138 130 139 157 158 162 159 156 149 144 133 122 109 104 105 92 37 14 12 23 28 42 42 38 39 49 36 39 35 30 26 33 32 35 17 19 21 22 22 19 19 26 35 30 29 26 22 26 16 18 19 17 18 20 6 50 100 108 109 107 107 88 92 104 117 129 139 155 162 166 166 168 172 174 161 147 138 128 128 132 132 130 130 128 126 129 128 128 130 127 125 126 130 143 152 162 160 159 156 154 144 136 122 112 103 98 90 49 13 15 18 33 28 36 33 37 37 42 30 39 24 26 26 35 30 26 19 19 18 22 22 20 20 20 35 26 25 29 20 18 19 17 15 20 17 18 1 59 102 105 113 108 109 104 87 94 103 120 135 146 156 169 170 170 172 179 170 164 159 150 138 130 126 121 120 117 119 120 117 115 121 124 127 140 147 156 162 162 162 158 153 151 139 123 109 105 96 85 62 29 12 14 26 30 26 29 29 32 36 34 26 34 19 21 33 35 30 22 16 19 20 19 22 17 20 19 30 26 21 24 22 20 17 17 17 14 20 23 9 62 99 105 113 111 107 110 104 90 92 107 118 136 150 159 171 172 176 181 183 177 174 174 165 159 151 140 132 129 127 134 133 140 142 151 153 159 167 162 166 161 161 156 150 143 120 107 99 92 77 70 53 24 13 17 24 22 23 26 24 27 29 24 25 22 20 18 46 42 22 23 17 21 19 20 19 16 21 24 26 25 25 20 22 21 15 16 18 20 27 28 18 72 101 107 108 117 109 110 109 100 95 95 101 124 140 151 165 172 179 180 183 183 182 181 181 182 178 175 171 169 168 169 163 166 165 163 165 167 172 166 165 162 158 156 144 128 105 95 88 79 74 70 50 17 17 18 23 20 23 27 18 26 24 20 24 18 23 28 44 32 25 20 19 20 16 21 16 21 17 26 23 29 27 23 20 20 19 14 22 32 32 33 30 76 102 109 111 115 121 108 109 108 100 96 95 100 125 142 160 170 170 184 185 188 190 185 188 193 190 189 187 190 189 184 184 183 181 178 173 172 173 168 167 160 154 141 135 98 90 84 74 77 77 71 41 22 17 22 18 20 21 23 20 24 18 20 19 21 25 39 30 25 25 18 17 17 17 21 14 21 17 31 20 30 25 28 22 18 16 22 36 40 41 42 41 74 103 109 113 115 118 115 109 109 106 102 96 96 101 128 145 156 164 178 185 187 191 190 190 192 195 192 189 190 188 187 188 186 186 183 177 177 171 165 160 151 142 130 104 84 82 77 77 83 84 70 36 23 17 21 18 18 23 18 23 17 22 18 19 28 26 38 23 22 20 18 17 15 19 18 17 20 17 29 21 27 26 27 22 16 18 31 49 49 44 51 51 75 101 109 112 121 120 116 121 109 107 106 99 97 96 103 127 144 155 168 179 182 190 188 187 192 190 190 188 189 188 188 187 187 186 183 174 173 173 160 148 142 129 106 83 84 77 81 81 91 84 67 31 19 20 22 17 19 20 18 22 18 17 20 30 28 28 30 19 19 20 17 15 16 18 16 18 21 24 