P2
92
112
255
60 60 62 53 48 51 61 60 71 68 78 72 71 74 78 88 88 77 83 92 95 100 114 122 119 126 136 138 143 143 147 145 145 143 151 148 150 149 150 151 151 156 157 156 140 149 155 148 141 135 143 142 145 153 153 156 156 154 161 155 156 158 151 148 146 138 137 137 130 125 116 111 105 104 103 102 78 64 64 78 91 60 50 61 86 75 74 55 36 40 53 46 58 73 54 63 62 69 61 61 69 69 71 85 89 91 84 86 80 76 81 97 110 128 135 131 127 135 140 144 144 142 142 143 145 143 146 147 146 148 144 150 151 152 151 149 149 147 151 149 146 143 148 150 151 150 154 154 149 151 162 159 173 166 170 158 154 144 137 136 136 133 122 113 112 104 111 110 94 72 73 75 88 78 45 60 70 77 48 65 40 34 50 51 68 77 80 67 57 66 66 65 77 81 88 95 88 96 92 102 85 95 107 120 128 133 142 131 132 144 143 141 141 145 143 144 147 147 149 146 148 150 145 152 152 155 150 151 148 151 149 155 148 149 151 155 153 158 156 157 149 147 171 167 187 187 187 166 167 166 153 148 139 138 130 125 115 112 112 111 107 89 83 64 91 79 50 53 74 81 48 50 56 36 50 49 79 76 56 62 64 64 61 74 80 84 92 97 102 110 101 102 106 115 126 133 139 138 143 133 138 145 139 141 141 140 146 142 145 148 149 153 154 153 156 160 158 159 156 154 149 153 158 160 158 150 157 161 159 164 164 161 159 162 167 168 188 200 189 186 178 170 169 166 156 148 138 134 127 119 114 110 111 106 89 71 95 88 54 55 90 63 48 54 78 39 45 51 49 69 68 63 79 81 82 73 75 77 103 107 112 109 109 118 125 132 138 139 142 139 145 136 139 143 140 142 144 143 147 145 153 154 159 161 167 168 174 175 174 165 160 163 154 159 167 162 163 158 165 165 166 167 167 165 172 169 179 185 194 202 197 189 187 186 174 175 177 162 150 149 141 134 118 112 112 105 106 77 81 81 48 63 80 62 36 47 91 48 46 49 43 65 89 79 68 80 87 87 88 91 102 111 114 122 125 131 136 142 146 143 146 149 142 140 151 149 147 148 150 148 152 157 160 159 166 169 185 179 187 190 189 173 174 176 169 168 169 172 167 167 171 170 169 169 179 173 180 184 181 187 196 199 196 191 184 184 180 186 180 172 162 164 156 151 136 122 113 111 105 88 58 86 46 76 78 68 39 45 86 50 49 43 52 62 67 71 82 89 97 100 109 122 121 125 130 139 142 144 145 149 152 149 153 150 144 149 157 155 150 153 158 155 157 163 163 166 167 169 180 173 186 192 193 188 183 178 189 178 181 179 167 172 169 171 168 169 175 173 178 179 181 183 189 187 187 186 184 183 178 179 182 166 168 164 162 160 156 140 123 115 110 105 69 68 58 76 81 59 52 56 64 56 48 49 52 55 72 78 84 93 105 105 116 122 126 133 139 150 152 155 157 153 152 151 153 147 152 157 161 157 153 157 158 160 162 160 165 165 167 169 176 173 174 183 188 189 187 185 188 188 182 182 176 175 175 178 175 172 175 177 178 180 179 186 178 180 182 179 177 180 176 171 177 165 163 163 164 163 157 158 148 124 112 111 88 71 60 70 69 59 55 55 55 47 49 45 56 63 71 68 88 91 98 107 108 120 130 138 149 153 157 157 162 158 157 153 157 156 157 158 161 159 158 162 163 165 163 161 164 168 164 166 173 168 174 175 173 182 186 184 184 184 176 177 173 173 173 176 175 176 173 176 174 176 173 175 177 185 177 172 171 175 172 174 173 162 163 164 164 165 157 156 157 145 124 113 100 84 80 61 77 73 51 43 65 44 49 50 72 65 66 81 87 94 98 103 117 129 139 144 145 156 156 157 162 159 160 159 157 160 160 162 160 161 159 163 164 165 163 162 163 165 166 168 169 171 169 173 168 176 181 184 180 179 179 179 177 175 174 175 172 177 177 175 172 173 173 172 175 175 175 169 172 172 170 173 168 167 161 164 162 161 166 150 156 152 145 128 112 119 100 75 73 86 55 34 69 60 55 51 68 61 70 84 84 93 106 112 122 136 143 146 148 150 153 152 161 157 161 157 155 159 159 161 162 159 162 162 163 164 164 166 164 166 169 170 170 172 172 173 168 183 177 179 172 173 175 173 175 175 179 175 174 171 177 168 170 171 175 172 175 171 174 169 170 174 170 170 171 168 167 161 160 165 163 158 154 154 148 141 127 129 117 87 70 83 61 42 59 65 48 46 77 72 68 78 89 94 106 102 125 132 135 142 147 154 152 153 155 160 160 157 157 160 162 160 160 162 161 165 165 163 166 167 168 167 169 171 172 171 179 176 176 175 181 181 169 171 174 175 175 174 177 174 174 173 174 170 171 171 168 172 173 174 171 169 168 170 170 166 168 166 165 165 160 162 166 160 159 155 148 145 137 135 136 99 71 78 62 39 48 53 46 48 73 69 67 82 92 99 95 112 121 127 136 137 144 152 153 156 159 156 160 159 160 161 163 161 160 166 163 167 162 163 168 167 169 168 171 173 174 177 176 174 174 175 179 179 174 173 177 174 177 174 171 172 172 169 173 166 172 171 170 171 170 170 173 172 167 168 170 168 167 165 168 169 165 163 163 160 160 151 153 148 142 133 140 119 88 65 85 47 48 54 47 46 68 65 73 80 89 86 103 116 121 129 130 137 143 149 153 156 160 154 159 161 160 163 160 162 162 166 165 166 158 161 167 168 169 169 171 173 176 178 173 180 180 178 182 184 173 180 180 176 174 172 172 168 174 168 169 169 169 170 172 166 167 172 170 172 166 165 166 168 166 165 165 165 168 163 162 162 158 155 152 145 144 138 142 129 102 71 86 70 50 47 47 46 67 81 83 91 91 103 108 110 122 123 129 133 145 148 153 158 156 159 160 160 161 162 164 164 164 162 163 164 166 167 169 168 170 172 172 172 176 179 178 180 182 184 177 178 178 180 181 177 174 174 173 171 176 176 174 171 174 173 170 171 168 172 171 171 167 166 168 171 169 168 168 163 162 164 162 162 160 157 151 149 141 144 140 139 102 87 76 71 62 48 49 44 75 87 94 102 101 95 108 107 110 124 132 136 140 149 152 153 159 159 161 162 164 168 164 164 167 166 162 167 169 164 173 168 170 173 172 173 172 176 179 180 178 183 181 179 180 180 178 184 180 177 177 177 177 178 175 173 177 174 169 172 175 177 173 171 171 169 166 171 167 167 166 167 160 160 159 158 161 160 152 153 144 144 144 141 118 82 81 76 47 50 51 47 71 77 79 90 99 97 96 104 115 126 126 134 142 141 144 157 162 157 162 165 164 165 165 162 165 166 164 167 162 168 170 171 172 172 174 172 176 176 179 180 182 184 182 184 180 182 180 180 180 178 177 181 176 180 177 175 177 177 173 175 171 174 170 171 168 167 170 167 170 168 165 161 167 161 161 157 160 158 153 151 150 145 146 140 132 88 84 93 57 51 52 47 81 79 86 83 89 87 94 104 110 114 124 128 133 142 145 151 156 164 160 166 166 166 167 163 168 167 170 167 164 166 177 171 173 173 170 170 175 176 184 183 180 182 188 187 184 181 186 183 180 175 175 175 174 176 175 172 172 175 174 174 171 174 172 168 166 169 166 167 169 165 169 164 169 161 163 157 157 158 156 152 152 148 145 144 138 99 75 84 82 43 58 47 68 84 71 73 81 90 87 103 109 122 112 122 134 146 140 152 156 159 165 167 165 166 166 167 168 166 172 172 171 164 180 173 173 169 173 169 170 174 184 180 178 184 187 186 185 184 185 183 181 178 178 176 173 177 171 168 171 174 173 175 173 171 175 165 167 171 168 166 172 167 169 168 164 161 165 160 156 154 157 154 151 152 146 143 138 117 84 73 72 51 53 46 80 67 68 78 85 93 94 105 105 110 119 121 136 144 151 150 157 160 169 167 163 168 170 169 167 169 171 169 173 173 169 171 176 170 170 171 180 174 177 181 178 184 184 185 184 184 180 180 178 177 177 176 175 179 174 170 173 171 172 174 172 170 168 166 172 174 168 165 164 166 171 167 160 162 166 163 158 157 159 156 154 149 148 144 138 126 93 84 68 53 54 45 76 74 86 77 92 94 94 92 100 106 121 128 139 148 152 160 161 164 166 168 166 162 170 171 171 168 166 169 172 172 168 173 174 165 168 176 176 172 181 184 179 189 182 189 183 180 181 179 180 175 176 182 178 177 172 175 170 173 169 173 173 172 172 170 169 169 169 166 164 166 168 167 165 161 164 162 161 158 160 154 155 150 153 147 140 131 101 77 95 53 45 49 87 77 78 81 93 92 96 102 112 110 128 138 145 146 151 162 167 165 172 172 168 169 169 172 174 171 169 169 173 168 171 174 174 167 173 168 172 175 181 180 183 183 191 185 188 193 185 184 183 177 181 179 177 174 171 170 174 175 173 172 172 170 171 169 171 172 170 170 166 165 166 165 166 164 164 162 164 158 160 156 155 153 151 150 143 134 104 82 80 55 40 54 64 77 77 83 85 95 105 107 111 121 125 137 144 148 157 163 170 171 172 172 168 173 169 170 171 172 173 169 173 171 176 169 168 171 176 169 176 176 176 179 179 186 183 185 185 185 185 187 177 176 180 176 177 172 173 170 166 172 174 171 174 173 173 171 169 172 170 174 163 169 165 167 163 164 163 160 162 160 160 157 158 151 150 149 141 138 113 81 97 54 39 49 83 87 78 92 90 95 104 110 111 118 126 132 142 143 155 161 171 170 173 173 169 172 168 167 170 168 170 169 170 170 174 171 173 174 175 171 176 175 180 179 185 186 183 185 189 185 188 188 179 183 178 174 172 173 175 170 168 169 172 173 171 173 173 170 168 172 167 168 169 166 165 170 166 161 163 164 162 160 162 160 159 155 152 150 141 137 125 81 93 66 43 43 93 89 88 92 103 96 100 107 111 122 125 134 144 152 160 168 174 172 173 176 173 171 170 168 172 172 169 171 165 172 174 174 172 178 173 176 181 177 181 181 185 186 187 188 187 185 187 186 181 178 179 174 171 173 170 174 176 173 171 172 170 168 170 170 173 174 169 169 169 167 166 167 167 163 171 169 164 164 161 162 160 158 157 153 141 138 123 94 83 74 40 53 92 89 97 107 110 105 102 110 116 123 130 137 145 160 167 171 171 173 174 176 170 174 171 173 174 172 170 173 173 174 175 173 178 182 174 179 180 177 183 180 182 188 188 187 191 190 191 185 186 172 180 174 175 173 173 179 181 173 173 171 170 169 173 176 169 171 170 169 171 167 166 168 167 165 171 164 164 167 160 164 158 161 156 153 145 133 129 89 84 66 48 44 82 97 103 112 102 114 121 122 127 126 129 143 148 165 165 173 173 170 174 170 172 173 170 171 171 173 168 173 173 173 174 171 176 181 172 175 182 173 185 178 187 181 192 186 185 187 187 190 183 178 176 180 173 172 173 171 173 169 172 168 172 172 167 172 172 168 167 170 167 165 167 169 169 163 169 164 166 165 164 162 164 156 160 153 146 134 134 88 87 70 47 45 83 92 106 107 108 121 129 127 129 125 139 150 155 171 169 166 171 172 167 172 171 170 170 169 171 171 168 171 172 174 175 173 174 176 179 178 183 180 186 185 186 180 191 193 186 184 187 190 184 179 180 178 176 175 172 172 172 170 169 173 168 166 169 170 174 170 168 168 167 164 167 170 168 164 169 169 166 168 166 167 164 163 156 154 147 133 133 93 85 66 48 47 82 90 96 107 118 117 125 124 133 141 150 158 168 170 170 170 171 170 169 167 170 169 170 167 168 167 168 173 172 170 177 173 177 175 181 183 185 184 186 190 185 185 189 193 189 187 191 190 184 179 186 172 177 175 170 175 172 168 169 173 169 169 171 168 174 167 169 168 171 165 167 167 166 166 166 168 168 166 168 171 163 162 160 154 151 141 128 97 89 58 50 45 85 83 89 106 124 123 116 130 140 150 158 164 169 172 168 168 171 169 167 168 168 166 166 169 166 168 168 170 172 174 176 175 179 172 179 179 181 187 188 184 186 183 184 186 194 190 191 186 180 184 178 176 174 175 175 174 173 174 170 173 170 170 169 168 173 170 171 163 167 164 161 167 159 161 164 163 164 163 164 168 164 162 161 160 154 141 134 84 84 51 49 47 86 85 91 113 111 119 130 138 151 160 166 169 171 171 171 164 169 166 167 171 165 161 163 169 166 168 167 170 172 173 175 173 179 170 186 188 178 183 184 183 187 184 181 185 187 192 185 182 177 180 181 177 176 178 177 172 171 171 174 171 173 171 171 171 172 171 169 171 163 164 163 162 162 160 159 163 162 161 165 162 165 167 161 161 156 146 134 87 67 52 45 49 79 83 97 108 103 106 133 155 166 170 171 171 173 165 170 168 164 166 164 171 164 161 164 168 168 168 163 168 169 169 173 177 178 180 186 189 184 183 183 180 184 182 180 182 187 188 179 182 178 175 177 180 173 175 176 174 173 168 175 173 168 170 168 173 172 164 167 171 167 163 166 160 164 161 155 165 161 162 165 156 164 165 164 161 159 148 142 101 52 49 50 46 86 83 96 96 108 119 143 162 173 172 167 168 170 171 166 167 166 165 158 163 165 166 167 168 171 166 158 156 165 169 169 176 181 182 188 185 182 180 180 176 178 177 174 175 180 176 174 176 173 174 175 172 171 177 172 173 174 170 173 171 168 169 171 170 170 163 169 169 168 167 170 162 162 161 163 159 160 159 163 155 155 163 163 156 154 155 148 102 55 45 46 48 76 83 82 94 110 131 157 168 173 169 170 167 169 166 166 165 163 164 164 163 164 166 165 166 165 165 140 147 163 166 169 173 175 174 181 174 174 170 167 166 169 169 165 165 165 164 166 170 172 167 171 169 172 172 171 173 175 172 170 167 169 173 173 168 172 172 168 168 168 172 167 167 159 162 159 152 151 154 159 153 153 153 150 148 143 145 162 97 43 49 49 50 76 82 80 93 125 148 159 173 171 163 168 169 170 167 163 162 164 163 162 167 165 169 168 168 163 151 144 147 161 158 157 166 160 155 163 163 159 153 148 149 148 147 156 150 148 159 160 165 166 165 170 168 172 173 173 173 173 169 168 170 171 170 173 175 175 177 170 164 166 171 165 160 154 147 145 137 136 136 143 145 140 144 145 138 137 138 146 123 43 45 52 43 83 75 74 101 136 156 167 170 166 164 167 168 167 164 160 159 163 165 164 168 167 167 161 156 149 151 150 143 155 156 147 156 157 137 137 133 132 134 134 132 130 133 131 144 139 147 156 157 158 159 162 166 169 172 173 170 169 171 169 172 171 173 178 178 177 175 170 173 170 157 147 141 125 122 120 120 120 122 118 133 131 132 140 139 133 131 140 142 68 42 46 46 86 74 78 106 144 161 167 165 165 164 166 164 165 160 161 158 163 167 167 167 157 162 162 157 155 152 150 155 153 150 145 148 150 128 123 121 123 124 124 130 143 143 135 147 147 145 150 149 161 155 156 156 164 165 173 173 173 173 170 174 162 173 181 181 178 172 167 169 159 146 130 122 117 112 105 112 117 118 110 118 124 128 134 135 135 127 121 133 107 39 46 49 86 79 78 122 149 160 162 158 161 164 166 165 165 159 157 159 162 167 159 155 152 150 158 150 146 148 153 155 145 135 140 137 138 131 117 117 111 113 119 124 123 133 147 140 143 150 153 152 157 153 157 149 161 165 171 167 175 173 173 169 160 171 176 180 182 167 164 152 150 136 127 120 119 117 106 114 117 122 124 124 119 136 139 134 128 127 126 123 108 52 43 48 98 79 93 122 159 158 160 160 162 165 168 162 165 161 160 163 165 157 158 153 143 149 139 145 148 149 146 158 148 135 137 140 143 147 144 145 146 130 125 129 123 127 130 142 138 152 154 152 154 151 151 155 158 165 168 168 174 174 168 168 164 167 173 177 170 168 153 141 140 132 127 124 135 135 131 146 148 154 158 153 154 158 175 156 143 136 131 122 108 51 42 47 79 75 94 133 153 153 162 157 166 163 164 162 163 157 165 162 167 162 156 148 153 158 152 151 159 154 149 157 155 155 155 151 152 147 141 144 149 140 139 134 133 132 137 139 146 150 154 155 155 154 156 152 158 164 170 168 178 170 170 164 157 158 164 168 164 157 148 142 144 149 147 148 151 147 146 158 159 162 157 169 169 172 175 169 158 139 142 129 88 52 40 45 81 82 106 133 150 155 158 159 164 165 168 163 165 162 166 165 163 162 158 156 164 166 162 161 162 161 161 157 159 158 158 150 149 145 142 141 139 136 131 129 130 138 135 136 140 142 149 156 160 164 168 161 164 170 170 170 178 177 179 168 160 150 159 156 151 153 149 154 152 147 138 119 114 105 102 111 109 122 131 143 147 154 163 166 162 146 137 134 78 38 47 46 84 86 111 134 151 154 157 163 160 164 165 163 163 167 168 170 173 169 172 167 181 176 167 177 172 161 159 159 159 153 152 142 138 130 113 109 100 88 91 96 91 113 120 124 122 122 129 144 162 174 181 178 175 179 176 175 184 188 185 173 164 160 155 147 146 147 148 146 127 113 93 60 76 80 74 75 67 40 102 99 86 89 115 136 148 149 142 131 61 40 43 47 92 89 117 141 154 155 158 164 163 161 166 168 168 168 175 175 171 174 180 190 192 185 175 177 174 167 162 143 123 102 100 85 82 83 51 78 119 104 80 78 94 95 88 105 113 113 111 114 157 181 192 196 190 180 174 174 180 188 182 177 169 163 157 143 143 146 138 121 110 149 126 79 99 176 75 52 96 42 110 159 138 104 48 70 122 148 140 125 53 40 46 47 93 103 123 147 154 159 161 166 165 164 167 172 173 175 179 183 178 182 194 200 195 189 177 162 145 126 113 77 72 62 81 117 51 96 49 93 147 146 128 103 82 99 105 95 104 118 114 114 128 169 188 187 195 182 173 176 177 182 188 183 179 178 165 146 144 124 120 140 149 181 124 65 80 111 82 38 92 50 109 178 166 142 100 52 76 130 142 127 44 39 49 47 99 106 134 149 158 162 167 164 166 169 168 174 176 181 186 188 186 187 198 192 183 169 134 106 101 111 140 81 66 86 32 49 55 92 56 106 159 155 134 128 98 103 99 112 110 116 143 134 118 141 176 178 183 182 174 179 175 170 188 189 181 190 177 161 139 101 82 159 157 184 152 72 98 95 66 63 150 62 134 180 169 134 113 98 72 115 136 131 53 33 48 50 117 121 139 153 159 162 166 167 165 170 171 174 180 183 188 191 192 193 192 169 148 121 101 82 105 141 176 145 83 84 85 68 85 85 77 134 163 157 134 125 117 120 112 97 121 129 154 153 119 133 159 171 175 178 181 178 174 164 181 191 184 188 188 171 149 88 96 94 144 163 181 120 84 97 83 58 168 159 171 180 160 121 120 107 112 115 137 139 48 38 49 47 137 147 148 156 160 166 163 168 167 173 173 175 180 180 187 191 193 194 165 139 125 122 133 122 112 131 167 223 145 76 94 100 78 91 119 158 160 152 133 111 119 110 109 105 109 140 153 153 119 136 153 165 166 171 176 174 171 165 168 192 183 178 197 174 165 116 103 106 115 125 134 147 119 105 98 96 141 171 167 146 129 123 122 104 111 134 139 148 57 34 49 47 150 149 155 155 162 167 163 170 168 176 173 178 179 181 183 189 182 175 141 126 129 143 148 136 141 123 129 161 160 127 118 117 115 128 142 150 138 132 128 112 113 115 117 112 118 137 139 134 122 138 150 158 163 169 171 172 169 162 163 188 190 167 190 185 169 145 105 113 123 130 134 123 126 132 119 119 130 133 123 121 127 125 119 99 118 138 147 149 62 39 44 44 153 151 146 158 162 170 165 168 166 176 172 176 176 178 177 175 176 157 136 136 140 153 153 164 152 132 151 120 144 137 149 143 138 123 131 127 130 122 121 115 116 114 122 123 122 134 128 124 130 140 148 157 162 170 169 169 171 160 156 175 194 176 171 181 170 165 118 112 115 123 126 124 125 133 128 127 135 138 125 132 138 138 116 118 121 146 148 154 77 36 45 41 149 151 152 164 163 169 165 164 170 174 176 175 178 178 172 171 166 152 148 150 152 159 161 164 166 154 151 134 143 127 152 138 154 128 134 132 130 118 119 117 122 122 125 124 131 127 131 129 134 143 147 158 164 169 165 169 167 164 161 164 188 182 171 174 171 171 139 106 110 115 121 130 131 137 136 150 164 165 162 153 144 142 128 131 136 147 148 157 98 37 44 44 148 156 156 166 165 169 170 167 172 177 178 176 176 172 171 164 162 152 155 159 158 166 170 176 184 174 165 159 160 144 160 149 149 143 134 132 130 127 126 132 131 126 126 131 131 134 134 137 142 146 151 157 163 166 172 171 165 165 168 162 175 190 172 174 169 165 157 112 114 116 120 125 129 138 145 160 167 174 170 156 148 141 141 141 143 152 150 149 136 30 44 49 151 160 160 163 167 170 171 171 176 172 179 178 175 170 165 165 157 157 160 161 160 163 168 172 179 176 169 167 160 155 150 151 148 140 140 137 142 141 138 136 133 129 134 134 138 139 144 147 151 157 155 164 165 166 172 170 164 165 164 158 169 182 167 164 167 164 163 133 113 117 129 126 133 134 139 148 158 165 165 156 150 146 145 146 147 146 150 144 153 38 38 49 154 159 164 166 166 170 171 174 172 171 175 176 172 169 167 162 164 156 163 160 165 165 168 169 171 168 169 164 161 160 154 157 157 149 154 154 146 151 139 142 140 139 140 142 146 147 152 155 160 161 161 164 163 164 171 173 170 168 163 159 167 173 165 161 162 163 163 148 118 120 127 132 133 142 139 145 144 150 150 153 151 150 147 150 150 147 147 142 163 53 33 49 159 162 166 163 169 165 173 172 171 175 172 174 173 171 165 168 163 161 160 161 162 164 165 166 164 166 168 166 161 164 166 166 164 164 153 159 149 152 144 152 150 145 143 149 154 152 162 160 162 163 166 169 168 167 170 170 169 166 163 158 165 171 169 162 166 156 160 155 127 124 126 132 137 144 144 149 144 146 149 146 150 152 152 149 151 148 148 142 157 46 37 43 157 164 166 166 170 171 173 171 174 175 172 172 174 174 170 171 167 162 161 160 157 162 161 165 160 165 164 163 166 167 169 164 166 164 160 153 154 156 156 155 159 153 154 154 158 158 158 164 164 172 169 169 171 165 171 167 170 165 165 164 165 168 173 169 168 169 163 152 143 128 128 127 139 141 152 148 145 146 149 146 151 155 153 151 150 149 146 146 149 49 38 49 156 167 163 162 171 172 171 171 175 168 175 170 173 172 171 173 169 167 167 164 161 164 164 165 167 167 166 163 168 170 163 164 164 157 160 157 156 163 161 160 158 157 162 163 159 164 164 169 167 168 171 169 172 172 170 168 165 169 164 163 164 168 175 171 172 175 173 154 149 131 132 135 131 138 147 150 157 152 150 150 146 153 152 156 150 148 149 151 134 42 44 42 160 165 166 163 172 171 172 172 171 175 171 172 171 174 169 173 168 167 165 167 162 167 166 162 167 166 166 170 172 175 172 164 161 160 156 161 162 163 162 160 165 164 166 167 166 169 164 168 170 164 170 171 173 172 172 172 170 163 170 165 166 171 172 174 170 174 171 161 149 140 136 136 142 133 135 140 143 153 144 147 152 148 150 148 153 149 145 158 126 39 40 51 159 165 165 167 172 176 167 169 171 174 177 171 173 171 170 169 168 166 169 167 168 160 166 166 168 164 173 166 172 175 170 164 160 164 165 170 169 163 159 167 169 167 163 165 167 167 171 171 173 170 174 176 169 174 164 170 171 172 170 167 165 169 173 173 168 174 168 166 150 147 140 141 141 145 141 140 142 145 147 149 144 151 149 145 149 148 146 157 129 37 40 42 158 167 164 170 171 171 172 171 174 177 173 169 176 168 168 165 169 171 167 159 164 166 168 166 167 169 175 170 169 174 164 165 162 158 164 166 165 166 159 166 167 166 164 164 167 166 169 173 176 176 178 177 170 173 174 168 172 169 166 162 163 158 169 172 173 170 170 168 157 150 145 142 144 151 148 149 146 149 146 155 151 152 153 150 149 148 143 158 130 31 43 47 162 167 167 170 169 170 173 172 177 175 176 166 171 171 169 166 171 169 171 163 166 167 169 169 166 170 166 176 166 167 161 160 167 167 164 165 167 166 169 164 169 168 168 164 169 172 175 178 179 180 179 169 167 169 168 166 169 166 164 157 157 159 172 178 180 174 170 174 161 153 149 148 149 149 149 152 150 150 156 156 158 152 154 151 152 145 148 159 121 37 42 45 165 169 168 171 170 166 171 174 179 180 175 170 172 171 170 174 174 168 168 168 165 169 165 169 167 163 166 168 168 168 166 170 170 167 174 168 172 169 168 168 167 171 168 166 169 171 178 177 176 170 164 161 157 160 158 159 162 165 163 156 146 157 175 180 177 174 172 172 164 150 155 155 150 152 154 155 152 151 158 160 156 156 153 152 151 149 145 160 103 39 40 49 162 166 171 169 172 171 170 174 179 181 178 170 175 171 173 172 179 172 173 170 171 169 168 169 165 162 167 164 168 171 167 172 172 164 168 171 173 165 171 169 166 170 166 168 172 173 174 172 162 156 153 153 151 149 151 156 159 162 166 160 160 170 174 183 174 175 174 169 161 151 152 161 158 151 154 157 154 155 161 160 159 152 153 151 152 148 145 157 93 38 41 46 161 169 171 173 173 171 170 178 178 178 184 175 176 181 174 175 174 174 169 169 169 171 168 165 163 162 166 164 165 172 172 175 174 170 170 169 173 166 173 168 169 169 167 169 169 168 164 167 148 148 147 151 147 146 150 153 158 161 165 164 162 169 186 185 180 175 177 172 164 153 149 162 165 158 155 156 158 158 162 161 154 155 153 149 148 144 144 156 75 38 42 46 162 171 175 171 173 173 170 177 178 178 183 181 184 184 178 178 174 173 173 165 172 169 166 169 165 167 167 167 167 174 173 173 174 172 176 170 170 167 171 171 170 166 168 168 163 164 160 157 150 152 150 149 147 149 156 159 163 164 165 161 162 171 182 183 177 176 176 170 166 158 144 156 171 163 164 160 158 165 158 162 156 156 156 148 146 147 146 147 60 39 44 41 163 173 176 170 175 177 173 179 179 180 185 184 184 186 186 182 177 179 176 172 170 169 167 172 171 171 170 174 173 171 175 171 173 171 171 173 170 170 169 167 168 165 161 163 157 162 158 156 158 160 152 155 150 157 162 162 165 162 163 160 164 169 179 178 172 169 175 166 173 164 150 148 166 168 169 159 155 164 162 163 159 157 158 148 147 147 154 139 47 36 44 46 168 172 172 177 172 176 173 181 177 178 182 183 186 187 187 186 177 180 179 177 176 178 173 171 173 173 171 176 173 170 174 169 170 167 168 170 170 175 172 165 162 162 159 156 154 156 161 159 163 160 153 156 152 157 166 170 172 168 168 169 168 161 193 186 173 168 172 170 170 167 155 137 158 169 172 164 160 164 161 166 162 159 161 151 148 151 154 117 39 39 43 47 164 171 175 174 173 177 172 183 180 185 181 184 183 184 184 188 178 182 179 181 178 180 173 176 175 175 172 172 176 172 172 173 166 162 169 168 169 167 169 165 163 156 159 155 149 157 161 164 163 162 162 164 163 169 174 181 177 183 187 185 179 157 199 202 171 170 172 170 171 159 149 142 146 164 177 167 168 164 162 161 165 161 158 152 148 149 154 106 32 38 45 45 168 171 174 178 172 177 174 179 181 184 185 182 186 184 187 184 187 181 183 182 184 181 178 178 178 176 174 174 176 172 176 173 164 168 172 165 168 168 171 165 156 159 157 155 154 159 160 163 164 166 176 173 173 179 179 185 181 181 188 196 198 179 170 177 168 164 177 178 171 150 142 147 140 158 170 169 167 166 167 165 163 166 154 152 149 150 151 73 33 40 41 44 165 170 174 175 174 173 178 176 179 180 183 183 185 190 179 180 183 185 180 184 182 180 177 178 179 177 175 174 176 172 177 169 167 167 172 170 165 171 163 159 155 153 159 152 150 162 160 159 170 181 185 187 189 188 182 178 182 171 178 182 189 198 179 172 170 162 197 201 154 140 144 148 136 150 170 171 167 168 168 169 162 167 160 153 152 150 140 55 34 38 44 40 167 167 172 174 179 175 174 181 176 180 185 179 185 186 186 181 185 181 184 182 184 181 179 182 180 178 177 177 174 175 166 168 167 164 171 164 165 164 160 154 154 153 160 154 151 150 150 162 169 182 185 185 166 131 113 120 137 133 149 173 181 194 181 177 171 173 172 168 117 119 141 142 134 145 168 173 172 169 169 170 168 163 162 155 152 158 122 44 33 40 45 46 167 165 168 176 182 175 176 179 179 182 182 182 182 186 185 187 186 183 183 184 185 188 183 187 180 180 178 176 178 178 170 171 166 166 167 163 162 160 152 153 153 159 160 163 167 158 134 134 151 170 176 170 140 132 136 147 158 161 130 131 171 184 175 173 175 168 155 130 106 117 134 140 139 149 166 175 173 170 168 165 165 168 155 155 152 159 101 33 40 40 46 43 165 162 168 173 179 175 174 179 175 182 179 185 183 187 185 190 186 187 185 184 187 188 184 186 183 179 181 176 175 170 178 171 163 167 167 163 162 157 153 155 156 163 166 170 175 168 149 130 114 118 134 136 144 152 151 151 160 168 169 160 159 179 176 171 163 155 126 107 122 129 138 147 149 158 169 174 173 168 168 164 164 166 155 158 150 159 77 28 38 44 44 43 164 164 168 169 172 175 172 178 176 179 184 186 185 185 182 187 185 189 188 186 189 186 184 184 185 178 174 176 175 172 173 173 168 167 169 166 161 159 157 159 166 170 174 177 172 174 158 143 143 149 140 146 145 153 151 149 153 155 167 174 179 174 168 163 147 126 101 106 128 135 144 156 163 170 175 176 172 174 168 168 167 166 157 159 156 146 64 28 37 42 38 46 162 163 172 173 167 173 172 179 177 178 186 188 187 184 185 183 187 189 190 188 190 191 186 185 184 179 181 178 178 175 172 174 169 169 170 165 164 161 165 166 172 174 171 174 175 173 161 144 147 152 148 153 152 157 152 154 159 155 170 171 173 163 149 136 130 115 103 110 135 138 155 162 169 176 175 179 166 169 174 172 166 163 161 153 156 141 45 32 39 44 41 46 163 161 167 170 163 171 176 177 181 181 181 189 186 181 186 184 185 186 189 188 190 190 190 187 187 182 181 179 181 179 175 174 171 171 169 162 165 165 171 174 176 175 167 168 172 175 162 151 148 143 148 151 155 154 156 157 160 159 167 169 167 167 162 146 132 121 117 118 142 152 159 170 170 176 179 179 165 167 169 173 165 158 162 155 165 110 42 33 41 41 40 38 152 160 166 165 166 170 174 184 180 180 181 183 184 184 184 187 188 187 187 187 187 191 186 186 192 179 177 179 182 179 174 175 170 171 167 165 166 168 172 174 176 175 174 167 172 167 165 159 148 147 146 148 146 153 157 152 156 156 156 164 164 162 165 157 141 139 130 132 154 159 160 169 166 175 176 177 169 170 170 167 170 162 161 151 167 94 27 36 44 45 42 39 148 162 165 164 166 170 174 181 179 183 178 183 181 187 187 186 191 191 188 189 190 190 189 190 189 183 182 181 178 177 175 174 170 171 169 172 173 175 174 176 177 171 172 166 169 165 165 161 153 147 149 146 145 149 162 152 151 158 159 164 163 166 159 147 147 141 138 138 154 158 158 161 168 173 174 174 175 172 167 169 168 165 155 154 164 66 33 36 38 42 45 39 154 154 165 163 168 166 173 179 181 181 178 181 182 187 184 185 187 192 186 189 190 192 190 189 190 188 185 180 171 174 172 173 172 173 173 173 176 173 178 172 172 168 166 162 168 164 166 157 159 151 153 151 145 154 157 152 151 163 161 166 161 164 163 155 149 139 147 152 154 157 155 156 162 173 172 169 172 174 168 168 168 164 157 156 154 53 30 36 37 39 41 41 176 148 162 161 164 164 175 179 179 184 169 183 182 186 185 181 190 189 192 189 194 192 195 193 190 191 186 182 174 176 174 173 176 176 177 175 174 168 171 161 168 171 165 161 165 161 163 163 164 163 159 159 155 158 158 156 157 155 161 163 161 160 160 154 153 141 148 160 155 148 153 152 160 165 169 165 166 171 169 170 169 163 151 162 137 33 32 37 41 39 41 36 187 159 153 162 162 166 172 177 175 181 180 181 184 186 185 182 188 192 189 190 189 191 194 195 189 186 186 182 182 174 174 177 176 176 176 176 170 169 170 163 168 169 160 161 168 165 168 167 170 167 169 162 158 160 153 158 158 154 151 156 156 154 158 159 155 157 156 161 163 148 155 151 155 159 166 169 163 166 167 170 167 161 153 159 118 26 31 37 39 39 42 38 186 178 151 154 160 165 169 181 173 175 182 179 182 184 187 182 182 191 187 191 187 194 194 195 190 186 185 182 179 175 179 177 178 175 177 174 173 170 169 169 173 166 157 167 168 169 171 169 173 172 171 163 160 162 152 154 151 152 143 143 147 144 150 153 155 159 160 163 167 156 157 155 157 159 163 167 163 165 166 170 167 159 152 161 91 22 38 38 41 40 38 38 183 186 163 153 156 158 165 181 176 175 176 175 177 185 188 188 183 188 189 191 193 189 190 192 190 187 182 184 179 178 180 176 182 176 178 171 167 168 171 168 172 172 171 170 172 173 173 173 173 177 173 163 161 160 160 155 154 144 137 139 139 141 152 154 155 162 162 158 163 160 160 158 161 162 163 166 163 161 163 172 164 161 155 148 66 22 38 40 39 41 38 40 184 186 181 152 155 157 159 172 176 177 173 174 184 184 186 189 190 189 191 190 193 191 193 189 192 184 187 183 181 179 183 179 183 179 178 171 163 164 172 171 170 170 176 174 174 170 171 173 177 179 174 163 156 152 147 150 153 148 141 143 145 150 153 155 155 160 164 163 164 164 160 162 165 164 164 165 162 154 160 165 165 158 156 138 47 26 38 41 39 38 38 35 181 188 190 159 152 158 161 167 173 178 178 176 184 186 184 190 189 187 190 192 192 195 191 190 187 184 184 187 178 180 184 181 182 178 175 171 164 172 171 175 170 173 177 179 179 175 170 174 174 168 160 151 147 141 145 140 141 135 135 137 140 139 141 143 142 147 153 161 168 164 161 166 164 166 169 165 167 155 158 164 159 156 163 107 31 35 36 38 38 39 34 41 180 187 192 179 151 155 160 166 177 177 177 177 183 184 188 190 192 187 195 192 194 193 191 186 187 179 185 188 173 178 185 185 180 180 175 171 169 173 171 170 168 168 176 179 182 174 170 164 151 149 146 144 140 141 140 143 137 130 126 127 128 129 131 130 134 128 131 134 151 158 168 168 164 168 170 164 164 157 153 162 161 156 156 87 25 34 38 42 33 38 37 39 175 185 191 189 164 151 158 166 178 173 179 180 181 184 185 186 178 188 191 195 196 193 189 194 192 182 183 190 178 184 187 186 184 176 176 173 171 172 168 160 151 152 163 161 166 148 140 133 123 122 118 114 113 108 117 123 119 110 109 111 111 114 113 114 112 116 114 114 117 128 149 161 161 167 169 165 164 157 157 163 159 157 147 62 27 40 36 40 35 41 36 40 173 180 190 188 180 152 155 162 169 174 173 176 180 183 185 189 179 190 192 192 193 196 190 192 193 188 184 188 184 188 188 187 181 178 173 172 174 166 158 141 132 129 138 135 127 115 108 100 93 88 83 86 84 88 88 89 93 86 77 82 86 82 83 79 80 89 96 97 99 103 120 131 144 150 160 168 163 156 158 162 159 160 122 41 29 38 42 40 39 36 41 38 148 182 188 190 185 166 153 157 164 171 177 175 183 183 182 188 193 188 198 197 192 193 194 193 191 186 186 186 190 185 190 189 185 175 172 170 170 159 130 110 101 95 102 102 107 102 101 98 94 100 99 110 107 117 111 110 106 99 99 88 102 94 94 90 83 85 83 86 84 85 95 105 120 135 161 166 163 157 161 157 155 160 93 24 34 41 34 40 43 36 39 40 122 176 187 186 188 179 158 154 161 164 174 172 179 184 183 187 191 194 197 197 193 191 192 196 191 193 187 188 185 186 191 187 189 180 167 167 165 151 124 118 117 111 113 110 120 118 120 121 120 125 123 132 127 138 133 126 121 118 119 113 120 120 105 105 103 109 99 111 103 101 108 112 119 139 159 165 161 152 161 155 156 144 53 26 35 40 34 38 37 35 38 43 96 175 182 189 190 185 169 154 157 161 170 169 171 178 183 185 190 195 197 198 197 198 197 198 191 192 191 190 189 189 189 185 185 182 164 165 162 152 146 143 139 139 136 135 136 135 135 134 131 133 135 143 136 144 141 136 134 131 129 127 123 129 120 112 120 124 120 123 123 121 123 129 134 143 162 165 154 152 163 155 158 115 33 24 40 32 38 36 37 36 35 39 72 169 175 184 189 187 180 166 155 156 165 171 165 170 180 180 187 193 198 194 200 198 197 198 193 193 192 191 192 187 188 183 183 181 168 163 162 158 156 160 158 159 158 156 151 149 145 143 140 137 140 141 144 147 147 140 143 138 137 131 125 127 126 126 130 131 131 130 135 131 136 145 152 151 166 163 155 156 156 155 148 74 22 34 33 36 35 36 38 37 37 37 50 165 176 181 188 187 182 175 159 155 154 168 169 150 176 181 185 188 194 192 199 199 197 195 197 192 189 189 191 187 184 184 177 177 171 171 165 164 162 168 168 171 172 173 179 175 174 159 160 151 145 148 143 146 147 142 143 145 138 136 130 129 133 132 135 138 139 138 143 143 149 155 162 157 166 160 162 159 158 153 118 41 25 39 32 32 35 36 38 37 36 40 55 155 178 176 187 189 185 182 167 154 150 159 169 165 164 174 183 182 193 194 193 196 195 198 195 196 187 194 188 187 191 182 179 178 174 175 173 167 166 162 170 163 169 169 183 186 175 178 169 167 168 155 156 150 148 147 144 149 143 144 146 140 141 143 148 149 147 143 144 147 152 159 165 160 162 155 156 156 157 144 77 28 30 36 35 29 38 34 34 39 38 41 58 144 174 176 182 188 190 179 178 168 154 154 157 163 161 173 172 189 183 193 194 192 194 197 198 194 193 187 188 184 187 181 183 181 169 176 176 172 168 169 164 166 164 166 171 177 176 169 171 170 174 167 164 163 161 154 155 162 154 149 152 152 154 150 149 151 144 144 147 159 158 162 166 162 158 154 152 156 156 110 43 29 34 34 33 35 34 38 34 40 38 38 40 135 175 181 180 182 188 185 179 180 159 155 156 159 163 168 170 176 187 186 191 191 192 195 194 196 190 189 190 189 184 181 182 181 177 173 176 173 173 167 165 166 166 165 169 170 171 168 166 171 169 164 164 160 160 154 154 156 147 155 159 159 159 160 158 150 150 150 156 164 163 166 162 164 152 148 149 151 138 61 27 34 32 35 32 37 32 39 37 36 37 38 39 113 176 180 183 182 184 189 183 184 177 156 154 158 157 165 170 172 183 186 181 187 191 193 192 195 197 193 188 191 182 180 178 181 174 174 180 175 173 171 169 170 168 167 168 168 170 170 162 164 169 164 161 160 158 155 149 152 148 151 151 156 160 159 159 150 158 161 165 164 160 162 161 157 151 146 150 148 96 31 29 37 32 38 38 36 37 36 39 38 39 39 31 96 177 179 180 181 182 187 184 187 180 168 154 160 161 159 166 171 177 179 183 188 186 192 191 191 196 192 187 186 183 177 175 172 169 176 175 178 176 174 167 172 169 173 171 169 170 171 167 166 171 161 157 157 157 157 145 151 151 154 155 156 159 158 159 159 162 165 166 162 161 158 158 150 148 141 148 123 49 27 37 29 35 36 33 38 39 38 40 38 37 35 22 86 172 179 181 181 178 186 186 185 184 180 158 162 161 153 161 163 175 177 178 185 185 191 187 190 192 190 185 186 180 179 178 167 162 168 172 174 175 176 172 173 172 171 175 168 170 172 169 171 171 164 159 152 159 157 150 152 151 154 157 158 158 157 151 160 161 160 164 159 159 156 150 155 146 145 137 77 30 33 33 35 30 34 35 35 34 36 37 38 38 37 20 73 170 176 174 179 182 178 188 186 185 185 171 161 160 160 154 164 165 174 173 180 177 186 187 187 189 183 183 179 177 180 177 168 161 163 170 172 171 171 171 171 169 170 169 169 164 168 169 168 167 163 161 161 156 152 149 146 152 150 157 160 160 160 154 157 159 160 165 156 155 154 151 152 143 142 99 42 31 35 32 30 36 31 39 35 33 35 39 32 36 35 29 67 167 176 179 181 182 183 184 188 185 187 176 169 162 164 159 155 159 169 168 173 174 178 180 180 188 178 177 177 174 172 170 170 168 166 167 170 169 169 169 164 169 168 163 165 163 165 162 161 165 155 157 155 157 150 144 152 150 157 158 164 162 162 161 161 160 163 164 159 158 154 146 143 147 119 53 30 36 37 33 31 31 33 34 33 31 33 39 34 35 36 26 50 168 168 179 178 183 186 183 183 190 184 182 176 168 164 170 161 160 161 162 168 167 173 179 172 179 184 174 177 179 173 169 163 174 160 161 159 167 168 161 163 160 162 163 161 160 164 155 156 158 150 155 150 149 147 145 152 155 159 156 165 162 167 167 168 169 169 167 156 156 151 142 136 141 103 36 35 32 39 29 34 33 34 31 36 36 30 38 37 37 34 34 45 164 167 176 176 181 185 187 176 187 190 186 182 174 168 170 167 164 161 154 160 164 161 172 171 169 174 183 178 174 179 172 164 165 165 165 158 156 161 162 157 152 161 157 158 156 156 150 154 151 151 151 147 146 146 146 148 151 159 155 167 160 162 163 163 167 172 161 152 149 144 141 128 146 114 33 33 34 34 35 32 34 34 34 32 34 34 36 36 37 37 16 41 164 167 176 176 181 183 185 185 185 187 190 182 178 171 173 167 166 167 159 155 157 161 161 163 163 170 173 176 173 183 172 175 158 160 159 167 154 151 160 154 154 158 152 152 154 150 151 152 144 148 147 147 145 143 150 146 155 154 154 156 153 154 158 154 160 160 155 147 146 142 129 129 142 133 30 30 36 36 35 34 30 32 32 34 32 38 35 34 37 37 22 46 162 168 175 175 179 184 184 183 191 189 187 184 181 174 175 169 167 171 165 162 156 155 161 162 161 170 168 171 172 179 173 173 167 162 160 166 152 151 145 153 159 155 152 154 159 157 150 150 149 149 147 146 148 146 147 150 154 151 155 153 149 145 149 160 162 152 150 151 144 137 123 138 144 146 28 34 33 38 37 31 33 31 33 29 33 33 37 36 36 40 11 56 163 164 174 174 180 184 186 183 194 190 190 179 186 181 176 174 169 169 173 163 163 158 156 158 161 160 165 166 166 166 172 181 178 173 163 169 147 153 148 151 157 152 151 150 160 159 156 151 148 150 148 146 150 148 149 147 152 151 151 157 148 147 156 161 164 153 145 148 142 124 133 137 135 161 36 21 35 38 38 33 30 33 29 33 32 34 33 36 35 36 10 76 161 163 170 176 182 182 186 186 190 190 189 185 188 186 181 173 168 171 169 166 169 162 158 155 148 157 158 156 164 161 161 174 170 170 181 165 162 163 151 153 154 154 152 152 158 155 160 154 145 148 146 146 147 148 148 147 148 147 158 154 159 163 173 164 155 154 148 143 125 128 137 137 133 162 49 20 28 39 35 35 31 29 33 32 32 36 36 34 34 32 2 97 158 164 167 177 177 184 182 187 188 191 193 187 185 186 185 176 170 170 166 166 164 168 161 161 155 154 154 155 157 159 159 163 167 167 177 170 169 168 160 159 160 159 158 156 154 156 156 159 146 143 145 148 146 153 148 146 155 150 166 160 167 170 171 156 150 149 149 126 122 136 138 137 131 160 61 13 26 39 35 35 33 32 28 35 32 34 35 33 37 33 6 124 155 162 168 176 179 179 184 184 185 190 187 191 186 187 186 184 182 175 168 172 163 166 166 162 160 155 154 153 152 153 152 161 156 166 167 173 171 171 167 164 165 158 157 155 155 147 159 156 153 150 149 149 153 150 154 151 155 158 164 164 163 165 165 149 147 145 134 118 136 135 140 137 135 159 64 14 21 37 40 31 34 29 37 31 31 35 37 32 36 37 21 138 160 163 168 175 177 178 184 189 187 188 190 190 193 192 188 188 182 178 177 170 164 167 174 164 161 158 155 154 154 144 155 147 153 154 161 162 163 169 176 156 167 154 160 159 153 157 154 159 158 157 155 151 152 151 158 150 157 151 163 156 158 156 151 144 140 129 119 135 141 137 135 136 134 158 58 10 22 35 39 38 30 33 32 33 32 36 39 32 35 36 24 143 160 166 171 171 181 183 184 185 187 185 184 187 194 192 190 190 184 185 181 177 167 170 172 163 161 166 161 154 156 146 152 145 147 144 146 155 161 165 169 161 166 156 164 163 161 160 154 151 154 153 160 155 151 156 152 154 152 152 146 148 145 139 138 133 128 118 137 141 142 140 138 135 141 146 50 14 19 32 41 33 30 31 30 30 29 32 40 34 33 33 18 136 161 166 169 173 176 182 180 189 180 188 190 192 189 193 193 190 188 188 187 179 172 174 173 169 174 163 168 162 155 149 155 149 148 148 141 142 146 149 150 154 157 159 160 164 158 158 158 150 151 151 152 156 149 152 147 150 144 145 139 140 135 131 124 123 123 136 144 141 139 143 136 135 141 128 46 5 29 29 39 38 29 30 33 29 32 34 34 36 36 31 9 111 168 168 174 175 178 182 181 187 184 185 194 187 189 191 190 193 184 185 191 185 165 167 177 179 185 168 171 173 164 162 162 157 151 152 147 143 144 145 138 144 147 147 147 150 153 161 159 151 151 153 149 152 149 148 145 149 142 137 133 131 125 123 126 134 144 137 145 142 140 143 138 137 143 97 32 17 21 31 34 43 27 35 28 33 31 31 37 32 34 34 