P2
92
112
255
64 76 80 53 34 72 60 66 66 50 47 46 42 48 46 56 49 51 56 52 69 89 92 90 97 103 113 110 129 132 138 146 150 154 154 156 158 162 159 162 160 165 166 161 152 155 161 146 138 154 154 156 165 172 173 174 169 172 170 163 171 156 157 146 141 125 115 108 105 104 97 101 104 101 72 78 79 78 75 54 80 85 74 67 57 53 53 54 53 52 54 52 60 61 60 58 78 78 81 69 58 62 52 48 45 47 48 46 50 52 58 75 82 95 94 103 118 122 127 139 147 153 154 158 152 156 159 160 163 161 161 162 166 163 166 163 156 165 167 162 155 159 163 167 169 172 174 168 172 177 184 187 184 178 176 163 149 144 139 136 127 115 115 109 108 102 72 72 76 86 83 59 84 87 88 62 52 59 51 52 58 52 53 51 63 80 79 84 90 73 59 54 55 54 76 62 51 55 60 68 73 69 73 77 88 102 115 125 132 132 147 154 153 155 155 158 156 158 159 159 159 158 159 165 167 167 162 162 164 162 169 165 164 168 175 175 180 185 184 180 177 195 190 205 199 191 186 182 173 159 153 147 134 122 115 118 118 112 90 74 79 80 93 56 78 91 94 57 55 53 56 54 52 53 52 59 53 71 71 59 46 44 47 56 62 66 72 62 68 77 84 77 70 77 77 92 111 126 139 148 137 145 154 157 155 159 157 159 162 161 163 165 165 164 167 170 172 175 169 166 166 172 175 177 172 175 181 183 192 198 194 198 199 208 202 207 204 206 194 191 185 186 172 164 150 141 128 125 125 119 103 83 91 86 98 58 66 91 76 55 52 54 56 57 54 50 55 53 60 50 50 36 36 47 53 57 56 68 69 74 90 92 84 78 87 75 89 111 133 142 148 153 138 152 160 156 157 156 163 163 166 170 172 175 180 177 190 185 186 182 174 180 176 182 186 185 186 186 190 191 195 197 199 203 209 212 215 216 213 209 204 198 198 187 187 179 168 162 149 130 124 128 111 95 98 96 115 65 79 104 70 61 48 53 60 53 55 56 55 53 41 32 33 37 38 48 55 58 58 75 73 81 83 82 91 85 84 93 114 133 147 148 153 154 146 156 156 157 157 163 165 169 174 181 183 184 188 195 198 202 203 192 191 192 190 191 193 195 193 195 198 198 195 203 202 208 216 215 219 218 218 214 211 200 200 197 196 192 181 176 174 160 134 122 127 105 91 93 108 67 74 97 63 76 60 53 57 57 53 54 57 52 30 29 35 39 37 42 54 53 60 70 71 80 90 94 81 81 108 121 140 149 152 151 159 156 153 163 164 164 167 174 172 177 186 185 185 189 199 196 205 210 210 208 206 200 205 201 204 201 200 197 198 200 198 198 206 206 212 215 215 218 217 210 210 208 206 196 201 193 183 180 178 172 169 141 123 127 103 76 88 67 85 88 65 74 84 50 51 57 55 54 56 56 28 28 36 35 43 50 52 55 57 54 68 80 87 84 98 118 129 150 152 158 159 160 168 159 164 172 172 171 173 178 176 180 182 186 189 190 196 197 201 206 213 212 212 208 208 207 205 205 201 199 201 199 202 197 203 201 206 208 209 211 206 213 205 206 204 198 192 201 179 177 177 175 172 169 149 126 121 81 83 68 88 99 55 64 90 56 54 55 58 54 52 58 38 40 48 56 65 70 66 86 82 82 83 100 113 121 137 141 156 157 164 167 169 171 164 164 173 177 177 174 174 179 178 179 182 185 186 187 192 198 198 208 205 205 212 209 209 209 202 204 201 198 200 201 199 201 199 199 198 201 201 198 206 207 200 195 195 197 194 195 181 180 179 180 173 169 172 146 128 111 74 68 85 88 60 50 76 61 53 57 55 52 53 57 55 54 71 77 78 79 97 100 99 111 123 127 131 140 155 155 168 168 171 168 170 172 165 170 173 176 174 173 179 180 182 181 181 184 187 187 189 195 194 195 200 200 205 208 206 203 203 204 203 200 201 198 196 199 196 199 192 198 196 201 196 200 194 195 194 189 187 191 183 177 178 178 176 170 170 166 150 124 91 77 74 86 65 60 64 57 52 57 55 54 55 55 54 61 69 72 81 92 99 110 114 127 121 131 140 149 161 164 169 169 174 168 169 172 172 172 175 175 176 174 179 182 181 177 184 179 183 189 189 192 195 195 195 200 202 203 201 198 201 201 199 200 200 198 197 193 195 191 190 193 194 196 198 197 193 192 193 189 186 189 187 183 179 176 178 177 170 169 165 145 125 109 72 96 73 56 58 53 53 62 63 52 56 49 49 59 62 74 74 97 96 107 115 120 128 138 147 153 159 166 167 169 174 170 174 171 173 173 174 174 175 176 176 180 179 182 182 185 184 189 187 189 192 193 198 197 199 199 198 193 200 198 200 197 196 199 195 192 194 190 191 192 188 194 193 193 192 188 191 187 188 184 186 185 183 180 177 179 172 172 163 157 148 136 98 94 88 70 78 62 59 61 52 54 52 53 54 53 56 66 70 89 100 111 111 129 143 149 150 150 155 159 162 168 170 173 173 172 173 171 176 173 178 177 180 182 180 184 184 185 184 190 189 192 197 193 193 195 196 198 199 196 199 200 199 198 194 193 191 189 190 188 191 191 191 189 191 190 194 190 191 186 189 186 184 183 187 184 178 180 176 173 169 160 152 156 121 86 90 71 76 67 48 55 53 54 53 57 45 52 53 64 77 92 96 111 123 128 144 154 146 148 157 159 160 163 170 173 173 173 174 174 178 174 181 178 181 178 176 180 185 185 184 188 191 190 196 194 197 195 197 200 199 199 197 199 197 195 193 190 194 195 192 190 192 192 192 190 189 192 188 192 186 181 188 187 185 185 180 184 180 178 174 175 167 163 155 157 155 94 94 59 70 64 48 54 50 55 56 50 46 56 64 68 81 90 100 108 114 127 139 137 145 144 152 158 162 165 169 169 172 175 174 177 177 176 181 181 181 178 182 183 183 185 186 187 192 190 198 196 196 201 197 195 200 199 201 198 198 195 199 194 197 196 198 194 194 194 194 194 195 198 196 196 196 189 191 187 188 187 184 180 179 177 180 179 166 167 157 154 162 126 95 81 62 61 54 51 54 55 55 55 46 50 56 65 69 87 98 102 113 132 132 141 140 145 149 155 160 165 167 170 171 175 174 178 178 181 178 177 179 182 181 186 187 187 190 189 192 187 194 197 198 198 201 199 199 199 199 199 203 200 197 199 199 199 199 198 197 198 194 195 195 197 193 191 192 189 191 187 188 186 181 185 178 176 175 179 173 169 163 155 156 141 103 93 90 57 54 52 53 54 55 53 41 47 52 62 72 84 85 106 119 130 135 136 139 149 152 155 158 162 167 170 172 174 177 181 179 182 184 182 180 181 182 186 188 187 190 189 192 192 195 197 198 199 200 201 198 200 201 205 202 200 199 199 196 198 198 196 194 196 197 197 194 195 194 189 190 188 190 188 190 187 183 184 183 179 175 175 173 169 167 159 158 159 113 93 93 67 49 56 52 57 49 54 45 43 57 61 65 79 97 111 120 128 129 143 142 147 149 155 153 159 167 166 174 176 176 180 178 181 184 181 186 179 180 189 192 188 192 191 189 191 194 202 202 200 200 203 202 202 204 204 201 202 200 197 196 198 197 192 194 195 196 195 194 194 195 188 188 191 188 189 187 187 186 183 182 182 178 175 171 171 168 164 159 161 133 98 100 68 53 58 51 55 49 55 41 52 54 60 79 91 102 116 118 121 128 142 138 143 154 145 153 156 160 169 171 179 177 183 179 183 183 184 187 188 184 189 191 189 191 190 193 190 196 200 200 200 199 200 201 203 204 201 200 199 199 198 197 199 199 193 194 195 193 196 194 194 190 189 189 192 189 187 185 187 187 183 180 183 181 178 172 175 170 167 165 159 151 99 105 85 52 57 52 53 52 52 38 47 55 66 82 95 112 105 111 116 118 133 134 142 145 153 151 155 160 167 174 177 174 179 182 184 180 187 186 190 191 189 190 193 192 189 192 196 195 201 200 197 204 200 203 202 202 198 202 200 195 198 197 200 196 195 194 193 193 195 191 195 193 190 191 189 191 186 181 187 188 185 178 182 182 178 175 174 173 166 168 158 157 123 89 95 62 57 52 50 57 49 46 49 57 76 86 83 93 93 96 111 120 131 130 138 148 147 151 159 157 163 174 176 173 178 182 182 186 185 187 187 192 187 189 193 188 188 194 196 191 200 202 199 199 204 201 201 202 202 201 198 200 197 199 196 192 195 191 194 194 193 193 193 192 191 191 194 193 191 186 186 187 185 182 182 179 183 174 175 172 172 166 169 160 135 104 92 70 61 54 53 50 53 55 48 63 69 61 67 78 84 110 121 112 121 124 136 145 147 154 157 160 166 171 176 176 174 181 184 187 185 185 187 191 188 188 193 189 191 190 190 196 196 202 199 202 203 204 200 202 202 202 198 197 197 197 192 194 195 187 189 197 194 195 196 192 195 191 191 191 193 187 185 185 185 180 181 177 181 174 175 172 170 169 163 163 146 106 105 78 53 53 54 48 55 43 47 53 50 52 55 84 98 99 96 95 112 119 132 145 146 150 160 161 164 173 174 178 178 183 182 188 185 186 189 189 190 192 190 190 192 195 194 195 198 200 198 202 203 200 202 200 203 202 197 196 197 195 194 192 194 190 187 193 193 196 192 192 191 191 194 190 190 189 187 184 188 182 181 182 181 177 177 172 172 169 166 164 156 118 98 84 52 56 51 50 48 36 41 39 46 49 71 77 78 73 88 98 117 130 139 144 153 152 159 164 168 171 174 175 178 179 182 181 185 187 185 188 189 193 192 193 196 195 198 194 199 201 200 203 204 203 204 201 204 200 201 194 195 193 193 192 190 197 197 194 192 191 190 189 191 192 194 190 190 188 186 184 185 183 183 185 186 179 178 177 176 172 169 166 154 136 88 103 50 50 53 51 52 33 38 42 44 53 60 57 70 86 106 118 122 128 139 141 150 153 159 166 167 171 175 175 176 179 179 179 185 183 181 185 190 192 192 196 199 195 199 197 200 202 200 203 205 203 205 203 201 200 198 197 195 194 194 192 190 199 199 192 193 191 188 191 192 195 189 190 190 187 187 184 189 184 185 182 185 179 182 179 176 175 169 166 155 138 96 101 64 48 53 49 53 34 40 42 51 52 54 74 84 98 109 109 114 119 128 140 146 154 159 169 168 166 174 174 176 178 180 182 184 185 187 185 192 190 194 196 199 194 196 201 198 202 201 203 201 206 204 203 202 202 199 199 195 198 194 190 192 190 191 190 191 190 192 189 187 192 193 188 188 188 183 187 186 187 180 185 183 181 181 181 180 176 171 170 155 150 101 101 81 44 55 51 52 41 34 44 41 46 61 80 92 87 94 101 118 115 125 139 149 158 166 165 169 169 172 173 175 179 181 181 184 185 186 190 194 192 192 196 198 198 196 202 199 201 202 202 202 203 207 201 203 202 201 198 196 198 193 195 190 193 189 189 190 193 188 186 189 189 191 189 187 189 187 186 187 188 181 187 186 183 183 184 181 180 172 170 157 157 101 96 76 51 50 51 51 34 34 35 41 51 61 72 76 80 90 106 111 123 132 141 155 159 164 166 165 165 172 172 175 177 179 181 184 183 185 189 192 193 196 192 198 199 201 202 201 204 203 203 204 206 204 204 202 203 202 198 199 198 195 195 192 193 191 188 189 191 188 191 186 189 189 188 189 188 188 185 187 186 186 186 186 183 186 184 182 180 174 172 162 160 106 104 83 53 50 50 57 33 31 37 38 47 60 57 69 78 98 103 114 124 135 142 153 165 163 167 165 168 162 174 172 178 179 183 181 183 189 189 190 196 196 199 197 201 199 200 204 207 202 206 204 202 208 205 206 203 199 199 199 198 195 195 196 195 194 190 194 191 191 190 188 191 189 193 192 189 186 188 184 186 182 185 185 185 181 185 186 183 176 178 168 163 121 101 97 53 50 54 55 32 33 35 37 43 45 53 64 84 100 99 111 117 135 150 158 166 156 166 167 165 165 171 170 178 182 178 180 182 188 189 194 193 197 199 193 201 202 199 202 205 203 206 203 206 205 206 210 201 200 197 199 198 198 197 196 195 188 191 193 191 189 192 189 192 186 186 189 189 185 187 185 185 185 179 182 182 183 181 183 182 181 179 173 169 128 93 85 54 53 51 52 27 36 35 40 46 51 61 70 76 86 92 112 126 136 150 159 163 156 164 168 164 167 170 172 173 179 182 180 183 187 188 192 192 197 197 197 203 202 202 200 202 200 205 206 205 204 209 207 200 204 197 198 196 194 194 193 194 193 191 194 190 191 190 189 191 188 186 189 189 187 189 185 185 182 180 182 179 178 182 176 182 183 178 175 174 138 104 64 55 53 50 58 34 36 35 46 41 53 60 70 70 78 99 123 128 143 152 161 161 156 159 164 163 166 172 170 170 178 179 184 184 184 186 190 189 195 199 200 201 202 200 201 201 201 201 203 201 198 203 200 194 199 197 192 193 192 189 193 193 192 193 192 189 186 191 188 187 188 187 186 190 185 191 186 184 183 181 176 177 174 179 174 175 178 173 171 173 164 98 58 53 58 54 56 35 34 39 44 45 56 64 64 71 84 111 133 142 149 150 159 157 159 160 158 161 164 172 170 174 180 178 185 177 169 173 188 190 194 194 198 201 201 199 195 194 192 194 196 190 189 185 186 185 189 190 187 190 189 191 191 192 191 191 190 183 186 189 186 189 191 192 186 181 183 187 183 178 179 173 166 164 167 168 172 166 168 158 160 156 174 116 50 50 53 55 53 35 35 38 44 41 63 58 60 71 101 119 138 142 146 152 153 157 156 160 159 157 163 165 169 174 177 177 179 172 154 174 186 181 188 195 183 190 190 184 179 171 171 171 164 172 166 167 173 176 181 182 183 185 182 188 190 189 187 189 187 185 187 188 186 191 192 191 190 185 185 178 176 164 159 151 146 142 146 149 155 154 156 158 156 150 160 143 53 45 52 52 54 37 35 37 43 50 43 55 61 78 109 126 137 140 141 151 152 153 155 156 158 157 161 166 171 175 173 176 169 165 158 167 177 178 171 178 173 160 159 152 148 149 148 142 148 139 152 151 161 164 167 172 171 173 177 183 188 189 187 188 185 190 187 189 191 195 194 194 189 185 186 165 161 148 137 137 130 136 139 135 135 143 145 149 153 143 144 164 93 41 53 48 52 37 30 34 43 42 38 45 73 92 115 133 140 141 139 152 147 154 145 154 152 153 161 166 168 173 170 165 159 163 163 170 171 171 162 179 160 141 136 136 132 130 134 146 154 144 143 151 148 154 161 169 168 166 164 178 185 188 185 191 190 189 177 182 187 195 192 193 188 181 176 164 146 141 138 128 126 132 134 126 128 134 146 150 150 149 138 138 128 52 51 50 49 38 26 38 34 33 42 51 87 109 120 136 137 140 143 149 147 152 145 147 153 152 164 165 160 161 162 164 167 159 165 167 159 153 150 149 141 121 113 114 102 112 113 118 118 140 138 130 143 147 145 152 151 162 158 166 176 184 185 190 191 184 179 182 186 192 192 194 187 171 168 154 144 143 146 147 140 146 154 163 153 150 155 163 150 146 141 135 132 68 52 53 50 34 29 35 30 38 40 62 104 115 126 133 135 139 145 148 146 145 145 141 152 156 157 153 148 149 153 153 150 154 161 160 149 137 139 142 147 144 138 142 132 120 122 125 122 128 131 131 135 140 132 138 140 143 150 156 173 180 187 191 186 179 180 178 180 182 193 184 177 164 163 157 158 161 167 168 172 178 178 179 180 174 175 181 172 163 156 139 128 79 49 56 47 32 33 35 31 36 46 75 105 123 128 131 136 140 142 146 146 143 145 141 148 149 144 143 141 138 139 141 153 154 154 171 165 165 160 157 155 151 145 164 156 154 149 147 138 142 141 141 139 142 136 140 140 144 143 155 162 179 190 192 192 186 179 178 172 179 180 176 167 169 171 181 176 178 176 172 173 174 182 180 188 189 188 189 179 168 161 154 124 63 50 49 50 32 29 33 30 42 48 84 111 124 127 131 136 142 145 142 145 145 142 141 143 143 143 132 140 144 142 147 155 158 162 166 170 173 171 165 166 159 157 159 159 155 153 149 146 146 145 141 142 142 141 143 142 149 150 157 169 180 192 199 200 197 186 184 176 172 166 170 169 178 186 176 168 160 157 155 155 150 157 163 177 182 183 187 188 172 161 158 118 61 47 52 56 27 35 29 31 41 61 94 122 122 129 131 138 144 143 139 146 134 140 137 136 137 136 131 141 144 147 149 155 156 159 164 165 166 168 162 161 157 155 154 145 145 136 137 138 140 140 136 136 136 139 141 142 152 157 160 168 182 188 201 204 198 192 191 183 172 159 163 171 175 159 136 120 100 96 93 89 85 77 104 107 110 144 171 178 174 167 159 108 50 46 47 48 32 33 27 34 42 71 101 117 124 132 133 142 144 144 141 145 137 137 140 131 139 144 136 143 146 139 146 158 153 157 155 159 156 155 146 135 118 99 100 92 99 105 102 102 122 125 131 128 127 129 137 143 152 156 168 164 176 184 194 200 202 201 204 196 183 154 159 162 140 122 146 88 65 123 72 78 107 60 104 152 124 76 88 134 164 166 159 92 46 46 48 52 34 27 31 33 47 81 108 120 130 135 138 140 146 141 145 142 137 142 139 136 133 136 144 146 141 145 146 152 149 147 139 119 87 92 69 70 64 59 95 116 93 86 104 115 104 108 124 130 127 132 129 140 147 151 159 160 167 182 185 194 206 205 206 205 196 170 153 151 133 156 194 110 68 154 152 12 96 83 87 188 181 153 77 66 130 154 158 72 48 50 50 56 37 30 31 33 54 87 108 123 130 138 143 142 143 141 145 141 139 143 142 140 137 148 141 146 144 145 144 134 116 97 74 71 26 181 117 77 75 55 132 161 146 126 98 99 119 122 110 132 142 153 141 136 149 152 153 159 167 175 184 183 197 208 204 208 205 192 132 124 180 187 212 106 92 104 106 20 114 76 105 188 193 162 129 71 93 137 161 77 45 50 51 55 37 32 32 44 63 92 113 129 135 140 146 146 143 146 145 147 142 144 143 144 137 144 144 143 143 132 107 99 78 82 52 57 61 40 109 52 91 60 158 178 162 147 130 107 122 115 136 138 153 181 151 140 146 155 151 159 169 174 180 181 189 207 203 200 212 196 168 95 134 185 207 164 91 109 115 37 191 127 163 197 191 147 127 115 104 128 162 78 48 52 49 53 33 33 33 50 70 99 120 130 138 143 150 146 146 148 145 150 144 148 149 145 143 138 142 134 118 100 86 81 89 126 94 78 97 75 77 88 88 98 170 182 169 142 148 133 132 117 118 150 157 183 152 139 145 152 158 160 166 166 168 175 178 199 210 193 207 210 191 146 101 137 156 171 144 104 100 82 126 196 190 186 163 136 136 119 129 140 168 88 44 53 51 54 35 37 31 61 70 105 125 134 140 146 147 149 150 150 147 151 151 152 151 149 145 139 131 118 105 102 103 107 123 156 157 106 85 102 95 87 102 149 182 176 166 136 131 129 126 124 119 142 164 163 143 141 147 159 159 167 165 171 164 176 169 187 206 202 194 213 193 184 126 123 142 142 144 140 136 126 136 155 149 140 135 137 134 111 130 152 171 95 43 53 53 47 42 39 43 71 82 108 128 138 141 147 145 150 151 156 156 156 154 154 155 152 145 138 117 115 111 115 123 134 139 153 162 164 128 144 128 130 145 165 160 152 141 137 125 127 131 134 131 144 155 146 139 144 154 162 169 168 170 165 171 167 170 182 193 210 196 206 202 191 157 118 135 137 141 144 146 137 143 143 140 135 140 154 135 128 136 158 175 118 38 47 47 52 52 50 56 87 105 114 134 139 143 151 146 148 152 160 158 162 160 159 155 156 150 134 118 124 130 135 126 146 134 153 147 143 151 171 157 162 133 148 141 142 137 133 128 131 136 140 140 143 146 148 146 153 162 168 170 167 171 173 168 166 176 178 190 207 201 197 205 188 180 123 117 131 139 146 150 156 171 174 170 165 162 160 149 147 155 160 173 136 47 46 47 52 67 71 74 103 123 121 133 140 146 148 146 153 155 161 159 164 165 163 164 166 156 138 138 143 146 146 141 151 145 157 150 151 165 159 168 172 161 145 153 144 138 135 143 139 141 140 146 148 151 149 159 165 162 167 169 169 174 177 171 164 172 172 175 202 202 188 193 193 187 149 118 128 132 137 145 156 168 177 183 177 169 162 159 160 161 166 172 160 53 44 50 58 84 86 106 118 127 117 135 140 148 150 147 154 155 163 162 168 175 168 168 172 165 152 153 152 155 156 153 154 155 154 162 169 168 163 171 156 164 148 153 150 153 148 145 146 140 147 149 157 160 166 167 174 175 164 171 168 171 177 175 170 174 165 175 192 203 190 194 186 182 173 120 134 142 138 144 147 156 162 167 171 164 166 165 166 162 165 170 170 72 41 50 54 102 106 115 120 126 128 130 141 144 150 147 152 162 165 164 169 173 172 172 174 167 162 158 158 159 160 160 164 163 160 162 164 162 159 164 167 162 166 166 164 164 154 150 153 152 160 163 170 169 175 171 174 174 168 174 170 172 176 172 174 170 168 172 185 200 199 191 194 181 177 148 130 144 148 152 154 156 156 160 166 164 174 167 169 164 164 166 179 81 44 51 51 111 111 116 120 125 131 132 140 143 150 148 153 160 165 168 172 174 171 177 174 170 165 167 164 166 166 168 172 171 172 172 173 173 176 179 183 176 181 180 171 171 163 163 166 167 171 176 180 174 178 173 174 177 173 172 176 173 176 171 175 174 170 174 181 191 200 195 195 194 182 167 146 143 147 158 162 162 159 161 164 164 169 172 168 166 167 162 179 102 42 52 46 114 112 113 121 125 134 132 141 138 147 149 152 158 163 167 171 177 172 178 176 171 168 173 166 171 169 172 177 176 181 183 184 184 187 190 188 189 183 180 176 178 174 180 182 182 182 184 182 177 176 175 174 177 176 175 178 176 176 176 172 171 175 172 182 191 197 193 195 193 189 172 159 157 149 153 165 169 166 163 169 167 169 173 170 169 166 168 178 111 45 44 51 113 107 113 124 126 134 132 137 139 143 148 148 154 162 165 170 176 175 174 180 173 175 171 168 170 173 176 180 180 188 187 186 190 192 192 192 191 183 183 177 186 185 189 190 185 187 188 180 181 177 171 174 169 170 174 175 175 176 178 174 173 174 178 180 188 196 194 194 190 189 175 169 162 163 159 160 170 171 173 170 174 172 173 172 169 167 166 176 127 39 45 53 113 109 112 124 125 130 137 136 139 141 142 145 155 158 162 166 175 176 179 181 180 176 173 176 173 177 175 187 186 190 190 190 193 193 186 189 186 185 191 189 192 193 190 192 192 186 189 185 186 178 174 173 173 177 176 174 172 173 175 176 176 178 177 175 183 190 199 197 192 192 181 172 168 169 170 168 168 168 172 172 169 174 172 171 171 167 167 176 138 51 48 51 112 107 114 123 126 135 132 137 135 142 139 145 148 153 159 169 172 172 178 179 180 179 175 177 177 181 179 181 185 189 191 191 200 192 197 186 190 192 193 193 192 187 191 194 190 187 185 182 182 177 176 177 171 175 175 171 173 176 170 176 174 175 175 173 183 194 205 203 200 196 191 178 168 172 175 175 183 173 175 170 174 169 175 170 167 169 169 175 147 47 47 53 108 109 114 120 122 132 129 133 136 138 137 141 146 153 159 164 169 176 174 174 178 175 178 181 183 181 182 182 188 189 194 194 199 196 191 190 188 190 194 188 192 186 189 192 193 185 186 182 183 177 178 178 170 171 169 168 171 169 168 171 174 174 175 159 184 188 206 203 202 200 193 178 173 176 177 183 180 180 174 177 175 179 176 174 170 166 166 172 159 55 42 51 106 110 111 118 122 132 127 131 134 139 133 140 141 154 158 159 173 171 169 170 173 178 174 168 178 181 179 187 185 193 195 196 193 194 186 189 192 195 187 192 192 195 188 189 194 191 187 184 187 179 177 169 161 154 159 159 164 167 165 167 170 178 182 177 185 194 207 204 201 201 194 179 170 178 175 181 179 185 177 179 181 180 178 173 173 171 165 174 161 57 49 52 106 111 112 117 123 128 129 130 134 134 134 140 140 153 156 151 170 163 168 167 170 177 175 169 176 175 182 185 184 190 189 194 195 193 190 195 192 194 192 192 195 192 190 191 195 190 188 189 182 179 171 152 152 149 158 159 158 162 164 167 171 177 183 181 187 200 207 207 203 203 196 188 170 176 179 179 180 184 179 181 182 182 177 174 173 171 169 173 164 56 42 50 108 108 112 117 120 128 128 130 132 133 135 139 142 149 151 148 160 165 168 168 169 173 172 170 177 173 177 185 185 182 190 192 191 196 193 197 197 190 195 197 194 190 190 193 191 190 188 188 184 169 161 144 147 149 160 157 156 163 172 173 173 181 180 178 187 202 208 205 199 201 195 192 178 165 182 182 177 185 180 183 184 184 175 176 174 173 167 174 152 57 42 49 108 107 112 112 122 127 129 130 130 135 128 137 143 149 148 150 157 158 168 167 171 174 174 170 174 176 176 181 181 181 183 188 190 192 195 197 198 193 192 193 195 193 194 193 191 192 188 187 183 161 149 144 151 155 160 159 156 164 172 175 171 177 175 177 186 196 201 199 193 195 192 191 187 169 175 184 185 178 185 182 184 181 179 176 172 169 164 172 155 54 45 45 110 108 110 113 121 125 131 129 131 131 129 137 139 145 147 146 156 161 166 166 167 173 173 168 174 173 177 172 171 183 183 187 185 194 198 195 197 197 196 192 192 192 194 194 189 189 185 178 174 159 143 148 160 162 159 161 155 158 170 173 169 174 174 176 182 192 206 198 193 194 194 192 188 175 163 185 185 184 181 185 184 184 178 178 173 166 166 173 136 53 46 48 109 108 109 113 121 124 128 126 128 129 130 136 137 141 148 146 158 165 165 168 166 166 166 166 172 174 170 182 176 180 186 187 191 194 197 196 192 193 190 193 193 192 193 193 187 183 182 180 162 148 143 150 156 160 155 163 159 157 160 163 162 159 164 165 170 181 216 202 188 193 189 192 183 170 159 175 189 184 176 184 182 187 180 181 174 163 166 179 129 47 48 42 111 109 111 109 120 126 124 129 126 130 125 132 137 137 145 145 151 163 167 168 165 170 169 165 170 173 172 180 182 181 185 192 193 188 193 191 188 187 189 191 190 195 190 189 184 182 177 172 153 140 147 149 150 156 158 160 165 162 159 156 149 150 148 146 149 165 178 192 185 190 203 192 175 162 164 163 188 191 186 184 178 183 184 181 177 170 170 180 108 51 48 49 113 106 112 111 115 121 128 127 128 130 123 132 132 137 142 146 148 154 164 166 162 165 172 170 175 178 176 183 178 184 181 187 192 188 192 193 180 182 189 187 190 188 190 184 180 180 179 175 154 136 140 143 145 147 156 162 168 174 172 165 156 144 144 138 142 149 168 178 181 200 222 187 157 162 166 160 176 190 189 187 185 182 183 183 174 172 165 178 97 45 53 50 111 108 109 113 113 117 128 127 127 129 126 130 131 134 140 144 152 153 156 168 162 166 168 173 176 178 177 182 182 183 179 182 188 187 189 193 180 184 190 185 188 189 186 179 175 179 178 169 156 129 130 136 136 146 157 169 174 158 134 120 116 113 124 139 142 146 156 176 179 191 195 148 134 159 164 153 169 186 187 187 188 184 184 183 177 172 168 174 83 46 52 54 113 106 110 112 115 119 125 127 125 127 131 131 131 135 143 143 149 157 151 164 162 166 166 174 177 176 177 178 185 188 182 186 186 187 190 187 184 187 188 189 185 188 182 174 174 178 175 166 158 133 118 130 134 144 164 179 135 104 103 118 113 108 95 98 140 150 153 167 171 175 157 106 125 154 154 151 168 189 191 189 189 189 189 185 183 173 169 165 68 42 50 52 111 107 107 110 114 117 123 129 125 127 129 126 137 134 142 142 147 156 159 157 166 165 163 167 175 173 172 179 185 184 183 183 183 185 182 184 182 186 185 186 181 183 179 172 174 177 181 180 180 162 127 114 125 145 162 141 117 125 141 152 153 141 136 114 124 151 159 162 162 158 136 126 144 157 161 153 174 187 193 190 188 187 187 187 181 174 175 153 59 45 53 49 116 102 105 109 110 114 120 128 125 131 127 129 132 136 139 142 142 157 157 155 160 164 163 167 173 177 172 177 183 183 183 178 190 183 182 184 187 184 187 179 183 178 174 173 179 179 185 187 192 185 157 134 117 111 119 122 129 137 150 151 154 148 140 141 139 151 159 160 150 131 114 139 148 161 172 175 184 192 194 191 188 186 184 186 179 174 182 137 53 43 51 53 120 107 102 106 110 114 119 125 124 124 127 127 132 133 138 142 137 152 157 160 158 163 162 165 169 175 181 181 179 182 184 183 184 180 186 187 180 183 188 185 184 180 178 179 184 189 195 196 195 193 170 158 153 159 150 152 153 156 154 160 165 160 159 162 164 164 157 152 140 120 114 148 156 172 186 188 191 196 194 193 189 188 184 186 179 174 185 122 50 47 52 50 141 103 102 106 107 112 116 118 125 125 126 127 130 135 134 140 143 149 151 159 160 163 161 167 170 172 177 180 181 180 180 181 180 181 183 190 185 184 185 188 187 184 183 187 190 194 194 195 193 195 176 161 161 161 158 164 159 164 164 168 170 165 175 178 184 180 173 155 145 131 126 156 168 180 189 195 195 199 196 188 191 191 188 187 181 177 185 108 41 50 54 49 170 105 100 103 106 110 111 119 122 124 124 132 126 133 136 139 145 147 154 155 158 166 163 167 170 172 173 181 176 181 176 181 180 183 183 190 188 184 189 186 187 187 190 192 197 196 190 194 193 191 181 170 164 163 163 165 165 166 171 174 171 175 177 185 184 185 183 163 157 147 141 164 177 182 190 193 197 198 197 182 187 192 189 184 181 176 186 95 45 48 52 52 181 121 97 99 103 105 108 114 117 127 118 131 125 132 136 144 147 149 151 150 157 164 166 167 170 174 174 178 177 181 181 180 185 186 183 187 189 187 188 186 187 191 194 197 198 195 196 189 189 188 183 177 167 160 168 164 165 168 175 173 175 176 178 184 180 183 176 165 159 152 150 168 179 181 184 189 194 197 196 190 190 188 190 182 181 175 184 84 44 49 52 52 166 141 93 97 100 105 107 112 115 124 118 126 127 129 138 142 145 148 150 150 159 163 162 169 170 168 176 168 177 178 177 179 184 184 183 182 183 186 188 188 191 195 195 198 195 198 191 189 192 183 185 183 173 164 171 161 163 171 179 173 174 179 182 184 180 185 176 165 162 154 164 170 177 176 178 185 191 193 194 193 192 188 189 185 183 175 178 70 41 50 52 51 141 141 98 87 99 101 109 109 116 117 124 124 127 129 131 140 147 146 149 151 158 163 165 165 169 168 170 175 176 180 171 181 180 184 183 181 180 185 186 187 193 193 198 197 192 192 185 184 187 183 183 180 182 175 177 174 166 173 179 172 177 179 186 184 182 182 178 170 165 155 177 177 171 172 173 180 189 192 189 192 193 188 187 188 179 172 172 66 34 50 54 43 79 97 99 81 90 100 103 109 111 111 126 124 127 129 130 137 138 146 148 148 156 160 163 166 168 166 173 173 177 177 178 181 178 178 184 183 182 187 191 192 192 190 194 183 184 190 185 183 185 185 182 183 186 185 185 180 178 180 179 171 178 172 178 177 181 178 179 174 175 169 177 179 173 167 171 172 185 187 187 183 190 189 190 187 178 181 159 54 39 51 53 47 60 57 85 79 87 94 99 103 107 112 118 123 131 128 129 132 137 142 146 149 153 158 162 160 167 166 171 172 175 176 178 176 177 177 180 186 180 186 187 192 187 182 190 181 181 188 175 183 185 184 188 187 186 192 187 188 180 183 176 174 172 169 167 164 168 169 173 172 178 181 181 186 181 171 177 168 179 183 187 184 183 187 190 186 175 182 144 53 43 52 50 55 56 76 74 75 79 89 98 99 104 107 115 122 127 129 126 132 132 135 147 140 152 155 162 163 167 170 170 173 178 173 174 177 177 180 178 183 187 181 187 188 184 183 186 185 185 182 165 178 187 187 189 188 189 193 192 185 180 183 180 175 169 164 157 156 160 162 170 170 179 186 179 180 181 177 179 170 186 180 190 183 182 184 189 185 174 184 123 39 47 51 51 49 39 91 93 71 70 86 95 96 101 108 113 119 123 129 125 126 137 134 142 139 145 153 159 158 161 164 173 171 172 171 172 172 177 178 179 177 182 183 184 182 178 180 187 182 183 184 175 180 181 188 185 185 189 192 193 186 177 173 168 172 178 171 161 158 159 167 173 176 178 182 184 183 181 181 181 178 184 185 187 187 177 184 188 186 175 180 102 39 48 47 53 49 22 79 105 90 65 73 91 93 96 103 107 120 120 123 128 126 137 133 139 140 140 150 156 158 160 160 169 167 169 171 173 177 175 180 180 179 175 182 181 181 170 176 183 182 182 181 181 180 176 177 180 180 184 187 182 169 155 150 143 144 155 153 158 160 164 161 163 165 169 174 174 185 185 183 181 183 185 187 187 189 174 179 185 183 178 173 81 34 52 46 52 46 15 58 98 111 77 61 85 90 94 98 107 115 118 116 126 125 127 133 140 140 143 140 153 156 158 159 163 166 168 170 170 174 175 179 182 176 175 179 179 181 170 174 181 180 178 178 174 174 174 168 170 169 165 163 154 146 143 139 139 141 137 136 128 144 147 151 154 156 163 160 162 174 183 181 185 183 186 188 190 187 181 174 182 181 179 162 66 35 46 46 54 44 25 31 87 107 106 61 70 84 91 95 102 111 119 114 120 123 123 133 136 139 140 144 148 150 157 157 164 161 164 166 171 171 172 179 179 176 174 174 177 175 175 171 180 174 171 167 166 163 161 155 149 138 136 129 128 124 125 123 125 133 130 127 124 130 128 143 143 144 143 143 141 145 153 176 187 186 187 189 191 185 184 171 182 179 183 146 50 45 42 47 50 52 26 21 72 103 114 85 64 74 84 91 93 109 113 118 118 124 117 134 133 132 143 142 144 149 152 158 161 158 161 161 166 176 172 171 179 175 178 172 171 174 172 174 174 166 158 151 145 143 139 128 119 106 96 95 90 93 87 90 97 107 107 107 97 103 110 110 106 100 108 113 119 121 128 133 162 177 183 187 193 189 181 175 178 178 184 119 43 44 49 43 49 52 27 20 53 102 111 111 67 70 81 83 96 99 105 113 120 118 123 128 134 132 136 146 144 149 155 157 157 160 163 157 162 166 172 167 176 172 175 171 170 177 180 179 174 156 139 130 119 117 108 96 90 86 91 92 97 101 107 115 117 112 110 105 102 96 104 101 95 91 90 93 98 102 105 116 129 151 162 172 187 191 184 178 178 176 179 94 36 41 54 45 43 51 28 21 36 94 108 116 89 62 72 78 91 93 106 109 115 114 122 126 126 131 135 138 141 145 151 154 150 161 160 164 163 167 170 171 172 173 171 167 168 176 180 182 166 135 113 107 102 107 95 104 101 108 113 118 131 141 153 160 159 145 137 133 128 130 128 130 116 110 113 113 110 112 107 107 109 125 138 171 185 189 181 179 178 179 168 69 37 47 49 41 47 44 27 27 26 82 102 115 112 70 64 73 84 90 104 106 111 116 121 117 125 128 133 124 140 143 149 148 151 160 158 161 162 164 170 168 172 172 172 168 170 170 179 181 160 135 124 126 124 126 127 133 129 134 136 137 146 150 159 163 164 155 148 145 142 143 137 143 137 130 136 144 138 143 136 134 132 137 146 170 187 186 179 178 174 180 143 52 37 48 47 44 48 49 32 26 20 71 105 113 116 99 61 70 76 89 97 105 107 109 116 117 124 127 132 131 134 143 149 147 146 160 158 159 161 164 167 162 171 173 168 170 170 168 174 175 167 164 156 153 150 149 155 149 143 140 147 138 143 153 160 171 172 162 163 154 157 152 148 150 151 147 150 150 150 150 151 148 153 165 160 175 187 183 176 180 177 176 108 50 38 46 47 43 45 51 33 31 17 59 98 110 118 115 82 58 72 79 87 96 107 106 111 117 118 120 130 129 135 141 145 143 144 154 157 157 161 163 169 160 168 167 162 170 169 166 170 179 172 179 173 170 167 161 156 151 143 141 146 148 141 147 156 165 169 171 163 167 162 160 157 155 154 154 152 156 154 158 159 161 170 180 177 182 185 184 178 181 176 167 73 40 45 51 44 47 43 48 34 29 24 52 88 113 115 118 105 67 69 67 86 88 97 103 105 116 115 118 124 129 134 138 144 145 145 151 154 155 156 160 163 161 166 166 164 169 166 168 168 174 179 176 178 174 165 164 157 156 145 141 139 139 140 144 149 153 160 162 162 156 165 162 162 163 158 160 163 167 167 166 165 172 178 184 185 185 184 184 181 179 177 134 53 41 50 46 41 42 46 46 34 33 23 34 92 105 122 116 112 93 61 69 73 84 90 100 101 107 112 117 115 127 128 136 135 142 142 147 148 155 151 155 158 160 160 164 163 169 164 167 168 175 177 181 173 175 168 163 160 158 153 145 145 144 144 150 156 158 160 163 158 153 156 160 161 159 157 165 166 169 169 169 174 180 183 186 186 182 181 182 178 180 173 90 44 44 50 42 49 42 45 46 31 29 25 32 85 104 113 118 115 107 81 61 63 75 83 88 100 94 102 113 113 122 126 131 133 137 141 143 144 152 149 151 157 155 159 164 162 166 167 163 166 172 171 174 173 174 171 165 163 158 157 151 148 150 150 153 163 168 176 172 167 159 156 164 166 167 163 168 172 174 178 176 183 187 185 188 187 183 178 176 177 180 143 59 42 41 50 44 46 44 45 43 30 34 24 28 75 105 106 121 115 110 100 75 63 67 70 83 93 91 87 105 116 116 117 125 133 133 138 135 142 146 145 147 148 153 156 161 160 167 166 157 158 166 165 168 170 167 174 168 167 163 159 158 155 153 153 154 163 170 176 176 173 162 163 165 171 172 173 176 180 183 184 186 188 190 187 186 184 180 173 179 168 172 102 45 44 45 50 42 48 44 46 43 33 30 30 30 68 95 110 115 116 114 108 94 68 62 71 70 87 86 93 93 105 110 120 117 126 131 129 134 138 140 144 145 143 151 154 159 157 163 163 157 156 159 156 162 163 165 169 170 168 169 161 166 163 159 162 159 165 171 176 175 176 163 169 172 174 179 182 183 186 188 189 191 192 187 186 183 181 173 171 171 170 139 60 39 54 46 49 48 47 45 49 43 34 26 31 30 57 92 106 115 116 114 112 103 89 68 65 64 75 84 84 91 98 106 111 116 119 122 128 131 134 132 142 142 146 149 154 154 151 157 155 151 153 158 152 157 157 155 162 164 169 167 164 168 165 167 168 169 171 171 173 176 182 170 171 177 178 185 185 187 189 190 195 192 192 191 185 183 177 175 166 168 163 91 38 44 48 49 43 52 46 52 46 44 34 26 31 35 57 93 103 112 118 119 112 110 97 86 65 60 73 71 77 88 90 96 105 115 118 117 122 124 130 134 132 143 139 148 148 152 151 150 145 145 152 155 152 157 156 158 162 161 164 166 163 167 166 165 173 174 174 170 174 179 177 172 173 173 175 184 187 189 189 189 192 190 191 188 182 179 174 171 168 168 126 57 31 45 48 42 45 46 47 44 48 47 33 31 27 38 56 93 100 108 115 119 116 111 103 96 84 61 71 70 70 78 82 95 97 106 113 116 119 124 127 127 131 139 138 139 144 148 151 143 139 143 150 155 153 158 159 159 163 159 161 161 164 161 162 167 166 170 169 172 175 174 170 168 170 175 174 185 186 190 189 187 189 191 188 186 179 175 177 171 164 152 84 31 40 44 44 43 48 43 43 47 42 40 32 30 24 36 56 85 105 104 115 117 117 112 111 104 93 79 66 69 70 72 75 82 93 100 103 112 114 118 124 126 126 132 134 131 137 144 149 143 138 143 145 154 152 159 155 156 161 160 160 164 162 165 161 163 162 162 165 167 170 175 168 168 175 175 183 180 187 187 189 188 185 191 189 180 184 170 174 165 160 112 50 32 42 41 43 41 48 41 46 42 44 49 31 30 27 30 54 83 100 108 112 111 119 115 111 111 100 91 77 66 75 72 68 75 82 90 99 103 109 111 117 122 125 126 128 126 132 132 139 138 139 141 142 148 149 158 154 157 160 158 162 163 163 163 165 158 164 159 165 168 168 168 167 166 173 173 181 179 185 179 184 182 186 186 187 177 174 170 161 162 138 66 34 43 38 42 39 43 44 45 41 43 47 44 32 30 26 33 45 83 101 106 109 114 117 114 115 113 106 99 84 75 76 75 72 67 76 78 89 97 103 105 109 115 114 123 124 120 129 128 132 134 138 138 140 141 147 149 151 152 158 153 163 162 164 167 168 161 160 161 164 168 166 169 165 165 171 169 175 176 177 172 178 173 179 183 181 176 172 165 165 154 87 40 37 36 38 39 39 43 45 43 45 39 49 44 29 33 26 28 41 80 96 103 112 111 113 119 115 111 109 104 91 82 79 78 79 76 72 71 79 86 92 98 101 109 110 115 118 125 125 125 130 133 135 133 139 138 146 142 145 148 151 151 163 155 161 162 167 166 169 162 161 166 162 168 163 170 172 174 167 171 166 169 168 174 172 173 175 174 167 166 165 114 49 36 36 40 41 41 43 44 45 42 44 41 41 47 31 31 32 25 29 83 92 100 110 111 109 115 117 114 111 109 96 89 82 83 75 88 76 77 69 75 79 87 90 98 105 110 108 118 121 120 126 123 131 130 132 135 143 139 138 140 145 149 159 155 156 158 163 166 170 165 165 162 161 166 169 167 171 170 169 172 168 165 166 171 180 181 171 173 169 170 141 66 33 38 42 39 44 41 41 43 45 43 41 41 42 40 36 38 33 25 20 76 92 104 106 112 115 111 119 117 111 109 100 96 85 81 85 80 87 81 79 71 70 76 82 87 92 98 104 107 112 114 121 122 123 129 130 133 137 125 142 138 140 146 151 150 151 155 157 160 166 163 166 160 163 164 167 170 168 167 166 171 169 170 168 182 184 185 171 172 168 157 89 36 37 37 38 38 41 44 41 49 40 43 42 42 44 40 33 39 29 15 17 79 87 104 108 113 117 116 116 114 116 114 103 100 90 88 82 86 88 86 88 84 73 69 75 78 84 86 101 99 106 106 111 111 121 127 128 131 127 127 133 138 134 143 144 145 144 146 151 153 160 159 159 161 162 159 169 168 169 170 164 176 169 176 182 188 185 177 175 169 161 118 52 28 39 36 38 38 36 40 38 40 48 39 43 42 41 44 29 35 24 19 23 77 86 101 105 110 115 117 114 113 114 118 111 97 99 89 86 82 86 85 88 88 82 81 75 74 75 76 86 89 92 96 102 100 111 113 116 125 128 130 131 133 131 137 143 145 148 145 149 150 151 154 153 162 164 166 170 168 171 173 170 185 181 188 192 194 179 173 170 160 151 66 34 35 35 35 41 38 35 39 38 39 41 41 42 44 37 40 33 25 23 12 20 82 89 97 105 109 112 114 118 116 118 117 111 106 101 95 88 88 86 85 88 89 84 88 81 80 76 70 74 80 83 82 94 99 97 105 109 116 119 125 128 130 132 137 134 136 142 144 143 146 151 150 156 162 165 166 169 172 177 175 183 194 190 192 197 184 172 167 159 138 161 54 36 36 34 32 38 32 35 36 33 43 39 36 38 46 36 43 27 23 23 11 30 82 84 99 102 108 111 112 116 122 120 123 111 107 102 101 93 88 88 84 89 87 85 91 87 83 84 76 77 73 79 73 82 87 85 96 100 106 114 116 125 128 126 131 129 130 138 142 143 145 146 151 154 161 161 168 170 173 179 182 180 185 189 185 180 172 160 156 141 145 174 54 32 34 33 36 32 34 34 34 36 37 38 42 37 41 40 42 22 25 19 9 39 79 86 91 106 107 111 114 115 118 126 118 118 106 112 102 104 91 90 82 88 89 82 91 93 89 87 87 75 80 77 79 76 76 84 84 91 95 95 109 114 123 125 126 124 129 134 140 146 146 141 146 151 160 160 164 169 165 168 175 174 168 170 163 163 153 149 143 145 152 173 76 26 35 36 31 33 33 33 37 37 38 38 40 43 37 42 41 23 22 16 9 51 80 83 91 103 107 114 111 116 118 119 128 116 113 111 109 103 94 97 85 91 91 86 87 93 97 93 92 84 87 79 83 79 78 81 78 83 79 84 99 104 109 123 123 120 128 137 138 139 149 140 142 147 152 156 158 159 156 157 160 162 158 157 153 147 144 138 146 155 154 173 85 15 39 34 32 32 31 32 34 35 39 35 35 44 37 40 41 21 22 12 17 63 79 85 91 99 105 110 113 112 120 116 121 126 114 112 111 108 103 104 93 93 94 88 90 95 96 99 97 98 91 86 88 88 84 81 81 88 78 85 83 94 93 108 113 112 123 125 134 134 143 141 141 147 149 147 152 149 151 151 150 148 146 144 140 140 146 150 153 153 156 168 94 10 35 36 31 32 33 35 32 33 39 35 37 37 37 42 35 19 20 7 33 67 80 84 90 102 102 107 114 115 115 118 123 117 125 116 115 114 110 102 105 99 96 95 89 94 100 99 108 100 106 99 97 96 93 90 94 91 91 89 92 90 92 95 104 108 109 117 120 127 134 131 139 141 141 140 140 143 143 136 138 134 139 139 146 154 160 160 153 153 156 171 98 14 26 45 26 30 32 30 32 35 33 36 36 37 42 35 42 24 14 11 45 71 80 87 91 101 101 105 114 114 118 118 120 118 125 126 114 117 114 109 112 105 100 96 96 103 99 108 107 107 116 112 110 111 106 104 110 106 102 100 104 105 103 106 103 111 110 107 112 115 119 119 130 127 129 130 135 129 135 133 138 144 149 158 161 159 159 159 159 156 152 171 96 10 28 39 31 31 26 31 28 34 32 35 34 35 35 37 39 