P2
92
112
255
43 50 41 58 78 83 67 48 44 46 62 73 107 84 57 95 98 67 70 61 75 72 53 81 105 96 80 80 95 99 95 120 115 101 116 101 115 123 122 127 113 102 99 94 93 86 70 74 68 85 99 95 98 95 93 86 91 99 99 98 96 102 90 80 88 89 76 77 69 76 63 68 54 62 56 52 44 31 32 31 33 41 47 58 48 59 60 53 52 55 55 56 45 53 44 62 58 67 62 52 75 77 81 83 82 84 66 56 88 75 67 59 67 81 71 63 80 97 90 92 106 118 116 129 117 115 122 116 139 140 136 135 129 117 116 109 107 95 98 95 84 81 90 104 107 108 110 96 94 108 107 110 111 102 92 88 96 95 84 80 82 80 67 70 60 63 68 65 64 46 44 43 38 34 37 42 39 42 55 55 57 67 62 52 57 47 47 51 69 80 78 59 62 85 100 81 70 74 79 64 64 74 74 75 68 76 84 84 83 98 99 107 122 135 124 136 133 126 124 138 149 152 144 150 138 133 127 121 117 125 124 122 109 105 102 93 110 117 105 101 98 99 114 102 103 98 99 97 97 93 87 94 83 78 73 67 63 74 63 59 68 75 84 65 47 49 45 48 41 35 37 39 48 45 59 55 52 42 47 48 78 100 88 57 61 70 93 100 87 81 77 88 84 81 84 89 86 92 98 105 113 122 122 125 134 144 141 149 145 135 151 153 157 158 155 159 160 149 144 138 139 135 138 136 130 128 128 117 101 111 102 96 87 89 94 104 104 100 100 102 96 89 87 89 83 73 75 78 68 71 75 71 73 70 85 91 80 73 63 60 45 41 44 46 41 37 31 49 45 41 53 52 90 81 53 53 65 74 79 83 90 95 94 97 101 101 99 113 105 109 114 128 130 137 144 140 146 153 152 157 161 158 168 162 164 171 174 167 169 163 163 152 151 142 141 142 141 140 138 136 125 115 106 85 91 91 88 92 99 108 109 104 101 89 90 91 77 67 71 80 86 75 75 78 89 74 83 86 78 76 83 72 60 44 48 48 54 46 38 43 28 44 36 41 97 81 54 59 76 85 86 104 102 106 109 112 113 111 117 120 118 122 128 135 136 149 147 144 152 156 151 162 164 172 173 167 178 179 184 187 178 175 173 170 165 158 155 147 139 140 140 144 153 147 126 94 81 91 100 92 88 97 103 107 112 100 91 77 72 73 76 78 90 101 85 92 90 98 83 79 91 76 76 72 69 66 61 63 52 54 52 40 33 35 24 63 113 72 65 71 72 89 104 108 116 117 123 122 121 124 126 125 125 135 141 143 143 151 147 151 154 158 161 174 170 182 180 182 182 182 185 186 192 185 177 173 163 162 166 159 156 154 147 143 146 158 155 123 93 99 100 98 102 109 107 112 111 101 95 80 73 79 84 78 76 85 98 91 83 96 79 74 67 84 69 63 68 72 64 57 53 53 40 56 43 34 35 87 99 45 69 77 96 105 107 115 115 118 123 127 129 127 130 131 136 138 145 149 146 149 153 158 159 160 165 173 179 183 189 190 192 187 191 188 180 176 175 175 173 168 164 167 169 165 165 155 158 153 154 142 120 105 103 105 111 112 113 110 106 98 94 93 91 88 80 77 81 90 83 103 93 92 105 89 67 63 72 63 60 74 51 50 60 44 46 44 57 46 43 111 82 53 77 91 105 107 117 111 119 120 124 127 127 132 137 138 141 148 150 151 151 151 152 157 161 165 165 176 190 189 197 201 189 192 188 186 187 195 193 184 181 166 168 165 169 169 171 167 167 159 157 152 139 121 120 110 106 112 119 109 105 103 109 113 107 92 79 85 88 87 88 71 71 71 80 78 75 69 65 63 54 56 68 59 61 56 55 61 52 56 61 117 72 66 92 108 108 111 116 115 122 122 125 128 129 141 140 145 148 153 153 154 151 151 157 158 159 166 165 173 192 193 198 194 196 199 200 197 201 198 182 187 179 174 170 168 170 170 172 170 176 170 165 160 150 139 134 130 122 121 127 128 125 120 119 120 118 104 94 90 85 98 71 81 72 68 62 57 58 68 58 58 58 49 64 54 56 48 46 37 64 47 82 112 68 89 107 113 108 114 119 121 124 123 130 133 139 146 146 149 151 154 151 148 151 154 158 160 159 165 170 169 188 193 198 196 200 200 202 188 188 197 187 182 177 179 173 170 172 172 171 176 171 166 164 159 149 147 139 141 140 135 133 128 131 129 133 128 127 113 108 101 95 90 78 66 58 65 54 55 49 51 57 61 64 53 45 60 53 53 47 42 69 51 73 92 74 105 111 112 117 121 125 131 127 134 140 140 149 150 153 152 155 151 156 152 157 159 159 158 162 170 169 173 178 186 194 191 197 193 196 189 178 183 178 179 174 176 168 165 171 172 172 174 171 166 172 169 164 160 150 154 158 155 158 150 145 140 142 138 127 125 121 115 108 102 89 73 61 66 65 62 67 51 51 51 50 61 53 49 62 57 54 42 44 51 62 69 99 109 116 119 126 130 133 137 140 142 152 148 154 153 155 153 155 157 159 154 158 159 159 159 162 167 170 172 181 179 186 189 187 185 187 180 179 171 174 174 174 173 176 171 170 172 172 174 181 179 177 178 174 175 174 177 175 177 172 167 164 158 151 149 140 127 122 116 112 107 105 95 85 67 68 60 68 69 73 60 52 51 53 38 46 75 54 49 65 39 51 86 114 112 120 126 132 137 140 143 142 150 154 158 157 154 156 156 157 159 159 159 161 159 162 161 163 171 165 170 174 179 184 183 184 179 191 181 184 177 173 172 174 179 172 177 172 182 174 177 174 176 182 181 181 179 183 179 181 183 179 173 173 169 158 154 150 135 122 124 113 112 103 92 84 77 67 64 76 68 64 61 58 53 44 41 32 49 63 56 93 53 78 107 113 117 124 134 139 141 148 146 149 150 154 157 158 160 160 160 159 157 158 161 156 162 165 161 169 169 165 170 170 174 179 175 176 179 182 174 182 175 175 174 172 173 174 173 174 174 170 170 181 177 176 183 185 187 182 190 187 184 179 173 171 167 167 157 142 149 132 125 116 103 104 99 80 68 69 51 65 69 60 53 51 56 50 47 45 29 46 41 71 73 93 114 119 119 135 137 142 148 150 150 153 151 156 155 161 157 160 159 161 160 162 160 161 161 163 162 167 164 176 163 173 175 172 172 175 175 176 174 180 175 178 171 170 175 174 173 173 171 175 173 170 176 175 175 178 182 180 186 176 180 178 171 168 164 159 166 153 136 138 131 123 114 97 100 87 72 68 61 68 64 59 61 61 55 46 54 48 37 34 39 85 74 98 119 121 126 137 139 145 152 154 151 155 157 156 153 160 160 161 160 161 160 159 159 162 162 161 161 165 167 169 168 166 171 175 171 176 174 177 176 173 173 176 173 173 174 173 174 174 172 174 172 170 173 175 176 180 179 185 182 184 178 173 170 166 162 164 158 154 145 131 124 119 119 107 86 97 77 77 64 73 69 69 66 65 50 50 60 39 37 39 39 87 75 112 123 124 133 140 144 150 153 156 153 156 159 161 156 159 159 163 160 162 161 162 160 164 163 162 162 163 169 166 169 173 173 176 182 178 182 182 180 179 176 173 175 168 174 174 173 174 171 171 172 170 172 168 177 175 178 184 185 181 173 175 165 171 164 167 162 151 134 135 118 114 111 106 94 84 81 69 63 57 64 64 71 60 51 52 45 48 45 68 57 91 91 123 125 131 137 142 147 153 155 154 155 159 159 161 158 165 162 161 161 161 166 166 163 165 166 163 165 170 167 172 168 175 173 175 173 180 178 180 172 181 177 181 173 174 173 174 173 175 174 174 176 170 172 174 176 180 182 177 183 178 174 171 167 166 165 166 162 153 135 124 119 105 105 106 101 83 73 65 67 57 60 67 71 71 69 52 52 50 47 51 58 90 93 128 127 135 138 143 149 153 156 159 160 157 158 161 166 162 163 164 165 162 166 167 163 165 163 164 166 165 172 169 175 172 171 179 179 179 180 179 176 180 178 178 175 172 173 173 172 171 170 173 177 172 173 174 178 177 177 180 176 174 172 169 168 169 163 161 160 153 146 121 119 111 98 96 103 90 69 64 71 70 66 54 48 58 63 56 52 48 49 48 44 71 111 130 129 138 144 144 152 152 156 154 159 160 161 159 163 163 160 164 162 164 169 163 161 167 165 167 164 168 163 169 170 170 177 169 178 178 179 178 181 178 174 174 176 172 171 173 169 170 172 176 174 171 173 170 176 176 167 178 176 173 172 170 166 166 167 163 154 151 148 128 114 105 102 88 79 87 81 63 65 68 80 67 52 59 60 78 49 50 52 40 38 78 122 132 138 141 144 149 152 153 154 158 158 159 162 162 162 165 160 162 159 161 164 160 160 166 165 167 165 166 166 170 171 176 174 177 181 177 179 180 181 174 172 175 176 176 170 176 171 173 175 173 172 175 172 174 172 173 175 177 176 177 171 168 165 163 166 156 155 146 138 136 119 108 103 99 74 74 79 70 47 66 82 74 63 59 62 56 53 37 54 53 44 91 126 134 141 146 144 151 154 151 157 159 161 158 163 165 164 163 163 161 162 166 166 162 165 166 167 164 172 165 167 167 173 176 170 174 173 177 179 183 178 175 177 172 176 177 180 172 174 170 175 180 175 171 178 173 175 173 174 175 174 174 170 168 168 165 164 154 149 149 132 127 127 111 93 100 82 70 75 78 62 52 72 75 60 61 58 46 46 39 38 46 68 97 131 138 142 145 146 154 151 150 152 159 157 160 162 157 160 162 161 163 165 168 168 165 161 165 164 166 168 169 167 170 172 174 171 182 182 180 181 180 181 178 175 179 176 177 177 175 174 176 175 178 178 177 174 175 173 174 174 175 172 167 172 169 168 169 165 159 146 140 142 128 120 108 101 88 86 75 75 75 80 61 47 67 60 51 49 45 57 43 38 32 77 99 136 141 145 147 150 152 151 152 155 158 161 162 164 158 160 163 162 162 166 166 167 162 167 166 166 168 167 167 171 170 170 174 170 178 184 182 182 181 183 183 178 177 178 177 178 175 175 177 175 177 176 176 180 178 176 179 176 169 177 171 168 169 168 168 165 157 156 145 132 135 119 102 105 78 85 73 71 69 77 73 58 60 55 56 35 41 54 52 39 44 43 110 137 145 150 148 150 151 150 153 156 162 165 160 164 162 165 164 162 166 166 166 166 159 163 166 167 167 171 167 173 170 174 171 171 179 182 183 181 181 180 181 180 180 179 181 181 179 177 179 174 177 174 179 178 178 173 183 174 170 172 172 169 168 168 170 167 160 156 156 145 124 120 115 99 95 72 82 73 68 70 72 64 64 57 53 38 37 50 64 47 39 38 124 141 145 149 146 152 151 150 150 155 159 160 162 158 162 163 164 162 168 165 162 170 158 163 167 168 165 172 171 167 169 179 176 175 180 181 181 180 180 183 180 181 185 179 178 180 175 181 177 174 177 177 177 181 182 176 178 175 172 170 172 170 172 168 171 168 165 157 151 149 135 120 115 109 95 80 89 87 75 66 75 64 62 65 52 56 51 59 55 68 38 40 133 144 147 149 150 150 150 153 155 156 161 163 160 162 162 167 162 164 165 165 162 167 171 162 169 167 171 165 172 169 169 181 175 179 179 179 178 185 183 181 178 181 181 181 179 175 181 179 179 176 182 178 175 178 178 175 180 176 176 173 171 173 170 168 170 165 166 164 155 140 135 131 121 106 97 87 83 80 66 67 65 63 52 60 64 55 54 62 45 49 48 52 133 143 147 150 146 154 153 151 156 158 160 167 163 163 165 165 165 165 167 165 166 165 180 166 175 166 170 169 167 171 172 173 173 174 173 176 181 181 185 185 179 181 186 177 176 180 180 181 180 178 177 180 179 179 180 177 179 177 178 173 173 173 169 169 166 169 169 167 162 151 131 125 126 112 94 91 87 80 84 65 70 83 61 49 63 54 45 67 46 45 41 41 134 145 145 146 148 153 154 156 158 158 162 164 163 168 165 166 163 164 168 166 166 165 170 169 171 167 165 164 167 170 173 174 171 177 179 177 182 183 181 184 183 182 183 186 179 180 180 182 180 179 175 176 178 174 180 181 181 178 179 175 170 172 171 169 167 168 165 165 161 161 150 124 123 112 104 92 81 80 100 74 65 72 70 59 45 66 45 57 50 52 42 37 140 144 147 150 149 152 159 155 160 159 164 163 163 170 165 170 166 169 168 170 164 168 170 165 171 166 169 168 169 171 172 173 172 173 180 179 177 179 178 180 179 178 180 181 179 178 180 179 180 180 174 177 175 179 180 181 182 179 180 175 171 171 175 166 169 168 164 165 163 157 162 149 117 116 104 94 90 79 76 91 74 60 63 52 53 47 60 51 54 51 46 45 141 142 144 149 149 156 159 157 161 163 162 162 165 168 163 170 167 171 167 172 167 171 167 169 169 169 169 174 169 173 178 177 177 170 179 179 174 178 179 177 177 171 180 178 177 173 176 173 177 176 176 180 175 179 180 183 184 179 174 177 172 173 171 170 168 168 163 165 163 157 153 156 141 111 98 85 99 81 78 75 70 70 60 44 47 47 52 59 53 48 49 46 139 141 143 145 155 155 157 163 167 167 167 163 168 168 167 169 170 168 172 170 172 171 170 173 173 170 169 175 173 172 179 170 178 178 174 182 174 180 172 179 180 174 176 179 176 173 176 173 171 177 176 183 174 176 173 177 179 178 178 180 178 173 172 171 167 164 161 165 162 160 149 154 158 123 100 85 86 88 80 53 69 63 69 51 41 48 44 59 59 53 51 53 136 138 142 145 152 157 157 161 169 166 167 161 165 168 167 169 167 170 172 172 173 174 170 173 175 172 170 173 173 179 174 171 178 180 176 179 179 178 174 178 177 171 174 172 170 167 172 172 167 171 176 171 171 170 167 168 175 174 179 178 178 172 172 168 171 161 160 162 161 163 151 148 149 150 103 85 74 95 88 71 49 57 63 64 43 46 47 44 51 53 58 63 142 138 140 150 151 158 158 165 163 166 170 169 170 171 170 170 169 173 171 171 173 176 173 177 173 172 171 174 176 174 176 172 172 180 171 178 172 171 170 172 163 168 168 161 161 161 165 165 158 162 170 163 159 165 158 159 164 177 171 174 175 180 171 169 168 166 163 164 163 167 156 151 148 148 134 86 74 93 73 69 68 47 54 66 52 49 53 55 42 51 58 66 136 137 143 147 153 154 161 163 162 163 165 167 169 170 167 166 168 170 171 172 171 171 178 175 176 172 171 178 177 177 178 179 175 172 170 170 169 165 163 158 158 144 144 140 137 141 145 143 141 143 149 155 162 159 157 153 159 167 165 164 166 170 173 172 172 167 161 160 164 165 158 159 147 146 152 108 85 82 66 58 69 50 42 57 62 50 54 53 46 58 62 56 138 140 141 144 150 155 161 164 160 162 163 165 168 161 162 169 166 172 171 171 170 176 175 176 174 171 171 176 172 179 183 180 177 173 167 165 162 157 143 134 127 118 123 116 112 121 117 119 129 134 129 146 151 154 148 145 144 152 154 159 162 156 163 165 168 170 159 162 162 161 163 161 159 145 148 141 96 74 67 57 58 61 52 51 63 53 47 67 56 54 58 58 141 141 131 142 149 154 155 158 156 154 160 160 157 159 159 167 166 172 167 168 170 174 175 173 175 171 176 173 175 178 183 180 177 174 167 165 156 152 141 132 118 113 104 102 103 113 109 103 112 117 118 137 137 141 143 138 146 152 141 148 150 154 156 164 161 164 164 164 165 160 162 162 160 162 149 143 125 78 71 62 60 62 61 54 71 79 88 68 63 59 71 70 145 133 127 138 148 145 143 141 143 136 141 149 157 146 159 162 163 168 164 171 173 178 177 177 180 175 175 167 173 180 176 174 173 170 171 162 158 153 134 136 124 119 112 108 103 108 117 128 130 124 125 145 154 158 152 152 155 150 154 152 147 150 156 153 157 161 163 164 163 162 163 161 163 166 163 147 142 97 62 76 55 69 67 58 66 76 82 75 68 49 60 60 147 131 132 134 140 150 128 129 135 137 136 138 148 154 152 155 161 170 162 165 179 181 179 182 183 178 176 172 171 182 171 170 168 165 163 157 157 152 140 133 133 133 134 128 127 134 141 142 147 143 144 153 159 164 162 161 160 157 163 163 157 156 159 150 153 162 165 162 164 163 161 165 161 165 161 160 153 122 76 60 69 68 75 69 87 71 62 76 62 58 55 77 138 137 139 130 135 142 115 120 120 121 131 137 135 143 138 144 154 158 154 167 174 177 185 182 182 176 168 177 174 185 174 171 166 165 157 160 155 158 156 146 146 142 139 137 135 136 139 143 146 143 147 149 150 153 158 162 157 162 165 165 168 167 165 155 158 158 164 165 159 164 164 162 165 160 163 165 161 144 98 66 60 61 69 58 61 59 58 49 69 63 64 78 133 140 143 132 137 148 147 133 141 136 129 134 138 134 137 145 161 151 152 166 166 173 183 186 180 174 167 170 184 176 182 172 167 167 167 168 168 162 161 153 146 143 131 134 133 130 128 121 117 118 118 119 123 137 144 153 151 160 168 173 174 182 176 168 167 164 164 163 158 162 162 161 165 160 163 161 164 160 126 87 55 62 65 70 52 45 57 65 53 63 56 73 118 132 148 146 150 153 162 160 167 175 171 173 166 161 161 163 167 164 165 165 160 169 180 185 177 170 170 167 181 175 174 172 165 168 175 178 176 172 162 150 144 136 127 111 104 96 85 94 97 99 76 45 90 77 60 71 79 106 131 156 168 176 181 178 172 169 171 167 162 162 163 165 162 164 162 165 160 166 146 104 65 69 71 57 55 45 60 58 70 74 67 79 127 138 149 164 176 183 177 174 167 175 171 173 165 160 159 155 161 163 165 166 163 163 169 176 177 170 166 166 181 175 176 171 168 164 175 183 185 183 161 137 135 115 100 101 90 99 121 133 156 165 93 75 91 157 48 62 70 55 80 100 122 147 163 176 177 172 171 176 174 160 167 166 164 165 163 161 161 162 161 125 77 71 71 68 57 51 57 58 82 80 79 56 131 148 164 180 191 195 182 184 177 170 163 147 125 114 102 100 110 118 134 147 157 162 167 167 173 165 165 163 182 175 173 171 170 168 169 170 182 189 166 135 116 98 107 100 99 138 142 141 168 188 114 83 90 97 45 106 76 100 144 106 80 107 123 141 169 175 172 176 177 163 169 165 165 166 163 162 165 160 166 148 94 64 73 69 63 58 57 76 91 94 74 57 136 156 171 188 193 189 180 164 143 129 107 70 73 82 82 96 66 81 97 124 150 176 174 156 167 163 161 157 175 177 166 167 167 168 161 160 166 163 157 137 113 104 116 123 124 138 153 147 162 181 167 88 97 106 82 131 147 150 152 120 113 98 111 112 136 168 173 174 177 170 168 167 166 169 166 161 168 160 163 166 104 93 83 79 60 70 60 87 115 115 94 129 142 155 178 187 181 159 116 95 95 144 119 66 95 88 154 108 95 55 128 107 132 151 169 149 158 159 155 155 182 174 163 159 162 159 157 156 155 142 146 135 124 115 112 120 109 129 140 156 160 171 183 165 132 112 86 99 143 141 138 132 134 123 112 116 119 141 165 167 172 173 168 168 166 170 166 166 167 162 161 164 137 122 107 98 70 61 80 107 133 135 133 154 131 154 174 169 149 92 93 122 160 189 130 58 85 32 99 68 104 54 145 152 108 93 155 145 153 149 149 153 181 167 165 160 158 153 157 156 147 137 140 128 134 122 116 119 111 117 121 130 139 147 151 166 194 144 130 130 128 139 134 140 144 132 131 124 123 128 151 163 164 174 167 171 168 168 168 164 164 164 163 158 156 147 141 142 116 102 109 123 149 152 155 160 100 156 170 153 104 72 153 168 184 191 170 79 91 87 73 96 92 82 155 148 110 84 128 146 151 151 145 150 174 177 171 162 154 155 160 155 148 133 125 120 130 122 119 123 123 116 122 136 141 140 143 146 137 134 134 147 141 138 152 151 146 141 141 140 133 136 146 161 167 171 171 172 169 171 171 166 164 163 163 157 159 155 150 156 158 135 137 135 151 161 162 169 66 160 164 133 98 94 155 176 184 196 211 177 94 82 93 92 92 115 133 122 108 101 120 143 151 157 148 147 172 183 171 162 147 156 148 155 151 140 129 124 117 126 125 118 119 125 118 127 136 143 149 162 155 150 155 158 162 163 158 158 150 151 148 151 149 149 158 165 170 171 173 170 170 171 175 168 165 165 162 160 162 156 152 156 158 152 141 141 154 166 165 179 43 167 163 138 114 139 119 158 164 219 225 213 152 108 105 115 134 129 129 124 122 114 117 144 149 155 152 152 177 180 175 165 147 159 151 152 153 151 146 137 124 115 128 120 128 135 134 140 136 140 149 148 151 149 154 153 156 159 163 157 157 154 153 155 160 168 171 175 175 173 174 172 170 170 173 169 163 163 162 159 158 161 157 156 158 158 151 141 155 169 175 184 50 156 168 160 124 137 135 110 113 120 173 125 138 125 131 124 139 130 127 125 123 116 129 147 148 153 153 159 185 176 174 169 159 157 157 152 155 152 152 151 143 129 126 133 133 143 148 151 156 158 155 158 161 162 164 155 159 160 157 157 155 156 158 162 168 172 174 175 175 173 173 174 172 172 175 166 166 160 162 160 158 158 159 155 156 160 156 145 153 170 180 194 41 153 167 168 135 131 141 135 138 139 140 128 148 144 143 135 131 129 125 125 120 125 141 144 151 151 144 163 177 178 172 170 165 158 154 158 148 152 150 157 153 147 140 141 147 152 155 160 164 170 173 170 166 170 164 158 162 163 159 160 161 161 170 169 174 176 174 176 175 170 173 174 172 171 172 173 164 165 161 160 157 158 155 155 157 155 156 151 151 163 186 185 49 152 166 162 144 140 149 165 164 179 177 166 162 155 143 138 130 131 124 123 129 134 147 145 154 148 150 166 167 175 170 170 169 164 158 159 151 153 153 154 156 154 156 153 146 163 163 164 167 180 176 187 171 174 172 161 166 164 167 164 166 167 172 175 173 175 172 173 173 168 171 174 174 169 171 171 163 165 164 156 159 160 156 154 156 152 156 156 153 150 186 156 52 155 160 154 141 150 156 168 185 195 187 178 159 154 143 139 130 131 130 133 138 143 154 144 154 153 153 173 166 170 168 170 166 166 163 160 160 155 154 154 154 154 157 156 156 152 164 168 165 172 175 182 178 180 177 174 166 171 173 171 173 172 175 173 180 174 174 174 170 171 172 171 172 174 168 170 165 167 160 158 162 160 158 154 154 154 151 156 166 136 176 127 52 154 157 146 145 149 162 166 175 173 177 164 158 152 145 146 142 136 141 140 147 149 148 148 153 156 162 174 180 173 170 171 169 169 162 162 160 156 154 154 152 157 160 159 161 162 157 168 174 170 177 173 181 188 181 181 172 171 174 178 171 178 173 168 172 173 172 176 173 173 176 173 172 171 171 172 170 162 165 154 159 162 161 156 157 153 149 153 171 164 166 123 46 152 154 146 143 152 162 165 166 165 166 159 159 150 150 152 146 146 148 148 148 153 149 149 157 158 164 174 178 173 176 174 172 169 168 161 164 158 154 155 156 158 160 158 160 165 166 163 165 171 176 174 177 184 188 178 174 177 174 175 170 169 171 170 172 174 171 174 175 174 174 172 173 175 167 167 170 162 163 160 155 162 160 156 158 154 151 149 167 185 181 127 30 153 154 146 141 149 157 164 162 162 167 161 157 163 157 155 145 150 153 153 149 152 151 153 158 156 161 171 175 168 175 173 170 173 170 167 164 161 161 162 154 154 161 158 162 163 165 171 166 171 167 168 175 168 178 174 172 174 178 169 164 164 165 169 171 175 171 171 174 171 175 174 172 172 172 167 167 162 160 159 161 163 159 157 154 151 148 147 168 185 203 131 21 148 151 148 143 152 158 161 162 164 166 159 164 163 157 151 150 155 159 155 152 155 153 149 153 158 163 177 179 175 178 178 176 178 168 172 163 163 166 166 165 162 163 158 160 159 163 169 171 170 173 169 171 177 173 170 175 172 170 168 161 166 166 167 170 169 173 167 172 174 173 176 175 171 172 167 164 163 160 159 162 159 162 156 156 148 150 145 166 188 202 143 11 142 154 146 146 150 156 157 162 163 163 163 161 156 152 150 154 155 155 157 154 161 148 147 151 162 168 180 185 180 177 180 177 177 170 172 166 159 160 169 176 169 168 162 163 160 166 167 168 171 170 170 173 170 179 171 175 170 170 166 166 165 167 169 167 167 171 170 174 175 172 175 175 172 171 171 163 162 162 159 161 159 161 158 150 149 148 145 167 188 202 132 9 130 153 146 148 151 155 159 164 164 166 157 151 152 152 151 155 156 157 164 155 154 139 141 152 161 176 179 178 178 172 176 176 175 175 170 164 152 150 155 177 174 172 168 166 162 163 169 168 171 171 172 170 171 171 174 177 168 168 164 166 165 168 165 172 168 172 171 170 170 172 173 172 172 171 168 166 161 164 162 162 159 160 159 152 149 148 146 168 182 203 111 7 128 150 152 150 157 156 160 164 164 159 154 160 153 157 154 159 163 160 175 152 147 143 149 150 165 179 182 178 173 165 176 177 172 177 173 159 154 148 144 158 172 178 167 169 167 165 164 164 170 167 175 168 172 172 172 177 168 167 164 163 167 168 164 170 166 164 172 168 170 172 173 173 174 170 167 168 160 162 163 166 162 159 158 156 150 149 147 169 189 167 79 11 103 159 154 155 156 162 160 163 163 162 163 158 157 165 158 165 164 174 182 151 139 148 154 160 164 178 185 177 176 172 170 175 170 174 178 172 165 160 150 142 164 171 170 169 168 170 169 158 167 168 168 173 172 172 175 173 169 163 167 165 167 168 159 168 169 168 168 174 166 175 172 178 173 166 167 167 162 163 164 165 165 158 157 155 153 148 148 176 157 89 135 26 90 159 158 155 159 169 161 164 163 165 165 160 162 162 162 162 170 186 174 147 145 151 161 160 169 174 179 180 175 175 170 174 173 171 174 174 168 164 163 144 150 166 172 171 173 169 169 171 167 170 168 174 172 170 173 168 169 167 170 169 166 169 161 167 173 170 176 173 173 169 174 172 177 171 168 169 162 161 163 161 164 160 156 152 155 141 151 177 110 123 182 36 56 165 164 157 164 161 163 164 164 166 166 166 162 163 167 173 177 190 155 142 154 155 165 158 167 168 179 178 171 175 174 172 172 173 166 167 166 164 164 160 140 157 169 169 173 172 166 171 171 168 161 175 173 170 175 172 167 171 169 172 171 170 162 171 175 176 175 182 175 175 176 175 172 174 170 168 166 163 163 165 164 164 155 152 153 143 156 168 148 179 190 45 43 161 165 155 163 161 164 162 163 171 166 168 163 168 168 176 189 170 151 150 161 165 167 167 165 194 190 175 170 176 176 173 172 170 169 162 164 159 162 169 150 153 163 171 167 170 170 170 175 169 171 172 172 168 172 172 169 172 174 172 170 170 169 173 175 177 177 178 172 175 175 178 176 172 168 171 167 164 162 164 166 158 155 151 153 140 158 172 169 186 185 55 30 154 165 160 160 159 165 167 168 170 170 161 166 171 174 175 193 155 153 154 172 171 170 171 164 191 188 167 177 181 176 178 172 174 171 171 170 164 162 161 153 147 163 166 168 171 167 171 176 171 173 175 173 169 171 173 173 171 177 171 169 172 172 173 172 174 178 176 176 172 175 179 175 174 168 168 167 163 163 164 165 157 156 153 151 137 158 182 170 179 175 46 18 113 171 163 165 161 166 168 170 171 165 162 166 172 175 178 191 155 163 164 161 184 183 171 171 171 169 171 177 168 169 171 170 176 181 176 181 172 167 164 153 146 164 165 172 169 169 171 171 169 173 172 175 172 171 176 173 172 176 173 175 175 174 171 175 176 179 177 181 177 172 178 173 174 171 167 163 163 159 161 164 156 153 154 146 143 158 185 178 174 167 49 36 70 171 164 164 169 171 170 172 174 165 170 167 173 177 179 181 158 178 181 156 165 216 184 178 170 168 168 161 166 164 151 141 123 128 152 179 176 173 168 156 141 157 171 170 172 167 171 170 173 173 172 174 175 175 177 177 175 177 176 179 175 174 175 180 178 182 178 175 180 176 175 176 172 172 165 165 163 158 157 164 159 152 152 147 145 160 180 183 180 176 47 43 40 160 166 167 168 174 170 176 177 171 170 173 171 179 175 181 155 173 175 112 116 180 188 181 179 171 166 173 150 120 121 124 112 102 79 126 181 165 166 149 133 159 174 178 175 170 172 173 169 178 175 173 172 176 177 172 179 181 179 176 177 175 181 182 181 184 179 177 182 178 174 175 173 165 165 164 160 156 160 162 159 154 152 145 145 162 176 182 176 177 47 52 22 133 166 168 167 174 174 173 174 172 173 173 175 179 180 179 159 149 164 144 81 133 171 177 175 174 172 165 124 143 159 165 160 161 147 120 150 148 140 118 145 168 173 179 174 175 175 174 172 174 178 172 176 174 172 171 175 181 181 180 171 179 179 181 179 181 178 177 180 174 175 171 169 166 168 163 162 158 163 161 153 152 151 135 151 166 176 177 174 159 50 52 24 95 169 167 170 177 176 179 177 169 173 175 177 179 179 179 170 147 138 138 122 115 133 154 169 175 174 163 152 159 159 160 157 162 155 144 135 125 133 134 159 175 173 178 183 174 178 177 173 175 174 177 175 173 175 173 180 183 181 182 180 176 180 183 174 178 176 179 178 178 174 173 170 169 165 163 160 158 159 160 152 150 147 134 150 159 154 148 158 92 47 49 41 55 168 166 174 177 179 179 173 180 176 180 182 179 180 179 173 167 147 136 131 125 128 135 141 165 181 171 164 157 162 162 155 158 145 144 142 143 147 148 161 176 181 181 181 179 178 183 176 178 172 179 178 176 181 176 181 182 182 182 182 179 181 182 180 179 183 176 180 178 177 172 171 169 163 163 164 157 159 158 151 145 148 131 149 146 141 145 157 76 47 50 45 20 153 166 172 179 173 174 174 181 179 184 180 183 179 177 173 171 156 146 144 150 146 148 148 161 181 173 164 165 163 160 157 151 148 145 142 150 142 150 164 177 185 179 180 179 182 185 180 176 160 176 175 176 180 181 180 174 182 181 182 182 182 182 181 180 182 181 182 175 177 172 170 165 161 163 159 162 157 156 149 143 143 138 134 143 142 148 164 61 46 48 53 24 117 166 176 175 175 178 178 184 181 186 183 184 176 175 170 158 152 145 148 148 153 159 165 171 185 177 165 161 163 153 151 151 146 146 144 149 148 153 166 181 184 185 178 181 186 186 182 179 167 175 178 174 179 178 180 177 178 184 183 182 182 180 180 183 181 183 178 176 175 170 171 161 164 163 162 162 158 155 147 144 138 129 133 144 152 153 161 67 49 50 48 32 83 172 173 174 179 181 179 182 186 183 180 178 174 170 168 154 146 143 146 147 154 162 164 171 174 177 163 157 156 153 150 149 148 143 142 148 152 154 172 182 181 187 178 181 188 186 183 181 178 179 179 176 177 178 180 181 178 186 188 181 179 179 178 182 178 180 176 172 172 171 169 165 161 166 160 162 159 148 147 142 134 130 131 150 157 156 163 57 48 49 47 37 38 174 170 174 177 179 181 188 184 186 181 176 171 166 164 150 143 143 149 142 157 163 161 173 174 179 166 164 158 149 151 146 151 149 148 147 158 164 174 176 181 181 184 181 188 185 184 182 183 182 182 177 176 180 181 178 181 184 186 182 181 177 182 182 178 183 178 174 169 176 169 161 162 163 165 162 153 153 143 140 131 128 136 156 158 160 164 56 48 44 48 48 16 152 173 176 178 180 183 184 185 184 179 174 168 164 156 149 144 143 150 153 160 162 160 171 176 177 168 169 158 152 152 140 149 161 156 154 157 169 170 171 175 181 179 177 181 181 186 178 188 186 183 182 180 180 180 181 180 183 181 176 182 179 180 183 176 181 180 174 172 171 167 164 162 163 163 160 154 153 141 137 129 124 149 154 155 159 162 53 50 45 52 49 31 115 174 172 178 182 176 187 183 186 176 169 161 163 154 147 146 152 156 158 165 159 162 158 167 171 169 168 164 155 155 150 159 166 160 173 155 169 175 170 168 177 174 177 178 181 185 178 183 191 182 184 181 182 184 181 181 182 180 180 179 180 179 182 181 178 182 173 173 169 167 166 163 162 161 156 152 146 137 135 125 131 151 154 157 161 157 56 45 52 47 54 24 70 178 176 180 181 184 193 183 182 172 165 163 153 155 153 153 159 160 157 161 152 150 153 142 152 155 160 159 152 153 161 167 175 174 179 171 172 178 170 167 175 175 171 176 178 182 182 177 189 189 187 181 183 184 180 180 181 181 177 184 176 177 181 176 181 173 176 169 173 167 167 160 164 158 153 151 143 137 130 124 140 152 152 153 162 160 42 49 50 47 49 39 27 170 176 178 181 185 190 185 175 167 167 169 155 164 161 161 165 162 158 162 153 147 143 138 136 142 150 153 152 157 168 168 174 176 178 176 177 178 171 172 179 179 177 175 180 182 181 176 182 188 190 186 184 185 182 178 181 179 182 185 176 178 182 179 179 172 174 172 173 164 165 161 158 157 153 145 143 134 128 128 146 154 149 158 158 155 52 49 50 48 47 52 10 152 176 178 180 187 190 182 176 164 167 168 173 177 166 168 171 164 164 166 161 158 148 142 144 148 155 154 158 157 170 170 177 176 182 178 179 180 176 175 182 176 179 178 178 182 177 179 175 184 188 187 186 179 184 178 183 180 180 183 179 182 179 178 177 177 174 173 171 167 162 163 151 157 147 146 137 135 124 134 146 158 151 156 160 153 50 50 52 49 48 49 21 98 178 175 178 184 191 179 175 166 167 174 180 180 172 174 179 185 175 168 166 163 154 151 152 146 147 147 145 148 151 160 168 172 174 177 178 177 179 177 178 180 176 177 178 181 177 181 177 177 183 189 183 182 183 181 180 183 179 181 182 181 179 178 178 174 172 173 170 167 166 165 151 153 145 141 134 128 127 137 154 154 156 153 158 154 50 47 49 45 49 46 37 47 175 173 177 183 186 177 172 168 174 185 186 185 182 185 188 168 164 157 157 155 149 156 143 140 142 147 146 149 147 147 146 154 157 160 171 173 174 175 173 174 174 176 179 175 179 179 178 178 181 186 179 186 183 185 182 181 184 178 179 179 175 180 174 175 170 168 164 166 160 161 153 151 146 139 130 131 133 142 151 159 152 159 157 154 54 46 50 45 47 49 52 12 152 174 171 181 183 177 170 172 182 190 191 189 194 185 157 140 142 127 123 124 129 130 121 124 127 134 128 130 128 127 119 119 117 125 130 137 156 157 162 162 159 165 173 172 176 174 180 183 182 182 186 185 182 186 183 182 184 180 178 180 175 173 174 173 170 166 161 157 161 155 153 146 138 132 131 135 141 146 150 155 154 154 153 158 55 51 47 48 46 49 51 14 100 176 174 180 180 178 170 177 190 195 183 174 176 160 137 125 121 106 87 86 94 99 94 80 88 87 83 80 81 82 84 84 79 91 90 98 113 124 132 133 137 137 148 161 171 171 181 180 181 184 184 185 182 183 183 180 180 181 180 180 173 176 172 171 170 165 161 158 154 148 148 143 133 134 131 139 142 147 153 155 154 154 156 151 53 47 49 46 50 49 42 39 41 164 174 179 180 179 170 178 194 195 167 153 151 135 120 107 110 103 102 107 106 108 111 100 104 102 104 106 110 108 101 104 103 95 91 93 95 100 97 105 105 115 132 151 154 165 176 180 180 184 184 182 180 179 181 180 185 180 180 178 172 174 170 171 171 165 158 154 149 148 144 138 131 135 138 141 146 149 156 159 153 156 157 156 59 45 48 47 49 47 43 54 20 130 176 179 175 177 173 180 189 188 159 129 118 118 121 123 127 119 119 121 118 118 123 110 121 120 121 132 130 130 129 124 132 125 121 121 122 130 126 128 133 139 146 159 156 160 170 175 175 184 181 183 182 180 181 181 184 180 178 175 173 176 170 167 166 160 157 149 149 149 139 130 133 139 141 147 148 154 158 153 158 153 155 157 62 42 51 48 49 49 41 44 38 63 176 177 178 178 178 183 188 181 166 140 132 131 128 134 138 131 133 131 132 130 129 119 125 127 134 141 137 137 135 130 134 134 131 133 142 143 147 151 155 155 154 167 168 153 163 175 175 180 180 183 179 183 181 184 182 176 175 176 172 175 168 166 157 161 156 152 146 145 133 133 134 142 147 147 152 153 153 156 159 154 157 158 55 47 51 48 48 48 44 46 46 21 143 175 180 177 179 185 187 186 178 169 158 155 141 138 146 139 145 139 136 139 137 136 135 140 141 150 147 140 136 135 138 141 141 141 150 150 154 164 165 167 163 170 174 167 164 176 175 177 179 179 179 179 183 180 178 177 173 172 171 175 166 169 160 158 154 147 145 135 134 132 141 144 153 149 152 158 155 159 159 158 152 158 65 52 44 52 47 47 46 45 49 26 65 178 171 179 179 187 189 189 183 183 181 181 168 164 159 164 162 158 153 151 149 150 147 147 149 150 149 142 143 143 150 154 154 160 163 165 167 168 171 169 168 169 173 175 172 174 176 177 179 182 180 182 178 178 175 176 171 170 169 167 170 165 160 151 150 148 141 133 134 136 144 149 161 149 151 159 158 156 158 156 152 162 71 46 51 45 48 43 46 44 43 42 23 138 175 173 183 190 186 191 192 184 186 185 187 174 169 176 174 169 171 166 164 162 161 159 161 155 161 158 160 159 160 165 163 167 169 167 165 167 169 167 168 166 170 176 171 169 174 180 173 181 182 178 179 177 171 177 171 170 165 168 162 159 152 152 152 140 136 135 132 141 147 155 161 153 158 156 158 159 161 158 154 159 84 50 48 48 49 45 46 48 41 41 32 63 175 173 184 188 191 186 193 189 186 187 187 185 178 178 178 179 176 171 169 166 166 169 171 169 173 173 174 174 166 173 167 166 168 169 166 167 165 169 169 170 170 174 174 167 170 176 171 176 177 171 175 175 173 173 168 164 169 160 161 160 154 145 148 141 132 136 135 140 155 159 160 158 162 152 155 161 167 158 155 167 82 50 46 48 48 46 46 46 40 43 43 19 125 171 178 184 192 183 186 188 186 186 184 185 183 177 177 177 178 174 172 167 164 164 166 167 172 172 173 173 167 170 168 165 168 168 163 167 161 166 168 171 172 171 170 166 168 171 169 173 174 161 172 174 169 169 165 162 164 160 156 157 149 143 141 138 130 138 139 143 158 157 160 156 158 153 157 161 162 158 153 162 102 49 46 49 47 49 47 42 46 44 43 43 37 162 177 184 187 188 184 186 186 190 191 188 192 182 182 175 175 174 175 169 160 166 165 166 170 169 174 173 169 170 170 168 170 168 162 168 166 164 169 171 168 167 167 166 160 167 172 171 171 166 169 173 167 169 166 162 161 155 153 149 144 144 137 136 135 138 144 148 163 159 166 159 164 153 161 160 163 159 156 163 107 44 52 49 45 51 42 49 41 46 41 44 32 85 170 180 183 187 179 184 183 180 189 191 185 189 190 187 181 174 175 172 162 170 169 165 165 165 168 172 166 168 171 172 172 169 170 167 168 167 166 169 167 170 166 168 162 168 171 168 168 168 168 172 167 164 164 161 154 152 149 144 142 141 132 135 137 139 150 155 168 161 167 166 162 159 157 163 161 157 156 158 118 47 49 45 52 49 45 47 47 44 42 44 51 21 122 172 181 186 171 182 185 180 182 178 185 182 187 189 187 182 174 173 168 166 164 163 158 163 163 165 167 162 171 171 171 167 172 169 165 165 167 160 170 164 167 170 165 167 166 157 166 165 165 168 159 163 164 162 153 146 148 143 140 140 132 138 134 144 152 159 166 170 168 164 164 158 163 160 164 160 156 158 127 46 46 47 48 42 51 46 42 44 43 42 44 41 28 143 171 184 168 178 184 185 184 181 181 182 181 185 187 181 181 180 169 163 163 160 162 156 159 159 160 161 163 163 167 164 168 165 164 162 164 161 160 163 164 166 163 164 170 159 162 164 161 165 158 158 156 152 149 142 142 142 144 140 135 138 139 146 157 165 169 169 170 166 162 159 160 162 161 159 154 160 130 48 49 49 45 52 46 44 46 42 43 45 41 41 34 47 152 170 177 176 183 185 185 187 185 190 185 185 182 186 181 179 173 163 161 160 156 150 151 155 151 156 155 152 158 155 159 159 159 156 161 163 155 157 158 156 153 165 164 168 167 162 162 160 155 160 150 144 142 139 139 145 143 139 136 141 146 153 153 166 165 170 166 168 164 161 160 163 162 160 158 157 140 45 47 48 48 50 44 48 42 46 44 43 40 45 41 34 68 158 167 177 175 181 185 184 186 186 183 188 179 177 178 171 167 162 157 151 147 150 150 151 151 151 157 153 153 153 154 152 152 152 157 156 152 153 155 154 155 169 165 171 159 159 151 157 149 150 142 141 143 139 143 146 145 139 141 146 147 162 163 166 172 172 170 169 161 161 162 162 163 157 157 160 146 49 47 48 52 48 46 45 46 46 44 43 42 45 41 44 27 76 161 170 172 177 176 179 179 185 182 178 169 170 174 167 167 160 156 148 149 147 150 150 149 150 156 157 149 154 145 150 145 150 157 153 155 156 153 156 160 171 163 161 155 151 151 149 142 140 136 140 139 144 144 147 144 142 144 149 157 163 164 171 172 170 175 168 162 162 164 162 161 157 155 158 151 50 46 50 48 52 44 47 46 41 48 42 44 43 41 43 43 26 89 157 167 172 174 172 180 186 184 172 163 169 173 173 163 163 152 151 154 145 150 155 150 161 160 159 151 153 150 149 149 155 156 155 157 159 156 158 159 163 157 151 152 144 141 145 140 138 141 140 142 147 151 146 149 148 149 148 160 166 169 172 170 170 175 170 167 163 165 163 161 157 155 159 149 44 51 46 48 47 48 43 46 40 46 40 41 41 40 41 42 44 21 84 153 166 165 175 172 182 182 177 176 176 181 178 175 172 153 152 151 148 150 152 157 158 151 150 151 151 154 151 148 157 153 156 160 168 163 166 161 155 148 146 142 141 140 135 137 135 143 145 145 152 149 148 150 149 154 155 161 171 171 170 171 169 172 169 167 166 160 161 165 156 154 153 161 46 50 49 46 48 42 45 46 42 43 42 43 39 42 40 44 39 44 23 73 157 162 163 169 179 179 178 190 185 179 171 176 177 161 160 154 151 154 151 155 147 146 150 147 150 150 145 157 157 159 149 164 162 161 166 156 151 145 139 135 133 131 133 136 139 143 152 148 153 151 153 144 152 163 157 165 175 172 171 170 172 168 169 166 164 163 162 161 157 152 153 168 45 51 44 44 44 44 47 43 43 45 40 43 42 39 41 40 44 40 37 33 64 146 162 161 174 181 179 186 186 176 170 172 181 169 169 164 153 157 151 154 149 149 153 146 147 146 145 159 161 164 151 164 164 148 151 148 141 136 137 129 131 134 132 139 146 148 150 151 153 148 151 149 161 164 163 170 170 167 169 171 176 166 169 167 166 163 163 155 155 151 150 175 48 48 49 44 48 43 49 43 44 43 45 37 45 40 42 42 47 43 43 41 25 49 154 157 169 168 183 180 187 185 186 183 185 177 169 169 159 155 156 155 154 150 153 153 150 152 153 160 156 163 151 157 158 147 140 136 131 130 132 132 132 134 138 142 143 145 154 149 154 152 151 155 165 167 164 167 165 170 174 175 169 168 169 166 165 165 161 162 158 155 151 174 44 49 46 45 45 48 43 44 44 47 40 42 42 39 41 40 42 43 43 43 41 11 136 148 159 161 169 181 180 181 189 186 182 178 177 166 163 164 159 153 158 152 154 156 151 155 151 159 158 155 156 147 144 140 129 125 128 128 127 131 135 138 143 149 149 148 153 155 152 153 153 155 164 168 170 165 167 170 173 173 167 166 168 164 164 162 160 160 157 154 149 177 45 50 47 46 43 49 42 41 45 43 42 42 42 43 39 43 41 40 45 47 32 11 140 148 146 155 153 169 174 171 169 173 172 170 173 166 163 166 162 153 158 152 149 153 149 156 147 152 146 151 144 138 134 126 122 128 128 130 133 136 141 145 146 149 156 154 153 155 153 147 164 161 168 167 172 162 176 173 172 167 170 166 166 166 165 161 161 159 156 151 151 174 51 44 47 45 45 45 45 45 44 45 39 44 39 48 37 41 41 42 40 47 24 14 143 147 151 149 144 157 159 164 158 156 161 162 160 161 160 160 160 154 153 154 152 148 150 150 147 139 141 135 131 128 129 124 130 133 134 137 137 147 150 155 154 148 155 158 159 159 159 150 163 162 168 171 172 170 172 168 171 165 171 164 164 166 163 162 157 159 156 153 151 176 49 49 46 45 46 45 48 47 44 45 43 41 40 41 40 40 39 43 47 38 16 23 145 149 149 154 155 145 147 147 158 153 157 155 159 156 155 155 157 154 154 148 153 148 148 145 136 134 138 130 128 130 138 131 138 138 142 140 148 156 154 159 163 151 156 166 163 159 158 161 161 165 166 169 175 171 171 171 172 168 169 167 164 163 163 159 161 155 156 154 152 175 46 48 47 42 49 46 48 49 44 43 46 37 40 40 41 46 42 40 44 30 20 23 148 147 151 152 160 167 165 150 149 148 146 154 153 152 151 153 152 147 153 140 146 145 143 139 134 135 138 139 138 144 145 147 142 142 151 153 151 159 163 164 160 159 161 159 164 163 160 162 166 167 167 167 174 169 168 171 169 167 167 173 164 163 165 158 160 155 156 157 150 174 49 50 43 43 46 44 50 46 42 44 44 42 40 40 40 42 43 41 41 28 19 17 148 149 149 154 156 163 167 169 171 163 163 148 154 146 145 148 145 142 143 142 145 142 148 149 151 147 151 150 152 153 149 147 154 152 162 162 163 164 158 170 152 163 166 163 160 162 161 165 164 156 162 161 175 173 166 169 167 170 167 174 167 164 164 162 159 156 155 158 153 169 