P2
92
112
255
41 47 47 46 44 49 48 58 61 49 58 65 86 55 84 88 72 50 56 60 77 81 75 68 59 45 56 64 64 58 64 74 73 73 78 83 89 98 102 107 109 121 123 125 114 115 112 107 115 106 98 89 79 81 67 67 63 72 68 81 96 111 92 66 77 74 76 72 64 71 55 72 87 86 92 84 89 87 84 59 45 54 49 46 50 48 52 45 48 52 46 49 44 43 43 43 53 46 37 35 43 49 50 66 72 48 79 88 65 52 59 69 76 72 71 67 69 57 53 62 71 79 86 87 91 93 103 100 110 123 129 133 137 141 146 146 142 132 134 132 132 127 120 112 102 86 81 81 75 66 63 59 82 103 108 95 77 79 84 70 65 60 60 66 78 83 91 77 66 75 84 50 44 48 43 45 48 50 51 47 48 50 49 46 48 47 46 46 50 45 34 39 48 48 57 61 49 41 81 87 64 44 60 81 59 53 57 55 78 77 80 91 99 103 108 109 113 111 113 117 135 133 144 148 144 151 155 151 153 156 159 155 155 148 140 135 127 113 107 100 94 87 70 74 65 91 104 106 83 76 81 87 63 55 57 70 73 80 83 79 72 80 83 74 59 45 41 39 48 49 52 47 48 50 48 47 44 46 45 48 45 44 40 53 57 55 55 49 35 45 90 84 41 54 77 64 64 63 74 80 86 93 100 110 117 118 126 126 126 134 131 140 148 151 156 153 152 153 156 161 162 171 173 173 172 170 163 155 149 144 131 120 109 100 95 89 78 77 99 93 93 73 87 73 70 68 64 68 71 68 79 75 67 74 77 84 81 57 43 35 41 50 52 50 49 51 49 49 50 48 51 49 46 45 35 54 63 55 45 43 37 51 76 48 51 69 68 64 69 76 81 96 103 112 117 123 126 128 129 132 135 143 142 151 158 158 162 161 163 161 163 165 165 171 178 180 179 177 175 175 169 164 156 145 134 118 111 103 92 81 104 82 84 80 77 87 79 67 55 63 73 72 76 68 66 76 66 80 84 61 56 37 34 43 51 50 50 50 49 53 46 50 44 51 46 44 50 61 53 52 30 40 45 64 51 63 65 62 58 69 77 91 106 107 117 124 128 131 136 136 138 144 149 153 156 161 163 163 166 167 169 172 172 170 173 174 179 178 180 177 178 175 174 171 172 163 155 142 133 120 112 103 100 88 80 76 76 76 82 73 51 55 79 70 81 55 64 69 54 68 65 55 59 49 40 36 43 49 51 49 50 50 46 48 45 53 42 57 58 57 41 41 37 38 46 61 85 61 64 60 64 91 100 103 116 123 133 135 138 141 146 147 150 155 156 159 160 167 166 165 166 169 175 176 179 175 175 179 181 182 178 180 179 176 178 179 182 179 172 167 156 139 129 119 114 103 77 90 81 74 75 83 65 65 84 73 74 62 72 61 61 64 57 49 43 39 39 33 34 48 50 50 50 49 44 47 51 43 50 67 58 58 52 39 32 39 52 80 78 67 63 76 88 102 107 115 129 137 139 142 144 146 149 150 157 162 161 163 164 165 169 167 173 179 181 182 181 184 180 182 182 182 190 190 190 181 191 198 200 198 188 184 173 160 145 136 123 121 92 96 84 95 75 71 75 82 89 70 75 71 80 68 64 72 68 63 51 42 36 34 24 33 52 55 49 53 46 48 41 50 68 67 61 50 47 47 35 48 62 81 74 71 73 90 102 111 119 129 137 140 144 144 147 151 154 155 163 166 165 166 170 175 176 175 179 189 192 195 193 190 188 184 184 182 191 192 191 192 199 206 210 211 208 191 183 173 166 151 139 125 117 95 96 93 84 70 63 85 72 70 77 75 65 69 63 65 69 58 57 60 47 43 29 31 42 50 51 48 50 45 39 66 67 61 54 50 50 43 48 51 87 81 77 69 91 102 110 124 130 136 143 142 146 146 148 153 159 161 166 165 170 169 172 176 179 185 186 191 192 204 201 198 199 190 188 188 191 195 200 199 202 206 212 204 207 198 183 175 169 167 152 141 126 110 99 94 86 74 70 66 73 86 82 62 85 72 60 53 62 71 55 61 62 45 39 35 43 50 50 49 51 47 42 57 65 63 47 62 52 53 64 48 81 90 75 81 107 109 123 133 133 141 143 146 152 146 151 151 160 162 169 171 178 174 176 181 184 186 196 196 198 204 202 202 199 189 188 189 189 191 201 195 207 206 213 204 204 195 192 171 172 166 159 158 141 119 114 97 92 80 68 65 74 84 83 84 69 78 72 62 50 78 53 51 67 62 50 36 47 51 53 52 47 52 55 51 78 59 54 50 56 67 54 80 101 97 84 101 113 125 133 136 140 145 147 147 153 155 152 157 160 160 167 170 180 172 177 184 188 197 195 198 202 203 200 196 194 196 188 189 190 187 197 194 205 207 207 205 198 192 188 179 175 167 164 161 162 144 123 110 109 99 86 73 77 80 72 82 93 62 80 68 57 86 53 53 46 47 45 46 49 54 48 51 48 47 49 51 56 58 72 60 55 46 69 92 109 86 102 118 120 133 135 141 145 142 148 155 156 151 156 159 162 163 166 171 173 181 172 188 183 196 191 198 198 197 196 199 198 194 185 191 187 182 185 189 198 203 203 199 189 198 187 179 180 165 165 161 160 159 152 143 120 109 109 85 76 77 89 69 88 88 71 68 70 62 63 47 45 49 38 48 41 58 52 45 50 52 38 52 71 70 87 63 38 63 85 78 99 102 120 127 130 137 139 143 146 149 151 155 154 159 153 161 167 171 167 166 177 179 174 189 191 196 193 197 193 195 194 200 192 190 185 181 185 185 191 188 197 195 196 199 191 198 177 181 175 167 168 164 163 157 155 162 153 140 120 108 89 86 99 96 65 82 76 64 62 60 56 51 54 51 45 46 58 45 56 50 50 48 37 67 82 76 96 65 61 64 59 79 105 123 132 131 135 136 140 144 149 153 154 156 159 156 161 159 163 169 170 171 170 177 180 182 196 190 190 191 188 187 199 199 188 191 184 185 186 186 188 190 192 193 193 187 185 191 182 179 176 168 167 163 160 157 156 158 160 157 143 123 110 92 105 95 65 65 76 63 55 62 55 48 50 49 49 47 45 65 45 55 48 46 43 61 65 67 49 67 48 55 74 107 124 132 137 131 136 140 143 146 149 151 155 157 161 160 161 162 165 167 170 172 173 177 177 187 190 195 189 195 197 198 197 202 195 190 188 188 183 193 188 191 192 187 195 188 190 184 178 180 177 171 168 167 160 160 156 156 157 156 155 141 119 110 111 107 59 59 59 63 56 47 61 55 44 45 47 49 34 63 53 47 47 45 45 49 49 51 42 57 57 70 97 117 132 135 136 134 137 141 145 144 153 153 159 153 160 159 160 163 164 166 168 173 174 174 177 188 189 190 187 194 200 202 199 200 196 186 186 189 184 191 189 197 195 198 193 183 185 182 172 177 175 174 170 165 165 161 162 159 151 154 155 148 136 115 110 109 86 56 69 61 52 57 50 75 40 47 49 50 39 45 54 49 50 48 57 51 43 42 45 58 59 79 102 122 133 135 134 139 138 144 146 151 152 156 159 155 160 161 162 161 166 166 168 171 174 175 180 188 194 192 189 196 198 197 196 199 191 190 187 188 185 183 189 197 198 195 195 188 188 181 179 178 175 175 172 170 171 167 162 163 155 152 151 147 144 122 121 99 98 64 73 87 51 68 42 64 65 41 49 45 48 40 50 49 51 57 85 57 36 49 48 60 65 77 109 125 131 135 137 138 143 146 148 152 153 156 158 151 160 160 160 162 163 163 166 168 172 176 180 187 196 191 199 197 198 193 195 199 194 188 187 186 186 186 186 195 195 196 196 191 189 187 182 182 179 175 174 171 171 167 163 162 161 152 152 148 150 131 113 105 92 72 61 73 77 52 48 49 62 60 48 43 49 48 47 48 44 78 84 57 38 60 62 65 66 84 108 129 133 135 140 144 146 149 146 151 158 155 156 156 157 159 162 164 166 164 165 172 172 176 179 186 189 194 189 194 196 196 193 194 188 187 188 187 187 185 186 188 188 190 192 191 194 191 187 182 179 181 177 172 173 169 163 162 160 155 152 148 153 138 113 102 99 83 66 63 73 51 39 42 64 48 48 47 46 53 45 49 51 81 65 61 54 72 68 66 66 89 110 128 132 139 140 146 147 152 151 155 157 159 151 160 161 160 165 167 164 165 168 172 173 176 191 181 185 185 177 185 193 192 194 195 188 193 187 187 184 185 187 189 190 191 186 186 187 184 185 182 183 182 175 174 174 169 165 167 163 155 152 155 148 143 114 97 96 87 76 74 75 62 46 35 55 63 32 42 48 54 45 47 53 70 62 65 66 77 66 75 66 85 110 128 133 141 143 148 149 152 155 151 156 156 151 157 161 161 164 162 163 164 168 172 170 175 186 191 183 196 187 186 192 191 189 189 193 185 190 188 183 183 184 187 187 186 184 188 188 188 190 184 185 183 176 172 174 166 166 165 163 155 152 151 155 133 128 98 94 91 76 70 76 69 55 43 38 72 40 37 41 53 48 49 64 78 57 62 63 78 74 62 69 98 112 125 135 143 147 149 154 152 152 153 157 154 155 155 160 161 165 163 162 163 169 170 170 173 181 186 183 181 186 190 186 187 190 187 196 189 181 186 185 182 182 185 188 187 190 191 187 191 180 187 184 183 179 177 170 169 166 164 163 155 156 151 145 135 128 105 90 91 69 68 71 75 53 50 34 55 48 34 46 47 47 52 75 68 51 48 53 79 78 65 79 96 107 123 140 145 146 154 154 150 154 155 155 155 154 156 164 161 166 167 167 166 168 168 168 174 181 177 187 174 178 183 187 182 188 184 183 192 185 182 182 181 181 182 184 182 182 184 187 185 189 188 186 179 179 177 173 168 170 163 164 160 153 156 143 132 129 113 94 78 63 63 60 72 82 53 43 37 44 28 50 52 47 48 72 59 43 45 56 82 70 70 78 98 109 121 143 149 149 153 154 155 152 155 156 157 159 158 163 161 163 162 168 169 171 169 172 179 175 183 179 182 181 184 185 185 180 183 184 187 183 183 185 182 180 180 180 180 176 184 186 177 183 186 182 184 184 176 176 171 171 160 162 161 153 156 155 128 128 108 101 88 67 49 85 67 63 61 41 39 38 32 44 57 46 47 78 43 49 65 74 77 64 68 80 89 116 131 150 152 152 153 154 154 156 159 158 161 158 161 160 163 163 164 162 168 168 170 171 176 179 183 179 181 182 175 185 174 180 177 179 183 183 182 180 178 179 177 184 178 175 177 180 180 181 179 184 180 181 180 177 170 169 169 163 160 154 160 147 146 119 118 91 88 71 61 50 100 63 59 46 35 46 40 43 55 45 44 71 39 72 78 70 64 60 68 79 103 120 138 152 152 154 153 155 153 155 159 159 161 159 163 162 165 159 163 167 168 169 171 171 172 182 177 182 179 179 183 179 177 179 178 179 183 182 182 180 174 176 169 180 171 171 172 175 175 175 178 179 180 182 176 174 170 167 168 161 164 156 156 158 146 132 109 96 79 68 69 54 81 63 65 56 40 46 46 42 54 46 45 49 43 63 75 70 70 64 83 86 112 121 144 153 155 157 156 155 154 157 160 160 164 160 165 170 164 162 162 164 166 169 172 171 176 182 178 183 182 177 180 180 175 181 177 182 182 176 179 181 174 175 171 175 172 170 165 170 171 170 173 172 180 178 179 177 179 172 169 162 160 156 155 155 147 135 115 101 81 69 71 78 64 64 53 55 45 49 48 47 52 48 45 50 48 57 79 80 72 84 80 90 108 123 147 153 155 154 154 153 152 156 159 158 163 160 166 169 165 164 161 167 168 169 172 170 175 182 182 184 184 184 183 181 182 181 182 185 180 179 180 178 174 176 174 170 171 167 161 168 167 165 173 165 171 177 180 180 179 177 168 164 156 157 152 155 154 135 120 106 81 76 77 77 54 56 53 36 56 40 59 42 52 45 41 51 39 79 81 78 82 70 75 95 108 130 152 154 155 154 152 149 152 157 160 159 164 163 162 162 162 163 164 169 169 166 172 168 180 178 185 187 188 189 186 182 175 179 183 182 183 184 180 176 173 174 171 169 170 165 165 163 163 162 167 165 161 173 172 177 171 175 172 164 160 155 152 153 153 144 119 108 84 73 92 77 65 46 44 43 44 41 50 52 51 42 47 37 46 83 63 76 78 67 77 98 114 138 157 152 153 152 148 149 154 156 159 157 162 165 160 161 163 160 164 165 162 167 173 171 181 181 184 187 186 192 193 184 182 184 185 181 185 183 181 170 167 167 166 163 159 157 157 155 155 156 161 161 157 166 165 164 168 163 173 170 160 156 153 149 152 151 122 110 78 80 73 66 76 62 38 38 43 56 45 58 48 46 40 53 54 64 55 83 82 75 85 104 116 143 155 149 150 146 148 151 151 153 159 160 160 164 162 158 162 159 159 154 160 162 170 170 177 179 179 182 185 181 190 183 183 186 182 179 184 177 175 167 158 159 153 145 134 128 135 136 134 137 144 146 148 155 157 158 160 156 162 169 165 156 153 150 149 151 130 105 84 77 85 67 47 67 39 47 36 67 43 52 46 47 42 67 63 55 69 83 90 90 94 102 125 149 156 152 145 144 152 145 144 154 157 155 159 159 152 148 151 148 152 145 147 152 157 156 166 163 167 170 178 180 187 186 184 181 176 181 179 171 170 165 160 155 145 133 126 122 114 120 124 131 126 128 137 137 146 160 155 148 152 159 158 165 153 149 146 151 135 114 81 76 89 91 61 45 49 49 39 66 47 53 49 42 46 75 70 68 72 87 86 93 103 112 143 152 152 145 145 145 150 129 141 149 151 146 147 146 138 134 136 132 132 142 143 146 149 160 154 154 155 162 175 173 185 180 183 175 179 177 177 172 167 162 158 156 148 136 130 123 111 112 115 125 117 117 127 131 142 150 150 139 140 144 152 153 154 150 143 147 137 113 75 79 88 83 80 48 45 59 40 59 63 52 48 48 42 71 59 66 57 71 76 93 103 121 145 156 146 143 145 148 136 128 141 144 150 141 135 129 126 129 126 142 135 143 145 137 147 154 149 152 153 160 169 168 174 184 183 178 174 176 171 169 169 161 160 163 151 136 132 128 127 120 118 126 136 140 131 130 142 142 142 136 141 135 136 144 146 150 146 145 143 111 86 65 86 90 74 44 55 59 44 54 49 61 46 45 42 54 59 49 49 57 84 91 103 121 153 151 148 140 146 145 131 135 142 138 144 129 117 117 115 116 120 124 130 142 133 147 162 152 147 153 157 161 170 174 172 175 177 174 166 175 172 169 172 167 161 163 161 146 138 140 136 136 144 155 156 161 153 150 149 160 154 150 149 139 137 138 144 148 140 144 145 117 85 63 81 78 71 43 61 48 48 45 41 53 49 47 45 57 65 38 61 60 71 95 102 135 151 151 145 144 144 141 139 141 137 137 143 142 134 132 134 124 125 134 130 137 143 154 160 158 161 171 165 167 171 176 171 171 178 176 170 172 171 170 170 172 175 172 171 160 153 149 150 149 157 163 168 170 170 166 162 164 161 163 155 154 148 138 140 145 144 143 147 131 83 57 101 66 60 44 63 53 39 60 41 47 52 40 44 54 76 44 59 73 67 87 97 139 151 146 143 140 141 136 134 141 141 136 145 143 145 153 160 160 155 153 152 151 154 157 154 162 175 180 176 178 180 179 173 170 175 184 182 175 171 162 168 179 176 178 171 157 152 146 149 145 153 151 168 171 170 169 166 162 166 166 159 159 151 146 140 137 144 142 148 138 84 65 97 57 67 40 66 58 33 73 61 40 49 43 45 65 67 49 51 82 67 84 87 140 153 145 140 141 131 132 138 144 155 157 159 163 171 158 172 170 167 167 159 155 152 150 154 159 183 185 187 183 182 178 173 168 176 185 189 186 173 162 167 171 183 178 164 154 149 143 143 148 150 158 162 166 165 165 165 168 167 169 167 166 161 151 145 137 148 142 146 149 94 71 98 61 63 34 76 50 41 54 67 47 49 47 47 73 58 50 43 73 79 84 88 135 150 143 145 135 135 134 149 153 163 165 168 169 171 171 171 167 169 165 161 154 152 151 142 149 171 186 183 189 179 177 170 168 172 182 188 196 181 165 166 167 178 184 160 146 140 136 132 138 132 136 140 152 155 156 161 173 171 168 171 173 171 159 146 147 148 143 143 151 105 76 87 58 66 39 56 66 45 56 48 46 51 47 49 88 50 62 47 74 85 77 84 138 148 137 142 132 142 142 156 165 167 170 173 173 174 169 166 171 163 161 150 147 147 147 139 140 148 181 180 182 178 173 166 164 167 181 182 197 178 167 160 159 168 182 154 140 120 114 109 117 120 116 103 113 118 112 118 139 153 167 173 172 176 164 154 151 148 145 141 151 129 75 80 51 67 45 43 70 49 49 45 38 48 49 48 87 53 75 58 60 83 69 75 135 146 139 142 141 148 155 172 169 174 173 177 171 169 167 168 161 148 132 126 121 125 131 133 135 131 153 169 174 170 171 162 158 156 173 180 182 179 169 153 154 150 166 153 119 109 111 105 104 118 110 60 104 74 59 67 80 105 141 152 164 175 164 158 154 153 147 143 145 148 79 76 60 50 60 42 56 59 54 36 35 48 45 48 81 61 85 72 49 78 69 59 130 144 138 141 148 150 159 180 182 179 174 177 172 159 156 146 144 125 108 108 111 105 107 109 116 148 140 155 160 166 165 156 156 162 168 180 168 191 167 156 148 132 161 138 122 105 107 114 136 172 135 83 108 115 21 76 49 94 89 126 141 161 168 157 155 158 150 144 144 157 93 75 55 51 54 51 52 47 55 42 32 49 41 47 69 64 70 68 50 83 75 51 124 145 140 150 155 157 169 185 189 183 176 167 152 120 97 89 82 87 77 80 106 99 102 110 116 113 166 137 148 158 157 153 152 158 168 180 170 197 170 154 148 130 138 115 118 101 124 140 155 188 157 81 93 70 39 103 60 147 135 71 105 135 156 155 156 158 156 148 143 155 116 62 58 50 48 62 56 52 54 47 34 44 45 46 61 74 62 64 50 98 84 45 124 143 142 154 161 164 179 193 191 178 160 136 116 73 86 38 173 77 97 67 149 129 101 99 106 126 134 135 143 152 152 157 148 157 168 177 182 201 175 153 156 137 126 101 111 120 106 137 145 175 183 98 87 102 72 165 119 162 146 90 82 111 129 163 152 158 158 151 148 150 137 69 66 44 57 59 62 63 55 58 40 43 47 46 62 68 61 58 46 101 87 42 124 145 143 159 166 170 187 190 185 174 120 90 135 75 73 45 96 60 98 63 147 167 129 109 112 95 122 130 143 150 150 156 150 155 158 176 181 209 178 160 159 151 127 109 118 119 126 131 131 135 160 145 115 88 76 96 134 132 124 118 116 90 120 149 155 161 160 156 152 146 154 89 59 55 47 66 48 58 57 62 45 46 48 45 72 59 55 65 50 75 90 43 127 142 149 165 168 169 186 172 156 112 91 140 182 121 79 89 47 76 92 79 145 150 124 125 111 101 112 133 140 152 153 151 151 156 158 172 183 207 177 166 156 162 146 122 124 137 146 147 142 153 157 135 138 128 112 108 125 123 123 129 126 109 109 121 156 157 164 158 153 149 154 108 74 52 58 56 49 54 49 76 46 47 45 43 63 50 41 79 47 61 90 45 128 144 152 169 172 172 179 154 114 76 111 168 185 200 93 77 83 85 92 106 131 124 128 127 125 111 125 136 142 153 157 152 154 157 166 181 193 205 178 161 160 158 157 145 129 136 142 141 147 150 152 141 142 149 138 138 142 155 141 143 140 139 131 118 140 157 164 163 156 150 153 125 89 50 59 53 58 56 47 82 50 44 45 44 63 48 49 75 48 59 97 54 134 144 155 170 173 173 170 130 107 112 113 110 161 172 134 93 109 132 129 137 140 140 143 137 128 128 140 142 149 157 156 152 155 158 165 189 196 203 181 166 161 163 158 158 148 135 140 148 145 138 149 150 144 145 143 146 152 158 159 156 159 166 160 152 144 161 168 165 162 155 148 147 79 67 50 63 56 64 48 68 57 45 45 44 50 50 72 90 56 59 90 70 140 148 157 164 173 185 160 123 126 140 130 115 120 120 129 137 123 155 152 144 140 143 142 137 138 145 144 148 154 159 153 153 157 163 165 190 192 197 183 171 162 162 164 159 162 155 142 140 155 154 147 150 149 147 151 150 152 152 159 163 164 172 168 167 164 164 170 168 163 158 152 158 84 69 51 66 59 61 56 57 64 41 48 43 47 50 62 104 54 55 72 84 144 147 159 164 173 179 142 127 142 150 147 144 144 142 151 158 147 147 148 150 141 146 144 142 150 149 150 154 158 160 156 156 158 160 162 187 200 200 182 176 163 160 165 160 163 160 160 145 149 159 157 160 153 154 151 152 155 155 165 166 167 170 170 169 169 172 172 172 163 163 153 159 104 77 57 72 67 69 51 53 87 40 49 46 45 49 44 92 61 50 69 104 141 151 161 163 171 161 133 137 155 170 177 171 168 161 157 157 148 151 148 150 146 147 148 152 150 149 152 156 159 160 159 155 154 155 164 185 195 207 191 177 165 164 166 162 161 165 165 158 149 153 156 161 160 160 157 158 164 161 169 171 173 169 172 169 172 169 170 168 166 162 160 155 128 60 69 76 80 63 37 57 70 67 42 45 49 58 37 93 70 55 67 115 145 151 161 164 166 149 143 147 160 168 171 168 165 161 160 155 148 151 153 156 153 152 153 154 152 152 154 160 160 161 158 147 144 156 164 181 195 206 196 177 168 165 166 167 164 164 168 159 162 159 159 160 163 167 162 164 174 173 175 176 176 175 173 172 172 171 168 168 168 163 159 147 159 57 71 89 68 27 45 94 99 86 48 44 47 56 45 67 72 61 59 125 146 153 162 165 156 148 147 155 161 165 165 161 157 154 157 155 153 154 158 160 155 156 155 158 157 155 159 166 161 157 152 148 149 158 169 184 192 207 191 171 167 162 167 164 171 163 170 164 167 169 168 170 175 170 168 171 169 174 183 181 183 174 174 172 170 170 167 163 168 161 162 150 156 82 70 84 28 55 139 182 173 157 92 37 50 47 58 57 82 70 56 130 147 156 163 160 153 151 153 158 162 160 162 156 156 161 153 159 158 164 157 157 154 160 158 158 157 165 168 163 155 148 151 150 156 167 178 188 194 205 193 177 167 160 165 159 171 174 172 168 172 164 175 170 179 178 173 174 169 173 173 175 176 173 171 167 170 169 168 164 163 160 159 149 151 118 88 67 81 144 172 185 183 162 173 63 49 39 73 47 101 79 61 132 149 159 162 158 157 152 156 156 163 162 160 159 160 156 158 158 159 158 156 153 155 157 156 157 161 173 169 152 144 146 154 155 160 172 187 200 193 200 196 179 167 164 162 158 163 180 180 171 170 173 173 175 174 174 173 171 170 169 170 169 171 164 168 169 170 170 169 167 164 161 156 152 143 138 116 105 155 166 175 184 159 153 184 149 59 68 84 51 82 88 82 134 151 157 162 158 160 156 159 157 162 160 159 159 162 159 162 157 155 152 153 150 155 158 155 162 171 182 160 144 144 150 154 160 164 170 188 201 188 181 188 181 173 171 165 163 156 177 184 175 173 170 174 174 175 176 171 169 172 169 170 169 168 164 167 166 172 170 167 168 167 160 155 151 147 137 128 141 164 171 179 155 130 141 139 204 119 131 122 94 69 95 90 139 154 157 161 162 159 160 159 159 159 159 160 160 161 159 152 153 150 151 152 154 158 159 163 168 179 179 146 144 152 157 164 168 169 169 179 190 180 179 176 178 174 169 167 164 159 169 183 178 175 174 174 173 177 178 173 173 172 170 170 168 168 170 165 170 168 170 167 166 167 163 154 154 143 140 132 154 171 178 154 136 143 140 145 168 156 150 153 144 107 100 108 139 150 156 161 160 160 156 161 159 159 161 161 162 159 154 156 154 155 153 159 155 160 162 167 176 178 168 143 149 162 168 171 178 181 174 188 207 185 175 177 176 171 171 168 163 160 160 176 178 176 174 176 166 179 179 173 171 173 172 172 170 169 167 167 168 168 166 168 171 168 164 158 154 144 138 139 158 175 169 132 158 159 151 152 127 170 167 173 167 148 129 131 143 148 155 160 160 157 163 156 160 162 162 157 162 157 158 160 153 158 157 159 158 162 165 173 175 172 157 146 156 168 181 180 179 192 174 175 190 176 180 185 165 170 174 173 165 163 158 166 176 180 181 177 172 176 174 176 174 176 172 171 170 168 168 170 170 167 168 170 171 165 164 157 151 143 141 132 161 182 130 131 167 166 182 141 129 128 147 182 183 170 157 149 140 150 154 161 156 160 163 160 161 166 158 161 160 160 162 158 163 159 159 162 163 169 168 177 171 169 155 153 165 178 187 183 164 197 190 176 181 171 186 165 159 170 175 179 172 170 160 160 172 184 181 174 175 176 173 172 178 172 173 171 165 173 167 170 164 166 164 166 166 165 162 161 151 142 142 130 162 181 105 119 148 176 189 158 126 122 154 147 186 189 178 156 139 146 154 159 160 165 161 166 165 166 160 161 155 165 162 164 165 163 161 165 166 175 175 179 176 160 155 168 184 193 193 178 172 178 199 186 180 180 179 164 163 161 164 175 181 175 163 157 165 180 179 177 177 178 170 166 177 174 172 171 168 170 171 169 164 163 169 164 164 166 160 159 153 142 146 130 160 171 101 126 164 183 187 182 120 126 160 164 136 183 193 160 137 149 155 157 161 167 166 165 167 163 159 159 158 164 167 168 160 163 163 170 168 173 178 176 167 158 157 180 195 194 120 70 119 173 185 185 178 175 178 156 124 70 55 125 179 180 166 156 155 176 179 181 180 183 179 174 174 170 172 176 171 172 175 168 164 167 168 165 162 164 163 161 149 142 144 135 159 155 141 160 183 180 178 188 132 134 158 157 161 117 200 166 138 148 156 160 165 168 162 164 162 164 163 162 165 166 164 164 159 162 164 168 172 175 178 177 167 155 164 188 197 146 84 37 95 129 180 183 178 176 172 124 118 71 61 80 153 173 167 152 157 173 179 180 180 179 180 177 175 173 171 174 171 176 176 171 168 168 170 170 166 163 168 156 150 145 144 137 145 99 165 181 179 171 173 182 163 147 157 150 150 104 168 173 140 144 158 163 168 168 165 164 161 165 163 165 168 167 168 159 162 163 166 169 173 173 178 174 168 157 164 185 183 129 130 131 159 155 148 179 179 180 151 140 153 143 135 135 127 155 161 141 157 178 180 180 182 178 177 176 179 177 171 178 173 179 175 171 171 170 171 169 168 166 162 157 152 145 146 135 140 66 83 136 149 155 163 176 183 150 153 156 140 125 134 177 141 145 158 166 172 169 169 166 168 168 168 165 171 167 169 162 164 167 168 171 173 173 174 173 164 159 160 173 165 131 159 173 174 180 162 180 182 181 156 158 167 165 163 152 139 144 141 132 157 182 181 181 180 181 178 179 177 179 176 179 178 179 175 172 172 168 170 170 167 165 162 160 153 144 149 131 159 112 108 97 121 137 151 163 183 148 161 165 161 148 152 165 142 147 158 163 175 168 168 172 169 171 171 167 175 172 171 166 166 170 168 171 175 172 173 169 166 163 136 142 143 138 155 171 159 165 166 179 185 172 157 160 165 160 155 148 131 124 132 151 174 182 186 183 182 182 177 181 178 178 180 182 182 178 180 178 173 169 168 171 169 162 167 158 153 144 148 133 159 141 130 120 113 126 140 154 179 158 168 171 183 179 152 103 149 148 154 167 175 168 167 174 171 173 172 172 172 172 170 166 168 169 168 171 174 174 170 169 170 165 144 128 134 139 150 159 157 161 165 174 175 165 157 164 161 158 149 136 131 135 157 166 180 183 189 184 184 182 180 180 180 176 179 180 175 182 183 176 174 173 170 171 171 164 166 161 150 144 148 134 156 153 127 137 123 122 143 150 179 162 166 161 154 143 96 98 145 151 151 167 170 169 170 173 170 176 173 177 177 175 172 163 173 168 172 171 175 171 169 173 172 168 151 140 150 147 156 158 160 162 166 173 172 162 159 162 152 152 144 138 137 147 164 170 181 190 189 186 186 185 183 182 180 178 178 177 177 180 184 175 173 177 173 173 168 167 165 159 152 144 149 134 151 162 104 149 127 125 146 153 183 165 154 144 129 107 112 140 144 151 153 167 170 170 170 175 175 178 180 176 179 174 175 169 171 175 174 173 178 173 172 171 172 165 145 144 145 145 152 155 157 159 160 161 165 157 157 157 144 144 142 135 137 156 163 169 180 192 188 187 186 189 187 182 182 183 182 183 177 184 184 179 174 177 174 174 169 168 165 158 150 145 149 131 156 151 97 142 135 132 154 164 189 160 149 133 119 109 142 161 141 151 157 161 169 169 169 176 179 181 176 177 174 174 179 172 175 176 174 177 176 175 172 165 166 160 142 141 141 140 142 151 152 152 156 158 163 155 156 148 142 140 136 135 144 159 164 171 184 190 191 182 188 189 188 182 169 182 183 186 182 182 183 181 176 178 174 171 170 170 164 159 148 145 147 133 149 124 116 162 143 137 167 180 189 160 146 128 115 126 159 174 143 152 154 161 170 170 168 178 179 182 178 175 177 177 179 176 178 177 175 176 172 172 170 163 161 157 150 140 142 137 139 151 149 148 155 159 159 151 155 147 141 139 138 150 158 164 169 174 184 182 188 182 186 188 189 183 177 182 181 182 186 175 182 181 178 179 174 166 168 168 162 157 148 146 144 141 115 131 171 177 155 172 184 182 176 157 149 127 118 139 137 188 147 150 152 158 169 173 171 178 180 182 179 179 179 179 181 179 178 177 171 174 168 171 168 161 159 154 151 146 148 150 150 155 146 151 148 156 157 154 152 151 144 145 144 163 173 171 172 174 177 180 182 182 184 187 188 184 185 183 183 180 184 180 178 181 180 177 174 169 167 168 158 153 147 142 145 141 106 165 193 187 183 183 180 182 161 157 145 129 125 150 118 182 158 151 155 155 167 173 176 181 183 182 185 180 181 184 182 179 180 177 176 174 169 167 162 159 155 153 154 156 159 158 159 155 148 153 149 145 149 151 149 154 151 160 168 174 181 176 169 169 174 175 180 181 183 181 185 185 186 186 184 179 182 185 180 183 179 176 175 171 170 167 163 153 145 142 145 136 144 186 187 187 183 179 166 166 166 169 152 130 125 152 121 126 171 149 152 157 164 171 177 180 182 179 186 178 183 181 184 180 176 178 175 171 166 162 161 155 154 161 157 165 165 164 160 156 153 152 148 144 142 145 139 150 157 170 178 182 183 182 179 170 181 165 174 175 178 178 183 177 185 187 186 182 184 184 182 186 178 173 176 175 170 167 160 153 146 144 146 135 150 182 184 183 179 167 161 166 184 187 175 161 141 151 151 94 160 151 153 157 165 169 174 179 181 183 185 182 182 180 179 180 181 177 172 166 161 163 156 157 162 164 164 171 169 164 161 161 160 157 146 143 143 137 149 159 163 170 183 179 180 183 178 178 181 170 174 179 173 178 183 180 180 185 185 184 185 182 182 185 179 168 172 171 170 165 158 151 146 144 140 134 160 176 178 175 171 169 173 179 189 174 196 188 165 159 173 136 137 152 156 156 166 167 177 180 181 185 185 186 182 178 183 182 179 177 172 164 165 166 160 165 167 170 171 173 174 166 160 155 157 152 146 149 149 146 145 149 150 154 167 175 181 183 183 180 181 171 179 180 177 176 180 182 175 186 184 185 187 182 183 179 178 174 174 172 170 162 158 146 146 142 138 127 165 175 173 169 164 168 175 186 153 145 172 188 164 170 171 173 143 151 155 156 164 167 178 177 180 185 187 185 186 182 185 180 176 175 168 167 164 166 172 176 172 170 178 176 170 164 152 151 149 146 136 133 137 134 133 137 135 138 142 151 166 174 179 183 180 180 180 181 179 178 181 181 177 182 184 183 186 181 185 177 174 174 175 172 170 162 154 147 145 142 132 125 163 178 178 172 164 162 171 148 81 168 151 154 164 178 175 178 157 149 152 157 160 170 177 179 185 185 189 186 186 185 183 180 178 175 165 166 170 172 177 180 177 175 177 177 158 157 150 148 145 142 134 126 128 123 130 131 129 135 135 134 137 150 165 176 180 180 180 179 179 179 183 180 177 172 184 183 184 183 180 176 176 171 173 173 171 160 155 146 149 143 128 137 167 173 175 174 153 145 126 69 49 186 171 155 173 172 174 172 161 142 150 157 161 167 172 180 182 186 187 188 186 185 182 179 180 176 165 169 176 180 179 184 183 182 181 161 151 149 139 138 135 130 117 108 103 106 111 119 117 123 124 127 126 128 141 160 176 177 178 179 180 181 182 182 181 175 176 183 183 184 180 177 177 172 173 171 169 161 154 143 147 142 126 150 167 163 156 139 101 74 51 41 44 160 183 163 170 173 166 162 163 147 143 157 161 166 172 179 180 186 188 187 189 186 183 180 181 177 168 173 179 184 183 187 190 181 160 141 136 128 112 103 99 96 92 84 79 83 84 83 89 86 95 104 112 117 121 128 147 164 174 175 174 180 179 182 179 176 174 184 179 181 179 179 178 170 170 171 165 160 153 144 146 141 109 111 112 90 83 64 47 45 44 41 40 47 163 177 171 178 174 172 173 168 139 156 157 166 170 177 181 185 185 186 187 185 181 181 182 177 173 176 180 176 174 177 176 156 136 119 114 102 95 98 102 105 106 102 98 97 98 95 92 92 91 86 94 98 106 107 118 136 147 156 161 169 179 182 177 181 177 181 182 180 181 177 176 173 169 169 160 161 151 146 145 145 53 44 46 44 47 42 38 42 41 43 40 36 53 119 147 179 188 187 185 184 150 153 156 167 166 176 182 185 184 186 187 181 182 184 181 180 177 179 178 164 151 153 149 130 117 106 106 116 117 123 134 133 134 138 139 138 149 145 140 147 145 134 131 115 102 92 97 102 113 124 133 148 170 176 180 185 178 179 180 180 179 179 177 175 169 168 164 159 151 147 146 127 39 38 38 41 39 42 38 39 42 41 41 48 44 43 61 99 142 166 181 180 167 146 159 163 171 176 179 183 181 180 185 181 183 183 184 180 177 178 166 144 125 115 118 111 119 126 131 132 131 137 146 149 148 156 154 150 154 162 158 160 156 150 149 148 137 127 127 118 113 111 122 148 163 165 178 184 181 182 183 180 181 181 175 173 170 167 162 161 150 144 149 101 27 41 39 40 39 37 39 36 41 40 40 46 45 47 43 41 52 66 86 101 80 124 159 158 172 174 180 181 181 187 184 188 185 186 184 181 175 167 156 130 112 110 121 130 133 138 138 140 137 147 149 148 148 153 154 149 152 157 157 159 151 146 144 147 145 147 151 157 153 145 142 160 164 165 175 181 183 181 181 180 181 179 173 173 167 166 162 156 150 143 149 62 34 40 40 37 39 40 38 40 40 39 41 43 48 40 44 42 45 46 43 49 33 69 165 161 166 176 182 182 183 187 186 186 182 190 190 179 172 162 163 149 140 145 150 149 146 151 149 149 149 152 156 154 158 159 159 155 154 159 157 154 151 147 150 153 154 155 159 167 168 167 157 171 172 163 169 180 178 182 181 176 178 175 175 173 165 162 159 153 149 141 142 44 35 41 39 39 40 38 37 39 37 39 38 47 43 46 42 42 45 41 46 42 44 25 165 158 168 176 178 182 186 187 182 185 182 187 190 183 168 164 166 166 165 167 169 165 169 164 169 173 166 161 159 159 161 154 156 155 151 151 151 152 152 157 159 163 165 168 171 174 176 175 171 175 178 168 170 179 179 179 183 174 176 177 174 169 164 159 159 147 149 136 140 29 37 45 40 38 38 42 36 38 41 38 36 45 49 43 42 44 41 43 39 44 47 9 137 157 168 168 175 181 186 187 184 187 183 185 191 188 172 172 170 173 176 173 177 182 184 182 188 185 179 176 174 169 173 170 164 168 170 169 167 167 164 169 165 173 173 173 174 172 175 174 176 176 179 176 177 184 179 182 180 178 178 172 174 166 164 162 159 146 143 134 137 31 39 40 40 39 39 37 37 40 35 39 35 48 43 42 38 47 44 40 41 42 38 29 79 163 163 168 179 182 184 186 190 187 189 187 190 186 179 177 175 174 175 173 174 182 185 183 186 189 183 173 171 168 166 166 163 165 170 168 172 171 170 171 167 172 168 172 173 175 172 175 175 172 176 178 175 181 178 180 180 175 176 174 169 164 160 160 153 145 140 130 134 37 39 40 39 37 38 39 35 43 33 39 38 42 48 43 40 44 41 39 44 40 38 45 36 161 163 167 178 184 185 188 191 188 189 187 191 185 183 182 180 177 171 175 173 176 180 178 180 184 179 173 168 169 163 160 156 158 163 164 166 168 164 167 167 166 165 170 172 177 174 174 177 173 179 179 172 177 182 180 179 180 170 172 166 163 163 160 151 141 134 125 138 37 31 40 41 37 37 38 36 39 35 38 42 47 43 43 41 43 41 39 41 40 44 41 21 130 159 164 176 186 186 188 188 190 186 194 192 187 185 181 185 181 175 175 172 174 175 182 173 178 177 167 167 166 162 156 151 154 153 156 163 163 162 164 163 165 165 170 173 174 174 172 176 178 179 179 172 176 181 178 179 176 168 167 163 162 162 151 145 135 128 124 138 40 36 41 41 38 39 37 36 40 37 37 36 46 41 42 43 42 43 39 43 42 42 43 36 63 164 162 172 182 184 188 191 189 193 193 194 192 189 183 188 181 180 177 177 178 182 182 178 178 173 167 162 162 160 153 149 157 156 156 160 162 162 164 162 164 167 172 174 172 175 171 178 175 180 174 170 175 175 177 176 172 167 163 161 160 162 150 141 132 123 124 141 39 37 40 46 37 39 41 38 37 37 37 36 42 40 40 44 41 41 41 42 45 41 42 39 22 146 160 167 178 183 186 190 187 194 194 194 191 192 186 189 186 182 180 180 185 182 180 182 181 178 168 159 156 159 151 151 155 155 151 154 156 159 160 157 167 167 172 173 174 176 171 178 177 173 173 172 174 174 172 168 167 166 163 159 160 157 151 135 129 123 125 139 44 34 39 43 36 42 39 42 35 39 37 36 43 45 37 44 42 37 40 40 39 40 42 38 29 68 159 162 176 180 185 189 190 192 199 196 192 193 187 185 194 188 184 189 187 186 183 185 182 182 170 161 156 157 152 148 150 152 149 151 155 154 161 157 165 169 170 175 177 171 171 172 175 174 174 168 169 175 171 165 167 162 163 157 157 155 147 129 126 122 129 141 49 32 42 36 40 37 40 39 36 40 34 39 46 41 40 41 40 40 38 43 37 39 41 39 46 17 137 156 166 176 184 184 191 192 200 198 191 188 178 184 187 192 188 189 184 187 184 185 181 179 172 162 158 156 151 147 149 153 149 151 154 152 160 158 162 166 166 172 175 167 171 170 174 174 178 170 170 170 169 160 164 163 157 155 156 147 136 127 127 124 125 141 58 29 38 38 39 35 38 35 36 36 34 37 44 40 41 42 39 42 38 42 40 39 40 39 41 37 59 152 165 170 179 184 188 194 199 197 195 189 172 179 185 186 185 185 182 183 183 180 180 174 174 164 159 156 154 150 154 155 151 148 150 153 157 157 159 165 165 167 170 168 172 174 174 171 177 171 172 168 165 156 163 159 157 151 151 143 128 126 129 126 126 141 58 29 38 38 38 35 37 35 38 35 35 34 47 40 41 41 38 42 37 41 43 38 39 38 41 42 24 112 156 169 172 179 187 193 195 196 197 189 176 180 190 185 182 180 181 180 177 177 175 165 167 161 159 152 156 155 155 149 153 147 151 154 153 159 159 161 163 166 165 168 168 171 170 170 174 170 167 162 161 160 161 157 156 150 147 134 123 131 128 126 127 142 60 29 38 37 37 37 36 35 38 35 35 37 43 41 42 41 40 43 37 41 38 40 40 36 41 39 42 33 139 159 170 173 183 188 195 196 195 193 185 183 182 183 179 176 174 174 175 170 168 161 163 161 158 158 155 158 153 152 152 150 153 155 154 160 163 163 166 169 165 168 169 171 167 170 166 164 167 157 155 158 157 153 151 146 139 124 126 137 130 127 129 142 70 27 37 37 37 36 40 35 38 39 33 38 44 41 39 41 42 40 42 40 40 40 38 39 39 41 43 28 65 149 162 169 180 181 191 188 191 188 184 182 176 176 180 173 167 170 164 162 160 158 160 158 158 155 155 155 157 153 153 156 156 157 159 162 168 160 168 162 158 167 169 170 162 166 162 161 163 160 156 154 153 154 148 134 129 120 135 137 131 125 129 139 87 24 40 38 36 40 37 35 38 36 37 36 43 42 38 43 39 39 40 39 39 36 41 38 37 41 39 42 19 114 151 166 172 181 186 187 189 189 185 183 185 176 173 172 166 168 165 161 161 158 159 161 156 153 157 155 152 155 157 156 164 163 168 163 169 163 165 159 159 164 172 163 166 162 166 171 157 159 153 153 152 151 137 130 122 126 136 141 130 135 133 145 88 27 41 34 41 36 34 34 36 35 40 32 42 41 45 40 40 43 40 39 39 39 38 42 39 42 36 43 25 96 152 154 164 170 181 174 187 189 187 180 180 180 165 166 167 166 162 162 168 161 162 160 154 153 160 152 155 155 158 163 163 166 164 160 162 162 169 165 160 168 164 166 167 163 165 160 158 152 145 147 148 139 131 127 124 131 141 141 131 134 134 143 101 29 38 39 38 39 38 35 36 30 40 33 43 47 43 40 41 41 42 40 38 42 38 44 39 40 42 41 34 68 166 145 156 163 169 178 185 180 191 184 182 182 165 163 161 165 161 160 166 167 161 157 154 152 157 155 156 155 153 162 158 160 160 159 160 161 163 164 158 162 165 167 169 164 163 156 148 146 139 143 139 127 127 123 126 135 144 142 137 139 142 145 112 25 42 40 36 37 38 35 35 33 36 38 45 50 44 39 43 41 44 38 43 38 43 41 41 39 44 43 36 48 158 162 143 154 161 165 176 175 178 190 185 184 163 170 162 168 159 160 165 168 164 153 150 155 154 157 152 158 151 152 153 152 154 157 159 157 158 155 164 165 160 169 168 167 158 148 139 136 137 134 130 127 129 122 132 139 142 142 141 136 147 147 128 28 34 38 36 36 39 35 34 38 36 34 48 41 45 39 41 40 42 40 39 40 39 39 44 40 40 42 38 37 153 160 157 142 146 160 165 169 165 180 185 191 185 182 168 170 165 165 166 168 167 158 152 155 157 151 154 153 153 151 151 152 153 154 158 153 154 155 166 165 166 168 160 160 148 133 134 129 130 123 130 128 125 123 135 141 145 143 143 141 148 147 135 27 35 36 37 35 36 39 34 35 36 37 44 46 42 40 42 38 42 39 37 41 37 39 40 40 42 43 35 27 146 157 160 156 136 147 150 163 159 164 169 183 189 187 182 182 169 171 165 165 171 168 160 154 152 152 155 153 149 151 150 150 150 152 160 160 157 168 173 170 174 163 152 145 139 131 127 127 127 126 133 128 121 129 137 146 148 150 148 142 151 148 147 33 29 38 37 34 35 39 35 37 35 35 45 43 41 41 39 39 43 40 40 39 38 38 41 38 39 42 38 26 138 155 157 159 149 140 143 153 155 153 156 166 180 193 192 192 190 174 167 168 174 173 170 164 156 158 159 155 150 155 149 150 154 156 164 166 166 174 184 178 158 153 139 134 129 124 122 127 129 129 138 127 122 134 142 148 152 153 150 146 152 148 149 41 29 37 38 36 38 31 37 37 36 38 45 45 39 42 38 39 40 37 44 37 37 38 43 38 42 40 38 19 131 157 153 159 162 142 149 142 150 150 150 153 161 179 185 194 201 188 183 178 176 174 164 167 161 161 160 154 154 157 152 150 155 154 159 169 169 163 174 169 152 138 131 125 124 119 123 130 134 135 132 129 130 139 145 154 157 151 150 149 152 151 155 56 26 39 35 37 36 36 37 37 36 37 47 45 42 42 43 40 41 41 41 41 38 40 47 38 43 40 40 20 122 160 155 159 160 153 150 156 145 142 144 144 150 157 171 180 191 183 187 178 177 165 158 157 158 160 157 154 158 154 151 150 153 150 148 149 159 150 154 152 136 125 124 117 123 125 130 132 138 138 133 129 136 145 148 156 156 158 150 152 156 148 158 63 28 35 35 35 35 35 37 38 37 35 42 44 44 40 43 38 40 39 36 44 36 41 40 40 43 42 40 19 116 164 156 159 159 165 147 160 154 150 144 142 145 148 156 163 168 165 171 168 163 164 155 158 156 157 155 151 156 155 153 149 148 146 146 147 142 144 136 138 123 118 121 124 127 131 136 139 140 139 134 134 144 151 152 158 160 159 152 151 153 152 163 60 24 36 38 34 36 36 38 34 38 34 43 44 44 41 39 41 42 38 41 43 38 39 38 41 41 42 39 22 106 164 159 158 163 164 158 151 159 157 150 149 140 138 141 143 151 150 153 151 159 162 151 158 155 154 153 156 152 152 150 144 145 143 141 139 134 134 122 127 120 123 126 127 130 137 137 140 144 136 136 139 148 155 155 164 162 159 152 154 156 149 167 60 27 35 37 33 37 39 36 36 37 35 45 44 45 43 42 41 45 36 44 41 42 41 40 42 40 41 42 22 103 164 164 163 160 166 166 156 157 164 159 156 149 143 142 141 138 145 142 145 148 154 145 158 152 151 147 153 149 148 145 142 144 142 140 133 131 131 123 123 128 126 128 135 133 137 144 141 141 134 139 146 156 157 161 163 167 158 158 156 154 150 167 64 23 39 35 34 36 37 35 37 39 33 46 41 47 44 44 44 44 41 40 40 40 40 42 41 42 40 45 23 93 167 166 169 161 165 175 162 154 162 159 159 157 155 149 143 144 141 144 142 146 145 142 146 146 143 141 147 141 142 138 137 137 141 135 129 131 131 127 125 130 127 132 136 138 134 141 141 136 139 150 151 157 163 159 160 167 164 162 155 158 146 164 68 27 34 35 34 36 34 39 35 37 38 