P2
92
112
255
128 123 128 119 127 122 126 125 126 124 124 122 120 112 108 105 89 91 92 84 94 103 95 82 69 71 80 84 87 83 90 90 90 83 64 72 48 45 52 75 73 65 67 69 70 71 69 74 86 87 85 92 93 89 79 85 90 92 94 98 98 101 90 100 98 97 93 89 83 83 86 90 97 104 107 112 119 122 118 120 122 121 123 120 118 120 121 120 120 120 118 119 125 122 126 124 126 124 126 127 125 125 122 124 119 102 94 82 88 80 68 73 87 93 87 77 69 67 72 71 73 80 78 79 81 81 61 58 58 72 79 82 84 81 80 76 74 79 82 87 86 87 81 71 71 72 76 87 96 92 87 96 91 94 92 94 95 97 100 92 86 82 82 77 80 85 93 97 105 111 114 119 122 120 122 119 121 118 121 120 122 121 121 119 124 121 124 124 122 125 124 122 126 124 122 121 117 100 85 76 73 69 65 72 75 71 82 69 63 62 65 69 72 77 76 84 91 90 74 68 71 82 84 78 73 70 69 69 71 78 78 74 84 83 77 75 72 77 76 92 106 96 86 94 84 85 85 90 93 100 98 91 84 76 76 78 71 73 85 96 104 113 118 118 120 121 122 118 122 119 118 120 119 120 122 120 126 124 124 125 125 123 125 124 127 127 121 113 101 81 76 66 62 65 74 78 69 61 55 53 55 51 56 55 57 66 64 67 61 58 56 55 53 60 59 61 59 58 56 58 61 62 68 66 75 82 87 89 86 93 100 95 88 79 65 69 75 81 90 97 107 104 98 89 74 73 68 68 68 63 73 90 92 107 118 123 116 120 119 121 117 122 118 121 120 119 122 121 120 129 121 124 125 122 125 126 123 122 119 102 81 63 69 65 66 67 74 69 61 55 48 39 43 52 43 49 54 58 53 61 53 53 49 44 37 40 42 42 42 44 44 50 47 51 60 69 79 87 88 81 82 81 78 64 51 55 56 63 79 92 92 97 99 106 97 87 75 69 65 62 65 57 63 87 95 97 113 118 120 117 120 116 118 120 119 117 122 119 120 124 125 126 125 124 126 125 120 124 122 120 115 92 69 59 72 71 72 67 62 60 56 47 42 36 35 41 48 51 58 60 63 63 59 55 35 32 28 34 38 34 37 45 44 38 44 61 74 79 92 89 89 84 82 73 59 44 44 53 61 73 77 75 78 80 84 89 85 85 75 64 64 63 64 61 51 61 85 99 104 115 119 119 120 117 119 116 121 121 121 121 119 119 126 124 125 125 124 124 122 119 120 118 115 77 59 62 64 63 64 63 50 53 44 42 38 33 34 42 49 51 56 63 68 65 57 56 41 23 26 25 26 35 48 42 35 54 66 84 82 75 72 73 74 73 71 60 65 63 58 61 65 73 65 56 67 73 81 89 86 76 69 65 62 68 62 63 58 57 64 65 94 109 111 117 119 116 119 121 117 119 122 119 118 117 126 123 126 123 125 126 118 123 117 114 89 63 60 56 61 59 61 51 52 48 50 46 42 39 42 43 48 49 63 66 71 73 63 63 51 41 39 37 43 44 49 42 53 68 65 60 65 65 77 74 74 74 63 59 63 58 52 51 63 56 64 62 59 74 88 93 96 96 86 83 85 75 68 67 65 62 67 78 67 73 105 113 114 119 118 115 120 117 116 123 117 121 126 125 121 125 123 125 120 112 104 88 75 62 67 58 57 71 67 63 58 48 39 42 47 49 51 42 49 46 55 55 53 47 46 47 56 55 57 68 63 72 74 68 71 58 62 59 63 60 62 65 69 70 60 47 52 58 51 54 58 52 54 55 62 70 87 92 96 89 82 79 74 71 65 65 64 68 68 63 66 67 68 103 109 117 116 117 119 117 120 115 118 120 121 125 123 124 121 121 112 99 91 86 85 77 74 77 76 73 74 63 60 54 52 49 55 56 56 45 51 42 44 40 47 46 50 61 72 80 84 92 90 91 83 73 66 64 64 68 69 60 55 48 62 60 61 51 53 51 58 52 59 50 50 55 64 68 81 87 85 84 77 74 74 71 67 64 69 71 67 56 57 64 64 68 104 112 114 116 119 113 117 114 117 118 123 124 121 122 118 104 94 92 80 94 91 84 71 69 75 71 73 63 58 61 58 56 52 50 38 45 44 42 36 35 36 39 47 63 85 82 79 73 77 73 76 75 73 77 79 80 80 76 69 58 61 63 63 61 57 50 57 58 66 69 74 72 68 69 72 84 77 75 74 72 70 69 68 63 64 66 66 64 59 61 63 53 62 93 112 114 116 116 112 116 115 115 124 125 126 117 101 86 76 81 97 100 83 76 71 69 69 73 74 73 66 64 60 52 48 47 40 40 41 33 39 33 40 42 57 67 75 68 61 63 69 69 77 84 95 92 89 78 77 74 74 62 60 57 65 67 62 60 66 64 80 76 76 70 61 56 58 66 65 72 73 65 66 57 62 64 68 66 63 67 65 63 68 59 62 62 82 97 112 114 115 117 115 114 126 125 124 107 75 64 75 83 89 91 87 92 85 81 70 75 78 83 66 60 52 49 46 39 35 39 35 37 40 38 41 47 52 53 49 52 58 71 85 89 92 88 91 78 76 75 69 68 62 63 61 68 74 71 67 71 73 75 73 68 66 54 56 55 60 65 70 66 71 71 77 64 69 70 73 72 70 74 69 71 68 61 59 58 53 73 98 105 115 115 114 117 123 118 106 73 68 67 61 73 84 98 100 102 95 89 84 81 79 72 64 52 48 42 36 36 34 37 37 29 30 34 41 44 48 41 44 52 65 75 80 80 72 69 66 74 73 78 64 64 59 70 75 86 87 80 72 72 75 80 78 76 71 72 74 80 68 64 60 56 61 62 64 72 72 68 72 68 71 71 71 70 66 58 58 54 49 38 74 99 113 118 114 111 122 104 77 61 60 63 70 76 82 92 93 95 102 95 88 78 74 68 56 58 51 43 41 38 34 34 28 32 27 36 31 43 42 50 59 74 69 66 61 55 58 67 67 76 84 68 73 74 84 88 88 81 79 79 76 74 73 69 73 77 73 70 68 63 70 73 63 63 66 68 73 70 71 68 68 65 71 71 69 67 60 63 55 54 48 47 41 75 101 117 117 113 104 79 60 59 52 57 71 69 71 77 91 99 94 84 86 77 78 75 62 55 46 41 37 33 33 30 30 28 29 34 39 34 40 49 65 63 68 54 37 41 45 54 60 71 83 77 82 78 78 69 67 66 69 66 64 69 69 70 67 58 63 53 53 54 54 58 70 68 65 58 58 69 70 65 67 61 56 60 56 60 46 48 54 48 50 48 55 42 86 102 116 116 101 65 55 64 62 61 65 69 66 79 89 98 92 81 79 72 74 68 57 46 46 35 39 36 32 33 29 30 30 31 32 34 43 51 61 55 44 33 33 35 41 50 57 68 71 67 63 57 48 51 49 54 51 53 62 74 82 78 63 46 45 48 45 43 51 63 73 92 84 79 66 62 65 63 64 65 51 58 57 60 55 61 53 53 45 47 62 50 58 87 105 109 86 63 57 51 61 65 70 73 67 76 77 84 77 75 74 71 70 63 53 49 48 41 39 37 32 34 32 31 33 32 35 40 49 56 52 44 35 34 33 36 38 47 55 61 62 55 42 46 40 46 52 56 56 58 60 56 62 63 50 45 36 39 45 42 46 57 70 80 86 89 81 84 71 56 62 63 58 53 56 59 56 61 55 50 48 39 54 69 53 81 83 94 68 55 51 62 64 68 75 66 72 76 76 79 73 73 70 65 64 62 58 53 52 45 45 46 42 35 36 39 39 36 39 46 48 50 52 46 39 34 39 36 35 46 50 64 58 57 52 49 55 53 55 59 58 53 61 67 64 63 56 48 36 34 39 39 39 41 47 55 54 65 70 72 74 63 62 66 62 50 53 55 58 60 60 62 47 46 52 62 60 60 66 73 54 55 58 63 66 70 80 73 71 89 86 89 82 74 62 61 62 63 58 54 51 49 52 51 43 41 41 46 46 41 43 50 53 58 64 49 43 42 38 46 39 45 50 58 60 62 64 63 53 57 57 58 66 67 78 74 68 65 58 54 39 39 33 36 38 40 41 43 36 45 53 49 49 50 54 60 64 54 53 52 55 61 58 62 57 55 54 61 54 59 65 64 55 52 61 63 59 69 71 78 78 83 81 88 80 76 66 68 62 59 58 53 51 50 44 51 51 51 56 61 51 54 50 59 61 72 74 67 55 55 52 51 47 49 55 74 77 74 81 69 67 59 69 72 78 80 78 78 71 68 68 76 75 59 54 49 36 37 38 45 38 43 38 39 41 45 45 50 54 63 54 54 57 59 55 59 61 56 51 50 46 49 51 63 58 57 59 52 59 61 64 70 76 82 91 98 92 89 83 76 62 56 57 57 56 58 57 56 62 68 66 68 63 60 60 66 70 80 79 73 80 72 70 61 69 65 78 95 101 105 103 105 92 88 87 83 81 82 81 80 84 81 81 76 83 75 62 56 58 50 45 44 55 58 51 45 42 39 45 40 46 58 61 57 55 57 63 64 64 67 51 50 49 47 55 62 60 56 52 45 50 62 66 71 78 86 96 97 93 89 88 82 63 59 62 62 67 61 69 65 72 80 79 78 80 79 76 81 89 93 90 98 102 102 92 90 86 87 100 108 112 117 118 114 109 101 92 97 94 103 95 103 102 98 92 82 77 78 68 69 53 51 41 51 49 61 59 56 50 44 37 46 37 48 53 56 49 53 54 56 54 49 47 42 41 50 59 56 51 48 50 49 56 55 56 61 66 75 84 87 91 93 92 84 69 55 52 64 68 68 73 71 78 83 84 79 86 85 88 89 98 107 110 120 132 108 104 101 101 110 127 138 141 141 131 121 128 123 119 125 120 118 108 103 106 104 95 86 77 73 65 65 62 56 49 41 45 44 47 49 54 57 45 42 44 42 41 47 45 47 44 47 48 44 48 40 48 40 53 49 46 45 46 44 44 45 53 54 61 67 72 78 85 88 95 89 71 61 62 68 73 74 83 78 87 89 92 97 100 107 105 114 123 133 139 152 149 122 109 104 108 128 149 156 158 159 154 141 139 138 140 144 140 134 127 118 108 112 118 101 83 80 70 70 69 64 57 59 49 45 41 40 46 56 63 55 45 49 48 53 49 46 44 42 41 38 41 46 51 46 42 46 47 43 39 40 47 42 47 46 55 52 66 62 80 81 86 77 65 62 76 89 89 92 101 100 109 118 117 114 114 124 128 137 141 149 155 166 157 128 111 108 126 144 153 159 159 167 164 162 156 143 144 150 156 150 140 137 130 113 109 115 102 89 84 82 82 77 69 71 79 63 44 47 54 61 60 56 51 55 46 52 59 64 60 58 56 52 54 49 43 43 41 38 42 40 40 41 42 45 40 43 48 51 55 63 77 76 72 73 61 69 92 96 99 102 111 119 136 138 134 129 139 139 148 160 167 162 166 172 167 144 126 132 153 157 162 163 169 168 175 171 176 169 160 158 161 161 152 145 143 129 110 114 120 114 100 88 84 72 67 72 76 75 64 54 54 59 58 57 57 55 51 49 53 55 59 51 53 47 50 37 42 45 40 41 38 42 36 40 41 45 44 43 46 55 53 65 70 71 68 63 67 75 95 100 109 132 135 138 143 144 143 155 162 165 167 178 185 183 175 173 171 167 158 154 163 170 176 174 180 183 184 186 187 188 181 177 177 175 170 161 153 136 128 129 122 118 117 118 106 78 61 70 72 76 58 52 63 64 63 60 54 54 50 50 52 50 59 53 54 50 47 43 45 44 39 38 39 44 38 41 43 43 44 46 48 52 63 63 75 72 68 71 79 86 110 124 136 149 150 154 155 152 163 176 178 180 185 191 194 191 184 177 175 176 181 183 186 188 189 191 194 191 192 196 194 194 191 186 187 184 180 180 175 164 145 144 146 147 137 124 122 109 71 69 86 84 69 47 54 53 56 56 56 65 62 51 50 53 55 55 52 55 41 46 43 40 28 28 33 38 40 40 39 40 40 40 47 48 60 66 74 74 72 78 93 119 139 146 148 152 155 159 164 174 179 185 185 191 196 199 199 196 191 189 189 189 184 186 189 193 194 198 198 197 196 196 197 196 198 192 189 189 188 189 186 182 172 172 163 162 162 149 131 127 96 75 94 107 86 53 42 47 54 41 45 61 56 55 59 60 54 48 43 47 43 43 35 28 25 29 38 35 37 36 41 41 37 43 43 52 60 66 73 72 76 84 113 135 150 154 160 167 169 172 177 186 188 194 195 197 199 203 201 202 198 195 195 197 197 193 192 195 197 201 200 199 198 199 198 199 200 199 192 192 190 192 192 189 186 184 178 173 166 161 149 145 125 93 84 111 105 67 36 51 60 52 45 41 48 51 56 62 59 51 49 45 46 43 39 25 25 28 35 35 34 37 36 38 37 40 45 53 63 68 69 77 84 110 134 151 161 165 169 173 177 179 186 193 196 196 199 199 202 203 203 202 201 200 195 199 199 196 198 198 200 201 201 200 199 198 199 200 200 199 198 197 194 193 194 192 191 189 186 182 175 167 156 148 145 128 99 99 109 85 46 50 53 60 53 44 38 50 57 63 44 48 49 43 47 42 46 32 29 39 40 41 37 38 33 27 34 42 42 57 59 66 77 85 101 133 155 162 168 169 172 178 182 186 191 196 199 197 198 202 201 202 204 203 204 202 199 200 200 201 198 201 201 202 202 200 201 199 199 200 201 198 200 199 196 195 195 192 193 191 188 186 181 176 164 153 149 141 128 111 108 91 70 53 62 67 66 56 46 52 56 65 50 44 42 46 38 49 45 33 36 36 41 48 34 35 27 29 34 36 52 59 71 77 91 103 129 151 165 173 176 183 186 189 194 193 195 195 196 197 199 200 202 202 204 205 204 204 202 202 201 202 202 202 204 202 203 202 200 201 200 200 200 200 199 198 197 195 196 192 193 192 190 188 184 178 171 159 152 152 140 129 118 105 80 69 63 81 78 69 50 58 66 56 53 50 39 38 38 28 37 35 34 32 47 40 36 30 29 30 28 32 68 78 83 99 117 133 153 161 170 172 183 187 194 195 197 197 197 196 195 196 198 202 203 201 205 204 205 204 204 203 202 202 203 203 202 203 203 201 202 201 202 201 201 200 200 198 198 196 195 193 192 191 190 189 185 180 174 165 154 153 149 143 123 109 90 72 70 79 86 75 57 57 66 71 52 51 51 40 32 32 28 34 33 25 51 37 34 31 28 31 27 43 76 89 99 117 135 149 163 170 175 181 185 192 196 197 198 199 198 198 198 195 200 201 202 202 203 206 203 203 203 202 201 203 202 203 202 203 202 202 201 201 201 200 198 200 199 198 199 198 196 193 192 191 192 190 188 181 181 171 159 156 153 147 141 114 88 70 77 82 95 75 64 58 65 77 66 38 53 46 37 32 25 31 39 28 54 43 31 30 30 28 26 51 90 98 117 131 146 157 167 177 181 188 189 193 195 198 198 198 199 198 200 197 200 201 204 203 204 205 205 204 203 204 205 202 203 204 204 203 203 202 203 201 200 201 200 199 200 199 198 198 199 196 195 192 194 190 189 183 179 170 166 162 157 151 137 123 97 72 76 81 86 76 73 63 68 74 76 44 49 43 37 39 28 28 35 35 52 43 32 31 31 33 27 65 99 109 128 149 157 164 175 181 186 191 192 194 195 197 197 200 197 201 201 201 202 202 204 205 204 207 207 205 206 206 204 206 205 205 204 204 204 203 203 203 201 201 201 201 199 200 200 200 200 197 198 195 196 192 189 185 180 173 168 166 160 152 147 130 104 69 82 80 81 71 69 57 70 69 77 55 41 54 30 38 42 28 32 40 50 48 37 32 33 31 33 82 108 118 138 156 167 172 182 184 187 192 193 196 197 197 198 199 200 202 202 204 203 204 204 205 204 205 208 205 208 206 204 205 206 204 205 204 203 204 204 202 202 200 201 200 200 201 200 200 200 199 196 198 194 195 193 186 182 174 168 169 163 155 147 140 118 72 61 70 73 69 62 50 59 61 69 62 44 55 31 34 44 40 33 34 55 44 37 38 37 28 46 97 121 129 150 166 172 177 183 186 185 190 191 196 197 200 197 199 200 202 203 204 204 204 204 205 204 207 207 207 205 206 206 206 204 204 203 202 203 205 203 203 203 200 200 199 200 201 199 199 199 198 197 198 196 196 193 187 183 176 168 169 164 156 151 144 129 91 54 52 60 60 56 48 47 50 65 57 54 55 35 29 39 47 38 38 44 49 45 42 38 19 54 110 132 140 161 172 175 180 185 188 188 191 190 195 200 200 199 199 200 200 203 205 207 207 205 208 205 205 205 205 205 205 205 205 205 203 201 201 204 205 205 203 204 202 201 200 200 200 199 199 199 198 198 197 198 197 192 187 180 176 170 167 164 161 152 144 134 107 60 47 47 51 52 48 43 50 49 66 59 52 48 29 42 55 38 48 46 52 52 42 32 24 65 122 138 150 165 176 175 182 187 186 192 191 195 196 198 201 201 201 200 200 202 204 205 205 206 206 205 205 206 205 204 205 203 204 202 203 201 204 205 206 205 205 204 203 202 200 202 200 200 199 199 199 198 197 196 196 192 188 182 178 170 170 162 162 156 148 138 120 66 42 35 48 47 43 37 46 53 54 56 42 55 39 48 53 47 51 68 61 52 43 35 20 82 126 145 153 168 175 178 182 187 190 193 194 195 198 200 197 201 202 201 202 203 204 205 204 204 205 203 205 206 203 202 202 202 202 201 202 204 205 207 208 204 206 204 205 202 201 202 200 198 199 199 198 198 198 196 194 192 188 186 174 169 167 165 164 161 148 140 131 74 35 43 32 43 44 33 41 46 51 52 42 48 56 38 52 54 61 95 54 49 38 35 16 86 127 143 159 166 174 179 185 188 187 193 195 197 198 201 198 201 200 202 201 202 204 204 204 205 204 204 205 204 203 201 201 200 200 201 202 202 203 204 206 207 206 205 204 203 202 201 201 197 198 197 193 196 195 195 196 192 187 185 177 171 171 164 162 157 151 140 132 101 40 37 27 39 34 34 43 45 49 45 42 33 58 45 45 72 52 108 53 56 46 32 15 94 128 141 156 165 174 178 184 189 187 191 194 197 197 200 201 199 200 199 201 200 201 203 203 202 204 203 203 203 203 198 200 201 199 201 201 199 200 200 199 200 201 200 200 198 197 196 196 193 192 193 190 189 191 191 193 191 188 185 177 171 165 161 161 158 147 142 131 121 61 30 26 29 41 30 37 46 45 44 38 34 39 61 45 67 53 115 71 37 56 38 12 99 134 138 153 161 169 179 184 188 188 189 193 195 198 199 200 199 200 200 199 197 200 200 202 201 201 201 202 203 201 199 198 200 200 198 198 194 193 191 184 179 183 175 177 176 175 169 172 174 176 176 175 176 180 180 185 187 183 185 177 174 166 162 158 155 148 146 134 129 95 37 30 25 42 30 31 45 42 43 37 36 32 56 54 55 59 107 92 44 41 30 10 99 134 142 146 157 167 178 183 187 189 189 193 192 196 199 198 197 196 197 195 195 196 198 198 198 197 197 200 200 201 200 197 196 194 192 187 184 179 175 164 152 147 141 136 139 136 134 133 135 148 151 157 159 164 165 165 174 172 171 167 166 162 159 157 155 153 146 139 127 117 70 40 29 35 34 23 42 34 39 38 36 33 55 50 47 68 99 106 55 40 28 5 102 137 141 148 153 161 177 178 185 185 185 190 192 193 195 196 196 193 192 194 192 193 195 194 190 190 192 196 195 197 198 194 188 183 173 170 163 152 150 144 135 124 117 115 118 110 106 104 107 113 121 126 125 137 142 143 147 153 157 139 140 143 150 156 154 152 148 140 130 124 107 66 42 29 36 27 31 30 32 41 33 36 57 59 46 74 102 105 63 35 23 8 100 137 143 150 149 160 170 177 181 182 178 180 185 186 186 184 187 183 185 182 184 183 183 186 185 181 186 189 193 195 194 191 185 181 166 154 145 137 132 126 126 112 108 109 103 101 106 115 120 124 124 124 124 128 131 130 131 132 134 130 121 124 131 143 151 148 144 141 129 128 126 97 56 31 36 32 28 23 30 41 35 37 55 69 62 88 98 107 70 28 32 5 103 139 142 145 153 158 164 163 164 162 160 156 148 146 139 140 139 140 144 144 155 154 159 164 170 173 178 181 185 194 191 184 178 172 164 150 139 129 129 124 122 122 122 120 121 129 127 127 131 134 139 141 144 142 147 150 156 158 149 139 132 126 127 132 140 141 141 135 130 128 124 118 76 41 36 34 26 24 29 39 37 33 48 72 81 95 95 102 89 35 26 11 90 139 147 138 142 146 143 143 146 147 143 134 129 121 111 103 101 99 100 109 119 125 126 140 150 157 164 173 183 186 186 176 174 164 154 145 140 135 133 128 129 130 127 129 122 119 108 103 103 106 109 113 118 125 134 139 149 150 148 143 142 141 135 132 134 136 139 134 130 130 130 120 93 49 37 41 26 36 24 40 34 37 38 65 99 103 95 98 95 36 29 9 88 143 143 128 119 121 119 123 125 122 119 112 103 103 97 90 90 90 91 96 103 107 117 127 137 150 161 166 177 190 185 181 175 165 152 147 144 138 133 137 133 134 125 108 96 91 87 95 93 101 108 105 101 93 93 108 123 132 138 141 145 147 141 134 132 136 137 137 132 133 130 126 103 61 42 44 36 30 28 35 30 35 20 84 105 100 98 93 103 45 25 9 85 141 135 113 104 101 99 105 109 115 115 119 117 113 114 109 107 105 107 107 108 110 112 122 125 136 150 163 174 188 194 191 188 176 164 160 153 147 140 137 134 121 105 96 94 85 74 68 73 66 70 89 102 106 100 85 90 108 126 132 136 141 141 138 135 135 138 136 138 136 132 126 112 69 47 48 46 32 34 30 31 28 23 94 103 103 95 94 104 51 30 7 85 141 129 105 102 98 103 111 118 120 116 114 106 107 104 97 102 99 98 98 102 113 117 119 122 125 142 159 176 191 198 198 198 188 183 174 163 147 138 130 125 110 106 105 106 96 77 84 126 109 84 99 101 84 82 93 98 89 111 125 135 138 139 140 139 140 140 142 142 140 140 128 120 83 43 48 46 41 37 33 35 22 28 99 106 100 96 93 100 63 35 9 87 135 124 101 106 106 115 117 118 115 101 91 76 79 77 81 93 104 114 111 99 97 108 117 120 123 135 154 176 193 201 203 201 195 186 179 166 148 137 134 126 121 111 116 142 119 97 82 100 135 86 109 145 131 91 68 91 102 107 118 129 136 141 140 145 143 145 147 145 144 143 131 121 97 46 46 49 51 37 33 33 20 48 96 105 99 93 92 95 84 41 7 97 131 119 104 106 114 117 120 115 93 71 75 70 62 49 50 71 82 73 117 117 117 111 106 110 117 131 153 180 196 202 203 203 196 185 176 164 151 144 141 147 135 115 132 170 149 108 100 91 90 93 128 167 154 125 100 87 97 110 119 126 128 140 144 145 153 156 154 148 149 143 130 122 109 53 43 50 51 39 31 38 17 64 103 98 102 90 91 93 92 53 10 76 133 123 108 109 115 111 109 103 79 66 55 71 82 79 59 128 192 101 123 174 144 120 134 115 112 127 154 178 198 202 203 202 197 185 175 166 151 152 161 163 151 135 144 165 169 128 113 114 99 115 148 171 159 141 124 110 120 125 122 127 131 141 150 154 158 163 164 155 147 146 136 121 119 70 45 50 53 38 38 76 38 78 100 97 100 90 91 90 99 70 17 84 132 129 119 119 116 117 112 101 81 50 61 109 103 85 62 62 95 105 139 189 193 143 123 134 125 133 156 179 196 204 201 200 195 188 178 168 155 163 174 180 166 152 148 152 162 170 167 162 151 147 146 153 154 147 137 135 138 142 142 135 133 145 155 162 166 169 168 159 152 145 136 123 117 85 51 40 60 52 43 111 70 89 97 96 96 89 90 90 92 89 22 86 131 128 125 122 120 117 112 99 74 58 72 122 129 100 86 89 101 118 166 186 187 164 127 134 149 146 159 179 195 200 201 198 193 186 177 169 161 169 179 186 185 180 164 149 150 157 153 156 157 158 157 155 160 158 159 157 156 162 161 162 156 154 162 175 172 175 172 162 152 142 136 124 120 93 55 37 69 85 62 143 86 84 94 97 95 89 90 86 91 94 42 79 136 136 133 128 125 116 109 98 81 83 106 129 147 134 116 121 140 156 174 169 163 160 152 151 157 157 166 179 191 198 200 198 192 185 179 173 169 174 176 184 183 184 176 161 149 151 152 160 164 168 167 171 171 171 174 169 168 170 171 174 175 171 172 181 179 172 170 167 153 145 133 124 121 100 60 31 84 120 94 160 80 80 90 94 94 89 89 89 87 93 68 82 142 146 145 141 134 119 111 107 107 103 115 128 135 139 141 146 147 158 161 166 161 163 164 161 164 164 166 181 190 197 199 195 189 182 179 176 173 181 181 182 185 188 187 182 178 170 164 164 166 169 175 178 183 183 185 180 178 178 181 182 186 187 184 183 183 174 165 162 152 143 131 122 117 113 66 38 102 130 116 160 80 79 90 93 93 93 87 89 87 86 81 94 137 156 157 158 148 130 127 136 140 133 130 139 142 145 146 152 154 153 152 153 160 170 171 166 166 168 169 181 189 193 196 193 185 177 176 175 173 178 179 183 185 187 192 187 184 188 187 189 189 190 188 187 191 192 194 191 190 188 188 189 193 195 192 186 184 175 163 161 150 142 132 124 120 115 74 46 97 132 126 154 73 81 85 91 97 90 87 89 87 90 72 97 143 151 169 172 160 160 161 167 158 153 154 156 155 157 153 153 153 153 159 165 173 174 175 171 167 167 170 182 191 193 193 189 184 179 172 173 172 175 176 184 187 188 191 193 192 191 193 193 194 196 196 195 197 197 197 196 194 194 194 193 195 194 192 187 181 173 159 158 148 139 130 123 117 118 89 53 103 132 130 156 78 75 89 88 93 87 90 84 88 85 80 93 132 152 172 177 177 175 181 176 169 173 176 174 171 169 166 168 170 177 178 182 185 181 179 169 167 165 171 182 192 195 195 192 187 176 173 171 171 172 175 181 189 190 193 193 193 197 194 193 194 197 196 196 199 199 196 198 199 197 198 197 194 194 191 183 177 169 162 153 142 140 126 121 119 119 105 63 109 137 150 147 72 85 83 88 92 88 88 87 88 88 77 88 136 151 170 180 181 184 187 183 178 182 185 184 183 182 178 178 178 179 182 186 185 181 175 171 166 167 176 182 192 194 195 196 187 182 173 169 168 173 179 179 186 191 194 195 195 197 201 197 196 199 196 200 199 197 198 199 201 200 198 196 194 191 186 176 170 165 155 153 143 135 128 123 115 119 109 95 117 147 162 154 83 72 87 89 90 87 86 86 88 84 82 83 124 147 166 176 183 186 188 189 186 186 186 187 183 182 183 183 185 182 189 190 186 179 174 165 164 167 172 183 191 193 195 194 190 182 173 169 165 170 176 182 187 190 197 197 197 195 200 201 200 201 198 198 201 200 200 198 199 200 199 197 192 185 183 177 168 161 152 147 140 135 126 122 121 115 107 108 136 157 169 161 88 70 88 88 91 87 85 83 87 88 81 79 127 143 162 175 182 187 190 192 191 192 191 190 189 184 186 189 192 186 192 187 184 181 170 166 158 164 171 181 185 191 194 193 188 180 173 160 159 165 170 180 188 192 195 199 198 198 198 199 200 201 199 197 199 198 199 199 198 198 194 194 194 185 179 176 167 153 148 142 138 128 126 123 118 119 107 105 139 155 157 163 105 68 87 89 92 88 87 87 84 87 87 76 117 140 157 170 179 185 190 193 193 193 193 192 195 191 188 191 193 192 191 188 186 183 174 164 156 165 176 182 187 190 191 191 185 181 172 160 148 157 157 174 187 192 196 197 197 198 200 199 199 201 198 197 196 197 197 195 194 193 192 189 190 181 175 170 167 151 146 141 134 128 122 121 119 117 109 99 137 140 143 148 112 69 87 89 94 87 80 83 82 85 83 72 117 132 155 166 176 184 188 193 193 191 189 193 193 191 190 189 192 190 190 189 187 183 176 160 154 162 178 183 187 188 192 189 186 182 177 159 148 148 153 162 181 189 194 195 197 199 199 199 197 199 199 196 194 195 196 198 193 191 189 184 184 180 170 168 159 149 144 136 131 127 120 120 118 114 105 100 134 129 137 141 114 75 81 91 87 85 83 80 85 81 85 69 110 128 146 157 172 181 188 192 192 185 188 187 191 190 188 187 190 190 187 189 186 183 170 158 157 171 183 193 195 195 193 192 191 187 179 170 158 152 154 157 174 185 193 196 198 200 200 198 196 197 199 196 196 197 195 196 193 192 189 184 180 179 172 163 160 147 138 134 125 126 119 115 115 113 104 95 111 133 149 129 120 82 77 91 90 82 85 81 83 81 85 72 107 124 143 149 163 176 183 185 187 185 185 186 188 190 189 187 187 188 187 187 188 183 169 155 158 173 183 189 196 201 199 197 193 187 178 163 157 159 160 156 159 175 189 194 197 199 202 199 198 197 197 198 196 196 194 194 193 189 188 185 185 175 170 164 156 148 142 131 121 131 114 111 111 117 96 96 142 156 169 146 124 75 77 88 92 82 86 85 82 84 85 68 104 123 137 151 158 161 172 175 183 185 188 189 186 188 190 188 190 190 188 188 186 181 164 150 155 164 173 182 186 194 197 197 187 171 154 147 146 148 156 154 153 162 181 193 197 199 200 199 199 199 197 194 196 194 195 194 192 187 184 181 181 174 168 159 150 145 136 130 124 127 120 112 114 116 90 102 159 161 152 132 115 72 82 86 90 80 83 83 82 82 85 70 101 118 132 149 156 165 170 176 181 184 184 187 185 187 189 190 193 188 190 189 186 171 160 145 131 140 148 164 171 178 177 174 160 146 133 130 132 138 148 154 148 154 179 189 192 198 199 199 199 199 196 197 195 194 192 193 190 188 182 179 177 173 167 158 154 145 139 131 125 129 121 114 112 111 88 98 150 143 128 117 103 75 83 84 92 86 80 84 81 83 83 71 98 118 132 144 152 160 165 174 180 183 184 187 185 188 191 189 192 188 188 190 183 165 147 137 126 119 123 138 143 148 152 150 140 133 120 110 118 129 141 145 142 145 170 188 190 193 196 197 199 199 196 196 195 194 192 191 187 186 180 176 175 169 163 156 151 144 142 134 128 128 121 114 112 108 89 97 132 131 112 115 90 77 82 86 90 81 84 80 84 83 85 75 88 120 128 140 150 157 164 176 179 183 183 184 186 186 187 190 191 186 188 184 178 156 137 127 109 104 109 120 119 119 122 130 125 117 92 57 54 102 128 135 138 133 165 186 191 191 192 194 198 197 195 194 193 188 189 188 184 182 180 176 170 166 161 156 150 145 142 133 130 126 119 108 111 107 86 107 131 132 123 101 75 80 84 87 92 80 81 82 83 81 83 73 87 112 128 138 148 157 164 172 177 180 182 182 183 185 186 188 190 188 191 184 171 143 124 107 69 52 62 106 117 110 105 107 104 90 71 40 32 60 98 122 119 123 160 189 193 194 190 191 191 196 192 194 191 184 182 181 182 175 176 171 166 162 159 151 149 142 141 133 129 123 116 110 106 106 84 112 135 136 123 83 70 80 86 87 93 84 82 78 82 80 83 77 76 114 125 135 146 157 162 165 172 177 182 181 182 183 182 185 187 184 187 184 167 134 114 102 71 34 34 50 90 104 109 99 100 98 100 92 92 101 108 112 110 120 159 188 194 194 192 191 194 192 192 190 188 183 181 180 179 178 172 169 162 159 157 154 146 144 142 137 132 125 112 108 106 100 83 117 134 130 113 65 76 81 84 88 91 83 82 81 81 80 82 78 76 105 126 132 137 150 157 166 167 173 175 178 177 181 181 183 184 185 185 184 173 133 114 123 109 91 68 63 69 87 97 99 111 127 137 141 150 147 136 116 115 128 160 186 196 195 193 191 191 191 191 187 185 182 179 174 170 171 172 165 161 158 157 151 147 140 142 137 131 119 112 110 105 98 83 104 116 108 77 74 81 79 84 89 89 84 83 81 81 82 78 82 70 101 123 127 138 145 152 161 162 166 171 173 171 171 180 182 186 183 184 184 178 150 115 114 123 118 103 93 92 97 107 117 126 134 141 141 134 132 130 123 138 152 167 182 190 196 193 193 191 192 189 187 185 181 176 172 166 166 163 163 158 153 150 151 140 140 140 137 127 119 109 105 105 94 71 80 78 77 76 73 81 76 89 89 91 83 83 81 80 81 79 80 71 91 125 128 132 141 148 157 163 164 168 167 171 171 177 178 181 182 181 183 184 171 139 107 103 109 108 112 120 124 127 128 134 138 144 144 143 147 148 159 164 166 164 177 183 190 191 193 191 192 187 184 184 178 177 175 167 165 163 161 160 153 152 146 144 142 141 138 131 115 111 106 99 92 72 65 76 76 76 77 76 83 83 91 87 87 78 81 79 80 77 83 71 84 123 126 128 136 141 148 158 156 157 164 169 174 176 176 182 183 184 182 184 182 175 151 133 136 131 131 136 137 134 135 135 140 145 148 152 160 159 165 170 170 170 177 180 187 189 188 192 191 186 185 181 176 173 172 166 164 164 160 160 152 149 139 141 138 138 135 128 119 108 103 102 81 68 74 78 76 77 77 77 82 84 89 93 83 80 83 77 79 79 78 77 72 118 127 126 132 140 143 151 156 154 158 164 173 174 180 180 180 179 182 178 176 172 165 164 160 157 150 150 147 140 137 138 144 148 148 153 158 160 160 162 167 172 175 178 181 181 181 183 186 182 185 178 174 169 169 163 163 162 160 156 152 145 142 140 134 138 130 124 116 106 102 95 79 70 73 74 76 74 74 79 81 84 86 92 78 82 81 78 77 80 74 78 68 109 123 123 127 133 136 147 154 156 154 155 166 175 174 179 176 172 177 176 172 164 161 163 166 165 157 159 154 148 140 136 149 150 152 154 152 157 160 160 162 162 170 168 173 170 171 178 181 179 179 177 169 165 162 161 159 158 155 156 150 146 138 136 132 135 129 121 114 107 99 91 70 69 76 71 78 76 73 78 79 83 87 88 82 83 81 79 78 78 76 78 66 104 121 123 128 134 131 138 149 152 150 146 157 171 173 175 174 168 170 168 169 161 159 159 159 162 160 160 158 154 144 138 142 151 156 159 156 156 154 160 158 161 158 157 158 164 163 164 171 170 174 172 166 165 163 155 156 152 153 150 152 144 140 138 134 136 127 120 109 104 93 85 68 72 73 73 74 78 74 77 76 85 88 90 81 77 79 80 78 76 77 77 63 93 120 121 122 134 131 137 138 150 149 149 158 159 166 165 164 157 158 158 159 156 151 152 154 155 163 168 165 165 160 153 150 158 162 162 161 159 155 156 153 154 152 145 142 143 141 149 150 159 162 161 162 158 155 153 151 145 148 145 147 144 140 132 132 129 126 116 109 100 92 75 68 73 72 76 71 77 74 75 81 83 88 89 85 78 78 78 79 74 75 76 70 81 114 119 119 128 127 131 131 140 142 146 151 151 149 151 148 147 147 153 150 151 153 150 152 157 160 168 181 185 184 174 171 172 167 168 160 157 155 153 146 146 143 136 127 123 124 126 137 143 149 152 151 153 150 146 148 148 147 146 146 136 132 129 130 126 121 116 106 98 86 73 69 73 70 71 74 73 77 76 81 85 86 91 76 80 77 77 74 76 74 73 72 69 111 117 113 123 128 127 128 134 136 138 143 143 144 140 139 131 132 137 141 142 149 154 154 161 171 175 181 189 193 190 186 184 175 170 165 160 154 154 145 141 133 129 121 112 103 107 115 127 137 137 138 138 143 143 145 145 148 146 143 136 128 128 127 123 113 107 100 92 80 64 73 72 74 73 75 74 77 77 79 85 87 92 82 80 79 77 73 78 73 75 78 63 103 118 118 117 123 129 126 127 129 130 128 125 129 126 122 119 117 118 125 135 146 148 155 159 166 173 173 178 188 189 180 168 153 146 147 141 136 136 133 129 124 117 109 99 86 88 95 111 123 128 129 130 138 143 142 142 141 143 140 132 130 127 126 118 110 104 96 87 72 69 68 73 71 74 73 74 75 78 83 85 86 90 80 78 76 77 73 75 72 79 74 65 95 114 124 124 124 126 128 125 129 123 117 113 114 114 103 97 98 97 109 117 131 133 135 134 133 132 136 141 149 153 147 128 115 106 105 107 98 98 93 90 94 86 85 84 85 82 81 100 108 122 125 128 141 142 143 139 138 139 133 131 125 124 123 112 107 102 91 79 70 67 68 73 69 75 74 75 75 81 81 87 88 93 77 79 77 76 74 76 72 72 74 66 82 112 121 126 127 124 124 124 128 124 110 105 109 104 98 83 76 77 82 88 93 92 92 89 94 89 93 91 101 102 104 96 90 84 92 96 101 103 104 101 107 107 114 122 127 133 119 107 110 120 129 135 144 147 146 137 137 133 131 126 126 123 116 110 101 95 90 69 68 69 67 72 70 75 71 75 76 80 84 85 88 87 77 77 77 74 75 74 74 72 71 66 76 101 117 124 126 128 127 125 131 128 119 116 113 115 112 99 84 67 67 65 70 76 79 83 85 84 83 79 78 87 96 106 117 119 129 129 131 127 116 121 120 127 137 146 147 145 149 136 127 130 137 141 148 147 143 139 137 134 119 115 119 119 115 107 100 92 78 71 67 69 71 70 70 76 71 76 76 81 83 90 86 90 77 77 76 78 70 75 72 73 73 71 64 91 111 119 124 125 130 128 130 133 133 130 127 126 129 133 128 124 122 122 110 109 113 118 123 130 138 138 135 135 137 142 145 139 140 132 125 124 126 137 143 145 148 153 156 163 164 163 148 146 140 143 152 144 141 136 130 132 123 118 119 115 111 104 97 86 72 61 67 71 69 73 73 74 71 74 80 83 85 91 85 90 79 76 75 72 75 71 75 73 69 72 68 72 108 116 116 123 131 130 128 140 143 142 143 143 142 143 148 147 145 143 135 131 125 123 124 132 139 148 152 154 151 148 144 137 140 134 139 137 142 145 146 149 152 157 158 167 175 171 165 155 143 142 142 144 137 135 129 126 125 119 113 111 104 96 88 79 65 68 68 73 66 72 70 75 70 78 79 85 85 87 87 87 80 77 77 73 73 70 72 72 73 69 68 71 93 108 118 119 122 128 129 138 148 151 149 153 158 161 162 159 151 145 142 136 130 130 128 129 130 128 131 134 138 135 134 134 137 138 143 142 143 142 147 150 156 158 160 167 174 170 167 156 147 142 133 135 132 132 125 126 119 118 113 109 101 94 81 72 62 67 67 73 68 72 69 77 75 81 81 82 87 87 89 86 77 77 76 74 75 70 72 71 75 67 70 67 77 102 112 120 123 120 128 131 141 148 146 152 157 164 163 159 152 144 141 140 131 130 120 119 116 110 112 110 116 115 122 127 132 137 137 141 138 142 144 148 153 156 161 166 167 165 159 152 146 139 131 129 126 126 119 119 112 114 107 106 96 86 74 71 63 68 68 71 68 72 72 71 79 78 81 85 89 85 90 86 75 74 76 77 73 72 71 70 68 70 72 70 65 87 103 115 124 119 128 128 136 143 144 148 155 155 158 154 151 141 136 133 130 124 119 114 114 110 106 113 112 114 109 118 120 125 128 130 134 138 144 146 154 153 157 156 157 153 145 138 136 134 133 131 124 121 121 116 110 109 103 99 90 76 73 72 65 66 69 71 68 71 69 73 77 83 83 83 86 86 87 87 74 76 75 74 71 71 70 69 68 71 70 68 64 74 88 107 115 115 119 123 124 132 139 140 144 143 146 148 144 141 130 131 128 126 123 119 116 114 109 110 108 112 113 110 115 114 125 127 130 142 142 150 149 151 152 153 148 150 142 135 135 129 130 124 118 117 117 112 107 103 100 88 78 67 76 67 67 66 68 68 71 67 70 73 78 82 82 84 85 85 88 87 76 74 73 76 72 75 70 74 66 74 66 68 66 67 77 95 106 109 114 116 121 124 131 140 137 138 138 140 142 136 131 127 127 125 123 122 118 113 113 111 110 111 114 116 117 122 127 129 134 139 143 147 146 148 148 149 143 142 137 138 133 130 124 122 115 115 108 108 103 98 91 76 68 65 78 67 64 67 70 70 70 73 67 81 77 82 84 87 86 87 84 91 79 74 75 75 73 72 68 71 69 70 64 66 72 66 69 78 93 103 105 107 117 117 122 127 133 129 128 138 139 134 133 125 123 122 122 130 134 144 155 158 156 157 156 150 150 139 140 134 137 140 145 140 143 145 147 148 146 145 138 136 136 131 128 124 120 111 109 101 98 89 80 68 61 75 78 63 65 72 64 68 71 68 74 75 82 81 84 84 86 87 86 89 76 73 75 72 76 72 67 72 66 75 61 71 67 68 64 66 79 91 100 104 108 110 117 119 125 129 127 133 130 138 133 129 131 133 144 150 157 167 173 183 186 183 175 170 167 159 151 145 147 148 147 148 148 150 150 151 146 142 140 137 130 131 126 122 116 108 103 97 85 79 67 59 67 72 81 62 68 67 68 67 72 69 72 78 80 79 87 83 87 82 90 87 73 72 75 75 72 74 69 69 66 72 66 67 65 68 65 66 66 79 84 96 100 108 108 116 122 124 129 129 129 134 134 136 134 138 146 150 152 159 164 171 175 178 172 171 170 165 155 156 160 159 162 157 152 155 151 153 145 138 138 132 128 126 118 114 106 101 96 88 75 68 59 64 69 73 78 63 65 66 68 69 70 70 71 78 81 80 85 82 83 88 88 86 76 72 77 74 71 76 69 70 66 70 65 71 63 71 69 67 41 67 75 85 90 100 102 111 121 123 128 131 131 137 141 146 147 150 152 148 149 150 154 159 166 172 169 169 171 167 163 161 164 167 167 162 158 155 152 144 135 131 131 128 119 117 109 103 94 91 81 74 64 58 60 66 71 80 73 59 68 66 65 67 70 69 69 80 81 83 85 85 86 86 87 87 73 74 74 72 71 72 71 68 67 68 69 66 76 76 83 52 15 68 67 74 76 88 92 99 107 114 118 126 130 136 145 143 146 148 152 151 146 144 149 153 158 160 157 161 160 154 158 158 162 166 165 158 152 151 149 141 131 128 124 115 112 101 98 93 84 73 71 56 58 55 63 69 73 81 71 60 63 69 65 66 68 69 69 78 81 84 82 83 84 86 83 86 75 74 72 73 73 74 66 67 66 67 76 50 102 105 67 42 7 83 86 66 67 69 79 84 95 98 105 117 128 132 140 142 140 140 150 148 141 140 144 143 151 149 147 146 145 142 148 149 156 156 156 151 143 143 141 129 123 120 114 104 96 86 77 72 68 60 55 53 59 59 66 72 76 84 66 58 65 67 66 67 70 67 72 76 78 83 81 82 81 88 85 88 73 76 73 74 71 71 68 66 73 84 96 66 42 80 54 37 7 83 110 66 65 61 70 68 78 82 94 107 119 128 131 136 140 136 134 140 133 132 131 135 134 138 139 137 139 137 140 146 147 151 146 136 135 130 124 121 115 108 101 88 78 66 56 58 51 49 55 55 59 63 64 75 71 86 61 63 67 67 67 66 68 67 69 79 81 82 84 84 82 87 80 86 73 76 71 73 68 73 66 68 95 86 55 81 60 67 47 31 8 93 112 88 57 63 63 64 68 63 74 91 111 120 123 127 130 131 127 128 128 124 127 120 121 118 123 119 123 126 128 130 133 132 130 125 120 117 115 108 101 92 80 65 57 50 51 49 50 54 56 55 57 63 71 73 77 80 59 65 64 65 65 67 68 63 73 75 76 80 84 81 84 82 83 86 73 69 76 70 73 67 81 92 85 115 75 36 74 62 44 25 13 104 112 99 77 58 64 58 63 59 57 67 88 102 109 112 120 119 119 118 114 115 114 107 108 110 107 107 108 110 111 116 119 120 117 110 111 101 100 90 80 68 57 51 50 49 52 50 53 57 56 57 60 69 72 73 78 78 58 63 67 62 67 65 68 65 75 74 82 81 82 80 83 83 87 82 72 72 74 72 72 70 79 95 56 83 70 38 73 64 38 20 22 116 113 97 84 64 62 62 62 59 58 57 62 73 89 96 103 106 107 109 105 99 101 96 100 98 98 97 98 101 97 103 102 103 95 92 91 88 77 66 57 53 54 49 52 54 50 53 54 55 54 61 65 73 71 74 85 67 45 61 60 64 66 61 68 63 72 71 79 78 78 82 76 85 80 86 70 72 78 76 79 97 77 103 64 68 31 64 72 59 42 11 37 119 114 102 93 69 58 60 60 61 58 59 60 58 65 70 78 83 85 88 90 86 85 82 83 87 85 86 89 85 85 82 81 84 74 71 69 59 56 50 47 51 50 53 54 54 53 55 56 56 59 61 69 75 71 77 88 64 23 60 62 63 63 61 66 64 67 72 77 77 81 80 78 84 82 79 78 77 90 96 94 86 55 99 60 43 36 71 69 59 42 7 69 118 114 102 95 78 63 59 63 61 60 58 59 60 55 58 62 59 66 65 68 68 70 68 65 69 70 66 68 65 64 63 55 59 55 49 52 48 46 52 47 53 54 54 56 58 56 56 58 60 58 66 73 74 77 76 92 49 17 44 58 62 62 63 63 64 67 72 72 78 78 78 80 76 80 84 94 87 72 106 111 69 80 122 102 29 38 77 70 61 45 5 97 114 112 107 96 86 67 58 65 61 58 61 56 59 60 55 58 49 54 53 53 55 52 53 53 50 56 54 51 52 48 49 48 49 48 52 47 49 52 51 55 54 55 57 53 55 60 58 59 65 64 69 77 76 82 79 96 37 20 38 56 67 62 65 60 64 61 70 72 79 75 75 77 79 80 80 65 72 97 76 81 112 101 87 88 35 46 74 68 62 43 18 107 112 112 109 102 94 77 63 62 59 62 61 54 62 59 61 57 56 53 56 50 54 49 57 48 53 54 52 56 51 51 55 51 53 49 50 54 49 54 55 52 57 57 55 56 60 58 59 61 63 70 72 78 78 81 84 95 28 20 40 37 69 62 64 60 63 65 69 71 80 73 77 73 79 77 83 