P2
92
112
255
118 122 118 120 121 120 121 117 112 110 102 102 96 99 92 98 92 93 87 91 88 86 82 85 75 76 71 71 64 62 62 65 67 63 71 52 58 59 64 63 63 59 68 61 62 66 70 72 76 84 80 79 86 82 89 92 95 88 85 85 83 98 95 100 112 106 107 103 101 93 94 98 97 103 105 99 110 105 115 118 123 125 125 126 126 122 125 130 123 119 126 126 122 118 117 121 118 122 116 117 114 103 101 95 88 84 88 90 84 83 73 76 74 69 77 70 62 59 64 59 50 65 55 57 68 69 55 60 66 62 60 62 59 73 69 66 67 73 76 75 84 82 86 85 91 87 87 89 87 77 79 76 79 86 97 89 97 99 98 94 95 88 90 83 89 90 94 93 99 103 103 112 117 119 123 122 122 124 126 122 124 122 125 125 119 121 116 120 118 122 112 109 103 94 88 97 90 87 93 87 81 74 70 70 65 59 60 60 57 52 54 52 50 50 57 60 64 62 57 57 53 54 54 60 64 71 70 76 76 84 80 85 91 89 93 91 90 89 84 94 80 84 80 86 87 88 90 89 89 88 97 93 104 96 90 82 72 81 81 80 91 89 100 103 116 118 120 122 123 122 128 122 126 122 124 124 116 116 117 117 114 113 108 100 88 93 94 91 83 80 78 78 75 68 63 57 59 53 56 54 50 49 50 50 51 57 57 53 56 50 60 46 60 64 68 72 70 74 75 78 81 89 84 84 89 85 90 94 87 86 84 88 83 85 84 88 88 94 80 90 83 91 98 102 112 112 103 90 89 83 82 76 79 88 93 97 110 113 117 121 122 122 124 122 120 123 122 122 118 116 119 110 113 106 98 94 82 79 82 79 71 67 60 61 59 61 57 48 52 54 56 56 57 48 51 48 53 51 46 54 67 61 72 58 69 72 83 86 89 82 84 81 80 79 75 77 76 80 91 82 89 80 90 88 85 84 92 87 89 91 81 89 91 90 97 98 96 101 93 91 87 94 92 85 79 86 78 90 95 107 115 117 124 124 120 124 122 122 124 124 117 120 115 113 111 101 99 91 87 82 84 73 74 65 54 54 49 48 57 49 49 51 62 58 56 53 50 55 38 49 53 53 56 59 64 60 59 73 82 83 84 74 75 71 74 63 65 74 82 82 90 89 90 94 89 90 93 90 93 95 92 87 84 85 84 88 94 99 102 91 86 84 78 79 79 79 84 89 79 81 86 95 111 115 117 116 123 123 122 122 125 121 117 119 113 113 99 94 85 97 98 83 84 77 68 70 56 61 52 48 50 52 48 53 49 64 48 56 42 39 34 35 45 43 47 56 48 50 60 58 60 70 69 73 79 72 66 71 74 85 83 85 89 98 97 90 91 87 86 87 85 91 90 84 87 81 82 81 89 94 94 94 90 80 82 79 78 69 79 83 84 84 84 89 103 118 116 113 124 124 124 124 124 121 119 116 111 99 82 73 74 84 86 91 90 83 77 75 73 74 66 61 50 47 52 50 46 57 48 43 36 35 36 39 44 44 40 40 40 57 62 62 63 64 67 70 76 75 88 90 87 97 89 97 92 95 85 92 91 84 84 81 79 82 78 84 90 89 79 82 82 89 85 91 85 85 75 76 78 71 73 77 81 88 87 89 89 107 108 115 119 121 117 120 124 122 118 111 102 85 75 64 78 79 85 87 89 85 83 82 77 76 72 60 55 46 48 50 44 52 50 38 39 37 46 39 35 36 34 35 46 56 62 68 69 61 67 71 70 83 85 97 101 104 98 85 88 84 89 78 75 71 74 74 74 77 78 84 91 86 85 75 76 77 81 76 82 82 79 71 71 73 65 69 62 65 79 88 84 82 100 110 113 119 117 122 117 120 114 107 82 82 71 76 87 83 92 91 86 84 80 83 76 73 69 63 56 48 44 43 42 46 54 44 39 44 41 35 34 35 35 41 46 42 59 67 70 66 64 72 69 78 79 84 87 87 81 74 77 76 77 72 71 64 76 73 77 79 79 82 80 84 79 79 76 78 80 80 79 79 87 78 75 69 65 62 57 56 59 79 85 86 85 90 113 115 116 118 119 119 104 82 77 78 73 82 88 90 90 74 71 65 60 71 63 65 61 62 53 39 43 34 36 43 53 51 49 44 37 36 41 35 42 44 45 48 54 57 65 67 72 67 73 65 70 65 74 73 72 75 67 73 73 69 69 74 76 83 82 83 79 78 76 79 72 78 71 86 81 89 83 86 88 85 81 76 75 65 63 56 64 63 79 81 90 84 87 111 112 115 115 118 76 73 74 78 74 73 81 91 85 79 67 72 60 69 71 70 62 58 54 53 51 46 49 51 59 51 57 44 35 44 40 37 41 47 45 49 45 48 57 56 66 70 62 67 60 66 74 67 68 65 59 72 74 79 81 79 80 80 80 90 82 85 75 78 74 73 69 75 88 87 81 80 82 77 71 70 80 72 73 68 65 55 69 69 87 85 88 83 106 116 118 114 71 70 88 80 77 85 79 89 81 80 73 59 67 67 76 65 66 61 66 60 60 57 58 68 56 53 48 46 42 41 37 40 30 38 43 49 51 49 54 56 65 67 71 79 84 79 79 80 71 78 75 82 75 83 76 75 82 74 86 79 84 74 78 68 67 64 67 73 73 67 74 72 72 70 67 58 71 73 78 78 76 61 60 73 67 73 86 92 84 105 112 116 72 72 76 73 83 73 85 84 91 95 88 82 79 79 76 72 75 71 67 60 63 64 63 58 56 50 44 47 42 42 32 34 36 38 39 37 46 50 63 70 74 81 79 88 83 86 84 76 75 79 78 77 75 79 79 78 85 86 86 79 80 78 80 69 75 79 69 75 75 78 74 75 73 74 69 63 64 64 72 66 76 69 65 68 69 68 69 76 85 88 105 112 66 60 63 69 80 76 88 88 93 94 89 88 83 84 79 74 74 75 63 71 69 67 63 54 50 49 42 45 38 40 39 36 42 39 46 47 51 50 60 69 69 67 68 75 79 82 82 82 82 92 81 87 84 87 92 84 87 92 94 89 83 86 84 75 87 86 84 85 73 83 78 82 78 73 77 71 69 57 60 54 62 66 70 75 73 72 72 67 78 80 92 103 53 64 58 64 88 89 89 89 82 80 83 88 88 82 89 78 73 77 74 81 71 72 60 62 45 44 40 41 37 44 41 36 42 40 56 47 51 47 51 54 63 54 67 67 73 80 81 92 93 97 90 89 84 79 84 88 101 93 85 83 78 84 79 76 81 78 77 76 76 75 76 71 79 79 73 74 70 64 63 64 60 66 65 69 79 81 78 69 69 66 81 97 61 54 67 67 83 83 84 81 77 80 87 85 88 88 82 83 81 91 88 84 81 69 64 58 46 41 35 40 45 37 38 41 36 47 46 50 40 44 42 57 55 68 67 58 70 61 74 70 74 77 72 74 77 86 91 95 91 84 76 83 76 79 85 80 88 72 79 77 83 76 79 78 74 81 76 72 73 62 65 66 71 75 71 75 74 85 75 84 66 57 72 75 52 55 68 65 71 68 73 74 88 94 94 96 103 95 96 98 97 100 96 84 72 69 57 59 49 43 48 44 51 34 48 35 43 43 44 40 46 41 47 60 65 54 63 55 71 57 67 68 63 60 67 82 92 95 93 85 80 77 69 65 70 74 82 82 87 81 85 82 81 87 81 88 87 87 92 79 77 75 70 68 71 77 81 83 83 80 86 76 69 64 64 64 51 57 63 61 62 69 74 84 104 99 104 100 105 97 93 107 105 102 88 70 61 59 64 61 51 50 54 49 48 44 51 35 42 42 38 38 39 41 57 61 66 56 62 60 68 66 58 77 61 80 79 87 81 83 82 75 74 69 61 61 59 76 80 82 79 72 76 75 76 82 86 85 83 84 79 88 81 79 76 82 80 81 77 80 88 84 84 82 67 68 64 59 61 59 57 57 61 74 86 90 101 102 101 98 101 97 101 103 97 86 74 62 56 65 65 68 54 62 59 57 55 49 46 45 42 45 48 38 41 52 54 67 60 63 57 58 68 64 66 63 74 85 87 78 76 70 75 73 66 67 70 72 74 82 83 78 79 67 74 76 74 79 80 83 83 81 77 80 76 78 78 83 82 83 75 75 90 84 89 87 74 65 62 66 55 54 54 58 72 77 83 89 94 100 97 97 96 97 96 93 68 75 67 66 66 69 70 67 73 67 65 67 57 56 47 48 40 45 51 45 47 52 56 54 54 55 52 59 57 66 67 74 83 82 81 71 71 72 72 72 72 79 79 84 77 85 67 71 63 63 61 59 68 67 73 71 78 72 76 74 80 79 75 84 80 84 79 78 84 83 80 87 79 72 61 60 44 51 54 62 72 72 77 84 96 94 92 92 88 90 86 80 68 70 68 70 67 70 74 71 80 71 77 69 60 55 48 48 44 46 50 49 48 48 51 40 49 49 58 62 63 67 70 77 82 73 75 75 72 71 70 78 78 79 79 69 68 66 59 67 56 64 58 64 57 58 64 64 69 64 71 63 74 73 70 73 69 74 63 69 68 69 66 70 80 73 60 56 41 52 62 63 62 71 70 81 85 90 84 81 81 80 77 75 72 74 76 77 82 77 81 73 83 81 76 70 68 58 49 44 53 51 51 57 53 55 40 55 44 59 53 62 64 63 67 68 64 67 62 68 68 75 74 71 76 69 65 63 69 68 69 71 68 76 67 73 62 63 65 59 63 58 56 57 58 57 63 62 64 72 65 64 64 60 56 63 74 66 62 49 54 51 61 61 58 61 67 78 67 77 72 71 74 74 72 83 84 80 85 88 92 83 75 79 84 74 76 75 70 69 54 60 56 58 55 63 58 60 56 55 57 62 64 71 73 65 62 58 55 59 50 57 66 56 64 62 65 68 74 73 80 73 76 74 83 86 77 78 74 74 69 65 66 74 60 53 50 53 52 59 64 71 66 70 61 65 52 58 58 67 58 56 49 57 57 53 55 59 64 67 65 71 68 72 71 74 89 94 93 95 96 89 98 84 85 78 75 70 75 76 71 72 71 72 65 70 71 72 61 69 60 61 59 74 69 86 77 70 65 63 61 59 52 60 55 51 52 63 65 67 74 72 77 73 82 75 79 82 76 81 72 77 77 65 64 61 58 56 44 52 50 55 63 61 65 68 66 62 63 52 55 60 57 51 55 50 57 56 50 61 58 58 62 57 67 62 72 78 95 98 97 98 88 91 88 90 83 76 72 67 69 79 71 77 78 74 82 80 90 74 75 76 73 67 80 78 84 90 94 79 75 78 69 61 57 55 58 53 48 59 61 64 67 76 78 76 79 77 76 73 74 72 69 68 59 60 56 58 53 53 46 47 54 52 53 59 59 60 62 51 56 49 54 59 51 53 48 49 52 49 58 51 57 52 53 55 65 58 72 77 89 88 86 89 85 90 83 87 85 80 70 75 74 72 78 76 77 85 88 97 98 86 88 82 85 81 81 87 89 97 98 82 86 78 73 71 65 72 65 58 62 64 65 66 78 79 84 83 85 80 81 73 74 66 66 60 51 52 51 52 54 48 56 52 58 55 55 55 55 55 55 56 53 55 54 54 56 57 43 51 49 49 58 46 52 59 46 54 58 64 76 77 78 75 79 80 83 88 84 90 82 85 78 77 72 72 80 77 88 92 97 111 110 100 96 90 85 88 84 89 95 108 101 85 83 82 77 73 76 78 72 82 73 75 81 78 85 85 87 84 87 81 82 81 74 66 60 55 46 51 49 49 50 49 52 52 50 61 50 58 53 53 58 59 59 61 56 57 60 51 44 45 56 48 50 45 56 55 56 59 64 69 68 62 72 68 75 80 81 85 84 86 86 85 89 82 74 79 84 87 97 105 108 119 117 118 110 99 91 92 89 104 118 117 108 100 89 87 85 76 87 83 89 87 87 84 81 87 85 86 93 88 86 93 94 97 84 75 60 58 49 44 52 53 49 49 51 45 53 49 45 49 54 48 58 52 61 57 56 54 61 58 44 44 51 47 47 42 58 52 54 57 52 61 53 69 68 67 79 81 81 86 85 85 93 106 89 84 81 93 91 102 107 110 119 126 128 122 127 130 118 116 115 123 122 122 116 118 97 98 99 97 92 99 99 95 94 91 89 93 95 94 97 89 99 103 105 104 99 89 83 73 55 52 49 51 54 45 40 44 49 54 45 46 53 52 61 55 58 49 50 48 50 60 43 41 49 43 45 42 47 52 43 53 56 49 54 62 66 76 79 81 79 80 88 95 108 106 94 88 93 97 101 108 114 125 128 136 137 134 144 144 138 132 133 135 139 136 139 130 126 122 118 119 117 109 112 108 101 103 101 102 108 107 102 102 107 102 109 109 101 101 90 90 71 64 50 55 55 52 48 44 44 51 56 55 59 55 55 50 54 54 48 44 53 58 42 43 50 39 41 43 48 48 47 52 45 46 58 62 70 80 77 75 79 86 92 98 96 94 100 92 102 96 102 114 126 128 131 135 139 146 150 149 146 145 142 143 145 150 151 144 135 133 130 127 133 126 125 114 113 109 116 110 118 117 114 121 121 118 114 112 112 110 99 99 85 77 57 53 48 59 53 55 55 57 50 48 56 60 49 53 50 49 49 51 55 52 41 42 47 39 42 43 55 58 48 51 55 57 65 66 68 78 73 84 85 84 90 91 89 91 95 103 105 112 112 128 132 132 135 139 146 154 156 164 159 154 148 150 152 156 157 153 144 139 139 136 140 134 132 128 127 122 128 125 122 126 124 133 130 134 123 124 119 118 110 106 95 86 74 58 44 51 55 58 56 61 57 50 50 51 54 48 43 45 49 49 50 55 43 41 45 50 47 47 71 70 57 50 60 54 66 70 72 90 85 97 95 94 93 98 103 105 107 114 117 130 134 141 143 142 145 152 155 164 167 174 168 163 158 158 162 161 164 161 155 149 144 141 143 135 136 140 140 136 143 139 141 138 140 143 139 142 141 136 128 124 122 114 103 97 87 76 62 47 43 58 58 62 58 60 57 48 55 48 49 46 39 47 49 46 44 40 44 55 64 70 81 85 64 62 62 66 73 87 98 111 110 119 116 117 119 113 121 127 122 128 132 142 145 152 150 155 155 163 167 178 178 183 182 175 165 163 168 166 168 170 162 158 154 144 149 143 145 153 151 151 151 154 153 150 149 149 146 145 147 139 139 135 130 119 115 103 99 89 80 56 46 47 47 57 52 56 47 52 50 50 42 39 39 42 54 41 38 45 43 59 71 99 99 93 87 85 82 83 92 102 115 128 128 132 136 136 136 135 129 137 136 138 145 155 157 162 161 163 166 168 178 182 185 188 188 181 177 167 168 174 172 172 172 166 162 160 155 155 155 155 161 159 156 158 155 157 156 153 152 148 147 148 141 140 139 127 121 118 106 102 93 72 52 43 46 47 48 48 45 44 43 45 42 41 39 40 36 59 38 39 44 63 89 105 110 103 103 109 110 103 110 115 123 132 136 138 143 145 146 140 141 143 149 155 158 165 169 167 169 166 171 176 182 184 187 191 187 184 183 174 168 173 170 172 173 167 167 163 163 161 160 162 160 165 164 160 159 158 157 154 154 151 151 148 147 144 140 136 128 120 115 111 100 86 59 41 46 44 46 48 47 37 37 42 43 46 35 37 38 45 39 44 47 68 90 111 116 110 113 128 124 123 122 123 133 136 144 145 145 144 147 144 145 150 156 166 170 174 172 174 172 172 174 180 184 184 189 191 189 189 185 179 171 172 171 172 172 168 168 169 165 168 164 164 164 165 162 166 159 158 155 156 152 150 154 152 148 149 144 138 134 126 120 115 107 89 68 42 45 43 49 44 49 41 42 36 45 44 41 34 37 37 42 40 50 68 100 122 124 121 130 142 142 138 132 132 140 142 148 147 148 145 149 145 152 157 166 170 176 177 178 178 176 178 177 183 185 189 188 192 192 192 189 184 177 173 172 172 173 171 172 171 169 171 168 167 163 167 164 167 164 162 161 156 157 154 155 153 155 149 146 141 135 130 130 121 114 101 72 52 37 43 48 43 49 43 43 44 48 47 42 35 39 41 42 41 49 74 118 132 137 142 151 161 160 155 147 146 146 146 148 148 150 149 152 152 159 165 168 176 177 184 184 183 183 184 182 186 188 188 190 192 193 193 192 189 185 180 180 179 175 177 174 175 177 172 175 170 169 168 168 169 165 167 162 165 159 159 156 157 157 154 147 143 136 133 133 127 120 107 90 53 50 38 42 46 47 44 37 38 46 50 37 43 41 45 44 30 47 84 124 138 150 153 160 173 170 169 162 155 153 150 147 150 147 152 158 163 170 172 173 179 182 186 187 190 190 189 186 189 192 189 192 194 193 194 195 194 193 191 189 184 182 179 175 180 177 177 179 175 176 170 174 168 171 168 165 168 162 164 161 161 158 155 148 144 139 133 134 131 123 118 99 77 42 41 39 40 42 44 31 35 39 45 47 45 43 45 38 29 48 93 127 143 154 159 168 172 179 176 172 168 164 161 154 159 158 166 173 178 179 184 181 184 186 191 192 193 192 195 191 192 193 192 192 194 196 196 197 198 197 193 193 186 185 179 180 177 181 176 178 176 180 178 172 175 171 170 170 164 169 161 162 163 158 156 151 145 139 134 132 134 127 122 111 88 51 35 34 35 41 37 28 36 39 40 52 44 45 45 35 21 54 103 132 144 156 160 171 172 180 181 178 179 170 170 169 173 175 179 186 188 189 189 190 191 190 193 194 195 198 196 197 195 194 192 194 194 196 199 198 197 197 197 196 190 185 182 183 181 184 183 181 183 181 182 178 181 177 173 169 170 169 168 167 161 162 157 151 144 141 135 130 133 132 123 118 100 59 40 30 32 36 36 33 28 37 50 41 44 37 44 31 17 58 109 139 146 152 163 170 174 178 181 183 182 181 177 184 185 188 189 192 194 196 194 195 195 193 194 195 196 197 198 196 197 195 197 194 197 195 198 199 198 197 198 198 188 189 184 185 186 186 189 184 186 186 184 185 182 181 175 175 175 170 170 164 166 160 158 151 143 141 135 129 134 132 125 121 109 67 47 24 27 35 32 31 34 35 43 38 40 40 40 28 16 65 119 137 150 154 162 167 172 177 181 182 184 185 185 189 192 192 194 196 195 197 197 198 197 195 196 196 194 197 194 195 195 194 196 195 195 195 198 196 197 198 194 194 190 190 190 187 191 188 189 187 188 186 189 187 185 182 179 180 178 174 173 168 162 163 156 153 148 142 134 133 134 130 127 123 114 83 47 31 25 26 37 28 31 34 40 41 35 39 37 29 11 76 123 144 154 157 162 165 170 175 183 182 187 187 187 190 192 195 195 197 195 197 194 193 194 196 194 192 194 193 193 192 194 192 192 193 195 194 194 194 195 193 192 192 191 189 190 190 190 189 188 188 190 185 187 183 184 181 183 179 175 175 172 169 166 164 158 151 150 142 139 134 131 130 127 120 119 96 54 39 20 28 35 28 27 32 40 34 38 41 45 30 6 74 129 143 156 160 163 164 168 172 180 184 189 187 189 190 191 192 193 196 194 195 194 194 191 193 190 189 191 191 189 188 189 187 187 191 193 191 189 190 192 189 189 189 189 186 188 187 185 186 186 183 187 183 178 179 180 179 179 178 169 173 171 167 166 168 162 157 152 146 137 133 132 132 126 126 117 109 77 40 32 29 33 27 27 28 33 36 34 46 57 27 10 79 129 144 158 161 161 166 166 170 177 184 187 185 188 190 190 188 190 192 193 193 193 190 190 188 186 183 182 185 181 183 183 182 186 187 191 184 184 187 184 187 182 184 182 179 183 180 178 176 174 174 174 175 170 167 164 163 169 164 164 162 159 166 160 167 163 163 154 148 140 137 131 131 129 122 121 114 89 65 39 32 27 33 24 28 26 37 28 57 70 27 7 64 130 146 157 163 163 168 168 170 178 182 183 183 184 185 184 189 183 190 189 189 189 185 184 180 182 178 176 180 175 177 179 179 184 181 184 181 180 180 181 179 176 173 172 167 169 164 155 153 148 147 146 149 143 140 134 138 136 142 145 144 145 147 152 151 153 151 147 146 138 135 131 130 130 126 122 113 107 88 56 34 29 28 31 20 30 33 39 64 92 29 10 70 128 148 161 162 164 166 170 174 176 178 180 179 180 177 177 178 183 182 179 180 180 179 174 174 173 172 173 172 170 168 165 171 173 176 179 176 172 171 169 164 164 155 155 149 150 142 133 126 120 117 114 114 114 112 107 107 113 113 124 123 126 130 132 133 137 137 133 133 128 124 127 127 126 126 120 119 113 105 69 38 33 23 27 29 27 33 42 79 101 34 7 66 134 148 159 165 164 164 168 170 168 172 167 168 167 163 162 154 161 161 157 153 157 153 153 152 154 158 156 157 159 154 151 159 164 168 171 172 167 160 158 152 148 142 132 126 127 120 115 106 98 93 92 92 94 91 94 95 94 102 103 110 107 113 114 111 119 117 122 111 115 109 116 122 124 122 122 116 117 109 87 49 28 31 32 27 35 31 53 93 109 39 13 73 132 146 157 162 155 153 151 148 151 148 148 147 151 143 138 131 135 125 123 115 118 119 118 120 128 135 130 134 137 137 139 145 150 155 166 167 158 153 149 144 140 133 123 115 114 108 104 99 97 92 91 91 92 90 95 93 98 104 99 103 106 103 111 108 115 117 113 109 107 108 111 116 121 118 120 116 114 117 98 57 35 28 32 32 35 47 74 103 110 47 15 69 132 149 150 151 143 131 125 120 120 119 122 123 125 119 113 104 105 99 99 88 88 91 91 93 104 105 110 115 117 123 127 134 139 148 157 157 154 146 134 135 126 122 117 115 106 108 103 102 99 96 88 90 83 74 80 75 80 85 89 88 95 99 104 111 116 116 115 112 120 112 115 114 117 118 117 118 118 118 105 70 34 36 33 34 51 71 95 112 111 59 25 75 129 144 148 142 131 120 109 105 100 104 107 108 107 105 97 95 92 88 85 83 79 81 87 83 95 97 102 104 112 117 119 128 136 148 155 160 147 142 137 127 119 124 112 112 108 104 104 100 92 80 78 75 74 67 61 63 59 61 67 70 71 75 80 93 101 109 114 115 119 115 114 118 114 122 120 124 117 117 114 86 44 35 31 50 78 97 109 108 115 79 34 92 132 145 146 136 122 116 107 106 102 106 104 104 98 93 81 76 70 71 72 65 65 66 70 72 77 90 99 100 111 110 114 121 135 144 156 160 158 153 143 133 129 120 117 111 104 102 98 90 83 80 83 87 66 67 67 58 62 55 59 63 66 61 61 69 83 94 104 110 112 118 117 115 120 122 123 121 122 117 114 91 53 34 33 58 101 106 108 111 113 100 60 97 135 147 146 139 129 113 109 109 107 103 103 89 83 68 67 65 63 56 52 64 51 60 59 63 72 81 88 98 102 110 112 118 134 150 165 170 173 173 163 151 137 130 117 108 101 97 91 94 83 86 109 115 93 79 79 72 68 67 61 85 83 66 65 55 71 80 93 107 109 115 116 118 122 124 125 123 125 117 117 97 62 31 39 72 105 112 108 114 113 115 77 112 137 147 150 141 133 120 109 110 104 96 91 73 68 57 55 79 83 64 54 83 62 64 59 73 94 82 93 92 99 102 109 116 137 156 180 184 187 187 181 164 151 136 119 109 101 98 102 101 89 102 130 138 117 88 84 81 64 68 77 101 112 93 78 61 73 76 91 101 105 114 116 122 125 130 128 127 127 120 114 101 76 31 44 86 114 108 109 113 110 110 103 109 144 148 153 145 139 125 113 109 104 94 81 69 54 58 76 107 103 81 67 70 66 68 68 95 115 107 93 101 96 101 109 114 142 168 188 194 197 196 190 176 154 143 119 111 111 110 113 112 100 114 133 148 133 109 94 83 70 77 102 115 122 114 100 83 79 86 90 97 105 119 120 128 129 136 134 130 130 120 118 107 78 45 58 99 111 113 109 113 112 110 100 124 139 153 158 155 149 133 124 107 102 87 84 67 64 70 90 115 117 106 82 75 63 80 82 113 128 123 101 95 107 102 107 125 146 174 192 201 203 200 195 186 161 146 128 118 123 125 123 114 109 110 116 130 138 123 108 92 90 102 116 126 123 115 109 101 105 102 105 100 112 118 127 137 133 140 139 132 127 122 115 115 82 52 66 111 119 107 110 108 115 118 107 111 142 148 160 165 161 145 138 118 104 98 90 82 79 84 96 109 118 123 101 90 88 87 106 109 113 111 102 101 110 107 113 127 159 180 195 202 203 201 194 186 169 152 134 126 133 135 133 132 122 111 109 122 123 126 122 110 112 111 117 122 123 118 117 115 119 123 120 121 120 126 137 138 143 144 137 130 129 117 119 113 89 58 76 121 116 114 109 110 111 115 101 120 136 153 160 170 171 164 154 136 128 118 115 112 99 100 104 111 115 121 116 114 112 112 115 110 112 113 116 116 115 118 125 146 166 185 196 203 203 199 197 187 171 157 142 139 139 142 139 138 128 120 115 113 121 117 119 118 121 126 124 128 130 127 128 127 131 135 137 138 136 137 144 148 147 140 140 130 126 117 117 113 94 71 90 124 127 108 108 115 110 113 109 110 139 145 157 171 176 176 170 162 154 156 143 138 128 124 126 126 125 125 126 123 123 120 120 122 113 123 125 122 127 132 148 161 173 185 194 201 204 200 196 184 171 161 155 152 152 154 144 145 138 131 126 123 117 123 119 128 125 132 134 135 138 138 139 140 140 148 147 149 149 151 147 151 146 141 133 131 124 119 117 110 106 81 103 128 123 114 105 111 112 111 108 116 129 149 155 170 179 184 182 179 180 177 169 163 155 148 147 145 142 140 136 133 130 133 126 132 133 134 136 136 144 152 166 172 177 185 191 201 203 201 194 187 168 163 159 159 160 164 158 155 149 146 140 135 128 133 125 129 130 131 138 136 146 146 148 148 153 150 157 154 158 159 154 150 152 138 135 128 124 120 115 110 110 97 109 123 126 110 107 109 114 115 108 112 132 143 153 168 180 185 185 188 187 189 184 178 173 168 162 157 150 153 143 147 144 146 146 149 151 153 155 156 166 168 176 178 180 185 191 199 201 200 197 179 172 162 158 157 160 164 163 164 166 156 153 146 148 144 147 147 148 148 149 147 152 156 159 159 164 157 163 165 168 164 157 155 146 136 132 125 124 116 112 111 109 101 109 123 118 112 108 108 115 108 106 113 131 142 148 164 174 186 188 193 189 196 190 187 181 179 170 169 166 163 163 161 159 161 161 164 172 173 174 177 176 174 180 178 178 187 188 198 199 198 189 181 166 159 158 153 155 160 164 174 177 172 169 161 158 153 158 157 156 158 161 162 163 166 169 171 169 171 168 171 172 169 159 153 146 137 130 125 117 117 112 110 108 100 107 116 116 110 105 110 111 111 108 121 127 139 146 161 174 183 188 192 191 196 195 191 190 184 186 174 176 170 173 169 169 170 177 183 184 184 182 179 179 175 180 176 178 183 193 197 199 198 189 181 169 162 153 153 150 155 163 174 182 185 183 175 178 171 171 169 170 172 170 176 177 178 179 180 184 181 180 182 176 171 160 151 142 137 128 124 119 113 114 109 108 104 108 117 118 110 111 110 107 105 109 122 128 137 143 155 169 181 188 191 193 195 197 197 196 193 191 189 184 183 184 186 185 187 190 190 189 188 185 179 180 177 176 178 178 184 192 199 199 197 191 184 170 165 152 151 148 153 157 171 181 185 189 188 184 184 183 178 180 180 180 182 185 185 187 188 189 189 187 181 174 169 159 147 142 131 125 120 117 109 112 107 108 104 117 127 123 112 109 109 108 110 104 124 128 135 137 151 161 175 183 190 190 197 195 199 196 198 194 198 192 191 190 192 195 195 192 193 190 188 184 181 175 173 175 178 179 182 191 197 201 196 194 186 179 163 152 146 146 150 159 169 181 187 190 191 188 190 190 187 184 186 186 185 188 188 190 188 191 189 186 182 172 163 158 146 138 129 123 119 114 109 109 108 105 112 127 126 122 111 108 110 110 111 104 119 130 133 134 145 155 170 176 185 186 195 195 197 194 196 196 196 195 194 192 195 198 195 193 192 189 188 185 182 178 173 172 172 182 183 191 195 201 198 192 191 184 169 152 144 143 147 160 170 179 186 190 191 191 191 191 190 190 186 185 184 189 188 184 188 186 184 180 176 172 158 152 143 134 126 124 116 112 108 109 106 103 113 121 122 115 112 109 113 114 114 102 118 122 142 134 145 151 159 169 176 184 190 194 192 190 190 192 193 193 193 192 192 194 193 192 191 190 189 186 182 175 171 167 174 179 182 192 195 200 196 193 190 184 176 148 139 138 138 154 168 179 182 189 189 192 191 192 190 192 186 184 181 184 184 180 181 178 172 172 171 162 156 140 143 125 124 118 115 110 106 107 102 103 105 114 112 112 108 110 112 104 110 109 109 130 131 135 138 149 155 161 171 175 184 185 188 186 187 187 187 190 192 192 189 191 191 190 188 187 185 184 179 174 167 165 174 179 186 191 194 198 199 192 187 183 173 153 136 130 136 138 159 172 178 184 186 189 192 190 189 189 186 185 181 183 180 182 176 173 165 163 162 153 149 135 133 123 122 112 114 105 104 103 102 104 103 106 109 104 109 111 105 112 109 105 113 122 131 138 135 143 150 153 163 163 173 171 180 183 187 183 187 186 190 191 188 189 189 186 184 184 183 179 173 166 165 162 172 179 188 194 195 196 197 190 185 182 173 159 140 136 131 141 144 167 174 184 182 188 192 189 187 188 188 185 182 183 181 179 176 170 164 157 154 150 146 132 131 125 120 111 108 108 108 99 106 99 103 109 104 111 109 108 110 106 111 109 106 119 126 132 138 144 146 150 157 162 164 173 176 179 185 184 187 186 187 189 189 190 186 185 181 184 178 172 168 165 161 166 175 180 193 198 199 196 195 189 185 183 178 160 150 146 145 132 141 152 168 174 180 187 190 189 187 187 186 185 182 182 178 177 170 167 161 156 152 148 138 129 126 119 116 112 109 111 106 107 101 99 106 104 111 104 109 111 112 110 107 106 110 111 128 131 136 140 146 146 154 158 166 163 175 178 180 184 183 186 188 186 189 188 187 184 179 178 171 168 162 163 160 168 174 180 189 196 199 195 191 189 186 183 175 158 148 146 148 136 132 141 156 169 177 184 185 187 185 187 185 181 181 179 178 175 166 164 154 153 149 140 132 129 121 121 113 113 112 110 107 107 101 95 102 103 107 108 107 109 111 106 106 110 103 113 121 131 136 140 143 147 153 153 162 165 172 179 179 182 182 186 186 186 185 186 184 179 173 178 163 159 161 159 161 161 167 171 174 184 185 186 189 184 181 174 161 142 127 135 133 139 132 137 154 164 175 178 180 182 183 183 183 179 180 178 179 170 165 160 150 148 141 138 130 126 121 121 117 113 113 107 106 105 97 96 99 103 110 111 109 107 111 112 105 107 107 107 122 128 135 139 142 144 151 153 160 165 167 175 180 179 179 183 185 184 180 182 179 175 169 167 161 156 156 153 149 143 141 151 153 161 165 170 172 167 159 148 132 119 115 116 120 131 128 130 151 163 170 171 173 177 179 180 178 179 174 176 174 167 159 157 147 144 139 133 127 124 123 118 115 115 112 109 106 99 103 102 105 108 111 108 108 108 111 111 109 105 108 107 112 126 134 143 137 144 146 151 159 160 167 169 176 179 180 176 184 178 179 178 174 170 166 156 153 153 144 144 133 121 114 123 126 134 138 142 145 136 132 116 111 97 101 104 113 115 119 126 145 161 164 170 171 176 178 179 176 179 174 173 169 161 156 148 143 140 134 132 123 126 118 118 119 110 111 105 106 100 105 106 106 109 107 109 109 109 105 107 108 106 113 104 110 125 132 142 136 140 149 144 153 160 161 168 172 175 178 180 177 175 177 173 168 166 160 158 157 142 132 124 115 100 92 100 102 109 107 111 113 113 113 103 89 73 69 89 102 105 105 120 138 160 166 161 167 169 173 172 174 172 164 162 159 153 152 144 144 134 130 129 125 121 121 116 120 111 112 107 101 100 103 105 106 107 107 108 111 104 108 107 111 103 110 108 105 115 131 143 140 143 144 149 148 157 159 162 168 171 173 175 171 170 171 167 163 163 165 162 162 142 124 108 91 79 59 74 90 97 95 94 100 97 99 91 75 51 58 75 91 99 99 118 138 154 165 163 165 164 170 169 168 167 161 155 153 151 147 142 140 130 131 124 123 120 119 120 118 112 110 104 104 101 104 106 110 108 108 108 108 106 109 109 108 107 107 108 105 111 130 135 145 142 142 148 145 153 156 159 165 164 166 169 167 165 167 166 162 165 164 168 169 163 132 110 94 88 81 75 80 89 95 90 89 95 90 94 88 78 87 82 91 97 108 118 140 155 165 166 167 165 168 167 165 162 156 151 149 143 142 137 135 129 130 123 124 120 117 119 117 113 107 103 99 104 106 105 112 106 107 109 106 108 106 111 103 109 106 109 100 114 115 137 139 142 144 143 143 148 149 156 163 160 162 168 163 163 163 161 162 166 169 173 176 176 161 122 102 94 93 89 87 93 94 93 94 98 100 106 106 98 99 96 102 112 116 129 139 153 162 170 170 166 165 166 165 159 154 151 142 137 136 137 128 130 125 122 125 119 120 120 114 113 107 104 101 101 106 105 110 107 107 107 110 105 110 105 104 105 106 109 99 102 121 129 142 142 146 144 144 149 149 149 158 156 160 164 165 165 161 162 167 172 176 177 177 182 177 143 116 100 93 91 99 101 104 100 102 109 106 116 109 110 107 113 121 127 129 129 137 148 157 167 172 171 166 166 162 159 154 145 149 135 136 132 130 132 124 121 119 119 120 118 113 108 108 100 100 107 101 107 106 106 106 107 110 103 107 105 111 103 107 102 105 106 112 132 136 140 144 144 144 144 147 150 154 162 156 158 162 162 168 166 173 174 174 176 178 177 177 160 136 125 115 113 116 111 115 106 106 108 113 119 115 118 121 129 128 135 128 134 131 139 153 167 172 171 170 160 161 157 152 146 144 140 139 133 136 129 126 120 119 118 118 114 112 108 103 97 105 99 110 105 111 104 107 111 103 111 107 107 106 105 106 101 105 102 112 123 135 143 142 142 148 148 147 147 154 157 160 153 152 161 165 171 174 174 169 175 177 172 177 166 163 152 152 144 134 131 122 115 107 109 116 118 119 123 126 128 128 129 136 131 128 141 150 160 164 170 167 163 158 153 147 146 143 135 136 132 132 126 124 121 116 120 114 116 114 100 108 97 104 102 109 105 107 107 106 107 105 103 107 105 103 106 105 99 109 99 108 124 127 137 139 139 145 148 146 145 150 155 157 148 151 160 166 171 171 171 168 170 172 170 175 167 162 166 162 164 154 145 133 122 110 110 115 124 122 124 125 128 125 128 131 129 129 136 143 149 158 164 161 160 157 150 141 143 135 135 131 131 129 124 126 120 118 115 117 113 110 102 103 96 104 102 110 107 106 109 105 106 106 105 110 103 104 105 104 102 108 99 105 117 130 134 135 136 142 147 144 145 146 149 152 150 156 157 161 164 164 164 163 165 164 166 168 163 163 160 162 167 164 155 146 129 118 115 121 122 126 129 127 129 126 128 127 128 127 134 139 145 149 155 154 153 148 147 144 136 133 133 128 128 124 121 125 116 115 114 114 112 108 101 101 101 102 107 105 106 105 109 104 107 106 105 107 107 105 102 103 109 98 102 102 114 124 133 136 133 139 142 144 144 142 146 147 151 150 155 154 156 156 155 155 156 159 158 163 162 158 159 162 162 167 167 155 150 141 129 131 127 134 131 133 125 129 127 127 125 126 124 132 136 140 143 145 145 142 143 135 135 130 130 123 128 122 125 121 117 109 114 114 106 103 98 103 100 106 104 106 108 106 105 106 103 105 104 104 106 103 102 103 103 102 103 101 110 123 133 132 138 138 139 141 145 142 138 145 146 145 147 148 148 147 148 144 144 151 152 151 162 160 164 162 167 169 174 175 173 169 156 150 143 142 134 130 129 129 123 127 124 122 124 120 126 132 131 135 133 135 133 129 132 123 124 122 127 125 127 120 118 116 112 109 104 101 96 99 103 104 105 105 105 108 107 104 107 103 103 108 105 98 99 103 104 99 101 101 103 113 126 132 138 133 143 134 137 139 138 141 138 140 130 138 138 138 136 134 132 137 141 148 153 160 160 165 167 171 171 179 185 187 176 164 149 142 132 130 127 131 122 122 124 119 115 114 115 117 123 120 127 124 124 120 124 124 122 120 122 122 119 114 118 109 111 108 97 96 99 97 102 104 104 105 108 105 106 105 104 102 104 109 98 100 102 100 101 101 102 103 98 109 121 124 130 132 136 137 137 135 137 132 130 128 126 125 123 120 112 119 113 122 129 139 141 147 144 141 140 137 145 150 163 170 160 148 126 119 114 117 115 117 115 117 113 109 104 102 100 102 107 114 113 117 114 117 118 119 121 117 120 119 116 114 113 111 108 104 96 94 98 102 105 106 103 106 105 101 110 102 106 101 108 100 102 102 101 100 103 99 97 104 99 105 113 121 130 126 136 133 137 133 133 133 126 118 117 112 106 106 101 93 98 105 109 111 114 110 106 97 94 91 91 100 118 121 117 106 91 84 79 88 90 87 91 95 95 90 91 84 84 91 92 98 103 108 108 113 113 117 118 118 116 119 113 105 107 109 106 100 97 93 100 101 104 102 105 105 102 102 107 104 106 104 102 105 103 100 99 100 99 100 99 103 102 99 106 118 124 125 128 131 133 135 132 132 121 119 110 107 101 89 96 83 78 81 85 80 84 75 72 74 69 70 65 69 77 78 80 69 69 67 65 69 71 66 73 75 81 81 80 77 84 83 89 92 94 103 107 113 115 115 118 118 116 115 108 105 101 107 101 99 94 94 100 102 107 102 107 101 106 106 106 102 103 103 100 105 102 99 98 101 98 100 100 102 99 102 100 111 117 120 127 126 129 133 134 133 125 120 113 105 99 92 98 93 96 100 93 95 84 82 79 82 73 81 67 70 66 63 66 67 69 71 78 81 87 90 88 90 92 96 104 105 105 109 100 102 95 105 107 113 115 118 115 114 113 114 107 106 102 103 98 98 92 101 99 105 103 104 104 105 102 105 104 101 107 100 104 106 99 95 99 98 98 99 104 98 100 100 98 103 108 117 121 125 125 131 130 131 131 119 116 110 105 109 112 123 132 132 131 130 120 116 103 105 97 102 101 89 93 90 91 94 96 97 98 96 101 97 92 96 102 108 113 119 124 124 121 114 105 108 110 109 111 117 115 113 110 109 109 104 100 102 97 94 94 102 103 104 101 103 103 104 103 102 103 105 100 104 100 106 98 98 96 104 98 98 98 103 99 103 96 102 96 110 117 120 124 127 127 124 128 117 118 117 125 129 134 143 150 148 147 140 132 129 120 115 111 114 115 116 116 111 113 107 102 102 99 95 98 93 101 103 110 117 116 121 124 127 125 122 118 108 108 108 112 110 112 112 108 106 102 101 100 97 96 92 101 100 102 109 96 106 107 100 105 102 102 102 103 100 105 105 101 97 99 96 98 100 96 98 102 100 102 94 97 101 107 110 119 119 123 119 118 120 119 120 127 140 139 144 144 142 139 139 127 123 119 113 109 112 111 116 118 121 113 111 105 101 101 97 103 95 102 109 108 114 113 117 122 119 122 126 118 114 107 110 105 104 108 104 103 100 98 99 94 91 89 91 103 97 104 101 103 103 105 100 108 98 104 98 100 105 103 104 100 100 95 97 100 99 96 99 101 97 99 99 101 91 101 103 110 110 113 110 109 111 118 119 125 129 130 135 131 132 130 123 118 117 103 102 94 100 90 94 88 98 95 94 93 90 95 90 100 98 102 105 106 109 113 111 117 118 116 119 112 111 109 102 107 107 103 104 99 99 92 98 91 81 89 97 98 104 101 103 101 103 102 104 102 101 104 100 103 99 106 98 101 99 96 98 95 98 96 100 98 100 98 96 105 96 93 93 101 100 105 102 107 103 109 110 117 116 116 120 120 120 118 116 104 103 94 95 86 88 87 77 84 80 78 79 81 79 85 85 87 92 95 100 99 108 107 107 110 109 110 108 104 106 102 100 103 99 102 96 96 93 87 93 82 81 87 96 103 101 104 100 101 104 100 103 100 104 101 102 103 101 102 101 103 97 96 95 98 97 97 102 96 96 100 95 108 109 92 84 88 90 101 91 98 95 99 101 106 106 106 106 110 112 113 103 105 91 92 90 87 90 86 87 84 84 86 82 84 79 84 86 87 87 94 94 100 106 102 104 105 106 103 101 103 100 98 97 97 97 98 94 88 90 83 82 77 81 89 98 95 101 100 99 101 101 102 99 105 97 104 98 103 99 100 100 100 93 97 100 95 97 98 98 98 97 101 94 103 118 101 83 82 85 87 90 91 91 92 96 97 101 101 102 109 111 109 107 105 97 96 96 96 97 96 101 100 103 101 100 103 96 98 97 93 94 99 98 102 106 103 104 103 107 100 104 99 101 96 97 98 94 95 89 86 89 75 76 76 89 87 75 95 101 100 102 103 99 94 101 102 102 103 98 100 102 100 100 95 99 92 95 96 98 97 97 96 93 107 92 98 118 110 86 76 78 79 80 85 83 90 94 96 103 106 113 112 116 116 114 115 112 118 117 117 114 114 113 113 118 121 119 113 121 115 113 105 107 106 105 106 107 104 107 106 111 104 107 100 100 99 94 94 91 87 84 76 69 71 72 79 87 89 45 70 99 94 98 99 98 100 103 96 100 101 98 102 98 97 101 104 100 92 96 95 96 92 99 102 78 107 103 88 121 112 108 77 72 76 76 69 81 76 90 89 103 111 114 115 121 122 129 134 137 139 141 140 137 134 130 126 131 130 129 123 125 120 120 119 115 116 120 110 113 117 111 112 109 108 103 101 99 96 90 86 82 76 72 67 65 73 69 86 93 84 37 40 74 92 94 94 99 99 99 101 101 97 97 103 99 99 98 102 95 93 95 94 94 96 101 111 92 89 82 76 121 117 115 87 74 73 70 70 73 74 73 75 88 97 108 115 121 129 135 139 142 146 151 150 148 146 142 140 137 139 130 131 127 124 120 124 115 119 125 120 119 117 115 111 105 105 97 98 92 84 77 72 66 63 64 64 64 70 82 83 99 80 35 26 49 71 81 86 89 100 95 99 97 101 96 100 97 100 95 98 95 96 95 98 84 109 99 94 108 95 69 68 120 123 112 98 81 70 69 69 69 71 65 72 71 83 102 112 117 122 134 135 133 139 145 147 146 141 141 139 139 136 133 129 124 126 121 116 120 119 122 117 116 112 113 109 102 97 98 81 79 71 60 61 59 60 63 69 70 75 87 86 102 74 36 20 38 49 66 59 74 92 93 97 95 100 97 96 100 97 98 93 93 95 92 98 91 108 118 95 87 96 61 58 120 125 118 108 88 79 69 71 68 67 68 67 66 68 82 105 107 116 124 128 126 128 135 135 133 129 129 129 132 128 122 123 121 117 117 111 115 114 115 113 111 102 105 97 95 90 86 68 67 59 56 62 62 62 67 67 75 78 90 92 100 79 29 23 30 42 35 38 59 74 80 96 93 96 94 96 101 96 98 97 92 95 88 101 92 99 115 94 86 91 55 62 119 126 122 113 98 81 76 71 67 68 69 72 66 64 63 83 94 104 110 112 120 119 117 119 119 118 114 113 118 110 112 110 111 111 108 109 109 107 108 104 99 97 92 90 86 72 70 60 64 59 63 67 62 67 71 73 80 84 94 96 97 80 34 24 29 42 26 32 44 65 71 83 87 98 95 97 98 99 97 99 92 90 90 108 108 90 67 69 85 84 53 65 114 127 125 120 106 94 77 76 67 74 69 66 70 71 65 68 69 83 89 92 103 100 106 101 106 99 96 96 96 91 94 92 94 93 99 93 93 96 96 91 88 84 78 75 67 60 65 63 62 75 64 73 65 74 71 84 83 92 92 96 99 88 25 25 28 41 36 24 41 62 60 62 69 89 93 95 91 98 94 91 106 100 84 98 87 81 53 69 85 89 51 58 111 127 124 124 109 104 89 77 67 75 68 73 71 71 71 67 68 64 72 73 82 78 85 89 84 87 81 83 78 82 79 81 81 86 78 77 86 81 80 73 72 69 66 63 61 63 65 68 74 69 71 72 74 73 76 84 92 91 96 95 97 91 36 23 28 39 41 20 22 47 56 66 62 74 86 90 94 91 95 95 107 100 76 106 108 84 45 74 86 87 55 53 110 121 127 124 117 110 96 82 77 68 75 70 69 72 72 69 71 72 60 61 65 65 66 69 69 70 68 68 69 70 67 67 72 69 71 66 71 65 64 58 62 57 64 60 68 68 73 68 75 70 72 70 74 73 86 85 93 94 99 91 101 93 42 23 26 43 42 27 19 23 46 62 56 63 70 83 89 91 91 92 90 101 104 106 124 86 55 71 87 87 59 48 111 122 127 124 120 114 101 93 86 70 71 71 70 74 75 73 71 71 70 68 60 65 59 60 66 64 63 57 62 63 64 59 65 57 63 56 62 59 61 58 62 62 70 68 70 75 72 71 75 69 70 74 79 83 85 94 93 97 100 94 93 93 44 23 28 40 42 36 19 20 47 56 71 64 62 67 76 80 90 88 93 83 110 100 110 101 62 78 88 80 70 47 99 124 126 125 122 116 112 98 90 71 75 74 68 71 76 71 69 76 71 76 73 66 67 63 68 62 62 62 66 62 62 62 61 63 62 60 62 64 66 67 67 70 73 70 72 74 71 76 70 72 73 78 78 86 90 92 94 97 92 95 92 86 42 24 34 39 40 37 24 30 53 72 58 67 54 63 72 76 79 80 103 68 103 118 100 109 79 77 86 79 74 45 96 121 126 126 126 118 114 103 97 81 78 74 70 75 70 71 72 76 72 76 75 74 70 70 66 70 67 62 67 65 64 64 66 68 62 67 71 62 72 69 70 70 75 72 80 70 74 72 70 76 75 80 87 86 92 93 98 94 94 91 89 79 33 28 33 43 39 37 31 33 38 65 61 49 56 60 74 78 62 62 