P2
92
112
255
126 124 125 125 122 125 123 126 125 124 125 123 125 125 123 125 126 120 114 91 93 86 85 91 87 93 80 89 84 87 87 84 88 84 104 92 90 77 71 82 82 74 72 84 74 69 66 73 74 62 73 85 68 96 92 86 72 72 81 83 93 89 93 98 99 109 106 104 95 95 95 100 100 108 101 102 114 113 118 120 120 120 122 124 122 122 119 123 121 119 119 122 122 124 123 122 125 122 125 123 125 123 122 122 126 123 122 120 111 99 87 87 79 77 74 91 92 98 75 83 91 96 88 83 82 83 80 83 86 73 71 67 69 80 83 80 73 82 75 69 64 66 65 71 74 75 80 76 70 74 64 74 83 76 85 89 92 87 73 78 87 93 96 99 106 108 98 102 105 111 112 116 115 120 120 124 122 119 123 121 122 120 122 119 124 124 123 122 125 124 124 126 121 126 122 118 123 124 119 104 99 107 94 86 73 71 73 77 79 74 75 67 73 91 77 68 66 71 67 73 78 70 68 66 73 83 76 71 75 74 60 50 57 66 63 58 70 67 76 67 60 72 75 85 87 82 80 80 77 74 66 70 78 88 83 88 109 101 92 97 114 113 108 111 110 105 113 123 119 123 117 123 119 123 121 122 124 122 123 126 125 125 122 125 126 122 123 120 118 119 112 101 101 104 99 80 64 66 65 68 61 53 64 69 55 71 71 61 56 57 59 59 68 65 62 53 79 80 72 73 73 61 61 61 67 71 73 73 81 89 90 88 79 78 89 83 83 82 65 63 57 58 53 66 69 69 77 78 81 99 95 103 104 110 102 98 95 92 85 110 119 121 120 123 120 123 121 120 125 124 124 125 125 124 125 125 123 125 120 116 114 102 95 91 84 86 87 66 58 55 54 60 53 38 64 72 53 59 63 63 58 50 58 65 62 61 57 66 74 74 72 81 77 67 74 78 78 83 80 84 95 101 102 93 75 75 80 67 66 69 62 67 64 59 66 63 61 77 78 76 87 85 86 91 93 90 94 91 83 90 72 98 119 117 121 120 121 120 121 120 123 123 125 122 125 124 125 123 123 125 119 109 103 102 94 93 81 72 79 67 54 43 44 45 45 46 66 67 53 52 53 62 69 65 67 71 67 55 59 73 68 64 67 64 68 67 74 66 71 66 67 78 87 86 86 74 67 69 61 53 58 63 70 70 64 69 77 86 87 80 89 95 83 82 86 87 71 93 90 80 79 89 80 71 106 113 121 119 120 122 122 120 124 123 127 123 125 125 126 120 122 120 116 100 101 86 78 74 77 75 79 64 60 40 41 33 46 54 62 58 51 46 49 59 64 64 59 57 56 53 61 69 57 56 45 47 56 53 54 50 53 59 65 72 67 62 65 56 62 56 60 63 63 70 73 75 67 76 75 75 71 68 80 74 68 80 81 88 91 89 92 74 77 84 88 68 74 111 116 121 119 121 121 120 122 123 124 127 124 124 124 123 117 112 111 85 81 78 76 67 68 55 57 56 51 39 55 42 47 57 59 54 52 42 62 63 56 48 47 43 42 54 61 54 49 47 39 42 41 49 50 55 49 55 53 58 62 59 59 53 59 59 59 64 69 89 82 79 74 76 65 73 57 63 55 64 74 86 95 102 96 90 100 95 92 82 83 95 66 97 116 116 120 120 122 119 121 124 125 127 124 128 124 122 117 103 88 67 64 67 64 63 48 47 44 46 43 50 44 47 47 45 46 47 54 52 51 47 42 44 39 34 37 44 57 50 45 34 33 38 40 45 40 51 50 56 57 62 64 53 56 62 59 58 66 73 89 100 91 83 76 75 66 63 68 70 76 81 92 97 91 94 90 104 115 103 101 89 92 93 73 89 103 116 122 118 120 122 125 124 124 124 126 126 120 110 95 80 69 57 53 47 44 50 40 38 33 38 36 39 54 47 44 32 37 37 35 37 37 43 52 42 34 28 38 43 53 48 42 40 40 40 45 51 55 57 59 62 72 75 69 76 78 74 63 59 73 81 85 83 80 75 71 77 73 80 74 77 82 90 91 88 82 76 95 102 96 95 90 90 94 92 58 82 96 113 121 122 120 119 126 124 125 123 128 127 116 99 83 62 51 53 50 52 44 40 28 30 32 34 38 42 54 56 64 60 49 46 38 40 43 49 37 36 34 33 32 46 52 44 41 40 47 42 48 49 45 50 55 65 70 62 69 79 72 76 77 82 72 69 71 73 73 82 84 78 76 76 68 73 75 82 85 78 79 80 85 75 83 84 86 79 80 78 63 74 87 103 120 116 119 119 127 122 126 123 123 122 107 82 68 62 64 57 50 43 43 42 54 57 37 39 57 65 76 84 87 85 76 73 69 70 61 55 39 48 40 35 32 42 48 40 41 36 36 40 43 34 47 52 66 72 74 70 72 81 79 84 80 73 68 68 69 70 71 71 67 67 68 68 74 69 67 63 71 75 75 72 73 76 76 80 72 71 76 73 65 71 90 96 110 117 119 119 120 124 124 125 120 114 89 57 73 57 59 50 42 49 52 59 65 48 39 60 79 75 78 75 77 75 72 73 65 52 47 41 39 33 34 34 30 39 40 39 32 34 34 35 37 39 49 52 56 58 67 62 64 78 78 80 69 70 75 81 83 76 66 60 52 51 59 62 70 62 56 60 69 76 78 77 76 83 79 74 67 63 63 59 67 69 73 100 110 109 119 114 123 122 123 122 117 92 70 61 58 52 48 44 43 48 61 61 66 76 75 73 73 74 76 73 57 53 58 65 61 60 45 43 39 38 43 34 36 38 44 48 38 37 42 34 42 52 57 51 49 49 50 53 54 61 64 65 79 86 90 87 87 77 79 77 67 62 64 60 56 62 56 61 76 79 85 82 72 69 65 65 68 66 63 61 58 61 52 89 109 97 118 111 121 123 122 124 104 78 62 55 51 61 50 52 68 82 87 95 93 85 77 82 94 85 88 79 68 56 57 54 55 59 60 52 44 49 44 45 38 34 43 42 45 30 31 39 53 56 52 43 40 36 38 41 45 56 64 73 87 96 90 93 89 94 92 83 68 69 67 55 56 62 59 70 83 79 75 78 60 61 60 56 56 59 70 62 61 63 54 57 78 78 95 110 124 122 125 121 94 70 62 53 64 62 50 67 87 86 92 89 86 90 82 86 83 84 87 93 83 77 66 59 56 57 60 55 53 50 50 47 41 35 30 36 38 40 41 55 57 53 40 33 30 27 30 32 41 48 54 69 74 73 74 85 99 104 94 77 68 63 63 58 60 60 69 77 81 83 77 69 71 67 62 63 57 60 60 55 58 59 62 61 54 52 67 101 126 121 124 101 78 63 59 59 60 56 58 80 79 74 87 93 92 84 81 82 82 87 78 75 68 67 76 78 80 83 77 70 67 60 56 56 43 42 40 39 39 43 48 57 49 47 31 32 26 24 22 33 32 42 51 52 63 70 88 91 97 91 81 72 68 67 65 55 60 64 77 79 78 70 64 56 62 66 63 64 64 60 62 63 56 51 48 57 46 55 80 97 126 127 108 94 75 59 57 66 61 49 83 69 56 76 85 75 78 78 83 87 86 79 73 70 83 93 86 87 96 97 77 67 51 50 54 56 46 47 46 40 42 43 48 47 48 37 31 28 23 21 26 25 34 41 46 50 59 58 70 75 81 79 74 67 76 66 67 67 71 73 70 65 65 48 54 49 60 54 59 54 56 47 56 51 50 46 52 49 42 68 87 111 123 116 85 76 70 54 60 68 59 62 55 62 60 62 79 80 96 95 88 78 75 64 78 89 92 92 88 81 81 74 74 69 65 56 56 50 46 42 43 36 39 41 46 51 43 32 31 23 27 23 26 28 31 34 35 38 43 54 67 81 72 56 56 66 73 72 74 71 72 61 56 50 52 45 52 60 56 54 54 57 62 60 59 54 53 48 54 55 50 54 73 103 120 97 77 65 64 58 62 61 69 63 60 59 55 68 89 90 84 76 73 76 79 88 92 79 78 73 71 65 71 71 70 63 58 51 51 45 35 36 33 38 40 43 51 51 45 38 34 29 29 32 28 28 30 30 25 33 45 65 71 59 49 51 61 59 72 64 61 54 48 48 54 57 55 61 59 51 44 46 52 53 58 66 65 62 61 57 54 48 48 44 72 91 109 90 72 57 58 52 64 55 51 52 54 58 62 73 88 90 77 74 76 82 87 82 85 78 76 69 67 60 61 61 69 64 49 50 41 46 40 38 41 37 46 48 55 52 50 46 40 45 40 31 30 27 32 30 33 45 60 63 58 52 51 47 57 60 67 58 55 53 52 55 55 58 54 49 41 48 42 46 54 44 43 47 50 46 51 46 51 47 40 56 58 79 110 84 63 52 53 55 53 47 50 48 56 56 59 69 85 79 77 85 94 88 87 90 92 90 82 73 74 66 68 73 64 54 51 48 46 49 47 43 49 48 49 51 57 56 61 52 56 54 48 35 34 36 34 42 48 49 59 62 60 63 58 54 51 58 58 55 56 56 54 60 62 55 59 61 65 59 55 44 38 41 36 38 38 38 42 34 38 47 40 55 52 60 95 72 58 58 57 51 50 48 53 50 55 58 56 69 70 66 78 86 89 87 84 91 93 94 93 94 85 79 78 71 60 56 53 46 48 47 52 51 56 55 51 54 66 70 72 62 57 58 54 53 51 43 41 50 59 64 66 77 69 65 63 64 59 60 59 60 62 62 67 77 69 67 70 70 69 63 56 59 50 45 43 42 38 38 37 37 36 43 47 49 56 59 74 63 60 66 50 47 53 54 65 56 62 57 59 53 64 67 73 78 75 82 78 86 84 91 88 86 84 81 83 73 70 70 64 56 52 54 57 61 61 61 66 65 75 84 75 71 68 68 76 73 67 58 55 62 71 77 81 83 67 65 64 69 71 73 77 81 82 86 88 78 83 77 77 68 64 62 58 57 57 54 50 51 44 39 36 40 34 41 41 42 53 59 58 54 71 57 54 60 85 78 62 58 53 47 51 50 64 72 82 68 69 70 74 78 82 78 79 91 102 96 91 80 78 70 64 53 62 65 60 66 70 67 63 66 74 79 79 71 76 81 91 96 85 68 77 82 96 98 94 86 59 68 86 84 81 89 96 101 98 96 93 89 81 74 79 72 66 63 60 63 46 47 44 51 48 43 43 39 34 40 31 37 48 47 49 57 65 63 64 90 89 72 44 52 45 40 46 53 67 67 60 63 62 72 76 72 84 80 81 85 84 89 86 75 78 80 88 77 73 67 69 76 84 72 66 71 67 71 64 65 73 81 95 102 96 90 97 100 112 122 117 96 74 92 109 111 108 106 106 105 94 94 96 98 88 82 78 66 56 59 52 58 49 48 44 46 50 49 39 44 41 35 37 33 46 50 56 64 72 75 77 84 60 51 45 39 46 40 46 55 51 53 55 60 58 65 68 69 73 77 76 82 78 83 80 87 91 94 85 74 78 73 72 92 96 96 88 86 90 90 93 83 89 113 124 124 123 126 131 126 127 132 130 114 85 107 113 115 126 133 132 127 117 118 111 112 109 100 81 77 57 53 45 42 48 46 53 48 52 47 50 30 45 42 36 38 49 66 65 64 63 65 57 65 62 47 35 43 42 44 56 55 45 49 50 57 53 53 66 66 68 73 68 76 72 78 77 81 85 81 85 80 82 74 92 104 108 103 98 107 109 106 105 104 116 129 146 151 143 137 142 144 131 135 137 122 99 107 127 132 136 144 146 146 133 133 128 125 124 116 98 76 62 49 45 42 39 35 46 56 59 56 48 40 44 44 43 41 48 65 70 60 67 48 60 65 52 40 40 46 41 47 46 44 41 43 48 50 52 54 57 60 62 68 73 77 79 77 77 86 89 89 92 84 82 88 106 110 111 113 118 127 125 121 120 119 130 149 161 166 161 155 159 155 144 143 150 140 125 140 152 153 150 154 154 152 153 148 141 140 131 120 108 101 80 57 39 42 43 37 37 41 55 59 53 45 36 37 43 36 43 54 65 61 51 45 60 58 39 43 48 47 39 46 44 39 42 49 52 53 51 53 53 57 59 75 78 76 79 79 85 91 95 92 90 78 84 98 114 120 131 140 148 147 138 132 130 130 146 165 171 177 172 172 171 167 155 158 165 164 155 152 151 158 160 161 164 163 165 163 157 154 147 141 126 116 94 85 51 34 29 38 45 38 46 52 55 51 43 39 37 34 41 50 59 57 46 43 60 44 45 51 43 38 40 41 42 40 46 47 54 55 51 45 53 60 64 75 76 70 80 83 87 89 94 88 84 84 95 105 136 154 168 168 167 160 151 150 148 155 171 178 182 185 183 185 181 180 171 173 178 175 166 159 166 173 177 175 177 176 180 175 170 161 158 158 151 139 116 110 90 50 30 35 37 48 42 40 45 49 44 42 39 35 33 56 46 59 44 55 54 44 50 49 42 37 38 44 44 46 45 56 53 46 54 55 57 61 71 67 79 82 87 87 94 98 93 91 88 97 108 122 147 170 174 175 168 162 161 171 172 178 184 188 194 195 191 189 189 187 187 179 179 179 182 178 178 178 177 183 182 185 182 182 178 171 164 165 166 155 142 133 121 91 51 36 32 47 63 49 39 47 38 42 39 37 41 55 48 55 51 54 60 47 54 55 41 33 39 41 47 46 52 50 54 56 69 72 65 71 73 77 83 92 91 97 101 103 88 93 105 115 132 147 159 169 171 181 178 181 186 188 185 186 192 198 200 200 196 192 194 192 193 189 186 187 188 188 190 187 188 186 182 186 181 184 183 179 170 170 169 165 157 147 137 119 77 55 47 36 74 59 39 39 40 41 34 41 47 77 53 53 45 66 64 41 74 69 41 37 35 43 46 42 48 53 58 73 78 81 96 94 82 80 85 94 100 96 94 97 101 108 120 145 157 163 166 174 177 181 187 191 188 191 193 197 200 200 202 202 197 194 196 197 195 196 190 194 191 190 191 189 190 188 186 184 182 182 180 179 176 173 169 164 159 153 145 129 108 58 55 53 60 75 45 44 43 36 37 31 41 80 51 50 59 77 48 43 81 64 47 49 37 41 47 48 59 61 60 77 84 100 108 111 108 100 92 98 95 94 103 111 112 123 145 163 175 179 186 186 188 189 190 195 197 200 200 200 201 200 202 201 199 196 195 196 198 197 196 196 197 194 194 192 188 191 188 185 183 180 178 180 179 174 172 165 159 157 149 141 120 95 41 57 60 76 58 48 48 45 26 39 30 44 57 55 73 80 41 59 79 62 62 59 41 41 50 57 55 56 63 79 96 107 109 117 110 113 111 107 107 107 117 128 143 158 172 180 182 185 189 190 192 195 198 199 203 204 202 202 201 200 201 201 198 197 196 195 197 196 196 198 197 195 198 193 192 190 188 188 187 182 181 180 177 176 171 169 161 157 154 145 126 121 51 34 57 76 78 44 50 46 47 28 41 45 65 63 78 61 47 68 71 67 72 61 43 40 46 55 47 57 72 88 105 118 122 121 114 112 117 123 128 138 147 152 165 176 183 186 188 186 189 190 194 197 200 201 205 204 204 204 203 203 200 202 197 197 197 195 197 197 198 197 196 193 197 192 190 192 188 184 188 184 180 179 177 173 170 165 162 157 155 148 137 121 93 10 59 70 72 51 49 50 51 35 46 63 66 54 69 48 50 70 61 71 71 59 49 42 47 50 52 67 77 100 116 134 140 134 134 132 140 148 151 155 161 168 176 181 184 188 188 190 192 193 194 198 202 204 204 205 205 203 203 202 201 201 201 198 197 195 197 197 195 198 196 194 194 193 190 190 188 185 186 182 180 180 178 175 173 169 164 161 156 152 138 126 118 28 33 67 59 51 42 51 56 43 67 80 53 52 60 49 58 62 62 67 60 64 43 45 49 51 62 73 92 107 125 142 147 149 147 148 154 159 160 166 171 179 181 186 185 188 190 193 196 198 199 199 202 203 202 205 203 203 203 203 202 202 199 199 198 195 196 197 198 199 197 197 194 194 193 194 188 188 187 185 183 184 180 180 174 175 168 165 158 153 147 125 127 65 18 59 53 52 44 49 54 47 87 96 56 53 61 58 60 61 63 64 55 54 51 50 49 52 70 87 98 107 131 147 156 157 155 158 161 165 167 174 178 183 185 187 189 190 193 194 198 200 200 202 202 203 203 204 205 204 205 204 204 203 201 200 199 197 198 197 201 201 197 200 197 195 196 195 191 191 189 187 183 186 179 178 175 174 171 169 161 156 146 131 128 97 13 50 45 46 51 41 41 61 89 112 52 59 67 57 64 61 57 59 51 47 50 44 46 56 82 83 96 117 140 152 160 164 164 166 166 172 175 182 184 188 189 192 193 194 195 197 199 201 201 202 202 205 203 203 206 205 206 205 204 205 201 201 199 197 197 199 200 200 199 198 201 199 196 194 190 192 192 190 187 186 182 179 180 173 170 171 163 160 154 134 126 125 15 42 44 35 45 37 32 63 97 112 60 61 59 70 65 62 51 62 42 51 50 39 45 72 77 83 107 118 139 161 166 171 174 174 175 180 185 189 189 192 193 194 195 196 196 198 199 199 201 204 204 205 204 204 205 206 205 207 204 204 204 201 200 198 198 197 197 199 200 201 200 198 196 188 189 194 192 192 189 187 183 180 181 176 171 171 165 162 150 139 125 132 41 31 43 28 37 38 43 65 102 109 56 56 58 72 57 65 49 57 49 46 48 43 53 62 68 89 98 124 144 164 173 174 179 178 181 183 189 192 193 194 193 197 197 198 200 199 201 201 202 202 206 204 204 205 205 205 206 205 205 205 201 202 202 198 196 197 199 199 201 199 201 200 191 192 190 192 196 193 193 191 186 184 186 179 176 173 165 162 156 140 126 132 74 18 44 22 32 37 55 82 105 108 61 49 60 59 60 67 55 56 53 48 44 45 51 53 63 89 106 126 152 169 177 179 181 182 183 186 189 191 194 194 194 197 198 197 200 200 202 202 203 205 203 205 205 205 205 204 203 207 206 206 203 199 199 199 199 197 199 201 201 199 198 195 196 196 195 197 197 198 196 193 190 188 183 181 176 173 164 165 153 146 131 123 109 17 33 29 28 33 61 97 109 106 56 42 56 50 50 61 63 52 44 41 47 54 50 51 69 88 106 137 151 166 174 176 180 183 186 187 190 190 193 194 196 197 198 197 200 202 202 202 203 203 206 205 206 204 204 204 206 206 207 206 200 200 199 197 201 198 198 197 197 195 197 196 197 198 197 197 199 196 196 195 191 187 185 182 178 171 166 163 161 146 135 123 129 26 20 34 31 31 52 112 110 109 51 40 51 45 43 50 55 52 39 39 47 50 54 56 66 83 113 138 148 161 173 174 179 182 183 188 188 191 190 193 194 197 198 199 199 199 204 202 204 204 205 205 204 203 203 203 205 206 205 205 202 199 196 195 197 198 196 193 192 195 193 193 195 195 192 192 194 191 192 192 188 181 184 178 176 171 162 162 163 156 137 120 133 51 16 29 35 25 56 115 106 110 56 38 42 43 34 37 51 47 43 39 42 39 49 58 66 84 112 141 155 165 168 173 174 179 183 185 187 187 191 191 193 197 197 199 200 200 202 202 204 202 204 205 204 203 203 204 204 203 202 201 198 199 193 195 197 197 191 189 189 192 194 191 191 190 187 186 185 177 178 178 173 165 162 158 158 154 151 148 151 150 142 128 126 83 11 29 24 30 40 113 110 109 45 43 33 41 28 33 41 35 39 40 44 37 39 49 71 93 117 142 156 166 169 172 175 174 180 184 184 184 189 189 193 196 198 199 200 201 201 201 203 202 204 205 204 202 203 202 201 198 195 199 195 196 192 194 195 193 188 188 189 188 191 188 184 182 177 171 156 144 137 136 133 132 126 118 120 128 129 130 130 129 129 122 112 104 15 26 25 26 28 111 111 108 44 47 36 41 43 36 34 43 44 47 43 40 38 35 70 104 128 146 155 165 171 173 177 176 179 182 181 181 185 189 191 195 197 198 200 200 199 200 201 200 202 202 202 202 199 198 197 194 195 195 191 191 188 190 191 191 186 186 185 180 181 175 170 165 156 144 130 120 107 102 107 110 103 91 91 98 106 104 110 105 111 111 92 106 40 16 31 14 41 102 109 106 51 41 46 37 52 42 37 55 52 51 49 38 37 44 82 118 141 150 158 166 171 174 178 177 179 180 180 180 182 185 188 194 196 195 196 199 196 196 195 199 199 199 198 196 195 193 191 190 190 188 184 183 181 183 189 187 185 184 180 174 172 165 151 140 136 119 111 100 86 87 85 85 92 101 102 105 107 102 100 102 106 102 85 107 62 10 27 18 57 107 109 106 71 30 55 33 55 43 48 53 45 47 40 32 34 46 85 125 152 154 157 167 168 172 177 177 179 179 183 180 183 183 188 192 192 192 192 192 188 185 182 182 183 181 173 177 178 171 174 174 174 173 169 170 174 176 183 185 184 181 176 165 165 160 144 128 117 107 100 94 88 96 97 106 112 117 123 123 126 122 122 127 128 113 96 104 73 15 19 47 88 105 105 107 81 41 60 39 37 39 44 35 50 43 35 28 33 52 91 130 152 153 155 161 170 171 178 176 177 176 180 179 184 186 187 185 187 180 179 177 171 166 158 153 143 133 122 126 122 127 133 143 142 148 146 153 162 164 175 180 182 179 166 158 150 144 133 118 109 101 96 101 103 105 105 98 103 100 101 103 109 111 119 123 123 115 101 107 91 13 28 90 106 102 104 104 102 49 61 45 35 45 46 41 49 46 29 32 26 57 97 136 154 152 155 163 171 174 181 177 178 178 177 178 182 182 178 170 165 162 164 162 155 145 134 122 109 102 95 92 92 97 107 118 125 124 136 143 152 161 172 180 184 176 159 150 141 133 117 108 106 106 105 93 88 104 108 105 99 95 87 89 72 74 98 106 108 109 110 103 105 19 53 102 104 102 104 106 95 67 54 53 42 53 35 45 41 38 31 27 30 58 109 145 153 155 156 161 171 176 174 175 173 174 171 162 160 152 146 144 142 141 136 132 125 115 112 102 99 100 99 99 104 104 113 116 121 125 132 140 144 157 169 183 183 180 171 154 140 132 115 112 111 99 86 91 86 86 79 59 61 73 78 83 84 71 72 94 105 107 108 102 119 36 60 108 98 103 102 104 93 89 61 54 40 57 34 46 52 35 28 30 35 55 110 145 154 155 156 161 169 173 174 176 171 165 153 141 135 126 121 122 118 121 121 120 121 118 124 123 116 113 110 110 113 115 122 125 129 130 137 137 140 158 175 184 191 190 183 170 151 136 116 109 96 96 101 87 61 114 153 94 62 95 107 77 57 63 78 90 104 110 106 106 123 62 52 103 100 102 102 101 88 94 77 56 45 56 34 41 43 31 24 37 37 47 107 145 154 158 158 158 165 170 173 175 163 155 141 132 133 130 130 129 128 130 129 120 109 104 104 103 103 93 94 93 94 100 117 128 134 136 143 143 147 157 172 185 196 198 194 181 161 130 114 105 107 114 122 101 76 101 105 82 68 109 144 115 73 57 62 89 103 109 107 111 125 90 44 99 98 99 99 105 92 92 89 74 53 51 35 36 31 26 30 36 34 44 102 140 153 157 159 158 167 169 170 165 153 143 132 133 137 135 132 135 131 118 107 92 93 91 87 80 80 79 92 107 105 102 101 115 124 133 141 147 153 162 177 191 199 201 200 192 168 134 113 117 125 117 164 148 92 98 87 86 77 130 157 136 103 87 70 77 99 105 114 122 130 112 50 93 100 101 102 99 90 88 92 80 60 42 37 47 28 29 30 34 35 52 95 137 150 155 154 160 165 164 166 159 153 139 136 135 140 135 130 129 112 89 92 82 73 59 57 116 110 78 103 135 120 108 112 122 127 131 133 143 152 164 179 190 202 203 202 197 180 140 119 134 138 127 162 163 119 116 110 96 114 144 146 136 121 103 89 95 98 105 125 125 139 124 64 91 96 100 98 100 88 92 89 84 72 37 42 59 35 27 32 36 36 56 93 130 151 158 155 158 163 165 166 161 160 150 141 135 134 129 122 109 87 86 83 83 67 59 66 121 109 80 116 168 165 137 120 129 147 149 138 143 154 165 180 189 199 203 202 199 186 158 124 140 148 141 142 148 148 158 141 133 124 122 121 124 124 117 112 117 117 117 129 138 135 131 85 84 94 98 96 102 90 87 90 87 75 43 32 56 39 32 30 43 39 65 105 132 149 158 157 158 162 167 165 163 162 156 148 139 137 128 117 105 98 73 70 102 104 88 83 71 85 95 150 198 190 176 171 141 151 163 150 148 157 170 182 188 198 202 202 200 190 171 135 138 152 153 148 138 129 135 132 134 130 139 137 138 135 133 128 131 135 134 135 144 144 128 96 84 90 96 100 96 89 88 90 83 83 66 51 49 52 44 45 42 41 84 119 130 150 155 161 162 161 165 165 159 157 153 149 140 135 120 122 107 93 74 89 121 142 116 90 90 95 124 166 184 166 148 148 150 162 166 156 156 164 175 183 189 194 199 201 201 198 180 154 140 144 145 147 146 137 133 129 131 140 140 143 144 143 145 140 143 141 146 147 145 139 130 102 78 90 93 95 98 90 89 86 87 76 103 71 67 52 54 62 61 56 94 126 135 146 157 164 164 165 171 173 167 160 159 150 139 131 124 118 115 109 100 111 132 149 155 143 138 148 152 156 165 157 148 152 167 167 166 161 166 175 181 184 188 190 198 200 201 199 187 163 150 149 149 154 155 158 155 153 149 147 150 148 151 155 157 155 150 148 155 155 150 144 127 106 81 83 93 93 96 86 89 84 91 73 116 90 73 72 57 75 81 78 96 127 134 144 153 159 165 168 175 178 172 173 168 165 149 141 138 141 143 139 132 130 136 144 144 145 143 146 150 152 153 149 147 160 167 171 165 171 178 181 185 187 189 188 193 197 199 198 189 172 154 147 151 158 164 164 162 161 164 167 163 166 166 164 164 163 159 157 159 160 153 140 129 110 81 87 87 93 92 86 84 88 88 69 116 116 69 95 84 82 96 94 104 129 133 141 151 158 161 169 174 183 182 183 182 174 162 164 170 174 176 173 167 158 159 160 164 161 162 160 158 154 158 154 168 173 176 177 175 183 185 184 186 189 187 188 192 194 198 195 191 179 164 149 151 163 169 172 171 167 167 169 165 169 169 169 171 168 170 170 171 164 154 145 125 108 84 84 85 94 94 90 86 84 87 77 88 149 74 108 115 101 101 97 107 131 131 140 147 156 164 168 174 179 186 188 190 185 180 184 191 193 192 190 186 184 182 181 179 175 169 166 169 172 180 178 182 186 188 187 187 187 186 186 185 187 185 185 189 193 197 198 193 190 177 157 145 156 170 174 178 180 178 180 176 174 176 176 178 175 177 182 179 168 155 142 125 112 84 84 88 91 94 85 86 84 86 81 74 164 96 121 129 119 92 92 118 131 133 134 144 152 156 166 171 179 185 190 192 192 191 193 196 199 198 194 194 195 193 189 189 185 187 187 189 188 189 188 192 193 193 193 190 187 186 184 184 183 184 184 188 192 197 199 196 193 186 170 152 151 163 179 183 183 184 186 184 184 182 179 182 179 181 182 180 172 161 147 129 109 85 82 89 89 94 86 85 85 86 87 61 154 129 137 140 120 92 78 126 134 133 138 143 147 155 166 171 176 179 191 194 194 195 196 199 199 199 198 197 196 195 195 196 193 194 196 196 194 193 195 198 198 196 196 191 187 185 182 182 180 181 182 188 191 193 197 196 193 190 180 167 149 160 178 185 186 187 186 188 189 185 179 180 181 181 179 177 169 163 148 126 114 85 85 88 90 94 86 85 85 82 88 66 130 153 159 153 130 107 80 127 136 134 136 137 144 155 161 165 170 178 185 191 194 196 197 201 200 202 199 201 201 201 198 200 199 198 201 199 201 197 199 199 199 199 196 192 184 184 183 181 180 176 179 186 188 189 194 193 192 190 186 174 156 153 170 183 188 187 189 187 189 187 182 180 181 178 176 172 162 157 146 129 112 83 85 86 89 94 86 83 86 83 86 73 94 169 180 175 155 125 106 130 134 138 137 140 145 152 159 162 169 176 183 188 190 193 198 199 202 201 202 201 202 201 201 202 201 200 201 201 200 202 201 201 201 199 197 193 188 188 185 179 174 172 173 179 185 190 192 190 185 191 186 181 168 150 159 178 182 186 187 187 190 186 185 179 179 180 178 171 162 153 146 127 112 88 77 89 89 95 85 85 81 87 88 73 81 170 189 198 183 172 150 130 131 137 140 137 142 148 154 160 165 169 177 183 187 188 195 199 198 202 202 202 201 201 201 201 203 201 200 200 201 201 202 201 200 198 198 195 190 186 181 174 169 166 168 174 179 188 191 190 188 186 187 181 176 160 158 169 182 186 189 191 188 183 186 181 182 180 178 172 164 157 146 130 109 84 85 87 91 94 84 82 82 86 82 80 65 170 194 200 196 195 171 131 123 138 144 140 140 148 149 155 163 164 172 179 179 187 190 195 196 201 202 202 201 199 201 201 201 201 201 200 202 202 201 201 199 198 198 193 191 184 174 170 171 165 164 168 179 189 196 200 198 191 188 187 184 172 157 156 174 184 187 191 188 188 185 182 183 176 176 171 160 152 149 123 113 87 85 87 94 91 87 80 84 84 81 78 62 156 193 196 192 191 169 129 126 136 140 143 141 146 147 149 154 162 164 170 175 179 185 191 194 198 202 200 202 199 199 200 202 201 201 201 199 202 199 199 200 197 196 193 188 177 169 164 169 159 157 169 179 186 196 197 199 196 192 192 188 171 146 138 162 181 186 189 188 186 186 183 179 178 178 170 160 154 143 129 111 88 86 90 92 93 86 81 84 81 82 83 57 143 174 195 186 179 155 126 127 134 140 143 142 145 145 148 150 162 164 169 172 176 182 183 187 192 193 196 200 198 200 200 200 199 201 201 200 201 201 199 197 195 195 192 184 171 161 166 165 161 158 171 175 176 180 185 188 188 187 184 178 153 121 121 150 178 188 186 185 184 187 182 178 177 174 168 158 150 141 126 111 93 83 91 92 91 86 80 85 79 85 80 55 133 159 168 188 182 154 124 123 131 140 141 143 147 147 146 151 154 157 165 170 175 180 182 182 186 192 193 196 198 198 200 200 198 200 201 201 202 201 198 197 196 193 185 170 165 163 168 164 160 160 160 155 152 151 161 165 168 170 165 149 126 107 107 133 166 188 183 181 189 185 184 179 175 171 164 155 147 139 127 113 94 83 92 95 93 86 79 85 81 82 83 66 97 185 156 194 198 197 125 120 133 131 140 143 145 149 145 150 158 157 161 168 169 176 178 183 184 188 191 196 197 198 200 199 199 201 202 202 202 199 198 196 194 192 179 164 163 167 164 164 162 158 151 144 136 136 141 141 140 140 137 122 109 92 100 124 155 185 183 180 182 182 180 179 170 157 158 150 144 137 123 112 97 84 91 96 93 86 82 84 80 83 80 74 76 170 154 159 189 203 143 110 132 131 136 141 145 143 144 149 156 160 162 164 170 170 175 179 182 185 191 195 198 195 200 197 200 200 200 199 199 198 196 194 190 187 174 159 156 160 161 163 161 151 137 122 118 121 128 126 120 115 110 107 74 72 96 116 152 179 182 177 181 178 179 175 169 158 152 148 143 130 120 116 95 84 91 95 93 85 81 84 80 82 79 83 57 142 150 148 164 182 148 105 124 130 129 142 144 140 144 148 150 155 163 163 168 174 174 178 183 185 189 192 194 195 197 195 198 199 199 198 200 196 194 190 186 182 171 153 146 145 149 149 137 104 64 54 61 79 97 112 109 103 94 71 58 79 93 112 151 175 179 175 180 179 179 172 161 157 146 142 135 131 118 115 102 83 89 96 95 79 86 79 84 81 82 80 73 87 158 156 165 163 144 105 119 127 128 134 135 142 141 147 151 152 160 164 166 169 174 179 181 185 183 186 189 194 194 194 196 195 194 196 195 191 187 186 186 185 178 157 137 127 128 121 95 61 48 62 77 71 81 93 93 92 76 82 98 100 95 114 152 175 175 176 176 174 172 173 162 156 141 136 130 124 117 114 95 89 91 93 93 80 82 83 77 82 77 85 76 68 130 153 159 167 165 111 108 123 129 132 132 134 140 146 149 151 158 160 162 161 170 171 177 179 183 183 187 190 191 193 193 192 191 192 193 188 186 189 187 184 180 165 136 115 115 113 120 127 129 130 124 109 103 96 88 89 88 98 103 104 120 140 150 161 166 171 176 171 171 167 157 151 144 135 129 126 116 108 106 82 95 92 93 85 81 85 78 79 79 79 82 68 80 138 151 163 163 121 102 118 125 127 129 131 135 146 147 150 155 155 159 162 164 168 174 176 177 178 182 183 187 188 185 186 184 185 187 184 184 188 186 190 190 182 158 125 102 110 117 125 124 130 130 130 130 117 112 111 115 114 121 135 146 144 144 148 155 165 171 170 168 163 155 147 143 132 129 128 116 109 95 90 95 90 95 81 77 81 83 80 78 82 76 81 72 80 129 142 148 118 93 115 118 127 124 129 135 141 148 151 154 152 155 163 163 166 169 170 174 176 179 179 181 182 183 182 182 183 181 180 185 189 188 190 191 193 190 171 139 128 122 124 126 130 136 138 134 129 123 123 125 127 133 140 142 143 142 140 148 154 159 161 162 161 152 145 136 131 126 124 116 106 99 89 92 94 93 82 77 81 81 80 82 77 79 79 79 72 80 106 122 95 87 106 116 121 120 124 133 141 150 151 152 154 151 155 163 156 163 162 165 169 173 174 173 176 176 180 182 180 180 182 187 191 189 188 189 188 190 185 179 171 166 159 151 145 149 144 138 130 127 131 133 134 134 136 139 134 135 135 139 140 148 151 155 154 146 137 132 128 121 122 114 106 94 89 93 94 95 84 79 80 79 78 81 75 80 79 78 79 73 78 85 77 78 97 112 117 119 121 127 141 144 150 151 152 149 149 156 153 158 162 160 166 167 170 169 169 174 178 180 179 179 184 185 185 184 183 185 181 178 174 171 174 173 174 167 163 161 154 141 129 134 139 142 136 135 138 131 132 128 129 131 136 140 144 146 145 141 136 130 126 120 121 110 104 92 89 92 96 93 82 84 78 78 81 78 77 78 77 83 76 76 78 75 78 72 90 103 110 119 119 127 132 139 143 150 147 150 148 150 152 153 154 155 157 164 169 172 168 165 168 169 175 178 181 183 178 175 179 180 176 173 169 164 168 171 173 170 168 162 153 140 134 139 141 142 141 139 135 131 129 126 123 119 124 126 131 134 135 134 129 120 121 115 114 111 100 90 92 92 95 92 83 79 78 75 80 78 76 78 76 75 75 79 75 77 79 77 77 96 106 114 118 121 132 135 140 145 150 147 148 144 148 148 151 149 152 159 162 165 163 159 154 162 171 174 174 174 168 164 165 167 165 166 168 164 166 166 165 166 165 160 149 144 140 147 147 145 145 141 134 132 124 121 115 108 107 109 121 125 128 125 118 117 113 118 116 104 95 88 92 92 95 92 82 82 78 79 79 81 75 76 75 77 75 77 75 78 79 79 71 83 97 111 113 121 127 135 140 144 149 144 142 145 149 148 153 148 152 150 157 158 160 156 157 158 160 159 159 159 153 151 150 157 156 159 157 153 152 155 157 157 158 158 157 161 161 166 165 156 150 140 133 129 124 115 109 93 83 92 108 117 121 119 107 116 113 116 113 103 91 86 93 91 96 90 82 80 79 79 75 76 80 75 77 77 74 78 77 76 76 76 70 73 96 103 112 115 123 133 138 144 147 140 140 140 143 145 146 143 145 149 148 153 148 147 147 149 147 143 138 136 131 135 136 144 147 146 146 153 153 153 151 157 157 163 169 178 179 183 178 166 147 138 131 126 114 107 92 72 65 91 97 112 112 108 108 117 114 112 109 97 86 86 89 93 93 92 82 79 78 79 76 72 80 74 74 74 78 76 77 73 77 72 77 72 82 96 107 114 121 131 131 138 142 141 134 133 139 144 143 144 144 143 142 144 141 136 133 134 131 128 123 117 116 114 116 125 128 131 140 141 148 149 155 161 171 168 171 170 179 180 171 146 121 119 106 97 80 74 66 74 91 101 107 109 111 109 119 125 113 110 104 95 79 87 92 88 94 93 82 82 78 77 80 74 77 74 71 76 75 72 78 73 77 75 77 73 75 89 100 111 121 125 134 134 142 140 137 135 133 139 139 144 143 141 137 136 134 124 125 118 116 110 102 93 94 94 101 102 110 116 127 128 136 141 148 145 145 139 139 139 145 145 130 105 91 84 82 89 81 85 103 116 124 127 121 120 121 124 130 126 113 109 99 82 86 89 89 92 91 94 81 77 80 78 74 77 77 70 74 74 73 73 75 73 75 76 73 76 77 75 96 106 111 124 129 134 140 143 143 139 139 141 142 139 139 138 139 139 126 119 108 108 104 94 85 76 73 77 79 85 89 90 96 92 98 95 99 98 97 91 96 94 99 95 94 92 99 109 106 104 97 108 116 127 141 145 141 133 130 131 134 122 106 105 92 80 86 87 92 89 92 91 79 79 76 77 77 74 78 70 73 74 73 75 72 72 74 72 73 76 83 81 83 95 110 120 124 134 135 142 143 143 140 142 139 139 134 138 137 137 127 117 113 113 112 106 102 102 108 103 100 92 93 93 95 96 105 105 111 118 119 120 114 112 111 119 127 124 122 118 110 110 114 115 116 125 148 154 151 135 133 130 129 118 102 101 85 78 89 88 91 93 92 94 83 75 79 74 75 76 71 74 74 72 75 73 69 74 74 74 68 83 88 93 74 89 102 112 123 130 134 135 137 141 142 142 141 141 141 137 137 139 131 129 125 123 125 124 131 139 141 133 136 137 141 143 141 137 142 144 142 151 153 154 155 151 147 143 136 133 126 127 125 126 120 118 116 131 142 150 143 135 133 127 120 112 102 95 83 83 88 90 93 92 92 91 81 77 75 76 75 74 72 75 73 72 70 73 74 71 75 70 69 79 99 107 74 81 93 103 118 122 125 131 133 138 138 140 135 140 142 138 137 140 140 143 138 137 137 132 142 147 148 145 149 155 160 160 158 161 157 156 151 157 152 151 144 143 137 140 134 135 131 135 129 127 116 118 124 130 139 144 136 133 128 119 112 101 97 87 77 88 89 89 89 93 89 93 74 81 77 76 76 72 77 72 74 68 76 70 70 69 71 74 63 87 106 112 83 76 80 99 111 115 122 128 132 133 134 134 137 140 141 139 144 141 147 152 149 147 145 145 152 156 158 158 160 159 160 162 162 160 160 157 155 151 144 133 131 131 133 130 126 128 128 130 123 119 114 116 126 126 131 132 126 119 121 116 108 100 88 77 82 86 87 91 89 89 93 93 81 75 79 74 75 70 75 70 72 74 69 71 68 71 74 73 66 84 110 112 94 75 78 90 98 109 118 122 128 130 131 134 136 135 134 136 139 140 143 144 147 146 148 152 162 161 167 167 167 162 157 153 153 149 152 145 140 138 131 130 129 129 127 123 121 115 115 113 111 112 113 118 121 124 122 126 120 116 116 113 101 89 83 74 80 90 85 90 90 88 92 88 78 75 76 76 75 74 71 73 68 73 72 68 71 69 70 70 61 91 113 115 101 85 75 78 90 105 112 115 122 123 129 133 137 135 135 139 133 139 137 144 147 147 149 158 159 160 162 163 163 158 151 145 146 143 141 136 131 130 128 127 122 117 112 110 110 110 110 108 111 112 113 117 115 121 124 117 116 111 114 99 91 85 69 80 83 89 87 88 87 89 90 92 76 78 78 76 74 71 73 73 70 71 69 69 71 67 75 65 64 93 117 118 108 92 86 76 78 92 102 112 114 117 124 128 132 133 135 135 135 132 134 132 139 145 145 148 150 151 150 155 157 153 147 141 142 135 137 132 133 126 122 114 113 110 109 112 112 110 108 113 111 109 112 112 112 117 120 116 115 113 109 100 90 71 72 84 85 86 87 87 88 91 90 92 82 77 77 74 75 69 74 69 71 68 69 68 68 67 73 67 58 96 118 122 110 97 93 76 75 83 90 104 106 109 118 122 125 127 129 129 127 130 129 133 134 141 144 146 143 143 148 148 150 148 142 135 135 129 125 120 120 123 131 135 154 156 156 153 143 135 127 119 111 111 112 115 116 119 123 116 113 112 106 93 77 70 70 84 85 89 87 87 86 89 90 89 79 72 74 76 73 73 72 70 70 68 70 69 69 68 71 68 58 98 121 119 113 105 97 89 75 73 79 92 100 104 107 114 121 121 123 122 120 124 124 130 128 135 138 141 142 138 140 142 146 144 138 135 129 127 129 130 138 147 156 166 173 176 170 163 146 134 124 117 113 116 119 121 124 123 124 111 112 104 97 80 68 66 79 85 81 83 89 86 92 86 92 89 76 76 74 75 72 73 68 75 70 68 69 68 67 69 67 72 47 105 123 120 114 107 106 93 81 74 72 79 90 97 105 110 109 117 117 118 118 122 120 124 125 130 134 141 142 146 142 144 145 143 139 135 129 129 133 138 142 147 153 156 159 160 156 151 145 137 128 124 120 126 128 126 127 125 119 108 106 96 83 64 66 76 76 83 84 85 87 89 84 89 89 91 77 77 75 76 72 72 72 70 68 69 69 66 68 68 70 67 51 105 123 125 117 111 106 92 85 77 71 74 78 84 95 102 104 106 109 110 115 117 120 120 122 125 133 138 138 145 142 145 143 146 141 144 146 147 147 151 152 150 153 148 146 146 147 147 141 135 126 122 121 127 127 126 126 123 114 105 97 82 61 63 71 71 81 82 86 83 86 87 89 87 91 90 74 79 75 76 72 70 74 68 70 68 68 68 68 67 66 69 33 108 127 125 117 116 108 96 93 85 73 76 73 77 88 93 93 104 103 107 109 113 115 118 120 126 132 136 140 142 141 145 143 145 149 153 157 153 152 155 156 155 148 142 141 143 140 138 131 123 122 116 123 122 128 122 120 118 106 97 80 63 61 69 69 73 84 80 83 83 87 85 87 86 90 82 73 77 74 76 68 74 73 69 68 67 67 68 68 64 69 56 11 111 127 124 121 118 112 98 96 87 82 70 70 70 82 86 88 92 100 100 103 105 109 112 112 119 123 124 127 129 136 139 142 147 149 156 150 146 146 147 153 149 142 139 134 136 129 126 122 122 114 115 121 123 120 115 112 107 98 83 62 57 69 69 71 72 79 82 83 81 85 85 88 85 91 84 78 76 77 72 72 76 65 72 68 67 67 68 69 71 63 42 9 119 127 123 121 119 116 104 101 89 88 74 74 67 73 77 82 85 92 93 93 95 100 106 107 110 114 115 119 122 129 132 143 142 145 150 149 149 144 139 139 137 138 132 127 124 117 110 110 105 106 106 113 112 111 109 101 95 85 62 64 65 67 67 68 76 75 81 82 82 85 84 85 88 87 88 82 73 77 71 72 74 68 69 66 69 70 86 91 79 54 38 29 125 126 126 120 120 120 107 104 96 83 79 73 70 71 72 78 74 83 85 86 91 90 95 94 101 105 109 114 113 125 130 139 139 138 143 145 142 139 135 129 130 122 123 117 113 111 107 100 99 95 97 107 103 104 95 92 76 65 62 67 64 69 66 70 73 76 77 85 81 84 83 85 83 87 85 76 75 74 74 72 72 69 67 75 88 60 133 109 62 48 22 44 127 127 123 124 119 117 109 105 95 91 77 77 74 67 72 70 74 76 81 79 86 82 87 85 87 87 96 97 105 115 122 126 130 129 132 129 133 131 129 124 119 118 110 109 107 101 101 97 92 94 93 95 94 89 83 72 60 65 62 64 64 65 68 66 69 78 77 80 81 82 84 85 82 85 89 75 75 74 74 77 68 69 86 94 120 72 74 90 59 42 8 58 129 123 124 124 124 121 112 105 102 91 85 70 76 70 70 69 69 69 73 74 78 77 80 76 76 82 75 83 86 101 101 111 114 118 118 118 122 120 115 116 112 106 99 96 94 95 94 90 84 84 79 78 75 70 62 60 59 62 61 67 64 67 66 67 70 77 78 79 82 79 84 84 85 82 86 77 75 77 71 74 69 78 112 107 68 115 81 83 55 30 7 93 128 123 127 127 127 124 121 107 107 98 88 83 73 74 68 74 70 69 70 70 73 73 77 76 77 73 73 68 74 74 81 88 95 100 97 102 103 100 94 94 92 91 86 83 82 83 76 76 72 63 66 57 52 54 60 67 55 64 63 64 67 63 64 68 67 77 78 80 80 79 85 83 82 82 87 77 74 77 73 70 90 96 98 138 84 63 90 74 58 20 10 118 129 125 126 129 127 120 122 112 107 102 91 92 76 75 75 74 74 74 72 71 73 73 69 77 81 76 79 71 67 62 66 68 76 79 80 81 82 79 79 76 74 65 70 65 63 64 59 57 51 50 49 46 43 60 73 55 58 61 63 65 63 65 65 64 72 72 78 80 83 77 83 81 83 82 83 78 70 75 73 81 88 118 72 86 72 71 86 77 52 11 46 127 126 124 126 129 130 126 121 115 111 102 94 94 81 76 77 75 78 74 78 77 77 78 73 77 79 76 85 78 70 68 63 57 59 61 58 63 63 57 61 56 55 48 55 51 50 49 48 47 45 47 44 48 52 67 81 29 52 59 62 59 60 66 63 63 67 74 75 76 78 76 78 79 82 79 84 71 77 80 80 101 75 97 73 82 47 88 78 80 50 19 99 126 124 123 121 126 129 128 122 117 117 106 97 94 86 80 77 83 79 79 79 77 77 81 75 77 76 73 77 80 77 72 70 64 57 57 55 54 55 50 50 49 49 49 51 47 49 47 51 47 47 46 49 48 63 68 78 25 24 51 64 56 63 64 63 63 65 70 75 72 81 75 77 81 76 81 78 73 89 97 97 72 71 131 78 45 61 88 81 75 51 39 118 124 123 123 122 124 128 128 128 120 117 111 105 99 88 86 81 83 80 78 79 81 79 81 79 79 82 80 77 80 76 70 72 67 61 57 57 54 56 50 57 54 53 57 54 48 52 44 50 45 52 46 51 58 67 73 79 13 25 39 53 61 60 61 57 64 63 70 73 76 77 74 77 80 76 81 78 