P2
92
112
255
114 109 112 111 108 111 111 112 111 112 112 114 112 115 112 107 89 59 59 52 70 71 87 82 91 111 111 113 142 117 121 119 119 115 126 123 144 126 115 139 101 138 163 134 148 122 114 132 113 86 121 115 63 50 77 73 64 63 76 84 70 71 74 69 55 50 37 42 50 56 52 56 95 113 113 115 114 111 111 112 111 111 110 114 110 112 110 113 104 117 109 111 113 109 112 107 114 108 114 111 112 111 110 115 112 108 93 76 82 80 93 98 101 108 111 118 127 128 140 155 152 148 125 128 115 117 125 100 122 126 128 149 122 145 165 143 155 122 125 132 140 112 145 120 56 60 90 94 64 93 94 81 79 66 80 61 59 56 53 52 46 48 44 52 47 65 107 118 111 109 114 112 112 113 110 113 114 111 113 111 110 111 111 111 109 110 111 109 111 110 108 111 116 112 111 109 106 94 90 93 98 104 100 97 100 94 105 118 125 137 141 140 161 156 137 120 123 137 126 112 117 112 97 167 153 143 156 141 150 138 129 118 148 142 152 101 64 87 98 100 91 103 90 84 83 86 89 65 69 76 82 61 62 62 47 45 49 44 56 104 115 112 111 116 113 113 111 113 113 113 112 113 111 113 109 113 112 110 110 107 115 109 113 111 112 112 102 97 100 97 102 89 85 87 97 96 86 70 71 103 130 130 161 134 150 143 136 130 147 113 148 116 105 126 95 137 172 150 142 143 146 147 130 110 132 146 136 74 96 113 111 114 99 85 92 88 84 95 78 64 65 74 76 82 75 80 64 65 55 54 47 55 103 117 110 108 112 115 109 117 111 111 112 113 112 110 111 110 110 109 108 115 107 108 112 114 105 105 97 86 71 66 64 67 73 74 88 94 100 109 125 119 120 113 137 159 133 127 126 123 125 147 120 129 113 121 99 135 174 149 123 116 159 145 130 111 122 139 105 80 107 117 117 120 109 94 94 83 88 83 71 66 67 74 79 71 74 80 77 74 70 65 49 57 43 89 114 112 110 112 112 112 110 113 113 111 109 111 111 108 107 112 112 110 110 113 102 104 89 77 54 50 51 50 54 72 91 106 113 122 122 116 119 123 112 109 112 148 132 126 128 140 123 132 152 123 108 123 112 128 171 146 114 103 154 149 131 110 110 134 96 88 105 123 111 127 114 100 95 88 89 79 66 70 64 67 68 79 74 77 74 84 79 72 63 61 46 42 74 116 113 111 110 113 112 112 113 114 113 108 114 110 113 107 111 109 110 104 102 90 65 52 35 46 65 69 76 82 103 107 113 118 137 137 125 131 128 102 105 126 130 131 128 133 130 120 147 140 109 115 96 130 164 135 103 95 136 162 134 99 108 127 101 86 113 115 122 133 123 103 95 92 80 67 64 69 62 67 65 68 74 84 87 74 72 82 73 64 54 44 39 84 119 112 110 113 110 111 111 114 108 112 107 113 109 113 108 103 110 100 101 60 39 33 49 55 75 87 88 83 76 76 102 113 127 140 152 158 155 145 139 119 122 126 129 116 121 117 134 126 124 103 110 122 159 132 98 98 132 154 128 97 117 127 101 107 99 120 131 130 121 112 110 88 67 69 65 69 82 79 70 66 57 71 84 86 72 67 69 69 83 49 57 29 91 115 111 107 110 115 111 113 112 111 112 112 109 103 108 110 111 96 77 61 35 52 75 76 81 83 73 71 63 74 90 107 117 131 144 142 133 119 106 130 120 113 133 123 120 118 120 113 121 112 87 118 147 134 97 110 121 144 112 107 114 128 104 105 122 122 131 120 110 116 114 89 93 80 73 69 74 82 79 89 76 74 66 64 70 69 60 61 65 77 66 48 21 97 114 112 111 108 113 112 115 108 113 112 108 109 110 114 104 63 43 63 72 65 85 76 76 72 86 94 108 120 129 133 147 157 160 159 148 126 105 101 114 114 101 120 131 107 113 119 112 115 85 120 141 137 94 110 125 138 116 108 112 125 97 122 112 112 113 109 114 111 115 100 99 97 84 79 85 94 80 81 90 88 83 78 58 67 67 58 57 62 73 76 35 30 103 110 113 112 112 111 111 111 112 109 111 110 108 115 65 44 48 52 67 72 87 88 95 97 118 127 140 146 160 166 170 177 174 172 158 143 118 97 86 109 118 110 126 114 117 116 118 95 90 119 139 143 110 122 114 137 120 124 122 112 107 102 108 95 111 127 127 118 122 109 111 96 91 77 78 84 86 88 95 92 93 90 78 62 66 76 51 56 54 76 71 30 43 104 113 110 113 112 107 112 111 109 107 108 117 91 42 64 67 63 79 89 104 115 124 148 140 143 134 134 116 120 117 119 123 133 123 118 96 100 96 85 100 116 113 100 108 107 112 92 91 124 131 145 124 125 113 133 128 129 126 101 99 87 97 108 139 156 144 131 130 112 112 105 95 85 91 88 91 86 87 96 92 89 93 89 64 73 76 59 45 46 71 64 41 52 111 110 112 111 113 110 112 111 104 114 108 69 48 56 86 103 108 115 118 113 125 135 156 165 175 183 187 185 169 131 110 108 105 106 107 73 86 96 75 97 116 91 101 99 103 103 99 116 141 142 120 125 119 127 117 138 120 93 89 93 116 139 138 134 137 133 120 116 109 103 106 95 92 93 90 97 97 98 103 97 87 87 96 78 70 82 58 42 38 63 66 31 61 118 111 113 112 110 112 110 106 112 82 50 54 76 101 116 104 92 87 77 74 88 97 116 138 110 123 142 153 135 121 112 99 89 96 106 81 74 78 76 98 104 85 101 99 114 100 134 160 137 118 139 136 125 116 144 119 87 101 123 137 151 148 149 155 155 138 123 123 115 106 102 112 107 105 104 102 120 116 110 106 99 87 92 81 77 90 68 41 39 53 62 36 78 113 113 111 105 115 108 115 97 67 62 89 102 100 88 73 55 52 81 88 83 105 110 122 112 95 94 94 95 95 104 104 95 85 94 96 85 83 85 80 104 93 93 115 118 117 130 147 139 122 135 146 132 121 144 110 94 107 130 138 138 150 150 152 163 156 140 140 120 116 116 113 109 119 130 123 130 122 88 104 100 102 95 86 89 83 90 77 39 35 53 51 39 92 114 110 110 108 113 112 81 62 97 115 104 98 88 91 101 100 100 97 94 83 103 97 100 111 104 93 87 104 92 86 93 92 98 95 100 95 106 101 106 106 107 119 140 132 128 137 138 126 128 154 135 130 142 110 113 122 123 126 128 146 152 168 175 175 160 136 125 124 117 113 110 110 119 131 147 132 110 109 98 99 96 89 89 87 85 89 80 50 34 48 37 57 98 114 107 113 112 91 76 98 107 111 88 83 101 103 101 104 119 128 147 141 128 114 106 93 106 112 101 89 94 90 88 94 107 110 104 114 120 117 124 117 130 131 136 139 139 140 145 121 122 155 144 133 132 120 130 121 116 135 160 164 163 173 175 163 137 132 122 116 125 124 127 123 125 120 117 112 114 118 115 112 109 89 86 87 85 89 83 82 48 37 49 29 57 102 112 107 110 95 97 108 95 74 76 63 92 104 88 95 95 115 127 124 136 137 134 119 115 123 122 113 112 111 107 106 113 111 119 124 138 145 156 138 143 142 150 148 145 154 145 132 143 155 146 132 139 144 134 126 140 148 151 157 161 155 163 164 149 149 134 137 139 137 126 116 117 115 117 114 113 104 110 117 113 82 89 78 93 90 80 77 78 48 46 46 34 43 98 111 109 95 95 98 77 85 85 94 98 103 93 92 100 101 111 124 125 128 131 119 122 122 136 136 126 124 124 119 126 127 127 137 146 161 171 159 161 164 166 163 163 169 157 149 158 160 150 138 146 143 128 136 144 141 143 146 148 152 167 170 172 163 154 149 138 128 130 123 120 118 126 109 119 116 111 120 118 94 102 79 87 82 92 88 78 76 54 50 43 45 41 102 110 88 99 105 90 114 122 117 132 117 124 110 107 108 107 103 123 120 123 127 128 123 127 140 123 121 120 117 137 140 147 155 173 182 183 179 180 181 168 171 182 177 172 171 172 174 158 151 141 130 130 142 142 143 145 159 171 168 175 176 165 159 143 134 134 123 124 105 105 109 109 110 118 123 120 118 124 121 112 110 95 92 68 93 84 78 71 45 49 46 40 53 108 93 93 75 95 104 122 116 133 119 109 119 117 104 106 102 106 106 107 114 112 126 126 137 124 115 128 131 150 154 168 177 190 190 195 192 189 193 189 190 189 186 191 186 187 180 171 156 140 137 131 138 142 145 162 171 176 174 173 178 165 156 147 137 126 117 110 116 111 105 102 97 97 92 98 101 104 95 98 111 94 100 88 72 93 89 80 78 50 47 48 37 80 84 87 84 94 105 121 125 128 124 104 100 109 108 110 108 107 103 106 99 110 127 133 128 129 133 155 162 169 179 189 191 194 198 204 198 198 199 197 198 197 195 200 200 196 186 182 160 147 143 138 139 148 146 155 152 146 147 145 145 143 130 131 131 123 108 107 98 100 98 98 82 77 69 71 84 74 72 78 93 97 106 104 89 80 103 81 84 67 55 48 40 50 100 115 114 118 134 132 127 116 104 96 88 102 90 98 104 103 107 103 102 107 119 129 135 142 158 174 179 189 197 194 199 201 201 204 204 202 203 204 201 204 203 203 202 201 193 191 178 167 156 165 161 158 153 163 160 158 151 150 143 144 137 131 130 130 115 104 91 98 95 97 85 94 89 76 81 75 72 87 108 116 124 119 111 112 84 85 76 76 63 64 30 37 136 141 142 155 157 148 127 113 104 97 96 93 81 85 91 96 102 106 102 112 132 135 150 163 172 186 192 197 201 201 203 202 205 203 205 204 204 202 204 207 203 202 205 198 198 194 183 186 173 179 178 174 163 164 165 167 164 159 152 146 149 141 135 137 127 118 112 103 85 99 90 81 92 98 69 72 92 103 118 118 128 124 123 121 100 86 71 85 69 56 59 25 162 157 149 137 120 106 82 82 84 94 101 80 83 83 99 97 102 117 110 133 152 160 168 181 189 192 199 200 203 205 204 204 205 204 206 204 203 203 207 205 206 201 204 203 198 199 191 190 186 187 178 177 175 167 172 173 172 176 170 158 159 161 151 146 135 133 121 118 105 89 90 87 78 84 95 79 95 100 102 113 112 102 103 115 132 96 80 78 79 68 52 50 146 125 117 123 104 104 107 105 98 93 80 78 88 93 102 116 123 127 138 161 174 179 179 188 195 198 200 203 202 205 205 204 206 205 204 203 203 204 206 205 202 202 201 202 201 199 199 196 182 180 181 176 170 154 165 169 167 178 182 172 171 172 171 160 153 144 128 130 114 110 100 93 83 62 104 69 62 83 83 108 129 94 101 84 102 122 96 86 78 81 56 62 137 114 82 89 88 73 92 95 67 84 73 95 94 106 118 137 150 159 166 175 180 184 187 194 197 198 201 200 202 203 203 204 205 205 205 204 203 204 203 204 202 203 200 202 200 198 198 198 197 193 194 190 184 175 175 172 159 164 177 178 182 182 178 174 166 159 146 131 131 119 108 104 92 84 81 73 54 71 85 90 108 94 70 92 71 95 108 115 75 73 66 67 117 97 69 74 81 72 84 81 68 73 92 97 108 114 145 164 178 179 180 174 185 184 193 195 198 198 199 201 200 204 203 205 204 205 206 204 199 201 203 203 202 200 200 200 196 197 196 199 200 198 200 191 183 195 197 192 177 170 173 170 177 178 186 179 172 169 164 148 132 135 119 115 106 99 68 76 75 59 86 96 101 98 69 50 99 75 87 107 92 55 71 57 112 97 88 94 90 88 99 100 86 92 102 102 121 145 175 188 186 187 187 179 188 189 193 192 195 198 200 198 198 199 202 203 203 202 204 203 201 203 201 202 201 202 199 200 196 197 198 198 200 196 195 199 194 197 199 198 197 191 185 178 178 175 178 177 180 171 167 160 143 139 141 131 118 109 93 70 82 53 77 103 106 93 83 66 46 87 99 101 92 90 70 65 102 100 102 99 85 81 96 100 94 100 110 112 138 167 179 189 190 187 190 185 190 191 190 193 193 197 196 198 196 200 201 203 202 202 202 203 201 203 202 202 202 201 201 200 197 195 198 197 198 197 198 198 198 199 199 200 199 199 193 188 187 185 173 176 171 171 170 163 152 146 145 147 126 120 109 93 87 75 56 84 106 104 100 95 87 70 86 99 91 92 81 73 112 98 92 100 72 85 98 100 92 98 113 125 148 175 184 192 189 187 187 190 189 189 188 190 193 196 196 197 200 197 200 202 202 201 202 202 202 201 201 202 198 200 200 197 199 196 193 193 195 197 200 197 198 199 201 198 198 200 193 192 193 186 181 171 166 165 165 160 155 163 152 149 146 128 120 106 85 80 66 64 76 93 108 117 118 107 87 102 89 80 88 82 117 108 92 97 101 103 97 98 90 105 114 146 161 175 178 189 190 185 186 187 187 188 189 189 188 193 192 195 198 198 200 201 200 200 200 200 201 202 199 199 199 197 195 192 196 194 189 192 191 198 201 198 197 192 200 199 195 195 193 194 193 187 177 173 168 169 164 161 165 174 175 158 150 145 127 115 99 83 77 64 63 69 76 91 109 118 118 118 111 92 81 89 110 90 84 95 122 85 101 89 97 109 132 157 168 176 174 183 188 182 189 185 187 185 189 185 185 189 187 190 193 196 198 197 200 199 198 199 197 200 196 199 198 196 196 195 197 194 190 192 194 194 198 195 192 188 192 188 194 191 194 192 193 186 181 180 179 166 165 164 170 173 181 172 163 151 140 126 106 90 82 76 60 48 59 59 103 120 128 131 134 124 82 92 87 78 114 115 114 108 107 97 92 106 133 159 166 175 179 180 188 188 187 186 185 184 188 186 185 187 190 189 191 191 193 195 196 196 197 196 196 196 198 198 193 194 196 194 198 193 194 190 189 192 197 195 191 188 189 186 187 190 188 188 183 182 182 174 176 168 169 169 172 172 177 177 169 159 150 133 117 100 93 73 68 70 70 66 76 101 107 105 114 118 129 95 76 107 130 106 108 104 93 85 92 108 131 159 168 174 177 183 187 190 188 187 184 182 187 184 183 185 189 187 188 189 188 193 191 196 195 197 196 196 197 195 194 191 196 196 196 195 193 195 192 190 193 195 192 192 187 190 185 189 187 183 179 178 177 176 176 174 173 171 174 172 179 173 173 156 161 140 124 110 96 75 62 51 75 81 68 74 93 116 102 105 120 107 94 126 133 101 110 75 88 89 99 117 137 159 174 174 175 182 185 187 190 187 183 182 187 181 183 182 186 187 186 185 185 190 190 192 195 198 195 197 195 195 193 193 193 192 193 194 194 195 194 194 191 193 189 192 188 189 185 186 182 180 180 177 175 176 177 177 181 177 177 179 178 178 174 162 160 146 131 119 102 78 62 48 63 87 75 54 85 98 103 100 105 96 110 125 122 104 100 94 92 105 109 124 142 159 167 174 174 176 180 185 190 186 182 184 184 182 180 184 183 183 184 188 187 189 188 194 193 196 193 190 196 193 193 192 191 193 194 192 194 194 195 191 192 194 194 190 189 188 187 187 183 182 183 183 177 180 176 183 182 187 183 179 181 176 172 162 161 153 134 123 103 91 67 56 48 70 85 63 67 87 82 91 102 99 115 126 120 102 107 109 113 112 117 128 148 159 162 166 173 174 179 183 187 183 185 182 183 180 181 182 184 183 185 186 188 188 191 191 193 194 195 190 188 189 192 194 195 193 195 194 195 194 197 193 192 197 191 190 192 189 184 186 188 180 182 185 185 181 181 183 185 187 185 180 181 175 171 166 160 155 141 127 106 90 75 68 54 59 75 65 69 76 89 83 88 94 112 112 109 99 91 92 99 109 115 133 149 161 160 169 170 169 178 178 184 184 184 182 185 181 182 185 185 182 183 185 189 191 188 192 192 192 192 194 190 191 193 193 195 196 198 196 197 197 198 195 195 196 192 192 193 188 182 187 188 186 187 190 188 185 188 185 187 186 180 183 179 178 171 168 158 153 148 136 117 94 73 73 61 63 77 76 63 84 87 90 89 88 101 113 103 90 83 108 108 110 120 138 151 168 165 167 168 166 173 178 179 185 183 184 181 185 184 184 182 185 183 184 186 189 186 191 192 195 195 195 194 190 194 197 195 198 197 200 197 200 199 197 197 197 194 195 194 192 178 184 190 188 192 191 190 188 192 187 186 185 179 181 180 179 175 168 156 151 149 144 130 105 87 53 66 65 72 78 73 84 105 94 94 83 107 105 107 85 110 105 89 104 121 142 152 156 161 162 158 163 176 174 182 183 182 182 181 186 184 184 187 188 189 188 190 188 189 189 193 197 193 192 196 196 194 199 198 198 197 198 199 200 200 199 198 199 196 198 196 189 186 190 195 191 192 190 194 190 191 190 181 186 180 181 182 178 175 166 156 152 152 147 139 116 99 72 41 62 80 87 83 75 64 101 99 105 86 106 81 109 108 92 90 116 130 145 157 156 157 156 162 164 172 177 180 183 181 184 187 188 185 187 190 187 193 192 193 192 191 195 196 197 196 194 198 197 197 199 198 197 198 196 198 198 197 199 196 197 195 196 197 196 194 196 196 194 192 193 195 193 191 193 191 185 187 183 183 181 174 168 157 148 151 142 141 127 111 81 45 35 70 76 88 74 81 68 100 111 81 97 70 119 96 96 109 120 125 149 160 160 158 156 161 165 170 178 178 184 178 185 189 186 189 190 191 188 192 193 195 197 197 195 196 198 200 199 196 200 199 200 198 198 200 197 199 198 197 195 195 200 193 196 198 195 197 199 197 197 197 194 195 193 194 193 192 187 186 186 184 180 177 168 158 148 152 144 138 137 118 91 57 19 58 75 92 77 80 86 62 108 85 72 96 119 86 95 85 99 110 146 155 162 159 157 162 165 169 177 181 183 181 183 188 185 190 189 192 190 192 194 194 197 195 198 200 200 199 201 197 201 198 201 199 199 199 197 195 197 197 194 194 195 194 199 200 198 199 200 196 197 198 197 193 193 194 192 194 188 190 190 187 184 180 174 162 153 147 147 135 145 127 101 65 25 24 79 87 84 72 74 66 77 73 68 122 103 103 88 69 89 111 134 155 158 163 162 156 165 166 173 181 184 183 181 184 186 188 191 189 187 191 191 194 192 196 199 199 200 199 198 197 196 197 198 197 193 197 198 196 197 195 198 195 195 198 198 198 199 198 198 194 194 194 192 192 190 194 193 192 194 191 191 189 185 182 179 166 157 150 147 139 140 134 102 77 29 25 56 88 83 88 65 64 69 66 87 120 95 105 72 57 81 111 133 153 160 159 162 160 161 167 173 176 182 185 184 184 185 186 191 189 189 188 189 192 189 196 196 195 196 196 198 194 192 188 196 194 196 192 192 194 196 196 195 196 196 196 195 197 195 195 196 191 187 192 190 192 193 196 194 195 192 192 193 192 187 185 185 173 162 154 150 136 137 129 114 79 34 30 47 82 93 85 62 50 65 89 95 107 87 103 56 49 79 112 134 151 158 158 162 164 164 170 176 179 183 186 187 189 187 188 189 189 186 189 189 189 190 192 193 192 191 193 192 194 192 189 188 193 194 192 192 193 193 191 191 191 195 195 192 196 194 190 192 188 182 188 190 188 191 192 191 192 195 192 191 192 188 186 184 178 166 153 154 137 137 130 114 86 37 28 48 70 86 82 72 44 58 80 94 93 91 101 44 47 78 110 140 149 153 154 157 163 167 171 179 179 183 190 188 191 190 190 187 189 184 187 189 187 190 187 190 190 186 191 187 187 190 191 188 189 191 188 190 192 190 191 187 188 189 192 189 192 188 184 186 185 181 186 184 184 184 186 188 190 190 190 191 188 187 184 180 179 172 153 149 144 135 127 118 93 28 33 44 82 79 83 59 49 49 79 88 72 98 91 29 49 80 120 137 144 148 154 156 165 173 171 182 178 184 186 189 191 191 188 191 192 181 183 185 184 186 182 183 182 180 181 181 181 183 184 182 186 184 186 182 185 184 186 184 181 181 182 180 183 179 175 173 176 178 179 179 175 176 174 172 169 176 176 177 174 177 178 184 175 169 160 151 145 130 132 122 93 34 37 52 71 75 70 66 43 54 79 83 57 100 68 39 48 79 126 140 145 149 150 155 166 168 172 177 179 181 186 185 183 182 180 181 176 171 167 161 169 165 161 151 161 161 156 163 167 172 180 174 177 177 178 181 181 178 179 176 174 172 169 162 167 156 145 151 148 153 152 148 150 143 139 130 137 139 141 141 150 149 150 163 167 167 160 148 140 133 126 131 91 39 36 61 59 75 61 50 36 63 75 75 66 92 56 32 42 84 130 143 140 155 150 149 163 164 168 174 168 162 170 166 157 154 147 142 130 125 120 111 119 124 120 116 119 130 134 139 148 153 168 167 170 167 168 172 171 170 172 167 164 160 150 145 150 123 118 119 104 103 98 103 97 103 100 91 100 101 109 107 118 121 117 123 131 140 149 134 135 137 125 127 100 34 41 60 47 74 54 27 24 42 69 73 71 86 55 29 39 83 125 149 146 144 151 148 161 157 155 155 151 147 138 138 127 121 122 117 112 98 82 88 85 78 97 85 95 96 115 120 121 132 148 153 151 159 158 162 161 156 161 156 153 143 131 122 114 100 97 92 88 78 73 74 71 76 67 72 73 78 84 91 94 100 95 103 110 110 123 114 110 136 127 123 109 34 55 47 49 73 44 23 20 49 68 76 74 77 42 30 44 84 128 146 140 146 147 140 137 132 131 132 132 128 118 113 112 98 97 90 84 69 68 71 71 71 73 78 76 84 101 105 100 112 128 134 130 144 150 155 156 155 149 149 140 128 113 95 96 92 86 82 82 71 68 67 62 65 61 66 80 79 88 83 85 89 90 95 91 99 108 102 107 125 129 123 108 53 40 57 36 65 41 19 22 54 57 73 69 51 38 32 43 89 123 142 147 139 145 118 101 109 110 111 114 109 109 101 98 94 90 91 79 74 77 70 73 71 76 75 80 79 96 98 100 99 112 125 124 135 143 156 152 147 144 139 130 121 103 97 92 93 85 91 83 72 70 70 67 65 65 74 78 79 84 79 90 90 97 89 100 92 102 104 105 115 124 122 114 71 43 56 31 63 34 28 25 52 66 65 63 45 38 37 45 84 124 141 147 139 129 110 93 99 102 102 96 92 95 91 86 89 85 84 79 72 71 56 60 51 55 59 74 78 86 91 97 95 105 112 120 132 143 150 153 146 145 139 130 119 106 98 94 87 81 81 65 47 46 47 38 49 39 42 46 49 51 67 73 80 91 93 94 96 103 105 106 122 129 124 120 79 44 44 37 51 27 25 39 47 65 62 56 41 44 42 41 91 121 140 144 141 120 109 95 102 96 93 92 92 88 86 79 67 61 59 58 56 57 48 50 46 40 36 39 50 67 72 80 92 94 104 116 130 148 156 149 151 149 140 134 122 109 98 86 76 67 59 43 40 47 46 41 38 32 31 29 45 40 35 50 56 61 84 90 97 101 107 115 121 128 124 122 94 42 52 37 34 18 33 50 30 71 53 51 46 44 43 43 94 120 134 142 133 119 106 99 94 96 96 89 83 68 59 55 52 46 44 29 37 34 36 32 52 53 54 47 46 45 61 63 71 82 90 109 130 141 151 146 147 157 144 134 120 115 89 79 68 60 51 44 59 78 55 27 42 40 54 27 39 96 64 36 48 53 52 85 98 106 113 119 129 131 125 127 102 45 61 42 19 18 33 39 27 94 65 49 41 51 35 46 97 121 133 135 138 124 112 99 93 91 90 83 65 42 53 49 49 56 38 26 26 31 49 25 63 94 63 49 62 49 53 63 70 70 80 113 142 155 165 171 169 167 161 139 123 114 87 74 62 62 64 55 76 112 80 52 23 28 32 31 45 127 117 67 46 50 59 66 91 109 111 117 129 128 126 130 107 60 57 50 26 18 36 46 26 109 79 51 47 46 38 50 99 125 136 131 133 130 124 109 95 89 82 69 47 49 46 38 73 87 50 41 22 31 30 44 88 118 95 47 58 75 65 67 65 70 76 115 155 177 186 188 181 181 173 148 125 110 97 82 81 78 77 69 91 120 105 67 63 37 45 49 79 126 124 83 75 67 57 79 79 105 110 121 126 129 132 129 116 65 56 52 24 33 34 43 27 101 87 53 49 41 41 49 98 125 134 133 129 135 124 120 106 88 76 56 63 49 48 49 69 108 84 51 35 36 47 66 117 115 93 73 82 64 83 72 72 64 85 127 168 183 190 194 187 184 185 158 129 111 109 96 109 93 77 78 83 105 114 97 74 61 69 83 127 114 106 94 78 86 96 86 78 99 108 122 128 130 133 131 121 59 63 54 23 38 32 43 29 110 79 61 53 33 46 54 97 131 132 139 122 127 119 112 97 84 68 74 77 65 68 64 80 93 127 117 86 80 81 102 105 94 79 73 69 70 82 92 72 76 102 142 173 181 190 197 195 189 190 169 142 110 111 124 131 105 95 87 91 88 96 103 106 103 95 97 97 87 82 89 99 101 115 115 109 116 119 126 133 130 136 132 126 53 56 49 32 36 39 39 31 100 84 75 39 43 44 37 100 134 139 142 135 133 130 117 111 106 107 102 103 93 93 89 93 85 105 125 128 104 113 110 97 98 83 84 77 78 82 95 95 106 136 157 171 183 191 195 197 193 180 171 142 119 116 124 127 108 99 83 74 82 72 77 84 84 83 87 77 92 92 106 105 109 113 124 124 130 133 134 143 135 135 143 124 43 52 47 43 29 41 36 40 96 98 71 42 48 40 30 102 133 141 146 147 144 144 140 150 152 150 134 133 116 111 102 103 100 93 95 92 96 89 86 87 84 76 83 81 87 87 113 126 145 160 161 173 181 194 196 196 195 182 171 143 121 131 124 125 108 92 86 69 72 71 69 70 80 84 81 96 95 98 103 105 113 119 116 123 133 136 140 143 141 138 141 129 38 48 53 38 30 43 41 48 97 94 77 47 44 40 21 102 132 144 149 153 155 151 158 163 168 164 156 142 133 116 111 105 105 103 101 89 94 82 79 78 74 79 88 99 103 112 149 160 173 169 164 173 176 190 198 199 195 187 176 147 125 142 141 134 117 95 95 82 82 66 69 65 71 75 71 92 94 100 103 113 118 115 120 131 131 141 137 142 140 142 137 131 42 40 48 20 35 56 46 48 110 95 74 51 47 33 18 102 132 139 152 150 153 159 153 160 164 165 150 148 134 117 112 98 95 88 79 75 75 77 66 81 93 104 114 107 131 154 174 175 175 169 163 168 176 189 196 197 195 192 182 153 128 142 154 155 140 122 109 98 92 90 87 83 76 75 85 85 91 102 106 110 119 127 119 130 136 139 144 142 149 136 143 132 44 28 36 18 37 51 49 57 125 104 82 58 43 39 15 90 133 138 151 149 160 160 158 160 160 158 154 148 146 129 117 109 97 92 88 79 85 91 92 103 113 119 133 149 163 165 178 177 172 169 163 165 168 186 195 197 194 190 179 156 131 138 160 163 159 145 136 123 116 103 101 97 96 103 106 106 109 114 117 121 121 132 130 134 139 141 141 146 143 144 142 130 36 31 25 32 43 53 50 61 143 119 99 68 45 46 19 78 130 135 147 149 159 161 156 160 161 162 162 151 151 145 139 132 123 118 118 112 113 127 129 133 150 162 172 170 172 166 178 175 173 166 161 162 161 182 196 199 193 191 182 161 133 140 153 163 162 156 162 150 142 132 122 126 120 127 126 117 128 126 131 131 132 135 140 138 143 142 144 145 147 134 142 129 27 29 32 33 52 56 51 54 153 154 118 97 62 54 21 63 128 134 144 147 157 161 156 164 167 169 169 165 158 157 159 154 149 144 148 144 144 164 166 167 179 177 177 166 166 167 173 174 176 163 163 156 161 179 192 201 195 191 181 163 140 139 152 163 157 155 168 163 165 161 152 153 146 143 150 140 142 144 134 136 144 147 150 151 148 145 150 147 147 140 140 127 23 30 25 38 59 62 55 47 148 184 149 115 76 77 31 47 122 127 143 150 152 157 161 167 171 170 171 174 175 173 177 182 178 181 173 174 173 184 182 185 183 177 176 162 168 166 172 172 171 164 164 159 164 176 190 201 198 193 189 166 147 143 154 159 158 151 161 166 167 173 173 179 170 167 164 160 159 166 156 145 156 161 161 163 165 152 153 152 147 142 143 117 18 37 31 42 63 55 60 54 133 177 146 112 90 82 62 43 109 123 144 147 155 157 161 170 173 180 176 182 184 185 183 185 186 185 178 184 182 186 184 183 181 175 177 167 165 165 170 174 169 165 162 165 164 176 191 202 197 195 189 175 147 149 151 162 152 157 154 165 165 174 173 181 181 179 180 176 175 172 169 160 165 171 171 163 165 161 157 147 146 139 141 109 17 35 31 45 68 62 61 37 118 165 141 120 114 83 76 42 106 116 142 147 152 161 160 168 168 177 180 179 188 184 184 188 187 188 181 188 187 188 184 183 181 169 172 167 168 166 169 173 169 166 168 165 167 174 190 201 201 193 192 177 158 151 154 156 154 153 152 160 163 168 172 177 180 178 183 182 183 180 180 173 174 175 170 167 167 158 156 143 143 135 139 103 14 35 34 54 69 65 66 33 110 167 152 135 129 103 91 59 93 119 136 143 150 159 158 166 162 177 178 179 178 183 186 180 186 187 186 183 183 182 180 174 182 171 172 170 166 166 167 164 163 165 166 163 167 178 192 200 201 190 192 187 172 161 154 153 150 150 147 157 155 161 168 170 176 174 179 184 181 179 184 181 179 183 170 170 164 161 154 146 143 135 144 91 14 35 37 64 75 71 63 37 113 154 161 152 143 122 104 84 82 118 125 143 144 152 151 154 163 166 171 175 175 181 183 185 183 184 187 178 182 180 179 171 175 165 168 160 162 160 159 162 156 156 170 166 177 180 195 200 200 190 191 188 184 174 148 143 136 134 140 144 152 152 163 174 172 172 175 179 181 184 179 182 180 178 170 168 158 160 148 138 134 133 139 80 19 29 40 69 74 77 61 36 135 128 149 161 153 137 118 95 77 114 118 133 142 147 143 149 160 165 168 169 173 178 178 185 184 184 180 181 175 178 173 170 166 159 152 149 150 150 154 155 147 160 170 179 183 191 194 202 198 195 193 191 193 193 162 141 136 126 116 130 136 147 161 166 166 168 170 171 175 180 176 179 177 180 174 169 159 158 145 132 131 125 145 58 29 23 51 70 78 77 72 25 151 148 125 147 153 145 126 102 75 106 114 125 132 138 142 150 154 156 167 168 171 177 177 179 182 178 179 175 171 174 171 166 156 159 135 131 134 149 167 163 162 161 173 179 189 198 200 201 198 194 194 189 191 198 184 159 157 131 104 114 124 136 142 143 153 164 166 168 166 172 172 173 171 172 170 165 157 148 140 131 127 125 140 57 32 26 54 77 86 79 78 29 170 181 105 110 137 138 120 106 50 107 121 117 124 131 141 142 151 154 162 167 172 165 175 173 177 174 179 174 172 167 161 151 132 119 111 116 130 156 176 172 160 167 171 180 189 203 201 199 190 193 192 190 189 192 193 165 171 159 95 109 113 119 126 131 139 154 157 163 161 162 167 162 161 165 157 160 148 144 138 127 123 127 138 44 38 20 63 79 87 85 75 36 188 165 156 70 76 99 97 74 23 78 127 113 121 122 130 137 147 152 153 158 158 168 167 165 171 170 172 170 164 157 143 129 111 93 88 73 120 159 174 165 155 161 172 169 181 197 197 192 187 189 187 196 192 182 184 162 149 180 111 102 118 112 112 120 130 147 147 150 160 159 162 156 151 154 149 151 140 137 137 126 123 130 127 44 36 31 70 87 93 92 73 41 187 153 175 97 68 30 45 33 9 68 121 114 116 112 118 130 139 144 144 151 157 156 162 168 165 164 164 159 152 138 123 103 91 88 89 68 101 153 172 151 145 153 164 165 170 181 182 183 182 179 179 193 188 170 171 163 133 160 135 101 120 112 106 111 123 129 135 142 144 147 144 150 141 144 138 140 138 129 129 126 122 133 116 39 39 32 64 92 96 100 80 51 158 162 133 140 107 28 27 37 15 45 121 112 112 114 110 124 128 134 142 144 153 152 159 165 162 157 156 150 141 125 106 92 85 101 112 112 112 137 158 141 117 133 154 151 158 172 172 170 168 160 172 172 167 154 145 142 122 137 142 101 117 124 109 106 117 123 129 125 133 132 133 136 134 133 132 136 127 128 124 125 124 130 103 37 44 31 67 89 93 109 86 57 155 155 129 161 83 53 64 46 16 28 113 123 109 112 107 115 103 119 137 138 147 150 155 159 151 155 151 131 128 108 95 85 101 125 133 136 138 119 135 136 95 77 109 127 132 143 146 154 142 129 150 149 135 121 115 103 111 126 128 108 124 126 123 105 105 116 123 122 122 122 126 124 126 123 125 129 124 122 121 129 123 133 77 34 44 33 67 92 99 115 93 60 146 130 160 139 67 95 118 31 21 11 101 117 121 107 102 111 97 104 120 131 137 147 150 151 142 147 135 120 117 89 84 98 131 143 149 144 150 137 102 99 84 65 60 69 84 104 112 117 109 98 112 112 98 88 78 71 92 108 115 113 127 134 133 114 97 93 106 114 119 121 121 120 121 118 119 120 120 119 118 124 126 132 58 40 54 37 70 85 106 118 108 58 114 142 160 107 79 130 102 38 19 8 85 119 117 113 107 105 100 104 114 123 134 138 142 142 139 134 126 106 99 84 89 125 147 154 149 151 147 155 111 71 61 55 49 52 59 71 81 79 79 79 86 92 79 65 48 57 90 105 117 116 128 134 138 134 103 79 92 103 110 116 114 118 116 114 116 115 114 117 115 123 123 130 36 40 64 41 63 89 112 122 117 59 126 152 135 99 110 125 84 35 31 13 64 120 112 114 111 106 102 92 101 115 123 131 136 127 129 123 112 103 87 84 109 147 154 149 147 152 148 155 140 84 57 52 50 55 53 60 63 66 65 63 70 73 62 62 56 95 116 110 115 118 121 133 130 139 123 92 75 84 104 109 114 118 115 112 113 110 108 114 117 122 132 113 25 47 68 48 61 86 112 132 127 82 145 144 100 110 139 93 62 38 42 24 34 124 110 103 116 110 100 89 87 103 116 123 125 122 120 109 103 92 81 93 136 144 146 141 146 146 150 146 155 118 69 55 53 64 56 56 55 61 54 58 66 67 64 67 93 111 112 113 117 116 117 128 123 130 133 113 89 70 84 101 109 117 115 114 115 110 108 111 118 124 136 86 15 53 76 50 66 80 111 134 132 117 134 122 105 133 122 74 44 49 48 23 9 94 111 104 111 110 107 89 86 100 114 118 117 116 113 102 101 79 77 122 140 144 143 142 154 145 149 153 158 140 100 64 63 68 68 72 67 65 63 63 70 74 82 96 104 111 113 113 116 121 122 121 124 121 125 125 113 86 75 90 102 114 117 122 113 119 112 109 119 122 136 57 15 56 71 68 55 90 106 130 131 129 124 118 131 127 96 53 44 53 29 39 10 68 112 101 111 107 105 89 84 91 109 113 113 111 102 101 93 77 96 134 137 139 145 149 152 159 159 159 158 153 131 91 79 76 75 81 81 77 74 76 74 94 102 108 108 118 116 121 122 124 123 126 124 124 124 125 129 111 86 81 102 105 122 120 121 122 108 110 121 126 117 49 12 55 75 68 57 84 101 115 133 133 123 125 128 116 67 48 49 51 26 38 32 50 103 101 101 107 100 103 91 86 102 112 109 105 102 97 81 88 114 133 135 136 145 150 153 158 162 165 161 161 151 121 97 87 89 86 84 91 84 84 79 96 112 117 120 124 122 129 126 128 123 123 122 118 116 123 125 124 102 85 99 112 119 124 119 125 111 116 121 132 94 30 31 47 74 75 53 80 106 111 133 126 126 136 111 85 53 47 68 58 57 56 58 59 81 100 93 99 92 103 97 97 102 110 107 97 96 93 85 97 136 138 126 124 128 142 142 156 155 170 167 169 168 146 128 100 98 97 99 110 104 104 98 103 119 124 135 133 135 133 136 128 126 122 116 109 101 109 120 122 119 99 104 113 123 126 123 126 119 117 122 125 56 19 34 47 75 74 62 62 102 109 136 124 134 119 90 65 51 59 78 70 84 76 71 80 62 91 95 96 100 97 105 106 103 108 99 105 105 103 87 110 138 133 112 91 104 118 140 146 151 157 160 157 153 149 137 111 103 106 116 115 118 106 111 108 110 118 129 132 133 135 132 131 127 118 114 85 79 90 106 125 119 111 115 117 125 128 120 125 118 115 129 99 18 20 38 33 68 78 67 66 88 112 126 132 127 94 72 59 45 80 74 92 85 64 53 91 54 63 91 98 99 110 110 117 114 108 108 114 118 107 102 114 131 118 99 63 73 81 104 110 108 110 120 122 116 122 122 107 101 94 93 98 104 107 98 101 93 96 97 107 102 108 107 104 95 79 56 44 55 80 93 115 116 120 120 118 128 124 124 127 115 117 123 58 13 20 37 28 69 73 72 65 77 100 122 134 93 70 57 53 50 97 87 74 53 36 40 95 55 22 82 94 96 102 109 119 121 111 111 117 118 112 108 126 121 101 85 51 31 39 44 60 60 60 72 70 76 78 92 86 88 80 73 68 79 80 81 80 78 83 72 82 82 74 72 62 42 42 55 67 77 79 91 97 112 121 123 121 125 122 121 119 116 120 93 17 18 16 28 28 49 69 77 65 76 83 121 139 66 68 58 45 66 101 78 39 39 39 48 73 51 17 49 88 85 98 108 118 119 118 113 120 120 120 120 127 116 90 83 66 51 35 23 26 21 41 67 52 61 70 63 67 60 62 55 51 57 59 63 66 62 82 69 64 86 50 29 51 69 73 107 114 103 94 97 97 109 122 120 118 120 119 119 114 118 115 44 6 21 21 16 32 36 56 65 87 60 78 97 133 78 71 39 67 78 71 43 26 46 51 35 59 37 32 25 53 83 86 106 116 117 117 111 123 119 124 120 123 110 94 84 83 89 76 49 40 16 34 76 29 66 98 90 87 97 93 97 67 83 82 97 78 73 119 76 34 85 59 67 72 85 105 132 129 122 110 108 102 111 117 113 114 115 118 116 114 112 78 9 17 12 23 17 24 25 50 64 78 87 70 84 111 85 51 58 80 67 41 31 44 48 33 23 60 29 24 22 19 56 84 84 108 117 103 107 113 118 118 119 125 114 99 96 100 113 126 107 76 44 44 36 20 23 63 66 72 102 98 103 83 88 93 102 75 46 94 45 41 68 77 83 87 101 129 130 128 126 122 120 111 111 109 109 106 115 110 117 103 94 62 6 14 12 23 15 19 21 33 63 69 88 95 69 76 63 61 69 67 53 37 31 33 33 27 32 42 30 18 18 12 33 64 81 84 111 97 99 107 109 116 115 121 114 105 113 121 131 145 145 126 98 74 60 50 39 43 36 41 57 67 62 44 61 72 62 51 43 51 62 77 92 93 84 99 119 135 131 126 128 125 121 119 108 105 102 105 106 107 110 94 61 59 6 13 14 19 20 12 21 24 50 66 83 103 89 61 61 67 69 38 32 29 28 25 24 28 38 37 24 20 22 7 39 77 62 77 87 100 102 101 97 107 110 115 112 118 128 137 145 143 154 148 126 117 103 98 91 76 56 59 55 55 51 49 54 55 57 66 67 66 89 102 91 93 95 111 127 133 126 128 128 124 122 116 110 102 97 102 102 109 98 66 61 50 17 11 18 17 24 8 18 25 28 63 75 102 110 72 73 72 46 23 36 30 33 29 28 24 35 28 22 18 23 10 21 91 98 60 73 89 95 96 98 98 107 112 121 121 133 143 149 146 146 148 134 128 126 123 131 122 122 123 117 113 106 99 84 84 94 95 94 100 109 104 90 101 111 128 129 127 129 126 129 123 119 121 105 102 97 102 99 105 63 57 62 56 11 11 14 18 21 14 11 30 18 43 60 90 98 108 68 57 34 30 29 31 26 32 29 12 35 22 19 21 15 6 17 86 115 89 56 72 85 90 89 95 98 112 115 123 132 134 145 146 140 146 141 128 120 122 124 123 131 143 148 138 132 129 108 102 104 104 98 95 101 95 99 108 123 126 123 122 129 125 127 121 123 123 109 103 96 103 96 77 55 57 60 55 9 8 15 18 24 9 16 23 22 28 44 61 92 104 70 43 37 33 26 32 30 25 24 17 35 22 19 23 13 11 20 88 104 112 86 59 67 82 84 90 97 106 112 118 125 134 141 144 144 140 139 131 117 113 112 111 118 126 139 131 127 127 106 106 95 101 88 88 90 90 104 118 124 121 120 121 125 126 128 123 125 121 109 104 103 97 77 61 55 57 64 54 9 9 16 19 21 17 11 23 26 30 22 46 64 89 66 40 35 30 31 20 28 19 22 24 27 16 17 25 12 14 18 85 105 103 111 80 49 71 85 87 87 103 109 109 118 125 130 138 138 138 137 131 124 107 93 97 92 103 113 113 113 110 111 105 90 89 79 78 84 100 112 115 117 121 116 121 125 122 129 124 125 121 108 106 100 85 63 59 52 59 71 49 7 18 18 11 24 14 14 19 24 26 22 34 39 78 53 35 33 38 31 25 30 21 26 22 22 20 16 17 22 7 23 79 109 101 109 104 71 60 65 85 89 96 104 115 124 121 128 131 129 134 135 129 122 114 101 75 80 72 66 83 79 77 83 75 76 71 69 86 92 108 105 113 114 119 116 120 123 120 123 128 123 120 109 105 84 68 68 58 48 57 78 45 7 20 16 15 25 16 8 21 19 36 23 22 43 23 43 26 38 27 29 24 25 27 26 13 19 19 18 17 16 11 17 79 100 105 108 102 97 63 55 73 85 94 104 115 122 128 123 124 121 126 126 123 117 110 104 94 75 73 68 62 66 65 63 72 72 74 79 89 97 106 106 111 112 121 118 119 123 118 123 125 125 113 103 89 73 63 65 61 57 57 76 43 5 16 14 22 26 11 10 17 20 38 27 27 39 35 32 28 35 30 30 21 25 28 25 16 15 22 21 19 17 10 16 76 99 107 110 107 102 78 61 63 72 89 100 109 124 133 130 127 124 129 124 125 125 112 104 107 86 80 74 65 73 65 64 72 75 86 80 91 100 105 109 109 113 120 120 119 121 125 127 124 116 109 85 73 72 67 60 60 56 65 74 35 4 14 18 21 18 15 13 17 25 25 31 24 34 25 38 34 30 29 32 24 32 31 25 15 18 21 27 16 20 11 17 59 102 108 110 110 99 90 75 52 58 77 84 111 123 129 139 132 134 133 128 123 121 120 91 95 95 92 80 79 72 73 66 73 79 92 87 91 107 107 115 114 121 125 121 123 125 130 131 126 113 95 67 70 73 69 64 63 57 67 70 30 8 15 19 19 26 9 10 22 15 22 29 29 38 33 32 33 30 31 28 26 26 27 29 14 21 20 19 28 15 15 9 59 96 104 108 105 105 95 80 64 49 58 60 91 114 131 136 139 136 136 132 128 129 125 109 108 105 105 98 91 91 84 89 82 82 99 98 107 109 115 118 120 121 126 126 126 130 125 123 124 93 72 72 75 74 69 61 65 59 69 65 19 9 16 21 16 29 10 17 14 22 26 22 30 35 26 38 33 25 25 38 25 32 34 28 17 18 22 21 21 24 15 8 46 99 94 107 110 105 96 90 70 59 55 46 74 96 117 137 143 144 146 141 142 138 137 127 128 129 134 131 120 118 108 105 99 98 104 118 125 119 125 128 128 127 126 130 128 131 129 124 102 77 62 72 74 72 71 63 64 63 69 54 12 13 18 13 28 19 15 11 22 26 19 28 29 38 41 39 26 39 26 32 33 28 34 31 17 20 16 21 20 24 21 6 45 95 100 106 107 107 97 88 81 60 60 51 53 69 96 126 138 150 148 153 149 137 134 134 138 144 147 151 146 141 135 134 125 124 125 135 138 135 129 129 132 128 128 126 127 127 126 111 74 71 68 62 75 75 65 67 61 68 67 36 9 20 12 18 23 19 10 16 17 31 24 31 33 26 40 36 30 34 23 25 35 37 24 34 17 17 21 22 26 25 27 6 29 94 97 106 106 110 102 92 86 74 56 62 54 44 62 99 122 135 145 146 144 150 141 139 146 144 145 154 156 145 149 158 149 152 149 144 146 139 134 138 126 125 120 116 118 126 116 90 63 69 66 74 74 78 72 63 60 72 62 24 12 17 21 16 26 17 13 17 23 22 33 25 33 42 35 36 24 37 31 27 34 23 30 24 31 10 25 20 19 29 32 16 13 85 103 107 109 101 110 92 89 79 64 57 59 55 48 60 104 127 130 119 133 144 149 145 145 152 156 156 161 150 149 156 153 153 157 147 141 135 140 124 117 118 118 114 114 116 87 67 65 77 69 72 79 77 66 65 71 68 48 9 11 13 22 22 23 15 15 29 19 32 36 28 22 36 43 38 33 30 32 24 39 32 26 23 32 13 17 21 27 26 24 25 7 77 99 103 108 105 102 100 95 86 71 59 58 60 55 53 58 97 114 108 111 126 132 139 145 143 141 149 149 148 142 143 137 138 135 133 124 126 130 120 109 110 111 103 104 87 61 64 72 68 76 76 77 70 73 65 69 63 32 10 12 24 20 21 22 14 20 26 30 30 37 32 42 32 31 35 26 35 35 30 31 37 30 24 30 17 14 20 25 26 29 30 9 60 98 95 109 104 101 99 93 87 73 63 61 58 57 62 47 57 82 92 101 107 123 123 133 125 129 134 133 130 126 119 110 109 107 113 110 115 117 103 95 103 96 89 82 65 67 66 73 68 82 68 77 73 74 69 69 50 23 10 19 22 18 25 16 13 23 24 31 37 31 38 34 47 42 24 30 38 29 25 38 31 29 19 24 26 15 16 25 23 29 38 10 47 91 98 105 105 100 105 93 95 78 65 64 54 59 58 56 51 41 71 81 95 103 106 110 104 112 113 113 110 104 92 91 83 85 95 97 99 98 88 87 82 77 72 68 67 66 70 68 77 73 72 80 68 79 60 73 30 13 17 16 23 21 24 12 13 27 29 23 42 33 46 37 35 38 