P2
92
112
255
95 101 99 98 100 99 102 102 101 83 64 59 78 86 84 82 90 93 89 95 126 116 112 118 95 110 105 85 99 91 82 141 123 121 109 125 128 124 97 91 106 96 65 79 84 97 98 99 98 95 81 89 84 71 67 67 55 69 80 89 83 77 78 72 69 59 55 51 54 32 69 109 110 113 109 108 107 109 110 113 110 112 110 113 110 111 109 111 109 109 109 110 98 97 99 100 100 98 102 92 83 78 76 69 63 56 53 62 78 97 111 110 114 114 98 104 111 99 112 100 91 94 81 131 137 113 101 107 129 125 94 86 96 92 64 73 88 86 102 102 98 95 87 90 84 76 78 84 70 68 63 74 85 82 75 63 71 70 63 57 58 46 32 61 110 110 113 111 111 109 111 111 111 109 110 113 111 107 113 108 111 110 108 111 98 98 95 102 100 98 90 78 79 70 59 48 50 52 55 67 88 96 115 120 106 101 106 96 92 117 121 97 95 95 88 122 134 109 86 92 128 137 92 83 94 89 71 87 89 93 110 103 108 100 102 92 85 78 90 89 87 91 73 68 65 66 77 65 67 65 66 65 68 50 44 34 71 109 111 110 112 108 114 108 112 111 110 112 112 110 113 111 111 111 110 109 105 100 96 104 97 83 81 70 55 42 53 50 58 70 73 92 88 87 94 108 106 106 104 106 99 97 128 104 101 95 89 118 133 100 77 89 113 128 95 81 99 87 95 88 105 107 110 110 108 111 103 99 93 89 90 92 88 89 84 86 80 69 60 59 64 58 55 66 58 71 60 42 34 62 112 111 107 111 108 112 111 108 111 110 112 109 112 108 109 111 109 109 100 100 104 94 84 60 49 42 45 60 61 72 89 94 90 88 94 91 87 96 99 106 108 99 99 98 109 103 104 101 87 111 118 100 79 87 101 115 89 72 98 97 102 106 103 115 99 93 97 105 106 108 103 103 97 90 94 89 93 91 86 89 86 72 55 57 61 57 55 51 71 71 47 20 78 101 109 109 109 111 112 114 106 112 110 110 109 108 110 110 111 110 102 101 89 72 56 45 46 49 60 64 64 58 73 91 103 110 112 120 128 110 102 103 111 109 104 105 101 101 105 107 80 96 118 99 77 90 98 112 87 85 98 99 103 101 103 94 86 100 110 120 121 115 116 105 103 94 89 95 88 91 101 90 86 85 80 70 59 69 53 51 53 67 81 51 34 70 106 111 108 111 112 112 112 107 112 110 109 112 113 108 109 110 97 89 79 56 41 54 58 64 57 50 48 50 66 77 90 102 106 110 110 113 106 102 93 112 115 100 104 100 105 107 86 95 112 101 86 88 100 109 95 96 99 99 96 95 87 78 105 117 129 133 128 123 117 113 107 103 97 93 91 87 92 93 93 91 79 84 69 69 74 59 51 45 63 72 55 41 72 109 109 112 111 111 112 110 111 111 113 111 112 110 111 108 89 86 62 48 47 60 65 62 58 55 65 66 67 82 90 104 119 125 115 109 109 109 106 97 111 114 111 108 109 100 85 93 108 109 100 103 96 96 99 107 106 102 98 87 86 105 115 122 134 135 138 139 131 132 122 116 112 101 99 91 101 102 93 93 91 85 81 78 79 78 67 44 40 56 62 62 35 77 106 115 110 114 110 111 109 109 113 107 113 108 111 108 100 85 47 48 53 54 55 55 65 80 96 108 118 122 130 139 138 140 124 112 110 101 96 117 102 104 114 100 105 102 89 98 113 115 107 104 91 98 100 112 110 92 92 93 101 112 120 130 144 147 139 138 133 128 124 121 109 111 111 117 121 121 94 90 84 92 86 81 83 93 81 75 54 31 44 56 63 40 75 105 114 112 109 110 110 109 108 112 112 109 109 109 90 47 48 52 66 69 70 81 88 105 108 114 119 118 119 116 119 120 115 108 103 101 89 89 108 103 105 110 94 106 96 110 126 114 110 112 105 99 105 117 120 92 100 97 110 110 115 116 124 147 152 154 152 140 124 118 109 109 108 113 116 107 105 105 97 90 102 85 78 90 93 87 79 73 34 42 50 53 47 78 105 113 111 114 111 107 112 112 113 110 111 109 66 36 58 68 75 85 96 104 107 112 118 127 134 132 126 115 113 105 106 104 92 80 87 76 82 105 94 99 100 99 108 116 127 118 106 115 119 112 106 130 114 102 97 105 101 107 116 121 143 163 159 156 147 135 120 130 130 120 119 114 105 106 100 99 104 101 99 93 80 83 90 98 94 79 74 55 39 45 43 47 83 112 110 109 112 109 112 112 110 109 112 112 57 61 68 91 87 82 83 100 103 104 100 110 132 139 132 123 119 111 93 92 98 87 84 74 73 83 102 93 99 108 118 118 123 124 117 120 128 124 121 139 119 112 112 94 105 120 129 134 144 153 146 138 144 142 143 141 129 124 122 118 118 109 100 101 100 104 102 91 96 79 76 95 95 96 81 81 57 40 41 37 44 72 118 106 110 113 110 111 110 111 110 112 66 84 83 63 64 50 55 74 81 104 96 86 87 90 95 103 102 111 101 95 86 93 89 91 92 91 99 104 108 121 129 125 125 133 127 115 137 135 129 140 134 122 110 113 117 117 126 122 130 145 155 161 170 169 155 147 142 140 135 128 122 111 118 121 118 111 111 109 105 102 97 86 81 77 104 85 81 59 38 48 37 33 69 112 108 111 109 108 112 112 109 111 82 80 66 43 47 64 65 60 91 102 101 100 103 97 90 102 99 90 94 90 97 98 98 103 104 111 115 115 124 124 138 136 137 142 141 129 143 143 146 143 143 120 119 121 120 119 119 124 136 151 161 160 160 155 150 149 132 126 116 122 122 116 108 102 104 102 97 101 91 94 96 92 97 82 80 97 95 78 62 45 45 36 41 54 110 112 110 109 111 114 108 115 79 66 63 53 59 78 76 73 74 86 86 92 99 105 104 107 104 97 98 102 98 105 110 120 128 139 145 143 138 140 151 148 151 158 154 150 154 149 153 144 133 125 132 123 117 125 136 146 146 157 157 154 157 155 157 149 132 140 129 121 113 110 98 93 85 88 87 86 84 96 93 98 104 102 91 91 102 89 72 62 52 42 45 30 68 116 111 110 111 112 111 110 66 70 67 66 66 73 86 94 104 113 115 112 109 114 121 131 119 132 124 121 118 122 122 128 141 151 167 161 163 166 159 163 171 171 173 168 172 168 165 154 136 128 128 123 121 129 135 141 142 148 150 152 144 144 141 142 124 122 118 115 112 112 106 107 99 95 94 90 88 108 119 117 126 109 109 99 89 103 87 78 62 49 46 49 36 94 117 110 110 113 111 115 49 59 62 66 66 79 86 95 97 91 104 110 108 112 114 127 124 131 135 132 124 132 136 148 160 178 183 186 182 186 181 182 183 187 190 187 188 182 168 158 136 132 130 137 142 144 145 145 145 147 157 159 157 156 153 151 143 135 126 121 125 122 118 119 123 108 94 98 111 125 128 118 118 109 113 115 107 91 103 90 81 58 49 50 42 62 112 113 108 108 112 112 50 53 68 65 69 68 76 83 103 106 106 110 115 111 112 125 130 129 121 128 133 145 155 177 183 192 197 196 192 196 198 197 195 197 201 203 200 193 185 168 155 159 163 166 166 165 170 167 169 171 171 175 177 170 175 173 165 163 160 146 132 130 123 126 123 116 104 93 107 115 116 119 121 104 102 99 112 113 94 105 97 76 51 55 61 45 89 114 107 115 112 111 69 84 85 88 89 84 81 82 87 100 96 93 102 102 110 126 131 132 136 148 157 170 179 190 193 195 201 202 200 201 202 202 202 203 203 205 202 200 194 191 187 184 192 193 191 186 190 189 193 192 190 187 189 189 189 192 184 180 178 172 158 142 135 134 127 124 119 95 76 99 108 115 132 103 105 90 81 103 108 104 98 96 58 45 55 43 62 112 111 113 112 108 87 95 96 97 104 112 102 98 98 97 96 88 95 101 108 123 135 143 156 171 178 188 195 195 199 201 202 204 204 204 205 203 205 204 204 204 202 202 200 200 199 198 200 198 197 193 193 194 197 199 199 196 191 192 196 198 191 192 186 184 181 168 154 144 138 132 124 104 90 87 106 111 119 121 77 84 92 74 98 100 98 94 86 60 42 54 46 98 111 112 112 113 85 92 109 106 100 106 111 109 110 100 89 91 94 95 107 127 148 158 175 183 190 195 200 199 201 202 205 203 205 206 203 205 206 204 203 204 204 202 203 203 203 196 199 201 198 195 186 193 196 197 197 201 196 195 198 198 196 195 193 186 184 181 167 149 154 148 132 122 111 85 89 111 118 114 95 65 65 98 88 97 93 98 93 78 55 59 43 84 105 101 118 109 93 97 102 94 91 91 103 98 98 92 86 98 100 103 122 146 155 171 177 188 195 199 200 202 202 202 204 204 204 205 205 205 205 203 204 202 203 203 204 205 202 201 201 203 201 198 199 198 197 195 193 200 200 198 201 199 197 195 195 192 188 178 176 168 161 167 151 140 130 97 86 100 115 114 107 90 66 70 77 92 95 90 97 89 68 59 49 59 92 92 99 111 125 129 116 110 101 101 100 88 91 91 96 108 115 123 140 162 166 173 185 194 196 201 201 202 203 204 203 203 204 204 205 204 205 205 205 205 202 203 203 203 204 203 203 204 202 197 203 202 204 202 198 200 199 197 201 199 198 196 196 193 189 187 179 183 180 172 166 163 146 117 86 84 105 118 124 122 113 101 88 95 86 86 89 93 78 58 55 48 75 93 84 96 117 114 108 92 92 99 91 86 90 109 108 122 124 137 158 170 173 178 188 194 198 197 200 202 202 204 204 203 204 203 203 203 204 206 204 205 204 203 201 203 205 205 204 204 205 203 204 205 205 205 202 201 200 200 199 199 199 195 196 193 191 185 188 186 186 182 175 180 168 131 109 82 81 93 104 114 121 119 118 110 104 92 90 89 90 70 45 52 60 79 83 84 105 100 88 88 89 91 87 96 100 116 127 133 139 156 171 175 180 185 191 193 197 198 200 199 202 204 205 203 206 202 201 203 205 206 206 205 206 203 202 204 205 205 205 204 204 206 205 205 208 205 204 204 202 201 201 199 198 194 196 195 191 188 195 192 185 183 179 179 172 153 130 106 99 74 81 80 90 115 127 131 130 121 112 84 94 82 59 37 59 68 78 78 99 100 101 80 73 81 95 105 111 122 140 154 161 168 169 177 184 186 192 193 199 200 197 199 202 202 203 202 205 204 203 204 203 205 205 205 205 202 205 201 206 204 203 207 205 206 207 207 204 206 206 203 204 202 202 200 199 196 197 193 191 193 193 197 192 186 181 182 177 166 150 126 111 97 61 76 73 109 113 120 115 115 124 123 83 92 70 40 36 52 71 96 87 80 80 68 67 79 101 105 111 135 155 170 176 174 170 183 186 187 190 194 198 198 198 197 202 203 203 203 202 204 205 204 203 205 204 205 204 204 203 201 198 205 203 208 206 206 204 204 206 205 205 204 204 204 203 202 199 199 196 195 193 195 195 198 196 192 186 184 179 168 160 141 122 104 93 93 94 97 92 113 125 114 111 118 98 91 77 57 37 49 42 77 89 95 92 84 81 93 98 105 124 144 168 175 179 180 172 186 185 188 191 193 197 197 197 198 200 203 204 202 203 203 205 204 205 204 204 202 204 202 205 203 203 204 204 208 205 204 203 204 204 202 205 203 204 203 202 202 200 199 197 197 193 197 196 197 198 194 189 187 181 171 164 150 128 113 86 83 103 103 79 92 113 121 105 101 92 94 83 56 56 53 35 48 108 105 103 95 89 99 105 110 130 154 168 177 181 182 181 184 184 183 190 192 194 196 198 200 201 202 201 203 202 202 203 205 204 204 205 205 203 205 204 204 203 204 203 205 206 205 204 204 204 202 204 203 204 201 202 202 200 199 199 198 196 197 198 197 198 197 191 188 186 173 168 156 139 119 100 76 96 111 82 78 98 89 105 107 99 88 87 64 52 58 48 45 103 88 95 94 87 99 98 118 136 154 168 178 183 180 180 181 184 186 184 187 191 193 196 198 201 201 200 201 203 202 203 201 204 203 204 204 204 205 205 205 203 206 205 206 206 207 204 205 204 204 204 204 202 202 201 201 201 200 200 199 199 198 200 199 199 199 194 188 187 178 176 159 144 139 112 90 86 103 101 82 87 103 78 90 101 85 83 80 71 52 48 53 101 93 101 94 88 88 105 124 144 152 161 177 183 181 180 182 183 185 188 186 191 193 196 195 198 199 199 199 202 202 203 204 203 204 203 204 204 204 205 205 206 205 206 205 206 206 205 206 204 205 203 203 203 200 201 201 200 200 200 200 199 201 199 200 200 196 197 189 183 182 178 165 145 133 123 103 90 101 108 90 93 105 96 92 93 78 70 81 69 60 47 46 103 110 99 90 86 94 112 130 143 155 160 172 181 183 182 183 184 187 186 188 188 193 194 194 194 198 196 199 203 202 203 203 204 204 204 204 204 204 206 204 205 204 205 203 205 206 206 205 204 204 202 203 203 199 201 202 201 200 200 200 202 200 200 200 200 196 195 191 183 180 180 172 158 139 126 109 104 101 112 113 98 113 112 97 95 76 59 75 59 52 42 41 112 111 94 103 85 91 107 132 142 153 164 171 181 184 184 184 182 187 188 184 188 192 193 192 194 194 195 199 201 201 202 202 201 203 202 204 204 204 205 204 204 204 204 206 206 207 205 207 203 203 202 202 202 198 201 202 203 201 202 201 202 200 197 200 200 196 199 190 183 182 180 176 167 149 135 109 99 106 104 117 106 100 102 118 110 99 49 67 57 50 36 39 115 113 113 97 81 88 108 125 146 152 163 171 179 185 186 184 182 186 185 185 185 192 189 192 194 194 196 199 200 200 203 203 199 202 200 206 204 204 206 205 205 206 207 205 206 205 206 204 207 203 198 200 205 201 202 202 201 202 202 200 195 202 199 197 202 199 196 192 187 182 181 181 174 152 144 134 95 79 100 116 104 109 85 111 118 98 67 67 63 48 42 35 107 109 92 88 84 87 104 127 148 154 162 168 174 180 188 185 184 184 187 186 185 189 188 189 193 196 197 196 200 200 201 202 199 201 203 204 204 205 205 206 205 207 207 206 207 207 206 207 205 205 198 199 204 202 201 202 203 203 202 201 198 200 198 201 200 198 196 194 189 180 181 176 173 167 153 137 118 64 75 94 120 101 114 93 97 102 92 61 62 53 46 39 111 104 90 87 83 91 109 123 141 153 160 163 172 179 186 185 184 183 185 184 188 189 188 186 191 196 195 194 199 199 202 201 202 202 202 204 204 204 206 205 205 208 208 206 207 207 206 206 206 204 203 203 204 203 203 202 203 203 202 202 202 201 200 201 199 200 196 195 191 182 178 178 169 169 165 149 129 85 50 96 114 124 94 104 80 84 92 57 61 50 50 37 111 106 103 100 95 100 110 129 136 151 154 159 168 178 183 184 186 184 185 188 186 188 189 188 192 194 194 196 196 201 203 203 200 204 203 206 204 204 206 206 205 208 207 206 207 207 205 207 206 205 205 204 205 204 204 205 202 203 203 201 203 202 201 201 202 199 198 198 191 185 179 179 171 168 169 159 146 109 42 72 112 113 113 84 73 74 86 70 41 45 52 41 102 102 94 98 100 95 111 128 137 144 150 154 165 173 180 185 186 184 185 187 187 187 190 193 193 193 194 197 197 200 200 204 201 203 204 205 205 206 207 206 207 206 207 205 208 205 206 207 207 204 205 205 206 204 206 206 204 203 202 202 202 202 203 201 202 199 199 197 195 187 182 177 172 164 168 160 150 129 80 44 105 111 118 112 51 72 80 84 40 43 54 38 103 90 90 104 93 98 111 126 139 144 148 152 167 169 178 186 182 184 187 186 187 190 192 193 193 194 198 198 197 201 202 202 204 202 205 205 206 206 206 207 205 206 205 206 206 205 206 207 206 206 207 205 206 204 206 204 204 203 203 204 203 203 202 203 201 201 199 200 196 191 184 179 175 168 159 157 151 138 97 64 84 118 112 110 68 56 74 80 45 51 52 36 107 95 110 105 88 100 118 127 135 141 142 150 163 170 176 185 180 184 187 188 188 192 192 190 196 195 199 199 198 201 202 203 205 203 204 206 205 206 205 206 206 205 206 206 205 206 206 206 207 206 206 205 204 203 204 203 203 204 203 203 204 203 202 203 201 200 199 199 195 196 186 178 174 168 161 152 153 140 111 62 80 111 112 92 77 53 62 83 40 41 53 42 99 111 113 90 90 104 120 130 135 136 139 150 159 169 174 184 181 181 187 187 188 192 193 192 194 194 196 200 201 201 202 203 203 203 201 203 204 206 203 202 203 206 205 205 207 205 206 206 207 207 205 206 203 202 204 203 203 202 203 203 203 204 203 202 203 201 198 200 196 194 190 177 175 172 161 154 148 144 120 53 85 110 108 95 61 56 59 84 45 30 49 46 100 119 102 90 100 101 118 133 139 140 142 146 152 166 176 184 182 183 184 188 187 195 189 192 191 195 195 197 201 201 200 202 202 201 203 200 201 204 204 203 204 204 206 204 204 206 204 207 206 205 205 205 204 201 202 204 201 202 201 202 200 201 199 197 199 194 192 196 196 192 189 181 175 167 162 155 152 137 123 62 81 105 102 83 66 53 72 81 44 31 48 49 93 120 102 97 86 88 113 129 139 142 137 142 152 161 169 180 183 181 182 184 186 194 191 194 189 194 195 198 197 201 202 200 203 201 202 203 203 203 203 204 204 203 204 205 203 205 203 204 203 203 203 202 199 198 200 199 199 196 194 191 185 181 179 172 177 179 171 166 176 182 184 181 175 166 161 153 152 139 122 81 79 82 90 74 44 37 82 97 42 31 47 50 111 115 108 97 69 86 100 123 138 141 140 146 149 160 168 179 180 185 185 185 188 192 192 190 192 193 196 196 197 198 200 197 200 201 201 203 201 203 202 203 202 202 203 203 203 202 201 203 196 201 197 185 187 183 178 177 169 164 161 149 139 138 144 140 143 146 147 139 138 149 150 160 149 149 161 154 148 141 126 75 81 63 87 64 35 27 63 89 46 30 43 53 128 115 109 91 58 79 101 116 140 140 142 144 152 157 170 177 180 185 188 188 190 193 196 188 190 191 194 198 193 193 196 196 196 198 196 202 200 201 200 201 201 202 202 202 202 201 199 197 188 195 176 151 162 144 133 122 122 122 118 111 107 114 115 113 126 129 127 134 135 128 127 130 126 118 149 156 148 140 127 81 85 48 85 61 38 24 64 72 48 33 36 54 128 105 110 79 58 68 101 113 133 139 139 142 149 158 169 176 181 185 188 188 191 195 195 188 183 185 190 189 187 178 180 183 182 185 187 194 198 199 198 200 199 200 199 200 199 197 194 190 175 173 153 136 139 123 122 106 98 104 98 92 87 103 112 119 130 121 124 130 128 124 124 123 123 119 124 151 152 136 133 91 74 56 66 65 32 32 69 68 41 37 37 56 113 98 111 67 45 71 94 118 123 133 137 143 148 161 169 172 180 183 186 183 183 185 178 167 156 144 146 153 150 143 132 148 157 164 168 173 193 193 192 195 195 194 196 194 195 192 192 179 162 143 139 134 129 125 117 104 100 99 94 96 108 125 134 134 138 132 139 141 142 127 139 135 130 123 112 136 149 139 134 115 54 70 54 57 37 40 80 58 46 39 40 63 96 92 109 59 42 63 96 112 119 127 130 143 148 155 169 169 167 173 167 158 156 150 137 124 119 114 109 109 116 110 113 117 138 147 137 156 175 183 179 189 188 192 193 192 191 190 187 172 153 138 136 135 133 127 115 114 107 96 96 96 98 112 107 109 116 119 126 133 136 132 136 136 131 120 128 141 146 147 137 129 59 59 55 49 30 38 85 54 45 47 34 57 90 91 110 55 43 58 96 108 121 123 126 136 143 150 160 154 144 142 142 129 127 116 113 117 108 100 96 89 96 103 100 104 125 142 129 135 156 167 169 176 187 188 191 188 189 189 184 173 158 147 142 136 129 121 111 94 82 87 81 87 80 86 75 67 76 86 90 98 106 127 134 139 138 130 140 145 146 148 145 135 92 57 55 41 23 56 78 52 46 46 40 58 79 86 108 57 43 52 96 112 114 130 123 127 138 138 138 135 132 125 118 114 109 98 98 91 91 90 89 87 96 92 99 103 111 132 133 128 144 160 168 173 184 187 189 187 191 190 187 178 169 153 142 132 117 109 92 98 98 101 84 57 80 74 73 58 97 75 70 94 89 89 125 135 140 143 148 151 148 149 146 136 110 76 64 30 17 69 72 50 44 48 43 57 75 79 100 53 33 51 81 113 115 121 122 119 116 115 117 114 118 121 117 125 123 119 119 111 110 104 95 90 82 81 89 91 98 110 115 122 135 148 159 168 181 188 185 185 189 190 189 179 167 152 133 124 109 105 110 109 113 132 104 78 76 188 79 56 147 161 92 61 79 101 106 126 139 143 148 154 151 148 147 142 119 75 86 45 24 71 75 48 49 41 42 63 68 85 88 45 31 39 75 108 116 112 124 99 89 97 100 100 109 115 119 125 129 129 124 113 110 116 102 92 85 74 61 60 68 83 85 94 110 126 138 159 171 178 179 180 193 194 190 179 166 149 131 127 112 118 123 112 143 175 109 95 30 78 66 57 137 199 160 100 81 93 107 121 132 139 150 154 154 153 149 142 127 88 79 62 45 71 72 46 52 39 48 58 68 78 77 39 35 39 69 106 113 114 110 91 79 88 95 101 110 120 124 122 114 104 106 103 110 112 109 97 106 109 104 93 77 72 82 81 83 99 116 149 168 178 183 194 195 200 193 182 167 142 133 135 136 133 138 168 162 194 140 109 88 69 86 83 157 189 165 126 95 109 114 123 132 142 153 156 156 154 152 146 134 84 84 71 65 71 68 50 53 43 45 61 63 70 60 31 44 33 70 98 111 115 102 84 78 90 97 108 117 119 120 105 88 95 95 71 52 30 84 63 53 112 109 115 119 113 92 86 92 86 94 132 171 187 198 197 197 201 197 181 166 146 141 147 167 155 161 175 158 182 186 137 106 104 105 135 172 161 137 116 108 133 141 141 139 146 158 162 161 158 153 146 142 79 84 59 78 66 60 53 54 46 50 59 58 66 52 38 43 37 61 96 109 114 97 87 81 91 103 111 114 113 87 87 79 69 88 52 73 7 143 127 54 128 187 126 98 127 147 113 101 100 85 122 167 191 198 202 196 200 201 191 172 150 144 161 177 165 139 141 142 149 162 160 156 151 144 135 130 120 114 118 127 145 156 159 161 162 164 170 168 155 159 150 143 85 70 57 83 61 68 51 55 52 51 57 51 58 66 33 50 39 60 97 106 109 100 92 87 95 97 114 114 108 74 71 47 93 130 84 82 36 30 76 82 150 204 174 124 126 145 151 110 111 95 121 165 186 194 199 202 200 198 193 177 153 148 166 179 163 154 143 134 128 130 126 133 121 126 120 116 120 125 127 138 149 160 164 169 170 172 173 172 165 156 152 145 92 56 70 82 70 64 59 61 53 57 65 52 46 57 44 47 43 55 97 107 103 105 103 101 104 107 119 119 103 69 56 78 116 146 128 90 77 68 85 116 172 184 162 134 133 133 151 133 115 114 125 159 184 193 199 202 201 195 194 178 156 160 159 170 159 151 140 123 122 120 117 122 114 123 126 128 130 135 141 151 157 160 163 168 175 174 173 172 165 164 149 149 105 41 66 72 74 73 58 66 54 62 65 48 51 47 42 54 45 49 96 110 102 107 109 112 119 119 121 113 92 66 60 103 122 137 161 137 112 104 129 156 162 169 144 142 140 145 132 135 123 138 139 155 181 193 198 200 200 196 193 181 163 171 164 166 158 147 143 136 130 122 113 112 111 118 121 130 140 148 153 161 161 164 169 176 178 178 175 172 168 164 152 151 112 26 62 77 73 75 62 70 58 62 74 48 57 47 46 47 50 47 86 109 109 102 115 117 121 121 118 104 92 89 76 87 96 109 121 142 151 134 145 143 141 143 133 129 134 138 128 132 145 158 153 152 172 187 201 202 201 198 194 191 163 172 180 178 170 149 154 147 137 142 138 130 128 129 134 141 148 155 162 168 165 173 171 176 181 182 180 176 170 163 151 154 122 17 68 83 80 83 70 78 51 65 84 64 64 48 53 42 52 45 79 109 113 108 113 121 123 121 121 111 112 115 101 103 103 110 104 111 119 117 116 122 122 118 116 120 134 140 128 151 162 170 158 152 169 186 197 200 200 199 197 186 173 167 185 185 183 169 164 161 155 151 152 148 150 153 157 164 163 167 172 175 173 180 177 180 186 183 181 180 166 162 152 155 123 22 85 79 86 91 76 69 57 60 77 76 66 48 51 44 51 52 77 111 114 120 120 135 140 140 147 137 135 135 124 121 115 114 121 129 126 118 118 118 115 117 119 133 143 139 143 168 171 171 158 154 158 182 193 200 200 199 196 187 173 172 184 186 186 182 177 174 169 167 165 164 169 169 167 170 173 173 174 180 181 183 182 185 185 184 182 178 170 161 151 156 124 30 98 79 93 92 88 67 64 62 77 81 63 46 49 39 58 40 69 110 114 127 133 142 151 158 166 163 154 148 142 130 124 113 120 120 118 119 111 115 115 130 134 144 147 148 161 174 175 167 162 151 153 173 193 196 200 198 194 190 173 173 185 188 184 182 186 184 184 183 176 180 181 180 180 179 179 180 178 182 184 185 185 188 188 184 184 176 173 164 150 151 126 38 109 74 107 103 80 64 74 69 85 83 68 52 50 41 56 37 60 105 119 128 139 148 155 163 171 175 167 158 151 149 136 133 133 126 117 123 122 133 131 144 152 156 163 164 168 172 174 173 162 149 150 166 188 195 200 202 199 190 176 168 183 189 186 182 181 187 186 189 190 190 186 186 182 188 183 187 185 176 184 188 188 191 189 188 183 177 172 163 156 150 120 50 107 76 109 103 88 62 64 60 91 82 77 53 48 41 57 30 48 102 115 128 136 149 154 164 171 172 170 165 166 158 153 146 142 142 147 142 145 151 150 160 173 174 171 166 170 168 172 174 162 154 148 165 184 197 201 201 199 193 179 168 181 186 186 185 180 186 188 192 191 193 195 191 188 190 189 188 189 183 185 191 191 184 190 187 183 172 169 162 155 144 118 65 110 69 113 109 98 62 65 65 76 69 79 57 44 43 53 34 34 99 107 131 135 148 159 164 173 171 177 171 167 169 163 160 158 154 158 156 159 172 175 177 180 177 176 166 167 170 173 169 161 155 149 161 183 195 202 201 201 196 185 170 176 181 188 183 183 184 187 190 193 194 197 193 193 192 193 190 192 188 190 191 191 182 188 183 180 167 169 161 154 139 121 84 109 83 122 108 101 74 58 75 65 54 74 63 51 44 50 41 20 85 110 122 129 145 156 168 171 176 180 179 171 171 173 172 170 170 173 176 174 184 181 184 185 178 180 168 166 166 172 167 159 153 154 161 180 194 202 203 202 196 191 179 173 177 181 184 189 184 186 191 191 195 196 194 193 195 194 190 194 192 192 194 188 185 185 182 177 174 170 165 150 138 118 102 106 81 127 110 102 75 68 79 65 51 56 83 56 48 48 46 19 68 103 118 126 139 157 164 175 177 179 182 179 178 179 182 181 185 182 180 182 183 187 185 185 178 181 171 164 166 170 163 157 153 156 166 186 193 203 202 201 199 197 189 177 168 172 179 181 186 191 189 193 193 197 196 195 196 194 193 193 192 194 192 187 189 183 182 178 167 163 160 144 138 118 121 101 82 127 113 113 80 66 89 74 63 50 88 75 57 50 51 29 42 98 110 123 140 147 160 172 178 179 182 184 184 183 183 184 185 182 182 186 185 188 185 185 182 177 174 168 167 164 153 145 151 159 175 184 197 201 204 201 201 199 195 191 172 166 167 169 182 188 192 193 197 197 195 195 195 196 194 192 197 193 194 191 188 186 183 175 168 158 158 142 136 116 127 105 87 125 121 117 80 62 94 82 67 31 76 104 72 56 53 40 26 84 109 123 133 147 153 168 175 179 184 183 184 184 183 184 188 184 184 188 188 187 189 184 183 177 175 170 165 158 150 134 150 169 184 193 195 203 203 204 200 198 199 197 189 171 170 161 171 187 191 195 192 191 195 195 195 195 195 194 192 193 193 189 188 185 178 174 163 156 154 139 138 113 129 103 90 116 123 118 95 47 94 92 66 40 54 115 105 67 53 52 25 73 102 119 129 145 152 161 169 173 182 180 182 184 184 182 188 185 189 186 185 189 186 184 184 175 177 171 160 150 147 136 155 177 189 197 200 202 203 201 202 200 196 199 199 176 179 173 150 180 186 194 187 189 193 193 198 193 194 193 192 189 192 188 186 180 180 169 162 153 153 141 140 114 137 97 93 114 134 115 113 50 88 95 68 48 30 115 118 85 64 51 36 59 92 115 125 140 148 155 162 164 177 176 183 182 184 186 188 187 186 188 187 189 190 183 185 176 175 168 150 152 150 145 163 176 188 198 201 203 203 203 201 202 197 197 199 185 165 186 152 161 182 185 186 186 189 193 191 192 194 193 189 189 190 186 185 179 175 170 156 152 152 139 141 110 148 103 91 126 136 115 119 64 78 93 77 49 21 102 115 92 74 72 52 55 85 104 121 131 146 147 160 161 171 173 181 182 184 186 191 187 186 188 188 186 187 189 186 189 178 158 138 151 146 147 166 174 185 194 197 202 201 202 202 201 199 192 195 187 158 164 172 148 176 180 179 183 188 191 190 191 193 191 188 188 187 183 181 178 170 166 157 153 151 135 144 101 142 108 83 129 139 122 111 100 70 93 75 54 26 80 119 99 86 78 63 53 77 88 113 125 138 143 151 159 165 172 177 180 182 184 189 188 186 191 187 186 188 189 181 184 176 149 125 154 133 141 163 170 180 191 194 196 198 198 204 200 196 187 181 168 148 151 167 155 175 183 182 180 188 188 190 189 187 190 188 185 187 183 176 173 163 162 153 155 150 133 143 99 133 118 79 124 137 131 110 103 86 90 70 54 50 68 117 106 97 87 71 56 69 84 95 118 131 139 151 157 162 171 178 180 181 182 185 185 182 191 188 188 187 186 183 177 170 139 110 150 123 116 142 159 168 182 186 189 187 179 192 190 181 169 150 133 133 145 153 151 172 184 181 180 184 188 186 188 184 187 186 182 183 179 173 168 158 158 151 154 147 137 140 94 126 121 84 117 135 142 125 89 104 93 67 63 66 54 98 114 107 97 81 66 61 83 89 107 118 134 142 152 164 166 169 176 176 179 180 183 183 185 189 186 185 185 177 175 168 140 98 136 126 84 88 114 136 153 168 170 173 148 164 168 151 133 112 101 117 129 135 152 178 182 186 184 183 185 188 186 185 190 184 183 180 173 169 162 155 156 149 154 147 138 144 92 118 132 87 105 127 148 135 94 108 99 62 70 71 58 85 96 108 98 86 72 57 80 87 98 112 121 133 144 154 161 163 171 172 178 179 182 181 184 187 184 186 179 176 169 174 154 100 117 122 96 77 64 71 97 129 139 138 132 134 138 129 108 74 57 60 96 130 166 180 187 188 190 181 183 183 187 181 185 181 182 176 172 166 162 155 154 152 150 143 139 144 83 115 138 102 88 123 149 141 114 93 113 69 76 69 68 108 76 82 93 85 76 49 72 89 90 103 109 123 133 148 153 155 163 168 174 179 181 178 182 184 183 182 180 176 172 175 166 127 107 98 90 75 45 38 52 83 96 101 95 98 103 100 97 97 86 89 116 161 175 182 182 188 190 182 175 180 182 184 182 182 178 175 170 164 156 150 152 149 145 146 144 138 66 108 141 108 82 111 141 143 135 84 112 81 79 63 95 130 103 59 54 69 62 36 50 83 91 102 104 116 124 133 145 150 158 161 173 178 178 181 182 184 178 179 178 174 180 178 179 145 129 94 77 60 49 46 49 52 63 73 67 71 84 99 119 114 121 148 158 171 173 182 180 187 189 187 175 176 179 179 179 177 175 171 166 159 149 147 151 153 146 149 147 136 47 108 146 119 92 108 131 149 139 105 84 93 78 73 121 140 123 92 42 30 31 16 27 84 90 94 107 105 117 107 130 139 153 156 169 174 174 178 181 178 175 169 173 176 184 185 184 168 149 127 93 77 69 56 61 59 57 74 65 83 111 129 131 129 153 171 168 173 179 179 182 183 192 186 184 177 176 170 177 173 172 168 165 156 146 146 152 151 153 147 148 140 26 104 140 137 101 93 134 138 147 117 84 101 81 82 146 151 132 110 90 28 18 28 14 74 90 102 101 102 111 112 120 128 139 150 162 169 172 177 179 176 174 177 172 178 180 186 185 183 178 165 139 116 104 92 85 93 101 113 112 118 136 144 148 151 156 171 170 173 174 178 174 179 186 186 186 187 176 171 175 171 168 168 161 153 147 147 149 152 153 147 146 131 22 81 124 142 111 88 129 123 144 133 93 103 69 110 164 149 124 110 108 30 39 36 9 56 84 99 104 107 102 115 115 122 130 143 154 161 162 169 173 173 173 168 172 176 183 184 184 183 180 176 162 148 123 106 123 127 134 142 139 139 147 158 162 158 163 168 172 180 175 183 174 176 181 183 184 187 180 171 171 173 167 165 160 156 144 150 154 153 153 149 144 117 13 61 117 131 123 101 102 129 130 138 131 89 87 149 159 141 115 118 93 35 68 40 7 31 86 88 103 107 109 111 110 109 119 129 147 153 161 166 167 172 169 166 172 176 179 182 178 183 177 180 177 160 147 124 137 142 148 154 151 145 144 159 174 165 165 174 172 178 174 178 173 174 176 180 182 185 180 174 168 171 169 165 159 156 146 158 153 156 152 148 139 105 6 51 103 124 123 116 93 114 126 131 128 80 126 168 149 124 117 126 74 55 82 41 16 7 84 85 93 108 111 116 112 106 110 122 132 147 152 160 162 171 166 163 170 172 176 181 180 179 176 177 178 168 163 149 141 152 154 163 156 147 143 152 171 174 173 175 177 178 174 174 175 169 173 173 179 182 179 176 168 170 171 165 163 153 149 163 158 155 152 141 139 65 17 36 99 114 129 112 112 94 119 126 125 125 163 163 133 103 136 110 69 82 71 34 26 6 54 85 86 95 112 115 116 110 102 111 128 138 147 153 159 164 162 161 168 167 172 178 176 178 178 180 175 176 166 159 151 158 168 173 167 159 153 152 174 176 174 181 182 175 173 173 173 164 162 161 162 176 173 174 171 169 172 167 163 154 153 161 153 153 144 140 128 28 4 43 80 116 125 128 112 109 99 120 133 164 164 148 120 127 131 101 83 96 64 28 30 18 20 74 83 96 108 114 119 115 105 97 114 132 138 143 151 159 155 163 164 165 169 171 173 175 179 171 179 180 173 165 159 163 171 178 179 168 159 159 159 164 166 173 179 166 172 171 164 157 150 135 145 163 168 174 174 173 171 167 164 156 152 161 154 152 139 140 100 13 13 19 41 96 125 118 123 117 104 100 124 161 145 129 129 140 120 97 107 95 50 33 29 32 7 57 81 84 103 108 113 125 113 96 107 123 131 134 147 154 150 165 163 164 161 163 160 169 171 170 170 181 174 162 159 144 152 163 171 173 162 153 139 138 142 139 147 138 139 135 127 112 112 107 116 142 155 165 169 177 170 168 159 151 152 156 150 146 138 137 51 7 15 18 31 32 118 115 114 125 110 99 100 131 133 139 140 134 115 114 114 82 48 27 34 26 13 33 76 77 84 102 99 126 121 107 99 115 124 134 143 152 149 153 165 165 157 150 147 155 159 160 155 162 157 144 138 122 119 128 136 147 142 133 129 121 121 118 119 115 110 100 100 102 138 158 137 135 145 156 167 175 168 167 158 152 151 155 147 141 129 117 46 6 14 14 28 7 61 128 105 116 127 101 98 123 142 144 130 119 116 126 116 67 41 33 33 23 26 21 52 77 75 102 100 115 127 119 97 110 125 136 144 152 147 146 155 167 148 133 126 125 124 122 119 118 114 119 111 109 111 106 108 115 115 117 111 102 101 96 100 101 107 106 117 140 174 185 177 161 151 155 165 169 165 160 150 148 151 150 143 128 118 89 61 11 17 15 17 21 14 64 133 109 124 115 105 130 135 120 123 118 127 130 99 56 42 43 35 40 28 34 44 63 70 93 102 114 124 122 114 105 125 132 145 153 147 146 150 149 140 115 88 74 72 82 85 78 86 91 85 90 95 92 89 94 90 94 96 103 101 113 124 121 124 122 135 162 179 180 179 174 167 159 164 163 161 153 147 144 145 145 135 119 104 85 72 14 13 16 12 21 27 5 98 126 105 123 123 134 117 105 123 130 137 118 83 56 45 45 48 51 42 51 53 55 65 71 96 104 120 121 115 106 121 133 146 152 153 149 147 141 135 129 115 104 84 75 78 79 80 98 87 93 100 113 110 117 107 120 146 138 141 132 133 132 133 144 159 171 184 175 177 175 173 166 166 159 155 147 143 142 148 140 128 102 104 93 87 18 10 18 15 12 26 30 30 98 122 108 116 112 98 110 128 140 131 94 81 63 43 52 51 57 58 55 62 53 56 63 78 94 112 121 111 111 113 134 143 151 155 151 147 143 146 145 145 149 136 118 112 102 116 124 115 131 140 155 148 151 134 125 154 144 132 127 131 142 149 166 172 176 182 175 177 171 172 169 161 159 146 144 140 143 143 133 113 94 113 106 88 37 5 17 15 11 15 33 25 21 98 111 110 102 116 135 139 136 108 84 74 56 39 56 59 59 60 63 63 60 46 51 64 81 96 112 112 102 110 117 140 143 154 156 151 149 153 149 155 161 163 149 137 130 128 131 129 128 154 159 145 149 138 130 129 138 133 135 141 146 157 173 174 172 180 177 174 178 169 163 161 161 144 144 139 141 138 121 89 115 124 110 91 52 8 14 12 16 16 19 38 14 33 70 96 122 139 138 135 102 89 78 71 53 45 66 59 59 61 65 63 45 34 27 44 71 78 92 112 92 92 111 123 144 148 154 155 157 157 160 162 163 164 159 148 144 138 134 132 131 143 140 149 138 141 137 134 133 135 137 142 156 164 168 167 168 170 169 172 172 169 163 166 159 148 142 141 136 128 95 102 123 130 113 99 67 21 13 16 14 14 11 36 29 26 35 47 131 134 125 113 86 86 85 71 52 53 67 63 61 63 67 46 38 21 23 24 46 66 77 89 97 89 94 110 131 140 150 155 161 160 155 160 162 159 159 151 142 142 137 135 133 132 134 137 138 132 131 130 134 134 140 148 157 159 160 166 165 166 167 169 168 165 162 168 161 145 140 141 130 109 95 120 131 131 115 107 73 35 17 16 15 14 16 21 34 25 22 25 121 118 120 93 86 87 89 78 58 55 67 61 59 60 47 33 30 19 19 26 16 44 60 77 87 87 86 98 112 134 145 158 167 161 152 144 155 153 157 156 144 139 137 133 130 129 128 123 118 116 123 128 128 127 137 143 150 153 157 161 164 159 161 164 162 162 164 163 159 142 141 133 119 95 112 126 134 130 121 108 84 45 21 15 15 14 17 17 28 27 19 26 112 104 102 89 85 88 101 78 63 60 60 62 59 40 31 36 27 21 20 22 15 14 53 59 73 77 83 80 98 119 136 153 163 165 162 151 140 146 149 156 150 140 136 132 122 125 115 117 113 106 113 125 125 130 132 141 147 152 155 159 162 156 159 155 158 162 166 166 156 138 139 125 96 107 124 134 132 128 121 110 99 53 29 18 15 15 14 18 22 28 22 23 93 81 92 90 75 99 87 71 62 64 59 62 39 30 25 37 24 19 21 16 21 10 55 58 57 62 73 81 81 101 124 138 152 159 161 156 145 138 140 142 143 136 137 130 127 125 122 126 123 116 115 117 132 137 139 147 153 156 155 162 163 159 155 160 164 174 172 166 147 137 125 95 106 121 134 136 137 127 127 113 102 64 37 21 16 12 18 17 23 21 21 29 76 81 97 74 80 93 75 60 62 63 59 47 33 29 23 32 20 19 19 16 17 5 41 77 56 54 63 75 83 90 109 129 141 156 155 146 141 132 131 133 135 135 134 120 124 136 131 138 128 127 124 125 134 144 151 157 157 163 166 166 168 163 163 171 176 179 169 160 143 129 102 95 120 134 138 135 136 129 128 117 111 73 43 27 20 14 19 17 22 25 13 26 69 78 86 57 75 77 61 58 59 60 51 29 25 29 26 34 13 20 22 16 17 4 34 75 70 56 49 61 72 82 101 113 135 153 157 143 133 132 126 130 135 136 138 113 128 138 141 146 143 139 140 133 138 145 163 170 167 170 169 171 171 173 177 180 179 176 169 155 136 108 91 114 131 139 135 137 134 131 131 120 114 86 51 33 21 16 20 18 25 27 10 22 69 71 60 65 72 59 59 58 58 55 36 22 23 24 27 30 15 22 19 17 15 5 25 73 73 63 55 41 61 72 86 104 119 148 156 155 152 149 136 135 138 143 149 145 151 153 160 158 158 159 156 151 151 158 178 180 177 177 176 177 173 176 182 181 179 169 165 146 114 85 108 131 132 143 142 138 134 131 129 125 119 95 53 41 26 17 23 16 27 26 10 22 63 60 54 66 65 55 59 48 54 40 26 29 20 24 33 20 16 21 21 17 15 14 20 73 76 66 63 53 43 58 72 86 109 132 160 172 177 171 161 157 152 156 159 158 162 170 173 173 174 173 175 173 176 173 180 183 178 178 177 179 178 177 175 179 176 170 154 128 86 91 125 131 138 142 142 139 135 130 129 128 116 102 62 43 39 20 23 22 27 25 10 18 57 57 58 62 55 51 52 42 43 34 25 27 25 26 27 22 17 20 17 19 15 12 6 70 75 71 65 59 52 47 52 65 80 110 141 159 177 179 178 176 172 165 163 161 166 171 171 182 183 175 187 185 187 188 181 185 178 182 176 174 169 171 166 167 171 159 140 93 87 112 128 137 132 143 142 137 136 131 130 129 117 111 65 57 47 18 26 24 31 23 15 17 55 57 60 55 48 47 43 47 36 33 26 28 29 27 23 26 20 20 18 19 14 16 5 64 73 74 68 60 58 53 46 47 55 80 112 141 163 172 180 177 180 175 175 172 169 178 175 184 190 183 186 186 185 188 181 179 180 180 174 169 167 166 168 160 162 149 109 85 105 124 128 143 120 137 143 135 136 136 133 128 121 111 74 70 50 23 26 30 35 25 11 23 55 54 58 44 47 51 43 48 31 35 27 28 27 28 28 23 21 17 18 18 18 15 2 56 70 75 70 66 57 56 50 45 41 53 75 106 137 152 164 167 171 176 177 177 172 175 175 183 185 184 182 181 176 171 173 170 172 175 165 163 159 161 159 147 142 122 80 102 115 130 135 137 136 141 144 134 138 136 129 127 121 114 81 82 55 22 29 36 33 30 14 23 52 55 66 38 55 44 53 42 33 30 32 32 30 27 29 27 19 15 25 18 17 17 4 38 71 73 74 67 59 57 56 52 47 40 45 58 111 135 152 146 139 161 165 173 172 165 163 169 168 170 163 159 155 151 156 159 164 164 150 148 151 149 141 129 113 85 97 112 120 136 135 139 138 143 143 138 136 133 130 129 122 116 86 92 64 24 31 40 36 27 17 28 55 56 52 46 51 51 51 38 35 31 30 32 37 27 31 32 21 17 21 19 23 17 7 28 69 67 70 72 61 56 58 54 49 51 39 35 63 103 129 133 135 137 155 165 161 157 157 155 154 159 157 148 145 140 143 152 151 147 137 139 140 130 123 108 85 90 108 117 121 134 137 139 142 143 142 135 141 131 133 128 124 112 90 98 58 24 40 39 37 22 19 33 47 61 44 57 56 48 46 34 37 37 30 39 32 30 31 29 25 17 21 20 26 17 12 17 63 70 71 75 64 62 54 54 56 48 50 41 38 52 90 108 123 134 143 150 146 141 143 144 133 141 141 145 136 131 128 129 133 131 125 120 123 105 94 78 91 109 112 123 123 131 139 138 142 141 139 137 139 134 133 125 125 109 94 99 46 30 43 36 35 25 22 35 53 58 58 60 48 49 53 44 34 38 35 35 45 27 37 32 28 16 22 23 25 23 23 9 53 74 73 71 69 64 59 55 58 48 50 52 46 39 45 69 89 112 125 130 136 128 132 128 126 126 125 123 127 120 117 112 108 113 105 98 91 78 74 91 101 112 120 124 130 135 135 139 143 139 139 140 137 134 129 125 118 111 97 89 34 34 43 35 35 20 35 41 65 51 50 49 53 56 45 44 37 38 39 39 37 40 38 38 31 18 15 25 23 26 25 8 38 71 75 69 74 66 60 56 55 53 51 47 50 49 46 41 44 65 87 96 110 106 103 101 105 106 107 108 99 97 86 79 74 78 65 70 74 77 89 100 108 113 120 130 129 130 135 143 136 137 141 137 138 129 130 122 123 104 100 62 29 35 40 37 31 23 36 49 62 53 61 51 69 52 38 35 33 43 38 39 31 44 43 34 33 29 15 24 27 27 28 13 24 68 74 69 76 67 65 56 58 49 51 48 50 48 48 49 38 43 46 53 69 76 74 74 74 77 74 70 64 55 54 58 59 66 64 74 82 85 102 110 113 112 126 127 130 129 137 140 138 137 141 138 133 131 128 122 115 107 90 31 37 40 34 39 24 25 42 39 48 69 62 62 63 40 46 35 33 43 36 46 31 41 37 36 36 39 15 23 26 27 26 27 12 57 75 71 77 72 66 60 54 53 56 45 50 54 47 51 44 47 43 40 44 41 52 46 50 49 51 45 46 51 58 62 63 66 66 83 89 95 109 110 115 112 122 123 130 130 134 139 140 140 138 135 133 133 129 121 115 101 57 24 41 38 33 36 21 31 45 43 55 65 46 62 46 47 41 38 32 45 46 38 34 46 48 35 38 47 25 14 29 32 30 28 20 34 76 73 74 77 67 67 56 57 57 49 49 57 47 47 50 47 48 42 43 42 45 42 45 43 50 45 55 61 69 65 69 70 78 95 94 109 109 108 112 119 119 127 133 132 133 139 136 142 136 132 131 130 127 119 109 86 27 36 38 34 34 29 22 40 42 53 