P2
92
112
255
111 106 106 110 109 112 109 109 112 111 112 111 113 112 113 110 111 111 109 93 73 82 75 96 99 116 115 118 128 138 144 124 116 122 117 125 116 137 140 124 114 112 138 159 130 132 106 130 119 75 110 118 56 49 80 69 64 78 80 72 63 64 73 45 46 47 49 52 63 103 111 114 113 113 111 115 112 110 113 111 109 111 110 113 113 110 109 108 110 111 108 107 108 107 108 107 106 115 107 111 109 111 110 111 111 112 112 109 112 103 95 104 93 99 98 99 99 109 125 130 131 145 165 162 130 127 133 128 115 117 121 129 149 118 134 157 137 133 110 141 143 106 144 111 58 65 77 87 86 98 80 77 69 75 70 60 60 58 52 50 50 63 70 104 112 112 112 110 112 112 111 110 113 110 113 109 112 107 113 109 108 113 110 105 108 109 108 111 111 111 111 109 108 115 107 112 112 110 111 108 98 99 92 86 97 76 74 78 81 89 122 130 150 145 142 145 130 136 136 133 139 100 121 99 155 140 135 140 150 132 123 130 130 136 142 83 78 95 92 99 88 91 86 84 83 87 70 70 76 70 69 63 58 50 57 54 88 115 110 114 112 112 112 113 113 110 115 111 111 109 109 110 108 111 111 112 108 107 111 111 108 115 110 112 109 115 111 113 108 111 105 96 93 90 72 77 91 103 95 104 114 120 117 109 141 156 125 128 132 122 126 149 132 113 118 107 137 161 139 127 143 150 135 128 118 145 131 74 106 110 117 106 97 88 87 82 79 79 70 73 75 68 76 75 75 70 62 58 52 86 115 110 112 113 109 112 110 113 111 111 113 109 111 111 110 109 109 115 111 104 113 108 108 110 114 109 112 109 114 112 100 101 81 68 57 70 79 90 109 122 135 136 126 129 118 108 116 143 128 132 131 135 116 151 147 98 125 101 147 172 141 114 126 167 137 121 111 132 121 82 113 121 113 121 102 93 90 84 81 72 64 68 69 69 78 73 73 83 75 56 68 48 82 113 111 113 111 111 107 115 110 114 109 112 112 104 113 111 111 111 107 110 108 110 109 108 109 110 112 111 106 85 86 53 62 68 77 85 97 104 106 108 119 130 138 132 131 133 112 115 127 131 113 136 123 129 143 117 103 107 137 162 132 95 113 155 155 115 112 123 116 89 110 105 132 123 111 92 88 88 70 63 65 61 64 60 73 81 90 71 81 80 60 58 48 60 118 111 111 110 111 111 110 108 113 112 112 109 115 109 110 109 108 108 110 108 113 106 112 110 109 107 101 78 55 43 70 87 85 90 84 83 82 105 121 145 157 157 144 140 134 124 120 122 132 121 125 118 128 122 103 91 131 151 123 99 109 137 147 115 107 132 106 98 104 120 135 125 115 104 96 73 68 66 64 77 74 70 67 54 81 84 80 74 80 64 54 45 66 117 111 111 114 108 118 109 112 108 113 111 115 105 113 107 111 109 110 110 109 109 109 103 103 100 76 63 55 68 78 87 88 82 86 99 115 120 124 136 144 133 126 113 104 105 126 109 117 132 110 115 124 112 119 78 122 146 130 95 117 125 142 109 103 129 108 103 126 120 127 110 108 108 101 76 85 67 72 73 74 80 85 70 73 59 82 71 69 79 70 67 36 72 114 110 112 111 113 112 111 110 108 111 113 107 112 108 109 109 108 110 109 104 105 105 102 78 49 52 58 80 86 84 76 100 114 124 149 152 163 157 178 170 157 137 112 96 91 124 113 123 121 112 120 123 100 94 119 139 138 95 118 124 144 112 113 123 101 115 114 112 110 114 120 119 111 100 96 88 78 82 85 82 85 88 90 70 60 64 64 66 67 70 69 24 89 114 110 112 110 114 111 113 110 111 110 110 109 109 109 109 109 106 110 105 114 103 84 49 45 67 86 96 105 126 136 139 140 141 148 139 137 124 140 136 138 129 110 102 84 86 118 119 102 102 107 116 99 99 116 132 146 113 115 125 128 119 121 109 105 94 92 101 134 143 131 124 115 109 104 96 89 83 86 88 86 85 95 90 89 61 67 69 50 58 74 72 27 89 110 111 110 113 110 112 106 111 108 109 111 108 110 108 108 113 106 108 123 81 68 81 80 90 111 118 127 124 148 150 160 173 176 177 168 125 105 107 99 109 101 93 86 88 82 115 107 97 106 99 104 101 117 135 147 119 112 117 127 119 130 100 92 85 108 136 145 144 139 130 106 114 98 99 94 87 92 87 91 90 91 93 92 87 67 66 78 51 43 72 63 34 92 115 109 113 107 114 108 110 113 107 109 111 108 110 107 108 106 117 109 54 63 86 105 103 95 100 90 87 112 109 134 127 125 144 161 143 125 116 97 91 94 100 84 81 75 84 117 84 97 97 105 99 139 146 136 121 123 120 124 115 140 89 90 115 134 143 144 149 148 147 125 116 113 109 102 108 105 106 99 102 110 109 102 91 93 78 74 77 51 39 66 63 28 111 110 110 110 113 107 109 114 109 110 113 105 108 110 101 112 117 77 64 96 107 105 87 65 71 85 76 89 106 121 121 107 93 93 96 95 103 107 95 89 89 92 77 87 77 98 97 93 108 110 118 138 146 131 124 132 135 122 126 131 92 101 128 141 142 151 150 154 163 145 136 127 113 115 112 111 114 126 124 123 123 87 112 96 94 84 84 80 62 39 57 46 54 110 113 108 111 110 110 114 111 104 113 111 105 109 108 117 94 83 99 103 102 87 85 86 81 99 98 79 95 105 102 112 111 107 93 104 89 90 85 96 93 96 83 97 101 98 105 105 120 129 127 129 144 138 127 137 147 122 138 123 105 117 130 120 137 153 155 174 174 162 147 123 125 119 110 115 111 114 126 134 131 109 109 88 106 97 91 91 86 71 32 59 46 65 113 112 108 108 113 112 107 108 108 109 107 110 117 106 81 98 118 105 83 96 90 88 105 115 141 140 129 115 113 98 97 111 112 99 93 89 88 93 106 109 111 110 119 120 119 128 128 137 133 142 142 145 120 136 154 138 133 127 119 130 121 137 161 173 167 177 167 147 132 125 115 118 120 131 118 124 122 108 114 113 110 114 101 101 88 93 80 87 75 34 46 46 87 114 110 113 110 106 109 111 108 111 107 101 113 100 90 107 89 78 70 86 90 94 85 102 101 116 108 122 138 121 115 115 120 115 116 114 108 109 114 111 126 134 139 164 141 147 144 152 153 146 156 149 132 152 161 154 136 145 138 125 140 151 155 154 163 149 166 160 151 153 144 145 136 126 112 119 115 119 113 108 101 107 115 104 85 81 89 89 79 73 40 47 43 93 112 107 108 108 113 109 110 110 105 107 109 100 107 90 77 68 81 87 96 80 87 92 97 114 124 122 131 129 118 121 132 128 125 126 123 125 128 131 135 148 160 175 169 171 167 168 163 168 172 157 151 165 160 145 142 148 132 139 143 151 154 156 163 168 173 174 165 158 146 129 128 127 122 114 119 124 110 122 117 115 118 107 97 93 77 99 87 89 56 55 40 47 90 110 108 111 109 110 108 109 105 110 102 96 102 89 94 111 114 129 115 109 103 99 105 111 117 123 121 126 119 124 137 132 123 120 121 128 140 145 150 171 182 188 185 186 187 178 176 184 183 176 175 177 171 159 145 142 132 141 148 152 153 167 184 178 184 176 158 156 140 130 116 112 106 110 106 110 111 110 115 110 118 115 104 111 96 90 84 90 73 57 60 41 36 93 108 110 111 109 110 108 105 113 90 104 91 104 113 120 123 128 115 120 130 115 98 95 106 110 109 122 119 126 138 137 122 121 127 141 153 161 172 187 192 199 196 193 195 195 191 191 190 193 191 191 175 164 152 142 138 137 148 148 157 163 155 153 147 160 149 138 137 122 120 107 114 109 101 99 92 90 85 97 99 103 89 101 95 103 83 86 77 82 53 54 43 40 93 110 111 109 109 109 101 102 84 88 84 87 102 112 123 142 131 106 102 117 110 113 107 102 109 115 111 122 137 125 128 140 156 162 177 188 191 199 200 205 203 202 203 203 200 202 200 202 203 198 187 176 157 150 151 154 151 153 152 150 148 142 141 143 138 125 117 120 104 93 88 95 91 93 80 77 72 65 80 72 71 79 92 105 106 80 87 92 83 69 48 41 55 105 112 106 111 107 106 95 95 98 105 102 120 126 125 123 106 91 96 100 101 106 107 105 106 105 105 124 135 141 146 167 177 190 197 201 203 203 205 207 205 206 206 204 205 205 204 206 204 202 196 191 184 171 172 173 169 165 164 164 161 156 154 153 147 141 137 126 120 106 96 92 93 95 79 87 103 80 77 81 78 101 114 120 124 110 100 91 88 68 67 49 49 79 118 111 112 110 107 116 117 132 138 141 157 145 131 118 104 101 102 90 84 89 98 98 106 108 115 143 150 161 173 185 195 200 202 206 203 204 207 207 205 208 207 204 205 205 204 204 206 202 201 195 189 189 184 179 183 177 174 169 173 171 173 164 155 153 150 143 132 122 117 106 92 94 87 81 80 97 80 82 100 110 121 122 121 124 115 96 87 81 70 63 42 56 113 112 111 127 119 124 145 147 141 137 136 110 98 91 84 103 99 73 84 91 100 106 111 117 137 166 177 176 193 196 200 204 204 205 205 205 207 205 207 205 206 205 206 204 204 205 203 204 201 202 197 187 187 185 181 176 164 172 175 178 180 179 168 171 172 165 147 138 125 123 109 97 88 93 70 79 95 81 101 94 113 120 109 106 122 118 100 85 82 62 58 36 106 111 105 116 133 150 154 137 133 128 113 111 104 94 102 91 80 78 89 97 119 125 134 144 167 183 185 187 192 200 203 203 203 206 206 204 207 207 205 206 206 206 207 205 203 203 203 202 201 203 203 194 189 196 193 190 167 171 175 169 175 179 176 177 181 182 172 161 143 137 124 116 102 97 80 74 84 57 70 85 85 126 118 97 86 105 122 95 87 82 57 44 94 107 109 133 142 139 155 121 103 101 83 79 98 102 74 84 84 91 107 115 145 150 166 172 180 186 188 193 196 199 201 204 202 204 206 204 205 204 207 204 204 204 204 207 205 205 202 201 199 201 201 199 199 201 197 192 196 197 194 182 172 175 176 181 184 184 181 178 164 148 138 129 113 108 89 83 67 71 60 90 90 100 107 75 95 70 92 113 103 82 60 54 64 108 106 123 124 134 132 104 84 81 77 63 83 78 56 81 95 107 114 142 167 184 187 188 181 190 191 194 199 199 202 202 203 202 204 205 203 203 204 205 201 204 202 205 203 202 203 201 200 202 201 200 199 200 199 193 198 201 201 200 192 190 181 182 180 181 180 179 176 164 148 136 123 120 108 95 65 74 63 70 98 97 106 77 60 91 89 86 105 83 74 68 47 102 108 114 123 109 122 105 84 85 76 88 97 86 83 98 106 113 145 167 192 190 194 189 189 193 192 194 199 199 200 202 201 202 203 204 204 202 205 204 203 203 203 204 205 203 202 202 201 200 202 198 200 199 201 201 200 201 202 200 199 197 194 192 186 181 176 175 174 168 158 145 138 134 124 105 87 71 70 57 93 102 104 86 60 57 89 99 96 92 84 74 45 84 102 129 133 110 104 94 100 103 95 103 112 96 100 107 110 131 162 176 192 190 195 194 191 193 192 194 197 198 201 200 201 202 202 204 204 202 205 204 206 204 204 204 203 202 202 202 201 199 199 198 200 201 199 201 201 201 201 201 201 197 196 197 193 189 178 171 172 166 160 161 149 149 140 117 110 86 79 67 72 96 109 105 97 78 77 95 98 90 82 85 57 50 87 127 114 101 106 113 91 101 74 80 104 101 100 112 119 148 168 180 190 191 191 193 190 192 193 189 196 197 198 201 201 202 202 203 204 203 203 203 205 204 202 204 201 200 200 200 201 197 191 195 201 202 201 201 200 201 199 201 201 198 196 196 194 191 183 176 172 163 158 173 159 156 151 137 119 101 75 77 54 74 88 99 117 117 104 98 98 90 85 88 60 50 64 100 126 126 122 105 104 96 91 99 102 97 93 113 131 162 176 176 188 189 189 191 191 189 194 190 190 192 196 197 199 200 201 202 202 202 201 202 201 202 202 203 202 200 198 201 199 199 197 199 197 200 201 200 195 196 198 197 196 199 197 195 194 189 185 184 178 169 169 173 176 161 157 150 133 118 90 76 74 65 67 70 80 111 120 121 121 111 81 84 74 50 46 135 130 100 116 106 88 90 116 103 95 95 107 120 150 170 176 177 181 188 190 192 188 191 190 191 187 192 190 194 196 198 200 200 200 202 201 201 200 201 201 202 199 200 199 201 199 197 199 195 196 200 196 196 192 191 190 194 194 195 193 193 192 188 185 186 179 176 173 178 178 174 164 159 143 129 104 83 76 76 53 55 62 96 125 121 129 133 109 81 93 55 46 116 105 100 100 91 97 115 123 101 109 112 101 128 159 171 171 181 182 188 191 193 187 190 191 191 190 189 191 193 196 193 196 197 198 199 200 200 200 200 200 201 199 196 200 199 198 199 198 198 198 197 197 194 194 193 192 191 191 192 191 187 189 186 183 182 181 180 180 178 182 179 169 160 151 135 112 96 78 65 82 68 65 70 108 100 103 118 121 118 74 72 50 115 97 98 85 91 115 120 112 116 100 94 105 127 152 172 171 177 185 190 191 192 188 187 189 188 189 188 187 193 192 192 190 196 194 199 199 199 199 201 198 200 196 197 196 197 195 198 199 199 197 196 197 195 195 192 193 190 191 188 188 183 185 185 181 183 181 180 182 183 181 182 176 165 153 141 120 105 86 64 44 79 82 65 69 106 113 99 111 122 77 86 37 115 99 91 79 117 143 107 110 87 87 97 108 127 155 170 176 174 185 186 190 192 189 186 188 185 188 186 188 188 192 187 193 191 193 197 196 200 199 197 198 198 195 197 196 196 195 197 196 197 198 194 198 198 194 191 189 191 188 186 184 182 185 183 182 183 182 181 185 189 187 184 177 165 159 144 132 112 90 76 41 50 85 80 64 82 103 104 97 102 89 82 43 112 90 98 112 127 138 113 102 90 96 100 116 131 153 169 176 177 178 183 188 192 189 185 189 187 187 185 185 188 186 187 190 190 191 195 197 195 196 193 190 192 196 197 197 195 195 196 198 196 196 195 196 193 194 193 190 188 188 185 188 182 186 183 183 183 182 186 188 190 187 183 182 165 160 152 140 113 100 73 58 49 73 68 67 75 83 80 103 103 86 89 55 101 103 111 111 132 127 108 110 109 109 117 125 138 154 164 170 174 176 179 187 190 187 185 187 186 185 184 186 187 185 188 188 191 190 193 194 194 194 193 189 191 196 195 199 198 198 197 200 197 196 194 197 194 194 189 190 186 188 186 182 185 190 188 187 187 187 191 188 189 187 181 181 166 160 155 149 123 97 85 59 63 66 74 55 72 81 90 76 98 88 84 84 76 96 109 106 119 119 102 102 99 105 118 126 140 158 157 168 175 169 176 184 188 187 186 186 185 185 187 186 185 183 180 188 189 188 190 194 192 194 195 191 192 196 196 197 201 199 200 201 198 199 198 196 197 196 192 190 182 187 190 189 191 190 190 192 191 190 189 187 188 187 180 180 167 159 150 150 135 107 88 72 61 70 76 74 66 80 100 92 93 66 75 89 86 91 98 100 111 114 95 84 106 111 112 130 143 158 166 165 171 169 172 182 183 186 186 185 181 189 184 188 185 186 184 189 188 190 187 194 195 197 195 195 193 196 199 198 200 201 200 200 201 199 199 199 199 197 196 190 179 186 194 190 192 194 191 194 191 188 186 186 183 186 180 182 166 157 153 148 144 123 93 67 70 67 77 81 71 86 97 94 94 72 59 73 87 94 91 112 107 112 93 98 115 104 109 130 145 157 159 165 159 164 177 177 182 184 184 187 182 184 185 190 186 190 190 188 191 190 194 194 196 197 195 197 195 198 199 198 200 199 201 200 199 200 199 199 197 198 196 193 192 193 197 191 191 194 195 194 192 187 189 188 185 187 182 177 166 159 154 149 145 129 110 70 50 71 87 89 81 68 85 104 95 105 38 64 92 88 89 89 104 92 108 117 96 92 120 133 151 155 157 159 163 166 173 179 183 184 183 186 187 188 186 188 190 191 194 192 196 194 196 196 199 199 199 198 200 199 200 201 201 201 201 201 201 197 200 198 198 199 196 199 197 196 199 197 196 195 196 192 195 194 189 189 189 184 183 175 167 153 150 150 145 140 114 94 39 45 68 92 86 84 70 90 104 93 42 71 82 86 78 74 102 76 115 107 91 115 128 133 153 157 157 157 159 167 169 177 182 183 181 186 187 188 191 192 192 189 195 195 196 197 198 200 201 201 201 199 203 200 200 201 201 201 201 200 201 198 199 196 197 200 199 199 199 198 197 199 198 196 195 195 196 194 190 189 191 185 185 178 169 155 150 147 142 138 132 97 59 19 65 87 99 76 95 69 84 95 54 69 64 68 73 79 86 82 129 87 105 96 109 132 156 159 160 157 157 166 168 174 184 183 183 188 186 187 192 190 192 190 195 195 196 198 200 201 201 201 201 199 200 200 201 199 198 200 200 200 200 200 199 197 198 200 199 201 199 200 195 200 198 196 194 195 197 196 192 193 193 189 186 183 175 159 154 145 144 139 138 109 67 19 35 87 93 92 68 81 58 98 50 58 66 65 70 82 64 110 117 91 93 87 100 125 147 157 161 160 158 161 167 173 178 185 184 186 184 184 192 192 189 191 191 197 196 196 200 199 199 201 201 197 195 195 198 199 192 197 197 199 198 199 199 198 199 200 200 200 199 197 196 196 196 196 195 194 199 196 193 194 196 192 190 185 181 167 151 147 142 140 135 120 75 37 24 55 99 91 88 52 66 86 55 45 67 71 64 77 70 131 103 106 82 69 101 123 145 160 162 160 160 160 165 173 178 182 188 188 185 187 191 192 192 190 190 193 193 193 198 199 196 198 200 197 198 192 192 194 195 192 193 198 199 195 199 196 199 196 199 198 197 195 191 189 195 195 193 196 198 197 195 194 196 193 191 189 184 175 156 153 140 141 128 128 85 38 24 55 91 100 94 55 55 80 80 34 79 73 87 92 92 117 90 103 64 63 96 132 145 159 158 161 157 166 166 173 182 183 189 188 190 188 189 191 187 190 189 192 194 191 193 195 190 196 196 191 195 195 193 195 192 192 195 195 196 192 192 194 197 195 195 193 191 192 189 189 192 191 190 192 193 196 194 195 194 192 194 189 184 183 160 153 145 137 129 124 96 33 37 42 87 95 77 66 45 69 62 28 79 77 79 75 99 101 94 99 50 59 92 133 148 153 156 158 160 164 169 175 181 185 191 190 191 192 192 191 191 185 188 189 192 189 188 189 187 188 190 186 192 190 189 192 189 189 188 190 191 191 189 188 188 188 188 186 186 183 184 184 188 186 184 184 187 188 187 188 189 188 188 188 185 181 169 153 149 142 126 125 97 42 34 50 87 92 75 61 46 65 57 20 85 73 59 74 92 88 91 93 37 60 99 139 144 151 152 157 163 169 170 181 180 184 188 190 190 191 192 191 187 182 174 184 182 182 165 176 174 172 177 180 182 188 183 184 184 184 188 187 181 188 185 182 178 174 176 168 164 165 170 171 171 172 168 162 158 153 159 162 162 170 167 173 180 178 173 153 148 138 130 128 98 43 33 59 82 83 74 59 41 69 56 20 80 67 58 76 84 71 98 73 38 65 101 144 144 150 153 153 163 167 168 179 179 178 183 180 176 172 174 161 157 150 138 136 144 143 134 136 147 149 148 161 167 180 179 177 177 177 184 182 179 180 174 174 167 157 163 136 131 135 125 123 124 122 122 118 114 113 121 127 125 139 142 137 150 159 166 158 143 140 129 133 96 42 50 52 75 83 54 53 31 94 55 19 80 53 61 75 76 63 97 63 26 71 106 151 141 153 151 151 159 164 167 170 167 156 159 157 143 142 136 127 120 106 99 92 98 102 92 109 106 129 133 135 148 159 169 166 172 170 173 168 168 171 166 163 149 133 132 111 107 96 97 89 82 86 83 81 83 82 85 91 102 108 108 106 115 121 134 136 128 141 128 129 100 42 47 56 63 75 53 19 28 77 69 24 94 71 46 76 69 70 101 51 28 59 102 148 142 150 153 148 155 157 147 145 146 140 134 124 125 106 105 102 97 85 76 78 79 79 88 83 92 107 116 106 128 139 149 145 161 159 166 162 165 163 158 146 126 115 101 99 98 86 87 81 63 75 65 63 61 73 82 91 90 86 100 103 98 102 108 117 103 128 134 127 108 35 58 53 56 74 35 14 26 66 41 32 101 73 63 66 75 76 84 38 26 58 101 144 146 146 153 145 132 119 127 125 129 126 117 117 110 104 89 86 83 74 67 76 73 77 73 86 81 98 109 102 106 120 137 132 146 157 164 160 160 147 147 135 112 102 97 93 92 89 88 74 79 71 70 75 75 85 91 95 83 91 96 97 93 95 105 103 108 116 134 129 113 42 51 58 38 75 30 16 35 54 32 34 95 82 70 63 68 77 56 31 34 56 103 145 143 144 150 134 105 105 113 112 105 111 108 103 98 99 94 96 87 88 82 76 77 74 82 84 89 92 97 102 102 110 124 134 140 152 160 158 150 144 141 125 112 103 98 97 90 85 81 73 68 60 58 70 67 77 78 83 87 94 99 98 95 99 102 102 108 110 128 126 119 54 49 61 28 68 31 16 46 41 41 25 88 90 63 74 65 64 42 36 37 56 107 143 143 148 139 123 101 103 106 99 104 97 102 99 87 90 86 76 74 69 62 54 51 42 53 62 76 82 86 94 99 105 112 127 138 154 159 154 154 146 139 130 114 108 96 88 82 68 57 47 43 43 48 47 44 53 51 50 63 67 81 92 94 100 102 104 107 117 133 127 125 67 42 56 27 59 26 20 59 27 40 29 92 91 70 60 65 57 42 34 44 64 111 134 147 145 136 111 103 106 108 100 102 95 88 83 64 67 54 65 66 72 60 62 62 53 45 36 44 64 72 72 86 94 101 120 139 152 159 145 155 150 137 128 114 104 85 76 67 52 40 48 50 48 36 35 28 47 35 44 40 60 56 56 87 97 102 108 115 127 132 129 128 84 35 52 36 30 24 35 53 21 44 30 111 82 78 65 52 53 48 44 41 64 110 133 139 143 127 117 103 104 106 101 92 87 64 51 55 59 51 48 26 46 31 40 40 62 60 61 39 56 61 68 73 79 91 123 141 149 160 160 161 161 144 128 114 102 84 63 58 53 50 69 79 48 24 51 48 35 35 94 68 34 58 63 57 91 104 112 117 130 131 132 133 95 50 57 26 25 17 44 42 28 43 34 128 102 81 74 59 49 43 55 37 66 112 136 135 144 133 128 112 102 97 94 81 63 50 58 47 61 49 37 21 35 34 41 38 102 69 53 64 59 59 62 75 67 86 127 163 175 188 182 180 176 155 128 117 97 85 70 68 70 55 91 112 60 40 25 30 37 32 123 123 56 46 52 67 81 96 113 118 124 133 127 132 110 56 63 46 24 14 54 34 37 37 34 123 106 94 100 77 41 47 50 41 64 111 137 133 133 135 134 127 111 95 87 73 57 49 53 36 76 85 47 33 31 29 37 69 119 104 62 50 73 72 70 69 67 86 140 170 186 194 192 179 186 164 135 115 103 95 98 83 79 75 99 123 83 67 42 39 47 78 123 118 78 70 64 64 78 92 106 117 126 131 129 135 113 65 62 46 24 29 49 35 41 37 39 122 120 106 114 90 49 49 49 43 71 115 132 136 125 139 129 130 124 97 82 61 65 59 54 55 78 111 83 62 43 50 58 99 117 94 70 73 67 85 79 74 76 103 149 178 184 196 198 191 186 179 146 115 106 111 121 94 76 90 89 99 106 89 72 72 72 114 105 87 88 88 94 101 83 88 101 113 125 128 134 133 124 62 66 48 29 39 36 40 36 34 42 99 138 112 118 89 60 47 44 51 74 116 135 134 135 128 121 115 106 89 80 83 88 83 96 84 86 105 139 142 114 102 112 115 108 96 85 76 76 88 94 89 106 136 157 176 182 197 195 195 186 177 158 116 109 129 126 112 94 85 87 83 91 98 96 90 93 93 86 92 103 108 115 112 123 116 117 124 131 129 136 134 133 53 76 41 31 45 39 37 41 36 47 89 131 115 109 86 62 43 47 53 71 123 139 139 147 138 133 130 124 130 131 133 128 116 115 104 97 94 92 106 107 105 103 102 99 94 92 85 93 97 113 126 143 157 163 174 186 193 196 198 188 175 156 125 124 127 123 112 90 79 66 78 75 86 87 91 87 95 100 101 105 106 108 112 118 127 131 135 140 135 141 136 134 42 68 44 52 35 42 39 42 49 40 92 117 113 106 96 67 39 53 42 62 128 139 144 150 151 146 148 157 163 162 153 148 139 122 114 105 112 112 99 100 97 86 93 85 84 87 91 110 114 140 156 168 167 166 172 180 195 198 196 193 184 163 122 137 137 129 110 99 87 77 71 66 76 72 81 84 93 96 101 97 107 116 118 120 124 132 137 138 137 139 139 135 37 57 51 41 34 42 39 51 47 45 93 108 129 97 103 73 42 55 33 57 129 136 148 153 153 151 156 159 163 165 150 137 121 113 105 99 95 93 90 80 86 76 74 79 92 107 111 124 144 168 174 173 169 165 171 179 193 199 194 196 189 174 121 144 149 149 129 114 101 95 89 80 71 69 74 72 80 83 95 102 109 116 120 121 128 132 139 142 140 142 138 135 35 59 39 28 46 48 44 54 43 57 94 88 121 95 104 75 46 47 31 58 125 140 148 159 154 159 156 155 155 155 144 147 144 123 108 99 93 82 77 75 79 76 90 103 110 119 138 151 170 175 175 170 168 167 165 174 189 197 194 191 190 171 136 138 157 164 155 140 126 119 105 102 96 93 96 95 96 104 108 112 119 121 128 129 132 137 139 143 145 142 139 136 35 47 31 27 48 47 54 53 49 52 94 76 107 106 95 79 48 48 30 41 128 134 146 156 153 161 160 152 151 151 160 147 148 133 131 121 107 108 97 98 107 116 118 128 151 164 169 170 169 178 172 174 167 164 161 165 189 197 194 189 190 172 142 139 153 165 164 160 161 155 142 128 127 127 124 120 119 117 121 125 134 129 137 132 137 142 146 146 141 142 140 133 43 27 32 32 52 46 56 57 50 54 87 69 86 122 98 84 58 39 37 32 120 127 144 154 156 161 156 163 164 166 169 160 159 162 157 157 146 142 144 134 149 163 162 169 179 178 169 164 171 171 174 173 167 166 157 167 184 196 198 193 189 170 149 147 153 165 162 162 170 169 171 162 162 154 149 156 147 146 146 142 138 153 146 151 155 147 150 153 148 144 134 137 32 37 26 35 57 52 61 47 47 55 95 72 81 143 107 101 75 47 52 24 106 126 137 155 158 158 163 176 176 172 176 178 177 176 182 182 181 176 173 171 177 185 182 186 180 178 170 168 170 173 176 173 168 163 163 166 181 199 196 197 192 177 149 151 157 165 165 156 164 171 173 180 182 182 179 176 173 170 169 170 155 166 168 170 169 168 160 159 151 146 138 133 31 39 27 45 61 60 54 50 51 65 96 75 53 161 141 112 100 60 57 17 92 125 132 150 156 160 166 176 174 181 188 186 189 186 188 184 188 182 186 184 186 189 185 183 182 179 171 170 168 173 178 171 169 167 165 166 180 196 199 195 195 181 155 154 157 170 170 161 165 171 174 180 180 187 185 183 187 186 181 181 177 172 184 183 176 175 170 161 150 145 140 132 27 39 25 50 64 56 55 64 54 63 98 91 17 171 177 125 119 79 69 27 70 127 127 146 155 162 164 171 172 182 184 186 189 187 188 192 192 187 191 191 187 189 185 183 177 176 174 174 172 176 178 175 165 172 168 165 181 194 200 198 193 185 165 155 162 171 168 173 163 171 169 179 180 184 186 187 186 187 186 186 187 186 187 186 180 177 169 158 144 143 138 126 27 41 22 60 75 57 52 53 64 68 113 80 7 166 182 134 106 101 73 53 63 127 124 137 149 158 160 164 167 179 180 180 182 187 188 189 191 190 188 186 185 181 182 182 178 176 175 176 174 179 169 168 169 167 170 167 186 193 204 195 191 191 177 165 162 162 163 163 161 168 170 167 176 178 184 183 183 187 187 186 186 189 186 183 178 173 164 154 146 143 132 125 24 32 34 65 70 64 62 51 59 59 103 72 20 144 166 132 121 115 91 64 61 124 126 132 147 150 152 161 161 172 172 178 181 187 187 189 187 188 187 183 185 180 179 181 172 174 172 168 171 166 168 160 162 171 173 180 182 195 199 197 194 186 191 180 158 148 153 137 140 146 156 163 172 180 180 178 181 183 184 186 183 189 183 184 176 171 161 154 138 133 138 117 25 33 37 72 77 70 57 48 69 56 103 66 44 138 174 149 140 129 99 87 69 114 122 126 137 147 146 156 157 165 171 174 180 182 184 190 182 185 184 182 182 182 177 179 167 158 154 152 164 163 161 159 161 174 181 185 192 198 200 198 195 190 192 193 178 148 158 142 120 117 139 149 160 162 171 175 173 181 182 182 182 183 181 175 179 168 158 149 130 129 140 102 23 26 49 76 79 73 52 44 78 65 96 67 72 137 165 167 158 146 120 98 79 102 123 122 128 138 148 154 163 162 175 174 175 179 180 184 182 184 180 181 180 177 168 161 149 129 129 146 162 173 170 164 167 173 182 190 202 199 200 194 194 191 189 195 193 163 169 175 121 100 118 127 137 141 153 166 170 174 175 176 174 175 174 169 170 161 153 142 129 125 139 93 30 20 60 77 75 87 46 48 77 66 78 75 97 127 138 167 164 160 137 116 87 99 120 121 126 132 144 147 161 162 166 174 167 173 176 179 179 182 179 176 168 163 145 124 100 92 109 142 171 176 172 159 169 175 179 192 206 201 192 191 189 194 189 189 190 167 164 187 149 89 117 115 114 131 138 155 159 165 170 170 167 169 163 164 163 155 145 138 128 123 145 83 34 19 59 88 76 93 50 47 80 73 74 89 108 154 140 140 156 158 148 125 99 83 128 118 117 123 132 144 152 154 161 164 167 172 172 174 171 173 172 167 150 135 113 93 84 69 64 145 168 176 159 154 161 171 170 182 194 191 186 187 185 191 194 183 179 171 138 174 173 93 113 112 109 106 127 137 149 150 157 163 162 158 158 151 147 150 137 134 129 120 146 71 32 25 61 86 90 92 59 35 84 81 91 98 140 178 172 98 125 141 137 121 85 54 123 118 114 116 127 139 145 149 155 161 163 167 169 167 166 166 159 151 130 108 87 88 83 100 71 132 155 172 146 138 150 164 163 169 178 178 178 175 174 182 186 168 160 158 132 143 170 112 100 114 107 98 113 125 138 140 140 148 146 147 144 144 142 140 134 130 126 123 145 63 27 33 69 90 94 96 53 39 79 94 97 108 172 185 165 132 56 91 96 82 51 27 125 116 118 113 120 129 134 141 150 151 159 162 164 160 157 151 149 134 111 95 81 100 110 126 130 119 138 153 133 104 117 143 143 151 164 162 165 145 162 161 156 143 131 123 119 129 150 117 102 116 109 93 94 111 120 125 127 135 132 136 133 134 134 134 131 125 127 127 135 66 34 32 67 97 94 105 61 43 72 87 64 149 191 175 165 146 80 35 28 41 25 14 116 121 117 108 115 112 112 133 142 150 154 157 155 155 151 146 128 115 91 79 95 116 134 137 144 136 111 125 125 89 68 87 99 116 132 135 137 112 128 135 119 111 94 89 103 119 125 108 110 125 127 101 81 84 103 116 121 126 127 125 125 124 128 127 127 124 127 129 130 44 45 33 71 98 98 110 71 48 65 81 90 182 196 147 165 125 140 43 20 42 29 2 105 126 120 111 106 113 110 120 131 141 148 145 148 146 138 125 112 89 79 82 116 138 144 141 143 148 115 88 85 75 61 51 63 70 95 100 100 89 97 103 96 81 68 62 74 96 108 109 114 126 133 120 98 65 79 94 109 112 120 119 121 120 117 120 123 121 124 131 114 35 56 26 74 99 106 120 74 55 69 82 170 193 160 161 134 155 121 48 66 55 28 1 82 121 123 118 105 109 103 110 126 128 138 133 138 133 123 109 97 72 78 106 126 139 137 147 142 149 142 93 51 53 53 54 53 58 69 69 64 73 72 82 76 57 53 60 90 104 105 112 110 126 130 126 108 95 65 77 91 106 110 114 115 115 116 115 118 117 126 135 100 28 63 29 72 94 116 124 85 66 65 99 185 163 139 144 134 156 79 81 116 39 22 13 56 121 118 118 112 112 97 91 115 122 127 126 122 115 108 98 76 77 87 111 127 128 140 140 145 147 152 130 70 46 52 52 53 56 53 63 61 58 65 65 63 62 68 89 103 107 107 114 111 118 118 121 112 96 91 59 77 92 106 112 113 115 117 109 114 114 125 137 75 30 63 35 68 87 124 124 104 52 78 85 159 145 127 125 156 131 72 122 114 36 19 25 32 119 110 118 117 111 90 91 103 116 122 116 114 108 94 85 62 79 96 116 132 133 143 145 147 153 154 146 103 64 64 65 62 64 61 60 57 59 67 64 72 77 88 107 108 113 112 119 118 123 121 126 123 109 100 86 59 85 99 107 115 118 112 114 105 117 129 135 54 35 72 39 64 83 115 133 127 48 76 96 150 139 110 142 146 97 104 120 81 38 26 34 19 103 111 111 118 111 100 87 100 114 110 107 104 95 89 76 65 86 101 119 141 144 154 157 164 160 161 160 134 93 75 72 76 79 76 76 72 74 67 78 93 108 107 117 114 120 121 122 124 123 126 131 129 126 117 100 75 73 93 103 118 117 116 112 107 119 130 126 30 42 76 55 61 88 111 133 131 86 52 105 136 120 133 149 115 106 132 97 65 33 42 34 13 68 112 113 108 118 100 85 95 108 107 102 99 90 87 69 78 93 110 121 137 144 154 158 161 169 165 167 159 115 98 85 87 91 86 84 79 84 82 84 102 120 118 124 126 129 129 128 126 126 125 118 121 118 129 112 94 73 95 106 113 116 121 110 108 117 134 105 11 39 74 68 54 86 108 131 135 111 53 82 143 141 133 126 109 125 122 71 40 51 40 35 16 39 114 102 112 105 108 95 87 104 99 92 86 91 87 73 87 107 106 107 114 135 147 156 161 166 173 174 169 156 129 92 92 92 94 99 105 104 106 110 113 121 132 129 137 132 131 133 131 126 128 112 107 102 123 122 107 89 97 112 115 117 119 111 115 121 138 69 12 42 75 69 55 76 107 120 137 120 62 67 150 123 127 125 125 129 97 49 48 45 30 33 37 17 93 102 96 106 97 108 92 99 98 90 93 91 93 78 90 116 105 85 103 122 132 139 142 138 145 147 147 139 131 105 87 90 90 104 113 115 108 109 102 102 114 109 119 119 117 114 116 115 107 97 83 91 104 123 114 103 112 112 120 118 119 119 114 124 128 46 24 45 62 73 58 72 108 109 140 132 94 42 117 115 126 128 126 111 69 45 55 35 33 34 44 32 58 100 97 103 97 105 106 98 107 97 107 103 99 81 96 110 98 81 68 76 77 89 91 91 96 108 105 108 111 103 94 82 79 80 83 90 93 90 83 85 89 84 89 92 87 79 70 63 46 43 50 81 92 113 111 117 122 114 124 119 124 116 119 129 92 49 41 55 57 78 63 61 95 111 138 118 143 51 108 122 133 130 112 82 52 54 62 47 47 53 57 70 55 87 94 105 107 107 120 108 105 109 111 113 107 89 103 101 93 77 45 27 31 41 53 53 60 62 54 59 69 75 74 67 68 61 58 68 70 75 59 65 73 62 78 77 57 23 26 33 39 51 74 84 95 99 110 131 124 114 124 120 125 115 118 126 56 25 43 53 59 82 58 67 68 110 125 120 136 138 122 129 132 117 93 61 55 55 80 62 75 73 81 84 53 63 86 103 101 105 121 114 105 115 121 114 114 106 109 109 93 92 50 42 31 21 24 68 80 93 60 73 73 49 55 71 60 48 50 70 78 76 51 87 97 72 110 105 44 11 38 61 68 114 109 107 102 100 111 133 122 118 122 118 123 119 122 110 18 24 39 47 63 73 74 56 79 85 120 134 118 156 140 135 120 92 71 58 48 73 76 92 91 70 61 94 51 31 71 91 95 105 120 116 115 113 124 119 125 118 121 107 100 100 105 81 55 43 14 35 84 114 95 96 122 62 100 106 118 69 80 116 120 119 84 136 121 106 137 76 13 43 68 86 111 132 123 115 114 108 119 129 118 119 119 117 122 114 125 58 9 25 21 38 48 67 73 72 62 77 107 132 133 113 133 121 94 64 63 50 52 90 85 81 62 40 60 89 35 40 37 83 88 102 112 119 114 109 120 122 121 127 124 119 114 113 131 143 111 78 45 8 48 107 53 88 124 105 111 120 129 112 108 127 135 137 93 159 128 73 114 35 43 75 89 103 129 133 123 126 122 115 120 119 112 114 117 118 114 118 95 17 17 24 26 29 36 63 59 75 66 76 80 125 139 122 112 93 72 66 57 42 64 102 74 40 35 45 56 68 41 38 17 50 79 93 100 115 110 97 111 117 119 123 130 123 121 120 135 152 152 130 108 63 31 64 25 31 83 81 94 117 113 113 97 121 127 134 40 115 94 34 31 52 80 87 93 119 135 128 130 131 124 118 115 112 107 112 109 115 111 110 49 13 15 20 21 33 28 44 63 65 87 77 75 97 128 131 90 71 84 67 49 58 79 82 41 35 51 46 37 54 29 39 22 16 67 75 89 100 114 89 108 103 117 122 124 121 128 131 140 143 154 145 138 123 103 73 36 26 35 28 40 63 69 61 45 83 71 56 31 67 96 63 53 86 86 90 108 130 135 128 130 128 124 120 113 107 105 106 109 111 107 75 10 19 15 19 21 25 31 21 58 61 80 90 80 74 96 127 84 77 78 55 54 79 71 37 38 46 33 31 32 48 26 16 33 14 75 66 74 89 101 103 100 96 108 114 119 126 128 142 150 143 149 149 137 135 133 127 111 84 68 70 48 53 39 37 31 50 52 63 88 91 61 70 92 98 89 94 125 132 130 125 137 125 125 118 109 105 102 107 106 112 97 36 7 14 25 13 22 16 33 25 42 67 64 106 92 68 83 99 92 78 68 63 73 65 50 30 30 28 30 25 39 31 24 19 15 8 90 102 49 77 85 97 95 100 105 111 119 127 137 139 146 147 148 146 145 125 134 129 136 155 134 120 110 104 103 90 83 85 96 99 74 62 85 101 94 94 97 114 128 129 132 127 131 125 130 118 108 102 100 102 110 98 61 43 6 21 18 13 14 15 26 26 25 52 69 89 102 90 72 82 92 73 63 77 70 40 38 35 26 23 33 23 41 22 31 13 18 13 85 126 85 53 78 89 89 95 95 107 115 122 134 137 142 149 149 143 147 135 125 128 124 138 144 151 152 149 150 139 124 106 109 111 98 100 112 110 97 97 115 125 131 126 127 132 128 124 132 121 109 102 103 107 98 67 68 34 8 16 18 20 15 16 22 26 28 46 54 79 95 100 102 92 80 76 70 70 40 21 37 29 21 31 27 22 37 18 24 17 12 5 84 114 120 77 51 78 77 93 92 100 110 122 128 132 139 143 147 145 143 141 131 117 120 122 125 138 145 146 141 139 128 113 115 116 102 97 106 95 98 104 125 126 125 122 125 130 133 130 131 117 110 107 103 102 71 53 63 40 8 16 19 16 14 12 22 19 27 36 37 49 75 96 103 94 79 68 78 48 33 28 33 30 26 24 24 17 33 17 23 16 6 9 79 108 115 113 68 57 72 86 98 96 106 117 125 128 130 138 139 145 138 141 137 121 108 115 106 115 127 127 131 128 122 109 110 109 98 99 91 87 105 118 122 122 122 126 124 130 134 132 124 117 112 106 104 86 52 55 68 35 10 11 20 21 8 19 16 26 21 35 31 42 41 86 96 107 68 69 56 41 36 20 34 32 23 22 17 27 27 18 20 17 9 12 82 106 114 111 108 49 61 73 90 98 105 115 123 134 133 133 137 138 140 138 133 127 117 98 93 90 97 105 109 110 110 107 103 93 80 80 80 96 117 118 121 119 121 125 127 129 132 133 127 114 112 108 89 62 49 57 67 36 10 14 18 19 10 15 25 21 19 31 35 25 49 49 74 79 53 67 51 32 39 25 30 27 26 15 22 20 26 15 23 19 5 22 76 104 114 108 106 86 58 59 77 92 105 114 121 132 139 130 131 134 132 134 130 120 123 104 92 81 73 73 68 78 76 76 79 74 78 82 92 107 112 117 119 120 122 125 128 125 133 129 125 113 109 97 63 58 52 57 73 33 8 16 19 17 14 13 20 20 17 25 37 34 40 40 64 57 62 63 51 22 36 28 32 25 27 19 24 19 25 17 21 16 11 21 74 104 113 109 105 97 76 50 63 85 99 109 117 132 141 141 134 133 134 131 131 122 118 113 103 90 73 76 66 74 61 74 80 80 87 88 100 108 113 117 118 122 126 128 128 131 129 125 121 111 93 75 62 61 54 58 75 24 12 16 16 20 10 14 19 21 26 17 39 26 37 38 61 49 73 53 41 29 38 29 24 21 30 22 15 23 19 22 19 13 12 18 70 103 113 111 111 101 86 64 53 65 83 102 113 128 140 144 143 141 138 135 132 131 119 110 111 99 84 78 74 72 69 71 82 87 90 95 102 109 115 112 121 121 123 127 130 134 133 124 117 100 73 71 62 65 54 60 73 25 10 20 16 26 5 17 20 17 28 22 33 34 33 39 46 45 61 61 31 33 32 27 33 28 30 26 15 16 25 23 18 19 9 22 66 104 108 115 111 108 91 79 57 48 64 85 101 122 137 144 147 145 139 136 137 128 121 92 103 108 100 94 80 79 72 72 85 88 97 98 106 113 117 123 123 131 127 130 130 131 130 122 104 78 68 73 62 70 45 70 66 14 14 15 20 21 9 16 22 22 23 21 34 24 31 50 49 44 45 45 29 33 31 27 26 28 31 24 15 21 20 23 16 20 10 18 62 98 106 116 115 109 96 87 63 55 47 59 83 111 122 146 155 153 148 145 142 143 135 127 124 117 113 119 102 97 96 86 95 96 102 110 117 117 125 128 130 129 133 131 138 129 124 114 78 70 72 72 66 59 62 68 57 6 14 17 19 22 7 17 15 23 17 30 36 32 32 32 33 52 43 46 41 28 26 34 28 31 31 30 19 15 21 23 22 17 17 11 48 99 103 112 112 108 103 89 68 57 55 44 56 89 108 132 149 156 162 155 155 148 143 144 139 145 148 138 137 130 124 118 112 105 125 132 134 132 137 135 137 135 135 135 132 132 116 90 67 76 72 71 71 59 62 70 45 9 13 23 18 22 10 16 16 22 25 21 35 20 29 48 38 43 44 45 34 32 28 28 32 25 36 31 17 16 24 23 20 23 11 16 44 96 99 104 117 107 101 98 80 64 55 54 40 62 78 111 137 146 158 159 156 152 148 149 145 155 159 154 158 150 154 144 145 141 145 157 147 144 142 141 136 135 126 128 129 126 91 70 55 76 74 70 68 62 67 63 31 6 16 20 17 22 12 19 21 21 26 26 23 42 31 36 46 39 50 43 32 32 29 34 37 24 34 31 20 14 22 24 23 17 20 9 39 89 101 109 114 110 102 100 87 72 56 59 49 45 53 78 123 134 145 149 153 157 152 156 154 152 148 161 159 150 165 161 165 166 157 163 151 149 146 139 132 131 124 122 128 107 71 66 62 75 75 71 70 65 69 53 15 17 14 23 17 19 10 19 17 32 27 34 27 33 44 37 42 42 38 41 26 35 35 22 37 40 30 32 26 12 21 20 23 24 25 8 32 81 100 107 109 111 106 101 89 84 63 57 55 48 46 48 86 123 135 118 131 146 154 156 153 157 157 165 159 150 155 156 158 163 159 154 147 145 142 127 127 122 120 117 111 81 61 65 75 73 76 71 68 65 70 41 8 15 19 15 26 13 11 20 23 26 27 26 39 41 27 37 51 27 35 33 38 25 32 28 34 36 22 31 28 12 19 27 19 31 20 16 25 76 99 108 106 112 105 103 94 86 72 64 52 58 56 45 49 82 107 112 112 126 135 146 151 148 146 160 150 152 142 147 141 138 142 135 134 135 129 118 115 115 102 101 83 56 72 66 77 76 73 71 70 69 64 26 11 15 19 20 23 11 16 27 22 38 24 34 25 33 52 32 39 29 43 37 36 36 34 29 31 34 29 25 24 21 15 27 21 28 28 28 15 69 101 104 108 111 103 105 96 92 76 67 55 56 61 54 52 46 70 88 107 115 125 130 135 131 137 139 132 134 127 120 113 107 117 116 113 123 104 105 102 97 91 78 61 68 67 71 78 69 74 71 70 69 51 14 8 25 16 26 19 15 15 26 32 32 34 42 39 37 30 42 35 25 50 31 36 28 33 27 32 37 30 29 26 25 16 23 22 27 32 28 16 57 97 101 106 115 108 101 100 94 82 70 59 57 57 63 55 51 43 58 79 90 103 108 108 113 117 117 116 112 113 98 86 93 91 99 98 103 87 95 83 84 70 67 70 67 69 74 74 73 73 73 70 66 34 12 12 21 21 22 17 15 21 23 36 34 35 31 40 45 36 37 39 29 40 31 32 24 43 34 27 34 34 28 23 26 16 18 24 27 36 29 17 46 94 106 105 108 113 105 101 94 86 75 65 61 55 60 60 58 50 53 45 59 73 82 79 88 86 88 84 85 91 84 81 74 76 80 77 82 70 72 65 74 66 67 69 67 72 74 72 71 76 65 73 53 16 13 15 22 27 21 14 17 21 27 30 33 36 49 33 33 44 41 36 31 39 39 33 37 32 32 34 29 25 30 21 24 18 16 21 28 30 34 22 29 94 104 105 109 111 105 103 94 94 77 75 56 59 54 59 59 56 58 48 40 41 56 58 62 60 59 62 67 68 62 68 64 54 57 62 57 64 74 76 73 68 65 68 67 74 69 78 73 69 71 63 36 16 16 20 19 24 15 16 17 29 30 39 34 24 39 37 45 30 43 34 43 