P2
92
112
255
100 105 103 105 108 101 106 103 107 105 108 103 104 90 75 63 47 55 44 55 59 60 68 72 71 83 92 110 99 88 94 105 82 99 109 104 80 126 111 94 125 103 139 118 94 103 114 103 108 110 89 47 48 66 59 50 50 49 54 61 50 64 49 36 44 70 101 113 112 107 113 108 114 110 113 110 109 110 111 109 111 112 110 109 111 111 110 108 110 110 109 113 103 103 103 103 104 105 104 106 106 109 102 90 80 54 37 45 51 61 65 74 77 82 88 91 95 115 115 114 118 109 85 106 98 90 95 93 91 107 138 101 119 108 109 135 96 79 104 120 116 113 83 48 53 81 74 60 70 70 59 54 55 64 52 43 37 42 42 82 110 114 112 111 111 111 112 112 111 111 110 112 109 109 109 110 109 111 109 108 109 110 110 109 103 105 107 103 103 105 106 108 104 102 75 66 58 59 62 75 80 89 94 90 94 93 99 100 105 123 125 120 118 123 108 93 103 101 104 93 100 80 133 129 109 120 92 141 112 82 84 109 119 116 79 54 68 89 77 65 80 69 61 57 67 71 55 56 45 43 41 38 50 97 116 111 110 109 112 109 111 109 113 110 112 108 107 111 108 110 109 110 109 111 110 109 101 106 106 104 104 109 105 101 93 73 62 65 71 82 85 85 85 86 78 76 70 65 63 74 99 105 116 126 106 117 118 101 105 110 102 104 89 85 98 148 115 117 93 121 128 92 84 87 102 107 69 72 93 90 85 81 75 69 60 71 70 73 72 57 64 54 41 43 39 38 104 116 111 109 111 112 112 111 111 110 110 112 111 111 110 113 113 107 112 107 111 108 104 107 102 106 107 102 99 87 84 79 76 72 63 65 70 65 74 81 62 70 85 83 89 93 85 91 90 114 122 110 107 110 107 113 104 101 114 91 88 133 132 110 84 102 133 103 82 83 87 94 73 70 85 98 91 89 73 72 65 67 72 72 88 68 62 66 57 49 47 43 41 109 114 108 111 111 111 111 108 112 111 112 106 111 109 111 109 110 110 112 109 109 105 104 103 106 103 87 72 63 61 45 44 42 48 56 60 54 62 84 93 101 101 109 117 103 100 97 91 80 119 117 96 109 119 92 108 107 109 111 87 114 123 109 86 88 122 115 84 86 80 88 71 73 89 89 89 91 86 84 72 73 68 63 69 74 70 62 61 58 50 53 43 45 101 114 109 114 108 115 109 111 110 110 112 109 111 109 110 109 108 110 111 108 106 106 98 101 83 71 51 40 36 34 43 49 56 48 59 76 95 108 102 104 112 122 122 108 95 95 81 71 91 109 111 108 115 98 98 106 115 104 94 100 125 105 85 77 105 127 96 72 80 87 82 75 91 92 92 96 83 80 79 78 72 61 57 53 62 68 75 60 57 53 52 39 44 105 115 111 110 110 110 111 109 112 110 108 113 110 110 109 111 108 112 111 104 99 94 85 66 48 35 33 38 40 50 66 54 61 81 92 89 81 81 90 100 106 114 127 124 125 114 103 92 98 104 104 104 105 95 98 117 105 92 104 121 103 92 72 93 123 105 76 83 87 90 81 90 101 102 98 83 80 80 87 74 74 65 64 54 53 65 69 61 52 55 43 40 52 111 114 110 108 112 107 110 111 113 109 112 111 105 112 107 112 110 109 102 103 92 69 43 36 40 37 43 57 66 60 65 80 82 72 73 69 84 94 102 114 122 128 120 119 110 97 106 105 100 104 109 107 104 98 112 119 93 82 110 106 90 83 91 113 101 74 82 95 95 86 96 109 107 98 87 83 88 94 89 75 77 73 66 65 52 47 63 53 53 49 55 32 66 116 112 110 110 111 110 110 111 108 110 110 110 109 111 107 111 110 107 99 73 40 35 41 46 35 54 63 75 70 78 77 64 69 80 79 90 98 107 117 124 122 118 118 105 95 93 96 107 101 103 116 103 112 107 115 107 81 97 110 97 88 86 112 96 78 79 95 98 104 100 103 103 86 84 87 95 98 94 93 92 81 71 71 67 56 42 60 47 45 46 62 32 85 113 110 114 112 112 112 109 110 111 110 110 108 114 109 110 110 108 76 29 34 46 41 38 51 75 65 64 65 66 74 79 89 102 112 123 132 144 146 155 151 142 133 126 114 108 95 86 103 106 110 117 112 115 114 102 93 96 105 112 94 91 106 96 86 94 100 103 108 106 106 97 99 95 97 98 94 92 96 94 83 83 81 75 73 67 50 57 53 36 38 53 38 84 116 111 112 110 110 111 109 113 110 110 110 110 112 110 113 91 48 25 37 46 36 50 73 72 67 66 77 82 100 119 124 126 124 127 127 121 119 119 116 117 115 118 116 109 97 86 80 108 115 115 108 113 108 101 97 100 104 117 108 100 102 93 103 106 106 100 95 82 95 109 121 107 109 108 104 97 88 88 82 79 77 80 74 74 64 60 58 61 32 40 51 46 90 117 107 110 113 110 112 113 110 110 110 111 111 110 113 54 30 35 36 42 42 84 77 84 85 90 96 105 110 116 123 138 142 146 149 147 142 128 113 102 96 97 96 103 86 91 79 74 108 112 95 105 100 98 98 105 108 117 114 104 100 101 105 110 105 95 89 94 114 119 116 109 108 108 104 101 91 86 84 79 79 80 77 79 75 67 60 63 60 43 33 46 65 104 113 110 112 113 112 112 110 112 112 110 110 109 111 37 27 37 33 44 78 76 79 90 100 99 90 85 72 72 76 96 105 116 120 120 127 137 130 117 104 93 90 93 92 79 76 75 76 111 95 94 104 99 105 110 120 121 114 115 103 102 106 118 105 84 98 113 118 122 123 121 124 120 113 111 104 101 96 94 91 79 88 84 93 85 70 59 65 66 37 35 56 82 103 113 108 111 111 112 109 111 111 111 109 109 112 23 41 42 48 71 90 89 88 89 78 60 53 49 63 74 80 91 96 98 106 102 93 94 95 103 108 109 97 80 89 92 86 85 78 88 103 94 111 108 109 118 127 123 117 116 119 106 113 124 104 95 107 122 127 128 130 133 136 130 117 116 112 104 107 102 97 102 99 94 109 79 81 76 66 68 72 43 31 62 87 107 111 111 112 111 110 109 112 111 107 112 111 39 58 50 58 77 89 103 89 81 80 81 82 82 81 90 89 86 95 99 97 101 102 96 86 91 93 89 95 93 92 100 93 104 103 106 107 103 118 129 118 123 125 126 123 119 124 120 120 133 109 97 112 125 117 120 123 129 132 136 141 129 119 107 105 99 89 87 93 107 124 99 85 83 80 75 71 87 44 40 59 85 112 111 111 111 110 114 108 112 108 107 113 42 42 44 81 94 88 86 81 74 78 91 89 94 96 110 113 115 113 105 100 99 97 106 103 93 91 94 95 97 105 110 113 124 128 125 128 128 124 146 135 129 133 134 130 121 130 129 135 129 117 110 120 111 118 138 143 144 151 146 138 128 117 110 103 106 107 101 104 101 100 89 93 96 84 89 71 73 84 43 48 51 101 113 109 111 108 114 110 109 111 111 111 32 49 86 101 90 68 56 69 65 72 85 81 85 96 106 116 116 118 120 124 119 110 115 118 120 112 113 109 107 115 117 127 141 151 159 149 152 143 150 145 140 145 150 141 139 140 137 138 137 128 123 124 123 136 138 145 145 144 144 136 132 126 119 111 117 115 106 103 102 94 92 86 89 94 86 73 73 83 72 50 47 46 104 106 111 110 110 110 111 109 110 112 50 84 98 92 72 66 77 74 81 76 85 87 87 98 104 111 116 116 116 114 118 120 118 125 128 127 128 121 123 126 128 138 150 158 177 172 164 160 165 165 154 165 165 156 156 153 151 147 144 143 122 126 133 132 140 140 138 138 144 146 144 141 138 131 123 123 117 114 105 106 101 91 91 90 90 76 82 73 89 62 48 50 51 103 113 111 114 109 113 110 111 111 74 94 91 85 81 88 100 107 107 111 107 108 107 102 94 100 106 111 110 117 121 125 127 127 127 120 123 124 129 137 147 151 168 182 190 189 182 178 178 167 179 180 182 174 170 172 166 156 142 130 127 134 136 138 140 147 148 155 156 156 153 147 136 128 119 121 116 98 108 109 99 102 107 99 96 94 90 94 76 79 62 59 54 56 113 111 112 111 110 112 108 112 77 93 77 68 73 82 97 109 113 119 117 107 120 117 108 106 100 107 109 109 114 127 134 133 131 129 132 138 150 163 175 181 190 196 198 198 190 195 193 191 192 190 193 189 187 183 177 163 143 135 134 140 141 141 149 157 159 161 164 165 156 153 144 139 128 120 116 111 105 104 99 91 94 91 90 84 83 88 83 76 71 55 73 38 100 116 112 113 111 111 109 114 78 82 70 82 83 94 93 111 121 121 117 111 111 111 117 116 116 109 107 114 113 125 134 141 138 154 165 173 186 188 195 199 200 199 200 202 199 200 203 200 201 199 200 201 199 192 184 168 148 140 140 138 144 145 150 150 149 147 149 150 141 137 130 134 125 119 118 113 104 100 88 84 83 84 77 82 83 89 85 90 80 68 69 55 78 114 113 113 110 111 108 113 102 94 91 108 112 109 126 124 122 119 106 98 102 101 105 113 117 115 113 112 118 126 145 154 163 173 184 191 194 197 200 202 202 202 202 203 205 203 206 203 203 204 202 205 204 199 194 184 172 166 162 159 158 156 155 151 149 145 145 150 150 144 137 134 130 116 109 111 110 105 104 97 89 95 97 94 105 111 108 95 103 94 70 60 59 107 114 112 111 111 109 112 105 119 126 131 130 139 136 131 129 116 100 101 108 103 103 108 113 114 114 125 131 145 166 168 178 183 193 198 197 202 202 203 204 204 203 204 206 207 205 205 205 203 206 205 203 202 199 194 194 190 186 193 189 184 178 179 179 173 170 168 166 162 157 152 146 138 123 114 114 114 107 103 94 101 102 108 116 117 114 104 104 104 91 61 64 103 104 115 109 111 110 110 130 140 141 136 131 117 103 94 91 88 91 106 110 110 110 121 131 130 132 144 149 162 180 182 185 193 194 199 203 203 203 205 206 205 207 205 207 205 206 204 206 205 202 205 205 202 200 202 196 196 197 197 196 192 190 191 194 193 192 185 184 188 184 175 163 156 151 128 114 112 116 112 93 98 104 119 102 111 119 102 94 107 98 91 60 92 108 107 113 110 110 112 134 135 134 110 103 107 102 102 110 102 101 107 107 124 130 138 142 148 153 153 162 179 190 191 190 193 200 201 202 204 204 205 205 207 206 204 205 205 204 207 207 204 204 204 203 203 203 203 202 194 196 198 198 192 184 192 196 195 198 193 189 190 190 186 183 174 168 155 136 123 120 116 92 89 97 91 99 100 117 112 91 82 85 98 76 76 114 104 110 110 111 114 126 127 117 90 88 88 97 87 83 90 92 108 121 129 135 147 156 168 171 175 181 186 194 193 192 199 201 202 203 202 204 207 206 205 206 206 205 205 205 205 206 206 204 204 204 202 203 202 203 203 200 201 198 196 194 195 196 189 195 198 194 190 193 185 188 182 174 166 152 139 138 126 104 88 98 83 101 105 95 107 75 87 72 80 92 68 100 101 99 108 112 111 112 115 104 82 85 96 106 90 88 93 99 120 128 133 141 162 173 182 185 189 186 188 191 194 197 199 202 202 204 204 203 206 205 206 205 207 206 205 205 203 205 205 207 203 205 201 201 203 203 205 203 203 200 195 201 200 200 194 196 195 194 193 195 188 185 187 178 168 161 151 153 141 121 90 89 88 88 109 101 96 71 58 76 78 83 78 74 92 92 102 115 113 105 106 104 98 106 115 112 106 103 112 114 125 134 135 158 171 187 189 192 194 192 190 194 197 197 199 202 202 203 203 204 205 205 205 206 204 205 206 204 205 205 205 206 204 205 203 204 202 204 204 204 202 202 202 202 202 203 200 197 197 194 193 193 191 186 186 182 175 170 172 158 153 140 110 85 77 84 104 112 98 82 56 59 76 91 80 71 77 80 88 101 114 99 95 109 99 110 105 110 110 114 117 129 133 140 143 166 177 186 191 195 195 196 193 195 198 198 200 200 202 203 202 203 204 205 204 205 203 205 206 206 204 205 205 204 205 205 205 204 200 205 204 205 203 205 204 203 205 202 203 202 197 197 194 192 191 185 188 181 171 175 173 172 162 159 138 94 80 74 89 104 114 106 88 77 79 84 79 71 73 69 93 84 97 120 113 111 106 107 106 112 114 114 117 126 132 144 155 171 177 185 195 193 197 195 194 195 197 197 197 200 200 202 202 203 202 203 204 205 204 204 205 205 204 207 205 205 205 203 206 205 201 200 202 204 204 204 203 204 204 203 205 201 201 200 194 190 188 183 186 183 172 183 177 170 175 165 152 116 80 83 72 91 92 105 114 107 90 95 90 74 75 76 65 83 84 112 125 117 105 110 125 113 106 117 120 126 142 153 164 175 175 184 193 194 193 194 192 194 196 196 196 196 198 201 201 202 204 202 203 204 204 205 204 205 205 206 206 204 203 204 203 206 202 200 201 202 205 206 204 202 203 204 202 202 200 200 197 192 188 187 186 183 182 186 185 176 174 168 156 136 93 77 91 66 76 79 103 103 113 112 112 87 75 77 77 74 79 110 121 105 104 120 124 103 115 127 123 128 143 159 168 175 178 182 191 193 193 194 193 194 195 197 194 195 197 197 201 199 202 203 203 202 203 204 203 204 204 206 204 205 204 204 205 204 203 203 202 202 203 204 203 202 199 201 201 200 200 200 197 195 189 186 186 182 184 188 190 184 178 171 161 139 122 76 81 85 71 76 88 106 115 112 109 113 91 79 79 84 77 111 100 88 118 134 113 119 115 128 120 129 141 159 170 172 180 186 191 193 197 196 193 192 195 194 195 196 195 197 201 199 201 200 203 202 201 205 205 205 204 205 205 205 204 206 202 206 203 204 204 202 204 204 203 203 201 200 199 200 198 197 195 193 189 188 186 185 186 188 188 187 181 172 160 148 127 100 64 74 103 93 74 97 115 100 97 101 115 87 77 93 82 90 84 120 138 126 112 106 108 121 122 122 144 158 174 176 177 185 190 195 195 196 193 192 193 195 194 196 195 196 199 201 197 201 201 201 203 203 203 205 204 205 205 205 205 204 204 204 204 203 205 204 205 205 202 205 202 201 199 199 199 195 193 193 189 188 190 186 185 188 191 187 184 172 164 150 133 107 80 54 76 104 81 71 88 118 102 90 99 88 84 69 96 87 103 127 145 126 108 103 110 118 119 130 145 163 176 178 180 182 190 191 196 196 194 191 193 194 195 195 194 195 197 198 198 200 198 201 201 203 204 203 205 204 206 204 206 205 204 206 205 203 204 205 203 206 203 202 201 201 200 198 199 195 196 193 190 189 190 189 187 190 190 186 186 172 164 154 139 116 85 65 71 98 87 79 84 86 96 90 84 80 90 60 60 109 103 129 141 120 114 106 112 121 132 136 152 161 168 175 180 182 184 191 194 197 194 194 193 196 193 196 194 194 195 197 197 200 200 201 202 203 203 204 203 201 205 202 204 205 203 206 203 203 206 203 204 206 202 202 201 200 200 196 196 195 196 194 190 192 192 192 189 192 190 182 183 174 164 160 139 118 98 68 72 88 97 85 90 92 75 82 89 81 93 62 67 106 109 131 134 115 113 106 117 129 134 141 157 168 165 173 178 179 182 189 191 197 194 195 194 195 193 194 193 198 196 195 197 198 201 201 202 203 204 203 203 202 201 204 204 203 206 205 203 203 206 204 204 205 204 201 202 199 198 198 199 192 195 197 193 195 196 195 190 189 190 184 182 173 162 161 151 115 98 80 69 98 98 96 95 96 85 77 90 68 84 68 71 95 109 121 129 118 92 116 124 127 136 141 162 171 168 175 177 179 179 185 191 192 193 194 196 194 194 196 198 194 196 191 197 198 201 200 201 203 203 203 203 202 202 203 205 205 205 206 206 205 207 204 205 205 203 202 202 200 195 196 198 197 196 198 196 196 193 193 192 188 192 185 181 172 164 161 155 129 109 64 87 87 108 110 97 112 93 103 78 50 66 76 58 98 108 123 128 102 117 125 122 126 135 144 159 166 171 172 179 174 180 187 187 192 192 194 194 191 195 197 196 195 198 194 197 199 198 199 201 201 203 204 201 205 202 206 204 205 207 205 207 206 205 207 205 207 203 204 203 201 193 196 201 196 196 199 199 197 195 189 192 193 191 187 183 172 163 162 158 139 118 76 51 98 103 105 107 84 114 93 92 50 62 77 61 95 101 115 107 114 124 105 105 127 138 153 162 164 166 172 174 173 183 186 187 192 192 192 195 194 195 195 194 198 198 198 199 201 199 200 200 202 203 204 202 205 204 205 206 206 207 206 206 206 207 207 206 205 203 203 204 201 199 202 201 200 196 200 199 197 198 195 193 195 191 189 182 175 161 158 158 146 125 95 28 62 102 108 95 95 89 107 83 59 70 73 57 85 88 112 85 131 114 104 115 134 143 156 163 167 167 168 173 173 181 185 186 193 193 192 193 197 196 197 198 198 199 198 201 201 201 201 202 203 204 204 203 203 205 205 205 207 207 206 206 206 205 206 206 206 203 205 204 202 202 202 202 202 201 199 200 197 199 198 194 196 193 187 186 174 164 156 156 150 141 100 35 30 101 112 98 95 93 73 91 65 76 66 47 80 82 92 102 131 112 112 113 122 139 155 166 168 170 168 171 173 178 180 188 189 192 192 194 196 196 196 199 197 199 197 202 199 202 203 202 202 206 203 205 203 203 207 206 206 206 207 205 206 205 206 204 205 204 204 205 204 203 204 200 202 202 201 197 202 199 197 197 195 193 190 185 178 164 161 152 149 152 111 36 29 72 111 113 71 78 63 87 68 64 67 45 72 83 78 124 132 121 101 97 111 123 143 161 169 168 168 169 169 177 179 184 191 192 194 193 194 195 196 197 199 200 197 201 201 201 201 203 203 204 204 204 203 203 203 206 206 205 207 208 206 205 205 207 203 204 205 205 205 206 203 202 201 201 201 201 199 200 198 196 198 192 190 186 180 169 160 151 147 144 120 47 39 49 104 101 103 53 62 78 69 46 58 46 74 74 85 133 122 120 93 82 111 121 138 159 165 168 171 169 173 175 178 185 186 192 193 193 192 195 196 199 200 200 197 198 201 199 202 203 203 203 203 203 203 201 202 205 203 204 204 204 205 206 205 205 206 205 204 205 206 203 204 201 200 202 201 200 201 201 199 197 197 195 191 190 183 173 156 158 142 141 123 38 57 62 95 106 102 62 52 73 79 52 47 66 89 85 100 132 109 116 79 78 107 123 139 157 162 167 168 167 172 175 178 184 188 190 193 196 194 195 197 198 199 198 200 198 200 200 200 202 203 202 202 203 204 203 201 203 204 203 203 204 204 205 206 205 206 204 205 205 203 204 202 201 199 200 202 199 198 198 200 197 197 194 191 191 181 175 158 153 144 137 124 30 72 65 94 98 86 64 54 64 71 46 53 71 84 82 105 116 111 106 68 81 103 125 136 150 156 160 165 166 171 175 178 181 189 190 194 196 195 196 199 197 200 197 198 199 200 201 200 200 202 201 200 204 202 202 203 205 203 204 204 204 204 205 203 202 205 204 202 205 203 201 202 199 200 200 199 196 198 197 196 193 195 191 189 190 184 180 163 151 146 136 119 28 69 71 98 92 80 64 54 61 67 30 58 69 68 75 100 103 110 97 60 85 108 122 135 144 152 158 163 167 173 175 179 185 188 192 193 194 194 197 199 199 199 198 193 195 198 200 199 198 198 200 198 201 200 200 202 202 203 202 203 202 201 203 202 202 203 200 201 200 200 197 196 194 194 195 194 188 189 184 179 172 171 172 171 171 180 179 167 150 144 137 107 36 68 64 99 81 76 56 53 67 63 30 53 72 62 77 92 94 107 91 66 87 107 126 132 142 147 152 157 165 174 173 178 186 185 189 191 193 194 192 195 193 196 191 189 181 189 190 192 192 179 190 191 190 192 193 200 200 198 200 201 200 201 200 200 201 199 198 195 191 194 177 175 173 172 171 162 157 152 138 133 135 137 132 144 136 134 153 159 147 142 139 103 32 78 55 80 70 59 49 66 78 43 32 58 79 66 77 91 79 101 86 61 83 113 129 132 142 153 149 153 162 169 171 173 185 184 180 178 182 178 170 167 169 152 149 149 135 137 145 149 146 143 144 168 164 174 181 190 195 197 194 197 198 198 197 197 196 194 192 180 182 171 141 140 127 116 112 114 110 106 99 102 100 105 111 111 117 114 113 125 117 127 139 98 38 68 51 67 62 45 35 62 90 47 24 66 75 66 77 84 72 85 76 65 75 112 131 137 138 151 145 153 156 162 170 165 170 166 160 157 153 150 142 139 135 132 124 119 111 107 105 114 112 116 118 139 151 153 162 174 189 188 191 192 194 195 191 195 191 189 182 164 156 139 120 117 111 97 88 85 95 85 83 91 102 108 107 108 113 114 110 108 103 102 140 92 37 72 42 64 53 35 39 58 68 38 28 73 68 69 75 75 73 83 67 64 87 108 130 140 138 146 146 150 148 150 147 143 148 145 144 141 135 132 123 115 107 109 104 100 96 92 95 94 107 104 111 123 148 136 139 161 176 174 184 185 190 192 190 189 186 183 166 149 133 125 119 113 104 93 85 82 89 82 99 114 122 126 122 119 121 113 111 110 99 99 125 101 30 69 41 57 48 33 50 61 51 29 32 70 69 72 67 79 72 66 56 67 92 108 127 137 138 138 146 143 125 110 117 122 122 127 127 129 130 133 128 124 116 105 101 96 89 92 90 95 99 105 108 117 142 139 131 150 164 169 173 184 190 188 187 187 179 178 160 136 130 123 113 109 92 88 80 79 85 87 100 108 115 120 126 128 132 121 121 118 110 97 120 101 38 62 36 47 47 44 57 57 42 33 33 68 76 68 72 68 63 54 60 68 93 108 125 135 143 138 137 129 108 103 107 114 118 117 119 128 128 129 130 130 125 118 111 99 87 77 73 72 88 96 102 112 121 135 134 144 159 169 175 183 189 186 182 184 180 172 158 141 125 111 102 84 74 80 91 90 98 86 85 79 75 86 88 102 118 121 122 117 105 108 121 117 38 51 33 44 38 42 66 54 42 34 41 63 78 52 74 63 55 62 60 68 91 110 123 133 143 138 127 114 103 104 112 114 117 119 125 130 125 115 109 105 112 123 134 121 104 98 94 74 55 64 82 91 94 108 118 137 151 163 172 185 189 187 181 182 180 171 155 130 109 95 90 92 99 86 61 62 87 54 55 91 60 64 83 73 84 113 119 121 118 122 125 123 55 47 45 29 40 56 68 38 45 38 42 69 74 56 57 53 53 72 53 72 97 111 127 130 141 127 125 113 107 109 117 121 127 124 121 109 103 92 101 94 90 65 102 79 71 102 110 113 106 89 79 86 91 93 99 119 135 155 171 177 186 179 181 186 181 167 144 120 101 98 109 108 118 93 87 52 172 74 44 124 151 79 51 73 78 100 119 121 129 133 127 124 59 62 41 31 53 53 65 43 44 36 43 76 71 51 54 49 56 64 58 71 101 116 132 128 134 134 125 120 115 109 113 116 121 117 100 83 93 88 83 60 67 11 143 106 43 122 144 109 105 121 116 100 96 104 97 104 124 147 173 184 190 191 194 189 185 164 134 112 109 128 128 122 164 116 89 48 47 67 60 124 196 150 82 57 81 99 118 124 132 134 131 126 66 54 51 35 57 55 63 44 45 37 51 71 59 57 51 44 61 55 55 77 99 115 131 134 128 134 135 129 128 122 121 122 119 112 88 83 71 68 109 76 69 28 26 74 77 154 197 157 112 111 130 142 112 113 114 103 117 141 181 195 200 199 197 198 187 160 128 118 150 153 140 158 182 173 98 97 75 87 92 154 186 163 134 81 80 104 117 125 136 137 133 131 68 55 56 59 50 61 58 46 41 40 54 63 43 71 52 40 58 55 56 78 92 116 128 135 130 131 136 140 136 135 128 128 117 108 88 64 75 107 150 123 89 70 64 84 119 185 204 178 185 168 140 160 148 125 125 118 115 153 183 197 203 201 198 197 191 163 131 134 164 160 136 133 160 179 159 120 114 120 154 183 162 141 118 96 111 120 116 133 146 140 141 134 62 65 66 73 43 68 57 47 36 40 55 58 51 68 45 40 51 55 58 84 95 114 130 135 137 131 138 142 134 136 124 122 111 108 94 65 93 120 140 162 137 112 113 130 170 187 179 160 134 145 137 151 170 144 126 132 127 159 186 192 201 202 201 200 194 171 134 142 170 159 150 144 147 139 159 152 152 137 145 134 116 110 103 115 136 146 140 145 156 148 142 136 64 51 64 72 50 59 55 46 42 40 47 53 68 63 43 37 54 52 65 77 97 121 134 137 144 140 143 148 146 138 132 129 129 122 117 102 101 105 117 126 149 158 154 158 163 156 154 147 139 143 148 150 155 149 132 143 150 163 182 191 199 200 201 201 193 179 141 145 163 149 148 131 126 117 125 121 123 111 118 108 110 113 118 125 141 151 156 160 158 157 145 141 56 56 52 79 55 60 52 49 45 40 39 56 78 68 49 44 47 57 58 73 97 119 135 141 150 144 155 160 163 158 160 161 148 147 143 128 118 116 116 111 111 121 129 123 131 130 131 129 128 132 144 146 140 147 151 162 165 171 177 191 197 200 201 201 194 184 145 149 153 145 139 133 122 114 112 112 110 112 120 117 122 119 126 139 145 153 160 163 166 158 148 144 58 47 58 76 57 63 56 56 47 43 37 69 83 55 54 39 48 57 51 73 97 119 137 140 152 156 164 167 169 175 177 179 173 165 159 150 139 131 127 125 129 128 126 118 122 124 115 117 124 134 147 140 146 165 168 179 173 172 178 185 194 202 202 202 196 192 150 152 158 145 140 142 128 125 114 108 107 109 118 120 125 130 142 147 148 155 165 168 166 159 153 145 54 38 69 62 56 64 65 54 50 34 50 79 83 59 48 42 48 55 50 69 99 119 134 141 152 157 163 169 171 178 180 182 181 170 166 156 146 135 128 121 123 126 120 114 116 117 122 128 141 145 151 147 173 179 182 183 178 169 178 182 195 199 202 201 199 190 158 155 165 158 145 153 141 134 130 130 120 122 127 127 134 144 147 152 155 164 169 168 170 161 152 147 47 37 81 53 62 70 69 49 54 34 59 86 88 72 63 42 56 57 41 68 101 120 134 136 150 156 162 171 174 179 183 183 183 178 174 173 164 156 144 140 131 123 124 124 129 132 142 140 148 160 161 169 184 183 186 179 180 173 173 178 191 199 201 202 197 194 158 156 169 170 160 156 154 147 142 140 141 144 142 149 149 156 155 160 163 168 172 174 167 163 154 143 37 60 76 53 76 70 73 57 54 52 70 92 82 81 74 52 52 58 43 65 94 121 129 136 147 154 162 172 175 179 182 182 184 181 177 179 175 165 161 159 153 154 149 151 151 153 157 168 171 178 179 179 181 186 185 184 179 174 169 171 187 197 200 199 198 191 162 158 173 171 168 167 167 159 158 156 157 159 156 156 157 160 166 167 167 167 173 173 170 161 152 140 43 79 71 55 85 82 66 62 47 58 78 93 91 96 81 67 53 61 40 63 96 113 129 136 141 148 158 170 177 180 184 186 189 188 181 181 182 178 178 174 166 169 165 172 176 178 177 182 188 184 180 181 180 184 185 185 175 177 164 170 182 194 199 202 200 194 167 153 173 171 170 170 177 175 170 169 168 168 167 166 164 163 164 170 169 172 172 172 168 162 158 130 51 96 59 67 94 82 68 67 51 62 78 93 92 110 102 95 57 59 45 49 98 112 126 128 142 147 154 165 174 181 185 189 189 190 188 184 186 185 183 184 181 183 181 184 188 190 189 189 188 187 179 181 179 183 184 183 179 176 168 170 182 192 201 201 201 200 173 153 171 173 168 174 176 179 179 183 176 173 172 172 173 173 160 171 174 171 176 173 168 163 158 127 53 102 57 74 94 71 66 69 66 68 78 94 95 100 95 101 78 60 50 55 92 108 119 129 140 147 152 165 168 179 185 189 188 190 192 190 189 189 192 194 191 188 190 187 193 192 194 192 188 188 180 178 178 181 184 181 173 171 170 173 180 190 201 202 202 200 184 152 164 170 171 171 179 182 183 188 183 181 180 179 177 174 172 169 177 170 172 175 169 159 155 124 61 95 50 86 99 79 67 69 57 60 86 94 86 104 103 103 94 59 67 46 90 108 116 126 139 144 150 164 165 173 182 183 190 189 192 192 191 191 193 194 191 189 193 190 193 196 192 191 190 187 183 179 177 180 183 180 172 169 174 170 178 192 200 201 203 202 195 162 156 169 172 169 179 179 186 188 190 185 185 185 179 181 177 179 178 170 171 171 163 152 156 117 67 102 45 94 99 85 75 70 54 67 85 91 102 120 115 110 98 81 73 46 90 105 114 123 139 145 148 161 165 170 177 179 184 190 187 192 191 190 190 193 192 190 193 195 192 195 193 194 189 187 181 182 176 180 175 170 167 170 171 173 184 192 199 202 202 197 196 181 158 158 169 171 179 179 186 187 190 190 186 188 181 185 181 184 180 174 171 168 163 155 153 102 101 93 52 107 90 89 80 76 54 67 86 91 103 139 133 127 109 97 86 54 79 106 113 121 130 146 146 156 164 166 172 176 180 186 186 188 188 191 190 193 193 192 193 193 194 195 192 192 189 187 183 183 177 174 175 163 158 165 173 178 187 194 198 202 203 202 196 192 182 152 157 170 178 181 187 190 191 189 189 188 187 186 186 184 181 176 170 171 161 151 152 89 114 90 60 120 90 96 79 80 63 68 94 90 107 154 148 143 130 114 92 65 65 106 107 118 121 139 149 154 164 159 170 173 176 184 183 187 191 191 192 195 194 194 194 192 195 199 189 192 187 186 182 179 170 164 165 160 151 157 175 186 192 198 199 203 203 203 198 195 196 173 147 164 179 180 190 190 190 187 191 188 190 185 189 185 183 181 174 170 159 148 141 83 123 89 66 113 98 100 87 83 69 65 99 95 102 161 155 158 143 127 105 64 60 104 113 118 113 132 141 151 156 160 164 171 176 183 182 188 190 191 192 198 193 195 196 194 193 195 193 192 191 182 180 172 159 165 168 164 157 160 179 188 198 203 201 203 201 202 201 196 197 197 157 157 179 183 187 178 189 187 193 187 189 187 187 183 183 181 172 167 154 147 134 79 130 81 76 110 103 102 90 87 78 61 94 101 100 145 150 157 152 133 108 65 39 106 109 116 118 122 138 144 150 158 169 170 172 180 183 186 190 191 192 197 194 194 198 192 193 193 195 188 192 187 175 158 154 165 174 163 157 169 183 187 195 202 202 203 200 199 199 200 195 196 173 147 176 180 180 179 183 188 186 188 187 186 182 184 180 178 167 164 150 137 124 92 132 87 65 114 104 98 88 84 90 66 91 104 98 82 125 143 143 127 101 51 12 106 112 112 120 122 129 143 148 157 167 167 173 181 183 186 187 188 190 192 192 192 197 195 194 192 192 185 184 178 168 146 143 169 176 154 155 169 179 185 190 199 201 202 202 201 199 199 194 191 180 147 168 174 175 177 179 185 183 186 187 184 182 177 175 173 164 157 145 134 111 102 139 90 64 117 113 99 82 93 91 81 84 101 96 72 52 88 100 92 56 29 7 94 111 111 118 124 125 136 142 150 157 165 171 177 179 181 186 186 189 189 193 190 194 194 191 191 185 180 176 174 162 124 134 161 177 140 141 163 175 181 186 195 198 202 201 199 197 197 192 177 173 144 163 173 169 174 180 179 183 181 181 180 181 173 173 168 158 149 139 134 99 102 142 92 65 115 118 104 71 95 95 97 80 95 98 122 88 39 30 44 18 29 12 71 111 107 117 124 129 132 136 141 155 158 165 175 172 180 184 184 187 191 190 188 191 191 189 186 181 171 174 172 164 119 118 150 164 136 120 130 153 167 174 184 190 196 193 182 192 189 178 164 144 126 160 173 171 170 180 176 179 176 174 178 176 172 173 159 150 140 136 130 81 102 138 99 68 112 124 114 77 94 94 88 95 81 104 150 129 69 54 40 30 33 7 55 111 111 114 126 127 134 139 137 150 146 162 168 170 172 178 183 188 190 187 189 189 190 186 183 174 170 177 172 177 158 99 128 147 137 110 89 90 114 139 159 169 176 170 149 171 166 145 120 98 118 158 175 173 173 177 178 176 177 174 176 171 168 165 157 144 137 135 130 70 104 132 109 69 108 128 119 86 91 92 91 87 88 95 147 122 73 101 61 33 22 6 35 105 111 114 129 137 128 137 131 146 130 140 159 165 172 179 182 187 186 187 187 189 187 181 179 176 178 183 186 181 181 126 103 119 120 104 81 65 61 84 114 134 145 142 136 142 132 102 69 83 121 170 174 177 175 171 173 174 175 174 172 169 168 160 151 138 135 136 124 53 104 137 121 63 103 128 134 105 84 103 80 97 93 82 142 106 92 117 62 21 21 10 25 100 106 111 124 136 129 133 127 143 140 143 152 155 167 172 180 182 185 187 186 184 180 171 171 174 186 188 187 188 186 161 108 87 85 69 54 50 50 55 77 93 103 96 103 99 94 65 71 102 153 177 174 173 176 165 168 170 174 166 171 166 160 157 143 134 135 136 115 28 110 133 120 77 87 130 139 114 95 100 88 90 103 81 141 104 103 112 53 20 23 19 10 90 107 111 117 132 131 137 129 138 140 145 148 151 168 167 177 177 180 184 185 180 176 172 175 181 188 192 192 189 190 180 149 105 83 79 69 69 63 50 53 65 70 63 70 72 74 101 123 142 167 177 175 173 174 167 159 166 167 168 165 162 159 151 134 131 133 139 102 16 105 133 124 96 66 130 139 129 101 100 91 90 89 103 126 108 116 96 47 32 19 23 6 66 107 109 114 124 135 136 134 137 139 137 140 144 160 165 169 174 173 177 177 179 174 169 177 186 189 192 192 190 189 187 183 160 133 121 110 97 88 73 65 63 65 67 78 93 115 146 158 162 171 174 170 173 172 174 161 158 159 161 162 156 151 144 128 131 136 137 90 14 96 129 132 112 63 115 135 139 107 96 94 98 83 96 118 121 120 79 47 35 25 26 9 30 101 102 114 117 126 137 137 138 137 134 139 144 154 159 167 170 171 174 170 176 168 173 183 186 186 192 185 189 189 187 183 188 166 129 129 131 119 117 106 105 107 116 123 134 143 161 158 168 170 171 167 168 169 170 173 157 158 157 157 156 148 141 127 132 136 134 63 35 89 111 142 121 75 95 123 141 113 100 101 85 95 77 116 125 107 56 50 31 28 27 20 13 75 99 111 116 122 134 138 137 139 136 135 142 148 158 160 163 167 167 172 171 164 177 181 185 186 189 186 186 184 184 185 182 181 148 141 147 144 145 134 136 133 144 155 152 149 165 161 171 168 172 165 165 165 172 169 164 159 155 154 152 146 139 126 136 140 115 50 48 86 102 136 125 106 69 128 121 141 89 102 107 85 94 120 117 87 48 44 29 29 35 35 19 57 96 104 111 122 132 133 136 138 134 134 133 146 152 158 160 162 163 162 165 167 180 180 182 183 185 185 184 185 185 184 182 184 176 156 158 153 156 148 145 140 150 160 165 158 166 165 165 170 163 164 160 164 168 167 169 159 155 153 152 146 134 132 136 135 93 43 76 62 108 117 123 124 70 101 123 134 116 88 112 100 84 120 103 59 49 44 40 43 40 43 49 49 80 92 109 105 124 128 128 140 135 138 130 143 150 154 151 157 158 160 163 170 177 177 177 178 183 182 184 183 185 184 184 182 179 174 169 166 164 159 153 150 153 161 170 167 171 169 169 165 161 156 147 149 162 169 167 163 159 154 151 145 132 137 136 126 75 59 86 56 107 106 121 123 100 67 119 120 132 108 88 106 98 106 80 52 57 52 58 57 49 62 58 61 60 81 103 105 113 126 114 141 139 139 134 141 151 148 149 155 158 160 166 175 180 174 173 173 172 174 178 176 178 184 187 182 180 184 178 179 177 178 169 165 168 165 171 170 175 171 169 163 160 142 123 127 144 162 166 165 158 160 151 142 134 135 137 93 38 84 92 67 88 113 117 118 121 88 81 122 127 120 123 82 106 85 65 54 55 63 67 59 64 71 67 65 50 63 90 103 116 121 133 133 145 138 137 138 148 150 155 160 162 161 166 166 179 175 159 150 153 159 168 168 167 174 178 172 165 166 154 162 169 179 178 166 158 146 144 149 155 155 149 144 125 106 98 102 127 146 158 163 161 158 151 138 136 135 125 45 17 44 82 90 67 108 109 116 112 115 97 93 120 123 128 133 82 73 59 63 57 64 70 68 60 85 57 46 29 55 71 91 108 116 127 137 140 143 143 138 146 150 160 159 163 165 165 165 167 158 135 110 118 126 128 132 128 131 135 135 131 131 125 129 132 146 152 142 131 121 119 118 115 110 100 85 88 128 154 144 131 137 153 160 161 155 145 132 133 131 89 15 24 32 32 74 75 62 117 109 115 115 109 94 96 122 112 133 137 63 61 62 61 67 68 60 52 69 48 31 23 60 70 74 91 104 118 132 135 139 140 141 147 156 160 163 163 166 168 162 149 133 115 89 71 72 75 79 81 84 94 98 103 108 113 111 110 114 118 113 111 104 100 94 95 91 86 97 128 165 176 165 156 140 152 160 160 150 139 128 129 116 29 11 27 24 23 41 56 51 84 105 112 117 111 105 91 99 122 115 121 56 58 60 71 65 56 55 38 58 26 31 20 59 90 53 82 83 111 124 133 134 138 140 146 154 162 163 163 166 165 155 141 137 152 152 126 102 83 84 81 75 77 79 75 82 91 91 91 92 87 92 90 91 87 91 104 115 113 123 149 169 174 167 165 154 155 156 150 144 128 124 123 58 10 17 22 24 19 34 35 41 51 92 113 109 114 112 98 89 101 119 121 70 60 60 68 51 55 48 31 53 23 19 25 59 95 81 52 75 94 108 121 132 120 136 140 149 159 160 164 162 160 149 145 149 157 164 162 145 130 128 120 121 129 127 128 128 138 134 128 126 115 136 138 138 131 126 127 129 128 137 161 172 169 169 168 163 154 150 143 131 125 123 73 17 18 19 17 22 24 25 37 41 40 56 101 117 110 115 111 98 89 101 118 63 64 58 49 35 37 29 34 39 21 10 18 64 88 99 85 48 76 86 104 122 113 115 136 141 151 157 160 164 158 154 152 160 164 165 170 174 154 143 139 139 147 144 155 168 178 176 181 174 153 163 159 148 137 130 134 134 137 155 168 169 166 167 167 157 154 144 131 124 122 90 16 19 23 22 17 19 22 21 30 26 37 38 55 108 118 95 125 113 103 92 105 61 65 41 33 30 22 32 37 41 16 14 16 61 88 96 101 79 55 62 87 101 111 117 126 131 140 148 154 153 159 162 163 173 174 171 171 174 164 156 143 139 143 134 143 151 161 163 168 159 149 153 147 138 136 127 127 136 148 161 168 168 166 166 156 153 147 134 126 117 108 31 14 22 23 23 19 15 20 21 24 35 25 43 46 53 105 113 98 123 107 102 94 52 42 38 34 23 25 32 30 36 13 13 14 61 83 94 96 95 79 52 65 83 96 107 118 127 132 142 149 152 161 163 171 173 176 177 168 173 167 160 147 138 136 131 129 134 137 142 150 141 139 140 131 125 120 119 127 144 152 159 161 163 163 160 155 152 148 131 119 111 75 10 18 26 22 28 18 16 18 20 22 25 27 35 41 34 49 99 103 105 114 113 105 42 33 35 37 25 26 27 24 34 12 14 14 64 77 91 96 95 87 77 49 61 76 92 106 113 125 131 139 151 153 165 165 168 171 172 170 166 167 164 152 147 130 122 118 120 115 118 121 118 118 120 116 113 113 126 135 146 152 154 158 160 160 156 152 149 143 127 108 87 78 28 16 30 25 28 19 16 18 22 21 26 27 32 39 41 30 49 78 87 104 107 116 39 32 34 33 25 26 22 27 25 12 11 15 58 79 90 95 96 87 85 67 50 53 72 95 105 107 122 134 140 149 150 162 166 165 164 162 166 164 160 148 147 136 127 120 114 108 105 102 103 106 107 108 116 125 134 139 146 153 155 154 157 159 156 156 148 136 114 86 82 90 46 10 28 28 30 16 15 19 24 20 22 27 25 27 46 36 45 42 47 69 89 93 45 39 30 29 23 22 23 31 13 14 8 21 60 78 89 91 94 93 87 76 62 47 50 75 97 104 116 122 138 140 149 151 157 161 159 157 155 155 154 146 147 138 138 133 126 122 119 119 111 110 122 127 132 137 145 147 149 154 156 155 155 156 157 158 143 124 92 80 92 93 68 11 30 30 32 18 17 19 25 18 19 26 25 31 36 36 43 33 37 31 52 83 42 39 30 28 19 23 24 27 14 13 9 19 60 76 91 88 92 94 88 82 64 56 44 54 72 94 109 119 131 142 149 155 153 153 149 154 149 152 150 154 144 123 133 135 136 134 132 127 125 126 130 144 144 147 154 155 154 158 159 160 159 161 160 152 132 98 86 99 99 92 80 14 27 37 29 23 17 20 25 25 18 27 24 28 31 32 40 26 30 38 43 40 45 48 31 29 27 25 23 24 18 12 10 17 60 75 94 87 95 92 87 87 68 60 53 51 49 73 97 113 124 134 152 157 158 158 157 158 158 156 152 153 151 136 140 147 149 145 151 142 145 137 139 154 161 160 162 162 165 165 162 162 166 166 161 147 105 86 100 109 104 93 82 15 32 34 36 23 18 22 23 23 18 26 26 27 33 31 36 41 26 27 38 30 39 44 40 30 28 20 26 23 17 15 11 28 57 74 88 94 96 93 90 86 74 67 54 55 42 52 70 93 116 129 149 161 168 165 165 163 161 160 161 163 163 160 166 171 175 168 167 163 160 154 156 168 178 173 173 169 170 164 169 171 168 164 155 125 85 99 113 112 110 92 85 17 31 34 37 23 15 24 28 25 21 27 27 23 26 38 28 34 29 30 32 30 48 45 47 32 23 29 28 23 20 19 14 36 54 74 93 94 99 94 94 82 81 69 61 52 51 46 44 59 79 119 131 152 170 171 171 170 174 175 173 167 166 170 172 182 185 183 175 178 175 172 174 169 181 170 171 172 172 170 169 169 168 159 135 91 95 113 114 115 112 96 74 19 33 34 35 25 18 34 29 27 22 28 25 32 34 30 31 21 27 34 36 29 43 53 48 38 23 28 30 26 27 16 24 35 49 74 87 96 100 97 93 87 82 74 61 55 49 51 46 40 51 79 100 140 157 171 174 180 178 181 180 180 175 175 181 176 185 192 185 182 185 180 187 176 174 171 174 173 164 161 159 162 163 147 102 91 114 119 118 120 111 94 66 17 37 34 38 25 18 38 29 32 29 30 26 29 27 37 32 26 27 24 23 27 49 44 53 37 23 29 33 29 26 23 26 39 47 71 81 95 101 101 97 92 86 74 68 60 49 52 52 49 40 47 66 98 133 152 162 170 171 176 181 181 181 177 178 179 184 187 186 181 181 176 178 174 166 168 172 160 159 157 154 150 148 113 76 108 120 122 125 116 118 95 53 21 34 39 35 26 22 32 36 35 29 34 30 34 28 28 36 31 33 35 23 23 44 57 52 41 19 30 34 35 26 26 29 39 41 65 82 83 105 103 102 97 84 82 73 64 57 50 50 52 46 45 43 55 99 128 150 156 144 155 166 172 176 175 168 167 171 174 173 171 167 161 158 163 158 163 163 149 150 148 151 139 122 89 102 119 122 124 123 120 113 91 46 24 33 37 36 24 31 33 38 41 34 41 35 26 32 40 30 26 29 28 28 30 39 54 42 48 17 31 29 35 28 30 25 41 35 67 79 93 101 106 103 98 96 83 77 71 60 52 53 48 50 46 48 41 51 88 122 133 135 135 142 161 162 163 154 156 160 154 153 149 138 138 137 144 146 151 147 134 141 137 132 110 85 100 120 124 127 123 123 119 112 88 35 30 36 33 34 22 32 36 50 41 43 36 36 40 33 34 34 27 21 27 24 34 38 57 52 48 22 26 30 34 30 30 33 35 31 59 79 94 100 101 105 102 101 90 84 80 62 59 54 49 52 51 51 48 45 33 79 98 112 132 133 145 143 140 140 141 140 129 137 139 132 125 130 133 137 133 121 123 121 116 96 80 102 114 123 127 130 124 121 120 110 79 31 32 36 34 34 24 34 44 38 50 40 51 42 32 42 38 32 28 32 26 27 24 54 45 57 58 24 18 28 34 32 32 29 37 31 52 76 95 99 106 104 102 103 96 89 87 69 60 53 54 48 53 55 51 50 45 43 49 75 96 108 123 124 126 121 120 120 118 118 115 117 116 108 110 107 107 99 98 88 85 77 99 115 119 129 125 128 125 122 120 104 60 29 34 37 31 29 29 39 36 44 44 34 43 49 47 32 41 35 35 40 33 28 30 59 54 44 57 40 14 33 29 37 35 29 36 27 46 72 93 97 105 108 104 106 102 92 87 81 63 60 52 53 52 54 54 48 52 49 45 46 50 69 82 92 97 94 91 92 95 92 93 87 84 84 75 77 74 69 70 75 78 93 111 118 126 126 129 128 124 120 118 96 40 31 37 32 33 26 24 48 41 46 53 50 40 39 43 47 31 35 37 35 40 32 45 45 49 44 53 56 15 27 28 34 35 30 36 27 31 73 86 95 107 110 114 104 107 98 92 86 73 63 56 58 50 54 55 50 50 49 51 47 39 43 41 53 54 59 59 56 60 58 54 54 45 63 58 66 63 66 75 79 89 101 116 125 129 127 127 129 120 118 113 74 30 31 36 31 32 21 37 41 53 45 44 48 51 55 41 41 41 30 32 34 34 36 44 53 59 38 52 64 23 19 26 34 33 33 34 31 28 58 86 95 103 108 115 114 108 106 101 89 82 69 65 56 54 51 49 52 54 50 50 48 45 43 44 41 45 37 41 43 40 47 43 51 49 68 65 69 68 76 71 88 98 112 120 128 127 128 130 123 120 119 103 47 23 37 36 33 26 26 40 41 36 64 48 51 43 43 49 43 42 42 38 41 41 37 37 