P2
92
112
255
124 125 125 126 125 129 128 125 126 126 123 126 126 124 126 127 124 128 129 125 128 128 125 120 116 116 123 130 121 118 132 132 133 130 132 121 130 119 118 104 100 108 93 107 114 116 118 119 135 141 138 147 149 144 139 124 120 106 112 110 107 113 120 124 129 125 127 125 125 125 125 125 128 123 125 127 122 127 124 126 125 121 126 123 123 123 127 123 125 125 124 125 126 126 126 125 125 129 126 125 128 124 126 123 126 125 127 126 123 126 127 123 125 122 118 112 109 120 121 132 126 120 128 130 128 128 122 115 121 118 120 112 100 107 108 95 97 111 116 117 127 131 131 140 141 139 131 134 125 109 119 115 114 110 109 111 121 122 127 123 127 128 124 124 126 125 125 127 124 128 129 123 126 124 126 124 125 123 125 124 123 127 122 123 126 126 126 125 125 128 127 127 127 125 127 126 125 126 124 126 124 125 125 122 116 117 109 116 114 111 129 132 136 122 122 124 122 116 112 106 104 111 111 97 99 103 111 88 90 112 109 115 115 123 134 144 148 147 142 143 128 127 127 134 124 117 109 110 113 120 123 124 123 127 125 125 128 124 126 124 126 127 125 126 127 126 129 125 123 126 122 124 125 126 124 126 124 123 124 128 123 125 128 126 128 124 124 124 125 125 126 124 126 123 118 113 100 107 107 103 120 141 136 134 128 134 127 126 125 116 110 106 96 99 106 89 96 95 103 83 77 84 95 106 112 133 144 145 138 135 138 128 124 133 142 147 124 118 113 109 119 128 121 126 129 125 128 127 126 124 130 126 132 130 124 125 129 126 125 125 124 123 123 126 125 125 124 127 125 123 127 125 128 126 127 125 127 126 125 126 125 125 121 127 126 115 117 106 109 113 116 127 139 147 140 134 127 120 124 114 110 116 113 103 87 84 90 91 85 85 86 86 64 76 91 95 109 115 123 120 132 131 131 125 135 140 142 146 132 118 114 115 124 122 125 128 125 126 131 131 128 121 129 124 128 127 128 126 127 124 124 123 126 124 125 124 126 123 126 127 126 128 125 126 124 127 126 127 124 127 126 129 122 128 124 123 120 113 114 122 125 126 128 146 145 139 132 129 126 121 115 114 105 104 102 107 102 83 90 82 92 76 64 89 58 72 99 110 113 112 117 115 118 124 131 132 139 144 141 132 125 115 118 107 116 126 126 125 120 127 128 126 127 123 127 133 130 133 131 119 126 124 125 122 126 125 125 125 124 124 125 124 126 126 125 129 124 128 125 129 131 122 130 122 126 124 126 110 110 114 119 126 129 136 139 145 144 138 129 130 123 115 109 109 100 102 92 92 84 76 95 93 78 78 55 86 90 97 123 117 106 106 106 103 112 116 127 120 134 142 137 137 118 111 116 112 109 123 132 134 119 127 125 129 133 117 124 132 141 137 125 123 122 128 125 126 124 123 124 125 123 126 125 124 126 127 124 128 125 126 123 130 126 124 125 124 124 123 111 111 112 121 128 124 127 127 140 146 146 139 133 134 130 116 106 100 98 94 94 97 77 63 78 103 92 71 58 80 107 94 99 100 98 99 103 122 128 119 117 122 134 132 135 131 117 119 113 110 115 110 138 135 120 128 121 128 133 118 127 131 135 130 125 129 123 126 125 127 124 125 127 125 126 125 126 126 127 126 126 126 125 125 125 127 125 126 125 119 120 115 108 113 110 124 130 131 137 135 128 136 137 146 140 135 122 123 109 100 94 89 79 92 94 79 74 84 107 76 60 85 91 109 85 95 102 121 125 141 135 136 133 130 133 134 139 140 127 111 104 115 116 102 132 127 117 128 126 132 135 123 137 126 128 130 123 139 129 123 126 124 125 124 126 125 125 122 126 125 125 125 126 125 128 128 124 126 127 125 123 119 109 108 103 107 123 136 136 142 146 141 132 130 132 127 139 142 131 111 100 94 96 81 76 74 81 75 73 78 99 86 72 89 76 104 88 102 113 126 129 134 135 142 142 143 141 145 142 135 123 116 109 111 115 106 120 111 119 117 129 126 140 135 131 126 128 131 129 146 124 128 125 124 125 124 123 127 126 126 125 123 128 125 124 127 125 133 125 129 128 127 125 126 102 96 106 104 115 128 137 145 138 131 135 130 129 122 112 131 129 116 113 94 83 79 77 74 78 75 76 80 93 86 92 92 89 101 101 99 102 109 116 129 130 127 133 137 139 148 151 148 140 124 125 116 111 111 106 112 118 113 128 130 138 137 119 125 123 127 142 137 124 124 125 125 125 124 124 124 124 123 125 127 125 124 123 125 125 133 122 130 127 127 131 126 110 100 110 115 114 129 134 144 139 137 132 121 118 118 113 105 118 104 104 104 89 87 83 78 84 79 79 83 99 100 97 103 100 115 106 101 104 117 121 122 127 116 117 118 120 134 141 144 127 128 113 118 114 109 111 116 111 121 121 129 141 124 116 128 118 126 136 127 124 122 123 125 125 125 123 124 125 123 125 127 122 124 127 123 125 128 120 125 133 129 122 125 118 110 117 117 117 125 127 136 140 138 131 123 114 113 105 102 97 109 103 99 103 92 89 94 94 86 89 94 105 114 102 104 104 108 101 104 114 119 125 119 115 114 113 120 122 117 120 121 131 130 116 112 107 102 111 114 110 130 129 126 121 115 120 122 119 139 126 121 126 123 124 125 125 122 124 125 124 122 125 126 119 122 128 124 122 129 124 121 126 125 114 119 124 109 112 116 109 116 115 126 130 128 121 118 121 118 118 121 111 113 122 119 118 104 97 104 95 111 97 103 115 120 118 121 119 104 99 101 113 121 129 108 104 105 112 112 113 122 116 108 119 126 131 116 109 113 124 122 120 127 116 111 112 112 126 119 125 131 120 120 126 121 123 122 125 126 122 126 125 123 126 124 119 128 124 123 125 127 125 125 122 124 117 114 128 119 107 114 111 115 107 128 130 127 122 113 112 116 126 129 132 143 150 137 127 117 109 115 118 119 112 109 122 120 130 129 124 121 104 110 117 118 122 118 117 112 121 122 124 125 119 108 118 115 130 126 115 119 126 121 115 111 110 110 116 111 112 117 115 114 114 110 118 121 121 124 123 127 123 123 126 124 125 124 125 124 126 120 127 121 126 124 126 119 125 113 134 130 110 109 123 118 114 123 127 130 120 128 123 126 127 128 136 153 150 141 135 132 132 138 139 128 127 130 129 132 141 141 139 137 121 126 125 128 127 121 124 123 118 122 117 135 125 116 118 115 116 133 109 108 114 124 122 116 125 121 119 117 119 115 115 106 105 103 97 107 122 124 123 126 123 125 124 125 126 124 122 118 121 126 123 121 122 119 120 120 114 113 125 118 105 108 122 121 117 119 115 119 125 130 130 127 122 132 135 147 144 142 149 148 150 153 151 138 145 148 145 151 157 161 165 159 147 142 138 141 144 140 138 135 129 129 125 122 128 129 134 123 109 117 111 89 101 109 109 107 114 116 125 133 133 125 122 112 97 98 100 102 118 123 123 122 124 124 125 123 124 126 119 120 120 123 119 116 114 109 107 120 114 114 109 100 102 109 109 118 115 115 121 126 130 134 137 136 130 135 143 149 151 156 171 161 158 158 161 151 162 168 165 163 167 170 170 171 167 159 153 156 157 152 149 145 142 140 136 135 131 128 141 135 117 126 107 93 83 93 97 100 105 108 122 126 129 127 117 116 98 90 97 95 111 125 118 124 121 122 126 122 123 127 116 118 115 120 114 112 112 115 102 111 117 107 110 102 104 113 118 112 116 123 127 135 136 143 146 145 143 131 142 143 152 160 158 158 162 166 167 164 174 177 181 174 178 176 180 177 178 174 171 167 170 164 161 161 152 146 147 139 138 131 132 144 134 136 120 101 83 79 91 90 98 105 114 129 132 129 130 114 110 94 93 90 94 114 120 123 123 124 123 124 122 126 115 114 121 116 111 117 108 108 110 106 115 108 106 102 103 110 121 124 131 136 145 148 148 159 163 153 158 145 143 153 159 161 166 167 176 177 171 174 177 183 187 184 184 182 185 182 184 185 182 178 177 170 172 169 168 157 154 146 146 146 132 145 145 142 133 129 90 66 83 77 87 91 108 121 131 132 135 127 107 100 94 81 88 102 118 121 124 124 122 125 123 121 110 119 120 116 129 122 112 105 116 123 123 117 116 109 101 124 138 140 144 147 157 157 166 168 173 163 167 161 150 170 177 177 181 180 184 182 182 181 188 188 190 191 189 187 192 186 189 188 186 188 186 181 178 178 178 170 167 153 150 152 145 143 148 148 141 136 128 98 52 70 77 77 93 96 113 119 122 110 102 93 94 86 81 108 116 119 123 123 120 125 122 122 107 116 113 117 116 118 106 104 106 118 123 115 111 101 126 147 153 153 156 158 164 168 169 178 180 180 179 178 168 180 184 184 185 181 185 187 187 191 189 192 192 194 192 190 193 189 192 192 190 191 188 188 186 186 182 180 175 169 162 161 151 150 152 149 150 145 136 131 94 51 71 91 88 100 102 107 114 111 96 85 84 100 81 109 122 123 117 124 121 121 122 121 108 105 114 107 89 84 96 113 118 121 121 113 98 126 150 156 157 160 164 169 176 173 176 183 181 186 185 185 185 183 187 188 189 188 190 192 193 193 192 194 196 194 194 191 193 196 194 193 191 190 189 191 190 189 185 184 179 178 171 170 166 158 154 156 149 155 145 133 133 94 62 64 103 115 124 127 126 124 92 86 73 91 91 110 117 123 120 124 119 123 121 122 108 108 109 96 80 95 110 119 122 115 114 103 123 148 156 157 162 162 167 169 174 174 182 182 185 187 190 190 192 193 194 193 192 193 195 195 197 197 196 194 199 197 197 198 195 194 197 194 194 192 192 193 192 191 187 183 182 184 179 178 177 172 161 154 150 156 153 142 136 128 99 66 65 95 107 117 119 114 93 83 74 81 92 106 121 119 122 123 121 121 122 122 108 118 107 84 80 93 98 119 126 110 109 125 147 156 160 155 161 166 169 172 180 177 183 186 184 190 192 194 196 199 199 194 193 197 199 193 197 196 199 197 198 199 198 200 198 196 198 196 197 197 195 192 195 191 188 186 182 186 185 179 177 178 168 162 156 155 155 149 140 133 123 100 60 69 75 93 93 93 84 75 77 77 95 116 121 120 120 122 121 122 123 121 103 122 106 87 79 68 100 111 101 128 137 144 154 157 161 158 163 169 175 174 183 183 185 190 186 189 194 196 201 201 199 198 199 200 200 197 196 195 199 199 199 200 199 200 198 200 199 198 198 199 196 195 197 192 190 187 186 188 184 179 177 178 172 164 163 160 158 150 143 138 136 131 97 63 52 70 76 83 74 68 71 82 87 116 124 122 118 124 120 123 122 123 107 114 105 78 66 84 92 98 130 151 140 151 157 161 159 166 170 173 176 178 182 186 190 188 194 192 198 198 201 200 200 201 200 201 199 198 198 200 198 198 201 199 201 200 199 200 199 198 195 200 195 196 198 197 195 190 188 190 187 186 178 177 178 172 162 165 160 156 149 141 137 135 140 95 56 70 101 86 89 78 84 80 67 110 121 122 118 121 120 122 121 121 107 112 112 76 80 69 83 110 140 143 142 155 160 164 159 167 171 174 177 181 185 189 190 194 195 194 197 199 200 200 200 200 200 200 199 197 199 201 199 198 199 199 200 201 199 199 202 199 198 197 197 195 196 197 194 191 190 186 187 186 178 178 178 176 172 173 164 158 151 144 137 139 140 125 83 67 95 113 99 94 87 69 73 103 123 120 123 121 120 121 121 119 105 107 108 87 69 65 99 126 148 138 148 156 163 163 163 167 171 177 178 184 188 189 193 194 195 195 196 199 200 200 202 198 200 201 199 198 198 200 199 196 198 198 202 201 200 199 200 197 200 198 199 195 197 197 196 194 193 188 185 187 179 179 180 177 172 174 166 164 149 147 140 139 141 140 107 78 86 108 128 101 100 76 80 104 120 123 120 122 119 123 120 123 103 105 108 87 60 83 112 138 140 138 152 162 166 165 164 170 178 177 183 186 188 190 191 193 194 193 196 197 197 198 199 199 195 198 200 201 196 199 198 196 200 197 200 200 200 200 199 201 198 200 196 198 195 196 193 199 191 190 184 189 185 179 183 178 178 176 168 163 157 143 143 139 140 145 132 97 84 100 125 122 91 89 85 110 118 120 119 122 120 120 120 118 104 105 107 93 67 92 128 144 141 140 156 164 164 165 168 171 176 180 186 188 186 191 191 193 192 189 194 194 194 197 197 198 183 188 201 201 201 198 199 197 201 199 198 199 199 199 199 200 199 200 196 199 198 194 197 195 193 190 188 190 186 183 186 184 179 177 170 165 157 151 144 142 143 144 143 121 96 106 104 133 85 81 84 103 123 119 119 119 121 117 122 119 105 110 109 91 71 108 141 144 138 141 158 164 165 169 172 170 176 185 184 185 187 187 189 190 189 189 191 193 192 195 194 197 177 189 199 202 200 200 197 200 199 200 199 199 200 198 199 197 198 198 199 198 195 197 194 195 192 193 188 189 189 185 187 183 182 177 174 162 155 154 147 141 144 148 142 131 110 119 102 108 110 67 73 93 120 119 118 118 116 117 121 119 103 109 110 70 83 119 140 142 140 144 157 166 163 167 175 168 176 182 183 184 186 186 190 192 189 187 193 192 192 194 195 193 192 193 200 202 198 200 199 200 199 200 198 199 198 197 200 199 196 199 197 195 193 194 191 193 192 189 192 188 190 191 183 186 184 179 172 160 154 151 149 142 141 144 148 134 125 125 121 104 106 78 69 74 109 117 118 120 117 117 119 118 105 109 96 63 94 124 145 140 138 148 157 167 168 170 167 174 173 182 182 183 186 191 190 191 188 190 193 191 193 191 193 192 197 195 199 200 200 199 198 196 198 196 195 196 196 198 199 199 197 198 195 195 194 193 190 194 192 191 188 191 191 192 187 185 186 176 170 164 153 153 148 142 145 145 143 143 122 126 125 107 105 85 73 70 99 117 116 119 115 117 118 118 105 105 83 68 100 132 142 139 138 145 154 168 170 172 172 172 176 182 183 185 185 190 191 192 190 192 191 191 189 194 191 193 194 198 200 196 200 199 197 197 196 196 196 196 193 197 194 197 196 195 196 195 196 192 191 192 190 191 190 191 192 192 188 188 187 175 172 167 154 151 147 146 143 145 142 141 127 114 121 99 112 108 83 72 84 115 116 116 115 119 117 117 108 103 65 81 104 139 141 137 132 147 156 166 170 172 171 176 179 177 183 181 188 189 190 193 190 193 193 193 193 191 192 194 194 195 196 200 198 196 196 195 198 195 195 194 196 195 193 196 195 192 193 193 192 194 188 191 191 189 192 189 191 191 188 187 185 180 171 165 153 153 144 145 149 144 141 140 131 115 111 85 100 116 112 68 74 109 115 117 114 117 115 118 105 97 66 80 114 138 139 135 134 145 157 166 170 172 176 176 179 177 181 184 186 190 193 190 190 191 187 191 193 192 194 194 193 194 194 198 199 197 198 194 194 196 195 195 195 195 194 192 193 191 192 188 192 187 187 187 188 185 191 192 189 189 186 184 181 180 169 164 157 150 145 146 148 144 136 135 131 121 109 89 82 89 110 85 74 103 116 115 112 114 115 117 106 91 65 89 125 138 134 135 131 147 154 162 167 173 174 173 175 179 181 181 188 190 189 188 190 191 188 189 192 191 193 194 193 192 195 197 200 198 197 195 195 198 195 197 197 194 196 194 194 192 193 193 192 190 185 187 184 184 185 188 186 185 185 184 181 176 168 162 155 151 145 145 148 143 133 133 129 122 114 106 67 70 77 102 76 99 118 113 114 115 116 115 107 90 66 94 124 137 132 132 129 141 149 161 165 173 172 173 176 174 182 182 183 188 187 187 191 193 191 191 191 194 194 198 194 195 196 198 200 194 199 193 196 197 197 198 194 196 196 195 195 195 191 195 193 191 188 187 183 183 186 183 183 178 182 183 176 172 162 159 154 150 144 149 148 143 136 136 131 121 113 114 74 61 51 92 83 92 117 114 114 114 114 115 107 90 68 98 125 131 129 130 128 133 149 158 161 171 168 168 166 172 180 182 182 184 191 192 194 194 195 195 192 195 199 201 199 197 198 200 198 199 197 198 196 199 197 199 198 198 195 198 198 199 197 195 196 192 190 187 185 179 184 182 175 178 179 177 171 167 161 159 157 147 146 149 146 144 133 133 135 129 109 117 74 57 49 78 79 104 117 112 113 113 115 115 109 89 72 103 124 129 130 131 125 132 144 155 162 167 168 164 167 169 177 184 186 184 193 196 196 196 197 195 196 197 198 201 200 200 200 200 200 200 199 198 196 197 197 198 197 199 198 197 199 200 199 195 194 191 191 184 189 184 181 180 176 180 176 174 170 164 159 155 153 147 148 144 147 142 131 133 133 130 115 112 89 52 45 73 74 107 114 114 114 114 109 117 105 88 82 99 120 131 127 127 127 127 137 151 158 163 166 164 160 171 173 182 184 185 190 196 195 194 197 197 197 197 192 199 200 198 200 200 200 200 196 198 196 197 198 193 195 192 195 196 194 191 193 188 185 181 181 176 183 180 175 173 174 175 175 170 169 163 154 152 147 150 144 146 145 138 134 133 137 130 115 115 101 59 51 58 65 104 114 111 113 112 113 114 108 92 81 102 124 126 125 127 126 127 133 144 156 159 164 166 164 171 172 179 181 181 186 186 184 180 183 187 190 192 190 195 196 198 198 199 199 198 199 198 191 193 195 187 189 184 180 179 172 167 162 158 146 139 144 155 165 158 163 168 175 169 168 172 171 162 154 149 148 146 145 143 147 137 129 132 136 129 119 119 110 68 52 58 51 100 115 113 112 115 112 114 107 91 77 98 119 127 120 130 126 123 129 144 154 158 161 167 167 158 163 170 157 149 155 152 149 152 158 166 177 182 182 184 193 196 193 195 196 195 194 195 192 187 191 183 183 180 174 167 151 152 154 144 134 134 123 122 138 134 137 156 174 167 167 168 167 170 151 147 144 144 146 148 144 137 135 133 133 133 115 114 108 86 58 46 48 90 120 111 113 112 112 116 105 97 69 103 112 121 123 126 126 120 128 145 151 159 160 161 152 146 150 138 133 132 136 131 129 132 138 141 156 171 172 174 185 189 189 189 195 193 188 187 194 188 183 179 173 183 168 156 144 139 139 130 129 120 113 112 102 111 114 142 167 151 153 168 161 164 159 146 144 142 146 151 143 134 138 133 135 135 117 112 99 102 73 46 46 88 119 109 110 114 111 112 107 89 91 97 110 117 123 125 125 121 122 146 152 161 152 149 139 141 127 125 130 131 135 129 124 132 136 128 144 158 163 172 176 180 182 182 189 187 183 183 182 185 175 170 170 171 156 154 142 133 129 125 116 107 101 105 110 106 118 130 158 153 140 156 150 148 156 153 143 141 147 149 139 138 135 137 135 135 120 112 104 87 94 49 47 89 117 115 110 110 113 111 105 97 98 90 105 116 123 125 128 122 122 148 150 154 143 130 122 111 108 108 113 116 118 119 128 122 133 124 134 145 145 165 165 170 180 181 183 183 180 181 181 173 167 165 162 158 148 147 143 135 131 128 118 116 128 136 143 142 142 158 158 160 157 148 154 148 152 149 137 142 149 146 140 140 135 140 136 132 121 116 101 84 91 63 47 88 118 112 112 112 113 111 103 102 94 97 102 116 122 123 129 124 131 139 149 135 128 124 115 105 91 88 100 104 109 110 119 123 124 123 124 131 139 154 161 167 176 179 183 184 187 181 186 176 167 162 153 134 144 138 133 132 130 128 127 133 140 150 156 158 161 166 168 163 159 159 165 148 148 142 133 138 149 146 144 140 135 142 138 126 121 121 98 89 79 72 63 77 116 113 111 112 113 111 103 100 89 97 108 116 121 123 128 125 127 133 127 114 118 120 120 114 103 109 113 116 115 114 112 115 113 115 115 117 124 138 149 163 172 186 182 195 193 186 182 169 158 156 143 126 132 132 131 125 126 124 124 130 138 142 150 154 158 159 166 169 162 167 162 157 156 149 125 135 145 150 143 141 136 142 137 123 125 114 100 74 83 62 74 82 115 111 109 111 112 113 102 100 86 98 108 115 117 123 128 127 120 121 127 124 127 136 139 133 126 134 131 128 126 113 107 102 101 102 107 108 110 121 130 150 173 188 193 196 196 193 185 172 162 145 136 125 135 131 132 131 133 126 127 132 137 138 143 148 140 139 149 159 161 161 157 154 153 150 132 130 145 150 147 143 139 142 140 119 122 113 98 67 69 65 63 82 111 114 110 110 113 112 101 99 85 95 109 115 118 123 129 122 115 127 130 136 136 135 141 136 131 128 126 119 120 116 108 99 93 93 93 99 101 104 111 142 176 193 197 199 197 193 188 176 160 141 134 133 140 137 132 141 139 135 136 143 131 155 149 162 147 149 133 130 146 157 158 154 155 153 139 129 138 153 147 142 141 140 137 117 123 121 89 67 57 85 58 65 112 114 109 110 110 114 98 105 74 92 102 113 118 125 128 122 119 131 130 130 138 136 134 129 122 124 127 132 141 134 141 135 116 104 92 98 96 101 98 134 178 194 197 199 199 195 191 178 159 146 142 146 148 144 144 142 136 130 118 110 88 97 93 97 121 131 130 147 115 124 151 158 155 156 150 136 143 146 148 143 142 137 131 120 115 120 96 70 68 76 59 48 112 115 110 110 112 114 102 104 71 89 100 109 123 125 131 120 117 128 136 133 131 128 116 118 126 132 141 136 125 120 132 148 131 138 124 103 95 98 99 132 180 190 198 198 200 197 189 180 160 155 150 154 155 154 152 141 122 115 129 99 94 61 136 74 59 99 105 130 133 123 126 155 157 156 154 147 147 146 148 145 142 135 130 114 117 112 98 80 69 66 62 44 104 115 109 112 110 111 101 102 66 86 99 105 121 125 133 125 112 127 134 132 124 107 108 125 117 98 88 80 62 87 63 113 115 139 144 135 108 95 110 137 183 192 197 199 200 199 192 184 164 164 154 163 172 164 147 118 110 135 171 110 105 47 116 100 68 110 111 89 96 118 124 138 162 161 162 156 151 149 147 148 140 135 127 122 114 107 93 76 68 60 56 49 106 112 109 112 111 110 102 105 69 95 97 104 118 128 132 126 114 120 128 131 114 101 130 98 98 86 69 77 32 203 69 105 141 118 112 126 123 114 126 150 179 195 198 192 198 198 190 182 167 168 164 163 175 170 141 114 137 152 190 118 107 76 54 101 87 139 134 97 70 87 109 137 154 163 166 160 157 150 148 145 141 140 125 129 108 89 87 78 69 56 55 50 107 114 108 111 109 112 100 101 83 81 96 106 112 126 131 128 122 121 131 132 112 108 104 81 125 101 91 67 31 89 93 114 174 207 139 101 120 137 138 150 173 188 191 193 195 195 188 178 172 167 174 179 167 176 169 161 148 159 173 158 143 119 121 119 120 149 148 127 117 104 104 117 150 160 171 166 164 158 147 149 142 139 132 117 109 83 71 87 79 62 49 61 109 111 107 108 111 112 104 100 87 69 94 99 111 128 133 128 123 130 133 125 112 97 68 85 133 128 90 96 71 98 108 117 164 171 170 124 136 152 143 148 166 181 190 190 194 189 187 175 171 172 176 181 181 169 165 157 157 161 165 168 177 155 173 158 147 148 152 144 149 149 133 135 150 162 175 177 172 161 151 150 144 139 138 110 92 88 77 88 78 69 64 83 110 108 105 108 107 110 102 94 88 62 84 92 108 125 136 130 123 129 135 116 104 93 107 111 132 144 123 129 137 146 165 161 161 164 150 137 153 152 151 151 157 178 184 189 192 186 184 173 171 173 173 179 179 184 173 167 161 156 160 164 166 158 167 164 170 169 168 163 170 170 163 161 177 175 182 185 178 170 153 147 150 141 138 115 89 82 87 88 74 110 143 146 142 121 105 106 109 109 103 93 77 70 72 87 105 128 134 129 128 130 129 117 117 115 124 128 133 130 141 143 144 162 159 163 152 158 152 155 158 154 153 151 151 171 183 190 195 186 176 174 168 170 173 174 178 181 178 182 186 176 165 159 155 159 166 168 172 177 177 175 181 181 179 181 186 186 185 186 179 169 158 149 152 141 138 114 85 88 67 91 112 155 168 139 125 143 136 95 108 109 101 98 64 81 71 83 105 129 133 134 143 140 142 141 142 134 143 149 156 162 160 163 160 160 149 151 162 169 165 160 156 152 155 150 149 173 186 195 195 190 178 172 172 167 172 174 175 176 174 180 186 192 190 183 163 162 155 150 155 161 168 171 177 182 185 191 186 192 186 184 178 173 156 148 154 144 141 119 78 81 76 106 150 157 134 95 76 106 147 114 104 107 98 99 76 74 76 79 101 124 133 138 152 157 164 166 159 152 159 157 159 166 152 149 150 145 153 168 178 179 169 158 154 154 151 146 152 174 189 198 194 194 184 177 170 166 167 179 170 174 173 177 184 188 193 194 191 190 189 181 182 179 182 184 187 193 190 193 191 191 190 182 181 171 157 145 156 141 141 121 79 76 95 135 146 144 119 110 99 74 129 138 98 105 97 102 105 77 68 78 92 125 131 136 155 168 176 171 171 162 150 146 149 149 151 152 171 170 180 178 180 177 165 155 157 145 146 152 157 177 192 206 196 192 188 182 180 165 159 171 176 176 175 178 187 187 193 196 195 192 189 191 193 194 191 193 195 197 198 196 195 191 192 183 182 173 161 145 153 141 136 126 85 87 141 145 140 145 148 122 123 109 111 159 104 103 95 117 143 107 72 70 87 124 133 139 157 176 175 178 184 183 173 179 180 178 180 174 183 183 186 183 179 172 162 156 156 142 144 155 167 180 197 201 198 191 192 188 184 168 162 158 170 178 176 181 186 189 191 195 193 195 194 191 189 195 190 195 198 197 200 201 196 192 189 186 180 174 161 142 143 141 135 124 95 121 157 147 162 167 162 135 121 129 115 178 96 100 112 119 116 141 96 64 76 121 133 143 159 174 177 183 189 189 185 190 190 191 184 180 184 187 189 185 179 172 164 161 150 139 143 159 171 188 196 198 199 195 193 187 190 176 163 165 157 171 177 184 187 191 194 194 194 195 196 196 194 195 190 193 196 195 201 199 198 190 192 186 182 173 161 142 137 137 137 122 112 136 164 135 156 173 164 147 119 128 104 183 112 98 126 104 44 90 128 87 63 116 137 143 160 174 180 186 191 192 188 194 193 190 187 186 189 188 188 183 183 175 168 158 143 139 149 164 176 189 196 197 196 201 200 194 184 174 166 163 171 159 170 188 190 194 198 194 196 200 197 195 195 198 191 192 192 193 197 198 192 194 195 186 184 175 161 140 137 135 131 119 132 157 144 159 163 154 156 151 116 135 106 167 131 91 130 84 55 65 93 111 68 111 130 145 158 171 183 186 190 190 192 190 187 188 190 186 192 188 190 187 183 180 171 146 141 137 149 159 171 186 196 199 197 203 206 192 177 162 164 169 168 167 155 184 192 196 199 198 197 197 199 196 196 200 194 194 193 191 192 195 193 191 189 187 183 179 160 140 134 134 128 121 152 169 99 155 179 159 162 161 118 133 116 174 129 91 134 77 68 71 94 112 100 109 126 148 158 168 176 184 186 185 189 185 185 189 192 188 194 192 189 187 185 183 171 141 145 135 142 146 157 181 190 195 194 198 193 181 155 150 157 168 174 167 155 165 190 199 197 196 200 199 199 200 198 197 195 197 196 190 190 193 192 191 188 185 182 172 162 141 129 133 126 124 169 163 73 113 163 158 178 171 125 127 117 183 130 83 134 80 74 73 114 118 112 111 126 142 154 170 170 180 184 180 179 186 189 191 193 191 194 195 190 190 186 186 150 141 148 132 131 117 136 153 173 181 180 182 179 156 144 126 127 144 167 165 157 147 181 199 194 197 198 198 200 199 200 199 194 197 196 189 191 190 190 187 185 179 178 171 158 138 132 130 122 131 190 159 132 109 146 160 180 189 135 118 128 191 100 92 144 98 83 84 127 141 112 106 119 139 152 162 170 173 179 178 176 184 188 194 193 193 192 193 192 189 189 172 138 137 145 129 111 96 102 118 146 157 157 157 153 136 101 69 51 79 135 155 150 140 174 192 193 192 194 198 199 199 198 198 198 196 195 188 190 188 188 186 184 176 176 168 150 137 131 129 119 135 201 161 170 132 140 155 159 194 152 124 144 168 94 95 151 105 96 104 134 149 140 121 115 134 150 158 167 168 175 180 175 182 188 190 193 192 192 191 191 185 183 153 130 127 136 114 75 62 58 93 119 129 127 132 135 118 104 86 80 84 106 134 135 136 173 189 190 188 190 195 199 198 200 198 196 193 194 193 186 186 188 180 180 178 171 167 146 134 130 129 115 139 197 175 162 162 144 147 151 191 151 132 167 135 85 101 151 109 96 119 138 157 151 127 110 132 148 152 161 169 172 183 178 184 188 189 192 194 189 193 189 187 164 141 126 119 122 96 61 47 51 65 95 108 105 114 123 136 132 144 145 135 107 109 137 147 172 183 188 186 186 189 194 196 198 197 195 192 191 194 185 184 183 179 180 175 169 160 150 131 131 129 113 139 187 171 155 172 159 144 145 179 153 148 174 102 91 98 144 113 95 131 145 153 133 93 100 129 141 151 157 167 167 176 182 181 183 189 190 193 190 189 186 182 155 133 137 122 105 94 74 71 84 94 95 102 99 104 121 140 150 151 150 143 136 141 153 165 168 177 186 189 184 182 190 192 197 197 194 192 190 188 185 183 180 179 175 172 168 159 146 133 130 131 112 141 181 168 179 171 166 143 142 174 154 156 162 88 94 100 131 125 103 132 154 142 124 90 97 123 134 144 159 164 164 173 179 181 181 186 186 187 188 183 181 175 161 144 140 138 105 90 91 88 102 110 110 112 106 113 131 139 154 160 157 152 161 166 165 166 167 175 184 186 186 177 183 190 191 196 194 190 187 184 183 184 182 178 178 164 168 153 146 133 126 133 114 152 177 167 195 177 164 142 144 170 155 158 140 87 93 97 116 145 124 140 155 134 117 101 104 118 132 135 161 166 163 170 174 176 180 185 185 183 181 182 177 175 169 156 152 149 136 112 112 109 123 128 132 139 147 145 152 159 164 169 166 166 164 171 167 168 168 174 179 183 184 186 175 184 190 193 195 189 185 182 182 182 176 173 169 164 165 153 146 134 128 129 113 156 158 146 172 172 152 146 157 157 160 165 113 85 99 97 84 140 136 137 157 122 116 117 126 112 125 136 143 158 160 165 171 169 173 178 184 183 176 180 174 173 172 166 160 162 155 146 142 142 150 156 149 147 162 170 166 170 171 176 177 168 170 167 168 165 172 172 176 173 185 188 185 172 183 191 192 188 184 179 179 178 176 169 166 164 160 154 143 137 128 132 110 159 149 133 170 174 159 163 171 160 170 144 93 93 97 95 84 121 141 129 157 121 122 143 151 109 119 128 136 147 155 162 169 165 170 174 179 179 177 176 170 171 177 166 163 165 162 162 164 162 170 174 163 145 167 177 169 171 175 181 182 172 175 176 172 164 165 174 171 175 181 187 188 175 174 187 190 187 185 178 178 176 176 166 166 165 160 153 145 139 130 128 114 162 158 168 185 183 168 167 169 164 166 125 88 92 98 94 89 98 148 131 155 125 122 158 165 125 114 126 127 138 151 153 165 163 167 169 175 174 180 170 171 172 165 165 159 161 168 170 169 171 180 187 177 172 177 175 167 177 178 182 180 178 179 181 185 172 168 169 168 172 182 185 185 185 172 176 192 187 185 181 178 177 177 163 167 164 158 154 147 137 132 125 115 170 166 184 192 179 174 170 176 167 147 98 91 93 96 93 92 87 133 133 143 153 120 140 162 138 112 122 122 127 139 152 159 163 162 165 169 178 175 172 170 159 152 157 157 160 167 174 175 180 184 192 187 187 181 171 167 175 178 183 179 185 180 182 188 179 182 172 171 170 173 184 184 184 189 175 180 191 186 183 181 179 171 169 165 164 159 154 146 137 131 119 116 180 171 178 186 181 168 177 182 167 106 91 94 94 96 93 93 89 108 145 138 156 148 142 161 143 111 119 122 124 135 149 151 158 163 161 167 175 173 174 168 154 146 151 156 164 169 172 175 183 184 187 185 189 188 186 176 180 174 176 177 177 178 177 182 175 179 178 175 167 169 173 173 180 185 183 172 190 190 179 179 176 171 167 166 165 158 152 146 137 131 116 124 194 178 176 177 176 169 172 179 151 85 95 91 93 94 96 95 91 93 136 148 151 155 160 169 168 112 122 121 120 138 141 149 153 156 161 169 176 169 166 162 145 145 149 157 165 170 172 173 172 172 163 167 171 169 173 168 165 158 157 161 163 162 160 161 159 164 176 177 167 169 161 162 180 183 181 177 188 191 178 177 177 169 164 167 160 157 153 142 137 128 110 135 191 183 180 174 171 175 170 158 123 86 91 93 96 94 95 91 96 77 122 149 147 155 159 163 179 124 117 124 120 125 136 147 150 154 164 162 172 169 157 152 143 138 144 157 153 155 157 151 150 142 137 134 136 132 131 135 137 135 134 133 131 138 140 139 131 138 139 147 154 157 153 155 171 184 188 186 182 188 181 176 178 167 166 157 159 160 151 142 134 130 98 148 173 177 172 172 163 163 156 130 94 91 93 93 96 92 98 93 93 92 92 138 157 155 160 162 171 143 106 123 124 124 132 143 151 146 163 168 172 169 158 149 137 125 134 136 134 128 128 125 118 113 98 101 115 116 122 111 116 125 131 120 77 108 121 106 106 109 113 119 114 125 128 129 151 173 184 187 183 189 182 179 173 167 161 152 162 156 154 134 135 125 103 143 142 149 147 146 144 135 119 93 89 96 93 93 95 92 93 90 97 94 85 123 155 157 158 161 164 160 102 120 121 125 129 136 144 148 155 171 172 173 164 141 123 122 118 113 109 105 96 89 102 109 72 99 144 147 167 116 153 170 183 175 94 181 153 127 102 118 93 80 52 55 84 113 145 161 178 189 187 190 183 180 174 165 158 160 162 157 150 137 135 116 114 116 87 102 105 106 110 97 95 90 93 90 93 92 95 94 91 96 93 97 84 102 140 153 154 155 161 168 102 118 121 128 128 130 145 152 159 176 183 178 170 148 109 102 99 91 75 78 93 88 140 161 123 124 182 190 201 165 177 197 199 206 127 182 186 156 124 154 117 64 57 77 128 133 170 169 178 186 191 189 183 179 170 160 158 159 163 157 146 140 134 111 121 86 79 83 83 88 91 89 94 91 95 91 95 93 94 93 94 93 95 96 90 84 115 130 146 147 149 143 107 112 124 130 129 134 141 147 158 174 183 182 179 159 119 81 53 35 32 63 123 113 148 167 138 127 186 186 202 171 162 187 181 186 111 116 152 139 112 138 130 114 132 147 164 177 181 186 186 188 191 190 183 176 169 158 152 157 163 154 146 138 132 113 106 69 85 86 86 91 90 90 93 90 94 92 95 90 97 91 93 94 93 93 95 88 88 101 117 124 118 112 103 112 125 126 131 128 133 141 154 169 178 185 183 171 153 85 65 47 35 54 110 105 100 107 95 87 147 152 161 151 135 158 162 163 152 142 160 156 152 151 151 156 166 175 177 187 188 189 192 194 190 190 178 172 164 155 150 158 162 153 145 139 128 115 90 71 85 85 87 87 89 90 94 92 91 95 93 92 94 96 91 94 90 98 90 93 92 89 89 99 92 88 87 114 118 130 138 125 131 134 148 162 171 180 187 180 179 151 145 127 108 104 114 121 126 136 148 143 163 182 182 177 176 179 184 191 182 181 179 179 176 169 170 179 180 184 185 190 187 189 192 193 189 187 175 165 161 152 148 160 158 152 143 133 118 122 75 74 88 84 88 90 89 91 94 91 92 93 92 92 94 92 92 94 92 93 92 93 90 93 90 92 89 90 81 112 116 127 137 131 128 130 142 156 170 180 190 181 181 169 166 160 151 143 144 151 158 158 167 169 174 186 191 184 186 186 187 192 189 185 185 188 182 178 176 185 183 187 188 190 191 188 193 192 193 185 173 160 154 153 151 155 156 148 139 128 115 116 79 75 83 85 87 88 91 91 93 91 91 95 94 90 95 91 91 90 91 92 91 90 92 92 90 89 92 90 84 104 115 124 134 137 126 126 133 151 165 180 189 185 169 170 168 163 157 156 151 156 162 165 170 176 180 186 187 186 186 188 187 189 192 192 191 189 186 178 180 184 188 190 186 187 192 189 191 193 195 184 173 159 151 152 153 155 151 147 136 120 107 120 75 77 84 85 86 88 90 90 92 91 88 95 93 91 93 90 94 90 93 92 91 91 92 89 90 91 90 89 87 92 113 118 134 140 128 124 130 144 161 175 188 189 167 171 168 165 162 160 154 151 160 161 166 171 180 180 181 184 186 183 183 189 193 193 196 192 190 184 180 188 189 187 184 185 185 188 179 186 188 181 171 161 151 153 152 149 151 144 129 115 107 122 74 79 84 85 88 86 93 91 89 93 90 95 91 92 94 93 93 93 91 94 92 89 91 91 91 91 95 89 92 79 106 113 125 132 133 123 125 134 153 172 184 186 180 177 173 171 169 164 165 159 159 170 170 174 181 183 180 182 181 184 190 186 192 195 192 192 191 190 186 186 187 186 181 183 178 181 180 178 181 175 168 157 150 153 153 147 146 138 121 104 114 123 76 78 87 85 87 90 91 91 92 91 93 90 93 90 93 95 92 93 89 95 88 91 92 90 89 89 91 87 92 80 96 112 116 127 136 122 122 134 142 164 177 180 186 179 176 173 173 168 170 164 165 170 173 177 181 185 181 188 181 180 189 188 186 193 191 187 191 191 184 186 183 184 176 179 176 178 182 180 177 170 163 155 152 152 154 146 141 126 116 103 120 126 72 80 86 87 88 90 90 89 93 89 92 95 92 91 90 95 93 91 92 90 93 89 93 89 87 91 92 85 90 90 84 106 113 122 133 127 117 126 138 155 162 176 176 180 176 170 172 169 168 165 169 170 177 175 187 182 183 181 179 173 182 184 182 190 190 188 189 187 183 183 183 181 169 171 180 179 177 177 177 167 155 155 151 149 151 143 133 118 102 110 128 123 77 83 81 88 88 88 90 88 93 88 92 92 92 92 91 93 91 91 92 93 89 89 91 89 90 90 88 89 89 89 82 96 104 113 123 130 122 122 129 147 159 165 166 172 176 166 170 169 168 164 169 172 173 176 184 185 182 186 186 180 184 185 188 188 188 188 189 187 185 184 180 175 169 176 179 182 181 178 171 161 152 151 148 145 148 136 118 109 97 126 134 123 66 84 86 89 88 89 91 90 93 89 91 93 88 95 89 92 93 90 88 93 88 91 91 89 90 90 91 90 86 88 90 81 99 107 113 125 125 119 122 136 151 162 163 170 171 169 165 166 162 167 166 170 173 177 181 185 182 186 185 187 186 188 188 189 188 185 186 188 185 184 180 180 180 180 185 183 183 175 169 158 151 148 149 146 140 126 108 96 113 128 138 112 70 86 87 85 91 89 93 92 90 92 91 93 90 94 88 96 91 89 89 92 90 89 92 90 88 89 91 92 86 90 89 81 88 98 110 119 120 122 120 124 144 151 159 166 171 173 165 161 160 166 171 166 168 173 179 183 180 181 185 188 188 188 190 182 187 179 180 188 186 187 184 180 184 177 183 183 182 179 161 155 149 146 149 138 128 115 92 101 129 133 134 106 73 84 90 85 92 88 92 92 90 92 92 92 94 90 92 91 92 91 90 91 91 87 89 91 88 91 88 86 89 90 84 83 92 94 98 106 116 118 118 121 129 145 154 159 171 173 161 167 170 174 169 170 172 172 175 173 175 185 187 189 190 190 191 189 184 179 178 180 189 189 188 186 183 182 185 186 178 170 158 146 146 142 138 128 114 98 87 121 132 133 134 101 73 85 84 90 89 90 90 88 93 90 93 93 91 90 93 93 92 91 87 91 91 90 89 88 88 92 87 88 88 88 89 81 93 113 89 96 108 113 118 121 123 132 150 158 168 174 162 166 176 178 173 173 178 171 167 172 173 188 190 190 192 194 193 189 187 184 179 181 189 188 188 186 182 184 181 187 174 159 144 139 137 134 124 116 93 80 108 132 137 132 132 95 77 85 86 91 87 94 90 90 94 89 91 91 91 92 91 93 89 89 89 87 90 89 89 90 88 89 88 85 89 87 87 85 79 131 96 89 95 108 113 119 118 122 141 154 162 172 167 164 171 178 177 176 175 168 161 171 181 191 193 193 190 196 200 193 191 190 184 179 183 187 190 185 181 179 182 175 166 150 134 133 129 122 113 88 76 89 131 136 134 129 132 90 79 88 87 90 89 91 90 92 92 90 89 92 92 88 96 89 91 89 89 88 89 88 90 85 89 85 90 85 90 84 87 80 83 122 127 91 90 97 106 111 110 118 123 144 158 161 164 169 166 173 178 177 171 171 167 176 190 189 191 191 189 193 199 199 198 194 184 177 179 180 181 180 174 171 174 169 150 143 123 118 116 100 83 72 84 120 135 139 130 129 133 82 84 88 87 88 90 91 91 88 93 92 91 91 93 92 91 90 92 87 91 86 91 89 88 86 89 85 91 84 87 87 84 88 76 124 125 120 90 85 96 104 109 106 115 130 143 149 160 163 168 170 175 174 166 167 168 178 187 186 185 190 183 186 188 196 197 193 187 180 178 178 180 174 168 165 165 157 140 127 110 105 89 72 72 85 105 127 136 138 135 126 130 84 83 90 88 91 89 93 88 91 92 90 88 91 92 90 94 89 93 91 88 88 86 89 89 84 88 88 87 83 89 83 87 80 81 122 125 121 115 79 83 93 102 104 102 119 130 139 150 154 162 164 164 175 162 163 166 172 180 178 182 183 183 174 178 185 184 181 184 179 176 175 171 165 160 158 152 139 127 111 96 75 68 73 86 106 116 127 139 139 130 128 128 79 85 89 87 91 86 91 90 88 92 90 92 89 90 89 93 88 92 88 86 88 88 88 90 88 86 86 86 84 86 86 84 81 79 123 127 121 116 97 83 84 89 98 95 103 109 126 134 141 151 153 158 168 163 161 160 163 171 170 171 172 178 172 168 182 175 168 170 170 162 163 163 152 150 145 139 123 109 94 68 63 78 88 98 112 127 135 140 135 132 127 117 78 87 88 89 90 89 88 89 89 92 88 89 91 93 89 92 91 91 91 87 88 87 89 84 85 85 89 86 86 85 85 84 80 79 127 129 121 123 106 100 91 79 85 86 94 94 107 112 127 138 149 149 158 157 154 155 156 157 165 159 165 165 163 157 163 162 160 158 149 154 153 151 150 141 133 114 101 82 72 75 83 90 96 104 125 129 137 140 129 131 124 113 81 83 88 86 90 86 89 89 89 90 91 90 89 90 88 91 90 90 87 89 86 87 89 87 84 87 86 87 84 84 87 85 78 81 133 127 125 122 113 108 98 91 82 81 82 87 88 97 109 114 137 135 145 148 148 142 147 149 150 151 153 157 147 140 144 145 145 139 136 140 142 135 133 121 107 87 77 70 80 86 95 98 102 116 128 135 141 129 127 128 125 112 76 89 86 90 89 88 86 89 88 91 86 93 86 89 90 90 87 90 85 87 87 84 88 85 86 85 86 84 83 86 82 86 80 73 140 118 124 124 112 111 103 97 88 78 77 81 81 82 94 95 112 127 129 136 140 134 132 135 134 135 135 133 134 128 125 126 124 121 122 125 125 123 108 92 76 71 78 82 88 97 97 99 117 121 126 135 140 128 125 123 122 113 77 86 88 88 89 87 92 85 87 91 88 91 86 91 88 88 91 88 88 84 88 84 85 85 86 86 83 86 84 84 83 84 75 80 136 122 120 129 121 109 113 102 90 87 80 81 81 75 79 83 82 102 114 116 122 131 119 123 118 119 117 114 107 101 102 102 97 96 103 98 100 90 77 71 78 83 87 92 97 99 102 110 126 130 123 139 138 139 118 113 127 107 74 88 85 87 89 86 89 86 87 88 89 89 86 88 88 87 90 89 85 85 86 86 84 84 83 83 84 82 84 81 82 82 75 77 133 127 119 126 119 114 115 100 92 88 88 74 82 77 77 76 77 79 86 99 99 111 106 111 103 100 99 89 78 79 75 78 78 78 81 76 75 73 72 72 83 92 96 97 101 105 108 122 130 133 128 135 132 135 124 118 126 100 81 83 87 87 86 88 89 87 87 89 87 87 85 90 85 91 88 87 84 86 83 86 82 85 82 83 84 80 84 80 83 80 74 81 129 133 121 116 124 120 117 98 95 97 95 79 78 76 80 76 76 74 71 79 80 84 80 86 81 78 71 70 66 69 69 70 72 68 71 71 71 74 78 82 94 99 99 104 101 112 123 126 134 140 126 128 139 136 128 123 123 98 80 87 89 87 87 88 86 87 87 89 84 87 85 88 87 87 84 90 80 86 84 84 83 83 82 82 83 79 83 82 79 83 73 85 129 131 125 117 123 124 117 111 103 97 98 92 86 81 80 80 80 79 78 72 78 71 71 75 73 73 71 73 72 70 72 73 69 69 71 71 75 81 86 100 101 105 106 108 108 122 129 129 139 136 124 131 132 134 126 123 120 95 80 87 85 92 84 86 85 88 86 88 87 88 85 88 87 89 85 88 86 83 82 84 83 86 81 83 81 83 81 83 79 83 88 94 128 133 127 128 124 121 117 114 108 98 94 94 95 86 86 86 83 84 78 77 74 76 73 72 78 70 74 71 71 73 72 69 71 68 71 77 82 90 98 108 108 109 113 112 121 126 131 137 141 135 133 134 133 129 127 126 116 89 80 85 86 89 85 86 86 87 86 87 87 87 88 86 85 89 88 88 89 81 82 83 82 81 86 80 83 84 81 83 75 103 80 81 127 129 132 124 132 120 110 121 106 108 93 92 96 91 89 91 86 89 83 80 76 80 75 75 72 73 71 69 69 70 71 70 71 72 79 88 90 99 107 114 111 111 117 120 124 128 135 137 143 137 132 133 135 124 129 116 120 84 83 85 90 87 87 91 82 89 84 85 87 86 86 89 87 84 89 85 