P2
92
112
255
131 129 130 130 128 131 128 130 128 130 127 129 130 126 127 129 126 130 127 128 126 131 126 127 125 132 129 129 126 124 127 123 123 119 122 132 141 139 134 125 122 139 139 132 129 122 127 124 124 127 127 122 125 117 126 125 124 123 125 123 124 122 122 123 121 121 124 124 123 122 122 126 119 124 124 121 124 123 120 121 119 121 121 121 119 118 121 118 121 123 119 119 129 132 129 131 131 128 131 129 127 130 128 131 128 128 130 126 129 129 126 129 129 126 128 128 126 127 132 132 128 128 120 124 122 129 130 131 144 145 142 139 126 126 138 140 129 127 126 122 122 125 127 124 125 124 120 123 128 122 123 123 130 123 115 120 121 119 122 123 123 126 120 122 123 122 120 123 121 122 121 121 122 121 123 120 124 120 122 118 124 120 119 123 130 130 131 130 129 129 129 129 127 131 129 131 128 127 130 129 128 129 128 128 129 128 130 124 125 128 125 128 133 132 126 124 125 129 128 119 141 146 140 138 131 122 121 129 128 121 125 120 111 116 123 125 123 122 122 121 123 122 119 124 126 123 120 118 117 111 117 128 123 122 122 118 121 120 121 122 119 121 119 122 122 118 121 120 118 121 117 125 119 119 119 121 128 131 131 129 129 129 128 127 131 127 127 129 126 129 127 129 128 126 128 128 130 126 128 125 124 127 124 124 132 140 141 132 127 128 131 125 129 137 142 139 131 123 116 115 117 111 117 114 108 111 114 122 120 117 118 118 116 121 126 131 131 129 128 120 117 112 114 117 119 116 121 119 121 121 121 120 121 120 118 121 123 121 121 123 118 124 118 121 119 121 120 120 131 130 129 130 128 130 130 129 130 127 126 129 127 127 127 129 125 128 127 123 133 133 131 126 130 120 120 123 138 144 141 135 125 140 141 138 129 127 129 129 127 117 111 105 108 102 103 107 106 103 102 107 106 112 107 107 112 126 140 142 145 150 136 123 113 110 105 110 108 107 109 111 116 117 123 119 118 121 121 120 126 122 124 126 119 124 119 124 120 119 119 119 126 131 128 130 131 126 128 130 127 131 128 130 128 130 128 129 131 127 121 126 124 124 124 128 127 121 123 130 142 140 144 136 126 124 139 146 135 127 120 121 122 121 114 103 99 106 108 112 108 99 100 94 100 94 84 95 120 136 148 161 162 151 135 124 119 122 115 114 113 116 108 109 112 117 120 121 126 120 118 122 124 125 122 122 123 122 123 120 121 122 116 122 131 128 130 128 130 129 129 126 128 130 124 134 133 124 128 129 124 121 116 128 128 123 132 126 123 123 128 136 141 143 140 132 121 117 127 126 123 121 122 115 118 113 110 105 102 109 119 118 115 103 99 85 92 85 87 93 113 125 133 138 139 140 130 133 131 129 125 119 118 119 111 107 110 117 120 120 130 123 123 121 130 124 124 122 122 120 121 122 120 119 119 120 130 130 129 129 131 130 127 130 129 127 127 130 130 125 125 137 121 110 119 133 128 122 137 129 124 124 128 135 140 142 126 124 122 124 144 155 138 125 121 119 118 117 106 106 103 99 102 106 101 92 97 91 90 84 88 92 100 110 122 130 138 143 140 133 131 129 127 122 120 118 113 108 107 121 125 124 129 121 123 125 125 130 130 129 119 119 120 118 121 119 118 118 131 130 128 130 129 129 130 135 131 129 128 126 135 126 132 134 132 122 130 133 134 129 134 133 130 129 131 137 138 137 133 126 131 140 141 145 144 129 118 111 111 106 108 102 106 100 97 98 86 78 82 95 91 84 87 91 99 108 120 131 139 150 150 148 142 137 134 130 131 124 114 110 110 121 126 127 135 123 120 134 128 126 134 140 131 126 126 115 117 121 120 121 130 127 129 131 129 130 128 133 129 131 130 129 131 130 133 136 141 130 133 133 142 152 148 141 150 151 130 128 130 123 126 123 124 138 139 138 140 135 126 119 113 111 109 109 104 101 105 93 80 65 72 82 87 85 83 89 98 106 117 136 144 156 155 147 142 137 139 138 132 120 119 114 108 117 124 125 131 139 126 128 128 126 131 126 130 131 127 121 118 124 121 118 130 128 129 130 127 130 130 134 132 136 141 135 134 130 144 139 135 131 134 132 142 149 152 153 151 152 153 142 131 126 124 138 154 160 164 154 144 137 137 129 119 112 102 106 105 107 98 98 91 77 74 75 76 81 81 82 92 98 99 115 120 127 129 133 136 138 135 126 126 121 121 112 116 112 120 126 133 135 131 125 132 130 124 121 123 134 127 117 118 118 120 117 130 130 125 129 134 135 134 136 138 135 138 136 125 134 145 136 132 132 128 117 125 141 159 166 159 149 142 135 130 133 134 145 152 159 155 150 134 134 125 119 111 102 100 98 96 98 90 95 89 89 89 79 81 79 83 75 89 97 99 114 121 123 120 121 129 132 132 127 123 122 111 113 118 111 112 128 135 130 120 122 133 132 124 119 124 134 121 121 117 120 120 121 128 128 124 134 133 139 135 135 141 138 136 131 132 134 137 133 135 133 128 117 122 136 157 159 150 138 137 144 145 148 146 144 142 147 153 145 135 134 132 124 115 108 100 100 90 94 91 93 91 83 85 83 90 87 79 76 94 110 122 130 132 127 126 124 126 128 131 123 119 116 112 116 111 108 106 124 137 125 123 128 141 130 123 120 129 134 115 120 121 117 121 119 130 129 127 127 133 134 133 135 144 140 138 133 129 133 135 137 143 138 142 135 130 132 136 138 141 145 153 163 156 153 155 149 141 139 135 138 135 133 129 123 113 111 103 99 92 94 91 90 96 90 85 85 89 92 86 80 91 107 124 124 130 136 136 134 128 125 119 116 110 112 113 113 102 104 109 123 133 132 135 150 137 128 120 120 133 123 117 122 118 119 120 121 126 127 128 126 129 133 132 133 137 147 143 142 129 129 131 136 141 150 156 145 140 137 137 136 143 153 154 158 163 166 164 160 147 143 133 130 123 126 124 127 118 113 109 105 99 90 89 87 83 84 92 90 89 95 93 79 88 107 116 119 124 132 137 134 129 131 121 119 110 109 99 99 97 104 109 117 119 123 135 141 133 123 128 128 123 120 119 117 118 118 121 118 129 131 130 130 131 136 136 134 129 133 137 146 138 135 127 137 146 162 162 150 140 136 141 139 140 145 144 146 152 158 158 151 139 143 139 130 123 122 116 120 121 124 119 109 106 97 89 83 82 75 87 88 84 89 88 82 85 89 100 114 124 132 137 134 127 125 117 118 113 115 108 105 97 101 102 103 109 115 126 123 122 124 123 123 120 118 116 116 118 118 119 117 127 133 130 131 126 132 138 129 126 133 139 139 151 151 137 133 143 145 142 146 145 145 140 136 137 138 137 146 158 161 156 145 136 131 133 131 129 124 115 114 120 120 111 108 101 99 99 89 87 78 84 92 95 89 91 86 95 102 107 115 120 131 135 132 118 116 112 112 114 113 113 107 106 103 103 106 105 109 110 111 112 113 110 98 98 113 116 118 117 118 117 117 126 129 132 135 127 129 140 125 121 133 139 142 146 150 153 147 140 134 137 136 149 154 147 139 133 130 131 141 153 150 144 145 145 145 147 146 139 126 124 121 119 118 112 111 105 107 104 96 91 91 91 100 97 96 95 95 103 111 120 125 128 130 130 127 113 111 106 101 104 106 113 109 106 96 99 104 103 99 103 105 106 99 97 93 84 99 112 118 117 118 116 116 128 127 135 137 133 135 143 137 126 143 157 159 143 137 137 138 135 130 133 137 147 153 147 133 130 138 137 143 146 142 142 153 156 156 156 149 138 136 135 134 133 133 127 125 121 115 106 105 97 106 100 108 102 99 104 107 108 111 121 120 118 121 116 115 112 110 105 106 104 103 106 108 111 107 102 97 101 101 105 108 108 100 98 92 84 91 104 117 117 116 118 117 129 129 133 132 130 140 151 142 142 154 156 155 137 137 135 133 126 128 128 128 133 142 145 141 137 140 141 145 145 152 154 157 162 161 152 145 137 140 143 151 147 146 139 136 131 120 111 113 116 117 118 116 110 109 116 116 116 111 113 114 113 116 121 115 111 106 106 103 107 105 104 98 99 104 107 94 92 90 93 98 92 95 83 82 73 83 92 109 115 115 115 116 126 133 132 117 127 117 114 119 120 130 137 139 140 137 120 118 120 120 105 123 145 153 159 156 148 145 147 149 150 150 151 153 151 146 147 149 141 146 150 154 154 160 157 146 135 127 118 121 124 123 126 122 116 117 120 128 126 119 113 113 112 113 111 110 110 105 103 109 110 113 110 101 104 106 114 104 87 84 90 92 90 91 83 83 76 75 85 105 112 117 118 113 127 130 124 113 95 91 92 106 129 149 153 137 127 116 109 111 110 102 123 151 167 169 173 168 164 157 156 153 151 150 152 156 160 161 161 156 152 151 145 145 149 152 156 145 138 129 132 136 132 133 131 133 129 128 131 131 129 130 122 115 119 118 114 112 113 109 104 110 108 112 118 116 103 107 112 101 85 79 94 95 95 100 93 91 82 78 75 99 115 114 113 117 128 129 130 106 91 80 100 120 150 153 147 138 120 110 105 110 124 131 156 170 175 176 177 174 169 163 164 160 162 165 166 166 162 164 161 166 160 161 151 147 154 147 154 149 143 140 143 144 141 141 142 142 141 138 142 136 141 140 136 127 124 122 125 117 115 114 111 109 108 113 117 119 112 100 97 102 84 66 82 86 87 97 94 90 88 86 82 102 110 116 113 115 133 133 131 110 96 92 103 118 143 142 135 116 105 116 130 144 150 166 171 176 177 178 179 179 178 177 178 176 175 170 170 167 167 170 174 180 176 171 164 157 157 160 164 161 159 154 157 153 150 150 149 150 151 149 148 146 155 147 147 138 134 133 130 125 122 121 118 114 113 114 113 119 116 114 100 97 84 76 75 83 74 77 81 72 78 84 81 106 115 112 114 111 128 133 123 113 97 74 97 108 121 121 120 114 132 158 148 153 170 174 174 178 179 182 178 183 182 183 184 181 179 174 172 177 179 182 185 183 182 179 177 165 159 164 169 168 164 166 162 157 156 154 156 157 163 162 159 160 161 159 158 153 149 141 138 136 133 130 122 119 113 118 112 113 111 115 111 93 69 72 88 92 92 81 80 68 63 80 86 106 113 114 114 113 127 129 129 104 95 86 92 109 115 111 118 147 163 164 157 171 175 175 171 178 181 182 183 185 182 182 184 184 185 184 184 186 185 187 190 190 191 188 183 174 166 168 168 166 163 165 163 165 166 164 164 168 173 175 173 169 166 165 166 161 160 154 149 143 140 139 132 126 121 117 118 115 115 119 118 102 72 59 66 83 84 89 77 76 63 70 98 107 112 114 114 113 125 128 127 110 104 90 96 94 103 122 147 169 164 171 175 178 179 173 174 180 184 182 185 186 185 185 184 186 188 189 188 191 191 191 194 194 193 194 192 188 181 174 177 178 173 173 169 174 173 171 173 174 176 179 176 174 172 170 167 170 168 163 159 154 147 147 142 139 129 125 120 120 121 120 119 114 91 69 59 66 68 72 68 69 63 68 101 110 114 114 113 113 126 133 128 108 102 79 88 94 116 133 164 172 169 173 177 178 174 172 180 182 183 184 186 186 187 186 186 187 188 190 189 194 194 195 199 198 198 199 196 196 192 186 181 185 179 176 175 175 176 177 178 178 182 183 181 179 175 174 174 174 169 167 166 165 158 156 148 144 138 134 126 122 123 118 118 112 104 94 57 49 68 63 62 56 59 75 103 115 112 112 113 112 127 127 124 106 88 87 84 104 126 147 164 170 177 174 177 177 171 174 180 182 184 182 186 188 186 187 186 189 190 191 193 196 198 199 201 201 203 201 201 201 199 197 192 189 185 181 183 180 183 184 180 182 184 184 184 184 180 182 182 178 174 174 170 171 166 164 154 147 144 138 128 129 123 118 120 117 107 106 79 49 61 75 65 64 56 85 109 110 116 108 114 109 123 128 124 96 101 86 91 116 131 164 165 177 174 170 178 175 173 176 178 184 183 185 186 187 188 187 191 189 193 194 197 200 200 200 203 204 203 205 206 204 202 201 202 196 193 189 188 187 185 186 186 186 186 185 184 184 183 181 179 179 180 179 174 172 173 165 161 154 149 144 137 134 128 122 117 119 109 106 100 68 56 79 82 69 64 79 109 112 108 113 110 112 129 124 118 103 87 90 96 119 151 166 174 180 177 175 176 175 170 177 179 184 185 187 190 188 185 190 192 191 193 195 198 200 201 204 207 206 207 207 207 205 203 202 201 198 194 190 191 190 186 187 184 186 185 185 183 185 182 182 182 184 183 181 181 174 170 171 159 155 148 150 142 139 130 128 117 119 114 107 109 90 64 66 86 76 65 68 105 110 112 109 110 110 125 122 106 92 84 92 101 126 162 164 177 179 177 177 176 174 169 172 181 183 187 187 189 187 188 190 191 190 195 197 196 201 204 206 207 209 208 207 206 204 203 201 200 195 192 195 194 190 187 184 187 185 183 185 181 183 182 183 183 183 182 180 178 175 170 169 164 159 153 150 147 141 135 134 122 123 115 109 105 104 77 72 79 80 65 56 94 112 109 109 108 109 133 110 94 81 86 88 105 139 162 169 171 175 178 175 174 174 169 173 181 182 188 188 190 188 189 189 191 192 195 195 194 200 201 204 204 205 203 202 203 200 200 200 198 195 192 192 194 190 188 185 187 185 183 185 181 183 182 183 182 181 181 177 174 172 173 169 162 159 152 149 146 142 135 132 128 130 117 113 103 106 91 82 79 68 68 58 74 110 109 108 107 109 130 110 86 77 84 84 118 147 164 171 171 174 177 173 177 170 172 173 180 186 188 188 189 190 187 189 191 191 195 194 194 195 199 198 199 200 199 199 197 197 197 196 195 193 191 190 191 190 185 184 186 184 185 180 181 183 182 182 178 179 178 176 171 168 166 166 162 154 147 143 142 138 131 131 127 128 119 111 104 105 101 84 87 68 65 57 65 101 107 107 107 106 129 114 90 72 73 99 128 152 165 173 172 172 172 176 173 173 171 172 179 182 188 185 190 187 190 190 189 193 194 194 197 195 194 193 195 195 196 195 193 194 193 192 193 191 193 191 191 188 186 183 182 181 181 178 176 180 182 179 177 178 176 174 171 166 164 160 158 155 151 144 139 138 131 131 132 128 120 114 104 103 108 86 82 73 65 59 61 95 108 104 108 102 130 113 81 69 81 103 130 156 165 171 167 169 173 173 171 171 170 174 180 181 185 185 186 186 189 189 190 192 193 194 193 191 191 190 190 192 192 192 191 186 187 187 190 191 190 187 185 184 181 182 181 180 179 177 176 178 179 178 177 174 171 168 166 162 159 155 153 151 147 142 138 137 134 130 131 129 121 117 106 103 104 97 74 68 61 69 62 85 106 102 105 103 131 110 79 69 88 106 133 153 166 168 163 169 171 169 168 170 171 172 176 182 184 186 185 183 187 188 187 188 190 190 190 188 186 185 187 184 190 185 186 183 186 186 185 185 185 176 168 173 181 181 181 179 180 177 175 174 173 174 174 172 168 166 162 159 155 155 150 147 147 138 140 140 137 129 129 130 122 113 105 102 103 103 77 62 53 64 70 88 101 102 106 101 130 113 79 78 86 108 136 156 165 165 164 166 169 169 167 167 168 173 178 179 184 185 186 186 182 185 184 186 185 188 183 186 187 183 186 184 185 184 184 183 185 185 185 186 184 173 166 172 177 181 181 180 180 178 177 170 174 171 172 166 165 162 162 158 154 149 146 146 144 141 139 137 137 130 131 126 121 112 104 102 104 103 83 59 49 52 62 91 105 101 101 105 127 124 87 72 98 116 136 159 162 164 162 163 167 167 168 167 169 169 177 179 183 187 187 184 184 183 182 182 184 185 187 186 188 188 187 185 184 184 184 183 183 182 186 185 185 180 177 176 183 181 182 181 176 177 171 173 173 171 169 164 164 162 163 160 151 151 152 147 143 140 140 135 136 131 131 126 119 110 107 102 101 98 88 61 47 42 48 93 103 102 101 102 128 123 84 77 102 119 133 152 159 161 156 166 162 166 160 164 162 170 175 180 183 187 188 184 183 182 182 185 185 187 186 189 191 190 189 189 185 186 184 185 184 185 185 186 183 183 181 178 181 181 180 175 176 173 174 170 170 169 169 169 169 166 165 159 157 157 150 147 146 146 137 139 140 134 130 127 119 112 103 101 103 99 88 68 43 45 38 89 102 99 101 100 125 127 87 80 103 114 130 149 153 158 154 156 162 160 160 161 159 167 172 178 181 182 186 184 183 182 182 183 185 187 189 193 192 192 194 191 191 189 189 188 186 187 184 188 185 183 184 186 185 185 182 181 176 174 172 171 175 170 171 167 169 172 174 164 165 161 158 149 147 144 140 138 142 137 130 129 117 110 102 102 103 96 83 78 35 37 44 89 104 96 103 98 127 123 95 83 91 118 133 148 153 155 155 153 158 158 158 158 160 161 165 172 177 177 183 183 180 180 180 183 187 188 191 190 193 194 195 195 192 192 188 190 190 191 189 190 187 189 186 186 184 188 183 182 177 175 172 175 173 174 172 173 172 176 174 172 168 165 162 155 151 146 144 141 143 137 134 126 117 113 98 103 98 95 90 80 46 31 53 95 103 96 102 97 126 125 91 83 85 116 136 145 151 152 156 153 160 156 156 157 158 155 160 172 175 180 181 183 183 181 181 185 188 190 190 193 194 198 199 197 196 193 189 189 190 197 192 194 192 188 187 185 186 186 189 183 181 176 176 178 177 176 177 178 175 175 176 170 168 166 162 156 149 148 146 146 144 139 133 126 115 109 100 100 101 92 89 82 59 35 54 101 101 98 100 99 124 125 91 75 86 128 133 138 145 149 154 153 155 158 152 154 155 155 158 168 171 175 179 181 181 183 181 182 185 188 192 193 194 199 200 199 196 195 192 192 192 194 195 195 194 192 187 185 185 186 188 183 183 181 179 180 181 181 182 184 179 181 177 174 170 166 161 155 150 142 145 145 144 136 135 122 113 106 97 101 99 92 87 80 73 33 56 100 98 99 99 95 127 123 92 74 105 122 125 135 140 144 148 152 150 153 156 153 151 156 157 161 167 172 174 179 179 183 179 181 183 187 191 193 193 197 199 199 198 196 192 195 193 193 195 195 194 191 190 185 184 187 186 183 185 180 179 181 182 182 181 180 180 180 179 174 172 168 165 154 148 146 145 144 142 134 131 116 113 101 101 97 98 88 87 73 74 43 61 99 97 99 96 100 128 123 84 77 106 110 123 128 134 144 147 151 150 155 155 155 153 154 156 159 165 171 174 175 180 183 182 183 182 186 188 193 194 195 195 199 196 196 193 193 193 192 193 194 194 192 189 186 183 184 187 182 182 179 183 182 183 183 181 180 181 179 178 175 172 170 161 158 151 147 145 146 139 134 128 117 109 104 94 97 99 89 87 74 74 42 75 97 97 98 98 96 131 118 93 80 92 113 122 132 139 141 148 149 151 150 155 151 150 147 153 156 163 167 173 177 179 183 183 183 180 185 189 190 195 192 193 194 194 195 192 190 192 190 192 190 189 191 188 185 182 182 184 180 182 181 181 180 181 182 182 182 179 180 181 179 175 166 160 152 149 145 148 145 141 136 129 118 108 102 97 96 97 90 89 75 66 51 74 95 99 97 98 93 125 122 98 72 93 113 123 136 142 144 145 149 151 148 158 155 151 147 150 154 162 171 175 175 179 182 181 184 182 185 187 189 190 188 189 190 191 193 189 186 188 189 189 184 182 183 184 180 182 182 180 180 178 178 177 177 179 177 179 180 177 177 174 172 166 158 153 144 143 143 142 140 138 137 130 125 109 102 93 97 95 92 84 79 67 43 70 100 97 95 100 92 127 119 96 76 91 111 121 140 143 143 146 147 153 146 156 156 152 154 150 150 159 168 175 178 182 183 181 182 186 182 182 181 183 180 179 178 184 182 179 174 171 177 175 177 176 174 178 176 174 177 174 170 170 170 170 170 172 169 171 168 168 162 161 153 147 142 135 127 127 127 128 128 130 132 129 124 119 106 91 96 95 91 80 78 63 46 61 99 97 98 95 93 125 121 90 76 98 106 118 132 143 145 146 146 151 147 151 150 157 155 150 152 156 169 177 178 180 182 180 177 179 170 168 169 165 158 151 147 144 142 140 138 142 149 156 162 163 165 167 168 171 172 169 169 168 164 164 158 158 158 155 150 146 143 136 128 126 119 115 99 100 105 105 107 115 119 120 119 123 114 96 94 94 93 78 78 56 45 54 97 96 95 97 95 129 116 87 79 88 102 115 126 137 147 147 151 152 150 151 150 156 160 156 151 159 169 179 177 180 177 175 167 165 156 154 144 137 136 131 124 123 120 116 120 120 128 135 145 150 150 157 161 164 159 163 161 155 153 156 150 149 145 141 137 132 129 119 114 113 107 102 90 83 85 80 85 98 107 102 108 114 113 102 96 99 89 78 81 59 43 63 96 99 96 94 97 126 112 88 79 86 104 117 124 134 142 148 156 156 152 156 154 158 159 158 155 162 168 170 174 171 166 161 152 142 136 133 123 121 120 114 111 109 114 111 115 117 118 125 134 140 144 147 149 151 155 151 150 142 142 145 143 137 132 127 122 118 115 108 100 96 92 86 77 72 68 70 78 90 96 96 96 98 103 100 97 99 87 77 84 61 37 73 95 98 94 95 93 126 106 83 94 92 105 119 121 131 143 149 156 158 155 159 160 159 159 158 158 159 156 157 157 150 144 138 136 119 115 105 96 98 100 103 98 99 108 109 115 115 116 122 120 126 134 136 140 144 146 142 136 132 132 134 130 124 117 113 112 106 105 98 88 90 85 82 75 84 86 85 90 94 94 97 97 90 98 97 93 102 86 75 82 61 42 71 94 97 91 96 93 127 103 92 96 97 95 116 121 129 140 143 156 157 153 161 161 160 162 157 153 149 147 143 142 136 130 123 124 116 108 105 99 98 98 102 100 102 109 110 113 112 113 118 114 122 127 131 133 139 141 139 136 129 127 127 120 117 108 99 94 92 91 87 87 84 84 82 88 90 95 99 100 105 104 97 98 96 88 97 92 99 91 74 79 54 49 82 92 98 88 95 95 121 112 87 97 90 86 108 118 125 135 138 156 156 159 157 164 166 165 154 149 141 144 145 141 136 134 126 123 118 113 106 101 99 94 89 85 85 85 94 100 107 109 110 115 118 117 125 133 142 144 143 142 131 121 119 107 105 94 88 82 81 77 70 66 58 65 59 72 74 76 81 87 95 101 102 99 97 90 91 94 102 86 74 73 46 60 94 93 92 97 93 99 127 114 83 89 88 95 101 109 119 129 136 156 160 161 156 163 166 163 152 142 141 140 140 133 129 127 122 115 104 98 93 88 85 77 72 71 69 70 74 82 93 98 103 109 111 117 124 137 151 160 164 158 145 126 114 99 87 79 79 77 72 68 65 58 63 62 61 68 74 74 76 76 78 83 91 98 97 93 94 96 102 87 74 63 44 73 97 94 93 93 94 98 122 122 81 84 102 87 99 103 112 124 133 155 164 164 156 164 164 163 152 144 136 135 132 130 123 115 106 97 96 88 80 69 67 63 62 69 79 79 82 83 87 95 99 105 109 117 127 148 175 182 182 174 160 137 111 92 82 73 75 74 75 71 71 60 51 55 48 50 56 61 69 68 71 74 68 89 94 95 99 98 102 94 73 58 52 92 84 85 94 94 91 96 126 141 118 91 89 92 100 98 109 118 131 156 164 163 164 165 163 162 155 148 139 132 130 122 110 100 105 101 85 70 59 62 55 56 65 79 93 82 87 95 98 100 100 108 111 116 134 158 181 187 185 180 169 147 119 97 81 76 80 79 78 69 83 66 52 69 63 53 58 70 88 74 56 63 66 75 92 99 100 101 101 92 79 50 71 89 52 48 90 94 92 94 157 171 176 142 94 90 95 100 106 110 134 153 162 165 167 169 165 163 157 153 143 137 125 115 107 110 102 90 90 78 61 51 56 57 71 102 118 107 91 79 98 108 115 111 112 128 144 169 185 192 190 184 176 160 130 106 83 93 88 78 62 76 102 93 54 52 51 49 55 79 101 91 62 43 50 67 86 100 105 103 99 98 78 47 81 66 51 43 76 98 90 96 147 111 138 171 133 92 87 96 97 110 127 150 160 165 164 166 162 158 156 154 147 138 126 112 109 94 80 88 105 93 79 68 66 66 80 109 123 111 92 82 91 106 118 120 128 142 157 170 188 190 191 186 181 168 150 115 95 94 97 96 87 84 95 96 78 76 63 64 71 78 99 91 79 71 68 63 83 100 107 106 102 100 73 59 80 61 57 48 85 95 88 94 96 74 76 128 152 122 96 90 97 102 120 147 161 161 167 166 161 163 158 155 148 135 124 114 109 106 108 109 116 116 109 106 103 96 102 111 114 109 105 103 104 113 124 139 150 160 163 172 185 194 195 186 181 172 155 129 106 103 101 101 100 98 102 105 105 108 104 100 96 99 98 98 97 94 94 89 96 106 116 110 104 99 80 71 91 69 54 45 81 93 89 88 81 81 83 113 127 136 115 98 96 101 113 143 162 161 165 165 163 170 175 170 158 154 148 148 143 141 140 143 141 137 131 134 134 123 122 120 118 111 106 104 109 124 149 165 166 165 165 170 182 194 197 190 183 175 157 131 113 113 116 106 101 99 102 103 105 110 107 105 107 109 111 116 108 111 106 108 111 114 118 112 103 97 86 80 91 79 59 47 70 97 86 87 80 90 90 133 140 132 128 117 99 103 109 139 160 165 163 164 162 166 179 182 181 185 183 181 175 163 159 160 157 157 152 149 142 135 125 119 112 115 116 121 135 154 169 170 169 166 168 169 177 188 196 197 186 178 160 134 115 119 124 116 108 109 111 106 107 104 107 107 112 109 115 115 109 111 110 116 120 118 120 114 102 97 90 96 85 87 68 51 68 98 84 86 82 95 103 159 167 155 130 139 119 108 114 142 160 160 166 164 167 173 182 188 190 189 187 189 182 170 158 153 147 141 132 127 125 121 119 123 131 143 151 159 167 174 173 172 168 171 173 170 174 184 193 195 189 177 162 136 116 119 124 121 116 112 119 119 121 110 104 101 102 102 102 103 106 112 112 112 115 122 119 113 107 96 87 91 93 99 74 47 87 94 80 91 91 111 114 169 178 179 142 139 136 122 120 148 156 159 166 165 169 179 185 189 190 188 190 184 174 161 153 147 141 136 134 134 136 146 153 159 161 172 178 176 174 171 172 172 171 172 173 170 171 175 189 193 189 177 159 135 116 118 120 123 118 116 120 124 127 128 122 120 114 114 116 113 118 121 127 127 126 120 116 115 112 96 77 79 98 103 80 51 99 86 78 85 94 130 133 171 188 190 190 154 134 134 127 145 154 160 158 164 169 178 185 188 186 188 186 181 181 176 173 166 168 166 162 164 165 172 180 178 180 183 179 177 172 169 172 171 171 173 172 169 170 171 184 194 196 182 163 139 119 118 116 121 118 120 125 129 135 139 140 134 129 124 126 122 127 130 134 135 129 127 119 116 112 100 71 78 90 109 86 66 92 83 77 80 96 142 143 175 185 178 171 129 90 141 137 142 151 153 159 160 167 175 180 182 185 186 190 192 191 191 190 188 189 187 184 181 182 184 191 189 185 184 181 173 171 170 171 172 171 169 171 166 169 169 183 198 201 189 168 143 125 118 117 117 118 123 127 139 138 145 148 145 147 142 139 133 132 136 138 133 133 130 120 119 114 100 73 71 82 105 90 79 95 77 77 82 115 146 154 180 171 154 132 101 73 133 159 144 148 153 157 159 167 172 177 179 182 187 192 191 190 193 192 190 192 189 189 191 193 192 192 189 187 187 181 175 175 173 173 172 166 168 163 166 168 168 181 199 202 190 173 157 136 126 117 113 114 124 134 140 150 152 152 157 156 153 150 148 142 141 138 135 130 128 125 121 112 106 78 69 79 99 89 89 89 69 79 76 153 156 163 179 164 138 118 105 105 122 193 157 143 143 152 157 159 168 172 178 183 183 186 187 189 190 191 189 192 191 193 193 195 192 192 191 186 187 182 181 179 173 173 164 160 163 162 167 166 175 177 189 194 189 176 159 144 137 126 117 112 118 129 139 153 154 159 159 161 160 158 158 153 148 145 140 133 133 124 120 115 102 86 73 75 99 94 92 88 72 76 81 167 158 165 178 150 129 120 118 137 150 200 176 141 144 149 150 157 162 171 173 182 183 187 186 188 187 190 190 197 197 197 197 194 194 191 188 187 185 184 180 174 163 163 159 163 161 166 163 169 173 179 183 188 178 175 166 147 141 130 125 125 116 121 131 150 152 156 157 158 161 159 158 150 150 146 144 138 132 130 120 113 99 93 74 74 100 86 96 81 69 76 77 163 160 160 178 147 125 144 155 178 167 192 182 140 139 146 147 155 161 166 172 179 181 182 185 187 188 187 193 199 198 195 195 192 190 186 184 182 179 176 170 157 155 159 164 164 163 163 165 169 174 176 180 178 172 167 160 152 141 131 121 126 124 112 115 137 144 151 154 157 157 158 158 148 148 145 139 136 134 126 118 112 97 89 77 88 95 90 94 77 66 73 75 130 169 155 178 148 130 162 179 194 174 179 184 140 138 139 145 150 155 165 171 174 179 182 184 188 189 188 189 192 192 192 189 188 183 180 176 175 170 161 146 144 156 167 166 165 162 162 164 168 174 177 178 174 167 163 159 150 139 122 115 118 118 111 103 120 132 143 150 149 152 151 151 148 143 145 132 132 128 122 116 109 93 94 96 96 92 94 94 69 71 68 71 108 162 162 171 170 139 152 184 192 173 172 184 143 138 139 140 147 153 160 170 172 179 182 183 185 187 184 185 190 187 183 180 182 175 170 163 154 143 131 130 144 159 163 163 165 156 155 156 158 163 171 172 170 162 160 155 146 131 111 106 103 109 106 108 106 119 128 137 143 144 145 143 140 140 133 134 126 122 114 112 106 94 105 106 100 97 102 84 65 68 69 71 108 134 172 157 182 181 155 174 187 175 174 181 149 136 139 137 144 149 156 166 174 178 178 180 180 182 182 181 183 183 180 175 172 165 158 147 126 118 118 125 136 149 157 159 159 148 142 137 140 144 158 164 161 157 150 143 134 113 97 92 97 102 97 106 112 113 114 120 133 137 139 139 136 131 130 128 125 115 113 111 102 102 109 106 105 100 101 72 62 69 66 69 112 114 154 169 172 187 182 179 193 188 169 176 155 132 140 136 144 146 154 166 173 177 178 174 176 175 176 176 173 175 171 169 159 153 139 123 113 114 127 137 129 136 140 139 136 125 117 108 112 117 134 139 142 140 137 131 112 97 77 71 77 90 94 106 117 120 111 107 117 126 128 130 135 128 125 119 116 111 111 107 98 101 108 104 104 101 95 68 60 66 67 66 122 107 125 174 178 174 182 186 197 200 195 179 153 132 138 139 141 147 151 164 167 169 171 169 168 167 169 169 166 165 159 154 146 135 120 113 118 132 149 153 146 131 116 108 96 83 81 83 87 93 105 116 114 116 113 106 94 80 67 68 77 91 94 101 111 119 120 104 101 112 118 126 125 126 120 113 111 110 109 101 97 101 107 101 101 101 87 60 64 66 68 66 116 116 106 140 176 171 184 184 193 199 197 191 162 134 135 139 139 140 150 155 156 159 163 161 160 159 158 158 153 155 151 142 129 124 109 113 128 145 156 153 156 141 118 99 87 86 88 92 91 93 97 100 100 95 92 90 86 84 79 80 89 94 99 101 107 114 120 110 98 98 106 116 120 120 112 109 106 109 102 99 99 103 106 103 97 93 74 60 65 63 66 66 117 117 110 110 156 180 185 185 191 193 191 196 179 143 128 140 135 142 146 148 148 150 154 152 152 150 149 148 143 142 141 132 121 108 111 120 143 156 159 158 158 154 141 116 108 105 105 108 105 103 96 97 94 91 91 91 94 95 91 90 94 97 100 98 109 106 112 113 109 99 100 110 116 116 110 106 103 107 101 102 95 101 99 98 89 80 66 60 62 62 64 66 119 115 121 98 137 174 183 188 186 189 189 196 196 148 127 137 138 143 144 143 141 139 140 145 142 143 141 139 136 134 132 124 111 110 119 140 157 161 160 158 159 162 155 140 126 119 119 119 113 108 102 102 106 104 104 106 103 101 103 96 98 99 97 101 103 103 110 117 117 111 100 99 111 112 106 105 106 104 103 102 93 88 89 83 74 66 55 64 61 66 62 64 116 116 114 114 105 145 173 173 183 183 189 195 191 158 122 133 138 136 144 142 137 133 135 133 134 137 135 133 130 130 124 116 108 114 129 143 156 158 161 156 160 162 161 157 143 132 128 128 120 112 110 114 119 117 112 114 115 108 106 105 106 108 103 100 101 103 107 117 120 117 111 104 106 110 111 107 104 105 100 101 88 69 70 68 61 61 60 59 64 61 64 65 114 118 116 115 111 112 131 154 168 177 176 174 161 138 122 130 137 134 138 140 135 128 130 126 129 130 132 129 130 126 121 113 110 123 134 142 150 151 155 159 159 166 168 169 167 160 149 140 129 125 123 122 123 119 122 121 122 118 114 112 109 112 110 108 104 103 102 109 106 109 113 109 109 111 111 108 105 101 101 101 82 56 58 60 62 59 63 61 63 63 63 68 114 117 114 115 113 111 110 116 136 147 139 136 123 104 121 127 135 136 132 139 137 127 120 119 126 127 131 129 129 126 115 113 114 126 134 140 146 150 155 160 164 170 172 174 176 179 173 161 150 135 131 127 123 124 120 124 124 121 117 115 109 113 109 106 108 106 101 95 95 104 109 114 118 117 111 106 103 98 96 99 75 56 58 59 62 59 60 61 61 60 63 66 117 117 114 116 115 112 115 109 114 115 111 112 112 101 108 122 136 131 133 129 131 130 122 121 125 135 132 134 136 125 116 112 116 119 126 131 143 151 156 163 164 167 169 172 170 172 168 162 154 147 141 135 128 123 118 119 113 115 112 108 105 104 102 101 105 101 99 85 92 103 112 122 128 120 118 107 100 95 95 97 66 57 59 57 63 56 64 58 62 64 59 65 116 113 115 113 114 113 113 113 113 112 113 112 113 110 92 117 128 134 130 133 136 131 127 121 128 130 136 135 139 133 120 122 117 110 116 122 135 142 147 149 145 143 143 143 143 137 136 131 126 121 122 112 107 101 101 101 101 95 97 94 87 91 82 81 78 79 71 66 82 101 108 124 129 130 124 106 99 91 99 95 59 59 61 58 61 61 61 61 61 60 64 61 116 114 115 113 113 113 113 114 114 111 114 112 114 109 94 113 124 131 131 130 134 137 131 128 132 135 140 142 144 137 131 119 113 103 98 107 118 122 119 121 116 112 110 107 108 105 101 95 100 100 104 99 96 90 96 96 87 82 92 88 83 92 74 50 38 40 32 56 86 103 109 124 140 132 123 102 93 91 100 86 55 57 60 60 60 60 61 58 61 61 62 61 115 115 113 113 112 114 114 113 113 113 115 110 112 112 102 111 118 129 130 130 136 135 139 132 133 133 139 145 147 144 143 129 113 98 80 75 66 74 76 89 96 97 101 92 103 118 107 89 109 123 129 119 105 112 125 128 105 94 113 109 104 114 82 32 27 37 55 77 100 110 117 129 138 129 114 100 94 89 101 77 54 62 58 59 60 60 61 58 62 59 65 58 116 113 113 114 113 116 115 112 114 113 112 112 112 107 110 114 114 122 131 128 132 133 141 136 131 133 135 142 149 147 153 140 121 106 85 52 42 34 38 76 100 115 130 118 126 147 136 106 125 154 163 153 132 142 156 154 133 116 124 118 111 119 69 27 49 63 92 100 110 115 124 132 132 117 108 96 91 99 91 69 53 59 58 63 56 64 58 62 57 65 60 63 116 112 112 113 112 114 110 111 113 111 111 113 112 107 113 115 121 117 125 128 128 138 136 137 136 132 135 140 150 151 149 144 134 121 110 100 94 71 48 52 88 113 135 134 136 152 147 114 138 166 177 165 149 149 164 163 136 111 119 107 88 84 64 65 84 96 103 110 112 113 127 128 126 112 99 94 93 96 89 58 53 62 58 62 57 60 59 62 60 61 59 63 111 114 112 114 111 116 111 112 111 114 109 112 110 103 113 117 130 113 120 123 128 131 137 138 139 134 134 141 145 149 156 153 150 133 133 132 145 139 125 92 78 90 115 108 98 121 119 92 121 159 166 160 132 124 135 133 105 68 69 76 78 78 91 97 101 107 110 110 113 117 127 132 123 107 97 91 95 96 72 54 58 55 59 55 60 55 59 61 60 58 62 60 114 112 112 113 111 115 110 112 111 114 111 112 111 112 106 120 140 119 115 120 123 126 137 136 140 138 135 136 145 146 154 155 155 143 138 140 148 159 161 151 135 124 119 109 100 105 102 91 97 104 108 104 95 87 98 102 98 94 95 97 101 100 104 106 109 112 112 114 114 118 128 127 121 104 95 92 94 87 64 54 58 58 57 60 58 59 59 60 57 60 59 64 115 113 112 112 114 114 112 112 109 112 109 112 109 101 110 126 146 126 112 117 117 124 128 130 139 139 135 132 137 142 152 154 159 154 146 141 148 155 161 164 163 164 157 154 159 158 162 163 170 163 154 139 133 126 129 128 123 120 117 115 112 110 107 106 110 112 112 113 116 113 120 122 112 99 96 94 92 79 55 59 56 60 59 56 60 57 61 56 63 59 60 58 111 112 113 111 111 114 109 113 112 110 108 113 110 103 109 132 149 128 123 106 117 116 124 131 138 140 137 130 135 137 141 151 155 156 152 147 151 154 159 163 163 166 162 162 170 172 175 171 172 163 157 151 149 144 144 141 137 135 131 128 119 113 108 107 110 114 112 112 113 111 115 118 102 99 91 93 85 63 56 58 58 55 60 58 60 61 60 60 60 54 63 59 110 109 116 107 113 108 115 108 110 110 110 112 108 100 115 140 150 139 131 111 107 112 117 126 130 132 138 134 131 134 137 143 154 157 159 161 157 161 166 163 167 165 160 152 158 160 168 172 169 168 161 155 150 149 148 147 141 136 129 126 120 119 106 109 111 112 115 110 109 110 114 114 99 95 91 90 73 56 56 59 54 62 59 56 59 56 61 58 59 59 61 61 113 110 112 113 110 110 110 113 109 109 113 108 111 98 116 145 150 143 139 130 107 106 111 115 127 125 135 136 130 129 132 144 148 152 157 157 160 162 162 167 167 168 163 159 156 157 154 152 149 152 148 147 144 140 139 131 132 133 132 133 126 123 111 110 110 115 109 110 108 112 114 108 96 92 88 83 56 56 58 57 59 55 54 59 60 57 59 57 61 58 60 61 111 110 111 110 110 109 112 110 108 112 108 108 110 96 123 143 149 151 142 139 120 104 108 110 119 124 129 132 132 128 128 136 147 155 158 159 159 164 163 164 166 167 165 163 159 156 154 152 149 147 145 141 136 136 131 133 131 135 135 133 125 124 116 111 114 111 107 108 110 111 113 105 92 90 85 65 55 54 58 58 55 59 55 58 57 57 60 55 59 58 58 59 111 111 109 111 109 112 110 108 110 111 108 108 107 94 125 147 149 150 148 138 133 109 104 108 110 116 121 128 131 128 127 134 141 152 156 156 162 163 161 162 163 167 164 160 158 156 154 153 148 150 145 145 141 138 134 137 135 136 132 133 126 123 117 113 113 113 104 108 112 115 110 101 88 87 74 56 54 55 58 58 57 58 54 63 53 59 56 59 58 55 58 57 112 107 111 111 110 110 109 107 111 108 106 111 105 100 121 144 149 151 152 142 141 128 107 104 109 110 114 120 127 130 131 130 137 150 154 159 163 162 162 161 161 164 162 161 158 157 152 156 152 151 146 145 138 137 132 135 134 136 135 135 129 127 118 118 118 112 110 113 117 115 109 97 87 78 57 57 54 56 56 57 56 55 61 53 61 57 57 57 59 59 58 62 113 109 110 110 106 111 106 107 108 108 108 107 107 89 126 148 148 150 153 149 141 141 120 102 103 105 112 116 121 125 134 128 135 143 150 157 159 163 166 166 161 160 156 157 154 155 153 154 152 156 149 153 149 152 150 148 148 147 144 141 135 132 126 121 122 116 117 114 116 116 101 95 81 61 55 56 55 55 57 56 56 54 55 62 53 57 58 57 57 58 58 61 113 107 111 108 108 110 108 107 108 106 106 107 105 99 118 149 149 144 150 155 135 140 133 114 99 100 107 109 118 123 127 131 132 135 144 154 158 160 165 166 165 161 160 158 160 154 153 151 156 161 161 164 166 168 168 161 162 159 154 149 142 136 129 130 131 124 124 117 118 115 100 85 84 59 55 50 57 53 58 56 56 56 56 55 55 58 56 58 56 57 56 58 109 106 108 109 106 110 106 107 108 104 109 105 106 92 123 156 144 149 149 152 144 140 136 125 102 101 100 102 110 117 121 132 131 130 138 147 153 162 170 167 164 167 172 169 163 159 157 157 161 164 169 173 173 172 169 162 162 158 153 147 140 134 133 135 137 134 127 115 121 115 89 83 81 54 55 55 55 52 56 54 56 53 52 57 57 58 53 59 55 57 58 57 109 105 111 108 109 104 105 108 106 103 110 103 106 91 122 156 150 145 150 156 154 148 142 130 122 105 101 98 103 110 114 128 128 128 131 139 155 159 166 169 168 169 174 177 172 167 166 169 167 166 167 172 177 173 169 162 157 154 153 146 141 134 136 140 142 135 127 118 113 105 85 78 82 53 54 53 55 55 57 56 54 54 57 53 56 58 57 57 57 55 58 54 106 104 109 110 106 106 106 105 105 107 106 104 105 87 123 153 151 136 150 157 152 148 146 137 124 122 106 100 98 104 106 117 124 123 129 132 144 153 159 166 166 169 174 174 179 175 171 172 167 164 166 175 173 171 164 157 155 154 155 149 144 141 133 135 138 134 127 109 109 95 79 75 78 49 54 54 52 56 51 56 52 55 52 53 57 53 56 58 55 57 55 54 107 107 104 107 105 103 105 103 105 104 103 103 106 87 126 148 152 142 143 158 153 149 150 146 132 116 114 105 101 95 100 101 110 115 119 121 132 142 155 157 163 173 168 172 177 176 174 172 168 167 169 174 174 166 160 151 153 155 156 148 144 139 132 125 129 126 119 106 99 86 83 74 75 53 49 56 55 52 52 58 51 55 57 50 58 53 59 48 58 54 56 57 107 103 106 104 105 104 106 104 106 103 103 102 102 91 125 149 155 141 139 146 152 150 152 152 139 120 114 111 102 99 99 96 96 103 107 114 119 126 144 150 157 165 170 169 173 172 174 171 168 170 172 172 170 156 149 147 144 149 149 145 138 133 127 120 121 114 111 97 87 82 85 78 74 53 50 56 52 52 54 54 54 53 53 52 55 56 54 51 57 55 54 55 104 104 105 106 105 102 103 106 102 103 103 101 102 91 133 148 151 152 147 138 150 156 153 146 130 131 115 115 109 96 102 99 98 93 96 104 107 115 124 134 140 149 160 161 161 166 171 165 161 162 161 157 155 145 139 136 134 130 137 134 127 124 118 114 107 105 99 86 82 81 82 81 68 53 51 52 55 50 55 51 53 54 54 50 55 52 55 52 53 56 55 52 106 106 101 107 102 103 103 106 101 104 102 100 114 106 132 145 153 153 150 145 146 155 150 155 142 136 132 122 116 100 93 101 99 99 91 93 99 101 108 119 124 138 147 152 150 155 158 162 156 150 146 147 140 135 127 124 123 121 124 124 117 110 108 100 98 92 88 80 79 81 80 81 65 50 53 52 53 52 52 51 52 53 53 52 56 51 55 52 54 55 54 57 105 106 103 103 103 103 103 104 103 103 98 105 131 48 134 146 148 160 153 154 153 148 151 154 149 143 133 129 121 110 102 99 97 98 95 93 91 91 97 101 112 121 128 137 139 143 145 143 143 136 135 131 124 122 116 112 113 110 112 111 109 97 95 90 89 84 79 77 80 81 75 81 58 49 51 54 50 53 48 53 50 52 52 53 51 53 54 54 56 50 56 50 103 105 104 100 105 99 103 102 103 105 117 124 86 37 136 151 146 155 157 150 150 150 139 156 155 144 142 129 121 122 112 108 102 97 101 95 94 89 86 89 94 97 110 115 122 128 129 129 125 126 117 121 112 108 106 104 101 97 98 97 93 88 84 82 79 79 81 80 77 81 78 81 57 49 52 53 49 53 53 52 51 52 51 49 52 51 52 53 52 54 53 54 103 104 103 100 103 101 105 94 119 128 94 51 68 66 140 151 150 153 156 155 150 152 148 152 159 146 143 143 134 121 121 110 109 110 101 100 98 95 91 84 86 86 87 96 103 112 114 114 112 114 105 103 98 99 93 90 85 90 82 88 79 76 73 75 77 79 84 75 84 79 80 82 54 46 54 51 50 50 51 50 50 50 50 53 51 54 49 53 56 47 56 54 100 104 101 101 104 100 102 99 131 126 27 62 77 39 143 151 152 151 155 155 151 155 153 152 153 139 139 142 140 132 128 115 109 116 102 105 103 101 94 91 90 85 80 82 85 90 98 95 98 102 93 90 86 84 78 76 76 73 73 75 69 77 75 81 83 83 80 80 84 82 83 79 49 49 48 54 48 52 45 54 44 55 49 49 54 52 51 52 51 54 50 54 97 103 99 101 107 102 120 118 124 122 20 110 43 47 146 151 153 154 154 147 153 156 155 153 154 144 141 136 135 136 135 125 117 111 112 110 107 104 98 95 93 89 85 83 75 79 79 84 84 82 78 79 73 72 68 68 66 66 71 78 79 82 78 82 86 83 79 84 81 83 84 77 46 49 48 54 48 51 49 50 46 55 49 52 52 49 51 48 54 51 49 50 100 102 107 116 116 115 119 116 125 112 59 97 25 115 143 147 149 152 158 151 151 149 155 156 152 149 151 143 142 143 134 128 127 111 109 116 108 103 103 97 93 96 87 85 79 75 74 72 71 72 67 68 70 65 65 70 67 70 73 80 82 82 79 86 86 87 83 83 84 85 86 72 46 50 50 50 48 51 49 50 50 50 50 52 50 48 50 49 52 51 48 55 