P2
92
112
255
130 133 129 135 133 132 131 132 130 133 130 133 132 133 131 130 134 123 138 132 131 132 134 141 134 137 139 138 132 143 144 135 134 128 124 129 125 123 126 128 123 118 117 112 124 137 134 133 121 120 122 131 129 125 122 119 119 129 124 118 125 124 123 125 124 126 124 126 125 126 122 124 125 125 122 127 121 124 122 123 125 123 123 123 122 123 122 122 126 121 121 124 131 132 135 129 133 134 130 131 131 132 132 134 130 131 133 131 131 131 136 129 131 135 130 135 142 134 132 142 146 131 137 134 132 130 125 134 123 119 121 113 110 112 119 123 138 137 139 129 134 136 132 131 132 131 130 119 115 120 121 108 117 123 120 127 122 125 124 127 125 123 124 127 122 128 124 127 126 134 122 125 122 123 124 124 124 121 121 121 120 123 122 125 132 130 132 130 134 132 129 133 129 133 129 131 131 128 130 128 136 126 124 129 136 134 129 140 141 140 127 133 142 133 120 129 126 121 123 124 115 113 108 109 106 102 113 124 129 134 159 160 155 132 131 129 135 145 137 126 120 121 118 110 110 119 122 123 126 119 122 128 134 126 126 128 130 128 126 125 125 128 125 123 121 124 123 123 124 121 122 122 121 124 121 123 133 129 134 131 131 133 130 129 130 130 129 132 134 130 120 115 118 118 119 135 139 133 132 146 134 132 128 136 130 124 116 114 113 114 109 109 108 108 109 113 110 106 110 118 137 146 150 143 137 136 141 130 135 155 160 143 134 122 123 110 119 122 116 128 119 123 109 130 131 132 127 135 127 128 129 126 124 125 125 123 122 122 124 122 122 123 124 124 122 123 122 122 135 131 132 131 129 134 132 133 129 132 127 130 125 125 114 109 119 125 129 131 148 146 141 137 131 128 130 139 134 132 125 116 113 98 91 92 101 99 105 108 110 105 100 112 116 121 126 117 125 139 136 126 125 149 169 147 131 128 113 121 122 124 127 128 118 129 141 127 143 134 129 128 131 132 139 130 127 127 125 125 122 123 122 121 124 119 127 123 125 119 124 117 134 133 130 135 132 141 131 129 130 137 128 129 125 125 119 116 119 133 144 144 138 148 145 145 136 129 131 130 129 113 105 100 101 93 85 87 82 89 90 99 100 107 110 113 119 126 130 121 125 128 122 124 127 151 167 146 133 122 121 117 122 116 116 127 109 114 150 135 145 145 136 132 132 133 136 131 135 134 126 125 119 122 125 122 124 122 123 123 121 122 122 122 131 134 131 132 132 131 132 128 132 135 131 121 121 126 120 112 113 134 155 154 146 144 133 134 135 130 124 126 119 113 112 98 95 88 87 84 85 87 87 97 96 101 121 131 143 145 135 128 127 126 123 127 145 165 159 137 126 129 132 127 121 121 123 124 117 112 136 136 141 150 145 140 134 126 121 132 147 130 132 123 123 124 120 124 121 125 121 125 120 122 122 121 133 134 131 133 131 133 130 129 133 136 125 126 122 124 127 120 111 138 160 164 147 144 138 132 125 126 120 116 113 102 103 87 79 88 91 82 78 89 102 107 101 109 126 135 144 144 134 123 123 128 134 154 163 161 144 127 123 128 125 124 121 117 122 113 116 126 133 134 135 133 151 147 126 121 115 135 152 131 125 125 122 122 123 123 124 124 123 124 121 123 120 123 132 133 135 136 135 136 128 136 130 129 123 130 136 129 137 139 135 141 161 161 145 143 133 130 125 118 109 103 103 109 91 81 86 93 87 79 85 79 95 106 110 110 119 117 128 134 135 128 129 147 152 157 155 147 136 133 126 121 119 117 115 129 126 114 106 120 128 126 122 128 147 134 120 121 112 143 145 121 125 121 123 121 124 120 124 121 122 121 121 120 120 122 133 130 133 128 135 143 138 145 136 117 128 137 142 135 138 149 163 165 158 162 142 142 135 121 122 117 104 102 95 91 88 92 91 95 92 79 73 83 85 99 111 120 127 128 128 131 130 141 146 147 145 144 133 132 130 130 125 114 120 106 117 138 118 113 113 117 124 122 118 133 131 123 121 112 120 135 129 122 119 122 123 120 121 120 122 120 123 122 120 119 123 122 135 131 138 139 141 137 144 133 119 129 142 137 140 147 155 166 161 157 151 143 133 126 127 127 116 115 108 108 104 100 92 106 96 101 108 92 86 97 116 125 117 111 118 107 116 120 136 133 131 133 136 126 128 126 128 131 123 117 115 107 132 141 115 114 114 112 131 141 128 136 115 114 111 106 119 118 117 118 121 119 121 122 122 123 121 123 121 120 123 122 122 122 139 133 132 139 142 146 138 119 112 123 145 153 152 154 160 163 164 157 148 139 126 121 115 116 114 104 102 99 104 109 109 101 100 99 109 111 102 107 115 112 106 105 112 113 122 128 128 125 122 134 131 135 136 134 128 124 126 125 118 123 139 130 117 113 121 127 131 136 136 132 119 121 111 117 122 109 106 113 120 116 121 124 121 120 124 119 122 122 123 120 124 121 135 131 133 134 134 142 140 124 106 121 140 148 153 156 158 162 161 153 146 139 129 122 114 118 119 110 99 94 96 103 108 108 94 97 106 119 110 101 102 97 97 106 117 132 140 141 140 139 142 137 134 125 125 122 118 119 126 130 127 125 126 121 114 120 127 131 133 134 135 122 133 123 124 120 110 101 106 105 110 116 119 125 121 122 121 121 122 121 119 122 122 122 136 136 137 137 140 142 148 134 111 122 132 141 155 158 159 158 156 161 151 142 129 125 117 113 109 110 108 102 105 108 101 103 99 92 102 111 110 104 100 104 109 118 130 136 146 153 152 149 148 143 133 127 121 118 123 126 123 124 126 122 120 125 121 122 126 136 133 129 125 122 122 118 114 117 107 107 104 103 89 103 117 120 122 120 123 120 123 119 119 121 122 119 135 136 133 135 126 133 149 144 138 129 132 136 143 149 151 156 149 147 144 146 132 122 119 112 107 102 97 96 102 104 98 95 101 99 105 109 106 102 104 111 107 111 116 137 138 149 160 152 149 142 141 137 132 123 122 117 117 117 115 118 119 120 123 120 121 120 117 120 113 114 125 128 125 124 116 110 104 100 99 94 108 126 120 116 123 119 121 119 124 118 121 117 132 143 131 133 130 124 139 144 133 129 137 138 140 148 152 152 147 142 139 140 135 126 124 115 108 101 100 98 108 103 100 98 106 106 116 112 107 109 107 108 108 118 126 139 136 126 121 128 130 135 133 136 137 133 124 126 120 114 108 111 114 118 121 123 123 119 119 114 121 122 133 134 126 123 122 106 103 96 86 89 86 113 125 121 120 121 120 122 119 121 120 121 133 136 130 132 138 127 118 136 131 128 124 130 135 140 147 150 142 139 137 137 141 131 122 115 116 112 108 108 115 110 113 107 109 113 118 118 124 122 123 117 118 122 131 133 129 128 122 122 122 123 124 128 134 132 130 118 116 119 112 104 94 97 93 106 111 111 108 112 114 114 125 125 112 112 108 104 99 96 77 80 83 92 120 120 118 120 118 117 121 119 120 120 135 137 131 132 126 128 126 130 128 124 130 127 135 135 142 144 147 143 142 143 137 139 134 134 133 123 122 127 122 123 122 113 120 118 119 122 129 121 117 114 119 123 128 132 129 125 122 120 120 123 125 124 126 130 133 127 117 115 116 108 101 92 84 77 76 90 90 94 103 110 117 118 116 107 102 100 98 92 85 73 69 77 112 119 119 118 115 118 119 116 119 119 128 138 142 128 115 121 134 137 129 131 130 130 131 132 140 147 148 154 152 145 144 148 155 153 144 131 135 137 136 135 134 132 124 130 127 132 131 133 125 119 124 130 128 124 128 125 126 131 132 121 125 128 127 131 135 135 124 124 121 121 112 113 92 76 71 79 89 89 93 114 122 127 130 119 115 100 89 91 81 74 61 66 100 122 116 120 114 119 117 119 116 119 129 129 111 114 113 113 135 136 133 139 139 136 138 142 142 147 143 141 145 149 151 162 166 155 147 144 153 149 147 140 143 143 126 137 138 141 143 148 146 136 130 132 131 130 130 134 131 134 141 138 126 133 133 137 139 134 131 124 130 125 122 117 112 98 65 68 79 70 84 100 118 123 134 123 112 107 101 86 84 82 61 65 95 114 117 117 119 118 119 118 117 115 131 122 97 97 111 118 125 132 142 135 139 145 141 142 146 146 147 146 144 142 148 155 163 150 154 164 166 161 154 146 149 155 146 145 145 149 154 155 152 146 142 140 143 142 139 135 134 132 134 141 137 132 131 138 134 133 135 132 133 132 124 125 120 111 101 71 76 82 68 86 88 102 109 98 99 88 91 83 87 83 71 64 88 113 115 117 118 115 114 117 116 118 135 117 101 106 106 122 130 131 133 143 152 150 142 152 155 156 153 152 152 146 152 153 153 153 161 165 163 163 162 155 160 166 161 154 157 156 163 167 165 160 149 152 150 150 148 140 138 140 136 139 143 140 133 138 135 131 137 133 135 134 126 124 123 116 113 101 86 82 100 96 98 106 111 102 97 91 82 69 88 81 71 70 83 112 118 115 116 116 116 117 115 117 138 116 94 87 91 109 114 137 148 163 167 156 156 158 160 160 164 166 161 154 155 154 159 164 169 169 168 166 167 163 169 174 169 166 166 171 173 176 175 175 163 164 160 159 154 149 147 144 138 136 140 139 137 138 143 140 133 130 134 135 134 123 119 126 122 110 102 86 93 109 113 103 107 102 89 84 76 72 72 77 67 67 89 113 116 113 114 116 116 116 115 118 136 113 95 94 93 104 129 156 165 169 177 165 164 164 167 169 173 177 165 153 148 147 163 168 170 170 172 176 172 173 177 182 186 180 177 182 184 183 183 182 176 174 169 169 164 163 157 155 148 144 136 138 141 143 144 143 136 133 135 135 139 131 121 125 124 121 111 103 96 80 94 102 88 91 84 74 74 69 70 70 66 60 89 111 114 114 115 114 116 114 114 120 137 120 114 93 92 116 145 167 174 176 176 173 174 173 175 179 182 177 176 162 150 159 173 176 172 179 182 183 184 186 189 191 194 191 185 186 188 187 189 187 182 184 180 174 173 170 169 165 164 161 152 147 148 145 148 147 144 144 137 140 140 139 130 125 121 118 118 115 108 104 76 76 85 74 68 61 62 68 72 67 66 65 78 108 113 116 114 115 117 113 117 117 132 124 116 91 100 127 162 169 176 176 180 179 180 183 183 184 186 185 189 183 172 173 183 184 185 186 188 190 191 197 198 197 196 195 193 193 192 190 193 191 187 189 184 185 184 182 180 175 170 168 164 159 155 155 150 149 144 144 144 141 141 140 133 126 125 124 124 122 121 106 93 65 88 93 84 68 59 73 65 63 64 63 69 107 109 115 112 115 113 113 115 113 125 126 114 99 111 145 171 175 177 177 181 179 183 184 185 188 192 190 191 190 182 182 184 188 190 191 194 197 202 203 202 202 204 201 198 197 194 197 197 194 193 190 187 190 188 186 185 181 179 175 173 167 166 162 160 151 146 143 147 145 146 144 135 128 126 122 125 125 124 119 105 83 82 97 102 94 78 68 71 72 63 68 64 94 114 114 113 112 113 113 112 114 128 126 114 96 125 162 173 177 178 176 180 183 184 187 187 191 192 192 193 191 191 192 190 191 196 202 202 205 206 203 203 204 205 203 203 200 197 200 199 196 196 195 192 192 190 187 187 181 180 178 180 173 169 167 164 157 152 142 148 145 147 144 136 130 124 124 123 128 124 124 113 105 82 97 100 102 87 70 65 69 69 70 69 71 113 113 115 111 113 115 111 113 133 130 96 106 142 166 174 178 177 180 182 185 187 186 188 192 191 194 195 197 198 198 196 197 196 205 205 203 204 203 203 203 202 203 203 201 201 199 198 199 197 197 194 192 194 187 187 182 180 184 180 178 173 163 166 163 155 144 147 148 142 146 143 131 127 123 128 126 124 126 117 119 96 97 95 101 102 72 66 60 70 70 77 58 110 116 110 113 109 115 110 113 133 116 88 122 159 173 179 177 180 182 183 187 187 189 191 194 192 191 195 198 198 200 197 197 197 203 202 202 204 202 201 202 201 200 201 201 199 201 199 200 200 198 192 192 190 188 188 184 183 182 184 181 174 166 171 168 162 153 150 147 145 143 143 134 129 123 125 126 125 128 125 119 112 106 99 87 101 81 69 65 59 71 67 68 98 112 111 109 112 112 108 110 134 104 87 148 164 176 176 180 178 183 183 186 188 191 194 194 193 192 196 195 199 198 198 200 201 202 202 200 202 201 200 199 201 199 197 200 197 199 199 199 196 195 192 192 193 187 188 185 184 185 185 183 176 168 169 166 166 162 160 154 149 143 139 133 131 127 124 128 126 130 119 123 121 109 107 83 89 88 74 64 60 67 69 54 97 108 110 111 109 111 109 112 126 93 105 156 166 178 176 179 178 181 187 183 188 192 195 194 194 195 194 196 198 197 198 200 200 203 200 200 202 201 200 198 198 198 196 198 196 197 198 193 192 192 191 190 192 188 186 182 183 179 180 183 172 167 170 165 167 160 163 157 151 142 139 129 130 127 123 126 128 126 122 119 120 109 109 88 83 87 75 71 62 65 67 57 86 110 111 108 109 109 108 110 127 84 125 161 171 177 176 179 178 183 185 183 189 189 194 193 193 194 194 195 196 196 197 198 200 198 200 200 201 199 198 195 194 195 196 196 194 193 193 193 192 188 189 187 188 187 185 183 180 178 172 176 169 168 170 167 166 163 163 156 149 145 142 131 130 125 125 126 126 125 126 122 117 109 101 92 77 87 86 82 60 65 65 57 79 111 108 107 111 107 107 108 119 85 143 158 168 177 175 179 178 182 183 189 187 185 191 192 190 192 192 194 194 194 195 196 197 196 198 198 198 197 195 195 190 193 194 194 192 193 191 193 187 189 186 183 184 183 183 181 178 176 170 173 170 164 167 167 167 165 164 157 151 141 138 133 129 126 121 124 122 124 120 127 116 108 97 90 68 84 86 79 75 58 65 55 74 106 106 105 109 106 108 106 110 102 153 159 170 173 175 179 180 183 186 187 185 184 187 190 189 188 188 187 189 193 194 189 189 192 194 197 197 197 192 192 191 191 195 192 192 190 190 186 185 185 183 180 181 175 179 177 178 171 171 173 172 170 168 164 164 164 160 154 145 139 131 131 128 123 124 123 123 124 123 119 119 108 94 88 70 66 73 70 80 55 63 53 77 99 106 103 106 105 106 105 107 114 150 163 169 174 171 176 176 180 184 185 182 181 183 187 183 184 183 184 189 187 190 178 174 184 193 195 195 194 193 193 191 189 189 190 190 185 188 183 183 183 180 179 176 173 175 175 172 173 169 170 172 172 165 164 162 162 155 154 139 136 130 130 126 121 125 120 119 124 121 119 112 111 98 89 74 58 60 55 65 67 58 55 77 105 105 104 104 107 105 108 104 119 151 160 169 177 174 170 174 178 180 181 181 180 182 182 181 182 184 184 186 187 187 175 171 183 190 193 195 195 194 193 191 187 189 187 188 185 184 183 183 181 178 175 174 176 170 175 172 170 170 167 170 171 166 161 166 161 152 147 141 134 129 124 122 121 126 121 120 120 119 113 113 108 100 93 73 57 55 49 52 68 59 62 69 103 105 101 105 104 104 107 109 121 147 157 169 176 176 172 175 174 178 181 180 183 183 182 181 180 184 183 185 185 186 183 180 184 193 191 194 192 193 191 190 189 190 186 184 185 184 182 181 184 179 175 177 174 173 174 172 170 171 166 172 170 167 162 166 160 151 148 142 129 127 124 122 117 124 122 117 118 114 113 112 108 101 94 79 58 49 49 44 64 56 58 70 98 106 103 102 103 104 105 102 120 147 154 169 175 175 170 174 175 178 181 184 184 186 185 184 184 183 184 184 185 184 186 185 186 192 191 192 192 190 189 189 187 187 187 185 187 186 187 185 183 182 179 181 175 174 174 170 169 168 168 171 173 168 165 163 161 153 146 139 129 126 122 118 121 121 120 117 116 113 113 112 108 106 91 95 58 47 48 45 52 54 51 63 96 102 102 102 103 103 101 106 115 140 156 164 175 175 173 173 174 180 183 183 185 188 189 189 187 187 183 185 184 186 186 189 193 190 192 194 191 191 193 189 190 188 192 188 191 188 190 193 188 185 184 184 179 180 178 169 172 170 171 173 172 171 167 163 158 154 144 136 129 122 120 121 119 120 116 119 110 109 112 111 108 109 93 93 79 51 46 47 44 48 47 63 96 102 105 99 102 104 103 108 111 141 143 161 171 174 171 172 176 179 183 183 189 192 191 191 189 189 188 187 188 188 192 188 190 192 195 195 194 191 194 192 192 193 194 191 191 193 193 191 191 188 186 188 179 180 179 176 175 177 173 173 174 166 165 159 159 146 141 133 124 121 118 117 121 118 118 117 110 110 109 111 108 101 103 93 85 58 56 44 44 44 47 57 92 106 101 99 104 100 100 116 109 134 139 157 168 175 171 173 176 183 182 188 189 195 193 194 192 190 191 191 191 192 193 189 191 195 195 197 195 194 194 196 195 196 196 198 196 194 193 194 189 187 185 184 179 181 173 175 172 177 173 174 171 168 167 157 155 142 135 128 124 120 116 118 118 118 117 114 106 111 107 110 106 98 102 95 78 74 60 53 40 46 46 58 90 101 98 100 100 103 99 118 103 133 137 151 165 176 173 170 174 183 183 186 192 194 193 197 193 194 193 195 194 194 191 191 193 193 196 196 197 195 195 196 197 198 196 198 200 198 196 195 192 188 186 183 182 176 176 174 174 175 175 173 168 165 164 152 147 136 133 126 121 118 115 115 114 116 112 108 104 111 106 110 107 100 97 96 78 66 73 52 48 45 50 57 91 101 97 102 100 99 99 116 98 127 136 146 162 169 172 169 173 182 185 183 188 192 194 196 196 193 196 196 198 195 193 192 190 194 194 194 194 192 193 197 196 198 195 198 198 198 197 194 189 188 186 183 182 177 177 172 177 176 170 169 165 161 158 148 142 133 126 122 116 117 114 114 113 116 113 106 108 106 106 108 105 102 96 92 78 62 70 58 52 51 46 53 88 102 101 96 104 98 100 120 99 119 134 143 158 169 172 171 173 179 186 185 186 190 191 195 193 192 194 192 195 196 196 192 190 194 192 193 191 192 194 193 194 194 194 195 195 195 193 192 188 186 187 183 181 180 177 175 175 177 170 169 168 161 154 149 137 133 127 120 116 115 114 112 113 111 110 110 109 109 104 108 108 98 99 90 70 69 59 60 48 58 59 42 83 101 99 100 100 97 104 121 108 119 130 141 158 166 172 172 174 176 185 185 185 189 191 191 192 192 191 192 192 193 193 192 189 192 190 190 190 191 190 191 191 193 193 191 191 192 191 190 186 186 183 181 179 178 179 179 176 174 170 170 164 159 150 150 138 132 124 118 113 114 112 112 113 113 110 106 106 109 106 106 109 98 95 90 69 58 64 54 54 53 62 46 77 104 101 95 101 97 100 123 111 111 134 142 158 170 174 176 175 175 180 185 184 189 190 190 190 191 191 190 188 189 189 188 188 188 187 187 187 186 186 189 188 186 187 187 185 185 185 182 181 179 174 170 169 167 172 169 168 166 167 166 161 157 150 151 146 133 124 117 114 111 111 113 113 112 109 110 104 110 109 107 106 100 88 89 65 54 53 55 56 48 52 52 75 101 101 96 98 97 101 121 104 115 128 142 163 171 172 174 169 168 177 172 176 181 182 183 178 180 185 179 180 182 186 181 183 184 181 181 183 180 180 182 182 176 174 172 172 174 169 164 162 154 154 149 150 151 154 148 152 156 157 158 158 155 157 154 155 140 130 117 114 113 111 112 113 109 111 110 110 108 111 106 106 102 91 85 61 57 51 55 61 46 51 45 75 103 97 98 100 97 100 122 108 105 124 148 164 167 162 158 151 151 150 142 145 144 151 148 150 158 165 168 168 171 175 177 178 179 179 182 179 178 171 171 168 167 159 152 152 144 141 141 138 129 128 120 120 127 130 127 123 135 142 149 142 146 148 144 149 146 137 121 115 113 109 116 112 111 111 109 111 108 108 105 101 105 94 83 61 55 52 55 51 48 48 42 79 101 97 100 98 99 95 123 110 108 121 148 160 158 152 140 141 126 128 133 132 130 121 123 127 130 142 150 153 157 163 169 166 173 173 170 166 167 166 159 160 151 150 142 133 127 123 119 119 111 103 103 102 99 101 100 105 114 129 125 120 130 133 131 134 136 137 121 112 111 111 117 113 113 112 112 112 108 108 105 97 102 93 78 66 59 55 57 46 49 46 40 79 100 95 99 98 97 97 124 115 101 129 143 145 144 131 121 115 111 113 119 118 115 116 117 118 120 124 134 143 147 152 158 156 162 165 155 153 155 157 152 144 142 135 129 123 117 116 104 104 100 91 87 86 86 87 95 97 107 118 123 116 116 124 120 124 126 127 120 112 113 114 115 116 115 113 114 111 111 105 106 103 97 89 80 65 58 59 54 50 40 46 54 84 96 97 98 97 96 98 126 114 103 124 133 126 123 120 116 102 92 90 96 101 100 109 110 110 114 114 119 128 133 142 146 151 150 153 148 141 146 145 138 136 129 122 120 113 111 110 101 102 100 94 96 93 100 105 105 105 112 117 117 116 115 119 119 115 115 119 114 110 110 113 117 117 118 114 116 112 110 108 102 104 95 77 72 60 61 60 51 47 44 51 65 91 98 94 98 99 94 98 126 117 101 120 127 119 119 115 114 107 94 97 96 101 101 103 102 104 107 106 111 115 125 130 135 142 146 146 147 144 140 140 129 128 120 113 105 103 105 103 102 99 99 90 92 91 92 99 100 105 111 112 115 119 118 119 117 114 115 114 107 111 109 114 120 120 120 113 115 111 107 110 99 98 87 69 66 59 65 64 58 55 81 105 111 113 110 96 91 95 99 96 129 116 101 116 126 122 123 119 118 118 105 103 95 92 83 74 71 74 76 85 95 104 109 119 129 141 148 154 157 150 142 134 126 118 111 103 99 96 96 94 95 90 83 74 73 70 79 85 88 90 90 91 97 105 111 117 113 114 111 113 111 110 110 113 121 119 122 116 114 113 106 109 103 92 86 66 54 64 68 66 57 86 117 120 107 102 115 112 95 96 96 98 128 123 100 112 124 119 119 119 115 103 96 84 87 88 76 72 63 67 71 65 68 83 96 102 119 139 162 177 175 170 157 138 125 112 101 94 93 90 95 96 91 87 81 83 79 80 66 70 65 65 82 83 91 88 86 95 105 117 113 115 114 111 116 118 122 119 121 120 113 113 112 110 103 83 75 73 57 62 64 65 80 109 109 87 69 58 75 103 111 90 96 94 124 130 109 112 127 122 118 110 99 93 89 77 76 63 62 70 49 54 59 69 83 82 90 92 114 153 179 187 188 182 169 154 134 109 99 94 90 96 96 95 93 96 90 81 97 100 67 75 64 49 56 58 75 83 85 84 87 107 114 117 115 120 118 118 124 118 124 119 116 113 111 113 107 79 69 78 64 57 66 80 103 102 102 82 67 63 62 84 114 94 92 94 116 137 110 108 135 124 119 103 99 95 75 86 103 79 61 73 57 57 56 79 82 84 99 94 113 161 183 191 192 187 176 160 143 120 105 99 94 100 104 103 96 83 86 98 126 129 83 66 57 51 53 60 81 76 69 76 80 93 107 117 122 123 124 124 123 122 121 119 118 112 112 115 102 80 62 70 62 53 77 88 98 97 103 94 77 67 79 76 122 94 88 92 121 143 91 109 138 131 120 108 93 78 69 103 126 97 80 60 62 65 64 92 93 78 89 103 129 169 185 194 191 190 180 167 150 128 118 105 102 106 112 106 89 85 88 107 130 140 96 78 67 56 63 73 95 88 72 69 76 80 100 109 119 124 126 125 125 124 119 117 116 117 113 115 104 81 68 57 70 72 93 101 86 101 112 106 92 73 79 72 124 99 89 93 116 142 91 99 141 136 125 109 90 88 87 102 122 115 82 83 71 86 84 96 98 95 99 116 147 178 187 196 197 190 188 169 156 135 129 124 120 117 114 115 115 113 106 108 116 126 117 105 109 103 99 102 110 106 104 103 102 98 106 110 122 128 134 136 132 125 120 115 120 118 116 113 108 86 76 57 77 86 104 100 85 100 113 110 104 74 80 71 120 112 77 92 118 148 105 91 147 154 135 128 113 120 120 116 120 124 123 126 119 121 113 107 105 104 122 143 160 179 193 195 196 190 186 170 156 137 139 143 140 141 124 116 115 113 115 116 121 124 124 122 121 125 123 126 128 127 126 124 119 122 123 130 137 139 141 140 136 125 121 116 120 114 113 112 106 92 83 79 84 100 95 107 117 112 115 111 108 79 83 84 127 110 83 85 112 147 133 89 145 168 167 158 144 143 144 144 147 141 135 130 122 120 114 112 108 121 152 151 160 176 192 199 198 191 186 163 152 140 139 146 153 152 147 135 127 120 125 118 123 123 124 130 129 132 133 138 135 134 131 131 136 139 148 147 151 145 145 142 139 132 117 117 117 115 108 108 105 92 85 95 91 105 76 70 116 115 112 124 110 84 85 97 139 107 78 87 110 151 149 104 146 175 182 177 159 151 147 145 142 137 130 123 115 118 124 129 140 154 161 154 159 171 190 196 199 187 182 161 150 142 144 144 151 155 151 144 139 142 140 136 132 126 121 121 118 121 121 122 124 120 123 124 129 136 146 150 159 153 149 146 141 134 121 118 115 111 111 104 104 94 90 107 95 100 67 52 90 109 113 130 123 89 82 115 146 87 80 83 109 148 153 102 157 177 186 179 160 143 136 131 127 126 128 128 136 147 151 162 161 163 162 159 160 172 187 195 195 187 175 159 145 144 147 145 151 149 153 146 143 149 151 152 153 149 138 133 127 124 122 124 125 128 131 144 151 152 153 150 151 152 152 151 143 139 125 117 113 106 109 103 103 93 97 114 99 92 80 74 78 100 109 129 131 95 95 128 131 75 81 84 107 149 146 119 163 181 180 175 173 161 157 148 148 148 153 160 166 166 171 173 164 161 162 160 160 169 187 193 193 181 166 153 148 142 143 147 148 147 151 144 144 150 156 156 164 165 164 161 154 147 147 145 147 149 156 163 164 167 167 159 158 154 152 148 145 140 128 117 109 107 106 104 100 94 102 124 111 95 83 100 83 96 101 127 133 99 114 134 99 76 79 84 104 145 159 138 164 178 183 185 188 185 183 177 175 170 169 176 179 175 172 167 162 163 163 160 161 167 190 200 195 180 161 152 146 143 142 142 148 145 147 144 148 153 158 165 168 176 175 176 173 168 163 164 162 166 170 172 175 174 170 166 160 158 157 151 142 134 125 116 107 107 103 102 100 95 107 129 125 109 97 106 107 93 97 119 129 104 128 128 74 79 81 82 108 128 172 156 162 176 186 186 187 186 185 183 179 178 180 180 182 177 174 168 163 165 163 158 160 171 195 205 200 179 162 154 149 143 138 138 140 146 146 146 151 159 163 171 172 177 177 183 180 183 176 175 173 173 174 175 174 174 169 171 165 161 160 153 144 137 121 115 108 107 99 101 98 94 110 124 128 110 121 116 116 102 96 118 130 109 139 105 70 76 78 78 119 117 162 158 160 172 181 180 182 182 178 182 180 182 183 180 183 180 173 169 167 162 157 158 165 168 194 203 196 183 168 162 155 147 138 137 132 136 139 145 154 157 165 174 177 178 181 186 183 178 179 180 176 176 173 176 171 171 169 168 164 160 157 151 142 135 116 115 108 103 100 99 101 95 110 120 121 96 117 126 122 102 97 125 125 122 132 88 69 76 78 78 122 109 156 153 158 172 179 181 176 182 182 184 180 182 184 185 181 181 178 173 162 157 156 159 163 168 195 199 187 179 171 165 159 149 144 142 142 137 135 134 150 155 164 172 177 177 179 182 182 182 181 183 173 176 175 174 171 171 172 172 163 162 157 151 139 129 111 111 109 99 99 99 95 95 111 122 112 80 97 120 117 100 108 125 126 131 116 68 70 77 75 73 122 113 131 160 159 167 173 179 175 179 184 185 183 183 181 182 180 178 173 169 152 156 156 159 163 171 186 190 182 177 172 169 164 151 142 145 147 152 144 141 130 138 148 164 168 171 177 182 179 182 179 176 172 173 176 173 174 167 170 166 161 161 151 148 135 120 110 107 107 102 98 93 98 93 117 116 90 80 110 111 113 116 123 119 128 131 86 68 72 70 72 74 117 112 129 151 156 168 173 179 174 177 181 183 181 181 181 180 175 172 165 150 152 156 156 160 163 170 178 182 178 172 171 170 165 150 141 140 147 149 143 141 132 121 126 146 155 163 170 174 175 177 172 173 170 171 173 170 165 167 165 162 157 150 147 143 127 118 109 106 105 100 101 97 95 96 115 107 81 102 127 126 120 122 125 127 129 112 70 67 70 73 71 74 119 119 113 153 155 168 172 178 173 175 178 179 177 175 173 170 164 158 137 135 154 155 150 160 165 171 173 173 173 172 168 159 153 137 130 135 137 139 136 135 125 109 118 128 139 147 160 165 167 167 165 167 168 166 168 165 159 160 158 153 150 145 140 135 123 113 106 105 100 103 98 96 94 98 111 109 108 128 136 130 127 128 126 130 119 89 60 68 70 69 69 71 120 119 107 145 155 167 167 172 173 172 176 173 174 168 170 161 147 134 116 131 152 148 140 149 160 167 173 168 169 167 162 148 132 120 119 122 125 125 125 124 113 99 114 134 131 131 139 148 157 159 160 162 160 156 157 159 156 152 149 146 142 137 132 130 120 112 105 104 96 106 97 95 95 97 108 115 129 133 136 132 129 133 133 125 93 67 67 68 67 68 72 69 119 121 108 136 159 167 166 165 166 168 169 171 171 163 158 145 128 115 115 133 145 135 123 128 148 159 165 160 159 157 145 128 113 101 100 97 97 106 111 111 99 98 121 143 146 134 126 128 142 149 153 160 153 152 154 151 149 145 145 143 134 133 129 126 118 109 102 104 100 101 101 94 96 98 111 119 122 129 131 125 129 133 136 103 69 61 68 67 64 71 72 71 119 120 111 125 151 158 156 159 161 162 161 158 155 151 141 127 113 116 138 145 129 119 100 99 116 133 140 144 144 140 122 109 89 79 68 68 66 82 88 93 98 106 125 138 147 146 136 118 121 135 141 148 152 150 147 140 141 140 142 138 133 129 122 122 117 107 109 102 101 102 100 93 94 100 119 125 124 127 129 128 128 135 125 86 59 62 65 69 65 69 70 70 119 120 111 119 149 146 149 152 154 150 153 152 147 139 129 115 112 128 145 153 139 114 87 74 89 105 114 117 118 111 104 94 77 78 79 81 76 83 88 104 105 112 118 132 142 143 143 132 114 119 126 135 144 143 140 137 136 136 133 132 126 122 123 121 115 113 106 106 101 100 99 93 91 99 120 125 127 123 125 126 125 118 104 66 63 63 68 65 64 67 67 67 118 119 114 117 141 133 140 142 141 141 142 142 139 127 121 104 119 142 151 149 151 126 101 90 91 96 102 103 97 99 97 91 90 92 94 97 97 100 103 111 112 115 120 134 142 143 140 135 126 115 115 123 136 138 131 132 128 129 129 125 123 124 121 120 115 109 109 105 101 100 97 91 91 96 110 123 119 118 115 117 109 95 71 62 64 63 65 65 65 67 66 66 119 121 118 112 126 128 126 135 134 131 133 133 131 121 113 108 135 151 153 151 152 139 117 107 108 106 104 105 101 99 97 99 98 100 103 110 109 110 111 112 116 117 119 135 140 141 137 137 136 127 117 111 127 131 129 128 124 126 125 124 120 118 124 117 114 110 107 106 102 99 94 91 91 93 92 103 102 103 103 97 83 66 63 58 64 64 65 62 65 66 68 64 117 118 120 117 117 121 121 126 125 131 130 128 128 119 108 123 139 147 152 146 153 146 127 117 116 118 118 110 106 110 111 109 110 111 114 116 114 113 119 118 123 120 118 130 136 140 137 146 141 137 129 120 115 124 128 125 128 126 125 124 119 117 121 120 113 111 104 106 102 100 92 86 92 85 67 72 74 70 73 69 61 63 58 67 59 68 61 63 62 65 67 65 120 117 121 118 109 125 110 115 120 122 125 128 125 114 120 131 138 140 140 145 149 153 147 130 129 124 127 123 121 122 122 117 122 118 122 122 121 122 124 131 130 127 129 135 133 134 135 141 141 137 134 130 122 120 125 130 125 124 122 122 118 117 118 114 110 107 111 103 100 98 92 87 89 75 62 55 64 61 57 64 58 63 63 62 60 67 64 63 64 71 60 69 120 115 118 120 115 112 122 108 118 119 128 129 125 117 123 132 136 135 140 148 152 159 156 153 147 140 133 130 130 129 124 123 126 127 132 128 130 128 131 133 136 135 138 139 137 132 131 129 117 119 122 125 127 126 127 129 128 120 121 119 113 119 114 115 110 109 104 102 102 94 89 85 89 72 58 59 60 61 59 62 65 57 63 59 64 65 64 63 64 62 63 68 118 117 116 118 114 113 122 116 114 119 126 134 129 121 123 127 124 125 138 148 153 158 162 162 158 149 141 133 133 134 130 128 129 126 128 126 125 129 125 129 131 131 134 138 136 130 127 118 109 101 112 122 134 138 136 135 130 121 118 116 111 111 110 113 111 108 104 101 99 92 88 86 84 71 56 60 62 58 58 60 63 59 64 57 63 63 61 65 62 64 65 66 115 115 117 116 116 111 121 123 115 117 130 135 138 130 132 123 113 112 131 141 141 143 145 149 144 140 131 124 122 122 121 118 120 113 120 115 116 116 112 115 111 109 115 112 116 113 106 102 91 83 98 118 136 144 146 143 135 127 116 116 108 112 113 114 109 109 104 100 97 89 87 85 81 69 55 59 60 58 60 61 61 56 62 62 63 64 62 64 60 65 64 64 115 118 115 114 117 112 114 125 124 118 130 137 146 147 140 123 107 100 116 117 113 113 111 117 115 113 106 109 105 103 98 102 102 101 103 99 92 97 99 98 89 91 96 87 86 80 67 61 52 49 85 115 131 148 153 153 140 128 114 115 106 111 115 112 109 107 101 96 95 87 86 83 82 64 59 60 58 61 58 61 62 60 62 64 63 64 63 63 63 64 67 65 115 116 115 114 116 115 109 118 133 124 118 138 147 154 155 134 110 100 80 74 79 62 70 95 89 107 100 87 110 114 113 101 100 117 124 123 95 95 126 127 90 108 121 95 80 60 44 37 40 64 101 124 139 150 159 152 138 123 113 107 110 109 116 112 109 103 102 93 94 86 81 83 81 60 52 63 60 58 60 61 58 62 61 61 59 67 60 65 64 64 62 64 117 115 112 116 114 114 112 111 130 131 118 129 146 153 160 148 127 119 88 68 52 31 26 119 114 133 131 104 136 152 156 132 127 154 158 155 121 110 140 141 109 118 138 92 60 47 50 67 89 112 130 141 152 155 159 145 129 122 112 108 110 110 115 108 108 101 95 92 87 83 79 87 83 60 58 59 58 59 61 58 62 63 61 60 62 63 62 62 63 62 64 64 116 114 115 115 116 112 115 106 125 132 128 121 139 153 159 156 143 139 126 116 93 63 18 109 128 145 141 118 146 169 177 157 143 171 173 170 133 120 139 140 97 91 120 89 60 75 100 109 122 138 146 152 155 158 153 140 125 115 111 107 110 113 112 109 104 101 91 90 85 81 83 88 82 54 60 56 58 57 62 56 60 57 63 62 63 61 59 64 62 64 62 65 115 115 112 116 117 112 116 111 107 134 139 118 132 150 159 165 155 146 146 145 136 106 72 84 111 123 126 108 145 166 178 162 132 154 159 153 119 72 98 104 76 71 97 105 104 118 125 132 138 148 152 151 158 157 154 140 120 112 110 108 110 113 110 107 103 96 89 89 78 82 88 86 77 55 57 58 61 58 61 60 61 59 58 63 58 62 58 65 64 61 64 62 116 117 116 113 115 115 114 117 108 115 132 130 121 140 156 163 163 151 150 157 156 143 123 107 100 90 90 77 86 104 116 112 81 91 106 109 92 85 98 114 116 121 123 132 134 136 142 147 149 155 155 153 157 162 158 136 122 111 110 110 112 110 105 106 101 90 88 83 77 83 90 89 70 52 62 57 57 60 59 60 60 59 59 64 58 61 60 65 62 61 65 61 114 115 114 117 113 113 115 112 108 111 126 139 120 128 147 161 167 160 150 156 157 154 147 146 144 140 139 136 132 136 145 150 144 134 126 121 119 121 132 135 137 139 138 141 142 141 150 150 150 154 154 150 151 154 145 133 116 112 111 112 109 109 102 102 94 91 84 79 80 89 92 87 64 55 59 60 56 60 58 63 57 60 61 59 60 61 60 62 62 60 61 68 116 113 113 116 113 113 112 112 116 110 110 133 128 119 135 151 163 164 159 157 163 159 152 149 148 157 151 152 147 154 157 158 158 153 145 141 139 141 144 143 148 143 141 142 144 146 153 149 148 151 149 145 141 146 140 125 114 114 110 107 112 102 102 93 90 86 77 83 82 93 90 91 55 55 57 60 57 60 56 60 57 63 58 61 63 60 62 61 61 64 61 66 109 116 113 112 113 113 111 114 112 111 105 118 132 121 123 143 153 164 161 164 165 164 160 149 144 152 153 157 157 161 163 162 160 158 155 151 147 146 149 145 147 141 140 139 144 148 149 149 146 145 143 141 147 144 137 121 112 110 107 106 105 105 95 90 88 81 76 85 92 90 92 85 53 58 54 62 57 60 57 59 58 60 59 58 57 63 60 62 63 59 64 60 112 114 111 114 113 115 108 114 110 112 109 109 119 130 114 130 150 160 157 163 165 165 167 154 145 148 146 148 149 154 154 154 151 148 146 145 143 146 147 149 146 144 141 141 143 149 149 146 142 139 139 142 142 144 131 114 112 106 108 106 107 98 93 87 82 76 83 94 94 89 95 79 50 59 54 63 60 59 59 60 59 58 60 57 57 61 62 60 63 62 60 59 112 112 112 114 110 111 112 111 113 109 109 111 107 120 119 116 145 157 158 161 163 162 166 160 151 147 148 145 147 148 144 144 143 141 139 145 146 154 152 150 146 145 143 142 142 146 145 139 137 142 144 144 144 139 125 113 107 107 109 106 97 95 89 84 76 75 93 97 93 88 93 76 50 59 57 59 57 58 58 60 55 63 57 58 62 59 62 59 66 57 62 59 113 111 112 112 112 114 109 113 110 114 111 109 109 106 119 116 127 151 161 163 161 161 162 164 155 148 150 148 150 152 150 153 147 146 151 149 146 148 150 148 143 145 146 137 142 145 143 132 139 142 148 148 141 133 123 107 107 102 107 98 97 87 85 75 77 90 96 98 92 90 90 71 55 56 59 58 58 59 59 57 60 56 59 60 61 59 60 60 62 61 59 65 111 113 112 112 111 111 109 110 111 109 113 107 106 109 115 115 116 143 153 161 163 163 160 162 158 148 151 149 157 154 151 151 148 146 147 148 148 148 150 149 145 144 144 139 145 145 137 137 144 150 148 147 140 127 115 108 105 105 101 95 89 83 77 77 83 93 95 95 94 88 88 65 52 58 55 57 58 58 55 56 58 57 57 62 54 62 58 58 61 62 61 59 112 111 114 110 111 111 110 111 109 109 109 104 104 112 132 111 115 125 151 159 163 163 159 158 156 152 151 150 156 159 159 157 159 159 159 157 159 158 153 155 154 147 149 146 149 145 144 149 149 150 149 146 136 122 108 103 102 103 96 89 84 77 74 86 89 91 102 94 94 86 87 64 55 58 56 57 56 56 55 55 59 57 59 59 58 60 58 59 61 57 63 59 111 111 110 110 110 111 109 109 108 111 111 110 100 112 150 124 112 116 136 157 165 161 161 160 156 149 152 149 155 164 165 167 171 175 176 174 172 168 164 163 157 154 153 152 154 151 153 153 149 151 153 144 124 111 104 101 97 99 85 80 78 71 82 86 95 95 101 92 96 82 86 64 53 54 58 53 57 57 57 57 57 57 59 58 55 61 53 62 58 58 62 58 110 111 111 109 110 109 108 108 107 111 106 110 101 110 144 150 117 107 123 147 164 165 160 172 167 156 154 153 159 162 163 165 169 177 180 174 174 162 163 160 153 155 158 162 162 161 157 154 152 154 152 134 121 104 95 98 91 82 80 75 76 78 86 94 93 102 97 89 89 89 83 60 56 57 54 56 57 55 57 56 55 59 55 56 57 59 60 57 59 59 58 62 107 108 111 109 110 109 109 108 108 106 109 109 98 115 145 149 140 108 111 136 156 164 162 165 172 164 162 160 156 157 158 166 171 180 181 179 172 166 158 154 154 156 163 166 164 165 156 152 151 148 139 121 106 99 93 89 81 72 73 73 80 85 88 91 95 99 90 86 85 85 84 55 53 56 55 58 55 55 55 57 54 56 57 57 59 53 61 57 58 60 58 57 108 109 108 109 106 108 104 110 105 104 107 105 100 115 144 144 144 133 109 119 146 159 163 163 172 169 166 160 153 155 158 163 170 175 178 180 173 162 160 159 158 156 162 166 164 162 153 147 142 138 125 112 97 89 87 79 71 73 75 80 81 86 91 86 95 96 99 83 78 90 83 52 53 58 52 54 57 52 58 54 56 55 57 55 57 58 55 60 54 61 58 59 111 107 107 105 109 105 104 109 104 105 105 107 92 118 149 139 146 136 120 102 133 148 161 164 165 169 163 160 153 154 164 166 172 171 169 176 173 162 158 162 156 151 152 159 155 153 144 138 132 126 113 102 89 82 80 73 73 78 81 77 89 88 90 85 97 93 96 86 80 90 80 54 55 54 57 51 55 56 53 53 58 55 58 54 55 59 55 60 53 59 57 58 107 108 107 105 107 106 105 107 106 105 105 104 94 118 154 140 146 143 124 113 111 135 150 158 159 167 157 156 153 159 163 165 162 164 159 166 168 160 157 156 152 144 146 151 149 142 134 126 119 112 104 90 85 79 74 73 79 81 82 81 93 92 92 88 88 100 89 91 86 87 77 53 53 55 54 53 52 53 56 53 58 55 52 55 57 55 55 58 54 59 57 56 106 105 107 106 108 106 105 107 104 105 107 102 97 121 158 149 141 143 143 123 115 112 138 143 152 157 154 148 150 154 157 154 149 148 147 146 149 155 147 145 145 141 138 137 130 129 117 109 112 99 91 81 76 76 80 78 84 76 87 88 87 99 93 83 89 94 92 89 84 88 72 49 54 54 52 56 52 55 52 52 55 52 56 56 55 55 53 59 55 60 58 60 108 103 109 104 105 107 104 104 107 102 105 99 110 135 157 151 144 138 143 132 122 110 114 137 140 149 151 147 144 144 145 140 141 135 135 132 136 144 132 130 133 127 124 121 117 109 106 104 95 83 81 76 81 79 77 82 82 82 89 93 91 102 96 89 94 91 92 88 84 89 68 45 55 54 55 53 53 53 53 53 53 51 56 54 55 53 57 58 57 56 55 63 105 105 105 107 106 107 102 103 103 105 111 115 107 133 155 153 146 138 145 137 126 116 107 115 124 136 138 139 137 132 134 128 129 127 124 123 126 129 122 118 116 111 110 107 104 101 94 89 79 79 77 79 82 82 84 81 86 88 90 95 97 98 94 95 93 91 90 88 82 94 65 45 55 51 55 52 52 56 53 51 57 54 53 54 55 52 59 53 58 55 57 58 108 105 104 105 103 106 104 105 99 126 123 82 52 135 155 152 149 148 144 139 128 123 119 107 106 119 124 126 122 123 119 117 117 116 112 112 110 109 109 107 100 98 98 96 94 91 82 75 74 81 75 85 81 83 85 84 86 90 96 89 94 99 95 91 93 93 87 86 86 90 62 47 51 51 55 50 50 53 52 53 56 52 50 55 57 51 56 52 58 55 58 57 106 104 107 103 104 105 103 105 96 150 101 19 72 143 155 151 152 150 146 140 123 125 119 116 109 102 106 112 113 108 104 103 105 102 99 101 95 96 97 93 87 88 85 89 80 79 74 79 77 78 83 82 80 82 88 90 95 92 99 93 98 95 94 90 94 98 88 83 86 85 64 48 52 52 50 53 53 53 48 54 54 52 56 50 57 55 54 55 56 54 57 55 102 105 102 103 104 108 106 115 114 142 84 53 77 140 156 155 153 151 155 145 135 126 117 116 121 107 95 96 98 100 96 89 90 88 85 83 81 82 80 81 79 76 77 75 75 74 75 78 77 82 82 87 77 83 94 95 93 94 97 96 97 96 93 93 94 92 91 84 86 84 70 54 53 51 50 50 54 50 53 49 52 53 51 56 53 55 52 55 54 56 55 60 105 104 105 106 114 115 121 122 115 140 80 84 63 141 155 155 156 151 153 144 141 132 127 125 116 112 106 102 90 90 86 86 78 83 72 75 74 71 74 75 75 74 74 72 75 76 80 80 83 84 82 83 80 87 96 93 96 93 93 98 101 97 95 98 93 96 89 86 85 76 68 56 46 50 51 54 47 49 52 51 50 53 49 53 55 52 55 54 53 55 57 54 108 111 114 128 123 117 117 123 116 140 72 97 56 146 155 156 152 150 149 151 137 138 131 134 117 112 111 105 102 97 96 89 84 83 75 80 74 74 77 74 76 76 81 78 77 80 81 81 87 83 80 83 85 85 96 96 96 97 93 100 98 103 99 94 96 93 90 88 89 64 61 65 52 45 53 50 48 52 49 51 49 53 50 52 55 49 54 51 53 55 56 55 116 129 124 123 116 107 122 121 129 136 64 99 62 147 153 156 152 150 149 147 148 137 130 134 125 113 112 109 102 103 98 96 91 87 80 80 73 71 75 77 79 78 84 81 83 85 86 83 89 87 85 91 86 93 96 96 100 98 98 101 100 102 97 98 96 94 87 88 95 47 55 70 62 54 47 54 49 53 48 49 52 50 50 51 54 52 55 52 58 52 56 56 129 126 112 114 110 101 123 113 148 119 45 95 83 150 155 154 159 154 150 148 146 143 136 134 130 113 114 110 104 100 99 100 95 89 87 82 76 68 76 80 86 84 88 86 88 89 91 89 87 85 86 86 89 90 97 100 99 102 94 99 104 100 100 97 97 89 91 83 95 43 46 81 45 51 48 50 51 49 53 47 49 49 52 51 51 51 52 51 54 54 54 56 