P2
92
112
255
128 125 126 126 126 126 126 128 128 127 127 126 127 127 121 125 123 114 119 122 123 115 123 124 123 130 130 130 123 125 125 122 127 127 119 117 116 114 105 100 104 100 115 115 113 124 110 97 97 108 112 105 113 121 122 121 123 124 109 112 120 125 122 125 128 124 125 126 127 129 127 126 127 127 128 128 130 127 127 124 124 127 124 126 123 127 124 124 126 125 126 123 127 127 124 126 126 125 126 129 125 130 127 129 129 120 124 129 120 120 118 128 124 126 125 118 115 132 133 134 129 124 130 130 124 123 114 105 105 100 100 101 92 90 113 127 121 103 95 94 119 128 127 123 132 126 118 114 119 121 110 111 117 121 122 122 128 114 113 123 132 129 124 125 125 128 128 129 129 128 130 124 126 126 122 126 124 127 123 127 124 124 124 124 127 127 124 126 128 125 128 123 127 125 126 126 122 122 123 117 118 119 126 122 131 124 125 118 116 127 127 122 131 129 129 132 127 119 115 116 106 101 107 100 101 111 120 120 117 128 134 136 141 132 134 137 150 132 119 120 121 124 114 110 115 123 124 122 122 116 105 115 131 128 131 128 131 132 132 129 127 125 127 126 124 127 123 128 127 125 124 126 125 125 124 127 128 126 127 126 126 125 128 124 126 126 122 116 104 106 115 110 122 122 122 119 129 130 121 128 125 118 123 118 119 123 117 120 121 121 117 116 107 110 113 101 107 106 114 125 142 149 145 132 130 132 127 146 153 150 147 135 130 125 118 113 120 124 127 119 113 113 124 121 132 132 127 131 125 130 134 130 128 122 126 127 123 127 123 125 124 124 127 124 123 126 124 124 126 125 129 128 127 127 127 126 126 120 112 103 92 98 107 105 120 123 119 117 125 126 123 130 128 123 114 112 111 109 113 111 110 110 114 112 111 112 109 101 99 101 117 122 120 110 114 119 132 124 117 132 157 168 149 138 128 120 120 118 124 121 129 124 104 110 136 120 134 140 134 130 126 131 136 130 129 127 131 124 124 125 125 127 125 124 124 126 123 125 124 126 125 125 131 129 127 124 122 128 124 113 118 106 103 108 117 118 126 131 134 128 129 121 114 119 122 119 113 104 101 104 99 94 92 98 100 88 86 87 83 83 82 88 94 98 105 95 98 116 119 114 110 123 135 151 141 126 122 114 120 122 121 116 126 117 105 111 137 128 136 147 142 136 131 131 121 120 136 139 132 129 123 124 125 125 126 123 123 128 124 125 124 125 125 126 128 125 127 124 125 122 113 107 109 107 106 107 116 127 119 123 131 135 133 128 123 126 128 123 125 109 97 93 85 76 71 74 71 74 75 83 84 72 84 92 94 100 102 100 97 102 102 109 111 126 157 160 146 130 126 127 125 121 121 120 128 128 108 108 130 131 136 136 142 144 128 127 109 113 138 151 133 128 126 121 126 125 126 125 124 124 124 126 125 127 126 128 127 126 124 126 127 110 114 116 112 101 101 111 128 131 126 124 123 130 130 131 126 122 120 112 102 97 93 85 81 75 73 72 75 74 82 87 92 98 101 101 113 118 121 120 120 122 117 112 128 150 163 155 132 126 131 127 126 125 118 113 116 121 113 129 129 124 124 124 148 146 119 117 104 115 150 136 127 128 125 125 122 125 125 123 126 123 124 127 124 124 127 124 133 125 130 121 115 108 115 115 114 109 101 106 131 145 137 133 129 133 132 132 120 122 114 105 102 102 91 86 80 83 81 81 79 78 81 82 91 95 112 122 132 128 116 108 112 120 125 133 151 159 153 141 128 130 130 125 119 129 126 119 122 114 111 120 129 118 115 126 145 133 117 113 109 125 143 123 113 125 125 124 122 125 123 125 125 126 123 125 126 125 129 124 133 124 128 129 106 109 123 118 125 123 118 121 132 144 141 132 137 135 131 122 120 112 105 92 93 96 78 77 94 91 81 77 87 92 94 95 92 105 110 115 128 137 129 123 121 122 126 141 143 147 141 132 135 130 123 121 110 122 133 127 123 113 109 113 118 112 112 129 133 121 121 105 98 120 115 109 113 112 118 122 123 126 125 124 125 125 126 123 124 126 130 135 125 127 125 118 112 112 122 128 122 132 133 139 140 139 136 139 136 133 118 118 108 96 98 112 95 84 84 92 94 100 92 88 89 95 99 103 99 101 100 108 109 113 119 131 143 146 143 140 139 139 134 129 131 127 126 128 118 130 144 123 111 116 113 114 124 123 127 130 119 117 119 106 110 113 106 99 99 100 104 117 125 126 125 123 123 127 125 124 123 122 127 123 130 125 107 104 114 118 122 125 122 128 143 147 145 146 141 138 138 129 124 118 105 101 100 99 94 87 93 100 97 96 94 91 93 90 102 114 114 118 124 122 124 123 125 137 137 134 129 126 125 130 133 138 134 126 127 128 124 144 141 122 121 120 124 132 132 131 136 136 135 130 132 121 118 111 100 110 114 104 90 105 116 125 122 125 125 125 126 125 126 124 128 129 125 125 105 109 123 130 127 128 135 140 144 141 138 139 133 130 128 124 118 116 110 107 107 100 97 103 101 96 95 98 99 98 99 104 110 109 105 110 109 105 110 123 126 120 120 128 132 135 138 141 147 138 135 129 129 127 137 146 129 125 125 124 131 125 130 136 140 134 133 125 117 120 122 118 112 111 108 94 100 103 119 125 123 123 124 125 125 124 126 125 122 123 125 122 105 107 128 133 134 131 135 141 144 145 140 134 131 128 124 119 114 108 102 104 106 110 107 108 103 90 95 104 102 107 106 107 102 96 99 104 104 111 118 120 118 117 124 131 134 138 142 138 136 129 131 136 132 131 137 138 129 132 127 126 131 133 136 135 129 118 126 125 124 132 142 136 124 111 109 101 100 103 114 128 127 120 125 125 124 124 125 125 117 115 118 122 106 97 119 124 137 138 143 143 143 140 140 135 135 129 124 121 120 111 98 87 91 96 108 111 96 85 99 104 104 102 103 100 92 92 96 99 109 125 129 129 135 132 136 137 138 141 138 141 144 144 140 142 137 132 129 130 129 132 135 133 135 135 126 121 117 111 122 137 132 140 154 142 125 112 111 100 101 90 91 115 125 123 125 124 123 125 123 125 112 126 117 118 117 112 117 117 125 129 141 148 150 144 142 140 133 134 124 120 114 114 112 108 106 100 92 107 100 91 104 111 116 108 102 101 102 100 112 115 121 123 131 143 142 149 148 143 138 141 137 135 140 137 137 135 135 126 123 123 131 135 135 128 124 122 118 115 118 124 130 129 131 131 141 137 128 120 108 94 84 100 83 89 125 119 126 124 121 126 124 124 124 117 122 108 112 111 114 117 119 119 128 133 138 141 143 142 139 132 125 116 109 105 98 94 100 106 108 96 102 99 103 108 117 114 105 98 108 102 106 104 118 127 127 141 144 145 142 148 154 163 158 147 140 134 135 132 134 131 126 125 119 116 116 124 122 116 114 116 116 115 121 130 126 125 129 135 132 121 108 92 84 77 79 77 117 117 121 125 122 122 125 123 122 107 97 108 109 110 111 116 120 123 126 130 129 129 135 135 138 136 128 124 110 108 101 96 101 105 104 103 107 110 113 111 114 110 109 105 108 107 111 114 130 135 135 131 131 131 138 143 145 160 159 153 143 136 139 137 136 137 132 130 124 118 107 97 92 89 91 96 92 108 114 115 116 120 124 119 118 106 101 93 83 74 66 76 108 115 121 122 125 121 125 122 121 106 97 103 108 112 111 108 119 123 124 125 123 122 126 131 137 134 127 122 117 115 110 108 112 112 115 114 114 118 124 123 128 127 130 123 121 114 117 123 133 138 134 136 135 135 136 133 134 143 149 147 143 137 131 139 139 147 144 145 139 137 129 110 98 92 91 97 96 101 115 119 124 127 134 134 124 104 99 93 90 88 65 81 98 105 122 125 123 122 120 126 85 86 87 105 105 112 117 110 117 123 124 123 127 126 130 129 134 126 128 133 134 134 124 122 128 123 128 125 123 129 126 127 128 134 132 126 122 122 125 132 129 138 138 136 135 136 141 138 139 139 146 150 149 151 142 143 150 155 154 158 146 151 146 140 111 101 91 82 83 98 109 123 131 135 134 129 122 110 105 93 93 85 81 79 79 105 122 123 121 124 123 124 85 80 93 95 101 118 123 112 115 117 117 125 130 131 133 136 137 133 141 149 154 146 131 139 139 140 138 137 134 133 135 143 143 143 144 143 136 135 134 142 138 141 145 147 145 147 146 141 146 150 152 153 159 157 153 156 156 155 155 162 156 156 155 150 143 123 99 96 88 83 92 96 106 110 114 121 103 98 93 101 92 83 81 78 77 98 123 121 122 124 119 125 81 80 83 99 99 113 114 123 129 127 125 126 128 126 128 140 140 142 151 157 152 149 145 154 154 152 144 142 144 137 139 156 161 166 161 158 153 150 152 147 153 151 150 151 150 152 157 153 145 150 152 154 162 164 159 165 171 162 157 157 158 161 159 158 155 146 120 106 114 106 101 107 118 119 129 126 111 91 75 89 94 77 70 79 78 95 118 121 123 122 118 123 85 70 71 82 86 114 123 130 126 122 128 131 132 132 130 129 135 141 151 152 146 151 163 167 164 159 150 152 155 153 155 166 172 177 175 168 162 160 160 159 163 162 161 157 157 159 163 163 159 154 152 154 162 159 157 169 173 166 162 159 162 160 158 159 156 153 133 122 124 122 123 120 124 123 118 111 97 88 80 82 87 81 66 73 88 87 117 118 119 122 120 125 86 90 74 80 102 122 137 140 127 128 136 141 139 138 137 133 137 143 145 146 150 157 162 165 161 164 160 162 172 172 171 176 175 180 186 184 180 174 172 177 174 173 165 165 166 169 169 170 169 166 155 154 162 162 163 165 168 167 166 169 164 156 161 161 161 158 150 136 130 123 119 118 118 113 110 101 93 83 84 87 83 79 64 81 85 79 108 120 119 122 122 122 98 90 71 95 109 139 145 146 141 137 139 142 138 146 147 142 144 147 151 151 152 156 159 164 168 169 168 176 183 182 180 182 183 184 187 186 186 187 184 185 182 180 177 174 172 176 176 168 165 165 169 162 169 170 173 169 170 167 168 176 171 166 163 164 159 161 156 153 145 130 123 104 104 97 92 90 83 77 90 91 80 81 79 73 96 81 84 122 123 120 122 120 100 93 85 98 128 148 149 153 141 144 145 146 152 154 152 143 143 140 140 150 158 165 169 175 181 179 179 185 192 193 189 188 190 191 193 190 191 192 188 187 186 187 187 184 182 179 182 180 177 176 176 172 168 172 178 179 176 173 172 180 172 170 167 161 160 164 156 160 159 152 135 115 87 107 95 105 106 95 88 106 84 85 91 90 86 103 71 114 124 122 120 124 100 90 83 119 140 150 154 152 150 154 157 156 161 157 160 154 144 137 145 162 167 171 176 183 190 187 189 197 197 200 198 195 195 196 196 195 196 193 192 193 193 192 189 190 187 184 186 188 183 178 176 176 177 181 181 182 176 174 175 178 175 169 168 164 166 161 159 160 164 162 155 138 111 105 117 120 131 113 90 84 96 89 86 95 88 91 82 107 124 120 121 118 104 75 100 136 149 153 155 157 158 161 166 166 171 164 166 165 160 153 164 176 179 182 189 191 193 193 195 201 203 201 201 201 195 199 197 197 199 197 195 196 195 195 194 195 191 191 189 190 188 185 181 183 185 186 184 178 177 177 175 180 176 171 169 163 166 162 160 161 161 162 162 150 137 111 121 122 134 130 101 78 75 82 89 89 103 71 85 107 118 122 117 120 87 74 117 147 152 153 153 160 160 168 168 170 173 176 174 175 175 173 176 182 185 187 190 192 198 198 203 203 205 204 203 204 199 199 201 202 201 199 197 197 198 197 196 198 195 194 195 192 192 191 190 188 189 188 183 179 179 180 178 179 180 171 168 166 165 164 162 163 160 160 163 159 148 125 123 130 121 138 115 89 71 71 82 90 88 87 69 103 122 118 120 120 73 87 138 150 151 155 154 160 165 171 175 176 179 184 183 180 182 181 182 184 185 189 193 197 199 203 203 202 201 203 202 202 203 201 201 203 201 200 201 200 199 199 199 197 198 196 195 194 197 193 192 191 190 187 182 181 175 179 183 181 181 180 173 168 167 162 163 162 162 163 163 162 153 141 130 134 115 124 118 92 77 72 75 89 79 78 69 93 120 121 120 122 61 120 143 155 152 157 159 162 169 171 174 177 181 182 186 187 189 189 190 188 189 193 198 202 202 202 203 201 200 201 202 202 201 201 202 202 202 203 201 202 199 201 203 198 196 197 197 198 197 197 194 192 194 195 189 185 179 178 180 180 177 178 171 170 169 161 157 162 163 163 162 165 154 152 143 139 114 114 114 93 86 86 75 93 90 79 59 94 120 119 118 119 81 130 150 151 155 155 160 166 170 174 178 180 185 180 185 185 191 193 193 191 187 191 198 199 201 200 201 202 200 200 200 201 202 199 202 202 202 203 202 202 201 202 201 201 200 199 200 200 200 200 196 193 192 193 192 190 187 187 185 184 179 178 170 169 168 163 163 163 166 164 161 162 155 154 147 144 123 105 116 102 94 101 75 87 88 76 79 80 111 119 118 116 105 141 148 154 153 157 160 166 170 175 180 183 185 181 182 186 191 191 194 192 190 197 196 199 198 200 200 201 199 200 199 200 201 200 202 203 203 201 202 202 201 202 203 203 203 202 202 202 203 201 198 194 195 192 194 191 188 190 187 184 180 180 172 167 168 164 163 161 166 165 164 164 159 152 147 137 123 98 105 109 107 109 80 75 87 72 78 81 112 117 117 118 120 139 152 152 151 156 158 168 167 174 182 184 185 183 185 185 189 191 192 193 194 198 200 198 199 202 201 199 199 200 200 200 201 200 201 203 200 201 201 202 203 203 206 204 206 204 203 201 200 202 197 195 195 196 192 192 192 189 188 184 181 179 173 169 168 166 159 164 161 161 164 165 160 149 145 129 122 93 98 96 98 105 101 72 84 76 84 81 109 118 116 115 132 140 150 152 151 156 161 169 167 173 180 182 185 184 184 188 188 189 192 193 193 194 197 196 199 198 200 200 197 199 201 201 201 201 200 202 201 200 204 202 203 204 205 204 204 204 204 200 198 200 196 195 195 195 194 192 195 189 189 186 180 179 175 169 172 166 159 165 161 160 163 158 160 150 145 130 124 96 89 86 76 82 100 77 83 84 79 93 105 117 116 115 133 140 148 150 153 156 162 165 175 174 177 178 182 181 180 187 188 189 191 189 191 194 194 194 198 197 199 198 197 197 200 201 201 199 201 201 200 204 203 202 203 203 203 203 202 202 201 201 197 198 198 196 197 194 197 196 192 189 188 186 175 176 170 167 169 163 161 164 162 161 161 158 157 151 151 135 127 108 89 77 65 64 84 77 75 87 85 86 105 118 117 114 133 138 146 147 151 158 158 167 170 171 173 177 182 179 181 182 184 183 191 190 187 193 191 192 196 198 197 195 197 197 201 201 201 198 200 200 199 202 201 202 200 200 201 199 200 200 200 200 198 199 198 199 197 195 197 193 191 190 188 186 176 171 173 170 165 165 162 163 158 160 159 149 155 145 147 137 127 115 94 79 65 50 71 77 60 78 92 80 104 118 115 115 132 139 146 147 150 153 159 162 167 168 169 173 179 174 176 176 180 182 186 190 177 176 186 193 194 197 197 195 199 199 199 200 200 198 199 198 200 199 199 200 198 198 199 199 199 199 198 198 198 197 197 199 197 193 194 197 190 187 188 182 176 173 170 167 164 166 167 166 162 161 154 155 152 148 150 141 124 125 98 76 68 54 60 70 64 56 78 86 105 114 114 115 130 137 145 147 146 150 156 160 164 166 165 169 172 168 172 175 175 180 185 185 164 161 182 189 192 197 196 198 198 197 199 198 197 198 197 197 197 197 196 198 198 197 196 199 196 198 197 196 199 195 197 198 197 195 196 194 193 185 185 182 176 168 172 165 161 164 165 166 162 160 153 155 155 151 147 148 127 123 115 86 71 66 60 66 57 51 70 81 101 117 113 114 125 140 145 146 151 150 155 159 164 167 170 170 171 170 173 174 176 179 184 183 174 171 186 190 193 195 197 199 197 199 198 198 196 197 198 195 197 197 196 197 196 195 196 200 195 198 196 196 196 196 196 198 198 195 193 196 193 184 185 181 174 172 167 166 162 163 163 166 164 157 151 155 152 150 145 152 140 118 117 105 86 74 67 58 51 50 70 75 103 114 116 111 126 136 148 150 146 152 153 163 164 168 174 172 175 171 173 175 174 176 175 178 179 181 185 190 192 192 196 196 198 198 198 197 196 197 197 199 200 198 197 196 197 198 200 199 196 197 197 196 194 193 199 198 197 195 194 195 192 188 182 179 173 170 167 164 163 165 159 166 163 155 147 151 156 150 145 149 144 125 113 117 95 87 69 60 59 47 65 80 95 116 115 113 120 134 143 150 148 151 156 159 165 172 173 178 177 177 178 176 172 175 177 176 179 185 188 190 192 193 195 195 195 198 198 197 195 198 197 198 197 198 199 200 197 199 200 199 198 196 196 197 196 198 196 200 198 195 193 193 190 186 182 174 174 165 165 163 161 165 163 165 160 153 150 149 159 147 145 141 135 133 109 96 119 101 81 63 66 51 59 82 95 117 116 114 116 127 141 146 149 149 154 162 168 168 177 180 183 181 181 183 180 175 176 179 180 187 190 190 192 194 193 196 196 198 199 198 196 197 199 197 199 198 199 197 200 199 201 199 198 198 198 198 199 198 196 200 197 194 192 190 189 181 179 173 171 164 164 162 162 164 163 165 158 147 150 150 150 146 146 141 128 126 118 88 101 105 81 78 77 64 53 72 106 115 114 112 105 124 136 145 148 148 154 163 167 175 179 184 184 185 182 182 184 181 182 181 186 188 188 191 194 195 194 196 196 198 197 200 196 198 197 198 200 200 198 196 199 200 199 199 197 197 197 195 198 200 195 196 196 193 192 189 186 178 175 174 170 165 163 158 163 163 162 164 153 145 150 150 144 144 149 143 134 122 113 95 96 89 81 75 76 84 51 46 104 114 113 112 99 120 133 144 145 149 154 164 170 179 180 183 186 187 187 184 186 184 183 186 185 189 189 191 193 194 198 197 196 197 198 198 199 198 200 199 199 201 199 199 198 198 198 196 197 195 197 197 197 197 196 194 194 192 189 185 182 177 173 172 167 163 162 159 159 161 161 159 154 151 152 152 146 147 151 141 135 123 108 92 102 94 75 78 66 79 70 40 93 117 113 114 93 115 129 140 145 147 148 166 170 174 181 184 186 190 190 189 187 185 189 189 190 190 190 190 194 197 195 198 196 199 199 199 198 198 200 199 201 199 200 200 199 198 199 199 199 197 198 199 197 194 194 192 192 191 187 177 178 176 172 169 164 159 163 157 160 159 160 157 153 150 153 154 150 145 153 140 135 119 109 83 87 89 77 69 71 71 75 38 89 121 113 111 82 114 127 137 146 146 148 164 170 174 177 182 187 188 190 186 187 189 191 192 192 191 191 192 192 195 196 195 197 197 195 198 195 197 200 198 199 200 197 200 201 199 202 200 201 198 196 196 196 195 192 191 194 187 184 183 179 170 170 168 164 161 159 157 163 162 162 154 154 149 147 154 154 147 144 140 130 117 96 90 85 71 79 76 67 65 71 43 84 122 113 113 78 108 129 140 147 146 148 158 171 171 176 180 186 187 189 186 187 186 192 194 194 191 192 191 191 194 194 195 198 196 194 196 197 196 199 197 199 199 200 202 205 205 204 201 200 199 198 194 193 193 190 193 190 185 183 181 178 172 168 167 161 158 159 158 161 161 158 153 156 149 152 155 157 147 142 139 136 118 100 86 91 76 78 76 61 63 56 46 87 121 113 114 72 106 131 145 148 149 151 155 168 169 173 179 184 184 187 185 186 187 188 190 193 192 192 190 189 192 192 192 193 195 192 193 197 197 196 198 197 198 198 201 202 202 200 198 195 196 197 194 190 189 189 188 189 185 184 186 179 172 166 165 163 160 160 156 161 159 158 155 157 152 155 159 153 151 135 143 139 120 102 92 87 83 82 68 58 63 57 40 95 116 117 113 79 93 137 147 151 153 150 151 159 165 172 178 181 183 182 186 184 182 183 186 187 190 188 189 189 187 190 190 190 192 191 192 190 192 191 192 191 193 191 192 191 190 186 185 182 187 186 184 184 185 183 183 184 186 186 185 184 179 170 164 164 163 157 160 162 160 159 158 155 155 157 155 157 145 133 134 133 117 98 98 94 89 81 66 59 62 62 41 101 112 113 114 85 102 135 144 143 139 136 141 148 146 152 161 162 166 169 174 179 175 174 183 181 184 183 184 185 184 187 187 185 186 188 184 178 176 174 178 172 167 170 163 162 158 160 164 165 165 163 165 170 183 181 181 179 176 178 181 180 180 176 168 158 158 158 158 163 163 160 160 157 159 156 155 156 147 136 130 120 120 98 94 96 82 85 64 56 57 41 62 108 114 114 116 88 106 137 135 132 126 125 122 116 116 120 124 123 133 135 148 159 160 161 167 173 180 178 181 181 184 184 183 179 176 178 176 170 162 154 145 143 138 138 133 126 127 125 129 132 140 141 138 144 160 166 156 159 169 172 168 174 171 174 174 153 155 155 157 158 161 162 160 156 160 154 158 153 144 135 132 115 108 96 91 93 92 71 62 72 109 133 148 143 135 110 109 100 113 123 124 115 112 110 104 102 116 115 113 110 114 118 124 138 144 148 149 163 167 170 171 177 177 174 175 174 168 167 164 161 163 152 140 128 128 123 118 111 109 101 100 106 106 111 118 129 141 154 149 146 153 157 154 163 164 165 161 155 154 157 158 164 164 165 158 158 162 152 150 154 141 131 128 106 92 99 89 96 103 85 88 147 168 174 163 150 154 149 115 100 109 110 106 102 95 87 82 86 94 102 101 102 104 107 109 120 127 136 142 149 154 159 160 167 166 163 163 164 163 155 153 151 156 145 128 125 116 114 109 108 98 93 95 97 99 100 112 125 139 146 148 151 153 159 156 151 155 156 152 148 149 151 160 164 166 166 160 157 160 151 149 151 144 124 123 114 79 86 90 99 89 105 141 173 164 136 93 91 111 139 152 98 100 99 92 95 89 82 73 65 75 82 84 91 94 94 93 97 106 116 127 131 140 147 153 158 158 157 157 154 148 144 141 140 139 132 121 120 111 113 108 104 100 93 93 97 101 99 112 120 129 135 144 149 156 159 158 154 156 155 152 148 150 151 161 167 165 166 165 160 157 153 157 152 142 117 107 115 90 77 91 96 101 143 170 160 132 113 99 81 69 94 159 99 103 102 100 94 100 94 86 81 79 78 71 69 64 63 72 73 85 97 105 117 125 140 145 152 160 167 161 156 152 141 132 130 124 114 115 112 110 105 100 88 77 72 75 78 92 94 103 107 110 106 109 122 136 148 152 153 152 150 154 150 156 159 161 171 165 166 165 162 159 152 155 156 143 121 91 113 104 76 87 105 128 160 149 133 153 163 132 121 124 84 152 104 103 101 97 99 96 83 81 70 63 64 56 52 47 47 54 52 49 63 76 93 105 125 147 159 175 178 178 171 162 144 137 125 117 113 113 114 113 111 104 96 95 93 90 90 76 63 69 95 96 106 127 121 105 103 125 144 150 156 155 157 159 162 165 168 166 164 164 164 157 153 158 160 142 129 93 96 105 74 78 129 143 144 137 171 176 168 154 126 131 89 138 104 107 102 100 100 78 69 73 63 62 68 47 47 49 37 46 40 56 61 65 69 83 115 157 177 189 191 193 188 174 162 149 135 128 129 125 125 124 118 119 111 101 94 115 114 84 63 73 131 88 63 89 105 121 122 111 114 136 150 157 162 165 163 170 171 167 165 164 165 161 158 158 161 141 118 108 89 90 96 114 142 157 141 159 180 188 171 159 131 123 117 107 99 108 108 98 99 69 75 60 57 93 103 64 55 50 42 53 44 63 66 64 71 71 119 165 186 196 197 197 194 189 175 161 152 147 147 148 147 144 131 118 101 104 131 159 149 100 78 47 59 78 71 104 107 87 98 109 121 129 138 154 163 168 171 173 175 172 166 168 163 163 161 159 161 147 122 119 99 90 118 131 154 150 165 171 169 177 170 158 131 127 141 115 93 120 111 104 98 76 67 47 69 112 129 88 84 59 55 66 57 79 81 60 67 78 125 172 191 198 199 199 197 188 179 168 162 160 155 171 172 168 138 112 111 117 149 173 178 116 103 85 78 87 99 130 130 108 99 100 111 123 135 148 159 170 179 183 181 177 171 163 165 166 162 164 159 150 132 121 116 118 132 143 154 106 170 188 168 176 187 161 130 129 143 143 88 123 125 110 101 76 79 80 93 111 133 119 80 84 78 91 96 97 91 82 71 92 141 176 193 200 199 202 195 190 185 170 170 163 162 166 170 171 159 152 140 135 149 155 166 149 117 120 128 127 138 155 153 143 140 142 140 153 163 171 177 182 187 188 182 179 176 166 167 169 160 156 162 145 142 125 122 144 136 153 141 52 108 153 156 163 193 182 129 130 138 176 86 123 122 130 115 100 96 96 114 113 123 128 124 122 133 135 135 128 109 89 86 107 153 182 195 200 199 202 199 191 183 175 171 175 171 174 173 164 153 140 143 136 136 141 148 146 145 150 160 152 152 159 164 168 173 167 169 175 181 187 189 190 189 187 189 181 171 166 168 168 160 157 151 147 137 121 122 172 146 149 149 149 88 126 151 151 175 198 134 139 144 196 89 114 124 136 137 119 113 115 126 130 132 130 128 129 127 133 125 122 108 93 110 123 158 181 194 200 198 201 197 185 179 174 177 181 183 183 183 175 166 154 142 135 139 143 143 145 148 151 161 168 171 174 177 179 179 180 180 183 190 192 192 191 187 190 186 183 170 163 168 164 159 155 149 148 138 128 131 196 152 145 150 182 158 122 139 145 168 201 141 147 170 168 88 112 133 144 147 133 121 122 133 140 135 139 136 133 126 126 131 123 114 116 126 126 151 180 194 201 199 200 194 183 177 179 177 180 186 184 184 185 180 179 171 160 148 146 143 144 147 150 158 160 164 164 164 167 169 173 182 187 192 196 193 191 189 187 186 184 173 163 163 159 154 151 146 145 138 126 146 206 175 138 168 169 186 159 136 137 162 194 144 155 185 133 90 94 138 148 158 150 128 117 118 119 115 120 122 128 133 138 141 139 134 134 130 130 148 177 192 201 197 197 193 182 176 176 180 179 185 185 185 183 179 184 186 185 181 172 162 153 149 150 148 149 153 156 162 169 177 182 186 188 192 193 195 193 192 187 186 185 178 163 159 155 148 149 144 142 138 126 163 203 195 147 193 178 186 181 147 136 158 195 149 174 168 94 94 90 131 154 159 159 152 136 131 130 133 139 144 150 154 154 153 152 142 136 132 135 145 176 193 199 195 194 189 180 177 177 183 180 180 184 185 180 177 183 184 189 191 192 187 182 181 179 180 183 183 181 187 184 189 192 194 195 192 194 193 192 190 186 185 182 173 165 154 153 149 147 144 141 135 125 167 195 190 148 175 199 192 185 155 134 166 185 158 182 138 85 96 89 131 152 166 170 176 172 166 164 159 156 158 164 168 168 162 152 141 135 137 133 148 173 190 199 193 188 185 179 176 173 175 181 181 179 178 183 178 179 186 188 193 193 193 193 195 191 190 189 190 189 193 195 197 196 197 193 192 192 190 191 192 187 182 178 169 158 156 151 145 144 142 144 133 130 165 188 179 154 155 179 202 189 146 142 182 180 164 175 104 91 92 93 131 151 167 168 176 182 181 181 177 168 168 174 176 168 160 147 140 136 133 135 151 175 197 199 192 188 181 178 179 176 171 177 184 177 179 179 180 181 188 192 192 194 192 194 198 195 194 193 194 193 194 198 195 196 197 195 194 191 192 191 191 188 182 179 167 157 153 145 144 143 144 140 135 132 168 189 167 151 156 163 177 168 153 170 178 172 175 147 89 95 93 96 130 148 153 164 167 178 178 178 178 171 178 175 174 168 162 147 138 134 135 136 155 179 199 200 193 187 183 177 176 175 169 171 176 179 180 177 181 184 191 193 194 194 193 196 196 196 198 197 196 195 196 196 196 198 198 193 194 192 190 190 190 185 182 176 164 156 153 146 141 143 143 138 133 135 170 181 149 135 164 171 168 169 179 176 170 173 168 104 95 95 94 89 131 139 152 158 163 169 173 175 177 174 181 178 178 171 165 148 139 132 133 142 157 182 197 200 195 193 186 179 178 172 170 166 165 167 172 179 182 186 189 193 196 195 193 195 197 195 197 198 199 199 197 196 196 196 197 195 195 193 190 187 187 183 177 170 162 154 150 145 140 140 141 137 133 132 167 169 141 150 182 183 176 173 178 174 179 175 137 87 96 97 92 94 120 141 147 156 163 164 171 175 176 174 179 180 177 170 166 148 134 127 137 144 162 184 195 195 197 196 190 185 181 175 172 171 169 165 164 169 176 184 191 193 193 194 192 191 195 197 196 198 201 201 201 200 197 195 198 197 195 193 190 186 185 180 175 161 156 147 150 142 141 143 140 136 134 142 157 166 177 181 193 189 179 181 180 179 172 155 106 86 99 98 96 83 121 129 142 157 158 162 172 180 175 180 175 179 176 169 159 146 128 125 139 151 162 182 189 196 198 201 194 188 182 172 171 171 174 173 170 168 164 170 183 186 188 191 191 191 192 194 194 197 200 202 203 202 197 195 195 195 193 193 189 186 181 178 172 160 153 150 147 142 141 141 140 136 131 140 155 170 189 195 192 188 183 181 185 186 164 102 90 101 95 99 95 93 102 132 143 156 161 160 164 172 174 175 174 174 175 166 156 132 129 131 141 152 162 175 185 191 194 197 199 192 185 176 169 171 176 173 171 171 159 157 166 175 179 183 187 186 188 191 189 195 195 201 202 200 194 192 195 192 190 189 187 185 182 173 167 160 154 145 147 142 143 142 138 137 134 139 168 183 182 182 187 180 171 182 184 184 120 87 96 97 97 97 98 85 100 126 143 153 162 160 168 169 170 170 175 169 164 158 135 125 127 131 140 155 166 175 180 188 193 200 199 189 178 169 167 170 172 170 169 168 156 145 161 166 170 170 178 182 183 184 185 187 193 193 196 195 191 189 187 189 187 186 184 182 179 170 162 159 150 146 144 140 142 141 138 133 131 140 183 190 184 177 183 177 175 178 187 157 96 92 96 96 98 95 96 91 90 124 140 144 155 159 163 167 169 171 169 168 159 141 117 119 124 119 134 149 165 175 178 180 187 192 186 174 160 154 157 163 165 165 162 159 147 139 165 174 167 158 161 168 177 181 182 184 186 188 189 190 190 187 183 180 184 180 180 174 177 168 160 154 151 145 144 142 140 140 135 134 124 147 187 191 187 179 178 179 179 167 155 117 89 94 97 96 94 96 98 93 84 117 137 143 150 159 158 161 164 168 163 161 143 124 109 115 116 107 110 133 159 170 174 172 173 176 166 149 137 137 131 132 134 142 147 143 136 142 172 184 182 169 151 150 162 170 177 181 182 185 187 185 184 182 180 180 180 179 180 174 169 166 161 153 152 148 148 144 142 140 133 132 124 147 174 180 176 171 170 166 162 146 115 92 92 97 94 96 94 93 96 92 89 103 125 133 140 147 152 156 155 153 153 148 129 109 115 123 111 93 81 101 127 150 155 160 162 155 142 125 109 88 67 65 71 89 111 125 144 162 174 181 184 188 169 146 140 155 165 171 177 181 181 177 177 174 179 180 177 176 170 169 163 165 158 151 155 151 150 142 138 137 133 124 127 143 145 149 144 137 143 133 118 102 91 96 93 97 94 97 94 93 94 94 91 92 117 123 137 135 139 145 153 148 143 131 116 109 120 128 124 101 71 64 88 112 123 127 129 128 120 103 96 100 112 109 97 97 121 146 158 163 166 174 183 185 178 166 141 134 147 162 170 176 178 174 174 174 171 170 170 167 163 164 164 162 156 157 153 151 148 142 140 134 129 118 133 124 86 91 95 98 97 97 96 93 92 95 96 93 94 95 93 99 94 93 95 90 101 117 120 127 133 138 142 140 135 118 105 116 125 128 125 117 87 72 69 85 96 95 98 106 110 105 110 123 132 136 135 143 156 166 166 164 167 175 180 180 179 177 167 142 130 145 166 170 175 171 167 168 164 167 165 164 162 165 161 156 156 154 151 151 146 141 139 131 125 119 133 100 66 88 90 91 90 93 95 94 93 93 96 93 95 96 93 95 95 92 95 93 98 101 114 116 123 128 135 135 124 111 106 125 127 129 125 122 98 88 87 84 88 85 84 91 99 103 113 129 138 149 154 159 161 166 166 168 171 176 178 177 175 181 176 167 144 131 150 163 170 168 169 166 164 166 164 159 157 161 162 155 153 154 150 149 146 139 135 130 124 118 131 80 70 89 90 90 91 92 93 94 94 93 95 96 93 94 92 96 96 94 92 91 90 104 101 109 118 121 130 130 121 109 119 119 120 124 121 121 105 95 95 94 96 88 93 113 122 125 130 134 149 155 159 162 165 166 168 166 165 169 173 177 177 183 182 177 170 151 135 152 171 172 169 168 167 167 164 161 160 160 162 156 153 153 150 148 143 140 133 128 119 115 122 97 78 85 89 89 90 90 94 90 94 92 97 94 92 94 95 94 94 93 92 92 92 93 103 94 104 115 122 127 117 117 124 118 113 118 121 121 117 102 100 102 108 113 116 131 144 139 139 146 153 164 167 167 175 180 173 168 166 167 165 169 173 173 175 175 172 177 154 139 157 169 175 171 170 167 166 159 161 160 157 154 154 150 148 141 144 140 130 124 115 111 121 106 78 88 85 91 89 90 92 93 95 93 95 93 95 94 91 98 94 95 93 92 87 101 94 98 103 111 120 121 117 113 117 109 110 114 119 123 124 119 118 118 130 137 142 147 144 145 151 156 160 166 173 170 175 180 181 175 175 176 172 169 165 162 153 147 155 162 161 148 155 169 171 169 168 168 168 160 158 155 155 154 153 153 144 145 142 137 126 122 110 109 116 116 82 83 90 87 94 89 93 93 94 93 94 95 94 94 94 94 94 92 92 94 92 90 102 94 97 105 119 124 119 112 105 101 102 112 121 129 133 134 137 144 142 152 152 153 151 148 157 161 163 170 179 180 179 180 183 177 177 176 177 172 166 160 146 122 130 146 158 161 158 166 171 172 172 169 165 160 152 150 152 157 149 154 146 143 142 133 122 119 106 109 123 113 80 87 89 88 88 93 92 92 93 92 91 95 92 93 95 90 92 86 96 94 90 90 100 94 95 109 119 129 125 115 107 87 85 106 119 124 131 138 141 140 140 143 147 153 155 149 148 148 146 149 154 159 159 157 157 153 156 159 159 157 147 141 124 90 91 120 147 160 163 164 173 175 173 171 166 161 153 157 154 155 151 150 145 142 136 127 122 110 104 113 127 110 79 88 88 90 89 90 93 92 93 92 92 93 94 92 95 95 95 89 93 90 93 86 94 102 96 103 117 134 135 132 116 89 66 82 101 100 105 113 112 119 112 115 117 119 124 124 124 125 126 132 128 133 131 133 128 120 117 119 113 106 96 66 66 63 80 109 131 151 163 170 174 176 174 169 163 156 153 154 157 154 151 150 145 139 129 126 114 100 107 120 131 98 76 92 87 88 93 90 91 95 92 92 93 95 94 95 91 96 93 89 90 93 92 88 86 106 104 91 112 132 143 140 132 107 80 58 57 76 67 77 84 88 88 82 85 94 94 98 101 100 113 115 108 96 89 110 108 96 93 108 96 55 57 88 118 143 144 140 144 151 166 172 175 173 172 164 160 152 151 151 161 151 149 148 140 132 127 120 109 97 118 130 126 87 83 90 86 91 93 91 90 94 91 93 92 94 92 93 96 91 93 87 89 92 91 93 85 97 109 98 103 123 141 146 141 120 104 82 80 73 38 29 70 87 99 82 82 116 123 129 112 117 141 151 146 113 107 135 132 112 97 118 116 115 129 150 162 172 173 170 171 168 173 170 169 170 166 160 154 149 148 155 155 151 148 143 137 128 120 114 100 109 127 134 120 82 85 87 91 91 92 93 91 93 93 94 94 94 92 94 92 95 91 89 92 92 91 90 88 87 105 111 97 113 137 151 154 137 124 107 106 101 72 56 56 78 102 92 98 135 150 167 148 133 156 160 155 120 110 132 138 133 131 141 144 154 164 176 177 180 182 180 178 179 176 171 171 162 159 152 149 151 152 154 152 149 149 139 133 123 118 100 103 119 132 130 114 79 84 87 89 87 90 92 91 96 91 93 92 94 95 90 96 95 92 90 92 89 94 89 89 88 93 108 102 102 126 151 157 158 136 122 125 122 102 93 85 85 94 89 92 116 133 140 135 116 125 131 136 138 154 169 164 165 166 165 170 176 179 182 182 184 181 179 183 182 182 178 172 159 152 148 150 150 152 154 148 146 150 130 125 119 105 97 120 130 136 128 106 83 86 90 87 90 91 92 93 91 94 93 92 94 92 92 95 92 93 88 90 92 86 90 94 87 81 104 108 98 114 141 158 166 156 132 138 137 120 121 121 124 121 123 121 129 138 142 141 139 142 146 150 162 182 188 182 178 178 174 180 181 184 185 186 183 187 185 180 185 188 181 172 163 155 147 152 152 150 151 143 145 138 130 121 110 96 110 130 137 131 127 97 79 86 91 91 91 90 91 93 95 92 94 89 98 90 92 92 92 90 91 90 91 89 86 93 87 84 81 108 104 97 128 153 162 164 155 151 147 139 125 127 137 143 136 142 143 145 151 150 150 152 153 157 166 180 187 186 183 178 179 183 188 189 184 183 182 182 185 174 174 177 175 164 160 155 150 151 153 150 154 140 140 131 119 112 100 105 126 135 134 128 130 90 86 89 88 92 92 93 92 91 93 92 93 95 91 91 93 95 92 92 89 92 89 89 89 87 86 88 88 87 106 96 108 138 158 161 160 157 156 144 133 120 127 136 144 149 151 153 155 157 158 161 161 162 167 171 176 181 184 181 181 184 188 184 181 181 180 178 179 173 166 176 171 163 161 155 155 152 150 150 147 139 130 119 113 96 95 120 142 137 133 123 125 91 79 88 90 91 90 91 92 96 91 91 94 91 93 91 94 92 92 91 88 87 90 88 89 88 88 87 86 85 94 98 98 119 139 152 153 158 152 148 141 128 126 129 132 140 146 145 149 151 150 152 155 161 165 172 176 179 182 182 183 180 183 182 179 178 175 172 170 174 174 177 173 163 158 153 152 149 144 145 143 133 120 113 97 88 115 133 146 139 130 128 123 84 84 89 89 90 91 89 95 87 92 91 90 93 91 94 92 93 90 89 86 89 87 86 91 86 90 85 89 85 81 98 91 102 133 142 150 157 153 146 144 137 133 132 138 142 145 148 144 148 148 151 157 159 167 172 174 176 177 182 181 179 176 177 174 171 171 171 174 173 172 178 172 161 157 151 152 149 144 143 133 122 111 97 87 106 130 142 141 139 135 123 115 86 82 87 93 89 92 91 92 92 91 92 89 94 91 91 91 89 94 87 88 85 88 88 89 84 88 83 89 86 85 85 93 92 113 136 146 155 152 147 145 140 136 138 142 147 152 151 154 152 150 155 160 161 159 166 169 169 173 180 174 173 172 173 168 165 164 172 177 174 179 176 167 159 154 147 151 146 144 130 124 110 95 82 104 128 129 144 145 139 132 121 111 82 84 88 89 89 91 90 93 86 94 90 91 93 91 91 90 92 91 86 89 87 88 83 87 85 86 85 88 85 86 82 86 92 99 121 141 154 155 147 141 140 139 141 142 150 154 154 155 153 152 149 156 157 160 162 169 170 171 175 173 174 173 169 166 166 172 175 176 181 180 171 165 155 152 148 144 141 132 122 106 89 79 100 124 133 143 144 143 134 127 121 108 83 88 88 91 91 89 89 91 90 92 90 91 91 92 89 92 92 91 87 87 85 89 86 85 87 86 87 81 87 82 87 80 94 91 109 134 145 154 150 140 140 142 140 145 147 156 161 160 165 165 168 166 170 172 168 172 174 175 174 176 176 170 170 174 177 174 180 180 181 178 170 160 152 147 143 137 125 114 102 82 82 95 119 132 137 143 150 139 127 125 119 106 82 84 90 88 92 90 88 90 88 92 88 89 91 90 90 92 90 91 87 88 85 88 82 86 86 83 85 87 83 86 88 71 112 97 93 120 141 150 146 149 149 144 143 140 149 160 163 166 171 176 180 180 182 184 183 180 177 177 180 176 180 176 175 178 180 178 179 181 179 172 158 150 144 141 136 124 110 90 77 82 99 105 123 140 140 145 146 132 120 118 119 99 80 87 87 90 92 85 92 89 90 91 91 89 91 91 91 91 90 91 89 85 83 88 84 85 84 83 82 83 82 83 86 64 113 122 91 103 133 146 144 153 163 157 149 149 151 158 160 163 168 174 182 184 187 184 182 184 178 178 180 182 183 186 183 182 182 183 187 184 175 162 148 139 138 128 124 99 81 74 85 97 108 118 134 132 135 146 142 140 113 112 119 97 82 88 86 91 91 88 90 89 90 90 91 88 87 94 88 90 88 90 86 83 85 86 83 83 83 82 83 84 83 82 85 68 113 122 112 92 117 137 141 148 164 164 161 156 153 151 153 161 169 172 182 184 186 186 184 185 181 178 184 186 186 187 186 184 183 182 181 174 165 149 142 129 126 113 94 74 72 88 100 103 114 131 135 133 134 147 138 135 120 114 119 95 84 86 92 89 88 87 91 90 86 90 91 87 89 91 90 90 89 91 81 86 84 84 85 85 82 85 81 86 81 82 87 73 122 122 116 110 102 119 143 145 157 165 163 159 149 145 153 159 170 173 177 181 182 181 185 189 185 181 183 185 190 189 189 186 182 177 176 166 154 139 124 115 112 85 71 84 92 102 107 110 125 139 139 147 133 138 142 134 125 122 111 91 83 87 85 92 87 89 90 90 86 91 89 87 86 92 87 91 90 91 83 85 84 85 84 85 82 84 83 85 81 80 105 86 120 126 120 114 104 103 127 143 152 161 161 156 148 149 155 164 171 173 174 176 181 176 183 191 192 185 179 185 187 187 187 180 172 169 165 154 141 124 113 99 82 80 87 95 104 107 116 122 129 140 147 141 126 136 133 131 122 116 114 86 84 87 87 91 87 89 89 88 91 87 90 87 89 89 86 90 89 90 87 83 83 84 80 84 80 83 81 84 75 105 101 37 129 130 121 108 114 97 112 128 141 156 153 144 148 148 160 165 166 168 166 169 176 174 174 186 187 181 179 185 183 182 181 168 166 158 149 143 119 112 93 80 86 93 100 106 111 115 119 134 137 145 149 142 135 137 131 127 122 116 111 83 86 86 88 86 91 85 90 87 87 86 91 86 90 89 88 89 86 91 82 83 80 82 83 81 83 80 80 82 93 117 53 42 137 131 120 111 108 108 91 110 130 138 148 139 139 146 153 156 156 158 158 154 161 165 165 166 174 173 174 172 169 169 160 154 150 145 135 122 102 89 78 91 96 107 111 115 117 119 130 139 144 147 146 142 139 138 132 123 123 112 110 83 88 86 86 89 85 90 86 88 85 85 88 89 89 87 89 90 86 89 85 83 78 84 81 81 83 76 87 109 93 47 25 80 133 130 122 115 114 111 94 88 112 127 136 136 131 134 145 148 147 149 149 143 145 153 154 148 154 159 155 152 151 151 143 141 135 125 112 90 78 82 93 104 112 115 120 121 117 132 133 145 141 145 149 144 135 131 130 123 119 114 101 84 85 89 85 87 89 87 89 87 87 88 87 86 90 88 84 89 87 88 82 81 81 80 78 81 82 74 116 119 17 24 64 65 137 130 122 121 116 112 102 83 89 106 116 121 124 124 128 134 134 139 138 136 136 140 141 139 138 138 136 134 137 131 131 123 113 93 80 72 85 101 112 118 125 124 124 129 134 135 144 144 139 146 146 143 132 135 133 122 112 113 103 84 85 90 85 85 90 85 87 86 87 86 86 87 90 86 85 85 90 86 84 80 81 81 81 86 94 103 102 129 1 69 57 54 139 135 126 120 120 118 108 105 87 83 94 103 104 106 112 116 121 125 123 123 116 113 118 118 121 116 115 119 116 116 108 92 74 74 79 90 109 117 124 134 127 123 130 139 142 142 145 153 146 145 143 139 135 132 127 119 110 109 109 90 81 87 85 88 85 88 84 91 80 90 86 87 85 88 87 86 84 91 81 83 84 88 94 98 100 100 89 131 15 86 34 85 139 133 129 122 119 117 113 105 101 98 87 83 90 89 92 95 100 101 104 98 96 89 95 92 92 89 91 90 88 87 71 72 71 81 100 111 124 126 136 139 131 128 136 139 143 145 144 148 149 144 141 140 137 131 126 118 111 103 106 102 84 86 86 88 84 86 87 86 85 86 87 85 86 85 86 87 88 87 87 102 94 95 93 90 102 94 94 128 22 92 23 104 135 128 130 121 118 120 116 106 105 101 102 82 79 76 78 78 77 78 78 72 71 66 66 67 66 64 70 67 69 71 69 72 83 104 114 129 133 135 141 134 132 128 128 138 143 151 144 144 145 144 147 144 133 128 123 116 116 97 71 120 88 85 86 84 87 85 86 84 86 85 87 85 84 87 86 87 86 87 103 105 92 95 80 94 104 90 100 129 25 83 25 111 137 128 129 124 119 117 114 113 103 98 103 95 93 86 80 72 68 71 71 65 66 62 61 56 52 60 63 68 70 78 84 92 105 122 127 137 133 145 133 127 131 131 126 139 148 147 148 145 147 151 143 139 135 129 124 115 109 116 32 125 102 74 86 85 86 84 84 86 83 87 85 86 81 89 82 88 83 87 92 92 89 85 77 96 97 93 106 138 14 75 42 120 138 129 130 129 124 117 114 110 108 104 101 99 87 93 89 87 72 72 78 75 62 69 66 55 57 57 68 70 78 91 99 115 121 129 137 143 125 142 129 128 134 126 131 140 147 144 153 142 148 146 141 138 135 131 118 111 107 133 35 113 114 67 84 74 96 85 84 85 84 85 83 86 85 85 83 84 85 85 