P2
92
112
255
128 128 128 125 124 128 130 126 129 123 127 127 121 110 113 111 109 104 113 116 121 122 119 121 125 124 125 127 125 125 130 123 125 129 128 134 129 116 112 113 104 101 99 93 92 90 88 86 108 117 115 103 100 112 104 114 121 117 120 114 109 114 106 106 117 122 122 120 117 115 127 125 130 127 125 123 127 125 128 129 128 128 129 121 127 124 124 129 126 124 124 124 128 127 126 126 126 129 129 128 125 124 129 124 117 111 122 109 104 99 107 114 115 124 127 122 120 127 130 128 130 126 122 124 121 119 124 125 116 120 114 108 110 106 99 102 94 92 98 117 119 118 102 105 110 124 131 128 129 135 126 116 114 122 117 106 114 122 112 119 112 101 117 127 130 128 126 124 124 126 124 127 125 133 126 124 124 125 124 124 126 125 125 126 128 128 125 128 126 129 128 126 128 128 129 112 117 110 116 111 105 102 111 116 120 124 130 129 123 125 124 124 128 126 119 112 115 115 114 112 106 105 108 115 114 113 112 111 108 103 109 110 114 123 137 144 140 136 133 134 143 149 135 122 126 126 122 113 120 117 117 105 108 119 120 128 128 129 130 129 131 134 129 127 124 129 130 124 125 127 124 125 124 126 125 128 128 127 129 129 131 126 129 125 127 131 126 113 117 115 113 109 106 104 111 122 122 120 134 134 126 126 123 120 118 119 119 107 105 107 103 99 98 106 106 108 101 97 94 93 99 92 101 105 128 144 149 143 136 134 131 130 140 153 148 146 138 128 121 117 122 112 120 106 93 130 129 125 137 128 121 127 132 133 131 131 121 126 128 124 125 124 123 125 124 124 125 124 126 124 123 128 131 133 130 129 129 124 124 111 116 123 116 110 105 106 114 126 126 122 126 131 129 131 128 117 108 103 102 101 102 96 91 85 91 90 86 84 82 67 78 84 91 96 100 109 120 118 115 112 114 132 129 116 126 145 162 147 137 121 116 118 115 109 110 111 102 125 137 123 138 140 132 128 132 132 135 127 130 130 127 126 124 124 124 127 124 127 126 124 127 127 127 140 129 125 134 126 130 120 108 114 120 122 119 111 110 106 107 130 133 130 125 126 124 131 129 121 110 108 109 111 110 104 101 98 92 78 77 72 76 70 70 81 79 78 87 86 90 97 102 104 109 117 115 117 119 135 149 142 125 113 112 119 116 113 119 117 108 129 133 125 147 149 135 129 135 116 122 132 136 131 132 124 124 125 122 125 124 125 126 125 131 127 130 127 131 129 129 125 126 119 116 114 123 133 131 124 120 119 107 123 143 141 134 128 125 126 123 114 113 111 113 115 112 104 92 88 85 80 77 73 71 70 68 80 86 83 89 92 91 97 100 104 102 106 110 116 126 152 151 138 128 120 124 121 111 113 120 125 117 122 115 132 138 138 128 142 128 110 108 125 147 137 128 125 125 125 125 126 123 128 121 126 131 128 129 126 124 130 132 126 120 119 120 120 119 129 139 139 135 129 130 122 142 146 140 136 130 120 122 123 118 115 116 107 99 85 92 94 89 82 83 82 77 75 82 91 94 100 107 113 114 117 119 119 116 113 116 128 146 153 153 135 124 128 129 124 114 116 118 114 125 125 123 122 129 125 139 142 122 112 110 126 151 133 130 124 124 125 125 124 124 127 125 125 128 128 125 128 125 132 127 123 111 106 112 128 128 123 128 132 131 131 131 130 139 138 139 135 131 126 121 122 113 112 111 100 98 97 101 100 102 100 92 91 87 86 90 92 103 112 123 132 139 135 125 122 129 135 142 148 155 154 139 129 124 126 126 124 125 126 128 115 115 117 125 121 116 128 147 133 112 104 112 136 142 120 121 124 124 125 124 127 124 126 126 124 121 131 124 119 114 120 126 117 113 106 118 128 138 132 127 128 123 140 146 138 138 137 134 137 135 124 119 114 112 107 96 103 101 91 102 95 105 109 98 84 89 95 103 102 92 106 110 120 131 142 131 130 125 124 137 140 144 144 140 132 129 125 121 118 122 133 131 108 104 111 120 112 115 127 131 120 106 99 107 121 123 113 117 121 126 124 126 126 126 123 126 125 124 132 121 123 121 106 120 129 121 113 112 122 132 130 127 134 142 140 150 150 145 150 143 139 134 131 122 115 108 98 97 99 106 107 102 100 108 111 108 99 99 97 107 112 108 110 116 121 119 122 129 134 133 140 143 143 140 138 132 131 133 129 124 118 128 135 117 118 117 120 119 117 127 130 127 114 108 101 112 114 102 98 116 123 121 124 124 124 126 125 124 125 127 124 119 122 121 104 106 129 130 113 104 119 130 142 141 142 147 151 149 144 134 137 129 127 125 123 118 116 113 105 105 98 100 106 102 99 106 109 111 100 96 100 102 112 112 114 119 120 125 123 131 139 144 146 140 129 130 137 136 134 128 127 125 121 136 145 127 125 129 127 135 130 137 137 133 132 123 118 118 102 108 106 108 123 122 124 126 124 126 124 125 123 122 123 118 109 109 113 107 115 130 117 104 112 131 141 142 145 147 145 147 143 139 138 132 125 117 118 112 110 110 110 110 102 105 108 105 99 105 115 115 110 102 107 116 117 111 115 121 123 125 125 136 137 140 136 136 133 135 142 141 131 129 126 125 130 142 140 129 126 126 128 136 140 140 135 126 118 120 117 116 104 105 97 100 119 123 126 124 123 126 123 124 126 111 126 115 98 95 100 120 118 118 123 116 119 127 134 138 145 152 154 147 143 142 144 137 128 122 116 117 109 103 100 98 106 109 108 99 96 109 114 111 106 102 107 108 103 104 109 117 123 127 129 133 127 128 131 136 141 144 138 134 128 136 131 131 140 145 133 127 123 128 131 138 129 122 125 129 127 127 127 117 110 103 101 90 98 124 127 121 123 129 122 124 123 122 106 104 107 98 100 109 123 119 119 115 117 120 126 135 135 141 146 149 147 149 142 134 129 121 112 112 113 111 108 99 90 91 109 105 108 113 113 111 103 104 102 104 100 103 112 114 126 134 133 134 137 139 139 141 144 142 135 130 127 132 139 128 130 136 135 135 125 130 126 123 125 114 129 138 135 138 145 118 110 103 101 99 89 101 124 125 119 125 123 125 124 119 98 80 79 92 100 114 114 112 113 113 113 119 125 128 131 131 133 137 142 148 150 139 132 127 118 112 108 106 105 108 112 102 98 106 110 113 115 125 114 106 101 105 106 110 124 127 135 142 144 140 139 136 139 137 140 140 144 142 137 133 135 129 129 130 132 131 125 119 115 117 119 122 132 129 135 135 140 131 112 102 98 85 92 85 111 126 124 121 124 120 123 125 89 86 85 91 96 115 116 114 112 111 117 119 126 124 129 130 133 134 131 137 140 139 133 125 122 114 113 101 102 105 110 109 104 107 115 111 113 113 116 109 103 109 112 116 118 130 129 136 142 144 144 147 151 151 144 137 131 131 132 133 131 131 129 122 119 123 124 119 116 115 121 119 123 132 132 132 133 128 113 101 94 78 79 79 104 126 119 124 121 123 122 120 90 81 82 86 100 107 104 110 114 120 127 129 125 122 129 136 136 136 131 132 135 135 134 131 125 123 119 114 114 112 112 113 117 115 122 124 117 119 114 109 108 109 112 121 120 131 135 135 131 141 141 149 149 163 165 154 143 138 136 133 135 134 131 123 109 102 102 98 98 95 104 109 113 119 119 124 119 116 108 97 93 81 72 71 97 126 123 122 123 124 120 113 94 85 74 76 87 86 111 132 131 135 138 133 129 124 131 135 139 136 135 133 131 136 137 138 138 132 132 126 125 119 124 124 124 126 126 127 132 135 130 132 125 123 124 128 134 139 142 142 137 133 131 139 142 152 153 148 137 133 133 138 141 141 141 138 126 113 98 94 92 92 102 105 113 121 122 130 130 116 100 94 93 84 75 72 96 123 122 120 123 123 119 116 104 98 77 64 76 107 130 137 138 144 144 138 129 129 131 134 134 134 139 139 145 144 145 149 152 152 146 133 136 137 137 138 133 131 131 134 132 136 138 139 131 130 132 133 132 134 138 134 134 139 137 138 135 136 140 147 146 136 129 133 148 155 152 147 141 138 114 95 97 79 87 101 114 127 138 138 129 123 109 101 90 90 78 81 104 121 120 123 123 123 123 111 106 94 67 70 108 122 137 132 143 146 148 135 130 132 136 140 139 140 139 143 148 148 151 159 163 158 150 143 147 151 151 145 148 141 138 148 153 151 149 150 145 138 138 140 144 144 143 144 143 145 143 147 145 145 149 152 153 156 143 144 151 161 158 157 152 154 141 117 99 98 87 87 98 101 119 123 123 105 100 94 90 90 78 82 109 116 122 122 123 120 125 104 106 85 66 87 117 134 138 143 147 150 151 149 143 142 145 149 147 148 144 143 141 146 153 160 157 158 156 155 163 163 158 150 153 152 145 152 165 169 168 159 157 153 152 150 154 152 152 150 146 148 151 152 146 149 151 153 156 159 157 155 160 158 156 156 153 156 151 139 110 112 108 94 98 110 114 123 121 99 89 77 85 95 72 73 106 121 120 124 122 123 121 107 105 79 73 99 123 138 144 145 150 157 158 154 152 142 149 149 152 154 156 148 144 149 152 158 160 157 161 167 171 172 162 159 162 166 164 165 171 179 180 176 170 162 162 161 165 164 162 158 158 157 159 161 155 149 154 157 159 161 163 164 170 161 159 154 154 157 154 145 129 119 118 122 113 116 124 119 111 102 89 76 76 87 76 70 99 124 122 121 123 121 122 110 95 73 81 109 131 142 146 150 157 160 159 160 155 154 155 158 160 161 158 151 152 154 162 165 165 162 162 167 169 172 170 170 173 180 177 180 181 182 185 189 184 176 175 175 175 172 169 166 166 170 168 167 166 159 153 155 160 159 163 165 171 166 166 154 154 157 158 155 140 130 124 111 120 122 123 114 108 89 81 76 82 78 72 79 95 120 122 122 123 122 122 104 83 65 94 118 141 140 153 154 158 163 163 162 163 166 167 169 170 170 165 161 153 153 157 158 161 166 171 179 180 181 180 182 184 188 188 185 188 189 190 188 187 191 185 188 184 183 180 178 178 179 174 171 167 168 166 157 164 165 163 170 168 170 175 165 159 160 157 158 151 147 134 124 98 104 111 101 96 79 78 82 75 80 76 85 91 115 125 120 121 121 119 101 65 77 107 130 144 147 153 160 164 165 168 170 172 175 177 177 179 177 169 172 162 148 154 158 171 172 181 185 189 189 188 188 191 194 197 194 192 191 194 192 192 191 190 190 190 188 188 187 182 180 181 180 168 171 172 168 164 170 176 173 171 172 173 169 162 160 155 155 154 154 153 132 110 86 103 102 109 91 75 88 90 84 82 85 90 105 123 121 118 121 119 85 67 82 116 143 142 149 158 159 167 164 168 171 175 177 178 181 183 181 179 180 175 163 164 175 181 185 191 193 195 196 194 196 197 198 199 198 196 196 195 196 195 196 194 195 193 193 190 193 186 184 187 184 178 175 179 171 169 174 177 175 175 173 176 171 164 159 160 156 155 159 157 147 132 96 103 119 124 127 89 79 87 86 82 89 82 103 120 122 123 118 119 82 65 89 132 144 145 154 160 162 166 165 169 171 179 179 183 185 187 187 185 184 186 178 179 186 191 193 198 200 200 200 195 198 200 201 200 200 198 197 198 197 198 197 197 196 196 196 194 194 194 190 186 187 185 177 177 178 180 180 179 177 175 176 177 170 164 161 160 155 157 154 156 155 146 128 104 123 128 140 110 81 69 79 88 85 84 96 121 118 121 118 122 78 66 100 142 143 146 158 165 164 165 169 172 174 178 182 184 185 189 190 193 192 190 189 188 193 191 196 197 196 199 200 201 200 199 202 201 200 200 198 200 200 200 200 198 196 197 199 196 195 196 194 193 191 188 185 184 183 186 182 180 179 172 172 176 168 164 160 161 155 157 156 153 158 155 143 115 125 126 128 119 93 70 72 83 82 76 91 121 120 119 120 122 78 70 123 144 141 147 160 163 163 166 171 174 178 182 185 186 188 189 190 193 195 196 195 196 193 192 194 198 199 201 201 200 201 199 200 202 201 201 200 202 201 201 200 200 199 198 199 200 197 199 197 196 192 193 192 187 187 185 184 176 175 182 175 177 172 166 163 160 157 157 158 157 159 155 142 133 125 127 112 115 92 82 73 75 88 64 87 121 122 116 118 118 74 83 133 138 140 149 162 164 163 167 168 174 176 183 182 189 190 190 191 191 194 195 197 199 198 191 193 199 201 199 201 202 202 201 201 202 201 202 201 201 202 201 202 202 202 201 202 201 200 199 199 197 199 194 194 191 188 188 183 177 172 178 177 176 174 170 164 161 157 153 157 158 158 157 147 142 137 124 105 111 90 83 82 81 82 76 69 117 120 117 116 118 70 99 135 138 141 154 162 161 162 167 169 175 176 180 184 188 190 190 189 190 193 194 198 199 198 195 195 198 200 199 200 200 202 202 201 202 202 203 202 202 203 204 204 204 203 204 203 205 202 200 201 200 199 198 194 192 189 190 190 181 181 180 176 175 172 167 162 164 155 156 159 157 156 154 143 153 134 127 103 106 100 85 91 80 86 68 83 111 121 116 116 117 78 103 137 135 140 155 160 161 162 164 170 173 178 178 183 189 187 191 191 190 193 193 196 196 196 198 200 201 198 200 199 201 200 202 201 201 202 203 203 204 204 204 204 205 204 207 207 206 206 204 202 200 200 199 196 193 187 189 190 185 186 186 182 178 174 167 163 163 159 156 158 159 156 155 148 143 133 121 102 94 99 95 96 74 78 71 76 118 117 115 115 118 76 110 135 131 142 150 161 161 164 164 171 175 180 180 184 185 189 189 190 191 192 190 194 195 196 198 199 201 199 199 200 203 200 202 202 202 204 203 203 203 205 203 205 205 206 207 205 208 208 204 202 200 199 198 195 192 189 190 190 188 185 184 180 179 173 167 164 161 158 154 161 155 157 157 149 145 125 118 92 89 88 92 94 82 73 63 87 119 116 118 116 115 70 107 134 133 140 152 156 156 165 162 168 173 180 180 179 182 184 187 186 186 190 192 193 192 195 197 196 199 198 196 201 202 201 202 200 202 202 202 202 203 203 203 206 206 205 205 206 205 205 203 200 198 195 194 195 191 190 191 189 190 187 185 180 177 174 170 166 161 159 152 159 153 153 151 152 136 130 115 94 77 74 72 81 81 74 78 86 115 119 114 114 114 65 110 130 131 141 150 156 155 163 162 165 171 174 176 174 179 183 182 184 186 185 189 190 192 194 194 196 197 197 196 200 200 198 199 200 201 203 202 200 201 202 202 204 202 202 202 203 202 202 200 198 197 196 191 191 192 188 189 191 189 188 188 182 176 170 167 163 164 159 156 157 155 152 152 149 141 132 116 101 77 68 57 62 75 76 76 85 115 116 114 116 117 77 107 126 133 139 152 158 156 160 159 163 169 169 172 171 176 178 180 178 180 180 185 187 191 194 187 190 194 195 195 199 199 198 198 199 201 202 201 199 199 200 200 203 201 200 198 200 198 198 197 198 195 195 192 193 193 189 191 190 190 187 186 182 174 166 166 161 160 155 156 152 153 150 147 143 136 136 116 106 78 65 53 51 72 67 70 84 111 118 113 115 114 84 104 124 128 141 149 159 157 158 160 162 164 166 171 170 172 177 175 173 177 177 182 186 187 189 173 174 186 196 196 198 197 199 197 200 199 201 199 199 197 199 198 199 200 197 197 198 195 195 195 194 195 194 192 194 194 191 191 190 189 185 186 181 174 167 163 164 161 159 157 154 152 147 147 141 135 137 115 114 84 60 56 48 64 60 57 83 113 116 113 113 113 82 97 123 125 139 150 157 161 157 159 163 166 170 172 176 176 178 176 175 177 180 182 183 186 188 169 169 182 193 194 197 199 199 198 198 198 199 197 198 197 198 197 197 197 196 197 195 195 195 195 193 193 193 192 192 195 193 188 189 191 184 182 176 169 167 162 158 156 157 159 158 151 145 145 146 136 138 123 112 99 64 61 54 60 52 50 85 113 117 116 113 114 79 86 120 119 129 145 153 159 159 160 166 167 171 174 178 179 181 180 175 177 179 179 180 181 184 182 181 188 193 195 197 198 198 202 200 198 199 199 197 198 197 195 197 197 198 196 197 196 197 195 195 193 193 193 192 195 193 191 192 190 186 180 178 173 164 162 157 156 159 158 156 149 146 145 147 135 146 131 106 108 89 65 58 50 47 47 83 116 114 115 114 113 80 82 117 117 126 143 151 158 159 159 163 168 173 178 178 182 185 182 185 182 180 180 180 182 182 184 186 188 193 194 196 198 196 201 199 199 198 198 199 197 200 198 197 199 197 196 199 197 197 195 195 195 194 193 192 197 193 192 192 189 185 180 173 171 166 160 157 157 156 159 154 148 141 145 143 137 137 137 109 102 102 76 65 54 51 49 88 116 115 114 115 112 89 83 113 120 121 137 149 156 155 161 164 171 175 177 181 186 188 185 188 185 186 182 180 182 186 187 190 194 192 194 198 196 195 201 201 200 199 199 200 200 201 202 200 200 200 200 201 199 199 198 194 197 195 192 195 196 194 193 192 188 187 181 174 172 164 161 156 158 158 158 157 148 139 144 142 136 131 127 118 96 98 95 72 56 55 56 77 115 114 114 113 114 88 86 106 119 122 133 146 154 154 161 166 171 176 180 186 189 189 189 188 187 187 188 183 185 188 188 192 193 194 196 196 198 197 199 201 201 200 200 199 200 200 201 202 201 201 200 200 201 199 198 195 196 197 194 196 195 195 192 188 190 184 179 170 167 161 159 154 159 158 159 151 145 142 142 140 135 130 118 119 94 81 96 73 72 62 48 64 116 114 115 114 112 86 84 103 118 117 127 144 150 156 155 159 173 178 182 190 188 191 192 192 190 188 191 191 188 190 191 192 194 195 197 198 200 196 200 199 200 200 200 201 200 201 200 201 201 201 200 201 200 199 199 196 198 200 195 195 196 192 192 188 185 182 173 171 165 159 156 156 158 158 154 148 137 141 138 135 135 133 123 108 94 87 76 75 60 75 59 51 113 115 114 112 113 80 81 97 117 116 127 140 152 154 154 158 173 179 179 186 190 190 193 194 193 192 193 193 190 195 190 192 193 196 196 198 200 200 199 201 199 200 201 200 201 200 199 201 199 198 201 198 201 199 196 198 194 196 197 194 191 192 189 187 182 178 170 165 164 158 154 153 154 154 155 144 142 141 140 135 140 132 123 109 84 88 88 65 63 68 60 56 116 113 117 114 111 81 82 92 117 117 127 143 151 158 156 156 172 180 178 185 187 191 193 196 192 191 193 194 193 195 193 194 194 194 198 198 198 199 199 200 199 200 200 201 200 200 200 201 201 201 202 200 197 198 198 195 197 194 194 193 191 186 189 182 178 172 166 163 159 155 154 151 150 151 148 146 142 145 141 137 144 130 120 105 84 70 83 64 60 65 64 56 115 117 111 114 114 88 85 85 113 121 130 146 154 159 156 159 169 176 180 180 186 190 190 194 191 191 193 192 197 196 197 191 195 194 196 196 197 199 197 200 198 200 199 200 199 200 200 201 202 206 203 202 199 197 199 195 196 195 193 191 189 187 185 181 172 171 166 161 158 153 152 150 155 151 149 145 140 146 147 137 137 126 114 99 81 73 69 71 62 65 54 64 115 114 114 112 111 93 76 85 113 121 133 146 159 161 158 163 165 173 176 176 183 189 188 191 191 189 191 191 195 196 196 195 193 194 195 196 193 196 199 198 196 199 198 200 200 200 198 203 205 209 205 205 200 199 199 194 193 193 192 190 191 186 183 181 175 169 166 159 155 154 152 151 157 151 148 142 142 147 147 141 134 130 118 98 75 81 68 70 62 58 52 66 114 114 114 111 114 90 76 84 107 123 138 151 154 160 158 158 161 164 172 175 180 185 186 187 191 189 192 186 190 192 194 194 193 192 192 194 191 193 195 196 195 196 199 196 200 201 200 202 203 206 206 204 198 197 196 193 194 191 188 190 190 185 181 180 177 170 165 159 153 153 151 153 156 149 146 150 145 151 144 137 132 132 118 97 80 71 78 66 56 62 47 81 115 115 113 112 111 115 86 78 104 127 139 146 147 148 143 138 145 152 154 158 170 175 176 179 182 184 184 184 183 186 189 189 191 190 190 191 190 191 191 194 193 192 196 199 195 199 199 199 199 201 199 195 192 190 189 192 189 187 185 186 186 186 181 184 181 174 163 157 156 150 154 155 152 151 151 147 147 148 145 138 122 128 116 88 87 78 76 71 56 59 49 106 114 112 111 112 112 136 86 75 104 125 132 139 136 134 130 127 124 124 125 126 132 138 142 150 156 168 172 173 176 182 184 185 183 188 184 187 187 187 185 189 190 188 184 184 188 188 185 190 185 185 184 181 177 175 179 180 180 179 180 183 181 182 185 184 182 180 169 159 156 150 151 154 156 151 153 151 148 150 145 137 122 119 112 91 85 81 73 67 59 66 89 124 117 111 110 112 110 101 84 76 105 117 120 121 118 115 112 111 107 110 117 122 118 117 119 125 129 146 154 156 161 167 178 179 180 183 181 184 185 182 180 181 182 179 172 164 162 163 159 158 157 155 153 152 150 157 158 155 157 163 172 177 176 172 176 174 174 176 174 162 148 148 151 154 153 152 154 150 151 149 143 133 127 112 101 84 82 86 72 64 107 143 156 153 148 124 106 109 112 81 56 81 100 108 107 104 102 102 99 86 83 88 98 109 106 104 111 112 111 123 134 145 147 155 165 168 172 175 177 175 174 174 172 171 168 171 163 158 144 138 136 133 129 128 122 123 126 129 134 132 130 137 151 156 152 158 164 163 164 168 165 162 147 152 151 155 155 157 151 154 151 145 145 128 122 106 84 89 82 89 86 97 162 173 159 132 139 152 122 106 110 81 55 68 106 109 107 103 98 93 94 86 72 69 76 83 84 94 96 99 97 106 116 129 136 147 149 156 161 164 167 162 166 164 170 161 158 154 155 152 136 127 119 115 115 108 103 97 97 102 99 105 110 114 138 144 143 135 146 149 147 158 153 150 145 146 151 155 158 155 149 154 146 142 142 128 113 107 72 73 83 92 101 157 169 148 95 58 77 107 150 107 108 105 54 74 105 113 101 105 101 100 94 92 74 71 73 69 63 64 69 72 73 88 96 102 117 126 134 144 152 157 160 159 156 155 149 144 142 141 138 136 121 115 113 107 106 99 95 88 93 91 93 95 107 116 131 136 138 145 145 149 142 140 148 142 140 141 149 155 159 157 155 150 147 147 142 124 94 109 81 70 85 96 148 158 139 126 109 90 80 82 150 115 107 117 72 70 110 120 104 105 100 87 76 72 68 63 55 52 47 43 42 50 56 58 61 82 94 108 121 134 149 153 159 169 162 156 147 140 132 125 120 114 109 106 103 95 88 71 71 66 72 75 80 86 94 103 111 118 129 140 146 149 146 144 146 141 141 142 152 159 155 156 156 150 146 150 141 123 87 103 95 64 96 121 142 136 143 156 141 116 109 85 160 123 99 128 71 85 112 125 106 101 92 74 77 70 58 74 67 50 44 42 35 41 44 61 62 65 73 84 104 128 151 167 174 182 175 168 154 139 125 116 109 103 105 101 99 85 81 74 79 75 73 69 70 76 89 96 101 101 101 109 126 135 141 143 143 147 145 150 154 161 157 159 154 152 147 152 143 124 91 86 90 68 116 139 132 160 174 163 149 116 119 87 153 131 100 125 76 115 121 127 113 104 92 78 68 58 71 108 102 72 54 46 47 53 50 73 67 68 74 74 89 126 166 184 190 192 191 183 170 151 134 119 114 114 112 112 104 102 96 88 94 104 92 69 49 99 108 57 82 104 118 107 95 101 133 141 144 150 151 154 159 163 156 159 157 153 146 153 144 115 99 74 85 103 139 145 141 167 170 162 149 118 132 106 145 137 94 133 99 133 129 133 124 108 96 76 71 70 85 116 135 90 80 65 66 66 74 91 78 58 74 82 88 134 177 193 197 198 197 196 184 164 153 143 138 140 146 141 129 108 96 106 132 159 129 90 57 44 63 67 77 98 88 101 115 109 111 127 145 156 160 159 164 164 161 160 157 155 149 153 147 118 110 85 101 137 140 145 185 173 163 166 152 113 146 119 164 126 97 143 126 138 130 131 141 126 111 97 94 104 115 119 131 132 106 103 103 114 113 110 95 87 88 86 102 147 184 196 200 200 201 193 188 172 161 156 155 160 167 168 140 121 109 119 153 180 164 109 99 74 73 91 108 124 109 83 89 98 117 130 136 153 162 167 172 171 165 158 155 158 154 153 150 125 112 117 122 154 99 86 158 156 160 182 162 110 146 135 177 113 97 135 137 134 130 133 148 147 134 120 113 120 123 122 121 130 125 126 134 135 133 129 119 105 97 96 119 159 188 199 200 202 203 197 189 179 167 162 161 160 168 169 166 156 141 136 151 165 172 136 107 110 108 118 149 147 134 121 117 117 125 143 152 163 174 180 181 177 167 159 158 162 151 152 144 128 113 142 136 145 123 79 127 145 149 184 169 122 133 155 169 93 103 119 135 132 130 141 156 156 150 134 125 135 137 143 143 139 138 134 129 131 132 126 123 109 112 112 134 169 190 198 200 202 203 198 189 179 171 169 171 171 171 165 157 147 144 140 144 147 161 155 151 156 161 147 150 155 152 154 152 149 157 174 181 182 185 185 183 175 168 159 159 161 150 145 143 123 120 170 140 142 171 141 114 137 145 176 177 128 141 172 129 93 106 98 143 123 130 142 158 166 161 147 127 126 135 134 133 136 136 133 132 133 136 137 132 124 132 133 137 168 190 198 198 201 202 196 185 177 172 176 181 177 180 177 165 154 142 140 139 143 142 141 139 147 152 155 161 164 167 171 172 169 174 185 191 187 189 186 182 180 168 154 158 158 150 146 136 122 139 197 145 152 167 187 141 131 137 176 170 130 160 159 102 100 104 88 135 131 131 144 164 166 169 162 139 130 127 121 125 129 137 138 143 146 149 148 145 143 144 134 141 162 190 200 202 200 200 194 179 175 175 176 182 179 180 182 178 179 171 155 145 142 142 145 152 154 162 164 168 169 170 170 175 179 183 189 192 189 184 184 179 177 168 155 157 150 147 143 135 114 168 204 167 178 171 185 176 141 132 172 165 142 172 140 85 105 103 82 130 130 127 146 160 171 176 180 171 160 159 152 154 151 158 162 162 161 162 161 154 149 146 143 138 160 187 202 202 200 199 192 179 174 176 178 181 182 181 180 175 181 185 184 175 165 148 145 140 138 140 141 146 152 154 162 167 175 182 190 192 190 187 185 180 178 172 156 151 143 143 139 131 111 179 195 172 169 195 185 181 151 135 176 164 153 168 101 99 103 104 89 109 141 131 142 161 171 179 180 186 184 182 179 172 165 168 173 175 174 169 161 156 145 146 145 144 159 184 201 200 198 195 190 176 174 177 179 178 181 181 179 172 176 181 187 190 189 182 175 169 169 169 168 170 171 171 182 186 191 190 192 189 188 186 184 180 175 171 160 145 142 141 135 130 115 176 184 166 153 188 199 178 149 143 180 158 163 141 94 98 98 104 89 99 144 134 140 153 163 174 174 184 186 186 186 182 175 178 181 180 173 167 157 151 146 147 146 143 159 183 199 199 197 192 183 179 174 171 177 177 177 177 178 173 177 182 188 191 191 193 190 185 184 184 185 184 186 189 189 192 193 192 191 189 185 187 184 178 174 164 154 143 141 134 133 127 123 175 178 152 162 170 191 161 152 157 177 163 165 115 88 98 99 102 95 88 142 138 135 150 159 167 170 177 182 180 185 183 182 183 183 179 177 170 160 149 145 145 146 145 160 183 198 200 196 186 179 179 175 172 172 178 175 176 176 177 178 184 188 191 191 194 194 195 190 188 190 188 189 193 194 194 195 193 189 187 187 186 185 178 172 162 151 144 136 131 136 123 128 179 169 132 159 169 163 165 173 169 160 168 148 94 94 98 100 103 97 84 122 140 131 144 156 166 169 173 179 182 185 183 180 187 182 180 178 169 158 151 144 142 143 150 162 188 201 201 196 186 178 175 174 172 168 173 175 178 176 179 182 188 191 192 193 192 195 194 196 195 193 191 192 195 191 193 194 189 190 189 186 187 185 179 174 158 148 140 132 130 133 122 131 174 146 135 172 180 171 169 174 171 170 164 116 93 98 99 98 98 97 87 111 141 128 140 152 160 168 168 175 181 184 182 183 184 184 182 176 172 160 145 137 138 144 151 168 186 199 200 200 191 182 181 176 169 166 162 162 172 175 179 183 189 192 194 194 194 194 198 195 198 198 194 195 193 194 192 193 190 189 187 183 184 182 175 168 157 144 138 131 130 128 126 134 161 167 172 187 190 173 174 174 168 168 139 93 97 97 98 96 100 99 87 104 139 127 137 149 161 168 169 172 180 183 184 183 182 183 179 175 170 153 137 128 137 148 158 168 187 196 197 203 197 186 185 178 171 171 167 163 162 166 175 184 188 192 194 192 192 193 197 197 200 200 197 199 198 194 192 195 190 191 187 182 181 179 173 159 151 142 132 130 132 132 123 139 156 184 190 192 185 178 173 180 171 148 113 90 98 100 98 97 99 94 97 83 133 126 134 149 159 168 167 169 171 180 179 179 179 180 180 174 165 147 130 137 140 150 160 171 184 196 200 204 200 191 187 177 172 170 173 172 168 163 161 173 182 190 190 192 190 192 195 195 200 200 199 200 199 194 192 192 193 190 188 182 178 174 170 155 143 138 132 129 131 130 119 146 170 181 184 191 181 170 171 179 169 114 91 97 97 99 96 98 97 98 93 94 104 120 136 146 154 165 169 170 174 175 178 176 177 172 170 169 152 132 131 145 145 151 161 169 181 186 197 205 201 196 190 181 171 169 174 175 171 167 157 155 168 178 182 188 189 190 190 193 196 198 199 197 201 190 189 192 189 190 187 181 177 170 164 153 141 136 132 129 132 127 120 155 186 181 176 179 172 167 176 182 152 87 94 96 97 97 95 97 95 95 96 96 87 108 133 146 148 157 165 162 170 172 177 176 173 171 163 153 130 124 136 140 140 154 167 171 179 183 195 201 201 195 189 178 165 167 170 169 171 165 150 147 157 163 169 178 181 184 185 186 190 193 196 195 192 189 186 184 187 183 181 178 175 169 158 149 138 131 131 130 133 120 123 172 194 186 178 175 177 173 170 156 113 94 96 93 98 97 95 97 96 98 94 94 95 90 122 139 140 151 159 157 164 164 167 170 168 163 149 137 116 120 133 125 128 144 161 172 179 180 183 194 193 188 175 164 157 160 165 163 162 158 143 148 166 166 155 157 168 178 180 182 183 188 189 187 186 185 182 178 180 180 175 174 169 164 153 148 137 133 130 131 128 121 122 172 185 181 175 167 166 163 144 118 95 92 98 93 97 95 96 96 95 97 95 95 92 94 109 127 134 141 148 153 155 160 157 160 157 149 134 126 125 123 121 112 106 120 146 167 176 176 178 181 180 170 155 142 138 142 144 147 149 143 140 155 175 177 169 152 148 162 172 177 182 181 181 184 181 183 177 176 172 174 173 167 164 163 149 143 137 134 133 132 126 115 131 155 155 155 147 151 140 130 112 92 95 96 97 95 96 96 97 96 96 98 95 92 96 91 105 115 122 134 137 140 143 153 153 150 144 139 124 125 129 130 114 100 84 87 115 146 161 164 165 167 158 146 129 110 95 87 87 104 121 133 150 163 172 181 182 168 141 142 160 167 175 181 179 177 175 175 171 173 171 170 170 162 158 158 148 141 140 137 132 126 123 115 128 106 103 109 106 107 107 97 95 91 95 94 95 93 95 97 94 95 96 93 95 91 96 90 104 108 112 121 129 134 138 143 144 144 136 122 122 128 130 125 129 105 74 66 77 104 126 139 140 143 135 120 95 86 81 79 74 83 118 144 154 162 166 174 183 176 161 132 138 154 164 174 172 175 169 168 165 168 167 164 160 153 155 152 147 142 145 135 129 125 117 120 113 76 89 86 91 91 95 90 96 93 95 96 96 94 92 98 92 94 98 93 94 92 93 94 92 109 107 108 120 125 128 134 140 139 128 120 129 136 132 129 129 117 94 82 70 82 91 101 102 107 108 103 99 109 118 122 124 136 155 160 162 162 167 173 176 178 172 160 132 133 152 166 171 168 163 162 162 159 159 157 156 152 152 147 144 142 141 134 132 121 114 122 88 80 87 88 87 93 91 93 91 93 95 94 95 95 92 98 96 93 96 95 93 92 93 92 90 106 100 103 106 119 122 132 137 135 127 127 128 127 129 125 128 123 104 94 93 89 89 86 85 93 96 103 111 126 138 145 153 156 160 163 164 165 167 170 171 173 174 176 161 133 134 158 164 166 164 159 157 158 155 153 150 153 147 144 145 136 136 134 128 122 111 120 82 83 87 88 88 92 92 92 93 97 94 94 97 93 94 98 90 95 97 95 93 94 93 93 88 102 103 99 108 110 117 129 137 132 129 131 124 122 122 123 126 122 114 98 99 99 96 89 90 110 120 124 133 140 152 155 158 161 165 164 161 160 161 166 170 174 176 179 174 158 133 143 161 165 163 160 160 159 154 152 150 150 151 143 144 140 136 130 129 116 109 120 93 80 92 86 91 91 93 94 91 96 94 94 97 94 93 98 92 95 96 94 91 94 94 92 89 99 104 98 105 106 118 129 135 129 123 122 119 117 116 123 123 129 123 112 106 107 104 105 114 134 142 138 145 150 162 168 162 168 174 171 163 160 159 158 165 169 171 177 174 175 165 137 154 166 168 162 162 159 157 149 151 148 145 143 142 137 131 132 124 112 105 116 106 79 86 89 91 90 92 91 93 94 93 91 97 92 93 98 93 95 93 90 93 91 93 95 87 93 110 99 98 110 111 130 138 131 117 108 105 110 117 124 131 131 130 127 121 122 125 133 141 150 146 150 158 163 167 172 170 172 174 177 170 168 166 163 164 160 157 153 156 164 166 150 144 160 167 163 159 162 156 153 151 146 143 144 141 135 134 129 120 106 104 126 103 76 91 87 92 93 89 94 92 96 91 93 98 91 95 96 93 95 91 93 91 93 94 91 90 90 102 111 100 106 117 133 142 137 119 105 85 95 111 128 131 138 143 142 148 144 145 149 159 159 155 156 165 166 171 179 180 179 176 175 173 169 169 168 164 160 149 128 128 145 157 160 151 159 170 161 163 161 159 148 143 139 143 141 144 133 134 126 115 101 107 127 101 82 87 90 88 91 94 92 94 94 92 94 96 94 95 91 92 93 93 94 91 90 92 93 90 87 98 111 102 104 114 130 148 150 135 109 79 66 96 107 113 122 129 134 137 137 138 145 152 156 153 149 146 145 149 149 155 154 153 151 151 151 155 156 151 145 131 99 94 121 148 160 161 158 167 168 165 161 158 148 144 144 144 143 137 136 127 121 106 102 115 131 89 81 88 92 89 90 93 94 93 92 95 93 95 93 92 95 94 95 93 93 88 91 90 92 90 89 88 112 110 102 109 127 142 153 143 127 91 69 54 78 83 86 96 104 105 106 106 110 111 116 119 120 123 124 125 125 127 129 130 123 114 121 114 109 98 86 76 72 81 110 129 151 161 163 167 167 164 162 153 147 141 146 145 140 138 134 126 112 99 109 125 125 81 82 86 89 87 92 93 93 93 94 94 91 96 93 93 92 97 93 94 94 89 95 90 92 91 90 87 101 116 107 103 120 139 146 148 132 114 88 83 76 57 45 59 82 92 91 72 87 97 98 99 95 105 107 112 103 86 98 108 98 85 94 92 63 61 86 116 138 134 138 136 148 164 166 169 165 163 157 148 143 141 149 143 142 131 128 120 102 100 120 129 126 77 85 86 89 91 89 90 92 92 94 92 92 93 91 94 94 92 95 93 95 90 93 88 92 89 92 84 90 109 109 104 113 129 150 154 145 130 112 108 107 88 58 49 62 96 101 84 98 123 129 131 106 120 131 138 124 94 109 118 108 80 98 107 110 123 144 160 170 168 161 160 163 163 168 165 164 158 152 143 140 142 146 144 137 131 122 109 97 112 127 129 119 75 88 87 91 90 89 93 93 93 93 93 92 94 92 95 91 93 92 94 90 95 90 92 90 89 91 89 85 99 116 108 103 121 143 152 162 144 128 126 130 119 95 84 72 76 92 76 95 134 144 156 129 127 142 143 137 106 109 129 132 125 135 140 147 158 171 173 174 174 171 173 175 169 169 164 154 150 149 140 142 141 143 140 135 125 115 100 108 127 129 132 109 77 89 88 92 92 92 93 93 90 95 94 93 91 93 93 95 92 95 92 89 92 90 89 91 89 91 88 86 86 106 112 103 113 136 155 163 160 141 139 140 133 123 121 117 114 112 110 108 119 129 131 125 119 126 139 153 148 157 159 158 156 163 165 170 173 178 177 177 177 173 177 178 171 166 160 148 144 140 140 143 142 138 142 132 117 101 101 124 133 129 132 101 75 88 87 91 91 93 92 93 93 92 94 92 93 94 93 93 96 91 96 89 90 90 90 88 90 89 86 91 84 92 108 105 101 125 149 160 163 157 153 149 147 136 132 138 143 139 138 137 139 149 150 147 144 144 148 160 170 177 176 170 169 169 169 172 176 179 179 182 183 176 180 181 182 173 160 148 142 137 141 140 137 137 131 125 107 96 116 131 132 127 131 99 78 86 90 89 88 94 93 91 94 91 93 92 95 92 92 91 94 91 93 92 93 88 88 91 86 89 89 87 88 84 98 105 105 108 138 151 159 164 160 158 154 142 133 131 145 148 152 151 148 156 157 152 154 152 151 161 178 185 181 173 170 166 174 178 181 178 175 177 179 176 174 176 176 168 155 149 142 141 141 141 139 131 125 112 96 106 134 141 126 129 127 99 80 90 89 90 92 91 92 94 92 94 88 95 94 92 91 94 93 92 93 92 88 88 89 89 88 87 91 87 90 81 88 99 102 102 121 140 152 154 162 154 156 148 138 130 133 135 145 152 155 156 159 158 162 160 159 159 167 171 171 173 170 168 172 177 179 175 174 175 170 171 163 161 167 162 150 147 144 139 139 137 136 123 112 96 99 124 140 140 132 127 129 86 84 88 90 91 93 91 92 92 89 93 90 94 92 87 95 89 93 93 93 90 88 89 89 89 88 85 90 83 88 86 82 91 99 96 110 136 144 151 159 154 151 150 145 137 135 134 138 145 144 145 149 149 148 150 151 161 163 168 174 174 172 170 172 173 176 172 165 172 162 168 167 167 166 158 152 143 144 136 134 137 126 113 92 96 121 133 142 138 135 127 117 88 84 87 88 89 87 92 93 93 88 95 89 93 93 90 91 95 92 90 94 87 90 86 90 86 86 85 88 85 87 85 86 83 88 98 100 119 142 148 156 154 147 151 145 140 142 140 143 149 147 150 149 147 145 155 155 159 165 167 168 170 171 173 170 170 170 170 162 163 166 166 165 166 166 157 148 142 140 135 136 127 114 96 91 115 127 132 145 140 129 125 122 80 88 87 89 88 92 91 91 94 90 90 89 93 93 88 93 91 90 91 90 87 87 86 87 87 83 86 87 88 84 86 84 85 82 91 96 109 132 145 154 159 148 144 145 143 144 143 144 153 153 150 155 148 147 155 157 155 161 163 162 164 168 167 166 168 164 163 155 162 167 166 170 170 163 154 144 140 137 135 126 114 95 88 108 128 135 142 142 135 126 127 116 85 86 88 89 89 90 90 88 94 88 93 89 91 91 91 90 93 88 93 89 88 85 88 87 88 85 84 86 85 82 84 85 86 67 110 94 99 124 143 152 160 152 140 141 143 142 145 147 152 159 156 160 155 153 152 155 159 157 162 164 165 165 163 164 164 160 156 154 165 167 170 173 169 156 150 140 136 130 125 111 93 81 98 123 134 134 144 144 125 126 122 115 77 86 90 85 91 90 89 89 92 87 92 89 92 91 92 89 91 92 88 92 88 83 85 86 85 86 82 82 84 82 85 81 85 62 126 110 88 108 132 152 154 150 151 149 146 142 144 148 155 161 163 168 168 169 171 167 170 168 162 169 166 163 168 166 163 160 168 167 171 172 173 172 169 152 148 136 129 122 108 85 78 96 111 132 137 143 139 137 122 117 121 114 78 89 93 85 93 89 90 90 93 91 91 87 90 91 88 93 88 91 91 92 86 82 87 84 85 84 85 83 82 85 80 85 85 60 125 127 103 89 122 140 156 149 159 163 155 148 149 148 161 163 167 174 177 182 182 181 183 181 178 171 172 170 172 172 166 168 172 172 172 173 174 167 159 146 137 128 117 104 74 79 93 110 122 134 127 137 145 139 126 110 120 111 79 88 90 86 92 88 88 91 86 89 89 90 90 86 89 90 91 86 91 90 82 85 85 83 83 84 85 85 82 82 84 83 82 80 130 128 123 93 103 131 148 150 154 166 167 159 162 157 162 162 167 171 176 182 184 184 187 182 179 174 169 173 177 178 177 175 176 175 181 181 173 161 147 133 126 115 96 74 74 94 102 121 134 137 129 138 141 134 131 117 122 105 78 89 89 89 87 90 87 90 89 89 90 87 90 89 87 91 91 88 91 90 84 86 84 85 85 84 84 83 84 84 84 74 104 80 122 133 121 107 98 114 133 150 155 162 169 166 164 160 156 157 164 175 175 180 184 182 187 185 181 176 171 177 182 181 183 181 177 174 176 176 162 149 138 122 112 89 73 80 94 105 114 133 140 141 137 129 139 134 127 123 119 98 80 90 86 89 89 84 91 91 89 92 88 89 88 90 88 88 88 92 86 92 82 84 85 81 85 82 85 83 83 83 80 91 114 30 132 137 124 106 103 97 122 139 152 162 164 170 164 159 152 158 164 173 175 176 182 180 183 185 185 182 176 178 185 185 184 183 178 172 171 162 154 137 119 109 86 71 84 97 109 114 131 133 143 142 130 126 134 129 127 121 118 101 78 91 85 88 89 86 89 88 86 89 88 89 88 90 88 91 86 92 86 90 85 84 78 85 82 84 82 83 76 84 102 102 60 30 139 134 124 115 108 99 99 125 142 153 161 165 160 155 154 161 171 171 175 173 174 180 176 183 189 191 180 172 183 182 182 181 174 167 161 156 139 120 105 78 82 88 102 111 113 131 138 137 146 142 139 132 135 123 124 122 116 92 82 89 86 86 91 84 90 88 88 87 87 87 88 88 87 90 87 88 88 92 83 81 81 84 82 82 85 81 74 121 95 26 25 72 138 136 123 118 113 108 84 96 125 141 147 157 149 147 153 161 166 165 166 165 166 172 174 173 180 187 176 171 180 181 176 174 161 157 149 134 120 100 85 82 99 107 111 120 126 134 143 143 144 140 136 134 136 123 126 118 117 99 82 90 88 86 90 86 90 88 87 87 87 87 87 87 88 87 88 88 89 90 87 81 81 82 81 81 83 83 91 122 89 14 67 60 138 138 125 120 118 111 103 85 104 123 134 146 144 140 142 150 156 152 154 155 152 153 163 163 161 170 170 168 166 164 162 155 149 141 132 117 94 84 91 105 110 117 119 125 133 137 141 134 144 144 134 131 132 128 124 118 107 106 87 86 86 87 87 87 87 88 87 86 89 88 86 88 86 87 87 89 89 87 82 83 82 82 82 87 96 101 95 109 89 41 64 58 139 135 129 119 120 113 110 102 86 100 117 132 134 132 134 138 143 143 146 145 142 141 151 150 145 149 155 152 148 147 143 137 134 124 108 86 85 102 113 120 117 123 131 138 137 146 139 139 143 138 132 136 134 126 123 119 100 110 92 85 88 88 86 84 88 86 84 88 86 88 85 88 87 84 89 84 90 88 81 85 86 89 96 96 94 104 90 114 82 62 51 70 140 129 131 119 118 119 109 107 100 87 93 110 113 118 119 125 127 130 133 135 131 127 137 138 134 131 133 132 131 133 128 122 112 92 80 86 104 118 124 120 119 133 142 143 138 149 145 142 142 137 136 135 128 128 120 123 84 99 112 88 86 88 82 86 86 87 84 85 87 85 87 86 88 84 88 86 87 89 89 92 108 101 96 85 98 102 86 120 73 74 30 87 133 132 130 122 117 114 116 102 97 101 88 82 97 101 99 106 104 111 116 118 113 107 108 113 115 114 110 110 112 111 104 93 78 76 93 108 121 124 130 124 123 139 137 142 141 142 143 145 140 141 138 130 130 129 121 125 81 55 130 89 81 86 85 86 85 87 81 90 84 87 87 88 85 86 90 84 87 87 111 105 97 93 88 79 98 102 89 130 65 76 39 99 137 127 131 124 118 116 113 111 98 100 101 81 78 78 85 84 83 89 90 88 84 81 82 82 84 82 81 82 82 80 73 72 78 94 114 122 126 132 123 127 122 131 140 141 145 137 139 142 142 143 133 130 131 127 123 109 112 31 140 89 67 80 79 93 87 83 87 83 85 85 86 85 85 84 84 85 88 86 112 91 92 91 83 79 96 92 89 140 53 65 43 110 134 131 127 130 124 118 114 110 108 103 100 95 84 85 76 71 72 67 72 64 67 65 59 56 59 63 65 65 70 70 73 84 94 114 118 126 128 121 128 123 128 130 144 144 143 144 141 149 139 141 132 136 132 126 117 102 132 43 129 107 74 84 77 82 96 84 94 84 86 85 84 86 84 84 83 84 88 86 102 83 91 84 86 77 96 85 76 122 81 52 55 116 136 129 129 134 127 121 117 113 108 105 98 99 91 90 85 76 76 75 75 73 67 68 60 62 64 65 63 67 73 80 88 96 113 121 122 121 129 117 130 127 126 133 141 143 141 145 139 147 140 138 133 136 126 123 110 104 134 47 125 114 86 78 79 78 95 96 103 90 88 84 83 86 84 85 86 85 84 87 89 90 86 83 81 80 89 88 79 86 120 62 62 121 136 132 130 128 129 123 117 114 112 106 102 99 96 98 87 77 80 77 74 75 78 70 69 65 69 68 64 71 77 87 101 113 122 126 119 115 126 119 124 124 120 135 139 143 145 147 145 142 142 134 134 132 125 119 105 110 128 63 132 110 87 82 70 84 68 104 98 87 90 96 97 85 77 88 82 87 83 86 