P2
92
112
255
131 133 128 134 131 129 134 131 132 130 131 131 128 131 131 115 112 115 126 133 139 131 140 136 138 136 137 125 120 121 119 113 108 115 114 114 112 117 122 116 110 107 116 130 140 137 134 128 141 136 127 136 157 171 156 137 128 129 127 118 123 120 124 127 120 127 123 118 126 136 132 134 129 128 129 127 126 120 126 125 124 122 123 123 119 121 122 124 122 124 122 126 130 133 131 131 134 132 133 137 132 131 131 131 132 133 130 113 118 122 131 135 148 147 140 130 140 142 139 137 126 118 115 108 92 97 101 103 108 110 114 103 97 105 109 115 117 109 110 116 128 125 117 124 148 166 156 132 129 121 122 118 121 123 127 128 120 127 130 131 132 143 134 133 123 128 134 133 129 125 126 125 122 122 124 122 125 121 124 119 124 121 123 124 130 134 130 132 133 133 134 138 130 130 130 137 131 132 125 116 127 126 135 139 148 152 147 134 135 135 132 123 115 107 97 96 94 79 90 90 97 98 104 101 101 108 108 119 123 108 106 114 117 115 120 126 152 165 152 134 126 123 119 121 123 118 124 127 118 115 135 137 139 150 151 138 124 126 133 130 133 133 129 128 120 124 123 121 125 122 125 119 123 122 121 121 130 133 131 132 131 130 130 129 133 129 128 132 132 128 113 119 139 144 146 145 144 140 137 137 129 130 125 127 112 108 99 91 99 86 86 83 86 90 91 98 109 125 137 142 131 123 120 118 114 114 115 145 170 162 148 128 136 130 130 126 126 121 128 132 119 108 126 140 138 156 157 145 127 135 115 123 147 144 132 126 122 120 124 121 123 124 123 123 124 124 122 120 132 133 133 133 132 134 131 132 131 131 130 130 130 126 114 113 141 157 163 154 148 142 135 131 129 123 116 113 106 88 100 89 90 81 91 90 95 89 94 106 116 128 140 131 119 115 120 127 126 128 157 170 160 142 133 132 135 127 131 129 120 118 115 120 120 118 138 130 129 133 160 147 132 131 115 121 149 141 130 126 125 119 125 123 122 124 119 122 122 124 120 121 131 132 133 131 130 134 134 131 139 128 122 131 129 138 123 137 151 158 162 152 144 136 129 124 117 121 117 95 88 88 96 91 91 80 91 96 101 101 106 115 120 124 134 134 133 121 122 143 135 145 159 155 146 132 130 132 128 123 119 125 129 118 117 111 106 119 136 126 119 132 151 133 124 125 108 134 145 118 125 126 123 120 125 125 122 121 123 122 124 123 123 120 133 132 130 130 133 130 136 138 145 136 128 138 135 142 157 162 165 158 151 143 135 132 127 113 108 108 110 97 89 97 92 88 83 83 90 88 91 101 108 112 109 116 123 127 135 152 150 147 136 150 150 145 128 125 127 130 125 118 104 132 133 114 120 104 106 119 134 123 119 133 133 124 122 115 115 131 126 117 110 121 128 118 124 120 123 121 121 124 121 123 123 123 133 132 137 131 136 142 134 133 135 131 133 131 139 153 154 159 157 151 145 144 137 135 125 117 111 105 101 97 99 95 98 97 87 92 95 95 115 124 126 134 136 129 123 125 131 135 131 132 130 128 123 123 122 131 130 126 125 121 114 144 127 116 111 120 107 123 133 131 123 133 118 117 123 106 110 116 107 109 109 111 119 121 122 125 121 123 122 123 122 121 124 122 133 131 138 135 131 136 140 131 143 144 148 142 151 158 164 159 156 142 134 133 128 125 118 111 111 113 107 108 101 103 98 101 96 101 113 113 116 107 110 112 104 101 119 123 123 115 121 130 131 136 140 137 130 133 129 123 124 126 136 146 124 116 114 117 117 135 141 123 131 129 117 115 119 112 118 108 104 100 99 102 114 116 121 124 120 122 118 124 120 121 123 120 132 134 134 129 135 140 131 119 129 142 149 144 154 162 160 162 153 145 133 127 126 129 117 100 96 99 107 113 106 100 91 106 104 109 113 111 102 99 103 105 114 126 124 121 122 129 134 142 134 136 137 136 125 127 131 129 128 131 141 134 116 115 112 114 124 128 133 136 132 132 125 130 129 123 117 107 101 109 103 98 97 109 117 119 124 123 122 122 122 121 120 120 130 134 131 135 136 144 137 118 125 130 137 148 157 160 161 160 153 137 132 124 123 125 123 111 104 102 98 110 106 94 87 106 110 102 107 108 96 95 104 115 123 130 141 139 140 147 145 142 135 131 126 127 126 127 134 131 134 130 133 123 125 121 121 126 134 135 137 135 130 127 123 122 118 117 119 111 106 111 103 95 97 94 105 116 124 119 124 125 122 124 117 121 130 130 131 143 136 138 139 130 125 135 135 138 150 153 156 157 158 146 137 130 119 114 114 106 107 107 109 106 107 99 90 101 108 109 107 102 108 109 111 117 122 130 145 158 159 161 159 149 136 130 129 125 125 128 126 130 125 122 119 125 129 129 124 126 138 130 123 130 120 117 121 126 128 132 125 121 121 111 107 97 94 103 114 118 117 115 124 121 118 123 121 120 133 131 134 140 136 135 129 125 132 136 139 136 148 145 147 146 150 146 134 130 125 114 108 103 103 100 105 106 104 98 94 104 110 111 106 105 107 104 103 109 126 134 143 156 157 153 151 148 147 140 135 129 124 124 123 123 121 112 106 120 126 131 121 118 118 118 121 122 120 115 127 137 138 145 135 120 116 107 104 97 93 88 102 125 121 119 122 120 123 120 123 119 131 131 128 137 130 134 135 124 134 131 130 140 145 136 138 138 142 143 138 132 129 118 115 106 106 105 112 111 110 104 108 115 112 118 117 116 115 110 113 124 134 143 130 127 126 130 133 136 141 141 141 136 130 132 126 123 122 119 112 110 112 116 116 121 130 120 122 115 123 122 130 130 126 129 129 113 108 104 101 83 93 86 86 105 124 118 118 121 120 119 120 121 131 135 137 135 135 137 123 126 127 120 131 136 139 138 130 134 131 138 145 133 127 123 124 117 119 123 120 116 115 120 116 116 121 128 129 119 116 117 119 120 129 133 129 129 129 121 127 126 126 136 134 138 130 120 123 123 122 118 111 103 109 95 86 83 93 95 95 104 108 107 120 122 118 120 116 113 109 106 100 83 75 84 74 81 123 113 121 120 114 121 118 117 133 132 132 129 137 139 122 125 132 125 128 132 134 136 137 143 137 144 140 141 151 153 137 133 141 132 134 131 126 127 121 120 124 131 129 125 120 120 125 131 130 134 132 130 124 125 125 126 124 128 132 139 137 130 125 132 124 124 119 114 116 108 92 81 80 72 87 86 89 104 116 130 130 121 113 105 100 96 98 80 78 63 66 79 108 106 119 116 118 117 119 116 131 132 124 128 134 125 117 124 133 128 128 131 136 135 142 149 150 146 146 156 160 157 139 146 150 147 140 139 142 128 128 130 137 135 138 141 129 125 130 129 129 126 136 134 137 137 129 129 129 129 133 138 139 135 132 134 132 130 130 120 123 118 108 93 84 80 82 80 92 105 122 131 134 133 125 117 103 95 82 83 79 61 55 79 97 99 115 117 118 120 116 121 132 131 126 129 122 98 111 116 126 138 136 139 136 138 143 136 142 146 155 168 161 154 152 163 165 151 146 143 152 138 132 141 145 147 152 156 146 138 132 136 135 133 134 140 136 151 142 135 138 133 133 140 143 137 137 134 131 134 132 128 129 121 117 110 96 81 78 67 72 96 109 125 129 128 118 109 108 99 83 90 76 73 66 80 73 91 113 117 115 115 117 117 131 132 130 133 119 102 109 118 127 129 137 143 142 147 147 141 137 140 149 154 153 150 171 172 160 160 154 153 158 152 146 150 148 159 162 159 157 148 145 146 147 145 140 139 136 141 147 143 137 136 139 135 137 135 138 142 134 138 132 133 130 129 125 119 114 99 80 86 81 80 95 102 107 107 99 98 95 87 91 86 76 71 73 62 59 86 110 118 114 115 117 115 132 130 136 130 110 90 92 101 114 130 148 146 151 155 153 152 151 148 153 153 150 161 166 164 164 162 160 161 166 165 162 158 160 164 169 172 169 159 155 155 159 151 152 142 144 142 147 146 148 137 143 138 137 139 136 143 137 141 140 133 133 128 127 127 121 113 102 88 106 103 101 106 115 110 108 97 92 75 78 89 74 71 70 65 54 77 112 116 115 115 116 114 130 129 132 133 104 95 91 102 123 152 160 153 156 158 159 165 156 152 151 152 159 162 168 166 167 166 167 172 175 177 172 168 174 176 178 179 178 174 167 166 164 159 158 152 151 148 144 145 147 144 143 148 146 145 135 136 136 141 142 140 128 131 134 133 123 119 110 101 106 114 123 109 106 108 99 88 82 78 71 78 74 60 65 72 56 70 102 117 113 116 117 113 129 132 133 133 115 108 100 113 153 171 165 161 163 169 168 172 156 145 141 156 167 170 169 168 176 176 174 178 186 188 185 182 182 185 186 186 184 182 180 173 175 170 168 161 163 156 152 146 143 145 147 148 153 145 143 138 140 141 148 145 140 127 136 136 131 127 117 113 103 99 106 107 93 92 88 84 75 77 70 75 71 58 62 61 66 60 95 113 115 112 117 114 129 133 127 132 119 112 109 141 169 172 168 172 172 173 176 174 169 157 152 165 174 173 177 181 184 185 187 190 195 194 193 190 189 191 193 190 192 186 189 184 182 176 177 173 172 170 172 161 158 153 156 153 153 152 149 149 147 144 149 150 143 135 136 127 128 130 127 125 118 113 95 85 84 77 76 70 61 66 73 69 68 62 60 68 58 60 80 110 111 114 110 113 131 132 132 123 123 111 130 169 173 176 178 179 180 182 180 181 186 174 166 176 181 181 183 184 189 192 195 197 200 198 198 199 197 196 196 196 195 191 192 190 188 187 186 184 179 176 174 171 167 162 162 156 155 157 151 155 149 150 150 151 144 138 133 132 128 132 130 130 127 123 105 84 90 81 86 82 61 63 76 63 63 67 59 60 70 53 69 112 111 113 112 113 130 128 132 122 115 115 160 175 171 176 179 181 180 187 188 187 188 183 174 180 182 183 184 192 194 201 205 204 203 204 205 203 201 199 201 198 201 196 193 192 193 192 190 189 184 183 180 182 177 173 170 168 162 159 153 149 149 155 154 153 149 140 132 137 128 131 134 134 129 126 115 101 85 100 99 107 82 70 67 77 67 67 67 64 70 61 55 100 115 111 111 114 130 128 132 127 110 141 169 178 170 179 181 182 185 187 190 190 188 188 183 184 184 188 195 199 203 203 206 207 204 207 207 206 207 204 203 204 201 199 198 195 196 195 191 191 186 182 180 183 182 175 175 171 169 164 157 151 152 153 152 159 148 144 136 132 133 133 135 134 136 131 123 115 93 100 101 107 102 83 70 60 74 70 68 74 64 71 56 82 115 110 111 114 131 130 131 120 124 162 173 175 178 181 182 184 185 191 188 190 193 195 194 193 192 192 200 202 204 205 206 204 204 206 206 206 206 206 202 203 202 202 202 197 197 197 192 190 189 184 184 184 184 178 173 172 170 168 163 152 151 155 151 157 153 147 139 135 134 133 136 134 134 136 128 124 108 103 109 98 106 97 73 65 59 69 68 73 73 60 61 76 107 115 110 114 132 128 132 117 140 175 175 176 180 182 185 187 188 193 186 190 193 195 197 195 192 192 201 199 203 203 203 204 203 204 203 202 205 204 203 203 205 202 201 197 195 196 192 192 187 186 187 185 185 181 176 174 175 172 165 158 154 158 151 155 154 146 140 136 132 131 137 132 137 135 130 130 119 108 114 93 103 104 75 70 59 64 69 69 72 63 56 78 107 111 108 113 129 129 130 117 163 173 174 175 179 181 186 190 189 193 186 190 191 195 196 195 195 199 199 201 200 203 202 200 200 200 201 201 200 202 202 202 202 201 198 195 196 192 192 192 189 189 188 187 186 185 179 173 179 175 171 169 164 162 156 151 151 146 140 140 130 133 133 135 137 133 126 133 129 116 115 91 96 99 86 72 67 56 70 66 67 63 53 78 108 109 113 110 126 130 115 145 168 175 176 177 182 181 185 189 191 192 188 192 193 195 192 197 195 199 201 199 201 203 203 201 200 201 200 200 201 198 199 201 198 196 195 195 195 194 192 190 187 185 185 186 185 185 179 175 176 172 172 171 169 166 162 154 150 146 138 139 134 132 134 136 137 130 127 127 133 120 113 104 88 96 88 74 74 61 59 69 63 63 52 66 108 108 109 107 127 128 118 151 175 174 172 179 183 180 184 189 193 191 190 190 193 193 193 196 196 198 199 199 201 201 202 201 196 199 199 199 198 196 197 197 195 195 193 192 191 193 189 188 186 184 181 180 182 179 175 175 177 176 175 172 171 164 161 153 150 145 133 140 131 134 135 134 133 135 131 128 128 118 114 106 84 95 87 83 80 63 60 71 65 61 60 60 98 110 108 110 131 124 125 163 171 173 175 178 182 184 184 185 191 190 187 189 191 193 191 193 194 195 196 198 200 199 199 195 196 195 197 198 196 193 196 194 195 192 193 189 190 190 187 187 184 184 181 177 179 175 175 173 177 173 177 174 170 164 161 153 149 143 140 136 133 132 136 127 133 132 134 129 126 114 110 107 79 86 95 91 89 65 56 70 57 60 65 55 91 110 105 109 130 122 133 163 170 173 174 179 182 181 184 182 186 188 185 187 188 187 192 193 190 192 193 195 196 198 198 194 192 193 194 196 194 194 194 193 189 192 189 187 185 187 183 186 184 183 178 176 176 179 173 173 173 174 173 173 170 163 154 147 146 139 137 136 131 132 135 129 134 131 127 131 123 113 106 99 84 75 85 83 86 76 52 66 58 57 64 48 83 108 108 105 128 124 140 164 168 173 170 177 181 181 181 180 183 183 183 183 184 184 187 190 177 178 186 194 196 199 195 194 196 192 193 192 194 192 191 192 186 190 186 183 184 182 178 180 180 176 178 177 177 180 178 174 169 173 169 169 165 160 152 141 141 138 133 131 130 130 132 128 135 133 129 125 124 117 105 100 85 71 72 69 70 81 61 54 70 50 70 55 78 106 106 104 131 118 140 166 170 169 169 174 175 176 177 177 178 179 180 181 181 185 184 185 165 166 183 191 195 195 196 194 194 191 189 191 190 190 189 188 185 186 185 181 180 182 177 178 177 176 177 176 172 178 178 173 168 171 171 162 159 155 148 142 139 137 133 131 127 133 127 125 130 129 124 124 116 116 106 104 85 76 62 62 55 70 66 54 73 54 64 62 75 107 99 107 127 119 142 164 171 170 168 171 173 176 181 177 181 178 179 180 184 183 185 185 172 173 187 192 193 196 195 195 192 191 191 189 191 188 187 184 186 185 184 180 177 182 176 176 179 176 173 175 174 172 178 172 168 172 171 162 157 154 149 139 136 134 127 129 129 131 128 129 125 125 122 118 117 112 108 103 92 71 62 56 46 58 68 53 63 64 59 63 75 103 102 104 126 116 135 171 170 169 167 171 173 179 177 183 182 180 180 181 183 182 182 182 183 180 187 190 189 194 191 192 191 190 190 189 188 185 188 186 185 187 184 181 180 180 177 179 177 178 175 175 175 174 177 172 168 171 171 160 158 153 147 137 130 130 126 127 128 127 128 124 123 121 121 119 118 117 109 101 101 79 54 53 47 52 62 54 51 62 58 61 79 101 100 103 127 121 137 163 173 170 168 174 176 179 180 184 183 184 183 182 179 181 181 185 184 186 189 190 192 192 192 192 193 191 192 192 189 190 190 190 191 191 188 186 188 181 180 178 176 177 174 171 175 176 178 175 173 171 168 163 156 151 142 136 131 129 127 126 128 127 127 126 119 121 115 119 118 114 115 99 104 93 56 54 52 43 55 51 47 51 63 59 82 105 102 102 127 119 131 160 169 169 169 173 177 180 181 187 187 188 186 185 184 182 183 184 186 188 192 190 195 191 192 194 194 194 194 195 193 192 193 194 193 194 191 190 190 187 184 183 179 176 177 174 176 179 176 176 172 173 166 163 154 147 141 134 131 124 126 125 127 124 126 123 119 115 114 117 117 110 115 106 101 97 70 59 57 43 52 43 48 48 62 51 83 104 105 101 126 123 125 157 168 168 166 176 176 181 185 189 190 191 188 186 188 186 187 189 188 188 190 193 193 196 192 193 195 197 197 198 197 194 196 197 196 194 193 192 191 188 183 183 183 180 180 180 179 178 177 174 170 169 167 157 152 145 136 131 127 128 121 124 128 124 121 123 118 112 114 116 116 111 107 113 102 99 77 67 61 52 45 48 39 51 57 53 81 105 101 101 124 127 119 152 165 170 171 175 180 183 186 191 190 194 189 187 191 188 188 190 189 187 192 193 195 195 196 194 195 199 198 198 199 199 196 197 198 198 193 191 190 184 185 180 176 176 178 181 178 178 174 176 170 166 162 152 145 136 133 129 125 123 125 125 125 123 126 113 114 114 113 116 115 109 108 105 107 93 74 81 71 57 46 50 44 49 58 54 87 103 99 98 128 123 114 149 163 167 167 172 180 182 185 190 190 196 191 192 192 191 193 192 188 190 192 194 197 194 195 193 196 198 201 201 200 201 199 198 198 198 195 191 190 183 183 180 176 178 180 181 178 177 171 173 170 161 157 146 140 136 133 123 124 121 123 121 120 121 117 112 108 112 112 113 116 110 107 104 104 94 68 75 81 56 54 48 49 48 57 57 84 103 98 99 127 127 117 137 163 168 166 170 180 180 182 189 187 195 192 191 192 194 194 194 192 190 190 193 192 196 191 194 195 198 198 199 199 200 200 202 198 195 193 191 188 183 183 180 178 180 180 179 176 174 172 169 167 152 150 147 135 132 128 121 123 122 120 122 120 120 116 114 111 115 109 113 113 111 108 103 102 90 74 68 75 63 53 57 57 46 53 62 83 104 99 97 131 124 110 142 159 169 168 170 181 182 182 186 188 192 190 190 190 193 195 195 191 189 191 192 191 191 192 194 194 194 198 197 195 196 198 196 197 193 189 188 185 183 183 179 178 179 180 177 175 176 172 166 162 155 145 145 133 131 122 121 123 117 119 117 119 116 116 112 110 113 111 111 117 113 107 105 100 86 70 71 66 58 60 53 69 57 40 56 90 100 99 99 126 126 115 137 168 169 168 170 178 180 183 186 190 188 190 188 190 187 191 191 191 189 189 188 190 191 189 190 191 191 194 194 193 191 192 195 192 190 189 184 181 182 181 180 183 181 180 175 176 173 173 163 160 154 146 142 134 127 123 118 119 117 118 119 120 118 113 112 111 114 114 112 112 117 104 101 98 84 58 67 71 55 59 56 60 61 40 51 93 101 97 101 125 124 109 146 166 173 170 167 172 180 180 185 188 187 187 189 187 185 186 189 186 188 185 187 185 187 187 186 188 188 187 188 189 186 186 188 189 183 183 179 179 176 173 175 179 170 174 172 173 170 167 164 158 159 149 144 133 126 124 117 115 118 121 120 117 114 113 111 112 113 114 115 111 114 105 96 97 79 61 60 63 56 58 59 53 58 47 47 91 99 97 98 124 125 113 145 166 165 157 154 163 163 165 174 175 172 179 180 181 178 179 183 182 182 180 182 182 180 184 176 184 181 178 174 173 178 177 173 175 168 163 161 159 157 158 161 165 159 162 163 168 164 167 165 160 161 158 149 135 127 125 119 119 114 121 117 118 113 116 113 113 115 114 113 112 113 107 98 90 77 58 63 55 58 69 54 53 50 50 45 91 100 98 100 127 119 130 150 155 148 144 139 135 129 136 139 141 143 146 158 162 167 168 172 175 177 177 179 179 180 177 173 172 171 168 159 155 150 148 144 140 144 134 132 132 130 135 140 134 136 142 154 156 155 156 156 159 159 157 155 143 129 126 119 120 119 120 123 116 117 113 116 114 117 117 110 113 110 111 102 88 73 61 61 59 58 58 52 47 48 42 56 90 100 98 97 124 120 127 149 144 133 131 121 118 132 130 128 121 124 126 136 143 152 154 161 168 169 166 175 173 168 169 167 162 160 156 151 144 136 125 125 125 121 113 110 108 108 111 117 111 113 121 136 139 135 140 143 146 145 145 147 145 134 120 118 116 119 122 123 119 119 116 118 117 113 117 113 109 105 108 98 84 71 71 60 61 59 53 50 47 49 36 59 94 98 94 99 125 124 132 131 131 118 106 104 107 115 114 119 113 119 115 120 129 140 146 151 155 156 159 165 161 155 160 159 157 149 145 140 136 127 117 118 114 106 100 96 90 86 90 91 94 103 112 126 129 124 123 130 131 135 134 139 137 133 119 119 119 117 121 125 117 123 119 119 119 115 116 112 112 108 103 97 84 74 69 65 64 59 50 43 49 49 38 59 95 95 98 98 127 119 118 118 114 113 102 87 82 91 97 101 109 109 112 108 115 122 133 138 142 148 151 151 151 147 148 150 143 136 134 128 123 122 112 112 103 105 100 95 93 90 97 97 101 107 108 116 122 122 119 122 125 122 126 126 128 124 118 117 120 118 123 126 122 125 122 122 120 116 115 111 111 111 99 89 83 68 65 66 65 56 48 45 44 42 46 64 94 98 94 96 123 127 117 118 113 115 111 97 97 96 101 100 104 102 100 104 106 109 121 127 133 140 146 146 149 146 140 145 137 131 125 117 113 109 109 107 106 103 105 102 97 99 103 104 109 108 114 118 118 123 118 124 121 122 118 122 122 117 116 113 117 118 126 128 126 122 124 123 118 113 114 113 110 104 93 76 76 70 61 69 69 58 51 51 80 97 109 109 105 92 93 93 124 123 123 118 117 116 116 110 102 95 91 84 75 76 68 74 84 92 103 113 122 133 143 148 154 152 145 139 131 122 119 111 103 102 102 103 99 100 97 88 80 79 79 84 90 93 95 100 106 114 113 122 121 118 117 119 114 116 112 116 116 126 127 131 126 127 123 122 116 114 110 115 108 97 93 70 60 67 69 73 67 66 63 98 125 131 122 121 126 118 94 95 126 123 122 119 113 119 110 100 87 83 86 83 69 71 57 69 65 65 75 92 109 127 149 162 170 169 157 147 130 118 113 101 100 94 96 102 93 94 91 81 84 80 82 83 79 86 87 91 93 92 95 102 115 115 117 118 116 119 116 119 122 123 130 126 128 128 123 121 118 115 117 113 104 90 87 74 58 61 69 70 66 66 95 119 120 106 79 86 100 118 115 90 125 121 124 124 118 111 92 89 78 74 74 74 53 73 52 44 53 66 80 77 90 130 165 181 187 185 171 157 137 117 105 99 95 91 98 97 97 94 97 93 82 81 91 76 67 65 56 64 70 83 90 86 85 101 114 117 120 117 121 124 121 125 129 126 130 130 125 123 114 117 117 117 104 79 79 86 68 57 73 68 73 98 110 110 101 83 67 65 64 85 117 101 124 125 119 129 122 108 94 90 63 83 115 88 68 69 66 39 52 63 79 83 87 130 172 187 192 189 180 168 151 127 109 101 98 96 104 102 103 101 97 84 94 112 130 96 74 68 56 53 54 64 76 82 83 89 98 112 122 124 124 126 126 125 132 124 131 127 124 122 119 117 122 116 105 79 72 86 69 51 67 73 88 107 101 102 104 98 76 71 81 66 117 111 124 126 123 126 128 110 91 75 56 96 132 109 85 63 63 58 57 70 86 72 93 144 178 192 196 191 181 171 155 140 118 109 104 102 108 113 104 91 81 84 109 133 146 113 78 66 58 56 60 73 84 66 68 79 88 104 117 122 126 131 132 132 131 126 131 128 127 125 120 122 121 116 98 84 62 74 67 59 71 86 102 97 94 106 113 109 94 77 78 72 121 115 125 124 120 127 129 116 94 83 84 93 121 123 87 78 66 74 74 80 90 81 115 160 182 194 196 192 186 178 160 144 130 124 110 112 114 113 117 107 100 92 109 117 137 120 89 83 73 72 82 91 98 87 80 82 84 95 108 113 126 128 133 137 132 131 130 122 124 124 124 123 121 118 97 86 75 59 68 73 87 100 107 94 83 107 123 118 104 88 74 73 108 135 123 124 121 124 148 133 114 115 112 115 114 125 119 118 121 114 110 103 99 108 132 174 186 195 198 194 186 178 162 147 142 138 137 133 128 117 113 116 112 115 119 124 127 129 122 132 124 115 115 119 116 118 118 116 111 115 119 125 134 140 144 149 137 137 127 124 121 127 123 123 120 116 105 90 83 74 78 87 96 107 109 103 101 112 122 120 106 91 78 82 110 138 121 123 117 124 155 160 145 136 135 143 137 134 133 124 118 118 108 107 107 134 151 176 187 196 200 194 185 175 155 151 142 148 154 156 150 136 123 117 117 118 123 128 129 129 129 133 134 137 141 140 138 134 134 130 132 136 139 146 145 150 150 151 145 136 127 125 126 127 120 116 119 114 105 97 88 86 92 92 100 110 80 121 130 121 122 127 112 90 77 96 125 142 119 125 119 113 165 175 160 146 143 143 141 136 133 119 115 114 118 122 138 148 155 172 187 199 198 195 183 173 153 152 142 149 156 161 160 154 144 137 134 131 126 128 127 131 131 133 134 139 141 138 135 137 136 143 147 155 162 162 161 157 155 152 148 141 126 122 127 122 119 113 113 109 104 97 89 94 106 93 107 100 48 88 123 116 125 133 125 90 86 102 148 127 122 121 114 125 173 178 163 140 132 131 120 122 121 121 129 140 146 151 158 155 155 172 187 196 195 187 179 165 152 151 149 151 156 162 160 158 148 151 153 151 146 142 133 124 125 122 120 121 124 123 126 125 130 134 141 147 159 168 166 165 162 157 148 146 127 125 125 118 119 115 109 107 105 102 92 104 115 93 108 85 68 64 98 112 120 141 134 94 93 125 159 101 121 124 105 142 174 176 168 159 149 141 140 143 149 152 158 162 165 159 159 158 157 174 187 195 192 184 174 160 151 148 154 154 152 157 157 155 149 153 154 159 160 165 159 153 145 138 138 128 132 133 133 142 152 163 163 165 161 160 161 161 163 158 155 147 135 126 118 114 115 112 107 106 105 99 98 106 124 95 106 83 91 85 90 105 113 141 145 98 104 144 136 84 122 123 110 150 179 180 186 179 176 168 166 159 162 171 171 171 165 160 157 156 157 170 189 195 190 175 166 159 150 148 147 151 155 151 155 153 152 153 157 162 167 174 176 175 170 164 158 157 156 156 156 167 171 175 175 173 171 168 162 161 163 156 153 150 136 124 119 111 110 109 107 101 106 100 100 114 135 111 100 99 99 107 98 102 107 136 143 101 124 152 106 70 126 116 113 163 176 186 186 185 184 181 176 171 175 178 178 171 164 159 159 156 162 175 199 201 191 174 161 154 151 149 145 151 154 151 151 154 151 155 160 166 172 177 183 185 183 181 173 171 175 170 176 180 180 182 180 180 173 167 166 166 162 155 150 138 136 122 119 113 113 104 108 100 104 102 101 122 136 134 95 121 109 115 112 103 102 136 136 111 146 139 78 74 122 116 123 158 174 179 178 181 177 177 176 179 179 177 177 173 166 161 158 158 161 180 201 206 192 175 162 156 152 148 142 145 146 151 150 156 153 163 165 172 176 183 181 188 188 184 187 182 181 178 179 180 180 179 179 174 177 174 171 167 164 159 148 141 127 120 116 111 109 105 102 104 102 99 102 120 133 141 92 126 129 128 119 105 104 138 136 124 149 111 69 68 123 115 119 166 173 178 175 178 176 178 176 183 180 180 178 175 168 162 157 157 164 179 204 201 190 175 167 164 157 148 142 141 140 136 145 148 156 163 165 171 182 182 184 187 189 186 185 185 181 182 177 178 177 177 176 173 174 171 168 169 160 154 147 137 122 119 115 108 105 106 100 104 101 100 102 120 129 134 86 99 134 134 122 103 114 143 130 137 140 87 63 72 125 116 123 155 172 177 171 178 180 179 179 179 180 176 179 174 169 155 152 157 167 182 196 193 182 174 173 165 161 153 144 148 147 143 140 141 149 156 164 169 180 179 180 184 188 187 186 185 183 179 179 180 176 176 177 176 175 170 170 164 163 152 139 129 119 115 114 110 103 105 99 104 99 98 104 121 128 118 80 89 115 130 119 105 127 143 135 143 114 69 68 72 122 112 118 159 168 176 171 175 183 182 180 177 181 175 172 170 160 152 155 157 165 178 189 187 177 175 173 172 157 148 145 150 153 153 150 145 138 141 145 161 171 174 179 180 183 185 186 183 178 178 178 178 177 174 177 177 173 168 167 161 157 150 136 123 116 112 112 110 102 103 101 102 98 100 106 125 125 90 87 105 113 119 118 128 134 135 146 131 90 63 71 70 123 115 115 160 167 174 168 173 174 175 176 172 172 172 167 151 147 152 151 160 164 171 181 181 176 173 171 175 158 150 143 149 154 151 147 144 138 128 127 140 154 164 168 174 177 179 180 177 176 173 174 177 174 173 174 174 167 163 161 154 151 143 130 119 113 108 112 103 102 103 103 100 94 102 107 126 107 77 103 131 132 128 128 137 136 143 138 109 70 65 69 69 121 118 115 155 168 171 169 174 170 171 170 169 166 158 147 132 142 149 152 159 167 171 174 177 177 168 165 161 145 139 138 142 147 144 142 138 131 116 116 126 136 147 158 164 168 169 171 172 172 172 170 170 168 167 168 167 159 157 152 151 145 140 120 120 110 108 108 105 103 108 101 99 97 99 108 118 108 106 130 145 138 138 138 140 143 141 118 82 59 69 67 69 126 116 109 160 162 164 167 169 170 170 166 161 157 144 122 121 141 140 139 153 165 167 171 167 172 166 154 142 126 125 126 130 135 131 129 127 121 102 108 130 138 133 140 146 158 161 163 166 167 162 161 164 163 162 159 158 153 150 145 143 141 128 120 118 107 106 106 106 105 107 98 99 96 98 110 113 121 133 143 146 145 140 146 149 141 125 90 63 66 67 68 67 120 120 114 152 161 159 162 159 165 162 160 153 142 124 110 120 136 127 120 137 158 163 162 161 159 151 135 117 108 106 103 106 107 112 114 114 104 98 109 141 148 144 128 132 140 151 156 160 159 157 159 160 161 154 154 150 151 143 144 137 135 129 115 112 110 105 105 102 104 106 99 98 98 99 111 121 123 132 140 148 138 137 145 147 131 92 64 63 66 67 64 69 123 116 108 145 151 152 152 157 155 150 149 137 128 110 117 136 136 117 101 108 130 140 145 147 143 128 111 100 88 74 68 69 72 87 95 98 95 103 119 140 149 149 145 129 124 135 144 150 157 155 150 149 149 147 148 149 143 144 134 134 128 127 116 109 111 104 106 103 106 103 101 98 96 99 110 127 128 127 138 141 134 140 148 147 109 69 60 65 63 68 66 72 116 120 112 130 142 147 144 144 148 144 140 127 118 110 124 143 145 135 100 85 100 114 119 120 115 110 99 84 78 72 78 81 75 83 85 98 103 111 118 135 144 147 149 139 122 121 131 136 148 150 146 143 143 143 142 145 140 135 131 129 126 124 120 110 112 107 108 104 103 104 99 95 100 96 112 132 135 134 133 140 141 140 138 128 90 56 65 64 64 68 63 69 123 117 113 121 130 134 136 136 138 137 131 119 109 109 137 147 152 143 117 92 89 100 101 101 98 96 96 87 87 90 92 97 94 97 100 110 112 114 120 134 145 146 147 141 137 118 117 122 139 143 140 140 136 142 135 138 135 132 129 127 127 121 116 114 113 110 106 107 101 105 99 95 93 95 106 126 134 133 129 133 133 131 117 97 62 60 64 64 65 62 61 71 123 119 120 116 120 126 130 130 127 131 125 112 108 127 143 149 150 146 127 109 104 103 104 102 100 98 96 94 96 101 103 109 111 109 112 112 116 122 124 135 147 149 140 141 139 131 117 118 123 136 134 133 130 132 133 131 131 125 128 127 127 117 118 113 113 108 106 106 105 100 95 97 94 96 102 116 116 119 120 119 115 104 84 65 59 65 63 65 62 63 65 67 119 121 119 113 119 115 119 126 124 127 123 110 116 135 139 145 143 149 135 116 111 114 114 109 101 106 108 106 105 110 111 114 118 113 120 118 122 122 125 131 144 144 143 145 143 140 134 121 119 122 132 129 130 131 128 131 128 123 124 123 126 120 116 114 110 110 107 105 103 99 95 92 92 99 87 88 92 93 93 96 83 71 61 64 63 60 66 64 64 62 65 64 120 119 116 116 116 108 115 118 124 126 120 116 125 137 138 135 145 145 146 129 122 120 122 121 114 116 119 114 113 120 120 122 123 120 126 128 131 131 129 137 142 140 144 143 149 149 141 133 124 120 127 130 131 133 127 128 128 123 124 121 126 120 115 112 109 110 109 100 103 98 94 93 91 95 74 76 70 61 65 65 62 62 62 63 63 62 67 64 63 64 65 66 119 116 122 115 118 111 108 119 126 127 125 115 128 133 132 134 143 148 154 143 139 133 128 129 126 124 119 121 123 129 128 131 129 126 133 137 139 142 141 149 147 139 141 139 135 134 131 129 131 123 124 128 129 130 128 126 121 120 122 121 118 120 113 109 111 106 108 102 97 99 90 90 91 91 70 80 61 62 57 59 59 63 60 65 59 65 61 66 63 61 66 65 116 116 119 117 114 114 114 111 123 134 130 124 129 117 121 131 140 151 155 155 152 143 134 125 129 132 127 125 129 131 128 132 131 133 133 137 142 144 146 147 148 144 136 132 125 114 108 122 125 128 133 132 132 130 124 123 120 119 116 118 115 120 112 112 105 105 107 100 98 95 93 88 92 86 77 80 59 57 64 61 58 64 60 64 60 63 60 63 63 62 63 65 114 115 119 114 118 114 118 114 122 134 136 137 131 118 108 120 136 136 141 144 146 140 131 121 125 123 126 125 122 121 124 121 124 124 124 125 130 124 132 134 139 135 127 124 114 101 98 112 124 139 144 140 137 132 127 121 120 116 111 113 114 118 112 111 108 106 106 97 95 92 93 88 88 84 81 76 56 59 64 57 58 59 63 62 59 61 64 59 65 62 63 63 116 115 115 116 116 110 120 120 119 135 146 148 140 123 100 106 118 113 117 119 121 120 113 109 106 106 107 103 108 107 109 108 107 105 110 110 106 102 103 104 101 103 103 95 90 77 77 96 118 138 145 149 144 139 128 122 117 113 112 116 114 116 113 109 106 104 107 96 93 95 86 89 85 81 88 68 57 60 55 59 60 58 64 58 60 60 61 62 62 63 65 61 118 115 116 115 117 111 119 129 113 130 145 157 156 136 105 97 86 80 80 73 88 93 100 94 94 100 102 95 96 99 104 110 98 82 102 112 102 86 98 104 87 83 74 57 52 39 38 89 117 136 150 159 156 138 127 119 116 111 112 117 116 116 114 108 107 102 102 95 94 91 86 89 84 77 88 65 56 59 59 59 60 59 62 59 60 63 60 66 60 68 59 64 118 115 117 114 117 113 110 128 120 118 145 155 159 147 124 114 86 59 48 19 94 111 127 113 106 137 139 130 110 130 144 144 128 96 123 141 123 102 121 128 90 75 64 41 44 56 79 113 136 146 157 161 155 138 126 120 114 110 113 112 120 113 111 108 101 101 99 94 93 85 85 85 86 81 88 62 57 58 60 60 60 59 63 58 60 64 58 63 63 58 66 62 116 117 117 116 116 115 113 115 133 115 136 152 159 155 140 135 122 102 80 25 86 127 139 125 123 156 164 161 135 151 167 169 151 113 131 151 135 106 122 136 83 44 61 63 86 106 127 143 151 158 160 159 145 133 124 116 113 106 113 116 115 113 109 104 101 95 95 91 86 86 83 84 84 88 89 57 55 60 59 60 58 58 58 63 56 63 62 62 63 61 67 64 117 116 116 113 117 113 116 110 131 125 125 146 162 163 150 145 143 138 116 75 71 119 140 129 131 163 173 172 141 153 168 173 158 109 128 143 123 70 83 113 89 78 99 115 122 137 150 155 154 157 158 152 146 127 117 113 112 112 114 117 112 114 108 103 99 94 93 91 87 83 84 87 82 91 85 57 57 58 61 61 59 60 59 64 60 59 62 60 63 59 66 60 116 115 114 117 113 114 114 108 116 135 116 141 155 163 162 149 149 153 140 121 92 91 92 79 85 129 144 150 111 109 133 138 120 76 75 92 99 92 100 118 120 126 135 139 146 154 157 155 157 158 162 157 139 126 115 112 111 113 115 115 110 108 107 99 96 90 89 91 84 79 89 86 86 90 78 50 59 60 59 55 60 59 58 63 58 61 58 60 61 65 60 59 110 115 114 116 114 113 115 115 107 128 129 123 147 163 166 156 148 159 151 141 131 129 120 113 107 97 110 114 105 99 104 110 113 105 115 124 129 134 137 142 147 148 151 154 159 161 161 158 155 162 165 156 140 127 116 111 113 112 113 112 107 109 104 93 96 89 85 85 82 87 83 93 91 89 69 55 58 61 59 58 58 62 59 58 63 59 61 63 61 64 60 63 114 114 115 113 113 114 114 113 111 114 129 116 132 154 165 160 157 158 155 148 146 147 147 141 136 132 139 142 143 142 136 137 136 134 141 143 147 149 147 149 151 150 156 158 157 157 159 158 153 155 157 151 135 123 117 114 112 114 113 108 108 101 100 91 94 88 80 83 82 89 86 94 86 89 62 56 57 61 57 60 59 58 58 59 59 63 62 60 60 65 63 60 115 114 115 112 112 115 112 111 115 106 120 126 122 143 160 163 162 164 161 157 142 145 149 150 149 147 152 150 154 152 148 149 150 153 155 152 159 149 149 146 149 154 160 158 155 155 154 153 147 141 151 142 131 119 117 114 111 114 110 108 105 96 94 90 87 85 76 85 86 94 89 93 90 88 60 54 58 58 58 58 58 60 60 59 56 59 58 64 60 61 62 65 113 113 112 115 112 113 116 112 111 111 105 127 113 131 152 157 160 163 163 160 148 144 143 148 149 154 154 156 155 159 153 154 153 151 152 149 154 152 144 146 150 155 157 153 152 151 150 147 148 148 148 138 128 118 115 112 107 110 108 104 98 96 91 91 86 78 80 84 93 92 93 94 89 80 58 56 58 57 58 58 59 61 56 61 57 60 60 64 59 60 60 63 113 114 113 112 113 111 114 110 111 113 107 113 117 116 149 158 157 164 161 165 153 145 142 142 143 147 146 148 146 146 141 146 146 149 153 153 154 151 150 144 149 151 154 154 147 145 144 142 146 147 145 135 120 117 110 112 109 110 107 100 93 95 88 86 80 78 80 92 94 93 96 96 86 77 57 54 58 57 57 58 60 55 59 62 56 62 60 62 56 65 58 59 114 114 112 115 112 112 114 112 111 114 111 110 107 117 130 154 162 160 161 162 157 148 145 144 143 149 143 143 143 140 142 142 146 156 155 153 153 149 152 146 150 151 152 150 141 144 147 149 148 151 143 129 121 109 110 110 110 107 102 97 91 90 85 83 75 79 90 96 98 91 94 93 90 72 58 56 59 58 58 60 55 57 58 60 60 59 60 61 57 64 58 62 112 111 111 110 111 107 114 111 109 110 111 111 107 109 120 145 158 162 159 161 159 152 146 147 146 149 149 149 148 143 151 150 148 151 151 152 149 150 149 146 144 149 148 143 140 145 151 151 153 146 137 126 113 112 109 107 109 101 96 98 87 86 81 74 79 83 96 103 98 97 92 90 89 71 56 52 56 57 58 57 57 57 60 57 60 55 60 58 61 57 61 60 113 110 113 112 111 111 112 109 109 108 112 108 109 104 107 136 153 162 162 155 158 154 145 147 147 155 150 151 147 144 143 148 149 151 153 151 150 150 148 146 147 150 143 142 143 150 153 154 152 146 129 121 111 109 109 107 102 99 96 89 85 79 77 76 87 93 96 102 98 99 89 90 82 69 51 52 58 55 58 58 58 56 58 60 53 61 57 57 65 57 60 62 112 111 111 112 109 110 115 109 112 110 111 109 109 106 103 121 146 161 162 155 154 152 148 146 150 155 155 157 157 158 159 160 159 162 157 158 158 153 149 150 153 150 146 150 151 156 153 154 151 143 125 115 111 104 107 105 98 92 90 82 83 74 76 84 92 93 97 104 101 96 91 84 85 64 55 55 58 57 56 57 57 55 59 57 57 58 56 61 55 61 54 60 111 111 112 112 110 109 114 110 109 109 110 110 108 109 103 103 138 159 162 158 161 156 147 145 149 157 163 165 167 170 178 175 175 173 168 166 164 158 157 153 157 154 152 158 154 153 155 158 143 132 117 109 104 103 106 100 92 86 85 81 75 77 85 87 91 99 102 98 97 97 88 82 89 60 54 58 54 58 57 57 54 60 57 54 57 58 55 57 57 60 58 57 110 111 109 110 108 112 110 110 107 106 108 108 109 109 101 108 123 154 161 161 167 164 154 151 152 158 159 161 162 172 180 180 177 170 165 164 159 158 159 164 164 163 162 161 155 161 161 153 136 123 111 102 102 102 97 91 84 82 77 77 75 83 85 93 93 97 106 102 95 93 89 84 86 58 49 58 54 56 55 57 55 57 56 57 57 57 58 56 61 56 57 62 110 108 110 109 108 109 113 108 107 109 107 106 108 105 100 115 122 141 157 157 165 167 161 157 154 154 155 160 164 171 182 182 178 169 163 158 156 160 166 166 168 168 164 157 156 157 153 141 125 114 104 98 96 97 86 80 78 75 78 82 80 82 87 93 96 100 103 96 87 92 84 88 85 55 53 54 57 54 55 57 57 53 58 58 55 57 55 62 55 59 57 59 111 108 107 109 109 105 107 107 106 109 106 105 106 106 98 119 135 128 151 157 162 169 166 159 149 150 154 157 162 169 176 181 174 169 161 158 159 161 168 168 171 166 162 157 150 149 141 129 115 102 94 97 90 85 79 76 69 78 82 82 82 84 93 87 95 98 103 97 88 86 83 89 81 54 56 52 55 55 56 56 56 54 56 51 58 56 55 60 55 56 59 54 108 107 107 106 107 108 107 103 106 107 107 106 105 103 100 123 132 133 141 155 161 163 164 157 151 151 157 163 165 168 170 177 175 169 167 165 160 157 160 166 165 161 156 145 142 138 129 118 105 95 89 87 85 79 75 79 76 82 83 83 81 93 92 90 89 103 99 101 93 83 81 91 81 54 53 56 53 55 55 55 54 55 54 57 53 58 54 56 56 58 56 58 107 110 100 111 104 106 107 107 105 105 108 100 109 107 90 125 144 132 127 146 153 159 155 153 149 155 160 159 163 159 162 169 167 163 162 161 155 152 153 157 155 152 144 137 132 123 118 102 95 91 84 79 76 79 77 78 83 81 89 76 89 98 92 96 89 99 97 102 94 87 84 89 77 53 54 55 54 57 53 52 53 57 54 56 53 56 51 57 54 58 57 57 106 108 104 108 107 106 107 104 106 105 107 106 104 104 96 132 147 138 124 126 145 149 153 148 149 148 155 152 151 151 151 152 160 157 154 151 149 148 147 146 143 141 129 126 118 117 106 97 86 84 74 81 79 82 79 85 82 84 86 87 90 97 96 99 87 93 99 97 94 88 86 87 73 50 54 55 55 54 54 53 53 52 54 55 56 55 54 58 53 58 56 57 105 107 104 107 105 105 104 106 103 106 106 104 105 104 108 141 147 138 126 119 134 140 148 145 141 144 146 146 141 139 139 135 142 144 141 137 140 137 139 130 127 121 115 110 108 103 91 84 77 78 78 82 85 81 83 83 84 82 89 96 95 98 99 99 89 95 97 93 92 88 83 88 71 46 53 52 54 53 53 54 53 55 51 51 59 53 53 57 57 56 52 60 102 107 104 106 104 107 104 107 102 104 103 104 112 118 108 144 148 138 138 127 115 129 134 137 135 132 137 133 130 132 128 126 134 132 128 125 119 120 117 119 114 108 106 100 93 88 76 76 82 80 82 83 81 85 86 86 85 86 87 94 99 105 103 99 100 98 95 97 87 91 80 91 67 45 51 55 50 53 55 55 53 53 51 55 52 56 52 57 52 56 55 57 105 108 107 105 104 106 103 105 104 105 94 129 122 78 60 144 146 142 140 135 119 110 120 122 123 123 121 121 119 119 117 114 116 116 115 111 108 107 107 104 102 98 94 85 79 73 74 81 80 81 83 83 88 84 88 86 88 91 92 98 99 101 103 102 97 97 99 89 93 87 85 91 63 49 50 55 50 52 51 53 54 54 53 50 54 52 54 55 56 54 57 55 103 103 104 104 106 104 102 105 102 105 99 150 94 15 79 150 150 140 145 134 130 111 106 110 112 110 107 108 108 109 107 102 99 104 103 97 97 94 95 94 91 90 77 76 72 78 78 84 78 81 86 85 89 84 86 92 86 93 97 97 95 100 103 103 96 96 97 90 92 85 84 87 68 49 52 53 52 50 53 50 50 52 55 46 55 50 56 55 53 54 54 57 103 107 101 106 103 103 105 103 106 116 114 148 84 29 112 150 154 145 144 143 135 126 107 100 103 96 96 98 93 91 92 89 90 91 88 86 81 84 80 80 75 75 74 78 72 83 82 83 79 85 88 92 80 87 89 99 96 96 100 101 101 104 99 100 95 98 99 91 86 85 87 81 70 61 49 51 52 50 48 54 47 53 53 51 54 48 56 54 55 53 55 55 104 104 102 103 106 105 110 114 119 125 115 142 77 63 101 152 153 148 144 145 139 128 122 120 105 95 90 85 84 84 82 77 75 75 79 72 79 75 76 73 77 72 79 79 75 80 83 84 82 87 89 91 82 86 94 99 97 98 99 102 101 104 103 99 100 97 91 97 86 88 92 76 61 64 50 48 53 52 53 50 51 52 52 50 51 50 51 54 54 55 50 57 104 102 107 111 112 124 124 116 118 120 116 143 72 82 99 155 154 147 140 147 141 132 127 125 117 106 104 96 92 89 88 81 79 81 77 76 75 77 76 78 74 79 76 77 83 82 84 86 87 88 88 86 85 87 97 95 98 101 99 100 106 103 103 103 99 98 95 92 89 84 90 65 50 69 51 49 50 52 51 48 50 53 50 54 54 51 51 52 52 57 52 59 111 113 117 126 126 125 116 110 120 122 119 138 67 81 104 154 154 151 142 141 143 140 127 125 120 115 109 107 97 97 96 86 84 81 80 77 74 82 78 77 82 82 79 79 86 84 86 89 93 91 87 86 89 89 94 100 100 103 103 101 105 106 108 107 94 97 98 90 87 86 92 59 38 71 63 57 46 53 52 47 48 55 49 56 47 52 54 55 53 54 53 56 