P2
92
112
255
118 119 122 120 123 122 120 122 120 121 121 123 120 121 121 122 119 123 122 121 120 119 119 120 120 120 117 123 120 123 122 119 108 104 108 101 111 113 137 138 127 130 134 142 117 108 101 96 95 91 83 87 80 89 91 90 91 82 91 100 98 109 116 112 112 115 118 117 112 116 113 116 115 118 117 114 116 117 114 114 113 119 112 116 112 113 114 112 113 111 115 112 119 120 121 119 121 122 121 122 123 119 121 124 120 123 122 119 120 121 120 120 123 121 122 120 120 114 120 125 123 117 115 118 117 125 132 122 123 126 121 121 127 127 121 115 105 99 95 85 83 91 84 80 79 78 76 80 84 84 78 68 92 101 104 104 105 113 113 118 115 113 116 116 116 115 114 116 115 115 115 115 115 116 113 115 113 114 116 111 113 112 115 112 122 120 123 119 122 123 119 122 120 124 120 121 121 123 121 119 119 120 121 119 122 123 118 112 111 113 117 117 114 115 119 125 123 122 124 109 113 119 112 121 120 115 102 101 95 79 76 68 70 74 63 80 70 71 73 68 69 80 85 78 80 76 84 99 94 93 111 117 113 114 112 118 113 117 116 117 113 117 116 115 112 115 114 114 114 113 114 114 111 113 114 114 120 120 123 121 122 120 123 120 120 122 123 120 122 122 119 121 122 121 121 121 121 116 105 100 110 108 110 107 114 109 111 111 107 108 103 107 110 111 111 114 112 112 107 104 91 87 80 74 71 65 64 70 74 65 70 69 62 65 60 76 83 84 66 76 82 86 75 112 111 117 117 114 113 117 116 117 114 114 114 116 114 114 115 115 113 117 109 118 112 115 114 112 121 122 120 118 122 121 121 120 122 115 121 122 123 120 120 121 119 121 120 123 106 96 100 97 97 101 95 100 96 102 100 103 96 99 100 104 97 100 100 107 107 101 101 95 84 82 74 72 71 70 68 57 68 62 56 66 55 66 51 53 72 84 83 71 67 66 76 72 107 113 117 115 116 117 118 115 117 116 114 117 117 116 116 117 115 114 112 117 114 113 116 113 122 122 122 121 119 124 119 121 122 118 122 120 122 121 120 120 119 121 116 107 92 96 100 93 84 101 102 98 88 87 87 94 98 93 88 87 84 92 105 109 106 94 92 90 76 73 69 66 61 60 59 54 46 62 56 56 53 50 51 49 45 56 71 78 73 68 62 55 75 113 111 113 115 117 114 117 117 115 115 116 114 117 115 116 115 113 114 117 114 114 113 114 120 120 121 120 122 122 119 122 121 120 119 121 122 120 120 121 121 124 103 86 85 92 92 87 79 93 101 80 84 85 86 86 83 75 81 85 91 97 105 105 103 100 93 89 80 75 65 57 57 55 59 56 48 51 47 49 47 45 41 45 46 37 49 57 63 78 66 64 49 91 114 113 115 114 115 117 116 115 116 117 113 117 116 116 113 115 117 114 115 114 114 114 122 122 120 120 121 122 119 121 120 119 121 121 120 123 122 118 120 115 97 70 68 81 86 75 68 70 75 85 85 78 73 77 82 81 80 76 82 92 97 104 104 102 93 84 71 68 63 62 67 66 61 61 64 52 51 45 47 42 42 34 40 42 35 46 48 64 70 59 56 52 97 116 114 114 118 115 116 116 116 115 115 115 113 115 116 112 116 114 113 115 114 112 122 121 120 119 122 122 121 122 119 119 120 121 120 120 120 114 108 102 87 64 57 68 77 73 63 59 71 71 74 82 83 88 86 78 75 79 90 91 99 103 101 102 99 93 86 79 79 77 72 74 67 65 63 55 53 59 44 45 46 45 37 45 39 39 37 54 59 61 54 46 64 102 119 112 118 113 116 116 114 116 115 114 112 115 114 115 114 114 116 114 114 114 121 120 122 119 122 121 121 122 121 121 121 120 120 117 109 107 93 84 83 70 58 61 56 70 65 60 62 70 68 68 70 74 77 74 78 84 87 85 91 87 91 99 95 85 91 93 88 87 78 68 66 64 55 53 52 51 48 48 49 48 48 52 47 47 44 35 45 55 60 56 50 71 110 115 115 117 113 115 113 113 117 114 115 114 115 115 115 114 116 112 115 111 120 123 121 118 124 119 121 123 119 123 121 120 117 105 100 91 79 76 78 64 57 61 54 55 64 57 56 55 54 67 60 67 69 72 75 79 83 79 79 81 90 86 95 100 99 97 83 78 70 62 61 60 61 56 55 55 52 58 53 55 50 64 61 69 63 42 41 47 46 61 57 50 82 107 113 115 113 116 113 115 113 116 114 114 116 116 115 114 114 113 114 115 121 123 121 119 121 120 121 122 119 121 119 113 91 78 83 74 72 73 76 60 56 56 59 57 53 60 65 58 56 59 60 61 60 62 59 67 72 79 81 83 99 92 93 92 88 75 75 68 63 60 66 61 61 61 55 56 59 58 61 68 57 70 74 80 86 77 61 52 39 47 52 50 46 69 101 106 112 112 116 114 114 113 111 115 115 114 117 114 114 113 114 113 122 120 121 119 122 117 120 123 120 115 111 83 64 63 85 77 77 76 86 64 60 62 60 56 58 57 62 60 61 65 59 71 69 73 75 82 85 91 91 93 87 86 84 79 72 71 70 70 68 67 74 72 69 63 63 65 67 69 70 79 79 69 90 94 107 96 97 83 62 52 34 46 44 46 76 89 106 112 114 113 111 117 114 112 114 114 115 116 115 113 114 114 120 121 120 120 122 120 118 122 118 101 67 71 70 71 81 89 80 78 77 66 64 56 63 63 61 77 67 64 60 68 56 55 63 68 70 75 79 83 84 80 87 89 87 78 71 74 76 87 86 78 85 71 75 73 74 73 89 86 84 96 98 93 102 104 123 117 113 115 97 79 48 36 42 39 56 72 86 104 110 114 110 116 111 113 115 114 114 116 113 114 115 114 120 119 122 122 121 117 120 120 110 81 54 62 68 73 89 93 80 71 70 66 62 67 71 74 78 87 78 69 61 57 63 58 56 68 65 71 77 82 87 85 84 90 86 85 89 95 98 97 90 86 89 76 82 95 93 95 98 100 107 112 103 107 111 109 133 134 137 133 116 109 90 55 33 39 45 61 74 98 98 108 111 114 114 114 117 112 114 116 116 114 115 112 120 120 122 121 120 119 117 116 98 62 56 62 67 76 88 88 78 71 75 61 54 58 74 92 94 90 88 71 72 60 65 59 67 68 67 68 68 79 78 87 91 94 97 96 97 100 97 97 96 98 101 99 105 107 111 111 119 113 126 131 118 126 123 129 135 141 146 145 130 123 120 101 52 36 46 52 62 78 98 96 102 110 111 119 114 115 115 115 115 115 116 113 121 121 119 120 119 122 116 111 79 59 67 68 70 81 91 100 76 56 69 64 57 79 85 95 92 87 88 80 68 60 56 62 69 66 70 72 76 87 89 89 90 88 89 99 104 111 118 112 108 119 119 118 115 126 127 133 129 128 134 134 136 134 139 151 145 147 149 153 149 132 134 119 95 41 39 45 61 75 77 99 99 97 101 112 112 117 115 113 114 116 114 116 121 122 122 119 119 123 119 85 61 58 63 62 74 85 105 88 66 48 53 60 65 89 94 100 97 93 94 80 74 71 71 70 72 79 81 73 81 90 93 93 89 92 105 108 115 116 120 114 120 131 127 142 140 141 142 150 149 150 158 158 159 164 150 153 164 152 158 153 156 145 133 132 117 77 43 43 48 76 77 90 97 99 98 93 100 114 116 117 113 112 115 116 118 122 121 120 120 122 110 64 56 52 57 65 74 100 92 62 54 47 59 74 90 88 88 95 98 98 95 85 80 78 87 93 101 98 95 93 106 109 101 102 93 107 111 113 119 122 125 129 135 138 147 145 151 156 150 170 158 163 167 166 171 171 160 161 164 160 156 161 148 154 131 134 134 97 66 54 61 57 71 84 92 94 98 91 83 92 111 116 117 112 113 114 119 123 120 119 120 125 93 55 53 55 54 68 87 96 86 64 56 56 64 92 109 114 102 105 98 100 98 104 108 123 136 145 125 122 119 114 113 120 125 118 119 124 124 127 137 135 148 159 161 157 160 162 160 164 169 168 173 170 171 174 174 171 163 165 167 172 166 169 159 149 152 132 135 128 72 43 53 61 65 82 92 100 91 94 84 82 78 103 116 117 110 115 120 121 121 122 124 111 68 49 52 49 63 76 104 96 76 69 65 66 82 105 110 115 109 102 109 107 111 118 125 136 142 133 145 145 152 145 143 132 130 131 132 128 139 145 156 158 168 167 167 172 178 176 176 176 173 173 173 176 176 175 173 174 171 169 168 173 173 171 160 152 153 146 136 129 115 45 42 58 57 81 94 108 83 88 95 91 79 79 86 115 117 113 119 120 122 121 123 78 50 44 48 55 71 98 103 87 74 72 70 77 112 139 141 140 135 122 129 143 132 131 139 143 143 136 140 140 131 150 157 154 155 156 155 165 165 172 173 182 177 176 173 179 184 184 182 180 172 168 175 175 176 172 174 173 176 173 171 179 193 168 167 158 155 153 138 131 130 95 33 38 62 72 92 102 102 78 87 92 95 76 101 91 112 114 122 119 121 125 101 46 53 54 61 62 89 98 94 96 74 64 68 91 116 143 147 149 156 162 160 168 151 151 156 159 160 164 161 166 165 165 172 173 177 169 183 179 179 172 185 185 186 182 182 186 185 187 186 177 176 178 178 178 179 178 173 172 172 175 177 181 185 187 161 163 154 147 146 136 128 119 64 31 37 80 78 92 111 83 87 85 88 95 82 107 99 112 123 121 121 121 69 47 55 54 65 91 83 91 91 80 78 77 84 108 125 149 157 158 173 179 181 183 183 174 173 170 182 182 175 184 191 190 194 192 197 189 195 191 194 194 196 194 190 188 190 189 186 183 179 176 183 186 180 180 181 179 179 178 178 174 180 181 190 193 173 161 161 148 153 142 131 122 106 54 34 36 94 67 114 95 83 87 81 95 86 90 113 103 121 120 124 116 53 57 60 54 70 74 91 85 85 78 74 92 94 115 137 152 155 170 176 180 182 187 187 187 186 182 193 193 187 187 197 199 204 199 199 200 199 200 202 198 196 192 193 190 193 191 189 189 188 184 184 185 183 185 180 180 179 179 186 179 177 183 187 194 180 170 162 150 151 149 132 120 124 67 43 36 56 91 99 94 90 76 100 73 97 86 94 112 119 119 121 80 61 61 56 62 62 74 79 77 85 88 97 98 111 133 145 153 166 172 181 180 182 189 190 190 192 196 197 195 197 194 198 203 205 204 203 203 206 200 202 200 201 198 190 191 194 194 189 193 190 188 184 188 185 182 183 182 181 182 179 177 175 178 184 186 179 168 169 155 150 152 142 121 118 100 43 43 36 83 92 99 84 84 79 91 75 96 83 108 120 122 112 69 55 56 59 53 57 64 92 98 106 102 102 105 120 141 149 158 164 174 183 182 187 188 194 193 193 199 198 199 196 198 197 204 205 203 203 203 202 200 201 200 201 199 195 193 193 195 193 193 192 189 187 189 184 185 187 183 186 183 182 179 180 176 178 180 174 166 162 159 150 152 148 126 110 121 60 41 47 48 100 97 86 76 79 83 72 83 87 110 121 126 93 56 51 54 50 48 56 74 86 97 103 96 101 105 127 145 157 157 167 176 185 185 187 191 193 195 196 201 200 200 198 199 198 202 202 203 201 201 200 203 200 199 199 199 199 197 194 195 194 193 194 190 189 192 187 188 188 188 187 188 182 182 180 177 177 170 171 168 165 154 151 150 150 136 106 115 84 52 51 48 93 83 94 67 76 88 66 72 78 104 124 114 65 59 51 39 45 50 60 72 84 93 93 93 100 108 130 147 154 154 169 178 183 189 191 191 192 197 199 200 200 202 199 199 198 197 201 200 202 201 201 202 202 201 200 200 201 196 198 199 195 192 200 194 191 191 190 186 190 190 189 188 184 180 180 175 176 167 166 162 157 153 154 150 152 136 113 119 88 62 66 45 78 86 84 67 76 79 67 64 72 93 126 92 51 55 42 40 47 53 60 67 88 85 87 96 106 115 137 152 161 158 170 180 184 189 193 192 195 197 199 199 201 201 198 197 197 199 202 200 200 201 201 201 200 202 200 200 202 199 198 200 196 196 198 196 194 193 188 186 190 190 186 188 182 180 178 176 174 167 165 159 155 153 155 149 151 142 106 120 106 56 54 65 69 83 60 75 65 75 71 57 65 74 128 74 46 47 43 45 45 46 57 71 76 85 93 100 101 120 142 157 161 160 172 178 180 190 192 192 197 197 197 200 201 202 197 195 197 199 203 198 198 201 199 199 200 202 200 200 202 201 202 201 199 196 197 197 194 193 190 187 188 188 188 183 179 176 175 171 167 170 159 157 151 156 151 153 147 139 112 121 108 76 45 62 78 89 52 59 51 73 75 55 59 72 124 68 44 44 44 46 37 47 57 70 71 87 92 91 102 125 143 160 160 163 175 176 179 189 192 194 196 196 198 198 199 201 197 199 197 200 200 201 199 200 199 196 199 201 199 200 201 202 202 200 198 193 197 196 195 193 184 188 187 184 186 180 180 175 171 167 166 172 156 155 149 155 155 153 143 139 111 119 112 79 59 51 66 105 63 47 47 58 78 57 54 66 119 57 37 41 48 38 41 44 55 65 76 78 83 92 103 126 143 160 161 165 173 182 185 188 193 194 195 195 197 198 196 198 198 196 197 201 199 200 201 199 200 200 199 199 200 200 201 201 202 198 198 195 194 194 193 191 187 183 186 181 182 179 176 174 164 167 172 167 147 153 153 150 153 155 143 134 117 117 116 81 59 66 51 99 72 39 49 46 74 57 51 69 97 47 38 43 44 36 37 46 52 62 71 75 82 93 108 127 142 161 164 172 176 184 190 189 193 192 195 194 197 194 197 200 200 196 196 199 200 201 200 201 199 199 199 199 198 201 201 201 201 198 195 194 196 195 194 192 185 182 185 184 180 180 170 172 169 167 169 162 147 147 155 155 154 150 139 134 119 117 123 87 50 56 63 81 89 23 45 49 66 57 49 65 75 38 43 45 41 35 36 48 54 61 63 77 82 93 106 130 146 165 169 174 176 184 188 191 191 196 194 197 196 194 200 199 200 199 198 197 201 201 200 202 199 200 200 200 198 198 202 201 199 196 193 196 194 193 194 191 188 183 186 186 180 181 172 173 168 163 162 158 157 154 158 160 158 153 136 132 120 118 118 98 63 39 57 70 94 27 36 48 64 53 49 75 61 33 45 41 44 35 41 48 54 55 67 76 81 91 108 129 155 167 171 174 181 183 187 190 192 193 196 196 197 198 197 200 200 199 198 198 201 200 200 201 201 201 201 199 201 197 199 199 201 191 197 195 192 192 194 190 190 180 184 185 183 183 178 176 165 162 163 161 161 154 159 164 161 151 136 133 122 119 115 99 68 56 44 62 85 39 31 41 57 52 44 86 51 34 41 40 45 43 50 45 47 57 69 68 79 94 110 131 151 164 166 177 177 183 187 188 190 194 194 196 196 196 199 199 200 200 199 200 199 199 199 199 201 201 200 199 201 199 198 197 200 197 195 194 194 191 193 192 186 181 185 185 184 183 179 179 170 168 169 161 163 151 160 164 163 145 139 133 121 118 119 96 76 60 54 59 84 49 32 44 54 47 49 108 54 44 39 44 40 63 41 38 44 56 61 64 74 91 112 135 152 164 170 172 179 182 185 189 191 197 192 196 198 194 199 200 202 199 200 200 201 199 198 200 201 201 200 200 199 198 196 198 198 196 193 193 196 193 194 193 189 186 185 187 183 185 181 179 171 171 171 166 165 157 164 163 161 141 140 133 125 119 114 98 72 65 63 59 76 59 35 50 48 47 81 118 88 54 41 48 49 50 30 41 41 45 57 66 71 88 119 141 150 161 172 170 180 183 185 190 189 195 193 195 197 198 199 201 201 199 200 199 200 197 200 198 201 199 201 200 197 199 197 196 195 197 195 193 194 193 195 192 188 184 187 189 185 185 180 179 177 173 171 169 168 163 169 161 162 145 145 135 130 117 118 95 77 65 59 63 59 72 32 53 37 67 111 113 112 65 48 45 48 40 37 35 40 42 50 58 70 91 124 144 153 161 172 174 180 182 186 189 191 196 197 195 197 197 198 201 200 198 201 198 201 198 201 200 201 200 202 200 200 200 197 195 196 195 193 195 192 194 192 190 190 185 186 188 189 183 181 179 179 171 175 164 167 169 167 162 156 148 145 136 126 118 116 93 73 61 70 60 54 57 42 44 34 97 116 113 108 82 60 42 47 41 34 34 34 42 49 55 70 101 128 150 154 162 168 175 182 184 190 189 190 194 197 196 195 198 197 200 200 198 200 200 201 199 202 202 200 203 201 202 200 199 199 196 197 196 195 194 195 193 190 188 187 189 187 186 185 184 180 180 174 175 174 163 162 173 167 166 157 158 147 132 126 118 110 95 68 67 65 55 57 48 44 40 31 98 117 111 106 110 81 36 46 32 33 38 39 38 47 50 74 105 136 152 155 162 168 173 183 187 192 189 191 193 195 197 197 196 199 200 200 199 200 199 200 200 200 200 200 203 202 201 200 200 197 195 195 197 196 196 195 194 191 189 190 189 187 185 185 183 181 180 178 178 174 170 169 173 168 168 161 157 151 134 131 115 109 90 68 61 66 54 53 43 42 35 34 97 117 112 134 110 93 56 40 30 33 35 36 36 42 53 83 117 141 154 158 158 170 173 185 184 190 187 189 194 198 196 196 199 199 200 198 198 199 198 199 199 200 198 201 201 202 200 201 197 193 196 195 199 196 198 195 193 193 188 190 188 191 182 187 185 187 186 180 178 167 170 169 168 166 169 161 154 150 136 133 117 104 84 65 58 70 57 55 42 39 35 32 99 115 111 154 114 95 99 38 35 31 35 37 37 39 58 96 127 141 153 157 163 170 174 183 184 190 189 185 192 197 197 199 198 199 200 199 199 200 196 201 198 198 197 196 200 201 199 200 197 196 195 196 198 196 195 193 194 192 194 189 186 189 186 186 185 187 182 177 176 173 174 173 171 165 157 163 153 147 138 128 115 103 82 54 66 70 60 54 39 44 25 31 96 117 112 168 116 98 121 81 31 32 40 40 39 41 80 111 130 152 156 157 163 169 178 186 187 190 187 188 193 192 193 196 199 199 194 198 199 196 198 195 198 194 193 196 201 195 195 198 195 195 194 193 196 193 194 194 192 189 191 184 184 184 187 180 183 183 183 174 172 179 178 169 172 172 167 159 153 144 134 129 114 100 83 52 64 61 61 45 32 36 36 22 92 117 110 174 128 101 122 142 87 46 47 50 39 51 91 121 135 148 157 153 161 165 180 184 188 190 190 191 191 185 187 192 191 194 191 191 196 194 194 193 195 193 193 192 194 195 194 194 194 189 193 193 194 196 192 193 191 186 187 184 182 185 181 180 178 181 182 174 173 181 177 176 174 170 170 156 152 142 135 126 109 101 77 58 56 61 60 45 32 30 33 25 88 115 108 169 149 115 134 144 135 105 72 70 50 58 99 132 145 153 160 154 154 164 177 182 186 189 191 181 174 165 161 167 170 171 173 174 179 183 188 191 192 193 193 191 191 192 191 190 189 187 191 190 195 193 194 191 191 186 182 182 182 184 181 180 179 180 180 178 174 182 176 182 177 168 168 154 145 143 134 122 105 104 82 47 58 55 63 43 34 41 32 37 101 112 110 158 170 129 145 150 143 131 106 95 83 74 110 138 150 152 161 154 157 164 172 181 187 178 174 168 164 154 143 145 145 145 144 150 156 153 165 178 184 191 191 188 188 190 187 186 189 186 188 187 191 189 190 189 186 184 178 180 182 183 180 185 181 173 177 177 180 183 178 182 171 170 170 149 143 141 136 116 102 108 85 43 48 54 62 41 28 30 30 54 114 112 112 146 181 143 163 152 137 127 115 105 110 103 123 145 150 155 160 155 157 166 163 175 169 166 158 155 150 144 146 136 134 139 131 124 127 133 134 146 154 176 184 182 189 185 188 184 185 183 180 186 189 187 184 178 179 172 174 174 181 178 178 178 184 174 173 174 181 181 173 169 167 166 159 145 141 136 130 113 104 108 86 31 52 53 55 37 29 29 28 78 113 108 111 140 179 155 173 143 130 113 85 109 121 128 136 147 149 156 160 157 160 158 150 152 154 151 145 147 138 131 133 127 118 119 110 107 109 117 115 122 122 133 153 162 174 178 181 185 182 184 176 186 184 178 178 173 170 168 171 169 176 175 171 166 170 164 152 150 153 161 154 159 153 156 152 148 135 135 127 111 101 110 80 33 46 52 50 36 26 22 63 104 111 109 108 130 177 163 178 143 123 111 78 110 132 141 141 149 153 162 161 158 150 136 133 136 145 137 135 136 132 126 124 117 118 112 96 97 93 101 98 97 105 108 108 129 152 165 169 179 177 180 181 185 176 172 163 166 164 160 162 155 138 137 131 135 135 140 130 129 123 128 127 147 154 146 133 137 143 131 123 105 105 108 77 36 44 52 43 38 26 21 88 111 107 109 109 134 171 170 178 145 124 115 91 108 138 144 142 148 156 162 165 156 144 128 133 134 137 138 147 140 133 129 130 132 132 137 127 112 106 95 99 97 99 104 106 110 137 153 162 175 182 174 180 182 175 167 161 159 151 152 143 132 118 108 99 100 101 101 109 106 100 107 120 121 142 147 132 121 136 128 117 107 110 108 76 38 48 47 38 31 27 53 108 108 108 105 108 136 179 171 184 153 145 123 113 114 138 145 144 148 157 165 165 160 145 130 133 133 136 154 161 157 147 140 141 145 146 145 137 121 105 98 92 101 105 107 108 115 131 142 157 173 183 177 185 183 175 165 156 147 145 136 125 116 102 93 83 81 82 83 83 83 94 103 110 113 122 122 114 118 126 120 117 106 112 111 75 37 47 42 36 31 38 94 108 106 107 106 105 144 183 165 192 154 152 148 152 134 139 149 146 153 159 164 165 160 151 134 136 146 143 148 151 141 123 108 95 89 80 68 63 65 59 94 68 76 78 99 107 108 125 143 159 174 182 183 187 181 178 161 151 138 131 115 99 96 90 90 82 86 85 85 88 88 90 103 102 109 107 103 106 95 101 103 96 109 112 109 71 36 41 30 34 39 64 106 106 104 106 107 105 150 188 152 197 163 148 172 173 155 137 147 146 156 162 161 164 154 150 140 140 144 137 122 102 75 58 73 79 67 63 57 63 77 82 138 118 91 80 86 102 109 115 144 168 178 186 187 188 181 176 162 145 132 112 97 91 92 85 84 77 87 102 123 134 136 127 115 108 104 104 100 103 96 83 88 74 107 116 110 73 35 37 25 67 53 89 103 104 105 103 107 103 158 193 152 182 182 137 161 175 162 137 144 146 158 166 165 166 163 152 146 135 125 111 85 74 67 76 93 124 93 80 91 90 93 134 163 145 123 95 102 119 129 108 131 174 185 188 190 190 183 172 160 144 117 96 93 95 76 76 81 72 45 59 91 88 107 122 132 126 120 108 105 93 89 84 77 68 87 124 110 78 33 28 52 91 68 101 100 104 104 105 104 106 156 192 166 156 193 162 154 188 155 131 144 150 158 167 165 168 163 169 157 134 113 98 103 104 119 128 122 133 133 118 108 110 124 150 154 138 124 133 116 150 142 126 126 177 192 192 192 193 185 171 159 133 101 106 112 101 85 100 141 106 74 60 110 49 48 56 61 86 104 110 110 102 87 90 84 73 88 122 113 86 31 51 76 98 88 105 101 101 103 102 104 104 143 188 179 152 186 190 160 180 143 131 138 151 152 169 165 166 167 177 175 157 137 136 140 137 149 162 155 155 150 146 142 136 142 146 147 137 129 144 151 150 139 141 133 175 194 198 196 197 186 174 154 120 105 130 140 98 110 117 159 149 79 103 68 78 63 70 66 39 51 69 100 99 100 93 91 84 88 119 115 97 47 56 83 101 107 103 98 102 103 102 105 101 124 189 184 171 185 192 154 171 133 139 135 150 158 166 174 170 179 183 181 179 174 171 160 153 152 163 165 171 169 162 150 149 147 141 130 122 119 130 145 142 139 151 148 182 197 200 201 197 188 172 143 118 124 134 156 139 132 122 142 153 107 102 90 90 78 101 103 59 36 54 50 95 102 97 91 85 105 117 119 107 55 54 92 113 116 102 97 98 101 105 100 100 129 191 178 172 171 192 159 159 130 139 132 152 159 165 171 174 176 181 183 184 184 184 178 172 156 148 149 140 145 143 142 135 131 126 123 130 141 145 145 149 154 159 165 190 198 199 202 200 187 175 136 123 137 126 150 140 131 129 140 143 137 139 114 104 116 123 108 95 57 51 63 74 92 93 99 99 115 123 115 113 47 61 112 118 127 93 95 103 101 102 103 99 146 189 176 165 174 192 186 150 131 136 133 148 160 169 171 178 179 180 186 187 189 191 193 188 177 163 155 146 142 138 145 142 147 149 153 156 157 155 161 165 163 167 175 191 200 201 201 199 186 176 135 127 140 130 138 146 130 118 123 133 137 134 131 120 124 126 115 116 96 79 71 85 89 100 113 122 123 121 115 111 49 80 124 120 127 91 97 98 100 100 102 99 179 185 176 173 188 187 190 143 131 135 136 148 157 171 174 176 181 182 185 186 193 190 194 194 193 185 184 182 183 177 172 170 170 172 172 174 178 173 169 175 178 171 183 194 198 202 201 200 186 167 139 128 142 136 148 149 141 135 121 114 131 144 142 141 145 145 135 129 113 102 102 97 107 119 129 132 129 120 111 108 59 117 113 132 125 85 97 100 100 102 103 103 177 186 178 180 185 184 178 142 134 139 132 144 157 171 172 179 183 185 187 189 191 193 195 195 194 190 190 185 186 185 181 182 186 185 188 183 191 186 187 186 183 178 186 197 198 201 201 198 182 165 137 134 146 137 150 168 156 154 145 130 114 114 127 126 132 126 124 120 117 119 124 128 128 133 133 138 132 118 108 100 98 123 111 145 114 85 95 97 99 101 102 101 182 183 180 183 180 185 176 133 134 134 136 146 155 164 176 180 185 186 188 189 190 195 195 195 195 195 192 188 190 188 189 188 194 192 193 192 193 190 193 188 185 184 187 199 200 200 202 195 184 163 141 133 146 144 140 169 175 169 153 157 157 142 135 129 122 121 121 123 137 144 143 134 142 144 136 137 132 117 104 103 133 107 129 147 106 82 98 97 101 100 101 100 164 177 181 183 181 184 172 131 133 134 135 146 160 163 178 181 187 187 186 189 191 194 195 195 193 198 194 198 196 193 192 199 199 196 193 196 194 192 193 189 189 186 191 199 198 201 200 195 184 163 143 142 149 150 146 159 177 182 171 163 166 173 170 170 149 157 160 150 151 156 153 150 135 144 143 138 128 115 102 100 149 117 140 138 92 91 96 98 100 99 100 102 144 166 177 185 181 186 164 126 134 135 139 148 159 165 179 182 186 186 184 185 189 192 194 192 192 198 198 200 198 199 198 197 200 198 196 197 195 192 191 185 191 191 186 198 200 202 201 196 186 165 143 145 150 153 154 163 169 178 178 172 168 172 166 175 154 151 167 165 164 160 159 154 148 146 143 137 132 113 98 104 147 132 135 133 88 89 97 95 100 99 103 101 97 152 172 181 178 181 149 133 134 134 141 147 160 164 182 178 180 186 183 182 186 193 193 194 196 198 198 199 200 197 198 197 199 197 196 192 192 191 189 190 191 189 161 196 199 204 195 194 182 162 147 146 150 153 158 165 177 172 184 182 182 176 176 177 179 171 174 164 167 164 160 156 151 145 145 138 130 113 98 105 144 133 129 116 82 94 97 94 98 100 99 101 91 108 150 166 169 162 127 127 139 122 134 146 153 166 179 177 180 180 182 187 189 195 194 193 197 199 195 199 199 199 198 196 198 195 192 190 191 193 193 191 190 186 177 197 196 201 198 192 177 166 150 147 150 155 153 165 178 180 183 184 184 179 184 182 180 182 178 171 168 164 161 153 149 147 145 133 131 108 95 107 147 127 131 113 85 92 92 100 96 99 98 101 96 93 111 127 139 131 113 128 140 120 133 139 159 168 174 176 178 179 180 189 192 192 197 191 195 197 193 193 198 195 194 194 195 192 191 187 191 192 192 193 192 186 192 196 200 200 193 194 179 165 157 149 149 150 154 165 180 179 184 186 184 189 183 182 182 180 178 172 167 161 154 153 143 140 136 134 127 105 95 112 145 138 139 120 81 93 95 93 99 99 97 100 100 97 95 95 106 94 105 131 126 124 130 144 157 166 170 176 163 178 183 185 191 194 193 189 192 194 191 192 193 193 192 190 187 189 179 177 181 186 185 187 191 191 190 199 199 200 193 190 181 166 162 146 142 142 146 163 176 181 186 186 187 187 186 187 182 184 181 175 168 160 156 154 124 145 137 132 121 106 94 117 146 140 140 134 80 92 95 96 97 99 99 100 98 96 96 98 96 91 102 126 129 126 128 144 157 160 164 170 159 173 182 184 189 190 190 189 186 192 189 190 193 187 185 180 175 173 159 159 180 184 179 179 186 192 193 197 198 198 188 188 180 168 162 144 131 135 135 153 167 176 185 184 182 190 184 183 186 177 175 176 163 163 156 155 129 133 141 132 117 104 91 119 148 140 143 121 79 93 90 93 98 98 98 99 97 97 96 96 96 90 98 128 125 129 130 143 147 157 162 162 165 170 179 182 183 187 187 187 182 182 178 186 185 181 175 168 156 147 142 160 185 184 181 169 187 191 196 200 193 192 193 186 178 172 165 145 119 139 130 136 159 165 179 176 179 189 180 181 184 179 174 173 167 161 155 153 142 138 136 132 118 100 91 128 150 136 132 108 84 90 93 94 97 97 98 100 98 96 95 99 95 95 95 127 127 126 123 144 145 156 159 161 162 169 175 175 176 181 185 182 181 171 171 175 175 171 162 153 146 132 130 171 187 189 182 172 186 193 197 203 194 191 189 187 182 173 166 139 124 147 140 126 139 151 161 169 177 180 181 178 177 177 170 166 162 154 154 148 142 134 135 128 116 100 92 131 142 129 125 89 87 95 94 96 98 96 99 100 95 96 95 98 96 94 97 125 130 127 118 141 142 153 153 155 162 162 168 166 170 175 178 177 174 172 164 163 156 151 147 139 136 129 125 176 188 186 181 180 188 191 197 199 199 189 195 189 189 175 166 146 128 166 160 117 124 135 146 153 169 171 173 176 172 168 165 162 159 154 147 147 139 135 128 125 118 95 96 124 130 116 92 86 91 94 94 95 99 96 97 99 96 95 96 96 96 97 93 122 125 127 122 139 143 148 150 152 156 160 161 161 165 168 169 168 162 162 155 148 139 132 127 131 139 141 129 181 189 183 183 185 190 192 195 196 200 199 191 192 181 179 163 150 134 159 163 121 112 123 129 140 150 161 164 166 160 165 164 155 155 152 141 134 139 135 119 121 110 98 95 110 102 96 87 87 91 95 94 94 99 95 99 99 98 95 97 95 96 93 94 118 119 122 126 138 143 142 147 148 148 157 158 159 160 160 153 153 148 146 137 133 122 119 126 138 146 150 135 171 186 185 180 186 191 192 192 191 197 198 195 188 180 177 162 150 137 146 154 124 117 118 118 123 142 150 155 159 157 160 159 155 147 145 136 124 130 130 118 113 108 98 93 80 89 87 88 90 89 91 95 93 96 98 101 98 97 94 97 96 94 95 93 114 118 119 130 135 144 146 146 151 147 146 155 154 152 151 143 137 134 127 116 110 110 121 135 145 151 150 137 141 171 176 163 175 183 191 187 185 189 191 186 182 174 170 158 145 131 136 140 124 129 126 121 115 122 132 142 148 149 154 152 145 143 136 126 124 123 118 116 109 108 100 93 82 87 90 88 88 92 94 96 95 96 98 94 98 95 95 94 97 96 96 88 115 111 120 125 137 142 148 153 149 152 142 150 149 145 139 133 122 107 105 102 109 121 129 133 142 158 163 149 123 128 143 145 146 163 177 182 181 180 181 175 176 167 161 148 132 124 126 121 112 135 127 123 113 108 114 127 135 142 142 144 138 135 132 119 110 115 116 110 108 106 101 86 85 87 88 88 87 93 93 96 96 96 98 97 100 95 95 95 94 96 95 88 106 111 115 123 135 143 149 154 154 156 150 150 149 139 128 110 98 97 118 121 125 134 131 122 148 160 167 147 128 110 105 105 107 130 155 168 172 166 169 161 163 156 150 127 108 102 103 96 108 133 127 123 121 108 92 108 121 130 132 134 130 129 125 115 106 110 111 107 106 103 97 86 85 87 86 91 89 91 95 95 95 96 99 96 100 96 94 96 95 95 94 90 106 109 109 120 135 142 148 150 156 158 156 155 151 136 115 85 102 120 125 123 127 130 121 121 139 139 153 143 134 121 106 104 86 83 121 135 145 139 137 141 142 136 122 90 63 68 81 84 115 135 133 129 124 115 96 83 96 109 123 124 126 120 117 112 110 107 106 108 104 101 97 82 85 88 86 88 91 88 96 97 95 99 96 97 99 95 95 92 94 95 94 90 100 110 107 112 134 142 146 152 151 163 161 159 148 140 118 89 108 117 111 117 114 122 116 132 123 129 145 132 137 134 121 119 93 78 76 102 115 113 111 113 110 97 74 67 62 75 79 97 112 113 144 136 123 112 101 105 83 80 101 115 118 117 112 112 105 108 109 109 106 100 88 84 86 86 87 89 87 92 95 93 96 96 97 97 98 96 94 96 94 95 94 91 97 109 102 108 126 139 144 151 152 156 165 161 154 148 127 94 97 105 102 116 110 113 123 144 128 125 144 133 135 128 144 134 118 91 73 68 80 85 85 86 74 62 69 82 100 105 97 97 103 99 127 134 129 100 94 114 108 88 72 100 115 117 117 117 109 111 112 108 106 100 86 82 86 87 86 90 90 94 94 96 97 96 95 97 97 94 94 95 92 98 93 93 105 111 103 99 118 133 145 150 147 154 161 159 160 154 133 91 96 93 104 103 98 108 117 139 134 124 145 131 133 133 147 137 119 115 86 71 70 64 59 72 74 62 90 98 91 118 115 93 97 97 115 118 130 107 79 101 98 109 79 88 116 119 117 118 117 114 113 110 108 97 80 85 89 85 86 89 91 92 96 95 96 95 96 98 95 96 92 93 95 95 88 108 104 114 105 99 110 128 137 144 147 146 154 156 156 160 126 87 100 89 110 86 94 101 99 114 131 116 140 122 136 139 141 138 111 130 111 115 79 64 61 80 106 80 116 98 92 94 122 101 94 95 105 110 110 96 97 77 88 103 95 110 125 129 125 123 119 113 113 109 105 95 78 86 87 85 89 88 90 94 91 97 96 97 95 97 97 94 95 93 96 91 103 114 73 117 108 95 101 126 128 142 141 146 151 156 156 163 145 104 93 95 97 87 97 86 96 102 128 116 128 122 137 128 137 121 97 128 136 147 107 75 91 105 134 95 120 98 91 80 110 110 90 93 89 96 100 104 83 95 77 96 98 138 140 125 129 124 118 114 112 107 102 80 85 86 87 86 90 88 92 91 94 93 96 96 93 97 96 91 97 92 94 85 132 93 40 120 111 99 95 117 124 135 140 143 154 154 156 157 165 123 108 90 89 105 102 83 96 109 112 119 115 128 123 108 123 102 89 126 136 137 111 88 99 115 133 104 102 105 71 81 109 102 90 82 93 80 80 110 82 86 91 105 120 148 141 124 129 122 113 117 111 104 91 82 87 85 86 87 89 90 94 93 94 96 95 98 95 96 96 93 92 92 87 101 138 70 31 125 115 106 93 104 122 128 130 131 147 150 150 153 157 141 130 105 100 113 117 100 98 110 104 115 110 147 114 97 115 91 89 118 128 128 93 98 78 113 121 104 90 92 78 73 104 92 90 76 90 87 69 103 99 67 98 130 137 149 137 136 130 114 113 110 107 97 83 81 87 86 84 86 88 91 92 91 96 94 96 97 96 96 95 93 93 97 95 125 130 57 30 130 116 110 100 97 115 123 129 110 132 137 146 146 155 152 144 129 124 124 131 118 118 119 119 113 116 131 107 93 102 91 94 122 125 98 80 91 66 108 121 104 75 94 79 70 88 94 97 81 82 90 76 92 83 86 101 140 149 144 137 123 115 110 115 107 102 91 79 85 85 85 85 86 88 90 92 93 95 93 95 93 96 94 94 94 108 113 95 135 122 45 30 130 118 112 107 96 104 120 120 115 117 132 140 144 144 151 154 138 128 138 140 136 134 132 135 121 123 130 127 110 107 101 100 129 122 102 137 133 104 97 111 109 83 60 84 81 80 93 93 84 90 95 92 88 100 101 125 140 143 136 126 109 102 111 109 103 95 83 78 86 85 85 85 89 86 93 92 94 96 93 94 96 95 97 96 125 108 72 78 144 114 43 28 129 122 115 112 106 93 114 119 117 117 124 131 131 141 141 149 146 132 138 147 140 145 146 147 131 133 132 137 121 122 116 106 134 109 110 130 126 111 95 100 114 100 75 73 101 90 91 93 93 102 101 95 101 109 124 136 141 134 127 114 106 106 107 106 100 83 82 84 82 86 85 87 86 87 93 91 92 95 91 98 93 97 94 97 116 64 69 114 145 102 48 30 127 125 118 113 109 101 100 114 115 120 117 127 126 130 138 143 145 137 145 152 149 155 161 155 146 144 143 133 126 127 123 112 116 111 128 130 129 121 101 98 96 102 96 96 92 99 93 101 106 109 113 110 111 119 130 140 131 124 114 108 106 106 109 99 92 77 82 84 84 84 83 84 89 88 93 91 93 92 97 91 97 95 97 94 82 69 114 121 151 100 51 35 128 126 121 114 113 105 98 106 114 118 121 121 126 124 132 135 140 139 152 158 158 165 165 166 159 157 151 140 127 124 124 113 109 122 130 123 125 127 107 102 102 105 107 96 103 102 109 109 116 114 121 117 116 127 135 131 127 113 111 106 106 107 105 90 84 80 82 82 83 86 84 85 88 87 94 92 94 94 94 93 97 94 99 94 57 105 124 124 150 101 57 42 127 130 120 116 112 113 100 95 108 115 116 118 118 121 130 128 141 144 151 158 157 164 172 172 168 166 159 153 140 134 123 114 119 126 127 120 121 125 109 102 106 107 110 106 112 120 121 124 126 123 129 123 122 125 129 123 111 107 105 109 106 100 95 71 71 82 82 83 81 87 84 86 89 86 94 94 94 91 94 92 94 93 96 94 72 124 121 121 149 106 61 55 124 133 124 117 115 113 108 94 100 113 116 119 119 129 130 127 138 149 155 155 162 171 171 178 176 169 167 158 153 141 132 130 123 128 124 123 117 119 117 110 114 115 120 123 119 131 130 133 132 130 125 122 123 119 122 115 107 108 106 104 101 91 83 29 75 67 77 88 80 85 87 86 91 89 93 92 93 94 95 92 99 94 94 97 95 130 120 118 146 117 71 53 122 134 125 122 115 109 109 102 93 105 108 118 121 122 129 126 136 146 154 156 159 168 172 172 183 176 174 167 158 155 147 147 139 140 138 134 135 126 134 128 130 122 131 137 133 141 135 139 138 131 123 120 118 120 117 111 111 107 107 96 95 86 41 20 79 63 48 88 88 81 86 85 91 91 94 92 94 95 93 91 97 91 95 95 106 130 117 111 148 124 75 62 116 135 129 129 118 116 112 106 93 93 107 112 124 120 123 124 133 140 147 154 156 164 179 171 172 178 179 174 173 162 166 163 165 163 164 162 159 151 146 143 144 138 141 139 143 144 140 138 140 127 123 116 116 122 112 109 106 106 101 94 89 64 16 30 79 78 21 72 103 90 84 85 91 90 93 93 92 95 93 96 95 92 95 93 120 131 121 107 147 137 85 65 103 135 137 127 126 115 110 108 99 90 97 105 119 120 125 122 131 136 142 153 156 168 174 175 176 176 178 180 167 161 170 167 169 164 169 169 165 163 156 149 144 144 146 141 141 140 136 140 139 126 121 111 114 116 113 108 111 103 100 82 86 45 17 29 75 92 26 42 95 95 100 87 87 92 92 90 92 93 91 95 93 95 92 95 121 126 120 106 135 148 91 79 92 131 140 130 124 123 115 111 105 93 84 102 104 113 121 116 123 130 133 146 146 167 173 180 178 172 170 181 178 170 171 177 173 170 171 171 169 163 160 155 150 145 139 146 141 139 142 132 134 116 110 104 111 109 112 112 109 94 88 74 86 24 24 36 77 96 40 24 80 88 105 104 97 96 91 91 92 94 92 94 95 93 91 95 116 130 120 106 122 154 109 88 77 131 136 131 129 125 120 115 112 98 86 93 99 101 111 115 115 119 126 129 140 154 161 175 175 170 171 177 177 175 171 175 173 169 169 158 163 161 160 155 146 148 136 138 143 139 137 130 126 103 94 105 109 113 115 105 96 89 74 79 78 15 33 38 85 110 32 36 74 91 98 104 105 110 102 97 91 92 92 94 93 95 93 95 116 128 130 108 109 151 128 101 80 116 134 138 132 128 125 120 112 107 90 88 92 93 100 111 112 113 113 115 127 144 158 168 173 177 176 178 172 164 167 173 172 161 159 148 156 159 155 153 143 137 136 129 143 139 132 122 119 93 90 105 110 111 105 101 90 73 71 86 57 11 39 50 92 117 51 23 76 86 98 97 96 112 106 105 104 97 92 93 92 94 93 93 113 128 132 113 103 136 146 110 92 101 131 135 137 133 126 125 117 109 98 91 87 92 97 102 107 104 108 106 111 132 148 161 163 166 168 175 171 162 164 165 159 150 142 137 146 146 144 150 138 130 133 135 137 128 125 122 101 79 94 103 106 101 97 90 76 70 73 89 33 18 46 60 103 116 66 25 67 91 102 102 95 106 104 111 103 108 102 93 93 92 93 93 113 123 138 122 104 121 151 124 105 89 122 131 136 135 128 124 124 116 106 96 88 88 94 99 102 109 105 105 102 108 135 144 156 153 163 163 169 163 160 161 147 145 132 130 133 138 140 139 134 123 123 131 129 118 119 111 78 82 103 102 99 94 87 75 70 72 84 74 19 33 55 78 108 114 82 45 50 87 102 104 99 100 105 110 106 105 105 102 100 91 92 92 113 110 134 124 109 108 149 135 115 87 116 129 136 138 132 127 123 121 112 106 91 88 87 95 102 110 109 108 103 97 108 128 143 145 150 152 150 155 154 146 132 130 132 127 127 133 134 131 126 126 122 124 118 114 110 82 74 94 101 97 85 83 74 66 72 79 88 49 17 51 68 93 112 112 84 66 44 84 101 104 100 99 103 104 104 103 107 103 104 102 99 94 114 109 125 130 111 96 145 149 127 106 104 124 132 134 133 126 123 121 118 109 101 91 86 90 98 101 107 111 107 102 94 106 117 132 135 143 136 132 135 132 123 121 123 122 119 119 124 120 116 117 116 113 107 106 87 71 86 94 89 81 78 74 67 73 77 87 81 23 37 69 70 108 112 109 79 80 35 86 99 102 101 103 97 102 99 101 107 99 102 108 105 107 116 120 111 132 113 99 129 147 143 125 104 118 128 132 133 133 126 128 121 116 103 99 91 87 88 94 104 107 109 101 93 98 97 109 114 124 125 115 117 116 113 109 108 105 107 106 107 108 103 106 102 100 87 79 71 81 91 89 81 75 73 65 71 78 84 87 60 15 67 77 86 111 117 109 64 97 36 79 100 104 100 103 98 99 99 83 108 87 105 107 106 109 120 129 100 130 119 103 111 134 148 135 116 109 125 131 125 140 126 130 124 122 112 105 99 89 87 86 100 101 105 104 103 98 91 90 95 102 102 100 98 100 96 97 90 93 95 94 92 94 90 89 86 77 70 73 76 88 91 81 73 69 66 69 77 84 88 81 29 46 83 78 101 113 115 107 65 95 47 72 100 102 106 101 96 99 101 96 90 96 108 99 101 115 125 133 94 129 124 107 100 131 144 138 122 115 116 128 130 130 137 127 125 120 117 110 104 91 86 85 91 94 102 101 103 97 100 95 91 84 86 82 84 83 79 80 79 80 82 79 78 78 73 72 71 71 77 77 83 85 85 75 68 64 72 77 77 88 86 64 26 77 91 81 100 125 115 103 69 92 61 60 102 105 105 99 96 100 94 99 102 94 97 98 102 107 130 135 95 123 129 115 94 127 142 151 134 118 118 122 132 132 132 136 128 123 122 116 110 101 93 86 86 91 98 100 98 98 100 98 95 93 88 82 82 79 82 79 81 78 80 81 71 74 72 76 74 74 81 81 81 78 75 68 67 72 82 80 88 89 81 39 58 90 96 84 104 121 117 92 77 89 74 57 101 107 102 102 94 104 90 100 103 98 101 94 100 101 130 138 92 122 127 112 100 100 140 153 127 113 120 121 126 130 132 126 134 131 118 118 113 109 96 89 85 85 90 97 96 98 96 97 95 95 87 88 88 85 90 87 85 87 84 84 80 78 77 78 73 81 79 77 76 69 69 68 73 80 88 83 93 90 65 45 87 92 97 86 107 115 119 89 81 84 85 52 101 108 105 103 93 102 89 103 99 105 97 94 102 101 129 135 92 121 119 116 110 82 145 140 38 67 139 112 123 128 130 130 128 134 132 120 117 110 105 93 90 85 84 88 97 91 95 97 95 100 87 94 91 91 93 91 91 92 86 86 84 81 81 82 76 79 74 70 70 65 72 79 83 88 90 94 97 79 55 70 90 103 100 97 121 122 115 88 88 80 92 51 100 107 105 102 94 102 89 105 95 107 96 97 98 102 132 137 91 121 122 118 106 86 123 108 62 17 122 130 115 126 124 128 132 127 133 129 120 116 109 98 91 88 83 83 90 94 90 96 94 92 94 94 92 94 94 92 92 87 87 85 84 81 81 80 73 75 73 68 71 75 80 87 93 96 95 101 88 68 68 86 90 107 114 62 77 129 119 90 88 79 102 47 99 108 107 100 95 97 89 108 92 105 98 97 101 100 128 139 95 117 128 114 109 102 96 114 95 46 35 150 104 130 127 127 126 126 125 131 131 123 108 107 91 95 82 82 86 86 86 91 94 91 93 93 93 96 92 93 89 86 87 79 84 83 76 77 76 67 70 74 77 84 95 95 97 103 96 94 80 75 94 84 92 97 119 40 12 82 124 93 91 83 103 43 102 107 107 100 95 100 82 105 92 102 97 97 102 101 