P2
92
112
255
120 122 118 123 118 120 120 117 119 121 120 122 118 122 120 119 120 120 117 105 99 102 110 106 101 88 103 98 106 99 103 101 106 109 106 106 108 112 114 106 100 105 106 114 109 98 92 76 71 78 71 68 66 66 57 50 69 61 58 62 60 65 56 64 88 72 69 71 83 109 111 118 113 115 117 118 113 114 113 115 115 115 115 113 116 112 113 111 114 114 113 113 119 119 120 119 120 120 120 120 117 122 119 122 118 123 119 118 120 114 102 94 103 104 106 100 95 94 93 102 106 101 93 95 97 100 104 108 103 98 91 87 86 99 103 101 99 88 82 75 70 67 64 62 55 61 54 53 56 63 50 57 48 46 46 50 65 76 69 66 61 93 111 109 113 117 115 114 115 112 113 116 116 114 117 114 115 113 114 113 116 113 112 116 117 120 120 119 119 120 118 122 120 120 119 118 120 120 120 123 111 95 100 106 102 88 92 96 94 87 88 108 98 84 90 93 93 101 101 87 82 75 85 90 97 109 106 106 97 86 81 74 69 64 61 55 54 57 53 47 45 47 54 46 48 43 40 45 45 52 64 69 62 65 95 115 114 113 114 116 116 114 112 115 116 113 115 115 112 115 112 114 111 113 113 113 119 120 117 119 121 118 120 120 120 121 120 118 122 117 123 111 95 112 121 101 81 78 85 98 89 78 74 88 89 89 90 85 85 81 81 79 81 80 83 94 104 103 102 97 100 88 88 73 67 58 53 50 51 57 51 51 54 50 45 42 46 38 34 36 40 40 49 51 70 57 60 91 114 113 113 115 114 113 114 114 115 114 113 114 114 115 114 112 115 113 114 113 120 119 118 121 117 121 120 119 117 123 119 118 121 120 113 100 116 110 99 82 61 70 67 88 86 73 67 68 76 80 85 88 86 84 94 89 87 76 85 91 97 95 106 98 103 89 82 74 67 65 63 62 63 63 61 56 62 55 51 43 40 45 38 34 35 41 41 39 56 64 46 62 99 112 114 114 113 113 114 111 112 115 111 113 114 115 112 113 114 113 115 111 119 120 117 122 117 121 121 121 120 122 118 120 122 117 110 105 105 94 87 89 72 56 61 71 79 79 68 66 64 79 78 79 85 87 89 91 84 75 85 93 102 96 107 102 94 95 88 80 75 70 72 70 71 68 65 61 56 57 55 50 47 44 48 43 36 35 37 40 45 55 53 48 70 94 119 110 115 115 115 114 114 115 114 115 114 114 114 113 119 113 112 115 121 120 120 120 120 120 119 122 118 121 121 120 113 100 108 99 97 85 77 85 67 58 63 66 56 64 69 62 65 62 70 73 72 71 79 84 76 86 85 93 86 81 88 87 86 93 88 84 86 90 82 78 71 63 54 57 58 50 50 50 43 46 51 47 48 47 43 36 31 37 53 49 50 84 107 111 114 113 116 111 113 112 114 116 115 115 113 114 116 112 113 113 119 121 120 120 120 119 119 119 121 119 119 108 99 108 107 88 93 78 82 80 76 55 57 63 67 57 56 63 63 59 53 61 65 68 65 71 74 75 76 79 81 78 81 82 82 83 91 94 93 86 77 70 65 59 53 58 57 57 54 57 54 54 58 52 57 59 60 54 38 38 34 47 52 59 81 108 112 115 113 116 112 114 112 112 115 114 113 114 115 114 113 114 118 119 120 120 121 117 121 117 123 116 102 94 91 87 77 70 85 68 84 78 70 62 55 57 62 61 58 54 69 62 64 62 64 66 64 67 66 70 59 72 78 81 86 83 100 90 84 80 76 75 62 63 58 54 53 62 59 60 55 56 58 57 65 59 65 64 68 80 66 55 46 36 40 49 52 84 110 112 116 111 115 113 115 112 112 115 111 116 113 114 113 115 119 118 119 122 120 117 120 121 116 97 81 78 73 63 71 75 90 85 89 87 76 70 61 61 63 60 64 65 63 60 66 67 72 64 70 75 76 78 80 88 89 96 88 93 92 82 77 71 70 63 65 59 60 61 65 72 70 68 58 67 66 67 69 71 76 80 78 94 93 85 66 46 31 42 40 57 84 102 115 112 112 114 111 110 112 115 110 116 113 114 115 113 120 120 122 120 120 121 119 123 98 71 67 65 67 79 81 86 94 95 85 80 73 67 64 57 65 69 66 72 76 73 66 66 70 67 61 62 68 72 78 79 80 86 86 80 86 84 85 77 66 63 68 71 78 77 74 74 74 74 78 68 82 84 79 92 88 95 104 97 110 110 104 71 46 44 33 42 62 79 92 113 114 112 116 111 112 114 113 114 116 113 114 114 117 121 122 119 119 119 118 110 74 64 61 55 62 74 78 92 95 91 83 67 71 61 69 67 71 83 78 86 85 79 70 64 55 66 61 61 62 72 67 75 81 86 86 88 84 87 80 74 72 82 86 89 84 85 80 82 77 92 97 88 94 96 92 110 99 98 108 112 122 131 123 111 81 48 41 36 45 60 82 97 110 113 113 112 115 114 114 112 114 114 115 115 118 119 117 119 120 118 115 84 69 52 59 56 65 69 83 92 93 79 74 75 74 60 56 66 73 91 102 100 96 90 80 77 69 63 71 62 71 79 75 71 79 81 78 87 88 91 90 93 96 98 96 92 94 91 90 98 99 103 110 101 105 109 116 129 114 116 118 122 127 141 139 121 115 92 53 43 41 53 60 80 94 107 104 109 115 114 113 111 112 113 117 114 118 120 119 122 120 120 97 71 60 63 65 66 76 68 81 92 91 89 71 53 70 68 67 74 84 92 98 95 90 91 87 76 65 58 63 64 70 70 73 78 82 84 93 95 91 92 89 91 98 101 107 107 107 102 112 114 108 116 123 126 126 121 129 128 130 124 137 139 136 143 143 142 130 121 93 44 38 46 50 74 81 89 106 98 105 115 114 114 114 112 111 113 120 120 116 119 125 112 75 63 63 62 66 67 71 73 85 96 103 89 65 43 46 73 69 91 103 99 102 99 97 95 86 77 75 70 69 78 78 81 85 83 85 86 94 95 89 88 94 102 107 113 118 114 110 117 127 124 127 135 142 133 139 145 144 150 153 152 153 145 146 145 148 148 139 127 119 70 53 44 46 61 79 83 88 107 94 96 110 113 116 115 114 112 121 121 120 120 125 95 55 57 59 57 58 56 69 74 88 104 91 60 51 51 51 80 91 90 89 98 103 107 112 99 92 87 78 81 83 87 94 93 97 93 100 109 104 105 101 98 106 109 108 117 120 121 125 132 132 134 144 144 149 146 155 157 159 164 168 167 165 157 156 148 150 145 146 127 127 104 52 57 59 58 68 81 84 92 106 84 88 103 114 115 116 110 118 119 120 120 125 76 55 62 61 56 56 58 60 79 97 95 82 54 47 54 59 96 114 110 105 98 99 98 105 95 99 102 103 110 126 128 118 115 114 108 110 114 113 112 111 109 121 117 118 126 129 133 142 148 151 149 148 151 161 160 164 166 164 168 174 173 168 154 166 160 157 157 144 140 130 128 85 37 55 57 61 73 85 90 99 93 90 81 95 115 115 116 118 121 122 125 106 71 61 61 53 54 52 64 65 85 100 93 73 66 58 65 79 107 119 118 124 111 107 106 106 106 114 124 134 148 156 150 141 143 144 136 135 138 130 122 127 125 123 127 134 142 147 158 162 160 165 168 167 166 169 171 165 171 170 171 179 176 168 167 169 170 159 157 150 142 140 127 122 55 31 53 60 64 89 94 100 91 86 103 71 92 111 116 119 122 121 126 78 62 61 53 47 45 57 63 73 98 106 89 63 64 66 72 102 121 128 130 126 119 114 123 128 124 129 132 133 141 139 133 145 154 161 159 153 140 140 142 142 137 144 150 157 161 166 171 168 171 177 180 177 176 180 169 167 171 174 173 177 174 176 178 172 176 169 155 152 149 144 133 127 108 38 33 51 68 79 99 96 94 83 79 117 89 89 111 118 121 123 105 60 54 48 47 53 49 58 64 85 106 93 77 72 70 68 84 117 149 153 147 149 149 142 143 150 148 138 143 149 154 159 153 161 155 149 159 171 165 156 152 156 159 165 167 172 176 180 178 174 176 180 184 183 181 179 165 168 174 170 174 175 175 171 180 177 182 180 166 149 151 146 139 129 121 81 46 41 53 80 82 95 100 83 84 87 118 103 90 122 121 119 82 48 43 50 58 55 53 71 81 93 102 97 79 73 66 81 100 120 147 154 155 160 168 174 173 179 175 160 165 169 169 172 167 170 180 181 175 171 174 178 175 177 184 177 178 178 183 184 184 184 184 186 183 183 179 174 173 174 175 172 176 178 172 171 174 177 188 196 176 154 150 150 139 135 122 108 57 55 39 59 87 78 109 90 84 88 94 116 108 118 127 99 57 43 53 57 55 52 60 72 92 91 101 92 70 72 82 91 109 131 149 162 163 166 181 183 185 187 186 186 179 179 179 192 189 183 188 199 195 194 189 189 189 181 187 185 191 189 190 188 189 187 190 189 186 184 179 177 180 181 180 177 175 175 174 178 180 172 191 198 187 160 152 151 141 143 125 120 82 51 53 33 72 84 103 95 78 89 87 96 116 121 121 75 47 52 56 60 57 53 60 76 86 94 85 83 73 78 90 97 119 138 159 159 168 175 183 185 187 187 188 190 190 190 191 195 198 195 191 202 202 202 199 192 193 192 191 191 195 190 191 191 189 188 194 189 188 186 187 182 179 181 181 179 175 177 174 179 180 177 182 195 189 169 156 154 145 142 137 121 112 50 46 51 39 85 97 104 72 83 84 92 102 123 101 45 45 58 62 62 55 55 62 75 85 77 85 85 84 95 99 111 131 148 156 164 175 176 187 184 188 187 191 192 193 195 201 198 200 200 198 201 202 206 204 195 193 199 200 192 194 195 194 193 189 189 191 192 188 188 185 184 182 184 185 179 176 178 177 179 174 175 178 184 181 170 157 159 148 143 143 122 117 78 40 47 51 58 96 95 84 73 81 81 94 122 86 50 58 61 52 58 53 58 62 69 76 85 99 101 99 97 104 121 135 154 158 168 171 178 184 186 187 192 190 195 194 197 201 200 201 197 201 200 201 204 204 200 198 197 197 195 194 193 194 195 191 192 192 190 191 189 188 182 184 186 184 183 180 180 182 182 178 178 179 177 172 168 160 153 150 145 143 136 107 103 51 49 51 56 94 80 90 70 84 68 83 125 83 56 55 46 52 49 52 54 58 67 73 96 104 103 101 104 106 127 141 162 163 168 175 179 187 186 191 192 193 197 196 195 202 201 202 199 199 198 201 201 202 201 198 199 199 200 197 194 195 196 195 194 193 192 192 188 191 186 185 189 188 183 183 185 184 183 177 174 176 173 166 164 162 157 148 145 144 140 113 110 63 46 58 56 78 88 79 69 80 71 67 112 63 50 54 49 45 46 45 50 60 63 82 90 102 104 100 101 114 130 150 160 161 164 175 183 187 188 193 195 195 194 199 200 198 202 201 200 200 200 199 199 200 202 201 200 201 203 201 197 195 196 201 196 194 197 193 190 193 192 187 188 189 185 183 189 185 183 180 171 173 169 166 165 159 150 148 148 145 146 122 110 85 41 66 51 69 84 69 78 73 72 66 84 45 44 57 43 44 41 47 48 61 65 76 94 96 97 97 106 119 138 152 160 167 166 175 184 185 189 193 195 196 196 197 200 200 201 201 201 196 199 197 200 201 200 201 201 201 202 201 200 197 198 199 198 195 198 196 190 193 190 190 188 184 184 186 188 182 177 178 170 172 171 161 166 158 150 149 147 147 144 123 110 96 54 42 62 66 78 57 71 71 71 68 60 39 50 49 41 44 44 42 50 56 63 82 87 91 97 107 109 120 141 157 163 169 167 173 188 184 189 193 195 194 198 196 197 199 200 201 200 194 196 197 201 201 199 199 201 201 201 201 201 198 197 199 198 199 198 196 192 192 190 189 188 187 180 185 185 184 177 172 169 167 165 159 167 158 144 152 146 149 141 129 107 105 63 53 51 67 84 57 51 60 79 69 52 43 42 48 44 45 44 45 44 58 69 76 81 89 100 103 105 125 141 155 166 171 169 180 186 180 187 196 192 196 198 197 197 198 200 199 200 196 198 198 197 202 198 199 200 201 198 201 200 198 196 198 199 198 198 197 189 191 192 189 187 182 180 182 182 179 179 170 169 164 160 160 168 156 144 150 150 146 140 129 109 109 73 50 60 53 92 70 36 51 65 72 46 44 38 41 39 49 42 38 47 53 62 75 81 87 90 98 106 125 140 157 170 167 168 179 184 186 188 193 195 196 195 195 198 197 197 198 199 195 200 198 200 198 199 200 198 200 200 199 199 198 197 199 201 199 197 193 189 189 189 188 187 184 178 179 176 173 173 171 166 159 158 165 163 146 149 149 148 150 145 128 110 114 72 56 59 56 73 95 26 47 54 72 41 37 36 41 45 48 36 33 44 48 67 71 86 79 90 100 112 128 141 155 168 174 173 181 184 190 192 192 194 195 198 196 200 195 198 198 200 199 200 200 200 198 201 201 201 200 199 199 198 197 198 199 199 199 195 192 190 189 191 191 186 182 179 176 181 174 173 164 163 167 156 165 157 140 143 153 146 147 141 128 111 117 83 40 57 59 64 108 27 41 61 65 38 36 41 43 47 42 35 35 38 54 61 68 70 80 93 98 114 130 143 154 170 176 179 181 184 191 191 193 192 197 195 194 198 197 198 198 201 201 199 197 199 200 201 200 200 197 200 199 199 196 196 201 198 197 195 191 190 191 189 190 187 185 179 181 183 174 171 167 166 161 158 154 156 153 145 156 153 152 139 125 116 113 96 58 46 50 53 98 42 35 60 61 35 36 42 46 39 38 35 31 44 53 60 63 61 86 88 102 109 130 148 161 175 179 181 180 186 189 189 194 191 194 197 196 196 198 198 200 200 201 200 197 198 201 199 199 200 200 199 199 198 196 196 197 199 197 192 191 189 191 188 192 186 186 180 181 181 176 176 171 168 160 157 153 159 153 150 155 155 153 140 125 115 116 93 71 54 50 49 86 57 31 53 55 36 35 43 40 42 44 33 41 51 50 56 60 67 85 85 99 109 127 148 164 174 178 180 183 185 191 190 192 192 193 197 197 195 199 198 201 201 201 200 199 198 200 200 199 201 200 198 199 198 199 198 196 195 195 192 190 190 189 188 189 189 184 180 177 180 178 178 175 170 163 160 159 161 156 147 160 156 153 138 130 118 114 102 63 66 50 50 71 71 37 48 56 39 38 44 37 40 46 35 49 51 49 53 57 69 78 81 98 113 130 145 161 170 174 180 182 183 188 190 191 191 194 196 197 197 197 199 201 200 201 200 200 198 201 199 200 199 198 199 199 198 199 199 195 194 194 194 190 188 189 192 188 191 186 182 182 181 180 176 174 170 163 162 167 161 157 147 159 158 150 137 131 119 114 101 59 63 64 56 55 78 39 47 71 50 37 39 45 38 40 55 53 37 44 49 57 66 72 80 96 112 134 148 162 169 178 176 180 185 188 187 191 193 196 197 195 198 198 197 201 201 201 201 198 198 200 199 196 200 199 200 199 199 198 196 195 196 193 193 191 190 189 191 190 192 186 184 178 181 178 179 176 171 167 164 165 164 161 156 162 159 152 136 132 122 114 101 68 63 56 58 51 65 54 48 100 55 54 44 48 36 53 46 38 34 46 43 54 54 78 75 93 116 136 151 160 168 178 177 180 187 189 190 193 190 192 195 194 197 197 198 201 200 201 201 200 200 199 198 198 199 198 198 199 198 198 197 196 195 193 191 193 192 188 191 190 190 186 180 177 180 181 175 176 173 169 170 163 163 163 156 162 154 148 142 133 121 116 102 60 64 63 50 54 53 57 66 118 73 77 52 41 45 46 34 37 38 36 40 51 51 71 75 98 118 144 153 162 166 176 182 182 186 190 189 193 192 194 198 194 195 199 197 200 200 201 201 200 199 199 199 200 199 202 199 199 200 198 196 199 195 195 194 191 191 189 192 188 187 185 182 181 184 182 180 177 175 171 165 163 155 156 161 164 155 149 144 135 120 114 100 63 57 62 54 53 50 39 90 115 97 83 52 32 55 39 38 35 34 36 38 43 52 64 78 104 124 148 157 163 165 175 180 183 188 189 192 193 191 194 197 196 196 198 198 199 199 201 200 200 200 200 199 200 201 199 201 201 199 199 199 197 195 196 193 193 191 191 192 189 187 188 182 186 181 177 179 174 175 172 166 168 160 160 163 163 158 149 148 136 123 115 95 57 55 65 50 46 53 33 87 118 105 91 65 34 48 39 32 33 35 37 40 43 49 64 85 106 136 149 163 163 167 176 176 183 189 192 194 193 191 193 197 196 198 199 197 198 200 198 200 200 197 199 200 199 200 199 199 200 200 199 199 194 194 192 192 195 192 192 192 190 187 187 184 187 186 181 180 180 175 173 172 166 162 165 162 161 159 150 145 136 129 113 93 51 51 62 56 48 41 33 88 117 98 99 95 45 39 39 28 32 37 34 37 41 45 66 93 115 142 155 164 168 162 177 179 182 190 190 193 191 191 192 197 198 196 197 199 198 198 197 198 197 197 199 199 200 198 199 199 201 199 199 200 193 191 192 193 194 193 193 192 191 188 189 185 186 187 181 180 182 179 174 171 166 163 165 162 156 156 152 145 136 126 113 90 37 56 56 59 51 45 25 89 116 101 103 117 73 42 34 32 29 40 31 38 40 49 77 103 127 149 152 163 169 167 175 180 180 186 188 190 192 189 191 198 197 197 200 199 199 198 198 199 199 196 198 199 196 198 196 197 198 200 197 199 192 191 191 193 193 191 193 191 190 189 187 186 185 186 183 184 180 181 169 167 170 169 164 165 157 148 154 146 138 126 109 84 41 49 64 64 55 41 20 85 115 112 107 121 134 48 34 30 34 40 34 41 40 65 90 119 136 154 158 167 164 170 171 179 183 187 190 190 191 190 192 195 194 198 196 200 199 194 197 199 197 194 195 197 196 192 194 197 196 194 196 195 193 192 192 193 191 190 190 189 188 188 186 182 182 182 182 179 180 178 172 166 173 170 166 163 166 161 150 146 135 123 114 76 48 43 62 60 48 30 30 84 116 120 116 132 143 119 61 39 48 47 40 44 42 83 108 126 139 153 162 162 160 170 169 179 187 188 192 191 193 190 196 192 189 191 194 195 195 194 192 198 197 195 193 192 193 191 193 193 194 194 194 192 189 189 190 190 192 189 186 191 188 184 184 181 182 181 178 179 178 177 175 166 173 172 169 166 164 161 148 141 134 121 107 84 28 52 58 62 48 27 41 94 114 132 127 146 151 136 115 85 58 67 59 49 48 89 114 135 150 154 163 166 162 164 168 175 183 187 189 191 195 194 186 180 175 173 178 177 183 181 179 185 189 189 189 189 191 191 192 189 191 191 191 190 188 186 190 191 193 192 188 187 189 184 182 179 183 179 179 176 176 176 173 167 171 172 171 170 163 158 145 137 133 120 104 86 23 49 53 58 56 13 64 110 109 148 146 159 158 146 136 117 94 91 84 62 66 102 120 145 155 158 162 167 162 161 166 173 180 185 191 189 190 184 169 169 157 149 154 157 156 156 160 162 162 173 181 184 191 189 189 185 187 187 187 185 189 185 186 186 192 187 186 185 181 182 175 176 179 179 178 179 175 170 169 168 173 172 174 167 164 159 145 133 132 117 103 86 18 44 51 57 52 14 82 112 108 155 153 169 161 147 141 128 110 110 102 101 95 107 132 151 158 157 162 167 162 163 168 170 175 183 185 182 174 169 160 157 150 139 132 135 144 134 135 133 138 143 153 163 176 184 183 184 185 184 186 185 187 180 183 184 187 179 182 177 175 172 171 176 176 175 173 180 175 168 166 172 174 172 165 161 157 154 138 131 129 115 102 83 19 41 53 51 42 19 101 111 107 155 161 176 152 148 128 103 95 117 111 122 120 123 145 154 157 160 164 163 161 163 167 172 169 172 169 166 164 156 150 145 136 134 131 123 123 121 113 113 120 120 125 127 144 160 171 172 180 180 183 183 183 179 175 184 184 181 178 172 169 164 167 173 177 171 173 164 173 160 152 150 161 156 157 148 151 146 137 130 129 110 105 77 22 39 47 49 30 46 107 106 106 153 175 179 147 136 124 90 76 125 124 132 143 139 148 160 156 161 164 165 165 164 166 156 148 150 156 152 145 143 142 134 127 127 126 115 115 102 104 101 110 109 106 112 112 117 133 151 166 171 175 183 179 178 180 180 176 171 164 168 159 163 162 156 148 146 142 147 148 142 128 128 122 129 136 149 144 132 132 133 122 110 102 77 26 34 48 44 28 79 113 106 103 147 178 174 143 136 123 97 86 125 139 135 147 147 152 156 162 161 168 165 164 157 150 139 137 140 141 146 139 135 133 132 126 124 117 114 112 99 90 91 86 93 92 92 104 105 103 127 154 160 164 178 175 172 178 177 172 166 161 159 158 149 146 134 121 109 103 108 112 113 112 110 107 103 112 127 147 133 118 121 119 100 107 73 24 40 47 33 56 105 107 107 105 150 185 178 149 141 132 119 104 119 145 139 149 148 153 160 162 166 170 166 165 158 142 131 136 135 139 141 148 149 143 134 130 131 136 138 140 134 118 113 100 98 104 99 103 108 112 121 145 149 162 179 175 172 178 176 168 162 154 149 146 140 130 118 103 94 87 87 89 87 89 89 94 100 108 112 121 123 114 116 114 104 107 71 30 42 35 43 88 109 106 105 109 154 183 180 157 152 145 146 123 131 141 140 152 152 153 162 161 167 173 169 165 164 143 134 141 139 135 153 160 160 146 144 138 135 134 131 126 117 97 99 89 87 97 105 108 110 112 124 136 146 162 176 180 180 182 176 165 158 148 138 132 117 107 99 89 79 75 73 77 72 78 80 96 99 99 107 99 105 93 102 95 96 111 66 24 42 27 72 104 107 105 104 108 166 172 193 154 153 170 180 150 152 142 142 152 157 154 165 164 169 172 170 167 164 148 137 142 149 145 144 146 141 121 107 92 80 73 56 57 67 55 101 90 72 71 80 102 109 110 121 136 151 167 177 183 185 184 177 168 154 143 126 113 96 89 90 88 83 85 92 96 104 104 105 96 96 100 100 96 93 93 85 80 74 113 70 21 38 45 102 103 104 103 104 104 177 149 200 164 150 181 183 167 176 145 140 153 159 154 162 166 168 170 168 162 154 152 137 148 146 137 121 101 78 57 76 80 66 64 55 66 81 82 149 136 112 89 88 91 114 113 114 137 154 172 182 185 188 184 174 165 150 132 114 92 83 84 78 66 58 61 80 92 116 129 134 125 118 108 99 95 87 89 80 72 63 110 72 20 42 80 103 103 101 104 104 104 191 140 188 186 136 168 163 181 186 141 144 150 156 155 162 166 171 166 173 164 159 152 142 137 127 116 82 69 67 78 90 116 87 84 86 96 92 134 165 155 125 120 94 121 128 137 113 127 160 179 188 187 190 185 174 160 147 121 94 85 82 71 84 90 57 40 138 58 43 61 80 94 116 115 112 100 95 78 83 70 67 105 75 32 73 96 102 101 102 102 104 103 190 156 158 194 173 156 168 189 185 137 142 149 157 159 164 170 170 175 172 172 171 160 145 126 109 99 98 108 123 131 127 132 135 121 122 114 125 143 151 143 130 127 129 132 160 146 130 125 156 184 191 191 192 188 176 162 142 101 99 107 90 83 125 130 65 85 53 74 58 49 65 45 38 72 89 107 92 90 84 78 79 110 74 67 94 96 95 99 100 102 103 101 185 175 147 184 200 169 166 187 171 133 140 146 154 159 163 162 177 165 170 165 177 175 165 137 126 134 138 141 149 156 155 155 152 148 141 139 139 143 146 141 128 125 148 153 155 143 146 131 159 187 194 197 197 191 175 162 131 98 124 129 97 117 118 140 92 103 96 82 76 70 106 78 35 41 44 89 95 93 88 79 86 111 76 86 99 93 96 99 101 102 103 99 189 187 166 181 202 171 155 179 159 134 140 150 149 154 163 166 174 175 176 179 184 181 181 172 170 169 160 155 154 156 160 166 166 161 153 149 144 145 136 126 114 123 133 145 144 142 150 145 166 190 195 201 199 193 176 155 122 111 131 148 134 131 129 145 128 122 104 94 85 101 118 94 58 31 50 58 91 91 91 75 100 116 84 100 101 90 100 101 97 101 100 100 195 183 175 173 190 182 147 179 146 138 140 151 147 156 163 170 171 178 178 181 185 186 184 185 185 186 172 171 156 153 150 148 142 144 141 139 134 131 127 123 129 140 143 145 144 153 154 158 176 194 199 199 201 194 179 155 121 128 124 145 133 122 118 128 133 130 132 123 114 116 119 106 93 58 49 70 80 87 91 97 107 114 94 98 103 92 96 102 97 101 102 100 193 180 170 169 185 197 166 171 143 138 138 148 144 153 165 167 173 174 180 181 183 186 187 189 191 191 188 188 181 163 156 145 137 135 136 140 143 145 148 149 151 153 150 157 159 158 165 168 183 195 200 200 201 195 180 155 121 132 125 141 143 128 114 112 126 131 131 126 118 124 122 114 109 87 67 80 86 91 105 116 115 110 98 101 106 86 94 99 97 102 101 101 188 180 170 178 189 196 183 162 138 136 141 144 149 151 160 167 175 177 180 183 183 186 190 190 195 192 194 194 188 183 181 177 175 172 170 171 169 160 164 166 169 165 166 165 170 169 175 175 188 196 198 201 199 196 178 151 123 131 128 145 145 140 137 117 105 119 131 134 132 133 134 120 112 102 98 97 98 109 124 122 119 107 92 105 104 88 93 96 98 99 100 102 190 182 176 185 187 187 179 155 139 138 139 144 142 149 158 168 174 177 178 183 186 184 190 189 195 195 194 195 194 186 186 187 185 188 179 174 179 176 181 180 182 184 182 179 183 180 179 180 191 195 197 201 201 192 176 149 125 132 133 141 159 153 152 142 130 113 109 116 118 119 118 114 112 118 121 121 124 124 126 129 122 102 94 117 102 87 91 98 99 98 102 101 186 183 185 184 183 186 182 156 138 141 141 143 145 147 156 163 174 177 181 184 187 187 191 191 192 194 195 195 193 193 191 189 180 187 186 183 186 191 191 190 188 191 193 189 192 186 186 186 191 197 199 200 200 192 179 153 129 133 134 136 160 171 162 150 154 148 141 136 128 120 119 118 126 134 138 129 134 138 130 131 119 101 102 123 99 88 93 93 99 100 100 100 183 183 183 184 181 184 187 153 134 137 136 144 142 145 159 162 168 179 180 187 187 187 191 191 192 195 195 194 195 193 194 192 189 192 188 191 195 196 193 193 195 192 194 193 194 190 189 189 193 198 199 200 198 191 177 149 132 134 142 135 150 173 168 161 161 162 160 168 158 152 153 147 139 150 147 145 132 138 135 130 118 95 116 129 86 87 93 94 97 99 99 100 174 181 184 184 184 185 187 150 131 139 138 143 147 147 158 165 166 175 183 185 188 190 189 190 194 193 196 194 192 196 196 195 198 194 195 195 198 198 196 196 197 195 191 196 191 189 192 188 194 198 201 199 199 192 181 153 134 135 145 141 149 164 171 168 161 162 163 166 161 138 159 160 158 153 151 148 138 135 139 128 116 92 122 121 85 91 91 95 97 96 98 100 163 172 183 184 182 182 178 139 134 134 139 143 148 148 157 165 169 177 180 185 187 188 187 186 190 192 194 195 192 192 198 198 197 198 198 197 198 199 198 196 197 194 193 191 190 191 195 188 183 198 199 200 196 191 180 156 135 136 144 148 149 160 165 173 169 171 166 165 169 157 163 165 159 158 154 151 141 139 135 131 114 93 120 122 84 88 95 91 95 97 99 101 131 162 175 182 179 177 158 135 139 134 140 139 148 151 156 164 167 178 179 184 184 188 186 184 183 192 192 194 191 193 198 198 199 198 199 199 195 200 198 195 193 193 192 192 193 192 195 181 162 196 196 199 196 191 178 156 138 135 147 145 152 163 169 173 179 174 169 175 173 174 172 167 162 159 156 150 144 141 137 129 109 95 125 129 88 87 91 93 94 99 97 101 87 134 153 168 170 163 131 133 133 139 142 129 141 148 157 159 169 175 182 182 180 187 183 187 185 194 194 195 195 195 198 196 198 200 198 199 196 195 196 194 188 194 193 193 195 192 193 188 182 197 198 200 194 192 175 160 145 137 145 145 149 166 170 174 178 177 175 178 176 175 173 166 165 156 151 148 139 138 134 127 105 101 132 135 99 83 94 92 95 95 98 95 92 93 117 131 134 135 106 129 130 135 143 126 132 153 146 158 169 175 181 180 181 182 182 185 191 191 195 195 193 195 198 194 196 197 195 194 196 193 192 192 187 190 192 191 194 190 194 189 193 198 199 198 194 190 182 163 151 138 138 142 150 166 172 176 178 177 183 179 175 176 175 167 163 156 149 145 136 132 128 126 99 105 137 141 102 83 93 93 95 96 97 97 96 93 94 98 101 101 91 130 140 117 138 133 128 148 150 158 173 173 179 178 176 180 181 185 191 191 194 196 190 194 196 193 192 194 194 193 193 190 189 183 179 182 185 185 188 187 194 194 192 198 200 198 193 185 184 168 154 136 131 134 147 165 172 178 181 181 184 183 180 176 176 169 163 155 147 151 123 132 130 125 91 114 132 136 96 84 92 92 91 98 96 99 95 97 96 95 95 92 87 129 136 119 134 137 131 145 152 161 169 169 174 177 162 174 182 183 186 191 192 192 189 191 193 191 193 191 190 188 184 179 179 165 158 176 184 184 180 181 190 192 192 198 196 195 192 185 181 172 160 133 126 126 138 157 162 175 179 176 183 179 177 178 170 167 163 153 147 147 128 124 132 123 86 121 129 130 86 85 93 93 94 97 95 94 97 92 98 97 95 93 89 124 130 128 135 141 131 143 153 158 164 167 170 171 169 168 179 183 184 187 187 189 189 187 188 186 188 189 184 179 174 164 156 147 152 181 185 184 177 173 189 192 195 200 195 190 192 187 179 174 165 134 124 130 128 148 155 170 172 172 183 173 177 177 172 166 164 154 148 145 135 126 130 121 86 121 126 109 85 88 93 93 94 96 96 97 94 95 96 97 96 93 89 123 131 128 129 141 130 143 157 152 162 165 167 167 170 170 177 179 182 185 185 187 184 183 180 175 180 183 176 172 163 155 137 136 157 185 189 188 181 172 189 193 195 202 198 186 187 185 177 175 164 136 128 139 125 136 150 158 166 170 179 175 170 170 169 161 156 151 143 142 133 127 126 116 91 113 111 93 84 89 92 93 94 97 96 97 96 93 95 95 97 94 92 121 123 131 134 138 133 128 151 149 160 162 163 166 166 166 174 174 174 179 183 183 181 179 171 174 169 172 163 156 150 142 131 126 164 187 190 186 182 179 190 191 196 199 201 189 189 187 185 180 162 144 134 160 124 118 137 144 155 164 171 171 172 169 163 156 154 148 142 140 130 125 121 114 92 100 95 84 89 91 90 93 95 93 97 97 94 95 94 96 95 92 86 121 125 126 130 137 130 127 151 143 158 160 161 159 164 165 169 167 167 170 175 178 175 175 171 165 158 153 145 140 139 140 137 125 164 191 189 184 184 185 192 190 191 198 197 197 192 188 183 175 163 149 128 163 131 113 126 136 143 153 162 161 162 155 159 153 150 147 139 126 130 125 111 116 93 82 87 88 88 91 90 93 90 98 96 99 94 95 94 94 91 95 90 116 121 126 126 134 138 132 148 147 155 153 158 157 159 161 165 162 161 167 167 169 164 162 159 153 145 136 131 130 140 149 150 132 161 190 186 185 185 189 192 191 190 194 197 198 193 189 178 176 162 147 129 149 135 113 117 124 131 145 153 157 155 150 155 152 144 140 137 120 124 124 112 109 86 86 86 90 85 92 92 93 96 97 96 96 94 93 96 92 96 94 85 116 118 119 126 131 136 136 145 145 154 147 156 155 154 161 162 161 162 164 156 158 153 152 145 137 131 121 128 137 153 158 156 149 142 174 181 181 170 184 186 191 190 188 192 193 189 183 174 170 161 145 128 133 131 126 123 119 123 130 139 147 150 146 152 144 143 135 128 117 118 118 107 109 88 82 88 87 88 89 96 94 97 97 98 95 91 95 94 92 93 94 86 108 118 120 121 131 133 139 144 149 153 151 154 151 156 150 158 161 155 155 151 146 141 138 128 120 119 121 137 143 154 163 157 153 131 137 158 165 154 162 172 178 182 182 182 182 179 178 171 159 152 138 122 125 120 132 127 124 118 121 124 139 140 142 143 140 136 132 123 114 112 112 107 104 81 85 85 91 87 91 93 93 94 96 97 95 93 95 94 96 91 98 88 105 118 117 116 130 129 140 143 151 151 157 155 155 159 144 155 155 152 147 144 140 123 116 112 115 122 129 142 141 150 163 170 161 132 105 109 117 125 129 144 165 174 178 177 174 169 164 161 154 141 124 106 106 106 134 123 127 116 113 109 128 131 136 134 129 130 126 117 102 106 109 107 96 84 88 85 89 91 88 95 96 96 96 98 94 92 92 96 91 93 97 86 103 114 112 111 124 126 138 143 150 152 159 159 157 160 155 152 154 147 144 129 121 104 111 120 126 133 134 139 131 153 155 166 155 137 120 101 103 94 84 106 136 149 157 158 149 151 153 150 139 119 90 83 81 104 132 125 126 122 109 99 111 120 125 130 126 123 118 114 106 105 106 103 91 83 87 85 88 89 91 94 94 93 97 99 92 93 94 93 91 93 94 90 107 112 110 106 119 124 136 141 147 152 156 156 162 161 162 159 160 146 134 112 99 110 135 133 135 134 136 126 128 139 135 147 143 135 133 117 111 103 80 68 98 120 128 124 122 122 127 122 106 73 57 66 79 107 135 135 129 121 115 104 92 103 115 125 123 117 112 109 104 104 104 98 88 83 84 87 89 89 93 93 93 98 94 95 97 93 92 93 93 92 94 97 109 114 106 107 111 122 132 141 145 151 158 157 162 165 160 162 157 143 126 101 110 129 136 125 129 122 129 118 131 125 127 135 140 134 131 133 125 122 98 75 70 82 100 104 101 98 96 81 65 69 78 74 90 104 114 146 132 118 101 117 104 86 98 115 115 115 110 107 105 107 105 101 83 84 88 84 89 88 92 95 96 93 96 96 92 96 91 93 95 89 110 89 99 112 107 104 103 119 123 138 145 151 150 155 157 166 169 163 157 146 133 107 110 126 120 123 126 118 126 122 136 139 126 122 146 130 128 134 139 130 116 95 68 68 71 70 75 72 60 62 72 85 107 98 91 98 100 120 135 119 93 114 118 101 86 103 116 114 112 110 106 106 104 99 82 83 87 85 89 88 91 96 94 96 95 95 98 91 94 92 89 101 124 55 94 117 106 105 98 111 116 134 141 150 152 155 155 163 163 165 157 155 137 116 105 116 108 119 119 112 117 119 131 145 125 125 146 127 127 136 153 133 122 114 87 80 62 61 60 82 57 74 91 92 96 123 98 93 97 109 126 124 92 100 103 109 89 103 116 112 113 110 113 106 104 93 83 85 88 86 88 91 92 93 91 99 92 96 95 92 95 92 89 126 114 28 92 121 110 104 100 105 114 125 136 149 150 153 151 160 164 162 159 158 145 112 100 108 105 111 102 101 113 105 116 135 114 136 135 125 139 135 152 127 115 133 125 113 67 66 71 104 88 95 105 102 77 119 103 90 87 107 108 116 96 84 96 102 105 115 123 120 118 114 114 103 99 94 81 85 86 87 88 90 92 95 93 95 95 94 97 95 93 87 102 142 89 19 87 121 112 104 97 97 111 122 131 137 146 146 151 152 160 156 158 167 144 103 94 102 104 110 88 102 104 94 103 125 113 142 127 125 128 128 132 109 106 136 150 132 86 89 98 132 110 98 112 91 85 99 103 93 88 98 95 112 97 86 89 95 117 131 129 119 121 115 112 106 95 84 84 84 86 85 88 92 90 95 95 94 95 95 96 93 94 82 122 135 76 10 78 121 114 105 104 94 103 115 130 133 141 144 153 152 157 158 159 165 154 112 97 99 101 97 95 98 92 87 110 101 115 122 125 130 125 117 118 94 100 134 145 121 92 99 103 123 119 98 108 87 81 102 105 85 85 97 81 87 116 67 104 95 126 145 130 118 121 111 112 102 92 81 83 84 86 88 87 89 93 94 94 94 96 93 97 92 94 96 137 126 62 13 71 127 118 111 105 97 95 109 123 127 136 143 145 150 159 156 156 162 164 133 108 97 87 96 106 99 90 89 105 94 105 117 124 136 115 99 113 83 104 127 131 106 102 89 100 120 109 100 94 84 72 96 96 86 82 91 80 77 103 78 85 119 137 145 128 129 120 107 104 95 88 82 83 89 83 88 87 91 93 93 91 97 92 95 93 110 110 115 140 116 56 14 75 130 119 112 107 102 95 97 118 126 132 134 133 140 150 152 153 156 160 141 124 107 95 101 116 109 98 99 109 106 100 106 122 120 101 95 104 87 100 131 120 80 88 63 102 118 108 86 92 87 68 83 97 93 86 77 80 72 91 79 93 130 136 140 130 128 111 110 101 88 84 83 85 86 85 87 90 90 96 93 94 93 94 95 92 110 88 108 145 107 58 18 74 134 119 114 113 107 96 95 111 123 125 127 117 125 138 143 149 152 153 147 133 120 122 120 128 127 118 116 117 121 114 112 120 116 104 101 99 94 107 137 108 93 94 81 95 116 107 92 70 78 77 79 86 95 83 76 80 77 83 85 109 138 136 139 124 104 103 107 92 84 82 83 86 83 86 86 91 91 93 93 94 94 95 95 95 82 100 121 147 100 65 27 84 135 122 120 116 110 103 94 99 115 125 122 119 114 131 140 144 143 144 151 146 129 133 138 140 143 138 133 130 133 126 116 127 131 116 110 112 102 111 130 103 113 114 102 89 108 107 107 74 62 92 84 79 87 85 90 83 92 92 105 121 131 133 124 112 104 101 98 91 79 81 85 83 86 85 88 89 89 94 91 93 92 96 95 92 112 120 122 151 96 73 35 103 131 122 125 115 113 106 98 91 110 115 118 119 118 122 133 133 139 137 142 143 133 132 142 149 143 152 150 147 150 137 130 129 130 121 116 115 108 115 112 111 124 120 114 93 98 94 101 87 81 91 91 84 89 89 94 93 100 107 126 129 132 124 118 106 99 99 93 82 79 82 84 81 88 85 87 90 91 92 94 93 93 95 93 94 129 117 123 150 101 74 49 111 126 127 124 119 116 112 105 95 100 115 114 117 121 117 127 124 128 132 137 140 133 138 146 155 152 158 162 160 161 151 148 138 132 115 120 116 106 99 103 117 114 120 118 103 96 94 90 91 89 87 95 94 100 100 102 106 107 115 129 135 126 114 108 103 100 98 83 78 85 81 84 86 86 88 87 92 92 90 94 92 95 93 94 93 131 116 118 151 104 72 72 106 131 127 127 121 119 111 111 101 90 104 113 113 118 119 121 122 126 125 128 131 134 144 152 159 163 163 165 167 166 164 158 150 140 127 123 114 108 99 111 120 115 116 119 104 92 93 91 92 96 96 106 105 109 109 112 112 114 124 130 125 117 107 106 99 98 89 70 83 80 85 84 85 85 90 89 93 88 92 94 95 92 96 93 93 130 117 117 148 115 73 75 109 129 130 129 123 120 114 112 103 97 92 104 111 113 117 113 117 116 123 122 129 133 146 157 156 162 166 169 172 170 170 165 158 150 139 134 124 114 114 115 114 116 113 115 108 100 96 102 108 108 113 119 113 118 117 119 112 118 124 123 118 106 104 100 95 90 71 38 72 87 83 80 87 84 89 89 92 89 93 94 93 91 96 92 91 128 116 111 145 128 79 78 107 126 134 130 125 123 114 110 108 101 92 97 106 111 114 115 117 118 124 118 126 134 151 152 153 163 171 169 174 175 169 170 164 154 151 138 134 126 124 124 124 120 116 120 114 110 106 110 121 120 125 127 122 123 122 117 115 118 119 118 106 103 101 95 89 74 74 15 54 86 86 87 83 86 90 88 91 93 90 92 94 93 93 92 92 129 115 111 141 139 86 79 101 127 135 131 130 124 116 113 108 105 97 92 96 107 110 118 114 118 125 117 125 137 150 153 157 157 171 168 169 178 175 172 170 164 157 153 147 147 144 140 139 138 133 132 133 129 124 123 134 132 134 135 129 129 122 111 114 115 112 113 100 99 94 88 77 50 83 22 30 74 86 101 86 87 88 87 92 94 88 96 91 93 94 92 94 131 117 109 132 146 97 88 89 125 136 136 131 130 118 115 111 105 99 90 90 101 106 111 117 114 119 117 124 132 142 152 150 157 166 175 169 168 174 174 173 168 169 161 166 163 165 162 162 159 154 150 143 138 136 135 136 136 141 138 129 129 120 112 111 112 112 100 96 96 88 85 46 35 87 35 15 62 81 100 101 95 91 89 93 92 91 90 93 92 94 93 90 125 121 106 122 155 112 90 85 120 133 140 131 130 131 114 112 110 103 96 87 91 103 104 112 115 121 114 121 130 132 146 152 159 160 174 174 171 174 172 178 174 159 164 171 167 166 163 165 161 159 157 150 139 140 141 139 142 137 131 130 128 117 112 104 109 106 97 96 94 86 57 22 40 90 42 16 51 83 92 98 98 108 97 99 91 91 91 95 89 94 93 91 129 123 108 107 153 129 104 75 116 127 140 135 131 126 122 115 113 107 100 88 83 97 95 105 110 111 114 114 123 129 136 149 151 168 170 174 174 167 168 171 182 172 173 170 176 168 164 168 165 160 157 155 143 147 137 140 145 133 135 126 124 112 107 96 101 95 96 94 86 56 17 32 42 88 56 9 57 71 91 95 97 109 106 103 104 95 91 92 90 92 91 93 131 131 110 105 130 147 111 91 101 123 133 138 132 131 127 118 114 111 103 93 84 91 93 95 101 107 107 109 112 121 124 135 145 157 161 172 172 163 167 171 178 175 175 167 174 167 163 158 153 154 158 154 145 140 140 130 141 135 129 126 114 102 89 94 95 102 95 76 75 25 23 26 50 93 73 2 63 80 95 97 84 106 102 109 102 103 100 93 90 91 94 90 129 132 112 111 111 150 128 101 92 119 130 136 134 132 130 126 120 106 110 98 87 88 91 91 90 98 105 108 106 111 110 119 135 150 154 165 170 170 174 171 174 163 166 166 171 160 154 150 146 153 156 150 145 133 133 131 132 136 123 120 110 86 81 91 97 91 81 73 60 11 28 35 58 99 84 11 50 80 97 96 97 97 101 112 106 99 104 102 96 94 91 91 123 142 120 113 98 146 140 118 86 110 122 132 132 132 127 126 125 116 107 103 94 90 90 90 93 96 97 102 101 103 104 108 122 144 149 160 159 163 165 169 170 164 161 160 161 149 141 136 136 145 144 143 142 129 128 132 130 126 121 113 98 74 77 87 84 77 70 75 38 13 33 41 73 109 93 35 42 77 98 101 98 97 102 102 107 99 104 103 101 101 94 89 104 137 125 111 97 133 152 122 98 105 116 127 132 133 126 127 124 124 113 108 100 89 86 90 91 97 96 101 105 99 101 100 106 125 138 148 154 150 159 160 164 162 158 159 152 141 135 127 129 135 135 137 133 126 122 122 128 116 111 107 73 73 83 79 73 67 67 66 18 20 39 49 92 112 86 60 35 74 95 103 99 95 97 99 99 98 104 104 99 104 102 101 97 133 131 113 100 120 153 142 120 101 114 122 131 133 133 122 122 123 120 111 104 98 92 86 93 89 104 103 107 105 107 99 100 100 123 133 143 140 149 153 148 156 154 150 135 127 129 126 124 127 137 131 127 124 119 117 118 107 103 82 66 76 78 66 67 67 75 42 14 31 50 64 104 113 81 78 30 76 93 101 99 101 98 98 93 95 103 101 90 106 105 108 107 119 135 110 109 103 143 146 137 116 111 116 128 133 129 124 122 118 121 117 108 103 92 90 87 90 95 104 100 111 111 103 101 90 102 115 123 134 134 139 133 131 135 132 122 118 119 123 119 118 122 124 116 119 113 109 105 100 81 67 68 69 67 63 68 72 67 18 22 47 62 84 112 118 74 87 37 72 96 101 102 99 98 92 103 84 90 101 93 106 101 109 113 110 129 121 108 96 127 137 150 128 112 113 121 124 133 127 123 127 122 117 115 102 107 93 91 86 91 97 100 106 107 106 98 95 91 96 104 115 116 125 126 117 119 118 111 111 104 107 101 109 109 113 105 104 98 96 88 81 67 71 65 64 63 70 69 70 47 11 41 55 68 108 107 118 82 83 45 64 99 103 102 99 95 95 95 102 94 89 98 107 90 108 119 104 131 126 112 96 115 137 147 130 122 112 119 124 123 128 130 121 121 118 115 111 106 102 91 90 90 88 99 107 103 105 103 98 93 88 87 93 101 102 106 101 99 101 97 96 89 91 91 96 94 93 90 86 81 79 69 72 70 69 63 62 67 70 70 62 25 24 59 75 72 110 119 116 85 76 62 58 97 104 101 98 93 100 88 97 100 97 96 93 97 98 120 103 124 131 120 100 104 140 141 152 125 118 114 123 124 126 134 129 121 118 115 115 110 106 96 90 88 85 93 96 102 104 104 100 100 94 91 86 84 84 86 82 85 85 81 80 77 79 79 79 79 76 72 68 70 73 69 69 68 65 61 68 69 69 67 49 12 51 74 87 76 112 124 110 86 73 75 54 98 104 102 97 93 102 86 99 96 104 97 95 98 100 122 100 124 130 119 109 89 122 142 155 125 121 113 119 125 129 129 129 130 118 117 116 113 107 99 95 91 85 89 94 100 102 102 100 99 98 97 90 89 80 82 76 76 78 79 77 73 76 75 72 69 70 69 69 69 73 69 66 63 64 67 70 67 73 61 29 30 73 86 88 80 109 118 114 84 72 85 49 99 104 102 99 91 107 84 98 97 102 98 93 98 99 126 94 123 122 117 115 89 105 157 130 41 103 132 115 121 126 127 124 128 128 114 115 114 111 105 96 92 85 85 88 91 99 98 99 97 97 95 96 89 84 84 81 78 81 80 80 77 78 75 75 72 74 73 70 70 69 64 62 66 67 71 68 74 70 49 26 59 81 94 89 95 117 116 111 89 72 89 55 93 107 99 101 92 102 85 99 99 101 101 94 98 99 