P2
92
112
255
120 123 119 123 120 122 123 120 121 120 123 118 120 121 121 121 120 122 121 121 116 115 113 125 122 117 122 116 123 126 124 112 110 113 107 116 119 114 110 108 104 93 84 78 74 72 66 69 80 72 65 72 69 66 59 57 66 84 92 75 68 72 76 64 80 78 111 112 118 115 117 115 116 118 117 117 119 115 119 118 115 118 114 114 116 114 115 116 115 114 113 115 122 122 121 121 120 120 121 120 123 119 120 119 118 121 120 121 121 122 120 111 109 112 114 114 116 114 113 113 108 107 103 99 105 104 108 112 111 109 111 110 97 92 90 79 83 79 72 67 63 75 61 60 64 61 62 56 52 58 71 82 79 83 71 69 62 57 84 108 115 115 116 116 119 116 114 119 117 117 119 116 118 118 119 114 115 117 117 114 116 117 114 114 121 121 120 122 121 120 121 124 120 121 119 120 120 123 120 121 123 117 103 103 106 110 105 111 102 103 105 103 97 95 97 100 96 97 100 104 106 103 102 100 94 84 77 74 70 65 66 61 54 58 64 57 57 53 50 52 51 46 47 61 63 67 82 77 66 63 53 92 106 118 115 115 117 118 118 117 117 115 117 118 116 118 116 117 115 115 118 114 117 114 115 114 122 118 122 119 121 120 120 123 120 119 120 120 121 120 122 122 117 100 97 101 99 103 96 99 95 96 95 90 93 95 90 92 84 85 102 108 107 104 94 96 92 80 78 72 64 61 62 61 52 54 51 51 49 50 43 44 40 46 44 41 47 56 59 76 68 66 58 65 85 116 116 113 118 118 116 118 115 117 117 116 119 116 117 115 117 116 116 114 120 115 115 117 121 120 120 122 122 119 121 121 121 120 119 120 120 119 122 116 101 93 99 95 88 97 99 95 84 81 84 85 90 81 78 82 86 96 103 104 108 106 100 97 91 82 69 64 57 65 62 64 62 64 56 51 49 49 47 45 41 38 42 43 40 42 48 67 61 63 59 53 63 96 119 113 114 120 118 116 116 118 116 120 117 115 116 117 115 116 114 116 115 115 116 115 121 122 121 121 120 121 120 120 121 121 120 120 119 123 111 101 85 93 97 88 78 95 98 80 74 82 74 77 72 75 79 77 79 88 90 95 104 106 104 92 85 79 78 80 75 74 77 65 68 70 58 56 56 49 51 48 53 46 43 50 45 42 44 43 52 64 65 62 51 62 100 115 114 118 117 116 112 115 114 116 116 114 116 114 117 114 116 115 113 115 114 116 121 120 120 120 120 120 117 125 117 121 121 122 121 124 98 77 75 83 90 76 69 73 78 81 88 81 73 73 82 83 76 75 77 83 90 99 104 105 106 105 100 92 86 88 86 86 82 74 66 58 58 55 56 50 50 49 53 53 54 66 53 59 50 41 45 47 61 65 57 52 70 96 105 118 116 116 118 116 114 115 115 116 116 115 118 114 119 112 116 116 115 115 122 123 121 121 121 121 119 123 120 121 122 121 123 113 95 59 61 73 77 71 66 60 68 72 70 79 81 82 84 76 71 76 82 88 92 99 87 96 103 94 91 97 106 94 88 80 70 64 69 63 64 60 59 54 57 57 57 58 60 73 72 87 78 65 54 55 42 47 61 55 45 51 82 101 108 114 113 117 114 117 111 116 111 118 117 115 117 114 114 113 116 117 119 121 119 121 122 117 119 123 118 122 122 113 105 101 80 69 56 59 65 73 65 59 59 71 68 65 65 68 71 72 72 77 80 82 80 81 84 90 85 100 104 103 98 87 86 72 67 65 66 63 63 62 57 61 57 60 69 68 64 78 83 89 102 95 91 77 66 54 35 50 45 39 57 77 90 104 111 114 114 113 116 111 115 115 114 118 113 116 117 115 114 115 119 121 121 118 124 117 120 122 121 118 107 109 88 78 79 63 60 64 55 54 64 58 55 59 55 62 61 64 65 64 67 68 72 71 72 76 84 95 91 100 97 92 79 74 76 65 67 70 76 73 68 65 63 69 70 69 76 83 85 83 99 107 120 109 112 111 100 84 56 38 42 43 42 63 78 92 98 106 115 112 114 113 113 119 113 115 115 118 114 115 116 115 118 120 121 117 122 118 118 119 120 110 99 90 77 73 75 63 57 56 58 53 56 61 60 58 54 56 61 59 61 63 55 64 70 76 88 90 95 92 85 88 82 77 74 74 76 80 79 82 81 73 71 73 69 80 87 86 90 99 101 103 106 111 133 132 132 130 122 112 98 70 45 38 44 46 66 83 97 95 102 112 112 115 115 119 114 115 115 115 116 112 115 115 118 120 121 118 122 121 116 122 106 84 85 72 66 71 77 58 59 55 62 53 54 52 62 60 59 61 59 61 68 66 72 75 76 81 86 82 84 87 82 90 81 75 77 80 94 91 89 87 81 75 82 91 89 94 103 99 107 112 110 112 115 119 136 140 146 150 137 127 121 110 85 50 44 46 60 66 78 97 98 101 101 112 112 116 116 116 112 115 114 115 115 115 120 119 119 122 118 119 119 104 71 61 76 73 70 72 82 70 61 59 65 58 58 60 64 64 63 60 60 52 57 63 65 65 68 73 83 84 87 90 89 88 85 87 99 102 101 100 93 93 88 91 100 105 107 105 119 116 129 132 121 128 128 137 142 147 150 157 153 139 136 133 115 86 37 43 51 64 77 79 95 98 99 99 102 110 110 119 114 117 113 116 117 116 121 117 121 118 120 109 97 73 65 64 76 87 75 78 76 67 66 62 59 68 62 68 77 70 64 54 58 58 54 59 64 63 70 78 76 78 83 85 94 96 98 97 101 101 101 103 101 107 112 112 115 119 127 131 126 127 136 134 140 139 144 157 156 153 157 156 164 155 136 144 131 114 75 42 49 52 69 83 86 99 98 101 94 89 97 106 116 116 117 112 116 117 121 120 119 119 118 100 66 62 68 67 76 89 84 74 70 66 64 62 68 81 83 85 84 72 70 64 63 66 56 68 61 61 63 65 76 82 88 91 97 88 92 104 107 118 119 113 119 126 126 126 130 138 138 143 148 150 157 157 164 163 158 155 168 161 160 161 157 157 149 141 139 134 99 68 61 64 57 70 81 92 100 93 102 84 83 87 97 111 116 115 113 115 120 117 122 117 113 89 53 53 63 66 80 86 83 75 71 68 54 58 57 80 92 89 81 79 72 66 52 55 60 64 64 66 69 76 81 84 87 83 87 93 106 108 117 118 122 115 129 133 137 146 145 149 152 167 160 164 170 170 171 173 167 165 167 170 161 169 164 157 157 144 141 141 127 86 47 57 60 62 78 89 102 88 93 97 88 86 84 76 99 115 118 110 118 122 119 115 106 69 54 61 66 69 80 91 85 70 65 67 57 63 87 89 96 91 84 84 72 71 64 61 69 66 73 79 70 81 91 95 97 89 94 103 108 116 120 123 128 133 142 145 152 154 155 164 163 172 173 172 172 176 174 174 167 167 168 174 170 170 170 163 156 158 144 142 132 121 62 43 57 57 67 92 104 108 85 89 92 96 82 86 97 94 110 114 121 122 118 118 88 62 61 59 68 67 87 104 88 60 49 60 55 69 87 94 103 94 99 92 79 71 72 77 78 91 93 96 92 99 107 104 105 106 108 121 121 126 133 138 151 160 160 162 169 168 165 171 175 175 177 177 177 179 175 174 174 173 172 174 172 169 173 164 161 159 156 140 139 132 109 47 38 58 68 83 94 108 95 77 91 88 99 82 89 104 102 112 117 120 124 109 66 58 52 56 66 75 100 90 67 55 49 62 73 88 87 88 94 94 93 87 90 88 96 115 126 121 114 114 113 114 119 131 122 125 126 123 131 144 147 163 169 169 170 177 183 180 179 181 176 173 176 177 178 176 176 174 176 178 171 175 176 176 174 167 168 159 156 150 142 133 125 89 35 35 60 82 80 102 105 88 82 90 89 103 80 86 113 104 121 120 125 91 57 51 51 60 64 85 96 77 64 57 51 64 93 106 108 99 99 96 100 95 105 117 132 142 138 135 136 142 140 141 138 136 143 139 143 150 162 166 175 182 179 176 178 184 187 187 185 181 174 172 178 177 178 178 176 175 174 175 178 177 180 177 180 169 167 165 155 157 146 139 126 120 72 44 28 69 86 83 110 94 88 85 97 81 105 80 99 108 120 122 122 79 53 51 53 54 73 90 96 82 70 64 64 75 101 107 114 105 101 110 113 116 121 125 134 134 127 129 140 131 140 149 156 158 157 165 170 176 177 182 188 187 186 182 185 187 187 190 183 178 177 179 179 182 181 180 179 176 178 177 178 180 179 180 181 182 170 168 156 158 157 141 129 127 103 55 39 37 79 84 103 93 96 76 91 93 88 94 87 97 121 126 105 63 45 47 52 62 85 104 87 74 74 67 75 103 127 130 133 129 125 126 143 132 132 138 148 151 152 154 156 153 154 168 173 178 178 186 191 188 189 190 197 192 191 191 191 191 190 188 182 179 183 185 182 183 181 180 180 178 182 183 179 182 180 181 186 190 183 175 159 155 159 153 134 124 129 71 42 41 40 90 96 99 84 92 73 97 77 92 84 92 122 118 72 50 36 53 51 75 97 95 88 82 70 63 85 113 140 139 145 150 157 161 169 156 152 160 163 162 166 166 172 180 181 185 188 195 199 194 198 198 203 201 202 198 193 192 196 192 193 190 190 188 185 185 185 184 182 184 180 180 181 180 179 176 181 179 183 190 187 182 164 159 157 158 143 122 122 113 45 45 42 54 99 94 94 81 81 92 69 79 81 95 126 97 52 54 50 60 69 90 87 95 94 69 74 81 99 120 140 153 151 167 176 180 180 182 178 177 170 183 186 186 177 187 189 197 202 199 202 201 203 204 205 201 203 199 193 194 199 195 192 193 192 192 188 186 187 181 181 183 184 183 183 181 179 181 177 179 182 187 181 177 166 164 160 158 151 123 120 121 72 51 53 47 90 90 101 70 83 84 80 68 78 75 120 75 49 51 53 69 85 77 90 87 83 78 77 86 105 126 146 152 158 173 181 181 181 186 186 185 187 187 191 190 190 190 198 199 204 205 205 204 205 204 203 201 202 200 197 195 197 198 195 193 194 192 188 190 187 186 184 187 184 188 185 183 182 184 178 177 177 181 181 177 165 162 160 158 155 135 112 124 100 55 65 45 74 91 89 77 73 80 84 61 68 74 122 62 53 59 52 66 74 83 83 82 74 80 96 101 116 138 145 157 166 175 182 178 185 187 188 189 194 194 197 194 194 195 197 201 204 202 204 203 203 203 202 200 199 201 200 199 197 198 197 194 193 193 191 190 191 190 188 188 188 187 189 183 182 185 179 179 174 174 173 170 163 163 159 159 157 139 115 124 111 67 56 58 64 92 66 77 66 81 78 65 60 70 102 62 56 53 58 60 70 77 79 84 89 100 101 112 128 144 145 161 163 177 181 180 188 188 192 190 196 197 199 196 197 195 197 201 201 202 202 200 202 202 203 200 199 202 201 199 198 198 196 195 195 198 193 192 194 191 187 192 190 188 188 187 182 184 182 180 175 175 170 165 162 161 161 159 156 142 114 123 115 78 60 63 68 90 63 62 57 65 79 69 58 63 76 59 56 58 56 54 62 80 91 101 100 103 104 117 131 146 150 161 165 178 183 183 188 190 193 192 199 198 200 199 196 196 196 195 200 200 202 201 202 201 203 200 200 202 202 201 198 200 200 196 198 199 197 194 196 191 189 193 189 187 187 183 182 180 180 173 176 171 168 162 162 161 162 160 150 145 118 123 122 89 63 58 67 100 76 46 56 47 73 76 56 56 66 47 58 53 48 52 64 85 86 100 95 96 102 116 137 150 153 156 174 179 184 189 190 191 191 196 198 198 199 198 196 197 193 195 200 198 200 201 200 200 200 200 202 200 201 201 200 202 201 199 197 199 196 195 197 191 188 191 189 189 188 183 180 179 175 170 177 174 162 161 160 162 163 156 150 143 124 120 123 97 66 67 57 81 105 40 45 50 57 74 56 50 55 51 49 42 44 57 69 77 87 91 89 90 103 115 141 147 151 154 171 177 185 190 192 191 191 196 199 198 198 200 194 193 194 195 201 198 197 199 201 196 200 202 200 201 201 201 201 203 203 199 196 200 199 196 194 189 187 188 189 183 186 182 180 175 170 171 177 168 157 165 156 159 163 160 152 142 126 120 129 108 62 62 65 62 113 54 25 60 45 77 53 49 61 48 40 38 51 60 63 74 86 80 88 96 108 120 143 151 156 156 173 182 184 190 190 190 195 196 196 197 199 198 192 196 192 196 199 199 197 199 199 197 199 199 201 199 201 201 203 200 200 199 192 195 197 195 193 190 185 186 185 182 182 179 177 176 169 177 173 164 146 158 161 162 163 157 145 144 129 122 130 113 78 44 56 60 100 72 24 43 51 66 53 51 51 44 41 45 46 55 59 80 76 81 93 95 103 127 143 157 155 159 174 172 183 190 190 191 195 197 194 194 196 196 193 197 195 196 195 199 199 199 199 199 198 198 198 199 200 201 201 200 197 198 194 196 196 194 192 189 184 185 187 184 181 175 173 174 171 168 166 165 162 161 163 167 165 159 144 140 127 126 125 113 94 55 51 44 77 87 26 38 41 61 50 49 49 40 41 45 40 53 67 70 72 88 87 92 105 127 141 157 155 160 172 177 184 191 191 194 194 195 195 193 194 194 194 194 195 197 199 199 199 201 200 198 199 199 197 200 200 201 200 200 199 196 195 196 196 194 194 191 185 186 187 184 181 178 177 171 168 166 163 166 166 162 166 169 166 160 146 141 132 128 126 116 94 66 57 48 69 88 44 32 44 59 48 41 42 37 45 39 40 50 60 67 73 80 81 91 105 124 143 157 156 162 172 182 187 188 191 192 194 194 195 191 194 197 198 197 197 196 199 201 199 200 198 197 198 200 197 198 200 202 200 199 194 194 195 196 195 196 193 190 188 185 187 184 183 183 179 176 169 169 169 170 166 162 167 172 170 157 145 145 130 129 126 117 94 74 65 60 64 89 53 35 50 55 42 57 38 43 42 35 41 47 56 67 73 74 76 94 109 125 137 159 160 166 175 181 188 189 188 194 192 195 195 192 197 196 197 197 198 197 200 201 200 200 199 200 198 199 197 200 199 201 199 198 193 196 196 194 193 193 194 190 186 186 187 187 185 183 181 176 172 173 175 171 169 159 166 174 167 155 145 144 134 130 124 115 98 72 64 63 63 69 72 34 52 47 40 91 38 44 40 38 35 49 53 64 66 75 77 92 108 125 141 162 163 166 172 181 186 189 188 193 191 195 195 195 195 197 198 197 198 197 201 200 199 199 200 200 200 200 198 200 200 198 197 196 198 196 193 196 193 194 196 191 188 188 187 187 187 183 183 179 177 175 177 172 174 167 170 169 168 156 149 149 133 132 125 118 93 81 66 65 64 61 65 46 42 41 42 118 40 42 39 30 44 44 59 54 67 76 76 89 104 126 146 164 163 172 173 180 185 188 192 192 192 193 196 195 196 195 198 200 199 198 199 200 199 200 199 201 201 199 200 200 198 198 196 197 197 193 194 197 194 194 195 191 187 189 185 187 188 184 180 183 179 178 175 174 174 171 170 171 161 159 152 145 138 131 122 119 95 78 66 72 66 60 51 51 39 40 44 115 43 43 39 36 40 52 51 57 65 72 75 92 104 122 147 158 160 167 170 179 183 188 187 195 190 193 197 197 197 198 196 202 197 196 199 199 199 197 199 200 198 198 198 198 197 197 197 193 195 194 196 193 195 193 194 190 189 186 186 189 188 183 183 181 178 175 175 169 162 175 170 171 166 159 159 150 135 129 122 114 97 72 70 68 61 59 48 51 36 38 40 111 44 40 44 43 49 41 50 50 67 59 74 85 103 127 142 153 164 162 171 178 182 187 187 192 194 191 195 195 195 199 199 200 199 199 197 197 199 199 197 199 198 201 199 200 199 199 197 195 194 195 192 193 194 193 191 190 189 190 187 188 186 184 183 182 177 179 177 174 166 175 172 171 168 163 160 153 139 136 121 118 95 73 65 72 58 55 46 51 31 34 39 101 36 40 42 60 38 36 44 52 55 61 68 84 104 126 142 153 162 165 169 181 184 186 189 189 192 193 196 194 196 198 197 200 199 199 199 198 199 199 201 200 201 200 201 201 200 199 198 198 196 195 194 195 193 192 191 191 187 190 190 185 185 183 182 182 180 180 178 174 175 175 173 172 169 162 156 154 140 136 122 111 92 70 68 65 66 60 46 45 39 30 29 107 37 47 53 47 32 37 40 45 53 59 65 77 110 129 145 149 162 166 173 178 184 188 187 192 195 195 194 195 196 195 198 200 199 198 200 199 200 200 201 201 200 201 200 202 199 199 195 196 196 197 193 196 194 194 193 192 189 192 192 185 186 188 188 185 182 181 176 173 175 174 170 167 168 165 158 151 142 134 120 109 96 64 66 71 74 51 48 31 44 28 24 91 43 46 46 40 35 33 39 40 48 53 60 83 109 133 146 152 161 167 175 180 185 189 188 190 194 193 193 195 195 197 199 197 199 199 199 197 200 200 200 201 199 202 199 201 200 195 196 196 196 197 195 196 195 194 194 192 191 190 191 187 188 187 188 187 180 176 181 178 178 177 174 162 167 163 158 152 143 134 120 105 94 68 60 65 67 54 41 31 36 37 19 76 60 43 44 45 33 36 33 42 43 49 58 81 115 134 148 150 159 165 173 182 189 190 187 189 191 194 193 195 196 198 198 196 197 199 196 199 199 200 199 200 199 201 200 200 200 197 193 195 195 197 194 195 194 193 195 193 189 191 189 189 189 188 186 188 180 175 181 182 178 175 174 172 174 163 158 152 140 134 119 105 97 66 61 63 63 59 43 34 33 38 19 81 88 45 39 41 32 35 37 36 41 45 57 83 118 137 148 151 159 167 173 180 188 190 184 190 192 195 194 196 197 197 197 196 198 198 196 199 197 200 197 198 199 198 199 199 199 194 195 196 193 197 193 193 193 192 193 191 188 188 189 185 184 187 184 184 184 176 181 183 179 180 178 173 173 163 153 151 139 132 117 105 107 63 58 55 61 63 39 34 42 39 24 102 97 71 38 36 29 34 35 36 39 41 55 94 124 140 150 153 160 167 173 177 183 188 187 186 191 194 195 194 199 199 195 196 197 195 194 196 196 194 191 194 197 195 195 196 197 193 191 191 192 192 194 192 191 193 189 190 188 188 187 184 185 184 183 186 183 175 179 181 179 183 180 167 172 156 151 150 140 130 110 108 107 71 46 52 61 58 42 28 31 34 34 106 88 94 61 32 31 33 33 42 34 43 66 103 132 139 151 153 158 164 173 180 187 187 184 189 191 192 192 193 195 197 190 196 195 196 194 192 193 193 190 192 192 192 192 192 192 190 191 194 191 193 193 195 192 191 190 186 185 186 187 185 183 184 180 182 175 178 178 181 181 183 175 176 174 154 151 147 141 127 110 106 109 78 34 54 56 56 34 32 30 28 65 109 94 94 108 43 32 35 37 40 36 43 80 110 129 147 148 151 155 164 176 181 189 188 188 191 187 185 185 185 187 187 186 182 187 187 190 189 190 192 190 190 190 189 188 189 189 190 189 188 189 194 189 192 189 187 185 183 180 184 184 179 183 184 181 179 175 179 183 182 175 175 170 169 165 152 146 143 135 125 110 110 113 79 34 49 55 51 38 25 29 40 99 116 100 96 113 117 57 42 47 44 39 50 89 116 133 148 151 150 150 161 173 178 185 188 188 185 173 165 159 159 163 165 164 164 169 165 173 178 185 189 190 187 189 184 186 187 185 189 184 184 186 189 185 185 183 179 180 176 174 185 180 179 181 179 179 171 163 162 170 168 160 163 158 157 157 152 147 139 138 122 109 107 113 78 41 47 52 49 42 26 24 55 110 112 119 100 121 138 114 83 67 63 42 57 95 120 140 146 154 149 145 159 170 178 184 182 175 169 163 153 147 140 146 141 138 138 141 142 143 152 156 168 181 180 182 185 182 185 184 184 184 178 182 186 182 182 179 173 174 169 171 176 173 169 166 160 162 153 140 139 135 138 135 151 155 149 141 136 148 143 131 121 109 112 109 82 43 47 53 40 38 25 33 93 110 114 154 114 133 140 131 119 96 89 72 69 99 126 143 148 153 151 150 156 165 173 175 167 158 156 148 148 146 137 133 134 129 123 118 124 122 127 128 135 147 159 162 172 176 178 183 182 180 179 181 181 175 170 172 166 167 166 163 150 140 127 123 127 124 126 125 122 115 116 119 130 146 153 141 125 136 138 128 120 109 114 112 85 45 50 42 41 39 23 63 113 109 110 172 123 145 144 131 123 111 102 96 94 106 135 145 147 152 151 151 159 158 161 158 154 148 150 142 134 133 131 121 119 112 108 105 110 112 110 109 112 108 119 135 154 162 168 175 177 178 178 179 178 172 170 165 162 157 155 143 131 118 104 97 97 95 95 95 93 92 106 115 120 125 132 124 120 125 132 120 121 110 117 111 89 41 45 38 29 45 35 91 110 108 108 188 138 157 141 124 118 89 98 104 116 117 140 143 150 154 152 150 149 135 137 148 137 133 136 132 126 121 123 115 111 106 93 95 85 97 90 91 98 101 105 110 136 151 157 169 178 173 174 178 179 169 165 156 152 148 141 131 114 103 91 85 79 79 83 76 81 94 101 109 111 111 107 109 103 104 106 103 106 112 116 113 91 40 49 29 33 69 52 102 109 109 106 181 151 171 145 116 113 88 79 114 126 127 143 147 154 155 154 143 134 125 131 136 133 138 130 130 128 129 127 127 132 138 129 118 112 100 99 101 103 104 108 112 129 133 151 164 176 176 181 180 180 167 161 151 140 134 118 104 98 96 89 84 87 88 97 100 106 104 103 102 105 108 110 102 108 91 91 93 72 111 122 116 96 46 37 26 61 94 66 121 103 107 104 185 152 177 145 115 111 96 79 116 132 137 139 146 157 158 156 145 125 125 128 127 136 148 152 144 138 136 141 146 148 147 139 119 96 91 80 89 92 103 104 108 119 132 151 164 176 181 182 184 180 169 158 148 137 120 100 96 94 96 92 88 98 109 123 138 151 143 138 126 121 112 108 104 95 91 86 81 67 94 125 118 106 52 31 49 85 98 95 114 105 106 109 182 154 185 160 127 115 104 93 114 136 138 142 150 158 162 155 150 129 127 130 133 138 153 154 143 135 126 115 99 91 76 61 64 51 77 87 69 73 80 98 102 111 125 155 167 177 185 185 184 178 170 158 144 126 102 95 100 88 80 69 74 68 49 77 95 86 96 112 121 125 120 115 113 95 91 93 90 74 93 123 119 116 62 42 64 87 102 115 114 102 105 107 190 155 184 168 144 131 119 122 117 139 142 144 152 156 163 156 149 137 125 138 141 137 139 127 107 81 67 73 64 60 53 47 73 69 113 133 110 86 87 100 109 109 116 150 173 183 185 189 188 179 169 160 139 111 99 105 103 92 83 105 135 94 68 78 87 43 48 49 58 67 86 101 109 105 102 98 93 90 95 116 122 116 88 50 62 96 116 133 103 103 105 107 184 162 174 187 149 142 150 150 130 136 142 145 154 157 159 156 148 139 132 134 132 125 105 76 58 57 69 103 95 78 83 86 91 92 142 145 128 125 93 121 134 128 109 143 179 189 190 190 190 186 172 157 135 102 117 132 113 104 113 132 165 133 83 101 71 70 61 62 70 39 47 58 84 101 106 102 100 87 103 119 123 119 102 48 65 114 126 141 101 103 103 107 182 175 149 203 158 146 154 160 143 135 140 144 153 160 159 161 153 145 139 124 120 104 81 75 84 101 103 119 126 108 99 109 116 122 148 141 131 134 141 136 153 136 119 140 179 191 196 195 195 187 173 154 126 112 133 153 128 123 121 128 150 156 96 105 91 84 75 93 99 58 41 54 52 86 102 101 98 99 110 127 122 119 108 45 74 131 128 145 93 101 104 106 173 190 140 188 179 142 144 179 143 135 139 149 156 162 162 162 161 161 149 125 107 99 104 115 125 136 135 140 140 142 137 139 143 139 147 139 127 128 145 150 144 137 134 145 179 192 200 200 195 187 175 146 121 132 132 153 149 141 132 136 145 143 138 138 120 108 115 119 109 99 68 60 71 79 89 98 106 121 125 128 121 119 109 50 102 138 124 150 91 102 102 106 171 191 163 148 193 175 155 182 138 126 138 149 148 162 158 160 161 172 170 152 133 135 138 134 143 152 161 164 165 157 148 145 146 141 136 123 114 125 137 142 136 142 148 157 186 195 199 202 198 189 178 144 127 146 132 143 149 131 119 119 127 136 134 135 131 118 127 123 121 118 105 93 91 90 100 109 125 132 132 131 120 118 107 67 135 124 134 148 88 102 104 105 150 187 183 144 188 190 157 172 128 131 133 145 155 162 167 166 173 181 180 177 170 169 158 150 142 143 146 146 147 146 144 140 132 128 126 127 135 145 146 144 149 154 155 171 189 198 200 200 201 192 178 148 127 147 137 141 148 149 133 122 114 122 138 144 140 141 145 141 136 128 113 112 116 119 117 126 135 140 136 133 119 112 105 113 137 117 149 142 87 101 105 105 127 187 187 167 181 192 155 159 128 133 133 145 154 161 168 169 172 182 179 183 183 184 177 173 167 151 145 135 132 130 130 137 141 146 152 153 155 159 154 162 162 165 165 176 193 196 201 200 200 193 174 149 133 147 141 145 154 152 148 146 139 120 112 120 127 126 130 127 123 121 125 129 134 133 142 141 141 139 139 132 120 111 103 136 131 124 152 135 87 104 103 104 115 188 178 167 167 188 176 152 127 132 129 144 151 162 166 172 173 178 182 184 187 188 190 191 183 174 168 168 166 165 162 168 169 162 166 170 172 173 169 166 175 175 172 181 192 195 201 199 201 192 171 152 135 147 149 142 158 171 165 162 155 154 148 138 132 132 121 125 125 131 141 150 150 147 142 148 146 143 139 132 119 109 102 138 151 127 153 123 88 104 102 103 129 186 176 160 175 188 194 150 125 127 131 141 151 164 167 173 174 177 182 183 188 190 192 193 190 188 182 180 183 184 177 175 177 180 181 181 181 184 184 182 185 181 179 184 194 199 198 202 198 190 177 154 137 146 152 145 148 174 176 172 162 168 172 170 168 170 158 159 160 154 152 160 159 157 149 143 149 143 137 132 119 108 99 143 151 131 146 111 94 102 104 100 158 184 177 168 184 185 189 149 126 130 131 136 148 163 168 171 174 183 180 185 187 190 192 193 191 193 190 189 181 182 183 184 186 187 191 190 189 190 189 190 189 186 182 186 196 199 200 200 198 191 176 153 145 151 157 154 150 165 179 179 176 169 169 176 173 177 151 154 167 168 165 164 160 160 155 149 148 143 141 130 120 108 96 147 148 128 140 100 95 101 102 102 161 185 179 177 184 184 187 145 128 129 131 131 146 157 168 172 175 182 181 187 188 189 193 192 195 193 194 194 187 189 187 191 191 196 193 193 193 191 191 191 190 186 186 187 196 199 201 200 199 193 181 158 148 149 160 156 159 164 174 177 181 172 176 174 174 177 174 164 173 171 166 166 167 161 157 151 151 143 139 131 115 110 93 146 150 132 139 109 95 98 101 102 165 181 180 182 180 181 182 142 125 128 132 128 151 153 163 177 179 182 182 186 189 189 193 193 191 194 196 194 197 195 194 194 198 200 197 196 195 195 190 188 187 186 189 184 195 197 203 200 198 191 180 158 150 150 155 162 160 167 174 176 186 180 185 180 183 178 183 179 178 175 171 169 167 160 154 150 151 145 132 132 113 106 96 143 151 140 147 134 79 105 101 101 137 176 179 180 183 181 184 139 125 127 131 132 148 154 160 174 179 182 182 183 185 188 190 193 190 189 196 196 198 197 197 197 198 198 199 196 194 191 190 189 189 188 192 164 180 197 198 201 196 190 179 162 151 150 156 160 159 166 178 180 185 184 185 183 185 183 184 184 178 177 170 169 161 158 153 150 138 141 134 125 114 102 97 146 147 145 145 142 86 96 102 100 109 158 174 182 181 181 179 137 124 126 131 136 145 157 162 175 176 181 182 180 180 183 189 192 190 190 195 197 197 200 198 197 196 197 199 195 190 192 191 191 190 191 188 178 190 197 197 200 197 190 176 169 155 153 152 157 157 167 178 180 182 185 186 189 186 182 183 183 184 177 171 165 159 157 146 138 147 136 131 126 111 103 98 144 152 141 147 139 82 102 100 103 79 139 160 176 181 176 172 130 124 128 126 141 144 152 161 173 173 176 181 179 181 183 191 191 192 193 197 196 197 198 199 197 196 194 194 192 188 189 191 190 192 189 188 188 195 197 198 199 194 192 179 169 162 151 150 150 154 164 178 181 186 185 188 187 190 187 187 182 183 179 173 166 163 159 150 124 146 138 131 122 111 100 97 150 154 143 137 124 90 100 101 101 93 94 137 161 171 169 150 118 125 131 120 135 140 149 162 171 174 174 176 176 184 186 189 193 191 192 197 194 192 198 194 193 194 192 192 187 186 182 185 183 188 185 191 191 193 199 200 197 193 189 182 169 164 147 138 141 143 153 172 176 184 187 185 186 188 185 187 184 179 180 173 167 162 158 154 141 140 141 133 124 109 97 98 147 150 137 133 109 88 101 97 103 96 93 94 126 143 143 128 105 123 134 112 132 138 148 160 171 170 172 176 176 182 187 190 193 190 190 193 194 191 192 193 192 190 187 185 180 167 169 178 182 179 179 190 191 194 198 198 198 191 188 180 176 169 149 132 141 137 142 158 166 179 181 181 186 187 181 185 184 180 178 171 169 159 155 152 146 138 137 131 124 107 102 99 141 140 128 113 91 100 99 98 101 98 96 90 93 108 106 99 103 120 124 119 122 139 151 161 165 171 160 172 174 181 185 192 189 189 186 193 188 189 191 189 186 183 178 171 164 149 162 183 181 174 173 187 191 196 200 195 194 193 187 178 177 171 151 125 145 143 135 145 156 168 169 178 181 185 183 179 179 178 170 165 163 160 154 147 142 138 133 128 121 104 102 100 127 126 106 97 96 99 98 99 103 95 98 95 96 97 94 92 99 122 120 123 124 136 149 159 160 166 154 161 173 181 180 189 186 186 188 185 182 185 187 184 178 174 165 154 140 140 169 184 186 177 171 188 194 199 202 194 192 192 186 184 178 172 150 133 158 163 134 126 141 146 157 167 178 174 180 178 175 171 167 163 161 155 149 144 142 137 126 125 121 104 104 102 98 100 94 94 95 101 97 99 100 96 95 94 96 99 95 93 97 118 123 127 122 136 145 152 156 159 159 161 169 175 175 185 183 183 181 178 172 175 181 177 174 165 158 143 128 134 171 187 188 179 176 189 192 196 199 198 193 193 190 188 181 170 160 138 164 178 141 117 128 133 144 152 162 169 168 170 163 167 164 159 157 155 142 134 138 137 124 123 115 107 102 100 82 89 95 96 101 97 100 97 99 99 93 97 94 95 96 93 93 120 119 123 117 142 139 149 154 156 155 158 166 170 169 176 177 181 179 174 170 169 170 163 158 148 142 139 124 131 179 185 181 178 182 187 193 194 196 199 197 193 195 183 182 170 158 144 155 170 142 118 122 121 127 140 149 158 163 164 160 164 160 155 152 147 138 127 132 132 120 116 117 103 107 95 86 90 94 95 100 96 98 99 98 96 95 93 97 94 95 95 87 114 120 126 113 135 135 146 151 150 151 155 161 161 159 167 173 174 172 171 165 162 156 147 142 135 135 143 137 133 180 184 182 181 185 188 191 191 189 198 199 195 191 184 181 168 157 143 142 158 140 127 129 127 120 124 132 144 151 154 153 158 154 150 148 141 131 127 125 121 122 114 115 104 106 95 86 89 90 96 96 98 97 98 98 98 92 96 98 93 94 97 86 110 118 122 115 128 135 142 148 146 148 151 158 154 154 163 163 166 161 160 156 151 142 133 125 128 138 149 146 133 167 179 180 173 180 187 191 189 187 191 193 191 186 178 174 165 155 141 134 144 131 134 138 134 125 121 118 128 137 145 145 147 146 144 140 136 126 114 115 124 115 114 114 102 104 90 88 90 95 94 96 97 98 98 100 95 95 92 95 95 93 96 84 110 114 116 122 128 136 143 141 146 145 148 151 155 155 159 150 152 150 148 144 135 127 121 124 135 146 156 151 137 138 156 164 154 160 170 181 183 181 181 182 182 178 172 166 158 141 130 126 126 116 126 141 134 129 122 114 107 123 131 136 138 139 136 135 132 119 113 114 117 115 114 110 99 103 89 87 91 94 92 96 96 98 96 98 94 96 93 93 97 92 96 88 101 113 112 120 126 137 144 141 145 144 141 146 151 150 148 147 141 138 133 127 117 113 117 129 139 144 157 161 146 127 117 129 127 129 144 163 174 177 173 173 168 167 163 157 144 119 104 106 97 100 121 140 134 132 130 119 102 101 114 122 131 131 131 128 121 121 117 115 114 112 110 109 102 101 84 88 90 93 93 94 98 97 100 96 94 96 94 97 95 93 93 88 103 109 112 117 129 135 140 144 144 145 145 136 147 145 142 139 137 125 114 108 108 118 128 132 133 140 160 169 156 129 109 103 98 97 105 132 149 156 150 148 147 151 147 136 116 81 64 74 82 103 123 138 139 139 130 124 110 101 89 102 115 125 123 124 118 115 114 111 116 113 114 108 96 101 83 89 92 90 95 93 100 95 98 99 95 93 94 97 95 94 93 95 90 109 107 115 123 136 143 148 148 149 151 142 147 145 140 133 124 107 99 116 122 125 133 132 125 141 149 158 149 136 120 102 103 96 73 91 116 123 126 119 120 123 117 99 75 63 72 80 90 103 115 123 145 142 132 117 106 120 110 87 90 113 121 121 122 120 115 113 120 114 112 108 101 90 85 89 91 92 95 95 99 99 98 99 92 94 92 95 94 94 92 94 90 104 102 111 123 133 142 146 146 152 156 152 149 150 140 125 102 96 114 136 127 132 130 125 123 127 125 140 141 134 131 119 111 108 83 71 77 90 99 99 96 95 78 66 71 96 104 105 95 100 104 105 125 136 139 114 95 116 119 110 82 91 114 124 121 119 124 120 116 117 112 106 102 86 83 92 92 90 95 96 97 99 99 97 96 96 92 97 92 93 91 97 90 107 100 105 118 131 137 146 148 152 159 152 155 149 138 125 101 106 130 131 119 125 117 126 130 132 121 136 142 131 134 129 129 125 102 85 67 65 71 70 67 77 64 69 91 98 104 119 106 98 101 99 116 121 134 118 96 96 106 112 105 91 115 124 125 125 125 123 117 117 109 107 99 78 85 89 91 96 94 93 99 97 97 100 92 92 92 96 92 92 94 91 101 103 100 103 110 129 138 143 146 148 157 160 159 152 146 137 111 104 121 112 117 119 110 123 135 132 131 128 142 134 131 137 143 129 123 105 80 81 70 59 56 82 89 86 111 103 99 106 119 101 97 98 107 119 115 110 95 92 90 105 107 112 127 133 130 128 129 125 117 112 109 100 87 85 89 88 93 93 96 95 97 98 98 98 94 93 93 95 93 93 91 103 98 85 103 97 102 122 133 141 145 146 153 161 157 156 154 146 122 99 113 100 112 109 104 112 126 136 126 131 144 124 139 139 147 137 109 124 114 121 86 70 69 105 121 103 122 106 103 89 111 109 98 93 98 106 100 114 91 102 88 100 99 129 142 138 126 133 128 123 119 113 107 94 86 86 88 89 93 95 94 96 98 97 98 98 92 96 92 96 91 93 89 125 74 67 111 98 95 112 128 141 145 145 149 157 158 156 156 157 120 92 106 99 107 93 101 104 105 119 123 127 131 128 137 134 140 122 102 133 141 144 109 83 95 124 135 106 117 105 88 88 104 102 100 87 98 92 84 108 113 77 94 108 108 138 148 138 129 133 122 117 115 108 103 89 83 87 88 90 94 92 96 95 96 96 97 99 93 93 92 94 93 90 99 131 54 53 121 100 91 106 119 132 140 140 145 151 151 153 161 158 116 90 101 104 97 87 98 90 99 108 123 117 125 126 127 117 127 103 99 130 141 139 108 96 98 117 128 112 106 103 83 81 107 103 94 81 90 98 72 96 103 90 76 115 132 144 147 139 140 134 118 119 111 107 97 85 84 88 88 88 96 92 95 94 96 97 95 100 94 91 92 92 94 90 114 128 44 36 123 103 89 98 114 124 133 139 144 147 152 155 159 160 140 103 97 98 87 97 95 82 97 107 110 118 113 141 122 103 117 93 97 120 135 127 95 96 86 108 122 112 93 90 83 75 95 96 98 86 83 93 77 84 88 84 83 118 145 143 144 140 126 118 115 117 107 104 90 79 87 88 87 93 92 93 96 95 95 96 96 98 92 92 92 104 103 101 128 117 36 28 123 107 96 90 106 118 125 137 139 148 156 151 154 165 155 119 105 86 88 103 104 87 95 105 97 103 115 136 110 98 105 95 94 123 130 106 78 85 73 97 116 113 88 87 86 81 84 97 98 88 88 87 90 87 88 96 96 127 143 143 141 131 113 113 112 109 104 97 80 84 87 88 88 91 93 92 96 96 97 98 98 97 92 99 113 116 80 67 140 113 30 29 129 114 102 92 92 111 122 126 125 137 148 144 151 154 154 135 122 105 102 111 113 104 105 107 110 106 108 116 110 100 101 101 100 125 132 98 119 117 102 95 107 116 97 68 67 90 86 88 91 90 94 97 101 101 106 112 122 136 144 140 132 122 114 112 107 105 101 91 80 85 88 87 88 94 93 95 93 98 93 97 95 97 110 125 116 74 55 98 145 105 28 25 129 112 106 101 88 105 115 125 113 114 134 138 145 147 154 147 139 125 123 128 126 122 121 125 120 116 112 120 123 115 112 111 100 131 117 105 125 120 108 89 104 106 115 85 83 96 97 95 99 98 106 108 111 109 114 120 135 140 140 132 123 117 112 106 111 101 97 80 84 81 90 85 88 91 92 93 95 94 94 97 96 96 129 117 84 63 103 117 146 103 32 22 123 120 109 108 96 93 109 116 111 109 120 129 140 139 143 148 146 131 123 134 136 128 135 139 134 128 126 126 122 117 118 115 109 119 110 116 130 126 119 100 99 99 102 98 99 97 99 103 110 111 117 122 127 123 123 126 132 139 137 127 119 114 111 108 106 100 77 84 84 85 85 86 88 93 92 93 93 95 97 95 95 97 111 93 59 98 118 122 146 102 39 26 115 123 115 109 105 93 100 110 112 110 116 121 124 132 133 138 147 136 126 136 145 139 145 150 150 139 140 138 130 116 116 116 106 102 114 120 125 119 118 103 101 97 104 105 102 102 108 117 122 122 127 128 129 126 125 124 133 133 125 119 114 111 109 104 98 84 60 81 83 86 86 85 89 91 90 94 92 94 95 95 94 96 96 65 69 119 120 120 150 109 41 34 108 125 119 110 109 102 94 104 108 110 113 113 123 118 127 131 138 133 131 138 149 153 154 157 158 153 150 149 142 129 123 117 107 108 120 122 121 118 116 108 99 101 108 111 110 114 121 130 131 133 134 131 135 128 124 127 127 129 120 112 109 110 103 98 88 48 50 82 62 87 90 86 87 92 93 94 95 92 95 94 94 98 86 66 95 127 120 116 147 118 48 39 98 127 119 112 109 107 99 93 104 107 112 110 112 118 117 126 124 132 133 144 151 155 158 165 164 163 160 159 152 146 134 128 117 118 126 122 118 119 117 109 110 110 117 120 123 125 129 137 138 137 138 134 133 125 124 125 121 121 114 107 110 105 95 97 67 26 48 91 46 67 96 92 85 90 91 93 94 92 96 96 95 97 63 69 102 130 120 109 148 129 56 51 91 125 124 115 110 108 105 91 93 105 106 109 106 112 110 120 119 125 135 143 146 151 162 165 169 175 165 165 160 152 146 136 130 132 131 131 129 128 127 121 122 127 132 127 132 138 140 144 143 138 144 137 124 126 120 121 123 115 112 106 104 97 90 89 39 18 48 104 47 43 77 105 96 88 93 93 94 95 93 96 93 99 67 89 119 126 118 108 147 136 72 58 78 123 121 121 112 104 110 99 93 90 105 110 108 109 115 123 111 123 134 144 147 152 162 167 169 173 173 167 169 161 155 150 147 148 152 148 149 151 151 139 141 145 143 140 142 143 144 150 148 141 139 134 128 124 119 120 117 112 105 102 99 92 85 78 16 30 49 108 61 42 39 102 100 103 96 90 92 94 92 95 94 98 57 107 122 129 120 103 138 148 83 72 69 124 122 122 115 111 104 104 102 84 97 102 107 115 112 115 118 116 128 137 145 149 153 167 166 166 168 174 173 166 166 158 164 163 165 164 169 167 166 163 156 150 142 147 148 145 146 147 142 137 142 134 125 122 115 114 117 107 104 102 97 86 85 58 14 33 53 115 61 58 28 78 96 106 111 100 96 94 96 95 94 95 64 120 117 130 119 101 126 153 101 79 63 113 123 120 120 111 108 103 100 88 86 98 104 109 117 116 112 116 121 127 140 147 151 165 171 170 169 169 173 172 161 154 169 168 166 163 168 172 166 164 161 153 150 150 144 150 152 140 141 138 134 130 120 115 105 109 105 108 107 96 84 73 90 38 16 38 56 117 82 44 36 76 93 103 105 105 108 108 98 95 94 94 78 127 116 131 124 103 114 157 121 89 71 92 123 119 117 117 105 107 103 95 85 88 98 102 109 113 114 112 115 122 131 142 151 165 168 173 169 167 166 176 172 169 166 172 172 167 168 164 166 161 163 157 152 149 147 141 152 142 142 137 130 123 108 102 100 103 107 107 96 81 72 75 90 19 24 44 63 112 102 46 36 77 87 95 103 105 109 111 106 107 103 94 93 127 116 131 129 110 102 140 141 101 82 83 115 121 117 113 111 108 105 100 91 83 91 91 99 105 111 108 110 113 115 134 142 157 162 172 168 164 164 176 172 171 165 168 171 164 161 154 153 159 162 156 150 146 143 139 141 144 137 132 123 121 100 88 98 104 102 93 86 75 70 85 74 11 33 51 77 113 106 59 32 76 93 102 103 93 102 109 112 107 105 108 105 123 115 126 133 117 105 122 152 116 99 75 109 119 118 114 112 110 109 102 95 87 86 91 90 95 103 109 108 106 108 111 130 148 150 167 167 172 171 173 166 159 162 168 167 156 155 147 149 155 152 154 148 138 141 138 137 140 133 126 123 109 82 86 93 94 91 78 75 73 76 89 46 17 41 62 82 117 104 73 46 59 91 103 102 102 99 106 111 112 104 104 113 123 116 117 140 124 107 111 150 131 110 80 98 113 119 115 113 112 107 103 97 90 88 88 89 91 94 103 102 100 103 102 110 139 147 158 157 166 165 171 167 158 162 159 158 148 138 135 137 143 136 147 144 132 132 133 138 130 119 120 115 85 72 90 90 87 76 71 67 77 82 85 29 25 53 70 96 121 99 88 64 48 85 100 104 101 98 105 105 110 105 108 125 116 118 100 135 124 109 101 145 146 112 99 92 106 118 118 111 110 112 104 99 95 93 89 88 90 98 96 97 107 97 100 94 117 133 146 153 151 159 161 163 158 156 159 147 147 134 129 126 136 140 138 138 132 126 127 130 120 116 109 96 68 79 88 80 74 65 69 72 85 88 68 13 44 66 81 107 119 95 91 77 49 80 97 106 103 102 103 100 104 101 104 130 116 123 105 123 132 111 97 136 150 136 118 95 105 114 116 119 110 110 108 103 98 96 85 88 88 93 100 100 112 104 106 97 97 112 131 138 142 146 150 148 154 150 147 129 129 131 131 123 126 131 132 127 127 126 118 120 111 108 95 70 74 77 75 67 68 71 72 80 85 88 44 22 61 73 84 115 117 95 88 84 50 75 97 104 104 102 104 96 105 88 105 131 120 126 119 107 131 111 103 116 142 146 130 110 106 108 113 119 112 110 105 105 101 94 96 89 87 97 95 105 103 110 109 103 100 92 108 119 132 131 138 132 132 130 131 126 118 120 122 114 112 117 118 117 113 112 108 105 97 88 73 73 75 72 66 67 68 71 79 83 88 78 22 41 80 78 99 118 118 94 76 96 49 70 97 103 107 102 102 97 103 97 82 130 125 131 122 102 130 122 103 106 130 143 141 120 110 110 111 119 117 112 110 107 104 96 95 93 89 93 90 100 101 106 109 105 99 92 93 99 110 112 121 126 116 114 114 113 108 105 104 99 102 102 106 105 97 100 90 86 75 72 71 76 75 70 64 68 74 76 83 88 87 52 21 76 83 86 114 112 118 95 75 100 54 64 100 105 105 105 99 99 98 102 99 126 129 131 123 100 129 123 113 96 129 142 144 130 115 109 116 111 120 118 113 111 106 100 99 97 93 90 92 90 97 103 105 106 103 98 93 91 87 94 100 101 101 98 98 98 96 90 87 88 87 92 86 85 79 78 76 67 75 72 75 75 67 66 67 73 79 81 87 89 80 30 50 90 84 87 114 122 115 96 75 101 65 54 99 108 104 104 97 100 98 97 99 121 131 138 125 98 123 126 121 96 117 141 145 145 120 117 114 114 117 123 117 110 106 105 100 98 94 90 90 88 92 99 100 104 105 100 96 97 89 88 84 84 83 82 81 82 76 80 78 76 75 77 75 73 67 74 73 71 76 73 71 68 66 71 74 82 79 89 88 86 61 34 79 91 89 92 117 124 106 92 81 99 74 51 97 108 105 105 95 101 98 96 101 119 131 138 127 94 123 124 114 104 93 136 153 125 92 128 113 117 120 120 123 117 107 109 102 100 94 93 86 88 86 91 98 103 99 102 98 100 97 95 88 84 85 76 77 81 79 80 79 78 76 79 72 75 74 74 73 75 70 71 66 70 70 77 83 83 84 92 90 87 41 63 88 101 86 93 114 120 109 87 86 95 80 48 97 109 107 105 96 102 96 94 102 115 130 132 127 88 125 120 116 114 83 132 143 60 26 141 112 116 121 124 119 117 120 104 106 102 100 90 86 87 87 90 90 96 97 100 96 94 97 93 94 87 86 82 85 83 83 83 85 83 78 82 77 78 78 75 72 74 65 70 67 74 80 84 88 88 92 91 87 71 53 83 94 101 92 108 121 121 105 91 85 93 86 53 95 108 105 104 94 102 96 95 103 