P2
92
112
255
124 124 123 122 124 126 123 126 122 123 125 122 125 123 122 125 123 126 109 86 82 87 91 98 87 95 86 70 79 80 88 95 106 110 124 124 119 113 111 104 100 98 93 86 81 74 66 66 66 63 55 51 45 57 59 46 49 71 74 83 94 90 82 84 86 65 72 72 112 119 118 121 117 122 118 120 120 116 121 116 117 116 117 118 118 116 119 116 117 115 114 117 124 124 122 122 124 124 124 124 122 124 122 124 122 123 121 121 124 120 101 65 75 76 78 77 77 78 88 85 82 86 93 94 103 106 106 113 117 114 116 106 103 99 88 77 71 75 68 69 69 57 59 60 50 46 52 49 40 47 65 80 76 88 80 83 90 75 69 57 75 115 119 116 122 119 116 118 120 119 118 120 118 119 118 116 116 121 115 117 115 118 116 114 124 121 124 123 123 123 126 122 124 121 119 125 124 120 121 119 118 111 95 74 73 73 68 65 70 70 76 77 83 83 87 91 97 99 107 119 118 114 112 99 94 89 77 76 70 72 67 64 65 58 60 58 59 51 48 49 46 37 44 63 77 72 80 75 79 79 73 62 45 92 117 115 119 117 118 117 119 120 117 119 118 119 118 116 116 118 114 117 118 116 118 112 122 126 121 124 123 122 125 123 123 121 121 123 122 123 119 118 98 99 84 74 69 77 64 62 66 64 64 69 72 81 84 87 97 104 109 111 104 101 100 90 89 80 78 77 73 72 71 66 65 59 61 55 58 56 52 55 51 48 42 60 57 75 77 75 78 65 73 66 44 63 108 114 115 113 118 117 116 121 117 118 118 119 116 119 117 115 117 117 116 113 118 115 121 125 122 124 123 123 123 125 120 120 123 122 123 120 113 96 77 79 74 64 62 69 67 66 67 69 70 72 80 83 92 95 93 97 99 93 93 93 90 93 88 87 92 82 75 67 60 60 57 59 57 55 55 57 57 70 70 63 60 71 48 49 72 73 69 70 55 57 58 43 96 107 116 116 116 115 119 118 115 118 115 118 117 117 116 115 116 117 117 115 117 116 123 123 124 124 123 123 121 123 123 121 126 120 120 91 83 79 70 77 76 71 69 65 71 67 60 60 71 77 82 84 77 86 89 97 97 94 92 98 106 112 104 94 81 76 75 64 63 63 60 63 61 61 69 63 67 76 83 81 78 78 86 53 56 56 73 71 63 48 49 45 75 99 115 114 117 114 119 116 118 118 116 120 114 116 116 118 117 115 117 115 119 113 124 123 123 124 123 124 124 124 123 119 110 101 91 86 82 77 80 81 80 67 71 72 63 59 60 62 65 71 75 80 87 91 89 96 93 98 107 112 108 104 95 92 86 74 69 70 76 70 76 81 74 77 81 82 81 90 100 107 104 97 92 80 76 60 56 60 61 55 47 54 51 91 112 114 116 114 114 118 119 115 118 119 116 119 115 117 117 119 116 117 115 115 124 122 127 122 125 122 121 122 119 114 107 90 75 84 91 85 77 72 86 78 77 80 74 65 68 71 74 62 60 76 79 80 87 99 96 98 103 106 109 107 104 101 95 88 89 88 95 85 95 97 90 89 94 97 95 104 112 125 127 113 113 98 100 90 68 54 51 53 46 41 45 74 87 105 110 111 119 115 115 113 118 117 118 116 117 116 116 118 113 117 116 116 122 124 123 123 124 123 123 124 115 117 94 77 64 91 83 90 70 67 69 78 73 78 76 67 63 66 69 67 67 79 80 86 88 83 100 113 119 120 126 130 123 114 104 103 99 110 111 102 108 107 115 110 108 107 114 116 127 131 136 134 133 134 113 110 96 75 62 51 40 38 42 53 66 92 102 107 113 116 116 113 120 114 118 118 118 118 118 114 117 117 117 116 122 123 121 123 123 123 121 123 112 100 86 77 82 103 92 73 65 66 65 74 81 77 78 69 70 69 72 69 70 76 79 87 95 99 113 116 120 118 120 118 116 118 116 116 120 121 129 118 117 120 127 122 129 128 134 142 140 142 144 148 153 152 144 125 112 102 84 66 51 41 37 59 80 79 98 108 112 111 115 111 121 116 119 117 118 117 116 116 116 115 117 116 124 124 123 123 124 122 122 119 113 89 73 68 96 107 86 58 64 72 66 84 94 89 77 72 73 69 82 88 85 96 93 91 99 104 113 115 119 125 121 125 129 132 135 131 141 144 140 141 134 142 145 138 140 141 151 156 153 151 153 153 159 158 154 147 132 121 104 90 72 55 40 52 92 97 83 100 117 108 116 110 117 115 118 116 116 120 115 119 117 119 114 114 124 123 124 124 123 123 122 120 111 80 69 83 97 86 73 68 68 70 83 89 91 88 78 86 97 96 97 94 89 108 107 104 116 120 124 125 130 142 147 148 151 148 149 145 149 161 160 150 157 160 157 159 155 151 159 162 159 158 161 165 162 167 159 153 150 140 128 118 95 55 55 55 77 101 99 90 104 109 107 115 112 115 118 116 118 118 118 118 118 118 118 116 123 123 123 122 122 120 120 120 84 65 73 101 93 83 78 63 67 87 100 95 90 97 112 125 126 122 119 118 120 123 118 120 122 135 142 147 159 165 162 160 163 159 157 152 167 168 167 162 162 163 166 166 168 160 167 172 167 168 167 169 167 166 164 154 153 146 136 130 111 65 53 73 77 95 93 102 100 95 106 103 119 108 119 115 118 118 116 120 116 117 119 117 122 122 125 121 122 121 125 107 60 75 96 113 98 77 80 74 85 103 107 106 112 122 127 127 121 124 127 133 135 137 143 148 154 151 155 166 169 168 164 168 172 170 172 168 171 170 166 168 166 168 165 169 169 162 168 170 172 166 173 171 169 166 163 157 150 154 145 137 116 80 51 57 94 100 80 104 95 96 97 102 102 110 115 115 118 116 119 117 117 118 115 119 121 123 123 124 123 119 122 83 59 95 105 92 94 77 74 79 121 129 126 125 129 141 144 148 151 147 143 151 152 151 153 160 162 162 168 174 172 173 172 180 182 179 176 168 166 166 166 169 169 171 169 170 171 168 171 169 172 167 171 174 175 166 167 166 152 151 146 141 119 87 56 62 77 110 83 88 103 97 96 96 104 97 103 117 118 115 118 118 116 119 116 119 119 123 123 123 121 126 112 78 86 90 97 91 88 78 78 107 139 151 158 158 153 155 156 159 161 165 164 167 169 172 172 175 173 172 177 183 185 188 187 183 183 179 172 169 169 169 170 173 173 170 172 169 170 174 173 170 171 173 168 178 182 177 168 172 159 149 149 140 128 96 57 59 72 102 99 84 90 106 101 94 96 98 92 104 119 112 115 119 117 118 116 119 125 123 120 123 120 118 106 87 76 96 91 84 76 79 86 133 154 172 175 183 172 168 179 180 175 181 183 186 186 187 182 189 190 192 194 198 197 197 199 191 184 183 177 179 178 174 176 176 176 173 170 169 169 175 177 174 174 172 172 178 182 187 178 177 165 148 153 139 132 107 66 53 64 100 109 95 89 96 109 97 98 98 91 91 97 112 111 116 116 118 115 119 124 122 124 123 121 119 89 67 82 84 87 77 82 95 107 146 167 179 179 185 180 185 186 185 181 184 190 194 197 199 197 199 201 202 203 202 204 205 204 200 198 195 192 184 182 183 179 177 177 173 173 177 175 175 176 174 174 173 176 177 186 189 182 179 179 152 153 143 133 119 76 63 58 92 117 99 107 76 103 104 93 102 97 86 80 89 115 107 116 116 119 113 121 122 125 121 119 99 65 71 78 82 87 95 104 98 127 158 176 181 185 188 189 191 193 190 190 188 196 199 199 202 201 203 203 204 206 207 201 205 207 200 199 201 197 188 184 179 179 175 173 177 175 179 179 174 176 178 174 173 173 180 186 190 184 178 186 163 153 145 131 121 92 47 74 86 109 106 104 94 84 109 103 94 97 96 78 86 85 94 110 115 114 118 125 119 125 120 126 81 55 72 91 96 99 102 101 110 146 168 178 185 189 191 191 194 194 193 192 192 197 199 203 202 201 204 204 206 205 207 204 203 205 201 201 198 197 189 185 177 174 174 177 175 175 172 173 171 175 176 173 173 172 182 183 188 180 177 187 177 154 142 131 122 104 63 47 86 102 104 104 98 89 97 102 96 91 96 93 80 82 98 96 110 120 114 122 123 122 125 110 60 57 84 85 87 98 98 96 122 156 175 184 187 191 193 195 195 197 194 194 193 198 198 202 198 201 204 206 205 204 205 206 204 203 201 198 200 195 190 185 181 175 179 177 178 176 175 172 174 174 174 174 174 174 173 180 185 179 176 184 182 161 142 129 120 112 73 42 81 98 107 98 96 96 87 104 93 92 85 101 83 80 80 102 107 117 117 123 121 123 126 97 57 70 73 74 87 81 90 105 140 165 177 188 190 191 196 197 197 198 196 194 192 197 197 201 199 201 200 204 203 203 202 204 205 200 199 198 198 193 187 188 180 180 182 178 177 175 172 175 175 173 174 174 170 176 171 169 172 171 168 173 177 159 145 125 120 115 83 41 56 109 107 95 87 100 77 108 92 95 84 87 101 74 83 79 110 113 116 123 124 124 128 93 56 65 71 77 83 86 89 118 150 167 179 191 191 192 196 196 198 197 195 193 194 197 196 200 199 198 198 204 201 201 201 202 202 199 196 195 193 188 188 183 180 180 184 179 177 179 172 174 174 177 181 177 174 176 174 173 167 165 169 169 171 152 145 126 116 115 94 44 35 105 109 97 81 103 78 95 97 84 95 76 100 89 69 83 93 117 115 123 122 123 125 73 53 66 77 74 77 75 82 130 158 170 184 191 190 196 195 198 199 196 195 196 196 198 193 195 197 198 198 200 197 197 198 199 198 195 194 193 190 188 186 183 175 181 181 174 176 173 173 174 176 179 180 175 177 171 169 165 163 165 162 161 168 155 138 125 119 112 95 62 38 87 103 95 80 93 83 85 98 70 99 77 88 102 66 85 77 110 118 121 125 126 119 63 57 69 71 72 75 70 94 139 163 173 184 193 193 195 196 195 197 195 199 197 197 195 197 196 196 197 195 197 196 197 197 198 196 193 191 190 189 186 184 182 176 180 179 177 173 172 170 172 176 172 172 172 173 170 164 164 164 163 163 162 160 151 134 120 121 118 92 68 54 67 101 99 77 81 89 74 100 73 75 82 79 91 84 73 87 96 104 122 123 122 117 63 55 67 72 71 64 71 111 147 165 181 187 193 194 194 195 196 195 194 197 198 198 195 197 196 199 196 196 197 198 198 199 198 197 191 188 186 186 185 181 175 177 177 177 177 173 171 170 170 168 167 169 170 166 165 157 162 162 161 162 160 154 145 128 117 122 118 99 63 65 63 95 98 74 65 94 71 98 69 66 79 73 79 91 63 95 104 95 119 125 122 120 62 52 70 71 65 66 78 118 157 173 184 191 193 195 193 195 194 197 198 196 197 196 196 197 197 197 196 194 196 196 199 196 195 193 188 189 187 186 185 183 176 178 172 171 169 168 171 168 164 165 164 170 169 162 159 158 161 164 159 161 153 150 141 125 119 122 113 99 62 59 73 90 82 71 64 80 75 91 65 60 66 74 71 81 71 79 107 102 122 122 122 125 59 56 65 68 68 70 86 129 163 174 186 189 190 193 193 195 195 197 198 198 194 196 196 196 196 195 195 196 193 196 200 196 194 192 187 188 188 188 185 183 176 175 176 171 172 166 166 166 162 164 166 166 157 154 156 157 155 161 160 159 149 147 138 125 119 124 115 95 74 62 74 97 72 59 61 63 79 82 68 54 52 66 66 71 83 63 102 109 121 125 123 124 67 55 63 68 66 75 91 147 168 177 183 188 192 191 193 195 196 198 199 196 194 196 197 196 197 195 195 195 192 196 197 195 194 189 186 189 186 189 186 182 180 178 179 176 170 166 160 165 166 161 162 161 149 142 149 159 150 160 156 158 149 141 135 123 119 124 116 94 81 60 80 99 62 61 51 60 68 77 69 48 47 61 60 66 82 57 108 111 122 121 123 122 71 51 63 69 71 65 102 155 169 176 184 186 192 193 195 195 196 198 200 197 197 195 197 197 195 198 195 194 195 193 195 192 191 186 189 187 184 187 186 182 179 178 176 175 173 169 164 166 162 160 155 153 155 153 154 161 159 161 158 148 142 140 130 125 119 123 119 93 71 73 75 113 49 54 53 53 59 68 73 43 47 55 57 64 76 59 90 112 120 122 124 121 72 54 57 64 66 67 109 156 169 177 183 190 192 192 195 195 198 198 198 198 199 195 197 196 197 198 194 196 195 194 190 190 191 187 187 186 186 186 185 179 177 172 177 176 172 175 167 167 160 154 156 158 159 157 156 160 158 163 156 147 141 133 127 124 122 124 120 93 68 66 79 111 57 41 56 55 49 64 70 43 40 49 58 55 69 66 76 116 121 122 126 125 73 47 59 61 61 64 120 163 171 179 184 189 191 192 196 195 198 199 198 199 197 197 195 197 199 197 198 198 193 193 192 190 190 188 185 188 188 188 187 182 178 175 176 173 171 171 168 168 163 163 162 159 160 155 157 161 165 163 156 143 139 135 127 126 121 121 117 96 74 48 79 106 54 40 39 56 47 59 65 43 36 46 53 57 63 62 70 115 122 126 124 126 72 44 53 59 53 67 132 164 174 179 186 188 194 192 197 195 198 199 199 198 199 195 197 197 197 197 199 200 195 194 193 192 192 190 186 186 187 188 185 180 178 177 175 174 174 170 170 167 162 166 166 161 162 154 154 165 164 159 146 144 142 132 128 127 121 122 113 93 78 51 63 100 55 32 45 42 49 63 56 44 38 44 49 58 53 57 76 112 119 124 123 125 69 43 49 54 41 71 142 169 177 183 184 190 197 194 197 195 197 198 199 198 198 198 197 200 199 199 201 198 199 195 195 193 192 188 188 185 187 186 186 177 176 177 177 176 172 169 169 169 167 169 165 166 166 162 160 165 162 155 147 142 144 131 128 125 120 122 110 94 67 62 55 100 68 28 38 38 46 60 50 39 36 41 55 53 49 53 82 112 120 123 122 126 82 41 50 44 36 83 144 166 178 185 188 191 195 195 195 196 197 199 199 198 198 198 198 199 199 200 200 199 199 193 195 193 193 190 188 188 188 185 182 181 180 178 179 178 173 173 169 168 166 169 165 164 165 163 164 163 161 156 147 148 142 129 130 126 119 115 109 90 65 61 59 99 58 40 29 41 47 56 42 38 34 42 59 45 52 51 90 110 119 124 120 127 99 43 44 41 32 81 148 170 179 188 187 191 196 193 195 196 198 196 198 197 197 196 198 198 196 199 198 199 198 193 193 191 193 190 189 191 189 186 185 180 181 179 175 174 176 172 174 169 166 166 163 155 160 165 167 163 157 155 150 146 139 135 130 123 120 116 104 90 68 59 56 93 58 40 33 42 49 52 44 36 33 40 46 37 53 54 90 112 122 120 122 124 110 45 39 44 22 94 153 170 177 185 185 190 196 195 196 197 196 197 196 198 196 196 199 195 199 197 198 199 194 193 192 190 193 189 191 191 190 185 185 181 186 177 180 175 173 171 174 171 168 168 166 161 162 166 165 166 161 156 156 143 137 129 131 120 119 116 97 90 72 64 58 84 67 31 34 44 46 47 45 34 33 39 42 37 59 49 103 114 121 125 118 124 120 56 38 42 18 100 159 172 180 187 186 189 192 198 196 197 196 196 196 194 197 195 194 197 196 196 196 197 190 188 190 191 191 189 190 190 191 187 185 182 183 182 178 178 180 178 176 173 170 168 167 166 165 167 164 168 166 153 159 143 136 133 127 118 118 112 96 83 65 67 63 74 64 32 33 40 45 42 44 40 36 33 37 40 58 62 112 113 122 120 122 121 127 70 44 40 22 117 161 175 186 185 189 190 192 195 196 194 194 196 195 192 192 192 191 193 197 193 193 193 190 188 188 190 189 188 189 189 189 187 185 181 181 183 178 180 179 176 174 170 171 168 165 166 166 165 165 165 162 153 153 144 134 137 128 118 115 109 97 80 65 57 69 68 57 29 41 39 41 43 46 37 37 33 40 45 53 80 114 114 123 120 122 122 118 114 52 35 23 133 160 179 186 190 184 187 185 187 189 191 188 192 192 189 188 188 189 191 192 193 188 190 187 183 184 186 186 184 184 186 186 185 180 176 180 183 178 178 176 177 171 167 171 170 170 169 166 164 155 161 161 153 149 146 134 135 128 117 110 104 96 80 69 50 65 63 51 32 38 35 38 45 40 41 37 36 40 42 53 103 114 113 120 122 119 125 107 150 76 31 23 143 159 176 183 186 178 172 169 163 172 175 178 177 183 181 185 186 188 187 186 190 188 187 183 182 187 183 185 184 181 182 180 182 177 174 176 174 175 174 173 174 173 169 169 174 171 167 165 171 162 161 158 155 148 136 134 129 126 113 108 97 91 82 69 60 64 61 46 30 37 33 33 43 36 45 36 43 38 41 66 110 113 113 121 121 120 123 107 157 115 40 36 149 163 173 164 164 167 156 152 153 151 145 158 153 158 170 176 184 182 184 185 184 183 183 180 178 181 185 183 179 178 184 178 177 175 173 173 175 171 171 174 175 171 169 170 173 170 166 164 161 170 167 158 154 144 137 134 127 122 110 108 101 86 81 79 54 68 54 44 33 35 32 31 37 35 43 34 45 43 37 82 108 114 113 120 125 119 125 105 154 135 90 77 152 164 157 161 164 155 151 146 143 143 131 131 129 137 141 153 169 176 181 181 184 180 179 179 175 177 181 173 174 173 176 173 169 169 168 170 173 170 168 166 170 166 165 169 169 170 170 170 165 163 163 151 149 143 136 131 126 121 112 106 95 87 79 66 59 56 56 44 31 34 31 32 30 34 35 34 43 40 44 104 109 111 116 119 120 119 124 106 157 142 134 128 143 149 152 152 154 142 136 137 132 123 115 116 118 119 122 127 139 156 169 176 180 179 180 177 168 174 176 170 169 167 168 166 165 164 165 167 167 171 168 164 165 163 167 168 168 170 172 164 162 166 156 148 141 141 133 129 124 115 110 106 93 81 78 63 58 57 52 42 34 31 28 39 29 29 34 35 40 43 46 109 113 112 114 118 119 120 121 101 155 157 147 147 138 135 150 143 141 132 128 121 124 114 98 102 108 105 108 112 113 123 141 157 168 175 176 175 166 178 174 168 167 167 163 162 157 162 166 163 161 166 166 161 158 163 165 169 165 164 166 165 164 161 153 144 139 140 133 126 119 110 108 106 95 80 74 63 53 57 50 40 36 32 30 34 39 26 37 32 37 42 54 113 113 114 110 119 121 120 121 107 152 168 154 150 146 140 141 144 147 133 132 128 122 123 119 107 101 96 97 102 105 103 118 138 153 166 170 174 170 175 168 162 153 158 154 155 153 149 154 149 153 152 149 149 146 147 149 156 154 153 157 156 158 153 145 141 142 133 131 124 116 107 107 104 97 84 68 62 54 57 45 39 39 33 29 35 39 30 27 35 36 39 68 116 114 112 112 118 122 119 119 104 152 174 151 144 151 135 133 148 157 147 140 137 135 137 138 130 124 114 108 108 111 107 113 129 144 163 174 168 170 174 168 162 152 153 149 147 138 135 123 122 122 121 125 134 127 129 128 130 141 152 151 144 149 151 147 138 137 132 127 121 113 110 108 104 101 81 66 56 57 54 48 36 24 38 31 36 36 34 28 31 34 38 83 116 112 113 112 119 122 118 126 101 152 178 152 148 159 140 146 150 158 149 139 136 123 121 116 114 101 99 101 108 114 117 122 127 142 156 174 172 175 176 170 157 147 143 140 134 129 120 109 102 98 96 102 109 108 101 114 118 123 144 150 137 134 138 148 144 136 134 124 119 114 107 106 106 101 86 63 57 51 55 41 39 20 32 27 34 34 35 28 31 32 42 98 116 108 113 112 121 121 117 120 104 157 181 143 149 161 147 145 150 145 128 99 75 64 65 56 66 50 52 58 69 82 100 117 129 142 163 176 180 182 176 170 154 147 134 130 123 114 108 101 94 84 83 92 86 88 88 104 115 120 125 140 130 134 126 137 141 133 131 124 117 110 107 104 104 100 85 64 54 49 51 40 32 30 29 24 31 36 29 33 31 35 37 112 111 113 113 110 119 121 119 119 108 164 185 147 154 159 150 139 141 117 83 58 74 100 92 70 55 50 64 71 91 81 72 93 117 147 173 186 185 184 177 167 151 143 131 122 113 104 103 96 96 86 84 79 79 78 85 93 96 106 112 118 123 120 126 129 134 130 128 121 118 112 109 106 104 101 81 65 51 51 47 35 35 30 27 24 29 35 28 34 39 32 44 112 113 111 111 113 120 118 119 116 114 173 183 152 159 164 153 140 128 90 68 64 94 132 113 88 73 80 86 89 115 105 72 82 105 139 183 192 190 185 175 165 150 139 126 119 109 99 101 96 102 96 95 99 104 102 100 99 97 99 107 106 114 115 113 115 119 128 119 120 119 110 109 108 107 101 80 68 53 50 40 39 29 34 32 24 29 36 32 37 43 37 65 111 110 111 113 110 120 118 119 111 129 169 188 154 163 168 164 144 113 94 100 110 107 129 137 97 80 86 89 108 111 99 71 80 110 138 189 197 191 187 175 160 149 134 118 108 102 96 101 97 89 80 73 85 99 113 121 121 113 105 102 100 107 110 104 102 108 107 107 114 115 111 109 108 110 99 81 65 51 48 36 38 32 32 29 25 30 32 32 35 54 67 88 112 109 110 110 110 116 119 120 102 148 172 182 160 163 162 173 161 117 115 127 142 142 142 140 135 121 113 115 117 109 98 90 87 125 142 192 199 197 187 179 158 147 129 111 101 96 99 103 88 73 67 74 79 62 64 83 108 119 117 112 104 102 108 103 93 95 98 94 100 114 109 110 111 110 99 84 65 52 37 42 40 34 29 30 21 40 31 40 37 68 102 101 109 110 109 111 111 118 119 120 102 156 175 162 160 162 172 179 173 153 152 150 166 174 169 153 139 135 130 125 120 106 104 114 111 123 148 193 202 198 191 177 161 147 124 104 97 99 112 100 83 79 85 115 113 72 82 61 41 55 85 108 110 111 105 103 99 97 89 86 82 104 111 112 113 107 102 88 62 44 38 31 33 37 27 29 27 34 39 51 54 74 114 104 110 110 109 109 109 117 121 120 98 163 178 157 159 169 178 183 176 176 165 160 155 162 164 155 148 137 132 120 109 98 98 107 115 125 163 198 202 199 190 177 162 141 114 101 97 104 115 105 68 95 101 132 124 78 77 56 47 45 46 56 80 105 109 107 100 102 99 88 85 94 112 113 111 109 106 90 64 47 33 35 29 31 29 32 34 41 70 70 61 83 113 109 106 111 108 109 109 117 117 119 103 160 181 162 160 170 178 183 180 185 173 171 155 150 137 134 128 125 114 110 102 106 117 119 128 148 179 199 201 201 191 180 163 135 112 102 99 105 115 107 87 87 97 125 135 96 80 78 68 61 64 60 45 68 96 103 103 100 103 101 94 97 106 117 112 110 105 97 78 51 33 31 31 36 38 49 67 83 102 78 58 96 110 107 110 109 108 108 105 120 115 119 102 168 180 159 161 174 178 181 186 186 187 184 168 160 144 135 134 132 132 131 133 135 144 147 156 168 189 201 201 199 190 178 159 130 112 107 105 100 109 111 109 100 107 110 124 113 78 77 72 75 85 84 46 44 65 87 106 103 104 100 96 97 105 115 111 113 105 104 92 60 35 40 39 52 68 85 99 99 115 80 65 105 107 108 105 110 107 106 108 116 115 111 125 175 171 151 167 176 179 183 189 190 193 188 182 181 182 175 173 167 159 158 164 173 174 169 176 178 191 204 200 198 186 172 156 128 117 114 109 101 100 112 104 99 105 114 114 118 100 82 84 90 98 83 62 40 58 63 94 102 100 100 96 102 109 115 111 115 112 109 101 83 58 58 77 63 59 94 97 103 114 81 76 115 104 106 107 109 105 106 108 117 116 109 165 181 167 150 168 175 180 183 189 192 193 190 181 183 185 184 179 172 174 180 184 191 183 180 182 182 196 201 201 195 179 165 145 126 123 121 120 111 106 110 112 100 101 112 119 118 114 104 105 104 95 93 82 70 59 68 76 90 98 100 103 105 114 116 118 118 119 111 107 101 94 86 93 54 55 80 94 99 121 82 94 110 104 105 108 105 104 109 107 116 113 119 182 178 174 153 167 180 181 186 188 191 190 190 188 182 175 182 179 185 189 194 189 191 187 187 186 184 200 200 202 188 179 163 141 125 127 133 129 125 126 124 117 114 112 99 117 130 125 119 123 117 109 110 105 95 85 73 80 91 94 104 109 116 118 118 119 120 115 116 109 109 104 106 85 62 60 75 85 96 122 86 106 108 106 106 106 107 108 104 107 117 108 137 184 183 177 149 167 179 182 186 189 189 188 188 187 187 180 184 186 192 193 192 193 191 192 190 185 190 201 201 201 186 173 154 137 130 129 133 138 133 140 147 133 130 125 118 101 113 120 122 125 123 119 117 112 105 104 99 85 94 100 111 116 118 120 123 121 117 118 116 108 112 112 108 77 75 66 76 76 97 122 92 117 101 107 107 108 108 107 105 104 118 105 140 182 183 171 147 168 180 184 184 188 189 187 187 188 191 191 190 189 194 195 192 194 194 190 190 186 193 200 203 200 187 172 153 134 135 134 139 141 137 146 163 158 149 142 135 126 113 109 110 110 111 111 111 109 111 112 113 106 104 112 118 126 123 123 123 118 116 120 116 114 111 109 117 86 94 68 71 71 107 118 101 115 104 107 106 106 106 105 104 107 117 103 136 179 185 168 150 169 177 181 180 186 189 188 184 190 191 193 193 193 195 195 194 195 193 189 191 175 192 200 202 195 183 168 151 135 135 138 143 144 142 150 166 171 168 153 149 147 142 134 125 118 109 106 113 116 115 121 119 118 123 119 121 128 126 123 125 116 115 115 115 116 110 107 128 103 114 78 62 82 119 111 112 110 105 106 107 105 106 106 105 105 115 114 119 169 186 167 150 170 175 179 177 181 188 188 184 191 193 193 194 191 192 195 193 190 193 190 189 174 193 200 200 192 177 164 148 138 133 137 137 145 145 154 163 171 173 168 160 160 156 155 158 146 143 134 128 126 132 127 130 123 132 129 129 123 127 125 122 119 113 114 115 115 107 105 133 110 105 67 70 106 122 104 122 105 105 107 105 104 108 106 106 106 115 111 110 160 181 154 151 172 172 178 179 182 188 188 190 188 193 194 194 192 189 195 189 191 193 190 188 188 196 200 200 189 175 162 149 135 136 137 140 145 146 153 162 167 173 169 168 165 163 159 162 144 151 152 147 140 143 137 141 130 130 135 128 130 124 126 121 118 114 111 116 114 112 107 129 127 82 56 94 124 107 110 121 101 105 107 105 103 105 103 106 104 118 116 107 133 167 140 155 171 175 174 180 186 192 189 191 188 192 191 193 191 187 192 191 190 193 193 188 191 196 201 195 186 172 159 150 141 134 137 141 145 147 152 167 166 175 175 176 173 170 165 167 143 152 157 156 156 147 145 144 136 129 132 132 126 125 122 119 117 114 112 114 112 108 110 115 119 106 91 116 113 102 120 115 101 104 105 105 105 104 105 103 106 115 114 110 118 128 131 159 170 171 176 182 190 192 187 191 190 188 189 189 189 185 187 188 185 188 190 188 193 197 199 191 180 171 157 149 135 131 134 135 143 147 154 165 169 171 176 175 170 174 170 175 167 163 164 158 159 153 150 146 141 135 133 133 128 127 123 118 117 113 110 112 109 106 114 109 103 116 142 113 101 112 123 109 103 105 104 107 103 107 105 100 105 118 113 115 115 108 129 161 171 164 176 181 191 191 186 191 186 188 184 187 184 181 178 174 180 183 187 188 194 193 199 189 179 166 158 146 135 125 127 127 139 146 157 166 165 170 174 171 172 175 171 171 173 170 163 162 163 159 152 147 142 138 133 132 128 124 122 117 116 110 112 110 109 108 114 109 91 121 141 118 101 112 125 105 103 105 103 106 104 103 104 103 104 114 116 114 117 103 129 161 169 161 172 182 187 190 188 186 182 186 185 177 175 170 162 163 178 182 187 194 197 195 194 188 174 162 155 148 133 121 118 122 128 137 153 163 169 171 170 170 174 170 168 172 169 166 162 157 157 155 152 143 141 140 132 132 123 127 119 115 112 113 112 112 106 109 112 104 103 124 128 129 113 121 116 103 105 104 105 105 104 103 106 102 103 113 113 113 115 104 132 161 164 165 174 179 186 187 186 182 178 183 179 173 165 155 148 166 182 185 187 197 199 196 195 184 171 165 155 144 127 114 114 125 118 129 147 159 163 169 169 174 172 174 167 170 169 163 161 157 150 146 148 140 137 135 127 129 123 121 119 115 109 111 113 108 108 110 109 108 114 125 115 124 127 123 109 104 105 106 107 103 103 104 105 103 107 114 116 112 118 102 134 157 166 165 173 172 182 187 185 176 171 175 172 163 154 148 140 174 182 186 191 196 199 197 193 181 179 166 152 141 121 113 116 126 117 117 137 147 158 164 167 170 170 169 170 167 165 164 157 155 145 143 140 133 133 132 121 126 123 119 118 108 109 110 110 108 106 109 107 110 115 123 113 119 125 125 105 103 105 102 104 103 106 103 102 104 102 113 111 116 118 104 130 160 164 166 172 171 177 183 181 179 171 164 158 152 144 136 151 178 187 190 198 195 197 194 186 178 165 170 153 144 126 120 132 143 125 114 125 144 157 159 162 171 164 167 172 166 161 161 156 156 144 146 144 115 131 136 125 124 122 118 114 112 110 108 108 106 107 111 111 107 112 125 123 124 122 121 101 105 104 104 103 104 102 103 101 104 100 115 112 116 114 104 127 158 163 166 169 169 174 179 174 174 165 153 145 138 137 141 161 183 184 195 201 193 190 187 181 169 169 165 153 140 127 127 137 149 133 109 117 136 146 156 161 167 165 162 166 166 162 161 158 151 146 146 142 130 127 135 127 125 120 115 112 109 108 107 108 106 109 108 117 114 115 121 127 127 127 122 99 105 103 105 103 104 101 104 101 103 100 116 112 114 117 102 127 156 163 163 169 172 174 171 169 162 157 142 134 127 136 151 166 179 177 190 199 189 182 180 175 162 162 159 145 138 127 124 136 140 126 102 108 127 139 144 157 159 163 163 164 160 153 155 151 146 145 142 140 133 132 131 126 124 121 115 114 105 103 108 105 109 106 108 115 127 115 124 127 130 131 121 99 103 104 104 102 102 103 102 104 103 101 114 109 114 112 105 124 155 160 163 167 169 170 164 163 155 146 132 128 129 149 167 166 166 163 179 189 184 176 171 166 159 153 148 139 133 122 117 128 130 120 100 100 122 133 139 145 154 156 157 156 154 151 149 148 142 141 138 135 131 127 127 124 122 116 116 114 102 105 106 106 105 109 105 109 128 128 128 125 128 125 114 99 103 102 103 103 100 101 102 102 100 99 115 111 110 115 106 121 154 160 155 160 166 166 165 151 144 135 127 129 140 166 176 172 159 138 155 176 173 162 159 156 149 148 137 125 119 117 116 121 122 117 97 99 117 121 133 141 149 151 149 148 151 146 145 142 142 131 135 132 126 125 124 123 119 114 115 111 104 110 104 109 107 110 104 99 122 128 131 121 120 122 102 102 105 102 103 100 103 101 99 102 100 98 111 109 113 112 104 121 154 162 161 157 162 161 158 141 132 125 127 132 154 171 180 176 171 141 128 149 152 141 138 144 141 130 122 109 106 108 110 111 114 109 94 106 115 118 120 134 139 145 149 143 149 146 141 138 135 127 124 128 125 126 115 119 119 117 112 109 108 107 106 105 105 109 101 88 117 125 121 122 115 103 100 102 103 102 103 102 99 99 100 98 99 102 114 114 112 115 109 112 156 161 163 160 160 158 149 134 127 131 140 148 162 168 174 166 156 140 125 131 134 122 121 122 117 111 102 89 79 83 90 98 96 94 98 112 122 122 122 122 129 134 137 138 145 140 139 130 126 121 116 122 125 123 112 116 116 111 112 108 107 104 106 105 106 110 95 84 108 117 111 103 102 104 100 107 99 104 102 100 101 101 103 96 103 97 110 110 113 115 107 114 152 158 163 164 162 157 137 122 133 144 141 151 153 154 156 147 145 130 120 110 114 118 112 111 106 99 88 77 69 67 75 76 81 89 102 113 120 121 121 119 119 129 133 134 136 134 131 129 123 115 115 116 118 116 115 111 116 114 110 108 106 107 105 105 106 109 99 76 98 101 97 102 98 100 102 101 102 102 102 100 98 99 104 98 99 103 114 110 113 114 108 111 152 158 161 163 162 153 124 122 143 150 153 149 146 128 133 139 130 133 134 116 101 101 99 105 100 100 86 81 74 68 70 76 87 96 102 109 120 124 122 122 110 122 126 126 133 126 126 126 118 113 108 110 111 115 114 114 112 114 112 107 106 106 106 107 106 108 101 98 94 95 96 101 101 98 103 99 102 100 98 105 98 101 99 101 96 104 114 111 111 114 109 109 149 154 162 164 163 151 123 125 153 154 146 137 142 120 132 132 129 145 138 122 101 85 90 88 88 107 83 100 83 79 75 72 77 90 97 109 113 125 122 123 109 111 116 120 126 123 122 120 114 111 100 107 116 111 113 114 112 112 112 104 106 105 104 107 104 104 103 101 102 103 100 99 103 100 102 101 101 100 100 100 103 99 100 101 101 98 111 112 109 114 113 103 147 154 159 164 161 156 124 127 149 143 133 133 140 123 129 127 132 142 132 127 109 87 87 78 67 123 85 114 91 85 84 71 74 81 84 102 114 123 123 118 114 107 107 113 120 122 118 117 112 114 109 109 114 108 114 110 112 110 108 104 107 105 104 102 104 103 100 103 103 101 101 105 100 98 101 102 101 99 102 99 100 100 99 99 99 100 109 111 112 110 112 103 143 153 156 166 163 159 132 126 134 131 115 121 136 128 117 130 133 144 124 129 126 105 85 64 76 132 100 110 93 83 91 76 72 82 75 93 114 117 120 110 105 105 99 104 112 115 115 114 107 109 111 109 111 111 113 111 107 110 105 104 104 104 103 105 105 104 101 103 101 103 102 101 102 101 102 98 100 101 100 98 103 100 101 98 98 99 110 111 112 111 111 104 130 147 153 158 159 159 138 117 120 121 107 116 130 131 122 139 128 134 116 135 129 124 85 61 92 125 103 106 101 77 89 89 69 83 77 87 107 120 116 103 99 110 104 99 106 112 116 114 112 110 112 107 110 112 107 112 106 108 108 98 106 103 107 103 103 98 103 104 103 102 105 97 104 99 101 101 100 99 100 101 100 100 102 96 101 100 112 108 109 111 113 105 123 148 153 159 162 166 134 116 117 113 104 112 120 127 135 123 119 113 109 134 130 120 86 64 100 130 110 107 94 79 83 90 74 76 85 96 100 111 108 102 92 108 105 99 97 106 114 114 114 115 110 111 112 109 111 112 107 108 105 104 101 106 104 101 101 99 103 102 102 101 98 103 98 102 98 99 100 99 98 99 99 98 99 99 101 97 111 111 108 111 109 108 114 141 154 160 160 163 136 110 109 107 102 107 109 116 128 111 115 102 111 136 130 108 79 63 112 132 111 100 90 80 83 88 86 77 82 91 92 102 101 99 78 101 95 97 93 103 115 113 114 115 114 112 112 110 112 110 107 108 107 102 102 102 102 99 98 98 104 100 103 102 101 104 101 103 102 101 99 99 99 97 100 97 99 97 97 100 110 109 112 110 111 109 111 137 144 157 156 163 149 115 102 100 108 94 103 103 114 114 118 95 107 141 124 94 78 67 119 136 107 90 85 79 87 94 94 82 86 88 81 105 103 88 92 86 91 96 94 104 115 118 119 115 116 116 114 111 111 107 109 107 107 102 102 100 97 98 100 101 102 103 101 102 101 101 100 102 101 99 101 101 97 98 100 99 98 96 100 97 109 114 107 113 109 108 121 130 127 146 154 157 149 134 110 96 108 102 100 103 112 115 118 97 114 138 109 80 63 59 109 137 106 85 78 83 85 93 88 82 84 91 71 102 108 82 97 83 81 89 93 108 118 121 114 121 119 115 114 108 106 105 108 103 99 97 101 97 97 97 97 101 101 103 103 100 99 104 97 101 100 98 99 98 98 96 100 97 98 99 96 98 109 110 109 110 108 112 122 118 123 137 150 153 148 135 120 110 119 123 118 121 122 126 132 122 115 136 111 85 65 60 108 130 117 75 76 88 80 89 83 70 72 82 65 101 98 83 75 90 81 83 91 119 122 120 113 122 116 117 112 113 106 107 105 101 95 95 100 95 93 99 99 104 99 101 99 101 98 100 98 99 98 102 98 97 101 97 96 97 97 96 99 97 109 110 110 108 111 127 116 78 128 132 144 145 147 142 122 128 133 137 138 140 134 135 140 140 128 128 113 95 83 79 94 125 122 84 74 92 75 75 78 67 72 77 71 77 82 73 78 78 87 90 103 121 128 119 113 122 113 111 110 109 110 101 102 98 97 98 97 92 90 101 98 100 101 99 101 100 97 102 96 99 102 97 99 95 95 97 97 97 95 97 95 97 105 107 112 120 114 136 107 35 126 128 134 140 137 141 122 130 140 141 149 145 144 144 143 141 136 128 119 107 103 97 92 97 101 85 79 92 82 79 82 85 82 83 82 86 82 85 81 82 90 102 113 124 125 122 121 123 110 109 110 104 104 100 101 95 97 98 93 90 94 101 101 100 101 97 99 100 100 100 95 99 99 97 99 99 96 102 97 98 98 96 96 96 107 111 128 105 79 139 99 22 105 128 132 134 134 136 127 132 146 145 153 153 152 151 148 136 130 122 114 110 108 105 104 103 106 100 97 98 98 96 99 99 95 90 90 91 90 95 86 91 103 110 116 123 124 122 112 113 109 109 108 104 102 101 96 97 96 93 91 90 93 100 100 99 103 99 100 98 99 99 99 97 100 97 97 97 98 97 97 96 98 96 94 97 120 132 114 59 96 139 83 13 98 124 126 129 131 127 133 137 150 152 155 158 157 155 153 140 128 118 116 110 106 102 99 102 107 105 104 103 103 105 103 102 98 98 95 96 100 101 101 99 104 113 115 122 119 117 106 105 108 106 103 106 98 95 96 99 87 93 86 97 83 93 96 97 102 97 102 98 100 95 100 95 101 95 99 97 97 97 95 95 97 94 95 97 134 122 78 72 133 138 76 13 109 122 121 123 126 128 130 148 154 157 159 164 162 161 154 144 135 124 119 113 107 102 97 98 101 104 101 99 100 104 103 105 105 104 103 103 104 105 102 103 109 117 117 119 113 113 107 109 105 103 101 102 99 95 95 91 90 87 92 101 63 89 70 97 101 96 98 99 97 99 100 96 101 95 98 95 96 96 99 95 98 96 96 97 110 102 46 106 146 132 71 14 115 130 112 120 127 121 132 149 152 155 165 171 167 164 155 145 140 128 122 117 108 109 99 99 106 100 102 102 108 107 112 110 113 109 110 110 113 108 107 105 107 117 115 112 113 108 106 104 103 103 105 96 100 94 91 90 84 88 91 102 45 95 45 67 96 96 99 96 99 98 96 97 98 97 97 98 94 95 98 95 98 93 97 93 95 63 67 123 146 131 66 17 119 138 113 115 121 118 131 151 152 160 167 169 175 169 160 154 148 139 133 126 120 114 112 102 109 107 104 103 111 111 114 116 118 115 112 114 112 108 109 107 108 115 114 113 109 107 105 103 104 105 102 94 96 92 90 84 85 91 99 88 28 104 41 39 70 92 98 98 95 98 101 93 101 97 96 97 95 96 93 96 96 93 97 97 80 67 95 128 142 134 64 20 122 140 128 109 115 117 125 145 148 157 169 168 168 174 167 160 159 156 147 145 137 131 125 114 115 113 111 110 114 117 117 121 119 117 116 114 113 110 109 107 106 115 110 106 108 103 103 101 100 99 97 95 89 87 84 89 93 93 110 59 34 100 74 18 47 66 102 99 97 96 98 95 97 95 96 97 95 96 96 95 94 93 96 92 68 47 100 127 142 137 64 25 120 140 135 113 110 114 118 131 147 154 169 172 170 170 174 159 157 165 154 149 142 140 131 132 121 118 116 119 117 121 121 124 121 121 117 114 112 109 111 107 105 112 106 107 102 100 100 98 95 92 91 92 91 87 87 91 95 96 113 31 43 95 103 20 30 45 92 101 103 94 98 98 94 96 97 95 94 96 96 95 97 96 93 94 44 89 121 126 146 139 68 30 112 141 134 128 108 107 116 119 140 154 167 173 169 167 176 176 169 172 166 157 152 146 136 138 129 127 120 126 120 120 121 123 122 118 119 113 111 108 109 108 104 107 105 101 99 100 96 95 92 91 88 86 88 84 92 94 93 105 99 18 48 93 108 49 24 24 81 82 106 98 99 96 93 97 95 94 93 96 94 93 97 93 94 93 25 113 125 125 137 143 82 33 102 141 134 130 127 104 103 111 129 145 161 172 167 165 174 179 174 172 165 159 153 144 144 138 139 138 132 129 125 125 119 119 117 116 119 116 111 107 111 105 108 105 102 100 98 98 91 93 85 93 83 84 87 85 93 97 94 109 72 15 56 98 103 79 16 22 65 75 100 106 95 101 99 98 93 94 93 96 94 94 94 93 93 94 28 129 120 126 135 145 100 36 87 135 136 132 129 119 95 104 108 132 152 165 171 173 175 170 170 171 161 150 148 141 140 146 143 130 134 130 121 128 118 121 115 117 121 114 110 110 106 104 105 105 96 99 91 97 90 89 88 88 82 87 89 88 94 96 99 108 43 30 55 100 96 96 21 25 56 79 92 95 101 100 100 98 100 94 94 94 92 96 91 92 93 93 64 132 118 125 132 148 115 49 78 131 133 134 134 121 106 100 98 109 146 159 164 166 171 167 165 160 147 137 130 135 147 139 141 131 126 126 118 127 121 119 117 112 112 106 108 109 101 99 103 98 93 95 96 92 90 88 88 88 82 88 91 93 97 99 101 98 17 37 70 104 97 98 31 19 53 68 81 99 92 106 101 100 98 101 99 94 91 95 94 89 94 92 94 127 114 133 127 148 126 75 66 119 134 129 128 128 115 97 102 98 128 150 155 158 161 163 159 150 142 126 115 126 138 130 133 129 120 122 120 116 120 118 111 110 106 105 98 97 96 94 97 94 97 99 92 89 85 88 84 83 81 89 93 89 96 101 106 66 14 49 75 106 93 102 43 9 61 76 92 91 84 107 95 110 102 95 98 100 95 92 92 92 92 91 117 119 111 132 130 143 130 99 69 98 132 131 125 127 122 103 93 105 107 134 144 150 152 153 151 140 127 123 110 116 133 130 126 123 115 114 119 116 117 112 111 104 105 104 94 87 91 93 95 98 97 93 90 87 85 84 83 82 88 90 87 93 94 103 99 35 27 61 87 109 93 92 63 7 51 77 98 94 83 96 97 109 105 100 94 98 98 99 91 90 93 90 134 109 109 134 131 138 138 108 85 80 126 132 123 123 119 112 98 97 104 113 131 139 135 137 133 126 113 110 112 110 124 124 122 114 111 107 112 112 110 102 105 104 99 94 89 82 87 88 93 95 90 89 88 87 83 84 81 84 88 84 90 96 95 99 81 17 39 70 95 108 90 91 76 15 41 76 100 95 83 91 101 105 100 98 101 100 94 97 103 94 93 92 139 96 111 119 129 132 145 107 104 69 113 129 124 118 117 116 107 90 99 108 114 120 130 120 120 117 107 104 101 104 110 116 112 108 109 107 107 103 101 101 98 97 92 84 79 80 86 91 86 88 90 84 87 83 79 79 86 86 90 89 92 94 99 93 43 21 48 85 99 109 87 88 74 22 40 72 103 100 79 90 96 94 98 91 104 99 94 98 100 106 101 95 139 93 124 100 135 130 148 131 111 91 90 122 127 120 118 114 104 100 93 102 109 108 111 113 106 104 103 99 95 92 98 105 106 100 100 100 98 96 96 98 92 88 81 80 81 83 89 89 91 83 84 87 81 82 78 84 82 85 88 95 91 94 92 74 18 46 63 96 101 105 89 79 62 38 32 81 98 99 85 90 85 91 84 100 100 88 91 101 100 102 103 104 135 98 136 86 131 126 140 141 116 110 72 114 120 123 116 113 107 102 95 92 107 110 109 105 98 93 96 90 91 88 92 98 96 96 94 93 92 89 86 90 82 77 82 84 88 85 89 85 84 84 85 84 80 84 83 78 82 88 89 91 93 93 80 43 21 57 81 96 104 100 91 73 54 49 27 82 97 102 88 94 75 96 85 78 99 85 96 98 93 108 99 102 132 104 142 75 127 128 131 141 131 114 82 97 110 124 115 112 105 102 98 91 95 108 111 112 108 97 92 88 86 87 85 88 89 86 85 85 83 83 78 77 76 80 84 90 91 88 88 88 84 85 79 82 79 80 82 82 85 91 90 92 91 88 60 24 43 65 90 104 105 100 90 70 44 64 25 85 97 103 89 98 73 88 100 90 77 90 96 91 93 104 101 88 130 111 143 70 129 127 129 140 133 115 103 81 110 113 121 111 106 105 97 92 93 98 108 110 112 109 102 99 91 96 92 87 90 87 81 84 81 82 83 83 86 84 92 90 93 92 92 85 86 88 83 82 81 80 84 87 87 90 92 91 84 77 32 32 63 70 94 109 105 92 92 64 43 71 24 84 99 101 96 99 76 72 97 93 94 82 81 84 94 97 101 86 128 118 145 66 123 130 134 139 145 124 110 93 91 113 114 115 106 105 101 94 92 88 102 105 110 112 104 103 100 99 95 95 98 91 89 88 87 88 90 89 89 91 94 95 89 91 93 85 88 84 81 81 80 85 88 89 88 89 89 88 79 56 17 55 74 67 97 109 105 89 89 59 40 79 17 85 101 101 96 100 83 65 97 92 93 97 84 80 95 99 85 101 128 129 145 56 120 128 124 137 150 122 107 109 82 106 110 103 113 101 98 95 91 87 89 100 104 111 108 104 101 103 98 102 102 92 99 95 93 90 90 89 91 91 94 91 91 90 87 86 87 83 84 77 85 88 91 90 86 87 89 83 64 34 26 76 73 80 100 108 106 82 90 59 41 84 18 85 102 101 98 96 87 61 96 97 89 97 83 81 96 99 102 95 