P2
92
112
255
123 124 122 124 124 125 127 123 125 124 128 120 119 110 111 94 96 103 109 101 93 75 73 83 88 95 94 108 110 123 119 118 110 105 105 104 101 83 79 78 75 77 74 63 62 58 56 56 62 64 58 51 57 63 72 84 76 83 90 91 86 93 93 87 81 81 74 66 55 68 89 118 119 119 122 121 118 120 118 117 123 119 118 121 123 119 119 118 117 118 121 116 124 122 122 124 123 125 124 122 126 121 124 125 111 91 91 80 93 103 104 85 76 73 73 80 86 94 102 113 119 126 122 125 118 118 110 102 99 86 84 78 75 68 67 70 64 64 61 56 55 57 61 52 55 44 47 74 78 76 81 88 90 87 80 83 85 76 77 66 61 50 62 80 113 112 118 121 117 116 116 118 118 120 120 118 122 118 120 117 120 118 121 119 125 124 122 123 126 124 124 121 126 124 122 130 92 69 78 78 72 92 84 73 79 74 81 84 88 98 99 111 112 118 124 129 124 118 108 98 91 84 77 74 74 76 69 65 67 63 63 62 59 55 58 61 63 50 44 54 59 77 82 81 82 87 79 67 71 89 78 69 63 54 52 55 82 110 117 118 116 118 122 116 118 117 121 117 119 120 118 120 119 118 122 114 126 122 123 121 126 122 126 122 122 121 123 111 85 74 75 68 73 69 76 65 72 70 82 81 87 89 95 111 119 121 121 121 116 104 96 94 91 90 81 76 74 70 66 63 62 58 62 66 62 63 60 69 74 67 60 72 63 62 64 80 84 77 84 72 66 61 70 65 60 57 49 49 58 103 109 117 116 117 121 121 119 117 121 120 119 123 117 117 118 120 120 118 125 124 120 123 125 121 126 124 116 112 112 98 83 89 70 64 63 63 60 63 70 73 73 76 85 92 104 106 112 108 107 106 103 95 97 97 96 84 81 72 68 71 67 68 64 61 60 65 62 69 71 80 91 87 80 84 84 84 69 71 73 81 83 80 68 64 55 58 62 52 50 43 45 86 106 113 115 117 117 121 119 116 119 119 119 119 119 117 118 117 118 117 125 121 123 123 127 122 121 123 108 99 92 78 72 76 68 63 72 66 55 64 69 77 77 76 82 89 93 95 94 100 99 106 105 112 105 104 95 82 75 66 65 58 62 65 64 65 66 68 79 76 85 85 105 106 101 100 97 105 89 86 81 69 76 77 77 70 57 59 47 50 46 42 41 63 95 108 111 110 115 117 117 113 118 120 121 119 119 121 118 119 118 116 125 124 118 122 130 121 117 109 91 73 75 72 67 69 62 57 58 67 63 72 79 76 71 69 75 82 89 93 93 108 115 121 119 113 97 92 90 73 74 71 73 68 69 74 81 78 80 86 92 92 99 102 116 127 128 119 118 111 107 102 107 97 83 74 69 65 65 54 47 42 47 38 44 53 75 83 104 102 109 119 112 114 116 122 118 121 118 119 118 118 121 119 126 124 121 123 119 111 106 84 75 72 74 79 70 76 63 62 52 62 57 65 72 74 82 78 82 83 83 92 100 107 114 112 110 111 102 91 84 87 85 89 85 90 96 93 94 94 97 99 106 103 111 121 125 138 143 140 136 137 136 128 116 119 110 99 86 72 61 56 49 51 42 49 64 57 83 92 87 106 97 107 116 116 113 118 120 118 118 114 117 118 117 119 123 124 120 120 100 95 92 78 76 71 89 86 72 74 75 59 59 67 68 62 61 68 70 70 79 84 90 92 103 111 122 120 122 120 117 109 101 99 98 103 103 102 107 107 116 109 108 112 120 125 130 136 142 141 150 155 157 159 155 151 140 130 122 115 109 99 79 73 73 53 48 70 72 98 66 92 100 99 107 97 99 117 112 115 117 118 118 117 120 116 120 121 123 123 119 113 105 84 78 87 73 73 75 89 73 70 75 61 60 61 66 54 61 74 74 80 78 84 90 109 120 120 128 130 129 123 114 115 110 113 118 121 122 117 122 123 129 129 132 134 136 147 156 151 153 156 158 163 169 169 169 161 160 155 141 133 124 114 108 96 85 67 60 62 90 93 102 78 99 104 108 105 101 103 114 114 114 120 116 119 119 120 120 119 122 122 118 104 96 77 81 81 82 71 63 73 66 65 71 68 61 62 60 65 63 72 74 84 82 97 103 111 122 122 119 120 122 122 128 127 126 131 134 133 139 131 136 138 140 143 149 151 153 161 167 160 162 165 167 169 169 173 175 166 164 163 159 155 145 139 129 115 88 70 80 67 82 100 97 98 93 95 99 103 106 99 107 113 109 118 120 117 120 118 120 120 118 118 114 93 85 76 93 91 66 73 65 61 59 71 74 74 63 65 71 70 75 79 83 91 96 104 106 116 125 125 129 136 133 143 141 143 143 154 159 156 156 156 158 162 159 159 159 164 162 167 166 172 171 171 176 176 172 173 176 172 166 162 164 161 153 148 140 120 102 66 88 88 65 96 99 98 96 97 95 90 102 107 93 111 109 107 115 115 117 118 119 118 122 118 117 87 66 81 90 89 61 68 63 58 63 85 75 75 73 77 85 81 92 91 97 101 106 112 120 125 136 143 152 157 157 159 156 153 158 163 172 172 166 164 167 169 168 173 170 172 171 174 176 176 178 176 177 175 176 179 175 173 172 163 164 161 157 157 143 122 102 71 78 111 70 79 102 97 104 84 101 94 90 103 105 90 109 104 111 112 121 115 118 117 118 122 110 66 71 84 86 90 76 70 77 77 75 83 85 97 111 110 106 99 105 109 112 111 121 131 143 150 160 167 167 168 169 170 171 167 172 179 174 171 173 170 170 172 176 175 173 172 174 176 178 178 176 178 177 178 177 175 175 169 172 167 162 165 159 158 149 125 104 79 75 107 100 66 88 92 100 100 90 98 98 90 102 106 88 94 99 114 108 117 117 116 114 114 89 75 94 97 90 81 72 69 72 86 91 95 110 111 121 121 116 124 124 122 132 140 147 149 159 166 171 173 172 173 179 182 183 182 177 179 175 175 174 177 176 174 174 175 177 175 177 175 176 176 175 173 176 176 175 175 171 173 176 175 166 163 163 154 144 132 108 75 71 103 110 73 88 91 88 111 101 91 95 100 93 105 105 92 90 90 108 113 116 120 123 101 78 89 99 87 81 87 83 83 103 106 115 126 130 130 130 128 132 139 142 144 145 161 162 164 172 173 174 176 181 182 193 190 190 183 175 175 177 176 177 178 180 179 176 177 181 181 177 179 176 180 177 173 174 171 172 177 177 175 175 181 175 167 164 157 141 133 116 86 56 90 113 95 90 101 90 92 108 98 92 91 102 98 101 92 86 84 86 96 105 109 115 86 83 90 81 84 87 90 73 107 133 125 132 139 144 147 154 148 153 155 161 163 166 166 170 173 175 182 186 191 191 197 201 197 194 191 188 184 183 180 185 180 181 178 177 177 177 180 180 181 181 180 179 179 173 173 171 176 178 179 173 184 185 174 166 157 147 133 124 101 68 77 114 108 90 107 96 82 98 107 97 87 93 102 99 99 90 80 85 86 83 91 97 81 82 86 82 79 81 79 87 137 162 162 153 157 166 165 170 177 177 176 178 178 177 182 184 190 190 194 199 199 199 204 202 201 203 201 200 193 187 185 185 183 184 179 178 179 178 180 181 181 183 180 180 178 174 174 173 175 180 176 174 183 188 184 178 160 143 138 126 104 86 75 101 110 96 105 104 94 85 100 115 89 83 99 87 96 107 82 82 80 83 92 85 67 75 79 82 77 74 82 119 160 176 179 170 173 180 178 176 183 187 189 189 188 189 193 196 194 196 203 205 204 206 206 208 208 208 210 204 199 193 188 185 181 182 177 181 186 183 180 183 182 183 182 179 176 172 172 171 176 181 179 175 181 182 183 181 166 142 136 128 111 85 73 92 108 104 100 106 102 87 87 117 95 80 91 96 81 102 94 81 82 80 88 64 68 71 73 74 86 91 94 148 173 176 179 184 186 187 185 186 191 192 193 196 196 196 198 197 199 202 206 205 202 207 207 206 207 208 208 205 199 192 187 184 183 184 183 181 181 180 179 181 180 181 178 178 174 176 174 171 174 177 179 178 180 181 183 180 164 140 134 127 121 85 67 90 104 110 100 104 106 94 79 107 111 79 78 94 85 82 103 93 80 77 83 58 69 73 76 88 89 84 120 163 179 182 187 191 191 192 189 192 194 197 195 199 195 198 200 200 200 202 204 205 206 206 207 204 205 205 204 202 196 190 185 184 185 186 182 181 175 178 178 179 180 181 178 180 179 173 179 175 178 176 175 180 179 175 181 176 158 137 132 124 123 88 56 97 109 104 97 88 103 101 75 90 110 99 64 93 97 78 93 102 87 75 68 64 75 75 83 88 78 85 141 176 182 187 189 192 195 195 192 193 198 198 196 198 198 195 198 201 201 201 203 205 204 206 205 205 205 206 204 203 197 191 187 188 189 185 184 182 181 181 182 179 178 176 176 177 180 177 176 174 175 174 173 176 176 174 176 164 150 132 127 126 122 101 51 73 115 102 94 83 96 103 84 71 107 100 77 71 92 86 82 90 108 80 67 73 67 71 77 76 71 107 165 182 187 189 193 195 197 196 195 192 196 197 195 197 197 198 197 199 201 201 204 204 203 204 202 201 203 201 199 199 194 188 191 192 191 186 185 180 178 180 178 180 181 178 178 179 178 179 179 173 174 173 174 174 174 173 169 160 144 127 125 127 115 101 73 60 111 105 90 82 83 94 93 63 103 98 83 60 79 90 72 93 89 92 75 60 71 64 70 71 74 132 170 185 186 190 197 197 197 198 194 194 195 197 195 196 197 195 197 199 200 200 200 201 202 202 200 199 198 197 194 195 190 187 192 192 186 181 185 180 178 179 180 178 182 179 178 178 177 178 176 174 172 172 173 172 174 171 166 155 141 128 124 126 115 99 78 62 97 108 88 80 75 87 94 64 96 97 78 55 65 76 78 79 77 91 72 63 69 65 77 60 91 149 178 186 188 190 196 198 198 194 195 196 195 197 193 196 196 195 197 197 200 196 199 198 199 199 198 198 195 195 193 192 188 186 188 191 181 179 179 175 177 180 179 179 178 173 175 177 176 176 174 172 173 172 174 173 172 165 160 147 136 128 131 129 121 97 77 70 87 99 85 76 71 77 94 71 85 96 76 61 59 63 71 72 76 82 76 64 65 74 67 52 113 161 180 186 191 194 197 199 194 196 195 196 196 195 194 196 196 196 196 194 199 199 198 200 197 197 196 194 192 193 192 191 190 187 186 187 184 181 178 174 175 176 177 176 171 174 175 173 171 167 171 172 168 172 173 170 169 158 150 141 129 127 129 124 119 101 77 64 87 93 80 69 68 74 86 73 76 89 70 68 51 52 62 72 70 70 83 65 67 65 55 62 129 168 181 189 191 195 193 196 194 195 199 197 198 194 198 196 196 197 199 196 195 199 201 201 198 193 192 192 192 193 189 185 186 185 184 181 180 180 176 175 174 172 173 170 173 172 171 168 168 164 169 169 169 169 166 165 160 154 152 138 131 131 130 128 115 100 84 67 87 92 77 60 61 62 74 68 74 87 63 67 48 46 51 66 69 64 71 65 60 57 57 77 145 177 186 189 192 193 194 193 195 195 197 198 196 197 198 198 195 197 196 197 198 197 197 198 195 194 193 195 192 191 189 188 185 182 182 177 178 175 175 173 171 170 169 173 172 169 162 163 165 163 162 169 168 170 169 163 160 151 145 137 128 131 130 130 113 99 86 73 98 89 71 61 50 56 64 61 62 86 66 58 51 44 50 55 66 60 73 60 53 60 51 103 161 181 187 190 192 191 194 195 198 196 196 197 197 197 195 195 194 195 196 197 196 198 198 196 195 190 193 193 191 195 190 187 182 182 184 182 177 175 169 169 173 169 171 171 167 162 151 153 160 162 160 164 164 168 164 158 152 149 141 135 126 129 132 134 111 98 83 76 105 95 62 58 53 53 57 58 52 76 69 47 52 43 43 51 64 60 63 59 57 60 48 122 163 181 186 190 192 193 195 195 196 198 193 197 198 197 197 196 195 197 196 196 197 199 196 194 194 192 193 192 193 193 190 187 183 184 184 182 177 174 169 173 169 168 165 162 161 162 159 160 161 164 168 167 168 164 155 152 150 147 137 133 129 132 135 133 114 99 75 78 100 97 61 48 48 57 56 52 50 68 65 46 53 40 41 48 60 62 57 57 59 55 53 139 170 179 186 189 192 195 193 195 198 197 196 195 198 196 198 197 196 196 195 196 197 197 196 192 190 192 192 192 191 193 189 186 183 182 184 181 179 177 172 169 169 166 161 162 163 164 165 160 161 165 168 167 171 162 156 151 148 141 137 133 132 131 134 128 114 96 83 68 96 93 60 46 41 45 57 49 51 66 60 47 48 40 42 40 57 58 52 56 61 44 70 149 169 179 186 190 193 193 195 196 198 197 198 198 196 196 197 196 197 196 198 196 195 194 194 194 191 191 191 189 192 193 189 184 180 179 182 180 179 178 176 173 173 170 169 165 165 166 164 161 164 169 168 170 167 160 153 149 146 139 140 137 132 132 131 121 114 97 84 66 79 93 59 44 38 39 44 53 54 62 54 45 45 42 35 41 58 56 48 60 53 44 79 153 172 180 186 190 193 194 195 197 198 197 197 197 197 195 198 200 200 197 198 195 194 195 194 194 190 188 193 195 192 192 189 187 184 183 184 183 181 179 174 172 170 168 171 175 168 168 162 160 160 168 169 168 163 158 152 153 148 136 137 138 131 133 134 123 112 96 80 67 80 86 63 44 32 38 38 49 59 54 42 50 34 43 33 42 66 54 33 49 53 35 93 158 172 181 184 190 193 193 197 197 199 199 196 197 196 196 198 197 196 201 198 198 197 194 195 196 193 192 191 192 191 192 186 185 184 183 183 183 179 178 177 174 172 174 173 174 172 171 172 167 167 168 169 167 159 157 153 150 144 138 140 136 132 128 127 118 110 92 80 65 83 88 59 49 35 34 41 50 58 45 41 41 39 40 29 51 48 45 34 48 46 28 107 166 175 180 188 191 193 193 197 199 197 199 197 197 199 199 199 201 200 199 199 198 199 196 195 196 195 193 192 191 191 191 188 185 183 183 184 185 180 178 179 172 175 174 174 173 173 171 171 171 171 171 165 166 162 158 158 152 143 142 138 136 131 131 124 117 105 95 77 66 79 81 59 47 38 36 44 46 61 48 37 46 37 33 37 39 41 42 30 43 41 23 114 168 178 178 190 190 194 192 196 198 196 198 198 199 198 200 201 200 201 200 201 199 199 197 195 195 195 194 194 193 191 191 188 187 186 185 183 186 180 180 179 174 175 173 173 172 165 168 169 171 172 169 165 163 163 155 155 147 143 141 139 133 128 129 124 112 99 93 80 66 75 79 59 46 37 34 40 49 47 49 41 46 42 33 42 31 39 44 32 42 35 22 118 170 182 182 188 192 193 194 196 196 197 198 197 196 199 198 198 199 200 201 200 197 197 195 195 196 194 193 196 195 191 192 191 187 188 185 182 181 179 181 177 177 175 174 172 173 167 166 169 173 173 174 166 167 164 160 154 147 141 138 139 132 124 126 119 110 98 89 79 73 71 75 60 36 42 37 37 45 40 47 45 43 45 33 40 36 35 46 37 40 36 18 122 173 181 182 190 191 193 196 196 196 195 199 196 197 198 199 199 199 200 201 199 197 196 194 194 194 195 194 195 194 192 193 191 189 190 186 185 185 184 181 179 178 177 177 175 174 172 172 171 173 174 174 172 167 166 163 155 146 142 141 134 128 123 122 118 109 96 87 71 71 68 74 57 36 38 45 37 41 37 46 46 41 47 34 37 41 36 44 39 44 34 15 137 171 180 179 189 194 194 197 195 197 197 197 197 196 198 196 198 199 199 200 198 194 193 193 194 193 193 193 194 195 194 193 189 188 187 187 185 184 186 184 184 182 178 177 171 172 171 171 174 171 173 171 171 166 163 162 154 148 145 143 136 130 122 121 114 108 98 85 74 64 68 72 55 32 37 36 38 37 37 42 41 39 44 42 37 38 42 47 37 79 38 27 145 179 181 180 188 193 196 195 193 197 194 194 195 196 194 196 196 196 196 194 196 191 192 191 193 193 191 193 193 192 193 192 187 186 188 187 185 186 184 184 180 176 174 175 176 175 176 175 170 171 163 167 170 167 163 159 152 148 143 136 134 128 118 115 105 101 91 89 76 70 65 65 55 31 34 37 32 35 34 33 41 36 41 41 34 38 43 53 34 121 38 29 160 182 183 183 184 192 192 193 193 195 196 193 190 191 190 192 193 195 193 194 191 188 189 188 189 188 189 187 189 190 188 189 184 184 186 183 183 182 184 183 179 176 173 177 178 178 175 172 172 174 170 168 171 166 161 158 148 145 140 134 132 119 117 116 104 101 94 91 73 69 65 59 53 32 32 35 33 33 30 34 34 33 35 44 29 38 42 45 48 130 75 53 160 184 178 177 174 176 181 184 187 186 188 189 187 188 189 189 190 191 192 189 189 186 186 188 185 189 188 185 186 186 185 185 182 183 181 181 179 177 179 178 179 176 173 176 178 178 174 170 172 171 173 171 169 163 161 154 149 142 140 133 131 119 119 112 105 101 95 87 71 63 59 59 53 38 32 37 33 32 36 38 28 33 29 41 32 36 41 43 44 128 104 82 154 170 165 164 160 153 163 165 174 172 175 181 182 186 188 187 187 189 186 186 184 183 184 186 185 188 184 184 183 185 180 180 179 178 178 177 176 176 176 176 178 171 172 174 175 174 175 177 172 173 169 169 166 159 157 153 145 140 135 133 126 119 119 111 106 95 96 83 70 61 57 60 51 38 36 31 36 30 34 45 33 27 31 41 37 31 40 43 43 120 120 113 145 156 155 150 155 147 147 143 147 144 150 157 168 177 182 184 185 186 186 182 183 182 179 183 180 180 179 177 177 178 176 173 172 175 175 176 176 177 172 171 169 169 169 173 176 174 176 173 173 168 172 166 157 156 151 151 142 139 134 127 122 116 113 113 103 94 93 81 75 59 62 58 52 37 41 30 35 30 35 41 42 32 30 30 37 28 40 39 43 124 129 134 146 152 149 144 146 139 134 132 128 126 131 133 140 154 166 174 182 183 185 182 182 178 175 178 179 177 172 174 171 171 170 168 172 171 171 172 173 174 171 169 168 167 175 173 174 173 173 169 174 170 169 165 154 151 152 149 143 137 132 126 117 113 114 113 104 101 91 78 70 58 63 55 47 44 38 32 36 31 33 38 40 36 33 30 33 30 37 41 39 120 122 131 138 141 139 135 131 132 122 114 115 118 115 121 117 122 135 145 161 172 178 177 180 177 173 180 178 174 173 169 170 162 164 162 171 170 168 169 172 168 164 162 160 162 168 169 166 164 166 165 165 167 162 157 150 153 149 146 137 137 129 122 118 114 115 111 106 106 90 76 67 60 58 53 45 40 31 32 31 30 34 34 39 31 38 33 28 31 33 41 46 123 119 119 139 133 124 128 120 117 115 108 103 100 98 100 103 106 107 112 133 150 163 173 173 176 174 180 171 165 158 160 157 159 154 153 149 149 149 150 146 142 146 145 141 142 142 146 154 155 154 153 156 161 161 155 153 146 147 142 137 132 128 120 114 114 108 115 107 106 95 77 66 59 62 47 47 35 36 29 28 32 27 31 38 32 29 35 34 30 37 42 41 120 120 120 133 139 139 131 132 130 132 133 126 123 114 109 103 103 104 105 118 134 152 168 173 173 172 177 171 166 159 153 152 149 144 132 131 124 117 113 113 117 127 127 118 119 128 131 143 146 152 147 142 139 149 153 154 150 145 142 136 131 123 121 112 113 109 112 108 108 94 79 63 57 62 41 43 41 35 31 31 23 26 31 31 34 28 33 33 43 34 50 37 121 119 122 133 145 148 140 142 134 136 131 133 124 119 109 107 107 110 111 116 125 140 160 172 174 177 179 173 164 153 146 144 140 133 126 117 112 102 93 97 97 97 96 95 102 114 121 128 136 141 142 137 136 132 146 149 149 141 137 134 128 124 120 112 114 112 108 110 108 93 80 59 61 52 37 42 40 28 37 31 25 27 28 34 33 31 34 42 41 34 65 64 121 115 135 138 142 144 132 122 104 92 82 81 71 75 62 64 61 81 92 108 120 134 160 175 181 184 180 173 160 150 141 131 130 121 115 108 105 95 90 87 90 84 83 84 90 100 109 119 122 130 130 129 128 130 135 138 140 138 134 129 129 124 117 115 113 114 113 110 108 91 81 63 61 46 39 39 41 26 38 30 28 25 28 37 32 31 35 41 45 42 80 107 120 114 145 139 135 130 108 79 57 69 71 84 65 65 49 63 53 75 78 78 96 130 163 182 185 187 182 174 162 149 140 128 124 114 109 105 100 101 96 97 90 92 92 90 91 95 100 107 111 113 119 116 123 119 124 124 129 131 127 126 127 124 118 114 114 115 115 114 106 95 81 66 57 50 38 40 40 34 32 30 26 26 26 36 38 34 38 40 55 58 84 124 119 111 152 148 131 116 88 64 57 102 114 86 73 55 57 80 71 93 105 71 74 110 169 189 192 189 182 171 163 150 137 128 119 109 106 103 99 106 101 99 99 103 115 119 120 119 112 109 109 109 113 115 115 113 114 111 114 115 113 118 120 118 116 116 115 115 116 116 104 100 78 71 57 44 45 34 44 36 31 29 25 30 26 39 39 36 51 58 67 65 81 127 116 123 153 159 135 106 86 87 90 103 134 99 78 82 86 84 79 89 102 76 76 107 167 193 193 191 182 171 159 149 133 121 113 101 101 100 102 98 84 72 65 69 81 94 112 123 128 124 120 111 106 111 111 110 100 105 104 104 101 106 110 115 115 112 119 117 116 115 107 103 87 67 55 45 40 37 33 36 29 26 32 26 38 42 38 57 93 88 72 64 91 111 114 128 155 160 154 113 101 114 123 122 123 136 102 96 98 108 106 101 99 90 86 118 169 196 196 194 184 170 160 147 129 115 107 99 105 103 106 92 79 79 84 102 95 65 59 68 76 94 110 115 114 114 112 107 102 104 100 94 94 91 98 107 115 117 117 118 115 115 111 105 90 70 55 47 37 30 37 31 32 33 38 32 49 66 80 102 110 98 73 63 98 107 109 138 154 168 165 138 123 132 147 154 146 136 129 127 125 123 115 105 102 109 111 121 176 197 200 195 188 175 161 145 122 108 103 102 107 114 109 92 79 89 104 129 115 81 80 68 48 47 51 69 91 107 114 111 106 105 105 102 99 97 98 97 107 116 119 118 113 115 112 105 100 88 70 54 36 34 36 34 39 51 53 70 93 103 107 107 114 108 74 67 112 89 107 142 163 174 171 159 146 140 151 157 158 147 141 132 128 113 108 95 95 106 111 132 183 201 200 199 187 176 160 140 117 106 104 105 108 117 114 90 78 87 105 131 122 86 74 65 59 59 56 47 53 69 89 104 106 108 109 107 107 104 104 97 109 113 122 119 117 117 116 108 111 104 85 64 48 45 45 54 70 81 74 53 91 105 104 108 114 114 73 83 116 94 105 151 164 169 175 170 161 151 144 139 133 132 127 122 116 106 102 105 109 119 128 155 191 201 202 200 188 179 164 138 116 106 107 106 105 113 116 108 101 97 102 119 125 99 80 84 80 70 65 73 69 45 53 71 86 102 108 110 108 104 101 99 106 109 120 118 116 120 117 119 115 109 102 86 79 74 73 94 91 94 71 48 72 93 96 103 114 123 72 99 114 89 108 153 166 175 177 178 178 171 157 148 137 130 129 127 130 129 130 133 138 144 151 176 197 202 200 197 187 176 159 137 117 114 113 110 106 107 110 111 105 103 109 113 115 109 84 73 72 73 79 93 76 57 49 51 64 84 99 103 106 105 102 104 110 115 122 125 120 122 121 121 117 114 112 107 104 103 98 107 103 90 70 62 65 87 86 96 116 119 79 114 105 100 115 160 168 176 179 185 189 181 178 176 175 168 167 162 156 153 162 165 166 165 172 184 201 201 199 194 182 173 155 139 123 124 124 116 111 108 110 110 104 100 109 112 114 115 110 105 100 100 95 96 91 85 75 65 70 73 84 93 100 104 105 113 116 119 122 125 125 124 125 122 120 117 113 115 111 111 110 113 108 88 70 79 70 81 80 90 121 117 87 124 106 105 120 161 172 174 181 188 189 186 181 178 183 180 174 171 173 177 180 184 182 175 180 190 200 200 198 188 176 164 149 136 134 134 138 127 122 126 122 118 114 108 105 113 120 125 120 113 117 119 111 109 114 113 102 98 86 86 80 90 99 106 111 117 124 122 123 129 127 126 125 123 124 119 112 119 116 115 116 120 109 91 84 93 75 71 75 94 130 106 105 122 101 107 130 164 174 176 183 187 187 187 187 176 178 177 178 181 188 190 188 185 187 182 183 195 201 200 196 188 175 163 148 138 139 141 148 137 135 138 142 136 128 123 117 113 109 119 125 128 130 130 127 124 124 118 115 112 110 105 97 97 107 113 119 125 125 127 128 129 127 122 123 123 122 123 120 117 115 116 117 123 128 89 106 110 76 66 76 112 132 97 122 115 101 108 132 169 174 177 182 186 187 186 186 181 177 183 188 190 193 191 190 190 188 185 188 196 201 199 194 183 170 155 146 142 143 144 153 144 143 144 158 159 151 145 135 131 121 112 109 114 115 113 116 115 115 114 117 116 118 118 117 113 117 119 124 129 129 127 128 129 126 121 121 119 122 121 122 114 115 115 120 126 145 90 95 110 72 65 102 131 118 103 128 107 107 106 137 166 175 176 182 187 184 184 186 189 189 188 189 193 193 193 191 191 185 184 191 199 200 202 193 184 168 157 147 147 148 152 153 153 151 151 163 171 170 162 152 145 145 138 131 122 121 113 111 111 116 118 122 123 123 122 126 126 127 129 126 128 129 132 127 130 124 121 117 117 122 120 119 114 114 113 120 130 143 113 79 85 62 90 126 121 105 114 133 101 105 106 139 169 173 173 180 186 183 182 188 190 192 190 193 194 194 194 191 190 182 179 190 199 200 198 190 178 164 154 147 147 149 152 153 157 154 158 167 173 178 173 170 161 159 156 156 153 147 145 138 136 128 130 134 132 136 134 131 130 135 136 134 132 130 131 129 128 125 121 120 116 119 121 120 118 117 110 121 132 128 129 88 107 86 114 127 107 108 128 120 102 107 105 140 167 172 172 176 185 182 184 189 191 192 192 190 193 195 192 188 188 182 179 189 199 201 196 186 175 161 152 149 146 145 149 151 158 158 162 167 172 178 176 176 173 169 167 164 164 154 147 149 155 148 146 144 141 142 143 137 132 134 137 133 133 130 129 128 127 123 119 121 113 122 117 117 116 113 110 121 129 114 115 105 137 137 120 111 102 118 128 116 101 107 105 146 170 167 170 176 184 186 185 190 191 191 194 190 193 192 189 188 187 186 186 194 199 201 195 183 168 165 152 151 145 151 149 155 157 157 160 167 173 176 179 183 181 180 178 173 169 159 148 158 160 160 156 151 148 148 147 143 139 135 138 134 134 130 128 128 123 121 121 117 115 117 118 113 113 113 112 125 119 115 97 107 139 147 124 98 108 122 130 104 104 108 107 152 164 170 171 182 185 187 188 187 189 191 191 191 189 191 188 185 188 186 191 196 198 200 193 181 172 164 157 149 144 146 149 151 153 156 161 165 174 177 179 186 181 179 183 178 179 178 169 171 167 164 164 158 157 155 151 146 145 139 135 136 135 130 131 127 125 124 120 116 118 115 117 112 114 113 114 120 122 107 91 122 127 137 136 112 119 125 121 107 104 106 104 152 166 167 175 185 186 186 188 185 186 189 189 187 185 186 183 180 185 187 193 198 198 197 189 178 166 165 153 146 143 141 143 145 152 152 162 167 170 174 176 182 178 179 181 180 179 178 175 174 171 166 167 163 160 154 150 148 146 143 137 137 133 130 130 127 121 120 118 117 113 119 117 111 115 114 116 119 114 108 112 132 121 126 133 130 126 127 110 103 106 104 107 154 158 166 176 184 186 184 189 184 187 183 187 183 180 177 169 177 185 190 193 197 199 197 185 175 165 160 151 144 133 131 134 137 143 151 161 167 172 173 175 176 180 180 177 176 176 173 174 170 167 163 163 160 157 154 148 148 142 143 134 135 133 131 128 124 121 118 116 117 113 116 115 110 112 114 114 116 111 115 119 130 124 119 123 129 134 123 105 107 105 106 107 149 158 163 175 183 184 185 184 183 185 182 176 175 167 161 162 179 186 193 195 196 199 193 181 171 165 160 149 137 128 123 129 132 128 140 149 162 169 172 175 177 177 181 179 174 175 175 171 168 166 161 157 158 154 152 146 143 138 134 130 133 130 126 125 124 117 116 116 114 115 112 112 113 113 113 114 115 116 110 118 124 128 121 126 129 124 124 103 104 105 106 106 148 157 164 172 180 183 181 178 180 182 180 172 164 154 150 165 186 191 198 196 198 196 191 180 172 163 156 143 129 122 119 126 131 125 129 137 150 160 166 170 174 173 176 177 175 174 171 170 167 165 160 158 153 151 147 139 139 142 137 127 132 129 124 124 119 119 114 115 112 115 112 111 112 112 115 114 117 123 115 118 122 129 128 129 133 131 120 98 106 109 103 108 149 158 163 166 178 182 179 174 172 173 171 164 155 146 149 174 187 195 198 196 197 192 191 179 174 162 154 143 127 121 130 137 136 129 123 128 143 153 162 163 171 173 170 173 175 172 170 168 166 164 159 160 154 153 144 132 133 144 142 130 131 128 124 121 116 117 111 115 112 110 113 110 111 112 113 116 119 123 125 121 124 131 130 132 134 134 116 101 104 108 102 104 147 158 160 163 170 176 180 172 169 166 157 152 144 140 160 181 192 197 196 194 194 186 182 172 169 165 156 144 130 131 142 155 153 137 124 123 131 145 153 161 163 172 170 169 172 170 171 169 166 163 158 157 156 152 150 141 139 141 139 132 131 125 123 121 120 116 108 110 114 112 108 110 111 112 112 115 114 119 130 133 122 133 128 130 131 125 110 100 106 105 102 103 141 155 158 161 166 173 171 165 165 151 144 140 135 145 168 185 195 199 193 190 186 181 177 169 164 161 149 143 137 135 143 151 148 135 116 110 120 134 141 151 161 166 167 170 167 167 162 162 159 156 151 152 152 147 148 140 139 135 136 131 131 123 124 120 117 116 105 106 112 110 111 108 112 112 111 112 114 105 129 132 131 132 126 125 125 117 103 105 106 102 105 105 140 152 155 165 163 166 164 159 153 141 134 126 135 150 165 182 192 195 188 184 181 171 169 164 160 153 147 138 132 132 139 141 140 125 111 104 113 126 135 141 151 158 159 162 160 159 160 156 154 152 152 148 148 144 140 139 134 134 131 130 125 122 123 116 117 114 110 111 111 110 112 111 109 113 109 114 106 96 124 129 128 132 122 116 115 105 105 102 105 105 104 103 134 149 153 158 161 160 155 152 144 134 123 131 144 159 166 169 182 186 183 175 172 168 162 155 151 145 138 132 123 125 126 132 129 124 108 96 109 119 126 134 138 151 154 155 152 154 155 154 147 150 146 140 140 137 135 136 132 133 125 127 124 123 122 116 114 116 110 114 109 108 112 110 109 111 111 116 99 88 114 119 121 117 112 105 106 103 103 103 107 102 103 102 128 149 146 156 156 159 149 141 133 128 123 136 157 170 171 160 165 171 169 164 158 158 153 145 141 130 120 119 120 118 121 121 122 118 102 96 109 120 117 125 131 141 147 150 148 153 153 150 146 144 142 134 130 131 133 133 134 128 120 124 120 122 119 118 114 114 112 112 110 109 111 111 113 109 112 116 94 81 106 110 109 106 101 105 100 103 104 104 104 101 106 101 126 150 149 151 153 150 143 130 123 123 130 142 160 174 177 162 152 149 144 147 142 142 137 131 124 111 107 105 105 107 110 111 111 106 98 103 115 127 127 123 122 131 136 139 141 146 145 146 141 140 133 129 125 123 128 127 127 123 122 119 121 119 115 116 114 114 109 111 109 111 108 112 111 112 110 111 99 95 96 96 95 98 102 104 102 106 103 100 105 102 103 101 118 152 153 151 149 147 133 126 125 133 139 150 164 170 165 155 139 131 128 123 123 122 113 114 103 97 88 79 79 85 86 86 87 88 94 105 119 128 127 126 119 119 128 132 135 136 140 136 137 134 130 123 123 120 122 118 120 123 119 119 119 119 118 117 115 111 112 112 110 112 110 108 110 110 114 105 97 107 99 104 103 105 107 105 101 104 104 101 104 102 104 102 114 145 154 153 152 141 121 119 132 139 142 144 149 148 149 143 132 114 112 115 113 111 106 100 97 87 82 76 71 68 78 81 85 93 96 102 118 122 127 125 123 118 116 121 130 128 134 129 130 128 128 119 113 112 111 118 114 118 116 117 118 118 116 119 113 112 107 111 110 107 110 109 110 110 106 107 101 100 105 103 107 102 102 102 104 102 103 102 102 100 104 100 106 145 151 155 150 137 119 119 142 149 146 139 132 135 140 136 134 126 111 104 100 95 101 98 99 94 89 85 77 70 77 73 82 89 97 107 117 122 128 128 128 117 110 113 114 123 125 124 125 125 121 119 113 110 107 118 115 117 115 117 118 113 114 115 113 107 110 113 107 108 111 107 111 108 108 101 104 102 105 104 105 103 103 102 104 102 103 104 99 102 103 103 106 137 150 159 155 143 120 121 143 148 140 134 131 131 136 139 142 134 114 99 90 93 83 89 101 101 99 102 90 78 77 76 72 85 88 101 114 122 127 128 124 117 113 108 104 113 119 120 120 119 118 115 117 113 110 115 115 115 112 117 116 112 113 114 108 110 105 110 107 107 108 110 108 110 106 105 102 102 105 104 105 102 105 101 102 105 103 101 103 103 101 103 106 135 148 154 155 150 124 118 134 133 133 134 129 126 127 134 138 128 118 106 93 92 76 83 107 112 111 107 100 85 85 80 74 77 82 94 106 122 127 126 118 113 108 106 99 103 108 115 115 116 116 111 114 114 114 111 115 114 112 116 112 111 112 112 111 108 107 109 106 110 110 109 105 108 105 103 102 103 104 103 104 104 102 103 102 102 103 99 102 102 102 104 102 123 145 152 150 153 133 119 125 120 123 135 131 125 127 133 136 128 123 114 106 90 66 86 115 124 113 110 100 87 93 86 82 80 85 94 103 113 120 124 113 103 100 105 107 103 102 105 113 116 116 116 117 115 111 113 114 115 114 116 111 110 114 111 110 109 108 107 107 107 108 103 106 104 100 108 99 105 103 102 103 104 102 102 100 103 102 102 101 100 101 100 105 116 138 147 154 153 139 113 111 109 113 128 130 127 129 123 125 128 130 125 113 98 68 92 122 122 115 106 102 86 90 95 87 85 89 99 101 104 110 117 107 101 96 99 105 99 98 100 108 112 117 114 117 115 117 114 114 115 113 117 110 111 109 111 112 106 109 102 107 102 110 103 101 104 101 107 102 104 101 103 103 103 103 100 105 103 102 100 104 101 101 101 113 105 135 149 155 156 135 111 108 104 110 119 126 127 122 114 109 119 126 125 111 89 73 94 122 122 110 105 92 90 89 97 91 90 88 92 97 105 100 102 106 95 87 96 90 94 95 97 99 111 117 115 119 117 117 117 114 115 111 116 109 113 111 110 111 109 103 105 103 103 103 102 103 98 106 105 100 104 104 101 103 103 103 101 99 103 102 100 101 100 100 102 110 106 123 147 151 157 137 111 102 101 99 110 118 114 114 107 104 115 129 124 108 85 73 102 124 122 105 99 89 89 94 98 97 89 89 92 87 97 99 100 92 96 93 83 86 91 95 93 103 111 118 124 118 121 120 119 115 113 111 112 112 108 110 110 108 101 100 105 103 103 103 96 103 91 109 102 102 104 102 103 102 102 102 102 102 102 101 99 104 99 100 98 108 107 112 129 145 151 146 121 112 101 102 102 105 110 115 113 100 112 126 118 95 73 63 101 126 122 97 89 81 86 93 97 95 84 91 94 88 88 97 102 92 90 90 89 77 84 83 90 105 115 121 118 121 122 121 118 119 114 112 110 110 107 107 105 101 99 100 102 99 103 100 97 100 100 104 96 102 104 101 102 102 100 101 102 99 102 98 104 97 102 100 99 109 107 111 118 132 145 148 139 124 108 108 109 111 114 112 119 111 119 126 113 93 80 59 95 125 129 100 81 84 92 90 93 90 86 82 82 77 85 90 96 94 83 82 92 82 83 82 90 107 121 125 116 119 123 120 117 115 113 115 112 109 107 107 100 100 99 102 101 100 98 95 94 97 107 86 96 101 103 101 102 101 99 103 100 102 102 99 101 101 102 98 100 108 118 118 112 124 139 142 143 131 118 120 122 128 128 121 126 122 128 127 118 101 88 78 91 121 131 111 82 82 91 86 83 82 75 75 75 77 76 84 86 88 81 82 87 85 87 90 100 116 125 125 120 124 123 119 114 113 112 112 109 107 103 104 99 98 102 99 100 98 95 97 95 98 111 64 87 104 100 104 101 101 100 101 101 100 100 100 100 101 100 99 101 123 127 85 86 120 128 135 139 135 122 122 131 137 138 134 134 133 133 134 124 114 104 93 94 104 109 109 85 88 89 86 80 78 80 83 89 87 84 89 88 88 88 88 86 91 96 101 109 122 126 127 121 124 120 116 113 112 112 110 108 106 104 105 99 97 97 99 98 95 94 98 97 103 108 34 86 101 100 101 99 102 102 99 102 98 99 101 97 100 99 101 96 128 98 46 105 121 122 124 133 132 123 121 133 137 144 145 144 143 135 132 130 117 113 109 106 104 102 104 98 95 98 95 97 94 100 101 100 100 94 95 95 95 96 98 92 94 101 108 114 124 126 128 120 112 109 111 113 110 109 108 105 103 100 100 100 100 95 93 96 92 92 97 98 110 90 16 75 91 83 100 97 102 100 97 99 103 97 101 101 100 99 97 101 109 55 77 145 117 111 122 125 125 126 125 138 141 146 147 148 148 143 130 121 118 110 109 107 102 105 105 105 107 104 101 105 106 105 103 106 101 101 101 101 104 104 105 103 100 103 110 119 118 122 123 112 110 109 110 108 105 106 103 105 99 98 99 96 97 97 89 92 92 93 97 100 116 46 22 80 94 37 81 98 98 97 101 100 98 98 99 98 99 98 97 97 77 46 112 154 108 98 113 117 123 127 129 141 145 148 150 149 148 148 136 127 121 113 113 106 99 102 98 103 103 104 102 100 101 106 105 107 107 106 107 110 108 109 111 105 103 106 114 119 120 120 116 116 107 110 106 106 106 105 106 100 102 102 95 99 96 89 87 93 92 92 98 101 113 24 32 65 116 19 48 78 94 102 97 99 101 97 103 97 100 97 98 98 47 78 128 151 110 60 109 115 119 124 132 138 145 155 158 156 151 149 138 132 123 119 116 109 105 101 101 102 102 102 102 102 106 108 108 115 113 111 113 113 113 115 112 109 106 107 108 116 119 113 112 110 109 106 107 105 105 105 102 100 99 99 95 96 93 87 95 90 96 98 97 107 95 6 36 68 118 55 19 56 69 98 102 99 96 95 99 96 99 97 99 93 63 102 132 145 123 42 68 114 118 114 134 139 148 156 159 162 156 152 142 141 130 128 125 117 114 111 108 105 109 105 104 105 110 111 113 121 116 113 118 114 115 117 111 112 107 106 110 115 114 114 109 108 107 106 105 103 105 102 100 99 93 95 95 89 89 89 93 93 99 101 96 115 67 7 41 71 106 101 19 34 45 77 104 105 97 97 98 96 98 97 96 98 55 115 130 146 126 56 25 110 111 112 127 137 146 156 161 163 163 158 152 148 142 144 141 134 130 125 117 114 116 114 110 110 113 118 117 121 119 119 117 121 115 115 114 111 110 107 111 110 112 109 107 103 104 103 102 101 101 97 94 94 96 95 90 90 92 93 94 100 97 103 102 115 35 13 42 74 108 106 50 27 23 61 94 102 108 97 101 97 95 98 96 96 115 129 129 149 126 61 15 102 112 108 112 132 142 159 163 163 162 162 151 149 151 148 144 139 138 136 131 127 121 117 118 118 116 119 122 124 123 121 123 119 117 114 114 112 112 108 109 109 106 108 102 102 104 103 97 99 95 94 93 91 92 90 88 90 93 95 97 102 98 102 112 101 19 25 42 76 108 98 85 20 31 33 90 82 108 105 99 102 102 97 96 95 128 127 122 145 132 70 23 87 119 105 103 118 138 155 166 163 163 168 165 158 160 158 151 145 148 143 141 138 129 123 122 123 123 117 121 125 122 122 121 120 116 117 112 112 113 108 108 105 109 103 103 99 101 97 95 96 91 94 96 87 87 90 93 88 93 96 102 97 97 101 111 82 8 32 44 85 109 91 102 29 26 27 68 81 100 102 103 102 98 103 100 99 121 128 123 145 134 87 27 78 116 116 101 99 124 147 165 161 161 167 174 167 164 159 160 149 145 147 144 144 138 135 128 125 123 124 123 121 122 118 121 120 119 116 113 111 110 108 106 109 107 101 99 100 95 97 93 90 92 90 94 84 89 89 92 92 94 97 98 99 104 98 118 55 7 38 52 88 108 95 104 49 13 43 60 88 89 101 94 113 104 102 100 102 117 125 124 144 139 103 38 74 106 118 113 93 101 137 155 164 165 167 165 165 164 160 151 144 139 144 144 147 141 133 130 127 120 127 121 118 122 117 119 122 118 112 114 110 109 103 106 105 104 101 97 96 97 95 92 94 91 89 91 90 90 91 94 95 95 95 100 98 103 105 110 32 14 45 58 98 109 91 101 62 8 34 66 83 81 96 97 108 95 112 104 97 109 124 129 131 144 115 65 68 88 115 113 104 92 114 149 157 161 167 164 160 157 152 141 134 135 143 144 142 139 131 125 124 124 120 123 120 122 118 114 113 114 106 108 108 104 102 100 101 95 97 99 97 95 94 89 94 90 86 91 87 85 89 94 96 94 97 95 103 103 109 93 15 23 52 71 101 110 89 101 76 14 27 71 85 97 95 82 105 97 105 114 104 102 120 137 134 146 119 92 66 77 109 109 109 94 97 133 150 152 159 159 158 150 144 128 122 124 134 134 135 134 127 124 119 124 118 119 123 117 114 111 111 111 102 98 99 94 99 96 101 98 100 94 99 88 92 88 87 88 87 90 84 91 93 91 91 95 95 100 106 102 109 61 12 31 62 88 107 107 90 89 88 34 18 63 84 102 92 92 92 94 108 110 104 98 113 135 130 145 131 100 82 71 98 112 106 98 92 104 138 142 150 151 151 143 134 124 115 115 126 129 129 125 122 116 114 118 121 116 116 114 110 107 111 104 101 97 93 85 94 93 93 98 96 90 91 91 92 87 86 87 87 88 88 89 96 88 92 93 99 104 103 103 97 32 17 49 74 96 109 105 85 95 82 51 23 55 83 102 101 89 84 102 103 105 100 103 104 123 126 143 139 98 97 77 79 111 102 101 93 87 113 133 136 134 138 127 119 111 113 111 118 125 125 120 117 112 110 108 116 111 109 105 103 106 105 96 95 89 89 86 89 90 91 89 89 89 91 87 90 85 81 84 84 88 88 91 92 91 96 97 97 104 102 98 75 14 34 56 86 101 109 99 88 87 70 65 18 56 81 102 100 92 85 91 99 89 100 107 107 108 130 140 146 123 107 93 71 101 105 101 98 88 90 107 122 122 118 117 112 107 102 102 108 111 113 112 108 110 107 108 106 103 103 98 103 97 98 86 89 80 84 85 87 92 93 86 87 86 90 89 84 84 82 83 89 87 92 90 94 94 95 103 97 98 100 89 46 15 52 71 92 105 109 96 91 82 56 81 9 55 87 99 104 89 92 86 91 92 76 124 108 96 126 135 139 140 111 104 74 78 110 101 97 88 85 87 104 112 108 106 105 102 96 94 96 98 103 107 99 102 99 101 97 97 96 94 95 92 85 82 81 82 85 87 86 89 85 87 87 83 86 84 83 87 85 84 84 87 90 93 94 98 96 102 98 95 94 65 22 41 65 87 99 105 108 90 93 77 42 94 4 54 88 98 106 90 94 85 77 104 92 129 113 81 131 134 127 144 122 108 92 61 102 102 98 92 87 81 92 103 104 101 97 91 92 89 86 89 94 96 95 93 91 92 91 87 88 85 85 78 78 78 84 86 95 86 93 87 87 84 85 88 81 87 83 83 85 83 88 90 90 97 95 98 99 99 95 99 75 40 26 64 68 90 113 106 105 92 91 72 35 99 13 47 91 100 103 98 95 88 74 94 101 138 109 75 133 125 135 136 131 111 104 65 89 100 98 91 86 84 79 92 105 108 105 99 89 89 86 87 84 86 88 86 84 86 84 81 80 78 79 81 84 83 88 93 90 94 95 90 89 87 87 86 86 84 84 81 85 88 91 93 89 95 96 98 95 94 93 85 56 24 45 77 71 100 112 105 99 89 93 70 39 95 23 43 90 100 101 98 101 89 74 79 101 144 106 69 128 131 137 135 148 117 109 95 69 91 95 91 84 87 81 78 89 101 107 106 102 100 91 97 90 93 89 88 89 83 83 86 82 88 85 89 89 92 93 96 93 92 95 93 93 90 87 86 87 84 83 86 85 93 95 96 91 95 97 95 94 90 91 64 34 30 72 76 73 97 107 113 92 91 87 71 37 99 29 41 90 101 100 100 101 94 75 70 107 143 100 67 124 123 128 138 149 106 104 111 73 80 90 93 86 86 82 83 75 86 97 106 104 101 98 99 98 95 98 95 95 90 90 93 88 92 90 87 91 89 94 96 91 92 94 90 87 92 86 89 85 88 82 91 92 95 96 98 90 94 93 92 94 86 73 47 26 55 77 79 89 109 107 111 93 91 82 73 40 97 33 43 88 103 103 99 99 97 74 68 103 140 96 67 118 117 128 154 105 21 81 130 73 68 86 84 91 85 82 82 78 74 78 98 104 101 101 102 99 99 99 101 96 99 89 95 91 92 93 90 92 91 92 93 91 91 93 87 84 93 83 83 83 88 91 94 92 94 97 94 90 92 93 91 83 76 53 33 40 71 91 71 101 115 112 110 94 89 84 71 41 96 36 45 84 103 101 100 97 95 69 71 101 