P2
92
112
255
122 123 122 123 124 123 122 123 124 120 120 125 122 124 123 124 123 123 123 123 123 125 125 118 116 122 121 127 130 122 125 128 126 123 116 120 124 119 119 112 111 114 116 108 95 91 89 83 83 79 75 76 74 68 75 66 73 78 63 78 71 80 94 94 88 96 96 92 114 121 120 118 117 116 121 120 120 121 117 118 121 119 118 120 120 115 117 117 118 118 114 118 124 122 122 123 124 123 125 122 122 124 121 126 124 122 123 127 123 123 123 122 120 122 112 104 103 112 113 110 105 111 111 114 114 115 109 105 106 103 105 118 117 112 108 100 92 93 84 84 73 70 69 71 60 61 61 69 62 68 57 54 59 58 67 88 84 75 84 85 88 112 120 120 117 115 120 119 119 121 118 121 118 119 117 120 118 116 119 117 115 117 116 114 122 123 122 122 122 125 121 122 125 120 124 123 123 121 125 124 123 125 118 124 112 106 102 105 100 102 114 110 99 98 105 105 113 107 89 92 95 101 110 113 113 115 114 106 94 87 74 70 66 63 67 64 60 62 60 53 56 55 53 49 48 54 51 62 71 82 87 75 71 98 112 116 117 117 119 120 118 117 119 118 117 120 117 117 117 116 119 115 119 116 115 115 126 120 122 124 122 123 123 122 124 121 122 124 122 124 123 122 122 124 118 110 94 100 107 105 90 94 105 108 93 102 96 98 95 91 84 93 93 103 105 112 112 112 103 97 89 85 81 76 76 72 80 78 74 77 68 61 57 51 56 44 42 35 51 46 51 61 81 81 71 74 97 117 114 115 120 119 119 117 119 118 120 119 118 117 120 115 119 118 115 117 119 113 120 123 122 123 122 123 122 125 124 123 124 121 123 123 125 123 122 124 119 82 81 92 104 95 81 76 88 91 98 96 100 99 104 102 94 97 98 109 113 119 113 108 107 106 98 92 95 87 93 89 85 80 75 71 66 62 64 61 55 52 52 40 34 43 45 46 62 73 79 71 69 102 121 117 118 119 119 119 117 119 121 117 119 119 121 117 115 118 116 118 116 120 122 125 120 122 122 124 123 125 122 125 120 122 123 120 124 121 119 119 116 74 70 76 88 91 86 74 77 87 88 85 93 97 102 99 98 98 105 103 107 108 102 98 102 98 103 99 101 95 91 80 73 66 73 66 65 60 63 61 51 55 56 50 38 36 42 38 46 59 68 72 60 72 100 120 115 116 119 118 120 119 118 119 120 117 119 118 116 120 115 119 114 121 121 124 123 120 125 123 123 124 123 124 120 124 121 124 118 120 111 111 101 86 72 76 68 69 91 74 73 71 77 80 85 81 92 92 87 92 96 93 91 94 92 93 97 98 104 98 93 84 80 70 66 63 69 66 64 61 64 61 59 58 52 54 48 49 43 40 38 36 61 61 68 64 74 108 118 117 119 118 118 114 118 117 121 117 121 116 120 117 117 117 115 118 123 121 124 121 123 123 121 123 124 122 123 121 121 122 113 117 104 91 97 84 68 69 69 70 69 76 79 75 58 73 74 76 76 78 69 75 82 87 97 97 93 97 89 89 84 78 75 74 69 64 63 69 74 72 69 62 56 58 59 55 57 53 53 61 57 63 42 39 45 52 57 60 66 88 118 119 119 119 116 117 114 118 116 121 119 117 118 115 119 115 117 115 122 123 121 123 122 122 121 126 120 127 120 123 119 113 104 103 87 92 92 76 62 63 67 68 70 60 72 75 76 82 78 80 90 88 92 98 96 105 108 100 94 87 79 80 82 74 69 69 67 81 76 81 80 77 66 63 60 65 61 60 68 63 63 65 70 80 68 52 55 41 43 53 54 73 103 117 118 120 119 120 120 118 116 115 118 118 118 120 116 120 116 121 122 126 125 125 123 123 123 125 123 125 120 115 92 75 95 83 89 88 93 87 75 70 76 72 65 77 77 77 79 84 80 66 70 78 87 84 90 97 93 95 89 89 96 87 77 74 71 77 89 89 82 87 75 75 77 66 68 72 81 77 80 76 77 90 89 100 96 83 70 59 47 40 50 45 78 101 116 120 118 116 117 116 119 117 117 116 124 114 120 116 116 118 123 123 124 123 123 123 122 124 125 110 98 91 79 88 95 108 100 99 90 86 79 73 76 83 76 77 84 81 72 66 75 75 69 75 85 84 81 90 92 87 85 84 85 81 84 90 88 93 90 88 87 94 82 78 83 91 85 87 93 95 96 96 90 96 101 115 123 110 105 90 67 46 44 41 47 75 98 114 122 119 116 118 121 116 118 121 119 116 121 119 120 121 122 123 126 123 124 122 123 122 118 100 71 76 83 90 97 106 100 93 80 79 74 74 82 95 98 99 96 89 84 79 79 85 74 82 80 77 74 78 87 89 93 94 94 90 90 93 91 103 105 107 104 105 99 100 95 102 108 104 107 108 114 112 105 112 112 122 132 130 133 123 103 73 43 44 42 53 78 96 109 121 114 115 119 117 117 118 115 116 117 119 116 119 124 124 123 122 125 123 122 125 113 84 60 71 80 85 105 100 92 88 90 81 64 68 73 96 101 102 95 94 86 82 70 70 78 85 80 80 82 88 90 90 93 88 90 93 101 112 111 116 114 107 117 115 114 110 112 120 122 124 117 124 122 123 119 125 131 136 136 140 145 142 128 112 87 50 47 46 56 74 96 109 114 113 115 118 119 118 117 117 120 119 119 118 122 124 123 122 124 122 118 122 101 73 74 79 87 92 96 104 94 77 71 80 68 75 93 102 108 103 98 98 88 77 82 78 76 85 87 88 84 90 96 99 99 97 101 105 103 109 113 115 115 118 120 119 121 129 127 133 135 138 136 137 143 142 144 145 139 143 140 147 145 151 141 132 124 92 53 44 53 61 85 92 104 117 109 111 121 117 119 118 119 119 117 118 122 124 123 125 121 125 120 117 79 71 79 77 92 92 108 103 86 63 57 67 74 81 96 107 112 106 110 101 91 80 81 88 87 95 99 101 100 107 110 108 104 101 112 109 110 113 118 122 126 134 137 141 141 139 144 146 146 152 144 150 156 158 159 155 152 155 155 149 155 151 149 140 138 121 83 54 49 55 77 93 94 108 112 104 110 118 114 121 119 117 118 119 123 125 125 125 120 125 117 93 71 65 63 82 87 104 107 78 58 52 50 69 92 107 101 102 104 104 100 102 101 100 107 124 128 120 115 117 108 107 118 120 113 119 123 116 125 129 135 143 154 154 154 154 153 149 145 158 155 159 156 157 160 161 163 158 154 160 160 154 158 157 153 147 135 139 113 71 67 61 63 74 90 98 103 112 104 103 107 118 123 119 117 118 124 123 123 122 122 124 108 73 65 69 69 75 91 102 84 77 60 62 58 83 113 122 127 112 116 112 112 114 120 129 144 147 145 139 141 145 140 133 131 136 134 134 130 138 142 149 156 160 163 157 158 164 163 160 161 164 164 159 163 162 161 164 163 165 163 162 161 162 156 161 153 150 145 137 134 91 42 62 62 67 82 97 105 106 104 99 89 109 115 121 119 114 124 123 122 125 123 129 91 67 64 65 71 83 101 109 90 71 69 67 73 106 120 127 129 118 122 129 134 136 142 149 150 144 143 144 142 140 152 158 157 149 151 151 155 154 160 162 171 165 166 157 163 171 170 172 168 168 157 161 159 165 164 165 164 168 168 165 162 169 156 158 154 149 153 138 135 125 62 37 57 65 70 100 101 110 101 96 101 97 97 112 116 119 123 121 122 121 126 111 79 55 48 65 75 100 111 99 83 73 71 68 95 133 149 151 151 148 138 146 156 143 146 156 162 163 163 166 164 163 158 166 168 167 157 170 165 158 160 168 172 171 174 166 175 173 176 174 169 162 164 164 165 166 165 166 166 162 165 166 168 176 169 164 154 155 152 148 133 134 111 36 43 53 72 87 108 110 102 98 90 107 95 85 107 118 121 125 122 126 122 83 56 50 62 66 91 106 102 94 82 76 66 78 107 147 154 161 160 166 172 172 183 172 173 175 172 177 177 177 186 186 191 190 185 191 182 181 182 182 187 187 188 182 175 179 177 175 170 167 163 165 172 172 168 168 171 168 165 170 164 167 170 175 182 170 157 155 150 145 140 134 128 76 35 41 57 88 96 106 105 86 94 81 106 105 87 102 124 122 125 127 107 59 56 61 74 102 99 97 103 84 80 79 76 97 121 149 168 161 170 179 184 187 191 191 187 180 185 191 194 187 187 199 199 199 199 196 197 192 193 196 193 194 190 186 179 185 183 180 178 180 173 174 171 175 174 171 169 169 169 171 174 169 169 178 186 179 165 157 153 144 147 137 127 110 62 44 34 63 97 89 115 88 88 90 88 112 113 98 120 123 122 122 80 55 67 70 76 91 92 101 89 78 74 73 91 103 129 161 167 174 182 186 189 188 191 192 193 194 198 198 198 195 196 201 203 204 203 200 200 205 199 198 196 197 196 189 180 186 188 182 181 183 180 175 176 177 171 169 168 170 172 171 170 168 171 176 185 192 173 165 159 147 150 145 130 121 90 49 51 30 88 89 110 99 87 94 90 92 111 113 120 124 124 117 71 67 66 71 76 85 97 80 82 82 89 101 101 120 142 160 171 178 185 187 188 191 194 196 194 197 201 201 199 197 201 200 203 207 204 202 199 200 202 199 195 197 196 189 186 188 189 187 185 184 180 176 175 175 174 168 173 171 174 174 169 170 171 174 181 189 176 163 165 150 148 151 135 125 112 59 45 48 37 99 95 104 88 84 98 88 96 110 124 122 127 99 66 72 67 74 78 81 85 89 99 97 102 102 110 130 153 163 178 180 186 187 189 192 195 198 195 198 202 201 200 198 201 200 202 203 204 203 199 199 201 202 195 190 195 194 189 190 191 187 184 183 182 176 177 178 180 176 176 175 175 175 174 174 175 171 174 179 174 163 161 152 152 148 144 121 123 80 43 47 43 70 92 97 90 83 88 92 82 102 120 124 120 78 60 73 67 62 73 73 103 103 109 102 106 106 120 135 162 170 178 183 189 189 192 196 196 198 198 198 200 202 202 198 201 200 198 202 200 203 199 199 200 200 197 190 192 193 194 188 191 186 182 183 184 179 175 177 181 175 177 176 175 174 171 169 173 168 170 166 168 163 159 149 149 147 146 124 112 113 55 51 53 56 97 81 100 76 86 91 76 91 122 123 101 63 58 64 56 62 71 83 92 97 106 105 96 106 119 148 166 171 176 186 188 191 196 198 197 196 199 199 199 201 200 199 198 198 199 199 199 199 198 197 199 197 196 190 190 193 190 187 188 185 182 181 183 178 177 177 175 175 179 177 175 175 174 168 170 169 165 165 166 153 154 146 152 148 146 133 110 109 82 53 56 56 83 85 93 72 85 90 78 77 125 119 83 62 54 49 53 68 73 79 89 102 98 94 102 117 129 156 168 174 177 187 188 191 196 194 195 198 199 199 200 201 200 197 195 196 197 200 196 193 196 196 194 193 194 191 188 187 190 188 184 185 183 182 181 175 175 176 173 173 174 174 176 172 169 166 166 166 155 165 161 148 150 147 147 147 145 133 112 112 78 60 76 53 80 83 68 84 79 80 81 68 128 111 69 60 47 42 61 67 68 74 99 90 92 105 108 112 139 159 171 179 177 188 188 192 194 195 195 199 197 197 200 201 199 198 198 198 198 197 196 193 196 194 190 191 191 192 186 188 192 188 189 185 180 180 179 175 173 173 172 168 171 173 175 169 167 163 160 156 155 161 155 144 143 149 146 150 138 133 112 111 87 57 47 65 78 86 53 77 66 73 75 69 126 85 57 54 48 51 58 53 72 89 88 90 103 100 95 120 145 162 180 177 181 190 187 191 198 196 197 198 196 196 198 197 196 195 200 198 198 198 193 194 193 196 195 189 192 190 190 188 192 192 188 183 181 177 176 172 172 172 170 169 166 165 166 163 166 156 149 151 155 159 152 143 145 144 149 144 138 131 116 114 100 62 61 48 80 96 57 58 61 68 74 73 123 63 55 53 43 57 46 56 74 84 90 91 95 94 99 127 149 163 177 177 182 188 193 195 194 196 197 196 196 196 197 195 195 196 199 199 198 196 193 196 195 198 195 190 190 186 189 191 191 188 185 180 177 176 176 176 173 168 168 162 165 164 166 161 154 153 150 148 156 151 133 137 143 141 146 146 141 129 114 112 100 69 55 66 57 107 64 47 52 60 75 63 114 57 47 43 55 46 42 56 76 76 90 89 83 93 107 130 149 165 179 180 185 190 194 195 194 194 196 195 196 195 194 197 197 198 199 198 197 196 194 192 195 193 191 192 190 186 186 189 190 185 185 180 175 180 175 176 173 173 170 168 167 169 164 158 154 154 151 147 147 145 138 136 141 146 146 143 136 128 116 113 110 64 58 57 66 88 88 36 53 55 74 62 108 54 40 46 57 38 45 52 73 76 84 84 84 97 117 135 151 168 181 185 185 191 192 194 196 193 195 195 196 195 196 199 199 199 198 198 195 195 194 194 193 194 192 192 189 186 186 187 188 187 184 177 180 179 173 174 173 172 170 170 170 168 164 166 157 155 146 144 142 142 145 141 145 148 148 143 132 125 116 114 114 75 42 48 64 75 105 32 42 54 66 66 91 49 38 49 51 35 39 57 66 79 76 85 93 100 116 135 158 177 184 184 188 190 192 194 194 194 193 198 194 196 196 199 198 199 200 196 195 194 195 191 193 194 190 192 189 189 188 186 183 185 182 174 180 176 174 171 174 169 169 164 166 164 168 166 165 162 153 143 146 148 145 143 143 149 149 144 132 126 118 117 111 86 50 43 46 60 104 37 39 50 63 65 65 40 46 50 48 32 45 57 64 70 82 88 92 103 117 135 159 180 181 186 187 188 191 193 191 191 194 196 195 197 196 198 199 200 198 197 197 195 193 192 192 191 191 191 188 190 187 183 180 182 180 176 175 175 178 172 178 174 170 168 167 170 163 165 161 162 153 151 153 153 145 141 146 151 150 141 131 126 120 115 113 89 63 43 40 53 89 58 30 44 61 58 53 38 47 48 48 41 57 56 63 66 82 81 89 103 118 137 163 173 183 184 185 189 192 191 193 192 194 194 195 198 196 197 199 201 198 196 195 195 192 190 192 192 192 188 192 188 185 183 181 181 178 175 176 175 178 176 176 175 169 167 164 165 164 165 162 160 157 154 155 153 154 144 144 152 148 137 129 130 117 118 112 88 55 56 45 49 80 73 33 42 58 59 47 29 49 44 50 58 59 46 57 64 75 77 86 99 118 139 165 173 186 186 182 191 193 191 193 193 193 195 196 196 195 198 199 201 199 197 197 195 190 193 191 191 189 191 193 188 187 184 182 180 178 178 176 171 175 176 173 172 167 166 164 167 165 162 160 161 159 160 152 155 152 147 153 148 148 140 133 128 122 116 111 87 61 45 57 50 62 81 37 43 55 49 39 41 47 48 56 61 39 45 51 57 62 86 85 98 122 146 165 174 182 186 186 190 193 193 194 195 196 197 197 196 195 199 199 198 199 197 196 194 195 194 195 197 193 195 192 191 187 188 181 184 181 177 176 172 175 174 171 170 169 168 166 167 169 163 162 162 158 158 156 151 151 152 154 147 143 139 136 127 122 120 112 84 70 47 47 56 57 75 48 42 56 39 47 44 44 51 46 48 38 43 40 54 64 72 77 93 122 152 170 175 181 187 189 190 193 194 195 195 196 198 196 197 195 196 200 196 198 197 196 197 195 195 197 192 198 193 191 190 184 185 181 184 183 179 178 178 178 177 173 172 171 171 169 165 163 163 159 164 157 158 153 152 142 159 156 149 143 143 139 127 123 119 112 95 52 58 56 53 57 57 54 44 39 61 70 59 45 48 51 44 38 39 40 52 61 62 76 100 124 159 169 175 179 183 191 190 194 194 195 195 195 197 197 198 194 199 198 195 197 196 195 195 193 194 193 193 193 196 191 187 189 180 180 181 178 182 177 177 177 177 173 176 175 175 172 171 168 167 164 165 161 157 159 154 150 158 149 153 145 143 140 130 120 119 111 89 55 57 52 54 57 55 50 47 41 103 100 60 54 49 52 50 36 40 42 46 55 56 77 99 134 163 172 173 185 185 189 192 195 193 195 192 195 198 195 196 197 195 197 196 196 195 196 195 193 193 193 190 191 192 188 189 186 179 177 180 180 181 177 179 178 179 174 176 176 170 173 167 169 168 171 168 166 161 156 152 153 152 150 152 147 139 139 131 127 119 108 89 58 48 58 50 54 48 49 43 43 109 95 77 79 41 52 42 34 39 39 47 47 55 76 103 142 168 172 175 182 188 189 188 190 192 192 191 194 196 198 198 198 197 197 194 193 196 192 194 192 190 190 188 189 188 187 184 182 174 177 180 179 181 175 177 179 177 175 178 174 171 172 171 171 168 169 167 159 158 156 159 157 155 150 138 147 138 135 130 124 118 105 82 52 55 57 50 55 47 44 42 44 107 97 105 90 43 43 44 32 39 33 48 45 52 78 118 152 165 172 177 181 186 189 189 193 191 193 192 194 193 195 195 195 196 190 192 196 195 191 187 189 187 182 183 187 182 181 181 180 176 173 177 177 174 172 173 173 173 173 173 169 171 170 169 166 166 165 165 159 159 161 161 154 156 159 145 146 138 133 130 122 116 105 83 37 61 65 55 62 40 41 38 44 104 134 112 104 69 40 41 29 39 36 46 43 56 89 129 163 168 173 178 180 186 192 191 194 192 194 196 194 191 190 192 192 187 187 184 191 191 188 181 183 181 180 178 180 179 179 175 176 171 171 174 174 172 171 170 169 173 169 171 166 169 166 164 163 161 164 163 160 158 165 161 158 157 153 155 146 139 136 124 124 113 101 80 41 54 61 55 52 37 41 27 36 108 157 103 106 105 49 36 31 38 40 45 39 68 102 139 162 172 170 176 178 185 190 192 193 194 198 190 185 177 171 171 172 169 171 165 172 175 180 176 179 179 180 176 174 176 173 171 173 169 166 175 169 171 169 168 167 172 168 165 163 166 165 162 162 160 162 164 161 159 164 157 161 164 153 151 144 138 132 124 123 113 101 73 44 48 58 54 54 35 35 33 27 105 163 99 107 135 92 36 31 45 45 45 38 78 114 148 162 173 173 173 175 180 189 191 192 192 190 181 173 164 147 148 156 146 146 144 149 147 152 160 168 172 173 167 168 169 169 167 167 171 165 165 164 167 161 164 162 165 166 158 159 160 160 161 162 155 155 157 154 158 161 159 167 160 152 152 142 132 130 125 121 109 102 76 34 52 52 57 51 39 34 36 30 94 163 101 115 133 156 92 49 52 60 52 44 87 125 164 165 172 173 170 179 180 184 189 190 179 177 170 162 158 140 135 137 137 129 121 119 129 124 131 138 152 163 162 166 167 168 172 163 167 159 159 162 162 153 158 156 159 154 152 156 158 153 155 158 159 152 155 155 159 158 159 158 157 152 150 139 131 129 128 115 107 101 77 31 50 47 58 50 27 42 39 26 94 174 105 115 149 163 141 112 77 85 71 54 101 141 168 165 172 172 171 177 181 178 178 177 173 161 161 146 142 131 123 120 117 113 110 106 115 108 113 115 120 133 145 151 160 161 164 163 163 156 154 162 161 154 155 155 154 150 145 155 154 151 152 147 154 150 143 141 145 151 142 145 147 144 145 132 129 126 121 114 107 100 76 29 48 44 58 44 32 32 33 46 108 183 116 130 158 170 161 144 115 107 105 92 117 157 165 168 169 172 174 175 172 160 166 168 156 147 149 128 121 123 120 113 107 97 88 97 101 101 97 100 106 103 112 130 147 153 158 160 157 155 158 161 153 150 143 146 147 141 144 136 131 128 125 131 129 132 124 125 111 126 120 137 140 133 135 135 130 126 120 114 102 102 76 25 44 46 49 45 25 38 23 66 114 182 135 144 164 168 165 161 128 119 120 123 137 162 162 166 170 173 169 168 145 155 157 158 155 143 135 132 129 124 114 108 110 108 96 92 89 90 94 92 99 102 96 113 136 143 148 160 155 157 157 162 153 148 143 141 137 134 128 121 114 102 97 102 99 109 113 104 101 100 111 119 136 136 122 120 129 124 119 111 104 100 75 29 37 48 48 43 24 32 31 79 114 179 145 153 169 157 153 146 126 121 130 144 154 164 168 169 174 172 172 159 147 152 149 148 150 156 152 138 131 127 130 124 128 124 121 123 109 106 108 107 107 110 106 114 129 136 147 160 159 155 161 159 156 143 139 133 129 124 119 110 95 90 85 81 82 85 90 87 87 101 105 116 112 128 121 115 124 119 117 110 104 104 72 30 36 51 43 41 31 22 59 107 114 172 151 165 164 142 135 122 85 122 140 150 160 165 166 170 173 173 171 156 145 152 146 147 159 164 157 144 142 137 132 124 125 117 112 103 100 95 103 108 112 113 113 120 130 136 146 160 165 165 165 161 153 145 132 125 121 111 101 96 89 83 74 71 72 74 73 77 84 91 92 99 105 106 111 107 108 121 110 112 107 106 75 28 41 48 44 36 29 25 86 115 113 167 150 175 163 126 123 117 82 119 148 152 157 167 168 171 176 174 174 162 149 155 155 157 158 158 147 130 115 100 80 76 60 55 65 49 81 66 71 75 94 107 113 118 130 144 153 168 169 172 169 162 152 137 130 118 110 101 92 89 90 88 85 87 88 94 94 94 93 91 91 91 97 95 100 100 91 96 95 108 108 108 75 34 37 43 42 34 31 52 103 114 112 168 149 179 151 118 118 114 90 115 147 157 162 169 166 171 178 171 167 166 149 157 159 152 143 129 105 73 69 69 55 59 43 40 72 50 102 101 79 75 68 91 112 111 124 148 167 174 176 176 169 159 148 133 124 110 101 91 88 91 86 82 76 86 92 105 116 118 115 111 104 98 94 92 96 99 83 84 80 93 113 108 72 33 45 34 33 33 45 95 113 110 112 174 157 184 155 128 123 116 107 129 149 163 164 170 174 174 177 173 165 162 155 151 146 135 105 78 57 58 100 119 84 72 78 75 85 73 123 124 104 75 76 91 106 114 114 150 179 184 181 180 173 161 143 133 116 102 89 89 90 74 68 61 66 44 51 57 72 83 98 113 112 108 99 102 93 91 90 81 76 74 112 112 73 34 39 37 31 33 85 110 109 111 108 174 155 185 164 132 131 133 149 157 148 165 165 168 175 174 179 177 169 162 156 147 126 103 83 77 91 86 116 144 120 81 77 81 77 112 126 114 96 76 66 103 116 120 108 152 186 192 188 184 174 160 145 130 112 88 92 93 79 69 70 99 89 45 94 48 49 43 37 56 81 97 99 103 96 92 92 94 77 77 110 109 86 25 39 33 63 53 96 114 109 108 109 178 161 175 184 131 136 157 179 179 150 162 166 171 177 179 181 182 179 176 164 144 112 100 115 127 143 140 130 127 131 122 99 95 104 115 114 108 94 101 96 108 125 119 113 158 193 195 197 189 181 159 147 130 103 83 100 93 71 65 88 124 103 58 82 44 54 55 44 54 35 54 70 98 99 94 94 93 93 90 107 116 97 33 28 71 101 62 115 106 108 110 110 178 165 158 196 149 122 154 184 183 148 162 167 169 174 178 178 172 176 183 180 154 139 145 156 160 171 175 161 154 142 131 125 121 121 116 119 106 100 98 113 114 114 119 123 171 198 199 199 195 181 166 145 118 103 86 101 102 65 79 90 115 132 60 96 77 65 61 58 88 60 34 51 56 97 95 95 95 96 92 105 113 107 38 71 96 108 86 106 111 111 106 110 181 175 147 180 177 126 152 190 173 143 158 164 169 169 182 175 182 184 189 186 176 178 180 169 170 173 173 170 168 156 143 137 131 122 119 107 95 92 98 106 112 110 127 151 184 200 203 198 196 185 173 153 118 104 94 100 107 100 92 92 101 117 102 66 67 67 68 87 100 72 36 40 50 70 95 94 93 92 102 113 115 114 62 80 96 111 97 110 110 108 109 110 172 171 155 159 194 176 162 184 161 148 160 161 170 175 177 183 183 187 191 188 184 190 184 179 174 162 158 151 135 138 130 124 121 113 110 103 103 106 111 113 120 131 154 172 188 200 202 200 196 187 173 156 115 108 106 101 105 103 94 96 104 108 111 102 90 86 99 105 88 78 67 50 57 59 81 87 95 103 112 114 115 119 66 74 99 113 109 101 111 108 110 108 165 178 162 172 192 182 161 175 150 150 158 162 171 176 177 181 184 186 189 190 190 192 190 187 185 173 157 146 130 120 122 120 120 118 123 121 123 126 133 138 147 159 174 179 192 200 200 202 193 183 170 151 120 108 108 108 105 107 94 91 93 105 110 109 107 98 101 101 92 88 91 78 66 67 83 89 100 110 116 115 116 115 75 69 104 116 109 107 109 105 110 107 163 183 178 174 176 185 155 172 144 148 160 158 172 176 178 181 184 184 190 190 192 193 194 193 192 184 176 174 170 165 158 153 147 142 144 145 157 163 167 165 168 180 185 186 194 200 200 200 195 179 166 146 115 113 112 110 115 113 107 100 93 95 105 115 116 110 119 118 110 108 106 98 92 78 84 99 112 115 117 114 113 121 68 74 112 118 112 101 109 107 106 107 166 191 178 162 165 188 177 165 144 148 158 158 168 174 182 178 185 186 188 190 191 194 194 195 192 188 177 181 182 183 175 163 163 166 171 175 181 185 189 185 186 188 190 189 196 202 200 200 193 175 170 146 116 115 115 113 118 128 118 116 109 102 87 99 112 110 115 112 111 106 107 106 105 107 101 110 117 123 120 115 111 119 69 87 119 112 113 105 107 108 106 106 180 184 176 164 179 187 188 160 141 151 156 157 164 173 180 178 184 189 188 191 192 193 192 195 188 189 183 185 179 177 180 175 178 188 190 192 191 192 195 194 192 194 194 192 199 202 201 197 185 175 165 140 118 118 120 118 118 132 141 135 124 118 111 104 101 105 102 98 101 102 108 109 117 115 122 119 120 122 119 117 105 117 67 115 115 112 114 101 111 105 108 109 183 182 175 173 184 179 179 156 145 152 156 157 164 169 179 181 185 188 188 192 191 191 192 191 190 189 188 187 176 180 187 185 190 197 197 192 196 196 196 196 195 193 197 193 201 201 202 199 186 181 167 140 119 121 125 126 126 133 151 147 141 131 134 131 127 127 121 120 114 111 117 126 125 125 121 127 126 120 120 115 107 113 94 119 107 118 106 108 108 107 108 106 179 182 179 181 181 173 179 151 142 150 155 157 166 170 173 183 187 188 188 191 190 190 189 192 186 190 191 188 189 193 191 191 194 200 195 195 196 197 196 195 196 194 198 192 186 201 201 197 184 178 164 139 121 123 122 127 127 136 150 154 153 149 139 141 136 144 129 131 136 134 130 134 128 131 121 129 124 124 116 114 109 100 126 106 106 120 107 105 107 106 105 105 179 180 181 177 173 177 185 147 144 145 156 158 164 172 172 180 186 189 189 188 188 187 188 188 190 185 186 191 195 193 195 194 194 197 198 194 194 194 197 195 196 197 200 188 179 198 198 198 186 175 162 141 125 117 126 127 129 135 151 153 157 153 154 147 142 145 130 128 144 143 143 136 133 134 130 125 128 122 118 113 108 99 135 114 104 119 105 105 104 105 104 105 165 174 180 178 178 183 181 142 139 147 156 159 168 171 174 184 185 185 189 186 181 185 188 186 191 181 188 192 193 194 196 195 191 193 195 194 191 194 195 200 198 196 195 192 193 199 199 197 181 179 163 144 129 121 125 127 130 135 156 152 166 162 166 161 157 155 157 150 148 144 146 142 139 134 131 128 124 125 118 113 106 103 123 123 112 114 105 101 107 102 102 105 139 163 175 176 178 182 168 143 140 149 153 161 163 171 170 183 183 183 185 186 182 180 187 190 187 190 188 192 191 194 194 191 191 191 189 191 188 191 195 198 200 196 197 192 195 199 199 197 181 176 165 150 133 125 120 125 128 135 153 153 162 164 166 162 168 164 159 158 156 150 147 149 139 132 132 130 127 119 118 109 105 104 111 116 120 110 100 104 104 103 105 101 114 149 163 174 178 167 147 139 144 150 138 158 163 166 173 179 183 183 183 185 182 187 188 193 190 188 191 192 187 193 189 188 188 188 185 187 185 186 192 192 195 197 194 195 194 196 199 196 176 172 169 152 139 121 118 121 125 137 150 155 160 162 165 170 162 164 163 160 155 150 144 142 135 134 129 123 125 119 113 106 104 103 122 107 118 112 100 107 104 103 107 102 106 121 143 152 160 145 122 136 144 152 129 156 158 164 173 182 181 181 183 182 181 188 191 191 193 185 189 190 185 187 186 187 185 182 178 177 170 176 184 190 189 192 195 191 195 196 193 189 184 171 163 162 145 122 114 112 118 129 143 159 159 164 161 169 167 166 162 163 154 151 145 137 130 130 124 121 117 117 116 104 103 106 125 113 118 112 104 101 103 105 103 101 113 109 116 125 127 120 104 138 132 149 134 152 161 166 177 178 182 180 177 181 184 186 192 192 192 184 189 187 184 184 182 180 177 171 168 162 150 167 187 187 184 187 193 193 198 200 188 184 177 173 165 164 151 124 108 113 107 121 136 149 156 159 161 164 164 166 161 159 158 149 144 137 132 124 110 126 118 118 112 104 101 109 121 119 123 119 101 106 104 104 102 104 113 113 112 114 111 108 106 137 130 146 143 148 158 169 177 175 178 182 161 178 183 187 187 191 188 186 184 181 179 180 179 174 166 159 146 143 142 173 190 186 185 188 193 196 199 203 190 178 179 168 167 165 152 130 107 116 105 110 128 141 149 153 156 164 156 163 163 157 155 150 143 139 133 127 111 126 121 118 106 105 100 109 123 120 122 122 101 104 105 106 103 104 110 115 111 113 115 111 108 132 139 144 143 149 159 166 170 175 176 177 175 172 183 185 184 188 185 184 180 173 168 174 169 167 157 151 136 124 141 183 192 186 184 192 195 196 199 199 193 180 171 175 170 165 152 134 114 133 115 102 122 134 142 147 155 158 153 157 159 155 152 147 141 136 133 127 121 123 118 116 110 101 96 118 126 120 119 114 99 106 105 103 102 105 113 111 114 114 113 110 111 130 135 141 148 145 162 166 171 174 176 175 174 174 181 180 181 184 183 183 175 168 165 162 160 152 143 138 126 119 141 188 191 185 188 195 196 197 195 193 189 180 170 170 163 159 148 138 122 144 131 94 110 123 131 142 154 149 154 154 151 150 140 142 137 132 130 124 119 119 117 115 106 100 97 120 127 118 112 110 102 101 102 106 103 103 111 114 112 113 112 112 108 123 145 144 150 136 154 159 173 172 175 176 171 177 176 177 173 179 178 181 173 166 162 154 144 143 136 128 133 118 136 194 194 188 191 197 200 202 192 187 181 176 168 159 162 162 142 134 123 135 137 92 107 117 123 133 144 145 148 149 143 145 137 135 136 127 128 122 118 116 116 115 104 107 99 115 118 115 108 102 103 102 105 100 102 103 113 113 111 113 113 110 109 120 134 146 146 141 148 159 168 174 174 172 172 174 177 168 168 176 175 173 165 163 153 144 135 127 122 126 138 135 138 185 193 187 183 190 193 193 184 181 171 168 162 159 149 148 136 127 121 120 128 102 97 111 115 125 130 142 141 138 139 138 133 131 130 124 115 117 119 113 109 111 109 100 104 106 111 101 100 103 105 100 102 101 102 97 111 114 111 111 112 113 106 118 136 138 146 146 152 157 170 167 171 171 172 172 171 171 172 172 162 164 156 151 143 129 127 116 121 134 146 144 144 164 174 175 167 167 178 182 179 173 164 160 153 149 147 135 131 117 115 116 121 104 101 104 108 116 127 132 134 135 133 134 132 128 121 119 107 114 120 111 108 110 102 103 101 90 92 103 101 103 102 103 101 102 102 104 112 112 111 110 114 108 108 118 127 136 141 150 149 159 167 161 171 170 171 171 169 171 168 167 159 154 148 139 130 123 120 123 130 149 160 152 162 155 135 130 125 137 154 164 168 162 149 146 142 141 134 125 115 107 108 109 110 106 106 112 110 111 113 121 125 127 127 132 127 123 120 111 109 108 110 112 107 110 103 106 101 93 103 101 102 104 102 103 102 100 98 102 111 112 111 110 111 111 107 113 128 125 145 148 152 160 163 163 166 168 167 162 169 165 163 163 159 144 135 127 119 122 120 126 147 157 166 158 165 164 140 120 111 102 114 142 146 139 128 121 126 125 119 109 97 84 88 94 98 104 108 111 108 105 107 107 120 121 121 124 119 116 115 108 100 106 105 109 106 110 99 104 104 100 104 100 104 102 100 101 103 101 100 100 109 113 110 112 112 110 109 111 122 128 140 146 151 161 160 167 168 166 171 157 166 163 158 157 150 133 123 119 120 121 123 133 157 155 166 174 166 153 143 128 129 118 95 110 133 125 115 110 108 109 100 84 68 67 72 87 92 99 110 109 109 104 99 102 109 110 116 121 114 113 113 105 91 102 109 109 107 107 105 101 101 100 104 101 102 103 103 99 102 100 100 100 110 111 111 112 112 112 112 109 118 122 134 143 149 162 161 171 168 168 169 166 165 163 157 153 136 126 114 121 123 127 127 145 155 157 160 156 153 140 132 121 127 119 98 99 100 114 107 102 101 93 80 72 67 70 80 81 90 97 104 108 111 109 96 97 100 103 112 113 115 110 111 104 103 104 106 109 108 104 101 102 102 100 105 100 103 99 100 100 101 100 99 98 111 110 111 111 111 112 110 109 113 117 128 141 147 158 161 165 166 167 170 170 166 164 152 142 123 114 115 130 130 128 136 148 147 139 134 134 143 133 124 129 133 136 104 91 89 93 95 90 91 73 74 81 83 91 75 73 76 89 101 104 109 106 96 95 90 96 102 109 110 108 102 103 105 105 106 108 103 103 100 105 99 102 103 98 101 101 100 99 103 98 100 100 111 110 109 112 109 111 111 107 116 115 122 137 144 157 158 165 162 170 169 167 168 162 150 131 111 112 130 138 135 143 144 146 136 137 121 130 141 124 131 129 143 131 120 95 78 85 83 75 95 77 75 91 79 94 92 69 74 77 80 108 103 103 90 95 89 88 94 103 107 108 107 105 105 104 109 107 106 103 99 102 102 100 100 100 101 100 97 99 101 99 100 97 111 108 112 112 110 111 109 110 110 113 116 130 141 155 157 160 163 164 169 170 166 158 148 126 105 119 142 147 135 148 129 136 131 139 123 125 144 122 126 136 140 121 117 112 89 87 68 65 95 93 78 96 87 74 95 78 70 76 74 101 105 98 83 97 93 87 86 95 108 109 108 107 106 106 108 109 104 100 100 103 99 102 103 100 103 102 99 99 99 100 98 101 112 112 110 112 108 112 110 110 112 116 111 117 137 148 157 161 165 164 165 167 164 158 148 124 104 123 143 140 130 126 115 127 128 147 126 124 142 117 124 134 142 105 113 125 112 94 70 61 100 108 85 94 94 67 85 89 73 75 87 85 109 95 85 88 92 87 80 94 106 109 108 107 111 109 108 105 107 100 99 98 100 98 99 101 99 99 96 103 98 99 99 97 107 112 109 109 111 108 113 108 114 126 105 113 129 142 157 160 160 160 164 166 162 159 150 124 110 126 128 125 125 115 118 118 118 135 121 131 128 129 122 122 126 83 116 129 122 101 61 77 98 120 91 88 91 64 80 88 72 82 78 72 94 98 78 86 79 87 80 100 106 114 111 112 112 112 105 104 103 96 100 101 100 100 99 99 102 99 99 99 100 98 99 96 112 111 110 111 109 111 108 108 123 128 114 102 124 139 145 156 155 157 159 162 157 157 151 130 123 117 116 113 115 101 112 109 113 116 119 129 119 130 125 113 107 79 121 128 117 93 62 71 101 114 98 80 92 67 73 88 69 80 86 80 73 107 74 100 78 85 84 103 113 112 111 112 115 111 103 106 100 95 99 102 99 101 100 101 102 100 98 98 100 97 100 99 109 110 110 110 109 112 107 124 100 127 116 104 107 136 145 152 154 158 160 158 160 161 158 139 111 108 108 116 100 96 103 100 103 108 99 119 123 125 122 106 95 87 121 123 112 81 67 71 103 111 100 80 76 73 74 87 75 70 78 88 62 98 102 64 99 80 87 111 118 109 115 114 110 110 106 103 94 101 98 100 103 97 103 99 101 99 100 98 101 100 100 98 110 109 111 107 111 109 109 135 53 125 124 112 98 130 137 146 156 156 161 163 160 160 155 144 122 110 108 107 100 104 92 96 96 111 80 105 112 116 124 107 94 88 114 128 100 61 61 61 91 112 99 74 65 75 72 77 78 72 66 82 71 87 96 68 81 91 95 118 117 107 117 114 104 107 103 98 96 97 102 100 98 102 98 98 102 98 96 99 100 98 98 94 109 111 106 110 110 105 122 126 32 120 128 116 105 112 138 142 147 143 148 159 154 157 156 148 129 112 100 90 98 104 93 94 97 107 100 106 110 105 113 111 97 103 115 132 86 57 54 56 93 106 110 74 57 77 72 72 80 68 66 75 68 80 78 75 77 103 105 119 113 112 116 109 105 105 101 97 100 98 98 103 96 101 99 97 98 100 97 98 100 96 98 96 111 106 109 109 108 107 133 108 27 126 129 120 116 100 133 138 140 128 135 145 151 152 148 141 131 120 101 106 108 115 108 108 109 116 117 117 122 123 121 113 106 105 99 128 85 69 65 58 88 106 102 94 60 81 75 76 79 77 79 78 80 79 82 91 88 109 111 115 117 105 102 107 102 104 97 95 98 97 100 100 99 99 99 100 98 100 98 99 99 98 95 97 109 106 109 108 117 124 135 88 17 114 132 123 124 105 115 136 136 130 123 140 147 147 141 139 129 116 110 118 127 128 131 127 129 125 134 126 130 130 133 123 118 111 99 116 95 83 78 76 84 98 89 87 82 89 92 90 86 83 83 85 88 88 92 96 106 110 112 112 110 99 101 101 99 101 95 89 100 97 101 98 97 100 97 100 97 99 98 97 97 98 97 96 103 107 114 124 93 115 133 72 18 101 139 128 126 118 106 129 130 130 126 136 139 141 133 134 128 118 118 132 136 140 142 143 140 138 141 134 137 130 129 126 117 113 104 104 102 94 95 96 100 103 97 94 96 100 94 98 91 90 95 90 90 96 96 100 112 112 112 108 105 101 103 103 96 100 93 92 97 100 95 100 98 99 98 97 95 98 96 98 96 97 95 97 110 123 128 93 45 132 121 58 11 86 140 133 125 125 113 119 128 126 130 128 130 131 128 124 124 122 122 138 146 144 148 150 152 149 150 145 140 132 124 117 109 110 105 98 99 90 90 96 97 100 100 95 96 97 97 103 96 100 105 94 97 98 101 100 111 112 110 106 102 100 100 98 99 94 93 76 86 101 96 98 99 96 100 99 95 99 96 95 96 96 95 97 134 126 107 51 96 146 118 44 15 83 145 134 127 125 121 109 119 122 128 124 128 127 123 119 120 118 130 142 150 152 157 155 153 155 155 148 145 134 126 120 113 105 108 100 96 91 92 89 97 95 97 93 98 95 104 106 106 104 106 101 103 101 102 99 107 110 109 101 97 100 95 102 98 82 82 76 43 86 99 95 97 96 98 96 97 96 96 96 99 94 93 95 118 109 63 64 127 148 114 38 31 81 144 135 128 126 122 119 109 118 120 121 122 120 119 117 115 124 137 152 162 155 160 159 161 160 154 153 144 135 131 126 113 110 108 98 101 98 91 95 93 97 97 97 105 102 107 111 108 108 107 107 104 100 98 102 109 107 103 98 97 96 97 89 99 55 70 102 17 56 77 97 98 96 98 94 98 96 94 99 94 94 96 94 94 80 46 99 130 147 113 34 37 82 144 140 130 128 122 124 111 111 115 119 120 122 121 120 115 125 141 156 156 152 165 165 163 167 160 152 149 136 133 128 123 114 114 108 104 105 104 97 105 107 104 101 108 108 112 113 112 112 106 109 104 104 101 99 104 102 98 95 95 93 91 85 104 39 65 115 42 25 56 72 100 98 98 94 94 97 96 95 97 94 95 95 87 68 76 118 130 146 116 34 52 75 143 139 133 127 125 117 119 110 111 116 118 119 117 122 112 129 146 155 156 157 164 166 164 162 167 158 153 143 145 137 139 135 133 126 122 118 118 112 112 108 111 109 113 114 116 117 113 113 112 105 105 103 99 100 99 97 94 95 95 87 89 86 102 27 69 108 91 13 34 51 86 103 103 95 95 94 95 97 94 96 94 94 80 41 76 121 126 149 120 36 60 74 136 143 133 132 126 125 121 114 106 112 113 117 118 115 116 126 139 148 152 157 157 166 168 163 162 157 160 150 144 147 146 151 139 132 129 127 123 122 120 112 114 113 113 113 114 115 113 113 110 108 102 102 96 100 98 95 92 94 91 87 82 98 88 16 73 106 104 40 30 23 72 92 104 101 98 98 95 94 95 94 95 97 61 61 110 127 124 152 125 47 60 71 131 146 135 136 135 120 121 120 111 100 110 111 116 117 112 123 132 140 155 151 161 164 171 166 162 159 158 165 155 154 161 163 149 141 135 135 126 125 123 119 116 114 114 119 113 112 109 113 110 105 104 97 96 100 96 93 90 92 89 84 86 107 65 19 73 106 96 81 18 20 54 84 89 106 101 96 99 100 95 90 95 92 33 83 121 126 122 147 133 64 53 76 124 141 142 135 132 127 124 121 117 99 108 104 108 112 111 116 126 130 151 143 163 167 167 167 161 160 153 169 171 170 164 160 153 144 137 128 130 128 124 124 120 119 111 121 112 114 111 109 108 104 101 96 93 94 95 94 92 87 87 86 94 108 31 30 79 106 91 104 10 21 46 70 84 101 97 104 101 96 101 98 94 91 26 112 120 127 115 150 135 84 47 80 116 132 142 133 134 127 127 127 119 111 102 107 104 105 106 111 115 124 130 142 155 157 160 169 159 161 156 168 159 165 160 157 144 138 132 127 129 128 125 122 114 117 111 117 114 116 112 105 102 99 88 91 93 93 95 93 85 85 80 91 99 91 14 43 82 106 93 104 34 16 47 62 85 91 91 101 104 103 95 97 100 95 43 128 114 129 117 141 144 106 52 87 100 127 137 136 136 134 128 129 119 117 103 105 104 105 103 108 107 115 117 127 143 154 153 165 165 163 165 164 159 154 152 150 133 124 118 120 127 124 124 119 115 110 114 110 112 114 106 104 105 89 81 90 91 95 94 88 80 80 85 93 104 58 23 47 92 107 90 102 44 8 49 65 89 79 88 100 99 95 108 99 95 98 78 131 105 130 123 131 146 121 74 80 96 125 135 134 137 132 133 127 125 117 108 106 106 103 109 105 108 108 114 111 131 149 150 157 154 156 154 157 151 152 151 139 130 114 107 112 119 115 118 116 112 102 114 109 110 105 104 101 95 84 79 88 92 85 86 82 81 84 88 96 96 25 32 67 89 106 89 101 62 7 43 71 95 88 87 85 100 95 112 107 100 95 108 125 103 125 132 132 146 127 104 78 85 114 126 131 133 127 129 130 130 123 113 106 104 105 107 109 111 113 114 113 115 131 140 147 141 145 150 149 148 145 143 126 115 115 105 106 114 116 115 112 107 101 103 106 103 97 99 93 80 78 85 82 85 84 77 76 81 91 92 98 64 17 49 77 99 101 91 87 82 19 34 61 95 92 89 77 89 103 102 103 97 101 124 121 100 115 137 125 143 138 110 100 73 108 118 128 128 131 125 128 127 128 115 112 106 104 107 106 111 113 116 118 118 112 126 131 136 134 140 132 132 133 128 113 100 105 104 104 103 109 107 105 104 103 100 97 95 96 90 81 79 83 83 80 79 75 75 77 91 89 95 83 29 30 61 85 101 97 88 89 80 29 28 58 94 99 88 77 90 95 96 100 92 101 132 113 103 101 134 123 138 151 113 112 81 95 114 123 125 131 125 123 124 127 124 111 111 103 107 108 107 113 113 123 114 112 110 117 118 121 123 126 116 111 111 106 101 97 96 95 98 100 104 97 99 92 93 89 89 89 83 78 83 81 79 77 74 74 79 90 91 93 92 54 21 45 70 93 102 98 88 88 66 43 22 63 91 101 90 82 86 88 89 86 99 96 135 110 113 97 123 124 134 146 137 117 108 76 107 115 122 124 120 124 123 124 121 113 111 109 105 107 104 109 115 117 113 116 112 105 108 109 104 112 105 100 101 96 94 92 88 92 90 94 92 92 89 84 84 78 79 79 83 80 79 76 76 70 76 79 85 93 91 93 78 24 35 59 79 96 105 92 86 83 49 56 17 66 93 102 91 84 91 71 104 79 82 94 133 107 125 96 110 124 127 136 146 123 120 83 91 108 116 119 123 119 125 121 121 116 111 112 104 107 106 108 114 112 114 116 111 115 109 103 96 95 92 89 87 88 85 88 83 84 87 84 85 80 78 77 76 78 80 82 85 84 79 75 74 75 80 83 86 91 90 82 47 24 51 67 98 88 108 87 93 75 43 65 17 67 94 102 95 89 91 68 89 104 85 77 132 110 131 102 91 132 125 128 142 137 118 106 76 104 111 113 114 125 117 119 115 114 112 112 104 103 104 104 109 114 114 115 114 116 114 110 105 95 94 90 84 87 84 84 85 84 85 81 77 77 77 78 78 87 83 84 81 82 77 75 71 78 86 85 87 90 85 63 22 45 57 73 102 100 105 89 93 73 33 75 15 66 95 98 99 92 91 70 75 98 92 93 128 116 137 98 83 130 124 136 141 141 122 118 95 88 104 111 112 118 121 119 116 114 113 111 104 104 103 107 105 112 109 112 108 113 113 110 110 103 95 97 91 93 90 92 88 89 89 84 86 84 83 82 84 87 85 81 79 78 74 74 80 83 86 88 87 85 77 32 31 63 60 83 101 106 96 87 92 69 32 83 19 65 100 96 100 95 96 78 60 99 93 90 126 121 146 91 84 127 128 129 138 146 135 116 115 86 94 105 110 117 116 123 111 111 112 106 106 103 103 100 102 105 108 112 109 109 110 109 109 101 96 100 96 96 93 94 96 91 91 92 85 87 86 86 86 86 81 77 75 74 76 81 84 87 87 85 87 79 48 21 53 71 62 87 96 110 91 86 87 68 36 88 21 62 97 99 101 97 94 83 55 98 101 85 