P2
92
112
255
119 123 121 122 121 121 120 121 122 119 122 124 120 124 122 117 118 118 113 109 101 80 80 92 92 88 96 97 103 106 109 105 101 96 96 88 79 80 74 73 66 72 73 69 69 64 53 65 74 78 80 84 93 95 90 86 85 81 74 71 67 67 62 60 47 55 63 85 114 115 113 119 115 116 116 115 117 119 117 118 116 117 118 117 120 115 119 115 118 115 117 116 119 121 122 119 124 119 122 121 121 121 123 119 120 119 107 96 107 107 100 87 80 71 78 80 88 94 102 108 109 103 103 97 90 87 83 79 75 68 60 61 65 59 61 59 59 57 59 51 57 61 72 85 79 86 81 87 76 84 75 75 68 67 64 61 54 48 51 53 80 112 117 113 113 115 115 117 113 116 118 116 119 118 118 116 118 117 118 118 114 118 114 119 121 121 121 123 122 122 121 121 124 119 121 115 111 99 88 95 104 103 84 71 68 67 75 89 91 94 99 99 104 105 99 96 96 89 81 81 76 73 71 58 57 53 53 52 60 60 57 55 49 46 54 77 81 78 78 83 79 83 70 61 68 77 63 59 51 55 41 50 47 101 106 113 117 113 117 119 115 114 118 117 118 117 116 115 116 117 115 116 115 115 114 115 121 122 120 123 121 119 124 121 122 119 116 102 95 81 85 90 100 84 66 58 57 71 72 78 78 91 101 104 110 113 110 115 107 102 89 82 73 66 63 60 63 59 58 53 58 58 63 65 65 54 55 69 63 71 82 84 80 78 75 65 59 57 66 58 49 51 44 45 43 64 107 107 114 114 114 119 117 110 118 116 117 118 118 116 118 117 116 116 116 116 114 117 117 121 122 123 122 121 122 121 120 122 109 80 77 65 78 90 78 68 62 55 60 67 70 78 87 96 96 101 113 115 113 107 101 96 86 76 76 71 66 55 60 56 56 59 62 65 66 77 85 79 77 85 77 74 73 82 85 81 81 67 62 55 52 59 53 44 44 41 39 53 80 93 105 99 107 115 114 112 111 114 119 116 117 120 114 120 114 116 117 115 116 117 119 121 119 124 122 122 117 122 118 126 94 59 63 69 55 70 62 61 56 57 64 65 71 71 84 91 96 104 113 114 106 99 95 88 91 79 72 69 65 60 59 60 59 65 65 74 76 86 104 102 96 106 105 105 94 82 83 81 81 81 76 60 60 53 44 44 42 39 37 49 63 61 89 80 95 105 115 113 113 114 116 115 115 116 114 117 117 117 116 115 118 116 117 122 119 121 121 117 121 119 122 113 84 60 59 59 60 56 54 56 53 58 64 61 65 75 86 100 104 107 111 104 104 104 101 93 84 76 73 64 67 65 66 62 67 68 78 82 91 93 110 123 114 120 124 128 124 106 111 98 87 81 73 65 66 57 47 49 49 40 53 43 71 68 68 90 76 84 99 109 114 107 117 117 113 114 115 114 115 117 115 116 115 118 121 119 121 120 120 119 117 110 104 98 72 72 55 50 55 47 43 51 54 56 55 66 74 76 84 87 88 89 93 99 102 108 104 90 76 72 71 64 61 68 77 79 84 89 105 97 107 111 121 133 141 136 138 141 135 131 135 133 123 107 92 84 71 66 62 59 55 50 58 71 40 90 78 81 94 72 82 95 104 113 114 116 118 113 119 113 116 117 114 118 116 116 115 121 120 122 115 122 112 103 85 77 56 61 54 51 60 48 46 44 55 61 58 63 66 69 72 78 88 94 101 110 110 98 95 87 81 74 73 81 76 90 93 95 94 109 116 113 113 130 138 145 155 157 159 157 156 154 148 144 134 130 126 111 98 87 93 73 59 61 70 78 77 56 84 87 91 91 86 82 99 104 111 116 114 113 115 117 116 118 114 118 115 116 114 118 122 122 114 113 96 73 64 61 56 51 53 44 52 49 53 52 57 60 53 55 64 64 75 76 86 101 104 103 106 98 94 88 89 89 91 97 100 110 110 112 110 120 124 130 131 141 152 156 159 165 173 173 171 169 163 161 151 140 136 132 126 113 103 86 69 51 75 84 87 71 79 77 92 89 95 81 88 102 98 107 114 113 113 117 117 117 115 118 115 119 118 119 120 118 106 96 73 59 58 66 57 58 51 49 41 46 47 48 56 58 60 61 66 68 74 75 93 108 109 108 112 112 108 108 104 109 118 120 122 122 130 130 133 133 138 146 161 159 163 163 166 173 173 179 177 171 169 171 167 158 155 150 146 133 112 90 81 64 64 85 79 89 78 85 78 85 93 96 89 89 98 99 108 108 112 114 114 117 118 115 117 118 122 115 113 105 87 76 66 59 62 71 62 58 57 47 44 50 48 50 51 54 57 61 67 70 78 94 107 118 120 118 124 125 120 121 123 127 138 132 133 137 140 144 150 157 156 165 179 176 171 173 173 180 175 180 183 180 170 170 168 167 161 151 153 137 123 88 83 86 48 79 86 81 85 80 90 86 78 92 94 87 87 92 97 106 108 110 115 114 113 115 113 116 121 117 113 101 80 69 67 58 59 71 66 54 56 48 44 49 44 42 53 57 61 68 66 74 96 109 111 115 120 121 121 127 132 133 139 141 148 154 150 158 165 162 171 174 174 180 181 181 180 180 180 182 182 181 184 182 178 168 170 166 164 161 150 141 125 88 64 106 69 61 76 86 89 82 74 92 93 82 89 100 85 79 89 92 101 112 108 114 115 116 116 112 119 121 103 99 73 60 67 63 54 55 53 48 57 50 49 40 51 46 55 58 64 73 74 86 93 103 114 122 128 137 144 144 150 154 168 173 178 173 176 176 183 174 178 179 181 183 183 180 184 184 181 184 184 180 181 180 174 173 167 165 166 167 160 146 126 96 74 97 92 60 75 75 84 97 83 75 87 94 85 88 97 81 77 85 82 87 103 100 108 109 113 112 114 110 100 77 72 71 68 57 53 50 50 45 59 56 52 46 51 57 60 67 69 82 87 93 105 119 124 139 153 162 163 166 164 168 176 185 186 181 180 180 181 185 183 184 184 186 187 187 184 182 185 186 184 180 181 177 180 178 177 169 174 167 157 148 139 100 60 91 102 75 75 81 75 88 96 85 73 86 97 83 89 96 79 70 84 76 74 83 99 108 104 113 115 112 95 66 65 74 69 54 53 51 48 62 62 54 57 58 70 72 77 82 88 94 103 109 120 135 149 161 168 175 178 177 171 178 188 187 184 186 184 185 186 184 186 186 185 189 182 187 188 183 183 184 178 181 183 177 179 178 178 174 171 169 160 150 144 122 63 63 108 98 72 90 81 73 88 98 84 80 88 93 84 94 93 74 71 85 80 87 88 93 100 108 112 115 86 49 66 80 72 60 62 53 60 63 65 73 92 94 93 89 93 98 103 100 121 131 144 160 171 172 175 184 187 190 186 188 192 190 185 190 189 186 189 189 186 191 189 187 187 187 187 188 178 182 180 179 183 182 180 182 179 179 173 168 162 157 147 134 91 60 94 107 82 94 92 82 74 91 104 84 84 94 84 85 94 95 67 75 81 79 80 97 105 99 112 104 70 59 75 84 69 60 55 66 68 68 88 97 107 107 111 110 113 114 123 139 144 151 162 174 179 182 182 193 194 198 191 190 192 191 189 190 189 189 191 188 187 188 189 191 190 192 188 188 184 180 180 181 183 181 177 181 181 178 177 175 162 157 153 139 106 64 84 104 94 94 94 93 77 81 97 101 73 90 95 82 80 95 84 70 82 79 78 82 96 107 115 81 72 76 76 67 71 65 59 80 85 92 104 107 109 109 116 126 130 133 141 155 161 166 178 180 187 188 190 200 201 198 196 196 197 194 193 191 192 192 192 187 187 188 188 191 192 190 191 189 188 181 179 182 184 182 179 181 179 176 175 182 163 156 152 147 114 73 76 97 108 93 99 97 84 77 87 103 93 66 94 98 83 86 99 83 74 70 83 68 86 95 106 78 74 65 70 75 78 67 86 107 99 111 122 129 135 132 137 145 152 162 169 171 178 180 185 192 193 194 197 202 200 200 203 204 204 201 198 193 193 192 192 189 193 190 190 188 192 191 192 189 185 184 180 180 182 180 181 181 179 175 176 179 165 154 152 150 134 71 70 96 104 99 94 98 95 77 73 100 110 69 85 96 98 81 85 101 77 72 74 82 61 87 83 66 64 69 64 68 66 60 113 134 128 131 141 148 151 161 167 170 175 176 177 181 189 193 190 197 198 198 200 203 205 205 208 207 205 204 201 194 194 192 193 187 194 192 189 190 193 189 191 189 187 187 183 182 183 178 182 181 180 179 178 179 165 153 155 151 139 94 54 103 96 106 90 96 100 93 71 85 103 101 62 93 103 82 88 87 96 68 70 80 75 60 74 63 63 66 68 60 59 83 136 152 156 145 158 167 164 171 180 185 184 184 189 189 194 194 192 201 201 199 202 205 204 206 207 209 204 201 197 195 192 195 194 192 193 188 190 189 189 192 190 190 190 185 186 183 184 183 182 186 179 183 180 173 157 148 152 151 140 113 55 86 101 98 97 89 92 97 84 76 98 98 69 61 96 93 80 82 94 79 70 73 76 66 57 56 59 64 67 77 72 110 147 157 158 167 175 174 174 180 188 190 190 193 193 192 193 197 197 199 203 201 202 206 206 205 205 206 203 199 198 195 194 198 195 195 191 192 193 189 188 188 189 187 189 190 185 182 184 183 185 183 179 182 178 172 159 143 151 150 139 114 71 67 111 96 101 86 86 98 90 79 97 87 75 55 63 81 84 77 77 94 61 70 70 74 49 56 63 63 73 72 74 128 154 165 166 178 182 180 181 186 192 193 192 193 193 193 193 198 199 198 202 202 203 205 204 204 202 203 202 200 198 200 198 198 196 193 192 191 191 191 188 188 190 188 188 190 189 187 183 182 186 185 182 182 177 169 158 148 149 153 142 117 82 66 104 104 94 80 85 90 94 77 96 73 83 65 45 67 81 76 72 82 73 66 71 59 45 61 65 68 70 55 91 142 160 168 171 184 189 181 184 188 193 196 193 192 195 193 195 197 198 202 201 201 202 203 202 203 200 201 201 200 200 200 199 198 198 197 193 194 194 191 191 190 191 189 189 190 188 187 186 186 184 187 184 182 177 164 156 149 154 155 145 119 84 61 98 106 80 75 77 90 91 75 93 77 73 65 45 52 69 75 77 61 81 63 73 63 56 56 63 60 61 57 109 151 166 172 179 187 191 187 186 184 192 195 193 194 196 194 194 198 198 199 201 201 202 200 202 201 199 199 201 200 200 200 200 199 198 200 198 196 194 198 192 193 193 188 190 189 187 187 186 185 187 185 184 179 171 161 153 151 153 154 138 126 94 64 93 96 85 60 67 79 88 72 82 91 56 67 51 43 56 65 76 62 72 65 71 66 48 58 56 57 59 65 125 158 168 173 185 188 190 186 186 188 191 194 193 194 194 195 196 198 196 198 197 200 200 202 202 200 199 200 201 200 200 199 201 201 201 200 202 200 197 197 194 196 195 192 188 186 186 190 184 185 188 183 181 176 172 161 151 154 155 160 138 123 99 72 93 82 86 58 56 63 79 60 67 93 59 57 52 41 52 53 71 65 62 59 67 71 53 59 59 60 49 81 138 162 168 175 185 188 190 182 187 191 194 192 194 192 193 194 198 196 197 199 199 201 203 201 201 199 199 198 201 200 199 199 202 205 202 202 203 198 197 196 195 197 197 189 188 187 188 188 186 185 186 183 178 175 169 158 153 150 158 157 141 118 102 72 105 87 67 66 51 61 64 58 57 91 57 53 51 41 44 53 60 65 56 49 69 72 54 56 65 57 31 98 144 165 172 181 184 190 190 183 190 191 194 191 193 192 191 196 195 196 198 201 201 201 198 201 199 199 199 198 199 200 198 198 200 203 200 203 200 195 193 194 195 196 189 181 188 189 184 186 186 185 186 181 178 172 165 158 154 154 158 163 153 120 100 80 94 105 64 50 56 58 58 56 55 88 57 49 51 42 41 44 57 68 47 46 66 71 51 66 53 52 37 113 148 168 176 182 182 186 188 185 188 192 191 195 193 194 194 194 196 199 199 199 201 198 201 201 200 201 199 197 199 198 197 199 198 200 200 198 197 197 193 193 195 191 181 176 185 187 188 189 189 184 181 176 173 173 163 158 155 156 161 156 150 124 103 73 93 111 70 43 46 50 57 52 55 82 55 47 47 40 39 41 63 62 36 47 63 71 60 55 46 48 48 123 156 170 174 182 182 185 187 185 187 192 192 197 194 195 193 193 197 198 199 200 201 199 199 198 200 200 201 199 199 196 197 200 198 199 198 196 195 194 192 188 189 186 189 185 184 188 190 190 188 187 179 175 170 169 161 160 157 159 158 152 148 126 107 71 77 109 71 46 38 40 44 52 63 64 50 46 42 40 34 46 68 50 29 46 59 68 57 50 51 42 64 135 159 171 175 181 182 183 190 185 188 192 195 196 194 192 195 196 194 199 200 201 200 199 200 200 200 199 201 198 200 197 196 198 200 200 198 193 197 191 187 188 188 189 190 188 186 188 192 191 189 186 180 174 170 168 162 162 157 159 158 149 140 132 105 78 72 105 77 46 35 38 43 48 65 54 44 45 37 45 39 46 52 41 34 44 62 57 48 51 49 40 73 138 158 171 177 183 181 186 189 188 188 192 194 195 196 193 197 195 196 196 200 199 198 196 201 201 199 197 200 199 198 197 198 197 199 199 199 197 195 193 188 193 190 191 192 187 184 189 192 193 187 182 177 175 173 162 162 159 157 159 156 148 137 125 109 81 77 96 75 55 36 38 46 45 62 59 41 47 37 36 41 39 39 43 33 46 60 47 48 48 48 32 91 141 161 171 177 182 183 186 187 189 191 192 194 196 194 195 196 197 197 198 198 196 199 197 198 199 200 198 198 199 199 197 198 200 199 198 199 196 196 192 190 195 194 191 193 188 182 192 193 192 184 180 174 176 173 164 164 161 159 157 152 144 135 123 113 84 72 98 67 48 42 35 46 48 58 59 47 45 45 36 49 37 31 48 33 50 56 43 49 49 47 25 106 140 159 172 179 184 184 187 189 192 191 193 195 194 196 196 199 195 197 197 197 195 199 198 196 199 200 199 200 200 200 198 197 198 198 199 199 196 195 192 194 196 193 193 193 190 191 193 189 190 187 180 180 178 173 165 164 164 154 158 152 145 132 117 112 92 67 102 71 42 45 38 37 45 45 56 52 44 50 42 39 46 33 44 44 43 55 41 43 46 47 27 109 140 158 175 177 184 184 186 188 190 191 194 192 193 196 197 198 198 195 197 197 198 196 197 199 196 198 200 198 200 199 197 199 197 198 197 198 195 194 194 194 195 193 192 195 192 188 194 188 187 186 182 179 173 172 166 162 161 156 151 152 141 130 115 109 97 76 88 79 42 36 46 39 43 38 46 52 39 45 43 39 47 43 48 45 39 49 47 43 44 45 22 117 143 160 172 175 182 185 188 189 193 192 193 194 195 195 196 198 198 198 199 198 198 196 195 197 198 197 199 197 198 200 198 198 198 198 199 195 196 196 194 193 196 193 189 186 193 191 193 190 188 188 186 182 178 170 165 161 163 154 150 149 140 130 116 101 94 81 83 77 42 35 40 42 40 35 41 48 39 37 50 42 44 48 55 47 28 45 52 44 39 39 22 124 146 161 172 180 184 183 190 190 192 192 195 194 198 198 198 199 198 198 200 199 199 197 197 198 199 199 198 198 198 198 200 198 197 197 197 197 195 197 194 195 195 193 190 188 194 192 194 191 189 188 186 185 178 171 167 164 159 153 150 147 140 127 119 105 87 80 85 71 43 32 39 37 37 34 37 39 42 30 52 41 38 43 55 53 31 42 58 40 37 35 15 123 148 160 172 179 182 184 187 191 190 194 196 194 199 198 198 201 200 198 200 198 197 198 197 199 200 198 199 200 198 199 199 198 198 197 195 196 196 197 195 195 194 191 191 195 192 192 193 193 189 189 185 182 181 170 170 166 160 151 148 143 135 129 118 107 86 81 77 67 52 27 35 39 36 31 36 35 36 29 39 43 36 41 51 48 38 44 55 57 33 33 13 121 152 163 169 178 183 186 188 191 190 192 195 195 197 198 197 200 199 199 199 197 199 197 199 199 200 200 199 199 199 200 199 200 197 197 199 198 197 196 197 194 193 191 191 193 190 192 188 189 192 186 183 183 178 173 166 165 158 150 145 142 135 126 123 104 92 77 77 62 56 32 32 40 35 30 41 42 26 33 27 42 32 44 42 44 41 46 46 94 39 36 7 125 155 162 169 182 184 186 189 190 189 193 194 196 195 198 197 197 199 199 198 195 198 198 196 198 199 199 200 200 200 199 197 199 199 198 198 198 197 196 194 194 194 193 194 194 193 193 186 185 190 187 184 182 174 172 167 159 158 144 143 142 133 131 123 105 93 74 74 65 49 42 28 38 33 32 39 52 36 27 29 37 34 40 39 41 42 43 44 127 64 32 12 128 152 161 168 184 187 188 188 191 188 192 194 193 192 196 196 196 196 197 195 196 195 196 196 197 198 197 200 198 199 198 197 199 199 198 197 197 198 195 193 191 196 196 196 192 194 192 192 191 189 187 184 181 175 172 168 161 155 150 138 140 135 127 118 108 87 80 71 68 46 43 37 33 34 36 37 43 55 36 26 31 39 27 34 48 36 49 33 113 105 35 14 139 156 163 170 181 189 188 188 190 190 191 193 190 189 194 193 194 193 195 193 194 194 194 192 193 194 195 198 198 197 199 196 195 197 195 194 196 194 196 193 192 196 194 193 194 194 191 192 191 190 184 184 177 177 166 166 161 151 143 138 139 135 128 120 102 86 81 83 61 54 41 37 39 29 32 40 35 43 37 38 29 34 28 31 46 40 41 32 109 115 68 26 139 163 166 167 178 185 185 186 189 190 189 190 190 190 188 192 191 191 192 190 193 193 193 193 196 197 195 197 195 196 197 196 196 195 194 195 195 194 196 192 190 196 193 194 197 196 191 190 190 183 182 180 176 175 165 165 157 145 140 139 140 137 136 120 99 88 76 77 63 49 47 36 33 39 29 37 34 42 33 38 31 32 33 34 50 41 40 25 104 109 101 47 143 162 158 155 157 164 169 174 174 182 184 186 190 189 188 189 189 187 189 190 190 190 191 192 193 195 191 195 192 192 193 195 194 193 194 193 192 191 192 191 190 194 195 195 194 193 190 191 190 181 179 178 176 173 167 162 153 144 135 138 139 135 140 129 94 83 80 73 55 47 41 37 29 31 33 30 26 40 35 31 32 35 42 37 52 48 40 22 108 107 108 86 132 145 146 142 135 142 147 153 157 164 172 177 187 187 187 186 186 186 186 189 185 187 188 188 187 190 190 190 188 190 191 191 191 191 193 193 189 187 187 189 191 193 191 190 192 188 189 188 184 175 180 177 171 170 164 158 152 140 136 138 141 141 142 135 103 78 76 73 52 47 48 35 33 30 30 29 23 37 33 31 31 41 43 46 42 90 38 20 104 106 107 103 126 132 132 136 136 130 130 135 134 145 144 152 166 179 181 186 185 185 184 188 181 184 186 185 188 187 183 184 180 182 185 188 184 190 187 186 183 174 176 177 182 184 181 180 181 179 180 185 182 178 174 173 172 168 161 155 149 138 137 137 141 141 142 137 110 79 73 69 48 42 54 34 40 31 30 28 24 35 36 33 33 40 48 50 49 129 73 33 113 105 113 117 125 130 128 130 129 122 120 122 121 126 127 131 133 148 159 169 179 180 183 183 181 182 184 181 178 182 177 176 179 177 173 174 170 173 166 158 161 156 148 145 147 154 163 165 164 163 162 162 176 178 178 170 170 168 159 149 147 137 135 142 137 136 143 137 112 81 71 63 41 37 54 33 38 33 29 27 24 34 37 38 36 45 49 66 70 141 110 42 108 106 108 104 115 121 119 121 116 115 109 106 109 108 115 115 111 109 123 138 157 168 174 180 179 183 183 177 174 173 171 169 169 159 150 144 135 125 122 124 133 132 122 117 128 138 140 153 154 161 156 142 158 174 173 170 164 161 156 151 148 139 137 144 142 141 140 136 115 90 72 57 43 38 50 43 32 35 28 27 29 34 41 44 43 59 63 85 92 139 122 70 105 107 107 95 113 112 112 118 112 111 112 112 101 100 97 96 99 97 99 114 134 152 168 176 175 177 181 177 172 169 164 156 156 147 139 130 117 101 95 101 96 92 89 97 110 127 132 136 146 152 145 146 142 159 165 166 159 160 157 153 146 141 134 144 142 146 140 136 120 97 74 53 48 38 44 41 37 31 29 29 29 37 43 46 66 91 84 98 110 142 122 88 105 104 104 100 105 118 124 121 126 130 132 132 123 117 110 98 97 98 96 104 116 133 158 173 177 179 181 176 171 163 154 149 142 133 130 117 111 95 91 94 86 86 80 87 92 103 118 124 133 140 135 130 135 142 147 151 148 145 153 148 147 137 133 144 142 146 141 133 124 99 73 50 52 42 38 39 36 33 30 33 36 40 62 74 100 109 102 112 120 147 106 92 104 101 103 103 108 122 131 126 128 120 111 104 96 83 70 55 62 58 66 84 95 119 145 171 179 184 182 182 174 165 155 143 133 123 113 110 105 103 98 99 98 101 103 103 102 107 108 111 119 122 132 126 120 124 131 130 127 124 138 143 142 133 139 142 148 143 141 136 129 106 72 54 51 42 34 36 35 36 38 41 56 85 96 95 116 133 118 118 129 154 94 102 101 105 99 105 119 116 120 112 94 67 55 67 78 62 56 36 47 54 40 66 61 94 139 170 182 185 184 181 177 169 155 145 133 121 110 107 107 106 105 100 100 108 123 135 136 137 127 123 118 120 128 125 111 112 117 117 114 110 108 125 137 135 140 145 146 143 143 139 133 114 81 76 52 42 36 39 41 45 64 67 54 95 102 113 128 146 126 126 138 156 87 103 103 105 97 107 126 112 108 88 60 53 57 96 115 85 79 67 73 70 65 78 54 60 128 172 185 188 186 183 181 171 160 145 131 118 113 112 112 104 89 77 70 76 88 92 103 120 132 138 134 127 128 126 116 108 114 115 110 101 104 108 120 135 143 147 147 144 144 142 130 125 111 95 68 50 49 51 59 77 86 78 49 76 107 121 129 155 138 126 151 142 86 106 104 102 94 109 131 114 101 74 67 76 84 106 132 109 87 89 98 101 101 100 81 58 116 173 186 190 189 186 184 175 163 143 128 121 127 127 121 108 96 91 105 124 132 94 68 58 60 75 94 106 123 128 127 125 118 118 119 113 112 116 112 123 142 150 146 146 144 143 134 135 123 120 96 84 82 76 92 95 100 74 74 80 105 116 129 160 142 122 166 131 87 106 100 105 95 111 127 126 104 81 84 107 119 127 130 130 126 128 138 142 132 129 136 104 111 172 192 193 194 188 187 179 156 138 128 138 144 150 147 117 100 108 124 153 167 135 88 87 72 56 49 48 60 89 111 123 124 124 125 122 125 115 115 119 134 146 145 144 145 144 143 139 132 133 125 123 119 106 114 110 105 78 103 107 111 117 127 163 143 129 172 112 96 106 97 103 91 119 131 138 123 105 103 126 143 153 142 136 135 133 133 129 116 119 130 121 116 174 196 197 196 192 188 172 148 135 143 150 150 157 161 144 121 124 132 145 167 166 109 93 89 78 64 73 57 42 60 79 107 121 129 125 121 115 119 125 139 147 150 147 149 148 145 142 134 132 135 128 130 117 132 121 98 113 130 143 119 120 135 175 135 137 170 103 96 105 101 101 93 117 141 148 143 126 116 118 131 138 142 135 134 126 121 115 112 124 135 127 136 182 196 201 197 195 190 168 145 140 155 162 145 147 153 139 130 126 130 135 142 151 138 119 120 112 109 109 92 66 66 69 77 101 115 120 122 123 128 139 147 151 152 153 150 149 148 144 141 130 136 132 128 122 133 140 103 130 154 169 126 115 151 170 124 163 155 87 102 104 100 101 89 127 143 150 152 148 145 131 125 124 121 123 125 122 131 131 135 143 146 139 156 188 197 202 201 197 190 169 151 149 164 163 149 149 152 143 127 117 126 134 143 143 137 132 142 141 130 131 126 112 105 109 102 100 105 114 125 131 145 147 154 154 155 154 151 149 145 144 142 140 135 133 126 125 134 156 134 112 162 167 117 129 173 151 128 172 140 90 102 104 100 100 94 132 149 155 162 167 169 157 151 152 148 148 151 147 152 154 155 157 156 155 168 194 197 199 201 194 187 171 159 157 168 165 152 156 156 155 142 130 121 122 141 149 152 152 162 159 155 153 150 138 131 139 131 122 118 122 135 145 154 157 156 158 157 156 148 145 143 142 141 144 131 129 124 126 137 160 160 108 153 143 120 161 162 125 150 180 117 88 105 101 102 98 92 138 152 155 166 177 176 174 169 168 171 165 164 163 166 169 169 167 165 161 175 194 197 200 199 192 180 167 162 168 173 174 158 163 172 170 160 153 146 130 123 127 135 141 151 145 150 145 142 142 144 148 151 146 148 142 147 154 158 164 159 160 159 155 146 142 140 140 142 142 132 128 125 123 137 158 169 122 149 137 145 170 129 134 165 174 97 94 105 103 100 96 98 142 154 162 172 179 180 182 176 167 172 173 171 177 181 176 177 173 170 162 182 196 197 198 198 191 181 168 164 170 174 176 166 164 177 188 180 176 169 159 157 146 137 135 131 129 134 138 144 150 153 156 159 156 162 164 161 163 158 160 162 162 158 155 150 139 139 138 143 144 136 132 124 119 138 147 149 127 160 167 161 146 125 152 170 165 86 96 103 103 103 93 102 147 156 164 177 180 182 184 183 176 176 177 181 183 180 184 180 175 168 166 188 197 199 196 197 189 175 170 170 173 174 178 174 168 175 193 192 189 181 177 178 178 173 176 169 163 161 160 154 163 169 173 171 168 164 165 166 168 166 163 164 158 156 154 145 145 136 138 142 139 131 131 123 124 132 146 144 116 168 180 164 124 141 161 169 146 78 98 103 101 101 92 106 150 156 165 178 178 176 184 185 188 184 180 186 190 184 188 180 175 163 176 192 200 199 200 198 189 177 172 177 175 181 182 179 177 177 190 195 195 193 187 186 185 183 187 171 168 178 176 175 175 174 175 178 173 172 162 168 172 165 161 163 158 156 152 147 143 136 137 137 140 131 126 127 121 133 148 124 132 172 172 165 146 153 165 166 119 83 99 100 106 100 92 109 151 154 162 172 176 175 186 187 188 186 187 189 192 187 186 179 170 162 178 194 200 199 200 198 188 175 174 175 177 177 181 181 180 185 189 191 198 195 192 192 191 186 185 174 175 183 184 182 184 182 178 185 176 177 173 171 169 168 164 167 163 156 153 148 141 139 136 136 134 133 130 127 126 128 140 132 154 179 162 161 147 151 166 160 94 91 99 103 101 103 83 119 151 152 158 172 178 178 186 187 191 188 188 187 191 186 181 174 170 153 174 195 199 200 199 196 185 177 174 175 175 181 180 182 182 185 193 192 196 199 197 197 195 192 190 191 189 190 188 187 186 186 185 183 179 176 176 172 172 169 164 166 160 156 150 145 141 138 138 134 136 127 128 127 127 124 130 154 170 172 168 154 148 150 154 143 80 96 96 102 103 99 87 123 148 157 164 179 179 184 185 186 190 187 187 186 188 180 180 176 169 164 181 197 200 200 198 193 186 179 174 174 176 180 180 180 183 186 197 193 197 199 198 196 195 196 195 193 193 192 193 191 189 189 184 183 180 178 175 171 170 168 163 165 157 155 150 141 136 137 136 135 134 128 128 125 128 123 128 155 168 165 170 160 155 158 150 118 84 96 98 102 104 100 83 127 150 154 167 179 177 186 182 184 187 186 185 185 184 180 177 174 170 176 187 197 200 200 197 191 185 180 177 173 177 176 177 180 183 190 194 195 195 197 197 199 198 193 196 196 195 193 193 193 191 187 184 181 179 173 171 164 161 166 162 159 157 149 147 137 135 134 135 135 133 129 129 129 126 125 143 154 168 163 168 166 162 160 164 112 82 99 97 99 101 97 88 129 145 157 170 178 175 184 182 181 186 186 181 181 176 169 163 164 172 183 192 197 199 198 195 184 182 178 175 169 170 166 169 176 180 187 194 192 195 197 196 197 198 198 198 195 198 197 194 192 189 184 182 182 172 165 173 168 158 162 161 157 153 146 145 138 133 133 134 132 133 125 129 128 127 124 152 161 171 164 168 164 163 167 158 106 89 95 99 98 104 101 84 122 140 154 166 175 176 179 181 182 182 177 175 172 165 150 153 164 177 189 194 197 197 199 188 186 180 176 172 162 155 162 161 162 167 173 184 186 192 193 194 195 196 197 198 196 194 197 195 190 188 185 184 182 166 151 173 171 167 162 161 156 148 145 140 139 131 131 133 133 128 129 124 127 126 121 155 168 168 168 170 163 162 159 153 97 83 98 99 97 99 94 90 122 134 150 165 171 173 172 174 177 178 172 167 157 143 136 156 167 183 191 192 198 198 194 188 186 179 177 161 149 151 158 168 157 158 159 165 176 183 185 189 194 193 194 196 198 195 196 193 190 188 184 183 183 175 170 166 170 168 163 159 154 149 146 140 137 120 133 129 130 127 129 124 129 120 123 143 168 172 169 170 159 155 156 123 83 93 97 95 100 101 101 84 114 135 144 156 169 169 163 164 169 169 168 159 151 131 134 166 174 191 191 193 195 196 195 187 185 178 172 154 143 154 163 168 161 161 150 153 162 169 176 183 189 190 191 193 196 190 192 188 190 185 181 180 180 172 171 168 165 166 161 156 152 152 145 141 137 115 131 129 132 130 124 130 126 120 116 132 159 171 160 162 154 146 130 97 89 89 98 94 103 98 97 89 111 127 138 147 160 166 162 162 159 156 151 144 136 125 144 167 177 192 194 191 197 196 199 189 184 179 169 153 149 164 181 178 171 157 139 136 142 151 162 173 182 186 188 191 190 186 186 186 183 181 178 177 175 171 167 164 164 162 159 154 151 148 141 137 136 125 133 128 131 131 123 126 127 119 115 119 150 158 155 143 138 126 101 87 90 95 96 98 97 101 96 88 102 125 129 137 153 155 157 155 150 141 136 130 123 126 153 165 182 192 193 192 193 195 197 194 186 181 170 158 155 168 182 180 167 153 129 128 132 136 142 156 172 176 180 182 181 184 183 182 180 179 173 170 171 169 166 165 160 153 155 152 153 146 141 137 135 129 129 130 128 130 126 124 124 121 110 102 130 141 133 124 119 98 86 92 89 93 94 100 97 100 92 94 97 119 127 134 140 145 143 145 135 130 121 116 117 126 157 167 186 191 192 192 192 193 198 196 185 177 170 163 162 167 179 172 159 150 123 124 131 125 126 137 157 168 171 171 178 180 176 176 176 175 168 162 158 165 166 164 156 148 148 152 147 143 141 135 133 128 128 129 128 124 127 124 124 118 109 85 95 102 100 99 91 88 90 91 90 94 98 95 98 98 98 94 91 114 122 125 133 134 133 131 123 116 109 112 116 127 148 166 184 187 188 187 186 189 192 191 181 174 168 158 154 162 169 165 155 146 121 130 144 138 123 124 137 152 163 169 171 175 175 171 173 165 162 157 151 159 156 158 151 150 142 146 147 141 139 137 131 128 131 129 126 124 123 125 120 118 104 86 82 90 85 86 90 89 89 91 90 93 97 98 98 96 98 94 91 114 114 121 124 128 119 117 109 102 100 107 117 127 136 152 173 181 182 183 182 182 179 179 174 168 157 154 148 157 157 157 147 130 120 142 157 151 141 124 115 133 146 155 162 167 166 164 168 160 155 151 149 149 147 146 150 146 141 145 141 144 138 139 127 129 128 126 126 127 122 122 117 113 103 87 85 89 89 88 88 88 89 91 91 90 96 98 96 100 95 94 87 116 119 119 119 120 113 98 92 102 110 109 118 133 134 129 157 171 173 171 171 174 171 169 159 147 140 137 136 140 136 134 121 107 119 145 155 157 150 135 120 111 129 142 148 157 158 155 159 156 149 144 139 135 144 145 141 143 141 142 142 139 140 134 128 127 130 127 122 124 120 120 114 112 101 88 84 90 86 88 91 85 90 89 89 94 94 98 97 102 98 95 87 110 126 123 122 119 109 83 95 119 119 111 116 135 124 118 121 144 148 148 158 157 158 149 134 119 106 103 96 98 96 95 101 122 138 137 151 156 156 149 138 114 106 119 134 142 148 150 149 149 148 139 136 130 140 143 139 140 137 141 140 135 136 132 125 126 126 127 120 120 120 117 113 109 101 84 84 89 85 87 88 86 87 92 89 93 94 97 97 98 93 98 88 101 129 129 129 124 116 93 101 119 121 108 118 128 120 114 99 108 121 119 127 127 129 119 103 92 76 79 68 73 85 96 109 125 134 136 151 158 156 151 147 136 107 100 110 125 137 143 141 142 139 140 141 137 137 137 140 134 139 140 133 135 135 129 127 123 124 125 121 123 120 114 111 104 101 86 85 88 86 89 87 88 91 88 93 93 95 98 99 99 95 96 88 98 121 136 134 135 130 114 99 114 112 112 123 127 117 107 101 96 94 97 99 104 100 96 88 83 81 92 95 88 102 106 103 111 121 129 136 143 154 146 143 136 118 109 95 100 117 130 136 138 134 133 136 135 134 135 138 137 137 137 135 132 136 132 124 121 122 121 123 119 115 110 107 104 99 83 89 86 88 87 88 89 88 90 93 93 95 97 100 100 94 96 93 89 117 134 137 143 143 120 93 110 104 117 118 126 110 111 114 108 89 81 74 81 82 72 86 100 93 111 115 102 108 112 101 100 112 113 125 127 139 147 132 119 113 117 118 104 98 107 124 135 138 142 140 138 135 139 138 142 140 136 137 135 132 130 128 122 120 121 121 115 112 105 108 103 93 85 85 85 89 87 86 87 88 90 91 93 97 94 99 99 96 92 93 90 111 124 140 144 151 116 92 99 97 122 115 123 111 115 121 110 97 88 75 82 78 59 101 130 102 117 119 108 109 116 100 98 111 110 123 125 120 131 126 118 102 112 118 114 114 92 100 125 136 138 141 141 143 140 139 140 141 137 138 131 131 132 127 125 119 118 116 112 108 108 97 107 89 85 87 86 86 92 88 87 88 91 90 92 97 97 100 97 94 97 96 87 101 119 131 142 156 111 97 88 90 110 114 109 116 124 126 106 110 107 99 97 79 74 110 145 116 117 121 105 112 122 109 98 108 111 119 127 118 114 120 115 104 92 110 102 118 117 93 111 135 140 146 142 146 146 144 140 137 138 134 138 127 129 128 116 116 117 113 109 104 104 100 100 89 85 85 88 86 88 87 88 90 91 94 94 100 96 99 95 96 94 94 97 89 112 131 140 155 124 92 79 91 100 113 113 119 111 121 110 126 114 117 116 99 88 118 150 123 122 117 105 96 115 115 102 106 117 110 118 111 110 106 104 110 95 102 98 103 113 114 113 135 145 147 147 149 146 145 139 135 135 134 129 129 126 123 104 111 113 109 107 101 99 98 97 84 83 84 86 85 86 87 87 90 90 90 95 94 97 98 98 94 95 93 93 87 105 128 135 153 134 104 87 88 100 109 116 115 104 109 103 123 112 122 122 100 90 124 148 123 116 117 97 94 108 114 102 97 110 109 110 99 110 106 101 96 102 95 98 94 105 113 129 144 143 142 151 150 146 143 141 140 137 131 132 125 121 114 111 112 109 110 102 93 100 101 83 84 85 84 87 86 85 86 90 88 91 94 93 96 97 96 97 94 95 93 97 90 88 115 131 138 139 121 100 93 91 102 124 106 99 97 95 113 115 115 96 83 76 118 142 120 105 103 94 94 107 109 99 91 103 102 92 89 103 109 108 90 90 100 100 99 114 127 141 150 143 142 150 148 140 137 137 138 132 131 127 120 114 113 112 110 107 101 101 93 95 100 62 85 87 83 88 82 88 88 85 92 92 92 95 96 95 97 97 94 93 93 92 96 98 94 116 128 139 135 114 99 97 99 115 100 101 98 92 115 120 104 90 81 62 111 135 116 96 93 94 92 99 101 97 88 94 93 87 84 104 102 97 85 87 95 101 110 132 139 149 151 149 151 153 147 136 139 135 133 126 130 123 120 112 111 112 108 102 99 98 93 97 102 36 82 98 81 87 83 88 87 85 93 89 94 94 97 94 97 95 93 92 92 101 112 84 78 95 117 128 136 130 111 98 103 111 110 111 110 100 114 119 95 99 97 78 108 133 121 96 83 95 94 93 93 98 90 92 97 95 96 101 108 102 96 101 97 94 119 142 143 151 152 150 141 138 137 134 137 134 131 127 123 120 118 110 111 104 101 97 95 93 93 100 92 19 79 107 80 86 86 85 89 85 89 90 94 95 95 95 96 97 92 94 111 110 97 46 48 94 103 116 127 126 119 102 105 112 115 115 118 113 118 117 104 113 107 101 101 117 125 99 78 92 103 88 92 99 100 104 112 114 111 110 118 122 122 121 115 109 122 145 144 149 149 142 133 126 129 132 129 129 127 125 117 116 111 109 110 99 94 94 92 95 94 108 66 23 70 114 82 86 87 84 89 85 92 92 91 95 95 97 95 95 99 119 122 87 69 23 82 102 91 105 112 120 121 108 108 113 120 123 120 121 115 113 116 122 122 115 101 104 111 103 100 99 108 101 111 115 115 118 119 129 124 124 131 136 137 132 127 125 129 145 149 146 144 137 134 127 129 128 124 122 126 120 116 114 108 103 100 92 91 88 92 90 97 110 53 21 63 106 97 84 85 85 88 89 90 92 94 92 96 94 97 97 129 118 106 63 32 47 110 122 89 94 104 108 113 111 111 119 127 124 125 125 119 109 115 126 122 118 104 100 102 105 105 112 109 108 119 127 128 126 131 140 141 142 147 149 146 146 137 130 131 140 143 142 137 133 129 127 123 127 122 125 123 113 115 111 105 100 94 88 85 86 90 96 101 99 48 31 60 102 102 94 89 84 88 88 91 93 91 96 95 92 95 100 118 114 95 55 17 86 110 126 98 89 92 99 107 110 112 119 127 132 129 129 126 120 119 123 124 118 106 96 104 107 114 113 114 111 121 129 135 142 145 150 150 151 153 150 149 144 141 136 134 135 142 138 134 129 127 126 125 123 124 122 119 113 108 109 97 95 86 85 88 92 96 98 106 77 42 53 58 99 108 71 97 96 86 89 90 94 92 95 93 97 97 95 124 110 95 30 41 106 108 123 103 79 96 95 105 101 112 118 129 140 138 136 135 131 130 127 127 122 109 106 107 111 114 119 119 122 129 137 143 148 153 153 155 154 155 150 149 146 139 136 133 134 134 129 128 125 124 123 122 121 120 114 112 106 101 99 94 89 83 90 93 96 102 100 111 54 50 57 64 95 122 49 85 89 104 87 92 89 94 94 96 95 97 97 124 102 90 19 59 113 102 119 123 51 81 97 99 101 107 118 130 143 143 144 148 142 137 135 135 129 125 120 120 120 124 124 127 128 133 141 144 151 155 155 155 157 151 153 147 144 142 136 135 131 131 127 124 119 119 123 118 116 111 107 103 102 97 94 87 85 85 92 98 101 97 104 105 33 65 57 67 93 129 47 73 67 96 110 93 91 94 94 96 94 96 96 122 109 65 26 99 113 104 121 125 65 35 96 101 100 98 112 125 147 144 150 158 153 149 148 147 146 145 144 142 141 138 142 144 143 143 149 154 154 158 159 155 159 157 150 146 141 139 137 133 130 126 123 121 115 121 117 115 111 106 106 103 99 90 89 83 84 90 96 102 100 96 104 94 33 69 61 66 92 133 50 84 43 72 110 105 103 94 93 94 94 94 95 125 112 43 58 104 108 102 115 127 91 21 68 98 102 97 101 121 144 151 155 159 157 148 149 154 154 157 163 165 162 159 154 150 154 152 154 153 157 159 161 160 153 155 149 147 144 140 138 132 133 132 122 119 116 116 111 109 109 101 100 102 93 84 84 86 89 88 99 100 99 104 102 87 43 69 63 70 95 127 80 66 66 42 98 101 113 107 100 97 94 96 95 131 112 32 91 94 114 104 103 136 101 33 39 82 96 98 88 111 143 154 156 152 165 147 151 162 156 161 167 166 164 165 160 158 155 160 161 159 159 157 153 152 154 154 152 143 143 142 134 128 133 129 125 117 115 109 112 106 107 97 99 94 91 81 86 89 98 96 99 102 102 103 101 82 47 70 71 69 95 121 106 49 69 51 93 102 109 106 110 111 105 99 94 130 105 29 108 98 111 108 103 131 118 56 37 63 86 93 88 97 131 155 151 153 163 160 155 162 168 161 167 170 163 167 165 165 164 159 161 160 162 149 156 153 149 153 152 140 141 145 129 129 129 127 120 116 113 115 111 106 104 100 94 92 85 82 86 92 99 96 100 102 103 106 100 77 61 74 76 74 102 122 101 72 65 40 95 93 102 103 108 117 110 110 109 132 97 36 112 90 114 109 104 119 128 86 40 52 73 82 88 84 115 143 155 163 159 149 158 164 161 159 154 158 164 165 164 159 160 164 158 156 164 152 156 153 147 143 143 135 132 128 122 119 124 117 118 120 116 111 107 101 94 98 90 87 82 81 92 95 96 99 101 102 107 104 95 77 64 77 73 81 107 120 100 77 69 44 89 100 106 109 91 115 109 114 106 133 89 53 113 95 109 122 110 111 135 108 63 40 62 70 89 87 90 137 146 158 161 148 152 162 156 153 149 151 158 160 160 159 149 156 153 152 151 154 154 148 145 140 142 134 124 119 108 116 119 115 118 118 113 109 105 100 91 90 90 81 86 82 95 96 95 101 104 107 109 104 92 77 70 79 77 93 113 126 87 92 80 54 70 97 107 105 106 104 109 118 111 137 79 73 116 97 101 118 113 104 139 127 81 49 49 64 78 86 82 115 137 149 154 154 149 154 152 145 137 138 143 147 151 152 149 147 149 152 150 149 148 144 138 137 135 126 117 113 105 109 112 111 113 108 105 103 100 100 92 84 82 82 88 90 96 97 100 102 106 108 109 98 91 77 77 81 84 102 118 123 84 96 90 67 59 96 104 108 105 103 107 106 110 140 76 88 116 111 89 115 115 99 131 144 105 75 42 54 63 77 82 93 122 134 147 150 149 150 143 146 136 127 134 142 144 146 144 141 139 143 149 140 135 131 135 130 125 114 106 98 101 101 109 106 104 104 100 96 94 93 82 77 82 86 86 94 97 99 103 106 108 109 106 98 91 73 78 87 83 113 122 117 84 90 94 85 51 92 103 110 103 106 105 106 107 140 75 101 117 120 97 107 119 100 123 140 134 101 60 44 54 64 79 86 95 124 126 133 142 135 129 132 135 129 128 134 137 138 136 141 136 136 137 132 130 128 123 122 111 105 95 90 98 106 102 109 104 96 92 92 92 81 81 81 84 88 88 95 99 101 106 108 111 109 102 96 87 66 85 97 90 121 122 112 89 79 97 84 54 89 104 108 107 106 106 102 106 141 75 107 120 124 104 100 118 104 110 134 140 122 91 48 46 50 63 81 85 99 111 119 120 125 123 122 125 123 114 117 127 126 125 131 126 127 128 124 122 120 116 108 99 86 84 94 97 102 99 98 96 90 90 90 83 83 83 85 84 91 92 103 104 104 109 111 113 105 102 92 77 76 96 91 108 120 121 110 86 73 100 82 52 83 105 109 109 105 103 101 109 141 70 105 121 129 113 94 125 112 102 122 140 135 106 75 46 49 49 63 76 87 91 104 104 105 108 109 110 107 104 103 109 111 113 115 115 115 112 112 108 107 99 84 81 77 91 103 100 96 99 97 89 90 90 86 84 86 81 86 92 96 99 101 105 110 108 115 110 104 99 83 72 89 102 92 112 126 123 106 95 68 100 87 58 76 106 108 108 106 101 99 108 140 71 101 127 134 112 96 118 120 99 124 139 143 124 98 57 49 43 52 57 80 87 89 92 89 93 94 93 92 91 91 91 96 99 99 95 99 95 95 88 85 74 72 78 89 97 101 104 104 103 98 89 94 90 86 87 85 87 92 96 98 104 103 108 110 109 108 105 102 88 80 81 103 103 89 120 129 115 100 93 76 94 95 63 72 103 107 107 107 96 106 100 140 74 97 129 138 115 94 120 118 107 105 137 145 139 109 97 46 49 43 53 58 74 86 89 93 89 80 83 76 82 80 83 80 82 81 80 80 77 76 76 73 73 86 90 100 107 106 103 104 104 100 94 94 89 88 87 87 92 100 99 104 105 104 112 109 110 106 104 97 90 83 89 107 101 91 116 124 119 89 91 83 95 96 69 66 103 109 106 108 93 107 95 141 72 95 128 136 118 92 120 113 108 97 138 147 81 68 122 66 44 47 46 53 53 73 81 88 92 89 86 82 83 80 83 82 79 81 79 76 77 78 80 82 86 95 98 103 108 105 100 100 100 92 95 90 89 88 89 93 96 102 103 107 104 106 112 109 105 104 104 96 88 85 98 113 101 106 125 125 118 88 96 84 93 100 78 64 101 109 108 106 94 106 95 139 77 90 129 134 118 91 123 109 112 93 129 121 47 26 128 102 43 49 48 45 50 58 65 81 84 92 91 85 86 88 86 87 87 86 85 85 84 88 88 91 94 98 101 103 105 100 98 96 95 86 93 91 82 90 95 98 103 104 106 107 104 105 109 105 98 101 106 95 87 91 105 123 106 94 133 128 114 90 97 88 89 105 89 61 102 111 107 108 94 106 91 141 81 87 125 130 124 91 124 112 109 97 113 112 83 35 53 149 62 43 48 48 47 49 52 63 70 85 88 86 88 91 89 90 90 92 88 90 90 91 94 98 101 102 97 98 99 95 92 90 88 88 86 84 91 97 100 102 105 111 108 109 107 107 101 96 100 103 110 102 98 93 106 114 119 22 68 127 119 91 100 90 91 109 82 54 101 110 107 107 95 107 91 140 82 89 123 130 130 89 125 114 106 108 98 106 104 74 12 111 118 54 45 47 49 53 51 59 52 68 81 82 86 90 90 93 90 89 87 91 92 94 96 94 96 101 93 93 91 94 92 90 87 83 87 92 94 99 105 100 107 111 109 108 107 98 92 97 107 109 112 101 98 90 103 115 107 27 25 89 119 89 106 93 94 109 78 53 100 111 110 108 93 106 90 