P2
92
112
255
122 120 121 121 121 119 122 119 119 122 119 119 119 120 122 119 120 121 119 119 118 116 125 119 140 150 168 167 170 172 158 148 142 139 139 136 148 144 148 148 140 132 147 125 132 125 138 130 115 130 130 136 132 126 123 121 120 128 125 120 124 119 119 114 120 117 115 115 117 121 122 121 119 113 116 113 116 113 115 115 113 115 114 116 116 112 114 114 114 113 116 112 122 120 117 125 116 124 119 121 122 117 124 121 120 118 122 121 119 124 118 120 121 124 132 138 164 170 159 155 148 155 159 154 166 156 146 147 154 152 145 138 150 139 139 126 123 122 121 130 118 102 118 123 124 125 118 112 127 119 127 121 119 127 121 123 123 117 115 120 115 130 127 122 128 120 117 115 117 115 113 117 112 118 115 114 114 117 111 115 117 115 114 113 121 123 122 121 120 117 122 121 119 119 119 118 122 121 122 116 118 121 118 121 131 138 148 162 162 175 163 173 172 153 164 170 171 149 156 155 148 156 129 132 149 135 126 119 115 113 116 118 112 92 107 115 117 126 111 106 120 113 128 118 117 123 121 120 120 116 119 118 116 118 125 127 126 131 116 120 121 116 116 118 115 118 116 115 113 118 114 113 115 112 118 114 119 121 119 120 119 122 122 123 116 120 120 121 121 123 122 127 126 145 128 136 147 148 137 140 169 175 159 160 182 170 190 189 187 163 160 147 149 152 125 126 132 124 116 119 121 103 103 105 99 87 92 106 109 117 108 106 112 123 129 122 111 124 122 116 115 119 120 116 118 118 130 131 124 120 126 116 118 117 114 122 117 116 115 115 113 114 114 116 115 111 115 114 120 121 118 122 120 117 125 117 120 120 122 116 121 122 119 124 127 125 138 136 133 132 138 139 145 152 164 180 190 183 198 193 180 171 156 142 146 143 128 122 124 109 114 109 107 99 91 95 94 85 91 100 103 105 104 92 96 107 128 136 111 128 123 121 120 117 121 115 119 124 123 121 133 122 119 120 116 117 114 118 119 114 114 119 113 114 116 115 114 110 117 114 121 123 120 122 120 121 121 122 120 122 117 122 125 122 128 124 122 124 150 134 140 140 130 126 155 169 188 194 184 190 200 181 173 161 143 128 124 125 120 120 125 108 104 106 105 107 97 103 104 94 97 104 101 106 108 102 96 104 99 107 96 127 129 125 125 116 128 117 117 125 114 121 121 123 116 124 119 117 116 118 113 115 113 116 116 113 117 114 110 117 114 116 120 126 121 119 124 118 123 121 121 120 120 118 134 124 123 121 119 116 135 137 128 128 133 148 150 166 173 177 193 188 186 160 145 134 141 123 122 116 119 113 114 111 104 102 105 101 93 99 103 94 97 102 99 107 104 112 119 114 108 99 98 108 113 128 126 114 140 123 115 122 117 126 122 123 120 129 127 124 118 120 116 113 112 116 114 112 117 119 113 116 112 117 119 120 120 123 122 122 118 121 124 116 120 119 125 116 116 119 127 123 133 124 131 139 159 142 144 161 175 192 181 171 156 141 133 119 121 126 122 118 128 108 119 137 116 109 111 112 105 105 106 101 106 119 108 107 108 116 125 130 128 131 129 111 125 111 115 107 126 119 114 118 115 127 128 132 135 127 123 117 122 115 118 114 117 115 117 115 116 116 113 115 115 113 117 124 119 125 120 121 120 121 121 123 120 122 117 118 118 127 131 131 132 140 145 137 149 133 134 161 185 176 173 149 142 163 135 123 112 128 116 149 144 130 125 139 118 117 118 118 107 123 112 105 108 124 106 117 119 135 129 124 130 139 138 137 135 114 116 119 120 119 102 116 119 129 123 125 124 122 117 116 115 116 116 116 116 119 116 119 116 115 115 118 111 118 119 122 118 120 122 119 121 122 120 119 120 121 119 121 120 127 140 131 150 154 145 140 128 136 141 158 179 168 156 129 154 133 115 129 116 123 123 124 143 134 122 121 114 111 114 114 113 115 114 107 118 117 109 111 124 117 122 126 117 128 140 140 133 137 133 127 115 117 102 113 123 119 122 117 121 118 125 125 113 116 120 117 122 112 116 119 115 117 112 114 114 116 121 123 119 122 120 126 120 119 120 121 118 125 113 123 130 124 135 133 137 138 141 126 137 139 166 177 191 179 144 152 149 129 132 135 134 127 131 111 122 123 122 125 107 117 123 116 114 115 121 129 114 110 96 112 112 107 111 127 114 110 125 128 140 137 151 157 141 132 125 118 131 115 118 120 120 122 117 128 118 119 119 121 130 118 118 113 116 114 116 118 114 114 124 121 121 124 119 124 120 120 124 120 119 127 118 133 121 142 126 143 123 145 151 145 145 148 191 199 198 172 148 129 127 134 124 125 124 139 146 132 128 124 130 119 113 123 129 120 116 126 128 132 121 110 109 110 115 113 117 112 121 115 126 139 153 157 152 158 154 155 159 135 134 117 115 116 122 118 126 116 124 126 134 119 133 130 125 116 115 115 116 119 114 115 120 124 119 125 120 127 118 122 117 121 123 128 122 128 127 143 126 128 140 170 168 169 180 187 209 184 175 157 142 116 115 119 118 128 129 137 135 139 147 150 139 127 124 128 142 128 132 137 129 132 129 122 122 116 109 115 124 117 115 118 115 129 131 129 135 137 153 164 169 154 154 145 122 127 120 129 125 109 126 132 131 122 128 143 123 117 120 116 116 112 117 115 121 121 121 121 119 120 121 120 122 127 128 127 125 134 136 137 134 156 180 184 165 184 175 183 196 157 158 130 135 124 129 126 139 144 142 140 144 147 145 139 143 136 139 151 149 139 144 142 142 135 131 138 130 123 110 107 116 122 113 113 101 107 111 120 112 125 139 145 156 152 146 148 162 147 124 130 138 124 140 135 132 133 125 142 135 123 119 121 111 116 117 117 124 116 121 121 120 121 123 121 130 138 122 128 127 144 138 143 137 160 187 174 166 168 163 202 191 157 129 113 132 134 144 135 150 149 151 146 153 161 149 146 143 144 155 156 164 155 148 151 150 148 138 136 133 134 120 120 130 131 117 120 118 93 108 102 120 96 139 138 141 149 153 147 151 161 138 133 141 143 143 136 121 123 128 129 144 135 119 122 113 114 117 118 123 118 121 122 115 126 126 119 129 130 120 137 130 139 148 154 156 168 186 176 169 151 183 206 164 137 116 118 130 135 146 154 157 154 160 152 156 162 160 155 161 157 168 161 168 167 162 156 158 158 153 144 144 144 142 130 137 138 132 132 132 127 119 103 122 96 112 136 137 145 152 161 159 155 154 144 139 146 139 144 133 121 128 133 136 149 136 121 115 116 115 117 122 120 123 119 122 121 120 121 129 124 119 132 142 145 146 155 178 178 177 169 138 139 194 191 152 128 119 125 133 151 158 160 169 172 172 173 170 173 171 173 177 173 177 176 181 174 171 166 169 166 165 161 159 151 157 144 141 141 134 145 137 139 132 130 122 116 86 127 137 137 142 151 143 149 148 151 150 132 135 137 143 130 125 128 140 131 142 127 115 113 116 118 122 121 119 121 124 119 119 119 125 121 122 153 171 153 135 171 170 173 166 136 111 152 190 168 148 134 129 139 149 167 168 169 182 185 182 187 186 189 181 184 185 183 181 183 182 178 181 177 174 169 171 173 169 161 162 156 155 147 149 141 138 142 146 133 127 120 90 113 119 146 138 135 151 151 148 145 157 170 132 133 129 134 126 126 138 146 138 146 113 110 118 116 120 122 117 121 121 123 112 118 136 175 165 165 156 150 168 168 176 163 124 111 129 175 172 147 134 125 139 149 164 178 176 184 192 190 192 187 186 190 189 193 184 186 185 183 184 183 182 185 186 177 181 183 180 179 173 167 170 166 164 157 144 146 144 141 133 112 115 98 111 118 146 156 140 144 144 147 142 165 159 136 125 122 128 131 142 148 148 130 120 107 117 114 121 121 120 119 124 123 132 154 199 165 135 140 151 152 179 163 170 132 112 105 147 172 151 138 123 129 142 160 174 177 185 193 194 193 192 190 183 193 192 196 192 186 185 187 183 182 184 188 189 190 191 193 194 191 187 182 183 181 183 172 167 156 151 149 141 133 124 106 108 111 126 155 165 159 140 143 142 151 175 160 128 121 122 129 134 139 153 137 131 111 115 115 126 119 124 130 136 147 161 156 133 119 128 147 157 151 170 171 148 112 111 131 160 165 134 120 120 146 134 164 189 180 187 193 197 197 191 195 193 200 199 196 193 189 188 190 180 179 192 193 196 193 197 196 196 196 194 194 194 196 196 186 184 182 176 166 158 153 144 124 104 122 117 115 155 178 161 146 138 143 154 171 154 125 135 117 128 130 139 143 128 122 112 117 124 121 120 151 138 157 138 117 114 138 137 148 153 137 143 128 139 112 131 147 167 148 127 125 114 129 141 162 185 186 190 194 197 198 195 198 198 196 196 196 192 193 191 190 175 186 194 196 198 195 198 199 199 194 199 197 198 201 200 194 192 191 191 184 176 173 158 141 113 129 114 131 113 149 165 155 149 139 150 158 178 140 133 137 129 141 142 141 126 123 107 111 120 131 120 153 141 125 113 126 149 135 131 154 141 136 116 113 134 136 153 168 172 123 127 129 108 111 148 167 184 186 190 196 198 197 196 202 198 191 193 193 193 196 197 193 184 188 196 195 199 195 198 197 200 193 200 197 199 200 200 199 196 194 198 195 190 186 177 156 137 132 124 121 126 110 140 151 149 147 146 162 172 160 127 141 145 160 151 142 148 120 113 108 129 124 126 151 134 117 131 133 139 125 135 142 128 118 119 126 146 168 166 161 170 125 131 120 108 104 153 172 180 187 190 196 197 199 198 200 194 189 194 192 192 196 199 194 191 187 193 194 196 197 197 196 196 199 199 198 197 201 197 200 197 195 197 198 198 198 185 172 153 138 138 120 137 120 120 133 135 145 141 171 154 187 139 117 129 149 185 151 148 159 127 95 128 124 129 147 122 116 125 118 139 164 152 146 130 130 139 153 185 192 167 164 163 139 133 121 115 110 137 176 181 185 189 199 199 197 198 198 194 192 194 188 194 196 199 197 190 188 192 193 195 196 196 198 198 199 200 196 199 200 199 201 196 196 195 193 200 199 189 179 168 137 141 123 126 133 130 132 136 131 138 155 169 172 189 120 119 123 156 180 153 140 140 109 111 122 117 98 89 115 104 117 174 200 186 173 159 157 166 195 204 179 156 150 162 144 120 127 133 116 128 175 181 182 191 199 202 198 193 195 196 193 193 191 195 198 199 199 192 188 192 193 195 195 196 196 198 200 198 196 197 197 199 200 198 196 194 189 200 197 192 185 172 159 135 127 127 120 133 143 151 139 138 138 172 179 192 163 139 131 106 138 169 135 117 112 103 121 108 92 91 114 88 134 203 188 193 176 130 147 197 211 207 174 152 149 157 131 111 112 139 130 128 167 182 185 186 193 199 195 191 193 195 194 192 193 194 197 199 196 196 190 192 192 193 193 196 195 195 197 198 196 197 196 196 197 199 198 195 191 198 198 192 186 175 170 148 139 107 117 112 141 154 152 137 142 154 185 190 180 167 162 131 109 127 142 130 103 103 95 115 88 95 93 102 146 168 148 149 116 129 201 209 213 212 182 164 127 154 133 132 106 131 142 128 162 179 182 183 189 193 192 191 193 195 198 193 194 195 198 198 194 195 192 192 192 193 196 195 198 198 198 196 198 199 198 197 198 194 195 196 193 193 200 194 190 179 176 164 140 123 108 106 126 142 146 146 143 146 177 190 187 171 191 148 132 101 114 123 107 103 80 107 109 77 99 115 129 138 116 112 113 178 204 209 211 205 174 141 118 159 143 143 118 126 143 134 158 177 185 183 187 192 194 190 194 196 196 195 199 194 197 199 197 197 196 194 195 193 194 197 198 198 199 197 197 196 197 197 194 197 193 195 190 191 193 195 188 179 177 170 149 127 103 110 111 140 139 136 148 152 161 183 181 171 171 167 141 119 98 111 114 88 90 99 106 90 96 133 126 111 109 120 155 181 187 201 201 185 145 124 136 143 139 137 135 138 136 141 161 178 189 187 190 190 195 191 195 196 197 196 199 194 196 199 198 200 198 195 195 194 194 197 196 196 198 198 196 195 197 195 193 193 193 192 191 190 189 190 187 177 176 173 161 126 115 106 99 132 154 127 138 160 165 175 169 155 154 143 126 108 102 99 113 76 100 101 81 92 102 140 114 102 116 169 162 156 169 160 171 167 153 151 153 135 139 148 148 154 138 140 154 181 191 192 191 192 193 195 197 196 197 195 198 198 197 197 196 200 198 197 195 194 194 196 195 197 196 196 195 196 196 195 194 193 192 192 189 191 189 190 185 184 173 174 168 128 118 108 93 104 161 152 130 155 175 173 158 158 134 140 122 112 81 94 103 80 99 97 80 78 103 113 112 108 150 168 129 147 147 129 151 198 195 161 152 125 134 144 142 144 134 142 153 181 194 192 193 196 194 196 197 199 199 195 198 197 196 200 197 197 199 197 197 197 195 195 197 199 199 199 199 198 200 197 197 195 195 193 193 191 192 191 188 177 175 170 168 140 117 99 112 79 124 150 130 146 162 183 152 151 138 127 128 117 105 90 97 87 95 82 73 78 95 106 117 111 121 128 121 138 128 128 155 185 175 156 135 117 126 139 140 141 139 145 153 181 192 191 195 198 194 197 195 192 200 197 200 198 198 198 200 199 201 198 199 197 198 198 196 200 198 197 197 197 199 197 195 195 190 190 193 192 191 190 190 183 168 170 164 143 125 83 110 99 83 142 129 136 154 183 172 126 143 115 119 110 101 98 111 100 89 77 75 74 95 116 113 99 109 108 123 138 121 130 133 137 145 127 125 125 127 136 129 135 135 142 155 180 192 192 194 193 197 194 198 195 199 199 200 199 197 200 198 198 200 198 197 200 199 198 199 196 198 195 196 196 197 195 197 193 190 187 187 187 183 187 186 182 172 162 161 144 120 99 73 107 92 87 143 127 163 183 167 139 114 124 114 104 91 91 113 103 94 79 70 72 100 121 111 110 98 98 134 120 124 129 112 139 126 126 136 137 136 133 133 141 141 161 168 181 194 195 194 195 196 194 199 199 199 198 197 197 199 198 199 199 196 199 198 198 199 199 198 198 198 198 196 197 196 196 192 193 192 192 190 186 180 178 181 180 172 162 152 143 121 103 77 79 99 78 79 137 148 180 157 143 117 114 118 103 96 101 95 107 96 76 65 76 96 117 116 117 81 103 135 114 125 119 118 133 124 132 150 146 141 143 143 144 146 168 179 182 192 196 196 195 196 192 198 197 198 198 199 197 201 197 197 199 197 199 196 199 199 199 196 199 199 198 195 198 198 200 198 197 200 199 190 195 192 191 188 182 168 160 154 137 123 105 91 70 76 89 72 80 150 150 162 133 126 101 112 105 98 102 101 101 103 64 71 85 86 116 120 119 72 98 133 110 113 115 114 135 120 139 155 149 150 141 148 142 153 169 181 186 191 195 197 195 195 189 199 198 200 199 200 199 198 196 197 197 198 197 198 199 200 198 198 198 199 201 195 200 201 202 200 195 200 198 193 192 191 192 194 193 181 154 151 141 119 113 87 74 59 78 85 68 106 147 143 139 126 107 99 98 102 108 102 101 109 75 70 88 66 127 125 100 72 99 119 109 116 115 116 141 126 143 159 157 152 144 148 149 159 175 184 182 192 195 196 194 197 196 197 199 201 198 201 198 197 197 195 197 197 199 199 200 201 200 196 199 199 200 195 198 200 201 199 199 200 195 193 191 191 192 194 193 187 161 139 146 127 112 86 77 63 61 79 68 89 117 155 132 122 113 90 106 97 109 109 106 112 78 68 84 62 117 127 104 63 101 115 111 118 110 125 145 125 138 161 149 149 144 145 154 170 184 187 181 190 193 194 196 200 198 201 200 199 197 200 198 197 195 197 194 197 197 198 200 201 199 196 198 198 195 196 195 200 200 199 198 195 192 189 188 187 189 190 193 188 172 150 141 131 113 91 74 66 57 59 69 77 94 126 131 116 116 96 111 96 117 114 121 113 95 80 88 72 113 124 116 72 101 118 109 119 108 127 147 119 143 162 147 147 143 146 159 171 182 186 186 187 189 192 196 200 200 199 201 200 197 198 197 195 194 192 196 195 197 197 201 200 200 194 196 199 195 195 197 198 199 197 195 192 187 185 184 184 184 184 179 180 172 155 142 130 115 97 71 64 53 59 51 69 98 106 124 116 109 97 102 100 122 109 120 117 110 79 75 61 107 122 134 68 98 128 113 121 116 127 144 120 144 157 148 149 141 147 155 171 174 179 183 182 183 187 190 198 198 198 199 199 196 195 194 196 192 192 193 198 195 196 199 199 196 197 194 196 197 196 198 197 198 193 190 188 182 181 178 173 164 171 151 174 162 158 148 127 125 105 74 59 49 56 38 53 82 121 114 115 103 95 92 106 114 115 111 113 121 91 87 55 72 132 131 128 72 133 128 121 123 135 135 126 145 150 146 136 133 140 152 159 169 174 174 174 176 176 182 188 193 197 196 195 196 193 192 195 192 190 191 198 194 194 197 197 198 198 191 196 198 196 197 195 196 190 181 180 171 174 162 167 161 159 152 146 140 147 148 131 125 108 84 63 56 58 34 56 56 103 128 109 105 95 88 111 114 111 109 113 112 102 98 73 43 116 128 142 119 125 144 133 124 143 137 123 137 151 139 132 138 136 156 158 166 166 162 168 173 173 176 182 186 192 189 193 195 195 190 193 192 192 191 193 193 192 196 195 197 194 190 192 201 194 192 188 186 178 174 170 164 162 154 164 163 161 149 146 133 137 142 135 122 118 94 64 54 60 39 50 61 77 123 107 104 90 100 109 116 112 109 114 114 109 111 82 59 70 119 132 154 171 152 148 133 132 127 120 131 145 133 126 131 138 145 143 143 144 144 151 158 166 171 175 180 182 189 189 191 191 191 190 191 185 187 190 190 188 194 193 195 194 191 190 193 191 184 180 170 164 158 159 146 133 139 133 130 132 124 124 116 119 130 134 124 120 104 70 57 52 45 57 69 72 112 110 96 88 97 114 115 112 115 116 113 115 117 98 61 62 83 120 133 142 140 160 158 135 129 119 131 147 125 115 113 118 130 125 122 114 119 124 129 129 145 149 156 168 180 182 187 189 189 189 189 183 187 188 185 186 190 191 190 189 190 188 188 179 174 172 160 154 140 136 117 108 114 114 111 113 111 105 102 109 117 127 125 124 108 87 60 55 34 68 53 87 97 102 98 81 103 106 113 105 113 117 115 112 118 114 68 39 57 95 125 138 118 126 160 163 140 140 141 142 155 121 108 113 111 117 107 102 108 102 107 106 114 122 123 134 161 169 178 185 188 186 185 184 185 187 185 180 184 187 183 185 183 182 178 172 166 153 139 132 116 116 104 95 100 115 121 124 127 124 119 113 108 120 124 128 112 103 71 44 47 70 50 89 97 93 95 83 106 106 104 103 113 115 114 116 112 116 82 36 36 58 110 139 126 124 139 157 175 190 181 181 169 166 142 129 121 116 109 105 96 97 95 92 100 107 110 115 123 144 156 172 176 182 181 185 183 185 185 178 177 184 184 177 169 170 164 151 141 113 116 115 103 98 99 101 113 121 131 135 138 140 142 133 111 114 121 127 120 113 90 58 50 73 56 98 93 84 92 86 106 107 102 110 115 115 115 117 115 119 84 47 59 46 57 124 146 147 145 134 122 127 150 155 146 140 135 130 127 123 113 112 112 97 101 97 90 101 107 105 112 128 129 146 160 166 173 182 179 178 182 176 182 180 173 173 155 154 146 136 120 100 105 99 98 104 106 116 120 123 128 131 139 145 143 146 133 121 121 126 125 113 102 66 70 85 82 99 91 81 87 88 113 100 106 112 115 113 113 117 115 122 89 45 60 56 62 91 111 138 149 149 127 138 153 151 148 133 134 125 124 124 113 115 112 106 108 104 100 99 103 99 110 119 123 129 149 156 160 173 173 172 175 171 175 175 163 152 142 137 126 123 106 103 104 100 103 111 113 117 123 117 120 130 134 140 142 148 143 130 127 124 130 116 104 79 70 85 87 114 84 81 96 87 109 106 109 109 112 116 116 112 116 117 98 49 47 52 90 93 111 128 132 124 116 142 144 141 135 125 123 115 106 102 95 93 88 91 93 100 106 109 106 105 108 116 119 126 138 147 156 162 168 169 176 168 173 159 152 139 131 123 113 112 105 102 108 104 104 100 99 100 104 105 108 114 124 131 131 142 143 139 130 125 127 121 110 81 74 107 96 97 86 89 93 103 109 109 112 111 110 114 112 112 110 129 114 50 54 54 85 93 107 136 120 103 110 143 132 124 117 113 105 90 91 84 91 85 76 80 70 75 80 94 105 110 105 113 117 124 129 138 154 163 165 173 173 173 169 154 131 131 121 111 113 104 103 101 94 88 76 85 93 101 109 107 108 97 98 117 124 133 143 138 128 128 123 126 109 86 66 96 99 82 86 95 105 110 107 112 111 109 112 112 117 107 130 159 152 69 46 61 77 94 110 140 111 95 119 135 118 114 108 95 76 75 93 100 91 83 56 70 85 95 76 73 89 100 105 105 113 115 122 132 148 168 178 174 176 175 165 135 129 120 114 107 102 102 94 79 84 84 77 76 69 69 92 93 101 123 86 92 112 124 129 134 131 126 123 125 109 88 57 77 85 88 82 104 109 107 109 112 111 110 112 115 113 118 145 147 161 96 48 69 76 85 117 142 110 97 129 125 110 106 96 77 77 74 84 122 110 84 81 36 57 98 88 92 81 91 92 105 109 110 115 127 157 182 187 187 191 184 167 132 118 110 106 102 98 83 79 84 86 87 51 58 50 61 87 114 75 82 111 84 98 112 121 126 137 128 124 122 106 76 63 80 74 91 109 133 130 111 108 108 111 108 115 111 108 129 113 93 137 139 60 71 79 75 119 144 105 104 131 125 112 103 87 66 76 74 119 161 89 61 97 40 51 88 118 93 87 99 88 90 98 108 112 126 172 192 199 200 199 197 178 134 117 110 104 96 89 83 81 81 110 87 41 78 28 92 49 146 125 62 74 99 85 108 111 124 140 129 125 117 100 73 79 75 81 106 139 140 145 132 104 112 110 109 115 110 109 131 88 57 65 136 95 67 69 88 127 144 115 123 140 131 111 99 89 77 52 97 140 153 80 60 49 29 65 65 141 112 91 87 109 90 91 107 111 131 183 198 201 202 197 198 180 135 119 118 108 104 102 75 74 99 138 79 64 38 30 68 38 130 140 102 63 83 94 110 116 125 143 134 132 112 99 82 86 68 86 136 130 125 111 133 114 105 111 109 114 107 110 134 87 72 57 93 125 69 68 86 139 141 129 138 157 140 115 106 94 84 82 103 136 159 80 82 59 57 67 95 137 117 106 77 95 113 95 105 128 157 187 197 201 201 198 199 189 129 127 130 119 129 101 71 79 103 136 99 77 59 47 55 69 128 128 119 104 96 97 107 124 134 141 142 135 117 97 90 82 76 111 133 108 77 72 104 119 109 110 111 109 107 113 140 79 78 80 72 103 98 72 86 143 149 142 156 165 160 140 132 130 107 114 120 135 152 127 86 98 99 91 131 136 113 100 106 103 117 105 121 164 175 188 197 201 202 199 197 194 141 129 136 127 143 114 110 94 110 112 122 83 92 86 82 114 137 131 141 142 130 128 128 131 141 141 143 135 121 110 87 77 79 124 109 103 90 57 96 122 109 108 111 108 107 110 147 99 90 88 94 100 111 72 81 145 148 155 170 170 170 168 167 158 126 119 135 150 160 176 165 179 159 158 152 149 139 131 129 129 117 120 156 178 173 188 200 201 202 196 197 202 151 129 139 131 132 130 118 116 112 116 117 121 122 123 125 136 148 148 149 143 143 142 143 146 146 147 145 136 130 120 85 64 105 116 117 123 128 81 101 126 103 109 109 110 101 125 148 119 114 103 126 135 113 81 87 150 148 159 180 181 178 180 174 164 138 113 133 147 158 159 147 160 151 141 140 135 133 127 131 130 130 162 176 180 169 188 199 201 199 198 196 205 147 132 155 142 127 116 115 113 109 125 120 128 139 138 148 152 156 156 152 145 150 154 151 153 151 149 148 143 140 134 88 84 116 115 129 136 140 95 95 126 106 106 110 107 105 115 156 124 132 133 141 161 135 86 98 153 150 162 178 188 184 180 169 166 147 133 133 140 147 154 147 148 142 136 132 135 142 150 161 156 163 180 183 176 166 181 201 201 195 198 197 206 143 131 162 162 149 127 119 121 113 118 116 123 128 130 132 141 143 142 143 147 165 162 158 161 156 153 153 150 143 151 102 122 116 113 141 147 140 101 99 139 98 112 108 106 102 109 151 133 145 145 154 169 171 104 118 156 150 173 181 187 182 178 162 160 159 144 134 130 128 137 132 140 145 146 154 168 168 175 176 169 175 179 183 173 168 180 197 201 194 199 195 205 149 141 164 172 171 162 151 143 137 136 138 135 127 127 123 127 133 140 146 154 170 174 167 167 160 158 164 152 148 152 132 127 133 116 142 144 141 116 90 145 106 108 112 105 109 98 133 146 156 151 152 157 163 92 129 152 154 177 185 183 181 178 172 165 166 167 163 159 164 173 172 179 181 185 184 190 188 182 186 180 176 180 178 170 174 184 192 202 195 194 198 197 159 150 169 175 176 185 181 181 176 175 174 172 171 170 168 170 176 184 177 182 175 178 177 172 171 165 169 155 143 154 145 112 156 147 131 141 143 117 88 128 121 105 110 105 107 104 99 160 172 158 147 147 142 70 127 155 154 177 180 184 181 183 177 180 172 177 171 177 179 187 188 189 195 194 195 198 193 187 189 185 179 180 177 171 174 185 193 199 198 193 199 196 167 160 172 177 180 188 185 183 186 186 188 186 189 189 189 189 192 190 189 193 191 190 184 173 163 167 168 161 140 150 144 63 110 128 119 132 142 116 95 123 111 110 105 106 102 111 91 133 189 168 147 135 127 72 133 152 149 178 181 182 185 187 180 188 186 182 181 186 189 192 195 197 199 201 199 197 196 191 190 192 183 181 180 174 174 184 193 195 198 196 198 198 178 166 178 180 182 191 188 189 182 186 189 193 195 197 197 197 196 193 192 193 195 185 159 185 161 173 164 159 140 152 147 41 75 100 114 125 143 117 106 120 111 107 110 104 105 105 97 111 189 164 146 133 117 80 132 148 149 173 182 180 186 185 186 191 187 184 188 193 191 198 198 201 200 200 199 195 194 193 192 190 184 186 179 172 180 184 194 195 196 196 195 198 187 173 176 179 188 189 189 179 189 185 192 191 197 199 200 198 193 199 197 194 194 188 156 180 179 174 166 158 142 147 145 52 79 91 108 122 140 110 126 120 104 109 108 105 107 108 99 93 182 169 150 142 118 99 127 144 149 171 177 178 184 184 187 193 189 188 192 197 194 198 201 199 199 199 199 196 195 195 193 191 182 186 175 176 185 189 196 198 197 196 196 199 190 185 169 176 183 184 190 183 187 193 194 191 198 197 201 199 197 197 199 195 196 194 186 183 184 173 169 158 143 147 149 73 76 90 97 122 137 115 133 113 107 106 110 99 104 101 106 90 158 177 155 149 130 138 138 137 150 171 181 180 181 184 182 193 193 191 194 197 194 197 199 200 199 199 200 197 197 191 189 183 180 177 173 171 186 192 202 201 201 195 195 192 193 186 168 158 167 171 187 184 185 195 190 191 196 199 197 200 199 195 196 195 197 195 192 186 185 171 170 155 146 137 159 112 76 93 94 121 137 124 134 105 107 109 107 103 102 101 106 95 139 185 155 162 144 159 149 133 148 174 180 181 176 185 182 191 192 192 194 195 197 195 199 200 198 199 196 193 196 187 172 164 173 174 173 168 179 194 208 202 202 193 191 189 188 189 173 163 177 162 164 167 177 188 190 191 194 196 195 199 195 197 194 193 198 191 190 188 183 172 160 155 146 137 149 144 92 90 100 124 133 135 124 101 108 111 108 103 106 101 107 91 122 186 155 169 155 163 154 130 152 173 177 178 178 182 183 189 192 191 190 194 192 196 197 198 199 201 195 194 185 170 148 161 182 175 169 169 178 193 203 200 196 194 189 188 185 180 172 171 189 185 150 142 167 176 181 188 190 195 195 195 196 192 195 193 191 190 188 188 184 171 160 146 150 133 142 156 107 94 101 131 123 141 113 103 112 109 109 97 104 103 101 101 101 185 157 173 173 170 156 123 150 171 170 173 173 180 182 184 187 190 182 191 187 188 191 195 198 193 184 176 165 140 150 177 183 175 167 167 175 185 193 190 192 189 192 182 166 152 156 164 182 189 165 120 138 155 163 176 184 192 190 193 194 186 191 188 191 187 184 185 178 167 157 150 147 134 137 155 112 96 115 132 128 132 104 106 109 111 106 104 104 102 105 97 98 173 161 157 184 178 167 118 143 169 165 169 171 176 176 180 182 183 180 184 185 188 189 193 192 183 169 155 151 138 160 178 174 169 153 156 160 179 181 184 183 182 176 159 135 124 144 150 172 184 163 115 134 153 138 157 175 188 187 188 191 184 184 186 184 183 177 182 172 166 150 149 146 137 139 146 112 111 130 129 136 122 99 107 111 108 106 99 103 99 109 100 89 151 177 134 160 181 190 120 139 158 163 162 170 171 170 175 182 179 179 183 182 183 184 186 176 168 148 151 148 137 149 173 162 158 139 122 128 155 167 172 165 168 144 127 113 116 126 136 144 160 143 109 137 137 135 136 162 176 176 174 178 179 179 181 178 179 168 170 159 159 141 150 143 141 138 132 127 134 127 125 149 103 104 106 109 106 110 101 102 102 104 102 88 120 186 172 151 175 196 129 133 147 152 153 156 167 169 170 176 177 170 177 176 177 176 174 163 140 139 157 159 154 147 148 143 129 128 117 107 126 148 147 146 141 126 116 116 108 106 114 122 137 127 117 146 144 125 134 131 133 147 165 167 170 170 170 166 163 162 157 153 151 139 142 140 141 132 139 169 141 107 135 139 98 107 108 107 105 109 105 98 102 103 104 94 102 173 195 181 162 205 140 124 142 145 148 152 162 165 168 169 169 169 169 175 168 166 163 137 125 141 164 171 173 182 122 116 91 91 88 106 112 125 121 121 119 120 110 89 72 73 79 97 120 124 127 156 163 141 142 132 124 134 152 162 168 160 161 155 152 152 147 147 146 141 138 137 140 125 123 178 129 122 141 124 101 106 109 108 101 110 100 99 97 103 100 102 86 156 194 196 165 195 163 125 133 142 144 144 154 156 158 165 160 167 164 166 159 147 140 119 128 157 168 170 176 185 146 79 66 50 69 69 94 104 105 106 103 111 91 79 81 74 61 97 124 126 124 137 156 157 155 143 124 125 136 149 154 152 147 148 139 145 136 136 143 145 143 139 142 159 135 158 142 135 143 105 105 104 106 105 107 103 98 100 101 98 102 103 83 134 194 195 178 177 166 128 133 137 140 139 146 154 151 157 160 159 160 158 147 142 127 121 151 169 172 169 174 171 169 101 77 69 78 75 81 92 101 92 97 103 98 94 97 98 111 124 126 129 119 120 142 152 155 154 132 119 124 134 142 146 140 143 138 132 130 134 137 144 142 137 137 160 134 151 153 161 122 97 101 107 104 108 106 104 99 100 102 100 104 99 88 114 182 193 186 185 176 125 134 132 138 137 140 147 148 150 157 158 154 153 147 137 126 146 171 174 178 170 172 168 160 146 105 90 84 91 91 84 95 91 91 102 108 116 111 120 120 129 123 126 125 121 134 151 149 153 148 136 119 115 129 142 143 131 130 128 126 134 136 141 142 137 131 140 142 161 149 161 100 99 106 104 102 109 106 107 100 98 99 103 100 100 97 96 159 182 181 184 189 123 142 134 138 138 140 143 142 147 150 152 151 153 143 128 142 165 169 171 174 170 165 169 161 156 146 117 103 95 93 95 95 93 95 106 105 112 110 115 121 122 129 126 123 120 134 141 146 149 142 158 150 113 115 132 134 131 130 131 125 132 135 142 146 137 135 145 150 154 153 133 98 101 99 107 103 106 105 105 102 101 98 103 99 102 99 86 121 154 164 171 191 134 140 144 139 141 133 138 141 146 143 154 153 155 140 125 167 176 166 173 167 165 160 167 154 157 156 141 128 110 99 96 102 103 100 112 106 109 110 109 118 120 122 121 126 117 130 129 138 150 147 159 163 151 101 123 136 127 126 125 127 127 134 144 143 136 137 143 145 153 137 118 93 104 102 103 104 100 106 100 102 95 101 99 100 97 98 103 94 111 139 145 160 135 135 148 142 139 141 132 143 148 150 151 156 151 131 159 175 181 169 173 165 163 157 167 149 154 156 144 142 132 111 103 107 105 107 109 105 112 102 116 110 119 116 118 120 123 126 139 147 153 166 168 168 173 141 100 135 133 133 132 132 127 136 141 140 138 125 130 136 136 117 93 97 99 101 100 106 102 105 102 100 101 100 101 101 104 97 105 98 96 99 118 119 128 135 148 146 145 136 136 137 157 156 162 156 150 137 180 184 173 172 168 164 161 157 153 145 153 150 142 143 130 121 108 109 110 106 104 106 105 104 112 108 115 111 114 114 120 119 136 138 157 171 171 168 166 159 104 128 134 132 132 132 126 134 140 136 140 100 112 119 108 93 100 96 102 97 100 97 104 101 102 94 102 99 101 100 100 101 98 97 103 96 98 85 113 140 146 140 150 140 134 145 151 161 164 162 138 166 173 176 176 170 169 159 146 152 153 144 154 153 150 153 144 139 127 120 118 115 110 111 109 114 114 120 121 119 122 117 117 117 121 122 135 164 166 170 162 168 124 132 137 131 134 127 128 133 141 132 144 70 91 94 99 90 100 95 97 99 99 102 101 102 101 100 98 95 100 98 101 102 100 100 102 99 101 96 102 142 139 140 148 143 145 146 155 163 164 167 150 178 181 170 177 164 157 153 138 148 143 148 157 160 159 170 169 166 167 149 137 124 124 124 123 124 123 130 127 130 125 120 118 120 120 120 131 163 160 160 154 153 124 149 146 133 135 126 129 131 137 136 143 72 90 92 95 96 89 96 96 95 97 102 100 100 101 98 100 99 97 101 99 103 98 97 101 99 102 96 96 142 139 141 141 145 150 149 157 159 164 167 165 169 179 169 168 158 144 144 139 146 139 140 152 150 146 149 139 146 158 158 146 129 132 126 123 112 113 117 115 117 117 114 121 124 127 114 124 135 137 137 144 147 126 157 156 131 134 131 133 128 137 135 143 72 90 90 93 93 92 92 95 96 96 99 96 99 95 94 99 99 98 98 101 95 101 102 98 99 100 95 98 125 144 131 140 144 150 148 158 163 163 166 165 170 173 163 149 136 130 126 132 127 132 126 124 118 115 106 103 96 105 119 121 122 117 103 94 98 94 102 91 94 92 95 102 102 95 96 102 111 116 125 144 147 134 167 150 132 135 129 133 128 131 144 128 75 88 90 85 94 90 93 93 92 96 94 99 98 97 100 98 98 101 100 98 96 101 99 102 101 99 101 91 124 136 134 136 145 143 152 158 166 168 176 178 180 166 151 125 118 110 100 97 92 100 100 94 95 90 90 86 87 97 96 100 93 91 92 85 84 80 74 67 79 83 80 72 52 61 89 114 124 138 143 157 150 151 170 139 133 138 135 132 128 132 138 120 72 85 86 86 89 90 86 93 88 96 89 95 97 98 101 97 99 100 97 103 96 100 99 100 97 101 100 92 114 129 132 133 141 145 141 156 157 167 174 193 171 165 142 129 119 99 75 63 62 78 87 83 83 87 98 98 106 97 91 91 83 90 83 90 87 93 89 91 98 103 102 91 94 118 133 140 140 153 167 172 159 165 167 134 132 144 134 127 127 131 144 103 74 83 85 86 88 91 87 91 90 93 90 90 92 97 98 97 99 97 98 98 100 100 98 96 99 98 99 95 100 125 129 127 134 148 143 149 161 159 168 185 180 171 160 165 171 160 171 158 143 142 148 158 157 165 184 194 198 185 167 174 152 151 130 124 128 133 127 124 118 122 118 119 137 146 150 161 167 169 178 179 163 167 161 133 136 140 135 130 125 128 144 89 80 85 84 83 86 85 88 88 86 93 87 94 91 97 98 98 99 97 99 98 99 100 94 98 100 97 98 95 96 120 126 125 129 141 150 151 157 161 166 176 186 180 178 174 174 178 186 183 172 170 167 166 162 158 170 175 175 172 168 177 160 163 149 138 135 132 127 124 128 124 130 144 148 154 158 164 171 179 176 173 164 161 148 130 137 135 134 129 129 128 141 79 82 80 82 83 84 85 87 86 84 90 88 88 92 96 100 97 95 95 98 95 96 96 99 100 101 97 99 102 88 111 118 123 128 135 141 148 156 152 166 165 174 182 183 173 171 177 188 184 171 166 171 173 168 163 169 168 172 169 164 165 156 159 149 146 143 137 133 145 144 145 141 153 148 152 159 165 167 169 169 163 168 149 138 136 138 133 129 129 124 130 127 68 80 77 79 83 81 81 85 90 82 87 91 84 91 93 97 98 96 96 95 102 95 100 93 99 96 94 98 99 96 100 109 115 124 125 146 141 146 158 163 162 168 181 182 178 183 183 189 182 174 166 160 165 169 160 170 169 163 160 153 154 161 157 146 146 145 144 137 146 141 146 143 145 156 151 159 174 169 168 167 166 163 143 134 143 135 138 125 123 121 133 106 72 78 79 81 81 81 78 86 79 84 85 86 84 87 91 98 98 97 92 96 98 99 97 94 96 98 90 102 93 98 97 102 110 117 122 135 143 143 154 163 165 169 178 185 182 187 186 190 180 177 172 156 153 149 145 147 140 136 132 128 127 128 133 127 129 124 129 123 121 128 134 136 145 149 151 158 171 169 168 165 166 159 146 138 139 133 132 121 125 117 133 84 71 75 78 75 76 82 79 80 78 84 85 83 86 85 85 96 96 97 97 99 97 97 95 97 96 99 96 98 96 97 97 87 103 106 117 126 138 144 147 156 158 172 177 184 186 185 184 184 177 179 176 160 147 140 134 128 123 119 109 111 112 112 109 110 105 107 111 115 119 130 131 145 144 147 155 156 169 170 167 160 166 145 143 135 138 132 128 116 119 126 116 67 75 77 76 75 82 70 82 78 78 79 83 81 84 81 87 92 99 96 96 98 97 95 99 94 101 99 95 100 97 96 102 93 87 101 103 121 133 135 146 150 151 170 172 179 183 180 184 182 177 176 177 162 151 141 136 131 123 120 116 116 117 112 105 112 114 115 119 125 128 134 136 145 146 158 163 158 170 168 164 164 165 142 137 134 133 131 125 114 121 131 94 67 73 77 76 74 76 76 77 79 75 80 82 77 83 78 84 97 95 94 94 96 97 93 94 97 95 94 94 94 95 96 98 104 78 87 103 107 125 132 132 146 146 165 172 177 175 180 181 180 171 173 169 169 161 150 139 141 136 126 126 129 124 116 115 118 126 131 133 141 138 145 143 144 159 156 161 161 168 161 164 164 156 152 137 134 126 129 123 113 121 125 69 72 69 73 73 76 72 77 76 76 75 81 76 80 79 79 80 95 96 93 97 93 96 98 94 96 95 94 100 92 98 95 97 98 91 79 86 102 115 117 126 132 140 153 163 172 172 176 181 183 173 170 172 171 167 156 155 151 149 136 135 136 133 134 126 131 138 144 147 148 148 154 146 159 166 158 161 164 163 161 162 159 153 146 142 130 129 123 119 116 118 98 63 70 72 76 70 71 76 70 76 74 76 80 75 79 78 81 80 94 95 94 98 92 93 95 92 88 98 92 99 95 96 91 97 98 100 77 80 89 102 105 115 125 130 147 161 169 170 176 179 183 181 176 172 176 166 155 159 158 153 152 150 151 150 154 155 149 154 159 156 153 153 157 160 165 171 157 158 166 160 164 161 159 154 138 136 125 129 118 120 120 110 75 66 70 74 71 73 66 77 67 72 76 70 78 73 81 76 81 78 93 94 93 99 93 96 94 92 98 93 94 93 95 95 94 99 94 102 98 69 81 88 99 112 115 117 139 152 158 166 169 167 177 182 180 169 170 170 157 167 172 173 173 174 174 175 180 178 173 173 178 176 171 170 172 173 173 173 168 164 167 163 160 159 157 144 135 132 127 120 116 117 114 87 64 69 68 72 71 75 71 70 72 71 75 73 73 76 73 79 77 75 97 94 94 99 94 94 94 92 94 95 91 98 95 93 95 96 93 100 98 95 72 71 94 94 107 112 127 140 157 162 171 170 175 179 174 175 177 184 180 180 181 176 178 176 179 187 178 180 182 175 179 177 177 181 183 182 185 177 170 170 164 166 155 151 148 138 130 128 126 115 112 116 97 62 68 71 68 72 71 68 76 67 72 71 71 72 75 71 76 77 76 78 95 93 93 93 95 91 96 92 95 92 94 93 97 94 97 95 98 100 97 106 123 63 80 82 95 103 107 121 147 156 163 161 167 171 173 176 179 184 180 183 187 184 182 183 183 184 177 175 178 174 174 178 181 178 177 185 186 178 171 169 164 169 156 145 138 131 122 121 115 111 107 103 65 66 70 70 67 70 66 70 68 69 67 72 68 70 76 68 72 76 73 73 92 94 93 92 96 94 93 92 95 92 97 92 96 93 96 97 98 95 100 90 154 113 61 75 80 84 85 110 132 149 156 159 160 170 153 173 171 180 176 183 186 186 182 183 185 174 176 175 179 182 176 172 180 177 178 181 182 179 169 160 161 163 152 147 130 124 118 116 100 103 106 89 61 67 65 69 65 70 69 66 72 66 66 68 74 67 71 75 72 73 74 74 92 95 87 99 85 98 91 93 94 93 94 95 94 93 95 98 96 94 97 92 148 136 97 62 72 78 78 87 119 135 153 151 155 167 160 169 177 171 178 184 182 182 186 183 183 175 176 178 178 182 180 170 181 180 180 175 179 178 168 160 160 154 152 137 131 116 114 108 96 93 141 81 61 65 69 68 67 70 68 70 65 70 69 65 69 69 69 68 77 70 73 72 94 93 91 90 95 92 91 97 93 95 93 98 95 94 93 97 98 99 94 96 149 132 121 76 65 69 70 68 88 121 139 152 150 157 156 164 173 173 180 175 173 182 178 176 166 169 167 174 172 183 177 179 173 174 174 167 175 170 164 156 155 154 137 132 124 108 103 83 98 128 149 89 58 64 66 68 64 66 70 67 66 67 68 68 70 69 69 71 69 72 78 69 91 94 88 93 93 88 95 90 101 91 97 96 97 92 96 97 95 103 86 96 152 139 126 87 67 67 65 71 63 95 130 145 149 155 147 155 167 169 172 170 168 176 167 170 166 164 163 169 172 176 173 180 177 176 173 157 156 160 154 139 144 141 127 120 109 98 77 95 128 138 148 86 64 74 66 70 63 66 70 67 64 71 65 68 67 70 66 68 68 69 71 69 92 89 91 95 90 92 94 90 93 89 94 95 94 94 97 94 98 101 80 89 152 138 129 105 73 62 68 65 69 65 97 128 144 142 148 144 151 155 164 164 168 172 166 167 158 152 156 164 168 166 172 170 171 165 153 150 143 138 138 130 133 125 112 111 88 73 93 129 130 134 155 62 33 67 77 70 63 68 70 62 68 72 64 67 66 66 66 68 69 71 68 71 93 89 96 91 89 92 94 89 95 88 94 93 95 95 92 100 95 98 68 98 149 140 124 113 86 71 65 66 69 70 64 100 128 128 136 137 131 147 155 154 158 155 155 156 148 142 146 147 153 152 156 147 148 145 136 133 126 125 120 125 120 115 106 88 69 73 129 127 122 138 151 58 22 39 53 71 77 65 68 64 65 69 64 70 65 64 69 69 64 72 65 73 89 91 90 90 92 88 99 89 94 92 93 92 98 96 91 98 98 92 73 103 148 140 127 121 97 74 74 64 70 67 62 67 97 114 115 125 123 133 138 143 147 149 149 142 132 135 125 135 137 133 134 133 126 121 122 118 119 114 114 111 113 106 88 68 80 105 130 126 126 139 155 54 17 35 40 46 59 86 66 66 62 70 64 65 65 63 66 65 65 67 67 71 92 88 88 88 91 89 93 84 95 91 95 92 96 99 96 94 89 97 57 102 149 146 129 126 107 86 75 74 70 68 64 69 59 84 105 92 106 112 117 118 123 128 128 117 114 119 107 110 111 120 112 113 108 105 108 107 106 108 105 108 96 82 77 84 97 120 123 125 133 134 153 49 17 30 32 31 32 56 79 70 60 62 68 65 63 62 70 67 61 73 64 63 91 89 87 91 94 89 95 89 95 94 95 91 95 97 100 93 87 95 45 101 150 144 135 126 116 95 77 77 75 69 67 67 66 65 77 84 87 88 99 101 101 99 101 102 103 105 97 93 96 100 96 96 93 94 98 93 96 99 96 85 79 76 86 93 110 121 126 130 132 136 151 46 18 27 32 27 29 42 54 85 67 62 62 68 62 66 69 64 68 69 65 70 92 85 89 93 92 90 89 94 90 94 97 92 97 99 92 89 89 83 33 106 149 149 136 133 120 104 86 79 81 73 75 68 72 68 63 68 79 72 78 81 87 83 84 87 88 90 82 84 81 78 86 83 83 83 82 82 81 76 81 76 82 83 93 105 113 121 132 130 138 133 154 44 12 31 26 29 29 31 41 58 84 66 60 66 66 66 62 64 66 69 64 68 87 90 88 90 88 91 93 89 94 93 92 87 81 75 81 90 84 78 25 113 147 149 142 133 129 112 92 87 80 74 82 72 73 71 68 68 71 65 68 71 70 75 74 76 73 73 72 69 72 71 72 76 64 73 68 69 68 73 76 83 87 93 95 111 120 122 131 127 130 129 152 42 14 26 27 26 25 32 39 40 69 87 58 66 62 67 58 66 65 62 67 59 88 85 91 90 87 89 94 85 89 81 74 64 69 66 78 93 84 71 22 118 142 146 145 137 133 118 105 90 81 76 82 76 76 67 76 71 73 63 67 67 67 67 68 67 67 67 65 66 64 67 71 66 64 69 64 73 74 78 83 86 91 98 101 118 116 123 131 128 125 133 151 41 12 18 29 20 26 37 28 37 43 82 80 59 65 60 64 63 69 59 67 58 