P2
92
112
255
118 123 120 117 121 118 124 119 121 121 119 121 120 122 122 124 121 122 120 127 140 147 139 161 157 146 158 164 150 149 146 136 144 138 127 131 134 126 125 118 116 112 101 100 109 105 94 91 93 101 106 114 101 94 114 116 119 116 117 125 123 117 115 115 115 122 119 114 118 120 124 119 127 122 117 116 117 114 115 116 114 115 113 115 114 112 116 116 114 113 115 113 120 123 119 120 122 118 121 118 121 121 120 120 122 131 138 128 120 129 131 133 139 143 155 162 140 150 164 154 156 165 160 151 153 145 140 131 128 118 113 107 113 109 94 99 103 91 90 83 81 89 96 106 102 90 102 114 121 116 113 126 125 117 118 115 119 118 118 113 118 111 126 118 123 122 121 119 118 115 114 115 116 115 112 116 116 114 114 112 114 114 114 112 119 124 119 123 122 121 122 118 120 126 120 122 118 121 122 120 128 129 125 122 140 143 154 139 142 177 171 166 179 189 167 163 147 143 136 124 122 120 102 100 109 90 98 99 89 92 82 73 71 81 85 94 98 83 93 106 103 115 114 126 125 116 118 113 117 115 116 118 115 118 119 123 120 117 117 118 115 121 115 114 118 114 114 116 114 113 118 113 112 115 113 114 123 122 121 120 122 122 121 120 117 123 118 121 124 113 118 131 135 130 125 131 142 146 136 160 177 171 163 168 166 169 157 156 139 132 114 110 114 121 100 97 93 89 96 86 85 93 83 85 88 86 96 90 96 98 88 93 90 90 112 111 119 127 120 114 127 115 114 114 116 119 127 121 119 117 118 115 115 118 115 113 116 115 114 114 116 112 115 112 113 114 114 114 120 122 121 120 120 123 121 120 117 134 122 122 120 115 116 126 124 124 126 130 149 152 155 176 168 152 166 168 151 132 120 127 114 119 119 101 102 131 98 99 106 89 93 104 102 94 93 88 108 105 100 98 106 107 110 107 101 97 97 90 114 104 113 113 123 122 111 116 117 119 122 117 119 120 121 115 116 114 117 113 116 115 112 114 113 116 115 111 116 114 114 112 120 121 124 119 123 118 117 120 120 124 115 114 117 118 128 125 122 128 143 135 146 153 148 160 148 151 155 137 126 117 112 110 100 115 140 118 110 127 112 105 109 101 105 106 102 97 99 100 103 100 102 110 111 122 125 124 125 123 111 110 114 71 91 106 109 129 112 120 120 121 115 119 115 116 116 117 121 119 117 118 115 115 114 114 114 113 116 112 113 112 113 114 119 120 124 121 119 118 121 122 121 122 112 118 116 128 128 122 130 123 138 132 139 152 163 169 164 155 158 139 130 128 127 116 105 108 111 116 108 124 109 90 107 107 97 102 98 105 95 104 109 102 98 110 102 107 113 113 116 119 123 125 116 109 100 102 103 112 114 116 116 114 112 109 119 115 124 120 119 120 113 122 116 115 115 114 118 114 116 115 115 115 114 111 123 121 122 122 119 123 121 123 121 116 120 120 125 131 125 129 135 134 123 154 189 180 181 166 151 136 135 115 112 107 115 119 111 114 99 106 110 118 99 87 112 109 101 106 107 110 111 115 102 93 90 106 93 99 101 112 104 103 119 118 123 129 122 130 104 109 117 106 113 111 107 113 119 114 124 120 117 118 111 117 117 114 115 113 117 119 116 117 116 114 116 112 120 123 122 124 121 119 121 123 116 115 130 128 127 118 123 138 144 150 172 188 187 161 164 143 124 114 112 103 100 98 107 104 111 119 134 113 119 113 100 94 118 114 103 109 117 118 133 123 106 99 103 102 103 110 108 105 109 113 119 129 137 136 136 134 135 126 133 117 109 110 103 109 117 119 113 112 113 121 112 115 119 122 114 115 114 116 115 114 115 116 113 115 118 120 121 122 118 121 121 123 120 121 126 128 120 118 135 138 152 161 154 168 168 153 150 134 132 121 111 114 107 104 109 111 112 126 122 127 119 122 113 113 127 125 118 126 132 127 130 126 122 116 111 105 106 113 111 105 103 104 103 118 118 123 125 129 131 141 144 135 124 119 109 106 113 116 123 115 111 118 122 117 118 122 120 117 119 115 115 116 115 117 116 115 121 119 123 121 122 116 125 123 123 121 124 130 130 130 146 148 152 156 163 181 166 140 129 133 124 119 116 103 104 107 112 116 128 128 129 125 120 129 126 131 139 142 130 135 142 134 136 136 131 126 122 112 105 105 110 106 99 93 92 98 105 107 107 109 117 122 137 139 135 133 137 109 112 112 118 111 109 117 118 120 127 125 117 127 118 118 116 112 115 112 119 113 118 122 117 125 119 123 124 122 121 126 133 135 137 151 148 145 154 175 191 189 144 121 104 106 93 105 104 101 111 120 121 128 135 133 133 130 136 135 147 146 156 161 152 150 152 152 155 150 129 136 140 131 117 116 127 117 110 113 102 88 93 94 109 85 119 116 117 134 138 133 142 144 123 104 115 111 113 112 109 128 127 129 121 124 130 119 121 116 117 112 116 117 123 122 120 121 118 131 128 120 125 128 130 136 140 162 150 155 154 178 197 163 129 102 99 109 91 115 107 119 123 134 132 140 142 136 139 148 146 147 158 164 162 169 167 165 162 164 168 165 151 146 148 150 136 128 138 130 125 125 125 115 106 93 111 93 95 123 116 128 133 141 146 142 146 130 120 116 114 110 116 123 118 127 130 128 130 130 118 119 122 111 116 112 121 122 124 121 126 131 128 119 123 134 122 135 159 138 155 151 148 186 173 133 101 111 106 110 98 108 122 131 140 147 148 153 155 152 155 156 167 163 171 170 178 177 176 175 175 173 178 178 168 166 158 158 153 147 144 139 129 136 127 135 126 117 111 112 78 112 123 120 124 138 135 142 136 146 140 128 114 120 126 131 121 119 131 128 129 134 128 118 122 116 113 120 121 122 122 121 125 120 120 123 138 142 115 157 147 146 161 148 162 181 142 96 118 123 110 116 112 124 141 153 158 168 169 173 170 176 170 167 170 178 183 179 185 185 183 184 187 184 181 185 182 183 177 163 167 168 151 150 140 136 136 134 136 127 122 119 86 101 106 124 121 127 132 130 140 140 136 156 126 124 131 136 134 123 122 125 130 127 130 125 125 112 113 118 124 120 121 127 122 118 132 133 129 134 137 150 149 160 149 143 170 166 118 98 120 114 106 121 121 146 157 163 171 179 178 175 169 175 174 176 182 184 185 185 188 188 189 192 192 192 191 191 190 191 189 184 176 175 174 165 164 148 142 140 140 136 128 116 109 92 93 102 125 125 124 135 135 137 139 139 148 129 130 126 130 129 123 134 137 125 125 123 122 116 110 116 121 121 122 127 117 124 133 140 136 131 131 157 155 152 142 135 161 138 103 116 117 109 109 132 139 156 168 170 181 185 181 178 176 176 183 186 191 189 187 189 192 192 192 195 197 196 198 198 197 197 196 195 190 185 186 185 179 172 164 151 153 141 139 129 122 106 100 93 104 121 142 135 137 131 134 135 145 152 135 119 116 125 135 129 125 130 125 131 123 109 111 116 122 122 120 120 126 136 149 141 125 125 143 160 151 144 122 144 152 133 118 106 110 109 121 120 151 165 175 177 187 188 187 184 186 186 192 193 193 194 193 194 200 188 192 200 201 201 200 200 201 199 196 196 196 195 194 193 192 184 183 175 171 165 153 149 135 126 99 112 94 109 120 145 150 139 135 128 135 153 150 131 125 117 124 128 126 123 128 127 122 107 100 116 128 126 124 129 162 141 113 107 118 142 152 143 138 113 111 149 144 125 107 104 112 97 117 125 157 174 182 182 195 194 189 190 188 192 193 195 197 198 200 200 201 190 196 201 202 200 201 201 200 200 197 199 196 198 198 198 197 191 191 189 184 181 176 164 159 140 116 121 95 122 94 122 150 144 142 132 134 135 160 144 140 143 117 122 124 122 127 132 117 123 97 108 135 135 137 143 118 102 98 121 134 138 131 137 116 125 146 163 139 110 118 108 106 104 111 137 156 184 185 187 195 193 190 192 194 191 191 197 199 202 202 206 204 197 199 202 202 201 198 199 199 201 197 196 198 199 198 198 199 197 196 194 192 191 187 185 177 156 142 131 133 107 117 89 118 141 148 141 129 147 136 164 131 145 141 133 116 128 131 127 126 119 108 93 138 138 131 116 100 117 125 124 132 123 115 140 129 153 153 154 144 116 113 111 102 102 97 148 162 184 182 189 197 194 190 196 195 188 192 197 202 201 204 206 203 201 200 202 201 201 201 201 199 200 200 200 198 200 200 199 201 199 197 195 197 192 191 194 186 175 153 143 146 111 124 118 100 119 130 137 137 143 147 146 155 113 129 130 136 137 130 129 124 118 106 96 132 128 116 107 116 150 140 131 133 130 138 153 174 170 147 149 138 124 112 108 108 103 96 157 177 180 185 191 195 193 194 198 196 192 199 200 200 203 203 206 201 202 200 201 201 200 201 202 200 202 198 200 197 200 198 200 200 198 197 199 194 194 193 197 192 184 171 147 150 133 116 123 119 108 121 118 133 141 157 139 171 139 105 114 121 142 145 128 127 133 99 106 133 124 103 103 129 178 184 171 165 148 151 185 180 169 141 147 134 117 112 109 117 121 102 154 183 179 191 195 195 193 193 201 199 201 202 201 201 203 204 204 203 200 200 203 202 201 201 202 201 201 201 200 200 199 202 198 201 198 199 196 194 193 196 197 191 188 180 167 148 140 119 123 121 123 138 135 128 132 142 167 161 184 137 117 117 111 136 161 130 137 129 108 102 100 91 109 153 198 192 183 130 134 197 205 195 167 138 140 125 117 111 106 111 133 114 156 184 188 192 197 195 195 198 200 201 202 204 201 205 202 205 205 204 203 202 202 202 199 202 202 200 201 202 201 200 199 200 199 201 199 197 198 190 191 198 199 190 189 181 175 160 152 121 109 109 115 131 152 135 129 132 156 173 168 170 138 128 109 90 140 144 120 113 115 86 90 100 119 140 146 142 114 124 200 207 210 199 166 114 129 134 129 118 108 116 137 131 159 184 192 195 191 197 199 200 200 202 203 203 202 204 203 205 204 201 204 203 202 202 202 203 201 200 203 202 201 202 200 200 201 201 199 200 198 193 193 195 193 195 190 185 178 175 152 143 107 111 100 125 136 146 136 131 145 174 179 174 159 148 126 105 92 131 131 114 94 87 98 106 100 117 125 113 120 168 192 203 203 165 131 119 119 137 119 127 120 122 140 147 163 186 193 195 188 198 199 198 201 199 203 203 205 203 202 205 204 200 203 203 202 202 202 203 200 202 202 202 200 201 202 200 199 201 196 198 200 195 196 193 191 193 189 186 181 183 163 151 117 111 102 115 133 132 142 142 139 161 180 178 167 158 140 134 105 96 116 117 90 102 105 91 88 115 114 126 141 166 179 166 163 144 123 134 125 127 125 130 126 134 144 153 165 186 193 194 191 195 199 198 200 201 203 204 204 202 201 203 204 202 202 202 203 203 202 203 202 202 201 201 202 200 200 199 201 199 197 198 200 198 196 193 192 191 190 188 182 184 173 150 131 117 95 119 133 136 125 146 149 153 171 166 160 147 127 132 113 98 95 118 87 104 101 80 104 117 151 153 129 157 155 118 140 166 166 149 128 133 129 125 128 156 150 155 166 187 195 194 191 199 195 199 200 200 201 203 203 203 204 202 205 202 204 204 202 204 202 203 202 202 202 203 202 201 199 200 201 198 197 198 198 200 196 194 189 193 190 188 184 185 181 154 138 126 108 97 129 153 127 139 154 166 157 171 147 137 135 112 109 94 91 99 109 100 85 83 113 125 129 126 124 149 123 111 156 170 154 147 140 112 106 121 132 160 157 165 166 185 197 193 194 199 195 196 201 199 202 201 201 204 203 203 203 203 202 205 203 203 203 203 202 202 203 201 201 200 199 200 200 199 199 197 197 199 195 196 187 192 192 188 186 186 180 163 136 122 122 92 102 142 131 136 146 171 164 147 158 126 129 122 109 92 76 75 109 92 73 96 113 113 122 117 128 136 100 134 126 119 131 128 105 99 107 129 148 159 160 170 171 181 196 196 194 197 198 197 201 201 202 202 202 203 203 205 203 203 203 203 203 205 203 204 202 204 202 203 201 201 200 199 201 200 197 199 199 196 196 195 189 193 190 192 186 183 179 162 146 123 112 119 90 117 137 129 148 164 177 145 140 136 119 120 109 104 85 72 98 72 81 101 106 114 115 114 135 121 115 119 96 115 122 107 107 109 117 137 151 157 160 171 176 183 197 196 193 196 199 198 202 197 199 202 202 202 203 204 203 205 203 205 202 204 204 203 203 202 202 201 202 201 200 199 198 201 197 196 198 197 195 194 193 191 192 188 187 177 177 164 145 132 105 112 113 82 124 138 141 169 178 163 126 126 112 105 105 90 89 83 94 76 78 97 108 119 111 116 132 112 114 103 101 106 113 111 116 128 142 143 155 156 158 173 171 180 191 195 191 195 196 196 200 197 198 202 202 201 203 200 204 203 203 205 204 203 205 204 204 204 203 201 201 201 201 202 199 201 199 195 194 197 195 196 192 192 193 187 184 176 170 163 146 127 121 84 110 100 69 118 144 160 181 153 137 107 114 112 95 84 85 81 102 82 75 91 113 128 107 116 130 114 102 95 109 98 117 105 127 139 151 148 156 162 164 166 166 177 192 191 193 196 195 197 200 201 202 202 201 201 205 201 203 204 202 204 204 203 204 205 203 205 202 203 202 201 202 201 198 200 200 195 196 195 195 193 194 192 190 185 179 178 169 159 145 130 123 98 85 100 85 58 139 154 156 152 138 114 101 109 96 85 87 84 97 79 78 86 112 137 107 109 126 100 86 99 99 95 113 103 134 146 152 153 160 165 168 179 185 185 192 193 193 196 198 197 201 202 203 204 201 203 203 205 203 202 204 204 204 204 205 205 205 203 205 203 201 201 202 201 200 195 197 198 197 195 197 191 192 192 190 186 178 176 159 158 141 131 118 110 81 73 96 80 84 137 146 142 132 120 97 97 99 89 94 95 89 86 72 75 115 134 108 110 122 90 91 93 89 95 123 113 130 146 156 154 164 163 170 185 190 189 191 193 195 197 198 193 200 204 204 205 203 204 203 206 203 203 205 204 205 204 205 207 206 202 205 205 202 201 202 202 205 196 194 199 200 194 197 193 192 192 190 184 174 173 162 153 138 133 121 110 90 65 75 87 75 105 137 145 126 121 95 90 102 96 92 104 88 77 83 61 117 133 102 116 120 87 91 83 91 106 122 113 137 149 157 152 162 164 172 189 187 192 192 194 194 196 193 199 201 203 205 204 206 203 203 203 202 202 205 206 204 205 204 206 205 203 205 203 205 201 201 203 202 200 192 199 200 196 193 194 193 191 192 179 173 172 164 145 137 137 129 115 95 67 62 69 74 90 105 136 125 114 101 81 110 88 99 102 86 73 85 76 105 134 109 114 130 91 80 82 97 107 125 115 140 153 152 151 160 171 182 190 191 186 191 193 193 194 197 199 203 203 207 203 203 205 203 201 202 202 204 203 205 204 207 204 205 205 203 203 203 202 203 201 202 201 194 199 201 197 195 193 192 195 191 181 174 164 160 154 142 135 132 120 101 64 63 54 62 86 110 114 124 109 102 87 97 96 106 94 93 81 83 81 104 130 116 110 141 102 80 82 98 109 123 119 146 157 141 152 165 174 186 192 192 178 189 193 193 197 198 201 203 203 206 203 204 205 205 202 203 202 204 203 203 206 205 206 204 206 205 202 202 201 201 202 203 199 201 200 199 195 194 192 193 195 190 182 172 160 151 155 144 137 127 125 99 68 57 54 46 55 108 117 117 103 101 86 88 100 96 90 101 97 73 74 94 124 127 116 137 133 82 84 104 111 123 124 147 157 146 152 163 181 188 187 187 186 188 192 193 199 198 202 201 204 204 205 205 205 205 204 202 203 206 204 203 205 206 204 203 204 207 204 203 201 200 202 203 199 199 197 197 194 193 192 193 191 192 178 172 167 155 155 142 140 129 128 98 76 52 59 31 52 69 126 116 100 99 89 85 95 80 97 109 112 81 84 71 122 123 126 145 152 121 88 104 123 116 132 148 154 149 156 172 184 184 180 180 186 185 190 189 197 196 200 199 202 202 204 204 207 206 205 201 203 207 204 204 203 206 203 203 202 204 206 203 202 202 202 202 199 196 194 196 193 192 190 192 189 192 179 171 166 161 155 145 141 133 132 104 78 59 63 29 52 54 110 118 97 95 88 78 86 89 100 111 114 98 89 64 96 125 125 157 156 157 117 108 128 117 131 153 151 148 162 179 184 171 176 175 181 182 184 188 193 194 196 200 196 201 202 199 203 205 205 202 205 203 204 204 202 204 203 203 203 205 202 203 202 200 202 203 194 192 193 189 188 187 188 186 188 188 180 173 170 160 155 146 138 134 132 119 83 65 59 38 58 55 93 117 95 91 90 77 87 92 107 114 110 108 102 87 74 117 129 108 123 151 165 142 123 123 129 146 150 147 162 171 175 166 160 171 165 169 176 182 190 190 192 197 193 193 197 200 199 199 203 201 201 201 203 201 203 201 201 201 200 198 202 202 198 197 198 199 191 184 183 179 177 167 180 172 178 182 181 176 167 163 159 151 137 135 135 122 94 73 53 43 55 59 92 104 104 91 77 79 81 73 118 114 109 107 102 94 63 76 123 128 105 113 142 166 165 166 154 164 163 159 160 168 162 161 150 151 152 159 162 169 181 182 183 190 191 189 194 194 196 198 200 197 200 200 199 198 201 200 199 200 195 196 199 196 194 195 194 191 179 179 177 161 163 154 170 173 165 177 178 168 164 164 157 151 136 138 129 125 109 73 54 42 63 57 97 99 98 88 83 72 60 82 114 111 108 102 101 103 72 30 79 125 114 108 108 121 140 138 144 147 137 144 140 139 152 145 135 130 128 132 142 133 154 153 157 169 180 185 187 193 194 194 196 196 197 199 196 196 196 197 193 193 193 194 196 190 186 191 178 174 163 166 154 140 148 151 152 153 152 161 162 157 157 151 146 148 143 136 131 126 124 82 55 55 63 59 98 95 85 85 89 71 59 95 110 112 108 102 98 103 88 39 38 57 105 130 129 124 116 118 117 118 128 127 128 131 128 128 119 109 108 111 109 107 110 123 120 123 147 163 171 186 189 191 192 193 196 196 198 192 189 192 192 189 188 189 186 181 175 169 156 151 138 136 125 114 124 123 128 130 140 138 138 137 137 134 131 131 138 138 134 127 133 98 66 59 68 66 100 86 79 84 87 82 56 104 110 114 103 96 102 94 89 56 54 47 60 98 124 136 127 121 131 124 133 140 138 139 139 123 120 107 100 97 93 90 97 103 109 106 118 135 144 159 177 184 187 195 195 194 194 192 190 190 190 187 174 174 174 160 148 136 128 125 119 112 109 96 105 111 116 118 126 127 131 124 132 129 131 122 129 129 132 133 130 118 77 68 73 85 104 84 78 83 77 80 65 109 107 112 99 98 97 97 86 55 57 50 77 90 111 114 110 107 120 122 133 141 144 138 143 133 132 119 112 104 93 97 96 91 100 100 105 121 122 139 162 174 177 188 191 193 194 191 191 190 183 176 163 157 154 144 123 106 107 107 103 100 101 100 97 112 125 132 137 141 147 141 143 140 131 123 119 122 137 133 135 122 87 73 82 85 98 83 85 83 76 86 89 101 110 112 97 96 93 98 96 50 41 54 91 85 117 107 97 113 116 119 124 129 131 126 125 112 109 101 94 94 91 83 81 88 98 105 101 116 115 133 152 163 177 185 189 191 196 194 194 189 176 167 152 141 132 122 111 101 102 100 97 95 96 99 99 110 115 121 132 140 145 148 146 148 136 133 121 120 131 138 137 114 92 68 93 90 92 81 79 71 75 83 89 101 107 107 97 96 92 98 99 50 45 57 82 79 121 103 92 109 113 119 117 118 107 100 88 98 94 93 79 77 90 97 92 69 70 94 105 104 108 123 140 153 175 187 194 195 196 198 195 192 165 154 141 130 115 113 108 101 97 83 84 90 93 95 97 98 104 96 102 113 125 138 136 143 140 137 124 122 125 135 140 118 95 61 77 94 88 76 62 66 53 86 104 105 108 104 96 92 89 99 111 63 43 59 73 85 125 103 92 116 109 117 117 96 83 89 76 109 140 96 58 62 62 70 115 108 99 77 85 101 106 109 124 141 170 193 200 201 201 197 200 186 164 141 128 110 110 105 102 87 93 94 112 97 75 65 64 65 91 96 93 112 94 109 130 132 136 132 131 123 123 126 138 120 93 66 66 76 85 61 34 58 65 94 104 106 105 109 97 90 96 117 134 75 44 67 66 91 128 102 98 125 113 117 115 84 77 82 100 161 166 97 57 126 125 57 119 149 114 107 114 91 102 115 121 129 176 198 201 203 202 202 200 190 161 131 123 115 112 104 106 108 110 107 155 104 52 110 102 85 69 139 99 75 116 87 105 129 136 132 135 125 119 127 134 118 90 58 66 81 61 57 47 61 85 97 102 104 105 107 95 88 112 121 127 113 45 70 67 90 132 109 109 129 123 120 116 91 68 86 125 178 151 80 74 35 88 70 109 183 151 102 123 138 98 108 132 127 179 197 204 204 202 201 199 192 159 138 133 125 110 134 130 107 118 138 186 99 73 57 108 76 48 150 158 79 82 104 99 124 129 135 141 132 121 132 126 115 92 67 65 77 54 45 60 75 87 97 98 105 106 106 89 97 113 76 93 129 76 51 77 101 131 119 135 139 132 124 115 83 99 114 134 167 170 87 105 92 94 84 155 184 176 167 96 151 131 108 143 148 174 195 202 203 200 200 196 187 148 145 156 125 148 154 125 106 140 168 203 110 107 67 58 85 82 150 165 128 81 85 115 130 127 134 142 140 126 134 123 117 96 84 68 68 60 63 67 80 99 93 95 104 107 108 88 98 108 55 40 113 92 52 79 106 136 131 148 161 143 124 124 112 107 138 153 161 175 133 97 108 106 117 175 168 142 154 139 143 149 120 163 161 172 192 202 201 200 196 196 182 142 147 161 143 174 154 143 136 137 151 181 160 96 99 95 83 120 165 153 147 123 101 116 131 139 137 148 147 135 138 124 124 103 89 76 71 46 82 104 116 137 125 105 96 105 102 83 106 110 66 57 60 107 69 72 118 140 151 159 175 165 149 155 143 114 138 155 168 180 182 184 171 179 178 177 172 158 158 163 158 142 152 177 165 170 195 198 203 198 196 200 177 141 150 165 150 168 180 170 163 150 153 159 161 148 131 121 121 152 159 144 154 138 134 146 133 138 147 155 153 141 141 133 130 110 83 91 67 68 110 126 132 143 148 128 96 102 103 80 113 112 66 73 58 83 86 65 128 144 158 176 178 174 170 168 158 133 135 158 167 169 158 167 167 169 169 168 164 157 158 154 149 160 176 179 156 171 194 201 197 198 197 197 166 139 158 170 164 152 163 163 166 158 157 159 159 161 157 156 143 155 162 156 161 152 156 168 162 159 161 162 158 152 144 137 141 108 85 76 74 113 127 130 122 123 123 126 111 97 104 81 118 119 88 82 72 87 88 78 127 150 160 185 183 177 169 178 170 152 148 154 165 171 166 165 168 165 166 169 168 169 171 167 162 174 185 174 155 174 192 199 194 197 197 196 165 141 157 174 174 163 149 146 156 155 156 164 161 165 170 172 169 172 174 167 167 165 169 169 173 169 164 164 163 152 147 142 146 108 77 74 96 134 127 120 93 70 69 99 109 104 103 72 136 122 111 103 89 119 94 72 136 150 160 182 189 177 177 180 181 172 170 166 172 176 179 176 186 183 179 184 179 182 183 178 172 178 187 167 158 177 190 199 194 194 196 194 171 144 162 173 179 176 175 163 164 161 166 167 169 169 178 168 169 181 178 179 178 174 176 177 171 172 164 166 169 158 158 143 150 115 72 67 122 135 110 97 94 91 74 96 118 98 103 74 134 127 122 113 112 133 112 98 134 155 170 181 182 181 180 182 186 181 183 180 186 189 191 190 193 189 190 194 192 189 188 183 175 179 179 160 164 180 191 199 196 193 198 193 173 154 167 174 175 180 184 185 183 178 177 185 182 180 186 179 181 185 188 182 186 181 187 186 177 174 170 169 170 165 161 147 152 129 76 85 137 116 97 126 131 126 92 123 120 97 104 69 124 133 131 124 122 137 134 119 132 155 173 176 179 183 188 185 186 186 188 188 187 193 194 194 196 194 197 198 198 189 191 188 179 178 176 157 166 183 191 198 196 196 197 195 178 164 168 173 177 181 187 188 192 191 189 195 190 187 190 188 190 190 193 192 190 188 190 192 185 181 176 169 168 170 162 146 148 147 85 105 140 95 141 147 145 128 104 121 134 91 102 75 90 143 136 140 124 135 122 120 135 151 171 175 182 188 186 188 187 190 192 190 194 194 198 197 200 199 199 201 197 191 191 189 184 179 170 158 173 186 192 195 195 194 195 196 183 171 167 175 176 183 189 191 188 193 196 194 195 197 198 195 194 195 195 199 194 192 192 190 187 182 185 171 171 167 160 143 146 147 103 117 119 126 167 158 152 126 108 126 149 91 100 86 69 123 156 152 124 131 105 116 131 147 170 173 185 186 186 183 194 192 194 195 197 197 201 199 202 201 202 198 196 194 191 190 180 178 163 173 179 191 193 197 196 197 194 196 190 175 169 172 180 182 192 187 194 186 193 197 196 199 199 200 198 196 195 195 197 196 192 192 187 182 185 176 171 169 158 144 137 146 114 111 129 154 168 155 149 126 118 127 159 105 95 89 74 87 163 157 131 129 100 107 131 144 164 173 180 186 180 183 193 192 195 197 199 196 201 200 200 201 199 199 194 194 194 184 177 169 160 176 185 195 198 200 198 194 196 195 190 187 163 166 180 185 187 180 185 192 191 195 198 201 197 202 198 196 194 192 196 198 193 188 189 173 164 177 164 166 158 138 134 147 119 97 146 172 165 149 151 125 120 131 159 106 94 87 78 61 154 161 134 137 104 96 125 146 158 165 173 181 178 185 192 187 186 194 198 196 198 200 201 200 200 196 195 194 194 180 170 161 163 168 187 197 203 203 200 195 192 190 191 182 166 150 171 180 187 188 183 195 198 198 199 201 200 201 195 196 195 191 194 191 196 150 186 177 167 171 162 163 158 136 136 138 117 59 82 138 144 144 147 123 124 144 147 107 92 85 87 55 140 169 139 147 120 98 116 149 156 167 174 178 177 183 188 190 188 192 196 195 195 197 200 199 199 196 196 196 187 175 158 160 163 171 187 201 202 202 201 195 193 191 184 184 171 158 163 170 190 189 190 196 198 197 199 199 202 200 196 194 196 192 192 190 188 142 176 175 172 166 155 161 152 135 136 130 116 89 91 124 138 141 143 124 128 147 144 94 95 82 83 60 116 177 142 157 137 110 105 146 157 167 171 170 181 181 184 190 189 192 193 196 193 199 200 197 198 196 193 194 193 165 159 162 161 173 187 199 197 202 201 199 195 184 179 173 171 161 173 161 178 188 188 194 197 191 200 201 198 201 199 196 195 192 191 188 188 173 177 177 169 159 151 160 149 136 133 117 158 121 104 123 132 145 144 125 128 157 125 93 101 86 80 67 95 185 141 166 143 132 98 143 155 165 170 170 179 179 182 190 187 188 192 194 193 196 198 198 202 198 196 196 187 160 161 158 147 158 181 189 194 198 203 196 184 170 154 156 162 161 173 168 155 183 195 195 197 194 198 200 199 200 196 192 193 188 189 190 186 181 181 176 165 158 152 151 150 127 131 106 179 151 121 121 127 143 150 118 142 154 99 102 105 83 85 69 80 181 144 162 146 146 98 139 154 157 167 170 177 182 181 187 188 186 188 190 194 192 195 200 201 195 193 196 182 162 156 153 135 124 156 182 186 188 191 184 159 144 135 148 159 156 166 167 145 172 197 193 197 196 198 199 200 195 194 193 188 186 187 182 184 180 178 172 159 155 146 148 149 124 128 100 180 159 140 128 133 146 147 120 156 129 96 102 102 88 81 79 71 165 159 154 162 146 104 124 150 155 155 165 172 176 182 183 185 183 182 186 189 189 193 199 198 193 190 194 181 159 145 141 134 113 128 164 171 174 171 160 140 134 135 141 146 148 158 163 138 166 190 193 194 197 196 196 198 195 191 191 190 181 183 178 175 182 174 169 158 152 144 148 140 130 115 112 172 158 163 139 135 155 140 122 161 106 92 103 106 81 82 86 57 146 169 135 151 156 126 108 146 153 152 161 168 172 175 177 183 182 178 184 187 187 194 194 193 194 193 191 178 141 132 113 99 99 116 139 146 151 148 145 136 122 100 99 109 134 145 149 133 166 191 185 191 198 197 195 195 194 188 187 187 184 179 180 178 178 168 162 150 151 143 148 137 128 115 118 165 158 169 142 140 160 128 144 137 90 103 104 106 83 83 87 57 114 190 141 124 159 144 98 139 139 155 149 165 164 168 175 182 183 179 183 186 186 194 194 191 195 191 194 186 128 113 89 63 41 79 116 127 126 124 125 117 83 53 50 65 105 129 127 134 175 185 175 185 197 197 193 190 193 187 186 186 181 176 173 171 171 162 155 151 146 143 144 132 126 112 124 157 156 166 140 147 159 122 158 112 95 103 107 108 81 86 84 65 79 178 184 142 147 160 92 130 137 140 144 148 165 165 171 181 183 178 183 185 186 190 192 191 191 193 196 193 157 101 102 77 69 69 86 104 106 96 109 91 107 114 101 92 102 106 115 159 173 189 173 187 193 185 178 191 185 186 184 184 179 176 169 167 158 155 148 145 148 145 142 128 127 114 138 138 149 145 147 162 136 141 150 94 99 103 106 106 86 82 80 75 63 161 187 176 130 164 99 125 134 145 142 147 159 162 171 177 177 178 182 186 188 186 191 190 190 193 192 192 182 119 96 88 91 89 80 94 101 95 108 118 139 143 131 119 119 124 149 171 178 189 177 187 191 186 184 189 189 182 181 179 171 168 163 159 148 149 137 140 146 144 133 130 125 111 144 126 155 151 155 147 125 155 131 89 101 104 105 107 83 83 82 81 43 150 185 189 143 150 109 116 130 143 140 143 149 155 163 175 174 178 181 186 186 189 189 192 191 193 191 192 188 172 148 137 128 110 102 102 110 120 136 151 163 152 147 160 160 163 169 164 170 186 188 189 188 193 190 187 190 185 181 174 168 164 161 153 144 145 142 129 145 142 133 123 127 117 146 133 170 168 132 132 148 157 99 95 104 105 108 102 82 79 83 77 53 119 179 188 157 153 112 112 125 136 136 142 141 154 161 169 175 175 184 183 186 193 188 189 187 191 186 185 172 176 175 162 161 154 136 142 149 148 157 155 158 157 157 156 159 153 165 161 159 178 188 190 189 186 190 189 186 180 176 172 168 164 154 151 148 141 148 141 143 140 127 126 125 115 160 169 167 159 134 155 166 121 94 97 104 104 108 105 83 81 80 82 59 96 170 180 162 168 115 111 126 125 136 142 143 146 158 165 171 179 179 188 188 196 189 185 184 188 178 178 170 172 175 164 170 163 158 147 155 147 156 156 156 154 153 158 160 158 163 162 163 174 183 190 189 185 191 189 186 183 174 174 165 159 148 146 145 140 147 148 140 135 125 124 121 116 161 168 149 146 159 164 147 106 90 101 100 105 105 105 81 80 79 80 76 64 139 166 152 158 132 107 130 133 136 143 141 146 157 164 169 176 185 186 189 195 186 177 178 178 173 174 173 167 173 166 172 177 169 166 159 155 153 153 159 157 154 156 155 157 166 162 165 172 184 186 186 184 191 191 185 185 179 169 161 156 150 146 140 143 147 141 140 128 124 126 113 133 151 152 148 163 162 164 120 91 98 100 103 106 106 108 81 78 78 78 80 66 89 131 133 136 136 103 129 135 137 137 145 138 153 163 162 175 182 186 189 191 182 170 174 168 168 168 166 163 172 169 166 176 165 165 165 159 146 154 152 149 155 157 158 157 162 164 165 170 173 185 175 177 190 192 189 184 178 166 164 159 148 149 144 141 147 143 136 131 123 125 110 148 153 155 160 169 164 142 93 90 98 102 104 104 103 110 84 78 78 80 75 78 70 88 115 115 115 107 127 136 136 133 142 142 146 165 168 170 177 186 190 182 175 164 170 165 166 168 162 161 170 164 170 170 171 163 166 163 151 148 150 156 150 153 154 155 159 161 164 162 168 177 177 180 187 191 188 183 180 163 163 157 151 150 140 146 143 145 134 129 123 122 115 151 150 157 161 159 158 109 87 97 99 102 102 106 103 109 81 81 78 78 75 78 74 81 74 86 75 106 130 132 135 142 134 140 143 159 170 174 180 185 186 176 167 163 163 164 160 159 151 157 172 169 173 176 177 171 172 175 161 151 155 156 162 162 151 152 154 154 157 167 171 172 179 181 176 184 190 185 179 170 162 151 149 142 140 147 145 144 131 124 130 120 114 142 146 150 148 152 116 93 88 97 96 102 100 105 105 106 85 80 75 79 76 78 80 77 76 80 59 105 122 131 130 145 136 134 142 157 165 175 175 185 174 174 164 158 165 159 144 160 157 165 171 175 184 187 192 188 192 185 178 173 177 176 177 177 167 165 155 157 152 159 168 167 178 182 169 180 182 183 177 168 160 155 148 143 140 149 140 138 131 118 131 124 94 124 136 135 130 112 94 87 92 95 98 101 98 103 104 106 86 81 75 79 77 80 78 75 78 82 64 93 123 130 130 138 140 134 140 150 163 171 177 179 175 159 167 161 162 157 140 155 157 166 179 180 179 177 192 194 194 193 191 193 187 174 176 179 178 170 160 158 153 155 155 156 169 176 166 176 177 179 171 164 159 149 146 137 141 141 140 134 128 120 129 127 66 90 104 106 92 83 84 91 95 93 100 98 99 98 103 104 85 79 84 77 79 75 74 78 77 78 73 78 116 134 129 134 138 141 137 151 160 168 173 174 168 162 164 159 149 147 142 153 153 162 160 149 139 139 149 166 179 188 187 174 146 128 148 143 147 157 151 160 153 150 148 147 167 167 167 165 171 168 173 166 159 153 139 134 138 141 137 140 126 128 129 121 55 73 77 75 78 77 81 86 93 93 96 98 98 101 101 102 84 81 77 78 77 73 74 79 75 75 75 73 111 125 133 126 139 139 134 148 158 165 167 166 161 163 151 153 132 138 129 133 140 129 127 121 116 118 119 124 122 142 138 125 120 119 126 122 116 118 129 147 149 145 137 136 158 163 163 161 163 163 173 166 156 150 136 138 142 134 136 138 127 133 131 111 54 72 75 73 75 76 80 81 94 92 95 96 100 97 102 101 83 83 76 73 79 73 73 79 75 77 80 63 107 120 126 132 136 136 134 145 158 166 169 168 159 160 148 133 127 115 107 100 99 101 96 97 88 89 95 101 100 99 99 99 102 99 95 88 95 99 107 115 120 125 125 128 136 152 152 159 152 160 169 165 154 148 136 140 143 132 135 133 132 126 134 100 55 66 74 70 77 72 77 76 87 89 100 92 98 98 100 101 84 75 81 75 78 76 76 73 76 76 76 71 90 116 124 129 133 143 128 141 149 160 175 173 159 150 145 133 124 99 68 55 47 49 42 37 47 31 48 59 54 45 46 52 57 49 38 38 38 46 58 70 69 72 87 115 127 138 150 151 155 158 165 158 150 142 140 140 142 136 134 133 131 124 138 73 58 71 68 72 72 76 73 76 82 91 98 92 96 97 97 99 79 79 77 80 76 75 72 74 77 73 78 70 84 113 121 129 129 135 139 134 151 153 169 171 159 150 150 148 147 131 92 63 57 59 66 64 58 56 54 52 42 47 42 43 47 53 54 50 46 44 53 50 52 61 106 127 141 143 147 155 155 164 163 156 148 142 143 141 138 134 134 131 133 127 130 60 61 65 67 68 71 68 74 72 83 89 94 96 97 96 98 99 83 84 78 81 72 76 74 73 78 74 78 72 69 106 116 122 131 134 138 139 146 150 162 168 168 160 160 163 161 161 156 141 132 134 138 132 135 132 129 120 110 107 106 104 114 121 124 123 127 131 136 134 138 142 167 169 148 149 157 156 159 166 161 154 148 144 143 145 137 135 132 131 131 133 119 47 68 63 68 68 70 72 71 78 76 90 93 91 94 94 97 98 83 84 79 77 74 75 75 77 74 72 73 79 63 100 111 112 130 130 139 136 145 150 156 165 175 172 170 168 171 184 176 175 173 168 168 168 177 182 182 176 167 168 161 158 169 169 168 164 155 153 152 145 164 172 171 169 161 142 155 164 162 161 161 155 146 143 141 144 140 134 130 131 132 135 100 45 68 63 64 69 68 70 74 73 78 85 90 93 93 94 97 96 79 83 81 79 73 76 72 75 71 75 72 75 69 88 108 111 124 129 136 138 143 154 152 155 176 173 171 165 175 181 181 164 162 175 175 168 172 181 184 184 183 191 182 187 187 188 177 171 164 162 158 156 166 168 165 167 171 166 165 170 166 160 160 150 142 143 139 145 138 132 130 127 130 131 72 55 63 62 64 65 68 68 72 73 74 86 90 92 92 93 96 98 83 83 79 77 74 76 73 76 70 74 75 80 64 81 95 110 114 129 130 142 140 151 160 162 174 182 173 179 177 188 180 171 153 155 168 164 169 171 176 174 179 178 177 177 179 181 174 169 176 174 161 159 158 164 167 169 167 173 168 170 162 165 156 151 144 146 146 141 136 133 128 126 124 123 52 52 67 57 65 62 67 67 69 74 74 79 92 86 94 92 95 96 85 83 78 78 74 73 72 73 68 75 76 73 74 70 84 101 110 114 133 139 142 146 158 169 175 183 178 180 182 186 175 179 165 146 146 146 147 148 152 147 150 161 166 158 160 164 162 157 164 160 157 152 157 169 164 169 178 171 166 168 166 165 158 149 148 145 144 141 135 133 130 121 127 100 46 61 60 61 60 64 62 71 67 74 70 80 88 87 92 90 96 94 85 83 78 79 74 74 71 72 72 75 72 74 75 73 72 98 107 114 130 139 141 145 154 171 177 178 182 178 181 179 172 180 171 156 140 129 121 119 116 114 109 117 122 119 123 117 133 130 128 137 147 148 161 173 165 171 181 174 166 165 169 165 159 148 148 144 145 135 130 132 128 119 124 76 49 61 53 64 62 63 63 67 72 70 69 85 87 88 87 91 93 95 85 85 75 80 73 73 73 71 74 74 70 76 71 73 68 81 103 108 127 130 139 142 149 169 173 173 178 172 177 177 169 178 172 153 152 141 133 126 116 118 116 110 109 110 115 113 117 119 131 143 148 162 157 168 162 166 177 173 169 163 161 162 157 154 142 144 143 135 132 129 129 123 106 48 59 58 58 59 61 62 61 66 68 70 73 81 86 85 90 94 92 93 82 86 77 79 77 74 72 73 71 76 72 72 72 76 73 70 90 105 121 125 128 141 149 158 169 172 171 173 177 172 168 175 171 163 157 151 148 145 132 133 130 123 116 126 125 128 131 138 142 151 152 160 162 170 173 168 175 175 166 162 165 160 155 148 141 140 143 135 128 132 120 119 80 43 61 57 58 60 57 63 65 61 69 71 75 81 90 83 92 90 91 94 85 82 81 80 75 76 74 73 72 74 71 75 71 74 77 70 73 92 110 125 126 131 144 155 164 174 168 172 180 176 166 172 173 171 165 164 160 165 148 151 142 137 134 139 138 141 150 154 153 158 157 158 171 174 169 171 175 167 164 165 169 162 159 150 143 141 142 135 132 125 117 109 46 59 54 59 55 60 61 62 61 67 68 69 79 84 84 88 87 91 92 93 84 80 79 77 79 73 70 71 72 72 70 73 73 76 74 73 73 66 96 116 123 128 130 158 161 170 167 172 173 181 169 173 177 175 162 167 169 167 167 162 163 165 161 164 155 158 159 164 162 165 166 172 179 174 168 174 170 163 162 166 164 159 152 148 142 138 139 130 124 123 109 101 43 56 53 56 54 61 58 58 67 60 70 70 78 84 82 86 89 89 94 92 84 78 83 78 78 70 73 75 71 73 70 75 71 72 75 74 75 68 72 103 116 123 131 141 161 162 167 173 166 180 175 174 172 176 168 175 180 178 184 179 182 184 184 182 178 181 179 179 172 176 178 179 182 173 166 168 170 163 167 165 164 159 151 143 139 138 133 128 124 103 103 109 38 58 53 54 58 58 58 61 65 64 67 75 80 83 84 83 90 89 90 90 85 83 83 74 80 72 71 72 71 75 67 76 71 70 74 79 67 92 80 75 100 113 120 131 148 168 168 176 171 178 174 173 178 182 185 189 189 185 185 186 191 191 185 191 188 186 187 186 186 187 189 184 186 183 169 174 173 168 166 165 163 156 146 137 139 132 120 125 112 91 113 117 29 56 53 54 61 56 57 61 64 60 69 76 81 81 85 83 91 85 90 91 84 84 78 76 77 73 72 71 71 72 69 75 71 73 73 76 65 81 122 73 71 96 100 126 140 157 164 167 171 169 170 176 178 186 184 189 193 193 189 189 193 192 185 188 189 184 189 191 189 189 192 192 190 180 178 172 172 171 160 161 160 148 141 131 127 125 116 108 90 101 121 112 54 58 50 53 57 57 58 62 60 65 72 77 81 83 80 87 85 90 88 94 82 82 81 77 77 74 73 71 74 66 72 76 72 75 73 74 68 79 125 106 61 72 91 105 134 147 162 161 169 170 157 172 172 183 183 189 192 193 191 195 193 191 187 189 192 190 189 193 188 187 191 190 188 178 175 167 177 173 162 157 153 141 130 125 117 113 105 91 99 103 122 113 41 72 68 55 54 57 61 61 60 66 75 80 78 85 81 85 85 93 85 92 82 81 78 77 80 72 75 68 73 72 73 74 73 71 74 78 60 78 128 113 89 58 68 83 114 139 153 158 157 170 162 174 175 177 185 186 190 191 192 194 191 189 187 187 194 196 181 190 192 191 187 182 186 175 170 164 171 165 162 156 146 133 120 113 113 99 80 96 103 110 125 118 23 52 72 80 64 53 58 61 63 68 73 79 80 79 83 84 86 85 87 84 80 84 82 78 75 75 75 71 72 70 71 72 71 72 75 75 59 86 124 112 96 70 59 65 85 126 142 160 158 164 158 170 178 177 184 180 184 190 190 189 185 184 186 184 187 191 190 190 191 186 177 182 182 178 169 170 165 164 158 148 141 118 110 98 92 77 83 107 106 110 132 124 20 45 57 63 79 74 63 57 62 74 73 78 81 81 84 80 87 88 86 87 81 86 80 80 79 76 73 75 74 70 74 72 72 74 73 74 53 87 125 113 100 79 57 57 65 89 127 149 155 160 150 158 174 175 177 179 183 185 181 182 181 180 181 181 184 184 190 190 189 184 170 174 173 174 170 164 162 160 147 142 128 108 96 77 66 79 100 105 106 116 132 120 18 38 51 47 67 68 83 61 66 73 76 78 82 79 84 81 85 86 89 85 87 83 83 78 78 79 72 77 72 70 71 72 72 72 76 73 42 89 128 112 105 92 70 62 57 61 99 123 149 150 152 147 160 162 172 175 178 186 178 176 172 167 173 173 177 180 183 185 184 179 166 161 160 163 155 149 155 146 131 126 105 83 68 63 76 90 100 108 101 131 138 120 17 35 41 43 46 55 65 82 74 70 77 79 78 85 81 82 81 84 87 88 88 81 83 82 80 78 74 72 73 69 73 70 71 67 71 74 33 87 129 116 107 101 79 67 61 61 56 97 132 132 142 138 147 158 162 164 169 166 174 166 164 158 162 167 167 173 171 170 171 165 160 149 151 151 144 143 145 132 121 106 80 62 63 69 84 94 103 106 114 134 138 118 17 37 36 43 39 41 55 71 80 74 77 78 77 83 82 86 83 86 82 85 90 83 79 77 79 75 75 73 71 69 67 60 54 68 73 73 26 87 130 119 109 101 90 66 67 62 59 57 93 123 120 125 135 140 145 155 161 160 161 150 152 147 144 155 146 151 154 152 151 151 147 142 142 141 128 124 133 119 98 75 57 66 71 80 88 100 104 113 129 133 145 104 14 35 36 41 36 41 44 62 71 78 77 77 79 81 81 82 83 86 80 85 94 86 82 76 77 78 75 71 72 61 59 55 53 79 74 69 21 93 133 121 117 103 94 79 71 66 63 62 56 86 101 101 112 121 129 132 138 143 137 129 136 136 133 128 136 139 136 138 132 132 131 135 129 125 124 121 116 93 67 63 64 72 75 82 97 106 109 129 135 132 141 111 15 33 38 36 39 38 43 50 55 72 86 78 76 82 85 80 84 84 85 84 91 91 82 82 81 76 79 68 73 66 58 60 64 82 78 66 21 99 129 125 120 109 102 88 75 68 65 67 58 61 72 87 91 97 106 109 109 113 119 121 113 121 112 108 116 116 114 115 119 112 119 115 118 113 112 102 88 63 62 66 73 72 84 92 99 111 125 131 139 130 141 118 20 20 33 39 35 40 40 46 51 63 78 87 75 80 82 84 78 83 83 84 94 84 90 79 80 82 72 69 71 68 64 62 76 86 84 63 22 109 123 129 121 115 103 97 81 72 69 66 68 61 63 62 67 76 85 86 86 89 85 93 88 85 82 77 79 79 94 91 92 99 91 92 93 85 79 71 59 67 66 71 74 81 88 99 112 120 129 135 132 123 134 119 90 54 12 26 40 40 42 43 48 55 68 77 83 78 80 85 82 80 85 82 91 88 85 80 76 75 66 63 70 71 59 67 80 87 82 63 22 114 124 124 126 116 111 99 93 78 70 70 72 68 64 65 64 60 64 67 64 70 67 65 67 61 62 58 61 63 62 67 63 68 69 65 68 61 65 67 65 72 68 82 78 92 98 108 119 125 136 133 131 131 130 122 115 99 80 29 19 42 40 48 40 50 59 76 88 79 80 81 85 81 81 82 75 79 83 70 78 74 58 64 77 68 51 70 84 90 79 65 26 121 126 123 127 123 111 105 95 88 71 68 69 71 67 68 66 69 64 62 64 60 59 60 57 55 55 57 55 58 58 58 58 59 57 63 63 68 70 72 71 76 80 89 93 96 110 114 123 134 133 130 130 133 129 115 129 110 107 96 27 23 38 49 48 43 57 73 77 80 79 81 86 79 81 84 