P2
92
112
255
120 120 120 122 120 121 122 121 121 121 123 118 120 121 117 124 117 115 119 122 119 130 135 125 132 141 166 170 158 153 151 158 164 167 153 145 115 90 110 138 127 115 117 103 117 98 108 112 110 104 96 103 95 94 100 111 111 103 101 100 95 91 99 114 128 119 120 125 121 122 120 115 119 111 117 120 112 118 115 118 111 118 111 118 110 114 112 115 115 113 113 109 121 121 121 121 122 123 122 121 123 120 123 119 119 122 125 120 116 115 125 128 124 126 129 129 141 142 129 129 137 132 135 147 152 161 158 123 95 118 133 120 125 117 123 115 129 126 113 118 113 115 109 101 106 105 105 110 112 104 115 140 121 105 100 114 123 114 117 117 125 114 113 116 116 115 122 122 113 118 118 116 113 114 115 116 115 111 116 113 116 112 114 111 120 124 123 120 124 117 121 122 119 118 119 122 118 122 120 124 115 122 129 127 131 128 136 142 131 118 123 136 133 124 136 149 152 154 151 108 135 149 129 125 124 135 127 121 118 118 105 119 113 102 108 105 104 102 109 109 109 101 104 127 120 131 125 113 111 123 116 109 126 116 114 111 117 116 124 118 116 122 119 115 114 113 112 116 114 115 114 113 116 112 114 114 124 122 122 124 121 125 120 123 120 124 120 120 119 120 123 119 118 121 126 128 128 134 145 134 125 118 132 129 133 121 136 160 172 166 148 123 142 124 118 118 110 121 113 127 126 113 109 118 114 105 107 117 104 111 109 102 96 99 99 117 109 124 122 123 121 119 124 110 118 117 118 115 121 122 120 114 118 112 118 116 115 114 114 119 115 116 116 114 114 114 113 113 121 121 122 124 117 123 118 123 119 121 120 122 116 125 119 120 119 129 124 127 132 128 136 131 125 127 124 124 124 143 152 175 172 148 110 133 129 117 105 107 106 117 115 115 123 121 128 119 110 111 104 121 120 124 106 92 86 96 103 105 99 108 116 115 125 124 130 131 117 120 124 123 119 119 120 111 122 116 118 113 117 112 116 120 114 118 112 116 115 116 114 113 118 123 120 122 120 121 123 120 121 123 123 119 121 122 122 120 126 131 129 140 136 125 146 143 147 135 119 134 163 154 155 164 156 130 124 129 132 126 118 128 124 120 128 121 127 128 129 121 120 125 118 133 128 123 118 109 95 101 101 110 109 112 114 120 125 131 136 140 136 131 128 120 122 114 114 117 121 112 121 115 116 114 116 114 118 116 114 116 115 116 113 112 121 122 121 121 122 121 125 119 124 122 120 121 121 121 123 122 137 136 145 135 127 136 162 149 154 141 124 164 155 123 155 158 152 114 116 128 130 138 130 131 138 128 127 136 141 136 131 129 128 128 131 136 131 120 124 119 113 104 95 98 108 107 110 104 115 117 122 125 124 137 136 138 129 121 115 130 123 114 122 114 117 118 115 119 114 116 114 116 113 116 112 113 122 120 120 122 122 121 122 121 118 120 121 126 122 121 127 133 143 144 140 137 131 167 158 133 131 129 144 160 114 138 184 153 126 123 125 130 133 131 136 130 142 141 140 145 147 143 140 149 145 142 149 144 145 131 128 125 125 112 101 98 97 96 114 89 94 103 114 113 113 118 139 135 132 131 126 127 122 118 125 116 121 115 118 119 112 119 113 116 115 116 113 114 119 124 120 123 120 123 123 119 121 124 124 126 121 122 132 140 137 144 146 146 153 167 154 136 131 142 150 128 94 162 196 146 109 132 127 135 146 137 144 137 143 149 151 148 155 149 154 156 163 155 158 157 157 150 143 129 133 130 118 113 118 103 116 111 85 86 107 107 116 113 121 130 131 132 135 135 130 116 124 127 113 124 120 119 112 122 113 115 117 114 114 116 120 122 122 122 121 124 120 121 123 124 122 123 121 135 140 129 145 145 143 152 148 149 139 141 123 145 112 112 119 186 178 126 118 138 142 141 159 153 161 156 153 151 161 159 160 163 164 167 176 173 176 167 164 169 165 151 140 146 142 125 124 121 117 123 121 104 89 109 110 116 120 116 125 145 143 141 138 135 124 120 126 120 116 121 116 118 114 116 117 116 113 116 119 124 124 119 122 118 123 118 125 123 118 130 127 127 129 142 157 152 143 152 143 145 143 101 127 139 91 112 149 188 153 128 133 146 158 155 168 165 169 171 165 168 173 167 171 177 177 176 185 181 178 180 170 174 174 167 155 151 145 143 134 121 121 124 124 131 107 102 100 109 119 121 117 132 143 145 137 141 131 130 119 119 119 121 119 118 116 115 116 115 115 114 124 121 123 120 124 118 124 121 122 118 124 130 136 138 166 176 168 144 152 141 147 151 97 75 139 113 83 133 172 172 137 126 142 165 169 164 179 177 171 185 175 176 181 179 175 184 181 185 192 188 185 186 185 178 178 175 173 165 155 156 147 137 132 124 122 126 116 114 96 94 111 124 125 127 129 138 142 136 140 137 133 117 123 121 128 117 117 116 118 115 118 117 122 122 122 119 122 117 122 122 118 123 131 168 170 162 168 156 154 134 156 152 142 110 83 89 133 108 99 144 172 151 130 143 153 175 170 177 189 187 176 189 179 177 181 185 182 187 188 189 191 189 187 186 191 185 184 185 183 181 172 162 165 151 149 134 119 132 116 109 104 87 95 118 123 131 128 136 133 138 137 145 142 128 124 116 121 118 114 114 115 119 118 112 123 119 118 129 120 120 122 124 118 137 153 175 137 139 155 145 133 143 169 150 97 86 84 93 127 118 136 147 161 143 119 152 166 176 181 180 191 191 187 185 186 188 193 192 192 194 189 192 189 187 187 192 191 193 191 193 189 190 187 178 179 174 163 155 141 135 129 114 95 96 78 110 108 137 140 131 132 129 138 146 159 140 121 115 124 115 110 114 118 114 115 117 120 121 121 127 125 119 134 150 140 145 130 121 128 150 148 127 143 171 155 123 86 85 83 87 126 133 140 159 147 131 128 146 177 178 184 183 193 194 195 192 191 191 198 199 196 194 193 197 189 180 189 194 195 193 196 195 190 191 191 188 187 187 181 173 163 151 144 133 112 102 87 100 111 110 145 142 135 140 137 144 149 152 130 121 121 122 117 107 115 118 112 119 120 118 125 124 120 126 136 143 132 120 123 131 155 148 123 134 165 152 122 98 86 100 100 106 141 132 133 161 134 116 138 139 178 184 189 188 198 193 199 199 195 195 192 198 199 197 197 198 191 183 196 196 196 197 197 197 192 194 191 191 195 193 193 186 182 176 168 153 145 110 91 96 123 109 110 141 136 143 138 140 140 160 132 136 125 116 124 102 110 117 118 116 119 119 124 122 118 121 130 125 129 127 155 157 142 115 126 150 138 122 101 95 96 104 115 127 142 128 118 161 124 114 136 156 168 188 188 193 197 193 195 201 199 194 191 198 198 198 198 200 199 193 197 195 199 196 196 195 195 192 192 196 197 195 196 193 191 188 181 173 162 142 103 93 127 116 107 107 130 137 141 139 143 145 155 133 137 121 111 104 107 111 118 114 122 123 130 119 119 112 122 126 140 154 154 136 122 119 144 142 123 108 104 106 117 128 143 141 133 133 112 158 134 112 122 167 175 187 191 193 197 200 193 201 197 192 195 199 196 195 198 202 200 200 196 198 199 198 199 197 194 197 194 196 197 195 195 197 194 193 193 183 178 165 130 91 123 125 125 112 108 125 134 143 153 139 151 146 143 136 113 103 105 104 118 113 123 124 124 111 105 119 132 136 143 131 130 114 140 155 156 131 122 122 111 120 138 155 158 136 133 126 127 154 135 119 113 161 183 186 194 194 195 198 196 200 197 198 199 197 198 197 199 201 201 200 197 196 198 196 197 198 196 197 199 195 196 197 196 199 194 195 195 188 184 182 158 112 111 120 127 124 120 116 117 135 150 157 150 158 143 147 128 119 107 89 117 115 123 125 119 84 93 103 108 123 133 102 112 111 157 184 150 154 155 138 112 139 174 183 161 135 133 123 136 145 134 127 117 156 184 189 195 200 200 199 200 199 200 201 201 199 199 199 200 201 203 201 197 198 196 195 197 200 195 198 198 192 199 196 196 198 195 195 194 187 190 184 173 142 110 109 114 126 125 129 124 123 136 161 163 151 157 119 146 126 115 93 102 116 126 123 101 74 99 102 106 118 96 111 122 129 199 191 139 185 128 108 157 182 191 192 167 138 126 118 124 147 135 142 135 152 187 193 197 201 200 201 200 200 199 201 203 201 202 198 200 203 203 201 200 199 197 196 198 199 195 199 199 197 197 198 195 199 196 197 190 190 187 185 178 165 128 126 94 124 104 130 144 136 127 147 165 163 168 132 122 143 114 105 89 118 128 109 87 85 102 109 114 94 91 118 118 136 166 135 139 120 90 128 186 199 198 198 163 147 116 117 118 139 138 149 146 158 186 194 199 197 201 202 201 200 201 203 201 202 203 201 200 203 202 200 201 200 199 198 199 197 197 199 199 200 197 197 197 198 197 195 190 189 189 187 179 170 152 131 105 117 102 107 128 144 133 135 161 162 168 149 139 127 124 98 90 102 120 100 85 95 91 101 104 74 104 118 117 133 128 114 108 96 113 168 195 198 212 193 169 134 105 120 136 130 139 148 161 166 184 197 196 199 197 200 199 201 199 201 202 202 201 202 202 202 200 200 202 200 199 200 200 196 199 200 197 198 197 197 196 197 193 195 191 190 187 186 178 175 168 144 115 107 125 93 117 125 141 137 150 167 168 156 160 136 102 105 90 75 115 89 89 90 88 96 89 90 103 116 115 133 120 95 113 103 143 178 174 200 196 172 141 112 119 145 142 131 141 153 169 165 186 192 197 200 197 200 201 200 200 202 201 202 202 200 202 202 200 200 202 201 200 199 201 198 198 200 197 199 197 198 196 197 193 193 193 189 187 184 180 176 173 160 120 105 119 105 107 133 123 145 148 155 166 155 138 135 105 96 99 74 106 80 103 88 99 76 77 94 110 104 124 125 113 98 116 155 166 159 168 179 164 152 154 159 160 146 131 139 153 155 173 168 184 193 198 198 201 199 200 201 201 199 200 202 202 199 202 203 202 201 202 201 201 200 200 200 198 199 199 199 198 196 197 196 195 192 194 189 188 185 184 174 175 172 139 96 115 107 101 135 131 130 150 158 149 155 130 130 116 76 102 84 98 84 104 99 91 68 80 84 108 103 127 117 103 101 132 150 145 146 156 149 148 149 185 177 161 137 128 140 159 166 175 171 182 195 198 198 202 200 198 201 200 201 201 202 202 202 202 202 202 201 202 202 202 200 200 200 199 201 198 198 197 196 197 196 193 192 194 191 187 183 184 176 174 176 148 105 101 115 93 113 143 128 149 167 161 136 138 122 115 79 76 96 97 82 104 97 71 67 75 89 95 110 124 113 107 102 112 128 132 146 144 131 138 153 147 151 139 121 127 146 162 175 175 179 177 193 199 200 200 201 199 201 200 202 200 201 200 201 201 204 202 201 202 204 201 202 200 199 199 200 198 199 199 196 198 196 195 193 193 191 189 179 182 178 174 177 152 127 73 126 95 84 135 129 146 157 167 151 116 125 111 91 54 102 93 92 106 92 65 63 67 97 87 118 119 118 108 95 112 115 130 142 137 126 153 135 134 150 119 122 134 153 164 171 172 182 178 192 198 198 200 199 201 201 201 199 202 199 202 202 200 203 201 204 202 203 201 202 200 200 200 199 199 198 198 196 197 197 194 193 193 191 188 182 180 181 178 172 158 134 84 99 107 85 94 130 141 158 164 156 119 114 117 98 61 84 93 101 104 84 64 64 61 103 88 120 117 118 102 96 113 113 125 138 131 133 143 129 136 144 139 140 144 159 168 167 173 179 181 188 195 199 198 200 202 201 201 193 199 201 201 203 200 202 202 202 203 202 200 202 201 200 199 200 197 197 199 196 196 199 194 194 193 190 192 183 182 179 181 167 160 133 101 71 113 83 79 103 141 155 170 147 128 104 113 97 87 86 96 103 101 70 73 56 62 103 88 115 117 122 95 106 111 114 122 136 123 129 131 126 141 148 152 153 152 164 167 172 169 171 173 191 197 199 200 200 202 201 202 198 201 202 201 201 200 201 202 203 203 203 202 202 202 199 202 200 200 195 199 199 198 199 197 194 191 192 190 185 183 181 176 165 153 133 103 82 86 93 77 67 103 144 161 148 125 107 104 103 87 101 104 111 91 69 68 54 62 92 89 104 122 124 93 107 105 109 122 129 122 127 128 126 143 150 157 165 159 167 169 176 174 181 184 193 195 198 200 201 200 202 200 201 202 201 199 200 202 199 202 203 201 203 202 202 203 200 201 201 200 198 199 200 198 197 198 193 191 190 189 186 182 182 173 163 152 137 103 90 69 82 78 71 58 129 151 144 124 114 95 100 89 94 115 105 97 71 67 49 60 86 78 97 126 135 89 101 98 108 119 126 126 129 138 129 139 152 164 169 162 172 172 175 179 189 192 194 197 198 200 201 200 198 201 202 203 202 200 201 203 202 202 202 202 203 201 203 201 202 201 201 201 201 200 198 199 197 190 197 191 188 188 183 184 178 172 161 144 135 109 90 77 61 75 69 75 72 132 146 120 112 99 89 98 94 117 105 107 64 71 50 57 76 78 85 125 142 97 97 99 110 122 127 129 136 141 125 139 155 169 171 166 170 172 172 188 191 194 196 197 200 198 201 201 196 200 202 203 202 201 201 202 202 202 202 202 203 202 202 202 202 202 203 201 202 199 199 200 198 189 196 194 192 189 181 182 179 172 160 142 131 110 85 82 57 65 54 80 74 95 139 116 115 99 89 92 106 117 115 107 68 69 60 52 62 88 82 127 138 107 94 100 110 125 133 128 143 140 126 137 166 173 176 170 171 175 177 187 193 194 198 198 199 201 197 200 198 199 202 202 202 202 202 200 201 201 202 202 203 203 203 203 206 201 203 202 204 199 198 201 201 194 191 199 188 190 185 182 181 165 159 145 126 117 93 77 67 51 57 43 84 95 115 115 107 98 98 97 101 117 117 113 74 76 69 61 46 85 70 120 138 114 95 99 111 117 136 137 144 141 128 145 173 175 168 167 174 175 181 191 193 198 191 199 198 199 199 201 199 202 202 203 201 202 202 200 201 201 201 201 203 202 205 203 204 203 202 202 202 200 199 201 201 194 191 198 191 189 186 186 181 164 156 144 128 121 101 70 65 48 60 45 63 101 121 105 107 95 94 101 102 117 118 132 70 69 70 56 47 74 55 94 129 127 106 100 117 120 131 141 143 141 137 152 175 177 166 163 174 174 182 190 195 198 191 194 198 197 197 200 201 201 205 203 204 201 201 203 200 200 198 202 202 201 203 203 206 201 205 200 201 200 198 199 199 196 196 195 193 187 187 185 182 171 148 141 131 121 107 65 56 51 47 51 61 66 125 111 98 97 84 98 113 119 114 126 76 72 74 61 47 64 61 67 140 123 131 100 121 123 134 147 138 141 151 156 177 177 169 167 170 173 185 186 192 193 194 193 196 196 198 199 201 202 204 203 204 204 202 202 201 199 200 202 201 203 205 203 203 204 203 202 201 199 196 197 201 197 197 195 190 191 187 186 183 174 151 139 135 119 106 63 51 50 38 47 68 64 99 119 100 96 86 99 116 115 112 122 63 75 62 71 52 54 65 46 114 129 128 129 127 131 128 156 151 146 151 154 179 174 170 171 172 177 185 187 188 188 194 191 193 194 195 195 200 202 201 203 204 204 202 202 201 199 198 203 201 203 206 204 204 202 202 201 201 198 197 199 199 196 194 193 187 187 186 185 184 175 150 142 134 123 110 64 53 51 41 41 72 69 90 115 101 91 92 101 112 112 113 120 85 56 64 62 60 43 58 61 66 122 127 133 157 139 130 145 160 153 144 152 168 166 169 168 169 183 177 178 182 183 188 185 189 190 193 192 196 199 200 199 201 202 201 201 201 200 199 202 202 204 206 205 206 205 199 199 201 198 194 199 197 192 191 188 186 182 183 181 185 175 158 147 135 124 117 70 53 48 45 45 68 65 96 98 105 89 90 102 114 112 115 116 102 60 56 50 55 49 49 44 70 72 118 128 142 154 136 140 141 165 157 155 160 162 167 171 169 174 176 174 173 177 176 178 180 183 190 191 191 195 195 192 199 199 199 199 200 199 199 200 201 202 204 203 203 204 197 198 198 197 194 195 196 186 184 181 177 170 176 174 176 174 167 151 133 123 120 75 49 51 51 39 78 67 104 87 107 93 80 113 110 112 112 113 107 75 41 48 45 39 49 41 59 56 91 124 141 144 135 140 138 143 156 172 179 178 173 180 172 174 174 162 160 160 158 165 165 168 180 181 185 186 189 193 190 194 198 195 199 193 196 198 198 197 202 200 200 201 193 193 196 194 191 190 190 182 175 172 164 156 163 159 171 173 166 161 137 127 120 84 49 49 56 43 72 75 104 84 93 104 81 110 113 111 110 110 108 86 56 47 33 36 40 50 46 68 88 117 141 141 152 144 128 126 136 145 150 149 149 142 137 145 153 145 137 129 132 133 142 138 147 159 158 166 182 188 186 188 194 192 197 194 197 196 196 195 197 198 195 194 194 193 192 188 187 186 178 161 162 158 148 145 152 161 160 167 163 159 149 129 120 91 40 52 59 44 70 82 101 84 91 98 84 108 114 113 107 105 106 94 74 53 28 37 54 47 46 74 94 124 137 116 142 147 141 136 133 125 139 140 145 131 133 130 130 129 120 113 114 114 111 114 112 125 125 122 145 167 175 185 191 190 191 196 193 198 195 187 192 193 190 188 193 187 188 177 176 171 162 148 150 134 123 135 133 139 140 145 147 142 140 130 123 102 44 61 48 51 70 88 98 78 91 93 89 109 111 106 107 102 98 101 91 57 30 44 60 45 31 81 92 125 137 109 121 122 135 140 152 144 143 152 143 143 139 146 136 121 124 104 105 103 97 97 103 102 115 112 113 141 151 168 179 187 191 195 195 192 196 188 188 190 191 183 184 181 178 172 164 153 145 130 128 112 109 114 115 123 129 122 127 128 123 122 127 111 60 56 38 64 77 93 90 78 85 88 104 105 110 105 103 99 99 93 102 58 38 63 44 42 49 87 90 127 138 111 113 105 108 131 136 138 138 140 139 142 144 146 140 136 130 123 112 101 105 97 99 100 107 107 114 125 133 142 165 177 180 193 193 190 189 187 190 186 184 171 167 168 150 141 124 119 118 110 107 94 95 107 109 110 120 115 115 123 121 116 118 118 76 65 46 61 95 107 93 76 88 92 105 108 110 104 103 101 98 95 100 65 49 50 54 43 72 86 91 128 140 115 108 102 108 129 131 130 129 132 134 130 132 129 122 119 110 103 106 101 93 101 104 107 107 107 111 124 130 138 163 171 179 187 188 191 192 187 190 183 174 161 150 149 135 120 100 102 99 99 93 94 94 105 120 125 129 133 128 131 127 111 112 120 82 77 54 80 88 99 91 80 90 96 108 108 111 100 98 95 97 96 100 72 56 54 56 51 70 87 95 131 143 119 102 99 114 125 124 125 123 126 122 110 99 101 102 86 89 77 95 106 106 79 78 93 112 108 114 118 126 136 157 163 181 190 192 193 195 192 190 177 162 146 136 120 115 99 94 88 84 79 88 89 96 97 111 119 130 137 137 139 126 119 109 120 78 69 84 88 94 86 79 90 97 105 108 109 111 100 95 88 103 111 117 87 56 62 51 55 65 89 99 139 141 126 102 101 121 130 125 126 127 115 98 98 85 96 118 80 60 64 63 108 122 117 106 87 97 109 111 113 121 131 150 159 180 195 199 198 194 192 189 168 142 132 120 105 98 93 81 72 76 68 79 79 89 90 89 92 109 122 128 129 131 120 110 120 86 47 81 84 81 86 87 90 105 104 108 109 110 97 93 104 136 156 156 135 68 60 57 66 67 80 104 143 148 131 109 112 136 134 130 124 123 96 86 90 92 136 150 77 75 135 87 69 167 125 121 126 114 103 110 121 125 127 140 158 185 200 200 201 201 197 188 159 128 113 100 95 80 78 83 82 60 55 62 55 82 100 79 93 97 91 118 123 124 120 113 120 93 38 67 75 83 79 88 99 103 104 109 107 108 100 89 132 141 152 160 152 111 58 59 69 67 84 105 149 149 139 119 126 139 139 134 127 123 101 85 79 122 173 126 92 47 101 97 65 160 175 136 109 142 138 105 115 132 138 135 160 191 203 202 203 203 199 190 153 116 101 97 85 79 89 114 106 36 96 105 85 63 153 109 63 99 82 100 122 124 120 112 121 90 48 66 84 80 88 90 99 103 104 107 105 108 91 102 133 104 107 144 152 138 79 69 63 59 84 115 154 153 146 141 146 152 147 140 131 125 97 86 99 139 178 125 87 87 46 93 80 172 185 171 132 103 163 149 107 128 150 142 163 193 203 203 204 198 198 192 145 121 108 108 109 92 111 161 106 75 47 114 63 51 157 156 89 66 89 98 122 120 123 117 118 89 60 56 92 85 91 93 93 102 106 104 109 106 81 123 120 73 51 73 146 147 117 68 64 58 88 122 159 159 154 155 165 172 155 143 135 133 111 112 137 141 165 165 92 98 107 94 120 187 178 162 164 165 138 177 131 127 158 158 171 189 197 204 201 200 197 191 144 129 120 145 114 101 159 176 133 91 83 43 84 68 153 161 131 69 79 109 119 123 126 122 120 94 63 64 80 89 90 91 96 97 104 106 108 103 84 134 120 92 76 45 99 148 140 84 70 55 90 126 167 160 162 167 174 179 177 155 156 164 152 120 140 151 164 178 150 117 125 128 164 183 169 147 147 162 158 166 153 137 170 175 173 182 198 200 201 197 195 197 144 132 139 160 131 121 145 157 170 95 101 91 84 99 164 150 142 120 82 111 127 125 134 122 124 98 66 80 97 107 104 90 91 98 103 104 108 107 90 150 114 111 99 79 62 111 138 120 74 64 79 136 161 163 170 177 184 184 185 182 184 183 174 142 141 153 161 172 177 176 188 179 183 175 174 166 161 165 171 155 158 167 183 181 168 179 198 201 199 199 196 202 149 136 142 166 169 151 152 153 162 148 136 114 116 143 159 144 143 137 117 119 124 138 140 134 126 103 66 102 119 122 122 102 87 98 101 105 104 106 113 154 122 117 114 91 101 84 117 135 88 59 95 139 157 166 170 181 190 187 189 190 189 185 182 160 147 153 163 168 164 164 169 169 170 165 168 160 159 162 160 156 177 178 188 180 166 177 198 201 198 197 195 204 150 132 144 153 156 157 157 156 161 156 157 146 143 138 151 149 147 146 148 149 136 147 148 143 132 107 64 121 120 110 117 116 83 94 102 105 104 108 130 162 135 138 129 109 159 117 89 123 109 52 113 152 155 165 171 174 193 195 190 193 190 192 187 178 170 166 167 171 174 172 173 175 174 169 177 174 175 179 169 175 186 188 191 178 164 179 193 200 197 196 194 203 149 134 157 148 140 142 152 155 157 158 161 163 162 155 160 160 156 155 161 164 161 159 156 142 142 98 70 120 113 83 76 98 99 93 99 103 105 107 136 167 140 150 141 124 176 162 103 112 110 46 139 161 153 167 177 177 192 196 192 192 192 192 192 187 182 180 175 177 184 179 185 189 184 184 184 185 183 185 181 182 185 190 187 174 167 179 190 198 198 196 198 200 160 137 160 160 152 143 152 153 156 158 161 169 162 168 169 170 166 164 167 164 168 161 156 151 146 98 69 117 95 52 42 93 96 96 92 103 105 107 135 165 150 157 151 136 176 185 161 105 111 82 148 158 150 163 177 183 189 193 192 194 193 192 198 194 190 192 186 191 189 191 192 192 190 195 193 196 192 192 191 186 184 187 180 174 173 178 189 198 198 194 195 201 167 147 162 167 174 170 166 160 164 169 170 171 169 166 173 172 172 172 176 173 166 164 160 158 153 100 83 100 94 80 63 105 92 94 91 98 106 104 100 161 151 171 150 142 183 183 182 119 98 100 147 162 150 164 177 184 191 192 192 196 195 198 196 197 193 195 192 190 195 193 194 195 195 196 198 200 195 196 195 190 189 186 180 173 169 178 192 194 197 196 197 197 171 154 162 170 177 181 186 178 176 182 176 175 179 177 180 183 178 171 180 179 171 164 158 162 153 114 85 110 119 100 78 107 91 96 93 98 105 106 71 145 166 175 149 144 170 170 157 83 64 113 147 152 154 161 175 182 188 192 191 199 197 198 200 197 197 198 196 196 197 196 195 200 198 200 202 203 199 199 197 193 189 185 179 173 166 181 189 193 196 197 194 196 186 156 164 171 179 188 189 193 188 192 188 185 186 185 183 188 187 180 182 180 172 169 159 162 151 119 106 149 137 103 90 117 94 93 92 99 104 106 71 99 181 180 155 148 165 163 147 90 47 107 143 148 151 156 169 181 188 188 192 196 197 191 200 199 199 196 199 200 198 200 199 201 203 204 201 202 201 197 197 190 189 185 177 168 175 183 192 194 194 197 195 197 190 164 160 171 182 191 190 189 195 193 193 194 193 188 190 190 188 187 183 181 174 170 163 159 147 117 135 155 145 106 103 137 93 92 94 95 104 105 84 67 161 191 157 153 163 149 141 95 63 109 133 147 150 153 162 176 183 184 189 193 193 187 195 198 196 198 199 199 198 198 202 203 202 203 202 201 200 198 196 187 184 184 171 169 182 188 193 195 197 198 196 198 193 176 158 171 179 185 185 188 190 194 196 197 196 195 190 188 185 190 188 181 179 164 160 160 147 115 151 148 145 113 113 141 109 84 98 99 100 107 89 52 119 202 154 151 169 151 135 107 95 145 121 138 145 152 165 170 177 180 186 190 187 190 192 199 191 194 197 201 199 200 202 202 202 204 202 200 199 200 193 187 182 175 166 170 177 187 196 201 200 200 196 196 192 179 159 158 172 184 171 188 191 192 198 197 199 195 190 191 181 189 191 175 178 156 155 152 144 112 144 142 143 116 120 143 104 88 97 99 105 106 87 68 83 203 161 152 175 158 140 132 133 176 115 132 142 153 165 168 178 181 184 187 187 189 191 196 193 192 197 202 199 198 200 202 202 202 202 201 202 194 191 183 175 167 165 175 174 183 202 204 202 200 196 195 189 179 163 153 164 188 182 188 197 194 196 198 199 194 186 192 184 185 191 156 158 159 158 146 143 117 116 136 136 120 131 143 101 86 97 102 104 104 86 82 56 188 173 143 182 167 155 176 169 185 106 126 134 154 164 170 178 181 184 181 187 187 190 193 194 195 194 197 197 197 202 202 202 202 203 197 200 198 187 173 165 172 168 171 175 183 198 203 201 200 197 193 188 176 159 158 154 182 183 188 195 192 197 196 198 196 190 193 188 181 188 158 156 165 152 146 142 113 116 135 135 118 140 140 89 89 100 100 104 105 87 83 47 172 188 137 186 172 164 182 178 183 107 123 131 152 157 167 175 181 183 181 186 188 185 191 195 192 192 197 197 198 200 201 201 201 202 199 199 199 183 160 173 172 168 170 173 181 194 200 201 202 196 196 184 165 152 157 156 167 182 188 191 189 196 196 195 196 193 189 186 183 183 169 166 164 152 139 142 110 118 136 134 118 149 125 82 95 98 104 103 104 88 88 56 130 195 133 188 177 173 180 170 181 102 121 126 139 165 169 167 177 181 179 184 188 188 191 194 191 191 192 196 197 197 199 201 204 201 200 198 196 176 162 173 169 170 156 156 164 183 193 195 199 196 183 162 141 138 151 158 152 183 190 190 189 194 195 194 192 189 184 183 180 180 171 169 161 147 140 137 110 115 139 135 127 147 99 90 94 98 104 102 105 92 86 65 108 192 147 177 182 178 168 167 178 109 112 127 134 158 167 171 171 171 179 183 184 186 188 191 193 190 192 192 195 194 197 201 202 199 194 198 192 175 164 170 165 163 152 136 143 164 183 183 188 183 164 138 125 136 146 154 148 175 190 188 192 193 194 194 189 187 184 178 173 175 170 167 155 143 137 132 114 134 137 135 135 139 89 89 96 97 105 103 103 90 84 80 78 178 171 153 190 178 164 158 176 115 116 126 128 148 164 169 172 164 177 174 179 186 186 188 191 186 186 191 191 196 198 200 199 199 197 195 190 168 161 162 153 147 144 135 131 144 168 167 170 162 142 126 125 127 137 145 145 170 188 186 193 192 192 191 188 182 180 175 173 169 168 166 154 141 138 123 129 136 151 131 144 117 85 96 96 97 105 104 103 87 85 87 58 153 192 137 165 162 180 167 159 131 113 124 126 147 162 164 167 169 170 177 180 180 182 185 190 187 186 190 189 192 198 198 197 199 198 193 196 171 141 146 132 108 86 107 125 132 148 146 151 141 132 108 92 97 122 132 141 171 184 182 194 194 191 193 188 181 180 178 169 170 167 158 146 137 135 121 137 136 155 122 150 95 88 100 97 96 107 105 104 86 83 89 66 106 189 182 160 142 185 185 144 135 108 122 126 140 156 153 158 163 164 165 176 175 178 181 190 188 186 190 190 191 194 196 196 196 196 197 199 181 123 121 113 72 50 47 80 116 123 128 119 117 111 61 52 71 103 117 139 174 165 176 192 195 184 187 185 178 178 173 163 163 159 150 143 136 135 120 135 148 147 132 133 87 94 99 97 97 106 103 105 87 87 89 70 82 168 195 191 162 163 198 170 128 108 119 127 140 149 155 157 160 161 161 172 174 176 183 186 187 183 189 192 190 194 195 194 194 198 199 196 196 142 103 109 94 85 91 77 94 108 105 100 99 95 83 75 89 104 117 147 177 162 176 187 178 172 183 179 176 177 172 163 157 153 144 135 140 134 116 137 159 136 145 115 81 96 99 95 99 103 102 104 86 86 85 84 63 138 193 195 188 150 188 187 124 111 117 130 139 148 153 160 164 159 165 164 169 176 180 185 181 188 188 193 193 191 193 194 194 197 197 198 196 185 119 109 111 124 125 105 90 99 100 98 97 109 123 104 110 121 146 167 178 165 175 185 182 175 184 179 172 175 164 154 156 143 137 127 138 126 125 148 144 128 155 93 87 95 99 96 102 101 108 105 85 87 80 85 62 94 190 196 197 170 175 172 136 110 121 125 139 144 153 157 167 155 161 162 170 171 175 185 183 187 191 188 192 193 194 195 196 197 198 194 196 190 184 161 149 146 150 138 119 114 112 125 127 148 143 142 154 160 166 161 177 176 182 183 188 182 183 182 174 169 160 154 149 139 139 128 133 117 146 150 118 148 142 74 97 97 100 96 104 102 106 103 89 82 86 77 82 58 172 192 193 184 181 176 157 113 119 122 141 139 155 154 163 159 163 160 168 172 175 181 184 187 190 190 194 198 194 194 194 195 196 192 188 178 185 182 166 168 163 157 147 148 147 152 151 152 150 153 155 158 164 153 164 175 181 182 182 185 182 177 172 166 160 155 147 139 136 134 138 109 154 145 142 156 114 84 93 97 97 99 105 102 104 105 86 85 82 80 79 51 138 184 188 187 188 188 172 135 104 125 138 143 146 150 155 161 164 164 163 167 174 179 183 187 188 192 195 199 196 191 191 193 193 183 183 176 182 179 170 175 170 167 155 153 146 155 154 149 154 156 158 156 161 159 159 171 184 183 182 184 184 178 171 168 157 149 140 136 138 142 134 109 140 146 162 147 85 87 95 97 96 98 105 104 104 105 84 82 82 79 82 68 83 162 174 177 184 185 177 139 100 126 136 147 149 154 157 163 166 165 165 170 174 178 181 185 194 192 195 199 194 190 187 187 184 183 179 179 174 178 169 174 178 171 167 160 151 155 153 155 151 152 155 156 156 158 158 167 180 182 179 189 183 179 175 161 155 145 142 132 141 139 130 110 142 155 169 116 78 94 96 96 96 99 103 104 106 105 79 83 79 80 76 78 64 100 143 160 168 173 168 129 105 125 134 142 155 158 159 162 164 169 160 165 177 175 180 187 193 193 195 197 191 182 182 182 175 178 175 171 173 175 174 170 178 170 166 163 156 156 156 150 151 151 155 153 154 155 155 158 174 170 175 186 187 181 174 162 155 149 140 139 142 138 123 115 158 164 157 89 81 95 96 95 101 102 102 105 103 105 80 85 78 81 77 77 76 71 90 135 146 153 149 100 102 126 135 141 154 156 158 159 158 168 164 162 176 181 182 184 189 195 196 190 188 175 178 179 171 175 172 170 170 175 171 173 174 168 165 161 166 152 154 153 149 148 152 153 149 150 154 154 165 169 172 184 187 181 174 159 152 150 141 138 142 137 118 120 160 164 138 74 87 94 95 101 98 100 103 101 107 104 78 84 77 80 76 80 76 79 75 71 103 113 112 60 97 122 131 136 157 151 155 162 161 158 168 161 175 180 185 185 191 193 194 184 178 176 171 174 169 170 167 161 164 178 172 175 177 174 166 168 176 161 158 154 157 158 153 147 148 147 149 157 160 167 174 173 183 185 171 165 152 145 141 134 142 136 113 124 151 145 105 74 89 89 96 97 98 101 104 102 107 104 79 81 76 75 80 74 77 79 77 74 78 82 89 64 93 120 133 136 150 149 153 162 162 157 161 164 169 179 187 182 191 191 187 184 174 173 170 173 165 157 169 159 171 178 180 184 189 185 181 186 185 178 174 174 171 170 166 161 149 146 142 155 155 169 173 166 176 180 172 164 152 147 137 137 141 136 111 122 139 123 73 82 87 90 98 95 102 101 104 100 104 103 80 82 78 79 78 78 75 80 77 77 77 79 78 69 91 114 129 138 144 144 150 160 162 158 161 164 170 180 183 185 189 190 184 174 177 174 171 172 158 154 166 165 175 186 183 188 185 190 192 193 193 194 196 191 178 177 174 168 159 147 143 150 151 162 171 160 171 174 168 162 151 144 135 136 136 129 115 106 101 89 78 84 87 95 96 95 100 98 103 106 100 107 81 78 78 79 77 77 77 77 77 78 77 80 77 73 81 111 124 135 147 140 150 153 159 165 162 165 170 176 180 183 188 184 185 173 175 172 165 164 159 155 161 164 178 178 168 163 157 168 182 187 189 196 188 163 146 153 148 160 156 149 144 149 140 153 165 156 164 165 167 162 152 140 132 134 136 125 126 74 79 76 82 82 88 89 96 97 100 100 101 104 104 104 79 77 81 76 75 78 76 77 76 79 73 84 76 77 73 112 121 127 149 145 143 152 155 163 164 163 172 177 178 180 183 180 176 176 165 167 154 149 147 152 157 157 154 148 136 133 131 133 138 148 162 159 140 126 126 128 119 125 132 149 149 138 135 155 158 160 155 161 163 164 152 138 130 134 129 130 127 61 76 78 79 79 87 91 94 96 97 101 98 105 102 101 77 77 77 75 76 75 78 77 75 78 76 79 76 76 67 104 117 132 133 146 144 147 157 157 160 166 170 174 174 180 178 176 174 169 155 150 139 130 125 123 125 128 116 112 109 105 110 109 108 108 116 107 106 109 107 102 98 106 106 124 129 127 123 140 152 151 152 148 164 160 150 136 136 132 129 130 116 60 73 78 73 82 85 93 94 94 98 97 101 103 100 103 83 77 75 77 73 76 75 76 75 75 73 76 79 76 66 98 110 128 133 136 144 145 153 153 157 160 170 175 176 186 183 179 168 167 148 139 117 104 92 91 90 86 80 72 71 49 74 84 79 70 81 76 80 63 47 53 45 72 90 94 92 99 115 130 141 147 149 152 158 156 147 133 138 133 123 132 106 60 71 79 72 82 86 90 93 96 99 96 100 103 100 101 81 79 80 74 77 75 72 77 74 77 74 77 77 74 71 87 107 126 126 139 143 140 152 158 160 154 170 170 172 182 184 175 168 153 148 134 112 74 61 56 61 68 71 69 76 68 71 71 60 48 46 56 57 55 48 43 41 38 39 53 49 75 112 131 140 146 147 152 157 153 145 134 137 132 123 136 86 62 73 74 76 79 84 93 93 97 95 100 99 100 100 104 82 81 77 77 72 77 75 79 71 78 74 75 78 71 76 72 111 117 126 135 142 136 149 150 165 157 168 170 170 175 184 175 166 152 157 147 147 139 132 121 129 133 140 133 135 138 130 125 112 112 106 113 115 125 123 118 122 120 118 107 113 137 144 143 148 150 150 155 160 149 140 139 135 126 123 133 67 65 72 74 74 79 86 87 93 95 96 98 99 99 100 101 81 81 79 74 74 75 77 75 75 74 74 77 74 77 74 67 94 112 120 128 134 142 146 153 154 161 167 169 170 173 179 181 171 165 165 159 174 182 177 175 175 174 177 177 183 186 186 175 166 162 157 151 158 160 161 155 146 150 139 146 158 166 166 141 145 150 153 162 154 151 138 139 134 128 120 127 59 68 67 77 69 80 87 88 92 94 97 98 97 99 103 99 81 79 73 81 73 77 75 74 71 76 72 75 78 77 78 67 88 107 114 124 125 141 141 149 154 155 162 169 168 168 171 180 179 175 168 168 184 189 183 170 174 180 180 174 174 183 186 186 183 184 184 180 183 182 176 167 163 154 146 145 161 160 164 164 147 156 160 157 156 144 139 133 136 126 125 109 55 70 70 73 73 77 85 89 91 92 96 95 98 97 101 99 81 79 79 73 75 73 72 78 75 74 75 71 76 75 78 70 81 99 112 121 122 132 141 141 156 156 161 173 174 165 165 183 181 174 175 181 191 188 183 177 158 169 173 175 172 178 177 177 176 179 175 177 178 178 168 165 171 164 150 150 152 157 167 164 165 169 161 160 155 142 136 133 131 121 128 82 53 68 71 73 71 78 85 92 91 93 91 95 101 96 100 97 78 80 74 77 75 74 73 73 74 76 73 74 74 75 76 76 71 96 102 115 118 126 137 138 153 154 161 167 173 176 175 180 186 177 184 184 192 188 183 183 169 154 160 154 155 159 157 156 154 160 167 163 159 164 161 153 160 157 147 146 155 156 165 169 163 161 157 161 149 142 137 137 128 122 119 67 59 66 67 72 72 76 87 89 89 95 91 98 97 97 97 100 86 79 77 78 73 73 73 70 76 75 70 75 74 77 74 75 76 82 90 107 115 119 127 133 150 153 160 162 168 175 180 184 185 185 185 183 191 184 185 184 181 160 149 137 127 125 118 117 109 116 123 123 122 121 125 128 123 138 139 149 164 154 172 174 162 155 162 160 153 140 134 133 125 118 111 48 62 63 70 68 71 81 84 91 88 93 93 95 95 95 99 97 83 82 78 77 74 73 72 71 73 69 75 69 78 74 72 78 73 80 85 100 108 123 119 138 143 147 157 161 164 171 183 180 182 187 181 185 185 181 180 184 178 166 159 146 136 127 120 115 119 115 109 111 114 109 115 120 127 139 145 153 158 155 169 170 163 154 159 158 152 139 134 130 119 124 81 53 65 60 70 69 71 81 85 89 89 91 91 93 96 95 94 97 79 82 81 76 76 70 73 74 74 73 74 72 72 76 75 79 70 83 101 81 108 110 117 131 139 145 152 159 162 168 179 179 179 182 181 183 183 179 179 182 178 170 164 154 152 147 132 136 131 120 119 121 128 124 132 136 141 147 152 158 159 162 160 166 166 152 155 155 147 139 129 124 118 120 54 60 61 62 67 71 74 82 86 85 88 92 91 95 94 96 96 96 85 79 79 76 73 73 74 71 72 72 76 72 74 75 78 81 72 70 132 76 85 106 114 123 136 132 148 150 163 162 170 176 180 177 181 183 183 174 180 180 180 179 170 165 165 167 150 146 145 135 135 133 139 141 148 149 150 153 149 160 163 166 163 165 161 153 157 149 146 134 126 124 121 93 50 59 63 66 66 68 78 84 87 85 89 92 91 95 93 95 96 95 80 79 79 76 72 72 75 71 71 74 73 72 75 73 76 78 68 77 138 104 63 93 108 117 131 129 141 147 151 164 165 174 179 176 179 184 185 178 175 182 182 179 174 174 172 174 164 160 159 157 154 152 149 152 158 156 157 155 159 168 164 164 164 164 152 154 160 153 144 134 125 119 117 63 55 57 63 69 66 67 78 82 86 85 88 91 89 94 92 93 97 91 82 81 81 74 77 70 76 73 71 74 71 74 74 75 76 75 72 79 124 135 79 69 86 105 119 126 136 141 144 157 167 173 175 173 179 177 184 184 179 182 182 180 166 175 177 177 180 178 181 179 178 178 169 170 169 167 165 166 171 173 166 160 161 159 154 152 154 149 141 125 118 119 88 51 58 58 64 62 65 76 77 85 82 85 88 90 93 94 93 92 96 91 82 80 79 75 76 71 73 73 72 73 72 75 72 79 72 79 66 83 122 127 122 55 68 89 112 120 131 135 139 150 159 171 167 175 179 174 183 182 182 176 180 185 180 187 186 185 189 184 189 190 184 189 182 184 182 180 178 180 175 175 170 161 164 158 161 151 154 148 135 126 115 110 56 54 57 61 63 64 69 72 81 80 85 84 89 87 91 89 91 94 91 94 81 83 79 80 74 76 72 70 74 72 76 71 72 76 75 81 64 84 124 126 122 94 53 68 93 101 116 125 132 142 144 163 169 174 181 179 181 182 179 183 189 189 191 190 197 190 190 186 192 192 185 188 188 185 186 186 186 189 186 185 177 165 165 163 157 153 151 141 127 117 113 79 47 59 58 62 63 65 65 79 81 80 84 87 87 88 90 92 92 91 92 91 83 82 80 76 72 74 71 70 75 70 74 75 74 70 76 73 72 84 124 125 120 109 69 57 72 83 98 108 118 130 141 152 164 173 173 176 178 177 176 181 183 188 189 191 198 193 193 193 195 190 185 190 190 184 187 192 184 186 188 187 174 168 161 165 153 147 148 134 120 111 94 57 49 58 56 63 61 63 68 76 81 80 85 87 83 87 90 92 90 90 89 92 82 80 80 77 76 72 72 70 74 70 72 71 76 71 77 78 59 81 126 122 112 115 85 60 63 68 78 93 100 115 131 143 159 171 168 172 175 179 164 181 176 188 186 191 194 196 192 196 196 187 186 188 192 190 181 188 184 185 186 181 172 166 159 166 154 143 138 125 102 91 67 54 56 57 55 64 61 64 72 78 80 81 83 87 86 90 87 86 93 87 90 91 82 80 82 78 75 77 71 73 76 70 74 75 72 73 78 82 50 79 128 122 120 114 95 65 66 63 66 71 85 92 116 136 147 158 165 163 169 177 171 182 181 185 188 190 191 194 194 193 191 185 185 188 187 192 181 187 188 185 178 177 175 160 159 156 150 145 129 108 105 79 31 62 63 57 55 60 62 61 75 78 77 84 83 86 88 86 91 87 86 89 90 89 76 83 76 79 76 75 72 71 74 69 75 72 73 74 76 79 48 82 131 121 125 113 102 76 64 62 66 67 67 71 90 115 138 149 163 163 170 168 164 177 184 183 188 187 185 192 190 185 184 180 182 184 185 185 190 184 187 177 170 174 172 160 159 154 149 133 119 86 108 95 16 41 54 73 60 60 58 70 76 78 80 80 84 85 87 87 87 89 86 88 87 89 82 82 85 81 74 76 73 72 74 72 76 69 76 73 72 82 39 86 131 123 124 116 106 87 66 68 61 66 65 64 65 88 113 138 153 160 169 167 160 168 177 179 182 181 185 189 184 182 179 176 178 180 180 182 187 187 185 174 164 162 163 157 147 151 135 127 98 88 121 95 7 35 37 59 79 64 61 70 75 78 80 80 83 86 86 86 87 90 88 89 87 88 79 88 79 80 80 71 81 71 77 68 73 78 71 77 78 79 33 93 130 127 122 119 105 96 78 64 65 70 65 65 63 70 86 120 131 157 155 159 160 155 166 168 179 177 179 183 180 176 166 165 169 176 175 178 181 181 176 166 154 153 149 143 143 139 124 104 93 97 128 88 7 31 33 43 59 75 71 73 76 81 77 84 84 83 83 86 84 89 84 89 86 87 84 83 80 84 78 75 79 76 73 72 72 74 73 76 84 82 28 98 130 133 126 122 118 101 84 72 66 64 67 69 60 63 66 80 113 135 146 141 154 144 154 166 170 168 174 166 174 162 161 153 159 163 167 166 169 163 161 153 147 142 139 135 135 127 106 95 100 99 128 92 12 25 36 38 44 61 79 74 73 78 77 81 82 83 82 87 84 85 87 86 89 81 87 85 81 81 76 75 76 76 72 72 77 68 67 76 88 77 22 90 136 132 128 128 123 105 93 79 69 65 65 70 64 63 64 58 80 103 132 130 135 135 146 150 154 160 163 164 161 149 145 144 144 151 153 148 151 147 144 144 135 135 130 121 121 108 83 102 99 103 126 89 9 25 33 34 38 50 67 82 73 81 80 82 82 82 83 86 86 85 87 84 86 83 88 86 81 82 80 82 79 79 75 70 68 67 69 85 87 78 23 98 136 138 137 130 128 117 101 84 78 65 66 69 64 64 63 66 61 62 100 113 113 117 123 131 137 137 141 145 140 131 135 133 130 133 138 138 134 135 126 127 128 121 116 112 110 83 89 104 101 107 127 90 6 30 32 35 36 46 56 64 78 80 76 83 82 87 83 87 86 86 86 83 84 85 94 85 82 85 80 83 73 78 69 69 68 70 80 85 87 74 26 106 133 145 140 139 135 123 106 92 82 70 71 66 66 65 65 66 62 61 66 82 98 103 104 112 117 116 113 118 119 119 115 117 110 114 118 118 112 117 109 111 113 109 104 101 72 88 91 101 103 109 129 95 4 27 36 30 38 41 49 57 75 86 78 81 82 83 86 81 89 85 83 85 86 85 94 93 82 80 80 76 72 75 76 74 71 77 78 96 80 71 21 113 129 140 143 145 141 131 117 101 93 80 69 70 67 62 68 65 65 60 62 64 66 78 80 87 87 97 89 94 90 92 86 78 79 79 82 88 91 90 91 83 85 83 77 70 72 92 94 105 105 110 128 92 5 19 33 32 30 43 37 53 65 74 83 76 79 83 85 81 83 83 82 82 83 84 94 93 86 85 79 79 71 76 73 78 73 80 82 95 81 66 24 121 134 133 147 145 144 142 123 113 96 88 73 71 67 69 65 67 64 68 63 63 59 66 62 69 67 72 71 68 73 70 60 62 70 61 68 65 68 66 62 65 67 64 71 73 82 93 97 105 110 107 126 104 26 14 26 34 34 33 45 42 60 68 83 81 80 81 85 84 82 83 86 82 87 79 