P2
92
112
255
121 120 122 119 119 120 119 119 121 116 122 119 116 119 119 120 119 117 126 126 137 158 156 171 152 142 156 180 174 163 165 149 155 144 128 144 143 137 124 130 121 120 114 115 122 116 105 109 123 124 116 120 113 117 116 117 127 117 121 122 124 127 124 114 119 116 115 126 118 120 120 115 119 115 115 117 116 114 118 114 116 113 119 113 113 114 113 114 113 116 113 112 120 121 119 120 120 121 121 120 121 122 121 121 117 126 135 128 121 128 131 142 155 153 162 182 168 167 175 166 160 164 155 149 153 136 134 139 137 133 131 126 120 127 108 118 117 117 104 104 107 118 118 114 110 108 118 121 122 118 122 122 125 123 120 116 115 121 116 120 123 126 116 128 118 115 116 118 112 116 114 115 117 116 116 116 114 114 112 115 115 115 115 114 120 122 120 121 120 122 119 121 119 122 123 122 117 129 141 125 130 148 136 133 145 156 183 162 147 176 167 161 179 183 168 164 157 148 139 140 132 125 120 120 119 125 106 115 112 109 104 93 94 110 111 118 107 98 113 127 119 119 123 127 123 118 115 116 119 119 117 120 116 124 127 123 128 125 123 117 117 117 114 115 115 116 116 114 116 114 111 117 113 115 114 115 119 123 119 122 118 120 119 117 120 121 123 121 123 120 125 134 137 135 121 137 152 157 147 162 173 190 177 177 191 200 177 169 144 137 127 126 130 130 110 111 115 105 111 104 106 93 98 79 86 96 99 112 103 96 110 122 126 116 125 134 124 118 117 116 122 116 121 120 116 120 125 124 129 121 117 117 117 122 116 114 117 117 114 113 116 115 115 116 111 117 113 114 119 122 115 122 120 121 121 121 116 130 120 128 128 116 116 133 132 131 128 141 160 146 154 187 190 174 176 190 189 182 170 163 136 133 120 121 133 129 110 106 103 100 102 92 94 98 93 93 88 100 98 106 110 100 96 112 107 118 138 139 127 129 122 119 125 117 114 121 115 125 122 129 125 117 117 114 117 119 116 116 123 115 114 117 113 115 113 115 115 114 114 116 118 122 119 121 124 117 120 118 116 137 115 119 120 119 127 128 123 136 134 141 167 167 178 180 166 179 180 172 158 144 134 135 130 142 125 103 134 140 106 109 107 95 105 105 98 99 99 99 114 103 101 106 107 115 113 105 105 104 111 107 133 131 119 126 128 116 117 118 115 130 120 131 119 122 123 117 116 118 114 114 115 120 112 116 115 113 113 115 114 115 111 116 121 121 121 119 125 119 119 125 119 122 118 115 117 128 130 128 130 133 144 147 160 162 167 171 161 171 164 140 138 129 131 123 112 151 151 120 126 139 113 114 111 105 110 122 108 102 104 108 114 107 117 119 139 137 130 124 128 126 111 113 120 90 114 113 124 124 117 122 119 129 120 127 119 118 122 119 122 115 120 116 114 118 115 114 115 117 116 114 114 112 115 118 122 124 118 121 121 122 119 120 118 121 120 119 126 135 128 136 126 135 134 151 169 172 191 183 171 165 158 140 140 139 139 126 108 120 127 120 126 130 111 104 116 111 110 100 104 105 105 113 115 106 107 115 114 123 128 118 137 135 135 137 120 89 107 114 114 130 120 125 127 121 123 115 122 113 122 119 128 121 121 122 113 119 115 117 113 119 112 115 115 116 116 108 119 122 119 119 123 122 117 125 116 120 132 125 132 127 137 141 144 150 158 200 197 188 186 160 133 141 130 117 113 110 128 124 123 120 109 113 121 118 105 98 128 108 106 110 108 110 111 111 109 99 109 113 107 112 118 117 115 124 139 136 134 132 126 119 109 115 117 121 119 114 119 112 127 121 134 122 126 119 118 120 116 117 117 113 120 115 117 115 115 111 117 111 121 124 115 123 120 122 116 125 118 123 132 128 126 122 126 145 169 183 187 195 179 175 173 149 126 127 120 107 113 103 116 105 127 142 140 121 125 111 101 99 131 107 102 112 111 128 128 118 105 98 110 112 104 110 113 117 109 118 130 139 152 137 148 148 134 127 127 115 119 126 113 119 125 121 127 117 121 117 113 113 118 117 116 113 120 117 121 112 114 115 112 115 122 119 124 121 118 115 124 122 126 118 131 133 121 133 145 159 165 165 175 191 175 164 169 152 146 131 122 116 118 105 121 118 135 129 135 128 124 123 111 124 128 122 119 129 128 131 132 126 120 112 109 109 112 118 113 114 122 121 128 139 144 145 145 151 154 159 147 133 116 113 110 118 122 120 121 116 114 127 116 112 120 119 115 120 112 115 119 115 112 119 113 114 120 124 122 122 120 120 124 125 121 126 133 128 138 161 166 148 175 179 196 191 168 150 137 138 134 119 111 111 112 113 121 132 140 136 138 124 131 131 124 133 139 131 127 140 135 127 128 130 125 124 117 110 109 117 117 106 104 104 109 122 120 125 127 135 148 161 158 158 138 138 120 113 121 119 134 121 113 131 118 125 119 121 116 124 120 116 116 115 114 115 111 116 123 122 120 121 119 128 125 125 119 135 128 129 152 165 154 162 179 202 207 181 148 126 113 110 104 117 104 112 119 125 128 142 142 142 136 130 139 136 137 144 152 155 141 148 142 141 141 130 133 131 128 117 110 118 117 109 109 105 95 106 106 113 114 116 133 132 150 157 152 148 159 129 119 117 127 110 116 123 122 126 130 128 117 131 122 123 120 113 117 115 117 118 124 121 124 114 132 132 131 122 126 127 134 155 163 158 160 174 178 200 195 162 126 107 123 107 110 120 111 131 134 140 142 147 145 147 148 155 149 150 159 161 155 162 153 154 150 153 151 145 139 142 137 135 120 130 135 121 119 125 112 96 103 104 116 96 132 128 141 150 160 155 152 162 138 118 131 120 121 115 122 129 129 130 128 127 138 120 125 118 117 114 118 115 122 121 120 124 131 124 126 118 133 138 135 173 147 151 172 166 177 189 164 128 119 123 122 112 108 119 131 140 154 161 157 165 161 163 162 170 168 162 171 170 166 169 165 167 158 166 164 162 156 154 149 154 135 139 144 133 137 137 136 125 118 107 121 91 113 129 135 142 152 157 169 152 164 152 131 133 123 127 132 134 131 136 139 128 141 138 125 119 126 111 113 115 123 120 120 127 118 122 128 139 148 140 151 163 150 170 169 167 181 169 123 117 133 125 121 123 120 134 150 157 166 174 179 175 181 182 175 171 180 178 176 171 180 177 174 177 175 171 174 172 168 167 160 158 154 149 146 133 138 138 140 138 129 130 118 104 97 123 134 130 151 154 146 150 155 154 161 135 132 139 143 149 133 123 131 124 136 148 136 124 121 113 117 114 121 123 118 129 114 138 140 130 142 145 158 152 169 166 162 165 169 147 112 118 130 118 125 128 133 149 165 171 180 186 187 182 183 188 175 185 184 183 177 177 185 181 186 185 187 184 182 182 183 180 175 169 164 165 153 154 142 136 143 143 141 136 126 116 93 114 118 140 134 144 151 149 155 148 162 168 135 150 145 156 151 131 124 131 145 137 155 126 127 116 113 115 122 120 125 122 127 132 148 164 148 146 147 168 160 168 147 165 155 128 119 129 125 116 132 146 143 170 170 184 190 192 190 189 180 186 188 190 192 184 179 185 183 188 187 191 192 195 191 192 195 195 193 188 175 178 179 173 167 152 148 141 142 141 125 120 108 100 101 121 139 140 150 153 148 151 146 159 160 146 140 140 148 138 139 133 150 135 132 149 130 115 110 119 124 123 122 126 147 164 164 136 138 150 165 167 162 139 137 162 151 136 122 121 112 124 128 138 162 177 175 190 194 195 190 192 189 192 194 195 193 189 182 191 188 185 194 197 197 200 199 198 200 198 197 196 189 187 193 186 181 171 165 151 156 144 136 131 122 107 113 98 124 143 158 157 152 142 144 153 163 168 138 131 130 138 140 122 133 143 142 144 145 108 115 110 142 140 133 148 156 136 109 119 144 164 154 145 145 124 154 157 139 122 117 128 109 109 134 137 173 183 182 193 198 196 194 194 193 194 195 197 194 192 194 195 191 182 197 198 200 199 200 200 201 198 196 198 197 198 200 198 193 190 188 182 170 167 152 147 142 117 119 102 119 117 149 170 166 148 142 146 152 172 155 135 132 122 133 131 126 134 151 143 136 113 112 114 141 147 141 138 114 113 120 141 149 138 144 133 139 160 174 168 134 126 125 114 114 111 130 148 175 189 186 196 199 195 196 197 195 192 190 196 198 200 201 202 195 193 197 199 199 198 200 199 200 198 195 199 200 201 201 201 198 199 196 194 188 184 175 172 152 141 111 132 106 126 109 147 164 165 158 146 146 158 173 146 142 134 119 125 122 128 146 156 135 139 111 114 144 140 129 111 122 148 134 136 137 125 142 147 172 180 164 166 139 127 124 112 110 106 116 157 178 191 185 200 198 192 194 199 194 191 194 198 200 203 204 205 200 198 197 198 197 200 199 196 200 198 195 199 201 200 202 200 200 201 199 197 193 194 190 187 170 153 130 146 115 126 114 106 151 162 166 148 146 155 161 165 134 148 127 123 122 129 136 152 142 136 115 107 154 136 118 125 162 175 155 148 157 156 165 179 195 171 160 154 138 123 117 117 118 105 111 167 178 186 190 197 197 192 199 198 193 197 195 201 200 202 205 204 200 197 194 198 195 198 197 199 199 199 197 199 200 200 201 202 201 199 197 199 195 193 198 195 188 168 145 149 129 120 134 110 121 141 145 153 147 162 152 181 140 121 133 130 145 148 138 145 141 137 117 111 140 115 105 124 181 196 193 184 164 160 199 202 186 168 162 150 134 124 119 124 126 119 110 166 180 187 195 198 195 194 197 200 198 199 199 198 201 203 206 205 199 197 195 197 195 198 197 200 198 199 198 198 201 200 200 201 201 198 198 196 196 194 200 197 190 181 164 137 144 128 127 131 122 129 133 139 140 155 158 157 192 115 121 123 139 167 160 149 148 145 115 113 107 95 101 145 194 186 185 139 154 210 208 213 196 166 152 140 129 121 116 112 131 128 115 160 184 191 194 196 198 198 196 199 202 201 201 201 201 202 205 205 199 198 194 195 197 196 199 198 197 199 199 198 200 200 199 201 200 200 196 196 192 197 200 195 191 182 175 150 137 117 132 118 129 145 146 146 143 142 166 166 186 177 128 124 125 129 186 170 153 172 142 108 94 102 112 137 143 149 127 134 202 213 209 212 181 143 128 151 138 128 119 114 127 134 123 160 187 192 192 194 198 195 198 199 200 202 201 200 201 203 202 202 201 197 196 197 196 197 199 199 197 200 198 200 199 200 199 200 202 196 197 192 189 196 199 193 192 185 180 169 144 132 109 113 115 134 159 152 146 138 152 177 182 189 162 138 127 105 125 182 154 140 146 130 92 109 107 109 126 127 133 173 197 204 211 192 148 130 136 140 129 127 126 127 122 136 130 160 188 192 190 187 199 194 196 199 201 201 202 202 202 203 204 200 201 199 199 196 199 197 198 200 202 201 196 201 200 199 198 197 197 198 196 190 191 193 193 194 192 186 180 176 156 149 108 120 101 121 143 163 155 140 143 169 190 190 178 175 137 130 88 139 164 153 119 115 105 104 87 111 128 153 155 160 179 172 165 167 147 144 148 128 136 132 134 137 132 127 134 160 186 192 187 188 193 194 196 198 202 202 202 202 197 202 202 201 200 200 200 197 197 199 198 199 201 201 199 199 199 196 200 198 196 195 196 193 187 189 191 189 192 189 179 182 169 150 124 110 106 116 136 152 148 151 150 156 183 192 190 182 169 158 137 103 117 145 123 105 106 92 97 123 157 168 139 144 161 132 149 191 185 166 143 137 129 133 126 147 140 129 143 166 189 190 190 192 192 193 194 200 199 201 200 201 199 200 202 201 201 200 201 200 197 198 199 197 202 200 200 199 198 196 199 197 196 197 193 191 190 190 190 191 191 184 179 181 176 150 133 110 107 114 132 158 134 145 154 162 175 183 184 173 145 150 147 117 103 124 122 98 95 80 108 128 123 130 126 140 142 121 163 186 163 160 154 125 103 122 125 131 136 129 149 163 193 193 192 196 191 192 198 199 201 200 200 200 202 201 202 198 199 201 200 199 199 199 198 197 201 200 200 200 198 197 198 194 196 194 192 191 192 192 186 189 190 183 179 183 178 155 133 117 118 89 116 165 158 130 155 171 173 183 165 156 155 136 128 114 110 107 117 104 81 93 116 113 120 125 125 144 127 124 135 125 137 136 120 103 109 117 133 131 132 134 154 161 194 194 192 197 194 193 199 200 201 201 201 200 201 202 202 198 200 200 201 200 200 198 196 200 200 200 202 200 198 199 198 198 197 194 195 191 190 189 187 190 188 183 180 182 176 157 132 115 120 103 88 140 159 134 149 163 181 160 178 149 140 150 119 120 96 84 109 110 76 97 111 112 123 115 129 134 124 117 111 115 129 127 114 120 115 117 124 130 136 140 158 167 187 194 191 194 194 194 199 196 195 200 200 199 201 202 201 200 200 200 199 201 198 198 200 198 200 199 200 201 198 196 200 199 199 192 196 190 190 190 186 189 186 183 180 174 172 164 131 122 98 124 89 104 152 131 141 158 187 173 147 159 126 136 128 125 106 88 84 117 75 90 110 120 114 114 130 126 114 114 111 114 117 128 120 132 132 128 124 132 130 141 150 164 185 189 191 193 193 195 197 194 195 200 198 199 202 198 199 201 199 199 199 200 199 199 200 200 200 200 200 198 198 200 197 199 200 194 192 191 189 191 187 188 187 182 178 170 164 162 133 122 98 93 116 90 106 154 132 161 184 192 148 132 129 123 118 108 107 99 93 106 65 85 112 121 117 110 125 121 101 110 109 115 121 124 123 145 142 136 132 133 129 139 157 167 185 188 191 194 194 194 197 196 200 200 199 197 200 199 198 201 200 200 198 201 200 202 201 201 198 200 199 198 200 201 197 198 198 198 193 190 189 190 189 187 185 179 177 166 159 157 129 118 106 74 100 104 72 112 139 149 194 181 157 121 129 124 113 96 102 93 103 105 62 87 107 125 116 109 117 110 96 100 110 110 113 122 124 148 147 142 143 139 137 149 175 181 185 186 192 192 193 193 197 198 200 200 196 199 200 200 198 201 198 199 200 200 200 202 201 201 201 199 201 200 199 200 198 194 193 196 197 192 191 185 190 186 188 176 173 164 158 152 130 114 108 90 71 97 94 69 110 150 164 184 146 132 112 120 115 92 93 95 97 112 77 77 110 134 113 108 114 102 91 98 106 104 124 129 128 152 148 142 142 145 140 164 185 184 186 187 192 193 193 191 199 202 201 201 201 200 202 199 199 199 200 199 200 201 200 203 201 201 201 199 199 200 199 201 199 195 192 197 195 193 192 188 187 190 187 176 173 160 155 149 128 119 106 99 77 70 95 90 86 121 154 162 148 132 115 106 109 102 92 106 96 99 81 74 104 139 115 109 120 95 92 94 107 106 137 125 126 155 150 146 142 146 152 174 186 188 185 189 190 192 191 195 198 201 205 203 202 201 201 199 199 200 198 200 201 199 202 203 203 201 199 201 200 199 200 201 202 196 192 199 197 194 191 191 190 189 186 174 165 164 154 146 124 123 109 93 84 64 68 93 78 103 136 167 142 127 116 97 110 103 105 107 103 103 80 91 98 136 122 114 128 103 80 86 103 114 140 126 131 157 148 146 144 151 173 188 190 180 185 187 190 194 193 197 203 203 203 202 202 201 199 200 198 200 197 201 201 202 202 204 202 202 201 200 200 199 197 201 200 195 193 197 198 193 192 192 195 191 188 174 162 161 153 140 125 126 113 96 88 65 63 69 73 87 106 146 141 122 124 95 107 107 96 112 96 103 75 94 98 137 133 114 133 117 76 87 105 119 137 126 133 162 144 133 150 155 183 192 190 181 182 188 190 194 194 201 200 203 205 204 201 202 198 200 198 199 198 199 199 202 203 204 202 202 202 199 201 198 196 200 200 196 199 195 198 190 193 192 197 192 188 176 163 150 149 145 126 126 116 106 85 64 58 63 61 84 108 112 144 122 119 97 105 105 102 108 103 108 82 83 88 127 139 128 132 138 95 80 108 128 133 126 143 154 147 138 153 168 188 185 185 182 182 185 187 194 195 200 200 200 204 201 200 198 200 197 197 198 200 199 197 201 203 203 201 200 204 199 199 196 197 199 199 198 199 196 193 191 192 192 193 193 190 176 164 156 143 145 131 126 118 107 87 68 51 64 43 56 98 115 127 121 116 98 90 105 113 95 95 111 100 90 81 118 139 138 148 157 127 92 103 133 133 127 149 154 145 143 164 179 181 180 176 178 183 181 180 192 191 195 199 199 199 200 196 196 197 197 193 195 200 197 197 199 200 201 202 199 200 201 197 196 196 197 195 196 194 192 192 188 189 190 189 194 191 180 167 158 148 148 131 129 122 105 90 69 52 60 41 45 73 119 126 114 109 104 86 100 111 82 110 112 110 96 95 86 139 138 173 164 157 126 111 134 131 131 157 147 142 151 166 184 167 171 170 173 167 176 181 183 188 192 197 192 194 196 193 191 194 194 191 194 193 195 196 197 199 199 200 192 195 198 196 195 192 193 191 189 188 188 186 184 185 187 185 189 190 179 172 162 150 148 138 133 128 113 96 75 56 59 44 44 56 98 128 111 111 97 87 86 93 93 113 113 114 108 106 93 115 137 126 137 152 157 139 128 127 127 149 147 141 155 167 172 167 162 159 162 159 169 179 177 184 182 191 185 185 190 193 187 188 191 189 191 192 194 193 194 194 195 196 187 191 194 194 188 191 190 186 183 178 177 174 170 170 175 173 179 182 180 178 165 157 146 139 130 127 118 101 81 52 62 46 55 53 78 123 110 104 97 86 86 104 92 108 110 114 114 111 93 75 135 128 124 122 146 171 176 175 161 177 166 152 154 164 160 155 147 141 146 147 157 164 173 175 178 180 180 185 184 188 185 185 186 184 185 190 190 189 193 190 191 192 184 185 189 189 182 185 185 178 172 170 162 160 159 156 171 166 170 174 178 170 168 166 149 143 133 129 119 107 85 69 57 40 59 56 85 110 105 101 88 79 93 90 96 111 109 115 117 111 116 50 84 128 116 114 104 124 149 150 148 153 146 141 128 130 130 137 121 115 111 119 123 119 136 142 144 160 169 174 177 181 182 182 182 181 185 183 183 183 185 184 182 183 183 181 181 179 178 176 167 162 156 160 151 140 143 144 153 154 163 161 166 166 162 163 161 145 133 132 124 109 101 68 58 39 67 53 90 99 107 97 89 81 75 71 103 109 106 114 113 114 123 80 40 67 111 140 133 120 129 126 122 113 116 117 116 116 117 117 107 98 101 98 101 97 105 113 114 122 143 154 163 173 177 178 178 179 182 184 182 175 177 179 174 176 175 176 174 167 163 163 153 151 138 135 122 111 116 121 120 126 135 138 145 142 143 141 143 147 135 130 125 112 110 82 52 42 66 56 90 103 94 95 96 68 70 68 103 110 106 111 116 116 117 101 61 43 56 99 128 141 139 128 133 122 128 127 125 126 121 112 106 100 94 87 93 89 92 94 97 103 110 130 137 149 160 170 171 180 179 181 181 172 171 174 172 168 156 160 155 150 145 133 128 121 111 104 96 91 93 99 105 107 110 109 118 118 125 132 132 135 135 134 125 117 116 97 62 45 73 55 97 94 82 93 90 92 61 73 104 110 112 112 117 117 116 99 70 65 62 90 100 124 122 120 122 124 125 125 124 121 120 111 110 104 101 98 94 96 91 94 93 93 106 112 121 130 144 154 160 175 179 175 178 172 173 172 164 159 142 144 140 131 115 106 105 102 90 92 89 88 88 99 107 109 110 117 114 120 118 127 126 131 131 133 129 120 116 114 71 54 81 75 104 91 77 92 77 95 61 79 107 112 111 117 112 120 118 108 56 49 86 99 105 121 105 118 121 113 115 112 115 108 108 107 99 91 90 90 83 89 87 96 99 94 98 109 111 125 133 140 158 165 175 176 178 175 171 167 155 144 131 124 124 117 98 97 95 92 92 94 95 100 99 105 105 112 118 123 125 130 128 127 122 125 125 126 134 124 118 115 87 65 79 81 106 88 82 86 84 80 81 86 106 111 110 113 114 114 123 107 47 52 86 97 110 123 96 120 120 106 103 104 95 88 78 85 76 78 68 70 75 83 68 71 83 99 103 102 107 118 127 135 157 169 180 182 187 182 180 163 146 134 124 115 110 102 99 101 99 95 90 82 86 84 86 91 93 98 100 111 122 118 131 126 128 129 121 128 130 128 125 115 84 75 104 88 100 90 90 83 81 77 86 87 108 110 113 114 116 114 120 114 52 64 74 93 116 121 94 126 117 106 106 90 76 70 74 81 104 80 62 47 50 68 82 83 77 82 95 101 101 113 115 132 159 180 190 189 188 185 180 162 135 121 116 107 105 101 100 96 81 76 75 75 77 68 75 80 80 83 82 91 104 115 122 122 127 129 127 123 127 127 126 117 89 61 94 94 88 92 79 73 73 57 101 102 111 107 109 115 110 116 125 130 65 62 83 86 129 113 101 132 115 106 102 69 71 79 75 125 150 64 77 69 43 51 81 94 92 88 85 92 98 106 107 130 172 191 198 198 196 196 185 158 126 113 104 103 99 100 86 74 86 81 87 67 53 50 50 60 75 71 87 89 74 94 112 115 122 125 125 127 125 119 129 116 90 72 73 89 95 79 54 56 54 73 107 110 111 108 107 114 112 128 147 157 86 69 75 83 138 113 111 129 122 107 97 71 71 64 106 146 145 67 61 44 48 57 79 121 91 86 100 87 86 105 102 129 183 199 200 201 199 198 191 162 126 108 103 103 90 89 80 76 86 86 118 63 62 57 45 83 76 117 75 70 92 73 100 114 124 123 123 124 126 119 128 115 92 68 73 77 84 80 47 44 72 97 108 111 110 110 110 112 117 142 141 152 132 59 81 92 141 124 131 140 126 110 99 80 66 75 116 153 143 76 71 47 55 58 91 129 109 83 83 109 84 95 117 141 188 199 203 200 199 199 190 166 129 117 109 98 91 96 81 72 92 114 129 58 65 39 35 61 45 143 111 63 82 76 87 106 118 122 129 125 129 121 121 113 85 60 76 92 81 64 51 58 93 107 112 110 109 108 112 102 122 116 79 128 151 72 78 100 146 136 147 158 136 113 111 96 95 108 121 145 158 97 81 90 86 77 122 120 105 92 84 108 96 99 146 165 183 196 203 200 196 197 192 161 124 132 117 110 120 90 73 71 98 120 136 76 77 54 40 62 67 136 126 86 73 75 91 104 109 121 130 127 128 124 112 109 86 73 81 83 72 71 63 77 97 105 112 110 110 109 113 105 133 94 53 63 152 94 76 109 154 146 158 169 156 138 136 127 105 124 142 152 177 159 142 143 138 138 146 131 114 114 112 107 102 131 171 168 186 196 201 200 194 198 195 162 123 134 128 123 138 108 104 90 98 106 125 103 70 71 68 58 107 125 123 115 96 91 97 108 112 125 132 132 133 131 113 109 93 87 78 88 65 85 105 106 132 127 112 108 106 113 112 102 136 96 69 65 96 127 66 116 155 162 172 174 170 163 158 142 111 130 148 156 161 156 167 168 154 151 146 143 135 136 128 122 141 172 177 167 186 199 202 197 197 198 190 141 132 141 140 127 133 129 117 117 110 119 115 127 113 116 104 114 129 133 134 135 125 125 118 115 116 132 136 138 137 136 120 117 105 95 87 73 76 111 135 142 144 155 141 107 112 109 112 109 144 92 75 84 69 115 86 127 160 162 181 180 174 164 160 149 134 131 140 150 154 149 144 149 136 139 139 145 139 150 145 145 175 183 173 167 184 200 199 195 195 198 186 136 129 151 161 143 123 121 114 114 118 120 119 120 131 127 132 131 142 148 143 147 137 141 140 137 130 138 143 141 142 135 132 130 103 93 91 75 105 132 131 128 127 128 136 128 104 112 107 116 151 103 97 90 100 107 89 132 159 166 179 188 175 169 161 159 152 146 139 147 155 147 146 155 150 157 161 167 170 174 170 173 179 185 169 168 187 196 197 196 197 196 184 137 134 153 167 168 146 130 119 121 123 124 121 126 138 142 148 149 157 153 150 149 146 153 146 152 149 144 145 145 143 139 139 141 104 90 78 94 133 129 122 101 88 75 101 128 110 107 108 128 155 123 125 111 135 139 98 142 160 174 181 184 177 169 167 169 166 166 158 166 169 173 176 182 181 181 184 183 181 182 178 176 183 179 171 176 185 197 198 194 197 198 186 149 133 159 166 172 172 169 158 149 145 144 145 144 142 142 132 144 151 150 153 154 162 162 157 156 153 148 147 146 146 148 145 152 100 81 73 131 134 114 103 93 77 65 69 123 108 107 113 133 160 124 138 139 148 161 134 142 163 177 179 181 180 181 175 174 178 174 175 180 186 187 192 190 191 191 193 191 185 186 184 181 181 175 170 178 188 195 198 195 195 198 184 159 150 160 168 173 177 182 183 182 173 170 175 167 163 164 159 159 168 164 168 167 173 182 171 163 160 152 151 148 155 155 149 156 107 78 95 142 119 97 117 113 121 91 75 128 106 112 105 108 152 138 149 152 153 176 160 142 160 175 180 183 185 182 185 181 182 185 184 187 192 193 194 198 195 199 199 193 187 190 187 183 180 175 170 180 190 194 196 197 197 199 191 166 159 167 170 175 178 187 184 185 189 187 190 187 187 184 184 183 186 187 187 183 181 183 181 175 172 156 154 155 156 158 152 157 133 90 125 135 94 114 127 131 133 112 84 126 113 104 112 95 142 147 158 149 161 163 155 141 161 175 179 184 188 180 186 190 187 189 193 193 196 198 198 201 198 200 198 194 191 190 190 185 180 177 172 184 193 194 196 196 195 198 194 178 167 168 171 174 183 187 187 184 186 191 191 193 193 196 193 190 196 192 192 189 190 188 183 181 181 169 160 165 163 157 148 152 143 128 127 128 85 127 142 143 141 111 91 121 120 106 110 98 108 172 171 161 150 149 139 144 153 173 178 182 186 180 182 190 190 193 194 195 197 200 200 201 199 200 197 192 195 193 185 184 178 176 181 189 195 198 196 200 195 197 194 189 173 163 172 182 183 183 175 190 179 188 192 196 195 197 198 195 194 189 192 195 193 191 187 183 175 174 166 168 162 162 143 145 150 135 119 126 106 128 145 142 142 116 96 116 134 103 108 106 84 161 187 163 151 139 118 148 155 169 174 178 177 183 185 192 186 190 195 197 194 201 200 201 199 198 197 196 193 190 183 177 174 172 184 193 201 202 201 197 195 194 194 192 174 158 159 172 177 185 173 182 189 190 192 197 195 198 197 194 194 190 187 194 192 184 180 186 158 172 165 167 162 154 141 143 151 133 104 140 144 130 133 149 137 121 100 100 149 95 109 107 90 127 195 158 151 138 112 141 160 167 175 181 178 181 184 189 188 189 195 195 193 197 200 199 199 199 194 198 189 183 171 168 172 168 181 195 206 203 202 194 191 189 192 188 178 156 149 158 174 185 182 188 192 193 195 195 195 199 199 191 192 194 189 191 190 169 141 180 168 172 167 162 161 155 140 142 152 125 66 95 132 127 123 143 143 116 107 99 134 106 107 106 95 103 192 164 158 150 120 135 160 169 180 178 177 183 181 187 187 187 189 191 193 196 198 200 197 198 191 193 188 164 160 171 171 173 179 197 201 200 200 192 190 189 187 178 177 166 168 164 152 172 174 185 191 189 191 196 196 196 199 193 195 194 191 187 186 176 157 173 178 168 161 163 157 147 145 139 148 122 48 56 93 111 119 134 143 117 116 113 128 100 110 105 106 83 188 167 164 153 135 129 157 166 178 178 176 181 181 184 186 184 188 189 192 193 194 199 198 196 192 186 177 149 167 175 165 166 177 189 193 195 195 190 192 180 164 159 160 166 170 184 155 149 167 182 186 187 189 194 193 195 194 196 190 193 189 190 188 179 180 178 177 167 163 155 155 146 143 143 142 137 59 62 90 98 120 131 142 119 116 129 108 108 109 101 104 86 176 175 167 163 158 126 158 167 171 172 177 177 181 183 187 179 182 185 190 186 190 196 195 186 181 176 151 159 170 166 148 139 161 177 183 186 183 178 166 147 132 130 143 153 161 181 169 134 146 177 180 183 188 192 191 192 192 189 193 183 187 185 185 180 180 177 173 162 156 150 153 146 142 141 130 183 76 66 87 90 111 131 135 117 127 127 101 111 111 104 107 84 156 178 164 172 172 123 152 168 167 166 172 172 176 181 179 177 177 179 185 183 188 191 189 183 171 165 152 166 165 152 140 118 128 158 167 165 168 158 136 118 118 118 133 139 149 168 164 124 142 168 172 180 184 192 188 190 190 186 189 185 183 179 178 176 179 176 172 160 149 147 151 147 141 142 127 188 112 70 86 89 107 137 131 118 139 114 104 104 109 100 107 81 152 185 153 184 184 131 143 166 167 162 171 169 172 173 178 177 175 177 177 183 184 184 181 175 170 166 157 156 151 132 125 119 116 139 143 145 144 132 122 118 119 112 122 128 133 145 151 116 136 170 162 171 183 185 188 185 187 180 183 183 181 176 177 176 177 175 164 155 149 144 145 147 139 132 132 173 134 90 87 97 108 138 126 125 138 106 106 111 107 102 106 91 120 185 150 174 192 142 138 159 160 159 164 168 164 170 179 176 171 179 178 178 179 183 173 171 174 175 173 154 122 105 81 76 95 116 121 120 119 119 120 107 77 68 74 95 116 127 128 102 137 157 153 162 182 185 183 181 182 180 179 178 177 172 172 169 172 164 155 151 146 144 146 138 143 128 134 165 144 111 97 98 120 135 119 145 112 103 108 108 108 102 107 90 101 180 157 142 181 154 136 153 152 154 151 166 165 169 171 173 166 170 175 172 178 177 166 170 176 180 185 181 120 93 75 54 65 98 111 103 104 107 103 87 69 66 65 69 101 113 111 112 141 158 146 159 167 155 165 171 169 173 173 173 172 171 166 164 164 158 147 147 145 143 141 139 141 129 137 154 137 118 100 98 134 121 129 139 100 106 107 109 107 101 102 101 87 154 192 163 166 169 130 149 151 154 151 157 162 168 170 166 168 168 174 171 172 167 167 174 181 186 183 197 151 74 64 70 76 81 93 100 92 104 100 92 91 83 69 61 86 107 119 128 146 164 154 163 164 151 159 168 169 166 167 169 161 164 153 160 148 144 137 137 145 144 141 140 144 136 137 143 138 113 103 125 135 117 141 127 96 105 106 103 113 100 104 108 83 129 197 191 171 168 135 142 150 152 150 152 159 161 166 167 169 171 170 172 169 166 174 178 186 185 184 181 174 113 82 81 85 90 84 91 93 100 101 108 105 101 102 100 121 126 132 128 138 168 171 169 168 169 166 166 174 164 163 163 158 158 149 150 142 139 143 129 139 144 135 142 141 131 141 128 132 109 123 133 128 133 138 108 101 105 103 107 108 100 102 103 93 103 193 193 188 163 131 142 148 149 150 150 158 163 162 170 169 172 172 176 177 175 177 185 184 184 178 173 167 162 137 113 105 93 95 96 97 103 111 116 114 113 119 119 127 125 136 131 126 162 170 173 171 161 171 164 165 163 157 161 154 154 145 139 140 136 137 132 136 143 134 141 139 130 140 120 155 156 137 115 119 142 127 97 106 110 105 104 108 103 100 105 95 82 186 194 195 171 128 138 139 147 152 153 155 157 163 168 171 169 179 179 181 183 182 183 182 179 171 174 167 164 162 148 141 112 105 103 103 108 113 112 112 115 118 122 130 128 134 138 131 157 168 177 172 170 166 166 165 164 159 157 150 152 136 133 137 134 135 141 137 142 133 135 137 138 138 112 157 164 123 122 131 143 105 101 104 106 108 102 108 103 101 99 101 74 165 190 194 184 132 142 143 148 153 150 152 160 162 162 171 177 181 182 184 183 180 179 177 171 169 168 164 158 165 152 161 143 122 110 109 105 110 112 115 109 116 120 124 129 134 141 142 155 166 173 174 170 176 173 164 168 162 151 147 146 135 133 134 132 132 143 140 135 135 134 138 134 168 140 143 157 125 134 142 127 98 100 110 102 106 100 109 98 102 100 101 88 114 174 179 180 127 144 146 150 146 155 145 154 162 161 168 173 180 181 184 183 174 170 170 168 159 168 159 162 158 152 157 153 133 125 116 110 105 114 106 110 113 120 124 127 137 140 148 148 161 171 162 173 179 175 174 170 159 154 145 147 138 130 139 133 131 139 140 133 137 133 132 122 158 133 136 153 159 153 135 101 101 102 101 106 101 104 106 105 98 98 100 104 91 130 161 168 128 144 144 150 142 155 148 157 173 170 172 174 182 183 181 178 170 166 168 166 159 156 147 163 153 157 156 153 139 130 126 114 103 111 109 111 113 118 122 123 135 139 149 150 158 168 166 178 179 177 179 170 168 152 146 141 139 135 138 134 133 139 139 134 135 132 134 127 134 133 154 150 159 158 114 92 101 102 103 103 102 101 104 99 101 99 100 98 103 101 122 138 132 142 143 149 149 148 150 154 171 175 176 177 181 181 181 173 170 168 165 156 154 152 146 164 162 168 171 165 155 151 142 127 111 110 110 118 122 119 126 123 132 137 142 160 162 168 174 177 175 182 182 177 173 158 152 142 136 138 129 136 135 135 139 136 132 135 136 129 146 141 163 150 155 139 85 101 102 100 100 106 100 104 105 101 99 100 104 96 104 97 99 98 126 145 140 151 151 147 150 158 168 171 176 180 182 178 171 173 166 165 165 145 147 154 159 174 176 185 178 187 182 182 172 152 139 126 131 132 141 142 145 131 135 134 132 151 156 159 174 176 169 181 177 177 171 165 150 147 142 132 135 134 142 136 137 132 129 139 134 131 140 143 151 146 139 101 92 96 97 100 96 102 98 101 102 103 99 102 102 101 98 104 100 93 120 141 142 143 152 150 148 156 163 169 174 177 182 177 168 171 166 155 158 147 149 150 164 171 170 165 154 169 182 192 186 185 173 163 139 136 143 149 152 142 139 132 130 139 133 141 163 165 170 179 176 174 167 163 155 146 142 134 133 136 138 132 136 130 129 144 119 118 130 135 138 130 108 89 98 96 94 99 99 99 98 102 100 99 98 100 103 100 102 100 101 95 113 141 138 142 145 153 150 157 166 171 170 177 177 172 166 160 156 139 141 139 145 152 148 139 129 123 119 118 133 150 167 170 158 133 112 110 119 113 125 133 128 137 132 127 121 133 157 159 164 167 173 178 168 172 160 150 139 131 128 136 134 132 134 129 125 147 94 96 112 111 114 100 87 96 90 95 97 97 95 100 96 103 99 95 100 98 103 96 101 100 100 96 100 138 136 134 145 145 151 158 161 168 170 170 173 165 161 143 135 122 118 124 119 121 119 102 100 104 100 99 102 102 112 119 106 99 96 97 97 94 93 98 108 125 131 121 109 121 135 144 150 157 157 163 172 167 163 146 142 130 132 132 131 131 133 129 128 150 81 80 87 92 92 92 87 93 88 94 94 93 99 98 95 97 104 99 101 100 96 100 101 101 98 94 101 124 136 133 142 144 146 159 161 170 172 174 177 160 149 131 108 104 89 89 85 82 86 78 76 70 68 70 75 81 81 84 74 77 75 69 66 66 78 81 87 98 93 105 98 105 109 120 130 139 147 157 168 166 164 146 144 136 135 137 130 132 138 125 136 148 68 84 84 86 85 88 87 91 88 90 93 91 95 93 96 94 98 94 100 100 96 98 98 99 100 99 90 125 130 135 136 147 140 151 160 163 170 177 170 154 140 117 103 90 60 67 72 82 94 104 104 109 108 98 86 72 70 69 61 71 73 71 74 70 74 81 76 78 75 64 63 79 100 110 124 137 142 155 164 160 157 150 143 136 132 138 128 133 131 131 140 136 69 84 84 79 86 86 88 87 87 80 92 92 87 91 95 95 96 97 97 101 99 98 100 98 98 98 97 109 129 133 131 143 146 149 160 161 162 171 166 154 137 135 122 126 143 148 153 158 158 167 165 174 186 182 172 154 157 143 136 145 155 153 141 142 131 126 126 114 109 98 108 107 103 119 133 142 143 158 164 161 151 150 144 145 134 140 133 129 130 132 138 126 66 85 81 81 85 84 86 85 93 84 89 91 89 90 90 93 92 96 103 99 98 99 96 100 98 97 104 98 126 130 129 140 145 153 157 162 163 167 169 162 154 155 158 167 179 169 160 165 170 164 160 164 172 176 178 169 178 177 174 175 169 162 158 153 154 144 150 139 144 147 142 145 142 128 145 147 155 157 161 159 152 145 145 146 137 137 123 135 127 130 141 108 68 79 85 85 82 82 85 84 85 82 89 88 89 87 94 88 92 98 95 101 94 98 98 98 98 98 97 96 113 124 131 136 139 147 154 159 159 156 166 167 163 157 161 174 178 171 157 151 159 162 158 162 163 166 162 162 167 162 161 163 159 155 151 153 160 152 149 145 148 149 146 156 161 160 158 160 162 158 155 161 145 147 139 143 139 135 126 130 125 130 144 84 81 77 85 77 82 84 81 81 80 86 84 84 88 83 92 89 85 96 96 94 100 96 101 101 99 97 100 94 100 118 124 129 145 144 151 162 166 153 168 173 160 170 173 179 178 169 166 147 142 141 136 138 140 141 136 128 139 146 141 140 144 146 142 147 155 146 148 137 137 140 152 153 162 168 174 169 156 160 155 154 142 143 142 135 137 135 127 127 126 134 136 77 74 77 81 76 82 76 81 80 81 84 85 86 86 86 88 86 88 96 98 98 98 99 97 97 98 97 98 96 99 109 120 124 141 142 147 160 166 166 170 176 168 176 173 179 174 169 170 156 140 123 120 107 105 98 103 94 102 100 106 106 106 107 113 111 114 117 129 127 138 151 153 154 167 170 165 164 156 155 160 145 144 145 142 138 136 134 125 127 120 137 114 65 78 77 80 77 81 74 82 78 83 82 78 85 83 87 86 88 86 94 98 95 97 96 96 93 98 96 97 98 96 97 107 118 130 139 149 152 158 169 174 169 175 170 171 172 167 169 168 154 146 132 125 111 105 91 90 92 87 85 89 88 88 90 97 98 108 112 129 132 140 151 151 154 175 170 165 159 161 158 159 147 144 141 143 135 139 124 124 125 116 138 89 62 79 71 81 69 77 77 72 80 76 78 80 78 89 82 86 82 86 97 97 100 96 99 97 96 97 99 94 100 96 89 100 112 122 138 142 150 150 168 169 166 172 167 169 171 162 163 166 157 146 139 131 131 118 114 103 105 99 95 97 101 103 104 108 117 121 123 134 141 143 148 159 153 167 165 166 161 154 159 154 150 144 138 139 136 131 126 121 122 122 124 73 66 74 74 75 75 74 78 73 77 79 77 78 80 80 78 85 84 86 97 96 97 96 99 96 96 95 96 93 101 95 95 88 104 119 130 140 145 148 164 166 168 165 169 167 168 159 164 165 161 159 144 141 144 141 129 128 125 123 118 114 119 122 124 128 138 131 140 139 142 153 154 163 156 165 167 167 158 156 154 152 144 143 139 140 135 128 118 124 119 125 104 62 73 70 76 71 76 76 72 79 74 80 78 77 78 77 80 84 79 84 93 97 94 93 96 95 96 94 95 99 94 98 103 84 87 108 120 124 138 144 153 161 165 166 166 174 176 164 162 168 164 156 149 157 156 157 153 156 153 156 155 150 143 149 148 151 149 149 147 150 154 163 161 164 160 164 162 157 153 154 158 147 140 140 135 135 133 119 120 120 120 128 68 65 75 70 70 75 68 73 78 70 73 74 72 79 75 77 82 74 84 82 93 98 96 96 96 96 95 95 95 100 93 95 97 98 76 94 112 115 128 139 150 162 159 162 167 166 172 174 167 166 168 162 158 166 172 170 175 174 174 177 178 174 170 172 171 171 166 162 158 161 164 169 161 159 164 163 161 156 154 155 154 150 148 136 135 133 131 122 116 117 121 95 64 70 71 69 69 71 70 70 75 70 74 75 72 77 75 75 80 81 76 83 99 89 99 91 97 94 91 93 92 100 96 91 95 101 89 74 89 112 121 125 145 153 152 162 166 162 170 174 165 169 180 176 177 181 179 177 178 177 181 183 181 180 179 176 176 176 178 174 176 177 173 174 171 163 169 167 160 159 156 155 145 144 140 134 134 126 126 119 116 114 110 67 73 68 68 66 71 70 73 71 76 66 76 70 74 75 73 74 80 75 81 76 95 94 97 96 91 95 93 92 94 97 93 93 100 95 102 83 73 95 108 120 131 140 159 158 164 166 168 168 172 174 187 182 179 185 184 181 183 182 185 184 176 179 180 176 180 179 181 179 182 186 184 180 177 168 168 168 160 155 156 150 149 139 133 131 129 123 120 114 113 113 76 67 68 70 65 71 71 63 74 69 70 69 72 72 74 74 69 76 75 75 73 76 96 97 95 92 92 98 93 96 92 95 95 96 96 94 97 97 89 70 89 106 115 130 147 158 158 159 165 156 165 166 178 178 179 181 187 183 183 189 180 178 178 183 181 181 176 179 182 178 175 186 185 181 173 171 166 167 159 147 149 148 141 135 126 126 122 114 115 106 107 111 62 66 70 66 72 67 68 69 69 71 72 69 69 67 76 67 73 74 73 74 73 78 95 96 90 95 98 91 95 91 95 94 91 94 96 94 102 92 94 124 73 69 94 118 135 152 150 156 163 159 159 170 167 176 180 180 183 185 187 188 177 176 180 177 180 184 173 172 177 177 179 181 177 180 166 166 160 166 158 142 142 136 131 126 121 118 118 106 107 93 124 120 50 69 66 70 65 68 70 67 68 63 74 66 70 70 68 72 67 73 71 70 77 76 96 92 95 95 91 91 94 95 92 95 92 97 94 96 96 97 97 138 116 68 71 95 120 137 146 147 151 158 160 167 171 176 175 174 179 181 181 174 173 171 180 178 181 183 183 172 179 179 177 172 178 174 167 156 155 157 150 140 140 124 123 115 110 107 104 99 90 109 142 117 55 68 63 71 59 72 62 70 65 72 66 65 73 66 72 66 71 71 76 69 72 76 98 89 92 95 92 95 95 95 94 94 93 96 95 94 97 92 90 142 127 100 60 67 92 125 140 147 153 152 151 165 167 169 171 168 176 170 167 169 165 168 170 172 181 177 178 179 175 172 168 163 172 169 159 155 153 147 146 137 130 121 115 104 105 91 88 86 105 132 148 116 54 66 67 64 69 67 62 65 70 63 70 63 70 67 72 65 73 67 72 67 70 76 94 92 92 94 91 94 95 91 93 91 97 91 96 96 98 91 94 143 133 110 70 60 61 89 116 137 146 148 143 148 155 160 165 164 170 168 167 163 158 157 166 169 173 174 174 178 174 169 159 154 155 152 154 144 142 144 136 125 119 113 95 94 85 80 84 116 134 129 149 109 59 70 63 66 65 70 63 65 67 68 64 64 67 69 70 67 70 68 65 73 69 72 94 90 93 95 88 99 95 90 96 95 93 95 92 99 96 88 96 146 130 118 86 58 60 63 83 121 130 136 137 131 146 151 157 155 155 155 158 152 146 148 151 160 163 165 161 160 160 153 144 139 138 135 137 130 131 128 123 107 111 89 84 74 69 83 119 136 133 130 146 104 47 73 76 66 67 67 62 68 65 67 67 64 66 66 68 65 67 71 67 72 66 71 94 92 91 91 89 92 89 94 95 95 92 94 93 96 100 79 93 146 132 119 94 67 69 60 62 80 108 113 121 119 130 138 139 148 142 147 142 136 137 124 135 140 142 138 140 135 141 126 127 124 118 118 121 120 121 116 108 98 83 71 69 64 77 117 130 128 126 130 152 93 21 52 56 78 69 65 62 66 70 65 63 66 70 65 64 68 69 66 68 67 70 67 92 93 92 89 92 90 92 93 92 90 96 91 96 94 94 78 94 148 130 120 106 75 72 67 59 64 71 101 95 101 112 118 118 127 133 131 124 115 122 110 114 117 120 127 122 119 113 116 117 111 114 110 110 103 109 104 90 76 67 66 68 74 99 127 129 123 129 131 151 95 12 37 38 49 69 77 63 69 64 65 68 66 65 65 66 67 66 67 67 62 71 68 88 88 97 90 93 88 91 97 92 91 96 92 96 98 96 74 94 151 135 124 115 88 81 72 65 65 60 70 78 82 82 94 100 99 101 101 102 101 104 102 95 94 99 104 97 99 99 99 103 102 105 100 104 104 95 85 71 68 71 73 78 93 112 124 126 119 132 130 155 82 14 32 31 40 35 56 82 70 64 64 66 63 63 64 67 69 66 66 66 66 65 73 88 87 95 88 91 92 91 93 91 92 96 93 93 88 98 61 89 152 135 128 118 99 83 76 79 67 68 62 66 69 71 76 79 84 85 85 84 87 90 84 81 82 79 85 86 87 88 89 91 87 95 90 91 88 73 71 69 77 78 82 88 105 119 121 121 127 130 133 156 75 11 34 26 38 26 36 57 74 76 61 65 63 62 63 66 63 65 66 64 68 66 65 87 94 94 87 95 89 91 93 94 93 91 94 92 93 90 54 91 153 142 128 122 110 87 79 81 74 70 70 64 66 71 65 70 68 71 75 69 80 73 73 67 71 70 73 77 73 76 73 73 77 73 75 73 68 69 74 76 83 83 90 99 110 123 120 128 127 129 130 154 70 11 31 29 27 32 26 35 57 80 69 64 64 59 68 62 65 63 66 67 67 67 66 91 89 92 87 91 88 93 88 96 95 94 90 91 84 90 34 89 153 146 132 126 116 94 83 85 77 73 75 70 71 63 68 65 64 64 64 68 69 60 74 64 67 62 67 67 71 67 64 68 65 69 60 75 68 79 79 82 87 87 97 107 113 119 126 127 131 131 127 160 62 10 26 26 28 30 30 27 42 52 80 70 59 67 61 69 59 67 64 68 64 65 67 89 94 90 94 89 92 94 87 86 84 69 81 90 88 84 19 100 148 141 141 126 125 105 90 84 78 77 79 74 71 65 67 67 70 62 70 67 60 67 62 72 60 69 63 67 67 65 65 68 66 71 71 76 77 79 87 87 88 96 97 115 115 120 130 123 133 132 128 163 60 9 32 22 26 27 23 31 29 43 57 94 59 63 61 66 65 68 58 64 66 62 68 