P2
92
112
255
143 144 142 150 138 148 146 145 145 144 148 146 145 147 147 148 148 146 143 149 146 146 146 145 147 144 144 141 135 119 123 105 103 108 104 107 104 96 98 86 95 91 91 86 95 97 100 85 91 97 91 111 106 132 123 134 132 137 132 143 141 146 142 146 147 143 148 146 146 147 140 149 146 142 149 144 144 145 147 145 147 145 142 149 144 147 147 142 143 147 144 141 145 141 144 146 143 148 144 143 145 143 147 145 146 146 145 145 146 144 146 145 144 148 141 147 145 139 126 115 104 104 102 106 105 107 103 107 93 105 95 92 96 94 90 80 94 100 92 97 81 82 91 100 79 106 98 99 106 115 102 125 138 145 143 146 145 142 143 145 145 144 145 145 143 147 146 144 142 147 140 146 147 144 142 144 146 144 144 146 142 146 145 142 144 143 143 145 143 143 146 147 146 143 146 146 146 147 144 145 146 143 145 146 148 146 145 145 130 109 92 91 83 98 91 97 106 112 100 94 98 91 91 90 96 92 93 95 103 102 106 102 83 88 100 94 81 106 90 96 94 96 81 98 115 126 141 139 144 144 144 145 145 144 145 145 145 146 146 145 143 147 145 144 149 143 145 144 145 145 142 144 146 147 143 144 144 147 144 143 144 144 146 146 145 144 144 146 147 147 144 147 145 146 147 143 144 147 147 123 95 92 85 87 94 104 94 99 100 112 94 90 97 81 82 87 98 97 97 100 111 97 111 107 89 105 103 98 110 108 93 100 97 85 89 90 83 95 110 132 142 137 145 138 141 146 144 145 144 143 147 144 143 145 147 144 148 142 147 142 143 147 142 146 145 147 143 143 143 145 145 144 143 146 146 144 147 144 147 146 146 146 142 148 145 145 145 145 143 140 121 94 79 86 87 98 105 103 95 102 100 104 95 85 89 100 77 102 108 103 103 96 109 93 109 104 103 102 98 114 106 99 102 92 86 91 85 83 92 86 92 111 99 105 123 122 137 140 146 143 148 139 150 141 146 146 144 145 145 143 143 143 145 144 145 147 144 142 146 145 141 146 144 144 145 146 144 146 144 144 146 147 145 143 145 145 146 146 144 139 139 119 91 90 90 94 98 94 107 103 94 108 97 89 81 82 94 118 89 110 113 104 102 90 103 104 93 109 103 98 102 107 98 106 94 93 84 92 89 77 89 95 95 93 87 85 81 99 121 133 142 145 144 144 147 139 146 143 144 144 145 145 142 146 142 144 143 148 146 142 149 143 144 143 145 144 144 147 145 142 148 144 147 146 145 145 147 147 150 139 123 108 102 97 109 97 99 99 96 95 101 102 95 91 80 80 88 93 98 109 101 102 104 95 97 73 100 108 110 104 106 114 105 102 111 107 97 102 85 92 84 77 88 97 90 92 93 95 85 79 98 103 116 124 139 144 146 144 144 143 147 144 144 146 146 145 145 146 144 144 145 144 144 143 145 143 142 147 143 145 143 143 148 144 148 142 144 144 148 146 136 110 82 91 98 101 104 91 96 90 99 92 97 100 100 78 73 85 86 97 108 100 92 90 90 87 85 93 107 121 119 114 108 105 104 104 111 102 104 101 99 95 89 84 87 85 91 97 93 96 88 92 88 91 90 103 117 120 135 148 141 143 146 145 145 146 143 146 144 144 145 141 143 144 143 145 143 143 144 144 145 144 143 143 149 141 144 142 143 145 147 140 108 86 88 91 90 98 85 86 100 111 97 86 85 84 101 79 74 91 87 98 97 83 82 76 83 80 85 103 109 113 133 112 111 99 95 99 106 107 111 101 99 96 89 85 88 92 94 94 95 88 82 92 90 95 83 102 99 98 108 134 136 142 145 143 143 142 144 142 145 144 148 144 146 144 144 146 142 144 146 143 140 147 143 144 144 144 145 145 145 146 140 114 87 80 94 93 91 99 94 109 108 124 93 87 98 90 107 77 82 108 90 94 81 79 76 76 63 89 96 105 106 120 111 108 105 100 92 81 96 112 113 108 102 100 97 94 91 94 101 100 98 90 91 102 90 92 93 100 104 94 90 115 126 142 146 141 142 144 144 144 145 144 145 144 143 145 145 145 141 144 144 144 144 144 145 146 143 142 146 145 147 143 113 90 83 88 84 85 99 105 104 113 89 106 92 101 114 96 120 93 92 104 96 82 59 58 67 76 84 94 91 87 100 97 95 114 110 91 87 81 93 117 106 108 106 98 98 93 97 93 99 95 94 90 86 83 80 92 93 97 106 107 94 95 119 135 141 142 144 145 142 149 141 145 146 144 148 145 145 145 147 142 146 144 145 142 144 147 146 144 140 150 140 117 80 84 81 103 98 94 94 110 88 107 95 84 94 110 100 115 118 96 99 89 90 67 62 68 44 95 96 87 74 65 91 85 101 101 89 87 92 89 111 137 123 107 102 97 101 95 100 95 101 87 97 95 95 91 95 92 84 89 106 116 97 95 106 125 141 145 142 147 143 146 143 144 150 145 144 145 145 145 141 145 143 143 143 144 143 143 146 143 143 140 120 82 78 80 98 120 117 97 74 101 87 83 101 68 87 95 106 114 107 93 81 77 89 83 92 91 85 91 81 64 62 54 94 83 90 87 87 93 85 109 122 131 111 101 104 104 96 97 93 95 94 99 89 100 99 93 95 105 93 97 95 118 92 98 97 107 112 135 140 138 144 141 143 145 144 144 146 145 143 145 141 141 145 144 143 143 144 142 143 145 143 133 98 84 79 85 104 109 101 97 77 85 82 71 85 62 67 94 99 86 97 79 77 86 95 76 101 89 88 81 60 65 44 70 68 84 90 87 75 77 92 97 101 106 103 102 118 108 101 97 89 80 90 92 93 96 98 98 90 103 102 97 92 103 79 103 84 93 96 104 122 129 140 146 140 145 142 146 146 144 143 143 144 141 146 143 143 146 142 143 140 142 134 115 83 82 104 107 97 96 88 81 69 71 72 66 65 64 67 80 94 69 82 75 77 83 77 74 75 71 79 70 62 69 57 74 68 78 84 88 84 98 105 99 94 102 112 120 114 96 100 97 96 88 103 100 94 94 91 83 89 99 110 109 95 89 58 107 68 76 71 93 97 106 120 132 146 144 147 143 144 144 144 146 144 145 144 143 146 143 142 141 140 139 114 83 86 105 126 106 95 75 82 74 59 64 63 65 59 62 71 73 79 59 69 78 89 95 96 76 81 90 112 96 108 87 95 90 89 103 112 114 118 123 110 99 82 96 114 101 114 103 93 97 89 114 115 104 88 77 73 74 69 93 106 103 95 83 64 92 80 80 69 88 85 111 105 103 134 144 145 143 144 144 145 143 144 145 141 145 145 147 143 142 146 115 90 89 82 114 143 117 92 79 67 68 58 54 55 61 55 61 69 75 64 66 64 74 86 92 106 76 67 84 92 96 109 123 92 89 100 114 115 103 92 72 77 73 70 94 101 110 99 96 84 96 98 114 105 92 82 75 77 87 58 96 86 92 95 75 75 78 82 77 81 92 82 103 93 79 98 149 143 146 142 147 143 145 141 142 146 140 141 143 143 139 125 79 86 92 92 113 128 118 99 84 73 72 58 58 59 51 66 69 61 66 66 67 77 78 69 91 100 93 58 69 69 68 67 82 81 86 78 87 87 81 68 54 73 65 67 90 92 105 85 90 74 92 80 94 92 85 94 89 86 75 62 87 87 87 87 84 77 79 76 82 95 81 90 93 100 64 73 142 143 143 144 142 144 145 143 142 144 142 141 143 137 120 99 71 81 87 98 116 120 104 94 81 80 74 63 64 77 66 76 67 65 65 74 60 78 63 90 93 87 77 68 61 54 66 68 61 72 62 66 63 69 53 73 67 64 62 69 80 86 106 71 77 68 76 75 75 78 100 100 100 78 57 73 103 83 87 72 90 72 74 70 87 87 83 86 94 93 82 91 126 131 144 144 145 144 146 142 143 140 142 142 145 116 88 100 105 112 111 106 94 100 90 79 74 74 65 62 86 98 83 84 75 76 70 61 65 65 81 101 86 74 59 59 63 45 69 64 62 65 62 58 61 54 66 70 70 58 55 72 78 92 83 65 65 70 89 73 72 63 88 82 82 64 75 82 116 89 102 78 90 74 73 74 81 74 85 82 95 90 91 94 98 88 137 143 144 142 145 143 142 139 141 142 112 88 87 87 122 121 109 99 93 93 81 86 73 83 91 82 92 87 72 88 78 85 76 62 73 75 101 98 63 71 58 65 60 56 60 60 63 57 66 49 61 45 62 70 83 83 86 84 84 82 62 61 47 87 88 65 78 61 70 58 66 78 92 97 107 82 99 79 79 68 75 71 87 65 78 79 83 95 88 99 85 87 130 139 147 142 143 140 143 139 140 120 65 81 71 88 120 127 107 91 90 81 73 85 92 87 83 75 79 73 70 86 81 70 80 77 70 83 90 78 60 61 71 56 58 57 67 48 73 56 62 55 59 54 67 91 100 80 73 75 82 76 57 53 48 80 71 53 65 65 49 55 60 88 95 99 66 79 82 86 66 74 83 78 81 77 79 82 82 96 83 94 87 80 127 144 142 145 142 141 139 144 131 91 69 80 87 95 116 117 100 86 76 80 100 89 89 86 85 69 73 80 84 88 86 62 82 69 69 83 67 78 76 64 74 60 56 55 62 55 64 66 69 55 60 72 90 79 85 85 75 87 78 73 66 41 49 74 65 49 66 51 42 56 66 74 81 74 61 73 76 72 71 83 93 74 80 77 86 86 83 93 88 86 94 63 85 139 141 144 144 140 140 146 122 70 58 85 84 96 108 101 99 91 88 102 100 101 100 94 82 59 77 86 89 81 93 70 63 78 78 73 78 76 97 78 90 56 62 57 62 69 61 72 76 56 74 82 79 76 94 80 78 84 78 68 57 48 51 57 69 57 62 46 37 62 63 60 66 62 69 76 67 55 77 97 86 87 93 89 73 73 89 93 82 101 87 83 39 110 141 144 142 143 140 142 99 72 70 62 79 103 118 126 121 114 106 97 115 111 85 78 91 66 74 93 91 113 95 83 71 74 83 99 82 88 98 94 76 76 72 78 73 72 73 73 58 70 78 64 87 100 89 84 90 88 59 76 49 40 52 56 65 58 52 45 52 55 56 57 56 60 59 67 63 70 82 93 92 96 102 92 80 71 86 89 85 99 83 68 54 69 145 146 140 141 139 141 99 60 72 77 96 111 127 130 115 111 110 96 115 92 86 80 86 91 79 84 84 106 109 78 69 84 83 91 91 96 92 85 76 80 76 85 76 83 76 68 76 70 61 80 75 84 73 78 89 67 64 73 51 49 49 57 57 60 51 43 54 49 53 54 53 61 55 62 69 67 83 91 96 92 93 90 70 76 79 87 87 92 75 71 51 38 137 147 142 140 135 123 80 63 76 85 88 96 117 118 112 106 112 113 93 89 99 102 93 103 105 94 90 87 96 75 76 93 96 85 81 87 86 80 74 76 83 89 79 82 85 82 93 79 65 78 64 74 71 75 79 68 66 65 60 45 42 65 51 60 57 49 55 53 52 58 52 65 59 71 77 75 73 91 89 91 70 74 69 72 68 84 84 84 79 71 71 38 133 146 146 140 110 88 73 74 69 77 87 99 111 123 116 97 112 103 94 86 96 98 116 131 134 124 110 87 80 70 83 78 86 82 66 72 75 75 77 74 85 82 72 81 87 94 88 88 74 65 59 63 70 74 79 78 69 66 69 52 51 70 59 57 56 59 55 56 57 68 61 67 64 72 89 76 64 96 86 90 57 68 69 72 59 87 68 74 78 70 69 64 119 146 143 136 84 76 68 73 62 73 86 105 111 111 97 92 120 107 87 93 101 102 135 153 157 147 126 107 95 75 85 85 84 79 70 70 68 70 75 82 80 78 85 86 99 97 98 88 80 81 62 68 66 75 88 76 84 71 72 63 64 73 64 63 56 66 58 48 58 55 52 60 57 62 75 78 66 83 85 67 62 69 61 64 57 77 65 68 72 67 75 67 109 144 141 126 82 86 63 69 69 87 93 95 92 98 94 100 111 101 102 112 105 110 139 163 168 162 141 135 101 96 93 100 92 76 81 75 73 73 74 86 69 72 97 97 111 106 115 101 105 77 84 71 69 70 82 93 76 77 83 67 81 79 71 76 70 67 59 64 60 51 53 53 64 58 67 65 75 72 78 62 79 52 49 66 57 70 66 71 74 64 84 80 75 136 144 90 79 76 72 69 77 84 70 86 84 101 102 104 100 104 106 95 114 129 160 181 179 181 163 145 126 134 131 141 133 110 92 89 90 88 85 83 84 101 113 122 122 134 134 110 130 92 88 90 79 74 84 90 92 83 91 78 86 82 76 73 74 68 63 77 70 52 53 62 60 56 69 61 63 67 93 87 89 51 62 58 56 63 73 79 77 71 73 83 73 95 145 86 74 77 68 70 71 72 79 81 83 113 109 95 106 122 97 93 131 154 181 185 181 183 170 146 161 158 160 167 150 132 118 119 114 131 115 122 136 148 158 153 147 148 136 150 145 123 102 100 90 86 85 95 101 89 105 83 96 91 85 92 93 83 77 75 77 57 63 61 60 66 67 63 73 80 101 103 94 70 56 45 63 63 51 66 74 84 70 73 84 70 118 82 76 63 73 69 62 74 76 68 89 107 109 100 124 114 89 113 150 169 187 183 180 184 173 173 172 164 162 176 155 133 134 140 144 148 133 141 149 148 162 177 162 167 150 175 156 139 131 109 102 85 104 115 107 95 111 87 97 98 106 107 101 100 83 77 75 63 70 68 62 64 67 62 73 87 101 100 106 79 63 54 54 69 58 69 72 83 82 85 83 69 96 81 68 66 70 69 66 66 74 72 85 101 92 105 122 91 96 139 165 177 187 182 179 187 182 186 177 166 168 178 161 144 152 150 156 161 153 157 160 160 185 190 185 184 162 174 157 149 146 125 120 114 120 135 132 117 115 100 103 103 124 126 117 110 110 87 76 77 70 80 68 70 69 69 102 106 115 120 111 97 77 62 49 57 79 66 72 79 85 73 75 69 75 73 67 63 68 69 66 67 71 75 84 93 82 108 90 100 121 155 174 183 186 180 181 184 179 190 179 170 177 178 166 155 165 154 163 162 153 162 175 180 198 193 196 184 171 165 159 157 156 142 142 130 133 139 143 137 125 109 113 117 134 138 136 127 123 105 91 85 85 96 102 97 87 101 116 121 130 128 125 116 92 63 52 72 71 73 78 79 75 70 64 56 56 78 72 67 60 67 73 72 72 69 89 85 89 94 99 104 143 167 179 183 182 183 180 184 179 189 183 178 182 182 172 171 168 165 171 178 170 184 191 197 198 201 204 201 190 182 184 170 162 159 154 152 144 151 147 149 149 130 117 150 134 132 131 138 136 122 117 113 88 120 126 132 118 107 119 132 137 133 134 125 112 65 56 68 83 76 68 80 69 60 60 53 52 68 66 77 62 69 60 71 72 73 85 77 86 99 83 126 149 172 178 177 182 182 182 184 183 185 187 186 189 192 187 182 181 184 185 190 195 196 199 198 204 203 204 203 198 196 195 189 181 164 165 162 157 157 154 154 156 153 139 159 156 149 145 157 151 145 130 125 114 135 135 135 136 128 120 136 139 130 127 131 120 82 71 59 80 93 68 71 75 66 64 56 54 78 66 79 78 61 67 65 64 75 78 89 80 96 102 128 154 171 175 175 179 181 178 183 182 183 188 189 189 196 195 189 190 193 193 198 200 202 200 202 205 202 206 205 202 202 201 194 189 172 169 166 164 163 158 159 163 159 153 152 162 160 161 166 167 159 151 133 141 144 145 142 142 144 130 141 139 135 128 133 122 100 70 65 73 98 87 79 59 71 68 58 55 78 79 66 85 66 70 65 59 75 74 86 81 90 112 137 156 174 172 177 177 179 177 183 181 183 187 189 190 194 197 191 194 196 199 198 200 202 201 198 199 203 203 206 204 201 199 194 189 176 175 169 169 163 162 164 164 167 159 154 163 173 172 172 172 169 166 158 150 153 141 147 147 146 139 141 140 137 131 129 122 109 76 62 64 88 104 90 74 79 68 66 50 74 77 75 66 67 68 55 62 70 82 82 77 104 115 131 162 175 172 178 176 178 175 179 181 182 187 191 193 190 195 196 195 197 202 202 203 204 204 203 204 202 202 206 207 200 199 193 188 182 176 172 168 168 167 168 167 174 169 165 168 170 179 178 174 169 171 165 159 155 149 145 149 146 143 142 142 134 132 129 131 110 84 68 63 83 91 97 77 83 64 71 33 69 61 67 68 72 63 58 58 69 91 85 90 102 108 138 169 169 172 176 177 173 174 177 176 183 188 191 194 193 194 195 199 199 202 204 208 208 208 208 208 205 203 207 206 204 200 197 186 183 181 177 174 170 173 172 171 175 177 169 171 174 176 174 178 175 169 165 162 159 157 150 153 144 147 142 142 135 129 130 131 122 84 63 76 81 81 74 79 75 71 58 52 73 68 59 56 68 68 53 57 63 104 86 88 96 107 144 163 163 170 176 176 174 173 175 178 178 187 190 193 197 195 200 198 202 203 205 207 212 208 208 212 211 205 206 207 202 209 201 192 182 185 182 180 176 174 176 180 177 182 179 173 174 181 178 173 172 172 168 166 163 158 156 156 154 142 143 143 139 127 128 127 126 95 63 78 75 79 64 82 69 70 66 54 56 63 71 63 55 58 57 49 80 108 90 84 89 110 148 162 166 170 171 175 171 174 175 178 182 185 188 193 195 194 200 200 200 204 204 207 211 211 209 211 210 211 209 207 207 206 201 200 191 189 191 182 185 181 183 185 186 184 181 183 180 179 182 182 182 178 178 167 165 164 164 162 156 153 142 144 142 131 129 129 131 89 73 72 78 78 60 71 76 74 69 45 53 55 55 55 58 58 57 46 86 104 78 84 84 112 156 167 170 172 171 174 171 174 176 178 180 186 189 191 196 193 200 201 198 201 204 208 211 211 210 213 212 211 211 210 208 209 205 201 203 195 193 187 188 186 188 192 193 195 191 193 186 186 185 188 186 181 178 172 170 172 166 163 161 160 147 144 142 132 127 129 125 95 62 73 74 74 64 65 76 71 67 45 71 49 44 54 51 53 55 48 98 94 80 74 92 118 156 168 172 170 172 174 173 172 175 175 182 188 186 193 192 194 199 200 203 199 205 207 208 210 211 213 211 211 212 209 209 208 204 204 204 202 194 197 199 193 192 197 197 201 199 199 197 195 191 188 189 182 177 178 173 174 170 166 166 163 153 146 140 130 130 126 125 106 62 66 78 72 64 70 78 68 60 52 95 42 57 48 55 51 54 58 88 86 76 66 102 129 152 161 170 169 171 174 175 175 173 174 182 185 185 189 193 194 199 198 202 200 203 203 207 208 210 213 212 209 211 209 209 210 205 203 206 205 199 202 203 198 199 198 201 204 200 200 200 199 193 195 190 183 180 180 179 176 171 173 164 166 153 145 139 134 130 129 124 119 63 61 76 65 60 68 65 68 54 61 89 69 46 55 57 55 65 59 70 79 61 70 100 132 164 163 164 172 171 174 176 175 175 175 182 183 186 184 194 191 193 196 198 197 201 201 204 205 208 212 213 209 209 209 205 207 204 205 204 206 200 203 203 201 200 200 202 205 203 201 203 201 198 198 196 191 183 178 182 180 174 172 167 163 157 147 141 132 135 125 124 127 63 53 70 66 56 72 64 66 54 72 120 80 54 55 65 72 62 61 72 72 54 73 98 147 164 164 163 172 168 175 175 177 177 172 182 188 186 189 193 185 182 196 198 199 200 194 195 195 200 203 205 206 205 204 199 202 200 199 205 205 201 202 200 198 200 201 200 204 203 199 197 200 195 197 193 188 186 183 182 180 179 173 166 161 160 147 142 134 137 120 130 126 82 43 66 68 62 69 67 59 57 91 131 108 56 63 67 58 69 74 60 66 62 65 105 156 161 164 169 173 173 171 177 177 174 176 184 183 188 189 177 166 172 178 180 187 184 181 189 188 187 193 193 198 200 201 196 193 197 195 197 200 198 195 197 194 199 199 196 195 198 190 190 193 189 193 181 182 181 185 183 177 173 169 159 165 157 151 142 133 131 126 129 130 89 52 56 64 54 68 66 51 74 112 122 111 65 62 66 62 64 63 66 57 64 68 102 157 164 160 168 170 170 174 175 178 173 179 184 180 185 175 161 153 154 158 168 159 148 155 156 160 159 177 178 178 186 187 185 187 195 192 193 193 194 193 188 191 192 197 188 187 187 181 183 183 179 177 174 172 167 174 172 170 166 159 145 155 163 152 148 137 130 132 126 127 102 52 52 59 58 63 61 56 77 127 129 114 74 69 72 61 70 60 60 57 56 59 112 153 165 160 166 171 171 175 171 177 171 169 136 146 144 161 141 135 139 137 135 131 126 125 118 124 123 134 143 145 169 175 173 179 188 187 188 189 188 188 181 183 186 185 177 182 182 172 176 166 164 150 141 140 142 141 147 144 143 135 134 132 150 154 150 140 132 127 125 129 101 48 57 61 59 61 53 61 110 131 129 129 96 62 68 77 68 64 57 55 56 73 100 149 168 164 165 172 172 170 174 174 162 162 130 201 214 213 174 167 162 153 154 142 143 129 116 115 137 115 107 109 128 142 155 162 177 177 180 185 180 178 178 175 182 173 165 167 163 152 140 135 124 112 106 109 116 111 118 132 144 135 121 126 119 141 154 148 125 130 126 129 107 56 53 59 60 50 44 94 119 137 131 130 117 59 67 82 79 65 58 50 63 65 74 129 167 166 168 169 172 170 173 169 145 152 139 126 102 154 162 192 145 127 138 125 120 119 113 129 139 208 210 207 177 149 129 142 159 171 179 182 179 177 177 170 173 171 148 139 136 122 105 115 120 130 148 145 165 158 134 172 162 154 147 144 141 158 180 195 112 123 131 127 106 52 61 55 57 53 45 117 126 134 133 124 127 73 60 89 98 71 46 41 64 61 67 90 167 171 166 172 175 172 172 157 166 156 164 154 124 174 226 233 193 128 145 145 138 123 112 98 66 128 143 150 123 147 144 186 152 156 178 187 184 177 176 171 169 172 167 142 238 176 106 127 115 109 89 56 125 86 129 240 244 164 107 117 112 117 118 114 130 117 145 128 105 53 58 46 52 54 78 122 134 128 134 129 127 101 118 131 135 100 56 62 70 53 67 55 147 172 171 171 176 170 168 146 150 151 159 151 143 126 153 165 159 148 148 156 145 145 136 158 155 213 227 175 117 129 120 130 147 159 173 191 185 176 178 172 166 146 139 135 150 132 124 118 115 113 104 79 173 189 99 117 148 131 112 110 110 114 121 107 104 115 142 141 93 57 49 42 50 67 109 130 131 135 129 132 125 144 148 153 163 135 71 81 77 65 59 82 77 122 147 166 174 170 172 138 158 155 157 164 151 153 154 152 136 120 125 124 128 108 88 156 163 120 145 127 128 131 130 132 131 161 177 192 191 182 182 177 165 124 167 141 145 140 122 122 117 110 114 96 154 200 147 129 130 137 134 130 117 126 123 120 108 112 118 161 80 45 38 52 62 85 124 128 129 132 127 128 127 152 109 104 154 141 92 89 83 78 72 95 103 93 93 111 124 177 176 147 166 157 150 139 135 127 124 144 134 113 108 109 102 99 97 168 136 125 113 124 131 124 133 134 134 147 183 191 190 182 180 183 167 161 161 128 154 146 115 102 89 94 100 108 111 130 139 126 120 122 128 129 127 133 129 126 117 126 118 147 71 47 46 60 99 108 121 127 128 126 125 130 130 152 94 72 102 121 107 90 86 72 64 117 158 127 107 116 62 159 183 165 157 154 138 114 94 110 98 113 148 110 72 89 79 88 110 125 112 132 127 124 121 127 130 133 146 136 195 169 170 183 186 215 207 212 124 110 131 139 96 90 87 76 112 104 115 106 127 132 116 115 114 98 118 131 130 122 121 129 116 119 120 106 50 94 112 123 117 122 128 127 133 121 143 146 92 100 127 122 105 98 93 64 64 127 168 171 130 126 122 159 172 155 152 140 126 108 105 98 101 100 154 122 86 65 79 102 133 153 148 122 126 129 112 114 125 138 144 158 131 136 137 141 138 141 145 143 124 110 102 118 93 91 104 93 114 128 107 86 113 141 83 76 104 93 97 115 131 120 123 133 120 82 205 200 41 96 79 117 126 121 124 120 128 124 147 142 104 126 178 157 111 120 100 72 78 135 171 176 175 127 124 152 157 160 152 145 141 145 145 136 135 145 156 138 115 93 82 102 148 155 142 120 132 116 118 127 127 147 157 163 136 163 199 199 188 165 128 125 135 125 135 86 75 109 135 93 77 103 71 82 120 159 119 80 67 86 105 98 113 118 119 106 99 102 156 153 47 74 52 106 117 117 120 125 133 106 167 134 123 160 189 184 157 138 104 66 95 152 171 173 183 168 134 126 141 161 163 173 179 180 174 170 146 147 154 158 154 150 142 137 155 158 145 145 154 155 155 152 145 160 166 150 152 201 211 202 199 193 164 104 134 130 139 106 106 112 135 128 122 113 97 120 144 162 125 86 90 97 106 111 102 107 96 94 110 137 110 51 69 71 59 106 124 110 116 121 128 118 169 135 153 170 191 185 183 148 96 58 109 167 169 174 179 187 167 121 152 142 160 178 179 181 179 175 167 162 157 153 153 147 150 150 145 145 143 149 162 170 168 168 166 155 153 145 183 209 210 206 198 192 186 101 145 165 168 161 151 152 150 151 143 137 127 133 142 157 135 92 108 114 129 123 111 91 94 119 130 141 109 38 70 90 62 110 119 111 113 115 134 104 176 142 167 175 176 169 147 97 88 52 125 171 170 174 176 186 183 135 183 143 148 176 186 181 178 184 185 189 192 188 188 184 181 175 164 156 154 152 166 180 176 180 178 152 152 144 194 204 212 203 193 194 191 110 125 179 179 179 175 170 167 165 157 154 139 139 134 154 141 116 125 134 134 127 104 99 122 132 132 141 119 33 66 106 59 103 123 105 111 113 132 112 165 154 177 174 174 152 112 82 92 66 129 175 164 172 180 182 186 164 182 163 141 165 184 190 188 180 173 178 178 173 174 170 163 164 163 163 176 181 185 187 185 174 190 160 152 162 187 198 217 201 192 194 192 148 60 190 159 167 173 162 160 156 151 153 147 157 142 152 149 126 130 140 134 127 116 139 137 136 129 141 120 39 97 122 70 113 121 106 109 112 129 111 158 167 174 173 169 146 108 83 123 89 124 170 167 169 178 180 182 180 180 181 145 159 173 193 185 182 183 174 177 176 172 172 175 174 180 184 184 193 190 191 182 146 159 166 151 181 184 191 224 203 192 194 188 150 96 129 192 148 167 166 168 167 158 150 143 134 140 148 146 138 136 145 145 143 143 159 143 138 130 137 122 46 118 133 77 126 112 107 102 108 133 115 148 177 164 178 170 134 106 103 165 138 125 167 168 171 179 177 180 187 177 183 162 150 165 186 186 184 186 185 191 192 190 187 188 189 185 192 193 192 198 192 164 171 166 148 170 184 181 185 219 210 196 194 183 143 138 58 139 157 171 171 172 177 172 172 166 161 162 166 158 161 158 153 156 159 163 162 144 140 140 130 127 86 116 132 87 126 110 100 102 111 130 121 134 181 160 174 173 133 115 154 179 163 138 164 161 171 175 177 179 183 188 179 171 160 156 168 181 185 186 190 192 193 191 191 192 191 194 195 196 191 197 187 169 175 166 163 183 186 183 188 209 210 198 192 182 150 149 126 119 139 170 174 169 174 176 180 174 173 175 171 171 170 167 156 166 165 161 159 150 140 144 124 131 92 114 134 99 124 98 98 100 106 133 120 128 178 167 162 187 150 133 174 182 171 145 158 161 165 175 176 177 182 187 177 167 173 155 165 179 191 195 195 194 193 195 193 194 195 196 190 195 188 188 175 171 162 157 183 188 188 190 191 203 206 201 191 188 169 155 150 137 122 151 176 172 171 172 174 175 170 175 173 174 168 170 161 160 166 153 155 148 145 147 121 131 79 113 136 108 120 96 99 97 103 129 129 110 174 178 151 181 177 140 167 182 173 146 154 160 165 173 175 175 183 184 191 168 179 169 169 180 189 198 195 195 193 193 195 199 193 197 192 190 184 183 171 151 150 174 194 189 187 206 203 196 199 200 191 188 188 165 150 142 138 134 169 174 174 169 172 173 172 171 174 173 173 169 159 153 160 150 150 143 171 147 122 129 84 106 136 119 112 93 97 102 102 129 131 108 161 180 161 150 187 176 161 190 166 148 154 155 162 173 176 177 179 182 185 186 176 172 177 184 191 195 195 196 194 191 193 199 195 192 187 191 186 173 164 118 161 179 183 181 190 206 201 200 199 195 194 189 193 173 145 136 143 138 136 159 175 171 173 172 171 173 173 170 173 172 159 153 156 153 151 183 169 129 125 123 73 114 129 127 100 97 91 101 93 123 131 121 136 180 176 162 156 180 189 190 169 148 151 155 160 169 178 176 179 181 182 185 186 172 158 173 174 178 188 197 195 194 197 196 193 196 199 202 167 157 147 127 175 184 175 179 187 198 194 197 202 197 196 186 185 169 153 131 141 137 153 140 143 176 171 171 170 169 173 172 171 168 163 154 168 164 157 157 139 132 129 116 91 134 121 129 102 91 97 94 98 130 128 129 118 163 186 184 185 176 192 198 168 145 148 159 157 162 178 173 178 178 178 180 185 176 166 178 181 176 171 167 172 168 172 172 172 175 172 166 156 140 130 177 198 194 179 179 185 193 195 203 216 210 198 191 181 169 149 139 169 122 155 149 156 133 181 175 177 174 168 172 167 156 161 164 160 152 148 142 140 129 120 111 126 122 106 136 92 95 93 98 95 133 123 132 117 149 180 188 183 191 192 196 203 152 142 157 157 159 172 172 177 172 174 176 180 177 165 171 174 175 169 175 175 169 171 164 159 157 149 150 150 116 155 199 198 188 180 181 187 191 193 206 218 207 197 196 181 163 149 141 161 156 142 154 151 149 152 152 158 152 161 163 163 150 149 151 153 150 147 144 132 129 113 122 124 103 119 126 97 88 96 97 100 128 130 127 129 119 159 184 184 184 193 189 198 165 134 154 155 160 168 174 174 172 174 175 180 176 166 158 159 158 160 164 161 159 161 159 153 154 145 144 138 119 173 183 185 180 172 176 178 182 186 189 198 191 187 176 165 158 143 138 138 146 134 156 161 146 144 149 151 153 157 155 156 142 146 150 153 148 141 140 134 130 109 129 125 114 130 118 86 97 91 97 97 129 127 131 129 125 116 177 187 183 191 192 189 171 138 152 156 159 165 171 170 171 173 174 177 177 174 163 161 162 160 166 169 168 168 167 159 149 140 146 150 149 159 158 163 163 156 160 162 163 164 173 177 174 164 154 146 133 135 129 123 131 128 159 168 165 157 153 149 151 154 152 150 146 144 144 151 143 139 137 133 129 105 134 130 128 131 109 86 98 90 96 96 127 130 130 128 130 118 150 182 191 191 196 193 185 142 148 156 155 165 168 170 169 173 176 178 178 180 177 176 178 176 176 183 186 178 173 163 149 151 166 178 187 159 124 131 120 117 131 137 137 137 143 150 146 140 128 125 122 117 105 105 122 129 153 169 168 166 167 158 156 153 150 146 148 142 145 144 141 137 133 130 124 106 138 133 130 135 97 88 96 90 95 93 126 129 126 130 130 125 122 168 186 191 193 192 195 149 143 155 156 162 175 170 172 170 180 174 178 178 178 181 180 182 189 180 188 179 168 159 163 179 183 192 188 193 119 102 91 77 88 91 109 126 121 129 131 118 120 117 106 89 73 103 128 134 144 171 170 168 169 169 164 162 145 144 145 134 144 143 138 132 135 127 122 114 139 135 130 126 93 89 97 95 90 95 131 122 130 129 128 126 123 128 168 183 184 190 186 152 140 153 156 161 165 169 173 169 176 174 178 175 176 183 176 182 184 180 177 173 169 176 191 196 194 188 192 188 175 127 107 97 97 102 97 87 118 118 113 116 106 103 96 103 98 129 131 136 143 157 176 171 170 167 167 166 156 151 141 137 142 140 137 133 130 132 110 121 134 134 132 109 89 89 93 96 90 95 131 127 129 130 126 129 128 122 129 147 161 163 154 138 144 152 155 163 163 170 173 171 170 174 172 175 175 181 180 181 176 180 174 174 188 190 197 194 193 186 191 186 189 178 166 146 124 119 112 106 93 97 104 99 108 115 115 119 124 122 135 139 140 155 171 174 170 168 167 164 160 152 141 139 139 135 137 126 134 122 117 116 134 133 118 95 90 92 93 92 94 93 129 127 125 127 128 125 129 130 122 128 132 135 124 125 146 149 153 161 165 166 171 171 170 172 170 177 178 180 177 178 178 174 180 187 196 192 188 188 188 186 187 186 190 191 189 181 167 142 128 113 99 114 110 112 122 127 125 125 127 133 134 138 141 150 167 174 171 167 171 161 161 150 150 138 137 138 134 133 129 119 121 113 128 120 95 91 95 90 95 92 96 84 124 125 126 128 127 128 126 132 125 130 130 127 126 122 140 150 154 160 162 169 168 172 167 171 172 172 175 176 175 179 178 181 185 194 195 189 186 181 188 182 185 183 185 188 187 180 178 169 147 127 114 136 132 133 137 139 134 130 134 133 140 136 145 148 161 168 173 165 169 164 159 155 149 141 139 135 133 130 124 120 117 105 106 98 90 90 92 92 95 91 96 93 130 123 129 127 129 127 128 129 124 128 130 126 127 128 128 152 153 160 157 168 163 171 169 173 174 174 173 176 176 177 182 183 188 191 191 189 182 184 185 186 186 184 175 184 177 179 173 180 164 145 138 136 137 138 138 140 136 137 138 137 142 136 145 147 161 168 171 169 168 169 157 155 145 143 138 137 132 134 118 123 118 88 89 90 98 87 96 91 90 93 90 95 125 128 124 128 122 136 127 127 129 129 128 127 129 123 129 147 149 160 157 161 161 170 168 170 171 174 175 175 173 177 185 183 186 181 183 180 180 179 173 180 177 179 176 186 188 194 188 193 190 174 168 147 142 133 142 145 144 145 137 140 138 141 140 150 153 162 163 163 163 162 160 151 141 142 137 133 130 125 121 121 116 76 94 93 90 98 89 91 92 89 96 88 125 125 127 129 130 128 125 130 124 129 124 131 124 133 119 143 151 157 161 159 162 169 170 171 174 176 173 177 173 175 180 183 177 178 173 171 170 169 164 174 175 182 181 185 185 182 178 177 178 182 184 180 173 150 141 141 142 144 141 148 131 136 136 140 145 153 158 160 160 156 149 148 146 140 140 128 125 120 125 118 107 90 83 91 94 89 93 94 92 90 94 92 124 125 126 129 125 125 125 127 127 128 126 127 128 127 123 132 153 156 161 158 162 161 168 170 176 176 176 179 175 175 178 178 176 173 163 157 162 151 150 163 168 168 159 145 145 139 144 147 136 134 143 149 136 131 125 118 122 120 127 137 137 137 134 134 139 152 157 159 159 160 146 145 143 139 131 128 123 121 120 127 101 81 90 92 94 90 93 87 89 93 91 96 125 126 130 127 123 127 124 128 128 127 126 128 127 129 120 127 149 153 159 155 160 160 163 169 179 176 172 177 175 176 174 178 173 166 152 145 136 118 117 129 131 130 108 110 106 119 124 130 119 116 112 116 102 109 105 108 108 99 100 109 113 118 122 120 128 142 148 161 157 154 143 143 139 137 131 127 123 119 125 116 92 87 92 91 92 85 92 91 89 90 96 88 127 123 131 122 124 128 129 126 127 127 126 126 128 127 118 135 146 148 154 156 156 160 161 167 173 172 173 176 174 176 169 169 172 160 143 129 97 77 75 70 83 87 61 60 76 73 77 84 90 85 82 75 82 75 81 71 75 66 63 72 80 89 88 89 103 124 142 154 156 144 140 138 139 135 131 128 121 120 120 113 78 91 93 88 90 88 90 91 90 90 90 90 130 125 128 123 126 123 130 124 129 127 127 124 131 125 114 149 152 139 153 150 157 161 163 164 167 168 175 175 178 175 171 172 170 160 148 136 117 129 133 105 95 97 90 90 107 91 90 74 73 62 67 54 66 66 68 66 55 72 68 75 80 84 83 75 95 114 145 144 152 146 135 139 134 134 132 126 122 120 124 101 84 89 96 85 91 88 89 88 94 91 88 89 130 127 125 126 124 128 125 126 131 126 128 123 130 128 116 150 167 135 147 150 157 158 160 158 162 167 170 176 179 179 173 173 168 164 161 160 164 180 178 167 166 166 168 166 167 164 171 156 151 145 139 141 144 139 128 139 137 130 126 125 117 112 116 129 125 127 145 148 151 140 135 139 133 130 128 121 123 119 117 89 86 90 92 83 95 90 86 90 89 94 87 91 124 125 124 127 125 122 128 125 124 129 126 124 127 128 117 147 178 141 138 150 157 155 159 156 162 167 166 171 176 179 177 174 172 166 174 167 184 186 181 174 164 163 156 167 162 168 187 201 192 182 167 178 174 168 164 167 154 149 142 137 126 130 128 138 144 142 147 151 148 135 135 139 128 128 125 122 118 122 106 83 92 88 86 87 87 91 85 93 89 88 88 93 124 125 125 124 128 123 125 122 124 126 126 126 125 128 116 149 176 162 129 147 151 156 154 159 160 163 163 167 170 171 176 169 167 171 173 177 187 189 187 179 171 168 155 153 156 150 155 164 180 169 160 168 161 162 155 152 135 139 136 132 132 137 139 143 151 150 150 151 146 139 131 133 127 127 122 121 120 114 98 79 85 88 88 87 88 89 86 90 87 94 86 92 129 125 126 127 126 124 124 125 126 125 125 129 126 125 119 152 174 176 140 135 146 155 153 156 161 161 163 165 165 168 170 171 169 173 177 186 186 187 189 178 175 167 164 153 153 145 145 136 142 139 143 143 142 137 131 129 129 130 130 136 141 139 141 149 150 155 151 152 143 133 135 130 129 124 120 121 117 109 79 87 84 92 83 91 85 90 87 91 87 88 91 88 125 127 124 126 125 125 127 126 126 126 124 127 126 128 109 154 173 178 163 128 140 145 151 153 155 157 157 165 164 166 167 168 170 172 176 182 186 182 186 180 175 170 164 160 151 140 130 114 120 111 112 120 109 118 115 120 120 128 131 138 141 142 147 148 156 151 154 144 133 133 129 123 125 122 116 121 115 87 89 85 88 87 85 91 87 88 88 85 84 86 90 86 127 123 123 126 127 126 123 126 121 125 125 128 124 123 116 152 172 175 175 140 125 140 148 149 152 154 157 154 165 163 162 168 165 170 172 173 178 182 178 176 176 171 166 163 158 150 136 125 109 111 102 102 102 109 113 116 124 131 132 137 145 146 148 145 148 152 148 138 133 128 123 126 120 122 117 114 101 83 86 87 85 86 86 87 92 85 84 87 92 85 93 83 121 127 125 123 124 123 127 123 122 124 122 128 125 125 113 162 170 171 178 163 132 128 142 145 148 153 154 155 157 161 159 165 164 164 165 167 177 173 173 172 174 170 166 166 163 154 148 139 135 122 124 116 120 122 125 127 133 134 141 147 148 144 145 143 143 142 139 135 131 128 123 121 120 118 115 110 73 87 83 87 86 86 84 89 87 89 88 84 87 85 90 80 122 123 125 122 126 125 126 122 126 122 123 127 122 88 184 196 161 176 181 176 149 129 133 141 148 145 150 150 155 158 159 162 164 167 159 166 168 175 173 170 169 171 170 168 165 162 158 150 150 148 146 142 139 131 135 141 136 141 146 143 141 146 139 145 142 135 133 129 127 127 120 121 118 114 118 87 83 86 81 85 88 84 84 85 87 86 85 86 86 87 87 85 126 126 126 125 122 123 123 124 122 123 125 125 104 123 236 202 158 179 181 177 161 139 123 136 138 145 147 150 148 154 155 157 162 163 163 159 166 168 172 174 172 173 172 172 171 173 170 175 180 185 179 175 170 162 155 153 148 150 147 148 146 146 140 141 138 134 129 121 124 123 120 119 114 117 98 81 85 85 87 82 90 82 88 91 84 85 88 81 91 84 87 87 118 127 123 120 122 124 127 121 123 126 121 122 100 202 237 193 158 178 179 180 168 153 128 130 132 140 143 145 145 149 156 155 156 164 162 159 167 167 173 174 177 178 179 178 189 188 193 193 195 194 191 184 189 184 182 178 171 167 162 157 150 149 145 138 137 129 124 125 123 126 112 115 111 109 84 87 85 88 83 84 83 86 89 85 86 87 82 89 86 85 88 80 121 124 123 119 123 127 121 125 120 127 129 87 157 230 231 175 163 179 178 178 174 160 142 124 126 137 134 139 145 145 150 152 157 160 157 155 164 169 166 175 179 188 186 188 195 198 196 196 196 195 189 183 186 187 187 184 184 184 177 161 150 153 143 139 128 130 126 120 119 122 112 110 110 113 78 88 85 86 81 88 81 85 86 80 88 83 85 87 85 83 86 86 124 123 122 126 121 125 122 123 127 124 118 102 211 229 223 161 169 178 178 175 176 166 153 131 119 134 134 131 141 139 146 150 146 158 155 157 161 163 164 169 170 180 187 189 191 194 199 195 193 193 192 186 189 189 183 180 183 177 175 162 154 149 136 136 129 128 121 117 115 116 110 104 123 111 82 80 87 84 85 81 87 86 83 86 84 80 85 86 81 87 87 84 120 122 123 124 120 126 125 122 124 126 89 166 226 229 211 156 176 178 179 175 180 169 162 139 125 126 133 133 132 132 143 143 144 144 154 155 161 156 163 169 162 178 182 183 189 188 189 191 189 186 186 179 187 181 179 180 172 167 163 157 151 141 133 128 130 127 114 117 112 113 106 112 127 111 79 84 82 85 85 80 82 89 79 82 79 87 80 88 78 91 80 89 124 123 120 127 121 125 122 127 121 115 93 220 223 230 202 153 180 179 177 177 183 177 165 153 139 121 130 133 129 131 136 130 138 144 144 146 154 156 158 166 167 170 176 170 177 185 180 176 176 177 173 171 175 174 170 172 163 154 159 148 139 134 129 133 122 121 114 112 111 107 113 115 125 126 77 86 81 87 81 86 81 83 84 85 83 83 83 85 85 84 79 87 119 122 121 125 122 124 122 128 124 97 156 230 220 231 202 152 181 180 179 177 178 181 169 159 148 125 129 129 130 127 131 128 129 136 138 140 145 155 157 153 162 167 160 169 166 171 175 162 166 161 163 158 165 163 162 159 155 149 150 133 130 128 124 124 113 119 110 109 106 111 117 123 103 159 90 77 79 88 79 82 86 80 83 80 85 82 78 84 81 85 80 84 122 122 126 120 124 125 123 126 117 98 210 223 221 227 212 155 184 179 180 179 178 179 177 163 157 128 132 124 129 130 131 126 128 130 128 137 133 143 146 151 150 156 153 158 161 161 161 158 153 149 145 147 152 146 145 151 144 138 139 121 125 122 123 119 110 115 108 106 112 112 125 123 98 158 142 61 85 79 88 78 84 77 84 78 87 81 82 80 79 88 82 80 119 124 121 125 123 126 120 127 93 146 229 220 221 222 231 161 188 181 178 180 180 179 178 169 164 145 137 130 128 131 128 131 127 124 127 127 128 132 135 144 144 145 148 145 147 147 147 149 144 140 138 139 136 136 140 135 131 129 127 115 120 113 118 117 105 111 104 109 119 113 127 126 110 135 185 66 81 81 83 81 77 82 83 78 82 79 84 80 80 84 77 80 115 124 124 124 128 127 114 134 117 201 224 221 222 221 237 179 177 184 180 179 182 179 179 174 171 154 144 135 126 125 130 132 128 130 126 123 127 122 126 127 134 136 132 136 135 132 126 134 127 131 123 130 125 127 124 124 123 120 117 112 119 113 112 109 106 110 104 122 120 124 121 128 112 119 189 123 64 81 79 83 81 82 76 83 77 83 81 81 82 78 82 84 128 130 150 157 156 145 177 202 218 215 220 221 222 220 235 205 168 183 184 180 181 180 181 178 173 163 152 146 132 127 127 130 129 127 131 126 128 122 125 121 126 122 125 123 122 127 119 123 113 123 112 118 122 115 111 119 114 112 106 110 108 108 110 107 112 108 119 116 124 132 121 129 111 107 183 173 59 68 85 78 76 85 77 82 84 76 81 84 81 80 81 81 148 169 152 165 198 219 222 222 217 217 220 222 223 222 224 228 166 183 185 185 181 180 180 183 178 164 161 146 148 133 128 125 127 128 127 128 129 132 123 123 122 127 124 121 119 122 122 117 118 119 118 113 117 116 115 113 108 109 108 106 108 107 107 115 112 118 126 125 129 134 124 133 95 103 182 185 125 58 83 82 76 85 79 75 87 78 80 79 78 81 81 81 150 184 206 220 222 222 221 222 216 218 222 222 223 223 223 232 190 178 187 187 184 180 182 181 180 174 167 158 149 143 133 127 122 126 127 121 128 128 124 129 126 122 127 115 122 122 117 122 120 116 117 118 118 114 113 112 107 109 105 106 110 108 111 113 116 123 129 129 128 129 128 134 70 111 181 179 164 102 91 89 77 81 82 73 80 83 77 81 76 80 80 78 213 223 222 222 221 222 223 220 215 220 221 223 223 223 222 229 221 167 187 187 185 183 182 180 180 179 173 164 152 152 138 134 130 126 124 121 132 121 126 130 124 126 125 123 124 121 118 121 120 122 118 119 116 115 115 109 110 108 102 111 110 111 115 114 126 126 129 129 128 130 132 131 64 134 176 180 176 134 97 109 92 83 78 79 79 81 80 79 78 83 78 75 223 222 221 220 222 222 223 219 217 220 221 222 223 223 223 223 235 183 181 189 190 188 180 180 180 176 179 171 166 155 151 136 133 131 127 123 129 125 122 128 120 122 120 122 124 119 122 118 118 122 121 121 113 115 111 115 111 107 112 121 112 116 119 119 129 133 129 132 132 129 137 114 85 142 181 177 178 164 92 106 105 104 94 74 79 80 78 82 76 79 79 80 222 222 220 222 222 222 221 218 218 222 221 223 222 223 223 222 230 210 174 190 193 189 187 183 183 179 180 176 175 162 154 146 139 139 130 123 126 130 124 127 124 117 120 118 119 114 112 114 109 111 109 111 112 105 109 113 112 118 120 115 117 116 119 120 134 132 128 131 133 134 140 96 90 151 184 183 178 175 142 101 108 102 120 90 83 82 78 83 73 79 79 80 