P2
92
112
255
157 154 154 157 150 156 155 153 152 153 156 153 154 155 154 156 153 152 154 157 155 154 156 154 152 155 146 151 151 145 145 139 120 118 113 113 115 112 111 112 124 116 115 130 133 134 119 136 137 149 145 148 149 150 150 151 147 153 152 153 153 150 153 151 154 151 150 155 152 154 151 151 155 152 152 150 153 151 152 152 152 150 150 152 152 150 154 149 150 152 149 150 153 156 154 154 153 153 156 155 156 153 155 153 156 152 153 156 156 153 155 154 156 154 157 152 155 151 141 136 120 109 108 102 106 103 100 102 88 91 101 99 93 95 87 99 96 112 102 86 103 108 126 141 137 139 139 142 141 143 142 147 152 149 152 151 152 151 153 152 153 149 152 153 153 151 151 151 155 151 150 151 152 153 151 151 151 151 151 151 152 150 151 150 153 152 156 153 152 155 154 156 154 154 155 153 156 155 152 156 155 151 153 156 154 152 156 147 136 126 105 108 96 108 101 95 104 109 99 91 97 88 99 97 98 95 83 87 79 104 103 77 89 93 90 114 112 96 104 123 123 114 126 142 151 150 148 149 152 152 154 153 154 150 153 154 152 153 152 150 154 153 151 151 150 151 151 153 150 152 151 151 150 152 150 151 154 154 155 154 155 154 155 153 154 155 156 153 157 154 155 152 156 152 154 152 152 147 141 125 89 91 89 94 99 100 102 93 93 98 98 95 90 91 110 109 105 101 91 88 89 110 99 87 95 94 80 103 104 92 96 98 87 103 102 102 138 144 145 150 150 149 153 155 148 154 150 153 151 153 154 150 153 152 153 150 151 149 152 151 150 151 151 150 151 150 151 151 155 152 156 154 153 157 153 154 152 154 154 155 155 155 155 153 153 156 153 155 153 141 104 87 82 87 94 88 105 93 102 90 88 96 91 103 95 99 118 106 116 101 101 96 113 119 115 103 104 92 83 108 105 95 94 90 95 91 87 93 100 125 141 145 136 152 150 147 147 150 149 149 150 155 150 152 152 151 153 150 153 150 150 150 151 150 151 151 152 150 151 151 154 154 155 153 152 157 155 156 156 152 155 154 154 154 151 157 150 154 155 153 127 95 84 85 89 85 105 96 102 93 91 89 94 99 103 102 107 107 102 110 113 112 117 101 115 109 117 100 101 89 95 107 108 90 91 98 98 89 93 92 86 97 108 106 117 125 137 142 151 150 148 151 152 153 151 153 150 152 151 151 152 151 150 152 150 153 151 149 151 153 149 150 154 155 152 158 152 154 154 154 156 156 155 156 155 153 153 155 152 153 149 121 89 75 90 86 94 87 107 102 85 91 93 108 114 105 112 110 106 105 104 122 115 119 111 116 102 107 108 104 110 98 101 106 100 90 98 99 102 95 111 96 112 96 86 83 88 102 116 121 130 142 145 150 149 150 153 150 152 153 150 150 152 151 149 152 152 150 154 150 150 148 150 152 156 154 153 156 155 154 156 152 158 155 157 157 152 158 153 146 143 135 118 75 87 86 98 91 95 87 95 93 76 91 101 108 132 108 112 101 102 106 117 124 114 119 114 117 112 117 109 121 108 107 112 105 93 88 100 103 110 98 114 109 117 98 97 87 96 96 99 103 104 111 129 140 151 147 150 153 150 152 151 150 151 152 150 152 149 154 150 151 151 152 149 150 153 154 153 156 154 153 155 153 156 154 155 154 154 156 150 124 99 97 89 99 93 93 100 97 99 81 84 90 86 95 101 105 119 104 112 84 99 119 134 124 117 111 113 115 123 115 114 111 111 123 123 99 95 95 96 106 111 94 119 113 103 105 104 98 94 91 98 102 102 100 110 107 125 135 143 150 151 148 153 150 150 151 151 152 154 150 153 150 152 150 150 149 156 154 153 155 153 153 157 152 155 155 156 153 155 149 124 94 86 82 81 93 99 88 97 99 91 87 87 86 91 108 98 90 96 88 90 90 107 119 135 125 115 106 115 117 104 109 120 110 118 124 119 114 102 97 104 108 114 111 111 104 96 94 99 101 105 92 93 104 92 90 108 105 105 117 117 139 150 146 152 148 150 152 150 153 152 149 153 150 152 149 150 151 155 153 155 155 154 154 154 150 154 154 152 153 151 119 90 77 89 82 79 92 102 95 81 104 85 87 85 87 106 109 84 82 86 82 87 102 120 121 124 111 106 103 100 98 96 113 119 116 115 112 111 112 106 108 105 114 115 108 107 114 117 107 105 111 109 104 102 102 98 95 102 100 99 110 101 120 149 151 149 148 152 151 149 154 150 152 149 152 150 153 150 151 153 154 154 152 156 154 154 151 154 153 150 150 126 78 86 80 92 98 101 103 106 103 98 109 100 81 95 105 109 90 75 69 81 92 96 97 114 109 110 111 119 96 83 80 106 116 126 124 108 94 98 108 111 108 106 109 117 109 106 115 115 106 104 102 121 114 104 105 100 94 98 108 97 98 107 95 134 149 150 147 155 150 152 151 152 150 152 152 149 154 150 150 153 152 150 155 153 151 152 153 149 151 150 123 87 81 89 78 107 90 108 99 100 123 113 115 113 91 103 105 80 66 72 71 88 85 84 91 95 112 105 103 104 79 90 99 125 126 117 119 109 93 105 109 101 104 116 100 105 111 103 105 110 111 115 107 120 119 92 108 108 102 103 121 118 110 107 101 105 138 152 151 150 154 149 150 152 149 152 152 148 151 151 150 154 151 150 151 153 150 153 150 151 145 120 88 73 84 103 100 110 95 105 98 103 126 114 108 106 100 100 92 73 61 71 105 85 73 67 94 90 107 96 90 89 103 109 132 138 127 126 120 108 117 120 113 102 102 112 109 113 112 116 116 113 111 107 104 120 138 111 110 102 104 91 105 120 111 114 112 88 117 134 141 148 148 145 151 149 151 153 150 150 150 149 150 152 150 149 149 150 149 148 149 145 129 89 81 72 97 123 103 94 95 95 85 110 114 100 95 93 93 92 92 96 86 94 77 72 61 71 83 84 99 96 78 88 96 107 114 114 113 120 110 112 118 123 107 108 103 105 111 109 113 121 114 104 107 102 104 117 130 107 114 103 97 91 93 110 97 114 104 108 109 122 113 122 146 150 152 150 151 150 150 152 148 151 152 148 149 150 147 145 144 147 145 140 113 77 79 85 89 114 106 93 78 82 83 106 102 80 86 90 90 91 100 89 90 82 69 61 55 76 71 87 86 75 81 84 86 86 87 95 118 122 121 112 115 118 105 99 105 110 109 106 121 113 114 113 111 113 107 104 110 96 122 105 89 81 81 92 85 104 115 98 93 113 96 94 110 146 151 153 148 150 149 149 149 151 149 146 147 143 143 143 140 142 137 124 90 87 97 94 91 101 98 90 64 70 89 89 84 85 78 81 77 78 72 72 80 69 59 64 61 78 89 78 81 83 97 92 92 88 80 111 132 115 106 114 112 115 112 117 129 126 118 107 100 99 103 103 115 106 103 102 90 91 111 102 90 89 87 90 81 93 98 101 94 98 98 89 84 114 149 153 148 151 149 150 150 149 151 141 142 139 139 140 136 140 114 99 89 95 105 106 92 95 88 76 63 70 80 75 72 83 86 94 87 80 78 93 91 91 93 80 79 103 123 115 117 118 116 102 101 81 84 113 106 110 117 110 104 101 108 121 140 132 108 84 95 86 80 98 89 85 94 99 93 74 110 93 96 93 92 99 88 86 85 107 114 103 95 83 71 68 139 153 150 150 151 152 149 151 150 142 138 135 139 139 139 124 89 72 85 117 115 108 100 79 82 56 61 68 78 71 66 79 83 97 95 79 72 84 88 100 117 101 97 111 113 113 106 90 83 80 93 85 100 95 104 112 104 105 95 101 98 110 120 113 103 96 97 88 97 97 77 94 92 103 87 78 96 91 89 80 101 97 94 89 85 112 112 105 92 83 70 52 124 148 152 147 151 149 152 150 149 133 134 136 134 132 128 100 84 77 82 108 121 104 108 87 75 59 65 66 69 72 80 68 76 93 98 71 60 81 74 69 91 90 86 89 85 89 70 83 68 77 75 86 101 92 101 95 100 90 88 86 82 85 87 114 112 107 100 92 106 99 94 92 65 103 97 81 87 83 75 99 100 81 87 93 94 99 105 102 92 85 85 75 91 137 151 147 150 152 149 151 150 138 133 130 131 127 106 82 71 82 87 107 109 106 94 87 78 63 70 64 74 71 78 70 81 88 97 70 68 61 68 58 74 72 75 72 74 61 58 72 80 70 64 82 89 101 98 78 95 80 87 83 85 73 92 106 108 95 93 88 120 117 96 84 83 93 104 91 86 79 94 99 73 90 84 83 99 91 108 105 100 82 92 91 78 93 140 153 147 149 151 149 151 134 133 129 127 106 98 91 95 92 84 94 97 93 83 82 90 83 76 67 66 65 69 82 85 91 78 71 67 66 69 66 73 69 67 65 62 57 82 75 62 61 62 85 87 101 77 72 88 85 91 85 68 72 77 81 86 80 87 106 124 115 107 98 98 108 114 95 85 80 92 84 80 85 84 82 101 103 106 98 107 102 91 86 81 87 120 147 148 149 152 148 150 134 129 115 97 87 86 102 100 102 89 98 91 86 87 98 79 78 78 86 62 70 68 105 85 77 66 66 69 69 60 72 69 74 66 64 62 58 64 69 81 85 95 99 93 83 67 63 56 98 90 71 64 65 64 58 62 80 91 110 116 98 103 99 94 97 94 77 68 75 95 83 77 83 85 88 94 105 103 91 100 107 99 86 75 82 107 138 150 147 151 147 151 131 125 87 80 74 77 96 103 97 96 80 89 90 76 80 65 74 84 76 79 76 82 98 78 65 85 68 65 65 58 71 75 72 72 65 67 65 70 93 99 91 90 95 97 66 67 57 60 91 81 62 72 65 49 55 60 74 94 102 84 81 90 85 78 88 75 74 86 106 88 86 87 88 86 89 97 94 100 97 93 104 111 100 83 73 86 110 150 148 150 150 150 126 118 82 72 81 76 100 105 93 92 95 91 80 75 83 67 74 72 73 73 79 77 93 85 73 82 73 65 74 63 70 81 71 73 67 73 84 76 80 88 85 88 99 95 63 71 56 63 89 69 60 67 55 47 53 63 67 79 82 75 74 84 85 62 76 81 97 118 95 91 94 81 84 91 86 95 97 97 105 91 102 110 98 85 74 61 84 131 148 153 146 150 129 109 77 75 76 79 98 98 91 104 97 96 87 74 78 70 75 78 68 73 79 78 89 98 99 77 78 82 78 69 74 77 86 79 71 88 89 88 74 92 87 97 97 85 77 63 56 58 82 79 61 68 50 45 50 64 67 67 73 79 78 81 79 71 75 98 118 121 108 112 95 87 88 89 90 93 107 106 114 97 94 102 98 78 76 63 78 96 150 149 150 151 117 92 77 56 68 84 104 115 105 102 101 107 84 60 83 71 75 70 71 82 79 92 89 92 101 96 86 80 77 69 82 86 79 76 84 75 79 85 95 90 93 100 83 85 78 53 59 52 72 80 65 57 54 51 62 58 63 65 65 65 76 70 73 72 90 104 113 129 127 110 109 81 78 92 92 83 103 111 106 97 85 80 77 68 72 66 69 94 128 154 151 148 114 88 67 62 80 95 114 123 93 96 111 92 82 62 72 83 87 81 72 81 90 90 94 92 105 104 95 78 90 84 95 83 76 82 76 74 80 77 93 82 99 89 71 78 75 67 58 65 63 78 68 56 56 55 63 57 59 52 67 60 64 65 70 67 94 106 110 113 116 101 105 80 91 87 87 86 95 90 108 115 100 81 79 75 66 66 59 81 115 149 151 149 92 68 70 72 82 99 104 107 98 96 89 94 92 79 77 70 83 85 75 89 95 88 92 102 100 91 92 82 85 92 86 74 89 86 84 84 75 79 75 71 94 79 74 77 73 70 62 65 73 67 71 66 54 56 71 58 60 63 63 65 67 74 83 74 92 100 111 105 101 88 93 85 87 75 85 95 78 83 96 94 94 99 71 87 69 71 83 87 105 147 150 148 75 67 64 70 80 89 102 103 94 102 91 86 92 89 93 88 79 81 79 85 90 89 81 92 95 92 87 91 80 85 83 75 94 96 88 79 74 84 75 72 85 84 85 86 72 79 76 71 79 74 60 80 78 58 71 69 66 66 70 73 72 78 103 89 82 107 110 104 89 89 99 91 85 93 86 101 76 70 76 77 82 88 79 82 71 78 92 100 103 148 147 149 68 62 66 71 85 103 90 85 96 100 93 89 82 84 103 119 101 77 84 81 82 83 77 83 83 83 85 88 76 82 77 83 94 98 90 82 90 78 77 79 83 90 92 99 86 87 87 89 83 88 78 80 81 63 68 73 73 70 66 64 62 67 89 95 80 104 99 95 98 93 101 115 109 93 86 95 77 60 68 80 87 89 78 80 84 82 83 98 100 149 149 150 64 67 79 85 94 89 80 90 100 93 100 93 86 81 114 132 117 92 94 88 89 88 96 92 81 83 89 81 78 76 79 92 107 99 100 100 96 83 85 87 88 85 102 107 99 96 97 102 107 101 86 89 82 77 75 74 84 87 65 67 68 72 78 81 83 93 84 100 107 101 112 138 138 110 80 83 72 63 71 76 84 98 82 77 96 89 88 91 90 131 150 151 66 76 84 71 72 78 81 98 93 90 94 81 73 99 133 136 136 118 101 110 103 108 104 97 95 99 97 81 68 75 95 100 109 108 118 111 108 99 95 95 90 97 105 116 109 106 115 110 120 122 96 107 93 91 84 95 108 103 75 72 68 66 67 80 77 79 87 125 128 128 139 158 140 135 102 85 71 72 75 87 103 105 91 87 75 88 98 105 82 96 140 154 63 63 69 74 66 78 95 95 90 103 80 67 88 122 154 155 142 132 126 131 136 140 134 126 112 122 121 107 111 117 126 127 125 137 134 122 117 105 123 118 107 106 116 118 119 129 131 125 132 127 126 121 112 113 112 115 113 122 96 77 68 74 81 77 82 84 119 153 130 142 142 151 150 146 134 86 71 63 71 74 75 87 91 91 101 89 92 109 91 79 101 151 66 61 66 64 62 90 103 87 108 100 59 69 116 143 161 157 145 141 153 152 158 155 147 146 137 142 143 138 145 148 153 155 150 154 155 151 146 124 135 127 114 118 134 140 132 132 142 133 143 139 140 146 137 141 138 124 114 101 106 90 81 70 86 88 84 100 121 133 127 135 147 157 157 149 150 105 73 62 83 80 86 90 95 113 119 112 100 93 113 84 70 137 64 62 64 59 71 88 102 92 111 69 65 93 138 152 163 158 154 160 161 156 164 158 150 154 152 154 158 146 152 153 154 169 170 170 174 170 159 151 151 137 132 146 153 160 169 140 142 153 146 144 164 170 165 155 153 143 125 115 106 98 94 86 90 85 108 138 146 145 149 153 162 165 164 166 157 125 94 75 79 94 89 86 96 107 107 94 72 71 94 103 65 93 63 65 55 67 70 89 87 96 94 62 79 116 150 161 162 159 163 169 162 161 165 162 158 161 159 164 171 165 174 180 186 198 191 174 174 172 172 160 160 156 158 175 171 166 187 168 136 145 161 152 164 187 191 180 162 157 132 145 132 116 106 110 122 126 149 171 170 167 166 175 177 172 172 175 170 144 119 88 86 87 98 100 100 88 100 91 65 64 69 105 76 73 69 65 69 56 71 90 87 89 75 71 97 139 157 165 161 166 159 171 166 162 173 166 167 170 168 178 176 179 188 197 200 198 196 190 183 172 179 170 173 176 187 190 175 173 190 192 166 148 165 175 165 165 183 184 170 173 169 168 168 151 146 151 162 162 165 170 181 189 185 180 183 173 175 178 178 158 125 106 101 87 93 93 103 96 90 81 66 65 59 92 74 67 56 60 72 65 73 81 90 86 77 77 118 150 159 163 166 164 165 171 169 170 180 173 177 182 182 187 188 193 195 202 202 207 207 209 203 201 197 190 188 195 199 202 192 187 194 197 188 181 173 190 197 178 181 192 191 192 201 189 184 181 178 187 190 173 180 168 177 194 192 189 187 171 175 182 173 174 139 118 100 115 94 92 100 97 85 81 78 57 65 68 73 69 60 58 59 67 74 79 85 89 86 93 131 153 155 161 164 165 167 172 176 181 187 187 186 190 194 195 201 205 202 207 207 208 212 212 211 213 212 206 206 203 205 208 199 200 202 198 196 197 198 198 205 203 201 204 208 207 209 205 200 199 203 200 196 184 181 190 191 191 194 190 188 174 179 178 178 167 158 131 92 114 115 111 92 103 76 96 95 75 60 61 69 68 71 68 60 64 76 91 79 94 81 106 134 155 152 164 160 165 167 174 180 188 190 192 190 195 201 199 203 206 205 205 209 208 214 216 213 216 214 210 208 203 209 211 205 206 209 205 205 202 202 195 205 209 211 209 213 211 211 209 204 201 203 199 198 198 191 196 192 195 191 194 189 180 178 176 178 162 170 146 95 97 118 123 113 115 95 102 84 88 56 73 71 72 70 63 63 58 70 90 81 87 96 111 138 154 156 161 160 164 166 172 182 188 189 192 195 198 202 203 204 207 207 208 206 211 214 216 215 215 216 209 209 205 208 210 206 209 211 211 206 208 205 205 206 213 214 214 216 210 215 213 210 208 208 204 200 201 197 198 196 196 193 192 187 178 179 176 177 169 163 153 114 90 111 121 125 121 97 116 98 71 76 74 74 50 73 62 53 55 77 90 82 91 94 111 148 153 159 160 159 159 165 173 183 189 191 192 198 200 203 202 207 209 211 212 211 211 211 216 216 215 214 213 210 208 210 208 209 211 212 213 209 211 209 206 212 210 212 215 214 214 215 212 208 211 210 207 204 200 196 201 195 196 195 194 187 175 176 177 178 177 165 153 126 100 120 102 105 115 90 100 90 81 74 87 77 61 69 66 58 41 80 94 88 91 86 111 149 147 160 158 157 158 162 176 183 190 191 194 198 203 203 204 208 211 212 215 213 215 211 214 215 214 215 214 210 207 210 212 210 211 212 213 210 212 214 210 208 212 213 211 212 214 214 208 212 210 210 208 203 206 203 202 193 196 197 192 191 172 173 175 175 173 172 150 131 102 117 107 88 89 107 84 79 78 79 83 73 79 67 60 59 47 80 108 84 86 79 121 143 149 158 157 158 154 163 174 180 189 194 197 200 202 205 202 208 213 212 215 216 216 216 214 216 215 217 216 213 211 210 214 209 213 213 212 212 214 213 213 211 210 213 215 214 212 212 211 212 208 211 205 205 211 209 203 199 196 196 192 191 174 172 175 174 172 174 152 131 104 104 119 95 74 95 106 86 77 70 80 70 72 60 53 61 37 90 115 79 81 73 126 146 150 156 157 158 158 167 174 180 190 193 196 200 202 201 203 208 210 213 215 217 217 217 217 216 217 218 215 216 215 214 213 209 213 213 212 213 215 215 214 213 213 213 215 215 216 215 214 213 211 209 210 210 211 210 204 203 196 198 195 187 180 173 175 170 173 170 150 133 106 100 109 107 66 83 90 95 81 65 71 71 70 54 60 57 40 94 108 80 72 74 128 156 156 158 155 157 159 167 174 180 190 191 196 202 203 199 206 207 211 214 216 216 217 218 218 218 217 218 218 217 216 216 214 213 212 211 213 213 215 216 216 215 216 214 217 216 217 216 216 213 211 210 212 213 209 211 208 206 195 196 197 189 183 172 173 169 174 165 158 128 90 109 97 98 79 79 88 77 86 64 60 78 74 55 54 55 36 97 97 79 68 81 127 155 151 159 159 154 155 167 173 178 188 192 194 200 202 202 203 210 210 212 215 217 218 217 219 218 218 218 217 217 217 216 216 214 216 214 212 216 216 215 217 216 218 214 216 216 216 217 215 213 215 213 211 213 211 211 210 206 202 196 196 188 180 172 173 170 171 169 169 133 89 101 94 90 75 90 81 76 82 70 61 82 75 56 54 55 53 89 89 74 61 91 131 144 151 151 159 158 155 165 175 179 184 192 193 198 202 202 204 206 208 211 214 218 218 216 218 217 218 218 216 217 217 218 216 217 217 216 214 215 215 216 216 216 217 216 217 215 219 217 217 216 213 214 214 212 212 211 209 204 205 195 195 188 179 176 172 173 167 169 172 145 79 85 90 100 58 97 70 74 78 66 60 84 76 75 56 64 54 75 91 63 61 92 138 146 149 152 158 160 157 167 173 179 184 191 192 194 198 199 200 205 204 208 212 217 218 216 217 217 215 218 218 217 217 218 217 216 218 216 215 215 215 216 217 216 218 218 217 216 218 218 217 216 212 214 215 213 212 212 208 201 207 198 190 187 181 178 175 170 167 167 169 164 85 70 87 99 64 101 70 71 72 55 72 64 81 92 68 69 60 67 82 67 56 94 141 146 151 150 156 160 159 165 175 181 185 188 180 187 197 199 201 200 198 203 207 210 215 217 217 214 214 216 216 217 218 218 218 217 217 215 215 216 216 216 217 218 215 217 217 217 218 216 216 216 215 212 214 212 211 209 206 202 204 199 192 186 181 176 178 170 170 166 167 169 116 66 78 89 74 84 68 73 69 52 66 61 62 100 80 60 60 68 70 64 61 91 143 145 153 151 156 161 157 167 178 181 181 167 162 171 181 188 189 190 193 195 200 205 206 211 213 213 213 214 213 217 217 219 217 216 216 215 214 217 215 214 216 218 212 214 215 216 216 211 212 212 213 212 211 208 209 200 199 203 202 196 193 187 180 175 174 172 171 168 164 166 145 68 67 81 74 73 60 72 68 60 64 57 94 98 84 73 58 58 70 67 51 94 143 146 150 153 155 160 160 171 175 180 164 152 149 156 173 167 147 164 167 168 181 191 197 201 202 207 207 210 212 214 215 216 217 217 212 214 212 215 214 213 212 209 211 211 212 207 207 203 211 204 208 204 203 202 202 188 178 193 202 196 192 191 180 176 173 173 167 165 164 164 160 82 69 70 76 64 62 65 68 56 62 70 112 112 87 67 66 48 63 59 64 90 144 145 153 152 156 156 157 155 145 137 129 114 102 112 116 115 119 127 131 138 140 149 161 174 193 196 195 205 210 210 212 213 215 213 212 209 208 210 207 209 211 203 203 203 195 193 179 169 173 179 179 184 179 174 172 170 169 162 179 196 188 192 180 178 172 174 171 164 160 164 162 89 69 64 66 62 58 58 67 58 54 83 121 126 97 85 73 59 60 62 63 74 142 146 154 152 153 152 154 167 156 166 184 180 168 181 206 183 185 140 124 125 119 121 121 136 158 170 184 191 205 205 208 208 210 208 208 208 204 203 198 195 196 190 169 157 152 146 131 142 149 147 141 135 142 130 123 112 131 140 156 159 165 182 184 172 170 174 171 164 160 162 163 106 78 55 56 62 58 56 64 50 68 109 141 122 110 105 86 66 53 63 65 38 130 151 151 152 153 157 143 159 138 135 131 137 140 79 188 190 190 119 131 134 137 132 123 119 122 112 143 168 183 203 205 205 209 205 207 204 199 199 190 188 179 156 138 141 156 189 194 125 146 143 148 162 145 181 224 226 224 221 219 213 175 154 189 170 167 172 174 164 163 163 164 102 81 53 54 59 55 57 58 51 94 122 147 121 113 113 105 83 71 59 69 25 108 157 153 154 160 149 128 150 133 142 142 148 152 87 178 212 227 121 109 115 117 130 140 172 191 178 202 213 206 184 205 207 210 206 206 204 198 199 194 183 161 167 191 164 143 133 143 110 101 109 115 128 90 179 233 224 223 221 223 215 186 133 166 160 161 168 168 165 163 163 155 84 76 45 58 56 59 56 51 59 131 138 145 123 119 111 135 107 78 69 70 28 81 158 151 158 157 137 130 141 137 160 143 162 165 154 150 165 175 166 162 155 141 143 134 189 235 224 224 226 233 176 195 209 211 207 205 207 201 197 184 157 145 129 132 137 137 132 144 137 131 142 144 149 140 127 232 225 221 228 193 162 169 153 142 165 173 166 168 169 166 166 140 84 61 45 62 51 65 58 48 92 141 147 142 124 115 128 124 108 89 78 70 41 67 147 150 159 150 141 140 148 144 160 150 151 163 161 164 158 167 164 162 157 151 146 139 114 209 229 224 228 224 138 193 211 213 211 211 209 209 194 147 165 167 159 156 161 164 153 168 162 160 167 172 173 167 161 165 215 197 194 146 139 156 168 156 146 185 164 168 174 168 171 117 72 60 68 55 56 66 110 82 109 144 146 144 120 114 133 97 79 95 99 70 57 70 143 152 156 150 153 148 151 153 155 137 119 113 122 146 138 160 173 168 172 152 133 122 78 143 181 178 188 178 146 176 215 216 211 208 206 202 175 149 177 168 160 158 157 162 121 140 151 126 138 145 151 147 151 143 163 174 179 174 160 158 167 169 161 174 178 169 173 171 157 101 63 64 82 82 64 149 159 144 130 147 142 144 120 112 138 91 75 83 81 56 66 99 174 185 165 143 150 150 146 150 140 122 118 117 120 134 126 103 121 140 132 112 134 144 139 128 129 141 165 169 132 216 227 230 210 173 176 153 218 218 173 170 164 156 145 135 128 137 152 127 126 140 158 160 169 151 150 141 145 162 153 146 167 172 170 174 165 169 170 137 126 121 69 61 77 105 108 168 154 137 151 140 144 145 118 113 138 98 86 91 84 56 60 121 151 177 144 153 152 146 143 142 136 108 105 110 99 120 106 94 84 91 89 112 152 144 143 157 146 132 138 145 114 85 134 157 167 163 156 144 149 162 180 167 168 151 148 139 126 127 127 107 72 88 120 95 142 134 153 148 154 152 131 142 159 171 174 184 145 190 198 83 137 141 59 53 79 85 120 141 91 84 162 149 141 143 115 112 145 95 104 133 118 47 57 150 146 145 132 163 160 146 144 146 143 126 115 128 138 155 137 134 116 99 126 150 186 173 151 129 133 141 127 153 153 151 160 192 197 202 194 182 144 165 182 175 170 175 151 132 123 169 157 138 80 72 83 93 134 133 106 106 138 162 138 125 155 165 169 143 125 153 126 126 170 158 80 58 73 91 130 136 121 88 158 152 140 144 115 111 151 107 130 159 144 48 72 154 154 148 130 149 167 167 165 169 163 156 141 139 145 166 169 158 163 151 171 177 179 167 164 161 153 152 141 167 144 157 196 211 212 213 213 210 147 159 189 176 184 174 152 146 146 164 172 148 134 122 132 134 160 165 129 129 128 154 150 133 148 150 135 93 140 148 160 171 170 164 98 68 68 127 164 157 147 117 147 164 137 144 113 112 155 114 145 160 146 26 93 152 159 153 138 138 159 171 174 179 174 170 163 156 142 148 158 155 161 162 167 179 183 175 174 180 182 168 155 166 135 166 202 211 212 213 211 214 172 129 192 187 190 189 189 186 176 174 176 166 171 182 166 162 166 157 142 153 160 172 165 148 148 124 102 112 152 170 176 175 167 165 103 50 47 161 178 158 169 138 136 168 136 143 116 103 153 126 153 150 133 21 114 151 160 152 156 141 149 172 185 186 181 173 163 164 163 172 187 191 192 192 191 186 184 181 183 187 176 186 164 150 133 182 204 214 212 210 211 210 186 152 185 189 198 194 184 189 185 184 189 187 187 186 177 177 179 172 167 172 179 187 183 153 133 115 121 164 164 174 184 175 166 172 98 49 55 158 184 161 183 155 133 175 139 142 115 112 150 140 151 155 130 22 115 150 159 162 163 152 151 172 188 193 189 185 177 169 169 166 160 168 169 177 179 182 191 198 197 185 183 205 173 144 135 177 203 217 211 209 209 209 197 134 179 178 199 196 197 189 184 182 175 171 176 178 180 177 184 176 190 191 178 194 186 167 142 144 157 186 168 175 185 174 166 174 117 46 99 166 180 168 172 162 158 179 136 143 115 99 153 144 150 153 127 37 115 148 158 159 168 159 150 174 186 192 190 187 189 185 187 189 182 180 181 182 189 195 195 196 194 194 168 190 203 148 148 177 205 219 211 205 211 210 198 176 118 211 219 194 202 194 191 192 193 185 178 177 176 178 182 177 182 191 189 196 195 182 168 177 178 189 171 179 181 178 166 167 130 65 77 148 169 172 166 157 168 168 133 142 117 105 146 149 151 153 122 62 129 147 158 160 171 166 155 168 183 190 191 188 193 189 194 199 194 190 195 192 193 199 195 196 195 195 157 157 166 149 160 177 202 221 213 207 212 206 190 176 131 128 184 192 206 201 199 199 200 198 193 193 190 188 194 191 189 194 194 195 198 189 177 188 192 187 168 184 181 172 165 162 138 117 108 140 164 174 168 150 178 152 136 144 118 95 145 152 148 159 129 101 135 146 154 162 163 172 165 169 172 185 185 192 192 193 197 199 198 197 198 198 199 199 197 197 204 197 171 173 150 159 162 179 197 218 215 208 209 202 194 187 179 144 156 195 206 207 201 202 202 202 204 202 200 200 198 198 195 198 194 197 197 191 177 187 197 180 164 186 177 172 162 160 138 152 151 137 155 181 174 144 175 147 137 142 115 104 132 158 140 167 138 120 136 141 156 163 156 178 169 163 169 180 188 196 198 200 200 198 201 198 197 203 198 199 202 195 201 189 164 166 163 170 168 180 198 212 212 208 206 204 198 194 189 180 162 164 202 210 203 201 203 203 202 202 202 205 203 202 197 196 198 198 197 191 175 184 201 162 176 183 179 170 160 157 143 183 172 143 145 181 181 143 181 133 139 140 120 106 126 164 135 150 162 134 131 141 153 165 156 206 189 161 168 181 194 198 202 203 201 199 198 197 199 202 203 195 198 192 187 165 157 168 174 171 175 186 198 210 208 210 202 206 207 202 193 189 177 154 180 209 203 202 201 202 200 201 198 202 199 202 200 196 198 195 197 189 169 186 194 159 186 182 178 164 158 155 146 182 200 149 142 178 185 155 172 130 142 146 111 112 110 163 152 123 160 165 134 136 152 154 162 166 175 168 177 184 193 198 203 203 202 199 198 201 201 201 203 196 197 185 160 151 158 172 172 169 189 201 201 202 207 208 202 204 211 201 191 187 185 171 153 182 206 203 203 201 204 205 201 202 202 201 204 205 199 197 197 185 171 188 167 184 191 178 173 163 156 149 144 178 204 149 141 185 168 166 160 133 138 145 114 111 100 159 158 151 138 162 150 131 153 154 166 170 171 155 169 185 194 199 203 204 202 201 199 199 203 199 201 198 183 164 177 157 161 165 160 177 195 197 204 206 205 208 205 205 210 194 186 178 188 187 158 145 187 207 203 203 201 203 201 201 204 204 205 204 198 199 196 189 192 181 182 192 187 179 170 162 153 148 144 185 183 144 165 191 155 174 149 135 139 140 112 112 103 141 162 163 158 165 161 125 149 154 164 167 167 172 167 173 178 175 185 192 197 200 203 206 210 202 188 168 169 182 177 152 172 162 161 180 192 195 203 208 207 208 205 203 203 192 185 174 185 181 182 162 146 175 208 208 203 204 202 201 207 208 205 206 197 194 184 179 182 192 189 190 184 175 169 157 156 146 142 185 153 164 188 167 166 179 135 140 138 139 110 115 106 125 163 163 163 169 164 124 145 154 158 160 163 164 164 171 173 176 171 172 172 161 157 163 168 173 167 177 190 184 156 167 188 163 167 184 193 196 205 218 214 209 206 204 199 190 184 183 200 186 173 190 166 135 161 217 212 190 191 189 189 185 181 169 162 169 178 183 196 196 189 187 182 172 167 154 155 142 145 167 162 177 175 161 178 170 129 137 140 134 110 114 111 105 147 163 162 169 163 126 140 154 158 158 166 167 166 170 170 168 175 176 181 177 182 181 180 185 189 187 187 164 147 182 180 161 171 184 192 197 207 218 216 216 214 204 195 189 188 181 194 198 175 186 189 168 142 154 165 152 157 162 171 175 179 179 173 185 192 195 199 190 186 188 181 172 161 156 154 138 146 170 180 169 172 169 178 154 126 141 139 138 114 111 115 97 130 164 165 166 168 127 140 150 155 160 166 173 175 175 173 175 179 182 183 186 191 189 189 187 187 183 179 138 151 175 169 154 165 179 187 194 204 208 212 215 210 202 195 189 181 181 182 188 176 175 193 198 195 190 193 193 193 196 197 199 197 195 193 196 193 199 198 185 186 183 180 169 160 153 155 127 174 187 182 170 170 176 165 135 137 135 139 135 113 112 109 112 105 155 167 166 173 131 139 147 152 159 166 172 179 178 178 182 184 183 192 195 194 197 196 189 185 182 171 151 148 149 155 140 151 163 169 182 193 197 199 198 189 190 184 183 178 168 172 176 171 184 197 196 195 189 194 193 196 200 201 196 199 196 195 194 193 194 193 184 182 177 180 164 160 153 152 128 178 185 186 184 176 172 161 130 138 135 137 138 112 111 111 110 106 126 164 164 178 135 133 148 151 157 167 169 176 182 186 186 190 192 193 200 199 196 192 186 186 188 177 164 158 127 118 117 128 139 138 147 170 179 184 178 170 169 165 168 158 135 146 158 175 193 204 202 197 192 195 196 197 200 199 193 191 194 192 186 192 194 191 182 182 173 171 166 154 155 150 130 183 184 188 184 181 178 129 132 137 136 136 137 111 110 113 110 110 105 143 155 170 146 128 144 153 150 162 168 172 176 183 182 189 192 194 195 199 190 193 195 198 197 187 168 167 128 93 81 77 98 117 128 135 154 164 162 155 157 145 135 133 118 122 164 187 195 198 205 205 198 197 196 199 200 204 197 195 193 191 183 192 188 188 180 174 174 175 165 155 154 142 147 173 184 182 185 185 154 132 133 136 134 136 133 110 110 112 109 112 107 109 135 151 141 130 139 151 151 157 160 171 170 179 186 185 188 193 194 192 192 197 202 203 200 192 182 173 160 115 89 87 78 89 92 117 137 145 150 145 130 138 152 152 162 168 180 190 194 196 203 205 203 198 196 198 199 200 201 196 196 188 187 187 185 183 178 174 176 170 159 154 155 131 164 173 175 184 181 174 131 131 131 133 136 132 136 108 113 111 111 112 111 109 112 116 117 129 141 148 151 154 157 165 170 179 181 182 188 186 190 194 194 201 199 201 194 194 184 186 176 162 137 111 100 98 92 92 109 126 133 135 152 166 168 170 181 180 180 187 187 195 200 205 205 200 202 199 199 199 201 197 194 190 186 187 185 179 177 171 172 167 157 156 152 131 164 174 172 176 171 145 124 135 132 134 130 133 130 109 112 112 111 109 108 113 112 109 108 131 139 147 152 153 154 161 169 177 179 182 185 189 192 195 199 204 196 194 193 190 189 191 190 187 178 160 136 122 114 109 114 137 152 157 173 177 182 180 179 182 184 186 187 192 198 202 206 205 204 200 201 201 197 199 194 194 186 187 183 179 174 173 174 164 159 155 151 136 137 162 163 156 140 130 131 132 132 134 132 130 132 108 109 108 110 113 107 114 109 113 103 127 137 146 152 150 154 162 165 170 177 183 187 190 193 194 201 199 194 187 191 187 189 188 191 194 190 186 178 167 162 160 162 175 176 169 183 187 186 182 180 184 182 187 188 196 196 200 206 207 204 199 202 201 198 197 197 192 187 185 180 176 172 172 171 164 157 155 149 139 124 137 136 132 131 133 129 131 130 132 131 130 130 107 108 109 110 109 110 110 112 113 102 122 135 142 150 154 157 160 166 168 176 179 184 190 188 187 193 200 194 188 189 187 191 190 186 190 188 191 190 193 191 183 184 178 176 177 181 187 184 182 182 188 186 187 192 194 198 197 206 203 203 199 201 203 198 196 195 188 187 183 180 178 173 169 167 156 162 154 147 133 130 132 130 129 129 132 129 131 130 129 129 131 129 113 110 107 116 106 113 108 111 111 103 116 135 136 150 155 157 164 166 169 177 172 183 187 180 183 185 186 185 180 179 181 187 188 189 193 193 198 194 200 204 197 189 182 176 175 181 191 190 189 188 188 189 186 191 192 192 194 194 196 198 196 195 195 197 194 191 186 189 183 179 176 168 166 162 162 156 154 147 129 130 128 133 126 131 129 133 127 127 131 127 130 126 112 106 111 106 108 109 109 108 112 108 107 137 133 146 154 159 164 168 172 174 173 174 182 178 178 179 182 177 174 168 176 181 187 187 190 191 194 192 198 204 203 198 190 183 183 182 192 192 191 193 192 192 181 190 185 186 185 185 192 197 195 195 194 192 189 192 187 188 180 176 172 165 161 163 162 156 153 141 129 130 128 129 131 127 131 126 127 128 125 127 128 128 113 106 112 107 111 108 111 108 114 105 103 132 133 139 146 155 167 169 172 177 176 171 176 180 178 175 171 167 156 149 158 172 171 167 159 163 162 163 168 168 169 184 188 176 173 169 172 171 176 179 186 190 185 188 185 178 175 179 188 193 198 197 194 190 187 189 185 185 178 174 170 164 164 165 157 156 156 136 125 132 128 129 129 127 129 126 127 128 127 127 127 127 111 108 111 107 107 111 109 111 110 111 100 122 134 135 141 148 159 172 169 177 176 172 171 180 182 171 167 152 124 98 117 132 135 126 126 136 147 150 160 155 150 148 156 149 153 153 156 158 153 152 153 156 160 163 167 160 149 153 164 178 195 195 189 187 181 188 186 183 178 176 168 166 162 164 161 154 149 131 126 129 130 126 127 125 127 124 126 126 124 127 125 125 107 108 107 110 110 107 111 108 110 110 108 112 127 135 141 144 157 163 172 176 179 171 169 176 183 183 175 169 128 106 90 99 98 101 100 104 106 123 135 135 135 136 139 137 137 137 140 140 134 135 126 123 123 125 130 130 126 118 144 172 189 191 189 183 178 184 183 183 177 173 168 165 164 164 154 157 142 128 124 132 125 128 124 129 125 128 126 124 124 124 125 124 106 109 107 109 112 111 109 107 112 108 110 105 129 130 137 144 148 160 165 176 180 173 176 180 186 184 191 185 177 183 166 154 153 152 150 161 154 154 161 154 156 158 150 151 156 143 140 146 146 150 154 151 149 150 147 158 168 163 163 175 188 188 187 182 179 184 181 179 174 175 166 170 163 162 161 154 135 128 129 125 124 128 123 126 124 126 124 123 126 123 123 123 104 110 106 109 110 106 107 108 107 108 110 104 113 134 136 135 141 157 159 172 182 179 176 182 183 185 193 190 190 188 180 163 164 163 168 168 164 176 194 193 191 193 189 185 190 188 188 185 180 172 177 176 170 170 165 178 188 192 187 189 192 191 187 179 183 186 179 174 173 166 167 168 161 165 154 148 127 126 124 128 126 129 124 126 127 125 122 123 121 124 123 122 108 109 106 111 105 109 112 108 110 109 107 106 102 127 133 138 136 149 159 161 173 180 179 175 182 186 192 191 191 193 187 177 163 160 158 162 162 160 170 177 178 183 184 181 184 188 187 181 176 177 174 175 173 173 181 189 191 196 199 190 191 190 187 175 184 182 177 174 172 166 166 160 160 156 154 141 117 127 128 122 125 122 125 122 124 128 119 126 120 121 123 122 106 108 109 108 109 111 104 111 106 110 110 107 100 118 129 132 139 143 153 157 167 173 179 175 178 183 188 193 190 194 192 181 177 168 166 157 156 159 163 162 167 167 173 172 174 173 174 174 173 175 176 181 186 187 185 189 195 198 201 197 194 193 186 183 183 179 174 176 170 163 165 161 161 153 146 132 121 124 128 125 123 125 122 122 124 121 121 123 120 121 122 122 110 108 106 108 107 108 104 109 108 108 110 106 113 98 128 129 134 138 148 155 158 172 169 178 174 182 186 192 192 189 191 183 178 175 175 167 158 155 150 146 143 140 147 146 152 157 166 170 171 176 182 190 190 186 188 188 195 201 198 198 191 188 180 184 182 176 172 172 169 161 166 162 155 147 139 124 122 125 123 124 123 122 121 123 121 121 121 121 123 117 121 121 104 106 109 106 106 109 105 107 110 106 109 109 107 99 132 122 128 135 140 151 157 163 164 172 171 178 182 181 189 188 187 183 182 177 181 175 171 165 163 159 159 154 146 144 145 150 160 165 173 179 185 187 188 187 189 190 196 197 195 196 188 180 179 180 174 174 170 168 165 162 161 160 152 145 123 122 123 128 121 123 121 124 121 121 118 120 124 117 120 117 122 121 106 108 103 109 108 106 106 106 107 110 107 108 107 94 141 133 116 130 136 142 149 158 160 165 167 172 174 177 181 183 180 181 182 176 178 183 179 174 173 174 173 172 173 164 160 172 170 177 177 179 185 185 185 189 187 189 192 191 192 189 187 179 177 173 170 173 166 166 163 163 155 155 142 140 118 120 126 120 119 123 120 120 119 121 119 120 118 117 119 118 118 121 105 106 107 107 108 107 109 105 107 111 105 111 108 93 140 155 121 122 131 137 143 152 157 162 160 165 169 173 178 181 180 174 184 178 179 184 180 181 183 178 180 176 183 176 180 181 183 188 183 186 187 186 187 187 185 189 190 188 185 185 183 175 174 174 171 170 163 164 160 156 152 143 135 150 116 122 123 118 124 118 120 120 120 119 122 122 116 117 114 120 113 118 104 107 104 111 104 107 107 105 107 107 107 109 94 118 161 157 143 119 123 131 136 146 149 154 159 164 163 163 173 179 181 178 180 182 181 186 180 187 186 187 190 193 191 194 193 186 188 193 189 190 189 185 184 185 183 186 192 187 182 177 181 172 172 174 168 167 159 166 156 152 149 130 151 148 114 120 126 122 122 119 121 118 118 119 119 120 117 119 117 119 115 118 106 109 105 105 108 107 104 106 108 106 106 110 64 185 184 143 155 136 119 125 131 137 143 145 152 159 162 163 172 173 178 181 181 183 184 190 194 198 200 202 200 207 204 206 204 204 201 200 195 195 194 190 193 188 188 187 188 186 179 173 172 167 169 169 163 164 156 157 157 147 129 144 166 138 114 124 121 123 119 121 122 119 117 123 116 119 115 119 117 114 117 113 105 106 108 104 105 109 103 110 105 106 107 88 100 230 183 139 152 146 130 122 124 130 133 143 146 154 162 157 170 171 176 181 184 189 189 196 202 202 202 203 203 208 203 204 209 205 209 208 204 204 204 195 195 191 191 190 186 180 178 174 170 167 168 166 162 159 152 152 149 134 139 158 165 138 116 122 121 122 117 124 116 120 117 118 118 116 116 115 118 114 115 114 108 103 106 107 107 106 108 104 109 109 104 67 176 233 177 137 156 149 135 124 124 124 127 136 138 147 154 152 158 169 169 174 183 192 191 196 202 201 202 201 203 208 204 204 207 209 209 208 206 208 209 200 191 192 193 188 181 176 174 173 166 164 165 163 157 153 148 147 134 134 160 162 162 141 119 120 121 119 117 121 119 114 118 116 116 116 116 113 115 114 112 115 108 106 107 104 108 106 108 105 108 108 80 115 212 231 169 142 158 148 141 124 122 126 126 133 127 136 148 151 157 162 162 166 170 184 184 191 194 196 202 203 202 209 205 205 209 208 208 207 207 205 204 198 193 189 185 179 177 171 173 170 161 163 157 158 150 148 142 133 137 155 165 163 149 172 106 120 118 120 117 120 120 114 119 116 116 113 116 116 114 114 114 113 105 107 104 106 109 102 110 104 109 107 69 184 215 228 159 144 157 150 146 134 114 123 131 130 132 126 136 144 151 155 158 162 168 179 176 184 191 190 196 198 200 204 201 201 204 205 206 207 200 198 195 192 190 183 180 174 173 172 169 165 160 153 149 148 145 137 130 133 151 160 165 166 123 218 125 108 121 119 120 119 115 115 119 112 118 113 115 113 116 112 111 115 108 103 108 104 106 104 106 107 110 70 125 210 215 226 155 148 156 152 152 136 127 113 116 135 129 127 131 129 140 149 149 161 164 169 171 173 183 189 184 189 193 199 193 194 196 198 197 201 194 187 192 185 180 178 173 174 172 166 166 158 152 152 142 149 135 128 125 153 160 158 167 165 120 222 175 89 118 119 119 117 116 116 114 115 112 116 112 111 115 110 113 110 106 102 105 107 104 106 105 112 113 66 183 216 215 229 158 147 157 153 148 146 130 125 104 122 132 132 132 126 125 142 146 149 159 162 161 168 172 183 178 179 182 191 186 185 187 190 190 193 186 184 188 175 172 166 168 165 166 157 161 152 145 143 139 133 125 128 147 162 161 167 167 165 120 220 218 108 108 118 117 115 116 115 113 113 115 114 108 116 109 112 114 111 107 104 107 109 108 124 136 140 132 138 208 213 213 232 162 150 157 157 151 144 137 129 110 112 122 130 133 130 127 131 133 141 145 153 147 163 166 167 176 169 175 176 176 175 174 172 178 182 176 177 173 165 166 163 169 159 159 150 149 142 136 134 123 129 128 146 157 161 163 167 170 166 122 221 221 167 88 116 115 115 116 115 111 113 113 112 113 111 111 113 104 114 122 125 125 127 145 144 141 170 197 198 207 212 214 232 172 153 153 157 156 147 139 131 124 111 119 118 132 132 132 132 126 131 134 142 142 145 153 157 166 164 169 167 165 164 160 162 167 166 167 165 170 156 155 156 157 156 151 146 138 129 127 128 126 135 141 157 162 164 167 170 167 167 127 214 221 206 112 120 120 115 115 114 114 110 112 108 113 110 109 113 111 108 148 143 138 125 160 183 204 213 214 200 209 214 214 231 183 146 158 155 159 150 145 138 128 116 113 113 121 130 130 131 129 125 129 126 129 133 139 143 150 153 156 159 155 156 151 150 158 154 158 157 157 151 151 149 151 148 141 134 128 124 130 136 133 142 155 161 168 166 167 174 167 170 128 222 218 205 175 129 120 130 132 120 111 110 113 109 109 112 106 112 108 111 135 131 151 192 212 216 210 215 211 202 213 217 215 228 200 134 164 155 156 152 151 142 132 121 118 116 119 124 129 127 132 127 133 126 122 118 127 132 139 135 143 145 142 144 143 141 141 140 145 143 142 140 144 139 139 131 124 124 127 136 130 139 143 154 156 166 173 171 173 174 168 172 130 227 219 208 189 200 151 127 140 141 126 114 114 112 107 112 109 108 112 106 148 193 217 218 215 209 214 220 202 207 215 217 218 222 226 127 164 161 160 156 153 147 138 133 115 122 119 121 123 126 127 129 130 130 130 126 121 123 129 127 130 134 133 128 134 127 131 128 125 125 127 124 127 120 119 117 124 128 133 137 140 149 155 165 167 172 175 175 176 172 173 172 128 234 217 210 188 200 217 175 127 143 139 134 122 114 107 110 111 105 110 106 