P2
92
112
255
155 154 154 154 154 156 153 154 156 154 153 154 153 153 153 155 155 153 155 153 153 154 154 156 153 154 155 152 142 139 127 116 116 104 97 104 101 93 91 92 101 96 106 89 87 99 104 113 99 104 108 121 138 143 148 144 145 144 149 148 150 152 148 154 152 153 149 152 149 155 151 154 151 153 152 150 152 149 152 149 153 150 153 150 151 152 151 149 153 148 151 149 154 153 152 153 155 154 155 155 155 155 153 152 155 154 153 156 152 156 152 153 155 155 154 154 153 151 141 127 114 109 104 106 101 98 102 104 102 95 90 91 99 99 102 95 81 90 83 103 100 94 88 92 102 121 112 114 122 132 130 139 149 151 146 153 150 151 152 151 152 154 150 151 152 153 152 151 152 151 154 150 152 152 149 151 150 151 150 152 148 151 151 150 153 153 153 155 154 156 152 155 154 153 153 153 154 156 155 154 151 154 155 153 151 152 150 148 141 125 100 93 90 92 99 104 100 93 88 98 97 94 94 89 113 107 106 104 89 93 90 113 101 99 94 90 82 108 96 91 101 98 103 115 125 147 147 148 149 148 150 153 151 153 150 152 152 151 152 151 151 151 154 148 152 151 149 152 150 150 150 151 148 151 151 150 154 152 156 155 155 155 154 154 155 151 155 152 155 155 154 153 156 151 155 154 152 154 153 136 108 89 80 88 95 84 104 93 99 88 81 93 98 91 104 100 107 101 115 106 103 101 109 116 108 108 93 87 88 105 95 92 87 91 91 90 89 121 131 141 146 144 151 153 149 148 151 151 149 151 152 149 151 151 152 150 151 150 150 150 149 151 149 150 150 151 149 151 153 152 154 155 153 154 153 155 153 154 155 151 155 152 153 154 155 154 151 154 155 152 126 93 88 86 83 91 100 94 97 91 90 93 96 107 99 106 104 103 102 109 114 115 108 113 111 105 108 94 99 88 100 102 94 83 94 93 91 91 95 96 92 113 118 131 143 146 141 146 148 151 149 153 149 151 149 150 152 152 153 151 152 150 149 153 151 150 148 151 151 149 155 155 153 153 154 154 155 153 154 154 156 154 156 153 154 153 154 153 155 150 150 122 90 74 91 85 93 88 101 98 88 82 94 96 122 118 105 111 102 104 108 114 121 109 111 113 107 114 105 108 106 96 109 103 95 89 92 97 98 106 96 105 104 88 80 96 110 131 142 148 147 150 150 151 149 152 151 150 149 151 150 150 152 150 151 149 152 149 153 148 148 149 152 155 154 155 155 154 155 153 152 154 155 154 156 152 155 153 156 147 142 138 108 87 89 87 93 97 92 93 82 93 81 90 102 97 122 111 108 102 88 112 127 123 118 106 113 111 115 122 110 121 113 120 115 93 90 87 91 104 103 105 113 111 105 96 97 96 94 100 106 113 122 144 150 149 148 151 151 153 149 152 150 152 151 152 151 151 150 153 148 151 151 148 153 154 152 153 155 154 153 155 154 155 155 153 154 154 154 154 151 122 103 97 91 94 94 93 94 102 98 96 73 89 80 98 109 92 102 94 97 92 99 118 125 134 118 111 103 120 107 102 118 110 112 127 111 104 101 89 99 113 104 110 109 97 100 99 101 97 91 95 98 103 96 114 135 144 150 150 150 151 148 153 149 149 152 150 151 150 151 152 149 149 151 150 156 152 156 153 154 154 152 156 154 152 156 153 152 154 155 150 122 90 90 85 82 83 100 90 90 89 103 84 86 84 84 111 99 86 85 84 85 95 112 122 120 118 107 109 96 97 90 110 115 121 114 110 105 111 107 102 104 112 112 101 107 103 106 97 103 103 102 96 105 92 92 99 105 113 131 144 149 148 148 151 150 152 149 150 151 152 151 148 151 149 151 148 155 153 155 150 153 152 152 154 153 150 151 152 151 152 147 117 91 81 86 93 87 84 105 98 94 89 111 83 89 91 106 103 86 71 75 86 92 99 104 110 107 108 115 109 87 82 95 114 124 125 113 95 96 109 106 113 101 113 113 109 105 113 107 106 97 99 114 111 100 101 95 100 96 102 113 116 149 149 150 150 149 150 152 149 153 151 151 149 152 151 150 150 152 153 155 152 152 154 151 154 152 151 152 152 148 151 120 81 83 80 92 96 100 99 105 100 120 94 122 92 94 110 103 71 65 76 84 94 75 84 93 96 117 102 94 95 94 95 131 130 123 123 105 107 92 112 105 94 111 104 101 111 99 107 108 100 110 109 109 123 93 110 94 96 100 93 105 95 135 148 148 150 147 154 150 152 151 151 151 151 149 151 150 150 153 153 152 151 154 154 150 153 150 150 148 152 149 120 89 74 85 90 109 97 108 100 99 109 130 101 121 94 93 102 92 61 63 87 101 80 69 78 95 92 107 100 79 99 106 114 132 121 118 119 103 109 110 112 103 100 110 107 115 107 118 109 116 113 95 102 112 132 103 106 102 95 116 112 104 104 102 147 147 151 149 152 153 149 151 147 150 152 148 150 148 150 154 150 153 150 150 151 148 152 147 151 147 140 122 81 75 78 101 107 101 98 99 97 95 115 114 100 99 91 94 100 94 96 99 92 71 66 61 83 78 96 104 80 77 89 97 104 102 105 118 113 117 115 113 104 102 98 105 102 109 102 125 111 110 108 100 99 107 124 113 109 98 91 94 110 109 113 101 109 150 150 148 149 148 148 150 148 151 149 151 148 149 152 150 150 151 147 150 148 149 147 146 148 146 123 86 77 80 91 112 113 95 82 94 81 88 110 97 84 89 93 87 86 82 88 83 77 67 60 62 79 85 76 87 78 93 94 87 92 88 116 128 108 113 115 110 108 99 107 111 111 108 108 108 109 109 117 115 108 91 104 89 119 99 82 81 91 96 105 103 104 119 137 134 149 144 153 150 148 153 149 152 150 146 151 149 148 150 148 145 145 144 142 142 144 137 109 78 88 82 93 97 109 102 73 70 77 85 90 84 75 89 85 76 81 72 79 83 80 71 64 69 92 112 103 109 110 114 100 90 83 93 123 121 107 109 108 106 105 112 126 133 114 100 91 92 88 104 111 105 101 104 91 80 111 99 82 81 75 87 90 106 98 94 117 103 120 142 150 151 150 148 150 151 148 150 148 148 146 147 143 144 139 141 137 138 133 119 94 76 104 99 97 92 92 92 71 53 79 78 71 73 75 94 93 91 77 79 87 94 96 102 89 92 112 121 112 116 100 98 86 95 77 101 99 106 115 97 110 96 104 108 136 130 107 86 81 90 73 101 84 81 93 103 94 66 107 88 94 88 87 89 87 90 100 84 102 98 89 112 143 152 149 150 150 149 151 149 150 146 142 143 139 138 136 137 133 135 109 92 87 95 110 104 92 83 87 71 66 56 71 72 72 71 70 81 92 94 71 68 77 82 88 110 93 93 95 93 103 86 81 66 68 75 78 110 92 110 90 104 95 92 100 93 107 99 108 96 92 93 75 114 68 95 79 105 94 75 99 84 89 87 99 93 89 79 105 107 95 93 83 70 117 154 152 148 150 150 151 149 150 141 137 138 138 137 133 137 137 123 84 79 83 110 124 109 96 87 77 61 58 67 64 69 72 81 66 75 93 100 72 61 73 72 54 73 79 76 79 82 69 59 74 74 77 66 92 87 102 102 83 95 82 93 74 91 72 106 119 103 103 96 87 118 85 92 58 96 101 75 92 86 72 106 98 90 86 101 103 116 95 87 76 54 86 150 150 151 149 150 150 150 149 136 133 136 135 132 132 132 120 98 84 74 88 105 109 107 99 86 79 75 59 72 61 73 66 78 64 89 88 87 64 67 63 61 61 67 75 68 63 61 63 76 86 72 59 65 77 93 103 81 75 93 81 87 91 59 80 91 99 101 85 91 104 125 96 86 79 99 99 83 83 80 92 103 74 95 77 98 98 105 101 92 83 78 87 125 151 147 149 150 150 150 150 135 133 134 138 130 133 123 104 84 75 88 85 98 107 96 92 82 91 82 77 77 65 69 63 69 87 84 85 66 68 64 62 59 69 68 70 61 65 58 58 70 66 68 71 86 93 96 88 70 56 81 101 83 79 57 70 72 75 79 94 100 118 121 105 106 89 108 106 85 78 76 89 82 75 87 78 94 102 109 98 102 78 88 91 79 127 149 151 147 153 148 148 135 135 132 133 129 124 102 91 101 99 103 88 92 98 87 83 86 93 69 81 78 75 66 75 72 106 69 75 71 56 68 62 51 73 64 67 68 60 60 63 71 87 100 85 93 95 95 67 69 57 62 101 73 68 69 61 48 59 71 91 103 114 89 95 97 89 94 87 78 58 81 89 77 76 82 83 93 104 100 96 102 103 85 87 77 106 143 150 150 151 149 150 132 132 129 129 117 86 87 82 91 105 103 90 96 85 88 82 81 73 62 76 72 73 77 73 86 92 76 67 76 65 63 63 53 69 81 65 78 55 68 78 79 81 90 81 83 101 87 66 65 50 70 95 55 66 71 50 51 54 66 88 91 92 68 90 92 71 81 77 71 91 98 80 84 85 86 90 86 105 98 92 94 103 94 83 74 97 137 148 148 151 147 149 129 131 128 121 88 78 71 83 96 109 97 90 92 88 89 75 74 79 65 75 69 72 66 85 72 91 88 78 78 72 65 77 58 66 83 75 73 67 85 80 91 73 88 88 100 102 85 73 66 52 63 96 56 73 60 48 55 56 70 64 74 75 76 77 93 63 74 79 108 114 90 90 91 76 84 86 88 98 99 98 91 101 106 92 84 71 108 150 146 151 151 148 129 131 125 115 83 75 77 83 99 107 92 92 99 83 89 71 79 77 66 76 70 69 74 78 86 90 104 95 85 76 76 68 68 73 76 85 62 84 81 74 86 97 82 86 88 83 89 65 53 54 50 83 69 67 51 46 54 57 67 61 71 74 78 80 82 66 75 98 118 115 108 110 88 84 84 87 90 100 99 108 96 100 105 99 83 70 59 125 152 146 152 149 128 129 129 98 82 63 79 78 93 106 97 106 91 95 97 78 59 83 73 80 74 70 82 87 93 83 101 103 98 91 80 78 78 92 79 81 75 75 66 81 86 86 80 101 82 74 83 74 47 60 58 66 82 58 49 56 58 60 58 56 61 63 59 70 62 64 88 105 109 132 120 108 101 79 86 85 93 95 112 112 98 84 91 86 73 71 62 90 149 149 148 150 127 130 120 88 75 59 67 95 106 122 109 89 107 96 84 80 59 79 78 93 72 73 84 92 89 92 99 94 95 92 82 84 94 89 78 83 75 75 80 75 75 66 78 93 69 74 76 72 65 54 61 67 68 71 56 48 59 63 56 55 59 67 54 66 75 65 92 104 112 101 112 94 93 79 92 76 91 94 96 111 102 86 82 77 67 76 49 77 135 151 149 151 125 128 117 79 67 71 80 98 111 112 106 91 97 90 86 83 73 80 59 85 85 76 93 94 85 89 97 96 88 90 85 83 95 80 81 88 92 87 72 75 74 69 79 83 76 75 79 71 71 59 59 76 62 65 74 57 65 70 61 62 58 68 66 67 95 77 91 97 113 96 96 80 84 77 87 68 90 92 78 105 107 96 84 75 76 70 59 69 105 153 150 149 124 122 94 63 72 74 80 96 99 107 100 103 89 88 93 88 88 91 88 79 81 72 85 82 83 80 83 92 86 85 87 79 85 74 85 96 98 87 75 83 76 68 77 82 83 86 87 73 80 77 67 76 77 65 83 67 58 70 64 71 59 79 65 67 93 100 76 99 105 110 77 91 81 82 75 87 84 92 65 77 83 77 91 82 76 68 72 85 97 144 151 149 120 99 80 65 68 73 78 96 105 101 98 102 90 83 82 78 92 110 109 91 77 88 81 81 87 78 86 75 84 83 88 79 82 69 95 100 93 95 94 90 78 76 80 85 86 96 92 90 88 80 91 91 79 83 79 74 69 72 66 77 63 58 67 62 74 95 78 99 93 85 93 87 91 97 80 84 75 91 64 71 72 84 82 81 85 75 73 101 93 143 148 148 111 82 64 69 62 79 91 105 93 86 105 103 90 96 87 78 99 131 122 109 92 90 91 87 91 99 94 84 92 85 83 73 75 91 103 110 98 116 94 99 87 86 89 81 94 104 108 95 101 98 107 116 91 86 95 83 72 80 88 82 67 64 67 68 70 79 78 86 80 97 96 106 110 122 103 67 75 77 63 64 74 83 90 73 84 83 76 89 94 143 147 150 111 80 62 68 85 85 83 80 85 87 107 92 92 93 77 84 114 147 133 132 110 103 113 112 111 104 93 96 100 95 87 77 85 110 113 114 131 115 122 104 105 109 98 96 102 110 118 113 118 113 113 124 105 100 102 96 91 93 119 102 76 70 73 61 67 77 76 74 94 116 120 122 138 137 120 83 70 74 68 72 81 94 101 85 77 92 89 88 93 115 153 151 83 70 71 60 77 72 70 75 90 105 98 95 96 73 77 108 141 157 150 137 127 134 139 145 140 137 131 119 132 122 116 126 133 143 139 132 150 136 139 130 114 131 112 109 111 132 114 127 137 123 132 134 126 131 119 125 114 113 110 121 99 79 63 73 77 78 80 79 124 135 126 132 145 138 134 116 77 65 67 67 71 79 102 90 86 75 88 100 89 85 139 154 77 64 69 61 67 70 69 78 102 102 95 117 75 64 95 131 156 159 153 144 151 153 155 163 149 151 147 145 146 143 143 149 149 154 166 158 163 160 163 150 140 146 122 125 130 147 147 136 131 144 140 141 137 149 145 141 145 127 118 98 109 92 81 68 86 81 81 93 123 130 124 135 141 147 139 141 92 56 65 70 74 77 86 92 98 107 97 97 101 77 100 149 78 70 64 59 66 68 61 89 108 95 117 96 63 76 123 147 162 161 156 164 162 159 157 166 151 154 155 160 160 160 157 164 162 172 184 182 163 176 170 158 164 150 141 150 164 161 171 164 141 139 148 142 158 178 170 159 154 147 130 107 114 97 89 88 86 90 105 137 134 142 142 147 151 156 153 157 112 73 61 77 84 82 82 105 113 107 103 85 95 98 75 126 81 67 62 66 63 67 64 87 103 90 120 72 72 98 144 154 164 159 164 171 166 163 163 170 160 169 160 166 169 175 171 187 191 203 200 194 171 170 165 173 166 162 167 175 181 171 170 191 161 141 148 163 148 177 190 192 162 152 144 139 142 114 114 111 124 136 148 166 160 158 159 166 168 165 161 160 132 99 80 67 93 99 85 92 101 99 78 71 66 102 77 92 66 72 64 68 63 66 64 91 88 99 88 79 84 130 154 161 164 164 161 168 171 165 173 175 169 177 176 177 187 182 189 197 202 204 203 205 205 196 190 190 173 182 191 195 189 179 182 193 183 177 145 176 179 157 172 180 175 172 178 170 169 151 151 158 163 158 162 165 172 183 176 172 169 167 168 175 147 118 83 92 77 96 96 99 91 91 78 68 53 81 94 64 76 64 60 67 69 65 69 88 87 100 83 78 104 147 157 163 164 167 166 167 173 170 180 183 181 185 188 192 195 197 203 200 204 207 209 209 212 208 210 203 202 196 203 204 200 201 194 196 191 189 190 183 201 193 183 193 196 196 203 191 185 179 180 189 181 167 175 164 179 186 183 180 167 167 171 172 160 127 103 90 98 94 83 102 99 88 75 64 53 74 84 66 71 67 63 60 63 70 68 83 84 98 83 91 122 150 158 161 164 166 167 170 175 179 187 190 188 191 195 198 199 204 209 205 209 209 211 214 213 212 216 209 209 203 205 209 204 206 204 204 197 200 201 196 200 205 203 205 209 208 206 204 195 192 197 195 191 176 179 185 181 188 186 183 173 166 171 169 164 149 116 92 104 111 94 86 94 79 89 75 57 64 66 75 66 73 66 67 58 65 71 88 94 89 88 104 129 152 156 159 165 162 167 172 177 183 190 190 192 192 200 203 203 204 209 205 206 210 212 215 216 213 215 213 209 205 207 211 206 209 209 210 204 205 202 202 196 210 212 211 212 210 209 210 205 198 200 197 191 195 183 191 183 189 186 187 176 169 171 170 161 157 136 87 97 114 115 98 103 73 96 93 66 64 58 74 79 61 73 65 66 59 69 88 95 82 98 113 134 154 156 161 161 161 166 167 178 183 190 189 195 195 200 203 205 205 208 208 209 212 212 215 217 216 214 214 208 208 209 210 207 211 210 213 208 208 208 205 207 209 212 213 215 210 212 212 207 206 206 202 195 195 188 190 189 191 188 184 176 171 172 168 162 157 152 94 88 101 122 119 118 93 99 87 80 64 66 70 76 70 67 60 57 59 70 92 89 84 105 110 142 154 159 161 163 159 164 170 176 186 191 189 196 199 201 202 205 210 210 213 211 215 211 212 219 215 215 213 212 208 212 210 208 211 213 212 210 208 212 209 204 213 210 208 215 213 212 211 205 209 207 206 199 192 194 193 187 191 187 186 172 171 172 169 172 157 149 118 88 105 102 120 111 91 115 84 74 80 71 53 62 60 71 66 59 49 75 97 84 93 97 107 149 148 157 160 159 156 161 167 180 183 194 192 196 201 204 202 202 209 212 212 215 216 214 212 216 215 216 217 213 209 211 212 210 214 213 213 211 212 213 214 209 209 211 212 210 212 209 206 208 207 206 203 198 204 201 196 189 190 188 187 175 163 168 167 171 163 149 126 89 120 96 84 100 94 85 88 76 85 83 50 65 60 70 65 63 43 69 105 90 92 87 111 144 145 157 161 159 155 159 168 175 184 191 193 198 200 201 205 203 207 213 214 216 216 216 215 216 214 217 216 214 215 213 213 211 210 215 212 212 214 214 215 210 212 211 212 212 214 210 210 210 205 206 202 202 206 204 198 195 189 190 185 179 164 165 167 163 169 146 129 101 103 106 81 74 102 88 81 73 85 77 73 64 72 60 59 57 45 73 115 84 94 82 114 143 150 155 160 157 157 163 170 176 183 193 192 198 204 200 202 206 207 213 215 214 217 216 218 217 216 217 217 215 214 217 212 212 209 214 212 213 214 215 216 212 215 212 214 213 214 214 213 211 208 206 208 208 207 204 201 201 188 191 186 177 167 167 166 164 167 146 127 98 101 114 93 61 97 98 91 71 75 74 74 60 62 58 62 51 45 78 114 85 80 73 123 152 154 157 159 155 158 164 170 174 185 189 192 197 202 202 201 206 207 212 215 215 217 216 217 218 216 217 217 217 216 216 214 214 213 210 212 213 214 216 216 214 216 213 214 216 215 214 213 211 208 209 208 209 205 208 202 205 189 195 189 179 169 166 163 167 162 151 119 104 105 98 100 66 85 88 92 73 64 74 64 85 54 50 58 54 45 90 105 82 77 74 125 154 154 155 161 158 153 164 172 176 182 192 191 198 200 203 202 205 207 211 214 214 218 216 216 218 216 218 216 216 216 217 216 214 215 214 214 214 213 215 216 215 216 216 215 215 215 213 213 210 212 213 208 209 208 208 204 205 193 193 187 178 170 166 164 166 163 159 118 94 108 95 86 77 85 79 79 81 54 74 69 106 61 54 52 48 50 90 96 80 75 84 126 143 154 147 160 159 154 162 171 178 178 189 191 195 200 199 202 203 205 210 212 213 219 217 216 218 216 216 218 216 215 217 216 215 217 213 214 214 212 215 215 216 214 215 217 215 216 216 215 213 209 214 211 210 210 206 205 201 198 186 189 179 169 170 164 164 161 169 129 84 93 93 83 67 90 78 78 73 65 79 69 114 68 59 51 60 50 75 92 75 66 93 131 148 151 151 158 160 160 162 170 176 181 187 190 189 196 197 199 203 200 205 208 211 217 218 216 216 215 216 216 216 215 217 217 215 216 214 214 215 214 214 216 214 216 218 215 217 215 215 215 212 211 212 212 209 209 208 202 199 202 189 185 176 175 171 165 162 159 166 148 66 76 96 87 56 100 71 83 73 63 72 84 117 94 58 60 67 54 71 83 67 65 99 137 147 150 152 157 161 162 158 173 178 183 186 176 172 186 192 199 200 194 199 200 204 210 212 214 216 214 215 214 216 215 220 217 217 216 214 215 216 213 214 216 216 214 215 215 216 217 212 213 211 211 209 210 207 205 203 201 199 196 191 185 180 171 170 167 160 162 160 167 79 69 86 84 67 100 68 74 62 65 60 82 123 109 77 63 68 62 67 75 66 66 102 139 144 152 156 153 160 162 161 175 179 181 170 157 160 175 178 177 174 180 187 190 195 202 204 207 210 212 210 213 214 216 217 218 217 214 215 213 215 213 213 214 212 212 210 213 211 212 206 211 204 209 207 207 202 205 189 191 199 194 190 187 180 173 166 168 163 162 159 166 115 46 80 80 69 78 67 74 55 65 56 72 117 113 90 68 58 63 60 72 70 51 105 142 143 154 153 158 158 160 163 168 164 157 139 124 128 139 155 143 138 152 151 152 166 176 183 196 202 202 203 209 211 213 216 216 215 215 209 212 212 212 210 212 206 207 208 206 203 198 191 196 193 198 198 192 192 188 177 172 185 197 190 188 178 174 166 167 165 163 156 164 139 59 72 82 71 63 65 75 57 66 51 84 120 107 95 76 65 62 56 63 64 55 105 141 141 156 152 156 155 157 161 150 173 187 177 140 170 174 174 147 119 116 122 129 126 141 145 162 185 191 195 204 207 207 210 213 211 213 208 208 209 202 201 205 201 193 192 182 180 165 157 162 164 158 154 149 148 139 154 146 147 170 184 187 181 173 168 166 166 161 156 159 146 72 66 75 71 66 59 70 54 61 59 120 117 116 98 67 71 61 54 60 56 70 93 143 143 154 156 154 155 156 159 144 149 157 157 146 175 225 229 204 144 157 142 135 128 127 111 114 129 148 171 187 203 204 206 207 207 210 205 204 204 197 190 193 179 149 122 139 128 116 135 140 148 147 134 148 194 210 205 191 183 174 159 165 180 173 163 168 167 161 156 157 149 83 73 61 67 61 56 66 58 58 69 128 120 122 116 85 81 73 57 52 63 71 63 134 149 152 152 150 151 141 153 144 143 142 132 115 61 115 149 141 103 118 115 114 134 136 113 169 176 206 200 192 186 202 206 207 207 208 203 200 197 193 187 175 160 182 198 224 219 119 139 129 132 143 107 200 231 224 224 225 224 230 216 146 179 183 160 164 169 162 156 159 152 97 73 58 54 61 56 62 63 43 107 132 124 116 116 107 93 75 64 53 57 76 28 114 153 151 156 151 147 129 167 140 143 151 155 169 128 215 220 224 152 153 148 134 142 139 174 234 224 224 223 230 214 186 207 210 208 206 205 201 199 195 178 150 136 144 126 132 149 135 113 107 118 127 72 197 229 223 224 222 227 206 161 147 135 159 169 157 165 159 158 161 146 85 74 52 56 59 53 59 61 61 129 140 118 122 119 108 104 92 88 60 50 70 34 82 159 148 157 156 145 131 149 138 157 155 165 163 150 156 184 196 172 176 175 166 162 125 210 231 224 224 224 232 210 177 209 211 210 209 205 205 200 181 165 155 160 151 152 151 149 152 143 147 158 160 134 190 232 224 222 225 225 210 145 151 146 138 160 176 158 163 159 163 130 77 61 53 55 53 59 47 68 107 137 146 116 121 120 112 119 132 97 78 62 72 47 41 135 148 155 154 149 149 150 148 164 146 156 155 151 147 149 152 152 155 154 147 144 94 162 231 224 224 223 222 190 156 208 212 212 210 209 208 199 160 172 169 172 166 164 159 162 158 154 158 164 168 160 149 207 225 218 222 186 153 150 146 163 140 152 172 159 167 161 167 112 74 48 56 55 60 57 46 88 141 142 145 117 116 123 114 132 133 102 91 82 69 58 61 84 167 173 151 155 154 155 154 154 138 114 130 139 147 144 165 166 166 171 163 140 110 87 192 211 208 192 185 157 180 222 221 207 196 198 185 201 198 171 166 166 166 167 145 146 147 126 137 141 151 146 131 123 178 178 166 161 168 163 148 162 159 158 171 158 169 165 162 87 61 53 60 48 63 81 54 112 145 146 144 116 121 113 120 123 76 92 100 86 68 50 120 82 166 162 153 149 152 152 148 150 126 101 117 125 142 107 126 130 89 138 102 132 139 131 148 123 136 160 163 159 118 204 229 188 163 161 139 163 194 173 160 160 155 153 127 142 161 137 129 113 143 153 160 157 149 149 147 140 155 160 146 163 169 168 164 148 192 148 117 55 68 66 80 52 101 145 117 120 145 146 144 115 116 115 118 122 80 70 87 86 53 48 138 132 124 158 156 155 149 149 143 144 126 106 97 92 132 112 109 117 70 91 114 162 159 143 137 170 142 138 155 158 149 114 151 169 176 175 167 152 141 183 166 158 152 151 138 121 143 121 107 29 140 110 123 120 148 146 161 156 118 147 147 161 174 178 135 166 222 102 126 83 62 56 105 101 143 164 149 135 149 143 144 115 117 106 129 124 82 103 92 97 45 65 145 162 109 146 157 167 151 149 148 148 135 120 124 139 151 152 133 132 108 127 147 196 182 174 156 120 161 142 150 164 164 165 202 210 210 208 203 166 122 185 170 168 167 143 121 134 181 148 137 61 80 101 136 141 136 100 132 149 145 130 133 155 163 154 106 152 169 83 168 122 49 63 85 106 132 113 113 155 144 144 145 115 114 106 136 120 93 140 135 113 33 88 147 161 137 147 142 161 169 167 170 169 161 149 138 151 160 168 166 162 151 162 172 181 168 169 172 162 170 156 160 165 158 188 207 211 210 209 210 189 110 187 175 180 178 154 151 153 177 166 143 124 117 125 148 169 155 128 139 136 143 140 132 148 136 114 71 164 143 161 165 145 60 64 77 111 127 107 86 161 145 143 142 111 115 98 149 122 119 156 158 129 33 103 150 157 159 151 141 148 165 175 181 180 173 167 155 151 153 148 157 156 160 165 173 181 180 174 181 179 179 174 158 152 149 199 208 211 210 208 206 203 120 173 187 181 187 184 172 166 168 169 165 165 181 156 166 169 152 146 157 154 155 154 138 129 110 102 120 167 168 171 163 150 77 53 91 154 144 135 114 162 146 141 145 111 112 93 156 122 137 159 162 132 16 124 154 155 167 155 149 142 162 177 185 182 176 172 164 170 178 182 182 183 183 181 179 179 179 181 181 173 186 190 142 136 160 200 211 212 206 209 203 199 143 135 187 193 193 194 192 188 183 180 166 171 170 157 158 161 153 164 176 180 171 167 143 120 113 140 165 168 176 170 164 152 73 33 103 174 159 153 125 160 149 143 141 115 119 93 159 128 146 160 147 108 7 136 150 154 172 148 166 145 159 181 192 190 184 178 176 176 176 177 182 183 182 187 185 191 201 203 189 183 190 216 134 133 165 192 216 211 207 207 206 209 157 116 188 191 195 194 193 195 193 187 191 194 191 185 180 180 180 176 180 188 179 178 153 138 146 167 179 170 176 172 161 163 54 57 101 177 160 175 132 151 155 140 147 111 118 90 152 137 150 158 145 106 18 136 148 155 168 155 166 163 161 179 188 191 186 187 187 189 194 187 185 190 192 194 199 198 197 195 193 186 127 197 138 153 167 191 215 214 206 207 205 205 177 100 175 236 181 201 193 193 195 193 183 179 181 179 187 179 187 187 183 191 188 186 171 162 174 176 180 174 178 167 160 168 91 40 158 172 163 178 150 162 161 137 149 110 117 97 145 148 147 157 140 103 41 134 151 153 163 161 165 167 165 173 185 188 188 189 189 191 196 196 191 192 196 193 198 196 196 199 201 179 161 168 145 164 169 189 209 216 208 206 205 195 178 158 101 185 191 207 197 197 196 195 197 188 190 186 187 188 183 190 191 192 194 192 181 171 184 183 177 173 178 171 157 164 99 40 156 172 165 163 153 175 158 137 144 112 116 93 139 152 148 160 133 101 79 140 147 152 161 166 161 177 168 168 178 182 191 192 190 197 197 199 199 196 198 201 197 199 198 202 203 179 180 158 161 169 171 190 207 212 208 205 202 199 186 184 154 143 174 205 207 197 198 199 201 199 198 197 196 196 192 193 193 188 193 192 185 170 188 187 172 176 176 168 156 159 122 82 136 163 168 162 152 182 145 138 144 113 113 102 128 157 145 161 139 106 119 140 142 152 159 169 154 204 170 165 176 182 195 199 198 200 196 199 200 195 199 203 193 201 198 196 192 167 169 164 173 172 178 191 204 209 209 203 202 205 200 187 180 167 134 190 208 203 197 200 199 199 199 201 202 199 195 195 195 191 194 191 185 165 186 188 168 178 173 166 154 152 137 137 134 161 177 166 146 177 138 140 141 111 112 104 125 159 141 164 150 123 136 137 142 149 155 166 161 205 174 171 176 187 195 201 201 202 202 198 200 200 197 206 196 200 196 187 167 155 164 177 173 174 197 200 201 204 206 204 198 209 207 190 185 173 160 145 205 203 200 199 200 198 197 199 199 199 199 193 196 188 194 190 183 165 190 178 170 177 173 163 153 145 156 164 141 152 183 171 145 179 132 140 140 111 112 113 102 163 143 144 166 136 134 135 135 148 157 160 170 176 162 159 186 192 199 201 205 201 205 199 200 203 199 201 199 195 188 169 158 152 172 170 162 185 198 203 202 205 204 203 201 205 205 184 176 181 174 144 154 205 204 197 202 202 199 198 201 198 201 201 200 192 192 189 173 174 186 162 186 173 172 159 152 142 152 197 146 143 178 180 151 162 136 140 141 112 113 112 98 156 159 120 154 168 147 134 134 149 156 159 169 173 174 169 159 178 182 192 202 206 206 202 201 205 199 202 196 181 165 185 168 159 171 154 167 187 194 199 203 205 206 201 200 203 195 184 170 176 187 168 148 161 198 203 201 200 198 200 200 200 201 201 200 193 195 190 176 200 178 181 183 174 165 157 150 140 147 204 156 140 177 171 159 158 135 139 142 112 110 113 94 147 159 150 135 151 170 140 131 143 153 160 168 169 170 173 171 182 184 177 173 174 179 180 185 187 199 186 168 176 190 183 151 176 174 156 176 187 192 198 209 214 211 204 201 203 190 182 174 183 173 184 177 156 153 188 219 209 204 201 203 207 202 199 193 191 186 172 158 188 188 186 181 170 167 154 153 132 156 193 151 149 187 160 168 139 139 139 138 110 112 111 102 126 162 161 157 155 172 148 130 138 153 156 162 164 166 167 165 172 177 178 175 178 178 172 172 170 178 184 188 192 191 161 154 192 172 164 176 190 194 201 215 218 214 214 206 199 188 184 177 191 186 170 203 176 157 132 183 204 180 169 175 175 176 172 170 170 175 176 185 191 184 184 178 170 161 152 153 126 172 167 150 180 180 157 172 139 135 138 138 111 111 112 107 111 157 166 158 166 169 156 127 137 150 161 163 164 172 172 177 175 176 181 182 186 187 188 192 188 193 193 192 188 181 135 168 182 163 161 174 183 191 198 208 211 217 214 204 197 191 180 178 176 191 173 188 203 189 167 163 163 172 166 177 181 184 184 174 183 188 190 195 188 184 183 177 165 160 152 151 128 164 153 169 181 158 173 170 130 136 135 137 111 110 112 111 103 134 166 157 165 168 158 124 138 150 155 164 165 170 177 181 175 176 181 182 188 191 191 196 196 194 191 190 188 164 137 158 169 155 147 165 168 179 188 198 198 206 195 192 190 184 178 173 170 180 168 183 200 204 199 198 197 197 201 199 199 200 193 190 195 189 194 194 182 180 181 176 167 157 151 145 132 159 168 169 171 166 175 152 133 132 137 135 109 109 112 109 107 101 163 165 162 170 162 126 137 152 154 160 165 168 176 184 183 184 189 192 191 200 199 202 204 201 193 190 191 170 159 133 143 137 133 141 147 150 162 181 187 186 175 173 171 170 168 160 154 170 164 185 202 203 201 201 200 195 198 201 197 198 194 193 192 189 194 193 181 179 179 174 164 156 151 144 135 185 175 163 165 167 169 140 135 131 137 136 110 112 111 110 109 104 141 163 166 167 175 128 132 148 157 154 167 169 175 179 184 187 189 191 196 195 203 201 201 194 191 193 195 176 170 147 109 107 84 103 121 133 136 148 166 169 160 158 158 141 136 115 125 152 176 191 200 201 200 199 200 200 202 203 195 191 193 189 185 185 193 188 175 180 172 170 160 155 150 135 145 187 177 178 170 169 160 129 132 134 134 135 110 111 112 110 110 109 106 158 164 164 177 132 131 143 152 159 160 169 173 179 178 187 187 191 197 199 199 201 195 198 198 200 192 193 173 168 114 87 82 77 82 89 117 133 144 151 153 140 131 141 148 138 131 163 188 186 197 201 201 202 199 199 202 203 201 195 194 189 183 186 188 185 177 176 169 173 159 153 152 127 150 183 182 181 175 171 140 132 132 135 132 134 109 108 110 109 112 111 97 130 155 159 174 136 132 138 150 160 156 168 167 177 176 187 189 190 192 196 196 198 197 200 204 202 195 193 188 181 162 129 105 94 97 94 85 109 130 137 139 133 152 162 155 165 168 179 188 189 190 200 200 201 200 197 201 200 200 197 196 192 184 187 186 182 175 172 171 169 157 154 149 127 153 177 183 180 181 160 133 132 131 135 131 132 109 111 106 113 109 106 111 103 124 143 154 134 129 141 149 159 160 163 165 173 177 183 187 189 192 193 196 196 200 198 202 195 194 190 190 193 187 179 160 139 120 120 105 100 118 135 147 165 175 173 170 180 177 180 185 183 193 197 202 200 201 200 202 200 199 200 194 189 187 185 182 178 176 170 170 164 156 151 147 128 170 166 177 177 177 144 126 133 130 135 132 130 111 108 110 110 110 109 109 108 110 110 118 115 132 137 149 155 159 161 164 170 177 181 187 187 192 195 195 197 202 198 195 193 191 189 190 192 194 197 189 183 168 162 158 145 162 173 163 180 182 181 179 177 177 183 182 184 188 196 196 204 200 201 201 202 199 199 194 193 186 186 181 178 173 170 170 161 154 152 146 132 174 165 172 173 159 122 132 133 128 130 130 128 112 107 109 111 112 108 111 108 108 113 104 108 133 135 145 152 161 157 165 170 172 178 185 189 190 196 192 198 200 198 190 194 188 192 190 190 191 196 189 189 190 190 185 178 180 182 171 184 186 184 182 178 181 181 186 185 194 193 198 203 200 198 199 201 200 196 196 194 185 188 180 174 170 168 169 157 157 149 148 129 157 161 162 149 132 129 133 129 129 130 130 131 108 111 108 108 111 107 108 113 106 108 114 103 129 132 142 151 157 161 167 169 175 178 183 184 191 191 187 190 197 196 192 191 190 192 194 186 192 188 193 191 193 201 194 187 179 176 174 179 186 182 182 182 188 180 185 187 195 191 196 201 200 196 197 198 199 196 197 191 187 182 177 176 172 167 169 155 156 149 147 124 131 141 134 130 129 128 128 129 127 128 132 125 109 110 109 106 111 107 110 112 108 110 110 102 123 135 136 146 157 160 166 170 173 177 181 178 188 188 180 187 186 187 185 181 182 186 192 186 196 192 199 200 198 206 203 196 188 179 178 179 191 187 188 187 188 184 185 188 190 191 192 193 193 195 192 194 193 195 192 188 187 182 178 174 168 164 161 156 153 147 144 125 131 127 129 129 126 127 130 127 125 131 127 128 112 107 108 107 111 109 107 110 107 112 109 106 110 137 139 143 155 161 166 173 173 180 181 178 177 185 178 183 184 182 180 178 171 184 185 188 183 186 186 182 186 189 194 200 203 194 188 183 189 187 188 190 191 186 179 187 180 182 183 183 190 194 191 189 190 189 189 188 189 181 174 171 164 161 157 159 152 150 140 124 131 127 129 129 126 128 129 126 126 128 125 126 104 109 109 108 109 108 107 111 108 112 108 103 110 135 137 141 148 158 163 173 175 180 182 175 177 181 180 181 178 174 173 159 153 167 171 167 152 153 155 157 164 161 157 165 181 172 166 167 166 168 170 174 183 186 181 186 179 177 174 183 189 191 195 189 190 185 187 185 185 178 171 166 159 160 159 156 154 149 129 130 126 130 126 130 124 125 127 128 122 127 125 123 106 108 106 108 109 111 104 111 107 108 108 106 100 131 134 134 145 149 160 169 173 176 181 176 173 177 180 179 174 166 153 124 111 129 134 126 123 122 130 144 156 154 149 143 150 147 147 152 155 152 152 149 146 158 159 167 167 160 160 166 174 188 195 190 184 180 184 186 180 178 172 166 160 161 159 158 151 148 124 127 124 129 126 126 125 127 125 126 123 125 125 124 106 110 108 111 104 111 108 110 109 106 110 107 105 117 134 135 142 146 154 163 173 176 181 179 170 172 180 183 177 168 145 117 99 95 101 102 112 114 114 120 129 130 128 127 132 135 127 130 133 134 125 124 117 117 119 123 126 120 124 139 161 184 191 191 182 178 181 182 179 177 170 167 161 159 160 152 153 138 121 127 126 124 124 125 126 127 123 123 123 123 123 123 105 106 109 108 106 105 108 108 109 106 111 110 109 104 132 133 141 144 149 160 166 175 181 178 176 178 182 183 186 183 174 178 174 159 163 157 162 165 166 161 177 173 173 172 165 167 172 158 160 158 159 159 164 153 149 144 145 149 158 146 166 182 188 189 181 177 178 180 179 173 169 164 162 162 158 154 148 129 127 124 127 125 123 124 121 124 125 122 128 117 125 119 105 109 108 109 108 109 113 106 110 108 109 108 107 100 127 132 135 140 140 156 159 170 180 182 178 182 183 182 190 187 184 188 185 169 165 162 166 169 166 167 180 191 187 184 186 180 186 186 188 183 179 173 177 172 170 165 167 173 186 180 179 187 191 187 179 175 184 178 176 170 165 163 164 159 158 156 145 125 125 125 125 123 128 123 124 120 124 122 124 119 123 120 103 107 106 109 107 107 109 107 108 107 106 108 110 103 114 130 136 137 139 149 158 162 174 177 183 178 180 187 190 189 191 193 189 182 170 163 160 164 161 165 162 171 174 175 178 178 178 183 178 176 175 175 172 174 172 172 180 184 187 196 190 189 189 187 177 175 186 175 168 169 163 165 162 155 157 153 135 123 123 123 126 122 124 125 123 120 121 123 120 121 120 120 105 106 108 106 110 106 107 110 108 103 110 108 105 107 107 127 131 136 138 143 153 157 164 174 181 175 177 186 187 192 191 193 191 184 181 176 170 164 158 156 157 156 157 158 163 165 166 169 170 172 170 172 176 180 183 184 183 187 193 199 194 190 193 187 182 177 180 172 167 170 161 162 157 156 152 148 125 124 122 124 127 121 125 124 120 125 121 121 123 122 119 119 107 105 106 109 108 106 110 107 107 106 109 107 108 111 95 130 123 131 138 140 146 156 155 168 171 178 175 182 188 191 192 191 189 186 179 177 178 175 167 159 155 147 144 132 134 133 138 148 158 165 167 176 182 187 191 185 186 188 192 199 194 192 190 182 179 181 174 169 166 167 162 157 161 154 146 137 125 126 121 125 123 118 124 123 120 123 121 120 121 119 118 120 106 104 109 105 106 108 108 106 110 108 107 113 107 107 102 141 124 125 133 135 142 150 155 162 165 170 177 178 184 183 190 189 185 183 184 177 181 181 176 173 169 166 167 162 160 151 150 156 162 164 173 177 181 186 186 185 186 189 192 194 193 190 185 176 179 177 169 166 165 161 158 158 159 149 144 127 121 122 124 122 124 124 119 123 120 123 120 119 119 119 119 119 105 108 105 107 106 108 107 108 104 108 107 110 105 112 88 142 148 119 122 134 137 144 149 156 161 161 171 173 176 177 180 185 182 181 182 180 179 181 183 176 178 176 175 174 175 163 166 173 171 179 177 181 184 183 186 184 186 189 188 192 188 186 182 174 173 167 168 162 164 158 158 154 154 148 130 118 120 126 119 124 119 122 122 117 122 119 122 120 123 113 119 119 108 103 106 106 104 110 105 107 106 107 106 109 106 107 97 137 159 133 116 129 132 141 144 151 154 162 163 165 169 172 178 183 182 177 179 181 179 184 182 181 184 178 182 182 182 185 183 181 183 188 181 186 185 185 186 183 186 185 186 187 181 181 178 170 170 170 165 162 160 159 154 152 144 137 137 116 121 122 121 120 123 118 120 122 118 125 118 121 120 116 119 118 108 104 106 106 104 110 103 108 109 104 108 105 110 108 94 138 156 153 122 121 128 136 139 145 149 156 159 165 164 165 172 180 181 181 178 184 180 185 185 189 190 193 192 198 193 199 194 190 189 191 188 187 186 183 185 184 180 185 187 183 177 174 176 167 169 167 163 158 159 157 152 151 134 139 144 114 121 121 120 120 120 121 120 122 121 117 118 123 114 119 117 116 103 105 104 106 107 105 108 106 106 105 108 108 109 98 105 144 157 157 142 119 124 130 138 138 145 146 155 164 164 161 171 173 177 181 184 185 185 189 197 199 201 202 201 207 201 206 204 206 203 202 195 196 189 191 189 186 185 186 183 180 176 168 168 164 165 164 159 156 156 155 146 143 125 154 144 114 120 122 121 123 117 119 121 120 118 122 116 118 120 118 116 117 104 104 105 107 107 106 106 105 106 106 108 104 110 78 145 172 150 156 148 131 120 123 129 132 140 144 149 155 164 158 170 171 176 181 186 188 192 192 202 202 201 202 201 206 201 202 205 204 207 207 205 205 201 195 192 188 191 185 177 179 175 167 166 163 164 162 156 152 146 153 141 125 145 160 140 111 123 121 122 116 120 121 118 119 118 118 117 116 117 120 117 120 104 106 107 105 106 108 105 106 106 108 106 105 110 62 206 178 143 156 151 140 124 124 120 127 132 135 143 150 154 157 157 167 169 174 180 191 193 195 198 202 203 199 202 209 203 204 206 209 208 204 205 207 205 196 186 190 190 180 175 174 172 169 161 161 160 160 150 149 147 141 126 140 156 157 138 116 122 120 120 121 122 119 121 116 121 120 116 118 116 113 117 115 105 108 105 108 105 106 109 104 108 104 109 107 73 139 231 171 141 156 153 146 128 117 126 124 127 133 131 139 152 149 162 160 166 168 167 185 186 188 194 193 200 202 202 207 204 203 206 207 205 206 203 200 200 195 187 187 181 172 174 169 168 164 157 158 156 150 148 145 140 126 139 153 157 157 140 115 120 118 123 118 121 119 118 115 118 115 117 115 119 114 114 114 104 107 106 104 105 107 104 108 104 107 108 97 79 199 230 163 143 156 154 146 135 118 115 130 129 126 129 131 134 147 150 156 156 169 165 179 177 181 189 192 191 194 198 202 200 198 202 201 204 204 198 193 189 188 184 178 175 169 171 167 165 158 154 149 148 145 140 138 126 135 152 157 159 152 158 110 120 121 120 117 119 118 113 120 117 114 115 114 115 117 111 115 104 106 109 103 108 104 109 105 107 106 107 82 129 218 225 156 148 158 155 153 141 128 113 116 132 128 126 126 130 134 142 150 151 161 164 173 169 174 175 191 183 185 189 194 192 189 193 195 194 197 191 188 187 181 176 172 170 170 165 161 160 153 150 143 144 139 135 127 127 149 156 161 163 134 200 118 111 120 121 118 117 117 119 115 120 115 114 116 114 115 114 112 101 108 105 104 105 105 106 105 106 108 100 82 192 218 222 149 152 155 157 154 147 134 123 108 119 131 129 124 128 128 128 145 147 150 153 164 157 169 169 179 179 177 177 186 184 180 183 183 187 189 180 183 179 171 168 164 166 161 159 155 155 145 143 142 136 134 127 127 145 154 157 163 163 125 211 158 101 115 120 118 121 113 118 116 116 114 114 116 111 118 111 113 103 104 106 107 105 107 107 101 108 109 73 132 213 216 223 148 151 155 157 155 150 142 131 113 110 123 131 131 131 126 129 129 130 144 141 156 148 156 164 168 174 170 174 171 172 172 168 169 172 180 171 174 168 163 160 163 159 157 150 150 145 137 138 129 132 123 128 140 159 159 160 166 166 126 213 208 93 112 117 121 116 113 119 116 114 115 114 114 116 112 111 112 108 106 105 106 106 104 108 105 119 131 83 186 216 214 224 152 153 159 157 159 152 147 133 123 110 116 126 129 132 128 126 129 124 127 136 139 142 142 148 158 159 166 165 166 164 165 156 163 165 163 165 165 163 156 151 151 156 152 151 137 134 128 130 129 130 129 141 150 161 158 164 166 166 123 207 224 133 98 116 115 122 111 117 113 115 114 115 112 114 115 110 110 104 105 110 109 111 121 121 139 139 155 163 205 213 215 228 156 156 159 158 159 153 148 137 135 114 113 119 123 130 128 127 131 125 125 125 127 131 127 136 142 145 150 149 157 152 156 152 152 152 150 156 152 148 150 147 149 147 141 137 128 124 126 134 135 131 138 152 160 159 164 167 167 168 127 208 221 176 107 116 116 114 114 113 112 112 114 112 113 112 114 108 114 118 124 141 140 132 127 161 157 180 209 200 206 215 215 230 164 158 159 157 159 158 151 143 139 128 113 115 116 127 128 128 130 125 130 123 129 118 119 126 130 135 136 138 145 142 139 146 140 139 139 140 138 139 138 140 137 135 124 124 126 130 135 134 135 136 152 156 165 162 164 168 169 169 130 210 216 202 143 115 122 121 120 114 115 112 114 111 110 110 112 110 110 147 144 145 130 143 155 197 211 213 216 198 212 216 217 231 187 147 164 159 159 159 157 152 140 133 121 122 116 122 124 125 129 125 127 129 125 129 123 120 122 129 124 128 132 132 134 128 130 129 130 119 126 121 124 122 121 118 120 127 132 133 136 137 140 148 155 160 170 170 169 172 168 171 129 222 215 199 191 172 122 132 137 128 114 114 110 115 110 115 108 113 108 159 142 133 162 201 216 217 211 216 212 201 215 219 218 226 217 136 165 165 161 160 158 158 146 138 130 121 117 122 122 120 125 125 122 125 124 126 130 120 126 123 119 125 121 123 123 120 121 119 115 115 113 114 111 114 115 120 129 134 134 139 139 145 152 159 166 166 172 172 173 170 171 167 136 227 214 205 185 209 197 135 138 137 132 124 110 114 111 112 109 111 110 150 162 206 221 219 215 212 217 219 202 210 217 220 221 223 232 141 165 171 163 164 159 160 150 146 136 127 123 123 121 122 122 120 124 120 124 124 122 125 127 126 121 122 120 123 120 119 121 116 114 115 114 114 113 117 123 130 136 141 138 145 146 150 160 163 170 175 173 173 173 171 177 153 157 230 213 207 188 200 212 210 148 127 143 137 129 116 110 110 111 111 108 