P2
92
112
255
154 155 151 156 155 151 156 156 156 154 155 155 155 156 157 153 154 153 156 154 155 154 153 156 157 150 155 154 156 157 148 149 150 150 155 143 141 123 147 146 134 145 144 144 150 152 156 152 146 153 153 149 154 154 155 151 150 153 152 152 151 152 152 150 155 150 151 153 150 153 150 152 149 154 151 150 152 151 152 151 151 151 151 151 148 152 151 151 149 148 151 148 156 154 154 155 153 154 153 155 153 155 152 155 156 154 157 153 155 154 156 155 155 156 154 155 154 154 147 149 149 152 148 133 136 127 127 112 111 100 122 124 129 138 133 131 126 148 144 151 149 149 150 150 153 152 154 151 151 153 150 150 153 153 151 153 152 150 152 153 149 153 152 152 151 151 153 150 155 151 151 151 150 154 151 151 150 151 151 148 151 149 151 147 152 155 155 154 155 156 155 155 152 155 156 154 156 155 156 155 152 155 155 154 155 157 153 157 152 149 146 140 126 116 122 123 106 105 95 87 93 84 103 108 117 111 102 104 101 105 105 126 135 136 150 149 138 149 145 149 147 145 144 147 154 151 152 154 151 150 154 151 154 153 152 153 153 150 153 150 153 152 150 153 150 152 151 151 149 151 151 150 152 148 152 150 154 156 154 155 153 153 158 155 154 155 156 154 156 155 154 153 155 154 156 154 156 156 152 148 141 135 114 107 104 96 105 125 104 104 97 94 85 94 108 90 100 90 90 97 95 83 82 94 101 106 123 120 108 124 123 140 139 119 132 148 150 151 152 153 153 151 154 153 152 151 152 153 149 151 153 152 152 151 151 152 151 152 149 151 153 150 151 151 151 150 152 151 153 157 156 154 156 153 154 155 154 155 154 157 152 157 154 152 157 152 154 152 152 147 143 133 112 95 96 96 100 92 112 124 106 106 101 110 93 114 109 98 100 97 97 101 93 89 96 97 92 99 103 101 88 92 98 111 107 104 101 129 146 148 149 151 153 153 154 150 151 153 152 151 152 152 151 152 152 151 152 150 153 151 151 150 150 151 151 150 151 151 151 151 155 155 156 152 156 155 153 155 152 156 154 156 155 158 154 154 155 154 155 159 144 113 108 102 91 94 93 107 107 96 116 114 115 115 108 113 106 122 103 115 107 107 101 97 107 93 116 99 98 117 115 102 88 88 101 96 96 100 87 104 131 138 152 149 150 149 151 153 148 149 148 149 151 151 151 153 151 152 150 151 151 152 149 152 150 151 148 153 147 154 151 147 157 155 155 154 152 156 156 156 152 159 153 154 154 155 154 156 152 153 154 145 115 89 91 110 99 98 87 116 117 107 124 120 112 119 112 119 104 111 100 112 105 111 111 102 94 103 110 107 107 113 111 104 96 100 99 100 102 100 83 98 117 124 131 130 128 147 138 146 146 150 148 150 151 152 151 150 151 153 150 152 151 149 152 153 150 152 150 151 150 151 151 148 155 156 154 156 154 156 155 155 157 155 157 154 156 154 154 152 154 149 142 109 91 80 107 126 93 116 98 112 126 118 130 114 115 123 103 103 110 105 108 110 110 109 110 112 95 113 109 107 117 117 111 105 103 114 114 117 111 98 79 92 103 105 109 116 113 120 116 136 139 141 149 149 152 155 151 152 152 151 152 152 150 153 150 153 152 152 152 151 150 150 153 149 156 155 155 156 156 154 154 157 157 156 154 156 155 156 148 149 147 123 107 99 85 85 111 116 96 111 112 120 126 121 118 108 118 111 102 111 113 111 106 100 109 114 108 99 107 110 101 106 113 112 103 102 110 117 120 122 106 86 93 96 108 105 105 104 98 102 110 112 122 133 145 147 147 152 152 152 153 150 153 152 153 151 150 152 151 154 150 150 152 150 152 148 154 155 154 156 154 153 157 154 157 153 155 156 157 156 131 124 112 93 104 91 89 89 100 101 99 113 118 127 114 112 107 103 108 96 112 108 99 108 110 117 123 114 112 99 118 105 103 111 115 101 104 103 116 113 120 120 103 79 92 103 96 102 93 91 88 102 118 112 103 115 125 134 132 140 148 147 156 150 151 153 152 151 152 153 150 153 152 151 151 148 151 148 154 155 154 155 155 154 156 153 154 156 154 156 159 145 103 89 93 93 98 86 103 95 88 96 112 115 113 104 99 108 96 102 93 101 102 105 111 110 115 114 120 109 108 104 114 102 108 122 119 115 113 106 106 114 108 109 110 83 106 106 100 102 90 83 93 104 111 106 102 100 116 116 116 127 129 133 143 150 147 153 149 153 153 152 149 151 152 149 152 148 153 149 153 153 155 156 154 157 152 150 150 154 151 154 149 103 72 94 97 95 84 100 102 90 96 102 113 105 98 112 88 81 84 101 116 111 108 113 105 100 100 102 101 98 105 109 108 107 102 114 114 129 112 112 113 121 104 113 123 96 106 105 107 102 95 96 105 113 110 108 98 110 114 111 121 122 126 121 123 144 148 151 153 152 153 153 151 151 149 153 149 150 151 152 151 153 157 154 153 155 150 151 152 151 151 143 109 107 105 116 102 91 97 98 81 83 89 106 100 92 101 85 91 110 123 123 111 109 116 102 88 108 102 88 93 94 96 102 102 107 88 109 108 115 123 118 117 117 107 99 115 98 100 114 94 106 91 91 89 92 90 101 97 100 107 114 109 116 116 108 111 129 147 147 150 148 155 148 150 153 149 154 149 149 153 151 155 153 153 153 149 153 149 147 148 153 135 109 101 110 121 121 93 94 94 86 83 73 84 104 80 91 82 90 104 116 121 112 108 125 121 98 118 126 104 93 103 98 106 101 103 102 103 115 119 117 132 115 105 100 98 102 95 104 104 101 107 103 98 74 83 92 95 100 105 106 99 119 114 108 113 113 104 115 140 154 151 150 152 151 150 152 148 153 150 151 150 150 154 151 153 151 151 149 151 146 149 136 106 110 90 102 111 106 95 92 93 89 73 66 87 91 83 85 81 81 86 89 102 105 116 109 93 115 128 110 114 122 106 103 104 112 113 107 104 106 112 123 141 121 84 104 107 112 106 106 115 101 104 96 100 107 88 105 95 118 115 116 111 109 110 104 106 103 108 107 125 148 148 150 146 153 150 151 150 150 151 148 153 150 153 151 152 150 148 148 145 141 145 106 97 99 91 99 92 85 92 92 87 84 62 73 76 86 77 77 71 66 61 74 109 126 105 91 99 118 121 115 117 119 110 113 115 119 128 114 113 108 109 120 130 113 102 108 103 105 110 104 111 102 106 92 96 106 102 100 92 119 119 122 113 116 107 117 111 110 107 105 114 128 135 139 145 149 149 150 149 151 150 149 151 150 150 149 148 148 146 143 136 138 133 94 96 85 94 90 80 89 79 76 71 84 83 85 91 88 86 93 66 47 77 120 112 94 112 102 107 122 117 112 123 131 122 119 108 120 112 115 108 113 109 109 103 101 103 120 112 112 111 107 102 107 94 83 86 91 92 91 94 106 110 128 110 109 100 115 117 106 111 105 104 109 112 120 128 150 151 151 150 151 152 149 153 149 150 146 143 143 140 140 130 128 118 90 85 78 93 86 82 88 80 85 83 107 121 107 116 104 98 95 71 56 100 107 102 113 114 106 90 104 92 103 124 119 105 101 88 102 92 103 89 85 99 84 92 79 98 125 97 94 90 90 106 110 92 95 87 92 93 92 80 101 100 104 91 88 87 94 111 97 94 100 93 106 100 109 95 118 147 151 149 151 149 150 150 152 142 141 142 138 138 138 106 110 97 81 77 76 95 83 68 78 84 89 99 91 96 93 92 88 71 95 84 94 89 94 99 99 103 84 89 78 80 101 89 109 93 106 96 109 90 89 89 93 111 86 90 70 101 89 85 82 92 85 129 88 88 95 96 91 79 95 86 90 77 84 88 85 85 111 109 97 89 88 87 95 106 103 104 94 118 151 150 150 151 150 151 149 135 137 139 136 137 141 97 87 97 76 75 84 93 75 72 74 79 72 85 81 79 82 66 84 85 60 90 87 95 99 78 90 89 76 78 68 83 66 85 116 93 76 103 110 105 107 117 108 88 96 79 87 79 90 82 77 77 103 111 69 73 79 98 88 69 80 83 92 95 87 83 99 116 127 110 86 78 76 67 90 103 104 101 101 99 133 151 148 153 150 149 152 134 135 135 132 132 127 90 80 86 82 74 81 87 64 70 67 73 69 72 71 64 63 71 74 77 50 85 85 101 76 65 83 93 85 80 83 73 65 99 71 80 59 104 115 122 111 109 92 87 85 100 91 94 91 72 69 94 85 90 74 82 73 74 90 61 64 68 79 106 96 93 95 104 113 103 80 85 89 75 84 109 100 96 101 110 118 146 149 149 150 149 152 131 135 131 127 128 108 76 85 79 79 75 78 84 72 74 73 70 67 74 64 68 80 65 66 50 78 82 89 86 60 64 82 100 86 78 64 53 73 59 46 65 75 117 114 121 107 100 93 86 90 111 127 117 99 92 87 71 85 83 86 100 70 53 94 73 57 77 73 99 101 96 93 84 99 108 100 103 85 83 80 102 104 91 94 102 121 141 148 148 151 149 151 134 133 124 112 104 88 80 80 67 87 83 83 63 77 64 86 66 63 63 68 63 76 75 84 89 102 89 90 65 57 52 82 101 81 67 51 54 60 43 41 86 89 112 86 100 103 80 98 70 87 100 94 93 64 91 98 89 85 79 78 99 77 55 98 71 61 90 89 99 107 93 108 108 110 124 111 99 86 83 74 95 108 97 94 100 97 138 150 148 149 152 150 131 129 110 93 77 81 79 74 71 82 72 91 70 74 66 65 80 65 69 59 75 76 81 85 82 85 97 90 64 57 55 83 88 66 67 51 55 52 40 59 87 87 85 71 87 88 70 79 73 70 72 64 61 85 114 107 99 74 72 79 87 83 76 82 75 81 94 80 93 96 96 103 102 122 116 103 87 103 86 85 82 105 105 106 94 92 115 150 145 151 152 148 135 124 91 85 65 85 79 70 70 82 70 91 67 81 85 68 72 72 66 77 79 80 76 81 92 88 103 82 71 63 55 91 69 68 67 56 50 40 53 67 74 67 68 66 91 69 67 65 61 64 72 54 96 125 110 96 93 78 81 92 84 97 70 82 80 93 96 82 92 95 98 100 98 122 109 101 113 121 97 101 85 92 110 106 101 91 95 143 149 150 148 150 129 126 84 76 72 85 76 71 74 86 83 85 72 87 78 81 70 73 76 86 76 74 84 82 89 94 81 83 74 61 54 81 84 65 69 50 54 46 50 65 59 71 66 64 87 81 83 53 75 81 79 93 127 129 124 102 87 78 88 100 92 91 87 80 87 102 103 86 91 98 98 91 100 110 112 97 113 121 102 86 91 87 112 103 104 91 100 131 152 151 149 150 123 110 83 76 77 79 68 78 77 82 88 87 92 79 89 87 82 76 73 76 86 77 82 98 89 78 80 82 65 63 54 69 84 71 64 57 48 49 58 57 58 63 66 65 80 64 73 54 94 85 82 100 130 136 126 108 77 85 89 101 93 86 95 82 94 95 102 87 101 112 102 97 95 105 111 113 115 106 92 76 72 81 86 105 95 95 94 126 150 147 149 150 105 101 95 81 89 73 71 84 79 80 85 94 91 85 87 85 83 76 85 71 83 80 81 94 82 73 74 76 68 66 60 66 75 86 61 50 51 61 62 57 56 57 63 49 75 60 56 58 92 92 91 91 116 115 98 111 69 88 94 97 79 95 92 91 89 86 79 88 97 100 96 102 88 86 94 72 97 80 83 78 62 72 77 96 85 94 83 131 148 149 147 150 103 85 83 92 92 73 73 87 77 76 87 96 87 92 77 79 81 78 83 71 74 80 84 83 84 73 68 80 78 66 63 67 70 81 79 59 45 61 57 61 52 68 64 56 74 67 53 79 77 101 107 93 103 85 86 94 85 96 98 96 98 91 92 97 89 75 85 70 90 97 106 134 109 80 82 82 75 63 68 64 59 64 78 95 89 91 77 121 148 149 149 150 70 76 77 94 95 84 73 84 77 77 76 85 79 81 84 79 80 78 75 69 77 80 87 85 82 78 71 76 76 77 69 74 87 82 77 85 55 72 70 66 56 64 69 67 66 86 81 86 80 106 102 92 92 78 89 84 99 99 93 103 120 107 109 100 93 89 92 72 76 90 84 98 102 93 91 55 92 79 61 61 59 60 96 88 92 86 84 108 152 149 151 151 74 71 80 84 96 87 86 81 69 79 80 79 69 73 76 71 75 70 74 82 75 85 90 85 86 74 78 76 91 88 76 89 87 97 81 78 70 75 71 65 71 61 77 67 66 64 100 91 72 95 96 87 80 92 87 104 106 97 108 121 130 140 131 128 113 90 79 81 65 76 78 70 76 106 103 75 63 83 73 63 56 84 82 109 85 93 80 95 145 149 150 151 72 86 71 80 95 97 91 82 79 90 86 87 77 69 71 72 67 73 73 89 88 85 96 84 86 81 83 77 84 94 86 104 106 93 99 91 82 88 68 63 76 74 82 77 71 73 82 95 79 90 81 81 101 100 101 111 121 127 139 152 132 154 158 155 137 111 84 79 72 64 75 81 98 85 100 85 62 74 74 66 41 91 66 115 103 100 83 90 134 153 150 149 74 78 70 74 91 90 92 82 79 91 97 87 92 80 81 86 72 79 80 87 92 95 103 87 88 89 95 85 94 102 96 107 108 106 102 108 95 93 84 85 83 88 80 95 89 76 76 76 81 79 73 85 114 115 117 130 134 151 153 167 140 164 176 166 151 131 105 82 70 71 67 80 95 95 89 81 64 47 91 71 59 74 81 94 117 109 93 90 132 152 150 150 74 68 74 80 86 93 77 74 80 106 112 100 102 95 87 103 94 100 101 106 96 103 108 100 100 103 100 96 99 110 113 108 118 116 123 126 106 101 114 113 105 100 79 96 102 91 79 66 79 73 91 114 115 134 146 150 158 171 146 178 157 174 187 169 162 145 129 90 73 81 89 99 106 82 97 96 68 58 82 101 86 69 81 94 105 117 103 81 114 151 152 151 72 73 77 78 100 71 68 63 100 122 121 120 105 110 111 125 124 130 137 130 136 118 120 111 116 116 113 101 113 127 112 129 127 130 135 141 138 132 130 132 134 110 103 83 103 121 93 73 75 80 113 126 133 122 156 158 151 164 164 180 165 189 184 184 163 164 136 97 77 62 70 84 92 90 86 97 96 87 89 88 108 94 65 104 82 109 108 90 72 141 152 148 65 78 86 87 88 54 61 64 125 130 137 120 115 124 129 137 137 132 145 142 153 151 142 138 132 125 120 131 135 136 131 141 132 151 149 146 161 161 166 145 147 120 116 108 94 105 111 77 83 78 150 164 140 137 145 132 147 156 169 173 189 193 189 184 176 177 147 104 82 75 78 80 89 91 84 104 106 115 106 84 97 121 94 99 93 99 99 99 66 110 152 151 65 81 81 95 53 62 41 100 139 142 130 122 135 137 146 147 148 161 154 163 165 163 164 154 141 141 145 146 154 158 154 143 148 153 161 159 163 187 186 170 149 139 127 137 114 99 99 107 120 99 163 176 181 170 164 163 172 191 182 193 197 195 192 186 187 173 145 128 102 87 88 89 86 102 103 104 106 131 120 92 95 109 114 108 98 94 94 88 89 89 142 150 73 75 92 68 55 51 51 133 145 143 126 130 142 144 157 151 160 178 175 169 159 167 170 166 155 153 166 161 160 170 186 160 149 157 177 176 162 164 179 177 165 166 156 162 150 133 127 141 162 160 167 186 192 193 188 178 193 201 201 190 198 191 196 187 187 183 159 146 120 94 96 95 99 94 86 91 106 108 98 77 69 94 113 124 117 99 76 86 76 83 127 149 74 77 86 63 64 41 85 149 146 142 136 145 155 161 164 176 174 182 188 195 184 188 186 177 168 172 175 171 173 184 196 181 155 180 185 183 181 167 179 178 183 197 188 180 179 167 173 168 198 191 171 180 199 197 207 205 201 206 202 200 190 195 197 190 194 189 174 147 139 112 93 100 104 101 99 82 91 104 98 65 64 81 103 106 130 106 88 84 72 70 99 151 70 73 83 67 63 49 118 153 149 146 150 160 169 173 177 186 182 189 190 202 199 200 202 192 180 189 182 186 183 192 198 199 184 192 189 196 198 190 195 200 205 207 204 198 196 199 199 193 205 198 180 201 201 203 204 207 207 205 204 204 184 196 196 193 197 186 184 155 145 137 104 97 87 109 100 93 87 94 94 73 67 73 84 81 100 101 82 84 72 74 48 129 67 77 82 69 63 58 137 147 152 158 160 169 175 183 184 191 188 194 196 204 207 203 204 199 189 192 191 196 193 195 201 210 194 195 194 202 203 205 209 204 209 208 211 205 209 203 208 211 205 204 195 208 208 209 208 206 208 208 206 205 186 196 194 194 197 186 189 166 152 141 122 103 106 88 107 97 89 92 96 89 80 69 77 74 86 91 79 86 82 77 56 62 62 82 79 73 57 74 146 148 155 162 168 175 181 188 187 193 192 194 201 203 206 203 202 197 196 194 197 201 202 202 208 209 206 197 202 200 212 211 211 208 211 211 213 214 213 211 208 210 213 208 209 207 206 212 207 209 205 212 207 203 192 194 192 194 194 188 186 178 156 137 127 119 115 109 93 104 84 101 107 108 80 71 70 72 73 90 83 94 89 74 83 9 60 88 76 76 50 99 150 146 158 168 169 182 186 187 192 199 201 200 203 201 207 202 206 203 202 201 201 202 205 206 209 212 209 205 204 205 208 215 210 212 213 213 215 213 215 217 214 212 214 210 209 210 205 212 210 210 207 209 202 201 192 195 192 192 194 190 187 178 162 144 126 123 116 121 107 116 102 109 117 92 96 80 55 85 73 86 76 81 111 62 86 37 57 94 71 75 44 117 147 146 161 171 173 185 188 190 196 201 205 205 205 202 205 205 207 207 201 202 203 207 207 207 211 213 210 210 204 205 210 208 208 213 214 212 214 214 214 216 215 213 214 214 212 212 207 208 213 209 206 209 202 196 192 194 193 194 194 195 188 179 163 145 135 121 122 119 113 117 111 116 118 99 90 90 76 89 90 68 87 71 99 93 69 69 62 97 73 67 44 127 148 146 161 173 181 185 190 189 196 202 206 208 209 204 205 205 210 211 208 205 207 209 208 210 210 212 212 212 210 205 209 212 210 213 211 211 215 217 213 214 214 215 215 216 216 215 210 207 212 210 207 208 206 191 186 195 190 193 192 193 194 181 163 149 133 132 116 122 111 111 97 107 107 93 92 98 87 95 96 68 96 71 89 96 69 60 65 96 77 54 43 139 145 149 162 172 180 187 187 192 197 202 205 207 211 210 209 206 214 212 212 210 209 213 205 212 212 211 213 214 214 207 211 211 212 215 214 216 216 217 215 213 216 216 216 218 216 213 214 210 211 211 208 208 204 197 185 192 192 192 189 190 192 185 164 152 128 129 117 124 96 110 104 103 95 87 89 102 84 91 98 72 90 72 96 88 81 42 68 98 69 43 60 146 145 148 163 176 179 189 183 195 197 202 206 207 212 213 212 210 213 214 214 214 212 211 208 212 209 213 213 214 215 213 215 214 214 216 217 217 217 217 217 217 217 216 218 216 216 215 215 215 209 213 209 207 203 200 191 196 191 192 189 188 194 183 168 149 120 127 130 120 93 109 79 132 104 71 91 90 80 75 89 87 74 90 78 83 93 28 82 87 72 29 80 153 142 152 163 174 180 187 187 192 197 204 207 211 210 215 213 215 214 216 215 214 215 212 211 210 211 213 213 215 215 215 217 214 216 217 216 217 217 216 219 216 214 217 217 216 218 217 215 214 211 211 211 208 203 199 192 192 193 189 188 191 188 178 175 151 128 117 123 128 86 104 65 114 117 69 83 91 65 69 73 90 66 89 70 79 81 39 100 82 70 27 78 150 144 153 163 174 182 184 189 193 196 203 207 213 211 215 213 212 216 215 216 216 214 215 213 212 213 214 213 212 214 214 218 214 217 215 219 218 216 217 217 218 216 214 218 217 216 214 214 217 211 210 211 205 204 196 198 190 193 191 189 190 190 180 183 154 115 106 113 132 85 100 79 88 108 78 79 92 62 69 56 83 79 77 91 70 72 51 107 80 57 32 81 150 149 152 165 170 177 182 184 189 191 199 205 213 210 214 210 211 215 217 217 216 216 215 216 213 213 212 213 214 214 216 216 216 217 216 217 218 218 217 217 217 218 217 217 217 217 217 210 217 213 207 210 205 202 197 192 194 190 193 192 184 188 187 189 166 108 99 112 122 93 90 93 86 87 84 76 85 74 64 61 78 85 79 93 71 65 74 109 79 57 33 72 153 148 157 165 160 169 179 184 186 182 194 199 206 211 210 208 209 212 213 215 216 215 215 216 212 214 213 212 215 215 216 215 217 216 216 217 218 218 218 217 216 217 216 218 216 217 216 211 214 214 209 206 204 202 197 196 197 190 190 191 184 187 187 186 175 122 82 102 109 105 78 119 92 76 80 80 74 75 55 54 81 74 88 93 69 67 72 105 91 57 31 75 156 151 160 152 139 156 165 170 173 177 180 193 196 206 208 208 207 209 209 212 215 215 215 213 211 212 214 210 212 214 215 213 214 214 217 216 215 215 216 217 216 214 214 216 214 215 214 212 213 210 209 205 202 200 196 196 196 193 189 187 190 186 188 185 186 157 94 83 107 102 90 116 92 73 74 69 75 56 62 47 73 72 81 78 75 61 54 95 99 72 26 80 156 154 151 133 122 149 148 131 145 147 164 177 185 194 198 203 202 206 209 212 212 212 213 209 210 209 213 211 212 210 209 210 210 212 211 212 211 214 210 215 212 213 212 213 213 204 208 214 212 210 206 205 203 198 198 193 188 194 191 191 189 186 189 185 184 177 128 69 96 90 99 97 72 76 73 65 66 47 59 51 69 73 63 66 79 51 70 111 97 90 39 88 148 131 127 109 106 113 103 98 107 117 124 136 152 170 190 189 194 206 206 209 211 210 213 210 205 206 208 204 211 209 201 208 202 205 199 195 192 200 199 208 207 201 200 207 196 195 186 205 209 213 202 208 204 197 197 194 192 192 193 191 187 187 183 183 183 183 161 84 86 84 84 89 64 66 70 62 58 59 48 66 57 66 64 50 77 53 65 122 111 109 109 108 135 130 136 133 144 149 145 132 164 150 135 118 107 127 157 172 183 196 202 203 208 204 206 209 203 201 199 194 198 202 190 183 178 179 166 158 159 159 156 143 154 156 162 168 175 184 172 175 194 207 202 208 203 198 200 194 191 191 194 185 187 186 177 180 182 177 172 116 79 74 79 81 69 60 71 56 58 59 59 60 59 65 70 71 49 63 65 121 133 130 91 82 118 110 115 119 121 126 119 127 145 154 177 191 193 159 133 144 152 178 201 206 201 203 203 206 201 198 194 184 190 191 163 138 145 128 121 128 151 155 186 195 192 193 206 189 172 176 174 174 168 177 187 200 197 200 196 189 192 191 193 187 189 183 178 181 183 178 178 140 94 75 65 71 75 63 62 53 54 59 54 68 57 70 70 65 42 51 78 132 132 121 99 86 114 109 121 133 137 130 127 161 115 109 103 104 151 191 163 169 164 143 186 200 203 205 202 204 202 191 194 185 180 167 141 139 148 146 136 158 135 115 122 142 140 171 228 226 198 161 180 185 159 151 152 168 184 197 195 189 184 191 192 190 190 181 178 180 178 181 183 147 110 85 65 65 64 63 65 58 51 53 60 68 64 60 63 64 41 50 100 135 122 119 114 100 113 121 135 146 156 155 149 182 156 150 140 130 141 196 193 159 124 138 166 182 203 205 205 204 204 198 194 181 153 140 135 131 132 132 104 141 124 117 120 122 105 104 177 197 189 147 157 162 170 170 127 201 150 167 178 185 185 187 193 188 187 184 181 182 178 182 186 142 104 88 71 53 65 48 65 61 58 54 63 57 66 54 67 57 46 75 123 125 120 116 102 110 131 125 133 138 149 147 138 169 147 147 142 147 131 133 140 132 137 78 210 174 195 206 210 208 205 207 185 160 163 160 152 150 151 151 145 151 161 139 150 160 161 153 153 155 152 145 138 143 159 176 150 189 222 126 165 166 183 184 185 188 179 188 182 183 177 180 178 122 98 93 67 55 63 53 54 74 59 61 67 46 73 46 66 46 71 107 133 112 103 113 81 115 145 134 124 122 96 111 121 141 142 141 146 147 153 138 118 118 123 95 159 185 176 208 210 208 204 205 158 176 178 177 166 165 157 161 158 161 161 150 154 166 175 175 177 175 181 181 167 156 153 174 160 151 210 159 146 169 176 185 186 187 184 191 183 183 179 184 165 97 92 90 61 56 55 52 57 68 62 56 56 62 63 58 64 46 102 136 141 115 113 106 75 116 148 133 121 94 96 118 131 135 130 122 95 109 154 130 127 97 114 136 129 160 152 178 189 219 224 224 202 195 188 179 171 164 159 157 155 140 134 124 113 130 136 151 160 151 166 171 162 159 149 172 179 181 161 160 182 175 177 182 190 184 189 191 189 186 177 183 133 88 91 94 69 61 60 55 60 53 59 55 66 75 57 59 53 59 128 146 143 117 119 105 65 119 146 128 121 94 91 95 115 134 123 126 86 61 110 101 114 112 99 116 118 129 130 140 145 145 177 168 142 201 190 184 177 165 158 156 144 139 147 145 137 127 128 141 170 158 169 170 139 124 120 153 172 175 167 152 190 181 187 191 185 173 168 162 151 147 140 135 114 102 97 95 76 67 70 65 101 54 82 104 129 149 132 60 30 91 137 146 145 119 122 123 69 123 154 127 124 112 94 118 131 155 152 140 119 90 105 125 149 124 85 89 141 118 147 172 175 175 176 152 140 200 189 183 178 170 164 153 148 145 135 124 136 123 99 76 113 130 79 146 151 134 116 121 154 180 181 182 205 142 131 141 116 114 114 115 117 122 130 146 113 89 69 92 75 86 69 89 117 111 140 176 179 166 167 146 50 113 145 145 144 114 123 120 101 127 157 149 150 138 115 128 148 161 169 154 154 149 157 158 148 131 95 108 141 138 190 205 212 212 218 182 122 194 185 189 185 176 187 166 141 126 130 147 178 160 134 91 81 84 103 114 112 99 102 145 145 149 171 135 177 91 105 124 109 119 127 145 160 171 173 180 152 98 69 81 83 73 66 93 106 148 173 180 167 114 147 170 140 110 150 145 143 112 122 121 110 126 157 159 157 146 142 139 139 148 150 151 158 163 170 172 154 145 143 148 140 158 199 206 211 212 216 205 135 187 185 201 189 195 200 179 160 151 152 159 171 178 150 150 130 136 141 155 131 105 81 124 149 152 155 135 138 116 106 121 140 158 176 189 191 188 183 182 174 108 78 92 80 87 80 100 101 163 164 158 147 84 67 141 177 134 143 145 141 113 123 113 121 125 161 169 164 150 146 152 152 154 160 163 165 162 157 161 162 162 165 159 132 177 203 210 212 211 213 205 137 209 160 193 197 195 199 188 174 163 164 160 155 154 165 169 168 185 179 163 156 151 129 147 165 154 138 139 106 130 147 167 189 192 190 196 189 188 183 179 181 124 88 99 88 77 94 117 142 168 154 176 180 148 127 76 172 160 131 147 143 113 117 118 124 134 167 170 172 167 164 158 149 152 150 151 152 148 158 171 168 168 180 128 129 192 207 210 211 210 211 215 106 219 184 187 191 201 201 191 183 173 162 164 162 167 162 161 183 191 192 188 190 183 165 161 164 162 163 154 158 177 189 197 196 199 193 195 189 189 182 180 178 135 101 87 93 86 116 155 159 176 193 191 189 153 163 96 157 173 131 146 143 111 116 120 129 145 165 174 181 179 177 178 177 168 171 163 171 172 180 185 173 156 185 73 162 204 208 211 211 209 208 215 157 161 225 230 192 198 206 206 196 191 185 176 164 164 175 176 181 194 198 198 202 198 181 179 181 194 195 196 191 198 204 203 201 196 196 197 190 189 183 179 184 130 118 89 89 58 133 168 157 182 190 194 190 156 176 137 134 184 132 142 144 124 116 117 140 146 161 180 182 182 178 183 190 184 179 182 179 183 186 180 164 157 114 108 175 203 212 211 212 211 204 209 200 128 210 216 201 185 208 209 206 201 202 199 191 179 181 181 180 184 190 193 198 193 182 182 197 204 204 207 200 202 204 205 200 199 198 197 191 186 188 175 185 161 102 94 84 83 142 162 167 192 189 189 192 164 174 167 129 187 130 144 145 163 109 120 143 149 166 175 180 183 181 185 187 188 183 184 185 184 183 178 164 137 115 144 181 202 212 210 210 212 202 202 207 164 144 233 177 187 203 209 208 208 205 204 199 195 198 197 192 199 195 193 199 197 188 186 202 208 205 204 205 206 202 202 201 198 197 194 191 186 183 177 178 174 126 69 96 108 156 153 88 177 189 188 189 169 173 164 150 193 131 139 144 218 109 122 147 146 166 176 182 187 189 186 187 187 179 186 180 186 181 170 146 144 141 154 185 206 211 210 208 211 204 200 209 207 130 193 223 181 192 211 207 207 207 205 205 203 205 204 204 203 201 201 203 202 192 189 198 211 189 198 211 205 204 201 199 197 194 191 190 183 179 174 177 175 148 79 114 145 164 151 65 89 162 177 183 179 176 156 171 178 130 141 147 118 162 131 136 154 169 175 187 188 187 190 186 183 184 188 186 182 176 143 152 151 151 170 191 206 210 207 210 204 206 205 207 204 199 130 220 208 184 207 208 204 203 209 206 203 204 207 207 203 203 200 204 203 194 186 199 217 153 196 211 206 200 199 196 195 194 188 187 179 173 174 175 172 160 112 141 172 161 160 163 104 134 166 187 187 177 156 174 165 130 142 146 105 116 170 152 154 169 182 187 190 189 188 184 185 187 186 185 174 158 141 138 152 172 187 194 208 208 204 207 204 203 205 203 207 204 188 127 222 209 192 205 204 205 205 206 205 201 205 203 202 207 202 203 205 196 185 202 199 163 208 208 205 198 195 195 194 193 189 181 176 175 171 175 170 161 137 145 188 179 162 183 155 122 157 180 197 167 152 186 147 133 144 145 111 110 150 137 153 166 180 188 190 189 187 187 188 184 183 182 155 164 153 128 168 183 194 201 208 206 205 209 204 201 206 198 201 196 198 168 132 226 203 196 202 205 203 207 206 204 204 202 202 207 206 209 206 195 184 200 169 195 209 203 197 200 195 194 194 191 182 174 177 173 172 172 168 163 148 159 193 186 170 194 186 134 141 173 200 160 160 182 132 144 142 142 114 112 150 138 151 157 161 157 171 179 182 183 184 176 165 161 172 169 129 145 175 187 196 204 210 206 205 207 205 202 209 196 189 190 192 195 159 138 214 199 203 203 203 205 203 204 204 203 206 205 207 210 205 195 185 175 191 206 206 201 193 203 196 194 189 186 181 170 175 171 172 170 163 159 149 162 194 179 184 203 210 154 133 171 201 149 174 170 129 144 141 142 110 112 153 137 150 161 167 169 168 163 160 158 154 159 169 177 171 140 136 165 180 191 199 213 218 207 206 209 201 199 202 197 186 197 197 190 183 164 153 164 197 207 206 206 205 206 202 207 207 205 204 203 198 180 181 200 204 204 205 199 201 200 195 193 189 182 181 172 170 169 173 165 162 157 150 165 194 174 191 212 209 160 131 182 190 152 186 145 135 143 141 141 109 111 148 139 144 155 151 163 162 165 167 172 170 175 178 163 134 139 155 168 179 194 204 215 217 212 215 208 200 197 201 199 190 204 209 201 178 183 169 150 143 174 202 215 202 190 182 178 178 178 186 181 180 193 213 207 204 202 204 196 202 201 193 191 185 181 175 169 171 171 169 164 160 155 149 167 190 172 190 204 196 145 161 196 172 174 177 135 141 140 141 141 112 106 148 141 152 154 163 166 170 172 178 178 178 176 167 143 123 150 148 159 175 191 200 207 201 214 214 208 199 195 196 195 191 200 207 200 190 163 193 183 163 154 156 162 169 170 176 187 190 186 190 187 199 206 208 206 204 205 200 199 200 198 190 187 184 179 171 167 172 169 165 157 159 152 150 175 178 185 192 186 159 167 197 182 166 193 162 130 139 142 140 143 112 106 147 142 156 165 169 175 176 185 188 189 185 178 157 139 142 146 133 139 157 177 189 194 192 193 195 194 194 192 187 187 182 191 195 187 189 157 188 194 193 184 186 191 194 198 201 199 205 201 202 203 204 206 205 208 204 201 196 198 201 196 192 184 179 175 172 170 171 168 162 160 155 151 153 178 164 170 174 174 174 186 180 169 186 191 134 133 143 142 138 142 115 102 143 144 155 165 169 177 182 181 190 186 181 166 149 143 153 151 118 120 121 149 172 179 178 171 174 174 178 176 176 169 165 174 183 178 179 158 194 200 194 188 189 193 194 199 201 203 203 205 205 206 203 200 206 205 204 198 196 196 198 192 191 185 177 176 169 169 168 167 159 160 152 146 159 172 149 158 184 186 176 187 178 180 191 161 132 138 142 139 139 140 115 106 136 142 151 159 169 174 179 184 187 184 174 163 156 155 154 161 134 80 96 117 143 158 164 159 162 159 150 141 137 125 117 127 156 159 167 181 201 208 201 190 189 194 198 202 204 204 201 201 204 201 200 197 206 201 202 193 196 193 192 191 189 180 178 175 169 167 166 167 161 156 153 148 163 172 189 190 196 185 175 180 178 187 174 135 138 137 138 140 138 138 113 103 129 143 145 154 170 171 176 181 182 181 170 169 165 159 155 162 150 85 69 81 116 140 146 149 150 131 120 135 158 157 150 131 144 168 185 193 206 208 208 200 196 189 197 202 204 209 202 204 202 202 196 195 202 198 201 193 192 192 186 187 186 181 173 173 166 171 166 166 160 159 152 144 169 173 194 192 191 192 188 186 184 182 149 133 141 139 139 138 137 136 114 108 124 142 139 151 163 170 173 175 183 177 179 172 165 160 153 158 159 122 98 75 87 104 120 137 135 119 145 154 172 166 165 179 181 184 194 193 207 211 210 207 202 195 193 202 201 205 206 203 207 202 197 195 201 195 194 191 189 188 188 189 187 180 174 173 168 171 168 162 162 152 160 135 183 174 187 194 194 194 192 190 184 157 130 138 138 135 138 138 137 137 108 107 116 145 139 142 162 167 174 178 182 183 183 173 163 162 157 159 157 152 132 99 96 100 105 130 137 132 157 172 182 187 183 183 187 187 191 196 204 210 208 210 207 200 198 200 201 203 207 204 202 200 200 197 198 193 191 191 190 183 186 185 180 178 170 170 171 166 164 163 155 152 151 139 188 183 182 193 195 192 195 195 158 134 137 134 135 135 131 135 134 135 115 108 108 142 139 141 153 167 173 179 178 186 188 174 167 164 163 161 162 165 154 136 132 150 159 167 168 150 163 177 183 186 183 181 184 193 197 201 206 206 209 208 209 205 203 201 204 204 206 204 201 203 200 193 200 193 189 190 186 185 183 183 180 173 170 168 167 169 164 158 157 155 150 132 184 191 179 190 191 194 194 169 134 136 135 137 135 134 134 134 135 132 114 111 96 142 138 140 153 158 170 176 172 179 185 180 171 169 175 170 172 175 175 167 171 175 178 172 169 158 169 177 184 186 184 185 190 195 203 200 205 206 203 208 211 209 205 203 203 206 204 204 204 204 198 197 198 193 190 187 185 186 188 182 177 174 172 170 170 168 164 155 157 154 151 92 172 184 184 187 190 186 172 141 130 133 135 133 133 133 135 133 134 133 109 112 99 134 144 143 150 158 165 170 167 173 176 174 164 163 175 173 178 181 188 179 193 190 184 178 166 161 165 178 182 186 184 190 196 198 202 204 203 204 201 208 207 207 205 205 204 208 205 203 206 203 198 197 194 191 189 186 183 185 187 181 176 174 172 168 168 164 162 158 153 153 150 24 113 169 172 173 171 157 140 130 135 133 134 133 135 130 134 130 132 131 108 113 106 120 143 145 153 157 157 165 165 169 170 167 155 154 172 173 175 183 187 187 197 201 189 181 169 168 171 188 194 193 196 195 202 197 198 201 201 202 200 201 202 202 204 203 201 204 205 203 201 201 195 198 193 191 191 184 184 183 182 176 170 174 173 169 168 164 161 157 153 153 121 63 56 128 145 146 137 135 133 134 132 134 134 130 133 132 133 132 132 128 111 108 111 113 139 146 151 161 153 162 168 168 162 158 136 135 158 158 149 155 154 160 163 173 186 196 184 179 183 186 192 200 202 206 207 201 193 198 192 193 190 190 194 197 205 201 201 198 205 199 201 199 200 198 195 192 188 184 177 180 177 172 175 170 173 166 165 162 159 156 149 147 120 72 76 134 136 134 133 134 133 131 130 132 131 130 133 130 130 131 130 130 109 111 107 104 134 140 152 160 155 153 169 171 165 145 109 86 119 120 115 126 135 153 152 147 143 156 153 152 159 166 165 167 175 184 194 200 198 197 194 187 183 181 190 193 200 204 202 202 199 198 197 195 198 196 190 187 186 181 172 175 176 173 171 174 171 167 169 160 156 155 146 137 149 54 98 137 134 128 134 134 130 132 133 131 131 131 129 130 131 129 129 129 109 110 110 100 128 136 150 159 156 152 167 181 175 170 114 78 83 86 82 88 94 118 135 133 131 137 137 138 146 152 155 155 148 148 148 155 162 165 172 165 165 154 164 171 189 205 200 194 197 195 197 197 196 194 191 187 185 180 176 173 180 174 171 172 169 169 167 164 156 152 135 139 160 80 116 133 133 131 129 130 131 129 131 131 130 130 127 132 127 130 129 129 110 107 111 104 119 133 142 160 159 157 166 180 184 185 158 154 134 126 128 133 130 134 140 136 141 135 129 135 133 128 136 131 132 127 126 124 124 129 131 131 132 118 121 141 179 198 198 198 193 192 194 197 194 196 189 186 186 180 176 176 174 178 172 173 169 168 167 161 150 147 131 146 154 106 124 131 132 128 132 130 132 129 129 128 131 127 129 128 128 129 125 130 108 111 108 111 107 129 138 152 165 161 167 175 183 185 181 177 153 146 156 153 152 170 178 177 189 182 169 181 176 170 174 177 175 174 178 167 166 159 157 154 161 169 155 152 171 192 196 195 192 192 192 197 193 194 188 187 185 180 177 177 178 175 171 168 170 162 163 153 146 137 134 154 152 109 133 131 131 128 130 127 130 129 126 129 129 128 128 128 125 126 127 128 108 108 110 109 104 126 130 143 160 162 164 172 182 183 181 182 161 139 142 149 148 157 172 173 187 184 176 189 191 190 196 190 187 184 187 181 181 180 177 184 191 199 197 184 183 190 195 192 189 191 196 194 188 193 186 186 185 181 179 180 176 173 172 170 167 165 160 152 145 131 141 158 143 116 130 133 128 128 129 129 128 133 127 128 128 127 126 130 124 126 129 124 109 108 110 110 103 114 133 137 149 162 161 167 178 181 181 182 168 157 146 137 145 149 156 161 170 171 170 175 174 174 182 181 179 180 185 183 183 185 195 195 200 197 207 200 190 193 195 194 188 190 199 192 187 184 187 180 179 180 180 180 172 173 174 173 167 162 160 149 137 131 156 160 141 112 131 134 126 131 130 129 128 129 126 126 127 125 131 123 128 126 128 125 103 109 109 107 107 104 126 134 144 151 160 163 172 180 178 181 171 161 158 151 136 135 139 138 142 152 153 163 165 173 177 176 180 184 191 193 195 195 197 194 203 201 209 206 195 197 198 193 192 191 190 191 188 186 183 181 177 178 180 171 174 168 172 165 162 157 155 140 133 142 155 160 123 125 130 128 128 129 126 130 126 128 125 123 128 125 125 126 126 122 124 123 107 107 111 112 108 103 119 126 140 145 154 156 167 169 176 175 170 163 163 167 151 151 149 144 136 127 128 128 143 156 164 170 184 188 195 194 197 196 197 198 204 204 208 205 200 200 197 191 195 193 191 188 186 184 182 183 175 176 173 172 170 168 168 161 162 154 148 131 139 153 158 160 120 125 129 127 128 126 129 127 126 128 125 125 125 126 122 127 122 124 123 122 108 107 110 108 110 105 107 124 133 139 146 153 159 159 171 168 165 167 162 172 166 162 164 164 165 162 154 146 156 162 167 177 181 188 189 193 192 195 198 198 202 205 204 203 201 195 192 189 193 192 188 185 186 180 184 178 173 177 174 175 167 163 163 159 157 149 135 136 152 155 160 156 112 131 127 126 126 122 129 126 125 125 123 124 123 123 123 125 119 124 122 122 106 106 111 108 107 107 109 111 129 134 141 144 151 155 168 167 163 167 168 168 171 170 170 173 171 172 172 166 174 176 181 184 182 190 188 193 195 194 196 199 198 202 202 201 198 196 188 187 190 183 181 181 180 181 180 172 173 174 174 172 169 161 160 154 150 143 132 152 160 160 162 149 118 123 128 124 129 120 128 122 123 127 123 125 122 123 126 121 121 123 121 117 104 107 108 109 107 108 110 106 119 131 136 141 147 149 160 170 161 166 169 173 171 174 178 176 178 180 184 184 184 185 189 189 187 194 191 192 193 194 194 197 196 195 198 194 194 195 187 188 188 178 181 183 174 181 173 172 176 167 165 168 168 158 157 148 143 133 146 159 161 159 166 143 113 129 125 125 126 121 126 121 124 121 121 123 121 123 122 122 121 123 121 118 107 109 105 107 108 108 110 102 111 126 128 136 146 146 154 162 167 169 168 177 178 185 190 190 197 196 196 196 194 189 194 192 191 195 191 192 190 193 188 196 197 198 194 191 184 197 184 182 184 186 181 178 180 171 174 170 170 165 163 162 159 153 149 146 132 141 159 162 163 162 163 138 110 130 125 122 126 119 124 120 124 120 118 125 122 125 120 121 115 121 122 119 104 107 111 105 107 107 108 107 104 116 124 130 140 142 151 161 166 171 175 179 190 191 197 194 199 202 201 208 206 204 207 202 197 200 195 199 197 195 194 195 197 192 194 185 184 187 180 181 182 185 176 175 176 168 174 171 165 165 164 161 154 148 142 134 135 154 165 165 166 163 161 134 117 124 125 126 119 126 120 124 120 123 118 121 119 119 121 121 117 120 117 119 104 109 107 106 107 108 107 107 112 101 122 127 134 133 147 153 160 174 180 181 191 188 193 194 201 198 198 206 205 210 210 209 210 209 204 202 202 195 198 197 194 192 190 188 181 183 178 177 179 179 172 175 171 166 166 167 166 158 157 154 147 139 132 135 154 161 167 165 170 165 160 131 117 128 121 123 123 124 120 125 121 121 119 120 117 119 119 116 120 115 117 117 109 110 106 107 107 109 105 109 109 91 126 140 124 131 140 150 148 164 174 178 185 190 193 195 206 201 201 205 208 210 209 209 212 212 209 201 198 199 201 196 191 186 189 186 184 179 179 175 179 176 174 172 165 162 160 163 162 159 148 150 141 129 132 152 163 164 168 167 170 166 156 129 121 122 123 123 124 123 120 121 120 120 120 120 116 119 118 119 116 117 114 120 106 107 103 111 107 105 110 109 109 68 177 210 117 118 138 139 147 158 166 174 180 186 190 196 202 199 200 201 205 205 207 208 208 209 207 200 198 201 191 190 187 186 184 182 181 177 174 172 174 174 171 165 163 161 155 160 154 148 141 142 135 129 151 161 164 167 170 164 168 161 159 143 118 123 121 119 121 120 124 117 120 118 120 118 116 114 118 118 114 115 114 117 107 107 105 113 105 106 108 112 90 96 209 230 135 118 127 134 144 151 160 163 178 177 182 190 194 196 193 196 200 204 204 203 202 202 202 197 196 192 189 184 185 185 180 185 179 173 169 171 166 166 163 163 156 158 154 149 147 142 137 134 128 147 159 162 165 169 170 166 167 164 143 192 108 123 122 124 119 121 123 117 118 118 120 116 118 114 117 119 111 116 114 118 108 105 108 106 107 107 108 107 74 165 218 222 137 130 122 130 134 148 148 158 171 173 174 181 188 188 183 188 192 195 200 198 193 199 195 188 191 184 187 182 189 177 179 178 173 170 164 165 157 157 158 154 151 150 146 143 139 137 136 133 141 158 162 162 169 171 172 169 166 161 135 224 124 110 121 121 119 121 118 117 121 115 117 116 120 113 115 117 114 116 115 116 107 107 102 109 107 105 113 87 97 209 218 219 133 137 118 126 124 132 135 153 158 167 166 166 181 179 175 174 186 183 189 186 188 190 184 181 181 173 183 177 182 173 168 172 169 162 155 163 157 153 153 153 146 144 139 138 137 135 138 145 145 159 161 162 165 174 170 168 166 164 124 225 199 83 118 121 121 117 118 116 117 116 115 114 116 114 115 112 111 112 114 111 105 108 105 103 103 111 118 74 153 214 219 221 138 141 129 108 126 127 126 133 149 159 159 164 166 167 165 159 168 171 178 175 181 178 172 176 173 176 177 170 171 164 164 163 161 151 152 150 151 146 145 142 142 137 136 136 139 142 142 147 159 163 162 167 171 172 170 167 168 163 117 213 226 115 104 120 119 118 118 115 117 116 113 116 115 112 114 113 107 113 114 112 102 109 109 113 124 137 142 121 196 213 216 224 143 143 133 117 106 121 128 114 134 140 154 156 159 160 156 150 156 161 162 167 168 172 165 164 162 166 165 168 166 158 157 151 148 149 146 142 143 138 139 138 140 138 139 141 143 143 149 149 167 164 166 167 174 171 171 168 167 166 110 203 227 173 95 115 121 117 117 116 113 117 110 116 111 114 113 114 107 113 111 112 125 123 134 146 140 145 187 195 203 213 216 228 148 145 136 131 106 105 126 115 121 130 135 139 148 144 145 146 142 149 147 156 158 158 155 155 158 154 156 160 155 154 150 143 140 138 134 137 137 140 139 141 143 142 146 145 145 146 153 160 166 167 166 174 173 173 170 169 165 173 102 199 223 206 127 116 119 117 115 116 114 112 115 112 111 113 111 116 108 114 111 113 141 132 124 170 193 212 217 200 207 213 215 231 150 145 139 134 119 109 97 119 126 125 122 126 135 135 134 132 139 131 134 140 143 145 145 146 148 148 147 149 148 137 140 129 132 135 138 139 140 143 145 143 147 144 148 146 148 150 158 167 169 167 172 171 173 174 172 170 164 180 87 205 222 206 179 135 116 127 129 124 112 113 111 113 110 109 110 112 111 108 113 110 