P2
92
112
15
9 9 9 9 9 9 9 9 9 9 9 9 9 9 9 9 9 9 9 9 9 9 9 9 9 9 9 9 9 9 9 9 9 9 9 8 8 7 9 9 8 9 9 9 9 9 9 9 9 9 9 9 9 9 9 9 9 9 9 9 9 9 9 9 9 9 9 9 9 9 9 9 9 9 9 9 9 9 9 9 9 9 9 9 9 9 9 9 9 9 9 9 9 9 9 9 9 9 9 9 9 9 9 9 9 9 9 9 9 9 9 9 9 9 9 9 9 9 9 9 9 9 9 8 8 7 7 7 6 6 7 7 8 8 8 8 7 9 9 9 9 9 9 9 9 9 9 9 9 9 9 9 9 9 9 9 9 9 9 9 9 9 9 9 9 9 9 9 9 9 9 9 9 9 9 9 9 9 9 9 9 9 9 9 9 9 9 9 9 9 9 9 9 9 9 9 9 9 9 9 9 9 9 9 9 9 9 9 9 9 9 8 7 7 7 7 6 6 5 5 5 5 6 6 7 6 6 6 6 6 6 7 8 8 9 9 8 9 9 9 9 9 9 9 9 9 9 9 9 9 9 9 9 9 9 9 9 9 9 9 9 9 9 9 9 9 9 9 9 9 9 9 9 9 9 9 9 9 9 9 9 9 9 9 9 9 9 9 9 9 9 9 9 9 9 9 9 9 9 9 8 8 7 6 6 6 6 7 6 6 6 5 5 5 6 5 6 5 5 6 5 5 5 5 6 6 7 7 6 7 7 8 8 7 8 9 9 9 9 9 9 9 9 9 9 9 9 9 9 9 9 9 9 9 9 9 9 9 9 9 9 9 9 9 9 9 9 9 9 9 9 9 9 9 9 9 9 9 9 9 9 9 9 9 9 9 9 9 9 9 8 8 7 5 6 6 6 5 7 7 6 6 6 6 5 7 6 6 6 6 6 6 5 5 6 6 5 6 6 6 5 5 6 6 6 6 6 8 9 9 9 9 9 9 9 9 9 9 9 9 9 9 9 9 9 9 9 9 9 9 9 9 9 9 9 9 9 9 9 9 9 9 9 9 9 9 9 9 9 9 9 9 9 9 9 9 9 9 9 9 9 7 6 6 5 5 5 6 6 6 7 7 7 7 6 7 6 7 6 7 6 6 6 6 6 5 7 6 6 7 7 6 5 5 6 6 6 6 5 6 8 8 9 9 9 9 9 9 9 9 9 9 9 9 9 9 9 9 9 9 9 9 9 9 9 9 9 9 9 9 9 9 9 9 9 9 9 9 9 9 9 9 9 9 9 9 9 9 9 9 9 9 7 5 5 6 6 6 5 7 7 6 7 7 7 7 7 7 6 6 6 7 6 6 6 6 5 6 6 6 6 7 6 6 6 6 6 6 6 6 5 6 7 7 8 8 8 9 8 9 9 9 9 9 9 9 9 9 9 9 9 9 9 9 9 9 9 9 9 9 9 9 9 9 9 9 9 9 9 9 9 9 9 9 9 9 9 9 9 9 9 9 8 6 5 5 6 7 5 7 6 7 7 7 8 7 7 7 6 6 6 6 6 6 6 6 6 7 5 7 6 6 7 7 6 6 6 7 7 7 6 6 4 5 6 6 6 7 7 7 7 8 8 8 9 9 9 9 9 9 9 9 9 9 9 9 9 9 9 9 9 9 9 9 9 9 9 9 9 9 9 9 9 9 9 9 9 9 9 9 9 9 9 7 6 6 5 5 6 7 6 6 7 7 7 7 7 6 7 6 6 6 7 6 6 6 6 7 6 6 6 6 6 6 7 7 6 6 6 7 7 7 6 5 5 6 6 6 6 6 6 6 6 7 7 8 9 9 9 9 9 9 9 9 9 9 9 9 9 9 9 9 9 9 9 9 9 9 9 9 9 9 9 9 9 9 9 9 9 9 9 9 8 7 7 5 6 5 5 5 6 6 6 7 7 7 7 7 6 6 6 6 7 6 6 6 6 7 7 7 7 6 7 6 6 6 7 6 6 6 7 7 7 7 6 4 5 6 6 6 5 5 5 6 7 7 6 7 7 8 8 8 9 9 9 9 9 9 9 9 9 9 9 9 9 9 9 9 9 9 9 9 9 9 9 9 9 9 9 9 9 9 9 9 6 5 5 5 6 5 6 5 5 6 7 7 7 6 6 6 6 6 5 6 6 6 6 6 7 7 7 6 6 6 7 6 6 7 7 7 7 6 6 7 6 6 6 5 6 6 6 6 5 5 5 6 6 6 6 6 7 7 7 7 8 8 8 9 9 9 9 9 9 9 9 9 9 9 9 9 9 9 9 9 9 9 9 9 9 9 9 9 9 9 9 6 4 5 6 5 5 6 6 5 6 6 7 6 6 7 5 5 5 6 7 6 6 7 6 6 6 6 6 6 6 6 6 6 6 7 7 8 7 7 7 7 6 7 7 6 6 6 6 6 5 6 6 7 6 6 6 6 7 6 7 7 7 7 7 9 9 9 9 9 9 9 9 9 9 9 9 9 9 9 9 9 9 9 9 9 9 9 9 9 9 8 6 6 6 7 6 5 6 6 5 5 5 6 6 5 6 5 5 6 7 7 6 6 7 6 5 6 6 5 5 5 6 6 6 6 5 6 6 7 7 7 7 7 6 6 7 6 6 7 5 6 5 5 5 5 5 6 6 6 6 7 6 7 7 6 6 8 9 9 9 9 9 9 9 9 9 9 9 9 9 9 9 9 9 9 9 9 9 9 9 9 8 6 6 6 7 7 5 5 5 5 5 4 5 6 5 5 5 5 6 7 7 7 6 7 7 6 7 7 6 5 6 6 6 6 6 6 6 7 7 7 8 7 6 6 6 6 5 6 6 6 6 6 6 4 5 5 5 6 6 6 6 7 7 6 7 7 6 7 8 9 9 9 9 9 9 9 9 9 9 9 9 9 9 9 9 9 9 9 9 9 9 8 6 6 5 6 6 6 5 5 5 5 4 4 5 5 5 5 5 5 5 5 6 6 7 6 5 7 8 6 7 7 6 6 6 7 7 6 6 6 7 7 8 7 5 6 6 7 6 6 7 6 6 6 6 6 5 6 5 7 7 7 6 6 6 6 6 6 6 6 7 9 9 9 9 9 9 9 9 9 9 9 9 9 9 9 9 9 9 9 9 8 9 6 6 6 5 6 5 5 5 5 5 5 3 4 4 5 4 4 4 4 3 4 6 7 6 5 6 7 7 7 7 7 6 7 7 7 8 7 7 6 6 7 8 7 6 6 6 6 6 6 6 6 6 5 6 6 6 6 5 7 7 7 7 7 6 7 6 6 6 6 7 8 8 8 9 9 9 9 9 9 9 9 9 9 9 9 9 9 9 8 8 8 8 5 6 5 5 5 5 5 4 4 4 5 5 5 5 5 5 5 4 2 4 7 7 5 7 6 6 7 7 7 7 8 7 7 6 7 7 7 6 7 6 6 6 6 6 7 7 7 6 6 6 6 5 5 5 5 5 5 5 6 6 8 6 6 6 7 7 6 6 6 6 6 7 7 8 9 9 9 9 9 9 9 9 9 9 9 8 8 8 8 8 8 7 5 5 4 5 5 5 5 5 5 5 6 7 6 7 6 6 5 4 3 6 6 6 7 7 6 5 6 5 6 7 7 6 6 5 6 5 6 5 5 6 5 5 4 6 7 6 5 5 5 6 6 5 5 5 5 5 5 5 6 6 6 5 5 5 5 6 6 5 6 5 6 6 6 5 7 9 9 9 9 9 9 9 9 8 8 8 8 8 8 6 6 6 5 4 4 5 5 4 4 5 5 6 5 6 5 5 5 4 5 5 5 5 5 6 6 6 5 5 4 5 6 5 6 5 6 6 6 5 5 5 5 6 5 5 4 6 5 5 5 5 5 8 5 5 5 6 5 4 5 5 5 4 5 5 5 5 6 6 6 5 5 5 5 6 6 6 5 7 9 9 9 9 9 9 9 8 8 8 8 8 8 6 5 6 4 4 5 5 4 4 4 4 4 5 5 4 5 4 5 5 3 5 5 5 6 4 5 5 4 4 4 5 4 5 7 5 4 6 6 6 6 7 6 5 6 4 5 4 5 5 4 4 6 6 4 4 4 6 5 4 5 5 5 5 5 5 6 7 7 6 5 4 4 4 5 6 6 6 6 6 8 9 9 9 9 9 9 8 8 8 8 8 7 5 5 5 5 4 5 5 4 4 4 4 4 4 4 4 3 4 4 4 3 5 5 6 4 4 5 5 5 5 5 4 4 6 4 5 3 6 7 7 6 6 5 5 5 6 5 5 5 4 4 5 5 5 4 5 4 4 5 3 4 4 4 6 6 5 5 6 7 6 5 5 5 4 5 6 6 6 6 6 7 9 9 9 9 9 9 8 8 8 7 8 6 4 5 4 4 4 4 5 4 4 4 4 4 4 4 4 5 4 4 3 4 5 5 5 3 4 5 6 5 4 4 3 4 3 2 4 4 7 7 7 6 6 5 5 5 6 7 7 6 5 5 4 5 5 5 6 4 3 5 4 3 4 4 6 6 6 5 5 6 6 6 6 5 5 5 6 6 5 5 6 7 8 9 9 9 9 9 8 8 7 7 6 5 5 5 4 5 5 5 3 4 4 5 4 3 3 4 3 4 4 5 5 6 5 5 4 3 3 5 6 5 4 3 3 3 2 2 5 5 7 5 6 6 5 6 4 5 6 5 5 4 5 6 5 5 4 4 6 4 3 6 4 3 5 5 6 6 5 6 6 6 7 6 6 5 5 4 5 6 6 5 6 6 8 9 9 9 9 9 8 8 6 5 4 5 4 4 4 5 4 5 4 4 4 4 5 4 4 3 4 4 5 5 5 5 6 5 4 3 3 5 5 4 4 3 3 3 2 3 5 5 5 4 5 5 4 4 4 4 4 4 3 5 7 6 6 4 4 4 5 5 4 5 4 5 5 5 5 6 6 6 6 7 7 6 5 6 5 5 5 6 6 6 5 5 7 9 9 9 9 9 8 7 5 5 4 5 4 4 4 5 4 5 4 5 5 4 4 4 4 4 4 5 4 5 5 5 6 5 4 3 3 5 4 4 4 3 3 2 3 4 4 4 4 4 5 4 4 4 3 4 4 3 6 7 6 6 5 4 5 5 5 6 4 5 5 5 6 5 5 5 6 6 6 7 6 6 7 7 6 6 5 5 6 6 6 5 5 8 9 9 9 9 8 7 5 4 4 5 4 4 4 5 5 5 4 5 4 5 4 4 4 5 4 4 5 5 5 5 5 5 4 3 3 5 5 4 4 3 3 2 3 4 3 4 4 4 5 5 5 3 4 5 4 5 7 8 7 6 5 4 5 6 5 5 5 5 5 6 6 5 5 6 6 5 6 6 7 6 7 7 6 5 5 5 7 6 6 5 6 8 9 9 9 9 7 6 5 4 4 4 4 4 4 5 5 5 5 4 5 5 5 4 4 4 5 4 5 6 5 4 5 5 4 3 3 4 5 4 4 3 3 3 3 3 3 3 4 4 5 4 4 3 5 5 5 6 8 8 7 6 4 5 5 6 5 5 5 5 5 5 6 5 6 7 6 6 5 6 6 7 7 6 5 4 4 5 5 6 5 5 5 7 9 9 9 9 6 6 5 5 5 4 4 5 4 5 5 5 5 5 5 5 5 4 5 4 5 5 5 5 5 4 4 4 4 4 3 4 4 5 3 3 3 3 3 3 3 3 3 3 4 3 3 3 5 5 5 5 7 7 6 6 4 5 5 6 4 5 5 5 5 5 4 5 6 6 6 6 5 5 5 4 6 5 5 4 3 4 4 6 5 5 5 8 9 9 9 9 6 5 5 5 5 4 4 5 4 4 5 6 5 5 4 4 5 4 5 4 4 5 5 5 5 4 4 5 4 4 3 4 4 5 4 3 2 3 3 3 3 4 4 3 4 4 3 4 4 6 6 5 6 5 5 5 5 6 6 6 6 5 5 6 5 4 5 4 5 6 6 8 6 5 5 5 4 3 4 4 3 4 4 5 5 5 4 7 9 9 9 9 4 4 4 5 5 5 4 5 4 4 4 5 4 5 5 4 5 4 4 4 4 5 5 5 5 4 4 4 4 4 4 4 5 5 4 5 3 4 4 4 3 4 4 4 4 5 5 5 5 6 6 5 5 4 5 5 6 6 5 6 7 6 6 6 5 5 5 4 4 5 5 6 6 5 5 3 5 4 3 3 3 3 6 5 5 5 5 6 9 9 9 9 4 4 5 5 6 5 5 5 4 4 5 4 4 4 4 4 4 4 4 5 4 5 5 5 5 4 4 4 5 5 4 5 5 6 5 4 4 4 4 4 4 3 4 4 4 4 6 5 4 5 6 5 5 5 5 6 6 6 6 7 8 8 8 8 7 5 4 5 4 4 4 4 4 6 6 4 3 5 4 3 3 5 5 6 5 5 5 5 9 9 9 9 4 5 4 5 5 6 5 5 4 5 5 5 4 4 4 4 4 4 4 5 5 5 6 5 5 5 5 4 5 5 5 6 6 5 6 5 5 5 4 3 4 4 5 4 4 4 5 5 4 5 5 5 6 6 6 6 7 7 8 9 8 9 9 9 8 6 5 4 4 4 4 5 6 5 6 5 3 4 4 4 2 5 4 7 6 6 5 5 8 9 9 9 4 4 4 4 5 5 5 5 4 5 6 5 5 5 5 5 4 4 5 5 5 5 6 5 5 5 5 5 5 6 6 6 6 6 6 6 5 5 5 5 5 5 5 5 5 4 4 4 5 4 4 5 7 7 7 8 8 9 9 10 8 10 11 10 9 8 6 5 4 4 4 5 5 5 5 5 4 2 5 4 3 4 5 5 7 6 5 5 8 9 9 9 4 4 4 5 5 5 4 4 5 6 7 6 6 5 5 6 5 6 6 6 6 6 6 6 6 6 6 6 6 6 7 6 7 7 7 7 6 6 7 7 6 6 4 6 6 5 4 4 4 4 5 7 7 8 9 9 9 10 9 11 9 10 11 10 10 9 8 5 4 5 5 6 6 5 6 6 4 3 5 6 5 4 5 5 6 7 6 5 7 9 9 9 4 4 4 4 6 4 4 3 6 7 7 7 6 6 6 7 7 8 8 8 8 7 7 6 7 7 7 6 7 7 7 8 7 8 8 8 8 8 8 8 8 6 6 5 6 7 5 4 4 5 7 7 8 7 9 9 9 10 10 11 10 11 11 11 10 10 8 6 4 3 4 5 5 5 5 6 6 5 5 5 6 5 4 6 5 6 6 5 4 8 9 9 4 4 5 5 5 3 3 4 7 8 8 7 7 7 8 8 8 8 9 8 9 9 8 8 8 7 7 8 8 8 8 8 8 9 9 9 10 10 10 9 9 7 7 6 5 6 6 4 5 4 9 10 8 8 9 8 9 9 10 10 11 12 11 11 11 11 9 6 5 4 4 5 5 5 5 6 6 7 6 5 6 7 5 6 5 6 6 6 4 6 9 9 4 5 5 5 3 3 2 6 8 8 8 7 8 8 9 9 9 10 9 10 10 10 10 9 8 8 9 9 9 9 9 8 9 9 10 9 10 11 11 10 9 8 7 8 7 6 6 6 7 6 10 11 11 10 10 10 10 11 11 12 12 12 12 11 11 10 9 8 6 5 5 5 5 6 6 6 6 8 7 5 5 6 7 6 6 5 5 5 5 5 8 9 4 4 5 4 3 3 3 8 9 8 7 8 8 9 9 9 10 11 10 10 9 10 10 10 9 9 10 10 10 10 11 10 9 9 11 11 10 10 11 11 10 10 9 10 9 8 7 8 10 10 10 11 12 12 11 11 12 12 12 11 12 11 12 11 11 11 9 9 7 5 6 5 6 5 5 5 6 6 6 4 4 5 7 7 7 6 4 5 4 5 7 9 4 4 5 3 4 2 5 9 9 8 8 9 9 10 10 11 10 11 11 12 11 11 11 11 10 10 10 10 10 11 12 11 9 11 11 11 11 10 11 11 11 12 11 11 11 10 10 10 12 11 10 11 12 12 12 12 12 12 12 12 11 12 12 11 12 11 10 9 8 7 5 6 6 6 6 5 5 6 6 4 4 5 6 6 8 6 5 5 4 4 6 9 4 4 5 4 3 3 7 9 9 9 9 10 10 10 11 11 11 11 11 12 12 12 12 12 11 11 11 11 11 12 12 12 11 12 11 12 12 11 12 12 12 12 12 12 12 12 12 12 12 12 11 12 12 12 12 12 12 12 12 12 11 12 12 12 12 11 11 9 9 8 6 6 5 6 6 5 5 5 5 4 4 4 5 5 6 6 5 5 4 4 3 8 4 4 5 4 3 3 8 9 9 9 10 10 10 11 11 11 11 12 12 12 12 12 12 12 11 12 11 12 12 12 12 13 12 12 12 12 12 12 13 12 13 13 13 12 13 12 13 13 12 12 12 13 13 13 13 12 13 13 12 12 11 12 12 12 12 11 11 10 9 8 7 6 6 5 6 6 5 5 6 5 5 4 4 4 5 5 4 5 5 4 3 3 3 5 4 4 3 4 9 9 9 10 10 10 11 11 11 12 12 12 12 12 12 12 12 12 12 12 12 12 12 12 13 13 12 12 12 12 13 13 13 13 13 13 13 13 13 13 13 13 13 13 13 12 12 13 12 13 12 13 12 12 12 12 12 12 12 11 11 11 9 8 7 7 7 6 5 6 5 6 6 6 5 4 4 4 4 5 5 5 5 4 5 0 3 5 4 4 3 6 9 9 9 10 10 11 11 11 12 12 12 12 12 12 12 12 12 12 12 12 12 12 12 12 13 13 13 12 12 12 13 13 13 13 13 13 13 13 13 13 13 13 13 13 13 13 12 13 13 13 12 13 12 12 12 12 12 12 12 11 11 11 10 9 7 7 7 7 6 7 6 6 7 5 6 5 3 5 4 5 4 5 6 3 5 2 3 5 4 4 2 7 9 9 10 10 10 11 11 11 12 12 12 12 12 12 12 12 12 12 12 12 12 12 12 12 13 13 13 13 12 12 13 13 13 13 13 13 13 13 13 13 13 13 13 13 13 13 12 13 13 13 12 13 12 12 12 12 12 12 12 12 11 11 10 9 8 7 7 7 7 7 6 7 7 6 5 5 4 5 5 4 5 4 6 5 4 4 3 6 4 4 2 7 9 9 10 10 11 11 11 11 12 12 12 13 13 12 12 12 13 13 13 12 12 13 13 13 13 13 13 13 13 12 13 13 13 13 13 13 13 13 13 13 13 13 13 13 13 13 13 12 13 13 12 13 12 11 11 12 11 12 12 12 12 11 10 9 8 8 7 7 6 6 6 6 6 5 5 6 5 5 6 4 6 4 5 6 4 3 4 6 4 3 2 8 9 9 10 10 11 11 11 12 12 12 12 12 13 13 13 12 13 13 13 13 13 13 12 13 13 13 13 13 13 12 13 13 13 13 13 13 13 13 13 13 13 13 13 13 13 13 13 13 13 13 13 13 12 12 11 12 12 12 11 11 12 11 10 9 8 8 7 7 6 6 6 6 5 5 5 6 5 5 6 4 5 4 6 5 5 2 4 6 4 2 3 9 9 9 10 11 11 11 11 12 12 12 12 12 13 13 13 13 13 13 13 13 13 13 13 13 13 13 13 13 13 13 13 13 13 13 13 13 13 13 13 13 13 13 13 13 13 13 13 13 13 13 13 12 12 12 11 12 11 12 11 11 12 11 10 9 7 7 8 7 5 6 4 8 6 4 5 5 5 4 5 5 4 5 4 5 5 1 5 5 4 1 5 9 8 9 10 10 11 11 11 12 12 12 12 13 13 13 13 13 13 13 13 13 13 13 13 13 13 13 13 13 13 13 13 13 13 13 13 13 13 13 13 13 13 13 13 13 13 13 13 13 13 13 13 13 12 12 12 12 12 11 11 11 11 11 10 9 8 7 7 8 5 6 4 7 7 4 5 5 4 4 4 5 4 5 4 4 5 2 6 5 4 1 4 9 9 9 10 10 11 11 11 12 12 12 12 13 13 13 13 13 13 13 13 13 13 13 13 13 13 13 13 13 13 13 13 13 13 13 13 13 13 13 13 13 13 13 13 13 13 13 13 13 13 13 13 12 12 12 12 11 12 11 11 11 11 11 11 9 7 6 7 8 5 6 4 5 6 4 4 5 3 4 3 5 4 4 5 4 4 3 6 5 3 2 5 9 9 9 10 10 11 11 11 11 11 12 12 13 13 13 13 13 13 13 13 13 13 13 13 13 13 13 13 13 13 13 13 13 13 13 13 13 13 13 13 13 13 13 13 13 13 13 13 13 13 12 13 12 12 12 12 12 11 12 12 11 11 11 11 10 6 6 7 7 5 5 5 5 5 5 4 5 4 4 3 4 5 4 5 4 4 4 6 4 3 2 4 9 9 9 10 10 10 11 11 11 11 12 12 12 13 13 13 13 13 13 13 13 13 13 13 13 13 13 13 13 13 13 13 13 13 13 13 13 13 13 13 13 13 13 13 13 13 13 13 13 13 13 12 12 12 12 12 12 11 11 11 11 11 11 11 10 7 5 6 6 6 4 7 5 4 5 5 4 4 3 3 5 4 5 5 4 4 4 6 5 3 1 4 9 9 10 9 8 9 10 10 10 11 11 12 12 12 13 13 12 13 13 13 13 13 13 13 13 13 13 13 13 13 13 13 13 13 13 13 13 13 13 13 13 13 13 13 13 13 13 13 13 13 13 12 12 12 12 12 12 12 11 11 11 11 11 11 11 9 5 5 6 6 5 7 5 4 4 4 4 3 3 2 4 4 5 4 4 3 3 5 6 4 1 5 9 9 9 8 7 9 9 8 9 9 10 11 11 12 12 12 12 12 13 13 13 13 13 13 13 13 13 13 13 13 13 13 13 13 13 13 13 13 13 13 13 13 13 13 13 12 13 13 13 13 12 12 12 12 12 12 11 12 11 11 11 11 11 11 11 11 8 4 6 5 6 6 4 4 4 4 4 2 3 3 4 4 3 4 4 3 4 6 6 5 2 5 9 8 7 6 6 7 6 6 6 7 7 8 9 10 11 11 12 12 12 13 13 13 13 13 12 12 13 12 13 13 12 13 12 12 12 12 12 12 12 13 12 12 12 12 12 12 11 12 13 13 12 13 12 12 12 12 12 12 12 11 11 11 11 11 11 11 10 5 5 5 5 5 4 4 4 3 3 3 3 4 3 4 4 3 4 3 4 7 6 6 6 6 8 8 8 8 9 9 9 8 10 9 8 7 6 7 9 10 11 12 12 12 13 12 12 13 12 12 12 12 12 12 11 11 11 11 10 9 9 9 9 8 9 9 10 10 10 11 10 10 12 12 12 13 12 12 12 12 11 11 12 11 11 11 11 11 11 11 10 7 4 4 4 5 4 3 4 3 3 3 3 3 3 4 4 4 3 3 4 7 8 8 5 5 7 6 7 7 7 7 7 7 9 9 11 11 12 9 8 9 9 11 12 12 12 12 12 12 12 12 12 11 11 11 10 8 9 8 7 8 9 9 11 12 12 12 12 11 10 11 10 10 10 11 11 12 12 12 12 11 12 11 12 11 11 11 11 11 11 11 11 8 5 4 4 4 4 3 3 3 3 3 3 4 3 4 4 4 2 3 4 8 8 7 6 5 7 6 7 8 8 8 7 10 7 6 6 6 9 11 10 10 10 8 11 12 12 12 12 12 12 11 12 11 11 10 8 8 9 9 8 9 8 7 7 8 8 10 14 14 12 10 11 11 9 9 9 10 11 12 12 11 11 11 12 11 11 11 11 11 11 11 11 9 6 5 4 4 4 3 4 3 3 3 3 4 4 3 3 4 2 3 6 8 7 7 7 6 7 7 8 9 9 9 9 11 9 9 8 8 8 12 12 9 7 8 10 11 12 12 12 12 12 12 12 11 9 8 8 8 8 8 6 8 7 7 7 7 6 6 11 12 11 9 9 10 10 10 7 12 9 10 11 11 11 11 12 11 11 11 11 11 11 11 11 8 6 5 4 3 4 3 4 3 3 3 3 3 4 3 4 3 2 4 7 7 7 7 6 6 8 7 8 8 9 9 8 10 9 9 8 9 8 8 8 8 8 4 13 10 12 12 13 13 12 12 11 10 10 10 9 9 9 9 9 9 10 8 9 10 10 9 9 9 9 9 8 8 9 11 9 11 13 7 10 10 11 11 11 11 11 11 11 11 11 11 11 7 6 5 4 3 3 3 3 4 3 3 4 2 4 2 4 2 4 6 8 7 6 7 5 7 9 8 7 7 6 6 7 8 8 8 9 9 9 8 7 7 7 5 9 11 11 13 13 13 12 12 9 11 11 11 10 10 9 10 9 10 10 9 9 10 10 10 11 10 11 11 10 9 9 10 10 9 13 9 9 10 11 11 11 11 11 11 11 11 11 11 10 6 5 5 3 3 3 3 3 4 3 3 3 3 3 3 4 2 6 8 8 7 7 6 4 7 9 8 7 5 6 7 8 8 8 7 5 6 9 8 7 6 7 8 8 10 9 11 11 13 14 14 12 12 11 11 10 10 9 9 9 8 8 7 7 8 8 9 10 9 10 10 10 9 9 10 11 11 10 10 11 10 11 11 11 11 11 11 11 11 11 11 8 5 5 5 4 3 3 3 3 3 3 3 4 4 3 3 3 3 8 9 8 7 7 6 4 7 9 8 7 5 5 5 7 8 7 7 5 3 6 6 7 7 6 7 7 8 8 8 9 9 11 10 8 12 11 11 11 10 9 9 9 8 9 9 8 7 8 8 10 9 10 10 8 7 7 9 10 10 10 9 11 11 11 11 11 10 10 10 9 9 8 8 7 6 6 5 4 4 4 4 6 3 5 6 8 9 8 3 1 5 8 9 9 7 7 7 4 7 9 7 7 7 5 7 8 9 9 8 7 5 6 7 9 7 5 5 8 7 9 10 10 10 11 9 8 12 11 11 11 10 10 9 9 9 8 7 8 7 6 4 7 8 4 9 9 8 7 7 9 11 11 11 12 8 8 8 7 7 7 7 7 7 8 9 7 5 4 5 4 5 4 5 7 6 8 11 11 10 10 9 3 7 9 9 9 7 7 7 6 7 9 9 9 8 7 8 9 10 10 9 9 9 9 9 9 8 5 6 8 8 11 12 13 13 13 11 7 12 11 11 11 11 11 10 8 7 8 9 11 10 8 5 5 5 6 7 7 6 6 9 9 9 10 8 11 5 6 7 6 7 7 9 10 10 10 11 9 6 4 5 5 4 4 5 6 9 10 11 10 7 9 10 8 6 9 9 8 7 7 7 6 7 9 9 9 9 8 8 8 9 9 9 9 10 10 10 9 9 8 9 8 9 12 12 13 13 13 12 8 11 11 12 11 12 12 11 10 9 9 9 10 11 9 9 8 8 8 9 8 6 5 7 9 9 9 8 8 7 6 7 8 9 11 11 11 11 11 11 10 6 4 5 5 5 5 6 6 10 10 9 9 5 4 8 11 8 8 9 8 7 7 7 7 7 10 10 10 9 9 9 9 9 10 10 10 10 9 10 10 10 10 9 8 11 12 13 13 13 13 12 8 13 10 12 12 12 12 11 10 10 10 10 9 9 10 10 10 11 11 10 9 9 8 9 10 9 8 8 6 8 9 10 11 12 11 12 11 11 11 11 11 7 5 6 5 4 5 7 8 10 9 11 11 9 7 4 10 10 8 9 8 7 7 7 7 8 10 10 10 10 10 9 9 9 9 9 9 9 9 10 10 10 11 8 8 12 12 13 13 13 13 13 6 13 11 11 11 12 12 11 11 10 10 10 10 10 10 10 11 11 12 11 11 11 10 10 10 10 10 9 9 11 11 12 12 12 12 12 11 11 11 11 11 8 6 5 5 5 7 9 9 11 12 11 11 9 10 6 9 10 8 9 8 6 7 7 8 9 10 10 11 11 11 11 11 10 10 10 10 10 11 11 10 9 11 4 10 12 13 13 13 13 13 13 9 10 14 14 12 12 12 12 12 11 11 11 10 10 10 11 11 12 12 12 12 12 11 11 11 12 12 12 11 12 12 12 12 12 12 12 11 11 11 11 11 8 7 5 5 3 8 10 9 11 11 12 11 9 11 8 8 11 8 8 9 7 7 7 8 9 10 11 11 11 11 11 11 11 11 11 11 11 11 11 10 9 7 6 10 12 13 13 13 13 12 13 12 8 13 13 12 11 13 13 12 12 12 12 11 11 11 11 11 11 11 12 12 12 11 11 12 12 12 12 12 12 12 12 12 12 12 12 11 11 11 10 11 10 6 5 5 5 8 10 10 12 11 11 12 10 10 10 8 11 8 9 9 10 6 7 8 9 10 10 11 11 11 11 11 11 11 11 11 11 11 11 10 8 7 9 11 12 13 13 13 13 12 12 12 10 9 14 11 11 12 13 13 13 12 12 12 12 12 12 12 12 12 12 12 12 11 11 12 13 12 12 12 12 12 12 12 12 12 12 11 11 11 11 11 10 7 4 6 6 9 9 5 11 11 11 11 10 10 10 9 12 8 8 9 13 6 7 9 9 10 11 11 11 11 11 11 11 11 11 11 11 11 10 9 9 8 9 11 12 13 13 13 13 12 12 13 12 8 12 13 11 12 13 12 12 12 12 12 12 12 12 12 12 12 12 12 12 12 11 12 13 11 12 13 12 12 12 12 12 12 11 11 11 11 10 11 10 9 4 7 9 10 9 4 5 10 11 11 11 11 9 10 11 8 8 9 7 10 8 8 9 10 10 11 11 11 11 11 11 11 11 11 11 11 8 9 9 9 10 11 12 13 12 13 12 12 12 12 12 12 8 13 13 11 12 13 12 12 13 12 12 12 12 12 12 12 12 12 12 12 11 12 13 9 12 13 12 12 12 12 12 12 11 11 11 10 10 10 10 10 7 8 10 10 10 10 6 8 10 11 11 11 9 10 10 8 8 9 6 7 10 9 9 10 11 11 11 11 11 11 11 11 11 11 10 9 8 8 9 10 11 12 13 13 12 12 12 12 12 12 12 12 11 7 13 13 12 12 12 12 12 12 12 12 12 12 12 12 12 12 12 12 11 12 12 10 13 13 12 12 12 12 12 12 11 11 11 10 10 10 10 10 8 9 11 11 10 11 9 7 9 11 12 10 9 11 9 8 9 9 6 6 9 8 9 10 11 11 11 11 11 11 11 11 11 11 9 10 9 8 10 11 12 12 13 12 12 13 12 12 12 12 12 12 12 10 8 14 12 12 12 12 12 12 12 12 12 12 12 12 12 13 12 12 11 12 10 12 13 12 12 12 12 12 12 11 11 10 11 10 10 10 10 10 9 9 12 11 10 12 11 8 8 10 12 10 10 11 8 9 8 8 7 7 9 8 9 9 10 9 10 11 11 11 11 11 10 10 10 10 8 9 10 11 12 12 13 12 12 12 12 12 13 12 11 11 12 12 9 8 13 12 12 12 12 12 12 12 12 12 12 12 12 13 12 12 11 10 11 12 12 12 12 12 12 12 11 11 11 10 10 10 10 10 10 9 9 10 12 11 11 12 13 9 8 10 12 9 10 10 8 9 8 8 6 7 9 8 9 10 10 10 10 10 10 9 9 9 10 11 10 8 8 10 11 11 12 13 13 12 12 13 12 12 12 12 11 12 12 11 11 10 9 10 12 12 12 12 12 12 12 12 12 12 12 12 12 11 11 12 12 12 12 12 12 12 12 12 11 11 11 10 10 10 10 10 10 9 9 10 12 10 11 13 13 10 8 11 11 9 11 9 8 8 8 8 6 6 9 8 9 9 9 10 10 10 10 10 10 10 11 10 8 8 9 10 11 12 12 13 13 13 13 13 12 12 12 12 11 12 13 12 11 11 10 9 8 10 12 13 12 11 11 11 11 11 11 11 11 12 13 12 12 12 12 12 12 12 12 11 11 11 10 10 10 10 10 10 10 9 9 10 11 10 11 12 12 9 10 12 10 10 11 8 8 8 8 8 7 6 9 8 9 9 10 10 10 10 11 11 11 11 10 8 7 9 9 9 10 11 12 12 12 13 13 13 12 12 12 12 11 12 12 12 11 10 12 11 10 9 9 10 10 10 11 11 11 11 11 11 12 12 13 12 12 12 12 12 12 12 11 11 11 11 10 10 10 10 10 9 9 9 9 10 11 11 12 11 9 10 12 11 10 12 10 8 8 8 8 8 7 6 9 8 9 10 10 10 11 11 11 11 11 11 9 8 8 9 8 8 9 11 11 12 12 12 12 12 12 12 11 11 11 11 12 11 11 9 11 12 12 11 11 11 12 12 12 12 12 12 12 12 12 12 12 13 12 12 12 12 12 12 12 11 11 10 10 10 10 10 10 10 9 9 9 11 10 10 10 10 10 11 11 10 11 11 8 8 8 8 8 8 7 6 8 9 9 10 10 11 11 11 11 11 11 10 9 8 9 9 7 7 7 9 10 11 11 10 10 10 11 11 11 10 10 10 11 11 11 9 12 12 12 11 11 12 12 12 12 12 12 12 12 12 12 12 12 12 12 12 12 12 12 12 11 11 11 11 10 10 10 10 9 10 9 9 9 10 9 9 11 11 11 11 11 11 11 10 8 8 8 8 8 8 7 6 8 8 9 9 10 10 11 11 11 11 10 10 9 9 9 10 8 5 6 7 8 9 10 9 10 9 9 8 8 7 7 7 9 9 10 11 12 13 12 11 11 12 12 12 12 12 12 12 12 12 12 12 12 12 12 12 12 12 12 11 11 11 11 10 10 10 10 10 10 9 9 9 10 10 11 11 12 11 10 11 11 11 10 8 8 8 8 8 8 8 7 6 8 8 9 9 10 10 11 11 11 11 10 10 10 9 9 10 9 5 4 5 7 8 9 9 9 8 7 8 9 9 9 8 9 10 11 12 12 13 13 12 12 11 12 12 12 13 12 12 12 12 12 12 12 12 12 12 12 12 11 11 11 11 10 10 10 10 10 10 10 9 9 9 10 10 12 12 11 12 11 11 11 11 9 8 8 8 8 8 8 8 7 6 7 8 8 9 10 10 10 10 11 11 11 10 10 10 9 9 9 7 6 4 5 6 7 8 8 7 9 9 10 10 10 11 11 11 12 12 12 13 13 12 12 12 12 12 12 12 12 12 12 12 12 12 12 12 12 11 11 11 11 11 11 11 10 10 10 10 10 10 10 9 10 8 11 10 11 12 12 12 12 11 11 9 8 8 8 8 8 8 8 8 6 6 7 9 8 8 10 10 10 11 11 11 11 10 10 10 9 9 9 9 8 6 6 6 6 8 8 8 9 10 11 11 11 11 11 11 11 12 12 13 13 13 12 12 12 12 12 12 12 12 12 12 12 12 12 12 11 11 11 11 11 11 11 11 10 10 10 10 10 10 9 9 9 8 11 11 11 12 12 12 12 12 9 8 8 8 8 8 8 8 8 8 7 6 6 8 8 8 9 10 10 11 11 11 11 10 10 10 10 10 10 10 9 8 8 9 9 10 10 9 10 11 11 11 11 11 11 12 12 12 12 12 13 13 13 12 12 12 12 12 12 12 12 12 12 12 12 12 11 11 11 11 11 11 11 10 10 10 10 10 10 9 9 9 9 8 11 11 11 11 11 12 12 10 8 8 8 8 8 8 8 8 8 8 7 6 6 8 8 8 9 9 10 11 10 11 11 11 10 10 10 10 10 10 10 10 10 10 11 10 10 9 10 11 11 11 11 11 11 12 12 12 12 12 12 13 13 13 12 12 12 12 12 12 12 12 12 12 12 12 11 11 11 11 11 11 11 10 10 10 10 10 10 9 9 9 9 5 10 11 11 11 11 11 10 8 8 8 8 8 8 8 8 8 8 8 6 7 6 8 9 8 9 9 10 10 10 10 11 10 10 10 10 10 11 11 11 11 12 11 11 11 10 10 10 11 11 11 11 11 12 12 12 12 12 12 12 13 12 12 12 12 12 13 12 12 12 12 12 12 12 11 11 11 11 11 11 11 11 10 10 10 10 10 10 9 9 9 9 1 7 10 10 10 10 9 8 8 8 8 8 8 8 8 8 8 8 8 6 7 6 7 8 9 9 9 9 10 10 10 10 10 9 9 10 10 10 11 11 11 12 12 11 11 10 10 10 11 12 12 12 12 12 12 12 12 12 12 12 12 12 12 12 12 12 12 12 12 12 12 12 12 12 11 11 11 11 11 11 11 10 10 10 10 10 10 10 9 9 9 7 3 3 8 9 9 8 8 8 8 8 8 8 8 8 8 8 8 8 8 6 6 6 7 8 9 9 10 9 10 10 10 10 9 8 8 9 9 9 9 9 10 10 10 11 12 11 11 11 11 12 12 12 12 12 12 12 12 12 12 11 11 12 12 12 12 12 12 12 12 12 12 12 12 12 12 11 11 11 11 11 10 10 10 10 10 10 10 9 9 9 9 7 4 4 8 8 8 8 8 8 8 8 8 8 8 8 8 8 8 8 8 6 6 6 6 8 8 9 10 9 9 10 10 10 9 6 5 7 7 7 7 8 9 9 9 8 9 9 9 9 10 10 10 10 11 12 12 12 12 12 11 11 11 11 12 12 12 12 12 12 12 12 12 12 12 11 11 11 11 10 10 11 10 10 10 10 10 10 10 9 9 9 8 9 3 6 8 8 8 8 8 8 8 8 8 8 8 8 8 8 8 8 8 6 6 6 6 8 8 9 9 9 9 10 11 10 10 7 4 5 5 5 5 5 7 8 8 8 8 8 8 9 9 9 9 9 9 9 9 10 10 10 10 10 9 10 10 11 12 12 12 12 12 12 12 12 12 11 11 11 11 11 10 11 10 10 10 10 10 10 10 9 9 8 8 10 5 7 8 8 8 8 8 8 8 8 8 8 8 7 8 7 8 8 8 6 6 6 6 7 8 8 10 9 9 10 11 11 11 9 9 8 7 8 8 8 8 8 8 8 8 8 8 8 8 8 8 8 7 7 7 7 8 8 8 8 7 7 8 11 12 12 12 12 12 12 12 12 12 11 11 11 11 11 11 10 11 10 10 10 10 10 10 9 9 8 9 9 6 7 8 8 8 8 8 8 8 8 8 8 7 8 8 8 8 7 8 6 6 6 6 6 8 8 9 10 10 10 10 11 11 11 11 9 9 9 9 9 10 11 11 11 11 10 11 11 10 10 11 10 10 11 10 10 9 9 9 10 10 9 9 10 12 12 12 12 12 12 12 12 12 11 11 11 11 11 11 11 10 10 10 10 10 10 9 9 8 8 9 9 6 8 8 8 8 8 7 8 8 7 8 8 8 8 8 7 7 7 8 6 6 6 6 6 7 8 8 10 10 10 10 11 11 11 11 10 8 8 9 9 9 10 10 11 11 11 11 11 11 12 11 11 11 11 11 11 11 11 11 11 12 12 11 11 11 12 12 11 11 12 12 11 12 11 11 11 11 11 11 11 10 10 10 10 10 10 9 9 8 8 9 8 7 8 8 8 8 8 8 8 8 7 8 8 7 7 8 7 7 8 7 6 6 6 6 6 7 8 8 9 10 10 10 11 11 11 11 10 9 9 8 9 9 9 10 10 10 10 10 10 10 11 11 11 11 11 11 11 11 12 12 12 12 12 12 11 12 12 12 11 11 12 12 11 11 11 11 11 11 11 11 10 10 10 10 10 10 10 9 8 8 9 10 8 7 8 8 7 8 8 8 8 8 7 7 7 7 8 7 8 7 8 7 6 6 6 6 6 6 7 8 9 9 10 10 10 11 11 11 10 10 9 9 8 8 8 8 8 9 9 10 10 10 11 11 11 11 11 12 12 12 12 12 12 12 13 12 12 12 12 12 12 11 11 11 11 11 11 11 11 11 11 10 10 10 10 10 10 9 9 8 8 8 9 10 7 7 8 8 8 8 7 8 7 8 7 7 8 7 7 7 7 7 7 7 6 6 6 7 6 6 7 7 8 9 9 9 10 10 11 10 10 10 10 10 9 9 9 9 8 7 8 8 8 9 10 10 11 11 12 12 12 12 12 12 12 12 13 12 12 12 12 11 12 12 11 11 11 11 11 11 10 11 10 10 10 10 10 10 10 9 9 8 8 9 9 10 7 7 8 7 8 7 8 7 7 8 7 7 7 7 7 7 7 7 7 7 6 6 6 6 6 6 6 7 8 8 9 9 9 9 10 10 10 10 10 10 10 10 10 10 10 10 9 9 9 10 10 11 11 11 11 12 12 12 12 12 12 12 12 12 12 12 12 11 12 12 11 11 11 11 11 11 10 11 10 10 10 10 10 9 9 9 8 8 9 9 10 9 7 8 7 7 7 7 8 7 7 7 7 7 7 7 7 7 7 7 7 7 6 6 6 6 6 6 6 6 8 8 8 9 9 9 10 10 10 10 10 10 10 10 10 10 10 10 10 10 10 11 11 11 11 11 11 12 12 12 12 12 12 12 12 12 12 12 11 11 11 11 11 11 11 11 11 10 10 10 10 10 10 10 10 9 9 8 8 9 10 10 10 9 7 7 8 7 8 7 8 7 7 7 7 7 7 7 7 7 7 7 7 7 6 6 6 6 6 6 6 6 7 8 8 8 9 9 10 10 10 10 10 10 10 10 11 11 11 11 11 11 11 11 11 11 11 12 11 12 12 12 12 12 12 12 12 12 12 12 11 11 11 11 11 11 10 11 10 10 11 10 10 10 10 9 9 9 8 8 9 9 10 9 10 8 7 8 7 7 7 7 7 7 7 7 7 7 7 7 7 7 7 7 7 7 6 6 6 6 6 6 6 6 6 7 8 8 9 9 9 10 10 10 10 11 11 11 11 11 12 12 12 12 12 11 12 12 11 12 11 12 11 12 11 12 12 12 12 11 11 12 11 11 11 11 11 11 11 10 10 10 10 10 10 10 9 9 9 9 8 8 9 10 10 10 10 8 6 8 7 7 7 7 7 7 7 7 7 7 7 7 7 7 7 7 7 7 6 6 6 6 6 6 6 6 6 7 7 8 8 8 9 10 10 10 10 11 11 11 12 12 12 12 12 13 12 12 12 12 12 12 12 12 12 12 12 12 12 12 12 11 11 11 11 11 11 11 11 10 11 10 10 10 10 10 10 10 9 9 8 8 8 9 10 10 10 10 10 8 7 7 7 7 7 7 7 7 7 7 7 7 7 7 7 7 7 7 7 7 6 6 6 6 6 6 6 6 7 6 7 7 8 8 9 9 10 10 11 11 11 11 12 12 12 12 12 12 12 13 13 13 13 13 12 12 12 12 12 12 12 12 11 11 11 11 11 11 11 11 10 10 10 10 10 10 10 9 9 9 9 8 8 8 9 10 10 10 10 10 10 8 7 8 7 7 7 7 7 7 7 7 7 7 7 7 7 7 7 7 7 7 6 6 6 6 6 6 6 6 6 5 7 8 7 8 8 9 9 10 10 11 11 11 12 12 12 12 12 12 13 13 13 13 13 13 13 12 12 12 12 12 11 11 11 11 11 11 11 10 11 11 10 10 10 10 10 10 10 9 9 9 8 8 8 9 10 10 10 10 10 10 9 8 7 7 7 7 7 7 7 7 7 7 7 7 7 7 7 7 7 7 7 7 6 6 6 6 6 6 6 6 6 4 11 13 7 7 8 8 9 9 10 10 11 11 11 12 12 12 12 12 12 12 12 13 13 13 12 12 12 12 11 11 11 11 11 11 11 11 10 10 10 10 10 10 10 10 9 10 9 9 8 8 8 8 9 10 10 10 10 10 10 10 9 8 7 7 7 7 7 7 7 7 7 7 7 7 7 7 7 7 7 7 7 7 6 6 6 7 6 6 6 7 5 6 13 14 8 7 7 8 9 9 10 10 11 11 11 11 12 12 12 12 12 12 12 12 12 12 12 12 12 12 11 11 11 11 11 11 11 10 10 10 10 10 10 10 9 9 9 9 9 8 8 8 8 9 9 10 10 10 10 10 10 10 8 12 6 7 7 7 7 7 7 7 7 7 7 7 7 7 7 7 6 7 7 7 6 6 6 6 6 6 6 6 4 10 13 13 8 8 7 8 8 9 9 9 10 10 10 11 11 11 11 11 12 12 12 12 12 12 12 11 11 11 11 11 11 11 11 11 10 10 10 10 9 9 9 9 9 9 9 8 8 8 8 8 8 9 10 10 10 10 10 10 10 10 8 14 7 6 7 7 7 7 7 7 7 7 7 7 7 7 7 7 7 7 7 7 6 6 6 6 6 6 7 5 6 13 13 13 8 8 7 7 7 8 8 9 9 10 10 10 11 11 10 10 11 11 11 11 11 11 11 11 11 10 11 11 11 10 10 10 10 10 9 10 9 9 9 9 9 9 8 8 8 8 8 9 9 9 10 10 10 10 10 10 10 10 7 14 12 5 7 7 7 7 7 7 7 7 7 7 7 7 7 7 6 7 7 6 6 6 6 6 6 6 7 4 9 13 13 13 8 8 8 6 7 7 7 8 9 9 9 10 10 10 10 9 10 10 11 10 11 11 10 11 10 11 11 10 10 10 10 10 10 9 9 9 9 9 9 8 8 8 8 8 8 8 8 9 9 10 10 10 10 10 10 10 10 10 7 13 14 7 6 7 7 7 7 7 7 7 7 7 7 7 7 7 6 7 7 7 6 6 6 7 7 8 8 7 12 13 13 14 8 8 8 7 6 7 8 7 8 8 9 9 9 10 9 9 9 10 10 10 10 10 10 10 10 10 10 10 10 9 9 9 9 9 9 8 8 8 8 8 8 8 8 8 8 8 9 9 10 10 10 10 10 10 10 10 10 10 6 12 14 10 5 7 7 7 7 7 7 7 6 7 6 7 7 7 6 7 6 7 7 7 8 9 8 9 11 12 12 13 13 14 9 9 8 8 6 6 7 7 7 8 8 8 9 9 9 9 8 9 9 9 9 9 9 9 9 9 9 10 9 9 9 8 8 8 8 8 8 8 8 8 8 8 9 9 9 9 9 10 10 10 10 10 10 10 10 10 10 10 6 12 13 12 7 7 7 7 7 7 7 7 7 7 6 7 6 7 6 7 6 7 8 8 7 10 12 13 13 12 12 13 13 14 9 9 8 8 7 6 6 7 7 7 7 7 8 8 8 8 8 8 8 8 8 9 9 9 9 9 9 9 9 8 8 8 8 8 8 8 8 8 9 8 9 9 9 9 9 9 9 10 10 10 10 10 10 10 10 10 10 11 5 12 13 12 11 8 7 7 8 7 7 7 6 7 6 6 6 7 6 6 7 6 