P2
92
112
255
104 109 103 109 107 109 109 108 109 107 112 107 110 112 107 113 100 72 53 60 74 92 96 87 88 92 85 88 72 84 86 99 81 98 100 94 100 88 86 95 83 88 91 92 88 125 102 73 81 87 72 79 67 77 64 45 60 49 55 50 56 63 53 45 45 52 17 52 83 88 84 88 102 100 90 92 93 90 83 101 111 108 115 110 114 111 111 110 111 110 110 110 102 106 105 107 106 108 107 107 107 111 104 112 108 110 108 98 75 44 56 63 73 83 91 88 81 88 85 86 82 68 109 129 124 113 175 153 149 110 104 110 96 75 83 91 85 96 104 97 94 87 80 82 74 69 72 62 58 56 55 52 54 59 61 47 61 49 32 34 86 84 76 84 67 56 65 77 75 90 83 86 104 109 111 111 112 113 111 109 112 112 109 111 107 107 104 109 106 108 107 109 107 107 110 108 110 112 112 86 63 44 53 71 71 74 89 88 90 93 100 89 110 89 92 130 131 114 118 159 154 156 140 117 86 93 78 72 75 86 99 85 103 106 79 81 74 63 65 66 60 62 52 60 56 51 44 58 71 64 46 29 68 63 76 82 63 46 46 46 68 105 98 95 110 103 107 110 115 109 111 110 112 110 110 110 109 105 103 112 105 107 112 105 109 107 110 108 107 116 105 59 45 37 54 69 75 77 87 94 93 75 104 111 117 136 96 93 127 117 126 99 122 132 137 164 127 82 94 81 79 58 105 101 93 91 98 91 79 53 46 47 54 64 62 64 59 50 52 78 64 63 64 58 47 72 64 93 68 45 48 50 67 104 98 99 110 106 105 107 111 112 111 113 111 112 109 111 104 106 105 110 107 108 109 108 106 109 111 106 109 109 86 46 35 40 49 66 66 70 79 80 85 90 93 112 101 121 112 100 91 111 128 118 110 116 101 128 165 151 108 94 88 79 73 75 94 100 85 89 91 79 68 63 44 50 40 53 71 69 78 68 63 41 42 53 30 57 91 85 66 42 46 52 79 84 96 104 110 98 110 104 110 112 113 112 115 107 113 109 104 109 106 107 105 107 108 110 104 113 101 102 106 106 70 46 48 42 60 71 59 57 69 75 76 115 103 98 83 101 104 106 104 90 95 120 130 126 122 101 97 142 151 133 105 86 79 83 81 69 82 105 70 83 92 74 62 47 54 51 44 60 58 55 42 45 41 45 41 57 97 81 60 46 50 70 94 70 91 106 110 105 111 108 112 110 111 111 110 110 109 112 106 109 107 107 109 106 108 107 109 111 78 57 69 73 59 50 45 59 73 75 63 59 63 70 104 100 98 112 123 89 92 98 99 103 97 100 104 107 118 117 107 99 120 139 148 145 114 91 90 83 67 73 84 81 78 89 88 91 52 48 54 61 48 45 54 53 51 49 40 77 90 74 63 45 68 85 86 87 89 108 107 107 109 107 118 109 110 113 112 111 112 109 109 105 109 106 105 108 108 111 112 102 61 48 52 51 50 44 56 71 71 63 73 73 78 86 111 112 101 110 107 118 114 116 88 92 92 103 98 94 85 102 108 117 116 114 118 141 138 144 134 112 94 88 72 66 68 73 69 86 89 85 61 50 59 55 57 40 46 43 49 77 81 62 73 61 85 81 84 93 93 109 107 109 112 103 117 107 110 110 112 110 110 111 108 104 107 108 106 109 107 111 107 74 47 47 50 44 47 48 55 71 74 58 62 77 73 97 119 105 109 125 119 107 106 113 121 107 90 100 99 99 96 84 86 89 105 113 112 109 113 131 127 125 115 116 114 93 87 75 62 67 66 81 90 73 61 68 52 58 60 43 63 75 64 60 63 79 71 69 66 82 96 99 109 111 109 108 107 112 111 112 109 114 107 113 107 106 109 108 110 107 108 113 101 63 59 54 40 42 57 47 44 67 67 65 66 73 72 69 113 93 92 102 119 118 119 107 100 108 108 113 108 111 106 98 90 80 75 79 75 82 100 100 111 105 100 94 94 90 88 102 97 88 88 81 84 84 82 78 67 80 63 60 61 73 30 55 64 78 65 65 77 91 93 102 108 108 110 111 106 113 110 112 111 114 108 113 103 108 105 108 107 106 109 109 105 78 59 58 50 47 69 53 49 40 64 55 53 78 81 75 85 97 87 98 95 98 116 122 110 93 95 92 96 99 97 109 90 92 88 68 68 52 62 63 74 82 91 95 87 87 78 76 81 84 77 71 71 67 67 62 65 71 72 78 57 58 30 43 60 63 82 87 91 100 98 109 107 112 111 113 107 113 111 112 112 113 111 113 105 108 106 111 105 104 112 101 97 65 71 61 59 66 49 74 49 47 42 53 54 67 74 81 75 77 80 92 99 99 110 112 111 120 117 123 103 104 96 88 86 85 97 90 88 78 71 67 59 62 60 64 69 63 62 63 70 72 68 72 64 69 71 70 78 91 83 102 81 61 39 37 42 66 85 59 85 88 104 103 99 102 108 109 110 107 107 115 113 109 113 109 106 105 109 106 106 102 99 78 76 66 64 68 50 61 55 70 71 47 41 41 32 63 86 80 71 73 72 68 87 65 78 86 94 90 99 106 100 103 97 100 97 91 90 80 76 74 78 72 78 83 65 73 72 73 83 73 71 89 80 86 91 98 101 105 115 113 115 113 114 98 68 45 36 57 94 55 49 70 91 105 110 103 104 106 108 106 107 116 112 108 111 112 105 105 105 104 106 96 89 62 75 69 64 50 42 59 70 56 67 55 50 36 33 30 58 62 66 66 70 80 84 75 69 69 71 70 70 79 82 80 85 80 80 81 81 75 75 77 79 73 83 89 86 82 79 80 93 80 84 98 106 112 121 124 135 134 132 134 134 127 125 123 109 59 44 59 72 66 39 63 57 76 97 99 101 109 106 108 103 106 113 111 113 112 103 95 81 80 75 65 65 53 61 72 46 45 35 67 64 65 65 54 53 61 41 34 36 34 48 58 69 77 79 82 75 87 88 78 82 86 71 68 63 63 59 65 71 71 74 70 74 73 76 77 84 78 94 95 102 104 105 120 136 140 149 138 153 146 145 150 147 138 137 135 124 102 60 58 56 66 35 54 57 54 61 92 102 106 102 112 111 109 109 114 112 113 82 75 57 61 45 45 43 60 42 60 53 50 33 56 54 60 62 57 50 82 71 53 48 31 41 51 51 60 74 74 69 78 88 76 80 82 77 83 80 77 81 86 79 78 85 87 86 89 90 86 91 105 116 118 123 133 130 149 154 161 164 157 158 161 157 164 158 155 148 148 131 126 97 69 40 69 41 41 52 53 72 47 93 110 97 112 111 109 107 109 113 110 62 62 40 52 58 46 44 37 60 38 54 51 55 42 43 50 51 47 46 60 73 73 68 51 30 41 39 45 58 67 69 72 77 81 87 86 88 84 83 89 87 88 90 96 95 109 111 112 108 113 123 131 135 135 146 148 151 164 165 173 173 170 169 171 170 166 168 167 160 155 147 135 125 99 51 51 52 37 40 54 71 61 64 93 111 98 108 111 111 107 111 115 63 58 40 36 48 70 69 63 50 60 54 42 58 61 39 36 48 51 48 43 60 67 60 58 53 53 51 43 39 40 60 67 72 77 77 79 78 89 91 95 103 102 110 112 120 124 129 128 133 144 144 143 155 158 164 164 165 171 172 178 179 176 171 177 176 175 172 169 168 165 155 151 132 130 84 54 51 36 42 39 64 72 64 72 93 103 106 113 114 112 109 108 55 47 40 39 31 40 45 48 57 53 47 47 41 47 44 32 36 45 55 50 56 68 70 66 59 55 55 49 41 60 59 62 66 80 85 96 97 98 98 116 110 118 115 122 123 136 144 155 161 162 159 163 172 166 168 169 179 176 174 179 177 181 178 182 177 178 179 172 170 172 162 161 142 138 117 89 51 46 53 45 48 65 69 68 68 100 104 112 110 110 113 107 41 45 59 42 27 32 41 36 39 38 54 40 46 52 46 42 34 34 40 45 46 49 66 61 65 79 72 72 78 87 83 80 81 91 108 110 106 111 114 131 127 132 137 143 150 161 167 175 180 177 175 172 177 170 171 175 184 183 183 183 183 185 182 185 183 182 182 177 173 171 166 160 151 139 126 122 84 46 52 57 52 58 62 66 69 80 102 108 111 112 112 109 40 59 55 28 37 36 36 47 48 36 44 38 44 51 53 52 40 33 34 40 35 40 46 49 53 56 53 61 77 85 94 104 110 112 108 113 123 136 145 153 158 158 159 167 167 180 186 183 181 184 181 180 181 178 178 182 188 186 187 185 191 188 188 188 187 188 188 180 177 169 168 161 155 145 136 129 120 69 56 47 60 64 66 49 71 66 86 101 116 107 114 108 51 47 36 31 40 44 44 36 54 53 42 47 46 52 54 63 57 40 44 44 44 44 50 44 45 58 74 81 106 117 120 125 120 117 125 130 148 164 172 170 169 168 173 177 182 190 187 186 185 187 182 185 185 183 185 184 189 187 186 189 192 189 191 191 189 189 188 183 181 176 174 166 159 151 147 128 134 103 67 63 53 51 71 43 57 61 66 78 111 113 110 115 69 33 30 35 38 36 22 47 80 87 82 55 50 59 64 66 63 58 59 59 61 64 54 67 83 97 112 124 129 133 136 143 137 135 154 172 180 186 187 185 187 184 183 185 188 192 186 186 188 186 186 187 186 191 189 189 187 187 186 192 194 191 190 192 192 190 189 185 181 180 174 168 160 158 144 138 138 130 71 55 62 61 53 50 35 62 58 51 82 117 109 115 45 26 31 29 25 28 21 85 106 102 92 87 83 85 86 77 73 79 85 80 79 85 103 128 139 142 149 164 169 174 173 171 157 169 188 194 192 193 192 195 195 193 189 192 193 192 196 192 194 186 191 190 187 187 193 194 192 191 191 193 195 191 192 198 194 193 191 185 182 179 176 171 162 158 147 146 136 138 101 59 65 67 57 62 18 67 53 43 45 97 117 113 26 28 24 27 23 26 61 96 94 99 111 88 118 119 109 103 110 119 116 124 132 138 151 164 163 163 158 159 159 169 171 178 187 187 199 203 202 200 199 199 200 197 190 191 196 194 198 196 196 196 194 190 190 189 191 194 195 193 194 189 194 193 190 197 197 192 192 185 179 178 175 173 162 161 147 146 138 142 109 84 67 67 60 67 43 31 62 34 45 53 108 118 22 22 21 28 26 44 79 92 96 104 95 115 134 128 122 118 124 125 136 159 164 165 170 173 175 177 181 180 174 179 186 189 189 192 198 200 201 201 201 201 198 200 192 194 195 196 201 198 197 198 197 194 194 192 193 195 196 198 194 194 193 193 193 197 197 193 191 184 175 178 175 169 162 159 152 145 141 139 115 96 66 60 66 62 66 22 52 39 57 32 75 119 18 22 21 31 32 58 77 81 91 84 95 121 130 129 137 131 127 134 143 167 171 177 174 174 178 180 186 187 184 187 194 195 186 194 199 199 201 201 201 201 198 198 198 198 198 200 199 199 198 197 200 196 200 194 196 197 198 200 197 196 193 194 195 198 199 194 186 180 173 177 176 171 161 159 155 147 143 144 120 108 74 54 54 73 69 34 34 37 47 66 32 113 20 19 28 28 47 67 51 85 87 96 120 133 135 137 144 146 137 140 147 169 174 176 174 176 173 184 187 189 190 184 192 197 192 193 198 199 202 202 201 202 200 199 199 199 198 201 199 195 198 198 197 200 199 198 196 196 198 197 199 192 190 194 193 201 203 192 177 176 179 178 176 172 169 155 165 149 142 143 128 109 77 68 57 54 73 63 22 32 45 88 37 62 23 21 22 40 51 51 63 86 106 123 139 129 138 140 139 148 142 141 152 161 172 181 174 176 179 181 183 189 186 191 190 195 196 195 194 199 199 202 201 201 202 199 195 197 197 197 198 195 196 197 196 195 198 196 193 195 195 195 193 190 192 195 193 198 201 191 176 167 172 178 175 167 166 157 159 161 144 144 128 109 84 58 57 52 53 79 46 30 25 68 78 20 22 22 31 52 48 55 72 111 137 122 114 113 121 135 134 142 145 146 146 158 171 175 177 174 178 183 179 186 187 187 192 195 196 194 197 195 197 199 200 201 201 200 197 194 197 197 201 198 198 199 195 196 199 198 198 197 197 196 193 193 195 196 197 200 194 190 182 174 179 179 176 166 165 155 162 153 147 145 124 113 92 54 65 49 35 54 71 34 22 33 69 45 20 23 41 51 45 67 85 108 90 83 96 116 122 122 127 137 141 142 148 154 171 171 176 177 182 181 181 184 187 189 192 195 195 194 196 200 195 200 201 202 201 200 202 198 197 198 202 198 198 201 197 199 199 196 194 198 197 200 195 193 196 194 196 195 195 186 182 178 184 179 171 169 165 159 164 154 150 145 120 114 90 62 64 59 42 39 56 49 16 29 38 50 24 25 47 41 53 62 69 74 66 67 104 110 113 113 121 135 143 138 150 153 165 172 177 176 185 180 181 181 189 189 191 190 192 195 198 198 200 202 201 201 202 202 203 202 195 195 202 198 200 197 198 198 200 194 196 197 196 199 195 193 201 196 199 192 192 183 182 179 183 179 168 165 163 159 159 157 151 144 123 115 99 66 60 58 61 29 55 42 28 22 24 36 21 39 35 50 51 53 54 57 64 80 100 102 104 104 123 129 141 140 149 156 159 169 175 179 181 182 180 186 191 188 190 187 191 192 197 199 201 201 200 200 202 202 202 203 197 194 201 199 198 197 197 195 198 198 195 198 194 199 194 193 199 194 196 191 189 184 182 178 182 176 168 169 162 161 157 153 154 147 119 113 102 63 61 53 61 49 46 46 25 22 24 21 25 41 41 42 59 52 42 55 75 87 78 91 93 100 117 127 139 137 153 156 162 164 171 180 177 183 186 186 189 191 189 191 193 194 198 199 199 201 200 201 202 201 201 201 198 199 200 196 197 194 197 195 198 197 197 198 196 196 197 195 196 196 196 189 188 185 186 180 180 177 176 165 164 165 149 155 151 149 117 118 99 65 50 59 53 54 46 47 29 22 42 29 38 39 53 43 47 54 50 67 72 68 81 81 93 97 114 132 139 131 150 153 155 164 171 177 177 179 185 185 191 190 191 193 192 197 196 202 200 200 203 202 201 201 201 201 201 200 196 195 197 195 195 194 197 196 196 200 197 197 199 197 198 199 195 194 193 190 189 187 185 183 178 171 171 165 157 147 150 145 121 114 106 62 50 55 49 51 50 49 27 30 48 47 34 48 48 35 46 57 51 57 52 70 76 78 87 98 112 122 132 134 139 150 151 160 167 174 179 182 185 183 187 192 190 194 192 195 196 199 201 201 201 202 202 202 205 202 198 200 200 195 196 195 196 197 199 196 196 198 199 198 200 198 201 196 196 195 193 192 190 190 187 181 178 172 167 164 160 150 152 139 117 116 107 69 54 43 47 49 46 47 33 24 56 79 33 51 37 40 41 51 54 56 57 63 66 73 82 103 109 123 129 129 133 148 150 157 164 175 182 181 188 184 190 193 192 196 194 197 199 200 202 203 202 203 202 203 203 201 198 199 198 195 193 194 197 195 199 199 196 198 200 198 199 198 201 197 195 197 194 192 191 190 187 185 181 175 167 167 161 154 153 138 119 112 111 71 51 47 38 51 40 46 37 21 49 105 35 46 32 50 47 57 47 58 56 53 60 73 83 98 106 119 130 140 131 144 154 158 166 179 184 182 189 187 189 195 196 197 195 197 200 201 201 205 203 203 202 203 201 202 201 197 198 192 193 194 193 194 198 200 200 202 198 199 197 199 201 199 195 194 194 191 193 187 186 187 183 172 163 164 154 151 149 143 119 113 113 72 48 41 43 45 38 49 44 22 23 94 34 39 38 49 36 43 51 47 50 51 56 77 84 91 105 126 139 139 137 142 151 155 172 177 186 181 185 188 188 190 193 195 194 198 197 197 198 201 199 202 203 202 202 202 203 199 199 192 195 196 194 194 197 200 201 201 198 199 201 199 204 200 196 196 192 190 190 190 183 186 187 169 163 166 152 149 147 145 124 112 113 79 41 38 41 48 38 39 51 22 16 50 38 38 34 44 42 51 52 53 40 51 57 72 74 93 106 125 143 139 135 147 150 155 173 181 179 183 183 184 188 190 187 194 189 191 193 193 196 199 197 199 202 201 203 205 205 200 192 196 196 195 197 195 198 199 202 203 197 200 201 199 204 199 196 190 189 189 184 181 179 182 178 167 168 164 156 148 146 138 127 109 112 89 35 33 40 45 40 38 42 34 21 25 37 34 33 42 47 52 50 43 44 43 49 79 75 96 111 127 141 142 137 150 156 156 171 180 178 178 185 181 187 188 186 187 184 188 192 184 190 191 186 192 193 198 198 200 200 191 186 196 198 198 197 194 194 201 201 203 200 195 197 190 193 191 180 177 170 172 168 164 170 167 156 154 152 150 152 150 146 138 128 116 112 92 40 32 38 42 43 34 39 37 27 22 31 31 37 38 47 58 50 48 43 43 48 68 77 107 124 130 138 141 137 148 155 160 172 179 180 180 184 180 185 184 181 183 184 186 189 180 182 186 181 184 182 181 186 189 186 184 180 192 192 198 192 190 192 193 195 197 193 184 190 177 174 178 160 155 148 140 139 143 141 129 126 123 127 123 120 135 129 123 122 116 109 94 32 39 35 44 48 32 35 36 29 29 30 30 42 33 40 50 55 55 43 40 51 67 91 113 133 133 134 141 137 141 157 158 169 176 171 162 175 165 166 175 176 176 164 162 166 162 159 168 163 163 171 162 169 182 178 178 176 187 184 190 183 185 184 184 185 189 184 174 172 167 157 165 141 148 128 115 116 125 110 111 110 105 114 125 110 117 110 108 98 107 110 97 24 39 42 50 55 27 36 28 36 42 29 33 43 28 40 45 54 52 47 37 45 73 99 117 134 137 135 137 142 139 152 162 172 164 151 154 161 142 145 166 163 149 134 124 126 129 119 123 122 124 140 144 152 168 170 170 175 177 178 176 175 177 175 182 176 183 178 168 166 157 143 145 133 128 111 102 98 89 89 94 98 94 105 108 116 107 97 90 83 88 116 89 33 31 41 54 61 31 31 26 37 44 31 28 44 27 34 42 72 47 44 39 53 71 100 113 137 138 135 135 141 136 146 158 150 136 138 137 124 132 133 140 137 131 116 107 108 96 101 96 102 102 103 117 133 142 149 156 166 171 174 173 171 169 160 168 171 172 170 165 162 147 130 129 124 115 100 91 87 79 81 92 92 95 107 99 113 102 98 102 97 85 108 82 29 35 34 56 57 33 25 29 32 74 29 30 36 30 26 47 74 58 39 55 50 69 99 117 136 136 142 132 143 132 129 129 120 121 120 106 111 123 126 123 117 106 106 97 88 94 89 87 87 94 100 101 110 126 125 145 152 163 170 172 170 168 164 164 172 174 160 158 161 140 120 120 112 108 102 94 107 108 117 126 131 134 135 136 137 132 114 133 113 85 92 74 29 30 36 46 56 25 32 18 48 95 30 29 33 29 29 35 67 71 54 55 66 70 90 120 133 134 143 133 145 136 122 125 121 127 131 117 114 107 118 128 126 124 133 132 131 130 127 118 106 98 106 104 111 120 123 136 149 156 170 173 175 174 173 169 179 182 170 158 146 129 115 114 116 118 119 119 122 125 132 141 145 146 157 153 160 154 145 138 136 98 86 73 29 31 28 41 40 29 26 27 44 101 27 24 35 34 30 29 50 60 63 67 71 60 86 123 132 134 134 135 139 136 133 138 130 133 141 132 141 137 144 153 154 151 145 137 137 136 136 142 146 139 134 130 122 123 121 130 140 153 168 176 181 182 182 179 186 189 175 156 129 115 121 131 134 134 125 121 133 129 132 133 134 124 132 134 153 149 151 138 137 112 92 70 29 26 30 38 29 29 27 28 31 77 25 24 27 34 28 28 37 50 66 70 77 54 82 124 127 139 134 137 139 136 134 144 138 139 146 150 158 152 145 136 128 126 122 126 125 128 126 128 120 142 158 158 152 138 123 127 135 153 166 183 185 187 191 190 189 194 178 148 117 122 136 145 132 127 132 130 122 112 99 105 103 112 126 120 114 138 144 134 135 114 104 65 43 18 27 36 28 24 32 32 45 85 26 24 26 33 22 31 40 31 56 67 67 45 83 126 122 140 138 132 136 134 127 133 138 137 150 152 152 132 112 116 111 97 82 89 90 90 123 142 136 107 123 159 162 155 137 127 127 150 174 188 192 193 196 195 194 196 179 136 114 135 142 131 121 128 136 92 81 75 79 69 110 119 90 111 120 91 134 130 129 113 108 74 38 24 23 34 26 27 43 64 95 104 30 23 20 29 24 26 42 22 51 69 61 47 90 133 128 139 144 128 143 138 131 137 136 142 145 142 113 102 100 108 128 103 83 119 93 119 88 154 138 136 117 118 149 153 151 131 124 139 169 189 198 197 198 197 195 192 172 121 122 141 124 126 118 163 142 86 61 148 70 105 63 189 166 79 107 95 112 127 124 116 116 76 40 25 26 35 34 31 63 94 108 105 27 21 21 29 22 24 41 24 40 68 54 54 94 132 132 141 146 132 146 142 145 133 137 137 141 112 105 95 93 159 143 112 91 62 162 87 91 162 195 133 123 128 128 148 151 143 132 132 164 190 198 200 200 200 200 195 170 115 137 143 131 115 141 206 121 82 34 102 53 68 62 160 185 131 81 99 107 127 122 117 121 84 37 30 27 23 51 29 92 106 105 109 25 22 26 25 32 21 42 13 45 59 48 42 104 131 138 141 143 138 135 147 155 150 145 143 129 108 104 95 114 179 143 114 115 51 52 111 98 168 205 161 121 122 132 148 151 141 145 141 156 189 199 201 202 203 199 197 171 123 160 151 128 138 167 204 142 81 83 41 53 88 80 161 158 129 111 84 114 132 119 114 126 96 31 35 42 49 74 59 104 107 108 105 36 37 35 32 38 28 45 28 27 57 42 48 111 131 141 146 143 145 131 145 143 142 139 139 136 111 106 135 141 169 168 118 129 106 102 127 124 189 200 178 156 164 133 156 180 151 150 148 158 189 198 202 204 202 201 198 176 132 167 137 147 139 155 178 170 102 98 73 91 94 127 162 140 133 121 102 121 133 124 119 122 106 28 52 53 63 104 77 103 107 105 106 35 44 47 43 47 39 39 37 21 57 48 50 117 131 139 144 147 149 144 141 144 141 138 138 133 145 134 146 170 173 181 165 130 124 122 129 165 192 189 166 156 167 148 155 188 187 163 164 156 182 190 198 204 203 201 197 183 137 158 171 173 160 156 168 177 163 144 126 127 136 160 165 153 143 112 137 124 116 118 123 125 112 29 62 55 77 126 91 96 109 102 108 52 49 50 70 70 58 45 52 28 35 77 55 116 134 135 145 136 162 154 148 137 132 139 150 157 177 167 144 148 161 171 190 194 180 182 177 182 181 177 182 178 185 189 191 190 197 181 178 160 179 184 195 203 202 201 201 187 137 152 159 176 175 170 167 170 164 168 166 165 149 156 145 148 130 122 150 140 121 128 129 125 116 53 87 73 98 126 87 107 101 101 109 55 58 62 75 80 87 74 66 39 38 61 61 123 131 137 145 138 153 154 163 155 162 155 159 177 184 176 169 166 162 160 165 164 165 172 181 177 175 171 162 176 179 191 195 197 195 188 186 168 176 185 193 199 202 200 200 185 143 142 159 161 167 164 163 160 163 162 168 174 159 172 153 148 141 138 146 142 145 133 136 131 117 85 111 85 121 127 88 105 106 106 109 68 75 69 92 98 94 88 80 43 32 54 56 113 134 133 137 147 150 165 167 161 175 177 167 174 185 184 180 177 175 181 179 184 176 175 163 159 164 170 181 187 186 188 195 189 190 191 183 170 177 182 187 194 203 198 200 184 145 136 164 168 164 170 169 163 162 152 146 149 147 151 148 142 145 152 152 147 147 143 141 129 116 115 130 95 151 122 89 106 106 105 107 94 95 82 111 124 118 102 85 51 43 54 56 106 133 132 141 144 160 165 174 166 175 190 178 175 171 175 174 171 165 153 148 153 154 160 170 178 181 181 188 188 186 194 196 192 187 187 183 177 178 177 186 193 202 202 201 186 142 139 154 178 174 172 167 162 169 162 159 150 146 141 144 145 148 151 147 150 151 148 142 137 110 133 141 105 163 108 94 105 106 104 108 119 118 91 127 139 137 116 80 49 46 64 58 99 130 135 141 145 161 165 172 178 179 188 186 173 168 178 175 174 165 165 169 171 181 180 183 186 187 184 190 191 195 201 197 192 189 186 185 183 177 174 183 191 205 202 200 190 146 137 147 170 179 183 181 163 164 165 154 159 155 149 155 154 153 159 155 144 155 148 142 142 108 145 148 115 159 85 98 107 105 104 109 133 130 103 128 145 139 119 82 40 51 60 62 104 124 139 135 144 153 164 170 180 190 186 191 183 179 173 177 179 178 183 182 182 185 182 184 189 190 193 193 200 200 200 197 189 188 185 182 184 175 169 172 187 202 203 201 193 163 132 148 160 164 183 191 183 175 174 159 150 153 150 154 154 157 154 155 159 163 150 140 139 107 151 148 144 127 86 108 106 107 104 109 146 137 109 140 150 140 124 79 41 57 60 74 105 122 129 130 141 153 160 171 176 186 189 192 191 183 181 184 188 188 187 188 182 190 189 190 194 197 198 202 203 201 194 192 186 186 183 182 182 174 170 172 175 208 205 200 194 168 128 143 153 152 170 186 187 183 185 180 173 172 164 163 163 167 166 165 166 168 158 146 141 100 163 156 157 97 95 105 107 105 105 107 172 148 112 150 153 141 119 69 41 80 69 85 106 115 121 125 137 151 156 166 174 186 193 196 191 194 189 194 187 192 195 194 193 190 198 197 199 202 200 199 202 198 192 189 183 182 181 184 179 172 170 175 178 205 207 201 198 176 136 137 149 149 164 177 187 182 184 186 182 181 180 179 175 168 176 174 176 172 162 148 142 101 156 173 149 91 100 105 107 106 108 107 165 153 120 153 152 136 113 65 56 121 103 88 106 108 104 126 132 144 156 164 176 183 193 195 198 197 195 197 193 193 194 197 198 198 195 199 196 201 199 197 198 193 191 185 184 180 180 181 178 169 170 179 183 203 208 201 198 181 144 130 153 150 160 173 183 180 183 186 180 176 178 174 177 179 181 178 179 176 165 154 138 110 149 168 143 84 105 103 107 105 105 110 147 155 131 163 173 148 123 66 83 157 128 91 103 106 103 115 129 143 148 165 176 179 190 196 198 198 199 200 196 196 196 196 195 197 198 198 194 196 196 200 195 193 190 182 182 183 183 182 181 169 173 180 186 200 207 200 196 183 149 129 142 150 155 169 181 182 182 178 183 176 174 181 174 181 183 181 180 179 160 152 137 112 150 156 135 89 105 107 102 107 106 104 100 160 131 163 183 155 136 78 97 184 151 97 101 105 103 112 124 142 149 164 171 178 185 195 195 196 199 200 200 195 198 195 198 196 198 195 198 195 195 196 198 198 192 185 179 183 182 181 179 172 172 180 190 201 205 201 199 183 157 132 136 142 156 168 181 181 183 177 183 185 177 181 176 175 183 184 183 172 161 146 139 110 143 150 143 77 103 104 105 105 104 104 56 163 130 146 179 170 149 94 87 187 166 103 100 104 104 102 123 138 150 161 169 174 186 188 190 194 197 200 202 199 199 197 195 198 196 196 200 195 199 195 200 198 191 183 176 173 170 177 176 172 173 178 188 205 206 202 199 187 170 139 133 132 148 168 173 178 181 177 182 187 183 178 176 178 174 177 177 165 161 146 138 110 126 155 127 85 103 102 108 105 105 104 38 150 145 123 159 185 163 133 82 139 180 110 99 106 107 97 112 132 143 160 168 174 186 184 185 188 194 196 196 201 199 198 195 198 200 196 196 198 195 199 195 197 178 170 170 173 166 181 178 174 177 179 192 204 204 201 197 188 179 148 139 133 136 163 179 180 185 182 181 188 182 181 179 174 171 173 170 164 157 143 134 107 145 165 118 88 107 103 104 103 106 103 18 118 152 119 116 145 165 175 163 114 161 123 100 105 108 95 103 128 136 157 161 172 173 180 179 188 188 193 199 196 195 200 192 198 198 195 194 197 192 193 191 182 167 168 165 159 173 176 175 179 176 184 200 207 204 201 193 197 186 156 143 147 131 156 169 182 180 181 179 184 185 175 184 176 179 170 167 156 157 136 124 115 159 152 98 105 101 101 108 99 104 105 46 66 151 149 127 111 132 176 189 156 123 132 102 104 110 99 97 112 139 151 157 163 170 176 179 182 183 187 194 195 195 196 197 194 192 195 194 193 191 175 169 160 154 165 163 164 182 179 177 181 177 184 204 205 202 199 199 200 190 161 139 145 147 138 167 174 178 178 181 183 181 177 179 179 178 172 165 160 151 137 113 130 157 139 96 100 104 101 103 103 105 103 61 44 117 161 159 140 130 160 178 187 140 125 102 109 112 102 91 107 129 142 159 154 165 171 176 175 182 183 189 191 190 193 197 192 192 189 191 190 188 170 157 150 144 154 166 175 179 174 172 178 178 185 195 204 205 201 203 198 188 162 134 136 152 136 152 167 180 176 177 178 180 173 174 175 173 173 162 157 147 138 105 139 162 116 95 107 103 101 104 104 105 104 68 36 70 147 167 162 160 152 163 169 162 118 104 109 114 106 92 98 123 130 148 157 157 165 168 178 180 180 180 191 189 188 191 193 188 187 188 185 170 158 148 144 131 147 167 173 163 156 159 155 166 178 188 196 198 198 198 192 178 154 126 128 143 138 140 158 173 170 176 178 176 177 173 167 166 167 154 152 146 128 102 141 156 105 92 105 102 102 103 104 102 108 63 45 43 94 148 161 166 167 170 176 161 119 98 114 108 112 100 87 112 129 135 146 157 162 157 170 175 174 178 184 189 190 191 188 187 185 183 177 156 145 143 148 122 136 154 148 121 109 132 135 129 150 172 179 181 185 186 182 159 126 112 119 124 143 137 147 166 170 173 172 171 169 171 164 165 161 153 146 141 119 100 136 136 96 100 100 104 101 103 103 103 105 60 64 52 21 121 159 165 167 181 182 171 139 100 110 110 115 108 84 100 118 124 136 151 158 159 166 173 173 176 181 181 186 186 186 185 183 174 161 145 143 148 160 133 118 121 121 81 31 47 104 119 117 131 147 152 160 162 156 119 89 70 85 114 157 143 144 160 161 168 171 166 166 167 154 158 149 144 139 134 113 102 120 107 97 101 102 100 104 104 105 104 104 62 65 56 19 57 146 163 165 178 181 173 153 104 101 103 112 108 92 102 108 118 123 139 150 150 164 163 169 171 178 173 183 179 177 180 179 166 148 140 149 165 170 164 122 92 98 81 56 54 52 76 95 103 112 117 123 127 107 75 57 75 90 131 165 151 140 152 159 164 166 164 159 158 153 158 143 143 136 126 110 93 99 97 101 102 102 101 100 105 101 103 107 66 67 52 41 12 88 143 154 168 174 173 151 109 85 105 108 110 97 89 103 112 121 126 139 144 152 158 157 163 170 168 172 169 172 175 171 154 144 141 161 177 172 170 157 120 101 114 92 81 66 63 59 79 82 88 87 82 71 75 82 110 123 144 162 159 148 148 155 160 160 160 156 151 147 146 140 133 128 115 104 89 98 102 97 103 99 104 102 102 104 104 102 70 63 48 40 23 20 75 120 136 152 154 133 93 84 102 105 112 107 92 96 105 114 115 127 133 144 148 156 163 164 163 164 163 164 166 154 147 136 150 179 176 170 171 176 159 120 136 118 109 93 79 65 64 76 73 67 74 95 110 120 130 137 152 151 161 156 145 146 147 151 151 148 150 138 139 131 126 121 105 94 96 100 100 101 100 100 102 104 102 102 103 102 60 56 52 33 28 28 21 41 61 99 91 77 56 72 100 103 111 105 97 92 95 108 106 115 120 130 140 139 144 153 156 155 155 156 162 145 138 143 166 177 178 168 169 167 165 133 136 131 132 103 103 95 96 98 86 90 102 114 126 128 130 130 142 151 156 160 156 144 139 142 143 145 144 134 132 122 119 108 96 92 93 101 97 101 101 101 103 102 103 103 105 103 51 57 57 41 17 28 34 16 22 26 21 18 12 46 89 102 107 115 93 98 96 97 98 98 104 114 128 130 140 144 147 147 154 148 143 138 139 152 173 166 169 161 170 162 155 155 153 141 148 119 117 118 134 134 128 115 126 126 132 126 123 111 138 150 151 150 162 156 128 131 136 137 133 130 122 119 116 104 90 88 96 98 99 101 104 99 104 102 103 104 104 100 65 60 60 26 24 26 32 20 24 17 21 16 12 9 73 91 103 107 105 92 100 100 99 93 94 102 115 119 131 136 140 143 146 141 136 135 150 164 167 167 167 162 169 174 158 159 163 159 149 131 129 138 135 138 127 132 126 130 130 126 122 125 135 138 149 143 154 168 158 109 115 134 128 126 119 116 105 92 88 92 96 99 96 99 104 97 103 100 105 101 102 103 72 62 66 25 29 26 28 23 24 19 20 14 13 5 47 84 95 110 104 101 95 107 106 99 97 92 107 112 127 132 138 140 140 134 134 144 166 173 172 173 172 165 153 168 165 153 157 163 158 141 144 143 126 132 116 119 129 132 130 127 126 132 133 140 145 138 147 164 168 132 104 127 130 117 122 116 97 106 84 94 98 100 97 101 102 101 100 103 101 103 103 103 70 68 75 30 29 35 26 24 21 20 18 21 14 7 39 65 88 107 114 104 103 107 111 113 107 98 100 112 128 134 140 144 135 125 138 150 167 176 171 172 172 165 150 166 169 158 162 172 159 148 158 141 124 131 111 115 132 133 126 126 126 133 133 135 147 133 143 160 154 146 118 131 132 125 122 112 96 99 86 97 97 100 100 101 100 100 103 99 102 101 102 102 69 68 71 61 25 33 35 23 24 22 19 26 18 14 37 53 76 98 109 102 112 110 112 119 114 110 109 110 128 137 142 146 133 127 145 145 153 169 169 165 165 169 147 155 162 159 150 171 172 154 161 145 124 132 114 120 136 129 123 128 137 136 122 129 136 137 141 149 145 144 130 145 142 127 129 106 101 93 88 98 98 100 101 101 101 103 101 101 105 102 105 99 69 65 72 69 54 36 35 27 28 14 28 22 25 16 45 51 58 93 104 106 108 113 117 122 125 117 118 124 131 141 147 149 142 136 148 151 150 160 142 139 149 161 146 154 166 156 162 161 171 170 163 143 130 138 130 131 133 125 129 134 131 134 124 125 129 133 145 149 140 133 131 152 148 123 128 100 110 87 93 96 99 96 103 99 101 103 101 104 102 104 101 102 68 70 68 67 72 69 52 44 39 27 23 28 29 45 54 56 48 78 98 102 115 115 122 122 128 128 120 130 125 143 147 155 155 140 147 147 142 148 136 134 138 151 151 150 163 166 172 164 157 164 162 159 149 157 143 140 134 130 137 136 133 132 128 136 132 137 139 136 132 129 130 158 143 121 111 106 104 78 94 96 99 96 101 100 100 104 100 108 99 100 100 101 65 66 69 69 66 69 68 68 65 62 49 54 56 64 49 59 46 57 81 98 113 115 125 128 131 135 127 127 131 147 152 163 177 150 143 146 137 131 139 144 146 151 163 157 156 158 167 160 173 175 175 177 175 174 170 162 141 140 134 133 127 127 130 128 122 132 132 127 132 130 132 155 133 120 106 107 103 82 97 95 100 102 98 103 101 100 102 103 101 102 99 100 64 68 68 69 68 68 69 67 69 70 64 65 69 59 15 58 54 52 66 91 102 113 117 124 130 132 129 134 127 143 160 161 179 161 139 141 138 129 129 128 118 125 128 128 130 127 130 134 142 148 147 158 168 163 153 140 119 119 123 110 109 109 107 99 106 120 125 132 134 131 132 146 129 116 104 108 87 85 98 95 101 98 100 101 97 103 104 99 104 103 100 104 67 67 67 67 69 69 69 69 66 68 70 75 60 31 4 55 59 59 52 72 93 109 112 122 126 131 125 130 129 133 149 156 173 175 146 139 140 139 127 130 114 93 67 66 67 70 80 80 81 86 91 91 104 114 97 84 61 57 63 54 47 76 92 110 130 124 127 129 138 133 136 140 126 110 106 99 73 97 96 99 97 103 99 102 99 102 101 101 102 102 100 101 68 66 67 64 70 69 70 66 70 69 71 70 35 24 5 51 58 69 54 55 84 101 109 116 121 128 127 128 126 132 139 148 166 171 162 147 146 149 146 145 154 151 122 99 78 60 58 60 68 78 79 85 80 80 87 89 57 79 74 60 67 106 117 123 134 133 121 131 134 135 139 133 120 112 101 93 85 97 97 97 101 99 100 102 100 98 102 101 102 102 100 98 68 65 65 69 64 69 66 65 69 71 73 55 21 20 2 52 61 69 72 45 69 91 97 107 114 124 128 130 125 128 133 140 150 156 164 154 144 158 157 144 148 150 158 161 148 126 95 81 108 116 83 112 122 92 127 127 107 123 104 107 114 115 121 121 127 133 129 131 136 132 141 125 112 100 107 80 87 101 96 97 101 99 100 102 102 103 99 103 100 99 100 102 67 67 68 67 64 66 70 66 71 70 68 47 26 20 3 47 64 66 87 58 49 76 85 101 110 119 122 127 126 127 129 136 144 151 153 147 144 154 164 158 156 148 133 149 155 161 162 150 140 137 113 121 131 107 121 122 122 131 138 137 129 124 121 112 123 135 132 133 138 135 134 119 107 95 95 76 94 99 96 98 102 101 99 102 97 103 98 102 99 102 98 99 61 68 65 66 67 68 68 65 68 68 60 49 23 19 5 43 70 74 79 71 51 61 73 87 105 113 118 125 122 121 127 132 133 145 155 156 160 156 167 163 164 158 137 129 128 142 152 171 188 191 173 166 161 154 159 162 159 160 161 147 130 129 121 114 124 134 136 133 142 135 128 121 99 102 83 53 101 100 94 98 97 99 104 99 101 100 99 103 97 101 102 99 66 67 67 66 70 68 66 68 61 64 60 41 25 17 7 39 74 78 83 83 67 47 58 81 97 107 112 115 120 113 131 130 132 141 154 151 161 166 156 161 170 163 140 129 123 121 131 137 145 165 173 179 169 163 152 154 154 148 142 138 125 121 119 119 121 136 140 139 139 137 128 112 100 104 63 37 94 95 98 97 99 102 98 100 100 104 98 102 100 100 100 101 67 66 71 69 74 68 67 63 58 67 65 39 25 16 11 38 77 83 89 85 75 62 47 68 88 102 110 109 116 120 119 125 132 136 149 152 154 160 156 155 165 162 151 127 125 117 123 117 121 132 128 133 125 120 118 124 120 124 120 118 126 116 113 116 127 136 137 139 136 134 120 103 100 96 43 43 67 81 94 95 101 96 103 100 99 99 98 99 100 99 101 98 76 75 77 77 75 71 70 59 64 72 68 39 22 18 17 27 84 84 89 87 74 68 60 49 71 89 101 106 118 119 116 123 129 139 149 155 148 154 155 150 156 160 161 142 124 120 117 112 119 115 109 107 97 100 97 100 102 104 108 108 112 114 118 121 131 138 139 138 135 128 119 91 103 70 46 49 58 53 66 74 91 95 104 98 102 100 102 100 100 102 97 99 82 77 79 77 75 73 75 62 69 68 66 38 25 23 11 21 83 89 90 84 78 68 69 50 51 79 89 101 107 119 119 126 132 133 142 142 144 149 150 154 150 152 157 153 142 136 124 112 104 110 112 104 103 107 107 102 104 107 103 108 103 121 127 126 133 135 140 134 130 129 107 94 86 45 48 52 56 52 55 57 51 68 80 96 99 98 103 99 100 100 98 99 86 82 76 77 74 72 69 69 71 73 61 39 29 22 13 32 80 87 96 89 83 73 64 59 44 58 78 96 109 116 119 118 127 135 144 143 144 149 156 153 155 147 151 153 144 148 137 136 119 115 110 107 110 107 109 113 115 119 112 112 122 128 128 131 135 137 142 136 129 124 98 97 49 31 52 54 53 57 55 57 52 54 56 62 72 89 97 102 97 101 100 100 82 81 82 75 72 73 71 71 76 73 49 51 27 22 9 53 83 89 94 94 87 78 67 56 56 46 57 85 103 115 115 116 118 129 138 142 139 149 146 158 154 153 150 157 150 152 152 151 150 138 133 129 127 113 120 116 120 126 125 124 129 136 135 136 137 143 143 133 130 118 94 58 26 40 51 52 52 63 54 58 53 57 56 49 56 60 65 81 91 96 102 96 81 81 79 75 75 76 67 76 78 69 53 48 26 18 21 79 81 86 95 93 94 82 77 62 60 49 47 52 82 100 112 118 111 125 134 138 142 145 151 158 155 161 158 160 158 161 155 164 159 147 146 139 133 123 135 132 132 126 136 138 143 146 139 141 142 150 139 129 128 108 85 17 28 43 53 54 55 56 56 59 54 55 58 53 58 49 55 59 56 75 88 95 79 80 79 71 76 67 69 79 79 57 57 40 31 13 38 93 78 84 91 91 97 90 82 72 63 57 49 46 54 75 99 112 107 123 130 129 141 141 147 158 164 169 174 168 167 162 167 167 173 166 159 156 152 145 142 142 136 133 144 149 149 151 143 147 151 150 142 128 120 105 63 9 29 44 50 52 55 62 53 61 54 57 53 54 57 53 51 53 57 54 56 66 73 82 75 73 68 56 74 79 75 54 58 36 39 10 63 101 74 88 89 92 100 90 92 76 67 64 53 51 49 51 77 94 102 113 127 125 132 132 146 158 168 167 178 176 174 170 173 173 172 178 171 173 175 170 159 160 162 160 161 158 157 154 151 150 153 159 135 122 116 90 46 26 29 46 53 55 52 63 54 62 56 54 55 55 59 57 52 56 55 54 58 53 76 76 76 75 76 60 82 82 64 63 42 47 43 13 82 110 76 83 85 94 94 102 93 93 77 63 64 52 55 45 51 70 80 92 120 122 131 132 145 149 164 158 172 182 175 173 173 182 179 177 181 180 177 165 162 163 163 166 161 157 163 163 160 146 158 152 140 111 106 84 46 34 31 48 59 54 56 58 54 58 55 55 48 51 53 57 55 55 55 58 54 61 74 78 69 75 60 65 78 79 61 58 45 46 43 16 94 111 85 80 85 93 105 105 97 91 81 73 66 57 53 49 50 51 56 69 93 110 125 124 142 138 151 151 169 186 179 182 182 176 177 167 174 178 168 157 156 152 160 158 152 158 159 163 157 158 154 144 125 112 90 81 61 34 37 51 58 54 54 57 53 54 54 51 49 55 54 53 55 53 53 56 54 58 64 68 76 71 71 68 84 76 54 61 51 46 42 23 101 116 91 83 84 97 104 106 105 98 88 79 73 60 58 51 48 51 44 50 66 84 110 113 124 137 138 149 155 173 175 184 188 175 175 169 178 171 164 156 151 149 160 164 158 159 161 156 157 159 148 129 120 95 90 79 69 30 36 47 64 52 57 59 55 50 52 50 54 52 57 56 55 51 54 54 54 54 81 69 88 77 64 75 83 72 60 56 56 51 42 41 103 124 96 83 90 92 107 108 106 106 95 85 76 73 57 56 53 54 53 42 53 54 87 96 113 127 129 137 140 160 166 177 180 171 169 170 167 167 162 144 137 142 145 151 153 150 161 152 150 149 134 119 99 80 96 81 63 34 43 52 62 53 61 61 58 49 52 54 55 55 53 60 53 54 60 54 58 56 80 70 79 72 54 77 86 68 66 53 56 48 47 50 112 129 105 87 92 98 97 111 109 103 104 94 79 75 67 61 58 55 54 50 47 45 55 68 94 109 119 127 130 148 149 154 167 160 165 161 160 156 156 140 130 136 141 150 157 156 155 141 139 133 118 103 85 83 103 82 61 35 50 59 58 51 57 60 53 48 53 55 58 55 54 58 55 53 60 60 63 59 71 67 69 59 58 78 84 64 62 57 57 48 50 57 121 128 113 99 90 99 105 104 116 114 106 101 90 79 75 71 60 55 56 51 57 52 53 44 53 84 99 119 125 134 138 147 145 153 158 155 153 146 144 143 148 130 142 150 152 149 143 135 119 121 104 84 88 93 98 79 61 38 52 65 51 49 65 53 53 51 57 59 58 55 52 58 57 56 53 60 60 64 65 70 72 72 65 77 80 65 59 59 64 50 47 61 129 124 113 109 97 97 101 109 109 112 115 104 97 89 79 72 67 61 57 56 57 55 57 53 46 54 81 93 105 112 112 122 132 133 140 144 139 134 131 137 140 139 127 139 140 135 122 117 107 95 87 85 94 100 87 80 57 43 58 56 50 51 59 58 56 52 55 57 52 53 52 59 54 53 61 59 57 58 80 79 79 67 70 81 74 64 60 55 63 56 45 63 134 133 121 112 106 99 93 108 112 112 111 114 103 98 88 81 66 69 61 58 59 56 58 55 56 50 53 61 76 83 92 99 108 110 124 126 125 127 126 125 126 130 124 126 116 115 100 95 85 80 88 95 97 98 80 80 45 56 63 56 48 51 63 52 58 57 51 53 52 57 54 56 52 59 57 57 60 57 79 81 77 68 75 82 72 61 65 50 67 54 41 62 129 135 121 116 105 105 92 100 108 117 117 112 110 109 91 88 77 69 66 61 59 62 56 59 59 54 53 53 49 53 74 62 82 79 94 118 94 97 110 104 107 111 102 99 92 79 79 73 78 89 93 96 104 85 85 68 51 58 61 50 54 54 55 59 57 50 56 55 45 55 53 57 52 56 56 56 60 57 75 79 73 69 74 84 68 63 64 57 63 56 46 57 124 135 123 112 107 109 100 99 99 112 118 114 112 109 106 96 86 73 73 66 64 60 57 57 62 53 56 52 53 47 52 52 52 51 54 77 62 63 70 74 73 76 73 76 80 71 80 81 83 89 96 98 102 77 81 54 56 57 57 48 59 56 53 61 59 55 54 53 54 49 48 49 59 52 57 53 56 56 79 76 78 63 80 84 63 69 60 67 56 65 44 61 119 133 128 116 110 107 105 98 97 106 117 118 116 115 109 106 92 83 76 69 61 66 62 56 64 54 55 54 55 51 49 57 49 50 46 49 49 51 53 59 64 70 72 78 79 82 77 80 84 89 99 104 84 78 65 51 57 58 51 47 58 54 52 55 52 57 53 53 55 52 53 48 48 50 59 57 56 59 