P2
92
112
255
101 106 102 104 104 102 108 108 104 108 101 107 110 106 107 108 108 110 108 101 79 75 89 99 113 115 110 108 102 98 99 95 93 84 109 117 133 121 124 154 135 120 116 113 110 104 102 102 114 111 142 105 96 102 103 96 84 80 71 56 59 54 59 46 51 48 50 57 55 58 86 99 109 105 110 105 105 102 104 105 108 109 108 111 107 114 105 109 108 108 107 108 101 104 102 106 102 104 104 108 103 106 103 108 106 109 106 111 105 107 92 78 61 73 90 97 108 118 110 111 99 94 92 87 87 75 99 132 163 155 150 179 191 189 166 149 119 113 102 107 95 108 110 120 111 99 94 88 81 73 64 58 54 55 58 48 54 54 57 55 55 43 54 97 102 100 97 104 102 106 97 102 98 104 107 109 109 107 110 107 106 106 108 105 99 104 102 106 102 102 107 101 107 106 105 110 104 107 106 109 108 104 83 67 51 72 87 100 100 109 112 109 113 107 107 95 110 118 103 115 142 158 150 151 161 176 179 174 159 113 103 100 92 88 101 105 101 108 103 97 90 81 67 65 62 58 60 56 60 55 63 53 56 49 42 93 111 100 87 87 90 83 82 93 91 90 95 108 108 110 106 110 107 108 106 111 100 107 98 106 105 102 108 104 104 110 104 110 107 112 105 110 108 95 65 61 57 77 85 104 105 111 110 114 116 106 107 128 124 150 143 126 119 138 147 152 140 146 156 161 170 171 132 104 96 93 88 106 119 95 101 103 90 83 67 61 57 58 59 64 65 54 60 64 77 72 49 60 91 98 82 79 81 68 70 69 92 96 90 108 104 109 106 108 110 107 107 109 103 103 102 106 105 104 104 108 106 107 108 109 104 108 111 105 100 84 56 52 57 63 82 95 97 101 105 114 114 119 120 129 128 132 133 127 116 112 119 141 148 147 141 138 138 152 178 153 117 98 79 76 92 97 91 94 95 96 76 55 54 54 57 59 64 66 62 74 79 67 68 60 82 84 84 93 93 67 58 68 87 94 98 104 108 108 108 108 105 107 111 108 101 102 103 104 104 103 106 103 107 107 108 107 107 100 102 106 96 73 61 58 59 67 90 96 90 94 100 107 111 123 133 128 131 125 126 135 131 124 112 117 123 134 144 137 126 125 131 150 141 123 95 82 77 83 85 84 103 94 92 86 69 60 56 52 68 68 76 72 67 56 51 48 65 84 92 95 93 65 53 75 75 93 101 105 105 105 108 107 107 107 111 106 101 99 107 100 104 102 106 105 107 103 108 110 99 81 79 88 82 73 69 64 77 84 96 98 97 96 101 109 117 139 124 132 134 136 134 132 130 124 127 119 113 111 112 117 122 117 116 121 132 131 127 110 92 81 79 81 90 89 90 82 92 80 68 54 60 60 57 63 56 52 47 52 47 76 96 100 87 60 66 76 80 86 101 105 105 102 108 111 110 107 108 107 100 105 103 102 107 100 110 105 106 107 111 105 90 69 66 72 77 69 73 80 87 94 100 89 101 100 109 112 125 138 132 141 141 137 138 144 135 129 111 121 113 110 104 92 101 101 106 110 112 112 122 120 121 113 106 93 88 74 79 76 77 83 93 73 65 63 60 48 57 53 50 48 54 71 97 94 81 69 75 85 78 89 97 105 108 103 104 110 111 106 107 106 99 109 98 106 104 105 105 101 109 105 108 93 66 65 62 62 66 65 70 76 75 95 95 96 90 101 103 114 137 142 135 140 146 151 138 132 131 132 137 120 112 103 101 92 85 81 79 92 102 101 104 108 116 121 120 124 113 104 91 89 73 69 71 82 87 88 65 61 56 44 51 46 53 76 91 91 81 81 84 84 94 89 99 103 106 108 101 111 110 108 110 108 102 99 106 103 108 106 103 107 105 111 106 90 75 81 70 59 65 71 74 62 70 83 90 91 93 99 100 111 118 133 123 125 122 135 139 141 133 123 113 113 118 113 108 94 93 80 75 70 77 78 81 87 99 107 111 109 107 104 98 98 99 100 82 81 75 85 77 79 68 63 61 54 54 73 82 79 89 82 81 80 85 91 98 106 107 105 106 107 111 110 108 111 102 103 104 105 108 108 107 106 106 106 100 94 87 87 72 72 78 73 86 71 65 72 77 76 82 88 100 104 116 115 117 116 117 124 129 134 133 133 118 107 107 105 96 95 88 84 86 82 69 72 62 66 71 74 88 87 96 88 92 84 84 90 86 85 82 78 81 76 71 74 66 63 55 65 69 64 84 80 74 70 87 87 93 103 107 105 107 107 105 113 107 108 101 104 106 103 104 111 108 108 106 106 97 93 85 85 89 83 88 77 78 85 76 71 65 73 72 81 100 102 104 106 104 105 110 112 113 125 125 129 125 122 119 112 98 97 86 78 78 92 78 83 67 70 64 62 66 69 69 72 72 63 74 71 71 76 68 73 62 62 62 62 67 69 55 58 47 62 68 75 83 80 95 95 100 101 103 104 105 108 109 111 109 106 102 102 102 104 104 104 106 107 102 95 100 95 87 86 87 78 79 83 82 91 92 81 63 59 53 59 85 97 93 101 96 100 96 101 85 95 93 94 97 95 94 94 95 89 87 88 79 83 75 76 70 70 65 65 61 67 66 69 65 68 66 70 70 69 71 69 66 72 64 74 74 84 70 45 44 53 54 78 77 88 94 96 101 106 101 105 108 104 109 107 110 103 102 104 106 100 98 96 100 103 92 95 93 96 94 83 75 60 70 83 89 84 85 81 72 67 56 55 52 70 72 78 85 98 97 100 100 88 82 79 74 70 69 72 74 74 75 73 70 67 70 64 67 71 65 79 71 74 74 67 75 77 69 76 76 84 83 87 92 95 95 97 97 97 97 67 53 47 50 69 74 80 90 94 100 103 109 106 109 103 107 109 106 108 101 106 96 97 80 77 82 82 80 82 82 77 90 76 64 48 71 78 84 89 79 84 74 82 76 68 60 57 55 67 75 83 92 94 94 94 83 88 77 68 72 66 62 59 55 54 62 54 69 64 64 65 63 70 67 74 72 71 76 83 78 84 87 103 103 111 113 116 116 120 113 115 108 95 64 54 49 63 59 69 70 85 97 100 101 106 103 107 103 108 105 109 102 98 89 76 65 67 73 74 70 68 71 75 75 74 64 59 57 78 67 79 75 77 85 83 97 85 88 75 67 63 64 68 73 83 85 79 79 88 84 78 82 72 77 65 62 66 64 72 64 70 68 77 73 73 68 80 77 89 92 91 97 101 104 120 121 121 125 127 129 131 128 124 122 117 86 62 48 54 56 61 63 68 75 95 101 103 103 107 102 106 106 108 104 102 92 68 58 52 68 84 82 70 65 63 68 64 67 67 67 62 62 57 70 59 67 69 77 88 91 89 77 64 62 59 57 70 70 77 73 81 75 79 81 79 83 70 79 79 76 83 86 86 88 94 88 93 80 91 97 100 103 111 113 120 124 133 141 141 134 142 144 141 143 136 135 127 115 83 50 52 49 55 52 65 61 63 92 100 101 108 103 109 107 108 103 104 82 63 54 45 58 72 91 85 84 79 71 75 60 63 64 87 61 57 55 65 69 66 72 83 87 90 86 82 83 61 57 53 54 61 71 71 80 80 78 76 77 80 86 85 88 94 96 105 105 106 107 110 107 109 114 117 122 126 132 134 141 145 151 151 151 151 155 150 152 147 145 140 128 116 69 51 43 49 46 52 59 67 76 88 98 106 108 104 106 106 104 96 71 57 41 45 42 50 50 65 65 63 62 67 57 56 60 70 61 58 47 56 65 72 67 82 85 86 90 87 90 81 73 73 74 71 66 70 75 85 86 92 88 94 100 98 103 100 106 107 115 116 126 123 127 122 132 133 136 138 144 146 148 153 154 161 156 160 158 163 156 155 151 149 138 130 113 65 42 42 39 46 50 67 77 67 91 99 108 104 107 107 104 97 66 53 53 45 34 46 49 54 56 62 51 59 56 55 57 68 66 65 52 47 53 53 54 63 73 80 86 84 90 89 85 93 87 87 83 88 91 103 97 102 103 105 109 114 111 118 117 124 132 136 142 146 145 144 147 147 147 150 152 159 159 158 162 163 165 167 166 164 165 158 156 155 149 138 131 98 60 37 37 37 42 57 68 74 80 91 101 108 110 110 107 99 66 53 57 43 43 44 54 59 65 69 55 49 48 54 57 61 67 70 67 51 51 50 52 52 56 58 65 63 65 75 72 89 96 103 110 111 109 110 111 118 124 127 132 133 136 135 135 138 148 151 157 159 157 159 156 158 156 157 163 166 169 164 171 170 169 170 171 172 171 166 162 158 155 146 136 125 90 43 42 45 39 48 59 62 78 83 92 109 104 111 103 98 73 41 48 43 46 53 68 50 57 64 62 64 50 48 61 69 80 84 72 64 61 61 55 63 58 56 56 62 83 90 99 116 120 129 126 129 130 131 132 138 155 156 155 146 145 149 148 154 164 165 166 168 162 165 164 164 164 168 168 174 174 174 179 178 176 178 177 179 181 174 167 157 157 148 145 132 115 78 32 44 47 54 43 53 79 77 85 100 106 110 102 90 76 41 43 37 47 44 40 38 61 83 89 83 63 64 74 89 83 86 77 83 81 78 70 69 67 80 92 101 112 127 137 142 150 153 154 153 155 158 161 165 172 172 168 165 162 166 166 168 174 171 168 171 171 171 168 172 171 173 175 174 174 178 182 181 181 181 183 182 181 179 172 165 159 155 149 136 127 111 53 47 41 51 53 43 63 77 78 80 103 104 105 83 65 35 39 32 30 32 30 49 84 108 95 92 81 103 110 109 98 100 98 110 106 100 102 99 112 131 142 149 149 158 161 164 171 175 172 174 184 186 188 183 186 183 182 182 176 177 173 180 179 179 173 174 175 175 175 176 178 180 181 181 180 183 186 187 184 186 186 186 183 182 173 169 168 155 154 141 132 125 87 45 44 46 48 39 48 74 79 67 87 106 102 67 40 38 32 27 28 29 42 78 108 106 102 103 110 131 141 131 127 124 128 136 138 139 145 152 159 169 175 177 172 170 170 168 174 178 185 194 198 199 201 197 195 195 192 191 187 182 179 183 186 185 184 185 183 181 181 179 179 184 184 186 183 187 187 191 186 190 190 189 184 182 173 170 167 158 154 145 135 127 116 59 51 36 50 41 40 59 72 70 66 92 82 46 30 24 27 22 29 31 66 102 111 115 105 106 126 138 146 149 139 136 139 142 155 169 172 177 179 181 182 185 186 186 187 186 189 195 193 194 199 202 202 198 194 195 197 193 193 186 186 186 189 191 191 191 190 191 186 184 184 184 188 192 186 186 188 191 187 190 193 189 187 181 172 168 166 161 152 147 139 130 130 88 55 48 43 48 37 46 59 72 61 56 70 29 28 21 24 27 31 48 68 88 104 99 103 114 124 135 153 159 151 149 149 151 162 173 182 183 185 180 184 187 188 192 192 190 193 199 198 195 200 201 201 201 197 196 198 196 192 192 190 190 193 193 193 192 193 191 190 190 187 188 189 193 191 190 189 190 189 190 193 189 186 177 169 166 166 155 153 146 141 133 132 106 70 51 48 50 47 34 46 71 64 48 48 28 24 23 24 24 40 58 68 79 98 108 114 118 130 144 156 163 164 163 159 156 167 173 181 183 187 183 184 185 191 191 196 189 193 196 198 197 199 200 200 199 197 200 201 196 195 192 191 191 192 191 191 193 191 192 192 191 190 189 189 191 193 191 189 189 189 194 192 188 185 171 166 166 165 157 149 145 140 136 130 117 85 53 49 57 46 40 35 53 73 59 46 27 17 24 23 31 49 57 67 83 106 123 129 132 135 150 154 158 162 165 160 160 169 172 178 184 186 183 184 186 188 189 193 193 195 196 196 198 196 195 197 199 198 200 197 199 193 190 191 190 189 189 189 190 190 190 191 189 190 188 186 190 190 188 185 187 186 193 193 188 174 163 165 162 161 161 150 144 144 137 131 122 88 62 48 55 53 43 33 40 70 68 49 18 21 26 28 39 56 50 84 101 127 137 126 131 131 145 149 152 158 159 163 160 164 172 175 183 181 183 180 187 185 187 190 190 192 192 198 197 196 193 195 196 197 198 198 196 194 189 184 188 191 190 189 190 190 190 190 187 190 187 188 188 186 185 185 186 185 189 190 184 168 159 157 162 161 154 151 144 150 136 133 125 100 62 58 54 54 51 36 36 53 78 43 23 20 21 36 45 53 62 84 103 109 109 112 120 132 141 146 146 148 156 159 160 163 170 176 178 182 181 184 187 184 187 187 189 189 193 195 195 196 194 196 196 196 196 200 195 194 192 188 188 190 190 191 191 189 187 189 188 190 188 188 189 187 184 185 187 189 191 188 186 169 163 161 162 160 154 143 147 144 139 133 122 102 72 50 50 41 54 49 37 29 66 37 21 20 25 43 45 54 60 72 80 86 96 99 125 127 138 133 142 146 153 157 158 162 166 174 176 184 181 184 187 184 186 187 188 187 192 192 193 194 198 197 197 199 200 200 197 196 195 192 189 189 189 190 189 185 187 187 186 186 185 186 188 188 183 185 188 189 190 186 181 172 165 166 164 162 149 148 146 141 139 134 122 109 75 54 50 38 38 52 39 29 34 30 25 24 29 43 45 51 55 59 66 76 86 105 117 117 125 128 133 144 149 155 160 162 168 171 171 183 181 183 187 183 184 185 189 191 191 191 192 195 195 198 197 201 201 198 196 197 197 195 189 187 188 190 185 186 183 185 182 183 185 184 187 187 185 189 188 188 187 184 179 171 166 167 165 156 149 146 149 145 139 134 119 111 77 61 52 44 35 44 38 37 21 28 24 22 32 45 50 53 45 57 58 79 91 100 108 103 118 120 125 137 149 156 155 163 167 168 171 179 181 182 181 187 184 190 190 190 193 190 193 196 197 199 200 200 199 198 198 197 197 194 192 188 189 188 186 184 182 181 183 183 183 185 185 188 186 188 189 188 186 183 176 174 170 169 165 155 150 146 149 145 139 139 118 109 85 57 46 58 39 39 37 35 26 20 25 29 34 46 43 49 47 57 72 82 83 94 98 101 110 117 128 133 150 151 150 159 166 165 171 177 178 181 181 184 184 189 192 192 191 194 195 197 199 201 201 201 200 200 198 199 198 196 194 193 188 187 185 181 181 184 180 185 185 188 188 187 188 188 189 188 184 180 177 174 173 169 164 159 154 148 144 145 138 136 124 110 87 58 53 49 44 38 38 30 31 21 26 32 44 45 42 44 50 60 63 69 77 84 93 101 102 118 125 134 142 147 147 153 161 161 164 172 173 180 183 184 185 188 190 190 195 193 196 199 199 201 202 200 200 200 198 198 199 197 194 194 189 189 186 185 183 184 183 183 187 187 189 192 187 193 190 189 191 185 183 181 176 174 168 165 155 154 143 140 137 132 124 110 86 59 46 47 43 43 40 30 33 18 34 32 45 45 31 47 49 52 57 67 72 76 88 91 98 112 126 130 142 144 144 147 159 162 165 167 177 179 185 184 186 188 190 192 196 197 198 198 202 201 203 200 200 200 197 200 200 196 196 191 193 188 188 185 188 185 185 188 185 187 189 190 192 192 192 191 191 190 188 182 181 176 171 167 161 155 146 141 135 130 120 109 92 59 40 50 36 43 41 37 35 24 34 35 40 41 39 46 45 52 53 68 66 75 80 94 97 111 115 130 138 148 147 148 157 162 166 170 177 182 185 185 188 189 192 195 199 197 196 199 199 200 202 202 201 201 200 199 199 196 196 194 193 188 185 188 188 189 187 190 186 189 188 192 189 192 192 192 192 190 188 183 181 178 171 165 160 151 147 139 138 130 114 111 94 61 42 41 41 44 41 37 43 30 31 36 38 39 43 40 38 56 57 56 59 69 71 91 100 102 116 128 141 151 152 151 156 160 166 175 177 183 186 184 187 190 190 192 196 196 193 196 193 194 196 197 197 198 198 196 197 194 192 193 192 185 185 185 188 189 187 190 188 188 187 189 188 189 191 190 192 189 184 183 175 175 168 167 158 154 145 143 133 126 116 105 93 59 38 44 35 40 45 32 45 22 37 30 34 36 37 43 47 51 57 56 48 62 74 87 95 108 115 125 144 153 148 152 158 161 167 178 178 186 182 186 185 189 188 189 192 191 189 187 188 188 189 189 188 191 190 191 191 188 187 187 184 182 182 183 187 187 184 188 188 186 185 187 183 189 187 186 184 183 178 176 175 168 169 161 155 145 148 139 131 128 117 106 93 60 39 42 34 38 41 36 35 32 30 35 31 38 36 48 47 39 53 48 47 51 68 87 93 108 113 135 144 150 152 153 160 165 171 176 182 182 181 185 184 189 184 187 186 184 183 182 180 178 181 181 178 180 180 182 182 179 180 174 175 174 177 182 186 181 181 181 185 183 180 181 177 179 182 179 174 174 169 164 167 160 159 157 151 145 147 140 128 130 117 107 91 56 39 35 35 37 36 39 31 28 35 39 28 37 43 40 37 42 43 42 46 43 64 78 95 111 124 137 143 153 151 156 163 168 171 178 179 183 184 185 183 185 183 183 179 180 176 178 176 172 174 171 169 166 170 170 171 172 170 163 162 169 170 172 177 177 171 174 175 178 174 173 166 167 168 160 160 158 155 156 152 147 153 149 148 143 146 143 134 126 117 107 97 51 36 30 36 37 37 37 38 26 37 30 34 36 39 30 34 40 47 41 38 47 57 79 102 116 134 143 147 152 153 151 159 168 171 180 177 181 182 176 180 174 175 174 171 170 166 164 164 160 159 156 154 152 156 153 160 158 159 155 157 163 165 166 168 166 162 165 170 167 163 160 157 151 157 146 142 140 139 137 143 136 139 138 134 136 139 144 137 129 118 110 102 59 39 28 34 39 35 37 31 28 30 34 28 32 34 34 34 38 46 41 41 46 60 88 102 125 139 148 149 149 152 152 160 165 174 180 174 176 167 169 165 156 162 161 163 152 145 140 139 136 131 133 130 131 136 131 143 148 149 150 148 155 158 155 157 152 154 155 160 157 152 146 145 139 139 132 125 121 118 116 120 120 115 118 116 122 119 127 130 122 118 114 94 61 27 35 35 38 32 33 33 36 28 34 28 32 34 33 28 50 45 41 32 45 62 83 109 125 144 148 146 149 148 153 156 163 171 177 166 158 155 149 142 141 146 146 146 139 124 117 108 109 102 100 103 96 112 116 124 130 139 138 142 144 153 148 148 141 143 147 149 150 142 142 128 127 119 113 111 101 96 92 98 96 93 96 102 105 112 112 119 109 111 102 92 54 23 35 43 36 35 34 34 35 31 24 31 29 37 25 33 51 52 40 40 49 62 90 106 127 144 147 153 145 150 156 154 156 157 158 142 135 132 119 128 128 129 124 116 112 104 98 83 85 89 84 83 82 87 95 105 112 117 124 132 139 144 144 140 137 136 138 141 142 134 128 123 112 105 104 91 89 77 78 69 77 74 80 86 92 104 102 105 92 95 87 82 51 27 32 34 39 36 30 41 37 23 30 22 32 30 32 28 43 52 35 42 53 62 89 106 134 142 150 147 152 150 157 156 149 145 139 134 123 117 109 107 107 114 108 105 99 97 95 88 92 84 83 77 79 84 83 96 99 102 116 120 135 143 141 142 137 136 137 145 137 129 122 112 104 92 86 86 76 76 72 73 67 76 75 78 78 89 84 93 91 86 87 78 41 17 39 28 41 33 36 47 33 26 26 19 33 31 32 28 40 41 42 50 58 63 75 114 132 145 149 149 150 150 155 156 151 147 133 125 125 113 114 108 109 115 115 117 117 111 114 107 104 102 98 91 96 86 94 94 97 100 106 118 131 143 148 147 148 145 148 153 146 128 116 105 99 85 87 89 84 86 86 93 92 101 96 95 97 90 94 87 97 97 95 70 42 18 35 30 39 27 36 53 35 28 23 27 26 28 32 28 29 43 38 57 57 58 72 119 135 145 147 149 151 151 151 152 150 144 138 125 124 122 131 135 133 139 142 150 150 143 138 128 119 112 109 104 102 100 103 98 96 101 101 117 131 145 156 155 160 161 162 164 155 131 113 93 93 93 97 98 99 100 106 115 119 121 125 121 124 115 111 104 106 108 100 67 40 17 29 28 39 25 39 55 34 32 23 23 26 27 25 29 26 34 42 56 54 50 72 118 134 140 154 148 148 150 150 144 146 132 135 122 125 136 146 153 159 163 160 164 158 150 139 133 123 114 105 100 106 102 108 100 99 97 104 114 129 154 162 165 172 175 173 171 160 131 103 98 97 104 107 111 110 109 111 116 118 125 125 123 129 125 121 115 109 110 108 73 35 24 25 32 32 27 35 50 42 29 31 19 29 22 27 23 28 25 38 57 52 48 78 121 141 145 149 155 151 152 152 151 137 132 121 120 124 142 144 150 152 149 148 139 144 149 145 146 144 124 111 98 98 102 100 104 102 100 101 115 136 163 174 180 185 184 185 178 167 130 105 99 102 110 107 103 103 107 117 116 123 125 128 118 114 112 123 113 107 111 110 78 36 21 30 30 32 27 39 61 40 33 31 21 23 26 22 20 32 24 30 56 48 56 79 130 142 148 153 154 152 150 150 148 137 127 117 117 125 134 136 136 129 133 136 159 166 178 168 161 152 137 122 103 89 92 93 100 101 94 103 114 137 169 182 187 190 188 188 181 164 122 102 94 104 98 100 97 106 105 118 123 128 134 138 129 116 103 105 107 105 106 106 80 31 25 27 32 34 50 66 86 38 33 31 23 22 30 28 25 32 21 31 53 48 45 89 131 144 153 155 155 154 145 149 143 138 129 122 123 118 126 113 117 121 133 150 161 155 156 143 127 114 111 105 104 89 86 87 98 100 100 108 117 141 171 188 192 194 192 192 186 164 123 103 98 93 93 90 93 106 105 110 113 119 124 131 131 117 108 90 96 99 103 104 84 36 26 29 36 48 69 89 102 54 38 41 32 32 31 32 32 35 29 19 49 48 41 92 138 148 156 157 155 157 149 145 138 132 122 129 121 113 101 100 107 114 114 128 125 111 102 91 66 57 60 75 88 85 81 87 104 108 107 112 131 147 173 189 198 198 194 193 194 167 130 116 99 90 87 84 86 105 107 91 69 69 72 83 94 105 99 95 86 104 103 114 77 43 30 34 39 68 90 94 106 59 55 45 54 44 43 40 41 37 35 19 39 59 41 107 136 149 155 161 160 158 155 148 137 134 129 131 123 111 103 103 97 105 101 110 109 92 79 61 40 48 58 81 93 86 79 92 112 132 134 135 147 154 171 188 195 202 199 196 192 177 141 118 104 85 89 81 98 115 115 86 58 25 39 32 61 81 85 89 88 102 109 111 86 41 39 49 62 79 95 101 100 63 58 54 60 63 68 54 51 51 43 31 33 66 55 101 142 149 156 159 156 163 159 151 145 136 134 132 130 135 141 137 124 127 125 123 117 106 88 79 65 74 87 102 111 109 118 125 133 155 166 163 164 161 173 178 192 200 200 197 198 179 145 122 117 114 103 102 107 116 118 98 58 44 36 47 64 72 91 90 94 102 107 115 91 43 55 74 73 87 98 100 104 65 60 64 68 85 81 77 64 63 52 47 33 59 58 108 142 148 154 157 153 158 161 155 154 151 143 149 149 160 168 161 148 138 147 145 137 131 119 110 105 107 117 119 128 137 151 164 169 174 183 181 177 171 172 177 189 198 201 197 199 182 150 122 126 127 121 119 116 122 120 115 94 85 68 81 88 96 101 110 101 101 105 113 101 46 56 91 91 92 98 100 103 71 64 65 76 81 86 86 79 71 66 46 41 50 57 106 141 146 150 152 157 152 165 158 163 166 165 157 164 171 175 170 166 156 148 144 143 136 134 128 125 125 130 132 142 149 164 173 183 185 186 186 181 174 172 179 184 194 202 199 194 184 149 122 120 127 125 125 124 125 125 121 122 118 105 104 109 107 119 123 115 110 110 113 108 65 67 97 94 96 99 99 102 88 80 81 85 92 92 87 88 85 73 55 53 58 61 94 140 142 150 154 152 160 165 168 166 170 179 174 171 178 179 173 171 169 163 152 146 140 141 129 132 128 142 142 156 166 167 182 187 185 187 184 180 177 173 176 184 189 200 200 196 188 150 122 128 132 132 131 133 128 122 119 119 121 119 112 120 120 124 126 127 120 115 117 110 85 79 97 95 100 96 101 96 96 96 94 100 103 100 94 95 82 77 56 60 63 73 100 133 145 150 150 158 159 170 171 174 175 182 185 178 171 170 173 172 170 161 153 145 144 145 146 146 160 157 162 169 179 180 189 192 191 185 182 183 180 177 175 178 188 199 201 195 191 158 121 126 137 143 136 137 135 133 125 120 114 119 117 120 125 130 132 129 122 121 119 111 89 94 98 97 101 102 99 98 104 100 107 115 119 112 95 92 73 62 54 62 66 80 108 129 144 147 147 153 158 164 170 179 181 185 187 185 176 176 175 177 177 177 173 176 173 177 173 172 177 179 175 182 188 193 196 196 190 185 184 182 178 177 173 173 183 197 201 197 191 161 125 121 135 150 147 148 139 139 137 135 127 126 127 126 131 132 130 130 129 122 119 112 100 102 102 96 98 100 99 102 110 105 113 124 126 114 99 88 65 60 48 66 76 92 112 127 138 145 145 148 154 167 167 175 185 186 188 189 185 175 177 180 182 184 185 187 183 187 184 183 187 189 188 193 197 198 200 195 186 181 182 178 179 176 173 168 178 194 201 198 192 171 130 118 127 143 158 158 156 145 145 137 140 134 136 134 134 135 133 127 130 125 118 115 105 102 99 99 95 102 100 102 123 117 120 137 134 124 103 79 67 51 73 74 97 104 117 129 133 136 142 145 156 158 169 172 182 186 192 190 186 184 183 182 191 190 190 192 189 193 192 191 194 198 196 200 198 198 194 188 185 175 180 176 177 174 173 171 174 192 203 198 194 173 138 117 120 132 155 158 168 161 161 152 151 148 144 142 136 135 131 129 132 125 119 113 109 109 97 95 104 98 96 97 121 123 128 143 141 125 100 75 57 61 108 112 112 112 124 123 126 128 138 144 151 157 163 172 179 189 190 195 193 188 188 192 188 193 196 194 195 197 192 196 197 200 199 197 196 192 189 182 179 172 175 173 174 173 169 174 175 193 204 201 196 179 145 121 116 125 142 158 165 165 168 162 162 157 155 152 142 142 136 137 133 128 119 116 113 102 102 99 101 103 102 95 109 131 129 145 145 125 100 73 47 91 142 149 125 120 126 122 122 122 138 140 147 153 161 172 179 183 193 194 196 195 192 196 193 192 194 193 196 196 194 196 196 195 194 193 189 187 184 177 175 171 174 173 174 174 170 174 180 191 203 200 196 183 154 116 121 118 136 152 161 163 162 165 159 160 156 154 147 151 143 142 138 129 120 116 106 107 99 99 99 101 98 102 86 131 131 150 154 137 110 80 46 110 163 166 135 123 125 124 124 123 132 138 146 147 162 168 174 181 190 193 195 199 196 198 194 191 194 191 191 193 194 192 189 189 189 190 187 187 183 179 173 173 174 177 178 174 172 177 178 192 201 201 195 185 162 126 116 115 130 152 156 160 160 165 160 153 158 154 151 155 151 150 139 133 122 116 107 99 97 105 100 100 102 99 61 128 131 148 160 149 122 89 63 119 171 175 147 128 122 124 127 123 131 137 146 152 158 163 170 179 184 189 193 195 197 199 197 193 194 191 190 193 189 190 190 188 189 189 194 191 187 175 172 169 174 177 175 174 172 177 181 193 202 201 195 187 166 132 116 115 131 145 157 160 161 158 160 154 160 153 159 158 159 154 143 133 117 114 108 96 98 104 101 97 97 101 35 118 133 131 155 160 140 111 93 110 162 177 152 128 125 127 130 125 126 131 140 153 153 164 167 179 181 183 188 192 194 196 198 195 194 190 188 192 191 189 192 191 191 193 193 191 179 169 165 168 170 170 177 175 173 176 184 194 200 201 194 187 172 144 121 113 122 142 153 159 160 160 165 161 160 155 155 160 160 152 143 128 117 113 106 95 100 97 103 98 98 100 25 100 134 125 137 166 159 145 131 122 140 174 156 127 123 128 125 127 123 130 138 144 156 161 168 174 180 177 182 185 190 193 193 196 194 191 187 191 193 191 193 191 191 193 187 178 165 160 161 165 169 174 177 172 178 175 188 199 201 198 191 188 178 148 129 111 116 134 151 157 158 159 164 160 159 154 152 155 153 143 138 129 115 111 104 92 101 98 101 99 102 97 36 68 127 124 117 124 153 163 171 163 138 159 154 129 120 129 128 125 123 126 129 145 152 163 162 165 173 174 179 181 182 189 193 190 191 190 188 189 193 189 189 188 188 184 173 156 151 154 161 165 168 175 177 178 176 177 192 203 202 196 189 190 186 158 133 120 113 125 148 153 162 159 163 164 161 156 152 149 149 139 132 125 115 113 100 100 98 96 101 100 99 99 61 40 117 132 120 112 118 150 173 179 159 144 152 131 122 128 127 126 123 122 128 140 153 157 158 158 167 169 170 173 180 182 187 189 185 190 187 187 188 186 184 182 170 161 147 133 140 157 163 168 176 174 179 174 175 176 191 203 201 190 184 187 184 162 129 126 110 124 133 146 154 158 160 164 158 157 156 148 142 136 130 121 111 111 106 96 100 96 95 104 95 97 74 52 76 134 140 138 132 145 161 171 176 162 147 128 125 126 128 130 122 121 124 136 142 151 154 154 161 164 167 171 173 180 180 184 180 187 185 182 179 173 174 172 162 142 125 121 136 155 163 165 172 166 163 166 164 167 177 186 189 180 178 182 171 151 125 115 121 107 124 141 145 156 154 154 156 150 150 148 143 136 128 118 115 105 99 97 101 98 100 98 102 99 74 63 58 108 144 157 153 160 153 157 167 168 148 129 125 121 126 129 122 120 125 130 136 146 151 154 157 159 163 167 169 173 172 179 176 176 179 174 169 168 164 157 139 128 111 115 131 150 158 158 152 138 139 140 141 147 155 162 164 164 164 166 151 135 116 108 118 103 112 132 139 150 151 152 150 145 145 142 141 129 125 119 108 105 98 100 99 96 96 99 99 98 72 72 59 67 125 148 153 165 166 170 167 164 150 124 125 123 125 129 127 119 119 126 131 139 143 151 155 157 158 162 166 160 169 169 175 171 173 167 169 159 150 143 123 109 105 117 123 142 137 134 112 90 92 112 117 117 126 133 138 136 139 144 129 113 95 104 108 97 101 124 135 143 146 148 146 141 140 137 133 124 123 113 107 104 95 103 92 94 101 95 97 97 82 70 67 28 86 132 153 162 170 175 170 172 159 131 121 118 125 127 124 124 117 121 127 131 138 142 155 152 157 156 160 163 163 162 166 170 168 164 161 153 136 127 108 104 110 120 127 127 115 103 86 51 47 64 92 98 97 104 101 109 109 115 104 86 76 91 99 92 91 115 124 139 137 141 137 140 132 132 126 124 117 110 107 99 99 97 100 92 103 95 98 97 82 68 65 38 30 99 141 158 165 171 170 170 165 135 117 114 123 123 125 117 120 120 124 130 130 134 142 145 144 152 150 152 157 157 159 162 153 155 149 142 124 107 98 108 129 140 138 133 100 92 62 57 57 62 63 74 85 83 87 84 89 87 76 65 76 97 109 97 93 102 113 129 134 134 135 133 128 125 122 117 115 109 105 96 98 97 100 94 97 96 97 98 86 75 57 46 21 50 105 130 148 157 162 160 148 130 107 114 116 122 126 120 118 119 121 128 125 127 134 135 140 143 142 148 149 152 150 147 143 143 139 124 111 98 106 126 148 155 155 146 112 85 68 66 73 68 78 71 71 80 76 77 76 76 67 68 95 109 115 110 94 96 110 122 129 130 130 125 123 122 117 111 114 104 99 96 97 97 98 96 96 95 95 93 84 66 60 40 31 27 51 78 109 125 133 130 121 109 102 112 115 119 128 123 115 116 116 119 123 121 125 127 128 135 136 140 142 144 138 136 134 128 121 109 98 97 123 144 156 161 158 159 134 102 86 77 77 74 75 78 71 76 74 76 77 87 81 85 102 112 116 116 103 92 100 116 122 126 126 122 120 117 111 112 105 103 94 95 101 93 102 94 97 97 95 98 72 69 50 41 35 31 26 33 43 70 77 82 65 72 84 106 115 121 120 121 116 112 115 108 114 114 112 117 122 123 128 124 134 132 132 126 124 116 111 97 92 116 139 156 161 161 156 156 142 124 100 102 87 82 76 81 80 74 81 84 85 92 98 97 101 113 111 119 116 97 94 103 107 122 118 118 120 110 108 108 104 99 98 97 95 97 97 95 97 97 97 91 70 72 52 38 27 32 29 29 32 28 26 25 29 29 69 90 109 122 119 124 110 114 113 107 110 105 103 104 111 112 119 119 124 124 125 122 111 109 94 95 108 134 150 155 159 157 156 151 153 143 134 126 114 101 90 87 85 85 91 88 94 101 99 93 98 102 113 114 116 112 102 93 100 113 108 119 113 108 103 104 96 100 94 95 98 94 99 95 94 97 95 98 76 74 49 34 30 31 22 29 29 19 20 17 20 25 48 79 101 117 120 119 116 109 108 115 103 102 103 101 103 110 114 114 119 118 116 107 102 93 91 112 128 146 157 154 152 157 160 147 149 151 145 141 127 123 108 97 94 91 88 93 98 98 107 94 98 100 107 111 111 115 117 97 91 98 111 110 111 109 98 104 94 93 96 96 99 96 99 97 96 97 94 98 82 74 46 37 35 19 31 24 23 19 18 13 14 23 40 63 96 108 117 121 117 112 110 116 106 105 104 97 103 108 113 116 116 116 111 100 93 91 105 132 147 154 155 156 149 147 156 151 143 142 148 146 135 130 122 105 95 89 84 90 97 98 106 97 102 101 107 106 111 109 122 116 86 94 99 112 105 103 99 93 94 93 98 94 97 95 97 94 97 93 98 95 89 82 54 36 39 26 29 23 23 19 18 18 16 17 43 50 83 101 116 124 117 113 114 115 111 115 107 109 108 114 116 124 123 120 108 91 95 101 122 144 152 151 147 153 144 139 149 150 141 143 148 141 137 137 122 107 98 84 79 90 100 99 100 99 104 100 107 109 105 108 117 126 99 85 93 107 102 102 93 94 90 91 96 96 97 95 98 98 91 96 99 93 90 96 71 45 40 35 25 29 19 25 24 19 23 23 50 53 68 94 110 117 118 115 119 111 118 115 114 113 116 120 123 127 130 118 103 92 104 120 128 143 140 148 132 143 140 130 140 147 136 140 150 146 141 134 122 110 98 92 85 91 99 98 99 102 107 99 100 103 110 104 114 114 115 88 95 105 105 96 89 93 93 94 96 99 90 97 94 94 92 94 94 94 88 96 85 64 48 50 26 34 26 23 27 25 34 49 55 63 55 84 105 115 114 118 118 118 116 117 117 119 121 128 129 134 128 120 101 100 120 131 129 133 120 118 114 126 131 129 138 144 142 143 143 144 146 135 125 111 109 105 99 98 100 102 105 106 103 101 95 100 105 104 109 113 113 99 98 105 102 96 89 94 89 96 95 101 95 95 94 94 95 94 92 97 90 94 90 85 75 59 57 41 36 28 32 34 52 74 65 71 56 69 96 107 112 117 122 118 124 118 123 122 124 130 130 136 130 121 109 115 127 131 124 118 106 99 102 112 126 128 139 144 147 149 145 141 144 140 138 124 129 126 118 109 108 100 106 107 102 99 102 96 100 105 105 107 107 104 105 106 101 99 85 96 94 96 92 98 98 97 94 95 95 95 94 95 88 90 97 85 91 84 89 76 65 53 57 66 73 80 73 66 62 62 85 96 108 119 119 123 123 124 123 125 126 127 135 134 133 130 134 130 131 128 113 101 97 93 93 104 124 126 135 135 135 144 142 143 143 143 147 144 144 143 134 119 113 102 102 97 100 92 93 86 83 96 100 101 107 105 113 99 103 92 91 92 93 97 94 96 96 93 93 96 91 97 95 93 92 88 93 87 92 90 91 91 87 86 86 87 93 84 67 71 63 61 78 87 102 108 119 117 121 124 123 126 128 132 130 136 135 139 148 138 132 123 114 97 95 88 78 86 90 97 104 99 101 105 107 106 112 113 126 128 133 124 117 96 87 87 74 78 77 79 65 67 77 83 93 105 103 112 111 95 97 92 83 94 91 93 96 96 93 93 95 94 94 95 91 94 88 90 88 94 90 91 91 91 89 93 86 94 86 64 41 66 61 79 64 81 87 109 112 113 117 117 124 123 123 131 128 131 136 140 151 149 138 124 116 116 110 105 98 88 75 70 59 56 62 66 64 62 68 69 77 81 86 84 73 56 53 49 44 48 53 75 71 72 77 86 94 101 108 109 105 99 94 85 91 91 97 94 99 93 90 94 96 90 96 95 91 96 85 90 90 90 89 92 92 89 86 99 88 92 71 39 25 61 71 74 78 68 84 99 109 110 114 121 116 121 122 125 126 128 130 140 148 148 143 131 125 133 132 135 138 140 125 106 91 69 69 67 72 61 71 67 72 68 63 70 67 55 65 61 66 64 80 93 99 93 90 95 101 103 110 110 103 97 91 88 88 94 95 97 93 96 93 93 97 94 93 96 92 93 88 87 90 87 89 89 91 94 89 97 92 75 50 20 27 60 69 78 94 72 77 93 99 108 112 113 118 118 121 121 122 125 131 133 141 138 144 136 132 142 144 145 152 153 155 153 142 127 124 119 122 125 121 113 103 102 100 98 97 98 100 98 91 86 96 102 104 104 101 101 101 105 107 109 102 97 85 90 90 94 92 98 95 92 93 94 94 89 99 94 89 93 91 87 95 84 92 90 90 92 91 94 87 54 35 20 18 65 76 86 104 93 71 82 90 103 104 113 111 117 123 124 119 124 124 131 132 135 134 133 136 146 153 151 153 155 155 153 153 154 160 169 175 185 188 175 154 148 141 139 139 134 134 119 110 100 102 108 106 110 109 105 98 110 105 106 98 90 90 88 95 91 91 96 94 91 96 96 96 94 94 95 91 97 85 88 87 87 88 93 90 90 93 90 75 50 26 18 16 71 84 88 102 103 76 75 81 93 99 109 109 116 118 116 118 122 120 126 128 130 131 138 145 149 157 156 157 155 156 150 150 146 149 154 158 167 173 168 151 148 147 144 146 145 136 129 115 109 102 106 109 109 110 108 103 110 106 100 92 90 83 96 91 96 91 94 93 91 93 96 96 91 96 88 97 91 87 88 86 88 91 90 87 87 89 88 65 47 26 15 19 67 92 96 106 112 97 75 68 85 100 100 108 113 115 113 111 121 119 119 127 130 133 142 151 150 152 154 153 153 151 148 147 148 141 141 140 137 141 135 127 122 122 127 124 124 118 117 117 110 107 108 108 113 110 111 106 106 101 100 87 84 89 87 93 96 93 96 94 92 97 94 90 94 91 94 94 92 90 86 89 89 89 88 88 87 84 82 65 38 25 13 13 75 95 102 116 118 112 89 69 80 88 102 105 110 109 112 107 116 120 118 123 130 131 140 148 150 149 152 152 153 147 144 143 139 134 129 132 125 123 116 105 102 100 103 100 100 104 103 109 108 105 110 107 113 107 113 108 107 100 97 90 74 87 94 87 96 94 93 90 93 95 95 90 95 91 91 95 87 86 89 83 89 84 85 80 84 78 76 57 34 24 14 19 70 96 111 117 117 112 99 77 68 78 95 99 105 105 115 109 108 115 113 121 122 133 133 147 141 146 147 149 151 147 145 141 134 131 117 119 110 119 106 100 98 100 93 97 99 99 99 98 101 105 106 111 109 110 114 105 106 95 96 83 60 80 91 93 93 93 93 90 100 92 92 95 91 95 86 94 92 81 85 85 84 86 82 80 82 79 75 50 34 26 18 10 73 99 110 117 116 111 100 90 64 76 77 93 98 102 109 107 112 111 116 118 124 127 127 140 139 143 148 145 144 148 141 139 132 125 120 110 102 105 94 96 95 101 103 93 99 95 94 97 106 108 107 108 112 109 107 110 100 94 95 72 47 68 90 93 96 88 95 92 96 91 93 91 94 95 90 92 97 83 85 87 78 82 76 83 75 76 66 46 39 21 16 21 69 100 114 119 115 107 102 88 79 64 68 86 92 103 105 110 112 111 115 120 120 125 125 134 139 142 147 139 141 141 138 134 133 127 122 116 106 100 96 94 91 89 97 94 100 94 95 101 106 106 108 108 112 106 109 101 98 94 83 55 45 54 80 92 94 92 92 94 94 90 94 90 95 91 96 87 99 90 86 80 80 75 74 81 75 77 61 41 32 27 17 19 83 100 114 121 118 109 103 87 87 67 60 70 87 96 110 108 111 114 111 118 120 122 121 130 133 140 143 137 142 138 136 131 132 127 124 120 113 108 102 96 91 85 94 92 95 100 94 104 105 107 108 111 108 106 106 95 99 86 69 45 43 51 60 76 86 86 92 92 95 89 92 92 92 93 93 91 92 83 81 80 79 77 73 83 76 66 55 47 34 26 13 40 89 100 112 119 119 112 108 97 90 78 67 61 69 84 100 108 112 107 111 113 117 119 124 128 136 136 142 138 142 135 138 130 129 125 126 119 113 109 100 97 96 93 92 94 94 100 101 103 108 107 107 113 108 110 103 92 98 69 52 34 44 47 42 46 57 79 85 88 93 91 94 87 94 95 88 93 88 86 80 86 75 82 78 84 78 56 53 41 33 24 18 70 98 107 107 117 120 118 117 107 99 86 75 67 54 65 82 98 110 110 112 114 120 125 122 130 131 139 137 142 146 144 138 136 128 132 128 129 123 117 112 107 102 99 100 92 100 101 109 108 116 111 114 114 112 107 103 94 80 49 31 34 48 44 50 40 40 44 65 72 86 90 88 91 90 95 90 91 96 81 81 79 75 79 79 78 69 55 53 33 33 21 27 92 104 105 104 113 121 128 124 114 108 92 82 79 53 57 65 79 101 105 111 114 119 120 123 129 132 140 142 146 143 149 145 145 140 143 140 138 133 135 133 128 121 114 114 104 110 113 112 115 118 115 120 114 110 103 100 86 57 30 33 36 43 44 53 44 38 46 39 47 57 72 85 85 90 91 89 92 90 83 79 78 72 72 79 78 63 54 37 41 36 18 37 111 109 103 107 112 122 129 135 124 110 104 83 84 64 62 52 67 77 93 104 110 121 119 122 126 131 137 141 142 141 148 153 152 148 156 154 151 149 146 148 138 132 127 128 129 125 124 125 122 124 116 123 117 105 100 92 77 30 31 29 40 46 46 46 47 41 47 37 39 45 46 53 72 86 89 87 94 86 83 79 81 69 81 83 69 61 50 36 37 43 12 60 121 111 108 96 116 120 133 131 133 120 106 96 82 76 67 62 57 60 78 84 98 109 114 122 128 129 133 137 138 141 150 161 161 163 157 163 151 154 154 149 135 131 125 130 135 132 129 135 129 129 124 117 118 101 102 77 53 14 28 26 42 43 48 49 43 41 46 39 42 40 42 43 44 55 75 87 86 91 75 77 69 75 76 78 68 60 43 40 38 44 13 73 122 122 105 103 111 123 130 132 127 125 114 101 93 85 74 62 58 50 58 65 82 92 106 113 121 121 133 132 133 139 143 157 160 167 162 161 159 152 152 145 133 127 123 130 131 133 135 138 133 133 129 120 109 105 90 82 30 18 27 36 37 41 52 46 43 40 41 42 37 36 47 39 45 43 39 64 71 84 61 71 69 79 80 79 63 52 51 41 43 34 17 85 129 122 109 102 112 120 132 132 131 125 125 109 100 86 79 66 63 58 54 52 65 72 88 104 109 116 123 130 128 135 142 142 158 162 158 158 156 153 145 141 128 118 124 124 138 133 138 135 139 130 128 115 105 93 96 72 26 19 28 37 39 46 46 52 41 40 39 45 32 42 39 46 39 45 41 44 48 59 77 72 80 79 81 74 60 53 46 47 47 37 16 93 134 122 110 105 105 121 127 131 133 128 124 119 104 94 87 77 69 63 60 57 53 57 71 83 101 103 119 118 125 128 134 140 138 152 148 151 150 143 140 130 123 112 117 122 126 131 129 134 131 127 117 107 95 92 88 70 26 17 31 39 41 47 48 49 39 38 36 41 37 36 39 39 45 44 40 45 41 49 74 68 77 77 84 69 59 54 46 53 42 41 17 94 136 121 117 105 105 117 127 129 137 133 128 119 116 97 95 84 79 70 62 63 58 54 57 60 77 94 99 111 119 122 133 130 137 135 142 140 140 137 129 126 121 111 115 122 125 130 130 132 118 117 109 97 88 95 88 60 17 21 33 39 41 48 46 55 45 34 38 34 43 37 44 32 52 33 47 39 45 41 59 64 67 78 79 63 60 56 57 45 50 30 30 104 130 127 116 103 106 108 130 130 136 135 133 123 115 110 92 95 75 75 62 68 67 59 57 51 58 69 85 96 107 115 113 114 124 124 130 129 131 127 118 118 115 121 112 122 119 122 121 112 116 98 100 92 84 95 87 43 11 30 34 42 45 49 47 49 42 39 33 34 35 41 39 41 42 43 43 43 47 42 64 69 75 78 74 70 52 55 56 50 51 38 29 117 133 126 121 111 104 109 121 129 139 135 137 128 121 111 103 92 89 75 72 67 71 66 64 62 57 54 67 78 84 95 93 98 106 108 105 111 114 113 109 106 107 111 112 109 111 109 110 98 102 88 85 84 97 96 69 29 13 33 41 42 43 51 48 53 43 35 39 34 39 40 40 37 43 39 46 42 48 48 74 81 85 78 74 62 56 53 53 50 45 33 34 117 135 128 122 117 104 106 111 127 133 136 136 133 130 115 107 96 91 79 79 65 69 67 70 68 62 56 57 52 65 69 74 80 85 90 81 101 105 93 96 96 97 98 103 99 101 95 93 84 87 80 84 90 100 89 47 17 22 39 42 46 41 53 48 49 40 35 34 44 40 35 38 34 46 38 40 46 48 44 77 83 84 78 73 57 66 44 52 49 46 32 36 111 133 131 122 113 111 100 111 123 133 134 138 138 129 121 109 103 97 82 80 72 65 66 71 65 69 57 56 57 49 55 63 59 64 70 68 77 88 78 76 89 76 87 86 89 82 78 72 76 73 86 91 102 95 68 26 21 29 38 46 43 46 46 46 48 43 35 37 44 30 48 36 34 42 39 38 46 50 45 