P2
92
112
255
109 111 108 106 114 109 111 111 110 110 113 112 108 111 112 113 111 114 112 113 115 110 85 68 78 92 93 91 77 70 81 87 78 62 77 65 109 85 57 72 65 59 66 84 91 99 99 90 88 88 92 97 85 86 68 58 79 58 61 53 55 49 51 56 37 46 60 21 74 88 98 113 111 109 108 109 110 110 107 108 110 110 107 113 109 110 108 108 106 110 108 109 111 106 110 109 111 108 111 109 111 113 111 112 112 114 111 113 111 114 112 114 107 102 66 71 75 79 68 98 71 74 65 78 77 75 69 56 117 98 73 62 68 74 53 52 68 88 102 114 109 103 99 108 105 103 88 72 69 62 47 52 42 39 30 34 49 44 42 50 37 81 93 102 112 109 110 107 110 110 109 110 107 108 109 110 111 109 108 108 110 107 107 109 111 108 111 108 110 109 112 109 113 110 112 114 113 111 111 112 113 113 111 110 102 89 69 66 70 67 86 94 73 73 67 74 76 89 79 51 117 80 91 78 69 72 76 65 54 58 86 100 107 101 118 112 100 77 73 64 53 46 44 45 36 36 29 26 27 33 42 48 45 46 85 84 107 112 107 112 107 108 109 110 108 112 108 111 109 109 109 108 109 110 109 111 107 109 112 109 111 109 112 111 111 112 111 113 111 113 112 112 112 111 111 92 77 79 79 76 81 85 106 106 102 79 77 75 91 74 87 65 85 85 79 88 80 73 80 73 68 77 72 75 76 61 71 70 58 57 66 62 55 53 61 40 39 37 33 29 23 18 26 48 35 55 48 79 78 108 106 105 110 110 109 111 111 110 111 110 108 111 110 107 110 108 111 109 112 109 110 110 111 110 112 110 110 114 112 111 109 114 110 115 104 96 87 88 71 74 68 63 90 112 126 145 152 121 91 84 96 82 61 95 80 86 72 97 87 76 83 76 72 71 75 68 64 66 68 59 49 42 48 51 54 51 72 53 51 35 31 25 28 30 20 36 32 55 42 53 67 82 100 105 99 106 108 111 110 109 110 112 108 110 111 107 113 108 110 109 110 108 110 111 108 110 113 110 111 110 111 111 111 112 114 103 81 64 66 80 81 61 68 54 131 118 133 134 151 164 136 76 113 87 87 68 111 93 74 76 92 83 97 85 78 71 82 76 79 71 76 71 72 63 57 46 42 49 60 63 60 63 48 36 41 30 35 30 34 70 55 55 60 72 96 102 104 100 98 107 108 109 108 113 107 112 108 109 111 107 108 110 110 111 109 109 110 110 111 112 107 112 110 112 112 114 113 78 69 68 77 69 69 70 75 73 126 137 129 121 115 127 149 118 102 92 93 76 73 94 96 68 74 94 80 81 74 72 73 70 79 75 75 82 75 71 65 66 63 55 54 72 49 44 72 49 40 37 30 38 39 72 52 51 44 67 73 101 93 100 97 77 90 111 111 112 107 112 107 109 107 106 111 105 107 108 110 110 110 111 111 112 110 111 110 110 111 114 97 59 62 77 77 59 68 114 73 75 91 113 132 137 107 101 114 138 118 94 89 85 76 82 90 104 64 65 99 78 72 74 72 57 59 48 54 66 66 64 76 61 57 63 51 56 66 57 62 60 51 37 36 43 58 51 40 42 56 54 47 80 89 92 76 70 84 98 112 108 110 111 109 111 112 107 112 108 113 110 111 107 113 108 110 109 111 108 116 111 112 107 80 64 84 66 84 71 103 108 118 92 76 96 108 115 124 113 92 116 144 131 100 86 89 72 90 84 93 80 63 94 81 83 75 76 56 57 55 59 63 65 65 70 69 65 68 83 66 61 61 65 63 40 54 84 65 48 52 41 38 46 33 52 77 94 66 95 70 105 106 107 109 108 111 110 110 108 111 109 110 112 108 111 110 110 110 111 110 109 111 110 93 74 76 83 84 66 92 90 112 93 108 117 95 92 84 95 102 121 114 101 129 152 149 105 92 85 84 90 70 94 97 74 99 90 84 75 63 67 56 59 50 40 50 65 72 78 96 95 81 71 63 55 55 56 97 87 64 61 52 47 33 35 27 21 71 85 70 87 83 98 109 102 108 110 112 110 107 109 108 110 110 112 107 109 111 110 109 111 109 105 105 99 69 66 76 81 69 70 102 97 124 103 93 118 117 96 78 81 88 92 109 123 121 129 148 145 132 98 106 99 89 73 84 102 89 84 96 82 69 66 66 58 57 52 37 46 59 65 65 57 62 53 46 43 35 91 105 78 52 54 63 36 27 34 31 26 54 76 67 101 87 99 104 105 102 110 111 109 107 111 107 110 110 110 109 110 112 110 111 106 104 87 78 93 62 82 71 66 70 71 98 95 98 119 96 87 111 119 121 89 82 86 72 92 123 116 132 133 143 139 134 122 115 99 86 86 100 95 83 99 90 78 72 64 54 61 60 45 50 54 46 54 64 56 52 56 85 107 95 52 57 58 70 31 25 27 31 30 45 71 69 97 93 105 109 105 101 107 114 111 108 109 108 109 110 109 112 109 112 100 99 101 85 89 70 71 65 81 77 50 90 78 79 96 98 96 110 96 101 91 108 120 112 105 92 82 94 108 112 122 126 130 140 135 137 135 106 86 82 82 92 91 96 103 93 73 61 55 51 63 63 41 65 67 75 66 65 80 110 97 72 46 55 64 66 26 23 27 33 22 38 59 76 86 104 103 114 113 106 101 113 108 111 106 108 112 108 110 110 115 108 78 89 72 59 76 59 64 69 65 71 63 93 76 76 69 91 87 90 105 108 103 90 85 101 109 107 97 85 89 93 103 115 129 126 120 129 142 138 127 119 98 85 84 78 83 111 104 101 78 49 50 63 80 64 56 76 74 83 100 103 82 60 42 73 80 58 31 21 23 31 25 33 52 83 96 105 106 112 114 111 102 108 108 112 109 111 110 111 111 109 114 102 70 72 79 64 59 59 66 76 63 47 58 95 70 71 65 73 80 90 98 109 119 107 116 105 107 123 128 101 106 92 85 93 92 120 122 111 105 103 110 120 128 119 113 102 88 82 80 100 104 99 82 71 71 84 82 79 80 87 92 76 64 56 57 73 71 67 23 26 22 26 30 32 32 61 105 105 104 103 116 111 102 107 109 110 110 109 109 108 111 112 116 92 71 53 64 45 57 60 63 75 76 51 43 67 63 58 64 62 59 68 81 92 105 114 119 115 100 103 107 105 105 103 110 104 89 91 91 100 103 101 104 97 100 105 109 107 106 109 106 109 101 89 97 95 88 79 90 92 90 82 89 62 76 64 68 56 71 73 31 30 25 29 29 21 43 43 67 108 110 101 112 107 103 106 110 107 110 108 109 108 110 109 113 79 54 60 69 57 47 63 58 59 80 72 47 37 55 55 60 70 57 66 68 64 73 94 93 104 103 117 108 102 98 93 97 97 88 87 83 81 83 90 83 86 86 87 90 91 83 88 84 80 77 79 84 93 97 91 96 100 102 97 91 92 90 87 79 67 75 73 47 37 30 26 32 22 28 62 35 67 99 103 108 103 105 105 111 103 109 108 107 110 110 108 113 96 54 45 51 60 50 57 57 49 69 66 66 51 39 50 62 55 69 66 79 84 78 88 82 84 81 93 93 87 90 87 99 106 105 101 98 86 80 94 92 90 84 87 79 84 82 90 91 89 93 101 100 112 116 110 121 120 118 120 118 115 108 102 95 82 84 65 77 50 39 31 32 37 30 37 68 39 64 91 108 97 99 108 108 109 108 109 109 110 110 111 109 100 52 32 37 48 49 51 49 54 72 61 50 66 43 37 49 61 52 70 63 72 67 69 68 72 74 80 91 85 88 93 96 97 99 98 103 96 91 84 88 90 86 87 88 91 100 110 115 121 122 131 137 137 144 140 143 146 144 142 147 136 127 111 112 95 91 70 82 74 47 37 29 35 34 34 60 68 62 60 79 98 102 105 105 108 107 107 107 110 110 114 94 73 37 30 33 57 45 68 46 53 66 72 58 58 51 38 37 52 59 61 72 82 70 81 80 91 83 85 89 86 96 95 101 101 101 101 97 87 92 90 97 107 109 110 108 116 127 143 147 150 147 150 156 161 161 160 163 155 154 160 157 156 146 128 122 102 99 70 72 99 64 51 25 36 36 38 45 66 70 51 66 81 95 104 92 106 107 103 112 110 113 112 65 38 30 33 23 52 51 63 63 47 51 61 68 64 55 39 30 39 52 63 63 61 74 75 80 93 91 92 98 98 103 105 112 115 116 111 114 113 117 117 116 126 131 127 135 147 161 162 176 167 170 163 168 174 173 173 177 166 165 159 161 159 155 146 139 105 104 84 58 93 98 69 27 39 36 34 38 55 65 42 65 91 64 107 98 100 107 108 107 111 118 83 31 29 22 25 22 46 75 72 60 39 45 39 54 73 78 63 52 51 48 55 64 73 79 84 95 96 101 105 111 115 123 126 123 128 136 133 139 143 141 136 144 149 151 151 158 170 172 179 181 180 179 174 179 181 178 182 182 181 177 174 167 168 157 151 148 120 109 102 67 68 113 88 61 30 30 34 40 58 53 62 38 83 84 84 103 96 106 111 107 118 91 36 26 27 22 28 44 56 72 74 67 56 48 48 39 39 55 72 75 72 76 69 76 83 97 87 94 109 113 119 119 128 132 139 144 148 154 158 160 155 158 159 167 168 169 173 175 179 180 191 185 184 181 180 185 187 184 187 184 187 184 180 176 174 167 156 155 140 126 113 89 56 112 108 77 36 28 27 47 55 68 68 63 49 80 91 76 97 98 108 108 118 54 26 25 19 32 47 53 51 58 75 68 64 51 57 53 45 45 66 76 88 97 97 95 99 94 97 110 129 136 145 148 149 157 155 165 169 177 179 182 179 171 180 175 179 176 182 187 183 185 191 187 188 186 183 187 188 189 190 188 189 186 184 178 177 175 161 156 152 142 127 109 77 99 117 91 57 39 31 28 63 63 74 68 57 61 65 88 71 97 91 109 109 37 28 18 26 43 51 46 49 58 81 93 77 71 77 71 72 94 105 115 113 113 111 107 119 116 130 146 156 163 165 168 169 173 175 186 190 188 187 187 186 181 183 180 180 182 191 191 190 189 191 191 192 189 192 190 191 193 193 190 187 190 186 182 179 179 170 156 156 148 148 129 107 91 119 108 68 57 44 31 51 71 72 76 51 70 42 74 78 74 91 95 105 34 24 32 34 47 47 46 47 67 78 104 97 105 122 120 128 134 138 148 155 146 138 122 141 158 164 168 176 179 184 184 186 187 192 195 195 193 190 191 190 190 192 189 187 191 193 194 193 192 195 195 193 192 195 195 195 197 196 192 189 190 186 183 182 177 174 164 157 151 153 141 125 108 114 134 76 61 56 43 45 71 65 92 59 69 58 42 68 53 84 88 93 42 25 34 43 43 40 55 60 82 96 112 101 135 148 152 153 153 141 146 153 155 149 156 173 186 185 182 187 193 197 199 197 197 195 196 196 192 196 193 195 194 197 195 194 196 195 196 196 196 200 199 195 198 198 197 200 197 197 196 188 185 187 181 183 175 175 168 164 154 155 152 138 121 116 139 107 56 55 55 52 60 68 68 103 62 74 56 28 51 48 88 92 44 28 35 36 45 48 71 100 82 95 117 114 153 165 159 166 169 168 164 165 172 180 173 184 194 198 198 196 196 198 199 196 199 197 197 198 196 198 197 199 196 198 198 198 195 197 194 199 200 202 199 199 200 198 197 199 197 196 198 191 191 184 184 184 181 176 170 166 162 155 160 143 134 113 148 119 72 63 56 64 57 67 34 97 86 71 70 42 27 36 61 94 42 35 35 41 58 61 79 64 65 98 125 122 156 167 162 166 178 179 178 183 185 180 183 187 190 200 199 201 197 200 198 198 202 201 201 204 201 200 200 197 199 195 198 199 199 200 199 201 201 202 201 199 201 197 198 198 200 197 196 193 191 191 184 182 184 179 168 167 160 159 160 151 141 117 142 130 81 41 67 58 73 53 54 60 83 63 64 67 26 27 34 82 39 38 39 51 52 50 49 56 65 106 128 126 161 170 166 165 182 182 177 186 185 182 186 190 191 199 199 198 199 199 200 203 202 202 204 203 203 204 201 200 197 198 197 203 198 200 199 201 202 201 201 202 201 198 200 197 200 196 194 192 190 188 186 184 178 179 168 169 161 160 159 157 144 114 139 137 97 52 49 71 69 49 62 37 61 72 45 74 45 21 29 75 38 38 45 47 42 41 40 55 73 107 126 134 165 168 166 171 180 180 183 182 187 186 187 189 197 198 199 201 197 199 201 203 203 203 204 204 203 203 201 200 201 198 199 201 201 201 202 198 201 200 200 202 201 198 201 199 198 196 196 191 193 190 181 185 179 172 173 168 161 166 160 159 141 121 129 141 104 70 57 53 86 61 49 28 55 53 58 37 58 27 18 54 41 41 45 33 36 44 49 57 68 111 124 142 161 167 167 171 175 179 181 185 185 187 185 189 196 196 198 199 196 199 199 199 199 203 201 200 201 204 201 202 202 200 199 202 203 201 202 199 199 201 200 202 201 200 199 198 195 195 192 190 193 189 179 184 181 167 174 168 160 163 163 155 139 119 127 140 115 76 70 52 68 90 33 30 40 49 47 36 36 46 18 49 48 35 39 37 43 49 53 47 72 113 128 143 166 170 172 172 175 174 181 184 188 185 187 188 193 195 196 201 196 195 198 198 199 201 200 198 201 201 202 202 201 201 200 203 202 202 201 200 200 203 202 202 200 197 199 195 189 195 192 191 191 183 182 183 179 171 173 172 163 167 158 151 130 127 133 129 119 81 62 63 67 86 57 22 29 46 36 45 30 35 29 60 37 41 41 48 43 42 45 50 75 114 131 144 162 172 174 170 176 176 185 186 185 186 189 189 189 193 196 199 197 194 193 198 198 201 201 201 199 201 200 200 199 199 197 202 201 200 199 199 199 202 206 204 201 193 195 194 189 193 192 191 190 183 178 183 178 178 171 173 163 167 161 146 130 128 138 130 110 92 72 58 73 71 70 20 27 31 38 35 36 27 38 47 32 36 40 45 42 39 48 52 86 117 130 147 165 171 172 170 179 181 185 182 183 189 189 195 192 196 200 203 197 199 196 196 199 200 202 201 200 202 202 198 202 201 200 199 198 199 198 199 201 200 203 205 203 184 191 191 193 189 193 188 192 183 178 183 181 176 169 168 166 161 159 144 132 125 136 121 111 86 88 55 60 82 67 31 22 25 35 32 29 31 32 49 36 42 38 47 39 45 42 53 87 113 134 146 166 169 173 176 179 181 182 182 180 191 192 194 196 194 198 200 201 202 197 193 203 199 199 201 200 201 202 196 200 198 202 201 199 197 201 199 203 201 201 203 196 189 187 190 191 191 188 186 186 183 177 183 184 179 168 170 166 158 151 139 130 130 123 118 101 91 62 70 56 72 88 35 21 20 21 33 24 35 20 53 38 34 39 42 40 44 36 57 94 111 124 149 162 167 169 174 184 184 184 185 186 190 189 194 195 196 197 200 201 201 200 194 197 204 198 199 198 201 200 199 198 197 200 201 201 198 199 201 201 202 201 199 201 189 191 194 193 192 188 185 181 183 181 181 181 174 172 173 160 154 143 142 134 124 126 120 96 76 85 56 49 53 85 54 25 22 17 27 28 27 28 53 34 38 34 45 36 43 38 55 93 116 128 149 160 171 173 176 179 183 188 185 188 192 191 195 196 198 199 199 201 203 201 198 200 199 201 198 198 198 197 197 200 199 198 201 200 199 202 201 202 200 200 198 196 191 194 196 193 188 189 183 184 180 184 180 175 172 176 165 155 144 137 137 132 122 115 113 100 92 68 78 60 45 65 66 33 18 22 15 25 33 24 39 35 38 34 44 28 38 33 57 102 120 133 149 169 173 177 179 183 184 187 188 187 191 193 193 199 199 199 199 201 203 201 203 200 201 200 200 198 196 198 197 199 198 197 201 200 199 203 201 200 200 202 199 196 193 194 194 191 183 185 180 183 180 182 185 175 175 175 164 150 142 139 138 131 126 111 105 87 92 84 71 64 45 51 64 37 21 22 17 16 24 29 38 33 33 38 35 34 35 36 60 104 122 135 159 172 177 177 181 187 188 190 188 189 193 195 197 198 200 201 201 203 203 202 204 198 202 200 202 197 195 199 198 198 201 199 200 200 199 202 200 201 198 200 199 197 195 194 194 188 187 187 180 185 182 179 181 176 175 173 160 147 141 134 138 132 124 110 96 93 76 79 74 68 55 43 59 39 26 21 20 17 15 32 40 33 31 35 36 34 35 27 66 106 129 136 166 173 175 177 181 186 190 189 188 190 193 194 197 201 200 201 202 200 202 202 206 201 202 203 201 201 199 196 196 197 201 197 202 201 202 201 202 201 200 199 197 198 195 193 195 189 188 187 182 184 178 175 177 171 176 176 157 143 139 137 138 125 122 112 94 86 88 66 73 68 61 44 45 39 25 26 23 20 16 20 46 31 26 41 44 30 34 16 81 115 127 147 167 174 176 175 182 181 185 185 189 186 187 192 193 200 200 200 201 198 204 203 205 201 198 203 202 203 201 200 193 200 198 200 201 201 202 202 201 202 203 201 199 199 197 197 197 193 194 186 182 185 178 172 175 168 171 173 155 134 133 142 135 120 112 106 102 80 68 64 67 63 60 44 42 32 28 21 25 24 22 14 45 34 24 52 42 35 35 21 86 116 131 151 169 174 176 179 180 181 181 183 180 185 185 188 189 190 195 194 198 199 200 205 205 202 200 199 203 202 200 200 198 198 199 197 201 201 201 202 204 201 204 201 200 198 201 197 195 192 193 186 184 184 179 171 169 169 171 166 150 134 134 139 136 123 111 99 102 88 62 64 62 54 56 39 49 27 29 23 24 33 19 20 44 20 44 53 47 37 40 17 92 116 138 151 175 173 175 179 180 179 177 176 180 176 180 183 183 187 190 190 191 193 197 201 201 201 199 202 204 203 200 199 198 198 198 197 201 200 202 203 205 202 202 202 200 199 198 199 193 193 191 187 182 177 178 171 167 174 168 157 144 133 132 140 137 122 110 108 88 89 61 48 61 49 45 41 45 29 27 25 18 30 24 17 45 27 50 53 46 46 41 13 99 119 134 162 164 161 169 166 172 181 177 177 183 177 178 180 173 183 181 186 187 190 191 189 192 196 197 205 204 201 199 197 198 197 199 197 200 198 205 204 204 202 200 200 200 198 193 196 192 190 190 181 181 179 178 177 171 173 164 157 141 137 131 133 136 130 106 95 92 78 56 52 52 55 41 44 34 31 24 26 22 17 28 26 40 32 22 43 55 41 54 14 100 122 133 143 138 150 152 148 162 169 162 153 163 165 166 172 169 173 171 177 184 181 183 182 186 185 193 199 202 198 192 192 192 198 197 193 195 197 198 200 196 199 197 193 198 193 190 193 195 189 185 179 179 177 175 173 172 173 166 154 143 134 132 132 130 128 116 84 82 72 61 41 52 45 48 41 31 25 26 18 23 18 16 31 35 30 19 39 51 57 57 19 97 122 114 117 122 123 119 144 156 151 129 118 120 126 127 144 142 155 159 159 174 175 178 176 183 182 186 189 192 193 184 186 185 192 193 186 187 187 191 185 186 185 193 186 187 187 184 189 188 186 179 174 181 179 175 176 171 173 170 152 143 133 130 133 126 125 122 99 65 68 55 42 44 44 44 47 31 19 30 17 19 22 15 22 41 18 31 41 45 63 59 14 95 126 112 110 101 107 105 120 120 123 112 107 110 104 100 103 100 121 134 143 158 167 172 174 179 178 177 181 183 179 181 179 178 184 180 181 177 179 182 171 173 167 176 176 175 180 182 184 186 180 181 180 182 180 178 177 173 171 165 149 147 130 133 137 124 128 125 115 61 59 49 47 35 51 30 56 23 22 25 24 22 21 20 21 64 15 40 39 33 55 54 20 109 134 116 103 116 102 88 103 119 108 105 98 83 81 92 86 89 87 99 117 133 144 157 166 168 169 172 177 172 175 179 170 175 180 169 162 165 163 171 151 151 145 139 145 154 165 167 164 173 165 174 176 184 185 181 177 175 172 166 151 143 127 139 135 121 121 126 111 78 48 48 36 46 46 33 42 30 22 20 22 26 27 18 23 71 27 45 29 39 59 64 29 123 131 116 109 114 130 126 122 131 136 134 137 132 119 108 90 80 86 81 98 104 118 140 149 158 168 168 174 175 161 173 166 173 172 165 156 154 145 151 139 139 122 108 115 128 119 125 134 133 141 145 154 145 172 170 159 161 169 169 150 135 125 138 130 117 126 128 114 80 52 46 45 47 46 31 38 25 22 19 19 25 23 30 26 80 46 51 29 43 57 46 35 133 139 114 114 120 140 140 129 126 126 122 119 121 128 129 117 108 107 97 93 101 101 122 138 148 162 168 174 176 170 168 174 170 167 161 154 143 125 138 130 118 102 110 94 91 89 99 109 114 120 132 138 136 137 148 139 142 139 146 146 134 126 136 121 127 130 124 117 81 49 42 35 66 45 29 26 28 15 25 22 18 20 22 25 77 65 65 33 42 46 37 46 143 145 121 112 125 136 114 95 93 91 103 93 70 90 91 119 128 110 123 121 115 102 105 123 147 160 168 181 183 182 177 181 181 162 159 149 139 124 124 120 113 104 95 90 80 81 86 86 95 102 113 123 132 135 126 122 116 114 104 126 128 124 136 122 137 132 121 116 77 42 35 37 56 45 24 29 21 22 21 26 18 23 23 26 73 95 88 39 56 46 26 74 142 144 145 120 122 115 87 87 76 123 146 110 86 68 104 80 86 132 108 128 140 128 104 113 140 160 172 182 188 186 184 189 188 175 156 146 130 118 121 118 121 120 114 117 115 112 116 114 108 105 110 105 116 122 109 115 112 110 103 111 104 114 133 130 138 130 115 109 74 36 31 33 51 36 29 21 21 25 19 19 26 25 26 29 75 92 95 41 72 47 25 98 138 140 144 142 122 112 90 82 98 156 168 112 113 33 107 97 76 106 127 109 129 139 121 106 133 166 179 185 192 193 191 192 191 180 155 132 124 128 137 149 155 152 142 135 125 125 135 150 159 148 141 136 130 129 118 116 127 130 116 115 103 97 120 139 131 121 114 116 65 30 30 31 44 29 25 25 21 28 21 27 32 27 31 29 74 87 100 47 69 54 29 114 155 130 134 126 129 113 98 130 124 161 175 113 129 80 45 94 95 143 147 116 116 131 132 109 118 171 185 193 195 197 198 198 196 182 150 126 128 141 147 152 147 123 119 114 118 114 107 111 123 133 142 153 157 158 147 136 144 142 131 110 106 99 107 137 128 118 122 112 69 29 26 29 39 23 25 21 26 26 26 29 29 32 26 28 80 77 108 59 66 58 47 122 156 154 127 122 128 136 127 142 165 165 186 147 122 118 103 120 120 176 188 129 117 133 132 119 117 170 187 197 197 197 200 198 195 178 136 124 132 142 141 127 119 112 123 136 112 64 56 63 50 68 106 116 112 141 154 149 144 148 140 125 107 100 125 134 128 122 126 110 67 29 22 28 28 25 24 25 26 25 27 27 33 34 29 34 79 72 118 90 67 53 61 127 156 154 157 150 145 169 143 143 146 169 181 191 180 158 152 152 161 178 160 154 124 137 158 125 126 164 191 195 200 202 201 199 192 163 134 129 140 138 128 118 119 119 145 195 113 85 27 178 45 44 54 104 121 100 121 143 141 139 140 132 124 117 117 134 129 127 125 105 63 37 15 27 22 29 28 29 31 28 39 41 55 42 35 36 82 62 116 109 86 54 77 143 172 168 163 177 153 174 163 147 154 162 161 158 161 172 170 177 171 179 173 174 172 139 188 153 137 163 191 197 202 204 203 199 191 157 138 141 169 151 122 128 125 146 178 210 103 88 36 57 47 66 72 129 98 115 88 112 143 139 136 139 137 135 128 127 127 126 121 105 57 36 15 27 27 27 33 27 34 39 42 48 76 31 22 57 79 64 107 117 105 60 88 143 166 178 175 182 155 151 164 163 155 158 165 169 173 170 167 161 152 160 168 184 190 190 192 176 148 159 188 197 203 205 201 201 189 154 140 159 183 145 125 150 135 153 179 198 140 89 88 60 79 84 114 160 110 87 116 95 135 144 140 148 149 144 138 124 124 124 123 111 59 27 21 22 28 34 38 35 45 56 54 68 95 64 47 64 79 68 108 118 116 79 89 147 175 184 184 186 160 158 161 159 150 147 142 147 148 149 151 160 163 176 181 182 186 195 190 184 162 160 185 194 205 203 202 197 186 146 149 169 186 175 180 163 156 160 171 176 179 132 113 104 108 111 154 158 126 112 100 117 128 145 141 153 140 144 149 118 123 127 129 112 62 22 25 36 44 62 65 57 71 73 59 109 99 56 78 90 79 68 111 116 125 98 94 153 173 181 188 192 182 153 153 153 148 154 152 160 157 165 170 173 175 181 181 181 187 188 185 183 163 162 188 194 203 203 201 195 179 145 154 172 180 179 177 169 160 161 172 174 181 181 177 167 161 164 164 160 144 138 134 130 143 153 154 154 146 146 135 118 126 126 131 116 52 23 29 48 54 64 79 78 83 90 83 136 82 57 88 99 73 70 108 115 125 112 105 154 175 189 194 196 187 176 174 174 167 168 164 173 172 175 180 182 177 184 187 189 190 184 185 176 160 168 185 198 202 202 200 189 168 147 156 177 179 179 178 165 163 161 166 168 184 181 168 177 168 163 162 160 154 151 160 157 142 132 137 137 147 139 128 128 130 126 123 117 56 25 42 51 49 63 96 119 106 106 106 154 55 63 92 92 85 63 112 119 109 130 123 166 184 189 193 200 196 193 187 182 183 178 167 181 173 176 184 181 189 192 192 197 189 185 182 173 162 170 188 199 201 202 196 179 163 149 164 176 187 186 185 169 167 164 165 155 156 163 161 166 165 161 165 164 160 158 161 165 167 158 145 152 161 150 134 132 131 125 127 123 49 44 68 59 80 103 129 134 117 113 130 149 59 88 89 91 75 71 100 128 89 118 144 170 181 190 195 196 200 198 194 190 193 191 185 186 190 188 193 191 195 199 193 189 181 179 175 175 163 173 189 202 203 202 189 167 161 153 164 173 187 189 190 186 169 162 169 163 161 154 156 152 155 154 154 159 163 165 172 172 162 162 164 166 159 146 143 125 127 124 121 126 52 52 72 75 98 131 143 143 132 112 159 115 61 96 97 101 78 71 84 136 101 76 155 170 186 185 192 195 198 198 196 194 196 191 193 191 192 191 195 191 191 196 184 185 177 177 172 170 157 172 196 203 201 202 181 166 156 154 166 168 180 187 193 195 189 170 158 167 161 159 156 156 154 158 157 162 167 168 154 159 166 176 164 159 163 157 144 134 127 120 124 124 51 74 76 106 121 132 151 162 126 130 159 52 53 86 95 97 77 73 71 128 133 101 156 171 180 183 184 193 196 201 197 197 196 197 197 193 194 185 192 191 190 187 182 179 176 173 172 165 156 168 200 204 202 198 183 163 150 152 162 170 177 176 186 196 199 192 183 171 165 154 152 155 154 155 151 153 159 166 159 174 171 162 164 162 154 151 145 135 125 121 123 117 71 104 110 131 140 135 153 167 113 153 119 45 55 71 89 95 73 78 68 115 142 124 153 161 173 182 183 192 191 198 200 198 194 200 194 196 198 190 192 192 187 185 179 180 176 172 175 160 158 169 204 205 201 197 181 161 148 151 168 167 170 172 177 191 196 197 194 195 189 182 177 171 170 172 169 170 170 170 175 179 183 181 163 155 165 156 138 131 127 120 120 106 96 140 132 143 150 142 170 161 125 152 79 79 89 84 98 99 77 78 68 98 145 132 145 156 172 175 181 186 190 193 198 198 199 199 199 197 198 192 190 191 193 190 178 176 180 177 171 163 163 184 205 207 202 194 177 158 147 152 170 169 169 174 179 187 192 194 195 196 195 193 190 191 193 190 192 188 188 190 191 188 182 178 173 158 159 159 145 129 125 116 117 92 124 154 145 156 148 141 175 154 149 110 76 94 96 96 96 103 80 73 67 95 145 130 140 152 169 170 178 183 187 189 194 196 197 195 198 195 196 193 193 195 191 184 180 173 177 178 169 164 172 190 207 204 203 195 177 159 152 149 171 178 172 174 181 185 191 191 193 195 196 197 193 195 197 194 194 197 194 197 194 192 191 174 174 167 158 157 150 126 119 111 110 87 142 156 154 156 146 141 176 137 157 79 87 94 99 97 101 98 77 77 68 92 146 125 131 151 161 171 180 180 186 183 191 194 192 191 193 192 195 185 191 187 181 169 169 168 169 173 167 168 178 197 207 203 201 192 171 159 148 155 163 174 170 171 182 185 190 193 194 191 194 197 197 195 199 199 191 197 197 197 195 195 192 177 173 169 151 155 148 127 111 106 99 92 165 154 148 141 140 159 161 147 135 75 93 97 98 100 98 97 74 75 69 78 136 112 134 148 155 167 170 173 179 186 183 190 187 186 185 188 188 175 165 163 156 158 164 167 175 164 167 171 187 202 204 204 199 187 167 155 154 155 156 162 157 169 182 186 192 193 193 194 192 199 199 199 199 197 194 196 194 199 192 195 183 177 163 165 155 149 143 137 107 107 88 109 168 145 136 140 172 164 132 165 104 57 94 96 98 100 99 98 77 74 78 74 97 107 126 139 159 164 170 169 176 185 184 182 186 175 180 182 172 172 155 143 135 159 158 166 177 169 171 177 194 203 206 202 195 188 171 154 153 149 162 155 147 146 168 183 190 193 193 192 195 197 200 200 200 196 196 195 194 192 192 187 181 177 166 164 156 142 143 135 103 97 83 137 147 142 159 156 149 133 144 168 69 70 87 95 95 101 101 100 75 76 75 73 70 96 116 132 148 157 165 170 171 177 181 178 179 177 172 172 155 150 142 131 124 160 166 172 174 168 176 191 198 204 204 201 194 192 168 157 155 149 161 166 157 146 140 162 184 190 195 195 195 197 200 198 200 199 195 193 194 189 189 183 177 171 162 159 159 144 139 124 100 94 86 144 138 161 167 147 139 152 165 135 64 83 93 91 98 99 100 102 76 73 76 76 69 83 111 121 138 150 154 165 163 176 172 171 172 171 163 153 143 136 134 129 121 166 172 171 169 171 185 197 204 202 200 202 198 191 167 162 159 156 170 172 170 153 139 136 166 179 188 193 194 196 199 201 196 196 198 195 195 190 187 183 176 176 158 154 154 148 130 114 99 86 97 149 166 172 166 156 161 163 164 78 74 97 94 99 99 95 101 97 74 74 76 76 77 74 93 110 128 139 151 156 160 164 159 162 165 162 150 138 127 123 132 131 125 159 156 155 167 172 187 193 199 202 201 203 198 187 169 163 153 160 172 172 174 155 137 128 138 158 176 182 192 198 195 199 195 194 198 196 193 192 185 184 179 172 162 157 146 143 127 99 95 88 109 167 163 163 161 164 160 160 125 44 90 97 96 99 94 98 98 97 73 76 73 76 72 74 83 86 109 126 142 146 154 153 150 153 153 144 134 126 120 126 142 142 123 120 118 130 142 173 183 191 196 197 200 203 194 182 162 154 152 164 168 176 167 160 126 131 123 134 162 175 181 190 192 196 194 192 194 192 192 189 182 174 176 167 166 151 143 140 123 99 87 91 133 162 161 161 158 165 160 138 67 78 91 100 97 97 94 98 98 96 74 74 75 73 77 74 82 68 89 115 126 137 139 143 140 141 136 127 114 115 131 138 144 146 127 108 58 75 110 152 177 182 189 190 194 193 185 176 157 147 147 152 162 173 157 150 125 141 131 108 138 156 170 184 186 190 194 191 188 185 185 182 182 166 174 167 162 145 134 130 117 96 84 95 151 158 153 151 148 158 166 84 61 94 90 93 99 96 98 98 97 97 71 76 74 75 73 74 85 70 70 98 118 127 129 133 130 128 116 101 115 128 128 134 148 148 125 128 68 34 74 100 147 161 167 180 181 176 164 148 134 130 136 133 141 141 140 134 142 148 159 126 108 138 155 167 180 184 180 182 185 178 178 180 172 166 168 161 149 143 135 127 110 94 84 128 155 146 140 138 138 150 123 65 80 88 94 94 94 99 99 94 98 99 74 71 76 73 77 75 75 85 68 86 110 120 120 120 117 97 95 119 126 122 128 135 146 153 131 130 85 58 45 70 94 124 130 153 155 150 125 108 102 95 82 62 66 89 104 127 148 154 158 163 119 105 136 155 167 171 173 174 176 168 169 172 154 163 155 152 146 134 129 117 108 87 91 142 153 145 129 124 119 115 83 70 76 93 95 91 94 96 99 98 96 101 74 69 75 72 74 73 69 95 70 80 113 116 111 114 96 89 107 120 128 133 143 148 142 151 142 134 107 75 64 49 59 74 91 111 118 102 85 73 72 66 75 78 75 93 111 144 152 157 151 163 164 104 108 139 151 160 165 159 165 165 164 162 149 154 149 147 135 127 125 113 110 67 103 130 136 123 111 98 93 62 71 83 79 92 92 93 93 95 96 97 98 97 72 72 73 70 75 73 67 85 91 76 107 119 117 121 98 101 111 107 122 134 146 154 141 142 149 137 126 99 78 58 54 49 58 68 76 63 61 66 86 100 107 127 119 136 134 135 140 145 145 156 161 145 99 109 134 145 153 150 154 150 152 149 144 143 137 135 131 116 120 107 106 72 76 71 77 72 57 58 62 64 78 87 82 92 95 93 95 92 99 95 97 96 73 69 75 70 73 76 69 77 101 76 107 127 128 137 129 108 111 110 109 110 134 147 143 138 151 140 134 126 101 72 67 57 60 59 68 67 90 106 111 121 124 132 130 127 128 124 136 138 141 146 146 146 134 99 100 123 132 135 144 137 135 137 132 132 130 122 115 110 107 105 101 55 18 15 21 27 28 60 73 72 76 87 82 92 94 93 96 95 96 100 96 100 74 69 72 71 75 74 72 66 107 85 92 130 139 152 161 114 118 117 104 98 107 119 128 129 146 137 136 138 119 102 96 77 78 82 88 107 113 124 125 132 128 133 132 126 135 136 141 139 141 144 143 143 139 136 100 91 112 121 129 128 125 124 117 120 117 117 106 105 97 106 98 14 13 19 27 27 54 74 76 72 85 82 87 91 96 92 95 97 94 96 97 95 72 67 73 70 74 72 76 62 91 92 83 125 146 155 175 133 120 132 121 106 95 95 122 123 148 133 136 141 141 127 125 105 100 115 104 104 111 126 139 132 131 130 132 133 133 143 140 140 144 151 137 142 150 150 137 112 79 99 110 116 112 113 108 111 110 104 99 97 101 106 72 6 16 35 52 58 71 76 76 78 80 89 89 94 95 92 97 95 97 95 96 97 69 72 75 69 71 71 71 70 72 99 76 111 144 158 171 163 126 137 134 129 128 94 80 114 129 135 146 134 145 140 136 117 123 129 116 99 122 134 142 127 127 135 132 139 138 138 126 132 139 139 139 146 150 151 138 133 123 66 91 106 103 104 107 108 110 91 104 95 103 102 40 27 45 71 70 74 75 78 78 80 81 93 94 91 94 95 95 93 96 97 98 97 72 73 72 71 71 70 75 73 66 92 84 88 130 152 166 171 156 143 138 138 133 134 120 75 74 103 128 132 135 141 140 138 129 136 128 119 131 135 126 132 134 138 137 134 140 136 118 135 123 129 126 141 146 153 137 134 137 105 87 108 114 106 108 113 96 93 107 99 105 82 55 58 67 71 77 72 78 83 78 78 88 90 95 92 95 97 93 93 100 96 99 93 73 73 70 73 73 73 72 76 64 75 89 64 114 133 152 164 167 145 140 145 130 144 147 138 108 66 77 94 119 133 143 148 134 143 142 134 141 135 133 138 137 138 133 127 129 130 120 124 118 107 110 116 121 131 119 130 122 122 124 128 121 116 118 106 90 108 103 103 104 51 56 66 74 71 76 74 78 76 81 83 88 94 92 94 92 95 96 97 97 97 99 95 71 72 70 70 74 72 70 74 74 59 86 75 92 119 145 153 166 154 142 146 137 143 148 143 149 124 102 86 80 93 117 138 143 147 149 147 144 137 138 133 125 117 117 112 113 104 96 91 86 85 92 98 102 117 119 128 122 142 144 134 123 115 120 94 105 118 102 106 92 33 32 71 75 72 77 77 76 80 80 84 91 91 96 92 95 94 95 95 95 99 98 95 74 68 70 71 74 70 74 69 74 68 73 78 66 104 128 143 162 164 164 151 149 142 146 145 142 140 141 138 126 113 107 109 114 123 118 122 108 116 112 104 103 91 95 99 107 105 110 124 126 124 134 131 127 129 133 124 139 155 141 128 121 112 103 97 115 114 99 86 83 36 30 60 74 75 75 80 78 81 83 85 89 91 93 89 97 94 95 97 93 97 97 97 71 67 67 76 69 73 74 68 75 71 61 79 51 80 109 128 155 159 166 162 142 145 143 144 145 139 147 148 147 162 182 177 152 133 118 132 134 145 155 150 133 123 131 131 135 133 137 139 136 132 134 134 132 136 133 132 151 158 134 125 122 105 93 118 121 111 84 77 79 22 44 44 73 77 77 76 83 79 87 87 93 92 92 92 94 95 95 99 97 98 97 96 69 70 70 73 70 71 73 68 69 75 66 56 82 56 86 116 142 155 164 170 141 142 142 140 143 141 150 150 150 157 185 198 194 192 167 172 175 173 174 162 147 147 144 135 140 138 143 142 144 142 147 146 133 136 135 152 158 149 132 115 109 96 108 119 114 93 60 95 67 16 48 51 58 78 79 80 79 83 85 92 89 95 92 98 94 96 98 96 95 100 97 98 70 69 69 69 70 71 63 61 66 60 65 49 71 67 62 97 127 152 153 163 157 141 144 133 138 139 143 146 156 161 170 178 177 180 180 181 185 175 170 168 159 154 149 145 141 140 146 144 143 152 150 146 146 137 152 153 148 133 118 117 102 104 116 115 95 72 54 122 45 16 49 56 44 75 74 80 81 80 83 91 91 90 91 93 97 95 95 97 95 96 96 95 71 66 67 66 68 66 63 64 59 61 64 51 60 77 66 81 113 140 143 150 162 145 147 133 131 133 133 134 143 154 151 154 154 152 156 151 149 159 156 157 153 145 141 142 143 142 144 144 150 155 154 149 150 150 150 153 134 116 113 102 102 116 113 107 76 52 90 121 24 23 47 52 49 59 80 82 81 81 88 89 91 93 91 96 93 95 97 95 97 97 96 96 65 66 65 65 69 64 62 58 59 61 66 48 25 78 87 74 102 130 137 145 157 150 144 138 129 127 121 119 132 138 137 134 136 134 130 132 136 136 139 141 139 142 139 139 143 143 141 152 155 151 157 154 154 157 147 140 125 107 105 99 109 120 106 82 55 67 104 116 17 18 46 53 50 54 75 78 82 87 89 89 91 95 91 94 97 95 99 97 95 94 95 97 67 60 66 65 62 62 59 58 59 65 57 45 15 52 96 86 88 123 129 136 146 155 144 142 132 128 124 109 128 122 123 126 130 131 119 131 133 129 131 126 125 131 140 142 144 147 146 153 153 152 154 155 156 152 142 133 116 106 101 106 113 111 93 59 59 90 110 112 17 19 48 53 54 47 68 57 81 84 90 92 91 95 91 96 97 93 96 99 97 96 97 95 64 60 64 62 62 60 61 59 63 63 48 36 32 11 78 100 91 110 126 134 146 146 149 139 135 135 135 118 117 113 110 118 121 126 123 129 130 125 122 124 123 135 142 140 145 146 145 152 156 154 154 150 150 148 135 119 110 108 108 116 110 97 75 50 83 100 119 109 40 14 52 54 52 52 64 49 60 66 82 89 92 94 92 96 96 96 93 99 94 97 94 97 64 63 58 63 59 62 58 62 69 59 38 41 26 10 35 99 98 112 120 136 137 146 151 146 142 136 136 138 121 120 120 115 119 110 119 127 134 125 117 123 128 136 143 141 144 150 140 153 153 150 149 148 143 133 130 111 108 111 119 114 100 85 55 74 97 113 115 103 70 16 44 55 56 52 65 49 52 53 56 62 81 94 95 92 95 96 94 98 95 96 96 98 64 61 66 55 64 57 55 68 59 49 35 38 20 26 13 77 101 108 123 129 133 149 153 157 143 141 138 143 135 122 128 117 121 119 118 121 130 127 125 125 130 142 142 145 143 147 146 149 154 149 151 143 141 126 116 111 107 116 125 108 86 58 70 90 110 120 111 98 82 21 48 58 58 52 58 59 48 53 53 50 54 61 79 94 96 93 100 90 97 95 93 96 65 60 64 65 61 55 64 66 57 36 39 25 30 25 12 71 81 112 127 122 133 145 148 156 158 154 146 146 146 141 129 125 120 125 127 125 125 125 132 134 136 144 141 145 145 148 149 155 147 153 146 133 130 120 121 114 118 117 113 100 66 66 80 106 121 121 107 94 86 25 51 58 54 54 56 60 49 52 51 55 53 49 54 58 82 96 97 95 95 99 94 97 62 59 65 60 56 59 70 65 42 41 25 30 28 32 13 75 72 86 117 125 133 137 145 154 165 156 156 159 150 147 144 144 140 129 130 129 125 132 140 139 143 147 147 150 154 152 154 150 148 144 140 132 118 117 120 111 123 116 94 70 62 81 97 120 125 119 111 91 78 31 59 49 61 52 53 64 47 51 54 57 54 51 48 55 53 66 82 94 96 99 95 95 61 63 59 56 42 64 72 56 42 37 25 31 31 26 16 79 91 69 100 117 130 134 138 154 171 168 168 166 154 160 160 155 158 144 146 148 141 147 151 147 149 155 160 152 155 159 152 152 144 140 138 126 118 117 114 114 117 103 68 64 78 100 113 124 126 115 118 88 73 41 50 59 58 48 56 62 48 51 54 54 52 56 49 54 48 54 56 61 82 96 95 96 55 64 57 58 53 72 71 48 43 36 36 24 31 18 22 91 91 82 70 108 123 128 138 150 165 169 178 161 158 154 164 155 152 147 149 162 166 161 157 161 161 161 159 153 158 161 153 143 141 132 132 126 122 113 109 109 105 71 64 79 98 115 123 127 122 118 116 94 59 46 56 54 52 51 56 55 50 57 54 53 56 50 55 53 51 52 53 50 55 61 79 90 69 69 60 58 62 80 63 48 35 43 35 30 32 16 30 98 82 97 70 86 116 125 132 141 157 169 175 166 160 160 164 154 146 144 143 151 158 155 161 163 165 164 162 157 162 157 150 141 130 132 120 121 114 109 105 88 73 64 79 98 117 121 127 128 122 117 119 89 49 48 60 55 53 52 56 55 52 55 61 48 59 50 55 52 55 52 55 49 55 50 52 58 66 61 57 45 76 82 58 56 39 38 37 31 36 8 44 98 83 91 91 60 102 117 131 139 149 155 162 162 163 163 166 160 154 142 144 155 162 158 167 168 174 165 171 164 161 152 144 142 121 130 120 108 104 99 83 63 66 79 93 119 123 133 129 128 118 122 118 76 50 50 59 55 52 56 53 59 53 53 60 51 58 49 54 54 56 52 55 53 52 53 52 49 62 56 53 45 82 78 61 53 52 38 40 27 39 2 72 97 80 85 98 84 59 108 124 138 148 148 152 158 162 162 164 165 144 139 149 152 160 156 173 169 168 167 172 163 151 144 141 129 122 119 116 91 87 81 59 64 75 90 108 125 128 128 128 130 119 121 114 66 45 60 59 52 53 58 55 57 55 48 54 56 50 51 47 56 52 51 55 51 54 54 49 59 73 66 57 60 87 71 63 48 54 44 41 36 30 4 87 101 84 84 90 97 66 88 119 126 133 139 149 159 159 161 153 159 154 139 150 148 156 162 165 172 165 164 168 158 143 138 134 119 123 112 100 78 65 65 64 75 90 114 124 126 128 130 129 123 120 123 101 59 53 56 61 52 56 54 54 56 60 50 49 57 48 49 55 52 51 52 55 50 61 54 55 51 76 68 66 78 80 69 55 59 46 46 41 32 32 9 100 102 86 77 87 96 93 58 94 106 118 127 134 143 152 148 148 150 163 160 141 157 159 166 163 165 161 151 160 145 139 134 131 111 110 89 74 59 67 69 78 93 106 120 129 134 132 131 128 124 120 119 93 46 54 61 56 52 53 58 57 58 57 50 46 53 51 55 55 56 54 51 52 48 53 50 53 50 75 71 70 82 77 66 58 59 46 50 38 32 27 15 105 98 88 81 83 90 95 85 60 80 103 107 119 139 139 145 144 146 150 155 143 142 152 161 155 150 152 141 137 143 133 129 123 107 93 69 64 70 74 78 94 109 122 128 132 134 133 128 126 118 126 106 81 51 60 66 54 52 55 61 56 58 57 47 53 50 57 54 54 57 54 56 55 50 55 50 55 53 71 72 67 88 73 66 62 63 48 48 44 32 30 20 106 99 85 86 80 89 92 89 81 69 71 86 95 111 137 125 137 139 139 142 143 138 148 144 145 139 135 139 128 131 118 120 106 78 70 64 68 73 82 92 102 120 128 133 134 136 130 127 122 122 116 94 68 54 63 56 54 50 58 57 53 56 52 44 56 56 55 55 56 57 51 54 57 55 61 52 56 57 72 70 79 84 73 65 62 63 58 50 46 33 29 21 107 101 85 91 74 87 89 90 89 77 67 61 65 78 116 102 111 121 121 130 128 132 127 122 127 124 115 125 120 105 103 89 73 60 61 70 75 83 87 110 120 130 130 132 134 130 129 126 121 118 107 81 59 61 61 53 52 53 62 53 55 58 49 49 62 58 56 54 53 56 55 54 55 61 60 59 60 51 73 70 79 79 67 65 62 62 58 45 47 34 31 19 105 103 92 89 75 83 84 91 91 85 74 61 54 51 70 74 81 92 96 105 113 110 108 112 103 105 99 102 100 81 72 63 59 63 64 75 78 94 103 124 129 135 137 136 135 131 130 121 119 108 98 62 60 60 53 51 50 53 60 55 56 62 53 51 58 57 54 56 50 56 55 55 56 53 61 57 56 52 71 71 84 74 64 68 57 64 63 50 43 33 35 19 105 105 97 88 74 75 83 91 86 87 79 68 57 55 54 49 62 55 56 81 62 83 79 77 86 75 76 65 66 58 65 55 60 65 71 78 95 114 122 131 135 134 135 135 131 130 126 119 116 100 70 66 58 58 52 50 52 50 58 59 52 60 57 56 50 50 55 57 53 51 55 57 54 55 57 52 55 48 