P2
92
112
255
28 25 27 28 27 27 26 28 27 26 29 25 28 25 27 26 26 28 29 26 29 24 29 27 30 25 24 32 25 31 54 54 68 58 57 52 55 74 79 82 73 74 84 80 75 83 72 80 79 71 76 68 71 62 54 47 46 40 38 30 40 29 25 34 26 26 25 24 24 23 27 26 26 22 24 25 22 25 23 23 25 24 23 27 20 22 23 21 23 20 22 23 24 27 27 23 27 30 24 29 27 26 26 28 25 26 30 28 25 27 27 28 26 26 32 28 26 29 23 38 45 56 62 51 61 54 66 69 76 82 81 90 75 80 90 89 86 88 77 89 91 84 87 80 81 79 80 64 70 55 47 44 40 37 29 32 30 25 26 27 24 25 26 26 26 23 24 25 23 23 23 25 24 25 23 24 24 22 20 25 21 18 24 22 28 26 27 28 28 27 25 27 27 27 25 29 27 26 28 30 25 29 26 29 28 25 36 28 27 30 47 65 57 62 56 61 73 73 84 77 77 80 89 92 87 94 78 90 96 97 91 95 92 92 89 92 97 91 83 91 83 70 71 64 56 54 42 28 32 27 26 26 24 25 28 23 27 23 25 26 23 25 24 23 24 26 24 24 24 24 23 22 23 24 22 23 26 26 29 28 27 26 28 27 28 28 27 28 28 29 26 26 29 28 26 28 28 37 36 37 38 57 73 60 68 64 77 72 91 88 89 88 88 100 100 100 94 99 100 97 98 92 107 99 101 102 97 95 99 92 99 94 87 91 84 87 75 75 51 38 30 31 27 26 27 23 28 26 27 25 26 26 25 24 24 24 23 23 23 26 23 22 25 21 24 22 22 22 27 29 26 29 24 29 26 29 26 29 26 29 27 29 26 27 27 29 27 27 35 39 51 70 76 84 63 62 83 77 92 94 100 100 101 101 94 103 105 100 89 96 112 97 101 110 107 103 111 110 110 103 105 102 95 100 102 98 99 100 96 84 80 65 38 38 26 26 28 26 30 28 27 25 27 26 26 26 25 23 23 27 23 27 23 25 21 20 27 19 24 23 27 27 27 29 29 29 28 29 26 27 28 29 25 29 27 27 27 30 27 43 39 50 69 92 71 75 77 79 91 94 103 97 102 109 107 110 112 104 106 98 92 110 109 106 106 110 112 100 108 117 112 110 109 107 102 110 108 104 105 108 99 98 83 80 67 54 33 23 28 28 27 28 29 30 28 25 27 24 24 26 24 26 24 25 25 23 21 25 24 21 23 23 25 29 26 29 29 27 28 29 28 31 27 29 27 29 27 27 30 32 30 51 59 82 83 70 76 80 98 90 108 105 118 96 109 117 109 113 114 112 110 107 99 107 121 112 117 113 119 112 109 119 112 114 112 111 102 111 110 102 103 107 106 103 99 91 70 72 60 37 25 27 33 29 28 34 30 26 25 26 24 26 22 26 25 25 23 25 22 24 24 27 25 20 27 27 28 29 28 28 28 30 29 29 27 28 27 29 31 30 32 32 59 79 84 77 70 86 83 85 108 109 105 106 120 110 122 121 117 109 117 114 109 113 93 114 123 120 119 110 112 122 114 118 117 122 114 115 108 114 113 107 113 115 107 105 105 97 88 90 84 72 39 27 41 25 27 31 36 31 25 24 26 25 26 25 25 24 28 19 27 23 21 24 21 28 25 29 28 27 27 29 28 25 29 29 29 30 26 29 31 29 49 71 87 82 64 66 84 106 85 98 111 115 114 111 120 119 127 126 114 121 117 118 111 121 109 128 122 123 128 115 111 126 123 116 123 122 115 117 113 117 116 120 118 115 114 110 108 99 96 94 96 84 75 47 42 34 36 34 36 39 31 25 25 25 26 24 26 26 25 24 25 23 27 23 25 23 26 27 31 26 29 29 28 26 30 28 29 28 27 30 43 61 72 73 70 54 69 92 101 101 87 113 121 116 117 123 121 128 127 126 121 125 121 118 117 130 124 129 120 127 131 126 125 126 125 117 126 120 117 117 117 123 119 123 115 119 118 112 114 109 102 97 90 95 83 79 57 56 41 35 34 35 38 32 31 24 27 22 27 25 26 23 25 25 26 24 25 24 25 29 27 30 29 28 32 24 28 28 27 29 31 49 82 68 67 69 62 63 99 91 111 100 105 119 130 115 122 130 126 130 129 125 129 128 126 117 130 130 127 121 116 128 134 121 133 129 128 122 128 124 122 118 123 124 122 124 118 111 117 119 116 107 114 107 102 99 95 97 79 75 41 45 45 37 36 34 37 38 28 24 25 24 30 21 26 24 26 22 29 25 29 31 28 28 24 34 29 26 27 31 24 34 52 88 71 64 55 73 81 94 106 105 112 118 116 113 127 114 129 128 121 126 127 124 130 131 124 127 130 122 121 120 122 127 132 135 132 129 134 131 132 125 133 122 124 116 123 128 122 118 121 125 117 102 115 115 102 109 105 101 99 84 62 49 42 41 51 37 36 41 41 35 22 25 27 24 26 25 25 24 26 25 29 27 26 31 24 31 29 28 26 27 42 60 80 84 72 71 73 87 100 104 106 106 116 125 127 118 129 118 135 127 126 129 123 115 130 123 131 119 123 121 127 132 127 130 128 133 132 124 139 131 129 128 134 136 124 122 127 125 127 125 127 114 117 103 119 122 110 106 113 110 99 94 77 66 42 50 59 42 36 32 37 39 44 24 26 26 27 24 25 25 25 27 29 29 30 28 30 30 25 31 28 43 78 87 88 78 79 92 91 102 107 97 115 111 124 128 122 132 125 126 129 126 126 128 125 120 127 125 132 127 118 128 131 138 126 124 121 135 136 129 137 134 124 135 131 133 123 129 133 132 129 128 128 127 118 115 129 120 122 115 116 114 97 85 89 82 71 52 49 50 43 38 33 43 43 43 36 23 29 23 28 25 26 24 29 28 29 30 30 30 33 27 51 75 100 89 98 92 94 97 104 108 110 107 117 117 123 123 123 121 132 132 129 128 129 122 124 134 130 129 123 135 120 133 129 129 128 120 128 140 128 130 132 116 134 133 126 136 127 131 130 131 124 124 131 126 121 119 133 120 124 122 122 121 104 83 88 99 80 69 49 53 51 42 43 49 41 42 51 32 27 26 29 28 25 25 31 26 29 29 29 33 34 33 83 95 92 87 89 85 98 106 105 117 117 111 117 128 131 113 113 126 132 136 124 123 129 114 124 129 127 132 125 126 130 133 131 129 118 133 122 128 129 126 134 123 132 126 128 136 131 137 131 120 134 118 132 121 129 125 131 127 116 123 122 118 113 94 98 105 85 88 61 49 52 52 46 49 57 47 43 49 39 27 30 29 23 24 33 29 29 27 39 33 33 79 101 99 90 86 90 92 110 111 111 122 118 115 125 130 125 117 125 132 127 129 121 124 126 119 123 122 124 120 127 125 128 135 132 118 125 131 114 128 121 129 130 135 131 130 131 132 127 134 132 129 135 126 125 126 128 133 130 130 115 125 117 112 119 103 111 94 91 91 87 54 42 47 48 49 59 55 54 47 53 47 25 31 21 29 29 32 26 33 38 35 66 99 101 105 95 88 94 103 116 113 125 122 121 124 125 134 123 122 140 137 131 120 126 127 125 117 123 131 131 113 114 134 116 127 125 117 121 128 120 122 120 129 129 131 131 131 136 133 133 128 131 129 126 137 129 135 124 129 130 128 120 125 126 117 120 115 115 108 93 97 94 86 43 42 40 60 53 49 60 58 51 57 51 25 29 27 29 29 27 38 40 51 93 102 101 110 91 90 103 109 114 107 126 123 123 133 122 140 130 122 151 128 131 132 132 133 126 131 125 135 131 117 118 130 121 113 118 127 124 126 131 123 131 130 129 127 118 131 128 128 132 125 128 128 130 135 139 130 118 124 129 123 124 126 129 126 124 123 111 118 103 100 98 93 76 46 45 59 40 50 54 57 63 57 66 52 30 27 33 29 23 48 34 66 96 108 110 106 97 101 105 114 112 115 116 125 120 140 122 144 132 140 148 132 144 137 137 134 124 129 135 130 126 129 132 125 121 118 118 128 126 134 128 141 139 131 130 130 122 126 123 132 134 124 128 130 129 130 136 131 118 124 127 127 123 128 121 125 122 123 119 120 116 102 107 87 88 75 52 47 41 45 41 58 62 66 55 69 55 34 29 32 25 43 38 88 95 116 99 109 104 104 113 121 115 117 113 132 133 149 141 150 149 152 137 142 139 138 138 139 135 132 140 128 123 127 132 125 123 124 123 128 126 126 128 137 134 130 132 133 130 128 128 134 132 130 128 129 128 128 132 128 124 123 127 129 130 128 120 118 120 118 123 116 116 117 111 92 79 95 67 45 42 38 44 48 56 66 54 53 64 53 32 28 34 33 61 93 110 109 102 109 107 111 122 127 118 122 122 132 142 151 144 156 158 137 127 145 136 137 138 148 147 137 141 140 131 123 129 128 132 128 130 120 129 129 127 129 127 126 129 128 127 132 129 136 127 133 131 127 129 133 132 130 123 127 123 128 123 127 121 121 124 114 122 112 110 119 111 99 93 97 87 49 44 39 48 47 48 61 72 50 41 56 30 29 30 35 83 112 114 104 110 112 104 118 122 119 119 123 135 134 149 137 149 153 155 129 138 144 137 134 139 145 145 142 139 147 142 139 136 135 135 134 136 128 130 127 133 123 130 134 130 132 127 129 127 132 123 134 132 129 134 119 121 134 129 125 125 129 115 109 122 115 125 118 123 114 113 116 112 98 91 106 94 80 35 37 43 42 43 63 54 78 47 40 33 36 18 66 94 116 108 107 106 102 106 123 122 120 125 120 139 138 137 141 150 149 143 131 137 139 141 142 138 133 150 140 144 148 150 149 148 139 141 137 139 130 134 132 135 122 130 129 134 137 130 122 130 130 126 133 136 130 134 112 120 128 124 131 123 129 120 121 126 123 120 120 132 130 121 119 104 110 95 110 101 95 50 41 40 43 49 51 64 59 80 27 33 37 6 93 112 112 111 120 103 105 115 131 123 128 119 123 145 133 140 146 147 145 137 135 141 137 138 150 134 133 145 137 144 148 153 151 149 149 141 143 141 142 137 137 140 129 132 130 138 140 135 133 135 129 117 128 133 142 135 121 129 125 120 130 123 128 126 119 131 126 125 121 128 136 121 117 115 123 98 111 110 93 84 32 39 42 53 51 65 62 77 44 30 33 19 98 107 108 111 107 109 111 118 130 125 117 123 139 145 145 143 135 139 138 139 136 131 128 132 139 140 140 147 133 145 145 147 146 153 146 141 140 140 145 142 141 141 141 132 137 138 145 135 131 139 132 125 129 129 139 137 133 126 131 131 129 128 129 125 126 130 120 132 121 123 132 122 113 120 121 109 109 110 103 103 42 43 46 50 55 63 51 85 70 33 30 26 104 105 108 103 105 113 112 132 107 124 131 134 147 146 144 135 137 127 133 130 125 116 113 126 124 133 141 145 132 142 142 145 140 150 142 143 143 144 146 137 149 143 138 142 133 145 145 135 132 140 138 134 130 131 137 133 131 131 133 132 135 131 131 136 127 128 119 127 121 128 133 129 123 119 116 108 117 104 106 103 77 42 52 53 55 70 53 88 100 33 23 39 104 110 106 101 107 119 112 137 106 130 138 129 146 141 138 136 132 129 135 120 115 107 112 117 114 126 133 130 135 141 137 141 143 143 142 137 147 142 142 139 141 146 138 142 135 134 153 140 141 144 148 142 137 135 135 134 126 129 133 131 133 127 134 132 126 130 129 128 118 122 131 134 125 125 119 112 116 107 111 105 99 51 56 60 55 72 75 67 139 31 30 43 116 111 108 107 112 117 120 132 120 131 147 145 136 123 149 144 120 129 123 103 103 101 111 99 106 111 115 118 122 133 135 124 139 141 136 137 140 134 143 139 136 145 132 139 132 137 154 144 148 142 153 137 133 131 133 135 128 131 132 124 133 129 134 128 124 132 127 131 124 125 127 136 132 126 121 121 121 108 116 107 102 70 55 53 63 69 79 76 152 30 27 43 114 117 108 99 115 112 115 128 125 136 143 134 115 105 124 113 97 112 102 86 88 86 101 93 95 96 98 97 102 114 117 113 115 126 125 131 129 127 133 137 125 138 131 126 128 137 151 140 133 138 145 129 129 132 128 133 128 132 132 126 126 131 129 124 125 128 128 117 127 123 129 133 133 126 127 119 124 115 112 113 110 87 48 56 49 75 89 88 121 29 28 45 110 120 113 99 109 113 129 127 126 129 113 89 81 81 89 93 91 92 87 80 80 74 79 94 95 80 72 71 80 79 90 86 84 101 112 120 125 127 121 129 123 129 126 126 130 131 137 130 129 131 134 128 124 128 128 134 130 134 138 129 122 132 127 118 121 126 123 124 124 123 125 127 130 126 132 117 120 119 115 117 114 96 51 53 54 65 92 98 115 39 21 53 110 105 103 108 101 114 127 83 79 103 85 101 111 114 117 117 127 102 110 96 93 91 90 94 120 119 98 83 65 55 71 67 66 79 84 107 117 122 110 114 118 121 123 133 128 133 131 122 127 127 119 123 121 126 128 127 128 134 142 122 117 120 120 124 110 117 111 121 125 124 127 123 122 120 133 117 106 117 121 119 121 103 57 51 58 60 101 105 111 43 28 51 107 83 105 110 75 59 92 36 57 86 127 112 133 130 129 131 136 99 110 83 79 78 77 78 99 98 89 94 88 76 65 61 65 77 76 90 102 105 109 104 115 125 129 136 126 133 123 119 121 120 114 116 114 120 122 126 127 127 129 114 104 90 108 109 98 95 99 99 106 121 130 124 120 123 128 120 109 117 131 114 119 110 74 55 56 63 106 137 97 36 36 72 96 87 122 64 93 44 100 38 52 122 98 91 128 123 129 142 118 95 88 75 82 72 52 55 167 96 62 81 78 80 75 68 62 69 75 83 79 100 104 104 115 135 135 131 128 126 118 119 113 111 108 105 105 110 114 113 117 108 100 93 87 78 84 91 83 83 82 88 92 102 118 122 122 121 125 122 120 121 131 115 112 115 73 62 57 70 118 156 90 40 22 83 93 114 111 20 137 84 117 30 108 110 91 94 120 126 125 133 102 86 77 87 93 93 49 174 222 198 60 75 66 66 72 73 81 72 53 72 77 96 97 107 132 142 141 137 135 130 118 115 106 103 96 98 93 95 94 90 91 94 85 88 76 61 78 69 81 70 81 96 88 91 102 109 118 122 125 127 124 119 124 123 112 113 79 56 68 81 120 174 92 56 12 82 103 114 72 24 154 128 78 50 129 87 61 108 117 139 115 113 92 69 77 101 94 93 55 173 225 197 81 82 83 67 58 67 72 73 77 71 63 81 102 134 145 133 147 143 143 136 119 117 103 101 86 87 90 83 69 75 78 69 59 59 49 55 68 64 75 72 70 83 89 86 99 109 104 107 123 125 123 125 113 118 116 120 74 64 70 83 131 169 87 50 15 97 96 103 23 77 112 197 29 87 122 100 45 112 119 138 92 96 92 68 97 94 108 86 56 68 174 125 102 115 109 94 76 72 76 74 77 102 97 74 74 143 147 146 139 144 144 136 127 124 111 107 86 77 77 74 67 66 65 58 52 52 47 50 56 68 63 65 59 70 82 85 96 101 113 105 118 119 127 117 116 117 115 113 93 77 66 94 142 148 104 40 26 104 100 92 40 105 62 204 12 125 102 79 81 113 124 115 85 98 114 89 113 108 116 86 95 96 117 108 96 103 98 109 106 111 94 94 91 115 131 100 90 94 155 147 140 141 142 138 130 134 116 114 85 72 75 73 69 64 65 61 63 58 62 61 63 60 67 69 58 76 80 80 90 90 109 107 127 117 116 114 115 117 114 120 95 76 79 116 118 146 108 32 46 89 95 87 44 97 49 191 37 125 88 72 98 118 112 108 102 106 110 106 103 110 109 93 89 76 77 76 86 98 91 76 77 107 105 101 109 121 127 136 78 100 121 146 139 148 145 143 134 137 128 110 82 83 77 96 138 124 123 120 120 110 104 98 75 72 70 67 67 73 67 70 76 85 96 97 126 116 113 125 121 128 113 111 96 83 119 103 98 148 110 51 42 80 78 83 34 141 82 162 76 106 56 81 125 121 110 128 128 128 141 136 131 126 99 60 98 49 44 26 49 53 81 91 68 65 84 97 106 126 134 146 69 103 101 121 128 145 143 142 137 138 126 93 83 69 74 94 107 104 99 103 101 103 103 121 107 87 85 79 77 76 76 71 66 71 68 74 105 106 121 124 115 127 114 113 91 101 128 73 104 127 96 49 57 81 81 77 98 150 113 109 103 79 49 53 137 134 133 155 149 138 164 153 124 107 52 127 135 49 38 24 46 39 52 65 89 88 83 86 106 135 136 145 77 96 124 75 92 113 108 122 128 127 101 79 61 79 104 116 120 119 119 119 122 133 146 185 154 109 80 89 69 66 84 94 95 88 79 70 67 67 93 117 114 129 118 106 93 101 128 78 86 115 70 61 77 60 75 108 132 143 128 92 116 101 82 59 159 135 149 164 160 151 155 144 121 121 120 115 105 38 50 48 57 57 83 50 80 95 119 113 114 137 137 142 81 90 107 82 108 206 49 88 105 114 91 61 65 105 100 112 111 110 103 101 107 125 119 134 124 112 106 80 98 66 72 93 97 104 101 77 98 72 58 75 97 111 117 109 91 110 122 80 100 93 46 60 88 75 98 141 131 142 138 73 126 123 132 132 145 137 139 149 155 150 134 129 119 126 165 144 118 81 71 70 75 83 90 83 85 99 128 137 120 128 130 135 65 94 73 85 76 137 62 65 78 110 104 34 98 95 77 93 83 83 85 92 115 116 106 195 151 99 104 111 89 102 63 83 93 109 105 70 113 48 83 81 63 76 112 110 91 124 112 84 96 77 33 99 91 90 117 148 132 138 140 62 129 139 142 149 159 164 146 141 139 134 127 125 118 101 137 118 112 96 81 81 84 82 72 75 72 90 111 125 117 128 116 138 50 100 77 115 104 133 134 83 70 91 82 57 95 90 87 100 91 91 90 85 96 66 154 224 213 102 116 100 114 109 82 70 102 110 114 82 114 30 60 69 94 49 85 87 104 118 105 91 75 78 33 129 105 97 130 156 127 141 135 59 132 146 137 142 163 154 139 137 145 141 137 132 112 101 120 123 115 100 101 100 112 100 90 81 75 72 95 113 128 135 135 105 81 74 66 94 70 190 94 84 78 124 54 80 97 96 114 126 109 90 82 72 70 34 93 205 156 58 115 115 95 101 110 71 96 112 113 88 114 26 54 48 98 78 44 49 87 97 103 102 69 70 30 147 123 136 141 159 117 143 133 57 138 149 133 151 160 144 133 122 134 147 143 137 116 121 122 125 123 118 115 121 124 111 110 101 85 89 120 129 147 145 140 80 101 32 59 86 84 143 100 68 45 191 65 84 98 95 123 133 105 105 116 103 84 67 28 76 51 37 63 112 84 99 123 91 95 118 118 100 101 26 57 68 92 114 30 69 147 130 78 114 63 67 22 124 135 152 145 151 116 144 134 57 132 139 134 158 152 133 137 124 117 150 145 138 124 127 125 123 124 121 109 119 111 105 112 99 99 123 134 144 148 159 105 102 67 42 107 114 115 126 133 113 35 216 69 74 98 92 107 121 102 102 117 108 109 92 63 52 43 53 42 61 79 101 112 111 96 124 123 103 86 18 48 117 141 127 51 77 138 111 84 98 61 62 24 119 140 146 145 131 121 139 144 56 120 142 139 156 142 138 145 133 114 142 141 147 130 128 133 129 122 114 111 112 98 95 101 104 128 138 133 145 142 153 90 95 52 89 117 125 127 120 126 110 42 171 61 65 113 93 92 81 77 69 106 104 105 84 71 62 62 67 70 105 78 90 108 111 103 119 133 98 78 19 51 103 147 138 75 62 97 109 79 88 58 57 25 115 155 144 145 119 140 147 155 65 98 148 148 145 143 145 140 137 115 124 130 135 128 135 124 122 115 105 104 98 86 91 118 128 137 138 140 154 166 105 104 78 63 109 134 126 129 128 113 109 77 74 74 66 131 113 94 81 87 80 97 101 96 78 71 56 55 58 70 97 90 89 75 101 106 105 135 112 60 24 89 100 172 154 81 63 95 67 105 90 54 47 29 119 166 153 134 121 150 150 157 101 65 144 148 146 151 141 137 135 117 132 127 133 118 131 115 112 106 87 71 95 104 130 125 130 136 134 145 158 153 89 89 62 98 119 139 123 138 119 106 107 79 60 75 57 132 119 117 87 95 93 106 100 95 85 86 79 72 71 76 84 92 93 70 84 97 88 108 126 59 56 74 96 122 153 84 62 89 22 108 77 57 46 30 120 183 152 125 130 150 155 143 134 55 132 147 151 152 142 143 143 129 132 131 134 114 123 113 100 103 114 109 130 127 135 136 135 132 138 144 160 90 67 71 78 117 140 135 123 138 119 107 97 82 62 74 41 131 119 123 107 95 92 105 105 104 103 104 97 93 90 98 90 93 82 78 92 91 95 95 124 54 54 63 75 96 164 67 66 66 45 101 53 78 30 31 127 187 158 128 130 156 141 153 156 88 93 139 154 157 143 152 140 139 137 136 121 128 131 126 126 120 131 127 133 131 132 138 135 137 146 153 116 44 68 71 107 133 134 134 128 129 115 107 106 85 60 74 39 139 119 122 123 111 94 96 100 103 106 114 108 101 100 105 98 98 88 91 93 103 117 115 102 51 49 33 75 115 157 45 78 56 86 83 49 63 43 24 139 174 145 126 133 147 146 150 147 152 86 107 142 152 147 154 138 151 135 137 131 135 132 131 128 136 133 129 128 132 128 136 131 141 149 123 50 52 66 109 138 134 133 129 128 136 112 108 110 82 71 64 45 130 114 119 122 124 109 83 83 93 103 109 105 106 107 103 101 102 104 106 107 117 132 141 105 69 27 19 115 147 147 38 81 47 84 66 56 41 41 35 153 162 148 130 136 148 142 143 147 148 156 98 103 137 142 153 142 153 143 132 130 134 133 136 132 139 129 129 131 125 125 130 133 149 118 64 53 81 83 124 147 135 134 131 123 129 111 109 112 93 76 65 57 103 124 122 116 123 125 114 87 75 85 97 98 108 104 106 108 105 103 103 105 113 123 137 120 113 37 35 117 129 141 42 78 48 82 59 72 55 66 43 163 155 145 138 127 148 147 140 145 147 156 155 120 105 117 134 132 150 154 128 127 137 134 134 135 132 129 127 127 125 127 133 134 124 68 78 73 72 107 132 145 141 134 128 123 122 116 111 114 102 82 66 63 61 139 123 118 111 129 119 117 95 82 75 88 93 99 105 110 100 107 97 101 108 122 124 128 130 91 92 76 122 121 44 102 66 74 93 103 118 114 81 165 150 134 137 130 149 149 139 141 148 148 149 151 152 125 101 107 122 139 135 130 132 132 130 139 133 132 131 127 129 127 118 93 124 87 91 75 70 127 138 145 146 138 129 118 127 111 108 122 109 82 67 68 34 133 117 117 120 123 113 110 120 113 98 93 85 98 94 103 102 106 105 106 103 117 120 122 129 84 93 19 123 86 56 142 86 95 119 124 132 106 125 172 137 127 133 128 153 144 136 139 139 143 144 146 165 158 160 122 109 114 122 130 130 134 126 138 132 133 127 122 112 99 97 104 108 94 93 89 101 137 144 145 145 137 131 126 140 110 118 119 116 73 66 70 58 92 120 114 128 111 113 113 113 115 116 115 107 108 105 105 105 107 110 109 118 112 121 118 119 81 91 19 139 57 83 137 115 106 115 117 93 72 112 159 122 133 133 134 153 153 134 142 133 141 143 147 166 155 162 152 151 142 120 110 106 110 111 115 105 102 98 98 99 101 100 117 104 94 100 121 120 143 147 138 149 143 132 143 145 118 122 128 125 56 70 55 79 67 126 116 120 103 112 119 115 110 115 111 111 112 114 113 105 115 115 111 116 120 122 116 107 89 70 51 123 53 105 121 129 105 113 108 91 42 101 150 108 141 134 134 140 147 134 131 139 143 150 150 160 151 157 149 154 161 146 145 141 126 128 122 118 118 110 105 104 92 72 120 104 119 127 142 130 149 143 139 148 150 136 154 151 121 115 132 131 44 82 54 51 88 75 126 114 103 109 118 114 114 112 111 116 111 108 115 108 118 114 119 116 125 115 112 104 109 30 116 89 71 114 120 123 102 109 114 89 28 90 133 94 155 131 134 142 135 140 134 141 143 149 150 151 149 158 151 162 163 151 157 148 133 130 121 119 116 107 94 89 70 57 119 117 140 145 154 152 153 139 143 175 144 134 137 134 115 104 136 140 49 106 80 26 86 42 104 120 106 108 112 113 109 110 111 116 117 109 111 112 116 116 114 116 124 111 109 99 106 43 141 61 92 119 113 112 92 117 115 82 29 96 123 74 164 120 136 140 146 141 136 142 148 147 151 148 146 153 161 164 167 170 158 147 139 128 115 110 105 86 74 66 41 56 131 140 146 150 163 159 160 140 161 183 125 130 123 117 100 109 134 149 73 102 113 49 61 78 30 112 113 99 111 115 105 108 112 107 117 114 114 104 109 113 112 113 116 105 96 111 58 118 98 71 106 110 122 79 97 121 113 58 42 110 125 80 144 126 138 134 146 134 131 147 147 153 144 151 141 144 156 164 167 170 151 144 132 120 114 101 85 70 56 48 33 52 135 118 126 125 147 156 161 145 157 144 119 113 100 100 96 102 114 159 84 110 98 106 42 61 81 38 106 117 105 113 117 114 117 112 118 124 113 112 102 105 103 109 110 100 99 98 110 122 67 96 103 108 117 63 99 125 112 36 68 119 159 104 103 138 136 131 144 133 136 147 145 156 148 150 140 136 151 160 152 154 151 132 121 115 97 72 63 51 46 40 41 32 130 99 87 63 96 140 148 135 122 125 109 98 85 89 90 99 105 121 99 106 97 106 58 33 71 81 48 84 114 107 108 113 112 114 112 118 115 110 98 106 100 108 101 103 107 128 129 74 80 101 100 107 120 68 100 135 91 41 81 136 180 116 88 129 137 131 141 132 131 147 143 152 147 150 137 138 148 151 153 147 139 116 114 96 81 63 54 51 43 44 59 29 85 100 60 28 22 81 127 132 116 107 94 73 75 76 77 76 96 94 91 88 81 85 67 22 54 66 72 68 58 93 116 116 116 116 112 120 118 107 96 102 99 101 105 111 126 107 88 92 95 97 111 95 118 72 95 148 73 59 90 140 162 127 97 122 136 142 136 136 135 148 140 153 150 144 140 138 147 136 147 134 122 113 114 93 82 69 59 50 55 66 86 62 57 99 72 48 61 79 124 100 104 96 75 66 64 67 61 70 91 90 64 57 60 79 48 26 39 51 57 70 80 66 62 78 106 119 121 123 120 110 110 111 114 112 108 102 104 90 100 105 92 98 119 61 85 72 91 145 64 72 111 118 128 143 131 119 138 144 143 133 136 139 144 150 145 140 141 138 142 134 135 135 118 118 112 94 82 77 61 72 82 96 106 94 91 107 107 95 98 99 150 91 68 80 63 56 71 62 57 79 91 39 22 43 55 78 36 29 34 44 50 61 67 84 81 81 76 74 90 92 100 98 95 93 87 86 98 90 103 97 103 93 93 98 116 50 62 63 89 138 52 85 133 76 85 144 154 118 132 142 148 140 125 138 146 144 146 139 137 136 137 136 138 130 121 124 106 89 81 77 82 91 99 117 129 129 111 123 114 104 122 110 130 82 81 43 41 42 48 45 72 67 39 17 29 33 52 34 62 47 33 39 45 49 59 74 78 90 99 105 110 107 109 102 95 97 95 99 104 93 99 97 101 94 105 102 114 50 52 54 92 138 44 89 137 31 64 142 154 123 124 142 146 142 122 136 137 148 140 137 134 132 139 141 137 131 114 119 96 88 80 83 96 100 122 135 140 140 143 134 117 105 118 117 105 83 66 33 23 38 26 35 75 67 60 42 27 27 25 25 93 78 42 43 42 41 51 51 69 82 89 103 107 105 113 108 93 95 96 96 100 98 96 101 98 95 110 100 117 65 41 51 94 137 38 100 113 4 80 141 154 127 121 142 151 137 121 129 136 136 142 142 136 135 144 143 134 126 117 105 91 89 83 97 113 123 135 146 140 136 144 137 133 128 112 114 87 76 47 30 25 49 28 48 43 70 83 78 54 40 28 49 104 96 67 50 56 52 50 43 60 72 81 93 109 96 104 105 97 93 96 89 98 98 97 104 95 104 103 103 118 76 34 56 96 126 39 120 65 16 123 145 155 120 116 138 150 137 123 130 135 135 145 142 138 141 143 138 128 125 108 103 94 95 99 115 123 138 140 150 137 141 135 140 140 133 122 103 86 59 32 27 31 56 38 36 38 55 81 88 90 91 71 92 98 95 94 69 70 73 65 58 56 67 72 89 94 97 99 95 98 91 95 96 95 95 97 101 99 106 101 101 122 79 35 69 102 112 50 132 11 22 143 140 147 109 125 131 141 138 123 132 130 137 144 145 142 146 146 136 124 124 103 108 100 112 118 126 131 147 144 139 141 140 137 139 137 138 129 104 73 43 33 28 31 68 53 35 43 51 75 95 106 130 111 113 106 91 96 90 80 78 82 70 65 67 69 81 89 93 94 97 102 89 94 93 92 100 99 104 99 106 101 103 126 65 49 83 114 86 79 109 6 25 148 140 127 114 126 129 137 131 128 129 129 136 149 144 141 137 141 138 122 118 100 114 103 129 126 128 146 149 137 131 148 138 139 144 140 137 126 117 78 37 32 33 39 71 58 42 43 40 84 104 116 131 124 125 113 86 86 100 86 80 76 82 80 78 73 78 87 92 92 95 99 93 88 97 96 100 99 109 97 105 93 111 100 47 64 99 122 60 111 64 9 27 137 141 108 117 127 130 131 131 128 139 124 140 147 141 141 141 132 128 117 119 114 112 119 133 129 127 150 150 148 135 143 138 137 136 135 134 131 126 102 42 28 35 43 68 64 41 38 55 78 109 125 124 134 127 122 104 92 97 85 78 77 79 86 89 79 80 85 89 97 94 100 97 92 101 96 101 103 109 100 100 92 119 43 50 75 113 105 54 129 27 20 27 148 136 97 110 129 139 124 132 125 129 135 131 142 145 140 148 133 119 122 121 121 114 131 128 133 134 154 151 148 137 141 141 143 134 134 135 128 131 121 84 43 33 51 79 68 36 49 58 84 123 121 128 127 132 125 117 108 93 91 81 79 76 82 88 86 91 87 85 94 95 94 102 100 102 101 100 96 99 101 103 104 87 29 60 102 112 71 78 126 7 22 25 69 104 62 82 134 128 138 129 125 129 141 126 145 152 145 140 141 124 123 122 118 122 136 124 126 137 140 134 127 119 139 129 138 129 129 136 123 130 125 109 84 53 66 78 68 49 56 74 81 119 113 127 125 131 118 119 113 103 89 92 77 81 77 86 87 93 93 89 90 96 103 98 106 103 95 97 96 85 99 102 94 79 60 77 110 89 54 115 78 9 23 28 26 33 24 75 127 118 140 130 124 131 143 137 141 153 146 149 137 129 128 121 123 131 133 124 132 128 129 115 124 133 125 126 123 117 110 119 106 116 105 112 112 87 103 99 90 71 82 93 97 106 113 113 117 134 130 118 115 108 96 89 76 76 73 81 84 95 91 95 86 95 97 95 102 104 96 91 94 78 98 91 90 109 105 104 103 56 68 135 33 17 26 26 28 33 23 61 141 122 137 129 119 138 141 139 135 143 148 138 138 124 128 118 123 135 121 126 122 119 111 112 119 123 117 100 88 86 76 79 70 81 78 94 104 99 102 104 89 83 98 99 99 107 93 106 120 116 124 130 115 114 102 93 76 77 71 75 85 99 88 91 94 91 96 97 104 93 97 88 86 76 91 95 88 112 119 114 65 59 100 113 7 24 26 25 33 27 32 57 142 118 134 130 119 133 137 138 145 139 143 146 144 126 127 125 134 138 116 120 109 106 102 108 105 100 78 66 65 76 58 63 56 68 64 67 80 84 74 86 72 77 91 102 95 102 101 93 108 111 103 116 111 108 97 99 81 72 70 70 80 95 96 92 101 94 95 91 96 87 87 97 85 71 96 96 87 115 111 111 46 85 124 65 14 23 23 27 31 30 37 27 148 121 133 133 128 131 139 139 143 134 151 142 140 127 134 132 135 127 119 120 103 86 92 89 76 52 54 60 40 39 37 41 39 51 57 63 57 56 49 46 51 57 75 81 83 103 97 93 97 93 94 106 113 97 99 102 94 66 71 62 82 81 99 97 101 95 89 93 89 88 89 92 89 90 89 102 70 118 106 116 83 101 132 19 20 24 24 27 31 31 36 18 142 122 126 132 128 128 141 133 134 143 148 140 135 133 138 136 137 123 115 106 93 77 74 57 34 24 27 27 20 19 28 36 28 30 33 38 36 38 44 37 42 43 47 46 68 87 82 91 91 82 89 94 106 100 97 98 98 69 74 73 89 80 103 98 107 97 87 94 88 92 88 93 90 84 93 96 54 114 111 112 113 118 89 13 24 24 26 23 30 32 34 6 136 133 121 130 126 128 139 133 138 140 149 140 132 134 134 144 133 116 105 88 70 61 49 31 24 18 22 23 23 21 18 26 26 23 24 24 22 23 25 27 24 39 40 39 40 58 72 83 93 81 79 81 95 101 92 95 100 79 69 86 84 88 99 84 102 102 94 95 85 94 91 95 82 81 95 83 46 107 108 112 118 118 26 21 23 25 25 23 32 29 37 10 123 127 126 124 131 126 139 134 136 138 150 142 130 135 137 141 112 108 84 71 56 36 58 75 72 57 52 39 37 28 29 35 40 30 22 19 18 21 21 17 16 21 26 33 41 39 44 64 76 80 78 74 87 101 92 92 100 91 73 91 89 93 100 102 99 101 97 99 83 98 93 88 83 77 102 60 52 96 109 112 118 48 14 26 26 22 23 26 29 32 33 18 106 121 131 125 128 126 135 138 133 143 152 128 140 136 132 123 110 90 77 61 42 84 135 138 122 117 103 96 96 81 65 39 59 59 35 47 26 26 29 23 22 32 21 16 21 34 35 40 52 71 76 72 79 95 85 98 105 99 87 95 95 105 101 103 103 98 95 93 90 98 89 88 81 90 97 48 61 90 105 116 65 14 25 22 28 25 24 23 31 29 31 21 71 137 129 121 128 130 133 135 132 139 139 133 136 143 127 114 104 85 64 49 68 137 160 153 135 132 127 113 123 105 111 100 86 89 75 81 69 53 41 30 28 41 32 22 13 20 22 20 47 52 63 62 80 94 82 95 103 104 100 97 92 102 106 98 105 95 86 90 94 95 88 87 89 105 63 44 72 99 105 74 17 21 24 25 25 22 23 25 28 30 32 28 36 154 124 129 123 131 130 131 136 128 137 136 137 136 122 110 92 74 58 55 118 149 145 144 129 140 133 130 123 122 117 117 108 106 107 98 107 101 85 86 77 76 59 74 56 27 24 22 25 42 52 60 70 85 90 100 110 108 107 102 87 101 107 102 102 96 92 96 86 96 94 86 95 111 38 20 44 64 44 22 26 23 26 23 27 22 27 23 30 30 34 31 14 150 123 131 116 132 136 128 136 124 138 128 133 130 115 97 84 69 54 91 142 147 140 124 134 142 139 137 133 130 113 122 110 114 105 102 105 115 91 87 108 88 98 87 95 86 69 66 57 22 40 51 72 80 93 101 110 112 106 103 95 105 100 100 100 96 99 96 89 99 92 92 97 94 15 22 27 26 24 28 26 23 25 26 27 21 23 25 29 34 31 33 18 118 133 129 118 137 130 132 129 129 137 127 130 119 103 85 75 62 69 121 145 144 133 130 128 132 142 152 144 143 122 119 118 107 107 108 103 104 98 90 97 95 103 100 85 105 95 113 114 70 29 50 69 79 85 95 109 116 106 105 102 102 110 96 100 96 96 94 100 90 94 95 104 62 17 25 27 27 23 30 20 29 21 27 24 25 22 24 29 32 32 32 20 74 151 128 119 132 133 126 125 131 133 124 124 112 94 77 63 67 89 139 132 137 131 124 127 119 131 135 140 126 124 119 118 107 110 107 103 106 102 100 107 113 113 106 101 105 95 102 108 115 70 51 63 74 86 92 104 109 104 93 106 99 105 97 92 96 95 99 100 93 84 100 103 29 23 27 27 27 26 25 27 24 23 23 24 27 23 22 32 28 33 32 25 37 156 123 122 130 125 127 121 129 116 120 120 104 80 66 68 87 121 145 139 132 126 122 113 109 109 120 115 107 106 91 90 73 83 88 86 91 98 106 107 112 116 114 99 107 89 94 115 101 72 55 60 77 84 94 102 103 102 95 103 93 98 96 97 95 97 102 95 97 92 96 94 12 26 27 26 23 29 22 28 25 24 25 23 26 22 25 32 31 32 31 34 12 156 127 122 128 128 131 114 129 112 118 117 88 70 70 88 120 142 141 138 127 121 114 110 107 102 104 104 100 90 72 66 76 76 71 61 72 74 90 88 103 95 101 93 78 86 90 99 102 73 57 66 82 95 99 99 104 97 102 103 94 94 96 97 93 99 101 94 88 101 106 75 15 25 27 25 28 25 24 27 26 23 26 21 28 23 23 30 33 32 33 33 16 117 149 123 124 129 129 115 123 116 116 107 78 71 85 114 141 144 142 133 125 116 110 112 103 103 105 101 94 78 65 68 82 69 69 62 63 66 73 67 84 72 82 79 75 79 88 89 108 79 68 83 86 93 97 98 99 102 96 96 88 88 92 98 91 99 100 95 92 94 117 36 19 26 27 29 25 25 27 24 25 22 27 23 26 26 22 33 28 32 32 34 27 66 154 127 123 126 125 117 115 120 116 98 78 83 108 135 148 145 139 122 117 114 107 109 104 113 110 98 90 81 70 78 69 58 64 53 59 60 51 55 65 67 65 73 76 89 88 91 114 81 74 83 86 91 92 97 101 96 99 90 91 93 97 93 98 97 96 95 90 100 106 16 25 24 28 24 26 28 26 24 26 24 27 24 24 24 22 32 31 31 32 34 31 25 149 131 120 121 120 120 115 118 112 95 80 102 129 141 147 142 136 124 114 100 104 111 114 116 111 91 90 82 73 61 61 59 59 55 51 47 45 58 56 71 73 82 83 102 96 104 109 95 75 85 79 87 93 94 98 90 99 97 89 96 95 91 107 93 93 96 90 104 71 16 25 26 26 23 28 26 27 23 27 25 26 25 25 22 27 29 32 33 32 30 35 9 121 130 124 118 121 115 122 120 98 94 92 113 139 139 140 132 132 124 108 106 113 121 115 116 104 94 102 85 75 75 60 63 61 54 54 49 57 54 61 72 75 89 90 99 99 107 107 103 80 82 88 81 90 89 92 82 99 96 88 98 96 95 105 90 96 93 83 109 52 24 32 34 35 28 27 27 24 25 24 30 26 25 21 27 28 29 31 31 32 26 33 20 67 144 132 112 121 113 115 122 105 95 97 111 141 131 135 125 133 129 110 115 123 118 113 118 113 114 115 101 93 89 69 71 59 57 54 64 65 63 69 74 84 93 97 104 98 103 111 111 89 87 82 80 85 91 91 84 95 93 93 92 95 101 97 95 93 90 93 109 88 81 79 84 87 84 81 79 80 69 69 65 55 38 29 29 21 112 114 102 94 80 77 72 66 146 130 123 116 117 115 122 105 93 93 121 136 126 126 129 139 131 114 117 122 113 125 129 118 126 116 110 108 90 83 76 78 69 76 72 81 75 80 81 87 94 99 107 108 108 113 110 95 87 86 80 88 84 90 91 93 91 93 92 96 102 91 95 92 93 94 108 108 100 94 95 99 103 107 112 120 121 127 135 142 125 106 104 76 144 147 147 144 131 132 122 97 199 120 124 117 115 112 118 107 85 99 122 124 121 129 136 143 128 111 124 113 124 130 131 115 127 115 116 109 102 96 87 87 94 87 85 89 86 98 82 87 92 104 100 109 110 115 103 106 89 89 80 85 82 85 91 90 92 89 96 92 106 91 93 88 98 91 120 118 111 104 108 104 109 112 116 124 127 132 142 150 143 122 122 127 132 135 141 146 135 133 119 136 216 153 119 117 118 104 117 99 87 113 122 125 125 133 129 137 118 123 120 117 126 128 131 117 122 118 108 106 93 106 99 103 92 107 90 109 93 101 90 90 90 98 108 102 108 111 111 110 102 91 86 81 77 87 85 93 96 85 97 99 102 98 84 96 100 93 128 124 116 111 111 111 118 112 116 124 132 139 143 151 151 125 116 116 145 136 132 140 147 138 105 185 199 215 132 111 118 109 115 106 89 111 118 119 125 129 126 134 126 126 121 123 120 120 123 119 110 110 105 101 97 106 93 98 95 91 99 93 103 101 106 94 96 111 101 102 101 110 105 108 103 87 90 78 82 85 86 95 88 96 96 101 98 98 99 93 102 110 125 123 125 119 121 121 125 116 108 118 132 142 149 156 160 140 113 120 145 144 143 132 139 137 134 201 198 207 204 116 115 112 112 107 98 106 110 121 127 127 122 135 131 127 123 117 114 117 117 122 113 104 97 101 102 109 98 102 93 97 92 102 103 97 113 98 91 105 103 112 89 98 94 103 100 84 91 80 87 74 78 96 96 96 97 99 98 91 99 96 108 135 115 127 130 126 128 124 119 106 106 115 127 147 154 160 165 152 119 116 153 144 152 145 140 132 175 201 199 204 208 184 112 112 106 98 111 110 105 122 123 122 130 131 123 118 119 113 110 115 115 118 102 93 92 103 98 101 98 87 88 94 90 103 97 100 107 99 99 102 101 104 92 92 95 92 91 86 82 91 93 74 82 89 96 91 97 100 96 92 103 82 133 160 114 131 132 125 123 120 109 106 107 113 133 145 160 160 162 160 129 119 156 150 153 157 155 130 198 199 201 202 202 210 181 112 109 98 102 114 114 118 122 122 124 118 117 107 117 103 114 114 112 109 98 86 91 98 87 93 92 82 74 90 95 96 95 94 95 103 104 93 97 93 98 90 83 92 82 78 71 91 85 84 83 89 99 99 97 100 99 102 95 99 165 163 121 127 131 123 114 111 111 109 111 119 137 147 157 168 167 163 148 123 164 155 157 154 162 147 204 198 202 203 203 202 214 174 107 114 106 104 110 114 125 123 118 112 120 109 109 103 106 113 109 103 88 87 89 81 91 90 81 74 72 79 87 87 95 95 97 99 95 100 88 95 95 87 83 85 71 69 71 76 81 89 81 84 93 94 100 96 100 98 88 146 168 160 128 118 126 115 112 114 122 119 114 118 144 160 156 170 170 166 158 132 172 159 160 147 155 169 203 200 201 202 203 203 202 213 145 109 108 106 98 101 125 124 108 111 109 109 103 102 91 100 97 94 81 84 86 67 86 83 71 69 74 74 67 83 93 93 96 94 88 99 84 89 94 79 85 81 67 60 63 63 71 74 82 85 89 92 102 99 100 89 117 170 161 158 129 121 116 112 112 115 111 132 118 122 149 160 164 175 176 161 163 149 181 168 165 153 138 183 202 200 202 202 202 201 202 201 210 130 112 109 106 102 99 126 116 106 102 104 98 90 86 87 88 85 74 74 69 58 80 74 69 65 69 71 69 79 86 97 86 92 86 88 80 80 86 71 71 80 68 57 53 56 62 66 73 81 85 97 101 99 104 85 158 168 154 168 121 117 120 116 106 116 115 119 125 126 140 148 157 167 181 162 161 186 185 175 166 171 112 187 203 203 202 202 201 201 201 199 201 203 135 110 107 107 98 107 124 115 101 95 94 81 76 77 79 74 68 60 67 54 73 70 62 60 60 66 63 69 83 89 76 87 84 84 83 82 76 78 72 78 48 38 43 50 51 62 67 80 78 103 96 101 95 118 174 163 157 169 133 89 128 119 111 112 111 120 127 137 147 152 159 157 175 173 170 192 187 183 169 178 108 181 207 201 201 199 199 198 198 197 198 199 199 146 103 107 100 98 110 122 101 89 92 79 71 60 71 67 63 63 61 63 64 66 51 59 55 52 60 63 72 72 72 75 79 81 77 78 74 76 83 53 28 30 39 45 49 51 65 73 90 93 95 94 100 164 170 161 162 166 175 56 116 118 117 120 123 125 130 149 164 161 168 168 170 167 164 178 188 183 177 180 109 176 209 199 198 198 196 195 196 194 194 195 197 197 162 110 97 99 98 103 112 99 85 69 64 56 59 55 58 61 56 57 54 55 50 55 50 55 56 61 63 66 62 71 69 77 70 77 69 71 70 36 33 37 39 51 56 62 66 77 88 89 100 90 143 173 166 160 165 166 179 78 83 113 118 127 134 135 137 155 175 166 172 176 180 178 174 179 186 182 179 180 143 185 207 198 197 192 193 192 191 193 191 193 192 195 192 181 130 90 99 92 103 113 95 73 69 67 55 52 50 59 59 63 51 53 50 51 51 47 53 56 49 53 60 59 65 72 67 67 59 63 47 42 38 43 45 58 59 69 67 60 78 87 95 121 165 168 165 166 164 166 170 86 61 106 114 120 132 145 140 159 173 175 180 176 179 183 186 187 188 180 171 177 147 200 202 196 194 193 193 190 190 189 189 191 189 192 188 191 189 133 91 91 86 113 110 92 79 79 68 65 62 60 53 65 65 53 47 54 51 49 46 52 46 45 58 62 59 63 49 50 48 55 41 47 43 50 56 66 62 58 54 64 83 87 112 153 164 165 168 166 163 162 171 121 70 106 111 118 127 145 150 162 177 174 183 181 184 183 188 188 190 185 173 161 142 199 202 197 193 194 194 192 191 188 189 189 187 189 186 187 187 187 155 97 86 95 111 107 69 80 67 74 67 71 64 57 65 62 57 56 62 56 56 52 51 53 51 45 46 45 38 53 34 50 53 54 52 58 66 69 69 71 58 77 81 97 145 153 164 168 169 164 163 160 168 153 101 97 122 116 127 144 156 162 180 180 179 185 187 185 188 190 194 186 178 160 142 190 205 196 194 195 196 194 193 192 188 188 187 185 185 184 182 185 184 172 125 90 98 119 94 75 67 53 46 45 44 47 52 55 47 54 48 43 40 43 39 31 42 42 49 45 33 47 36 46 61 60 54 62 67 61 79 75 76 87 100 135 143 155 165 173 169 165 165 164 170 166 162 101 126 134 140 145 154 168 178 181 186 182 190 187 187 190 