P2
92
112
255
25 17 26 25 22 22 25 23 22 24 24 23 23 23 26 20 24 22 26 20 27 20 24 23 23 24 24 23 23 23 22 24 24 20 23 23 24 22 27 25 24 21 35 22 23 23 23 24 22 24 21 23 22 23 23 21 24 21 24 22 22 23 25 20 22 22 22 21 22 18 22 20 20 23 19 24 19 22 19 21 20 21 19 18 21 18 19 19 21 17 19 19 25 24 22 22 26 21 27 22 24 24 22 25 22 23 23 25 24 24 26 23 25 24 21 24 25 22 23 25 23 23 22 25 24 21 23 24 26 25 31 23 24 24 40 18 25 23 25 24 26 22 22 22 22 23 25 22 22 20 24 22 23 25 21 23 25 20 24 21 24 20 23 21 21 22 21 22 21 22 22 21 20 20 21 20 20 21 21 17 20 22 16 22 24 26 22 26 24 22 26 22 24 25 22 27 23 26 23 26 24 24 28 25 23 26 20 27 22 24 25 24 25 24 23 23 23 24 26 29 27 26 37 26 24 32 31 24 23 23 28 21 22 24 25 23 26 23 22 24 20 24 22 22 25 22 24 20 24 20 24 22 23 21 23 22 21 21 21 23 20 24 19 23 21 21 23 18 21 21 21 18 21 20 19 21 20 26 21 27 25 23 26 21 25 25 23 26 24 24 25 26 27 24 27 26 22 24 27 25 26 22 25 23 26 25 22 24 26 24 24 33 31 28 32 36 28 35 27 37 30 27 26 26 25 23 27 23 28 29 25 22 22 24 22 25 24 22 23 23 24 22 23 22 23 23 22 20 24 23 21 24 21 21 23 21 23 21 23 21 23 21 22 21 20 20 19 21 24 24 26 24 23 27 21 27 22 23 26 24 26 27 25 26 25 25 25 26 25 26 24 25 25 23 27 24 25 26 27 27 25 23 29 38 30 24 30 41 43 34 41 40 36 36 34 32 27 27 25 28 23 27 30 24 25 23 24 23 24 25 23 23 24 22 25 22 21 25 20 22 21 22 24 22 22 21 24 21 22 22 22 22 21 22 22 21 18 20 21 20 28 25 25 25 23 27 23 24 25 24 25 26 26 26 25 25 27 25 24 27 25 24 28 26 24 25 25 26 26 25 27 26 28 29 30 34 31 42 51 59 51 49 48 52 50 46 37 40 38 37 26 26 25 23 30 28 30 30 26 23 26 25 26 24 24 23 25 23 25 24 24 22 24 24 25 23 21 24 22 21 23 21 24 20 23 21 20 21 21 20 20 21 24 25 25 25 26 26 25 26 25 27 23 27 25 25 26 25 26 27 26 27 24 29 26 26 25 24 27 25 28 28 25 24 33 30 33 55 75 80 70 84 71 74 81 67 69 69 68 65 57 53 48 40 37 36 34 34 30 29 32 25 25 23 26 26 26 23 26 20 26 21 26 23 23 23 22 24 19 26 21 23 24 22 24 20 24 22 20 22 22 21 23 20 24 28 23 26 27 25 25 28 26 26 26 28 25 26 25 27 25 28 24 29 24 28 28 28 25 30 22 30 27 24 26 26 35 57 72 74 79 83 83 86 80 80 93 77 81 75 75 70 78 55 64 52 53 39 38 37 35 28 31 33 26 23 25 24 27 23 25 26 25 23 23 24 26 24 23 24 22 23 23 24 22 21 23 25 21 21 20 23 22 19 20 23 27 25 27 27 25 25 26 29 25 26 29 24 25 27 27 26 27 26 25 29 29 25 29 28 27 31 30 32 27 27 43 49 73 73 60 55 71 77 79 85 73 80 83 72 79 80 67 77 76 64 77 64 65 55 49 38 45 35 34 40 27 27 36 21 27 24 24 25 25 24 25 23 26 26 23 23 23 23 24 21 25 21 24 25 22 22 24 20 21 23 18 21 28 25 27 26 28 25 27 26 27 27 28 26 27 26 27 27 27 28 25 28 29 24 31 28 29 24 32 29 32 60 54 66 56 57 57 62 77 85 80 89 74 82 86 87 85 88 78 87 90 83 86 81 80 82 70 66 65 51 43 43 36 38 30 29 25 22 28 23 28 24 24 27 23 27 22 25 24 22 24 22 24 24 24 24 24 22 24 21 24 20 22 22 23 30 24 27 28 28 25 29 26 26 28 25 26 28 25 27 27 27 27 25 26 34 30 27 27 24 41 47 60 60 55 56 69 69 80 80 79 79 89 94 85 95 81 83 96 93 92 94 92 93 89 91 92 93 84 89 79 74 69 61 62 45 31 27 27 26 25 26 25 25 25 26 25 24 24 25 25 22 24 23 24 23 22 24 21 23 22 24 22 18 24 23 25 30 25 27 25 30 25 28 26 29 27 26 28 29 25 28 28 25 27 27 27 34 29 26 33 48 67 58 61 59 73 69 85 85 91 89 87 97 99 100 95 93 101 99 97 96 107 102 104 106 101 97 96 98 94 96 92 92 91 89 86 72 47 29 33 25 25 28 24 26 26 25 25 25 22 26 25 25 23 25 23 28 23 23 26 23 22 21 22 21 23 21 24 29 27 25 28 27 26 28 26 29 27 28 27 27 27 27 27 27 27 29 37 29 49 47 66 75 55 65 77 75 90 93 98 99 102 102 99 105 97 108 88 94 110 107 95 109 108 105 100 115 113 106 108 105 97 102 106 103 101 103 98 87 77 61 45 28 26 27 28 28 29 26 28 27 24 26 28 23 28 24 23 25 23 25 25 23 23 22 24 21 23 23 26 27 28 26 27 28 28 25 29 27 28 28 26 30 26 28 28 29 26 40 36 52 77 85 80 64 69 84 90 93 101 106 92 112 107 108 114 111 104 108 93 101 115 110 108 110 115 112 101 116 112 112 109 111 101 106 109 104 98 103 104 100 93 79 66 58 29 25 29 30 25 29 29 33 23 27 25 25 25 25 22 25 25 24 24 26 21 24 21 28 21 23 24 29 29 24 28 26 30 25 28 28 27 29 28 28 28 27 28 26 42 43 50 80 88 64 75 81 95 93 102 110 112 114 99 120 113 112 112 114 110 114 103 95 117 121 114 118 110 117 117 116 118 119 116 112 109 110 113 103 108 111 107 99 104 93 85 85 76 46 23 36 27 24 32 34 27 25 25 27 24 25 23 26 24 26 25 25 23 24 23 23 21 26 27 29 26 30 27 27 28 30 27 28 29 28 27 27 30 29 31 28 57 67 92 81 58 82 97 75 108 110 114 104 119 115 118 127 122 116 116 119 115 108 115 109 124 121 126 123 107 115 124 118 118 121 118 115 112 116 116 116 119 114 112 111 109 101 94 91 92 77 62 42 27 34 32 37 35 27 26 23 27 25 25 25 26 23 26 24 23 27 22 24 24 26 23 28 29 27 29 29 26 31 27 27 30 30 28 29 32 33 39 65 90 85 73 71 78 106 98 91 108 118 119 115 116 122 126 126 126 118 123 117 118 117 126 124 124 119 125 131 122 123 128 120 120 121 119 117 113 120 119 120 118 115 116 113 112 110 105 100 88 91 86 74 52 35 34 33 35 39 32 25 25 27 25 25 24 26 24 26 23 28 22 23 27 23 29 27 27 30 27 29 28 29 27 30 30 27 29 31 34 61 75 84 73 62 69 93 98 116 85 105 122 125 119 123 128 125 132 128 126 127 128 122 117 125 131 125 122 119 127 132 122 130 129 124 126 126 122 122 116 120 124 122 123 115 112 120 120 106 104 115 95 105 96 97 84 53 37 43 31 38 35 41 38 27 24 25 25 27 26 25 24 24 24 26 24 25 28 29 28 30 29 29 26 31 27 28 27 29 32 55 72 70 68 71 48 74 96 100 104 120 100 119 118 130 117 130 131 126 128 132 125 130 131 124 126 128 125 120 120 119 126 134 133 132 128 133 130 129 127 133 121 119 117 124 126 122 119 122 117 108 106 123 106 106 106 105 101 82 54 40 43 47 38 35 39 37 36 22 25 26 26 27 24 23 26 25 25 25 26 27 27 28 28 30 27 30 28 26 30 34 57 85 67 59 67 66 82 96 108 107 114 118 121 126 115 130 119 134 130 125 128 124 116 131 123 132 119 126 120 125 133 129 128 127 129 132 123 134 133 125 128 133 133 122 127 128 125 128 125 127 119 110 116 120 123 110 112 114 97 83 81 60 52 52 37 36 32 36 38 44 28 25 28 24 28 28 21 28 22 26 24 30 26 28 28 30 29 27 27 30 36 58 88 78 64 64 67 97 100 107 109 111 107 129 130 125 130 128 125 134 127 129 129 129 121 128 125 133 128 117 126 130 135 130 118 123 135 130 132 133 126 127 133 128 130 123 129 134 127 126 122 130 126 114 124 130 118 120 123 119 108 86 80 92 66 45 47 39 40 42 44 39 41 34 28 28 28 27 24 24 27 25 24 32 26 29 29 30 28 29 27 55 75 83 82 75 80 82 96 104 111 100 113 119 116 130 126 126 125 130 131 132 129 130 125 123 133 133 127 129 131 123 131 129 131 124 123 127 135 126 128 134 113 131 127 127 134 128 135 127 123 128 121 129 121 127 123 134 119 116 124 117 113 101 91 103 79 68 48 49 43 48 53 49 47 45 43 29 30 29 25 27 22 28 27 28 28 29 28 31 30 24 63 83 100 91 92 95 94 101 111 103 122 113 118 120 127 129 122 120 120 135 140 127 124 131 119 122 128 129 128 133 121 129 135 133 128 118 132 118 125 125 125 133 128 129 129 126 132 127 134 134 124 135 122 125 122 129 129 130 123 117 123 116 117 108 103 101 85 88 68 40 49 44 47 60 54 50 50 51 36 28 29 22 31 22 26 27 27 29 31 33 28 49 93 94 91 91 91 87 106 107 112 111 129 115 122 122 136 128 118 120 136 130 131 124 127 124 125 122 121 129 119 124 127 126 129 133 116 121 129 121 124 117 128 129 131 131 132 131 132 133 126 130 127 126 134 127 133 122 126 131 128 117 127 125 115 121 112 113 94 95 93 58 37 41 52 55 51 62 52 52 59 49 27 27 26 28 30 25 32 25 37 32 42 94 102 91 95 89 91 97 116 115 120 120 132 117 128 125 136 126 122 137 140 133 125 124 132 127 122 120 129 138 122 109 126 128 111 122 119 127 118 125 125 120 134 126 129 120 125 129 127 132 124 127 126 130 130 138 131 116 123 129 124 118 128 127 124 125 114 116 112 97 97 88 55 42 57 43 47 54 58 61 62 65 53 36 24 28 29 28 26 39 34 48 78 110 100 107 95 93 96 107 117 109 123 127 127 127 135 125 139 140 113 153 143 120 141 135 132 131 129 131 134 134 126 122 129 128 118 113 125 125 129 131 131 138 136 126 130 120 124 125 125 135 125 123 130 130 128 133 132 122 120 127 126 127 126 117 121 118 121 119 117 110 106 90 76 55 47 39 46 41 56 58 63 54 66 58 36 29 30 28 29 40 39 85 94 111 108 112 90 97 109 109 122 105 128 120 128 119 142 126 142 144 134 155 136 144 142 141 133 134 124 137 135 126 128 132 131 126 122 119 126 130 125 127 130 140 135 129 129 131 129 128 132 132 133 125 132 125 128 129 128 123 121 128 126 131 126 122 119 117 115 122 108 119 111 98 87 83 45 42 38 46 46 52 61 68 42 54 55 37 27 32 35 39 45 99 102 122 112 111 101 108 113 117 127 111 126 115 135 132 155 145 155 145 164 136 141 149 133 143 139 146 137 142 136 140 121 128 128 131 131 128 128 123 132 126 125 131 126 124 128 130 129 130 132 130 128 132 131 127 131 129 132 127 124 124 128 113 120 119 116 124 117 120 107 112 114 105 85 103 70 38 38 41 42 50 62 61 69 36 55 50 29 29 34 38 60 98 104 117 103 114 112 112 120 128 127 121 127 124 139 140 156 143 159 152 161 116 147 142 137 138 143 149 147 140 140 148 140 136 135 136 133 135 135 128 128 129 131 125 131 133 128 131 125 125 127 130 124 132 128 136 122 112 129 125 126 127 126 120 113 123 119 122 118 128 120 119 113 105 95 105 95 54 35 40 43 44 54 59 68 64 39 59 31 28 36 39 75 104 119 107 109 115 113 114 122 132 119 123 127 135 140 149 142 146 154 155 143 130 143 140 140 137 141 141 149 141 145 149 150 150 145 142 140 140 138 131 134 132 136 121 129 130 133 140 125 128 130 127 123 134 132 140 122 119 129 120 128 124 124 127 116 132 124 120 120 129 135 116 112 114 111 98 108 84 37 35 42 46 46 58 67 66 45 66 29 31 23 63 94 120 115 111 110 106 111 119 126 129 124 128 122 141 145 132 147 148 153 146 140 135 142 137 144 148 132 135 147 138 145 148 154 151 151 147 147 143 139 144 140 136 142 131 129 136 134 144 133 133 135 126 121 129 132 141 136 128 130 126 131 127 129 123 123 129 120 128 124 122 133 116 115 121 112 105 111 99 64 35 40 49 54 57 52 81 55 80 37 34 15 95 110 114 119 118 108 109 120 123 130 132 129 124 124 149 140 143 146 148 142 143 138 139 137 133 135 144 141 142 145 137 145 147 148 147 153 148 141 143 145 147 143 146 142 140 135 138 140 144 134 133 139 135 131 126 134 137 131 132 131 133 132 132 127 135 129 128 117 125 123 126 134 128 122 113 109 112 106 103 98 45 49 52 49 58 63 62 102 82 32 32 16 113 118 108 119 118 107 115 119 128 129 130 123 130 141 152 145 148 137 140 133 137 131 132 117 115 128 125 136 142 143 136 142 142 142 142 148 145 141 148 147 148 139 149 144 140 141 134 140 147 138 137 142 143 143 133 138 136 136 128 133 133 134 129 131 135 124 129 125 127 121 119 127 134 122 122 110 117 106 109 106 73 50 57 59 60 69 58 133 61 30 33 26 120 107 114 110 111 107 125 121 135 107 133 134 134 146 152 146 138 140 131 132 135 124 118 105 111 118 115 127 132 129 134 138 143 135 147 144 145 140 147 143 144 143 144 145 136 141 133 135 154 145 146 148 150 140 131 132 134 137 129 135 130 129 129 132 128 124 131 128 125 126 123 126 133 131 123 120 116 113 113 106 95 53 54 53 65 65 82 112 101 31 21 51 111 108 116 112 109 111 128 124 140 110 137 141 141 143 147 136 147 144 126 138 124 109 109 99 112 105 104 109 109 114 121 124 141 123 128 140 134 135 139 133 139 142 129 142 138 133 131 141 153 144 138 143 147 131 131 132 133 133 131 136 130 126 128 137 128 118 131 124 122 122 123 126 128 131 125 125 113 117 112 110 113 67 47 59 51 83 78 86 159 32 17 73 108 112 112 110 114 125 125 127 138 124 135 150 157 130 121 109 114 106 95 97 92 91 85 79 92 97 95 83 94 90 93 104 106 107 102 115 115 126 132 126 129 133 126 132 132 126 131 130 144 132 131 136 134 131 128 131 130 134 129 137 138 125 121 130 126 124 115 115 125 122 120 122 122 126 122 129 113 114 113 114 117 83 45 54 53 80 79 97 150 32 17 78 109 120 114 104 112 126 113 128 130 137 138 141 128 96 85 81 90 99 98 101 98 91 88 88 89 116 125 99 91 76 70 67 75 76 67 87 88 113 121 126 118 118 118 123 130 129 130 134 132 125 126 128 122 124 123 127 128 128 129 135 140 118 112 108 115 120 106 104 106 114 123 127 125 116 122 125 109 104 117 119 116 101 52 48 63 64 110 103 119 29 23 56 114 124 128 101 112 121 120 136 126 116 84 97 93 86 100 100 123 119 137 112 109 100 88 83 89 88 101 100 95 93 80 73 64 66 63 72 76 97 99 110 110 107 114 119 129 133 129 134 125 121 121 119 116 115 115 118 122 123 126 121 117 101 95 80 100 102 89 83 91 88 100 111 121 115 124 121 118 110 122 120 108 113 61 56 59 67 130 136 58 44 26 47 113 115 109 111 110 125 110 88 77 61 53 52 102 121 115 118 143 125 147 94 112 90 81 73 67 67 96 99 86 82 74 78 79 67 63 67 66 84 84 96 107 107 104 130 135 135 128 129 122 120 114 109 107 103 103 107 109 103 106 103 96 96 81 74 80 77 83 75 84 91 86 99 105 112 117 119 122 119 117 123 106 115 62 60 56 83 139 148 61 41 31 51 105 101 100 114 116 105 40 107 53 92 30 71 115 121 115 130 140 134 129 87 92 88 90 76 74 47 188 161 59 72 76 66 69 71 78 77 71 65 75 86 96 105 126 140 141 141 139 134 123 118 107 108 92 95 92 93 81 85 84 83 68 64 58 62 70 68 82 74 75 92 86 95 100 107 106 105 122 121 116 113 113 116 68 54 67 89 143 155 57 35 35 62 103 89 121 119 95 50 36 143 82 111 32 115 83 110 116 149 129 126 106 89 90 95 103 98 90 127 225 227 98 79 88 70 60 66 70 71 71 82 83 70 81 119 145 141 144 145 147 141 128 124 114 105 92 84 86 82 71 71 72 65 51 56 47 54 60 68 73 71 57 81 83 97 98 103 111 108 114 120 114 112 112 119 78 73 72 96 148 147 69 31 35 62 99 110 118 119 50 37 46 131 121 71 53 129 62 123 127 149 120 101 103 96 80 97 95 106 78 63 208 199 100 107 111 100 80 78 76 71 75 88 118 109 84 81 144 150 144 145 146 140 133 134 125 116 95 80 74 74 70 66 67 59 60 57 62 59 66 65 77 66 69 72 82 83 94 90 109 111 118 113 107 111 113 120 85 82 72 115 117 179 55 30 36 59 100 107 115 83 27 80 111 75 206 32 96 117 69 125 136 138 97 78 116 88 106 102 117 94 82 80 126 132 103 96 106 110 108 112 106 98 92 109 122 140 108 91 96 155 144 146 151 140 138 140 131 123 94 89 75 91 114 114 98 101 99 96 71 75 73 71 69 69 66 71 67 69 72 77 89 98 113 111 114 122 116 113 84 81 102 106 103 187 45 26 46 48 121 91 128 46 90 118 129 68 185 40 118 86 78 132 130 114 89 80 117 95 111 102 108 98 96 82 91 83 90 95 96 85 76 98 108 106 103 116 119 132 135 80 103 112 139 141 150 142 142 140 140 117 86 77 71 102 108 99 98 98 101 103 104 149 116 89 84 80 79 84 83 87 79 78 70 73 77 90 104 117 118 113 87 90 118 83 113 146 50 41 25 74 104 102 107 45 99 116 125 74 173 47 114 87 63 152 113 114 112 99 123 125 122 118 115 76 69 67 47 31 41 52 69 93 79 70 83 88 97 121 130 137 137 91 97 110 92 106 114 127 129 131 125 88 74 64 88 113 120 121 121 122 124 136 149 188 158 112 82 89 78 61 87 99 101 100 73 95 75 75 68 83 98 109 90 97 125 84 91 120 35 33 40 71 91 88 89 30 129 143 146 88 154 70 94 72 65 150 124 143 139 126 155 154 140 113 80 66 140 67 32 25 40 36 54 54 73 95 95 90 91 131 135 137 140 90 92 121 69 148 142 71 94 108 103 86 52 81 100 111 117 116 110 100 108 128 126 135 128 111 116 89 101 71 76 95 95 107 58 110 48 67 84 84 62 79 87 104 125 83 91 91 20 48 48 56 97 80 86 86 150 150 150 117 129 87 113 87 93 140 150 161 155 154 151 162 120 110 128 101 120 54 43 47 60 51 79 71 63 94 108 124 114 125 135 128 133 76 90 82 70 113 124 52 64 87 107 95 44 99 80 80 86 86 85 101 113 116 75 176 176 100 107 111 98 115 70 85 105 109 72 116 47 42 61 84 95 59 61 94 119 83 85 81 14 63 56 67 79 93 106 138 136 147 154 125 110 92 136 138 141 147 140 146 139 149 136 131 118 122 129 166 113 95 76 70 74 76 75 76 72 80 107 127 117 124 122 120 139 60 100 82 119 108 153 115 88 70 90 74 66 94 76 100 95 93 100 93 81 72 98 224 238 78 128 103 112 106 100 75 110 111 86 115 51 37 56 89 96 86 47 41 91 84 82 65 21 51 67 82 88 109 136 138 136 145 151 127 101 97 143 158 157 170 157 151 147 138 131 127 115 105 109 131 107 109 86 85 90 95 84 76 74 70 79 104 111 133 134 135 121 85 76 68 92 77 195 85 75 79 131 58 78 97 102 128 109 92 107 83 65 56 36 162 151 30 84 126 82 105 120 86 106 117 98 112 58 24 55 105 135 94 73 13 161 149 57 46 25 87 86 85 100 125 152 140 129 141 147 137 93 94 147 147 161 161 145 137 140 142 144 135 129 105 110 125 117 116 105 110 113 118 108 98 93 83 86 121 124 150 142 154 85 105 38 60 93 96 137 108 81 45 175 57 73 102 102 132 111 104 119 109 95 81 47 54 47 41 41 68 86 98 118 109 101 125 108 111 48 23 37 125 217 101 114 22 177 158 52 34 27 131 112 106 101 142 151 145 126 141 150 149 84 92 152 147 163 151 138 126 122 148 150 135 133 117 127 123 125 123 118 119 121 117 108 114 97 100 120 139 142 153 158 125 105 61 51 111 115 117 126 131 114 57 155 48 67 97 95 103 91 82 103 101 105 95 78 59 50 66 51 76 72 85 108 113 107 124 119 98 49 28 41 90 214 134 144 25 131 158 44 35 30 97 158 120 140 140 162 132 127 139 146 159 83 86 150 156 156 142 137 138 114 136 151 139 141 122 126 129 124 123 116 113 114 98 104 105 97 128 139 137 145 141 164 95 89 59 90 116 117 130 125 123 111 87 68 61 60 114 95 83 79 74 97 104 104 83 77 61 59 59 59 91 82 84 78 96 102 105 118 105 39 43 71 88 211 166 154 24 131 90 60 29 30 76 148 134 155 146 154 123 134 136 144 166 97 64 146 161 149 137 144 142 127 123 140 139 140 123 132 129 121 116 110 108 99 88 97 113 128 138 137 142 152 163 132 83 80 66 106 124 124 131 131 114 109 95 55 76 47 127 116 100 92 90 100 105 96 91 89 83 73 71 78 80 91 86 72 80 99 86 101 120 40 63 57 90 124 150 159 34 111 56 58 35 32 93 137 146 144 151 134 122 141 146 147 162 125 46 132 159 145 146 138 141 125 115 128 130 131 121 130 113 113 106 88 75 95 105 128 126 132 133 136 144 153 172 70 80 66 101 112 137 129 130 135 112 107 92 56 75 40 127 120 114 99 94 99 110 105 101 103 102 94 90 100 94 101 87 78 89 94 98 91 127 45 59 39 71 124 196 136 43 85 55 60 27 33 96 135 165 132 156 127 126 159 150 144 159 156 63 94 152 153 146 140 140 135 127 131 130 128 111 119 112 97 102 111 111 131 128 137 137 139 135 138 142 167 102 48 71 78 111 135 135 123 130 127 111 115 96 61 73 49 128 124 123 123 98 100 99 104 105 113 116 113 99 107 107 105 103 104 99 112 125 107 111 52 49 18 59 152 172 118 62 89 47 66 28 30 93 140 186 121 157 124 133 155 156 139 150 158 120 57 129 153 152 143 145 137 134 134 138 119 130 128 132 124 129 135 128 132 134 132 137 134 138 143 154 126 36 59 81 110 130 135 129 130 133 127 109 114 107 69 59 66 105 124 123 127 120 103 85 89 102 108 112 111 111 110 107 109 107 113 108 114 130 128 113 52 48 24 79 187 150 93 91 65 54 39 41 34 109 141 189 136 142 131 132 159 143 155 148 149 163 100 72 134 150 146 149 134 149 138 135 130 134 134 133 131 138 129 131 131 127 128 132 131 143 151 126 55 56 69 102 134 135 134 134 129 125 124 111 110 115 81 52 83 69 129 122 117 125 124 106 84 84 89 103 106 111 110 116 111 109 104 107 105 124 123 128 114 102 56 101 132 158 69 79 54 71 55 64 38 115 147 181 143 134 132 138 150 149 151 151 147 156 163 117 67 123 140 150 141 150 144 130 129 136 134 135 134 135 129 130 129 125 125 133 137 152 117 61 83 78 85 114 139 136 138 133 125 124 122 113 111 119 95 63 76 48 133 124 117 116 128 119 118 100 83 82 91 97 103 111 104 111 104 104 101 117 120 125 123 94 52 47 47 156 57 68 91 104 114 112 73 105 166 160 147 134 142 139 149 147 140 152 138 155 161 153 142 97 110 124 130 142 153 126 127 137 134 134 139 132 130 135 127 130 132 133 126 119 131 110 89 63 95 132 136 146 144 137 126 120 125 114 109 127 101 69 61 55 95 123 118 127 120 112 112 118 118 110 103 100 106 105 103 108 106 110 111 113 118 124 114 87 47 42 51 142 48 90 120 128 123 100 122 112 178 149 157 134 143 132 148 144 148 141 142 154 149 147 150 154 143 121 105 108 128 132 132 130 133 126 139 133 135 136 125 128 121 107 91 116 131 90 94 85 116 139 140 147 149 133 131 138 134 115 121 128 105 58 75 70 62 120 121 128 110 115 121 112 113 117 114 110 113 115 109 109 115 114 114 120 122 124 91 103 38 35 99 103 66 117 116 116 89 70 120 133 169 147 143 123 147 132 147 148 140 140 134 151 140 144 145 167 154 162 145 128 115 111 117 123 125 127 133 126 124 114 104 105 96 103 108 118 102 94 104 115 125 146 145 140 150 143 134 147 143 121 122 137 104 57 64 60 87 80 129 121 110 112 120 112 117 114 112 118 113 114 112 111 118 118 118 121 121 121 87 103 34 31 146 62 105 121 108 114 90 40 109 148 168 133 124 129 138 129 149 148 140 140 128 144 135 142 148 169 152 159 148 150 156 140 135 126 111 110 111 103 98 94 100 102 93 72 102 118 105 113 130 138 131 147 142 140 155 146 141 148 147 119 111 140 110 64 73 52 80 53 100 127 110 116 117 113 113 110 113 116 120 113 114 114 120 120 117 125 119 117 98 79 31 84 132 58 125 105 114 114 88 34 101 153 155 123 122 141 138 135 144 151 144 131 131 141 142 150 152 160 151 152 150 155 162 143 152 144 134 128 120 122 115 107 96 89 77 42 102 113 116 141 142 154 154 152 139 157 173 138 135 131 127 112 107 142 127 76 108 41 68 75 31 105 119 109 114 115 112 110 113 107 118 120 124 107 118 117 117 119 113 107 105 57 53 149 74 94 117 92 121 113 74 42 110 175 142 115 119 154 134 136 135 145 136 131 135 142 144 148 151 153 151 158 162 165 163 165 151 147 134 129 115 106 104 86 76 68 51 19 110 121 134 139 147 160 165 158 143 170 159 120 122 111 108 103 104 133 149 91 107 89 53 66 82 38 96 117 112 114 118 116 115 115 119 125 124 118 109 112 107 117 104 108 96 52 153 105 69 117 91 91 125 109 53 58 117 172 126 99 126 162 125 142 135 144 142 136 137 143 146 149 151 151 147 151 161 167 168 169 147 142 133 118 109 98 83 68 56 49 41 20 105 118 113 114 117 142 152 156 145 140 129 115 106 93 91 99 101 115 133 108 108 105 64 40 79 85 58 69 109 110 110 114 117 118 117 125 122 122 111 108 108 106 105 105 95 124 122 73 90 118 81 88 135 105 42 75 134 160 117 87 120 168 122 134 140 136 148 131 133 145 149 154 150 155 138 143 158 165 159 156 149 127 116 107 92 66 59 52 50 40 44 42 53 116 88 69 46 72 128 137 134 113 115 98 82 76 84 80 83 100 97 112 99 91 81 25 56 73 75 72 63 74 107 115 122 119 122 127 131 116 114 104 107 107 111 113 119 97 91 94 104 121 89 84 143 88 52 85 138 158 131 99 77 178 125 131 143 129 147 129 138 142 146 155 150 152 139 140 152 155 162 150 133 113 107 86 77 61 53 51 43 52 63 75 34 62 80 52 29 46 62 109 112 109 96 76 62 64 67 65 75 88 94 78 66 70 68 25 41 54 57 64 77 78 65 65 79 104 115 118 124 114 114 111 106 99 96 92 102 101 103 88 113 92 81 84 147 85 53 101 128 107 164 113 83 137 136 132 143 128 146 131 137 144 148 150 151 146 143 141 154 139 153 136 122 104 109 92 78 73 65 60 66 79 90 106 58 67 89 83 71 88 92 138 70 76 91 62 54 64 61 57 78 92 42 33 50 62 57 40 35 40 49 52 64 72 86 82 92 87 94 91 101 96 94 93 94 99 102 101 105 102 95 99 110 66 70 77 134 80 61 123 95 59 177 123 102 84 137 132 142 130 141 134 137 138 145 148 142 146 142 140 144 140 144 132 122 106 112 94 83 82 76 89 95 102 118 119 105 96 110 99 103 115 99 141 76 70 47 52 37 55 48 69 69 35 20 31 45 47 53 89 47 44 43 44 50 55 71 84 92 109 120 114 131 122 108 105 100 106 106 100 100 101 98 108 108 49 57 76 133 76 58 137 44 66 138 144 110 107 127 135 142 144 145 130 137 133 149 142 143 142 136 137 140 141 142 130 120 115 103 86 88 80 97 105 109 122 130 133 137 133 126 110 104 120 115 105 81 59 30 28 33 26 42 81 54 47 39 28 28 19 73 110 83 63 59 51 48 49 45 72 84 96 115 118 112 119 109 104 97 97 100 104 99 97 99 110 113 56 49 73 141 72 68 129 7 109 87 162 131 152 127 121 144 143 147 138 124 137 139 146 140 138 135 133 145 151 137 133 110 108 88 92 94 97 113 118 125 131 138 135 138 146 139 131 124 112 115 93 69 51 23 35 41 28 47 60 61 75 72 60 46 41 97 105 98 90 79 75 75 61 54 67 75 83 104 109 109 104 109 101 98 97 99 100 102 101 103 104 115 65 45 78 132 65 89 89 16 139 71 132 148 156 128 119 134 146 146 135 121 131 133 139 142 144 136 143 146 146 140 125 112 95 92 99 110 112 127 123 131 133 145 134 141 137 140 141 136 125 109 89 57 33 29 34 58 35 36 48 62 83 92 105 104 102 106 103 100 105 90 89 87 88 73 71 78 79 98 95 106 99 109 98 97 97 97 102 103 100 108 101 121 68 50 90 128 58 118 38 21 160 84 113 152 150 131 123 130 144 152 132 116 133 133 140 144 142 140 150 150 142 124 120 101 98 107 118 125 127 123 131 137 137 137 137 143 139 139 139 141 138 117 85 41 31 30 41 70 48 45 44 62 80 103 121 125 122 120 111 87 109 102 93 86 84 85 95 89 83 92 97 98 98 105 99 94 98 101 101 109 100 107 101 120 54 65 106 115 62 126 13 23 165 118 132 146 156 114 122 127 141 147 134 123 132 131 142 144 149 142 148 145 137 125 118 95 116 116 129 134 126 126 145 134 138 125 143 143 134 141 144 140 129 125 105 49 27 34 41 72 54 45 44 58 88 108 127 129 130 125 120 107 105 107 90 88 80 85 96 96 95 92 95 95 102 102 106 99 105 103 102 107 102 100 105 86 43 79 121 90 78 105 6 29 150 140 140 144 142 107 119 132 133 142 126 128 130 131 141 146 141 139 142 133 129 116 112 118 123 122 141 131 126 127 149 141 143 133 134 139 129 137 137 132 138 129 122 78 40 37 43 79 55 43 44 65 90 119 124 130 128 127 121 120 119 111 102 88 84 80 88 97 96 103 96 93 97 102 105 108 108 104 97 103 102 107 102 43 56 96 116 62 106 80 11 28 94 154 146 139 128 99 123 133 123 136 125 131 135 127 137 143 139 141 153 133 121 122 121 122 129 131 132 127 128 132 142 138 129 125 126 135 134 137 125 136 132 130 129 116 85 53 65 82 73 50 58 79 96 120 121 124 127 130 118 117 122 122 111 101 85 82 82 94 91 101 101 98 92 104 106 111 109 98 102 91 99 108 85 42 76 116 86 60 125 53 17 26 28 166 132 138 112 90 130 135 123 129 128 125 127 136 124 148 143 148 147 132 123 125 124 123 125 137 130 127 128 133 126 118 119 115 123 125 126 126 119 135 123 122 121 117 111 90 102 106 97 78 81 97 98 115 116 118 123 134 127 120 114 129 118 113 89 80 75 86 93 101 92 102 91 101 102 109 108 97 97 83 98 96 94 87 103 101 50 81 124 11 20 26 21 89 141 132 100 72 132 133 132 132 130 123 129 135 132 147 147 147 147 131 130 131 120 119 129 131 123 117 118 113 110 106 113 119 118 117 108 110 100 95 97 93 93 97 115 96 114 111 104 85 100 104 103 107 103 112 126 122 122 130 110 125 119 116 98 75 75 75 91 103 93 96 100 100 96 109 95 95 90 79 95 89 107 117 115 64 56 107 90 10 27 25 32 20 82 91 68 24 130 127 117 141 127 123 133 139 133 135 147 141 135 140 125 129 112 123 137 122 118 112 107 101 96 106 109 111 101 86 81 90 76 71 72 59 68 61 87 89 89 93 84 84 95 102 94 103 100 101 113 110 106 118 122 106 114 114 110 71 73 63 86 97 102 90 107 99 94 99 88 91 97 76 97 90 108 115 113 43 79 129 42 17 24 26 30 31 33 30 36 14 131 124 118 137 126 118 131 133 134 140 143 140 145 141 125 124 119 125 133 111 119 103 87 85 84 94 79 57 55 85 75 74 56 53 54 55 53 61 59 59 50 52 54 62 79 80 90 99 94 97 96 90 95 101 114 106 109 110 111 71 74 64 92 83 109 103 105 97 91 96 91 92 92 90 94 84 106 110 116 73 103 119 12 24 25 28 33 31 31 31 34 19 122 121 119 133 130 121 131 131 138 135 135 146 141 130 128 127 126 132 118 117 103 93 75 63 63 45 32 57 107 86 79 68 71 73 67 57 73 52 48 45 35 37 36 39 50 49 66 86 79 91 96 81 85 88 95 106 108 101 109 80 66 81 87 87 104 92 106 99 97 89 96 90 94 86 99 68 99 112 108 109 122 79 15 25 22 22 28 33 29 32 31 17 90 131 123 131 133 126 126 132 129 127 141 146 133 133 128 127 129 129 107 98 85 69 50 42 41 84 117 129 134 116 127 116 118 109 120 94 124 88 79 80 43 31 35 26 32 35 43 46 60 81 89 83 79 74 80 103 103 97 106 96 71 92 95 93 106 98 105 101 106 85 98 97 87 81 98 49 88 110 110 115 113 16 20 28 23 23 28 31 34 28 33 21 70 137 119 124 131 123 122 133 127 126 130 137 141 126 130 128 130 107 89 81 62 49 25 65 133 146 145 125 143 136 127 122 125 110 114 108 112 95 109 97 106 67 88 65 42 33 31 36 37 46 61 71 76 70 70 91 95 96 107 109 93 92 102 109 106 104 100 98 98 91 98 94 86 81 92 45 79 105 109 115 41 17 23 25 26 22 32 29 33 31 32 28 42 139 129 122 126 126 121 129 128 124 124 138 134 126 131 134 103 99 89 69 49 41 67 137 143 142 125 136 138 144 148 141 138 121 123 118 108 110 111 101 102 85 94 88 88 84 54 53 41 21 33 46 60 56 66 85 88 94 110 113 112 100 96 110 105 102 105 85 92 94 98 89 85 98 71 52 84 99 117 67 13 24 23 25 25 26 28 35 32 30 29 34 19 140 122 123 126 123 122 126 128 119 122 134 123 127 134 128 99 98 85 57 53 61 119 147 142 130 127 134 127 145 142 140 126 122 117 115 101 103 105 106 111 109 112 118 115 110 95 95 89 66 19 23 41 50 63 70 97 96 119 115 114 111 85 109 107 103 100 92 96 88 97 89 92 100 29 63 86 99 62 19 21 26 25 26 25 24 30 29 33 28 34 31 24 121 121 124 124 125 123 125 120 123 118 117 128 126 128 116 97 92 81 60 62 87 128 135 138 131 128 125 110 114 118 114 107 100 86 83 70 75 81 80 92 100 112 113 117 119 107 108 95 102 86 48 21 36 52 70 84 95 111 123 115 111 103 104 104 100 100 98 94 87 100 91 100 73 14 26 38 33 26 21 26 25 23 24 23 26 33 30 29 33 33 32 19 76 138 116 129 118 125 123 120 118 120 111 128 119 121 105 90 86 71 64 82 87 133 124 134 128 126 114 105 92 101 101 94 81 63 54 75 70 66 60 74 84 86 98 97 104 98 83 98 94 113 104 46 34 48 64 77 89 109 118 113 102 109 102 111 95 97 97 93 96 97 94 103 37 18 27 22 25 27 24 24 25 24 26 24 24 34 31 29 35 30 33 28 29 144 124 129 121 123 127 122 118 114 118 125 114 115 98 82 76 61 88 90 110 140 133 130 125 115 117 105 99 93 96 89 68 53 62 67 64 62 56 66 65 67 79 79 79 86 85 85 96 102 111 70 41 52 69 82 92 102 108 106 96 108 97 100 96 89 99 96 99 91 103 82 14 24 28 25 24 27 25 22 27 23 30 24 25 32 30 31 33 30 31 35 21 123 130 120 128 122 126 124 114 117 117 118 107 111 87 77 61 78 93 120 135 143 140 134 127 119 114 98 105 100 99 86 71 59 63 62 53 62 54 52 49 57 65 70 70 80 88 91 89 98 119 63 60 82 85 99 100 97 106 103 108 100 94 98 97 92 98 100 97 94 105 55 21 23 27 25 24 25 25 23 24 25 25 25 26 30 31 32 31 30 30 32 24 76 143 129 123 120 127 119 115 114 114 116 97 112 79 66 73 93 118 137 145 144 134 129 123 113 104 102 107 107 92 88 73 67 60 63 66 58 55 49 48 54 61 78 77 88 88 99 99 103 118 68 77 88 90 95 95 97 99 106 98 96 87 92 94 93 98 101 91 103 105 20 23 29 27 26 26 26 23 25 25 25 24 26 23 31 30 31 33 30 33 31 32 32 146 132 120 123 124 120 118 117 109 115 103 101 82 67 87 108 144 150 147 146 138 126 114 106 110 104 113 100 86 96 86 73 78 63 67 61 50 63 62 58 64 73 78 87 91 100 97 111 114 77 83 85 84 93 89 95 98 100 91 93 87 91 98 85 101 103 92 107 77 15 24 28 27 26 25 24 25 26 23 27 23 27 27 29 33 29 33 32 30 31 34 14 119 144 119 126 123 117 119 121 106 113 109 105 82 73 111 139 143 148 143 145 137 121 116 113 111 107 107 108 100 110 95 87 88 70 68 60 60 72 75 64 71 75 86 92 97 101 97 106 112 95 82 84 86 87 87 85 96 94 95 91 92 96 93 99 98 97 98 114 33 20 26 29 26 26 27 22 28 24 23 27 23 25 28 29 37 30 32 30 33 33 34 21 85 151 135 127 127 113 120 115 112 110 115 102 83 100 125 145 145 140 135 147 138 123 115 121 108 111 119 115 114 113 102 102 81 76 69 77 73 77 81 81 77 77 86 92 97 110 108 110 114 106 92 82 83 82 84 80 87 86 99 90 93 96 92 106 95 100 100 87 13 24 27 26 26 25 26 26 26 26 25 24 24 27 27 33 32 30 30 31 32 33 30 28 37 144 136 132 124 110 117 113 109 120 121 98 95 116 118 146 134 129 138 144 136 120 120 121 108 121 130 113 119 110 107 102 90 90 85 91 101 82 95 97 90 82 87 89 105 106 113 117 123 110 102 88 83 86 82 82 89 89 94 90 92 92 100 100 94 99 105 47 19 27 27 26 26 25 27 25 25 26 24 25 22 29 27 33 30 33 34 30 31 32 30 34 15 115 134 135 122 115 109 111 112 113 121 108 106 100 129 133 131 130 144 143 134 114 120 114 122 127 131 114 117 112 101 100 88 93 96 104 93 103 103 105 99 94 88 92 100 112 113 116 121 117 114 100 86 82 76 76 87 92 92 93 89 95 101 98 100 98 101 25 37 36 35 37 32 28 28 29 25 26 25 25 25 27 22 31 34 26 36 31 30 32 32 32 14 103 139 128 129 124 105 113 113 115 123 110 90 107 130 130 128 141 134 141 125 118 120 120 122 122 125 113 110 105 99 89 85 96 89 101 89 97 100 107 109 109 96 97 112 106 111 111 117 115 119 102 102 82 75 74 86 90 93 86 97 93 103 95 96 101 105 86 87 86 84 93 90 85 89 87 80 77 76 60 51 36 28 33 35 38 42 39 34 31 35 32 14 148 148 121 127 128 112 109 109 104 115 100 86 119 126 127 130 137 129 134 129 125 118 121 115 109 113 117 114 107 94 93 97 100 101 93 92 96 105 107 107 116 104 96 106 109 116 102 109 104 113 98 107 90 74 83 80 92 92 90 90 107 102 91 97 108 115 107 102 98 96 102 103 109 114 120 124 131 138 145 134 120 115 131 138 141 147 143 127 109 104 98 70 179 188 113 129 128 113 112 110 102 115 98 88 120 118 125 132 134 126 136 127 125 119 119 110 111 116 116 108 96 89 101 96 100 98 84 87 95 101 100 106 108 109 102 107 105 108 102 104 101 100 96 94 95 92 77 77 97 90 96 94 105 101 95 99 121 123 118 111 109 107 107 110 112 118 125 130 135 141 147 144 120 110 151 144 139 139 143 148 137 132 129 95 194 218 130 127 129 126 104 107 106 105 95 95 115 110 125 129 121 136 128 119 117 109 114 108 113 111 111 103 94 86 97 89 99 96 81 77 95 97 98 101 99 105 107 104 100 99 106 100 94 92 92 79 96 99 78 75 94 94 94 95 101 98 99 113 116 127 121 117 113 110 113 117 112 117 127 131 140 144 150 151 122 104 157 149 145 134 133 144 144 136 118 139 203 208 194 124 128 137 112 108 106 104 84 107 115 112 123 126 123 129 120 121 114 112 109 101 112 111 110 92 92 90 82 90 93 86 76 81 90 78 93 98 107 105 99 106 98 100 102 99 94 89 82 73 84 90 93 83 90 97 91 102 99 92 93 145 113 120 123 123 119 118 118 120 112 111 123 134 142 149 156 156 131 105 167 157 148 145 140 134 141 144 118 186 202 202 214 163 115 129 130 115 102 99 85 99 119 119 118 124 124 116 114 114 113 109 101 101 93 98 105 84 87 85 66 91 86 80 78 83 85 67 91 105 99 101 94 101 95 93 97 88 92 85 76 59 73 76 95 81 86 97 94 102 100 89 103 166 130 111 127 126 123 123 120 114 108 109 117 128 145 152 156 160 144 109 176 167 156 145 150 144 142 139 144 200 200 202 201 218 145 117 122 121 111 104 90 106 100 117 117 121 119 109 112 105 108 106 97 90 88 92 87 84 73 74 65 82 84 77 71 80 77 72 79 97 94 99 92 94 91 87 91 82 79 85 74 46 59 68 74 84 89 86 99 102 93 90 143 166 151 113 129 130 121 117 113 108 106 108 118 132 149 156 159 162 154 122 183 177 162 149 153 158 154 137 178 200 201 202 202 204 211 146 112 125 121 111 111 107 97 106 112 123 121 109 113 103 103 96 89 76 80 78 84 73 68 71 64 82 79 68 70 66 63 73 75 88 82 88 92 93 92 90 85 86 84 84 58 46 49 60 70 77 86 90 105 95 94 104 171 163 160 121 123 128 118 111 111 114 109 109 119 141 151 160 166 164 160 139 186 180 167 154 159 153 166 136 196 199 201 202 204 202 203 210 152 114 123 115 111 109 104 111 97 113 122 119 113 100 88 96 87 78 64 72 69 64 66 68 66 70 73 59 64 57 61 69 70 79 79 77 87 89 83 86 80 83 94 62 30 37 48 55 64 76 85 96 106 94 86 154 171 159 160 128 117 118 110 112 112 120 122 110 119 148 158 160 173 168 164 156 189 185 177 165 160 151 159 154 202 199 201 202 202 202 202 201 210 168 123 114 110 114 109 109 103 102 109 121 117 102 89 89 73 65 60 62 53 56 55 58 56 57 59 52 60 55 51 68 66 65 68 74 75 80 77 79 81 80 91 37 33 40 52 48 61 74 83 103 100 94 104 178 166 159 161 127 121 116 112 112 116 112 129 115 123 147 158 163 177 178 152 164 191 188 184 175 167 156 143 165 204 200 201 201 202 202 201 201 200 203 190 133 106 115 107 111 105 100 103 104 118 108 93 86 64 66 62 58 54 55 53 51 58 54 51 52 51 54 49 58 60 58 59 69 71 68 82 74 76 82 69 38 40 48 61 60 59 79 92 99 98 89 160 171 163 156 165 127 100 124 116 109 118 113 119 126 127 145 147 157 161 179 159 166 193 191 187 181 170 172 132 156 208 201 202 202 201 202 200 201 199 198 198 198 164 105 104 107 107 98 94 94 99 116 105 95 76 65 65 57 58 57 52 44 59 60 46 45 49 52 51 50 51 49 52 66 70 73 76 65 72 68 59 47 44 60 59 71 74 71 93 106 91 135 165 167 164 156 166 157 61 124 119 112 115 117 123 129 147 155 158 164 160 172 168 165 199 198 192 185 177 178 143 135 214 202 200 201 199 200 197 199 198 197 195 195 193 179 121 96 112 111 88 88 84 96 114 93 87 73 73 63 58 55 56 48 47 52 52 49 51 50 55 51 53 48 62 66 62 66 57 61 67 60 60 48 57 70 65 58 72 73 99 93 123 154 165 168 162 163 164 182 64 97 115 121 131 131 130 138 170 165 163 169 171 175 171 158 199 202 194 186 182 184 145 122 219 201 199 197 196 196 196 193 195 195 194 192 190 189 186 151 103 110 99 92 81 75 102 112 87 63 67 61 61 63 64 63 58 63 61 57 58 55 52 55 57 52 56 43 59 49 60 49 55 67 61 50 63 72 70 60 72 84 100 109 153 150 168 166 163 165 166 174 87 66 103 117 130 142 142 147 170 177 171 171 176 180 180 185 198 199 196 184 184 186 167 150 215 199 194 194 192 192 192 191 192 194 191 192 188 188 184 182 167 133 112 92 95 75 80 103 114 80 69 54 52 44 44 42 47 46 44 46 45 45 40 41 41 38 53 53 53 42 53 52 61 66 51 66 51 72 63 75 83 86 115 139 146 158 168 165 165 165 164 175 110 66 104 117 120 138 153 154 171 178 178 181 175 181 182 187 197 193 196 184 182 178 166 170 210 195 193 192 191 190 190 189 188 188 189 189 187 187 184 180 181 173 155 124 104 89 72 85 115 103 84 69 63 44 43 45 46 37 38 41 37 41 38 44 43 44 47 63 46 47 52 58 60 68 48 70 61 62 74 89 86 111 133 135 151 160 167 166 169 166 164 172 148 91 100 121 122 133 157 163 168 182 180 185 181 182 183 188 201 196 193 190 181 173 155 170 211 194 194 192 193 192 189 188 188 188 187 187 184 186 183 181 179 176 171 168 144 116 88 83 96 116 100 84 73 61 41 44 48 43 34 43 37 38 43 45 47 46 43 70 40 47 62 58 49 60 53 64 66 73 81 91 108 127 129 138 155 166 168 169 168 166 167 167 171 144 98 132 135 140 151 165 168 180 183 184 186 187 187 187 