P2
92
112
255
22 19 24 20 21 23 19 22 22 22 22 22 21 23 20 24 20 24 23 22 20 23 27 38 29 31 33 62 77 67 58 67 73 81 90 91 102 100 102 95 95 110 111 104 107 99 111 114 109 110 108 104 104 106 99 92 98 88 88 77 77 69 70 51 37 37 27 18 22 23 20 22 18 21 20 19 20 19 19 19 18 19 19 16 19 18 19 12 9 12 9 18 22 21 21 23 22 22 22 22 22 22 22 24 21 23 23 21 22 24 18 24 24 24 31 32 53 71 77 85 60 64 71 83 88 101 90 92 96 109 106 104 107 93 115 117 114 111 119 116 115 117 115 119 122 102 114 113 100 93 97 98 88 92 88 70 61 46 40 24 23 23 20 20 21 21 19 21 21 18 20 18 20 20 18 19 16 19 17 17 19 17 16 17 22 22 22 21 22 22 23 24 22 23 21 23 22 26 21 25 23 23 22 23 26 41 32 58 71 99 79 67 68 89 76 103 97 101 98 99 110 114 113 119 114 101 120 111 116 122 118 122 119 117 120 121 118 119 118 111 115 109 102 113 100 101 100 85 83 61 57 42 24 25 23 25 22 25 28 26 18 20 20 19 19 20 17 20 19 19 19 16 19 17 18 18 23 24 21 24 23 23 23 23 24 24 21 25 21 26 22 24 23 24 27 24 36 40 62 89 86 73 69 86 85 101 100 108 107 108 104 116 118 122 112 110 123 122 116 119 127 128 131 131 131 126 118 124 121 122 125 117 116 120 119 120 114 108 102 105 86 82 78 64 43 28 33 26 28 23 22 28 28 20 18 23 21 19 20 17 21 19 18 17 18 18 18 19 26 23 21 23 23 23 22 27 22 23 25 21 25 21 25 21 27 27 26 28 64 78 95 78 75 82 88 97 93 113 107 114 119 118 117 119 118 124 107 113 128 124 115 133 132 127 132 137 139 136 128 131 126 122 128 129 126 123 129 122 121 107 105 102 97 93 81 83 70 53 28 28 34 24 29 26 32 26 21 19 19 21 20 19 20 20 18 19 19 20 17 21 26 23 23 22 25 22 24 24 23 24 23 24 24 24 27 23 30 21 42 73 93 84 58 81 88 97 90 111 115 110 107 122 118 125 130 123 123 119 109 125 132 127 123 133 138 125 126 143 138 139 136 136 128 130 135 130 127 128 128 124 126 123 105 102 89 97 93 96 87 77 43 45 37 38 42 35 36 34 28 25 24 17 21 20 20 18 22 16 19 20 18 18 21 25 22 24 26 23 22 24 24 25 25 22 28 22 25 27 32 61 75 80 74 64 70 93 88 111 112 112 124 114 113 129 119 126 129 128 128 126 115 127 138 133 134 137 142 137 131 143 138 138 139 138 128 129 141 120 126 123 133 126 127 123 128 105 105 111 99 97 95 91 68 71 55 55 61 50 36 39 29 34 29 24 19 20 20 19 22 19 20 19 20 19 21 26 26 25 23 22 26 24 25 24 25 26 24 26 26 54 84 75 72 64 54 79 102 86 104 116 115 109 126 116 128 131 125 117 133 127 125 126 109 132 144 136 137 135 137 147 142 144 144 150 142 139 134 134 143 126 133 133 138 129 127 129 119 115 113 115 110 106 99 96 78 79 70 72 51 59 55 47 39 29 32 37 38 21 20 20 20 21 20 19 19 20 20 22 23 25 23 25 24 25 24 23 25 23 27 31 47 101 79 69 67 75 83 103 103 99 109 123 119 117 126 127 137 133 128 129 132 132 125 133 127 143 141 143 147 130 131 152 146 140 145 150 140 142 135 141 142 138 144 137 137 134 132 131 123 116 112 115 118 104 98 102 94 79 84 80 69 58 61 49 52 52 37 34 40 42 33 22 20 20 21 19 17 21 23 25 25 24 25 26 21 25 24 25 25 23 35 50 84 86 73 73 71 92 98 108 90 111 125 124 122 126 126 134 130 135 127 134 130 135 132 145 141 142 137 145 153 147 144 153 148 147 151 144 143 141 144 146 144 141 144 143 142 137 134 135 128 125 116 106 112 111 111 105 99 91 85 74 88 72 55 56 69 48 53 31 31 35 38 42 26 19 21 22 19 19 24 24 24 26 24 25 24 26 21 27 22 28 67 94 92 84 86 85 95 106 103 118 106 118 134 120 130 134 133 136 133 135 138 139 132 130 147 150 143 139 144 152 150 151 154 158 146 149 152 151 148 143 146 153 147 144 141 140 134 143 138 134 128 137 123 122 122 113 121 117 103 102 89 76 77 89 75 57 64 55 51 44 33 33 37 40 48 31 21 21 20 18 21 27 24 27 23 26 24 28 23 28 35 71 101 103 91 85 94 98 103 108 112 122 119 116 129 123 135 133 129 138 135 132 141 138 137 135 151 139 144 134 133 150 158 154 157 161 158 161 157 154 153 146 148 152 147 152 146 137 142 146 146 126 122 138 130 118 129 117 122 116 111 107 88 90 79 79 82 68 53 50 61 59 50 44 40 34 33 43 36 24 19 20 26 23 27 26 23 26 22 30 30 37 77 90 103 102 95 93 100 106 105 106 115 127 131 119 130 120 141 129 130 133 123 132 139 140 134 140 144 132 146 141 149 152 154 159 156 158 163 161 158 160 166 159 154 145 153 154 150 151 143 143 141 128 126 144 133 127 119 127 126 111 110 102 95 99 95 82 77 90 56 52 47 62 59 57 53 59 37 35 44 40 21 24 26 23 26 27 25 25 33 30 35 62 105 101 98 100 101 103 107 106 107 114 124 132 126 133 124 132 134 131 132 139 121 132 133 141 136 138 133 144 156 151 153 143 151 152 163 153 166 162 157 154 168 165 159 160 162 157 154 158 150 145 146 126 138 139 140 131 128 128 130 113 101 95 104 111 93 91 86 93 72 54 54 49 51 59 50 64 69 43 37 44 46 21 27 22 27 28 25 29 34 36 47 100 111 98 101 95 105 106 112 115 114 117 123 127 125 130 126 139 130 133 129 136 131 135 136 142 148 134 138 150 150 156 142 141 146 161 162 158 160 163 159 158 161 168 153 170 168 158 157 150 155 148 146 127 152 144 138 136 138 132 134 116 104 91 110 117 94 99 95 91 72 76 59 38 45 51 55 60 73 66 45 43 52 39 26 26 26 26 23 37 38 39 66 107 115 100 93 106 112 108 119 111 115 129 132 118 122 129 137 139 129 136 130 124 140 145 136 136 142 139 145 145 150 146 142 150 154 157 157 158 143 156 157 154 159 172 162 170 156 159 153 148 157 146 151 139 146 148 132 129 140 128 133 124 112 104 118 107 103 105 97 101 86 78 80 51 47 62 52 49 66 71 73 43 54 50 28 23 26 26 19 39 47 35 103 112 118 101 95 110 110 121 127 104 127 130 128 110 125 131 137 134 121 135 124 126 133 137 140 143 133 146 152 147 150 137 153 141 141 155 148 158 152 157 155 145 162 165 168 172 155 154 161 147 152 144 148 151 144 155 132 135 133 128 127 126 112 117 118 96 104 103 101 105 93 92 73 84 50 59 46 42 55 65 71 74 56 63 28 26 25 28 21 42 39 67 108 128 100 107 106 114 106 125 124 119 126 133 121 123 137 132 126 126 130 131 126 130 125 137 123 139 136 142 149 151 134 145 151 134 145 145 151 156 160 161 157 152 162 161 158 165 162 153 165 154 149 152 140 160 143 151 137 130 137 130 126 130 122 120 126 105 104 112 107 106 100 99 82 94 84 52 43 48 43 54 65 70 79 69 25 30 27 26 26 29 61 79 112 119 94 117 107 114 109 120 119 129 125 139 123 132 145 134 128 128 132 129 124 131 135 143 125 127 145 136 141 144 136 142 145 142 143 140 155 154 158 159 161 158 162 164 155 163 158 157 158 165 151 159 138 147 146 145 141 130 140 139 127 133 129 117 126 115 112 108 111 98 100 96 95 92 96 65 45 42 46 50 58 64 73 74 25 29 28 24 26 35 70 107 117 105 114 111 119 118 112 117 118 140 117 149 113 145 141 122 142 137 136 135 136 130 144 144 124 125 145 131 128 141 146 142 143 152 140 150 157 155 152 147 153 155 147 159 150 154 158 157 159 163 160 148 142 138 143 141 132 132 134 142 132 132 130 121 127 128 114 113 119 96 81 107 94 92 89 93 44 45 47 50 58 55 69 84 25 31 30 28 19 55 97 115 109 112 109 115 122 121 112 123 133 148 137 148 143 150 138 145 142 142 137 127 137 143 139 139 139 139 137 142 130 136 147 149 154 155 156 167 158 152 156 143 149 151 149 163 150 149 155 155 155 154 163 154 137 136 143 140 137 142 134 127 130 125 128 127 126 120 129 118 118 99 95 98 101 97 88 103 61 39 42 45 50 65 48 67 27 25 30 30 20 77 115 113 114 110 102 120 122 118 124 129 138 151 152 151 157 141 143 145 137 143 141 137 137 145 134 135 142 143 137 137 136 144 149 144 150 155 169 160 155 154 155 155 148 151 158 162 158 147 158 157 147 152 151 150 143 140 143 142 142 140 133 130 126 125 117 131 116 116 128 117 119 98 102 108 103 100 97 98 80 46 48 44 52 61 73 44 26 26 27 27 29 92 116 114 112 114 108 122 121 117 130 137 144 144 151 153 155 122 144 139 136 143 149 148 144 141 147 124 135 138 144 139 143 144 144 147 147 151 157 151 147 154 155 151 157 151 164 156 163 157 157 149 158 155 152 143 142 144 135 146 131 140 127 131 131 129 118 131 113 118 118 118 118 101 92 121 103 101 102 96 98 57 46 50 48 67 69 69 25 28 28 18 41 93 113 116 97 113 110 130 126 118 128 144 139 141 152 155 140 136 148 138 136 143 151 147 143 141 154 137 134 140 144 149 150 146 139 152 151 153 152 149 143 152 152 151 153 152 160 150 161 158 158 154 153 149 151 149 142 142 139 145 118 124 129 129 128 128 127 134 126 124 122 117 109 114 98 120 111 104 98 100 99 68 44 52 50 62 80 51 24 28 33 22 39 90 111 107 111 112 118 129 118 116 141 133 136 146 148 145 132 138 138 145 135 141 145 149 143 143 153 149 147 142 145 143 151 148 152 145 154 156 151 152 162 152 159 146 146 148 157 152 156 159 157 163 137 134 145 143 139 143 142 139 134 129 135 133 129 122 134 140 142 121 122 115 120 123 99 119 118 106 106 109 94 84 52 56 52 57 77 67 28 26 31 29 42 106 103 110 113 112 122 121 120 131 144 141 141 148 141 140 137 138 140 142 151 128 137 149 135 148 152 151 152 146 144 145 153 144 152 154 162 159 148 151 155 152 164 144 147 153 155 152 160 161 161 157 142 138 145 133 141 139 138 137 136 128 144 132 134 125 132 133 139 118 118 123 123 116 114 114 115 108 108 110 96 97 73 62 59 57 79 83 27 27 33 28 51 110 115 110 113 114 125 120 131 141 144 147 134 138 138 141 141 138 135 136 150 136 141 142 140 147 149 152 151 149 147 141 146 146 149 157 160 165 149 163 156 156 164 150 152 157 152 141 156 153 169 155 160 143 145 144 141 140 140 137 137 129 140 129 138 128 127 129 136 124 118 121 119 110 120 122 107 116 115 106 103 93 88 60 62 72 75 90 25 27 36 26 63 97 126 115 116 114 128 129 136 140 146 138 140 128 137 135 136 119 126 133 134 140 143 139 137 146 148 139 154 143 144 139 139 143 144 154 161 154 158 156 162 161 156 140 147 151 156 143 147 146 157 149 156 137 144 144 141 142 140 141 142 136 136 127 131 129 125 133 137 129 123 123 123 103 129 116 111 122 114 111 100 96 95 65 59 63 77 89 39 29 31 31 65 110 117 109 113 115 126 132 152 136 134 140 131 126 137 120 122 109 119 122 124 134 141 139 135 142 140 135 146 139 137 140 143 141 135 142 157 148 152 151 153 160 152 140 147 150 149 151 140 147 153 139 141 139 139 141 137 139 135 144 141 133 133 130 134 127 118 128 130 134 127 125 123 122 129 123 115 130 115 117 114 94 97 74 61 53 88 91 34 43 24 42 68 106 98 112 103 127 128 140 153 123 132 148 123 132 127 112 109 110 115 110 113 122 124 130 135 131 138 142 139 140 133 141 141 139 131 137 142 141 148 143 139 151 155 147 145 155 155 156 143 143 142 144 132 133 137 131 136 138 140 140 133 135 135 133 140 127 127 128 130 134 135 127 120 129 122 132 123 128 120 126 120 93 92 78 61 61 76 97 29 35 38 37 71 97 95 112 107 132 137 141 153 121 146 135 115 134 99 84 91 94 101 92 97 106 110 114 130 131 122 136 136 138 131 134 131 136 135 130 140 137 139 131 136 146 151 147 144 150 150 142 131 136 133 140 131 133 136 130 134 140 140 138 130 137 137 128 125 134 125 132 126 134 133 131 128 132 112 137 130 126 121 134 122 104 86 90 57 67 77 103 27 30 33 46 78 84 113 102 117 132 138 148 136 131 135 124 101 111 71 74 65 75 86 84 81 89 90 88 111 111 111 105 127 118 124 125 117 127 130 123 129 132 131 128 129 142 142 138 133 142 138 132 128 132 133 135 129 136 141 135 133 136 136 132 136 135 132 136 118 130 127 128 124 131 126 127 130 135 99 132 130 129 126 130 131 115 83 96 71 63 84 110 26 35 29 27 94 101 111 95 120 115 110 108 102 105 106 106 99 107 94 85 79 71 74 63 67 68 69 75 77 82 80 78 92 108 112 119 115 117 117 120 119 126 126 125 122 135 129 128 131 129 131 125 121 130 126 133 132 141 148 139 131 139 124 126 133 133 126 128 126 128 124 129 122 128 121 124 129 131 98 130 129 133 136 118 131 122 83 93 72 69 97 106 27 44 25 28 87 105 81 72 80 75 74 76 73 76 78 80 81 84 75 72 80 77 83 76 74 63 59 62 61 62 65 62 65 74 100 109 111 104 100 108 108 125 122 129 127 130 123 122 122 121 114 119 115 127 125 126 132 141 147 131 125 119 119 116 120 119 115 113 118 124 129 130 128 121 126 124 123 130 124 130 132 133 138 120 129 118 82 95 68 80 102 112 25 43 30 35 87 51 45 56 87 115 109 99 85 117 131 133 112 102 105 101 95 89 81 71 68 84 82 61 63 62 55 56 61 64 81 89 91 93 92 95 103 124 126 125 128 126 115 118 115 111 104 110 112 116 124 123 133 130 128 117 106 91 105 106 98 95 100 95 99 104 121 119 132 123 129 125 126 134 135 128 127 134 129 123 132 124 84 98 68 81 103 111 30 24 75 47 94 44 23 100 130 77 65 60 72 117 128 136 101 95 84 85 79 82 83 93 89 94 106 138 98 73 66 70 59 62 62 71 73 86 83 84 112 126 128 122 124 122 111 114 104 99 95 91 100 107 111 113 118 105 100 97 89 78 92 94 79 91 75 93 91 104 104 116 125 122 127 128 130 134 136 129 128 128 129 123 134 124 88 102 77 87 100 112 33 24 136 79 106 35 65 128 93 54 49 50 74 119 114 111 100 82 74 90 84 69 91 86 78 85 87 89 91 84 72 73 75 77 63 57 68 75 77 106 125 127 134 137 128 121 113 96 100 85 75 79 82 91 87 83 92 90 94 87 73 67 80 71 74 78 73 91 89 87 98 101 106 121 124 131 128 142 134 132 131 128 122 129 130 124 99 102 84 110 98 92 28 34 163 150 95 18 126 96 81 69 68 31 86 125 79 101 103 73 88 89 101 76 74 81 88 74 83 64 58 68 77 82 78 73 73 75 54 82 112 126 124 131 140 145 141 128 115 108 95 79 63 71 70 61 63 70 67 65 58 53 44 54 72 64 75 62 72 67 78 72 84 94 103 95 110 133 135 129 139 120 129 132 124 132 129 115 101 106 86 119 86 90 30 32 118 202 65 60 127 89 95 65 61 58 74 119 73 93 92 81 83 98 92 71 74 89 83 81 81 75 69 46 53 62 78 84 68 53 75 102 127 137 137 135 142 146 145 135 125 116 104 84 60 56 56 51 54 50 54 49 38 43 38 42 48 65 54 60 51 64 71 56 83 73 101 104 101 124 138 132 132 119 145 130 131 129 127 120 107 111 96 114 82 90 26 27 70 222 35 113 93 69 77 74 67 65 57 119 93 97 96 112 91 113 90 94 76 87 78 96 101 86 57 48 61 56 61 65 91 61 54 95 138 139 144 139 141 146 141 133 133 124 107 96 59 52 55 53 52 47 44 47 40 42 51 50 53 58 59 60 42 62 61 58 72 69 79 105 92 131 129 130 122 129 135 125 129 138 121 115 106 103 112 102 84 96 21 80 71 185 41 145 50 41 36 55 67 39 91 145 127 124 134 135 115 110 86 65 75 38 38 46 65 73 80 49 33 59 60 69 94 113 65 67 129 143 140 137 151 152 146 136 138 125 111 86 65 83 81 83 75 76 75 74 69 69 72 80 77 70 67 71 60 61 58 41 54 62 74 79 88 118 125 126 134 132 138 122 129 129 126 114 112 99 119 98 89 87 45 146 101 135 67 132 35 46 28 69 47 54 127 160 145 143 153 146 104 90 46 126 157 19 25 18 38 40 61 67 48 46 47 74 104 134 100 64 104 140 143 139 153 155 149 139 131 116 100 84 93 89 81 84 80 80 83 77 74 78 113 140 125 100 83 68 60 64 68 67 63 62 64 68 77 95 117 123 126 135 125 130 128 124 135 108 117 104 111 104 96 83 102 131 108 95 105 103 41 44 28 99 24 79 151 166 151 149 141 118 108 113 62 131 91 25 33 30 39 43 52 39 63 64 74 75 109 139 128 61 110 108 130 137 153 153 157 139 128 108 92 87 73 79 91 92 97 92 88 83 91 94 91 105 107 94 90 76 76 72 62 56 56 57 61 69 77 88 112 127 124 139 118 126 129 123 126 106 114 114 97 92 107 83 140 98 93 90 129 80 53 41 47 164 44 123 151 162 148 153 127 120 122 142 163 117 96 77 58 75 79 94 107 71 78 82 119 117 105 145 135 72 121 111 106 105 164 119 130 118 109 90 88 59 93 90 85 87 88 84 80 88 98 115 61 161 135 78 88 98 64 87 71 80 81 74 58 46 48 64 88 118 119 123 127 122 122 123 121 96 120 105 99 87 110 102 150 87 103 69 138 96 85 53 58 162 66 153 146 168 141 148 136 137 122 131 141 108 107 97 87 101 102 104 116 113 101 115 131 132 122 146 126 77 127 99 115 95 176 107 102 104 113 85 57 95 84 75 66 58 59 68 80 99 114 120 105 218 219 131 93 76 103 71 74 42 64 85 107 108 82 59 50 70 97 111 125 126 117 137 113 109 121 114 102 96 100 99 129 100 100 63 141 83 106 93 98 110 94 142 160 152 139 150 151 147 131 121 135 115 111 93 91 106 110 107 109 109 113 122 131 127 133 149 100 99 110 66 93 70 74 75 75 89 104 69 85 96 69 86 82 88 83 93 100 88 80 71 60 89 111 104 110 85 91 88 87 51 44 74 101 133 129 102 93 67 64 86 113 132 127 130 118 120 110 121 108 100 87 95 98 114 91 68 145 49 67 31 124 138 153 146 147 144 130 152 155 148 125 121 131 127 117 116 111 126 124 120 110 109 114 119 133 132 137 149 68 109 87 107 115 110 106 115 77 62 95 55 108 100 77 97 125 137 87 137 92 72 71 64 39 38 37 46 76 113 72 97 69 92 38 66 99 131 128 112 95 63 83 73 68 111 135 128 123 123 115 119 114 102 97 88 53 142 84 66 146 46 44 16 124 144 160 151 145 146 125 149 149 138 125 130 130 133 126 119 127 124 117 114 114 99 110 123 136 123 129 134 56 117 59 109 108 117 155 115 116 96 90 52 118 107 83 107 132 145 125 139 130 109 89 55 48 22 32 25 37 59 106 68 73 117 54 67 101 140 132 105 86 37 79 118 53 28 91 116 127 131 128 126 112 113 93 76 17 139 105 68 147 42 44 18 123 150 158 148 152 144 125 143 144 145 120 118 123 124 120 97 103 100 89 92 85 84 119 127 129 123 138 94 87 111 46 65 70 85 109 65 93 66 142 25 115 108 95 101 124 139 144 114 131 126 138 110 112 58 44 46 40 34 60 59 104 86 85 72 98 134 144 104 74 32 53 114 21 25 39 113 69 89 114 113 111 109 79 64 28 81 144 75 151 49 42 13 137 146 152 152 142 146 120 126 129 133 122 122 115 114 104 93 94 85 78 78 77 107 130 127 137 136 134 82 122 76 81 109 114 125 147 113 77 67 168 21 93 91 101 107 133 122 128 121 125 118 121 98 102 84 77 66 59 75 80 66 86 87 93 79 93 128 147 117 54 37 53 126 21 59 36 96 62 61 80 58 97 92 70 67 27 50 172 78 140 72 40 17 147 146 158 146 139 134 110 125 120 124 122 122 103 109 93 77 83 71 72 94 117 126 126 134 143 150 95 113 122 67 114 117 121 127 146 122 99 56 136 41 93 75 91 103 124 117 114 114 116 105 113 93 92 72 72 63 66 84 101 93 89 57 86 80 85 102 129 126 60 89 44 119 40 63 44 97 56 55 65 44 75 88 64 55 24 74 167 100 108 118 35 18 149 148 157 146 141 138 121 121 120 121 111 111 102 89 89 71 84 98 115 123 120 125 125 137 151 140 90 120 74 96 115 121 127 140 133 120 106 72 99 58 111 96 97 88 100 106 95 95 110 101 110 97 99 94 84 80 93 107 126 113 109 74 81 87 79 86 121 97 57 87 56 119 44 60 40 67 51 63 76 66 57 75 64 62 22 119 163 129 75 168 47 21 149 146 156 143 145 132 131 128 125 120 116 119 117 103 121 116 126 124 127 130 128 126 127 140 153 92 113 90 83 108 122 125 133 140 119 108 104 75 98 68 115 103 109 101 97 92 77 73 92 88 96 99 109 102 101 106 126 120 131 117 107 99 93 84 101 94 121 78 79 71 49 130 42 36 41 97 100 129 78 42 57 70 90 104 15 141 155 154 75 150 128 21 149 143 150 139 148 132 144 132 130 124 134 127 126 125 129 125 123 125 123 129 126 129 134 152 114 108 97 63 109 123 138 122 144 138 108 103 99 76 101 60 120 113 111 108 108 107 93 71 81 86 92 88 101 99 107 101 115 107 115 110 110 112 110 110 121 123 138 98 124 26 32 139 39 38 75 132 112 141 128 54 75 93 105 114 13 150 159 147 122 97 172 74 142 140 145 136 146 134 148 138 130 132 135 127 127 130 123 122 123 120 121 126 123 132 143 126 87 94 71 95 119 139 131 123 145 130 109 101 99 92 78 63 120 120 112 108 114 115 112 92 78 83 92 96 96 97 93 91 94 93 99 104 114 120 125 125 127 138 141 125 89 23 126 137 41 52 114 131 105 151 138 92 96 103 101 112 12 159 169 128 145 127 105 156 136 136 138 137 146 135 151 142 127 134 131 130 128 131 123 123 121 119 117 121 131 144 136 73 62 67 100 121 136 130 128 127 142 120 107 107 104 110 57 109 100 125 107 111 113 117 116 108 100 76 74 88 100 90 98 89 90 90 90 92 106 119 129 139 132 137 145 115 75 25 167 127 44 62 138 127 112 145 132 126 102 98 106 110 23 162 155 113 149 149 128 101 148 134 123 144 139 157 154 148 124 134 130 127 134 124 125 119 121 117 118 123 137 138 67 55 79 81 112 137 137 126 129 126 151 119 102 102 107 119 56 120 67 138 117 120 113 106 114 118 110 104 76 73 69 83 86 82 88 97 82 96 89 111 114 137 135 136 140 87 92 17 112 111 66 81 133 128 118 108 135 133 91 88 117 120 32 162 157 108 143 153 137 129 110 123 126 115 123 150 157 147 139 131 123 120 129 123 124 120 113 114 114 122 120 78 49 95 66 92 127 142 129 130 123 126 132 118 107 100 109 113 88 92 51 138 122 122 108 108 116 107 107 109 107 104 89 80 75 76 75 87 86 91 99 107 107 114 122 131 130 104 99 52 119 82 69 111 121 123 120 114 111 122 68 74 125 120 37 149 150 120 137 145 129 135 135 131 112 111 113 120 134 145 148 131 128 118 125 118 117 110 105 116 110 96 100 75 93 111 67 111 132 145 137 132 119 128 133 113 109 102 107 113 100 72 58 106 126 118 99 113 114 101 106 104 107 109 105 108 96 97 95 91 89 98 97 99 102 116 109 135 128 115 90 91 137 53 77 120 118 124 120 120 101 104 31 71 122 113 24 154 118 135 138 145 126 140 145 147 155 138 115 95 115 136 147 149 137 129 128 120 123 119 104 86 84 85 96 113 86 89 96 126 138 145 142 130 116 134 127 113 104 111 102 107 88 88 57 52 136 110 100 118 101 95 105 107 97 102 101 101 100 100 103 97 95 100 103 99 100 108 112 119 125 109 73 99 118 54 82 115 108 119 120 104 110 73 27 66 132 97 15 163 85 159 134 149 130 143 140 150 150 151 158 148 137 107 99 101 101 109 104 96 95 91 82 82 74 45 117 96 94 119 115 139 134 153 139 130 122 150 132 114 106 104 99 94 73 56 60 38 123 96 106 111 100 96 103 105 97 104 98 97 101 95 95 100 95 95 99 95 104 97 112 103 115 100 62 118 77 64 101 104 98 108 123 92 126 90 27 79 144 74 15 161 72 155 134 144 127 147 147 148 153 147 158 160 163 171 162 139 121 109 97 90 82 74 63 60 42 46 111 112 119 136 122 142 140 147 148 128 125 159 143 120 103 115 93 75 70 68 31 68 51 126 89 101 102 98 102 102 100 94 97 92 102 98 93 88 98 95 97 96 93 96 102 95 104 92 60 123 56 77 99 99 95 108 124 72 100 71 37 83 153 57 17 149 82 133 139 145 129 143 154 148 155 142 148 161 161 169 153 140 122 107 89 84 69 53 50 41 25 72 118 127 137 147 142 137 140 148 147 128 125 133 130 120 103 113 91 70 92 102 48 34 66 74 113 85 94 96 92 98 95 91 94 95 90 101 93 91 85 90 85 93 90 94 95 87 101 77 93 94 53 88 97 92 88 112 115 30 52 45 45 80 149 46 18 142 104 97 145 142 132 141 152 150 154 134 145 154 156 154 143 129 112 98 82 67 56 39 44 34 16 84 125 132 142 154 153 140 143 180 132 123 116 114 110 101 98 119 88 92 107 117 99 39 60 59 81 112 81 89 87 96 94 94 89 102 88 102 105 91 94 80 80 86 78 94 86 83 105 80 113 54 77 87 95 86 101 115 93 27 36 36 43 81 142 39 21 143 116 102 151 142 134 142 148 150 145 135 139 146 140 137 136 107 98 91 58 48 46 38 34 27 25 63 112 108 123 151 163 138 153 174 113 112 104 100 94 101 96 112 84 115 117 114 110 94 36 50 47 84 115 83 81 79 87 90 94 89 95 97 99 104 91 83 81 81 79 85 83 89 103 108 82 59 99 90 96 83 111 111 114 20 36 34 42 79 140 43 18 131 132 110 149 148 131 137 147 145 139 137 140 134 139 129 119 98 92 69 51 42 40 32 33 33 40 33 74 82 65 125 146 136 133 129 105 93 86 86 83 93 85 99 84 119 119 107 95 126 51 20 48 50 62 112 100 73 72 82 92 88 93 96 97 105 94 80 85 79 76 80 91 101 130 90 70 88 100 79 94 85 105 112 130 21 35 33 43 82 126 52 20 121 149 134 139 149 128 139 144 140 140 133 137 127 129 121 102 96 83 57 46 39 37 34 36 45 48 45 36 60 54 57 133 124 113 106 93 71 67 71 77 80 76 80 69 103 91 83 75 119 54 15 32 43 55 47 85 109 98 84 80 82 89 93 92 98 91 83 82 81 82 96 124 133 97 80 84 93 88 89 95 91 100 119 129 26 35 33 45 81 114 61 19 90 156 137 133 154 120 136 140 138 135 130 130 127 126 113 99 87 72 51 40 41 33 43 44 55 56 52 55 89 96 86 105 125 107 96 75 58 50 57 56 58 61 58 60 72 56 53 61 93 33 23 26 35 47 55 51 54 75 110 117 114 107 103 96 100 97 98 106 114 117 124 107 81 78 87 82 99 83 94 98 95 99 128 133 30 32 38 46 93 89 82 22 92 169 132 132 154 118 129 140 134 131 125 129 127 119 106 96 84 58 44 43 40 44 48 56 62 75 88 97 109 106 107 118 138 92 88 65 55 52 49 43 44 55 56 48 28 23 36 51 49 27 33 29 29 44 50 59 55 58 50 56 83 99 106 111 111 107 105 97 87 76 79 77 77 80 84 90 94 86 98 94 103 103 130 128 25 44 45 58 101 64 106 23 61 162 130 128 150 117 130 128 138 135 127 130 131 119 107 89 75 47 47 44 43 55 53 75 97 112 106 115 111 105 108 121 119 85 74 47 34 53 54 44 48 56 43 18 25 20 22 30 23 31 34 32 28 35 39 53 53 59 56 54 62 71 80 75 90 90 85 79 86 78 74 73 76 84 85 98 90 100 99 93 97 109 131 87 31 47 41 83 96 48 133 34 26 151 126 128 142 122 125 131 131 131 131 129 128 115 101 86 61 47 48 53 61 77 93 102 135 131 112 118 106 110 116 111 103 77 56 37 21 25 39 40 55 38 20 18 30 19 22 20 23 37 33 36 26 34 35 44 45 44 53 57 52 69 79 72 86 93 83 84 85 85 71 75 79 84 87 99 88 100 98 96 94 116 110 40 37 41 61 100 50 70 136 31 24 85 106 136 130 125 122 129 132 135 134 132 125 104 98 75 66 61 72 80 93 100 116 135 140 137 127 123 105 115 112 103 89 72 40 31 24 29 31 43 43 27 20 26 26 20 23 26 32 51 34 34 30 30 32 41 40 43 50 48 47 61 68 72 83 77 89 84 86 92 79 74 83 85 93 98 92 101 99 88 93 119 41 35 49 52 100 67 38 99 97 29 31 33 33 145 130 128 116 131 129 129 126 125 121 106 92 74 82 74 105 105 107 124 138 141 135 146 133 128 109 112 112 87 80 51 31 26 30 32 41 30 24 22 24 28 26 26 27 31 65 88 51 33 37 32 34 35 38 39 39 45 44 53 60 70 73 79 89 90 78 86 86 80 84 92 95 98 94 93 92 91 94 89 53 48 49 100 78 38 62 122 38 29 33 32 18 141 133 124 115 125 131 124 130 119 112 97 93 92 95 100 119 113 111 135 144 137 137 149 129 131 129 104 96 77 63 46 29 32 30 37 53 34 24 25 27 28 36 43 57 65 92 100 77 40 40 34 35 33 37 34 38 39 42 46 58 67 72 80 79 88 91 82 83 88 82 97 92 96 88 98 96 91 92 99 87 105 79 110 38 63 94 101 11 30 35 33 19 127 138 117 124 117 133 128 133 121 106 102 105 104 105 123 120 120 120 140 148 144 133 143 128 131 128 95 100 81 60 38 29 33 35 39 58 37 27 26 25 42 55 81 89 92 97 94 89 72 48 40 34 34 35 37 36 39 36 43 55 61 73 82 83 80 92 87 90 89 86 94 88 81 88 95 96 82 102 105 100 124 102 45 62 76 122 53 21 31 33 33 12 122 134 120 126 122 137 132 130 127 109 107 109 110 111 128 113 110 119 125 131 125 121 139 132 134 119 107 100 73 57 37 35 31 37 41 64 38 31 28 34 52 79 100 103 91 102 88 85 91 78 48 41 33 33 35 37 37 34 44 50 62 67 78 85 81 87 95 90 92 80 93 89 73 82 92 86 83 97 103 96 115 100 39 77 104 113 15 25 32 31 37 17 104 134 126 131 121 133 135 134 122 115 118 114 115 125 122 113 117 112 119 108 108 119 124 126 126 113 118 100 74 60 44 33 31 42 47 63 42 30 30 46 62 97 100 104 94 96 86 85 92 88 73 49 43 36 37 34 36 32 44 53 59 69 74 80 85 84 89 91 93 86 85 78 74 73 92 86 86 64 118 97 110 115 75 94 131 60 18 27 34 35 35 18 87 135 121 127 127 126 137 125 131 118 117 111 116 126 112 106 100 99 94 97 97 116 109 112 109 100 104 85 73 58 46 36 31 40 49 59 36 33 33 52 77 96 98 99 100 94 101 84 83 92 77 69 52 38 40 35 36 29 44 46 56 66 73 71 84 79 84 84 90 92 77 77 68 73 94 98 80 38 128 100 114 117 120 114 113 21 24 26 33 35 33 27 62 140 123 123 130 131 131 133 139 119 121 118 125 126 105 96 86 79 69 91 90 102 91 77 77 68 69 62 62 49 48 46 34 43 45 45 34 33 38 60 85 90 89 93 99 95 101 91 83 87 79 74 63 45 40 38 36 34 44 47 53 59 78 61 79 74 85 76 83 81 88 78 73 81 88 104 58 33 123 103 118 116 127 120 46 19 27 25 33 33 34 30 49 145 124 125 129 124 137 135 131 120 123 125 122 113 98 96 71 52 52 66 71 59 50 53 57 49 47 51 53 48 44 52 37 38 37 35 32 32 40 65 78 85 77 82 91 92 86 87 89 74 76 72 68 54 40 41 38 32 41 55 57 54 77 57 76 69 78 70 85 78 83 83 79 82 89 106 32 40 108 109 118 123 124 53 18 28 26 26 33 33 31 34 25 141 121 127 126 126 140 131 126 121 129 127 122 104 89 70 58 45 41 35 25 16 25 32 26 28 31 34 36 38 50 48 39 32 33 34 29 32 44 56 72 79 79 72 76 74 74 74 90 74 66 76 68 62 43 42 35 36 35 50 63 53 68 57 66 64 78 71 88 79 88 75 74 81 96 81 30 49 84 126 110 127 62 17 26 28 28 25 33 30 37 34 13 128 123 127 127 122 137 133 125 123 125 130 111 89 74 53 44 36 26 27 25 23 22 23 22 23 36 47 27 32 29 32 31 28 28 30 33 35 33 45 56 68 65 70 63 59 68 65 77 78 70 68 66 64 51 43 46 39 41 46 57 54 62 62 61 63 69 78 90 83 85 76 69 81 110 33 49 55 76 107 115 71 19 27 25 27 27 25 32 30 34 34 18 107 126 127 128 128 133 133 120 123 124 119 89 75 56 47 31 27 45 68 68 65 54 48 40 27 24 34 33 35 24 26 19 21 23 20 21 25 29 34 35 47 52 53 71 53 53 55 60 72 78 61 66 68 57 41 55 47 45 47 54 54 58 65 58 72 65 85 92 83 82 78 73 95 97 13 32 61 78 87 56 24 27 28 26 29 27 25 34 31 35 30 28 70 136 125 127 120 137 123 128 124 120 99 81 65 53 37 26 59 116 144 121 110 101 90 84 61 50 30 29 43 25 34 22 21 17 22 15 21 18 23 30 28 34 43 49 43 45 47 49 64 73 66 66 71 60 55 60 53 58 54 56 66 54 67 57 71 73 89 91 80 80 78 93 105 51 18 24 31 36 30 28 31 27 25 25 29 23 27 30 34 30 34 31 39 146 119 125 119 126 122 120 129 109 92 78 62 46 34 44 104 138 144 128 141 127 121 113 96 84 73 49 46 32 36 35 27 23 22 17 25 24 18 15 20 19 24 29 37 37 41 45 49 67 57 70 74 70 68 74 58 71 68 60 63 63 64 53 66 79 86 89 76 81 85 102 101 19 26 29 25 26 27 28 27 31 26 27 29 27 25 33 30 34 30 33 35 144 128 120 123 116 125 121 120 101 85 73 57 40 52 76 131 135 125 131 142 138 127 115 119 102 98 70 65 42 42 52 39 32 28 26 29 25 23 26 17 18 17 16 24 36 35 36 51 55 55 70 75 75 74 83 69 61 75 67 64 68 63 56 71 85 81 93 83 84 89 106 63 19 28 28 27 26 29 27 26 28 26 27 29 26 27 32 34 34 35 34 24 147 127 123 120 117 125 115 111 92 77 69 53 47 63 106 137 128 121 128 133 139 138 131 121 102 103 89 82 56 58 56 53 34 40 44 38 42 35 31 30 24 23 22 20 23 33 36 38 50 64 75 87 80 81 85 72 65 78 72 71 69 65 66 77 88 86 88 88 85 93 100 29 25 28 27 29 27 29 28 27 27 29 27 28 28 27 31 32 34 33 35 14 141 129 120 116 123 120 110 103 83 69 59 44 69 64 120 133 127 124 120 117 140 136 140 126 108 108 99 84 80 77 67 65 55 52 57 60 72 75 58 69 52 49 46 33 25 24 31 41 50 65 77 84 91 77 84 78 71 77 76 69 69 70 68 85 88 94 81 81 91 97 80 19 28 33 27 27 29 28 25 25 31 27 26 26 26 28 64 82 91 98 96 74 130 122 118 115 119 109 105 93 74 61 51 62 78 90 130 130 119 113 110 102 119 121 123 111 106 105 103 93 93 91 84 84 70 68 74 80 86 83 75 89 73 74 64 60 59 29 27 40 50 66 73 84 89 83 74 79 75 79 85 67 68 71 75 88 94 89 91 87 85 105 79 62 71 77 84 83 84 85 81 75 81 79 75 62 45 38 156 153 159 161 153 157 121 121 121 111 123 94 110 84 64 53 61 83 96 118 136 125 120 113 97 95 97 108 101 95 84 82 71 70 76 78 79 83 81 86 88 91 96 93 87 88 73 71 59 69 64 51 32 35 53 62 74 83 81 81 63 74 78 70 81 68 73 69 84 89 94 88 81 95 88 108 78 75 72 82 91 94 103 114 120 124 134 143 148 126 101 97 159 143 143 152 158 153 126 116 125 109 117 98 103 76 56 62 79 91 126 137 133 124 112 102 103 91 88 99 91 81 67 56 54 61 61 56 54 65 71 72 74 83 80 79 77 61 61 58 56 62 60 60 44 43 55 79 85 76 81 77 70 80 69 72 73 75 73 77 82 94 92 87 85 89 89 126 106 88 81 86 92 101 110 122 129 133 141 148 153 131 87 81 161 145 131 137 153 161 138 114 119 111 111 107 95 74 58 73 84 129 138 141 124 116 112 103 102 89 92 96 94 71 54 53 57 58 53 51 45 50 57 53 53 59 54 59 58 49 49 48 55 52 69 62 59 65 66 83 85 76 77 74 72 78 64 71 67 75 75 77 86 93 89 88 87 83 98 141 125 104 95 97 106 112 116 121 131 136 146 148 157 139 81 79 171 149 143 133 133 152 152 110 114 114 110 109 95 68 64 84 119 141 147 138 125 114 101 96 100 99 101 94 83 75 58 60 55 47 47 43 39 43 44 39 35 45 37 39 45 43 52 54 52 62 71 64 70 70 67 79 77 74 74 73 72 63 70 66 66 72 79 79 97 86 85 92 83 78 113 130 125 112 113 116 122 129 116 106 121 138 148 154 160 149 90 86 174 156 149 145 138 134 150 120 115 107 116 109 80 71 73 103 136 136 136 130 125 110 102 102 110 107 104 85 79 75 61 49 50 42 42 41 41 36 33 32 32 35 38 42 53 54 62 66 67 70 76 67 73 73 67 78 73 71 74 67 74 65 69 71 72 77 77 90 100 82 89 86 85 90 127 119 121 125 123 125 129 131 111 95 110 128 151 156 163 156 111 95 181 169 159 147 147 143 146 132 111 108 115 108 86 76 82 112 135 129 126 130 126 108 112 114 112 104 105 87 86 88 69 55 53 40 46 42 39 34 31 33 29 34 42 50 58 69 70 65 76 72 80 67 79 74 73 72 71 66 70 57 76 72 67 72 78 74 81 97 88 88 88 86 80 127 127 117 124 127 125 126 126 121 99 96 107 123 148 162 164 165 130 100 182 174 162 153 150 154 152 152 116 107 115 112 86 74 81 125 128 122 124 133 134 119 111 119 107 107 115 105 111 101 87 80 64 49 49 41 44 38 39 37 35 47 47 65 72 76 73 72 73 80 76 77 79 83 71 67 70 63 64 56 72 73 63 73 74 78 86 99 84 88 81 92 67 172 138 115 129 125 125 121 115 103 99 100 108 124 148 162 171 171 146 111 185 177 164 157 162 156 161 162 136 111 109 113 89 62 93 120 119 117 131 140 129 108 122 110 106 123 122 113 119 105 106 93 72 65 61 65 56 59 57 54 55 59 64 74 77 78 81 83 84 81 77 70 79 86 74 71 68 61 66 61 68 71 61 73 76 81 89 94 89 81 86 87 90 178 164 112 131 126 117 115 105 102 102 104 115 132 146 169 173 175 160 122 182 178 164 160 167 157 169 149 202 116 103 114 85 65 103 118 119 124 126 134 118 116 114 110 121 121 119 108 113 106 102 97 90 86 80 81 83 74 71 73 70 78 73 77 77 84 82 86 82 86 79 72 70 85 76 73 63 59 60 63 61 69 65 71 82 80 98 93 91 82 89 81 143 172 171 119 127 123 112 107 109 105 101 102 113 140 144 165 181 177 170 133 181 175 167 163 170 160 159 166 211 193 109 110 99 76 103 114 118 124 124 129 119 118 116 111 118 119 114 110 107 104 94 92 90 92 91 95 84 93 82 88 82 81 79 81 80 84 90 85 85 85 83 79 77 80 82 70 57 51 58 61 65 70 63 75 79 94 93 91 93 84 88 95 172 168 169 127 117 115 110 113 111 113 104 101 108 147 153 167 192 185 169 144 179 173 170 164 168 160 140 187 208 207 200 120 95 90 105 109 117 124 114 127 123 118 118 104 102 103 108 109 98 96 93 89 90 88 87 87 83 85 85 81 90 86 94 85 88 94 89 86 81 88 80 75 76 67 81 63 54 54 57 60 73 58 72 75 82 97 94 85 91 84 76 137 173 165 165 119 114 114 112 113 109 110 110 101 111 150 167 176 189 191 156 162 177 176 173 168 170 173 117 202 206 204 204 222 98 94 108 110 118 117 125 123 119 116 114 101 99 111 112 107 100 89 89 92 95 92 94 88 85 85 85 90 92 87 100 92 82 92 88 95 76 73 81 70 72 67 73 62 56 57 50 54 69 70 75 76 84 92 93 89 87 88 94 171 168 155 173 99 103 119 107 110 113 106 114 115 127 157 162 168 172 186 162 164 175 177 170 170 171 185 108 212 205 205 202 208 197 95 99 113 121 113 119 114 109 105 103 99 99 106 106 101 88 81 89 88 91 89 87 78 78 83 83 87 85 86 99 86 86 89 85 88 73 70 77 68 67 62 60 62 60 64 45 54 65 72 75 78 89 95 88 92 84 83 143 172 165 152 176 111 72 115 110 109 104 113 119 134 143 157 164 168 168 186 162 159 179 179 172 168 172 186 111 216 206 204 202 203 211 169 96 101 107 122 114 108 110 100 99 94 106 103 102 90 80 74 80 81 82 83 80 69 70 81 79 79 81 80 88 86 92 78 80 78 74 75 63 68 58 55 52 57 57 68 53 58 60 72 80 80 86 92 92 80 85 107 170 166 157 160 174 138 35 104 109 114 111 116 125 138 152 155 165 169 168 181 169 156 175 176 170 166 172 187 114 219 204 202 200 202 201 209 146 102 97 124 107 103 103 100 92 90 93 99 95 79 75 74 71 68 73 76 68 64 66 70 71 74 75 84 85 81 81 80 70 76 74 67 65 60 49 49 46 46 48 65 58 57 55 74 71 79 93 92 89 80 84 151 167 162 156 165 177 136 43 86 106 120 116 118 130 140 156 161 164 168 170 173 174 174 171 177 168 163 171 177 145 213 204 200 198 198 198 198 204 155 100 100 117 102 93 96 86 83 75 84 81 72 65 70 61 53 70 64 61 61 61 61 56 70 76 78 80 76 69 75 70 69 73 59 63 56 44 42 39 45 42 48 47 54 56 68 70 84 86 91 91 82 113 167 163 156 164 163 175 114 55 68 104 114 116 127 132 142 156 166 164 170 171 172 174 182 167 169 169 160 168 171 158 211 198 196 194 193 194 193 195 197 156 101 101 115 93 90 77 70 68 70 68 62 53 56 46 48 61 60 55 58 60 60 58 63 72 72 71 70 67 65 60 60 64 56 49 55 46 44 45 42 45 43 45 48 59 60 65 92 87 88 89 93 146 160 161 158 165 162 175 109 71 75 105 109 113 128 132 141 158 167 169 167 172 172 176 178 179 174 173 162 166 155 164 209 193 190 186 186 190 186 190 189 193 174 99 106 102 84 77 62 59 54 60 54 49 47 52 43 57 53 47 53 49 52 54 54 65 64 61 62 63 63 62 61 53 58 51 52 45 27 35 34 39 40 45 49 50 60 72 87 82 85 89 134 149 160 158 162 164 159 169 122 82 73 104 109 113 127 128 140 159 167 169 168 173 172 172 167 183 179 169 161 166 149 163 207 192 187 185 182 183 181 184 185 187 188 180 105 94 95 84 59 53 49 53 49 48 47 50 50 47 46 43 45 40 42 50 47 51 54 48 56 56 60 54 60 48 57 52 46 31 25 31 34 36 37 38 46 48 67 73 79 87 87 116 143 149 160 161 164 162 156 157 146 96 69 106 113 116 121 123 139 158 164 166 171 171 170 168 160 185 182 170 161 162 151 166 206 192 188 189 186 184 180 182 182 182 182 182 179 120 91 89 64 61 50 48 45 51 53 49 49 45 40 45 44 35 45 45 42 44 43 46 46 49 57 44 59 54 46 43 33 30 30 35 33 40 42 48 54 51 58 69 76 91 105 131 143 154 160 162 163 156 157 149 155 116 86 93 120 117 119 126 135 154 161 168 169 166 163 162 148 188 181 171 164 157 151 165 207 193 192 191 192 187 184 182 180 179 181 176 180 175 145 97 81 81 66 54 53 51 49 51 57 53 43 49 46 40 36 45 38 37 37 43 41 47 53 52 47 39 39 37 30 33 36 38 36 45 46 41 45 45 51 71 76 102 121 130 143 156 160 166 160 156 152 148 153 132 102 79 123 117 121 123 138 148 160 167 164 160 158 153 150 190 181 170 163 155 155 152 211 194 193 192 192 190 188 186 184 178 179 174 175 173 173 160 118 103 88 67 63 64 57 54 47 59 53 48 50 51 42 45 44 40 40 43 46 42 41 38 32 35 29 34 31 34 37 35 42 43 47 45 43 51 61 69 95 114 120 133 148 159 163 163 158 151 151 144 150 143 120 72 120 118 119 126 134 149 157 164 161 155 153 151 157 194 181 170 162 157 157 137 208 197 190 189 192 191 188 189 185 181 180 173 171 169 171 165 165 148 128 77 65 57 47 49 47 51 55 50 52 56 50 44 44 39 38 33 33 28 34 27 29 32 27 29 36 35 34 36 41 31 49 50 52 71 77 91 106 114 118 142 154 159 163 159 157 150 146 144 149 141 139 90 101 125 116 129 134 150 153 156 156 151 150 158 166 