P2
92
112
255
19 23 20 22 20 21 23 21 23 21 21 21 22 22 21 23 19 24 20 22 30 38 49 54 62 84 67 58 69 80 84 93 96 103 105 107 106 94 109 115 111 111 105 112 118 119 110 115 112 104 113 110 99 101 97 93 94 79 82 88 57 56 40 39 26 22 19 22 20 20 19 20 20 19 20 20 16 20 20 16 19 16 18 14 1 1 1 10 18 17 16 15 22 22 19 23 20 23 21 23 20 21 22 20 23 25 20 26 21 20 22 38 28 46 64 92 85 67 54 80 78 91 99 103 92 100 106 115 106 111 102 108 121 121 115 120 124 118 125 116 125 125 117 110 121 112 101 97 110 99 92 96 78 82 59 50 41 27 19 23 20 21 19 21 21 20 18 20 17 18 19 17 19 19 18 14 13 14 10 17 16 17 18 18 22 24 18 24 19 23 23 22 22 21 24 21 22 23 21 24 23 24 38 35 47 74 95 75 64 80 77 91 92 103 103 105 102 107 118 115 122 121 110 113 120 118 124 125 126 124 121 122 127 125 124 122 122 116 117 105 113 114 101 108 96 90 79 71 54 46 25 25 28 24 24 24 30 20 19 19 20 19 20 18 19 17 18 18 19 16 20 17 17 18 17 17 26 22 23 23 24 19 24 22 21 23 24 23 24 23 22 29 22 29 52 62 93 92 72 73 85 93 92 103 111 107 112 109 114 124 123 125 111 124 129 118 126 122 137 132 137 136 133 123 127 126 128 128 126 120 125 123 122 122 114 111 109 100 93 89 78 74 40 36 28 27 28 22 26 30 23 18 22 20 19 18 21 18 20 17 19 17 20 17 16 19 18 15 23 23 24 22 25 21 26 23 24 20 22 27 23 24 34 19 33 56 90 89 71 76 81 89 95 94 108 114 114 121 121 125 121 119 130 118 111 124 137 113 133 135 135 134 141 143 142 134 138 132 126 129 135 130 129 130 132 126 120 106 110 108 90 97 83 82 74 53 24 38 26 27 31 29 34 26 21 20 20 18 21 20 20 18 20 20 18 18 18 18 19 12 26 21 25 23 24 24 23 23 24 21 25 23 25 29 24 46 73 90 84 64 56 93 98 91 107 116 116 105 123 121 124 135 130 122 130 109 120 135 134 125 133 142 138 125 144 144 147 139 142 137 133 140 136 137 135 131 131 127 131 113 111 94 92 104 97 101 85 78 40 55 44 46 49 34 40 29 31 27 17 22 21 20 20 19 19 19 19 18 19 20 18 18 23 23 23 24 25 22 25 23 26 21 25 26 27 36 67 80 68 68 56 69 95 85 108 111 117 117 128 106 133 122 127 134 131 131 133 121 123 143 137 133 140 144 146 131 146 143 143 144 142 139 131 143 135 131 123 134 132 133 127 134 119 101 115 112 94 104 97 86 69 77 55 66 61 48 43 40 31 32 33 27 20 18 22 19 19 19 20 19 17 18 20 16 21 22 25 23 21 27 23 21 25 23 24 28 39 95 77 74 74 61 70 96 103 89 114 120 105 129 119 130 131 130 121 132 133 130 134 116 119 147 143 138 149 138 154 147 149 149 153 150 144 140 138 144 135 133 135 141 138 128 132 129 119 118 118 118 111 105 100 89 85 79 78 61 56 63 62 50 36 31 35 40 36 23 21 20 20 19 20 19 18 18 20 16 24 23 24 24 25 23 23 27 23 23 29 48 80 89 71 66 66 86 99 108 96 109 120 123 120 124 125 136 137 132 130 135 134 127 134 122 140 147 148 149 141 126 154 151 147 148 154 149 149 138 146 144 145 145 144 144 139 139 133 134 121 118 117 124 113 100 106 102 89 84 88 84 71 62 57 59 51 58 36 31 38 40 38 19 19 21 18 22 19 20 17 21 25 24 24 23 24 24 24 23 24 23 62 75 94 79 78 80 85 101 104 104 95 123 127 120 128 117 141 132 138 125 139 129 139 134 142 142 149 142 142 157 150 143 157 162 148 160 146 152 144 148 151 148 147 151 144 146 145 141 137 135 125 125 110 116 115 112 111 99 105 84 85 80 94 67 57 69 60 52 51 29 31 34 40 41 27 16 22 19 20 19 19 20 25 26 24 23 25 26 23 26 32 49 101 98 90 86 95 95 102 106 115 109 115 129 127 125 136 130 139 138 135 138 141 136 134 140 151 149 147 145 152 157 153 159 159 161 144 163 151 156 151 144 157 151 150 149 141 141 149 144 142 137 138 131 124 124 113 122 121 108 108 93 87 73 92 89 59 68 54 61 52 44 34 33 36 48 44 30 17 20 19 19 20 17 26 22 26 23 26 27 30 25 71 90 108 100 86 91 98 106 105 113 115 123 120 121 128 127 141 129 137 140 135 140 145 139 138 150 149 147 143 136 149 163 150 167 161 165 162 167 156 160 153 154 161 157 157 155 143 143 147 149 141 122 139 143 117 135 120 130 119 118 111 94 94 83 84 82 86 62 51 55 63 61 48 49 42 29 34 46 31 20 21 20 19 22 26 25 26 23 31 27 39 53 101 107 95 106 93 102 106 99 114 105 124 132 123 128 121 135 137 129 131 132 130 141 142 141 142 145 142 143 141 146 152 163 159 165 160 169 170 166 162 171 165 159 154 152 163 154 155 149 154 148 140 128 140 144 126 125 128 126 123 113 111 106 91 100 93 74 91 79 54 49 54 59 65 58 59 57 36 31 46 38 19 25 19 18 24 26 23 26 36 30 51 95 112 100 95 101 106 109 111 100 116 117 130 133 127 134 123 138 133 134 137 129 124 141 134 144 136 139 143 151 156 156 153 153 159 165 161 167 173 163 160 171 176 167 162 160 165 157 166 154 153 142 140 134 141 148 135 131 128 136 118 110 96 104 110 101 96 83 95 83 73 53 52 44 56 56 57 73 63 39 37 49 38 22 22 21 26 26 20 38 30 40 77 109 113 96 102 102 108 107 118 111 122 119 128 126 127 136 128 137 133 132 137 133 128 142 137 146 142 134 147 155 162 148 147 148 162 170 160 167 176 159 164 166 176 163 170 173 166 163 163 156 157 154 133 148 153 139 143 135 134 138 120 119 87 103 120 106 93 100 97 81 79 75 50 40 48 58 54 68 73 64 37 52 45 33 24 21 27 27 20 39 47 38 98 112 122 96 98 111 116 111 120 112 122 128 127 124 118 138 141 131 136 136 125 136 146 140 140 144 151 138 148 150 156 147 146 152 161 163 164 155 157 166 162 158 175 169 170 171 168 159 153 155 157 152 140 148 156 138 138 140 136 137 127 116 103 113 118 103 107 96 106 88 88 79 79 45 58 59 48 60 67 76 65 37 66 42 33 27 25 27 22 42 39 69 109 125 113 103 110 110 117 121 118 120 126 129 122 109 132 134 141 123 133 135 119 133 145 140 146 137 146 151 150 155 145 150 155 145 162 157 159 157 156 167 150 165 179 170 179 164 154 165 154 161 147 152 155 145 159 140 133 138 133 128 132 120 111 121 104 100 108 103 107 100 96 78 88 71 61 51 44 52 58 71 72 69 60 58 49 44 28 23 31 32 51 89 118 117 103 105 110 110 114 124 120 131 123 127 121 132 135 127 134 125 130 129 131 127 138 125 147 135 144 154 156 146 149 153 143 141 156 154 160 162 161 166 147 161 168 165 174 171 156 171 155 155 150 145 163 147 157 142 131 140 130 126 132 123 118 131 107 108 109 111 109 100 101 93 90 94 72 48 45 47 47 61 73 77 76 70 57 70 26 24 28 35 68 99 120 108 106 115 112 110 119 119 123 133 131 133 121 143 141 132 123 132 132 128 126 133 144 132 130 141 147 145 155 139 143 153 148 147 145 155 158 162 165 172 163 168 170 164 162 165 163 163 171 157 161 151 155 149 149 151 131 141 140 130 131 133 121 127 119 115 107 113 106 98 105 97 92 95 93 52 43 46 49 55 62 65 88 58 64 63 27 27 21 52 92 120 109 111 113 116 123 113 113 122 122 134 132 136 125 154 120 140 135 140 136 137 129 141 150 131 120 144 140 130 147 144 148 143 151 146 139 165 158 164 153 163 162 164 164 164 164 166 165 162 169 161 161 147 145 144 148 141 137 138 143 138 134 134 123 124 130 119 109 120 108 86 99 102 95 84 104 67 46 48 51 56 58 63 76 71 26 48 31 28 24 72 122 112 109 112 108 120 126 115 115 132 139 139 143 137 146 145 136 147 143 138 132 138 138 142 144 136 134 140 146 131 136 153 151 155 159 156 160 169 157 163 149 154 159 147 164 155 152 154 163 164 159 169 162 138 143 143 148 134 142 136 133 136 129 133 128 130 126 126 118 123 103 94 85 113 95 89 99 92 41 44 43 49 67 56 53 82 45 37 29 24 40 90 124 113 118 109 107 125 117 124 124 132 151 147 156 150 154 140 146 142 144 139 137 132 147 139 138 146 142 143 139 140 139 150 153 156 159 170 171 162 155 162 155 153 150 159 167 165 153 161 168 154 154 162 160 150 139 142 146 140 147 137 130 128 126 124 129 124 118 130 122 119 114 91 111 104 100 101 98 96 64 47 48 48 62 68 58 51 85 36 28 18 55 100 107 120 108 112 117 122 120 117 137 138 153 143 154 161 130 137 148 133 145 145 148 139 148 141 134 139 142 142 141 140 149 149 151 149 154 167 163 157 158 161 161 159 155 162 164 166 158 162 157 160 156 156 148 145 144 145 146 142 145 135 133 130 131 119 127 123 117 120 121 119 114 83 121 103 105 105 93 99 88 44 47 49 58 77 68 52 61 75 27 15 57 97 110 110 106 109 124 127 123 119 141 141 140 148 152 153 129 147 141 137 142 149 151 144 145 147 137 130 137 145 151 148 152 140 155 152 156 157 157 147 153 159 154 157 152 168 155 168 164 164 153 164 159 158 151 143 147 140 148 129 129 130 130 126 132 128 130 125 117 121 125 112 115 95 118 112 111 100 100 99 89 57 51 53 52 83 62 62 45 87 38 20 51 103 102 113 117 111 123 126 116 125 144 131 142 148 147 140 135 142 140 136 142 144 151 144 142 151 145 143 137 146 150 152 152 149 152 153 162 155 154 156 158 160 155 155 153 160 156 159 165 162 161 154 145 146 155 141 146 147 146 133 126 130 135 128 131 127 139 138 127 124 118 110 123 105 109 120 115 98 110 100 88 71 50 53 54 75 82 55 52 56 35 25 65 112 110 106 121 119 113 129 120 140 142 140 146 149 142 140 139 139 142 147 136 132 152 137 147 150 152 153 146 144 146 150 147 155 151 161 163 156 151 162 155 165 154 142 154 160 161 160 173 154 171 148 133 149 144 144 143 141 144 138 135 138 139 134 122 135 137 143 128 121 121 123 124 114 111 119 115 102 116 98 94 90 66 60 59 72 85 60 80 40 34 32 72 110 126 105 112 127 115 133 136 144 146 146 134 140 141 139 141 140 134 150 139 136 145 139 144 149 153 151 150 147 145 149 149 154 157 167 169 154 159 158 160 170 155 151 165 161 154 161 168 165 165 154 145 151 134 143 143 139 141 139 128 138 133 139 130 131 126 140 126 111 126 116 117 115 123 107 118 112 113 102 100 96 72 62 68 78 86 59 101 95 45 26 73 110 121 118 114 122 123 139 131 150 145 136 138 137 140 142 132 125 134 140 140 145 142 135 148 147 149 150 149 145 142 139 142 148 154 161 164 159 159 163 160 165 152 149 158 156 147 152 156 161 163 165 143 149 148 145 141 143 141 138 137 141 132 134 135 129 130 136 130 120 127 116 113 119 119 116 119 119 114 102 96 95 78 63 60 82 76 76 77 145 30 45 66 124 103 116 110 124 126 145 145 138 140 136 131 131 133 129 119 116 129 127 135 142 143 130 146 144 136 147 142 141 140 140 143 141 149 157 156 153 155 163 164 157 143 144 155 151 149 143 150 151 150 152 141 142 144 143 143 139 144 147 133 137 129 131 132 117 131 132 141 119 126 125 116 125 122 118 125 121 116 115 101 95 92 63 57 73 87 86 66 117 27 51 81 103 98 108 114 126 134 150 141 123 144 137 127 135 123 112 107 114 119 115 124 133 135 131 137 139 138 140 140 134 140 143 142 132 133 146 150 148 151 146 158 153 146 145 149 155 158 144 146 149 146 138 137 139 139 138 138 135 144 141 136 138 136 136 133 120 128 127 138 129 130 120 128 124 128 127 128 118 125 122 103 86 92 62 64 67 93 91 77 110 47 31 87 86 113 108 118 133 142 156 130 128 154 117 128 129 95 99 101 106 101 102 112 114 122 121 138 129 138 141 137 135 134 136 136 132 135 137 140 142 139 135 144 156 149 149 153 153 152 143 139 137 143 132 133 137 130 139 139 141 142 134 130 140 133 134 135 120 132 125 135 133 131 121 134 113 136 131 129 126 130 126 114 85 95 67 63 72 94 103 79 104 34 54 81 101 111 107 128 132 143 151 126 144 131 112 123 104 67 76 77 94 85 86 95 96 106 109 130 114 119 133 129 127 127 125 130 133 124 135 138 136 128 135 142 148 142 139 143 145 137 133 131 133 136 131 132 140 133 131 139 142 135 136 134 137 132 121 131 125 128 125 129 130 129 130 137 104 134 132 127 134 128 129 129 85 99 81 63 79 96 116 83 98 29 40 92 122 91 109 136 127 130 134 127 138 122 100 109 76 68 62 60 74 73 69 76 79 74 98 97 96 98 110 114 117 119 115 120 124 121 124 129 126 128 122 138 136 138 130 135 140 129 123 131 129 133 131 136 144 138 131 136 135 132 134 136 132 133 128 128 127 129 122 130 126 119 132 134 103 126 128 128 139 124 123 135 85 94 84 67 83 111 123 88 100 19 45 95 113 95 97 107 95 90 84 87 89 91 91 103 92 97 87 81 78 63 60 64 59 69 62 66 68 68 73 87 108 116 109 112 110 114 110 125 124 127 122 131 127 125 126 124 126 122 121 128 127 130 131 138 150 138 131 135 125 122 134 130 129 121 127 130 124 130 124 124 126 123 126 135 114 121 139 131 142 129 116 134 87 97 77 73 93 110 125 100 89 23 61 87 67 62 57 76 82 87 82 91 94 94 93 88 81 78 70 76 75 77 72 67 57 63 59 61 68 55 60 65 86 100 100 97 93 98 103 118 119 127 125 128 121 115 122 116 109 115 114 123 123 127 132 137 142 131 119 111 110 115 116 112 109 110 114 118 129 129 132 120 131 126 123 135 128 131 132 135 130 132 124 138 87 96 79 71 95 110 118 116 98 51 61 60 29 53 104 121 95 84 68 105 120 138 116 101 98 99 95 97 90 83 72 98 103 87 59 66 59 55 57 59 72 73 83 86 88 83 98 120 126 124 126 125 112 119 110 107 102 102 105 111 114 123 127 122 118 111 99 84 101 106 90 93 88 94 95 102 112 115 125 125 130 126 131 132 143 127 131 134 126 127 129 138 89 104 91 71 101 108 113 128 111 79 77 77 17 103 127 66 48 48 49 99 119 117 102 91 75 81 82 73 82 94 87 94 105 125 115 81 66 66 68 65 56 62 65 74 76 81 113 121 128 121 123 123 107 108 99 91 87 85 91 98 107 100 110 99 97 94 87 76 90 85 77 89 73 93 87 102 103 110 121 126 126 130 130 139 137 131 134 130 127 126 132 134 97 102 95 91 100 101 104 119 124 82 144 25 66 121 87 70 63 37 52 113 104 91 105 76 82 90 90 83 79 87 71 75 77 79 87 86 81 75 70 75 71 55 59 67 81 109 116 123 138 140 132 125 114 102 94 77 67 74 73 78 80 75 80 89 81 85 65 64 78 69 75 69 72 85 88 84 91 103 98 112 125 130 134 139 136 132 129 129 121 136 128 126 102 104 88 117 94 89 99 103 130 138 142 14 119 94 93 71 63 59 61 106 95 82 102 76 89 76 96 90 81 103 91 81 86 70 52 59 73 80 84 78 67 73 67 78 116 130 130 130 140 145 143 134 118 111 97 79 56 61 61 57 54 61 62 56 52 49 42 51 65 67 71 64 66 64 72 63 78 87 102 92 106 125 141 130 138 119 140 131 127 135 122 128 112 105 96 122 86 90 90 95 129 185 115 50 125 82 96 77 66 64 50 99 101 85 87 95 98 97 103 83 70 77 83 82 85 98 82 50 44 58 69 82 82 44 72 98 132 135 142 137 137 149 145 138 129 122 105 93 55 49 49 49 49 46 50 44 37 41 38 40 41 62 54 54 49 63 65 53 76 68 87 104 99 120 134 140 129 121 142 129 130 132 129 118 112 100 104 118 80 89 89 82 122 216 49 97 102 47 49 47 57 60 43 137 126 107 122 125 112 121 95 83 83 91 98 98 91 83 62 63 54 51 55 56 88 79 54 75 141 140 144 137 145 148 140 135 132 130 109 101 56 55 55 51 52 46 51 48 49 42 55 57 58 61 54 62 44 55 60 49 61 67 69 92 85 123 127 130 127 126 142 123 124 137 123 118 111 96 118 103 92 88 83 82 90 189 39 135 62 40 38 39 51 64 70 159 152 132 152 149 141 111 111 112 108 91 106 99 102 105 85 57 41 49 53 53 75 120 78 59 114 153 144 139 152 156 147 139 139 127 113 81 70 82 87 84 79 76 74 75 73 74 78 89 84 79 66 71 63 62 60 41 45 55 65 71 81 102 123 120 140 128 136 125 127 126 130 123 114 103 123 100 99 90 73 85 64 149 53 138 44 48 30 60 37 52 121 159 159 148 142 144 114 106 103 91 79 58 57 63 79 83 81 76 57 46 49 37 74 132 118 56 93 131 152 142 153 155 156 143 133 115 99 86 93 81 82 79 80 82 79 82 79 83 116 144 138 112 93 74 57 65 63 69 68 62 60 63 73 87 113 120 125 136 120 131 128 128 126 118 110 113 117 73 111 94 71 81 67 147 76 124 41 50 24 139 35 105 141 156 153 153 134 124 107 115 118 77 63 51 33 32 48 45 51 60 57 67 73 72 74 124 137 60 102 115 120 133 149 157 160 141 130 109 93 85 73 82 90 88 96 88 87 87 93 97 103 109 101 98 91 81 79 74 62 55 53 55 62 68 74 82 104 121 126 130 123 126 122 131 113 108 111 112 102 81 108 107 67 84 73 120 94 102 53 43 29 185 32 141 144 169 143 151 133 131 112 121 130 117 98 80 64 59 70 78 83 99 82 69 109 123 93 122 136 72 121 116 123 104 187 123 125 114 108 88 84 62 93 86 71 69 82 81 88 99 107 125 129 147 179 103 97 87 70 86 71 78 83 76 60 47 48 62 81 112 121 118 120 128 112 137 122 107 121 116 103 94 104 97 71 77 73 97 108 115 103 78 37 152 33 146 150 161 141 148 143 148 137 118 123 104 96 98 76 76 86 94 98 109 104 114 130 128 125 133 128 77 130 95 119 86 137 111 104 105 110 84 61 95 79 76 64 46 61 80 94 93 112 124 126 129 150 103 115 101 87 71 73 45 54 79 99 111 88 60 52 63 89 115 125 127 119 137 121 115 118 118 114 104 84 96 65 73 69 82 123 85 82 80 76 125 87 138 154 156 134 147 154 151 138 116 115 122 103 102 99 100 116 112 108 112 109 121 130 130 135 150 108 91 114 65 84 76 69 73 71 88 101 71 81 98 69 89 94 87 87 99 109 104 127 132 137 129 121 104 75 100 109 84 81 57 39 64 93 133 132 104 95 69 57 88 109 135 134 128 122 126 119 119 117 108 95 88 63 59 64 74 135 60 52 44 26 159 149 154 142 148 131 139 153 147 136 119 125 128 122 118 125 128 127 124 119 114 109 117 138 130 145 144 81 100 91 115 127 118 116 108 89 65 94 55 104 105 80 99 122 135 89 101 110 82 97 111 118 113 107 100 93 64 90 104 70 90 40 53 93 128 140 106 103 66 80 82 59 107 142 127 120 129 131 122 121 113 98 84 63 50 41 74 135 61 44 32 43 162 158 152 149 149 132 136 150 146 132 124 134 133 128 124 115 121 118 115 114 103 112 128 140 127 130 133 61 122 64 96 102 108 143 117 121 101 87 45 117 106 88 106 120 145 129 112 124 97 79 68 76 56 61 70 97 92 58 102 74 108 63 56 96 133 146 106 95 42 70 139 46 23 90 118 111 129 141 124 114 104 92 67 66 52 34 98 130 69 41 26 68 155 152 153 146 152 137 132 137 150 127 118 123 124 119 104 102 104 86 94 91 92 129 127 130 125 133 100 88 123 56 67 72 90 107 73 93 61 152 23 108 108 101 105 125 134 136 118 123 113 112 81 71 42 37 41 50 63 80 62 111 82 88 64 92 126 152 113 78 29 45 117 22 26 37 105 61 71 90 69 94 93 84 62 58 43 31 103 124 84 37 25 82 151 154 156 144 146 123 123 123 130 121 125 110 110 98 93 86 80 73 75 95 119 127 126 138 129 140 83 127 88 81 113 116 128 147 121 80 46 174 29 90 86 104 111 130 123 128 116 117 112 120 78 77 50 48 45 45 56 56 60 85 76 97 74 87 112 147 127 72 48 48 129 19 60 30 86 63 64 75 41 72 84 75 59 38 41 36 108 102 116 36 22 90 148 156 151 143 142 128 127 123 123 108 119 105 104 90 68 61 74 81 107 119 125 122 133 143 151 98 108 114 74 113 117 123 129 146 125 104 55 116 43 95 71 90 106 124 118 118 117 122 107 117 91 95 75 69 54 64 86 94 92 99 52 78 82 79 88 119 118 73 86 42 120 38 63 34 94 60 61 72 71 51 73 62 71 61 75 77 132 77 152 44 20 94 144 156 156 147 136 133 120 121 128 107 113 102 85 97 95 101 117 119 127 120 121 125 134 149 146 90 119 74 95 115 120 125 143 133 125 108 77 87 58 109 92 93 89 105 111 103 99 121 111 112 107 106 92 82 77 96 115 129 111 112 84 79 85 79 86 121 97 59 83 62 115 46 53 28 67 54 78 94 59 50 70 71 96 117 134 126 158 70 147 98 17 100 141 156 145 144 135 138 132 129 113 127 123 127 115 123 120 121 127 122 127 130 122 130 137 152 88 113 92 84 110 120 121 130 144 121 105 108 74 95 64 115 98 103 99 98 94 89 76 89 93 98 106 113 112 105 105 127 121 128 114 104 104 95 87 103 103 125 86 110 57 41 126 40 28 35 111 104 131 130 71 62 78 97 105 128 106 103 172 102 103 165 47 104 141 149 139 142 141 143 134 134 124 138 126 126 124 126 126 116 124 120 125 122 126 137 146 123 108 91 67 108 124 133 122 142 142 110 102 101 80 88 55 122 109 110 108 105 108 99 70 75 79 89 91 98 106 107 103 118 108 115 108 112 113 114 113 123 126 146 115 114 35 44 135 40 33 77 139 109 134 149 108 81 102 93 111 85 49 50 163 128 102 136 125 109 138 140 138 140 137 138 146 132 132 132 129 130 127 121 123 122 117 118 120 122 131 141 120 104 91 66 102 118 137 127 126 144 133 111 102 101 95 69 66 119 118 105 107 113 117 113 97 80 70 79 91 94 93 93 93 96 96 100 103 113 119 127 130 127 133 143 136 67 36 145 142 37 48 117 135 105 146 140 139 96 95 100 111 69 26 28 153 121 155 106 132 153 129 131 139 141 143 151 155 125 136 132 126 131 127 124 120 121 116 115 123 128 148 126 72 66 70 102 121 137 130 128 128 147 121 109 107 108 114 48 115 93 124 106 111 111 113 116 113 103 85 68 79 86 89 90 86 91 94 89 90 98 115 127 139 132 135 146 113 74 26 150 124 47 64 132 134 116 119 127 138 99 83 105 123 64 19 21 164 119 152 146 107 119 150 116 125 146 151 155 155 137 129 130 124 131 125 123 122 115 116 114 119 128 128 65 61 79 86 107 137 135 127 131 123 154 120 103 106 110 121 60 118 64 136 113 117 112 105 109 116 108 110 87 82 72 71 78 74 76 90 88 92 96 120 114 130 140 132 137 94 86 23 100 105 70 85 129 127 121 114 118 117 89 54 111 131 50 17 29 159 125 143 138 129 128 112 121 123 104 133 154 154 147 131 128 115 126 121 120 120 109 110 110 118 115 72 54 101 76 90 125 141 130 132 124 123 137 117 105 103 112 113 92 85 64 134 119 118 106 107 115 104 104 106 111 108 95 88 81 78 82 86 90 96 103 108 118 115 126 128 127 105 94 47 119 72 77 107 123 122 127 120 101 115 39 53 104 128 31 17 45 132 135 148 130 135 139 143 134 103 114 128 123 139 147 143 128 119 123 114 115 110 103 112 106 91 99 79 94 110 76 110 133 145 137 130 120 128 137 114 111 103 111 114 99 72 61 97 122 110 96 114 110 99 102 104 101 110 102 107 98 97 97 92 88 97 102 101 103 118 112 134 126 112 84 85 134 56 78 109 113 122 121 122 92 100 20 49 105 125 21 27 68 87 154 142 137 138 141 147 151 148 136 102 101 118 130 145 140 135 132 117 119 114 96 82 80 81 90 114 86 89 99 124 139 145 141 130 116 134 133 111 107 111 107 108 86 80 59 44 136 100 101 116 99 94 101 103 98 97 101 95 98 97 101 96 91 100 97 98 105 104 120 113 122 107 63 97 113 57 83 109 100 105 120 110 97 123 19 52 117 119 16 49 83 65 155 137 135 139 146 146 151 151 158 157 152 135 120 108 99 100 98 92 91 88 77 75 67 33 113 97 99 118 113 137 132 153 138 130 120 148 134 115 104 109 101 94 70 54 54 40 116 93 98 108 102 91 101 103 93 101 95 96 99 94 91 97 96 95 95 92 101 96 111 103 112 99 54 114 77 68 92 101 95 102 122 98 75 94 28 59 125 110 25 73 98 69 139 141 133 138 150 148 151 148 150 162 161 173 161 146 127 111 93 83 80 63 58 53 41 36 114 110 120 136 120 142 141 147 147 129 127 154 142 119 103 117 97 73 69 67 31 61 47 126 81 99 103 95 96 100 96 92 95 91 97 96 87 87 91 92 92 94 90 94 99 92 101 88 59 119 55 79 93 95 86 103 131 40 42 47 38 57 127 93 44 95 118 90 126 143 132 143 146 155 151 143 141 156 159 166 147 137 121 106 85 76 62 48 45 41 25 59 123 125 140 146 141 138 140 149 147 128 124 130 128 121 102 116 92 68 91 105 47 38 65 67 113 81 90 96 90 95 94 87 92 95 84 100 95 86 84 79 81 88 82 89 92 86 95 85 91 85 59 86 90 90 91 109 126 12 40 34 37 58 123 87 58 102 134 99 130 149 131 143 148 148 150 139 138 147 149 144 143 122 107 95 77 57 50 39 37 33 23 63 123 126 141 154 155 139 142 180 131 122 113 114 108 103 95 121 85 95 108 117 99 47 53 59 75 116 78 88 88 91 93 92 88 96 90 95 104 90 87 77 78 80 74 89 83 84 104 81 109 54 79 92 94 80 108 106 132 27 35 34 35 56 127 77 70 113 96 134 128 156 132 138 145 148 145 138 138 139 141 135 129 106 93 81 57 46 41 37 33 29 32 33 113 104 116 147 163 137 150 174 113 110 105 98 94 98 93 112 85 117 117 114 110 96 36 45 53 72 119 86 81 76 85 89 91 88 88 94 100 100 89 79 79 75 73 82 78 91 101 109 78 62 97 86 91 80 104 105 139 39 28 32 36 59 121 73 82 116 43 150 130 152 135 128 150 141 139 137 134 133 133 123 116 92 95 64 51 40 37 34 30 34 41 36 53 76 62 121 146 133 135 127 102 95 87 86 80 90 84 98 85 123 118 103 91 129 46 20 43 53 57 109 102 70 69 82 88 84 90 92 94 101 91 80 80 75 69 80 87 103 133 84 66 90 98 79 92 87 99 112 134 53 24 31 39 57 120 64 105 82 10 159 126 152 129 132 141 141 137 134 134 127 124 118 103 91 78 58 41 42 36 30 37 43 47 48 38 50 64 58 128 121 110 105 88 67 63 69 74 80 73 79 68 106 87 75 74 115 43 19 31 41 48 46 77 111 98 83 77 81 80 90 88 93 83 79 81 78 83 94 124 136 93 76 83 92 85 90 99 89 97 122 135 59 21 35 38 70 109 64 128 41 31 155 119 154 127 125 140 136 133 128 129 124 124 110 98 88 70 48 42 37 36 42 44 50 55 55 57 92 94 94 106 125 106 96 73 54 48 59 53 58 59 59 60 68 52 48 61 81 29 25 26 31 47 48 49 51 78 103 113 114 106 101 96 103 97 98 107 111 117 121 109 80 75 85 81 97 80 94 94 100 97 127 132 54 29 45 42 91 77 85 112 15 21 154 120 148 125 126 127 134 133 125 129 128 119 111 93 85 55 46 39 39 43 47 48 60 76 87 98 109 105 103 120 136 89 88 65 57 50 48 42 45 52 55 50 27 22 36 43 40 27 33 27 29 41 46 57 54 52 51 57 79 99 101 105 106 105 103 99 86 77 78 70 76 78 82 90 94 92 95 90 98 99 132 109 35 46 34 58 110 41 110 83 12 27 153 122 141 126 127 124 136 136 129 127 130 119 105 90 72 47 45 41 45 51 55 72 91 113 100 117 112 101 110 120 117 83 74 50 34 56 52 42 49 56 40 17 25 20 20 25 20 34 35 31 28 32 37 48 47 54 54 52 57 68 78 69 90 86 83 78 81 78 66 72 74 81 85 100 84 98 98 93 96 104 124 55 35 35 43 91 65 48 123 47 17 29 62 111 136 124 126 123 129 131 130 135 127 112 99 83 60 51 49 53 63 74 91 102 127 132 117 115 108 107 117 108 102 74 53 35 23 22 38 40 57 34 20 15 30 19 21 21 22 33 33 33 29 27 34 41 43 41 48 53 50 60 76 69 81 87 87 82 79 85 71 73 75 83 89 97 89 92 101 89 92 120 63 31 40 46 82 78 29 80 117 18 24 28 22 86 141 129 121 123 133 134 128 129 124 107 98 75 67 60 73 79 89 94 114 136 135 140 128 119 109 114 110 101 91 67 40 26 26 28 28 44 41 24 21 22 26 20 26 21 34 42 33 32 33 30 32 37 43 39 47 48 46 56 63 69 76 77 85 86 81 89 76 74 79 86 92 98 91 91 97 86 91 105 49 54 35 84 82 37 50 107 73 13 28 30 23 64 146 129 117 123 134 126 126 119 119 102 91 74 88 65 100 102 102 121 135 143 133 145 134 121 112 105 112 86 77 52 30 30 27 31 43 31 22 24 23 27 23 24 27 33 58 74 41 30 35 31 32 33 39 35 41 40 42 48 59 67 67 77 83 89 78 84 81 80 81 90 93 97 88 94 89 93 87 104 76 106 72 111 39 49 70 122 25 21 28 27 33 52 148 120 122 118 127 129 126 127 106 97 96 90 95 95 120 109 108 130 140 147 132 152 126 129 125 98 98 77 63 46 29 29 34 33 50 34 26 24 23 27 31 36 47 62 85 93 64 33 33 34 31 34 34 36 36 36 38 43 54 63 73 78 77 83 94 78 86 84 81 96 89 89 87 96 98 90 91 109 92 123 111 48 45 73 105 87 15 25 28 27 30 36 149 121 130 113 131 134 132 126 109 97 108 100 103 117 116 113 117 132 141 141 130 139 126 130 119 93 101 77 56 39 29 33 34 35 55 37 29 24 26 35 48 72 85 88 95 91 83 62 42 35 31 32 32 35 36 36 33 39 51 57 71 78 83 75 88 90 90 86 87 89 90 75 83 90 87 84 95 101 94 105 121 29 69 91 130 27 24 26 27 24 33 28 141 123 130 122 130 133 130 126 105 108 107 106 108 125 113 111 114 121 123 116 114 132 128 133 110 103 98 72 59 36 35 31 39 37 61 38 32 27 31 45 71 95 100 88 99 87 81 84 61 40 35 32 31 36 33 34 32 41 47 56 68 75 81 80 84 94 90 88 79 90 82 72 72 92 84 89 64 111 101 94 127 65 82 121 93 14 24 28 25 25 32 23 139 120 130 124 124 134 126 116 114 114 107 110 120 121 108 106 101 114 96 106 115 118 119 125 107 109 91 75 59 43 31 33 39 43 59 43 29 31 38 56 85 95 101 93 93 83 82 86 80 58 40 36 29 36 34 32 32 40 50 56 65 71 78 81 80 85 89 88 89 79 77 68 69 91 89 92 28 122 100 105 121 115 107 129 29 22 25 25 29 25 34 18 125 126 124 122 131 128 124 133 119 110 107 115 129 110 104 92 94 82 89 100 108 105 104 103 93 92 75 72 55 43 37 33 37 43 56 36 29 30 47 69 88 94 91 97 90 102 82 81 89 70 54 41 34 32 34 32 29 43 42 51 65 69 67 83 75 84 80 83 88 83 78 64 76 85 101 80 21 116 105 111 112 123 125 64 20 23 29 26 26 27 35 14 112 130 125 123 129 125 132 134 116 119 119 123 122 101 96 79 68 60 80 87 93 82 69 70 65 60 54 58 47 44 47 35 41 42 45 32 33 32 54 79 87 83 84 97 88 94 87 84 82 71 65 49 37 37 32 31 32 43 45 50 57 73 60 77 68 81 72 83 75 86 80 75 81 83 106 50 29 100 109 113 118 123 78 20 24 27 26 27 27 25 34 19 87 132 128 118 123 136 129 127 119 123 121 122 111 93 89 66 47 48 48 60 41 41 50 46 46 42 45 48 50 45 47 38 37 36 36 30 33 40 54 76 80 74 76 85 86 80 74 88 70 70 68 60 42 34 34 32 29 36 50 54 53 66 57 71 67 78 69 84 78 84 81 73 81 91 97 31 43 73 126 106 125 86 22 25 27 25 27 27 27 27 35 34 63 137 123 121 122 135 130 123 119 128 123 125 99 87 64 51 42 38 27 22 17 21 26 24 23 34 33 29 36 45 49 38 31 32 34 28 34 37 53 66 77 74 69 69 67 70 66 84 69 68 70 59 54 37 32 33 35 33 46 56 56 63 57 64 60 75 74 90 79 87 75 72 74 105 57 42 52 68 106 113 95 25 24 26 27 25 24 28 29 25 32 31 33 138 127 122 129 127 135 123 120 120 126 105 82 65 50 40 29 26 31 34 34 29 28 25 18 29 45 25 32 28 27 26 29 27 27 32 30 33 38 50 62 58 63 61 54 57 62 70 69 71 61 62 56 44 30 41 35 33 41 50 50 62 59 58 64 67 77 92 83 82 77 66 86 109 19 30 61 72 94 77 23 26 26 26 25 25 27 24 28 27 36 32 20 131 123 126 123 129 132 116 121 122 108 87 69 52 44 29 28 56 93 89 82 76 56 54 35 28 27 26 35 28 23 19 22 20 19 18 23 27 32 34 42 44 48 63 48 47 47 55 66 70 57 62 60 50 36 42 39 38 41 48 53 54 64 55 70 67 86 90 81 81 76 83 99 77 15 25 33 41 38 28 26 29 26 27 27 25 26 25 28 26 35 33 13 125 127 123 122 128 121 122 123 122 89 82 65 49 34 29 59 124 141 132 120 112 96 88 70 56 35 29 39 25 32 26 23 17 22 16 22 20 17 28 29 31 41 40 40 38 43 44 57 65 58 66 65 55 49 51 44 51 44 51 59 51 63 57 67 76 86 91 78 79 82 93 106 33 26 26 28 26 27 25 30 30 27 28 28 26 26 27 26 27 34 34 13 116 131 118 124 116 124 119 122 107 90 74 61 39 37 47 108 131 138 125 141 128 122 119 96 82 75 48 45 35 36 37 29 26 23 17 26 22 18 18 16 20 20 26 34 36 38 40 49 55 53 64 65 66 59 63 53 55 51 51 56 60 60 51 64 83 86 89 82 84 84 101 88 16 27 27 27 27 27 27 28 26 28 27 26 25 30 27 28 25 35 34 12 113 136 120 121 113 126 114 115 100 81 68 60 33 53 76 130 134 119 130 137 136 133 114 115 101 89 62 60 33 41 48 40 32 26 29 27 25 24 25 16 17 20 18 20 29 35 35 46 44 50 68 74 72 70 77 63 49 65 58 58 63 60 58 72 86 82 90 86 82 91 103 44 20 30 24 27 30 28 28 26 30 27 28 27 27 28 30 26 26 50 54 37 106 136 119 120 118 122 113 108 89 72 65 47 53 57 100 132 127 125 121 128 135 140 133 120 99 98 79 64 40 46 50 42 31 34 39 36 39 34 31 29 25 24 21 23 19 32 33 36 45 61 75 83 77 75 77 65 59 65 63 61 64 64 66 78 86 90 82 87 87 93 96 38 44 47 44 42 43 41 38 35 37 37 31 29 29 23 31 27 27 157 157 148 130 126 120 116 120 116 106 101 80 64 54 47 75 64 116 129 122 120 116 112 129 134 135 121 109 104 93 73 61 60 50 48 42 39 45 50 64 63 58 66 51 44 43 34 28 20 31 36 51 62 73 81 88 74 80 73 65 68 71 60 65 70 66 86 89 93 85 83 87 96 90 62 74 79 89 94 97 106 106 105 116 123 124 104 85 70 53 31 29 153 159 158 135 121 121 113 119 106 102 93 70 56 48 70 83 89 132 127 115 118 101 98 110 114 117 103 103 93 96 79 81 74 67 62 55 52 61 73 79 82 80 84 72 62 55 61 54 32 25 34 50 65 70 81 83 84 65 76 68 71 81 57 63 69 75 89 93 88 85 93 89 102 88 72 76 81 85 94 104 116 125 131 137 149 152 131 96 94 113 119 108 135 148 159 145 115 125 112 118 98 102 86 57 53 69 79 105 122 132 124 111 105 98 93 92 105 97 88 77 73 64 58 65 65 67 69 63 75 71 80 89 82 85 78 69 60 55 63 62 49 28 31 48 63 73 77 76 74 64 67 70 62 74 64 70 68 85 89 92 89 79 92 84 121 120 92 83 88 93 101 112 120 132 135 142 151 156 136 86 74 90 115 136 139 131 144 156 114 124 112 114 102 101 74 54 63 76 97 126 140 128 120 111 101 100 90 84 100 90 77 63 50 53 54 53 48 47 55 58 62 64 71 72 72 65 57 49 50 55 54 60 61 38 46 53 79 84 73 75 73 69 72 65 64 70 68 69 75 83 91 92 87 87 84 84 140 134 106 97 101 110 122 120 115 128 136 148 152 162 144 84 74 92 107 130 150 138 134 149 116 118 113 109 105 100 72 60 71 89 129 146 137 125 113 107 100 96 85 93 96 88 72 50 50 58 51 47 46 41 46 48 46 45 52 50 49 50 42 43 46 49 53 69 59 59 60 63 75 80 75 68 70 68 69 62 65 62 68 74 73 92 89 86 88 86 80 95 128 126 118 119 119 124 134 120 100 111 132 151 155 162 157 92 78 100 113 128 154 147 147 148 123 117 107 116 107 95 62 69 81 124 137 140 134 123 116 91 95 98 100 101 88 78 70 60 51 51 44 38 43 35 43 39 35 33 39 34 38 35 43 48 56 54 63 71 64 68 71 64 75 72 71 70 67 70 58 65 64 68 71 75 82 99 83 85 86 82 80 122 122 119 126 125 130 126 134 110 93 105 123 149 160 164 164 113 86 106 119 132 158 152 151 154 143 109 109 112 114 87 69 77 96 134 135 128 127 125 107 103 104 109 107 102 81 76 75 61 47 46 40 39 40 38 33 35 27 32 33 34 38 48 55 64 61 67 70 74 66 72 70 66 70 73 66 70 61 69 64 66 64 71 72 76 94 96 81 89 84 83 95 143 120 120 127 126 129 122 116 99 96 102 123 145 161 166 167 132 98 109 125 141 160 159 159 159 168 114 111 109 115 91 77 74 106 136 124 124 125 131 116 105 116 108 104 104 89 86 90 68 58 50 39 44 39 36 31 32 29 30 30 36 49 60 68 66 66 72 73 78 69 76 76 70 67 68 61 66 53 70 68 61 68 74 73 85 94 86 87 86 89 75 123 173 114 127 128 122 123 112 103 101 101 109 127 145 163 169 170 149 106 115 131 135 161 163 164 159 176 131 110 109 118 90 70 73 117 122 118 122 137 132 112 115 116 99 111 115 104 108 97 85 79 61 49 46 40 38 38 36 35 33 41 48 58 72 75 70 74 72 77 74 75 79 81 66 66 65 58 64 51 69 67 60 70 73 74 87 96 84 84 82 91 76 149 179 125 126 128 116 108 108 103 102 104 110 130 144 164 173 173 155 120 125 132 134 164 164 170 157 155 190 122 105 113 93 59 88 116 119 119 127 135 126 109 116 108 111 120 120 106 121 101 104 92 71 67 56 60 59 55 52 48 52 54 60 69 74 77 76 81 86 81 74 69 71 87 70 69 61 57 61 58 63 65 61 68 80 77 97 93 93 79 85 89 100 175 174 139 118 123 112 109 112 111 102 100 106 137 142 156 182 175 165 132 127 136 142 166 167 169 159 139 207 195 108 109 99 66 97 114 115 126 123 130 117 115 110 110 116 119 117 106 112 103 98 94 87 86 80 78 79 72 67 70 67 75 69 73 76 78 83 83 79 81 82 73 68 84 74 69 57 53 54 60 57 64 64 68 78 83 98 90 91 89 84 84 143 174 168 145 110 113 112 112 110 112 109 96 101 136 151 157 187 190 162 149 133 137 146 172 166 173 157 135 212 207 195 118 103 81 99 108 116 126 115 126 121 115 113 112 109 114 110 108 103 99 92 88 84 89 83 89 79 87 81 79 78 80 81 80 76 86 87 81 84 81 81 77 75 74 79 66 53 49 53 55 66 62 63 73 76 94 93 89 85 91 81 94 170 167 160 143 102 115 112 108 114 105 110 100 106 134 153 170 183 195 163 160 153 135 145 170 170 175 161 132 216 204 205 213 112 88 108 107 117 123 113 128 121 119 116 99 98 100 108 108 100 92 89 88 89 90 83 86 80 81 82 78 82 83 91 89 81 95 85 82 75 81 75 73 71 66 77 64 52 50 52 55 68 58 74 74 83 92 90 88 87 90 76 142 172 160 160 151 71 119 112 100 114 106 111 118 115 150 159 171 168 189 165 164 159 145 148 171 169 177 168 143 214 205 205 206 210 93 99 110 120 112 123 119 112 108 110 100 94 108 109 104 96 84 86 89 92 91 91 86 83 85 81 88 88 86 97 90 78 90 85 92 77 68 77 66 69 62 65 60 55 57 42 51 69 69 72 75 85 91 92 90 86 87 102 174 166 154 164 170 34 108 111 107 106 110 117 127 142 156 166 172 170 186 168 154 158 143 138 168 170 180 156 155 213 204 202 203 211 180 95 103 113 119 119 109 110 99 102 98 101 104 102 100 85 76 85 87 86 89 82 75 76 83 80 83 81 85 90 89 85 86 82 80 74 68 70 65 63 58 53 60 57 64 45 56 59 71 74 78 90 87 93 87 87 76 157 170 160 160 169 171 37 85 107 112 115 114 121 133 152 160 165 174 172 178 171 162 158 141 145 165 168 182 157 173 211 202 202 201 200 209 159 100 95 125 112 103 109 99 96 91 103 102 102 88 74 73 76 75 78 79 74 70 66 79 79 77 78 78 84 87 84 80 75 71 73 73 61 61 50 49 47 54 49 67 52 55 56 70 76 77 92 87 92 85 76 113 169 164 158 163 174 151 61 63 101 113 117 121 124 138 156 167 166 173 173 174 175 176 154 143 143 163 168 178 149 191 206 201 198 197 197 198 202 163 95 105 113 103 98 97 87 87 86 90 90 75 72 72 69 59 72 74 61 62 65 65 64 72 75 82 85 77 75 79 67 70 73 62 63 55 44 44 38 48 41 56 53 58 51 71 65 79 94 87 90 88 81 155 165 159 164 163 177 133 65 60 102 113 113 123 127 143 157 169 168 173 174 170 178 173 147 142 145 164 163 170 142 199 202 194 193 191 191 193 192 199 164 101 105 110 92 93 83 76 72 74 76 68 62 63 56 49 65 62 58 61 61 60 57 69 76 74 76 74 65 72 62 63 68 56 54 55 41 42 39 45 39 45 42 51 56 63 66 82 90 88 90 84 120 159 161 158 168 161 173 134 77 69 103 106 112 123 131 142 164 169 174 171 175 172 176 159 145 145 147 168 161 172 127 203 199 188 186 184 185 185 186 188 193 174 97 110 98 87 75 64 62 61 65 55 51 49 49 42 56 57 52 52 58 60 58 58 69 69 67 67 62 61 57 56 60 51 48 48 47 39 37 41 42 40 43 44 54 57 59 89 78 91 84 107 146 157 158 162 167 158 163 148 90 69 100 107 113 125 127 145 163 172 173 173 174 172 169 152 146 146 153 165 160 171 128 205 196 189 186 183 183 180 181 182 185 189 176 102 99 89 82 60 54 52 55 52 45 47 52 48 46 53 42 50 45 50 54 48 60 57 54 58 57 58 58 57 50 54 53 48 35 28 28 34 35 38 41 43 48 53 69 82 82 81 95 134 148 156 159 165 163 157 151 161 110 78 92 117 115 125 128 142 160 171 172 174 171 169 164 145 147 149 162 166 159 165 137 202 198 192 190 190 185 184 179 179 181 180 184 174 107 94 86 59 54 48 49 49 52 46 48 49 46 41 40 46 37 41 49 43 49 47 45 47 54 55 45 58 48 51 48 39 31 26 33 31 37 38 36 43 51 57 70 70 87 90 120 139 149 158 164 164 159 154 152 154 131 103 79 120 123 124 129 138 158 166 172 171 165 165 152 145 148 158 168 169 160 157 141 196 199 192 192 191 191 186 182 182 179 178 178 180 172 135 92 74 63 55 50 45 47 48 49 53 43 43 41 44 36 42 41 40 41 39 41 41 45 54 47 55 46 42 37 32 30 32 35 33 42 44 43 49 48 47 58 72 89 111 129 137 151 159 165 162 159 151 148 150 145 117 79 121 123 122 129 139 154 161 169 167 160 156 145 145 156 167 177 169 158 154 145 180 203 192 191 189 192 188 187 185 181 178 175 176 171 172 153 104 91 75 63 57 55 54 50 52 56 49 43 48 41 38 43 39 36 36 40 42 45 48 45 38 35 33 33 29 33 32 35 36 42 44 40 40 42 53 64 74 108 119 127 139 153 162 162 160 152 149 144 150 146 137 90 111 124 122 131 141 153 159 164 162 151 149 145 153 164 171 176 168 160 154 156 147 211 192 188 188 190 188 190 185 183 179 175 171 168 167 170 162 138 113 70 63 60 59 57 50 57 58 46 53 52 46 47 46 39 41 42 39 36 33 33 28 31 28 25 34 32 34 36 37 42 38 54 44 53 73 76 100 113 114 129 145 155 163 159 156 150 146 141 147 145 142 123 87 129 119 131 143 151 153 155 153 146 144 150 159 169 173 175 