P2
92
112
255
23 24 26 22 23 25 24 25 25 22 23 25 25 23 24 22 25 26 22 25 25 23 25 25 24 23 25 22 23 26 23 24 22 23 23 24 26 27 27 28 24 21 39 23 23 22 25 24 24 22 22 24 22 22 25 23 22 21 23 23 22 23 22 23 21 22 22 19 23 21 24 21 20 22 24 19 23 20 20 22 21 20 20 20 21 20 19 20 20 18 19 19 25 23 25 24 25 26 22 25 22 26 23 25 26 23 25 23 24 26 22 26 24 25 23 25 24 25 25 21 23 26 26 23 23 22 24 28 26 26 32 32 22 30 34 24 22 25 27 24 24 23 23 24 24 22 25 21 24 22 22 22 26 23 21 24 22 21 22 24 20 20 22 21 22 19 25 20 21 22 18 24 19 21 22 21 18 22 20 20 20 18 21 20 23 24 25 22 26 23 23 24 24 26 24 25 26 24 25 25 25 25 26 25 22 25 23 25 24 25 24 26 24 22 27 21 23 26 24 27 33 28 26 40 26 34 29 29 34 30 26 25 25 21 28 23 26 27 23 24 22 24 24 22 25 24 22 23 20 23 23 22 24 21 23 24 20 21 26 19 23 21 20 24 21 22 21 21 20 23 19 19 23 18 18 22 24 27 24 24 23 23 24 22 25 24 25 25 26 25 26 24 25 25 24 26 22 24 28 24 23 26 25 25 23 24 25 25 28 25 22 34 35 27 26 38 44 35 36 39 38 36 34 33 27 23 24 24 25 26 29 25 24 24 24 23 25 25 23 23 24 23 23 22 23 20 24 23 22 22 24 20 21 22 20 24 20 21 23 21 21 21 22 18 20 24 17 19 26 26 26 22 25 25 26 24 25 24 25 23 27 24 27 24 29 27 24 27 26 23 29 24 24 25 25 25 24 26 25 27 29 26 31 31 32 28 47 52 50 50 42 53 47 47 38 34 41 33 29 26 26 25 26 29 27 28 26 22 25 25 25 22 25 23 23 25 20 24 24 23 23 22 22 23 24 22 23 21 23 21 23 19 22 23 20 21 20 17 23 17 23 24 25 27 24 25 26 27 25 26 28 26 24 27 24 26 27 23 28 26 25 27 25 25 27 24 25 27 24 29 25 26 27 31 32 38 69 72 71 77 74 69 71 74 62 67 68 60 61 50 47 42 35 35 32 33 36 24 34 27 23 23 22 27 22 21 25 26 22 25 22 25 22 22 23 25 19 23 22 21 21 25 22 20 22 24 20 21 19 21 22 22 23 27 26 25 24 26 25 24 27 27 24 28 22 27 25 27 26 26 27 28 26 27 26 25 26 26 27 26 29 25 24 26 29 42 63 64 85 71 89 79 84 71 87 81 73 82 75 67 81 60 59 56 57 39 38 36 39 29 29 34 25 24 24 27 23 24 23 25 24 22 24 22 24 25 24 25 22 23 23 21 21 24 22 23 23 23 22 22 22 21 22 21 28 25 27 28 26 27 26 27 27 27 25 27 26 27 28 24 29 25 25 29 29 26 25 31 25 30 28 31 29 28 31 40 58 74 69 48 76 62 82 82 83 68 80 77 74 78 73 69 77 71 63 65 65 50 49 42 38 37 37 27 34 28 30 27 24 25 26 23 25 24 23 26 23 26 27 21 23 24 21 25 23 24 22 24 23 22 22 23 20 24 19 23 26 24 27 26 27 25 26 28 26 27 28 26 26 25 26 26 27 25 27 28 27 23 31 29 26 26 28 32 23 44 56 62 57 54 56 45 73 77 79 80 84 67 85 81 85 85 79 80 88 81 83 80 78 75 74 64 62 52 44 38 40 34 29 30 23 26 25 26 24 25 25 23 28 25 24 22 24 23 23 24 24 22 27 23 22 21 23 24 20 22 23 18 24 27 25 26 26 29 25 27 27 26 28 26 27 28 27 28 28 27 25 29 27 27 34 23 29 26 33 38 51 62 52 58 57 65 71 79 76 81 78 88 90 83 91 76 87 93 91 90 93 86 90 85 91 91 84 86 87 70 67 62 52 60 30 28 29 25 25 24 25 22 28 22 24 27 25 22 23 26 22 24 24 24 23 24 20 24 24 22 21 23 21 21 25 27 26 26 28 28 25 26 27 26 27 26 25 28 25 27 26 28 27 28 26 27 37 27 27 33 57 61 56 57 58 74 65 85 83 88 86 83 92 96 98 92 94 98 96 95 92 105 97 101 101 99 92 95 92 93 89 88 91 84 85 71 51 29 32 26 27 23 25 27 25 25 26 26 22 26 23 25 24 23 24 24 24 23 22 24 23 22 22 24 22 22 27 25 29 24 30 24 30 25 27 27 29 26 28 28 25 25 28 28 25 27 32 28 38 35 50 66 63 58 63 70 73 88 90 95 95 99 98 95 101 97 104 86 92 107 105 96 103 107 100 104 110 110 105 104 100 95 102 101 98 98 101 92 75 64 44 27 24 27 27 29 25 29 28 27 22 24 24 25 23 25 22 24 24 24 22 24 22 23 22 20 24 21 27 27 28 26 28 25 28 27 27 27 31 26 27 27 28 28 24 31 25 30 35 42 64 73 86 69 55 75 82 90 84 101 102 92 109 102 105 112 110 97 106 91 102 112 108 105 107 114 104 99 114 109 108 107 106 97 108 106 102 97 105 98 96 86 64 58 31 26 25 31 23 29 30 28 27 26 23 26 25 22 25 25 23 24 25 24 22 25 22 23 24 21 26 26 30 25 28 26 29 28 27 26 29 28 26 30 26 27 27 26 29 49 37 65 81 81 57 73 77 97 85 103 110 109 112 98 117 109 113 110 112 109 112 100 96 116 116 112 115 111 115 115 114 115 117 115 108 105 107 112 98 108 109 103 98 102 83 83 77 54 28 29 27 28 31 33 25 27 25 26 25 25 26 24 24 26 23 22 25 25 23 25 22 23 27 27 29 26 29 28 29 28 28 27 31 27 27 28 27 29 30 28 42 51 73 90 66 59 86 90 78 109 105 113 101 116 112 115 124 121 113 110 118 112 107 108 105 123 122 121 119 104 114 121 115 115 121 113 113 109 115 112 113 117 113 109 107 104 96 89 88 83 62 46 25 34 29 39 34 25 27 26 24 26 27 25 23 27 26 23 23 25 22 23 24 25 30 28 25 31 27 27 27 29 27 26 28 30 27 28 29 36 28 39 75 83 84 68 63 84 102 93 87 108 115 118 110 115 120 120 127 127 112 123 114 117 112 123 119 124 117 124 126 120 118 127 115 121 119 114 116 111 120 116 117 116 112 115 111 110 106 100 92 88 82 79 48 33 34 32 34 40 28 27 27 23 26 25 25 23 27 23 24 24 24 24 25 22 28 28 25 32 28 28 27 29 28 28 28 31 24 31 28 45 58 73 88 75 56 74 91 96 112 86 103 118 123 117 121 122 124 128 128 125 121 123 120 113 121 130 123 123 116 128 128 120 128 127 121 123 122 118 122 111 122 121 120 121 113 108 118 116 99 109 109 97 96 94 93 55 36 40 31 37 35 38 29 25 27 25 25 25 26 26 23 24 24 24 25 21 27 29 26 28 30 28 29 26 29 28 27 30 28 34 51 71 71 71 61 51 76 94 98 101 114 95 114 122 128 117 126 128 124 129 128 124 130 127 125 121 126 125 117 121 114 125 131 131 129 127 129 131 127 125 128 120 118 114 125 120 120 119 119 117 102 109 117 103 105 104 100 89 65 37 40 46 34 39 42 35 29 25 24 24 26 25 24 25 27 22 25 27 29 28 29 25 32 28 28 27 29 27 28 29 36 70 70 65 63 62 66 81 95 107 103 111 115 116 118 116 127 117 129 127 121 127 120 118 125 123 128 117 127 117 120 127 124 128 125 128 131 121 131 132 125 125 131 130 118 125 127 122 126 125 122 117 107 115 119 116 105 110 108 88 81 59 53 52 31 35 33 36 42 34 26 25 26 26 26 25 27 24 26 27 27 28 28 27 30 29 27 28 29 28 28 36 68 85 63 59 57 74 94 97 106 107 109 109 122 127 127 123 127 120 131 126 126 128 127 118 126 117 133 124 119 119 129 132 129 119 120 129 131 129 131 127 125 132 127 129 117 127 130 126 125 119 129 122 110 126 123 119 117 116 117 102 72 89 72 44 45 34 40 40 42 40 41 29 26 30 27 28 24 24 26 27 31 29 28 26 30 29 27 31 23 36 51 68 78 75 69 76 79 93 102 110 97 114 115 116 126 126 123 126 129 125 132 125 129 123 125 125 130 125 126 128 122 125 130 128 126 119 126 130 131 126 130 113 131 126 124 132 125 132 125 122 124 119 126 120 125 123 130 117 117 122 116 109 89 93 91 65 44 48 41 48 51 46 45 46 35 28 32 24 28 26 25 26 28 29 31 27 29 28 30 30 30 65 90 90 84 80 87 91 98 109 105 118 106 118 119 121 124 125 120 118 133 136 128 124 130 123 117 125 134 123 132 118 126 133 132 128 117 128 122 118 127 122 131 123 128 126 123 131 125 132 132 121 130 120 122 120 127 127 131 120 118 118 112 118 96 108 86 89 65 43 47 42 48 58 51 45 53 43 31 31 26 26 27 25 29 27 30 28 29 28 34 23 68 81 98 80 91 94 89 110 106 109 109 126 117 120 120 133 128 122 109 130 129 132 125 119 127 122 118 119 128 117 123 123 126 125 132 120 117 126 121 121 116 126 125 133 129 129 127 132 128 125 127 127 124 131 125 131 124 126 130 125 115 124 117 119 115 108 101 89 92 69 34 43 46 61 52 57 49 57 55 37 29 26 29 25 30 26 32 27 29 36 28 61 91 97 82 87 90 87 97 116 110 116 117 129 115 122 127 131 126 122 125 138 133 124 121 127 126 121 117 125 133 126 108 121 133 111 124 117 122 118 124 124 113 129 126 128 119 123 130 124 132 124 127 126 126 130 132 130 116 120 129 121 120 124 126 120 123 109 113 103 95 89 57 37 54 47 49 55 56 58 63 59 49 29 24 28 31 28 30 27 37 33 55 93 104 95 97 90 95 94 110 115 112 129 123 130 124 129 130 132 137 117 141 145 121 133 130 132 132 127 128 127 138 126 116 124 128 118 114 118 126 123 129 127 132 135 127 128 119 120 125 120 132 125 120 127 128 127 132 129 118 121 125 123 125 122 119 121 118 116 117 115 100 101 77 55 46 40 44 45 55 62 60 59 63 52 32 24 27 30 28 37 29 57 80 109 105 108 103 89 93 109 109 123 97 133 119 124 121 134 130 130 146 116 152 141 131 144 139 134 133 122 129 137 125 124 130 131 125 119 117 122 127 125 128 129 138 133 128 130 127 129 123 125 133 131 124 130 125 127 130 126 121 122 124 127 131 124 118 115 116 115 116 108 116 106 83 83 48 40 39 43 46 54 62 59 47 55 53 34 32 27 24 45 24 97 89 117 112 114 100 101 104 114 113 126 105 132 110 131 124 148 139 142 146 151 149 136 145 138 139 136 138 138 133 141 130 125 123 128 125 126 124 125 124 125 127 126 126 126 123 125 129 126 127 130 131 124 131 130 120 131 129 131 123 124 121 124 116 119 117 119 121 110 121 104 113 108 94 96 73 37 38 45 43 50 59 68 55 43 48 48 31 29 26 49 33 95 98 115 115 108 109 108 108 121 122 125 116 125 115 138 131 155 142 155 150 162 125 134 145 135 135 137 147 146 140 135 143 139 129 131 132 133 132 132 124 126 125 128 124 131 128 127 130 128 124 126 128 123 129 130 131 125 114 124 127 123 126 125 119 107 124 114 120 118 126 111 116 109 98 92 101 52 34 40 43 43 57 57 70 53 45 49 29 31 30 41 51 96 104 119 104 109 115 116 112 120 134 121 126 127 128 141 140 150 141 152 155 153 124 141 143 138 134 141 140 148 139 142 142 150 144 145 139 136 137 139 129 133 128 132 124 128 125 130 136 126 124 125 127 121 129 131 134 124 113 126 120 126 123 122 124 118 130 122 115 122 132 130 114 108 112 97 108 87 36 36 44 41 50 59 65 65 37 66 31 30 31 36 70 103 118 120 108 113 112 109 119 124 132 116 129 121 137 142 141 141 143 151 147 141 132 137 136 141 145 137 127 144 141 140 145 153 149 150 146 145 144 141 140 137 136 136 131 125 129 135 138 133 130 131 126 119 126 129 139 135 127 127 125 130 125 126 123 121 127 120 128 120 121 132 108 118 119 104 104 104 64 33 38 48 52 55 58 75 50 76 32 30 27 46 100 115 114 119 114 109 103 118 124 124 131 126 130 116 141 143 131 145 147 149 141 138 136 137 137 134 144 139 136 144 136 142 145 149 146 152 148 146 141 140 142 145 140 139 141 130 133 136 145 133 126 139 129 129 123 127 138 131 130 129 132 130 129 129 131 127 129 119 123 121 128 131 118 121 113 106 109 101 98 42 46 47 52 55 59 71 78 87 32 33 19 64 113 118 108 124 114 108 115 120 131 129 133 122 122 134 147 142 148 143 135 141 135 138 134 127 119 125 129 132 139 144 136 138 141 143 139 150 144 142 144 146 145 144 143 144 137 138 133 134 144 136 131 136 143 138 132 135 136 133 129 132 134 131 132 128 131 129 125 123 128 114 122 131 129 120 119 106 113 102 108 69 49 48 58 59 62 61 124 60 30 32 16 82 121 115 115 117 105 111 122 123 133 112 134 125 134 146 150 145 144 137 136 128 132 132 123 113 106 118 118 124 132 133 136 138 140 137 143 146 139 142 146 145 143 143 142 143 138 139 134 132 148 143 143 144 148 140 137 130 133 136 130 131 132 128 129 129 131 122 129 126 128 124 124 126 134 126 116 120 113 107 110 92 51 54 55 62 65 71 123 77 30 36 12 109 106 114 114 109 107 114 124 126 139 102 134 139 134 141 152 141 140 139 134 129 133 122 114 105 108 110 106 110 113 117 122 124 140 132 129 143 137 140 138 136 139 144 132 140 137 137 129 136 148 147 142 138 146 136 132 128 133 134 133 132 133 125 126 134 129 121 128 123 122 122 123 128 129 129 121 121 115 110 110 110 67 51 50 56 76 82 89 139 36 28 19 111 99 117 113 110 109 121 124 131 139 118 135 144 156 136 141 123 134 129 117 108 108 101 91 87 92 98 94 90 100 100 97 106 119 113 109 120 119 124 132 126 131 131 130 130 132 127 128 126 144 135 131 134 137 131 127 130 128 134 132 132 138 125 120 133 122 125 118 117 124 119 123 119 123 124 124 125 108 113 109 115 83 46 48 55 77 77 93 152 30 23 50 102 111 118 109 113 109 131 117 129 134 129 134 150 159 121 107 89 87 86 89 89 88 87 82 82 106 123 121 98 82 80 63 80 82 85 77 83 99 105 124 121 127 116 122 121 128 126 131 128 134 129 125 130 124 124 125 125 130 126 129 131 141 122 113 115 119 121 110 110 105 117 125 125 123 115 122 127 95 110 116 115 104 47 50 61 65 98 103 127 31 25 40 99 114 127 115 101 116 121 111 134 129 138 138 116 127 95 80 87 95 108 115 119 105 108 92 89 93 97 99 99 96 87 73 71 64 67 63 67 74 91 102 114 113 108 111 114 128 126 130 130 132 121 120 123 118 117 118 119 120 124 127 127 125 111 101 85 102 104 92 88 90 91 101 115 120 114 122 119 110 107 125 108 114 62 52 58 65 114 132 64 44 32 28 92 121 123 117 106 116 121 127 131 101 117 60 63 74 86 105 112 121 131 133 128 99 109 80 80 73 80 86 110 102 79 79 75 75 73 58 65 67 77 86 95 105 106 104 114 129 136 126 124 130 116 121 113 110 110 106 110 112 110 112 109 98 98 84 75 85 79 82 79 82 90 87 100 106 115 115 119 118 112 121 110 114 66 60 53 76 123 151 56 42 40 23 80 118 107 106 109 115 133 115 54 91 66 48 46 56 122 110 123 141 127 142 113 96 86 80 77 68 44 68 133 69 73 78 69 66 73 78 74 72 65 69 82 100 96 107 132 136 139 133 129 128 118 110 111 99 95 98 96 91 87 90 88 83 75 69 62 71 72 78 76 77 92 90 91 101 106 104 109 121 117 111 114 116 71 55 62 82 129 167 46 28 40 40 70 113 96 114 112 119 106 54 33 135 66 79 17 109 112 115 131 143 126 127 98 87 75 92 100 96 55 207 224 125 79 76 74 60 63 69 72 72 79 77 68 84 91 133 135 136 146 145 139 134 123 117 106 96 87 87 89 73 70 74 69 55 56 48 52 62 64 70 77 58 77 88 95 100 101 115 101 113 117 109 110 119 78 68 68 85 147 154 63 29 36 43 79 102 106 120 119 87 46 48 57 140 96 68 49 105 115 115 146 137 116 109 92 78 83 108 101 102 60 215 223 153 94 95 94 83 65 65 69 67 72 94 113 81 85 113 151 142 142 145 141 138 131 125 118 101 81 76 78 70 66 70 59 54 56 57 54 61 61 75 66 68 71 88 84 96 91 111 108 113 108 104 111 117 88 79 69 106 136 158 52 28 36 43 77 109 115 108 119 50 37 62 77 103 152 25 94 84 122 123 150 119 94 89 97 72 102 100 107 86 45 127 185 108 103 113 117 106 100 98 93 82 88 112 130 125 89 90 132 147 143 146 140 140 135 135 126 106 85 77 74 83 93 87 72 74 72 65 68 70 71 70 69 66 66 68 69 78 80 95 103 110 115 107 118 112 89 81 85 114 101 180 51 32 36 40 76 108 99 124 76 42 82 110 125 86 193 25 115 82 103 144 137 90 89 84 114 91 110 111 107 88 96 98 119 107 92 104 91 95 107 114 109 99 109 115 128 137 107 92 97 137 146 148 144 143 140 138 135 98 90 79 83 133 94 80 83 84 84 82 99 91 82 83 76 78 83 79 79 74 74 67 73 82 94 109 120 114 85 92 105 101 104 167 48 31 34 34 97 95 111 124 51 104 118 111 122 74 169 43 119 69 114 144 117 85 97 90 111 106 105 106 107 83 81 61 65 55 75 85 94 85 62 89 95 108 102 124 129 136 124 90 99 104 115 131 131 141 138 134 123 82 75 75 88 114 112 113 117 122 132 145 203 172 113 86 85 76 68 84 100 100 94 80 87 75 70 70 85 99 88 94 113 90 103 129 44 31 43 23 112 90 97 94 49 109 124 113 144 85 148 62 99 76 106 139 116 118 120 116 142 135 129 119 82 66 101 28 41 23 43 40 67 88 83 85 79 80 98 146 128 136 132 86 103 114 62 155 76 97 107 112 93 68 55 88 112 120 121 117 113 113 124 134 140 135 120 107 85 98 63 77 99 101 97 57 107 42 75 84 78 65 73 88 130 84 86 104 19 36 37 41 86 92 85 75 72 146 149 135 159 114 127 88 81 86 87 167 133 152 144 136 163 151 116 93 78 125 85 24 39 42 44 45 64 48 85 93 111 98 100 147 126 132 133 68 100 90 53 194 56 65 81 98 118 63 61 90 87 96 95 93 91 101 121 101 135 148 105 110 119 88 107 72 84 100 103 63 119 34 46 68 92 88 61 63 101 87 90 84 14 36 44 58 68 96 90 82 123 147 153 139 162 133 108 98 126 114 120 145 137 147 156 148 149 136 121 122 163 116 95 63 52 64 58 72 82 68 83 94 120 127 111 131 120 123 128 64 89 93 106 124 126 85 63 77 108 47 85 76 80 90 88 92 90 102 111 84 220 227 118 121 98 120 109 94 73 110 107 77 121 35 40 62 104 93 90 47 56 65 77 69 22 54 60 72 59 88 100 122 138 134 150 143 159 132 90 103 150 153 160 163 151 151 136 128 124 117 106 106 138 119 102 94 78 72 82 83 73 65 67 75 98 113 114 136 128 135 110 90 77 94 108 130 151 88 88 82 100 47 94 83 113 113 97 91 83 67 59 55 209 216 64 101 125 90 105 120 80 108 112 88 115 44 24 59 101 136 84 92 8 127 144 47 26 39 56 83 77 104 122 143 135 136 146 141 151 138 83 103 155 155 161 166 137 149 140 134 135 126 115 97 115 119 108 104 93 95 110 104 95 84 84 73 88 118 125 153 135 145 94 94 47 68 68 113 140 68 78 57 181 16 101 95 131 117 99 110 104 86 72 34 72 79 35 49 90 96 94 119 106 106 117 108 111 37 28 34 124 228 112 130 15 157 195 51 27 89 93 100 81 109 135 152 137 127 142 140 151 144 75 104 150 156 160 147 131 129 142 143 144 134 115 110 117 124 119 115 114 122 118 115 110 106 89 91 118 136 143 154 152 126 102 63 51 100 108 120 125 124 99 56 163 6 99 90 117 109 92 103 107 101 96 72 52 43 54 46 52 74 87 108 115 105 122 114 97 36 32 25 91 212 155 149 22 135 182 43 24 135 132 108 106 115 143 154 136 125 141 144 151 148 71 101 150 161 155 134 133 121 124 150 144 135 124 119 127 121 122 123 110 119 115 104 110 105 92 120 134 142 141 149 163 101 89 58 87 118 112 124 119 128 105 71 91 20 100 89 94 79 74 83 104 109 90 76 62 55 60 49 85 76 78 89 99 103 111 113 102 38 39 60 88 220 199 157 33 117 128 33 29 92 126 149 122 147 141 159 124 130 139 139 149 166 78 81 156 157 147 129 142 132 112 142 143 140 134 124 126 128 123 118 112 114 102 94 99 101 121 142 138 146 143 152 139 82 76 69 109 116 121 131 123 117 112 80 62 46 94 112 100 87 87 89 101 97 93 84 77 68 62 68 74 84 85 71 77 96 93 103 113 31 64 62 74 160 155 168 38 119 69 22 33 48 118 145 140 145 150 143 119 132 140 139 152 163 105 48 153 157 138 142 143 142 117 127 129 138 124 129 128 118 118 107 101 100 86 93 115 126 137 135 138 143 157 169 89 80 68 96 107 129 123 133 124 112 111 76 60 62 77 123 119 98 94 99 107 99 99 95 95 89 83 91 89 92 87 75 82 95 88 88 126 53 57 47 71 117 204 166 26 106 44 32 30 51 119 144 143 146 146 131 122 142 145 144 156 157 143 34 125 155 144 142 139 137 114 123 126 129 119 125 117 109 105 97 78 88 110 119 138 129 133 133 139 140 167 125 58 74 78 110 124 136 123 130 127 111 115 85 47 85 65 130 120 117 99 100 103 106 106 107 113 104 100 101 105 103 100 94 95 101 114 93 115 62 51 28 54 145 214 158 35 106 56 21 28 52 118 158 150 133 155 121 126 155 149 144 153 147 165 75 72 145 154 140 143 137 129 127 129 130 121 114 118 111 99 115 117 120 135 130 138 137 140 135 140 153 150 47 66 71 100 120 135 130 124 133 121 112 120 96 39 98 45 139 122 128 122 97 90 96 104 111 114 111 110 107 111 107 105 114 106 114 132 117 106 53 39 24 48 192 196 143 56 90 45 33 30 52 121 167 159 125 152 121 133 154 147 148 146 139 168 132 53 108 154 148 145 142 136 131 134 129 118 130 128 130 124 132 135 128 131 132 130 137 132 141 146 150 74 34 71 97 121 131 132 129 129 131 124 111 116 107 52 77 54 120 122 122 130 119 100 79 89 99 106 105 116 112 107 116 110 114 109 113 121 123 122 100 87 46 98 185 167 119 59 72 29 43 40 65 121 184 151 137 137 130 133 157 137 156 155 146 153 167 130 60 109 141 150 146 136 145 133 131 128 133 132 132 130 137 129 130 131 127 126 128 133 150 145 76 50 89 82 103 136 133 132 130 124 124 120 110 112 120 71 47 90 79 134 115 113 130 121 111 84 81 87 100 103 107 117 107 113 100 100 107 121 122 126 119 94 34 57 73 125 105 54 81 90 89 32 76 129 184 151 142 130 135 138 146 149 145 154 143 151 155 166 142 73 101 132 144 134 153 137 127 129 134 133 134 132 134 128 128 130 125 124 134 135 132 84 85 98 66 95 117 135 140 141 133 125 123 117 115 110 123 84 60 87 44 137 119 114 128 117 114 119 105 93 90 90 103 99 108 110 104 110 104 115 120 126 103 91 30 50 38 138 68 72 123 125 110 95 95 147 174 143 151 135 140 136 148 146 139 144 144 144 152 155 153 147 121 110 107 119 130 141 129 126 136 132 132 138 134 131 134 129 132 131 128 108 151 170 89 92 77 100 132 137 144 142 135 126 123 124 113 111 130 83 77 58 72 92 116 124 121 114 113 117 116 117 114 107 107 110 110 106 110 113 115 118 122 128 86 99 27 49 48 143 44 105 126 102 92 122 126 156 172 138 161 125 146 129 151 140 156 135 147 145 151 147 147 150 153 149 143 115 102 114 126 128 130 132 128 137 133 135 134 124 123 108 98 99 112 116 93 104 94 118 139 137 143 149 137 131 142 135 118 125 136 82 70 69 81 56 125 123 106 115 118 116 111 116 114 114 112 117 110 109 120 115 118 122 124 127 74 102 22 43 91 122 59 116 113 81 64 124 126 163 161 141 131 118 148 132 144 148 148 135 139 133 146 136 146 140 167 147 161 149 144 134 112 117 118 116 122 127 110 105 94 94 99 98 100 108 118 104 99 112 121 125 143 146 143 147 143 138 146 148 120 122 139 93 50 71 72 78 71 125 114 110 117 114 116 113 117 118 114 113 115 115 119 117 120 121 126 118 84 81 31 38 144 80 86 112 113 86 40 113 110 176 149 127 119 132 138 132 146 148 152 132 143 122 143 132 141 142 162 145 155 146 148 157 146 141 137 122 119 122 110 114 110 104 105 99 75 72 124 109 115 130 141 138 146 138 144 160 145 143 138 138 120 108 141 109 79 49 63 84 32 92 121 115 117 113 113 109 115 118 122 112 113 111 118 116 119 124 117 109 99 43 43 92 135 63 106 113 114 78 39 115 118 171 137 120 126 141 138 135 141 149 152 130 135 127 139 139 143 146 152 143 154 145 150 158 145 150 147 138 124 125 115 116 106 97 88 81 52 66 128 113 138 146 156 151 155 140 157 173 136 131 125 123 109 109 146 124 99 60 43 86 80 39 87 117 110 117 113 114 114 115 118 124 115 107 112 114 115 117 108 109 85 40 72 165 77 89 101 122 111 62 50 124 133 171 130 106 133 148 133 139 132 142 139 137 132 135 138 136 142 144 146 142 154 154 160 162 159 155 144 134 129 116 107 103 91 75 68 56 28 79 131 125 133 139 156 161 162 147 163 151 122 116 108 103 101 101 128 149 97 104 41 58 93 87 51 71 117 112 115 119 117 125 123 124 115 115 105 106 108 115 104 110 68 62 162 108 75 92 95 125 106 42 72 130 122 172 108 95 143 151 125 142 134 142 145 142 131 140 140 137 140 142 146 143 146 155 164 159 168 153 138 133 120 109 102 81 73 53 54 45 32 67 129 102 105 99 128 146 152 144 133 123 113 101 91 92 91 96 115 121 118 99 73 35 74 83 91 70 59 88 113 116 118 121 123 127 121 115 105 103 105 106 103 107 99 122 103 81 107 91 93 134 91 44 83 146 121 157 99 84 138 160 123 133 139 135 145 136 133 137 142 141 149 138 147 140 134 154 159 161 151 145 133 116 110 98 70 62 56 51 46 45 67 23 120 85 60 31 40 103 130 133 115 110 95 78 75 77 78 79 97 99 102 86 83 25 53 63 66 74 84 70 63 81 105 117 120 126 129 115 108 108 112 113 109 103 92 107 96 96 115 90 89 149 79 54 95 135 103 172 104 93 95 175 122 131 139 130 144 134 132 138 141 138 150 145 146 138 137 149 148 157 150 132 121 105 99 84 72 66 64 52 59 70 100 51 47 86 55 38 43 53 107 101 106 99 73 61 61 63 62 71 100 76 56 64 71 46 40 48 52 57 72 83 88 80 77 74 80 96 101 99 99 92 92 89 91 97 102 107 93 100 102 77 84 143 77 50 109 110 84 164 130 102 78 152 133 132 141 129 143 138 133 135 147 141 150 148 151 132 145 140 146 146 140 125 112 112 102 86 82 78 71 80 93 96 117 82 62 80 82 67 82 97 135 80 72 94 63 48 65 56 57 86 83 25 39 59 60 86 55 46 50 46 57 69 84 86 109 109 113 117 116 108 103 97 97 101 105 101 105 101 99 110 80 60 81 134 70 56 133 60 102 118 161 104 91 96 139 129 136 137 135 138 136 135 144 141 148 143 145 140 139 143 140 136 138 128 110 112 102 89 87 85 87 103 102 121 126 126 98 103 92 91 99 85 121 88 68 47 45 39 53 51 69 57 24 28 44 42 46 116 83 73 66 48 52 50 66 86 91 110 117 116 126 116 99 103 94 99 104 102 101 98 105 115 66 54 72 139 71 58 137 21 149 71 165 119 109 102 132 130 139 143 145 139 134 137 138 144 148 142 143 139 136 140 137 140 137 122 118 110 93 88 85 94 105 114 124 134 137 138 140 130 113 105 109 96 102 89 54 30 29 32 22 69 77 47 43 37 31 20 71 110 99 87 83 77 70 54 56 73 83 102 117 110 114 114 102 98 89 95 104 101 103 98 105 115 77 44 76 138 69 73 105 6 173 62 146 143 134 149 128 118 138 141 145 143 138 122 139 141 147 142 142 135 131 139 143 142 134 123 107 103 89 93 92 112 122 123 137 138 135 137 144 135 135 132 116 107 90 75 49 26 32 38 36 57 75 63 67 68 60 56 105 106 99 94 91 87 92 84 75 79 75 92 101 107 111 104 101 97 93 98 100 101 100 105 103 111 89 41 81 132 60 102 56 15 171 97 97 140 145 155 129 119 130 141 147 142 136 123 134 134 142 144 142 138 134 143 145 146 132 118 105 95 93 104 114 127 129 134 137 144 133 136 132 136 138 137 137 121 94 58 37 28 35 49 36 46 64 81 76 94 115 113 120 109 104 102 93 89 91 90 90 89 89 87 100 102 99 108 102 92 96 94 103 101 106 104 107 112 87 48 91 124 64 122 25 25 144 133 72 136 148 152 124 128 123 142 148 144 129 123 129 138 136 147 148 143 138 144 149 134 125 115 97 101 107 125 130 132 128 136 145 137 132 139 133 138 137 140 141 131 114 56 34 28 38 57 38 56 58 80 88 98 134 119 130 124 94 109 100 92 86 85 93 101 99 96 98 101 96 102 104 92 99 100 107 104 110 101 104 113 61 60 108 108 71 118 9 22 104 149 100 145 146 151 110 125 122 134 142 146 135 122 131 139 137 147 148 144 144 149 141 133 124 110 97 118 120 144 133 128 138 140 143 121 136 140 136 142 142 136 130 131 125 89 39 34 40 55 47 53 55 75 98 116 131 131 134 130 114 108 109 86 85 82 87 102 98 102 102 98 103 100 105 98 106 101 106 103 108 101 106 88 41 72 118 84 90 96 6 26 58 156 137 146 145 137 103 118 128 133 134 144 128 126 132 135 134 149 148 145 135 138 136 131 114 112 118 124 139 140 130 116 147 143 144 127 143 146 131 134 140 135 135 128 125 99 71 53 50 61 56 54 56 84 104 115 134 133 133 129 125 119 117 101 81 84 83 95 97 105 107 102 96 102 104 110 108 108 105 100 99 107 113 54 52 99 111 59 115 66 12 24 13 136 150 142 142 121 93 128 127 129 126 142 126 130 141 131 137 148 145 138 140 143 128 121 120 118 126 135 148 129 124 126 155 147 151 142 136 136 137 135 130 135 130 127 129 115 99 95 87 89 84 75 75 96 112 115 133 127 131 125 121 123 125 114 100 82 84 87 96 96 108 107 95 104 106 109 112 107 98 104 86 107 102 60 72 114 80 59 128 40 20 26 24 85 159 130 138 109 79 137 124 136 119 135 129 128 132 132 134 138 149 139 145 147 130 122 127 123 127 140 142 121 118 139 147 146 129 118 132 126 132 129 123 137 121 124 120 111 107 103 115 116 98 99 99 108 108 121 119 124 134 129 119 118 123 118 112 87 81 80 96 102 97 109 99 102 105 111 108 109 96 98 84 100 94 102 106 99 46 85 120 10 25 25 33 23 128 134 128 101 63 136 126 134 129 134 132 128 123 144 131 136 158 144 148 143 126 128 125 127 133 147 135 115 131 131 137 114 120 124 119 120 115 117 107 107 100 99 98 95 109 98 112 113 102 104 107 112 110 114 113 130 134 129 132 114 123 116 116 93 79 83 83 105 97 99 107 105 98 110 105 96 98 92 76 101 96 116 121 61 51 110 83 12 24 26 27 27 31 108 99 72 23 130 123 119 130 137 131 125 129 143 138 142 146 147 143 132 134 130 128 123 138 141 122 119 123 120 112 110 114 118 113 99 79 81 66 63 63 59 66 66 87 90 85 95 85 92 101 106 103 111 100 119 124 113 134 112 112 112 117 102 80 75 79 95 101 99 109 107 100 103 95 92 98 91 88 94 98 112 120 50 75 130 40 16 23 29 32 30 28 35 36 35 22 125 120 124 128 135 133 120 131 144 135 140 138 153 133 144 141 129 130 130 142 133 118 118 110 102 103 109 101 92 74 57 45 41 33 29 30 34 42 49 57 58 54 57 57 75 86 93 101 100 100 101 104 101 121 122 102 113 113 109 75 83 80 92 97 109 108 108 95 107 95 93 94 95 92 94 87 112 112 92 98 120 11 23 25 25 33 32 28 33 33 36 11 108 129 116 128 132 132 121 124 139 134 147 139 143 143 141 134 132 134 138 136 123 121 119 101 88 96 85 70 48 42 36 24 17 26 29 23 32 28 31 34 36 34 35 39 51 52 65 90 86 92 99 89 93 103 114 109 107 110 113 69 91 88 94 103 92 109 105 106 98 96 95 97 89 90 92 68 116 106 108 122 76 14 24 23 26 33 32 27 36 30 32 16 82 134 117 128 136 131 129 126 138 132 144 126 154 143 135 135 136 137 145 138 123 116 110 94 87 74 53 33 28 28 22 19 15 18 24 25 22 25 26 19 25 23 19 22 31 40 41 53 63 88 97 91 84 85 102 112 101 106 110 85 88 96 97 100 101 103 107 109 99 92 98 94 87 83 78 57 107 107 111 111 19 21 23 27 25 32 29 33 31 31 31 29 65 137 122 121 128 132 124 123 140 130 140 130 151 144 137 129 137 140 149 124 118 101 90 69 49 48 70 82 95 95 83 87 82 56 36 29 31 34 24 22 20 20 15 20 20 24 37 38 38 61 74 83 84 80 88 105 102 105 113 102 93 97 107 107 109 104 105 99 104 91 101 90 83 96 64 63 94 109 119 40 20 27 23 26 25 31 32 31 33 30 30 32 40 138 127 124 126 130 125 125 131 136 131 133 139 151 135 133 141 143 133 116 102 89 73 53 55 125 138 144 123 137 118 118 117 100 97 78 90 103 83 78 60 51 43 37 30 33 35 29 33 39 45 63 85 71 84 100 93 103 110 110 109 95 107 112 102 110 98 94 95 93 99 90 89 89 55 69 95 112 69 14 23 24 24 26 22 32 32 29 33 32 30 35 23 133 124 125 123 125 127 122 128 135 136 128 141 146 128 139 148 132 122 114 94 72 55 66 124 144 135 134 117 146 134 122 128 116 106 112 104 115 101 101 105 86 85 93 91 86 76 75 39 22 25 42 64 68 76 92 94 103 118 117 117 102 99 114 105 108 101 94 99 86 98 87 103 65 31 67 87 59 20 24 26 21 24 27 20 31 28 32 29 34 30 33 14 112 124 123 125 126 128 124 127 129 131 128 135 134 139 137 149 127 118 104 80 62 58 122 147 138 133 111 131 133 136 138 135 121 111 108 108 104 97 103 107 101 84 106 104 107 94 104 99 96 60 25 42 59 76 86 98 108 119 120 114 112 104 107 107 105 101 100 93 95 99 91 105 30 21 28 32 23 26 24 24 25 25 23 26 27 33 31 30 32 30 31 20 77 139 113 130 124 119 127 125 125 129 129 120 136 138 138 137 124 107 89 76 57 95 140 139 134 123 119 124 117 137 132 124 119 105 105 100 87 93 96 101 96 96 106 108 116 104 109 101 102 114 101 19 43 69 79 93 100 118 123 117 113 107 115 103 104 100 96 96 95 98 99 85 14 25 23 27 26 23 26 26 23 26 27 23 29 33 30 31 31 32 30 31 35 141 124 127 128 117 125 128 129 120 127 120 133 133 133 126 111 93 79 62 67 114 143 119 136 118 118 117 107 109 108 107 94 95 89 84 71 79 79 87 90 95 103 106 107 106 85 93 83 111 118 76 39 55 71 84 93 110 116 111 97 113 104 104 98 96 96 99 98 90 109 49 17 26 26 25 25 26 23 23 26 25 26 24 33 31 31 31 33 29 33 34 19 127 130 119 128 122 121 131 124 127 118 127 130 128 124 117 96 78 65 61 100 133 141 126 127 114 116 101 98 84 99 89 79 74 53 51 58 58 59 59 71 82 82 92 86 84 64 65 81 96 109 90 42 53 71 84 93 105 108 108 107 105 96 102 101 96 94 104 96 96 105 19 21 26 26 25 25 25 25 22 22 27 27 24 31 31 29 32 30 33 29 35 17 85 137 126 122 123 118 129 124 122 117 123 122 119 116 105 82 63 63 89 129 132 137 131 117 108 101 99 92 84 91 83 73 58 41 49 63 55 46 45 52 59 58 74 62 63 61 72 76 87 112 101 47 70 81 95 99 103 106 105 111 102 97 99 97 96 97 105 86 108 82 11 27 28 23 26 22 26 22 28 21 26 26 23 33 30 33 29 33 29 32 33 32 44 144 134 116 125 123 124 120 127 110 122 116 105 116 87 68 67 88 121 143 142 137 128 112 106 95 99 77 93 96 89 79 60 54 66 55 53 42 46 41 47 48 66 58 78 82 96 87 92 113 110 61 80 86 93 92 103 101 109 98 98 93 90 100 90 102 102 94 113 47 17 28 25 28 24 25 26 24 26 24 23 25 27 31 29 30 32 32 30 32 30 35 25 134 139 113 128 123 123 123 126 107 120 110 108 102 79 66 85 119 145 144 144 132 117 100 99 88 89 91 105 100 81 79 74 55 58 50 50 53 45 43 42 54 67 72 93 89 106 100 109 107 121 67 84 80 87 91 97 104 99 103 94 95 100 100 99 97 97 99 107 13 24 26 27 28 24 23 24 27 24 24 25 26 24 28 29 33 29 32 31 32 32 34 14 99 148 126 134 122 120 121 123 108 113 108 110 97 76 72 117 138 145 145 138 126 112 93 89 89 98 111 100 91 81 87 75 62 64 54 55 58 52 59 58 64 66 78 88 97 102 103 106 109 118 88 75 84 79 86 93 99 89 105 98 97 97 96 106 93 98 105 70 13 26 26 27 26 24 24 25 23 26 23 23 24 28 31 29 34 30 30 33 32 32 32 26 58 147 133 134 121 121 116 116 112 113 107 107 90 78 98 132 144 137 132 126 121 111 89 106 101 106 106 103 88 102 95 89 87 66 66 60 59 56 69 73 64 73 77 87 98 101 109 104 108 120 109 85 75 77 83 92 91 88 102 95 95 96 100 103 93 98 107 36 22 27 25 26 26 24 25 26 23 26 26 24 24 26 32 27 34 31 30 32 32 28 31 29 24 134 133 133 125 121 114 116 108 108 122 100 83 95 108 133 137 128 127 125 125 123 99 107 108 106 112 111 104 115 101 102 95 78 74 73 72 70 75 80 80 84 79 86 92 104 108 112 113 120 111 99 80 79 82 85 94 95 100 91 99 95 98 100 99 102 88 14 25 24 25 27 26 26 23 27 27 24 25 26 22 25 32 32 32 28 32 32 30 31 32 33 18 142 127 131 125 124 109 117 109 99 121 103 98 91 109 135 128 119 126 132 129 115 104 112 103 113 127 116 111 115 110 110 100 92 88 83 89 92 82 89 90 97 80 83 84 103 108 110 112 121 111 110 94 81 79 85 88 92 95 92 94 94 106 94 97 104 89 69 72 71 74 70 63 60 57 51 48 44 34 31 25 29 31 30 28 30 30 33 31 31 29 33 33 179 124 122 125 131 117 113 108 107 116 107 90 83 120 125 120 124 132 131 130 112 113 103 109 121 130 112 112 114 111 104 99 95 99 97 97 99 98 101 96 98 96 89 90 105 107 110 110 114 115 117 104 97 78 78 84 91 96 95 92 97 105 93 94 107 105 97 94 93 97 100 106 108 117 118 123 130 131 114 96 82 91 104 107 117 114 102 79 74 65 75 60 214 137 118 127 131 118 116 106 99 113 98 82 92 123 124 122 127 126 130 128 114 117 106 112 118 124 107 115 105 109 101 95 97 103 91 96 91 92 96 100 97 105 100 92 104 103 116 98 106 107 114 96 109 82 80 87 89 99 94 97 101 103 92 99 119 116 110 105 105 106 107 111 116 124 128 132 136 146 142 123 112 149 145 140 142 147 148 140 132 127 109 122 213 178 114 127 126 124 109 111 105 104 100 83 102 115 118 121 129 118 128 129 123 117 112 107 104 111 112 113 108 104 96 103 104 105 103 97 95 97 98 104 100 107 103 92 103 106 112 98 101 98 101 97 96 91 90 77 83 101 97 97 100 99 94 109 127 122 118 112 110 109 113 114 118 124 130 135 139 148 148 118 101 161 151 145 135 133 139 148 136 132 110 174 200 220 130 131 128 136 112 107 103 101 98 90 104 108 119 121 124 120 130 125 122 115 113 106 101 120 110 113 102 94 97 102 99 103 100 88 92 96 100 98 99 97 104 97 105 100 100 101 95 91 93 88 83 93 96 80 82 96 97 96 100 95 93 118 118 124 122 118 117 117 121 115 111 123 130 139 144 148 153 128 99 168 157 149 142 140 133 139 146 129 129 198 199 207 197 120 126 131 130 107 103 101 91 86 115 108 115 122 115 125 119 115 111 106 107 102 109 110 109 108 94 87 91 95 93 96 92 83 78 96 99 98 98 92 103 97 105 93 96 100 92 89 83 80 71 83 91 89 86 92 100 98 101 95 100 148 110 123 129 122 124 120 117 110 110 117 127 139 149 152 155 139 106 179 170 161 144 146 144 137 143 127 171 199 199 201 211 171 114 125 124 119 108 96 89 86 110 116 115 122 115 125 112 114 110 109 103 99 107 112 107 96 86 91 88 80 90 91 80 78 77 84 82 92 96 97 105 90 98 96 91 97 86 91 81 73 61 69 73 92 81 90 94 102 95 89 137 166 112 124 133 123 122 117 111 107 106 117 126 143 154 154 156 150 116 185 180 172 149 148 154 152 144 136 193 198 200 202 202 210 165 112 121 118 117 106 108 92 103 103 107 122 118 111 106 109 104 102 99 97 90 97 98 92 77 88 79 62 85 80 75 76 79 78 73 92 100 95 97 93 92 90 83 90 77 80 82 71 54 58 66 71 82 90 91 105 86 101 170 164 126 118 131 122 111 110 113 110 108 116 135 146 154 164 161 160 135 188 184 177 159 156 150 164 148 156 201 197 201 203 202 202 210 174 115 121 120 108 117 100 106 96 96 112 122 113 105 100 97 98 91 84 83 84 85 77 70 72 66 54 77 72 74 63 72 74 76 75 98 90 93 85 89 87 87 85 80 83 77 50 49 56 58 68 75 86 100 104 75 157 167 160 137 112 123 112 111 112 117 121 111 115 139 156 154 167 167 162 152 192 189 181 173 161 153 155 154 173 201 198 201 201 202 202 201 207 187 129 114 113 111 110 108 102 102 94 112 123 110 103 93 90 84 72 71 69 75 67 66 62 67 60 71 70 59 68 59 59 71 68 85 76 76 84 85 82 82 77 87 90 33 30 39 45 55 61 80 82 104 99 99 177 163 155 140 115 119 112 111 115 111 126 120 116 142 157 160 173 176 153 160 193 191 188 182 171 163 146 150 187 201 200 202 201 203 201 200 201 199 203 139 106 105 116 110 106 106 98 96 111 118 108 83 84 86 70 63 52 65 58 64 56 63 65 58 61 53 59 52 57 67 60 76 69 71 75 80 75 79 80 88 62 30 32 41 51 49 61 77 91 99 85 152 171 156 157 150 95 127 116 109 116 111 116 122 127 137 146 154 162 177 154 158 194 195 191 185 181 175 159 127 193 203 202 201 202 200 201 200 199 199 199 200 160 107 107 105 107 106 95 97 99 98 118 95 91 70 63 55 55 53 46 54 54 55 53 52 52 52 54 51 50 62 55 60 56 66 67 72 81 77 76 73 50 36 36 48 59 68 73 82 94 94 125 171 167 155 160 177 61 126 120 113 113 112 122 125 141 151 155 159 156 168 166 165 197 199 197 189 187 180 180 108 189 207 201 201 200 198 198 197 197 198 195 194 196 179 114 100 106 109 101 91 94 86 104 112 98 82 64 59 66 48 51 47 53 51 64 52 45 50 49 47 49 51 53 51 51 67 67 70 67 63 70 56 51 47 45 63 64 69 68 72 93 103 163 168 162 160 160 186 85 91 117 121 127 129 131 130 160 170 159 168 170 168 166 156 201 201 199 191 190 186 187 109 179 208 202 197 196 197 195 195 193 195 193 193 193 191 188 145 103 109 113 92 87 83 78 105 108 91 80 70 68 63 63 51 58 42 52 58 51 43 51 52 52 49 49 49 57 66 58 59 59 48 63 55 58 45 66 73 72 56 70 85 93 146 163 165 164 163 163 177 116 60 103 116 128 139 142 144 165 176 171 170 174 178 179 175 203 199 203 189 188 191 190 149 185 209 198 193 194 192 193 191 190 190 192 192 191 187 189 184 167 124 108 102 92 87 74 82 108 111 70 69 59 61 59 57 58 55 57 59 57 53 56 54 49 53 48 47 54 49 59 40 61 40 62 62 53 61 61 74 68 68 82 85 132 155 161 164 165 165 162 173 135 60 99 116 119 135 150 155 168 177 178 181 176 177 182 183 198 193 198 188 186 184 188 166 197 206 196 191 190 191 190 188 188 188 187 189 187 187 185 183 182 175 154 123 98 94 79 78 95 114 97 72 65 51 48 38 43 37 40 40 39 39 40 36 37 40 36 43 53 64 47 42 54 48 66 66 46 70 54 70 69 83 90 126 146 150 163 165 167 165 162 165 164 103 92 120 124 132 152 163 164 181 179 184 182 182 184 186 200 198 195 193 187 180 177 163 196 207 198 191 194 191 191 189 187 189 184 187 185 184 184 181 180 179 174 167 145 115 89 76 87 108 109 88 73 67 58 40 42 41 42 33 37 39 35 34 40 46 44 49 50 66 45 50 53 59 57 67 48 71 73 72 80 93 122 138 142 154 163 168 168 163 166 164 171 156 98 126 138 135 148 163 165 179 185 183 187 185 187 186 