P2
92
112
255
38 35 40 37 40 37 41 40 42 41 38 39 41 43 39 42 41 41 39 44 44 32 40 47 51 44 45 43 56 66 47 47 33 47 54 45 43 36 23 30 33 33 44 39 35 45 54 62 79 63 62 52 57 58 56 43 38 37 34 42 39 39 51 55 55 60 56 49 50 73 65 44 50 42 57 42 45 43 52 67 77 47 29 40 38 39 36 39 38 34 36 36 37 41 37 38 43 37 40 39 43 37 41 46 38 41 43 40 40 45 41 45 37 42 42 37 44 51 54 67 62 34 39 44 38 47 45 47 41 48 26 44 35 51 44 49 64 66 78 81 92 74 67 62 56 63 55 54 42 45 42 45 37 50 39 64 56 48 50 75 72 67 65 56 44 54 52 55 47 50 39 58 60 48 32 35 39 37 36 37 37 38 36 39 37 40 39 39 40 40 40 36 40 40 37 43 39 41 43 40 42 43 41 44 35 51 55 34 52 68 60 64 47 32 48 45 51 60 54 53 40 48 48 55 51 66 68 62 71 86 89 94 83 69 62 64 49 61 66 64 61 62 58 53 42 50 47 57 52 37 66 62 58 65 62 69 43 38 62 53 51 66 65 45 50 39 36 40 39 34 38 38 39 34 38 36 43 39 37 37 43 39 38 37 41 37 41 44 38 36 48 38 41 44 41 43 52 55 68 41 51 62 56 47 40 43 51 61 51 58 64 48 39 51 76 61 50 79 79 87 93 108 82 93 69 69 50 57 49 66 66 59 57 74 66 67 56 50 57 44 68 47 56 56 51 64 57 65 61 48 72 56 54 65 68 62 54 40 38 37 41 38 36 40 39 35 37 35 43 36 42 40 38 39 40 42 37 40 44 40 41 40 43 41 39 43 45 57 56 56 57 60 44 61 56 45 44 57 59 48 69 65 58 44 44 51 71 68 61 79 82 91 103 100 77 84 65 67 58 88 71 68 54 59 59 57 73 71 72 56 51 46 71 50 59 57 63 78 55 76 72 69 55 51 51 64 57 56 58 50 41 38 42 36 42 38 38 40 33 38 35 40 36 42 38 42 39 40 38 39 42 40 40 48 41 40 43 47 57 56 48 53 42 89 61 68 53 48 47 51 57 51 59 61 57 49 49 58 71 77 71 75 82 91 93 85 75 89 85 80 82 93 72 60 48 52 50 59 63 71 71 75 53 36 70 64 54 48 76 63 64 77 83 73 58 50 54 74 37 71 45 43 43 40 39 39 37 40 38 39 36 38 37 39 41 38 37 41 40 38 43 40 38 43 39 45 42 52 42 47 62 50 60 64 68 103 63 75 59 47 40 50 45 56 46 52 67 58 61 63 91 77 82 89 85 85 91 84 79 97 84 90 79 72 60 68 60 50 54 42 63 80 70 76 60 44 54 86 53 45 81 46 60 75 90 73 72 45 72 75 42 60 46 35 39 38 39 42 38 38 38 39 35 41 41 34 48 39 44 37 37 41 42 38 40 40 43 42 48 50 45 64 62 62 78 89 69 99 81 83 43 37 44 52 36 52 63 62 69 77 64 76 85 112 94 93 86 79 86 83 93 95 96 91 94 65 74 69 83 64 48 45 61 79 80 80 61 59 55 70 71 57 61 60 54 54 72 79 83 79 65 74 62 44 46 40 45 40 39 42 37 40 42 39 38 36 47 33 46 36 39 40 39 43 40 40 40 46 46 53 47 44 59 65 74 98 88 81 61 102 81 56 62 37 54 58 31 46 83 77 72 83 76 71 111 131 91 92 103 83 80 98 103 91 93 85 105 97 95 96 93 90 69 64 53 89 71 78 66 63 61 67 69 66 72 64 69 60 62 69 76 76 74 71 67 35 60 51 47 48 50 40 45 39 41 38 43 35 42 34 45 39 39 41 39 43 37 41 43 60 65 45 43 53 69 81 111 89 88 62 70 105 79 59 68 46 67 59 39 47 87 99 74 87 94 70 119 122 93 97 117 93 91 117 96 100 102 91 102 99 120 110 104 102 94 83 74 77 74 82 78 59 69 61 68 74 75 57 56 70 62 72 82 73 65 66 64 43 83 50 49 53 46 46 50 42 45 42 40 40 45 36 42 38 42 41 43 41 37 60 63 61 53 46 42 66 97 103 95 77 82 68 86 96 81 82 58 61 68 71 42 53 86 109 93 94 97 99 100 112 98 105 107 90 111 113 112 106 95 91 113 117 120 113 112 120 102 90 86 84 81 87 82 51 79 62 66 77 77 77 61 70 56 79 99 70 65 52 65 53 83 70 56 54 45 45 47 43 46 46 39 44 46 41 41 43 41 39 46 40 59 77 60 51 51 58 56 87 89 86 72 71 86 114 64 102 82 82 64 69 77 80 47 69 84 106 110 100 103 100 102 96 91 95 88 107 125 116 112 122 89 102 124 129 131 124 121 126 119 98 102 93 82 96 81 61 84 70 79 76 86 90 80 94 64 91 101 72 58 54 61 53 51 77 78 56 48 61 54 54 48 47 37 41 39 39 46 40 44 40 46 58 76 59 41 59 60 75 65 94 72 69 67 49 176 89 51 120 98 78 81 77 82 95 54 77 93 100 106 98 115 101 102 112 95 102 102 106 127 125 112 116 100 102 124 129 130 141 125 124 116 107 101 96 85 96 85 76 78 81 90 85 93 94 95 104 51 118 109 51 46 52 48 65 35 68 58 78 49 56 52 59 50 49 46 38 42 48 40 44 43 43 67 91 55 40 66 97 82 66 77 101 71 62 50 83 154 55 70 114 94 88 94 93 83 98 74 67 106 103 109 106 109 112 109 116 101 113 106 112 133 136 116 108 102 95 125 130 133 127 124 137 131 130 115 95 104 88 97 89 85 84 92 103 100 88 81 95 59 118 70 38 46 66 54 49 46 81 36 66 59 48 49 51 47 53 45 43 43 44 47 36 51 72 84 55 44 62 90 97 70 54 110 94 81 62 46 116 79 80 92 101 101 97 106 96 101 103 85 70 106 106 113 111 106 109 113 109 103 112 110 107 137 130 125 113 106 96 114 128 134 128 135 146 135 136 120 86 96 94 100 107 91 94 89 108 114 73 85 79 86 99 67 46 69 77 73 32 58 65 48 46 51 51 46 49 50 55 43 48 38 44 54 39 64 85 66 27 65 86 77 75 58 76 120 85 80 64 58 99 87 97 93 100 108 110 119 110 115 98 104 68 104 112 117 110 107 114 109 112 82 109 112 114 140 133 128 123 115 99 124 130 129 126 131 142 133 134 119 66 100 95 121 118 93 106 87 110 90 59 85 97 97 92 78 59 78 84 59 40 52 75 43 45 48 43 50 54 56 53 48 46 41 48 42 53 58 81 44 58 95 69 62 66 91 96 96 82 71 70 80 95 98 108 74 110 110 116 123 130 120 105 107 82 99 122 116 112 104 113 112 120 80 89 115 119 144 139 139 125 121 118 132 127 128 124 125 130 131 134 106 61 95 94 135 133 98 102 103 102 58 76 87 109 103 91 85 63 98 84 53 58 53 86 33 45 53 43 47 56 55 54 50 52 50 40 42 51 54 51 75 96 79 56 60 133 116 97 74 91 62 91 97 97 102 121 65 122 114 111 144 130 117 115 104 98 106 107 118 120 113 111 127 126 93 68 117 126 143 148 145 136 125 128 137 132 133 128 127 131 134 126 114 64 88 90 143 139 99 101 120 82 66 76 76 96 97 94 83 76 94 78 61 74 82 73 37 48 52 47 46 61 54 58 50 48 48 29 45 51 53 51 97 72 52 59 123 155 126 73 74 90 70 104 102 101 112 127 66 126 121 125 139 127 126 122 96 104 109 95 106 122 108 113 125 119 93 73 119 142 151 149 154 142 129 135 142 141 141 127 130 134 129 128 107 73 82 89 143 127 102 101 132 85 62 66 65 78 90 102 84 85 76 73 93 87 102 63 55 44 38 52 42 54 58 55 54 45 33 37 36 86 52 82 67 65 62 122 138 148 109 61 77 92 75 118 92 119 131 125 74 130 129 139 123 131 137 115 97 98 108 96 95 122 115 120 108 120 65 94 130 151 163 155 154 142 121 145 143 148 138 132 134 136 131 124 107 81 95 87 137 114 118 88 134 104 51 82 69 78 85 114 103 92 81 73 112 95 104 57 52 46 46 45 40 56 56 60 54 63 34 47 30 101 70 71 59 96 98 109 165 123 104 61 84 97 85 108 98 135 127 137 90 120 123 140 142 135 121 115 110 107 104 85 87 84 96 107 108 86 71 109 126 140 148 150 157 147 128 141 142 145 134 137 133 136 136 127 120 112 120 108 133 99 122 86 128 125 53 86 105 89 99 117 124 106 89 85 99 114 96 61 48 45 45 43 44 43 49 53 61 80 43 52 35 85 82 60 82 98 98 127 173 106 103 66 118 93 121 91 132 138 125 130 115 112 134 144 151 135 125 128 111 109 99 100 93 92 81 90 92 79 78 105 119 134 140 139 140 140 138 140 148 145 147 146 142 142 144 133 135 130 131 124 122 97 119 88 124 134 88 66 112 103 117 118 129 118 99 82 93 107 87 67 47 54 54 40 43 47 52 59 67 63 40 45 47 74 91 65 103 66 122 159 146 96 88 115 127 90 136 85 139 136 117 130 128 103 129 137 145 142 148 132 124 109 103 109 101 99 97 98 100 89 97 112 123 136 139 135 134 141 137 138 140 139 147 145 144 148 152 144 150 148 147 136 108 107 118 81 131 136 124 71 62 90 126 127 125 125 115 96 84 85 84 66 56 60 77 45 47 46 48 63 66 55 38 41 52 78 93 77 78 68 139 159 124 80 94 132 111 111 125 99 125 130 125 146 141 123 136 131 152 159 152 132 132 115 121 122 127 129 134 130 131 126 130 135 139 140 142 138 137 142 139 145 144 142 147 146 147 145 148 146 147 147 146 137 107 119 108 90 128 142 136 115 75 57 87 119 121 129 122 109 88 76 75 74 59 60 71 64 63 49 65 66 66 70 44 43 48 84 88 78 52 117 130 162 105 79 112 126 109 129 115 109 132 133 126 162 146 147 158 154 145 158 153 143 137 128 139 141 150 153 151 152 148 143 145 152 147 148 144 146 143 141 142 146 148 144 148 147 154 150 147 148 149 148 150 135 118 119 107 92 123 140 138 139 125 107 80 95 99 108 110 120 100 71 68 70 68 56 73 69 75 70 72 67 75 74 47 38 57 95 73 70 67 141 124 117 99 108 106 99 134 128 113 122 139 138 144 166 152 165 167 161 160 157 163 155 154 148 150 147 158 155 154 152 153 151 153 153 149 144 152 155 147 152 144 146 146 144 148 147 158 154 152 151 150 149 148 138 131 114 108 103 118 137 129 140 142 128 127 112 100 101 111 116 110 79 50 73 86 71 65 61 67 71 73 63 64 69 50 46 74 82 81 67 70 131 118 101 120 103 92 114 146 117 126 126 146 134 164 164 157 164 167 160 166 159 172 171 164 161 158 154 166 160 164 152 159 165 167 155 155 147 147 143 152 149 152 147 147 149 147 153 153 155 154 155 148 150 151 142 136 113 111 120 118 137 135 131 138 137 141 134 123 115 124 134 134 116 57 63 100 87 92 66 76 68 74 67 70 52 43 43 86 74 78 68 73 110 112 94 122 80 78 141 146 118 129 136 147 134 164 159 164 162 163 159 168 162 162 171 166 168 169 162 171 173 165 166 167 177 174 162 160 157 154 151 152 154 152 147 144 150 151 147 153 156 154 155 154 153 147 152 135 113 114 126 133 129 136 134 140 138 143 144 135 133 122 124 135 138 89 54 96 91 97 85 80 65 75 75 69 66 42 28 98 66 76 66 83 99 88 108 105 83 80 161 135 121 128 133 140 149 162 176 168 157 159 163 164 164 164 165 164 170 168 169 170 180 166 173 167 179 174 172 171 171 169 167 154 163 161 154 144 157 155 152 152 156 161 165 152 157 151 153 141 121 121 134 138 133 138 135 138 135 145 146 141 139 131 130 124 137 125 70 68 93 110 102 91 72 77 82 71 72 38 53 74 65 58 72 84 82 70 106 92 81 122 144 148 122 129 128 139 159 160 176 171 157 156 161 168 164 159 161 159 165 167 174 170 177 179 180 173 176 181 175 180 179 183 177 178 170 175 170 155 163 164 157 157 157 166 175 164 158 155 150 143 133 130 140 144 141 141 138 139 140 138 144 145 144 143 133 129 132 140 103 64 69 102 117 97 81 75 85 74 69 51 55 64 59 66 79 90 73 74 85 75 98 157 124 154 129 119 135 145 159 162 164 164 157 163 163 178 155 149 167 168 162 175 176 169 181 179 183 179 177 181 177 181 183 183 181 186 180 182 184 169 175 173 171 164 172 164 179 184 179 158 158 151 143 141 144 148 146 141 142 140 142 141 143 145 141 148 141 132 132 135 129 96 70 88 93 93 83 73 85 80 86 61 34 54 90 70 100 73 77 80 70 97 110 156 120 162 133 116 135 155 165 160 161 157 163 172 173 167 148 160 172 185 162 172 174 175 182 180 180 170 176 170 170 168 179 176 183 182 178 181 169 173 180 180 173 167 182 171 182 192 182 170 167 165 160 148 149 151 149 142 145 141 143 144 139 141 142 142 143 139 134 131 135 131 101 108 96 91 82 77 88 83 99 61 46 68 93 96 99 56 77 79 110 96 138 130 145 157 121 110 133 166 167 157 156 156 172 181 163 160 152 159 147 150 137 140 142 144 146 146 139 141 132 141 144 138 163 162 159 167 162 167 156 174 182 189 164 160 174 163 186 182 173 174 171 168 166 152 152 150 150 148 148 143 141 148 142 140 141 140 147 141 139 134 136 143 131 112 109 117 88 87 93 81 81 54 56 71 85 94 78 85 86 116 102 94 153 152 138 163 105 103 146 167 167 151 153 162 178 179 158 151 139 135 134 114 113 96 113 96 106 105 82 86 98 96 130 107 129 140 152 140 143 157 162 167 180 188 161 157 152 156 172 164 159 158 160 159 163 151 153 150 148 147 149 148 139 142 143 140 139 140 141 141 138 135 138 141 136 125 113 101 109 87 92 92 88 51 68 71 86 65 73 79 108 105 61 115 170 152 146 159 96 104 155 170 161 156 153 171 167 147 126 120 126 116 106 108 95 80 85 71 70 74 63 75 69 105 109 110 112 115 126 126 138 153 162 171 174 179 160 150 143 157 155 152 150 150 154 150 162 150 149 153 149 144 145 144 143 140 142 142 137 143 136 140 139 137 135 141 138 137 115 103 108 97 101 94 83 57 60 76 79 69 81 77 89 63 73 175 161 130 158 148 79 117 164 163 158 155 162 166 146 122 126 122 106 88 99 88 82 75 72 62 64 69 63 77 78 97 96 105 105 103 112 119 135 149 162 171 168 173 157 147 141 150 142 144 140 132 132 129 132 130 139 146 139 145 143 143 141 137 139 138 135 142 138 132 143 140 133 141 139 138 110 113 111 89 96 98 79 66 54 66 60 63 61 56 60 49 136 191 152 118 169 125 77 133 165 155 156 154 164 139 128 120 124 116 104 104 111 94 103 102 98 96 95 90 78 75 87 91 96 105 101 103 116 120 147 161 173 172 169 170 155 148 141 137 131 130 113 113 101 102 89 97 100 113 114 121 124 127 125 143 142 129 130 136 142 131 142 141 133 137 140 133 114 121 97 93 86 104 101 43 58 72 68 59 64 45 44 89 165 163 145 129 162 114 92 146 160 155 154 157 152 124 121 122 117 104 124 122 132 124 131 132 126 132 122 116 106 88 87 81 83 96 103 119 131 139 158 179 179 174 170 173 154 141 145 137 129 116 98 102 93 87 76 69 73 73 83 78 90 91 106 116 124 123 125 119 137 141 134 135 135 133 140 134 117 125 106 75 119 103 112 38 55 65 91 58 58 52 65 126 168 143 137 145 158 104 103 159 158 152 157 155 142 127 126 128 123 125 141 143 144 137 143 142 138 135 130 124 116 102 89 85 81 88 97 122 143 164 178 191 181 171 176 170 156 145 148 145 128 113 105 96 87 75 72 59 61 50 63 59 63 66 85 78 97 108 115 104 118 142 141 131 131 133 142 132 125 126 109 83 112 127 125 69 68 78 80 59 66 71 84 145 170 133 134 149 139 104 120 160 161 155 159 146 142 128 133 138 136 140 160 158 150 139 130 125 111 102 90 83 81 72 60 83 91 95 107 123 150 171 187 193 190 178 185 171 149 148 156 152 131 123 104 92 80 69 66 65 55 60 60 62 60 58 75 93 76 100 102 104 99 127 147 136 129 128 137 136 127 115 100 111 72 144 111 74 82 67 57 51 86 73 101 175 149 130 133 149 112 100 141 158 159 158 147 145 144 137 137 157 161 150 154 134 115 94 73 70 52 50 80 27 55 72 63 56 75 100 117 145 146 168 180 194 192 172 182 161 144 156 162 155 138 115 96 76 69 65 66 71 70 77 79 82 77 76 69 82 76 84 103 95 127 113 143 140 130 129 135 141 125 113 92 97 103 111 145 68 64 48 63 79 86 73 137 182 149 119 148 122 103 108 155 161 162 160 149 156 148 151 150 163 151 132 114 82 58 57 48 60 38 29 52 42 60 128 63 61 62 98 118 150 162 161 169 187 187 171 174 155 141 158 160 149 132 107 73 74 84 88 101 99 111 118 116 112 109 101 90 81 85 72 104 97 110 120 122 143 131 127 135 138 131 105 97 75 116 103 120 97 70 77 75 103 81 94 181 162 135 144 134 101 99 126 159 165 160 155 157 168 158 161 168 161 134 84 60 51 41 104 101 50 63 22 39 72 75 147 104 70 49 89 143 136 162 163 167 174 188 166 169 145 147 154 150 134 119 84 74 88 94 84 85 92 109 120 131 125 125 120 110 96 85 80 97 113 113 103 109 138 134 126 131 135 137 108 90 79 98 123 104 107 96 78 78 107 77 144 165 118 156 141 107 90 101 144 163 161 157 159 161 160 168 159 163 131 79 53 49 93 90 132 164 52 76 56 69 72 102 148 103 109 87 76 167 143 156 168 163 166 184 165 162 141 140 151 137 127 104 78 97 91 70 75 82 79 82 93 102 115 123 125 125 120 107 98 101 115 116 100 104 129 134 127 125 137 133 102 83 85 86 116 100 106 94 86 85 95 123 134 134 133 152 121 81 98 115 153 163 163 157 169 176 166 172 157 128 99 84 103 110 135 149 135 161 119 101 90 113 99 128 139 114 118 116 130 172 153 160 162 161 160 173 162 154 140 136 144 129 127 98 102 125 60 60 93 89 42 77 103 45 71 91 105 123 121 130 120 106 113 117 113 90 125 132 129 123 140 132 96 80 88 96 91 109 101 91 107 102 117 122 126 132 147 115 91 88 99 132 157 166 163 166 179 192 177 167 141 127 135 142 147 147 154 169 158 159 140 128 126 130 127 124 131 132 131 140 156 164 159 169 157 157 157 165 160 152 134 144 136 128 128 108 152 91 37 84 152 99 37 77 86 22 35 57 74 87 102 127 123 112 108 114 111 103 113 125 125 125 137 134 92 83 103 93 84 100 87 94 107 103 118 114 119 136 115 81 90 98 110 151 158 162 167 171 187 189 180 163 161 172 175 166 161 167 165 163 165 159 151 148 148 141 133 130 136 140 143 154 157 164 163 163 156 158 155 168 164 149 127 149 131 123 134 120 173 65 104 119 164 96 68 37 25 43 31 128 62 60 55 95 119 124 130 121 118 112 115 123 126 125 141 128 78 102 101 94 101 73 86 100 105 108 113 116 131 99 68 80 111 103 130 155 159 161 165 177 188 192 177 173 174 181 177 174 168 179 180 175 176 179 166 165 162 154 150 141 156 148 159 163 160 164 166 158 167 157 156 163 162 151 127 142 130 126 134 133 139 129 104 115 144 112 73 67 44 67 39 133 107 41 55 38 90 121 134 129 126 123 134 132 124 126 140 126 75 99 106 82 105 72 101 101 92 102 110 108 88 76 72 102 129 106 147 156 160 160 166 180 188 189 181 173 178 179 180 178 180 179 180 180 180 176 173 165 164 158 160 153 161 159 165 165 164 166 163 168 170 152 155 159 161 150 127 140 124 127 136 140 134 127 117 117 125 118 122 108 83 82 85 129 118 73 65 48 44 103 129 141 137 130 135 133 127 133 141 118 76 110 121 70 94 80 106 109 102 103 96 89 67 88 73 111 127 116 155 154 159 157 170 184 185 186 179 173 179 172 177 180 182 170 174 174 183 170 169 167 163 161 164 157 165 169 171 167 164 167 162 176 163 146 159 158 154 150 138 136 124 132 134 140 135 129 120 124 114 111 130 123 109 112 118 125 123 119 112 62 54 70 119 145 147 131 130 132 127 136 137 114 87 107 127 87 101 86 108 110 98 94 79 82 77 87 68 119 116 124 152 154 154 164 172 184 178 180 181 182 178 173 181 179 173 168 170 171 173 167 158 160 166 162 165 166 169 173 181 174 164 164 174 164 158 152 161 164 153 150 140 137 126 127 140 133 145 133 131 128 125 124 117 124 119 123 133 131 141 143 124 113 91 72 85 135 151 137 136 141 129 132 139 102 101 110 111 100 104 110 96 117 88 83 80 92 78 77 91 122 115 140 153 151 154 164 172 177 174 178 181 186 178 174 178 177 174 169 168 171 161 168 157 162 165 166 165 171 175 170 187 174 167 169 168 163 160 156 160 167 159 148 142 134 128 124 142 136 137 141 137 127 130 128 124 132 128 126 137 137 139 148 136 134 131 108 84 103 149 148 150 159 142 126 135 102 106 109 89 97 129 136 92 112 101 97 106 89 83 95 118 122 141 136 153 149 155 166 167 172 173 184 182 195 168 177 183 176 175 172 168 172 160 166 166 165 157 164 167 166 183 176 187 177 173 170 166 161 158 159 172 165 162 145 139 140 129 128 137 144 138 143 139 136 138 130 135 140 142 137 145 147 149 147 148 155 151 148 131 103 125 154 161 167 150 125 138 99 106 106 113 99 139 105 79 102 114 119 110 106 110 111 107 122 127 133 152 149 156 159 163 167 176 180 188 198 185 185 184 186 169 179 170 169 167 169 165 168 162 168 174 180 175 191 184 176 174 170 164 156 159 159 166 162 160 148 136 138 130 129 135 145 140 146 139 139 143 137 136 133 142 143 152 151 152 153 152 153 158 156 153 135 130 150 161 170 149 129 139 101 106 115 126 104 125 87 67 101 110 114 102 136 133 118 114 111 117 140 149 150 149 158 160 166 171 179 182 196 192 193 189 188 179 176 177 170 172 171 171 176 168 168 178 187 178 185 189 172 180 163 164 160 154 160 159 156 158 142 139 138 133 126 133 140 147 142 144 144 145 138 139 134 138 142 153 157 154 158 159 149 159 158 156 151 142 158 168 166 149 133 137 101 116 104 108 106 102 75 37 112 106 98 108 107 117 117 106 104 108 140 150 147 151 152 157 167 172 175 175 188 184 193 188 190 182 179 180 170 170 167 171 169 171 169 179 186 182 177 193 175 174 156 161 163 156 165 160 158 166 150 141 138 131 129 126 142 147 150 146 148 142 142 141 132 133 136 140 148 153 156 160 154 155 158 153 148 150 155 166 166 150 136 138 92 119 86 99 109 94 79 22 118 101 100 114 111 107 106 106 87 100 140 146 142 151 155 156 160 175 172 171 178 177 178 181 187 184 185 180 173 171 170 171 169 170 174 175 184 185 176 192 175 161 150 168 158 148 190 179 159 187 158 139 142 137 129 125 138 150 150 151 150 144 143 141 137 135 135 135 142 146 149 159 152 151 152 151 151 152 155 160 161 158 138 135 102 99 95 95 102 82 95 20 122 96 92 112 106 108 97 104 86 93 137 146 138 151 151 165 163 172 176 174 175 177 182 177 183 181 185 181 180 172 176 173 168 169 175 175 181 180 177 183 162 153 162 176 160 137 181 189 161 179 146 136 154 158 127 131 129 150 161 152 154 148 146 142 141 133 138 135 139 145 143 151 152 153 155 148 153 156 156 154 160 160 136 135 106 91 87 91 88 80 83 14 137 87 96 107 100 103 106 113 103 96 140 146 135 147 153 158 165 165 179 173 180 175 183 180 182 175 187 167 180 171 171 170 173 175 169 178 179 174 172 171 157 160 179 182 159 134 147 162 149 145 138 130 159 155 122 139 123 141 164 156 148 150 145 142 144 139 147 141 141 148 148 150 150 154 153 154 154 153 157 153 158 159 133 133 115 91 84 72 86 78 83 8 156 76 86 108 113 100 107 118 117 101 142 145 136 147 153 156 167 173 175 173 177 176 182 190 176 182 188 172 182 169 174 173 166 176 172 176 175 168 178 163 157 172 182 165 140 128 137 133 130 125 121 124 143 125 128 146 142 127 151 151 145 147 146 143 155 145 145 146 145 140 149 145 143 156 156 153 159 158 155 154 158 156 130 137 112 103 80 70 86 79 82 12 164 85 74 124 115 93 90 126 94 118 138 144 136 149 152 157 167 169 179 169 179 171 184 179 182 184 191 178 175 173 174 172 170 173 169 173 168 164 184 154 150 161 155 138 104 64 133 123 107 106 107 117 122 118 114 141 165 130 137 148 150 147 144 144 153 147 148 142 141 149 155 143 149 153 156 156 162 169 162 155 160 148 130 135 115 108 85 81 87 77 73 2 163 95 72 146 118 101 72 125 87 111 139 146 138 143 156 155 168 168 170 172 178 180 185 174 179 189 187 171 175 176 165 174 170 173 170 164 167 168 183 144 142 138 123 74 24 12 55 118 92 86 92 103 107 63 94 122 154 155 127 145 151 144 145 142 149 150 153 144 141 146 150 148 152 154 162 162 161 170 164 162 158 150 132 138 92 97 108 90 73 90 76 11 139 112 91 165 125 108 66 113 101 103 139 142 140 146 157 162 169 169 170 168 176 180 183 180 183 187 184 177 181 176 170 169 170 170 165 165 167 174 179 137 134 118 74 25 17 43 65 122 89 75 85 108 33 9 38 100 129 142 129 137 149 146 147 145 146 153 147 149 145 148 148 152 154 154 160 169 164 169 165 167 152 150 131 133 75 96 119 88 73 114 70 39 102 137 123 160 117 111 70 104 98 111 135 143 141 147 153 164 167 169 168 171 174 178 181 180 184 175 180 173 177 172 174 167 167 165 162 161 169 181 172 130 125 105 52 58 76 94 108 120 89 69 95 119 45 9 16 72 115 117 135 140 151 150 151 144 149 147 150 145 147 146 149 152 150 159 161 172 165 170 163 171 158 143 129 129 72 90 119 107 80 114 50 34 54 150 139 142 121 110 78 103 95 112 131 142 141 148 155 160 165 167 172 166 179 181 176 175 181 175 184 177 169 172 176 166 167 158 160 166 174 179 171 132 110 94 84 102 141 147 107 100 72 62 89 105 118 43 46 83 103 113 127 146 146 150 147 144 152 150 150 148 154 150 149 152 157 156 166 170 166 164 165 168 160 141 133 124 66 81 116 112 99 95 56 49 17 143 148 127 122 114 78 133 106 112 130 141 141 149 161 163 162 167 164 171 173 173 172 169 179 178 174 172 172 174 168 159 161 156 159 177 179 179 178 142 123 98 93 122 176 163 129 109 82 66 77 100 130 101 88 93 104 95 119 153 138 151 142 151 155 147 157 144 153 152 148 154 156 152 163 166 166 165 164 167 160 136 132 116 81 75 112 89 92 118 75 62 10 98 151 131 113 105 80 148 135 113 123 141 141 147 157 168 163 169 167 170 171 173 172 178 179 175 173 175 170 167 164 154 155 154 170 176 176 186 185 173 169 169 168 165 167 154 139 132 120 100 94 100 133 124 91 89 101 84 135 149 143 139 146 155 154 152 153 152 153 149 154 161 153 156 161 166 161 170 168 162 153 142 132 106 82 93 107 101 80 112 88 52 24 50 150 146 115 106 97 130 153 119 119 135 140 147 158 165 164 168 167 174 163 172 169 176 171 182 177 173 171 160 161 152 157 161 175 180 173 183 180 176 171 176 170 170 173 148 151 136 130 122 122 134 141 140 132 132 127 125 149 151 143 136 148 148 157 146 150 148 160 155 158 153 157 152 162 164 161 169 165 158 147 144 131 88 79 91 108 113 87 107 109 47 43 33 140 147 131 124 136 105 137 129 117 134 143 147 160 164 164 172 165 176 159 168 172 167 170 173 168 172 161 154 153 157 159 168 178 183 178 178 174 166 173 170 169 161 171 157 149 125 113 131 143 147 137 139 141 143 151 146 149 147 148 137 145 143 146 152 150 152 156 160 160 161 160 163 163 163 161 165 159 153 150 140 133 69 76 99 111 102 97 107 81 35 49 19 134 134 144 129 166 136 124 130 118 136 140 147 150 161 165 171 159 172 163 172 167 167 168 173 168 170 153 155 154 162 161 176 178 181 181 175 173 163 166 164 167 161 168 149 133 114 111 150 157 153 135 135 133 147 146 149 150 153 149 144 136 140 141 155 141 157 154 150 161 159 161 161 159 163 160 166 149 151 149 140 132 67 87 102 100 79 103 101 25 33 48 11 113 151 121 135 167 149 154 126 113 138 139 141 148 141 165 167 163 168 163 166 164 163 173 171 167 157 148 158 158 163 169 175 172 170 169 171 170 155 158 163 161 161 161 146 126 112 120 154 162 149 134 130 130 143 145 149 146 152 153 138 140 141 142 145 148 155 154 156 158 166 159 162 158 158 159 164 153 149 148 135 130 63 97 90 104 73 103 92 21 41 46 25 82 155 133 135 140 151 155 123 116 139 138 145 145 152 160 165 163 165 166 162 168 166 169 170 168 154 139 158 160 163 173 166 163 163 170 167 160 152 158 176 162 162 164 146 129 120 141 151 175 153 142 135 133 133 145 145 144 148 152 150 144 141 139 141 142 148 150 158 159 161 161 156 158 149 155 161 158 146 139 133 126 69 90 92 127 73 123 57 27 45 39 53 36 146 141 131 141 137 135 118 116 134 143 135 147 149 158 166 160 169 163 157 162 161 169 163 168 142 124 169 160 154 164 151 160 162 170 162 154 165 173 177 167 159 150 147 137 130 144 153 176 158 143 143 136 135 135 135 149 146 151 154 142 142 138 141 138 144 152 152 167 155 161 158 158 154 157 163 154 145 136 131 120 82 75 96 136 91 124 19 34 34 50 52 32 105 139 127 150 147 133 126 110 140 141 141 147 151 156 160 161 166 167 159 160 163 167 169 156 134 160 171 149 151 153 140 158 158 164 173 166 182 183 170 163 149 155 159 155 143 156 154 162 156 145 146 149 146 138 128 139 140 145 152 144 142 137 141 143 143 149 151 162 154 159 161 150 152 160 158 152 147 139 127 115 74 82 92 125 124 84 21 39 36 36 44 45 45 132 130 158 159 143 143 108 133 143 140 148 152 156 154 160 162 167 155 159 168 170 160 142 167 175 155 150 144 141 141 156 162 169 171 169 170 151 124 110 113 111 118 132 137 143 135 136 125 126 144 154 154 152 141 140 142 145 147 143 139 142 138 141 142 145 150 163 156 162 163 150 153 158 164 145 144 132 121 123 51 81 79 125 122 33 31 37 37 37 33 41 32 69 138 151 161 144 146 113 131 138 143 145 149 152 147 156 163 165 155 158 168 166 155 161 170 164 146 144 148 142 147 156 168 171 150 133 116 103 87 74 76 84 80 83 93 101 96 90 91 90 103 127 146 155 154 153 147 140 143 143 132 140 141 138 147 142 146 161 156 157 159 147 152 155 158 138 138 125 123 121 50 65 84 133 75 24 30 33 41 36 36 38 41 15 128 137 141 138 140 120 122 138 145 142 149 151 143 154 157 158 151 158 162 155 159 158 166 154 129 149 142 148 152 154 159 134 101 85 73 64 59 45 46 57 56 58 63 63 73 60 67 65 78 83 103 129 149 164 146 137 151 141 132 140 141 139 147 142 146 159 153 161 156 145 151 154 154 137 131 124 124 110 89 66 104 128 34 27 24 47 39 36 38 36 44 20 59 127 124 120 119 113 126 134 137 148 147 152 139 153 152 155 154 158 157 153 160 159 159 148 129 145 139 143 136 133 120 89 71 68 43 41 45 36 46 52 55 44 44 46 47 42 44 41 52 49 71 87 118 145 150 138 153 132 132 138 134 142 141 142 145 154 154 156 153 147 151 153 145 130 128 123 115 104 123 99 119 102 19 29 33 44 40 41 36 41 37 33 24 67 102 108 96 100 131 131 135 144 149 153 145 150 149 156 156 158 157 152 157 156 155 148 142 145 138 123 102 89 68 57 54 50 19 35 42 43 56 67 65 66 39 52 57 51 51 37 40 37 48 62 83 107 133 131 142 133 139 139 131 140 144 139 153 152 149 156 150 150 148 144 141 126 123 124 109 110 132 126 123 70 20 37 36 41 38 36 39 41 37 37 32 42 41 62 54 61 138 133 137 140 142 150 148 145 151 151 153 159 160 156 161 156 157 135 130 134 118 101 74 58 29 25 19 13 20 29 29 30 38 54 60 62 43 32 45 52 50 35 30 30 24 41 57 72 95 111 127 130 141 135 132 139 145 148 145 153 149 155 146 148 148 142 144 122 126 125 102 122 127 114 126 37 23 35 36 34 41 34 41 34 40 35 40 47 49 40 45 38 132 131 135 139 133 150 147 148 146 155 151 152 154 162 157 157 152 120 126 118 116 120 132 142 105 94 95 85 84 116 93 84 73 50 52 36 29 30 33 33 35 34 29 27 18 17 31 49 53 79 105 123 127 139 122 135 147 152 148 155 150 158 147 142 144 146 136 127 125 121 101 123 127 120 104 26 28 30 34 32 38 37 35 36 36 40 39 38 49 46 46 28 125 130 136 133 134 145 150 148 148 151 155 153 161 159 156 155 154 126 121 119 137 148 161 168 156 130 132 133 136 142 150 133 142 130 130 111 105 107 109 104 108 94 75 95 56 43 38 46 51 68 92 107 123 138 120 134 145 151 150 152 154 159 143 145 140 146 128 129 123 116 103 129 119 124 61 26 27 32 31 33 36 36 36 37 38 35 36 43 45 51 58 31 109 129 133 128 132 142 146 140 155 150 158 155 156 153 162 155 150 117 128 133 147 161 165 165 166 155 147 132 140 133 139 137 131 136 135 127 126 135 139 129 135 123 124 128 119 112 100 98 104 122 108 105 109 128 125 134 146 148 156 153 152 158 141 146 140 139 126 123 120 114 102 118 123 104 22 26 29 29 29 36 32 39 37 35 37 38 34 41 39 46 55 27 106 129 129 127 131 146 140 143 152 151 154 153 157 152 155 156 141 122 132 143 156 166 163 166 162 158 160 148 142 140 130 130 122 128 126 131 119 133 139 119 121 124 118 121 126 118 111 116 133 145 138 118 105 112 124 138 146 147 146 158 151 152 142 143 140 137 129 121 117 110 103 114 131 67 16 32 26 32 27 30 33 38 37 36 36 44 32 37 39 43 36 24 107 125 129 129 131 137 144 139 144 148 150 151 159 158 148 148 138 129 136 143 160 156 161 162 155 157 155 145 146 154 146 138 136 133 125 136 130 131 126 120 121 115 125 120 128 124 130 134 145 147 145 141 114 117 124 138 147 147 145 160 142 141 144 142 138 140 128 114 116 104 116 126 130 40 22 29 34 26 32 30 35 38 36 36 37 34 36 34 40 40 54 19 115 122 127 124 131 131 144 142 139 150 147 151 153 149 147 149 140 131 140 150 145 155 157 154 143 145 147 134 139 134 132 124 127 125 123 122 134 127 122 118 125 125 134 126 137 132 133 134 135 147 147 144 138 119 117 137 145 140 147 152 153 141 149 141 142 125 124 108 116 102 107 123 105 11 31 30 31 29 34 30 34 37 37 35 37 38 38 32 40 48 29 44 116 115 126 122 122 133 139 144 140 146 142 145 148 148 143 143 134 138 142 142 141 145 149 148 147 142 144 126 132 126 118 105 100 88 83 93 104 92 99 99 105 116 118 122 127 123 128 125 133 143 144 145 147 128 121 134 144 142 147 155 150 150 143 136 134 128 114 108 115 97 107 97 35 22 31 30 32 29 33 26 41 33 38 33 35 36 38 40 34 41 38 49 115 115 121 126 124 137 136 142 143 134 149 143 141 144 143 139 136 136 136 137 136 146 144 147 151 144 143 140 133 126 115 96 90 66 64 62 68 67 76 82 88 99 108 113 113 120 131 132 138 137 142 148 139 138 122 127 139 141 145 144 150 152 139 133 131 122 111 112 113 52 51 35 29 30 29 30 31 30 29 31 33 36 35 39 35 33 36 37 36 30 41 69 115 113 122 122 135 132 140 139 144 132 143 142 142 137 142 137 135 134 137 133 141 141 142 146 153 146 145 144 141 129 116 111 100 89 78 67 64 72 79 78 85 96 106 113 115 127 135 133 135 140 140 140 138 135 133 120 137 144 136 144 146 145 130 133 128 117 110 120 90 19 26 30 29 26 35 28 32 29 32 37 34 35 38 35 34 35 39 30 40 34 41 72 116 117 119 117 136 131 134 140 135 136 143 139 143 139 138 136 130 133 143 138 145 137 144 145 150 144 146 141 144 134 128 118 117 106 103 90 91 81 92 89 106 105 113 118 123 124 138 135 138 132 136 139 137 130 143 120 133 147 134 133 144 136 131 129 122 114 104 130 44 17 29 32 30 29 29 30 31 29 31 35 34 36 36 33 37 36 36 33 36 43 20 84 119 117 118 118 135 134 138 134 132 134 142 136 143 138 134 139 134 147 133 147 141 139 148 150 149 152 146 137 144 134 133 128 121 124 114 114 110 103 104 107 110 115 116 121 122 127 134 138 142 129 131 136 139 135 142 129 125 138 136 132 136 135 128 125 118 110 118 103 16 28 29 31 29 26 32 28 29 33 31 31 36 37 32 36 37 39 30 39 34 37 19 98 115 119 114 122 128 130 140 127 138 133 139 136 136 129 135 142 138 144 143 145 158 150 147 153 147 155 149 141 150 135 141 134 138 138 144 147 143 140 135 117 118 121 124 124 122 122 134 134 143 136 134 137 136 143 143 132 133 125 130 131 136 129 124 116 120 108 131 47 17 28 33 30 29 28 32 28 30 32 29 31 37 33 35 37 33 40 33 38 39 30 23 109 113 116 116 119 125 132 134 132 132 137 132 133 135 139 135 134 135 139 137 147 157 151 148 152 153 155 156 154 144 142 144 142 150 141 152 152 147 149 143 137 130 126 127 127 127 125 136 135 131 137 138 137 142 143 141 138 130 129 126 128 134 123 124 118 113 114 124 13 28 27 31 30 28 31 30 32 29 30 31 31 35 36 40 34 36 38 31 36 36 32 29 115 115 115 118 119 126 130 133 133 137 132 134 134 123 137 124 133 130 133 125 144 151 153 156 149 162 156 154 154 156 160 163 160 160 159 160 153 155 153 157 155 147 138 137 140 131 136 137 140 135 138 134 135 139 135 137 134 134 129 125 127 125 121 119 117 116 125 57 23 28 30 33 30 27 27 32 28 32 30 30 29 38 35 39 35 35 36 34 36 33 33 24 121 114 117 120 120 126 123 133 128 131 127 131 138 128 127 125 133 127 127 133 145 151 144 150 148 155 157 156 164 164 168 168 167 163 162 162 158 160 157 160 157 155 149 146 145 143 142 148 143 146 134 137 142 140 135 134 130 130 130 122 130 121 123 115 117 120 107 14 29 33 29 30 27 30 28 29 30 33 29 32 33 36 34 39 37 36 35 32 37 35 29 31 122 115 117 120 123 125 124 124 135 127 128 127 133 129 123 126 122 131 127 129 135 148 144 148 151 150 155 161 164 168 161 168 164 162 164 152 158 159 160 156 152 146 149 144 144 145 143 143 147 142 135 136 143 143 129 127 128 134 129 121 127 120 120 117 115 120 59 18 30 29 28 29 31 31 29 29 35 29 29 32 32 39 35 36 36 35 32 33 39 34 32 29 117 120 118 118 123 124 124 123 127 130 133 127 127 124 131 128 120 128 123 131 140 137 136 143 150 150 154 165 155 158 160 159 157 157 160 152 150 149 153 153 145 132 148 141 143 147 141 145 146 145 139 140 137 139 122 123 113 129 121 119 126 119 112 117 114 110 24 30 29 31 29 26 31 29 31 29 32 28 30 33 34 35 33 38 34 31 37 33 35 33 26 41 120 117 121 124 122 124 122 122 128 131 126 127 128 118 122 133 118 122 120 124 137 131 132 139 142 152 143 147 154 145 155 155 149 147 143 143 139 137 143 137 139 128 143 136 138 141 139 145 142 141 141 143 136 133 121 116 111 121 121 118 126 114 121 115 117 71 13 30 31 29 31 31 32 26 28 33 27 30 30 33 32 34 36 38 35 32 33 37 29 22 89 129 97 121 120 122 123 125 119 121 124 127 127 123 119 126 112 119 108 122 116 122 129 127 124 133 135 133 120 137 142 143 137 134 136 136 134 126 127 129 127 123 126 119 132 123 133 128 131 140 128 138 135 140 127 124 120 108 112 121 114 119 114 118 121 110 119 33 27 28 31 29 28 29 30 29 31 28 31 31 32 33 32 30 40 32 36 37 36 24 25 144 144 72 106 117 119 125 122 127 124 118 124 126 120 125 115 126 115 116 118 116 116 116 119 118 125 129 126 131 117 123 142 141 127 125 132 123 123 125 114 117 114 118 111 119 110 118 121 125 120 129 136 125 124 129 117 116 106 108 112 114 119 115 118 116 116 113 96 13 32 31 25 33 24 28 28 26 30 31 32 30 33 30 32 32 33 38 36 36 31 15 146 194 95 44 114 116 122 126 126 125 123 120 118 127 120 124 122 121 116 124 120 110 109 112 106 116 115 124 118 126 124 114 122 129 122 119 117 118 111 111 108 108 109 109 112 104 108 111 112 119 115 119 122 124 114 118 111 108 108 107 109 114 115 113 113 117 111 122 61 22 31 26 29 28 26 32 24 34 29 27 31 31 31 29 34 34 32 37 34 34 18 104 225 154 86 27 119 116 122 129 129 124 120 121 114 116 124 121 119 116 117 119 115 117 108 109 104 106 105 116 114 120 116 106 113 112 118 108 106 109 97 105 98 94 101 96 96 107 101 107 107 111 108 113 108 117 109 110 104 105 104 103 111 114 108 116 115 116 111 117 27 23 29 27 33 25 30 29 26 30 30 28 31 32 31 33 33 34 34 37 32 28 52 218 200 136 87 28 118 115 122 128 124 125 122 119 112 113 116 123 117 111 121 115 115 117 109 118 106 103 98 104 111 111 106 105 106 104 107 101 98 99 89 96 94 91 92 87 88 98 97 99 102 100 105 108 99 108 106 101 103 105 97 106 110 109 106 114 117 113 117 94 14 27 30 27 32 26 29 29 28 30 30 31 29 27 33 35 32 37 34 34 40 14 151 230 175 136 90 29 120 116 116 129 122 127 123 120 115 114 113 114 118 113 115 115 107 111 111 110 111 98 90 93 106 103 98 100 96 93 95 93 89 89 89 82 87 91 82 84 84 89 87 93 95 94 98 97 99 103 101 101 103 100 97 104 102 110 109 115 117 109 127 69 17 31 28 31 27 31 31 26 29 26 33 28 32 30 33 35 33 32 34 30 26 46 219 226 166 138 104 22 120 113 119 122 126 125 126 114 122 116 113 117 108 118 110 116 111 110 108 105 108 100 90 84 98 94 91 89 92 82 86 85 81 84 76 77 78 76 76 80 79 79 87 82 86 88 93 95 95 99 96 92 99 95 101 102 101 111 110 118 115 112 130 30 18 31 30 28 29 28 31 26 29 31 25 31 28 33 34 33 38 46 49 79 125 174 218 214 184 149 112 23 122 115 118 122 124 128 122 121 118 118 108 118 105 112 108 113 106 103 99 103 102 99 99 86 82 85 81 85 83 80 83 81 81 77 75 78 77 70 76 73 76 73 81 72 79 84 86 88 93 92 93 96 95 95 100 108 105 110 115 118 114 117 113 62 41 20 28 30 26 29 31 28 30 26 27 30 33 29 34 35 35 176 184 191 186 202 209 208 185 164 124 22 117 115 124 123 122 124 127 124 116 121 114 113 110 115 105 105 105 108 95 105 95 100 99 91 85 84 77 78 77 79 78 78 76 78 80 75 77 75 74 72 77 74 74 74 75 76 78 84 86 84 95 93 100 94 105 100 110 108 118 115 114 122 88 54 89 81 36 22 30 28 31 29 23 31 31 31 34 29 35 34 34 195 197 196 190 207 215 185 188 167 144 27 93 122 124 126 122 124 127 127 118 121 118 117 109 116 108 106 105 102 101 102 100 97 89 91 86 87 74 75 70 79 70 77 78 79 76 74 79 76 74 69 73 76 73 70 73 77 76 78 87 89 91 90 97 97 106 105 105 113 117 114 114 127 60 50 65 73 110 68 24 27 31 26 30 29 28 29 33 35 36 33 37 197 202 197 198 210 218 172 190 171 176 48 61 127 123 128 127 127 127 125 121 122 117 114 116 112 113 105 105 106 106 94 103 96 91 90 86 89 76 74 70 73 69 72 75 71 73 76 74 78 70 76 72 67 78 72 74 77 78 83 89 90 92 93 93 101 106 110 106 114 118 116 118 117 36 63 61 64 68 112 109 35 26 27 28 32 26 33 31 38 36 33 35 192 197 198 207 210 214 173 160 185 199 106 32 115 127 129 129 127 125 125 125 121 115 115 114 105 114 104 101 109 107 100 103 93 92 88 91 81 76 78 74 73 73 69 73 68 72 76 68 72 68 74 73 72 77 75 77 79 82 90 88 91 96 94 97 100 106 106 112 114 116 114 125 89 33 59 62 67 65 90 123 148 72 20 27 27 31 32 35 35 36 34 36 184 193 204 211 211 206 167 173 164 200 174 31 83 133 126 131 132 125 127 126 122 117 117 111 100 111 107 101 109 103 107 103 98 93 93 90 86 85 79 83 79 74 70 72 76 67 70 73 71 65 74 73 72 81 82 78 83 88 94 91 100 95 100 100 104 106 103 114 113 117 111 131 55 32 56 63 66 75 92 121 164 183 127 36 23 30 29 36 34 36 35 37 190 202 208 211 213 191 183 170 172 167 208 85 39 131 130 129 131 125 123 129 119 123 114 112 103 105 105 104 105 101 104 96 101 91 88 90 87 84 81 79 77 79 78 74 75 70 74 75 69 69 74 74 77 81 88 79 86 89 91 95 102 97 102 99 109 104 111 114 113 116 112 131 34 33 50 58 71 87 100 143 169 174 185 184 53 16 33 36 36 36 35 39 