P2
92
112
255
39 40 38 41 41 37 41 42 36 42 40 42 41 44 39 40 41 42 40 41 44 38 33 52 64 44 50 38 42 74 59 42 45 45 50 59 43 27 33 21 28 41 40 25 22 32 39 35 39 41 40 37 38 43 31 35 42 42 36 35 47 44 59 50 54 61 41 60 71 60 51 57 60 54 53 48 54 59 55 39 42 35 41 36 40 37 37 38 38 34 41 31 36 39 39 36 39 40 37 41 41 40 43 40 44 40 40 39 44 38 43 45 39 34 41 50 45 48 46 55 63 56 43 38 41 55 47 48 41 28 28 32 30 45 41 29 34 42 58 61 54 54 52 44 44 46 33 43 38 44 36 41 41 54 53 38 70 55 37 54 67 67 54 53 61 45 46 50 49 67 69 64 39 37 37 37 37 36 38 36 40 33 39 33 39 40 36 39 38 40 39 42 39 42 40 39 43 43 40 40 43 43 46 46 35 39 46 37 51 60 64 63 45 31 51 44 44 51 45 43 48 31 36 36 49 43 46 54 60 79 75 83 79 72 57 66 61 61 47 40 37 41 38 52 35 60 46 60 59 56 66 52 71 47 56 50 62 58 50 46 49 48 70 73 47 36 35 38 32 42 37 36 36 38 38 34 41 38 38 40 39 39 45 38 41 38 43 38 45 38 43 42 41 42 44 50 42 59 57 37 62 66 68 53 33 42 41 56 47 51 54 40 52 48 50 44 66 56 55 74 75 90 91 85 76 75 63 62 58 62 56 47 52 48 40 46 47 53 56 54 42 69 78 67 64 69 42 42 51 59 57 52 54 56 57 57 45 42 31 41 34 40 37 36 37 40 38 37 40 38 39 42 38 44 38 40 41 39 38 43 41 43 39 44 42 42 43 50 57 68 50 44 50 63 50 44 46 50 60 56 59 66 44 46 54 64 60 56 74 76 81 97 92 91 96 75 69 60 56 56 60 71 60 74 61 66 51 46 63 40 63 42 48 72 60 55 74 65 58 38 40 64 53 55 71 61 54 64 52 39 36 41 35 38 37 37 36 39 36 38 41 40 38 41 38 44 39 41 41 38 39 45 40 39 44 41 41 45 54 50 56 70 45 46 56 61 52 45 55 60 50 55 70 57 45 48 56 85 64 63 87 87 96 107 100 97 70 72 61 54 58 60 70 69 58 66 66 73 70 53 65 41 71 50 54 63 53 65 80 65 75 53 51 65 47 53 65 55 61 53 50 49 41 40 40 43 37 36 37 40 37 36 41 38 38 40 37 39 43 35 44 39 39 41 42 42 41 48 54 45 64 49 54 57 77 58 73 59 53 45 54 62 49 69 68 61 47 56 59 80 66 77 75 87 100 99 90 95 60 72 66 83 86 71 64 54 63 63 56 74 75 78 52 49 64 64 53 61 56 82 64 61 87 78 71 40 44 56 71 53 55 47 44 39 48 35 43 38 35 37 38 36 40 37 43 41 41 39 40 43 43 33 44 42 39 44 41 41 48 53 43 58 55 56 68 70 112 50 77 65 53 41 49 50 56 51 51 68 57 66 71 85 79 78 84 85 99 84 89 92 91 90 84 91 83 68 54 55 47 63 58 77 78 76 68 47 49 83 55 52 53 84 64 62 84 67 75 72 41 72 62 45 61 45 41 41 41 38 44 35 42 42 35 39 36 39 37 43 41 42 38 43 39 42 36 45 36 44 42 54 46 44 65 66 60 83 90 69 119 60 82 61 39 44 51 43 51 67 57 74 69 71 65 103 91 94 90 80 98 88 83 100 97 87 90 83 71 61 74 53 63 50 52 83 69 85 73 48 51 79 74 46 60 66 55 74 75 82 85 59 56 78 68 48 49 47 42 49 40 41 38 44 39 39 37 43 36 37 41 42 37 42 37 43 39 42 38 44 38 57 58 56 37 57 62 79 97 106 79 64 123 47 68 67 39 52 63 34 45 88 71 80 78 79 71 121 123 88 100 86 84 94 93 104 106 93 97 88 81 74 92 77 68 48 53 78 79 89 65 65 60 74 69 65 64 64 75 66 66 70 88 87 70 66 77 46 49 42 49 50 50 47 48 46 39 38 41 39 39 38 44 42 38 44 39 42 42 40 37 57 56 65 52 44 49 66 80 107 103 96 69 67 114 58 52 73 48 66 65 34 49 89 91 80 88 83 86 130 116 94 106 102 86 96 113 100 100 92 101 105 106 99 102 102 89 81 58 76 83 81 75 72 67 76 64 76 75 74 69 71 66 67 74 72 84 85 70 40 53 60 50 49 55 52 53 51 44 45 42 36 40 40 45 37 41 44 38 44 35 44 51 76 61 58 48 44 56 89 103 96 82 92 67 79 103 76 77 67 56 74 69 39 63 88 108 87 98 93 92 114 109 100 115 106 95 112 118 102 112 98 97 109 117 120 111 111 106 101 77 79 80 79 89 73 68 73 64 79 79 76 74 71 74 68 94 87 65 75 58 60 64 59 43 49 54 53 43 51 47 44 42 39 43 37 44 39 40 43 43 42 48 54 77 69 49 52 58 60 77 92 83 71 78 80 114 59 107 80 82 73 63 79 79 54 66 92 109 108 100 103 99 104 102 98 108 92 112 128 113 118 107 91 109 125 124 127 110 129 108 112 93 94 85 86 87 64 76 70 69 81 84 90 83 88 82 64 104 98 63 57 60 61 82 79 55 53 50 55 50 60 53 46 49 41 41 43 47 42 39 45 40 44 59 85 70 43 58 76 70 69 83 87 66 64 69 146 93 59 111 85 84 84 76 87 88 61 77 93 107 108 101 114 85 122 92 94 93 96 120 130 118 114 117 91 120 128 137 135 125 131 129 109 108 101 86 90 91 72 87 72 87 78 93 103 87 115 96 63 113 94 62 52 67 45 72 68 81 70 35 58 57 58 61 51 54 48 41 45 36 50 41 44 42 60 89 71 37 65 91 106 62 68 100 88 61 50 104 153 50 75 129 89 89 91 95 85 99 72 72 106 106 107 98 117 100 116 113 103 113 100 123 138 127 113 114 97 112 135 132 147 130 124 124 110 109 100 90 101 91 89 84 82 94 93 90 109 95 101 97 74 128 73 51 59 57 57 49 61 68 75 55 45 53 48 57 52 54 50 46 49 41 42 53 38 60 76 78 29 65 78 77 80 49 94 114 80 73 49 122 91 66 97 103 107 96 104 101 101 104 87 69 113 113 115 109 106 114 114 104 111 119 106 130 138 136 122 108 99 108 130 138 130 126 146 139 135 124 102 99 100 92 104 88 92 95 99 102 104 73 90 77 90 99 55 45 85 76 70 37 72 66 47 71 45 50 47 52 54 54 46 45 45 42 46 43 54 55 77 46 46 95 69 68 59 71 109 94 86 62 80 92 91 95 98 96 119 111 117 113 115 99 107 73 112 111 115 111 110 115 110 106 96 126 108 131 139 131 127 114 102 103 132 139 134 135 144 151 139 133 94 88 105 103 115 98 94 99 93 119 89 73 85 82 101 101 66 55 96 89 59 48 64 69 47 44 54 41 52 55 62 56 44 48 55 54 42 38 51 57 57 64 94 76 53 66 94 96 102 87 80 64 105 86 101 104 81 116 114 117 123 130 123 96 116 81 105 122 114 108 110 112 113 98 82 121 114 134 148 137 129 124 109 119 137 134 132 128 138 137 138 130 78 82 102 114 132 97 106 97 107 97 65 79 103 97 96 104 73 68 97 86 52 55 69 79 40 50 46 41 50 53 59 59 52 53 50 46 34 38 53 61 49 94 81 51 55 126 135 105 84 98 67 88 112 95 106 107 71 133 113 111 143 133 121 107 113 97 105 122 115 117 108 113 122 114 60 113 118 136 152 142 137 127 123 132 137 130 134 126 132 135 136 131 71 85 92 128 144 99 108 104 116 67 77 79 100 105 97 98 73 89 93 78 67 65 85 72 32 59 45 43 53 54 57 56 53 54 54 41 34 35 74 66 81 75 54 67 107 146 139 87 75 102 64 98 112 99 123 108 78 134 116 127 143 126 131 119 99 108 106 105 117 119 110 119 129 116 63 103 127 142 154 154 150 129 132 137 142 137 135 128 134 137 131 128 83 77 88 130 152 96 99 116 120 64 68 74 67 94 99 94 76 92 74 80 88 90 100 54 51 42 51 48 49 55 59 54 52 56 56 43 43 30 96 76 69 55 86 101 120 163 115 78 64 112 66 113 98 115 140 100 84 136 125 140 124 140 132 119 94 105 110 89 120 117 110 113 115 111 66 106 149 156 162 157 157 127 134 142 145 140 136 126 137 134 132 121 83 82 78 133 131 107 97 122 129 67 64 69 67 79 95 108 79 95 65 93 89 113 97 49 63 39 43 48 47 52 59 52 51 58 65 46 48 36 74 83 58 73 103 91 139 172 94 80 85 107 90 104 96 129 140 109 86 131 120 140 142 140 120 112 105 109 103 89 91 101 111 120 111 82 76 122 140 154 161 159 161 131 133 152 147 145 136 137 139 134 134 117 96 101 101 126 117 117 94 118 138 80 62 85 84 87 99 120 103 95 69 112 78 116 88 43 65 40 41 49 48 55 54 60 69 73 78 46 44 42 68 81 69 95 77 119 179 137 90 92 114 110 127 90 130 136 128 136 104 123 136 150 153 137 125 125 111 108 104 92 89 82 87 94 94 68 99 119 129 142 141 145 147 135 137 154 151 155 142 144 142 139 136 123 121 126 119 128 99 117 91 121 134 109 58 104 96 112 116 123 127 100 84 102 82 100 83 47 58 43 47 43 41 44 52 57 77 69 76 41 40 52 79 85 89 74 86 148 158 109 72 125 131 108 154 83 137 129 124 134 118 112 139 144 143 146 147 126 124 101 104 99 103 96 89 92 89 76 98 115 131 139 139 135 142 133 138 131 142 142 149 145 147 152 149 141 148 143 136 118 101 115 94 121 137 131 87 55 91 112 133 123 132 120 93 99 87 88 83 59 55 69 65 44 51 53 46 68 62 58 66 46 39 54 83 84 83 53 116 153 145 84 86 135 114 118 134 99 122 123 134 143 141 118 129 143 152 162 152 128 132 106 119 122 121 118 123 119 116 112 124 132 137 145 138 137 136 144 141 139 143 141 146 149 139 151 151 144 149 149 147 105 110 117 93 118 149 138 121 82 49 71 119 126 129 126 116 89 92 70 84 64 61 72 68 63 52 47 57 68 66 54 66 45 37 62 93 68 68 91 125 144 121 97 96 123 111 137 117 111 128 137 128 161 151 145 151 150 154 161 156 138 129 130 137 140 152 148 152 146 142 147 144 150 148 148 142 146 142 144 148 149 145 148 151 154 148 150 148 146 151 148 147 110 113 111 100 111 150 139 137 120 96 82 80 103 115 122 119 108 83 74 68 75 61 70 73 73 74 70 68 70 72 73 76 48 46 74 90 74 60 108 121 117 105 119 104 100 130 137 113 125 134 143 142 168 156 164 169 154 157 159 166 153 147 148 146 150 159 154 158 150 145 150 150 153 147 155 156 156 149 146 149 151 148 150 151 153 157 155 153 149 153 151 146 119 120 108 99 115 136 144 138 138 126 123 109 98 97 103 113 114 84 67 59 81 69 63 71 68 77 75 72 69 73 77 83 45 52 76 85 72 64 97 113 106 120 104 97 97 156 114 131 128 142 139 160 165 160 171 164 162 164 165 175 167 160 158 154 159 163 159 160 153 158 162 157 155 148 148 152 155 154 154 151 149 150 149 154 155 162 155 158 152 151 154 144 135 116 109 110 113 137 131 138 137 139 136 133 122 110 121 132 123 122 74 45 89 91 82 75 62 71 73 73 66 65 64 71 50 34 97 71 71 72 83 99 89 127 84 82 130 152 119 127 134 139 139 162 166 168 158 162 166 167 166 167 173 165 163 169 163 174 170 165 165 171 174 167 158 156 147 153 150 157 152 152 150 152 152 155 153 160 153 160 156 151 154 148 137 114 110 122 122 137 137 132 136 139 142 140 135 129 125 127 135 141 109 50 71 99 96 97 80 84 66 75 69 73 52 77 38 47 75 68 61 78 84 82 89 120 80 85 153 137 133 125 124 135 151 162 182 169 157 163 161 169 166 168 168 167 170 167 167 179 172 167 169 175 177 173 168 168 163 165 153 159 163 156 146 151 155 153 151 158 158 160 158 157 153 153 142 116 118 130 137 131 140 135 137 138 142 147 138 135 136 126 129 140 135 91 56 92 95 107 99 79 78 76 78 68 76 79 47 56 63 61 60 83 83 61 97 76 93 109 143 147 134 130 121 139 160 157 183 170 158 158 165 168 163 163 160 164 166 173 172 180 181 185 170 182 178 179 174 181 182 180 180 165 175 168 157 159 164 158 159 160 163 176 162 155 157 153 148 127 122 138 143 138 140 141 142 137 143 143 147 139 140 133 136 132 142 126 71 66 81 121 114 90 86 76 93 61 78 89 59 23 77 68 82 83 80 70 78 64 105 139 134 161 136 118 123 147 162 162 166 161 159 165 170 172 146 156 174 164 172 180 173 178 180 187 183 177 180 179 178 183 181 188 184 178 186 185 174 169 174 173 163 169 168 176 182 176 158 158 146 137 131 144 147 146 141 141 143 141 142 145 146 144 146 140 136 131 141 137 112 68 65 98 108 99 80 81 87 82 82 111 51 43 85 87 98 79 59 89 70 101 112 146 128 164 139 110 123 155 169 157 162 157 168 170 172 159 149 170 186 173 170 179 176 181 183 186 177 176 176 171 172 177 177 186 182 185 182 182 178 177 182 183 170 185 176 175 196 189 173 166 167 155 148 147 149 151 143 141 145 141 144 142 144 144 143 142 138 134 140 138 133 109 93 97 91 86 76 79 88 94 107 100 56 48 81 86 94 74 73 88 113 83 132 146 130 164 128 99 128 162 166 156 159 158 178 174 162 153 163 151 154 147 143 148 148 152 158 150 149 145 148 152 141 162 168 167 171 170 174 169 167 182 188 179 163 183 173 185 192 184 180 178 173 172 158 150 153 153 145 149 144 142 148 142 146 143 145 143 139 138 141 140 140 140 118 114 104 116 74 88 96 81 85 76 56 64 83 81 69 77 93 112 97 72 154 170 130 172 114 90 142 168 162 155 154 162 183 162 158 137 145 134 131 111 107 110 105 109 112 95 94 105 101 129 113 134 148 150 150 152 159 158 168 179 191 173 162 166 158 180 176 170 167 167 173 166 162 151 154 148 150 149 148 143 144 145 142 143 142 144 145 140 143 137 146 143 134 116 116 107 100 78 96 90 84 101 59 60 85 75 69 81 91 93 44 117 167 158 131 176 96 91 153 169 160 155 157 171 158 134 124 120 130 108 109 101 82 89 76 74 76 66 70 72 101 109 111 113 121 132 131 140 153 161 163 176 178 168 156 148 159 166 154 158 154 155 160 163 155 149 155 151 148 146 148 144 140 146 139 144 141 140 142 141 143 138 143 144 142 127 116 104 104 95 94 97 86 104 69 57 66 67 63 70 61 54 68 184 178 128 153 152 78 108 167 160 159 152 167 157 134 121 124 111 100 91 100 79 77 72 60 61 62 62 69 75 89 100 102 108 103 114 117 134 148 161 169 168 173 161 152 136 157 153 148 146 146 141 143 150 139 146 152 148 141 145 146 144 142 140 143 137 144 140 134 145 146 139 144 144 142 128 113 113 102 92 90 104 74 103 43 57 74 60 65 64 55 29 143 171 163 118 158 132 75 131 162 155 152 158 156 128 124 120 125 106 102 112 93 100 99 91 90 91 86 77 73 85 92 94 102 107 96 117 111 142 155 166 170 165 172 157 155 136 148 140 137 128 122 115 107 104 106 114 125 126 129 134 136 137 143 141 138 131 137 147 134 139 151 138 140 140 143 131 116 118 91 96 86 105 99 86 42 54 72 82 55 55 56 73 156 157 146 136 152 123 85 146 160 155 155 161 141 120 121 122 104 115 123 125 126 127 128 129 126 126 115 106 90 84 85 84 100 107 111 126 129 153 170 177 180 167 173 159 146 142 136 133 119 105 108 94 86 83 79 76 83 91 89 97 102 112 123 133 128 131 124 139 145 134 143 138 141 140 145 130 110 129 93 87 115 100 109 93 67 69 78 75 52 69 69 105 170 147 139 140 151 113 96 159 160 153 159 149 138 124 127 129 119 134 143 144 139 141 141 140 133 135 123 115 104 89 81 78 88 98 119 138 153 167 187 180 172 174 174 159 142 144 142 129 115 103 105 91 82 74 63 64 59 63 65 66 69 88 87 101 113 121 117 118 149 139 133 141 133 141 142 131 122 122 112 85 126 120 123 87 79 73 63 56 61 81 66 146 161 143 137 145 134 100 118 161 162 156 155 143 139 125 137 141 137 148 159 151 141 125 119 108 96 92 77 77 70 66 61 80 94 98 117 142 166 186 194 187 175 176 175 155 149 145 151 130 119 109 98 86 74 70 62 58 55 58 55 56 54 75 87 81 96 109 103 96 132 149 138 140 129 139 139 139 117 119 103 97 93 143 106 116 74 59 46 63 80 77 89 171 160 131 133 144 115 93 141 159 162 157 146 145 138 136 142 158 153 150 144 116 98 77 57 64 30 127 50 36 68 58 60 55 99 106 132 139 167 182 196 197 179 183 172 154 149 157 155 138 122 100 85 71 65 61 62 62 63 68 72 69 69 65 82 79 84 107 93 121 110 143 145 139 129 138 138 143 118 116 86 99 105 123 135 125 90 74 71 87 91 78 120 192 147 134 143 121 93 107 154 162 164 156 154 155 146 147 156 158 142 122 93 61 47 75 32 88 15 80 53 39 99 99 54 57 82 110 138 157 159 173 191 192 174 178 163 143 157 165 155 137 113 85 70 65 73 79 85 91 101 102 107 100 97 79 80 83 69 106 93 108 131 124 149 138 130 135 140 140 122 106 85 84 119 102 139 143 107 92 75 89 95 91 169 144 137 156 129 92 94 125 161 164 160 155 157 168 154 160 170 148 114 64 55 39 63 154 46 89 39 18 62 64 113 133 81 49 64 128 129 158 164 164 179 188 173 171 156 145 157 156 148 122 96 71 74 84 88 85 90 103 124 129 124 124 119 107 91 82 75 94 102 115 108 111 145 138 131 130 139 138 131 102 92 73 105 112 113 159 107 91 83 88 93 137 133 120 152 146 99 87 104 142 165 159 159 159 158 165 162 160 155 107 56 51 76 105 103 177 112 71 62 57 88 64 140 137 81 135 40 154 149 149 167 163 167 192 167 168 147 150 154 143 133 106 81 76 93 85 70 77 87 84 101 102 120 127 126 120 115 101 84 98 112 115 96 103 128 139 131 130 133 139 126 90 90 85 83 118 105 136 98 98 100 105 122 131 122 144 135 106 84 90 118 154 163 164 161 172 181 166 167 144 106 94 95 129 117 156 144 145 163 101 90 97 106 104 141 130 107 123 108 166 158 156 166 159 162 183 165 160 140 140 150 133 130 103 85 120 81 63 66 98 54 33 102 49 75 93 104 128 124 124 113 99 112 120 109 96 124 135 135 127 133 140 126 86 87 88 88 98 108 114 83 103 107 112 116 112 128 136 97 77 99 98 132 158 164 162 171 186 188 177 161 139 137 146 153 154 150 160 173 158 157 130 127 126 134 120 133 131 129 139 150 166 159 166 159 160 156 174 160 152 142 142 144 128 131 108 127 121 47 56 122 138 53 29 144 28 33 44 78 82 105 125 117 114 102 114 114 98 109 133 128 127 134 145 119 82 88 99 91 77 106 107 86 105 104 113 112 119 132 88 72 95 104 114 149 158 163 166 177 190 189 179 165 169 177 175 167 168 168 166 168 162 157 147 148 141 138 127 133 139 137 153 154 162 163 166 157 160 154 172 162 148 139 149 133 127 135 115 164 67 117 84 150 139 61 52 40 28 33 82 80 54 59 94 115 114 120 114 114 109 106 125 127 131 129 147 114 75 106 104 96 81 89 117 107 98 95 107 109 103 94 67 76 121 113 127 157 157 163 164 180 189 189 180 175 177 182 178 174 176 181 181 175 180 175 161 167 155 150 142 146 153 151 168 157 168 165 162 162 159 154 171 165 146 131 148 132 124 136 127 150 117 105 106 146 141 71 66 42 50 46 91 134 34 51 46 88 118 132 126 125 119 120 132 122 132 133 147 103 82 103 103 89 98 69 122 105 104 102 102 96 82 76 77 85 135 107 144 158 158 158 165 185 187 189 178 175 181 181 177 181 178 185 184 178 181 180 161 171 160 157 159 153 164 160 169 162 164 166 163 169 157 154 164 161 146 130 142 130 128 137 140 131 129 122 112 128 129 109 92 70 73 58 122 131 66 54 50 43 101 123 136 130 128 133 140 126 133 137 143 96 85 112 112 77 104 66 118 110 106 93 88 83 69 98 67 89 129 111 150 155 154 159 175 185 185 183 179 177 181 172 179 183 180 175 176 178 183 174 168 172 160 159 164 160 168 173 167 165 164 162 171 168 151 157 160 161 144 130 138 125 137 130 148 134 125 120 126 117 116 134 130 111 104 106 128 124 100 115 54 49 64 117 138 145 130 126 135 130 136 135 140 94 92 114 119 90 106 75 100 89 113 86 85 77 77 92 61 111 118 122 150 151 152 163 174 183 176 178 182 180 179 172 182 181 170 173 174 174 176 167 162 163 164 164 171 168 170 179 175 165 164 165 170 156 153 165 155 158 146 135 137 123 139 137 142 141 134 126 128 120 119 117 126 116 117 125 128 132 141 134 102 81 59 83 131 150 137 132 136 133 134 135 138 91 109 109 104 106 118 78 95 102 92 105 103 100 85 88 106 114 137 137 150 152 153 165 171 174 173 181 183 184 180 182 176 179 173 173 170 174 166 167 159 166 170 167 172 176 169 184 175 168 166 174 165 160 156 164 164 154 148 139 133 127 132 149 133 143 141 133 128 131 134 119 122 125 125 136 134 141 151 137 125 126 103 74 100 147 148 145 151 148 129 133 133 90 112 104 95 104 159 82 97 86 101 116 115 105 100 94 115 110 133 133 150 149 154 167 166 169 174 183 186 192 169 181 181 181 178 171 175 164 163 165 169 161 163 170 167 178 181 182 177 171 173 164 161 162 153 167 164 159 144 142 132 131 128 154 139 137 145 141 130 134 134 131 139 137 133 136 140 143 145 145 150 146 143 123 95 120 153 156 166 159 129 136 133 76 123 105 109 108 152 64 93 65 97 114 109 119 137 124 109 115 110 132 150 150 151 162 164 161 178 181 190 198 186 184 190 182 179 176 175 169 167 171 165 169 167 175 179 176 188 183 175 174 172 164 162 157 165 174 166 155 142 141 135 129 131 147 147 142 146 144 139 140 133 132 138 145 144 149 148 156 149 150 156 158 157 152 132 123 143 160 167 163 132 138 130 90 119 117 117 113 115 70 85 31 103 115 98 104 114 119 110 105 104 134 148 148 150 154 157 169 173 175 186 196 191 194 186 190 179 175 181 169 170 172 170 180 171 174 192 176 186 185 174 180 168 163 159 156 166 164 160 158 144 139 138 129 132 142 152 144 147 141 145 145 139 138 134 140 148 153 157 157 151 157 152 159 157 155 154 139 157 159 169 161 134 137 126 98 119 97 107 105 86 76 82 33 98 118 101 107 111 107 110 94 94 132 147 146 149 149 156 168 169 172 178 184 186 192 186 187 181 178 181 168 172 169 172 176 173 177 187 184 177 190 176 182 159 161 160 156 163 159 160 152 140 140 135 134 126 140 153 149 148 144 149 143 141 141 137 131 140 149 154 157 154 160 154 158 158 155 151 150 155 164 167 160 136 137 126 93 120 81 106 103 86 83 74 20 109 103 93 107 109 96 105 87 82 129 146 139 151 150 159 160 171 174 171 174 175 177 177 188 179 187 178 173 172 167 174 171 177 175 186 187 175 189 177 167 157 161 161 160 163 156 166 162 144 140 134 135 124 138 153 153 156 151 152 140 143 145 133 134 133 138 143 151 153 160 156 152 156 153 151 151 156 162 162 163 139 137 134 80 111 89 102 91 82 104 73 16 124 100 84 99 106 105 101 108 86 130 146 136 147 150 162 160 170 173 173 172 174 179 171 180 179 184 183 176 175 174 169 171 178 178 182 179 177 176 176 155 157 165 159 150 208 155 174 189 142 139 142 133 132 129 148 160 153 152 154 148 143 145 139 135 136 135 141 145 149 155 156 154 155 148 158 154 155 159 157 165 143 132 137 75 109 80 91 83 77 88 108 4 140 107 69 112 107 99 113 115 94 128 142 135 145 152 150 167 162 176 175 177 170 184 171 180 178 178 172 179 172 175 171 174 179 174 182 173 173 169 164 154 168 167 150 137 213 158 167 161 142 134 171 138 134 126 138 165 158 156 153 148 144 143 139 139 144 136 141 152 145 149 154 154 157 151 157 156 159 156 157 164 142 132 140 83 111 69 81 80 81 91 111 4 141 111 68 126 103 92 110 102 114 123 142 135 145 154 156 167 173 173 168 176 175 175 189 174 181 179 178 177 175 178 170 173 177 174 177 174 167 163 158 166 181 170 146 131 165 149 148 138 134 128 182 120 137 131 134 142 154 148 146 149 146 145 148 144 149 148 141 140 151 146 148 155 157 156 158 156 159 155 158 160 139 133 138 90 111 65 81 86 80 82 99 5 118 124 74 155 118 79 102 102 94 131 141 137 140 154 152 163 171 172 171 177 171 180 179 179 185 189 177 178 179 175 171 176 175 169 178 164 169 163 153 170 171 149 129 133 136 131 124 121 121 128 140 114 141 147 131 135 140 148 144 147 147 143 155 144 145 147 143 146 149 143 149 156 159 155 163 169 162 157 161 153 134 133 141 80 121 79 78 87 75 73 88 33 83 142 108 160 119 98 77 118 87 127 142 137 137 152 156 163 168 165 171 173 179 181 171 178 189 184 175 183 176 174 172 173 176 165 176 161 170 153 143 152 147 118 61 90 137 111 102 105 112 122 117 114 121 158 149 126 138 154 146 143 144 145 151 151 148 144 141 148 155 146 152 155 161 159 163 175 169 161 158 152 135 134 120 78 119 110 71 80 94 70 77 43 52 153 136 148 117 111 70 111 93 126 139 139 141 147 166 162 170 168 167 174 178 179 177 181 185 186 182 182 181 172 170 166 175 165 171 168 170 145 138 134 111 47 15 19 107 103 85 88 95 115 71 71 110 135 155 129 136 159 153 145 145 141 153 148 148 148 145 145 153 149 156 153 162 167 164 169 167 166 155 149 136 133 107 79 111 120 59 80 111 63 82 47 21 141 147 137 121 113 80 105 97 124 137 141 143 147 161 164 167 167 168 173 175 178 175 183 173 186 178 176 178 176 166 170 170 166 168 175 177 136 131 111 66 21 18 43 97 113 74 74 104 70 10 16 78 117 134 130 131 159 158 156 144 148 150 146 147 145 145 149 152 151 155 156 164 168 165 169 167 169 156 146 129 131 97 82 98 127 77 83 102 66 69 55 22 101 151 132 119 108 87 131 103 121 135 139 144 153 159 160 164 170 164 177 180 172 171 180 178 183 178 172 179 173 166 169 165 168 177 174 176 123 125 102 63 51 68 94 114 106 67 78 115 76 10 11 53 103 119 122 139 165 161 157 142 154 146 149 148 148 153 145 153 152 154 158 168 166 164 165 165 168 154 143 129 129 90 76 94 116 103 83 100 75 56 56 27 58 152 137 112 100 94 155 124 117 138 137 143 158 164 160 168 165 166 171 178 171 167 180 179 176 178 176 173 167 162 162 166 170 184 173 177 117 119 88 80 106 142 124 103 76 49 68 89 113 56 35 82 94 111 104 144 160 163 149 145 154 150 153 149 146 159 148 150 155 153 157 165 166 163 165 163 167 157 140 131 127 94 75 106 106 83 95 113 76 66 48 37 33 144 147 122 116 104 132 150 110 131 138 142 156 159 166 168 169 171 167 173 170 176 174 178 179 180 170 162 165 158 161 162 179 183 177 174 155 136 122 113 132 171 140 115 100 65 70 82 112 101 75 84 104 79 99 155 154 147 156 151 161 146 154 151 151 149 151 154 159 150 162 156 168 162 168 163 164 152 144 129 122 74 97 109 107 93 84 107 100 101 31 55 16 129 140 143 132 147 96 144 112 128 135 146 155 161 165 169 165 175 166 170 167 169 176 177 179 173 169 162 157 163 166 174 182 175 169 177 169 159 163 162 152 163 146 136 135 111 95 93 116 126 100 101 92 88 134 148 151 148 152 154 156 151 146 150 151 160 150 160 150 156 160 155 165 162 167 167 153 148 141 129 112 55 94 102 115 106 85 116 106 66 32 42 16 122 141 132 141 170 137 141 112 132 135 147 150 164 165 174 165 175 163 168 165 173 169 176 170 173 161 159 159 170 172 180 181 178 163 174 167 161 161 157 158 164 148 155 139 126 124 134 139 132 133 136 134 137 144 144 150 142 150 154 148 154 151 152 153 154 158 160 154 158 161 161 160 158 163 163 149 147 139 127 98 49 97 110 107 100 101 113 39 42 32 44 22 97 150 130 134 162 149 158 108 132 136 146 148 142 168 167 169 168 166 167 169 169 169 178 168 171 157 166 170 175 177 182 179 177 169 168 156 160 158 157 150 162 149 151 130 115 149 152 144 131 133 142 138 144 142 146 145 149 146 147 144 149 147 151 158 147 156 159 161 157 158 159 159 158 160 151 150 151 137 129 96 52 113 83 124 72 98 106 20 42 37 47 31 58 151 137 133 136 150 148 112 130 142 142 146 138 163 166 167 167 168 166 170 167 172 173 172 166 156 169 174 179 180 179 171 167 170 162 157 153 149 155 155 157 145 140 109 121 171 160 143 126 125 139 138 143 140 148 150 139 146 152 148 145 148 154 153 153 158 160 163 156 158 158 156 161 162 150 147 148 134 131 88 70 97 77 134 73 110 79 24 41 37 44 50 29 129 139 129 145 137 134 110 128 145 136 146 150 157 167 165 170 165 167 165 163 176 166 171 173 140 169 176 172 181 169 157 161 158 160 154 140 157 153 155 160 146 131 108 134 173 160 144 127 125 130 141 138 141 145 147 150 147 151 146 147 144 151 148 157 157 161 159 154 158 155 153 158 161 153 147 141 133 129 83 84 70 92 137 84 126 43 25 44 42 36 48 34 81 135 127 154 140 143 112 126 147 134 144 149 157 160 166 169 168 162 164 163 173 169 170 161 143 172 176 165 168 154 159 158 164 149 151 142 168 159 160 158 151 131 116 139 169 171 151 137 132 124 136 139 142 141 146 149 148 147 149 146 147 147 147 154 162 157 163 155 157 153 154 161 162 148 148 136 128 124 93 77 63 98 127 118 103 18 37 41 35 37 37 41 31 116 137 155 155 150 121 121 145 143 147 150 159 161 163 169 172 165 164 165 167 171 152 158 171 175 165 158 157 150 161 162 168 148 169 163 167 161 152 141 150 140 123 139 157 178 154 143 137 134 128 128 136 132 147 146 150 137 155 145 150 144 146 154 155 160 158 163 156 152 159 158 161 148 153 138 123 121 99 65 75 82 121 134 43 27 35 35 36 38 37 35 40 49 143 144 148 148 125 121 137 140 144 149 157 155 163 163 168 168 161 170 172 171 162 169 175 161 162 145 147 149 159 164 173 166 180 176 169 155 143 143 159 166 138 157 159 158 153 143 139 149 136 133 128 132 142 139 147 133 153 148 145 148 147 148 160 160 159 162 159 153 157 164 157 149 148 134 119 124 81 50 77 77 139 88 18 29 28 37 35 41 33 39 39 25 116 131 127 135 125 120 133 142 143 146 154 149 154 163 168 160 164 164 165 165 164 167 167 161 155 144 151 149 163 171 177 171 157 146 117 102 98 100 107 116 136 138 132 129 119 130 148 148 148 142 146 139 139 141 137 136 142 150 144 145 152 143 160 157 160 161 158 154 156 166 154 144 141 127 123 117 95 70 73 97 136 45 29 27 36 50 35 40 40 36 41 39 38 109 119 114 110 124 134 137 145 145 154 143 154 155 164 157 162 163 154 169 160 169 160 147 155 149 158 158 163 165 141 120 100 95 75 65 61 70 78 78 87 98 95 87 85 90 109 127 150 150 156 143 133 144 141 131 138 145 149 141 150 143 155 155 160 161 153 158 151 163 149 141 135 127 124 110 102 116 87 119 115 20 30 33 43 58 39 38 40 38 41 36 29 43 73 83 75 130 134 133 147 143 156 146 149 157 161 160 161 165 156 164 160 166 161 153 150 151 153 141 142 124 93 77 64 54 42 39 27 44 40 49 60 59 65 53 52 60 69 83 111 136 152 150 135 151 137 126 137 139 148 146 142 148 151 159 152 162 148 155 152 164 138 137 131 124 120 102 121 130 122 122 82 16 35 40 34 39 36 35 36 41 35 41 35 38 52 46 38 131 138 133 144 138 153 149 145 156 155 160 162 167 164 166 168 165 148 153 149 147 130 104 92 78 63 65 58 64 37 33 31 30 34 29 25 35 31 30 27 32 41 48 70 94 121 134 128 136 138 133 137 141 142 147 141 148 152 152 153 157 150 156 152 153 139 130 127 129 112 103 129 127 109 128 39 25 32 37 29 34 36 37 36 37 38 35 40 41 47 44 25 119 131 134 141 133 148 147 145 155 159 159 157 159 171 164 168 164 130 146 128 125 94 75 67 76 100 122 130 133 125 106 108 89 90 74 49 54 52 52 49 37 37 35 47 55 80 96 106 122 129 138 136 139 139 146 151 147 151 152 157 152 152 152 153 145 143 124 129 127 109 106 133 121 121 110 19 29 29 36 32 27 37 39 35 36 38 33 37 31 48 45 26 105 133 139 132 134 141 150 148 153 154 162 159 168 170 163 172 158 136 135 117 123 124 146 155 132 131 132 131 132 142 126 142 127 134 112 121 116 122 121 121 111 107 106 93 81 67 43 56 85 117 124 133 133 131 144 149 149 153 153 155 152 151 143 148 146 139 127 128 123 108 107 135 115 132 66 26 31 30 30 31 29 38 36 38 38 36 39 37 36 39 47 32 86 132 133 129 127 142 149 142 154 153 163 163 160 163 166 169 148 131 131 131 139 152 149 150 137 136 128 127 123 124 125 124 124 116 129 111 128 135 110 126 113 114 119 120 115 109 105 89 77 86 109 126 136 126 143 146 160 152 152 158 154 146 146 144 146 130 127 126 119 108 105 125 121 102 28 20 32 27 30 30 29 34 38 35 37 33 40 36 34 38 41 40 53 137 132 128 129 146 140 143 154 151 161 158 162 166 165 161 145 139 141 146 148 154 145 136 118 128 127 134 129 117 118 112 115 110 125 107 124 121 103 113 115 112 114 114 115 117 121 137 141 109 92 111 127 130 145 148 150 156 153 157 152 144 148 140 140 123 125 121 116 102 102 120 134 44 25 29 28 30 26 31 27 34 39 34 37 34 36 42 33 35 41 31 45 133 128 131 132 135 147 136 146 148 154 151 165 162 159 152 143 140 140 150 149 151 145 129 113 117 118 120 121 123 121 121 117 119 126 125 121 117 115 113 113 114 120 121 125 126 124 141 143 146 110 97 116 134 143 149 151 149 163 143 149 148 142 140 139 127 122 117 112 104 120 128 127 22 32 32 27 30 31 32 29 32 40 35 38 33 36 36 38 35 36 42 34 126 132 121 137 129 145 140 142 150 147 150 158 152 158 148 142 139 145 143 142 143 140 127 117 114 104 106 103 97 100 97 104 106 101 114 104 104 106 106 112 106 115 120 113 116 114 130 146 144 139 109 116 130 140 146 149 142 161 141 144 149 140 137 137 122 116 116 106 100 117 128 84 15 33 30 30 28 31 31 30 35 35 39 39 36 36 35 37 37 36 40 33 122 127 122 125 136 140 142 141 146 145 145 150 147 151 141 141 142 139 138 134 136 133 132 128 119 109 98 89 78 76 71 74 68 79 84 78 75 80 87 98 96 102 106 107 111 115 128 138 142 144 135 114 122 139 144 142 150 155 154 145 147 141 135 132 115 110 117 105 95 115 97 28 31 32 26 30 32 29 34 30 40 36 35 39 32 41 37 38 40 33 33 36 116 125 127 128 135 139 140 140 138 146 142 142 141 145 136 139 136 140 130 138 131 131 135 139 130 132 116 105 89 75 62 54 48 49 54 54 60 61 69 80 89 91 98 117 116 120 127 137 139 143 136 125 122 131 137 146 150 145 157 147 145 137 130 128 112 107 119 86 65 64 33 29 30 28 28 30 31 31 32 35 34 38 34 37 34 40 36 35 41 32 24 51 121 119 123 135 132 139 140 139 135 139 142 140 139 136 132 130 134 135 138 134 135 129 138 140 141 140 138 128 113 95 84 53 50 46 45 48 58 71 75 85 96 104 109 124 128 119 131 130 135 139 136 132 123 125 139 142 142 148 150 148 139 132 130 120 110 111 129 42 22 32 31 29 30 26 31 30 31 30 32 33 34 34 37 37 36 36 33 36 33 34 37 54 121 116 119 135 132 135 135 133 136 141 138 141 133 135 130 129 135 148 135 134 136 138 138 146 140 136 135 126 117 109 99 94 78 74 67 77 85 94 105 105 109 115 121 126 127 129 132 121 133 139 130 131 136 116 139 145 134 140 143 140 131 129 126 116 109 112 114 19 25 29 29 30 26 32 29 27 31 31 35 28 37 34 36 40 33 39 32 37 35 42 20 65 124 118 117 134 133 138 134 133 129 142 134 133 129 134 139 139 133 142 138 139 140 145 143 149 149 136 133 124 126 116 117 116 126 123 125 124 114 106 112 115 112 121 119 121 131 135 133 118 132 132 130 130 140 122 127 143 132 131 143 135 132 124 117 115 108 131 47 19 32 30 28 32 27 33 25 32 29 32 29 29 32 34 37 35 35 35 39 34 40 33 23 76 122 112 121 127 131 136 129 137 133 131 131 128 129 132 134 136 138 140 150 152 143 148 141 150 146 142 135 128 129 128 137 136 147 146 142 147 136 128 119 124 119 121 118 125 130 128 133 128 132 132 133 139 138 130 129 127 132 128 130 134 122 120 115 111 119 106 12 34 28 30 29 32 26 32 28 31 28 33 31 34 33 36 37 37 35 33 38 33 37 43 20 93 119 114 122 121 133 131 134 131 135 130 126 128 128 128 129 131 132 133 148 149 146 145 149 151 149 145 137 144 150 152 153 153 152 151 151 148 154 146 140 131 125 130 122 133 134 126 133 128 132 137 137 137 137 135 129 123 126 128 132 125 123 115 112 112 124 54 17 28 30 29 30 34 26 30 31 33 33 28 31 32 34 35 35 38 34 35 39 33 36 37 15 104 115 118 116 126 127 131 133 134 130 130 132 118 122 127 126 124 121 140 139 146 145 141 153 154 146 153 154 164 163 165 163 158 158 153 160 152 159 158 150 147 143 144 131 138 140 136 131 128 132 131 135 130 133 132 129 126 120 129 125 120 121 114 116 119 98 18 24 33 26 28 32 28 27 33 30 29 32 28 32 29 36 35 36 40 33 33 37 34 36 37 23 109 117 116 119 124 122 129 127 131 125 131 130 124 118 120 122 122 121 133 138 145 142 141 147 151 145 161 166 159 168 161 163 162 151 160 156 157 159 153 145 148 140 143 142 144 141 144 135 126 134 136 134 132 129 129 127 126 121 128 120 119 116 114 117 114 45 21 30 30 29 28 30 30 27 31 30 30 33 28 33 31 36 34 35 38 35 35 36 37 34 38 18 108 120 116 118 122 126 119 132 127 128 128 126 123 123 121 119 121 124 128 131 142 138 143 146 146 155 154 156 155 160 157 159 157 154 144 148 154 150 137 140 141 138 141 139 144 142 142 135 130 133 137 130 129 123 126 130 126 120 125 118 122 114 116 118 85 15 28 32 32 28 31 30 28 32 28 29 32 30 33 29 32 39 31 35 37 33 36 34 35 34 39 18 105 121 116 121 123 122 123 126 128 127 124 125 112 128 119 116 114 120 132 128 128 134 135 148 141 149 153 140 151 155 144 145 138 137 133 138 141 135 137 134 138 136 139 140 140 144 141 136 138 133 129 133 116 116 113 129 119 120 122 113 118 113 113 117 25 23 31 30 32 32 29 26 31 30 29 30 28 31 32 31 33 34 32 36 38 35 30 38 33 40 30 26 106 118 122 123 124 120 120 131 124 129 122 121 121 115 114 109 116 116 124 129 123 133 132 139 129 126 141 135 137 137 132 133 136 124 123 128 126 120 123 123 126 126 133 128 137 136 133 136 134 140 125 125 116 111 107 123 117 115 125 112 117 115 113 93 12 25 34 28 28 29 28 33 31 32 26 30 29 33 30 34 33 33 34 36 35 36 33 33 35 24 45 128 113 112 121 119 126 124 117 125 122 122 121 116 124 108 113 112 114 112 116 117 117 121 126 125 116 119 134 138 128 121 130 123 121 119 118 114 114 116 115 112 112 115 121 121 127 130 127 132 128 130 120 115 115 107 108 121 111 119 116 118 122 111 119 43 19 28 31 32 28 30 26 30 29 27 30 27 31 31 35 29 35 36 33 36 35 37 36 35 20 59 164 104 87 119 126 118 128 121 121 119 122 119 123 120 121 117 119 115 104 111 103 112 117 122 118 123 121 114 122 132 120 115 121 111 114 107 108 106 109 109 109 105 104 106 116 116 120 126 124 124 118 124 110 109 101 107 109 112 116 112 116 117 116 111 113 16 28 34 29 28 29 28 30 27 32 28 31 29 28 33 33 31 37 38 32 31 37 36 38 28 31 190 144 58 78 122 124 126 126 122 122 119 117 120 119 116 118 113 121 119 110 108 100 101 107 117 110 118 119 109 109 114 116 108 107 108 103 102 101 96 99 96 98 105 107 102 109 114 108 114 117 117 107 114 106 108 104 104 106 111 112 112 116 115 107 118 82 10 31 29 28 29 31 27 30 28 28 31 28 34 27 33 32 33 34 34 34 35 33 34 36 17 168 212 101 42 71 125 127 127 125 122 123 114 112 115 122 115 109 121 113 117 109 113 107 100 99 107 105 112 106 108 102 105 109 104 99 100 93 95 95 93 88 86 92 97 99 100 98 107 104 109 105 109 106 103 101 104 103 103 104 111 107 114 115 113 108 123 57 19 28 30 27 31 30 28 27 29 29 28 28 32 29 31 31 35 32 37 33 31 37 34 19 110 230 171 102 38 70 122 127 121 128 123 121 121 113 114 116 113 110 123 106 112 108 109 113 92 96 95 101 103 99 100 100 91 103 95 90 92 86 83 92 87 85 83 88 87 90 96 95 99 100 104 95 106 103 99 104 102 95 104 102 107 105 115 115 107 109 127 34 24 30 30 30 26 30 27 29 28 29 28 27 31 31 31 31 37 34 40 33 34 38 33 28 206 225 148 119 28 68 126 118 126 128 126 118 123 116 116 114 111 116 111 113 112 107 109 104 101 87 92 97 94 94 89 93 83 92 88 81 85 80 81 80 80 80 79 84 81 84 83 86 93 95 99 96 98 97 99 101 95 95 99 99 108 108 115 114 108 114 116 20 25 33 27 32 30 27 29 32 26 29 29 30 30 30 33 35 34 40 37 30 25 32 36 127 227 219 137 133 33 74 122 123 124 127 123 122 118 121 112 115 108 112 105 113 102 103 98 101 97 96 85 87 87 87 84 89 83 84 81 85 76 76 83 70 74 76 76 79 74 78 73 80 89 89 88 94 95 93 92 97 95 95 99 101 106 110 115 114 110 119 104 57 25 25 30 30 32 26 30 26 30 31 29 28 27 34 28 36 36 35 88 95 108 151 170 204 211 206 171 141 32 68 129 122 123 124 127 124 118 121 116 111 111 116 106 103 107 102 97 102 94 98 87 88 83 78 80 81 83 79 79 79 81 77 77 76 75 75 78 73 75 75 72 77 74 84 83 89 88 91 92 93 93 98 102 103 108 113 116 110 112 122 79 62 87 77 34 22 30 29 29 29 32 29 28 30 30 30 33 36 33 35 187 190 192 192 189 208 212 189 191 148 56 60 125 124 124 124 127 125 123 121 120 118 109 122 107 106 106 103 95 107 96 89 89 86 83 80 69 73 77 73 79 80 78 78 83 80 75 74 72 74 79 72 74 69 77 77 80 82 86 93 89 96 92 101 99 106 110 115 115 111 114 123 63 50 63 74 98 74 24 30 27 31 29 26 34 30 30 34 32 35 34 35 198 198 200 193 197 214 204 178 188 163 80 39 125 125 131 120 128 125 123 121 120 119 116 115 112 104 105 107 99 100 96 92 89 84 86 79 74 73 68 72 74 81 74 78 79 80 79 73 77 72 74 72 73 75 74 75 84 86 90 87 91 91 101 100 101 107 112 118 113 116 110 119 54 50 67 63 61 106 114 46 21 30 29 33 29 32 28 34 32 39 38 33 194 193 201 196 204 213 208 166 185 181 129 24 112 128 132 124 130 122 128 121 117 119 113 110 116 101 106 104 105 97 98 93 85 88 84 80 77 77 73 68 75 72 75 77 74 76 73 67 74 73 69 74 71 79 73 79 86 88 89 91 90 94 99 103 104 110 113 114 116 115 113 115 37 49 69 55 69 76 113 146 80 23 25 30 29 35 33 34 35 37 37 36 184 187 194 201 211 212 199 160 168 202 177 37 87 132 128 132 127 124 127 123 118 116 110 104 111 105 105 107 105 101 103 91 89 86 87 78 83 81 76 76 74 74 79 71 72 73 73 66 74 75 70 76 80 78 79 87 92 92 92 95 97 97 100 102 107 113 110 118 112 115 118 98 29 44 60 60 69 88 107 143 183 129 34 26 26 36 31 37 34 39 37 39 183 186 197 209 211 211 179 186 148 191 205 96 53 135 128 131 130 125 125 121 121 119 107 104 106 105 106 105 102 98 101 96 86 88 84 84 78 76 80 76 80 77 77 76 72 77 70 68 78 72 74 82 84 81 82 88 92 93 100 95 99 102 103 105 108 112 113 116 111 114 120 86 25 42 56 56 84 96 120 145 181 179 173 63 19 29 33 34 38 35 39 37 191 194 207 210 212 207 173 191 164 173 190 172 27 115 131 132 128 126 128 124 119 118 114 109 106 109 105 108 100 94 98 94 91 88 83 81 85 80 73 78 80 84 78 80 78 76 72 77 79 77 76 87 89 82 89 95 95 96 97 100 102 99 108 106 114 110 114 113 112 112 119 80 23 43 46 61 92 98 135 174 172 167 182 203 116 9 32 37 37 36 38 40 