P2
92
112
255
117 122 120 122 120 124 121 119 121 122 123 117 119 122 125 119 121 118 119 121 119 121 114 119 115 119 111 105 108 109 92 84 101 102 99 94 80 70 75 82 71 62 54 59 62 68 64 77 73 81 84 88 86 94 104 103 115 120 120 116 116 120 116 114 119 116 118 118 116 119 115 118 115 118 118 114 116 116 114 117 117 115 116 118 115 116 115 112 117 114 111 118 117 120 121 122 121 119 122 118 124 121 121 120 121 124 124 120 123 118 121 120 119 121 114 119 118 118 100 100 98 100 86 74 85 95 93 76 66 67 79 80 70 62 61 59 49 46 53 55 69 71 74 73 72 78 83 84 101 109 114 120 114 117 120 114 118 117 117 116 119 117 116 117 118 117 116 116 117 115 114 115 114 112 119 116 113 115 113 114 115 116 113 115 122 123 121 121 122 122 123 122 122 120 121 123 121 120 120 117 118 115 110 114 114 108 98 101 99 94 88 90 93 92 90 81 74 77 70 75 74 91 82 81 75 64 72 72 71 64 46 45 52 67 71 78 71 72 72 63 69 79 89 114 116 116 118 116 117 119 118 117 118 114 117 122 115 119 114 115 118 117 118 116 118 114 116 118 117 115 116 116 115 116 114 114 125 124 121 122 122 122 121 123 122 120 121 126 120 120 115 116 119 120 122 119 115 99 95 95 91 88 82 77 80 78 69 69 62 67 73 86 92 96 88 73 76 75 72 82 81 89 62 45 48 53 53 75 79 79 83 80 69 68 61 69 105 113 120 116 117 118 119 116 118 114 120 115 116 116 117 116 117 113 119 117 117 115 117 119 115 114 116 117 115 116 116 116 125 119 121 122 122 122 122 121 121 121 121 118 114 114 113 116 118 121 118 122 112 93 98 95 98 87 77 70 60 58 64 69 69 77 73 84 85 78 72 77 76 80 71 72 72 78 88 70 48 63 46 61 72 76 76 88 81 77 80 72 68 96 107 117 118 117 116 115 116 115 115 119 116 118 115 118 118 115 114 118 115 118 116 114 115 114 116 116 114 115 115 115 122 121 119 121 121 122 122 120 119 123 120 115 112 114 114 113 120 116 106 113 105 92 69 48 59 83 82 83 79 73 80 84 83 72 83 76 60 82 81 75 69 75 77 74 64 67 80 89 66 56 54 56 53 79 75 82 68 68 86 84 80 76 87 103 118 114 115 117 114 118 116 117 116 118 115 116 116 119 116 117 118 114 114 117 115 115 113 116 114 114 116 116 120 124 120 122 121 118 121 121 119 117 114 113 114 106 103 117 120 105 102 101 112 98 89 62 63 52 67 66 68 69 73 70 69 60 70 63 69 78 77 82 84 82 83 83 87 73 66 76 89 73 57 52 64 55 58 81 84 71 78 89 85 83 95 90 99 108 114 115 116 118 114 116 115 117 117 114 114 120 114 117 115 116 112 118 117 117 117 112 116 116 114 116 121 123 120 121 123 116 125 117 120 115 113 109 99 92 91 114 105 92 86 83 104 113 87 67 68 59 69 64 75 82 69 52 51 50 55 58 61 77 74 79 84 90 95 95 92 83 75 82 86 81 72 68 79 67 55 59 67 70 79 86 94 86 79 88 78 80 96 109 117 114 115 117 114 118 118 115 117 114 114 121 114 115 117 116 118 112 120 116 118 116 113 120 121 122 123 121 123 120 119 120 119 105 103 84 84 87 109 121 108 100 79 82 95 109 107 92 82 77 88 82 81 67 54 50 48 47 53 55 53 64 63 83 74 80 85 92 90 95 87 76 84 82 88 79 91 84 77 71 70 64 74 76 83 87 82 79 82 73 71 78 97 115 113 116 115 115 118 115 118 116 115 118 118 114 116 116 118 113 116 118 113 115 117 119 122 122 119 121 124 114 124 111 104 102 91 82 83 91 102 110 103 97 84 96 90 89 103 78 86 75 80 78 50 47 52 40 37 40 46 55 57 59 47 68 80 77 87 82 77 77 88 94 82 79 89 79 78 78 82 78 68 68 75 83 77 86 88 87 89 97 84 78 74 82 97 109 113 117 104 114 117 116 116 114 118 113 115 115 116 117 113 118 116 115 119 117 123 120 122 123 122 115 111 97 90 98 93 91 102 106 114 126 125 121 105 109 107 98 106 74 66 70 60 62 44 43 40 34 35 40 42 49 51 67 51 57 73 76 79 80 81 69 76 81 90 91 80 89 76 76 84 71 74 68 68 73 87 87 78 79 90 90 92 92 84 81 84 90 96 117 108 110 113 115 116 116 113 114 116 111 117 114 115 115 115 113 118 111 123 118 121 123 119 108 91 89 78 101 99 110 118 119 131 131 130 122 102 106 107 111 103 98 85 74 59 55 49 50 39 40 37 44 47 60 41 66 66 53 57 76 68 68 62 76 69 74 62 76 105 84 90 100 82 88 82 82 79 69 69 80 87 86 76 74 82 88 89 89 77 79 78 86 97 97 108 108 111 114 113 116 116 113 116 115 117 117 116 115 114 118 124 119 118 127 115 98 89 81 77 88 98 109 121 117 127 132 125 119 115 117 114 130 119 103 96 89 78 68 49 62 51 52 57 56 50 63 49 54 77 57 62 79 77 80 70 65 67 75 70 60 91 93 62 97 105 85 79 86 86 79 88 76 76 77 87 76 83 73 67 77 82 75 78 78 80 76 73 83 88 88 89 99 101 103 108 114 115 113 112 109 113 116 120 121 129 125 114 91 89 85 85 87 93 103 126 120 125 126 127 122 121 116 118 129 133 109 106 102 89 77 66 59 68 56 57 64 60 52 65 60 80 71 66 73 72 75 84 91 69 74 80 69 67 94 76 62 94 96 85 81 81 70 82 84 79 79 83 89 87 75 60 71 64 67 71 75 74 78 72 67 66 82 70 75 78 84 91 101 97 97 98 107 102 99 119 128 124 125 110 98 89 86 91 104 103 112 118 121 119 135 133 111 113 120 126 135 147 126 114 116 100 83 76 74 70 68 71 63 57 60 66 71 82 85 72 79 72 73 74 67 74 77 79 84 55 87 96 78 77 103 100 79 78 67 83 88 91 81 88 85 96 90 73 55 60 65 66 63 60 78 68 69 74 76 83 80 84 91 90 91 93 89 87 96 98 85 119 124 116 121 116 98 95 93 103 98 107 107 107 101 98 121 123 101 115 136 147 148 153 149 117 113 116 95 77 84 73 73 73 78 80 66 76 73 79 81 77 83 83 80 90 85 80 72 80 97 70 68 92 81 84 70 114 95 87 77 66 83 97 89 100 95 84 85 90 70 56 65 59 57 62 57 59 58 71 77 71 69 73 74 70 74 76 77 83 83 76 71 122 119 114 124 116 108 115 106 109 108 122 118 109 96 94 99 103 117 142 144 145 151 149 152 135 113 113 109 91 86 90 82 83 79 95 89 82 89 88 98 93 91 96 92 80 88 87 82 78 98 90 69 87 85 93 80 93 105 82 101 70 73 78 104 88 98 99 89 96 90 78 64 57 56 58 53 52 56 48 64 74 72 68 71 67 71 70 77 77 76 71 76 122 119 111 122 121 125 115 116 118 118 114 107 94 85 91 100 117 137 148 146 142 147 143 142 144 131 120 107 100 87 91 89 81 82 87 88 85 92 92 107 112 113 113 110 97 84 89 90 76 83 88 84 81 95 102 96 89 108 89 90 100 89 74 79 99 97 92 98 101 95 87 72 73 59 50 50 43 54 49 46 60 58 57 66 68 64 73 73 75 80 81 84 117 110 107 124 131 124 120 125 132 119 86 99 92 92 104 119 125 143 150 153 148 148 147 141 137 145 135 123 110 97 94 91 88 80 77 75 75 89 84 89 103 116 114 108 96 101 94 96 85 73 82 91 91 82 97 116 99 92 96 83 101 95 96 80 86 108 83 90 110 98 87 80 73 67 60 49 47 34 42 55 57 57 55 58 62 60 62 61 69 81 87 84 112 101 108 132 119 118 131 132 132 110 79 99 105 108 119 128 133 150 158 151 150 152 153 150 137 135 137 143 124 118 104 101 97 101 97 93 85 90 106 99 107 128 133 118 112 115 111 101 92 70 89 95 95 102 96 112 107 92 92 88 99 96 90 98 84 100 99 76 105 105 92 83 85 72 59 62 59 45 50 41 57 61 54 52 61 68 76 58 60 65 71 64 110 100 108 123 111 124 141 133 123 105 104 104 123 126 126 139 147 152 152 153 153 157 164 162 145 137 130 133 134 134 130 122 109 103 111 108 109 112 109 97 92 93 101 98 101 105 115 106 96 85 84 95 96 99 114 106 107 103 97 92 97 89 88 98 95 91 97 86 93 108 107 93 74 72 66 68 67 65 66 59 49 63 55 47 56 59 86 75 70 77 67 57 105 102 110 113 107 129 146 128 120 101 97 109 129 132 136 143 147 146 155 151 156 164 160 159 152 156 142 139 131 128 135 134 130 119 112 117 120 115 115 107 103 88 90 100 99 100 90 110 107 99 93 82 94 94 104 97 112 110 104 90 101 89 87 87 103 85 96 82 88 97 98 105 82 68 57 66 65 69 74 73 66 56 56 54 56 49 74 68 71 73 68 71 112 103 110 104 111 139 130 112 111 99 105 124 145 136 143 142 147 154 153 150 159 163 162 156 161 161 163 154 156 149 142 129 127 133 129 126 132 125 120 129 110 101 107 99 108 116 102 88 114 107 105 80 82 83 95 101 99 109 99 99 105 93 96 103 93 92 83 96 84 90 76 98 82 80 68 70 64 69 75 71 63 56 57 55 56 64 72 56 75 72 64 73 110 105 113 102 126 144 121 109 111 97 111 134 147 141 141 146 151 157 153 154 159 166 169 166 165 171 165 171 173 170 165 154 146 138 141 133 140 135 132 135 131 115 114 107 111 109 110 94 102 122 104 76 81 82 86 115 102 103 102 102 108 94 102 109 103 93 83 86 87 87 77 86 75 71 76 72 64 69 82 92 74 46 64 58 48 63 66 61 77 76 70 76 128 97 120 108 138 125 115 106 99 100 136 150 150 144 144 142 153 153 150 152 159 170 172 167 171 170 174 175 181 180 186 185 174 161 153 152 151 151 144 137 139 135 126 114 119 116 116 107 85 105 132 88 74 85 88 94 110 91 90 100 101 88 79 91 97 90 91 91 79 80 79 86 70 58 71 84 70 64 69 89 91 71 59 59 73 61 46 54 65 72 69 74 129 105 110 124 140 117 98 99 93 99 134 153 146 143 142 145 149 157 154 160 162 167 171 172 164 167 178 177 180 180 185 190 183 182 168 157 158 165 161 149 145 150 150 130 129 133 123 122 106 83 118 120 83 73 102 97 87 98 90 86 95 80 80 82 84 77 77 77 77 77 76 78 68 55 53 84 77 80 70 87 97 74 78 78 82 66 51 47 48 66 69 70 99 120 105 138 136 102 65 90 103 124 145 149 141 143 144 144 149 161 162 163 164 166 172 177 171 165 173 177 180 182 187 193 188 186 188 174 173 170 165 160 158 153 157 152 137 141 138 130 114 101 103 125 101 82 88 100 74 76 86 82 86 73 83 94 94 93 100 88 78 63 68 73 75 67 51 66 94 81 80 86 91 70 77 93 75 52 45 48 57 54 61 70 82 110 116 134 135 87 79 120 122 132 151 142 145 143 143 147 151 161 167 161 164 165 165 177 181 174 171 178 178 183 185 193 187 187 191 190 184 181 176 167 166 155 158 160 146 146 144 141 127 113 100 115 106 94 91 80 83 80 73 69 78 76 73 88 94 99 105 94 89 71 67 63 70 75 68 71 94 89 79 84 88 77 87 109 56 44 48 35 67 72 55 64 76 85 126 137 134 96 106 121 109 130 150 136 140 146 147 143 152 158 166 169 164 166 166 178 181 178 180 181 183 185 189 194 190 186 191 192 185 185 186 181 179 172 168 164 157 160 151 146 138 124 93 105 104 103 95 97 78 78 79 74 67 67 68 67 81 77 87 78 71 70 72 72 66 62 82 72 95 101 79 82 94 88 100 93 61 34 51 39 58 80 80 74 60 62 122 138 136 94 107 105 119 131 140 136 139 148 146 148 155 159 161 168 170 165 169 171 177 177 180 183 184 190 192 193 195 190 190 190 187 187 183 182 189 181 182 170 170 170 165 161 154 138 109 88 103 105 104 103 92 78 89 77 66 59 69 63 68 65 67 68 69 87 84 80 81 71 77 86 84 97 87 83 91 97 111 72 52 43 38 47 55 71 95 90 53 59 104 137 136 96 101 98 117 132 132 133 141 144 145 152 155 159 165 168 169 170 168 170 174 179 181 186 185 188 190 193 194 192 191 190 187 187 188 181 183 187 188 180 179 179 180 174 170 159 129 108 93 110 110 123 102 72 96 86 79 70 68 68 70 77 78 88 90 97 102 98 94 86 79 88 90 88 92 90 88 100 109 71 44 53 31 40 42 74 91 92 38 59 92 122 132 106 89 102 122 127 127 135 140 145 148 151 155 161 161 170 167 171 167 169 173 177 181 184 184 183 185 188 189 192 190 186 186 187 186 189 185 186 189 183 181 185 180 181 172 172 155 127 105 103 114 133 135 79 92 114 99 81 85 80 83 94 92 92 96 93 108 110 96 86 92 90 94 89 90 88 84 80 102 87 45 43 40 38 45 52 76 81 40 56 85 117 124 104 100 106 127 126 128 135 136 145 146 150 152 159 159 160 169 171 170 175 172 175 182 183 178 181 184 182 182 191 187 183 182 184 184 187 188 183 189 186 180 186 182 186 181 176 175 151 125 104 113 125 145 121 76 117 133 102 86 104 85 91 104 95 104 102 102 106 105 97 100 101 102 94 82 97 88 79 99 114 55 44 41 38 61 54 67 83 56 61 84 113 115 106 110 115 121 124 127 137 137 142 147 147 155 155 158 164 165 167 169 169 171 178 177 181 184 184 186 185 182 184 186 187 181 183 182 185 184 186 183 185 184 186 182 180 184 179 181 175 153 123 107 120 149 153 120 85 121 131 100 94 108 97 105 105 101 110 108 103 101 101 102 104 115 114 112 93 98 103 100 120 85 39 39 42 45 73 86 84 64 65 84 109 107 113 111 105 125 129 124 132 135 140 146 151 156 156 159 162 166 169 173 170 175 176 177 182 181 179 182 181 178 181 186 185 186 183 180 182 184 182 185 182 183 184 183 179 181 182 184 176 167 141 107 126 139 160 160 136 98 118 127 109 106 107 115 112 102 97 106 101 96 100 102 104 120 114 109 109 86 95 116 115 95 48 52 39 48 71 95 86 60 65 79 104 106 117 110 114 128 130 126 132 132 139 142 149 154 159 157 164 164 170 170 170 175 171 172 187 186 182 178 182 178 178 180 183 184 187 183 180 185 183 183 179 183 184 186 182 183 184 184 180 176 168 142 138 137 144 165 169 157 109 116 127 124 124 120 122 118 116 108 104 106 108 99 105 114 114 110 111 101 70 108 129 92 46 55 56 66 75 79 73 63 62 72 102 115 112 110 124 128 120 124 129 128 137 141 148 155 158 161 163 165 169 170 172 174 175 177 187 181 185 183 186 182 183 183 186 184 187 183 181 186 185 182 180 184 184 187 183 183 184 184 184 182 182 170 155 158 150 152 167 167 148 129 114 110 118 125 124 111 113 106 100 105 103 99 114 111 118 105 100 97 94 91 128 104 42 42 62 79 71 57 58 58 66 71 106 119 109 119 121 123 118 122 127 130 131 140 146 152 160 161 163 165 165 167 170 175 175 180 186 183 183 186 193 189 188 188 185 189 192 185 184 186 184 185 184 185 190 190 187 179 180 185 185 182 182 182 168 165 161 159 152 158 168 153 145 128 114 104 110 103 104 103 94 106 113 117 116 109 110 118 104 88 88 107 116 107 70 38 77 84 65 48 55 60 71 76 103 111 110 121 117 120 121 124 124 130 134 137 143 153 159 160 160 163 168 170 171 175 176 179 185 184 182 181 191 186 190 187 189 191 193 192 185 187 187 186 185 185 187 190 192 184 182 184 184 181 181 183 180 168 164 172 158 147 157 157 157 154 140 121 116 110 105 112 106 111 123 115 116 111 105 109 115 102 84 93 124 97 80 59 78 87 54 46 46 52 75 82 93 112 111 116 117 114 128 121 128 120 132 135 143 155 151 151 155 161 169 171 174 176 175 178 182 184 183 179 186 183 186 187 190 188 190 192 189 185 187 187 182 185 186 189 191 187 188 186 189 191 182 183 182 174 170 174 169 159 151 157 139 148 140 139 137 134 124 129 125 108 130 111 113 107 105 102 114 102 96 86 124 109 69 67 82 86 55 45 44 56 73 73 93 106 107 117 108 101 122 123 123 122 132 138 148 145 138 141 148 153 159 165 167 172 172 171 177 185 180 176 180 181 178 185 182 186 183 184 182 185 187 187 184 182 185 187 189 184 185 188 185 188 185 186 186 177 174 176 169 172 162 161 162 159 154 144 140 135 134 135 129 113 131 118 110 108 106 98 105 99 93 86 116 115 69 56 91 76 59 47 57 73 57 73 99 104 107 111 94 102 118 122 118 124 129 148 143 130 124 122 128 137 133 133 140 140 150 147 143 146 157 146 154 167 173 169 174 175 175 175 174 180 189 185 183 174 179 177 179 176 180 179 178 181 181 178 183 178 177 170 169 170 169 161 165 160 149 149 144 138 134 134 132 115 115 130 108 111 108 105 103 91 92 93 117 102 77 63 76 67 56 42 64 55 46 87 103 100 101 92 87 101 119 116 119 120 136 145 132 119 104 113 112 112 113 109 101 96 99 95 100 96 108 123 123 135 147 151 162 161 163 171 167 173 185 182 178 173 174 171 165 167 171 168 160 165 158 157 169 169 157 156 156 152 157 161 153 154 142 142 149 149 138 132 126 120 108 126 113 111 111 101 100 100 92 92 109 105 65 66 74 62 52 40 53 47 67 97 98 96 93 88 75 99 121 119 121 121 130 125 110 108 98 102 108 101 97 87 81 68 80 66 80 85 84 108 107 115 125 128 142 155 164 163 170 172 173 178 174 168 169 171 162 158 153 155 127 125 121 117 127 120 112 116 121 127 127 133 136 132 134 123 137 151 138 134 127 118 109 119 111 106 107 100 91 84 109 90 97 120 64 69 72 66 57 53 44 67 89 99 94 97 89 75 79 100 124 119 119 121 120 100 92 97 82 88 91 79 80 75 83 81 85 80 83 92 88 98 107 109 111 120 125 146 159 157 163 166 170 172 169 161 163 160 150 136 123 118 107 96 97 87 77 78 78 80 89 93 99 99 99 112 120 117 106 122 136 135 126 116 112 115 114 107 104 92 89 87 90 102 96 112 79 58 66 65 60 62 55 89 91 102 98 94 80 78 78 111 123 115 115 121 106 92 94 90 78 77 76 81 91 94 106 108 114 104 100 101 101 103 103 110 108 126 119 140 155 158 162 165 174 174 170 158 162 147 141 129 118 103 103 98 88 74 75 72 68 73 72 78 87 77 78 94 101 98 110 105 116 133 127 121 114 110 116 104 100 90 75 84 91 99 98 102 103 65 64 56 68 73 58 91 96 96 91 83 83 73 81 114 126 116 117 109 96 89 95 88 86 88 90 102 118 125 133 134 132 124 113 106 97 92 93 98 100 114 122 129 153 162 165 169 179 175 166 157 154 135 127 125 116 105 104 95 88 86 87 99 99 97 97 82 80 76 81 92 89 70 78 96 103 116 124 123 117 111 108 100 102 87 75 76 88 88 104 80 111 96 69 58 71 80 76 88 90 91 83 74 81 69 91 119 125 121 112 105 89 96 93 100 98 102 100 116 120 124 123 116 108 93 88 83 76 74 92 96 87 92 106 133 153 161 165 174 180 177 173 159 148 130 119 116 103 102 100 98 96 98 103 114 115 120 122 112 101 92 86 91 92 84 71 81 80 106 113 121 119 110 110 106 99 91 75 69 96 79 90 87 96 99 93 64 65 79 81 73 80 84 79 73 73 79 106 123 120 120 117 96 89 101 103 110 109 109 108 104 98 80 71 51 40 80 51 48 84 77 69 87 97 84 82 123 153 163 175 186 188 181 172 157 143 128 117 100 96 101 100 99 98 95 92 109 119 122 128 130 124 114 104 96 91 85 79 85 77 87 101 113 116 113 115 107 103 91 64 68 85 85 70 86 100 95 98 84 66 70 72 76 68 77 78 73 79 91 118 121 119 116 117 101 96 101 112 112 121 101 92 66 61 78 61 48 19 133 93 39 125 117 78 70 92 95 84 107 143 163 177 188 192 182 172 154 142 125 112 94 98 106 97 86 81 75 53 64 75 85 98 115 122 120 116 110 102 81 81 77 79 70 92 107 113 113 115 104 104 94 67 57 80 77 60 73 96 98 97 102 87 71 73 73 73 72 87 76 96 111 119 124 123 118 117 108 105 106 114 114 107 81 57 34 78 121 76 69 51 47 78 60 144 153 110 81 81 100 96 110 131 157 172 186 194 183 174 149 133 116 100 95 110 109 85 75 102 110 55 54 94 41 39 60 81 98 112 118 118 108 100 89 95 86 75 101 113 113 113 108 102 94 74 51 73 76 62 63 69 88 106 101 95 72 94 84 82 81 87 91 108 117 117 125 122 120 114 117 113 111 117 109 87 61 53 53 92 133 108 72 64 62 69 95 146 148 122 104 85 118 111 118 128 148 168 184 191 186 173 142 125 111 96 105 130 113 78 86 147 137 78 40 121 67 27 55 62 57 66 94 109 118 109 100 99 95 85 99 111 109 117 105 107 94 81 60 51 83 56 73 63 68 88 93 98 85 98 94 101 103 90 96 116 114 122 123 123 121 128 119 123 116 106 91 91 70 62 96 102 119 124 105 95 102 108 124 134 125 120 116 129 129 125 128 134 141 163 181 185 180 168 140 120 111 93 122 148 89 143 111 155 144 79 64 54 64 53 77 101 50 47 56 80 110 114 104 104 92 96 99 108 116 113 110 105 99 75 68 43 80 75 79 69 59 81 76 86 90 98 95 103 97 92 105 112 119 121 124 125 131 143 137 125 110 96 108 114 105 102 118 125 126 123 129 139 138 145 136 142 137 137 144 143 142 139 131 133 139 159 185 178 182 162 134 123 115 95 122 155 112 131 131 121 145 106 82 77 72 73 113 114 79 44 59 60 85 114 111 110 102 101 100 118 110 113 108 110 94 74 75 48 64 87 70 86 73 74 86 90 100 96 95 89 81 98 114 117 122 119 125 125 141 152 148 129 118 135 150 157 142 132 132 140 139 140 146 155 151 144 142 142 148 146 155 142 141 149 137 133 134 154 186 171 183 161 124 120 116 115 117 135 154 134 137 129 130 138 132 117 113 106 120 117 99 72 69 88 71 88 112 111 106 110 106 115 119 115 111 108 102 74 70 58 50 79 81 80 80 72 88 90 97 100 101 99 103 103 112 117 118 122 126 135 147 165 164 157 154 164 169 170 166 161 155 155 159 155 150 154 155 153 150 159 160 156 158 145 146 146 143 132 127 152 192 176 175 154 119 123 114 128 126 120 138 150 143 139 131 140 144 132 143 140 129 131 125 104 104 113 106 83 88 110 112 117 124 129 124 117 115 109 103 77 61 62 58 59 79 84 80 82 86 88 93 94 109 111 92 108 113 113 120 123 126 138 152 159 161 164 167 168 169 171 174 169 162 163 162 154 154 160 160 168 162 162 166 163 156 146 147 144 144 130 125 155 179 176 166 148 117 117 127 130 135 130 133 146 154 149 139 133 140 136 149 148 144 140 138 131 128 130 127 115 99 98 107 118 128 132 124 116 111 114 99 83 67 60 58 62 69 79 84 77 84 93 92 90 79 92 96 102 112 109 118 121 129 138 155 154 160 165 167 169 168 174 177 169 164 166 163 161 160 169 164 171 173 169 167 163 156 146 144 140 140 124 130 153 179 170 164 148 116 118 131 127 132 140 142 145 146 157 157 149 147 148 144 147 146 147 143 147 146 150 154 155 150 129 124 128 135 140 129 118 111 111 101 87 72 63 54 57 62 80 74 77 85 81 85 92 66 97 97 110 112 102 115 122 126 144 147 153 158 166 166 166 172 170 173 172 169 172 169 165 166 170 174 176 175 170 163 161 157 148 140 141 137 127 132 159 183 168 173 150 124 116 132 131 128 137 150 146 144 152 157 151 159 162 156 160 155 162 157 159 154 161 164 158 160 159 142 137 137 138 134 122 114 108 110 88 68 68 64 51 52 68 68 82 88 74 79 90 68 90 101 110 100 103 114 118 129 140 149 147 156 165 166 164 171 169 173 174 173 171 168 176 175 173 173 180 176 169 166 165 155 139 142 143 135 128 148 165 184 167 174 160 124 121 129 132 131 136 144 151 149 155 160 156 156 162 165 172 170 164 167 165 167 163 165 166 163 155 152 148 142 136 133 124 108 109 107 94 69 62 72 60 51 51 64 88 81 65 82 89 70 84 112 105 82 105 115 117 127 136 146 140 146 159 155 164 165 169 171 171 172 174 172 179 179 169 172 177 179 173 162 165 157 144 140 141 137 136 151 177 182 170 170 160 136 133 129 134 132 133 137 147 151 161 159 157 160 160 163 170 173 175 168 175 173 168 172 170 164 150 152 150 144 140 132 124 110 109 111 94 76 70 80 76 43 57 63 82 73 64 80 89 63 88 108 100 74 95 109 119 124 135 144 140 136 157 150 149 159 162 165 169 170 172 175 181 177 171 173 182 176 181 165 161 156 144 141 136 138 137 151 186 181 167 173 164 143 138 133 134 137 133 136 142 156 164 157 157 162 161 161 163 170 169 169 179 173 167 168 168 159 157 149 146 141 134 127 123 109 106 115 84 78 86 82 83 55 70 59 73 68 67 77 90 80 86 107 92 81 90 114 114 123 129 139 141 134 147 149 147 150 159 162 161 164 168 172 174 175 168 168 178 175 171 172 157 152 146 135 134 140 146 156 185 183 166 167 160 145 139 128 132 137 137 140 147 156 164 159 165 167 168 163 165 164 169 167 168 173 165 167 165 154 153 152 144 137 137 126 118 106 104 107 79 66 92 86 82 79 68 64 73 73 58 82 88 91 84 101 92 88 87 105 115 115 125 137 140 133 143 146 146 149 151 160 160 161 167 172 168 175 172 162 172 173 160 165 153 146 138 127 129 145 148 158 183 186 168 169 154 150 145 123 128 134 138 141 148 159 161 168 165 169 167 163 165 168 166 168 168 168 162 160 159 148 146 146 145 134 134 125 117 108 107 104 71 73 95 86 87 75 68 69 77 71 65 80 84 113 93 98 84 83 92 103 109 117 124 130 133 135 139 142 143 145 146 152 157 162 162 166 168 171 176 163 167 173 161 162 150 140 132 124 131 141 154 159 177 175 170 173 161 152 146 122 127 117 127 139 144 157 161 171 165 170 174 171 164 172 166 160 166 164 152 148 151 142 141 143 140 131 136 124 117 108 102 104 65 76 95 85 93 82 57 71 99 70 62 83 82 125 110 80 76 72 90 103 109 115 122 132 130 133 135 137 144 141 140 149 150 153 165 164 163 170 173 165 165 168 166 162 143 135 132 128 131 143 150 159 191 172 164 174 165 153 145 130 135 125 112 133 151 160 161 165 169 171 178 166 167 165 165 161 158 163 152 144 143 143 136 137 133 131 129 121 117 104 105 99 61 80 96 87 84 94 71 80 110 75 67 82 89 135 115 95 67 60 85 102 107 110 120 126 134 128 137 139 140 147 135 145 148 147 158 164 159 169 168 168 166 160 167 164 135 132 143 138 120 133 148 165 182 179 169 169 155 140 131 135 135 153 118 119 148 160 158 164 171 168 168 168 167 162 158 155 164 160 148 142 138 143 141 131 126 128 124 117 113 108 105 92 65 84 102 81 89 105 85 102 116 65 76 82 84 122 137 106 72 67 89 101 105 111 121 120 136 129 137 135 137 143 142 141 147 155 155 163 162 163 164 167 167 163 166 164 136 137 145 144 122 113 146 162 175 179 169 158 144 125 119 135 135 155 140 113 146 162 162 166 168 168 170 171 169 159 157 155 161 154 141 140 141 143 142 129 126 126 123 113 114 107 101 95 70 90 96 77 95 112 90 116 105 63 74 81 84 99 140 115 68 71 95 102 104 113 116 122 131 134 130 131 134 138 148 142 150 148 156 158 163 172 165 166 165 168 165 154 131 130 142 143 123 94 130 147 160 160 157 144 122 112 113 126 134 143 139 116 134 162 169 166 167 168 170 166 163 152 154 152 154 148 145 126 144 142 135 125 128 127 119 118 112 102 100 94 78 86 74 75 102 123 101 121 89 66 73 81 85 87 136 122 78 84 95 99 109 109 121 117 130 129 130 130 132 138 139 148 149 152 153 160 160 169 166 162 161 167 167 148 120 124 134 130 94 79 113 130 136 139 138 131 114 99 97 111 126 128 128 110 138 165 167 169 167 167 175 167 159 157 156 155 150 145 148 134 137 138 129 125 131 125 117 112 110 103 100 97 86 76 59 83 112 128 113 115 75 63 80 78 83 72 121 121 105 94 96 93 110 114 120 120 128 122 132 130 130 136 140 141 146 155 153 154 159 166 168 162 161 164 176 150 107 115 109 89 39 23 80 112 111 115 115 112 91 55 23 60 100 114 114 99 134 165 171 164 164 170 172 167 164 157 158 150 145 142 143 139 134 128 123 126 126 120 117 108 111 103 98 93 94 84 58 91 114 131 119 102 60 70 78 83 82 73 114 106 133 124 94 94 110 114 117 122 124 124 131 127 128 135 139 143 144 149 153 146 160 168 171 158 163 162 174 156 104 102 102 92 66 40 36 83 95 94 94 86 64 59 74 69 82 103 99 104 133 164 164 165 167 171 172 164 164 159 161 150 151 140 139 135 131 129 126 124 126 120 114 110 108 100 101 90 93 92 66 90 111 125 121 68 60 75 77 84 82 60 122 96 125 149 113 85 110 112 123 125 124 126 121 131 129 133 134 142 145 146 152 148 158 163 166 160 157 165 173 164 121 93 100 114 108 78 66 66 80 78 79 69 88 109 121 118 105 87 91 114 129 152 161 165 161 168 170 160 154 159 155 149 151 144 136 136 136 128 125 121 119 113 115 109 107 105 96 95 92 94 74 99 115 125 109 51 65 78 80 82 86 46 109 118 111 132 121 89 100 114 123 124 124 126 126 128 132 129 135 138 145 144 151 153 151 156 158 158 159 166 170 169 153 105 85 96 104 109 101 93 88 88 89 103 107 113 112 104 101 87 111 129 128 141 158 162 165 166 168 159 154 154 152 147 147 143 141 139 132 130 114 124 120 115 112 114 102 106 97 97 86 101 110 110 125 120 94 51 66 77 82 80 82 54 82 120 109 116 115 90 102 111 121 124 125 125 131 128 126 131 129 137 139 142 146 154 152 152 153 154 162 166 166 169 164 144 125 116 123 133 130 121 120 124 125 119 120 115 116 116 110 119 130 133 128 134 147 157 161 165 162 158 154 159 151 145 145 147 139 138 132 125 117 118 124 119 112 111 104 108 97 91 85 105 136 114 116 114 82 48 74 80 79 79 89 69 55 104 118 108 105 94 98 111 123 124 127 130 129 129 123 126 130 136 139 140 144 151 150 152 152 150 161 168 162 163 157 144 150 143 143 150 149 132 127 135 127 124 129 125 119 123 118 124 132 133 133 140 147 151 164 163 162 159 160 157 151 148 145 144 137 134 128 121 119 121 121 119 113 111 107 103 99 88 78 116 136 108 92 113 73 56 76 78 79 83 82 71 60 83 114 110 110 95 98 109 118 123 123 130 130 125 123 127 132 130 137 135 145 150 150 151 153 152 159 169 163 158 156 145 146 145 147 152 160 147 133 132 125 126 137 132 124 125 123 122 134 135 138 142 147 148 161 159 155 156 157 147 148 149 144 141 135 129 122 124 124 120 120 118 113 114 107 100 100 91 78 119 131 105 108 110 57 65 75 81 81 85 87 72 69 61 104 112 116 101 99 104 118 112 123 128 130 128 123 128 131 130 136 133 142 147 149 151 152 150 155 162 156 158 149 145 144 140 153 152 151 156 143 127 127 134 138 141 127 124 126 131 131 138 140 144 147 153 151 156 152 152 145 146 146 145 141 135 134 126 121 121 120 118 119 115 110 108 102 100 96 85 86 120 123 109 126 79 57 65 77 77 85 86 84 72 75 59 86 110 111 105 94 106 111 118 124 129 132 128 127 124 128 130 134 135 139 139 139 147 147 149 152 152 144 152 146 143 144 139 152 155 148 156 149 130 127 136 145 136 128 128 129 130 137 131 143 141 145 150 149 154 150 148 145 145 145 140 136 137 132 130 124 117 119 122 119 114 114 104 102 97 95 82 83 118 124 107 109 56 57 72 80 78 82 87 79 75 73 64 67 93 101 95 95 110 105 121 121 126 134 135 128 126 124 131 134 134 141 135 128 140 141 143 146 142 140 142 142 139 146 146 156 154 158 162 152 147 143 149 147 145 134 129 132 126 130 125 142 144 150 149 146 142 148 143 144 144 137 138 134 134 133 126 118 116 118 118 115 113 109 100 100 100 92 77 92 126 124 118 77 39 76 75 77 79 84 83 84 72 71 67 69 68 92 85 93 110 111 116 122 124 133 134 129 129 126 129 131 131 137 145 132 132 136 133 143 133 137 136 134 140 145 148 161 149 152 162 156 156 153 168 155 155 146 141 140 137 127 122 127 139 145 143 136 133 134 146 137 141 142 141 138 131 135 125 116 114 121 116 119 109 104 99 100 99 92 69 107 134 124 128 61 49 71 78 80 76 83 84 83 68 74 69 74 71 65 70 80 108 103 120 124 121 131 129 133 129 126 131 134 131 137 147 134 128 121 126 130 132 125 133 135 139 149 151 157 155 152 161 163 165 162 170 164 158 153 153 147 142 131 133 120 132 130 137 136 122 131 132 140 133 138 136 136 133 130 126 117 114 119 116 115 105 101 97 100 94 87 79 109 127 119 111 51 54 73 78 76 84 80 81 86 73 73 71 74 70 69 61 73 103 106 114 122 122 120 127 133 134 126 129 135 138 140 141 132 129 119 120 132 137 125 133 130 139 138 144 137 133 142 146 156 156 151 145 138 128 131 138 141 136 134 140 132 132 129 133 131 123 128 124 138 138 140 137 134 128 133 124 116 115 115 116 114 104 100 102 99 95 84 77 110 116 113 90 42 58 74 79 76 83 83 82 84 72 73 71 74 68 72 64 68 97 106 115 118 119 120 124 131 137 124 133 129 135 137 137 129 122 120 121 134 138 130 133 127 122 120 106 100 91 92 95 106 115 106 95 90 85 85 91 95 108 115 129 133 133 127 123 126 129 125 123 130 134 140 138 136 133 130 125 118 117 116 114 113 104 100 101 96 95 83 73 102 104 88 59 44 68 75 81 80 80 80 84 86 73 72 67 73 71 71 68 57 97 101 115 117 120 126 123 126 133 130 133 130 140 135 139 128 120 121 119 125 125 119 107 102 95 85 76 64 54 62 69 76 79 67 72 70 66 52 53 56 67 83 93 104 116 116 122 122 132 131 115 122 137 141 136 130 134 127 124 120 119 112 111 109 105 98 96 93 95 77 57 77 72 57 41 57 68 78 75 81 82 80 85 83 75 73 71 70 72 67 69 60 79 104 107 112 125 125 122 131 129 133 130 136 138 141 140 130 121 118 117 112 100 86 77 76 80 76 56 32 32 43 63 70 70 46 61 71 72 57 44 34 39 54 67 70 80 103 117 119 126 127 111 119 132 141 137 130 130 126 122 116 111 115 112 109 108 98 95 88 94 71 38 40 51 51 47 63 71 73 80 78 84 83 83 78 78 71 70 71 70 71 73 64 66 100 106 109 119 124 127 128 131 134 130 133 137 143 143 131 122 106 111 99 94 76 62 77 93 96 80 50 49 53 51 53 58 57 62 66 72 80 82 58 53 49 71 66 67 91 107 113 124 120 108 119 139 139 137 133 130 122 114 116 111 114 108 109 103 95 92 87 90 57 35 48 45 51 53 65 72 77 82 75 84 82 84 84 76 69 70 73 67 71 72 65 61 96 100 107 110 127 126 131 127 132 129 135 141 149 142 139 125 121 115 110 121 129 111 102 120 115 118 114 104 95 88 83 81 82 92 91 92 104 106 94 94 94 98 95 102 112 117 117 120 111 112 127 140 138 134 131 131 126 111 113 114 114 110 102 99 90 89 93 80 41 38 48 49 47 57 68 78 74 82 79 78 86 85 88 75 77 67 69 68 73 67 73 56 88 102 96 109 120 123 127 133 124 137 135 141 148 152 132 131 131 127 131 129 132 132 117 115 121 124 130 137 128 140 123 108 111 125 120 134 129 125 127 128 120 114 116 128 131 132 128 119 106 122 133 142 139 138 128 127 126 115 113 116 112 106 102 94 90 90 92 62 39 38 47 55 46 62 72 74 80 77 79 85 81 83 84 76 71 73 68 70 70 70 70 58 89 99 95 105 116 119 126 133 125 134 141 135 145 146 140 131 137 130 132 133 122 118 124 122 119 115 122 129 132 147 135 122 121 143 137 135 134 134 127 124 120 125 118 125 132 131 136 126 123 117 129 141 137 136 129 127 125 116 117 111 110 103 101 89 85 93 84 39 41 43 44 49 52 65 72 74 80 79 79 83 81 87 81 74 72 70 71 71 69 73 69 58 100 95 100 96 113 115 118 127 133 130 134 139 143 139 142 142 133 131 127 136 126 104 108 118 123 124 118 125 126 126 128 125 125 136 131 123 125 125 115 124 117 121 116 107 118 131 134 129 125 119 129 132 139 135 131 122 124 119 116 110 109 106 90 94 91 92 61 38 39 49 48 49 57 70 74 72 78 78 84 82 82 81 86 74 78 68 72 69 70 70 75 56 105 98 95 98 108 112 115 127 129 130 131 133 138 141 143 139 138 125 118 133 132 116 102 102 114 121 124 129 132 127 127 133 133 132 132 127 127 124 116 122 112 105 103 106 123 132 127 128 119 118 133 132 134 135 125 120 124 117 113 107 104 95 93 89 91 82 46 37 44 47 49 50 54 73 74 75 79 78 82 80 79 81 86 74 73 68 73 67 69 72 64 62 106 104 95 96 105 108 119 122 126 127 133 131 136 140 137 136 138 130 118 121 125 135 119 102 94 104 101 107 107 107 103 119 118 113 112 110 110 107 105 108 98 98 106 118 122 127 125 118 117 119 133 128 132 131 125 120 116 117 109 112 99 92 94 90 89 64 35 39 45 50 45 51 59 71 76 74 78 82 82 83 76 85 81 76 75 73 68 72 67 71 65 62 109 104 91 99 103 112 119 116 120 129 127 128 132 133 134 136 137 134 125 120 123 136 133 124 114 100 98 98 91 82 74 81 86 85 85 91 93 95 99 102 100 109 119 123 122 122 120 117 119 123 126 128 125 125 120 118 112 113 107 103 96 93 94 86 86 46 34 49 43 47 46 51 63 73 76 74 76 82 76 83 82 85 84 75 76 74 70 70 70 69 65 67 108 105 96 95 102 109 115 117 115 128 129 126 126 132 129 134 137 137 134 125 125 133 139 141 138 126 119 111 110 107 94 86 83 89 92 94 98 100 105 114 113 117 124 131 130 121 117 120 123 132 131 127 128 123 111 117 113 112 107 102 94 94 93 85 76 33 38 48 45 46 48 58 66 73 76 76 77 79 79 79 84 82 80 76 74 73 75 70 68 72 62 73 106 110 100 90 101 110 113 114 114 120 122 126 123 129 132 135 133 144 133 131 132 132 141 140 137 136 137 126 122 115 108 108 102 103 108 111 114 119 120 118 122 124 127 138 132 121 126 121 136 132 130 127 126 118 114 113 112 109 101 99 95 94 85 89 65 28 43 46 45 49 49 61 69 73 76 76 76 79 81 79 81 83 83 79 74 73 72 69 69 58 80 100 105 108 99 91 97 106 108 118 116 118 118 121 125 123 128 130 131 144 136 135 134 138 143 147 140 133 140 145 132 133 130 126 126 121 129 122 128 126 129 130 129 124 133 135 124 128 128 127 137 134 122 127 122 117 112 109 111 107 98 94 96 89 82 88 50 33 42 46 48 50 54 63 68 77 71 76 78 73 82 82 76 80 84 78 76 71 73 70 64 55 141 160 98 107 106 96 94 100 113 110 117 119 117 120 125 120 122 124 123 137 142 131 135 138 145 153 149 141 142 149 151 152 154 152 153 152 150 150 147 142 140 143 136 137 142 140 136 134 128 130 130 128 120 123 118 119 108 107 112 103 99 99 91 87 81 79 36 41 43 49 44 49 61 71 70 74 75 76 79 75 78 78 83 77 83 77 77 73 69 68 50 109 195 166 89 106 107 101 94 100 110 110 118 117 123 117 118 118 115 118 121 130 135 140 128 138 150 149 153 145 155 159 162 166 167 166 166 166 164 169 163 160 158 157 152 154 156 147 146 136 123 136 136 126 121 113 121 112 110 107 102 101 99 99 90 85 86 74 32 43 41 53 46 50 66 71 71 75 76 75 80 80 77 83 80 79 80 78 77 71 74 45 87 184 212 140 87 109 109 103 99 103 100 110 110 114 122 123 113 114 113 112 120 124 134 135 132 134 149 151 153 158 165 166 174 170 178 173 173 172 175 171 176 174 172 166 163 161 162 154 148 130 131 136 135 124 106 107 105 103 106 102 103 93 100 93 88 80 94 66 34 46 46 49 44 52 68 68 72 74 77 75 78 74 80 78 83 77 82 75 77 73 60 46 156 217 200 115 96 109 114 106 106 102 100 103 109 115 114 116 117 115 109 108 114 120 131 128 134 130 148 149 157 155 166 163 166 170 168 169 174 173 167 168 168 176 171 159 156 155 157 156 143 129 131 135 126 118 108 105 97 99 104 103 98 95 98 88 81 79 81 119 66 42 47 47 50 54 69 71 74 71 78 72 78 75 80 79 79 76 85 77 78 75 40 95 211 228 175 95 110 109 112 112 107 102 100 103 108 110 112 113 111 117 109 104 108 121 120 126 131 135 136 154 151 159 158 156 157 162 168 164 172 173 171 170 155 169 162 154 150 151 153 148 128 130 125 123 114 109 95 98 98 97 104 96 95 96 86 83 81 92 67 116 170 91 39 46 49 56 73 70 75 72 77 77 74 81 75 81 81 78 78 76 80 63 51 149 223 225 160 95 116 111 115 108 110 105 103 102 103 111 108 110 113 111 111 104 105 108 114 116 128 131 131 146 151 151 152 150 151 156 164 163 156 164 161 157 153 154 153 142 148 141 139 131 122 121 120 111 103 102 94 98 94 94 100 94 89 90 86 84 87 88 77 102 133 179 107 41 41 65 70 73 72 79 76 74 75 79 77 81 74 79 81 78 77 48 94 197 218 223 150 105 118 111 116 117 109 107 105 98 106 101 105 105 112 107 110 103 104 100 108 107 119 121 110 117 144 140 138 146 143 152 151 146 150 149 149 141 142 140 136 138 134 129 123 117 117 114 108 105 94 101 91 92 92 90 91 89 85 87 84 83 92 88 78 104 113 140 190 112 39 59 75 68 76 74 78 72 78 77 77 77 78 77 79 81 72 45 150 208 217 221 132 110 120 119 113 118 114 112 108 100 104 98 100 103 105 109 112 109 99 99 94 105 111 119 109 108 126 136 132 132 137 138 143 141 131 136 137 133 135 125 129 125 116 116 115 110 108 107 99 97 93 94 90 92 89 87 85 89 83 84 84 90 87 92 96 91 115 120 144 192 94 46 71 72 75 76 79 72 79 77 77 76 83 75 78 97 99 105 184 207 216 219 119 119 124 123 119 112 119 116 110 106 102 94 101 96 100 100 108 107 107 101 87 96 100 105 113 106 108 121 122 118 126 127 129 135 125 122 126 125 122 118 117 110 105 113 111 100 102 95 92 90 92 85 81 92 86 84 84 86 83 87 88 92 87 88 104 100 106 118 113 163 184 72 59 73 74 75 78 74 76 81 77 77 82 74 80 176 193 185 190 204 214 220 119 113 128 125 122 113 115 119 115 114 107 97 91 96 97 92 106 95 97 103 94 88 91 92 107 102 100 103 111 105 113 117 112 122 122 113 112 115 113 112 109 98 102 102 101 94 93 91 90 83 85 81 76 87 84 80 79 82 83 89 92 87 88 90 105 111 121 100 112 120 206 135 55 69 72 78 75 78 71 78 76 75 77 75 79 201 201 190 195 208 211 225 130 108 132 129 121 117 117 117 122 116 112 104 98 92 97 94 99 97 98 94 99 88 82 86 95 95 96 93 97 101 105 109 104 111 110 105 104 102 110 104 104 93 95 99 94 94 85 85 79 76 79 80 80 76 81 79 80 87 90 90 93 88 90 95 108 125 129 107 99 104 176 207 84 53 72 78 78 75 74 75 80 75 75 78 74 206 197 189 199 211 208 228 134 98 136 133 126 122 117 112 118 116 114 108 101 93 96 94 91 94 98 88 93 95 87 82 87 87 90 90 86 92 95 102 99 101 99 97 99 94 102 89 94 91 89 86 88 84 78 75 80 70 77 76 81 80 78 80 83 91 90 91 93 89 95 98 102 130 145 119 106 95 151 209 162 58 67 75 75 79 74 78 76 76 80 75 79 207 190 193 203 212 207 229 131 103 139 136 131 122 119 120 118 116 118 115 104 103 94 97 92 90 95 88 90 92 91 82 82 83 80 87 83 87 86 92 88 89 84 91 90 85 91 83 83 76 86 74 80 75 74 73 82 75 73 82 76 85 79 85 85 88 91 93 89 93 100 106 98 117 149 150 108 92 142 190 207 108 53 81 73 77 76 80 75 72 82 75 77 171 190 202 206 211 206 229 147 98 141 139 137 127 121 124 118 117 119 113 113 109 102 96 90 95 85 91 89 92 93 87 91 86 86 76 81 79 79 87 84 85 83 89 84 84 76 83 80 75 77 73 73 75 76 78 77 76 83 83 85 80 87 84 87 91 94 89 92 95 103 108 108 84 129 168 144 78 134 190 198 186 63 71 75 73 79 77 75 76 78 76 77 157 200 203 206 211 204 226 167 99 142 140 138 134 124 123 119 119 119 110 118 104 108 99 90 94 92 94 88 88 91 87 92 92 87 89 78 82 79 80 84 82 80 88 83 78 73 82 77 79 76 80 75 80 80 78 81 80 83 86 86 84 87 89 88 92 92 90 98 100 111 107 117 78 78 170 158 97 136 178 198 206 129 50 75 75 76 73 80 76 76 78 71 