P2
92
112
255
38 41 37 39 37 43 40 38 39 44 38 39 41 47 38 46 40 42 44 41 47 39 47 60 74 63 44 38 49 47 59 64 53 45 41 52 62 47 61 76 67 75 91 87 99 77 67 60 57 49 62 67 62 65 69 67 60 42 60 49 53 54 34 69 57 50 60 69 68 50 47 64 64 54 60 72 53 54 39 46 38 40 37 36 40 36 35 38 36 42 38 34 42 39 39 41 37 41 38 43 38 41 41 41 37 37 43 42 42 43 39 62 58 43 49 67 55 46 43 46 59 50 56 70 48 44 44 64 81 43 80 77 87 94 104 95 89 68 67 54 68 64 66 53 62 59 60 73 73 67 50 53 49 67 45 69 50 56 77 57 79 70 59 55 61 49 53 67 52 65 59 47 38 39 39 38 36 40 36 36 40 37 34 41 39 43 40 39 41 36 40 39 42 39 40 40 39 42 42 42 40 42 54 54 85 38 44 68 49 46 49 63 53 56 74 63 47 41 49 56 79 54 82 76 92 99 88 90 84 66 79 77 91 72 55 51 55 62 55 70 74 70 66 49 35 80 49 56 59 62 84 59 84 71 74 70 41 50 68 51 58 52 57 44 48 40 37 44 35 39 41 37 37 42 36 39 34 42 39 38 41 42 37 41 43 39 39 44 39 41 47 43 40 55 52 46 96 49 61 68 56 48 47 56 53 54 63 54 50 45 56 65 79 71 83 79 90 88 79 87 93 87 87 80 79 66 58 51 55 54 51 63 75 75 70 53 41 67 76 45 40 84 57 65 76 79 71 67 54 58 71 43 54 48 43 42 46 40 40 44 36 42 38 36 39 37 40 37 37 42 41 39 40 39 42 35 42 39 40 41 39 42 50 46 54 58 51 55 100 79 54 73 61 49 42 43 56 43 56 54 62 54 66 74 87 88 92 84 82 89 79 90 94 88 94 77 64 65 62 69 65 52 40 64 85 71 73 62 49 60 73 62 44 67 59 50 59 76 78 91 61 59 74 63 49 48 38 44 42 35 40 38 41 38 38 39 35 40 39 38 39 44 39 42 39 38 41 39 42 42 39 44 42 48 38 65 52 58 77 76 107 89 63 83 42 35 45 38 39 54 62 60 74 60 75 76 127 100 90 88 74 77 97 93 101 94 89 96 86 81 83 88 78 53 49 58 96 67 74 65 64 62 67 73 63 60 65 65 55 53 75 73 86 79 72 68 39 53 44 48 42 43 40 42 40 44 37 42 36 38 38 37 42 39 40 42 40 41 40 37 44 39 39 40 48 49 48 77 58 91 95 75 106 81 47 85 34 38 55 43 34 69 70 74 78 77 67 107 133 98 89 111 88 73 113 94 98 97 89 102 104 105 103 95 91 89 78 52 86 70 79 76 61 68 63 70 71 65 67 64 68 59 78 78 82 62 78 66 38 76 47 51 44 50 52 48 48 45 42 35 42 40 38 39 37 43 38 42 40 42 39 41 38 44 46 51 47 49 56 68 109 103 88 77 104 71 62 71 48 44 65 50 31 70 82 92 79 92 71 106 117 98 98 119 82 97 120 104 105 105 90 104 105 117 111 106 107 102 85 77 82 78 84 86 45 84 60 63 70 81 65 62 61 62 70 99 83 60 68 62 53 89 55 50 49 49 49 47 50 48 43 40 38 39 45 38 40 44 40 39 41 40 39 43 46 54 62 50 40 57 68 103 106 81 96 92 91 77 74 60 54 46 76 53 40 73 89 106 85 95 94 92 106 101 105 100 84 127 116 111 116 89 92 117 122 122 120 111 126 108 97 84 94 78 92 79 56 87 64 68 80 82 84 80 80 75 71 106 78 57 62 60 50 66 73 67 47 45 52 54 49 54 42 42 41 41 45 37 42 41 43 42 41 41 38 42 75 63 57 39 51 66 94 98 69 89 133 69 86 79 72 62 66 59 87 52 52 77 93 108 99 99 100 97 103 88 93 87 102 129 121 112 126 96 102 120 126 134 128 123 124 118 100 98 92 77 100 78 72 79 72 88 76 96 93 91 112 70 81 124 71 56 48 53 47 52 64 72 68 40 59 63 55 57 46 47 40 46 39 44 39 43 41 42 37 44 44 68 73 50 46 55 60 89 77 81 35 160 116 32 107 96 72 74 76 71 90 60 56 91 96 102 99 107 104 103 111 99 102 104 104 134 133 120 109 110 95 121 127 142 126 133 118 115 115 104 91 100 92 92 75 85 84 91 96 94 103 83 103 74 96 106 45 51 50 46 63 35 77 43 80 52 48 52 54 59 58 49 47 42 49 34 39 42 42 38 40 54 71 78 47 49 73 71 66 99 72 54 64 158 64 44 120 89 82 85 83 84 87 83 67 88 100 112 105 102 110 107 110 99 110 116 105 139 136 123 109 107 97 118 130 137 118 136 138 132 130 116 93 100 91 94 94 87 91 99 100 106 96 66 91 70 100 84 38 55 75 64 56 33 86 43 55 47 51 45 54 49 53 50 47 48 45 49 41 40 43 41 45 78 80 45 54 80 97 60 76 108 75 51 92 97 70 78 103 84 98 94 94 95 97 94 75 89 98 119 104 104 102 116 109 99 108 123 106 141 132 126 123 113 97 114 134 136 125 134 141 141 133 125 80 91 99 114 108 93 95 98 104 113 76 82 87 88 99 87 57 64 90 79 48 42 75 54 48 41 50 41 53 51 55 55 46 45 49 45 47 42 42 46 73 81 36 58 70 90 78 51 116 97 81 57 91 75 89 93 83 98 112 105 107 111 106 99 90 81 108 114 108 104 106 115 110 87 101 120 113 146 139 133 127 122 105 126 134 129 127 126 134 135 131 119 60 89 99 137 118 102 103 98 110 79 74 82 105 97 90 91 63 71 94 75 42 51 76 55 45 46 43 42 48 54 55 59 52 51 48 48 41 43 46 57 85 51 27 94 66 77 65 81 119 85 77 63 91 75 96 87 85 115 109 112 122 128 111 97 103 78 113 118 109 102 111 111 122 88 85 116 118 149 147 140 131 123 124 130 134 126 128 127 127 131 131 119 53 89 97 147 131 105 102 109 115 54 86 80 96 98 93 97 57 93 95 71 59 62 81 51 45 48 42 46 52 54 54 60 52 53 53 56 47 39 59 59 76 35 80 84 63 62 102 101 99 79 73 81 105 79 111 68 101 120 100 116 142 127 112 106 106 94 109 116 119 109 113 123 130 99 65 119 125 147 152 150 139 127 132 137 140 131 135 125 132 133 130 118 63 87 89 154 127 102 100 124 110 56 75 66 72 89 92 94 75 90 85 72 85 87 87 48 52 33 50 48 46 56 62 55 56 53 62 58 42 34 50 59 42 96 93 51 56 139 125 92 75 97 66 95 107 88 109 64 114 117 104 133 139 119 133 110 98 104 102 102 116 111 104 128 116 102 76 115 152 150 157 154 144 126 140 138 146 141 130 130 135 130 130 104 73 87 86 148 118 115 95 134 118 57 75 66 72 84 97 106 76 89 66 96 84 108 95 47 56 36 39 48 42 54 54 53 51 58 65 55 26 44 55 54 66 88 61 41 113 155 118 72 79 89 76 99 96 109 126 77 107 125 121 134 124 135 131 108 94 106 106 86 114 112 114 111 107 84 83 129 152 159 162 157 145 122 141 148 146 139 133 135 137 132 130 109 96 104 89 142 110 118 89 132 134 64 71 87 89 91 104 123 99 95 71 109 80 120 85 43 61 36 46 46 47 52 56 56 66 78 69 60 28 36 82 60 79 60 73 88 135 165 103 70 93 85 83 103 97 117 138 94 100 128 122 140 133 138 117 110 102 110 97 88 88 94 105 105 90 72 100 129 139 145 149 152 148 130 141 149 144 139 136 138 136 137 132 120 125 124 112 131 99 118 92 129 136 98 57 104 97 111 113 128 121 99 84 107 84 106 87 41 55 36 46 43 40 46 51 58 73 70 68 70 43 28 103 71 66 62 112 84 153 165 89 84 96 109 97 98 125 121 134 125 106 120 134 151 145 129 122 119 111 104 102 95 89 88 86 93 82 81 102 122 133 137 141 138 139 131 141 144 146 148 151 152 148 150 143 140 145 138 128 116 98 117 94 129 136 125 75 63 93 112 128 127 129 113 98 89 90 91 89 53 53 57 53 39 43 52 50 69 63 53 60 61 49 38 83 78 64 85 93 111 167 143 76 98 115 115 120 100 131 127 124 127 108 113 136 148 140 137 144 116 122 96 103 101 102 93 96 100 86 93 110 123 131 138 136 134 136 140 138 135 145 139 145 145 144 150 148 145 156 150 138 98 111 115 97 121 148 135 116 70 51 75 125 123 128 124 115 79 93 71 85 61 56 71 69 56 44 45 53 69 63 55 62 54 48 41 79 82 80 85 85 157 154 103 69 135 123 111 134 99 112 130 126 132 133 114 130 142 154 157 146 122 125 112 121 122 130 130 130 137 126 137 136 143 142 144 138 143 140 143 145 147 141 146 147 151 149 145 149 149 149 149 133 105 117 108 104 113 149 137 141 118 91 76 81 104 114 122 115 103 78 78 69 72 61 61 74 66 68 59 68 66 68 75 69 76 38 52 84 90 81 50 114 155 150 77 86 146 106 122 122 101 112 126 132 152 145 136 150 144 154 159 148 132 125 133 141 144 154 150 154 146 143 147 153 151 148 149 153 148 147 144 150 150 147 147 149 155 154 150 152 147 152 150 134 119 120 104 99 125 135 140 138 136 127 121 103 97 94 95 116 111 82 68 62 75 70 55 74 74 77 67 72 69 72 76 80 73 41 52 89 82 61 76 136 134 135 89 97 130 100 140 113 107 126 140 136 166 149 163 165 155 159 158 159 149 144 150 146 153 157 154 157 154 149 156 152 152 146 148 155 155 153 149 149 147 150 146 151 153 160 152 156 150 149 153 139 130 116 112 110 118 136 128 137 136 136 137 127 121 105 117 131 126 120 62 53 86 92 74 68 65 65 71 75 65 60 63 69 76 37 64 93 69 57 106 135 111 109 115 101 104 126 136 110 118 135 141 154 164 155 170 162 161 162 168 169 165 157 158 155 160 163 165 156 162 166 168 158 157 147 144 151 151 152 150 153 151 151 151 152 155 158 153 159 158 147 153 144 137 112 114 121 123 137 134 132 135 139 142 136 134 125 122 123 133 135 102 41 75 98 95 89 73 78 69 76 68 65 53 71 62 48 75 84 76 57 105 121 109 117 109 97 100 151 109 130 124 142 133 165 160 165 166 163 163 167 166 169 171 166 166 162 166 176 167 166 167 174 173 166 161 155 155 158 148 158 153 152 143 152 155 151 150 159 151 162 154 153 150 151 137 112 117 131 138 129 136 136 135 138 139 149 140 129 135 125 128 135 128 76 57 98 96 98 91 80 71 75 73 71 66 74 75 49 86 78 68 76 84 110 90 131 85 87 121 151 110 131 129 143 141 165 175 164 157 165 159 168 165 166 167 164 168 168 168 179 175 173 166 176 173 173 169 169 168 168 168 161 168 160 149 157 160 152 158 159 163 172 160 153 154 151 145 124 121 140 138 136 136 141 135 140 136 146 148 136 137 132 130 128 138 121 62 70 96 110 107 94 77 76 86 66 81 86 64 29 101 67 67 83 82 96 90 131 76 88 146 142 126 127 125 137 154 165 186 165 154 159 163 169 159 161 156 166 166 172 170 176 180 185 177 176 180 176 173 180 179 183 179 174 176 176 164 162 167 163 157 163 165 172 175 167 154 157 145 131 135 138 146 145 138 137 140 140 140 144 144 144 147 138 134 129 138 137 97 63 68 108 119 95 81 79 86 73 74 87 98 46 76 64 62 83 77 71 97 93 93 102 150 142 132 129 117 142 155 161 176 164 156 160 170 167 147 153 173 165 169 179 173 181 183 185 183 178 179 175 176 184 179 191 185 184 184 182 177 174 172 179 168 178 176 173 188 182 169 163 159 153 147 144 148 153 139 142 141 139 144 140 145 140 144 141 138 128 139 137 129 87 76 88 92 89 82 75 79 89 95 115 107 58 67 59 71 80 83 70 89 66 104 136 136 155 134 119 125 147 160 163 163 157 164 169 171 154 145 164 184 172 170 174 175 179 184 177 168 162 169 160 159 173 177 179 184 180 182 176 170 183 186 179 167 186 181 182 195 190 185 177 172 171 160 147 152 153 144 148 142 139 144 141 146 137 144 143 142 136 137 139 135 130 103 110 97 92 79 78 88 91 95 79 106 26 76 73 87 83 74 82 72 92 115 152 125 164 133 118 119 154 168 159 160 154 172 173 160 146 158 152 151 145 135 137 137 134 137 123 125 122 120 141 123 150 160 163 165 164 166 166 170 180 197 175 166 175 169 184 183 183 175 176 178 175 164 154 152 152 146 149 145 142 142 140 143 142 140 145 144 137 143 139 139 141 131 115 106 109 90 83 96 81 74 75 94 41 73 87 109 73 63 79 106 89 128 147 133 160 132 98 126 162 168 155 154 158 183 166 155 137 149 132 133 111 102 107 98 98 109 76 83 89 99 122 114 121 132 147 142 148 159 167 165 177 188 170 165 155 164 176 164 168 164 163 164 172 160 151 154 156 148 144 147 143 140 144 137 141 141 138 141 138 144 135 141 143 135 122 113 104 101 76 91 91 83 86 92 51 74 87 88 85 80 101 111 73 152 177 123 168 119 92 134 168 166 152 153 169 161 140 123 129 129 111 109 106 79 85 74 65 72 63 74 71 99 109 112 115 111 121 126 139 152 164 171 173 179 167 157 145 164 167 152 154 150 145 148 147 143 143 153 148 143 146 143 144 142 140 141 138 140 140 136 142 143 140 138 145 137 137 112 107 98 104 88 100 82 88 93 65 74 81 63 78 88 106 65 90 170 168 127 180 109 88 141 171 161 152 159 166 138 122 124 113 102 97 97 85 81 75 69 68 74 69 77 91 96 100 103 113 101 117 117 141 153 164 171 169 179 160 154 143 155 150 146 135 128 119 111 106 105 112 125 125 128 135 135 135 139 139 138 130 135 142 133 135 144 141 139 142 140 138 115 114 111 88 90 108 74 87 80 57 84 76 71 80 81 76 39 166 174 144 139 169 93 93 156 164 153 155 163 145 123 124 128 110 104 111 97 108 105 106 101 102 102 90 83 95 98 101 107 113 107 123 126 153 162 173 178 167 173 164 152 146 145 141 131 108 116 104 94 89 83 80 85 96 92 99 104 113 118 136 128 126 125 135 143 130 145 140 138 139 142 139 115 121 104 91 82 99 98 79 84 51 66 65 62 60 59 32 102 186 164 130 152 150 87 102 161 157 150 157 152 119 122 125 108 113 124 123 133 132 132 135 133 134 124 117 101 103 92 94 102 111 120 139 145 162 176 183 179 168 177 165 142 146 144 140 122 104 114 101 92 81 73 66 64 66 72 68 70 86 90 103 112 117 116 119 141 139 133 140 138 139 141 135 117 121 115 70 108 95 104 97 83 55 67 59 52 65 44 32 141 173 150 135 146 145 84 122 159 155 153 160 141 123 127 130 114 127 142 146 145 145 146 146 142 145 133 127 113 105 92 91 96 102 120 145 161 180 192 187 176 174 180 165 150 146 152 135 122 118 111 101 91 77 72 64 61 61 62 57 57 69 84 89 88 110 107 95 121 145 135 135 135 137 144 139 125 118 123 78 103 114 117 105 89 46 64 81 63 51 45 81 154 161 138 142 145 141 81 139 161 152 159 147 141 123 132 133 129 150 167 160 155 142 140 135 123 115 105 96 81 73 79 96 100 109 119 141 169 183 195 193 185 180 178 159 151 152 153 145 124 120 102 89 84 74 68 70 61 75 69 77 67 68 81 89 78 108 96 104 104 136 144 134 132 134 139 139 129 121 107 111 64 130 114 120 92 62 75 68 61 58 72 96 180 144 136 140 144 116 97 153 161 158 151 144 146 130 143 156 154 159 165 141 133 111 90 93 72 89 71 74 71 79 64 66 104 111 135 145 163 180 195 198 181 181 169 153 154 161 159 151 124 107 90 83 79 85 84 93 95 103 107 99 94 88 77 87 71 103 98 101 125 118 144 134 133 134 134 142 132 110 100 94 92 103 139 120 113 77 74 65 56 77 65 142 169 146 120 152 135 95 114 157 159 157 148 150 140 141 146 163 158 148 135 96 86 76 44 76 37 76 82 30 73 86 63 63 86 120 131 166 159 168 186 190 174 173 163 145 152 162 156 142 121 89 83 83 92 102 108 109 127 127 123 125 122 114 97 87 76 83 103 106 114 114 133 142 133 131 135 140 132 111 107 73 106 103 110 145 131 70 47 53 72 79 77 176 173 133 130 145 110 96 128 164 161 159 156 161 149 155 163 167 144 112 83 59 59 93 48 80 39 24 49 59 86 134 77 51 68 124 136 158 166 162 176 187 172 167 156 148 151 152 149 124 109 82 83 93 93 91 92 102 120 131 132 130 131 125 117 101 86 85 109 119 109 103 123 139 135 129 136 138 137 114 101 72 94 113 98 136 150 64 62 75 90 77 114 192 146 145 146 119 97 101 147 166 160 157 154 169 158 165 171 153 112 59 51 62 66 157 98 70 63 32 66 73 108 144 102 89 44 129 156 148 164 164 166 184 168 165 144 141 152 142 135 118 99 75 102 91 75 84 91 92 102 109 112 126 131 131 127 127 110 101 109 125 113 103 115 134 133 127 131 137 135 111 90 78 84 105 111 111 157 92 82 76 97 93 159 147 130 163 131 92 90 120 157 162 157 163 159 167 169 164 161 108 65 65 85 127 118 143 177 76 74 65 91 64 137 139 107 119 80 144 167 151 167 159 162 176 164 155 144 135 147 137 127 117 83 119 99 70 65 87 72 39 92 64 89 96 100 119 128 132 126 121 107 115 118 99 107 136 135 129 126 137 138 106 82 82 87 92 112 104 133 95 82 77 98 134 134 132 147 145 98 84 106 130 166 161 160 166 181 172 169 156 117 101 110 137 130 143 161 142 165 131 115 117 135 117 134 130 127 128 142 167 162 164 158 161 157 165 163 148 139 142 141 132 131 120 107 154 56 49 92 145 74 35 115 73 32 53 89 94 93 121 128 116 115 108 118 112 102 127 127 128 126 143 138 104 75 97 91 91 94 110 108 95 97 100 113 130 124 141 137 109 87 89 112 147 164 164 166 178 192 181 166 150 140 153 157 156 160 161 171 164 162 139 138 131 133 124 127 136 137 144 155 163 161 164 160 157 153 168 166 150 129 147 134 127 135 120 142 130 86 94 124 163 71 58 53 21 34 48 87 70 89 76 117 124 132 124 124 114 117 119 125 130 127 142 137 96 87 102 97 97 71 117 104 97 108 103 113 115 125 136 103 74 98 96 126 158 159 166 169 188 193 184 170 169 175 178 167 170 170 172 168 171 170 159 160 154 147 136 142 146 150 161 160 164 167 161 161 159 155 162 164 149 126 144 133 126 134 129 142 138 109 102 131 156 84 76 47 37 59 47 133 59 65 59 69 113 132 132 132 127 120 136 129 127 129 142 132 89 92 109 93 99 72 97 122 100 107 111 110 118 129 107 69 85 108 105 146 160 162 161 175 188 193 180 176 177 182 180 176 178 184 184 180 182 178 164 168 162 157 156 150 163 158 167 162 164 162 165 167 157 150 159 161 149 125 140 129 127 135 140 134 130 126 108 123 130 117 95 80 67 59 81 140 92 55 61 42 78 127 136 141 130 135 140 133 129 133 143 130 89 90 117 90 94 85 79 127 92 93 107 103 113 93 80 63 113 121 111 159 159 158 160 179 189 190 180 175 178 182 179 181 181 179 182 178 181 176 172 173 163 161 166 157 169 167 166 162 165 162 167 169 152 154 156 157 147 131 138 124 133 136 139 144 126 120 123 121 112 128 132 119 107 98 120 122 107 109 63 64 47 107 136 149 142 128 140 133 131 136 141 129 77 103 127 93 83 91 71 126 110 94 104 91 85 71 96 64 127 113 132 158 157 156 166 184 185 185 179 180 179 173 179 182 177 172 174 174 183 170 163 168 160 167 170 165 171 174 176 165 164 166 171 160 150 162 161 152 150 138 139 124 131 141 134 144 137 129 128 125 121 111 131 122 119 125 130 132 137 138 115 90 73 76 114 150 146 135 137 138 129 132 141 121 89 110 124 105 98 100 72 109 111 96 98 81 75 86 74 76 131 105 140 154 151 160 170 182 178 179 184 184 180 177 181 180 171 175 170 176 167 171 157 167 167 170 167 174 170 176 180 167 164 170 165 157 153 160 167 155 148 139 131 130 126 140 138 139 143 135 132 125 137 123 122 125 125 133 135 134 146 143 124 125 116 89 86 127 155 145 147 156 138 126 139 119 96 114 107 99 113 113 76 103 105 91 78 79 80 86 68 102 121 118 146 149 153 157 174 174 173 179 184 187 176 182 175 183 171 172 171 168 163 168 164 164 162 168 164 173 180 179 182 167 171 165 160 157 159 169 165 160 144 139 137 130 131 135 143 139 141 141 136 129 136 128 140 136 135 135 142 143 144 146 145 146 143 129 106 104 143 157 162 165 146 125 137 117 96 116 103 98 126 127 63 107 107 97 86 92 89 82 91 110 133 132 146 151 152 162 168 170 172 185 183 197 168 187 182 181 178 174 174 168 166 167 169 165 159 173 169 176 188 180 178 167 168 168 156 161 164 168 163 166 149 135 140 133 130 134 143 139 144 143 142 136 138 129 137 138 146 146 149 154 149 150 153 155 156 157 142 118 132 154 164 169 149 128 138 120 91 120 114 106 132 107 64 100 99 107 109 99 89 90 102 110 133 126 147 150 151 161 162 166 175 181 188 202 187 188 189 187 179 181 176 173 172 172 170 174 169 171 186 179 185 187 171 173 168 169 155 164 162 162 159 156 145 139 138 137 131 133 140 141 149 138 145 143 141 134 141 132 142 150 154 157 154 155 156 153 159 155 157 147 140 153 166 170 152 134 138 117 101 118 126 111 115 85 83 90 67 117 130 109 138 129 115 114 107 121 148 148 149 156 158 166 173 177 185 196 193 198 194 194 185 182 186 170 172 176 173 174 172 174 187 185 179 183 176 176 166 158 167 167 161 163 159 159 139 144 135 132 136 131 141 143 153 136 146 143 142 141 138 133 136 139 153 154 153 156 159 151 159 158 152 153 145 159 168 170 151 137 137 115 110 108 98 106 100 77 86 80 69 120 109 100 122 116 116 112 99 121 149 146 150 154 152 170 169 172 178 186 183 196 191 193 189 186 189 175 173 174 176 173 177 176 186 191 177 185 183 169 154 164 175 156 179 165 159 177 152 142 136 136 135 133 140 144 151 147 147 147 141 142 140 135 133 134 141 144 150 154 161 153 155 155 152 152 150 157 160 168 158 139 139 116 93 109 89 105 94 91 82 76 42 127 104 106 102 113 111 98 96 113 148 143 150 152 156 164 170 174 172 176 178 177 185 190 188 194 184 179 180 170 174 173 182 178 186 186 186 185 176 155 159 178 174 140 208 179 167 197 153 136 148 148 134 143 130 146 159 147 150 151 144 143 144 135 138 134 138 142 145 148 155 154 152 153 151 154 153 156 156 163 162 139 135 123 85 109 86 99 83 84 98 82 35 130 97 103 104 108 97 98 81 111 147 139 146 150 164 163 170 176 175 172 180 182 177 183 188 185 189 184 179 179 174 174 181 183 187 178 184 178 160 155 179 186 162 130 171 168 154 156 146 126 169 154 133 149 123 136 157 154 148 149 146 144 144 139 144 139 140 142 150 146 153 155 154 157 152 156 155 156 156 160 161 140 134 133 73 107 77 90 82 79 91 111 31 134 83 102 100 108 97 109 82 112 145 140 141 150 158 168 163 178 173 178 175 182 183 180 185 184 179 183 173 179 171 177 185 184 186 175 185 163 158 177 190 172 146 129 139 145 136 129 128 125 159 133 139 159 137 125 145 156 147 143 150 145 143 151 143 145 147 141 143 152 145 151 155 153 154 155 154 157 150 160 158 140 133 130 89 104 67 83 79 87 89 114 32 144 75 103 95 102 103 116 97 114 145 136 143 151 156 168 170 176 173 173 179 180 190 178 184 186 182 172 182 180 173 175 184 178 184 169 180 157 154 160 155 134 113 114 135 123 114 116 112 121 131 120 128 145 167 139 125 150 145 148 147 144 144 158 140 148 145 142 149 148 144 149 156 154 156 160 164 153 157 161 154 138 135 136 92 106 66 82 82 76 82 105 33 160 61 99 108 98 100 108 115 115 142 137 144 153 154 167 171 176 171 177 170 180 178 182 185 193 180 179 181 178 172 181 175 172 174 162 184 144 142 131 109 64 28 27 103 115 95 95 97 110 119 92 90 117 140 164 134 132 151 150 144 145 142 154 152 146 141 143 150 152 147 151 153 161 156 165 169 164 159 159 151 135 135 129 88 112 77 88 85 74 72 87 38 175 60 102 118 96 78 124 86 122 143 137 141 153 156 164 171 171 174 175 179 183 174 180 188 186 171 185 177 173 174 174 176 164 169 167 173 136 123 104 42 21 14 20 48 116 86 79 82 106 63 23 21 69 114 138 154 126 143 147 150 149 142 156 147 147 148 143 146 149 150 155 153 163 160 162 166 169 161 160 151 136 134 111 85 112 107 70 82 85 72 77 25 181 65 115 140 110 65 127 82 113 147 136 139 152 160 168 171 170 167 175 180 180 177 183 186 186 180 182 181 173 170 169 172 163 164 183 172 124 111 86 32 40 41 82 102 125 91 65 92 109 28 14 19 22 82 110 133 133 139 151 152 147 150 150 148 148 146 146 149 153 152 153 155 166 168 167 168 169 166 159 149 134 132 99 85 112 113 72 81 107 72 79 9 168 83 134 150 120 72 110 98 109 143 139 144 145 166 167 170 169 170 174 175 181 177 184 174 183 179 178 179 177 168 171 163 162 165 189 166 125 102 99 97 102 134 126 108 111 84 63 94 105 102 43 27 39 78 104 113 137 143 147 154 146 154 147 147 149 147 149 149 151 151 153 157 165 167 170 167 169 174 158 147 133 129 95 81 101 132 75 86 106 65 81 13 139 120 152 140 116 82 89 93 118 140 140 142 150 159 163 168 167 168 178 182 173 173 182 176 187 176 174 183 172 171 164 159 161 173 185 158 146 93 89 103 136 174 157 117 104 69 55 76 90 124 118 96 109 101 98 109 138 142 149 149 144 154 151 152 151 149 154 149 153 155 154 156 168 166 165 168 165 173 160 145 133 130 90 72 92 120 98 83 94 76 57 29 78 144 151 132 115 97 102 96 116 138 140 144 154 162 162 167 167 166 175 172 170 170 178 180 176 175 178 178 166 161 163 157 169 186 180 176 150 136 114 124 154 173 150 130 126 107 90 88 93 128 143 106 104 101 100 102 138 146 137 149 147 164 145 156 152 150 149 150 150 157 151 157 162 168 166 171 166 173 160 144 131 126 92 74 99 114 85 95 108 84 45 38 42 150 144 129 118 96 125 117 114 136 139 142 155 165 160 170 167 171 170 175 171 177 180 173 179 176 176 168 166 157 156 160 176 180 180 190 168 165 167 170 172 160 149 142 138 142 122 110 119 131 146 127 102 106 103 108 145 149 137 146 150 153 154 146 153 151 157 152 158 156 156 158 162 168 161 172 170 164 155 145 131 124 76 93 104 107 97 81 109 91 85 55 16 121 149 124 108 97 125 147 116 128 140 140 152 160 166 166 169 172 167 171 170 179 172 181 182 177 173 164 160 159 156 166 181 174 180 183 173 160 173 168 165 170 143 153 137 128 122 127 136 139 132 143 137 141 136 133 148 147 137 142 152 147 156 145 152 152 160 156 159 156 159 160 159 167 161 170 168 158 153 145 132 118 58 85 108 113 111 84 110 116 97 49 19 93 157 130 114 107 113 152 115 126 137 144 151 157 166 167 168 176 162 171 170 167 173 174 177 174 165 159 158 159 160 171 185 182 176 180 166 165 170 170 152 170 154 148 131 111 128 142 147 137 133 131 143 143 146 144 147 145 143 138 141 141 153 148 153 155 155 160 160 163 159 163 165 162 162 165 161 155 155 141 132 108 51 93 120 101 113 92 110 95 48 52 32 62 146 145 125 140 123 121 119 130 135 142 147 160 162 169 164 172 162 175 166 172 171 170 173 169 160 156 159 157 166 174 183 180 178 172 163 164 162 167 160 160 150 134 115 107 139 158 150 137 130 125 140 142 143 147 147 152 140 137 140 145 143 148 150 159 147 158 157 169 152 163 162 160 162 164 150 152 151 140 133 108 43 122 91 108 96 86 116 45 35 41 38 41 146 138 130 162 159 137 112 131 135 145 145 137 164 164 165 168 164 167 163 166 175 172 172 158 157 161 159 155 171 170 173 165 170 169 157 153 162 162 158 158 144 130 117 120 142 159 149 139 120 131 133 141 145 137 147 151 145 139 141 142 142 144 152 150 156 159 157 166 157 164 160 159 163 161 156 149 149 139 131 103 62 110 72 133 80 71 120 33 40 33 36 30 143 136 127 152 157 164 119 125 141 139 143 136 158 163 165 165 166 165 168 169 171 173 168 153 148 163 148 166 171 164 162 167 164 158 153 159 180 160 163 157 154 131 126 139 151 173 153 144 131 129 128 138 141 141 145 149 152 146 144 135 139 139 148 146 152 162 157 160 158 159 154 149 162 161 155 145 138 133 135 100 71 92 79 143 82 85 113 31 31 42 38 27 124 148 130 133 148 158 120 121 143 136 138 149 153 167 162 168 163 160 165 165 171 166 168 138 138 170 145 155 163 155 157 169 161 151 167 172 180 168 160 147 156 141 134 144 146 170 160 146 136 137 133 132 130 135 143 144 150 149 136 138 138 139 141 149 150 159 158 161 156 161 156 156 161 161 149 148 135 129 132 98 84 70 89 154 81 110 84 23 41 44 39 36 81 150 133 138 138 144 114 122 144 137 134 150 149 161 158 165 164 156 168 163 171 168 162 125 162 160 144 149 151 146 161 160 166 159 176 179 174 161 148 147 157 157 143 156 152 160 152 146 142 143 150 138 134 132 134 139 148 149 136 143 135 143 138 146 151 155 163 155 163 156 152 156 159 155 148 150 140 125 127 107 86 67 91 130 102 124 45 27 40 41 45 44 39 137 131 135 153 143 121 115 144 138 145 144 152 157 158 163 169 157 161 167 167 162 142 156 178 143 145 138 140 143 156 164 159 163 165 152 131 114 106 104 112 126 131 136 127 130 120 122 135 149 149 152 142 146 139 140 142 146 129 146 133 135 142 142 146 157 161 161 163 162 150 154 163 158 141 145 135 124 125 113 63 74 79 109 126 103 18 37 43 39 36 56 37 88 132 143 155 152 137 110 139 141 139 147 152 150 155 158 169 157 162 168 172 159 159 174 162 129 144 135 140 143 163 164 155 139 122 106 90 72 62 75 73 81 84 94 92 79 84 84 96 116 134 152 148 161 146 140 141 144 132 136 138 133 144 146 141 154 159 154 164 150 151 154 161 151 135 141 125 125 124 116 39 63 67 118 134 43 27 32 32 33 37 38 39 29 120 143 150 152 142 112 132 135 141 140 151 142 150 160 164 154 159 165 160 154 159 160 151 126 150 140 142 153 156 149 116 91 73 57 50 42 29 52 54 49 53 51 63 51 55 51 65 71 90 117 131 153 153 137 147 147 135 138 134 137 138 145 140 152 155 158 160 148 152 147 158 143 140 132 129 125 124 113 72 60 82 124 99 21 27 32 41 34 39 42 37 23 68 141 129 139 141 115 130 134 142 141 150 141 150 149 159 151 158 161 156 160 160 158 137 122 146 139 147 148 138 112 70 65 46 41 45 49 41 57 62 51 48 40 46 49 39 41 37 44 57 81 98 127 142 134 149 138 129 135 128 138 136 137 142 150 153 151 161 146 155 148 152 134 134 126 126 125 114 105 116 87 98 136 49 16 31 34 51 40 37 39 35 42 25 112 121 121 119 117 129 132 138 143 148 145 145 151 155 158 156 157 155 156 155 151 137 138 142 144 140 120 100 64 50 43 30 24 45 47 38 75 71 63 67 33 66 63 56 51 35 44 36 53 68 89 116 126 133 132 132 138 128 132 140 135 146 152 150 152 156 145 153 148 143 135 126 127 128 126 107 109 136 118 120 125 21 23 32 44 49 35 39 39 37 41 33 37 87 106 97 112 131 131 140 136 150 149 144 148 150 156 159 161 154 156 154 153 137 139 143 137 113 91 52 23 30 18 22 25 27 31 21 50 60 59 60 21 39 49 48 43 22 35 25 26 46 58 81 98 119 124 138 131 132 130 137 146 138 150 149 155 149 146 151 146 142 136 123 133 127 120 105 118 134 115 121 103 17 33 36 42 35 36 35 40 37 42 39 25 38 54 53 86 133 135 136 134 144 148 144 147 154 157 153 159 157 161 154 152 122 132 125 121 92 77 60 27 18 14 22 31 31 39 28 32 31 24 22 22 22 24 28 28 24 23 22 22 20 29 44 67 92 116 122 132 119 124 142 147 145 151 150 156 149 150 138 146 143 134 127 128 124 117 105 125 132 110 136 59 22 37 29 41 34 33 37 37 38 38 35 37 41 50 25 47 137 130 135 129 139 147 146 148 153 153 149 156 158 158 153 150 121 123 119 115 118 143 146 113 95 70 74 106 98 80 86 70 62 67 45 44 50 53 58 56 40 41 24 25 18 12 28 54 79 96 116 130 120 117 137 142 148 144 154 156 151 142 142 142 141 129 128 125 123 116 106 123 134 116 128 31 33 27 34 31 28 34 36 37 36 39 38 40 43 48 40 36 132 130 135 126 136 145 144 148 151 159 152 161 157 158 157 149 122 120 125 132 149 157 164 149 126 128 131 137 145 143 137 132 133 127 115 127 126 128 130 121 115 113 99 87 77 69 87 111 105 101 102 121 122 123 140 141 150 151 148 156 149 144 145 140 137 123 132 120 119 115 104 118 132 120 79 21 40 30 30 29 34 34 37 37 34 37 37 36 40 50 41 33 117 129 134 121 135 144 141 149 149 158 154 155 155 157 155 147 115 133 135 147 159 160 159 156 146 136 137 134 135 139 127 129 132 133 117 131 137 133 118 123 123 116 126 121 105 103 117 134 139 117 100 112 114 131 139 142 143 153 152 152 144 149 140 140 136 128 121 122 116 113 99 106 132 113 31 26 31 29 31 27 35 37 35 36 34 39 36 38 36 44 46 37 99 134 131 124 132 144 139 146 150 152 150 157 157 154 152 137 124 133 147 161 162 163 160 151 148 144 145 142 139 132 128 124 129 131 123 130 130 124 111 120 118 114 124 118 115 121 132 147 142 136 118 112 114 135 138 144 141 149 151 136 144 145 136 141 139 124 117 120 114 111 105 123 135 91 21 27 28 29 32 28 29 39 34 37 38 36 33 44 32 38 49 28 73 135 130 129 127 143 137 141 147 147 151 157 156 150 148 134 128 142 149 162 160 165 159 145 146 136 138 137 141 136 135 131 133 132 130 137 124 126 119 117 124 120 130 130 130 133 134 148 146 143 140 118 110 132 135 142 144 143 157 143 142 145 139 141 126 118 111 124 113 107 110 129 135 71 22 29 30 28 30 32 28 33 39 36 37 34 39 39 33 38 40 39 61 131 129 122 128 136 142 140 144 146 149 152 145 148 146 140 130 147 150 152 157 163 155 139 147 131 128 126 117 115 106 107 103 104 113 111 104 109 110 116 124 120 128 131 127 131 131 138 148 141 148 135 113 130 135 140 141 148 154 149 143 145 139 136 123 114 111 113 115 99 104 123 101 17 29 31 30 29 28 33 32 38 34 41 37 41 34 40 32 36 40 36 42 131 129 119 127 133 141 141 141 142 146 147 147 146 142 137 138 145 143 151 152 153 149 150 143 130 124 126 111 102 95 85 67 72 81 81 80 87 96 98 114 115 120 122 126 129 130 141 143 146 147 133 123 123 131 137 145 144 149 154 145 138 132 132 116 114 112 113 116 79 98 85 31 25 30 30 29 29 34 28 30 36 40 37 38 33 37 34 37 42 35 44 41 127 122 124 128 132 141 142 136 145 144 140 142 145 138 137 139 138 137 149 147 150 151 155 149 139 137 131 122 106 99 83 73 66 65 70 74 78 85 93 103 112 112 119 125 136 133 142 145 142 144 135 134 120 129 140 139 145 146 148 143 132 135 128 115 109 114 124 93 29 47 31 28 33 27 31 29 31 32 30 33 36 38 35 35 35 37 40 34 39 32 34 51 125 122 123 133 130 140 142 134 140 142 144 138 144 137 135 135 141 138 147 148 143 153 154 150 147 147 144 131 123 121 107 101 91 85 76 80 86 82 98 101 113 116 121 131 134 133 138 143 138 145 133 139 125 125 142 140 136 138 149 135 132 129 123 113 110 113 130 65 22 30 29 27 29 27 29 32 30 32 31 32 38 33 36 38 33 35 37 33 37 31 31 66 125 120 118 132 133 135 137 134 142 139 142 138 138 133 130 131 145 138 145 143 146 149 148 150 142 147 145 138 132 126 121 116 107 100 97 90 103 93 115 111 117 121 127 127 134 140 140 127 141 143 132 137 132 123 135 142 130 136 144 131 131 128 115 111 112 118 119 23 24 30 26 33 27 30 29 31 27 34 30 33 37 32 35 38 34 39 33 35 34 36 31 68 125 119 119 132 133 133 133 132 136 139 145 135 135 137 133 148 134 144 138 141 149 151 153 152 142 140 147 131 143 130 129 129 120 122 114 107 111 107 118 115 121 124 125 132 135 146 141 129 140 134 142 138 134 130 128 134 135 129 136 130 125 124 115 109 113 131 68 19 30 30 28 30 33 23 33 27 29 32 29 34 38 35 36 33 39 34 35 33 38 41 16 83 127 115 120 125 133 130 135 138 131 137 134 129 134 140 136 147 136 147 151 146 147 149 149 152 149 143 147 138 145 137 142 142 147 148 146 140 129 119 115 123 125 125 120 128 138 132 141 138 135 141 141 144 136 133 129 128 129 133 136 128 123 117 116 109 109 137 13 27 30 31 27 33 30 27 32 27 30 32 31 31 35 35 36 37 36 35 38 35 36 41 18 96 118 115 121 122 133 126 134 132 136 132 132 136 135 136 133 140 136 149 151 149 146 150 151 155 153 151 144 141 148 143 147 142 149 144 140 141 136 134 124 125 126 128 124 131 140 134 137 137 137 141 143 137 134 139 127 131 129 128 130 123 125 117 115 110 121 98 13 24 30 32 25 37 25 29 30 31 30 30 34 31 35 36 36 36 37 33 39 34 35 37 26 108 113 120 117 125 128 130 136 130 138 131 126 134 130 131 128 134 129 144 153 150 150 151 157 155 152 153 157 158 162 157 158 155 154 147 149 147 149 148 139 133 135 134 132 135 143 139 137 137 136 137 136 135 133 134 132 128 128 129 123 122 120 117 113 110 127 25 23 32 30 29 30 35 25 34 29 30 33 29 31 32 32 36 35 37 32 35 39 32 36 32 21 111 114 119 119 125 124 131 127 132 127 136 126 127 127 130 126 127 131 140 149 146 149 147 159 153 154 163 164 168 165 165 162 158 157 155 153 153 154 153 149 143 144 144 137 144 142 147 141 134 140 143 136 137 130 135 133 129 126 128 123 126 116 118 107 117 88 8 31 29 32 28 32 29 27 32 29 33 29 32 32 31 31 36 34 39 32 38 36 36 36 38 30 116 122 115 121 126 122 127 129 127 123 138 129 126 123 124 128 129 125 135 149 143 147 146 147 153 156 170 165 162 165 163 158 156 149 154 156 155 148 149 143 146 139 144 141 141 142 149 134 136 137 148 131 134 122 132 135 121 127 125 119 123 120 113 105 123 36 20 31 30 30 31 29 30 32 31 31 35 31 31 32 31 34 33 38 38 32 39 33 35 38 35 21 114 121 117 120 126 124 120 130 132 129 130 123 128 127 121 129 123 132 137 140 137 144 147 145 152 164 150 157 157 156 151 154 152 144 145 141 150 146 132 140 142 136 140 143 138 147 144 138 141 138 137 132 119 120 117 130 118 122 126 114 119 116 108 117 91 13 28 30 32 29 29 27 29 26 31 29 27 31 28 31 34 34 33 39 33 36 35 33 35 39 36 27 112 122 123 117 127 122 125 126 130 128 126 120 123 133 117 120 121 126 136 134 133 138 143 149 144 149 147 145 152 147 144 137 138 130 137 135 140 135 136 136 140 133 140 138 141 139 141 139 140 139 135 131 117 114 113 125 121 118 125 116 125 114 103 123 51 20 25 31 31 31 31 27 32 29 29 29 30 31 31 31 35 36 32 38 37 34 34 36 33 38 31 23 111 117 124 123 123 122 122 130 129 127 120 126 119 123 112 120 116 125 128 134 127 135 136 138 119 136 140 140 139 135 133 132 133 121 127 126 128 120 125 127 128 124 133 128 135 134 133 134 138 138 127 121 120 107 118 121 115 120 114 117 122 108 111 114 20 20 34 28 31 29 27 25 32 28 29 28 31 31 30 32 38 36 32 36 34 35 37 30 36 30 28 104 117 116 122 124 122 124 121 126 123 123 121 123 119 115 113 116 115 117 122 121 125 124 132 127 114 129 141 139 125 131 128 125 123 116 119 117 117 117 116 114 117 117 125 121 129 135 124 134 128 129 117 113 105 113 114 113 121 112 120 120 115 103 125 81 14 25 34 29 29 29 30 24 33 28 32 25 32 29 33 34 35 33 34 36 35 37 36 30 32 24 137 133 92 115 126 117 127 123 122 123 125 123 126 122 120 122 118 116 114 111 110 119 118 126 122 129 124 117 129 129 119 118 125 113 115 111 112 112 107 114 109 109 108 112 116 119 117 128 123 124 114 123 107 111 110 105 114 117 116 115 117 116 110 103 127 48 22 28 30 33 24 30 30 27 30 28 31 29 31 29 30 37 32 36 34 31 35 37 36 35 7 143 178 67 79 122 123 128 128 121 123 121 122 123 122 120 117 120 122 116 103 111 104 107 112 118 117 123 125 107 117 113 119 107 113 107 103 103 99 101 103 96 103 106 110 107 108 117 104 120 113 115 116 110 105 110 106 108 111 113 111 111 116 116 109 107 122 21 24 33 28 29 30 30 26 31 24 30 31 28 30 30 34 33 35 38 32 33 35 32 38 14 89 222 133 47 60 127 126 127 125 122 121 111 116 121 123 113 114 119 118 115 107 117 107 106 104 107 112 120 110 109 111 107 112 103 100 98 94 97 94 93 90 87 96 97 102 104 100 108 108 111 99 111 107 103 103 108 96 109 111 109 107 114 115 114 111 117 107 13 26 33 31 27 30 29 27 30 24 30 27 30 29 36 31 35 32 32 31 36 35 36 26 33 206 211 117 44 58 125 126 125 125 123 121 119 113 117 118 117 113 122 108 115 107 115 112 98 98 99 109 111 106 105 104 102 102 98 93 91 86 89 90 94 85 87 90 86 94 96 97 101 103 104 99 105 102 101 102 103 95 104 102 109 109 114 118 111 111 123 85 16 28 30 28 29 32 25 32 25 29 27 27 29 31 31 32 34 32 37 34 33 37 36 12 125 236 174 127 42 56 124 116 127 125 127 122 120 112 118 117 117 115 119 111 111 113 105 114 101 93 91 106 98 99 95 94 93 90 92 86 83 80 82 81 82 79 84 83 86 86 88 92 96 98 95 100 96 94 98 99 92 101 102 102 112 109 118 117 113 107 133 57 14 30 32 26 33 29 22 32 27 28 27 32 28 33 29 35 36 39 36 34 28 35 37 67 200 227 161 137 53 54 123 116 123 129 125 120 119 120 112 122 112 117 114 114 112 106 106 105 103 96 86 94 88 90 88 92 82 85 85 83 76 74 79 76 75 76 79 74 82 78 83 80 90 92 87 98 92 92 94 94 95 102 102 107 108 114 114 117 110 115 118 76 28 27 28 30 30 30 26 30 28 30 27 31 28 31 29 36 32 38 91 90 96 129 164 170 212 221 165 143 63 52 123 119 121 124 126 122 119 120 114 115 112 116 111 109 107 106 103 101 103 103 93 88 88 81 84 82 83 82 79 82 76 80 78 75 75 74 73 73 75 77 71 76 79 87 83 90 85 94 93 96 92 101 106 108 111 116 116 118 112 115 114 56 85 82 35 24 28 32 27 31 30 30 27 31 33 31 35 35 34 36 189 189 192 196 180 197 212 212 191 154 87 42 124 125 121 121 126 126 123 120 119 117 112 121 107 110 109 108 103 105 101 100 95 96 88 82 77 79 77 79 79 74 80 76 79 77 79 68 73 73 77 70 74 72 74 80 80 86 85 96 89 94 100 101 103 107 110 116 116 114 113 125 95 45 61 74 97 86 21 27 31 29 29 27 33 28 34 33 33 34 35 37 197 196 199 199 186 207 211 201 191 166 103 22 122 119 125 122 124 128 122 119 121 118 112 117 112 109 109 111 99 107 103 95 96 92 92 83 74 75 74 73 77 78 77 77 76 76 75 71 72 72 72 73 73 73 76 79 78 87 91 90 92 96 100 108 105 106 112 116 120 118 112 129 78 47 59 64 71 110 128 45 21 28 32 29 34 31 33 32 34 37 37 37 197 197 200 199 194 211 214 183 193 167 139 19 105 122 126 124 125 127 120 124 116 116 116 114 114 106 109 116 100 106 103 99 98 92 96 85 77 74 75 70 72 74 68 77 73 74 74 70 73 70 71 74 72 77 75 81 83 91 90 93 94 94 101 105 109 109 114 116 118 114 115 130 53 44 63 63 70 96 132 163 66 23 31 25 31 31 31 35 33 37 38 36 188 186 199 196 201 212 221 166 193 179 180 50 67 129 126 126 126 123 124 125 118 116 112 108 116 102 110 110 106 109 102 96 96 97 92 84 85 81 78 75 72 69 78 68 71 68 71 67 70 75 68 78 78 77 78 85 93 89 96 96 101 100 104 106 105 111 115 116 117 116 111 134 35 37 59 62 86 95 134 158 185 106 25 26 34 29 33 35 36 39 39 37 182 182 195 195 208 211 217 165 163 194 198 111 27 125 127 126 131 126 127 123 119 117 111 104 112 109 109 110 109 109 106 99 99 98 92 89 91 84 82 77 78 70 77 68 69 71 72 64 76 70 73 79 84 77 84 87 96 91 100 100 104 98 112 106 108 112 115 115 119 115 111 132 23 39 49 68 90 118 135 155 176 191 154 29 23 34 33 32 38 39 38 40 