P2
92
112
255
119 123 123 120 122 119 123 121 120 124 120 121 123 122 124 123 121 119 120 123 119 119 116 117 115 113 115 111 103 102 98 98 83 103 107 89 86 84 83 79 92 80 58 61 81 83 72 70 57 68 65 70 68 86 86 88 93 104 114 111 117 119 121 122 120 115 112 122 116 120 113 116 117 116 114 114 117 115 115 115 115 116 111 116 115 118 114 113 115 116 117 113 117 123 123 120 123 121 125 124 120 122 123 122 121 121 125 122 120 122 119 116 116 117 117 120 124 116 121 102 102 100 93 85 89 90 94 86 85 81 67 71 71 72 71 83 90 83 73 72 74 70 64 62 56 73 78 79 74 86 96 99 112 119 116 117 120 117 117 117 116 118 114 118 116 116 118 117 116 115 116 115 116 115 117 118 116 116 115 114 113 119 113 115 121 125 120 124 121 127 118 122 120 121 123 124 123 118 121 122 121 119 114 112 118 115 115 115 118 115 115 108 98 91 96 96 91 79 69 61 60 56 65 62 76 86 88 93 92 82 74 76 77 77 77 84 63 56 68 82 78 73 65 76 90 108 121 115 115 120 114 117 117 118 117 116 118 115 117 118 116 115 117 117 115 114 116 115 116 115 113 119 112 115 115 112 123 122 121 123 121 125 123 123 121 125 121 123 122 120 121 121 119 111 118 111 112 117 116 116 103 100 110 102 101 58 54 70 95 98 85 80 72 80 74 81 79 83 88 88 72 74 83 76 77 72 74 78 81 61 58 67 82 85 84 66 69 71 98 120 116 120 116 113 116 120 116 114 116 117 115 120 113 116 115 118 114 115 115 113 115 115 116 113 116 113 117 112 126 116 124 119 124 120 122 121 119 120 119 121 121 120 118 120 114 110 107 108 97 116 111 98 87 95 87 121 102 80 66 66 64 69 63 72 74 79 76 78 80 80 71 71 90 82 67 73 75 70 67 68 70 77 53 62 71 75 83 84 78 70 63 93 119 115 117 114 118 116 117 116 117 118 114 121 114 115 115 117 117 115 116 115 115 113 116 112 116 116 117 112 121 119 124 122 123 120 123 120 122 122 121 123 122 118 119 112 103 94 93 99 104 119 111 92 78 79 87 107 113 82 70 67 69 69 63 73 76 67 62 63 66 68 72 81 90 82 73 83 77 81 78 70 67 74 71 53 61 71 82 78 78 81 86 75 96 112 120 116 117 119 115 116 116 118 113 120 114 118 114 116 117 114 117 114 119 117 114 115 118 113 116 114 120 125 120 122 123 121 122 121 124 121 121 121 115 118 108 101 95 90 85 97 105 115 104 90 82 69 91 96 100 105 96 76 81 85 80 78 74 56 54 53 56 60 63 69 82 82 81 92 90 94 96 79 68 80 83 69 47 62 63 83 90 69 82 85 84 100 112 116 118 120 115 114 118 115 116 118 115 117 117 118 116 116 115 117 115 115 117 115 114 117 115 114 123 124 121 121 122 122 119 122 123 123 117 116 110 99 92 88 97 102 104 110 117 118 113 94 96 79 97 90 95 95 71 84 74 88 80 63 49 49 49 40 45 59 55 64 65 74 88 86 89 92 98 92 83 82 87 83 67 71 62 58 71 84 81 91 89 83 95 108 110 117 115 115 118 110 119 115 118 112 118 113 117 114 116 116 116 114 117 117 115 117 114 117 124 119 121 120 123 118 124 118 121 126 118 110 96 88 87 93 107 117 123 120 123 126 122 121 112 101 110 104 97 99 67 67 61 63 58 48 48 42 39 35 38 50 58 62 64 61 79 83 92 89 84 86 96 84 83 89 79 83 86 69 68 68 81 88 90 89 83 84 89 105 114 115 117 110 115 116 117 114 114 114 118 114 116 114 116 114 115 117 114 118 112 116 123 117 123 119 122 123 123 119 128 126 110 101 86 87 82 85 103 116 126 128 134 130 120 123 112 94 111 116 120 109 95 79 66 54 54 49 43 37 34 42 36 47 55 49 79 59 68 79 77 79 76 83 75 91 89 87 84 79 80 80 76 68 77 82 81 88 84 77 71 74 89 107 112 116 116 114 117 114 116 114 117 116 115 116 112 116 116 114 114 116 115 116 122 121 122 121 119 123 120 122 131 123 110 90 93 89 92 92 98 108 119 126 124 120 116 122 122 111 119 127 137 116 98 96 82 67 56 57 53 53 50 48 46 52 62 47 74 75 53 80 80 65 68 80 75 75 75 98 82 92 74 77 70 71 69 85 83 84 91 85 87 84 72 82 105 111 113 114 114 114 120 113 118 115 115 116 115 117 113 117 113 116 114 115 120 120 123 120 124 120 120 125 124 117 117 97 94 97 97 112 116 119 127 126 124 127 128 120 124 112 123 131 143 128 108 109 100 78 67 58 67 55 50 60 63 58 58 56 58 87 62 70 81 72 66 62 75 77 60 71 102 81 101 85 88 79 70 69 71 88 90 73 91 93 93 78 81 103 111 112 115 114 112 117 115 117 114 116 116 114 116 113 117 115 114 113 119 122 120 120 121 119 122 119 117 124 119 109 102 102 107 107 115 111 109 99 109 121 126 104 122 131 135 145 150 144 121 116 112 86 75 74 70 68 61 61 58 58 62 71 69 77 75 73 84 81 87 83 68 82 70 60 95 80 80 109 85 81 82 82 75 70 80 75 86 84 90 91 84 80 101 106 114 113 112 118 115 116 113 115 114 116 116 113 116 113 114 118 119 123 122 120 124 120 120 113 116 130 122 109 117 114 121 118 117 113 112 97 101 120 115 118 145 148 157 162 155 159 142 112 124 102 82 79 82 73 69 81 67 62 68 77 78 87 86 88 81 72 71 74 80 76 85 68 68 92 64 83 105 85 80 78 80 84 73 81 80 85 74 72 80 75 80 93 96 106 111 114 115 114 117 115 116 115 115 115 114 116 114 114 117 125 120 121 122 118 127 108 116 118 131 122 116 121 123 125 112 104 101 91 97 103 115 143 154 156 158 158 157 159 146 130 117 119 98 87 87 86 73 86 89 87 66 84 79 83 84 84 87 81 88 79 76 77 86 84 55 89 79 77 98 102 81 76 76 87 82 78 78 89 84 60 64 65 71 85 75 80 95 100 110 112 117 115 113 113 115 118 111 117 114 114 121 121 119 117 123 127 111 110 101 125 134 125 129 132 127 108 84 98 101 99 109 127 136 152 155 158 153 153 155 147 147 140 130 114 108 95 90 91 90 84 97 94 92 95 97 98 104 90 99 85 83 91 78 81 88 95 68 79 76 86 74 114 96 83 68 87 89 87 83 86 100 72 55 60 62 63 71 76 64 72 81 78 95 97 105 111 115 116 111 114 112 117 122 120 119 119 125 119 109 104 104 122 120 129 131 137 116 98 80 103 108 120 127 140 137 152 168 158 155 157 156 153 147 141 148 129 114 103 89 90 93 81 80 90 85 92 101 108 114 108 110 108 89 86 88 82 86 96 81 80 80 88 78 93 106 96 70 68 87 95 95 91 83 91 71 57 62 65 61 63 66 66 76 75 76 82 85 100 103 100 105 106 112 111 122 121 114 118 123 115 109 100 109 115 114 133 139 127 117 103 101 121 130 135 138 146 153 158 162 161 155 160 165 163 150 138 138 151 130 124 109 104 103 98 87 84 80 91 92 98 112 114 111 103 97 88 91 89 74 84 90 76 88 97 91 94 111 87 105 73 74 93 87 106 101 90 92 73 63 58 57 57 53 56 74 80 79 82 88 91 94 91 95 95 95 90 118 120 118 114 124 114 113 98 110 107 114 139 131 117 112 92 96 132 139 140 145 154 159 151 162 161 166 163 170 170 158 146 138 142 140 137 129 115 109 106 108 104 98 95 108 109 119 126 122 115 106 107 94 92 78 74 93 91 81 96 108 90 102 90 94 103 85 78 94 84 97 99 92 80 73 58 58 50 52 47 56 73 67 74 67 72 76 73 85 87 89 75 117 121 115 119 112 122 111 100 110 103 128 139 121 101 107 99 123 145 145 143 152 154 156 153 163 159 168 166 164 164 162 164 151 142 142 139 141 142 125 122 119 116 119 109 110 97 97 103 100 103 110 111 110 97 86 68 96 100 96 89 114 98 90 96 91 99 93 94 81 95 80 99 99 84 77 69 60 50 40 44 50 51 67 69 64 71 64 70 75 76 67 66 120 117 116 117 111 120 122 94 119 114 144 127 110 106 107 112 132 159 152 147 152 152 158 164 162 161 165 169 166 165 169 171 167 161 158 147 140 131 133 126 123 126 120 112 112 116 95 94 98 95 102 102 102 110 96 86 79 96 100 106 104 106 90 98 94 96 85 104 85 92 83 85 106 88 83 64 67 56 46 35 40 51 58 58 63 67 70 74 75 77 77 74 118 114 116 112 116 104 133 96 117 129 138 109 110 100 109 130 152 160 152 150 149 156 161 159 161 159 165 175 173 171 173 176 176 179 178 176 163 148 133 133 130 130 135 128 123 120 107 103 104 106 108 107 93 108 109 103 76 87 93 96 97 109 102 96 98 88 90 90 98 85 83 78 108 101 77 73 66 65 59 47 38 42 66 57 64 61 55 67 67 78 85 84 114 116 114 114 106 99 118 102 112 150 128 93 95 95 110 141 153 158 151 150 151 154 160 159 157 162 171 178 176 178 178 182 181 184 185 188 195 176 162 150 142 144 139 134 129 134 129 109 112 113 106 110 105 95 115 111 86 80 89 96 95 96 104 96 104 95 83 92 94 91 83 75 90 105 89 68 64 62 66 63 61 51 43 62 63 64 73 70 61 70 70 71 114 112 113 112 97 97 94 115 114 150 113 67 80 101 131 152 157 158 153 151 150 152 163 166 168 171 170 178 178 180 173 179 184 188 187 191 198 193 179 167 154 156 158 152 138 133 138 126 110 118 113 112 104 99 101 128 81 77 79 96 109 98 101 95 106 96 95 101 88 86 84 82 81 82 88 73 70 55 61 65 69 67 56 54 59 63 70 88 67 70 59 59 116 113 108 109 82 85 80 117 132 145 94 84 115 131 145 162 153 155 152 152 155 157 164 170 175 167 170 177 185 181 178 178 183 187 189 193 193 194 189 186 171 165 164 170 155 147 150 151 130 133 125 124 118 102 89 115 119 74 77 83 99 100 77 96 106 90 90 106 90 86 76 79 82 76 75 68 70 67 63 68 70 62 50 61 55 58 62 80 68 74 77 73 112 108 112 100 56 72 79 113 140 148 102 107 121 125 139 160 149 150 153 154 155 155 165 172 174 170 173 174 177 189 185 180 184 187 190 194 193 197 191 187 187 182 178 173 166 156 156 159 149 135 141 133 124 123 89 98 127 92 75 91 83 91 86 85 97 80 76 86 84 75 93 78 70 75 79 70 62 67 60 69 85 69 55 57 56 51 64 83 60 74 65 65 111 103 112 73 42 62 65 104 137 145 96 106 118 132 145 147 146 150 152 153 155 158 168 168 179 172 176 175 179 186 188 185 188 189 193 194 194 195 190 191 188 188 187 187 172 170 159 159 164 145 142 142 140 126 110 91 119 103 82 80 88 66 87 80 84 79 87 79 76 67 70 75 67 65 78 61 52 67 66 62 66 88 67 50 66 49 56 74 75 75 76 70 108 105 96 58 26 60 65 88 134 140 102 104 111 133 145 141 144 149 156 149 156 161 168 168 176 175 176 181 177 185 183 190 189 192 195 197 194 198 188 189 193 187 188 189 181 182 174 166 168 159 154 150 144 137 125 96 104 105 94 80 72 81 71 61 85 73 79 93 87 86 91 64 57 62 74 64 43 67 68 70 65 93 79 71 69 72 55 55 74 73 70 71 103 105 77 43 43 54 65 77 120 132 112 99 118 136 136 137 144 148 155 153 155 166 169 170 178 180 181 179 181 183 184 190 189 192 190 191 192 194 193 186 188 188 188 189 184 187 185 183 170 169 168 157 150 151 124 99 92 105 92 90 78 71 78 61 64 74 69 80 88 94 92 80 64 61 60 77 60 54 76 80 74 85 79 64 77 77 77 54 52 64 75 74 105 91 69 35 40 61 60 86 114 122 110 106 118 132 141 134 145 146 155 155 154 166 167 169 170 179 181 180 182 181 184 189 187 189 187 185 188 187 192 186 186 187 187 186 181 187 186 187 180 182 181 178 167 158 139 115 90 96 106 96 87 76 83 69 60 58 63 65 73 79 76 72 65 60 60 60 70 61 78 82 76 85 79 66 97 61 65 69 47 56 68 72 97 88 42 38 36 66 63 96 114 114 113 112 119 135 138 134 146 147 151 155 153 163 164 166 169 172 176 180 182 179 185 183 187 182 182 183 180 183 190 185 182 186 183 184 186 184 183 183 182 184 181 182 174 169 153 137 102 93 108 113 94 68 83 78 56 60 59 61 63 62 59 63 66 71 63 59 67 70 84 86 75 80 85 82 101 50 55 76 68 56 56 70 99 79 37 35 48 69 69 93 107 116 119 115 123 137 132 135 144 146 152 150 156 164 163 166 173 168 176 178 184 178 182 185 183 185 184 185 183 178 186 182 180 180 182 183 185 186 180 186 183 181 183 181 180 171 170 153 123 99 109 128 123 68 102 91 72 71 65 65 69 74 76 79 89 81 83 70 68 80 77 84 78 86 90 95 78 47 43 88 80 77 72 84 95 59 51 43 65 66 61 94 105 117 126 121 129 138 140 134 140 146 149 152 158 165 163 169 169 172 174 181 179 178 182 182 182 187 186 186 184 181 182 183 184 183 178 181 183 184 181 183 183 186 182 180 184 176 178 170 144 106 105 124 139 87 93 121 91 76 79 76 85 83 78 84 84 94 93 74 75 83 84 80 83 84 93 98 60 48 35 73 81 88 88 89 87 67 67 74 56 62 64 93 115 118 120 131 132 138 131 135 134 139 146 148 159 161 167 169 169 172 179 178 176 181 179 179 184 186 184 178 180 177 179 182 185 184 183 179 181 181 181 183 179 183 180 182 180 181 177 179 166 128 109 122 143 130 65 122 124 86 92 83 81 97 87 98 92 102 101 83 80 87 87 84 83 82 85 96 55 46 42 49 74 93 93 90 85 67 62 68 59 72 71 96 115 119 117 135 132 134 131 137 134 139 141 150 157 163 164 171 170 173 175 179 178 182 180 183 185 189 187 183 182 175 179 176 182 184 185 183 178 183 180 182 182 180 185 180 179 181 179 177 172 145 109 127 138 155 122 82 130 108 86 99 90 91 91 103 101 91 94 92 85 93 89 71 84 76 75 100 66 41 38 41 67 77 92 89 79 62 59 68 63 72 77 93 106 120 133 127 128 131 132 135 136 142 142 147 153 160 167 169 170 172 172 177 177 183 180 189 192 189 189 189 188 189 184 180 186 189 182 179 183 183 183 177 182 180 185 184 181 185 181 181 174 168 140 134 126 149 160 125 99 125 114 97 103 105 101 92 95 107 101 94 91 97 105 99 71 99 87 111 86 37 40 52 67 83 84 94 70 65 68 64 50 72 81 87 107 122 125 127 123 134 134 133 133 139 141 140 151 163 163 165 168 167 173 178 178 184 184 188 192 191 189 187 194 192 188 187 188 191 186 179 185 183 184 180 185 185 189 183 180 182 180 182 179 181 168 153 145 137 153 164 126 103 117 117 113 117 115 106 99 102 98 100 90 99 105 104 83 73 113 104 99 54 33 54 64 82 91 90 75 83 77 66 68 70 76 96 116 112 122 122 116 125 135 134 134 136 142 145 155 160 151 153 161 169 172 181 182 181 183 183 187 190 191 185 191 188 191 188 193 189 192 191 182 184 185 184 184 186 192 189 178 176 184 182 180 181 179 171 156 150 140 161 154 134 107 104 113 122 116 108 103 97 105 99 90 98 107 103 96 68 95 120 93 64 38 44 73 86 97 88 102 85 90 76 74 59 78 105 113 109 120 111 112 128 132 128 130 133 143 149 155 148 138 140 151 156 159 171 173 176 180 178 182 190 185 183 187 185 185 188 192 189 191 194 184 187 186 184 185 187 189 193 188 182 182 184 176 181 179 179 160 161 153 143 160 151 140 118 101 101 99 107 100 88 103 97 98 107 105 94 88 82 84 123 98 45 56 57 76 79 89 86 116 101 76 68 54 60 97 103 106 108 102 103 108 132 126 129 129 133 144 155 145 135 122 123 123 136 137 136 141 142 154 156 156 162 173 165 171 183 183 185 185 188 187 186 187 188 186 185 183 186 190 192 191 184 188 188 183 180 178 177 165 164 164 148 144 151 142 147 130 110 108 97 101 97 106 108 105 109 101 104 81 81 94 114 103 49 47 76 66 67 84 92 123 106 77 61 58 82 102 101 101 98 94 91 109 126 130 132 128 134 138 143 125 116 107 117 117 113 115 107 102 100 102 107 106 103 132 131 139 163 167 167 178 178 176 175 186 192 188 181 180 181 187 187 182 182 187 185 185 182 183 178 173 168 168 161 153 155 136 144 130 129 127 114 109 107 109 113 103 102 94 101 101 78 91 118 96 66 64 82 56 63 89 88 131 110 76 67 84 89 107 100 99 91 88 92 112 133 127 131 129 130 128 115 102 107 96 105 109 102 92 85 81 73 76 72 89 89 104 118 115 138 140 150 164 167 173 169 180 189 184 180 176 175 178 176 174 176 179 178 183 176 180 178 173 168 165 166 161 158 155 149 147 133 130 126 120 117 105 119 103 97 97 94 93 89 93 113 97 67 84 81 49 56 92 90 107 119 91 91 97 95 106 97 94 87 90 96 117 132 125 126 126 126 115 101 101 100 83 89 86 86 81 86 84 90 82 84 87 92 91 106 109 121 120 133 148 166 167 171 176 179 178 175 169 173 174 164 165 167 165 162 164 159 167 176 163 163 162 161 162 159 157 146 147 134 129 124 125 117 108 123 105 99 97 89 90 90 88 115 100 61 86 86 41 53 89 97 65 105 103 93 93 99 97 96 88 87 85 104 125 133 125 124 124 117 105 92 106 87 83 82 80 96 99 105 112 117 108 105 101 104 107 109 110 113 122 131 139 160 164 169 173 173 173 171 162 165 169 157 151 148 143 126 124 122 134 139 128 126 141 142 145 150 143 146 135 142 134 127 121 119 106 112 109 100 104 98 81 88 90 109 95 71 82 74 56 52 93 96 83 65 82 87 86 93 86 81 88 84 91 114 126 131 126 123 118 103 97 101 103 107 101 95 106 116 127 139 141 136 130 124 113 107 102 106 109 114 121 129 133 155 164 166 174 175 171 168 160 157 152 141 128 117 111 94 96 91 82 84 81 87 99 104 112 116 123 128 117 127 142 129 118 120 103 107 103 104 95 92 91 83 82 111 86 70 78 59 58 70 93 98 101 76 74 70 83 83 84 78 80 88 102 123 131 132 128 126 118 99 99 108 110 110 117 112 114 123 127 132 132 124 121 113 105 96 101 101 98 99 114 129 137 156 167 168 176 177 171 161 154 150 143 132 124 108 104 101 87 78 71 71 67 72 77 89 92 90 96 111 117 100 123 130 122 113 107 105 103 98 95 82 79 100 81 107 88 63 76 50 46 71 98 100 106 91 77 74 71 84 79 78 85 100 117 128 126 128 126 124 117 100 107 115 121 122 123 106 111 99 92 77 73 71 67 69 76 73 76 94 106 97 94 113 144 165 165 171 182 183 174 164 153 139 123 121 120 104 106 97 85 84 84 88 81 80 74 72 78 74 82 88 98 102 95 116 121 116 105 105 105 97 85 87 72 97 89 100 100 59 74 56 53 73 96 104 94 91 86 74 73 86 83 83 93 118 125 127 133 128 128 127 118 113 111 120 126 118 115 90 76 69 69 55 31 91 106 32 85 96 79 77 97 107 92 97 140 164 170 178 188 186 174 164 150 132 123 109 105 97 99 97 95 98 104 106 111 110 100 89 78 80 81 88 71 75 91 106 115 117 105 110 100 96 79 76 80 91 94 98 100 56 73 67 52 71 102 105 85 89 106 95 87 94 89 96 113 126 129 126 134 132 127 125 121 119 119 126 120 100 76 64 46 83 98 62 58 41 71 53 108 145 97 82 87 102 101 105 125 158 171 186 191 188 173 166 142 129 112 98 94 100 98 101 106 101 114 123 126 124 133 114 103 92 85 89 83 66 65 88 105 115 110 105 100 93 79 65 81 84 97 87 101 78 64 65 62 68 101 108 92 82 83 100 101 106 98 104 120 125 122 132 132 131 132 126 132 127 127 122 109 86 66 57 55 103 129 72 74 60 72 70 133 169 121 128 81 110 102 118 127 150 166 183 193 190 175 163 134 122 103 93 96 101 93 89 83 83 87 105 120 123 133 124 124 109 94 88 83 73 73 75 90 108 108 105 103 93 77 62 84 78 92 81 92 98 70 69 71 68 95 107 107 104 100 104 106 102 98 112 126 125 125 133 133 137 140 146 138 132 118 106 99 103 81 77 102 114 128 109 93 88 99 95 133 139 114 115 100 129 120 129 134 144 162 179 192 186 180 159 126 108 96 94 108 96 81 98 82 48 58 73 65 81 104 118 119 120 114 93 88 66 77 68 81 99 111 107 104 95 72 57 76 92 72 90 89 99 81 74 73 68 96 106 102 108 107 103 95 90 108 117 127 130 126 131 134 138 153 156 148 126 121 125 140 136 123 123 134 140 133 133 140 140 144 131 138 134 128 131 143 147 135 137 139 145 156 176 190 182 177 153 113 107 89 113 124 83 79 136 121 47 76 153 30 40 63 80 94 116 116 113 104 85 89 75 70 98 108 109 103 96 72 52 76 79 69 77 100 90 92 76 69 77 97 107 110 106 108 111 103 106 111 115 124 130 126 134 134 148 160 172 162 150 153 170 170 168 160 146 144 151 147 151 157 157 152 146 141 145 144 149 153 152 146 145 141 143 152 172 185 179 174 143 117 103 91 142 118 87 106 155 131 63 45 79 56 38 77 58 61 79 103 110 114 98 97 88 76 90 109 106 104 96 77 44 69 75 64 57 92 95 88 89 70 83 101 102 102 92 108 115 111 97 118 114 123 128 131 133 137 153 163 172 168 175 173 175 178 176 178 169 168 166 163 155 157 153 152 149 149 157 155 155 154 149 155 149 145 143 139 173 186 173 180 136 112 105 95 136 134 103 110 139 132 87 73 67 61 72 110 73 41 51 66 110 114 103 102 90 88 94 104 108 106 94 80 56 57 74 65 52 72 91 99 91 86 94 106 106 86 61 86 94 104 101 114 119 120 126 129 133 143 156 163 165 169 172 176 173 179 182 178 171 171 163 156 154 160 158 165 163 163 168 166 158 155 153 156 148 149 142 137 176 190 169 173 128 111 106 112 115 137 140 126 133 129 131 119 98 85 100 118 96 50 51 54 83 113 112 100 101 90 97 111 105 106 97 75 63 48 81 68 57 65 72 93 95 92 99 104 106 94 52 71 99 101 103 120 112 118 124 126 136 144 159 158 166 170 172 173 174 174 176 176 178 174 174 169 169 173 171 173 177 171 171 169 162 157 154 153 151 147 136 135 175 178 172 159 123 110 112 118 117 123 140 139 139 128 143 145 128 131 124 118 111 85 67 80 67 90 111 108 103 100 108 110 109 103 97 73 63 50 74 81 81 57 75 75 89 91 103 102 106 108 46 82 99 101 108 120 109 112 126 126 135 148 155 153 163 168 174 173 176 178 178 178 183 178 179 178 175 179 177 181 178 177 171 165 165 158 156 148 148 144 132 141 173 178 171 151 117 114 115 124 129 126 134 144 143 133 131 144 137 142 141 137 130 119 97 102 94 78 96 107 111 111 112 117 111 109 99 70 63 48 66 83 79 68 77 83 95 93 93 103 101 119 83 84 102 107 119 100 94 116 126 128 135 146 154 150 152 166 165 171 175 177 178 179 182 178 179 181 179 178 177 180 181 175 175 167 162 150 148 147 146 140 136 146 175 178 174 154 119 114 121 121 131 135 140 140 149 151 139 137 136 141 143 139 133 134 127 129 124 112 83 97 111 115 127 121 112 110 99 73 56 61 56 79 83 68 76 93 89 97 99 103 105 124 82 95 95 113 110 92 90 116 123 125 133 142 150 148 148 163 155 157 170 172 173 176 182 181 182 185 187 179 181 186 182 178 174 173 161 148 147 151 145 140 142 156 176 178 171 162 123 116 122 122 126 140 148 142 146 150 146 152 148 144 147 146 148 141 142 148 146 148 128 109 115 121 130 123 114 106 101 76 48 62 55 66 80 81 87 87 86 99 97 99 105 136 84 101 105 111 100 95 96 109 123 124 128 144 146 152 145 156 161 152 164 168 172 171 181 180 187 190 188 182 190 190 187 180 176 169 160 152 150 148 145 142 147 166 179 177 170 159 132 121 123 125 128 136 145 151 153 154 153 150 150 160 156 154 157 156 151 152 156 153 155 147 128 127 134 128 113 107 99 84 56 58 51 71 72 75 82 90 94 97 98 100 98 137 91 106 98 105 92 106 90 112 116 124 130 137 147 145 146 152 158 156 159 162 169 173 176 182 183 188 185 180 186 190 181 182 174 168 157 153 148 147 141 146 146 170 187 169 174 161 141 129 127 128 126 136 137 153 159 157 156 153 154 159 163 164 162 160 162 161 158 162 153 148 141 135 129 128 113 108 101 76 66 58 44 61 74 77 77 80 91 89 95 97 100 145 107 119 93 99 86 100 95 110 113 123 129 136 142 145 143 151 155 152 158 159 163 170 171 180 183 183 190 181 182 185 172 173 168 163 149 152 143 139 140 148 151 174 185 174 169 160 136 132 127 130 129 134 140 150 158 156 157 159 159 153 165 164 170 169 173 165 163 167 152 149 143 142 134 126 119 104 105 81 62 61 45 52 63 72 85 72 87 89 98 94 100 151 126 121 97 77 78 88 99 109 115 120 129 135 138 145 144 143 155 155 148 156 160 165 176 178 175 183 183 179 177 179 174 170 164 157 144 139 139 136 144 147 159 169 183 176 170 158 140 130 126 127 133 135 146 154 160 163 163 164 163 161 164 164 169 167 173 163 165 160 155 148 142 140 131 125 114 105 102 83 63 72 65 46 54 79 82 70 80 91 94 96 99 140 142 124 103 71 72 72 102 114 114 122 131 136 144 145 147 147 149 157 151 152 157 152 166 181 172 177 180 179 175 173 175 169 165 150 139 137 141 135 140 148 159 169 174 168 171 163 142 127 121 120 121 139 143 156 157 168 164 167 164 166 164 161 170 166 170 164 165 157 151 148 143 135 133 123 111 101 104 81 71 79 67 51 61 79 76 59 83 86 95 91 97 117 155 141 113 80 85 82 100 115 112 123 127 135 145 146 144 148 142 154 153 148 156 161 163 172 167 173 175 175 172 168 169 171 153 140 138 147 145 134 134 148 157 180 184 164 172 167 148 127 115 125 109 126 145 156 161 165 168 169 172 169 169 167 165 166 165 153 157 153 146 145 143 133 130 121 111 101 100 67 78 87 77 66 56 71 66 62 79 85 91 94 94 93 156 147 117 66 99 98 99 114 114 121 125 134 142 150 140 141 146 150 157 153 156 161 157 167 171 172 169 174 170 172 165 172 145 131 146 152 153 131 125 141 160 183 189 167 171 160 144 123 117 141 120 110 147 157 160 164 169 169 176 170 165 168 163 159 162 152 145 147 137 141 140 129 129 121 105 106 88 64 87 85 82 71 66 72 59 68 76 88 90 93 95 74 149 152 120 71 114 104 96 113 117 124 130 132 142 142 145 139 148 146 152 157 159 156 158 169 163 174 170 170 168 165 159 160 134 128 148 153 155 137 111 129 158 170 187 172 156 148 124 116 116 145 145 110 130 158 157 159 168 169 167 168 167 162 156 157 163 154 140 140 138 135 129 127 128 120 109 102 86 59 91 85 84 57 85 65 59 60 76 86 90 91 92 72 125 159 140 90 110 112 94 110 118 125 129 134 140 139 146 136 145 147 149 153 157 161 158 166 166 171 169 165 157 159 150 150 124 123 140 147 152 133 112 111 144 159 164 162 152 134 110 109 119 141 151 115 117 154 162 162 167 169 166 168 169 162 153 157 160 147 140 134 142 138 127 127 122 119 105 107 75 64 88 90 73 51 87 68 55 63 74 84 88 91 91 71 124 137 141 146 118 110 96 111 115 125 128 133 142 138 144 135 142 146 148 148 152 157 157 159 162 167 167 159 152 152 151 148 121 117 134 131 126 99 69 100 124 134 135 136 135 117 95 103 121 130 132 110 109 145 157 164 167 168 171 165 163 149 153 152 152 143 134 134 142 136 124 125 120 115 107 100 70 69 94 87 73 71 102 51 58 73 72 84 85 91 89 54 146 106 120 173 151 105 94 113 116 128 133 133 140 133 140 139 143 144 144 150 154 155 157 148 166 166 160 151 146 147 151 146 118 108 119 106 84 59 27 65 103 112 115 118 119 98 57 83 114 121 117 109 104 144 152 158 164 165 173 163 161 151 152 151 147 143 137 134 140 131 127 124 121 112 109 100 73 82 89 85 82 91 107 45 63 71 79 84 86 88 88 53 118 145 92 162 170 123 88 108 114 127 132 135 136 140 139 140 143 141 140 152 152 151 154 154 160 157 152 145 144 152 153 155 141 100 98 95 94 99 83 55 67 93 92 95 85 62 50 47 84 106 107 93 114 137 145 153 161 166 169 163 160 154 152 150 139 141 136 130 132 124 124 126 115 112 105 99 76 85 73 87 92 103 97 42 66 75 80 82 88 83 92 54 91 149 112 132 155 121 91 104 111 125 133 134 138 142 137 138 142 139 142 145 152 147 159 154 149 149 148 143 146 160 157 157 156 121 80 87 96 108 106 87 72 73 82 72 70 72 94 90 79 90 84 102 116 131 142 144 157 162 165 160 160 154 152 145 141 136 134 132 125 120 125 123 117 107 105 100 76 68 63 97 99 110 77 51 72 76 74 82 86 88 87 59 61 138 125 116 138 113 90 106 110 126 133 132 141 142 136 133 136 138 139 146 148 146 155 153 147 144 143 146 154 158 153 156 153 147 122 109 111 113 122 111 101 89 85 84 93 100 103 96 85 80 91 117 118 125 136 140 151 155 160 154 151 153 148 141 147 130 136 129 125 117 123 119 115 107 103 99 76 46 74 112 108 107 56 58 73 76 76 81 82 90 87 71 51 110 126 126 123 107 89 106 111 123 130 132 140 138 135 132 138 135 140 146 144 146 148 151 144 141 142 147 158 156 153 155 146 143 147 136 135 137 137 126 120 119 116 113 114 110 105 108 110 110 117 121 121 121 128 135 149 149 156 148 146 146 142 140 141 135 132 131 120 116 119 111 111 111 97 98 80 40 81 115 117 81 49 63 69 76 78 83 87 84 87 71 71 59 124 131 135 114 97 105 111 118 122 132 139 134 134 133 139 135 140 143 143 144 146 148 140 145 147 146 158 152 154 155 147 145 147 141 145 150 147 138 127 121 121 123 123 124 114 114 118 111 118 123 120 125 127 132 144 146 151 150 144 144 143 135 138 133 131 126 117 112 117 114 110 106 100 95 78 55 95 117 104 57 48 64 69 78 78 84 84 88 86 76 74 54 108 133 133 125 107 101 108 114 125 134 137 137 137 133 134 134 137 143 144 140 145 143 147 145 147 146 148 145 144 152 146 149 142 139 147 146 150 143 127 120 116 121 129 133 122 121 122 114 125 129 124 123 125 126 143 144 145 148 147 146 140 135 139 130 127 125 116 110 114 119 107 107 98 95 79 83 112 124 89 41 57 61 72 76 79 84 84 87 81 74 72 66 80 128 123 122 106 106 106 112 127 133 136 144 136 138 132 131 140 141 144 137 138 143 145 140 146 142 139 138 142 143 139 146 143 139 149 153 145 139 129 131 120 119 132 131 125 124 121 122 130 126 125 121 121 128 135 142 140 146 142 134 142 133 134 130 122 120 115 108 116 117 105 108 97 82 98 116 122 114 79 40 58 65 67 80 83 82 86 88 85 69 74 71 63 93 113 102 99 105 109 112 124 132 139 141 141 134 132 136 136 141 140 140 130 145 135 135 133 139 131 133 134 135 133 150 150 152 153 153 152 145 147 149 146 132 138 131 133 120 121 122 128 123 126 121 117 124 127 138 140 137 138 139 133 136 129 127 116 116 113 112 114 112 109 103 96 76 107 128 104 114 54 49 60 64 74 76 83 81 85 84 84 75 69 72 72 66 90 92 80 106 110 114 125 127 135 138 142 134 132 136 137 137 139 143 147 144 125 128 133 131 125 124 131 130 136 152 156 155 157 150 152 151 158 159 153 156 151 132 135 122 126 122 119 113 122 122 123 123 127 133 141 136 136 136 134 129 126 125 117 110 111 111 111 112 105 103 87 75 108 111 95 105 47 56 55 70 73 77 80 80 83 87 84 71 75 71 65 75 69 72 66 103 107 112 123 124 130 136 140 134 131 137 145 139 138 159 158 135 124 124 125 125 134 125 131 132 136 143 146 146 140 140 152 158 158 168 164 161 156 136 128 134 131 132 121 113 109 117 123 119 118 120 136 139 137 132 131 130 123 126 115 112 108 108 117 108 106 97 87 77 113 112 115 84 39 59 63 69 73 81 81 84 79 84 86 72 69 72 72 75 66 74 55 101 103 115 121 124 126 131 142 139 130 136 142 144 144 151 151 131 126 126 124 128 132 131 126 131 121 124 116 112 108 105 115 131 142 149 147 138 128 109 115 126 128 128 117 119 109 114 110 116 115 116 130 136 140 135 134 126 123 122 115 108 106 110 112 107 101 93 86 77 111 117 112 61 43 62 64 71 79 80 82 84 83 84 85 73 73 70 71 73 68 72 59 86 105 113 119 125 125 132 135 141 133 132 140 143 147 153 142 124 128 124 123 121 114 106 100 92 88 89 90 82 86 88 85 89 90 101 103 92 89 85 89 94 95 108 108 118 115 111 113 110 111 118 118 135 136 134 134 129 123 124 112 106 110 114 109 105 95 91 79 81 117 111 83 42 54 66 62 76 75 84 82 82 82 86 83 71 71 72 73 71 73 72 59 80 104 108 121 125 127 133 139 136 139 136 140 144 145 150 141 127 133 131 114 110 78 64 69 66 64 66 77 92 80 91 90 87 81 81 84 84 82 72 77 75 73 83 85 95 105 107 109 108 110 115 116 136 139 136 133 131 123 120 115 109 110 112 107 101 92 90 74 97 127 119 60 40 57 68 70 74 79 79 83 79 82 87 83 74 68 74 74 73 70 71 60 70 98 108 117 125 128 133 136 137 136 138 141 149 148 148 140 134 130 129 111 93 33 13 34 42 55 55 84 122 115 127 137 132 116 95 117 132 121 106 97 94 65 58 60 67 74 85 101 105 114 116 115 130 143 140 134 130 123 119 112 109 114 110 105 99 92 86 74 109 124 116 46 46 62 69 76 75 81 78 82 79 85 88 82 70 70 71 73 69 69 69 72 51 99 103 110 123 131 133 135 141 140 137 140 146 153 153 137 131 128 124 125 122 61 17 21 35 46 39 49 87 87 124 169 174 169 101 157 174 169 111 103 112 61 66 46 45 37 40 84 108 115 121 109 129 145 144 132 131 123 125 113 111 113 109 106 98 96 83 76 107 115 95 40 53 69 68 78 76 80 78 84 83 83 83 84 72 75 66 71 67 72 66 65 66 90 99 106 117 129 130 139 137 139 137 143 144 156 151 147 133 135 138 145 153 123 76 31 75 81 82 102 70 60 48 75 101 107 49 51 89 99 66 50 70 50 51 37 22 12 39 84 104 114 116 105 132 145 141 132 126 125 121 115 113 108 108 104 96 88 81 76 104 101 70 33 63 70 75 75 79 79 82 83 81 84 80 82 75 72 71 70 72 68 72 64 73 98 99 99 115 125 131 138 137 138 136 144 151 155 161 143 140 139 147 158 156 153 127 95 105 120 117 141 126 122 109 88 62 69 75 64 57 66 83 83 96 94 72 58 31 32 80 117 116 113 116 109 137 147 143 132 133 123 115 111 108 110 106 106 94 86 72 77 86 70 44 49 65 72 77 74 78 83 83 79 85 85 81 84 75 73 73 71 67 71 67 67 72 106 94 95 112 122 124 139 141 136 143 144 144 157 160 149 145 148 147 158 156 157 144 125 113 121 121 127 125 125 129 128 118 104 122 114 105 109 118 111 133 115 98 80 73 82 97 122 126 116 114 125 147 147 141 133 133 122 111 111 106 110 107 102 91 86 64 44 55 49 48 54 65 77 77 78 78 82 82 81 85 82 84 83 75 69 72 72 68 70 72 57 88 108 97 96 104 123 124 131 141 137 140 147 143 149 151 153 151 151 154 154 152 154 143 140 124 120 126 129 134 141 147 150 153 131 126 138 137 134 130 125 125 126 119 98 100 104 116 124 131 121 118 133 153 154 137 135 124 122 112 109 110 108 102 96 89 83 42 41 49 47 53 56 70 72 76 78 78 84 77 82 83 80 86 80 74 72 69 71 68 72 69 60 90 110 99 94 104 114 122 130 137 138 140 141 144 151 154 151 156 152 153 157 150 149 149 142 135 126 130 122 124 135 137 143 150 143 133 150 149 143 132 132 126 128 120 108 110 113 125 128 129 129 125 134 149 154 142 128 126 120 113 111 108 106 95 92 95 64 39 44 48 53 48 66 68 73 78 79 78 81 79 84 80 84 83 83 73 72 72 67 69 69 68 59 94 110 107 91 96 110 119 127 132 139 139 141 142 149 153 154 159 151 147 152 152 144 146 144 141 137 140 139 129 137 137 129 135 132 137 133 139 133 125 127 122 126 122 120 124 121 127 126 128 127 130 133 145 149 143 130 122 120 115 110 106 102 96 85 82 47 38 45 48 48 57 67 74 71 79 79 79 83 80 85 78 87 81 80 71 74 72 69 70 67 73 54 107 108 107 93 96 111 118 126 128 136 142 140 142 148 151 152 155 148 148 148 145 139 143 140 136 136 137 136 137 142 146 137 140 140 146 140 136 138 130 134 132 128 132 122 118 119 129 125 127 126 126 132 142 147 138 129 121 120 115 108 106 96 91 89 60 42 40 48 49 50 60 69 76 74 77 80 79 84 83 80 81 83 82 82 71 75 74 69 69 73 65 62 105 111 108 95 96 103 117 123 124 133 137 137 137 146 146 147 151 149 146 148 147 136 144 138 131 130 137 135 129 124 120 116 119 120 132 125 126 129 121 130 122 123 122 115 113 122 124 129 126 124 127 134 138 145 135 122 123 119 112 104 101 90 85 87 45 36 48 46 49 51 64 69 75 77 77 79 84 80 80 84 80 84 82 82 76 73 72 71 72 73 59 69 114 107 108 96 94 100 112 120 119 131 135 138 135 143 141 146 151 147 148 149 147 140 148 143 136 139 134 139 132 127 113 104 107 99 102 103 111 115 115 119 118 119 114 112 113 124 127 128 128 127 124 126 132 139 133 120 116 116 110 99 95 90 89 62 37 42 48 46 51 54 66 72 73 77 77 80 81 80 84 81 78 85 82 78 76 71 76 74 70 67 66 78 116 109 110 101 91 102 107 114 119 126 127 131 136 136 145 147 146 149 147 148 146 145 148 148 146 146 141 136 143 137 131 120 117 112 106 104 111 109 108 111 113 118 113 110 122 130 133 126 130 128 130 128 133 128 125 117 113 114 105 98 91 95 83 35 36 45 45 45 52 55 68 73 77 73 81 78 80 80 83 81 80 83 84 79 80 69 77 67 69 57 100 126 103 109 108 102 92 98 104 109 120 123 123 127 134 134 136 145 140 143 150 142 149 150 149 149 148 148 146 147 152 146 147 141 132 125 123 115 123 118 120 122 120 121 120 122 127 138 136 132 128 134 129 131 125 122 120 111 114 106 102 95 90 93 54 37 43 47 45 48 50 59 73 73 75 73 80 76 78 81 78 85 77 85 80 81 75 78 71 73 58 77 179 155 95 108 110 107 96 95 102 108 113 122 122 126 135 133 131 136 134 143 149 142 150 150 153 155 155 149 149 149 161 160 157 158 153 155 144 140 141 136 140 134 134 128 128 128 139 140 135 130 132 137 128 125 125 118 112 114 107 104 96 94 89 81 38 39 41 48 48 45 51 63 70 73 72 78 75 77 79 79 83 80 80 82 79 81 77 75 72 59 68 160 212 141 92 106 108 108 100 97 101 110 112 117 124 123 124 131 128 130 128 137 143 144 144 148 153 156 160 164 157 156 163 169 168 168 172 174 171 162 164 157 150 142 144 143 133 133 143 138 131 131 124 129 124 119 123 114 109 110 111 96 93 93 91 61 36 38 47 45 49 46 55 70 70 76 72 78 74 80 80 80 80 81 82 82 76 83 76 73 74 41 148 211 201 120 102 107 113 111 104 101 101 102 107 113 119 126 119 125 123 126 128 138 139 142 147 143 155 155 158 165 161 165 167 169 171 167 174 170 168 169 168 163 161 155 153 151 144 146 147 144 140 127 131 128 122 120 121 112 108 111 106 95 93 94 84 44 38 44 44 46 48 48 58 69 72 74 73 79 75 80 79 78 79 79 83 80 77 83 79 79 47 84 204 227 166 103 112 112 112 112 108 104 103 104 103 112 111 120 117 121 112 122 121 128 132 137 146 138 152 154 158 164 169 171 173 178 178 176 178 176 175 172 174 169 171 169 162 161 157 164 146 148 130 127 129 128 113 111 110 110 105 105 98 95 91 89 81 31 44 38 48 43 48 52 65 67 70 75 77 72 77 81 80 75 81 81 80 79 80 79 78 70 48 153 220 226 131 105 116 115 113 112 110 105 103 100 107 103 110 110 115 120 116 116 118 125 123 140 136 143 147 151 157 164 160 169 173 176 174 176 179 176 176 175 173 169 170 172 162 160 157 160 152 142 122 129 128 123 106 101 101 103 104 97 92 96 83 83 95 37 36 44 45 48 49 57 67 70 75 72 78 74 76 81 76 74 83 79 76 80 80 81 79 51 95 205 223 203 101 112 123 118 115 116 113 102 107 98 106 103 105 113 106 119 112 109 106 120 124 124 129 140 143 150 158 156 164 160 163 165 167 169 169 176 172 171 171 165 163 165 156 150 148 153 147 131 124 124 123 110 102 97 95 99 100 94 92 92 84 65 107 110 36 44 48 46 52 64 67 72 72 75 75 78 75 78 78 76 82 78 77 80 78 74 73 48 147 215 226 182 86 122 125 119 112 117 116 108 107 100 105 99 102 101 112 109 111 109 107 109 120 113 126 129 138 135 153 152 158 155 155 161 156 169 165 166 168 170 167 160 153 157 149 143 142 149 131 120 120 115 109 103 96 95 98 96 97 93 93 82 77 77 63 140 113 35 40 48 52 62 72 69 71 74 77 78 74 78 81 75 78 79 77 79 77 77 68 59 202 211 230 163 89 128 127 124 116 117 119 115 110 106 99 99 100 97 105 108 105 106 106 104 106 107 113 125 123 111 130 143 146 141 149 150 152 150 158 156 154 155 149 148 142 142 136 138 127 127 118 111 109 108 98 93 91 89 96 93 91 88 89 78 86 75 53 103 182 97 34 44 59 66 74 67 73 75 74 77 76 77 82 77 78 80 77 78 77 79 106 129 208 209 230 139 99 132 124 128 121 114 120 118 112 111 102 99 98 95 98 101 106 107 104 101 98 101 108 114 120 109 118 132 137 131 139 141 142 142 143 143 145 139 137 139 129 132 127 130 116 111 111 110 99 97 98 90 87 88 91 88 83 88 84 81 91 66 58 95 147 178 55 34 58 72 70 73 73 75 75 74 77 77 79 76 80 77 81 77 77 79 197 180 199 211 228 121 106 135 124 132 124 117 119 116 118 112 111 101 97 92 95 96 101 94 103 104 97 93 97 99 108 111 107 115 124 118 125 127 128 130 130 130 122 133 127 131 115 118 114 110 108 104 100 100 93 91 86 89 84 85 84 83 86 83 83 82 97 68 54 100 102 202 134 26 55 73 71 69 75 74 70 78 78 78 79 74 78 80 74 77 76 79 199 189 203 209 230 125 106 137 130 133 127 120 120 116 121 119 114 108 102 92 96 93 96 94 91 100 97 92 87 91 99 101 100 102 110 110 111 115 117 116 122 122 113 120 117 119 108 109 105 99 104 97 93 89 88 84 83 83 85 81 85 83 84 81 84 90 93 75 78 79 89 171 209 57 47 67 72 72 77 75 75 76 75 77 75 76 77 82 74 76 79 77 189 193 206 210 228 132 106 137 137 134 126 126 116 117 115 121 118 111 105 97 93 95 92 94 98 88 93 94 87 83 89 95 94 94 96 101 102 106 105 107 114 107 110 105 108 110 109 99 95 95 96 91 87 88 78 82 76 80 83 85 79 83 83 83 84 92 91 87 102 81 79 145 207 143 41 70 71 73 74 74 74 77 76 77 77 77 75 80 75 76 76 78 182 198 208 208 229 137 95 140 138 136 134 126 122 122 117 117 119 117 106 108 96 95 90 87 93 86 91 93 93 82 80 89 88 87 88 88 97 102 100 99 103 99 100 97 103 100 97 98 87 88 88 81 82 76 75 75 81 77 78 82 79 84 83 88 85 92 89 98 130 101 73 130 195 194 88 56 72 74 76 72 77 76 78 75 80 73 80 76 75 77 75 76 193 202 211 205 231 143 85 145 142 137 137 131 123 126 121 118 118 117 112 110 105 96 94 91 88 90 90 92 90 88 85 82 82 88 85 86 88 90 93 89 90 89 88 88 93 85 86 83 85 79 82 75 75 74 74 81 78 82 78 80 79 86 90 87 91 93 98 88 137 139 69 119 188 202 157 48 68 71 76 75 72 77 77 77 79 73 76 78 75 76 75 75 206 206 209 205 229 155 75 150 138 144 137 134 128 124 124 119 119 114 115 114 109 102 98 94 92 90 90 90 91 88 91 88 85 74 79 81 82 84 85 83 84 88 83 81 83 82 77 72 75 75 75 74 75 81 69 81 78 82 78 81 89 85 93 88 91 94 112 79 119 157 88 118 178 200 201 86 54 75 74 76 75 77 75 76 76 75 73 76 74 79 74 72 203 205 211 202 227 175 69 145 144 143 140 137 132 126 122 122 117 116 114 114 111 107 97 94 90 95 92 88 89 91 92 87 89 84 84 79 80 86 83 81 85 87 81 75 80 75 75 72 77 76 75 77 79 74 77 78 86 82 80 85 87 89 89 90 93 99 119 82 95 148 117 115 175 193 210 140 51 73 74 76 75 76 76 75 74 74 72 78 72 78 72 75 