P2
92
112
255
45 38 40 41 42 40 41 40 41 42 37 43 40 43 42 42 41 42 37 44 39 60 39 35 75 75 30 26 30 33 35 46 46 39 48 48 46 30 32 33 26 33 29 28 31 23 28 27 31 30 38 36 32 39 42 44 47 50 51 50 51 48 61 54 40 43 45 45 40 42 42 41 38 40 39 42 38 42 34 38 39 35 42 37 40 35 38 37 37 38 36 42 44 41 40 38 41 42 38 43 47 38 45 42 44 46 42 42 39 43 45 36 53 56 45 58 73 46 26 36 40 35 40 54 36 43 58 40 33 30 34 32 35 33 38 29 34 34 37 28 33 29 42 34 47 47 51 51 59 63 66 62 72 60 92 63 65 68 65 58 49 40 46 40 46 39 39 42 40 41 36 38 40 38 38 40 34 39 38 39 35 38 37 39 45 35 41 42 38 42 43 43 40 44 45 44 42 41 44 43 38 40 50 50 74 49 65 73 60 46 34 43 40 43 48 45 47 51 43 28 31 39 33 36 32 34 40 30 46 34 48 30 37 27 35 39 49 63 61 74 80 78 93 81 74 80 80 75 79 83 79 73 62 55 46 55 49 48 50 47 39 39 39 37 40 37 37 35 40 37 38 38 37 37 35 40 40 40 45 36 44 39 42 44 43 39 42 42 42 42 47 39 46 47 74 56 64 64 49 60 50 48 44 50 49 41 49 57 51 36 25 22 45 43 30 32 41 45 47 44 51 45 49 45 42 36 31 33 45 48 57 72 75 75 76 78 79 80 80 86 83 85 68 67 59 57 58 65 61 63 66 55 51 45 36 41 41 38 39 36 40 37 36 39 37 38 39 36 41 41 40 41 40 40 46 40 43 42 43 40 45 41 42 42 45 60 74 48 61 48 71 62 49 54 54 46 38 58 65 45 41 26 26 37 56 36 37 42 57 47 56 56 47 47 43 46 38 46 37 35 44 37 39 59 55 54 86 68 63 62 73 73 70 67 62 61 61 56 62 73 67 61 60 48 47 44 38 40 42 37 39 38 37 39 39 38 37 39 38 35 39 43 39 43 42 42 43 42 44 40 41 44 46 43 41 40 45 58 59 52 69 37 64 86 56 56 47 50 56 62 63 35 32 31 32 57 46 37 42 56 56 60 53 62 43 53 45 40 51 49 53 32 37 48 35 60 49 73 88 54 54 60 61 51 49 59 64 52 63 50 57 60 82 69 48 39 47 43 39 44 44 42 41 36 43 40 40 36 40 36 40 40 40 40 42 41 42 42 44 44 38 46 40 43 45 43 45 46 53 57 53 67 61 57 69 72 54 45 60 65 63 56 51 30 36 38 35 64 42 42 51 55 57 56 54 59 51 53 64 44 54 51 59 47 39 52 57 71 64 68 84 55 68 58 60 53 45 44 53 66 63 53 60 49 60 59 44 41 41 42 46 44 50 42 42 44 44 39 41 39 41 36 42 34 40 42 41 41 41 42 43 44 38 47 39 48 40 43 65 69 71 62 55 81 64 60 68 47 51 71 64 55 58 46 47 41 50 42 42 66 49 59 60 75 71 71 65 67 59 65 76 62 62 55 52 50 50 52 67 63 69 69 66 89 76 57 59 45 34 38 27 73 38 57 57 55 61 54 62 55 44 44 46 44 47 39 42 41 43 38 42 36 40 38 38 38 47 39 42 42 45 39 43 43 43 42 44 44 47 58 73 59 81 49 65 72 73 60 41 46 65 62 54 52 49 56 60 43 63 50 62 56 64 67 79 91 91 94 87 74 75 75 81 71 66 50 51 57 50 49 59 72 59 54 72 104 77 63 92 46 50 41 32 51 45 45 70 55 72 48 61 73 62 48 48 43 46 42 48 42 45 39 42 37 39 41 38 36 42 42 44 38 45 39 42 44 41 40 46 45 62 62 50 58 71 52 63 57 79 54 29 52 57 58 45 55 59 62 74 57 57 68 70 60 66 82 91 100 102 99 95 77 82 87 80 70 57 63 59 53 56 51 57 72 54 38 93 87 73 90 90 81 64 66 56 58 64 34 76 69 60 48 49 61 64 57 50 45 43 46 42 44 42 37 38 42 40 42 40 38 39 43 44 37 44 40 41 44 44 39 50 60 62 53 67 73 56 51 67 62 69 55 46 62 57 64 57 66 64 57 72 82 57 78 95 78 85 86 104 108 105 96 91 78 77 74 70 80 69 68 72 76 62 75 48 81 57 53 71 70 63 80 63 82 72 79 79 72 52 58 75 59 63 51 34 56 53 61 55 52 45 48 46 42 39 42 40 41 39 42 40 42 38 43 43 40 44 43 39 46 43 54 63 58 53 65 71 64 49 51 71 70 66 57 57 62 70 59 79 68 77 60 77 91 53 93 98 87 107 102 117 102 98 93 76 79 67 73 76 81 80 76 71 91 67 79 59 85 65 63 70 63 67 95 56 84 70 84 74 70 64 67 56 62 51 59 41 49 52 59 57 50 52 51 47 44 42 40 43 45 45 42 45 43 41 43 43 43 42 41 44 54 66 67 57 50 65 69 67 58 68 70 96 65 63 52 70 74 58 68 84 76 69 78 81 104 56 99 107 93 107 102 116 109 88 91 68 77 62 84 83 78 72 64 86 78 85 72 63 72 90 58 65 71 74 88 75 91 79 76 87 76 63 70 66 47 36 67 47 52 54 53 52 55 57 54 51 45 50 45 43 41 48 39 40 40 44 43 39 45 42 46 60 78 75 51 54 68 79 82 76 82 87 75 95 70 66 54 67 78 71 82 79 87 69 79 81 112 85 99 107 98 102 110 120 107 77 91 75 89 85 93 63 75 81 58 77 73 94 83 73 53 99 69 66 73 78 86 96 89 94 80 65 68 82 74 76 62 27 70 53 48 53 61 58 62 63 60 56 62 50 49 46 46 46 40 41 39 44 44 38 45 56 69 83 77 57 55 54 99 80 88 111 111 94 62 108 80 66 59 76 70 64 82 72 91 78 84 92 98 107 95 110 102 104 102 111 101 96 88 92 110 101 78 72 70 72 79 70 86 80 92 84 55 88 89 78 90 87 94 104 98 94 93 99 74 81 94 67 66 58 54 61 43 43 55 61 66 61 61 68 61 52 55 49 52 44 46 37 38 41 46 48 50 93 94 79 56 49 67 68 100 97 116 124 104 75 71 104 93 61 73 88 52 68 88 80 97 90 92 85 113 107 102 100 106 111 114 105 111 120 110 97 104 91 84 81 71 82 73 65 97 77 95 86 77 86 90 91 96 102 96 114 115 104 82 86 113 89 100 66 64 64 62 54 49 40 44 51 49 57 67 59 58 53 50 51 51 47 53 44 37 42 50 60 67 97 93 50 57 62 76 84 101 129 123 111 96 82 77 86 101 61 84 91 49 70 102 94 102 101 101 81 129 129 116 111 111 112 118 113 120 123 112 99 103 96 105 92 87 92 71 69 96 87 96 79 99 88 89 85 103 105 102 118 121 125 94 93 136 69 96 80 69 86 67 54 62 42 42 49 48 58 59 66 53 54 48 55 48 41 50 47 48 51 49 76 89 74 53 66 71 77 85 97 115 106 106 118 89 79 74 95 88 70 87 100 57 68 118 119 95 118 102 91 146 152 123 111 106 103 117 120 122 129 108 111 109 108 117 119 113 107 88 84 91 95 93 83 108 86 83 92 111 102 114 115 124 131 97 107 131 73 81 98 80 84 86 90 78 35 48 58 48 53 62 68 59 62 57 59 46 42 45 46 55 50 72 82 81 44 73 98 90 67 101 98 90 80 116 97 73 92 77 113 88 77 86 110 69 78 117 134 108 120 111 96 125 132 124 122 124 102 125 121 119 122 112 121 123 126 131 133 131 121 120 99 88 98 93 107 99 89 86 99 103 119 116 122 123 115 77 100 128 70 85 127 84 77 90 90 92 68 51 52 49 48 61 70 76 63 60 47 50 52 50 49 46 61 67 73 51 62 88 107 83 64 126 81 68 94 96 85 68 112 96 107 100 80 89 134 83 93 111 129 136 114 123 104 108 118 119 135 120 119 131 133 115 134 104 118 135 141 145 141 139 140 125 116 99 91 104 96 99 102 92 106 99 115 121 130 90 100 84 105 114 68 105 130 80 91 82 90 83 87 55 55 50 47 58 64 67 63 54 51 55 54 46 49 44 64 67 56 53 82 74 71 78 74 128 92 73 93 87 85 94 107 111 113 99 102 102 144 92 98 118 127 133 114 129 101 126 102 112 124 99 129 139 131 127 131 107 127 147 144 151 142 146 147 126 129 117 89 93 97 106 111 98 112 114 96 119 113 75 86 97 122 114 70 115 108 86 96 100 109 96 67 54 57 54 48 56 59 59 72 63 68 53 53 54 46 48 88 55 60 73 73 63 63 74 95 115 110 80 83 87 104 111 99 116 124 99 121 110 139 100 109 118 127 127 108 136 97 125 129 107 116 119 127 145 133 133 126 124 126 149 156 153 159 156 173 143 128 111 86 101 97 124 101 107 111 111 118 98 82 79 97 121 119 108 77 117 77 103 100 119 132 81 76 57 49 51 53 53 52 56 56 58 61 51 60 71 58 50 79 50 85 77 53 60 70 93 99 137 100 86 85 95 153 109 103 118 128 113 128 122 134 111 116 112 125 132 107 127 118 124 132 123 136 128 126 152 146 144 122 129 118 161 163 172 151 148 147 148 137 107 90 107 96 128 94 109 110 115 128 68 96 77 106 112 102 108 86 110 69 103 107 123 130 64 80 57 57 51 64 52 63 58 64 71 73 69 69 62 59 71 60 94 79 60 61 82 99 103 136 110 103 90 87 142 137 94 117 123 126 135 127 138 128 120 114 112 126 137 118 119 121 136 126 126 135 136 132 158 152 150 132 123 118 157 159 156 153 158 156 152 148 100 84 99 103 138 89 107 118 123 127 57 80 103 88 98 86 105 104 115 77 90 90 124 104 59 76 60 61 63 57 54 51 61 75 73 87 84 79 59 63 69 58 86 44 66 85 106 112 156 117 91 116 103 107 128 111 101 112 135 131 135 141 145 127 128 121 102 134 129 128 124 127 125 122 108 120 136 132 162 151 148 131 134 113 160 169 166 159 158 166 162 157 125 73 93 107 143 77 115 116 136 126 55 72 79 90 96 85 104 117 119 87 80 87 105 77 59 77 77 72 64 61 53 52 62 73 66 78 70 66 72 69 50 83 56 61 101 89 113 145 164 99 104 120 100 121 99 129 122 105 145 129 135 164 142 134 131 122 106 127 135 114 125 120 122 118 89 106 132 130 162 155 160 140 144 148 174 170 170 172 158 171 167 157 126 81 90 99 138 81 107 113 138 134 60 70 85 89 102 109 95 118 116 113 74 75 91 79 64 76 86 98 74 82 65 53 67 73 62 67 68 66 66 78 52 85 45 103 85 103 117 179 123 94 112 125 107 121 103 154 110 109 142 118 151 159 137 144 128 112 114 115 122 118 119 112 139 126 95 84 127 144 162 167 169 152 130 156 175 168 164 164 158 165 158 152 112 92 104 98 127 86 111 113 141 131 108 58 91 101 122 133 118 104 119 113 110 67 76 84 73 70 97 103 75 81 81 82 81 70 70 92 82 79 68 62 78 79 85 93 75 103 141 190 81 85 116 144 114 119 119 164 89 108 137 132 148 145 149 140 138 104 121 116 97 125 111 117 116 117 94 76 126 149 157 164 164 151 134 161 164 163 164 163 165 160 154 144 113 121 133 105 122 94 112 109 142 128 129 91 59 63 96 134 136 122 113 119 131 78 67 71 79 69 88 109 96 86 97 95 82 81 82 89 91 77 53 66 89 75 88 89 74 102 178 145 95 112 142 131 131 109 127 155 102 107 147 120 158 163 161 135 137 127 114 113 99 87 114 128 122 110 80 95 128 154 161 151 154 140 125 153 157 154 162 163 169 161 161 154 136 144 144 119 118 90 120 106 149 144 137 124 109 78 73 91 118 126 128 117 125 119 64 59 70 77 72 83 100 84 89 96 79 74 81 81 75 74 65 82 99 75 93 67 116 90 147 106 130 145 133 135 145 80 135 149 118 104 134 133 167 172 145 150 153 125 125 121 110 97 89 97 103 82 82 113 134 147 153 154 153 138 123 154 153 153 152 156 154 149 148 145 135 144 148 126 107 99 116 110 138 154 140 130 136 131 128 114 103 98 101 103 107 111 103 61 54 98 97 96 88 80 86 89 91 74 78 66 84 74 68 112 79 91 70 64 122 103 112 123 131 120 134 155 133 103 138 148 130 115 132 142 151 154 160 164 142 127 114 127 122 123 114 102 98 92 85 112 132 143 144 147 146 141 132 146 151 154 151 159 162 149 143 148 148 159 160 134 99 110 115 124 124 155 146 133 136 144 144 144 138 116 126 139 135 109 129 105 57 65 103 100 118 122 111 89 91 96 81 77 87 80 94 110 101 86 61 62 111 104 89 137 101 116 149 141 130 129 142 137 138 138 116 138 149 165 183 174 147 142 122 134 141 145 137 134 132 120 112 132 149 152 143 147 154 143 142 143 140 141 150 152 155 153 157 164 160 161 164 142 96 118 108 127 130 150 150 139 134 139 143 149 148 152 135 135 151 142 146 144 104 55 70 88 119 130 109 107 89 93 77 88 91 103 103 98 114 82 65 55 99 86 89 137 88 85 181 115 150 133 145 144 150 161 156 139 164 163 182 175 159 141 142 153 162 166 160 164 156 146 144 150 166 157 162 163 168 160 162 153 156 153 156 159 160 169 166 170 163 165 165 148 111 124 109 121 131 145 146 142 141 137 138 148 150 150 153 146 133 155 152 153 138 101 71 82 91 107 94 89 84 92 97 109 101 87 105 120 120 96 56 61 83 76 88 113 68 98 193 129 140 146 146 147 157 173 183 166 160 170 178 185 171 155 154 155 157 161 162 167 151 152 152 157 161 158 160 165 173 174 173 165 164 160 160 162 167 170 172 171 170 166 168 155 130 123 113 127 128 148 146 140 140 136 136 143 148 148 154 159 146 139 152 157 149 136 124 115 117 111 96 102 86 89 104 93 98 113 110 129 132 78 59 73 86 75 91 85 63 118 153 169 124 147 130 144 157 179 192 165 176 170 177 185 177 174 158 165 163 170 170 175 157 164 169 169 166 171 159 166 169 169 170 169 169 169 166 169 167 168 170 168 170 169 174 159 142 123 121 139 146 145 154 151 149 143 143 139 142 148 149 154 157 143 147 156 147 149 148 134 123 119 122 106 112 83 96 88 93 116 110 115 113 69 73 76 78 58 83 70 68 130 120 177 148 128 131 145 159 174 183 164 176 183 186 180 179 176 164 169 173 191 182 193 174 170 187 180 177 169 171 179 175 175 172 177 166 167 169 173 166 172 175 172 181 173 174 171 152 141 124 149 155 143 151 154 152 149 151 148 142 144 140 146 155 144 146 157 150 153 155 141 132 115 123 111 105 92 91 105 87 105 101 112 91 74 77 76 62 65 71 54 85 134 145 157 155 114 136 151 163 169 168 167 169 175 185 178 186 173 176 180 181 186 200 192 185 177 188 182 180 177 183 185 185 176 180 193 186 179 184 181 182 179 183 186 185 187 180 184 167 152 145 158 161 152 158 142 152 149 152 154 148 142 140 141 149 144 143 156 147 150 157 147 141 114 116 118 100 102 100 93 101 102 109 125 62 81 84 66 64 73 51 83 90 124 173 148 145 96 139 154 163 161 164 163 169 179 185 172 177 172 182 186 197 186 202 198 191 174 186 182 177 178 181 182 180 182 180 187 192 182 186 192 184 185 194 180 185 195 187 182 184 171 163 163 161 157 162 145 152 147 151 152 152 148 146 141 140 143 144 155 154 146 155 150 144 126 109 131 95 107 113 85 108 109 107 131 86 78 78 59 71 83 78 94 100 123 170 138 138 92 135 156 164 157 162 163 171 188 188 156 179 194 187 194 194 186 197 189 187 181 180 178 172 162 168 166 170 172 176 172 179 173 178 194 180 177 187 170 179 183 169 172 179 176 172 158 157 159 156 152 154 152 148 150 152 149 149 147 141 135 147 153 157 146 154 145 147 130 110 126 110 109 127 113 97 134 105 117 114 100 73 70 93 100 92 70 122 149 145 145 105 102 137 161 157 157 157 170 181 184 172 161 176 188 180 179 178 178 180 175 180 166 169 163 160 151 159 160 162 159 165 160 156 162 169 182 170 159 164 158 169 164 157 159 162 159 163 152 155 153 150 151 150 152 149 148 150 148 148 150 150 138 141 160 158 146 150 148 146 137 126 109 108 115 122 137 122 135 108 111 126 78 74 74 87 91 59 68 152 150 115 161 92 87 140 166 159 156 155 172 182 168 165 161 138 147 138 136 138 140 137 148 143 140 135 135 136 131 146 151 145 149 146 151 148 163 169 173 161 155 149 146 159 150 148 149 148 146 153 144 148 147 147 148 149 147 146 146 147 148 145 140 151 147 143 147 154 148 140 148 140 147 124 106 97 87 118 127 147 151 131 102 139 77 80 73 61 57 58 122 156 139 118 141 86 87 151 161 160 152 162 170 166 150 131 137 123 111 105 104 103 98 102 106 81 89 91 88 109 101 118 127 135 126 134 140 155 159 164 162 157 147 138 151 147 140 140 139 139 136 143 137 137 143 138 131 136 136 131 140 145 139 141 131 138 156 150 142 150 148 138 143 142 144 129 104 104 69 89 124 117 163 142 122 126 74 71 63 52 61 80 144 148 126 130 126 75 106 154 157 158 147 166 150 129 115 113 122 110 92 96 90 75 73 68 66 54 60 61 79 92 92 99 100 110 111 125 140 147 159 160 161 151 145 135 141 136 133 126 119 113 106 98 96 101 108 107 102 105 107 105 114 118 122 123 128 111 147 156 153 148 147 135 142 142 143 139 107 98 80 81 85 118 122 138 122 125 66 52 48 64 71 110 138 146 138 128 123 79 116 156 153 153 155 150 133 110 119 109 100 86 89 77 72 63 61 52 55 60 56 65 70 79 80 91 81 98 97 120 137 146 160 156 160 151 147 138 131 124 119 102 102 86 81 72 63 69 68 72 71 70 71 80 85 83 101 106 109 105 112 145 163 150 147 135 136 144 139 139 104 89 91 90 67 93 121 116 113 141 53 52 77 72 86 117 144 143 135 126 119 81 132 162 153 152 153 126 117 107 115 94 102 84 91 80 79 78 81 76 69 68 57 63 69 72 79 82 83 97 99 125 144 163 171 157 165 154 143 137 135 127 115 91 98 78 74 65 58 56 50 51 55 54 47 64 76 88 78 103 92 117 130 135 147 154 148 134 132 137 142 141 104 85 103 97 79 73 107 116 105 154 65 83 87 71 89 132 147 141 136 126 98 86 150 160 153 155 143 123 115 113 116 93 113 104 107 103 104 106 104 97 84 70 47 50 50 59 62 74 75 98 115 133 165 178 169 165 167 158 143 139 146 127 111 102 94 78 73 62 58 54 51 55 55 56 54 59 69 82 69 86 97 96 117 121 129 147 146 139 132 134 143 144 100 91 106 102 87 61 90 125 121 124 83 91 105 73 108 134 140 113 141 111 95 100 161 155 157 150 138 120 117 119 115 114 119 123 110 95 89 71 62 52 41 38 25 42 32 41 47 60 61 86 129 150 181 187 176 172 175 160 148 146 149 141 118 98 78 64 56 52 48 47 49 64 72 78 87 80 75 78 71 68 104 100 110 97 113 132 142 142 132 131 147 148 91 89 103 109 95 78 76 123 143 109 68 84 115 80 121 150 118 122 138 88 96 119 159 158 159 138 139 124 122 127 135 120 120 109 77 55 47 36 26 36 20 31 31 59 60 36 37 48 54 88 122 155 183 200 187 181 181 160 149 158 160 146 114 77 55 51 44 40 42 35 35 54 73 87 98 99 91 87 81 81 100 109 109 100 99 122 137 133 135 131 143 147 84 95 110 107 99 97 70 107 137 141 93 89 92 101 136 119 109 142 108 93 99 137 164 157 159 144 145 130 129 135 136 116 88 64 37 32 73 50 44 39 19 51 47 92 101 48 39 32 86 99 137 145 175 199 191 180 186 153 148 164 164 137 106 75 58 58 36 44 63 38 18 130 16 41 51 72 88 95 100 100 94 107 115 106 95 106 128 128 134 138 143 137 89 95 110 105 114 113 70 102 121 152 106 90 102 123 109 100 129 123 92 100 102 145 164 154 155 145 148 144 141 142 121 81 42 44 57 53 118 119 56 63 57 79 58 129 132 64 102 40 127 133 143 150 165 184 195 172 185 156 152 162 155 122 114 96 112 50 32 86 112 42 39 80 12 30 50 82 36 59 87 96 101 99 113 115 108 102 130 130 134 142 143 134 98 106 101 105 110 120 83 102 104 141 118 115 120 120 117 119 127 83 102 94 117 151 162 157 160 157 153 146 142 129 86 42 58 72 131 133 133 159 119 77 84 93 106 143 131 113 104 106 152 150 148 160 159 179 195 171 178 153 157 152 141 128 115 139 111 49 73 130 138 56 66 29 37 45 74 164 47 29 50 58 98 112 114 119 124 135 137 134 135 143 141 133 94 111 97 104 116 132 78 90 90 141 113 108 110 107 114 115 78 80 103 106 133 153 161 161 165 170 172 149 136 110 106 119 140 132 142 159 154 157 135 128 122 137 127 137 134 132 130 152 165 157 161 161 157 167 194 169 172 143 152 150 135 135 119 166 111 81 100 132 148 84 67 62 65 46 107 145 88 50 46 37 60 98 120 128 126 126 130 135 135 142 137 136 90 110 114 116 118 149 67 84 86 115 99 105 105 109 108 81 67 97 114 99 149 155 159 165 167 180 177 164 156 157 180 175 165 167 159 164 159 160 144 139 133 133 128 126 131 134 141 156 170 161 173 159 160 158 191 163 171 144 149 145 133 141 132 139 142 123 111 131 129 130 105 87 83 90 136 127 101 124 89 42 34 67 113 136 136 124 131 142 147 135 138 137 96 108 117 108 114 107 67 80 91 93 99 97 103 98 76 85 78 98 113 114 154 156 159 162 170 183 190 184 182 186 190 181 177 182 182 176 177 173 159 162 145 138 130 137 147 147 161 167 169 173 170 156 161 153 187 161 164 144 155 133 127 141 139 134 124 125 124 127 120 125 130 124 108 116 127 124 135 153 127 102 78 48 82 130 148 143 150 162 155 130 144 133 104 114 88 99 108 85 85 86 91 99 95 98 92 87 77 89 73 93 105 123 152 154 156 160 172 185 189 183 188 183 188 183 182 187 187 178 177 170 155 158 154 156 153 144 161 156 174 172 169 172 163 161 155 152 201 167 160 134 160 136 133 142 150 141 131 126 132 129 114 114 121 122 115 129 135 137 152 153 135 137 134 111 93 97 134 152 158 169 161 137 139 140 89 121 93 94 103 78 96 121 107 105 94 86 102 92 83 96 90 100 107 135 151 150 159 164 175 184 187 184 186 184 175 184 185 183 179 177 177 176 168 173 164 156 159 156 162 175 174 172 170 169 166 167 155 155 187 167 163 130 152 134 139 140 149 147 143 134 130 134 136 117 119 119 121 127 135 137 144 149 148 155 153 154 148 114 132 147 164 171 160 139 139 143 91 92 97 87 96 77 86 100 123 129 92 96 116 106 108 94 103 95 128 137 148 146 154 164 176 175 181 185 184 184 183 180 184 176 181 181 184 174 172 167 159 161 166 168 178 186 183 175 172 165 168 169 153 157 180 170 151 134 148 129 145 146 137 151 148 144 138 123 139 129 139 137 128 133 133 142 147 148 154 161 155 157 160 152 140 160 168 171 160 145 138 144 98 92 90 87 82 81 95 100 115 120 68 72 117 102 133 115 99 95 112 138 144 146 156 166 169 173 176 187 192 180 186 182 185 181 184 184 181 177 169 162 170 172 178 184 184 190 191 176 165 171 167 161 154 164 173 166 155 138 139 136 137 154 142 145 151 148 145 138 144 130 138 137 141 144 143 152 148 152 155 153 161 158 157 154 152 160 165 165 168 147 137 147 112 99 95 79 91 86 86 83 104 108 44 72 126 89 112 109 100 99 94 137 146 142 156 160 163 167 174 183 192 177 188 181 188 182 181 194 167 171 168 167 170 183 171 194 190 188 194 176 164 169 169 164 155 175 161 168 160 139 143 137 133 150 149 147 147 150 147 145 149 134 145 138 149 151 157 159 156 159 157 159 160 157 157 151 158 161 165 163 167 149 133 141 112 108 100 79 90 85 86 90 78 84 39 35 154 89 97 110 101 89 91 127 142 146 151 153 161 162 173 179 191 168 188 188 184 186 179 181 169 172 176 176 172 177 183 186 188 194 197 175 168 166 168 170 155 177 169 166 161 137 136 139 138 139 155 143 155 146 146 149 146 141 139 137 139 142 148 150 159 161 165 157 158 153 155 159 157 162 163 161 167 147 137 145 111 110 102 102 85 76 99 106 54 75 41 27 153 89 101 105 90 86 76 126 143 143 146 150 156 160 166 167 187 181 183 183 184 183 177 183 172 173 180 172 183 172 187 187 185 193 193 172 171 169 168 166 154 184 172 166 156 143 140 136 140 144 147 152 157 143 152 146 142 146 140 138 130 140 139 143 153 153 161 155 152 158 155 158 162 161 160 161 166 143 135 146 98 95 128 114 89 80 92 105 72 82 42 11 132 106 113 113 91 92 75 121 139 138 143 144 156 161 157 162 169 171 180 170 176 177 177 182 171 165 180 171 185 171 182 184 179 179 181 170 167 169 165 159 163 191 175 164 155 139 141 138 138 144 146 154 153 157 151 151 143 143 146 137 137 141 143 143 151 150 154 154 157 154 155 160 159 164 159 165 159 140 134 142 82 92 115 122 92 87 88 104 72 102 46 26 88 135 138 111 85 99 92 117 138 132 143 147 151 158 159 159 161 159 166 167 170 171 179 180 169 172 182 181 175 175 177 180 172 173 180 165 162 164 160 162 164 184 171 168 153 137 142 140 133 138 147 154 156 155 154 153 148 142 142 144 143 147 145 143 149 149 150 146 157 151 158 161 167 167 161 166 157 145 131 137 89 86 98 132 111 85 90 100 79 104 47 39 42 147 146 122 77 97 98 107 138 130 141 146 154 156 160 160 157 160 157 158 166 174 179 181 177 178 172 168 174 171 171 177 172 164 170 159 160 160 171 152 165 168 162 161 146 142 139 141 132 135 142 148 162 156 154 147 147 145 143 153 144 149 148 147 145 150 145 144 156 154 158 159 174 168 167 163 155 143 129 131 89 88 96 110 109 95 102 109 87 57 37 55 13 120 150 132 98 80 93 107 138 129 139 142 152 151 159 160 162 155 167 161 163 168 171 172 180 173 169 168 168 173 171 172 166 154 161 162 160 165 160 156 172 175 154 184 158 139 137 137 131 141 132 140 147 146 147 144 151 147 146 157 151 147 148 142 148 152 150 144 153 155 161 162 167 168 168 166 153 141 131 132 74 99 106 112 127 83 119 98 43 43 42 50 28 73 152 135 110 76 92 92 140 130 140 141 154 157 161 159 162 161 162 174 162 168 171 167 172 166 167 166 167 167 165 165 160 146 155 167 159 169 151 138 206 188 150 204 166 130 145 155 131 146 132 133 145 129 140 147 147 144 146 153 151 148 147 144 146 149 149 154 154 153 168 161 169 163 168 165 152 142 133 126 63 106 98 114 130 90 130 48 38 43 37 45 40 26 151 144 121 89 97 87 135 130 133 140 148 155 162 159 163 159 166 168 170 169 177 173 166 173 173 163 169 163 160 160 149 149 155 166 161 171 144 128 170 172 147 153 138 128 154 171 121 147 147 135 139 129 136 148 147 149 142 154 152 150 148 147 148 149 153 149 155 158 169 159 163 164 168 164 150 142 128 125 50 89 100 98 121 110 115 20 40 35 35 35 52 11 121 156 130 118 110 99 124 132 135 144 148 153 158 156 163 159 170 165 162 174 174 166 169 169 165 162 166 158 151 154 141 152 150 151 163 163 138 130 138 147 139 129 126 120 141 139 120 142 160 158 137 133 127 143 148 149 146 153 149 151 146 148 149 147 152 153 154 162 166 161 161 164 166 163 149 141 130 121 41 100 84 82 121 133 69 18 34 48 38 37 47 17 107 145 147 131 123 126 116 134 133 146 150 157 159 150 164 163 165 167 166 177 174 170 170 173 159 167 157 159 145 147 148 147 140 141 148 146 114 102 133 127 117 109 114 114 130 119 113 119 143 154 143 125 128 140 147 150 150 152 151 146 149 152 152 149 153 155 152 161 158 167 160 167 163 153 149 139 128 120 59 96 65 78 131 124 25 25 39 52 36 39 41 32 80 147 129 150 153 129 116 131 137 144 148 155 154 154 160 159 164 168 172 166 172 168 173 165 164 156 155 152 145 146 161 151 129 129 125 104 54 18 92 115 95 91 97 106 123 73 34 93 113 127 127 120 133 137 142 142 143 156 149 154 146 151 150 149 158 152 154 163 155 165 160 167 162 154 149 139 132 113 80 68 71 92 138 84 22 31 41 46 39 40 38 39 38 145 136 141 159 160 110 126 136 147 150 151 156 155 157 167 162 162 167 165 171 170 163 161 164 154 154 145 145 152 167 150 125 120 95 54 28 31 43 99 93 78 84 105 98 32 14 36 88 111 105 124 143 132 137 137 146 153 149 151 151 150 154 153 155 154 157 160 158 160 159 162 151 152 149 137 133 109 90 68 79 106 139 50 21 35 38 39 39 38 38 42 24 111 145 130 138 159 120 120 134 147 154 150 155 152 159 161 159 159 159 166 169 162 162 163 156 144 148 144 149 168 171 154 131 124 84 52 42 56 65 86 88 68 76 102 94 77 43 36 79 106 75 137 141 139 130 142 142 152 150 144 146 150 156 154 159 156 159 158 160 159 158 157 148 147 147 135 134 114 83 102 94 124 129 29 29 34 34 33 40 39 32 43 29 59 139 131 128 141 120 116 134 148 152 152 154 156 158 156 161 163 162 162 164 160 160 155 150 142 144 146 163 173 165 171 135 142 123 86 73 107 95 83 74 53 60 68 87 111 86 61 86 84 94 145 141 142 131 141 143 143 148 143 150 149 147 158 156 161 154 158 160 156 158 160 153 147 140 132 127 116 80 131 125 130 105 19 34 30 35 32 37 38 39 38 41 27 106 133 140 136 124 116 133 142 152 154 155 154 161 149 157 158 157 162 161 165 156 152 143 140 150 154 170 172 163 176 159 148 152 150 145 119 94 80 85 61 58 60 77 113 130 106 117 115 132 143 142 145 141 134 136 136 145 141 149 151 146 157 154 162 156 161 151 152 155 161 152 148 141 130 124 109 110 139 117 135 67 16 32 29 32 33 35 36 40 37 38 36 49 139 142 146 143 113 132 137 142 152 156 152 157 149 156 153 152 158 152 157 149 145 142 145 157 165 172 172 166 170 169 157 168 161 161 138 91 89 87 65 50 69 93 124 134 135 138 138 142 142 145 151 132 139 141 138 138 140 147 145 150 156 155 156 155 156 153 153 159 157 151 149 146 125 124 102 126 133 120 131 32 25 31 32 28 38 39 34 41 39 39 39 24 125 133 142 146 109 133 134 126 151 152 153 153 149 154 151 150 157 150 159 143 145 150 158 164 169 167 169 169 172 169 156 168 168 152 152 118 98 79 53 71 94 125 131 131 131 143 139 142 141 145 148 141 142 141 134 138 134 141 142 146 157 156 153 158 156 152 155 157 160 148 145 138 125 127 97 128 135 126 97 23 29 33 32 30 32 34 36 38 38 41 37 20 73 126 123 135 115 131 131 139 145 151 154 151 152 148 150 153 156 152 150 138 145 157 161 168 169 159 159 162 169 161 158 160 165 156 154 138 110 81 62 110 134 139 134 131 125 142 139 143 137 143 146 146 141 138 139 130 140 133 139 146 148 158 148 159 160 147 155 157 161 143 143 131 127 121 101 127 135 120 39 27 29 34 31 33 32 39 35 36 40 35 39 36 25 85 110 113 114 135 131 139 140 152 153 153 152 145 148 150 153 151 150 133 127 165 156 167 162 150 149 153 160 158 150 158 165 153 149 143 124 96 96 132 148 138 139 127 125 133 137 142 141 137 143 143 143 130 142 130 139 136 139 142 147 159 150 160 158 146 156 151 157 141 139 126 129 116 107 113 133 110 15 27 32 30 33 31 31 39 31 42 37 35 40 37 34 33 56 55 107 134 133 140 143 147 148 151 150 146 146 146 156 149 151 115 137 164 149 148 153 142 149 162 156 155 149 175 168 147 152 149 131 117 128 142 166 137 143 130 133 131 128 131 135 132 138 142 141 123 145 134 134 133 142 135 146 151 154 152 159 144 155 150 150 134 130 131 127 115 104 113 137 90 15 25 33 29 29 35 35 38 36 37 39 36 37 39 37 38 37 23 79 137 133 138 143 144 147 151 150 149 146 149 150 151 127 143 164 148 141 136 135 143 151 158 158 156 164 172 165 161 141 148 145 127 139 146 167 154 146 139 139 142 136 137 133 138 140 140 136 126 131 138 135 133 142 135 141 148 151 149 156 143 152 147 145 139 125 133 126 110 112 130 132 65 17 27 32 28 31 32 32 36 39 35 33 41 34 38 42 34 39 30 55 139 135 134 140 142 137 147 151 149 140 153 156 143 143 157 154 135 139 125 127 139 148 154 153 154 160 157 150 142 137 150 154 143 157 155 155 146 138 142 141 149 151 140 146 143 137 138 140 129 129 129 136 135 131 136 143 146 145 151 151 150 149 147 144 135 131 130 125 107 109 125 108 20 26 28 30 32 31 28 35 38 36 35 40 37 35 35 41 36 39 30 34 137 127 141 142 141 136 143 147 142 144 146 147 140 145 149 147 126 135 124 132 134 152 157 142 138 135 121 103 96 89 98 113 115 125 116 113 100 102 105 121 129 140 137 160 146 134 142 140 120 125 130 125 135 134 131 143 146 143 151 145 146 143 143 145 132 131 126 122 108 100 100 31 26 31 31 31 33 30 30 36 30 38 38 38 38 38 36 36 34 38 41 19 125 132 138 141 146 135 144 144 140 142 148 138 146 141 148 136 118 132 129 132 141 146 136 116 99 90 74 59 44 51 60 62 75 78 80 59 58 56 55 65 83 101 113 128 134 130 131 129 122 133 129 126 130 136 142 137 148 146 153 144 143 137 143 139 127 130 122 121 102 30 31 26 31 30 30 31 33 28 32 33 38 32 37 36 38 35 36 39 39 41 32 15 117 129 134 132 145 140 138 141 141 142 149 140 141 140 142 138 128 132 131 130 117 117 97 72 69 47 24 24 23 24 36 35 41 37 36 35 35 36 26 24 31 47 70 86 105 109 109 119 116 128 128 113 123 131 139 136 145 147 151 147 139 144 137 138 130 127 112 132 72 18 29 27 31 30 30 32 31 32 32 34 41 34 36 36 39 34 39 32 40 37 36 14 110 130 129 132 141 142 136 142 146 146 147 138 149 148 142 134 113 128 119 104 76 59 51 46 38 23 19 21 26 28 40 47 45 38 26 41 39 37 27 22 22 24 18 47 52 48 57 81 103 113 128 112 118 134 133 144 144 143 149 147 143 138 139 139 133 116 115 129 37 24 32 27 31 27 33 29 28 37 31 29 34 37 35 34 36 37 35 34 38 33 39 25 118 125 126 125 137 145 141 139 143 144 139 148 150 144 144 127 103 111 92 100 77 83 93 67 63 63 68 77 71 58 44 37 43 45 31 46 43 38 50 46 37 45 59 77 74 75 90 89 87 94 113 105 125 127 135 136 147 149 138 141 140 139 135 132 124 111 113 115 16 24 26 29 26 32 29 34 29 32 33 30 37 33 37 34 37 37 35 37 34 30 42 43 124 124 122 125 136 141 134 145 145 152 146 148 148 144 145 133 105 108 112 129 142 137 146 143 124 123 126 130 139 122 119 101 105 85 81 80 81 84 99 100 102 105 107 104 109 125 137 135 120 94 99 106 123 128 136 135 137 150 136 139 144 139 135 132 115 114 126 77 17 28 34 31 29 28 33 28 34 30 34 32 39 32 41 34 36 38 35 36 37 36 24 50 133 116 125 125 135 138 135 143 143 145 146 146 144 145 145 129 107 124 127 139 151 144 141 142 141 131 122 123 129 131 121 133 134 109 118 134 116 127 114 119 106 114 115 105 117 141 143 142 145 127 109 105 117 127 134 133 138 150 145 143 142 134 130 129 115 114 129 37 19 32 31 29 29 32 31 29 31 32 34 33 40 33 37 36 39 39 30 41 34 39 20 66 127 117 123 124 127 140 131 137 140 140 145 147 147 140 135 124 113 123 137 142 147 150 138 127 132 134 135 124 114 120 101 116 118 113 110 129 121 101 115 114 104 113 115 124 125 130 137 144 141 145 130 104 110 122 132 135 138 142 145 146 135 132 131 121 113 117 117 14 21 38 28 29 29 31 30 33 32 29 30 37 29 36 38 34 38 37 36 38 37 36 13 94 128 123 120 116 127 133 135 138 135 138 138 146 139 139 136 124 119 129 132 133 141 142 136 117 122 128 129 131 129 117 114 118 113 110 114 118 111 109 105 116 106 121 120 120 115 118 136 140 141 142 131 117 108 114 130 127 136 139 143 141 127 131 126 117 112 127 69 16 30 32 30 27 32 29 28 33 33 28 35 31 33 37 34 40 36 35 33 36 34 43 5 107 122 125 117 123 131 131 137 133 133 136 135 135 138 132 131 123 122 130 124 130 132 133 127 119 119 110 120 119 118 118 121 117 122 119 123 113 114 114 107 114 109 115 112 112 112 120 130 135 136 139 130 123 115 110 125 134 127 130 141 134 130 125 123 115 113 121 22 25 32 28 31 29 33 28 31 33 30 32 31 32 37 36 32 38 38 32 37 33 36 41 5 123 124 126 119 123 131 129 135 134 129 132 132 131 130 128 127 121 121 124 119 128 129 128 127 127 121 112 106 106 102 92 93 91 94 100 100 91 87 92 89 100 102 106 106 115 119 120 129 131 134 135 124 121 124 108 122 131 128 128 128 133 125 117 118 117 124 84 13 32 27 30 29 30 29 31 30 29 30 33 30 35 37 33 33 38 35 33 36 35 35 42 22 126 118 126 116 122 133 128 131 131 127 128 127 129 128 124 122 117 117 122 121 128 130 128 131 131 119 125 116 106 96 83 74 66 65 75 71 68 66 67 78 88 100 98 107 117 123 125 128 120 129 134 128 128 129 114 120 124 123 127 125 131 120 119 119 117 125 38 24 33 29 29 30 26 32 30 29 31 29 36 33 33 37 31 33 41 33 34 33 37 35 40 18 132 122 125 120 125 129 131 133 123 124 126 127 128 126 120 120 116 121 125 130 129 128 131 132 131 125 129 128 121 104 98 83 64 54 54 54 60 63 76 81 91 101 105 117 116 121 128 129 125 127 131 127 137 132 123 123 120 122 125 124 122 119 116 120 117 106 20 24 35 26 29 32 29 30 31 28 33 32 31 36 31 32 34 33 36 35 37 37 33 36 33 26 127 118 127 126 127 125 135 127 125 128 122 123 122 124 116 123 128 125 124 132 129 133 135 137 135 124 129 130 126 117 110 98 86 74 64 67 75 84 90 101 101 109 109 114 118 121 127 133 131 130 135 133 130 131 124 130 119 123 123 122 118 125 113 120 123 66 19 28 32 26 31 30 29 28 33 29 33 34 33 36 35 31 36 35 34 38 34 39 33 33 16 132 115 118 124 127 133 124 135 129 129 126 128 120 118 123 119 123 124 123 131 131 140 140 138 138 140 134 128 130 123 128 114 111 108 100 102 100 99 102 106 102 110 115 117 113 115 123 126 120 134 135 127 131 130 126 124 127 124 123 123 124 115 122 119 115 121 38 22 29 26 29 28 31 31 29 31 28 30 33 32 36 33 34 35 35 33 38 35 35 35 19 124 168 96 122 122 127 132 127 124 134 127 127 122 121 117 114 120 118 122 122 121 127 139 140 135 138 144 138 135 136 125 135 126 132 130 139 139 134 140 134 129 122 120 124 123 121 119 128 132 128 133 129 135 134 129 129 120 128 127 116 122 122 112 125 118 118 109 19 30 30 29 33 30 30 31 27 31 30 32 33 32 36 35 39 35 33 33 37 33 34 22 79 215 86 91 124 126 129 134 127 126 125 133 123 119 125 124 113 111 117 119 117 118 133 134 142 132 145 149 142 139 138 136 143 139 147 139 147 147 145 148 149 146 136 135 129 128 129 126 136 137 139 134 126 131 140 126 120 115 117 127 116 120 122 117 126 116 123 77 22 27 29 31 27 30 32 25 32 30 33 31 32 35 34 37 38 31 33 37 34 36 29 39 203 201 42 83 125 128 126 135 128 123 125 130 123 125 123 119 116 113 114 114 121 120 121 141 134 131 143 151 142 146 146 154 157 155 156 154 158 154 158 158 156 155 150 137 140 137 138 132 141 140 138 135 134 132 132 126 114 112 112 121 114 116 117 118 122 109 127 39 24 29 31 29 31 30 29 31 30 31 31 34 33 35 35 36 36 35 34 32 36 33 18 144 233 163 52 56 131 126 125 133 129 124 124 129 125 124 125 119 112 118 115 111 114 121 125 133 132 131 137 145 141 147 148 155 158 154 155 149 153 152 159 158 154 153 146 139 139 137 136 137 139 142 139 136 135 137 127 125 115 109 114 113 119 116 118 120 120 110 120 19 26 31 29 28 32 31 25 31 30 30 31 31 36 37 38 38 37 40 40 37 38 67 98 208 223 149 85 38 133 130 127 131 131 124 126 124 125 123 123 117 121 113 108 102 112 109 129 128 128 130 134 137 150 142 148 153 149 156 150 156 149 148 150 149 152 143 133 136 139 136 135 139 134 137 131 128 131 135 119 117 107 108 109 113 115 114 115 120 115 121 99 80 46 23 30 29 33 29 30 28 33 29 31 31 36 36 35 41 144 141 142 144 159 173 175 213 220 152 103 15 126 131 125 129 126 127 123 123 124 122 128 118 126 114 114 103 107 109 119 127 119 132 129 136 141 148 137 147 147 144 144 142 144 137 134 135 131 128 122 132 132 129 133 130 135 127 122 130 121 130 109 112 109 105 107 112 110 109 118 120 115 127 64 69 97 82 30 21 34 29 30 30 34 31 33 33 34 36 33 38 188 190 194 196 197 180 199 211 214 182 112 5 108 131 125 126 124 125 118 117 120 124 122 124 123 122 121 116 102 104 104 114 118 121 125 119 119 136 137 137 139 129 133 130 128 120 123 119 116 112 111 120 118 118 124 119 124 126 120 124 107 122 105 109 102 104 104 111 109 115 117 120 123 110 50 65 64 94 118 38 24 30 28 35 29 33 32 35 37 35 38 37 200 201 200 199 198 188 210 211 199 196 141 16 88 129 126 125 125 125 120 117 112 122 125 113 116 124 119 119 115 99 95 101 116 114 120 116 104 119 135 133 117 123 121 120 117 107 112 106 103 110 108 106 105 113 115 115 113 116 113 116 106 107 103 107 94 99 105 106 109 115 119 121 133 65 57 68 65 68 98 144 62 21 30 27 33 31 36 33 38 36 36 40 200 197 197 200 199 197 214 211 182 192 170 59 59 125 125 125 123 122 122 119 114 114 117 121 111 127 115 118 113 110 103 92 99 106 108 114 112 103 117 122 110 116 113 107 105 104 99 97 101 98 102 103 105 103 108 110 102 108 102 106 103 100 103 95 96 101 104 108 111 120 120 121 124 34 57 68 67 67 96 116 176 92 23 25 31 34 37 33 38 37 38 36 196 190 185 196 192 206 213 215 165 192 176 127 29 122 122 124 122 119 120 122 112 116 117 112 119 119 117 113 111 111 108 92 87 93 98 108 103 98 95 102 104 99 101 102 94 95 90 85 89 88 87 98 97 98 98 96 98 102 95 104 94 94 98 89 96 104 106 109 113 117 119 136 71 34 54 66 62 83 96 122 168 198 145 23 25 30 34 33 40 36 35 41 193 189 184 195 198 210 213 211 160 169 202 182 35 96 125 120 124 123 116 120 115 111 115 109 111 114 116 109 115 105 107 99 82 81 83 100 91 91 90 86 96 94 88 91 86 85 87 84 79 81 80 87 87 91 90 88 93 94 95 91 93 94 92 97 94 103 106 106 113 116 123 129 31 47 49 60 70 88 104 135 176 176 192 175 51 23 32 39 33 38 39 39 192 190 197 196 207 211 212 196 170 154 192 205 96 51 125 120 123 123 116 123 116 112 115 112 111 105 109 104 107 98 108 101 89 91 77 78 79 86 85 83 83 86 86 84 80 80 77 77 76 78 76 76 86 81 82 84 87 82 81 81 91 90 93 97 98 108 108 110 116 116 128 79 30 51 47 52 78 88 121 172 170 156 176 187 199 67 23 37 36 40 38 41 199 193 189 204 210 211 213 178 189 162 173 184 186 29 103 124 120 117 116 120 112 116 111 113 112 105 104 107 105 98 107 99 96 86 84 79 78 67 71 75 86 82 85 82 78 75 79 75 76 78 77 76 78 77 73 75 75 74 84 87 92 91 91 97 100 105 106 110 115 117 128 55 29 54 50 45 75 95 154 156 156 168 171 181 187 213 74 23 36 43 38 45 201 180 199 209 210 213 208 174 196 170 177 149 216 91 49 123 118 116 116 112 114 109 110 109 111 105 101 105 104 99 100 99 94 89 81 80 81 72 65 65 66 72 79 80 78 78 82 80 73 75 76 71 74 73 66 77 72 79 89 87 96 92 104 94 107 104 111 114 114 113 123 47 20 51 56 48 65 122 156 153 173 170 172 159 177 201 211 61 26 40 41 41 185 188 210 209 207 209 203 182 183 180 169 144 177 174 33 104 119 119 112 115 109 112 104 101 104 106 100 107 103 105 96 97 97 91 84 82 78 71 71 70 66 63 67 66 72 71 72 73 71 68 72 71 69 74 78 75 82 88 92 91 102 94 101 101 104 108 111 113 111 113 117 32 17 37 55 57 50 147 138 172 168 161 173 186 179 190 198 206 88 21 41 41 184 210 194 171 162 173 188 199 174 187 164 150 151 201 80 52 122 119 120 112 108 108 102 102 98 104 99 102 102 102 101 102 95 91 85 87 79 76 83 72 74 68 69 66 69 64 67 65 67 64 70 72 73 82 80 82 85 87 95 93 96 98 102 102 104 107 111 110 111 115 95 25 12 30 51 72 46 139 134 172 158 179 181 187 198 183 188 194 216 135 24 36 