P2
92
112
255
120 119 121 119 123 121 121 121 122 119 122 122 119 119 119 124 122 114 111 117 111 117 117 115 114 118 100 98 99 101 86 76 67 62 58 59 63 62 63 82 83 94 94 84 76 68 72 78 78 90 68 46 48 63 77 88 78 79 72 59 71 86 113 118 114 120 115 117 119 118 120 117 118 116 117 116 117 118 113 118 118 118 117 117 119 116 116 116 119 113 117 117 121 122 121 118 123 122 121 124 121 119 123 121 117 122 121 117 114 113 113 114 111 119 117 104 99 108 98 76 52 68 93 101 91 73 63 77 77 72 77 79 85 89 72 76 80 81 77 76 70 78 90 59 53 56 59 80 78 83 90 75 74 62 79 110 118 118 117 116 120 115 118 120 117 118 119 114 115 118 114 118 115 118 115 117 119 117 116 117 116 115 113 117 121 119 122 118 123 120 123 121 120 120 120 123 116 119 124 116 108 112 111 97 111 117 98 92 86 112 100 92 63 53 56 67 66 74 70 79 78 77 81 78 76 60 86 89 70 76 79 75 69 66 73 84 57 61 60 63 82 76 79 77 85 89 69 82 107 118 117 119 115 116 118 115 117 119 115 116 116 118 118 118 119 119 116 118 117 116 116 115 119 115 117 117 119 120 120 120 120 119 123 121 121 117 119 123 117 117 115 107 101 93 95 97 114 108 93 73 78 93 118 94 70 72 67 75 60 73 75 73 64 60 66 70 69 68 83 81 79 85 78 80 83 70 71 75 83 60 50 63 57 78 84 76 75 79 86 78 92 104 112 118 118 113 119 119 116 117 120 118 116 119 117 119 118 116 117 118 117 117 115 118 115 116 117 116 125 119 120 123 118 123 119 119 120 120 118 120 118 113 105 97 84 76 99 101 119 104 94 79 76 90 107 110 93 75 63 75 73 67 83 63 57 52 49 58 59 70 76 84 83 94 97 92 90 82 73 74 89 76 70 65 62 54 66 83 79 82 95 80 92 89 98 104 114 116 117 118 115 113 121 116 116 120 116 116 118 118 113 117 117 116 118 114 118 120 113 118 119 120 122 118 123 118 117 121 122 120 117 114 108 93 95 92 94 93 99 106 117 105 91 88 79 95 90 101 89 97 80 88 90 75 63 49 54 44 45 54 60 55 60 73 84 83 87 85 96 91 87 76 89 87 79 80 83 64 68 64 70 82 91 89 86 82 84 82 98 115 114 117 115 115 118 117 118 117 118 120 118 115 120 115 118 118 118 114 119 118 114 119 120 120 121 116 123 118 121 119 124 123 113 106 90 82 92 104 105 109 116 116 131 126 120 108 101 107 96 104 88 66 72 73 76 53 47 49 43 35 37 49 56 56 60 66 70 88 84 90 78 84 92 87 74 87 87 83 86 82 82 67 79 76 81 82 85 82 79 74 74 82 102 114 117 115 115 118 121 117 116 117 119 115 120 118 120 116 118 114 120 117 116 117 119 118 123 118 120 120 119 119 124 121 107 98 76 82 87 99 114 126 127 128 129 125 124 108 96 112 112 113 100 79 66 58 55 48 46 35 36 35 38 43 53 49 72 52 59 76 78 81 75 81 76 85 93 90 88 83 74 80 77 73 71 81 85 81 87 94 84 92 87 77 73 95 106 115 113 114 116 117 118 114 118 114 116 116 117 114 116 116 116 116 114 117 118 122 121 121 117 120 115 125 129 111 96 86 85 78 85 98 104 123 123 125 124 120 121 116 110 118 127 128 107 95 88 72 57 52 53 48 43 38 46 47 57 49 69 74 59 66 82 74 70 75 77 74 67 96 87 88 86 79 86 76 72 68 74 84 86 81 84 95 91 90 89 79 87 102 114 111 114 112 118 114 118 117 115 113 119 115 116 118 114 115 117 117 119 120 120 116 121 118 121 130 124 118 94 89 88 85 105 98 106 126 130 124 125 123 121 127 109 124 127 137 118 101 103 87 72 62 58 58 63 54 65 54 55 57 51 81 67 67 76 78 70 59 68 76 70 63 107 82 94 99 80 88 86 76 78 70 77 88 79 81 84 82 98 81 80 83 96 101 108 113 115 115 117 119 115 115 118 117 115 119 118 118 114 120 120 120 118 118 120 118 121 120 119 115 104 91 96 93 106 114 107 116 118 116 130 130 114 121 124 131 134 148 127 113 115 95 84 71 65 72 57 58 61 58 58 67 66 74 75 68 78 85 84 87 70 75 79 64 79 91 55 103 97 81 82 83 82 83 73 78 83 77 88 68 74 79 82 77 82 81 81 92 103 103 112 112 117 115 114 114 119 118 115 115 118 113 123 114 121 118 121 120 121 113 123 121 109 109 105 108 110 107 113 108 99 98 115 124 106 124 144 150 155 155 152 120 116 116 92 74 85 73 74 73 71 59 64 72 81 81 84 81 75 74 66 74 88 70 84 79 53 94 81 67 99 93 85 75 75 79 83 80 79 83 90 75 64 64 66 72 69 73 74 64 65 74 74 78 89 94 103 113 111 108 110 110 119 101 120 116 120 122 118 122 116 110 124 123 114 112 111 115 117 122 118 104 95 93 102 111 129 147 152 154 158 159 154 140 111 122 107 86 81 86 76 79 80 86 68 78 79 74 87 84 87 84 86 83 75 74 80 91 52 87 85 85 78 112 88 83 71 79 91 85 85 83 97 90 63 57 60 65 60 65 71 74 62 79 79 79 83 88 92 99 93 99 104 104 101 85 120 118 118 116 123 122 117 103 118 126 134 122 119 132 118 100 99 94 92 98 115 125 146 153 152 150 154 152 150 147 129 116 118 97 95 88 92 82 90 96 95 86 89 95 99 89 94 91 80 92 86 76 81 98 77 79 74 85 80 90 109 86 83 61 86 99 91 94 84 88 91 60 60 57 66 56 56 62 68 75 76 72 81 85 89 90 91 85 92 92 96 76 120 116 119 112 127 119 107 106 113 132 129 126 132 136 109 89 90 99 105 117 130 135 145 158 157 155 149 152 146 142 146 129 116 102 99 90 93 85 79 93 96 89 99 102 114 110 108 107 101 81 86 85 77 99 88 79 84 89 89 86 106 90 98 75 71 85 99 95 104 95 92 85 68 59 60 56 59 53 50 65 77 71 72 66 73 67 78 81 82 86 70 66 117 113 118 119 118 115 104 98 120 117 123 132 133 129 102 91 101 122 125 125 139 139 153 163 158 150 158 154 156 142 138 148 136 121 106 95 97 93 85 77 82 88 90 89 101 112 114 106 98 101 90 91 76 84 87 84 85 97 98 95 101 98 94 102 79 74 91 98 91 99 96 92 76 71 59 51 53 48 52 47 62 63 67 64 73 70 72 67 77 73 77 85 120 117 115 119 120 110 104 98 112 107 124 143 130 120 105 96 109 133 135 137 145 151 154 158 160 159 161 167 167 145 137 139 140 138 131 113 106 106 103 98 94 90 97 106 112 124 131 116 111 110 101 91 89 69 89 94 92 83 110 104 93 97 89 103 92 89 84 100 86 86 101 101 80 79 69 60 52 36 46 47 50 57 56 57 67 63 71 73 79 79 87 87 117 114 116 114 116 115 106 105 103 102 133 140 119 113 98 93 127 143 137 144 149 151 149 159 158 164 163 166 168 157 153 137 139 136 137 141 126 113 110 114 111 108 109 108 102 102 104 110 107 111 120 101 94 68 89 97 103 97 107 113 90 97 93 98 94 90 99 84 100 75 101 103 86 79 68 58 60 51 42 33 54 58 54 57 66 59 62 64 78 77 88 71 114 117 113 116 110 120 107 104 106 106 144 132 104 108 99 109 139 146 143 149 147 155 157 158 157 164 167 162 161 162 168 155 149 142 140 135 137 131 125 117 121 119 110 110 101 91 94 93 100 102 101 113 101 88 83 96 94 102 107 111 100 96 98 97 87 89 96 90 94 82 88 114 94 75 74 68 62 61 55 51 38 55 66 49 61 72 69 61 67 72 58 70 112 115 113 111 103 130 104 111 110 123 140 114 104 104 111 126 150 152 144 148 149 157 160 159 158 163 168 169 167 169 175 168 172 169 160 149 137 132 135 128 135 129 117 122 113 100 102 98 106 107 95 100 114 98 89 80 92 96 95 103 108 106 92 103 88 87 96 94 91 82 85 96 103 87 72 57 65 69 68 71 62 56 60 50 53 67 85 76 72 72 61 62 115 111 115 104 106 108 121 96 128 136 123 105 99 94 120 142 154 151 148 145 148 158 155 156 156 166 176 174 173 173 178 177 181 181 187 176 164 149 139 142 134 138 133 132 133 116 108 115 106 116 109 95 104 115 100 80 86 91 101 102 104 101 97 103 92 98 94 92 86 89 84 86 84 97 74 67 65 57 71 72 66 60 63 50 61 55 72 71 69 71 75 68 115 110 110 103 100 91 126 91 136 143 110 79 88 97 121 150 155 151 145 150 147 160 159 159 165 168 176 174 176 170 179 180 183 185 190 198 185 173 154 155 151 152 143 134 135 133 119 111 112 120 109 99 90 132 103 74 84 77 107 107 95 95 101 105 95 106 107 84 85 81 90 85 75 80 73 73 68 69 67 76 69 59 64 53 52 57 76 63 74 75 67 70 111 110 101 99 98 80 94 117 131 144 86 68 107 122 147 152 154 150 146 150 148 158 166 169 172 167 174 180 180 171 176 183 185 185 189 194 193 189 176 162 160 165 164 151 144 153 141 126 133 119 129 110 87 103 135 85 74 87 90 104 86 86 102 97 79 88 97 91 87 86 77 77 75 81 61 68 73 64 69 78 84 66 49 63 51 55 65 74 80 73 77 71 109 107 103 101 81 78 83 123 140 140 88 96 127 125 144 154 146 149 151 151 155 160 168 168 168 169 173 178 186 175 175 178 186 188 187 194 192 190 187 177 177 169 167 160 155 160 156 143 136 142 128 123 115 82 127 108 77 88 91 81 89 85 89 90 78 78 80 71 75 81 79 76 72 77 59 52 78 67 68 64 92 84 62 62 68 62 45 68 72 70 71 73 105 102 101 100 51 68 64 123 138 135 97 110 114 125 144 150 143 147 152 148 153 154 167 173 172 170 173 172 188 183 182 180 184 189 191 192 192 193 188 189 185 184 179 167 167 156 164 158 141 144 141 133 121 98 105 118 93 81 89 80 71 82 77 81 74 90 90 89 88 81 65 58 72 72 67 44 72 77 77 75 91 85 67 80 79 74 63 51 59 70 73 82 100 96 102 83 38 61 57 107 136 138 91 107 113 130 142 141 143 145 150 152 154 161 167 169 175 172 174 172 184 182 185 186 189 193 194 194 193 189 191 190 188 187 186 181 175 168 165 163 156 152 148 138 137 108 94 115 98 92 75 80 76 72 57 84 71 83 89 98 99 94 82 66 64 66 81 56 65 83 81 78 83 85 64 88 78 50 67 59 55 60 70 66 102 95 93 73 35 50 62 88 132 138 97 99 111 135 135 135 143 147 152 150 157 163 169 168 175 176 177 176 178 182 187 187 190 192 194 191 197 192 189 189 190 188 183 186 186 181 175 167 164 163 155 152 144 111 91 105 102 93 93 75 76 76 66 66 67 67 75 82 86 85 75 66 68 61 65 72 71 93 82 77 81 87 79 104 69 40 55 77 71 59 64 81 96 97 86 56 45 48 62 75 119 129 99 98 117 134 129 133 142 147 150 154 157 163 169 169 173 175 177 175 177 181 188 186 191 189 189 192 191 195 190 190 188 187 188 183 186 188 183 181 177 178 173 161 155 130 103 94 105 107 105 82 82 82 71 60 63 64 65 67 64 68 64 69 78 69 66 72 76 85 92 82 83 93 91 93 61 34 52 77 82 79 80 95 94 95 78 42 36 55 67 82 113 113 110 105 115 135 131 133 145 144 151 153 154 161 166 168 170 176 177 176 178 180 188 187 187 185 188 185 187 193 189 188 187 186 187 187 184 186 186 180 184 180 183 169 168 148 122 94 108 110 126 84 81 86 85 64 66 65 66 67 71 75 85 91 88 81 78 72 90 82 91 82 91 90 108 75 55 41 38 71 81 89 92 95 92 97 64 37 33 64 64 91 110 109 113 109 115 133 126 133 143 144 146 148 157 159 164 165 167 169 175 177 177 178 184 184 187 183 183 182 184 189 189 182 183 185 185 188 183 187 189 181 183 185 182 178 173 168 144 111 104 110 141 112 78 107 102 82 75 74 80 86 83 86 92 91 103 93 84 77 91 91 89 90 86 94 103 72 46 47 35 47 82 91 89 93 90 94 59 36 45 66 66 85 107 113 118 113 118 130 133 130 141 142 149 149 159 161 160 165 168 170 178 176 176 180 180 183 186 187 189 184 182 184 186 185 186 181 183 187 187 182 188 182 188 182 183 183 178 179 170 133 111 106 132 138 90 94 130 106 86 91 82 92 98 89 97 94 107 104 91 87 88 88 79 86 80 77 96 81 52 40 39 43 66 83 85 97 88 81 60 54 62 59 66 85 108 115 117 122 128 132 131 132 135 140 146 152 156 162 164 163 169 171 177 175 179 179 180 183 188 184 181 180 180 181 185 186 186 183 181 183 185 184 184 184 186 180 183 182 183 179 178 162 126 110 126 148 143 82 110 127 105 90 101 89 98 99 103 103 93 98 100 96 101 103 97 84 95 84 104 107 47 39 47 58 67 79 88 95 86 85 68 73 59 58 64 86 115 114 113 123 130 128 124 133 134 136 143 150 157 160 165 164 171 172 176 174 181 177 176 186 187 185 182 182 179 179 180 186 186 187 184 182 183 183 182 183 180 189 181 180 181 181 180 168 141 119 127 139 159 143 96 118 126 104 98 105 107 100 94 103 105 102 96 94 107 109 109 96 80 104 104 117 65 43 39 52 79 84 95 92 87 83 56 59 66 64 76 82 109 115 116 121 122 123 125 130 132 136 138 149 154 162 162 170 166 169 174 173 178 179 183 189 186 190 188 188 184 181 182 185 186 184 183 183 185 181 181 182 179 187 185 185 185 182 184 177 174 149 140 134 154 162 157 109 115 123 118 117 119 117 105 104 99 100 97 96 103 115 111 108 77 82 118 112 79 57 37 58 76 91 85 92 86 80 50 64 59 60 86 83 103 115 120 118 118 128 126 130 131 138 140 142 152 162 162 168 168 169 175 175 175 184 183 191 188 186 188 192 191 186 188 185 191 188 178 185 185 182 184 185 184 190 184 182 181 185 183 183 182 171 157 152 140 160 166 148 121 107 117 120 124 119 111 109 98 107 105 93 104 112 108 104 95 71 115 120 72 49 57 63 79 72 84 94 77 74 72 69 53 66 78 82 100 115 118 120 115 125 130 128 129 134 137 142 156 160 156 159 162 171 175 176 181 179 183 186 188 189 184 191 190 190 190 189 192 192 189 183 187 186 186 186 185 193 189 181 176 185 184 181 183 183 173 160 158 150 158 162 154 134 114 103 110 108 108 101 96 102 102 104 111 110 108 95 89 90 106 115 86 32 69 78 62 62 88 99 75 91 83 69 76 69 67 85 110 107 118 115 105 116 131 127 127 133 137 147 155 152 148 150 162 165 173 179 180 178 179 183 188 186 183 185 186 187 188 190 190 191 193 187 187 187 184 188 184 190 192 188 183 187 186 180 181 184 178 162 168 163 144 155 157 150 143 129 107 104 104 100 101 109 113 115 111 103 110 107 86 85 112 108 94 45 76 81 58 54 93 99 91 113 82 80 78 53 64 99 103 104 109 103 102 121 125 125 123 130 143 153 144 135 130 139 145 151 154 163 164 170 172 176 176 188 175 181 181 183 184 186 187 185 189 187 186 191 183 185 184 189 191 190 186 189 190 186 181 184 175 169 173 169 157 153 152 143 147 135 132 122 114 113 112 104 125 108 112 98 105 104 101 78 103 117 83 64 86 81 43 48 91 109 104 122 91 72 56 48 87 104 98 99 95 91 99 118 121 123 122 129 144 151 132 123 113 121 122 125 122 125 126 130 137 137 132 148 149 150 168 176 173 178 179 179 176 182 188 189 185 179 180 186 187 181 182 187 184 186 183 186 177 176 171 169 166 161 159 156 148 142 139 134 130 128 123 109 125 115 104 102 97 100 94 92 101 118 84 65 92 78 43 51 91 107 103 125 93 69 61 66 97 97 98 91 88 80 97 123 124 125 124 130 134 130 118 104 107 113 114 111 103 100 89 94 94 95 96 105 127 122 138 152 155 164 165 170 170 175 188 184 182 174 173 175 173 175 175 176 174 180 171 179 181 175 171 164 167 170 161 163 154 148 143 132 131 128 128 110 124 115 105 109 101 95 94 89 98 110 92 62 87 73 55 57 98 105 98 125 100 71 82 86 101 98 94 90 82 84 104 123 122 127 124 128 118 102 99 98 93 99 97 91 79 75 72 71 75 75 85 86 106 106 117 128 134 146 164 166 164 172 176 179 176 170 174 170 165 165 165 164 158 157 154 163 171 159 155 157 154 163 156 156 152 139 146 140 132 128 126 111 116 117 108 108 104 97 87 90 94 109 85 68 75 59 50 63 102 106 73 104 112 92 92 92 96 94 91 82 80 84 113 125 120 121 121 122 105 99 99 88 79 79 82 82 82 89 92 91 89 89 91 97 100 106 109 118 126 136 155 161 165 171 176 174 171 162 166 166 154 152 143 140 120 117 112 118 124 115 111 124 126 131 137 133 138 129 133 147 136 126 126 113 111 111 108 106 97 88 94 91 88 113 73 68 75 54 45 63 96 108 80 75 92 99 86 93 94 89 87 82 78 91 115 131 120 122 119 108 97 94 96 81 88 77 92 103 111 121 122 123 116 107 101 106 103 105 107 116 124 128 148 160 160 167 172 172 170 163 155 157 143 129 117 108 97 95 87 82 78 76 81 89 92 104 100 112 116 119 109 125 138 131 120 113 110 113 104 100 96 87 82 100 86 111 81 67 71 66 50 63 98 106 78 92 73 79 74 85 87 78 76 82 78 97 123 129 122 122 112 98 98 94 100 98 100 89 112 121 128 134 135 129 125 111 102 99 97 92 102 111 122 126 145 159 164 170 174 175 167 158 155 144 132 127 111 102 102 89 79 70 74 67 70 74 80 88 83 82 100 106 109 102 119 133 117 117 108 111 108 96 85 90 81 94 93 106 83 64 65 64 58 60 99 108 90 103 85 67 71 79 76 77 68 88 91 114 125 125 123 122 108 95 98 103 109 110 113 108 116 112 104 100 86 82 78 66 71 73 82 98 94 88 103 126 148 166 166 178 180 179 168 158 147 124 121 117 108 100 100 85 87 89 94 96 94 86 80 77 75 84 90 81 80 101 101 120 123 115 112 109 102 98 78 71 88 90 96 94 100 79 58 67 70 64 88 105 103 96 89 73 76 69 83 73 73 89 104 121 124 121 120 123 108 97 103 108 116 116 115 103 89 76 71 57 32 93 79 35 84 80 71 78 104 91 85 118 152 164 171 182 186 178 173 153 141 125 110 104 98 95 94 94 95 105 111 110 121 118 106 94 80 87 88 86 64 73 91 108 114 116 114 108 99 99 79 63 83 82 99 86 100 96 65 64 77 74 82 104 87 95 85 90 72 74 82 91 81 103 126 122 128 130 120 122 114 104 107 115 118 110 91 72 48 75 87 61 53 49 126 33 114 136 89 76 87 104 90 101 140 167 177 191 193 181 174 151 137 123 101 91 97 103 98 88 88 92 106 120 124 128 128 119 103 96 92 90 82 76 77 92 105 116 112 108 103 98 73 58 90 82 80 91 93 98 89 73 64 75 84 105 92 83 90 97 95 96 92 90 97 117 119 126 126 129 124 119 118 113 114 120 112 92 70 52 39 110 121 71 72 44 66 63 134 162 121 100 83 106 100 109 131 163 173 192 193 183 171 149 128 113 95 92 102 94 83 83 74 49 62 74 89 110 120 123 118 112 92 90 76 78 72 81 95 111 114 107 104 102 68 58 80 86 69 87 95 95 94 76 62 80 95 110 85 97 86 77 94 100 102 96 110 118 118 123 127 128 128 127 127 124 118 116 95 87 65 69 80 103 135 95 76 65 77 84 142 151 124 108 88 124 113 121 136 150 168 190 192 183 174 138 117 107 88 114 110 78 86 120 106 26 112 71 32 49 74 94 113 118 115 102 91 85 86 68 89 107 112 110 106 99 75 50 73 74 62 68 93 98 99 90 80 84 100 109 88 102 105 102 99 100 94 100 111 124 121 124 128 133 135 141 142 128 111 103 97 109 84 89 111 113 124 124 110 111 122 121 136 129 122 121 130 132 126 128 138 148 165 189 189 183 170 131 115 102 97 137 113 83 104 160 114 42 79 108 34 46 68 54 70 99 111 112 104 101 97 82 86 101 110 111 106 100 79 51 68 73 66 58 76 95 101 94 87 99 100 110 79 90 110 103 97 84 92 104 120 124 120 126 128 136 144 156 149 130 121 128 146 144 134 125 129 133 133 130 133 141 142 141 137 143 138 143 148 143 139 137 135 143 160 185 180 181 162 130 113 96 111 151 101 135 111 165 110 72 61 62 60 77 103 57 41 56 92 113 111 104 99 88 95 102 109 113 105 103 78 63 54 72 72 63 64 76 90 101 91 104 106 102 81 96 102 112 112 109 104 109 110 120 125 130 132 139 150 169 164 152 154 167 170 167 158 149 146 149 150 151 153 157 150 146 143 150 147 156 151 146 150 144 143 135 153 191 177 182 159 122 116 102 109 147 136 114 114 134 129 94 84 74 68 112 122 81 47 53 57 102 112 106 101 97 92 105 111 108 106 100 79 64 48 72 77 75 64 72 79 92 93 96 105 104 80 79 87 90 103 100 95 114 110 118 126 130 130 142 153 167 166 166 170 170 176 172 171 167 163 164 162 157 160 160 161 156 160 162 160 158 151 151 149 147 143 132 152 196 174 180 155 113 113 114 113 126 143 139 135 130 135 138 128 113 107 119 117 100 71 69 72 71 105 108 107 100 104 110 111 111 109 104 72 74 43 68 83 78 74 73 85 94 98 93 102 104 83 84 69 67 86 102 95 109 116 114 121 130 131 147 158 160 163 169 172 176 174 179 179 177 170 169 169 161 163 169 170 170 168 168 169 160 152 149 151 145 139 130 154 189 179 168 148 112 116 124 124 120 125 148 141 134 132 145 139 132 139 127 128 118 101 97 102 91 81 105 109 113 112 119 119 112 111 105 74 66 58 56 80 81 80 77 90 90 97 97 101 102 76 95 76 45 94 101 98 116 107 107 125 123 135 148 154 157 166 169 170 175 174 178 175 175 174 169 172 167 172 173 171 176 172 174 165 165 151 150 146 147 137 128 152 184 175 162 142 110 124 124 129 128 132 139 152 147 138 134 138 142 147 144 138 138 128 121 127 112 95 89 106 115 121 129 121 113 111 105 79 58 60 59 65 82 83 78 90 81 100 95 101 101 68 98 95 65 87 102 113 111 99 111 119 121 138 149 149 155 163 170 167 172 177 175 175 179 179 176 174 173 175 176 182 178 178 173 164 160 152 145 143 145 130 137 156 187 173 167 138 114 123 126 121 140 138 143 144 154 152 146 148 143 145 144 144 139 143 140 145 144 137 118 110 120 132 134 125 115 109 104 87 62 57 53 69 77 79 78 86 94 92 95 98 98 62 109 109 65 92 105 113 92 89 112 117 125 133 147 149 147 159 166 167 173 176 175 181 180 181 178 181 182 180 181 186 181 178 172 167 158 147 141 148 142 133 141 163 189 170 172 144 119 120 128 126 133 148 148 147 154 151 154 158 156 159 151 158 155 152 155 158 151 156 152 131 131 134 137 129 114 108 107 86 67 60 52 58 77 77 80 82 82 88 97 90 103 65 104 113 76 94 107 105 84 87 105 117 126 132 143 146 144 149 158 151 165 166 171 174 178 180 177 183 188 178 180 187 179 180 168 170 155 148 148 143 142 139 148 173 186 177 167 151 125 123 129 129 132 145 149 152 157 159 155 158 161 170 167 163 165 164 164 162 163 154 159 145 143 137 137 128 118 111 105 90 64 64 54 54 59 69 84 79 72 88 93 92 101 54 96 119 82 95 105 95 93 88 106 115 123 126 141 141 145 144 156 148 155 165 164 168 172 177 179 185 186 174 176 184 180 183 169 169 155 149 146 143 142 142 151 182 183 172 171 151 136 131 130 127 131 135 144 159 156 160 158 155 162 171 170 169 169 168 168 167 170 160 154 147 146 142 135 128 117 107 107 96 63 68 72 54 49 67 90 66 70 86 95 93 95 59 89 128 97 93 99 94 96 86 99 115 122 121 137 141 139 140 150 149 149 155 161 164 168 165 173 177 179 170 171 181 178 176 176 161 152 148 143 141 139 145 153 182 184 168 170 157 137 135 128 134 131 136 145 163 160 160 161 165 160 167 168 171 173 177 170 167 166 163 152 147 146 139 132 125 118 105 108 92 74 76 80 56 56 69 77 60 67 85 92 92 96 62 66 140 109 104 80 85 82 94 103 108 118 126 131 137 140 138 146 146 149 152 155 161 165 162 167 173 175 173 165 178 170 166 171 153 148 144 135 135 141 152 157 179 185 172 164 150 142 131 128 131 136 136 152 161 162 167 166 169 169 166 167 171 170 172 169 169 163 157 154 150 140 137 132 121 118 102 106 79 75 86 86 68 59 67 73 57 71 83 89 93 93 66 54 129 125 111 79 69 68 95 103 109 113 124 130 136 131 141 140 142 145 146 150 153 161 161 163 170 173 174 168 169 170 165 163 152 139 135 129 132 143 149 163 175 178 171 174 157 139 126 121 122 134 134 154 160 166 169 169 166 169 168 164 169 171 168 167 163 162 152 149 148 139 136 129 121 111 104 101 70 74 94 81 79 64 73 70 55 70 87 88 92 91 74 55 105 137 119 93 70 68 90 108 107 117 120 134 130 134 138 136 142 147 142 146 152 151 162 168 162 169 170 166 166 170 163 163 147 133 136 133 131 142 152 162 184 175 167 174 161 141 125 125 117 113 137 149 160 161 173 167 173 173 168 170 166 165 165 157 151 157 143 143 143 139 131 133 121 109 108 99 65 83 90 94 67 66 82 65 61 66 89 82 93 96 76 58 81 140 133 100 67 83 91 108 107 117 123 127 134 135 137 138 137 147 145 139 146 146 156 162 158 165 166 166 165 159 167 161 136 133 146 141 128 130 151 166 190 178 169 172 161 138 126 125 135 102 135 150 164 159 169 172 177 172 166 168 167 157 157 157 145 144 140 134 137 134 129 129 120 111 104 94 60 80 94 93 64 62 95 64 65 74 84 87 90 92 72 68 61 134 142 104 68 102 91 109 110 116 123 126 134 139 136 135 134 142 146 141 146 152 157 158 158 162 162 166 166 159 166 161 123 143 148 150 126 115 146 166 180 186 169 163 151 122 123 126 151 118 115 152 158 159 169 169 171 169 167 161 159 157 157 158 144 134 139 142 131 127 131 123 120 108 108 88 60 91 95 88 80 85 104 60 73 80 83 87 88 88 77 73 47 124 145 119 78 105 90 107 114 116 123 122 130 137 134 132 136 141 145 148 147 149 153 159 162 164 160 164 160 162 160 153 121 140 145 151 128 106 128 156 167 176 165 148 140 106 117 133 150 134 108 149 157 163 167 168 168 169 168 161 155 154 158 150 144 134 138 143 128 127 126 122 113 111 104 86 67 96 88 92 88 108 98 65 73 85 78 85 91 87 72 70 63 103 137 127 123 103 93 102 117 115 127 125 132 133 133 135 135 141 140 147 150 151 153 158 160 164 165 159 159 157 153 143 115 133 138 142 120 90 108 139 143 146 147 135 119 97 113 132 138 132 103 138 156 162 165 171 169 167 166 153 152 150 151 144 140 135 141 139 130 121 127 116 114 110 103 90 76 91 77 99 98 110 86 63 75 82 82 85 91 85 73 77 52 117 109 121 157 121 85 103 113 121 121 127 129 133 134 136 130 138 145 142 147 157 152 156 157 164 163 154 154 155 158 139 111 126 128 116 76 29 87 118 121 127 126 122 103 73 103 122 126 122 103 132 152 161 160 164 172 162 164 154 153 151 148 146 141 133 143 135 128 128 126 117 114 107 101 88 82 73 76 106 107 116 73 60 74 82 80 85 89 87 72 76 54 105 125 101 154 150 93 98 112 119 127 127 129 132 134 137 132 137 142 140 147 150 152 151 161 163 160 156 152 150 159 135 106 110 109 88 63 42 47 93 102 102 98 91 64 32 51 104 112 107 105 132 148 157 158 160 170 169 160 156 154 150 141 141 139 132 132 126 125 126 121 113 111 108 95 97 75 58 90 119 120 103 56 65 75 81 82 89 84 90 74 71 65 64 148 104 132 140 101 92 111 120 129 130 127 133 132 133 136 137 138 142 150 150 153 148 162 163 159 149 153 154 153 153 119 93 103 104 103 86 62 70 85 86 85 65 80 96 86 86 99 96 108 132 145 149 158 162 168 162 163 156 158 149 142 137 136 136 127 123 127 126 119 112 110 105 97 96 79 53 97 116 124 75 58 68 78 84 82 86 86 86 73 69 71 53 120 121 111 126 95 94 110 113 124 131 128 132 132 134 137 135 136 141 150 150 151 154 151 156 153 150 155 158 158 157 152 94 82 94 99 109 101 84 82 83 82 92 103 108 102 86 84 103 126 122 141 145 149 158 160 158 155 154 154 149 146 137 131 133 127 121 121 121 113 115 107 105 96 97 79 67 102 123 107 59 50 77 79 81 84 81 89 90 72 70 75 54 89 120 120 110 92 95 106 112 128 125 133 131 138 134 133 136 136 142 146 149 153 152 150 150 149 153 154 155 157 162 155 140 116 113 116 122 117 114 115 112 110 116 107 107 99 106 109 126 129 120 132 143 148 157 157 157 147 149 149 145 144 138 135 133 127 116 123 118 114 113 105 104 96 92 86 90 114 126 95 49 59 70 78 83 85 85 85 89 72 74 72 63 63 111 122 118 101 93 103 114 125 128 130 132 137 132 130 135 136 141 144 148 151 151 151 147 147 153 156 151 154 157 147 142 145 135 140 142 134 123 125 130 121 123 120 111 115 121 119 133 132 122 127 135 144 154 153 153 152 149 147 143 141 136 136 134 124 119 116 121 116 111 106 101 102 84 102 121 123 119 79 49 59 77 76 84 84 86 85 87 72 75 71 78 47 100 124 120 112 96 103 111 120 121 128 132 133 129 132 135 135 139 142 145 147 147 146 148 149 150 154 155 153 153 146 143 146 143 145 152 149 133 126 126 124 130 133 125 121 123 118 129 133 130 129 128 140 153 150 151 152 150 148 142 142 138 133 129 123 117 113 122 117 109 107 105 96 81 104 129 105 115 65 54 62 79 77 84 85 87 86 86 70 75 74 66 68 74 118 109 113 93 105 102 118 120 127 133 131 131 132 134 136 141 139 142 145 149 146 148 146 147 151 153 148 151 145 144 141 143 147 150 154 139 128 121 128 136 140 130 125 121 127 129 136 134 132 127 136 148 147 150 152 144 144 145 137 136 129 124 119 116 120 115 118 107 106 100 93 78 104 120 95 106 64 53 72 77 78 83 83 88 85 87 75 73 71 69 70 62 95 103 102 93 105 104 113 125 128 134 134 133 133 132 134 137 145 139 144 146 149 146 143 145 143 140 142 148 139 144 138 146 153 146 151 144 142 125 123 139 136 132 124 122 128 131 130 134 128 126 128 146 143 145 142 144 139 141 137 135 127 123 119 117 117 116 112 110 103 95 94 80 108 114 121 95 51 58 74 78 82 84 84 87 84 89 74 74 71 71 69 71 68 85 87 88 102 108 111 122 125 132 136 135 133 133 135 139 141 143 138 136 146 139 140 141 136 133 135 135 137 141 144 149 150 153 156 151 151 146 139 139 139 134 123 126 126 127 127 136 131 128 125 139 138 142 139 142 139 138 134 131 128 118 116 113 119 117 110 108 100 94 90 85 110 114 115 68 51 68 75 79 85 85 82 88 86 87 78 74 67 72 71 71 74 68 65 79 102 104 116 121 123 131 136 135 131 132 132 141 140 143 139 136 141 131 129 132 124 130 128 127 136 146 151 155 156 151 161 159 165 157 164 155 142 144 128 131 125 117 115 127 132 132 128 128 133 139 142 138 135 137 129 134 123 121 114 114 119 114 110 101 97 94 85 75 116 121 94 47 59 72 79 80 84 81 87 84 87 89 81 71 73 71 70 70 72 68 67 60 102 102 111 122 122 126 132 133 130 130 138 138 132 140 153 142 131 124 120 124 126 119 126 131 131 144 152 153 153 157 165 161 172 166 167 162 148 148 136 139 129 121 114 116 123 128 121 118 125 135 141 139 137 136 131 129 126 114 111 114 115 114 107 97 99 95 80 90 126 127 86 49 65 77 78 82 80 79 86 87 84 85 79 70 74 72 71 71 69 69 72 57 94 101 110 119 122 121 127 136 131 128 141 139 144 146 156 144 128 119 115 123 126 124 127 128 129 130 128 123 117 123 133 140 154 145 133 130 121 118 127 132 126 119 125 112 120 118 124 114 118 128 137 138 141 136 130 134 125 115 114 116 113 109 102 96 95 90 80 96 126 127 81 50 71 77 82 80 84 87 80 88 86 86 74 74 69 75 70 71 70 71 72 58 80 97 110 114 121 121 124 132 135 127 132 139 142 148 147 144 126 122 110 126 124 125 120 116 114 104 95 90 87 87 90 94 107 106 95 90 91 86 92 103 108 114 122 121 120 116 119 110 118 122 139 137 138 134 129 129 122 118 111 112 115 107 101 97 97 88 76 102 116 120 64 51 74 76 75 80 86 84 85 87 85 84 73 77 71 69 70 74 68 71 71 60 74 97 104 116 120 123 128 128 135 129 132 136 140 146 145 136 121 123 115 120 116 106 94 84 79 70 68 62 64 81 86 81 72 80 85 85 80 55 65 65 78 85 96 111 114 113 108 118 110 120 135 138 142 136 133 124 121 115 113 112 111 111 96 96 98 89 75 97 112 85 50 66 72 78 76 79 88 80 87 85 84 87 76 77 71 70 70 72 69 69 69 67 62 94 103 111 125 121 126 128 130 131 136 136 142 139 146 135 124 125 119 112 97 69 63 61 65 41 44 54 53 113 122 120 92 87 119 127 109 50 53 42 46 71 69 87 100 110 107 122 113 117 134 143 142 134 135 129 124 114 117 110 109 109 97 94 96 88 68 94 84 53 54 67 79 76 76 81 85 81 86 82 86 84 78 71 74 73 68 69 74 69 69 74 57 85 100 101 121 125 124 129 130 131 136 139 142 146 143 134 128 122 117 101 80 36 19 30 36 42 45 48 43 58 90 90 74 36 56 81 70 45 39 43 33 37 43 44 73 99 108 118 115 111 131 142 143 131 130 126 121 116 112 111 106 107 98 88 91 88 49 53 52 50 62 75 75 78 83 79 82 83 85 86 88 85 80 76 72 70 72 68 74 69 71 66 65 79 93 101 112 125 127 128 128 132 132 134 143 146 146 131 126 117 113 112 103 76 27 48 54 73 97 82 68 65 55 58 62 64 57 65 81 74 66 66 48 40 30 10 58 98 106 120 111 111 131 144 142 136 130 125 115 111 110 107 108 106 94 88 90 83 41 45 49 53 63 74 74 80 79 80 84 82 85 85 86 87 76 79 69 75 66 70 69 72 70 69 63 82 93 96 109 120 122 136 127 131 130 137 144 151 145 136 127 126 124 131 135 108 74 90 106 127 149 128 126 111 96 93 91 110 99 94 110 103 104 117 85 109 83 20 82 113 121 114 112 116 137 145 140 136 129 125 113 113 108 109 106 102 89 86 94 64 38 49 48 62 65 74 76 77 79 82 83 82 83 82 87 87 76 76 73 72 73 73 69 69 69 70 62 86 96 92 104 117 119 133 126 130 132 137 145 154 147 134 131 134 138 143 145 134 110 107 104 137 147 132 155 144 137 145 128 151 139 133 150 143 144 169 119 199 125 63 88 118 128 117 112 126 146 146 141 134 130 122 111 114 108 114 102 95 90 90 85 46 44 48 50 64 72 75 81 78 81 82 81 87 82 89 85 83 79 76 74 70 73 69 68 71 67 66 62 91 94 90 98 115 116 126 132 128 136 138 139 149 147 137 136 143 140 148 141 140 126 114 114 121 128 120 138 132 126 144 119 147 144 132 146 135 127 148 116 137 98 93 106 123 131 123 116 131 147 146 142 134 126 123 111 116 110 105 102 93 85 91 75 34 49 47 53 66 74 74 80 81 83 79 82 87 84 84 83 85 78 76 75 71 72 69 72 65 70 69 59 96 100 89 97 108 114 122 131 132 131 139 143 145 143 142 138 143 147 144 142 134 129 123 117 123 129 128 126 128 125 123 110 118 127 120 130 125 116 127 123 115 107 113 121 129 134 127 127 126 141 147 145 131 123 122 115 115 109 106 96 87 89 87 52 42 45 47 53 70 75 75 75 79 82 84 81 84 84 84 85 84 79 76 72 76 68 73 67 67 69 67 58 99 98 93 91 103 113 119 131 127 131 131 138 147 144 145 143 147 142 146 143 132 128 127 119 124 123 131 142 138 146 137 125 129 139 139 140 132 132 131 131 119 115 114 119 131 131 132 128 126 137 142 142 132 125 122 117 112 108 101 92 88 87 87 37 43 45 50 54 71 73 75 79 79 81 78 86 81 86 81 83 84 81 77 77 72 71 71 74 65 73 60 67 103 100 95 92 103 109 123 122 130 133 134 138 142 148 143 147 143 137 145 138 129 127 127 123 127 128 123 132 130 132 134 135 133 143 143 134 131 134 125 125 117 119 112 116 129 135 129 126 129 137 143 143 129 118 119 114 112 100 96 90 85 86 64 36 46 48 46 64 68 75 79 77 76 88 82 80 85 84 86 83 86 80 76 76 73 72 70 71 68 67 66 65 103 103 97 93 97 111 118 119 126 131 131 136 142 145 141 144 142 137 139 134 131 123 119 117 118 126 127 135 136 132 130 137 137 135 139 131 131 130 123 124 119 107 107 114 131 131 129 124 129 136 136 137 128 115 117 112 110 100 94 89 85 88 42 40 46 48 49 68 72 75 79 77 75 84 82 80 84 83 81 88 82 81 80 71 78 72 70 74 64 73 62 70 103 103 99 91 99 105 113 118 126 132 129 129 137 136 140 145 141 141 137 134 137 131 117 113 111 106 110 111 116 115 118 126 126 124 122 125 120 117 110 110 107 97 109 119 128 129 130 122 128 129 135 125 125 116 113 111 103 97 92 86 87 73 33 43 49 49 55 69 73 75 73 80 79 80 82 83 83 85 81 80 88 80 78 74 76 74 71 69 70 68 64 72 103 103 102 92 97 104 108 118 121 120 130 129 135 138 142 146 143 143 141 136 139 139 128 129 115 111 104 100 93 90 91 92 96 95 96 101 101 101 107 104 106 102 115 127 128 129 125 128 135 132 133 124 118 112 115 106 106 95 92 85 92 55 34 47 49 47 62 71 73 74 77 78 77 82 83 82 83 81 81 83 81 79 79 78 73 70 69 72 68 61 65 120 110 105 100 98 92 102 108 115 118 117 123 128 130 139 137 141 144 138 143 141 142 143 138 140 137 131 132 123 116 108 100 92 92 93 96 99 97 103 109 109 113 111 125 132 133 127 129 133 138 134 127 118 113 112 110 105 97 97 88 87 87 37 37 47 46 52 63 73 74 73 77 77 81 79 78 85 80 80 78 80 82 79 79 79 74 73 70 72 60 60 112 185 112 101 100 102 100 99 108 111 119 119 122 127 129 128 133 136 146 142 140 144 145 144 142 140 138 144 147 140 140 127 117 116 112 106 116 110 118 116 120 117 119 121 132 135 135 130 131 139 130 128 127 117 109 112 107 101 101 93 80 92 76 31 42 47 47 58 66 72 74 77 76 78 78 79 83 81 76 81 82 80 83 79 81 74 77 73 70 66 56 93 186 181 106 104 106 101 104 97 105 108 119 120 121 120 125 124 126 127 142 139 140 144 147 149 150 144 143 146 158 154 159 155 147 144 141 133 130 133 131 127 128 124 125 124 140 129 133 129 128 135 126 124 122 120 106 110 104 100 100 91 78 94 92 40 44 46 48 63 71 68 77 77 81 74 80 78 80 83 80 79 81 78 81 79 81 79 74 74 74 56 60 174 210 139 96 112 110 107 103 101 99 106 109 119 119 116 118 122 121 127 137 139 145 136 149 151 154 155 149 150 159 162 166 166 172 169 168 162 158 155 146 140 140 133 131 133 141 139 134 127 133 130 126 118 118 112 105 104 102 100 96 88 91 74 123 125 42 46 51 64 67 76 73 76 81 77 80 81 82 82 80 81 79 78 79 81 77 78 80 72 74 43 116 217 202 97 96 107 111 109 106 100 101 108 108 112 117 115 114 111 116 123 133 134 141 137 143 154 152 158 152 159 164 161 173 171 171 170 173 170 167 165 160 154 150 143 143 146 148 142 136 127 136 133 119 112 105 103 103 103 96 99 91 82 93 70 93 163 134 38 47 63 71 75 73 77 78 78 76 82 79 84 76 85 79 79 80 80 78 78 73 76 59 62 186 227 180 69 106 108 111 109 109 104 101 104 107 108 110 114 115 110 112 116 123 128 139 134 140 149 154 157 154 163 164 170 173 176 176 177 178 173 174 170 168 162 161 157 154 160 151 139 127 130 132 124 108 102 98 98 105 100 98 93 83 88 93 62 99 122 175 135 43 60 79 71 77 78 78 78 77 81 82 76 82 80 75 81 81 78 77 82 73 76 40 119 212 227 160 63 111 107 112 113 109 105 100 102 102 104 111 111 112 110 105 110 122 127 133 131 139 141 153 151 152 159 159 165 164 170 170 176 175 169 171 166 165 159 157 152 154 158 153 133 123 132 123 115 108 100 97 101 98 94 98 83 87 89 98 62 95 118 131 191 99 54 68 77 76 76 78 79 79 80 76 80 79 78 79 77 80 84 78 80 78 61 48 183 217 226 137 82 117 109 112 114 116 109 99 104 96 100 103 109 106 106 102 102 106 117 118 130 130 133 147 153 154 152 152 155 158 164 163 169 170 170 167 156 157 153 153 143 149 153 136 121 128 114 112 103 94 96 91 99 94 91 88 85 90 95 91 76 95 112 111 152 194 69 67 76 72 76 78 76 76 84 76 78 75 85 77 84 76 82 76 84 75 53 91 204 214 225 115 91 122 112 112 114 116 111 107 101 98 99 97 104 103 111 98 98 99 106 113 121 129 121 129 146 149 144 148 148 150 155 156 154 158 157 153 150 144 148 141 141 144 137 119 114 117 109 104 98 92 93 89 95 88 91 83 88 93 90 92 93 109 104 104 118 201 134 56 72 77 77 77 79 75 82 78 80 77 76 79 78 79 82 74 80 100 89 155 208 211 223 113 98 125 115 113 112 117 114 111 104 96 91 98 94 98 106 103 102 90 94 103 109 121 111 100 127 139 137 135 139 145 146 140 141 143 139 133 134 131 129 133 133 122 114 112 114 101 104 94 90 84 88 87 87 82 87 84 90 95 90 89 108 122 112 92 98 175 202 79 66 76 77 78 76 77 78 78 79 78 75 78 79 79 85 107 145 172 186 182 206 209 223 124 95 132 116 113 110 117 116 116 112 101 92 97 95 98 95 90 99 96 87 91 97 108 113 104 109 125 129 127 133 133 134 132 126 132 126 129 129 119 122 120 119 111 104 108 102 95 96 87 82 85 85 85 84 84 81 91 93 92 92 94 106 134 125 99 88 154 206 158 55 74 76 79 75 78 81 77 78 78 81 75 77 78 175 191 202 200 189 188 209 208 227 116 100 134 122 115 114 113 114 116 115 107 102 90 95 94 95 94 93 96 88 86 86 91 102 104 97 106 114 113 118 118 123 124 120 117 117 121 119 109 109 110 106 108 98 97 93 85 84 79 79 80 87 76 81 83 90 94 94 88 94 105 95 129 154 121 77 144 197 203 92 65 75 78 77 79 77 77 79 77 78 78 78 78 197 201 199 198 187 197 208 205 230 101 105 134 129 120 115 117 113 120 116 110 106 92 92 93 90 90 92 89 88 88 80 78 91 93 92 93 96 102 102 108 110 114 111 108 108 107 111 106 102 101 99 97 91 90 83 76 74 80 80 78 76 79 81 88 93 93 95 88 98 112 92 102 153 154 73 140 193 198 164 61 75 77 78 78 76 76 79 78 77 81 77 78 144 150 173 193 191 202 210 203 229 111 99 139 132 124 117 118 113 115 117 114 109 103 95 95 90 86 91 87 88 88 84 74 79 85 90 83 86 97 92 99 100 101 104 101 99 102 103 99 95 87 89 87 86 78 74 73 73 80 79 77 77 83 85 90 95 92 93 96 101 113 108 76 131 160 99 135 187 197 201 93 68 73 79 75 78 76 76 78 76 77 78 75 117 108 105 172 202 206 210 202 230 131 98 138 135 130 119 119 116 116 112 116 113 105 105 91 95 86 92 88 92 87 91 83 78 79 79 79 83 83 86 93 93 89 91 92 91 97 90 85 82 84 75 77 77 72 73 77 74 80 81 77 79 86 93 89 95 92 90 102 109 112 114 84 85 145 121 142 184 192 206 158 51 75 76 77 76 77 75 77 76 77 77 74 116 90 132 185 207 207 209 201 223 155 98 144 137 132 126 119 118 116 115 115 112 108 109 95 91 91 90 92 92 82 92 85 87 79 84 73 77 76 80 86 85 85 86 84 85 85 82 78 74 78 74 74 73 78 71 81 78 80 85 82 87 90 95 94 92 94 99 108 111 115 113 92 65 91 131 152 178 191 202 197 69 69 74 78 75 76 79 75 75 77 76 78 101 92 153 197 202 207 209 206 210 184 103 142 139 142 130 125 125 117 118 116 116 108 113 106 96 90 87 90 95 92 91 94 89 87 85 80 83 83 76 82 79 78 82 84 81 74 78 76 82 73 80 74 76 78 79 82 82 84 88 87 91 97 95 94 93 96 104 108 118 118 115 91 75 53 135 158 172 195 190 217 123 57 75 80 78 72 80 73 77 79 74 79 95 105 175 199 201 208 209 202 207 197 125 136 143 142 136 128 126 123 115 118 116 109 114 110 103 97 89 89 91 94 93 94 92 87 88 86 86 85 81 83 84 79 80 82 79 81 82 80 79 79 76 77 75 83 87 80 82 90 92 91 94 99 95 98 97 106 108 115 118 123 114 97 70 72 148 156 174 188 192 207 171 59 74 76 77 75 77 74 78 74 74 80 