P2
92
112
255
109 111 111 116 111 112 110 113 112 113 113 113 111 114 113 112 117 114 116 113 109 103 92 76 75 62 48 60 53 56 58 54 62 68 58 51 67 57 73 73 84 83 75 63 52 46 53 55 52 40 44 44 45 43 40 33 45 31 31 32 49 56 47 74 89 88 78 87 95 99 99 101 107 115 111 113 112 115 111 111 112 110 111 114 110 116 111 113 111 111 114 113 112 114 113 111 113 113 114 115 112 116 109 114 114 112 114 113 115 115 109 95 89 77 68 67 70 59 53 55 56 59 70 70 70 69 58 50 61 50 57 51 51 70 73 72 59 60 54 55 55 49 37 44 51 37 37 33 38 38 30 32 32 39 42 72 82 87 94 85 86 102 103 104 97 113 109 115 112 109 114 109 117 113 114 111 117 111 112 112 113 111 114 114 106 113 113 110 112 111 114 115 112 112 114 109 116 114 112 112 115 104 86 58 59 62 71 79 89 87 70 66 69 61 49 67 70 83 75 72 69 66 56 60 53 45 49 65 62 53 47 43 54 66 60 56 46 42 36 33 26 54 26 29 32 26 30 61 63 75 85 106 73 99 108 108 98 104 113 113 112 112 113 110 111 114 112 113 112 113 111 110 112 112 113 114 114 113 114 112 113 111 114 113 111 115 113 113 112 112 112 113 95 70 51 51 62 67 71 82 71 70 76 79 73 72 64 66 66 74 79 84 79 71 57 57 55 53 59 61 63 68 60 60 52 44 57 58 45 44 46 40 29 37 33 31 26 27 24 33 43 55 89 103 71 101 108 106 102 108 114 108 112 116 108 111 112 110 115 109 110 111 111 111 113 114 111 109 112 112 110 112 114 110 111 109 115 112 115 114 108 111 110 97 63 39 45 59 61 71 74 82 76 68 71 70 62 53 49 60 62 74 78 82 78 74 54 59 43 38 40 66 62 67 69 71 66 56 55 54 47 39 49 54 33 28 25 37 29 24 28 28 30 25 92 89 71 101 108 99 104 106 109 107 111 111 114 111 113 110 111 113 110 109 114 108 116 112 113 111 114 110 113 113 109 116 107 114 113 115 111 118 110 104 83 50 36 45 46 54 53 69 71 82 77 79 64 64 61 52 47 57 71 76 84 82 82 70 65 53 55 49 37 36 41 56 71 65 62 63 51 50 54 51 44 35 46 42 32 29 35 33 21 22 26 19 56 68 89 90 102 98 101 104 105 105 104 105 108 109 114 111 109 112 109 109 115 111 111 114 108 116 111 110 116 111 110 115 111 113 110 118 110 116 100 71 32 35 26 42 37 52 41 58 63 80 88 76 71 69 59 59 56 65 73 75 74 82 83 78 71 60 62 57 53 50 40 40 50 68 57 48 50 61 38 42 48 41 36 49 42 40 33 42 39 25 31 26 22 46 89 84 88 95 95 93 86 86 92 89 93 100 106 110 109 110 111 110 112 112 112 113 114 112 112 112 115 114 115 113 114 111 113 113 109 104 57 33 23 33 36 40 43 44 45 52 55 70 73 59 46 57 55 50 64 59 63 82 83 78 81 72 77 69 56 64 61 57 54 63 47 60 57 44 48 45 47 37 36 40 38 37 43 44 35 45 40 36 45 29 15 34 78 74 84 73 77 79 86 84 78 82 87 89 94 108 107 114 111 114 111 112 114 113 112 113 111 115 110 113 115 113 114 108 116 112 98 64 37 22 39 39 49 42 43 42 39 48 47 59 49 45 39 34 45 41 52 62 57 66 80 74 91 83 75 77 70 46 51 62 57 41 51 65 71 60 42 43 38 41 35 36 38 41 33 45 47 36 46 34 47 37 25 23 52 69 72 78 92 95 92 96 98 101 88 90 84 94 112 111 109 113 114 111 111 114 111 116 112 114 111 112 109 116 112 114 115 108 67 41 38 33 43 34 37 35 40 45 45 47 56 62 65 61 42 49 50 42 51 67 64 77 83 77 72 71 69 77 76 72 62 56 50 49 50 45 35 50 55 45 37 50 43 42 41 33 34 40 43 55 42 48 43 30 40 31 28 40 39 50 41 46 41 45 52 71 96 98 84 89 94 108 109 111 107 111 109 110 112 111 115 112 112 113 111 116 115 117 109 85 53 44 34 28 38 35 36 53 56 58 65 54 56 49 60 57 56 50 63 43 54 61 56 78 83 88 77 75 61 65 61 67 66 64 56 61 46 49 38 38 35 49 35 39 52 46 45 31 34 26 40 51 50 44 49 27 38 28 32 34 27 28 21 36 29 35 31 57 62 94 92 83 92 100 108 109 112 109 111 110 114 110 112 111 115 112 113 113 115 101 77 67 46 38 26 31 37 42 53 56 50 44 34 33 22 30 29 29 38 39 42 46 56 63 53 76 65 68 58 54 50 53 50 49 49 53 54 46 49 48 48 45 40 38 42 45 36 37 34 50 30 33 40 32 34 41 53 35 35 30 22 32 40 30 24 36 34 39 28 30 29 42 64 77 88 88 100 112 111 108 113 108 110 114 112 113 117 111 114 112 98 73 67 63 29 39 32 39 31 46 60 58 52 51 40 39 38 40 35 39 45 38 42 46 56 50 61 66 74 75 75 62 49 39 35 37 33 31 40 50 39 49 43 49 53 48 34 43 43 38 37 39 34 39 42 35 22 34 49 50 31 36 26 20 35 49 29 49 37 41 25 35 30 29 30 45 62 84 98 108 111 110 113 110 110 115 112 112 114 114 103 88 67 71 66 38 30 39 36 35 39 48 61 53 61 64 46 59 49 40 36 38 33 36 50 60 60 49 41 42 53 57 57 61 54 52 38 46 32 39 29 30 31 32 37 40 44 39 48 50 46 41 40 38 37 34 43 39 32 25 40 46 45 32 27 23 17 43 49 45 42 33 32 37 34 35 34 41 44 64 74 101 111 106 114 109 114 113 115 113 115 103 74 54 68 70 57 25 43 36 41 37 38 41 41 40 39 42 46 44 40 42 37 38 38 44 56 45 43 51 54 65 67 60 56 45 44 40 36 43 46 41 40 29 31 20 25 29 32 35 31 34 32 38 37 35 38 30 39 33 35 27 32 29 47 32 35 26 16 30 48 42 43 37 35 37 37 38 38 42 49 55 56 72 100 104 110 116 107 114 114 120 95 65 50 51 63 76 38 43 39 35 37 28 30 33 32 29 36 34 42 36 36 29 37 38 28 45 41 48 56 82 81 76 77 63 63 50 45 40 38 37 35 34 31 33 31 25 25 24 27 26 35 26 25 30 36 31 29 32 33 27 36 29 22 27 40 23 43 32 27 19 30 42 45 37 37 35 39 41 44 48 34 45 53 58 80 88 105 110 111 115 121 109 57 48 46 54 68 61 44 49 44 27 27 27 25 35 30 31 29 33 37 38 32 34 35 35 35 42 35 44 49 52 56 65 67 59 49 40 39 33 38 31 36 35 28 32 27 28 25 35 43 39 44 35 40 39 39 32 29 26 32 20 32 25 26 28 27 31 30 27 33 25 21 40 43 41 47 46 38 43 51 50 26 33 37 54 61 92 94 106 108 110 116 77 44 46 45 77 65 59 50 44 33 24 25 37 36 32 36 29 33 39 48 38 33 36 36 28 35 40 31 46 44 57 74 77 81 71 64 51 53 50 33 36 37 31 20 33 33 39 52 55 51 38 44 47 35 44 32 36 34 36 36 38 35 42 36 33 26 40 35 19 24 31 25 41 40 47 54 46 40 48 53 44 33 30 31 45 46 75 95 100 114 106 90 45 46 40 69 77 54 51 55 37 38 26 38 36 45 35 39 34 38 44 36 32 30 32 31 31 34 34 39 40 51 63 71 75 79 83 74 59 53 43 47 47 43 40 37 45 56 69 54 48 35 34 30 36 42 46 44 37 42 48 50 57 60 67 60 59 48 55 49 24 17 31 27 46 30 51 53 39 55 53 53 34 30 41 32 37 47 52 78 104 108 108 62 31 56 54 69 56 60 53 47 34 33 37 34 33 36 37 32 29 35 38 32 26 32 31 30 32 48 36 48 39 54 58 57 61 71 63 64 50 46 41 43 38 44 54 67 69 59 47 47 37 39 31 36 40 35 41 40 57 62 72 88 97 92 101 90 93 82 75 70 32 27 30 25 47 24 42 50 55 46 51 35 37 34 38 48 23 41 55 64 89 103 110 47 35 50 69 44 55 50 49 35 41 31 30 29 34 37 30 30 32 33 31 30 23 37 33 25 32 25 38 28 30 34 38 48 63 75 76 51 44 41 33 35 42 69 80 62 53 41 42 40 42 37 46 47 37 44 48 51 78 100 96 113 121 107 116 116 112 115 105 85 56 41 35 37 47 39 31 40 48 49 36 28 34 40 35 36 46 31 50 60 65 98 109 47 34 68 54 34 54 30 47 37 30 31 32 28 32 27 30 33 36 25 29 26 27 32 27 29 30 28 27 26 38 37 47 51 70 79 64 55 46 41 42 43 54 50 47 29 37 43 50 50 55 52 40 47 41 52 50 83 110 121 124 130 125 125 124 122 122 129 122 97 78 67 46 52 47 60 28 27 37 31 35 23 34 46 46 25 46 45 55 54 55 92 98 42 42 70 43 36 48 31 45 30 30 31 32 28 24 30 28 36 32 22 30 22 28 32 23 35 29 22 28 35 40 42 56 57 64 70 57 49 48 44 51 45 42 36 55 67 60 59 59 53 44 41 41 39 55 63 92 99 125 129 135 140 136 128 133 133 138 134 125 110 92 83 63 63 51 52 41 31 31 30 24 23 41 45 62 41 32 46 46 54 57 75 104 30 46 65 40 29 36 28 50 42 25 33 26 28 21 34 36 33 27 28 26 27 29 29 32 28 24 24 31 26 36 33 36 44 54 54 55 48 58 48 45 33 39 55 65 68 58 50 51 51 42 44 47 50 72 97 114 123 127 142 141 146 145 137 147 136 146 136 130 117 95 100 72 61 70 61 32 44 35 32 19 21 47 59 60 67 28 38 40 45 52 63 99 30 56 47 41 27 41 28 44 33 29 28 29 23 25 35 32 29 28 30 26 29 27 32 34 29 18 26 29 29 33 33 42 43 50 54 64 57 52 40 33 41 46 66 60 56 57 45 48 51 50 43 52 84 99 120 123 130 134 141 142 149 147 139 147 148 147 144 140 121 104 107 78 66 87 80 42 36 49 30 20 34 35 59 54 70 45 24 41 38 41 53 90 38 55 33 40 33 34 31 37 22 30 21 27 25 28 23 33 30 28 27 27 27 27 38 25 25 23 25 25 30 33 38 45 42 59 59 65 60 48 39 40 55 61 77 69 62 64 57 56 65 67 48 81 105 112 122 126 135 140 148 140 144 144 150 149 151 145 148 136 128 105 96 90 76 106 92 59 37 45 39 32 48 42 43 46 76 43 27 37 29 43 37 89 45 41 35 30 46 28 37 36 24 27 23 28 25 27 31 26 35 26 28 24 27 40 25 28 28 23 24 29 29 41 45 49 55 58 68 61 54 49 39 53 59 62 70 71 72 76 72 74 75 67 75 106 112 123 130 134 141 142 147 144 144 149 153 154 149 140 139 119 110 92 107 112 89 104 99 64 52 42 33 41 60 51 41 40 60 56 30 30 30 31 30 67 51 29 39 27 38 36 32 33 25 32 28 29 26 28 27 27 31 27 25 26 40 52 26 27 25 23 22 29 34 53 51 56 61 68 63 51 55 60 71 66 73 79 81 82 84 84 87 81 80 87 106 116 120 130 129 141 140 147 145 145 147 152 155 156 154 141 122 119 118 119 123 118 95 103 112 62 57 50 32 35 67 51 34 45 47 60 32 26 32 24 30 30 47 33 28 30 38 35 36 34 25 24 27 23 30 21 26 26 30 24 33 28 51 70 33 24 23 28 20 31 44 57 57 59 64 62 66 60 75 82 84 86 88 96 96 89 96 93 93 89 93 108 118 126 127 132 134 139 142 150 143 148 151 156 156 157 167 156 143 132 139 126 132 116 104 115 108 64 46 65 33 34 58 44 33 43 39 53 36 28 24 25 30 14 39 36 27 37 31 30 32 40 26 25 26 26 22 30 27 28 33 30 32 35 65 89 43 27 27 27 27 36 54 58 61 64 69 67 73 80 92 99 98 98 104 104 103 92 103 98 98 104 110 115 125 131 128 134 138 142 144 148 150 153 148 156 156 163 162 163 153 146 141 132 134 134 112 121 108 75 36 72 46 31 44 48 35 43 29 46 33 26 31 20 21 27 36 38 30 32 27 29 26 41 27 23 25 24 17 23 23 29 32 36 23 66 78 90 71 43 23 29 26 55 58 62 61 68 84 80 95 104 101 111 108 106 107 111 98 103 100 94 109 117 118 124 132 137 136 141 137 145 144 147 149 153 152 151 160 163 164 161 154 154 143 133 137 146 141 119 116 87 31 67 52 37 37 47 39 40 31 36 24 34 29 21 28 14 30 48 26 32 27 31 30 39 34 21 21 24 21 22 26 28 32 35 43 80 80 108 107 51 25 34 46 57 66 69 75 85 99 96 104 109 116 112 111 111 109 106 99 100 98 119 128 131 129 135 138 138 138 140 137 139 147 146 151 147 148 155 159 164 168 166 157 160 150 139 136 148 149 128 114 101 27 71 50 42 34 45 39 39 36 30 20 29 28 22 21 34 33 44 28 25 26 32 33 26 30 23 21 23 32 27 25 29 31 53 56 84 94 145 133 48 38 55 64 71 75 85 94 97 107 106 112 116 120 116 116 127 111 99 100 111 129 136 133 137 141 133 133 140 141 145 141 138 143 150 151 157 156 158 162 167 167 165 163 163 154 153 144 144 145 141 114 113 37 50 61 41 35 41 44 38 38 22 26 24 28 21 23 26 36 34 27 25 28 34 38 31 22 28 21 34 29 32 27 33 40 58 72 101 120 164 125 80 77 78 86 89 94 103 107 104 113 109 121 120 125 126 117 114 92 105 129 131 140 135 138 140 140 133 137 135 142 142 143 139 143 147 149 159 162 162 170 167 170 165 167 163 156 159 158 156 150 142 124 117 50 47 65 45 33 37 37 38 30 36 19 22 25 20 24 22 32 27 25 26 28 29 28 29 26 26 28 34 28 28 35 37 51 68 90 118 142 164 143 124 107 105 110 112 106 109 109 108 110 119 126 135 130 130 123 112 125 134 139 135 133 134 134 135 139 138 136 130 137 139 142 146 145 150 158 161 166 166 172 170 169 172 173 168 164 157 159 159 156 145 138 113 73 48 70 49 40 34 36 31 35 34 17 24 20 25 26 22 19 25 28 33 28 30 29 30 28 27 32 27 30 41 45 48 63 90 100 127 151 172 161 159 151 147 147 132 132 129 130 137 137 143 148 152 154 157 146 143 140 142 139 130 132 130 134 134 138 138 138 136 141 144 145 150 152 160 168 169 169 172 173 173 173 174 172 175 167 162 161 160 162 152 141 118 94 62 74 56 33 34 28 34 40 33 26 17 22 22 21 25 20 25 26 31 35 30 29 30 33 34 32 35 36 54 47 49 87 103 114 138 149 169 159 168 174 175 170 165 169 167 164 174 176 172 181 182 180 186 180 185 176 167 170 158 150 149 149 142 142 144 142 143 149 156 157 164 164 173 174 177 180 181 180 183 180 177 178 174 170 161 161 158 156 158 144 126 113 91 74 63 37 25 28 37 42 26 31 21 23 15 24 22 15 29 22 27 34 35 29 31 25 31 33 37 43 45 52 68 92 114 121 145 155 162 164 169 175 180 182 183 186 187 186 186 189 184 191 197 196 198 197 197 194 183 180 176 167 162 160 154 153 152 159 158 168 170 178 176 177 181 182 180 183 182 182 184 183 183 175 174 167 162 158 156 154 155 146 135 117 107 79 65 43 32 27 30 42 28 30 32 22 14 23 26 22 26 27 24 28 31 27 34 27 33 41 34 39 55 61 77 88 120 127 144 158 159 161 166 169 178 184 188 190 193 189 188 190 183 191 198 196 196 200 200 201 196 180 179 175 175 173 171 172 172 171 175 177 183 187 182 182 182 185 180 181 178 184 184 181 184 174 175 163 151 160 160 156 157 144 137 119 112 86 68 49 29 31 29 32 36 16 29 30 21 20 21 18 27 24 33 24 26 32 30 37 30 45 41 39 55 59 77 96 124 130 149 155 159 156 166 172 180 182 189 192 193 192 191 185 185 186 187 192 192 193 195 193 193 187 184 184 182 178 180 185 179 173 182 180 187 188 184 180 181 183 184 179 177 180 182 179 178 170 168 161 140 154 167 159 160 148 138 122 109 104 78 44 32 25 30 26 33 25 17 23 29 21 18 24 26 21 27 26 33 35 34 36 46 36 36 38 55 57 80 109 125 137 149 158 154 157 163 172 183 184 184 184 184 186 184 182 177 182 176 174 181 180 182 186 183 180 178 181 177 168 178 182 177 179 177 184 187 182 181 175 171 173 171 166 169 170 168 170 166 161 149 146 137 142 145 145 150 157 147 126 112 111 89 49 33 24 31 27 22 25 15 16 28 24 30 43 22 25 29 36 28 31 33 43 44 36 28 47 40 68 87 116 129 142 153 156 158 157 159 173 180 182 169 149 147 156 155 168 165 162 156 157 155 157 148 151 155 149 155 162 162 154 159 163 164 170 170 173 169 178 176 163 163 150 149 147 150 151 137 133 128 124 115 117 104 109 109 112 117 137 149 133 113 115 98 56 28 28 29 27 19 22 21 20 16 32 29 40 18 30 20 35 38 24 37 39 53 26 37 39 45 53 79 128 134 146 150 159 154 156 159 151 152 135 119 112 108 110 113 119 130 117 114 106 111 106 94 95 88 100 118 139 126 126 131 144 151 159 160 159 158 164 161 150 136 123 118 107 97 98 77 77 80 79 68 73 66 61 65 69 75 92 109 126 114 111 106 67 26 25 30 26 23 17 22 19 15 26 26 34 19 31 22 39 39 23 41 46 56 29 38 41 38 57 86 125 144 143 148 159 152 129 123 109 95 84 71 80 81 78 77 68 78 76 67 65 67 68 58 50 51 67 74 115 100 97 89 119 132 149 156 147 140 145 143 127 108 95 72 67 62 60 69 63 50 47 46 45 46 45 49 51 50 59 62 69 74 102 108 75 29 17 31 27 22 20 17 17 20 24 29 27 24 23 32 41 37 30 35 39 52 43 34 43 42 43 91 124 143 143 144 154 115 99 91 63 69 72 65 70 59 62 55 40 43 36 42 40 37 36 39 36 38 46 60 72 85 68 71 105 111 126 143 132 123 123 123 102 71 69 55 47 33 42 43 40 38 35 39 30 35 40 44 39 47 49 43 44 44 67 110 79 32 19 26 22 28 19 18 16 22 22 24 54 25 25 39 31 35 32 31 35 48 43 48 46 41 52 86 126 140 146 145 148 116 92 79 68 65 66 68 72 69 57 54 48 47 30 36 29 28 29 30 33 37 36 54 59 60 56 70 89 97 110 127 113 114 101 104 78 62 54 49 36 27 37 29 25 25 33 37 39 49 47 49 49 46 58 62 53 55 47 90 91 34 19 21 25 23 19 19 23 23 23 22 91 26 45 38 37 31 30 33 36 40 38 45 48 45 40 82 114 132 146 141 135 108 103 90 84 92 89 89 83 90 84 77 78 81 65 65 54 41 40 30 33 37 37 42 41 47 54 60 78 81 101 108 101 104 97 78 61 43 49 38 37 28 31 24 32 41 55 67 70 80 76 83 78 78 85 89 83 76 57 86 93 38 16 25 23 22 20 20 16 23 30 26 114 36 38 37 39 30 31 27 39 27 39 30 43 46 38 71 120 136 138 147 130 118 86 76 90 95 114 134 122 109 111 107 102 116 108 105 99 100 95 97 94 97 103 105 109 109 121 112 122 121 132 134 128 134 125 116 102 92 92 88 84 75 75 76 83 84 84 87 94 90 94 95 100 97 102 104 100 95 88 94 100 44 19 24 23 20 27 16 19 19 23 41 109 42 39 42 37 27 31 22 37 25 29 34 37 35 36 62 113 138 136 143 138 130 115 152 203 189 179 185 162 138 129 121 112 108 104 98 96 95 91 94 96 102 109 105 106 101 97 110 122 129 134 142 142 138 134 122 110 101 175 170 130 117 107 106 109 112 112 119 116 117 114 124 116 114 111 113 129 144 114 108 108 45 22 25 24 21 24 22 21 19 25 29 109 38 108 44 21 40 20 34 28 29 25 34 36 33 35 51 112 136 132 134 125 132 142 146 155 155 157 155 135 129 135 100 97 108 95 82 76 69 62 62 66 66 80 79 102 100 56 77 108 136 145 147 141 127 112 81 52 94 133 109 92 82 78 76 80 73 83 85 79 90 96 95 100 112 123 121 131 131 146 115 114 80 24 22 19 24 23 22 27 24 27 29 114 65 124 49 30 32 28 34 30 34 22 50 38 35 31 58 98 139 134 126 132 148 160 148 141 145 126 133 87 151 216 175 119 129 108 78 77 84 72 72 96 71 71 72 71 112 85 87 144 176 179 164 159 150 120 76 84 105 91 86 93 77 157 170 84 65 74 59 27 80 88 72 84 84 114 114 121 114 58 67 94 117 66 16 10 35 29 24 24 23 29 23 109 100 94 73 32 44 26 24 33 32 30 23 71 35 33 57 110 133 130 139 93 139 160 156 146 144 102 88 98 90 146 131 104 118 114 101 96 199 120 67 79 90 91 84 82 53 116 94 111 115 132 115 128 124 109 93 111 90 85 82 81 62 125 166 101 101 118 88 32 117 195 72 43 79 85 111 129 134 37 38 32 72 129 43 8 31 49 35 31 15 32 46 107 111 105 80 65 30 28 29 31 39 32 28 42 101 26 68 122 131 150 108 66 140 164 153 143 140 118 116 110 116 122 122 129 134 99 108 106 99 98 80 63 96 86 95 89 69 74 174 178 182 192 179 182 173 169 144 101 99 103 100 79 72 86 108 111 120 128 53 84 64 56 71 58 76 100 96 114 132 48 22 44 56 130 91 11 31 66 42 37 10 29 98 110 107 128 71 121 59 34 27 36 36 39 57 24 103 87 133 152 160 154 102 71 141 162 159 149 138 127 139 137 130 143 135 137 142 132 126 126 123 120 102 94 95 91 101 101 103 88 106 96 114 120 87 117 120 91 108 101 114 129 116 99 101 103 106 116 111 95 77 77 83 87 96 99 76 90 100 116 129 42 26 39 46 88 120 28 67 76 77 26 21 41 103 108 105 137 87 158 139 47 30 37 45 48 52 26 49 95 89 220 192 155 91 83 162 169 159 169 166 158 152 147 144 152 151 146 142 148 152 146 135 130 116 110 111 109 117 137 122 120 115 85 142 152 139 132 128 77 116 117 121 132 129 120 112 106 102 120 120 112 119 121 120 119 106 106 103 106 104 121 138 35 43 85 99 76 138 82 111 84 105 16 42 82 104 110 97 149 134 166 158 120 32 42 55 58 51 38 17 78 69 204 185 159 82 97 174 177 173 171 171 168 162 143 136 141 149 150 142 139 136 122 119 120 115 120 124 127 142 152 128 147 97 141 182 194 183 169 171 107 111 133 120 128 121 119 116 114 107 109 106 103 108 108 114 113 104 110 120 124 120 127 141 39 67 111 112 114 133 107 72 64 112 32 70 101 106 112 96 144 162 153 150 140 98 55 71 71 55 53 22 61 102 137 157 186 97 109 176 183 183 177 185 174 176 165 149 151 156 153 153 149 144 137 134 148 140 147 149 151 144 138 143 138 112 171 187 192 181 178 172 140 94 151 118 134 138 131 124 129 135 138 136 120 117 112 122 124 126 131 139 139 131 127 136 60 90 115 118 118 146 70 75 91 118 67 92 99 109 111 88 147 156 141 131 119 98 55 66 95 70 73 60 92 123 120 142 182 124 116 166 173 175 174 174 175 179 183 187 184 185 178 174 165 160 152 144 154 146 159 156 146 132 141 159 121 147 177 183 196 177 180 177 168 88 149 120 139 156 155 150 164 163 163 169 163 159 158 155 158 158 161 164 158 143 134 116 95 112 110 120 116 150 68 77 81 113 93 99 99 108 106 100 141 151 121 111 107 102 68 61 104 98 96 105 132 135 113 115 167 139 125 147 158 166 169 174 175 174 169 174 176 166 167 152 150 147 145 144 151 148 154 148 133 135 153 135 122 172 175 177 194 178 174 182 168 110 109 142 122 141 155 162 169 161 152 158 156 163 165 163 169 170 170 168 165 160 126 106 111 110 111 117 119 144 77 77 82 102 107 97 98 104 101 89 151 143 118 97 96 104 78 86 149 149 118 115 140 141 120 109 149 171 157 128 162 165 173 170 173 162 162 158 156 153 151 141 138 144 137 140 133 138 143 144 123 148 157 102 152 175 175 174 196 194 185 181 159 133 81 139 129 134 146 149 159 158 148 149 149 150 153 155 156 163 156 153 158 151 123 114 115 103 105 115 122 143 68 79 83 107 104 95 101 99 103 94 141 161 132 109 105 124 79 148 195 188 136 111 135 141 136 98 148 157 180 126 155 167 177 176 159 145 149 149 145 143 137 138 134 142 138 144 130 137 141 129 127 158 126 107 168 171 179 174 203 203 192 185 161 145 117 92 128 135 130 142 142 148 145 143 142 133 135 138 145 143 145 142 148 136 123 137 110 94 105 114 140 128 77 82 93 110 105 93 94 102 112 75 137 175 154 124 140 142 131 170 188 193 152 115 120 132 148 96 157 138 176 135 139 166 170 167 144 135 144 143 147 136 136 136 135 137 142 141 139 140 125 133 141 107 93 159 170 174 172 176 209 214 188 188 172 149 151 98 76 134 132 132 136 137 142 139 140 132 129 132 132 134 145 143 139 137 137 140 97 89 111 110 157 117 86 87 98 122 93 94 97 97 108 94 111 180 180 147 143 178 171 163 186 187 156 121 112 125 142 125 124 179 152 151 144 154 157 152 135 141 142 134 142 136 136 136 136 133 138 137 136 130 132 139 122 72 122 163 172 179 179 179 209 207 190 188 187 153 158 136 82 90 144 133 134 140 132 135 138 131 124 127 127 129 133 142 136 145 141 136 82 101 111 142 162 103 85 87 113 113 92 90 87 97 112 91 112 148 185 175 163 173 185 158 181 183 153 124 116 113 126 144 105 155 194 167 148 157 162 147 136 137 131 132 135 138 132 132 132 124 130 134 142 144 138 123 97 83 141 158 174 175 181 187 197 196 189 192 178 155 151 156 106 86 100 147 139 134 132 133 128 131 125 123 124 125 130 133 135 135 135 123 94 107 151 197 127 94 83 104 115 111 80 89 90 90 107 98 95 145 124 171 191 175 145 159 173 178 151 127 127 115 125 126 135 114 122 177 196 185 173 173 167 166 147 146 141 145 140 145 150 158 179 193 191 142 124 118 83 100 145 162 175 175 179 183 193 188 188 185 178 162 160 154 143 75 103 106 133 155 144 135 127 127 120 119 126 129 130 133 121 135 142 139 130 153 176 147 109 90 113 113 111 99 80 86 85 91 109 104 89 146 137 140 186 188 181 157 161 168 150 131 133 125 130 119 129 130 110 106 114 135 148 160 179 183 189 190 191 194 190 185 180 179 180 166 134 119 125 107 75 117 158 167 172 164 172 177 188 186 182 181 178 164 156 149 150 99 85 103 111 114 143 156 154 153 152 148 149 150 156 164 167 175 176 160 143 124 102 115 92 98 124 114 106 96 78 83 83 86 105 108 98 116 169 169 162 164 184 184 136 136 147 137 138 135 129 124 118 128 124 124 107 98 95 92 103 101 103 99 112 113 113 120 113 119 118 122 119 118 113 102 77 140 166 159 162 154 166 173 177 178 177 175 165 162 146 133 126 129 92 100 110 112 108 107 106 110 122 128 128 127 127 124 115 112 115 103 108 115 101 109 118 122 133 119 113 82 76 79 80 81 109 107 106 91 148 174 158 145 142 146 115 108 142 131 142 134 130 130 111 123 124 122 115 109 98 100 103 109 110 113 117 110 119 121 115 115 114 110 114 114 108 101 103 153 168 145 136 132 148 155 166 172 167 165 148 141 124 115 110 126 113 107 109 108 110 108 104 102 109 110 106 105 105 101 103 106 110 102 110 110 97 93 128 130 127 126 110 69 74 76 78 76 105 105 106 93 118 140 135 136 144 149 150 133 125 131 132 141 136 125 122 110 121 118 119 115 102 97 97 97 99 105 105 105 114 118 116 115 105 109 106 113 115 120 130 150 144 122 100 113 115 134 148 154 151 150 137 122 102 98 95 116 119 123 127 112 102 103 106 103 105 103 100 99 98 96 101 108 103 104 106 106 98 99 120 117 113 122 99 64 68 76 75 76 105 107 108 105 103 114 129 160 157 161 172 161 129 121 130 139 136 131 126 103 113 121 120 121 112 107 101 101 104 105 106 106 113 115 110 109 100 102 111 120 141 162 156 133 118 106 63 40 86 106 120 122 124 121 111 97 62 55 89 114 116 129 149 129 114 109 104 101 105 99 103 97 94 105 112 109 105 105 102 105 102 113 120 114 110 109 74 68 68 75 71 79 104 106 105 108 109 101 105 140 142 142 155 140 114 121 126 139 135 133 125 114 97 118 122 124 119 110 105 104 105 106 102 109 107 106 105 103 100 108 122 145 169 180 176 128 117 102 54 6 32 91 91 93 99 93 95 55 17 40 88 111 107 123 142 135 132 117 116 113 107 108 107 106 109 111 122 108 107 109 103 101 104 109 118 115 103 78 62 69 69 66 72 72 103 105 107 101 107 103 104 104 106 101 110 97 69 119 117 135 134 134 127 124 102 106 121 124 120 118 107 107 106 107 104 106 102 109 102 95 103 128 149 167 181 181 201 131 108 100 79 21 22 62 91 86 79 89 88 29 24 60 90 98 116 121 128 134 136 127 119 123 121 118 117 117 115 118 117 112 114 106 104 107 94 90 106 87 69 64 57 71 67 67 67 68 106 105 105 102 109 100 108 106 108 107 106 106 90 104 129 129 131 129 128 127 120 97 113 131 124 121 113 106 112 108 105 106 102 107 109 99 125 146 156 170 169 181 191 178 89 103 109 55 62 77 87 81 83 89 100 68 64 96 93 96 122 114 117 130 132 131 123 125 121 121 115 123 122 119 117 112 111 99 103 113 89 63 66 63 65 59 67 62 66 65 69 63 103 106 105 105 107 105 105 107 107 109 104 108 103 102 126 123 130 123 127 131 123 106 97 121 123 125 111 114 109 113 109 105 110 112 119 129 146 157 164 168 169 176 183 194 127 106 140 137 135 126 105 86 84 98 106 109 107 120 98 111 120 113 118 121 132 131 134 135 126 125 122 129 125 121 112 105 106 98 110 111 79 53 60 60 65 58 67 58 66 64 67 68 105 106 106 104 107 106 108 104 105 107 103 108 104 98 120 122 126 122 124 129 128 122 98 107 123 129 120 111 108 112 116 116 117 126 133 150 155 165 160 160 164 171 168 184 180 139 151 168 164 161 145 103 90 110 122 113 120 120 114 123 117 115 112 118 127 129 140 136 135 131 127 125 125 116 108 106 103 100 111 112 61 54 62 60 60 63 64 59 65 62 62 67 105 101 108 103 105 105 107 107 107 104 108 107 107 93 123 122 118 124 120 135 127 123 109 101 118 125 122 120 112 118 121 133 135 141 152 162 162 164 164 159 165 170 166 167 179 166 155 158 151 164 171 144 119 119 131 124 121 117 122 128 117 117 112 114 117 127 135 133 137 133 131 126 123 112 101 107 99 106 111 102 55 58 57 64 56 65 64 61 60 65 62 59 107 102 103 103 103 104 103 107 106 104 107 105 106 99 120 121 120 125 122 125 126 125 123 101 112 124 126 125 121 124 132 141 147 153 164 164 165 160 157 159 159 166 162 157 169 169 166 152 145 163 171 165 147 133 134 128 121 108 117 117 112 115 114 111 115 117 133 136 136 138 132 127 120 110 100 101 100 103 112 90 49 59 60 58 60 59 60 63 59 59 62 63 104 103 106 104 104 105 104 102 105 103 105 109 104 100 115 120 119 124 121 128 125 128 130 116 103 114 124 127 122 129 135 146 154 161 165 154 157 159 150 153 153 162 157 153 159 162 156 149 143 153 157 162 155 145 145 139 130 114 110 117 111 113 119 116 110 115 121 128 134 135 130 125 117 102 105 99 104 108 118 66 56 58 57 62 54 62 59 62 58 59 60 61 99 103 106 101 108 102 105 103 104 105 106 104 109 105 104 124 123 127 125 129 128 124 130 123 109 106 128 127 129 130 134 144 155 162 160 155 153 153 147 143 147 155 149 145 150 146 145 143 142 153 151 148 151 153 152 145 130 116 109 107 108 111 114 114 109 116 112 119 129 128 124 122 110 102 104 103 103 108 109 64 57 59 62 59 60 56 65 63 56 62 63 58 104 100 104 103 105 102 104 107 104 104 106 101 104 106 101 122 119 127 129 126 132 133 124 130 122 105 120 127 131 136 140 142 152 153 151 150 146 145 141 140 142 143 146 142 143 134 136 140 141 153 145 144 135 159 153 136 136 117 115 110 106 104 107 106 106 108 109 107 120 125 120 116 106 104 105 105 98 111 95 56 51 59 59 56 62 55 59 62 57 60 58 64 107 100 106 103 104 106 104 104 105 104 105 107 105 109 101 114 119 119 129 133 132 134 130 134 130 112 114 128 137 144 136 139 140 147 145 144 141 137 133 135 135 128 138 141 142 133 139 135 134 141 133 137 137 143 150 125 115 116 112 112 105 98 100 102 98 96 108 101 118 121 120 113 106 109 104 104 106 117 78 55 54 61 58 57 61 56 56 60 59 59 58 59 102 103 104 105 104 105 104 103 104 102 104 105 105 103 100 117 110 121 131 129 135 133 135 133 138 121 121 119 138 146 138 135 137 140 134 134 136 133 126 123 126 133 135 130 131 124 129 124 118 125 122 127 127 134 131 122 117 111 107 103 104 91 101 94 97 96 99 98 112 122 124 108 110 107 100 111 109 115 66 52 58 57 58 59 55 61 63 56 63 57 59 62 102 104 102 106 104 103 102 105 106 107 103 108 107 105 101 116 114 108 123 128 131 136 133 131 138 127 114 122 129 148 152 138 131 132 131 127 129 126 122 118 116 123 122 119 117 122 113 110 114 114 113 115 110 113 114 113 110 109 96 91 94 93 97 92 94 92 94 100 108 118 117 109 106 105 103 108 114 100 56 54 58 58 58 59 59 58 63 63 55 61 61 59 103 102 101 104 102 105 102 103 104 105 104 103 105 107 98 118 112 110 113 126 131 131 135 135 139 136 118 118 132 139 152 145 128 136 136 126 127 132 119 111 107 101 105 103 100 105 109 104 109 114 112 113 112 108 104 106 106 97 88 88 82 90 92 83 97 92 95 97 113 119 115 109 107 103 105 106 113 86 52 52 59 60 55 60 57 57 61 56 60 60 58 59 103 101 101 105 103 103 104 102 106 106 103 106 103 108 103 111 125 101 110 119 125 128 132 135 135 133 126 120 130 140 151 143 139 135 134 127 124 129 113 115 98 92 82 80 81 81 95 98 107 101 108 106 101 106 102 101 105 101 87 88 80 78 88 85 94 88 98 99 114 121 112 110 103 106 109 107 113 61 53 59 57 59 56 60 63 57 61 55 55 57 57 63 100 101 105 103 101 102 108 99 102 104 104 104 104 103 105 108 129 110 103 113 121 112 133 133 137 131 132 124 130 139 146 146 143 140 135 130 126 115 115 109 99 92 92 70 72 65 65 86 99 94 102 107 100 97 102 100 92 89 76 77 72 79 91 94 97 100 105 100 114 118 111 108 98 110 106 112 96 53 53 56 62 56 58 58 55 62 55 61 58 59 55 61 101 104 104 103 101 100 104 105 102 102 106 101 106 102 107 101 134 116 110 103 119 112 129 130 133 139 133 131 132 137 145 146 145 145 137 134 131 119 119 114 102 98 91 64 54 54 51 56 65 54 70 79 92 94 81 70 58 55 49 48 45 50 74 101 95 104 104 110 116 113 112 106 104 103 112 112 79 47 59 52 64 53 58 56 59 57 56 61 59 56 60 59 104 97 102 99 100 104 103 105 105 100 106 102 108 103 106 91 132 131 118 100 114 115 125 130 129 138 133 136 134 132 141 150 146 138 135 132 126 120 112 94 86 57 49 38 43 39 42 38 40 34 39 41 56 67 60 38 35 44 41 48 43 39 48 83 95 102 107 107 117 114 113 105 103 111 109 107 61 51 56 57 56 54 57 57 56 58 58 60 57 59 58 55 103 101 98 106 99 104 101 106 103 103 102 105 106 102 104 97 128 136 126 107 107 119 119 129 132 137 131 133 137 130 141 148 149 139 137 130 125 110 87 77 70 67 60 67 72 85 81 60 50 36 34 35 38 39 53 52 55 63 63 72 69 75 70 73 92 103 104 110 117 117 110 106 110 110 112 92 51 55 56 55 59 56 56 58 56 55 59 55 58 58 57 59 100 101 101 103 103 100 104 100 103 104 103 103 105 105 106 94 123 136 135 116 108 113 125 126 129 140 135 134 127 126 140 144 148 142 133 131 116 107 96 104 119 123 117 116 107 110 117 111 97 72 54 61 59 61 77 72 66 71 75 78 74 88 100 86 92 100 106 117 118 115 107 109 114 109 114 67 49 57 59 54 55 53 56 57 53 56 56 59 52 58 58 61 96 101 100 101 98 103 100 101 104 101 102 104 102 106 107 94 119 135 135 128 108 106 121 134 129 137 138 139 126 123 134 145 143 146 143 129 119 110 127 138 141 141 129 123 115 115 122 130 125 121 110 94 80 81 80 77 75 73 81 82 91 99 110 94 98 97 115 118 116 111 102 115 110 111 103 49 48 59 56 52 58 58 52 55 57 57 54 58 56 59 57 57 98 99 101 102 103 98 103 100 103 102 100 105 102 100 107 93 118 138 136 133 111 107 112 130 133 136 141 142 126 118 121 136 142 141 138 132 127 120 139 137 145 138 123 114 112 126 125 128 128 132 132 124 116 97 90 75 85 78 80 89 103 108 108 99 93 103 113 119 119 105 107 112 111 117 91 44 56 55 55 53 54 63 52 52 57 56 57 55 58 54 55 59 104 99 102 99 104 97 101 101 102 103 102 102 101 104 105 99 111 137 139 132 128 100 111 131 127 141 139 138 132 127 114 125 143 143 131 136 127 140 139 139 140 138 131 111 112 101 89 88 97 86 104 117 86 99 92 85 85 86 93 101 105 108 104 100 105 107 107 120 108 108 106 113 115 118 78 45 53 55 56 54 57 51 57 56 54 56 54 59 56 60 53 58 99 99 100 100 101 102 97 106 98 107 100 101 106 104 105 97 108 135 139 139 127 109 115 129 132 140 143 144 136 130 120 112 127 143 138 129 137 140 143 142 138 136 136 131 119 104 78 74 79 77 80 84 71 84 80 87 90 94 101 102 103 106 106 104 107 107 111 112 109 109 109 115 116 119 67 48 56 55 56 56 52 55 55 58 50 59 53 53 58 54 55 58 100 101 97 102 98 101 103 100 101 104 102 100 103 101 103 103 102 132 136 137 133 123 119 129 137 139 141 142 143 139 126 113 119 146 141 137 140 147 136 134 131 132 134 138 129 118 105 90 83 80 80 77 68 78 79 84 91 101 102 101 97 98 107 106 109 112 112 109 107 111 112 115 117 111 62 49 53 54 55 52 54 56 59 52 52 57 55 56 58 51 58 58 98 103 98 102 100 103 99 100 103 100 105 101 103 101 106 102 100 130 129 140 137 128 132 124 139 142 143 136 139 142 133 131 124 129 147 140 143 140 137 134 122 129 130 133 129 130 127 116 98 85 78 75 71 74 82 87 95 100 102 94 101 98 108 110 116 115 114 108 112 111 110 112 114 100 58 49 50 53 55 51 56 55 51 60 53 54 56 55 56 53 58 54 100 100 101 100 101 100 99 103 101 103 101 102 104 103 104 106 92 135 128 133 136 133 129 132 133 140 145 132 133 143 141 134 132 127 135 142 144 144 142 138 119 127 129 130 128 128 127 117 105 85 76 74 78 82 92 92 91 99 97 93 98 104 114 113 115 115 108 108 103 110 107 106 112 96 48 57 48 55 54 53 55 52 54 54 54 56 55 56 54 55 54 55 99 98 103 102 99 104 100 105 102 102 101 101 106 102 103 103 95 128 138 127 134 132 129 121 130 141 142 132 130 142 145 139 127 132 116 123 127 132 137 132 130 128 135 132 130 130 119 113 102 91 85 83 87 87 95 95 93 96 96 99 108 109 115 108 101 112 102 109 108 104 102 100 112 86 49 51 53 53 56 54 52 51 59 53 50 60 54 56 52 55 55 53 95 98 102 98 101 98 102 102 101 98 101 101 104 102 104 101 94 133 133 131 135 130 126 118 110 133 132 133 127 138 142 139 128 131 133 105 101 106 113 126 125 130 138 132 137 117 114 106 102 101 90 91 86 86 90 97 98 102 93 108 110 112 112 103 99 98 99 101 105 101 94 94 116 77 41 56 52 47 57 52 55 56 52 50 55 57 58 51 57 50 56 52 100 96 100 102 100 100 104 97 100 100 103 98 107 102 108 81 137 168 132 133 133 129 121 112 105 114 117 130 120 123 132 131 126 125 118 122 105 105 105 113 122 131 131 125 123 115 105 100 104 99 87 89 85 94 89 105 99 101 100 115 112 112 106 109 91 95 95 90 101 97 86 101 113 104 46 53 53 53 53 47 54 56 55 52 54 51 56 53 55 53 53 57 94 96 102 98 102 96 104 98 105 100 104 100 105 101 103 76 208 198 128 133 136 133 121 111 101 98 106 106 116 115 123 123 120 127 118 106 120 115 91 103 133 140 120 113 115 109 100 102 94 86 93 86 96 95 100 102 106 104 109 122 117 114 116 100 89 92 99 88 94 86 96 99 105 175 60 50 45 59 49 55 51 53 54 52 52 53 53 55 54 59 51 55 99 94 100 100 100 99 102 100 101 101 101 102 101 113 66 149 232 179 122 137 138 133 124 112 108 87 93 94 99 105 111 116 116 119 133 109 101 106 100 101 124 133 125 114 109 111 107 105 100 86 89 99 98 97 106 112 108 114 118 122 119 101 106 96 90 92 90 83 81 90 102 102 97 187 116 39 49 55 51 54 50 54 53 52 49 56 51 52 53 55 52 51 98 98 100 96 102 103 97 104 101 99 106 97 107 91 82 207 223 142 127 137 142 129 128 114 106 100 86 88 101 97 104 108 98 121 120 106 96 100 106 112 118 121 121 109 106 111 111 104 110 106 105 103 117 124 135 137 126 139 135 125 118 102 107 100 91 91 76 71 93 99 106 104 96 174 167 44 47 51 57 44 60 56 53 50 55 50 56 56 51 57 54 49 97 100 99 97 104 99 96 101 99 107 98 106 107 69 128 231 198 107 136 139 139 134 126 121 107 97 92 86 87 100 99 104 102 102 115 98 119 96 93 109 111 116 129 121 125 127 115 107 99 91 105 116 121 131 130 140 138 144 145 125 117 115 103 95 93 85 65 94 98 96 110 103 93 164 192 82 21 48 50 56 51 48 58 49 58 48 57 52 53 53 54 53 99 99 96 102 98 100 102 99 101 102 100 101 97 34 195 237 152 84 146 138 135 142 133 123 115 100 95 84 86 86 93 104 100 93 109 103 113 101 100 117 108 119 126 129 131 132 115 106 105 89 82 104 119 124 127 137 133 141 132 118 109 103 93 89 86 67 86 101 103 105 112 105 76 167 188 129 16 30 49 50 54 49 48 54 55 52 52 50 50 56 55 51 97 101 97 100 98 101 98 102 98 102 92 79 63 45 223 236 127 46 154 141 138 137 134 127 113 108 98 89 89 83 82 93 90 92 94 100 98 106 117 118 94 108 117 127 125 127 117 107 104 97 81 100 101 122 121 126 120 119 116 107 102 94 86 88 66 76 103 107 109 109 118 101 54 176 184 166 25 32 34 39 47 50 50 54 50 57 50 51 50 58 49 53 94 101 96 96 96 103 101 101 96 83 60 58 41 92 230 229 97 37 153 148 146 140 136 134 119 114 112 94 91 91 87 79 78 85 85 88 95 108 110 109 99 97 100 106 112 116 116 103 104 101 99 114 104 107 113 115 113 103 97 100 90 89 79 75 74 102 105 107 113 110 124 90 43 184 177 191 48 25 34 36 34 40 42 54 51 51 56 48 53 53 56 52 99 101 95 103 97 99 93 78 81 77 49 62 12 147 219 227 95 34 155 154 149 148 142 136 128 128 115 107 96 95 88 89 88 80 76 82 86 95 109 97 94 98 102 99 99 103 108 105 96 106 112 110 110 105 102 104 98 95 93 88 82 84 73 74 107 109 105 113 112 112 128 64 67 187 177 189 94 18 28 39 34 37 39 42 50 52 51 53 51 52 53 53 100 98 99 98 95 85 70 53 55 72 50 46 42 189 208 229 123 34 153 157 154 152 149 143 137 132 127 120 108 102 89 92 88 87 79 78 73 76 96 95 91 80 86 86 76 92 87 95 99 105 107 106 96 92 84 86 79 80 78 82 72 75 80 104 107 107 112 110 112 115 125 26 98 184 174 177 140 58 15 33 30 33 36 35 35 53 50 56 46 54 51 52 98 96 99 93 81 66 73 57 63 57 34 49 147 205 204 216 189 44 145 152 157 160 153 146 149 146 132 130 126 109 103 96 91 90 88 90 71 65 76 83 81 68 76 74 62 70 73 75 83 83 88 85 84 74 74 66 70 71 66 73 73 103 103 111 108 112 110 111 116 118 100 11 135 172 173 175 143 116 35 27 18 36 36 34 30 41 53 47 51 52 50 53 101 100 87 73 68 67 67 54 48 39 46 154 193 201 203 205 234 76 119 153 160 161 164 156 153 153 152 147 132 128 120 104 97 92 91 96 90 72 69 71 66 63 64 67 66 66 68 63 73 63 67 63 69 63 70 62 62 73 82 103 107 111 110 112 106 118 114 116 116 120 52 40 164 172 171 175 148 91 114 20 24 32 24 42 30 41 41 38 55 51 48 56 89 81 62 53 57 56 63 64 31 34 149 185 195 199 202 205 219 185 93 158 163 164 167 163 160 163 162 157 150 141 130 123 112 100 96 98 93 89 89 77 76 65 69 62 68 63 61 63 65 65 62 66 68 60 68 74 96 106 108 111 110 112 116 114 112 116 114 117 123 98 23 85 176 174 175 172 162 97 112 66 13 34 33 33 38 32 42 32 39 51 50 51 