P2
92
112
255
113 111 112 113 113 111 111 111 111 109 112 111 112 111 110 113 115 116 108 104 89 78 71 70 58 52 59 59 67 69 70 66 66 53 54 60 59 62 53 63 72 74 75 62 55 58 55 55 42 39 48 42 39 35 31 36 38 30 32 46 46 56 85 91 85 81 85 91 101 96 100 106 111 110 111 110 107 109 112 108 109 112 110 111 111 109 106 111 108 112 110 109 113 112 111 113 108 111 114 111 110 113 110 111 112 112 114 108 111 101 79 76 71 72 76 83 79 64 56 65 54 58 67 71 73 70 70 66 58 59 54 51 47 53 61 58 58 46 49 55 65 50 53 43 40 34 37 31 42 32 28 29 37 43 79 91 72 102 82 87 101 104 101 103 108 110 110 110 106 112 106 110 110 109 108 112 108 114 106 109 108 111 112 110 108 112 110 112 114 111 111 112 113 113 112 112 109 113 110 109 92 61 59 56 65 78 77 83 81 71 77 71 72 66 70 71 76 81 82 75 70 66 57 59 55 56 54 70 66 59 58 48 50 59 61 50 40 42 41 31 34 43 28 29 29 27 45 84 66 104 87 80 106 104 104 103 108 112 107 113 110 115 106 113 108 110 108 112 108 111 107 110 109 111 108 111 105 114 112 110 111 112 112 110 111 114 110 113 110 114 109 75 53 49 57 68 72 79 85 77 71 73 72 72 64 55 63 64 70 73 83 79 71 57 51 50 43 41 58 63 67 71 71 62 50 57 51 49 40 49 50 29 32 29 34 27 28 25 29 42 80 98 83 78 105 103 104 101 109 110 107 112 108 112 109 110 109 111 106 111 107 112 109 110 110 110 111 111 109 112 111 112 113 110 116 107 112 112 112 108 110 108 85 47 38 50 56 58 69 77 76 69 71 62 64 60 46 46 54 72 71 85 84 76 70 58 53 54 41 35 36 45 58 70 72 64 63 55 53 56 51 35 42 43 33 29 30 39 29 25 25 26 49 94 70 87 103 103 101 101 107 106 106 106 111 110 112 109 111 111 106 108 110 109 111 110 110 109 111 111 106 115 110 113 112 112 111 111 110 111 113 110 103 63 43 32 40 46 51 47 65 69 78 86 87 70 72 63 58 54 64 68 78 76 86 80 75 75 63 61 53 55 39 40 29 57 63 62 50 50 53 49 48 44 37 46 50 39 30 44 40 31 25 29 29 51 73 91 93 98 96 99 107 103 106 100 104 109 111 109 110 109 105 108 112 109 110 109 108 110 109 114 112 112 107 109 108 112 112 109 113 108 112 96 49 32 32 26 37 45 44 47 57 62 74 84 80 56 66 55 51 58 65 68 78 80 79 74 76 78 71 57 62 62 61 57 57 53 49 56 48 44 46 49 37 40 38 40 35 50 34 37 47 32 42 36 26 27 64 86 83 91 93 90 85 82 81 85 92 92 99 105 111 105 112 109 113 106 110 111 110 110 110 106 110 115 111 114 114 109 113 111 109 112 95 54 31 30 34 33 46 48 39 42 55 57 59 60 53 41 40 44 42 51 58 60 60 76 75 81 85 80 73 70 53 57 61 56 52 47 63 67 57 43 38 44 36 40 35 40 34 41 43 45 36 40 37 45 28 24 44 73 78 82 73 80 78 85 82 77 84 86 86 100 105 109 108 115 108 110 109 108 111 109 110 109 108 113 109 111 112 110 111 112 111 96 53 38 33 38 44 41 45 43 46 42 42 44 57 57 60 45 42 46 39 53 57 66 72 77 80 74 76 74 74 73 76 60 59 53 53 48 47 43 55 56 41 43 41 42 41 38 29 42 43 48 43 46 40 45 31 35 30 63 67 72 80 90 87 85 95 94 97 80 84 86 99 109 110 110 113 109 112 108 110 106 113 107 112 113 110 108 112 112 113 112 104 65 47 28 44 32 34 34 39 47 49 58 58 59 62 64 61 57 48 57 49 50 58 64 73 77 93 76 75 68 60 68 64 72 64 57 55 55 47 38 37 42 45 40 41 54 44 41 31 36 29 46 51 44 46 47 33 36 33 42 39 44 48 44 44 43 45 63 83 97 88 92 89 100 108 106 107 107 107 109 110 104 113 107 111 111 110 110 113 113 114 105 79 58 41 38 34 29 34 47 50 61 52 50 48 33 37 36 45 41 47 47 45 53 62 67 63 66 74 62 67 54 56 48 55 46 52 54 54 53 49 46 39 38 41 37 43 38 40 47 41 38 24 42 44 35 49 48 30 35 31 26 40 26 30 28 28 36 29 50 54 79 95 85 94 95 100 106 109 107 111 107 110 108 109 114 111 114 108 113 107 117 102 74 67 47 36 24 37 38 44 53 55 54 42 40 32 31 23 40 34 36 44 39 40 49 51 56 71 72 74 71 68 46 41 41 37 34 39 40 51 46 39 54 47 52 43 35 46 39 40 42 36 36 35 41 35 22 40 53 38 33 37 17 35 43 33 23 35 34 35 31 27 44 62 64 82 88 94 108 108 110 106 112 110 109 108 109 113 111 112 113 115 97 73 73 59 31 34 36 37 37 44 63 68 64 66 61 41 53 48 40 36 34 30 44 55 57 53 49 47 51 62 60 65 56 55 43 35 35 34 30 29 29 42 40 43 45 47 45 47 44 43 39 32 39 37 44 36 29 30 46 46 41 34 22 17 43 42 35 49 37 36 32 31 28 30 37 55 82 94 102 105 107 112 109 112 107 113 106 112 110 115 108 92 69 67 64 41 32 44 32 38 40 48 47 53 58 54 54 52 48 44 35 31 37 38 51 57 54 43 42 44 54 61 49 56 39 48 43 35 44 46 38 34 25 32 20 33 38 36 39 42 36 43 37 36 38 34 37 38 30 31 34 40 46 40 23 20 17 45 49 46 37 31 33 33 36 36 37 46 58 78 96 107 105 107 111 109 111 109 109 113 112 106 85 53 71 75 52 36 40 38 37 38 38 39 36 35 40 36 48 45 42 40 34 40 34 41 45 50 51 65 77 79 79 70 60 52 44 41 37 38 39 35 33 35 35 27 23 30 25 29 28 30 30 29 31 35 32 30 36 34 31 31 28 26 44 34 31 28 18 32 42 46 38 35 39 36 37 39 44 51 44 59 72 97 104 107 110 110 109 110 107 114 104 75 52 53 64 72 45 36 42 37 31 31 28 30 32 29 34 35 36 39 37 32 32 42 32 39 44 48 56 65 65 62 70 64 51 51 40 35 39 34 34 30 33 30 29 27 26 30 27 36 33 35 29 39 37 36 30 24 29 30 21 34 25 24 34 29 33 35 26 23 30 44 40 32 41 36 39 44 45 51 43 52 55 75 91 101 110 111 107 113 109 109 71 49 53 52 71 58 44 47 49 28 21 28 33 33 27 37 26 35 38 39 34 34 38 35 35 37 35 39 47 48 57 67 68 68 62 52 40 42 39 32 33 28 28 24 31 26 34 44 51 47 46 41 37 44 36 40 30 35 30 28 27 23 29 19 27 25 32 23 39 22 25 40 43 36 49 37 40 47 51 41 28 41 52 65 88 84 107 111 107 112 108 79 46 48 42 70 70 55 47 49 33 34 27 31 43 41 29 37 30 42 55 36 32 39 30 34 29 35 37 41 49 62 75 78 87 89 76 67 58 53 45 45 45 36 37 36 40 51 68 56 40 39 35 42 34 44 39 35 31 35 39 37 32 44 34 32 25 35 34 19 22 33 24 39 48 45 50 40 40 51 54 40 25 34 42 48 75 93 101 105 109 111 109 48 49 40 61 80 59 52 50 43 38 32 38 37 39 35 41 34 38 46 41 31 26 34 36 29 38 41 39 45 45 59 64 64 60 67 61 51 48 44 39 45 37 42 52 51 63 59 48 38 34 36 31 35 31 45 40 44 44 52 53 63 66 64 62 63 47 50 42 25 16 29 31 40 34 52 54 36 54 51 46 37 37 33 31 44 52 85 93 107 105 108 111 45 49 48 69 60 58 51 52 34 36 32 40 32 39 36 33 25 33 41 33 28 30 36 29 25 32 44 39 41 33 42 52 57 65 73 64 53 40 40 39 33 38 68 73 62 58 43 44 36 38 35 37 39 39 41 39 47 66 80 89 99 90 97 89 89 84 80 53 34 19 25 29 46 30 42 53 44 49 45 43 34 31 41 33 37 52 56 95 103 106 107 112 37 46 66 54 55 58 42 48 38 33 31 35 29 39 30 33 28 35 32 33 26 30 31 29 27 30 30 32 25 36 38 50 57 75 81 52 50 40 39 37 45 62 61 56 34 39 43 39 46 46 45 45 38 42 47 50 77 99 105 111 116 110 111 111 111 107 102 75 51 34 31 30 54 34 36 43 46 48 34 30 36 35 35 47 33 46 56 78 96 112 109 106 33 61 65 37 60 38 43 45 29 31 31 30 30 26 33 27 38 30 27 31 20 37 26 26 30 27 24 31 32 40 48 61 55 74 71 52 49 38 39 43 48 40 39 43 39 51 47 56 49 49 41 40 45 49 61 78 106 119 126 125 127 124 122 119 121 126 113 95 68 54 47 39 51 54 24 36 35 36 32 25 36 46 34 37 45 48 58 60 89 105 111 109 35 71 46 39 54 28 43 37 27 37 30 28 23 28 28 36 37 24 31 25 22 26 29 31 31 21 25 34 35 36 44 44 54 66 54 44 50 52 43 49 38 40 52 67 71 58 50 51 44 42 41 35 52 63 90 100 116 128 133 137 130 131 129 129 135 132 119 101 86 65 65 61 38 55 32 33 32 22 26 33 34 55 41 32 42 46 60 53 81 103 107 109 54 63 47 35 37 29 47 44 29 30 28 27 23 32 30 35 28 29 30 26 30 31 29 35 26 27 27 31 33 31 33 41 46 53 52 54 52 52 42 34 35 48 62 63 54 49 46 42 50 45 41 49 70 93 111 123 125 132 139 143 139 136 142 134 143 135 126 113 90 90 66 57 62 47 33 36 35 24 18 23 53 52 66 41 38 37 53 52 71 96 106 105 52 61 36 33 35 27 43 37 32 25 24 26 26 33 29 32 27 30 29 26 31 27 34 28 24 24 23 31 31 31 41 40 52 53 64 56 57 42 31 42 51 60 69 59 57 48 51 48 50 50 47 80 98 114 122 130 131 141 146 146 143 137 149 144 146 141 136 116 102 102 73 61 86 69 26 42 36 32 18 27 49 53 67 60 26 37 36 52 52 95 104 111 66 44 41 33 38 30 33 27 32 15 29 24 28 25 33 28 33 27 26 27 29 33 30 26 20 22 22 29 31 35 41 45 55 58 60 68 54 41 41 52 55 69 66 67 63 59 59 61 69 47 75 100 112 123 124 138 139 147 143 140 143 150 145 151 142 145 133 127 106 90 82 73 96 81 45 28 46 27 25 44 30 57 54 70 28 36 34 42 50 82 103 111 53 33 38 38 34 32 39 24 24 24 27 22 28 23 31 32 28 25 26 31 34 30 29 24 23 26 23 28 36 46 42 57 55 65 63 60 45 46 52 62 64 71 69 76 73 78 73 76 70 71 97 110 121 127 133 141 141 143 145 141 148 155 150 149 139 134 122 113 90 103 100 87 101 87 58 41 36 37 36 58 32 53 37 69 37 29 36 31 42 86 92 110 45 32 33 38 34 34 33 27 25 28 26 30 23 28 29 28 30 27 27 31 52 37 27 23 23 23 24 30 43 53 49 61 66 64 58 53 57 67 73 76 77 82 85 86 83 82 85 75 88 98 112 118 126 127 140 137 141 144 146 145 152 152 156 150 137 118 111 111 113 124 107 92 99 98 59 50 31 36 42 70 42 41 42 64 46 26 32 29 26 82 107 97 32 33 27 35 40 31 31 27 27 26 23 28 25 27 24 26 28 30 31 37 64 47 25 25 23 23 27 37 51 59 56 64 61 65 61 71 78 86 90 88 97 95 93 93 94 91 89 92 105 108 124 123 132 131 134 140 143 144 145 149 154 155 157 162 150 130 129 129 125 127 112 101 112 99 56 58 47 25 47 60 36 42 39 48 53 28 29 31 22 54 116 105 35 32 28 41 37 27 36 22 28 27 24 25 27 27 27 27 30 28 35 48 85 62 28 25 26 20 34 46 57 61 56 66 72 64 77 85 93 102 98 101 104 105 95 98 103 90 101 107 109 120 133 129 133 135 142 139 143 147 153 148 152 157 160 161 161 146 145 136 133 131 124 101 118 102 56 54 54 32 39 54 38 38 39 42 48 29 29 24 24 24 110 109 33 36 32 25 34 26 37 27 24 26 18 26 20 27 29 33 31 37 42 74 83 81 52 28 28 25 43 53 63 64 65 78 81 86 97 104 111 106 108 105 112 103 99 101 95 108 115 116 119 129 136 133 134 138 145 143 142 150 145 154 152 157 162 160 161 152 154 140 129 137 139 122 116 110 65 44 65 39 37 45 43 38 31 39 37 31 29 23 26 15 71 117 44 29 29 30 30 27 40 28 25 23 20 19 21 24 27 35 33 38 63 79 94 107 72 32 26 39 49 63 63 68 80 92 100 98 110 115 114 112 111 110 106 107 94 101 100 127 130 125 128 137 136 138 136 139 139 146 140 153 148 147 156 158 160 162 164 151 157 146 133 138 149 142 118 120 81 31 68 40 42 36 45 44 32 35 31 28 31 16 26 19 39 112 45 28 27 30 27 29 32 37 24 19 23 27 22 25 30 27 41 56 74 85 120 137 74 38 40 57 64 69 79 88 95 98 110 111 119 117 120 114 118 117 101 99 102 119 127 133 132 138 131 138 138 141 143 137 140 142 145 149 155 149 159 160 166 167 163 160 163 149 140 145 145 150 121 118 92 28 64 43 35 36 46 41 35 34 29 24 25 29 19 23 31 94 37 29 29 21 34 36 28 23 24 19 31 30 29 27 31 33 48 66 83 103 149 146 77 65 69 73 81 91 92 103 104 106 113 119 121 124 126 120 119 102 96 111 130 133 135 130 137 138 134 136 136 141 141 138 139 142 144 150 156 160 161 164 167 168 167 165 166 153 157 150 149 148 134 116 105 30 61 53 34 33 46 43 34 32 26 23 22 28 25 26 17 75 23 32 22 26 32 37 27 26 29 19 33 31 31 30 34 50 56 85 105 126 162 147 114 101 92 99 102 102 107 108 107 110 112 125 126 131 130 125 112 110 122 138 136 133 133 133 133 137 135 135 134 135 137 140 143 143 144 151 158 165 165 165 170 172 170 168 165 160 160 156 159 154 141 124 106 40 65 57 39 42 34 42 35 31 21 26 26 25 24 29 11 54 27 25 24 23 35 22 31 26 32 26 32 30 31 37 47 57 74 98 121 142 165 161 144 140 130 139 131 124 121 124 124 130 132 143 146 150 146 147 135 134 140 137 132 128 127 130 127 136 138 134 135 137 141 140 148 146 149 160 164 163 171 170 171 171 176 172 170 168 159 160 158 160 149 131 111 58 63 63 42 39 31 34 36 30 27 18 22 26 30 23 18 20 29 30 33 30 27 28 31 31 30 32 28 34 40 47 55 69 99 110 125 147 171 166 162 170 166 165 160 157 157 156 165 171 167 175 178 180 178 177 171 174 159 157 156 143 142 142 140 137 141 139 138 142 149 155 157 157 162 170 173 173 176 177 176 176 178 175 173 171 164 163 160 161 157 141 115 81 64 76 47 32 33 33 32 39 31 21 18 26 16 26 22 3 24 29 24 38 27 34 30 33 30 31 33 41 46 51 59 87 108 122 136 152 164 162 166 174 176 178 178 181 182 183 186 187 182 192 193 197 197 195 194 193 180 176 179 167 160 160 151 148 148 149 151 159 164 170 169 169 177 176 179 181 180 184 181 185 180 179 175 171 159 162 160 158 159 145 123 106 85 73 51 33 27 25 41 35 35 24 22 19 20 26 18 7 27 26 28 32 33 27 31 28 24 37 36 39 49 54 71 91 116 127 140 158 159 161 167 169 177 181 186 189 190 190 188 189 186 191 200 201 199 199 200 200 194 182 180 172 170 166 164 162 165 160 168 171 178 182 180 177 181 183 182 179 181 183 182 182 181 176 172 167 156 161 158 158 157 147 133 113 98 75 56 34 29 28 41 34 27 29 23 25 15 21 20 20 25 28 29 25 26 28 28 33 28 45 37 39 57 60 77 92 121 130 144 160 160 159 162 169 176 182 189 193 193 194 192 189 189 188 194 195 197 198 197 198 196 190 183 181 180 178 177 178 178 173 179 181 182 185 184 181 178 183 182 172 178 182 178 178 176 172 172 161 150 165 162 159 156 146 130 117 106 82 59 37 29 34 28 33 24 24 26 24 19 18 14 20 31 21 31 25 26 34 31 33 35 43 40 44 55 60 81 99 127 139 150 161 160 158 160 169 177 182 185 189 188 192 192 184 184 186 186 185 189 188 189 190 187 184 185 184 178 178 181 181 181 175 180 182 186 188 182 181 177 181 178 175 169 177 173 174 170 165 160 151 141 159 165 160 163 146 137 118 113 99 63 40 29 32 25 32 22 21 19 27 22 17 12 14 32 16 31 22 27 40 33 36 47 41 36 37 50 63 88 112 132 145 153 160 157 159 158 168 178 184 183 178 170 178 177 179 176 180 179 170 176 174 171 175 175 170 169 172 173 165 170 172 174 174 175 178 180 179 178 172 166 164 159 158 164 161 167 160 158 155 147 145 145 145 158 158 159 156 141 123 115 110 77 35 30 23 34 21 28 23 13 26 23 19 18 5 27 24 24 33 34 24 41 36 49 37 28 44 44 66 92 122 131 150 155 162 156 155 165 168 174 176 153 137 131 133 138 144 156 148 145 130 143 135 126 124 125 127 134 151 151 141 148 157 158 161 165 166 167 167 172 158 154 143 140 140 139 135 126 123 126 119 116 118 112 119 120 123 131 152 145 130 117 114 85 31 27 27 30 23 23 22 20 18 27 26 21 10 26 23 20 32 34 26 37 39 55 25 34 39 44 65 92 129 143 151 153 165 156 153 152 139 129 116 99 98 95 99 98 98 108 103 99 87 97 94 83 74 72 77 94 123 123 113 113 129 144 152 158 158 154 155 155 142 129 116 106 99 88 92 72 76 84 73 68 86 70 78 78 86 102 120 136 131 114 117 98 44 18 27 33 19 24 16 20 19 20 29 23 6 26 27 23 33 40 26 36 45 55 29 37 41 41 61 94 136 148 153 151 166 145 131 114 101 79 88 72 71 70 76 71 62 55 59 54 59 51 58 50 48 46 52 68 89 99 92 81 108 125 138 152 143 134 140 141 119 104 84 72 67 55 62 69 57 54 44 47 52 46 49 54 54 63 76 87 103 107 112 107 51 16 23 34 22 21 17 14 22 20 24 35 11 30 25 31 38 37 31 37 37 51 41 40 42 42 53 103 135 152 153 152 158 128 103 88 73 64 74 70 71 66 65 57 44 41 36 36 34 33 34 32 42 33 41 55 68 78 66 70 95 109 118 138 128 124 120 119 93 74 62 53 46 39 43 46 44 38 38 35 40 35 40 45 50 53 53 45 58 67 100 114 59 14 24 30 21 19 21 16 16 22 26 28 23 20 25 37 34 36 35 31 36 47 39 58 37 45 56 97 138 146 156 147 152 127 104 89 73 80 73 71 77 75 72 59 66 50 52 34 31 29 27 29 33 32 41 49 57 49 56 72 73 97 100 123 107 110 106 98 72 65 48 50 37 35 36 32 27 28 30 32 33 44 44 38 46 45 54 44 46 52 72 112 68 12 24 21 26 24 18 18 22 21 26 17 28 27 37 31 35 35 28 29 36 37 49 38 49 37 46 97 124 141 153 145 140 112 108 92 85 91 110 114 99 100 98 89 87 99 92 90 73 73 66 66 70 65 74 80 80 80 94 89 101 103 109 118 111 118 105 96 79 70 66 67 59 41 43 38 37 40 50 59 64 71 61 65 64 62 66 70 64 59 53 98 83 15 20 19 23 20 18 19 21 30 25 29 13 31 35 37 35 31 32 29 31 29 40 26 45 42 46 93 131 142 149 147 142 128 110 133 177 195 204 201 136 123 115 110 107 111 108 102 101 97 99 98 104 106 110 115 121 123 126 132 131 137 142 144 144 147 141 142 129 121 146 148 129 118 103 108 103 113 112 116 113 111 107 109 99 98 90 106 99 92 81 98 86 24 18 24 26 19 21 16 22 32 32 33 32 29 36 37 33 35 24 28 36 27 25 33 40 28 41 84 134 141 149 145 137 134 133 159 171 165 156 152 126 115 108 100 93 90 88 88 76 80 71 78 80 92 90 87 99 88 61 70 90 100 116 117 118 115 104 87 57 67 142 126 95 88 88 76 79 77 83 84 93 100 108 113 114 119 116 121 141 145 130 113 100 34 22 23 21 24 24 14 23 20 41 25 57 28 61 39 29 35 26 25 32 27 25 32 35 37 29 75 130 138 147 131 128 142 147 140 134 133 131 124 96 90 104 94 74 75 74 69 65 74 69 90 147 116 82 77 84 99 80 65 100 132 144 143 137 125 109 79 58 95 95 87 71 69 85 70 67 58 58 60 65 83 83 92 111 141 118 115 122 117 101 100 112 83 33 16 24 23 23 15 22 22 31 32 41 61 117 37 26 30 31 26 31 29 24 44 42 34 34 68 118 140 135 128 119 138 144 132 135 131 116 112 64 124 207 152 60 48 58 43 53 94 72 75 107 110 79 82 78 78 98 87 124 151 162 145 140 132 111 76 99 93 80 80 71 74 164 151 54 44 33 58 47 81 87 77 79 109 116 116 117 113 31 42 72 121 81 9 24 23 24 20 22 27 25 30 29 88 108 46 26 34 29 24 31 29 28 28 53 58 35 77 116 141 123 128 81 134 152 152 148 137 118 105 85 62 124 90 47 55 51 53 65 184 119 61 63 82 77 85 81 71 133 191 163 158 158 139 141 143 139 131 114 77 77 76 65 62 165 160 50 46 39 69 30 156 183 56 64 80 98 115 127 129 41 23 34 108 128 37 9 43 31 17 29 24 21 37 33 105 85 62 33 39 31 29 31 31 33 24 29 90 63 87 127 139 146 117 86 155 170 165 150 129 125 126 126 143 131 136 126 91 70 71 77 95 91 58 53 88 78 76 67 77 80 124 147 149 164 135 144 140 130 125 94 83 92 80 58 49 91 97 53 51 40 43 100 79 94 83 66 98 97 95 118 135 56 21 46 87 136 79 14 40 46 26 16 33 32 38 64 120 87 86 61 30 34 30 29 37 39 42 28 60 91 123 156 148 162 110 93 162 170 163 142 123 142 158 153 156 156 164 157 148 139 133 128 122 107 101 85 90 87 89 96 96 99 116 84 112 127 101 106 114 89 106 103 101 111 102 71 81 88 90 87 76 80 98 120 114 107 111 103 94 93 97 113 130 55 23 39 69 107 119 36 84 80 21 8 45 87 42 92 128 99 75 135 54 31 28 37 38 53 45 38 22 75 73 125 150 162 94 101 165 175 178 173 170 162 156 148 146 147 154 148 149 152 147 135 131 119 113 105 109 104 109 125 113 126 124 103 149 175 167 153 145 99 105 124 101 105 109 95 84 88 85 88 93 97 120 120 122 115 113 115 110 109 103 120 133 62 35 74 82 85 138 72 97 79 36 13 62 100 93 85 127 115 100 173 122 32 33 39 46 57 44 35 23 56 87 137 162 163 79 106 168 181 182 183 186 180 166 150 137 135 139 138 137 132 136 123 126 123 115 110 115 127 140 145 122 145 111 148 183 192 184 175 171 132 106 137 113 113 115 103 103 98 93 86 85 86 100 111 108 111 109 116 126 133 131 126 139 51 81 104 114 107 142 89 55 70 24 43 78 106 107 103 124 141 141 173 159 91 38 48 63 52 58 32 35 53 106 135 150 172 90 100 174 180 185 177 174 177 176 174 163 153 158 154 151 145 142 134 135 140 139 142 142 146 138 140 142 139 125 176 187 187 181 176 175 161 109 146 120 128 134 131 129 136 132 135 124 122 121 124 126 134 138 141 145 147 145 134 130 69 94 111 110 114 144 57 78 81 17 79 101 106 105 105 129 161 161 155 154 139 87 73 73 72 60 57 41 82 114 126 151 180 123 119 164 173 180 183 182 185 182 188 182 184 181 177 168 164 163 152 146 150 151 154 152 138 136 139 158 133 149 183 184 181 171 168 179 173 119 139 127 136 149 154 159 163 169 166 168 163 159 154 156 161 161 162 169 165 149 138 123 85 98 115 112 120 138 72 91 102 51 95 107 103 106 105 108 164 153 140 136 117 92 43 90 93 76 84 90 128 131 113 144 177 139 141 168 176 172 180 181 178 177 178 176 173 166 167 163 162 162 158 157 156 161 154 143 136 133 150 135 138 173 182 185 184 176 174 174 175 137 116 139 125 142 155 156 160 157 155 153 149 153 152 160 162 167 173 169 170 158 132 106 102 106 114 114 121 144 77 91 102 90 98 104 103 105 104 122 159 143 115 122 112 93 46 86 99 113 110 116 144 136 125 121 175 174 165 163 182 188 187 176 164 158 167 172 169 166 171 164 161 163 159 157 155 157 149 144 137 148 152 114 167 174 181 183 190 182 183 177 169 156 101 119 132 137 142 151 149 150 150 147 147 149 147 150 152 161 164 163 159 156 122 122 114 107 112 121 126 142 72 92 99 103 101 100 102 103 105 114 154 131 107 102 108 98 62 131 160 148 121 124 143 139 138 102 143 185 164 142 169 179 171 158 155 159 168 173 169 168 162 158 150 154 156 157 157 158 153 139 136 151 124 146 173 172 179 186 190 188 181 181 171 159 134 99 121 139 147 151 152 151 151 147 144 146 144 137 141 150 146 152 150 144 130 136 116 101 113 115 139 128 65 89 102 107 92 101 105 102 105 112 163 141 113 105 113 108 87 187 192 172 129 127 134 140 146 123 116 179 174 137 156 169 158 152 144 147 153 155 148 151 150 151 147 153 152 151 156 151 142 135 144 119 129 170 174 178 181 187 193 191 185 180 180 163 155 123 81 130 150 145 145 148 144 145 143 143 141 141 143 146 142 145 141 142 137 150 102 96 113 118 157 103 69 92 109 101 98 102 99 102 103 96 169 160 129 121 134 129 118 194 189 177 136 123 130 138 144 148 107 162 174 144 150 152 146 148 146 148 146 143 142 142 148 147 151 153 146 144 149 142 136 138 135 112 159 170 177 178 179 188 202 194 187 182 178 165 156 154 89 98 145 140 140 143 144 139 144 136 135 136 138 137 136 137 138 140 138 134 103 98 112 142 158 79 82 103 114 102 92 98 100 101 101 84 170 180 150 138 160 172 159 184 187 169 139 120 124 131 139 154 134 128 181 168 150 147 148 144 146 149 144 146 141 147 144 142 144 147 143 144 148 146 143 125 126 162 172 168 182 174 178 192 206 198 190 183 181 174 161 154 139 104 121 144 132 136 141 139 137 137 133 133 135 137 134 135 131 134 131 130 99 105 136 188 131 73 90 111 114 94 96 99 97 98 101 97 137 186 177 153 162 188 169 165 189 168 137 122 121 128 131 149 157 122 139 181 191 176 173 172 167 161 152 146 145 143 138 137 142 147 167 183 201 173 101 133 172 182 182 174 175 167 177 192 206 199 190 184 181 173 163 152 148 158 149 133 136 137 139 134 136 137 133 132 134 137 141 135 135 135 128 143 109 135 188 160 102 74 100 111 110 91 95 95 98 98 100 84 132 143 180 177 183 162 166 164 184 167 131 125 125 129 126 140 150 140 127 124 140 164 169 186 184 191 190 187 187 190 193 188 199 195 196 187 165 90 85 176 180 183 180 170 164 155 164 179 187 188 183 184 173 170 147 139 139 156 173 164 112 117 144 147 147 145 140 138 138 139 147 150 161 164 162 169 149 143 119 120 102 92 116 112 98 85 91 95 94 96 93 88 122 147 117 180 193 178 152 164 172 165 136 123 128 131 129 130 145 144 133 130 119 105 104 112 117 125 136 143 149 148 137 129 122 118 113 107 105 63 122 171 173 173 171 153 146 139 142 162 172 174 169 171 161 149 126 125 121 136 156 161 131 82 93 109 117 132 143 142 147 151 147 149 148 136 129 117 116 114 121 101 93 120 110 108 93 86 89 94 92 96 93 101 95 167 147 161 174 184 194 167 148 149 137 126 129 131 130 126 140 144 138 138 130 111 101 106 104 103 102 105 106 108 106 102 101 101 101 97 94 74 123 153 147 148 137 119 114 117 118 135 152 156 151 149 142 125 109 106 103 112 126 131 131 84 83 88 91 94 92 98 99 102 96 97 99 92 107 114 116 117 116 93 99 130 111 106 89 81 87 90 86 93 90 107 97 131 181 168 161 151 169 150 107 132 135 126 128 138 133 124 128 143 141 141 135 119 101 105 107 102 104 103 103 102 104 101 107 102 98 94 88 86 120 122 117 113 96 80 61 73 87 106 120 127 122 122 110 100 83 68 73 87 100 106 110 84 81 83 97 94 95 104 105 105 104 103 102 101 114 113 117 117 105 129 124 137 116 107 84 74 90 85 86 87 88 108 105 104 157 158 151 140 135 142 126 114 127 124 126 136 141 126 117 141 141 141 135 123 102 102 99 100 103 100 109 101 109 103 108 101 96 88 89 106 135 115 93 84 66 63 42 42 57 87 89 97 92 94 92 73 49 37 59 60 81 91 100 92 90 85 90 92 105 109 114 112 115 114 110 113 116 107 121 117 99 122 127 121 130 97 69 80 80 84 85 85 93 105 107 94 124 128 137 157 158 161 167 142 121 117 128 136 141 134 119 129 141 143 133 125 101 101 96 97 100 105 105 112 108 108 100 105 94 99 102 129 152 142 91 65 62 73 58 68 61 73 80 84 85 76 89 75 76 71 66 61 74 102 97 100 96 100 87 89 101 109 117 116 116 115 112 116 111 106 114 112 98 117 108 118 117 89 70 78 81 81 76 84 81 107 105 105 105 104 142 159 149 161 168 145 117 112 124 136 138 134 129 125 132 142 133 122 111 100 100 96 104 106 114 114 118 109 107 106 109 115 130 150 158 149 108 80 76 74 73 78 81 75 73 78 75 76 86 97 87 89 81 86 89 99 98 102 98 110 96 87 95 111 113 119 119 113 115 113 111 103 112 107 106 119 115 105 99 71 73 71 77 77 78 81 84 106 108 103 105 101 103 130 120 130 130 112 71 110 124 135 135 137 135 124 124 139 139 125 113 102 106 104 114 114 121 121 120 115 120 118 126 139 147 156 159 148 135 99 96 83 94 95 98 91 77 74 71 73 89 94 94 92 93 95 93 92 95 105 103 112 109 99 88 100 107 118 119 113 112 114 107 103 112 104 103 116 109 93 72 71 71 75 71 76 75 78 79 103 109 108 102 105 104 107 104 98 97 92 25 80 129 132 132 138 141 129 124 135 139 130 116 111 115 114 122 123 130 130 127 123 131 132 143 155 152 154 154 151 144 127 119 117 121 119 114 98 83 80 81 87 88 99 102 103 101 97 91 94 94 103 100 110 112 117 92 91 102 116 117 121 113 114 101 107 115 107 83 95 79 70 68 67 68 75 71 70 77 74 78 106 102 108 103 106 106 105 107 106 105 110 62 49 126 129 128 139 143 133 129 133 138 133 122 124 122 126 132 133 139 137 130 131 141 143 151 157 154 153 151 155 147 142 136 136 133 143 129 115 103 96 98 105 98 105 104 104 103 99 102 99 93 95 103 102 109 120 103 81 89 117 117 124 116 114 100 110 114 105 66 65 63 69 65 65 66 71 69 71 73 72 77 107 104 103 107 105 108 108 105 106 106 108 106 21 116 129 135 138 142 136 130 133 136 138 125 132 135 133 141 147 148 136 128 138 147 151 153 149 155 153 152 149 150 144 140 140 133 147 145 140 134 119 115 110 114 104 109 108 103 104 104 104 96 95 103 97 106 116 113 86 82 113 123 121 119 111 100 111 114 106 57 59 63 66 69 63 69 69 69 66 69 71 77 103 103 108 105 102 108 105 104 107 108 105 114 46 93 128 132 134 144 140 133 132 136 139 131 139 143 143 152 151 152 128 134 146 151 147 148 146 151 146 154 146 149 154 147 139 147 150 151 154 150 140 132 117 113 114 116 114 105 100 108 99 107 96 104 99 104 110 114 101 82 116 126 124 119 103 109 111 116 96 57 53 70 54 70 57 66 67 57 73 66 68 69 107 104 105 103 103 107 104 106 104 108 106 108 84 85 127 130 136 141 146 132 135 134 144 135 146 147 148 154 157 148 129 140 148 146 144 145 146 145 148 144 152 148 160 156 156 151 156 160 159 159 155 150 139 127 119 121 118 109 105 112 109 106 105 107 102 105 104 115 109 89 122 133 131 116 104 114 113 122 88 49 61 61 65 61 64 66 62 62 68 70 68 65 103 105 104 106 101 109 107 101 109 104 105 107 95 94 117 130 138 139 146 137 136 135 145 144 141 156 150 155 154 142 141 147 142 142 141 143 146 151 147 145 152 151 153 156 159 156 157 153 156 155 158 159 157 142 130 124 120 113 111 117 114 108 106 109 109 108 106 115 114 91 132 138 134 113 111 118 115 119 84 45 61 61 64 57 67 60 56 69 63 67 66 62 105 104 101 103 106 103 105 105 107 103 106 109 100 100 118 132 138 140 137 142 138 138 149 149 140 156 153 151 151 136 145 154 140 139 141 143 143 150 141 133 140 141 137 128 137 136 137 135 138 141 145 157 152 139 119 109 105 100 99 103 106 91 99 111 111 109 111 116 118 97 133 146 133 112 115 122 114 117 69 54 55 63 56 62 58 62 60 64 65 63 65 71 103 105 104 102 104 102 103 103 106 105 104 102 104 104 113 132 136 140 137 146 139 142 148 152 142 152 156 146 148 139 150 151 138 129 134 134 126 124 110 106 104 107 103 95 98 101 98 99 97 109 116 133 125 112 85 81 75 75 72 75 71 65 77 87 100 104 111 119 125 96 137 150 129 113 116 125 105 118 59 55 62 58 57 61 58 59 62 57 68 58 67 63 102 105 102 104 104 102 106 105 103 103 106 105 103 100 126 122 135 135 140 140 138 141 147 155 146 154 155 146 150 141 154 148 135 123 114 103 92 80 69 63 69 80 74 75 89 72 73 71 78 70 70 83 87 76 68 59 79 55 68 71 50 40 36 48 64 87 108 124 123 103 140 152 126 110 125 119 113 104 53 58 57 58 62 56 62 60 61 60 58 59 62 63 104 104 100 105 101 106 102 104 103 108 102 108 102 106 120 124 129 139 137 140 141 138 141 157 155 147 154 148 147 150 154 150 132 128 102 73 50 27 39 65 70 99 87 100 123 101 77 105 109 99 71 85 106 117 98 84 123 92 100 108 63 31 28 21 35 76 106 124 120 113 151 148 119 115 125 116 115 98 51 57 59 57 56 57 61 54 63 58 59 60 62 65 101 104 102 104 104 102 105 104 102 104 105 106 107 97 128 117 127 134 133 138 139 137 140 153 156 141 150 146 146 151 157 148 140 137 122 98 61 37 33 68 79 115 104 126 153 138 113 131 136 132 106 124 142 146 132 122 141 121 119 113 72 31 35 39 56 87 110 126 113 124 154 143 109 118 124 110 119 78 47 58 57 58 56 57 59 56 56 61 60 60 60 57 104 105 101 106 101 103 102 105 103 104 106 102 104 100 119 126 126 127 133 138 138 140 141 146 158 141 146 150 145 155 159 150 141 138 142 138 115 87 67 78 65 114 104 88 129 96 111 143 147 144 127 142 147 152 128 115 124 81 98 90 35 47 59 71 92 103 122 123 111 140 155 134 107 121 117 112 113 65 54 56 58 56 59 53 60 56 60 56 58 61 57 56 100 103 102 105 100 104 104 104 104 103 104 103 107 98 118 132 118 128 128 135 133 137 135 147 154 143 139 146 145 155 156 152 139 142 152 153 147 130 113 105 92 102 106 71 79 44 62 100 104 102 87 103 99 100 74 46 54 33 48 56 56 78 78 94 114 111 126 117 122 146 152 128 108 119 115 112 107 48 55 54 57 59 54 55 59 53 63 56 56 59 55 55 99 103 101 103 103 101 104 103 102 102 101 103 109 98 105 143 118 117 125 133 132 133 136 144 157 144 140 143 143 154 150 156 145 151 150 159 154 143 137 126 113 123 119 128 138 116 103 96 85 71 60 59 63 66 66 61 68 77 78 85 89 90 90 105 122 119 120 116 135 150 147 111 120 120 115 112 82 43 57 57 57 54 58 57 59 55 58 58 60 54 59 57 97 106 100 102 104 103 102 105 102 106 105 102 104 97 110 141 123 110 122 125 131 133 126 141 154 144 136 144 143 148 152 154 152 155 153 157 158 151 140 136 119 125 121 130 169 162 142 130 121 121 117 110 116 110 107 108 101 102 100 100 94 96 100 118 126 120 119 119 136 155 129 111 120 117 108 110 67 49 51 61 54 60 57 53 62 53 55 60 56 60 55 60 101 99 102 99 104 100 107 104 100 107 101 108 104 102 108 143 137 107 120 123 122 127 128 134 138 140 136 136 141 148 154 154 159 159 157 159 157 158 144 140 130 124 115 115 123 138 132 116 122 126 125 126 126 123 122 132 118 104 100 102 100 104 113 121 126 125 122 126 139 148 120 117 118 116 109 96 46 57 57 55 57 55 59 52 57 57 58 54 54 59 56 59 99 101 102 98 103 104 103 100 103 102 105 106 103 100 106 144 147 118 108 121 119 122 123 129 125 141 136 130 135 147 151 150 154 164 159 161 155 159 144 138 134 126 122 117 109 118 117 117 115 120 126 127 125 120 122 122 110 105 104 108 107 107 120 127 124 124 126 131 144 141 109 115 116 113 109 68 50 56 58 53 56 55 60 50 60 53 58 57 55 60 56 59 100 103 101 102 99 104 103 102 101 104 104 104 104 99 104 142 147 130 102 117 116 117 123 120 122 129 133 127 125 141 154 153 154 167 158 163 156 150 142 135 132 127 125 127 119 116 118 121 114 121 122 125 118 116 117 106 106 108 107 110 109 107 121 123 125 125 128 136 141 125 113 113 117 112 101 47 55 51 58 54 54 57 52 61 52 63 53 57 56 55 63 51 102 102 100 102 99 104 104 101 103 102 105 100 105 101 105 138 143 148 105 111 113 120 119 122 119 123 134 126 120 136 152 152 160 165 164 158 155 146 140 133 129 132 122 121 114 113 113 115 111 110 119 118 110 105 106 108 98 106 103 104 110 114 116 123 126 125 132 138 134 113 111 113 112 109 70 53 53 54 53 56 57 51 58 55 57 55 58 56 57 58 57 57 99 101 100 101 98 101 102 100 104 101 101 104 105 99 111 138 139 153 125 97 114 117 117 117 122 119 134 130 122 132 142 152 160 164 164 159 152 147 141 135 130 132 126 119 111 107 104 103 96 101 98 99 94 93 98 95 96 99 102 107 109 112 111 122 131 132 138 141 134 108 116 110 108 101 48 58 54 57 51 53 56 59 55 56 55 59 55 54 56 55 58 55 94 96 100 99 97 102 103 101 105 100 104 103 103 100 105 147 145 148 145 99 105 112 122 116 122 121 130 140 126 133 146 141 158 162 168 163 156 143 144 139 135 132 129 122 109 110 103 99 100 102 96 94 91 94 99 98 99 97 105 107 109 110 112 127 137 139 151 138 124 108 115 105 111 76 42 60 50 57 56 52 55 52 56 53 54 56 61 49 59 57 55 55 100 100 100 99 105 100 103 101 105 97 103 104 103 98 110 136 143 148 152 123 96 109 117 119 123 126 134 136 134 131 144 141 143 152 158 167 161 153 149 142 141 134 139 136 120 114 107 109 104 98 97 94 94 92 101 100 101 100 111 108 111 111 117 137 148 142 142 137 117 106 108 111 99 54 49 57 52 54 48 59 54 52 57 51 57 55 54 60 50 58 57 53 102 101 96 102 104 96 102 101 99 98 105 104 102 101 101 140 140 148 148 150 94 101 107 117 119 120 127 135 135 128 137 148 136 137 144 156 165 155 155 153 150 145 150 146 140 131 122 120 110 109 100 102 101 104 107 108 111 109 113 110 117 108 136 148 154 136 133 131 108 105 105 104 80 47 54 55 57 50 55 54 56 56 52 56 57 53 60 52 57 54 56 57 98 101 99 98 99 101 101 101 102 104 99 105 99 97 106 136 145 145 146 154 118 93 101 115 116 117 126 131 141 121 133 146 139 133 136 142 162 160 161 157 161 158 159 151 148 142 137 132 130 129 119 126 123 121 120 119 125 121 124 114 122 121 153 156 151 135 126 114 104 101 103 97 53 53 53 52 53 57 52 54 52 56 56 57 55 53 59 49 58 55 56 57 99 101 96 103 101 102 100 103 100 103 101 105 97 101 99 139 144 140 143 147 138 100 91 107 119 117 120 132 137 120 123 134 137 142 140 135 151 162 162 163 159 162 157 152 153 147 148 152 148 146 137 142 136 135 131 130 134 136 131 129 127 143 159 156 150 137 118 106 94 100 101 69 52 51 55 47 57 52 54 54 53 56 53 57 57 52 53 52 56 52 57 58 102 98 99 97 102 99 100 96 101 100 101 100 105 98 101 134 147 143 140 145 145 116 90 103 107 117 115 126 132 118 111 137 122 145 147 131 136 154 168 161 152 155 153 156 158 157 158 161 156 145 144 146 143 143 141 141 146 142 141 137 137 162 161 157 154 127 113 94 87 98 89 45 51 57 48 56 53 53 55 53 51 54 53 56 49 54 60 48 60 49 57 55 102 99 97 104 99 102 98 103 101 103 104 101 103 100 93 137 144 149 140 138 146 130 101 91 95 111 116 107 125 116 103 129 126 132 142 135 132 144 167 164 161 161 160 164 163 162 162 159 157 148 149 153 153 151 148 146 149 146 146 136 153 165 159 157 146 120 99 88 85 101 78 44 59 52 55 49 56 50 58 52 53 56 53 54 56 52 54 51 56 48 53 57 102 98 99 98 102 99 100 101 102 101 103 107 98 101 99 133 142 145 142 142 148 138 110 93 86 93 102 102 113 115 97 112 128 127 138 140 140 144 157 161 167 164 159 161 167 168 161 154 157 157 152 159 152 157 150 156 158 155 148 152 165 165 153 142 134 105 95 71 87 115 59 50 51 54 55 51 58 52 51 52 54 53 56 53 54 51 58 50 57 52 53 56 98 100 101 98 101 102 101 99 103 99 102 102 100 86 139 141 143 144 142 144 146 144 118 100 90 83 87 91 98 112 91 99 113 128 135 125 134 142 148 156 168 162 164 158 170 161 156 146 149 147 149 153 151 155 160 161 167 158 159 158 167 158 142 136 116 104 74 78 106 117 55 51 51 52 55 54 53 55 54 50 55 54 53 54 54 50 57 53 52 55 51 58 94 96 98 100 98 104 95 102 100 99 103 100 95 93 209 161 140 143 146 143 143 145 128 109 97 84 81 81 83 97 98 88 99 116 142 114 125 135 137 150 164 160 159 160 164 157 142 140 132 133 131 139 148 149 151 151 158 153 153 157 150 140 132 120 105 87 73 104 98 130 79 41 55 52 52 55 52 52 51 56 53 52 55 53 53 50 57 53 51 55 48 58 100 101 98 99 98 100 99 100 99 99 101 102 74 155 231 154 135 142 144 150 144 144 139 113 100 89 86 84 82 84 96 89 82 106 117 117 118 130 129 141 153 153 152 154 148 143 133 129 125 119 111 121 131 136 139 142 144 141 144 141 131 126 114 101 92 76 95 108 99 120 155 50 48 48 55 55 52 52 51 51 50 55 52 57 49 54 54 52 55 51 54 53 98 97 99 99 100 96 99 101 97 105 104 85 91 217 212 133 138 138 145 146 144 141 137 129 105 95 89 86 88 82 88 80 81 84 98 111 115 122 118 123 140 141 142 140 135 126 127 120 116 106 108 117 116 121 132 129 132 128 129 118 116 112 95 90 67 91 105 112 103 86 187 95 40 48 51 53 52 52 53 53 53 51 52 55 51 52 51 53 53 52 56 51 98 100 98 98 98 97 98 100 103 101 102 74 157 232 169 122 138 145 144 145 141 140 140 126 119 96 93 92 87 87 84 79 72 75 83 90 109 107 109 107 114 120 126 124 122 121 120 113 107 106 115 116 118 113 118 113 119 111 102 100 97 93 77 72 85 96 104 112 108 64 174 160 37 51 48 57 49 50 52 51 52 53 54 51 55 48 55 51 51 53 56 49 96 101 98 100 98 98 102 95 104 101 90 75 217 227 116 125 145 146 142 144 144 143 142 133 123 109 93 94 88 88 85 80 77 73 73 76 91 89 91 91 98 103 110 102 107 110 103 103 101 109 108 110 109 104 105 100 96 95 88 87 78 76 72 84 101 100 110 112 105 48 166 192 54 41 50 52 55 52 51 53 55 53 50 53 49 52 53 53 51 53 57 53 96 100 96 100 96 101 98 101 102 110 49 114 238 205 81 120 148 148 143 145 145 144 140 141 127 121 99 99 87 92 90 84 87 73 77 70 72 77 79 78 86 86 89 80 91 92 87 88 94 98 96 93 90 85 82 80 78 72 74 73 71 75 89 105 105 111 111 118 105 30 165 192 102 20 42 56 54 47 55 51 54 53 49 54 53 46 59 49 54 44 57 52 99 100 97 99 100 99 103 94 91 95 20 167 237 186 44 126 148 150 145 149 147 146 145 140 134 128 118 105 90 95 90 90 82 87 80 81 67 69 67 75 64 75 68 65 75 73 68 74 77 78 76 72 74 70 69 61 71 67 68 68 83 90 105 107 111 113 112 122 103 23 166 179 154 24 24 49 48 49 56 47 57 46 50 55 49 52 52 51 57 49 54 47 98 101 96 97 98 97 90 74 62 69 44 205 236 166 27 119 153 152 149 148 148 147 147 145 140 141 130 120 102 96 91 94 83 89 87 82 78 76 67 68 66 63 66 55 63 68 67 59 63 65 63 63 63 66 63 59 68 78 86 89 98 106 109 112 112 112 114 121 94 22 172 176 181 38 30 33 38 44 50 51 51 50 47 56 50 54 47 51 54 48 53 53 97 96 95 99 96 87 78 46 65 40 75 218 232 153 10 125 157 151 154 151 149 147 150 150 147 145 142 131 118 105 100 91 94 89 90 83 84 79 81 73 78 69 66 65 69 72 67 66 65 68 66 64 63 67 67 72 84 96 99 101 106 110 107 115 114 109 113 126 66 29 173 172 190 67 24 29 37 34 42 46 50 53 53 56 47 51 51 51 55 47 57 55 