P2
92
112
255
111 110 114 111 110 114 116 112 110 115 112 117 109 113 100 74 52 54 65 62 73 76 60 71 81 77 64 58 62 58 67 71 81 84 69 56 57 44 46 73 63 65 69 64 64 53 57 57 51 46 42 62 41 26 30 40 22 26 27 27 21 27 60 37 95 80 87 99 111 102 106 109 111 108 114 108 110 112 112 112 112 106 113 110 111 109 114 110 111 114 110 114 113 108 109 112 112 108 114 108 112 115 111 113 112 100 65 40 47 51 61 63 72 79 71 70 72 65 44 44 53 67 77 81 84 80 75 65 57 52 37 43 48 61 63 71 73 65 52 53 51 59 39 40 52 43 30 33 39 32 16 28 16 24 34 33 76 73 92 103 102 102 98 109 103 106 107 106 113 110 113 112 112 107 108 113 111 112 111 111 114 109 114 110 112 112 112 112 112 111 115 108 114 111 112 108 84 52 36 42 45 45 61 66 72 84 85 72 66 61 49 52 61 69 74 82 93 81 82 67 61 53 53 40 31 44 55 77 66 53 62 56 43 55 55 44 36 53 45 34 38 40 34 25 20 32 22 31 48 58 88 95 94 96 98 105 98 105 101 99 105 111 108 110 110 108 111 114 112 110 112 114 113 113 112 112 111 111 114 111 116 108 114 114 109 118 108 73 38 28 30 41 41 41 49 55 67 82 74 66 59 51 56 60 70 76 74 71 81 81 83 70 69 63 61 64 51 54 44 55 64 58 43 53 55 33 45 45 46 32 44 43 37 48 42 42 32 28 20 29 21 62 90 82 88 88 82 81 72 69 79 85 84 101 106 110 109 110 112 111 112 107 116 111 113 112 114 110 113 111 111 114 113 111 112 111 115 107 73 26 32 29 38 41 35 41 40 54 63 59 53 41 51 40 57 60 49 68 84 84 78 76 76 79 62 52 72 58 46 54 62 75 69 44 53 47 43 38 38 37 43 42 27 54 40 38 46 33 43 38 20 29 16 51 74 83 72 80 79 88 95 92 85 89 85 84 97 111 109 112 115 111 113 110 112 110 113 114 111 111 112 109 114 112 111 114 112 112 111 85 40 21 37 37 41 40 35 34 48 42 57 41 44 34 40 38 51 51 62 64 73 82 80 84 79 84 75 66 55 54 60 53 48 42 61 75 53 44 39 43 35 44 38 34 40 40 48 44 42 49 35 40 35 35 18 39 65 63 61 76 82 76 76 83 90 99 92 87 90 99 108 113 109 114 107 114 113 110 112 113 111 114 115 111 113 112 112 111 117 114 98 49 37 34 35 41 30 40 44 36 42 54 54 57 47 48 47 46 49 56 64 77 86 85 82 72 71 71 73 77 70 64 47 60 46 42 47 35 55 47 40 51 50 42 39 36 30 33 45 50 47 49 50 30 36 39 26 29 44 28 42 40 35 47 39 34 51 89 95 91 87 87 104 110 105 110 107 111 109 113 110 111 112 112 113 114 112 114 112 112 120 108 70 37 40 27 33 28 44 45 57 50 49 49 45 48 46 51 47 57 52 54 55 71 73 84 78 79 67 63 62 63 61 60 55 66 41 48 42 34 45 41 40 38 42 40 49 43 28 32 47 36 38 48 51 35 30 35 25 28 36 26 31 27 32 38 36 29 34 55 76 96 81 91 88 102 113 110 107 114 112 115 111 111 113 108 111 114 110 114 110 114 116 81 49 36 33 29 38 43 53 48 37 36 32 28 26 30 33 38 33 50 48 63 59 76 72 69 58 59 44 53 48 50 50 54 57 46 47 53 42 53 42 40 38 49 40 40 37 44 39 38 47 26 29 39 53 42 28 39 23 17 33 49 26 26 43 34 36 28 35 21 35 49 70 83 91 96 106 110 109 110 115 111 113 113 113 111 111 113 112 112 116 117 98 59 33 33 36 38 38 47 52 45 43 29 31 37 34 41 38 37 40 46 52 49 59 64 68 77 79 69 58 45 32 31 31 31 36 46 45 39 47 46 51 53 42 42 45 38 41 36 38 49 41 36 26 31 51 50 41 33 27 28 14 45 38 39 51 40 37 30 31 25 29 32 40 58 75 91 103 108 107 111 111 112 113 110 113 114 115 110 115 111 115 97 74 34 30 41 33 36 45 54 55 58 49 44 49 42 40 30 33 30 43 55 55 52 41 43 59 62 54 65 56 54 43 44 45 34 33 30 28 35 32 46 36 43 48 45 46 42 38 42 33 39 41 34 40 26 35 42 45 38 31 25 19 19 50 49 49 35 35 34 35 35 32 35 41 39 55 66 78 105 111 110 111 114 110 110 112 113 111 113 113 110 87 73 48 33 38 39 35 40 36 45 42 41 41 41 38 38 35 37 38 35 50 45 40 53 53 71 65 67 57 54 41 43 39 48 42 39 37 32 27 26 29 35 27 32 29 34 35 32 38 35 32 40 35 37 27 39 29 28 44 37 40 30 25 20 40 44 45 38 39 36 34 44 36 43 46 35 49 57 50 80 105 108 110 113 112 113 110 111 112 113 113 82 55 70 40 40 34 41 30 37 27 34 30 29 44 31 35 34 31 37 31 40 41 45 54 75 86 78 73 65 63 57 42 44 39 35 33 37 31 32 28 27 30 25 27 29 30 32 31 29 34 34 29 33 31 31 28 35 27 25 42 22 35 39 31 24 20 39 45 43 30 42 35 45 44 49 40 28 29 56 49 69 76 96 106 111 114 109 111 112 116 116 71 60 56 68 39 45 35 33 17 32 26 28 31 28 31 36 32 34 32 32 37 33 40 39 46 46 56 65 67 63 49 39 42 36 37 29 38 35 30 28 26 26 32 48 43 53 40 34 44 46 39 35 28 30 30 25 24 26 27 26 23 31 31 29 31 37 15 31 39 42 41 52 40 42 46 53 34 27 23 34 47 48 86 86 91 111 110 112 111 111 120 82 47 53 65 61 44 44 26 25 25 36 30 28 27 31 41 37 29 36 33 29 37 26 43 35 41 56 72 81 78 79 63 55 58 45 33 37 33 23 28 30 45 57 64 51 43 39 48 35 44 36 34 34 35 35 37 32 35 42 36 28 29 38 44 17 25 36 19 36 37 46 46 53 43 46 55 47 38 32 24 25 34 49 47 87 93 108 107 113 111 112 95 58 51 58 75 53 44 38 26 33 36 31 35 30 32 35 49 33 30 32 30 34 31 34 43 36 47 63 67 81 87 87 68 67 49 43 44 43 46 39 41 59 69 63 48 42 38 33 36 37 51 45 39 38 37 49 50 53 60 66 59 55 48 57 56 30 21 32 26 40 32 41 53 52 43 56 54 46 28 33 38 31 29 40 51 60 94 104 111 110 111 115 55 51 48 75 62 59 36 36 36 33 40 32 39 33 37 37 40 35 24 38 30 28 41 41 49 38 54 60 63 61 65 69 58 50 44 41 43 42 53 62 68 70 56 44 45 37 33 40 31 40 40 35 50 49 59 67 81 90 91 93 88 87 80 79 73 48 26 31 32 39 33 33 56 49 50 53 47 41 29 34 40 45 30 30 47 61 68 100 107 108 113 114 36 43 66 69 51 52 36 38 35 33 32 39 29 28 29 37 28 29 29 36 26 24 39 39 35 30 32 43 41 68 75 65 63 34 44 32 35 53 83 76 60 53 41 36 45 40 44 45 44 42 44 39 56 75 89 95 104 114 106 113 114 110 114 104 92 64 47 40 35 47 47 25 46 46 47 48 38 31 39 39 31 46 42 33 35 63 65 81 106 113 109 113 34 57 62 49 60 42 40 32 31 29 35 28 31 32 29 32 30 24 28 29 29 33 28 21 31 32 31 44 52 70 83 54 54 40 37 43 53 53 47 37 31 42 38 48 61 57 52 43 44 40 48 54 83 106 114 119 120 128 118 122 123 120 129 121 112 72 73 56 50 41 69 30 30 36 42 32 27 28 37 48 36 37 39 46 39 50 59 65 98 110 112 109 41 67 42 44 51 39 31 29 28 28 32 21 31 33 35 27 29 24 35 27 33 27 23 25 44 38 54 50 51 78 72 60 51 44 41 43 44 37 45 51 57 66 63 59 52 47 43 40 36 51 62 82 101 114 124 126 134 132 126 126 132 135 138 128 121 89 90 69 64 49 61 47 29 27 38 29 16 33 38 51 51 40 29 47 57 33 52 60 81 107 111 111 50 64 31 51 41 36 26 33 27 33 21 26 29 37 29 23 31 24 30 30 26 29 22 32 37 34 44 36 44 59 57 46 53 49 44 41 35 41 55 77 76 54 50 53 45 47 43 43 50 67 90 99 111 124 128 134 141 136 139 136 140 146 145 134 128 105 96 88 61 66 59 46 36 40 31 26 21 25 47 49 62 51 30 36 51 47 38 53 70 102 109 113 58 52 34 38 37 44 32 31 27 29 24 29 27 33 23 32 26 31 27 34 24 27 26 29 31 31 33 34 44 49 52 56 50 45 38 27 38 50 60 62 64 52 44 51 48 55 37 50 72 95 109 117 123 130 136 136 146 148 142 151 148 158 152 142 132 117 106 96 65 74 82 54 39 51 37 21 21 27 51 58 63 69 25 32 43 43 37 42 55 90 111 113 67 40 30 34 44 34 35 26 27 24 23 33 32 34 21 35 24 31 34 32 22 21 28 23 32 31 32 40 43 42 56 58 51 38 33 40 50 65 65 69 56 64 47 50 60 61 38 79 94 109 117 121 126 140 139 140 144 146 154 150 158 162 159 152 139 121 106 91 80 89 99 72 42 52 44 26 30 40 41 57 60 65 32 37 35 36 45 34 46 84 106 113 51 40 31 39 30 31 25 23 26 30 23 31 32 27 28 26 26 30 26 30 21 23 26 26 30 33 40 41 47 50 58 60 50 41 39 48 54 69 68 71 67 68 61 67 73 56 74 98 109 118 119 132 140 136 146 138 141 149 161 157 158 155 160 139 132 108 94 113 94 96 109 78 53 63 43 35 40 57 34 54 44 69 40 31 33 32 40 38 34 78 100 107 43 29 43 36 36 28 26 26 26 25 27 28 26 32 27 23 30 26 32 26 21 27 30 20 31 38 46 46 49 63 56 58 41 45 52 59 71 65 79 74 81 75 79 74 77 78 100 110 116 121 128 136 139 138 146 144 143 156 160 160 158 148 139 124 114 108 119 131 98 100 116 89 50 72 37 35 42 72 36 51 38 61 43 36 26 29 31 36 36 30 101 101 25 39 34 33 36 27 25 30 24 31 25 31 23 30 25 25 23 35 38 21 25 25 26 25 41 43 55 50 58 59 58 48 55 67 75 71 81 84 89 87 86 90 85 85 90 105 116 123 118 125 128 140 141 143 142 146 148 158 156 162 167 154 135 125 132 130 134 128 104 111 115 106 47 72 55 26 45 64 40 48 41 53 41 35 33 28 30 27 35 20 63 115 29 30 34 33 37 28 24 28 25 28 22 28 24 29 24 27 28 43 45 25 24 21 21 32 38 52 55 54 60 58 63 59 80 80 88 87 98 98 95 93 99 92 95 96 105 117 121 127 125 130 133 138 139 148 145 145 155 156 161 165 170 169 155 142 141 141 139 131 113 115 114 100 41 75 64 36 38 53 46 39 44 44 43 33 34 32 27 26 28 34 22 108 29 24 45 24 40 29 26 32 16 28 22 30 26 27 30 28 25 64 64 29 21 24 25 35 45 57 56 60 62 70 67 84 88 95 101 99 104 104 99 94 102 102 105 108 116 124 129 128 129 130 137 139 143 144 150 151 152 157 161 165 170 171 164 159 146 137 141 136 134 119 124 101 50 63 76 45 33 46 44 41 46 34 41 29 32 32 29 18 26 35 14 58 34 28 35 27 37 32 28 21 25 20 21 29 30 30 33 27 41 71 83 43 29 28 25 42 53 57 59 64 78 77 88 98 103 107 106 106 107 106 94 106 91 108 120 113 123 131 132 135 134 135 134 145 143 147 151 150 154 160 167 161 172 167 159 161 158 142 138 147 152 137 124 114 50 52 77 54 42 34 49 45 39 41 23 28 31 31 30 21 24 34 16 40 31 31 29 28 40 36 28 23 21 24 17 20 30 30 33 38 51 81 99 68 33 23 33 48 53 61 73 77 92 100 99 106 114 108 108 113 105 102 98 103 102 128 129 133 129 134 134 136 137 137 131 140 145 144 153 149 155 162 164 165 171 172 164 165 158 146 143 148 153 149 115 124 66 38 79 55 44 41 43 44 39 43 17 26 29 26 27 22 24 27 19 33 28 29 30 30 28 52 24 24 19 21 22 23 30 30 30 49 72 84 122 99 30 41 48 58 64 74 86 90 101 104 110 113 113 111 117 122 101 97 103 118 128 139 131 138 135 132 133 136 142 138 139 139 148 147 153 159 158 165 165 171 177 174 169 171 162 154 153 148 153 148 124 116 87 28 71 63 48 36 46 45 40 36 25 21 22 28 21 22 31 22 27 16 27 24 28 33 33 26 28 18 25 28 26 28 28 32 41 60 72 106 154 101 54 61 69 76 85 92 97 100 107 111 114 116 123 122 119 109 90 108 129 135 137 137 138 135 144 133 135 134 139 139 141 141 145 152 155 164 165 171 172 176 175 173 171 171 165 165 164 163 156 152 138 118 100 38 68 64 53 37 39 38 42 32 32 23 22 24 22 25 24 25 20 8 29 23 23 39 34 26 25 20 30 32 25 32 27 38 50 73 97 131 159 116 99 86 89 96 99 102 104 104 108 115 121 124 128 122 115 103 124 130 138 133 136 133 138 134 145 135 132 133 132 138 145 149 151 160 163 169 170 174 178 177 180 177 177 174 168 164 165 164 165 160 143 127 107 50 68 66 52 44 38 34 34 36 30 24 18 28 25 24 24 24 25 12 25 24 26 30 29 30 26 29 28 37 26 28 40 48 60 89 115 147 161 145 132 118 124 119 115 109 112 118 121 127 136 137 142 141 136 133 139 139 134 128 127 131 132 131 140 139 132 136 140 145 154 156 162 164 174 175 173 180 180 178 179 179 177 179 173 168 167 166 168 166 150 132 114 73 63 81 54 46 35 29 34 39 36 24 20 24 25 23 21 27 22 19 26 35 29 33 30 30 25 34 30 28 39 32 51 58 81 104 122 153 166 161 160 160 155 148 140 148 140 152 156 156 164 164 172 169 168 170 167 157 155 151 144 146 143 145 139 144 139 147 155 161 169 169 173 178 182 184 180 184 183 184 183 180 179 180 174 168 168 167 165 166 154 141 123 99 80 79 68 41 33 29 39 40 33 33 19 21 17 23 18 29 24 24 26 33 31 33 30 31 36 36 26 34 44 41 51 69 98 112 135 152 164 157 169 174 174 172 172 180 179 178 181 180 182 185 189 193 193 192 190 182 186 184 170 166 161 151 154 154 161 164 174 178 181 183 184 185 187 186 186 188 189 185 190 183 178 180 174 168 165 165 163 162 159 143 130 117 101 81 68 50 32 31 34 50 26 32 27 27 19 15 20 21 25 16 26 26 36 31 34 26 20 32 38 32 49 40 65 71 106 123 137 156 156 161 166 172 179 180 185 186 187 182 184 186 187 196 195 194 200 199 199 190 183 178 174 174 172 175 171 170 175 182 181 191 192 191 189 187 187 186 184 186 184 185 186 183 178 178 172 165 164 163 163 161 153 145 132 116 115 86 70 54 30 37 28 39 37 20 36 23 19 20 20 19 24 9 31 21 36 27 30 28 24 37 38 32 45 47 63 79 115 124 143 157 159 156 166 169 179 185 188 191 189 186 185 186 185 190 192 191 198 197 199 196 187 185 185 188 183 183 186 181 179 188 185 191 195 187 185 186 186 184 181 184 182 185 181 180 174 178 165 148 168 170 165 162 155 147 134 115 114 107 74 53 42 31 33 29 37 21 15 35 23 22 17 19 23 7 30 23 31 27 31 35 34 37 44 32 47 46 67 84 116 130 145 156 158 152 167 169 178 183 188 188 188 185 180 181 182 182 184 184 189 193 190 188 189 184 187 181 183 184 187 180 179 187 188 188 192 187 180 181 182 182 179 175 176 180 176 177 171 165 163 144 158 169 166 165 163 150 136 121 117 113 94 51 43 26 34 29 27 29 14 23 27 21 24 15 18 17 27 26 27 30 36 34 39 39 45 35 44 51 66 92 123 134 150 154 159 149 163 173 182 182 178 180 176 177 177 174 174 174 171 176 178 180 180 180 176 175 178 176 166 176 178 179 178 180 184 181 184 181 174 170 169 163 167 168 166 168 165 162 158 148 149 142 148 149 155 150 165 155 145 124 120 118 102 69 40 29 33 30 19 27 19 16 19 31 20 22 18 19 20 24 34 30 36 36 40 41 31 35 41 49 74 101 123 142 151 157 156 151 163 172 179 165 145 136 143 147 157 162 152 146 144 145 145 134 137 143 137 153 154 154 151 156 164 166 169 170 172 168 173 176 162 160 145 148 143 144 136 124 122 124 120 115 118 112 113 116 119 120 144 158 145 131 120 118 108 77 42 32 21 32 19 22 19 23 16 23 24 30 13 13 20 26 34 31 32 35 47 39 28 34 42 40 69 106 133 142 151 159 148 154 150 146 132 109 111 104 105 105 116 120 112 104 98 104 101 90 81 77 97 111 137 119 121 124 146 158 156 162 157 158 160 158 143 129 122 105 98 89 88 73 76 79 77 65 79 71 68 73 80 86 103 121 134 131 115 117 112 96 42 29 27 31 24 21 22 17 16 23 23 27 28 3 28 29 27 35 36 35 57 36 25 36 40 44 58 112 137 143 148 160 140 124 114 99 84 66 76 75 81 75 70 72 74 67 60 57 69 54 46 53 65 79 112 100 92 90 125 135 150 155 148 139 146 142 120 101 82 69 69 53 67 68 62 51 44 46 54 42 52 49 60 60 67 79 77 95 103 111 114 105 49 22 27 31 24 19 20 19 13 24 23 25 29 13 32 26 30 36 34 36 57 38 32 40 39 33 67 111 141 143 148 144 111 95 71 69 71 70 63 64 66 55 45 40 43 42 42 35 37 36 37 36 53 60 80 78 70 78 106 114 136 144 130 126 122 122 92 71 63 55 46 36 46 43 44 40 41 37 40 39 39 46 45 63 45 53 48 52 68 94 120 108 62 27 16 29 26 18 18 21 17 21 19 27 28 28 19 25 38 35 36 34 43 47 43 40 35 48 56 116 143 144 149 138 104 80 71 58 67 67 67 69 60 51 49 38 31 28 29 31 25 32 32 29 42 51 63 56 55 81 90 99 114 131 114 114 108 100 75 67 48 46 41 29 34 35 29 31 30 27 34 38 48 45 47 48 48 59 47 53 56 70 107 114 71 19 26 24 21 21 20 16 17 23 20 21 26 26 8 33 41 31 34 31 36 38 49 51 31 39 64 105 136 145 139 127 99 99 71 92 83 81 82 81 83 68 77 75 65 54 49 33 32 32 32 23 41 39 38 49 49 60 76 80 97 106 101 100 95 71 51 43 42 45 29 29 23 31 19 34 35 62 56 69 66 69 66 65 67 79 82 62 59 59 90 122 79 33 17 28 19 22 17 18 21 26 19 26 27 45 51 46 36 29 34 33 27 42 33 43 42 36 51 106 128 144 140 123 106 88 82 94 103 108 118 146 148 111 108 129 114 111 107 104 101 104 108 99 119 125 134 137 146 145 150 146 156 151 151 148 147 140 126 121 119 122 105 95 88 89 87 94 95 94 99 104 89 103 105 106 99 96 99 88 82 86 94 118 90 35 20 24 26 18 22 19 18 23 18 34 21 58 62 39 43 31 28 30 32 31 38 30 40 38 44 106 134 141 140 130 123 109 155 197 192 183 162 164 160 124 112 109 106 97 96 91 89 100 105 111 109 118 106 92 90 104 115 123 130 132 133 130 126 110 92 97 165 178 125 107 102 94 98 100 95 98 105 120 103 123 127 132 121 120 111 114 130 116 106 112 100 37 23 25 25 19 21 26 16 21 22 19 31 31 65 41 45 31 22 36 31 29 31 37 32 35 36 104 131 135 131 116 126 132 131 134 140 133 122 109 100 96 93 90 92 75 81 67 61 61 74 81 87 92 112 94 45 71 99 129 133 139 143 122 113 85 59 107 115 102 89 74 69 69 68 64 59 63 68 86 79 82 100 112 117 123 125 130 145 162 134 117 103 42 24 24 26 23 21 22 21 17 26 22 31 14 74 69 29 33 28 32 28 22 29 32 41 23 32 94 133 124 126 108 130 134 117 115 122 109 94 73 104 146 108 90 77 44 48 75 67 76 88 96 80 85 78 124 75 71 132 169 171 167 154 151 127 73 94 101 84 78 75 67 54 122 130 54 51 38 72 43 64 76 74 86 108 116 114 124 111 75 101 121 113 53 27 22 22 29 24 19 26 24 24 24 20 29 74 101 47 25 29 32 28 28 25 56 33 32 31 89 122 133 110 53 118 145 132 128 123 108 112 93 120 201 157 91 110 90 35 86 149 90 81 89 84 87 76 78 96 75 116 124 139 123 134 130 114 95 112 85 74 76 79 87 35 166 199 74 53 42 89 21 140 181 61 76 80 107 117 127 131 57 39 69 132 69 19 19 25 44 22 30 31 33 17 27 20 32 93 105 61 28 33 25 32 27 24 57 52 28 33 94 120 131 69 37 135 156 146 140 120 115 105 98 98 107 111 90 95 103 90 103 173 111 69 84 88 95 83 68 97 166 163 167 186 175 182 172 173 142 106 89 90 87 72 66 45 100 109 61 47 44 37 62 76 121 63 52 97 98 108 126 132 66 48 25 103 113 25 10 34 45 32 44 36 35 14 27 44 31 104 105 78 44 33 22 31 32 26 27 91 38 51 101 140 102 36 39 140 154 148 139 127 126 136 135 136 115 135 134 111 112 116 124 128 103 89 83 105 99 84 81 70 102 111 129 136 105 133 120 109 111 94 106 105 105 73 65 66 88 97 70 66 66 64 101 96 87 101 87 76 105 106 117 134 65 43 30 60 142 30 35 51 52 49 82 34 41 8 17 90 61 107 117 93 69 41 25 26 31 40 32 91 127 147 158 165 82 58 79 149 168 155 145 147 150 151 148 157 144 149 157 155 151 144 150 136 130 117 114 109 112 120 108 112 109 79 120 131 103 118 114 79 117 114 120 131 130 116 109 99 105 104 115 106 119 130 125 121 111 109 108 96 100 106 121 133 73 40 51 59 136 91 87 122 49 57 120 60 35 9 34 93 108 99 130 87 118 94 31 23 37 47 27 80 68 113 157 157 112 23 60 155 170 172 172 162 152 147 146 146 149 142 148 144 143 139 140 132 131 119 121 120 133 151 122 144 103 130 180 192 180 167 168 83 127 126 121 130 130 126 121 111 114 102 106 111 117 131 133 119 115 110 115 116 118 117 128 134 76 35 93 108 123 126 100 68 37 69 121 100 24 17 64 101 102 103 117 128 139 164 64 23 38 51 43 39 51 75 154 152 125 69 37 143 183 177 179 176 171 153 138 134 135 136 136 139 126 127 124 129 133 129 134 139 154 152 137 140 109 167 187 190 183 174 175 131 110 141 125 139 140 134 131 131 127 124 123 115 109 114 119 122 127 125 128 132 132 135 133 136 78 57 106 112 136 95 71 39 34 92 111 120 28 41 94 105 107 104 120 154 158 155 130 61 41 61 53 41 20 63 128 157 127 116 62 151 185 181 177 182 180 181 169 148 153 160 154 156 154 150 145 151 149 155 153 154 146 136 155 122 131 176 186 189 178 179 174 167 79 158 118 144 157 159 152 146 159 161 167 165 155 152 145 147 156 155 151 153 148 145 137 127 83 96 108 115 140 84 28 24 54 110 111 125 41 73 100 106 104 106 103 165 151 145 128 104 58 75 65 59 31 87 126 164 130 148 92 151 178 182 178 181 184 186 186 182 170 178 161 162 166 159 158 155 155 162 157 151 143 140 163 110 156 173 184 186 174 177 179 180 76 147 121 137 151 160 163 160 174 172 163 163 168 170 172 163 169 170 165 171 164 155 136 115 101 112 113 114 141 94 29 32 67 86 96 116 76 89 101 106 103 101 110 160 142 130 115 102 58 66 91 73 83 123 104 160 113 140 112 136 173 180 180 182 179 173 171 173 168 169 161 159 163 161 164 155 154 158 154 141 144 153 125 123 173 172 180 189 185 175 180 164 112 88 150 131 148 157 157 158 165 156 159 160 161 164 169 168 167 169 164 158 163 150 129 115 122 114 111 116 150 92 29 50 73 78 91 107 105 96 97 105 103 97 122 152 128 108 107 103 74 60 110 105 105 144 100 156 116 120 157 135 162 171 175 164 154 152 155 154 150 146 150 152 154 154 155 147 147 150 152 136 152 158 98 153 170 176 183 198 193 184 183 153 140 67 130 132 146 148 152 151 159 156 155 148 149 147 146 150 155 156 154 144 150 139 132 137 128 108 108 122 142 104 69 53 74 80 84 101 109 96 98 103 102 91 115 157 126 102 99 101 80 126 164 137 105 145 106 136 143 85 179 144 161 170 173 149 141 145 151 151 145 139 148 141 144 146 148 148 152 152 141 136 153 118 118 165 167 176 185 204 194 187 182 158 149 118 79 130 140 141 148 145 149 149 148 145 148 144 141 144 145 141 147 147 142 135 135 146 121 94 111 128 137 110 128 78 78 81 88 107 105 99 97 99 101 92 112 168 145 118 113 113 93 182 186 157 116 134 121 112 169 97 162 159 147 169 161 145 145 143 145 149 143 143 144 142 141 148 149 147 150 137 133 153 112 89 148 168 173 177 185 209 196 184 188 174 149 146 94 84 131 145 142 141 148 148 141 143 144 143 135 138 138 135 139 139 139 137 140 145 100 89 103 148 112 111 138 125 80 84 94 112 107 90 98 98 99 101 86 183 162 132 136 138 126 184 189 165 116 123 137 87 178 146 119 159 144 158 144 143 143 141 141 145 145 142 147 139 135 145 137 138 138 132 142 144 74 110 154 167 174 175 196 215 200 183 186 173 149 147 129 81 78 153 147 135 141 146 139 141 138 138 136 135 132 135 137 138 137 146 142 135 105 90 124 164 89 116 137 130 84 83 103 122 90 93 93 95 99 102 77 168 184 158 139 170 159 180 183 161 121 119 132 119 112 200 156 147 151 161 143 140 131 137 136 142 141 135 140 137 134 140 138 140 142 141 134 98 80 125 161 169 171 179 200 213 202 186 180 175 150 152 141 105 76 102 157 137 139 137 134 137 132 132 131 130 134 128 140 134 137 134 137 137 100 123 201 145 70 119 135 112 78 91 110 116 90 85 96 92 95 112 79 137 183 176 160 161 187 165 189 155 123 117 121 129 114 114 182 194 171 166 167 162 154 148 147 139 138 135 136 138 145 159 169 169 151 127 115 73 100 150 162 167 166 182 200 206 200 186 186 176 161 155 149 135 100 88 108 144 160 147 136 137 124 130 123 136 134 131 133 131 135 133 147 153 142 172 163 107 84 123 129 98 86 111 115 110 76 88 90 92 92 107 83 127 139 171 188 170 151 162 184 156 124 118 124 120 124 112 97 122 186 175 185 188 189 190 184 182 183 183 185 188 195 195 181 143 124 121 98 62 143 168 165 161 163 178 190 191 191 185 183 173 163 149 146 147 149 103 83 102 125 152 161 157 153 152 149 153 152 155 145 159 172 175 165 156 124 115 116 107 88 129 108 93 117 115 108 101 78 86 84 90 90 113 90 123 137 125 196 188 165 146 168 158 123 122 124 117 122 130 116 107 91 95 105 120 120 127 128 134 134 136 140 143 140 131 122 117 111 108 77 101 168 172 160 146 148 165 173 183 180 181 169 163 148 134 130 137 149 157 89 91 102 101 109 108 121 127 130 136 132 136 138 139 138 119 111 108 109 114 116 107 95 123 89 93 127 111 105 99 75 82 82 89 87 107 108 89 165 161 158 175 195 173 141 147 132 124 124 119 114 127 122 121 111 99 111 106 112 114 116 113 119 119 127 125 113 111 112 104 108 99 84 142 165 160 136 133 126 146 161 171 164 167 158 144 125 111 117 111 134 152 120 97 105 100 101 108 108 110 108 110 111 103 107 107 109 111 122 114 105 111 113 105 96 115 122 123 133 122 109 95 75 77 87 81 89 103 112 89 135 176 154 145 155 153 99 132 130 121 123 126 116 115 128 121 122 106 100 101 106 109 109 108 116 116 118 115 111 105 105 105 106 101 120 146 138 125 94 94 99 112 140 142 144 146 136 120 104 89 81 94 110 124 119 123 120 105 90 104 103 112 103 109 106 106 103 95 104 114 121 113 103 110 106 102 91 106 129 130 128 128 110 78 77 76 78 82 80 104 109 95 115 154 143 137 132 137 129 111 127 117 130 129 113 113 121 125 126 113 105 105 110 109 111 106 112 113 111 112 106 102 99 98 113 131 146 138 111 104 75 30 44 88 103 110 118 116 102 99 71 41 28 75 94 109 111 118 137 117 105 104 106 108 113 109 112 110 110 103 116 114 115 108 107 108 107 102 93 109 116 120 118 120 103 66 74 71 74 79 78 105 107 105 101 123 129 141 153 157 162 143 120 112 125 134 123 107 115 125 125 116 108 102 107 109 107 107 106 110 109 104 97 99 98 117 132 154 163 130 95 99 64 43 8 57 86 88 95 88 89 84 49 24 31 66 83 99 101 109 125 120 119 119 112 118 120 123 120 120 114 120 119 116 114 114 109 111 106 100 103 121 120 115 106 114 81 69 70 73 73 74 77 106 101 106 109 95 122 153 151 150 169 152 124 112 122 129 128 120 106 127 122 122 111 105 99 101 107 103 107 106 104 100 91 107 115 130 146 150 165 148 87 88 73 78 38 52 70 83 81 82 87 83 78 56 70 76 71 87 102 104 112 116 115 124 119 120 122 119 125 120 113 117 115 115 111 112 108 109 105 100 109 114 122 115 108 84 70 67 71 70 73 72 75 101 107 102 108 105 97 114 125 119 133 114 87 113 121 129 128 129 111 122 131 123 114 99 102 103 105 102 104 108 106 102 110 119 131 143 143 151 154 175 109 73 75 90 78 90 78 80 77 77 99 90 90 104 103 82 84 95 101 104 111 120 121 122 131 128 128 119 122 118 118 117 120 109 110 106 108 107 109 99 96 104 107 99 74 66 63 68 71 68 72 67 74 102 105 104 107 101 104 105 100 100 101 96 81 94 126 124 126 130 119 114 125 125 117 108 100 107 105 105 109 115 110 125 125 138 147 148 146 153 148 158 147 88 83 114 119 114 106 88 73 80 96 102 92 101 106 100 113 103 105 104 111 121 125 126 134 135 130 129 125 122 116 121 115 109 103 104 107 112 109 93 65 79 75 67 62 61 69 62 67 67 70 64 73 104 105 104 104 104 104 101 108 107 106 106 101 95 117 126 125 133 128 113 121 127 122 111 105 106 113 121 122 127 132 142 147 153 156 158 150 153 157 158 150 141 129 139 135 128 129 112 91 86 98 109 104 102 105 109 117 105 110 106 110 119 128 130 135 133 130 130 131 121 120 119 114 106 101 107 110 112 114 82 52 63 61 60 64 63 62 63 65 67 65 68 68 105 103 108 105 104 106 103 108 108 105 110 106 99 115 121 122 132 136 120 121 127 126 112 111 115 120 130 133 145 149 157 162 166 161 158 159 155 159 158 144 157 163 159 138 138 141 138 113 93 105 106 115 106 96 105 106 99 110 105 113 123 129 133 137 133 132 134 132 128 122 119 114 99 104 106 109 108 115 70 54 59 53 64 62 57 64 67 59 66 66 69 64 105 101 105 108 104 107 106 100 106 101 107 102 105 103 123 123 133 133 127 116 123 130 122 121 125 129 138 149 153 165 161 159 162 166 158 152 158 161 159 149 152 153 149 142 141 140 140 137 109 105 115 116 117 107 103 100 106 106 112 115 119 129 136 135 129 126 137 135 131 127 119 114 98 103 110 107 108 117 57 56 58 56 59 61 59 63 61 62 65 64 65 62 106 102 103 106 103 106 104 104 105 107 107 107 105 98 120 125 123 136 130 120 121 125 127 125 126 134 140 152 162 165 165 163 162 164 160 155 155 162 161 145 149 138 141 139 141 149 141 136 124 120 116 115 111 108 101 101 100 108 114 114 117 124 134 136 124 119 128 137 128 125 121 108 99 110 113 107 114 105 57 55 61 53 61 58 68 56 58 64 65 64 66 64 107 102 104 105 103 105 104 104 103 109 105 106 106 105 113 122 127 134 136 123 125 123 133 131 133 137 146 154 159 160 159 156 158 160 159 157 152 154 159 151 150 133 136 142 145 152 142 138 132 137 129 115 110 112 104 111 107 112 109 115 113 119 127 128 123 113 119 138 131 122 120 105 105 115 109 112 118 97 52 55 61 55 58 59 60 61 55 67 62 64 63 61 101 102 105 104 104 105 101 107 99 108 105 103 106 102 108 121 130 131 140 122 128 122 133 133 142 146 147 150 154 153 152 155 155 153 150 151 150 152 148 156 146 142 148 139 143 149 140 146 139 145 146 114 109 108 104 111 111 108 106 112 111 113 122 125 116 110 111 139 136 127 116 107 108 113 109 109 115 90 50 56 62 58 52 62 60 58 62 62 61 58 64 61 100 103 103 108 100 105 105 105 102 104 107 105 108 102 110 118 132 133 133 134 128 126 133 138 152 146 145 148 148 149 142 149 152 153 149 143 147 152 147 143 144 139 139 132 132 131 137 139 139 142 139 128 118 113 107 104 111 110 107 115 110 111 122 121 115 113 109 142 134 131 112 112 121 115 104 117 110 85 50 59 59 58 59 61 57 56 63 56 63 56 63 58 104 100 102 105 100 108 104 106 105 103 105 103 106 104 101 121 126 136 129 138 130 128 137 139 150 155 143 144 144 148 139 138 151 143 141 139 142 142 144 135 139 131 131 126 133 123 138 127 133 130 131 128 129 118 106 102 106 109 113 110 115 109 119 116 118 107 117 141 136 124 112 113 119 116 103 113 115 67 46 61 60 60 56 62 57 57 62 60 60 55 63 60 102 104 98 102 104 104 103 106 104 106 105 105 105 107 106 109 131 128 134 137 130 132 139 141 146 156 147 142 144 149 139 140 148 143 141 137 132 133 133 137 134 137 132 127 133 135 137 134 137 133 131 137 133 127 108 108 111 107 109 116 113 113 111 117 115 110 113 144 138 126 108 114 120 113 101 118 106 55 57 55 62 58 54 61 58 55 59 62 57 62 55 62 101 104 103 101 104 106 107 102 103 107 102 103 107 106 102 110 127 128 132 140 134 131 137 144 144 154 149 140 146 143 137 140 142 139 142 141 138 140 126 145 143 139 138 135 139 137 139 138 142 145 147 137 145 137 121 123 121 112 108 123 123 117 124 118 120 115 113 142 137 124 113 117 119 109 106 121 96 52 54 60 58 59 59 56 59 56 57 61 58 59 56 59 104 103 102 105 101 103 107 101 106 106 106 105 107 100 107 108 125 122 128 138 133 127 135 145 148 156 147 145 145 144 142 137 136 138 142 143 146 145 132 134 144 136 134 142 145 141 151 147 150 153 155 151 150 148 127 122 123 105 101 122 122 119 125 115 117 116 119 143 136 121 112 117 114 105 108 119 83 48 58 62 53 58 56 60 57 59 58 57 61 58 59 58 102 107 100 105 102 107 98 105 106 105 104 106 104 102 102 108 119 128 125 139 134 132 133 143 142 153 149 147 149 138 143 143 135 135 147 142 149 145 132 118 129 129 121 138 132 131 147 148 144 153 145 135 128 117 93 92 81 68 77 71 73 74 95 107 117 119 120 149 137 114 107 114 111 103 112 114 70 53 57 54 60 57 60 54 60 57 57 62 57 62 61 62 102 106 100 103 103 105 106 101 106 103 106 101 105 107 103 108 126 118 124 130 132 130 134 138 139 147 149 149 144 142 141 137 123 125 124 128 114 115 89 80 79 96 89 94 95 91 92 107 123 146 135 103 77 77 70 66 61 64 53 48 61 57 69 96 115 113 128 148 128 113 115 108 112 103 113 105 62 49 62 56 59 58 57 57 57 55 57 57 58 61 56 59 102 102 103 100 103 103 104 103 100 107 104 104 104 102 105 100 136 113 115 130 132 128 129 136 138 142 153 154 141 145 141 132 118 102 86 76 59 61 49 44 54 54 60 60 72 63 69 62 75 88 91 59 66 63 58 57 53 57 70 76 92 86 87 104 112 108 132 146 126 112 113 114 107 103 113 96 51 56 59 54 58 59 55 58 57 58 58 56 60 55 57 62 99 104 103 100 106 100 102 105 98 104 105 99 106 107 100 102 138 117 111 125 130 128 127 133 130 139 146 153 149 140 141 127 129 115 110 104 99 91 84 73 57 51 47 52 47 51 48 50 45 54 58 53 44 54 51 58 71 81 89 88 105 109 108 115 117 113 143 144 122 110 109 114 104 109 118 71 53 57 54 58 56 61 53 61 55 61 51 61 58 53 60 60 101 103 97 101 105 101 103 102 103 105 101 105 102 104 104 94 139 129 103 126 122 127 125 129 133 131 146 149 152 147 139 133 127 128 138 141 140 131 133 133 117 98 98 89 76 60 50 43 40 45 50 60 67 68 80 81 91 96 97 105 116 112 107 111 109 131 146 138 110 112 108 111 109 111 107 58 58 52 58 62 55 57 59 52 58 60 60 59 57 58 59 57 99 103 100 99 101 106 101 103 99 107 104 102 109 101 105 98 125 149 107 112 126 116 125 121 120 122 138 150 155 147 142 139 131 133 140 143 144 141 126 125 126 129 135 125 125 112 103 96 89 74 78 78 85 85 91 92 97 103 104 112 120 111 115 116 129 128 136 127 109 111 107 112 113 112 88 47 57 58 51 60 55 59 55 56 53 59 58 56 58 55 56 61 102 102 102 100 103 98 107 97 105 98 106 105 102 104 104 98 125 149 118 105 116 121 125 116 115 118 129 140 151 145 146 144 147 142 143 147 148 138 131 129 132 131 127 111 114 110 101 104 100 87 81 84 84 92 97 101 105 108 109 117 118 120 112 128 132 127 132 124 110 109 110 113 113 106 66 50 53 58 55 56 55 60 52 56 57 54 58 57 52 61 56 57 100 102 102 97 104 102 101 100 105 100 105 101 103 105 101 100 121 145 141 99 119 123 119 120 114 109 113 125 150 150 143 147 149 146 147 147 144 141 132 129 135 127 124 112 110 104 100 103 94 88 94 93 93 97 102 110 109 111 111 115 119 123 119 128 134 133 124 118 107 110 109 113 113 92 57 48 58 58 50 60 54 57 55 55 56 54 54 55 55 59 55 59 101 101 104 99 100 101 103 100 102 99 104 103 103 106 105 95 124 139 150 111 109 122 123 122 117 105 104 110 129 157 143 138 154 149 146 147 143 140 140 135 130 121 117 106 100 102 92 104 97 90 92 99 96 89 102 107 108 109 114 114 115 121 121 122 138 133 121 103 111 111 110 109 113 73 47 54 58 48 60 53 56 55 55 56 59 52 57 57 55 59 55 59 103 97 101 92 103 102 99 102 103 106 99 107 98 104 104 93 123 147 148 140 92 108 130 119 126 115 107 102 119 149 150 147 147 157 145 135 141 139 139 136 136 124 117 104 99 102 95 99 87 91 91 96 94 100 100 108 111 113 110 112 121 125 128 139 142 128 121 109 115 111 109 112 104 50 51 59 54 49 58 51 55 59 54 57 55 55 57 58 54 56 57 60 98 102 100 101 102 104 103 102 101 104 101 101 102 102 103 93 118 144 146 149 113 96 123 125 128 126 124 114 118 123 146 145 152 155 153 144 132 139 135 135 134 139 125 119 111 98 105 89 90 95 100 104 105 109 107 109 106 115 107 111 131 131 136 141 141 128 112 111 115 110 111 113 89 48 54 55 60 48 54 59 51 55 55 56 53 58 58 55 56 58 59 57 97 101 98 101 97 101 100 100 101 101 103 104 103 104 107 91 117 146 142 149 141 97 107 121 128 131 130 130 126 126 125 134 139 151 157 153 141 136 139 138 135 136 132 125 117 113 109 109 106 115 116 116 117 116 118 117 107 115 114 123 140 142 139 124 125 124 109 105 115 105 109 108 89 41 53 56 55 53 53 51 52 59 56 54 55 54 54 56 57 57 57 54 96 102 100 100 103 101 100 106 101 102 105 103 101 102 103 101 105 146 141 143 147 128 86 118 117 122 128 137 129 128 127 111 120 126 142 148 147 144 147 146 146 140 138 130 129 129 135 128 129 130 132 128 119 122 128 125 121 117 125 138 144 149 141 119 118 110 105 107 105 100 95 113 76 49 55 56 56 53 56 55 55 55 56 53 57 57 56 56 52 54 60 54 100 100 98 98 102 99 106 96 102 106 101 101 105 102 103 99 111 141 138 138 152 139 102 94 117 114 126 137 135 119 136 128 105 110 122 140 144 149 151 151 144 138 133 132 136 146 143 136 134 127 131 135 136 131 138 125 132 118 141 145 149 140 131 121 107 99 100 106 101 100 100 115 65 46 58 56 56 50 56 52 54 53 54 58 55 55 56 56 56 55 54 55 102 99 101 102 100 102 98 102 99 101 100 103 100 104 101 102 103 144 145 145 137 146 127 89 100 108 122 136 131 113 126 123 125 116 115 122 138 153 147 138 135 136 141 139 145 142 138 134 142 138 145 143 145 145 137 138 132 128 152 158 150 147 135 118 101 103 94 91 94 96 111 112 51 49 57 52 50 57 55 54 51 57 51 58 49 54 56 56 55 58 58 55 98 102 96 100 103 99 96 101 101 103 101 102 103 103 104 99 108 136 146 146 140 143 141 107 83 101 105 124 124 109 123 108 123 130 119 110 132 160 156 141 139 145 142 143 147 145 142 143 145 152 150 148 147 145 149 137 144 139 158 157 144 147 130 108 93 96 89 84 93 111 113 102 50 48 56 51 51 57 52 52 55 55 53 57 55 51 55 58 50 52 55 55 98 98 101 100 100 100 102 101 102 102 100 103 101 105 102 100 94 141 142 145 143 142 147 127 91 83 97 106 116 106 114 130 110 124 127 123 125 148 152 158 150 138 144 144 151 139 150 149 151 149 150 153 158 159 163 148 155 161 167 157 138 134 125 102 95 92 78 85 111 111 111 103 51 48 51 59 46 58 53 49 55 56 50 56 51 56 56 50 55 52 57 52 98 97 101 99 98 94 99 101 101 100 100 98 105 100 103 96 105 140 142 145 144 147 147 133 110 86 80 92 103 100 108 123 114 112 131 119 135 136 148 159 156 148 155 154 152 137 136 135 139 150 149 159 162 162 165 157 164 169 170 148 150 130 117 102 93 74 82 106 113 114 92 139 76 49 47 56 51 55 55 54 55 58 46 59 50 58 56 52 57 53 60 48 99 94 102 99 100 100 100 98 102 98 105 101 100 102 102 82 175 148 139 146 146 146 150 141 123 104 91 73 90 88 85 110 109 125 102 113 118 128 142 160 152 158 153 157 142 133 133 121 124 135 145 147 149 150 160 150 160 158 147 143 141 119 104 100 81 70 103 105 109 115 92 118 167 48 48 51 55 48 54 47 57 51 54 49 52 53 50 59 49 55 54 53 100 99 98 100 98 100 104 102 101 98 104 102 102 99 86 119 231 153 133 143 146 151 142 146 132 110 99 85 85 88 80 90 104 119 110 105 121 123 134 148 149 148 154 141 136 126 134 124 108 121 120 142 138 144 146 141 150 143 132 130 112 99 91 86 73 95 108 111 107 115 95 72 193 96 41 55 53 51 56 57 49 51 55 51 54 50 56 56 51 57 50 59 102 97 99 98 98 100 102 96 101 100 101 102 99 104 68 187 232 147 132 143 149 145 144 146 137 120 105 89 90 86 80 77 92 98 105 109 120 119 117 136 141 140 136 136 131 125 120 119 107 126 113 127 130 131 136 127 126 114 120 112 94 88 84 74 92 106 105 110 112 113 99 36 175 158 49 46 54 51 59 49 56 51 56 52 53 52 54 51 52 55 54 55 95 98 100 96 101 101 102 101 102 102 104 101 102 89 105 227 206 131 132 145 149 145 143 143 138 128 113 97 93 88 84 68 75 82 93 107 111 105 105 112 117 122 125 121 125 117 118 118 111 120 125 111 119 117 120 115 102 102 100 91 82 75 69 93 105 100 101 108 117 113 101 27 155 192 75 38 53 51 53 52 56 50 52 52 53 51 53 54 58 51 53 55 96 96 96 95 105 97 100 101 99 101 101 101 104 68 177 232 168 120 143 140 148 141 146 145 141 135 122 109 97 92 81 90 71 70 80 94 94 98 87 104 96 111 103 114 117 109 103 107 114 111 116 104 104 106 94 100 88 90 79 79 76 68 94 107 111 105 107 108 118 122 86 25 162 192 123 18 40 51 56 48 56 48 55 54 54 53 54 53 57 49 55 51 95 97 102 96 98 101 96 102 100 103 100 104 85 55 226 224 110 124 147 145 143 145 145 145 146 138 130 123 104 92 93 89 87 76 70 73 78 79 75 86 86 86 80 88 95 88 101 98 104 104 93 88 85 82 78 79 71 75 71 71 76 99 106 110 109 111 114 113 113 125 84 23 155 184 180 14 32 30 53 49 51 50 58 48 55 55 48 52 50 53 54 55 100 97 98 100 97 101 102 97 101 100 95 95 46 101 241 210 65 118 151 146 148 147 147 152 140 146 134 129 119 108 94 90 87 91 80 74 63 78 70 67 65 73 66 73 70 71 75 78 84 78 78 72 70 66 66 65 65 66 72 91 101 110 107 110 110 113 116 114 113 125 75 21 158 173 191 55 18 35 41 45 47 52 52 54 50 53 51 54 50 52 54 52 94 98 97 96 97 101 103 100 95 91 64 71 12 160 241 195 36 114 156 150 148 147 150 154 142 148 143 139 127 119 106 91 90 88 86 90 68 64 69 61 62 67 56 66 63 69 59 66 64 64 65 66 62 64 61 60 77 79 104 106 111 112 115 112 116 114 113 116 113 124 61 23 161 175 190 93 12 39 38 35 36 50 49 54 51 53 48 57 52 47 58 47 101 90 104 98 98 101 97 93 79 78 40 69 34 198 235 186 28 99 155 154 151 149 150 153 147 148 150 146 139 125 120 106 93 91 92 86 85 79 76 71 70 67 67 66 66 66 64 66 73 66 67 63 70 65 69 79 86 97 108 112 112 110 113 114 114 118 112 112 114 126 41 23 162 173 183 130 15 33 34 30 36 41 44 50 54 49 50 54 47 57 53 48 