P2
92
112
255
115 118 117 113 118 116 118 115 118 113 121 105 65 38 36 52 46 49 49 55 48 44 49 48 40 50 50 63 65 59 71 58 63 63 59 53 43 50 57 53 44 35 40 29 42 38 28 29 29 25 35 35 82 101 87 94 92 73 75 86 97 96 84 91 86 96 106 110 111 113 111 116 112 115 115 118 111 116 115 116 117 114 114 120 113 117 116 113 117 117 114 116 114 116 117 115 114 116 113 119 112 117 99 66 42 43 39 49 55 55 55 62 60 66 70 70 62 63 58 60 62 69 69 57 55 57 56 66 60 50 46 55 62 57 40 40 48 38 44 38 31 27 29 19 67 98 84 79 80 82 90 88 77 82 99 104 83 102 89 114 109 111 112 112 114 113 118 115 116 114 118 112 120 114 113 118 117 115 114 115 116 113 119 113 118 114 117 116 112 117 116 114 123 108 71 38 38 42 44 48 57 59 66 67 60 73 72 61 66 49 51 58 58 68 83 72 67 71 59 47 49 68 56 50 47 56 53 44 49 39 43 43 34 37 29 23 41 73 78 71 68 75 64 42 44 47 66 89 89 83 91 96 111 110 113 114 113 116 113 117 117 112 119 112 118 118 112 117 117 112 113 119 115 115 116 112 120 114 118 115 115 117 120 120 109 79 49 41 39 41 41 52 54 57 52 54 59 85 86 84 70 57 43 38 46 55 75 86 79 71 70 62 49 43 52 55 43 47 39 61 46 40 60 40 30 39 41 27 29 51 65 43 48 38 42 31 41 30 37 40 56 56 76 90 105 107 110 114 110 117 111 116 115 113 119 112 116 117 113 115 114 115 113 116 114 117 116 114 115 117 117 120 116 117 115 103 85 63 65 61 64 59 56 46 39 43 46 65 76 94 86 84 68 55 50 41 50 56 60 65 70 75 66 51 46 48 43 48 44 42 39 56 56 52 56 53 35 40 43 25 34 32 48 33 32 30 40 37 33 32 31 25 37 38 62 70 88 98 102 114 112 112 117 113 116 114 116 115 114 117 115 117 115 118 114 120 116 113 119 114 115 117 114 119 119 111 95 68 53 60 60 52 74 73 47 37 30 56 53 64 70 80 73 80 66 66 73 63 59 58 57 74 83 75 68 57 53 56 45 47 44 36 41 54 40 46 55 59 42 40 43 38 24 28 35 44 30 40 49 27 39 34 37 32 33 47 39 52 58 65 75 96 110 109 114 114 116 112 119 116 114 117 115 114 118 115 118 114 118 114 117 115 114 117 113 116 115 82 48 41 50 49 51 58 76 73 42 41 47 53 58 61 63 78 84 90 92 63 71 76 73 56 52 43 45 51 61 53 52 40 50 54 50 48 37 50 33 30 46 44 55 47 44 40 28 29 20 40 41 41 44 40 41 41 37 38 38 48 34 39 47 57 45 66 79 97 102 111 115 115 115 116 114 117 116 112 112 118 116 115 116 118 114 116 118 116 116 114 87 44 46 38 42 47 59 63 60 54 41 43 46 60 64 61 71 68 79 86 89 87 75 74 70 67 62 61 49 42 44 42 47 52 46 47 46 47 48 48 41 40 35 39 43 52 53 42 33 33 25 25 42 40 42 47 36 42 37 46 48 44 41 30 30 43 50 58 73 84 92 105 112 111 115 111 115 114 115 115 113 116 114 115 112 115 116 115 117 116 120 89 51 33 38 43 41 48 61 57 44 40 42 34 42 53 64 69 78 75 74 76 78 79 90 81 73 65 60 63 47 53 55 47 43 55 54 53 38 41 44 47 42 39 40 36 34 41 50 35 51 40 40 19 21 38 50 36 44 45 39 51 42 48 49 21 29 29 40 49 54 71 94 96 112 111 113 113 117 113 116 115 116 114 118 117 115 117 115 117 114 122 95 50 26 39 32 34 37 38 45 35 27 34 32 39 35 50 74 81 93 97 95 80 86 67 73 70 74 61 60 53 58 52 68 59 62 51 54 52 45 46 36 39 39 39 36 34 36 23 46 35 32 42 48 37 22 24 39 36 50 48 46 51 56 47 40 21 48 38 29 37 47 59 74 89 101 111 114 111 110 114 117 112 117 115 118 113 117 112 118 116 122 96 46 28 36 33 31 32 35 43 34 34 33 34 35 36 41 42 61 63 84 79 73 63 57 45 44 45 41 43 51 46 39 47 53 45 46 39 47 40 36 41 35 31 41 34 31 35 29 24 34 30 38 27 32 40 30 27 39 36 49 51 46 49 60 47 41 30 31 63 53 36 42 41 75 66 86 108 115 114 111 115 113 119 115 113 118 116 114 116 115 117 111 53 36 26 36 31 26 26 34 46 32 35 44 41 43 51 43 53 57 74 81 84 89 77 66 54 47 47 37 34 33 33 27 39 34 30 35 30 34 31 37 37 31 32 26 32 27 26 29 23 28 32 45 36 26 28 31 28 41 39 43 61 52 49 58 40 36 41 29 46 64 58 30 46 53 79 69 98 110 117 110 115 113 118 114 116 115 115 117 113 116 118 80 37 27 36 31 27 28 31 34 41 28 32 36 28 43 32 32 41 48 62 72 73 80 70 65 52 56 54 49 38 37 38 30 29 25 34 31 36 37 50 36 39 31 35 34 37 30 36 44 44 47 51 52 54 34 34 37 27 42 56 28 53 54 53 43 38 31 40 44 38 49 43 43 47 50 67 66 76 97 114 116 114 116 114 117 113 117 115 116 114 117 115 63 25 28 35 27 32 35 31 30 23 30 27 31 33 33 31 38 43 43 43 67 77 70 63 47 54 42 43 38 30 41 34 33 29 31 56 53 50 50 47 39 38 35 39 32 51 50 64 77 83 88 84 79 82 58 49 47 46 48 54 49 40 48 44 35 33 30 39 45 52 52 37 44 43 62 54 64 70 87 109 114 117 112 117 116 114 115 118 112 116 114 114 46 33 27 31 32 36 30 29 24 28 23 29 29 25 34 26 39 39 48 59 79 78 77 66 58 40 45 34 32 40 30 32 23 42 71 59 51 45 49 41 33 40 44 45 64 66 86 89 103 119 113 120 118 105 89 78 71 62 58 47 62 48 37 31 34 26 24 38 42 57 62 51 34 42 49 57 49 65 67 95 112 113 117 114 116 117 112 118 115 115 114 120 33 23 35 30 34 38 28 29 30 26 36 25 31 33 39 26 40 46 64 60 65 65 62 50 50 42 36 45 29 28 35 33 47 86 72 47 37 46 34 42 45 39 51 66 81 95 111 112 117 130 137 136 137 127 109 105 97 81 79 53 63 45 47 39 23 26 16 32 49 55 70 66 32 37 60 42 52 46 58 79 106 111 116 114 113 116 113 116 114 118 112 120 27 31 36 40 43 41 36 34 31 22 37 28 38 29 38 35 33 45 50 61 71 61 54 60 62 45 54 44 40 48 49 59 78 65 55 48 47 44 50 46 48 45 70 93 93 113 117 127 127 138 152 150 160 158 129 122 123 103 97 67 71 52 39 58 29 28 27 24 46 66 59 77 42 35 55 34 44 44 44 52 99 109 120 118 114 116 117 111 119 114 114 116 27 36 33 45 42 34 30 34 25 34 28 29 30 31 34 30 28 40 54 67 60 76 98 97 74 55 54 45 50 61 68 83 67 54 49 50 50 52 58 48 49 56 85 105 112 121 129 131 141 154 159 171 170 176 155 135 137 141 110 78 80 85 47 60 47 26 30 37 41 67 46 71 51 42 51 39 35 44 39 44 70 103 111 116 116 118 116 114 117 119 117 117 31 37 35 37 26 31 25 28 30 37 25 24 36 26 33 32 39 43 59 58 72 84 93 67 52 45 45 46 52 79 80 65 62 43 42 61 57 61 52 45 60 74 97 102 118 127 135 144 155 171 170 180 179 182 172 146 146 163 126 90 96 96 75 62 49 30 39 48 59 44 56 48 71 40 55 36 31 38 36 42 45 66 116 108 118 113 119 114 116 112 118 118 38 39 29 29 24 25 29 27 31 29 31 30 30 27 33 37 32 48 60 65 68 70 70 56 52 50 43 43 69 77 54 45 46 53 62 67 58 56 47 50 72 94 113 118 108 130 135 156 167 178 179 182 189 182 180 162 157 167 117 108 112 112 81 73 60 35 30 53 64 35 58 49 65 49 43 46 29 39 31 40 44 29 100 116 106 115 114 116 117 113 117 115 31 33 20 27 28 24 25 31 32 28 28 31 31 36 44 38 32 42 51 48 61 62 63 55 54 41 41 55 55 48 44 51 67 70 74 61 67 52 50 60 92 120 122 125 124 122 145 151 174 184 184 183 192 184 177 173 166 155 101 140 113 119 99 53 76 50 30 44 55 46 54 47 52 51 36 51 35 39 24 38 36 38 35 107 114 108 113 118 113 116 120 113 24 25 25 30 26 25 32 38 31 22 30 26 27 42 35 30 35 29 41 46 51 71 59 57 49 48 43 39 45 40 50 74 80 72 72 60 65 53 58 78 111 131 131 131 128 131 142 158 176 185 185 185 190 191 184 177 170 131 129 166 124 112 117 54 72 77 38 39 43 44 56 50 37 48 23 43 47 35 29 27 31 37 28 51 116 112 110 115 116 115 116 116 25 27 38 27 27 30 37 34 27 29 27 29 26 31 29 25 26 33 36 48 55 73 69 58 56 48 39 34 36 42 55 69 71 83 62 69 74 52 74 107 118 130 133 137 125 139 152 160 176 186 184 188 191 188 181 169 136 149 157 175 154 111 110 85 40 90 65 48 46 50 33 57 43 44 26 27 40 40 35 24 32 24 33 28 89 119 110 112 111 119 119 115 30 33 31 32 29 32 26 34 27 24 32 28 30 29 26 32 29 35 47 47 56 76 56 53 49 50 32 34 34 46 60 64 76 77 75 75 71 58 94 111 126 125 135 137 131 141 156 167 176 187 188 192 194 194 189 178 162 171 169 173 167 136 110 103 37 71 86 62 48 54 39 45 43 46 34 21 30 34 34 36 20 30 32 25 58 113 115 111 114 117 114 116 36 33 28 36 30 24 32 33 26 23 29 34 34 20 27 34 33 43 49 37 45 55 46 49 57 44 25 35 46 49 59 67 73 81 83 78 75 87 112 114 123 129 136 136 135 145 160 172 182 187 192 194 196 197 194 196 189 179 170 177 173 165 123 111 75 35 96 73 64 47 43 43 49 36 47 38 22 33 36 27 28 31 31 19 31 100 115 118 115 118 114 117 32 32 38 27 23 30 33 26 29 20 26 34 30 24 33 31 29 36 32 28 43 44 50 57 51 35 40 48 61 53 65 63 65 87 88 85 89 114 129 114 125 129 128 138 140 151 164 172 178 191 188 190 192 189 186 179 178 165 161 155 154 159 151 131 115 29 59 92 83 58 47 43 37 36 35 44 39 31 27 28 28 23 25 26 8 66 114 113 113 115 120 114 34 29 33 25 24 35 32 27 26 20 27 33 30 24 28 27 30 33 31 31 37 47 54 57 53 46 58 54 65 55 58 61 76 97 98 85 101 126 132 117 122 129 133 141 145 157 170 177 178 178 175 171 176 181 183 184 187 185 180 178 168 162 148 146 132 82 24 88 92 81 49 39 35 29 42 40 50 45 38 32 23 27 24 24 23 18 99 116 116 113 118 112 30 31 23 24 24 31 34 24 28 19 30 33 22 30 21 31 28 30 33 32 35 44 46 56 59 61 64 61 65 60 54 73 112 110 93 101 113 130 127 120 131 129 135 143 149 162 172 172 174 176 185 191 192 193 197 194 182 162 148 148 150 154 160 161 144 116 41 59 86 89 57 40 31 34 35 39 56 45 40 47 38 17 30 25 27 3 61 126 113 116 117 113 26 30 21 24 28 33 28 28 21 30 19 33 26 22 28 24 27 28 36 38 40 47 48 55 51 69 69 62 70 67 68 94 128 98 87 112 116 132 127 123 135 135 142 145 150 162 171 180 188 193 197 194 197 196 194 191 175 166 173 185 178 162 142 150 158 148 114 54 89 90 68 40 31 31 46 39 53 49 49 37 40 36 31 27 27 11 25 109 120 116 119 115 25 29 19 18 38 29 26 26 25 31 19 33 30 25 21 24 25 29 31 47 37 49 52 61 67 73 80 72 84 90 86 118 118 90 93 116 122 131 126 129 134 141 149 152 159 169 179 187 193 195 193 194 198 197 197 193 194 181 177 167 152 142 131 144 155 146 143 98 95 100 81 47 30 34 33 42 46 51 53 42 38 34 26 24 35 14 32 101 117 113 120 116 26 26 20 23 33 31 25 27 29 28 23 24 34 19 24 24 22 32 32 51 38 48 61 64 74 89 85 91 97 100 105 128 100 97 115 120 125 136 128 135 133 138 147 159 168 175 183 191 192 193 192 196 201 197 195 193 186 172 159 133 109 89 81 105 120 142 138 129 106 98 92 69 36 30 31 45 58 40 41 44 37 37 24 32 27 19 37 109 115 115 117 118 26 21 21 30 25 29 23 32 25 22 27 27 32 29 17 27 27 23 31 42 46 54 64 71 88 101 100 111 101 105 130 118 83 108 133 127 129 137 134 133 132 139 153 163 174 183 188 192 195 193 195 197 196 197 186 176 162 131 120 91 71 55 47 52 58 76 89 104 122 123 97 77 41 31 32 36 56 46 44 30 36 31 29 21 20 26 12 108 120 115 114 117 23 22 22 32 23 28 28 30 20 23 30 31 47 32 26 22 29 18 31 34 49 48 75 82 96 109 105 120 103 117 128 98 96 125 138 137 137 136 133 134 136 148 160 172 181 190 191 193 198 196 196 194 194 187 160 140 127 86 75 61 55 47 45 41 50 46 51 72 87 128 119 85 48 28 34 45 43 48 53 21 29 25 26 31 14 31 9 63 122 114 113 118 20 26 25 25 25 22 32 24 24 29 25 35 59 54 36 30 28 18 32 44 47 58 87 98 106 105 118 119 113 133 104 98 122 141 141 143 139 140 135 138 148 157 168 184 192 193 194 193 198 197 190 189 179 146 88 107 85 61 65 50 48 53 57 67 70 71 64 63 68 89 129 103 51 31 35 37 61 36 50 36 27 22 22 26 22 18 18 42 103 115 117 117 26 22 28 26 19 29 24 27 24 31 24 42 59 79 89 51 30 20 31 37 54 77 92 102 109 112 121 123 136 130 85 120 137 140 143 145 139 140 139 151 161 175 180 192 195 197 199 196 197 191 179 168 124 98 81 79 63 56 48 44 59 89 105 122 127 134 130 113 83 56 113 123 52 32 29 34 60 43 38 42 35 26 18 24 25 22 16 38 102 110 114 112 26 26 26 25 23 23 28 22 30 27 30 47 67 89 125 103 38 26 32 37 60 88 101 107 111 120 128 135 137 113 115 133 138 141 144 142 144 144 157 171 172 183 188 195 198 200 201 194 196 176 156 112 97 65 75 49 49 44 32 52 102 119 136 160 179 175 173 163 132 99 82 121 76 24 28 34 63 59 27 41 40 30 16 22 28 31 13 33 102 115 112 113 27 21 24 27 18 21 26 19 39 25 30 54 73 106 133 135 99 33 30 46 79 96 106 113 117 127 138 146 145 146 139 143 145 144 141 148 153 164 177 189 184 185 194 198 199 195 199 192 183 156 117 81 78 50 57 38 38 25 32 85 121 125 140 163 183 184 175 180 165 153 102 109 94 31 22 33 53 70 25 39 29 32 16 23 29 38 24 21 103 112 114 114 29 28 18 25 14 23 22 25 38 21 46 58 81 120 142 144 128 79 38 63 88 102 117 122 128 141 146 165 174 175 158 161 153 153 156 173 175 177 189 193 193 192 190 193 191 185 194 186 171 138 92 70 60 49 45 35 37 27 72 109 122 117 131 149 156 169 156 168 170 163 143 103 115 46 18 22 45 66 34 31 36 29 30 17 20 33 35 12 73 119 110 111 38 28 23 20 24 20 30 25 33 40 50 58 94 129 149 151 136 111 85 78 98 106 117 131 142 155 173 181 187 186 189 184 175 173 177 184 185 181 181 189 185 185 183 182 181 177 179 177 157 107 82 72 60 48 46 36 38 71 100 108 103 105 108 119 128 134 140 152 155 158 152 129 105 75 20 23 39 64 39 22 32 33 31 18 20 33 28 17 51 97 112 108 43 29 21 20 27 20 32 26 32 49 52 75 99 136 157 150 145 132 120 96 106 126 138 146 164 164 183 188 191 188 190 193 182 189 181 184 181 179 169 173 168 171 172 175 173 164 162 164 150 102 88 59 67 48 50 50 64 94 85 89 82 86 82 87 98 104 114 130 141 142 148 140 107 93 43 15 41 61 43 15 36 34 27 29 19 22 32 26 30 73 107 115 33 27 21 25 17 31 26 30 34 48 57 81 104 135 161 151 155 149 129 123 135 158 163 169 177 181 182 185 185 184 183 183 174 169 158 159 168 155 139 142 139 155 151 168 167 157 149 138 141 98 87 58 53 62 60 79 86 77 61 69 64 82 83 85 90 77 90 111 122 130 132 143 125 101 77 18 36 58 33 23 24 31 31 24 16 19 30 30 34 52 110 111 39 28 16 25 29 26 30 28 48 54 60 91 115 133 152 146 158 152 154 158 177 181 181 180 182 174 179 178 167 175 162 147 133 117 109 110 137 136 123 105 111 137 134 143 162 137 137 126 131 98 75 64 51 77 84 86 62 68 65 72 75 93 90 109 112 109 81 95 116 122 124 135 143 105 97 39 38 50 29 22 23 27 32 22 23 15 35 21 46 57 89 108 37 28 25 29 29 33 27 34 51 52 74 98 115 138 140 151 153 154 167 174 183 184 176 176 172 172 168 163 144 137 127 117 92 75 70 79 94 116 118 84 90 124 122 127 141 129 123 125 125 104 76 76 75 93 89 63 60 64 64 56 64 58 60 67 68 87 100 93 114 119 117 129 149 120 99 72 37 45 26 23 23 22 28 28 22 19 21 27 24 63 88 109 32 30 24 33 29 32 28 44 45 59 68 109 111 130 149 143 147 160 173 183 177 157 155 148 143 149 140 125 106 88 95 83 73 46 44 65 80 95 92 80 80 107 106 109 121 111 119 128 125 113 87 92 92 95 71 54 62 62 96 99 89 104 121 110 79 51 56 87 120 120 118 137 146 135 88 88 54 35 23 27 23 24 23 28 30 21 26 22 22 46 81 108 28 33 29 25 36 22 44 48 48 48 83 104 110 127 153 140 143 156 171 175 148 123 112 109 98 101 93 78 70 61 49 46 47 37 40 48 60 80 68 77 71 95 96 100 112 100 125 133 137 119 90 89 96 85 61 56 71 105 70 82 39 50 90 149 146 93 38 76 118 115 130 146 152 151 101 105 86 34 18 24 22 19 29 29 30 23 29 13 29 30 82 109 29 30 20 27 24 39 59 47 37 49 80 89 111 126 148 142 136 155 153 143 95 77 77 80 76 66 56 49 45 36 41 31 38 35 38 41 55 59 62 66 69 82 97 107 115 125 141 148 138 115 91 89 82 74 57 75 117 88 32 154 33 130 47 102 156 119 90 100 117 121 140 157 160 163 120 105 111 53 17 27 20 18 28 26 23 28 17 23 22 49 94 108 40 24 21 31 30 49 48 36 37 40 81 85 112 125 148 139 135 136 115 88 64 51 60 73 60 52 38 36 29 31 30 27 35 42 44 46 63 64 70 63 70 83 103 123 134 153 167 168 145 103 89 88 84 69 72 92 128 58 29 52 56 60 68 84 135 132 126 115 118 134 154 164 173 170 139 108 114 88 29 20 18 22 21 27 26 30 16 27 33 59 102 112 26 24 33 29 38 51 38 26 38 46 66 93 110 129 145 143 122 101 79 53 58 64 60 70 62 56 57 62 61 56 49 49 51 50 60 69 76 85 78 70 68 82 112 147 169 165 182 185 149 95 89 88 97 83 69 93 129 65 41 57 86 97 128 150 152 151 142 123 121 147 162 168 175 169 156 113 110 105 41 20 18 22 21 28 32 44 20 10 59 80 95 111 30 28 32 31 45 39 29 31 39 46 60 87 116 122 141 145 99 79 58 51 62 71 72 83 86 74 81 77 67 58 52 41 44 44 50 54 73 78 83 80 74 80 133 174 186 182 185 193 154 92 99 110 103 82 89 81 108 100 113 142 161 175 158 157 152 137 129 128 146 172 173 175 173 168 163 119 107 116 57 17 25 21 20 30 64 57 13 13 65 101 104 107 29 27 39 35 54 36 24 31 37 44 49 82 117 124 139 127 93 74 63 74 95 102 102 95 98 82 67 55 45 42 49 53 52 48 55 55 62 71 82 82 67 80 150 182 190 191 189 191 160 102 95 123 108 93 96 92 118 135 161 164 154 149 146 129 130 122 117 141 178 184 180 181 176 167 157 133 106 122 69 26 19 24 27 28 101 81 15 10 66 117 103 108 34 27 31 48 44 35 25 27 38 46 32 73 121 126 133 130 92 89 101 114 130 129 102 88 76 45 42 35 37 27 38 71 98 92 60 65 71 70 79 87 64 84 162 184 192 194 186 185 175 130 111 117 129 117 124 121 128 130 128 128 112 108 108 112 117 140 163 181 181 182 181 177 169 164 159 128 112 121 87 24 32 23 53 49 92 121 41 17 87 110 105 112 33 29 32 57 39 44 21 24 35 34 35 61 115 121 134 121 106 100 114 121 129 119 92 61 45 49 52 21 70 44 55 50 86 121 96 73 55 75 85 85 60 105 160 175 185 186 180 183 169 146 135 134 140 129 118 118 118 114 110 107 114 112 133 146 165 180 178 178 180 179 179 183 169 159 154 141 112 118 110 31 31 35 56 84 97 112 100 24 106 105 107 110 23 28 37 47 40 58 39 16 33 34 38 50 103 122 130 131 122 114 121 121 117 97 60 36 45 80 57 29 49 73 65 91 47 130 102 80 57 55 74 91 77 125 156 162 178 188 185 187 181 141 141 152 164 156 146 147 154 156 157 157 172 169 175 181 183 183 186 185 187 186 183 185 179 167 156 149 121 109 122 70 31 38 42 81 96 99 110 64 100 111 107 109 16 32 37 39 36 65 43 21 33 36 45 43 92 117 127 129 132 124 122 119 102 68 46 26 66 89 67 49 52 56 58 71 88 116 114 89 94 99 98 101 117 146 145 164 183 189 187 185 186 163 133 153 165 178 174 176 170 172 174 173 183 179 184 184 192 189 191 188 191 188 191 184 181 173 170 151 131 103 119 109 47 54 48 69 88 90 101 95 103 110 108 108 26 24 37 41 33 53 48 26 25 48 38 41 78 113 132 125 133 128 111 105 89 60 64 79 113 119 123 129 148 149 150 137 156 145 144 133 122 117 111 114 153 147 143 168 185 185 183 186 189 182 138 143 159 172 178 183 184 186 192 187 193 191 187 187 191 192 190 193 189 186 192 183 189 182 171 165 143 113 115 106 86 78 51 73 82 81 93 102 103 108 110 106 21 25 28 39 41 37 38 30 33 35 41 36 64 103 130 116 124 122 111 99 89 83 116 129 151 148 160 163 173 170 168 149 141 141 129 125 106 107 112 143 168 145 140 166 171 176 175 181 185 181 154 142 155 167 175 184 186 189 195 194 193 189 190 192 190 191 187 193 192 191 192 186 188 180 171 160 150 132 114 104 98 112 85 73 78 82 89 110 106 105 113 107 11 26 28 29 46 40 32 29 29 33 35 28 53 103 127 118 121 145 134 118 110 127 126 135 146 150 148 145 137 136 130 124 111 104 107 105 116 130 150 169 169 149 142 163 166 180 185 187 183 180 170 150 150 164 171 180 185 186 188 189 192 187 190 191 193 191 193 190 188 189 191 188 180 186 173 159 145 141 132 102 93 119 123 100 74 73 94 108 97 110 107 108 45 31 31 30 38 43 29 23 24 36 33 32 34 91 113 118 111 135 143 146 156 153 141 133 124 139 142 127 119 107 109 103 100 107 115 132 146 164 174 174 169 152 148 165 171 183 189 188 183 183 166 157 152 161 167 175 180 182 186 188 191 190 193 189 192 190 189 191 192 188 191 188 184 186 177 167 147 139 137 107 85 116 123 115 72 66 88 109 96 107 108 105 88 32 42 31 29 41 35 15 25 33 39 26 37 76 111 129 119 144 159 173 182 180 170 152 144 132 121 113 112 108 109 113 125 136 148 160 172 189 179 174 169 157 149 164 175 185 191 190 188 188 171 162 163 163 169 169 173 182 182 189 193 189 196 193 191 193 191 196 193 192 191 187 189 183 176 167 151 132 137 110 90 107 123 116 63 67 90 105 97 107 108 104 118 44 33 32 28 40 34 24 22 21 39 31 25 69 103 137 118 146 164 168 179 172 171 165 161 150 153 145 151 148 156 164 172 175 171 176 188 190 179 172 175 158 157 163 180 183 193 192 185 189 169 169 169 165 155 164 165 173 176 186 191 193 194 194 195 194 193 193 192 190 185 182 186 175 173 165 155 136 134 110 96 103 123 101 53 84 103 98 89 108 107 106 121 71 32 26 30 27 34 24 31 17 41 32 18 58 102 137 120 137 154 163 158 166 167 163 180 186 187 185 181 181 180 182 188 189 187 188 191 191 177 174 175 161 158 170 176 188 194 195 188 190 181 179 172 168 167 169 165 163 164 177 189 191 196 195 196 198 193 191 188 189 187 179 180 173 166 159 152 130 131 114 98 93 126 82 74 102 101 86 98 100 106 104 120 94 33 39 30 29 22 32 24 27 31 33 20 51 99 141 131 125 146 150 144 155 169 178 183 191 190 190 187 188 186 189 194 195 194 190 191 188 177 174 170 155 163 168 176 193 198 201 193 190 183 177 173 164 173 178 184 183 163 167 189 195 195 194 198 196 189 192 188 189 187 181 176 169 163 149 143 130 129 117 96 92 121 59 76 111 99 90 97 101 102 99 113 120 53 59 46 31 24 26 31 25 37 31 28 41 98 140 140 115 145 134 139 155 170 178 183 192 192 192 189 190 196 188 192 190 193 191 192 182 175 169 160 159 164 168 172 193 205 201 197 188 185 179 163 161 158 168 183 184 180 160 186 196 194 192 196 190 182 188 185 187 182 181 168 161 153 136 132 122 118 117 103 85 115 70 97 118 107 99 97 95 102 98 113 113 98 57 74 47 27 28 23 37 36 29 31 32 93 144 135 129 141 133 140 160 172 174 180 187 193 191 193 190 198 188 195 192 193 190 192 180 171 157 167 166 160 159 165 183 193 195 189 188 185 169 141 143 138 141 157 155 155 145 161 180 189 177 172 172 170 177 178 173 179 174 167 156 147 137 122 115 116 116 106 84 103 107 112 113 116 104 92 94 97 97 112 110 113 78 89 72 44 26 26 40 37 32 37 21 92 143 135 132 143 135 153 164 175 168 178 185 192 190 190 193 193 193 194 196 194 188 190 180 158 165 172 167 155 142 146 170 180 182 175 179 169 148 119 120 113 110 117 115 123 119 129 171 177 164 146 129 129 148 164 167 174 169 163 156 142 131 121 104 106 116 107 91 85 108 106 110 103 110 89 88 92 94 113 107 116 98 105 83 98 51 26 32 41 38 41 24 93 137 140 137 138 146 164 168 175 175 179 187 188 188 190 191 195 192 190 192 190 185 180 162 158 171 170 161 139 130 115 145 159 162 160 152 135 114 105 95 65 55 61 91 97 101 108 158 178 178 172 162 134 101 116 137 151 154 160 153 143 131 113 104 106 110 111 92 88 100 98 104 94 101 83 87 90 92 111 109 111 108 90 119 113 96 51 31 58 51 48 39 98 134 130 140 141 150 170 171 177 182 184 185 188 192 194 195 193 189 187 181 180 174 172 162 164 159 156 142 111 106 93 96 122 128 129 128 99 103 88 63 42 42 57 78 86 93 107 122 155 166 165 160 156 130 100 94 111 135 144 149 148 133 114 101 111 109 111 97 97 97 99 101 94 87 77 87 84 87 108 108 105 111 91 138 124 101 90 63 51 69 75 46 103 129 128 145 147 152 163 169 174 180 185 179 184 193 191 195 191 184 178 176 173 170 174 173 152 137 121 106 88 62 56 74 90 95 103 100 99 94 84 85 88 86 102 97 102 111 114 111 137 152 157 152 138 142 136 97 77 97 124 135 145 133 120 95 108 110 107 106 90 100 93 99 82 77 78 79 84 80 109 109 107 109 92 136 134 107 91 83 57 45 94 66 97 126 124 145 159 152 159 170 170 178 179 179 184 186 191 189 187 180 177 169 167 166 169 179 136 110 93 86 56 35 19 34 68 80 85 91 89 101 105 105 109 104 110 104 114 114 111 108 124 144 146 136 134 137 131 127 89 64 96 122 134 132 120 93 104 110 107 106 89 81 86 77 77 73 77 76 80 79 112 109 106 113 95 132 141 106 99 91 76 54 104 85 93 119 114 144 162 154 157 166 170 172 180 175 182 181 182 181 180 173 167 160 151 158 165 182 161 95 88 76 66 49 58 62 67 74 76 79 76 84 98 103 105 101 103 102 109 113 113 110 119 132 132 128 122 134 129 132 119 79 66 119 129 128 121 96 104 111 106 112 76 58 69 75 70 73 76 71 80 74 108 107 109 108 87 132 146 106 94 88 80 85 124 104 85 117 111 129 159 159 154 162 164 171 173 174 174 175 175 169 175 170 158 144 143 162 174 175 181 125 79 70 77 67 69 77 78 78 75 72 77 85 92 98 107 101 108 116 110 118 118 121 122 125 126 130 118 126 130 128 126 111 62 118 133 135 121 94 107 114 108 114 87 52 69 69 71 69 74 72 75 71 107 109 103 109 96 116 150 126 102 92 84 104 143 123 85 108 111 112 150 156 151 157 159 169 169 162 166 168 170 168 169 163 153 141 157 175 177 169 178 148 88 79 86 81 78 87 82 85 84 83 90 87 91 94 105 105 110 117 121 127 130 130 123 128 135 127 121 127 124 128 136 144 73 119 146 139 117 103 107 122 109 115 102 56 63 66 72 63 70 68 71 69 105 107 106 108 104 93 158 156 126 110 100 103 154 136 101 98 108 105 134 154 151 151 150 157 158 152 156 160 164 165 166 163 143 144 166 170 167 167 169 155 116 103 100 104 98 103 93 84 82 89 96 93 106 109 95 106 113 121 127 123 136 127 142 135 141 136 123 125 126 125 163 171 107 125 167 150 115 108 112 120 107 108 111 55 62 65 64 66 66 64 71 66 105 106 107 104 103 85 144 180 150 121 129 103 140 152 110 97 107 107 115 145 145 148 141 150 145 148 150 157 160 160 162 149 130 149 162 155 159 163 158 149 133 125 112 118 115 124 119 110 97 99 101 109 110 112 104 113 127 131 125 123 138 138 144 145 144 147 138 124 117 129 184 182 122 146 176 157 117 108 117 122 109 112 107 63 57 60 59 65 65 61 67 65 107 107 106 107 113 78 112 181 173 140 134 131 104 162 135 92 101 112 102 127 145 140 134 140 131 145 146 148 157 154 142 121 126 144 146 147 150 148 145 146 140 132 124 125 123 130 130 134 132 118 103 115 102 112 108 127 139 144 139 145 156 163 157 143 132 136 125 105 82 148 186 170 123 170 191 158 114 106 116 124 103 105 117 60 52 58 55 61 60 59 61 57 105 108 101 107 106 104 76 137 174 160 163 153 107 136 148 108 91 109 110 102 136 132 135 122 123 134 143 148 150 147 131 100 115 134 135 136 143 142 144 141 138 135 134 132 126 128 134 137 161 153 127 127 116 123 129 146 150 159 160 146 150 148 120 98 85 71 52 31 94 169 182 151 127 187 194 157 111 107 118 127 106 103 115 66 47 58 52 63 56 56 56 54 108 106 106 106 106 107 92 100 115 155 180 179 150 129 143 115 91 102 118 104 119 127 132 115 110 136 141 148 148 139 114 87 116 131 129 128 133 140 141 134 141 142 141 141 140 142 149 151 170 176 158 152 141 147 149 150 136 136 125 112 99 92 75 61 45 28 28 82 147 180 184 145 147 197 191 151 102 109 117 125 112 100 121 65 50 54 55 58 54 56 52 61 104 109 107 105 107 109 86 102 113 116 162 170 183 147 104 117 98 89 114 106 111 114 130 111 106 132 137 150 144 134 92 79 125 137 125 130 131 130 136 136 143 149 157 163 159 163 164 168 167 191 164 167 161 154 141 117 104 91 86 78 64 58 65 55 69 66 110 140 167 176 168 140 172 194 186 142 104 103 114 120 111 101 120 67 45 54 58 50 56 55 51 57 105 106 108 103 107 109 108 92 136 151 153 141 147 130 100 99 100 85 104 115 106 113 116 119 102 123 131 146 145 126 83 89 134 132 127 122 128 135 144 138 146 153 155 154 155 160 152 151 136 140 144 144 147 126 104 80 78 73 70 73 78 94 107 104 112 126 136 142 162 170 156 148 180 191 174 133 108 107 112 116 112 104 113 68 48 54 49 58 50 57 52 55 102 105 106 106 108 105 108 99 105 152 144 142 123 136 131 125 106 86 96 110 117 104 113 120 103 112 129 141 142 122 83 96 136 128 122 126 128 138 148 145 138 139 135 115 109 106 96 90 87 82 81 83 94 87 82 74 82 116 132 122 124 119 126 124 126 134 133 154 165 163 158 157 166 180 162 125 108 110 111 115 107 104 116 62 47 50 54 51 54 50 53 54 105 102 104 104 106 103 108 107 99 117 128 121 132 147 154 149 121 89 86 108 118 107 106 118 120 105 111 138 135 126 85 109 145 122 108 123 131 130 127 113 91 85 81 68 63 63 54 57 53 69 60 70 83 98 110 125 135 150 140 133 134 131 132 134 133 137 141 161 164 157 161 162 159 175 147 119 115 108 112 112 108 104 112 62 48 52 49 55 53 50 51 49 109 102 107 103 101 109 104 104 106 111 99 120 148 135 139 139 117 65 68 92 117 116 104 112 128 121 111 120 134 135 102 144 173 166 147 119 100 82 72 41 28 39 34 47 55 56 75 92 109 129 142 147 153 157 152 141 135 142 140 140 142 150 145 141 142 144 145 161 156 148 164 159 162 160 134 115 117 106 112 110 103 103 112 54 48 52 50 50 53 52 51 54 103 103 107 104 103 107 103 102 106 103 104 98 123 115 108 110 90 32 23 87 106 121 111 104 125 136 118 114 126 140 141 164 173 174 173 161 137 96 67 53 42 52 69 87 98 107 120 126 135 147 160 155 157 158 165 155 155 160 156 154 148 154 148 145 144 142 146 152 158 150 165 168 161 152 128 117 114 105 106 110 101 104 103 54 46 51 54 47 56 47 50 54 107 103 105 106 102 108 98 107 103 106 105 101 108 98 98 97 89 47 33 45 108 119 118 107 116 144 133 113 115 142 164 181 175 164 160 171 178 175 156 145 131 123 120 119 117 121 127 129 146 154 161 167 164 173 176 177 174 173 169 162 161 146 147 144 143 142 141 145 151 152 149 162 148 136 123 118 113 105 105 111 101 103 102 46 52 50 49 54 49 53 48 51 105 108 101 107 104 106 105 102 104 106 104 106 103 106 106 108 106 95 95 41 80 115 117 114 108 136 146 120 113 123 156 183 182 173 155 160 175 161 165 154 149 143 137 131 129 136 140 144 152 162 171 180 179 174 174 169 164 164 160 152 140 136 145 142 142 144 140 137 149 149 149 157 144 133 119 115 115 101 110 109 103 106 84 45 47 52 47 53 47 55 51 45 102 103 102 106 102 104 106 103 105 106 102 103 107 103 108 107 106 105 106 103 49 108 116 118 112 121 147 131 118 107 138 168 188 177 167 163 170 164 164 158 158 158 146 137 138 145 144 153 155 154 167 167 165 163 166 159 155 144 154 141 138 145 144 148 146 142 134 135 145 146 150 150 143 133 120 110 114 105 108 107 102 109 74 50 45 50 49 49 50 47 50 50 100 105 102 105 102 106 103 103 103 105 110 104 104 104 105 107 105 107 101 114 74 91 115 118 112 116 134 145 118 114 119 146 175 171 171 163 169 159 162 164 157 157 153 139 142 149 142 149 137 147 146 146 148 145 138 145 142 136 146 141 143 147 152 140 143 139 126 134 140 138 148 141 139 134 118 109 110 106 104 107 99 107 65 43 51 46 53 48 51 46 50 49 101 104 104 101 103 104 102 103 109 101 103 107 106 104 108 106 102 103 106 109 94 87 112 114 117 106 119 138 130 109 115 116 144 160 164 168 169 162 152 157 159 153 146 152 139 148 142 143 133 131 139 142 141 140 128 130 139 137 133 136 151 152 149 133 136 137 123 137 143 140 136 135 139 138 115 112 114 105 107 108 99 104 50 42 51 48 43 52 48 50 44 54 107 99 105 100 103 107 100 103 105 104 102 106 101 104 105 106 104 106 105 107 106 89 105 111 119 106 111 128 134 109 112 115 120 146 157 153 158 160 157 150 154 150 139 149 143 148 141 142 142 136 143 137 138 135 131 131 132 141 143 145 142 148 146 137 131 129 128 135 145 135 122 136 139 131 121 113 110 106 107 105 96 94 44 48 48 50 46 50 52 41 50 49 106 102 108 100 105 103 102 104 101 103 105 103 102 104 106 104 105 106 106 104 110 99 102 106 111 113 106 116 128 118 105 117 116 129 147 141 153 154 158 155 145 145 141 137 138 143 139 143 143 149 143 140 142 137 139 140 147 145 152 139 132 137 135 127 124 124 127 140 148 135 129 142 138 129 122 114 108 109 112 101 103 74 45 42 47 48 48 46 48 45 47 46 104 103 101 107 101 104 102 100 106 102 106 100 104 102 104 101 106 104 106 103 106 102 111 92 110 113 111 110 118 127 110 109 117 120 128 141 147 150 152 153 142 143 136 139 133 135 136 133 141 142 138 145 139 140 147 138 141 142 137 131 130 124 127 125 120 125 127 146 144 141 135 137 131 133 128 115 105 116 108 99 100 55 39 53 43 47 51 44 42 48 51 45 103 101 103 104 104 104 101 102 104 104 102 104 103 104 101 104 105 102 105 105 106 99 118 101 98 105 105 103 108 117 112 106 99 112 114 129 139 140 144 145 147 144 139 137 132 130 129 129 135 135 136 133 144 141 142 136 135 125 134 126 122 122 124 128 122 128 132 147 150 144 137 142 133 129 127 117 105 109 102 101 94 49 45 46 47 43 44 44 53 44 47 47 101 103 103 102 101 107 101 103 108 102 104 104 104 98 107 103 105 103 106 104 104 100 116 116 91 97 99 101 97 112 107 106 98 109 100 121 129 129 140 137 148 146 144 139 131 125 122 123 122 116 128 124 133 132 129 122 124 127 128 127 109 131 140 135 138 134 140 146 159 146 138 142 135 126 118 105 106 106 101 88 96 54 37 52 41 44 51 41 50 44 45 46 103 105 99 106 100 104 102 107 100 104 102 106 100 103 104 105 100 105 107 104 102 101 110 126 107 81 98 94 95 92 100 104 97 96 93 103 118 126 124 143 135 134 137 138 135 121 121 115 111 115 119 127 115 126 123 124 122 123 125 120 127 142 141 144 146 147 147 146 149 137 136 139 131 127 120 100 98 99 96 81 95 58 40 46 45 49 46 46 45 46 47 47 103 105 96 102 101 104 103 106 99 103 103 103 105 99 103 105 103 104 106 106 102 108 99 124 129 88 85 89 91 89 90 95 90 95 92 92 103 122 122 125 123 121 138 129 141 126 126 123 113 129 131 140 133 136 130 140 139 125 114 121 131 151 145 153 149 161 153 149 141 138 142 139 130 126 111 103 98 99 86 78 98 62 36 47 45 44 49 43 45 43 47 46 98 104 96 103 102 108 102 101 104 104 100 102 105 98 105 100 104 104 103 100 109 102 100 125 129 115 86 82 86 81 88 88 83 93 95 83 102 115 123 125 128 122 139 135 137 139 141 141 138 144 138 149 145 144 132 136 133 136 132 133 145 155 161 163 153 159 148 147 138 136 148 142 126 122 107 94 92 88 76 92 91 63 40 43 44 43 47 46 43 43 43 45 102 102 96 102 101 105 101 106 100 104 99 102 101 102 101 105 99 102 103 100 102 106 99 122 132 127 109 78 78 80 86 89 81 81 90 91 93 105 108 131 121 123 126 141 124 129 136 147 151 153 144 140 163 151 142 143 135 130 151 155 161 163 163 163 148 144 137 135 130 135 150 142 127 106 104 91 86 79 86 87 90 68 40 44 44 49 44 48 45 47 40 51 100 102 105 102 102 103 101 107 100 102 106 102 103 104 103 102 104 103 105 100 106 107 95 118 131 131 128 100 73 84 82 83 88 84 96 94 100 96 106 118 123 123 127 129 125 128 134 137 142 152 140 143 154 157 151 154 142 122 149 153 162 159 161 153 144 134 138 133 127 134 153 138 117 105 95 83 70 84 88 86 96 69 35 46 43 43 45 46 43 47 44 48 99 103 103 103 100 99 103 103 103 102 104 103 103 102 101 104 101 106 101 102 102 108 93 115 134 130 130 123 87 77 84 83 89 95 98 103 105 103 102 107 122 127 122 127 131 127 134 145 131 147 132 136 146 149 151 150 137 126 156 152 152 148 156 146 135 126 134 136 131 138 141 129 111 94 88 68 70 87 85 84 91 67 42 41 44 48 40 47 43 43 42 43 100 104 99 103 100 96 106 99 98 103 101 102 107 99 104 104 101 104 103 104 104 105 99 108 128 132 131 132 118 72 83 85 88 93 100 97 119 114 107 102 117 133 120 131 140 126 128 138 131 137 139 141 149 147 150 142 142 127 157 152 151 152 144 142 136 122 131 132 134 136 137 119 102 90 74 64 79 88 87 86 90 67 40 46 43 48 37 49 47 43 41 47 102 104 99 101 101 100 104 101 101 102 98 101 101 100 102 104 103 103 101 104 102 104 101 106 125 133 136 134 129 104 78 80 90 92 90 105 116 124 114 105 108 127 126 128 141 136 118 132 132 127 148 139 137 143 142 149 142 149 155 150 147 136 140 126 125 119 129 125 131 127 122 104 91 79 70 67 84 87 91 85 90 79 46 40 44 46 39 44 43 46 42 39 105 99 97 104 99 102 103 98 103 100 99 103 101 103 99 103 100 106 101 104 102 100 102 101 131 136 142 136 131 121 92 74 82 90 87 104 116 130 115 107 106 113 126 124 141 140 129 134 136 124 132 139 126 133 138 137 136 145 144 143 140 119 119 115 108 114 122 126 124 118 106 93 86 64 68 76 81 91 85 90 79 93 78 38 43 39 47 36 44 42 44 41 103 96 102 101 99 102 100 101 99 102 103 102 98 103 102 98 105 104 103 104 103 106 102 97 125 131 140 141 134 125 114 87 71 78 86 101 101 111 120 112 91 103 114 126 128 139 135 148 141 128 130 130 115 123 127 126 130 137 137 132 128 122 108 108 108 104 112 117 109 105 85 84 63 66 75 80 86 84 89 81 92 51 107 75 30 44 45 41 44 43 39 45 101 102 100 101 102 99 104 98 99 102 102 102 99 104 101 106 100 105 102 101 106 102 101 99 113 135 138 142 134 130 115 106 79 75 74 87 99 96 108 107 95 95 101 119 121 127 133 136 134 131 130 124 106 116 109 108 118 127 127 128 112 108 96 96 98 97 97 95 83 82 69 64 57 75 78 83 84 83 86 85 91 50 39 122 51 35 43 38 48 39 41 40 101 101 99 101 99 103 98 102 100 104 99 102 101 99 104 98 100 104 103 99 106 102 104 98 108 132 136 133 136 131 124 117 93 77 75 78 85 90 90 95 94 91 99 109 110 118 126 130 126 128 132 129 114 101 101 97 107 108 108 108 103 93 90 80 87 87 81 84 66 66 59 64 67 80 81 88 83 86 91 85 96 47 8 90 119 31 41 38 43 43 41 45 101 100 98 103 100 101 102 98 104 98 103 104 100 104 97 105 100 105 99 99 105 101 101 98 101 136 138 135 136 131 126 121 103 87 77 77 77 74 79 80 89 83 92 100 101 113 112 122 117 124 116 131 118 102 105 100 100 88 88 88 79 83 75 75 73 70 63 67 59 52 68 69 71 83 81 74 89 86 88 82 101 43 3 49 149 51 33 41 36 40 40 44 100 102 100 98 102 97 102 99 101 101 102 102 100 97 103 103 101 103 102 100 102 103 104 97 100 126 136 143 140 133 128 125 115 99 83 75 77 73 78 74 75 77 73 84 88 98 101 108 112 120 100 107 109 97 95 92 88 75 80 73 75 64 73 61 62 63 52 51 60 60 70 74 75 84 78 79 84 90 83 85 96 50 2 23 130 114 18 38 39 40 41 42 98 103 98 103 99 97 103 96 103 99 105 102 100 104 101 99 107 100 105 102 101 104 101 102 90 126 133 141 140 138 135 128 120 102 90 77 79 75 77 68 78 72 73 69 70 83 76 87 94 103 85 82 91 83 83 77 74 69 71 68 64 62 58 58 59 57 53 64 61 67 78 77 83 87 85 82 87 86 84 89 91 42 1 17 114 139 35 15 29 31 40 39 96 102 96 103 100 98 105 96 98 102 98 103 99 101 106 96 103 104 102 104 99 102 103 96 90 113 133 138 139 139 137 134 126 109 95 88 76 78 80 75 82 70 76 65 67 68 70 64 73 72 72 69 70 69 68 66 66 63 58 62 58 60 52 64 56 59 63 64 65 72 75 84 84 89 85 86 87 85 87 85 98 40 1 15 112 142 69 13 22 31 21 46 98 102 100 95 101 98 98 97 103 101 100 103 98 99 100 102 99 100 98 104 100 101 97 88 36 103 136 138 142 140 143 134 126 119 106 90 84 82 85 81 81 74 79 68 66 71 59 58 61 64 59 61 61 61 55 63 61 52 59 66 54 61 63 59 68 55 76 62 74 77 80 86 88 84 89 89 86 84 88 81 95 46 7 14 117 135 119 6 23 25 23 25 99 98 98 95 104 94 99 99 100 100 99 101 99 104 99 103 100 100 100 97 100 90 82 59 13 130 130 134 138 141 144 140 129 122 115 97 90 87 84 78 82 76 77 75 73 73 74 60 61 58 56 60 59 54 56 61 63 62 63 63 66 61 64 63 61 66 68 74 72 89 82 92 85 88 92 87 87 87 86 83 91 39 13 13 111 130 143 16 21 21 26 21 101 100 95 101 98 104 99 102 98 102 99 102 97 101 100 101 100 101 98 100 83 55 67 48 58 195 124 131 136 143 144 140 127 127 119 101 98 87 91 79 79 84 81 75 73 77 75 70 70 68 58 61 68 61 64 68 64 67 69 56 72 62 63 65 67 67 66 75 84 86 86 88 79 91 88 88 88 86 87 80 86 39 18 14 116 128 146 46 12 22 25 28 