P2
92
112
255
102 103 103 102 103 103 103 105 100 103 103 103 103 102 106 102 105 102 104 105 101 104 108 83 52 55 58 66 62 53 54 57 58 55 52 49 56 60 57 47 51 53 62 62 63 73 59 59 56 54 49 47 47 49 49 61 46 65 69 61 64 77 94 84 104 102 101 106 101 100 105 101 102 103 103 102 102 102 102 101 102 98 102 103 100 103 101 101 98 103 100 101 102 103 103 103 106 101 103 105 103 103 103 103 103 103 105 103 102 105 103 101 104 96 71 51 38 56 45 52 58 64 52 41 53 57 48 59 50 55 59 57 53 50 59 56 55 51 50 51 48 49 45 48 46 52 51 49 43 39 53 55 58 67 99 82 82 106 102 103 104 102 103 104 104 104 103 104 100 103 102 102 102 102 103 101 103 101 99 102 100 101 97 101 104 102 102 104 105 103 101 102 104 103 103 102 105 102 104 106 106 104 102 99 80 61 35 32 38 47 48 42 39 44 51 43 44 41 50 46 42 49 56 63 49 55 50 47 47 55 53 51 45 47 47 44 41 44 58 65 57 40 32 41 51 55 68 91 74 96 104 102 102 104 101 105 104 102 103 102 101 103 102 104 100 101 103 100 100 102 103 97 102 101 102 101 104 104 102 103 104 103 103 104 104 103 104 103 105 103 104 103 105 105 95 66 44 40 49 46 55 51 47 48 50 45 42 52 49 52 41 49 52 50 54 52 54 51 52 52 43 43 36 38 41 37 45 50 52 54 49 50 57 64 52 31 33 52 41 77 80 79 104 102 103 103 102 103 104 102 103 101 102 102 103 101 104 101 102 102 102 102 101 100 100 102 102 101 102 101 104 103 102 106 103 103 105 104 105 104 103 104 104 105 101 96 69 46 29 39 40 53 48 47 52 53 54 61 58 56 54 63 62 58 70 58 52 59 60 48 52 63 43 33 49 43 39 40 43 44 59 55 60 53 53 60 54 48 37 36 36 53 81 70 96 103 101 103 101 101 102 102 102 103 102 105 100 105 102 102 102 102 101 105 104 103 98 103 100 102 102 106 103 105 103 103 102 105 102 104 105 103 105 105 101 101 104 78 45 30 33 35 42 47 38 45 54 60 64 52 56 55 59 65 64 56 59 68 59 54 57 66 55 39 46 46 44 51 53 62 69 60 67 66 73 71 60 57 39 45 57 56 31 33 69 71 82 97 99 103 102 100 105 103 104 103 103 101 104 102 104 103 99 104 101 101 103 100 102 103 100 97 105 102 103 105 101 106 105 104 104 105 106 104 105 103 102 103 83 52 34 36 35 38 39 47 38 47 43 41 55 52 52 53 56 57 57 60 54 53 57 54 47 43 64 62 36 51 54 56 53 45 43 41 44 46 44 56 59 54 47 35 42 73 65 38 48 67 59 98 98 98 97 101 104 102 104 104 102 104 102 102 103 102 104 101 102 102 103 100 103 98 102 100 102 104 105 103 105 102 105 102 107 102 105 103 105 96 77 59 41 35 42 52 50 39 45 42 36 37 28 27 39 49 49 58 59 58 54 48 53 50 49 51 47 39 46 52 49 47 40 43 62 48 48 44 33 35 40 40 33 46 39 28 33 27 76 68 51 55 45 83 99 99 93 97 103 102 102 103 101 101 103 102 101 103 102 102 101 102 102 102 104 101 101 100 106 102 104 104 104 104 106 101 106 102 106 103 80 49 35 42 34 35 41 37 32 39 48 38 37 36 36 24 25 36 50 50 53 58 58 52 56 52 57 61 53 46 34 47 50 58 56 43 53 63 49 58 56 41 43 38 44 43 58 47 31 23 24 67 63 48 33 75 87 87 98 96 101 102 100 101 102 101 101 103 98 101 104 103 100 104 100 103 103 102 100 104 103 104 103 103 104 103 104 102 106 105 98 61 39 33 40 40 39 43 48 44 36 30 28 28 30 22 37 43 29 33 50 69 66 63 55 50 67 65 68 74 63 69 53 41 41 50 59 52 35 48 56 58 47 49 49 54 30 42 39 67 68 21 20 25 63 63 30 60 97 75 85 95 101 101 101 98 105 104 96 101 103 103 100 103 101 103 100 105 102 103 104 102 104 103 105 104 104 102 104 105 104 100 60 32 23 28 31 42 33 31 41 50 42 45 40 36 41 35 38 35 50 48 48 62 67 65 62 67 66 63 66 67 74 67 64 52 39 36 45 56 47 33 43 46 63 61 44 47 41 54 38 32 71 60 18 28 29 48 54 39 61 82 66 75 93 94 95 92 98 100 102 99 100 99 102 103 103 101 102 103 102 101 102 101 106 104 103 102 105 104 102 102 99 50 18 34 29 34 35 36 39 31 26 41 44 50 56 60 62 55 55 53 45 46 51 56 69 66 64 64 63 56 54 45 61 63 64 65 62 44 28 36 44 54 47 43 46 64 57 50 43 52 64 38 34 48 40 33 33 20 40 58 32 53 52 60 67 85 86 87 84 69 82 88 95 102 98 102 100 103 105 103 103 106 101 101 103 103 105 103 104 99 89 67 34 24 25 40 49 45 44 53 45 36 33 35 57 61 58 51 56 50 46 54 50 40 54 59 52 63 58 61 61 58 60 61 69 64 52 53 62 80 62 51 41 33 45 56 45 50 64 58 46 43 59 66 39 32 32 38 35 22 21 34 51 32 31 39 50 63 69 78 84 91 65 61 71 82 93 101 98 101 102 103 102 104 102 102 105 103 103 104 97 76 56 30 28 32 29 32 51 51 42 44 40 37 28 39 44 57 57 54 58 44 31 40 38 51 61 61 56 62 60 55 53 50 53 57 60 89 90 74 54 48 72 69 60 50 44 46 59 52 47 62 81 51 49 60 66 55 47 37 34 36 28 23 26 44 24 26 43 46 44 33 37 43 37 48 71 79 81 84 98 100 104 102 102 102 102 103 105 100 105 88 70 44 32 31 29 28 30 36 39 42 41 40 33 32 34 34 48 53 53 55 51 40 42 31 36 41 55 56 61 62 62 49 49 47 46 47 59 74 86 91 88 68 43 54 62 65 67 48 55 51 49 41 59 81 64 41 49 61 68 64 50 51 44 26 25 30 37 28 36 43 48 44 33 30 29 39 51 74 92 84 78 94 102 105 103 102 99 103 102 106 85 62 30 38 31 29 24 23 38 31 32 33 46 37 33 29 32 32 40 45 54 55 60 57 46 35 31 43 44 36 54 61 54 51 45 56 60 57 59 73 65 72 79 80 66 52 36 37 55 65 72 63 60 49 59 58 70 66 57 45 32 29 34 29 35 32 38 34 39 37 23 41 53 50 48 35 38 46 51 45 57 68 85 76 94 104 105 103 103 104 106 93 64 36 29 36 36 28 22 22 31 28 32 28 38 32 31 30 28 29 26 38 41 54 67 75 79 69 53 39 35 46 43 53 52 48 55 50 51 63 81 72 71 55 46 50 52 53 51 49 36 43 44 50 48 46 58 56 51 49 59 65 64 39 30 35 26 37 31 40 20 33 40 37 56 34 56 38 43 41 32 42 42 49 59 82 79 95 103 103 101 103 105 81 39 23 29 39 24 24 23 34 34 37 37 32 30 28 28 27 26 29 27 31 38 39 56 60 66 71 71 57 50 42 41 44 52 54 45 71 78 66 54 69 68 58 52 40 25 35 37 40 44 43 47 38 35 38 42 52 55 46 48 59 66 47 45 40 28 30 28 38 30 24 19 33 45 57 26 47 41 40 31 41 41 39 44 58 80 80 98 100 102 101 106 66 24 17 38 30 25 21 27 30 29 35 28 32 29 30 26 28 31 32 24 32 52 54 71 77 75 69 68 62 59 54 42 44 48 45 55 61 80 70 62 50 48 41 43 40 30 31 32 25 32 31 36 37 38 38 36 35 40 42 53 49 48 53 61 40 50 30 23 35 25 28 22 17 23 55 48 26 39 34 36 43 38 32 45 46 45 76 93 101 102 102 110 55 21 11 45 31 28 24 26 22 27 23 27 29 29 31 27 28 27 29 29 33 40 47 55 63 72 74 77 72 63 65 58 69 70 74 60 55 53 86 76 45 35 34 33 36 31 31 31 32 36 36 36 35 41 40 44 42 39 40 34 44 45 42 46 46 42 49 31 37 28 21 27 19 19 22 85 45 33 32 36 43 33 30 35 46 38 50 70 99 106 99 102 40 16 18 41 29 26 24 23 23 24 21 30 31 32 32 32 30 26 27 26 28 38 40 44 47 57 60 64 64 71 72 78 73 64 58 48 45 41 50 54 60 48 41 27 26 31 30 31 34 31 32 37 41 46 46 47 47 47 55 54 48 45 48 46 39 43 44 38 33 32 28 18 26 18 16 49 50 43 37 36 42 31 37 34 45 44 41 62 64 105 102 88 28 14 20 38 29 28 23 27 30 19 23 26 25 27 31 27 29 26 30 25 29 28 29 33 34 42 42 44 52 54 59 62 66 57 50 38 36 28 41 50 33 35 53 52 32 23 28 26 33 32 41 49 63 83 89 94 105 104 99 99 102 90 74 68 73 68 50 53 34 37 29 24 21 24 10 27 46 32 45 37 35 36 43 41 47 50 42 58 62 73 102 99 30 14 26 50 30 26 30 36 37 23 21 25 25 23 29 30 24 28 27 24 22 25 31 34 41 46 48 47 51 62 63 56 59 59 57 50 53 40 34 33 33 32 33 41 43 37 34 36 43 60 58 99 129 146 158 165 167 162 163 154 153 143 122 127 130 109 95 76 65 46 34 29 22 33 17 21 42 35 45 46 34 49 43 51 48 48 40 55 65 64 84 107 34 21 27 50 36 24 25 42 42 26 26 27 24 27 28 25 24 24 22 24 21 28 30 37 39 50 59 67 64 67 76 76 70 69 52 52 54 55 42 40 33 32 37 39 42 40 47 65 82 95 114 155 175 181 190 189 191 188 187 184 184 169 166 160 159 151 138 110 100 86 49 32 20 28 22 24 41 32 44 49 42 53 46 57 52 51 37 51 57 66 77 101 43 23 29 36 39 27 21 27 32 30 25 28 23 27 31 24 26 24 24 27 28 31 33 39 40 49 49 51 56 63 64 69 61 73 67 50 42 42 40 41 43 43 38 45 60 44 79 92 105 142 162 187 194 193 195 196 196 199 194 190 190 190 186 183 175 164 154 140 125 128 98 49 35 26 25 16 41 41 40 47 51 59 55 53 64 54 40 47 52 49 77 94 52 26 27 27 30 30 20 19 21 28 22 29 27 26 30 26 28 25 29 26 30 34 34 35 42 45 48 47 53 54 59 64 70 80 73 64 62 57 53 46 44 50 49 61 61 73 102 114 142 183 188 197 199 197 199 201 200 201 196 197 199 193 191 191 187 178 169 157 148 146 131 92 45 31 33 14 44 46 45 35 58 52 63 50 62 63 31 48 56 43 51 87 56 30 25 28 22 22 25 22 24 26 29 27 28 28 27 28 26 23 26 34 38 37 41 40 53 55 58 60 64 61 72 82 77 71 74 72 62 63 61 65 65 61 74 84 81 111 126 145 181 195 196 200 199 201 204 202 201 202 200 200 203 199 197 193 188 187 182 172 156 156 151 136 72 35 30 36 38 41 47 35 48 48 58 44 61 61 43 51 53 52 22 91 49 25 28 28 19 19 26 26 29 30 27 22 24 29 26 27 22 31 35 48 44 42 48 53 64 61 68 73 78 76 87 91 87 86 86 85 78 82 80 80 80 89 97 106 114 132 163 187 197 198 203 205 205 205 202 203 203 203 203 203 203 201 198 197 188 191 187 179 170 163 166 150 117 49 28 38 38 40 36 24 34 34 63 51 50 52 36 56 51 54 23 91 38 17 23 22 18 21 21 26 26 31 24 24 28 24 27 24 22 35 52 51 51 57 66 67 72 75 82 83 91 95 97 102 105 103 104 109 103 97 98 100 114 113 125 127 138 179 189 199 200 203 206 206 207 206 204 204 205 202 203 204 203 202 200 199 192 190 190 182 176 169 169 161 128 85 40 32 43 48 34 41 25 31 48 74 36 45 41 53 44 53 21 87 24 20 20 26 21 28 23 21 19 19 25 23 22 24 26 24 27 40 61 55 63 74 77 76 77 88 89 87 97 108 111 109 115 115 112 120 109 105 117 127 128 128 139 140 173 194 193 199 203 202 207 206 208 206 205 204 203 203 202 203 205 204 200 195 197 195 192 183 180 174 178 175 150 111 57 36 41 54 45 37 38 31 33 67 70 30 42 49 39 42 31 83 16 29 34 30 30 23 19 19 22 18 20 21 18 27 23 26 36 46 59 70 77 82 84 87 85 93 91 98 107 116 120 119 119 121 123 118 118 127 132 138 135 148 146 164 192 196 197 198 203 206 206 207 206 206 203 205 203 204 203 203 204 202 201 198 199 198 191 187 179 179 178 180 161 137 83 56 35 58 63 47 35 32 38 43 69 45 41 44 37 34 39 84 28 28 35 26 21 20 21 23 20 19 20 21 21 21 24 32 43 52 67 84 93 90 96 97 103 112 109 113 113 123 130 135 140 145 148 145 148 146 147 144 152 157 156 186 196 200 200 199 202 203 206 207 207 204 205 204 203 205 205 205 202 204 201 202 197 200 194 186 185 185 180 183 169 149 107 84 47 57 70 59 38 29 36 42 48 57 42 41 35 30 44 85 41 32 31 19 23 25 22 20 19 22 19 22 26 28 24 34 48 61 84 89 104 102 109 113 126 130 131 132 137 138 139 147 152 155 160 159 159 155 159 157 167 172 182 193 197 199 203 200 205 206 205 205 205 205 205 205 204 206 204 205 206 203 202 202 199 198 192 188 188 188 186 185 179 158 127 101 68 48 71 85 49 55 23 43 44 36 50 34 33 30 32 85 55 26 30 22 26 22 16 18 21 23 23 27 27 27 29 44 61 75 87 100 116 118 122 121 136 142 142 148 154 148 160 166 159 155 162 169 167 162 166 168 175 185 195 197 198 200 201 202 204 206 205 207 205 205 205 205 205 204 204 206 206 204 201 201 199 199 192 192 193 190 191 187 178 163 135 116 80 62 61 80 61 69 38 25 42 37 33 35 33 26 20 63 45 29 24 17 22 19 16 23 28 23 26 30 29 34 44 62 78 87 91 106 123 126 130 139 147 154 151 160 159 154 167 168 171 173 173 173 170 176 179 174 178 195 195 201 200 199 201 202 204 206 205 207 205 205 206 205 205 205 206 206 205 203 201 201 200 195 193 193 194 195 190 188 183 168 137 118 96 62 68 53 83 50 64 18 29 37 27 35 29 23 26 42 33 28 24 22 16 20 21 28 27 25 30 28 38 50 57 74 88 95 100 114 131 135 140 155 157 156 154 160 162 158 167 168 173 173 174 169 179 182 183 184 185 194 198 200 199 201 203 202 203 205 205 207 205 205 206 204 204 204 204 206 204 204 203 201 197 197 193 196 196 198 191 184 184 170 145 120 103 70 63 56 62 68 61 33 16 32 23 26 32 17 37 31 20 26 24 24 18 23 26 27 27 29 28 35 47 59 73 82 95 103 104 124 137 141 148 155 157 158 152 159 163 165 170 169 172 172 175 180 182 186 190 191 190 191 196 201 203 200 201 205 203 205 206 206 206 207 207 205 204 205 204 204 205 204 202 202 200 198 198 197 197 197 193 188 182 168 158 122 119 83 65 54 51 63 64 44 20 27 27 16 32 24 27 25 22 20 24 26 23 24 25 30 25 27 32 50 56 70 83 89 110 110 118 139 142 149 152 155 159 164 159 162 167 169 173 174 174 173 184 181 186 190 196 195 191 194 199 204 200 201 203 203 205 207 205 206 205 205 206 205 205 205 204 206 203 204 203 203 200 200 200 197 199 200 189 189 181 170 163 140 120 91 69 57 56 43 60 53 25 22 26 23 23 26 19 24 25 23 24 23 22 28 24 25 26 29 40 48 65 81 95 102 126 127 128 146 146 155 158 163 168 169 166 168 174 176 182 177 182 186 182 185 192 195 194 198 196 198 200 202 200 202 200 203 204 206 205 206 204 205 206 204 207 205 205 204 204 203 204 202 203 200 199 200 198 199 197 184 177 171 160 142 129 101 57 52 66 54 57 48 51 24 21 23 23 27 24 21 21 22 21 23 20 24 25 28 35 35 39 58 74 97 108 119 133 139 135 153 153 166 170 173 173 174 181 182 179 186 189 189 190 189 188 194 198 198 196 198 199 199 201 202 202 203 203 202 205 205 205 204 204 207 207 203 205 205 205 203 204 203 203 203 201 201 201 200 198 199 196 187 174 172 167 149 125 115 62 34 52 64 58 60 37 48 31 19 19 19 22 21 24 23 24 20 19 26 28 31 39 31 51 59 85 103 118 126 131 140 139 152 161 170 179 179 179 180 185 190 188 190 194 194 194 195 198 199 199 198 199 200 202 201 202 203 203 203 203 204 204 205 205 205 205 207 206 204 206 206 205 205 203 204 204 203 201 197 200 199 196 198 193 188 177 169 164 156 134 113 76 33 24 68 49 63 37 36 40 32 21 19 19 20 22 21 24 16 32 23 36 32 38 36 48 60 78 106 115 131 136 135 142 149 162 174 182 183 188 188 187 190 193 196 198 197 199 197 199 202 200 201 201 201 202 204 202 203 203 206 205 203 204 206 204 205 208 206 207 205 206 207 205 206 205 203 202 202 199 200 197 196 197 194 191 186 176 170 162 161 141 110 75 44 24 39 60 43 55 23 43 32 26 27 17 40 22 20 18 21 29 27 33 43 35 34 43 55 74 105 116 132 137 133 134 147 165 176 187 187 193 192 190 192 190 199 201 199 198 200 199 201 201 201 201 201 205 204 204 205 205 206 204 205 206 206 204 206 206 207 208 204 206 205 204 205 205 203 202 204 193 190 198 198 196 198 191 184 176 167 162 165 144 112 77 38 33 28 47 39 49 35 33 25 24 21 26 48 20 21 19 23 26 30 39 38 38 38 38 54 83 107 118 131 132 132 133 151 169 177 185 189 192 192 192 190 193 193 196 198 197 198 197 199 199 199 201 201 204 205 208 207 207 206 204 206 206 203 205 205 205 207 208 204 205 206 206 206 204 202 199 196 192 184 192 195 192 195 194 190 175 163 162 165 147 116 81 36 29 34 37 37 34 39 23 32 25 22 21 38 24 22 21 21 26 36 44 30 37 39 36 50 89 109 117 128 129 126 128 153 171 178 179 176 185 184 186 182 186 191 187 191 191 193 196 195 195 196 201 197 199 202 208 205 207 206 204 204 206 204 205 204 204 205 205 203 204 206 204 203 203 197 194 187 183 174 172 170 170 168 192 188 180 166 162 166 150 120 80 31 29 31 35 34 30 32 21 19 28 27 21 44 21 23 26 21 26 43 43 29 42 37 35 46 92 109 114 127 123 123 136 152 169 165 148 142 153 161 168 173 172 169 173 177 177 178 178 180 186 186 193 193 193 195 200 199 203 202 201 201 202 203 203 200 201 197 197 196 198 199 194 185 181 174 164 155 155 143 132 133 126 138 154 177 177 160 158 161 154 129 84 27 31 27 32 30 28 28 25 11 20 26 22 56 27 24 24 24 25 41 50 30 50 31 30 49 90 106 112 126 118 117 122 123 121 109 104 113 107 119 133 142 140 134 126 132 137 122 127 130 137 150 175 177 170 184 188 193 194 195 196 195 195 199 199 195 189 180 174 166 156 152 134 123 132 127 114 102 104 98 84 85 83 86 106 114 121 130 145 160 148 133 91 19 27 26 30 29 24 34 22 17 17 24 28 70 30 32 22 24 27 32 56 37 47 33 33 51 89 107 111 115 106 88 83 76 69 62 67 71 81 78 83 86 86 79 74 87 92 84 81 90 87 101 138 156 139 141 155 182 185 191 190 189 188 193 193 183 159 142 122 100 105 84 97 96 93 89 67 82 79 78 73 67 65 90 73 78 68 75 88 151 151 132 91 23 20 22 32 25 24 23 27 15 21 23 32 62 35 25 24 20 20 30 49 43 44 34 30 47 90 101 111 108 85 69 52 46 54 60 59 64 68 62 50 53 55 47 55 54 59 55 50 50 69 88 99 123 131 101 131 169 164 183 186 180 171 182 178 149 120 100 81 82 65 61 59 63 56 58 54 55 56 57 72 60 54 68 90 78 70 63 79 95 152 136 102 27 18 23 24 28 19 22 20 23 20 26 33 67 35 24 23 35 26 29 31 45 43 40 32 45 85 102 109 100 81 69 58 59 61 64 70 69 66 63 54 51 44 38 44 37 36 39 37 45 51 73 89 94 101 90 131 144 149 160 174 163 159 156 158 124 94 87 88 71 50 46 47 45 38 40 46 51 56 74 87 90 89 85 97 123 119 97 81 75 137 141 108 40 24 17 24 25 23 21 23 17 19 36 29 71 45 28 19 32 39 24 26 35 48 42 33 39 84 100 107 100 83 79 85 97 105 113 116 131 121 95 86 96 88 79 69 65 60 61 64 61 67 79 87 91 93 108 128 129 128 140 145 135 137 139 123 94 86 68 76 76 44 45 38 39 44 51 71 88 96 115 127 125 136 133 146 154 154 131 114 95 136 137 118 41 33 18 21 25 16 22 27 20 21 23 38 77 53 46 15 29 42 45 16 36 46 40 31 39 89 99 103 104 101 107 142 155 150 148 149 148 149 122 118 115 111 107 103 110 117 114 122 123 128 133 152 152 149 151 149 154 157 166 168 172 175 176 170 167 169 180 173 151 128 123 123 120 117 106 116 112 89 133 131 135 138 133 146 155 160 151 145 127 135 137 122 46 39 21 17 23 19 18 20 29 21 26 31 71 63 63 27 26 38 61 22 38 42 36 25 30 90 95 102 115 125 131 132 131 131 134 129 123 113 122 115 100 93 82 48 124 127 126 90 88 100 107 117 122 75 82 103 112 116 130 122 143 143 146 129 102 99 155 167 132 124 114 107 100 106 110 126 132 150 197 188 183 185 133 118 125 134 141 148 149 136 135 124 54 33 21 16 21 22 16 17 25 24 26 18 70 66 84 56 38 52 62 37 34 54 23 24 32 82 108 128 102 101 122 120 115 127 129 116 115 95 179 173 100 85 105 74 216 213 212 238 105 88 87 93 120 124 64 89 112 130 139 150 154 141 133 112 104 128 126 112 101 83 66 94 106 89 72 70 101 224 201 194 154 102 129 152 150 140 135 136 128 137 131 133 48 34 13 21 34 31 17 22 25 23 24 24 72 66 89 70 84 63 53 30 21 77 25 15 35 87 136 109 67 96 128 119 117 126 112 102 93 89 94 104 91 57 156 75 115 192 196 191 97 86 97 85 88 124 86 104 146 172 173 177 193 186 166 99 114 120 106 101 92 91 80 132 173 120 25 86 87 193 200 212 185 84 94 122 145 148 163 117 103 134 117 128 56 32 7 36 50 45 17 36 28 20 28 44 70 63 98 104 113 91 51 26 13 87 44 19 39 125 128 90 65 95 130 126 120 125 115 95 92 106 118 98 94 80 83 105 67 139 149 116 96 93 101 96 81 113 147 159 134 137 125 135 161 166 168 137 131 134 132 131 119 101 89 133 135 83 49 100 143 40 117 151 100 54 94 121 130 140 164 116 32 46 138 115 74 21 10 39 51 27 59 57 24 15 41 90 72 59 100 122 110 98 59 30 16 70 129 94 104 149 129 103 64 100 133 141 128 126 118 115 120 130 140 126 122 108 88 93 108 147 151 120 106 94 116 116 83 97 101 141 141 147 149 166 182 176 190 138 137 149 165 166 141 119 116 151 147 88 77 70 79 82 103 139 119 90 85 126 135 141 163 116 26 34 71 157 66 16 12 46 38 53 131 91 12 24 75 99 70 59 106 114 101 97 73 47 28 71 48 159 158 164 125 113 69 111 138 147 149 143 131 130 139 144 145 142 150 157 162 155 163 153 148 143 145 140 144 150 106 111 150 112 116 139 115 127 149 128 112 130 152 163 170 172 143 141 123 125 136 127 107 113 128 125 131 130 129 116 114 132 138 155 167 130 12 55 56 147 95 11 65 56 65 130 154 119 13 62 97 99 64 67 111 101 89 79 77 52 48 52 29 125 162 164 117 122 65 117 149 147 162 156 149 118 125 137 145 148 155 159 167 157 163 157 150 145 144 146 145 128 115 145 161 124 162 191 184 184 191 164 93 162 146 175 172 173 157 147 134 130 136 144 137 153 167 159 157 145 138 132 135 156 154 165 174 129 10 87 105 132 139 73 117 64 89 144 142 146 33 88 99 100 62 73 112 93 69 70 74 65 53 67 49 23 146 161 112 127 82 126 150 151 164 170 167 156 131 129 137 141 147 141 144 139 137 142 142 148 153 145 131 121 118 182 131 143 187 200 197 197 201 206 123 167 142 174 171 164 146 142 137 133 130 131 136 140 149 147 146 146 143 143 153 152 155 167 177 123 70 99 107 125 139 91 80 35 86 126 139 147 85 95 96 101 61 69 117 103 83 69 73 65 99 132 87 50 143 170 111 119 117 127 146 156 164 175 176 179 172 166 165 166 165 162 167 168 165 163 164 167 161 155 143 122 145 187 124 165 195 202 199 201 200 201 173 142 151 177 180 174 158 153 170 168 166 166 160 154 155 157 153 158 159 163 165 157 149 157 172 121 109 101 102 126 135 52 82 70 105 121 131 158 104 91 100 101 69 54 123 116 96 87 82 83 147 159 101 75 136 173 118 95 135 123 143 156 165 180 179 181 180 181 181 180 179 178 175 180 177 173 174 172 173 170 145 124 184 156 132 175 190 198 197 202 201 200 199 122 167 160 192 188 183 177 182 181 182 187 177 181 184 182 180 176 173 176 176 166 159 151 150 133 145 93 103 126 124 83 105 110 113 124 136 153 108 91 100 98 71 49 116 136 113 102 107 112 148 152 101 87 110 182 122 100 138 141 147 163 173 181 175 178 178 181 181 180 179 181 180 185 184 174 175 179 183 167 139 158 172 124 154 173 188 197 191 199 202 200 197 137 166 149 196 191 191 188 185 186 182 183 178 182 186 187 182 184 181 179 181 175 160 140 127 137 142 93 102 130 114 159 142 134 137 141 148 169 99 93 99 99 69 60 86 141 137 108 124 134 139 139 101 95 68 175 134 96 118 134 143 164 179 179 173 170 173 178 177 177 180 179 181 183 179 177 181 180 183 152 158 186 132 140 165 174 188 196 195 200 201 196 188 179 127 160 176 199 193 189 189 189 184 189 184 185 187 187 185 188 183 183 180 173 158 140 134 133 109 104 103 138 105 172 176 157 151 148 169 164 88 96 98 101 68 54 83 108 139 142 124 121 136 135 99 93 65 144 166 106 98 121 133 154 164 162 159 157 159 173 173 177 181 181 180 184 181 180 180 183 168 152 154 144 133 155 165 180 194 200 200 201 200 199 192 185 154 143 149 199 192 188 190 191 194 189 190 188 184 185 183 180 184 185 180 167 156 141 153 133 97 102 111 140 96 176 174 157 151 158 174 138 87 97 99 99 68 59 78 103 116 157 131 105 125 138 94 86 86 73 212 173 117 123 137 142 140 147 145 151 153 160 163 168 171 165 172 173 169 175 185 178 166 157 122 132 150 162 172 186 195 205 200 202 201 198 193 184 181 147 118 173 195 189 191 194 192 186 184 184 178 172 176 179 178 189 186 170 157 153 155 136 84 98 130 130 98 173 171 135 143 157 161 109 93 98 98 97 69 67 61 117 122 141 149 136 121 130 97 86 89 71 132 222 177 128 135 149 147 143 140 145 150 154 155 163 163 164 170 173 172 182 181 173 150 129 124 138 151 169 181 189 199 203 201 200 203 199 194 192 180 186 145 117 194 192 189 192 191 183 181 177 175 167 168 176 176 180 176 171 167 156 150 126 95 111 161 100 110 173 151 143 150 155 138 93 97 96 98 95 71 68 54 104 134 115 129 149 118 111 96 86 86 86 87 110 177 189 178 163 163 163 163 160 154 154 157 163 162 168 175 187 182 182 170 140 123 124 133 135 159 172 184 191 202 205 201 202 202 198 194 193 186 175 180 123 144 197 191 190 187 180 179 171 171 164 164 170 172 177 172 168 171 152 148 132 123 178 147 86 123 159 134 161 152 124 135 94 97 98 98 95 68 70 58 90 118 118 101 110 96 78 96 88 92 84 96 96 88 99 136 155 175 193 189 185 182 183 186 188 187 191 194 188 168 135 128 134 119 137 147 143 163 169 180 198 205 205 203 202 202 199 197 195 189 180 179 178 108 128 185 206 189 184 181 172 164 164 168 165 175 173 171 169 159 154 153 174 209 182 110 96 130 146 150 171 155 142 139 82 99 100 97 97 66 71 64 70 91 91 106 106 108 89 83 85 88 87 92 98 101 97 88 88 79 90 103 115 119 129 132 131 126 115 110 109 120 141 160 137 125 157 154 153 152 158 179 193 204 204 206 205 201 199 196 190 190 182 187 190 168 102 89 119 162 186 193 191 192 190 190 188 185 179 173 182 180 182 174 156 150 143 122 109 119 165 172 165 149 142 105 95 96 99 96 99 67 69 69 65 61 100 114 113 122 121 89 77 93 90 88 96 98 98 93 89 89 96 99 99 99 104 107 109 113 117 130 147 159 169 163 119 139 160 158 146 140 129 161 187 196 202 205 205 203 197 189 185 184 182 187 196 196 159 145 128 103 92 97 105 119 120 125 127 130 128 131 129 131 118 113 121 144 142 117 103 118 150 157 149 146 135 94 95 95 98 97 96 69 69 68 70 64 65 97 95 104 107 85 73 90 93 85 91 94 98 95 87 96 99 109 112 119 124 134 142 148 155 158 161 162 164 141 106 138 146 148 129 115 107 128 174 192 196 198 200 195 188 176 172 171 171 185 189 193 168 176 186 173 158 148 137 123 121 120 120 123 122 117 119 122 122 124 129 145 127 112 110 143 151 138 135 138 112 88 97 97 96 94 95 68 68 68 70 66 68 71 69 75 75 63 68 85 97 91 81 95 100 97 104 108 122 133 139 142 147 150 148 152 157 159 157 160 145 114 110 115 115 117 99 80 83 89 138 172 183 184 184 182 164 149 146 140 155 170 176 174 164 171 184 175 174 178 176 172 159 148 142 136 136 132 140 144 143 143 144 132 121 109 132 163 156 140 135 108 94 98 96 96 98 94 98 70 69 68 69 68 66 67 68 69 66 68 62 83 93 95 81 94 97 104 112 121 126 138 143 146 147 150 142 150 158 159 158 148 126 105 113 100 90 91 73 48 32 57 93 124 148 157 153 137 121 107 72 67 109 133 151 148 154 169 175 171 175 176 170 178 174 171 167 164 163 164 166 162 156 151 144 124 118 109 136 148 140 122 100 96 95 96 96 98 96 95 96 72 67 69 67 68 65 69 70 69 66 72 59 80 91 92 92 87 99 104 110 117 127 135 142 145 148 149 153 154 158 164 156 137 111 109 114 115 79 72 59 59 47 43 69 88 108 120 121 115 103 106 101 82 71 99 114 129 160 174 174 168 170 173 170 179 175 174 170 166 167 169 162 164 153 150 138 115 120 107 98 101 103 95 95 95 93 97 93 95 95 95 93 67 69 66 67 71 65 70 68 68 66 71 65 68 87 93 96 80 95 100 108 115 127 135 138 143 151 151 161 161 165 165 159 138 121 119 120 121 87 59 60 62 61 63 63 76 84 97 106 126 147 150 147 149 127 99 118 151 166 172 180 177 170 166 173 178 173 171 170 166 168 168 165 158 151 142 130 116 125 102 91 96 98 96 97 97 92 97 95 95 94 94 95 68 67 67 67 70 70 66 66 68 69 68 68 61 82 93 100 86 89 100 106 111 124 130 138 143 153 156 161 166 171 171 161 145 135 130 128 122 107 81 74 66 63 69 70 70 79 82 99 124 144 151 144 148 149 157 153 164 163 169 173 176 179 170 171 176 175 175 173 169 170 167 164 153 143 136 121 120 125 97 91 97 96 97 93 95 95 93 95 95 93 95 94 67 67 67 67 68 66 66 65 69 70 64 68 62 77 91 98 89 86 97 106 113 126 129 136 147 153 161 160 165 170 172 169 155 148 142 144 127 121 103 96 85 86 86 85 85 96 104 112 124 142 150 151 149 145 152 149 156 167 171 175 175 180 176 174 176 172 174 177 174 169 164 160 146 138 132 117 125 120 95 92 96 95 94 93 96 96 96 92 94 95 91 95 69 64 67 68 65 67 66 64 67 68 66 69 62 68 93 98 93 84 91 99 114 124 127 133 147 157 162 167 169 171 170 167 160 150 146 145 139 130 119 113 118 120 132 121 120 122 141 139 146 150 166 156 157 149 146 146 152 161 169 176 170 180 180 175 178 177 173 177 174 173 167 159 141 138 127 117 125 120 92 92 96 93 98 92 94 92 96 92 93 97 91 95 66 67 67 67 69 67 65 68 67 67 63 70 62 65 89 95 98 86 86 97 112 121 132 136 148 155 163 168 172 168 166 158 149 147 148 144 140 139 130 137 131 143 157 157 155 159 163 160 168 164 162 160 155 155 152 153 147 153 164 165 165 178 180 176 168 175 178 176 176 173 167 157 144 134 121 122 126 109 91 94 94 93 94 95 92 94 93 95 93 96 90 94 68 67 63 67 67 66 68 66 66 69 67 67 67 57 88 96 94 86 86 96 104 121 130 137 146 156 163 165 163 162 157 151 138 141 145 140 143 144 139 139 137 144 152 167 173 175 176 169 167 169 169 164 155 154 152 160 151 147 147 160 155 169 175 170 168 167 178 176 171 167 166 150 136 135 121 123 130 106 88 96 94 95 91 94 94 94 89 93 92 93 93 92 65 67 63 67 67 64 66 68 65 65 69 65 66 64 75 101 90 93 85 95 104 119 125 138 145 154 168 162 155 158 150 143 130 134 135 141 147 148 160 154 152 161 167 178 188 185 188 176 167 170 178 179 165 150 152 156 147 152 148 153 145 165 164 158 162 164 176 179 166 168 162 140 137 138 122 129 128 96 92 94 93 95 95 96 93 92 95 91 93 91 93 95 63 67 66 67 65 66 64 67 67 66 65 65 65 61 69 99 90 94 85 93 99 113 126 135 140 155 171 158 155 150 139 133 133 141 137 145 155 158 168 173 173 175 177 186 193 194 195 189 180 173 187 182 170 158 159 160 154 158 152 153 141 157 161 154 154 162 173 177 171 167 158 139 142 133 123 128 122 92 94 92 94 93 92 95 93 91 94 92 92 92 90 89 65 66 65 66 67 65 63 63 69 64 65 65 67 65 62 94 93 93 89 89 96 105 125 129 134 155 163 161 147 141 137 125 131 142 142 142 152 151 146 160 165 165 170 176 190 191 194 191 185 181 182 186 179 174 171 173 169 154 152 158 145 155 156 155 154 158 172 178 171 164 156 136 147 127 123 131 114 89 92 92 93 93 92 95 91 94 89 93 93 89 91 91 64 66 65 66 64 67 67 64 65 65 63 66 64 65 57 85 90 94 90 84 92 99 119 130 131 152 157 157 151 146 130 121 117 110 97 93 102 99 90 96 100 98 105 106 132 160 179 172 161 139 134 129 131 135 142 152 156 147 147 159 153 150 152 152 153 161 174 177 171 162 148 134 144 122 122 131 105 89 92 95 93 94 92 92 88 94 91 91 90 91 90 88 63 63 63 64 65 64 67 64 66 65 63 67 65 65 59 76 87 91 93 81 86 90 111 127 131 149 158 153 145 142 120 99 74 53 37 48 48 67 60 68 73 62 66 72 65 72 96 104 103 96 87 89 96 90 90 89 96 97 110 132 148 154 155 162 159 162 171 174 169 159 138 134 137 121 125 126 96 86 94 91 92 89 93 90 93 90 91 91 89 92 88 91 66 66 63 64 64 64 64 65 64 65 63 65 64 67 60 71 83 88 90 87 80 85 99 121 128 145 159 156 148 145 119 79 40 25 15 30 47 76 71 85 97 86 82 101 103 92 78 102 110 117 109 79 98 88 73 76 59 46 48 67 103 140 157 168 168 162 171 170 166 155 137 135 127 122 128 118 86 88 93 91 91 91 90 92 92 90 91 91 89 91 87 92 65 65 64 65 65 63 64 65 61 66 64 63 65 66 58 76 77 84 88 88 82 77 88 111 129 141 164 167 153 147 144 107 69 48 34 24 20 59 66 63 103 84 100 123 131 128 121 147 156 159 147 114 127 100 65 84 37 22 32 40 54 110 149 168 173 169 172 178 163 146 129 131 125 121 128 102 87 92 91 90 92 91 90 90 90 89 90 90 91 89 89 87 64 66 62 63 64 63 63 63 63 62 65 65 63 65 58 76 82 83 87 87 82 77 71 96 122 144 162 168 158 153 156 151 130 111 86 70 46 40 35 35 40 34 65 104 121 129 122 152 149 151 140 65 102 90 41 41 43 67 89 102 118 107 146 161 171 167 171 177 161 134 125 128 122 122 118 92 90 90 91 90 94 91 89 91 90 90 91 91 90 90 89 88 62 67 61 67 62 66 64 65 63 63 66 62 64 62 62 76 89 78 81 88 81 81 66 86 103 146 156 164 161 151 158 157 144 133 133 114 110 104 94 84 65 68 65 63 74 63 74 99 88 125 141 111 135 146 96 79 101 112 120 134 153 152 150 158 163 167 178 174 152 131 124 124 119 121 108 82 92 92 92 88 91 90 90 93 87 91 91 85 89 90 87 89 60 65 65 63 65 64 63 62 64 65 65 61 66 61 50 100 107 74 79 83 86 80 67 70 94 133 148 163 167 161 151 147 142 127 125 115 118 127 136 144 129 105 96 106 126 120 118 148 130 156 177 128 120 126 116 120 124 133 126 142 160 169 160 162 159 175 180 170 143 124 123 122 122 114 93 86 91 89 92 90 88 90 92 90 89 90 90 91 87 90 87 91 61 62 62 63 63 63 63 62 65 64 62 61 60 39 79 159 99 96 71 79 87 84 74 62 74 129 143 159 173 167 145 147 139 127 118 106 108 115 134 149 159 143 138 135 133 131 120 126 125 133 146 127 132 139 136 133 126 130 130 149 170 167 162 161 166 177 179 161 128 119 122 123 121 109 53 65 79 82 87 88 88 91 88 87 90 86 92 87 89 90 86 87 65 62 62 63 61 65 63 61 63 55 47 38 56 79 151 180 89 107 79 76 86 89 81 67 57 104 131 149 169 174 134 149 144 129 112 108 103 106 114 124 150 152 153 161 162 160 153 147 156 167 165 167 163 150 132 126 125 128 142 162 172 167 168 172 167 164 171 147 119 120 126 125 115 133 72 32 40 46 56 75 85 94 86 89 89 87 90 88 90 87 86 89 63 62 63 63 63 62 59 57 50 47 27 51 115 151 175 189 93 102 97 67 85 85 91 82 68 75 127 149 165 190 150 139 146 136 110 97 103 101 104 111 126 140 143 154 158 161 155 150 156 152 153 163 151 130 124 122 128 131 153 165 171 165 175 175 166 165 165 129 116 122 131 110 135 164 148 71 26 39 43 37 59 76 83 86 86 89 89 87 87 90 86 88 62 64 62 60 62 61 51 42 45 33 40 117 145 166 191 174 93 94 99 77 77 86 93 91 89 66 103 137 161 180 186 135 140 140 127 96 85 94 103 100 108 124 131 137 137 147 145 147 142 142 138 133 125 123 122 125 130 143 158 166 169 169 173 174 172 163 143 115 122 127 133 81 178 192 132 154 56 31 33 47 42 47 52 64 85 88 87 85 87 87 87 86 64 63 64 58 58 42 39 36 37 16 98 126 163 174 204 127 89 94 91 97 67 81 93 96 97 88 78 122 144 160 185 160 134 142 137 113 96 78 84 90 94 113 117 120 126 136 134 132 129 128 124 123 121 120 122 126 135 152 157 163 165 167 165 172 168 160 127 120 130 123 125 63 174 207 145 128 154 38 24 46 40 43 47 44 54 74 86 83 88 88 84 88 63 61 59 52 47 44 46 35 22 37 124 156 170 183 204 75 86 100 88 86 90 70 78 89 93 92 81 101 139 150 177 179 152 140 142 132 116 101 84 72 72 82 91 89 92 106 111 109 98 102 107 113 108 118 124 137 144 153 154 163 166 172 170 174 163 152 122 120 131 120 113 42 169 212 163 143 122 141 38 29 31 52 42 44 37 43 64 79 82 77 83 83 61 53 52 47 45 42 34 36 13 76 151 171 171 191 189 39 84 98 91 90 99 80 65 80 91 101 75 97 116 135 145 172 166 154 150 142 128 125 120 103 87 87 90 90 82 88 95 100 93 98 102 109 119 125 135 144 152 148 153 162 171 175 170 164 157 142 113 121 121 99 124 30 168 215 171 147 140 122 126 27 25 49 27 40 36 33 41 56 67 70 79 83 52 46 47 49 37 44 28 33 16 124 173 170 174 199 156 23 79 100 90 93 97 95 70 65 85 102 74 92 114 131 134 148 165 162 160 150 142 140 142 138 127 119 114 111 108 99 108 115 112 118 117 127 135 141 144 146 153 149 157 170 178 175 147 148 152 129 114 112 95 103 138 16 165 216 182 129 158 130 115 97 18 34 38 44 40 38 36 38 45 52 71 82 45 44 45 45 39 45 34 24 46 169 171 170 175 203 126 13 82 98 94 93 98 98 86 66 64 93 77 77 102 124 147 140 158 165 166 159 159 157 155 157 148 143 139 136 133 125 133 135 136 138 138 144 150 150 150 145 156 160 168 174 180 170 145 145 138 119 110 94 98 120 138 5 167 214 193 125 148 158 115 108 44 37 40 34 42 36 40 39 36 40 40 63 43 37 36 38 40 40 37 10 106 181 168 171 177 203 104 2 79 97 93 99 96 100 95 80 58 72 75 71 94 116 145 137 138 163 171 160 165 163 156 158 154 152 160 152 159 149 157 157 156 154 148 149 155 159 161 158 160 169 172 180 172 159 155 139 128 99 87 102 115 119 143 0 172 215 198 133 139 156 151 133 109 18 42 41 41 43 39 41 39 43 35 33 42 39 43 41 38 40 28 32 160 175 169 168 181 202 90 0 77 95 94 93 100 96 96 89 72 55 70 66 77 102 128 133 127 148 169 163 152 161 158 162 161 160 167 171 171 164 168 163 163 163 161 165 163 163 168 161 162 173 177 172 171 161 145 131 118 79 96 116 118 120 139 1 178 212 200 142 141 153 156 141 147 47 24 44 40 44 44 41 42 41 40 39 38 39 32 38 34 38 8 87 180 170 166 170 179 204 80 0 63 92 94 92 97 98 96 89 80 67 59 54 63 87 126 137 136 138 166 172 168 168 163 167 168 166 173 172 170 169 175 177 176 174 169 170 170 169 167 165 168 170 175 166 167 150 134 124 87 81 115 121 118 121 136 1 191 211 199 148 141 153 152 149 150 66 20 37 44 46 42 37 47 39 38 36 36 36 35 37 40 33 19 148 176 168 169 168 179 200 76 0 50 91 95 91 100 96 98 92 83 75 63 55 47 68 103 123 125 144 152 165 172 168 159 166 169 170 172 173 181 180 181 182 178 177 174 179 180 181 169 178 177 176 172 159 157 138 130 107 72 105 121 123 123 119 128 20 215 207 197 153 146 150 149 151 154 106 16 40 36 36 47 34 38 35 43 39 36 42 35 49 39 17 72 179 170 165 165 167 177 201 86 0 33 79 94 95 94 95 95 93 84 80 67 64 49 54 85 89 118 125 142 157 170 169 163 160 172 166 166 163 174 170 170 175 169 175 179 185 187 182 179 178 184 180 164 162 143 132 118 82 102 121 123 122 121 118 101 51 224 203 195 156 146 145 148 150 150 143 30 37 40 44 38 35 39 39 34 37 42 41 38 40 34 8 144 178 166 162 166 168 176 200 108 1 20 77 87 98 93 95 91 91 86 79 74 68 60 51 57 74 95 119 119 142 163 158 160 167 169 160 153 155 146 144 144 151 156 161 170 169 179 176 169 171 175 161 155 149 125 115 83 98 120 123 125 124 118 116 56 97 219 200 192 158 138 137 142 145 151 146 37 30 40 38 43 37 26 37 39 32 36 39 41 40 24 43 180 171 166 162 165 168 175 196 137 6 9 72 84 85 95 91 93 90 91 82 75 72 64 60 49 55 68 100 109 129 141 149 148 157 154 145 142 146 144 132 118 117 128 135 143 149 155 156 158 157 156 142 136 118 102 81 96 121 126 125 122 124 119 102 19 178 208 197 194 161 136 141 141 142 148 149 28 39 35 34 34 33 34 36 33 35 43 35 41 40 14 119 182 171 165 163 164 170 174 187 170 15 1 65 83 83 85 92 92 89 92 83 80 73 72 61 61 52 49 66 84 101 123 127 127 134 138 133 132 130 129 122 121 111 103 114 123 127 138 132 137 127 132 124 109 88 74 93 116 124 126 124 121 122 112 63 58 213 201 196 192 167 136 138 145 144 145 156 20 46 35 41 35 35 32 30 34 35 42 48 46 36 11 178 179 173 170 162 169 173 177 183 188 44 1 56 84 87 88 82 89 91 91 81 81 75 72 67 60 63 50 48 55 67 86 98 106 108 116 122 118 120 121 119 121 113 101 99 104 103 116 117 108 105 105 93 75 72 97 112 119 123 126 122 122 113 89 39 153 207 198 197 192 170 137 137 146 144 145 150 34 30 43 32 46 35 39 31 33 33 43 41 42 24 80 188 178 174 173 165 171 177 176 179 190 96 3 41 84 84 94 89 84 85 89 84 81 78 76 69 65 64 59 55 50 46 53 68 80 79 94 103 98 98 101 109 106 92 82 80 77 81 85 85 82 77 72 69 81 94 111 117 120 123 124 122 125 93 59 107 195 199 198 196 192 173 134 137 149 145 152 140 27 39 41 32 46 39 36 37 36 27 36 41 48 21 145 186 176 177 177 169 172 178 177 181 186 147 26 27 80 85 89 93 89 89 85 86 83 80 76 73 68 66 62 60 61 53 44 50 54 48 62 65 63 63 64 73 65 62 54 54 51 53 56 55 56 65 78 82 94 108 112 120 120 122 122 126 113 74 90 165 197 197 199 195 192 177 133 137 145 146 156 114 24 35 46 42 39 37 36 37 43 35 42 40 31 34 183 177 177 175 178 171 175 179 180 183 183 158 84 15 71 83 91 89 90 90 91 82 86 84 80 75 72 68 62 60 63 63 54 53 51 49 45 52 48 48 47 48 46 46 49 53 51 57 59 63 71 77 84 89 103 109 115 118 120 123 125 118 96 73 152 179 196 197 196 197 193 175 133 133 135 146 147 66 24 34 46 48 36 43 40 36 37 31 