P2
92
112
255
37 36 38 41 41 41 34 35 36 31 33 39 39 43 39 45 40 34 38 45 38 45 47 44 48 48 50 48 50 44 44 41 38 38 38 42 44 43 41 41 37 41 39 37 38 42 43 40 41 43 44 38 37 36 33 29 33 33 40 35 33 37 31 33 34 35 42 42 45 44 47 49 47 47 38 37 36 35 42 40 46 49 50 46 48 46 47 50 47 45 42 45 36 38 38 36 41 40 35 36 33 35 41 42 47 45 38 36 42 42 46 48 44 48 45 41 46 47 46 42 43 40 36 41 48 50 45 45 45 38 42 46 44 42 45 45 40 42 36 39 36 33 30 32 34 34 36 37 37 39 35 37 36 37 33 34 38 39 46 49 55 53 54 51 44 40 40 36 46 37 43 42 41 39 54 55 47 47 48 48 47 43 46 45 36 39 40 38 39 38 29 40 31 29 35 35 33 36 37 39 46 42 43 41 45 45 48 46 43 40 39 41 38 43 43 46 43 40 41 43 45 43 50 50 43 40 38 43 38 39 39 42 38 36 42 38 44 44 42 39 38 36 38 33 33 33 36 35 42 44 50 48 47 52 51 50 45 44 46 42 41 45 41 48 45 42 57 57 53 51 44 51 47 50 48 50 41 40 38 39 40 36 33 37 29 31 32 34 37 33 37 39 44 46 52 51 48 43 46 47 45 49 52 47 48 37 45 48 45 45 44 41 43 40 37 39 44 44 43 44 45 43 44 46 41 42 48 54 51 44 39 33 38 34 39 36 37 36 41 45 47 54 53 53 47 49 54 49 49 51 55 45 39 43 39 41 44 48 49 61 54 55 53 50 49 49 48 48 40 39 40 40 37 38 33 31 33 25 31 31 35 36 38 38 41 37 49 56 48 45 46 44 48 48 47 47 44 47 52 47 47 47 48 43 47 49 44 40 40 38 42 37 42 41 39 40 45 49 48 49 43 39 36 41 38 32 37 36 43 40 46 55 54 54 52 54 50 49 48 41 54 51 55 54 45 45 38 39 48 43 43 60 53 50 49 48 52 50 44 50 38 42 40 36 36 37 29 27 30 34 37 32 36 39 39 43 36 44 41 54 48 49 60 58 52 47 47 43 50 53 50 53 52 48 49 44 41 41 38 39 41 42 42 38 37 42 43 45 44 49 45 42 37 40 36 38 38 37 40 37 37 44 47 58 56 44 45 50 49 48 43 44 39 40 56 55 58 48 48 39 50 58 45 49 61 55 52 48 48 48 48 46 41 40 36 36 38 36 27 35 35 33 35 34 38 47 41 40 42 49 44 54 52 59 55 55 54 53 53 55 65 59 62 56 53 49 48 49 49 48 49 45 46 47 45 46 48 48 49 51 49 44 43 40 38 41 40 39 39 41 38 41 44 47 59 59 49 46 40 51 56 55 53 54 46 38 42 47 62 53 47 46 49 54 59 49 50 60 51 49 49 49 50 44 42 42 43 41 33 31 30 33 29 33 35 38 42 38 39 37 42 45 51 49 55 58 59 62 63 62 64 66 68 62 58 56 53 56 48 57 53 50 49 46 48 49 47 49 47 54 55 49 45 43 43 41 43 45 45 44 44 42 46 48 54 57 57 56 54 54 56 55 60 63 60 52 55 56 48 43 55 62 51 44 49 49 53 57 43 60 50 49 52 50 50 44 36 41 42 43 33 35 32 27 33 36 42 48 41 36 41 40 44 49 52 56 56 67 70 68 67 67 63 65 63 59 59 58 56 54 55 63 55 56 50 51 51 50 51 53 58 59 48 50 43 51 51 46 48 49 51 52 52 54 53 55 66 62 59 58 55 59 67 68 65 72 66 52 45 48 57 47 46 56 53 49 44 41 50 50 50 52 46 52 49 49 48 46 39 37 46 40 35 39 30 34 35 37 37 43 42 45 42 41 47 53 68 70 65 74 77 76 66 66 60 56 55 62 63 60 60 63 61 58 53 52 51 47 54 53 52 54 55 50 53 53 54 57 52 47 48 54 57 57 58 63 63 63 68 70 67 62 60 63 71 78 68 76 78 61 50 43 44 48 51 43 53 42 55 45 37 47 52 48 49 48 54 47 48 48 42 40 45 39 36 36 34 34 36 38 44 67 64 51 51 51 63 74 74 80 82 83 80 71 61 56 58 56 59 67 69 67 72 68 66 60 55 59 54 54 54 59 58 54 55 55 59 53 57 56 51 49 57 59 62 63 67 74 66 70 72 75 69 67 58 65 72 78 76 74 79 76 58 43 55 49 52 44 48 44 48 58 37 40 44 52 47 50 52 50 48 49 39 41 48 34 38 36 32 37 37 40 54 66 56 45 57 55 55 61 70 78 82 83 79 64 58 61 60 58 68 66 73 73 70 68 69 64 61 63 61 52 56 58 56 57 62 61 59 58 65 60 57 63 66 67 71 72 80 80 77 77 79 77 74 69 62 69 73 77 77 79 79 82 67 48 41 50 47 56 45 46 42 50 56 36 42 52 43 53 49 49 49 51 41 40 49 38 40 28 31 35 32 34 43 47 54 51 54 55 58 67 77 84 87 81 77 73 64 66 69 77 75 76 72 72 71 73 73 70 64 66 61 59 59 58 61 61 61 60 63 67 72 68 68 67 68 73 78 83 91 84 79 75 81 83 73 73 68 71 74 75 76 77 83 86 79 64 41 42 49 50 50 50 41 49 53 40 50 43 43 50 52 50 48 50 46 43 46 42 30 28 37 36 35 36 40 47 53 46 56 62 63 74 85 92 87 76 80 75 83 83 84 85 82 83 75 75 79 75 70 69 64 64 59 64 61 62 64 62 63 60 66 69 69 70 69 71 72 75 88 94 95 84 78 78 87 86 80 78 72 79 79 83 76 76 93 88 85 73 53 43 45 49 48 50 41 51 48 41 40 43 44 45 52 54 49 49 49 43 43 30 28 42 40 33 43 43 37 42 44 53 63 76 70 83 91 94 90 89 91 86 87 89 82 77 76 78 83 82 78 82 81 77 71 69 70 69 63 66 68 68 64 63 69 72 76 76 77 79 84 85 92 96 96 90 87 87 94 96 89 81 80 85 86 85 83 77 95 94 86 87 67 47 39 48 44 50 45 41 55 43 37 37 47 44 51 55 47 51 48 43 35 34 39 40 40 37 35 38 40 42 43 49 64 74 81 86 93 94 98 91 89 84 87 87 78 79 83 89 88 87 87 88 87 76 69 71 73 72 71 71 71 71 71 72 74 78 79 78 81 85 89 89 93 96 98 95 95 95 98 100 88 86 82 84 89 89 87 75 90 97 91 88 75 54 40 41 40 46 45 37 44 57 40 43 42 46 54 53 50 47 48 39 42 40 41 34 37 34 37 38 36 37 40 46 60 77 86 91 94 96 96 92 101 100 84 83 87 91 96 99 92 89 91 92 89 81 73 79 80 76 74 73 75 72 72 73 82 85 84 82 82 87 96 94 100 99 106 104 101 97 102 97 90 89 83 86 95 98 91 85 93 97 94 92 89 64 43 40 38 35 44 41 49 46 44 39 47 50 56 51 54 50 45 41 40 41 31 33 37 36 43 43 37 35 40 51 66 77 82 91 95 98 102 109 113 100 88 97 102 96 97 98 95 93 98 96 90 82 81 86 79 78 75 74 77 76 79 81 86 88 89 86 89 95 98 96 99 101 107 107 105 103 100 99 93 88 86 93 103 92 93 98 102 102 100 92 92 67 45 43 38 33 39 40 49 45 39 40 42 49 52 53 56 52 48 37 45 34 33 38 29 40 45 37 31 32 44 56 70 89 84 92 103 107 110 121 115 91 97 103 102 95 99 105 103 104 104 99 84 83 86 83 76 74 78 75 80 79 85 85 88 91 92 92 96 102 101 106 102 107 111 110 110 108 104 100 92 88 91 93 96 89 95 104 108 106 102 98 91 78 51 41 42 31 34 45 42 50 43 42 41 41 53 52 56 52 43 40 47 31 37 34 35 46 41 40 33 34 48 58 72 89 94 97 110 113 120 116 97 96 104 108 107 106 113 107 109 106 104 89 83 79 81 77 77 76 77 81 84 84 88 91 92 98 99 104 107 109 110 109 109 109 111 112 117 113 108 103 95 95 98 97 95 94 99 111 112 114 107 101 96 85 62 47 48 41 29 41 48 44 42 45 40 43 53 53 56 51 40 45 47 36 34 35 43 43 47 40 37 40 50 58 73 89 103 103 108 116 114 101 101 110 110 108 111 113 113 110 103 96 92 89 86 87 86 81 78 80 80 85 90 88 94 99 101 107 110 111 112 114 112 114 113 113 113 119 118 117 114 111 103 106 100 102 105 99 104 114 115 115 110 101 98 96 74 50 51 47 37 38 47 37 48 44 38 44 54 53 52 51 45 48 48 41 31 36 44 46 45 38 33 38 47 63 74 90 111 116 107 103 100 111 122 120 118 109 107 111 109 105 97 96 97 85 88 90 84 79 84 88 85 89 93 95 101 108 112 114 114 112 112 113 115 110 115 116 118 120 120 115 117 110 113 112 107 111 108 103 106 113 121 120 116 104 100 100 83 55 47 38 35 39 44 39 41 46 39 47 54 53 55 55 44 44 55 36 31 40 39 51 45 34 36 44 55 69 80 88 97 105 104 110 117 123 128 129 124 118 113 112 107 102 99 98 89 85 85 90 85 82 86 86 93 97 98 103 111 116 114 114 116 112 117 116 115 119 116 117 120 122 120 114 112 111 112 112 112 113 113 113 111 115 116 121 116 106 105 103 92 64 47 40 35 44 45 37 44 46 32 47 56 56 55 52 45 42 49 36 35 32 45 51 45 44 40 53 57 79 87 95 102 108 115 120 125 129 131 128 126 122 115 114 107 105 101 93 85 87 92 87 83 83 86 92 101 103 108 113 117 117 116 115 115 115 119 119 116 117 122 121 120 123 121 117 111 114 114 110 114 113 120 115 117 125 120 118 117 113 110 101 96 68 53 43 44 41 44 41 41 48 35 47 52 54 58 54 44 46 44 43 35 32 45 53 43 45 49 54 71 78 86 93 104 115 120 127 130 130 129 128 127 125 119 111 108 105 97 83 88 96 89 81 88 90 93 103 107 111 114 120 119 119 117 112 114 118 125 122 123 123 125 124 124 126 122 122 119 119 117 115 120 120 124 117 122 126 127 125 118 115 116 106 96 69 54 38 39 41 44 39 45 38 37 48 55 54 59 54 49 42 52 39 33 38 49 43 44 51 49 62 74 78 94 103 109 117 125 128 130 126 129 124 128 123 118 116 112 100 86 90 97 93 94 99 98 98 104 112 113 113 115 124 118 119 116 114 118 122 125 124 123 124 123 126 124 128 123 127 123 124 125 124 125 127 126 128 128 124 129 129 119 117 119 110 98 67 56 46 35 48 47 42 43 40 39 48 55 56 55 57 50 46 48 35 38 41 47 37 42 55 57 63 68 78 97 113 121 121 124 127 132 129 127 119 113 115 119 112 96 88 91 96 99 100 106 103 102 111 116 118 118 115 119 120 121 121 120 121 123 123 124 123 124 125 126 125 128 125 127 127 127 128 126 126 126 126 131 133 128 125 128 130 121 119 121 113 97 72 56 48 41 47 45 48 36 46 39 49 58 57 56 58 45 50 49 36 43 37 42 32 46 50 52 61 79 93 108 119 126 127 126 128 127 128 130 126 115 113 111 108 110 110 108 110 110 114 112 112 113 124 123 120 116 116 117 121 120 119 122 123 123 125 123 124 124 127 128 129 130 128 128 128 130 133 131 128 129 131 132 138 130 130 129 129 124 123 123 126 106 82 53 48 50 51 49 47 39 42 44 51 57 58 56 57 46 46 50 43 44 35 36 35 39 45 51 71 92 104 113 124 130 131 130 127 128 132 129 128 123 122 120 117 119 123 122 118 121 122 118 115 119 123 120 113 115 117 120 122 121 124 124 123 123 123 126 126 128 129 127 131 130 131 129 130 133 134 135 132 129 133 136 136 136 134 132 128 125 123 127 124 109 81 58 46 48 47 51 48 40 40 41 56 60 57 59 55 48 45 48 45 37 32 36 34 38 45 56 79 100 111 121 128 129 129 127 130 132 134 133 132 131 130 125 129 129 130 127 128 127 125 124 123 121 119 119 115 119 120 119 121 123 124 121 124 122 121 126 127 131 131 129 133 132 130 132 132 137 139 136 139 137 141 141 139 139 135 134 128 126 123 128 128 112 85 63 51 48 48 47 48 43 42 46 57 56 58 57 56 49 47 52 47 29 37 31 34 41 51 65 96 110 120 126 132 133 129 129 133 132 135 135 134 132 133 131 132 132 132 134 133 134 132 132 130 130 132 130 125 126 124 120 121 121 121 123 122 123 124 130 134 135 135 133 133 131 133 132 134 137 138 136 135 138 139 143 142 138 138 137 129 130 124 127 133 121 94 71 56 54 55 49 42 58 39 51 59 58 57 57 56 49 49 49 44 28 31 32 42 44 46 73 102 116 118 127 134 132 130 132 132 131 135 133 130 130 130 130 131 133 134 136 134 135 134 135 134 131 132 136 136 134 135 134 124 124 123 125 127 127 129 134 136 138 135 136 136 133 132 130 134 135 136 138 138 142 142 145 141 143 140 136 131 133 127 130 132 128 106 77 57 56 58 51 44 51 39 60 58 56 57 60 58 49 47 50 44 26 31 35 47 49 54 87 108 122 124 130 137 131 135 130 132 133 131 132 133 129 130 131 130 135 131 135 133 136 132 136 137 133 137 139 136 138 139 139 134 131 132 130 130 131 136 139 138 138 142 138 138 135 134 131 131 136 134 142 140 141 143 145 140 141 140 135 133 131 130 129 132 132 119 89 60 50 54 53 49 47 43 64 59 56 60 56 58 54 46 49 48 32 30 38 46 54 49 89 117 126 130 135 134 132 131 130 130 132 134 128 126 120 122 123 128 130 132 130 133 137 129 137 133 135 134 138 142 142 141 141 139 139 141 139 137 136 141 141 139 142 142 140 139 138 137 134 136 136 138 140 142 144 145 143 138 137 140 135 132 131 130 130 130 131 125 97 60 51 44 47 53 46 48 58 60 57 55 57 57 49 50 48 48 41 29 33 48 53 40 92 118 127 135 135 135 131 129 130 129 130 130 119 114 111 113 118 122 124 128 131 126 128 128 132 131 127 132 135 141 139 142 141 138 142 141 144 138 140 135 139 140 144 141 142 141 138 138 136 136 134 141 138 141 144 144 140 132 133 132 137 131 132 129 131 130 129 125 112 68 51 45 42 52 43 45 58 56 59 57 58 58 52 47 46 48 45 30 34 41 56 40 89 121 131 133 135 134 130 128 125 130 125 119 111 112 107 109 107 111 111 114 117 120 119 117 124 126 122 124 129 136 139 141 140 136 141 140 138 139 140 140 140 140 138 143 141 138 139 137 140 143 140 141 139 137 137 136 132 133 124 123 124 124 124 125 128 131 132 127 120 76 57 54 46 48 49 46 64 54 58 59 57 60 48 47 49 49 51 28 40 36 58 46 88 124 130 132 135 136 132 127 129 126 112 107 105 104 106 107 104 102 99 103 101 104 109 111 115 119 121 122 130 135 141 139 136 137 137 139 138 137 141 138 138 137 137 136 139 140 138 142 136 137 132 134 129 126 129 132 126 127 121 120 116 117 124 125 126 131 134 124 125 81 55 61 44 55 48 48 60 58 59 58 59 58 47 46 47 47 48 39 38 38 62 37 84 124 132 138 133 131 127 124 116 115 112 107 103 103 102 103 100 97 84 90 87 92 91 96 112 123 123 124 131 134 137 140 139 139 136 134 135 135 137 139 140 140 138 137 134 136 133 127 120 115 113 117 112 112 113 116 120 120 119 117 118 111 117 122 125 129 129 131 125 91 52 58 45 48 51 51 60 58 57 59 56 59 47 46 47 50 56 36 38 39 49 52 82 128 131 135 132 129 127 122 113 112 109 108 109 105 106 105 105 105 94 90 87 88 90 95 103 118 126 135 142 145 141 140 139 135 130 130 130 131 136 140 141 143 143 139 134 128 128 122 106 99 92 91 92 92 99 114 121 122 123 119 120 113 117 116 120 128 130 133 126 96 47 59 48 45 48 52 57 58 58 58 59 55 47 43 57 76 73 46 37 34 45 49 82 129 134 136 137 129 123 119 113 112 110 113 118 117 111 107 104 104 110 114 111 108 107 113 121 134 137 140 150 152 151 149 146 144 138 134 134 127 133 139 143 142 145 145 136 129 123 111 99 90 86 81 81 78 77 93 104 112 112 108 105 113 116 116 116 121 131 133 124 106 46 54 58 47 48 51 57 58 60 56 56 57 43 57 122 122 116 83 40 34 61 56 83 126 134 136 137 130 123 124 118 120 122 124 125 135 136 128 129 127 132 132 135 133 128 127 132 139 145 146 153 156 152 154 154 148 141 140 137 133 136 142 148 150 147 144 133 131 124 119 116 108 101 97 101 96 91 102 103 110 117 112 109 110 110 112 112 117 126 133 127 110 54 51 64 39 50 55 60 62 55 59 59 54 33 112 141 144 137 125 62 38 55 60 90 130 134 138 135 131 129 129 129 130 137 137 143 147 139 133 131 132 127 122 111 106 100 101 106 112 125 133 146 151 153 158 158 157 148 142 137 139 143 147 150 148 144 135 130 133 131 125 127 125 125 125 123 118 116 121 123 127 137 135 131 127 122 120 119 119 126 132 131 113 49 49 71 39 53 55 71 75 67 59 57 60 35 140 127 141 149 136 107 41 40 66 89 131 136 136 135 136 136 133 133 138 140 140 146 141 133 123 112 99 89 76 69 60 54 59 59 79 103 116 129 141 146 151 163 161 154 148 143 143 151 151 148 142 136 129 132 133 133 128 118 118 117 117 116 119 122 123 128 136 145 144 138 137 134 124 118 118 127 132 137 115 61 49 61 46 60 101 126 136 128 102 55 58 59 137 111 145 138 144 142 80 38 61 88 131 135 140 135 136 139 140 141 141 145 148 141 123 103 94 89 87 79 87 78 74 65 58 59 56 80 102 112 129 141 148 155 161 155 149 145 144 149 149 143 133 127 127 131 129 123 110 86 82 81 82 81 82 87 98 111 129 141 146 143 140 133 131 127 121 127 135 136 118 58 52 55 46 98 139 153 154 154 150 100 50 84 134 100 149 113 155 149 119 57 51 90 130 139 142 140 145 144 146 147 150 152 140 121 106 110 102 85 77 64 54 54 57 60 71 66 61 73 91 101 116 133 142 149 159 158 151 152 146 150 146 138 128 128 131 126 116 102 78 75 74 74 77 82 89 96 96 92 101 113 132 139 139 144 139 136 129 129 134 135 127 55 54 57 59 128 153 153 147 134 146 157 60 105 120 101 141 114 139 157 136 97 50 85 131 138 139 141 146 146 153 149 149 142 123 114 106 93 93 102 91 43 47 50 31 34 48 74 74 72 79 86 106 130 138 138 151 154 156 156 154 148 146 136 128 127 119 109 96 83 75 77 83 89 85 77 73 79 81 86 102 102 108 127 138 138 142 141 138 135 135 137 134 64 56 52 88 150 155 141 154 153 102 160 107 128 102 108 134 130 148 185 146 141 57 91 134 131 139 144 150 148 152 148 145 133 113 94 88 110 129 138 107 37 51 46 27 34 45 61 65 75 84 83 94 115 120 132 149 155 159 158 158 153 143 135 128 124 106 92 82 78 83 84 78 86 81 49 47 43 40 46 66 94 107 117 134 138 143 144 140 137 136 139 133 76 58 51 119 168 153 145 151 159 92 142 141 141 91 110 131 139 157 177 140 159 98 97 135 138 145 145 152 151 152 153 141 124 103 78 97 134 157 157 139 80 34 30 33 38 61 75 69 69 76 94 99 101 114 129 147 154 159 162 164 157 147 130 123 117 100 87 85 83 90 85 75 90 87 50 63 39 32 41 77 83 91 120 133 141 145 145 142 140 139 141 135 78 66 51 142 164 176 144 150 165 84 128 149 138 90 103 127 149 154 151 123 154 128 111 131 139 143 146 151 152 153 149 135 119 108 100 91 102 174 202 187 122 29 40 36 43 67 71 73 70 64 84 115 124 118 126 142 152 155 160 163 158 144 126 110 109 108 102 97 87 88 92 95 111 96 54 29 42 71 43 102 99 75 106 130 141 142 147 146 143 144 141 137 85 49 68 141 158 188 144 143 169 85 129 143 114 100 96 130 160 156 150 134 142 138 117 132 139 141 144 149 147 149 139 131 123 121 117 114 98 101 118 115 97 61 53 54 66 74 71 70 75 76 81 109 124 122 119 140 149 158 161 166 160 143 124 111 122 111 86 85 77 76 91 104 125 117 78 40 49 74 66 102 90 90 102 120 132 139 147 148 147 142 142 137 93 40 85 140 161 193 144 142 170 90 129 133 91 116 85 132 160 163 165 174 156 144 117 132 141 146 143 150 147 146 144 136 136 135 132 133 130 117 109 106 101 98 89 83 82 82 80 79 88 83 87 94 101 105 122 136 149 153 160 166 161 147 121 118 125 113 94 85 73 75 82 86 103 114 100 64 57 62 87 100 103 103 112 122 134 140 148 146 149 143 142 140 90 43 121 150 160 209 152 132 170 90 136 112 60 135 85 133 171 161 168 166 130 134 120 131 142 144 146 147 148 146 144 142 139 141 137 138 148 144 134 121 110 105 101 91 89 89 90 91 91 88 92 92 97 109 127 136 145 153 161 164 159 147 121 109 113 105 95 91 89 88 90 92 85 85 95 89 88 102 107 108 111 119 127 130 137 144 147 149 148 144 143 140 93 119 156 152 152 204 148 139 156 89 145 82 38 140 88 140 173 155 156 148 119 108 127 134 141 142 142 147 146 145 140 144 143 144 139 141 152 161 150 135 121 112 107 101 100 98 97 98 95 91 92 99 109 121 134 137 142 148 158 162 156 144 124 106 104 105 93 92 95 94 98 103 102 99 100 108 111 125 138 126 124 127 132 139 144 147 147 150 146 145 143 138 115 141 161 156 150 206 150 136 132 102 146 60 24 130 90 147 156 136 141 135 121 114 120 133 140 141 144 144 143 143 141 141 144 147 147 145 150 150 149 133 125 115 110 108 106 106 104 106 101 102 102 118 127 132 135 138 138 147 161 170 159 140 129 112 105 107 97 97 99 100 105 110 113 116 117 123 134 149 150 136 131 132 139 143 146 147 146 148 146 147 143 137 119 120 144 155 148 192 153 139 103 125 127 50 28 116 96 143 144 112 116 121 124 123 120 130 142 141 141 142 141 146 141 142 140 144 144 146 147 143 137 128 118 113 115 113 112 109 110 109 111 115 122 134 136 136 134 136 135 144 157 165 160 141 131 119 110 108 105 102 104 107 113 114 117 122 130 135 145 154 143 134 138 139 146 148 144 149 149 142 147 144 140 136 121 108 134 146 146 182 158 135 90 142 98 49 34 99 106 138 136 113 107 110 122 120 121 131 139 141 141 141 143 147 141 143 142 142 144 142 141 137 132 126 125 120 117 115 115 109 111 116 121 128 135 139 142 139 136 134 138 142 153 161 156 142 130 126 125 116 114 113 109 109 115 118 123 124 128 132 137 142 139 142 144 144 149 148 150 151 150 142 145 143 135 133 122 112 122 132 140 172 157 133 89 150 72 58 34 84 113 133 144 121 113 108 114 133 120 130 137 143 143 143 146 148 144 141 143 141 141 140 139 134 130 127 124 124 118 116 116 112 117 123 131 138 140 142 142 138 135 135 134 139 148 162 155 143 131 133 136 130 125 122 115 113 115 121 123 127 127 134 138 140 147 144 146 145 148 149 151 153 151 147 146 145 133 128 129 126 119 121 134 176 152 125 101 144 55 55 37 70 121 127 151 125 119 106 111 139 126 126 137 139 142 145 150 149 148 147 145 144 141 142 138 135 133 126 122 124 123 119 118 120 128 133 138 142 143 145 143 139 136 133 133 139 149 160 159 148 133 133 138 138 134 129 121 118 119 121 120 126 129 136 139 144 147 147 147 150 149 150 152 152 150 150 142 142 134 127 132 141 122 112 125 172 143 121 118 122 49 59 46 51 124 122 151 124 111 105 103 148 131 128 132 135 145 148 152 152 152 147 149 145 142 144 141 140 137 134 127 126 123 122 125 130 136 142 144 146 144 147 145 139 135 135 135 142 152 162 159 149 138 132 135 142 141 139 134 130 129 128 126 125 129 134 138 143 148 153 151 150 150 150 150 155 152 149 140 137 131 124 136 159 126 106 131 165 139 111 134 97 51 62 47 36 130 111 154 134 111 116 98 153 134 131 131 134 143 152 155 159 158 153 152 146 143 144 139 141 139 135 132 128 127 127 132 135 137 142 144 144 143 147 144 141 136 135 133 140 149 159 160 153 139 133 136 140 143 143 140 137 136 133 129 129 135 137 141 144 145 153 151 151 150 151 148 154 154 150 140 138 129 124 133 165 121 108 132 171 133 111 142 71 54 60 48 25 124 112 136 154 128 114 108 124 142 131 133 131 141 148 154 160 161 159 154 149 147 145 138 139 138 135 134 133 132 136 137 139 137 142 140 141 145 145 144 139 135 134 138 145 154 161 164 154 145 136 137 140 144 143 141 142 139 138 136 132 133 139 141 145 145 148 152 151 148 150 155 158 154 150 139 137 130 127 133 139 110 114 145 174 128 125 141 51 53 61 44 29 99 131 101 153 142 127 121 88 142 134 134 131 139 146 151 154 156 157 159 152 151 146 144 141 137 137 139 134 137 138 142 142 143 142 141 142 145 147 143 138 134 136 142 146 157 164 164 156 145 138 137 143 144 144 146 146 145 143 141 139 135 141 143 144 143 150 153 152 154 158 162 162 154 149 138 132 128 130 118 114 108 129 162 163 120 140 122 51 57 63 49 33 64 139 112 128 143 146 131 102 108 141 135 131 136 145 151 152 157 162 161 157 157 151 150 148 140 138 136 143 146 146 145 147 147 142 143 146 148 146 140 135 137 137 141 145 154 155 157 154 145 144 137 140 144 148 148 150 146 144 147 146 143 147 148 149 147 153 154 155 156 161 159 158 156 149 138 133 129 133 114 102 121 155 166 142 125 157 86 51 56 59 45 45 32 137 129 118 144 152 136 121 90 141 137 134 134 146 154 155 161 164 161 160 159 155 153 150 145 145 144 146 150 149 148 148 149 147 148 147 146 140 132 134 136 139 144 152 159 158 157 157 152 144 140 139 145 149 152 153 157 153 159 154 151 153 155 154 154 155 157 156 153 159 157 157 153 150 143 131 127 133 117 125 145 164 157 127 138 150 59 59 57 56 43 43 25 103 139 128 143 155 150 148 116 136 142 131 133 141 151 155 164 163 162 162 159 158 156 154 152 148 147 146 147 147 146 148 148 145 148 148 143 132 133 132 139 141 147 153 157 155 160 160 157 147 141 142 140 148 153 159 157 156 158 159 157 156 159 158 159 159 158 160 157 158 156 153 150 149 139 133 126 130 129 162 156 155 136 132 154 127 46 56 58 56 41 43 38 49 148 134 145 154 165 162 156 145 140 136 131 139 147 157 161 163 159 159 158 157 154 155 154 150 144 144 147 146 147 148 148 147 148 141 139 137 135 135 140 140 147 148 152 147 151 154 152 149 141 141 140 147 152 160 162 160 161 160 159 161 161 160 162 162 155 151 157 156 154 151 147 145 142 132 132 126 139 165 160 143 133 142 159 87 48 56 58 56 43 44 45 23 124 144 143 153 160 168 167 150 143 134 129 137 154 163 162 162 159 159 162 161 157 151 150 152 147 151 150 148 150 150 145 143 137 136 137 141 139 142 143 141 144 147 148 148 150 150 149 147 143 142 138 145 151 157 157 163 164 163 162 161 161 164 166 168 156 153 157 159 157 154 148 140 137 133 132 125 158 156 159 140 141 150 146 56 50 53 59 55 44 42 44 37 68 152 145 154 155 157 156 147 142 133 131 139 152 162 165 165 162 160 159 156 151 152 153 151 149 153 150 153 149 145 140 135 135 135 144 146 144 147 142 144 144 147 149 148 152 149 148 147 145 141 137 140 148 154 155 158 164 162 161 159 159 163 166 168 162 156 159 160 159 154 151 144 137 133 132 125 165 161 153 139 146 159 99 41 55 54 59 55 41 45 45 41 18 142 143 146 148 150 153 151 140 137 131 140 153 160 162 165 168 163 160 158 154 154 157 155 154 158 155 157 149 138 132 131 140 147 148 155 151 153 155 154 156 152 155 156 159 153 151 152 145 142 135 139 147 152 152 156 156 155 161 163 160 161 162 164 159 151 155 157 160 159 154 144 137 135 133 124 168 165 155 151 143 139 51 52 55 58 52 57 44 43 45 41 42 67 148 144 151 146 152 155 139 136 130 137 151 160 159 161 163 162 161 157 157 160 158 155 157 156 158 154 147 137 130 131 138 154 163 165 160 150 156 161 165 163 153 147 150 153 154 150 142 138 138 143 145 143 147 152 159 157 160 162 163 162 162 163 158 155 158 157 158 157 156 146 135 136 135 126 164 159 160 151 156 101 41 53 56 55 58 57 46 41 41 42 40 33 87 146 157 148 156 160 146 136 133 138 147 158 162 164 164 164 160 161 159 159 161 160 159 161 158 156 143 137 126 128 134 151 161 144 107 95 126 155 169 166 160 150 154 161 158 149 139 140 147 147 145 143 140 146 153 155 156 159 159 162 165 166 161 160 158 156 155 153 153 145 136 133 130 134 157 156 150 147 145 63 49 56 56 56 55 61 49 42 42 47 43 41 33 61 127 150 155 164 156 133 134 137 147 155 160 161 167 167 167 162 164 161 163 164 162 162 155 150 144 135 131 137 135 143 150 139 107 74 92 127 155 160 161 161 158 156 146 118 100 128 149 152 144 144 143 144 148 153 155 161 163 164 164 165 165 167 163 161 156 156 152 147 135 134 130 140 148 159 146 163 105 48 53 52 59 53 55 58 44 41 43 44 40 46 42 38 38 73 131 153 147 135 133 137 145 162 165 165 170 169 167 166 167 161 167 165 164 159 156 150 143 138 136 142 139 131 131 135 139 133 123 125 145 160 169 168 168 156 134 110 105 123 137 139 144 147 144 142 144 149 152 160 162 165 166 168 169 168 164 158 155 158 153 143 137 130 129 143 152 159 162 125 58 52 52 54 55 54 55 56 46 41 45 45 43 44 43 46 42 36 39 63 46 121 136 134 143 158 167 166 168 165 164 163 167 164 166 166 165 159 152 145 142 140 141 140 138 138 131 127 136 144 146 141 150 156 164 169 163 149 130 126 123 123 127 139 146 150 151 146 145 146 151 154 158 161 166 168 168 170 166 162 154 155 150 144 136 133 130 152 150 141 102 51 51 52 52 52 54 56 53 56 43 42 44 43 42 44 44 43 46 45 42 45 29 98 141 137 140 158 169 168 166 171 170 173 175 169 171 167 164 153 147 146 146 144 145 138 133 133 132 127 127 135 145 154 157 161 164 162 153 133 127 125 124 128 133 140 143 147 153 149 147 147 146 152 158 161 166 171 169 168 166 163 157 155 148 144 133 142 130 134 105 59 46 53 51 53 51 57 54 55 56 55 45 47 45 42 43 43 42 46 44 41 45 43 38 66 142 137 138 156 166 169 172 172 179 179 172 171 169 166 159 153 146 145 145 147 143 140 135 135 130 125 119 129 137 147 152 148 149 150 145 133 122 120 121 128 134 140 140 146 154 153 151 148 150 154 155 163 167 172 172 168 164 163 158 156 150 143 134 138 139 57 49 51 53 52 49 57 50 56 57 55 57 54 47 46 45 42 44 44 43 43 44 45 45 44 40 35 145 137 139 152 165 171 172 171 175 178 176 175 171 167 160 149 147 147 145 145 142 136 131 132 129 123 116 124 129 144 146 143 139 143 145 135 122 116 120 122 136 143 146 148 152 152 150 148 150 152 157 161 170 171 175 170 166 165 160 158 150 138 138 143 136 42 51 52 53 52 51 55 52 57 57 54 58 51 48 47 46 41 43 45 43 43 43 45 44 43 47 18 135 138 138 149 162 172 171 175 174 178 178 178 171 164 158 154 153 150 146 144 145 134 130 128 126 120 116 115 127 136 140 134 128 140 144 131 121 113 114 122 135 142 141 144 147 149 150 151 148 151 152 159 166 171 170 169 164 164 158 154 149 140 140 140 120 42 51 51 54 52 52 52 55 56 55 56 54 55 45 43 45 42 43 43 44 45 42 44 46 43 47 20 120 143 142 147 156 168 175 174 172 176 180 173 170 166 159 158 153 150 145 144 138 135 132 133 128 123 120 121 123 135 129 121 118 129 136 127 121 114 117 120 133 136 138 137 148 151 153 156 154 156 155 157 167 169 170 166 163 164 158 151 149 142 138 146 104 40 53 50 53 52 52 54 53 62 54 57 55 50 43 46 46 43 44 46 46 43 43 44 44 46 44 30 87 143 144 144 153 166 171 174 174 175 181 178 171 168 161 159 155 151 144 141 144 138 134 130 128 132 130 130 128 130 126 110 107 115 120 122 117 116 119 123 129 135 136 136 147 149 150 152 152 161 158 157 162 166 166 164 161 163 152 151 145 145 142 151 83 45 53 53 53 50 51 55 53 56 63 55 56 52 47 47 47 44 42 47 43 41 44 43 43 45 42 38 50 146 145 145 152 160 167 173 177 179 184 182 174 163 158 161 157 159 154 150 147 146 142 135 132 132 137 135 139 138 129 117 108 113 122 124 119 120 123 128 130 133 134 138 144 148 147 148 150 155 155 159 159 163 165 167 161 160 151 154 148 144 142 151 72 47 55 51 54 51 54 53 55 55 56 57 54 57 48 45 49 46 41 42 43 42 43 43 46 44 43 49 26 138 147 147 150 161 168 173 174 176 179 176 173 167 166 161 156 159 159 161 160 158 157 153 151 151 151 149 146 148 144 139 136 135 140 137 138 134 133 135 133 129 128 138 146 150 150 147 150 155 160 160 161 168 169 166 159 156 152 153 149 144 147 141 57 52 53 52 54 54 51 50 57 56 56 60 54 57 46 46 47 47 41 43 45 42 41 41 49 44 44 44 25 117 148 148 153 160 167 176 174 177 174 172 171 167 163 164 161 162 164 166 168 162 156 152 147 143 138 136 131 131 133 141 141 134 134 132 134 134 138 140 143 135 135 143 147 150 149 150 154 156 157 157 161 166 166 164 160 156 154 150 145 144 147 131 45 54 52 52 53 51 53 55 55 59 56 56 56 52 46 49 45 45 46 43 46 42 46 43 43 44 44 46 38 69 149 145 151 159 164 172 172 170 173 174 168 160 165 164 158 156 151 149 140 135 130 129 139 137 134 132 127 126 125 128 127 128 130 133 132 131 124 122 117 115 120 125 131 133 137 139 147 157 154 156 163 165 165 162 162 155 155 150 146 143 153 110 42 54 56 52 49 52 53 56 54 59 55 56 55 53 45 50 45 50 45 42 43 44 44 44 44 44 45 43 44 35 139 148 147 157 165 171 174 171 176 170 166 165 168 163 152 130 106 93 82 83 91 96 101 99 91 87 81 81 84 90 91 87 82 87 86 92 92 88 89 86 86 82 87 100 109 120 137 150 154 160 163 167 166 166 160 159 155 152 144 143 154 83 46 52 55 51 50 55 52 57 54 58 57 57 54 56 49 50 44 50 47 42 42 44 42 47 41 45 44 45 49 26 110 150 149 157 165 169 171 174 174 171 165 161 161 158 143 117 104 113 110 98 100 103 103 93 89 85 82 81 80 79 80 77 78 83 85 90 95 90 100 99 96 92 97 107 111 112 129 143 152 161 163 166 165 165 160 154 157 150 146 144 145 52 49 53 54 46 54 53 50 57 57 55 56 58 54 55 49 48 43 50 44 42 47 44 44 41 45 44 43 47 43 36 61 147 148 153 162 165 169 170 176 174 169 160 158 154 136 119 116 131 137 127 113 109 113 115 116 116 110 106 100 98 102 98 104 98 108 106 109 107 107 106 111 119 127 127 125 120 126 142 155 161 163 162 166 165 155 159 156 150 144 146 116 47 51 53 55 51 54 50 53 56 55 57 57 58 52 57 48 47 47 46 41 46 46 42 44 45 43 42 45 47 47 42 35 123 153 150 155 163 164 170 172 173 171 162 158 149 137 126 124 137 150 157 150 132 124 122 125 127 123 119 113 109 110 109 110 107 115 118 118 118 123 130 139 149 146 141 135 133 135 143 156 165 162 158 160 163 158 159 159 151 146 147 81 44 50 53 55 53 50 53 54 55 56 56 55 53 56 54 49 48 48 47 46 47 48 44 47 45 45 45 42 46 47 44 36 70 153 149 156 165 168 171 170 175 177 165 155 143 141 130 135 138 153 165 167 164 157 145 140 133 123 123 117 114 111 110 111 116 116 123 131 139 147 156 158 159 153 153 148 146 142 142 156 161 158 158 163 160 160 160 156 151 147 132 50 52 53 53 53 55 50 57 57 55 57 58 52 55 58 52 50 48 49 48 46 46 45 44 47 46 44 44 42 46 45 48 42 31 123 151 153 163 169 169 171 173 171 164 154 148 144 142 142 145 153 162 163 169 169 165 161 158 152 144 144 138 135 134 136 139 143 148 154 151 154 158 159 157 155 157 157 151 144 141 152 162 158 163 165 161 158 162 155 148 149 92 45 52 54 54 51 54 54 56 57 54 56 54 54 56 56 49 44 48 47 47 45 50 48 45 48 43 46 43 44 46 46 43 47 33 65 149 153 159 164 168 169 173 173 165 150 146 148 151 153 150 153 160 160 165 164 162 161 156 158 154 152 152 150 153 154 151 152 155 153 151 153 154 158 154 157 158 158 153 145 136 146 159 159 159 162 160 158 159 151 148 132 55 49 53 52 52 53 51 58 54 56 55 55 53 55 55 54 52 47 48 44 48 48 49 48 48 46 46 45 41 46 47 44 45 45 45 23 120 155 161 166 168 164 175 176 164 151 144 148 151 155 158 158 165 162 164 163 165 161 158 155 149 143 139 144 145 154 154 157 155 149 152 156 155 157 154 156 158 157 152 148 141 146 155 160 161 160 160 161 158 150 152 89 45 53 53 53 54 51 56 55 54 56 54 56 50 55 56 55 52 46 49 49 48 48 48 50 52 47 48 47 45 49 46 46 43 45 46 39 47 147 155 162 167 166 168 171 169 157 151 143 150 155 157 162 163 163 163 166 167 161 156 154 145 138 135 133 137 144 144 150 151 150 152 154 155 158 152 156 154 151 149 145 147 151 157 156 160 160 162 160 157 147 150 63 48 56 52 53 53 56 54 60 55 54 55 55 54 52 56 54 55 51 50 44 51 47 49 46 51 47 48 50 45 46 44 46 44 44 42 47 23 105 158 163 167 169 164 168 170 159 149 144 145 150 154 155 157 159 160 161 161 152 144 133 122 113 108 106 114 116 126 134 139 142 150 152 157 156 153 150 150 149 147 145 151 157 159 153 160 159 162 158 154 139 149 50 51 55 54 53 56 55 52 61 56 55 54 55 56 53 55 54 55 49 46 47 46 50 46 50 51 49 45 50 47 45 45 46 44 40 46 47 36 42 151 164 165 168 163 166 167 157 146 145 145 148 151 154 155 153 151 150 148 140 134 124 115 112 110 110 113 116 126 131 136 139 150 152 153 154 151 150 148 145 145 147 149 154 156 158 157 157 157 154 150 138 145 69 50 56 52 56 57 53 56 57 54 55 52 56 55 53 52 55 54 48 48 49 47 48 49 51 48 51 46 50 50 47 47 47 44 41 46 41 46 21 111 162 165 164 163 166 164 160 152 149 148 151 149 151 150 147 143 143 146 146 144 138 134 133 132 130 128 130 136 140 145 147 147 149 148 152 150 147 150 148 148 151 151 153 155 156 157 160 155 153 146 144 139 116 111 61 52 56 55 55 54 54 57 54 55 50 57 50 54 54 51 48 48 51 49 47 50 50 50 49 48 50 48 48 46 45 44 40 42 43 40 31 76 161 166 165 166 166 165 166 163 150 144 148 149 147 148 143 142 142 144 145 145 143 141 140 140 139 137 142 148 145 147 149 148 149 150 151 148 149 151 147 149 146 149 147 156 156 157 157 156 152 141 150 134 81 121 138 82 49 57 53 54 53 58 50 54 53 54 52 53 52 52 47 48 46 48 51 47 48 50 48 49 49 47 48 44 42 42 43 43 40 40 35 63 155 161 165 167 166 161 166 162 153 152 147 149 150 146 143 146 147 145 145 144 144 141 143 142 142 142 144 148 148 146 145 145 146 149 151 149 147 145 148 146 146 151 151 154 157 154 156 156 148 145 156 120 79 104 115 152 97 48 55 54 52 52 52 54 53 52 53 56 51 52 47 46 49 48 46 48 51 52 48 48 48 46 48 43 43 40 41 40 41 40 37 116 142 157 165 167 168 164 159 159 157 155 153 150 150 142 144 146 147 148 148 144 141 140 143 145 144 148 148 147 146 148 146 144 147 147 148 144 147 147 147 148 148 149 149 154 154 156 154 150 146 146 161 105 103 92 106 112 174 95 42 56 54 53 53 56 51 52 52 53 54 51 45 49 48 46 47 50 47 50 46 49 48 45 47 45 43 37 42 40 45 21 113 129 124 154 161 166 169 165 162 155 161 162 155 155 152 143 141 147 146 148 149 148 144 144 146 147 150 152 147 147 147 146 148 149 148 150 149 147 146 147 148 150 151 147 146 155 154 159 149 149 147 151 165 90 114 110 73 117 126 192 66 50 55 54 54 53 52 53 53 54 51 52 46 49 47 49 47 49 47 49 46 47 46 47 46 42 41 43 40 39 38 44 176 106 88 153 162 163 167 168 168 158 155 158 151 154 152 152 148 148 147 150 150 147 147 150 150 150 146 149 143 144 146 146 149 150 150 151 151 146 144 146 146 144 148 150 149 154 155 151 147 145 150 157 161 88 101 113 85 82 124 168 182 47 51 55 53 52 54 52 53 49 55 53 46 47 48 47 47 47 49 45 46 48 46 48 42 41 41 41 36 38 16 130 189 91 48 148 161 161 163 164 165 164 159 155 150 152 152 156 152 146 148 151 149 150 151 151 149 148 150 145 144 144 146 146 150 150 148 151 148 142 144 148 147 148 148 149 148 149 147 143 151 151 153 159 154 97 122 135 97 79 121 134 197 136 36 53 54 49 62 51 52 50 52 58 45 48 43 53 48 47 47 49 46 46 50 43 44 40 38 41 35 40 25 200 176 94 20 102 153 160 164 160 163 162 162 157 151 150 151 152 152 154 154 155 153 154 159 155 148 148 151 149 147 149 153 155 155 152 153 154 151 144 152 148 144 147 146 150 150 144 144 150 148 150 157 156 146 90 118 128 129 70 91 135 153 215 72 47 50 54 54 55 50 52 52 53 48 42 48 49 49 51 47 45 46 45 46 43 45 43 43 38 39 24 94 217 159 106 21 67 110 147 162 167 160 162 161 160 154 152 151 154 157 161 164 162 161 159 162 155 152 148 148 151 150 153 151 150 150 149 151 152 150 147 148 147 148 147 147 147 146 142 148 153 152 154 156 155 137 95 100 107 122 77 108 108 125 179 192 39 46 56 51 53 53 52 52 54 49 44 47 45 48 48 47 44 45 48 44 43 45 41 40 39 40 15 174 207 176 112 24 65 84 103 132 159 163 163 163 159 160 156 152 157 154 155 161 160 162 159 161 155 154 153 153 150 153 154 154 152 151 148 147 144 144 144 149 147 145 143 145 145 147 150 150 153 155 159 156 160 125 106 110 113 121 83 98 117 102 155 219 122 32 51 48 53 53 54 52 53 49 46 45 44 45 45 48 43 43 48 44 40 42 41 39 41 27 63 218 190 197 121 43 56 94 84 91 119 144 154 165 165 160 156 154 157 158 156 160 160 157 156 160 159 159 158 159 161 163 160 157 155 149 150 148 147 148 146 148 144 147 146 139 145 153 155 154 155 160 158 154 161 115 102 104 109 118 97 92 114 126 125 193 214 55 39 54 49 52 53 50 50 45 45 49 44 45 46 45 45 47 44 42 42 43 40 37 38 19 145 223 180 209 146 52 47 97 94 87 88 101 124 138 153 162 161 154 157 159 160 158 158 159 158 158 160 161 158 156 158 159 160 153 153 156 155 147 143 141 140 146 142 145 141 140 153 155 157 159 156 155 154 157 164 108 119 107 101 103 86 111 107 121 119 177 213 162 33 46 49 56 52 54 52 45 45 45 41 47 45 44 43 45 44 40 42 40 41 38 33 53 200 221 174 208 184 49 43 100 98 97 90 88 93 105 123 145 158 160 155 158 163 158 157 156 160 163 165 165 160 156 156 156 157 156 155 154 149 145 145 146 147 146 141 142 147 152 158 160 161 158 159 152 159 157 165 98 114 107 112 117 72 123 113 96 161 134 201 220 96 33 51 52 52 49 58 44 47 44 47 47 44 42 45 44 37 43 41 38 41 37 23 134 210 218 171 208 212 59 42 98 99 101 102 94 91 87 97 112 130 143 158 164 164 162 156 156 156 161 155 157 154 152 152 155 156 155 151 152 152 156 152 148 147 143 146 156 159 160 156 161 158 157 157 161 158 159 163 90 94 97 99 115 81 119 126 88 158 114 193 213 203 35 45 50 49 51 52 45 43 41 45 43 44 43 43 40 38 38 36 54 80 117 122 191 206 216 174 206 218 102 42 92 103 106 106 102 100 93 89 94 103 113 134 155 163 161 159 160 161 162 164 161 163 160 160 164 163 165 163 162 158 155 151 147 150 148 157 163 168 157 158 166 161 157 162 163 162 162 157 96 93 97 95 99 90 108 131 112 116 156 158 212 213 135 31 45 51 46 55 43 44 42 45 42 45 38 45 38 55 90 126 157 169 150 158 199 206 207 182 206 208 177 43 92 102 103 109 106 108 101 98 92 94 98 107 124 139 150 159 164 161 158 163 164 168 165 163 166 163 163 163 156 148 153 152 151 158 158 160 163 165 158 162 164 162 158 163 165 163 162 148 96 105 89 81 98 77 125 121 127 87 194 123 208 205 219 56 38 49 48 50 37 40 40 46 39 41 44 83 128 164 178 179 170 158 137 199 197 208 196 185 206 205 207 87 85 104 107 106 103 108 107 108 101 98 93 92 102 111 123 142 159 167 171 172 167 164 164 162 160 160 161 162 158 156 158 158 160 164 164 165 165 165 166 165 166 160 160 164 168 163 165 127 99 109 112 73 65 72 132 118 130 83 194 146 178 217 195 172 31 40 50 50 