P2
92
112
255
34 38 36 37 34 33 29 30 26 29 36 35 40 34 34 37 37 40 52 54 49 47 43 39 40 39 36 36 38 43 46 44 42 41 44 44 41 41 47 45 49 48 50 43 45 39 35 28 38 33 38 36 33 31 42 42 43 42 46 47 49 52 43 43 39 38 31 31 31 34 32 31 32 35 31 30 34 37 39 40 41 38 48 54 51 51 48 45 44 46 45 46 33 37 38 41 37 36 29 27 28 29 35 31 32 35 31 34 40 48 44 48 42 41 42 33 41 39 44 40 42 44 37 37 39 39 43 43 48 41 47 45 45 40 37 39 34 35 40 38 43 42 37 34 37 39 44 53 49 47 54 54 58 57 51 42 42 44 34 39 37 38 40 37 29 30 38 31 35 34 38 39 45 43 37 48 56 50 54 42 50 46 46 47 34 37 42 37 34 28 27 29 33 29 36 29 30 37 36 38 44 37 43 41 35 35 38 38 37 44 40 44 36 45 48 44 42 42 50 43 44 40 42 42 37 42 47 41 43 43 47 40 45 41 37 36 41 48 56 57 59 59 61 58 55 48 46 41 39 44 46 46 42 35 31 41 41 43 38 41 41 34 36 37 48 50 48 41 52 55 51 49 48 46 48 48 37 36 35 39 27 25 30 33 30 29 31 29 30 39 34 38 34 37 36 37 40 38 41 45 41 40 45 41 47 50 43 39 38 39 41 43 43 41 41 39 43 52 51 52 51 50 40 38 35 38 29 36 46 55 61 57 55 57 54 50 51 53 49 45 42 48 49 54 47 44 34 35 31 43 44 36 48 46 41 36 44 44 49 51 55 55 52 50 48 46 47 50 36 37 38 34 25 25 28 32 34 26 34 33 33 34 36 37 37 39 44 47 45 42 41 45 48 40 46 42 40 44 42 45 41 47 47 43 46 46 50 57 57 52 53 39 40 40 36 39 39 37 38 47 56 64 63 60 53 54 68 66 67 54 57 52 47 49 44 51 61 49 50 40 43 38 45 45 42 41 46 45 32 46 55 55 63 54 55 51 50 51 48 52 33 38 41 26 23 28 23 35 29 28 34 29 35 34 32 38 44 47 48 40 51 47 52 48 48 44 42 45 42 41 41 41 40 38 40 42 41 50 53 50 52 44 41 39 43 38 43 39 43 47 48 60 69 60 52 41 41 52 57 58 63 65 63 55 50 55 53 53 55 68 55 55 39 38 39 43 44 45 46 57 51 46 50 55 59 57 56 49 51 48 48 52 33 40 31 25 27 26 27 32 30 34 31 37 36 40 51 44 41 47 49 52 52 52 56 52 44 43 40 49 44 44 44 45 40 41 46 43 46 51 44 47 42 41 43 39 42 41 44 37 40 48 50 65 58 48 40 41 38 46 57 60 67 69 74 69 60 60 45 40 43 62 76 53 57 40 43 46 54 51 53 53 63 53 46 53 62 59 53 47 53 51 47 49 41 32 30 31 30 27 28 29 28 38 33 32 45 45 44 42 49 48 55 59 59 59 55 58 46 43 51 52 50 46 50 48 51 51 49 52 52 49 48 41 41 42 44 38 38 42 42 42 44 52 62 59 49 41 47 45 47 47 55 66 74 75 75 79 70 65 58 51 41 43 74 62 60 49 48 49 50 59 51 62 64 56 59 48 61 59 55 55 50 47 49 51 37 33 34 33 30 28 31 28 34 35 31 31 40 36 44 53 49 53 63 64 57 54 53 53 49 53 59 49 44 50 50 50 49 52 60 56 48 44 44 48 52 41 49 44 44 50 50 52 56 60 55 56 50 51 51 56 61 59 62 73 83 86 82 87 83 74 66 63 59 47 60 67 53 65 48 57 42 45 57 54 61 59 52 55 54 68 50 56 55 48 52 46 34 41 27 27 31 31 28 33 32 30 31 31 38 39 48 48 51 56 56 53 50 54 52 51 67 63 57 51 47 56 54 51 54 61 55 47 46 50 50 47 45 47 53 50 52 59 58 63 63 63 62 54 61 55 57 69 70 71 68 81 101 106 96 107 102 90 73 68 70 54 57 62 54 55 54 56 58 43 51 57 54 64 50 50 48 68 55 54 54 53 51 46 35 40 28 29 31 25 29 33 30 30 33 29 39 46 48 46 48 46 50 51 56 57 57 61 63 63 51 52 52 52 48 48 52 54 54 51 55 58 55 50 53 55 64 60 64 67 66 65 69 69 68 64 62 64 67 68 80 77 72 81 98 104 105 104 111 107 81 67 63 59 50 66 51 47 55 60 57 50 46 60 44 59 53 44 43 60 65 48 53 52 51 47 39 35 28 31 26 32 27 32 30 35 35 36 45 48 45 45 45 59 53 53 55 57 63 59 62 57 57 58 55 58 46 56 56 56 55 59 57 57 55 55 60 65 66 70 67 76 76 71 73 74 68 69 63 66 73 71 86 84 80 82 96 108 110 110 105 122 102 77 64 57 60 54 59 42 58 60 55 49 51 45 47 51 57 47 38 53 61 53 51 50 51 50 36 30 31 27 30 34 29 31 38 32 36 39 45 43 42 46 49 48 48 50 55 55 58 63 57 65 57 58 57 56 49 53 60 60 59 61 60 58 63 68 72 70 71 71 75 81 84 79 79 75 70 71 69 68 79 76 88 90 90 83 96 105 112 119 104 116 114 89 68 52 65 60 58 51 44 56 53 50 51 42 55 43 53 50 36 52 53 61 55 47 51 50 31 31 29 25 28 26 30 29 32 36 40 48 46 42 45 44 42 44 51 53 53 53 57 61 56 61 57 63 61 58 58 60 60 59 61 67 67 69 71 70 75 69 68 69 80 83 83 80 79 81 76 79 80 73 88 89 89 95 89 86 99 102 106 125 119 111 120 109 79 62 46 61 62 57 57 45 53 55 48 51 55 50 43 49 37 48 58 50 59 48 53 51 19 25 26 26 28 25 30 31 42 34 44 49 45 42 48 47 52 52 54 60 57 60 56 57 56 55 56 61 62 64 60 63 61 62 65 65 72 75 76 75 73 74 70 78 83 82 82 80 87 82 87 86 86 88 94 94 96 101 93 88 104 99 101 118 124 113 118 113 93 74 55 51 56 58 57 50 47 54 48 48 44 45 42 48 43 38 56 46 53 50 54 49 24 25 27 23 32 24 29 29 30 32 45 51 52 54 51 61 55 58 57 59 57 55 66 62 59 56 57 60 59 62 63 69 65 67 72 77 83 82 77 81 89 81 81 79 81 86 86 92 98 94 93 92 89 93 94 101 101 100 92 101 110 104 95 119 124 119 114 118 104 82 66 52 51 61 53 53 45 47 51 45 45 45 41 48 48 39 58 45 44 53 49 53 26 25 23 22 26 28 30 28 29 37 54 56 58 54 56 57 56 53 61 68 61 72 70 72 64 57 58 66 64 69 73 77 72 71 77 76 82 83 86 84 85 86 82 85 91 97 92 96 106 100 94 93 88 90 98 107 106 104 100 105 113 108 104 111 123 119 120 118 106 90 75 54 52 55 52 51 47 42 49 54 47 40 42 42 39 42 53 48 39 52 50 53 27 22 21 25 24 29 23 32 29 38 60 56 56 47 60 57 58 66 66 76 69 72 76 69 65 59 66 66 61 64 66 69 67 67 78 81 81 83 87 81 87 92 91 93 103 96 99 103 106 99 97 90 85 91 107 109 109 102 109 112 120 113 106 111 116 120 122 122 115 102 86 66 47 53 44 54 46 45 45 55 54 51 45 44 39 44 49 40 37 51 52 50 27 19 21 22 24 20 32 23 33 48 60 55 68 74 64 63 78 76 73 75 72 74 81 74 59 65 66 62 56 60 55 64 66 74 80 76 81 85 86 86 88 93 88 96 100 100 104 107 106 99 98 92 90 105 110 112 104 109 114 115 125 117 111 115 119 123 124 123 114 106 91 66 50 50 44 45 42 43 48 50 48 42 50 41 38 46 43 38 37 48 56 49 25 23 21 23 27 20 27 23 37 52 58 69 77 82 63 72 74 69 70 74 79 83 85 72 60 68 62 57 55 59 65 67 70 75 80 77 86 85 92 90 90 92 90 100 102 107 108 107 108 102 99 98 101 111 116 105 103 108 116 120 128 127 116 116 121 126 126 122 117 105 94 73 57 51 40 39 44 41 43 46 55 43 49 40 38 45 36 36 37 44 54 52 22 22 23 22 23 23 25 30 44 61 68 74 87 78 72 73 72 82 82 83 89 87 78 65 57 60 57 57 58 65 75 74 77 82 88 85 93 94 96 97 100 101 97 103 104 109 110 111 110 106 102 105 105 107 111 105 106 112 116 128 130 131 124 115 122 127 125 123 117 116 103 87 64 61 40 36 39 47 47 49 49 43 49 44 47 41 35 42 38 45 52 49 22 25 23 24 26 26 29 34 50 60 75 85 82 64 74 82 82 84 88 85 80 73 72 65 66 64 64 66 68 76 76 81 81 86 94 96 98 96 102 105 107 103 107 109 110 113 117 116 112 110 109 109 108 112 115 121 117 116 119 127 134 133 128 121 124 126 129 128 126 120 107 90 75 66 51 42 39 48 47 44 48 46 45 45 43 44 37 42 42 42 52 54 20 24 22 26 24 26 26 36 53 71 80 84 66 82 90 82 89 90 81 71 70 69 69 66 67 69 63 70 70 77 77 85 87 97 107 106 102 102 106 107 107 107 104 112 115 120 122 117 119 117 111 111 116 127 129 120 116 115 122 128 135 138 128 124 123 126 132 129 126 125 115 100 81 65 59 40 42 55 40 46 42 43 48 47 41 40 40 38 42 47 53 53 24 23 24 23 26 26 29 35 56 74 76 62 79 102 99 90 90 78 73 69 74 71 64 69 70 70 67 70 71 81 88 92 103 110 111 108 102 104 106 108 109 111 113 115 114 122 120 116 117 115 116 116 120 130 128 122 120 124 130 135 129 139 134 122 126 125 131 133 128 126 122 108 84 74 51 43 39 51 47 46 44 47 41 49 40 41 40 38 43 48 56 55 26 25 23 27 28 24 29 42 52 64 65 74 93 104 106 98 93 87 83 77 81 67 69 76 77 67 71 75 85 90 97 106 112 113 111 108 105 104 112 115 112 114 116 118 118 123 119 116 113 121 118 122 125 128 122 125 132 130 128 135 137 136 130 122 131 132 134 135 121 124 121 106 88 76 56 49 46 48 49 52 41 46 45 41 45 42 40 43 43 43 56 57 30 27 24 28 26 26 32 47 54 74 72 86 96 104 105 106 97 91 92 89 78 71 78 77 70 65 74 84 93 105 107 112 112 114 112 109 105 106 117 120 115 115 121 120 123 126 127 121 122 127 126 126 125 131 129 133 134 128 129 139 141 142 141 129 136 137 135 137 134 120 114 115 88 79 60 48 57 52 49 50 45 40 46 40 42 40 41 50 36 44 54 57 33 26 24 27 24 24 34 50 61 68 79 90 99 104 106 106 96 98 97 86 73 80 83 66 80 80 91 94 107 111 109 114 117 115 112 104 106 112 119 121 117 116 123 124 129 129 129 127 128 138 133 132 134 137 139 139 133 134 135 137 143 144 140 131 140 140 141 137 131 125 114 103 93 74 64 45 45 55 54 46 49 43 43 43 43 42 41 47 41 43 57 53 41 26 22 24 25 29 32 48 65 73 85 91 95 96 101 97 102 101 85 64 70 75 70 83 89 93 103 106 114 112 111 117 120 116 112 106 111 115 120 117 116 120 121 129 126 129 129 131 131 141 140 141 139 142 142 141 140 140 139 139 138 143 142 132 141 142 142 140 130 118 116 107 83 75 62 51 42 48 54 53 43 44 47 42 50 38 40 49 49 41 56 54 40 27 24 24 25 27 37 51 73 82 87 89 93 91 83 89 89 78 69 73 76 81 87 92 91 106 113 116 118 112 111 119 120 115 115 114 117 120 118 113 116 121 128 128 128 131 132 134 134 141 145 142 142 143 143 145 143 146 144 141 140 143 139 138 142 143 144 143 144 132 114 104 93 70 61 54 48 43 57 52 46 53 49 41 49 41 49 49 50 48 47 61 45 33 20 26 26 29 38 59 77 87 88 89 100 101 97 91 95 90 90 87 92 94 96 92 100 110 115 111 105 111 114 118 121 118 118 119 120 112 117 114 121 122 127 131 128 134 136 139 140 145 145 145 142 142 144 146 146 146 147 142 145 143 141 137 140 143 144 147 146 138 127 104 91 75 57 52 59 52 49 53 48 55 50 41 48 46 48 51 48 52 51 58 49 38 22 25 30 24 42 63 81 87 89 96 103 104 103 102 100 101 100 101 104 103 101 97 102 104 105 103 109 114 118 122 121 121 122 119 114 114 112 118 126 124 126 131 133 136 136 140 143 145 146 143 147 146 149 148 149 150 146 143 145 143 142 137 140 142 148 147 146 138 123 112 87 70 57 54 56 63 47 52 49 49 53 42 53 47 50 53 51 49 57 56 46 43 24 25 27 25 49 68 84 86 88 97 106 108 106 110 109 111 110 106 111 110 108 108 108 109 108 109 114 119 121 122 122 124 121 119 113 113 117 123 127 126 127 134 137 141 141 140 141 148 147 141 143 148 153 153 152 152 147 146 145 143 144 139 144 145 143 149 147 145 134 110 94 67 63 52 55 62 47 50 52 51 53 43 56 53 54 48 54 48 56 57 46 46 32 20 27 26 53 79 87 87 86 100 107 108 107 114 113 113 118 115 114 120 117 115 115 114 117 119 121 124 125 128 122 122 122 123 120 116 121 123 128 126 129 136 137 139 141 143 143 146 147 146 146 151 151 153 154 152 151 147 145 145 148 144 145 147 142 148 150 151 143 122 101 70 71 58 64 62 55 50 53 48 56 54 57 47 52 51 51 56 55 55 46 44 38 24 25 29 56 80 87 88 89 98 104 108 108 114 113 117 116 117 118 119 117 119 121 115 119 120 125 129 132 130 128 122 125 126 119 121 127 125 126 128 131 134 138 138 140 144 143 146 142 146 151 150 153 156 153 152 151 150 148 147 148 147 147 147 148 147 151 149 148 133 119 94 72 69 67 64 55 56 55 49 55 58 57 45 55 55 52 61 56 58 42 47 39 28 26 24 66 80 89 84 88 100 103 103 105 109 116 115 118 117 120 120 118 120 118 117 119 122 126 128 132 132 134 128 129 129 120 121 128 127 126 132 134 137 136 139 142 142 145 145 148 153 152 151 155 151 152 150 148 150 150 145 148 147 147 146 149 149 149 150 149 141 131 111 78 63 63 60 58 61 56 53 57 54 60 42 59 50 61 58 58 57 44 44 42 27 26 21 69 83 87 84 88 96 99 97 98 104 111 111 116 116 115 117 115 119 112 113 117 120 126 126 130 130 133 127 134 128 123 120 125 127 132 134 137 140 137 138 143 144 142 145 146 150 149 152 157 153 146 144 143 144 150 147 146 147 146 147 149 150 145 147 151 143 139 120 91 69 58 51 52 58 60 54 52 50 63 45 57 47 61 57 59 54 41 43 43 29 22 23 70 83 82 86 91 94 91 86 86 93 103 101 105 109 105 101 105 112 106 107 111 114 121 126 126 130 129 129 129 126 120 124 127 129 135 133 138 139 137 136 138 143 142 144 147 148 147 150 153 146 140 138 132 136 142 145 140 143 148 144 150 145 149 147 150 146 140 134 106 74 59 56 54 52 61 58 52 51 59 44 56 53 55 57 59 52 44 44 43 33 21 20 74 83 82 87 89 78 80 80 81 77 83 89 88 90 93 94 91 97 94 95 107 110 113 120 122 124 123 126 125 127 125 126 127 130 130 130 137 137 131 133 135 138 140 142 140 138 137 138 142 134 137 136 128 125 125 130 131 137 142 143 144 148 152 149 151 146 137 140 125 80 68 64 55 55 54 62 51 60 49 42 52 52 54 60 56 58 40 46 47 36 24 20 77 81 84 84 80 75 74 74 73 72 67 66 68 71 70 78 79 88 87 86 97 107 111 114 119 120 122 125 125 127 123 127 126 129 129 127 130 132 131 134 130 125 121 124 122 121 121 121 125 125 124 126 124 124 127 128 132 132 140 147 145 149 151 149 149 147 135 141 134 94 68 67 56 50 58 54 59 62 52 41 44 55 59 60 58 57 45 43 44 44 24 18 75 76 73 73 67 64 67 56 65 67 61 58 59 56 57 59 66 73 83 84 87 101 104 109 112 118 116 116 121 121 126 126 127 128 131 126 126 121 122 119 114 109 96 102 104 104 103 109 111 116 121 120 119 123 124 123 125 132 134 143 144 147 149 149 147 153 140 140 131 104 66 66 61 47 50 57 58 61 64 40 38 55 59 58 58 51 44 45 46 43 27 18 76 74 69 66 60 58 61 54 57 63 60 55 59 54 52 56 61 66 72 80 84 97 99 101 108 111 111 110 116 117 122 125 130 129 131 134 128 121 120 119 111 100 94 88 82 86 86 86 96 108 110 118 117 120 132 130 130 133 126 135 146 146 145 147 152 152 144 142 134 110 77 59 67 61 46 66 53 64 55 48 41 51 63 57 57 52 42 44 43 59 31 18 78 69 62 60 63 59 60 60 56 58 57 57 60 64 57 59 64 65 71 73 77 88 91 95 106 106 107 115 118 117 117 124 130 134 131 140 136 126 125 122 114 108 99 87 84 86 83 75 80 94 103 106 109 109 113 118 126 131 131 131 136 146 143 149 150 148 147 141 139 116 82 61 62 64 53 60 61 65 48 37 43 51 61 60 55 59 43 40 63 95 40 18 76 70 61 54 61 62 68 69 68 67 69 73 72 75 72 71 68 62 66 67 67 73 75 80 93 98 103 113 118 119 123 131 138 140 137 143 139 135 138 134 129 125 124 115 112 113 113 102 102 109 111 114 120 120 116 123 126 129 131 130 131 142 143 150 149 149 153 146 138 122 82 60 63 68 47 49 66 54 56 21 42 58 62 58 55 61 43 38 60 111 42 18 73 67 62 58 59 64 72 72 70 69 67 68 67 63 62 60 58 55 60 65 62 64 63 64 77 91 102 114 115 120 129 140 146 148 146 147 142 139 139 137 127 122 122 120 120 121 120 118 115 119 121 126 134 142 142 143 140 138 137 139 133 141 145 149 147 150 153 147 142 125 87 59 63 72 53 47 58 58 41 24 46 63 62 59 57 58 43 38 56 86 66 17 71 75 64 60 65 67 72 63 56 53 57 57 65 68 68 62 50 54 54 55 54 62 60 57 61 85 101 115 117 131 139 148 154 150 144 144 138 134 137 134 125 114 102 94 89 89 91 92 101 108 117 127 137 145 150 147 152 150 145 140 134 137 144 147 150 152 154 153 146 124 95 60 62 70 67 45 55 51 27 46 88 115 115 106 72 55 45 40 70 46 88 23 73 78 67 66 64 67 66 52 57 61 59 54 50 48 53 53 56 59 59 62 59 59 60 52 53 73 100 116 122 131 144 151 157 150 144 137 135 133 129 123 116 97 74 72 70 77 80 83 83 90 92 103 118 133 149 154 157 152 150 148 142 142 144 146 153 152 154 154 146 128 95 65 60 63 73 62 47 45 71 126 142 165 163 154 141 98 44 42 78 40 68 28 77 80 70 72 68 68 54 52 57 48 46 40 24 26 30 24 31 50 58 67 67 67 68 62 47 62 98 119 133 143 149 155 154 149 138 134 136 127 120 107 89 72 71 73 75 78 84 88 89 96 97 104 104 111 123 139 153 159 155 157 151 150 149 149 151 153 157 149 151 132 101 63 60 65 65 67 37 80 132 150 168 168 158 158 164 156 47 41 79 45 44 38 74 83 73 69 70 62 51 50 42 48 65 43 31 17 84 34 25 33 44 61 71 74 75 75 59 57 99 126 143 150 151 157 156 149 136 137 130 119 104 89 75 73 73 81 85 78 64 55 54 56 63 89 110 113 112 118 138 152 154 158 157 157 157 151 154 156 154 154 155 138 104 70 64 64 59 60 72 130 150 177 177 166 164 144 133 172 41 47 77 51 42 33 85 85 76 69 68 57 47 37 45 72 81 52 31 22 33 29 25 51 60 50 55 70 84 87 70 57 101 133 147 159 159 156 152 145 136 146 134 107 89 79 77 83 86 75 71 76 47 33 60 38 35 46 77 108 123 122 127 143 154 158 160 161 155 155 156 155 156 156 154 139 111 75 64 73 59 70 122 152 162 199 174 168 175 166 102 144 44 43 72 53 47 44 85 84 83 72 69 53 43 49 55 73 87 67 36 31 34 30 31 69 82 88 63 54 62 79 71 63 101 134 153 165 165 158 151 143 133 134 128 105 83 85 82 90 83 71 87 90 52 32 50 39 34 52 101 98 103 119 132 139 156 158 161 160 154 156 157 156 157 156 155 137 110 75 70 68 78 91 149 162 158 178 191 160 172 177 105 116 42 41 76 56 51 59 81 87 89 82 73 54 53 65 73 75 86 80 57 37 39 36 50 66 74 68 62 58 62 72 77 76 103 141 158 168 168 158 149 140 129 125 117 114 101 84 89 82 81 90 106 108 65 37 32 52 97 73 131 122 87 106 125 135 150 157 160 162 161 159 162 160 159 160 154 139 119 74 63 68 82 125 170 150 150 165 208 162 162 197 109 99 42 32 70 59 64 70 77 87 92 94 84 73 70 61 66 73 87 88 91 75 69 71 73 66 84 82 74 71 74 84 71 75 111 143 166 173 170 159 146 137 120 120 132 125 96 75 92 87 78 94 114 124 96 53 47 44 68 112 127 101 98 102 117 128 146 153 158 161 164 162 164 160 158 160 151 145 121 75 60 76 96 149 164 117 147 161 197 173 155 194 124 94 41 34 58 77 74 71 78 87 98 100 98 88 83 69 59 62 65 72 78 73 69 69 72 69 74 78 83 82 82 85 65 76 116 144 165 177 172 158 146 137 115 121 136 120 95 82 75 72 80 85 96 107 112 91 67 65 99 119 107 113 113 118 124 130 139 154 160 163 164 162 164 160 160 160 153 147 125 81 65 78 129 167 143 131 147 170 189 191 152 182 139 90 39 35 50 92 86 68 76 87 99 99 105 100 88 74 62 72 78 76 77 73 73 72 74 76 80 83 86 87 91 84 68 87 122 149 168 175 171 156 146 135 112 109 123 110 91 84 83 79 81 85 86 82 92 98 95 95 104 108 123 130 129 135 138 137 141 149 160 161 164 163 164 160 162 161 155 150 129 86 88 102 159 170 178 154 142 162 194 191 148 184 135 90 40 38 37 93 93 72 71 86 100 104 108 109 96 80 73 76 76 79 79 78 80 78 80 79 85 95 92 91 95 92 88 97 122 146 169 173 166 149 144 133 115 105 111 108 96 85 90 89 89 93 99 92 96 105 105 111 125 138 144 145 142 141 143 147 150 152 161 162 164 162 163 161 164 158 158 150 144 120 120 145 172 142 190 167 148 156 187 191 147 181 116 96 41 36 31 84 93 76 66 87 96 106 114 115 105 92 81 78 81 78 80 78 80 83 84 84 85 92 95 97 106 105 99 98 118 154 175 177 160 147 143 134 122 113 110 112 98 86 93 98 98 100 112 110 111 117 118 129 145 153 158 151 145 145 147 154 152 158 158 160 160 163 162 163 161 163 155 151 148 134 129 160 156 96 143 155 155 158 178 196 149 168 90 128 38 36 30 78 95 83 61 86 98 106 116 117 115 101 95 88 86 86 88 88 89 92 92 92 90 93 102 110 113 109 100 95 118 152 171 174 159 149 144 136 131 122 117 116 104 97 98 103 107 111 115 117 124 128 132 144 152 153 152 150 148 150 153 157 153 157 159 158 153 164 163 162 159 157 154 153 147 138 133 155 148 118 119 136 151 157 169 195 153 144 87 154 40 37 27 75 95 93 63 85 99 107 117 119 119 112 103 98 96 95 98 99 93 95 93 92 90 103 110 114 114 108 99 99 119 149 168 169 156 148 145 141 137 136 129 126 117 111 104 107 109 116 117 123 124 129 131 141 146 149 148 152 153 153 157 158 159 159 163 160 157 161 166 157 160 155 153 151 147 138 138 143 155 135 116 122 136 147 159 194 155 126 94 172 39 39 25 71 94 107 78 84 97 105 115 117 122 115 111 103 99 99 96 101 97 98 97 97 100 110 114 114 110 105 95 104 120 146 171 174 156 145 143 146 148 148 146 139 134 125 119 112 111 119 124 129 129 132 136 140 142 149 151 153 151 157 159 158 159 160 161 162 159 162 162 161 154 151 155 151 144 142 142 144 150 152 128 114 121 134 156 192 155 114 110 165 41 39 30 64 94 108 87 82 96 105 112 117 120 115 115 110 104 101 99 99 102 102 106 107 111 116 111 113 107 102 100 102 122 146 167 173 158 147 143 145 151 153 150 150 142 136 131 119 115 116 122 125 133 136 141 142 147 151 154 155 156 157 159 162 162 163 161 163 165 163 161 161 158 154 153 148 146 144 139 159 153 160 140 114 113 120 163 184 159 103 130 142 38 40 28 57 92 103 93 76 97 101 110 113 112 116 114 113 111 109 109 107 106 113 116 118 119 114 113 109 106 99 104 106 128 152 168 173 160 149 146 146 148 152 156 151 149 144 143 135 131 123 124 127 128 129 138 145 147 152 158 158 156 160 158 159 160 167 163 164 162 159 154 157 154 151 152 147 149 145 140 167 168 162 150 118 111 108 171 166 154 100 147 104 35 39 30 54 91 107 101 75 94 101 106 109 108 113 110 112 114 113 112 115 116 120 124 125 120 116 112 106 105 104 106 112 131 152 167 170 159 152 149 148 148 150 153 157 150 147 150 146 145 136 129 128 131 134 137 145 150 155 161 161 160 160 160 160 162 164 164 167 164 162 157 155 151 149 152 146 146 145 144 171 168 164 151 123 106 109 177 154 138 103 160 77 39 41 34 44 103 86 103 73 92 97 105 108 108 113 107 113 113 114 118 121 126 129 127 129 127 118 111 110 104 105 113 124 139 158 170 166 161 154 153 148 151 151 157 156 153 150 149 150 150 147 141 137 133 136 142 147 149 155 156 160 160 162 157 162 163 167 163 171 164 158 160 155 152 148 155 146 146 149 148 168 153 160 133 113 107 109 177 155 117 126 147 59 40 37 36 36 108 82 89 79 83 91 101 102 108 109 108 111 114 113 119 126 125 130 132 130 129 120 113 109 105 110 122 129 148 162 170 169 165 156 155 151 150 154 156 160 156 148 151 151 151 154 150 147 143 141 142 143 150 153 159 163 164 161 161 167 171 175 173 170 163 158 156 152 152 149 152 148 148 146 158 157 130 140 115 108 109 127 184 152 110 150 123 51 40 39 37 28 98 104 82 89 81 91 100 101 108 111 112 114 117 117 122 130 129 132 134 132 128 122 115 105 107 119 128 131 145 156 166 167 166 160 156 153 149 150 154 161 157 156 151 155 152 153 152 152 152 150 152 150 156 158 163 163 162 165 168 172 170 171 172 170 165 157 155 151 147 149 151 148 147 148 163 122 114 120 109 108 124 159 184 135 126 166 85 54 39 36 36 23 86 111 89 92 76 96 99 103 107 111 113 116 116 123 122 127 129 129 130 132 129 125 113 106 114 124 133 138 148 155 165 170 170 163 156 151 148 147 151 160 162 161 158 161 160 160 161 164 162 160 164 161 161 162 165 169 166 164 165 170 170 169 172 170 166 158 158 152 147 149 151 150 150 152 132 95 107 107 103 127 160 173 166 123 152 156 57 61 42 37 35 27 62 112 91 83 79 92 101 104 106 115 114 115 118 117 119 123 124 122 127 124 125 117 108 110 116 128 135 143 152 162 165 170 172 164 156 152 152 146 148 154 160 165 164 164 165 161 163 170 163 164 166 165 170 168 164 167 164 164 166 172 169 168 169 169 166 161 158 153 148 141 151 149 149 162 88 83 121 150 150 165 178 167 131 142 171 114 50 63 39 39 37 27 44 111 89 75 79 89 98 100 109 112 117 114 118 117 116 120 124 124 128 123 118 109 109 112 118 127 134 143 149 157 159 165 166 166 158 154 154 150 148 150 154 164 168 171 169 166 165 166 167 167 172 168 169 171 169 166 168 167 168 167 168 166 166 166 168 162 158 151 149 149 149 147 154 155 92 119 141 178 171 171 171 140 137 162 165 74 55 64 41 39 36 34 33 104 84 67 81 91 98 102 108 108 112 115 116 115 116 120 123 124 122 118 108 102 107 109 116 125 133 145 149 151 153 158 162 160 157 155 154 150 147 150 151 160 163 165 168 172 169 170 168 170 170 172 172 174 171 164 160 167 169 170 167 166 164 161 163 160 156 153 152 157 151 148 153 151 126 150 151 177 172 165 151 137 149 173 134 54 58 62 42 38 40 37 18 97 88 64 78 90 98 103 109 109 110 116 115 118 119 116 119 115 112 103 102 101 98 99 106 118 127 135 146 152 156 158 155 156 156 154 153 148 148 149 151 155 161 162 164 166 170 172 167 168 170 172 175 176 177 173 165 169 172 173 172 171 168 163 159 159 154 153 157 152 151 150 152 154 160 167 168 168 174 162 149 154 162 169 80 56 60 59 40 39 37 37 21 67 88 77 79 88 93 104 105 112 114 114 114 116 115 115 112 108 104 97 97 91 90 84 95 108 124 131 140 152 160 161 157 162 160 158 154 146 147 147 150 152 157 158 160 163 166 167 169 171 167 168 171 172 174 167 163 164 171 171 173 171 171 171 162 159 153 153 155 150 151 150 149 160 172 173 173 166 169 149 158 162 173 122 53 57 63 60 42 40 37 37 33 32 81 80 80 86 91 102 105 109 114 114 110 114 112 111 108 101 99 95 89 87 86 81 84 96 112 121 128 142 152 163 168 171 160 153 151 150 151 151 150 152 152 149 150 159 165 163 165 169 170 171 172 171 169 164 161 167 168 172 173 174 176 170 162 159 154 155 154 151 151 150 146 159 171 172 173 170 171 161 159 154 152 60 59 54 62 56 41 41 35 36 32 34 42 72 77 86 90 100 104 108 111 112 112 114 110 107 101 100 96 96 93 87 83 75 71 84 102 112 119 129 144 161 164 159 150 150 151 153 153 152 148 150 148 143 142 150 165 163 167 167 170 169 169 173 170 167 166 166 168 168 171 175 174 170 162 159 152 152 157 152 147 150 145 161 168 166 170 166 167 161 158 161 92 49 58 57 63 61 41 41 36 35 35 33 34 37 74 89 92 96 104 106 105 111 115 114 109 104 102 98 100 105 101 90 76 65 54 72 94 106 114 125 141 152 152 144 125 102 114 139 155 154 148 144 149 140 142 143 152 159 164 166 169 170 170 170 171 175 171 172 171 172 169 170 171 169 164 159 151 150 150 152 149 154 151 162 171 161 168 162 156 162 163 130 51 56 60 56 62 60 43 35 41 38 32 37 37 29 58 87 94 94 98 103 109 108 113 107 107 98 99 102 108 110 110 102 83 59 50 56 87 105 117 128 142 149 139 122 101 79 85 114 144 149 143 147 151 148 145 146 147 151 160 165 168 168 172 170 172 175 174 172 174 174 171 172 172 172 165 159 153 152 148 153 150 152 155 163 170 158 165 162 157 170 150 67 51 61 56 56 59 57 40 39 42 35 36 36 34 33 47 87 92 93 94 105 106 106 106 103 102 101 102 111 113 115 115 108 96 69 50 54 64 95 117 129 141 139 130 132 129 130 132 126 130 136 142 152 154 157 155 145 146 148 155 160 161 165 169 170 172 175 174 177 177 175 174 172 173 169 164 156 154 152 149 149 154 151 150 161 172 169 170 177 170 156 86 49 54 55 56 55 58 54 41 38 41 35 35 37 32 31 42 83 89 93 99 102 104 105 104 104 97 97 107 112 110 117 113 112 105 81 57 48 60 87 111 127 136 136 133 139 137 143 137 131 132 143 149 150 152 160 160 152 147 149 152 155 159 162 167 170 170 173 174 181 176 174 170 169 171 165 165 159 154 153 153 153 154 154 138 154 171 174 169 151 119 74 54 58 56 57 57 54 59 59 41 40 38 35 35 37 32 36 34 78 87 91 96 100 101 104 103 100 99 103 105 107 107 110 112 111 106 86 64 54 57 69 96 110 118 124 129 131 127 132 130 130 134 141 141 146 147 160 165 158 152 150 151 155 156 160 164 168 171 172 174 180 180 177 172 174 173 163 165 157 154 153 157 152 151 158 94 131 150 140 98 72 55 58 57 52 58 56 56 58 59 60 43 41 35 40 32 36 36 35 31 69 84 90 95 97 102 101 101 101 103 105 107 106 105 106 105 104 102 91 73 63 61 77 97 97 97 112 132 134 128 125 124 126 131 144 147 149 151 157 163 165 156 153 151 154 159 157 163 167 170 174 183 180 179 177 173 175 172 167 167 159 152 154 158 154 154 153 53 59 69 62 54 56 56 55 55 56 57 58 58 57 60 55 43 38 40 40 35 36 36 33 30 59 85 85 94 95 99 101 96 99 103 101 100 102 103 99 101 105 103 90 76 68 68 93 111 100 79 99 127 130 123 122 118 119 131 140 148 147 152 157 159 161 157 154 152 151 151 157 162 164 171 175 180 182 182 182 177 174 172 170 163 159 157 154 158 153 156 146 52 56 58 53 56 57 54 56 55 56 57 55 57 59 57 59 40 35 40 40 37 35 38 36 27 54 81 86 90 91 96 98 99 102 99 99 99 95 91 95 99 102 102 97 91 80 80 104 116 102 75 85 113 123 120 116 115 116 130 142 144 141 146 153 158 159 162 158 158 154 152 151 159 163 170 175 178 178 180 180 177 174 171 168 163 158 161 155 156 152 159 126 47 59 56 54 59 56 58 55 57 54 58 52 57 61 59 59 39 37 43 37 36 36 32 36 30 48 75 84 88 88 97 97 95 97 97 97 96 94 89 89 98 102 104 104 104 93 90 104 110 96 81 80 105 116 116 116 117 123 131 136 141 137 144 148 154 162 160 160 158 162 160 153 155 158 168 171 176 177 180 182 179 174 171 169 166 157 162 157 157 153 159 101 47 58 58 58 56 53 55 56 59 54 58 57 59 59 56 61 38 42 37 41 35 33 34 32 33 37 76 83 86 88 93 94 96 94 97 94 94 88 89 89 94 105 104 107 100 100 95 107 109 97 86 89 104 115 116 119 122 131 136 137 139 140 143 148 155 154 153 155 155 159 163 157 152 157 163 170 179 178 177 179 172 172 167 166 167 159 162 156 160 156 158 83 47 58 58 57 53 55 56 53 57 58 55 62 58 59 57 59 39 40 36 39 36 36 36 33 35 31 68 83 91 90 95 97 95 93 95 89 90 87 87 87 88 91 91 90 92 92 91 97 105 106 101 109 114 121 128 127 131 131 136 138 134 132 141 149 153 151 146 151 151 157 163 165 159 157 165 172 180 177 175 176 168 176 172 170 165 160 165 159 159 153 158 65 55 53 61 57 59 57 55 56 55 54 58 60 58 64 56 62 44 37 38 40 37 34 38 34 36 28 62 79 90 94 93 95 95 90 96 88 89 84 79 72 74 67 77 85 90 89 90 89 89 98 107 107 108 111 120 128 135 140 147 145 139 136 146 154 150 151 147 148 153 160 164 165 163 159 164 175 180 177 177 173 169 177 173 169 166 162 161 161 158 151 149 48 60 58 56 59 54 59 57 52 55 56 57 58 61 59 62 62 45 36 38 39 37 37 34 34 37 28 53 79 89 91 96 96 94 90 95 91 85 73 63 47 39 38 47 57 62 63 73 74 75 89 94 102 101 105 112 114 116 120 128 128 132 132 140 144 143 135 140 141 144 158 162 159 163 162 164 171 178 176 176 173 172 176 167 168 166 159 162 162 160 148 144 44 56 62 57 54 57 57 57 52 56 55 62 57 61 62 57 64 40 41 38 39 36 42 35 34 36 33 42 78 82 95 92 96 95 96 92 93 86 78 75 71 49 50 53 58 52 53 55 53 57 57 64 67 69 67 73 77 84 89 90 95 97 97 97 96 101 108 118 121 130 149 158 159 164 165 171 171 174 177 176 173 175 171 167 167 166 158 163 164 161 145 128 44 57 62 55 55 56 51 57 52 58 55 60 57 59 59 57 64 43 42 36 37 40 35 40 35 37 34 33 72 83 89 91 94 97 100 97 92 84 80 79 74 73 62 68 75 74 78 78 76 75 71 68 67 70 67 79 83 86 90 92 93 101 101 98 89 92 92 96 95 114 135 149 159 165 167 171 175 180 179 174 175 175 172 169 167 164 159 163 162 159 146 122 44 60 57 55 62 52 57 57 54 58 55 60 60 61 60 62 56 41 41 38 39 39 37 37 32 39 33 31 62 82 83 91 94 97 102 97 94 91 81 85 89 86 81 83 83 84 90 90 92 96 85 78 85 89 91 101 104 106 108 107 110 109 111 118 122 126 128 118 110 113 131 143 159 165 165 173 177 180 177 175 172 172 174 168 166 161 161 161 160 152 151 98 49 60 61 55 60 55 54 60 55 59 60 56 65 61 57 63 56 38 41 41 39 39 36 38 36 36 37 29 48 78 82 86 92 94 96 95 94 95 90 98 100 94 87 87 84 87 91 88 94 98 94 87 86 96 98 106 112 115 118 120 132 135 141 150 152 148 134 132 124 122 132 144 158 171 169 172 180 179 175 172 169 173 176 171 162 164 159 158 157 145 157 85 52 62 57 58 60 51 57 57 55 55 60 60 61 62 61 62 60 41 39 40 41 42 41 37 38 38 34 36 38 74 83 84 91 87 90 95 94 103 102 103 104 98 90 84 86 90 94 93 93 97 98 92 91 102 110 112 121 130 138 147 158 163 166 163 162 155 148 142 139 134 138 145 154 166 165 167 170 174 173 173 176 177 175 172 166 167 162 160 154 144 161 69 50 60 55 57 61 56 55 53 55 59 57 59 64 59 61 61 63 37 40 43 38 38 41 38 34 39 35 34 30 67 80 80 88 86 90 91 90 105 100 97 101 101 92 83 85 86 100 106 112 109 110 109 112 121 128 131 137 147 155 155 155 158 161 162 158 158 158 156 152 149 143 140 156 162 168 172 175 178 174 175 176 176 175 173 165 168 159 161 148 150 164 55 57 58 54 57 59 55 57 57 56 58 62 61 56 61 63 59 61 41 39 42 40 39 42 35 35 36 32 36 32 47 76 81 87 91 90 85 88 94 100 96 96 99 97 88 80 86 98 108 113 104 101 106 114 115 122 124 133 143 149 149 152 154 156 161 156 158 160 159 159 153 143 136 150 161 167 172 178 181 174 173 177 177 174 168 166 165 162 157 146 158 160 46 57 59 56 58 57 58 55 59 59 61 59 60 57 59 61 59 58 38 40 39 41 40 39 38 36 36 36 35 32 38 75 78 83 86 90 87 92 85 96 95 92 96 96 93 89 85 97 107 109 100 95 96 104 111 115 120 131 137 144 149 152 155 162 156 156 156 160 160 159 151 146 136 143 163 164 172 174 175 177 172 175 175 171 168 168 160 157 147 153 161 148 48 58 55 57 57 59 56 59 60 56 61 57 66 60 62 59 60 63 39 39 39 41 40 38 36 38 37 36 37 36 26 61 78 83 83 87 88 90 85 88 95 90 93 91 93 90 87 87 87 92 90 86 90 102 110 115 120 128 135 142 145 150 155 156 156 154 159 160 158 155 151 147 140 147 157 167 173 173 173 173 179 176 176 169 169 162 165 150 153 157 173 128 45 56 57 56 58 54 59 60 52 61 62 60 57 58 63 58 60 57 38 42 42 38 39 39 35 36 37 37 36 37 34 41 77 84 80 84 86 83 85 87 89 92 93 97 95 93 90 86 84 86 87 87 87 92 105 110 119 123 129 136 142 149 154 154 151 148 154 157 148 151 149 148 148 152 161 165 169 169 172 171 176 177 174 174 168 162 155 146 153 164 171 118 51 58 59 59 57 55 60 61 56 59 59 61 58 59 61 61 61 59 37 42 39 43 42 40 39 37 37 34 34 38 36 27 66 82 80 87 83 83 84 87 84 91 97 96 97 101 99 104 102 100 106 110 108 108 111 117 122 128 129 136 141 147 149 153 147 147 149 150 146 145 149 148 152 158 162 164 169 173 174 172 176 174 171 169 165 155 146 147 161 169 169 150 123 72 55 54 58 60 58 65 62 60 61 62 66 59 63 59 63 56 41 39 41 40 44 38 37 38 35 40 35 37 35 33 40 77 84 83 81 87 82 85 85 88 92 94 101 106 108 114 112 113 114 118 119 122 124 132 131 139 144 147 149 147 147 149 150 146 145 149 146 150 148 151 153 157 166 167 169 168 171 173 173 171 171 169 162 152 151 158 169 169 166 130 161 171 129 59 60 61 55 64 67 57 61 64 61 61 61 59 61 59 39 39 42 43 39 37 39 35 35 39 33 32 39 34 29 59 88 84 86 85 86 82 87 89 91 97 105 108 108 110 115 114 115 123 127 127 135 144 149 146 151 149 153 153 149 152 149 149 148 154 146 148 149 152 148 158 166 165 168 169 172 174 170 169 170 168 158 153 158 168 168 166 173 112 155 145 165 167 67 60 59 64 65 62 63 63 59 60 63 59 62 62 40 41 40 40 38 38 41 37 36 38 35 32 37 38 34 34 74 90 87 83 82 82 87 87 95 100 103 110 109 111 112 113 117 124 129 136 138 144 149 149 148 152 145 150 149 153 153 149 147 148 152 153 152 153 152 155 162 164 167 168 170 172 168 173 167 160 155 159 167 171 175 173 158 109 117 137 140 153 188 72 54 61 64 60 62 57 67 58 59 59 58 58 40 39 39 44 37 43 35 39 37 36 32 37 34 37 34 32 38 84 91 82 82 85 87 90 92 100 102 106 109 110 110 114 118 126 133 138 138 143 147 149 149 147 147 148 150 147 148 148 147 151 152 157 149 158 159 157 163 166 164 163 167 174 171 168 158 161 162 169 174 172 173 181 147 114 131 119 126 125 153 199 58 58 63 59 59 63 60 59 57 63 56 56 41 39 40 38 40 40 37 41 35 33 34 36 34 37 33 37 31 35 97 90 84 84 83 87 90 95 98 100 104 108 109 110 116 130 135 139 138 140 146 146 147 149 152 151 154 151 149 153 152 154 156 157 160 155 153 155 160 166 167 165 171 167 164 155 156 164 168 168 174 170 174 180 130 109 128 123 147 105 131 162 192 50 55 58 60 60 58 62 56 66 54 60 38 39 44 38 36 43 35 39 35 39 34 35 31 41 34 39 36 16 105 93 92 84 79 82 88 89 93 97 100 101 106 108 114 125 125 130 127 135 139 140 147 148 153 153 155 152 155 153 149 154 152 150 156 157 155 156 161 166 167 167 165 163 160 161 161 166 173 172 173 175 171 179 126 117 112 116 147 114 117 131 196 145 45 61 62 64 58 64 62 60 59 61 37 40 38 38 39 40 36 36 36 36 35 36 37 34 33 38 29 43 120 62 73 92 85 78 84 83 88 91 92 95 98 105 110 119 124 121 122 127 131 139 146 149 147 151 155 153 151 150 153 154 158 149 152 157 158 155 159 161 161 159 159 156 163 164 166 168 168 172 174 176 175 171 116 126 135 127 131 121 87 148 139 219 86 52 61 59 59 61 56 65 56 65 39 39 38 43 42 36 39 36 40 34 37 28 37 35 36 36 21 94 121 69 29 67 96 86 80 84 86 89 87 91 98 106 104 116 121 121 120 125 136 139 146 152 154 158 161 160 153 155 159 159 151 153 156 156 157 157 157 158 156 159 157 162 164 166 168 171 175 175 177 179 172 171 94 126 136 139 150 151 109 97 157 182 191 47 58 62 62 57 58 61 59 61 40 40 41 38 39 39 40 37 38 35 38 31 36 38 36 32 34 133 105 114 45 20 72 95 89 83 83 87 88 94 98 107 107 115 118 119 120 127 133 137 139 147 156 155 155 159 154 154 158 156 153 156 157 153 156 157 156 158 159 159 157 163 171 167 170 169 172 175 177 171 173 152 108 122 118 124 140 149 116 93 151 152 215 121 42 66 61 58 58 57 61 66 40 38 39 38 37 39 37 39 38 36 37 34 33 40 35 20 88 152 95 139 80 14 50 73 91 94 90 90 91 95 98 109 111 117 121 122 123 129 132 140 139 144 147 148 148 148 147 152 153 155 153 148 150 152 154 158 160 163 166 166 159 165 173 170 170 172 169 176 174 169 176 130 109 136 136 126 120 126 123 111 109 159 185 214 56 55 59 58 58 57 59 60 37 39 37 40 33 39 36 37 36 37 34 35 34 34 36 28 138 168 109 134 120 10 50 65 71 88 100 98 103 105 105 113 118 124 129 128 134 137 136 138 137 136 141 144 141 148 149 150 147 151 151 155 152 156 156 156 162 161 171 168 170 172 170 170 168 175 172 172 176 170 176 106 92 129 134 133 129 139 120 110 124 125 164 213 154 40 50 64 58 60 62 53 33 39 39 39 37 39 37 41 32 39 32 37 30 41 22 86 161 175 121 157 153 17 46 69 75 71 80 99 108 111 112 117 123 127 127 128 132 133 133 132 131 137 135 137 132 136 139 138 145 151 149 154 155 159 164 157 158 160 168 164 170 172 172 170 169 173 175 172 177 172 176 94 104 121 126 119 118 132 132 95 130 129 130 192 229 58 46 58 58 59 57 58 36 36 37 37 37 36 39 32 34 36 55 75 98 115 108 139 172 173 132 168 174 45 37 71 73 71 77 75 82 100 112 119 125 129 128 124 125 124 126 127 126 130 130 131 135 141 145 146 151 154 149 152 156 158 159 160 165 167 170 172 170 175 170 172 171 172 173 176 173 175 170 91 103 111 139 132 127 113 121 111 130 136 118 181 216 175 28 51 62 56 57 53 38 39 36 34 33 37 58 96 131 156 170 171 179 164 147 155 181 172 146 171 181 103 31 69 75 75 77 76 76 77 79 98 112 122 120 124 126 125 128 135 135 137 138 141 144 148 148 144 148 154 154 157 156 159 164 161 172 169 169 172 173 173 173 173 174 168 173 175 172 175 166 81 114 102 118 121 125 138 105 122 124 118 157 151 202 237 81 41 57 57 63 55 34 35 33 45 96 143 172 179 181 179 182 174 172 149 152 161 191 167 158 175 171 149 46 61 79 78 77 76 81 82 82 79 83 95 104 117 125 128 131 134 137 139 146 137 142 145 143 146 143 149 156 155 155 164 170 172 175 175 174 170 173 171 172 172 170 170 172 175 173 176 159 83 99 127 101 112 113 127 116 118 147 110 153 143 195 217 189 35 50 55 58 55 