P2
92
112
255
35 40 38 43 39 38 36 32 34 34 36 39 39 40 41 45 42 41 38 38 36 43 42 47 43 50 51 52 43 44 40 37 43 42 41 36 40 41 43 42 40 38 38 38 39 34 38 35 45 39 38 33 34 33 35 33 28 30 31 28 34 36 38 37 37 38 34 30 32 34 36 30 28 32 28 36 44 38 36 36 41 45 43 51 60 47 47 48 47 46 45 46 39 40 38 37 39 38 33 29 32 37 42 41 41 42 38 36 38 38 41 40 40 46 47 51 46 57 46 45 40 41 40 40 39 36 42 45 44 42 37 42 38 43 42 40 37 41 39 40 44 41 41 36 42 36 28 34 29 32 35 32 35 34 35 33 44 33 44 45 47 50 41 42 33 31 36 32 34 40 35 39 41 37 47 38 51 57 50 49 45 47 46 46 39 39 38 39 39 33 35 35 32 38 38 43 36 36 37 36 42 46 47 44 45 43 48 51 45 54 44 47 44 42 45 37 41 43 47 41 42 40 38 39 40 42 41 42 42 43 40 44 41 41 33 35 32 31 33 34 41 36 35 33 31 33 32 42 48 41 42 42 42 51 46 42 40 39 39 37 41 41 38 37 40 36 44 47 49 59 49 52 47 47 48 44 42 37 39 38 41 30 39 30 28 37 31 36 33 39 41 43 40 45 42 40 46 45 42 43 42 40 38 42 40 50 51 45 51 48 43 41 46 44 44 44 39 43 45 40 34 40 36 34 32 35 37 38 31 36 39 38 38 36 39 32 34 37 39 46 52 48 54 55 52 58 48 40 42 47 44 37 34 42 45 45 42 46 37 50 52 57 55 47 51 47 45 49 36 42 40 35 34 41 32 27 27 31 33 37 32 43 44 43 48 48 45 42 48 47 42 42 44 43 46 43 47 48 46 44 46 44 47 46 49 43 43 39 37 44 39 42 40 39 37 39 39 44 44 42 44 40 39 38 41 35 32 34 36 41 48 49 57 54 58 55 51 47 45 44 47 60 49 45 40 38 35 52 51 48 37 50 58 54 56 47 52 50 50 50 35 42 39 32 36 32 31 25 32 34 35 35 34 42 39 42 59 56 45 46 43 48 47 54 49 48 42 46 46 49 44 49 43 41 43 38 43 43 47 46 45 42 44 43 43 45 43 51 54 56 49 43 34 44 38 36 37 39 32 37 41 38 58 56 57 59 57 55 57 51 44 52 55 60 66 55 42 48 38 36 53 54 53 44 53 65 57 53 49 52 45 50 39 43 38 35 37 29 32 37 35 32 31 35 36 44 40 40 50 53 50 46 70 48 47 49 49 48 49 52 47 52 49 44 42 47 54 44 43 41 38 45 39 42 43 42 40 49 50 52 54 49 38 37 41 40 38 35 36 40 42 48 55 60 57 53 62 54 60 70 60 50 42 44 42 56 61 56 51 48 42 40 46 56 58 55 40 54 58 54 52 50 51 49 44 42 44 35 32 33 32 31 31 36 32 41 39 39 49 43 42 51 52 58 59 53 51 52 56 54 59 51 58 54 49 49 45 47 43 42 43 41 47 44 36 43 41 45 43 50 53 45 48 40 36 41 45 35 42 40 42 43 39 59 57 63 53 41 48 59 59 65 61 58 50 42 40 40 46 67 53 49 47 45 52 56 54 60 49 45 60 51 51 46 50 50 42 40 44 34 33 30 30 32 36 41 38 43 35 41 39 40 47 49 59 56 56 60 60 62 60 67 63 62 56 57 56 46 49 61 51 49 46 49 50 50 48 49 47 49 53 50 46 45 40 39 40 40 43 41 42 41 45 45 44 70 63 54 49 48 49 55 68 66 70 65 57 44 54 47 47 46 64 49 55 44 46 45 53 55 54 39 59 54 49 51 47 50 41 43 42 33 34 30 31 35 41 41 41 37 36 43 43 49 46 57 64 66 66 67 64 64 65 64 59 56 61 58 54 53 62 53 54 44 46 49 51 48 51 52 55 57 50 46 47 47 45 41 49 47 44 51 47 46 47 57 57 63 63 52 53 57 64 56 75 76 79 68 71 53 54 52 52 41 59 54 53 48 47 36 44 47 58 39 46 56 46 53 48 49 42 44 43 35 34 33 35 35 35 35 55 53 44 44 49 55 63 55 61 77 77 71 63 69 53 61 55 59 66 55 60 61 65 54 56 54 49 55 53 54 59 63 61 49 47 49 52 57 48 47 51 58 49 59 57 58 60 64 69 64 62 57 61 60 77 70 76 87 86 83 73 59 55 45 44 50 48 51 46 50 56 40 36 53 44 51 38 50 48 50 51 51 40 49 44 40 33 35 33 33 41 56 66 62 50 49 60 60 77 74 82 81 75 69 60 59 54 61 61 62 62 65 67 68 59 54 50 52 48 55 55 50 60 58 58 48 60 54 62 52 46 56 56 63 53 71 69 66 70 71 80 68 64 59 62 68 72 75 73 86 91 88 84 70 54 52 59 43 50 49 42 52 49 55 38 45 39 59 40 45 51 48 51 50 42 48 43 39 34 35 39 37 46 47 51 51 60 58 64 63 76 76 86 86 62 57 60 56 53 59 64 68 69 73 70 69 60 61 56 55 57 56 52 54 56 55 56 60 58 60 56 48 51 65 61 66 60 77 78 72 74 76 81 77 69 57 61 77 82 79 69 81 91 96 83 87 64 42 45 58 45 57 48 43 47 47 52 42 45 43 47 44 51 49 51 49 46 51 39 32 31 34 35 31 37 43 52 46 50 53 64 67 78 85 86 83 66 60 62 56 70 72 64 75 71 63 66 74 61 72 63 57 58 56 54 56 62 62 62 54 65 61 63 58 68 71 69 69 71 92 86 81 76 84 87 74 66 63 62 78 80 82 71 76 95 104 89 99 73 57 38 46 51 51 57 37 44 45 50 44 49 41 45 39 49 52 50 51 46 45 32 34 44 38 35 45 37 40 43 40 48 64 64 76 88 87 75 73 77 73 74 81 80 81 77 71 65 78 71 69 69 66 64 65 60 56 61 62 65 57 62 66 69 67 70 68 70 70 75 74 72 108 84 77 79 88 88 75 74 70 68 85 77 87 76 76 95 98 97 102 87 74 48 46 50 49 49 54 31 55 45 42 45 38 43 42 40 52 53 46 46 39 36 39 39 37 40 34 43 42 41 44 58 68 72 84 92 88 84 90 83 80 86 88 76 80 76 76 77 73 72 71 69 67 62 68 63 61 66 60 62 60 67 67 66 70 75 70 70 74 79 83 91 95 91 81 81 87 95 70 85 76 77 89 83 92 81 79 95 92 105 95 94 85 58 46 51 39 51 46 40 40 58 42 38 37 43 42 41 53 49 51 48 44 37 34 35 35 34 40 39 42 39 38 55 70 82 86 93 89 94 92 81 91 86 79 74 72 83 83 76 74 87 81 72 70 70 71 68 66 69 66 70 62 64 75 72 81 80 77 83 82 88 84 93 90 97 94 89 97 101 82 88 77 86 92 92 94 80 87 95 94 102 102 99 90 66 52 42 41 42 43 44 38 43 61 41 43 39 44 40 45 52 51 44 43 35 29 33 37 34 46 41 36 40 40 59 75 86 90 96 97 91 103 84 76 83 78 82 96 95 84 85 85 86 84 71 67 80 74 77 74 72 79 70 71 73 77 82 77 82 86 81 90 88 85 91 100 98 97 95 104 97 88 95 79 84 92 100 98 84 93 106 89 100 109 105 96 79 53 46 38 36 44 40 43 48 46 43 46 42 41 43 40 51 54 42 48 31 31 35 34 41 43 33 33 35 49 61 76 82 87 98 99 107 116 105 71 98 99 99 100 96 94 88 94 95 87 74 77 85 80 76 71 73 75 73 73 75 85 88 85 84 84 88 98 96 97 93 104 103 99 102 104 93 91 96 77 78 103 105 92 95 99 112 99 98 113 107 100 90 58 45 40 35 34 41 40 48 48 38 46 35 41 40 37 54 52 49 44 35 33 30 36 50 46 38 36 39 50 72 85 88 96 105 104 115 124 83 86 106 100 102 94 102 96 97 102 99 76 76 89 87 77 74 71 71 78 75 85 81 92 90 90 88 91 96 103 91 100 99 106 108 103 112 97 97 97 90 83 95 102 103 85 103 108 115 108 100 115 109 100 91 72 47 45 37 35 37 48 46 46 41 46 41 40 40 42 52 49 47 45 43 32 28 45 50 51 39 38 42 50 71 89 94 103 112 116 122 95 94 103 105 104 103 108 107 105 109 105 88 76 81 82 76 78 77 81 75 80 83 88 87 96 100 91 98 101 105 104 98 107 107 103 116 109 108 104 98 95 88 95 99 101 88 96 107 118 120 113 105 114 109 98 97 82 57 47 51 36 30 48 49 41 45 38 44 40 36 50 51 55 48 46 46 30 32 36 51 42 38 36 43 56 73 96 105 101 113 115 100 101 110 110 109 112 112 109 111 106 99 93 88 77 82 79 81 77 76 80 90 83 91 96 94 102 103 106 108 112 110 109 113 109 112 106 117 119 106 112 102 95 98 97 105 104 95 105 105 121 120 118 108 112 110 102 108 89 64 54 53 44 32 46 46 42 43 44 46 39 35 53 55 55 44 47 45 30 31 42 55 40 36 41 49 69 68 94 117 112 102 98 110 125 116 116 102 110 113 109 103 96 90 94 86 86 93 78 77 84 77 86 88 95 93 98 101 115 114 116 112 114 116 112 108 111 109 116 120 117 116 112 111 101 107 101 112 108 101 106 109 124 122 122 114 112 106 112 112 96 70 52 45 36 35 52 39 38 47 42 44 40 37 50 57 54 45 44 44 34 28 47 50 50 40 49 58 82 84 88 95 96 107 117 123 129 129 125 117 111 105 107 97 99 99 88 80 89 87 78 80 84 85 87 94 94 101 111 111 117 115 115 111 116 116 111 114 110 115 116 124 118 113 112 114 108 112 109 119 116 106 113 120 115 127 124 116 111 112 104 114 99 83 62 48 40 42 49 41 45 39 46 46 38 39 50 56 57 43 41 49 33 34 44 47 45 46 57 65 84 86 99 109 117 118 127 130 133 129 127 115 115 116 107 102 104 94 83 83 95 82 80 85 78 91 104 98 108 108 116 117 117 116 113 114 123 116 116 118 117 115 117 123 119 113 111 109 115 110 113 116 114 121 116 118 132 117 119 113 119 119 110 104 110 77 68 49 45 47 45 46 42 37 41 42 38 44 49 57 56 49 46 46 29 40 40 39 44 49 56 69 83 90 96 108 121 122 133 130 130 131 122 119 116 109 108 108 90 78 83 94 90 72 84 85 92 98 106 109 114 120 120 119 117 112 111 119 127 120 116 123 121 119 121 126 116 120 110 116 117 111 116 116 122 118 121 122 131 130 129 117 118 123 120 113 92 87 64 51 38 42 54 50 35 45 40 40 40 41 51 58 54 52 46 49 34 40 33 33 45 49 57 67 82 94 112 115 124 125 130 128 129 127 127 122 114 112 110 98 76 94 100 88 85 98 94 94 104 109 114 110 122 123 121 120 116 114 113 125 129 125 119 123 125 121 124 130 119 122 126 120 121 119 122 124 129 120 128 129 129 136 131 118 123 127 121 109 103 80 62 53 42 40 54 49 44 40 45 41 40 42 51 58 55 43 46 45 41 37 30 33 44 45 55 70 93 106 124 125 123 126 130 131 127 114 116 120 121 110 91 82 98 93 92 100 104 103 100 108 116 119 114 118 124 119 124 119 120 120 119 124 124 122 122 124 126 124 125 129 125 123 125 126 128 125 127 126 130 132 132 128 126 134 134 123 125 127 126 111 95 89 63 49 53 44 48 46 45 45 38 42 42 49 53 57 56 47 45 50 38 34 30 31 39 45 61 87 103 114 125 127 128 127 124 128 129 124 110 109 113 105 108 110 105 109 108 113 110 104 116 122 123 119 116 115 123 120 121 120 123 125 127 128 125 120 125 128 127 126 130 125 124 127 127 129 130 126 130 132 128 136 133 133 130 127 133 127 124 130 132 127 110 81 69 49 48 53 48 51 41 48 35 41 45 53 52 57 54 49 49 48 39 33 28 33 40 51 67 100 108 118 131 126 130 127 129 134 130 130 126 123 122 117 120 122 119 119 119 123 115 114 125 126 123 113 118 116 122 126 120 123 125 124 124 125 125 125 127 126 127 132 129 131 128 129 127 136 133 128 130 132 132 135 135 134 135 134 130 133 119 134 132 127 108 93 67 52 47 53 49 47 45 46 39 41 48 50 58 56 57 50 48 47 41 32 28 35 41 55 87 108 118 127 133 128 127 126 133 132 135 136 131 131 126 131 130 127 125 127 126 124 122 119 123 120 116 119 120 120 122 127 122 125 129 124 125 121 127 128 126 129 132 134 130 130 129 133 135 134 134 135 134 134 139 139 138 137 136 137 129 132 122 134 130 131 116 94 71 55 50 52 53 46 47 47 47 40 48 53 58 60 58 49 46 47 40 30 32 41 41 61 96 113 115 130 131 131 131 130 133 138 135 136 132 135 131 134 134 132 134 134 132 129 131 127 129 125 121 124 121 121 124 124 124 123 127 123 122 123 131 132 132 132 134 134 135 132 133 132 136 141 131 135 138 139 142 145 138 136 137 138 131 132 130 125 138 135 126 101 83 62 49 62 56 50 43 52 44 41 54 58 57 58 60 51 47 47 42 41 31 46 46 72 106 121 122 132 133 128 132 129 132 134 134 133 130 132 132 132 138 134 135 135 137 133 138 132 130 133 135 131 133 131 130 123 125 125 130 124 123 130 132 142 134 134 141 134 132 134 132 133 136 136 137 134 139 141 143 144 143 140 138 137 134 136 128 131 134 138 131 116 100 60 55 58 55 53 51 46 38 47 50 60 57 57 61 49 48 46 47 40 32 49 45 59 115 123 127 136 133 130 132 128 132 134 133 130 128 126 130 130 136 133 136 137 134 133 143 136 129 138 139 139 137 136 140 127 130 129 132 126 129 136 136 136 139 137 142 135 133 136 131 134 134 132 136 140 138 141 145 143 136 145 141 135 138 135 130 134 134 136 137 124 108 69 54 55 47 48 53 47 42 47 48 62 56 61 58 50 44 49 51 43 32 41 45 57 115 124 131 133 133 128 127 129 132 131 126 117 119 117 126 129 130 132 130 137 137 130 141 133 137 134 143 143 140 137 143 137 137 138 141 129 137 137 142 136 142 140 143 134 134 140 135 135 136 139 141 138 139 140 144 138 137 144 139 137 135 134 134 134 134 134 133 126 122 87 54 47 43 44 53 43 48 46 48 59 58 59 55 48 49 46 50 46 35 36 57 54 118 128 132 135 131 125 123 127 127 123 113 107 109 107 120 121 124 128 130 124 131 128 136 127 131 134 136 142 141 142 136 143 133 141 142 132 141 134 141 141 144 142 141 139 134 142 137 133 137 137 139 135 146 144 140 135 130 135 137 138 134 134 131 138 133 133 136 127 126 98 58 60 47 48 49 41 54 37 52 60 58 58 56 48 50 48 50 54 41 31 58 47 118 130 132 131 134 122 126 123 119 101 110 105 109 103 108 109 113 115 115 119 120 116 136 121 126 130 134 141 143 142 135 140 138 134 136 133 138 139 143 137 143 142 141 137 138 137 140 140 138 141 140 137 139 139 134 134 124 120 131 131 125 132 129 133 134 136 137 125 128 119 57 65 49 41 52 46 51 35 52 58 59 57 57 47 46 49 67 60 41 37 44 54 120 129 132 133 128 122 119 119 106 103 109 99 107 106 104 94 98 102 96 108 115 107 126 123 118 126 136 141 140 139 133 135 135 134 136 137 143 136 139 138 138 139 141 136 136 139 137 140 139 139 134 131 133 134 125 132 126 125 113 115 126 119 131 131 135 136 135 128 126 125 67 55 53 40 52 42 53 47 51 57 61 57 55 43 43 109 112 99 55 28 55 47 122 131 130 127 125 116 110 109 104 103 103 102 98 107 107 88 89 82 88 91 94 97 127 132 113 134 136 144 144 138 141 136 135 131 134 137 133 141 136 138 138 135 136 140 137 134 124 119 119 117 124 115 119 121 120 124 121 117 122 117 114 121 125 129 130 135 134 132 127 126 78 50 57 46 44 47 52 41 58 56 59 57 59 38 80 141 136 127 87 31 59 53 121 133 134 130 122 115 109 109 105 110 109 102 107 104 110 105 91 94 84 91 91 99 107 137 125 144 146 147 143 144 139 134 126 128 132 134 140 140 140 143 143 133 132 129 128 118 110 100 98 107 99 101 111 114 117 124 121 123 125 114 115 121 112 131 129 131 137 133 128 125 87 48 57 57 39 52 47 42 57 58 58 60 52 29 118 129 139 140 127 45 45 63 119 133 131 129 118 121 111 116 117 114 126 132 124 120 112 115 118 122 118 110 120 125 130 144 132 142 156 155 152 154 147 141 133 136 126 131 137 141 146 144 151 145 132 136 127 111 106 97 89 93 81 82 78 93 105 109 115 108 116 116 117 124 114 123 124 130 136 133 131 126 91 52 59 62 32 49 49 43 63 64 63 60 55 19 139 105 137 139 146 79 37 66 123 133 136 128 121 123 119 125 130 129 141 141 144 133 137 130 131 128 125 125 132 133 128 152 148 146 157 152 148 159 160 142 142 140 129 132 135 140 156 144 156 147 138 135 134 115 117 109 93 95 97 91 82 92 103 99 114 113 106 107 115 111 118 113 122 127 133 134 133 126 98 51 51 69 42 44 46 74 106 123 114 98 62 25 149 94 135 128 153 133 35 58 120 136 134 128 132 127 132 134 140 139 151 141 125 118 106 94 84 83 69 69 77 87 91 124 136 140 145 150 146 157 164 154 148 139 131 138 141 149 154 151 152 134 136 132 128 124 122 122 121 120 119 115 110 113 120 118 128 136 132 130 127 123 123 119 120 126 132 136 138 130 99 56 50 61 56 35 88 130 141 157 148 147 127 46 145 85 142 112 145 150 68 49 122 137 138 131 132 135 135 140 144 146 125 107 101 90 82 80 81 85 78 69 60 66 57 68 114 124 134 146 142 153 163 159 154 139 140 141 151 152 148 143 134 127 131 127 133 120 100 93 90 89 87 98 100 113 115 125 133 149 144 141 139 132 126 121 121 125 133 136 140 134 97 56 52 56 50 59 128 148 156 148 139 142 153 59 139 85 142 120 146 158 120 42 123 138 137 135 141 142 143 149 149 126 108 94 81 78 62 48 42 51 51 68 76 76 66 63 75 115 120 127 142 142 160 161 156 144 138 146 146 151 141 129 123 132 129 119 116 97 71 62 62 68 73 84 83 90 87 101 116 139 148 144 140 138 135 130 125 130 134 134 142 135 109 47 60 57 43 109 142 160 148 148 158 106 140 71 128 83 137 131 153 185 144 57 125 131 136 142 140 147 144 154 139 115 88 72 101 127 51 38 34 62 31 44 61 83 86 78 70 93 104 110 143 139 148 162 152 150 145 144 145 146 136 125 125 127 116 114 92 69 67 70 76 73 75 76 85 91 96 99 100 98 125 141 143 140 146 140 137 134 138 138 141 138 119 57 62 62 49 142 159 165 145 150 161 120 97 55 136 82 127 143 153 153 140 103 123 135 140 144 147 146 146 147 123 96 71 109 148 134 40 40 17 90 25 33 93 60 81 93 86 85 85 94 146 123 140 156 155 154 150 144 142 143 133 127 126 118 103 92 76 72 73 80 67 57 40 38 45 51 61 86 108 102 110 114 141 134 145 144 142 140 137 141 142 139 122 56 72 60 77 157 140 190 150 144 169 118 84 29 140 82 121 153 160 151 134 130 122 136 142 143 154 146 150 142 124 99 86 81 153 141 57 95 29 31 35 45 104 89 67 72 78 90 101 88 110 112 135 153 155 155 153 151 145 137 129 127 134 104 84 76 79 86 76 73 44 41 24 98 28 27 74 82 66 102 111 120 128 139 143 148 143 143 140 139 141 140 118 66 66 51 116 137 140 191 158 140 165 124 85 24 141 87 114 161 173 176 167 143 120 138 137 145 147 149 147 138 118 107 105 81 107 151 85 110 42 40 44 73 106 91 77 94 78 68 83 135 107 118 130 151 155 157 159 156 149 132 128 116 124 102 92 94 83 84 60 91 57 38 30 38 32 31 76 137 132 60 97 116 132 140 140 149 145 143 145 143 148 138 123 70 55 59 120 133 154 175 170 135 160 141 80 26 116 107 113 169 166 169 158 127 124 140 137 145 144 147 141 132 122 123 118 110 97 107 136 83 55 59 69 89 84 75 72 71 67 72 81 110 145 119 127 150 154 157 159 159 148 133 119 114 111 127 99 90 92 82 74 108 79 38 42 39 52 103 102 148 128 80 83 101 128 134 140 147 151 146 151 146 147 139 129 68 41 89 159 136 155 185 180 135 161 136 85 37 90 113 122 172 159 154 145 118 123 140 142 144 145 145 144 138 134 131 128 124 116 117 112 105 94 87 86 85 86 80 93 82 86 84 80 96 117 106 126 150 149 162 168 160 146 133 110 114 133 121 89 71 72 70 74 92 106 56 46 46 43 73 146 130 102 91 100 108 119 131 142 149 149 147 149 146 146 138 131 69 71 133 178 148 150 177 178 131 163 110 100 42 65 116 127 158 131 135 132 114 126 138 139 142 144 145 143 141 141 139 130 129 145 164 147 122 114 106 94 92 93 93 92 92 93 97 87 96 97 102 127 146 151 157 166 168 149 134 112 101 131 107 92 88 80 76 78 81 81 80 66 64 74 104 124 96 109 109 110 124 128 127 145 149 148 151 148 146 147 141 133 102 121 130 156 153 153 171 184 133 153 85 132 47 53 123 124 150 120 113 115 109 124 137 139 141 144 144 141 142 143 144 138 135 150 166 167 141 127 117 111 104 101 99 101 103 93 85 93 98 102 124 131 139 152 157 167 169 148 132 110 97 114 110 88 84 90 87 87 83 93 74 88 90 94 101 112 120 120 123 125 132 138 139 146 150 148 151 146 149 147 140 132 125 113 115 133 149 152 159 188 134 138 84 157 51 32 126 121 148 124 114 112 105 123 137 137 137 139 142 142 141 141 147 143 143 146 157 160 150 131 122 116 110 109 107 108 106 95 90 101 112 119 136 133 141 144 161 168 164 139 130 117 96 106 107 91 83 97 92 96 99 102 97 101 100 116 113 139 152 135 130 132 138 139 143 149 149 145 150 146 151 147 137 132 129 121 113 122 136 143 150 187 137 119 94 156 50 27 128 117 155 130 121 107 108 123 134 137 136 141 146 141 141 143 144 145 145 145 145 147 138 124 123 119 115 112 110 111 105 104 110 118 134 131 137 130 139 137 165 170 160 135 133 118 111 104 110 97 90 97 98 104 107 111 111 118 114 128 136 151 146 142 132 142 141 146 145 149 147 142 149 148 148 145 136 133 124 138 126 117 124 131 148 183 138 105 115 135 46 26 123 116 151 130 120 103 112 123 132 140 135 145 144 144 141 143 140 145 145 138 143 139 133 130 124 118 115 114 111 108 118 116 126 138 138 139 135 131 135 137 155 162 156 140 134 123 122 109 112 108 104 97 104 109 115 111 117 123 125 130 143 148 140 142 140 145 146 145 149 150 153 142 147 149 141 142 135 130 125 149 139 118 116 116 157 169 142 94 134 98 48 24 114 113 148 133 113 104 122 128 127 136 142 146 146 146 145 143 143 140 145 139 138 139 131 133 129 117 117 115 111 118 130 131 141 143 139 140 134 133 136 136 151 163 154 137 132 129 130 126 122 117 117 109 103 110 115 120 122 123 124 131 138 140 145 145 147 146 148 145 151 149 152 147 149 147 145 137 136 127 134 157 155 123 112 105 163 148 139 93 148 71 49 28 100 118 138 152 119 111 121 132 125 135 143 150 147 150 149 148 146 145 142 141 142 143 126 130 128 126 124 121 123 130 141 140 142 147 141 140 133 134 132 135 148 158 163 133 133 129 137 134 130 131 123 119 108 110 116 117 121 128 127 138 139 145 153 148 146 147 149 149 154 151 150 152 150 143 144 135 134 127 135 156 163 130 108 105 162 140 122 106 138 54 47 35 80 131 111 152 132 113 103 128 126 131 144 153 155 156 149 153 144 146 145 144 144 142 138 129 131 124 125 130 132 140 147 148 143 148 143 141 135 132 130 136 148 157 163 138 132 131 135 136 138 132 134 128 122 119 117 118 119 125 127 139 142 149 154 148 145 149 148 147 148 157 149 152 146 138 142 133 132 127 136 153 149 118 103 111 169 146 106 132 115 47 43 40 56 137 112 134 137 140 108 113 130 129 142 147 160 158 156 155 147 147 148 141 146 141 137 136 133 128 131 137 135 140 147 145 144 147 145 139 137 129 140 134 154 157 163 143 136 131 135 134 142 135 138 134 130 132 125 124 120 125 129 133 142 147 149 154 146 154 150 149 153 152 155 155 145 144 137 133 135 127 132 137 125 105 105 131 175 142 110 152 82 52 49 44 29 131 125 121 144 148 116 108 131 129 140 144 157 152 164 157 151 155 146 143 145 141 136 140 130 137 139 138 136 140 139 138 143 144 146 138 135 131 134 138 152 156 162 147 136 137 134 134 145 138 136 137 133 137 130 128 124 126 134 139 142 143 145 148 149 148 149 147 152 158 154 155 143 143 135 135 132 134 125 104 105 103 122 161 167 120 131 150 58 51 47 43 22 107 137 125 147 149 140 113 132 126 139 146 153 150 161 160 155 155 148 153 144 139 140 141 136 138 140 140 140 140 142 134 145 143 144 136 133 132 138 147 155 162 153 149 141 138 136 141 143 143 136 135 138 138 138 135 134 130 133 135 141 139 147 148 154 150 147 157 161 167 156 153 142 140 131 131 136 132 118 94 100 120 155 170 140 120 151 123 44 57 46 42 35 58 149 133 144 162 158 141 133 124 137 151 150 161 162 160 160 155 150 152 145 140 138 138 145 147 142 144 144 140 138 141 147 145 142 131 138 134 140 147 157 161 157 153 140 138 139 136 145 144 141 140 142 138 137 138 135 136 135 138 142 147 147 151 149 152 157 161 161 158 158 151 145 139 129 134 131 139 112 117 146 154 160 156 122 136 159 76 52 54 48 45 43 25 135 143 141 158 166 167 136 127 132 146 153 160 162 160 160 160 157 154 146 144 146 144 144 147 145 140 144 144 141 150 146 139 132 133 138 136 143 146 151 151 151 152 147 142 143 133 142 149 147 147 149 147 146 145 149 142 145 149 146 151 146 154 156 151 158 157 160 155 158 152 146 140 134 124 132 138 120 140 168 155 154 131 131 153 141 49 56 59 45 46 44 23 107 148 144 156 157 158 141 128 130 142 156 158 162 159 162 160 152 159 151 148 145 143 142 146 142 138 143 144 143 153 148 131 129 137 138 136 149 150 151 151 152 159 149 142 139 135 138 144 152 152 151 150 148 153 153 148 152 150 150 158 150 159 157 156 156 158 158 151 153 150 149 140 132 133 131 136 137 152 164 159 143 134 140 160 96 44 54 57 46 44 41 41 62 146 141 150 147 151 140 128 130 144 161 158 160 157 161 163 158 155 148 152 146 144 139 147 142 145 145 141 152 147 138 134 133 133 141 143 145 145 153 151 152 162 149 148 138 143 138 136 150 158 155 158 155 155 154 153 157 158 154 157 159 154 151 158 158 153 158 150 149 149 143 141 135 137 134 130 157 165 158 155 143 147 153 144 55 51 53 57 45 44 43 45 27 121 143 148 143 149 146 128 125 149 159 160 162 163 155 164 155 152 147 150 145 148 145 153 145 148 143 143 138 141 137 138 136 138 137 142 146 142 145 145 145 153 149 146 139 143 137 136 146 158 152 156 161 160 156 157 159 157 159 161 165 157 147 154 161 158 157 154 150 140 146 137 137 134 135 128 166 164 160 154 143 142 155 90 42 55 53 58 45 47 43 41 41 40 129 153 144 150 154 128 125 145 156 157 163 167 158 161 154 152 152 155 154 150 151 150 150 145 136 136 139 142 139 146 138 147 140 143 144 146 147 146 145 147 149 143 142 144 136 137 140 154 152 151 159 161 163 154 158 157 162 164 167 162 154 157 160 158 162 154 158 142 146 137 137 135 133 129 164 162 163 155 150 149 129 46 51 55 55 55 43 47 45 41 41 40 44 112 140 155 164 135 120 145 156 155 158 162 164 162 156 155 162 155 152 154 157 151 148 141 129 136 144 148 144 149 144 147 147 142 148 148 151 157 149 146 147 145 145 144 135 135 141 152 149 148 155 156 155 155 163 154 159 160 164 159 150 154 157 160 160 159 158 146 145 136 141 137 131 133 156 157 157 151 145 154 82 44 54 53 55 51 45 47 45 44 43 46 40 34 74 130 158 139 122 141 155 159 158 164 163 161 160 158 157 157 157 158 163 156 145 132 131 133 138 149 163 156 152 148 154 157 156 149 148 159 154 151 153 149 143 138 140 138 143 149 142 139 153 156 155 155 162 158 162 161 165 156 153 159 158 157 158 164 156 147 145 132 141 137 133 140 156 154 153 146 160 124 47 48 53 52 53 53 45 47 42 42 45 44 40 43 38 45 66 105 129 140 155 156 161 166 169 165 164 161 162 167 160 164 163 150 140 129 131 132 139 144 167 151 100 139 150 162 186 149 148 150 144 174 155 141 143 140 146 142 139 145 140 131 143 155 152 153 159 157 157 164 164 159 160 159 157 155 153 161 153 147 144 135 135 139 130 147 153 150 161 157 146 66 48 50 51 56 54 54 50 43 46 43 42 45 44 44 43 43 36 58 134 133 160 162 164 166 171 165 170 163 166 170 164 165 162 150 137 133 134 139 146 130 155 139 96 78 135 144 185 153 161 153 151 169 144 134 94 139 167 148 136 146 137 135 139 142 150 152 159 161 160 164 164 164 169 163 160 160 156 158 155 149 141 138 136 139 127 151 158 151 153 124 67 47 50 48 53 52 56 56 45 43 47 42 44 41 42 44 44 41 46 36 138 132 155 167 162 168 164 163 168 169 168 170 165 167 153 145 138 138 138 139 141 137 134 124 147 125 115 144 165 166 166 164 165 149 130 98 87 112 164 141 140 144 145 137 140 137 143 154 156 156 161 163 168 164 168 170 161 158 161 157 156 147 138 137 135 141 131 144 152 116 74 53 50 52 51 52 53 54 55 55 49 47 42 42 44 42 44 47 37 46 49 23 133 130 151 166 166 162 170 173 177 174 173 172 166 164 143 142 143 143 143 145 135 135 140 119 130 135 138 137 158 169 167 172 167 136 123 119 133 114 129 131 148 147 149 149 139 139 143 145 152 157 158 163 170 165 167 172 163 162 154 156 149 151 137 141 143 138 126 65 77 53 47 54 51 50 53 53 51 53 57 53 48 47 43 45 43 41 44 42 46 43 45 22 116 130 146 160 169 164 173 179 178 174 173 167 164 154 143 148 146 144 146 144 137 136 138 126 125 132 139 153 153 166 165 166 156 125 123 132 126 123 133 138 140 141 147 155 145 138 144 144 146 152 159 163 171 172 168 167 169 164 153 160 149 150 134 139 144 144 119 37 52 50 51 52 52 56 50 53 50 53 58 54 48 44 45 46 41 46 43 42 44 43 46 28 93 134 143 162 167 170 172 173 177 181 178 173 159 149 147 148 147 145 145 141 135 127 141 119 121 120 139 148 154 147 153 154 151 135 116 122 123 121 133 141 142 140 149 156 153 147 141 148 149 152 160 161 173 169 174 165 161 165 153 161 148 150 138 143 139 152 96 40 56 50 50 51 52 52 50 56 52 53 59 50 47 48 44 46 44 45 43 43 44 42 44 33 75 139 139 156 168 167 173 171 179 182 178 173 161 154 155 154 150 146 145 144 130 128 133 122 118 116 133 145 152 135 135 144 153 137 117 120 120 118 132 143 141 148 151 149 156 146 146 147 144 153 160 167 173 174 176 166 168 166 157 158 154 143 144 140 138 155 67 48 51 49 53 52 49 52 50 56 60 54 57 54 47 48 43 46 46 41 43 45 44 44 41 41 46 143 140 150 165 169 172 170 175 182 176 171 168 155 162 156 146 147 142 142 131 136 132 121 117 116 128 139 149 124 125 145 148 138 114 119 113 112 132 142 138 142 145 146 154 151 150 146 147 151 159 168 170 168 170 166 165 164 159 154 150 142 146 144 141 152 51 53 54 53 55 50 54 52 52 52 55 53 56 55 49 44 47 41 48 35 45 44 42 45 41 49 24 139 140 145 161 166 176 169 178 186 181 172 164 164 158 157 150 144 145 144 133 135 129 128 132 118 131 134 139 111 112 144 136 134 115 117 111 119 128 135 138 133 145 145 153 154 153 148 160 150 156 165 171 168 170 164 165 163 156 151 153 145 147 146 144 141 46 48 53 52 54 50 49 52 52 54 56 54 57 54 46 47 49 43 47 39 44 44 43 43 44 45 24 122 146 145 157 165 175 171 174 180 183 172 161 162 159 162 158 152 149 150 141 138 130 133 133 129 133 133 127 111 96 119 130 126 114 117 116 122 129 130 140 131 142 149 146 151 147 149 159 156 155 158 168 166 168 163 164 159 154 149 153 144 151 147 148 122 40 54 51 51 55 51 48 52 53 56 55 58 53 56 48 47 47 47 47 40 44 43 43 43 45 46 31 85 145 145 157 167 175 172 178 171 178 169 172 164 162 159 161 162 163 154 158 150 147 145 149 146 146 150 139 118 109 120 135 130 121 120 123 121 136 131 127 134 143 148 147 149 142 149 151 161 152 159 169 167 170 161 163 155 158 154 152 148 149 149 147 92 45 55 52 51 50 51 50 54 54 55 56 53 57 52 49 49 46 48 47 39 48 44 43 43 45 41 41 36 149 143 154 162 171 170 172 171 177 164 166 166 163 162 160 164 171 161 161 156 152 148 146 145 136 139 145 148 142 145 142 139 142 138 136 137 140 133 126 133 151 147 152 151 143 153 155 153 162 156 167 170 169 162 158 156 159 151 152 147 149 148 151 59 50 53 53 52 52 51 51 56 52 55 56 57 55 54 47 49 52 43 45 46 46 44 42 44 46 44 52 14 134 144 151 164 175 167 172 172 175 164 165 173 157 145 139 138 136 123 129 130 136 140 138 136 132 130 128 140 136 134 135 136 136 135 132 141 139 135 127 140 146 141 142 148 145 154 156 152 154 158 163 165 164 164 160 158 156 150 154 145 150 149 134 49 53 54 51 48 50 53 50 57 57 52 58 58 53 57 43 47 46 48 45 46 46 43 45 44 44 43 49 32 92 151 148 165 165 169 171 172 166 162 168 171 149 118 101 97 97 79 89 92 101 107 101 95 95 99 105 116 119 116 118 121 126 124 120 119 107 108 107 109 108 114 121 130 133 153 155 154 155 160 167 169 163 166 160 161 154 156 147 149 148 156 105 45 51 51 54 49 49 54 49 54 58 55 56 57 52 55 48 47 45 50 45 45 47 46 45 43 41 48 48 44 31 147 149 159 164 167 170 173 173 164 164 163 146 108 110 125 136 109 93 107 103 94 83 82 78 74 72 76 76 73 74 70 79 82 81 85 86 81 93 83 76 86 97 101 112 149 154 151 160 162 165 166 167 166 160 160 157 155 146 148 142 149 62 50 53 47 55 50 52 51 51 52 56 56 52 55 54 57 48 48 46 49 48 48 47 50 45 46 44 45 47 46 26 111 150 148 162 161 166 171 175 167 164 163 141 112 119 130 150 150 119 106 114 116 116 112 105 101 99 88 96 94 87 96 96 102 97 100 102 103 105 103 112 121 122 116 111 141 156 154 159 161 164 167 166 161 154 161 159 151 148 146 147 126 47 49 50 53 51 53 49 52 57 52 57 54 53 53 56 54 52 46 50 48 47 46 49 48 47 45 43 47 46 40 39 47 149 151 163 168 166 167 173 175 160 154 141 122 126 138 150 164 162 134 122 120 125 129 124 118 113 100 112 111 106 114 112 116 109 110 109 110 118 135 139 138 135 128 123 143 152 157 169 162 161 165 164 160 158 162 158 153 150 146 150 80 47 44 58 53 51 49 53 54 55 52 56 53 54 54 57 52 45 48 47 47 48 49 47 49 46 46 43 45 46 46 47 22 131 150 163 166 167 167 172 171 161 150 145 138 140 144 153 167 167 171 160 146 138 131 123 120 120 111 114 108 112 113 109 120 119 126 137 146 155 153 155 146 140 137 137 141 146 160 162 157 154 159 161 158 163 161 158 153 148 151 129 47 50 48 50 53 50 51 53 53 53 54 55 51 56 55 55 51 48 48 47 49 50 49 46 48 49 47 43 47 44 45 47 27 86 153 155 167 164 167 172 172 161 148 148 148 151 149 156 158 164 168 166 166 164 163 152 144 136 134 125 124 130 130 133 142 145 151 151 156 161 159 152 153 151 151 141 142 137 152 163 160 159 165 165 153 167 162 154 154 149 150 73 44 52 54 49 54 49 53 56 51 54 56 53 55 52 53 55 54 49 47 49 48 47 49 51 48 49 49 46 47 47 45 44 40 40 149 154 168 161 165 177 171 156 145 143 153 155 158 155 162 167 163 162 165 158 158 160 156 153 152 153 153 157 155 150 159 156 155 149 154 153 156 152 156 155 153 143 145 122 144 162 155 156 159 167 154 162 162 150 153 141 138 47 51 56 52 53 49 52 55 57 54 54 56 54 53 55 53 52 54 47 50 48 48 47 50 49 50 49 49 47 45 46 45 46 43 24 129 148 164 161 163 164 172 162 152 139 148 159 156 161 164 170 159 165 166 164 161 158 151 142 143 141 150 154 153 155 163 152 152 153 155 158 152 151 155 154 158 143 145 128 140 156 159 161 158 162 163 165 161 155 148 140 120 39 52 52 54 54 51 57 53 54 57 52 57 52 54 54 56 49 56 47 47 50 46 48 53 46 52 48 47 47 45 48 44 45 45 28 87 156 160 164 164 158 172 161 154 144 143 156 155 159 156 165 161 168 169 162 159 154 147 139 135 131 143 145 152 156 160 155 150 155 154 155 153 148 156 148 150 147 137 141 145 153 155 160 159 162 163 162 160 151 144 130 125 68 54 51 53 56 56 55 55 55 58 55 56 52 55 50 56 49 54 45 49 47 50 49 51 48 47 50 47 47 48 46 41 47 40 40 62 151 156 164 164 158 166 161 147 148 145 151 152 158 155 158 158 161 157 151 140 133 119 118 106 107 115 119 122 137 144 142 147 152 152 155 148 147 147 147 141 149 138 147 154 157 153 159 162 159 164 155 157 147 132 142 108 123 121 66 53 52 54 55 52 51 57 53 54 52 54 52 53 52 53 49 49 49 50 49 47 50 47 50 47 47 46 46 44 42 43 38 40 148 151 162 161 161 164 159 155 152 145 152 150 151 154 152 154 153 147 147 135 127 117 118 113 112 116 115 120 130 129 132 142 145 146 153 147 144 145 142 138 146 140 147 150 158 158 155 160 158 156 157 153 143 133 153 96 96 124 142 95 49 55 54 55 53 55 52 48 56 50 54 51 54 49 47 49 47 48 47 47 50 49 50 47 46 45 44 42 41 40 45 15 142 148 163 161 162 163 163 167 155 143 145 147 150 149 147 146 147 147 147 147 144 133 137 133 128 126 124 129 134 138 140 144 144 142 148 145 147 145 142 147 138 151 144 150 155 154 156 159 160 157 155 149 139 141 162 70 94 108 111 144 114 50 53 54 54 52 53 50 54 49 52 52 55 50 45 48 47 45 50 47 49 44 48 45 46 47 42 41 40 43 39 27 108 158 155 161 166 161 161 161 157 147 147 150 150 150 144 150 146 146 145 146 146 142 139 140 136 135 136 146 139 145 145 147 148 143 150 141 144 147 147 143 140 150 138 150 153 153 159 157 157 160 154 144 145 147 160 60 121 95 98 107 157 126 39 53 53 53 52 53 52 50 51 55 52 48 44 48 47 46 48 48 47 43 47 43 47 46 42 41 37 41 41 27 113 151 154 161 164 163 162 153 155 155 151 151 149 147 145 150 150 146 148 142 141 145 135 143 140 144 144 142 147 142 142 142 143 147 147 148 145 139 144 145 142 143 151 149 154 155 152 155 160 156 140 148 150 152 145 64 124 115 73 111 110 188 104 38 53 55 50 56 49 52 53 51 52 54 47 44 47 47 48 44 46 48 43 46 46 42 41 41 40 38 32 53 163 143 155 156 164 168 163 159 154 159 155 152 151 144 140 148 154 146 155 143 143 142 142 147 144 147 146 143 147 145 144 143 143 147 144 141 146 141 144 149 152 138 149 145 153 156 151 162 153 143 144 151 152 158 131 85 109 115 86 73 124 143 203 74 44 56 52 55 52 55 50 51 50 55 44 47 46 46 46 45 43 45 44 47 41 41 39 37 39 37 16 124 187 115 152 160 153 167 165 163 151 152 152 147 146 155 149 145 149 144 150 145 147 145 148 150 147 152 145 142 147 145 147 148 145 151 143 146 142 139 149 139 152 144 146 146 152 156 158 155 153 140 146 152 156 162 121 100 125 135 109 83 94 137 168 188 43 47 55 53 55 56 49 52 49 56 47 49 44 46 49 42 48 44 43 45 44 41 40 36 38 34 34 193 198 56 132 154 159 157 161 162 160 158 146 148 148 154 153 141 150 151 149 146 155 148 151 153 145 145 144 147 138 148 146 145 147 153 143 145 139 142 142 147 139 148 145 144 150 150 156 152 147 148 155 159 158 163 108 100 115 123 132 69 97 124 137 203 143 36 47 53 55 53 51 51 49 50 41 48 49 46 47 41 47 45 46 42 42 42 40 38 42 19 101 220 175 94 72 118 154 156 157 165 159 162 147 150 148 152 151 152 154 149 149 155 156 155 144 155 149 147 145 148 146 148 152 144 148 150 147 140 143 152 143 149 144 146 146 148 149 155 151 149 144 153 151 159 155 160 112 107 104 105 115 82 107 103 117 161 215 73 42 51 54 51 52 55 52 52 42 47 43 45 45 44 47 43 46 40 43 39 41 38 36 23 175 214 184 137 53 90 107 139 152 161 160 161 155 150 155 154 149 161 161 160 156 159 167 157 148 151 151 151 147 154 150 151 144 150 146 152 152 137 153 149 143 142 150 140 152 151 154 153 146 145 150 158 155 158 154 159 113 111 110 112 120 91 92 115 115 126 200 185 37 43 51 48 50 53 51 53 45 42 47 43 45 42 41 47 43 39 42 38 42 38 25 71 214 202 188 186 30 94 89 97 123 139 154 163 162 155 151 158 150 156 159 162 162 162 163 161 148 155 150 150 155 150 152 153 145 151 151 144 153 138 150 145 147 141 144 146 149 153 153 152 143 148 155 159 158 158 154 159 100 107 101 106 111 95 92 120 122 116 177 220 125 30 47 51 51 54 52 50 44 43 44 45 43 40 42 42 44 39 41 40 39 41 17 157 218 190 189 220 38 85 102 95 88 104 116 152 167 159 150 155 159 153 158 162 159 158 158 161 155 158 157 159 161 156 158 157 144 150 150 141 148 143 145 142 149 145 146 152 151 153 154 151 149 154 155 157 159 157 158 160 105 118 109 107 99 81 114 107 105 143 145 201 222 61 40 49 48 54 52 51 46 42 44 44 44 40 43 39 43 37 41 40 36 32 64 206 216 183 195 228 94 59 104 104 94 89 90 101 144 162 160 156 160 156 159 159 159 158 159 163 161 157 157 156 163 155 154 151 157 153 156 138 149 138 141 148 143 154 150 154 150 151 150 152 158 154 161 157 159 157 155 159 84 112 105 108 119 73 118 124 96 148 126 189 214 186 29 44 49 52 52 51 45 39 46 42 40 44 37 40 38 35 40 49 66 82 153 206 214 179 197 221 158 54 98 107 102 99 87 86 96 128 160 164 161 160 157 153 156 155 163 159 164 155 156 154 157 159 154 153 153 154 146 139 145 141 154 152 151 154 151 155 148 142 155 159 159 155 159 155 160 156 158 147 79 87 101 94 109 87 110 129 107 116 150 161 210 218 113 29 48 49 50 50 38 42 42 43 43 40 38 39 54 77 112 145 162 162 196 202 211 177 203 215 188 93 85 106 107 106 98 94 90 91 108 150 170 170 166 157 159 158 160 160 157 154 150 151 153 157 158 151 151 149 149 152 160 149 155 153 149 151 151 151 147 152 158 160 158 158 159 162 161 163 158 119 94 92 86 96 93 86 111 125 127 90 184 125 205 209 209 53 36 48 48 53 38 43 42 40 37 50 79 120 152 172 175 176 159 176 197 205 208 173 204 215 184 172 70 102 108 110 104 102 96 94 87 95 138 164 173 162 162 163 165 162 164 163 157 156 159 159 158 157 157 158 159 162 162 146 152 158 149 147 147 155 161 157 159 161 162 156 164 164 164 161 148 101 101 101 94 66 89 73 132 112 134 89 183 135 183 213 206 159 30 42 47 52 40 41 42 64 106 151 174 179 177 176 168 163 148 204 192 208 205 178 202 213 177 217 95 92 110 107 107 109 103 103 97 92 87 110 152 169 167 173 161 174 159 170 166 166 165 170 166 168 168 163 160 161 158 155 153 153 145 149 156 161 163 163 164 161 161 158 165 165 164 157 127 98 99 111 110 79 62 59 123 139 115 94 169 179 139 214 206 207 83 35 43 48 46 86 131 156 163 164 165 162 165 170 168 150 173 213 193 208 198 183 202 211 180 214 166 82 106 109 109 108 112 109 108 99 93 89 90 115 147 161 163 168 164 175 169 169 165 170 165 170 167 160 155 154 154 150 148 154 157 160 162 166 163 168 163 158 158 164 165 161 160 141 108 104 99 112 116 105 75 34 118 138 122 96 154 183 162 195 214 196 194 37 39 46 138 154 161 168 171 173 182 179 175 165 159 159 194 207 197 208 191 188 203 206 183 209 203 110 96 111 109 109 112 113 112 111 104 94 93 94 89 101 121 148 155 163 168 168 162 163 163 158 159 158 155 154 148 158 155 162 163 164 164 167 167 166 163 160 166 167 163 162 149 120 102 107 102 110 117 121 86 45 93 138 129 102 141 189 196 155 219 205 217 130 27 43 169 174 176 177 179 178 176 168 167 167 154 179 210 197 199 208 181 191 203 205 186 209 199 172 90 106 113 109 109 112 116 116 111 106 100 98 93 93 93 99 123 136 155 156 155 162 162 159 155 158 159 155 156 157 160 165 169 167 167 168 168 169 163 163 166 159 157 152 122 108 106 108 108 106 118 124 109 44 114 121 128 110 151 195 187 174 202 212 194 222 55 34 