P2
92
112
255
35 36 37 35 41 37 39 36 28 31 28 37 37 48 48 43 44 41 37 38 36 39 44 38 44 41 48 50 50 50 48 49 39 46 46 43 39 41 47 46 44 42 44 44 41 44 39 44 46 48 43 40 43 38 36 31 30 34 33 41 31 34 37 34 34 52 43 40 43 44 53 47 43 37 39 36 35 42 43 47 55 55 45 49 52 49 47 52 42 46 46 46 37 36 38 41 37 39 38 29 27 26 32 39 39 48 54 41 44 37 38 39 41 33 49 41 50 54 53 55 49 44 40 44 39 42 40 36 47 46 48 42 43 46 43 42 45 44 44 44 46 49 49 35 37 35 30 37 37 44 37 37 37 29 36 39 36 56 50 50 55 52 67 47 46 39 46 46 40 44 45 40 47 56 55 52 51 47 49 48 48 48 50 47 38 36 38 43 44 40 29 31 27 28 31 30 40 41 40 40 37 37 35 36 39 44 44 46 53 49 53 52 41 40 38 37 40 40 47 48 41 43 44 42 44 40 44 42 50 43 42 44 35 34 35 33 42 37 34 47 40 42 41 38 36 36 40 39 42 57 56 56 63 53 50 44 43 47 35 42 41 51 57 44 45 56 61 57 51 51 47 48 50 47 48 50 40 36 40 50 40 36 30 29 31 25 31 38 40 39 48 37 37 32 40 42 43 41 42 46 51 44 51 42 40 37 39 39 43 42 46 45 40 48 48 45 47 42 45 44 39 42 39 36 33 40 38 44 44 43 43 40 41 37 35 36 36 33 44 48 55 54 57 61 58 54 52 52 57 58 46 39 45 40 45 53 53 52 64 62 55 51 53 45 50 49 48 48 38 39 41 40 37 33 31 28 27 33 34 35 42 36 31 33 35 37 43 38 44 43 46 46 42 41 39 38 40 39 41 42 45 42 47 39 47 50 46 46 39 43 47 46 42 47 48 43 43 56 59 58 47 42 39 42 36 39 39 34 39 50 41 58 62 56 55 51 57 54 53 57 61 60 50 53 45 46 43 52 48 46 64 64 56 55 54 58 50 52 48 46 35 37 39 37 42 27 29 30 24 31 28 28 34 28 35 36 39 37 40 40 43 45 48 46 47 42 48 43 43 43 47 42 48 48 38 44 40 39 37 41 43 45 48 43 45 45 42 46 50 55 62 45 34 40 41 37 36 36 44 42 43 59 57 68 53 53 51 58 56 45 43 44 56 65 67 48 58 46 40 52 62 50 53 67 58 53 50 49 55 47 48 45 35 39 38 40 39 24 27 25 19 31 28 32 33 29 34 35 34 38 39 39 40 39 43 38 52 52 48 41 52 50 50 47 50 48 38 51 50 44 44 36 43 44 37 42 44 40 45 51 54 50 46 44 34 47 42 40 39 43 37 40 41 68 63 56 39 45 57 59 54 60 49 42 38 55 53 75 47 59 48 53 61 65 61 51 71 53 53 55 50 49 47 49 37 37 41 39 28 23 29 22 22 28 29 32 35 35 44 34 35 39 44 43 41 43 67 48 49 40 44 45 61 47 59 50 52 49 40 46 43 42 42 40 49 39 41 45 50 44 50 53 50 43 37 41 41 42 40 40 47 41 45 41 58 74 54 49 49 44 57 66 63 61 61 52 51 45 52 69 63 58 45 59 57 59 67 49 63 55 52 54 51 48 49 44 37 40 38 28 27 26 21 25 28 30 33 35 39 44 40 36 40 44 51 50 48 70 59 49 51 50 54 63 60 63 67 47 56 46 50 55 49 45 48 52 49 47 53 52 52 53 59 45 47 44 43 42 51 44 47 47 48 46 54 55 65 61 58 55 64 67 58 69 75 70 62 59 64 61 49 49 72 58 52 55 46 54 61 54 57 60 52 55 50 50 47 51 40 40 31 26 31 26 28 30 29 32 31 35 41 37 39 44 47 46 48 49 49 58 61 57 58 60 64 72 66 61 57 60 53 52 63 56 57 47 51 50 53 52 52 58 66 60 44 45 50 49 48 45 53 50 53 56 52 53 65 66 67 56 65 57 70 77 79 72 86 78 65 57 44 53 63 50 56 54 53 57 47 38 54 58 51 59 53 51 54 47 50 45 41 39 35 25 26 29 30 24 27 30 33 38 35 33 41 38 39 41 44 48 56 53 59 61 65 66 70 73 64 59 63 55 55 64 65 63 55 57 50 54 54 52 56 70 55 48 53 54 60 54 46 58 57 64 54 65 68 67 69 76 75 66 72 65 69 76 94 75 82 91 78 59 53 53 45 63 46 62 40 60 65 39 48 44 64 48 57 51 55 47 47 49 43 43 36 23 28 29 24 27 27 33 40 41 36 33 34 36 39 36 45 46 56 62 60 61 60 62 55 56 60 59 68 56 66 66 62 59 57 52 54 54 63 57 57 58 59 55 61 56 63 50 52 57 67 67 59 78 76 68 78 76 77 77 68 59 77 81 89 83 81 93 91 70 49 53 61 52 58 54 48 53 55 60 40 49 56 45 57 53 54 49 51 52 40 42 32 24 34 29 27 27 29 33 39 39 36 31 34 38 38 49 49 51 57 63 65 58 56 54 55 65 67 69 65 76 72 67 58 61 63 56 60 55 68 55 58 62 62 61 61 62 63 52 62 72 73 71 77 86 85 78 83 81 88 76 65 67 79 81 82 85 86 90 102 84 62 46 35 63 52 62 53 41 54 57 55 45 49 47 52 50 52 49 51 48 40 39 26 30 30 35 30 29 32 30 38 38 35 33 39 39 47 48 54 64 67 74 54 51 54 55 55 61 67 72 78 70 70 73 66 63 67 60 56 61 58 64 65 62 70 64 69 65 71 65 77 72 81 78 87 99 87 79 82 86 88 77 78 71 79 87 77 93 75 109 94 98 88 51 44 45 58 58 62 44 46 56 51 47 49 47 49 52 55 53 52 50 39 39 29 21 30 32 35 30 34 34 36 37 35 37 43 47 46 51 57 64 69 70 48 52 52 48 60 64 68 75 69 70 76 70 61 68 60 67 64 59 67 68 67 56 68 70 73 71 80 72 74 75 77 89 102 104 86 80 83 86 98 75 86 75 89 92 87 95 72 116 94 97 96 71 56 43 54 51 61 53 41 61 51 42 41 48 50 53 56 52 51 53 41 30 23 22 26 27 27 29 29 33 32 40 44 46 47 50 54 60 61 63 63 64 50 54 58 71 73 72 78 73 70 89 72 65 63 60 66 72 63 61 69 67 69 58 71 71 73 75 81 79 77 85 87 96 107 97 101 88 88 102 108 86 89 81 99 95 93 95 71 114 101 99 101 81 65 47 48 52 54 53 45 42 66 44 45 45 51 51 57 51 54 46 40 27 25 23 20 26 26 28 27 30 38 50 54 40 43 51 59 65 69 66 59 65 69 65 78 78 75 76 71 79 77 71 75 80 68 73 64 75 65 64 69 74 75 67 71 77 77 84 87 84 88 95 94 92 107 98 102 99 95 108 104 94 96 84 94 99 104 92 82 104 105 97 108 95 72 54 39 44 44 52 46 47 50 53 48 48 49 53 54 52 56 51 36 25 23 22 23 28 28 28 25 28 34 39 40 44 51 54 68 72 74 63 71 75 73 79 79 73 67 66 74 84 80 78 90 86 80 64 69 72 69 71 74 76 83 70 79 80 93 82 87 88 92 91 103 101 104 109 106 108 99 117 97 102 98 82 91 111 111 94 94 110 108 101 106 106 87 53 44 46 43 41 46 42 58 44 45 40 53 52 53 54 52 53 32 28 25 22 27 25 25 27 21 26 32 36 34 47 61 64 74 75 74 72 72 69 74 71 77 62 65 84 86 83 81 86 91 87 70 71 78 73 76 75 71 76 76 73 77 89 95 89 82 90 93 102 110 101 106 116 108 111 104 112 100 103 93 85 101 115 105 99 105 123 113 105 109 107 95 61 50 42 38 36 45 44 53 51 48 43 48 48 56 52 53 54 36 27 26 26 23 23 22 23 22 30 23 30 34 48 60 68 72 76 74 74 70 94 97 65 72 85 85 93 91 86 85 92 94 89 73 81 85 79 74 68 75 77 82 79 89 91 94 88 91 95 104 107 107 101 108 118 116 113 111 111 104 103 89 102 102 105 94 108 111 127 115 113 111 107 103 82 50 53 41 35 35 53 53 49 45 50 45 40 60 53 52 52 36 31 27 26 20 24 19 24 22 27 26 27 43 54 62 66 70 72 72 78 94 102 92 67 91 88 84 82 84 91 89 97 96 86 73 90 80 75 68 71 74 76 84 85 90 88 98 94 100 108 111 115 110 114 116 114 120 126 112 115 108 100 103 108 104 106 100 110 121 130 120 120 112 108 108 89 66 56 55 43 32 52 46 42 54 46 38 53 53 55 53 56 33 26 24 23 22 23 22 24 21 27 24 28 42 54 66 68 72 76 85 86 101 111 78 86 93 87 84 89 97 96 100 107 91 78 75 81 70 79 68 73 82 84 89 88 97 91 105 100 113 110 122 117 119 121 112 118 120 126 122 122 114 106 115 106 113 118 105 110 127 129 129 125 112 110 117 107 72 57 59 38 38 48 48 36 51 46 38 54 57 55 54 56 29 25 23 23 23 19 24 25 22 24 27 35 42 52 67 72 78 86 87 96 109 77 86 91 94 91 93 97 101 103 100 89 85 74 79 87 79 79 79 82 86 93 96 94 98 105 114 116 116 117 124 116 114 123 115 124 129 127 125 120 124 115 121 112 122 125 106 115 127 133 133 131 114 112 117 115 83 65 47 38 34 55 37 44 47 49 38 55 54 56 55 55 31 27 21 22 22 22 25 23 25 24 28 34 45 48 63 70 85 87 97 98 84 79 99 99 93 96 102 99 100 93 79 91 79 71 95 78 77 82 84 90 88 97 99 103 112 118 120 116 117 118 123 113 120 121 125 121 130 129 121 119 122 120 123 118 130 120 122 123 131 127 132 129 119 115 117 117 95 69 55 49 40 51 44 44 49 46 39 49 55 56 55 52 36 26 25 20 24 24 24 23 25 28 28 34 41 52 61 80 89 95 94 81 76 105 107 107 106 100 93 92 86 83 86 84 77 71 92 79 86 85 87 87 103 101 108 116 121 120 119 117 121 120 130 115 126 126 129 118 130 127 122 119 119 124 123 122 124 126 127 123 136 137 126 132 118 130 120 108 102 71 62 39 50 49 47 46 45 41 45 50 54 58 57 52 40 23 24 22 23 21 25 25 26 24 31 33 44 53 54 76 83 79 75 81 95 109 114 115 110 101 104 100 90 91 93 78 80 87 96 76 86 86 88 101 108 112 116 123 124 122 120 113 121 130 128 122 125 129 132 126 135 129 129 124 130 124 121 124 128 137 125 133 137 143 139 136 120 131 127 115 98 76 56 42 41 52 48 43 46 42 44 51 55 56 56 54 38 26 23 25 20 25 24 25 26 29 30 33 44 62 58 78 79 81 82 93 102 111 111 118 113 107 110 104 99 96 93 77 86 94 86 78 84 95 103 111 117 118 129 126 124 122 121 109 124 134 128 128 129 128 134 127 137 131 130 137 134 133 133 133 134 142 132 139 137 137 145 132 122 141 129 115 107 72 59 51 40 50 49 49 43 45 44 52 55 54 58 50 40 27 26 23 23 23 24 28 29 28 31 34 44 59 61 73 83 88 84 99 103 110 113 116 117 116 107 106 110 97 76 92 98 79 83 94 95 103 113 124 121 120 133 127 126 120 119 117 127 131 130 129 129 131 131 132 132 137 135 137 139 137 137 137 139 142 143 144 138 138 143 136 127 136 137 120 101 83 59 53 56 47 49 56 43 47 46 51 58 53 58 55 40 32 25 22 26 23 27 28 25 30 30 35 42 61 69 75 77 89 92 102 104 109 110 119 112 112 108 115 96 71 86 88 82 90 101 101 108 114 123 129 118 127 130 128 127 125 125 127 127 133 126 127 135 136 136 134 135 135 139 140 145 143 138 140 146 143 150 145 142 144 134 142 127 140 140 137 113 86 59 48 57 52 53 52 49 41 49 59 61 53 57 55 46 32 31 25 23 24 27 26 26 25 32 36 45 61 65 81 86 92 97 100 103 108 106 99 100 108 104 84 74 82 84 95 98 108 100 105 122 126 130 128 118 125 131 129 125 128 127 130 131 127 124 131 134 135 137 138 140 138 140 143 146 148 143 142 145 148 149 150 142 148 141 135 133 137 143 136 112 88 63 50 53 52 53 52 49 44 49 59 58 57 61 56 44 38 34 26 26 25 29 21 25 28 30 36 47 60 72 88 95 94 98 98 101 107 111 102 93 93 98 94 96 96 97 105 106 111 103 117 128 130 126 119 126 128 130 130 131 128 130 123 131 125 130 131 132 138 139 142 138 142 142 145 150 147 147 153 151 151 157 151 148 147 146 138 137 137 143 140 121 99 69 59 53 58 50 48 56 44 56 55 59 58 59 55 47 46 39 25 28 26 25 24 24 28 34 35 50 67 80 94 97 99 99 100 106 112 116 115 111 110 109 103 104 108 113 110 113 104 112 119 117 123 117 122 123 129 131 131 133 132 132 124 130 122 135 136 139 134 143 142 144 143 145 149 155 148 143 154 153 155 156 155 150 149 149 143 140 137 145 146 131 107 74 62 58 60 55 46 65 48 53 58 57 58 57 57 47 44 41 35 25 26 23 23 28 28 32 38 54 64 84 94 95 97 95 101 107 115 118 112 114 111 110 119 118 117 114 122 117 115 118 120 118 119 118 123 125 127 130 129 129 131 131 124 128 128 136 144 139 141 144 139 142 143 145 148 151 147 153 151 157 156 155 152 154 147 148 145 142 141 142 147 139 119 88 61 57 62 60 50 51 50 65 56 58 58 57 56 48 46 46 38 24 27 24 22 24 28 31 44 59 68 88 96 93 99 93 101 110 113 118 114 116 120 121 123 125 121 123 129 130 125 124 122 126 126 129 133 135 137 134 129 132 133 137 128 130 138 139 140 140 143 144 142 142 144 142 148 147 147 158 153 154 156 155 151 153 150 146 148 145 141 144 144 146 129 102 68 54 54 61 56 51 54 63 60 58 60 56 60 49 47 47 44 24 23 25 22 26 27 34 46 67 72 90 97 95 99 97 102 109 114 115 112 118 121 123 123 128 125 129 128 127 125 133 129 125 132 132 139 138 142 145 134 139 137 141 130 134 144 142 136 140 146 149 143 142 149 145 148 148 155 155 153 159 157 151 148 148 149 145 145 144 142 147 142 143 135 116 72 58 48 49 60 51 52 60 61 61 57 59 59 44 48 49 46 21 25 22 28 25 27 35 49 70 77 92 99 95 99 96 104 107 111 113 113 116 123 126 127 130 124 129 134 130 123 140 132 125 132 139 138 139 143 146 145 140 151 142 135 140 138 143 143 147 144 148 146 143 151 148 144 150 152 153 153 160 158 145 146 138 144 150 137 144 143 143 142 143 136 129 80 60 46 52 54 53 51 61 63 59 59 57 59 46 47 42 47 23 24 26 27 30 26 36 53 71 86 94 99 96 97 98 103 109 108 111 110 114 112 123 124 129 128 125 128 128 127 131 126 122 132 132 140 139 142 144 142 141 149 149 132 143 137 145 141 148 145 150 146 147 144 153 151 152 154 152 149 151 149 140 146 129 132 141 130 136 137 141 147 144 135 138 91 63 65 56 54 56 53 60 61 61 59 56 57 48 48 44 48 30 27 27 26 30 27 37 56 71 90 94 98 94 93 102 101 110 105 104 100 103 104 113 118 118 122 123 116 114 114 128 112 117 120 129 133 137 141 139 138 149 137 144 133 141 139 145 137 144 147 148 141 143 147 149 149 144 146 139 137 147 141 135 138 131 127 128 127 132 135 141 144 144 136 137 102 56 74 48 58 57 52 61 60 60 58 57 57 45 46 45 46 42 28 25 25 29 23 36 57 76 90 96 91 94 96 100 103 104 97 100 90 95 93 96 98 103 105 104 113 109 100 111 109 106 113 123 125 134 135 135 133 141 136 143 134 141 136 138 140 138 137 145 144 143 142 129 127 126 124 127 122 127 128 131 131 127 128 127 122 126 132 138 143 141 144 134 116 51 72 53 47 57 56 59 59 64 56 60 56 48 43 46 45 50 29 27 28 26 22 33 62 80 92 94 93 94 101 102 103 96 83 94 86 88 89 88 80 82 86 78 87 91 92 102 103 96 109 113 123 126 129 136 137 136 136 137 133 137 140 137 142 142 134 137 132 132 122 115 102 101 109 102 107 117 127 128 134 125 133 133 121 129 121 141 136 144 144 137 123 56 63 61 47 53 60 58 61 61 60 60 56 43 47 44 47 45 35 25 26 26 24 31 65 83 93 89 98 97 102 90 96 86 79 82 79 77 84 80 72 71 70 73 73 71 84 82 106 87 110 110 117 117 128 128 131 120 128 131 131 139 141 142 142 146 142 131 130 131 112 105 96 85 98 84 86 87 108 114 121 123 116 120 122 130 125 130 132 142 144 140 128 66 51 69 51 55 57 58 60 58 58 59 58 47 47 46 45 45 39 26 28 28 23 28 70 86 86 89 92 97 90 83 87 78 72 74 71 72 76 86 76 72 80 69 70 76 76 85 96 93 106 110 115 110 125 122 127 121 133 125 129 132 140 150 138 150 153 135 131 131 113 112 103 92 100 99 97 94 108 110 115 132 119 117 118 119 127 120 126 141 143 142 132 67 55 71 44 57 54 61 58 57 56 61 57 44 46 47 43 43 45 30 28 27 26 27 69 84 89 86 88 89 81 77 74 69 72 66 74 69 75 79 83 89 96 95 86 88 99 96 105 97 100 110 107 104 118 125 112 123 137 132 131 136 145 159 142 155 146 141 139 137 131 133 131 130 129 130 124 121 126 134 132 150 147 142 137 131 132 129 129 140 141 149 135 72 53 69 54 53 55 62 59 59 57 59 60 41 46 42 46 48 45 35 30 28 26 28 72 83 89 88 83 76 77 74 70 73 68 75 79 82 84 90 91 94 95 91 90 83 83 80 92 90 91 103 98 94 107 118 113 120 132 130 137 146 153 162 153 156 140 142 145 146 139 125 124 124 122 122 125 130 129 134 141 159 160 154 149 146 136 129 127 140 143 150 145 82 56 62 64 52 60 65 88 98 88 67 57 46 42 48 84 89 66 42 30 27 30 27 68 85 88 85 84 78 71 70 69 74 73 81 81 80 81 81 82 77 77 69 65 65 67 62 74 76 76 76 78 77 87 102 114 122 137 135 147 156 163 159 152 143 138 146 144 144 133 98 89 84 84 88 90 97 108 118 137 153 164 155 152 147 143 136 136 137 148 148 147 82 57 57 66 52 81 125 144 160 153 134 66 45 40 75 112 117 116 68 36 28 33 27 68 83 91 84 85 78 71 71 73 77 76 85 72 67 62 66 66 73 77 68 57 58 62 59 54 64 73 70 70 65 74 91 107 120 137 135 150 158 165 157 143 133 141 146 140 119 96 76 79 73 84 90 99 101 105 94 106 114 147 158 152 153 153 148 142 144 146 149 148 95 50 61 65 76 132 157 166 167 162 165 144 45 50 77 80 122 125 110 48 32 28 27 71 85 88 85 88 80 74 73 77 83 77 72 55 60 62 62 57 52 60 62 58 63 65 63 62 66 73 68 68 60 63 79 106 120 138 149 156 161 162 150 133 139 142 133 126 101 77 78 84 91 85 81 74 83 92 94 116 110 108 138 151 148 155 153 152 147 149 150 152 109 50 77 54 115 155 172 166 161 155 140 174 38 63 80 44 90 115 126 94 32 27 26 70 88 89 91 85 82 80 81 79 83 69 55 56 56 50 39 28 27 34 31 36 50 65 60 71 68 78 74 74 67 56 67 103 126 141 162 161 162 161 148 134 140 138 124 105 85 83 85 91 70 54 37 39 39 60 75 84 110 115 121 142 149 153 159 153 151 151 150 151 125 53 82 56 152 169 169 158 167 173 110 165 34 76 77 61 43 93 118 117 60 25 27 72 88 91 90 86 84 83 82 83 83 53 59 49 48 55 33 33 41 75 25 25 74 54 57 67 67 73 76 79 83 55 58 102 131 150 168 170 166 159 142 136 145 124 105 90 87 96 86 88 45 51 57 71 36 26 125 119 81 104 122 138 155 157 159 154 153 152 149 153 127 56 75 88 167 179 173 158 168 176 104 140 33 81 73 73 43 59 98 101 79 33 26 79 83 93 93 89 81 85 84 81 72 52 49 40 61 78 33 32 27 62 25 26 93 80 52 58 61 70 80 86 85 65 52 101 130 154 172 179 171 158 141 126 144 116 99 99 96 95 72 110 51 50 27 55 48 20 130 157 131 80 103 140 151 154 161 161 155 155 156 155 134 64 52 119 170 170 197 159 162 183 100 132 32 87 68 78 58 49 70 88 77 53 24 81 85 95 97 91 89 82 80 77 66 52 44 45 78 89 40 34 29 28 31 40 101 97 71 83 73 67 69 87 89 77 54 96 130 152 171 182 172 161 137 121 114 127 123 103 98 82 91 126 73 47 41 23 133 39 144 164 110 94 99 120 143 152 158 163 161 158 155 156 142 71 46 140 153 167 204 159 157 184 102 132 35 87 68 80 58 75 61 65 81 61 32 83 89 97 98 94 94 85 82 74 59 49 60 64 78 87 67 36 38 41 32 77 103 90 65 91 66 67 71 87 95 85 55 96 129 151 179 180 174 161 132 116 125 137 101 94 91 88 91 118 119 57 51 49 54 112 161 134 121 108 113 127 138 155 160 162 161 160 153 155 146 76 47 148 153 174 211 161 154 187 106 133 32 83 68 76 63 91 86 56 74 64 47 79 86 97 92 102 97 95 86 78 66 68 62 74 87 91 99 72 56 51 76 87 84 77 74 69 73 74 74 100 91 75 63 99 127 146 172 183 178 164 135 110 146 128 106 92 84 78 90 91 102 94 76 70 103 131 133 122 126 115 129 138 142 153 159 161 162 162 156 154 150 76 91 167 159 171 218 165 149 188 103 140 32 79 71 73 68 101 95 82 52 73 54 80 85 98 91 103 105 101 104 96 88 85 73 68 68 76 94 92 88 81 80 74 79 85 73 80 83 88 78 96 81 65 83 97 121 147 167 182 179 159 142 98 131 119 106 100 98 97 95 93 102 80 98 95 111 116 129 130 124 131 142 148 155 156 161 161 164 157 159 156 150 122 170 185 165 164 216 165 150 174 98 162 36 66 73 72 78 106 98 92 72 66 56 78 84 95 96 104 108 107 113 112 102 97 84 73 70 70 71 77 77 81 75 79 78 85 79 92 90 87 84 94 76 82 100 97 119 139 167 180 178 153 146 104 112 120 109 100 106 105 103 103 112 102 107 112 126 127 159 159 137 140 150 153 159 161 162 159 162 159 158 159 145 132 154 177 170 165 215 169 150 144 107 165 40 50 86 72 84 102 99 92 94 61 55 76 82 93 96 102 108 111 115 117 112 107 92 78 76 82 83 83 88 83 84 86 87 91 90 101 96 87 91 92 95 104 106 100 111 129 168 186 178 150 146 121 106 116 112 100 111 111 110 114 119 120 126 128 141 147 173 156 148 146 155 160 161 159 162 154 156 162 155 156 148 128 133 156 170 165 200 175 149 119 130 155 40 36 99 83 93 100 95 93 91 52 48 72 81 91 91 102 108 112 115 118 121 112 102 90 83 84 87 87 86 88 92 93 92 94 95 103 95 99 105 106 116 110 105 99 106 118 160 187 180 153 144 134 118 115 114 112 111 116 121 125 125 127 133 142 144 158 167 151 150 156 160 165 164 162 163 161 153 162 153 149 147 130 121 142 159 161 189 178 151 104 152 116 41 28 94 91 96 105 93 91 85 60 38 69 77 88 94 101 106 110 119 122 128 121 115 98 95 88 95 90 90 89 96 98 100 102 100 98 106 112 121 119 117 114 104 102 106 116 152 181 176 155 143 141 137 131 116 123 113 119 123 126 129 130 138 141 141 153 152 156 156 161 163 163 164 166 161 164 153 161 153 146 143 138 132 131 142 153 180 176 147 99 166 87 41 28 77 89 97 104 89 85 77 77 47 67 75 82 90 99 106 112 119 122 129 128 119 116 107 102 101 100 102 103 106 107 107 104 99 101 118 116 125 120 117 116 105 105 106 119 143 171 184 157 141 143 150 151 137 128 126 121 121 127 135 136 141 142 148 155 152 166 160 162 161 166 162 167 166 162 163 157 156 147 140 144 144 132 133 141 187 171 144 107 165 61 43 29 62 95 91 112 92 87 87 96 68 68 74 82 89 96 104 112 117 123 128 133 128 129 118 109 110 107 107 112 105 107 106 102 102 108 123 120 123 117 114 111 103 105 105 114 137 169 185 164 143 141 152 157 152 148 136 125 127 128 135 130 144 145 152 155 159 165 162 162 163 164 161 165 169 161 161 149 152 145 139 149 160 134 124 131 186 158 138 120 149 52 44 34 48 101 85 114 107 98 99 98 86 66 70 77 86 98 103 113 113 124 123 134 134 129 125 116 115 108 103 109 111 108 106 107 110 119 122 122 117 117 113 112 105 107 111 117 140 172 181 170 146 140 148 154 162 153 152 140 137 137 135 141 136 142 147 155 160 163 171 165 166 165 164 164 168 166 160 154 147 145 137 147 175 141 117 135 183 153 125 141 117 48 43 37 37 104 83 120 119 111 96 95 95 70 66 73 81 93 104 108 110 120 121 128 125 129 127 123 115 113 110 107 113 110 116 122 123 124 122 122 115 119 113 110 107 109 114 122 137 169 176 175 153 147 146 151 162 156 159 154 145 147 140 139 140 150 151 156 163 161 166 165 165 161 160 165 167 166 162 150 151 143 139 146 181 132 118 134 188 151 119 159 85 58 42 41 28 98 85 112 127 114 94 96 97 72 66 69 79 92 102 108 107 115 115 125 118 124 125 124 126 121 121 117 118 116 125 129 125 129 124 116 114 116 114 113 105 113 118 130 145 168 180 177 155 149 146 148 161 160 160 159 151 156 150 151 144 149 154 154 162 161 164 167 163 158 169 174 176 169 160 150 148 144 140 143 155 117 120 149 192 147 130 164 61 59 43 42 28 83 92 99 122 114 102 96 100 74 69 67 74 87 94 107 110 113 113 121 115 122 119 120 120 122 122 128 122 131 131 138 132 138 123 120 121 111 115 108 102 122 122 140 156 173 182 174 165 152 151 148 159 160 161 162 160 162 157 157 155 152 157 156 164 158 165 166 166 169 173 176 172 171 161 149 143 141 143 124 123 118 130 173 183 138 150 145 53 64 40 41 33 63 111 79 127 117 113 99 90 75 68 74 68 84 95 100 111 109 116 117 119 124 119 118 118 122 125 128 130 135 138 142 142 141 129 120 124 109 113 101 113 125 130 142 151 165 178 173 166 155 153 151 155 161 162 167 168 163 163 162 163 163 164 164 165 165 169 172 166 170 172 172 165 173 161 151 142 144 148 120 112 126 160 183 165 134 170 112 49 66 42 39 34 42 116 74 104 122 110 103 81 75 69 74 66 80 92 91 101 105 111 118 117 125 120 120 129 122 123 132 139 144 144 147 149 139 136 126 121 105 107 103 119 130 132 150 163 168 165 175 173 163 151 149 153 161 166 169 175 175 170 176 172 167 173 172 169 172 167 177 168 168 172 175 165 170 162 154 144 137 147 117 118 149 176 176 141 151 175 78 57 59 40 41 38 29 99 111 71 102 117 117 90 77 67 75 72 71 89 97 96 105 113 110 119 124 126 128 128 127 134 134 143 148 146 148 150 143 137 130 114 100 112 111 121 129 143 146 169 171 170 178 181 165 156 152 151 156 168 171 176 173 172 175 176 170 179 171 174 176 173 172 175 168 169 171 160 165 162 153 145 140 144 133 157 168 172 157 144 168 156 53 62 65 39 41 38 22 79 120 92 82 113 134 109 82 68 72 73 73 86 94 97 109 112 110 115 123 127 126 132 127 137 137 139 143 140 143 150 139 140 127 106 109 117 116 122 128 140 152 159 165 167 173 181 165 163 151 153 151 164 177 176 175 177 177 172 176 179 176 172 176 175 166 163 173 169 170 164 159 158 153 146 148 137 150 184 168 163 146 154 176 117 54 60 60 39 40 38 29 50 108 120 84 106 129 123 83 69 71 72 73 82 88 98 108 110 115 114 124 126 135 124 134 132 133 139 138 139 141 146 137 134 120 101 121 120 115 122 126 133 151 159 165 156 167 168 167 160 154 157 148 157 171 171 172 180 176 177 176 180 177 180 182 181 174 164 174 172 173 166 166 155 150 146 148 137 173 177 173 156 156 165 173 69 59 62 61 41 40 36 35 29 90 120 103 94 115 130 103 68 72 72 75 79 90 100 102 108 110 114 125 127 135 126 133 132 134 139 136 141 142 140 135 123 102 106 123 115 110 118 121 128 140 149 161 157 162 168 165 157 161 155 148 153 169 168 167 170 179 178 173 177 173 179 179 183 176 165 175 171 177 167 170 160 151 145 145 139 186 176 168 155 161 171 132 52 59 60 62 37 37 37 40 27 53 117 107 94 100 109 109 75 71 72 73 81 92 102 101 105 110 111 123 121 126 128 133 132 134 138 136 137 140 131 125 113 90 113 112 103 100 100 113 117 136 147 159 168 165 164 168 161 163 154 149 151 163 164 161 171 172 169 173 182 171 179 177 180 168 163 171 170 174 171 173 161 151 147 142 145 188 180 169 159 159 166 74 56 55 63 58 38 36 36 38 36 24 105 111 89 94 92 98 91 71 68 75 81 90 97 104 105 113 117 120 121 125 130 135 132 139 138 139 137 130 123 111 111 91 110 104 91 92 90 99 102 124 138 148 158 165 167 171 160 159 147 155 151 162 156 150 164 176 170 174 179 174 178 177 179 172 167 174 169 170 171 170 161 150 146 141 144 185 177 173 164 168 130 44 60 59 63 59 37 41 36 36 35 24 75 109 94 89 92 103 109 74 68 73 78 94 97 99 104 111 115 118 122 123 132 134 128 135 136 139 134 127 112 108 107 88 97 111 100 83 91 89 94 112 130 134 140 153 180 171 149 153 153 159 152 159 153 148 154 167 171 171 174 176 175 179 179 179 174 172 171 168 167 169 162 153 141 139 152 174 171 167 162 168 86 50 60 58 58 64 38 38 33 35 37 32 41 97 96 99 102 109 114 79 66 72 77 90 101 102 99 110 115 115 121 125 133 128 133 133 137 133 138 129 114 109 111 98 88 119 116 42 44 76 91 106 126 126 138 148 174 160 142 91 135 163 155 156 153 149 156 155 167 171 175 177 180 181 179 181 180 174 171 174 166 171 163 151 145 138 159 162 167 162 172 136 52 59 62 60 60 61 41 41 34 36 37 34 28 61 90 101 102 102 110 84 69 72 76 89 97 99 100 107 115 116 119 121 129 132 135 136 136 132 133 124 114 114 117 113 77 109 107 62 40 35 72 107 124 132 135 156 162 145 106 96 118 153 149 156 161 156 157 156 160 170 175 173 180 179 184 181 183 182 172 174 169 171 160 149 144 138 167 163 178 171 163 76 55 58 60 60 61 61 38 40 35 36 34 35 37 32 62 85 92 92 102 86 67 74 75 89 100 95 104 108 112 114 118 122 126 133 135 139 135 132 124 118 121 123 121 118 98 72 71 80 67 65 47 77 122 133 142 156 155 128 125 140 128 139 148 159 161 169 158 155 161 165 173 171 175 179 183 181 180 184 174 172 168 167 162 149 147 139 175 169 169 144 80 52 60 55 60 57 64 56 45 39 40 34 37 34 38 33 35 48 68 79 92 84 68 71 72 85 97 100 104 104 111 106 117 119 127 132 132 135 132 122 120 124 125 126 127 119 116 91 69 68 73 77 80 70 113 134 140 153 138 130 138 133 132 147 149 156 159 171 164 159 160 162 169 172 173 180 186 187 181 183 180 174 169 168 159 149 151 140 166 136 91 63 56 58 57 55 59 58 61 62 41 38 39 36 34 37 39 32 37 34 38 43 67 65 59 71 75 78 95 101 102 101 109 104 116 120 125 130 130 130 127 116 122 125 129 131 126 116 118 103 79 73 66 71 100 108 110 131 137 142 134 125 133 129 132 148 148 152 157 172 172 158 164 161 171 170 175 179 188 184 186 177 178 175 170 168 162 147 146 139 79 63 59 61 52 57 59 55 57 63 62 62 39 41 36 38 30 37 35 35 36 36 37 37 38 34 44 73 73 78 91 98 102 102 106 109 118 114 124 128 131 128 116 118 124 122 123 129 124 119 117 114 76 78 64 71 90 114 119 120 122 136 142 126 124 128 129 150 155 153 162 166 170 164 161 163 162 173 174 183 184 190 185 182 181 178 170 170 161 150 152 135 43 56 59 57 56 59 60 60 60 61 60 63 40 41 39 37 34 37 35 35 34 37 38 39 37 35 33 70 78 73 88 93 101 103 104 105 113 115 126 130 126 127 115 120 119 117 119 115 121 114 115 111 89 80 70 72 89 121 135 111 104 144 144 124 122 120 125 153 153 153 159 159 166 169 162 163 163 167 173 179 185 183 185 180 179 179 174 168 159 151 153 125 46 54 60 56 58 58 57 60 60 60 62 61 38 39 35 39 38 35 37 33 37 39 33 39 35 38 31 60 77 72 82 93 98 101 107 105 108 118 124 125 119 125 117 119 119 117 119 108 113 106 109 113 96 81 76 71 99 131 138 107 87 131 137 121 118 115 127 146 150 147 152 157 166 171 168 165 172 170 170 176 187 179 183 179 178 179 173 164 159 153 160 108 44 58 58 59 57 58 59 62 59 61 59 61 40 36 37 42 34 36 37 38 38 38 35 37 36 37 34 53 75 71 81 90 96 101 101 103 108 116 119 121 117 115 114 119 110 108 110 101 106 106 113 111 100 98 87 81 103 136 129 102 84 115 129 123 117 123 130 140 141 149 145 159 162 166 169 167 173 177 166 174 182 180 182 178 178 177 168 163 160 151 164 87 51 60 57 58 57 54 59 61 60 62 58 64 40 42 34 41 36 35 37 34 37 37 37 36 38 35 33 45 74 76 78 88 93 97 100 99 108 113 124 113 114 115 113 118 115 102 97 97 107 102 111 104 113 112 105 92 105 125 116 95 87 109 124 116 125 131 136 144 142 149 145 161 160 159 163 161 169 174 171 170 180 180 184 179 178 172 169 165 159 155 171 68 50 60 60 57 57 62 56 65 56 63 59 61 43 41 35 39 37 34 37 35 36 37 38 37 35 35 37 36 73 73 77 89 88 95 100 102 106 113 119 108 109 109 116 119 114 108 97 95 98 104 111 114 115 117 115 109 112 127 122 104 109 126 133 131 134 139 140 145 141 132 148 162 162 162 155 163 167 170 183 168 182 186 183 181 174 170 171 168 159 155 163 58 56 55 60 59 57 64 56 63 60 60 62 64 41 41 40 38 34 34 36 32 36 37 37 35 35 38 39 29 66 74 80 84 91 96 100 99 102 111 112 112 106 113 117 118 113 112 97 98 100 102 111 111 113 108 114 107 108 118 127 125 128 129 130 135 146 148 157 155 148 137 155 163 163 164 161 162 174 169 174 173 180 185 181 179 175 171 174 163 156 160 155 44 61 56 62 56 54 60 59 64 59 62 61 64 42 39 39 37 37 38 33 37 36 33 39 37 37 39 38 30 54 76 78 84 91 96 101 101 102 109 111 110 106 117 116 121 117 111 96 100 98 97 99 97 104 106 106 108 106 98 105 120 118 122 123 126 128 129 131 139 132 134 149 153 145 154 153 153 173 172 166 176 180 183 175 180 176 171 170 161 157 157 131 44 60 59 56 57 59 58 61 62 62 66 60 64 38 42 40 38 36 36 37 36 34 38 34 35 36 38 36 35 43 77 78 81 87 94 100 102 102 106 107 107 103 118 125 125 107 89 77 70 73 63 69 80 91 89 82 82 87 78 88 102 91 83 83 91 92 98 101 96 100 105 103 104 114 124 130 134 169 165 172 177 180 180 184 182 170 176 168 164 154 167 107 47 61 52 62 57 59 59 63 63 61 64 62 60 41 40 40 35 38 38 37 35 36 36 33 32 42 36 37 38 31 69 79 78 89 92 100 101 103 107 106 107 110 118 132 134 87 68 60 51 45 52 50 53 59 54 63 64 65 69 67 68 68 68 72 79 80 92 92 99 100 105 98 92 104 109 113 119 154 161 170 177 181 182 183 181 174 172 172 160 152 164 75 51 61 56 56 55 59 62 57 67 58 60 62 59 39 41 40 38 38 38 35 36 37 36 34 38 32 38 35 38 27 61 74 78 86 94 97 102 102 104 105 111 116 123 137 134 83 84 82 70 64 60 63 68 72 71 89 85 83 95 86 81 95 86 100 104 109 107 114 116 116 115 124 129 136 128 127 121 146 159 174 177 175 180 184 178 170 170 172 159 155 150 58 55 57 58 54 61 57 64 61 62 65 61 63 59 40 41 42 37 41 36 38 36 36 37 33 38 36 36 37 37 35 44 74 78 87 93 97 94 102 101 105 113 120 132 146 124 87 84 88 84 88 84 85 85 86 88 98 102 102 112 100 95 109 109 113 116 130 123 130 131 134 144 160 164 150 140 140 133 148 154 179 183 175 177 178 178 172 173 173 160 163 119 49 59 57 58 58 63 56 66 63 59 64 61 63 62 38 41 40 42 37 38 37 37 37 37 35 40 34 39 37 36 38 33 72 76 85 86 92 94 99 104 105 114 124 135 144 128 87 87 91 100 99 93 94 90 92 93 100 103 104 113 110 106 100 113 115 119 131 136 145 155 169 168 169 174 165 159 153 151 153 156 181 175 175 171 176 175 176 176 172 162 161 83 50 58 59 55 59 58 65 63 64 63 63 64 63 67 39 42 41 43 40 41 37 38 37 38 34 39 36 38 37 37 38 33 52 75 81 88 92 92 96 98 100 110 126 133 134 129 96 97 103 105 103 99 93 95 102 104 108 111 111 115 121 116 117 127 133 138 153 161 164 163 166 173 174 169 170 172 170 159 155 151 176 181 176 178 182 173 176 176 166 160 145 55 55 60 57 55 57 58 63 62 62 59 65 64 63 63 44 38 42 42 35 41 38 37 38 37 34 38 38 35 37 39 40 36 34 76 78 82 95 93 97 98 100 104 117 133 123 124 111 103 109 109 102 100 102 94 102 103 117 126 125 121 123 132 130 137 143 140 154 161 163 162 165 172 171 169 171 173 173 161 160 139 165 180 170 177 177 177 172 173 166 164 100 51 61 55 59 59 57 60 61 62 62 62 61 65 62 64 40 40 42 42 39 40 40 39 34 34 37 36 38 34 38 37 39 32 34 60 79 81 91 92 94 94 98 109 116 118 112 114 112 102 106 107 107 107 106 93 102 110 113 126 128 112 109 119 126 130 133 135 153 156 161 167 172 173 169 168 169 173 175 160 165 145 166 178 174 178 173 177 173 172 164 142 58 59 56 62 61 60 62 60 61 63 60 62 63 61 65 60 40 42 40 45 41 40 39 39 40 34 37 37 37 36 34 40 37 33 41 39 75 81 88 92 93 95 102 110 110 103 102 98 106 105 97 104 105 108 105 102 106 113 123 129 126 111 111 113 126 127 137 137 151 156 159 167 169 172 169 168 175 167 168 162 158 160 169 169 173 176 172 178 174 170 166 93 53 59 56 62 60 62 60 62 60 62 63 59 63 63 60 61 39 42 42 39 42 40 42 39 39 39 35 39 38 33 40 37 35 38 36 30 67 83 86 93 91 91 97 100 102 100 92 90 99 101 96 100 95 101 105 102 107 108 112 113 105 102 100 101 119 123 127 140 146 152 159 164 167 173 162 164 167 166 158 162 154 171 170 173 166 178 172 174 173 174 139 53 58 57 60 59 60 58 62 64 57 62 61 62 65 59 65 57 41 39 43 41 38 45 39 39 42 40 40 41 39 35 39 35 37 36 39 29 57 80 84 91 93 95 92 93 97 96 92 92 93 97 100 96 97 99 100 101 94 93 94 94 93 99 98 101 108 121 124 137 144 147 158 165 164 172 161 160 163 163 152 164 157 169 173 173 171 176 174 174 170 167 83 54 60 59 64 59 65 61 66 60 62 62 61 59 66 60 63 62 40 40 46 39 42 43 41 41 43 39 39 39 42 37 35 41 39 34 38 32 54 75 84 94 95 99 90 89 91 91 87 93 87 93 96 97 100 107 101 102 105 110 114 109 107 119 122 122 124 132 135 146 152 158 158 161 161 163 164 158 159 164 160 161 167 162 168 167 172 169 172 170 169 125 52 58 59 60 61 61 67 63 61 63 64 63 61 64 60 61 60 67 40 43 43 41 44 41 42 43 41 43 40 43 41 39 36 37 39 38 39 33 51 64 86 91 95 93 91 96 93 90 89 91 89 91 93 100 99 102 109 111 115 118 122 121 121 130 136 140 138 147 159 156 157 164 160 165 161 164 161 160 166 161 157 160 163 156 172 166 174 172 175 175 152 136 85 61 60 63 59 66 63 65 62 59 65 64 60 61 62 65 59 61 45 38 46 42 43 44 40 41 40 42 41 44 39 39 37 39 39 37 39 32 52 73 65 93 93 95 91 97 93 87 94 88 92 89 93 94 101 103 111 119 117 119 122 128 124 127 142 149 142 155 157 161 155 157 157 157 161 164 165 161 156 162 161 158 169 154 168 170 171 170 173 169 106 98 133 118 60 58 60 64 62 66 63 57 66 62 60 57 64 63 59 64 45 37 44 41 39 42 42 43 41 47 39 42 38 40 40 38 39 38 41 25 118 75 62 79 101 95 94 99 91 91 91 91 86 91 92 100 100 106 113 119 114 119 118 123 127 132 140 148 149 157 153 158 156 157 158 156 160 159 158 164 154 163 161 160 162 163 166 170 169 167 171 140 65 101 94 129 136 63 53 62 64 61 67 57 65 58 59 62 60 58 62 66 40 43 39 40 45 42 42 46 39 41 40 44 44 38 39 41 36 41 27 68 160 69 72 63 90 100 99 99 95 92 88 88 91 91 95 101 97 106 112 113 115 123 120 121 124 137 145 148 158 156 154 157 158 156 159 160 164 165 162 160 158 161 163 167 157 160 165 172 167 168 164 125 69 76 91 109 148 149 54 62 63 60 56 62 60 63 57 63 59 58 60 62 43 43 38 41 45 41 45 41 44 40 44 44 40 37 40 34 41 37 23 138 156 67 74 71 66 96 105 101 101 95 89 89 96 89 94 96 101 102 105 113 108 113 115 121 125 135 144 148 155 154 147 154 156 162 163 161 167 165 161 159 153 164 149 164 159 163 166 167 165 163 169 97 73 76 108 102 122 162 150 48 56 62 58 66 56 61 60 67 56 60 62 59 41 39 41 40 44 41 41 40 43 41 44 42 42 43 38 39 40 34 38 192 140 64 77 71 71 73 91 106 105 100 97 88 91 88 88 93 95 99 99 107 103 107 108 120 126 128 144 141 145 139 145 153 148 162 162 160 170 165 159 153 159 158 159 158 166 159 161 162 162 160 174 83 59 75 119 111 107 123 200 109 54 60 62 58 61 61 62 63 57 65 58 59 44 41 42 39 43 43 39 42 41 41 45 38 43 42 41 35 39 20 98 207 132 62 81 77 70 72 78 89 105 104 100 101 89 88 90 88 90 97 88 96 103 99 101 120 119 127 129 143 140 134 141 156 156 170 171 162 168 168 158 160 165 153 159 160 162 156 161 161 163 164 167 68 78 81 106 124 83 134 141 212 56 58 60 62 61 57 56 60 61 63 58 55 41 39 43 41 44 42 42 44 42 45 41 43 39 43 37 41 46 16 159 198 138 51 89 85 77 73 75 75 81 98 101 100 99 91 88 88 87 91 90 94 95 99 109 112 123 123 126 142 140 142 137 163 163 164 163 167 160 172 154 162 162 159 161 154 160 160 165 161 165 159 157 60 83 100 129 137 97 99 139 199 161 41 61 62 59 63 55 60 61 62 59 58 39 42 47 38 40 42 44 41 45 41 44 41 44 40 43 38 29 62 190 182 164 31 92 95 83 79 75 81 71 84 91 102 104 98 100 91 93 91 88 100 98 103 109 114 130 130 124 141 139 136 144 148 157 156 155 164 151 162 151 161 161 155 148 155 165 165 163 161 163 162 141 56 80 104 128 145 124 80 153 164 219 81 50 62 67 57 60 55 60 65 59 59 40 40 43 42 39 43 41 41 43 42 42 44 43 43 40 42 17 132 197 173 203 29 89 98 94 88 82 79 78 81 77 95 98 104 100 103 93 101 96 102 108 108 112 113 129 130 134 142 142 145 151 150 158 153 143 159 150 156 157 154 151 156 151 160 166 163 163 166 161 167 131 70 95 102 108 124 133 93 110 162 198 184 40 57 62 59 56 58 60 59 60 59 39 38 44 40 41 39 42 45 41 42 42 44 36 43 38 33 46 174 197 170 229 47 76 105 102 94 92 80 82 85 81 83 91 98 105 101 102 110 105 108 115 115 114 124 133 135 139 143 144 144 154 148 142 151 148 155 139 152 149 150 148 158 158 167 167 163 164 166 165 174 111 68 108 118 119 122 120 93 115 147 172 224 88 49 59 59 60 59 65 58 58 53 39 40 43 39 42 44 39 44 46 41 41 41 44 43 52 51 121 184 198 175 220 97 61 106 106 104 103 98 88 87 90 81 88 94 94 102 109 108 116 116 119 122 120 124 132 134 143 138 138 139 141 141 140 139 147 142 150 144 153 156 157 167 162 169 165 166 166 167 167 176 105 65 103 108 116 121 130 93 127 122 154 203 201 33 49 59 61 58 59 61 58 62 42 39 40 39 43 37 41 41 36 46 58 84 114 134 150 132 156 190 194 179 219 161 53 101 110 107 107 103 100 96 92 87 83 90 90 97 101 108 117 120 123 124 129 131 136 138 138 132 135 141 143 142 144 148 152 152 154 151 157 165 169 171 165 169 168 172 166 168 168 183 88 71 121 123 112 108 121 104 120 140 117 188 232 109 44 54 62 57 56 56 57 54 39 37 41 38 37 34 43 77 117 153 168 178 182 179 154 152 164 199 189 188 212 199 72 94 115 109 113 106 109 104 105 91 95 89 88 90 97 99 108 113 120 121 125 129 136 134 139 139 141 146 151 153 155 153 149 150 155 158 159 167 174 172 168 168 172 167 170 167 168 174 99 69 108 122 118 124 104 109 122 131 138 166 213 212 36 50 59 57 61 59 57 58 