P2
92
112
255
126 130 131 127 130 130 124 124 123 124 123 123 117 117 114 117 111 122 116 116 121 113 106 91 101 94 77 78 71 73 61 55 42 52 58 65 67 60 62 68 77 85 84 79 69 62 68 70 73 78 77 86 76 88 87 91 88 92 87 84 71 74 86 81 73 69 71 66 61 63 85 103 109 115 120 115 122 123 120 122 122 122 122 125 119 123 122 121 119 121 121 121 128 127 132 127 128 128 129 118 119 121 112 117 111 114 112 117 117 119 118 115 114 115 109 97 93 90 86 70 62 55 45 44 40 45 49 56 61 58 58 59 57 68 77 76 68 61 57 64 66 69 75 70 73 70 72 80 80 86 84 87 76 72 69 73 75 70 67 67 67 61 60 77 88 100 111 111 116 121 116 122 122 121 122 121 121 124 122 121 119 121 120 120 129 127 131 126 128 131 128 123 115 111 104 108 114 117 117 116 116 116 118 114 109 112 104 100 87 82 81 76 61 46 38 38 43 36 58 53 63 67 61 55 57 56 58 54 57 63 63 59 63 64 71 69 71 64 63 68 72 71 76 75 77 79 77 73 67 73 73 71 65 63 60 62 63 80 93 107 113 118 116 119 122 121 121 120 124 122 121 121 119 120 122 120 126 127 129 124 130 129 127 124 116 113 109 108 114 120 119 118 117 111 113 114 107 105 103 100 92 89 82 81 68 52 37 36 41 37 38 53 56 58 66 63 62 55 54 51 42 41 58 60 52 62 67 72 63 66 66 59 70 68 67 65 69 69 72 78 74 75 85 77 75 71 65 65 65 53 63 81 87 101 112 110 117 115 124 122 121 119 119 121 118 122 121 119 123 129 126 126 127 126 123 124 119 114 112 112 112 119 119 114 112 111 106 107 103 98 95 92 90 89 81 74 72 61 46 44 37 36 36 42 60 56 58 58 64 65 60 53 50 40 43 53 55 59 62 68 62 63 64 59 59 63 63 60 61 57 64 64 69 70 76 75 74 73 71 69 67 66 53 61 60 73 82 101 104 105 120 120 119 117 118 118 118 119 121 121 127 128 123 128 125 123 124 122 122 116 121 119 120 119 119 117 115 110 106 103 101 96 96 88 86 85 80 78 71 66 55 52 44 42 38 40 57 59 61 56 60 63 55 58 54 50 49 51 50 52 56 59 57 56 57 58 58 59 52 56 58 53 59 64 61 68 68 73 68 71 70 74 77 75 69 61 63 57 63 75 80 86 97 102 109 113 120 119 118 120 119 119 128 131 123 127 130 121 121 121 121 122 123 121 125 116 117 116 115 115 105 105 101 94 90 87 87 90 82 77 75 66 63 55 60 53 48 45 49 54 58 60 60 57 60 59 58 50 57 56 49 44 47 48 50 48 47 52 45 47 50 52 52 54 56 57 64 61 65 71 70 70 68 76 71 76 75 75 66 62 61 63 69 75 88 85 89 100 110 113 116 124 117 126 127 129 125 127 122 125 126 123 123 124 123 123 124 122 123 114 117 112 103 98 101 85 84 89 89 88 87 82 78 69 68 67 68 63 58 57 51 53 49 53 60 55 65 59 61 56 49 48 47 47 36 48 42 46 41 45 45 45 43 49 52 51 49 53 60 60 61 69 61 70 63 63 71 76 74 74 71 64 61 62 57 64 76 90 94 93 92 100 107 114 117 119 126 130 125 124 123 125 124 123 119 121 121 125 123 125 122 119 109 106 97 88 89 84 82 85 87 86 84 83 78 72 70 75 68 66 66 65 61 62 56 55 60 64 62 57 58 54 51 50 49 45 41 47 45 43 39 38 42 46 42 50 45 50 47 46 51 55 60 61 69 66 67 64 62 70 77 73 73 75 62 56 56 52 66 71 85 102 105 106 96 103 113 112 124 126 123 124 123 124 122 118 119 118 124 122 123 122 117 117 105 101 95 84 89 89 88 87 87 91 85 85 79 76 73 80 77 74 74 75 75 71 67 72 64 70 63 64 54 56 49 49 49 45 47 47 49 43 48 41 46 51 42 45 55 50 51 44 52 49 47 60 60 65 68 67 65 66 73 75 82 80 77 59 59 56 59 58 67 85 107 111 104 100 103 113 125 123 122 122 120 123 121 120 119 117 125 120 119 117 110 106 102 96 90 87 90 93 87 85 86 96 91 91 84 89 77 95 90 85 87 91 90 85 90 83 81 77 75 65 61 58 56 50 44 41 42 47 51 47 47 44 44 47 48 48 48 54 50 56 53 55 54 53 55 61 63 67 68 72 74 82 82 79 82 75 57 59 56 60 55 66 86 100 105 105 99 104 124 122 122 117 122 121 121 117 121 119 118 118 116 112 102 101 96 93 87 90 84 80 80 84 91 102 107 108 103 104 92 97 113 98 107 114 106 105 102 108 103 95 84 78 70 60 63 58 53 42 40 40 53 52 44 46 46 48 52 55 57 56 58 57 60 64 70 70 66 62 59 65 72 68 74 82 87 84 75 80 59 60 58 67 58 54 64 83 91 105 97 101 122 123 116 121 114 117 114 116 117 116 117 114 111 103 95 95 91 91 82 75 75 81 83 95 102 116 124 128 125 120 111 99 120 121 112 126 118 116 119 127 124 107 100 89 78 70 67 66 59 54 42 43 41 52 51 43 47 44 52 48 53 51 62 59 57 60 72 70 74 74 77 75 80 75 75 84 80 90 77 81 71 64 63 68 65 59 53 69 84 92 96 88 114 122 119 116 116 112 116 121 117 116 113 109 105 98 98 86 87 75 73 68 82 87 96 106 122 131 144 149 153 134 131 113 124 133 131 126 128 120 121 138 134 121 106 102 88 74 75 73 66 65 55 49 49 46 57 51 42 53 51 45 51 48 56 58 61 60 59 63 68 68 74 73 83 86 78 84 80 86 83 78 72 72 71 66 69 64 55 55 67 74 86 76 121 116 115 113 118 114 117 124 115 112 106 108 102 96 88 81 72 62 64 80 94 97 109 127 140 153 164 169 169 157 129 133 117 134 141 130 139 128 125 138 133 130 118 113 96 85 78 81 79 70 62 68 63 54 55 61 53 50 55 49 45 51 44 51 50 58 49 48 53 59 63 66 73 78 75 80 81 76 78 77 72 76 72 69 73 68 61 54 55 75 68 68 112 114 112 117 118 119 119 118 104 107 103 100 94 88 79 67 57 52 78 90 96 110 130 148 158 172 184 188 185 176 154 138 128 122 138 134 138 150 134 143 136 127 119 116 105 88 88 84 87 80 77 69 69 66 59 62 59 62 61 62 50 50 47 54 50 51 55 40 48 55 50 54 64 69 71 67 71 70 69 71 71 76 71 70 71 65 67 64 52 62 71 56 108 111 120 122 116 121 111 106 99 96 94 88 83 74 64 58 49 69 84 90 111 128 148 167 178 187 193 196 194 188 172 151 136 128 121 132 139 149 148 143 152 134 127 121 113 96 94 93 86 94 87 69 75 67 66 63 66 62 71 69 65 50 50 47 52 50 51 50 44 57 55 52 51 60 68 67 67 64 68 70 67 69 73 71 75 68 66 65 56 52 65 64 114 117 123 117 116 107 104 98 95 94 84 81 70 64 59 46 59 80 83 106 127 154 173 185 192 197 199 199 200 194 189 175 154 131 121 117 134 145 154 145 149 149 142 119 120 106 103 99 91 95 93 82 73 75 67 61 64 72 66 68 70 62 47 51 49 45 55 47 48 46 59 53 41 46 56 60 66 64 67 63 66 63 67 72 67 71 61 67 60 54 51 63 116 111 116 111 104 98 94 91 86 86 77 69 70 58 53 49 76 83 100 125 157 179 191 196 198 200 202 202 201 201 196 195 184 154 131 118 115 132 150 157 149 144 150 135 120 110 104 110 105 93 93 91 77 73 68 66 62 72 69 63 72 72 61 55 56 49 42 55 54 48 54 56 48 44 36 48 49 59 62 63 62 62 60 66 64 66 61 56 49 49 41 43 114 114 109 103 92 92 81 81 75 72 72 64 57 47 45 52 77 94 122 154 181 192 195 200 203 199 201 203 204 203 202 200 196 184 158 135 120 112 122 141 152 144 139 137 124 118 104 111 110 95 93 93 79 73 70 62 68 73 75 73 66 70 72 63 63 56 52 46 47 52 51 56 45 43 38 42 42 47 52 59 59 59 57 60 62 60 63 59 57 52 48 48 113 109 101 98 88 80 75 68 65 68 60 58 46 44 46 58 83 116 150 182 193 198 199 203 202 203 201 204 204 206 203 201 200 195 182 164 139 124 115 114 127 138 142 138 123 117 113 108 112 105 87 96 85 73 73 60 67 66 82 77 72 70 72 70 68 59 59 47 47 51 51 62 45 43 44 38 39 42 43 54 57 52 57 53 59 58 59 61 56 53 47 51 104 104 97 83 79 76 66 61 57 56 57 50 50 45 36 78 108 145 176 197 197 201 204 202 204 204 205 205 207 206 204 205 201 200 196 184 177 162 140 117 106 117 126 135 127 115 120 105 111 107 97 96 90 79 77 72 60 68 77 86 78 76 69 75 65 62 59 56 45 46 55 60 54 40 42 52 39 39 43 47 55 49 51 51 56 57 62 62 53 44 42 41 107 100 84 80 73 65 60 57 52 50 60 52 47 42 54 101 139 167 192 196 203 201 204 205 204 206 207 204 207 207 204 205 203 200 199 194 190 187 179 164 147 126 113 115 111 109 123 113 106 109 107 96 92 86 78 70 66 64 70 74 82 83 69 69 66 64 57 52 57 47 50 63 59 46 36 51 49 41 39 42 47 49 48 53 54 56 61 64 55 48 40 40 98 86 76 68 57 48 46 46 47 45 51 51 41 46 82 131 159 186 196 202 202 202 206 204 205 206 206 204 205 206 205 207 203 202 200 196 194 192 190 179 177 160 148 129 111 100 99 109 104 102 102 101 93 90 80 77 69 67 66 71 82 85 77 70 67 65 61 56 50 52 43 53 63 54 42 40 51 44 39 45 44 45 45 49 57 54 58 65 63 49 48 47 88 73 65 52 49 42 45 37 42 47 47 43 43 67 114 150 178 193 201 202 204 203 205 205 207 205 206 204 205 205 206 206 204 203 202 200 198 196 192 189 182 176 162 155 143 117 102 94 93 93 96 94 93 85 76 75 74 72 67 68 75 75 80 73 59 66 63 58 56 48 39 47 60 58 45 42 40 50 41 48 44 44 42 44 51 57 58 63 64 58 50 45 72 67 58 47 47 44 40 46 50 47 45 43 51 97 132 166 187 198 201 204 204 206 207 205 207 206 205 206 205 205 203 204 204 204 204 202 201 198 193 193 192 184 178 165 159 142 124 109 98 94 91 91 95 89 88 84 87 75 81 72 71 69 72 74 62 64 64 64 58 47 48 39 57 55 51 46 38 45 46 45 44 51 41 43 46 52 43 42 51 55 41 43 73 62 53 48 39 42 40 45 54 52 41 43 73 119 144 175 194 199 202 205 206 205 206 207 205 205 206 206 207 206 204 206 206 206 205 204 203 199 194 193 191 188 186 177 173 162 150 124 114 108 104 93 90 83 85 89 86 87 87 86 79 75 74 79 69 63 67 69 58 53 50 50 51 66 51 49 48 41 46 44 43 47 51 41 42 47 44 33 37 50 45 48 71 57 49 47 38 37 42 51 53 47 40 57 90 133 160 184 197 203 203 205 204 206 207 206 204 207 206 204 208 207 207 207 206 206 208 206 205 202 198 198 191 188 190 186 180 173 168 150 129 121 121 114 101 84 81 79 80 80 87 91 82 83 79 85 84 76 68 73 68 59 60 55 51 63 61 48 46 48 40 48 38 42 48 46 45 48 48 37 36 44 54 52 67 53 54 42 40 40 45 51 50 38 44 60 103 146 171 188 200 203 203 204 205 206 207 207 204 206 206 205 207 207 207 207 207 207 206 206 208 205 204 203 195 190 187 188 184 184 174 165 144 129 123 118 120 106 88 81 78 74 77 85 83 87 81 85 80 88 81 74 69 62 64 59 54 56 61 49 44 51 45 42 41 40 47 44 46 41 56 49 41 50 68 59 77 67 56 46 42 48 49 51 51 46 39 86 120 156 179 198 199 203 206 204 205 206 207 206 207 207 205 208 207 208 206 208 208 208 206 207 207 208 206 206 201 195 191 187 187 184 180 177 163 148 129 123 119 117 107 89 82 75 70 71 73 76 75 69 74 73 80 81 77 63 57 62 57 57 62 57 40 36 45 48 42 38 41 42 40 43 50 47 48 46 61 63 81 67 55 50 48 51 45 49 46 47 48 104 137 166 189 195 203 202 206 206 207 205 206 206 205 208 206 207 207 208 207 207 208 206 207 208 207 207 206 207 204 204 198 194 192 185 184 178 176 162 149 132 125 119 110 106 91 86 75 71 65 69 65 69 62 68 69 70 78 72 62 55 53 51 56 63 50 38 33 45 39 46 42 45 46 48 47 43 33 44 57 60 74 68 55 60 51 50 46 49 48 43 63 122 153 177 191 199 203 205 206 206 205 205 204 205 204 207 206 207 207 207 206 207 207 207 208 208 208 206 207 207 206 204 202 201 198 190 188 183 180 175 163 150 140 122 120 114 101 92 82 83 64 66 68 65 61 64 68 65 69 72 76 59 54 53 54 58 61 50 38 41 43 40 47 40 38 51 46 43 36 37 36 54 80 71 55 58 48 43 45 48 42 43 88 136 164 185 194 199 202 205 203 203 198 199 198 199 201 202 203 205 205 204 205 206 206 206 207 206 206 204 205 205 205 204 204 201 201 198 196 188 184 181 177 166 153 145 128 120 113 105 90 87 80 68 68 66 68 53 60 68 62 72 72 72 62 56 59 56 56 53 55 44 44 41 40 46 36 33 42 42 37 32 33 29 84 66 58 54 47 50 50 45 36 41 104 147 176 189 195 200 198 195 187 176 175 180 182 178 179 180 186 187 190 195 195 201 202 202 204 203 203 204 202 204 203 204 204 202 203 201 198 195 189 185 182 177 168 159 147 135 125 114 104 96 87 82 69 64 68 63 59 59 62 57 73 67 66 62 65 64 62 60 55 56 52 49 41 42 36 27 31 30 39 29 23 31 75 66 55 51 53 58 54 39 27 56 118 156 180 191 195 185 178 171 166 158 154 156 152 149 143 147 153 153 154 162 174 178 190 193 196 197 199 199 201 201 203 203 203 202 202 201 199 198 190 189 182 179 175 170 159 151 139 131 114 110 92 93 81 68 61 67 60 59 58 56 63 60 61 59 57 60 60 68 61 55 54 57 46 46 44 35 29 26 32 30 22 26 71 64 56 53 53 54 46 37 22 75 132 163 183 182 180 169 169 171 165 155 147 140 133 127 134 129 134 139 133 133 145 151 159 170 180 186 188 194 195 199 201 199 201 201 202 199 200 196 193 189 181 179 176 173 165 162 149 139 127 114 100 91 81 76 60 63 61 59 60 61 57 59 63 55 58 58 54 61 66 57 64 53 56 47 46 44 39 35 29 32 22 23 67 60 51 52 56 47 39 31 28 85 142 168 176 162 157 162 170 183 185 182 172 159 138 127 121 116 122 126 129 127 129 130 136 143 159 166 177 183 189 195 199 199 200 199 199 195 195 192 187 184 182 173 164 162 154 149 142 128 117 104 89 82 64 61 64 59 55 60 57 64 62 62 60 61 56 61 61 57 62 56 68 67 66 62 53 48 46 48 37 35 34 26 64 61 52 55 55 44 38 31 23 99 150 173 166 165 170 181 193 197 198 192 189 186 174 160 148 133 126 126 129 130 125 123 127 127 146 151 167 170 181 191 194 197 196 198 194 191 189 187 184 175 169 165 156 145 130 119 115 100 96 85 82 72 63 57 61 61 58 62 54 59 65 61 66 67 59 64 65 58 56 58 60 64 66 65 59 50 54 50 47 31 29 31 65 57 55 58 44 45 34 26 27 117 155 172 160 176 186 191 199 200 196 193 191 188 186 179 172 159 152 142 141 138 135 128 130 127 137 147 157 165 178 183 193 195 195 192 189 185 183 178 173 162 156 151 142 123 111 97 94 89 84 80 74 71 64 59 62 57 67 67 63 58 61 57 59 63 62 64 65 66 59 60 59 56 65 60 61 54 49 51 43 36 32 33 64 56 60 52 47 38 33 21 39 125 160 168 169 183 191 194 197 198 195 190 184 183 181 178 169 170 162 158 151 150 149 142 142 139 141 146 156 166 176 187 193 197 191 189 185 174 176 168 157 146 143 136 131 115 106 89 87 91 85 85 85 82 81 79 81 85 78 81 81 72 59 54 55 54 54 62 61 71 67 64 61 58 60 61 60 53 53 49 42 40 33 41 60 62 60 50 48 38 31 12 55 137 164 170 178 187 192 192 190 189 183 179 170 164 162 161 160 159 159 152 152 150 152 150 152 151 150 151 164 167 181 188 195 195 194 187 183 174 171 159 147 134 132 126 126 118 109 105 104 104 107 104 111 110 115 117 117 115 113 107 108 95 87 63 63 59 56 49 58 63 68 65 62 63 60 56 66 53 55 58 49 36 38 42 68 63 54 49 45 34 36 11 73 146 169 177 182 189 188 187 184 174 165 151 145 140 140 141 142 141 144 139 142 143 147 150 152 151 152 159 164 172 183 191 196 198 194 191 184 178 165 155 144 131 130 125 127 121 122 117 120 122 120 118 119 126 125 127 128 121 123 120 116 109 102 86 79 67 62 57 52 56 56 66 63 64 61 62 64 59 55 56 58 48 36 44 73 56 58 41 45 34 33 14 93 153 177 184 183 187 185 178 172 154 139 137 155 165 165 165 160 155 145 133 126 129 136 144 148 147 149 158 165 174 189 196 197 200 198 192 186 176 164 149 142 130 129 126 127 123 124 119 121 122 120 120 119 123 124 124 123 118 120 116 115 112 105 99 95 83 74 67 62 59 57 55 59 64 61 61 66 59 59 56 61 59 44 48 65 59 52 50 42 36 22 17 112 161 183 185 188 183 182 174 158 139 141 163 172 178 176 155 157 147 142 135 134 122 120 134 139 144 144 148 161 175 190 202 202 201 201 195 189 174 162 144 136 124 127 122 123 121 124 120 121 115 115 113 112 110 114 110 111 112 108 113 107 109 108 104 103 98 87 77 72 62 62 61 57 60 62 60 64 58 58 62 58 66 56 53 63 64 48 47 51 34 15 26 128 166 188 192 188 184 178 168 151 155 160 146 138 133 128 114 109 107 105 102 118 119 119 118 125 135 135 138 142 167 193 204 205 207 202 198 190 174 158 141 129 121 120 118 122 120 121 117 112 108 102 102 103 104 106 102 103 93 94 90 95 103 104 103 107 100 93 86 75 63 53 53 54 55 56 53 61 58 53 55 53 57 60 63 65 57 47 48 48 34 9 53 139 177 191 194 192 186 177 163 155 145 129 116 118 145 149 115 110 94 73 72 83 103 110 114 112 117 131 133 135 156 190 205 206 206 204 201 191 176 156 135 123 117 115 116 118 120 115 111 103 104 110 117 110 113 115 109 105 105 95 89 78 80 95 102 102 100 95 90 86 68 56 49 48 45 51 52 51 54 50 47 50 49 53 61 60 50 49 50 46 33 6 80 151 183 192 195 194 185 174 152 133 112 99 115 151 192 182 132 107 80 61 53 58 95 102 107 112 112 121 130 133 152 188 206 207 208 206 203 194 170 148 131 119 108 115 111 119 111 108 105 108 116 119 117 105 99 94 88 93 91 92 88 81 71 72 92 100 95 95 92 91 76 60 54 47 40 40 48 47 50 48 48 45 45 48 52 57 49 43 56 40 33 11 110 162 189 196 199 200 189 179 154 129 113 110 141 182 210 184 129 86 60 56 54 51 106 115 108 107 118 123 132 140 161 189 207 207 206 206 202 194 165 144 124 111 108 106 115 111 111 110 111 113 111 115 111 94 86 74 57 65 67 76 68 63 72 66 71 93 97 92 98 88 81 72 62 48 33 35 38 44 50 42 52 52 47 45 47 57 53 41 53 44 20 37 130 175 193 198 200 199 192 185 163 146 127 130 156 189 202 184 128 78 67 53 63 71 109 120 117 106 113 133 148 162 173 194 206 206 206 208 199 190 161 141 127 111 104 111 119 118 116 113 111 107 117 144 128 98 81 63 52 50 51 78 80 58 56 62 67 77 96 96 94 94 93 76 68 58 37 29 35 39 44 48 45 52 49 55 43 53 47 47 47 44 18 58 146 181 198 200 202 202 199 193 175 163 129 135 156 176 193 190 144 91 81 76 73 97 119 126 123 124 127 142 163 181 189 197 205 206 208 203 198 186 159 141 128 117 108 121 127 129 115 107 105 117 144 167 139 91 62 61 51 51 42 76 104 83 59 45 61 67 89 95 92 92 93 86 73 63 40 30 30 42 42 42 47 47 55 52 51 56 44 49 51 45 16 85 158 188 199 205 203 203 201 199 191 183 156 147 157 164 170 176 163 136 129 128 125 132 133 145 137 151 158 162 173 190 194 204 205 207 205 205 193 178 159 146 135 128 117 129 136 133 126 114 114 131 156 177 156 81 53 59 54 54 50 83 108 103 70 55 44 58 81 85 95 91 97 88 77 70 42 31 28 43 36 40 45 49 52 47 52 47 50 43 51 33 27 104 164 194 204 205 205 204 204 202 199 194 182 171 170 167 159 145 148 139 128 134 127 124 128 135 138 150 157 169 183 192 202 203 205 206 208 202 190 173 153 143 143 138 133 133 143 149 151 149 136 135 148 161 159 108 70 65 64 54 68 93 108 103 72 64 53 63 68 87 94 97 99 91 87 69 47 31 29 41 39 34 41 44 46 47 50 51 49 46 51 32 30 118 175 198 203 206 205 205 203 202 202 198 190 186 178 174 166 151 143 135 128 125 125 122 127 135 143 155 167 183 193 198 201 205 207 208 205 203 186 169 150 146 149 146 144 141 146 147 150 148 140 138 135 144 143 127 101 95 84 82 88 100 99 91 71 59 65 69 79 80 94 96 105 96 90 73 50 29 33 35 40 34 35 47 48 42 50 51 47 51 51 25 38 127 179 200 204 207 205 205 203 202 202 199 193 187 179 172 164 156 143 136 129 125 134 133 139 150 156 174 185 196 201 202 203 206 208 207 206 201 183 160 151 149 152 151 153 151 146 150 149 144 139 138 132 128 124 125 110 109 109 106 97 99 92 78 68 65 72 77 87 86 91 100 107 100 90 76 55 29 30 35 40 38 31 46 47 46 46 48 47 47 51 27 40 129 182 202 204 205 206 204 206 204 204 202 198 193 184 182 174 168 161 153 152 155 155 163 161 168 183 191 199 202 201 202 204 206 208 208 207 198 179 160 150 150 153 155 156 158 155 157 158 153 140 138 134 131 125 122 115 114 108 110 104 102 99 91 88 86 89 93 93 93 96 105 112 108 95 78 55 34 30 38 39 41 26 48 54 44 43 55 44 49 48 28 30 135 184 200 204 203 206 206 206 206 204 205 201 200 197 195 193 190 186 180 176 175 171 175 175 191 198 202 202 203 202 203 207 208 208 207 204 196 173 159 149 147 155 156 159 162 164 167 167 163 150 139 137 128 133 125 122 120 116 118 114 111 108 108 102 106 104 98 101 98 106 110 114 113 102 84 57 36 30 35 39 39 35 39 50 38 42 49 48 49 48 26 31 130 184 202 205 204 206 205 206 205 206 205 205 205 201 201 200 198 198 192 188 188 185 187 195 200 202 205 204 204 203 203 205 207 209 206 204 190 170 154 149 149 150 158 160 163 171 176 177 172 161 147 142 135 133 126 125 127 121 121 121 119 115 118 113 113 111 108 106 110 109 117 120 119 110 84 61 39 30 34 38 40 37 41 42 38 40 46 51 46 50 28 18 130 186 201 205 204 205 204 206 206 205 208 206 205 205 203 204 203 202 201 200 199 198 203 202 203 205 206 205 203 203 204 205 207 208 208 200 188 171 155 149 146 153 154 158 162 170 180 181 179 173 161 153 147 141 138 131 130 126 123 121 126 120 123 125 122 124 121 116 118 120 121 128 122 117 91 61 46 26 37 39 43 38 39 42 38 37 47 50 50 50 27 17 129 182 201 205 203 205 205 207 207 206 206 207 208 207 207 206 205 205 206 205 202 206 204 205 205 207 204 204 204 203 205 205 206 207 204 201 183 170 154 146 148 149 154 157 164 171 179 188 185 185 178 170 163 157 154 152 144 144 136 136 134 139 136 140 138 138 138 133 126 127 127 131 129 117 98 58 45 39 40 40 40 41 38 41 42 34 51 51 50 44 37 16 118 181 201 201 206 204 208 205 206 207 207 207 207 208 208 207 205 204 207 206 205 206 204 205 205 204 205 203 203 204 206 207 207 205 204 195 184 167 159 146 149 148 149 156 164 168 180 186 185 192 189 182 180 173 170 164 163 160 156 153 151 155 154 156 158 153 152 144 140 135 129 136 127 120 100 68 39 41 37 42 39 38 39 39 44 36 49 50 50 46 30 11 104 180 199 203 204 204 205 206 207 205 207 206 206 208 208 207 204 208 205 206 206 206 205 204 204 204 206 203 204 206 207 207 206 208 201 196 183 167 160 148 150 145 148 153 160 170 179 183 185 191 191 191 188 189 182 182 180 178 174 173 171 173 170 172 171 168 161 153 150 141 133 136 131 120 104 72 44 37 41 41 38 28 39 36 46 41 49 50 50 44 34 12 90 178 198 203 205 205 205 207 206 208 207 208 207 206 208 205 207 206 206 204 205 203 204 205 205 205 203 203 205 207 209 207 208 204 203 195 186 176 164 149 152 145 144 150 157 167 179 183 184 187 189 191 190 193 189 188 190 188 185 185 186 182 185 182 177 177 169 158 154 146 141 138 136 121 110 70 45 36 37 38 38 30 32 34 43 39 49 47 48 46 38 12 76 174 197 202 204 204 205 206 207 207 206 208 207 208 206 207 206 205 205 202 202 201 204 203 204 202 204 203 205 208 209 207 207 205 202 195 192 177 166 153 150 142 140 140 151 164 176 183 185 186 189 190 191 194 191 192 192 192 191 192 188 188 186 185 182 175 173 165 157 152 146 141 135 124 110 73 41 32 42 39 38 30 29 33 40 37 51 49 47 46 41 9 63 167 197 201 203 205 206 204 207 206 207 208 207 207 208 206 206 203 202 199 201 200 202 201 202 203 204 205 207 208 208 207 207 204 200 198 187 178 162 153 142 146 139 137 141 158 175 181 184 188 189 191 192 194 193 195 194 193 193 194 192 189 187 186 184 178 173 163 161 155 149 144 136 125 106 71 40 27 38 44 36 32 34 29 41 33 52 47 48 45 45 11 48 159 195 199 202 203 204 205 206 207 207 207 207 206 207 206 207 202 198 190 196 197 199 197 198 204 202 206 208 209 207 208 205 203 199 195 187 176 159 147 145 145 145 136 135 150 168 180 183 185 188 191 192 193 194 194 194 193 193 193 192 189 187 189 185 178 171 162 160 157 153 144 135 124 106 61 36 29 35 42 37 31 35 31 33 38 48 43 54 46 37 20 35 149 189 200 200 205 203 205 207 205 206 207 206 207 207 205 206 203 194 189 191 193 191 190 197 202 203 203 206 207 207 204 204 203 195 191 182 165 149 143 143 148 156 144 131 139 163 175 181 183 186 188 192 193 194 197 193 194 192 192 191 191 187 186 181 175 170 166 156 156 152 145 136 121 91 57 36 29 41 40 36 32 38 31 28 32 45 46 50 49 39 26 21 139 187 195 202 200 202 204 207 205 206 207 207 207 206 206 205 202 198 191 188 189 186 186 200 204 201 201 202 206 204 202 200 196 191 177 166 149 138 141 140 149 153 151 132 134 155 170 178 180 187 186 191 190 194 193 194 192 194 192 193 188 185 182 180 171 168 161 158 155 151 143 135 119 83 44 33 33 40 41 32 40 34 37 24 29 41 47 44 48 41 31 19 131 182 194 198 201 202 203 207 204 207 206 207 204 205 204 203 202 197 190 187 187 180 189 200 201 201 193 196 198 202 194 192 188 177 159 140 140 136 135 141 147 149 150 129 132 149 167 174 179 185 185 187 189 191 189 195 193 193 192 191 186 182 180 176 168 164 161 156 153 149 141 127 109 72 44 36 31 43 37 34 41 36 36 26 27 47 44 50 46 40 32 7 110 180 192 197 199 202 204 204 205 206 205 205 204 204 202 202 199 194 189 181 181 185 191 200 200 195 179 180 194 195 189 179 173 157 146 129 126 132 138 141 144 147 144 125 127 147 159 167 175 180 181 184 186 188 191 192 190 192 191 187 185 177 175 173 166 158 161 151 153 145 138 121 93 67 47 35 36 38 37 33 34 41 34 29 26 39 47 48 44 42 35 1 97 175 192 195 198 201 203 205 204 205 203 205 205 202 202 199 196 190 184 181 184 190 197 203 201 186 155 137 182 183 176 164 154 142 132 114 101 108 131 139 142 139 136 127 128 145 154 163 169 178 177 181 185 185 190 190 190 186 186 183 179 177 172 171 163 161 154 154 145 144 127 112 88 63 48 35 37 36 38 35 29 41 36 32 28 43 48 49 42 41 36 4 87 169 192 195 197 201 201 204 204 204 204 203 201 203 200 196 193 189 180 183 190 196 202 204 203 197 168 136 163 176 167 150 139 134 115 96 83 76 112 131 134 130 131 128 133 149 154 161 163 170 173 178 182 184 187 187 186 184 179 180 175 173 169 168 162 156 151 148 143 138 121 109 88 64 46 34 36 39 34 33 28 38 35 34 28 45 47 50 43 38 40 7 82 164 188 196 195 197 202 202 202 205 203 202 202 202 197 192 188 187 182 190 195 202 204 205 205 204 191 167 165 177 168 149 137 126 112 104 90 83 96 121 125 128 128 134 139 149 155 157 162 164 169 176 180 182 183 183 183 181 180 177 176 171 167 165 160 152 148 144 138 128 122 107 84 65 38 35 44 35 34 34 34 34 41 31 29 52 42 53 41 39 43 5 82 157 188 192 196 196 200 202 201 202 203 201 201 198 194 188 188 185 189 196 201 202 204 204 205 204 199 186 180 181 169 151 138 123 119 112 111 102 100 107 123 127 137 138 145 151 157 157 160 158 163 168 174 181 177 182 178 178 178 172 170 170 163 162 156 152 142 140 134 126 119 106 78 55 43 38 40 37 35 29 40 35 44 31 31 49 46 50 39 41 38 12 72 158 183 191 195 196 200 201 201 202 201 200 198 195 191 186 187 191 198 201 201 204 204 205 205 205 201 197 193 184 170 148 133 130 121 122 121 111 117 118 126 132 139 143 146 153 153 160 160 160 161 164 172 171 174 176 174 172 173 170 168 166 163 156 155 147 140 137 132 127 114 96 74 53 46 33 38 33 28 37 43 41 39 34 34 51 49 47 40 39 39 15 60 157 185 191 195 195 198 199 202 201 201 200 197 193 191 190 192 196 200 202 204 203 206 204 204 206 203 201 198 190 168 144 134 136 134 131 130 128 128 131 137 137 141 146 151 153 153 161 162 161 160 160 166 169 169 172 174 170 168 169 167 163 159 153 148 145 138 133 131 123 110 94 66 51 41 38 35 22 26 41 43 40 35 39 39 51 50 46 44 37 37 17 55 155 186 191 194 194 197 199 201 200 201 198 194 194 190 195 195 199 202 203 204 206 204 204 205 205 205 201 202 191 168 147 140 146 147 142 143 139 142 139 145 143 142 150 149 152 154 163 165 165 165 163 159 166 163 168 171 164 164 162 161 160 151 151 144 139 135 130 130 118 107 90 65 48 36 41 32 20 29 43 40 37 37 37 37 61 50 50 44 38 38 23 47 153 186 194 194 194 200 198 201 201 200 198 195 193 192 196 200 202 205 203 204 205 206 204 204 207 203 203 202 195 174 157 148 159 155 148 149 145 148 151 149 148 144 148 150 150 151 158 165 167 169 163 164 163 161 166 167 164 160 162 158 154 146 141 139 135 135 132 122 115 104 87 67 45 39 38 31 21 26 43 37 34 41 31 33 56 57 47 45 42 35 21 44 146 184 195 196 194 199 201 199 200 198 200 194 193 195 199 201 205 206 204 205 205 206 203 205 203 204 202 202 198 183 169 166 167 165 153 149 147 148 152 149 151 143 148 149 148 150 154 163 165 168 166 165 168 162 165 162 161 161 158 154 149 146 137 138 132 134 128 120 112 98 85 63 49 38 34 24 25 31 36 38 35 41 33 33 60 58 50 43 44 32 24 28 142 181 195 195 195 198 199 199 200 199 200 194 195 198 200 202 203 205 206 205 204 204 203 202 200 196 195 194 193 186 184 181 175 168 157 150 143 148 149 151 150 150 148 150 151 152 155 160 165 167 164 164 170 166 163 160 156 156 153 151 147 145 136 137 135 132 125 122 110 98 86 63 48 34 30 25 21 35 33 38 36 38 30 40 57 64 50 48 37 38 23 23 131 178 193 194 196 196 201 199 200 200 199 196 198 201 200 201 202 204 204 200 198 197 190 186 182 177 172 171 176 181 181 175 167 151 140 139 137 143 147 147 152 152 151 151 154 150 154 158 163 162 164 161 166 165 164 157 151 154 148 150 149 144 139 135 133 134 126 122 107 94 84 63 45 33 27 21 22 37 29 34 36 37 32 38 60 60 49 45 36 39 28 19 120 177 193 193 196 196 200 199 201 202 200 198 198 200 200 198 196 196 191 183 169 163 162 157 156 157 145 148 143 149 148 142 133 126 118 121 123 129 129 139 142 145 150 148 150 150 152 155 160 158 165 158 164 165 159 154 150 150 148 147 146 143 136 132 135 127 125 116 111 93 80 64 47 26 26 17 25 37 32 30 39 35 39 39 62 62 46 38 38 37 34 15 102 173 189 195 195 197 201 200 202 203 202 199 200 199 195 187 173 165 157 144 138 131 134 136 136 135 134 130 128 126 120 119 114 114 110 111 112 114 114 115 125 133 134 143 142 148 145 149 157 159 158 160 159 155 152 145 149 148 147 146 144 141 135 134 134 127 122 115 107 95 81 61 40 31 21 22 27 34 33 28 43 40 40 42 64 56 45 34 36 35 38 13 83 168 189 193 195 198 199 201 203 203 202 201 199 194 187 170 137 121 111 107 101 121 118 132 137 132 141 144 138 130 114 116 113 119 113 109 108 107 102 100 108 109 115 121 132 138 138 142 150 154 159 160 158 155 147 146 144 148 146 144 142 138 135 131 131 128 121 114 108 95 76 58 43 21 19 30 28 31 39 32 33 43 46 44 63 55 42 34 34 34 36 19 57 157 187 193 195 197 198 202 203 203 203 201 200 191 185 170 135 99 78 62 72 131 139 165 175 165 179 184 181 165 139 145 146 153 142 116 119 114 108 102 101 95 98 102 104 120 122 131 141 152 157 161 158 157 151 143 150 148 147 142 139 140 137 133 132 128 120 115 106 96 81 50 35 25 22 25 29 35 38 36 29 43 51 45 62 53 41 30 36 34 41 26 31 141 183 193 195 198 198 201 203 203 203 201 198 193 190 191 174 134 109 79 70 126 151 173 187 186 198 199 199 186 170 175 177 177 172 141 140 138 130 111 111 96 93 86 88 88 93 108 128 149 156 163 159 159 155 148 149 152 145 142 138 138 137 135 132 128 122 111 105 99 75 47 28 24 24 28 37 29 41 36 31 30 58 46 61 53 34 30 34 32 33 30 14 116 178 190 195 198 196 202 201 204 204 201 197 194 195 200 200 174 153 132 108 116 135 160 178 187 196 200 197 186 174 179 183 183 178 153 148 154 142 118 124 113 93 86 71 57 54 82 116 142 155 159 159 157 156 149 152 148 145 141 135 139 133 135 132 125 123 105 105 94 70 40 27 24 27 34 33 35 32 39 28 34 52 46 53 51 30 37 28 30 31 37 12 82 167 189 196 195 200 199 200 203 203 202 197 198 201 202 202 195 180 176 165 148 138 156 163 174 187 191 189 180 166 171 177 171 169 146 138 144 134 107 112 106 83 69 63 47 55 78 120 137 154 159 155 158 157 153 151 151 143 141 138 136 131 132 133 125 116 109 101 86 64 37 28 24 32 31 33 31 30 39 29 33 47 46 58 38 38 33 28 32 30 39 18 41 140 184 191 195 197 197 199 202 200 201 198 201 202 203 204 200 190 183 186 180 171 161 160 160 159 162 160 154 141 141 150 140 139 125 114 112 119 100 89 95 79 70 76 86 100 116 131 144 148 156 158 157 161 153 153 149 142 143 138 136 131 129 132 121 112 108 96 77 53 34 25 30 34 32 26 30 26 32 33 31 50 50 51 36 37 33 30 33 31 33 31 17 105 173 189 194 196 196 198 200 200 197 200 200 203 203 204 202 193 185 187 189 185 183 180 174 163 165 156 154 144 141 149 136 133 131 119 119 116 114 99 102 101 98 100 115 129 139 145 149 155 156 160 163 154 156 148 146 142 140 137 133 131 130 127 121 112 103 90 66 45 28 30 35 32 27 25 25 29 32 32 31 54 54 46 37 39 34 31 29 36 36 34 9 61 155 183 191 194 194 195 199 198 199 200 200 203 203 203 203 195 189 186 190 187 188 189 186 178 177 166 165 165 161 162 156 148 141 137 135 131 124 115 113 111 112 118 130 144 150 151 149 154 156 157 160 154 153 147 147 139 137 134 134 132 127 124 117 109 98 81 57 36 30 34 33 28 20 31 24 28 31 33 34 50 61 48 36 46 28 32 32 33 33 36 22 12 121 173 187 193 191 195 196 198 197 198 201 202 201 203 199 197 190 187 182 184 180 177 178 170 169 164 162 163 164 164 159 153 141 143 132 133 125 121 118 117 125 130 142 151 154 153 151 152 155 154 156 151 150 144 144 137 135 133 131 127 125 121 113 103 91 69 43 29 31 39 33 18 27 27 29 31 34 33 33 50 63 45 47 41 32 32 31 35 30 42 29 7 66 158 183 190 191 195 196 198 196 197 200 201 201 201 201 195 188 184 178 172 165 159 158 151 153 148 144 149 148 149 143 140 135 128 127 122 125 122 124 124 129 141 147 152 157 151 152 152 151 148 148 150 144 141 139 136 132 127 125 123 121 120 107 99 72 55 35 31 33 39 27 20 27 30 34 31 38 36 33 51 56 47 48 39 36 30 31 35 34 41 36 18 23 119 175 186 190 193 196 198 197 199 197 198 200 199 200 194 192 184 180 167 156 152 146 143 143 139 140 138 139 133 132 129 124 119 119 120 126 125 128 127 136 143 149 153 153 149 150 148 147 146 144 144 141 136 135 132 129 128 124 123 119 114 104 88 64 40 35 33 30 33 33 19 27 33 32 35 39 35 33 51 57 45 47 36 32 30 30 34 34 44 37 28 7 66 161 180 189 192 196 196 198 198 200 197 200 199 198 197 192 190 179 168 156 145 141 136 136 136 131 130 128 124 117 117 115 115 118 123 127 125 132 133 139 143 148 148 149 140 141 141 146 144 141 140 139 132 135 130 128 125 124 122 115 108 94 76 50 32 38 32 25 29 35 24 27 33 33 35 43 36 32 54 58 46 40 39 25 32 33 36 33 42 37 30 20 11 115 172 185 190 194 195 199 199 198 200 199 200 200 199 197 191 188 172 161 150 140 133 131 129 127 121 118 118 115 119 119 121 125 127 132 133 133 136 139 144 146 147 143 136 134 142 141 141 136 136 134 132 129 130 127 124 121 120 108 101 74 62 35 35 38 30 21 24 37 30 27 36 35 43 36 36 44 48 59 49 39 37 26 31 37 33 38 39 37 29 28 10 48 138 178 185 193 193 198 198 201 200 202 201 201 199 198 196 192 179 169 159 148 143 140 135 136 130 128 128 126 127 129 129 131 130 133 133 134 138 140 144 148 146 143 141 135 142 140 137 137 134 131 129 131 130 127 124 119 113 99 86 65 43 35 37 32 30 20 26 29 38 34 40 39 38 37 34 45 51 55 49 46 30 32 25 34 36 36 45 35 29 28 20 7 76 160 175 188 191 195 198 200 202 202 203 203 201 199 200 196 189 179 175 163 156 152 146 144 139 137 138 135 134 138 133 134 135 134 138 138 139 142 144 146 148 142 144 141 137 138 133 135 131 132 128 129 127 125 120 113 102 90 68 50 34 41 38 29 26 22 25 26 37 44 41 38 34 43 32 46 56 48 50 51 34 29 28 31 39 38 42 38 29 23 25 18 12 112 164 177 187 191 197 201 202 202 205 203 205 201 202 200 195 192 190 180 177 169 161 156 149 147 141 144 141 145 142 141 144 141 146 141 146 147 146 149 148 144 146 141 136 132 134 130 130 130 129 128 122 119 115 104 93 70 51 42 32 42 38 28 24 24 26 30 34 46 40 35 32 44 37 42 52 44 42 59 41 36 25 32 37 40 47 36 29 26 27 23 15 27 122 164 178 185 193 199 203 203 204 204 206 204 203 203 201 200 199 197 194 191 182 179 166 162 158 153 152 153 155 151 149 152 152 153 150 155 153 152 152 148 142 142 134 134 133 131 130 127 126 123 119 112 104 90 73 56 49 38 38 46 35 28 27 23 26 33 38 38 41 38 36 38 44 43 43 40 44 48 48 39 30 26 37 47 46 35 32 26 25 26 22 8 53 138 162 176 188 197 201 204 204 205 205 205 204 205 203 204 202 201 201 200 198 194 188 181 176 169 168 166 165 162 160 160 164 158 159 162 157 157 151 148 139 141 131 131 131 129 126 125 121 116 111 104 88 74 53 51 48 43 42 44 35 27 27 25 31 33 35 37 38 41 35 36 38 42 44 40 44 39 49 40 29 29 38 49 47 37 31 28 25 28 22 16 22 103 141 161 175 190 200 201 204 205 206 204 207 205 206 204 204 202 201 201 201 198 195 194 191 186 185 182 180 178 176 173 172 170 167 164 162 158 151 146 142 138 135 131 128 125 123 118 117 109 100 89 69 64 48 51 49 41 44 47 32 27 26 32 33 31 34 41 37 37 36 33 36 41 42 40 47 34 44 47 28 28 42 43 51 31 28 32 23 27 26 11 24 89 115 141 159 181 194 201 202 205 205 207 204 206 205 204 202 199 201 198 198 197 196 198 195 189 191 189 186 185 185 179 181 175 170 165 162 157 148 142 138 137 129 126 122 120 113 111 106 98 79 72 61 59 50 51 51 44 46 46 35 25 33 35 32 33 40 36 36 35 41 32 33 43 40 41 40 43 30 42 33 30 38 43 48 37 26 30 31 23 20 18 22 83 110 122 138 155 182 195 199 201 201 202 204 203 201 200 197 196 195 193 192 191 191 192 194 190 189 190 184 186 182 180 176 174 168 161 151 150 140 136 131 126 119 119 112 110 105 102 88 78 70 66 62 58 52 52 48 47 50 41 39 31 37 38 27 39 38 36 34 38 38 27 34 38 40 45 38 42 32 33 37 30 38 41 44 33 33 28 28 22 25 18 20 79 111 119 124 136 158 183 191 196 198 196 197 199 197 193 193 190 186 186 182 186 185 188 188 184 185 185 180 180 176 172 171 167 159 152 145 138 135 125 119 117 113 109 105 102 92 88 72 71 65 67 59 57 57 49 48 46 48 43 44 40 38 31 32 37 38 33 33 33 30 26 31 34 43 38 36 42 32 32 39 28 35 43 39 40 27 31 28 23 25 24 16 72 111 121 122 128 133 161 180 184 187 188 186 191 188 185 182 179 176 172 168 176 179 180 184 177 177 174 171 172 165 161 162 158 149 142 139 128 122 115 112 111 105 96 93 88 81 75 68 70 71 68 62 57 58 53 49 47 42 50 48 37 29 28 35 40 35 34 35 32 28 28 26 38 40 39 46 39 39 33 37 33 39 41 37 40 31 32 27 25 30 24 14 66 105 120 123 126 125 130 152 165 163 170 174 172 173 169 166 162 157 158 153 165 167 167 172 163 162 160 154 152 148 152 148 143 138 130 123 118 110 107 102 96 91 85 82 77 74 75 69 73 66 67 64 59 58 52 51 43 51 48 51 28 25 30 38 38 31 34 35 36 34 25 31 32 39 41 45 42 41 35 37 35 46 37 40 37 39 32 28 27 31 29 17 55 104 118 123 126 129 124 129 142 151 151 154 155 156 151 148 145 144 144 144 149 154 152 152 151 145 147 139 141 142 140 137 132 125 118 113 106 100 98 87 90 78 82 78 76 72 75 73 71 67 67 64 61 58 49 52 49 48 48 45 27 29 30 40 35 31 36 40 44 34 31 32 36 32 43 49 49 38 39 33 40 41 43 39 40 37 33 32 27 37 29 18 50 99 117 124 127 128 127 124 125 139 139 142 138 137 135 133 134 128 130 131 135 137 139 135 135 130 132 130 128 125 129 122 120 113 108 105 94 91 89 82 88 78 81 78 76 76 74 72 72 67 66 64 59 54 56 51 48 45 40 38 37 23 33 41 33 38 44 45 40 39 35 30 32 35 40 53 47 43 44 34 43 38 47 42 37 37 33 35 30 35 32 13 44 93 114 121 127 125 130 124 125 124 126 127 129 123 123 122 123 119 121 117 120 122 125 123 121 121 121 117 118 113 116 109 103 102 96 92 88 86 85 83 88 79 85 78 79 75 77 73 72 67 68 64 56 59 54 51 50 45 34 32 35 36 27 43 40 47 58 40 40 43 39 29 32 38 46 47 46 48 41 40 40 43 43 39 41 37 38 40 32 36 28 16 35 89 108 122 124 128 127 129 126 130 128 123 125 125 125 121 121 119 117 114 112 111 115 113 112 109 109 109 104 108 102 99 93 94 90 88 91 88 91 88 87 85 85 78 76 77 76 74 69 73 71 60 56 57 54 55 45 47 33 33 36 33 40 41 49 44 51 54 39 42 45 29 34 44 45 48 46 44 43 42 41 48 44 42 43 38 38 39 37 32 34 20 25 83 108 120 125 125 129 129 128 125 127 128 128 126 129 128 128 129 119 120 116 110 111 106 108 103 103 102 97 102 93 96 94 95 91 94 93 95 95 93 89 87 86 80 82 78 77 74 73 70 69 63 54 58 59 53 45 45 35 34 33 41 37 37 40 40 46 50 44 47 50 30 40 49 41 52 46 48 44 46 42 49 45 45 46 38 41 36 39 35 35 19 25 79 102 115 123 125 128 127 131 125 127 128 133 126 127 130 133 133 131 125 121 120 114 111 106 106 103 98 100 99 95 98 102 97 98 98 97 97 96 95 89 88 87 85 78 81 77 73 76 71 70 63 57 64 55 54 45 44 36 34 38 33 38 33 34 40 46 47 46 46 55 34 43 51 48 