P2
92
112
255
117 115 115 114 117 113 114 112 111 116 84 91 88 82 78 69 69 69 62 65 74 75 56 57 55 57 66 68 71 58 75 72 60 56 66 63 71 73 71 64 55 52 66 60 58 59 66 55 53 53 53 51 53 55 49 61 55 58 71 89 102 101 109 101 108 100 96 90 88 90 104 108 110 113 110 113 111 113 113 112 113 109 110 111 110 112 110 112 107 111 112 109 114 115 114 113 114 115 115 108 108 113 105 84 79 80 84 67 62 74 70 41 48 66 66 58 64 52 59 70 71 57 58 62 64 59 59 64 66 69 67 57 54 62 74 66 66 64 57 55 62 65 58 68 70 66 66 61 61 64 56 57 67 85 86 97 99 105 101 103 91 83 98 92 101 107 112 111 112 110 114 109 111 112 110 110 111 111 109 112 108 111 110 110 117 111 115 114 114 113 109 111 106 109 106 85 82 78 69 58 51 60 73 51 34 55 67 54 63 58 55 54 63 68 51 52 56 55 64 63 60 51 55 60 48 53 59 63 57 57 66 74 68 70 69 71 73 65 67 64 61 61 62 65 62 56 51 52 61 83 98 102 107 105 83 87 100 92 103 111 109 109 111 111 114 111 110 112 111 110 107 113 110 111 112 110 116 115 113 115 114 115 109 109 104 99 90 91 80 76 52 55 55 47 65 57 52 70 74 55 51 60 50 50 54 58 54 48 54 54 64 65 62 53 41 40 44 41 48 43 47 47 57 59 60 66 68 65 64 56 54 58 57 55 58 63 54 54 51 42 47 56 53 73 96 106 103 91 90 98 86 101 111 107 112 109 113 113 113 109 111 109 109 113 109 112 110 111 113 115 116 113 113 111 107 104 96 98 87 82 66 54 57 45 60 52 49 64 56 57 55 50 47 48 49 43 44 47 48 46 52 51 60 61 52 54 42 35 38 35 44 35 36 36 42 40 45 56 62 60 67 65 60 63 61 58 64 62 58 53 50 39 36 35 43 51 54 76 102 100 92 87 91 88 101 108 111 107 110 112 110 112 111 111 111 111 109 110 112 112 113 114 115 113 106 112 108 100 99 93 72 51 55 42 49 58 49 66 52 51 54 48 42 46 47 39 47 41 45 39 40 43 49 50 45 54 48 47 46 37 33 31 39 33 31 32 32 31 33 35 39 46 49 53 55 54 59 53 59 56 50 48 49 42 36 33 33 36 45 48 61 74 94 85 88 84 89 101 109 111 104 111 111 111 110 111 110 110 112 109 111 109 117 112 111 112 110 108 105 93 86 72 54 46 60 61 55 59 51 56 58 52 52 52 40 45 51 41 39 41 43 46 41 44 42 47 45 41 44 42 43 42 40 30 34 33 30 29 32 27 25 27 30 33 32 35 40 39 43 42 44 39 40 37 39 33 29 30 34 34 33 36 36 37 50 61 81 82 81 91 101 111 108 109 108 109 108 110 113 108 111 110 109 109 113 115 105 108 104 104 98 83 62 52 51 67 68 65 55 55 52 48 47 51 53 54 48 46 47 42 43 41 39 41 43 39 40 46 43 45 37 36 42 41 38 41 38 35 34 33 39 31 29 31 30 31 32 29 36 35 39 37 40 38 37 42 36 39 31 32 27 30 30 32 36 30 36 31 43 55 67 77 94 98 108 110 109 109 112 108 112 108 110 111 107 111 114 109 109 104 109 102 85 67 52 49 58 66 53 49 50 50 44 53 49 52 54 58 56 47 46 36 36 39 37 40 35 46 40 40 41 47 48 41 37 42 42 46 45 36 44 45 54 40 38 34 42 47 41 34 34 39 38 36 37 40 36 38 42 43 45 43 35 33 32 30 33 32 31 33 35 40 44 57 68 83 103 109 111 108 112 107 114 108 110 110 110 108 110 107 108 100 109 92 67 68 62 54 66 58 59 53 54 61 58 63 60 57 55 54 56 54 51 46 38 38 38 42 38 41 40 48 44 43 41 46 41 39 46 48 44 44 48 54 61 58 48 45 49 64 62 57 51 42 37 38 40 42 49 44 47 43 42 44 41 37 41 36 40 38 35 33 28 39 37 39 43 57 83 105 110 105 111 106 110 110 111 109 110 111 112 104 110 108 99 78 64 64 60 60 62 63 71 67 69 71 72 69 61 58 56 54 54 50 57 52 53 57 55 50 48 45 44 42 54 53 52 49 50 45 49 48 52 51 49 54 68 78 65 52 51 63 77 62 55 58 48 46 39 41 45 48 51 47 48 47 42 43 47 41 37 39 37 39 37 36 34 37 33 42 51 74 104 103 105 105 109 114 110 110 110 111 109 106 104 100 83 75 57 57 50 44 46 42 57 58 67 69 74 66 65 61 61 63 61 58 53 56 50 56 52 58 55 56 54 50 48 55 57 56 54 60 57 60 58 68 62 55 65 91 72 66 63 58 69 77 77 60 57 61 49 46 40 40 41 50 47 49 50 52 49 46 53 60 46 44 44 39 38 42 47 45 44 46 64 102 101 103 107 109 113 109 111 112 111 99 83 77 82 83 53 46 42 41 42 54 60 65 61 68 66 69 65 72 69 70 67 57 57 58 60 52 60 58 63 65 63 62 62 61 63 67 68 66 72 72 73 75 85 88 72 80 86 79 70 57 65 70 80 92 70 58 61 54 33 46 43 48 46 46 48 53 50 52 57 55 47 47 44 54 48 51 52 49 48 46 57 59 80 106 103 108 108 105 111 108 96 85 85 86 95 83 55 37 38 39 51 61 75 73 83 86 80 78 76 77 63 60 58 56 59 58 55 63 57 68 67 73 77 83 82 84 84 87 88 92 90 88 97 98 104 103 99 92 93 96 77 76 70 65 70 79 96 80 64 58 55 42 48 41 39 48 46 44 53 47 49 50 50 43 39 41 36 35 48 57 53 52 53 65 64 68 105 104 103 106 109 109 90 91 86 92 100 77 52 42 57 66 78 81 85 91 89 92 91 80 73 64 55 51 56 53 55 57 60 68 71 81 82 86 95 99 107 114 113 117 112 121 124 122 121 124 128 124 133 127 110 117 108 94 73 59 56 60 81 90 82 70 54 50 53 55 45 43 49 41 44 48 47 51 48 50 52 42 35 32 31 30 44 47 46 44 64 75 57 98 110 101 104 111 94 96 98 96 91 65 52 57 63 71 71 76 83 87 90 83 79 66 57 57 56 60 61 66 70 73 79 86 94 97 102 107 120 128 136 143 148 152 147 149 151 147 152 151 156 150 145 150 141 129 126 119 100 75 68 54 53 68 79 77 72 57 50 60 55 44 44 41 43 43 47 48 48 49 56 52 47 42 40 28 29 37 40 41 36 63 73 56 80 108 102 105 98 94 94 85 75 59 57 62 63 70 76 75 77 78 81 77 59 60 61 55 55 63 75 75 79 88 93 100 109 115 125 132 143 152 156 153 160 169 172 177 175 171 174 171 178 179 169 170 168 157 149 141 127 105 84 65 54 46 66 71 73 70 67 54 53 50 50 47 43 39 44 51 43 42 48 57 54 48 47 53 41 36 30 34 47 37 52 69 57 56 104 106 95 90 85 74 65 54 58 58 69 71 75 80 78 74 71 67 60 61 55 50 57 69 83 84 93 97 111 119 127 137 147 163 171 177 180 177 181 181 183 186 187 183 189 185 185 189 184 185 181 178 175 163 153 136 116 91 70 61 50 65 65 67 68 73 66 46 53 49 57 40 42 47 53 46 35 37 46 59 54 48 52 53 44 39 43 38 39 53 51 45 49 98 98 81 76 64 52 56 57 62 65 64 67 72 70 69 71 63 56 50 52 48 63 80 99 99 104 119 125 136 136 146 160 171 173 181 182 186 190 190 193 193 193 192 191 192 189 191 188 192 189 187 185 183 167 159 149 127 105 83 68 66 64 66 56 66 68 66 57 58 50 58 50 45 49 48 55 43 35 48 49 53 50 52 53 54 51 40 44 44 57 53 49 40 79 75 69 61 57 60 52 57 59 66 67 73 69 66 63 54 48 48 50 58 73 94 107 117 126 135 146 156 160 167 176 180 186 187 190 192 193 194 196 199 198 196 196 194 195 194 193 192 196 191 187 190 181 171 166 162 139 120 85 80 72 66 61 57 59 69 61 65 61 62 58 62 57 48 49 58 50 43 46 47 52 49 45 45 59 54 47 41 38 56 81 47 72 68 55 59 58 58 57 57 65 65 68 71 64 59 56 51 48 54 59 66 85 103 118 124 139 147 158 169 176 181 187 190 192 192 196 196 196 199 200 200 198 200 198 198 195 197 195 194 194 195 195 191 188 181 175 176 166 155 123 99 86 72 75 58 62 58 64 63 63 63 63 61 67 65 57 54 60 54 52 46 45 48 50 48 46 52 57 54 44 34 69 65 69 62 57 55 63 59 59 60 62 72 65 63 59 53 45 51 47 61 66 78 99 116 130 139 152 165 176 183 185 190 193 195 196 197 199 200 193 196 202 202 203 202 201 202 199 199 198 199 196 197 196 196 189 185 182 185 180 175 158 137 108 90 77 74 64 63 58 62 58 62 62 60 54 64 55 62 56 63 57 49 53 43 41 49 49 46 48 61 56 44 47 51 61 55 63 61 59 55 60 63 71 67 64 58 54 51 47 51 56 62 76 92 110 123 140 155 172 182 188 192 193 194 197 197 199 201 201 201 197 199 202 204 202 204 202 200 202 201 200 199 197 198 197 195 193 188 188 188 187 182 173 165 144 113 94 82 79 66 63 52 62 57 55 53 55 55 54 55 51 54 57 51 54 47 41 40 43 49 50 47 59 57 50 49 57 59 59 59 64 57 58 59 62 56 54 49 48 52 49 50 60 76 83 109 126 138 162 178 188 193 195 192 192 199 199 197 196 200 199 201 203 202 202 203 205 203 203 201 202 202 200 199 201 198 199 199 194 192 187 190 189 186 183 177 168 146 121 98 88 78 68 58 52 61 56 51 54 52 45 47 46 43 48 48 44 48 47 43 42 40 44 48 47 52 61 47 56 59 59 58 60 54 56 48 56 57 59 51 48 47 50 61 70 84 101 126 139 164 181 190 191 194 198 193 196 197 200 200 194 196 201 204 202 202 202 204 201 205 203 201 203 203 200 200 200 200 198 198 197 194 190 190 190 188 188 182 181 171 148 118 101 87 77 60 54 58 61 57 51 56 44 43 43 43 33 40 40 32 44 41 42 40 44 40 43 43 47 54 64 60 60 57 51 46 43 49 56 54 55 51 52 51 65 77 84 98 128 147 165 178 188 192 195 198 197 198 199 199 199 200 198 199 200 202 204 203 203 203 202 202 204 203 202 202 202 200 202 199 199 199 197 194 192 189 192 191 189 185 183 181 166 151 126 102 83 76 48 63 61 61 56 56 59 41 40 38 41 38 35 34 34 37 46 30 28 29 34 36 36 41 61 61 52 47 40 42 42 54 61 46 54 49 55 67 81 86 95 125 150 167 177 184 190 193 198 198 200 199 199 201 201 201 202 202 203 204 204 204 206 204 202 202 203 203 203 201 200 202 201 202 201 199 200 194 197 192 191 191 191 188 187 185 180 171 153 128 101 85 61 49 67 63 60 62 53 62 43 34 39 37 37 37 28 33 37 44 30 25 25 30 32 38 53 53 49 45 39 44 45 53 56 54 45 53 63 80 91 99 115 150 166 176 183 187 192 196 199 201 200 201 200 202 202 202 201 203 203 203 204 203 205 204 203 202 202 204 202 202 202 202 201 200 201 201 200 198 198 195 191 193 192 193 191 190 186 180 172 148 127 101 72 60 48 71 62 57 59 51 58 44 37 38 34 38 38 33 34 33 40 32 27 21 24 30 49 43 48 42 47 44 53 65 54 54 48 58 73 96 100 117 140 162 173 180 188 191 193 198 199 201 201 200 200 203 201 202 203 202 202 202 202 204 204 202 202 203 202 204 203 202 202 205 201 202 202 201 200 198 200 198 194 192 191 194 196 193 184 183 178 169 144 123 90 68 52 52 77 64 56 53 60 57 52 35 31 47 39 43 36 31 39 46 37 30 28 25 51 41 46 41 39 48 56 56 60 57 57 65 89 98 109 132 146 167 174 183 187 192 194 198 199 200 202 202 200 202 202 203 201 201 205 203 201 203 203 202 202 203 203 202 204 204 202 204 202 202 203 202 200 201 199 199 199 196 191 193 194 193 189 183 181 178 166 135 118 82 66 47 55 80 67 58 52 58 66 57 33 28 45 44 43 35 29 35 39 40 31 33 52 46 42 38 44 55 54 49 50 56 63 75 97 103 118 137 152 173 175 182 189 195 195 199 202 200 203 202 202 203 202 201 202 200 203 202 203 203 203 202 202 203 203 202 203 204 203 204 203 202 203 201 201 202 201 201 199 200 197 195 194 194 191 187 188 179 178 161 135 107 92 62 42 57 85 69 63 50 56 61 60 42 25 37 39 42 33 33 25 36 42 34 62 52 40 38 55 58 50 46 49 62 66 86 98 108 122 143 162 175 180 185 193 195 199 201 201 200 202 202 202 202 202 203 200 202 202 202 202 203 203 204 203 204 203 204 203 203 203 203 203 199 203 201 201 202 202 201 202 201 199 198 194 194 196 189 186 184 180 175 159 133 107 94 69 44 61 86 71 62 55 54 56 60 48 30 27 35 39 47 32 29 29 39 63 48 48 52 67 58 49 43 48 61 74 91 99 115 135 149 168 176 185 189 196 198 201 200 201 200 201 201 203 202 202 201 202 202 204 203 202 205 202 204 204 204 204 204 204 202 204 205 203 202 202 202 201 203 202 201 202 202 201 198 199 197 196 195 190 187 186 185 176 157 130 112 101 75 42 66 85 64 59 53 51 48 61 61 44 25 33 39 49 41 32 32 68 54 59 61 71 54 46 50 55 65 79 93 112 128 148 163 174 181 188 193 197 198 201 200 202 201 202 201 202 202 203 203 201 204 205 205 201 204 204 205 204 205 205 205 204 204 203 205 204 202 203 202 200 202 203 201 203 202 201 200 199 199 197 196 194 190 188 188 185 175 154 132 117 106 81 48 64 84 64 52 55 47 45 54 66 56 31 32 37 48 45 36 61 60 68 74 61 48 44 55 56 63 82 108 130 148 162 171 178 186 190 194 196 200 201 201 201 201 204 202 202 204 203 203 204 203 203 203 204 206 205 205 205 206 203 205 204 204 204 203 203 203 202 203 201 201 202 201 203 202 201 201 200 200 199 199 195 192 190 188 189 186 172 149 130 125 112 85 56 65 83 62 39 48 52 43 47 60 63 45 36 33 42 46 64 67 71 68 57 47 48 51 55 70 92 122 150 163 174 179 185 189 193 196 196 201 202 203 202 202 202 203 201 204 202 203 202 203 204 205 203 205 208 204 205 205 203 205 203 202 204 203 203 203 203 203 202 202 201 202 202 202 202 202 201 201 200 199 197 196 191 189 189 189 184 169 146 132 127 120 88 64 70 87 66 36 37 51 52 46 46 48 55 48 39 42 67 71 69 57 57 45 57 48 57 75 112 141 159 172 176 182 187 192 195 196 199 200 202 202 202 204 202 201 195 190 190 189 194 195 198 199 201 202 205 202 203 202 204 203 203 203 202 205 204 204 204 205 204 203 201 204 203 203 202 202 202 203 200 200 199 196 191 192 189 190 186 181 167 146 131 133 120 96 78 72 83 75 31 29 38 56 56 45 47 51 55 51 66 73 57 64 56 56 40 48 62 92 135 155 170 178 181 184 187 193 198 195 200 201 202 202 201 194 189 169 155 155 156 160 169 171 167 170 174 178 179 185 192 196 195 200 202 200 203 204 206 205 205 206 205 204 204 203 204 203 202 201 200 203 202 201 201 197 192 190 190 187 189 185 178 166 146 129 133 119 105 86 68 84 73 33 27 39 44 43 53 54 55 54 66 62 64 65 69 48 45 53 76 109 141 166 173 179 181 185 189 193 197 197 198 201 195 181 151 142 145 146 140 138 144 143 135 134 126 125 125 128 135 138 143 166 169 180 189 192 199 198 198 202 203 203 204 207 203 207 205 205 202 203 201 200 202 200 200 195 197 191 189 184 187 183 181 173 157 140 130 136 121 116 89 75 75 69 38 29 39 38 35 46 47 54 69 60 71 70 58 46 39 65 88 123 153 168 179 180 184 189 190 192 194 196 185 180 170 163 160 159 160 150 140 130 123 122 115 112 110 119 119 119 126 124 116 127 148 142 155 170 182 185 189 193 195 197 201 204 202 205 204 203 202 201 201 199 197 198 197 193 193 195 186 183 181 170 169 165 147 134 129 119 137 121 115 86 68 65 66 51 40 36 34 36 43 32 61 65 73 61 55 39 49 66 104 139 160 177 181 183 186 189 189 194 192 170 162 160 163 161 163 171 170 171 168 166 154 142 123 112 108 104 105 109 114 124 111 115 121 126 123 145 168 171 177 184 189 191 198 200 200 201 200 199 199 197 197 195 192 190 188 188 183 180 169 158 139 128 114 116 121 104 100 93 92 116 121 111 76 58 51 61 59 42 42 35 40 42 57 71 70 54 45 43 44 83 115 146 162 174 184 184 187 188 192 189 177 163 171 183 184 186 187 188 188 185 176 180 177 177 167 158 145 133 125 118 115 127 118 118 117 115 118 125 151 156 167 172 178 185 195 197 197 200 198 196 194 193 192 185 182 178 169 158 144 130 119 114 103 94 93 89 96 94 91 76 69 60 83 105 103 71 47 41 51 58 37 40 40 47 69 68 66 45 41 41 49 99 125 152 167 174 183 187 187 189 188 181 167 169 184 194 191 190 187 187 190 185 175 179 172 174 176 170 170 165 157 153 142 137 138 133 124 128 126 131 142 154 159 164 170 179 192 194 193 195 192 190 189 185 178 171 167 160 142 121 101 95 89 95 94 84 80 73 81 86 98 97 85 70 66 52 94 83 59 46 38 50 54 42 40 49 74 64 54 43 35 35 63 107 135 154 170 180 184 188 186 187 185 179 179 183 189 193 192 188 184 179 180 179 171 170 162 164 161 161 159 163 160 160 155 151 149 148 145 143 143 142 142 154 160 164 168 182 191 192 194 191 187 180 180 174 156 149 147 142 122 105 93 91 94 94 101 97 100 101 107 103 105 109 106 94 89 74 48 72 61 51 53 38 47 50 50 44 73 61 50 36 33 37 73 121 144 159 172 183 186 192 190 186 180 181 183 186 189 187 184 181 173 168 169 163 157 155 148 144 142 143 147 150 152 148 150 148 148 151 154 154 152 156 148 156 164 163 169 188 192 193 195 189 186 183 177 164 144 139 137 135 129 119 117 119 128 127 132 132 140 148 146 142 144 142 136 127 115 107 72 47 73 38 32 47 52 42 44 54 69 56 50 30 26 44 90 128 151 163 172 185 189 192 192 189 184 186 185 184 185 181 175 169 165 157 147 139 132 132 137 139 140 138 139 134 133 131 136 136 140 147 148 150 152 153 153 157 160 166 175 187 192 196 197 194 188 182 173 161 144 143 139 138 139 136 138 143 139 140 141 149 146 152 149 149 151 144 141 135 130 118 97 52 66 50 20 32 54 61 37 36 61 55 47 26 30 58 100 138 156 168 176 185 190 192 192 190 188 185 186 179 180 173 169 160 151 141 131 140 153 167 180 181 183 180 171 168 152 141 130 119 125 136 145 147 149 147 151 152 156 168 182 190 194 198 200 194 191 179 166 154 146 140 140 138 139 138 137 138 141 135 140 138 142 137 139 143 139 136 134 136 128 123 115 64 60 56 24 21 30 59 53 29 47 53 44 27 37 64 111 144 159 168 179 187 191 195 195 192 190 188 185 177 174 168 162 149 139 144 159 172 184 178 181 179 176 171 142 150 138 137 136 132 112 120 130 138 144 140 142 143 155 170 184 197 196 200 201 199 190 180 160 147 138 137 136 142 142 138 136 131 125 122 129 125 126 123 120 113 115 127 128 131 130 127 121 87 61 62 21 16 27 40 58 48 42 47 42 26 44 77 117 151 163 170 181 188 194 195 196 195 192 189 185 178 170 165 156 151 161 171 175 173 174 150 126 116 122 112 94 84 90 89 95 106 123 111 116 130 139 141 136 131 144 168 191 197 200 202 201 199 194 178 154 140 132 134 136 144 136 134 124 124 134 137 139 142 141 138 133 118 101 91 116 122 123 119 117 92 69 72 14 16 26 31 48 57 46 49 28 37 50 87 129 155 169 176 184 191 196 196 197 197 194 190 185 179 170 166 163 160 160 157 151 123 104 106 130 154 177 150 71 109 63 62 45 68 90 118 114 118 132 138 139 132 135 158 190 202 203 204 203 204 192 173 148 135 130 131 135 133 129 123 130 135 146 142 132 128 122 107 103 100 100 90 80 111 118 120 113 96 77 77 23 12 27 36 26 50 47 52 29 28 59 96 134 159 173 179 186 192 196 199 200 198 196 191 188 178 172 165 163 150 126 100 93 115 132 156 180 194 203 136 70 98 88 43 37 76 100 94 125 128 128 140 142 134 133 155 188 202 204 206 203 204 195 173 141 125 131 133 130 128 131 129 131 125 126 134 97 79 57 61 50 64 58 65 70 89 118 117 118 101 88 92 25 10 33 33 23 36 53 49 24 33 60 108 142 163 177 184 188 193 198 200 200 199 199 195 190 184 176 172 157 145 121 117 124 156 171 183 187 193 201 142 82 58 68 48 51 101 129 103 106 144 152 154 153 140 147 158 187 205 204 206 206 205 193 173 138 124 140 148 139 134 132 123 126 127 163 188 127 87 128 27 36 35 62 49 43 85 106 118 115 109 95 95 42 7 30 37 27 23 56 39 21 40 72 116 143 167 179 188 188 196 197 200 201 202 202 199 195 192 184 181 166 160 147 129 129 157 172 181 190 188 199 175 96 69 57 65 74 133 141 151 134 138 164 177 170 156 155 174 189 203 204 207 205 202 198 172 142 132 161 165 145 124 126 145 165 173 188 204 137 44 71 34 41 43 76 69 36 61 90 106 118 115 107 98 48 6 30 35 26 23 52 33 27 49 79 120 144 170 183 188 192 195 197 201 201 202 203 201 197 198 194 190 186 176 165 154 138 127 140 154 171 171 180 176 148 114 106 107 122 139 146 157 170 173 168 169 172 165 170 177 190 204 206 206 205 204 197 174 149 136 159 163 145 138 129 148 168 184 195 208 165 71 52 50 43 65 96 82 50 59 85 110 125 125 114 102 57 4 26 34 26 25 46 32 31 53 87 127 150 166 182 187 191 198 197 203 202 202 203 202 201 200 199 197 192 189 184 176 161 148 139 137 137 130 136 142 146 135 133 132 125 136 148 157 167 172 171 166 173 176 181 190 195 203 205 207 204 202 203 179 151 148 147 159 158 158 148 134 142 153 178 179 173 104 58 58 65 104 118 88 65 86 103 121 134 130 123 109 67 10 22 32 24 32 50 29 36 59 94 133 150 165 179 186 193 196 200 203 203 203 203 203 200 203 200 200 195 194 189 185 177 170 162 156 147 141 130 132 133 127 128 130 132 142 151 166 170 171 170 177 181 184 191 193 198 203 205 205 204 205 203 189 149 156 150 152 154 151 149 142 136 139 143 143 133 122 107 101 101 108 95 70 84 105 112 132 145 141 128 115 80 9 23 32 22 29 47 33 36 58 99 135 150 162 177 184 191 197 198 203 202 203 203 203 203 202 201 201 197 197 192 184 183 173 165 159 155 150 143 141 139 138 140 147 152 163 167 174 180 179 183 185 192 192 195 198 199 201 206 208 206 203 205 195 154 156 160 159 160 156 153 148 144 136 131 128 122 113 103 105 95 95 87 89 109 119 130 140 153 149 131 121 83 16 26 31 26 25 39 33 38 59 102 137 152 158 173 180 191 194 199 203 203 203 203 202 203 203 203 203 200 200 194 188 182 180 171 167 163 159 155 157 156 156 164 168 172 176 181 186 191 192 191 194 195 197 198 198 199 204 207 207 207 206 203 198 159 154 163 165 167 168 165 155 145 145 140 140 132 127 122 119 116 113 112 118 126 130 146 149 155 154 137 122 94 16 24 30 30 21 35 37 42 63 105 138 148 159 169 180 188 192 198 201 202 203 203 204 202 203 203 205 202 201 201 197 193 189 187 187 185 184 181 178 177 177 180 179 181 183 190 197 199 199 198 197 199 200 201 200 202 204 207 206 208 205 206 199 165 153 161 170 175 180 175 161 150 150 147 143 143 140 135 136 133 132 133 134 141 142 152 155 159 156 137 122 91 21 25 31 34 23 37 46 56 63 101 138 149 158 168 178 186 191 197 200 203 203 204 203 203 203 202 203 204 203 203 202 200 197 196 195 194 193 192 188 186 184 185 185 191 193 201 201 203 201 203 200 202 201 201 202 202 204 207 206 207 207 204 197 169 153 159 167 174 187 183 169 161 157 153 150 148 147 143 142 142 142 146 146 150 152 160 155 163 161 140 123 89 23 28 34 33 29 51 67 61 68 99 135 151 159 166 174 182 190 196 199 202 202 203 202 201 202 202 203 204 204 205 203 205 202 201 202 200 200 200 198 197 195 196 195 200 203 203 204 201 201 203 202 202 201 202 201 202 205 207 205 206 206 205 201 173 157 155 166 171 190 190 186 175 170 159 161 160 159 153 151 150 156 157 160 163 163 167 161 163 159 142 123 87 17 29 39 29 36 79 80 79 73 97 128 151 155 167 172 180 182 193 196 200 201 204 203 200 202 202 203 203 205 204 205 204 205 204 203 202 204 202 202 202 203 203 203 203 203 202 203 202 203 205 202 201 202 201 201 201 203 207 205 206 206 205 199 180 158 155 161 171 184 192 194 189 182 175 171 171 167 166 167 162 169 172 174 174 172 174 165 162 158 147 126 81 15 29 45 26 33 91 101 94 84 98 126 146 155 162 171 179 181 189 190 198 200 202 201 202 201 201 202 203 203 205 205 204 204 204 205 204 204 203 202 205 205 204 203 204 203 204 203 201 202 202 202 203 200 200 201 202 203 205 206 207 204 202 202 186 165 147 161 165 182 189 194 193 191 190 184 187 183 182 182 180 180 184 185 183 180 175 169 157 156 147 126 71 13 29 43 34 27 90 117 106 96 100 124 144 150 158 167 175 180 187 191 198 199 202 202 200 201 200 202 201 202 202 205 204 204 204 204 206 203 205 205 203 206 204 205 205 203 203 202 200 203 202 202 200 200 200 201 204 203 204 207 205 204 201 201 194 172 152 155 164 178 184 190 191 193 194 194 192 192 192 191 191 187 189 188 183 182 175 170 161 157 148 118 50 17 30 36 44 22 63 131 116 106 106 124 142 148 154 162 170 179 186 191 195 198 199 202 200 202 198 201 202 202 203 202 201 203 203 204 205 205 205 205 205 204 204 204 204 202 201 199 199 201 201 200 200 199 201 202 204 206 206 206 206 204 203 203 197 184 164 149 158 178 186 186 190 194 192 195 196 194 194 195 191 191 191 187 184 182 176 171 164 155 149 109 28 21 36 29 39 39 54 128 125 113 108 125 141 151 153 159 169 180 185 190 193 196 199 202 201 201 199 200 202 201 202 203 202 204 203 205 203 204 206 202 204 205 202 204 203 201 200 199 199 195 197 200 199 199 199 203 204 207 206 206 205 204 205 203 201 191 174 149 155 178 184 189 192 195 195 196 195 195 194 194 193 190 189 187 183 180 170 170 166 153 146 89 23 29 36 32 27 51 96 120 127 117 111 126 142 151 155 156 168 179 182 187 191 194 198 200 201 200 200 200 201 201 200 202 203 202 203 203 205 203 206 202 202 201 201 201 202 201 199 197 193 192 194 201 198 199 199 204 207 206 204 206 206 206 204 205 200 194 180 154 152 177 186 186 190 196 194 196 195 193 193 193 192 188 187 188 182 179 172 167 165 155 141 68 29 31 33 29 25 35 136 119 125 124 113 123 142 156 153 160 166 174 182 184 190 193 197 197 199 198 199 201 201 199 201 202 201 202 202 203 203 204 204 204 198 188 192 200 200 199 198 191 188 185 196 202 200 201 199 205 207 206 204 206 205 206 206 203 201 198 177 156 153 175 184 187 188 192 194 193 195 193 191 191 192 189 186 186 181 178 173 164 164 152 128 56 31 32 32 26 27 25 138 129 126 125 116 123 140 156 157 159 164 173 179 184 187 190 192 197 197 199 197 199 200 201 201 199 201 201 202 202 204 202 203 203 197 187 192 197 196 198 193 193 179 181 197 203 202 202 198 196 204 203 203 202 203 205 204 204 200 192 171 149 150 175 182 185 190 193 190 190 195 192 190 191 191 188 186 181 177 170 172 163 157 148 112 38 24 33 30 31 22 25 147 142 148 131 115 120 141 156 159 159 165 173 178 180 187 189 188 195 196 198 196 198 197 200 203 201 201 201 202 200 202 202 202 200 201 197 194 196 194 195 193 193 170 173 201 201 200 201 195 184 186 194 196 197 201 200 200 201 193 178 148 144 148 171 179 186 189 191 190 190 191 190 192 191 190 188 180 179 175 168 167 161 153 138 86 26 23 33 27 30 27 21 152 159 167 141 115 117 142 154 161 166 167 171 175 184 184 189 185 193 196 197 197 197 199 201 201 202 200 202 202 203 202 200 200 201 200 199 194 193 194 193 194 193 166 165 194 198 191 191 184 173 167 179 189 188 192 194 191 193 173 147 143 147 150 167 179 182 185 188 188 186 191 191 189 191 190 181 181 176 172 168 162 157 146 128 54 20 25 32 26 28 26 19 162 162 169 153 115 110 138 149 161 166 169 169 177 179 182 188 187 193 193 195 195 198 200 201 201 201 201 200 201 201 201 200 198 199 198 197 194 192 191 192 194 196 175 158 183 183 174 156 134 118 121 173 188 188 180 177 178 177 146 124 137 148 149 168 180 178 183 187 186 186 188 189 188 187 185 177 176 173 168 167 156 152 141 102 33 25 29 29 25 22 27 21 154 146 152 138 110 104 129 148 159 166 173 172 174 178 181 185 188 192 191 190 196 197 199 200 199 200 200 200 199 199 200 199 199 197 197 199 193 192 193 196 197 199 191 174 171 173 159 129 96 99 104 137 179 173 165 155 156 152 104 91 126 139 154 175 176 176 180 183 184 185 189 185 184 185 181 173 175 171 165 161 152 143 133 78 23 30 27 28 22 20 21 25 120 106 90 91 74 87 122 144 159 168 173 172 174 177 181 183 185 190 190 189 195 194 197 200 197 197 200 198 196 196 199 197 197 196 198 196 193 194 194 198 197 201 198 191 185 177 168 151 148 147 141 138 154 155 143 135 140 131 94 97 127 150 167 174 174 173 175 179 180 184 186 185 179 180 181 173 174 170 162 156 144 136 119 50 26 33 25 27 18 23 19 26 38 35 25 25 11 43 120 137 158 169 174 177 174 176 182 181 184 188 191 191 193 194 197 197 196 196 199 198 195 197 195 195 193 193 194 194 195 198 196 199 200 202 201 201 198 195 187 180 170 165 157 145 140 138 127 123 128 131 114 115 142 163 174 172 171 171 175 177 178 183 180 180 177 176 176 171 171 165 160 148 137 136 95 33 30 36 25 27 21 21 20 18 19 18 18 15 16 16 99 140 156 167 173 178 178 176 184 183 183 190 191 191 193 193 194 197 195 195 197 195 195 196 194 193 194 190 193 196 198 197 199 199 199 203 202 202 200 201 198 192 188 183 173 158 134 131 129 133 137 133 144 146 160 172 173 171 169 171 171 175 170 177 176 176 175 173 171 168 167 163 152 141 133 121 71 32 30 33 30 26 23 19 21 17 16 21 14 19 15 3 74 138 152 167 172 177 178 181 183 183 185 189 191 192 192 193 196 196 197 197 194 196 194 195 194 192 193 191 194 198 197 200 200 200 200 202 202 202 203 201 202 200 194 194 186 170 155 147 156 164 158 157 161 166 168 171 173 173 170 174 172 177 176 175 172 172 175 171 168 167 160 151 144 133 133 108 49 33 32 34 27 23 27 20 20 17 17 18 20 18 19 2 32 137 153 166 174 177 180 183 185 183 185 189 190 193 192 192 195 198 197 196 193 197 192 194 193 191 193 195 198 198 198 200 199 201 201 202 203 202 203 202 201 199 198 195 189 180 174 169 175 177 170 168 174 173 171 169 169 168 174 172 174 177 174 175 173 175 171 169 169 165 154 145 136 135 127 83 29 30 36 37 30 23 27 24 17 20 19 17 20 17 18 13 10 117 150 164 172 175 179 182 186 185 187 190 190 192 193 193 197 197 196 196 195 196 195 191 192 191 194 197 198 199 200 201 202 201 203 203 200 202 202 201 204 199 198 200 192 184 180 179 181 179 173 175 176 175 171 168 170 167 171 172 171 175 175 178 175 172 169 169 165 162 150 141 136 130 122 56 22 34 32 40 27 28 23 24 22 21 20 15 21 14 18 18 7 80 148 161 170 176 175 180 186 185 188 191 190 191 193 193 197 196 196 195 197 194 193 194 192 192 195 198 197 200 201 202 202 202 202 203 203 202 202 202 199 200 200 199 196 189 187 184 185 187 173 176 175 176 168 168 168 170 171 171 170 173 172 176 176 171 164 162 164 156 149 139 132 130 105 41 20 35 32 37 30 30 21 27 21 18 21 17 17 16 19 18 8 38 138 156 166 174 175 179 185 189 188 190 190 190 192 192 195 194 195 192 194 196 193 194 192 193 198 195 199 199 200 202 202 201 203 202 200 199 199 195 191 187 185 186 188 190 192 190 190 186 174 173 174 175 171 169 171 169 173 169 170 168 172 171 176 168 161 161 159 155 145 134 131 126 91 18 28 35 33 33 36 27 21 31 20 20 23 17 18 15 19 16 14 11 116 153 163 169 174 178 182 187 189 190 188 191 192 190 194 195 194 191 196 195 193 194 191 196 196 196 196 199 197 198 200 198 197 191 184 173 166 161 162 159 153 153 157 169 180 173 163 152 144 149 154 158 164 166 165 168 171 168 168 167 166 169 171 158 158 160 155 150 142 135 124 127 67 12 25 32 32 32 35 27 28 24 24 20 22 20 19 15 19 15 19 1 84 146 159 168 176 178 183 187 187 190 187 189 193 188 193 196 193 192 195 198 194 194 193 196 197 194 191 191 187 183 181 178 166 149 139 133 130 131 133 138 132 125 127 128 134 131 124 125 122 130 127 129 135 147 152 160 164 166 166 165 165 167 161 149 156 156 154 146 139 132 125 120 40 15 26 26 31 30 31 26 27 22 23 20 22 23 19 15 18 17 17 2 48 131 156 162 171 177 182 185 186 187 190 189 191 191 193 198 193 196 198 199 196 197 192 194 193 189 180 168 152 143 138 130 125 109 108 112 115 106 116 125 123 117 105 108 108 112 109 110 114 119 110 108 109 117 125 146 153 160 166 166 164 164 160 153 158 156 150 143 137 129 128 103 14 22 23 25 24 32 28 25 21 25 21 21 19 19 22 19 15 17 19 6 28 114 145 157 168 174 183 178 182 189 187 190 190 190 191 196 197 197 199 199 197 197 193 190 184 174 161 138 109 94 85 91 101 94 106 136 145 124 144 163 166 161 135 130 144 150 136 112 115 103 95 89 94 96 97 114 132 152 164 166 167 162 158 151 159 155 147 137 135 127 127 65 14 23 26 21 24 30 27 22 22 19 20 18 21 17 19 21 16 19 15 10 18 94 133 150 160 170 179 181 183 187 187 188 191 190 191 193 198 199 198 200 198 196 194 188 181 177 164 142 115 82 50 79 105 94 115 160 173 145 177 190 195 192 170 166 187 191 180 148 143 133 96 82 64 71 77 76 108 134 160 169 166 160 158 153 156 153 144 135 130 130 111 30 15 26 22 22 20 35 27 23 27 28 17 18 19 18 17 21 16 17 17 11 10 78 120 141 153 163 173 178 184 187 187 187 188 190 190 194 194 196 198 197 199 196 192 186 180 188 190 191 168 138 121 124 120 110 118 137 146 126 182 192 195 194 168 173 189 192 189 162 158 140 100 81 34 42 59 79 102 138 152 165 163 156 160 154 158 150 142 133 129 127 82 13 21 22 23 19 26 29 30 32 19 28 21 20 19 18 15 18 20 16 17 16 9 71 109 125 147 155 166 175 180 187 186 187 188 191 191 193 193 193 199 197 196 195 191 186 188 191 193 196 189 172 169 172 170 164 157 148 131 129 146 160 166 164 147 153 164 156 155 127 127 126 96 87 83 102 107 128 150 154 156 159 161 159 161 156 156 144 141 131 128 115 42 8 29 21 21 18 25 28 26 31 28 22 19 21 22 16 18 18 19 20 14 17 6 60 108 111 133 147 160 169 175 181 183 185 185 188 191 190 193 191 196 194 193 190 186 191 190 195 195 194 191 185 176 173 174 175 176 180 167 154 149 148 151 148 137 139 140 129 131 126 125 122 124 126 126 122 121 144 161 163 159 159 160 161 158 156 148 139 134 133 123 81 13 20 33 22 20 18 27 26 27 25 21 28 21 18 20 19 18 16 17 23 14 18 4 39 111 109 118 134 152 163 172 177 181 182 184 184 189 189 190 190 191 191 191 190 188 191 192 194 196 197 192 187 181 169 169 171 172 178 179 173 164 156 156 160 149 152 153 147 149 144 141 142 140 134 124 120 127 151 162 166 158 160 157 159 155 150 142 137 132 132 113 37 8 34 28 17 18 20 20 30 26 24 19 21 24 24 17 21 15 19 15 20 18 19 5 30 106 110 115 119 135 153 164 173 177 179 181 182 185 186 185 188 188 188 186 190 191 187 192 192 196 194 194 184 176 169 166 163 160 167 169 170 172 172 170 169 160 159 166 160 167 160 149 140 131 130 123 121 136 155 169 163 156 154 153 153 150 144 135 133 127 124 74 8 16 35 26 16 15 19 22 28 24 25 18 19 20 23 20 21 19 15 19 15 20 17 11 16 101 111 117 114 121 141 155 166 173 178 179 184 181 184 185 185 186 186 185 187 189 189 191 192 191 191 190 183 171 163 159 155 155 149 150 155 158 160 158 155 150 143 155 149 154 150 139 127 122 123 125 126 140 160 165 157 151 152 148 147 143 135 131 129 124 99 24 12 22 28 29 17 20 15 20 27 24 25 18 16 19 20 23 18 20 17 19 17 19 17 15 1 88 116 116 118 116 122 142 159 169 175 178 181 181 184 185 185 186 185 184 184 185 188 190 190 188 186 188 185 176 170 159 148 147 142 139 134 138 140 140 141 141 137 139 141 138 134 125 119 116 121 125 136 152 159 159 146 141 146 146 141 136 131 127 125 115 44 15 14 22 30 24 20 16 18 17 23 27 24 17 19 18 21 18 17 17 15 16 18 21 14 23 1 66 117 119 122 116 112 126 145 161 171 174 180 180 184 184 184 186 186 185 186 186 188 188 186 184 187 185 187 183 177 171 158 146 138 129 126 124 125 125 126 128 132 126 125 119 114 114 111 120 127 139 143 155 156 152 134 136 146 142 135 131 129 127 120 74 17 17 19 21 32 23 18 13 20 19 19 25 24 19 13 22 23 17 19 16 17 15 20 18 18 21 7 42 116 119 122 119 115 112 128 145 162 167 174 176 184 183 185 185 187 188 188 190 189 187 185 185 188 185 184 185 183 179 167 157 148 137 129 119 117 115 113 112 115 109 111 113 113 121 125 135 142 144 152 151 155 147 139 143 141 138 130 129 126 122 85 26 16 21 22 19 32 23 20 15 20 19 21 22 24 17 17 19 23 18 18 15 18 16 19 18 18 19 8 25 108 120 121 120 118 114 111 124 144 156 167 173 177 183 184 184 186 189 188 188 190 189 188 187 190 190 185 186 183 180 174 170 162 152 149 146 141 138 132 129 133 134 134 137 142 142 144 150 150 149 150 148 151 146 145 141 140 132 127 126 121 102 38 14 19 23 20 20 29 23 24 18 18 20 21 22 19 18 17 20 24 22 16 19 19 18 18 16 22 15 14 17 97 118 123 121 120 114 113 110 123 139 153 164 169 177 179 180 184 188 189 190 191 192 192 192 193 190 190 189 187 184 182 177 177 167 165 163 164 160 160 155 156 156 155 157 161 157 158 158 158 153 151 151 152 150 147 138 134 132 127 118 115 66 30 32 32 26 25 20 26 28 18 21 16 24 18 21 21 16 20 17 25 19 15 18 17 19 18 15 22 17 17 8 80 121 121 123 121 118 115 112 108 118 138 149 157 166 170 174 180 184 188 191 191 195 196 193 195 194 194 193 193 189 191 188 185 185 182 181 179 178 174 174 167 169 168 168 170 165 164 163 162 161 157 155 154 153 142 136 131 125 118 109 109 55 33 45 43 38 35 31 29 25 18 22 17 22 22 22 21 20 17 16 20 19 14 17 20 15 16 15 18 16 18 6 59 121 120 123 124 117 117 113 113 103 114 132 144 151 161 167 171 175 187 188 190 195 197 195 194 197 194 196 199 196 196 198 198 194 193 191 191 190 186 185 182 176 175 177 175 174 170 169 165 161 164 161 157 148 142 133 123 116 106 108 119 44 29 53 49 43 49 44 38 32 19 21 16 24 17 24 19 20 16 15 24 17 16 15 17 18 14 17 17 16 19 20 44 115 119 120 122 123 118 115 113 108 104 111 122 132 146 155 161 165 174 187 187 194 193 195 196 197 193 200 200 200 201 201 201 199 201 199 199 196 192 189 191 186 186 186 183 182 182 174 171 168 163 162 151 145 136 121 113 101 109 122 119 45 17 59 55 48 49 50 42 38 32 22 20 23 19 18 23 20 17 18 24 16 17 15 16 16 15 12 18 14 31 34 23 107 117 121 120 121 124 118 113 109 106 107 105 114 125 141 146 156 164 169 182 190 192 193 193 194 193 196 199 200 200 201 200 200 200 198 199 196 192 192 193 190 186 189 182 181 181 176 172 167 163 156 149 133 120 107 98 113 118 123 121 34 21 46 66 49 51 57 44 40 40 35 24 24 23 20 20 23 17 22 20 17 15 15 14 19 15 17 17 24 44 38 13 92 113 118 122 120 121 122 117 113 109 110 106 105 110 116 129 139 148 155 164 181 185 190 190 192 192 194 197 196 195 196 196 196 196 192 192 192 188 185 191 189 188 185 184 181 175 171 171 164 159 150 134 124 100 100 110 123 124 124 115 35 22 47 61 64 54 53 61 39 42 43 42 30 28 20 22 24 19 24 24 14 15 21 14 20 24 26 24 38 47 45 11 75 110 117 121 121 119 117 121 116 114 109 108 109 110 109 108 122 130 142 148 164 174 181 184 187 186 184 188 188 189 191 191 189 191 188 184 182 181 178 185 185 183 181 182 175 172 162 166 159 151 136 116 101 99 113 125 125 125 122 114 31 30 46 53 71 67 61 57 59 43 41 44 34 28 26 19 25 19 23 29 20 25 26 26 28 32 31 31 43 49 44 14 45 108 115 116 121 117 120 122 119 116 112 110 114 112 115 107 111 114 124 127 141 154 167 171 173 172 174 173 174 174 180 178 179 179 180 175 170 173 173 175 176 175 173 169 163 161 156 156 146 138 116 102 101 114 122 123 130 121 122 105 29 39 60 53 66 71 75 58 58 58 40 40 31 36 34 35 35 26 29 29 36 37 37 35 33 37 37 34 49 51 44 16 29 103 109 115 119 118 119 119 118 117 117 113 115 112 113 115 112 112 113 115 119 130 143 153 156 150 153 154 154 157 160 161 164 162 163 162 156 163 162 162 166 165 160 159 149 149 149 138 133 113 103 102 116 124 125 125 130 121 122 102 28 43 58 66 57 66 77 65 59 57 44 55 55 62 58 55 45 43 39 22 48 44 42 41 40 45 42 44 55 53 40 15 28 98 106 114 117 118 120 119 117 119 118 116 120 115 116 117 114 118 114 113 111 114 117 126 135 134 132 133 135 139 138 141 143 144 144 146 144 145 146 148 147 145 142 140 136 134 126 121 106 103 104 122 125 131 128 127 125 119 126 92 35 41 58 74 66 56 71 75 78 69 62 72 69 75 74 68 61 47 53 32 56 45 54 50 53 49 54 52 59 55 37 9 35 91 105 108 114 116 118 119 117 116 116 118 116 119 118 117 118 115 118 114 115 109 110 110 114 122 120 118 120 119 119 120 124 127 122 125 122 123 124 127 121 123 122 119 118 113 105 102 102 112 119 128 129 133 129 128 120 124 123 86 40 45 59 71 71 62 65 74 85 78 70 74 71 72 74 73 74 55 43 40 56 54 57 58 61 58 59 57 66 57 35 7 41 89 103 104 111 115 118 116 116 117 116 116 118 117 122 117 118 113 118 116 115 115 112 106 104 105 104 106 104 106 106 104 108 107 102 103 104 102 103 104 104 104 101 100 99 102 101 101 115 121 127 130 134 131 129 127 125 123 121 76 42 51 69 68 69 66 76 73 84 79 77 78 72 70 71 71 74 67 38 38 57 58 63 65 63 65 57 64 70 63 32 5 51 83 101 104 108 110 115 119 114 117 114 113 116 116 119 120 119 118 117 118 117 118 116 111 106 103 96 99 95 96 95 93 95 91 91 90 90 86 88 88 89 90 90 94 95 102 108 114 121 126 129 134 134 131 135 128 126 119 119 70 43 48 70 77 70 69 74 82 76 76 85 78 65 75 77 76 76 75 41 38 63 65 65 66 67 69 57 70 72 66 32 6 54 78 95 108 109 110 110 116 116 118 115 115 117 118 116 120 121 122 115 116 116 119 116 112 109 104 100 97 98 91 95 88 89 87 88 84 88 86 83 89 89 90 94 98 105 109 119 120 125 129 133 134 136 133 130 130 122 120 116 61 36 49 64 85 73 72 73 84 84 80 79 71 74 81 81 82 85 81 41 39 66 64 67 74 70 69 66 73 75 71 39 10 50 76 90 105 111 112 116 107 116 114 114 115 113 118 117 118 116 120 119 115 112 115 113 112 109 105 102 98 97 91 95 91 89 87 90 85 89 86 88 88 92 92 101 104 111 117 120 123 128 130 138 135 137 131 129 130 127 119 109 57 28 49 58 85 75 72 79 81 84 86 76 77 76 84 84 88 88 78 44 47 72 66 70 81 76 74 71 78 80 74 44 13 50 72 86 100 108 113 119 116 110 114 111 112 119 113 117 116 111 117 116 119 110 114 111 109 107 106 104 98 95 90 92 90 86 87 89 85 88 88 90 92 95 101 106 111 118 118 126 124 129 134 137 138 130 131 133 133 124 117 105 56 38 45 46 84 73 70 84 84 81 84 80 79 80 84 85 85 89 53 46 68 