P2
92
112
255
131 128 126 129 126 126 120 123 120 117 111 112 110 112 117 116 118 119 110 114 110 106 93 89 91 76 76 68 65 54 41 39 48 45 56 63 66 63 65 73 78 86 85 72 73 59 66 69 70 68 70 76 73 84 84 86 87 78 81 66 72 76 70 65 62 63 63 77 99 103 105 113 118 121 118 120 121 119 121 120 123 121 123 122 123 116 122 119 124 118 122 119 127 127 127 127 129 127 119 111 108 113 112 118 116 115 116 113 116 115 110 106 102 102 91 85 80 83 71 61 55 45 34 33 46 38 45 50 59 59 60 58 61 68 69 71 67 63 58 63 65 61 65 65 62 66 71 72 74 77 78 73 72 66 69 69 68 62 60 61 66 86 94 103 110 118 118 118 120 123 120 121 120 122 120 122 121 118 121 119 124 120 117 119 126 125 128 130 128 124 120 113 108 112 111 118 120 121 115 114 112 108 112 100 103 103 94 87 74 73 70 63 58 52 35 30 39 41 53 55 65 65 66 61 54 59 60 58 53 59 60 60 64 62 63 60 61 60 58 62 65 68 69 71 68 75 70 69 70 73 60 61 57 62 70 87 91 103 108 115 114 122 118 122 119 120 121 119 122 120 122 120 121 122 120 119 128 124 130 128 126 122 122 121 118 112 112 113 119 122 117 112 108 107 104 101 96 96 90 84 79 71 75 67 65 61 41 30 33 35 40 54 58 60 66 69 63 54 59 55 42 46 48 54 58 63 62 71 60 60 58 58 64 60 60 61 61 66 69 75 74 80 74 70 65 59 60 56 66 77 86 101 106 113 115 120 123 118 117 118 120 118 117 123 121 123 118 123 126 123 127 128 121 127 121 120 117 116 116 117 119 116 117 108 105 103 97 95 95 82 81 78 84 81 74 71 68 66 52 42 43 35 37 38 50 64 54 58 61 64 59 57 50 41 47 41 53 54 60 68 54 59 58 59 54 58 56 54 54 56 58 66 66 66 76 74 65 70 65 67 61 58 66 73 83 88 99 105 112 117 115 122 116 121 119 117 118 121 120 120 128 130 125 127 125 121 119 121 121 118 122 120 119 117 113 109 104 102 93 88 78 76 76 82 79 80 75 71 68 69 56 56 50 44 38 36 51 59 64 58 54 57 59 56 52 51 47 53 42 54 49 53 48 52 49 55 53 53 48 55 51 53 55 62 60 66 60 71 65 69 72 73 76 65 62 58 72 85 82 91 92 101 108 117 121 119 117 123 120 119 119 118 130 126 127 125 126 122 120 122 123 124 121 118 117 118 113 104 103 93 95 75 79 71 80 83 87 85 85 76 75 69 62 64 54 59 53 44 51 53 56 57 59 55 54 60 49 52 47 54 50 45 46 43 48 43 42 48 46 46 49 51 48 50 55 54 60 62 61 65 61 62 65 74 78 71 71 66 64 66 81 84 93 92 96 105 109 118 117 121 120 119 120 120 125 127 125 124 127 121 120 122 122 123 122 122 126 124 112 104 101 87 88 77 78 80 76 81 85 87 86 89 80 73 66 68 63 64 59 59 54 53 51 52 56 60 57 60 57 54 52 49 50 44 41 44 41 41 39 40 50 44 40 51 48 51 50 51 54 59 61 63 60 61 60 61 72 76 75 67 61 59 63 77 92 104 104 97 101 110 114 114 120 119 118 119 126 126 122 122 126 122 121 119 123 128 121 124 121 122 107 100 85 87 76 80 81 81 83 69 82 75 88 89 86 86 71 72 72 68 64 67 63 63 57 55 54 62 63 56 57 51 54 51 48 47 45 43 42 43 38 32 46 44 46 44 51 48 48 41 49 55 52 60 66 64 64 62 63 79 71 81 62 58 54 57 72 93 108 109 101 101 111 116 117 120 119 120 123 125 126 120 125 120 121 119 121 121 120 119 121 108 103 92 89 88 88 92 90 81 83 74 84 86 94 96 91 93 87 79 85 71 78 77 80 79 74 71 75 65 66 62 55 55 53 47 45 46 46 50 43 46 43 38 39 47 44 48 46 52 52 44 44 50 42 54 62 62 63 60 67 68 78 76 78 61 60 58 58 58 83 99 105 101 103 110 114 117 120 118 122 121 120 121 125 119 118 120 122 119 118 116 111 103 96 89 90 83 89 86 80 83 82 86 92 96 104 106 107 99 104 88 97 90 90 87 95 97 94 84 92 78 79 67 66 61 51 58 46 40 42 46 50 49 41 45 42 45 48 46 46 51 53 47 55 53 50 49 48 57 58 63 64 65 79 79 76 71 62 58 60 54 56 78 97 97 97 102 111 112 117 118 122 119 120 118 118 117 114 116 118 117 112 110 100 95 87 87 87 83 85 76 78 83 85 94 102 107 115 125 125 120 116 106 101 110 103 107 113 109 109 104 110 104 90 81 73 68 59 58 58 47 41 39 49 54 48 42 47 46 47 47 58 48 54 52 53 60 64 63 58 54 59 60 63 65 73 82 75 83 65 61 61 66 52 55 83 91 90 96 104 109 114 117 117 117 119 116 113 113 113 114 117 113 108 101 92 89 87 87 80 75 67 72 76 90 97 107 116 127 135 141 150 146 128 130 109 117 122 114 123 123 116 116 128 124 105 96 83 75 68 65 63 56 46 44 39 45 51 44 44 46 48 46 48 47 56 60 52 57 60 69 67 68 68 71 72 71 73 76 83 82 70 67 65 71 62 55 58 82 80 88 99 109 112 112 118 116 117 113 113 113 118 119 112 110 97 96 94 92 84 79 69 62 65 80 94 103 108 123 139 147 161 166 166 166 149 132 127 113 132 128 126 130 118 122 137 134 116 105 94 84 72 77 67 69 59 57 48 45 51 51 43 48 54 41 47 44 45 52 56 55 54 53 65 63 71 70 79 73 75 78 78 79 76 70 71 71 74 67 57 60 75 64 81 104 112 108 116 111 111 114 110 115 116 116 103 94 97 94 92 86 78 65 53 50 76 98 102 115 126 148 153 167 178 179 181 175 165 143 132 125 120 135 124 136 130 122 133 127 128 110 108 90 79 80 79 76 72 63 65 59 54 57 54 50 56 55 47 45 45 44 47 48 51 42 51 57 57 65 67 72 68 69 72 70 75 73 72 72 72 72 66 52 66 61 59 76 107 110 111 112 115 113 116 110 109 102 94 90 91 85 77 70 58 50 47 70 89 101 116 134 146 162 171 182 189 191 193 189 181 165 137 131 121 125 130 135 146 134 137 129 126 114 111 95 87 83 84 82 80 71 67 62 63 55 55 57 60 68 54 48 46 48 44 48 47 41 42 56 50 47 59 64 65 63 64 67 68 66 72 70 69 67 67 63 57 60 51 59 76 103 110 114 112 109 113 103 101 92 89 84 87 73 68 57 50 45 55 84 93 113 132 149 166 178 185 192 197 198 199 198 190 176 159 133 125 114 122 136 144 149 135 145 131 122 111 108 92 91 88 87 84 80 67 67 69 57 58 59 62 68 63 49 46 47 43 49 43 44 39 51 56 40 51 53 66 62 63 64 62 60 68 68 71 66 68 67 60 54 48 50 61 72 113 113 110 109 101 94 90 90 85 76 75 71 62 55 48 48 77 92 103 129 145 171 186 192 194 197 201 200 202 199 194 192 184 159 130 118 109 123 142 153 141 141 146 132 117 107 100 99 99 89 88 87 67 69 65 66 53 64 65 59 68 59 48 48 47 38 45 46 46 38 57 45 44 42 55 55 62 60 60 57 59 66 70 69 61 62 65 51 47 54 57 61 111 106 102 96 87 85 78 81 69 76 67 60 51 44 47 59 87 106 119 152 174 191 195 197 200 200 203 201 202 203 201 201 196 188 164 132 116 115 125 140 154 146 136 136 126 115 104 99 104 98 90 89 76 66 67 63 62 64 64 62 62 60 63 50 49 48 37 36 51 46 48 54 43 40 35 44 49 51 60 58 56 58 60 64 63 54 59 50 42 44 52 57 114 107 93 91 79 75 66 70 66 64 59 52 43 48 46 70 99 119 144 181 191 196 197 200 202 202 200 202 204 203 204 203 201 196 190 165 140 125 115 115 130 139 139 134 125 119 110 100 105 100 91 87 85 75 64 63 59 65 72 67 65 62 66 61 54 50 50 40 44 46 49 57 41 46 39 37 38 45 55 52 59 55 55 61 56 54 58 56 49 46 50 51 104 97 83 78 73 66 59 63 55 54 49 54 46 47 52 87 111 144 174 194 197 200 201 202 201 202 201 203 205 204 205 203 203 199 197 187 172 153 131 118 108 113 125 132 130 114 111 104 102 103 96 88 88 80 67 63 61 58 66 73 74 62 66 64 65 61 54 48 37 41 53 59 43 42 47 35 39 40 48 52 53 52 52 56 57 59 52 57 47 42 46 48 100 86 82 69 70 58 61 50 46 49 60 53 47 53 66 108 139 170 188 200 201 201 203 203 203 204 203 205 205 205 207 203 206 201 200 197 186 182 165 152 120 104 98 109 123 116 110 111 99 98 102 93 87 84 74 66 66 60 63 73 77 76 67 66 70 60 55 53 41 42 48 58 53 37 43 47 38 37 44 49 50 52 50 54 59 59 53 51 45 37 38 50 81 82 63 64 55 44 43 43 45 48 57 52 49 56 98 136 162 185 193 202 202 204 204 204 205 205 206 205 206 204 205 206 203 202 200 200 194 191 184 183 167 148 118 113 99 104 102 109 111 99 98 97 88 90 76 67 69 56 64 62 75 78 74 63 65 62 59 50 42 42 47 55 58 45 39 42 45 34 47 45 41 47 53 54 58 60 62 53 43 46 45 46 76 64 52 50 44 40 36 40 44 49 46 48 57 85 126 155 180 195 198 202 203 203 204 206 204 205 206 204 204 205 205 205 206 203 203 200 198 192 193 186 183 166 158 144 133 113 98 87 99 97 96 91 88 87 78 73 69 62 56 60 64 75 81 72 63 64 60 56 39 44 44 44 58 52 43 36 46 44 41 45 37 46 40 56 56 58 58 61 50 43 58 54 64 53 53 49 39 42 39 47 49 47 44 53 74 113 142 171 189 196 201 204 203 205 205 206 206 206 207 204 204 206 204 205 204 204 203 201 200 195 194 192 188 180 170 160 150 138 124 99 93 87 84 88 83 80 82 66 66 64 65 61 63 67 72 77 57 62 58 58 49 51 40 41 53 50 46 37 43 45 39 42 42 44 40 51 50 50 53 55 54 41 50 53 61 50 51 41 38 38 39 55 53 46 49 60 97 127 156 177 192 199 203 204 204 204 205 206 206 206 206 205 205 207 204 204 206 205 204 204 202 201 195 192 191 187 183 174 163 148 143 121 110 99 86 86 83 85 78 78 74 72 74 66 72 62 71 71 71 58 61 55 53 54 40 44 49 56 42 49 38 46 41 42 45 44 45 40 52 37 35 43 50 42 47 59 54 53 46 36 37 35 46 55 51 45 54 73 113 141 165 183 195 201 204 204 205 204 207 206 205 205 206 206 205 205 204 205 207 204 205 204 203 203 200 195 187 188 185 183 176 164 159 145 128 114 110 101 86 82 76 78 77 77 83 76 80 74 71 73 78 65 60 59 60 54 49 44 42 62 53 49 50 36 42 44 40 42 44 48 44 42 29 40 50 50 52 57 56 54 44 41 37 41 52 49 44 49 59 84 124 152 175 187 199 201 205 205 204 205 207 206 207 206 205 205 206 205 207 206 206 207 204 207 207 205 205 199 194 188 183 183 182 177 167 158 147 129 119 120 108 104 86 70 74 71 74 80 78 83 81 74 84 80 74 67 67 62 61 56 53 51 61 52 45 49 34 42 41 40 40 46 53 51 35 47 47 63 54 63 64 57 47 43 43 48 46 50 46 52 68 100 136 160 184 192 200 204 205 204 206 203 207 205 207 206 207 205 206 205 205 208 206 208 206 208 206 206 207 205 201 193 184 182 182 182 177 171 159 146 128 122 115 111 108 85 76 72 68 70 72 78 81 79 80 81 74 78 71 63 60 60 58 54 57 57 35 46 44 41 40 38 43 42 44 46 47 41 52 60 61 59 66 56 49 48 47 49 42 51 47 53 81 116 151 170 188 195 202 203 205 206 205 205 206 205 206 207 206 205 206 204 207 208 207 208 207 208 208 206 207 207 204 200 193 185 181 181 182 175 169 162 144 131 121 116 110 104 90 76 75 59 70 64 69 68 65 67 69 73 73 73 57 63 53 54 54 64 46 32 42 44 41 44 40 44 41 47 40 38 41 56 61 53 63 62 51 55 50 44 49 47 51 59 100 138 164 180 190 199 200 205 204 205 207 207 207 205 206 206 207 206 207 207 206 209 207 207 207 208 208 206 207 205 207 203 199 194 188 184 182 177 174 170 163 146 136 121 116 110 102 90 79 72 68 65 64 57 57 58 60 63 62 74 70 61 51 51 46 57 60 46 33 42 38 42 38 39 49 47 43 36 32 43 51 54 70 63 56 49 44 41 44 49 44 74 120 154 175 188 193 197 202 204 207 205 206 206 205 205 206 204 207 205 207 208 207 206 207 207 206 207 206 207 203 205 204 203 202 199 195 193 186 183 179 171 171 161 146 137 123 116 112 99 88 82 75 70 61 62 57 56 54 61 58 57 69 71 58 53 48 52 55 57 48 40 41 38 50 36 34 44 38 35 35 31 37 52 68 65 56 46 53 49 51 45 41 86 136 161 184 190 197 201 201 205 206 204 202 202 196 200 196 200 201 202 204 203 205 204 204 205 204 206 204 205 205 203 202 200 202 201 199 196 195 190 185 179 176 169 163 154 139 131 118 109 101 94 80 82 65 63 58 59 55 54 57 57 66 69 65 56 59 52 54 57 52 54 47 48 42 37 34 28 28 34 33 28 29 51 67 62 54 50 57 56 48 36 40 110 150 170 185 193 198 201 201 199 196 187 178 173 174 179 181 181 178 182 183 185 188 195 196 199 200 200 202 199 201 201 199 200 201 200 200 200 197 195 191 184 179 176 171 164 156 146 131 123 115 104 96 89 80 72 57 59 56 54 51 60 54 63 63 61 58 59 61 63 59 56 53 51 45 43 34 27 22 30 32 23 30 36 65 55 52 54 53 49 38 32 58 122 158 173 187 194 197 198 191 179 174 168 160 159 157 153 152 146 141 146 146 146 151 158 170 177 182 186 192 192 192 195 194 195 199 199 200 199 197 195 191 189 182 178 171 171 162 158 145 139 129 116 106 97 92 86 66 56 56 55 52 56 54 54 57 55 54 53 56 59 59 62 53 51 51 46 40 36 29 26 32 26 26 32 64 54 49 54 50 43 36 26 74 130 162 180 189 191 187 179 174 173 174 174 161 148 143 132 127 128 125 122 128 130 127 127 136 147 148 164 170 177 183 186 189 193 198 197 197 197 194 193 191 187 184 177 173 169 165 160 155 150 141 121 114 101 88 86 74 61 54 58 53 57 58 56 56 57 52 55 55 51 55 58 61 57 54 51 48 40 44 28 39 33 27 44 61 52 55 55 44 39 31 31 90 142 172 181 191 179 169 168 169 180 185 185 180 173 159 145 129 117 115 109 114 117 120 119 119 124 128 138 149 156 167 174 181 189 193 194 195 193 192 189 185 184 178 172 166 161 151 150 140 136 128 109 102 88 75 65 67 60 57 54 54 54 59 56 56 61 54 54 52 61 54 56 55 59 63 63 56 54 50 41 38 39 37 51 58 55 57 47 48 33 28 33 104 149 174 186 187 170 174 179 189 197 199 194 189 182 179 169 159 147 133 124 118 120 121 120 117 117 120 123 136 145 157 163 171 183 191 192 190 191 186 183 182 177 168 163 157 150 138 127 115 107 96 91 82 77 66 60 61 61 62 62 53 54 53 57 56 60 61 55 57 60 53 55 52 56 63 63 64 53 52 44 36 37 42 43 59 59 55 48 39 36 22 42 120 154 176 188 176 173 183 190 197 199 199 195 189 183 179 178 172 165 154 146 142 135 132 129 127 125 122 125 132 141 150 158 166 179 189 190 188 186 178 175 172 164 156 151 142 139 120 105 95 86 79 76 76 70 65 60 55 60 64 68 63 60 51 53 52 50 54 55 59 59 62 62 53 57 58 57 56 58 52 47 38 39 45 49 64 61 53 45 40 30 16 58 130 160 180 183 179 181 189 195 198 196 194 189 185 176 174 173 167 163 159 153 148 144 140 140 135 137 135 139 134 139 149 159 169 184 189 191 186 181 175 166 162 153 138 135 128 125 112 99 87 83 79 84 83 83 78 74 79 76 84 75 80 78 62 58 61 46 51 46 52 56 60 60 61 58 50 58 59 53 57 52 44 37 45 48 66 62 50 45 38 28 13 79 132 170 185 183 182 185 192 192 192 186 183 178 170 160 158 152 152 152 150 149 148 147 139 141 139 145 140 145 144 147 153 165 173 186 191 193 187 181 175 165 157 144 129 125 118 119 116 105 105 102 104 103 102 107 106 112 115 113 108 109 103 103 89 76 68 59 51 51 47 51 51 60 62 56 55 56 60 52 54 57 50 47 40 47 64 61 46 50 36 23 14 97 145 175 186 188 188 191 190 187 184 176 168 153 144 138 142 146 149 146 144 143 131 131 130 134 137 142 141 143 145 151 160 169 182 190 195 195 192 183 178 166 150 143 124 124 118 120 118 115 115 112 117 113 112 116 117 120 120 117 119 116 113 110 102 93 85 77 63 63 55 52 48 55 51 67 58 57 59 55 51 52 56 51 47 46 65 55 46 50 36 16 20 111 151 178 189 191 189 191 188 183 176 169 147 139 150 169 179 183 179 171 167 154 141 129 120 118 127 135 137 137 142 148 160 174 189 197 197 198 196 187 179 163 149 133 126 120 119 117 116 116 113 113 115 114 111 113 115 118 119 117 114 118 108 107 105 96 94 88 77 71 58 62 59 56 53 59 56 60 57 56 58 53 58 58 54 48 60 52 47 47 33 16 30 128 158 184 191 194 191 191 184 179 171 153 145 162 170 175 176 168 159 140 142 132 130 122 125 116 113 121 129 132 135 137 153 175 195 202 202 202 198 191 182 163 145 129 123 115 113 117 113 116 112 111 109 106 105 107 104 106 109 105 104 104 103 105 100 100 101 96 90 81 66 51 56 61 57 58 52 55 60 56 56 51 54 58 61 56 59 46 48 48 29 15 50 137 165 188 194 197 195 195 184 180 167 162 165 169 163 144 132 121 103 100 84 90 91 95 108 116 111 109 118 124 129 130 139 167 199 206 205 204 203 194 183 164 144 126 114 112 112 112 114 112 109 105 97 96 107 101 108 109 107 103 101 91 84 87 98 99 99 94 89 88 73 59 41 49 41 48 50 47 53 57 56 48 50 48 56 57 55 45 47 47 35 12 75 143 173 191 198 198 197 194 188 177 173 163 152 131 119 114 142 135 95 85 69 54 60 58 95 97 112 110 106 114 123 123 135 159 196 207 207 205 205 197 184 160 137 120 110 105 110 109 108 106 94 101 105 111 112 104 107 103 101 100 98 95 84 75 74 88 97 91 89 87 78 68 47 44 35 35 42 43 46 53 50 47 47 44 42 53 50 44 50 46 29 21 92 155 180 195 199 200 199 197 190 180 162 140 116 105 112 144 178 152 104 74 57 50 51 55 99 106 103 104 111 113 119 127 135 159 194 207 206 207 205 201 185 156 132 117 104 103 108 106 104 99 101 104 112 103 90 85 67 72 69 68 79 76 79 70 68 66 87 92 87 85 85 74 62 46 31 30 36 41 41 46 45 48 53 46 42 42 46 50 49 43 33 27 114 163 187 196 200 201 202 198 194 184 165 139 126 120 126 165 189 171 112 70 63 58 55 75 114 123 112 103 109 122 130 141 148 167 197 206 207 208 208 199 184 155 132 113 99 103 108 110 103 106 104 99 112 103 78 66 59 55 49 44 58 73 55 62 60 61 74 90 89 84 88 79 68 54 32 23 37 38 38 41 46 44 50 50 52 40 47 45 53 44 19 50 128 172 190 199 201 204 202 203 198 190 178 166 139 126 146 163 182 182 135 87 76 69 65 101 124 130 121 114 115 128 147 161 169 183 197 207 206 209 205 199 178 154 128 118 98 108 113 116 107 98 94 105 137 126 87 54 52 51 46 40 55 92 76 50 48 56 64 82 88 84 86 85 74 59 32 23 32 41 38 33 45 40 47 51 53 47 42 46 50 46 24 60 137 177 195 198 204 205 204 202 203 200 193 185 170 149 152 162 161 168 159 136 118 113 118 119 131 133 127 135 145 157 159 172 184 189 202 206 208 206 207 194 175 150 134 123 111 113 122 119 111 103 108 121 143 155 107 48 63 60 51 48 76 102 101 67 45 38 54 73 88 88 87 89 76 63 34 21 35 34 42 32 38 44 42 45 49 50 46 47 47 44 21 81 143 183 193 202 205 205 204 204 204 202 199 196 186 174 168 169 155 147 142 139 128 124 124 120 124 126 132 134 145 157 165 181 191 202 202 205 206 207 204 193 173 147 139 131 125 121 124 131 136 133 125 125 137 148 132 77 66 59 50 66 94 105 99 72 50 49 52 65 79 91 93 91 82 63 44 24 27 35 40 33 34 37 46 43 46 54 51 45 47 43 20 90 146 185 199 201 204 206 206 204 204 204 201 199 193 186 178 173 164 154 138 137 126 124 121 121 121 127 129 143 149 166 180 192 197 202 204 205 208 205 204 191 172 147 140 139 135 129 133 132 139 140 132 132 127 133 128 109 92 90 83 88 97 96 90 66 55 50 67 64 80 90 99 96 83 67 44 27 28 36 32 40 30 36 43 41 43 46 46 45 49 36 28 96 148 187 200 203 206 206 206 205 206 203 202 201 194 189 181 168 166 154 144 136 130 122 126 130 135 138 143 153 169 182 194 199 200 203 205 206 208 208 204 192 166 145 139 143 145 142 137 138 144 136 138 130 127 118 119 112 104 98 103 95 93 89 78 68 64 67 73 77 84 92 102 101 86 70 41 29 29 36 32 39 30 39 40 44 45 42 50 43 51 35 24 95 150 187 200 205 205 205 206 205 205 205 203 201 201 191 188 178 173 164 157 149 143 144 149 151 152 156 160 181 189 200 201 201 202 204 205 208 208 207 204 189 162 147 140 146 149 150 147 148 149 146 136 134 129 121 122 118 110 108 103 109 98 99 90 80 85 85 85 86 93 94 101 106 93 68 45 30 26 37 35 30 36 37 39 40 42 46 44 44 54 33 21 93 151 187 198 203 205 206 205 205 205 205 205 203 202 200 197 196 192 191 182 180 171 172 166 165 167 176 187 200 201 203 202 203 203 205 208 207 207 207 203 185 164 143 141 146 151 153 159 159 162 155 146 135 128 127 125 122 117 115 115 113 111 110 104 101 99 100 97 94 98 101 109 107 102 72 47 33 29 36 31 34 38 38 34 41 39 42 47 45 51 36 10 89 146 185 196 204 205 205 207 205 206 204 206 205 204 203 202 203 200 200 196 193 188 185 180 182 187 196 199 205 205 204 204 202 204 206 207 206 208 207 203 183 163 143 141 146 148 154 161 167 170 166 157 143 139 130 128 123 120 116 119 114 117 114 111 112 107 109 104 106 102 109 112 115 106 81 47 36 29 34 35 33 36 39 37 33 43 40 49 51 50 38 12 78 147 180 198 202 207 205 204 205 205 206 206 206 206 206 205 204 203 205 201 202 200 197 196 199 201 203 204 205 205 204 204 204 204 207 206 207 208 205 201 182 161 148 144 144 148 150 162 169 177 177 171 160 152 142 141 133 128 126 123 121 119 123 119 120 118 119 117 114 111 113 119 120 114 88 47 40 35 34 38 33 39 39 38 35 37 39 45 50 49 38 10 71 142 179 194 202 204 205 206 205 206 207 206 206 207 207 206 206 207 205 207 204 205 202 204 204 204 205 206 205 205 203 205 204 204 206 207 206 208 207 196 183 164 147 145 142 147 149 159 169 181 183 184 174 170 156 156 148 146 140 140 135 133 135 133 136 136 134 133 122 124 117 122 123 115 94 50 37 35 37 40 35 38 41 38 39 35 31 49 49 48 38 13 46 134 177 195 198 203 205 204 205 205 205 207 205 206 206 207 206 207 207 206 206 207 206 206 204 204 205 204 206 206 203 206 204 204 206 207 207 207 202 198 184 166 151 146 144 142 148 156 167 177 182 185 188 182 176 173 169 167 159 159 157 152 153 153 153 153 149 146 140 128 130 123 124 118 99 58 37 37 33 43 33 31 36 41 44 35 31 49 50 44 35 13 33 121 171 192 199 204 203 205 206 204 206 205 207 207 208 206 206 207 205 205 206 206 206 204 206 204 204 204 206 205 204 204 203 206 206 209 207 205 203 194 184 168 155 148 145 137 146 152 165 175 179 182 188 188 185 186 182 180 179 175 176 173 169 173 171 165 165 156 148 138 130 127 127 117 103 61 38 31 40 38 34 25 42 33 41 45 32 47 49 45 36 21 21 106 169 190 200 202 205 204 206 204 206 206 207 206 207 206 207 207 206 207 205 204 205 205 203 203 202 205 205 205 204 204 206 207 206 207 206 206 201 196 186 173 162 150 145 137 141 149 161 174 179 181 185 186 188 189 187 187 186 184 185 184 183 179 180 174 168 163 154 144 137 132 129 119 104 62 38 27 44 37 31 30 29 41 33 43 46 46 51 44 39 24 14 95 157 187 200 202 203 205 205 206 207 205 207 205 208 206 206 208 206 205 204 202 203 200 202 201 203 201 203 204 203 204 207 206 206 208 207 205 202 197 188 178 167 153 144 137 132 143 154 173 181 182 187 186 188 188 192 189 189 191 187 189 189 184 183 178 175 164 159 149 142 137 132 120 107 62 36 26 44 43 32 27 26 39 37 34 37 46 51 47 41 30 12 79 152 185 198 201 203 203 207 206 206 206 207 204 207 207 206 207 207 204 203 200 196 194 196 198 198 198 201 203 203 205 208 206 207 206 204 205 200 197 190 181 166 153 145 138 129 133 149 169 175 180 185 188 188 191 189 191 191 191 192 190 186 184 185 179 173 166 156 149 149 140 133 120 101 59 30 28 37 42 34 30 22 35 39 36 35 44 48 46 38 32 15 74 141 181 193 199 203 202 204 205 208 206 204 205 205 205 206 207 205 204 202 193 181 189 192 192 190 193 201 204 204 205 208 209 207 205 205 203 199 195 191 180 161 150 140 146 137 128 140 162 175 178 181 187 188 190 189 191 191 190 190 189 187 183 184 180 173 166 156 147 149 142 132 120 94 47 28 33 40 28 44 30 27 29 35 35 40 43 52 45 40 33 12 63 140 175 192 196 200 202 203 204 206 206 205 206 205 205 206 205 204 203 200 194 185 185 187 187 185 188 204 205 203 206 208 207 206 205 202 199 196 193 186 175 155 144 142 142 148 131 133 156 169 176 182 181 187 188 187 193 190 190 190 187 186 184 181 178 171 164 157 146 145 141 134 117 85 40 29 31 40 31 39 38 27 28 36 32 39 46 50 44 38 36 15 52 135 170 188 195 199 201 202 203 206 206 206 205 204 206 205 203 203 202 200 196 187 187 184 183 183 194 202 205 205 201 203 204 206 201 201 196 192 185 173 162 146 137 138 144 150 137 132 149 165 172 180 180 184 185 186 187 189 188 190 186 186 181 178 175 164 159 156 146 144 137 129 112 70 39 31 33 35 37 31 43 30 21 36 28 33 48 48 47 40 27 27 44 132 168 187 193 195 202 201 203 206 204 205 205 204 204 204 203 202 201 200 195 188 184 182 181 191 194 202 203 203 193 193 199 197 196 192 188 184 171 155 142 133 134 137 138 145 136 128 144 161 170 175 177 178 182 184 185 187 186 188 182 185 177 174 168 163 155 151 147 140 134 127 96 59 39 28 42 35 35 30 43 36 22 33 34 26 50 49 47 36 34 25 39 129 164 187 193 197 198 201 203 204 204 207 204 203 205 203 201 203 195 196 192 187 181 182 187 192 201 200 198 195 179 170 186 192 188 182 174 166 152 137 124 125 135 136 142 140 134 131 144 156 162 169 171 174 178 180 184 186 185 184 179 177 175 168 166 160 150 149 143 141 129 112 88 57 39 33 38 38 34 27 40 35 28 28 39 35 45 51 47 41 28 33 43 123 162 184 192 194 196 200 201 203 203 204 203 203 201 201 201 199 196 193 190 185 180 186 191 200 202 202 195 179 147 124 162 185 179 169 156 150 141 123 102 101 125 132 134 132 133 133 142 152 158 163 169 171 176 179 181 183 181 178 175 174 169 163 161 155 150 144 140 133 123 106 79 56 30 38 38 32 35 30 34 37 29 28 37 40 43 49 43 41 36 27 48 118 160 182 190 195 195 197 200 201 203 202 202 202 201 199 197 198 192 191 187 184 184 191 197 201 202 202 201 184 150 122 139 172 170 154 140 137 122 106 78 69 104 127 128 130 134 135 143 147 151 156 164 169 172 176 176 175 181 174 173 170 167 162 161 153 149 139 133 127 117 102 73 48 32 36 39 33 30 32 34 40 26 29 40 44 44 46 44 37 35 31 27 112 159 181 188 192 195 197 198 201 202 201 202 201 200 197 195 193 189 187 187 186 190 195 198 201 202 205 203 198 180 162 157 166 169 152 136 128 112 104 88 79 96 119 126 128 137 136 142 144 145 151 156 165 168 171 177 171 175 171 169 165 165 160 154 152 145 134 131 124 114 95 62 43 37 36 38 30 32 36 42 40 30 28 38 44 40 48 40 37 39 27 6 98 160 180 189 190 196 196 199 198 201 201 201 199 197 196 192 193 186 185 189 191 196 197 200 201 205 204 204 201 192 181 177 175 170 156 136 124 114 112 103 103 102 119 127 134 137 140 140 141 145 150 154 162 164 168 168 169 166 168 167 163 162 158 155 144 142 130 127 121 109 83 58 39 36 35 33 28 31 47 43 36 37 33 38 46 44 47 42 38 38 33 8 80 158 182 188 193 193 199 197 197 201 201 200 198 198 194 193 188 189 188 194 198 198 200 200 204 203 204 203 203 198 191 188 187 176 155 136 125 124 117 115 111 116 123 133 135 138 141 142 143 145 152 151 157 160 163 162 168 166 161 164 160 160 153 147 143 135 125 125 116 103 75 53 37 39 34 27 23 41 45 41 31 37 33 41 42 46 46 46 38 37 35 10 70 154 183 189 195 195 196 197 197 200 198 200 197 197 193 191 191 192 196 196 197 200 200 202 203 205 204 204 203 201 197 197 195 181 153 140 132 135 127 126 127 126 131 136 138 143 142 145 145 150 156 158 154 159 157 158 166 160 159 158 156 153 148 144 137 132 124 123 111 96 73 49 35 36 32 21 23 40 40 35 37 37 36 39 45 45 47 41 40 38 36 14 48 148 181 193 194 196 196 196 197 200 198 199 198 196 194 190 193 193 198 199 198 200 201 203 204 204 203 204 204 203 200 201 202 178 156 148 144 146 133 134 135 136 136 140 141 141 142 146 151 152 160 159 157 154 157 158 160 160 157 154 153 149 142 136 133 129 123 118 105 88 71 46 35 34 27 21 27 35 44 32 39 33 38 38 41 51 46 42 41 32 37 20 40 143 179 190 196 198 197 194 199 198 200 198 197 196 194 193 195 197 197 200 200 202 202 203 205 203 203 203 204 203 201 203 198 181 160 155 154 148 138 137 139 145 138 144 142 145 141 147 148 154 157 162 159 159 159 159 156 155 157 152 152 145 138 132 130 128 122 113 100 87 66 49 33 32 21 21 30 31 39 31 39 35 36 43 42 55 48 35 41 33 36 23 31 133 175 192 196 196 197 196 197 199 198 196 199 196 195 194 197 197 199 200 204 204 203 204 204 204 202 203 204 203 202 201 196 175 158 163 159 148 135 141 141 145 139 142 145 146 146 147 149 150 156 159 163 160 161 158 153 154 152 149 146 143 138 131 131 126 122 112 96 84 62 45 31 27 15 21 33 33 34 35 37 36 38 43 40 58 42 35 39 36 33 30 20 121 172 188 195 197 197 197 198 200 199 197 201 199 194 197 200 198 200 202 203 204 203 204 204 204 204 203 203 202 203 202 195 176 168 173 168 150 136 138 144 143 144 143 147 148 151 148 146 149 154 156 160 159 161 156 153 148 149 145 143 139 138 133 128 128 117 112 91 79 63 41 26 22 18 20 35 34 26 41 33 36 40 40 36 58 44 37 35 38 31 35 15 106 171 188 196 195 197 196 197 200 200 200 202 201 198 197 200 198 200 200 200 201 202 203 202 202 200 200 199 196 193 191 189 179 177 185 179 155 143 136 148 144 146 148 148 146 149 149 147 147 153 156 153 158 156 156 149 148 145 146 144 142 137 133 128 126 117 104 95 74 64 32 29 22 21 21 33 36 30 34 41 37 44 35 34 53 44 33 34 38 31 32 9 82 167 184 193 195 196 198 198 200 201 202 202 202 200 198 200 194 195 190 189 187 192 191 187 188 179 179 174 168 164 163 167 170 173 170 158 140 133 132 142 142 144 143 144 142 144 148 144 147 152 149 154 154 152 142 147 146 145 144 144 139 135 132 127 125 112 102 90 76 52 36 18 23 24 26 28 35 37 25 44 45 43 36 30 53 41 29 34 37 35 33 10 51 156 182 190 193 196 197 199 198 201 201 203 203 202 198 197 188 180 168 146 143 154 157 159 153 150 153 145 145 138 139 144 144 141 130 115 112 110 115 123 124 130 136 135 136 139 142 144 145 149 149 151 151 151 147 146 150 149 142 143 137 135 128 127 122 112 100 89 72 49 30 28 14 27 32 29 41 36 25 37 56 43 33 30 49 33 32 31 31 38 31 21 18 136 179 187 192 195 198 199 198 201 201 202 202 201 198 191 184 177 164 141 114 124 135 138 138 141 138 136 138 134 131 129 124 115 106 100 98 101 102 100 103 105 116 117 121 131 134 136 143 146 148 152 150 154 153 148 150 152 142 138 139 132 132 127 121 106 98 88 68 43 19 24 26 23 36 32 38 35 28 30 58 51 31 27 45 34 32 27 28 39 30 29 13 106 168 185 193 194 196 198 198 199 202 200 203 202 197 190 189 189 191 184 156 140 149 149 143 141 128 119 119 121 119 117 111 105 96 97 100 100 102 94 98 92 99 97 102 103 116 121 131 142 147 152 153 153 155 152 152 149 144 140 134 133 129 127 117 105 97 85 65 41 20 20 30 31 37 32 37 33 29 28 52 50 38 28 39 36 32 33 24 35 32 31 10 70 157 181 190 197 194 197 200 198 200 201 202 200 196 192 193 197 196 199 191 176 178 179 177 166 147 129 112 105 105 104 103 97 89 89 92 92 89 93 90 89 89 88 85 82 89 95 115 133 144 152 153 153 159 156 152 149 143 138 135 131 130 124 113 103 93 80 61 29 26 26 29 35 28 31 28 34 33 31 47 45 41 30 39 34 33 29 27 33 30 29 19 33 138 171 187 194 193 194 199 199 196 201 199 197 192 196 196 200 202 200 196 189 181 181 187 186 179 165 144 128 119 110 108 99 99 96 94 100 99 101 96 92 90 86 79 81 84 95 108 125 138 148 151 155 159 158 151 149 143 137 137 128 128 122 113 99 88 71 47 27 25 30 33 27 29 27 25 33 32 34 42 48 42 39 36 36 32 27 30 35 26 27 27 8 90 160 180 191 192 194 195 196 196 199 198 197 194 197 200 201 202 201 200 192 186 181 183 188 182 180 171 162 154 146 144 137 143 137 132 130 129 121 116 111 103 99 102 103 118 123 125 128 137 145 154 158 159 156 147 147 142 139 134 131 124 121 107 97 84 65 36 29 29 29 36 20 29 24 29 29 32 32 52 48 39 43 39 37 30 28 33 32 34 24 27 14 39 140 175 184 190 191 193 194 193 197 197 195 197 199 200 202 202 203 201 195 185 181 178 177 169 165 163 162 159 153 157 154 151 148 140 131 124 119 114 112 109 113 113 119 129 133 134 137 140 145 153 156 156 151 146 141 137 135 130 129 121 116 102 92 75 50 31 29 36 33 27 24 27 28 28 31 32 32 51 54 31 48 38 37 32 28 31 35 31 29 22 21 15 95 163 180 185 190 190 191 195 194 198 195 198 199 202 201 202 200 200 196 187 181 180 165 160 152 152 154 146 141 143 140 137 137 125 121 114 119 117 121 118 120 121 130 136 145 146 143 141 144 150 153 151 148 142 140 133 133 125 127 119 110 101 82 62 34 29 30 40 26 22 25 28 25 29 36 32 36 49 57 31 41 42 36 30 30 30 36 38 30 26 22 16 36 141 172 185 189 190 192 193 194 197 198 198 199 200 200 201 199 200 196 197 184 182 165 158 150 144 147 137 134 132 131 127 125 120 117 117 125 123 125 118 125 130 138 148 151 148 142 142 141 145 147 145 144 137 136 129 128 125 120 114 106 92 74 49 27 33 35 36 26 22 27 25 32 34 36 34 36 49 59 31 36 45 31 31 33 32 31 38 31 27 25 26 6 81 155 182 188 189 190 192 194 195 199 200 201 197 199 199 200 199 199 196 192 184 170 159 145 141 136 129 128 121 120 120 115 117 114 121 120 122 124 129 133 141 144 150 150 142 140 139 138 140 138 140 136 133 133 129 124 122 113 114 100 84 58 30 32 31 28 36 27 24 28 32 30 37 41 31 36 47 57 32 29 39 33 34 34 31 34 41 35 30 24 23 12 21 117 172 183 187 189 190 193 196 198 200 202 200 200 199 197 196 198 195 194 188 178 164 150 139 129 128 121 116 115 117 114 120 118 120 128 127 128 135 138 140 146 147 144 137 130 131 137 139 137 136 129 131 125 125 121 118 112 104 92 68 40 32 34 25 24 33 34 20 31 34 37 39 39 34 40 46 57 33 38 36 31 30 34 35 33 41 34 32 24 22 20 7 53 154 176 185 188 190 193 193 198 199 201 201 200 200 199 196 198 194 194 191 182 169 158 146 140 136 135 127 123 124 125 126 127 127 131 134 135 137 142 139 146 143 143 136 135 132 137 137 132 130 127 127 126 121 121 114 108 101 77 52 31 37 31 23 25 28 36 24 35 38 40 41 34 35 43 49 46 35 36 39 28 30 32 34 37 35 40 30 23 24 20 18 9 118 158 180 185 189 190 191 194 196 200 201 200 202 200 199 196 196 193 191 184 172 167 154 150 143 143 134 133 134 131 133 132 136 137 140 142 137 142 138 141 144 144 142 139 137 135 131 129 128 125 124 121 122 117 113 103 86 57 42 28 39 25 22 26 24 32 34 41 38 40 36 37 36 46 53 39 37 34 42 32 24 35 34 37 34 41 30 26 23 23 14 6 78 131 166 180 184 187 187 192 194 200 202 202 201 202 199 200 199 194 193 186 181 174 165 158 147 144 139 136 137 134 136 140 138 140 142 141 143 140 139 143 144 145 143 139 132 129 126 125 123 124 122 120 116 112 106 91 68 44 30 34 38 23 21 26 27 28 41 43 39 31 38 40 42 44 56 33 36 39 40 35 27 27 35 39 40 36 31 22 23 24 17 7 70 104 140 167 178 183 183 185 192 196 200 202 201 203 202 203 200 198 194 191 187 185 176 170 161 155 144 143 138 139 144 139 142 141 145 145 143 142 144 146 150 148 141 138 131 124 125 123 121 121 119 115 114 105 96 71 49 36 35 33 33 19 18 27 26 33 38 39 41 33 41 37 42 48 49 32 35 39 49 37 29 26 37 41 40 39 30 28 21 21 20 7 62 100 114 143 165 175 182 180 186 193 199 202 203 203 202 203 203 201 200 196 196 193 189 186 181 171 165 155 151 148 147 147 146 148 149 147 148 144 150 149 151 146 140 135 127 121 122 117 123 116 116 113 106 98 76 57 37 35 37 37 30 18 23 26 29 32 40 36 40 36 41 37 41 44 40 33 37 38 52 42 32 26 36 39 47 36 31 24 29 18 24 9 59 102 109 121 142 163 173 180 181 189 198 201 201 204 203 204 202 205 201 202 201 198 197 194 192 187 181 177 169 165 165 159 159 159 160 153 154 151 150 153 152 145 138 130 124 119 120 118 117 110 116 104 100 77 62 41 40 38 35 37 28 19 27 28 34 34 34 37 40 38 36 37 41 41 43 31 37 34 43 46 32 30 32 42 46 36 30 25 28 20 20 14 49 104 114 116 118 141 160 172 174 181 193 200 201 203 203 203 203 202 202 202 201 200 197 194 194 190 188 188 184 179 178 174 172 170 167 163 160 155 153 155 149 143 133 127 119 118 112 116 110 112 104 96 80 58 50 42 42 39 39 38 25 22 26 37 30 34 39 33 39 36 36 34 37 44 42 36 34 29 37 43 36 30 30 42 47 37 26 30 28 21 23 10 50 99 121 119 117 121 138 157 167 170 184 194 200 201 201 203 202 202 203 201 201 194 193 191 187 190 181 188 184 185 182 180 176 174 171 164 161 153 152 147 145 135 126 118 115 111 110 112 107 103 91 77 59 51 50 41 41 40 43 33 26 26 33 32 31 37 37 34 38 38 35 31 35 42 41 39 32 29 34 36 42 27 35 41 43 40 28 28 27 20 23 18 45 94 117 127 122 120 118 131 149 158 174 186 195 197 197 200 197 200 199 197 193 190 189 183 182 178 180 182 184 183 180 182 178 169 164 164 156 154 148 143 138 128 118 112 110 105 104 105 97 88 72 63 58 50 52 40 47 37 40 39 30 35 32 31 31 40 36 37 32 35 30 27 38 35 42 42 29 34 35 34 37 31 35 41 38 42 31 29 24 21 24 25 35 92 115 125 127 129 122 115 127 141 159 175 189 190 191 192 192 191 190 189 185 183 179 172 171 170 174 177 177 178 174 173 168 161 155 154 154 147 144 138 128 121 113 105 102 103 98 91 79 75 65 59 57 51 48 44 44 37 42 43 36 36 28 30 37 35 36 35 33 31 25 32 32 39 40 41 29 35 38 32 36 31 40 39 38 37 33 30 25 22 30 22 31 88 114 125 127 133 128 121 116 121 138 153 174 183 176 177 177 182 177 175 174 171 164 163 158 163 167 168 167 166 165 156 152 150 147 145 147 140 136 127 121 110 106 95 95 93 85 78 70 63 68 60 58 53 49 46 41 39 41 46 40 25 29 31 37 37 33 33 33 31 28 28 32 41 39 39 32 35 34 32 37 36 38 40 38 37 35 29 29 30 29 26 27 76 115 118 130 127 136 127 120 118 121 132 148 165 165 163 162 168 165 158 156 156 151 149 148 152 154 157 155 155 152 144 143 140 141 138 137 132 126 119 109 102 96 91 85 82 69 73 68 67 66 61 60 54 45 46 41 42 45 41 36 27 29 37 33 31 34 33 40 33 29 29 29 38 40 40 37 34 39 40 35 38 41 40 38 40 35 34 32 37 35 26 20 73 108 121 128 132 132 137 126 122 121 117 129 141 152 156 150 152 148 141 139 138 134 136 137 140 140 140 141 134 132 132 128 131 130 126 127 121 115 105 94 92 87 84 78 74 74 73 72 66 67 62 55 51 48 46 46 45 42 32 36 26 33 36 35 32 38 43 37 35 36 26 29 33 42 44 43 34 43 39 34 36 37 39 41 37 37 33 38 30 33 29 18 64 106 121 127 132 132 134 130 133 122 121 120 125 128 138 140 136 135 130 130 126 124 122 126 125 127 126 128 122 124 123 122 120 119 117 115 107 98 93 87 83 84 76 79 75 75 70 72 70 64 59 59 48 51 50 46 40 40 24 31 31 31 38 40 36 47 49 40 33 38 28 26 36 41 48 48 33 47 41 42 36 39 42 38 38 41 38 38 32 38 21 19 59 98 118 126 130 132 132 133 132 130 126 124 122 126 127 128 127 127 121 117 120 116 112 119 112 118 115 118 115 114 111 114 109 109 108 97 95 91 87 84 86 85 80 79 80 73 76 70 68 64 64 56 51 52 49 47 39 37 24 32 31 33 46 42 43 47 52 43 44 42 27 34 38 42 46 50 42 48 44 42 39 39 46 40 38 41 40 41 35 34 29 13 54 97 114 124 127 131 134 133 131 132 129 130 127 124 128 129 128 130 124 121 116 115 112 112 106 109 107 106 107 107 100 102 98 96 94 90 90 88 88 89 88 87 85 82 73 76 76 68 70 65 64 55 53 50 51 46 41 31 31 33 33 40 43 38 36 46 48 48 44 46 32 36 44 40 42 56 46 48 43 45 39 42 47 45 39 46 38 41 35 32 31 12 47 89 108 121 126 128 132 132 135 128 130 131 129 128 126 129 132 133 133 130 122 124 114 115 112 105 104 104 102 100 98 96 95 98 92 95 89 95 92 94 90 90 81 81 76 77 75 69 68 72 61 57 53 51 52 47 41 35 32 30 35 38 36 32 37 47 47 44 48 47 31 48 46 43 39 55 50 51 54 44 41 40 50 49 42 43 39 38 38 31 33 11 40 90 103 114 127 126 130 130 131 130 129 132 134 132 130 130 132 131 137 134 128 131 120 122 115 112 108 105 106 102 103 97 104 100 99 99 99 98 97 95 95 91 84 81 79 76 75 71 74 69 67 57 57 55 49 46 43 38 28 32 34 35 36 30 31 48 48 40 48 44 37 51 53 40 41 47 47 57 55 51 42 47 48 50 46 41 38 39 35 37 32 15 36 85 102 111 122 126 129 128 128 129 129 129 132 133 134 130 133 134 134 135 133 128 127 124 120 118 116 107 109 106 107 105 106 106 105 104 101 101 96 95 91 89 85 80 79 77 75 72 75 67 66 62 55 60 53 47 41 36 28 27 33 37 37 30 30 44 52 47 47 47 38 48 49 42 41 43 45 62 57 51 44 48 51 57 49 40 37 36 39 37 33 13 38 78 102 115 118 123 127 131 128 131 132 129 131 131 134 135 130 133 134 131 132 131 128 129 124 119 118 112 111 109 108 108 109 105 109 104 104 99 101 92 93 85 88 82 80 81 74 76 76 68 65 61 57 63 54 47 43 35 28 27 33 39 36 30 27 46 49 57 45 48 41 46 45 41 44 41 39 57 58 55 49 47 57 57 58 39 40 33 41 39 32 17 32 71 99 115 120 118 125 126 126 128 132 129 128 130 131 134 132 135 130 132 128 128 133 124 127 122 119 114 113 108 110 110 109 109 106 104 104 100 95 93 93 87 86 82 78 80 77 78 71 68 65 63 64 62 56 50 40 36 30 28 30 40 37 35 25 44 58 56 47 41 55 43 49 45 41 40 35 