P2
92
112
255
114 115 115 113 112 112 111 108 111 107 105 98 96 99 112 97 80 88 78 67 52 53 49 42 50 56 39 51 55 54 52 53 60 55 61 62 57 43 50 47 49 48 39 46 44 48 52 56 62 64 70 60 64 56 60 59 62 63 58 59 58 56 46 54 75 76 101 109 105 90 85 91 81 101 111 105 108 113 110 110 110 111 110 110 106 111 111 109 107 110 106 109 114 114 112 114 114 110 110 110 106 109 112 102 94 94 93 98 84 81 77 65 55 47 45 41 41 51 48 47 46 46 51 47 49 59 57 58 56 50 35 38 41 38 35 39 37 30 39 37 46 53 57 60 61 61 63 54 55 62 56 59 56 49 40 40 44 46 55 76 90 97 90 81 86 86 99 110 108 109 111 111 112 110 109 109 109 110 110 111 111 110 111 106 115 112 112 112 115 105 107 103 104 109 107 106 98 98 91 91 89 77 73 59 50 45 45 42 45 47 50 43 45 41 44 46 50 51 49 57 47 49 40 34 37 37 32 34 29 27 30 28 34 35 40 42 48 53 50 48 47 52 51 44 49 44 37 37 32 34 38 49 54 68 88 90 82 93 89 98 110 108 109 107 110 110 110 109 109 111 109 109 110 110 109 107 112 111 111 109 110 102 104 108 106 111 103 104 102 99 94 83 91 72 60 63 46 44 40 45 45 47 47 41 47 41 39 43 47 48 43 43 52 45 43 36 38 36 36 34 28 33 26 27 28 32 30 24 28 29 32 34 36 38 38 40 40 32 35 33 39 36 34 36 48 47 49 72 89 82 90 90 99 104 107 108 109 109 109 109 110 110 109 109 111 111 108 111 109 108 113 101 108 105 102 104 108 108 105 103 95 93 91 87 76 60 47 55 55 49 39 44 42 37 43 44 37 43 39 37 45 46 46 40 40 46 45 40 41 39 34 39 31 29 29 27 33 28 30 32 35 35 35 38 39 39 31 35 38 36 32 29 29 28 30 36 33 32 38 39 49 71 81 83 90 94 111 110 106 105 106 112 110 111 109 108 109 108 110 109 113 105 109 108 112 105 100 101 101 102 101 95 94 83 85 78 60 54 54 45 53 58 48 47 43 40 38 41 44 37 41 44 43 42 46 43 40 43 46 45 48 42 38 41 41 44 35 37 44 52 54 47 34 41 40 36 43 41 48 35 44 36 42 41 36 30 26 26 31 33 32 33 32 36 53 68 80 94 95 106 113 104 106 106 111 107 109 109 108 109 106 108 108 108 109 110 106 105 95 93 92 95 89 90 91 84 75 73 59 59 61 56 51 56 54 52 51 45 50 42 42 41 39 41 44 49 52 47 49 52 39 47 52 39 47 48 55 57 50 46 54 71 66 54 56 52 47 42 43 41 49 47 44 38 35 43 46 40 39 35 31 33 27 33 36 36 36 43 55 71 88 107 106 110 106 108 108 108 108 111 105 112 108 110 111 112 109 107 101 93 83 90 94 92 87 96 96 75 69 65 60 59 59 56 57 62 61 56 56 52 55 48 53 50 45 48 47 46 54 56 58 58 56 54 58 55 49 49 65 65 58 57 63 69 78 77 50 59 58 42 42 38 40 46 53 47 47 44 43 44 45 37 39 42 38 35 32 33 33 37 42 50 63 85 109 105 104 109 108 111 109 109 110 107 112 108 114 108 108 90 85 91 85 99 98 88 96 102 82 65 58 63 69 69 66 59 61 66 70 65 58 55 61 55 57 57 57 57 55 56 55 62 62 62 67 65 70 72 68 59 63 80 61 70 65 67 63 82 82 64 59 58 49 41 43 41 43 45 47 49 55 52 43 46 46 46 43 38 39 39 35 35 37 41 44 49 91 100 107 101 108 109 109 109 109 110 110 108 115 113 92 88 94 98 98 100 100 93 97 102 83 81 84 78 78 70 70 72 71 66 67 65 61 58 60 63 66 72 72 69 68 73 69 75 74 73 78 81 83 92 83 85 75 82 79 74 69 66 63 67 85 89 77 56 58 51 37 46 42 43 44 41 50 53 50 52 54 52 50 48 48 41 41 40 42 39 48 38 50 74 103 104 102 106 108 110 109 111 106 109 118 106 85 95 99 100 92 88 90 96 99 90 84 86 90 85 80 75 71 65 63 55 55 52 54 58 67 73 68 76 82 89 94 97 96 103 101 105 109 99 101 111 116 114 111 102 101 92 86 76 68 53 68 82 95 82 62 50 57 39 51 38 41 46 44 48 51 50 50 56 49 48 45 50 46 50 52 47 53 40 47 47 66 98 104 100 102 106 111 110 108 110 119 101 89 97 96 95 84 88 82 89 87 80 78 74 73 69 69 70 66 61 54 61 57 61 68 76 78 84 85 90 105 114 123 128 127 125 127 130 132 139 131 138 131 140 140 124 117 120 108 91 71 65 56 64 74 82 83 63 44 52 49 52 45 42 44 50 43 48 46 52 50 48 42 38 38 41 49 62 52 57 46 50 62 53 85 110 101 101 103 109 107 110 103 93 97 86 92 87 84 86 79 80 74 67 66 72 77 67 60 59 61 53 59 69 72 78 85 89 98 108 114 122 130 143 139 149 157 162 158 160 159 158 161 162 163 155 161 152 139 137 131 111 93 78 55 54 55 68 71 70 71 52 50 54 54 52 43 46 41 47 45 50 54 44 52 47 42 33 30 40 48 50 61 46 44 60 57 68 104 104 101 105 107 107 94 84 85 86 92 91 88 80 70 72 71 70 69 66 65 64 61 57 49 58 68 77 85 87 100 108 119 126 140 155 161 168 165 164 172 176 177 177 181 183 179 180 182 182 178 173 173 158 150 141 120 98 71 55 53 54 64 61 64 72 64 55 52 55 53 46 38 48 43 50 46 49 52 50 48 51 39 36 31 34 53 54 37 46 63 66 69 96 104 103 99 109 87 77 85 94 92 82 70 71 69 57 60 62 63 62 63 61 49 44 47 66 86 92 92 104 119 127 131 142 159 163 173 176 181 184 187 186 187 187 187 191 186 184 188 190 189 184 186 179 165 161 148 126 102 78 65 54 56 65 53 61 64 68 60 57 56 51 44 41 43 54 46 40 39 52 59 54 50 50 40 34 35 41 41 36 41 61 74 63 85 105 105 100 82 85 83 97 84 69 61 65 62 60 62 63 64 62 58 45 41 47 64 86 100 107 113 127 141 144 154 159 172 180 183 185 187 192 192 195 194 190 194 194 191 189 191 192 194 193 187 189 180 174 169 157 136 114 91 72 62 64 64 50 55 60 58 66 61 59 53 51 45 43 54 47 41 34 44 58 50 50 52 52 48 34 40 49 40 40 57 76 52 72 105 105 94 86 82 86 74 67 61 55 63 61 64 61 60 58 54 39 47 55 85 101 108 119 132 142 154 161 171 178 184 187 191 192 196 194 195 197 197 194 196 197 194 194 196 193 197 195 194 189 185 179 177 176 163 150 119 96 76 71 66 65 54 53 60 52 54 67 64 60 62 53 44 53 57 44 47 40 48 49 54 49 55 52 42 43 54 48 38 46 61 48 58 100 90 79 72 74 68 62 59 60 56 68 64 59 51 40 44 48 55 76 93 110 119 133 146 157 171 175 184 191 190 193 198 197 194 192 199 198 201 196 199 200 197 196 199 196 198 197 196 193 191 182 181 184 178 171 158 127 102 83 76 74 57 56 61 55 46 54 54 55 64 66 60 50 47 57 57 53 45 41 50 51 51 49 65 49 46 46 45 44 44 48 38 39 75 74 63 61 63 58 65 61 66 66 59 54 47 45 47 52 66 90 107 119 133 151 166 178 184 186 192 192 196 197 199 199 197 193 199 202 202 201 200 200 201 198 199 199 200 197 199 193 195 185 185 189 186 181 176 161 138 105 89 86 74 64 55 62 56 52 48 52 46 65 61 61 57 60 60 58 55 54 49 49 49 52 49 57 57 49 42 37 44 51 67 47 64 66 64 61 58 59 61 60 60 52 47 45 47 44 49 59 79 103 116 132 156 171 184 187 186 191 195 197 196 198 200 201 202 199 201 204 203 202 202 202 202 201 200 200 200 200 200 195 193 189 191 192 189 187 185 174 164 138 110 94 85 73 65 56 60 56 47 48 49 49 54 53 58 58 60 62 52 58 47 50 47 50 55 49 57 56 46 44 37 40 59 78 62 61 62 59 55 58 62 61 58 53 52 48 49 46 54 71 97 118 133 159 177 185 190 193 188 192 199 200 192 195 201 202 202 202 202 204 204 204 204 205 204 202 202 202 202 200 200 196 197 193 190 194 191 190 187 185 176 163 143 115 95 86 71 58 59 55 56 48 52 49 41 49 51 49 51 50 51 51 46 54 51 45 50 52 54 56 60 41 46 37 48 66 57 55 57 51 50 52 56 61 54 56 50 48 51 56 65 90 117 136 155 177 186 191 191 197 195 195 200 200 195 196 202 203 203 203 203 205 203 205 204 206 206 205 203 203 203 200 200 196 198 196 189 195 190 190 190 187 184 175 163 143 115 93 83 65 54 69 52 55 52 53 47 45 49 48 39 46 41 45 44 44 46 44 48 46 46 48 58 58 41 46 44 48 57 49 43 38 42 46 59 51 46 54 52 53 65 69 84 115 141 160 172 186 190 194 198 197 199 201 199 200 200 201 202 205 203 205 204 206 206 205 205 203 207 205 203 202 204 201 199 200 198 197 192 190 193 192 190 190 185 179 182 163 145 118 90 81 55 67 68 57 55 48 52 52 39 51 44 39 41 36 41 39 41 31 36 39 48 41 45 45 55 49 39 43 44 45 46 38 49 47 53 50 55 50 54 61 69 78 112 144 158 170 180 188 192 197 200 199 200 200 202 201 202 202 202 205 204 205 204 205 204 204 207 206 203 206 203 204 204 201 201 200 200 198 197 190 192 193 191 193 189 185 185 182 163 146 120 90 68 49 72 69 60 56 49 58 52 42 42 45 41 35 39 35 42 41 32 23 32 41 37 41 41 40 50 44 46 49 46 46 55 67 61 51 47 50 64 76 83 104 137 157 169 178 187 190 195 199 200 200 199 201 201 202 201 202 202 203 205 204 206 204 204 205 205 205 203 205 203 203 201 202 202 200 199 197 198 196 188 192 196 194 193 191 189 183 178 160 140 113 81 56 53 79 68 57 54 52 59 49 38 39 43 42 39 31 36 38 43 31 22 27 35 32 42 42 46 47 47 49 42 44 56 61 59 52 55 50 73 82 104 124 149 162 173 181 188 193 197 198 200 200 200 202 201 202 202 203 202 202 204 204 204 205 203 205 205 205 204 204 203 205 203 201 203 201 201 199 199 199 196 190 195 195 194 192 191 184 184 174 155 137 98 75 48 63 81 66 61 52 54 58 52 36 41 43 43 41 31 35 37 38 29 27 23 28 29 45 45 42 44 44 37 52 59 55 53 51 55 63 81 95 116 136 155 165 175 183 189 194 198 199 201 200 200 201 202 202 202 202 204 203 204 204 202 205 205 204 204 204 205 205 203 203 205 202 200 203 201 198 203 198 199 195 192 196 194 193 190 185 184 184 165 156 124 89 61 53 63 84 73 62 47 58 58 54 35 40 45 46 44 37 34 41 39 26 31 22 24 34 43 41 38 41 53 56 52 48 54 49 59 74 88 103 125 154 165 169 180 190 193 197 202 200 200 203 201 202 202 200 202 201 203 205 203 203 203 203 205 204 204 205 203 204 204 203 203 202 203 202 202 202 201 202 200 198 194 197 195 196 190 187 186 183 175 159 150 120 76 61 44 75 86 76 66 52 56 57 65 37 36 46 52 43 30 41 56 39 30 32 30 32 37 46 52 55 62 55 48 42 51 52 61 83 94 113 137 157 167 178 185 193 196 199 199 200 199 201 201 201 202 201 201 200 204 203 206 203 205 203 204 205 204 205 205 204 205 202 203 201 202 202 203 201 203 201 201 199 196 196 197 197 195 188 187 190 184 172 154 147 116 80 48 56 83 80 76 65 56 52 66 64 33 34 41 47 45 27 28 46 47 31 31 33 39 31 61 68 65 53 45 51 49 57 72 89 107 130 152 163 175 184 186 196 198 201 200 199 200 200 202 201 203 201 203 204 201 203 204 203 206 205 205 204 205 205 205 208 204 204 203 203 202 202 205 201 201 203 202 198 199 200 197 197 198 192 190 189 189 184 172 152 138 119 94 48 59 86 76 66 61 55 51 57 60 43 31 36 46 49 28 29 35 45 35 36 36 46 67 79 61 49 45 51 51 60 77 103 129 148 164 170 178 187 190 195 200 199 200 201 201 199 203 201 202 202 203 203 202 202 204 203 205 206 204 205 205 207 204 205 205 204 203 204 201 202 203 202 204 201 201 200 200 201 200 198 198 195 193 190 191 189 183 169 151 131 126 93 52 66 78 75 60 63 53 49 57 64 54 33 31 49 48 33 27 32 49 33 36 35 74 66 53 49 44 49 50 61 91 124 148 158 175 179 183 190 191 197 199 199 201 202 201 202 203 201 202 203 202 203 202 205 204 205 205 206 204 205 207 204 207 206 203 203 204 202 203 202 202 203 203 202 201 202 201 201 200 201 198 194 196 193 191 190 189 180 166 151 129 123 95 56 70 79 75 50 56 59 53 52 68 67 43 32 43 55 36 23 31 42 40 36 59 58 52 48 51 40 51 70 108 142 158 168 176 182 190 187 193 197 201 200 202 202 203 201 201 201 201 202 202 203 202 205 204 204 204 206 205 205 204 204 205 206 204 203 204 203 203 203 202 202 203 202 202 203 202 202 201 200 201 194 195 194 191 191 190 184 178 163 152 126 124 89 65 83 80 75 45 46 60 53 47 57 71 57 33 49 57 46 29 26 37 38 62 56 58 52 40 38 52 89 130 155 163 174 179 184 190 191 195 198 200 202 203 199 192 186 182 182 190 192 192 196 199 200 203 202 204 202 203 205 203 205 202 203 204 203 205 203 203 203 201 202 204 202 201 203 203 202 201 200 200 198 197 192 192 190 193 188 184 175 167 143 130 120 94 76 87 75 73 45 34 45 59 53 40 55 67 51 48 53 55 37 27 29 63 60 53 43 37 40 64 111 145 162 166 174 181 186 191 191 195 193 184 171 161 150 143 145 149 156 167 167 160 162 168 172 172 183 192 194 197 202 197 202 200 204 203 204 206 204 203 202 203 202 203 202 202 202 202 202 201 202 200 200 196 195 189 189 192 190 183 181 174 164 143 130 114 108 80 90 75 80 44 31 39 46 61 48 53 54 59 54 52 53 47 34 67 64 43 37 38 48 78 129 151 162 170 179 183 184 192 186 184 173 160 155 158 154 147 137 136 131 136 128 123 126 126 131 130 140 151 167 167 181 190 192 197 197 201 202 202 202 204 204 204 203 204 205 204 202 203 202 202 202 201 199 196 194 195 189 189 187 185 185 180 166 160 139 126 118 112 83 86 74 89 48 28 37 41 49 53 59 51 51 53 56 49 50 61 57 42 41 38 53 99 138 161 166 171 180 182 186 177 159 155 152 154 164 165 155 143 133 125 123 113 112 111 116 117 123 126 123 124 138 144 143 166 179 183 188 194 197 197 199 201 204 203 204 206 208 205 203 205 202 201 202 199 199 198 198 192 192 191 187 184 187 184 175 163 153 140 126 120 110 80 86 66 88 49 33 37 41 38 47 48 55 55 53 52 47 52 50 44 34 39 67 118 150 167 170 174 183 184 178 152 152 159 166 172 175 176 175 172 167 154 138 120 109 105 103 111 111 119 120 113 118 128 118 140 167 168 177 184 192 189 199 201 201 203 205 205 204 203 202 201 200 197 199 198 197 198 195 191 191 190 183 182 184 182 176 172 163 158 138 129 126 96 83 80 58 81 52 40 41 38 34 36 45 42 59 56 57 42 45 41 35 34 89 128 156 163 173 177 183 178 156 150 169 184 189 194 191 189 184 177 179 179 177 164 152 136 125 119 113 117 125 118 113 115 114 124 149 156 167 173 184 181 196 196 200 202 203 200 199 199 196 196 193 193 188 190 186 188 185 176 172 162 156 148 154 158 151 149 153 149 153 140 127 118 94 76 71 55 69 62 41 43 37 31 36 45 38 40 54 40 39 33 26 46 108 139 161 168 169 177 178 169 159 169 183 192 190 188 187 189 187 177 176 177 174 180 170 173 162 154 150 133 139 134 125 123 128 123 140 154 157 171 173 177 193 196 195 198 196 196 194 192 190 183 183 180 173 160 150 136 127 125 118 112 104 106 107 107 117 106 112 108 119 140 137 120 117 92 66 68 46 53 69 54 35 37 42 32 45 39 32 41 33 25 29 57 120 144 164 171 177 178 172 167 172 179 188 189 189 182 181 181 179 175 171 169 170 170 168 168 166 165 162 158 152 148 150 141 142 136 137 150 159 166 171 181 191 196 194 197 195 184 186 184 174 167 168 169 146 130 107 103 95 96 101 102 93 87 94 105 106 110 94 85 87 81 105 122 112 115 92 63 60 40 46 68 56 41 43 49 35 44 43 43 31 22 28 78 134 152 166 176 181 174 174 172 175 184 186 182 179 180 169 172 168 167 163 167 161 167 166 167 168 166 162 156 157 156 155 154 155 151 147 150 162 167 173 185 194 197 197 195 190 185 180 180 155 151 152 149 132 115 105 90 97 92 93 99 92 86 81 89 92 107 110 110 95 93 82 81 99 110 109 73 65 55 42 42 61 61 52 53 52 38 40 37 28 15 31 104 142 158 168 177 181 181 179 178 181 179 180 177 172 168 164 162 157 154 158 158 161 159 158 154 156 163 161 158 156 155 154 158 155 154 155 156 164 169 181 189 194 198 199 196 193 185 183 170 151 145 142 140 139 126 115 114 119 119 120 119 115 112 121 119 120 113 116 118 111 100 115 88 58 91 109 98 71 59 48 45 36 51 57 55 51 45 43 28 20 18 44 120 148 160 172 179 183 183 182 180 179 175 175 170 167 160 153 144 146 154 167 173 177 179 175 167 157 148 143 144 151 153 153 156 154 153 152 157 162 174 187 193 196 199 200 199 195 185 180 167 153 151 144 138 146 140 137 143 144 144 142 147 153 156 158 157 152 150 150 148 139 127 122 127 97 45 87 104 91 69 50 53 39 32 44 53 62 46 44 28 16 23 61 133 152 166 175 183 184 187 188 184 182 177 170 166 159 143 145 158 173 175 184 184 184 187 183 178 172 169 156 137 133 145 148 150 155 153 146 153 161 178 194 196 199 199 202 199 197 183 175 158 154 150 144 141 138 143 140 142 148 149 144 150 154 158 158 157 156 160 154 154 153 152 138 133 133 75 39 106 101 85 45 48 66 33 28 34 54 44 48 23 22 29 87 138 160 170 177 185 187 192 193 186 185 176 169 165 156 155 167 170 172 179 175 173 168 152 155 160 156 156 154 152 132 124 140 142 148 150 142 134 152 184 198 202 201 201 203 202 194 183 171 157 147 143 139 141 142 141 144 144 150 149 151 156 159 159 160 155 156 154 147 147 145 144 140 133 123 113 46 74 108 96 63 25 50 60 24 29 32 42 37 21 27 39 102 147 163 174 183 187 191 194 194 188 185 179 169 164 162 158 156 161 140 126 110 94 82 74 74 112 93 111 125 138 146 128 122 133 138 147 148 132 136 174 200 204 203 203 204 202 195 181 165 152 142 139 137 143 143 143 144 141 140 135 137 146 148 153 154 155 150 148 148 144 149 147 143 140 137 124 73 50 105 101 70 44 20 61 47 34 33 34 35 21 30 51 121 154 168 176 186 191 195 195 196 189 187 178 170 158 146 133 117 103 81 100 115 72 50 40 37 65 53 48 97 102 127 135 131 127 129 143 148 139 133 166 197 205 206 205 204 204 194 175 162 148 137 136 139 137 137 134 127 126 127 135 140 150 154 150 149 140 132 129 140 141 141 142 136 135 140 132 100 44 102 105 74 51 19 38 55 29 38 37 30 16 35 71 131 161 173 180 188 195 197 197 198 196 188 183 170 155 123 106 74 81 89 133 156 100 55 55 55 55 51 67 134 119 94 116 127 142 139 143 152 143 141 164 200 205 206 204 206 203 195 171 157 139 130 135 135 133 125 119 124 130 137 146 144 154 159 161 157 154 140 123 112 114 135 137 128 125 132 131 111 66 88 108 85 51 20 19 61 41 30 32 28 20 41 94 141 167 176 183 189 196 196 202 201 198 193 189 183 163 139 127 107 106 119 130 159 133 86 67 71 64 63 123 158 155 122 139 117 120 150 164 173 158 153 177 195 204 206 208 203 201 192 168 156 134 129 145 141 127 128 128 126 129 123 123 115 122 133 125 141 142 135 130 124 102 103 131 126 126 129 131 116 92 86 103 93 54 26 12 39 59 38 25 22 31 49 108 147 173 177 184 191 196 200 201 201 201 199 196 193 184 168 163 150 140 131 133 130 131 140 136 132 128 127 129 145 142 140 145 156 151 150 170 182 171 170 180 199 204 206 203 206 199 186 168 158 134 142 163 156 140 125 110 105 114 79 57 46 58 103 48 65 89 102 117 113 113 103 112 125 127 128 134 124 112 94 96 100 62 22 16 21 59 53 25 26 33 59 121 150 169 178 184 194 197 201 203 202 199 201 197 195 191 189 178 169 167 161 158 142 127 119 127 132 120 130 139 129 146 154 157 169 176 172 167 175 177 179 190 197 204 206 206 202 199 186 162 158 145 142 167 149 127 100 104 116 149 109 48 49 43 53 48 28 71 66 54 99 102 106 112 116 122 130 130 130 121 105 100 103 69 27 14 18 46 55 36 24 38 71 129 152 169 180 186 196 199 202 201 202 201 201 199 199 194 192 187 177 172 163 160 155 152 141 139 136 132 134 140 140 142 156 157 162 168 171 175 181 186 188 192 201 203 206 202 204 200 184 163 156 158 149 159 159 160 148 127 122 136 138 78 64 79 61 51 56 111 108 49 43 72 92 109 117 121 130 135 132 131 117 101 109 77 27 15 20 33 58 47 34 35 76 133 152 167 181 186 195 201 201 202 202 201 202 202 199 199 195 191 178 177 167 159 153 149 144 143 141 138 144 151 159 159 163 165 169 175 180 186 190 190 191 195 201 204 205 206 202 201 184 160 158 161 160 155 160 158 160 151 137 136 138 137 120 111 101 79 102 127 111 76 46 30 60 89 110 124 138 137 136 135 121 111 109 83 26 21 19 29 56 52 46 33 83 141 151 166 178 187 194 200 202 202 203 201 202 202 203 201 200 197 191 190 186 178 177 173 167 165 163 162 169 170 171 172 175 179 187 188 194 193 196 194 193 196 202 205 208 204 204 200 180 161 158 165 168 157 161 158 150 147 144 143 130 134 138 125 115 117 109 104 95 81 61 44 54 82 103 125 143 142 142 139 126 112 111 97 21 23 21 30 43 54 50 36 90 141 150 166 175 186 194 200 202 201 201 200 202 202 204 203 203 200 201 198 196 193 193 190 186 183 181 178 177 180 178 182 189 196 199 200 199 198 197 195 194 199 205 207 207 207 203 200 184 159 161 166 167 171 168 172 164 154 140 138 141 145 144 133 123 122 129 113 119 106 92 93 94 106 121 128 147 152 144 143 134 119 116 97 31 18 22 30 38 53 41 44 94 144 151 164 177 185 195 198 201 203 200 200 202 204 206 204 205 205 203 203 202 201 201 200 197 197 194 192 192 191 193 199 201 203 202 201 199 197 199 197 197 201 204 205 207 206 204 199 181 162 162 165 170 178 180 181 176 168 155 141 135 138 146 143 142 140 139 140 130 133 127 127 125 128 134 143 153 159 155 145 137 122 121 101 38 13 18 31 42 39 40 39 96 143 153 163 173 182 194 199 201 202 202 201 204 202 205 205 204 206 203 207 206 204 204 204 202 203 202 200 201 201 201 202 203 203 201 202 201 199 198 200 197 201 205 205 207 204 204 197 179 168 163 165 169 176 184 190 184 178 167 164 155 144 139 138 141 139 143 140 140 140 138 138 137 139 147 151 162 158 161 149 138 122 124 100 37 14 17 27 36 43 33 50 90 146 151 162 172 181 192 198 201 203 201 202 203 204 206 204 205 205 205 206 207 206 205 206 204 205 205 203 203 205 204 204 203 203 202 202 200 198 200 199 198 201 203 205 207 206 203 198 181 165 164 164 166 174 184 192 192 191 181 178 173 171 162 158 151 147 143 144 146 145 150 148 152 153 159 160 166 168 161 152 135 123 124 101 43 16 17 28 38 44 35 63 91 140 148 159 172 183 192 198 201 203 203 201 202 203 204 205 205 205 205 204 206 205 207 204 204 206 203 206 203 203 205 205 202 203 201 201 201 197 199 199 200 202 204 206 205 203 206 194 186 166 165 162 168 172 182 194 196 198 192 189 186 183 179 177 172 167 166 160 164 162 164 166 165 171 167 168 167 171 164 154 138 122 124 105 40 21 14 26 38 42 36 84 91 136 144 155 171 182 194 197 202 203 203 203 203 202 204 203 206 206 204 206 205 207 206 206 206 206 203 203 204 203 203 204 200 202 204 200 199 198 201 198 201 202 206 206 204 203 201 197 187 168 164 162 164 172 182 191 194 200 200 195 195 192 190 191 187 184 181 179 179 180 179 183 177 178 176 172 172 170 163 158 139 121 121 101 49 17 16 31 34 43 39 96 98 131 142 155 171 184 192 198 201 203 203 204 205 202 204 205 204 205 205 207 206 206 207 204 206 204 203 204 203 202 205 200 202 201 203 198 200 197 197 201 202 206 205 207 204 202 202 198 188 173 166 160 164 172 181 191 193 196 200 200 197 199 197 196 196 193 193 191 192 193 190 188 188 183 178 176 171 167 162 162 142 118 122 99 38 20 12 33 32 49 35 111 99 134 140 153 170 182 193 196 201 203 204 205 203 204 203 204 205 205 204 205 207 207 203 207 204 199 199 199 200 202 200 201 202 199 198 200 197 196 199 200 205 205 206 209 202 204 200 199 193 179 169 160 158 169 182 191 195 196 197 200 200 199 199 200 200 199 198 198 198 195 196 189 191 185 181 177 176 167 164 163 140 114 119 94 29 17 16 34 34 43 43 122 105 133 140 152 170 182 188 197 199 202 203 203 204 204 203 203 205 204 205 205 206 206 207 204 204 194 188 196 200 201 202 200 199 197 195 198 196 198 199 206 207 206 206 206 206 202 205 201 195 184 171 158 152 165 179 190 195 198 198 201 201 201 202 201 199 201 200 199 200 197 194 194 191 188 184 180 177 172 163 158 137 112 117 87 18 16 20 38 36 35 50 125 108 129 144 150 169 180 187 194 196 202 200 202 202 204 204 204 202 203 204 205 205 206 204 206 202 193 187 194 200 201 200 197 193 192 195 200 198 197 202 207 206 205 206 205 204 206 202 201 197 182 170 163 151 157 180 190 193 198 198 201 201 202 201 202 202 201 201 202 198 196 195 192 194 186 182 183 181 169 162 158 129 113 110 68 14 18 20 40 42 24 51 129 109 127 144 147 169 178 188 190 195 200 200 201 202 203 206 202 204 203 204 205 203 204 206 203 200 199 195 197 196 201 195 195 186 187 199 201 199 195 200 207 206 203 204 205 205 206 205 200 196 179 167 161 164 150 174 190 193 195 199 200 202 202 203 202 202 201 200 201 197 195 196 194 192 187 182 178 181 169 164 152 123 110 103 48 10 20 24 42 41 23 32 125 113 121 143 153 167 179 186 187 194 197 201 201 202 204 205 204 202 203 204 202 203 203 204 202 201 201 195 198 197 199 195 194 180 186 199 202 199 191 189 199 203 203 201 202 203 204 203 197 189 170 162 160 171 158 171 187 192 195 200 201 202 201 201 203 202 199 199 200 198 195 195 193 191 187 181 178 177 167 164 149 113 110 83 28 13 25 25 43 38 25 18 129 115 123 147 151 170 179 184 188 193 192 200 201 202 203 203 204 203 202 202 202 203 202 202 199 199 200 198 195 196 195 194 194 167 182 198 199 199 189 178 181 191 198 198 201 200 201 197 187 168 155 152 162 170 164 167 183 190 193 199 201 201 200 201 201 201 198 200 199 199 195 191 189 187 184 181 175 173 163 160 141 107 105 64 18 21 28 29 47 36 27 26 149 117 120 143 157 170 178 183 187 189 191 196 198 201 202 201 202 202 202 200 201 202 201 199 198 200 198 194 194 192 195 194 193 173 178 191 188 181 174 154 168 186 192 192 191 193 191 182 160 148 151 156 163 168 162 168 181 184 189 195 195 199 198 200 200 201 199 200 200 198 194 188 188 186 179 179 176 170 163 154 130 101 101 54 16 27 25 41 42 32 28 24 163 129 114 143 154 172 177 183 186 187 189 193 196 200 202 200 201 201 200 198 198 200 199 198 197 198 194 193 191 192 194 195 195 184 181 184 171 150 110 82 112 182 190 183 175 178 178 171 140 124 146 161 163 162 160 173 180 182 184 190 193 198 197 199 200 201 197 200 197 192 193 187 185 185 177 174 175 167 161 150 118 98 91 62 18 29 28 46 34 33 25 24 160 134 109 142 159 169 180 181 185 187 189 191 194 199 200 200 200 200 199 197 197 195 196 193 194 194 191 192 191 194 194 199 198 193 187 185 176 146 110 104 106 156 179 165 159 155 159 147 99 56 121 150 152 153 165 179 179 178 181 186 188 194 198 196 198 198 196 193 194 190 191 187 183 183 175 174 167 164 154 142 110 88 94 52 19 29 36 39 30 32 26 23 138 125 105 143 162 169 180 183 183 187 187 191 190 194 200 197 199 197 196 195 195 191 193 188 189 189 191 191 192 194 196 201 200 198 196 195 186 170 153 151 147 150 162 150 141 145 138 126 105 68 95 139 140 150 177 179 181 175 179 178 183 190 193 197 197 195 193 195 191 189 189 186 183 180 175 167 161 157 147 133 99 85 98 44 21 32 41 32 30 27 31 23 85 75 94 141 164 171 181 184 186 186 186 188 189 193 198 198 197 194 194 192 192 189 187 183 181 186 192 194 192 195 200 201 201 202 201 202 196 190 176 169 159 151 154 141 134 128 132 133 140 118 101 125 144 166 178 179 177 178 178 174 178 182 192 193 193 193 190 189 193 187 185 184 180 176 172 163 160 149 145 120 92 90 102 40 23 29 42 25 28 29 28 23 25 9 63 140 164 172 180 183 185 185 189 185 189 192 195 194 195 192 191 189 185 179 176 181 183 188 190 193 197 199 200 202 201 201 201 204 201 196 194 187 174 159 142 133 127 131 138 140 138 133 133 139 163 172 177 180 175 179 179 178 175 177 187 188 188 191 188 187 188 185 185 181 177 174 164 158 154 149 130 112 90 96 92 59 25 33 34 25 30 26 24 24 17 6 45 139 161 174 182 183 186 185 188 187 189 194 193 192 193 191 192 183 179 164 171 183 190 192 194 199 198 201 202 201 201 203 203 203 203 201 198 196 185 166 152 141 142 151 157 153 155 160 164 164 170 175 180 182 179 180 183 179 175 172 179 185 183 188 187 185 184 183 183 176 172 169 158 151 146 141 123 100 85 109 95 69 28 35 36 25 27 31 19 26 17 7 31 134 161 173 181 182 185 189 185 189 189 193 195 189 192 192 189 178 164 166 179 191 192 196 200 202 201 201 204 202 200 202 203 203 201 199 200 197 188 176 173 165 162 169 173 170 172 177 176 178 174 174 178 180 176 178 183 183 181 179 177 180 180 182 185 180 180 177 176 169 165 162 152 146 141 139 113 84 103 117 106 64 30 36 35 29 27 25 18 21 16 14 23 127 161 168 181 184 185 188 186 187 190 192 192 189 195 195 188 167 164 186 192 194 193 197 202 203 202 202 203 204 202 202 204 203 202 201 198 200 191 186 185 178 176 179 175 179 180 182 180 182 173 173 177 177 173 179 181 182 183 181 180 176 178 180 183 177 178 178 174 165 157 152 149 140 137 130 103 82 128 122 101 64 36 32 37 26 23 27 16 22 18 17 4 111 160 165 177 186 188 183 187 189 189 192 193 192 199 196 187 172 180 196 195 195 196 199 202 201 202 202 201 202 202 202 201 201 202 200 201 201 198 194 195 184 187 185 179 177 183 182 180 179 169 173 174 177 170 177 174 181 181 183 180 181 179 177 180 177 177 173 168 160 150 147 146 136 135 125 89 96 146 128 94 58 37 34 33 29 24 24 20 18 17 19 0 93 155 167 175 185 186 185 185 188 188 193 193 196 200 198 191 182 190 194 191 192 192 194 195 199 196 197 196 196 196 191 189 189 187 185 189 191 196 198 196 192 192 192 186 181 181 181 185 181 174 175 176 177 171 176 176 176 178 180 178 180 182 177 172 170 173 166 166 158 145 145 141 137 130 119 78 106 145 131 94 52 42 33 28 29 26 21 22 16 18 21 3 72 160 167 175 185 184 184 188 188 191 195 197 197 201 198 196 193 193 190 178 176 169 159 162 166 170 163 162 162 160 158 159 160 160 161 163 165 175 186 192 182 180 172 170 172 177 179 182 179 180 176 178 174 174 174 173 176 177 178 174 181 183 174 167 168 168 166 162 160 146 144 139 134 127 122 61 89 124 125 92 52 37 36 27 27 27 27 19 25 20 19 11 39 150 163 174 181 182 186 186 191 189 191 198 197 201 198 199 195 194 184 175 167 145 108 95 112 131 136 137 139 137 140 139 141 148 146 147 148 151 153 158 154 150 145 145 145 148 151 155 161 171 174 172 169 170 169 170 172 175 179 174 178 173 164 167 166 163 165 160 155 144 145 139 133 126 121 36 23 83 92 69 27 32 36 27 27 27 25 22 19 20 18 10 22 137 160 174 178 180 186 187 189 189 190 194 198 200 200 200 198 195 182 184 185 181 153 91 75 94 110 113 117 110 111 118 118 125 130 128 133 129 128 135 131 135 134 136 137 134 130 128 132 143 150 157 161 164 162 167 173 174 178 177 175 162 159 166 164 161 162 157 149 143 145 135 129 126 106 15 8 24 30 28 21 31 35 28 30 26 28 24 16 17 16 16 13 110 156 171 179 182 187 188 189 187 189 193 194 200 200 198 200 193 191 189 193 199 200 161 134 119 116 110 117 101 92 116 122 102 125 133 133 129 115 123 124 124 127 120 126 121 117 115 115 118 121 128 135 150 154 160 173 175 180 181 176 171 163 166 165 163 160 154 149 141 144 132 130 127 82 5 11 19 18 16 21 30 34 30 31 26 28 26 19 17 21 16 7 79 153 165 174 182 189 191 187 190 188 192 193 198 200 200 194 192 196 195 199 199 201 192 174 171 171 167 159 152 136 135 149 128 163 183 177 180 132 138 158 158 149 108 112 116 99 101 102 104 104 103 106 117 127 144 171 178 179 182 173 171 164 166 168 162 159 150 152 145 142 131 131 122 45 8 16 18 20 17 21 27 33 26 33 22 32 21 24 17 18 17 7 37 146 159 169 178 188 189 189 186 188 190 190 196 198 197 194 195 198 197 202 201 200 197 190 176 173 182 180 179 172 165 165 151 156 179 190 190 166 172 191 194 189 145 155 153 113 109 107 83 86 76 71 71 89 124 161 176 182 180 172 173 163 166 165 163 153 152 148 146 136 133 131 93 17 15 16 20 17 17 28 27 29 29 31 27 27 28 23 26 17 17 13 3 114 153 164 172 184 186 186 186 188 189 190 193 194 194 194 195 199 198 202 203 201 199 195 189 178 177 181 184 181 185 183 178 165 163 162 164 154 158 173 173 167 144 139 138 118 124 122 85 75 74 74 92 109 136 159 170 176 176 174 173 166 167 165 162 153 146 147 140 138 132 129 59 4 24 18 21 13 22 25 30 28 27 26 30 23 27 24 20 24 16 19 3 56 146 157 171 177 183 187 186 187 188 187 191 192 192 196 195 198 196 202 201 203 200 195 191 187 181 174 175 178 177 181 178 178 176 175 166 165 161 163 163 153 148 142 140 132 125 119 115 109 113 123 147 164 162 170 171 174 178 177 175 168 169 162 161 150 146 145 140 132 131 107 22 11 24 20 17 18 22 26 28 26 25 23 26 25 21 21 19 21 18 21 14 18 113 152 164 174 180 183 185 184 188 186 188 191 191 192 194 198 199 200 201 200 199 194 189 189 184 180 168 163 169 166 170 172 173 179 176 177 187 181 172 162 153 152 147 143 130 126 119 120 130 152 165 176 174 170 175 176 183 176 174 167 167 162 156 147 143 142 134 130 125 68 10 20 19 17 20 20 22 28 28 24 24 25 23 28 19 22 20 17 22 21 18 8 49 145 155 168 176 182 184 186 189 187 187 188 194 190 193 194 199 198 199 198 201 192 189 190 186 184 175 164 159 157 157 160 166 166 160 163 175 182 168 160 151 141 138 137 126 128 125 134 149 165 172 182 178 173 171 176 179 174 171 169 163 153 151 148 144 138 133 126 109 25 11 25 16 21 17 22 20 28 28 21 22 23 22 30 22 18 19 16 22 20 16 19 4 112 149 156 174 179 183 182 189 187 190 189 191 191 192 194 197 197 199 196 201 195 190 189 188 182 180 166 164 156 153 150 156 160 158 156 155 153 150 144 138 129 131 132 133 137 140 147 160 172 177 182 176 172 173 175 173 168 167 165 154 151 147 145 140 132 125 120 64 4 22 24 18 18 21 21 16 32 23 23 18 21 20 25 28 26 16 17 21 22 19 19 6 68 132 151 167 176 180 187 187 188 190 191 191 192 196 194 195 195 197 196 196 198 195 193 185 182 179 169 165 154 154 149 148 150 148 144 140 139 136 135 130 137 141 143 144 146 152 156 167 173 179 174 173 170 170 171 166 164 161 156 146 148 146 142 138 129 122 95 16 15 23 26 17 22 20 20 15 30 23 21 18 22 19 25 29 17 17 17 20 19 24 16 5 45 124 132 156 171 177 182 186 188 187 191 191 194 194 198 197 196 197 198 198 197 197 194 190 182 179 174 169 160 153 145 149 145 147 138 140 140 139 144 142 147 153 154 156 158 156 159 170 173 172 165 162 164 167 161 163 159 154 148 145 144 142 136 131 125 111 38 9 19 24 22 21 21 19 17 17 27 27 20 16 19 20 23 27 24 16 18 18 18 22 21 7 39 122 124 139 161 175 178 184 187 191 188 192 194 194 196 198 198 200 199 198 197 195 194 193 188 184 176 172 170 165 159 156 154 152 148 151 152 153 155 156 158 163 158 158 156 157 161 170 172 170 155 150 162 167 161 159 153 146 145 143 141 143 133 126 114 77 8 13 21 22 22 20 19 19 16 16 24 29 17 20 18 20 22 23 28 20 17 15 20 17 22 8 30 121 123 124 143 162 175 179 183 187 186 190 194 196 195 199 198 201 201 197 199 197 196 196 193 191 184 178 178 171 171 164 166 162 161 160 159 158 160 161 158 155 157 157 154 160 165 171 169 167 159 156 163 160 158 150 144 143 143 142 139 135 129 109 107 51 8 17 21 20 22 20 16 19 19 15 29 22 23 17 16 17 21 26 25 20 18 18 17 19 19 11 19 114 131 118 123 149 165 174 179 184 184 186 192 195 195 198 201 200 199 202 201 201 198 196 197 193 192 189 186 182 181 174 172 168 168 166 166 164 163 165 161 161 164 160 164 162 165 167 167 166 163 162 158 155 151 145 140 145 143 143 136 129 111 101 109 49 6 16 23 17 23 20 16 18 18 13 28 24 25 12 19 13 17 29 20 21 18 16 21 19 17 21 7 102 133 126 116 124 147 164 171 178 185 182 186 195 195 195 203 200 201 202 202 201 201 199 201 199 195 198 196 194 191 188 182 179 176 173 174 174 176 173 172 170 171 170 168 165 166 172 167 166 165 157 152 152 147 142 142 143 141 138 131 114 95 105 123 46 6 20 19 23 17 20 16 20 16 19 20 29 19 19 13 17 17 19 25 16 16 18 18 20 17 19 3 91 138 128 121 115 125 150 161 173 177 183 179 187 197 196 201 201 202 200 202 201 203 201 204 202 201 201 198 199 200 198 196 192 188 184 182 182 182 178 177 176 177 173 174 170 171 171 171 166 163 156 150 151 146 142 142 143 139 128 115 98 105 124 119 41 7 23 14 22 20 21 18 19 20 16 20 28 22 16 14 19 17 20 21 15 16 17 20 22 18 25 0 76 138 131 125 117 115 129 144 156 171 175 179 178 192 195 200 200 201 202 200 203 203 203 204 203 203 202 201 201 203 201 200 200 198 194 191 189 189 186 183 181 181 176 177 174 174 173 169 164 159 153 147 146 145 141 140 138 127 114 99 102 123 123 122 39 9 22 16 18 20 18 19 17 22 18 18 27 22 15 18 15 21 18 18 16 16 15 20 15 24 19 4 61 136 134 132 118 120 114 124 137 158 166 173 177 179 192 197 200 200 201 200 202 202 202 203 202 202 204 201 202 201 202 200 200 200 199 196 196 194 191 192 188 186 184 180 178 177 173 168 161 158 152 144 144 143 137 132 130 112 98 104 122 127 126 120 33 10 19 22 17 21 20 19 21 20 22 20 25 24 19 14 17 16 22 18 15 19 15 15 20 20 22 6 49 135 131 134 125 120 118 113 118 137 152 161 168 171 184 193 197 198 200 199 200 201 202 201 202 201 200 200 201 200 202 197 200 200 200 200 199 196 194 194 192 188 186 182 180 177 173 163 160 154 150 141 138 136 130 124 110 98 104 118 129 127 122 122 38 8 17 24 18 19 19 20 17 22 20 20 24 23 16 16 20 16 21 15 15 19 14 18 21 18 20 6 32 133 133 130 130 123 120 117 108 115 131 145 156 165 173 185 194 196 197 197 194 198 198 198 200 198 198 199 199 197 196 195 196 198 200 200 195 197 195 190 191 188 187 181 176 172 169 160 154 144 137 132 130 127 117 106 96 106 120 130 131 126 123 122 32 11 22 20 24 21 18 17 18 21 22 22 22 21 16 19 19 14 19 14 17 18 14 17 21 20 18 13 17 125 132 128 134 129 123 120 112 109 111 124 138 147 159 171 184 191 188 192 189 188 190 192 196 192 194 196 194 189 190 192 193 194 196 197 193 197 191 185 185 184 183 177 172 165 159 153 140 137 129 123 120 111 101 93 109 120 127 133 134 125 122 122 28 9 37 35 34 24 20 17 19 16 24 22 27 17 17 18 17 21 12 19 18 16 16 20 16 21 16 14 14 117 130 131 133 130 130 121 115 115 108 109 116 133 140 153 169 180 179 172 181 180 181 184 185 191 188 186 186 183 184 187 188 187 190 190 186 186 184 177 177 178 177 172 165 158 149 138 131 124 120 108 102 96 98 107 122 124 135 132 132 126 125 119 27 10 36 49 50 44 39 23 19 17 15 24 28 17 19 15 17 19 17 16 16 17 18 15 16 19 15 14 28 109 128 131 131 130 131 128 119 117 113 109 108 116 121 132 147 158 174 160 160 166 172 171 174 175 174 176 177 174 176 178 177 178 184 182 177 176 173 169 173 172 168 162 153 148 137 125 119 110 101 95 93 99 111 120 127 132 133 132 134 126 128 114 26 22 38 45 60 59 49 52 32 24 17 21 24 18 17 16 13 18 19 15 17 21 14 16 14 22 11 38 45 93 126 131 132 128 129 131 122 122 112 114 112 111 110 116 126 137 154 163 155 158 158 153 159 160 159 162 163 163 166 168 169 168 170 168 166 164 163 163 163 163 158 150 140 131 122 109 102 92 91 91 102 113 121 127 134 134 130 134 133 130 126 111 25 22 46 44 58 72 57 55 48 41 36 27 25 21 15 18 14 18 17 16 17 18 15 17 20 29 32 61 46 83 123 129 131 131 128 131 129 123 117 115 117 115 113 111 114 119 128 139 142 141 142 142 141 141 144 144 147 144 147 147 155 153 152 152 151 156 152 152 149 149 145 133 123 115 104 93 92 85 99 104 117 122 129 133 135 132 131 134 131 129 129 102 24 23 60 51 51 68 69 61 58 54 52 38 36 33 28 17 19 18 17 13 18 21 26 30 35 38 45 75 51 65 120 125 130 130 131 129 129 125 121 121 115 114 116 114 115 111 115 120 120 120 125 123 125 120 127 124 126 129 126 133 134 138 137 139 135 142 134 141 134 129 121 112 104 96 89 85 93 98 109 119 127 128 133 132 136 137 134 136 131 128 123 97 21 29 59 65 60 63 72 66 66 64 61 49 40 33 32 31 34 31 26 21 33 35 40 40 48 43 58 77 54 45 120 122 129 131 130 127 124 124 125 121 123 114 116 116 118 117 117 117 112 117 110 113 110 110 111 109 110 108 111 110 114 117 116 120 116 120 119 117 113 108 101 94 91 89 90 99 107 114 122 127 131 134 133 133 135 138 133 136 131 122 131 87 15 45 51 70 67 74 69 72 66 65 58 54 49 43 60 56 59 63 51 51 44 48 52 51 50 52 69 78 61 30 116 120 126 130 131 128 126 123 125 120 126 120 119 116 119 121 119 121 118 117 113 109 108 106 105 102 101 101 104 97 104 101 100 101 101 101 95 101 91 92 85 89 94 98 104 112 117 124 130 134 133 136 138 138 137 137 135 134 128 120 128 79 9 53 55 65 72 72 76 68 73 67 60 65 69 60 63 72 73 71 64 62 54 57 59 60 60 63 76 83 60 17 105 122 123 127 131 127 130 124 124 121 123 120 122 120 118 121 119 117 122 120 116 112 109 109 104 100 101 95 94 94 94 90 90 88 92 88 89 87 88 91 96 99 107 112 117 121 126 132 136 137 134 141 139 143 136 136 134 133 127 123 128 77 9 52 56 68 70 72 77 75 70 76 71 76 70 75 68 72 79 76 72 71 62 68 66 70 70 72 83 82 59 5 97 122 118 127 126 127 124 125 124 122 122 118 122 124 121 120 120 122 119 123 119 117 112 111 108 106 101 99 96 95 91 92 91 89 92 90 93 91 96 101 110 114 120 124 127 129 130 135 136 139 144 140 143 142 137 136 130 131 126 123 125 79 11 56 50 69 77 70 79 81 81 71 79 79 78 76 77 76 78 78 78 72 68 74 76 77 76 78 84 82 57 0 87 124 119 121 125 127 126 123 122 120 119 121 121 122 125 123 119 119 123 122 124 119 116 105 108 107 105 97 98 96 95 95 91 96 96 93 99 105 110 115 121 126 129 129 134 133 132 134 142 144 141 138 142 142 139 134 129 129 129 124 121 77 15 47 52 66 84 75 77 75 86 74 75 79 87 72 79 78 79 78 85 77 