P2
92
112
255
117 112 115 116 114 115 116 111 117 110 110 111 110 107 105 95 97 103 100 89 81 80 68 56 54 48 39 57 49 46 54 52 52 46 49 58 61 59 52 47 45 45 40 37 41 39 39 38 45 54 57 68 63 64 62 61 61 58 62 59 62 54 44 46 43 51 54 82 98 100 80 89 83 89 113 108 107 111 112 110 113 110 113 109 111 109 111 112 109 108 112 109 114 115 116 115 114 115 112 118 115 110 111 109 108 111 108 99 95 94 96 90 79 78 69 53 48 47 37 46 51 46 48 49 50 47 50 55 61 56 54 50 35 38 39 34 35 34 26 31 34 38 38 48 53 55 60 55 52 56 51 52 52 49 40 39 32 38 40 55 58 74 90 88 87 90 93 110 111 110 110 110 113 113 111 110 113 109 111 111 111 111 109 111 115 114 114 113 114 114 112 114 111 105 104 104 105 112 107 104 96 103 90 85 83 75 59 46 46 42 43 47 48 47 46 40 43 46 49 47 48 51 50 47 40 33 38 36 32 30 29 28 29 32 34 33 27 33 37 36 39 41 41 43 41 39 38 40 36 35 37 42 49 53 56 75 79 86 90 95 105 106 108 110 108 112 111 110 112 110 110 110 110 110 111 109 113 114 115 112 112 113 113 108 108 103 107 104 110 106 104 103 102 97 89 87 82 64 58 48 43 38 42 46 39 48 39 46 38 39 45 46 42 40 52 44 44 38 38 38 37 31 28 26 26 31 31 31 31 28 34 34 37 37 33 37 36 38 32 31 34 31 35 35 36 37 45 44 54 73 81 92 92 109 108 111 104 109 111 111 109 111 112 111 108 111 111 109 114 114 115 114 111 111 104 110 108 105 101 101 109 109 105 101 94 97 91 76 63 50 56 52 47 37 44 40 42 44 39 40 44 36 40 45 45 38 39 52 40 46 43 35 39 36 39 33 36 42 43 41 34 34 39 33 40 42 45 41 35 43 41 37 31 29 24 31 38 31 34 33 36 39 61 77 93 95 105 109 111 107 109 111 108 113 109 110 108 111 109 110 116 115 112 114 112 104 108 112 108 107 100 101 100 100 96 97 91 81 88 72 60 59 53 52 56 50 51 44 43 41 43 38 37 44 46 44 48 39 49 38 50 49 42 47 41 48 53 45 44 54 63 57 56 47 49 43 45 45 49 41 41 39 40 42 45 39 37 30 33 33 31 35 37 35 39 50 64 86 104 108 109 108 106 111 111 109 110 109 109 109 107 110 113 113 116 113 109 109 111 108 106 102 93 91 91 93 90 89 91 86 66 61 54 59 52 53 59 54 52 53 48 50 44 48 43 42 45 48 57 52 54 55 43 56 50 43 48 57 65 53 52 65 78 77 52 58 53 48 40 38 38 49 51 52 43 40 43 48 40 41 37 43 32 32 32 31 37 41 43 58 78 109 108 106 109 112 109 111 106 112 111 108 110 110 116 114 114 112 108 114 107 109 96 94 82 95 98 90 91 97 92 69 72 65 62 65 55 56 65 63 57 59 58 51 54 52 51 49 49 50 56 56 57 63 62 63 64 61 50 61 75 64 66 68 71 74 81 58 58 59 48 42 44 40 41 47 48 53 54 44 45 46 44 42 40 41 36 39 28 39 37 46 49 72 104 108 101 112 112 111 110 108 111 110 108 110 115 114 113 111 107 115 104 92 87 96 90 104 97 87 97 100 79 67 63 70 65 72 60 64 69 69 64 60 58 60 65 60 62 63 59 59 59 68 65 65 70 75 80 74 75 67 76 73 72 69 66 66 85 84 74 57 60 51 42 44 39 42 45 46 50 54 51 53 53 48 50 51 38 46 36 42 40 39 44 44 71 98 105 100 105 111 110 109 109 109 110 108 116 115 115 107 114 116 89 90 96 98 100 100 99 93 97 101 94 84 87 81 77 68 74 64 64 64 61 63 60 65 66 72 75 79 75 82 82 82 89 88 89 88 100 100 96 99 90 91 80 81 72 68 71 79 91 78 59 51 54 44 44 38 41 46 40 51 52 50 58 52 49 47 49 46 53 48 47 51 45 39 52 60 89 105 103 101 110 110 108 110 110 109 115 114 111 105 117 106 88 99 96 93 92 86 85 95 96 87 88 86 82 77 73 67 68 57 53 52 56 57 66 74 72 76 86 98 104 108 109 113 112 122 126 112 125 125 128 127 117 113 108 98 82 71 62 68 76 93 75 60 49 50 49 52 35 45 44 49 48 46 49 51 51 46 40 40 43 46 58 54 58 49 44 60 59 82 106 103 103 105 110 108 112 107 112 114 106 109 114 104 90 93 97 88 90 88 85 90 82 75 70 74 69 68 66 60 61 57 61 66 70 76 83 88 97 102 111 124 135 142 146 139 143 147 146 149 153 153 144 154 142 127 127 121 97 82 64 58 59 71 79 72 63 47 51 58 51 50 45 43 46 43 51 48 54 49 48 43 36 31 40 49 56 58 48 45 61 57 63 106 105 102 103 109 109 108 117 109 106 108 105 96 91 87 89 91 84 86 78 76 71 66 72 74 65 62 59 57 57 64 69 79 89 89 100 111 120 132 144 151 149 155 163 168 169 174 174 172 174 175 174 171 170 162 151 140 128 106 83 61 53 57 65 65 69 68 54 53 55 60 52 40 46 43 49 45 53 50 52 51 47 42 34 32 39 46 60 43 43 59 70 62 99 105 106 102 107 107 109 108 105 111 98 84 81 89 91 96 80 81 68 71 68 67 62 65 65 59 51 47 62 76 79 89 95 110 120 132 145 159 168 175 172 177 181 182 184 183 187 187 183 185 189 183 185 183 176 157 154 132 108 84 65 55 56 61 60 66 63 66 54 58 53 50 39 44 44 55 37 42 50 58 50 51 52 42 33 34 45 44 40 39 56 75 62 85 100 110 101 105 106 110 108 100 85 75 84 96 91 82 65 70 66 63 59 60 61 65 57 50 41 52 75 94 95 101 119 132 135 142 159 169 173 181 184 188 190 193 189 190 192 192 188 191 192 191 190 189 187 171 171 160 140 116 91 72 62 62 64 52 58 61 66 65 54 58 50 44 42 49 53 40 38 40 54 53 49 55 51 48 39 38 48 39 37 53 77 59 67 106 106 101 103 101 93 80 83 81 88 90 87 68 63 62 63 61 64 63 63 56 49 40 44 75 95 105 114 124 139 147 153 166 176 181 187 187 192 192 192 199 193 196 197 193 194 193 194 194 199 191 189 186 175 177 167 149 125 97 77 70 69 61 53 59 56 59 65 64 55 60 53 47 47 52 51 41 44 47 47 56 54 53 55 41 42 54 43 39 45 65 56 51 102 107 96 76 81 94 94 86 84 81 82 65 60 55 61 61 62 59 55 53 40 48 59 90 101 108 128 139 149 164 172 182 185 190 195 194 194 196 198 199 196 196 197 197 195 198 195 196 198 196 194 186 182 182 181 171 159 126 101 78 77 70 57 53 62 55 53 58 61 64 63 62 50 42 56 54 55 45 42 49 52 53 54 61 46 47 46 47 42 42 48 38 47 72 93 98 97 102 92 82 68 74 68 62 60 59 62 65 63 47 45 39 45 55 77 99 113 126 141 158 171 179 182 190 195 194 197 201 192 193 201 202 200 201 200 200 198 202 199 199 200 199 199 191 186 185 188 184 178 162 138 106 88 85 69 59 60 61 54 47 51 50 60 66 63 61 54 61 55 58 55 47 48 50 50 52 58 57 48 39 44 40 57 61 54 36 101 97 91 87 81 72 67 62 56 60 65 63 65 59 53 46 47 44 48 69 89 111 123 145 163 177 184 188 191 194 196 198 200 201 197 197 201 203 202 202 202 201 202 201 201 199 201 199 197 194 187 192 193 188 183 178 165 141 110 94 85 72 66 55 60 53 49 49 50 53 61 55 61 64 63 55 55 51 48 50 52 47 54 57 57 47 40 41 34 60 76 50 103 101 91 81 68 66 66 64 56 56 60 61 55 49 46 45 46 46 60 81 107 123 142 167 181 189 187 190 196 196 196 196 200 202 202 201 202 203 203 204 205 203 203 201 203 201 201 200 198 196 192 193 193 192 189 186 177 165 139 113 95 86 70 58 61 56 53 48 52 45 48 52 51 53 59 52 55 50 55 46 47 50 52 55 58 59 44 48 39 34 64 68 96 87 81 66 65 63 65 57 57 53 63 60 55 52 52 44 47 51 73 98 118 142 168 183 187 192 193 192 197 201 195 194 202 202 202 203 203 204 205 205 206 206 205 203 203 203 202 200 199 199 193 192 195 191 191 191 184 178 166 142 117 93 83 63 61 60 57 53 52 52 42 49 48 46 48 45 45 46 50 47 46 44 50 49 50 59 56 47 47 43 42 63 81 81 73 62 59 58 56 50 48 50 58 54 55 55 48 46 58 64 87 120 143 164 181 187 194 194 198 197 198 200 197 198 203 202 203 202 203 206 207 205 204 207 207 204 203 203 202 201 200 198 197 191 196 193 192 191 188 182 182 164 143 113 92 78 56 75 59 54 55 51 50 48 47 48 44 39 40 44 36 43 37 39 44 47 41 46 52 58 44 44 46 40 74 70 65 59 52 51 41 37 39 50 57 52 46 53 48 59 67 83 121 146 163 174 188 192 197 199 199 201 200 201 202 202 204 204 205 204 204 206 206 205 205 206 204 205 204 205 201 201 202 200 199 195 194 196 192 193 191 182 186 183 164 143 113 89 63 59 74 63 56 56 46 58 41 43 45 43 34 39 40 32 47 30 25 34 44 36 40 43 50 47 46 51 64 61 52 50 44 50 39 47 47 52 51 53 47 49 55 66 77 109 144 161 170 181 188 196 199 199 201 198 202 202 202 204 202 204 203 205 205 204 205 205 207 205 207 205 204 203 203 202 202 199 200 199 191 195 192 196 193 194 188 190 177 162 138 109 78 48 68 79 57 59 55 54 53 42 40 43 44 42 32 39 36 45 32 25 28 39 31 40 45 49 49 44 60 57 52 48 46 47 49 49 55 69 59 51 47 52 66 80 103 132 155 169 179 187 192 197 200 199 201 200 202 201 201 204 202 203 205 204 203 206 204 206 205 205 205 204 205 203 203 202 201 201 199 200 199 190 194 198 196 195 192 187 185 174 155 132 94 64 50 80 71 61 56 54 60 48 40 42 42 47 42 34 33 39 41 31 25 23 26 36 43 44 46 50 63 55 53 47 46 47 44 45 58 59 59 51 53 56 76 95 121 143 161 173 181 189 195 198 200 201 201 200 203 201 202 201 203 203 204 206 203 204 204 205 204 204 207 204 204 205 203 202 203 200 201 200 201 196 192 196 195 196 191 188 185 184 168 154 119 79 56 58 78 74 67 55 56 56 54 39 41 41 50 46 38 34 41 38 30 28 21 27 37 42 45 44 60 58 55 51 45 46 39 52 59 50 52 49 52 68 85 106 129 151 163 175 185 192 197 199 200 201 201 201 203 202 200 202 203 203 203 204 202 204 205 205 204 203 205 204 205 204 204 202 204 201 202 201 201 198 197 195 196 197 193 189 185 187 176 160 149 107 73 56 59 88 75 69 57 54 56 64 43 36 47 48 46 33 41 51 37 35 27 29 33 37 43 36 63 60 53 55 41 41 54 58 52 47 53 46 58 83 92 116 144 162 165 182 190 193 199 200 199 201 201 201 201 201 200 200 202 203 203 204 205 204 205 204 204 203 204 204 203 203 204 203 204 204 203 203 201 200 198 198 198 198 195 190 189 189 181 174 150 139 107 69 51 66 88 73 70 56 53 61 63 40 32 43 49 45 26 33 44 45 31 34 33 36 36 45 60 56 58 59 50 54 63 54 48 39 49 50 62 85 100 126 150 164 174 186 193 197 199 200 198 200 201 201 202 200 202 203 201 205 203 204 206 203 205 205 205 206 206 204 204 205 203 202 205 203 201 204 202 201 200 198 198 197 198 192 191 191 189 185 172 148 128 118 77 46 81 76 67 64 60 48 59 61 49 28 40 50 49 27 27 35 49 31 37 40 41 46 67 68 66 57 60 67 66 51 45 48 50 57 71 92 118 144 161 171 179 188 194 200 198 201 200 200 201 202 202 202 203 203 201 204 203 205 205 204 205 205 206 205 208 204 205 205 204 201 204 204 202 203 203 200 201 202 199 199 197 197 194 192 192 191 181 168 147 128 123 80 50 81 74 63 60 58 48 57 61 57 33 31 46 48 33 26 36 47 35 32 38 49 68 69 61 62 69 76 64 49 48 45 51 59 80 112 136 158 168 173 186 191 195 200 201 200 202 201 201 201 202 203 202 203 202 203 205 205 206 206 205 206 206 206 205 205 205 205 203 204 202 203 204 204 202 201 202 202 202 201 197 196 198 192 193 192 188 180 163 149 126 121 74 64 83 81 53 50 61 52 53 65 66 43 26 50 49 37 26 33 46 39 36 41 66 61 66 70 76 66 55 50 46 44 51 62 102 135 151 167 177 181 187 191 197 199 200 202 203 202 202 203 202 202 202 203 203 204 205 206 206 205 206 206 205 206 206 205 203 206 203 203 204 202 202 204 203 203 202 203 202 200 201 198 195 195 193 192 190 186 175 163 143 127 119 76 76 82 80 44 40 62 51 53 60 70 52 42 42 58 43 30 26 40 38 36 59 62 70 75 65 57 55 49 50 43 47 74 118 145 159 173 179 184 187 192 197 200 202 202 202 200 198 195 197 198 200 202 201 203 205 205 204 204 206 204 205 204 207 204 203 204 203 203 205 200 203 202 203 202 204 203 202 200 200 200 199 194 193 192 194 187 185 171 160 137 136 107 87 82 86 70 39 40 49 55 52 46 60 67 50 40 61 50 36 30 30 36 56 63 69 66 62 60 55 49 45 36 50 93 138 156 164 174 181 188 188 193 199 200 201 197 186 170 166 167 177 183 180 188 192 194 196 198 202 199 203 203 202 203 203 204 203 205 205 204 203 203 203 203 203 202 204 203 202 201 201 200 198 195 191 190 191 192 184 184 172 159 138 131 114 96 83 79 75 42 37 39 56 59 51 53 61 59 52 52 55 46 29 31 59 70 63 63 64 67 51 44 38 42 63 116 149 161 168 177 183 188 189 193 187 166 149 141 140 135 147 146 154 150 142 140 143 148 151 163 177 181 192 196 196 200 200 203 204 204 204 204 205 202 204 204 203 203 202 204 203 203 201 201 197 198 193 191 189 189 187 187 178 168 151 134 126 122 94 86 79 84 44 35 39 43 53 53 58 56 54 58 51 49 53 39 75 74 63 64 67 64 48 37 37 43 82 131 152 163 171 179 183 187 181 174 161 157 162 163 151 137 130 127 126 124 119 121 123 124 127 132 138 156 155 168 183 190 192 196 199 200 200 203 205 203 204 208 206 205 204 203 202 202 203 201 199 198 193 193 193 187 188 188 186 173 164 145 139 123 124 90 86 84 82 47 35 42 42 40 49 53 55 60 49 49 49 52 84 70 64 67 63 58 42 42 33 50 100 142 164 166 172 179 183 170 155 145 150 158 167 169 156 148 137 126 114 106 105 111 116 117 127 123 116 132 134 133 163 173 181 187 193 194 197 200 204 203 206 207 205 205 204 202 200 200 201 197 200 199 193 192 193 184 186 186 184 178 168 159 151 137 130 116 84 89 72 85 47 36 44 38 37 40 42 50 57 54 57 51 74 66 63 67 53 51 43 37 34 62 117 151 167 170 175 185 177 150 154 166 175 182 183 183 175 177 173 163 143 130 114 111 108 111 118 118 113 115 120 114 147 160 168 175 186 183 199 198 201 202 204 203 201 201 198 197 197 191 197 192 193 191 185 178 175 165 163 165 166 158 157 156 155 147 135 125 106 76 81 63 76 52 48 42 41 36 33 43 39 47 58 53 75 68 64 58 50 41 40 35 28 81 128 155 163 170 176 179 160 145 174 186 191 191 194 190 180 178 180 179 177 166 159 141 134 126 123 130 122 116 119 120 127 155 155 168 179 178 190 197 197 200 200 199 197 195 191 187 185 182 177 168 158 148 143 132 121 115 112 116 121 121 118 120 118 134 143 132 123 101 72 72 54 73 63 51 40 34 39 33 47 39 37 48 66 72 55 51 43 42 33 26 36 101 139 161 167 172 175 170 160 168 181 189 193 188 185 186 181 174 173 170 176 171 170 168 162 159 148 141 145 131 131 133 131 146 156 163 170 175 192 194 195 198 195 190 191 188 180 175 172 170 149 124 110 100 101 103 104 99 91 100 105 109 107 92 85 92 94 124 123 117 100 67 68 47 61 69 57 41 34 48 36 46 35 33 65 68 49 48 39 40 29 28 39 118 145 164 170 177 172 165 166 176 185 186 185 180 176 179 173 174 170 169 171 169 167 166 163 160 156 152 151 152 151 146 147 142 155 168 169 178 192 198 196 194 192 184 184 180 162 152 159 151 124 113 100 93 95 90 98 88 85 82 90 96 114 115 104 93 83 75 92 112 116 87 69 62 46 51 67 59 48 49 50 38 42 44 71 56 54 42 42 37 24 22 59 129 150 165 176 180 172 172 173 182 183 181 178 172 168 167 165 167 165 165 172 173 172 174 171 163 158 152 155 153 155 151 155 153 156 168 171 183 194 197 196 195 193 188 180 174 150 147 144 141 132 116 107 109 112 113 116 105 105 108 115 111 113 114 116 107 109 105 68 74 110 106 83 68 50 45 47 58 55 55 47 43 46 49 67 49 45 45 45 28 20 19 83 139 156 167 179 178 179 175 178 179 177 173 170 163 160 151 147 147 153 155 158 157 156 155 157 158 157 156 149 155 153 150 153 156 156 167 178 188 193 198 199 197 194 186 183 167 151 151 144 144 144 136 137 142 138 140 144 146 152 158 155 152 148 148 144 132 122 127 113 63 67 108 100 77 54 45 52 36 50 59 49 45 42 41 58 43 46 49 42 22 19 24 103 142 160 171 178 182 183 182 177 177 173 168 163 155 137 145 158 176 181 185 185 185 178 169 156 146 136 145 147 151 151 151 152 148 159 169 185 193 196 199 200 199 196 185 175 163 155 151 145 141 142 139 142 147 147 149 149 159 158 164 158 160 164 155 157 154 147 137 137 109 45 84 104 96 67 46 60 40 31 38 54 43 46 45 47 36 45 54 35 19 20 39 119 149 162 172 181 184 188 183 182 176 167 165 159 143 154 169 177 181 184 184 182 172 174 171 163 160 148 129 134 144 146 147 146 141 144 170 190 199 199 201 201 202 196 184 171 158 151 145 142 141 143 138 141 149 148 150 154 159 161 160 160 159 159 150 151 147 146 140 128 125 87 41 108 106 81 36 45 68 23 28 35 44 36 46 33 36 54 50 33 18 23 64 125 157 165 177 181 190 192 190 186 181 169 164 158 158 164 165 154 145 130 112 106 92 112 114 126 136 147 144 120 130 137 143 149 139 129 159 192 203 202 203 203 201 197 186 166 153 146 139 139 142 144 145 146 147 142 143 148 153 156 161 157 155 152 148 148 150 148 143 141 132 107 38 92 107 88 54 27 56 47 31 32 33 35 35 33 35 58 48 22 23 29 79 137 162 170 179 186 192 194 191 188 181 171 165 159 148 143 128 98 104 96 62 58 44 88 76 58 90 117 133 139 122 125 137 145 142 132 146 186 203 204 205 205 204 197 181 164 151 137 136 136 139 141 137 132 127 127 136 145 152 149 149 139 138 132 142 144 145 141 140 136 140 125 58 82 109 94 58 36 27 57 37 40 34 30 35 34 41 59 40 21 22 37 97 145 166 173 184 191 194 196 193 189 182 174 157 139 111 88 77 89 139 133 68 48 46 41 63 37 112 109 101 121 134 135 133 142 145 134 146 183 205 206 204 205 205 194 177 158 146 129 136 136 132 128 121 126 130 142 145 155 161 163 161 153 144 127 111 123 140 135 132 128 138 129 90 74 106 101 67 40 12 56 47 33 31 31 28 29 49 53 31 17 24 42 116 155 168 178 187 194 197 199 197 193 187 176 157 128 110 87 102 117 155 165 98 53 67 61 55 75 151 158 122 118 110 137 153 150 160 140 157 182 204 206 207 205 202 193 172 158 136 128 144 136 127 125 126 127 131 129 129 118 135 134 136 144 137 133 121 105 110 134 125 130 132 130 105 82 100 107 71 46 13 30 62 40 28 26 24 36 54 51 29 12 24 64 127 158 175 179 190 194 199 201 200 198 192 189 176 155 142 125 116 125 141 155 140 98 85 85 83 116 159 158 132 154 129 120 148 173 177 160 163 191 202 206 204 206 202 190 173 155 136 134 159 150 136 127 116 108 112 69 70 38 110 83 59 91 103 115 119 116 101 114 129 128 133 133 121 97 99 106 80 49 17 17 52 53 26 29 22 42 55 49 21 16 37 70 133 162 175 182 189 196 201 201 200 201 199 193 190 181 172 154 152 142 139 120 129 135 142 135 132 139 139 149 152 150 172 175 169 168 174 171 178 191 202 206 206 205 199 191 167 161 143 143 168 149 122 101 104 127 149 70 44 41 41 70 20 59 76 52 97 103 105 114 120 127 131 136 129 113 104 108 93 51 23 11 41 59 35 26 22 50 56 45 14 20 35 93 141 161 175 184 194 198 201 201 202 200 199 197 194 189 185 170 169 163 160 145 133 129 131 128 126 137 131 143 152 156 164 171 169 166 181 183 187 198 201 206 204 204 200 186 164 161 156 147 164 158 152 131 119 127 156 107 53 75 70 60 42 99 120 70 33 73 95 111 119 126 132 134 134 125 110 106 106 54 23 14 30 56 47 34 17 53 55 40 15 24 43 101 143 161 176 185 196 200 200 203 201 200 202 199 198 193 186 175 171 162 156 152 150 138 140 134 136 143 144 149 154 157 164 168 172 182 187 189 193 196 203 205 207 201 202 187 164 160 165 157 158 162 163 156 142 136 139 143 113 102 91 75 83 134 134 93 43 39 57 95 116 128 139 142 136 130 113 110 108 54 29 14 26 55 52 43 18 53 50 34 18 26 37 112 143 161 177 184 195 199 200 202 201 201 201 201 201 198 193 182 178 170 162 155 151 146 144 143 149 155 161 163 166 168 174 182 187 192 194 193 193 198 203 207 205 204 203 184 162 162 166 168 161 161 157 149 150 144 134 133 138 137 118 121 108 115 110 87 65 43 56 82 105 130 146 146 140 138 121 112 115 65 25 17 29 43 56 49 19 56 45 30 24 24 39 118 145 160 172 186 193 200 202 202 201 202 203 202 202 200 199 196 191 188 183 181 179 170 165 165 168 172 170 173 179 185 193 195 196 198 196 194 197 201 206 207 207 205 202 185 162 164 168 169 171 167 167 158 145 142 141 139 143 137 125 117 125 114 108 103 90 85 90 112 119 132 153 153 144 143 127 120 113 76 24 15 32 34 55 45 32 55 43 31 34 22 41 118 145 158 172 183 195 201 202 201 200 202 202 203 203 202 203 202 200 197 197 196 193 189 186 183 179 182 183 189 194 199 202 201 198 197 196 195 199 201 204 209 208 204 201 185 167 164 167 173 179 178 177 175 159 142 136 141 146 147 138 134 141 134 129 128 119 122 123 125 135 144 155 161 155 144 130 123 120 82 23 14 26 40 42 37 35 47 40 37 41 26 43 121 145 157 173 183 194 198 201 201 200 201 203 202 204 205 204 204 205 204 202 202 201 199 200 198 198 197 197 201 202 204 201 201 200 199 199 199 199 202 205 206 206 206 198 181 167 165 167 171 180 186 190 182 172 165 153 142 134 140 142 143 144 144 139 140 137 137 137 142 145 158 162 162 159 149 135 125 122 80 29 13 23 37 42 35 19 40 37 42 39 36 40 119 144 155 167 182 191 199 202 201 202 203 202 205 204 204 205 204 207 205 206 203 205 204 203 204 203 203 203 204 203 203 203 201 200 199 199 199 199 202 203 207 206 204 198 186 168 166 166 174 176 185 192 191 187 179 177 168 159 155 143 141 137 142 144 146 146 149 150 157 161 163 167 169 161 150 134 127 119 85 33 11 23 37 47 34 24 36 38 42 29 48 51 112 143 153 167 181 190 196 200 202 203 202 202 204 205 204 204 206 206 205 207 205 206 206 205 207 205 204 206 205 204 203 202 202 200 200 200 198 200 203 206 206 205 205 198 187 167 168 165 171 175 187 194 197 195 190 188 184 181 176 170 164 163 156 160 161 164 164 167 168 170 168 172 173 164 153 135 122 124 86 36 9 23 38 44 36 37 38 40 43 23 74 65 107 137 151 163 181 190 195 200 203 202 201 201 203 202 204 205 203 206 205 206 205 207 205 206 205 205 205 206 204 203 202 202 201 198 200 198 199 201 204 206 205 205 202 199 189 169 169 164 169 176 183 195 196 200 198 196 192 189 191 188 183 183 176 178 180 179 181 180 181 177 175 172 173 165 156 134 124 121 87 40 7 24 35 45 36 38 38 45 36 28 92 84 100 135 142 166 181 190 196 201 203 203 204 202 204 205 203 205 205 205 206 206 206 205 206 205 205 205 202 204 202 199 203 202 200 200 198 198 200 203 205 206 207 202 203 198 188 173 170 161 167 177 183 192 193 200 201 200 198 195 196 195 194 195 190 192 191 190 192 186 184 181 179 171 172 164 160 133 119 124 79 39 10 25 35 47 38 37 42 49 31 29 111 97 104 131 139 162 178 190 193 201 202 203 203 203 204 205 204 205 205 205 206 205 207 206 203 204 201 203 202 202 202 200 201 200 198 198 198 197 202 205 206 206 203 205 204 200 193 180 168 163 162 174 182 192 197 195 199 201 199 200 200 199 200 198 198 198 198 195 193 190 186 182 181 172 171 167 159 131 117 120 78 26 10 26 35 46 44 27 43 50 34 19 114 110 105 130 139 162 176 189 196 198 202 202 205 203 204 204 205 205 205 205 205 205 205 207 201 198 196 200 201 202 200 200 199 195 198 198 196 200 204 204 206 206 207 204 205 201 194 187 171 161 155 168 182 193 196 199 201 200 201 202 203 201 199 202 200 202 200 196 196 192 188 186 182 178 169 167 158 128 114 119 64 18 18 30 40 34 46 30 50 46 46 20 103 120 109 129 139 159 176 184 195 198 199 202 203 203 204 204 202 205 205 204 206 204 206 206 202 189 187 198 200 200 201 195 193 195 198 197 198 203 207 206 206 207 204 207 205 203 197 186 172 164 154 159 183 191 197 197 202 201 202 203 201 202 201 202 201 200 197 199 195 195 186 186 184 180 170 167 154 123 116 109 52 13 19 32 46 29 44 34 40 50 88 72 101 123 106 133 138 156 174 184 190 195 200 200 201 203 204 205 203 203 204 203 205 204 205 204 202 194 191 199 198 199 195 191 186 197 201 199 196 204 208 207 205 207 205 206 207 202 197 184 170 164 163 149 177 191 197 197 200 202 202 203 204 202 202 202 201 200 197 197 196 192 189 185 181 182 170 165 148 119 111 97 36 12 21 35 43 30 30 44 29 59 120 121 112 121 110 128 139 153 171 183 186 193 196 199 200 201 203 204 203 204 204 204 203 205 205 203 202 199 194 198 198 197 192 184 179 201 202 201 191 199 204 205 204 204 204 207 206 201 193 180 162 166 170 159 171 188 196 197 199 202 202 203 203 204 201 201 200 200 197 194 195 192 188 182 180 178 170 167 141 112 110 80 22 15 27 34 43 32 24 42 15 89 130 129 121 121 111 128 142 153 169 180 184 188 196 198 200 202 204 203 203 203 204 202 203 203 203 201 202 200 193 196 195 191 195 177 178 199 201 199 189 182 192 199 201 202 202 203 201 196 181 162 156 164 171 169 164 186 191 196 198 202 202 201 202 201 201 201 199 199 196 194 192 189 185 182 177 175 165 162 136 107 106 60 16 26 24 41 40 30 27 28 19 105 137 132 127 132 113 124 146 155 169 180 183 191 190 196 200 203 203 203 202 203 203 201 202 202 199 199 200 196 193 193 191 193 192 175 173 195 195 193 183 169 177 190 193 195 197 197 195 174 158 150 158 164 170 164 167 179 188 193 195 199 199 200 200 202 200 201 200 198 196 189 191 188 182 183 177 172 163 156 122 102 96 61 22 22 33 43 39 26 26 23 55 114 136 139 138 154 115 121 145 156 168 177 184 186 189 192 197 202 202 201 203 202 201 200 202 200 199 197 196 195 190 189 189 192 194 183 176 186 180 162 138 106 160 191 192 182 186 186 181 154 140 147 165 166 168 161 169 178 180 186 190 196 197 198 199 200 200 199 198 196 194 189 187 185 179 176 175 169 159 149 113 100 88 71 24 23 39 42 32 26 29 21 93 129 138 143 151 162 123 117 144 156 169 174 182 186 188 190 194 199 201 200 201 201 198 197 198 198 197 194 194 191 186 188 192 192 194 191 185 184 176 141 97 78 115 186 179 170 165 165 164 131 79 122 154 157 156 163 173 178 180 182 187 191 196 198 200 197 197 198 194 192 192 189 186 184 177 174 169 164 156 138 108 91 87 67 19 32 40 35 29 30 24 21 83 135 140 147 154 154 130 112 144 155 170 177 179 185 186 188 192 196 198 198 200 198 197 195 195 193 192 189 188 186 188 188 191 196 198 196 191 194 184 160 136 132 132 160 163 150 146 148 135 114 57 81 139 145 149 171 178 179 176 176 181 189 190 197 197 196 194 196 192 190 188 188 184 182 175 169 166 158 152 130 99 87 100 56 18 34 37 32 28 32 27 23 30 113 131 135 126 130 116 106 144 162 168 178 178 184 186 189 189 193 196 196 197 196 196 192 190 188 186 179 185 186 189 190 195 198 200 201 198 199 193 182 163 157 152 152 154 137 137 136 129 130 118 93 124 141 156 176 178 179 178 172 175 181 188 193 195 193 192 193 192 190 185 186 183 181 171 167 158 155 144 116 96 86 107 46 25 34 33 29 28 28 27 20 14 30 78 100 88 63 55 96 143 163 168 179 180 184 186 188 187 191 193 196 196 194 192 191 185 183 182 176 184 189 193 194 198 200 202 202 201 201 201 192 185 177 162 149 143 131 126 131 135 141 131 120 121 150 171 176 177 176 177 174 173 175 183 190 190 191 190 189 190 185 186 184 178 176 168 160 159 147 132 109 87 97 100 61 31 33 30 24 34 23 25 19 26 18 17 28 25 20 5 71 145 161 173 178 182 183 187 185 185 190 194 194 192 190 191 184 180 178 178 184 186 193 192 197 200 201 200 202 202 203 202 199 197 191 178 156 137 131 135 145 149 147 147 155 159 165 174 178 180 178 179 178 174 174 174 184 186 188 189 186 186 184 186 177 176 168 165 153 147 143 122 102 85 103 101 72 39 30 34 26 28 25 23 20 26 22 18 19 18 21 3 50 144 162 172 182 181 186 188 185 189 192 193 192 192 187 189 182 172 170 180 190 192 197 200 201 201 202 201 202 202 201 202 201 197 195 187 170 162 154 156 168 168 169 173 173 175 173 174 179 179 178 181 179 180 175 173 180 181 181 187 186 181 182 180 174 170 165 154 148 145 136 115 90 92 116 110 71 41 31 33 25 28 24 18 22 24 28 22 19 19 19 13 35 138 162 171 179 180 188 187 187 187 192 195 193 191 190 189 181 168 178 189 194 196 201 202 202 203 202 202 201 201 204 199 200 200 197 191 183 180 172 172 177 175 180 181 180 182 176 172 177 176 176 178 181 179 181 177 176 178 181 184 182 178 178 177 169 161 156 150 145 140 128 109 78 116 127 107 71 43 29 33 25 29 19 22 16 24 25 25 23 18 20 11 24 131 160 169 179 185 186 188 186 190 192 193 190 192 192 190 175 176 191 194 196 200 202 202 202 202 203 203 203 202 202 201 202 200 201 199 191 189 182 181 184 178 183 182 183 183 174 169 176 176 173 178 177 178 179 177 177 179 178 181 180 178 178 171 165 153 152 146 139 137 121 102 77 140 138 107 65 42 33 32 27 26 20 19 23 23 23 25 25 18 18 14 13 116 159 167 177 187 184 187 190 188 192 194 190 197 195 191 178 190 195 195 197 200 200 201 200 200 202 201 199 196 195 194 192 195 198 199 196 194 190 189 190 185 178 184 183 184 174 173 175 177 175 178 177 177 179 178 179 179 179 176 176 177 171 166 163 151 148 142 135 130 120 94 83 144 138 111 65 43 36 29 26 29 21 20 21 24 22 27 22 21 20 20 7 96 157 164 175 182 185 186 188 191 194 195 194 199 200 192 186 195 197 193 194 192 190 192 187 185 178 176 169 166 166 163 165 168 175 179 197 194 190 186 182 176 179 182 183 185 180 177 179 176 174 177 172 175 174 177 176 182 177 174 167 169 169 165 161 148 147 140 136 128 121 86 67 121 129 108 68 39 35 26 28 25 22 24 19 25 21 24 24 19 20 22 4 79 158 166 177 185 184 187 188 188 195 195 197 200 201 194 191 196 190 185 179 156 146 145 146 139 138 137 137 141 139 147 145 145 145 150 158 166 159 153 148 148 154 161 162 172 174 178 176 169 172 173 170 173 176 175 174 182 178 168 168 166 168 164 155 148 147 139 132 127 120 76 6 62 96 86 41 34 35 30 26 26 24 23 19 24 23 20 23 19 21 21 8 50 159 164 175 181 184 188 189 189 193 198 197 200 200 197 195 194 186 180 165 111 86 83 107 113 121 124 114 121 121 122 126 128 127 129 128 135 131 134 134 133 136 134 131 139 149 163 165 165 167 167 169 170 175 177 177 172 158 166 168 161 163 163 151 146 146 136 129 126 118 46 2 17 30 31 22 32 36 28 30 27 27 21 18 23 19 21 22 20 18 20 11 18 149 159 176 174 185 188 190 189 192 196 198 200 202 200 197 195 185 190 174 122 77 38 89 101 134 154 126 131 152 129 119 142 138 131 116 119 122 125 126 121 126 119 115 119 122 130 136 149 160 159 170 171 172 180 177 172 161 165 168 163 164 159 149 144 143 136 131 130 103 21 9 20 18 16 21 32 29 31 28 27 28 24 19 22 20 19 23 23 19 16 18 6 127 157 173 178 183 187 187 190 192 193 198 199 200 201 199 194 186 194 201 175 128 68 99 103 152 194 170 178 198 178 169 192 191 192 138 140 168 167 145 112 123 118 104 109 105 109 111 119 136 149 163 174 175 183 178 176 168 165 170 164 161 158 151 147 142 137 133 131 80 11 16 17 19 18 17 30 34 28 27 26 28 26 16 23 21 19 22 23 18 18 19 7 92 155 167 175 186 188 186 191 191 194 195 200 201 201 197 194 190 195 201 200 166 136 118 86 123 194 174 197 203 194 199 204 204 208 183 186 199 204 193 155 173 159 119 123 106 95 89 89 97 121 150 175 180 182 178 172 168 166 169 165 157 154 151 145 142 134 132 129 40 8 18 18 19 18 20 30 28 32 25 27 31 26 22 18 20 23 18 24 20 18 19 8 48 145 160 171 182 188 189 189 190 192 193 198 200 199 196 196 194 198 198 204 185 163 158 122 96 155 117 182 199 189 202 207 205 205 189 194 202 204 199 185 197 186 165 173 132 103 74 42 39 91 139 165 181 180 174 178 169 170 167 163 158 151 147 145 139 136 130 109 17 18 18 20 17 18 25 29 24 30 28 30 25 27 22 18 19 25 17 20 25 21 16 18 13 122 156 163 177 185 187 185 189 190 192 197 197 197 195 195 200 200 201 201 196 176 171 170 155 140 116 149 144 141 197 204 200 203 173 189 198 201 195 177 196 175 152 169 123 107 60 48 74 105 150 164 174 174 175 178 171 170 172 160 157 147 144 143 138 132 125 75 6 19 19 21 15 21 23 29 28 27 23 28 23 20 25 23 18 21 19 19 19 27 18 16 5 72 149 161 171 181 184 184 188 189 189 194 195 195 197 197 198 200 201 201 196 185 174 176 178 173 156 158 155 167 163 165 172 171 138 163 171 165 174 121 164 153 112 138 105 94 81 101 130 159 163 172 172 175 181 180 170 171 168 162 153 146 143 142 135 130 112 32 15 21 17 22 15 23 25 27 25 28 21 27 25 21 24 18 21 22 19 18 18 23 21 22 11 25 127 156 167 176 181 183 186 185 189 191 192 194 196 195 197 199 202 202 197 188 175 180 183 181 180 166 156 168 168 163 175 160 153 158 154 149 165 141 150 154 132 128 119 111 117 132 158 174 167 170 173 179 182 176 171 168 166 154 150 146 141 139 132 128 79 8 26 21 19 19 24 16 27 32 20 23 22 25 29 23 22 20 20 23 18 20 19 19 21 15 22 7 76 148 160 172 179 181 184 187 187 190 192 193 193 196 199 198 200 202 198 186 178 177 180 178 184 184 172 164 164 162 162 156 153 157 157 147 148 144 139 145 135 131 123 122 126 148 167 175 171 171 175 182 179 176 172 167 158 148 148 146 139 133 126 112 37 7 22 24 18 20 22 14 26 29 22 18 23 21 27 27 19 19 21 21 20 19 17 18 21 20 18 13 16 134 152 166 177 182 183 186 188 188 190 192 191 193 197 199 197 199 194 188 170 170 171 164 172 178 177 175 177 183 173 163 164 168 166 166 159 156 153 153 142 133 125 122 142 158 169 178 176 171 176 176 176 173 168 159 152 147 146 143 136 129 122 72 11 15 23 23 21 20 20 16 24 26 24 17 19 19 29 24 21 24 24 21 22 19 16 19 22 19 19 17 5 93 143 158 172 178 182 183 188 188 191 192 191 193 195 198 195 199 198 183 184 166 164 158 153 159 162 167 173 170 174 170 166 186 184 168 165 150 146 141 136 131 132 133 149 165 174 180 174 172 172 171 169 166 159 151 147 144 140 140 134 122 105 30 10 20 21 22 21 20 15 18 19 30 22 20 17 19 25 26 19 20 21 26 16 21 20 20 17 21 20 20 5 70 130 147 167 174 180 186 184 186 189 192 193 193 194 194 196 194 197 190 187 180 165 156 148 147 146 147 147 161 159 153 153 160 164 156 149 140 132 133 130 136 137 144 159 170 176 174 169 169 171 168 164 159 153 146 144 143 140 137 125 114 74 10 15 20 25 22 22 17 18 16 22 28 21 18 16 24 22 25 24 24 21 24 19 18 20 18 17 20 19 22 7 56 124 132 155 170 175 182 184 186 188 193 193 195 195 193 199 194 195 196 193 188 178 162 151 142 137 139 136 138 146 142 141 141 138 134 131 126 131 133 139 140 148 154 166 172 172 165 155 163 168 164 159 153 146 143 143 143 136 132 108 106 65 8 18 18 23 20 19 18 18 17 21 28 22 19 16 17 24 24 26 21 26 22 21 16 21 15 18 19 16 24 9 42 127 121 140 159 173 177 183 187 185 192 194 194 197 194 197 198 195 195 195 191 185 180 164 156 142 135 133 131 131 130 129 125 129 128 130 133 140 145 150 150 153 160 167 172 171 158 156 162 166 158 153 147 142 144 143 138 132 118 95 114 60 8 18 19 22 21 19 20 17 19 17 31 22 17 17 14 19 25 22 27 21 25 20 16 19 18 18 19 20 19 12 29 129 125 121 143 165 171 178 181 182 192 192 194 198 197 199 199 199 193 195 195 190 187 181 173 166 159 153 146 143 140 137 138 139 140 147 147 150 152 154 154 158 163 170 168 168 164 163 162 158 154 148 142 143 145 143 132 121 97 104 125 60 6 17 22 19 22 19 20 18 15 21 29 24 17 14 15 16 20 26 22 23 21 25 15 21 17 18 19 18 20 16 10 123 130 119 123 149 162 171 177 178 189 192 194 197 200 198 201 199 198 197 195 194 192 187 182 179 175 172 166 165 164 163 163 159 157 159 158 154 158 159 161 163 166 169 166 168 166 165 158 157 150 142 142 143 142 135 123 104 99 122 126 62 7 19 18 17 21 21 15 21 18 17 25 26 17 13 17 14 18 23 17 19 23 23 20 17 15 20 18 16 19 23 7 115 133 126 116 126 154 162 172 175 177 189 193 196 200 198 201 202 200 200 199 198 196 193 192 190 184 182 180 175 175 173 172 170 170 174 169 168 168 166 170 168 166 169 168 169 165 164 151 155 147 144 144 140 135 127 106 97 119 131 127 56 8 21 15 23 17 23 21 18 20 21 24 25 18 14 17 19 19 22 19 21 20 23 22 15 17 18 17 20 19 20 1 103 133 129 121 114 130 148 160 170 169 180 192 193 200 200 201 200 202 203 200 201 201 197 199 198 196 194 196 189 186 184 180 181 181 180 178 176 175 173 175 173 172 173 172 169 167 159 153 150 145 142 142 134 124 109 100 114 131 129 125 60 6 20 18 19 17 22 20 22 21 20 22 24 20 15 17 18 18 22 19 20 20 22 21 17 16 17 16 18 17 25 0 87 133 134 124 118 112 130 143 161 163 169 186 193 197 198 201 199 202 203 202 202 202 202 202 199 200 201 202 198 196 193 190 186 189 185 184 179 178 179 181 176 178 176 174 166 165 158 149 145 143 136 136 124 109 99 113 128 134 125 128 63 6 19 20 20 15 24 17 21 21 21 22 25 20 17 18 19 19 22 17 22 20 24 22 17 16 18 16 18 19 20 3 71 135 132 130 122 114 115 125 144 154 160 169 188 194 198 200 199 201 204 203 203 203 203 203 201 202 202 202 200 199 201 197 194 194 192 188 190 186 185 183 182 178 179 174 164 161 154 144 139 138 129 123 107 101 111 128 132 134 126 128 63 8 20 22 19 19 18 15 19 20 22 22 22 22 16 19 16 18 18 19 21 24 25 22 17 17 17 15 22 18 22 6 55 133 130 134 125 123 114 111 123 139 149 155 175 190 196 197 198 200 203 201 202 203 201 201 202 201 202 203 200 201 202 200 201 198 197 192 196 191 192 186 184 179 176 170 162 155 143 134 131 128 120 103 98 115 125 134 136 133 126 129 57 7 28 29 22 20 18 19 18 16 23 26 22 21 18 18 16 18 16 16 24 19 24 20 17 18 15 19 17 18 20 9 36 132 128 132 133 125 121 112 109 118 133 144 158 178 186 194 194 196 195 198 200 200 199 199 199 199 198 199 198 196 199 201 201 198 195 195 193 192 190 188 182 175 169 166 152 142 131 125 120 113 102 99 114 125 133 135 135 130 128 129 56 6 33 46 38 35 23 15 20 14 19 27 23 16 19 12 18 19 14 19 22 20 22 21 14 20 18 15 20 17 19 10 27 124 130 132 132 131 126 119 112 108 115 128 140 153 177 183 187 189 187 187 190 195 192 193 197 193 192 189 192 190 194 196 196 196 194 191 188 185 186 184 176 166 161 150 135 128 121 112 106 97 103 113 125 132 134 138 135 134 129 129 56 8 31 55 52 52 45 32 20 16 17 25 22 19 15 13 18 20 16 20 18 21 20 18 17 18 17 16 18 16 21 9 33 116 128 132 132 128 131 123 116 111 109 112 122 132 153 170 169 173 173 176 178 184 187 187 188 185 182 182 184 185 186 190 188 187 189 183 181 175 177 176 167 158 147 132 126 111 104 102 96 99 115 122 132 136 136 132 137 134 129 127 53 13 39 45 60 68 54 54 41 31 23 23 21 15 18 16 15 21 16 28 15 16 20 16 16 18 17 15 17 17 17 32 43 105 125 130 131 128 128 129 120 116 111 111 112 117 128 145 150 149 152 161 165 167 172 170 173 171 171 168 172 174 175 181 177 179 173 172 170 168 166 162 152 141 130 114 108 95 94 94 101 116 124 131 135 135 133 137 137 135 128 126 52 17 45 53 50 67 68 55 55 48 42 31 29 21 17 17 16 21 14 26 19 19 19 16 15 18 16 16 22 28 31 56 46 93 125 130 130 132 130 132 124 121 114 115 113 112 115 121 136 140 133 139 143 148 152 153 154 157 158 157 159 161 163 167 164 161 163 159 159 157 152 147 134 122 114 100 94 92 96 104 118 124 130 137 137 137 137 138 136 135 126 123 46 22 49 63 52 64 75 58 65 60 58 45 37 34 26 26 22 22 14 22 19 17 18 18 15 20 24 30 35 39 39 71 50 78 123 127 132 131 127 127 126 124 118 120 113 115 116 114 116 126 124 125 126 127 127 134 134 136 135 136 139 140 148 146 145 147 145 142 140 138 133 124 114 106 97 92 88 99 110 118 127 131 135 137 135 139 140 138 134 130 128 121 38 30 50 64 67 64 73 70 63 71 60 57 40 39 40 44 51 40 40 25 21 15 23 28 33 34 41 45 45 45 54 75 52 58 123 123 130 131 130 125 127 123 123 122 115 115 119 117 115 117 115 114 113 112 110 114 114 114 114 113 117 120 123 123 124 127 125 125 122 117 111 104 95 91 90 95 104 112 121 127 135 138 136 141 141 138 141 138 133 129 125 120 38 32 55 61 72 71 73 72 71 65 58 60 55 56 64 68 65 62 54 21 29 40 46 44 46 47 50 52 52 52 63 79 58 35 122 121 129 132 128 130 125 123 123 123 122 118 118 118 116 120 116 119 112 112 108 107 107 106 105 101 100 108 103 105 110 104 108 102 102 99 93 89 92 94 104 109 117 123 129 135 139 136 141 144 142 139 140 136 134 127 123 119 32 39 55 67 69 72 77 67 73 73 72 68 76 60 68 75 75 68 65 46 53 59 62 54 53 52 59 61 60 61 72 83 60 16 117 119 123 127 127 128 126 125 122 122 119 122 119 117 118 116 118 117 118 115 108 109 102 102 98 98 96 97 92 94 96 89 92 88 92 89 89 97 103 111 114 123 124 128 138 137 141 143 143 144 145 141 135 136 130 128 126 117 33 40 51 70 70 72 73 81 70 77 83 74 76 77 73 75 82 76 72 55 59 67 63 58 60 62 67 67 68 67 79 80 58 10 107 118 122 124 129 121 127 124 121 122 119 122 121 119 115 120 115 118 120 117 113 111 108 105 97 97 94 91 90 90 88 89 90 89 92 97 102 109 117 122 127 130 131 131 136 141 146 146 143 146 145 139 135 132 128 129 126 113 40 30 55 64 84 70 77 80 83 75 76 81 87 75 77 82 80 78 76 57 61 69 65 60 67 71 73 76 74 76 82 85 56 9 96 118 118 122 124 127 124 123 123 121 119 122 121 123 119 118 117 116 121 115 114 112 113 108 103 98 94 94 95 94 92 93 95 96 102 108 114 122 127 130 131 132 134 137 140 142 147 146 141 145 142 137 135 133 127 132 122 109 43 22 53 60 87 76 77 79 84 80 75 84 82 70 78 82 82 82 80 