P2
92
112
255
129 127 128 125 127 127 117 123 120 126 118 114 118 117 122 118 119 112 116 118 112 106 113 105 98 100 98 84 94 83 93 89 81 78 66 64 75 76 76 80 84 81 89 78 77 69 66 68 68 72 78 83 89 84 87 84 78 77 68 68 63 67 87 112 105 102 117 119 120 123 117 121 122 119 120 123 119 121 121 122 118 120 120 121 121 117 117 119 120 117 118 115 130 125 129 125 128 124 124 120 118 116 111 108 113 113 119 115 115 117 113 109 107 106 105 99 88 81 91 79 74 79 75 70 58 50 42 46 54 69 76 84 80 78 87 86 83 82 66 66 61 64 68 64 74 73 82 79 77 75 69 71 66 66 63 85 109 101 94 112 122 120 120 116 120 120 119 119 122 116 124 118 117 122 119 116 122 117 118 120 120 118 118 114 124 128 124 128 127 124 122 107 112 112 116 108 115 112 112 109 107 114 109 105 102 104 98 92 81 76 73 72 63 62 59 55 41 45 36 36 38 49 57 63 64 70 71 77 76 78 75 69 59 57 65 62 58 62 63 72 73 73 68 69 70 65 70 67 83 101 99 94 107 115 121 118 118 119 117 121 123 118 122 120 120 119 121 120 119 119 118 119 117 118 119 115 127 127 126 128 125 125 119 110 113 110 116 112 113 116 112 104 98 104 105 108 103 94 90 85 78 76 68 61 61 52 49 49 46 47 32 32 34 40 58 52 58 57 65 64 64 65 65 63 56 58 55 65 61 57 56 56 61 64 65 65 67 66 69 70 66 68 87 87 95 103 110 119 116 119 117 117 122 117 124 116 120 121 119 119 120 115 120 116 118 119 118 115 123 128 127 127 125 124 124 119 119 116 118 111 111 110 108 111 108 98 97 96 87 82 80 77 78 73 70 64 59 51 48 58 51 56 33 25 37 34 48 68 68 62 67 67 56 55 58 56 50 52 53 60 56 62 59 51 53 59 55 60 57 64 63 68 68 65 64 73 88 89 99 104 111 116 119 114 118 120 119 117 120 118 121 120 119 118 119 119 118 119 115 119 128 126 128 125 125 123 121 120 120 119 114 112 111 104 108 106 104 100 83 80 74 71 72 73 82 73 79 65 56 59 50 54 65 65 53 32 33 29 40 44 62 64 59 70 63 55 51 53 49 36 48 54 55 59 57 59 50 57 51 55 55 50 57 59 59 67 71 65 70 77 88 96 96 104 113 115 111 119 115 120 119 117 120 120 117 121 115 119 119 121 118 117 130 128 126 126 126 118 122 116 122 122 119 114 111 107 107 105 98 85 78 71 72 71 75 76 71 68 74 67 60 58 54 62 63 65 61 48 46 36 34 39 47 60 59 57 56 62 57 54 50 43 37 48 50 51 56 55 54 51 51 55 50 53 51 55 56 58 64 63 70 70 73 75 88 94 98 107 109 104 111 117 115 116 119 116 117 118 117 119 121 120 115 119 126 131 122 129 123 119 121 119 122 122 115 115 109 110 104 96 87 72 70 74 72 78 77 77 74 69 67 65 63 59 63 64 67 65 63 60 55 53 48 30 46 56 60 61 53 57 57 57 46 52 43 45 43 47 48 48 48 41 49 57 49 53 51 50 54 54 58 58 67 60 68 68 68 78 77 85 93 102 102 114 115 120 119 117 118 117 117 119 116 119 118 120 126 128 128 128 122 120 120 121 122 115 115 113 110 104 104 85 85 75 75 76 74 80 82 76 75 73 78 68 69 68 72 73 75 70 71 61 67 58 58 44 47 49 50 52 53 56 55 56 50 49 46 48 48 51 41 47 42 42 38 48 51 55 50 48 48 53 55 55 60 57 60 63 61 71 74 73 80 81 93 99 106 115 120 119 119 118 119 119 116 117 120 119 126 128 124 127 124 121 121 119 124 118 116 119 113 103 94 94 84 90 76 78 75 77 71 76 69 70 66 67 71 74 81 81 83 77 80 67 67 59 62 59 56 53 49 45 43 54 56 56 52 50 49 46 48 46 42 40 40 39 40 42 50 42 52 52 48 46 54 54 56 62 52 60 55 62 74 76 76 83 89 85 93 104 110 118 118 118 117 117 118 117 116 118 128 123 126 125 120 121 116 122 120 123 113 111 104 92 84 84 86 84 83 81 83 83 75 76 72 69 67 76 74 84 88 93 94 91 90 83 74 64 66 64 69 65 57 57 50 54 58 57 50 52 46 50 47 48 40 47 38 42 37 35 42 45 42 44 46 49 48 46 53 59 57 55 62 61 62 74 76 63 86 92 91 90 104 116 115 119 118 117 120 118 120 117 129 126 123 123 121 117 116 118 115 119 110 104 99 85 87 84 90 90 90 91 86 86 77 76 77 74 81 84 89 91 96 104 107 107 100 96 83 72 74 69 82 76 77 73 70 65 58 61 54 54 50 45 46 45 45 50 40 44 41 38 38 43 43 45 44 48 48 46 41 48 53 57 64 58 64 68 77 63 61 67 84 88 95 104 110 114 119 117 117 120 117 116 126 123 124 118 116 117 110 114 113 116 111 97 86 84 82 88 94 87 89 83 81 81 79 84 82 84 95 97 102 111 115 119 127 125 116 109 104 89 87 81 90 93 92 90 86 80 76 68 59 63 53 49 46 37 45 45 50 52 37 46 38 45 40 46 40 49 50 51 48 45 42 51 57 58 55 70 69 75 64 63 60 70 92 98 102 110 113 117 115 114 119 118 123 120 121 113 115 108 111 114 112 112 91 85 81 85 83 90 94 82 84 76 66 74 80 88 89 97 104 113 120 128 136 141 147 144 138 121 118 102 98 99 102 106 105 107 98 103 90 74 69 64 61 54 51 44 42 41 50 53 47 43 42 46 40 49 49 48 50 49 49 54 52 47 49 53 56 63 67 72 73 74 66 59 65 91 102 102 110 112 112 114 114 121 124 119 117 111 110 110 104 116 108 99 84 82 76 88 91 90 90 73 71 60 65 80 90 99 104 113 125 132 140 155 162 167 170 166 159 145 123 120 108 115 112 113 117 111 110 118 109 97 79 75 62 66 56 59 47 48 39 39 52 42 44 42 45 42 42 45 53 50 46 48 57 59 56 59 67 55 61 65 72 77 76 76 63 62 94 103 103 109 111 112 112 117 122 119 111 106 108 107 110 105 97 87 81 76 91 97 93 82 76 64 57 56 76 95 103 110 116 131 142 146 159 171 177 183 183 180 169 164 139 122 119 111 121 121 123 119 112 121 117 105 95 85 72 66 70 64 62 55 51 42 48 44 45 41 46 45 38 39 42 53 49 44 49 54 55 58 66 64 65 66 72 76 77 79 71 60 73 98 105 104 105 110 112 116 115 108 105 107 107 114 103 99 90 80 88 84 93 91 79 66 59 51 51 66 88 105 114 124 139 150 159 166 174 184 190 192 190 190 184 174 160 131 119 110 115 121 124 131 118 117 112 109 102 95 83 74 71 74 64 63 58 55 52 47 48 43 55 51 41 39 35 41 44 44 37 46 50 52 55 64 64 67 66 69 73 74 77 69 61 86 98 101 105 106 112 112 109 99 103 109 110 106 101 89 77 81 85 83 79 73 64 49 49 49 60 80 101 112 126 138 153 163 173 181 184 193 196 197 197 197 193 188 172 155 123 110 105 115 122 132 132 118 118 107 102 95 87 78 75 74 70 68 63 59 61 51 50 50 51 65 49 47 42 41 39 42 40 37 50 47 44 55 59 61 60 60 64 66 74 67 67 63 77 84 94 103 108 111 102 105 106 110 104 99 95 84 84 85 82 75 69 60 55 54 47 58 70 94 111 126 141 155 168 182 187 193 196 198 200 199 202 197 194 194 191 173 147 119 105 102 107 126 133 128 119 121 111 98 94 82 83 77 75 72 66 55 65 53 56 50 50 57 66 47 40 41 39 42 43 39 36 56 41 41 52 57 60 59 56 61 64 65 67 64 62 76 67 89 98 112 106 110 107 100 92 85 80 80 81 82 66 68 59 59 55 53 52 64 85 107 122 136 158 178 186 194 196 199 199 201 201 202 201 201 200 198 198 195 184 149 119 105 102 106 119 125 119 116 117 105 98 89 89 84 79 75 69 60 61 61 51 56 56 45 58 53 45 39 37 39 39 44 36 43 53 41 36 51 52 59 55 57 55 58 64 64 57 65 72 68 85 103 108 111 103 93 83 74 75 71 68 63 64 58 54 51 48 51 56 80 98 118 136 159 181 192 194 198 198 200 202 200 200 202 203 203 202 202 203 200 196 179 154 119 110 105 107 113 119 116 116 108 101 93 88 90 85 78 75 64 59 58 54 57 53 59 50 56 57 41 38 36 36 40 46 35 55 46 36 37 44 53 53 53 54 56 59 63 62 49 56 53 61 98 108 100 91 81 75 72 66 62 57 59 52 52 52 52 44 58 67 86 110 136 160 182 196 197 199 200 201 201 204 200 199 202 204 204 203 205 203 203 201 193 179 154 133 113 101 110 103 107 112 110 101 98 86 89 85 78 77 69 64 61 51 58 56 63 54 55 57 56 38 46 39 34 42 45 53 49 45 37 37 44 46 52 52 55 57 55 57 57 53 48 49 81 102 92 81 75 73 64 57 58 50 48 48 51 54 47 52 68 73 106 134 157 183 193 199 201 201 201 201 202 203 202 201 203 205 206 204 204 205 202 201 200 189 178 163 140 116 105 97 96 97 105 100 93 87 86 89 80 74 76 65 60 57 52 57 62 63 56 56 60 54 49 48 43 41 41 51 55 43 40 45 32 44 53 51 52 54 53 52 58 53 51 46 54 89 84 80 70 64 56 52 43 43 42 46 54 54 59 60 75 100 132 157 180 193 198 201 203 201 204 202 205 203 203 204 205 205 205 206 206 206 203 203 200 195 186 175 169 157 138 113 91 83 87 92 89 94 81 85 85 76 73 68 61 62 58 57 54 64 67 62 56 61 54 50 43 45 37 49 53 48 37 43 38 35 42 49 50 57 54 54 55 58 48 41 42 79 74 70 58 52 46 40 32 39 41 45 49 57 61 74 95 124 158 175 188 197 200 202 202 204 202 204 203 203 204 204 204 205 206 205 205 205 203 201 201 198 191 183 177 167 163 150 126 110 96 83 76 80 85 81 87 83 80 70 69 56 59 53 56 55 67 70 63 55 62 51 42 41 37 42 56 54 43 39 42 41 38 43 46 52 59 54 58 51 51 39 36 67 62 55 50 50 39 36 34 41 43 45 48 62 73 88 121 148 172 186 194 200 201 202 203 204 203 205 203 203 205 206 205 206 204 206 205 203 204 203 202 201 194 190 184 177 168 159 151 135 129 119 94 80 74 75 79 87 83 75 69 59 57 56 51 53 60 69 71 61 54 59 54 41 37 33 52 58 48 38 45 42 39 39 43 44 51 58 55 52 48 44 41 66 56 51 49 42 38 33 39 48 49 45 56 64 85 111 139 162 179 191 196 201 201 204 205 204 203 204 204 204 204 206 205 204 203 206 205 205 204 203 203 203 197 195 189 182 178 168 162 150 137 131 120 105 93 81 70 75 73 74 65 66 57 57 53 56 57 60 70 65 55 55 52 50 41 34 44 58 53 35 43 41 42 36 46 40 45 51 53 51 49 43 53 64 56 48 43 39 31 31 41 50 50 48 56 77 99 126 150 167 185 192 198 201 202 203 205 205 205 205 203 203 204 203 205 206 205 205 205 204 204 206 203 202 202 198 193 185 179 179 168 168 155 136 131 115 107 99 89 78 69 73 66 67 65 59 59 57 59 61 65 67 62 57 50 53 46 42 43 48 55 47 36 40 43 45 43 43 40 37 47 40 46 37 42 64 60 47 43 36 35 35 50 45 51 51 68 87 107 137 163 177 188 196 199 204 203 204 204 204 204 203 204 205 204 204 204 205 206 204 205 206 205 206 204 203 203 200 197 189 181 175 172 171 168 157 141 134 121 110 107 95 90 66 64 63 64 62 63 61 72 67 71 75 71 64 59 52 52 47 45 41 54 54 47 39 39 45 44 43 47 44 36 35 45 42 38 63 59 48 44 36 41 41 44 50 53 55 71 96 116 142 169 180 191 198 201 204 204 204 205 203 204 205 204 205 205 203 205 204 206 205 204 206 205 204 207 205 206 203 202 196 188 178 171 170 169 167 154 148 134 123 112 111 106 90 78 63 66 58 56 60 66 65 71 76 80 76 64 64 54 55 49 49 50 66 50 49 47 38 41 41 38 48 43 35 44 47 46 67 66 51 48 41 45 43 41 51 48 62 79 108 127 155 173 187 194 198 204 206 206 204 204 203 205 205 204 205 206 206 205 203 204 205 205 205 206 207 205 204 206 204 204 202 197 190 175 171 170 168 164 159 148 135 122 108 111 105 95 79 67 64 55 53 61 60 65 69 74 74 74 71 64 60 58 55 49 59 51 44 49 45 37 40 39 42 46 48 42 50 55 75 64 51 52 43 47 43 51 51 59 65 93 119 147 168 181 191 197 201 203 206 205 204 206 204 204 204 206 205 206 204 205 206 206 207 206 207 206 206 206 206 205 206 203 202 200 198 187 179 175 169 168 164 159 150 137 121 110 108 102 98 79 67 61 53 52 56 54 57 63 59 67 60 68 64 56 60 51 56 58 48 42 43 40 43 39 41 38 42 41 42 51 73 63 58 55 49 39 43 45 54 53 74 108 141 165 178 189 193 201 201 203 207 205 205 204 204 205 206 205 205 206 206 206 205 206 207 208 207 207 204 207 205 206 205 204 200 197 200 192 191 180 178 171 167 163 162 152 136 127 113 109 99 95 83 66 58 54 53 52 48 47 50 58 60 58 59 59 53 59 49 53 54 53 43 43 35 35 38 42 41 38 38 38 72 66 61 54 46 41 45 52 51 55 92 126 157 176 185 193 199 198 202 204 206 206 206 206 205 204 205 202 203 203 205 204 206 206 205 206 207 204 206 204 204 202 204 200 200 198 199 197 192 189 185 180 173 172 165 164 154 139 126 121 106 103 94 76 68 53 58 52 55 44 46 47 55 52 48 56 57 55 54 49 52 52 47 45 43 30 31 36 36 36 43 31 70 65 61 53 48 48 59 54 47 57 109 145 169 180 188 196 199 200 203 203 205 206 205 202 199 192 187 188 191 192 194 195 197 199 199 200 203 201 203 201 202 199 200 199 196 197 195 196 192 195 190 190 185 178 172 171 165 156 143 133 120 112 103 94 81 69 62 58 58 48 51 42 50 53 49 56 55 58 54 59 52 56 48 45 47 41 33 31 31 31 35 31 67 65 58 48 50 53 52 41 47 77 124 160 177 186 189 197 199 199 202 204 203 198 186 177 167 161 163 167 166 167 162 157 164 166 167 172 180 186 188 192 193 193 193 193 192 192 192 193 192 195 191 193 189 185 179 173 169 161 155 148 134 125 112 106 95 87 76 66 56 52 49 45 46 47 49 53 53 51 57 52 58 54 58 52 46 50 42 38 28 27 31 28 66 59 57 45 57 48 44 39 53 96 139 165 185 186 194 197 200 201 201 199 190 180 176 173 164 154 147 145 143 140 133 129 128 130 134 131 140 154 158 164 172 178 180 185 184 186 186 190 191 192 192 190 192 187 184 176 174 165 160 154 148 137 128 116 108 95 87 82 65 54 48 45 47 45 43 53 47 48 52 51 50 49 56 58 59 46 47 42 38 25 32 27 68 59 57 51 55 45 37 37 61 114 148 173 186 191 193 198 200 195 189 181 176 176 177 174 164 155 142 134 123 117 116 110 110 117 119 122 117 126 134 131 141 155 160 167 174 178 184 188 189 189 189 186 185 186 181 178 172 167 161 155 150 145 141 128 115 107 88 78 75 66 48 44 47 45 48 50 45 50 45 54 47 48 49 52 54 55 51 45 38 36 35 34 70 59 52 54 50 40 33 37 77 126 155 179 190 190 196 199 193 180 182 184 187 187 189 184 182 174 171 158 147 129 121 109 108 107 111 113 114 114 115 114 120 141 147 153 161 170 175 186 186 186 187 183 181 180 177 172 167 162 155 150 140 135 127 116 105 89 77 64 63 56 58 50 46 38 42 48 44 50 51 52 42 52 49 54 51 56 56 61 52 47 35 38 68 59 58 56 45 39 30 42 94 135 164 181 189 192 197 193 181 182 188 197 198 198 195 192 186 178 177 173 167 158 149 137 127 121 115 120 117 114 114 113 114 128 137 145 153 160 168 182 182 182 184 176 177 172 168 162 154 151 144 132 120 111 96 89 80 75 63 56 52 52 57 58 48 43 41 44 40 51 48 57 45 50 49 50 52 49 52 57 58 56 44 43 66 63 57 55 49 32 31 51 105 145 168 182 188 192 194 190 182 187 195 199 199 196 192 190 183 181 176 176 174 166 159 155 146 140 135 129 126 126 123 122 123 124 136 140 150 155 168 178 182 181 177 172 166 164 159 146 144 136 132 116 98 85 76 73 67 67 58 55 47 47 56 59 63 51 42 44 41 45 47 47 46 52 50 50 52 51 51 48 52 55 49 49 66 67 55 53 45 28 24 65 119 152 172 188 191 194 191 189 189 192 196 198 194 189 184 181 184 180 174 174 170 167 160 155 151 146 141 138 135 134 134 135 135 131 135 143 150 158 172 181 182 181 173 166 161 154 146 133 125 122 118 105 91 81 70 76 76 75 69 69 64 64 67 67 68 69 52 49 49 44 43 45 45 45 49 52 51 51 52 51 52 57 53 48 68 69 54 57 39 25 26 78 131 156 178 187 193 193 190 192 193 195 195 191 188 182 179 178 182 181 182 177 176 169 166 160 157 148 141 135 134 133 135 135 138 144 144 150 158 166 178 186 184 182 176 166 161 150 137 121 116 113 112 105 99 95 97 93 98 98 99 100 102 103 106 97 92 96 81 59 63 51 49 49 40 38 45 47 51 50 53 49 55 48 55 50 74 65 57 53 39 22 28 95 140 163 178 190 192 193 195 194 195 193 189 187 179 179 179 179 184 181 183 183 179 177 173 170 159 153 143 134 130 129 135 131 135 140 146 153 164 177 181 189 188 186 180 169 157 143 130 121 113 115 113 110 108 108 109 109 108 109 113 113 115 116 112 110 110 103 95 81 74 69 51 47 52 44 43 44 45 46 54 53 52 53 54 54 70 61 52 52 37 22 37 108 145 166 183 190 194 197 195 195 196 190 186 183 182 180 187 186 187 190 186 190 187 185 182 177 170 159 149 137 128 125 125 128 131 131 142 157 174 184 191 194 194 189 184 170 154 139 126 119 113 112 110 111 108 108 111 111 110 112 112 116 113 116 113 111 110 106 95 89 87 77 60 48 35 40 49 46 52 41 50 48 53 49 52 51 64 56 55 50 32 22 51 120 152 171 186 192 198 198 200 198 195 191 184 183 185 186 191 192 193 193 193 193 193 192 190 185 176 170 154 143 128 124 123 119 125 123 130 150 176 196 197 199 198 196 185 172 152 137 118 115 109 109 110 110 110 111 112 110 112 112 115 117 118 114 113 114 109 99 95 94 92 87 73 58 31 30 38 42 50 52 53 51 52 49 52 48 58 54 51 51 27 25 68 128 155 178 188 193 200 200 202 199 197 192 186 183 189 191 194 194 196 197 196 196 196 194 192 189 176 173 157 146 127 122 118 118 121 124 122 135 175 201 205 203 202 199 189 172 154 130 116 107 105 105 110 112 111 112 113 114 111 117 121 121 123 116 116 111 110 99 92 95 88 89 78 65 37 28 19 37 37 46 48 50 49 48 53 52 60 50 49 49 28 31 87 140 168 181 192 197 199 202 202 200 197 192 189 188 189 190 191 191 194 193 192 193 196 190 188 181 173 163 153 145 125 116 110 112 114 122 120 129 164 202 204 206 205 201 196 175 148 127 111 103 104 103 103 109 109 110 108 115 117 121 128 129 128 123 119 111 107 95 92 87 87 84 80 67 47 28 19 25 33 36 36 42 43 38 43 46 59 49 49 46 25 41 99 146 172 185 194 200 201 202 202 202 197 193 191 189 186 184 181 188 188 188 185 184 186 179 178 168 162 149 143 135 120 111 105 105 112 122 126 133 164 200 206 205 207 203 198 178 146 118 108 97 98 97 98 98 101 103 110 117 127 130 134 140 130 126 121 108 97 89 92 85 83 84 76 76 51 31 17 25 30 35 35 36 38 40 43 44 57 48 50 40 29 52 112 155 178 188 198 199 204 204 204 202 200 196 194 190 182 178 169 176 180 181 176 178 172 166 160 152 141 135 126 120 112 106 99 105 117 131 139 144 170 199 208 208 207 205 198 177 145 120 102 97 98 92 93 93 98 104 114 118 131 136 141 145 138 126 120 108 91 78 85 87 81 82 77 80 58 37 14 27 28 37 37 32 35 39 38 43 51 48 52 41 30 67 119 161 183 191 195 201 204 206 204 203 203 198 198 191 183 171 157 146 149 148 150 151 151 143 134 127 121 110 108 92 85 79 85 101 124 151 161 159 183 200 205 205 208 205 197 178 146 118 104 103 101 99 91 92 96 105 110 116 124 131 138 135 133 121 112 106 87 73 73 83 80 83 80 82 62 41 18 25 28 36 38 38 34 33 38 40 50 48 53 40 38 74 127 169 185 192 201 201 204 204 205 204 203 202 201 196 190 179 152 129 103 103 100 107 107 99 96 91 85 86 74 66 64 70 101 127 141 157 168 179 188 202 207 207 205 205 197 175 143 122 109 110 106 98 84 77 72 80 87 93 103 115 122 122 120 110 104 95 80 73 66 79 76 79 76 83 66 45 19 27 30 33 39 36 38 30 33 41 45 51 51 40 35 90 133 171 185 197 198 203 207 205 206 205 205 202 202 202 196 191 169 151 115 108 97 95 90 82 77 77 74 74 74 72 81 96 121 144 155 165 178 188 200 201 205 205 205 206 197 179 147 124 118 113 113 110 111 102 83 71 61 59 70 82 91 99 100 94 90 83 70 65 66 71 76 81 84 80 70 45 23 26 30 31 31 36 34 35 34 31 46 50 50 38 39 97 139 169 188 194 202 204 205 206 206 205 204 203 202 202 201 197 188 175 157 142 132 123 117 108 98 97 91 92 91 100 106 115 132 153 165 179 188 198 199 203 205 207 206 204 199 182 148 127 125 123 119 119 122 117 106 93 76 63 58 58 64 67 67 65 64 63 56 54 58 71 73 83 87 87 71 44 29 21 35 31 28 32 34 31 36 34 47 50 49 33 39 102 139 169 187 197 199 203 207 207 206 207 205 203 203 202 200 198 195 186 175 166 152 144 137 131 123 113 113 114 118 123 127 133 148 170 179 191 196 200 202 204 205 207 207 206 201 181 148 129 130 134 128 128 125 127 121 112 97 87 77 64 71 60 55 54 45 45 45 48 59 74 76 82 90 95 71 48 25 23 29 36 27 30 33 33 38 37 47 51 48 33 35 106 140 168 188 197 201 204 205 207 206 206 205 204 204 203 202 199 193 185 178 172 162 151 152 145 142 142 139 142 141 139 149 158 179 186 194 198 201 202 203 204 208 208 207 205 201 181 150 129 130 139 137 135 137 134 130 121 119 105 97 87 84 82 69 66 54 51 53 58 64 78 79 87 93 99 76 48 30 22 31 34 29 29 31 32 36 38 48 49 48 32 37 104 138 171 187 195 202 203 207 207 206 204 206 206 204 204 202 201 198 192 190 184 181 177 178 172 164 162 155 156 154 149 170 186 195 198 201 202 203 204 204 206 207 209 207 207 201 180 150 131 131 137 144 147 150 142 134 123 125 117 114 108 102 105 93 89 82 82 77 84 78 91 86 92 96 103 86 51 31 29 29 32 31 27 35 27 35 35 49 49 46 33 28 104 140 170 184 196 199 204 205 206 206 205 205 206 204 205 204 204 200 201 198 196 191 192 188 181 175 169 165 164 170 178 193 198 203 203 205 203 205 204 203 207 207 206 209 205 200 178 152 130 132 134 144 152 160 154 140 130 125 123 118 116 113 109 109 104 101 102 98 95 93 98 98 96 101 104 98 56 27 34 32 30 36 26 36 36 33 30 47 51 47 31 23 100 140 168 183 193 201 202 205 207 207 204 205 203 204 205 205 203 205 203 203 202 199 199 196 190 189 183 181 185 193 197 201 203 204 205 205 204 205 204 204 207 207 208 207 207 198 179 150 135 130 136 140 149 166 166 154 141 137 126 125 123 118 116 113 113 113 112 109 110 106 105 106 103 104 108 103 64 29 26 36 34 31 32 35 38 34 36 47 51 46 32 19 96 135 163 181 193 197 202 204 206 207 206 205 204 205 205 205 207 204 206 206 204 204 203 201 199 199 199 196 201 202 201 204 205 205 206 205 205 204 203 206 205 207 206 207 205 199 179 154 134 131 134 138 149 165 173 172 160 153 141 135 135 130 125 121 119 125 119 124 120 117 120 115 113 110 110 108 71 31 30 33 36 33 32 38 34 43 37 51 50 41 35 20 83 130 160 180 188 199 200 204 204 206 205 205 203 204 205 206 204 206 205 204 207 204 204 202 203 203 204 203 203 203 206 204 204 207 205 205 205 206 203 206 205 207 207 206 202 199 178 158 137 130 134 134 146 162 172 178 178 165 163 154 151 144 143 136 135 135 137 136 135 135 131 126 120 114 112 110 77 35 29 32 33 37 30 33 32 46 36 52 54 44 31 16 78 122 153 178 188 195 200 203 203 207 206 204 203 204 206 204 205 204 204 206 205 206 205 204 204 204 204 203 203 203 202 203 203 206 203 204 204 206 203 205 206 206 206 206 202 197 182 165 144 134 130 135 141 156 164 175 179 182 175 174 168 169 160 160 156 153 155 151 149 147 141 134 130 116 112 111 83 35 29 35 31 38 30 27 34 36 43 51 53 45 31 23 67 121 146 173 186 197 199 201 203 204 205 205 202 203 204 203 205 204 205 204 204 205 206 204 203 202 202 202 202 202 202 200 203 204 205 203 205 204 205 204 206 207 208 204 201 198 184 172 149 140 127 130 138 153 163 168 176 181 179 184 179 180 177 176 172 169 166 163 157 153 149 142 130 121 117 109 88 35 29 28 37 37 29 26 31 37 32 50 51 42 33 26 68 115 144 169 185 194 199 200 203 204 206 204 203 203 204 204 203 204 205 204 204 205 206 203 203 202 201 200 200 199 199 201 200 203 204 203 204 205 204 206 206 207 206 206 200 197 191 177 160 140 131 124 134 148 162 166 172 176 181 183 183 182 181 184 177 178 173 169 162 156 150 144 133 124 115 111 90 35 27 26 39 33 34 25 31 36 31 51 52 44 33 32 65 116 143 161 183 192 196 200 202 203 204 205 202 203 204 203 204 203 203 204 205 206 204 204 202 200 196 193 194 195 194 196 199 200 202 203 203 203 206 207 207 207 206 204 200 196 191 180 161 144 132 119 130 145 159 170 174 179 179 182 182 183 181 185 180 178 174 172 166 157 151 145 137 127 121 109 82 35 25 25 39 35 34 26 29 35 35 48 53 42 35 35 62 115 144 160 178 190 196 200 200 201 202 203 204 204 204 203 204 204 204 204 204 205 204 202 200 196 186 181 187 190 188 189 194 198 203 203 203 204 207 208 206 206 204 203 198 193 190 180 160 140 137 121 123 144 153 165 171 177 181 180 183 180 183 182 178 176 174 170 166 161 151 142 136 128 122 104 77 35 26 26 45 28 37 28 30 25 33 47 48 45 33 31 64 108 144 162 175 189 192 198 200 201 203 204 202 204 204 204 202 202 203 204 203 203 203 201 198 189 174 173 178 183 182 180 188 198 204 205 205 203 205 206 207 203 202 200 195 191 184 172 153 136 135 128 124 135 153 160 168 175 176 180 182 180 179 176 178 175 171 171 166 158 153 140 134 128 120 105 66 28 26 28 40 30 37 34 26 28 24 48 46 47 31 34 57 105 143 162 171 187 191 196 197 200 202 203 202 202 203 203 203 202 203 202 202 203 201 201 195 191 181 174 176 177 173 174 188 198 204 205 203 200 199 202 202 200 198 193 189 186 172 158 139 128 129 133 127 134 149 158 165 171 174 176 178 178 175 178 175 175 169 168 161 153 151 140 130 128 118 96 54 27 28 32 38 26 38 38 27 21 29 48 47 42 34 39 52 103 142 163 175 185 191 194 196 197 202 201 203 201 203 203 205 203 202 202 201 201 199 199 195 188 181 175 175 170 174 173 185 198 204 202 200 194 187 190 196 194 190 184 182 173 151 139 125 125 130 131 127 133 145 158 163 170 169 172 174 174 173 176 174 170 165 160 155 151 145 139 131 125 114 86 41 31 28 35 36 26 37 39 29 25 25 48 49 40 42 43 53 100 137 163 177 182 190 193 196 196 200 201 200 201 202 202 202 202 201 202 201 198 198 193 193 187 179 172 171 168 172 180 188 195 200 198 187 175 158 175 192 188 185 173 164 156 133 121 119 129 132 132 126 130 141 154 159 164 164 168 171 173 173 174 169 169 159 155 154 148 139 137 128 123 107 68 40 24 36 34 37 30 31 40 31 25 27 49 52 40 40 61 53 91 135 163 176 182 186 194 195 198 199 199 200 201 203 202 201 201 201 200 199 197 194 191 188 182 177 171 169 170 179 190 193 196 193 187 155 119 106 139 181 187 171 157 145 142 116 94 107 124 128 126 126 130 136 147 154 160 161 162 170 172 171 166 165 159 155 152 147 145 136 131 129 114 99 60 30 28 36 39 31 29 33 38 33 22 29 43 50 40 42 56 54 84 131 157 177 181 188 191 193 196 197 198 199 201 201 202 201 200 201 198 197 193 194 190 184 181 176 168 176 183 192 196 201 198 199 189 155 127 124 143 168 174 156 139 133 122 97 70 90 116 125 125 126 129 134 143 153 154 161 164 164 168 167 161 158 154 153 148 148 140 134 131 120 110 87 49 25 28 35 39 28 28 37 34 36 24 32 43 47 44 37 45 42 71 126 158 177 182 186 190 192 194 198 196 198 199 201 200 199 200 198 197 194 192 192 184 180 176 172 175 186 193 198 200 202 202 202 196 179 162 162 162 166 168 151 133 123 116 98 79 88 115 119 128 128 134 132 138 145 153 155 159 162 160 160 158 155 150 149 147 141 140 127 125 116 101 80 38 27 29 38 31 29 31 41 39 36 29 33 42 47 43 39 28 15 54 123 154 178 186 184 192 191 194 197 196 198 199 199 200 199 198 198 195 193 188 185 181 177 176 179 186 194 199 201 203 202 202 204 199 192 183 177 175 167 157 142 128 120 114 107 95 98 116 121 133 133 135 132 135 142 144 151 152 159 156 156 153 154 146 147 145 139 136 124 121 114 94 64 31 26 35 36 27 25 39 42 40 32 35 35 44 45 40 41 27 8 33 117 151 178 183 189 191 191 192 194 197 196 199 199 199 200 198 194 194 190 185 185 178 176 182 191 193 200 201 201 203 202 204 202 202 197 193 191 182 167 145 131 126 124 119 113 108 111 124 127 134 134 137 133 133 141 140 149 149 150 154 152 148 150 146 145 144 134 131 122 119 107 87 48 25 31 33 32 22 28 41 42 37 34 33 38 40 42 42 38 29 14 23 106 148 177 184 189 192 191 193 193 196 197 196 196 199 196 198 195 192 189 182 183 178 184 188 198 199 202 201 201 202 204 202 204 203 201 200 195 185 162 140 130 132 134 127 129 123 124 130 129 134 135 137 135 133 138 136 142 147 146 150 149 146 144 143 142 140 134 124 122 114 102 72 41 25 30 33 24 20 25 41 40 35 36 34 35 39 42 41 37 33 18 11 93 147 174 185 189 193 192 195 194 196 193 196 197 199 197 196 194 190 189 184 183 184 190 195 198 200 201 203 202 202 202 202 204 202 202 199 197 186 161 146 138 139 139 136 133 132 134 135 135 134 136 139 135 137 135 139 141 143 140 147 146 145 142 140 136 132 128 119 119 109 92 64 35 26 32 29 24 18 30 36 35 35 36 37 39 36 38 41 35 36 24 8 75 143 172 185 188 193 193 195 196 193 193 194 198 198 196 196 195 192 187 183 184 190 193 198 199 202 202 203 203 203 202 203 203 203 200 199 200 184 166 149 145 145 143 137 137 139 140 139 137 135 134 134 136 138 137 141 143 142 143 144 142 144 139 139 133 127 123 118 115 101 86 57 30 29 28 25 20 19 33 33 36 33 39 37 40 42 33 41 36 34 29 8 44 134 168 184 186 190 194 196 196 194 193 195 197 196 197 194 192 192 188 186 189 190 198 199 202 203 203 203 203 204 203 202 203 201 202 200 200 192 174 164 156 161 149 141 137 142 143 141 136 136 139 134 135 137 137 140 141 144 143 144 142 142 139 135 131 124 122 116 115 98 74 52 27 27 25 18 21 22 33 37 29 35 33 39 44 38 34 38 39 35 30 14 25 122 165 183 186 190 194 194 196 197 194 194 196 196 196 193 192 193 187 189 192 196 197 199 201 202 202 204 204 204 204 203 201 199 196 193 192 185 179 181 178 174 162 149 142 139 144 142 139 138 139 134 137 132 137 136 141 144 146 142 139 136 136 133 129 126 117 118 104 92 69 47 27 26 22 19 20 22 37 35 28 31 39 40 38 35 33 32 42 27 35 25 10 100 160 179 186 191 194 196 195 195 194 194 194 196 194 194 195 192 189 191 193 194 196 198 201 201 202 200 200 199 194 189 181 179 168 166 163 158 164 168 167 158 145 134 135 135 141 142 142 140 138 139 136 132 132 136 136 144 146 138 138 134 133 133 129 123 118 114 104 86 64 41 25 22 23 18 22 24 33 33 30 24 45 46 40 38 29 32 36 36 28 26 9 74 150 178 186 192 193 195 195 194 195 194 195 196 195 196 197 195 190 193 193 194 191 193 192 192 193 188 180 173 165 160 155 155 152 145 138 136 138 134 133 128 114 116 117 118 122 130 135 135 136 133 135 131 132 133 134 140 144 139 132 133 134 128 128 120 116 110 97 84 60 33 23 23 24 18 27 26 36 38 27 25 38 55 39 34 27 30 33 34 30 28 16 42 137 173 184 191 192 195 195 194 195 192 195 195 197 199 199 198 191 191 191 188 181 174 167 163 159 158 147 142 138 141 135 136 137 129 123 116 117 111 108 109 104 108 107 103 107 108 116 126 128 131 130 131 129 129 133 136 134 132 130 136 130 129 126 119 114 108 96 82 51 27 23 23 21 26 28 28 37 39 27 26 35 58 42 35 27 27 30 33 33 28 18 16 114 165 182 190 191 194 194 194 195 194 195 196 198 200 197 197 194 189 187 175 161 140 124 114 120 117 122 116 120 123 116 121 125 122 114 107 106 100 100 103 102 103 102 97 96 93 95 106 114 123 126 129 126 127 131 133 134 128 134 132 132 126 126 118 111 105 93 77 42 22 22 25 19 29 32 34 35 36 30 22 41 49 51 36 28 29 29 29 32 29 24 10 77 155 177 189 191 192 195 194 193 194 195 197 199 199 200 198 194 187 178 164 150 121 94 71 71 74 102 101 109 133 128 134 147 146 141 121 116 116 119 119 111 106 102 96 90 85 92 84 97 108 116 121 127 127 135 135 137 131 136 135 128 127 119 119 111 99 93 66 34 20 24 22 24 30 40 35 29 35 29 26 36 43 54 32 33 24 34 24 33 28 33 9 45 142 171 186 190 193 196 193 196 194 196 196 199 199 199 200 194 187 173 166 164 148 112 79 57 62 76 94 100 129 130 133 161 166 161 144 129 138 145 146 134 120 117 104 82 77 79 72 79 86 104 116 126 131 132 137 138 135 136 133 130 122 118 114 110 96 84 53 23 24 23 25 28 32 28 33 24 30 36 27 41 39 38 34 27 31 31 26 27 26 31 16 13 116 161 181 188 191 196 195 195 197 196 197 196 199 198 199 192 185 176 175 181 181 159 125 100 97 93 102 99 110 110 113 138 150 144 135 121 127 136 134 128 107 106 92 72 64 59 54 53 66 88 110 122 133 136 138 142 139 139 131 128 121 116 114 107 93 76 42 19 24 25 27 34 26 26 28 26 30 29 30 39 41 38 31 29 29 29 31 25 25 25 26 7 72 146 174 186 189 194 193 195 196 194 197 197 197 197 197 192 184 183 185 190 193 191 168 154 150 147 137 130 127 117 113 107 107 103 98 92 89 98 98 97 83 78 71 62 53 52 36 38 55 81 106 120 134 134 143 142 142 137 132 125 122 115 113 103 89 65 28 22 23 27 34 29 24 25 26 22 34 28 33 38 45 34 36 24 33 30 34 19 25 25 25 10 40 123 165 180 189 192 193 194 195 195 195 196 197 197 195 188 186 188 192 195 197 197 192 179 177 181 175 169 160 148 132 121 107 99 89 91 87 91 92 80 72 67 62 59 56 56 56 64 81 98 111 121 127 138 141 144 143 132 132 123 117 115 112 99 82 47 19 26 28 36 31 25 24 28 28 23 32 29 31 43 44 34 28 31 29 34 31 27 23 23 22 20 14 86 148 172 187 190 192 193 193 193 195 196 193 194 192 192 186 192 193 198 199 200 199 191 183 179 182 183 185 183 172 151 133 121 109 107 104 103 102 97 91 84 88 84 83 89 88 92 106 115 119 126 132 139 142 144 140 130 128 120 116 113 108 92 60 32 21 24 35 37 26 22 25 31 27 28 33 32 28 46 46 38 30 31 33 32 31 28 23 22 22 17 19 59 125 161 182 187 192 192 194 193 192 194 193 193 191 191 189 193 197 198 199 200 200 197 187 181 180 182 181 184 180 165 147 143 138 130 134 130 126 125 117 114 107 107 102 99 102 101 113 120 124 130 134 136 142 143 136 131 121 118 113 111 105 79 43 23 21 29 37 33 25 21 29 29 32 30 37 28 34 42 48 34 28 35 32 33 35 32 24 20 23 14 21 52 101 142 174 185 190 192 193 193 194 195 191 192 192 190 189 193 196 198 198 198 198 196 190 184 176 173 169 167 166 154 146 144 142 137 141 139 138 135 133 123 117 109 106 102 104 107 118 127 131 132 135 136 136 137 133 125 117 114 112 107 99 63 27 24 28 30 33 34 26 22 32 34 33 37 38 27 34 43 45 34 27 37 33 34 33 32 27 20 21 18 15 59 86 118 158 179 188 190 192 192 194 194 192 193 192 188 189 192 195 195 195 196 193 191 190 185 176 170 163 149 149 141 134 133 131 129 127 127 131 125 123 115 107 103 107 107 108 118 121 132 135 133 135 132 133 130 124 118 113 114 110 102 85 41 22 27 33 27 23 37 24 25 40 34 36 37 34 29 36 45 45 37 29 32 36 36 35 32 24 22 20 15 18 50 90 99 131 169 185 188 191 191 194 192 194 193 192 191 190 191 192 194 194 194 191 187 187 183 177 170 160 151 139 133 132 123 127 124 119 121 119 113 111 106 104 103 110 114 115 125 125 134 131 128 133 133 131 127 117 117 113 106 113 93 59 27 26 30 27 24 18 37 27 30 43 40 40 36 31 33 38 47 44 35 28 33 35 35 36 34 25 21 18 16 18 52 89 98 107 149 172 184 189 192 191 194 191 193 196 192 193 192 192 193 194 193 192 187 184 181 175 169 159 144 138 128 123 120 120 118 115 115 111 106 104 107 105 115 113 119 123 123 129 130 125 122 131 128 128 119 115 112 113 107 103 72 37 19 32 30 19 21 23 31 32 33 44 40 34 39 31 32 44 51 38 40 30 28 38 35 40 29 25 22 22 14 19 50 88 98 100 121 153 175 185 189 190 194 193 193 196 193 193 194 194 192 195 193 190 188 185 179 172 163 155 140 135 127 121 119 115 116 108 110 106 108 108 113 111 119 117 123 121 122 129 128 125 123 130 127 122 115 114 111 110 105 88 50 21 24 34 25 19 20 28 31 32 39 43 35 35 40 31 38 41 48 38 30 29 29 34 36 38 33 26 22 21 16 11 51 86 100 108 105 127 161 179 185 187 189 192 191 194 194 193 196 195 197 197 195 191 187 185 182 173 162 151 143 137 128 125 122 119 121 113 116 113 118 117 119 118 120 120 119 122 125 127 125 128 126 131 123 118 111 109 113 105 97 62 30 19 30 31 28 19 22 28 37 29 37 40 36 41 36 33 38 45 45 35 26 29 23 37 38 42 28 26 23 22 17 9 47 85 99 111 105 107 135 163 180 183 184 191 191 193 194 196 195 198 198 199 196 193 188 186 181 177 167 157 148 141 135 132 129 122 126 121 122 124 122 121 123 119 119 121 123 124 125 128 125 129 129 125 120 113 113 110 109 99 80 32 26 21 29 33 25 19 24 31 31 34 37 36 40 36 36 31 44 46 44 29 31 29 26 33 41 40 35 24 28 18 20 9 45 81 103 110 111 112 109 134 164 176 183 186 188 189 192 197 197 198 202 200 201 195 196 193 185 186 171 168 159 154 146 139 136 132 128 128 125 125 127 132 122 128 124 131 123 126 127 128 133 127 127 122 116 111 111 106 102 82 46 28 26 18 30 32 22 22 26 35 29 33 40 37 35 32 36 36 38 40 39 28 31 35 27 35 42 44 32 25 25 19 21 15 45 80 103 113 113 115 110 109 135 159 170 181 184 185 190 193 198 199 201 201 200 199 198 198 193 190 185 181 177 174 165 160 154 144 139 138 134 137 135 136 136 134 133 133 134 130 132 134 132 129 126 117 112 109 106 102 85 56 37 25 26 24 29 32 24 29 33 28 29 39 38 34 38 38 34 30 38 44 37 39 24 37 28 36 40 40 33 22 29 18 25 24 44 80 98 116 120 117 114 110 109 136 155 170 180 182 187 190 197 200 200 201 200 200 200 200 196 195 193 192 189 187 184 178 174 162 156 152 149 145 145 141 142 141 139 137 137 137 134 135 132 129 123 112 108 104 102 85 64 40 34 28 28 23 29 32 31 36 30 26 31 42 37 33 36 36 29 31 36 38 40 37 25 35 34 31 41 37 36 28 23 20 31 25 39 77 95 113 122 125 117 116 105 113 134 153 167 178 182 184 193 198 199 200 198 200 201 199 200 197 199 197 193 193 188 186 183 175 173 170 163 159 158 156 153 148 146 144 141 138 138 135 132 126 117 107 103 98 87 64 46 37 34 28 27 28 30 38 35 36 28 29 35 41 35 32 34 30 26 30 31 41 38 34 27 33 32 35 37 38 35 30 19 25 35 28 32 75 94 111 122 129 124 119 115 109 110 128 146 162 175 179 184 194 198 198 199 201 200 202 200 198 197 195 195 190 184 183 180 181 178 178 174 172 168 165 161 157 152 147 146 136 139 133 127 116 104 100 93 85 63 48 45 37 35 30 25 25 40 41 36 27 27 32 36 36 35 31 31 27 23 24 33 41 40 35 27 39 32 37 37 40 32 30 21 31 37 23 29 68 93 110 120 129 130 131 118 117 110 112 122 141 154 169 175 187 192 194 195 196 196 198 197 195 194 191 186 181 177 178 172 172 171 174 173 171 167 165 162 157 151 149 141 137 131 125 115 105 94 90 78 65 52 49 43 40 33 31 27 33 39 38 34 25 29 33 38 29 34 36 35 30 21 30 32 38 41 36 30 35 34 41 36 39 34 33 31 36 38 18 26 61 90 108 115 127 128 134 125 122 119 111 111 117 133 148 162 174 185 189 190 189 187 190 187 189 187 183 177 173 171 164 162 163 164 167 168 164 164 164 153 151 147 144 138 132 127 114 106 92 82 78 64 56 54 47 46 38 30 37 34 37 31 33 29 29 29 35 37 33 37 37 34 24 27 28 35 33 38 44 31 31 38 38 39 40 37 35 40 35 37 23 18 62 88 106 114 127 130 133 132 127 122 120 115 115 117 127 142 154 170 178 181 176 177 173 177 174 173 168 166 162 157 151 150 156 156 160 158 154 153 152 143 140 139 135 132 122 115 100 93 76 70 67 58 55 55 47 43 41 34 36 37 34 25 29 34 30 30 35 35 40 43 42 29 29 33 24 38 33 42 44 33 34 35 36 41 41 36 40 39 37 31 27 11 58 86 102 115 122 131 132 130 134 128 122 121 114 116 118 125 133 150 160 167 161 158 156 161 159 154 151 148 144 143 141 142 144 145 149 146 142 142 135 133 130 133 126 122 112 102 87 78 70 64 67 58 58 56 49 43 38 37 34 35 23 24 20 36 31 34 38 41 42 42 50 37 36 31 29 38 35 39 51 40 37 35 38 41 40 41 37 50 36 35 19 15 51 79 101 113 117 132 129 131 130 132 130 126 121 117 121 123 123 130 141 151 154 148 143 145 143 138 135 132 133 131 129 133 134 137 134 130 128 126 125 122 121 120 115 104 98 85 78 72 71 65 65 58 63 49 48 43 37 33 40 25 28 19 29 29 40 39 38 41 42 39 44 48 38 31 35 35 40 40 47 51 36 38 41 42 38 40 42 40 37 34 22 17 46 73 94 108 118 124 132 129 131 132 130 133 123 120 120 122 121 126 128 131 138 136 135 131 128 124 124 122 118 121 117 122 121 123 122 119 117 116 114 112 109 107 100 94 81 77 74 70 73 64 67 63 59 54 50 40 39 41 34 23 27 22 29 34 37 33 33 37 41 42 34 48 42 32 38 42 40 35 44 47 39 40 40 47 40 40 38 43 37 33 22 19 44 70 89 106 116 119 129 131 130 132 131 129 131 123 122 122 124 123 128 130 126 128 126 122 119 116 116 110 112 113 106 111 111 113 112 110 107 105 106 101 101 96 89 85 83 76 73 73 70 67 67 60 61 51 47 43 42 40 38 23 28 32 28 31 31 31 35 35 42 46 37 44 46 39 44 50 37 35 39 46 42 39 41 45 43 42 42 37 39 34 23 17 46 70 89 100 113 117 122 130 128 131 128 127 132 128 121 123 124 123 128 131 127 128 125 121 117 116 112 110 106 109 103 104 105 102 101 102 98 95 96 93 93 89 89 83 84 76 73 71 74 68 68 63 61 49 45 47 49 46 33 27 29 32 24 28 33 32 31 34 41 42 45 39 40 45 45 51 36 32 37 41 45 42 42 48 47 42 44 36 40 31 22 21 38 69 88 99 108 119 123 126 128 131 127 127 131 126 124 128 122 125 128 129 128 130 125 123 121 122 114 113 108 109 104 103 102 99 99 97 93 96 95 92 92 90 91 83 81 75 74 76 73 71 69 60 61 52 47 45 52 42 39 26 30 29 23 30 36 35 30 33 40 38 52 42 41 45 45 42 38 32 35 40 