P2
92
112
255
42 47 48 47 46 47 45 48 43 51 40 52 47 47 49 48 48 43 46 46 47 41 50 46 45 45 41 45 43 46 54 54 56 61 63 81 74 67 71 71 67 74 69 65 75 74 72 67 61 60 60 56 71 64 63 59 50 47 41 47 43 38 43 41 40 41 39 37 45 38 44 37 43 38 38 40 35 39 32 42 37 40 35 37 41 36 41 35 39 38 40 35 45 40 45 45 46 48 46 44 47 46 43 52 48 51 40 50 47 46 44 45 48 47 46 53 39 63 73 57 49 55 61 68 70 67 64 67 75 63 69 62 64 60 61 66 61 64 61 63 56 60 53 53 62 68 73 72 65 53 41 47 40 47 41 42 40 42 42 39 41 41 38 38 45 37 38 36 42 36 37 36 34 41 35 41 33 43 38 35 40 36 36 38 46 53 48 44 47 49 49 45 49 44 53 46 46 48 47 47 48 45 43 49 43 54 47 49 58 68 70 75 63 67 60 73 76 69 69 61 57 50 60 55 67 67 58 68 68 67 76 68 69 66 60 52 47 54 57 57 64 74 64 53 43 52 48 41 38 41 43 44 38 42 41 36 40 37 41 42 34 45 38 40 36 37 34 34 38 36 42 36 36 42 36 38 41 54 42 54 43 50 48 47 53 49 50 44 49 48 48 49 50 41 52 51 48 50 62 68 66 70 59 67 68 76 74 76 74 73 70 61 58 63 67 67 65 59 61 58 64 64 71 81 77 83 74 56 54 49 40 49 52 65 69 77 64 72 63 48 50 37 41 41 39 40 43 38 37 45 37 36 43 36 42 33 40 37 39 41 34 41 42 36 39 36 38 41 48 49 50 49 48 51 48 50 51 55 45 54 46 48 49 51 45 46 57 56 51 61 75 76 72 64 60 63 65 61 77 69 74 73 84 70 67 60 77 69 75 62 62 51 62 56 72 77 87 81 84 67 61 61 49 57 52 45 58 55 72 70 71 62 53 48 50 38 46 38 40 44 40 43 39 40 39 40 35 37 42 32 37 41 32 39 41 40 41 37 37 43 49 47 49 49 48 45 52 46 51 47 47 55 50 48 49 51 51 45 54 50 66 86 85 77 76 62 62 58 56 65 70 65 68 73 70 76 65 68 67 73 64 63 64 63 67 70 68 67 75 71 81 74 65 55 44 50 58 53 47 52 58 62 72 64 63 50 46 45 47 44 42 41 38 43 35 41 43 37 40 39 44 33 39 36 43 38 42 34 41 37 44 35 51 52 49 53 48 51 49 50 49 50 48 51 48 46 50 49 50 49 53 77 90 102 96 91 82 70 55 51 60 70 70 63 59 56 63 64 66 67 62 66 61 74 86 76 75 80 76 78 73 73 69 76 74 69 52 49 63 60 55 53 51 50 55 61 64 65 46 49 53 52 45 39 48 46 38 41 42 40 43 42 40 40 37 38 40 44 29 44 37 38 36 41 50 54 51 50 53 50 50 51 49 52 48 52 50 47 53 51 45 61 90 113 119 104 87 94 94 72 63 70 68 77 62 58 55 62 63 67 66 65 57 61 65 72 77 83 75 74 86 90 89 84 66 72 80 81 64 61 60 57 60 63 59 58 53 53 61 64 55 52 51 52 58 43 45 51 41 38 44 40 44 41 35 41 45 36 40 37 39 42 36 37 38 41 55 52 51 52 54 51 50 51 47 55 48 54 54 52 53 48 52 71 106 125 118 94 91 91 92 76 87 84 74 75 66 60 58 65 62 68 62 62 62 67 68 69 70 74 83 79 87 96 93 80 81 69 82 74 68 64 62 59 66 72 65 65 64 66 58 68 54 46 56 57 53 54 44 43 43 37 46 44 37 42 39 38 41 37 39 39 38 44 38 40 42 41 48 51 49 52 49 57 46 55 53 49 56 47 54 50 51 51 64 85 110 109 108 95 90 96 98 89 98 92 88 80 80 70 73 67 66 65 70 72 64 70 80 82 80 79 81 82 85 85 85 75 82 85 81 69 69 77 62 71 70 77 68 76 73 85 76 78 67 56 49 50 51 55 47 48 42 37 46 44 39 38 41 40 38 42 42 39 42 38 39 43 40 43 52 52 52 54 48 56 47 58 52 55 48 54 54 51 50 56 90 110 126 110 119 116 121 121 123 117 116 104 106 100 104 96 89 85 84 81 83 86 84 94 95 94 96 88 89 84 88 90 88 86 89 75 82 76 71 83 78 65 76 76 83 84 89 98 91 101 95 84 66 47 45 46 52 41 50 35 39 50 39 41 44 37 43 37 41 40 35 44 37 41 43 42 55 51 52 51 52 51 49 53 53 53 55 55 54 55 53 73 111 126 127 138 148 146 149 149 144 142 137 132 130 138 127 117 117 114 114 118 118 124 118 120 120 119 120 117 122 113 114 116 117 118 110 95 95 91 86 96 98 90 87 95 106 103 105 115 117 122 116 111 101 88 60 32 43 38 43 36 38 44 47 40 44 38 35 38 39 41 33 42 40 37 45 41 55 55 51 54 55 50 53 52 51 50 57 57 52 54 75 102 123 137 145 165 167 170 168 163 160 156 149 153 155 154 144 148 147 149 148 151 153 155 147 147 157 155 155 150 148 147 145 144 141 137 129 123 125 124 121 126 129 122 121 120 135 134 142 146 141 141 136 128 130 122 107 79 50 39 42 36 29 44 40 43 37 39 35 38 41 43 35 42 42 43 41 46 52 56 53 56 54 52 55 49 56 49 52 59 66 85 94 124 139 155 167 176 178 178 173 171 168 160 163 162 165 163 154 161 159 165 165 166 170 168 166 166 176 175 173 175 173 171 171 171 164 165 166 160 162 159 160 164 160 157 156 160 159 163 165 166 160 152 153 147 142 134 130 115 106 62 50 32 35 26 36 36 41 30 34 39 41 46 35 43 43 44 39 47 53 57 56 55 53 57 52 55 56 49 52 70 92 106 117 144 168 172 181 184 179 177 175 174 168 170 170 170 171 170 172 169 170 172 172 174 175 177 172 176 177 180 178 181 184 185 180 184 181 185 183 183 176 175 177 177 182 178 175 175 175 175 172 171 167 165 162 159 150 143 141 135 121 113 82 46 31 26 35 32 40 25 30 40 45 42 42 40 45 36 37 54 60 52 58 55 55 54 57 55 53 53 63 86 96 102 143 172 181 184 184 184 182 178 181 178 179 175 173 177 174 174 175 174 176 175 177 178 178 180 177 174 177 182 182 182 187 187 185 187 185 190 184 182 181 180 186 180 184 183 180 181 175 181 173 176 171 172 166 164 157 152 147 144 142 129 120 94 43 33 39 32 28 31 24 38 45 42 42 46 42 41 47 38 53 55 62 51 57 56 55 52 48 66 82 93 88 133 174 183 187 189 186 186 185 183 185 184 183 181 180 175 179 175 175 179 177 179 178 179 180 181 179 179 183 185 186 186 185 187 186 190 187 189 185 179 179 182 188 183 186 181 182 180 178 176 178 177 170 174 165 156 161 159 155 151 150 140 139 130 90 46 37 33 30 30 23 26 40 44 46 37 43 40 43 41 61 51 59 53 55 52 57 50 53 96 107 69 114 170 185 188 189 187 184 187 183 188 189 186 183 184 183 179 179 178 180 177 182 174 181 182 179 181 184 184 183 188 186 187 188 185 192 191 188 188 185 182 184 185 187 190 186 183 186 183 182 181 178 177 173 174 168 164 157 161 163 154 156 149 144 140 125 92 36 33 38 20 25 25 33 43 42 42 45 46 40 46 51 62 55 57 57 56 54 46 94 115 86 95 153 185 188 188 194 188 190 192 189 187 189 188 188 186 184 185 180 181 179 178 175 175 178 179 181 180 188 183 190 186 185 186 189 187 191 192 192 191 188 183 188 190 187 190 189 189 186 187 184 184 183 183 177 176 172 173 167 167 162 161 158 154 149 144 138 127 79 28 23 25 25 23 29 31 50 41 46 40 40 46 59 61 52 62 52 58 52 64 116 87 62 139 179 187 191 191 194 194 196 195 192 189 193 193 191 189 183 186 184 181 179 180 180 177 182 180 182 182 187 187 189 191 190 189 191 191 189 194 194 190 191 184 190 189 191 193 191 192 191 189 187 185 189 182 182 179 180 171 173 171 164 161 154 159 148 149 146 139 128 60 25 31 26 19 33 30 47 41 48 45 40 42 62 56 62 54 56 61 51 83 102 71 104 171 192 190 194 198 198 197 198 197 197 196 196 193 190 189 184 185 183 180 181 182 178 184 181 181 180 186 186 190 191 191 191 190 194 193 194 194 193 192 191 190 190 191 193 192 194 193 192 194 189 188 187 183 179 180 175 180 179 172 169 162 156 154 155 150 150 144 138 117 36 41 33 28 27 23 36 48 49 38 48 42 58 54 65 55 58 53 66 99 83 104 151 189 190 193 198 200 201 202 203 202 199 196 193 191 189 187 186 181 182 183 181 179 182 176 179 180 182 187 191 190 192 193 192 194 192 199 195 195 194 194 192 192 193 196 197 196 197 196 196 190 191 191 188 183 178 179 177 180 178 178 171 158 156 161 155 153 154 153 141 134 89 47 31 40 19 25 31 41 46 44 39 47 58 56 56 62 53 56 86 101 95 134 180 194 193 195 199 202 205 206 202 203 202 194 193 191 190 187 187 179 183 180 180 181 179 183 175 176 182 183 189 191 191 194 191 194 192 194 197 194 195 192 190 193 197 199 200 198 198 198 196 196 191 192 188 189 186 185 181 179 182 176 179 163 163 161 157 152 156 150 148 139 124 75 44 47 26 26 28 38 38 50 39 45 57 56 61 60 58 62 96 97 97 156 191 196 195 200 204 207 207 206 201 204 200 196 195 189 190 185 187 179 183 179 181 178 181 182 179 180 179 185 190 188 191 191 194 190 191 193 192 190 194 191 194 193 196 195 201 199 201 200 198 196 192 191 186 189 186 185 186 183 183 177 175 171 165 174 157 159 152 154 149 143 137 103 58 53 42 21 34 31 44 44 46 44 67 56 62 53 57 78 89 74 119 173 199 199 202 205 207 206 208 205 203 202 197 196 192 189 188 189 183 180 184 179 179 177 176 177 179 182 182 187 188 186 190 191 194 193 187 195 188 193 190 193 192 196 196 194 198 198 198 198 197 195 193 193 189 191 188 189 183 185 184 178 174 174 167 172 168 161 157 156 148 143 138 117 76 64 44 31 41 34 42 46 43 49 57 61 62 52 63 73 85 88 138 189 199 205 206 208 207 207 209 206 206 203 197 195 193 191 189 186 186 184 181 177 178 179 177 180 182 179 186 183 190 187 190 189 191 187 190 189 188 190 187 190 194 191 194 195 194 196 194 194 196 191 192 193 191 189 189 189 184 184 184 180 179 174 174 171 168 163 164 153 152 146 141 131 84 61 55 40 46 45 33 37 47 46 56 60 66 52 57 87 94 91 164 198 201 208 208 210 207 207 208 207 204 203 196 196 192 192 189 186 183 184 182 180 182 180 180 181 179 183 185 184 184 186 189 185 187 187 185 187 187 189 187 189 193 191 190 191 193 194 194 193 193 194 190 190 192 188 188 187 187 181 186 179 179 179 173 170 165 165 163 156 151 144 137 141 101 53 59 48 55 43 35 28 43 42 62 60 61 52 68 96 88 102 180 200 201 211 210 210 210 208 207 207 205 200 198 198 195 192 192 187 185 187 183 184 184 179 183 182 180 181 184 181 187 186 187 186 185 186 185 187 189 187 187 192 190 191 191 188 192 193 191 193 194 193 192 191 190 189 186 187 183 182 183 181 179 178 170 172 167 167 166 153 152 149 139 141 119 56 55 54 60 38 32 36 25 50 59 64 61 48 81 118 96 122 195 201 208 212 213 211 211 208 206 204 204 203 202 199 195 194 190 190 186 188 186 185 185 182 181 181 179 183 183 184 184 184 185 185 182 188 186 189 185 188 188 189 192 190 192 188 192 195 194 194 195 194 191 190 192 189 190 190 185 183 182 183 181 182 176 176 170 169 165 157 149 149 142 137 119 66 56 61 57 46 26 44 30 37 58 60 61 51 94 129 105 146 203 203 209 215 212 212 210 210 208 207 203 206 201 200 201 198 192 191 189 188 185 185 183 183 183 183 184 181 182 183 183 183 185 187 181 189 185 186 185 187 188 187 192 194 193 193 198 198 197 197 196 197 193 193 191 192 190 191 187 183 182 183 184 181 183 178 173 171 167 156 153 146 147 141 116 75 53 73 57 50 29 42 43 31 58 56 56 64 93 120 110 165 203 202 211 213 215 213 211 210 209 208 206 206 204 203 202 198 195 192 187 189 187 183 184 180 182 182 182 178 183 185 184 182 183 185 185 187 185 188 187 188 187 192 196 196 196 199 200 199 199 201 197 198 197 194 194 192 192 190 188 186 187 184 184 187 182 179 177 173 165 162 156 147 143 140 124 80 56 70 69 52 34 28 50 31 55 57 55 76 100 112 126 180 206 205 209 214 213 212 211 208 208 205 206 206 203 204 202 196 192 191 185 190 186 184 181 180 180 184 177 180 184 189 189 187 186 188 188 188 191 187 189 192 196 196 197 199 202 204 200 201 200 199 198 197 198 198 194 193 192 191 188 185 191 182 186 187 183 183 176 175 170 161 158 149 144 142 121 93 56 64 70 49 38 31 40 39 54 55 64 81 99 123 143 192 207 202 210 212 213 211 210 208 206 203 203 201 201 201 198 193 191 186 187 185 185 185 175 175 176 182 178 174 182 187 195 191 185 188 190 192 194 190 191 195 199 198 198 200 201 200 201 200 196 199 196 198 192 197 197 194 191 187 190 186 185 185 182 184 183 182 175 177 171 164 159 152 146 140 122 90 64 60 66 41 41 31 32 37 50 55 74 81 106 132 156 195 206 205 208 212 211 210 208 204 203 198 195 195 194 194 189 187 187 182 181 182 182 181 172 171 170 176 175 173 175 183 186 190 188 188 192 195 194 192 188 194 197 196 196 196 196 196 196 196 194 196 194 197 191 192 196 196 192 189 188 188 184 182 182 183 181 181 180 175 171 162 158 148 147 138 122 94 63 79 72 34 29 39 27 35 50 56 68 95 118 150 166 203 206 205 208 211 211 210 206 200 193 187 182 179 177 178 173 177 173 169 171 167 169 164 163 161 168 166 166 166 170 175 180 182 188 186 193 194 189 182 184 183 190 190 195 189 191 189 190 190 188 194 193 194 192 189 193 193 189 188 186 182 183 176 180 182 178 177 179 173 170 163 158 154 147 137 122 96 69 73 76 38 28 32 30 37 52 59 74 110 140 153 178 204 206 204 207 210 205 199 193 190 170 156 151 149 141 144 146 141 141 142 139 142 145 144 144 150 155 153 157 164 164 172 171 174 181 185 190 187 183 177 177 175 183 183 185 183 183 183 185 180 179 179 185 186 184 184 182 186 181 182 183 184 170 163 172 174 177 177 176 174 171 158 158 162 155 138 120 98 71 63 65 45 36 33 31 42 53 51 85 141 150 139 186 206 206 205 204 196 173 162 158 145 125 114 113 122 103 125 124 115 109 115 119 124 121 126 130 135 139 137 143 152 155 165 164 168 177 187 188 189 175 171 170 172 172 169 169 174 170 167 167 161 148 150 155 165 165 159 161 160 160 163 167 182 168 140 150 165 172 176 172 167 172 155 158 159 161 143 119 91 81 64 66 55 33 42 33 39 51 51 93 127 137 140 185 209 206 204 186 151 130 121 125 117 113 115 115 118 114 123 128 120 98 103 116 120 116 122 125 130 134 135 135 142 145 148 154 150 174 186 175 176 174 165 160 157 157 155 155 154 134 104 128 135 100 104 112 126 118 103 119 110 107 121 127 145 172 148 111 126 150 169 173 168 167 157 151 159 158 140 120 101 78 69 76 55 42 42 49 29 53 44 101 129 131 146 189 211 205 180 146 119 119 120 106 103 114 112 112 109 107 101 106 103 96 72 85 86 98 100 115 125 152 142 118 111 115 122 132 145 154 162 160 167 161 153 146 130 130 124 122 128 124 112 177 228 136 76 97 100 95 66 191 151 131 123 86 76 99 130 111 89 111 137 163 168 162 159 146 158 159 142 125 97 75 69 77 65 49 47 51 38 56 44 104 129 120 149 203 215 182 146 141 115 116 122 111 110 118 125 118 113 109 110 105 109 103 67 69 88 93 97 106 105 121 128 150 162 116 95 111 131 131 139 141 139 139 139 130 110 105 97 99 127 137 138 140 152 113 73 78 82 74 98 168 214 219 215 217 217 211 201 167 149 80 97 111 157 158 156 147 155 159 154 130 105 75 70 82 71 52 57 45 45 50 55 91 127 118 157 205 204 152 139 134 119 116 129 124 123 127 134 125 123 116 114 112 116 117 76 75 104 101 114 110 111 169 163 133 165 224 174 130 143 154 166 169 163 145 132 111 96 91 120 127 122 106 96 89 92 77 64 67 64 61 69 77 128 178 196 207 219 217 216 217 211 209 181 139 84 147 150 149 155 157 159 136 116 74 72 89 69 51 59 49 45 51 53 86 102 120 173 211 186 138 137 140 131 145 155 152 142 123 136 129 113 111 109 98 106 103 72 71 91 93 107 117 121 192 196 215 187 204 230 183 151 161 174 176 172 175 167 132 112 120 106 98 95 84 76 76 64 64 59 65 72 78 88 98 178 211 207 198 207 216 217 217 216 217 211 219 204 95 146 150 155 158 157 141 126 81 69 73 82 55 58 50 43 48 39 33 95 104 170 192 168 128 163 159 163 171 170 158 136 110 135 160 171 170 164 158 151 146 93 82 96 97 118 122 127 156 202 207 208 187 207 183 157 163 172 183 180 177 179 152 131 117 102 94 94 85 76 63 59 65 68 73 82 98 107 149 222 219 217 217 207 188 161 166 171 170 165 192 198 123 137 149 152 157 154 151 125 101 71 58 84 71 52 52 37 59 44 64 231 228 185 149 142 135 177 184 178 176 164 138 108 122 164 179 167 158 138 143 135 136 110 105 121 110 120 120 125 130 163 192 200 202 218 192 176 166 177 181 186 173 202 165 128 124 109 99 81 75 60 59 54 57 78 90 101 108 114 139 223 220 217 218 214 218 180 136 113 90 101 125 161 130 134 142 154 154 152 153 130 100 76 57 77 66 69 48 46 66 27 138 168 189 83 103 119 134 187 194 186 177 158 109 132 192 184 146 116 114 115 94 107 124 95 96 104 90 80 77 67 86 99 126 159 232 217 222 212 195 197 205 210 211 174 147 135 139 110 90 76 64 68 64 79 87 97 105 105 106 109 122 172 223 216 217 215 219 177 142 139 104 74 107 133 145 130 133 149 152 147 155 138 110 70 71 64 64 68 54 43 54 33 91 129 132 119 131 120 138 189 197 188 175 139 113 151 153 124 103 91 108 106 101 83 106 105 105 125 99 61 75 66 70 80 90 121 203 208 219 171 180 163 163 165 158 140 105 128 140 115 89 81 69 79 100 106 107 99 98 95 86 90 83 105 156 181 192 195 156 136 139 139 122 94 105 132 137 125 128 142 146 146 149 146 101 67 60 55 59 61 56 47 58 47 72 84 124 158 165 130 140 190 202 188 169 132 125 123 111 98 113 110 91 81 73 62 79 95 114 131 119 83 62 56 77 72 89 109 163 197 209 181 182 180 179 181 174 166 147 126 134 121 103 112 104 93 107 119 107 101 105 95 78 72 81 59 79 111 133 148 139 97 124 136 127 118 120 129 144 106 213 175 143 117 153 144 107 68 45 63 52 57 56 55 53 58 70 65 108 156 159 138 136 161 164 156 141 133 122 115 116 138 143 121 99 71 72 75 79 104 116 127 121 101 80 72 83 89 109 119 158 192 191 179 176 172 174 177 169 171 158 139 133 123 120 136 130 97 98 120 125 127 124 107 91 49 43 52 58 79 80 98 128 119 102 131 124 133 128 131 131 146 179 195 209 120 140 144 99 74 45 57 50 54 56 47 61 52 57 70 87 128 146 112 108 136 157 158 144 140 127 119 130 132 128 121 109 91 91 100 96 103 112 110 117 112 116 102 95 111 119 115 164 201 188 177 169 168 172 175 176 172 161 138 130 133 135 144 136 108 95 102 117 125 124 91 81 63 63 62 68 87 91 66 74 117 114 124 135 150 155 136 135 141 117 137 149 198 148 133 87 65 51 47 47 67 62 53 58 54 59 65 67 99 143 95 127 189 206 207 200 197 187 165 160 151 137 115 110 94 92 97 96 97 98 106 104 111 106 99 111 126 115 113 177 202 191 178 167 165 169 175 179 166 157 128 123 138 134 133 141 128 110 101 111 121 122 114 99 83 78 83 100 101 94 82 73 90 117 125 133 149 166 149 144 136 126 130 114 115 132 132 65 56 57 52 44 61 63 52 55 53 64 67 55 79 139 126 168 204 216 213 214 211 212 202 185 173 152 129 114 103 99 96 99 97 103 100 104 103 102 107 128 146 106 133 190 203 188 179 170 167 171 174 172 170 154 133 118 128 134 134 132 136 113 101 101 102 107 103 108 103 103 104 115 110 108 99 104 108 118 129 134 144 145 134 137 138 127 152 141 138 89 107 61 53 49 51 51 58 61 50 49 112 145 134 72 95 148 157 180 215 214 214 213 214 211 208 198 181 159 125 111 95 98 101 96 95 109 101 112 109 122 133 156 139 103 154 194 200 187 176 172 171 172 170 179 167 158 143 122 128 147 150 130 131 136 112 94 101 102 104 100 104 103 103 115 114 119 120 127 137 153 147 149 166 168 147 131 124 118 138 138 134 105 73 49 52 47 53 54 61 59 52 120 167 175 187 125 131 155 174 193 211 213 214 214 210 211 208 200 187 167 140 130 116 117 115 120 118 122 126 133 140 162 174 157 116 116 179 198 200 185 179 171 176 166 174 177 175 163 151 130 131 155 163 152 137 132 133 123 108 99 104 107 110 109 111 117 124 128 136 139 149 158 162 160 174 183 168 153 126 124 151 151 130 110 69 53 48 50 40 59 51 58 52 130 154 127 148 138 164 169 180 205 211 213 212 212 212 209 205 201 187 174 160 156 146 143 143 143 145 147 157 166 180 202 191 136 110 146 198 206 202 186 179 173 177 178 178 174 175 164 153 144 127 148 170 164 154 142 141 140 139 128 113 108 107 110 112 118 120 127 133 143 148 154 166 167 173 182 169 153 120 126 163 156 141 114 46 69 37 40 43 55 62 57 57 135 149 117 95 126 181 193 180 209 211 212 212 213 209 206 204 198 185 173 170 165 159 155 161 160 163 171 184 186 201 202 165 141 130 171 203 206 200 185 176 179 177 179 180 175 174 166 157 146 132 129 164 172 165 158 155 147 148 146 137 135 130 126 123 124 129 132 134 138 141 148 158 168 167 172 165 146 116 130 160 147 134 127 52 40 43 29 39 70 91 107 110 116 150 120 67 130 193 205 196 192 210 214 212 212 209 205 200 193 181 177 175 170 166 165 168 175 180 181 191 190 191 162 169 180 166 187 202 204 190 181 173 177 179 180 175 177 172 170 160 149 144 129 142 169 170 162 165 159 153 154 155 150 155 144 144 140 145 142 135 140 139 149 149 164 160 160 161 134 114 135 155 142 139 138 75 19 55 51 75 115 131 116 103 104 155 123 65 142 202 205 206 206 198 203 210 212 208 206 202 194 186 180 174 171 172 174 182 179 187 186 180 158 147 184 205 192 179 192 198 194 180 174 171 175 181 181 180 170 178 168 168 150 146 146 128 151 168 163 167 165 160 160 157 159 160 156 153 154 151 151 145 143 140 147 147 153 157 148 154 123 119 140 154 148 147 146 90 12 93 118 123 141 108 63 63 91 157 128 79 159 202 209 210 208 211 201 189 192 198 203 199 195 190 183 179 174 179 181 179 174 170 155 136 143 185 210 209 193 184 194 199 190 175 169 170 175 181 181 173 172 173 170 163 156 144 154 155 129 144 160 167 158 163 163 161 163 164 163 161 161 158 159 152 147 143 147 145 152 150 150 139 113 127 150 158 153 148 144 89 16 114 152 134 133 74 37 55 80 157 138 90 169 205 208 211 211 210 208 203 189 173 167 161 169 166 168 165 159 156 155 142 141 134 137 152 175 202 211 204 192 190 203 205 188 175 166 167 177 185 182 176 170 169 172 167 155 148 155 163 159 126 127 154 160 160 161 162 165 165 169 165 168 163 167 155 151 146 148 148 152 160 141 122 116 137 161 157 151 151 145 78 33 127 143 134 124 52 41 77 55 147 146 99 174 203 209 211 211 210 210 209 207 205 197 187 175 162 159 149 147 148 146 150 151 157 155 161 178 201 205 201 194 194 205 212 195 174 161 168 179 194 192 178 171 169 173 165 161 147 152 162 162 151 137 119 131 155 156 168 168 171 176 170 169 166 166 156 151 145 151 151 152 139 124 125 142 151 163 161 149 145 141 68 70 129 126 130 124 53 67 97 49 137 151 105 173 203 209 210 209 210 211 210 210 207 204 197 186 183 176 168 164 160 156 155 156 157 155 166 178 190 196 196 192 190 194 206 191 163 150 160 172 182 185 178 176 175 168 169 166 156 146 155 160 160 148 144 131 123 123 146 157 166 169 165 163 165 161 159 151 150 145 134 125 126 147 156 156 165 169 156 146 142 137 74 82 122 119 147 121 74 88 121 48 107 153 123 180 203 206 207 207 210 210 209 210 209 203 194 190 182 171 172 157 154 154 155 157 159 160 165 170 173 188 193 185 179 182 186 171 148 137 141 156 163 169 169 167 163 155 160 165 161 150 142 147 153 152 150 151 144 138 138 139 129 130 128 128 129 127 127 124 121 122 129 139 151 159 172 169 170 168 154 144 135 131 78 84 122 131 168 126 83 100 129 46 76 142 143 180 205 205 206 207 209 210 209 210 204 196 189 178 171 164 164 157 152 158 154 161 160 162 165 160 163 184 186 163 150 154 170 151 128 121 127 133 141 152 152 151 148 138 140 148 163 159 147 136 143 147 148 151 150 148 151 154 155 150 147 150 138 140 141 137 140 139 143 150 161 167 176 174 169 165 152 138 138 125 63 112 143 146 170 127 97 111 127 46 51 117 152 189 199 201 205 203 207 209 207 203 197 186 177 170 164 156 164 159 155 159 157 160 156 159 159 148 159 176 165 129 100 98 128 140 115 101 105 112 119 129 130 127 113 98 104 126 144 161 155 140 140 137 144 144 147 146 150 148 148 150 152 151 149 143 147 142 137 141 147 155 160 172 175 175 171 159 144 135 136 114 45 101 164 161 165 138 106 117 105 48 49 74 149 186 199 199 199 204 205 207 205 198 191 185 179 168 165 169 170 167 156 152 152 150 153 151 155 144 153 162 148 103 71 55 79 116 122 90 80 91 104 108 107 89 67 49 61 87 121 141 159 162 155 148 139 141 136 139 141 140 141 146 146 147 145 141 142 144 137 142 149 149 167 171 173 170 169 157 138 133 133 104 34 77 122 152 160 142 119 111 76 57 47 48 139 191 199 198 201 200 203 205 204 194 187 184 177 174 173 173 172 166 154 154 151 150 148 154 148 142 139 147 144 104 64 31 71 120 140 103 72 73 89 101 95 84 52 31 41 62 102 136 158 173 175 165 154 143 132 133 135 132 137 137 137 139 142 137 135 138 136 144 145 156 166 174 174 170 163 155 132 130 135 88 45 80 105 129 151 141 137 99 39 61 51 41 126 189 199 198 199 202 203 205 194 188 186 184 179 174 174 176 166 163 155 147 150 147 149 155 152 149 142 142 144 141 87 66 122 149 148 123 83 70 80 93 98 107 93 55 52 70 108 132 166 176 178 177 172 165 150 146 139 137 135 133 135 134 133 138 134 134 137 144 146 160 175 175 174 162 163 145 128 130 123 69 62 107 106 127 142 146 143 68 35 58 53 37 106 186 199 198 198 200 200 200 193 188 182 187 181 177 173 168 160 158 146 151 145 146 155 161 160 162 155 154 147 144 132 141 162 163 148 108 80 55 74 89 110 122 127 107 81 83 113 146 166 178 183 175 182 177 170 161 161 157 154 144 145 138 137 137 143 138 140 151 152 166 177 173 174 163 155 142 126 130 108 64 98 126 116 135 146 144 130 41 40 60 51 36 84 174 200 196 197 196 198 194 190 184 186 184 177 174 168 162 159 146 145 143 144 155 169 173 180 175 179 170 165 164 171 177 169 149 122 88 63 51 76 100 115 132 137 128 111 106 129 151 168 174 176 184 183 182 178 175 170 170 168 163 158 156 152 152 153 156 155 160 165 165 172 172 166 161 151 137 124 132 80 68 130 131 120 138 153 144 98 31 52 58 53 32 72 159 196 196 194 194 193 194 187 184 180 176 176 167 169 164 153 148 141 139 153 172 182 190 193 188 190 180 181 182 183 174 159 131 100 75 50 66 78 104 127 133 138 144 142 145 149 158 168 170 175 177 180 180 180 178 175 170 175 171 172 164 166 165 167 168 166 170 171 166 171 171 163 156 150 128 126 121 65 109 140 126 121 143 153 134 57 40 48 54 58 35 52 150 191 194 193 192 190 188 186 185 180 177 170 173 161 159 142 146 137 158 174 189 193 194 195 189 187 187 180 184 180 169 142 115 78 58 66 76 94 109 128 131 143 145 152 157 154 157 162 167 169 171 179 179 179 178 175 172 170 168 170 169 172 165 170 169 168 169 171 166 170 166 163 149 141 128 119 109 76 118 135 130 131 146 144 120 32 46 43 50 54 43 44 137 187 192 189 188 187 184 182 179 178 179 167 168 157 153 144 151 158 173 187 192 194 192 186 184 185 182 179 176 173 153 124 99 72 68 83 90 108 121 127 135 137 146 154 156 157 156 155 159 160 168 172 177 176 178 175 172 171 163 169 169 171 167 169 171 168 171 174 166 168 167 160 145 137 125 117 105 104 131 135 133 137 131 131 98 34 41 55 51 56 46 44 122 179 191 184 182 183 183 181 176 178 175 171 163 157 147 152 164 174 177 186 190 192 188 187 181 179 175 175 169 162 144 114 96 88 89 94 105 114 126 134 137 144 146 150 150 158 157 151 154 158 157 167 170 169 171 174 170 168 164 163 166 170 168 169 166 173 166 168 168 160 161 153 140 132 121 109 110 123 140 130 121 122 130 114 60 39 47 49 58 54 50 38 106 178 183 178 179 178 184 179 174 180 176 172 161 149 146 164 177 175 173 181 190 189 184 185 180 173 174 169 163 153 135 114 107 98 103 105 111 112 129 131 136 144 151 151 152 150 150 151 152 155 155 158 162 165 165 166 167 168 161 159 163 167 164 165 163 164 171 165 161 161 157 146 133 125 116 106 114 117 129 129 125 133 123 76 44 44 50 49 52 58 52 34 97 164 178 172 174 178 179 177 178 177 172 170 152 143 156 175 177 175 168 179 187 186 184 180 175 170 169 163 161 148 135 126 112 109 113 116 113 116 124 132 137 143 151 149 148 149 147 146 155 156 152 154 160 156 156 159 161 161 160 155 155 164 164 166 165 159 166 162 159 154 152 141 131 125 112 107 124 132 127 131 134 121 82 50 43 48 45 53 57 53 61 35 73 157 178 172 173 172 170 170 174 173 173 166 147 144 163 180 175 168 167 177 183 177 178 168 167 164 162 163 163 156 145 137 128 128 129 133 125 125 131 142 138 145 147 151 150 151 147 150 152 154 152 152 158 155 153 154 152 158 155 154 153 157 162 162 158 160 157 162 156 150 149 135 125 118 114 112 131 137 137 137 110 81 50 47 47 44 43 54 51 57 58 39 61 150 180 176 171 167 161 167 173 176 166 162 143 144 164 174 167 155 159 162 165 163 155 156 152 156 164 165 165 161 153 148 139 148 147 151 143 140 145 152 150 154 148 153 149 150 148 150 149 151 151 149 151 153 150 149 150 148 155 150 151 156 158 158 159 152 155 156 149 147 139 131 122 117 108 119 135 140 137 125 71 56 43 47 47 48 44 44 47 59 51 43 50 140 175 180 171 162 159 164 174 173 170 159 144 144 153 158 145 137 138 138 143 142 142 140 143 147 155 152 147 143 134 129 137 135 142 139 139 139 138 140 146 148 147 152 151 150 143 142 144 145 146 146 148 149 148 149 149 144 153 153 151 157 155 158 157 153 152 149 143 139 134 121 124 120 93 104 115 119 106 80 45 56 41 51 44 50 47 45 48 54 53 48 37 121 169 180 170 163 160 163 169 174 167 154 143 142 140 134 115 108 108 109 122 124 128 128 135 130 129 117 113 106 96 98 100 104 112 108 108 108 108 108 120 123 131 142 143 148 138 138 141 141 139 138 141 144 140 145 141 145 147 150 151 153 155 154 157 150 149 147 137 134 123 117 121 114 70 68 81 75 69 48 49 48 46 51 43 54 42 50 49 52 55 44 32 93 161 174 174 164 158 164 170 168 164 154 138 134 125 116 93 79 74 82 84 96 111 110 109 101 90 82 73 70 64 62 63 71 74 72 75 75 70 75 79 88 99 112 121 131 131 134 135 135 133 133 131 132 135 134 134 141 142 146 148 151 151 149 151 152 143 138 135 128 120 116 122 102 45 47 50 51 53 41 49 44 46 47 44 48 45 41 51 55 49 53 34 65 144 173 172 163 158 161 168 165 158 155 137 130 117 108 90 69 52 48 54 62 72 75 75 65 55 49 45 42 43 44 42 52 47 50 50 45 53 51 49 56 60 75 81 95 104 118 116 124 117 118 115 116 121 121 126 134 135 145 147 146 150 147 148 146 139 131 130 117 121 117 119 85 35 41 46 46 46 45 47 47 42 51 42 44 44 44 45 54 54 53 39 44 126 166 169 162 153 159 166 161 157 149 138 124 116 107 99 74 56 48 59 58 66 77 65 57 48 38 41 37 36 41 43 44 47 50 40 40 39 45 39 33 37 40 46 62 68 82 94 101 95 95 88 87 96 103 117 127 132 140 146 146 148 146 143 138 133 127 122 119 121 119 112 58 33 43 45 46 48 42 49 44 43 44 47 44 42 44 48 50 54 52 49 32 99 156 165 161 154 152 158 160 153 148 133 125 117 110 105 97 82 100 124 120 123 125 113 106 92 77 76 57 47 47 48 51 51 44 45 43 35 45 48 27 42 38 43 44 48 64 69 70 74 65 54 72 72 90 107 114 126 134 142 148 149 144 143 134 127 121 123 119 120 117 94 42 38 40 44 42 44 46 45 41 46 46 42 44 48 48 53 42 58 51 49 32 79 135 163 159 152 149 151 156 152 145 135 122 119 109 110 120 126 150 171 171 169 158 163 153 133 115 107 97 91 85 88 84 74 75 73 73 70 73 73 68 73 77 75 82 81 87 91 88 84 83 75 78 82 94 104 113 119 130 139 144 142 141 137 127 124 120 119 120 115 115 74 29 46 39 45 40 43 43 42 48 48 42 45 46 44 45 48 51 49 49 52 41 49 109 152 154 147 147 150 151 152 147 135 123 112 116 122 135 159 172 187 187 181 170 168 179 168 146 125 119 117 112 110 113 111 111 107 104 106 103 104 98 103 105 103 104 110 110 124 119 125 126 127 113 102 106 107 110 121 130 136 140 137 136 132 125 123 118 121 115 115 104 48 35 41 46 45 41 43 41 51 42 46 47 44 43 43 46 51 52 51 54 50 48 42 78 143 146 150 142 146 151 150 144 136 123 116 123 133 148 165 176 185 187 179 164 162 155 150 142 123 121 123 116 121 125 127 125 127 123 136 135 126 114 109 110 110 122 119 134 137 147 145 147 145 137 123 118 108 110 120 131 137 137 132 134 126 125 121 119 118 113 110 79 37 39 43 43 39 50 42 45 44 46 42 47 44 46 46 45 47 52 48 55 49 55 36 62 115 148 143 141 141 145 147 145 131 123 124 126 140 151 166 172 177 177 175 165 154 142 133 127 107 107 106 106 108 114 116 114 115 114 121 122 114 109 113 120 116 132 133 145 145 150 148 154 147 146 136 131 120 118 121 129 132 137 130 132 121 122 119 121 109 114 102 55 36 35 42 47 38 50 41 48 43 46 47 42 44 44 44 45 48 45 49 51 48 46 50 33 94 132 141 137 134 141 141 140 130 126 123 132 141 153 161 161 167 168 168 165 154 137 123 117 97 90 89 80 88 92 93 93 89 95 99 104 102 108 114 119 128 133 140 143 146 147 148 150 151 142 142 129 125 118 121 124 131 127 132 128 113 117 122 113 107 108 97 46 37 37 40 41 39 43 41 45 45 42 45 46 49 44 44 47 48 47 49 51 50 46 50 39 56 111 135 138 134 135 138 135 133 129 125 138 143 149 153 156 155 163 154 153 143 135 124 108 96 77 74 61 67 66 72 70 71 77 73 91 93 111 109 122 124 134 137 137 140 144 144 148 144 140 133 124 125 120 117 123 122 128 123 122 113 115 115 108 101 104 98 43 28 42 40 43 39 45 40 44 42 39 42 49 39 50 47 41 53 43 51 45 49 48 48 44 42 82 119 133 135 127 133 135 133 134 131 137 142 143 145 144 153 150 146 140 131 123 114 104 91 76 70 58 56 46 55 51 55 60 71 80 94 104 112 117 118 125 127 129 132 141 140 141 142 138 131 128 120 116 118 122 123 125 118 116 109 114 110 101 98 106 103 32 37 34 43 36 46 37 44 46 42 40 48 42 45 48 42 47 44 48 44 44 52 43 48 44 38 52 91 130 135 130 130 132 134 140 137 143 137 140 139 142 143 143 144 129 125 113 100 92 74 74 73 65 52 52 49 58 54 60 75 77 88 98 100 108 110 116 122 127 128 136 136 135 138 130 134 125 122 123 118 125 121 120 112 112 110 105 102 95 99 120 95 35 29 43 32 42 42 39 46 40 43 45 44 44 46 43 43 43 45 47 44 49 49 52 47 49 38 43 59 111 132 132 132 132 138 142 144 141 140 137 139 138 140 139 134 123 121 101 103 78 70 69 74 69 65 61 62 73 68 72 67 78 85 83 101 103 109 115 122 126 128 132 135 129 138 129 131 130 125 125 125 120 121 112 108 106 111 99 93 91 106 121 97 18 35 38 36 44 38 39 48 35 48 41 45 40 46 47 41 42 45 47 44 50 45 56 43 52 44 39 41 81 117 133 133 129 142 149 145 143 139 137 134 133 139 130 125 120 112 105 89 76 67 65 72 71 74 73 72 77 74 81 73 79 82 84 96 104 111 112 121 121 127 131 133 130 126 130 131 129 129 128 126 120 119 107 112 109 105 94 88 94 116 122 95 27 32 39 42 32 47 39 41 39 49 38 44 39 47 40 48 36 43 52 42 49 48 48 52 52 44 49 36 45 110 134 132 133 142 144 145 142 138 135 130 135 135 130 123 121 113 104 91 82 72 71 70 72 78 76 83 86 82 82 82 83 87 90 100 111 115 117 118 118 128 127 132 126 129 127 129 130 126 130 130 117 116 115 111 107 102 85 91 105 118 128 92 21 42 32 42 41 41 39 46 42 43 42 41 44 42 39 43 45 44 46 43 49 47 45 44 44 49 49 42 31 110 148 138 132 136 144 140 139 133 131 130 131 132 130 130 123 117 110 103 95 93 88 85 87 85 82 92 92 90 92 94 94 97 105 110 116 120 120 122 126 125 126 128 125 131 127 128 129 127 127 125 114 111 114 113 101 95 84 101 111 123 127 91 18 35 36 37 43 38 41 43 44 41 45 35 47 42 42 44 44 43 44 46 49 47 47 44 50 40 46 39 32 115 161 150 130 130 137 137 138 127 127 127 130 132 131 129 133 127 125 121 121 114 112 110 106 102 102 104 105 104 103 109 111 114 115 120 123 120 123 124 131 128 126 128 130 127 130 129 128 124 125 115 109 110 116 105 97 89 91 104 115 120 128 91 18 36 33 40 42 40 43 43 41 41 44 43 45 46 42 42 45 45 42 47 48 43 48 47 47 45 46 40 34 116 167 164 140 123 129 136 134 126 127 129 132 134 130 135 140 138 138 139 141 137 139 132 130 122 117 115 113 115 116 121 122 127 122 126 125 123 126 132 131 131 130 132 130 129 129 131 124 121 118 107 102 110 107 99 91 91 97 110 117 123 125 95 28 31 40 38 42 40 44 40 41 46 44 42 46 44 39 45 45 47 44 44 45 49 45 45 46 45 49 37 33 121 167 167 149 132 121 127 133 126 126 125 136 127 133 131 140 145 149 151 149 144 143 141 135 131 131 125 122 125 122 128 126 131 127 125 118 128 128 133 132 130 131 126 127 128 123 123 121 114 110 105 103 107 97 92 90 98 106 115 119 120 126 99 18 38 34 41 41 36 45 44 38 44 46 43 47 38 51 41 41 44 47 46 42 49 41 47 44 46 45 37 35 124 167 172 159 144 130 118 128 123 123 125 127 128 128 132 141 144 154 150 147 142 138 135 130 130 134 125 127 127 124 127 130 130 132 127 118 125 132 131 133 131 129 126 126 125 121 117 116 109 108 101 103 100 92 87 95 102 113 116 124 122 124 96 25 31 39 38 43 37 41 44 37 46 41 44 42 45 43 45 47 44 45 47 43 41 45 42 43 48 45 36 32 125 166 171 164 149 141 123 120 119 120 121 122 126 124 130 134 143 142 142 139 133 131 128 124 126 128 124 127 123 125 125 126 129 131 129 119 126 129 128 131 128 134 122 128 121 116 113 107 105 97 104 100 92 90 93 98 109 117 124 121 120 124 98 25 34 40 37 45 40 43 43 42 44 37 49 43 44 41 46 44 38 45 43 43 44 42 43 42 45 42 31 41 132 168 171 163 155 145 135 119 114 116 116 115 118 117 120 127 132 134 132 126 126 123 122 118 122 122 121 122 118 122 116 126 124 124 128 124 121 123 118 124 128 125 127 122 117 112 106 101 96 95 99 94 89 93 95 107 113 115 123 124 121 125 94 26 34 36 41 43 42 38 43 41 43 48 39 44 46 37 45 39 39 45 38 44 43 44 40 44 42 48 26 51 137 167 169 163 157 150 140 126 115 112 108 111 109 110 112 119 122 124 119 115 118 115 114 110 114 120 112 115 113 116 111 117 115 121 119 120 120 114 114 116 121 120 120 113 112 103 97 92 94 93 94 91 86 96 101 109 109 118 123 122 120 125 98 28 34 40 38 45 40 40 45 40 46 41 44 44 41 44 43 39 48 42 40 44 44 45 50 41 46 42 22 65 140 173 168 162 155 149 144 126 122 113 108 106 104 105 108 101 110 110 107 104 106 106 102 100 103 107 106 107 107 105 105 103 109 109 111 112 109 113 106 109 114 109 107 105 98 93 89 85 93 92 88 92 89 101 107 112 115 117 125 121 122 119 105 30 32 39 44 41 43 43 41 41 47 38 47 41 43 39 41 40 49 43 40 42 42 45 43 39 47 42 14 87 151 171 168 160 156 146 144 134 118 120 114 104 99 95 96 95 92 95 90 88 90 88 88 85 90 89 92 95 98 93 90 93 94 100 100 103 99 100 103 94 105 100 96 92 86 82 85 83 90 86 90 88 92 100 116 113 117 121 125 124 122 119 106 26 33 42 41 41 42 40 43 42 45 38 45 40 42 42 41 45 37 47 42 39 43 40 48 40 43 38 20 107 159 167 166 161 154 148 141 137 126 126 115 110 102 92 90 76 80 77 72 68 65 68 68 71 68 76 76 79 78 81 79 77 80 85 90 86 91 86 93 86 91 90 79 81 68 83 84 85 86 82 88 89 98 104 112 122 120 121 121 128 120 122 106 36 32 40 38 42 42 41 44 44 36 44 41 43 43 40 39 46 37 41 40 44 42 42 41 43 40 36 39 128 167 171 168 159 156 148 142 134 132 130 118 110 107 97 92 76 68 63 59 51 59 52 52 60 58 58 62 65 60 65 57 66 63 71 75 74 73 76 78 76 77 73 71 70 72 80 82 82 82 90 87 101 107 110 114 124 124 121 126 125 121 125 108 45 32 44 40 34 47 43 40 49 39 42 45 40 43 44 41 45 40 41 37 43 41 41 40 44 39 23 60 144 168 173 167 157 154 147 144 135 131 124 122 114 110 103 97 84 71 60 54 43 51 50 44 48 52 48 55 52 50 45 52 48 53 53 65 59 61 64 61 67 65 65 68 70 75 78 76 87 86 89 95 109 114 114 120 126 125 122 126 125 125 120 112 50 26 42 36 41 42 41 42 39 43 39 42 44 39 41 41 43 41 40 38 46 41 37 44 36 43 20 103 153 171 170 162 161 153 147 138 134 129 124 121 114 107 111 96 97 81 70 64 49 51 47 46 48 46 47 52 45 44 45 41 46 43 51 50 49 59 55 61 56 64 64 70 74 73 80 80 83 94 96 103 112 117 118 125 125 122 126 123 126 121 124 113 55 27 40 40 46 40 43 42 41 40 43 42 38 40 44 37 41 45 35 43 42 46 39 41 38 35 36 129 167 173 167 165 162 155 146 136 137 123 125 118 115 108 109 100 97 90 91 78 61 54 51 48 45 50 46 48 46 50 42 45 45 42 45 48 47 53 55 61 56 67 62 75 71 77 79 84 89 101 108 105 116 116 120 121 122 124 122 127 120 126 122 115 65 21 41 44 43 36 50 39 45 37 46 40 43 42 43 40 40 59 50 46 43 47 38 37 31 38 86 149 173 175 171 167 165 154 146 138 137 128 124 120 119 105 104 101 97 93 95 88 80 69 56 56 48 48 44 50 46 47 46 47 44 46 49 43 50 48 59 53 60 61 70 63 76 70 79 90 95 107 113 112 116 116 113 123 123 122 122 123 125 121 123 121 67 30 37 45 43 38 46 44 41 43 39 39 42 40 40 41 41 112 82 66 66 60 55 52 53 97 140 164 175 172 172 162 162 153 149 141 136 130 126 119 115 107 105 102 95 96 94 93 90 80 73 59 58 43 46 49 46 46 51 45 49 44 47 42 52 46 58 51 66 56 66 65 72 75 89 97 104 111 113 112 117 113 116 123 122 122 122 125 126 119 124 126 75 26 40 41 42 39 40 45 37 46 40 42 38 46 35 47 37 124 97 57 33 42 51 83 127 145 165 172 177 173 169 169 158 156 148 139 138 129 125 121 117 104 105 99 96 91 97 90 91 92 77 69 62 51 49 40 47 46 41 43 44 46 44 41 43 48 53 53 57 56 65 64 75 84 92 103 106 113 114 112 110 116 112 123 119 121 124 123 123 123 122 126 82 32 38 46 41 43 36 41 42 38 40 40 37 44 34 43 45 