P2
92
112
255
52 51 52 47 53 50 55 54 51 53 52 55 49 55 52 50 52 53 52 46 53 56 57 67 74 78 79 78 82 82 77 72 73 74 68 56 63 56 51 56 56 54 60 54 52 55 69 67 64 58 57 57 48 51 52 48 48 48 55 52 53 49 51 43 48 45 46 42 42 40 49 40 44 43 46 38 43 40 45 43 37 40 42 39 44 39 41 37 38 40 40 37 49 52 53 51 48 54 53 53 54 52 51 54 51 52 53 51 53 52 56 54 51 56 71 81 85 79 82 85 80 81 78 77 78 71 72 65 65 67 66 64 62 65 57 56 58 56 65 61 70 68 55 56 58 53 52 44 49 47 55 47 47 53 47 47 47 51 47 46 38 47 45 42 43 41 40 47 41 43 41 41 42 40 43 34 44 41 40 36 43 40 34 43 46 58 49 53 48 56 52 50 56 49 53 54 55 46 55 55 57 50 58 53 56 72 91 89 87 79 77 74 74 72 69 71 73 72 75 71 67 63 64 70 69 67 66 79 73 75 68 70 66 70 66 61 62 66 59 54 49 56 49 47 45 42 53 51 51 48 57 51 45 44 45 41 44 43 43 43 41 41 41 45 40 42 41 34 47 40 40 42 39 37 41 39 51 51 53 47 54 54 53 52 57 53 56 52 55 51 52 51 56 53 55 59 69 84 95 92 81 86 84 70 63 61 72 77 75 67 65 68 73 63 72 71 75 80 78 78 73 79 81 84 71 72 62 58 55 54 58 54 53 58 57 54 42 45 49 41 52 55 54 56 44 48 46 44 42 46 41 46 40 41 44 45 40 38 43 40 45 40 40 41 39 42 36 42 54 52 52 50 56 51 52 58 54 55 51 57 52 58 51 51 55 54 62 74 91 90 91 89 79 96 82 70 73 74 71 73 78 62 68 69 71 75 70 76 80 78 80 81 77 76 79 81 80 74 65 56 66 62 54 53 54 58 55 55 53 46 51 49 45 50 48 56 57 44 40 44 41 43 47 41 45 39 44 39 46 40 43 39 42 38 47 41 42 39 42 39 60 51 55 52 52 53 53 50 56 55 53 54 56 54 53 53 53 63 80 94 100 100 92 82 90 85 77 81 84 81 75 77 75 72 75 70 71 74 75 78 78 77 81 73 84 80 77 76 77 72 68 66 65 64 54 52 57 65 49 57 53 57 46 50 48 45 47 42 49 47 39 36 38 40 41 44 43 41 44 37 43 43 42 39 40 42 43 46 40 40 38 39 50 56 54 52 59 52 50 56 54 54 53 55 55 52 59 48 58 77 95 97 97 97 90 86 93 85 88 94 92 96 89 87 94 87 82 81 77 78 82 76 78 80 86 90 86 87 83 82 76 85 74 72 77 70 63 58 55 64 57 54 53 61 56 59 60 51 47 35 42 35 38 41 35 37 40 47 41 44 42 36 49 39 42 40 44 43 42 39 43 41 42 40 52 56 51 53 56 52 55 54 56 47 56 52 57 55 51 52 66 86 89 91 99 96 99 104 106 109 112 117 119 119 114 118 121 120 102 101 99 101 100 100 105 106 110 107 110 110 106 102 101 103 99 102 96 86 81 73 66 73 70 71 65 75 74 69 70 74 69 55 45 31 29 38 32 38 33 37 47 45 42 42 42 40 41 42 43 42 41 39 45 43 41 41 50 53 54 52 55 54 50 55 54 52 54 53 56 53 53 66 82 97 97 98 101 122 131 136 139 148 147 150 154 153 149 152 149 141 139 139 139 137 140 142 139 141 133 139 139 136 135 129 130 123 126 121 116 107 104 101 102 99 102 91 88 90 95 93 95 96 90 86 68 51 32 28 29 30 33 33 46 46 37 47 40 45 40 44 41 41 42 38 49 37 45 37 58 53 53 54 54 51 55 52 55 57 50 54 49 61 60 79 103 108 112 125 141 155 162 167 170 169 168 166 165 167 166 167 167 162 166 158 164 159 165 165 163 161 158 158 156 154 154 150 147 148 145 139 140 132 132 126 125 122 125 120 119 119 120 118 119 118 108 108 99 89 66 31 29 29 31 30 35 44 42 47 39 44 43 47 40 40 38 43 44 39 43 43 55 50 59 49 57 53 54 51 54 55 53 53 54 66 81 92 105 123 140 155 167 181 181 182 181 176 172 174 170 172 172 171 176 170 175 169 177 174 173 177 176 173 165 168 167 165 164 165 160 159 154 155 156 149 150 142 138 140 138 139 140 132 136 133 136 130 126 126 116 108 104 72 44 33 29 26 31 33 38 39 45 43 42 42 38 41 43 42 43 42 42 42 55 53 57 52 56 55 57 53 56 52 54 57 69 85 91 102 121 148 165 175 180 185 185 182 182 180 175 179 178 178 181 179 185 183 176 181 179 181 181 185 182 183 176 173 172 173 172 169 171 168 165 162 163 159 154 154 150 148 149 148 148 144 143 143 144 141 137 133 130 122 114 109 91 61 34 26 25 28 37 25 42 42 47 41 41 44 44 41 43 45 44 39 53 55 57 58 58 54 59 54 62 52 57 77 87 85 102 127 155 173 179 184 188 188 187 185 184 186 188 186 188 185 189 186 186 185 184 185 188 186 188 188 187 184 181 180 177 178 175 173 172 172 169 166 167 164 158 155 161 157 157 156 156 150 153 147 147 145 144 137 133 127 123 123 113 107 75 40 23 27 33 24 40 41 48 43 46 39 47 46 40 42 45 39 56 56 56 56 56 54 57 59 55 60 76 95 91 94 122 160 175 185 187 190 193 190 189 190 191 192 193 193 191 192 192 190 187 188 188 192 189 190 188 188 190 190 186 185 185 177 180 177 175 173 174 169 169 165 164 163 163 162 160 163 161 155 158 152 153 150 147 140 142 129 129 130 123 118 110 86 42 24 35 23 21 40 42 41 44 44 44 46 42 41 45 41 54 56 55 57 55 53 58 56 53 72 94 99 78 116 153 180 185 189 193 193 193 192 189 192 195 198 196 197 197 197 195 196 194 193 193 191 189 191 188 189 189 190 187 189 185 185 178 179 177 179 177 176 173 168 170 166 168 163 164 164 159 162 159 158 157 154 154 144 143 139 136 129 129 123 121 112 92 40 24 28 21 25 41 43 43 44 50 41 42 46 46 45 53 55 58 52 60 57 59 51 66 91 96 78 89 147 176 185 189 193 195 193 195 193 195 195 199 198 198 200 200 201 199 199 198 196 195 193 190 195 190 191 187 188 192 188 188 188 182 182 180 176 175 176 178 170 172 168 167 168 166 165 163 161 162 159 160 158 155 151 149 145 141 139 132 123 126 115 113 88 28 21 21 27 25 41 44 50 39 48 45 45 44 47 52 55 59 57 56 59 54 60 92 96 79 71 126 171 181 187 192 193 194 195 197 196 197 200 200 199 201 201 201 202 199 202 199 200 198 197 194 196 193 192 189 187 192 187 188 187 187 186 182 179 181 177 176 174 174 171 171 169 169 166 167 163 163 159 159 159 154 149 152 149 149 145 134 127 124 123 117 113 80 19 23 27 20 32 44 44 48 39 52 42 42 44 54 58 57 56 57 58 58 84 106 92 60 101 160 180 184 189 194 194 196 197 201 199 200 202 204 201 204 203 203 202 201 202 202 198 199 197 196 195 192 190 190 190 189 189 187 186 188 184 185 183 182 180 179 175 177 175 174 174 166 170 167 166 165 160 163 158 157 150 153 150 152 147 139 127 130 125 121 119 113 55 28 28 27 24 34 47 45 44 46 47 44 43 58 57 58 57 55 50 80 104 99 61 67 137 175 188 186 191 195 198 196 199 201 202 202 203 202 204 204 203 204 202 201 203 199 200 198 196 193 191 190 186 188 189 188 187 186 186 188 186 184 184 181 183 178 174 175 171 174 171 173 169 169 167 163 163 161 162 159 156 154 154 151 148 143 133 131 125 123 123 120 105 48 32 28 22 28 36 45 47 42 50 47 40 58 55 56 57 55 53 88 93 86 52 106 163 186 188 188 193 195 198 198 201 202 203 204 205 203 203 204 203 201 203 202 200 199 199 196 194 192 195 190 188 184 186 184 187 186 184 186 186 184 180 180 182 178 179 175 173 170 173 170 171 172 165 165 164 160 161 161 158 158 156 152 150 143 138 139 132 125 124 125 117 86 48 35 28 19 31 42 51 42 51 45 47 55 55 58 59 51 68 90 90 83 84 140 178 190 191 191 192 196 201 201 201 203 204 204 205 202 203 203 202 202 202 201 201 198 199 193 193 191 191 192 188 186 187 182 182 183 183 188 187 185 180 177 178 177 176 173 172 168 168 170 167 171 167 164 162 163 163 159 161 161 155 154 154 145 143 140 141 134 123 127 121 110 69 48 38 29 29 35 50 47 46 42 48 54 57 56 60 53 80 88 93 84 117 163 184 189 191 194 196 200 202 201 203 204 205 204 204 203 203 201 202 203 201 200 199 200 196 193 194 190 189 189 188 189 186 180 182 185 185 186 188 183 180 177 179 173 175 171 170 169 166 171 165 165 163 164 163 162 162 161 160 160 158 155 154 148 146 142 140 136 130 129 122 118 85 50 52 33 35 32 47 49 48 44 47 56 56 56 53 71 86 91 93 95 139 173 188 191 191 197 199 203 202 205 204 204 206 205 206 202 203 202 202 203 201 199 198 200 194 193 195 189 189 185 188 187 185 180 182 182 186 186 187 183 183 179 178 180 177 175 174 167 166 167 166 165 167 161 164 159 163 159 160 157 158 156 154 153 148 145 142 140 137 130 128 116 107 58 52 35 35 37 42 46 47 47 45 63 59 57 65 78 84 88 83 102 151 180 191 189 195 201 203 203 205 205 205 206 206 207 205 203 204 203 202 203 203 202 200 199 199 195 194 194 189 185 183 187 182 181 179 183 185 185 186 183 181 183 180 177 178 179 174 167 165 166 166 169 165 168 164 160 166 155 162 155 155 159 150 155 151 147 142 139 138 130 125 119 116 79 35 47 38 38 37 46 49 44 49 60 56 58 65 82 78 79 80 112 161 182 190 192 199 202 206 203 204 205 208 205 208 205 206 204 203 207 204 203 204 202 201 201 198 197 198 195 189 189 182 183 184 179 178 178 187 182 182 183 184 182 181 182 179 179 176 170 170 169 169 172 169 169 165 163 165 162 162 162 158 155 155 154 156 153 145 143 143 135 126 121 118 103 32 51 44 39 33 41 46 46 40 57 61 57 75 71 80 82 85 129 172 189 191 188 200 205 206 205 207 208 207 209 204 205 208 205 207 206 207 205 207 205 203 201 201 200 201 198 194 189 186 185 181 178 177 177 185 187 184 183 182 185 181 183 181 179 180 176 174 175 171 173 173 167 174 166 166 164 163 163 159 158 155 157 157 158 150 149 146 137 130 120 119 111 51 42 47 47 22 40 47 44 47 57 58 57 64 69 83 86 98 139 178 192 191 186 201 206 208 208 209 208 207 208 206 208 207 209 209 209 211 208 209 207 205 204 201 204 201 200 196 193 189 185 184 177 177 175 180 187 186 183 183 187 184 183 181 183 181 180 178 176 174 176 174 176 172 173 170 167 171 163 163 162 160 162 162 160 157 154 147 139 132 121 119 117 70 32 52 45 37 24 42 46 47 57 60 56 60 70 88 89 103 151 186 196 192 187 200 208 209 210 211 208 210 209 208 210 209 210 211 210 211 208 210 208 205 203 203 204 201 202 196 195 191 188 185 182 181 177 179 186 186 184 182 186 185 188 184 184 184 182 182 178 175 175 174 176 174 176 173 170 170 165 164 165 163 160 164 164 158 155 148 147 132 127 120 119 84 40 52 54 36 24 34 47 45 63 57 57 59 81 100 99 108 159 188 196 191 191 201 208 211 209 211 209 209 210 209 210 210 210 211 209 209 210 207 208 206 204 203 205 202 198 197 194 191 188 188 184 184 178 178 187 190 186 186 184 183 183 186 183 186 183 183 180 178 176 174 172 173 172 176 172 167 168 165 163 165 165 164 165 163 157 151 148 134 128 122 120 90 52 50 56 44 26 30 46 48 58 55 60 57 80 102 101 118 166 192 197 192 196 201 209 208 210 211 210 209 210 209 210 210 208 209 206 206 208 207 205 204 203 203 201 202 197 193 191 190 188 184 183 182 180 184 190 193 188 187 181 179 182 185 187 187 180 178 175 180 175 171 171 173 170 173 175 168 164 163 165 161 162 164 161 161 162 152 149 135 129 123 118 101 55 49 56 42 26 29 39 47 53 59 57 64 80 100 101 128 172 196 198 196 196 201 208 210 209 210 209 209 210 209 208 206 202 201 204 201 205 203 201 201 197 197 197 195 188 184 187 187 184 182 182 180 181 182 192 193 191 184 178 172 176 181 183 185 178 172 170 173 169 168 168 169 167 171 170 169 160 162 158 157 152 158 159 161 155 154 152 137 126 123 120 101 61 50 63 36 30 26 35 40 54 61 58 74 75 99 113 138 177 196 199 198 199 200 208 209 209 209 209 210 208 205 202 197 194 191 194 194 192 197 195 190 186 179 180 175 173 174 178 175 174 177 178 177 177 182 191 192 190 179 172 170 167 175 171 173 171 164 166 161 157 150 151 160 160 161 157 157 154 157 155 149 140 145 152 157 155 153 150 135 131 129 122 104 65 51 62 42 27 24 35 39 59 63 66 74 83 100 125 140 175 197 200 201 198 201 205 210 207 209 208 206 203 199 190 182 172 172 170 174 175 172 169 158 153 151 151 149 146 154 165 152 158 161 167 168 170 176 190 189 187 174 164 161 164 161 162 158 153 150 144 141 132 124 121 136 137 138 139 132 131 133 142 151 130 122 128 146 153 151 148 139 130 132 128 107 67 52 62 52 22 23 29 37 61 63 70 76 92 111 134 146 177 197 201 201 199 199 206 208 208 200 190 181 182 173 157 144 140 139 137 138 136 127 117 114 111 108 113 114 122 126 134 134 133 140 147 150 161 173 187 186 182 171 157 152 149 146 135 135 127 119 109 100 100 93 88 95 98 102 99 104 101 106 108 124 136 118 96 110 137 148 146 140 126 131 132 104 72 50 64 55 28 29 25 34 59 73 68 80 108 124 132 148 180 200 200 198 197 199 204 205 195 176 153 146 143 134 122 113 109 105 103 96 95 88 82 86 78 76 76 82 94 99 114 112 111 119 126 133 152 171 184 185 178 165 155 143 133 117 110 106 99 88 80 77 72 69 63 62 66 70 64 69 78 74 80 89 101 114 101 87 97 125 145 137 125 131 131 107 83 54 61 62 29 29 33 40 62 69 74 95 116 129 133 156 185 200 199 197 199 200 199 190 170 141 120 114 109 109 95 92 91 83 75 72 61 63 67 60 56 60 52 62 69 78 96 96 95 101 114 131 152 177 183 184 173 159 149 141 122 104 91 86 76 71 62 60 58 53 59 53 51 61 54 58 62 66 67 72 72 82 91 88 91 84 115 137 126 128 132 116 86 68 51 63 33 34 33 34 65 71 81 100 126 126 128 152 189 201 199 195 195 195 183 162 138 121 116 111 113 109 104 101 99 89 79 70 67 61 66 58 55 56 53 59 59 72 81 95 89 95 114 138 165 182 190 182 173 155 152 142 122 102 84 77 71 68 58 61 61 57 61 64 66 72 80 83 82 89 96 91 93 88 84 84 91 90 77 123 124 128 131 129 92 69 59 58 39 35 34 33 59 75 90 109 122 130 129 153 188 200 199 195 197 179 149 126 111 109 113 123 132 133 127 124 117 107 95 85 78 76 71 68 67 64 69 72 74 75 85 96 96 112 130 163 188 192 195 187 174 158 156 150 130 115 97 89 91 86 78 77 70 69 74 73 82 96 103 109 116 120 123 125 127 124 107 91 79 80 83 97 126 127 131 134 101 68 65 68 39 34 36 37 60 77 96 106 119 128 131 155 193 202 200 199 190 164 128 115 116 124 138 148 160 159 151 136 129 118 112 100 93 83 77 74 66 66 67 71 77 79 89 103 116 140 167 190 203 200 196 190 179 168 162 157 144 130 119 111 104 93 84 72 68 65 71 82 95 109 122 125 131 133 135 143 144 156 145 128 97 69 72 90 117 128 133 136 114 74 60 72 45 32 36 35 49 79 98 100 105 120 135 165 195 201 200 200 187 143 123 126 135 153 166 175 174 162 153 133 124 119 118 114 109 99 92 83 72 61 67 68 74 72 84 100 124 161 190 201 206 204 197 189 181 173 166 165 153 140 127 110 92 80 70 69 65 73 85 97 108 115 126 125 129 128 133 143 153 166 158 149 128 87 71 83 110 125 131 132 124 81 52 69 55 35 33 33 52 80 94 94 101 112 135 168 197 202 201 201 182 155 136 150 159 172 179 181 170 151 135 135 144 152 153 140 126 119 102 102 92 87 82 77 81 75 77 91 123 159 195 204 205 205 195 188 182 171 166 165 159 144 118 96 76 75 76 76 82 92 98 106 111 116 127 134 136 134 129 125 138 162 159 150 143 117 86 89 106 126 132 128 130 91 60 56 55 41 37 34 55 69 83 80 93 111 140 176 197 200 200 195 178 165 162 165 171 173 181 169 149 160 170 181 177 161 140 123 111 103 92 94 101 101 98 96 93 96 81 88 120 159 187 200 201 202 193 187 183 174 163 165 160 142 110 89 85 90 85 90 97 98 96 101 102 102 112 124 130 136 137 133 134 132 155 145 141 133 112 102 108 121 129 127 133 104 62 46 56 46 41 33 62 64 65 78 92 105 145 183 198 201 199 194 181 180 173 171 173 177 171 145 168 191 195 180 147 121 96 81 86 68 62 86 99 92 93 105 111 117 111 99 120 158 178 195 200 197 188 181 180 173 164 164 156 143 110 106 107 103 96 97 92 90 75 69 70 64 67 80 107 117 129 137 138 133 129 137 137 138 132 116 116 122 128 127 132 108 64 48 45 51 41 37 55 55 64 69 85 104 141 185 199 200 199 193 188 184 178 173 172 174 146 152 181 184 161 134 102 78 63 50 46 60 64 101 123 116 95 91 93 123 127 117 130 164 176 192 201 197 185 178 175 165 168 166 162 141 121 120 127 107 91 80 95 108 79 59 65 44 38 44 81 117 90 116 134 133 119 129 134 137 141 131 123 116 126 123 131 114 62 42 45 47 45 39 53 60 64 72 80 99 133 182 199 200 197 196 191 191 187 175 176 161 149 159 161 142 116 110 87 66 53 51 55 71 83 115 131 128 110 102 93 108 131 140 147 174 183 192 199 198 187 175 168 165 165 169 157 145 130 137 126 101 109 96 110 125 104 63 74 56 39 59 62 114 113 80 97 123 119 121 137 141 149 153 134 122 126 124 129 117 69 41 44 44 43 45 50 58 65 66 81 93 124 176 198 198 197 198 197 197 192 183 180 170 166 145 132 112 111 118 115 81 65 77 86 100 108 118 128 126 119 118 119 132 136 154 167 183 183 193 200 199 190 177 172 165 168 165 152 141 137 141 135 117 118 113 117 123 122 96 85 79 64 63 88 114 126 102 77 84 110 129 142 149 160 163 141 130 128 128 129 115 67 40 35 47 41 47 55 57 58 62 78 86 116 168 193 199 198 200 202 200 198 195 185 187 165 141 130 130 144 140 136 123 111 111 120 121 119 118 117 117 120 122 130 140 145 174 185 190 189 192 198 197 188 179 173 168 165 164 148 135 143 142 135 130 131 114 114 113 111 114 114 108 95 97 111 123 126 113 96 85 100 125 150 164 178 174 147 134 127 130 128 108 59 41 28 48 40 44 52 52 60 63 75 82 105 151 189 200 200 202 203 206 204 203 199 194 174 157 147 147 149 148 140 132 119 116 116 113 116 112 112 118 124 130 137 141 163 191 198 194 192 192 199 194 191 185 175 172 172 161 154 134 143 150 139 129 135 127 118 113 110 107 105 106 104 110 116 124 125 127 114 102 105 133 147 171 180 183 156 138 132 129 129 102 53 44 31 44 52 42 56 53 54 60 78 77 87 131 188 200 201 204 208 209 211 210 208 206 195 182 168 162 156 153 142 132 123 115 114 114 115 116 122 130 136 145 147 161 187 201 203 197 190 195 202 201 193 188 180 169 172 163 150 140 141 156 154 137 132 136 130 124 121 117 111 113 110 119 117 127 133 132 126 124 127 145 154 167 179 179 161 143 137 135 130 94 42 42 35 40 52 42 55 53 52 56 71 74 77 121 188 201 206 206 210 212 212 211 213 211 209 206 196 182 171 156 144 132 122 119 118 125 135 141 150 152 159 163 169 189 199 204 205 198 192 197 203 201 192 187 181 173 167 159 152 140 145 154 164 154 143 136 141 145 139 130 127 122 120 123 127 132 142 148 142 138 145 145 157 163 173 177 165 148 147 134 133 94 27 42 32 40 49 48 51 53 53 53 59 78 74 120 190 204 206 207 212 214 214 213 210 213 210 208 207 201 190 176 167 151 151 152 158 168 170 172 174 174 176 183 188 202 206 206 206 201 194 197 200 195 186 187 185 181 169 154 152 144 143 159 165 165 156 151 147 149 156 144 141 141 138 136 132 140 146 154 153 145 152 146 152 158 163 168 167 153 150 141 139 93 30 35 37 39 53 43 56 53 54 52 52 64 66 120 191 202 208 209 211 213 213 212 211 210 209 208 209 204 199 195 187 186 186 187 185 187 185 184 187 187 192 194 202 208 209 211 208 200 192 196 195 190 183 182 183 179 163 158 149 144 144 157 166 170 162 163 157 154 156 149 154 152 150 150 148 149 152 151 153 151 150 150 153 154 161 164 167 158 148 148 140 106 26 35 38 42 48 48 55 54 53 51 56 53 54 128 189 202 206 209 211 212 212 210 211 208 209 207 208 205 203 200 197 197 196 194 193 192 193 192 194 197 202 204 210 209 211 209 208 199 190 194 194 190 179 179 177 173 164 156 151 146 141 155 166 167 166 165 167 163 157 162 161 161 154 154 156 156 153 156 152 152 152 151 152 155 159 163 161 157 150 147 140 116 24 37 33 51 46 53 54 50 58 57 54 42 57 137 189 202 205 209 210 211 212 210 210 208 207 206 207 206 205 202 201 199 200 195 195 196 196 198 198 202 206 208 211 211 210 211 207 196 190 196 198 188 181 182 173 167 161 156 150 148 139 154 163 167 169 165 170 170 166 163 164 165 162 155 160 160 159 156 157 154 154 158 156 157 158 160 160 158 154 147 143 125 30 29 42 50 56 57 50 87 107 102 73 33 71 151 191 202 203 209 210 210 210 210 209 207 208 205 207 207 204 203 200 200 198 197 196 198 199 200 203 203 206 209 209 213 210 208 202 194 192 202 204 197 181 184 179 171 163 157 152 148 142 145 162 169 170 166 169 174 171 168 167 167 164 161 161 164 159 162 161 160 159 158 162 160 160 159 158 159 152 146 140 131 46 23 47 76 92 103 99 141 155 157 135 60 90 163 195 199 204 208 209 210 211 211 211 209 208 208 208 206 205 203 201 200 198 197 195 202 201 204 204 203 206 208 209 210 207 204 198 192 192 194 207 203 182 177 174 174 169 157 158 154 143 143 154 171 171 166 169 173 170 172 171 169 167 168 166 164 166 165 167 164 164 164 164 162 163 161 156 155 155 143 139 134 53 35 87 111 113 94 129 126 121 148 179 110 104 169 193 198 203 205 209 210 211 211 210 210 209 208 207 207 204 203 201 200 198 199 201 202 203 204 203 201 205 204 205 207 202 196 195 188 183 190 193 197 179 161 158 160 161 159 167 162 147 138 148 170 173 167 167 169 169 172 168 173 171 171 167 169 167 171 171 168 170 167 164 167 163 163 156 157 150 145 136 131 51 72 121 126 92 58 119 115 99 120 177 126 121 172 192 196 201 205 206 210 210 211 210 210 210 208 207 205 203 204 201 201 200 202 203 205 203 202 202 201 201 200 203 201 196 195 188 180 173 175 182 177 167 152 145 146 149 153 160 159 140 138 145 162 176 174 169 167 169 164 167 172 172 174 168 171 170 171 171 170 168 166 165 168 165 167 159 158 152 146 133 127 54 102 144 115 56 65 126 117 83 94 145 115 137 182 191 196 199 204 207 209 210 210 210 210 210 209 205 203 203 203 201 203 201 201 205 203 201 201 198 199 200 198 200 199 193 191 181 164 142 143 161 162 148 133 130 131 135 143 145 143 126 130 142 159 169 174 174 172 170 164 168 172 175 175 164 169 168 170 170 171 167 165 171 171 170 168 163 156 153 144 133 124 57 120 141 97 47 82 117 116 88 74 129 112 144 186 191 193 199 204 206 208 209 210 210 210 207 206 205 202 202 202 203 203 203 201 201 199 199 199 199 200 198 197 197 192 190 188 170 133 100 93 113 141 138 121 115 117 122 132 129 115 92 111 136 155 163 174 175 173 169 170 169 171 174 177 170 174 169 169 172 171 168 171 171 175 173 170 161 158 151 138 132 121 63 120 131 84 53 104 114 129 93 78 127 120 149 184 193 192 199 202 205 206 207 208 207 208 205 205 205 202 201 201 203 201 201 200 196 197 199 199 197 197 196 196 193 191 190 181 155 110 70 58 73 114 129 114 98 104 114 119 103 72 59 89 122 150 162 172 179 177 172 169 171 171 174 175 178 175 174 173 175 175 169 172 174 176 174 168 159 159 149 138 129 113 71 124 125 69 68 112 109 135 104 83 131 121 149 184 192 191 197 202 204 204 204 205 204 206 204 204 203 201 198 201 201 202 200 199 197 197 199 197 196 195 196 196 194 186 186 177 146 102 64 27 61 115 133 117 94 96 112 112 82 47 41 84 120 142 156 166 182 180 171 168 171 171 168 175 180 178 176 177 176 176 173 174 175 170 171 165 159 160 147 136 128 111 68 139 119 59 85 130 98 143 111 93 125 121 147 183 191 194 197 199 203 202 202 203 203 202 203 201 201 197 194 198 198 199 200 198 198 197 197 194 193 193 193 198 192 188 179 172 142 99 67 31 86 132 142 121 95 94 111 111 82 45 66 93 120 139 150 166 179 180 171 163 170 169 171 173 178 180 177 180 174 175 177 176 172 169 167 164 157 155 150 129 127 107 56 139 126 63 95 131 78 142 124 91 135 129 146 180 192 193 197 197 202 199 201 202 200 204 201 199 197 195 191 198 197 196 201 201 198 196 193 192 193 194 197 197 194 182 172 164 149 109 76 72 118 153 144 120 93 97 110 115 105 76 87 109 120 133 147 162 173 178 177 169 166 174 177 174 174 179 178 179 179 177 174 177 172 167 167 162 157 154 146 126 126 102 55 135 133 77 106 122 68 142 128 103 147 143 147 180 193 193 194 193 196 198 200 199 201 202 201 198 194 196 194 197 197 198 201 201 199 194 192 193 198 196 200 199 196 185 167 161 155 125 104 123 154 166 147 115 96 97 117 124 123 113 106 112 117 126 142 156 166 173 180 171 169 170 175 176 174 175 176 174 179 179 171 179 169 168 165 162 152 152 144 130 121 93 53 139 144 96 113 84 51 125 138 115 163 144 140 177 190 191 192 191 194 197 197 201 199 200 200 200 195 195 195 195 195 198 200 199 198 193 195 196 201 201 201 200 198 185 174 163 158 141 137 162 176 172 151 125 109 111 121 130 134 123 114 110 117 122 133 153 163 170 174 177 170 169 175 175 176 176 177 172 178 178 176 175 170 163 162 159 154 148 143 128 125 81 52 134 152 115 106 50 46 99 139 135 172 131 134 168 190 188 191 191 197 197 198 201 200 201 201 196 193 195 196 197 194 198 199 198 195 195 192 200 203 205 203 201 197 189 181 175 172 166 171 183 186 174 148 134 122 121 128 135 137 132 122 117 119 124 132 146 159 167 172 174 172 172 173 173 177 178 176 174 178 180 177 173 170 162 158 154 153 146 138 128 123 69 61 124 152 130 81 29 41 70 130 156 175 137 122 166 184 188 188 195 195 197 198 200 201 199 199 192 193 196 197 198 197 196 200 197 192 194 195 202 204 207 203 201 198 192 188 184 182 184 186 187 183 169 147 138 129 129 131 138 138 133 125 131 127 130 132 144 150 161 169 168 173 171 174 171 172 176 175 172 176 173 174 171 170 162 160 155 152 145 137 124 118 54 68 117 152 132 53 28 42 52 108 166 181 149 115 153 181 186 189 191 194 194 198 197 200 199 196 193 193 197 198 198 196 196 197 195 192 194 196 202 203 203 203 197 193 189 190 185 186 188 188 185 176 160 145 136 136 134 135 142 139 138 132 135 134 134 136 139 148 152 160 162 168 170 170 170 170 173 174 173 172 173 174 172 166 163 159 156 147 142 133 124 107 48 84 117 145 126 35 34 46 40 87 162 188 165 116 142 174 181 187 190 193 195 198 196 197 197 197 193 195 198 196 195 197 196 197 198 194 193 199 201 203 201 196 192 189 187 187 189 187 187 187 179 167 153 147 135 138 136 135 146 143 142 139 141 135 136 138 138 143 148 151 160 161 163 165 169 170 170 171 173 170 173 173 172 167 163 156 156 145 136 128 122 93 52 87 119 145 108 25 40 50 35 63 148 189 172 127 136 167 177 185 186 191 193 194 195 194 196 195 195 199 195 196 195 197 196 195 194 195 197 201 200 200 195 192 190 187 186 186 185 188 183 181 172 161 149 144 136 137 135 135 142 144 142 146 144 140 138 138 139 144 149 145 153 154 156 157 168 166 166 167 169 171 168 170 170 163 161 155 154 142 134 127 120 87 63 93 117 143 91 23 42 50 43 49 127 180 180 141 135 159 174 182 181 187 190 190 193 193 192 196 195 196 199 197 197 196 196 196 194 198 198 198 197 196 193 189 190 186 186 184 184 183 178 180 164 159 145 138 135 136 133 136 140 143 145 143 149 145 144 138 139 146 148 147 147 153 148 146 158 163 165 161 169 170 166 168 166 163 157 151 149 138 132 125 115 85 84 101 125 139 71 24 36 54 47 39 104 171 179 163 157 159 170 179 178 183 185 188 191 190 191 195 194 194 199 195 196 195 198 194 196 198 199 196 194 195 190 189 187 185 183 181 179 180 178 174 168 158 145 139 138 137 141 136 146 149 150 148 151 149 145 146 145 148 147 150 147 153 152 146 149 154 160 162 163 167 167 166 164 162 157 149 145 135 128 124 114 98 103 118 128 122 66 28 38 53 48 41 79 156 171 172 169 164 167 174 177 177 185 185 185 186 190 194 194 194 197 195 196 195 196 195 198 199 195 194 193 193 191 185 186 181 181 178 180 181 176 180 171 164 154 146 151 151 146 149 156 158 157 157 153 152 153 146 150 147 146 152 150 151 152 153 142 146 156 160 162 164 163 159 158 158 151 150 141 130 128 121 110 116 112 115 123 112 53 29 37 52 51 39 62 131 167 171 168 159 166 170 174 178 179 181 180 185 189 192 194 194 196 194 197 194 195 196 196 197 194 194 192 190 185 182 181 176 177 179 183 182 179 174 169 161 155 155 157 158 152 157 159 160 159 160 158 156 156 150 146 150 148 150 149 153 155 156 147 144 147 156 162 161 161 158 153 152 150 147 136 128 128 117 112 113 112 118 121 91 37 37 37 50 52 45 48 106 158 176 176 170 164 168 171 172 169 174 174 183 186 191 189 193 193 195 194 193 194 196 193 193 196 192 189 185 179 175 174 173 178 177 180 177 174 161 154 144 140 146 144 147 143 141 141 140 142 152 153 158 154 151 149 149 151 147 148 155 157 157 151 142 144 155 160 161 159 158 150 150 144 145 131 127 128 117 111 112 110 119 102 63 31 37 40 49 52 50 35 82 140 174 182 182 170 167 168 168 165 168 173 179 184 187 185 188 192 193 192 197 192 193 191 190 191 187 183 174 173 168 170 172 173 173 169 160 151 138 125 121 115 122 118 122 120 116 113 114 118 130 135 146 147 150 148 152 151 148 151 149 156 154 154 140 139 157 155 160 155 158 148 143 143 139 126 126 127 117 113 118 114 108 65 38 37 35 38 51 51 52 43 50 117 164 182 186 173 165 165 169 169 170 173 179 180 180 180 184 192 192 191 197 193 190 187 188 182 179 174 166 161 162 159 163 165 154 145 133 123 115 108 102 99 100 96 101 98 101 92 98 99 104 115 119 128 133 141 147 145 144 146 141 148 151 150 143 140 151 153 156 152 154 146 141 139 133 129 126 122 118 128 125 114 80 39 35 36 39 33 46 52 50 49 36 90 140 167 172 164 163 165 169 171 169 175 175 177 179 175 184 190 191 193 193 192 188 180 180 174 166 161 153 147 144 145 143 135 126 109 105 95 92 90 84 81 79 74 82 80 83 74 83 82 82 92 93 103 111 121 133 135 134 135 135 138 145 144 144 144 149 154 153 153 148 142 139 135 130 129 130 118 105 118 108 85 49 31 35 37 36 37 43 51 49 48 41 62 102 128 136 134 153 167 171 170 173 173 172 178 176 177 182 189 190 191 193 186 187 175 172 164 152 147 135 123 121 117 115 104 93 84 83 80 77 73 69 66 66 63 62 67 69 70 70 69 69 75 76 80 89 98 109 118 117 116 121 126 133 138 142 146 148 150 151 151 147 137 136 131 130 128 133 113 71 72 68 47 35 37 31 36 36 38 49 48 48 51 44 42 64 86 84 95 141 166 172 172 174 172 174 174 174 176 182 186 188 189 189 185 180 172 164 153 137 129 115 103 97 94 99 94 101 102 98 102 95 85 90 83 82 79 82 80 81 81 85 85 80 90 88 90 89 91 92 94 94 99 104 116 120 133 139 146 145 150 153 147 143 136 130 132 129 130 129 102 36 39 38 35 33 33 33 38 35 35 50 48 46 48 44 45 46 59 50 63 122 159 169 170 172 173 173 172 174 174 179 183 184 187 185 183 177 168 157 146 135 128 116 119 107 116 126 128 132 140 132 135 124 120 124 115 114 111 115 118 113 107 109 108 104 110 110 107 107 106 105 100 96 98 99 114 123 128 137 141 146 145 150 145 140 132 132 133 132 127 127 87 20 30 34 33 36 36 31 35 36 35 51 45 47 49 46 48 46 50 40 44 106 151 166 170 172 172 171 168 169 171 175 180 182 183 185 179 170 165 154 147 143 146 150 157 153 148 155 152 147 149 153 144 144 141 142 134 131 129 130 138 128 124 121 119 120 125 124 121 124 121 122 125 123 126 123 126 126 132 135 138 146 150 145 140 135 131 133 134 128 128 123 64 15 34 36 30 34 33 32 35 37 40 54 45 48 45 48 43 48 47 46 39 86 141 164 165 172 170 170 166 168 169 172 175 177 180 178 172 167 160 156 149 153 162 173 182 177 170 163 159 147 146 147 143 137 131 130 124 126 124 127 127 122 117 117 117 123 129 134 132 134 139 139 144 145 146 143 139 131 131 134 138 147 149 142 138 130 135 131 129 126 126 114 45 20 26 38 32 33 30 38 35 34 36 46 48 50 44 47 45 46 52 44 36 65 131 155 161 166 168 169 166 164 165 167 172 171 173 172 172 161 159 151 152 161 173 181 184 181 175 165 158 145 144 141 134 128 117 111 109 105 109 113 110 108 106 106 111 120 127 134 140 140 148 149 154 151 153 148 143 139 136 135 140 144 149 142 136 133 132 132 130 126 129 93 25 28 32 33 31 31 33 36 35 33 36 48 49 50 41 50 42 47 44 45 38 51 107 150 159 159 163 165 165 162 165 165 166 170 171 172 167 159 155 152 154 164 173 178 179 178 172 166 156 150 144 139 131 119 110 100 92 91 87 88 95 90 89 95 103 111 123 130 136 143 143 146 149 149 150 145 141 139 136 135 139 143 142 138 135 129 132 132 128 127 119 73 21 29 29 31 35 27 33 35 34 31 36 50 46 48 46 47 47 42 48 47 38 46 82 135 153 154 158 153 161 161 161 163 162 165 168 164 165 158 152 149 151 160 165 166 167 169 164 162 156 153 144 136 125 113 108 98 89 87 71 72 73 75 75 85 99 108 117 120 132 135 138 142 138 144 142 140 138 136 130 134 134 138 139 134 134 131 130 130 127 123 109 43 20 31 31 29 31 31 34 33 36 34 37 46 47 48 46 52 44 46 51 40 49 36 58 119 148 149 153 153 152 157 157 158 158 160 162 163 158 156 149 144 148 154 159 152 156 153 153 150 146 142 132 128 116 107 103 102 93 90 76 72 68 73 75 86 93 103 111 115 121 126 131 129 135 135 133 132 133 132 127 128 129 134 138 133 131 129 127 127 122 121 83 25 28 31 30 30 30 33 31 32 34 36 32 47 45 47 49 48 43 45 42 49 43 41 41 86 134 143 152 148 150 150 153 154 155 154 155 156 151 152 147 143 145 145 150 142 144 141 140 137 132 126 121 110 108 96 99 102 104 95 87 84 85 75 85 88 88 98 108 108 114 118 126 126 127 129 127 129 130 128 126 125 128 129 136 133 130 126 126 126 121 109 60 17 28 32 27 30 30 30 29 39 29 35 35 44 48 45 48 43 46 48 42 50 43 39 41 62 110 137 147 145 146 146 148 151 147 148 146 149 149 150 141 141 139 140 138 135 136 132 129 124 124 114 110 102 94 90 92 99 100 100 94 95 90 92 88 94 90 98 103 109 112 117 117 124 125 124 122 125 128 123 128 123 128 129 134 128 127 122 126 121 116 107 33 20 30 30 31 26 35 26 35 27 39 34 31 44 48 45 45 43 47 42 47 44 45 43 41 46 80 123 139 142 142 143 145 145 147 145 142 145 147 145 140 138 133 134 129 126 127 129 124 123 117 109 105 96 90 85 87 93 98 100 98 102 97 97 97 92 95 99 107 112 115 115 119 123 124 127 119 124 126 126 127 125 128 131 128 125 123 125 121 115 109 105 37 23 27 30 29 28 31 31 30 35 37 32 37 48 41 48 45 42 45 48 44 43 46 41 45 40 57 102 130 135 139 141 141 145 145 141 139 140 144 145 143 138 137 128 129 127 125 126 120 116 113 106 105 97 91 89 94 97 98 103 104 104 105 101 98 103 96 108 111 121 119 120 122 122 127 126 123 119 126 124 128 123 129 129 124 125 125 122 117 107 106 107 43 20 28 29 30 26 34 28 36 31 35 35 32 46 44 46 46 44 45 44 44 45 43 43 47 39 37 84 125 128 134 135 142 140 141 139 139 139 143 147 141 139 138 134 129 127 127 125 120 115 114 112 111 107 104 103 106 108 109 109 111 113 113 110 112 112 110 118 120 125 128 123 125 127 127 130 123 124 124 128 130 125 132 126 120 127 125 121 112 100 105 109 49 22 25 32 29 28 32 32 30 35 33 36 32 43 46 48 41 48 37 45 44 42 40 45 43 47 31 74 129 134 130 134 135 138 141 139 140 143 146 148 148 140 140 134 131 128 131 127 124 122 123 126 121 123 125 123 125 125 128 125 121 123 120 120 122 121 126 124 129 130 129 125 129 133 128 129 125 126 127 128 126 127 129 121 121 125 122 117 106 101 108 112 56 20 28 30 26 33 28 35 27 37 31 36 32 45 47 43 45 44 45 42 44 41 44 46 43 48 26 76 135 145 124 129 132 133 136 141 141 143 146 147 148 143 144 139 131 125 131 133 129 132 135 137 142 139 142 145 150 144 146 143 136 132 126 131 131 133 129 134 134 131 131 130 136 133 133 131 129 131 127 131 131 124 125 116 119 124 117 109 102 102 112 115 65 18 29 28 34 28 29 38 29 35 33 31 35 43 46 43 43 47 42 46 44 41 48 43 47 50 26 77 142 150 133 122 123 130 135 135 143 144 143 146 145 143 139 140 130 131 134 133 138 141 145 150 151 152 158 160 157 155 151 148 143 141 137 134 138 136 139 138 137 124 129 133 136 134 135 129 131 130 131 130 126 125 117 112 112 117 111 104 99 108 112 119 73 22 28 28 32 30 32 34 33 31 35 29 35 46 45 46 48 39 44 44 44 47 40 50 45 45 28 76 140 158 143 125 117 121 130 134 137 140 141 140 142 142 139 138 135 137 142 141 140 143 149 152 156 159 164 161 156 152 149 147 144 143 143 140 140 140 140 139 138 125 123 133 137 137 136 133 127 133 130 128 126 119 115 113 111 115 102 101 106 110 114 117 90 15 28 27 30 31 34 29 36 32 31 39 33 43 42 45 43 41 46 44 43 44 43 46 49 46 28 68 140 159 150 133 118 116 119 129 131 135 135 136 139 140 135 137 140 139 146 144 142 144 149 151 155 161 159 148 150 145 138 142 141 141 141 136 137 137 136 138 134 131 127 134 134 135 136 131 128 129 129 122 122 116 112 111 108 105 101 102 109 113 118 118 96 23 21 34 26 32 34 29 35 34 31 37 34 42 44 47 40 41 43 47 39 46 43 48 46 44 26 69 133 159 152 141 125 112 115 117 121 129 129 134 136 134 133 136 139 139 145 143 143 140 147 151 151 150 146 140 141 134 135 136 137 135 138 132 134 134 132 138 133 132 130 128 127 132 131 131 134 128 126 123 115 116 107 110 104 98 100 107 114 117 118 117 107 24 23 33 29 30 33 34 31 35 35 34 36 43 44 44 37 45 45 42 43 46 43 46 44 46 32 59 132 157 154 144 134 125 108 111 110 118 125 124 131 127 129 135 135 135 142 141 140 138 142 138 143 141 137 134 131 129 125 128 129 132 131 127 127 129 131 125 132 129 129 127 125 122 124 132 128 125 121 117 113 109 104 102 104 100 103 111 118 120 121 120 113 31 20 27 31 28 31 33 29 37 33 35 33 47 44 43 42 44 42 41 44 45 44 43 47 41 31 59 127 149 153 150 141 127 116 106 106 107 116 119 122 124 122 130 131 132 134 138 134 134 139 133 134 133 127 127 124 124 119 116 124 119 120 123 122 119 120 121 122 126 123 119 118 121 123 127 123 122 115 116 106 101 103 99 103 102 107 116 120 121 125 118 117 40 15 32 31 30 32 31 37 32 32 33 36 47 41 38 41 44 42 42 44 38 45 45 49 42 30 51 126 147 151 152 142 138 125 115 108 105 102 111 116 115 119 118 121 126 124 130 128 125 132 123 127 121 119 117 117 114 111 106 110 108 108 115 112 112 111 111 114 117 117 117 114 114 117 118 117 113 112 102 101 97 104 101 104 104 111 120 121 125 124 121 116 51 20 30 32 31 33 33 32 36 33 37 38 33 44 39 47 39 44 41 41 39 44 46 41 47 26 56 121 147 153 147 146 144 133 122 116 105 97 102 104 110 113 112 112 115 118 120 120 120 118 114 115 109 107 107 101 101 93 96 95 96 98 103 101 103 100 103 109 108 109 109 112 106 112 112 111 105 103 99 98 95 102 100 105 109 115 123 121 124 125 120 119 58 15 31 29 32 32 32 38 28 35 35 31 40 43 40 44 42 41 41 44 39 45 43 50 40 28 47 119 147 150 148 147 146 139 132 124 115 101 95 98 101 101 105 106 106 107 111 108 107 108 104 99 96 89 87 86 79 82 85 85 86 90 91 89 89 93 89 101 101 102 103 101 101 105 107 104 96 96 93 97 98 101 101 107 115 120 115 118 128 125 119 118 68 17 32 28 35 35 35 31 33 34 37 32 41 36 42 38 42 39 40 40 40 40 47 43 43 29 51 120 144 152 152 149 143 140 137 130 118 111 97 94 94 93 99 96 93 97 100 100 98 93 91 87 79 79 71 67 71 70 72 74 76 79 76 76 76 79 84 89 92 94 95 92 100 94 101 94 90 92 97 96 101 100 101 110 118 121 123 121 124 120 119 118 79 20 26 38 29 34 31 35 27 36 34 31 39 43 44 38 41 37 40 39 42 41 44 39 44 29 48 118 145 152 152 149 147 142 136 135 127 116 105 95 92 87 91 91 87 84 85 85 85 82 78 74 71 66 66 58 65 68 58 66 68 65 68 71 69 69 73 78 81 85 79 85 90 88 89 88 88 95 101 97 100 101 102 113 117 123 125 126 120 122 122 116 84 23 31 29 34 33 33 33 33 33 36 28 41 41 40 41 39 40 39 39 39 44 42 45 40 23 51 118 143 155 152 150 147 144 142 136 128 120 111 105 99 93 86 83 81 80 69 76 75 70 67 68 61 62 58 57 59 55 57 60 57 62 59 61 64 59 67 70 72 73 78 82 82 86 87 91 93 97 97 98 104 100 106 115 118 125 129 125 124 124 120 121 89 26 31 29 33 35 38 27 33 33 36 33 41 42 37 40 37 42 39 39 41 43 45 42 42 24 48 117 147 152 152 151 150 146 142 137 129 126 114 115 107 96 92 84 80 77 71 73 65 67 59 64 58 61 54 58 55 58 56 53 60 55 58 56 58 58 60 63 68 70 69 83 81 83 88 97 91 98 98 102 103 109 114 119 123 127 127 128 123 122 124 115 100 29 30 31 36 31 37 26 36 33 31 34 35 41 39 35 41 38 41 34 41 42 44 43 36 28 57 118 147 150 151 150 151 148 142 140 133 123 127 120 114 107 96 87 85 74 71 69 65 67 62 62 62 56 58 56 53 57 56 54 53 57 52 60 56 56 65 60 66 69 76 82 85 87 94 95 98 99 100 104 106 112 120 122 124 129 132 125 124 123 125 118 107 30 32 32 31 39 29 38 29 36 32 32 37 41 38 41 34 42 35 38 37 42 48 40 39 24 58 126 145 147 149 151 149 148 144 141 135 132 130 125 125 111 109 98 89 81 74 72 64 66 62 62 59 60 61 57 57 55 58 56 56 55 58 57 60 60 60 67 68 73 77 86 85 90 94 95 99 104 100 106 111 115 122 123 125 128 129 128 128 123 124 116 110 44 28 34 31 34 31 36 29 36 31 31 35 39 37 41 33 37 37 36 38 44 41 41 35 20 69 128 148 148 150 150 151 147 147 138 141 137 129 129 122 123 115 110 99 94 83 82 68 69 62 58 65 57 59 59 58 56 57 55 57 55 58 61 58 64 65 65 72 77 84 81 91 93 93 99 97 106 103 113 113 117 120 124 126 129 131 126 124 128 121 119 114 56 24 36 33 31 35 34 31 34 32 31 41 35 39 39 33 43 35 35 39 41 44 40 37 15 80 133 152 151 153 151 150 148 145 143 141 136 134 127 126 119 122 114 110 101 93 88 84 78 65 67 56 64 58 56 60 59 51 61 53 60 57 58 61 65 66 69 74 79 86 87 91 92 98 98 99 108 110 116 116 119 121 122 122 124 125 124 125 124 124 115 113 71 20 35 36 35 34 36 30 33 34 32 