P2
92
112
255
53 50 52 57 46 53 53 50 55 51 54 57 55 54 51 53 53 54 60 51 57 54 81 95 89 82 86 77 74 68 62 69 78 70 70 70 70 66 65 73 72 77 76 75 78 81 78 72 69 67 63 55 61 62 52 54 55 53 44 48 40 51 48 52 55 57 43 46 47 42 46 44 45 44 42 47 40 46 42 43 42 43 41 42 37 41 37 42 38 39 37 42 52 53 52 54 49 57 49 50 54 53 55 55 53 51 57 51 52 51 56 54 61 72 87 93 93 89 89 78 68 68 69 78 73 69 66 69 69 68 71 74 84 78 86 76 80 82 84 81 78 68 59 61 57 57 50 55 59 57 59 52 44 45 47 51 52 59 52 46 43 42 45 46 42 45 41 44 44 45 36 44 39 42 40 46 44 38 40 41 36 42 33 41 54 57 53 51 56 51 53 56 49 57 57 55 57 52 56 58 52 54 54 66 85 98 95 95 83 86 87 79 82 79 74 70 76 74 68 71 73 73 74 81 81 81 73 81 77 80 79 76 71 67 61 66 68 51 55 59 56 54 47 53 49 46 50 48 45 51 57 48 44 37 46 45 44 44 41 46 38 42 39 46 41 40 39 46 42 45 38 43 41 40 39 44 52 52 56 55 54 55 52 53 50 59 53 55 53 57 53 54 56 54 58 88 96 101 99 96 81 93 82 85 83 93 82 85 84 79 78 80 71 75 83 73 77 78 80 88 89 80 82 71 81 71 73 70 65 60 54 60 59 58 50 63 52 53 57 49 41 42 39 44 40 42 32 40 45 37 46 44 42 40 42 41 39 43 41 41 42 42 41 39 43 37 39 42 57 53 54 56 54 55 56 56 51 52 59 52 53 56 54 56 52 54 79 90 97 97 99 88 92 96 96 100 106 105 105 100 108 110 95 92 85 89 89 85 95 97 99 93 100 97 94 91 92 93 93 86 82 73 64 61 67 65 56 64 71 63 63 69 58 49 33 33 36 39 38 34 39 47 46 35 45 42 44 39 46 40 40 39 46 43 41 42 42 39 42 42 53 55 55 52 55 54 58 53 52 56 59 49 53 52 55 52 51 70 83 87 93 98 104 114 123 123 129 132 139 144 135 138 142 137 125 122 124 124 123 127 127 129 126 128 130 125 121 122 115 116 119 109 102 90 89 89 89 86 80 80 85 85 80 87 81 77 60 36 30 31 33 33 34 39 49 37 47 42 42 43 44 38 42 42 42 41 43 43 43 36 39 45 51 56 58 53 54 55 54 51 57 51 58 55 54 54 59 56 56 90 103 106 110 115 138 149 151 164 160 164 164 164 163 163 163 161 155 154 158 155 159 159 156 153 147 155 150 147 145 144 140 139 131 131 126 120 121 118 113 115 110 106 110 111 110 111 101 100 86 77 43 26 29 33 31 37 42 48 45 44 40 44 42 43 42 41 41 45 44 39 43 40 39 38 53 56 56 56 54 54 53 54 55 55 57 52 53 52 51 67 80 95 113 118 138 156 169 179 177 182 175 172 172 171 170 172 174 173 168 172 170 172 172 174 175 167 168 168 165 164 161 158 154 153 150 147 148 143 138 132 136 133 132 130 132 132 132 127 125 117 113 104 83 51 32 31 31 30 35 40 39 41 45 45 42 40 43 43 39 48 44 42 44 37 43 41 58 51 56 55 57 54 56 54 56 54 55 56 53 53 68 82 90 101 129 151 164 174 184 186 181 184 179 177 175 176 177 179 182 182 177 178 177 185 180 183 182 178 171 174 169 172 169 169 167 161 161 163 155 154 151 145 148 147 146 144 140 140 145 138 136 134 128 115 112 94 72 29 34 25 31 32 33 40 45 45 42 39 41 49 37 45 43 44 43 41 43 40 51 59 54 52 55 55 56 53 60 52 58 55 53 72 78 88 107 127 154 173 179 186 189 185 185 184 183 182 184 185 187 186 189 187 184 185 185 185 188 188 184 185 179 176 175 177 172 173 171 167 166 164 165 154 158 157 154 156 155 149 150 147 147 148 140 142 132 130 122 113 108 79 43 24 25 33 29 31 47 43 42 46 44 38 47 44 44 41 46 46 37 39 57 56 55 57 56 58 56 53 60 58 58 57 68 91 92 93 125 161 177 185 188 190 190 191 185 190 190 192 194 190 193 192 190 190 189 191 192 191 191 191 189 186 188 183 180 178 177 174 171 172 171 167 166 162 160 164 161 160 159 158 155 156 152 150 147 140 140 127 129 125 119 110 94 42 25 28 33 25 41 45 46 40 46 47 44 40 44 43 45 43 39 43 52 58 54 60 55 55 56 55 58 56 56 66 88 99 86 115 157 181 186 192 194 194 190 191 192 195 196 197 196 196 197 193 194 194 193 192 192 192 192 192 191 190 190 186 183 181 180 177 175 177 174 171 169 168 164 167 165 165 161 160 158 161 156 156 150 145 144 136 133 132 127 122 114 99 43 29 28 24 28 39 46 40 47 41 44 44 43 45 41 45 39 40 56 57 56 57 56 55 53 54 60 53 60 82 100 87 93 147 180 186 192 195 196 193 193 193 196 197 197 198 200 199 199 197 198 197 195 194 190 193 194 192 189 192 190 189 187 183 179 180 179 176 178 179 172 169 169 168 166 167 166 162 163 160 160 160 157 152 147 143 143 133 130 129 122 116 98 36 23 22 20 31 44 46 44 49 43 47 40 46 38 41 44 38 55 56 58 58 55 56 54 60 60 53 77 94 87 76 125 170 188 191 194 196 195 196 199 195 201 199 199 202 201 199 200 200 200 198 199 195 194 195 196 193 190 192 191 190 189 187 188 183 181 178 177 177 175 173 170 170 168 167 169 163 166 162 157 164 156 153 153 148 145 142 133 127 126 117 120 85 17 23 25 21 31 47 48 42 45 47 44 44 44 43 44 45 53 59 56 58 57 59 57 58 54 71 98 101 65 99 161 180 187 196 196 198 197 200 200 199 202 201 201 201 202 201 200 201 202 199 199 198 197 197 195 193 190 192 190 190 189 187 189 185 185 182 181 181 176 175 173 174 170 169 168 165 164 161 162 160 158 151 151 151 151 148 132 131 125 124 119 115 67 21 27 25 28 41 47 44 44 48 47 41 47 44 44 43 60 59 58 57 56 59 52 56 59 96 103 79 66 138 178 188 189 194 200 201 200 202 202 204 204 204 203 204 202 200 202 201 200 200 199 196 197 192 191 193 191 192 191 189 188 190 187 188 187 182 183 180 177 177 174 175 176 172 168 168 166 168 161 165 162 156 154 152 151 149 141 130 131 125 123 123 110 39 37 23 25 26 46 43 48 45 48 44 43 47 43 41 60 64 54 59 59 57 56 55 83 103 91 50 100 165 187 189 194 198 199 201 202 206 205 203 206 203 204 202 203 201 201 200 201 199 200 196 195 196 191 190 191 189 188 189 187 188 188 188 184 181 185 182 175 176 172 174 173 173 174 169 166 164 164 162 162 160 161 155 154 150 146 138 135 128 126 124 121 94 39 35 24 24 34 42 47 44 50 47 41 45 43 44 54 61 58 56 58 61 56 56 85 92 82 65 137 178 192 190 194 197 202 203 204 206 208 206 204 203 204 203 201 203 201 199 199 198 197 194 194 195 192 190 190 185 185 184 185 186 189 186 187 179 178 182 176 176 172 169 170 171 172 171 168 165 164 163 162 162 158 158 157 151 147 141 142 138 125 127 123 113 73 47 35 22 30 40 48 47 44 47 48 45 45 42 59 62 55 59 58 56 53 74 89 91 85 107 161 187 192 193 195 201 201 204 206 207 205 206 205 203 203 202 201 201 198 201 197 199 196 196 192 192 191 191 189 187 185 188 186 190 190 187 186 178 180 176 177 172 171 168 172 169 168 171 165 165 164 162 165 160 162 160 155 154 150 145 142 143 135 124 128 120 93 53 45 38 31 27 52 50 45 48 44 44 43 46 62 59 58 57 58 58 56 82 89 94 90 132 176 191 195 197 199 203 207 207 205 207 207 205 205 204 203 202 202 202 200 200 201 196 194 196 192 191 191 190 190 189 185 184 186 188 188 186 183 181 179 179 178 176 174 168 167 169 168 167 165 164 164 161 163 160 160 161 157 154 152 149 146 141 139 136 129 121 114 62 47 40 40 33 45 49 47 48 45 49 42 44 60 61 60 61 54 58 65 91 89 91 103 151 185 192 192 198 202 206 208 206 207 207 207 207 205 203 204 202 201 203 199 202 201 196 198 195 192 191 188 189 187 184 184 186 186 185 186 184 185 183 180 180 178 179 171 172 163 169 168 167 169 164 165 164 162 160 157 158 154 156 152 152 146 142 138 138 129 125 116 82 48 43 33 37 45 49 44 51 46 42 43 46 60 60 60 62 55 63 75 85 81 87 108 161 187 193 197 203 207 204 208 208 208 208 209 207 206 203 206 203 202 202 202 200 199 200 196 197 194 190 188 187 187 184 184 182 184 187 184 187 186 184 183 179 180 181 174 171 167 165 173 168 167 170 164 164 166 163 163 158 153 159 155 153 149 144 141 141 131 124 119 107 43 49 40 42 31 49 45 49 44 48 48 41 59 60 59 60 58 66 77 85 76 82 127 170 192 191 197 204 209 207 208 208 208 209 208 206 206 205 204 204 202 203 203 201 201 201 201 198 197 195 191 188 185 184 179 181 185 186 184 185 183 187 181 184 181 178 180 175 172 173 173 171 169 170 169 167 166 167 163 163 156 157 154 158 156 149 149 141 132 125 121 113 60 42 45 42 28 46 42 47 44 44 51 42 59 60 54 60 60 67 74 75 91 94 137 182 193 191 197 207 208 209 208 209 208 208 208 206 207 205 206 204 206 205 202 202 202 201 200 200 199 196 195 190 187 183 179 179 183 186 187 184 186 187 186 181 180 182 183 178 180 174 172 177 171 172 174 170 168 171 161 163 162 159 158 160 159 156 151 145 136 127 123 117 74 38 53 46 28 34 47 46 44 46 46 44 62 58 57 59 59 62 62 87 86 100 151 186 198 191 196 210 213 209 211 209 208 208 209 208 208 208 209 208 207 205 204 203 204 202 200 200 199 196 196 191 187 187 180 181 182 185 189 186 184 188 186 184 183 183 185 182 182 178 176 176 173 172 175 176 173 171 168 163 163 164 158 165 163 157 154 149 138 128 123 117 92 39 56 49 34 28 36 50 49 44 49 43 58 61 55 60 57 60 67 91 96 112 157 192 199 187 200 210 212 211 210 210 210 209 210 209 209 209 209 207 208 204 203 202 202 205 198 196 197 197 198 189 191 190 187 184 182 185 189 186 187 186 186 185 189 184 188 185 181 181 175 175 172 174 171 171 178 169 168 163 165 161 164 163 164 161 155 149 143 132 124 123 97 50 50 57 35 24 35 47 49 42 50 42 60 59 60 58 58 59 79 103 98 116 170 195 197 195 197 209 212 212 211 209 210 210 209 208 210 206 208 207 205 204 203 202 201 200 201 197 193 195 194 192 187 189 185 187 184 190 192 191 191 189 184 188 186 185 187 184 180 179 174 175 171 172 172 167 171 174 170 163 165 164 157 164 160 163 156 150 145 131 125 121 105 58 48 59 41 28 33 46 49 47 45 44 61 60 59 60 56 62 74 105 102 124 174 196 197 195 201 207 211 209 211 208 208 209 207 206 204 204 203 205 203 201 199 198 198 198 196 192 189 191 192 187 187 184 185 186 189 191 196 195 193 186 176 185 183 187 184 178 175 172 169 171 171 170 170 165 168 172 167 163 160 159 156 155 157 159 158 153 144 134 123 124 107 68 47 61 38 29 29 41 46 43 51 41 55 56 59 55 59 65 76 96 104 138 182 200 199 199 198 206 211 209 210 208 206 205 203 202 198 198 198 194 194 195 195 189 187 185 187 182 180 180 184 182 182 182 182 183 186 192 197 196 189 181 178 173 177 179 179 172 168 167 167 159 163 162 164 166 161 162 162 156 161 154 149 147 154 155 154 151 149 131 129 123 108 68 50 63 40 24 33 32 46 45 44 43 56 59 59 57 65 73 77 101 116 146 184 198 202 198 201 206 207 209 207 207 203 202 194 189 184 180 182 179 178 174 172 163 162 162 161 161 158 172 169 164 172 177 176 179 179 189 197 191 183 176 167 170 168 165 166 162 157 156 153 144 136 141 146 150 144 142 142 140 150 154 137 127 141 150 150 149 144 133 133 129 110 73 50 67 49 20 27 35 43 42 45 45 60 58 56 62 66 71 83 102 125 149 182 200 201 198 200 202 207 206 203 196 194 187 171 157 149 147 146 140 136 127 121 116 121 116 129 130 132 149 143 144 148 158 161 165 173 184 191 188 178 168 159 159 154 147 145 140 136 126 119 116 104 105 111 115 114 115 114 118 111 129 147 117 103 127 152 143 147 131 131 131 115 78 53 63 48 25 25 28 37 44 39 48 58 62 56 67 69 75 93 114 136 150 185 200 200 200 199 203 206 195 174 162 159 152 134 120 115 112 105 101 94 87 86 84 84 80 85 102 108 116 122 121 130 136 142 152 169 184 189 180 174 164 150 145 134 124 115 109 99 89 86 80 79 70 74 75 75 71 84 85 87 99 111 126 105 88 115 143 141 133 130 133 116 78 54 64 55 28 26 32 36 46 39 48 58 58 57 70 71 75 111 128 131 157 188 199 201 199 200 200 190 165 138 131 124 117 100 94 87 86 76 68 60 65 60 68 55 57 57 70 80 95 106 103 112 118 133 145 171 183 189 183 163 156 149 131 112 102 90 81 71 60 63 61 62 55 57 53 56 55 63 63 62 69 75 90 96 92 84 105 137 131 128 134 117 87 63 55 63 31 32 32 39 48 43 38 61 61 57 71 71 96 116 128 133 159 192 201 199 197 200 189 169 138 123 113 106 105 94 91 93 82 73 67 64 59 65 52 53 54 52 57 64 80 97 100 103 113 131 158 171 189 185 179 162 154 143 129 102 88 79 69 61 54 57 51 53 51 58 60 71 74 76 79 79 83 77 79 86 89 94 78 104 131 126 132 126 94 68 58 57 34 36 32 37 45 45 41 62 57 59 73 78 100 122 128 127 159 192 202 197 194 190 165 137 116 115 114 116 119 116 116 120 109 100 95 90 82 78 71 69 64 75 73 74 83 94 103 108 123 146 173 189 192 193 177 160 158 151 131 111 91 79 79 73 72 79 69 75 76 81 95 104 111 117 118 117 114 111 110 91 86 86 90 76 120 127 130 134 105 73 57 60 36 39 31 44 45 38 45 56 58 59 66 87 107 123 129 127 158 192 202 200 195 172 138 111 111 112 126 138 147 146 137 134 133 130 122 118 110 98 87 80 79 78 83 91 97 110 116 129 147 173 195 200 199 194 181 170 159 159 139 126 112 102 105 105 97 91 80 86 89 105 120 128 131 132 136 136 142 141 144 134 109 80 70 82 103 130 132 134 115 74 68 66 46 32 35 39 44 42 45 56 59 54 67 97 97 114 124 130 165 198 203 202 192 157 123 111 120 140 161 164 166 160 154 144 139 134 131 125 117 112 106 90 84 78 78 84 94 110 133 150 174 194 204 206 199 196 185 173 167 164 151 138 129 118 112 100 91 76 79 86 95 108 125 126 136 139 141 144 145 155 162 156 143 114 64 71 99 123 133 136 124 80 51 73 51 31 33 40 42 43 43 58 57 47 66 97 96 101 114 136 169 200 204 201 192 148 124 140 154 167 172 174 168 158 137 132 145 152 152 145 135 127 119 108 97 83 85 80 83 95 121 150 180 203 206 206 201 193 183 178 168 170 159 145 128 114 91 86 78 86 88 104 110 121 124 136 138 138 133 129 135 157 165 161 155 143 89 80 89 120 131 133 130 90 60 62 57 34 34 38 39 41 44 55 56 50 67 91 94 100 110 135 174 200 203 202 188 163 149 158 171 168 177 169 147 146 167 182 180 171 162 145 133 122 113 109 107 100 99 98 86 85 109 143 179 199 205 205 199 193 186 176 169 164 164 143 119 95 88 87 93 94 103 104 113 118 123 129 135 141 141 138 135 128 155 161 151 145 121 90 98 116 133 131 135 99 61 49 53 46 39 39 41 42 42 58 53 50 68 79 80 85 109 142 184 202 202 200 186 167 172 170 173 170 173 150 153 190 199 196 172 144 116 111 105 83 89 99 103 112 109 106 111 100 97 136 175 193 202 201 196 190 182 178 168 160 162 144 111 99 100 101 99 105 102 100 97 93 93 100 107 122 137 138 138 141 137 144 143 140 140 114 107 115 130 129 132 116 62 48 53 46 41 38 41 44 43 54 54 56 65 63 73 90 105 144 187 199 203 198 188 183 181 176 168 174 150 147 182 195 190 161 119 94 79 66 69 67 72 105 103 93 99 114 132 121 113 130 173 181 201 201 190 183 177 173 168 163 161 146 117 115 120 112 100 91 93 85 66 69 56 51 56 86 103 118 135 142 130 128 137 138 142 133 123 118 124 126 131 117 66 46 47 47 43 39 42 42 46 55 54 54 58 59 69 85 95 142 188 200 201 196 194 188 188 178 171 162 147 164 178 168 137 114 80 68 56 44 52 66 87 121 126 109 92 87 107 135 135 143 177 183 199 200 190 182 170 169 163 170 164 146 130 126 129 104 80 87 115 110 72 66 54 34 47 63 147 97 92 126 130 121 133 138 141 151 135 122 119 127 129 125 66 44 41 46 42 43 40 44 42 53 57 50 59 64 66 82 96 133 187 197 199 196 194 196 194 186 180 169 171 163 145 122 105 115 95 58 60 61 82 95 103 124 123 122 113 117 123 139 154 162 182 185 197 200 193 180 172 167 163 168 159 143 137 137 127 105 120 101 119 123 93 75 73 53 55 69 109 126 87 82 109 121 129 143 152 160 149 134 124 125 131 123 69 42 45 40 45 46 41 43 43 61 50 55 55 63 65 80 88 124 180 197 199 196 201 200 200 196 194 192 180 149 124 124 137 136 131 115 105 118 122 121 118 120 122 123 123 128 136 146 164 181 187 188 196 198 193 181 172 167 166 163 152 140 142 140 137 129 121 116 116 124 111 116 109 96 86 94 117 128 107 85 79 109 132 149 162 175 157 143 126 128 129 122 66 43 29 50 40 49 41 43 46 54 59 50 58 59 65 74 86 115 170 193 198 198 203 204 208 207 205 198 182 160 144 146 147 151 141 130 119 116 118 115 117 115 120 115 125 132 136 152 184 194 192 188 194 197 190 183 173 170 166 163 153 136 145 142 135 131 128 114 115 112 109 111 109 106 110 110 124 124 125 110 95 103 132 149 170 178 164 143 136 124 130 113 56 47 28 45 44 45 45 41 45 57 56 54 53 57 65 78 81 103 147 191 199 200 205 210 209 210 209 204 193 174 163 164 163 158 147 135 127 120 116 120 119 116 114 125 131 140 148 176 197 203 195 192 194 198 192 187 178 172 173 162 149 144 141 154 145 132 131 124 115 112 116 115 113 115 117 120 121 137 138 127 116 118 138 150 169 179 170 148 140 128 129 112 48 44 33 40 51 44 43 42 44 60 55 57 53 54 63 78 80 83 130 188 200 205 208 210 213 211 210 209 207 197 178 178 169 160 144 134 122 117 113 114 116 127 129 140 151 162 177 195 203 202 197 191 199 201 197 190 183 176 168 163 156 142 143 157 159 147 139 132 139 122 113 114 118 117 120 126 133 142 148 140 129 135 148 158 164 176 171 155 146 135 130 104 35 40 35 33 51 47 39 46 44 61 51 57 50 54 55 76 81 73 121 189 203 204 208 211 211 212 211 211 207 201 197 192 180 161 146 138 133 129 134 137 151 151 161 167 174 183 197 203 204 205 198 193 198 199 192 189 183 180 169 159 152 144 141 156 163 163 152 148 144 145 139 125 128 128 123 127 130 139 146 142 140 147 150 158 162 167 175 160 154 142 133 108 25 37 35 34 50 47 45 41 45 61 54 54 55 50 49 66 81 69 125 189 202 207 209 210 213 212 211 210 207 203 202 201 194 188 181 174 173 168 174 173 178 179 186 189 191 203 205 205 207 203 197 194 194 196 187 183 183 177 167 162 150 148 140 158 164 169 163 163 159 150 150 145 146 143 142 142 144 145 149 148 145 148 154 156 160 163 169 169 156 145 140 111 21 44 34 41 44 48 41 44 47 55 54 56 53 51 53 54 69 63 125 188 202 205 210 211 211 212 210 208 206 204 204 203 200 197 190 191 190 186 189 193 192 192 197 202 206 207 209 206 209 205 196 190 195 191 184 179 178 176 168 159 150 151 142 153 166 165 167 170 168 163 160 158 161 153 152 152 152 152 155 151 149 151 155 159 154 166 163 164 158 145 139 122 15 44 35 44 50 50 45 43 47 55 56 53 50 63 62 50 57 54 128 186 199 207 209 211 211 210 210 208 207 203 204 204 202 198 197 195 195 193 193 197 197 200 202 205 206 210 210 209 209 204 194 190 195 193 183 181 177 167 164 159 153 147 141 150 163 167 168 165 177 170 169 165 164 160 159 158 155 157 156 158 156 153 155 162 161 162 161 162 163 151 140 128 16 27 41 43 69 62 44 43 37 54 53 50 113 143 126 81 41 56 142 188 201 205 210 210 210 210 210 208 205 206 205 203 202 199 198 198 197 200 199 201 201 202 202 204 207 210 212 208 207 202 192 194 200 199 187 185 181 173 164 159 158 149 144 148 161 169 167 169 175 176 174 171 170 167 164 164 165 161 163 165 164 163 162 161 166 163 163 161 165 150 136 135 35 19 44 76 103 115 87 33 48 56 35 102 140 143 161 132 62 68 157 189 199 206 210 210 211 211 209 209 207 205 204 204 203 202 198 200 198 200 201 200 201 201 201 203 205 210 210 208 202 199 193 196 203 209 194 183 183 181 171 166 159 154 147 141 157 172 170 168 168 175 177 171 176 173 173 167 169 170 168 170 171 168 165 161 166 163 162 164 162 153 136 134 47 29 81 114 110 86 113 40 45 61 40 113 124 115 142 172 103 85 167 193 198 203 210 210 210 210 211 207 208 204 205 202 202 203 201 201 200 200 201 198 198 200 198 200 205 208 211 203 198 198 189 193 195 204 195 173 170 170 171 161 168 165 148 143 152 169 174 171 167 172 172 168 171 174 175 178 169 171 171 170 174 169 166 164 167 167 166 164 163 157 134 139 41 56 124 125 86 65 107 47 44 55 44 111 119 96 116 163 119 104 174 190 195 205 208 210 210 210 210 210 209 206 203 203 202 204 202 199 201 199 198 196 196 198 194 199 201 207 205 202 198 189 186 183 183 188 180 165 156 153 157 156 164 165 143 142 149 163 176 174 169 171 171 168 172 179 179 180 174 166 169 172 169 172 169 168 170 172 172 166 168 157 135 131 46 87 140 114 60 77 103 48 35 47 47 101 124 92 88 142 109 121 181 192 196 202 207 211 211 211 211 210 209 207 204 202 204 201 203 197 197 195 195 194 194 196 196 194 198 201 204 198 194 185 170 157 169 171 163 146 139 136 141 148 153 150 137 137 143 157 170 170 174 168 173 171 173 179 184 180 182 176 175 172 175 173 171 171 172 177 172 169 166 155 135 129 46 111 137 101 49 98 98 42 42 55 40 91 128 96 80 130 113 136 183 189 195 205 208 207 210 211 211 212 211 208 203 203 203 202 199 198 191 191 192 194 191 193 191 193 196 198 199 197 189 165 131 112 113 139 149 133 122 120 125 137 134 128 108 114 136 153 163 172 171 175 171 175 178 181 183 180 185 183 181 176 180 178 176 168 173 173 171 168 166 153 132 126 54 114 134 84 61 114 89 32 43 60 41 80 136 110 80 128 130 142 183 188 195 202 206 209 209 210 212 210 210 208 201 202 201 200 198 195 190 192 188 190 189 190 191 191 193 193 196 194 176 138 98 63 76 98 130 126 103 106 112 124 116 89 68 77 111 144 156 169 173 176 176 173 181 178 181 177 183 182 183 178 178 176 177 174 177 170 172 164 161 152 129 121 60 130 128 72 77 123 71 40 40 57 41 74 139 113 87 141 134 145 181 187 194 202 204 205 209 210 210 212 210 206 203 201 201 196 198 194 191 186 186 185 183 185 186 190 192 192 192 189 162 118 76 38 39 92 125 128 99 93 108 115 102 63 41 59 102 129 154 167 173 174 176 172 176 181 177 180 181 179 182 178 179 179 175 175 182 170 167 162 157 154 130 117 64 131 134 61 94 127 51 38 43 57 44 64 132 129 92 143 130 140 180 190 191 198 203 205 208 210 210 211 210 207 203 201 197 196 197 191 185 181 179 179 177 177 185 187 191 190 186 180 153 113 74 33 62 118 141 136 99 93 106 112 105 71 52 73 100 125 151 165 174 175 172 173 175 177 181 182 181 174 179 172 175 178 180 179 182 176 165 164 155 150 128 120 52 127 141 66 105 117 37 42 45 55 39 50 128 138 98 146 137 143 179 189 191 193 199 202 206 210 211 212 211 206 202 199 195 194 193 187 182 180 177 175 178 181 184 190 192 187 179 172 160 114 80 67 112 145 151 132 98 94 103 114 116 108 96 94 112 122 144 163 169 173 177 172 171 174 180 178 181 173 173 172 171 171 178 182 181 179 161 159 151 146 128 110 47 134 142 82 115 102 32 38 44 49 54 40 117 145 109 157 154 142 176 189 189 192 196 203 205 208 209 208 208 203 201 195 191 191 182 181 177 173 172 173 175 180 190 196 195 190 181 170 164 136 102 118 153 166 152 122 96 90 104 119 125 127 121 108 111 118 134 153 168 174 175 178 173 172 176 176 177 172 173 171 167 171 178 185 181 181 167 155 150 141 128 104 39 135 154 107 115 68 29 42 44 57 47 46 97 142 125 172 141 139 176 186 187 195 198 200 205 207 204 206 206 203 198 192 187 182 180 173 168 165 168 165 176 185 195 198 200 193 183 175 163 149 141 162 171 167 141 117 95 91 109 121 131 133 129 113 114 114 131 148 157 171 172 177 170 171 170 170 172 168 167 169 167 170 173 183 182 180 170 155 147 138 128 97 39 120 155 128 98 43 42 41 40 56 50 45 69 135 147 177 137 126 172 183 190 193 196 201 202 200 204 202 204 202 195 187 183 178 169 165 158 155 159 158 176 191 198 203 203 197 190 184 180 177 177 182 181 164 135 113 104 99 110 120 131 135 130 127 127 130 131 146 156 163 172 172 171 168 169 163 165 159 160 164 169 166 172 179 179 177 163 155 148 134 125 93 41 120 151 139 74 26 41 46 43 53 51 51 51 111 164 178 142 115 171 181 187 193 194 196 199 198 199 200 202 196 187 184 177 168 163 157 149 147 145 165 184 198 201 205 200 197 195 189 188 188 186 186 176 158 129 116 107 106 116 126 130 134 130 135 134 135 137 141 150 157 167 170 170 165 167 161 156 156 153 158 167 166 170 174 180 176 163 153 145 136 121 75 50 118 150 137 41 36 45 41 42 56 51 51 42 90 159 189 154 108 160 181 185 191 192 192 194 195 198 196 194 191 182 178 169 161 150 142 139 140 154 181 195 199 200 199 199 194 194 190 189 188 188 179 167 152 128 117 117 116 117 131 130 133 131 137 138 137 138 144 144 153 156 165 167 161 161 158 153 155 151 154 160 164 166 173 174 171 158 153 141 132 118 56 77 113 142 132 33 33 46 38 47 49 56 49 37 66 146 192 170 114 150 175 185 187 188 191 191 191 192 192 189 186 180 172 160 149 139 137 134 152 173 187 195 197 195 196 195 191 189 188 187 185 184 173 161 144 130 123 121 123 122 131 135 132 134 140 140 138 141 140 143 152 153 154 160 157 153 150 152 147 148 144 154 159 167 167 166 162 155 145 141 130 111 56 85 109 144 121 30 37 44 41 42 51 48 53 39 55 132 187 176 119 145 174 181 182 185 187 186 186 185 184 183 181 176 167 155 140 132 127 148 168 179 190 194 193 192 192 193 188 183 186 182 178 176 166 152 141 131 129 126 124 125 132 133 134 135 139 140 139 139 141 143 152 152 150 153 153 147 150 147 145 143 141 146 158 166 166 160 162 151 146 138 125 107 66 86 114 139 108 22 42 37 46 42 45 55 48 50 37 110 175 183 141 142 167 176 180 182 180 183 182 185 173 180 172 172 160 147 134 123 137 164 179 180 189 192 192 192 191 189 185 182 182 177 173 171 158 146 139 130 129 130 125 122 131 135 133 139 139 140 142 142 140 144 147 152 150 150 152 150 144 144 145 138 137 142 149 160 161 155 152 148 142 133 127 101 85 99 121 139 91 23 40 40 43 42 44 53 51 53 35 93 166 179 171 160 167 174 179 178 176 178 178 178 176 174 173 171 158 141 123 117 156 175 177 182 183 189 188 188 189 184 179 178 175 176 170 165 156 148 141 131 132 137 128 129 132 136 138 137 141 143 144 144 144 147 145 148 149 145 151 145 145 140 141 140 135 138 150 155 155 155 144 147 142 134 120 108 98 118 129 125 82 29 38 39 43 38 49 49 54 56 35 71 150 173 177 170 171 171 174 175 172 176 177 175 174 171 172 167 154 132 117 126 159 174 172 174 180 183 183 182 179 179 175 175 174 173 171 166 161 153 148 143 144 148 143 139 144 145 147 145 144 147 147 147 143 147 151 146 145 147 145 144 139 146 137 140 136 137 148 155 156 153 144 142 140 131 118 115 117 113 125 124 60 28 38 41 36 45 49 50 54 50 43 61 125 172 175 172 166 167 172 164 168 173 174 170 167 171 168 164 152 129 112 133 155 160 157 161 169 173 174 175 175 173 171 174 171 172 165 163 156 155 147 152 152 155 147 150 148 147 149 149 147 148 151 149 147 147 148 147 139 142 141 137 128 136 132 136 133 139 145 152 155 152 143 134 137 129 117 113 112 118 125 103 41 35 38 38 39 42 51 50 52 54 48 43 102 160 182 181 172 168 165 162 165 170 167 164 164 168 169 166 153 130 118 131 140 137 132 137 150 160 162 168 169 167 167 167 163 156 155 143 140 133 133 137 139 139 134 135 132 128 132 132 140 141 147 145 147 147 149 149 142 136 131 124 115 116 124 134 137 139 144 149 150 149 141 135 133 123 117 114 113 119 114 74 36 34 39 39 43 42 49 49 57 49 51 39 76 148 180 188 183 169 160 162 165 168 164 158 161 168 172 165 154 133 128 127 124 112 101 105 121 142 154 155 159 156 150 144 138 131 124 120 115 110 111 115 115 114 111 111 108 106 112 112 117 123 126 133 135 139 147 144 139 129 114 99 94 102 115 128 137 143 147 150 148 147 139 132 131 121 118 120 119 116 80 37 41 33 39 37 41 39 54 51 49 52 53 44 51 121 175 188 186 172 161 166 164 167 162 156 161 167 173 164 152 139 128 131 121 101 90 88 104 118 134 138 133 129 122 114 112 108 109 105 103 103 93 93 90 95 92 91 94 94 98 93 100 102 104 107 110 117 126 130 123 110 105 101 94 102 111 124 136 146 151 149 147 140 134 129 129 122 122 128 122 100 51 32 40 33 40 37 39 37 50 51 53 51 50 50 36 100 151 175 176 164 162 165 166 164 160 160 161 165 171 164 156 145 143 132 123 114 104 114 114 119 110 112 108 103 98 97 95 96 94 91 91 86 79 76 74 77 76 82 77 78 87 85 82 89 87 94 89 98 101 104 100 102 110 123 121 113 116 123 138 149 154 146 140 137 131 126 129 120 113 117 109 63 33 36 39 37 36 41 39 41 52 49 50 47 51 48 42 65 105 132 137 144 161 168 167 164 161 159 161 167 166 166 161 152 150 136 134 125 129 141 151 148 137 119 112 111 109 112 112 110 99 94 87 82 83 77 77 76 75 74 83 78 84 84 89 85 91 91 89 95 95 98 107 126 135 134 132 116 120 131 139 148 145 143 139 134 123 129 127 119 81 75 59 36 34 35 38 33 39 36 35 43 48 52 46 49 49 50 47 38 71 90 86 117 155 164 167 166 159 159 160 163 168 168 162 158 149 145 137 138 144 165 175 179 172 161 144 145 145 149 154 146 130 126 122 114 113 114 109 107 109 107 105 104 103 103 105 105 104 106 109 107 115 122 130 143 146 138 141 122 127 136 147 146 143 139 135 129 126 127 129 108 39 39 39 33 36 35 35 36 34 39 38 39 46 51 49 48 51 51 45 48 49 50 54 89 143 165 166 164 160 156 159 162 167 164 162 161 153 152 142 145 156 176 186 192 189 186 175 168 165 165 175 174 155 151 142 141 142 140 135 136 133 133 128 123 117 116 118 123 121 122 122 127 131 143 147 153 149 145 146 133 129 138 147 147 141 138 132 129 128 132 126 87 22 28 37 33 35 34 37 36 35 37 37 39 47 46 49 51 49 50 48 49 45 50 38 65 134 159 166 161 159 158 153 160 165 162 163 161 161 152 148 150 163 177 186 193 194 196 188 179 177 171 167 164 154 147 136 140 134 137 133 132 132 129 128 120 117 116 125 130 132 134 139 146 147 153 152 152 150 144 144 133 134 138 146 144 139 134 128 129 130 129 121 62 19 37 37 31 36 34 34 36 35 37 36 45 45 52 49 51 46 47 48 47 49 49 43 48 119 153 161 163 159 154 157 158 160 163 159 163 162 156 152 156 167 175 185 190 194 195 192 186 179 170 168 158 153 144 133 127 123 118 120 118 119 116 115 114 112 120 128 135 137 143 148 149 152 154 153 152 148 144 138 135 132 136 143 142 137 133 129 128 127 129 107 39 22 33 33 35 32 34 36 36 38 38 36 39 52 46 46 52 45 50 43 49 47 46 46 38 99 144 157 159 160 156 156 155 158 159 160 163 162 158 157 160 166 174 182 186 188 189 191 188 184 176 167 159 152 146 133 121 115 106 103 106 108 111 107 108 116 121 129 136 142 145 152 151 153 151 150 145 146 139 139 133 132 136 138 136 135 131 125 131 126 124 89 23 25 34 30 33 31 33 37 34 39 35 39 39 49 48 49 47 49 49 49 48 43 51 49 37 76 133 154 154 151 154 153 157 154 157 159 160 161 159 157 162 166 175 180 181 182 187 184 188 183 180 172 164 156 149 135 120 110 104 94 93 95 103 101 109 117 122 131 134 142 142 152 150 144 146 145 143 145 140 136 136 132 136 138 134 129 130 123 131 127 119 62 17 32 33 32 36 32 36 31 35 35 33 37 40 45 49 53 44 48 48 47 48 40 50 45 40 55 118 146 151 147 147 153 153 154 154 156 161 158 156 158 162 163 173 173 179 173 178 181 180 176 172 166 160 157 142 131 123 111 104 98 84 91 94 100 105 114 119 125 133 135 140 141 145 140 142 139 142 145 140 137 138 136 137 136 132 130 123 127 129 122 109 31 28 28 29 32 35 29 37 37 35 35 33 40 35 50 51 48 49 49 46 53 43 49 43 49 45 43 94 140 142 148 144 149 149 148 151 150 151 154 154 158 162 161 168 169 170 171 173 173 169 169 163 157 153 144 135 123 113 113 103 98 93 95 98 101 107 108 112 121 126 128 136 132 137 138 137 141 138 141 141 140 141 139 136 134 130 127 123 126 125 118 79 20 26 31 31 29 30 36 32 35 33 39 35 38 40 51 50 51 51 46 46 52 42 46 45 48 41 40 70 122 140 148 141 142 145 145 148 147 148 151 153 157 157 160 164 163 161 164 166 168 163 161 156 149 147 131 121 111 110 110 108 101 103 103 105 101 108 111 114 115 120 126 134 130 135 136 138 141 139 136 141 141 142 141 136 130 125 124 120 124 122 107 43 21 32 27 33 27 32 35 31 32 34 35 31 40 36 47 46 50 47 52 41 51 49 43 48 46 47 34 49 98 134 144 140 138 143 140 145 144 144 148 154 154 155 158 160 159 160 162 164 163 159 155 151 143 137 127 115 104 105 106 108 107 105 109 106 109 110 111 114 118 124 128 132 130 132 134 140 137 138 141 143 139 144 138 134 129 127 124 124 120 118 91 21 31 31 32 30 30 27 32 37 33 31 36 35 35 37 45 47 48 48 45 45 46 47 44 44 49 41 41 41 68 118 136 137 136 137 140 141 141 138 146 151 155 157 156 157 158 153 161 156 159 150 147 143 140 133 118 114 106 99 108 105 107 110 111 112 112 113 115 117 116 126 130 136 131 130 135 138 137 135 138 139 138 142 138 132 128 129 123 123 114 117 72 19 29 30 30 30 26 32 34 29 37 34 35 35 35 42 47 45 47 47 46 43 50 43 48 45 44 44 40 46 51 90 130 134 136 134 138 139 141 137 141 142 156 156 155 156 156 152 152 156 150 146 143 141 138 129 126 117 113 109 111 111 113 111 116 116 117 119 117 120 124 128 138 132 134 136 134 135 136 136 137 139 134 137 132 131 129 128 123 117 108 109 82 18 28 30 29 29 29 33 31 38 34 35 35 37 35 39 45 46 45 47 43 48 44 51 40 47 44 40 45 48 37 66 111 132 133 131 133 140 134 138 140 147 150 156 154 154 152 150 149 157 149 146 144 145 143 139 135 129 127 124 123 124 124 124 124 123 122 124 128 130 132 134 139 135 131 137 139 132 136 136 135 136 136 135 126 127 131 126 121 113 104 110 90 17 29 32 29 31 28 37 29 37 31 38 32 35 37 37 43 49 41 48 46 44 50 39 47 41 47 39 48 44 42 40 107 126 131 132 130 134 136 139 139 147 153 152 153 155 150 148 141 151 149 146 150 149 147 148 142 147 146 142 142 141 141 135 132 131 131 136 135 138 136 140 137 140 137 139 140 135 135 137 135 137 132 131 118 126 132 125 116 108 103 107 99 19 26 30 30 29 31 34 35 33 36 32 37 34 38 35 44 43 44 47 46 46 46 39 46 44 44 40 46 46 44 29 111 138 130 128 130 135 133 140 141 145 147 148 149 147 149 144 142 148 149 149 152 156 154 153 157 157 159 158 154 155 146 146 139 139 138 140 141 140 142 135 134 137 142 141 140 135 130 137 138 132 132 124 117 125 129 121 110 103 107 111 100 21 27 28 27 35 29 35 35 30 33 35 33 34 36 33 48 43 42 49 44 46 45 42 43 46 41 46 42 46 46 31 109 149 134 123 128 129 133 137 139 145 144 143 148 145 146 143 149 152 148 151 153 157 159 161 162 164 162 160 157 154 150 148 147 141 142 143 142 144 141 139 127 137 141 140 139 133 133 136 135 129 127 118 120 127 124 116 107 103 108 114 107 27 27 29 32 32 31 34 35 34 34 32 37 35 36 33 40 42 46 47 44 49 41 47 44 44 40 45 43 48 44 29 113 152 142 122 121 125 130 136 136 143 138 145 144 143 144 142 148 153 150 148 149 153 159 159 166 161 159 156 155 149 151 146 144 144 141 142 142 144 142 141 132 141 135 139 138 136 133 136 131 126 124 121 123 123 120 107 104 105 111 115 117 32 24 29 32 31 34 25 38 32 32 34 34 37 35 38 44 41 50 44 46 43 46 44 43 46 48 41 48 48 46 29 110 154 153 130 117 120 128 133 132 134 137 140 144 141 144 147 148 150 151 147 150 149 156 155 158 158 150 147 148 143 147 144 144 143 142 138 138 141 140 137 138 134 135 134 135 139 137 133 127 123 124 120 125 116 113 102 105 109 115 113 121 42 20 29 30 33 31 30 35 34 33 35 34 39 34 37 48 41 46 44 46 42 43 46 44 43 45 41 47 50 40 30 106 155 156 140 120 116 120 125 127 132 132 140 140 138 140 143 144 148 147 148 148 146 149 152 151 144 148 144 143 138 141 142 139 141 132 139 137 136 138 137 137 136 123 132 134 137 136 130 126 123 119 121 115 113 103 101 107 112 116 119 119 54 19 30 32 29 32 34 34 37 31 36 34 37 30 42 42 45 42 44 45 42 47 43 42 46 43 44 47 47 43 31 96 153 156 143 130 115 112 117 121 126 132 134 136 131 136 136 143 143 146 143 143 143 143 145 142 143 139 139 137 136 131 133 134 133 129 133 133 129 134 133 132 128 123 129 133 135 134 126 125 122 115 116 111 110 103 106 109 120 114 122 124 65 20 28 31 29 33 36 30 42 33 34 36 31 38 35 44 45 42 44 44 40 45 41 45 43 45 44 45 45 44 24 98 151 156 147 138 126 108 108 117 117 126 127 133 125 133 133 133 142 138 140 136 138 140 135 139 131 136 132 131 124 124 121 124 124 125 125 123 121 128 125 127 128 124 122 128 128 124 122 116 113 110 110 108 106 101 107 116 119 121 122 123 74 16 27 32 31 31 30 37 35 36 37 34 32 39 30 43 44 44 44 39 43 41 45 40 44 46 43 46 45 43 31 87 145 158 149 144 133 117 110 108 113 118 123 123 127 125 129 128 129 136 132 134 133 132 132 127 129 123 121 118 112 108 111 112 108 119 118 113 116 117 121 121 124 120 120 124 123 120 116 113 109 105 109 104 104 105 109 120 123 123 125 122 86 17 32 30 29 35 32 34 33 35 31 40 30 38 33 41 45 43 42 44 41 46 41 48 42 43 45 43 47 41 23 92 146 152 151 150 140 128 117 110 103 106 111 116 116 124 119 123 122 127 129 128 124 123 119 118 111 112 107 101 100 98 99 102 103 109 108 108 107 110 115 115 115 118 117 116 119 115 110 106 105 104 102 105 103 108 113 125 124 126 125 120 94 22 26 30 31 34 31 35 33 33 33 34 33 38 40 44 41 43 43 39 42 44 40 44 42 41 45 47 42 44 27 82 139 152 151 145 148 134 123 116 104 100 105 108 111 114 117 108 119 118 117 118 116 114 110 106 100 92 91 88 88 89 90 91 96 98 96 98 98 103 108 108 109 113 109 113 112 107 102 101 102 103 102 104 102 114 120 121 118 128 126 119 102 23 21 34 30 32 33 32 34 36 31 35 35 33 36 41 40 42 40 39 44 41 43 42 42 43 40 48 44 44 22 81 140 153 150 149 146 141 135 124 110 104 97 103 103 105 108 106 110 108 106 109 108 106 105 95 92 84 76 77 77 79 81 85 87 85 85 88 94 95 101 105 108 103 109 106 106 97 95 96 99 104 100 103 109 119 120 124 120 124 127 117 107 31 25 32 31 36 31 33 35 34 33 31 36 31 38 42 39 41 44 38 42 41 42 40 41 43 46 46 43 41 29 80 138 152 153 150 148 142 139 129 125 106 99 95 96 101 98 100 98 95 98 101 94 99 87 88 82 77 73 64 69 69 69 70 74 77 77 79 80 87 94 94 96 98 100 98 98 93 93 98 101 102 100 105 113 119 126 123 122 123 124 118 112 37 22 35 32 36 34 31 34 33 33 33 35 34 36 41 44 37 41 42 40 44 35 46 38 40 44 45 43 40 24 83 139 150 155 153 149 144 141 135 122 112 105 97 92 93 94 92 87 89 88 86 84 83 76 79 67 78 61 63 64 60 58 62 66 65 69 69 74 78 79 88 89 91 92 93 93 89 98 99 102 102 98 104 112 118 126 127 128 123 124 121 111 47 21 36 30 38 30 33 35 29 38 31 36 35 33 43 42 41 39 45 42 38 42 43 40 38 44 44 42 39 27 77 141 154 152 155 151 149 141 140 128 118 112 105 97 95 81 89 81 81 77 78 69 74 69 67 63 63 63 61 63 54 58 62 55 60 62 65 66 70 76 78 80 83 89 89 96 95 96 101 100 105 106 110 116 120 128 131 126 120 125 120 119 49 22 35 33 32 40 27 34 30 34 34 33 36 30 38 46 35 40 42 40 40 42 35 41 40 42 45 40 43 16 85 139 151 154 152 152 146 145 139 128 126 119 112 106 96 87 81 80 74 75 70 68 65 65 62 59 60 58 59 55 57 57 55 58 59 54 63 61 66 67 74 78 85 85 90 93 99 95 103 101 106 109 119 125 121 129 132 126 125 124 121 117 59 25 30 35 32 37 31 32 32 31 34 35 31 35 41 41 38 42 37 40 38 42 35 40 38 42 43 44 39 23 85 135 154 152 151 152 150 144 142 134 125 126 120 115 101 92 88 78 72 73 66 68 63 66 63 59 57 59 55 54 59 54 58 61 56 54 65 63 71 70 76 78 84 90 89 96 96 100 102 106 108 117 123 128 125 131 130 126 127 125 122 120 68 21 34 36 33 33 37 31 36 34 31 34 33 32 43 41 38 39 35 38 42 37 41 33 43 37 49 40 36 21 96 140 152 151 153 152 150 146 144 137 131 133 123 121 111 107 95 86 79 75 66 69 64 62 65 61 58 61 61 57 60 56 59 63 54 62 61 67 69 70 76 84 88 90 93 97 103 100 106 112 110 115 124 126 127 132 129 132 124 128 120 119 79 26 32 32 34 38 33 34 32 34 31 36 31 33 37 37 42 39 38 40 40 39 35 38 39 43 45 39 38 20 101 143 152 151 153 152 148 147 141 140 139 134 126 125 121 114 107 94 86 79 74 69 64 63 59 67 58 58 63 58 56 60 55 61 60 61 62 65 72 71 83 83 87 95 95 95 101 108 108 113 119 119 124 123 126 131 129 125 131 125 119 122 90 24 35 34 37 33 30 35 35 28 36 29 33 36 42 40 42 38 38 39 31 42 33 40 39 45 42 41 31 25 115 142 157 152 152 151 154 146 148 141 139 135 128 127 121 121 111 107 96 92 87 75 76 61 65 58 61 58 58 58 55 59 57 59 61 63 66 69 70 81 82 89 90 92 95 100 101 108 115 117 122 118 124 123 123 125 125 126 129 125 125 114 103 34 28 36 32 36 32 33 34 34 30 36 28 35 40 40 39 39 37 36 36 41 35 34 41 43 43 37 26 35 124 148 156 158 152 153 154 146 148 136 140 135 130 130 123 119 112 109 111 101 95 89 78 73 69 70 61 54 63 54 58 57 53 59 63 62 70 72 76 83 85 91 95 95 92 96 104 111 116 119 121 121 124 117 125 128 123 128 124 126 125 117 108 43 28 37 33 34 32 33 30 35 34 32 37 33 40 35 41 36 34 36 33 42 36 36 40 40 44 39 21 55 131 148 157 152 155 150 152 149 144 141 133 137 131 128 125 121 117 110 112 111 100 100 93 85 78 75 63 65 60 59 56 56 56 60 60 67 71 74 76 87 87 92 91 96 96 97 109 112 119 119 122 117 122 116 122 125 126 125 127 123 122 117 115 55 23 37 32 36 34 30 34 34 29 35 34 33 