P2
92
112
255
46 48 51 46 48 49 53 44 49 52 45 53 50 49 49 52 51 49 52 50 46 49 50 50 47 48 52 51 45 47 49 47 52 45 49 47 49 50 50 49 51 49 55 55 55 59 58 54 55 48 61 50 48 46 51 51 46 43 48 46 40 44 45 39 45 45 42 43 41 42 41 40 42 44 38 42 42 39 37 39 37 38 37 38 39 37 35 39 33 37 36 31 53 47 51 49 50 52 50 46 50 50 51 49 51 50 49 49 54 50 50 53 46 50 48 50 48 49 47 53 46 48 48 50 45 51 50 50 49 52 57 59 56 59 60 61 55 60 57 54 55 51 51 56 57 60 57 53 53 42 54 47 42 44 43 48 37 41 41 46 41 42 41 40 42 41 39 39 43 41 41 36 39 41 35 37 41 36 39 38 37 37 32 35 54 51 50 53 44 51 52 48 50 50 53 50 51 48 52 49 51 48 52 52 49 49 52 51 48 50 49 48 50 52 55 45 48 52 51 58 60 65 65 72 73 67 63 60 57 56 58 50 48 50 53 52 53 52 60 54 56 51 47 43 46 43 45 39 45 44 43 38 45 41 43 41 40 41 43 38 41 41 41 36 41 40 39 39 38 36 38 36 37 36 37 34 49 50 52 53 50 50 49 52 53 51 48 52 49 54 50 53 52 51 52 50 47 52 52 52 47 52 48 50 50 52 59 56 54 62 72 73 74 77 75 64 54 53 52 52 61 56 61 62 59 59 55 52 50 49 52 50 52 52 55 44 45 43 46 40 44 47 45 44 39 44 41 41 39 43 41 40 44 44 36 40 40 41 38 42 37 37 36 41 37 36 37 38 51 49 50 54 48 51 50 53 54 53 51 50 53 50 55 51 52 54 51 52 51 56 49 51 51 51 50 54 51 64 70 75 75 79 73 77 77 69 56 55 55 53 53 54 66 58 58 69 65 58 58 53 50 51 50 48 52 57 53 53 47 49 44 47 43 47 42 46 40 43 43 42 42 42 41 47 40 39 41 41 37 41 42 38 39 37 37 42 38 38 41 35 53 49 51 54 48 53 50 53 50 56 49 55 50 55 53 55 52 54 52 53 51 55 49 53 49 52 56 70 74 78 81 83 83 79 76 73 75 60 62 62 58 58 58 58 59 50 58 63 66 67 56 58 55 52 51 51 44 54 54 50 49 50 45 49 45 45 43 43 46 42 42 43 39 44 41 45 41 38 41 43 39 41 37 41 38 38 42 36 37 40 39 35 51 50 53 51 48 54 49 52 54 53 51 51 54 53 52 52 53 54 52 53 54 53 54 55 55 57 70 81 87 82 79 82 84 74 80 73 73 73 64 69 66 69 61 63 58 61 64 66 60 72 63 60 59 58 53 46 49 57 48 44 54 49 50 49 51 46 44 43 47 44 43 44 43 42 40 41 41 43 37 43 39 41 41 40 38 39 40 35 39 38 34 43 47 55 51 55 49 53 51 52 55 53 51 50 52 52 55 56 52 55 52 50 56 54 55 52 58 62 91 89 89 81 79 73 70 65 75 74 70 72 69 67 65 72 70 73 74 75 76 76 70 69 67 64 59 65 60 52 55 51 50 46 45 49 52 50 54 52 48 46 44 45 45 44 42 44 42 41 43 44 42 41 39 40 42 41 37 39 39 37 37 40 37 33 53 54 50 55 50 52 51 53 53 50 49 52 54 50 55 56 53 56 50 54 54 54 55 55 61 79 96 94 87 93 78 69 65 68 77 74 68 68 70 71 68 75 76 84 81 75 82 82 84 74 69 63 59 57 55 52 55 60 56 50 44 47 44 54 52 58 50 44 46 44 43 46 43 46 39 45 44 37 43 43 43 40 44 40 42 38 41 39 38 39 40 33 51 55 51 53 50 52 55 51 57 51 55 53 51 54 56 53 52 57 55 55 51 55 56 70 87 96 93 90 86 91 77 79 77 71 73 74 71 68 71 78 73 76 83 80 78 78 79 79 83 75 69 62 64 64 54 51 59 57 55 52 49 50 46 48 49 51 55 49 44 41 43 44 44 45 42 41 41 43 41 41 42 40 44 43 40 41 40 41 38 41 37 36 51 56 55 52 53 52 54 54 57 54 53 55 53 53 52 56 54 56 55 52 55 56 64 91 98 102 95 84 90 86 80 85 89 82 79 79 77 76 75 72 80 75 79 76 83 83 88 80 76 75 76 65 69 65 60 53 56 62 50 56 57 52 53 47 45 44 44 40 43 37 39 40 42 45 46 43 40 43 40 44 39 40 44 42 40 43 39 40 35 42 36 35 54 53 56 53 52 55 53 54 56 54 52 56 53 54 54 53 54 54 52 58 48 61 81 94 96 101 94 87 97 91 98 102 106 100 98 106 99 88 86 84 88 85 87 91 95 94 95 91 87 89 85 85 84 79 68 59 63 60 64 57 67 59 66 59 57 46 40 31 38 40 37 34 44 44 42 41 43 40 42 42 40 43 42 42 41 42 40 37 42 40 38 38 52 54 53 54 54 57 52 54 53 53 55 55 52 53 56 50 53 54 55 54 53 71 88 89 94 102 108 115 122 121 132 136 135 132 136 136 126 119 117 118 120 117 126 124 122 123 125 120 120 115 114 113 110 98 87 86 82 85 80 77 76 81 77 83 78 71 55 35 33 32 34 33 35 46 43 44 42 42 43 39 42 40 41 39 42 42 41 41 41 39 40 36 56 50 56 57 52 55 56 54 54 55 54 52 50 55 56 55 51 58 57 52 66 92 104 105 111 126 140 152 155 160 159 160 161 160 162 161 153 153 154 151 155 155 156 149 147 150 148 143 142 139 135 133 127 125 115 116 114 115 110 106 102 110 105 111 102 95 88 66 36 27 32 27 34 40 49 44 42 42 44 44 41 41 42 41 39 48 39 40 41 38 44 36 54 52 53 55 59 57 53 58 55 52 53 50 56 53 59 51 56 49 55 65 80 104 113 126 146 164 175 176 178 175 171 170 170 171 171 173 172 169 168 171 171 173 173 167 167 166 163 161 158 156 152 149 149 143 142 135 133 132 131 129 127 129 132 127 124 115 111 98 80 38 33 28 31 33 36 44 40 44 43 45 41 42 43 43 45 40 46 42 34 45 37 41 55 54 54 56 53 56 53 59 58 53 57 52 56 53 56 52 55 53 68 76 94 108 136 157 170 183 184 184 181 181 176 175 176 176 181 182 180 176 176 182 181 183 181 176 174 169 172 169 168 166 162 159 161 156 155 149 145 148 146 144 144 139 143 142 134 133 125 119 107 88 57 27 28 30 30 33 36 45 46 41 42 40 43 44 47 41 43 46 37 43 44 36 57 54 57 53 53 55 58 53 56 53 55 59 52 55 56 54 55 68 82 90 110 137 162 175 184 187 187 183 185 181 183 183 186 186 189 189 186 183 187 184 188 187 187 181 179 176 176 173 171 171 168 167 165 163 157 156 158 152 156 151 151 147 146 146 144 136 136 127 120 114 105 63 35 22 29 33 29 46 42 44 44 44 41 45 45 43 42 47 40 34 47 39 54 56 49 62 57 55 57 57 56 55 56 58 57 57 59 57 67 94 89 99 136 171 180 189 190 192 190 191 189 191 194 192 192 193 193 190 189 191 192 190 191 191 189 189 185 182 181 174 176 173 171 173 168 167 162 160 163 161 160 159 160 155 152 152 149 142 140 128 128 127 119 105 76 30 29 28 28 36 45 47 39 47 45 43 44 43 45 45 40 44 39 47 60 55 56 60 53 54 57 57 57 58 56 56 55 55 57 63 89 93 91 125 166 184 189 194 193 193 191 191 194 196 197 195 197 195 194 194 193 194 191 190 193 192 190 190 190 185 182 178 179 174 176 175 173 170 168 167 165 163 163 163 160 160 159 155 152 148 140 140 132 131 127 121 110 75 30 27 26 25 40 41 42 46 45 43 44 44 45 42 41 39 46 43 56 55 54 58 57 54 55 56 56 56 54 58 55 55 57 79 99 84 102 155 184 187 194 196 194 192 195 195 197 199 198 198 200 198 198 197 195 193 190 193 194 192 190 191 191 188 186 182 181 180 176 176 174 173 168 169 169 165 169 163 163 160 162 158 157 155 146 145 141 135 127 127 116 110 65 20 25 19 29 42 44 47 44 47 43 45 42 44 41 40 43 40 59 53 56 58 58 55 56 56 58 56 56 55 58 54 74 94 87 75 141 176 187 193 196 196 197 195 199 199 200 200 202 201 200 200 201 200 197 197 196 195 196 193 191 191 191 190 188 188 185 181 180 178 177 176 172 172 169 169 166 168 165 162 162 163 159 153 153 149 148 141 131 127 123 117 107 42 19 22 23 30 49 42 46 47 45 41 47 45 39 45 40 44 52 57 55 58 59 58 57 58 58 58 55 57 57 66 97 99 68 108 166 183 191 195 198 197 199 202 200 202 202 203 202 201 200 201 201 202 199 198 197 197 195 193 192 192 190 187 189 188 187 184 184 182 178 180 174 173 175 171 168 166 166 163 162 161 161 151 152 151 152 145 134 127 125 122 118 95 26 30 22 26 40 47 44 47 48 38 48 47 42 44 43 46 57 57 56 55 58 58 62 53 61 55 60 53 58 88 106 76 67 145 180 188 193 197 200 200 202 204 202 204 203 203 203 201 201 201 201 201 200 196 197 193 191 192 192 190 189 188 188 188 188 186 182 184 180 177 175 174 176 174 170 168 170 164 164 162 162 158 156 152 152 149 139 129 129 125 123 116 67 35 25 23 30 41 46 46 45 46 44 47 43 44 45 43 61 54 58 55 58 61 61 58 57 59 55 54 65 102 94 55 100 168 189 189 195 198 200 201 205 205 205 204 203 203 202 201 201 201 200 200 201 197 195 196 192 190 191 189 187 187 188 186 187 185 183 182 179 179 178 171 174 174 171 173 169 166 164 161 165 159 159 158 153 149 145 137 135 126 126 122 107 55 34 28 22 36 47 46 49 45 48 44 44 42 43 42 56 56 57 56 56 59 59 56 56 58 57 54 75 94 88 70 137 183 192 191 196 198 203 204 206 206 204 205 204 203 202 200 201 200 200 199 197 194 193 195 193 190 190 186 186 184 187 188 188 185 181 178 179 178 174 172 170 172 170 171 166 169 162 164 165 159 161 158 155 153 147 139 143 133 125 125 117 84 48 35 26 28 40 49 48 46 45 46 45 45 41 43 57 57 54 61 53 60 58 59 56 59 55 63 86 90 90 104 164 188 193 195 198 202 205 205 206 208 204 206 201 204 202 201 201 199 200 198 195 195 194 192 191 192 190 186 185 185 187 190 187 185 180 179 177 176 176 173 167 171 168 167 166 167 163 162 164 163 163 159 156 154 149 147 142 140 129 129 121 104 59 47 32 35 40 47 50 48 41 47 46 44 44 40 59 56 58 62 56 58 60 61 54 56 55 72 89 91 94 128 176 190 194 198 201 207 207 206 205 208 207 204 204 202 202 201 202 199 199 198 194 196 194 191 190 190 188 186 185 184 187 187 186 187 181 180 179 178 176 172 167 167 168 169 167 166 164 163 161 161 160 159 156 155 150 148 144 141 135 134 124 115 71 52 40 36 34 49 44 49 46 45 44 46 44 40 60 58 60 56 58 58 63 59 57 59 64 85 86 89 98 147 185 192 195 202 207 207 207 206 209 209 208 205 204 203 203 202 202 200 199 200 196 197 194 191 188 189 188 185 183 186 186 186 185 184 183 183 178 179 180 174 167 165 167 169 166 168 162 166 161 162 158 156 156 155 154 152 143 143 139 131 124 119 92 44 45 36 36 47 46 48 47 42 46 47 44 42 58 58 58 60 58 58 58 60 59 56 70 81 82 81 102 160 187 192 197 204 208 206 208 206 208 209 206 206 203 204 203 201 202 202 200 201 198 198 196 192 190 187 186 184 181 184 185 184 185 185 187 184 180 179 181 174 170 169 172 171 169 168 165 167 165 165 162 161 156 158 154 153 149 145 145 132 128 118 111 43 48 41 36 38 47 44 46 44 52 44 43 44 56 60 57 60 57 57 59 58 60 60 75 76 84 79 117 172 192 192 198 205 209 209 209 208 207 208 206 206 205 207 203 203 204 202 202 201 200 200 198 196 192 187 188 179 179 181 184 187 184 185 184 183 183 182 179 181 175 177 174 174 171 172 169 170 169 166 163 162 158 156 157 158 155 149 147 135 129 120 117 62 41 48 41 30 44 42 49 46 44 48 45 40 65 54 60 63 58 58 59 57 59 57 67 75 89 88 129 180 194 189 198 209 209 210 209 208 208 209 207 207 206 207 205 206 205 203 203 201 201 199 200 196 197 190 187 182 181 179 182 187 186 184 186 187 181 183 180 184 183 180 174 177 174 172 173 172 174 167 168 163 161 160 162 161 158 155 147 138 130 122 121 77 40 53 41 30 35 48 43 48 48 43 42 45 63 55 65 59 58 60 58 59 59 64 59 74 92 98 143 188 197 189 200 211 211 211 210 209 209 209 208 209 208 207 208 205 205 203 202 203 199 200 196 196 199 189 189 186 183 180 181 185 190 186 187 186 187 185 184 186 185 181 176 176 171 175 173 176 176 170 166 166 161 164 162 162 165 154 153 144 132 123 122 91 40 58 46 28 29 46 48 46 47 46 44 43 62 60 59 59 60 60 55 60 57 57 61 91 98 107 151 192 197 191 200 210 211 211 211 209 210 209 209 208 208 209 207 205 204 202 201 203 200 199 195 196 196 191 190 190 187 185 184 189 191 188 188 187 187 186 184 187 185 180 177 176 173 172 172 167 172 174 166 165 163 163 164 162 162 158 153 146 135 127 121 103 53 51 52 35 25 41 45 49 44 44 44 49 61 58 62 54 63 59 55 61 58 58 65 97 100 112 160 193 199 195 201 209 211 210 211 208 208 208 207 208 204 206 204 204 201 199 199 200 198 195 192 191 191 190 186 185 184 187 188 194 193 193 189 181 184 185 187 185 181 178 173 174 172 171 170 168 170 172 170 162 164 160 157 159 161 161 155 148 137 128 121 108 58 51 54 37 28 35 50 45 43 46 46 43 63 57 60 57 59 61 57 61 57 57 67 91 104 119 170 197 199 198 199 208 211 210 209 207 206 206 204 201 201 200 197 198 198 193 193 190 190 188 184 184 187 184 183 182 184 183 190 194 198 193 187 175 178 183 181 182 174 170 168 166 164 170 168 165 165 167 165 160 161 154 150 153 156 155 153 148 136 126 124 106 63 54 55 33 29 32 39 43 48 44 46 38 61 63 57 58 59 57 57 57 59 60 73 87 106 130 176 198 200 199 201 206 209 209 208 207 203 200 196 189 188 187 185 184 184 178 174 170 171 171 165 174 176 171 175 178 179 178 184 193 195 190 180 174 171 171 173 170 169 163 163 154 149 149 155 157 154 151 151 152 155 153 137 141 149 153 151 148 136 131 127 110 70 54 60 36 23 29 40 48 44 44 44 44 63 59 64 56 59 59 59 58 60 67 79 87 114 140 172 198 200 200 199 205 207 207 204 199 198 186 169 164 162 157 153 151 142 133 131 132 136 142 140 152 155 151 158 163 167 170 177 190 192 184 174 165 161 161 156 156 149 142 137 130 122 116 120 129 129 125 123 122 126 146 139 114 128 146 150 146 138 132 131 113 71 55 62 38 23 27 36 46 40 46 40 43 58 63 58 64 56 62 60 58 64 73 79 100 126 143 176 199 201 197 199 203 204 193 178 172 165 149 129 125 121 116 109 106 96 94 91 94 94 106 115 120 131 129 133 144 149 159 174 188 186 180 168 157 151 141 132 126 115 108 97 97 91 80 81 87 83 89 93 93 99 106 129 120 94 113 139 143 139 129 134 114 77 51 67 40 29 25 35 44 43 44 42 41 62 62 60 60 58 60 60 60 69 69 88 116 130 145 180 199 200 198 200 199 192 164 144 137 129 115 101 94 88 82 74 71 69 69 64 66 61 72 83 99 111 109 115 127 133 153 177 185 188 175 161 153 139 119 108 97 86 76 70 70 60 64 57 62 56 60 63 66 71 72 88 106 95 88 102 137 134 128 135 115 84 55 65 49 29 28 40 43 47 40 40 40 61 59 61 60 54 60 58 59 70 75 100 124 131 147 185 202 200 198 200 189 166 135 119 112 105 101 89 90 82 71 67 57 61 61 54 50 52 60 61 81 98 101 101 118 134 158 180 185 185 170 154 147 130 111 90 79 71 63 54 53 57 53 50 58 63 72 67 71 76 72 74 82 89 92 82 101 131 126 133 123 90 62 61 51 30 31 34 44 44 41 41 43 61 61 60 58 57 60 59 58 71 83 110 128 127 145 186 201 198 195 192 165 137 116 118 114 116 116 111 114 107 96 94 81 80 70 65 63 65 70 71 82 91 104 108 119 148 175 187 192 183 170 156 151 134 111 89 78 76 66 72 69 66 73 73 85 95 106 105 111 111 109 104 95 89 90 88 82 113 127 131 131 100 65 60 53 33 36 36 41 45 43 39 41 59 63 61 58 59 55 58 58 74 91 114 127 129 142 187 201 199 196 171 134 114 109 117 130 138 146 132 134 130 124 120 113 103 90 78 80 78 79 90 95 106 119 123 142 174 195 198 196 188 172 161 159 144 124 109 95 102 97 91 88 78 91 97 110 126 126 126 134 133 136 140 135 115 89 74 82 93 129 130 135 111 69 69 59 34 36 42 41 44 46 39 41 61 62 58 61 58 57 58 55 74 92 109 123 129 147 190 204 201 191 156 116 114 126 146 159 163 162 156 143 137 135 127 125 118 109 96 86 82 78 84 93 111 129 147 172 195 205 203 196 192 177 168 163 155 136 126 116 111 105 87 83 79 91 104 119 130 133 138 140 144 145 156 158 149 125 82 67 92 122 133 135 117 76 59 71 31 36 34 42 42 44 41 43 61 57 60 57 58 57 54 50 78 97 100 111 127 156 194 204 202 190 140 123 144 156 169 175 170 161 141 135 141 148 149 142 131 121 113 101 89 82 82 79 96 124 151 185 202 206 204 197 189 182 172 169 161 146 130 114 95 83 79 84 94 105 115 122 132 136 135 136 131 140 158 166 158 148 111 75 83 117 131 134 124 83 58 69 38 38 32 43 41 40 43 45 63 58 60 57 56 54 58 46 77 94 93 107 121 164 197 204 203 187 157 149 162 170 173 174 159 142 159 174 178 171 158 142 129 119 113 109 103 98 95 89 85 109 150 181 202 206 203 196 191 178 172 166 165 147 121 93 86 91 92 95 102 113 116 119 126 137 137 140 138 132 134 164 155 149 133 96 92 111 131 132 130 89 57 56 47 39 37 40 45 43 41 47 61 61 58 61 58 54 53 56 72 81 82 101 129 171 198 202 200 183 170 171 173 174 171 160 140 178 198 196 175 142 106 117 99 85 94 100 109 110 108 106 99 99 139 177 195 201 201 192 187 179 169 164 160 149 114 94 101 97 101 102 103 100 94 97 97 110 124 135 138 139 138 139 146 143 142 122 106 110 129 130 131 104 58 50 49 42 41 42 45 40 41 47 62 60 64 53 58 51 53 58 66 64 80 98 127 175 200 202 199 187 184 181 174 172 165 135 169 191 193 160 119 91 77 71 70 65 88 112 99 95 108 130 125 108 137 173 187 200 198 187 181 172 170 163 160 146 117 117 117 109 99 89 96 73 67 65 57 54 82 102 118 136 140 128 132 138 140 138 122 117 124 127 132 107 56 49 47 46 40 39 45 43 37 41 60 60 59 53 55 56 55 53 60 65 76 89 124 177 200 201 197 192 188 185 177 172 148 152 171 170 140 113 91 64 52 46 58 76 105 128 119 103 89 100 136 132 145 175 189 198 198 183 176 168 166 166 163 146 130 129 124 101 78 102 117 86 66 61 35 47 66 151 101 95 129 128 122 137 142 146 141 122 121 124 133 116 57 45 40 48 41 49 40 41 43 44 61 57 53 57 55 57 54 53 61 63 75 87 115 173 199 199 195 196 197 193 186 175 168 165 151 122 112 117 106 64 60 67 90 96 114 127 126 116 116 121 137 151 166 182 189 196 198 187 175 168 165 162 159 144 136 139 123 111 120 104 124 111 74 78 59 54 72 110 130 88 83 113 124 136 149 159 155 136 123 125 131 113 64 40 44 43 46 41 44 42 48 41 59 61 57 58 60 54 53 53 59 64 69 85 107 163 196 199 195 201 202 202 198 195 188 164 134 124 140 142 132 115 109 119 124 121 119 124 122 122 130 133 144 167 181 188 189 194 197 186 174 167 164 162 155 140 143 138 136 127 123 116 122 116 117 110 99 86 97 120 128 111 84 89 116 143 158 171 161 143 130 127 132 114 55 37 40 41 47 44 43 45 41 45 58 59 60 55 60 54 54 55 54 63 67 81 102 148 191 196 198 202 207 207 205 203 194 170 155 149 155 153 143 132 123 119 118 118 115 121 121 122 131 135 152 186 197 191 190 193 193 186 177 171 166 158 154 138 144 145 134 128 126 111 114 115 110 108 112 108 113 120 126 126 111 94 120 139 163 178 171 148 136 126 130 103 52 40 32 47 44 43 46 43 43 45 53 57 59 57 57 53 57 55 58 59 77 75 94 129 184 197 201 206 209 210 209 207 201 191 172 169 170 163 153 135 128 122 115 122 121 113 122 129 137 151 177 198 202 194 189 196 195 190 181 174 169 163 150 143 140 155 144 130 129 122 109 115 115 113 117 114 123 123 138 141 127 119 126 147 162 175 174 151 141 130 127 96 46 39 33 49 44 44 43 41 45 43 57 58 63 52 55 56 56 54 52 54 70 80 79 107 178 200 201 208 211 212 211 210 209 205 189 184 177 165 148 133 126 116 115 119 123 129 141 151 163 181 196 202 202 195 192 197 197 191 187 178 170 163 156 145 142 156 159 149 139 134 131 116 113 119 120 123 125 132 142 149 137 132 139 152 162 172 175 158 149 137 130 87 42 38 34 41 48 44 44 42 47 42 59 57 59 54 57 56 55 53 55 51 65 83 77 101 178 201 205 210 211 212 211 210 209 204 202 194 185 169 157 145 139 138 139 149 153 163 172 176 187 199 203 204 202 195 193 196 193 189 184 179 170 161 154 147 141 155 162 162 157 150 142 144 132 125 127 127 129 135 141 146 143 144 148 154 157 165 172 162 154 143 135 87 27 36 33 40 47 45 43 46 43 44 59 57 55 58 58 57 54 54 52 52 54 75 75 99 179 201 205 210 211 212 211 209 208 204 203 202 197 191 185 178 176 174 175 180 180 187 192 195 202 207 207 207 204 194 192 194 190 182 180 179 171 162 154 149 141 155 163 166 165 163 160 150 149 147 144 142 141 146 147 150 149 146 149 156 157 163 167 165 156 144 139 88 29 39 34 43 47 49 41 45 45 44 58 55 55 55 55 57 55 53 53 53 50 64 63 100 176 199 206 210 210 212 210 208 208 204 205 205 200 195 195 192 191 187 191 193 194 197 202 204 208 208 209 207 203 193 190 194 189 180 177 174 172 160 157 148 143 149 165 165 166 169 173 164 160 160 157 153 150 155 154 154 153 151 152 161 159 162 164 162 158 147 139 98 25 39 36 50 52 51 38 42 46 43 56 57 55 53 59 54 52 54 87 97 76 54 48 106 180 199 206 210 209 210 209 209 207 206 204 205 202 199 196 198 194 195 197 198 200 201 202 204 209 209 209 207 202 191 193 196 191 184 180 172 166 163 155 149 144 149 163 168 166 169 176 171 169 168 164 160 159 159 157 160 161 159 159 162 162 165 161 164 162 151 138 109 18 34 40 67 90 75 38 42 43 45 59 59 52 56 54 55 45 102 146 156 128 72 42 123 183 199 205 210 209 210 210 209 207 206 206 204 201 201 198 198 198 201 201 201 201 201 202 204 208 210 208 205 199 192 196 206 198 188 184 180 169 164 159 152 146 144 164 169 170 170 172 177 175 173 169 170 166 167 162 168 167 168 165 164 166 164 163 164 163 153 138 120 23 36 68 107 103 114 51 42 42 46 57 58 52 55 51 56 47 125 126 131 163 116 55 140 188 198 203 209 211 210 210 209 208 205 205 204 203 202 201 200 200 201 202 199 201 200 200 202 209 210 205 200 198 193 195 203 206 187 179 179 175 168 162 161 151 141 156 172 172 166 169 173 176 170 175 174 173 170 170 170 171 171 165 165 163 166 163 164 165 154 134 126 25 65 115 117 73 97 72 38 46 45 54 56 54 57 53 52 53 122 112 107 154 148 81 148 189 197 205 208 210 210 210 209 210 207 204 203 204 203 202 200 202 199 199 198 196 198 198 202 207 209 204 197 194 189 187 193 196 180 167 162 163 163 166 170 150 144 150 171 175 171 169 172 171 171 173 180 177 172 167 170 171 173 170 167 167 169 168 166 164 158 136 126 28 102 134 102 53 105 62 43 45 49 57 59 56 54 58 49 55 119 110 88 125 140 98 159 190 196 203 209 210 210 210 211 211 207 206 203 205 203 202 200 198 198 196 196 196 194 197 200 205 206 201 196 190 179 175 182 180 165 151 147 149 151 160 159 142 137 149 161 171 175 169 174 168 170 178 184 179 180 173 174 171 174 171 169 169 173 176 167 168 155 137 118 43 123 131 75 66 112 54 41 44 44 52 61 52 53 57 52 48 112 116 81 109 134 108 169 191 196 203 208 209 210 211 212 210 209 205 203 204 202 201 199 190 194 193 194 194 193 195 196 198 203 199 192 173 148 134 147 160 148 132 128 131 140 143 140 127 130 144 156 168 170 173 171 174 175 178 182 180 183 182 176 175 177 176 170 171 174 175 170 167 155 134 113 55 130 124 62 83 114 45 39 47 41 58 52 57 50 57 51 44 103 128 87 102 137 123 172 190 196 203 207 207 210 211 211 211 208 204 203 202 203 196 196 191 192 191 192 190 190 193 194 197 198 196 180 143 105 85 95 124 138 119 112 114 129 125 106 86 96 123 152 160 172 178 172 174 179 177 182 178 183 182 181 179 177 175 175 173 174 171 165 165 154 131 114 62 136 112 61 100 112 31 41 49 45 57 57 52 55 53 54 40 98 138 95 107 152 132 171 189 191 203 205 207 209 211 210 211 209 205 203 200 198 197 195 189 186 189 187 185 188 190 192 191 195 192 162 116 75 42 64 101 131 111 100 105 118 107 77 49 64 106 136 159 169 177 177 175 175 180 177 178 179 181 181 177 180 177 174 178 176 170 163 165 154 131 110 66 152 102 67 120 91 33 48 46 44 55 56 50 55 52 55 43 87 141 104 111 152 133 169 188 193 199 203 205 209 211 211 211 208 205 202 198 195 197 190 188 180 182 178 180 182 189 192 189 186 181 148 104 66 30 68 121 138 116 90 101 112 106 67 48 63 99 132 155 167 175 175 171 172 179 178 180 182 176 177 176 175 181 176 180 178 168 164 156 151 132 107 64 145 111 73 126 79 29 44 48 44 55 54 54 53 54 53 42 72 145 112 119 156 132 167 188 191 195 200 205 207 209 210 210 208 206 199 195 195 193 187 182 178 175 178 177 181 188 191 188 180 171 151 106 72 67 116 144 143 118 91 100 112 114 99 83 88 108 128 151 162 172 174 174 174 172 177 181 179 171 172 173 171 177 177 182 181 169 161 154 147 129 101 60 143 118 85 126 51 36 49 43 43 57 55 53 56 53 48 43 62 142 125 125 169 137 169 188 187 194 199 202 207 208 210 209 207 203 196 192 191 187 180 177 173 170 173 176 182 191 193 191 177 171 159 125 98 122 154 158 140 108 90 97 112 123 125 115 106 109 121 140 160 172 172 178 172 173 174 176 177 171 172 171 167 171 180 183 180 172 156 152 144 127 95 61 149 135 102 109 35 41 48 40 46 57 58 53 54 52 53 45 56 127 130 148 166 130 166 186 186 194 198 202 205 207 205 207 204 201 193 190 184 176 172 167 165 168 165 174 189 195 198 193 184 171 161 145 142 159 170 156 127 102 86 96 116 127 133 125 113 111 117 135 153 165 174 172 173 167 171 168 169 169 167 169 168 171 179 182 181 174 158 147 140 126 85 56 140 149 118 70 34 42 44 46 45 53 55 54 55 51 57 46 47 101 144 161 163 120 161 184 188 194 198 201 202 201 204 205 202 198 189 185 179 170 163 159 153 155 161 180 193 200 202 199 190 184 180 175 175 178 175 147 119 102 93 102 113 130 134 131 125 125 129 136 148 161 170 173 171 168 169 164 164 163 161 167 166 170 173 179 181 171 156 147 138 127 77 60 130 154 117 36 41 45 40 40 44 55 54 58 49 52 55 52 46 70 143 173 164 112 156 182 186 193 195 199 198 197 200 202 198 193 183 178 170 161 152 150 143 150 170 188 198 202 201 200 194 190 188 191 187 181 169 140 115 107 102 107 119 129 131 132 131 134 133 137 146 155 161 170 173 167 165 161 158 157 154 161 165 166 172 180 176 170 154 147 136 121 65 69 125 156 98 30 41 43 44 43 44 56 54 54 49 55 52 52 47 48 127 182 174 116 148 177 187 190 193 194 195 195 197 197 194 189 180 172 162 150 142 140 140 159 184 196 198 200 198 196 193 191 190 188 187 176 161 138 116 111 110 110 125 130 130 132 136 137 136 140 142 149 155 162 167 163 163 160 152 154 151 154 162 165 171 174 173 164 153 144 133 116 56 80 121 151 83 30 39 46 40 44 44 55 54 50 54 55 48 52 52 36 107 181 183 125 135 172 185 188 189 191 192 190 193 191 189 185 174 163 150 138 133 136 154 174 191 196 195 195 195 192 190 188 188 185 180 170 154 134 123 116 119 116 127 131 130 136 134 141 138 141 140 145 154 154 160 160 154 153 152 148 146 147 155 165 167 169 165 159 148 143 133 108 58 91 119 148 71 26 42 39 43 45 40 51 53 53 53 52 52 47 51 38 85 171 184 138 132 168 180 183 185 188 188 187 185 183 186 177 169 158 142 130 128 148 167 183 190 193 193 192 192 190 185 186 181 181 173 163 148 134 125 125 120 121 128 133 132 135 140 139 138 140 139 146 150 152 150 156 152 148 146 144 142 143 147 161 166 166 159 156 146 140 129 104 68 91 119 141 60 34 40 43 42 38 46 51 53 54 52 50 54 46 53 41 62 156 186 156 141 165 178 179 183 182 183 183 180 179 180 173 166 150 132 124 138 163 178 182 188 191 190 190 189 184 183 182 178 174 168 155 144 136 127 128 126 120 129 129 133 134 141 137 142 140 140 147 149 151 149 151 150 147 145 144 139 137 145 156 160 160 154 152 145 137 126 100 89 102 126 134 48 35 39 41 43 41 43 50 54 49 52 51 48 50 54 46 49 141 179 173 164 166 175 177 180 178 180 181 176 178 174 175 159 140 121 125 150 173 177 181 186 188 187 187 184 180 177 179 174 172 165 158 145 140 130 136 134 126 131 135 134 138 138 142 144 144 143 149 150 146 149 147 146 146 143 142 141 133 142 152 160 158 150 147 143 136 122 107 102 121 127 119 46 38 38 40 44 40 40 53 50 52 49 51 49 50 54 48 44 119 170 173 172 168 174 173 172 173 177 180 177 175 173 170 159 133 114 126 157 169 171 170 181 182 181 180 180 175 175 174 172 171 169 162 156 146 145 151 144 140 140 144 144 145 142 147 145 148 145 146 146 144 144 144 143 138 140 139 140 132 141 150 160 155 149 142 141 134 118 115 118 116 123 111 37 37 38 44 38 43 41 53 51 51 50 51 49 53 54 51 43 90 157 176 173 167 169 170 165 171 175 174 173 169 172 166 154 132 114 126 150 152 151 155 169 171 173 174 172 172 174 173 172 167 164 157 153 149 152 154 150 147 146 145 142 147 144 149 148 148 147 145 147 145 140 138 136 127 132 130 134 135 140 148 155 157 147 139 138 131 118 116 112 121 121 83 31 38 41 37 39 41 39 49 51 50 55 47 50 52 51 52 40 70 141 179 183 177 168 163 163 167 172 169 163 168 174 166 153 135 118 127 131 125 122 133 151 161 165 168 166 167 164 160 153 148 139 135 129 131 134 138 134 130 128 125 126 130 134 140 144 146 145 146 148 145 140 128 120 114 109 122 131 135 141 148 149 153 146 135 134 124 117 115 114 119 103 55 29 38 41 36 43 38 42 51 57 48 52 50 51 50 54 51 49 45 117 175 188 186 170 165 164 166 167 165 160 166 174 168 155 137 128 124 115 104 96 102 129 145 154 155 153 148 135 131 126 121 117 112 107 108 110 108 106 106 104 105 104 107 112 119 121 126 133 134 144 139 133 115 102 91 97 113 125 136 145 150 149 148 144 132 132 122 120 121 119 110 62 37 36 39 37 39 38 43 40 50 47 54 50 49 50 53 51 54 48 41 93 157 183 186 172 163 166 164 167 158 160 165 170 166 159 143 134 125 116 104 89 98 108 123 129 126 126 109 111 103 104 104 101 96 93 88 85 87 86 86 86 88 90 89 93 96 100 100 103 113 121 121 110 102 106 106 102 109 124 138 149 153 146 144 137 129 131 120 122 129 119 81 44 33 40 34 40 38 38 41 38 50 50 48 49 48 51 52 52 56 50 44 65 128 165 166 163 163 167 166 163 163 162 166 172 163 159 148 140 135 126 111 116 122 125 121 106 102 102 94 95 94 94 89 85 82 79 73 74 73 72 73 75 76 79 83 80 84 84 84 91 93 92 98 102 116 126 123 114 114 128 139 150 149 146 140 131 128 128 121 110 111 92 42 33 37 35 41 36 41 41 40 41 50 51 50 48 48 51 51 49 48 51 48 48 84 116 121 134 161 168 167 164 162 161 164 168 166 161 155 145 142 133 130 137 152 160 155 135 119 115 120 120 120 120 109 103 96 96 91 90 88 87 86 86 87 92 90 92 92 95 96 95 101 95 111 122 140 137 135 119 119 134 142 146 143 142 134 129 127 129 118 70 62 52 31 36 38 32 36 42 33 43 38 41 50 48 53 48 47 50 49 51 48 52 48 43 52 75 75 104 152 168 165 164 161 159 161 166 165 160 160 150 145 137 141 150 172 180 181 176 160 151 157 154 167 155 142 134 128 130 126 124 123 120 122 120 113 110 112 112 112 111 109 114 116 124 130 147 147 144 142 128 124 139 147 143 143 136 132 129 127 131 110 33 38 34 33 35 34 35 36 35 39 38 39 39 52 47 54 45 49 49 50 49 50 51 49 47 47 53 42 80 141 164 166 164 159 158 161 165 164 161 159 154 151 144 148 159 181 187 192 191 185 177 172 168 176 172 160 150 144 146 142 139 138 138 133 134 126 119 115 123 128 126 126 131 134 140 151 154 151 145 143 137 128 140 148 143 140 133 131 131 127 129 89 23 34 33 34 37 32 35 37 35 36 38 38 40 54 46 52 46 51 47 50 45 55 43 49 48 48 51 40 55 130 160 164 164 156 157 158 161 164 159 160 159 152 148 152 166 179 189 196 195 193 184 178 172 170 162 153 146 134 132 130 128 127 127 126 120 119 112 118 126 134 135 138 144 149 150 156 155 146 147 141 135 133 137 145 139 137 132 127 131 129 121 60 24 29 36 33 33 35 38 35 38 35 38 38 39 50 50 48 48 50 46 48 52 47 46 48 45 51 48 44 42 113 153 160 161 159 154 158 157 161 158 161 161 153 154 158 168 178 187 193 193 195 189 187 176 170 162 155 143 132 125 117 114 111 115 114 111 110 116 121 127 135 142 144 150 152 153 152 150 148 142 139 134 132 136 141 138 134 128 130 129 127 111 40 26 32 35 29 35 32 38 36 38 37 38 35 41 48 51 46 48 50 42 48 52 46 49 47 46 47 47 46 42 88 143 156 157 158 154 155 156 157 162 160 162 155 156 160 166 176 183 186 186 191 187 189 179 173 162 156 147 132 120 111 102 100 101 105 107 109 115 123 132 136 141 147 150 151 149 147 147 145 141 139 135 131 135 138 134 133 125 127 129 124 92 20 31 31 30 34 33 32 36 38 35 38 36 36 43 46 47 46 49 47 45 51 50 48 46 45 45 45 47 46 39 67 133 152 152 151 152 153 153 154 157 159 157 155 157 159 166 176 180 179 181 184 184 184 179 170 165 158 146 135 120 112 102 93 91 98 99 108 115 125 127 135 141 144 145 147 143 143 142 144 140 140 136 134 136 136 131 130 124 128 127 120 64 19 29 32 32 34 32 34 36 31 35 37 37 40 36 46 50 48 45 46 48 47 50 46 50 44 48 44 44 46 41 49 113 145 147 146 150 150 151 151 154 155 154 155 155 158 165 170 172 173 176 178 177 176 169 162 158 151 138 127 117 109 101 94 91 96 98 106 110 118 124 130 133 136 139 140 138 139 141 140 142 139 138 137 137 135 128 126 123 126 123 108 36 25 29 30 31 31 35 32 36 34 36 36 36 38 38 50 44 50 46 46 50 48 53 48 47 47 49 46 46 47 42 40 86 135 144 145 146 146 149 149 150 147 151 153 158 156 162 164 166 165 167 173 167 167 162 157 150 138 128 116 114 109 103 96 101 102 102 107 109 114 117 123 129 134 134 134 135 141 138 137 142 140 142 141 137 133 127 124 122 124 120 82 22 28 31 30 30 32 32 32 36 36 37 36 36 39 36 48 46 51 45 47 47 51 49 46 48 48 47 48 45 46 44 39 60 117 139 145 140 141 144 146 146 142 150 150 158 154 156 162 160 157 162 167 162 163 154 148 141 130 116 108 107 108 108 103 104 107 107 109 111 113 115 124 128 133 132 133 136 138 139 134 140 139 145 138 131 129 127 123 121 122 112 50 22 30 31 28 30 30 35 34 33 34 36 38 37 33 40 44 49 50 48 47 45 48 51 46 44 47 44 46 47 45 47 40 45 92 131 141 137 136 141 141 142 139 146 147 156 154 156 161 158 160 156 163 156 154 149 142 134 125 108 106 105 105 106 106 109 108 110 112 115 116 119 123 134 132 128 133 135 136 137 136 140 141 142 135 132 127 125 123 119 115 98 29 26 29 30 29 30 30 30 35 34 31 37 35 38 35 38 46 53 47 45 46 49 44 49 46 45 47 43 46 46 48 42 43 39 66 116 135 134 136 136 138 140 137 140 148 152 154 156 152 156 153 153 156 148 146 143 137 132 123 115 107 110 107 108 110 113 112 115 114 116 117 120 129 134 133 132 133 133 137 134 135 139 137 142 133 131 129 125 121 114 109 97 20 27 33 27 28 30 31 34 31 37 30 37 37 37 36 36 48 47 47 47 43 47 44 44 48 41 48 44 42 45 46 43 44 46 45 91 125 131 132 136 137 140 136 137 147 151 155 155 155 153 149 153 153 147 143 144 139 135 128 125 120 119 120 115 120 122 119 121 121 124 126 129 132 136 133 132 138 132 135 133 137 135 135 136 127 130 129 127 117 110 107 101 24 24 32 26 30 34 33 30 34 32 31 38 36 35 33 37 49 49 44 45 43 43 45 43 49 44 46 44 43 48 43 43 42 45 41 62 118 130 130 131 137 137 137 140 143 155 151 154 154 151 145 148 152 146 149 149 146 142 143 139 139 137 137 135 135 130 131 127 129 134 135 135 138 138 136 138 137 136 133 132 137 137 132 132 121 130 130 125 114 107 104 107 27 26 31 30 28 31 37 29 34 36 31 36 33 36 38 40 48 45 45 48 43 41 45 44 48 45 47 42 45 43 37 46 43 48 39 49 121 133 129 130 131 135 136 142 145 149 148 151 149 149 143 146 151 147 153 155 151 154 152 154 156 153 151 148 144 140 135 136 139 137 139 140 136 137 135 140 142 135 133 136 138 135 130 125 118 127 129 120 110 103 107 106 31 27 28 30 30 31 34 30 35 31 35 35 34 37 35 35 47 48 44 48 39 44 46 44 48 44 46 46 40 46 42 42 44 48 41 49 124 141 126 128 129 135 136 142 144 144 145 146 150 146 143 149 151 150 151 158 157 160 161 161 162 156 156 151 151 146 142 141 142 141 142 144 138 130 138 141 141 135 134 135 134 130 130 122 119 128 122 116 106 105 111 112 41 21 30 31 35 30 32 32 34 37 32 34 36 38 35 39 48 47 46 44 43 45 45 45 48 46 45 43 41 48 40 44 42 46 43 44 130 151 128 121 129 129 135 137 142 140 145 144 146 147 147 150 149 149 151 155 156 161 164 162 159 155 151 149 150 146 145 143 143 141 145 144 139 131 138 141 137 136 134 135 132 127 125 120 125 123 118 108 106 106 114 117 46 22 30 27 33 30 34 31 35 33 31 32 40 34 37 34 49 44 48 44 45 45 40 47 47 46 43 45 42 46 45 45 45 47 42 44 128 157 138 117 122 127 134 134 138 137 145 141 142 144 148 149 152 146 149 151 157 157 161 154 152 150 149 145 147 145 144 140 142 140 142 141 138 136 138 133 134 139 137 136 130 125 122 122 125 117 112 106 106 112 114 121 59 19 33 28 31 32 34 33 34 35 33 36 34 38 36 38 50 44 43 45 41 43 41 48 44 44 45 44 43 44 44 44 44 47 41 42 127 159 147 126 115 121 128 131 132 139 138 141 139 145 145 147 151 147 147 147 148 151 153 146 146 146 143 142 144 143 140 137 139 139 137 138 138 136 131 130 130 138 137 131 128 123 123 120 120 114 103 103 108 112 117 119 67 14 33 27 31 33 30 36 35 32 37 32 34 35 34 40 48 49 42 43 43 43 44 46 45 44 41 44 46 44 41 43 48 50 38 39 122 159 152 135 116 116 117 124 127 135 134 136 134 140 142 144 147 148 143 144 146 145 145 141 141 143 134 136 135 137 135 133 134 134 130 139 130 134 129 129 128 136 133 131 125 122 116 115 115 108 103 105 114 116 122 119 80 16 30 33 30 31 34 34 37 35 36 34 37 34 34 40 47 44 48 43 42 43 47 41 44 43 44 43 45 43 45 45 47 48 38 38 119 154 153 143 128 111 111 117 121 125 133 132 130 136 135 138 144 140 139 137 141 138 138 134 136 135 129 125 124 125 126 127 127 127 122 129 130 128 126 123 125 130 129 124 122 116 112 112 112 104 101 110 116 121 123 121 89 18 30 30 32 30 35 36 35 34 37 34 33 37 35 37 46 47 43 43 45 42 44 44 41 41 48 41 43 43 44 43 47 45 42 39 112 152 153 148 135 119 109 112 113 118 122 127 131 125 130 130 137 134 134 133 133 132 130 126 126 123 117 114 109 112 113 119 118 117 116 119 123 122 123 123 120 126 124 117 113 112 108 107 106 104 106 113 121 123 125 120 98 20 28 34 30 31 35 34 34 34 35 34 34 39 31 36 47 43 41 46 43 43 45 41 44 38 43 43 43 43 43 45 44 44 40 33 110 148 153 151 141 130 118 110 106 109 116 117 122 125 122 123 127 130 129 127 126 121 119 112 111 107 103 99 103 101 104 106 110 107 107 114 115 118 114 119 120 121 117 111 109 105 105 104 104 103 110 120 124 126 124 121 104 24 26 31 30 33 35 30 35 32 31 38 35 33 34 37 49 41 41 43 43 45 43 41 39 43 41 44 41 44 41 44 46 42 42 33 106 148 150 151 145 137 130 113 106 103 107 110 113 118 115 116 123 121 120 119 118 112 109 100 95 91 90 90 92 93 95 98 99 98 102 105 109 111 112 114 112 118 114 102 103 104 104 99 104 105 116 120 120 125 127 121 108 29 24 30 30 34 32 36 32 33 34 35 33 34 34 34 45 43 42 42 40 42 42 40 42 40 42 40 42 41 42 42 45 47 39 31 107 148 149 151 147 142 135 124 114 102 99 103 105 108 109 109 109 112 109 110 108 106 98 93 86 79 81 78 79 83 85 90 85 91 89 98 104 102 106 108 108 111 103 95 99 102 102 100 107 108 120 122 121 124 126 121 112 31 25 33 29 35 34 32 33 32 37 32 33 34 35 35 44 44 42 40 40 43 41 38 41 43 41 39 40 40 43 40 45 47 39 34 104 146 153 152 150 142 140 130 120 107 98 96 97 99 105 99 99 97 99 99 98 94 88 82 79 72 69 70 69 75 73 78 78 79 85 90 93 97 98 102 100 100 97 92 98 103 101 100 108 113 123 125 123 124 126 117 115 41 25 33 32 36 34 32 36 33 34 32 36 35 35 36 45 43 38 42 37 44 37 41 38 42 38 43 37 37 44 42 45 43 37 34 102 145 155 154 151 144 141 135 125 111 103 96 93 94 92 92 90 84 92 85 84 81 78 74 68 68 64 62 62 63 62 69 70 70 74 80 81 88 87 95 90 92 95 94 99 102 102 102 105 114 120 129 125 124 123 122 116 52 22 34 34 32 33 32 34 34 33 32 39 32 33 36 45 42 41 39 41 43 41 43 41 45 44 39 38 41 40 41 45 43 36 31 105 146 154 154 152 149 143 136 129 116 112 102 95 89 86 85 84 79 78 74 73 71 68 66 61 62 62 57 55 59 57 59 61 65 67 74 73 81 82 86 88 93 95 97 97 104 101 104 111 121 119 131 128 123 127 123 115 61 22 35 33 32 34 31 32 34 32 32 35 32 31 35 42 41 43 40 41 40 45 38 40 41 38 41 40 40 38 41 47 44 34 29 105 145 153 153 153 149 146 139 130 125 117 112 99 95 82 82 76 73 73 69 66 66 62 58 60 57 62 55 56 55 55 57 58 62 64 69 67 78 81 85 87 95 96 100 97 101 106 110 120 121 124 134 129 125 126 124 121 65 24 32 35 34 34 32 32 34 34 30 35 32 35 31 46 36 45 36 43 45 39 41 40 40 39 38 40 41 39 43 44 42 36 30 108 145 155 151 152 151 146 143 134 126 125 117 108 99 89 85 74 74 71 66 66 65 61 58 58 60 58 55 58 56 57 57 59 63 65 68 70 77 79 93 87 94 99 99 103 105 109 116 121 128 126 133 130 126 125 122 119 76 29 29 35 33 32 34 37 28 35 36 36 29 35 32 41 43 37 42 41 38 42 39 41 40 36 41 38 36 40 43 43 38 37 29 116 145 155 151 154 150 147 142 138 133 129 124 119 109 102 89 81 78 67 66 64 68 59 63 60 60 60 56 60 56 57 59 60 66 61 71 71 81 82 84 95 92 100 105 102 109 112 116 122 126 129 129 132 128 125 123 119 87 22 33 38 31 34 33 36 32 33 37 31 34 30 32 