P2
92
112
255
115 112 113 114 111 110 119 117 106 114 109 102 92 81 77 76 87 91 104 106 110 106 110 121 112 112 107 118 85 88 146 129 91 86 86 104 93 77 92 85 74 67 58 53 82 70 56 79 126 98 86 81 99 84 96 99 90 92 99 85 82 88 95 103 102 96 106 106 100 103 103 92 81 80 85 90 82 90 83 93 77 81 96 101 108 103 98 98 102 97 98 93 117 109 115 112 107 118 115 112 113 118 115 111 114 96 96 98 90 88 105 99 104 119 117 113 99 99 95 97 84 92 102 142 105 64 63 64 64 74 69 77 56 54 57 47 44 58 80 85 96 103 92 115 104 91 96 105 108 111 93 77 78 86 94 104 104 105 111 122 106 106 106 92 83 83 97 88 78 85 75 93 95 92 95 106 105 107 106 98 96 96 103 99 114 112 115 105 110 111 118 113 113 122 118 117 111 102 103 103 82 82 87 106 112 103 118 93 89 88 86 97 89 117 160 112 104 38 5 19 26 33 36 53 52 51 70 57 35 62 61 67 108 122 132 113 90 83 90 91 127 116 101 101 92 87 96 84 91 99 97 114 109 106 106 105 85 81 90 81 75 78 73 80 90 97 96 100 102 105 108 101 100 99 97 106 116 116 115 107 114 107 126 117 114 115 99 107 108 93 94 103 88 80 77 116 131 117 114 117 109 99 96 91 103 69 90 98 47 17 28 34 46 38 30 49 45 53 47 64 53 72 62 86 91 96 84 77 92 102 84 82 124 151 142 121 98 94 90 77 98 91 100 103 112 105 109 105 88 79 87 77 79 76 84 71 77 82 83 93 100 105 110 113 106 102 97 99 115 116 111 110 118 111 118 117 105 104 115 102 93 81 87 99 95 77 99 123 144 120 98 110 113 105 99 80 72 50 58 50 30 36 46 52 56 63 64 50 44 39 36 66 56 60 58 63 67 79 73 75 94 100 75 86 121 160 136 110 103 90 79 94 83 84 117 88 101 139 105 111 85 83 77 88 82 92 92 93 73 86 83 89 107 100 111 116 106 104 99 99 114 115 114 110 117 119 116 107 105 99 115 95 91 90 88 103 110 86 89 119 143 130 118 110 102 72 67 66 54 38 40 26 35 27 53 55 59 64 68 72 67 56 37 73 105 80 77 88 85 88 92 78 100 102 80 91 123 164 127 119 105 112 82 92 92 72 92 70 83 136 118 116 107 89 81 100 95 104 93 97 103 90 94 95 100 110 108 109 104 104 96 101 118 113 113 120 128 124 117 112 102 107 102 98 93 105 104 106 122 120 99 94 123 140 130 116 99 76 51 42 54 58 52 39 48 43 47 56 66 61 63 66 67 71 68 85 78 96 102 130 106 92 107 84 104 100 98 120 154 140 130 127 120 122 101 81 90 91 81 76 78 103 121 127 129 100 98 110 97 101 108 122 107 101 91 96 102 102 107 104 109 101 95 104 116 109 111 103 116 129 117 116 113 118 90 94 110 133 143 132 131 132 108 104 125 140 112 91 68 48 47 35 60 67 51 40 50 63 59 63 66 76 69 75 67 68 65 80 73 84 129 140 116 104 93 111 127 104 120 144 145 114 127 139 154 137 120 79 69 66 47 58 88 91 107 121 105 98 118 92 97 100 99 144 118 92 105 94 93 93 105 107 106 110 100 103 115 117 108 114 128 116 110 122 123 118 94 102 114 133 135 148 124 127 139 152 115 124 97 80 70 60 51 41 46 55 50 53 55 51 59 67 69 65 66 77 65 73 67 73 73 82 111 101 130 95 101 130 132 143 114 113 107 107 136 142 132 146 139 93 80 80 70 53 81 76 105 112 92 100 115 80 81 88 102 149 103 96 95 93 92 93 85 106 100 107 99 103 107 124 112 109 124 113 129 110 104 86 88 110 134 138 144 145 149 157 140 119 105 106 94 71 73 73 58 64 42 53 52 61 58 49 61 57 61 60 59 87 71 78 90 90 83 102 113 117 111 113 121 161 165 150 124 112 98 97 122 112 133 132 137 116 121 79 73 77 92 91 93 92 97 92 75 80 73 90 132 122 92 100 95 81 94 96 99 91 96 106 103 96 120 115 115 112 121 113 119 98 109 88 92 102 131 155 144 156 156 151 146 123 121 104 87 67 47 25 29 35 32 29 43 46 40 45 45 50 58 76 70 86 93 121 106 109 100 102 92 102 105 105 127 146 172 158 119 143 107 125 127 120 112 144 117 140 138 99 76 85 80 88 91 101 85 70 59 62 67 75 99 92 102 98 87 91 93 98 101 101 95 108 100 98 112 118 107 120 119 117 116 124 134 95 80 95 123 149 152 157 157 141 143 133 128 118 63 40 32 16 20 27 36 43 57 69 69 86 65 71 82 89 98 105 110 145 144 136 110 114 113 115 113 114 130 139 145 141 156 157 148 153 144 152 128 136 99 137 132 77 67 92 101 112 101 90 84 62 70 58 54 88 71 66 97 97 95 96 95 89 99 106 96 110 100 104 112 111 114 126 113 108 114 120 131 119 86 94 117 139 152 158 141 134 131 152 133 105 60 53 58 60 59 77 82 100 104 111 98 95 93 111 109 95 118 110 112 138 157 150 139 146 151 151 139 142 136 162 156 129 140 144 134 150 150 172 172 136 125 122 111 88 71 92 104 102 89 92 73 84 86 74 77 72 61 68 77 95 93 87 103 98 87 98 97 115 98 99 107 116 123 114 115 111 107 110 127 126 108 105 114 117 139 130 119 113 137 132 142 143 106 83 103 79 94 81 92 98 97 101 88 113 114 109 114 111 107 121 123 141 132 137 145 168 161 171 162 177 161 169 159 135 150 154 159 145 136 152 144 159 151 143 140 100 90 101 105 111 76 77 78 84 73 60 60 70 69 62 68 55 71 87 95 102 90 97 96 113 102 97 104 117 109 118 116 124 110 104 124 126 102 102 120 134 114 114 122 128 142 129 158 143 144 121 101 93 76 87 101 118 98 105 117 109 111 102 101 96 112 124 124 141 130 134 135 158 166 152 168 183 183 189 184 159 159 155 166 149 133 143 132 155 154 165 161 116 86 104 93 88 82 52 60 85 81 67 74 64 65 63 61 49 41 74 86 105 87 101 97 112 101 98 122 115 119 120 115 110 120 119 104 114 105 112 106 132 118 118 134 129 144 126 127 155 156 152 141 117 104 100 104 98 108 115 117 117 115 113 100 86 115 122 122 143 137 128 138 143 159 137 141 156 166 168 187 171 170 173 175 157 153 147 138 129 133 146 150 153 102 86 60 40 47 61 67 95 92 82 80 81 69 61 56 46 54 51 93 94 89 99 109 103 99 98 114 101 137 116 103 82 101 120 119 124 113 117 111 112 109 127 159 138 162 126 131 142 129 145 152 122 135 122 103 99 109 101 96 98 112 106 91 95 127 136 132 124 134 123 133 129 121 117 122 127 135 158 156 171 171 171 170 165 148 134 131 123 100 91 103 126 146 94 61 55 27 50 64 76 78 56 67 67 58 56 39 24 33 35 58 108 96 101 106 101 97 94 98 97 112 106 119 92 100 121 128 132 113 122 110 100 110 139 165 163 184 165 134 131 125 130 161 180 167 144 117 118 102 105 94 86 97 87 97 112 121 121 130 129 149 140 150 138 130 128 122 127 129 139 147 142 153 149 148 150 132 122 94 97 89 87 94 103 109 108 57 39 40 59 51 48 56 51 51 61 56 56 45 27 19 34 50 97 99 99 106 92 94 95 98 101 96 72 84 103 108 103 127 131 132 113 124 149 136 149 175 177 165 158 153 139 149 147 165 173 149 163 121 135 102 108 90 84 89 88 94 104 100 103 114 125 129 141 132 135 125 107 120 126 132 132 131 120 116 127 98 108 104 104 94 82 81 86 90 90 103 107 91 59 72 71 88 84 69 62 62 47 49 38 48 36 24 19 24 85 102 98 106 99 92 93 105 115 89 91 105 95 114 120 128 130 121 112 158 164 164 173 189 180 168 156 170 140 144 143 146 153 146 155 146 137 113 100 92 90 91 103 86 102 90 92 92 97 113 113 113 104 95 99 99 97 107 92 100 109 97 98 83 78 73 76 72 68 72 76 81 88 94 98 100 100 86 101 106 102 99 69 76 73 60 81 54 59 31 15 30 62 102 104 104 93 93 92 113 109 93 87 82 75 111 110 131 133 123 155 144 176 179 182 201 179 198 168 163 151 141 132 123 128 119 136 114 104 90 104 95 100 77 81 73 95 76 84 85 86 94 90 88 82 79 85 81 78 79 76 72 91 75 60 62 56 51 59 60 47 63 67 77 84 97 110 102 117 120 113 93 79 93 82 58 63 63 66 66 52 53 18 34 61 88 105 92 94 92 87 108 113 92 75 62 87 94 118 155 148 143 168 149 177 190 186 194 179 188 186 170 169 158 142 122 117 117 99 92 76 72 83 79 76 68 75 67 74 56 58 64 78 67 79 82 63 61 64 63 60 81 66 57 71 66 58 49 50 50 47 54 49 49 63 57 76 86 101 120 144 137 123 110 81 50 44 33 46 52 50 44 53 47 27 35 73 88 95 88 88 86 95 114 128 112 98 80 83 121 148 148 149 146 158 157 165 158 171 181 162 177 177 176 146 140 132 128 125 116 106 83 79 64 72 58 62 68 75 41 50 52 49 50 59 48 62 57 53 46 40 46 44 57 53 48 56 42 45 41 34 48 45 44 49 49 50 59 59 71 84 107 132 158 157 130 110 93 41 28 27 38 46 41 55 40 34 31 87 90 87 88 94 84 94 115 143 122 97 59 103 137 159 144 160 155 150 150 125 158 165 168 163 155 134 144 110 98 95 97 93 77 71 72 55 41 39 43 43 54 42 32 33 25 33 37 39 39 39 28 37 24 19 33 48 31 34 46 45 40 33 38 39 34 45 43 44 40 35 54 53 50 62 80 109 132 164 143 123 116 77 50 33 40 32 47 38 40 13 34 84 86 92 88 90 90 91 132 144 129 92 85 113 157 161 156 156 156 143 136 121 131 138 127 122 100 90 82 63 40 30 33 37 42 35 45 32 30 31 44 38 33 36 31 19 23 34 33 45 34 28 28 16 14 13 36 31 13 25 31 31 33 24 32 30 39 32 42 40 38 35 41 49 45 51 66 80 107 138 153 145 118 100 77 44 50 37 30 42 39 13 20 67 104 96 79 92 89 92 131 136 125 86 101 143 153 166 154 159 147 137 131 110 106 85 95 84 71 47 41 38 16 16 28 33 35 38 36 26 27 34 33 32 30 35 24 26 33 20 26 19 23 23 15 6 3 22 32 10 17 18 19 21 29 27 27 26 24 30 31 40 36 31 42 39 45 46 62 71 82 101 119 153 129 102 73 65 59 43 29 37 43 28 28 64 85 103 88 87 94 86 139 125 125 79 114 152 170 166 170 152 142 137 133 107 83 67 73 71 55 48 36 28 28 26 32 30 30 31 37 37 45 42 42 34 40 34 34 30 24 23 16 22 24 18 4 6 17 25 16 16 10 12 13 13 19 19 26 23 30 33 33 37 27 34 35 40 39 50 43 69 69 71 95 144 136 90 62 56 55 53 37 38 48 49 40 65 82 92 101 92 101 88 127 129 83 83 129 172 168 178 152 154 153 140 128 85 66 57 55 56 48 36 31 29 38 32 32 31 39 48 49 54 56 43 39 37 34 45 35 31 26 24 28 25 19 16 3 19 20 17 20 16 11 9 12 12 15 18 19 25 29 28 31 31 25 27 32 39 42 48 48 54 62 57 69 105 128 97 55 66 48 47 36 49 60 59 50 54 93 100 97 103 109 90 139 125 85 100 161 178 164 172 157 149 143 122 98 66 57 47 57 47 46 39 42 43 46 44 48 44 47 52 58 48 45 46 42 39 34 35 31 37 31 30 27 30 19 19 21 17 18 13 17 13 12 13 12 14 13 21 19 21 29 30 33 27 26 30 41 35 42 47 43 48 54 53 62 75 101 109 50 63 63 42 46 42 38 64 64 48 99 105 104 101 112 99 135 99 57 111 167 165 158 160 151 149 148 114 89 62 55 50 55 52 45 42 39 45 49 48 53 52 48 54 54 45 46 40 41 39 38 36 38 37 30 28 21 24 28 23 16 14 12 17 11 11 13 17 19 14 13 19 22 22 23 30 32 23 30 31 33 34 45 46 50 49 52 47 47 56 61 100 57 50 74 49 41 55 43 55 62 61 99 103 116 99 107 105 139 78 66 140 166 166 179 170 156 148 129 108 85 62 63 55 49 48 40 40 36 37 48 49 55 59 55 45 49 45 49 49 53 49 50 44 45 37 28 21 19 20 19 16 11 10 11 11 11 9 14 14 20 15 14 18 20 19 19 26 28 23 29 40 33 37 46 47 52 52 51 39 48 41 44 65 65 47 56 55 45 58 59 60 63 55 110 98 116 107 107 111 133 59 80 166 163 183 189 170 159 137 117 105 83 65 61 55 47 43 46 35 37 41 42 44 47 58 54 48 47 46 46 43 40 38 39 30 28 24 19 19 13 19 14 15 14 14 14 13 13 7 11 12 14 12 14 15 17 18 17 24 27 25 34 34 35 40 43 46 53 46 40 42 39 51 30 58 53 52 56 52 65 64 60 51 68 54 91 120 106 111 113 108 114 54 117 166 171 192 192 175 164 138 123 108 92 68 58 53 48 45 48 33 38 43 36 41 46 47 56 52 44 40 41 30 26 23 19 21 22 16 15 14 14 18 19 10 4 10 10 9 12 7 10 12 10 13 12 17 12 15 14 18 21 20 33 35 35 43 48 47 48 52 41 36 42 48 49 45 47 47 54 41 64 63 65 69 67 53 70 123 87 109 111 111 103 60 126 165 190 191 175 175 165 142 122 101 94 69 60 53 47 46 41 36 38 40 36 42 43 59 46 31 27 23 25 26 18 17 13 16 14 14 12 12 13 7 12 10 9 4 8 4 5 7 8 9 11 13 15 15 15 12 15 18 16 23 28 28 40 43 47 51 57 42 44 39 35 44 40 62 46 51 46 49 51 49 66 66 65 60 79 109 97 108 114 107 85 57 160 174 197 188 190 177 163 138 118 111 93 70 55 55 44 36 37 37 29 35 34 50 48 25 21 18 19 18 20 19 13 13 12 13 11 9 7 5 9 8 14 10 9 10 7 5 9 5 6 11 9 11 12 14 15 13 14 12 17 20 26 38 39 39 53 48 57 42 43 37 34 36 44 46 46 53 49 43 59 67 54 76 76 66 79 108 105 88 116 109 87 87 157 178 187 189 179 176 169 141 110 101 83 74 61 53 35 36 30 25 25 29 33 35 22 10 11 10 20 17 19 14 10 16 10 9 9 10 15 18 6 5 14 9 12 12 4 7 12 10 9 8 12 8 11 13 14 16 14 16 18 22 25 40 47 47 54 54 57 53 46 40 37 34 50 49 46 55 45 42 52 69 60 62 69 75 84 119 98 80 109 118 88 78 180 182 163 201 193 193 175 136 99 95 81 65 59 43 39 32 32 26 26 25 21 14 16 9 10 9 11 15 19 14 14 14 7 5 7 8 6 17 6 12 10 6 8 7 7 6 9 20 18 10 9 11 16 11 12 14 16 17 23 25 28 46 48 52 51 51 58 52 50 41 35 33 43 64 44 53 44 51 50 72 58 61 60 68 79 127 109 101 105 115 93 92 182 161 159 199 205 190 183 123 102 85 102 61 62 44 37 37 34 30 25 18 10 9 9 5 5 4 11 17 20 14 14 18 6 5 6 5 2 14 7 11 5 8 4 13 16 8 5 17 5 13 13 16 21 18 19 21 22 21 27 40 51 49 57 54 50 63 57 56 50 48 37 38 44 58 60 47 48 50 56 66 68 59 53 65 79 119 104 112 94 107 84 86 173 161 167 211 207 189 182 120 111 96 99 63 46 42 43 42 35 31 22 16 11 11 10 6 4 5 9 18 19 11 15 12 6 5 6 6 0 17 4 9 8 11 10 10 25 19 17 9 11 15 18 23 25 37 27 31 29 31 38 57 55 51 59 56 62 65 64 50 47 45 42 40 54 46 74 53 51 46 58 67 77 55 54 45 75 109 109 108 85 105 87 92 161 166 170 202 202 187 170 133 102 111 90 64 54 46 52 44 38 31 26 16 13 14 16 6 15 14 13 16 19 7 14 15 13 19 17 23 4 19 5 4 24 2 6 14 16 23 16 14 30 25 28 29 55 49 42 40 47 43 54 64 58 62 74 74 65 64 71 58 54 48 39 43 54 35 79 59 50 46 66 66 75 70 49 43 62 103 111 102 83 101 94 93 157 161 178 183 196 184 162 149 101 107 80 61 52 60 55 42 38 31 25 23 15 12 14 13 17 16 22 24 28 21 32 38 32 39 37 34 30 22 21 15 25 8 8 19 26 34 34 30 40 46 49 50 62 57 61 64 60 59 52 65 63 60 67 80 88 71 74 69 66 54 46 42 57 44 60 64 57 47 68 70 81 69 65 46 48 106 105 118 76 107 97 74 147 161 165 168 196 190 180 152 94 98 73 60 59 59 51 46 39 43 36 36 30 26 31 30 32 41 46 44 48 42 50 62 66 56 68 54 54 40 38 29 33 18 18 34 39 45 48 45 43 59 52 66 67 76 80 75 59 66 55 46 59 53 63 64 71 64 65 81 86 92 52 38 53 52 47 51 53 62 71 65 70 82 58 58 45 106 107 99 84 105 95 83 122 185 148 156 193 183 177 157 92 88 70 50 61 60 49 47 52 53 50 48 44 55 60 55 74 71 89 86 84 72 81 89 92 92 94 85 92 88 78 50 24 21 16 28 50 58 74 81 71 88 96 91 89 71 69 63 44 27 17 16 16 13 20 34 40 49 38 43 65 74 68 61 39 62 47 61 53 69 74 71 63 80 67 64 49 101 98 87 81 105 99 93 123 177 153 139 188 180 164 168 91 77 66 45 64 70 65 65 77 70 75 73 55 58 72 83 92 106 122 137 156 142 127 100 70 74 63 40 32 38 32 34 21 64 93 93 102 112 107 131 121 101 91 90 80 86 78 66 51 41 38 37 36 32 37 26 26 34 24 31 51 60 38 73 57 45 65 72 49 80 74 82 71 73 80 67 49 101 110 76 83 102 96 114 123 166 151 141 186 178 164 168 87 68 56 81 82 84 62 62 55 59 64 81 71 70 86 101 81 90 87 89 109 95 99 87 81 83 99 85 90 88 70 76 70 63 72 53 60 69 95 117 88 103 96 93 75 73 73 77 74 62 44 45 41 40 38 32 25 29 23 29 29 55 38 46 70 49 60 72 44 80 87 80 79 70 66 84 55 104 105 79 91 100 102 99 118 167 155 150 178 167 162 157 100 94 93 57 43 50 54 53 54 49 65 80 85 94 113 116 131 119 131 127 115 112 110 123 152 193 185 162 148 128 114 96 112 101 111 91 105 123 181 141 137 112 123 104 65 69 57 77 76 60 14 26 46 43 66 92 88 83 62 50 27 48 38 27 32 55 61 84 35 69 91 80 84 77 68 73 75 104 108 83 83 103 111 101 105 164 171 156 165 172 157 165 136 117 55 56 42 57 55 66 65 84 84 77 101 102 104 106 112 111 112 125 129 140 150 158 154 141 195 193 155 128 86 73 56 64 79 58 64 158 157 107 108 110 118 94 84 85 114 87 82 75 52 62 66 58 63 70 88 102 105 89 94 59 49 21 29 55 57 85 30 65 83 84 88 81 63 65 71 85 92 99 88 110 95 100 111 130 177 157 173 186 140 162 157 89 46 47 43 56 63 58 48 74 92 80 134 70 85 73 148 138 142 147 158 150 134 168 161 163 150 255 141 195 113 113 102 110 104 80 129 167 93 83 102 118 123 124 62 71 103 81 77 67 33 29 47 69 78 87 90 104 110 107 82 91 90 27 47 42 66 111 72 48 86 73 79 78 73 64 82 74 84 104 96 104 106 83 75 106 170 156 191 177 137 148 146 68 39 5 39 34 19 54 52 91 121 132 157 147 98 90 133 135 150 115 97 79 73 72 157 136 129 201 170 156 135 122 71 72 97 111 149 71 97 76 85 105 106 129 46 66 60 87 62 64 80 68 72 58 55 52 48 55 83 107 103 95 66 136 61 62 121 131 119 51 89 66 72 78 76 165 236 151 132 79 96 94 101 124 117 111 126 135 183 159 113 117 145 38 37 37 33 38 50 90 114 111 101 83 46 50 49 78 79 127 148 153 95 92 85 64 115 108 105 146 158 100 104 124 105 81 140 131 142 71 78 82 80 95 87 101 56 39 57 73 137 117 94 131 99 90 51 72 39 32 44 48 92 112 98 95 127 74 132 127 112 67 88 68 69 90 157 214 247 180 150 133 96 76 162 140 146 132 118 130 127 117 109 85 125 45 44 82 38 65 91 116 121 72 23 36 47 89 89 102 53 95 111 102 83 63 100 87 73 100 86 129 166 109 109 113 99 96 125 108 124 92 97 84 79 89 104 59 40 26 39 54 113 97 69 81 44 57 22 38 79 102 10 32 28 87 89 99 105 106 110 96 114 87 54 77 95 146 213 236 234 163 145 187 70 94 187 132 157 158 128 118 82 71 111 78 122 94 64 94 68 78 112 104 63 26 23 51 110 59 88 92 123 86 66 78 65 85 78 83 68 65 101 113 148 122 123 130 133 134 156 175 132 95 103 72 53 71 77 28 31 0 48 58 95 122 23 35 29 39 104 64 121 91 17 10 26 35 58 77 93 121 94 80 107 120 46 69 117 196 219 234 202 116 169 133 178 102 159 122 118 157 146 148 110 75 102 86 69 108 69 82 82 70 109 75 28 92 66 83 122 142 69 63 81 80 75 80 135 91 84 84 71 43 64 113 108 111 107 126 109 97 108 151 160 101 91 60 38 46 31 21 4 0 37 84 105 123 134 81 47 27 56 95 94 37 28 19 23 28 43 69 97 95 92 98 128 127 24 67 138 211 220 197 194 142 160 117 190 74 145 101 137 102 147 144 139 106 89 89 49 115 69 73 89 94 108 102 64 89 57 44 202 196 200 31 59 68 106 115 139 98 114 97 80 34 52 111 133 115 89 110 112 99 102 171 172 118 123 82 46 36 39 30 33 51 77 87 87 86 111 89 47 58 52 55 35 43 36 27 24 31 55 90 115 85 105 104 111 108 60 96 182 218 145 159 229 176 132 118 107 169 104 90 139 125 75 128 167 139 107 84 57 115 105 88 118 124 96 121 68 108 81 54 56 119 89 38 43 57 86 77 116 109 121 119 90 37 45 114 119 145 100 105 108 106 115 186 161 140 124 110 55 44 53 36 47 75 61 54 105 113 115 90 46 50 83 109 110 81 71 53 48 43 70 103 103 98 110 114 112 100 72 117 191 159 103 167 237 172 141 102 56 217 89 72 124 132 149 44 164 159 126 89 64 131 151 105 174 121 93 137 90 114 104 57 48 39 37 26 11 51 72 76 96 93 111 80 65 42 78 114 88 132 100 92 95 91 93 143 170 141 129 120 105 62 43 51 37 53 65 70 75 81 86 73 48 73 105 139 167 146 118 102 84 100 93 92 116 113 124 118 104 96 85 133 176 110 80 139 228 183 142 83 41 181 91 87 115 132 160 50 129 164 136 83 79 178 147 91 160 122 79 145 106 107 90 98 83 79 73 66 35 71 85 97 97 98 74 34 20 63 95 100 53 104 83 67 67 63 84 107 134 123 146 80 135 79 59 51 41 54 68 79 89 70 67 58 46 72 108 143 149 138 135 110 105 114 95 95 121 119 124 107 111 90 82 109 147 105 104 164 226 175 159 65 51 137 127 93 133 133 152 101 122 162 127 89 98 130 127 71 130 120 82 126 92 109 88 109 117 89 68 68 42 64 86 100 92 86 59 29 7 51 101 75 92 84 60 54 56 74 58 65 94 117 116 109 114 115 59 69 48 58 83 78 81 66 66 66 47 54 83 101 120 109 106 105 99 91 94 93 112 130 123 110 113 91 69 112 74 130 150 173 207 159 153 101 46 129 152 99 122 114 147 120 84 95 122 86 88 97 106 49 134 129 85 102 90 94 89 98 105 88 72 53 43 63 75 91 80 72 57 34 20 66 63 47 105 82 56 56 51 66 52 44 43 111 97 99 102 94 87 57 55 65 71 81 75 68 59 53 46 35 40 43 57 64 75 70 75 77 83 73 108 142 133 108 109 75 58 85 41 34 56 121 152 136 146 147 51 136 166 102 100 86 77 83 83 71 82 63 60 73 104 61 106 127 52 54 64 63 63 70 64 62 51 29 59 74 82 97 84 71 49 26 62 58 27 49 76 85 48 37 33 43 47 53 47 81 103 73 86 80 61 72 50 64 63 46 58 64 60 55 42 31 44 30 43 53 59 68 60 75 79 65 88 134 120 110 82 60 62 89 27 24 30 44 101 97 133 165 62 162 169 117 89 42 66 121 104 71 44 76 44 60 76 70 72 118 71 28 60 47 53 63 60 49 25 20 37 63 66 64 59 52 38 52 82 29 19 78 37 65 43 43 35 36 42 56 62 49 130 56 51 61 38 41 69 53 46 40 31 37 42 46 40 40 44 42 51 52 64 75 66 73 73 73 98 123 100 88 78 50 55 103 39 56 55 28 51 81 109 166 63 194 173 123 102 37 63 142 84 62 49 43 73 65 75 108 32 126 111 28 57 42 35 50 38 22 12 21 26 50 65 65 58 42 56 87 48 14 35 46 55 39 32 41 35 41 42 51 57 59 72 113 34 44 32 16 42 75 47 39 37 26 24 24 24 34 36 38 55 56 67 78 75 72 77 78 101 97 88 76 66 62 69 109 23 40 70 25 42 78 116 150 110 203 159 117 110 41 57 170 77 56 52 31 64 83 79 99 39 119 130 63 39 25 12 19 14 14 12 14 16 53 66 65 48 67 97 50 24 24 68 33 66 31 27 25 23 38 28 37 53 63 49 89 103 38 27 17 24 47 84 79 54 42 22 18 24 22 27 41 41 55 66 71 73 85 98 82 120 95 84 77 58 68 102 95 58 3 75 18 57 84 121 158 159 192 168 123 124 63 42 125 79 59 54 30 50 92 94 70 44 83 128 105 74 16 13 15 16 12 13 14 27 41 59 66 71 83 39 23 23 67 45 68 33 24 24 28 24 18 19 27 37 66 72 73 93 102 55 37 47 49 48 79 88 89 74 67 66 49 49 51 62 73 77 85 84 77 79 98 85 79 70 76 61 65 75 110 69 20 67 38 52 82 146 162 186 113 126 179 151 77 34 80 80 71 67 58 55 105 93 85 139 28 131 124 123 27 11 13 14 14 13 15 16 39 70 78 72 38 17 22 83 69 64 51 23 27 29 28 26 21 21 42 48 64 72 67 69 77 97 30 53 56 50 64 65 50 58 68 62 69 64 65 60 58 52 56 64 71 61 91 74 78 61 71 66 58 57 87 77 38 67 56 90 109 150 156 207 63 107 196 201 157 22 67 85 65 75 77 72 114 108 86 146 133 121 147 153 37 16 15 18 13 15 25 43 61 68 69 48 21 33 81 78 80 71 26 30 33 34 38 37 24 18 53 75 93 75 91 115 113 91 103 82 59 47 67 69 32 33 27 16 21 30 37 36 41 48 57 53 71 65 66 71 73 52 64 55 64 69 51 77 145 117 122 132 125 147 164 175 44 150 148 188 222 44 64 54 73 91 80 80 112 114 106 89 166 87 85 181 118 31 25 16 24 30 24 13 34 74 56 36 53 84 86 87 71 30 25 30 35 40 90 107 66 19 65 96 106 69 102 118 149 145 127 141 138 114 71 97 39 23 7 9 16 15 21 26 34 50 65 75 54 55 62 69 70 50 52 50 52 58 25 66 165 157 156 134 105 147 203 106 54 174 128 150 184 77 85 70 61 52 69 89 102 126 113 116 115 139 69 65 83 42 30 20 31 25 30 26 53 75 76 85 94 88 77 63 41 16 22 24 31 77 125 119 76 62 85 117 111 68 86 87 117 117 130 151 145 144 178 141 70 50 36 31 34 41 57 66 74 72 57 56 57 61 63 69 65 60 49 54 44 43 21 94 161 157 168 100 106 164 161 37 52 90 162 151 136 109 89 134 34 54 69 77 109 121 123 120 110 113 97 98 107 93 69 70 53 48 42 53 74 87 88 85 68 49 50 55 41 22 13 14 57 102 102 78 57 89 85 121 111 89 84 82 76 48 52 120 128 137 149 123 101 83 64 50 51 53 55 54 47 56 57 62 63 68 75 75 59 60 54 62 60 34 37 103 144 148 150 86 128 177 63 54 48 122 148 176 125 154 99 141 101 70 63 67 101 122 126 118 90 79 62 33 29 14 33 25 10 18 9 17 45 47 38 32 30 42 84 92 65 48 43 37 63 96 71 43 48 84 111 127 143 107 95 83 84 33 24 52 77 95 85 91 97 85 46 54 44 52 57 59 61 65 67 68 71 77 76 74 55 61 62 70 67 45 49 113 113 119 106 85 159 88 43 45 41 131 93 154 143 163 122 135 103 127 63 55 76 99 130 112 87 67 61 41 32 43 34 32 17 16 6 3 6 8 10 40 47 82 138 179 157 104 66 82 81 79 79 99 79 117 158 168 164 113 89 64 81 29 22 29 44 59 49 71 74 67 37 29 38 39 49 57 75 78 74 77 72 80 80 73 53 65 82 62 51 29 52 81 87 130 74 89 69 52 51 44 44 110 121 121 133 138 175 150 58 112 48 48 55 78 154 122 91 72 59 41 56 53 43 47 36 21 4 11 10 12 25 70 73 127 167 183 191 178 110 98 90 91 92 137 142 148 169 175 182 92 64 38 68 40 12 20 34 42 44 56 74 74 54 47 45 49 46 62 79 83 78 81 78 73 85 72 59 66 76 49 58 17 57 76 99 111 31 32 57 35 46 44 42 104 90 127 180 94 184 220 54 99 55 60 60 97 164 94 105 80 61 62 82 61 55 57 41 37 21 15 15 24 37 79 110 132 148 177 171 176 157 131 95 94 91 157 175 156 154 149 174 85 38 32 36 53 27 13 34 39 54 51 68 81 78 54 65 54 59 69 70 82 89 86 88 79 86 73 62 62 54 60 51 38 70 90 79 18 49 45 68 21 45 39 42 95 100 88 185 152 109 216 141 106 107 60 61 109 125 80 120 81 75 89 91 76 60 68 70 64 39 35 33 33 39 89 122 119 145 160 120 143 149 95 53 66 110 116 138 153 157 151 110 78 51 57 78 62 37 20 38 44 65 65 71 97 96 80 73 70 74 71 72 80 85 84 93 86 95 72 68 61 47 61 49 36 32 11 50 57 47 64 46 45 36 37 40 98 88 88 182 179 148 147 145 125 125 56 53 84 93 72 121 93 102 98 87 72 77 85 97 102 75 63 72 61 62 71 128 141 157 146 82 67 95 102 100 137 137 132 119 113 145 114 101 78 47 39 55 53 21 45 36 64 76 76 80 102 108 99 84 85 75 79 77 86 82 83 92 91 91 80 65 54 50 62 48 44 50 65 76 46 54 66 22 41 33 34 43 98 95 98 154 198 146 172 182 162 143 84 51 63 101 76 102 114 115 91 80 69 72 99 122 131 122 107 103 95 102 100 139 174 192 172 105 60 68 86 128 154 150 129 129 116 125 114 96 80 81 58 46 56 42 43 72 99 99 90 84 96 116 109 111 95 94 92 91 94 90 83 104 93 94 94 73 56 45 76 32 76 73 74 66 47 65 42 45 30 37 35 33 100 96 107 115 175 140 160 175 165 176 127 51 55 86 72 105 132 119 99 78 82 76 102 126 135 135 134 125 128 131 142 135 157 155 143 90 58 71 80 117 136 153 142 147 155 141 138 131 125 123 91 62 74 88 97 110 124 111 96 91 99 117 117 123 110 109 104 102 98 100 95 112 94 103 101 78 55 48 91 46 81 65 55 48 57 49 23 33 28 36 35 32 95 95 106 110 124 143 144 164 145 174 151 29 51 63 81 109 127 113 116 90 93 82 106 121 133 130 130 129 139 140 142 139 124 105 95 70 49 48 64 95 119 142 134 141 148 149 143 148 141 121 78 96 107 131 120 102 112 108 100 101 109 106 118 117 123 111 119 107 105 115 106 111 114 111 107 83 64 63 66 44 62 49 41 44 37 16 30 35 33 29 34 36 90 96 93 106 109 134 138 148 140 170 152 65 57 65 91 115 114 128 112 99 101 89 100 125 135 133 129 140 138 136 132 116 104 88 71 58 38 43 49 71 98 100 100 120 150 146 141 137 119 137 142 122 135 147 141 121 131 129 106 107 105 114 113 114 129 124 127 119 118 120 117 115 115 117 111 96 86 84 56 61 38 29 36 24 19 28 35 31 32 35 33 34 93 97 96 98 97 116 138 138 151 142 147 103 63 61 85 89 127 120 105 104 100 102 95 113 121 140 135 137 139 130 113 85 76 72 54 50 27 34 40 52 61 75 103 123 147 157 161 152 166 174 156 144 135 150 151 139 141 156 143 132 113 112 111 129 124 121 142 134 134 132 115 122 123 126 117 113 98 120 33 40 22 18 20 16 25 33 33 34 33 37 27 37 88 96 93 93 97 89 127 126 135 129 135 130 42 57 79 81 118 108 109 108 97 101 102 108 109 126 128 132 115 109 82 75 60 56 51 49 36 38 45 59 76 83 105 159 158 133 144 135 174 121 126 133 118 135 150 153 175 159 149 150 131 126 122 139 128 124 138 143 139 133 125 130 125 129 125 114 113 101 52 35 18 19 17 28 28 33 33 31 31 34 26 41 89 92 91 96 94 98 105 110 115 111 111 136 51 62 79 73 104 102 105 108 93 98 114 121 117 123 114 112 105 102 94 84 71 56 59 53 53 51 66 87 92 127 121 153 83 90 91 86 131 89 73 99 79 126 144 149 175 134 146 157 153 146 136 143 119 122 130 155 146 130 133 137 132 129 120 113 115 76 61 25 15 27 13 29 29 38 31 38 24 36 32 25 89 93 90 90 96 98 96 114 100 121 95 107 90 67 67 70 90 111 109 100 100 100 105 111 107 121 113 98 102 94 100 96 86 82 74 73 66 88 101 107 114 126 94 121 47 52 75 85 102 127 95 116 107 125 110 112 90 101 106 123 131 134 121 122 107 111 122 136 146 128 127 127 123 122 114 113 119 36 63 22 16 24 17 31 29 33 35 32 31 29 33 31 89 93 93 91 95 98 85 111 113 112 96 109 133 60 63 74 93 126 106 105 106 112 113 104 106 112 116 113 103 116 119 132 137 117 107 88 107 130 124 100 139 131 117 112 105 92 106 125 142 168 145 104 87 96 86 92 83 104 110 101 111 108 110 105 105 109 117 122 138 124 123 120 123 112 114 115 105 39 61 18 15 17 18 36 30 31 32 32 36 33 31 35 92 95 92 88 94 98 86 102 117 111 128 93 146 64 70 66 100 129 125 125 128 129 135 131 120 114 128 125 126 129 131 138 160 152 153 146 152 173 120 94 88 106 95 92 94 108 125 143 128 133 104 87 86 95 96 100 105 105 114 110 117 126 116 104 107 117 112 118 125 124 126 120 116 115 103 130 75 57 55 18 20 17 18 37 29 32 31 33 37 31 33 35 92 88 90 91 89 100 94 86 123 119 112 127 119 111 90 76 85 125 109 164 162 162 189 142 128 115 113 134 125 104 102 100 148 145 197 209 183 158 122 68 79 95 73 59 77 80 103 116 108 113 80 82 80 104 127 117 122 115 119 130 138 146 129 115 109 114 116 108 117 116 126 118 120 108 102 127 43 66 40 17 15 23 24 29 30 37 32 31 29 38 25 35 90 91 87 96 92 94 96 77 118 120 116 122 145 159 131 124 118 128 109 119 141 166 209 165 126 114 104 130 122 97 116 119 131 132 162 150 131 103 105 111 96 120 95 92 114 128 94 81 69 65 47 68 107 125 142 128 150 134 141 140 145 142 125 111 101 109 114 109 117 117 121 116 120 99 93 113 31 63 28 17 17 24 33 27 31 29 33 30 30 36 28 28 89 88 83 93 93 93 92 91 98 120 129 132 137 148 125 204 186 194 96 107 108 142 178 199 158 150 134 152 141 133 134 116 85 104 94 97 100 60 46 62 50 77 71 42 51 70 95 87 56 41 59 74 96 106 90 103 140 122 100 102 117 138 116 115 102 110 111 113 116 120 118 115 115 98 89 100 34 61 16 20 22 30 26 33 32 28 35 31 33 31 27 29 84 91 82 87 93 90 89 91 90 106 135 143 136 129 155 213 204 222 127 108 130 123 157 173 180 197 187 195 173 115 74 89 55 65 60 69 75 79 67 51 46 51 58 48 54 59 66 84 91 87 100 99 102 120 108 83 71 53 41 61 91 107 119 117 100 108 111 113 116 127 119 104 115 90 73 98 44 59 15 33 23 28 32 24 37 30 31 33 33 28 30 32 91 86 84 90 90 88 91 98 79 98 136 156 134 121 150 128 215 233 195 111 136 145 151 138 138 151 130 119 107 84 80 51 37 26 30 34 35 38 47 46 52 42 47 58 65 69 100 84 91 115 104 119 126 116 118 102 71 72 54 71 88 86 112 108 106 106 110 114 117 129 108 106 107 89 75 102 52 56 26 30 30 30 28 22 35 34 26 31 33 31 30 30 92 87 85 84 93 85 95 90 94 84 125 162 138 110 130 158 211 221 237 137 130 143 138 115 104 99 92 65 50 38 53 70 77 53 18 21 20 20 19 20 16 14 22 18 29 25 70 76 102 93 96 92 114 109 103 100 95 95 83 95 105 85 99 101 107 115 111 122 124 113 103 111 106 100 84 121 47 61 25 35 30 30 25 36 27 29 30 35 28 28 32 32 87 79 85 85 87 88 88 90 92 92 109 145 152 107 120 150 138 224 238 196 130 136 134 105 109 97 81 75 63 55 62 75 90 87 61 41 30 30 23 24 9 13 10 16 18 36 57 60 65 60 70 54 72 77 68 78 79 95 111 102 113 103 99 107 110 114 112 124 119 107 104 114 104 111 101 133 59 64 34 26 31 28 25 27 29 33 25 34 29 32 34 22 83 82 84 89 81 89 82 84 88 100 101 137 148 113 112 128 157 212 227 245 162 134 128 120 111 103 90 90 85 77 67 79 92 89 81 76 63 61 61 42 36 44 33 36 58 55 55 46 40 36 48 55 73 73 90 85 94 105 102 110 102 111 104 114 115 119 117 119 103 93 108 121 99 122 122 142 58 63 29 31 29 31 22 30 30 31 30 25 37 30 30 30 84 83 87 82 83 89 85 85 90 106 109 118 127 114 103 116 150 167 212 233 230 133 131 125 120 100 102 88 96 92 80 78 82 97 114 106 93 102 104 98 90 95 82 77 78 90 85 83 74 80 69 90 82 90 78 86 102 95 105 102 104 111 103 112 121 127 123 112 88 95 117 114 101 128 145 157 64 64 29 29 35 25 31 31 28 27 26 27 36 24 31 24 85 83 84 83 90 79 87 86 90 110 104 118 108 100 110 99 140 142 193 218 229 198 120 127 124 105 95 97 94 101 86 78 85 90 105 112 118 120 133 143 132 140 132 125 120 130 127 114 112 109 106 93 76 84 84 90 101 96 110 101 101 108 111 116 127 130 113 101 83 102 132 110 118 119 162 162 72 64 27 33 24 28 28 27 29 24 31 27 31 25 34 26 84 85 82 76 87 80 90 85 98 105 107 109 107 79 104 98 128 132 183 207 219 220 168 124 124 111 96 90 95 103 101 79 84 97 97 107 114 108 133 123 119 142 135 133 129 120 123 105 113 99 105 84 81 88 101 104 109 101 113 107 101 109 120 116 131 118 109 90 84 113 120 114 122 146 161 179 96 65 23 32 26 25 28 25 29 25 24 31 24 28 27 29 83 81 88 79 82 80 84 90 91 106 110 110 95 83 83 102 119 101 177 189 222 223 215 138 106 115 102 81 87 99 89 80 80 85 86 103 99 111 117 117 112 118 130 117 123 114 111 113 112 103 97 87 88 105 98 101 113 96 117 103 101 107 117 113 134 105 114 81 84 115 112 128 131 159 170 183 103 63 26 33 29 29 28 27 27 21 33 24 29 27 20 28 82 79 78 86 79 82 80 88 95 103 104 118 79 83 77 88 113 99 156 182 209 221 220 184 103 114 111 75 75 84 94 74 72 68 58 56 53 67 74 68 69 63 68 76 89 103 102 115 104 108 88 86 93 101 102 106 109 106 113 107 119 118 119 122 118 101 106 84 73 108 114 140 158 157 177 192 106 67 29 33 25 29 25 24 31 23 27 26 23 27 18 26 85 79 84 81 74 79 79 95 99 103 96 121 83 78 74 94 105 80 149 169 202 211 209 219 110 118 101 81 78 84 91 81 70 69 59 55 57 61 75 60 60 65 67 52 54 64 80 87 81 86 85 79 96 102 103 112 103 110 102 117 125 117 123 106 107 95 91 72 59 93 130 146 168 174 178 194 101 67 27 38 22 28 27 24 22 32 24 25 26 29 19 29 80 82 87 74 76 77 84 91 101 96 109 107 90 75 68 106 113 65 145 164 190 203 214 232 136 123 117 103 92 77 78 82 80 82 62 57 53 47 51 57 55 50 55 49 51 51 59 63 65 76 77 78 76 108 102 102 96 108 110 118 117 115 111 108 100 94 78 54 43 102 136 172 171 173 186 202 96 63 17 30 26 22 33 26 24 29 24 27 27 22 25 22 83 84 83 79 78 77 90 80 105 88 109 99 86 84 59 103 138 66 133 158 166 197 198 248 153 131 139 119 89 88 77 85 78 78 65 50 39 35 43 38 37 33 31 43 31 33 38 35 42 65 51 71 80 95 104 96 107 117 119 109 104 106 107 108 94 79 59 45 60 127 148 180 183 178 188 195 103 58 32 19 35 23 26 25 27 26 27 21 28 18 27 18 82 77 84 77 74 82 86 90 102 93 106 84 85 79 69 108 146 88 138 145 171 176 209 220 187 122 136 115 107 83 96 78 86 81 62 48 32 13 15 18 23 13 11 24 17 13 16 24 29 47 34 62 65 83 82 93 102 114 102 102 107 111 101 96 82 63 43 47 73 132 154 175 186 182 194 203 95 58 27 46 29 29 27 26 24 27 22 27 24 22 23 23 82 79 81 74 77 81 87 94 100 89 113 75 79 79 62 106 156 111 180 147 168 188 196 213 195 139 135 122 112 111 124 89 86 79 66 60 43 19 10 18 15 15 11 21 18 14 23 26 39 44 46 58 68 81 76 100 109 99 102 107 105 99 84 68 66 57 52 64 82 141 155 191 180 187 186 202 105 62 22 27 59 30 31 28 20 29 19 28 20 31 27 24 81 76 79 77 78 87 84 93 97 93 109 71 79 81 62 112 159 141 191 178 153 182 184 201 212 111 129 131 107 126 131 104 94 80 71 58 48 38 27 16 21 17 26 34 23 34 35 42 50 57 57 71 75 103 106 100 107 102 102 101 102 84 59 55 53 70 64 63 92 142 162 196 181 189 197 192 98 64 29 21 36 72 26 39 27 19 28 18 27 25 21 26 80 78 73 77 78 79 89 89 86 99 113 71 80 76 74 117 154 157 199 193 182 179 194 203 200 122 118 121 125 103 121 120 95 94 88 82 70 54 64 41 28 28 33 50 38 63 56 63 61 65 71 93 113 117 118 116 118 113 94 96 92 77 38 50 73 75 75 70 104 158 172 199 184 189 187 202 93 70 31 13 31 60 84 20 33 25 25 19 28 22 23 16 80 80 79 72 79 83 86 91 88 95 106 77 76 85 90 126 154 176 196 197 199 194 194 206 137 136 135 132 123 106 123 108 118 104 106 103 105 80 91 73 42 40 53 67 65 75 81 71 82 88 99 121 128 125 124 128 125 110 93 82 71 63 48 66 70 69 82 84 123 165 184 199 177 187 187 189 90 70 22 24 31 37 96 81 10 26 19 29 25 18 26 24 80 76 72 77 76 86 82 77 89 94 107 73 80 116 82 128 153 172 205 199 214 203 214 149 146 169 139 132 127 106 117 113 104 112 111 125 123 106 113 96 82 79 74 86 85 84 93 102 104 119 123 130 134 126 131 130 126 92 98 67 53 68 67 64 70 75 90 97 151 174 181 206 171 185 184 193 98 71 33 37 34 31 86 116 74 26 25 26 21 18 21 21 70 82 70 73 75 85 84 80 91 92 107 67 101 147 83 119 154 171 192 204 216 212 189 167 172 199 149 143 129 127 113 107 115 123 127 123 138 126 128 123 123 110 97 101 108 110 117 128 122 121 120 122 122 113 119 116 108 91 76 59 72 87 65 60 70 92 107 129 172 177 192 189 169 188 169 197 97 68 34 46 19 58 65 123 100 51 37 24 23 22 22 14 77 75 75 72 79 85 85 81 93 91 115 97 100 140 84 124 160 182 178 215 220 223 141 162 167 204 188 171 161 143 146 136 122 124 130 135 143 138 137 130 123 134 131 126 137 133 136 145 130 117 120 115 102 109 105 107 103 85 74 85 76 75 74 74 79 102 118 152 170 181 194 189 172 189 170 190 102 59 33 30 14 66 61 99 117 95 18 26 27 17 18 21 76 70 76 79 77 90 77 99 106 111 113 108 108 129 79 138 159 151 190 196 230 154 142 148 160 238 183 170 188 171 151 175 162 159 139 143 140 147 142 151 131 138 144 148 140 141 143 136 128 126 117 116 110 113 99 102 84 93 95 83 74 75 70 87 95 107 142 167 171 167 195 186 165 205 174 186 86 37 33 34 17 56 94 62 129 99 89 25 24 17 17 22 82 70 78 79 85 92 106 123 108 98 118 103 117 94 72 149 149 103 190 204 195 129 140 137 157 231 175 175 187 195 174 188 180 179 179 167 143 145 146 162 138 159 149 147 152 143 144 132 133 118 126 119 118 102 95 102 95 104 83 88 76 73 83 78 104 113 165 178 163 167 186 190 168 214 177 184 56 29 26 39 21 64 83 72 102 122 104 43 17 1 8 13 81 84 88 94 96 122 112 107 92 86 155 118 128 63 67 150 139 142 191 198 116 131 131 135 151 237 187 183 180 185 192 184 175 188 191 192 182 179 168 148 136 148 145 130 145 137 142 135 129 129 124 117 116 111 115 109 110 85 80 87 75 83 74 92 118 141 170 162 160 174 176 183 177 211 194 154 49 42 33 30 19 89 58 106 64 126 98 95 62 73 79 72 