P2
92
112
255
40 41 40 39 40 40 39 39 41 40 40 42 44 45 45 46 43 43 43 41 40 39 40 41 37 38 38 39 39 39 35 28 38 48 48 43 51 52 46 50 50 51 49 48 51 52 51 53 51 52 52 52 52 51 52 52 53 53 52 52 53 46 39 40 49 48 40 40 41 41 41 43 45 45 47 42 45 44 45 42 46 45 43 41 40 42 41 42 40 42 42 42 40 40 40 39 41 41 39 40 40 38 39 41 39 42 43 43 43 42 40 40 39 38 41 42 45 43 46 45 46 41 43 38 40 49 52 51 48 50 48 46 50 53 52 53 52 52 53 53 53 52 52 52 51 51 52 51 51 51 52 53 54 50 37 39 48 47 41 36 40 39 40 44 47 47 43 44 46 44 46 44 43 45 42 41 39 40 41 42 41 43 40 42 39 40 39 40 40 40 39 40 41 37 39 39 40 40 40 40 40 39 39 39 36 41 43 47 48 50 50 48 45 42 32 41 42 51 54 58 54 54 53 53 53 53 47 53 53 52 53 53 53 52 52 52 53 52 52 52 51 52 53 53 53 53 39 43 49 47 45 38 37 39 40 46 47 45 44 45 47 46 46 46 42 44 42 42 41 40 41 40 41 43 41 40 40 41 40 40 40 39 41 40 40 40 42 41 41 41 43 40 41 41 43 40 39 40 43 46 49 52 52 49 44 53 48 40 50 53 73 75 62 62 64 59 60 52 53 50 51 50 53 52 52 53 53 53 53 53 53 67 64 62 69 63 65 53 46 49 50 51 47 44 44 42 45 45 47 45 47 46 47 46 45 47 45 46 44 43 41 40 40 40 39 41 41 41 40 40 40 41 39 39 42 39 43 42 39 44 42 42 43 41 40 41 38 37 38 42 48 52 51 51 52 52 52 53 52 53 51 75 89 91 80 73 78 76 82 76 70 51 48 62 58 52 66 73 69 65 68 63 63 73 76 78 81 73 76 66 51 48 51 53 48 47 48 49 48 49 51 46 46 47 47 47 45 44 45 45 43 43 41 40 40 40 40 41 42 42 40 40 40 41 39 40 39 39 42 41 43 42 42 41 41 40 39 38 37 38 40 52 52 52 52 53 51 47 51 53 55 61 83 78 98 101 107 98 99 98 89 91 85 69 70 84 83 56 64 74 72 75 66 66 69 77 78 80 73 70 73 67 52 47 44 49 52 50 47 51 51 51 52 53 46 44 44 46 45 43 43 44 41 42 42 40 39 39 42 39 43 41 38 40 40 40 38 40 40 40 43 41 43 42 40 41 41 38 38 38 39 48 52 52 51 52 52 50 49 49 80 93 89 93 104 103 109 110 117 116 113 114 105 96 83 81 94 89 79 60 61 72 73 74 67 86 87 77 78 54 48 44 50 56 55 49 48 48 51 51 49 50 47 47 52 52 53 43 43 40 40 41 43 44 42 43 41 41 40 41 39 40 42 40 39 40 39 41 39 39 42 41 43 42 44 41 39 37 40 38 36 42 53 52 52 51 52 53 54 57 62 84 99 106 117 105 99 123 126 129 124 129 125 129 133 127 106 87 99 91 77 67 71 70 79 81 62 69 64 68 58 53 47 40 37 50 44 50 51 53 53 51 48 51 45 45 47 52 52 51 43 40 40 40 41 45 41 41 44 42 41 41 40 40 41 40 40 40 41 41 40 40 43 40 39 43 43 39 39 38 38 38 40 52 52 50 53 52 58 80 78 76 82 80 98 104 99 111 100 111 121 110 120 123 120 110 121 111 93 88 86 78 82 80 75 80 76 69 65 68 52 60 52 52 46 43 45 39 41 44 51 52 51 50 51 50 46 45 45 52 52 53 49 41 40 41 40 43 43 46 46 43 45 41 41 40 41 41 39 41 40 41 40 41 41 43 41 41 41 39 42 40 38 49 52 52 52 52 53 67 83 100 96 98 97 92 100 115 111 118 114 114 118 126 120 123 127 129 120 111 103 104 90 84 74 66 67 56 65 63 63 64 44 45 51 51 49 49 43 40 39 41 48 53 51 45 43 51 47 47 48 51 53 53 53 46 39 45 43 45 45 50 43 42 42 43 41 42 40 43 40 40 41 41 39 41 42 45 40 39 39 40 40 42 48 52 51 52 52 52 68 81 94 105 100 85 87 93 89 82 89 85 87 90 80 103 112 105 115 114 100 93 89 98 90 83 70 45 46 48 64 55 67 56 45 38 48 43 45 46 46 39 42 37 48 50 49 46 44 45 53 50 53 51 52 51 49 51 52 44 41 41 42 43 42 42 42 41 42 40 42 43 41 39 40 40 39 41 42 41 41 40 39 41 47 51 51 51 50 52 50 79 100 100 85 82 83 88 90 82 83 95 89 79 75 70 59 75 77 83 97 93 80 73 66 80 81 61 49 46 41 61 52 42 59 54 32 43 37 36 37 36 40 40 45 44 46 53 49 47 45 46 53 53 52 54 52 50 51 51 54 45 39 41 42 42 40 45 40 41 42 40 41 40 40 41 41 38 41 41 41 42 42 41 38 48 52 52 51 51 51 71 96 109 110 102 91 84 86 101 101 100 101 93 100 92 80 82 93 104 98 89 92 74 80 79 64 55 56 62 54 47 46 58 41 31 62 43 30 37 33 32 32 32 34 38 40 44 45 51 52 52 48 48 53 53 52 52 53 53 53 52 51 51 44 42 43 43 39 42 44 41 41 38 41 42 41 41 42 39 41 40 39 42 42 40 43 52 52 53 51 52 58 92 129 123 110 94 93 95 98 94 100 86 83 85 84 67 62 82 86 83 86 93 86 68 60 49 30 47 66 45 57 47 54 59 38 53 51 41 27 43 26 30 33 33 35 33 34 36 37 49 50 49 48 47 51 48 48 51 51 54 54 49 49 53 48 46 45 44 43 40 44 41 42 40 41 41 41 40 41 39 40 39 38 38 40 45 52 53 52 52 52 56 90 117 131 112 112 104 96 101 92 88 84 82 96 98 82 67 77 90 80 65 65 57 65 53 40 35 33 73 49 41 51 48 67 47 51 48 47 31 48 37 24 28 30 30 33 32 32 31 32 41 49 45 48 49 50 53 54 50 54 54 54 53 52 53 53 49 52 48 45 42 42 41 41 39 40 40 41 41 40 38 40 38 37 35 41 51 53 52 53 49 49 85 107 124 128 114 106 97 103 106 104 95 89 102 104 90 80 89 91 91 80 65 55 46 46 40 28 23 48 67 38 48 38 65 56 40 50 37 56 29 58 23 23 35 31 32 28 31 34 33 32 31 45 46 51 55 54 52 54 51 53 53 54 54 54 51 53 53 50 53 52 50 47 40 40 40 41 40 40 41 39 40 38 41 38 38 46 52 53 52 52 50 80 118 126 126 121 111 107 99 95 108 111 114 120 111 89 88 87 93 96 87 66 51 42 39 47 26 26 30 54 48 37 42 46 47 55 31 59 48 39 48 20 21 20 27 24 36 36 33 34 37 35 33 34 46 53 53 54 53 51 54 54 54 54 54 54 51 55 52 52 52 52 51 51 49 45 43 41 41 40 42 39 37 37 37 39 40 52 52 52 52 53 62 114 128 123 115 116 107 96 79 110 126 115 125 119 84 73 86 82 86 77 64 53 45 49 36 25 25 22 41 49 30 28 32 29 55 28 43 67 54 45 44 21 22 22 24 26 35 34 37 35 36 35 33 32 34 48 52 52 48 51 54 58 58 67 54 53 54 50 53 47 51 48 44 46 45 48 48 44 42 41 41 36 34 35 37 38 50 52 52 52 53 50 85 110 107 109 104 101 92 77 105 132 123 128 125 87 73 80 85 84 65 62 38 32 31 44 32 27 29 31 38 28 19 19 18 39 36 22 64 63 39 60 29 29 27 34 31 32 33 34 37 37 36 36 36 34 34 37 45 42 44 44 46 54 66 69 63 54 60 49 51 57 49 51 52 43 42 40 43 42 43 41 39 37 35 34 40 51 53 52 52 52 53 87 96 98 102 101 93 90 96 109 117 129 122 123 80 51 62 76 87 81 53 41 36 35 45 57 41 29 27 26 24 20 20 21 36 26 26 37 68 61 34 58 25 31 32 36 37 39 38 39 40 39 38 38 37 36 36 36 36 38 36 46 43 46 66 80 70 60 75 48 42 53 48 47 53 51 42 40 43 41 41 41 41 33 33 42 54 53 52 50 52 52 79 111 106 88 91 89 91 101 102 115 121 125 110 72 43 47 53 72 78 65 40 39 30 39 38 41 23 30 28 27 27 24 28 29 29 29 43 60 65 31 40 55 28 33 39 39 41 43 42 42 45 42 41 39 38 35 33 35 32 31 39 37 52 42 62 75 90 84 96 60 47 45 63 45 54 53 45 44 43 40 42 42 38 36 40 51 53 53 53 51 52 71 110 120 119 114 96 97 93 103 111 115 117 105 70 57 59 45 55 59 51 41 31 30 39 41 30 32 28 36 35 35 31 36 29 27 37 51 47 62 56 28 57 36 33 36 38 42 42 42 44 43 44 45 42 43 39 38 35 31 26 28 30 44 66 48 63 79 91 121 109 92 58 46 48 47 48 53 46 45 43 41 40 40 35 34 45 54 53 51 52 52 71 107 108 124 116 105 97 87 92 102 96 103 91 85 77 55 46 51 36 35 33 35 32 37 49 34 32 44 38 37 40 39 38 37 34 37 46 40 52 62 38 34 59 37 35 40 40 42 44 41 43 45 45 45 45 43 43 41 38 34 28 23 24 44 61 74 49 79 83 107 130 104 80 55 44 48 44 53 53 43 43 43 41 40 31 39 53 54 53 52 51 52 98 100 105 115 111 98 90 85 92 75 74 82 75 74 69 55 47 38 36 36 39 40 40 42 42 41 43 45 44 46 45 44 43 42 41 43 41 45 57 42 37 42 41 37 38 40 42 42 42 44 42 44 46 46 48 43 43 45 43 39 33 28 22 26 67 75 67 90 94 101 111 110 102 71 48 50 46 52 53 47 43 41 42 36 30 44 53 53 52 52 51 77 95 90 92 95 91 90 83 76 57 49 62 75 68 69 65 49 48 44 44 44 46 44 45 42 45 47 46 47 48 48 45 46 43 45 44 43 48 49 55 41 42 47 43 42 42 42 45 42 45 42 45 42 45 46 48 46 44 45 46 42 39 34 28 25 71 70 86 95 100 105 107 108 120 101 53 52 53 46 48 53 43 42 40 33 36 52 53 50 52 52 51 82 96 87 85 72 74 63 64 60 51 53 54 53 53 54 52 51 49 48 47 46 48 47 46 46 48 48 47 49 48 47 49 48 50 48 47 48 50 52 46 43 48 45 46 46 46 43 44 45 45 46 44 45 43 46 48 45 47 45 46 43 41 39 35 32 49 95 83 111 95 116 98 106 118 128 97 64 53 47 39 53 48 39 41 36 52 52 54 53 52 51 68 111 91 85 91 84 75 60 58 52 53 54 52 52 53 52 51 51 50 50 50 47 46 46 47 46 47 49 49 49 49 50 51 51 51 49 49 51 50 50 48 49 48 48 48 48 48 46 46 45 46 45 44 44 44 47 46 46 46 47 45 47 42 42 41 36 42 86 102 93 110 107 108 90 119 128 136 97 64 50 41 45 47 37 40 49 52 53 53 52 51 51 112 102 87 94 92 85 71 53 54 54 53 52 53 53 53 52 52 52 50 49 49 48 46 46 46 47 48 49 48 48 49 49 51 51 50 51 50 51 49 50 51 49 50 49 49 48 49 48 47 47 46 45 45 45 45 47 46 47 44 45 45 46 45 43 44 42 49 79 89 96 101 98 103 94 98 120 151 133 87 58 43 43 41 36 39 52 52 47 53 51 51 75 111 85 79 83 74 70 54 54 54 54 54 53 52 52 51 50 51 50 49 48 47 47 47 47 48 47 48 49 50 50 49 49 49 50 50 51 51 50 51 51 50 50 52 50 49 49 48 49 46 48 47 45 45 45 45 46 45 43 44 43 43 46 46 44 45 43 40 81 96 94 90 117 97 104 108 117 156 147 123 77 44 39 40 35 37 52 53 54 53 51 51 90 89 88 87 96 81 66 57 54 54 54 53 52 52 50 49 50 50 49 48 48 48 47 48 47 48 48 47 48 49 49 49 50 50 52 51 50 52 52 51 52 51 51 50 52 49 49 50 49 47 46 47 47 45 44 47 44 45 44 44 41 42 43 45 48 46 46 44 56 96 102 98 108 109 100 120 127 134 155 144 126 57 36 38 38 35 52 54 54 52 51 76 100 84 91 83 74 67 58 53 52 52 52 52 52 50 51 50 50 50 49 47 47 49 48 47 46 46 46 46 46 48 47 48 50 51 51 50 51 51 52 51 52 50 51 50 50 51 49 49 49 47 47 48 48 45 45 47 45 42 44 42 40 40 40 44 46 48 45 47 47 82 109 96 108 114 108 129 141 136 154 145 144 86 37 36 37 37 52 53 54 51 54 101 98 94 92 69 55 53 53 51 52 51 52 53 51 50 51 49 50 50 49 47 48 49 48 47 48 48 47 48 48 49 50 50 52 51 52 50 51 51 52 51 52 50 52 51 50 50 50 50 48 48 48 47 48 45 45 46 43 44 43 41 39 39 39 45 47 50 47 45 60 67 101 103 107 108 137 138 151 139 153 143 132 121 40 33 37 37 51 50 53 51 89 105 102 107 91 70 52 53 53 49 51 52 51 52 49 51 49 49 50 49 48 47 47 47 47 48 47 50 49 50 50 50 50 51 52 51 52 50 49 51 52 52 53 53 50 51 50 49 50 49 49 48 49 48 48 47 47 47 44 43 43 39 38 38 39 42 47 60 46 45 67 64 107 94 111 97 133 141 157 166 156 142 119 136 49 36 33 36 52 48 52 51 121 117 106 115 84 69 52 53 49 48 49 51 51 51 51 49 49 49 49 48 47 44 47 48 49 49 49 50 49 50 50 50 51 51 52 51 52 51 50 51 51 52 52 52 52 51 51 50 50 49 49 48 48 49 48 48 48 47 45 45 42 40 38 37 39 45 45 61 48 45 74 74 100 104 101 112 116 123 159 162 160 153 130 117 100 37 33 35 53 54 51 91 137 110 120 102 82 68 53 48 47 49 49 51 51 51 50 48 49 48 47 45 46 48 49 50 49 51 49 50 50 50 49 51 51 51 52 52 51 51 49 50 51 50 51 51 50 56 51 49 49 49 49 48 48 49 48 49 48 47 46 42 42 41 37 40 39 45 44 50 48 47 51 91 99 112 108 107 134 134 127 176 177 161 138 108 121 48 31 36 49 53 58 103 114 103 99 93 91 74 53 45 45 47 49 49 51 50 49 48 48 48 46 46 49 49 54 49 50 50 50 51 50 50 50 51 51 51 49 50 52 52 49 50 49 49 52 51 64 60 54 50 48 50 49 48 48 48 48 48 47 46 45 42 39 39 37 38 38 40 43 49 50 54 45 88 96 118 108 103 130 149 134 156 166 175 141 124 115 58 33 33 43 54 113 115 108 112 109 102 108 74 54 44 44 48 48 51 49 49 49 48 48 48 48 50 50 53 53 50 50 50 51 50 50 50 52 52 52 52 52 50 52 51 50 51 50 50 51 51 58 80 70 49 49 49 47 49 49 48 47 47 45 45 44 39 39 38 38 40 38 41 42 45 56 51 46 79 107 116 107 114 116 156 150 153 152 164 152 121 121 99 38 33 43 93 124 105 101 113 124 114 123 70 46 45 40 48 47 51 51 48 49 48 48 48 49 53 51 55 57 57 52 50 51 50 51 52 52 53 52 52 54 51 53 51 52 51 52 49 48 50 52 70 55 48 49 47 46 47 47 46 46 46 44 41 38 39 36 37 39 37 39 41 42 43 58 45 45 74 108 111 117 120 135 151 153 150 143 152 152 125 122 112 46 33 52 95 117 105 116 133 136 114 123 58 44 42 42 48 51 52 49 51 49 48 48 48 50 50 50 56 60 53 55 51 52 52 51 53 52 53 53 53 55 50 53 52 51 51 51 51 46 48 48 50 49 47 47 45 45 43 45 43 44 44 41 36 38 38 36 37 36 37 38 42 43 43 49 45 40 61 104 111 127 121 133 152 171 144 144 130 142 123 127 108 58 35 43 80 120 113 135 138 127 106 109 70 43 37 43 57 50 51 48 50 49 50 49 49 50 50 50 52 52 53 54 53 54 53 54 54 52 52 52 49 54 50 53 53 49 53 52 50 49 47 48 49 45 46 45 44 41 43 43 42 41 41 37 35 36 36 32 33 35 37 36 41 41 42 46 45 40 47 93 116 125 124 141 151 169 168 137 127 135 125 133 102 54 36 42 86 132 119 131 121 111 109 108 91 42 37 45 63 56 50 48 50 50 54 55 54 54 53 53 54 54 55 53 55 54 54 51 52 50 49 51 49 50 51 53 53 51 53 53 50 49 46 46 48 44 43 43 42 42 42 40 39 38 37 39 35 34 36 36 32 30 35 36 38 38 39 46 44 39 43 79 117 137 129 144 158 183 166 160 132 121 124 124 123 53 36 51 80 132 131 123 107 116 116 96 109 47 41 46 60 55 51 52 51 55 54 54 54 54 55 54 54 54 54 54 54 54 54 51 48 46 49 46 49 49 50 50 52 50 54 52 49 47 46 43 47 47 44 44 44 43 41 38 40 39 41 40 41 37 39 38 37 34 37 37 33 31 31 40 45 39 40 57 115 134 144 153 145 167 185 150 149 118 125 118 118 52 36 51 97 123 159 106 115 131 129 105 117 56 44 47 51 62 52 53 53 54 54 56 60 55 53 53 53 52 52 51 51 50 53 50 47 47 47 45 45 43 43 47 49 54 55 53 50 46 45 42 41 43 41 43 45 45 49 50 50 51 53 53 53 53 53 66 47 44 42 43 42 36 35 36 38 43 38 44 96 128 153 155 159 157 182 163 158 120 118 118 110 51 36 52 123 135 158 107 119 141 125 85 133 59 45 48 53 72 53 60 56 60 56 63 54 53 53 53 52 52 51 50 48 43 46 47 48 52 51 52 55 56 78 75 64 54 46 41 41 38 38 40 36 39 44 45 47 51 51 51 52 74 87 92 91 92 92 97 86 65 46 47 48 39 36 50 36 39 42 38 72 126 162 152 175 169 155 182 163 136 121 118 88 47 36 51 118 163 145 112 130 135 98 81 135 73 47 54 64 87 62 59 54 54 53 58 52 53 53 53 52 53 52 77 103 134 133 131 115 94 53 48 49 48 47 48 49 45 48 48 50 48 46 43 41 45 43 45 48 52 52 52 69 118 111 105 110 109 105 102 101 94 59 48 48 46 37 46 52 37 41 38 42 121 161 169 170 181 160 161 189 146 123 122 92 39 36 45 107 155 130 129 137 123 66 81 128 104 86 90 54 60 57 57 54 54 54 54 53 53 53 52 52 101 75 124 101 97 93 87 67 45 36 37 40 39 41 43 45 54 66 65 54 42 40 32 38 39 43 42 45 70 76 53 178 174 150 71 84 89 104 101 103 109 87 54 52 48 39 44 62 47 39 38 37 105 148 177 172 189 178 149 172 176 109 154 90 39 36 39 94 122 138 147 121 106 69 72 122 150 107 72 50 58 64 54 54 54 50 51 54 52 50 51 50 48 50 50 48 49 45 43 40 41 42 34 33 30 32 39 40 45 45 44 50 48 36 34 42 43 44 42 46 68 51 43 183 178 135 67 76 68 70 63 61 74 69 46 49 57 42 40 70 77 40 39 37 72 145 164 175 194 184 156 160 169 128 136 97 71 34 47 89 97 140 154 113 108 66 63 148 169 124 53 51 67 54 53 54 53 48 45 48 40 43 27 39 53 86 99 76 68 64 46 48 38 37 36 30 40 18 33 32 34 35 38 45 38 32 40 42 41 38 39 40 48 49 44 166 155 87 73 59 66 67 64 69 53 40 43 43 34 102 38 49 91 42 35 27 92 118 165 166 181 180 172 159 140 131 125 110 98 36 74 105 77 124 152 105 118 80 75 163 177 111 47 58 50 51 74 45 44 46 47 36 53 115 104 81 89 170 178 110 71 62 34 48 62 42 37 35 72 20 23 22 81 71 32 33 30 107 38 41 46 36 38 38 37 27 73 103 68 53 65 45 27 69 75 84 93 53 62 55 50 127 105 30 92 65 20 18 142 98 173 152 171 179 175 114 83 76 84 101 98 37 36 87 72 66 132 111 121 93 93 169 158 80 41 46 48 65 105 65 36 57 38 41 78 122 113 95 76 179 182 127 53 53 53 54 54 48 42 39 78 26 92 16 112 31 18 29 27 60 39 38 38 48 44 72 53 54 59 81 33 41 47 35 14 21 72 60 64 67 83 74 84 156 175 32 79 59 16 18 82 81 167 164 167 170 132 109 70 73 58 43 90 43 10 58 84 31 79 126 101 42 100 162 141 45 39 35 76 41 123 78 34 64 59 94 118 138 122 105 71 145 152 79 48 56 60 53 54 49 41 49 69 44 31 30 33 34 27 31 29 36 35 38 46 74 71 82 53 53 50 43 26 33 35 36 52 72 58 63 36 32 51 73 76 146 154 27 32 62 22 27 23 44 123 179 156 140 102 99 71 77 62 32 76 38 3 48 72 26 39 96 109 33 86 148 123 34 57 32 84 39 130 41 41 102 84 113 96 115 107 146 153 106 85 50 48 42 51 53 51 63 66 88 86 29 28 59 71 100 78 80 59 33 34 41 48 75 80 75 55 58 47 42 35 28 71 57 51 63 32 59 28 35 50 58 75 116 80 36 33 82 29 59 39 39 110 166 137 110 87 108 94 89 67 55 28 38 11 32 57 34 44 54 72 76 127 127 102 33 101 35 73 40 122 40 68 190 82 82 68 53 95 110 88 53 52 50 35 40 46 48 47 56 74 85 102 26 21 13 80 76 64 68 78 35 38 45 49 62 66 63 54 57 59 52 59 40 39 81 93 91 58 41 54 59 54 76 84 102 68 40 33 63 35 76 76 31 93 135 103 91 75 127 98 88 64 74 13 39 16 32 32 36 58 46 21 58 139 116 63 30 76 37 43 35 121 32 126 195 148 85 10 30 23 60 50 53 38 36 38 52 38 34 40 51 61 89 132 25 29 19 87 91 73 60 68 31 31 40 48 65 73 63 59 48 61 57 60 58 46 66 67 83 92 82 91 85 85 86 90 105 79 46 30 34 26 53 86 28 56 80 79 75 100 108 92 74 75 64 31 17 26 29 46 19 105 35 26 43 81 98 45 29 33 48 25 36 105 21 144 189 177 99 34 24 32 42 45 44 40 45 46 38 39 27 22 41 82 116 132 9 18 22 66 72 47 56 67 48 31 34 46 67 83 80 66 52 75 77 84 70 79 78 55 74 93 92 83 90 82 82 83 97 99 52 32 45 28 59 79 28 38 59 71 85 92 77 87 71 56 69 42 7 37 35 61 39 84 60 41 30 87 68 80 21 24 57 10 25 76 13 87 184 135 90 49 48 46 50 61 53 52 53 51 48 34 32 32 83 98 121 103 10 19 52 65 64 40 44 65 46 44 31 34 64 73 65 66 59 69 77 90 93 90 82 60 71 79 81 74 88 86 85 85 91 94 44 23 54 28 39 62 35 33 54 59 111 81 72 89 83 44 66 46 15 36 43 62 40 79 62 64 20 99 28 111 5 25 59 12 19 32 15 26 103 71 39 38 39 40 42 54 51 52 52 50 49 49 53 71 90 93 118 38 17 24 53 58 57 35 32 48 46 55 41 28 40 74 80 81 71 67 65 91 84 78 73 76 76 72 73 65 70 90 87 82 91 80 39 21 49 28 30 53 52 34 49 56 82 77 49 94 81 47 63 44 24 33 57 53 25 73 38 75 17 78 50 46 18 29 55 19 18 33 22 35 69 73 36 31 36 41 41 50 53 52 51 52 50 52 60 72 75 80 115 26 25 30 50 51 52 38 38 37 48 48 40 34 30 55 87 85 97 89 75 76 78 75 74 70 67 67 61 59 66 81 88 77 87 79 46 22 48 28 33 45 58 38 50 66 54 52 35 95 61 48 47 46 28 28 33 36 29 68 30 95 38 69 73 30 26 31 48 19 16 41 29 37 77 70 51 58 61 63 65 64 62 54 52 53 53 54 59 62 72 65 90 24 27 33 46 52 48 38 46 46 54 46 37 39 36 35 71 78 81 95 83 71 68 72 65 63 58 60 61 59 66 72 79 74 80 90 51 22 66 21 42 39 53 41 64 83 83 85 54 93 46 49 30 46 25 27 32 29 29 70 88 96 53 51 72 34 33 28 42 26 17 40 43 42 61 67 58 70 77 80 75 63 68 53 51 52 54 54 55 54 63 60 43 33 27 36 49 44 53 39 55 45 63 50 42 39 41 43 39 72 79 79 80 70 70 67 62 59 64 61 60 61 61 71 63 62 70 100 47 82 46 22 44 38 49 40 61 100 83 92 77 91 36 53 32 46 19 28 28 29 32 59 114 63 50 41 61 37 35 33 40 37 21 36 52 43 47 57 63 69 66 69 61 60 52 54 54 54 54 54 48 49 50 75 36 43 31 37 61 42 52 52 106 50 45 74 65 46 44 49 47 38 63 77 68 62 70 64 57 56 58 60 53 61 59 51 51 52 70 78 64 140 28 36 41 41 46 41 32 83 68 60 86 75 35 57 39 46 12 25 26 23 34 64 125 53 54 47 49 46 27 37 33 48 24 26 64 43 48 58 63 63 52 56 52 54 53 53 53 53 54 51 41 46 53 49 43 36 40 41 65 55 76 64 116 48 43 66 78 50 47 50 52 45 40 45 68 57 59 58 50 53 48 54 47 53 52 54 74 62 64 41 31 56 54 39 36 40 46 37 33 57 62 44 75 79 32 42 33 37 10 22 25 25 41 62 94 65 53 53 42 45 40 25 26 63 25 22 40 47 51 54 63 55 53 54 53 53 53 52 53 53 50 44 46 51 51 39 45 34 41 42 43 44 99 43 64 48 42 46 38 36 45 49 50 63 43 39 39 44 47 51 52 51 50 49 50 49 49 64 54 32 29 26 31 80 49 38 37 42 44 33 34 42 55 42 57 81 32 39 25 24 13 15 22 29 43 66 89 81 50 53 54 39 40 37 29 37 33 26 36 41 53 54 61 60 54 54 53 53 53 53 52 51 46 50 52 54 41 43 35 43 43 43 42 44 51 45 46 47 41 41 42 38 36 40 56 67 70 43 36 37 39 42 45 46 46 46 42 37 32 31 30 28 30 26 71 62 42 39 39 41 41 41 28 40 52 45 50 66 42 30 28 14 31 18 17 25 41 62 87 74 45 52 53 49 37 42 51 34 39 23 29 33 52 54 55 59 54 54 53 53 53 52 50 50 49 53 51 39 39 37 38 54 42 41 42 43 44 44 42 43 42 41 43 42 41 37 43 37 75 73 41 43 47 46 44 45 44 44 40 42 40 39 37 36 25 53 60 40 40 41 39 39 42 49 30 34 47 44 45 35 40 31 27 10 42 19 13 10 17 55 71 85 48 49 53 50 39 43 45 36 37 40 33 31 47 49 50 49 53 53 51 50 50 53 51 52 52 49 39 39 36 36 46 56 40 39 39 40 44 46 41 42 42 43 42 38 36 40 43 41 32 37 42 44 51 51 49 52 51 49 48 47 45 39 33 37 54 51 38 41 40 43 41 43 41 53 64 31 23 27 31 26 37 37 19 17 51 14 26 8 0 48 50 63 74 44 52 51 41 41 42 45 33 46 48 32 39 51 51 53 59 50 51 54 53 53 53 53 46 40 38 36 40 48 53 43 39 37 26 25 36 49 43 39 41 46 43 41 32 33 39 37 35 40 36 32 42 48 51 52 50 50 47 49 48 57 71 74 56 42 41 40 40 44 43 44 43 63 78 36 17 17 26 25 45 51 10 33 49 8 30 29 8 39 46 46 83 54 53 48 42 39 40 40 41 38 58 48 44 49 50 52 59 64 50 51 50 52 49 43 42 40 40 43 48 53 62 46 42 30 23 27 39 45 42 39 41 48 45 46 42 36 33 34 36 36 31 36 46 48 49 49 50 63 65 76 74 67 68 74 69 58 47 41 41 43 44 43 45 64 70 34 17 17 24 31 60 41 20 51 51 22 17 30 29 38 42 36 56 54 52 50 42 39 40 40 42 41 43 43 41 42 44 42 45 46 46 45 44 46 45 44 46 46 45 44 49 68 63 49 38 27 31 40 46 42 43 39 41 44 46 47 47 51 46 34 32 36 33 39 58 44 45 46 48 53 56 57 58 58 61 78 69 67 50 40 43 46 43 41 42 76 49 32 22 18 26 34 57 40 43 51 50 16 11 19 29 24 38 33 40 48 52 52 44 38 39 39 45 45 47 50 50 52 45 47 50 48 51 49 47 50 51 51 51 48 49 39 74 95 63 47 42 33 41 47 48 42 39 38 36 42 44 47 46 54 51 45 38 35 39 45 61 50 47 45 46 44 49 43 51 59 53 63 57 63 52 48 47 47 41 38 40 79 44 30 30 29 31 38 52 84 51 51 52 17 18 16 25 15 35 34 40 40 51 52 49 43 37 38 42 46 44 45 44 41 42 43 48 48 54 52 53 55 61 74 54 52 50 68 109 106 75 41 38 39 39 76 64 52 26 30 33 41 44 49 47 53 52 48 46 41 39 36 37 49 46 48 47 47 45 43 51 60 56 58 61 56 45 49 46 42 46 40 43 72 44 36 36 41 43 54 81 123 49 51 52 29 18 26 33 17 28 35 48 43 53 64 53 48 31 36 40 44 42 42 38 38 40 40 42 47 52 65 67 72 68 68 51 55 71 92 131 120 89 57 46 66 67 68 83 88 54 28 29 40 49 53 47 51 54 49 46 43 40 38 34 42 43 38 42 42 47 44 43 57 56 52 53 50 48 40 47 46 46 44 44 68 42 38 39 50 58 88 130 89 52 52 52 39 34 27 32 35 25 22 47 41 51 74 51 42 30 42 38 43 39 37 32 37 38 37 42 52 65 70 72 74 74 61 65 59 78 114 133 120 83 70 78 84 83 77 79 80 67 47 26 43 55 63 52 45 51 51 45 41 38 39 33 51 38 38 34 39 39 45 44 48 48 46 50 44 46 40 47 42 43 44 47 57 39 35 49 66 89 117 143 53 50 52 52 44 42 39 41 38 47 25 32 36 56 82 49 40 37 53 33 37 36 30 30 33 37 35 61 60 64 62 77 75 66 75 79 78 89 120 125 102 77 107 125 106 93 90 76 69 79 51 52 82 83 84 87 45 47 48 59 49 34 35 33 46 41 33 36 34 35 48 50 43 42 50 47 49 44 39 45 42 45 44 48 55 52 65 77 81 105 135 114 50 51 52 53 42 43 40 43 45 41 43 36 68 76 81 51 42 41 86 30 31 28 27 31 35 33 59 69 69 62 81 87 81 69 77 88 78 102 111 115 112 101 121 124 113 103 98 92 72 70 65 78 88 101 99 90 91 61 63 56 47 32 33 31 46 46 30 33 29 37 52 48 35 44 50 48 52 49 39 50 45 46 42 47 77 79 76 78 92 131 138 53 51 52 50 52 41 43 37 39 41 40 34 30 105 139 95 50 47 37 91 30 26 26 30 35 36 40 60 66 68 75 75 85 75 73 70 88 93 113 111 100 109 109 109 115 116 106 122 110 82 84 76 92 112 114 125 109 104 81 73 57 54 43 32 33 39 38 42 28 27 34 54 38 32 42 57 49 56 51 51 47 42 45 39 56 78 95 86 82 108 142 99 52 52 52 53 52 42 43 38 38 37 42 32 30 73 149 114 46 53 36 54 29 20 25 32 36 38 38 54 60 69 71 72 74 74 81 72 80 100 103 99 93 98 85 87 100 101 114 118 123 106 96 101 101 117 109 117 88 79 72 64 59 52 47 38 33 37 39 45 37 29 26 45 54 44 41 53 58 57 54 48 54 46 45 37 66 70 95 99 105 123 113 53 53 51 51 52 51 43 43 40 39 37 39 34 29 33 148 130 51 45 44 35 28 23 28 31 47 38 49 52 60 60 68 68 73 79 87 68 64 71 83 80 98 85 83 88 106 111 122 102 72 74 58 79 88 99 72 50 34 35 33 28 36 32 44 47 43 34 39 50 47 52 33 47 53 44 42 57 60 53 57 47 53 50 52 51 76 68 92 111 106 92 53 52 50 52 50 52 52 43 43 44 40 38 39 33 32 33 136 138 76 49 63 33 26 26 29 31 37 47 49 46 53 61 64 64 66 65 79 73 59 58 78 67 90 78 88 85 118 102 77 33 29 26 29 31 32 37 32 30 27 25 26 21 22 18 20 25 29 37 37 32 31 48 34 34 51 42 53 64 63 55 54 56 61 62 43 76 93 53 82 91 70 53 52 52 52 51 51 53 52 43 45 43 42 40 39 36 31 31 125 118 125 66 77 51 52 27 29 30 31 47 41 56 50 65 62 65 71 62 74 77 56 53 76 71 85 86 82 99 80 41 37 30 28 25 25 26 29 28 23 26 26 23 21 18 19 14 11 15 18 26 25 27 22 24 32 30 40 45 49 66 58 54 51 59 66 68 48 109 96 53 55 61 53 53 52 52 53 52 52 53 52 42 45 42 43 42 43 39 32 31 78 122 114 77 72 70 70 28 30 28 31 37 47 43 56 52 68 72 65 75 76 70 51 69 78 80 79 78 71 56 41 37 34 25 18 21 27 27 28 22 32 29 26 28 19 18 16 9 11 14 13 20 21 24 19 23 25 29 42 49 54 65 61 54 52 63 63 65 52 126 87 53 62 55 53 53 51 51 52 52 52 52 52 44 44 42 41 42 45 41 37 33 39 141 113 87 63 73 72 30 32 31 30 34 40 44 47 43 55 68 68 71 78 64 63 69 77 70 69 67 40 37 31 31 24 24 19 36 32 33 36 22 41 33 29 32 22 18 15 12 18 14 13 16 15 18 19 26 25 24 42 53 67 69 57 46 52 65 64 56 70 135 68 53 71 54 52 50 52 49 52 53 50 52 53 44 43 44 43 43 42 43 38 36 34 100 115 98 68 64 55 34 29 30 32 34 42 37 42 51 53 66 78 70 72 64 62 70 61 46 57 35 28 26 21 19 18 25 24 41 92 66 76 24 19 26 22 26 26 28 26 29 26 25 23 21 19 23 25 30 28 25 40 55 67 68 49 49 55 66 66 41 99 134 60 53 69 53 50 52 51 52 51 53 53 51 52 44 44 42 43 42 42 42 41 36 36 39 105 123 75 58 52 58 24 31 32 31 40 45 38 48 57 67 81 77 77 64 62 63 41 24 28 21 14 17 22 9 11 14 16 18 24 21 17 12 6 11 26 30 34 34 32 32 27 26 30 26 36 32 30 31 29 28 39 56 65 60 46 54 62 64 65 45 114 133 53 53 54 53 51 53 51 53 51 51 52 50 52 45 43 44 43 43 42 44 39 38 35 33 39 124 79 67 57 67 23 34 36 30 48 44 47 47 62 64 89 78 74 61 41 49 12 12 18 16 6 16 22 24 19 24 21 21 17 15 12 17 15 32 32 34 34 33 32 30 29 26 27 43 69 53 50 31 32 29 39 53 58 51 49 56 61 64 56 60 126 122 53 60 53 53 52 51 52 51 51 52 52 51 52 43 43 43 44 43 41 44 40 38 36 34 32 38 75 49 49 37 25 31 47 50 54 59 54 49 54 55 79 83 71 60 49 55 23 16 19 31 42 61 41 58 47 56 44 48 40 35 45 47 53 62 33 35 36 32 35 29 28 28 40 62 70 68 57 38 32 29 39 52 54 49 48 58 59 64 53 79 135 99 53 53 53 53 51 51 52 52 51 51 52 51 53 43 43 43 42 44 42 42 43 38 39 37 33 31 30 33 33 29 26 31 39 46 56 66 55 57 47 59 66 78 67 68 58 53 37 32 81 104 75 74 67 70 80 86 89 86 106 81 56 46 62 55 45 37 37 35 34 28 32 52 55 62 66 62 55 39 37 31 36 52 46 45 54 54 59 67 51 101 134 71 53 53 53 51 52 52 51 52 52 51 52 51 53 44 45 43 45 43 42 44 42 40 37 36 32 34 32 37 18 20 17 34 32 31 44 62 70 60 53 51 75 87 82 82 64 70 57 48 112 125 122 107 102 93 99 109 98 97 95 89 81 87 78 56 55 49 48 50 47 56 61 71 58 63 60 56 49 40 30 30 40 45 52 45 57 57 54 71 58 110 129 53 53 53 52 52 52 51 51 52 52 51 53 52 53 43 43 45 44 43 43 42 45 40 39 34 33 31 36 33 17 20 13 31 34 31 35 55 61 66 63 59 91 110 104 106 90 91 78 96 136 138 142 129 129 100 103 109 88 92 90 78 98 104 71 60 55 54 65 76 84 93 89 88 75 69 63 49 47 43 31 34 38 49 48 53 51 55 65 71 59 113 122 53 52 53 53 52 52 52 53 51 52 52 52 52 53 43 43 45 42 44 43 43 43 43 40 36 31 32 34 34 38 19 14 17 34 31 31 37 46 56 49 39 61 88 92 79 70 58 63 92 104 105 106 108 108 85 94 76 79 70 61 48 51 53 50 52 50 50 73 79 84 82 93 77 74 58 56 39 44 35 31 42 38 37 52 53 54 55 71 65 66 110 125 53 52 52 51 52 52 51 52 52 52 52 53 53 51 44 44 44 43 44 42 42 42 45 41 34 32 31 36 35 33 20 18 12 30 32 30 30 37 39 36 34 41 57 71 53 44 43 48 76 89 93 78 83 80 68 53 49 53 53 53 48 49 47 49 50 50 47 49 55 64 66 68 65 54 53 53 42 39 31 39 36 40 37 49 47 57 68 81 61 69 102 133 52 51 52 51 53 50 52 51 52 52 52 52 51 52 44 45 43 44 43 43 43 42 42 43 35 33 33 35 36 31 38 19 15 20 33 32 32 34 30 35 37 38 44 46 47 41 38 39 55 72 74 80 74 76 61 64 54 53 53 53 50 50 49 50 51 50 47 47 47 42 44 42 43 41 42 43 42 31 34 39 44 46 47 52 54 62 79 82 66 73 98 138 52 51 52 51 53 51 52 51 53 51 51 52 51 53 44 45 45 44 44 44 44 42 43 42 39 31 34 39 37 37 35 23 17 11 28 32 34 33 30 31 35 35 36 38 42 39 37 36 37 44 55 57 60 65 63 59 53 48 46 50 49 51 52 52 50 47 42 44 39 37 34 32 32 32 32 32 34 30 37 38 42 55 46 49 60 72 85 73 80 64 106 137 52 52 52 51 53 51 51 52 52 52 52 53 52 53 44 44 44 44 44 45 43 43 41 41 43 32 34 42 38 38 36 31 18 15 17 32 33 33 31 34 32 35 34 35 37 38 37 39 44 37 51 48 49 52 59 53 40 41 43 42 43 43 44 42 42 41 40 40 39 36 32 34 32 32 32 30 39 37 41 42 54 51 44 54 65 85 80 69 85 62 107 137 50 53 52 52 51 52 52 53 52 53 51 53 53 53 44 44 44 44 42 44 42 44 41 39 44 36 34 41 40 40 36 36 26 18 20 22 34 33 31 32 34 33 34 33 36 37 36 37 50 37 53 50 47 50 47 54 40 33 34 32 33 33 33 34 35 39 39 40 39 38 36 32 30 32 32 31 46 33 48 56 53 51 43 59 76 85 74 72 82 70 109 145 52 52 53 52 51 52 53 52 52 52 50 53 51 53 45 43 45 44 43 43 42 44 39 38 40 44 36 40 41 43 40 38 27 24 19 17 26 33 32 33 34 35 35 33 33 38 36 33 36 34 36 40 51 44 42 52 48 56 57 41 44 42 42 45 47 53 57 52 50 43 41 32 30 32 33 53 63 48 56 68 61 53 56 74 81 80 67 72 84 72 110 145 51 52 52 52 52 52 52 51 52 52 52 53 53 53 44 45 43 43 43 43 43 42 42 38 37 44 45 43 41 42 40 44 30 28 21 19 15 29 34 32 34 38 37 36 36 37 38 36 36 47 39 33 47 44 37 42 50 58 70 67 67 61 66 58 62 53 52 61 46 48 48 36 35 46 48 63 64 63 68 72 68 52 51 76 80 75 65 76 82 75 117 157 53 49 53 52 53 52 52 52 52 52 52 53 53 53 46 44 45 44 43 43 44 42 40 40 37 37 48 47 44 40 40 44 32 29 24 20 16 22 35 33 33 38 41 38 37 39 41 41 42 42 43 39 38 40 41 42 42 59 68 65 70 60 63 52 63 51 58 56 43 39 44 53 54 53 70 62 65 68 74 71 68 57 52 74 76 70 67 79 86 77 114 163 50 51 48 53 51 52 51 53 53 53 52 51 53 53 45 44 44 44 44 43 45 41 40 40 39 33 44 51 45 41 40 45 31 32 27 23 19 21 37 34 34 37 39 39 35 40 42 42 44 41 41 39 36 38 37 34 36 52 61 56 67 63 71 59 61 58 58 58 53 47 49 58 48 60 59 60 68 72 75 61 60 54 56 79 64 70 68 83 85 77 114 163 51 47 52 49 51 52 53 51 52 53 52 53 52 53 42 43 42 44 44 43 44 40 39 38 40 36 34 51 50 46 42 44 29 32 31 27 22 20 36 36 36 36 38 40 34 39 41 42 45 43 43 40 38 39 38 39 39 41 42 46 52 61 63 65 63 58 64 57 49 45 46 47 38 57 54 57 68 72 66 61 54 59 65 70 59 65 68 82 85 77 114 157 53 47 51 50 50 51 50 52 52 51 51 53 52 52 44 43 43 43 45 42 42 40 38 40 38 38 35 40 51 51 47 46 28 29 33 27 28 18 34 36 34 35 35 38 37 40 42 42 45 46 46 45 42 45 51 54 46 46 45 43 61 48 50 37 59 54 47 55 42 44 46 35 44 48 60 63 68 63 60 58 55 59 65 65 50 73 71 79 83 76 114 150 111 61 50 51 52 50 51 51 50 52 52 53 52 52 42 43 41 44 45 42 41 39 40 39 40 40 38 36 40 50 49 49 26 27 29 30 26 25 29 44 36 37 33 39 38 42 42 41 43 47 48 52 55 51 50 52 52 49 52 50 57 50 44 39 44 37 39 36 41 34 41 31 32 41 61 58 62 67 63 57 56 54 55 50 52 78 72 73 84 77 112 150 93 132 96 49 51 50 50 52 49 51 50 54 51 52 44 42 44 44 43 43 40 38 39 40 39 42 37 38 39 49 49 45 25 24 25 26 27 26 28 55 36 37 36 35 35 42 41 37 41 42 47 51 53 52 51 51 51 51 51 49 48 46 44 39 39 39 37 35 36 32 31 33 32 51 52 53 61 50 57 54 53 52 39 43 56 73 68 70 93 76 112 156 62 90 151 106 47 50 52 50 52 51 50 50 51 52 42 44 42 45 44 41 41 40 39 39 38 43 38 36 39 44 49 41 25 23 23 22 25 26 22 52 53 35 40 35 34 38 38 38 38 42 44 46 49 51 50 53 48 48 47 44 43 42 41 39 40 36 38 30 31 32 32 33 32 45 51 54 49 49 50 45 48 41 39 47 56 72 66 75 86 77 114 159 71 59 117 170 96 48 49 52 50 51 52 49 53 50 43 46 41 45 42 42 41 40 41 38 36 45 37 38 36 44 47 38 24 21 21 17 20 23 22 37 53 45 36 38 36 34 35 35 35 37 39 43 41 46 49 48 47 43 46 38 40 38 41 39 37 30 27 29 30 30 30 30 34 40 41 47 46 44 45 48 38 39 44 45 54 68 65 85 84 71 115 167 48 61 82 153 188 83 49 49 51 50 50 51 53 51 43 43 43 44 43 41 41 40 39 38 37 43 38 36 36 42 43 34 25 21 19 17 15 18 29 31 38 55 47 50 41 34 30 32 31 32 32 37 35 39 46 46 43 40 40 37 35 39 37 33 30 24 25 28 28 27 28 31 34 37 39 45 45 42 41 40 37 36 46 38 48 65 71 83 92 70 124 168 52 50 104 118 206 184 53 52 50 51 51 52 50 49 44 42 44 43 42 41 40 41 40 38 37 42 40 35 35 39 44 32 24 23 18 16 12 22 23 24 43 49 50 53 65 51 32 30 30 27 28 31 30 34 37 37 38 36 36 36 34 32 32 28 24 21 26 28 26 27 27 35 33 40 43 40 44 41 39 38 35 34 38 41 56 62 70 82 90 70 119 169 50 49 112 109 191 236 174 51 50 51 51 52 50 52 43 42 42 45 42 41 40 40 39 39 37 44 38 40 26 39 43 31 26 22 19 16 16 93 17 15 50 46 56 48 67 69 54 32 31 28 24 27 27 28 28 30 33 32 31 30 29 27 28 29 28 28 29 30 29 29 31 35 38 42 39 36 41 42 39 35 31 32 42 40 65 67 73 82 84 82 120 165 49 48 75 149 160 246 212 140 47 51 49 49 53 49 43 42 43 43 41 41 40 40 39 37 35 47 38 38 26 36 42 30 28 21 19 16 67 50 18 11 51 52 53 63 60 64 67 67 49 44 34 24 25 26 28 25 26 27 25 26 25 23 26 29 29 30 32 31 32 31 33 37 39 36 38 38 38 39 37 32 29 40 44 41 60 65 76 87 92 78 127 151 48 50 56 162 155 211 237 205 78 49 53 49 53 51 43 44 43 41 41 40 42 39 35 40 52 51 37 37 28 35 40 38 26 23 18 26 102 40 19 9 29 59 49 68 66 62 48 80 72 75 59 42 33 22 26 24 23 22 24 24 23 25 27 27 29 29 31 30 33 34 37 35 34 37 39 38 39 35 34 31 34 45 48 46 61 64 72 96 93 80 140 114 49 49 78 147 203 155 254 210 195 51 50 52 50 52 44 43 45 42 43 42 41 33 42 53 53 37 39 35 29 35 40 51 25 22 22 123 67 50 20 9 16 60 54 64 62 70 47 67 66 63 72 63 57 45 38 33 22 23 21 23 23 26 26 29 27 29 30 32 34 33 34 32 36 35 38 39 36 38 32 36 36 50 37 51 61 64 76 100 95 85 147 81 51 48 95 158 187 170 215 244 218 127 52 58 55 51 43 46 44 42 43 44 35 36 53 53 24 27 42 35 31 34 40 42 27 23 60 120 79 40 22 8 14 60 56 46 65 56 58 68 64 61 62 62 62 59 61 52 50 31 35 25 24 25 26 29 27 29 29 30 29 31 31 36 37 36 38 36 38 34 29 28 43 34 35 59 53 73 83 105 92 103 136 62 50 47 82 196 150 220 159 250 209 204 156 172 180 170 