P2
92
112
255
102 97 99 104 102 106 101 101 94 101 105 95 96 93 98 93 95 92 89 99 112 123 120 88 110 106 119 117 139 132 90 139 123 78 83 79 63 73 82 46 59 69 85 67 26 58 74 50 30 38 41 42 37 50 44 47 52 51 39 44 53 94 137 129 77 85 122 122 124 109 100 92 88 86 70 96 90 87 83 96 86 91 85 96 96 90 95 93 101 91 94 97 102 105 99 111 101 93 105 98 101 105 108 92 104 97 93 94 96 98 107 123 134 132 114 100 79 90 83 83 100 95 88 56 74 66 66 73 95 65 74 80 79 59 55 47 36 40 50 59 49 46 45 35 33 50 36 32 26 34 38 51 62 78 148 132 83 88 116 139 126 129 106 87 73 80 90 85 89 90 93 86 93 84 93 93 100 91 92 90 102 87 100 94 106 102 108 102 102 103 104 100 98 111 102 103 101 105 102 99 108 107 119 127 143 121 100 83 76 56 58 56 76 60 56 59 51 67 82 74 66 59 58 53 53 59 55 52 53 41 48 52 52 48 45 46 51 46 37 42 35 45 52 54 57 59 135 119 81 88 103 134 138 133 127 84 82 91 97 90 82 92 92 89 97 80 92 95 91 103 86 99 99 82 100 98 108 96 101 106 101 109 91 101 94 100 93 100 93 107 89 109 100 110 123 123 119 121 95 78 59 36 38 43 55 51 56 70 62 52 62 56 23 35 48 53 49 43 64 57 56 49 49 35 41 49 57 54 49 49 60 67 53 44 49 53 61 57 100 88 71 73 87 107 100 114 98 98 92 100 91 91 84 95 98 94 96 81 91 90 102 98 91 93 101 95 98 93 102 102 98 103 104 107 87 102 94 94 103 83 100 105 93 101 108 123 138 133 118 108 72 40 33 31 35 47 43 58 42 58 74 53 55 50 31 11 17 34 50 50 69 65 71 68 51 48 57 58 64 64 64 54 67 68 59 49 58 61 65 68 64 62 62 60 74 95 85 59 81 70 61 97 105 86 83 78 93 96 98 94 100 95 96 103 93 90 92 95 95 90 105 101 101 95 104 95 106 105 93 106 80 99 102 119 117 116 107 139 151 128 109 45 40 38 42 47 64 104 67 48 49 51 70 72 57 58 60 43 37 30 27 44 77 73 80 73 76 57 64 65 63 71 69 66 70 69 60 48 56 63 69 67 66 63 67 72 66 84 94 50 56 61 47 49 102 106 107 91 95 111 104 112 121 105 96 93 104 98 87 109 84 99 111 102 104 105 104 95 99 101 93 101 87 91 115 107 122 132 131 128 136 84 47 38 35 42 51 76 85 94 69 72 66 73 72 80 79 67 63 69 62 58 46 28 50 76 81 76 69 61 53 62 69 63 71 74 72 60 51 43 52 55 61 57 62 66 63 63 69 75 90 70 78 76 46 55 48 107 114 127 123 110 110 99 119 98 100 95 99 90 104 99 95 98 107 104 108 102 105 100 92 95 93 94 87 105 123 129 110 125 134 100 52 42 40 32 42 57 65 68 64 73 72 69 83 85 69 73 83 82 72 64 68 64 81 72 49 54 68 71 66 61 62 66 67 76 66 56 54 49 43 50 52 56 54 58 58 65 67 66 79 82 90 71 95 89 87 56 39 62 114 130 127 108 116 88 107 106 93 91 97 88 95 98 94 103 104 107 98 102 97 99 93 97 102 87 92 119 128 126 120 118 115 46 43 39 50 47 58 74 75 64 62 71 75 62 63 74 76 77 76 78 77 74 65 59 74 76 66 55 50 61 72 79 69 71 70 68 62 54 53 54 53 53 50 51 57 54 55 66 63 63 67 86 77 82 92 94 104 56 38 51 88 126 125 98 129 89 100 77 80 89 84 92 93 102 91 97 110 93 101 101 94 99 93 86 111 105 98 114 99 109 118 56 39 37 42 45 53 60 71 86 76 65 65 60 75 78 75 71 69 83 83 87 89 85 89 80 85 78 78 70 60 64 60 61 72 65 65 60 56 61 56 59 55 56 51 55 54 58 57 62 52 62 66 90 96 68 93 90 84 56 52 58 65 100 117 91 113 87 84 56 94 95 93 87 105 86 99 90 101 98 97 94 104 95 91 89 101 116 109 105 110 89 62 37 33 39 40 47 55 67 74 90 89 81 78 76 76 71 82 76 72 69 73 81 89 83 93 95 96 87 81 83 80 76 67 50 50 56 70 68 66 62 65 57 62 53 52 47 58 54 60 59 47 59 67 79 99 97 58 68 56 67 66 85 93 77 60 108 120 122 106 92 99 94 92 93 92 101 85 92 99 107 109 98 103 96 89 96 89 120 120 114 69 34 30 35 23 42 43 57 69 72 81 87 90 97 93 91 87 88 78 65 72 70 62 67 73 76 85 91 90 79 80 89 91 82 73 68 60 65 70 68 75 73 58 58 56 55 57 54 50 47 64 52 51 63 88 78 82 62 54 58 55 64 60 88 88 73 61 112 126 118 102 96 102 85 105 89 89 94 95 97 103 101 102 110 100 98 100 94 98 98 136 77 38 37 35 35 33 53 66 66 72 77 87 88 91 99 99 98 96 89 87 73 70 76 91 91 92 87 88 86 91 90 84 82 79 79 72 65 67 72 67 64 74 72 64 66 64 61 60 53 51 58 57 57 59 61 66 59 59 60 61 57 76 69 59 65 58 71 84 78 109 113 95 92 102 96 88 106 91 105 94 94 103 98 96 119 113 121 123 114 102 114 98 47 46 49 34 44 51 70 81 79 75 70 83 91 90 96 97 94 93 90 88 76 73 73 75 79 84 95 93 85 84 80 75 79 83 67 71 62 66 67 64 71 70 73 66 76 64 64 64 59 59 56 56 58 58 60 62 59 58 58 76 94 92 74 69 67 69 89 89 70 89 100 96 89 91 100 87 99 88 94 95 95 105 104 121 124 123 123 133 139 116 87 48 54 48 45 47 52 68 77 80 83 78 80 76 88 88 91 93 92 96 96 92 86 90 88 85 79 79 80 86 82 78 76 76 88 80 75 72 69 72 61 65 67 69 63 71 70 64 65 68 65 65 59 59 57 57 62 64 62 63 63 64 77 67 63 60 65 63 73 78 59 53 75 70 74 78 88 94 100 96 95 99 101 93 102 120 130 123 132 136 148 123 52 52 47 53 48 53 69 76 81 83 87 82 77 79 82 86 89 90 97 99 94 90 93 94 94 91 86 83 81 80 78 74 72 80 86 77 79 69 80 80 73 75 71 74 66 77 62 62 67 67 68 69 69 64 61 60 61 63 67 70 73 70 69 65 59 57 60 61 61 64 85 58 52 54 50 39 44 60 104 91 98 96 102 98 109 119 122 138 131 141 128 83 44 49 47 52 54 65 79 80 86 82 84 83 80 80 83 87 94 96 96 93 94 90 95 96 93 86 82 80 79 80 71 73 76 82 89 78 79 80 79 83 75 83 79 77 79 66 65 66 69 72 72 72 73 75 76 70 65 49 58 55 56 66 65 69 62 62 70 65 65 68 86 74 79 55 55 45 30 27 40 63 84 97 95 110 118 130 140 137 146 135 118 42 38 45 48 52 59 81 85 83 78 76 74 79 73 87 94 84 85 86 81 83 87 87 90 87 87 83 87 97 99 101 102 112 128 122 113 112 114 120 108 105 97 99 89 79 79 71 72 72 69 73 77 77 78 78 76 63 56 49 42 44 45 48 49 65 71 70 72 76 67 73 68 99 89 121 67 69 78 66 72 41 60 79 90 103 115 150 172 164 144 134 71 46 45 45 51 50 64 80 80 75 74 76 75 69 81 92 88 86 86 79 75 84 81 89 79 83 85 109 118 121 125 130 129 145 145 144 138 130 136 138 134 131 128 126 121 103 92 79 74 77 76 76 77 77 79 79 76 61 56 47 34 35 38 42 42 43 58 63 72 74 75 74 79 100 97 109 109 77 35 82 94 94 86 94 94 99 121 148 157 158 127 62 49 46 45 48 51 61 70 75 76 73 70 71 76 82 89 92 88 87 74 65 70 75 79 82 92 100 109 133 146 144 149 149 145 149 160 160 157 148 143 144 140 146 138 133 121 122 124 99 88 86 81 79 79 79 76 73 71 64 55 47 33 31 32 40 31 45 45 52 70 76 71 70 84 104 133 113 119 104 54 30 85 97 86 103 101 104 117 172 174 123 62 51 53 48 44 47 51 70 73 71 70 66 70 72 78 87 90 95 89 76 66 69 65 76 81 111 121 137 137 148 161 154 173 157 153 155 156 160 152 152 148 146 147 148 149 137 132 128 133 121 104 101 91 85 81 78 73 68 68 62 55 49 37 29 28 28 39 43 55 48 67 78 84 82 86 76 109 120 111 131 68 48 66 85 94 105 101 110 131 156 142 82 59 57 49 38 40 50 62 73 75 77 71 70 70 73 76 81 85 83 72 71 73 66 71 112 134 147 153 161 153 160 157 156 165 156 148 145 150 148 148 158 146 145 149 148 142 154 143 137 135 119 114 101 100 99 84 72 74 69 66 63 58 47 45 35 26 25 34 44 63 59 65 80 83 102 97 91 71 117 118 114 97 55 79 79 93 107 105 119 142 154 102 61 60 49 40 40 47 67 64 72 74 76 71 66 72 70 68 76 80 78 78 92 104 93 127 139 150 155 166 152 155 159 156 154 145 147 136 134 130 144 139 139 138 138 138 142 144 147 146 145 145 132 122 113 106 108 99 81 68 69 65 61 61 55 47 41 32 21 22 41 45 64 60 77 83 100 108 101 81 88 134 114 114 58 47 103 85 100 99 121 160 123 56 68 54 43 36 41 58 61 65 70 75 71 67 66 69 63 67 71 79 121 131 128 111 122 143 143 150 153 150 148 145 140 137 135 133 128 129 125 129 136 134 133 129 126 124 135 145 138 140 146 145 134 127 124 118 110 100 92 66 72 69 66 68 57 54 47 38 31 16 26 52 50 59 67 80 80 103 102 97 81 124 104 102 66 57 87 99 103 98 133 162 91 57 59 51 37 33 49 58 56 58 53 52 66 67 66 61 60 69 75 99 129 115 102 104 123 131 132 127 135 129 141 125 121 122 121 123 119 121 121 122 125 131 129 114 107 123 134 132 130 138 135 134 135 118 127 109 113 106 103 80 76 63 67 69 71 51 50 44 39 26 18 45 50 55 65 72 71 91 102 105 96 90 98 76 93 84 62 113 100 112 154 134 47 59 58 41 38 34 52 58 57 57 39 53 55 67 65 62 65 71 84 97 97 100 101 105 111 116 123 120 122 122 124 114 105 112 105 110 117 111 113 112 118 117 116 114 108 121 131 125 133 124 125 121 126 125 115 115 108 113 99 98 77 70 77 63 69 58 52 49 45 39 29 31 53 50 63 63 72 71 100 105 108 98 84 71 95 132 61 88 131 105 134 49 47 61 50 38 33 42 62 57 53 53 46 52 56 66 65 65 69 80 88 88 93 97 94 98 103 102 118 122 118 115 117 110 91 93 95 93 99 94 100 99 106 112 110 114 104 115 118 119 123 121 120 119 116 117 117 112 107 110 102 97 92 87 81 72 63 57 54 49 48 47 41 27 49 60 56 69 66 70 86 106 106 110 94 72 78 124 101 93 142 124 66 46 60 60 46 32 34 60 63 47 49 51 50 60 60 66 69 73 82 81 81 84 85 90 89 95 97 96 105 110 110 115 110 103 96 90 96 95 101 93 91 97 99 108 108 106 101 98 105 100 110 113 114 113 114 109 109 107 104 104 101 101 98 102 81 88 74 63 54 53 52 54 49 40 43 55 57 59 64 72 76 98 105 115 109 85 59 111 114 119 148 138 42 47 66 55 36 30 46 61 39 39 47 54 59 63 67 71 68 72 82 85 80 90 94 93 93 93 95 99 99 104 106 103 110 100 96 87 92 91 94 95 93 94 99 98 105 98 94 100 97 88 100 109 106 109 109 111 102 106 103 102 96 108 102 106 94 93 88 84 62 55 58 55 55 49 54 57 59 53 67 72 73 94 104 116 111 105 67 104 131 126 148 146 44 55 68 51 34 34 56 54 56 56 61 64 64 68 69 70 69 77 83 83 91 96 92 92 94 93 92 96 101 103 108 102 103 102 98 94 94 96 92 90 90 93 97 93 93 102 92 95 101 98 91 103 103 98 108 107 109 104 99 99 104 100 108 99 103 103 105 96 82 62 63 61 59 58 52 60 63 62 57 77 77 81 108 108 116 110 90 81 142 139 137 154 43 62 65 42 34 46 54 49 57 55 56 59 62 75 78 80 82 84 90 96 92 98 91 90 94 96 98 91 95 106 107 103 104 111 105 97 99 96 93 96 93 103 99 102 97 105 98 105 100 102 98 97 101 104 106 110 105 103 100 108 107 101 107 108 103 115 116 111 103 70 64 65 63 63 56 61 67 63 66 75 82 88 102 107 115 113 96 71 137 148 142 142 44 68 61 34 36 53 50 54 56 51 51 53 60 80 79 85 84 83 90 101 96 104 93 91 100 101 101 94 101 108 100 100 104 105 103 101 99 95 93 96 93 106 104 105 96 98 94 104 95 101 106 103 100 103 112 107 106 110 106 114 110 104 108 104 108 122 130 131 115 69 67 68 68 66 65 59 67 65 65 71 88 91 112 111 113 112 96 82 126 160 136 142 59 96 49 34 51 52 51 59 54 52 48 52 57 91 85 83 88 85 102 97 108 101 100 101 100 108 101 105 107 107 108 97 103 104 102 98 100 95 90 99 96 103 114 103 102 95 92 92 104 102 102 104 103 106 107 108 104 110 110 112 111 105 108 106 111 129 133 138 119 85 70 75 68 67 72 52 77 61 73 73 85 96 114 119 115 112 96 88 82 144 165 147 59 99 46 34 61 58 58 63 50 50 48 54 81 96 97 87 90 93 95 108 106 106 106 106 112 113 105 110 108 111 112 105 111 105 102 100 96 94 92 96 95 99 109 105 101 99 92 104 102 106 104 105 102 108 106 110 109 105 115 107 111 101 109 106 110 126 137 135 108 82 81 79 72 73 78 65 70 68 70 81 82 94 115 118 117 115 98 83 78 139 160 151 59 72 36 51 66 56 60 56 50 51 49 76 93 92 92 82 94 93 99 112 109 108 111 120 110 113 110 108 111 106 112 110 110 108 108 96 95 99 94 95 98 99 104 106 102 104 105 104 105 100 107 106 113 113 108 111 108 106 110 110 109 109 108 117 114 125 127 114 103 83 89 77 84 77 71 78 76 74 75 83 93 91 99 122 122 117 103 79 86 90 169 144 84 59 40 56 58 53 53 51 53 53 52 101 105 94 86 90 98 102 108 115 120 117 118 119 112 120 114 120 109 111 110 105 111 103 103 97 96 98 100 88 93 101 104 107 108 107 104 107 110 112 116 114 119 109 113 114 113 111 111 110 108 109 113 112 121 124 132 116 110 100 93 77 91 84 69 76 79 79 81 80 99 97 105 116 119 121 102 83 85 63 160 160 114 62 60 60 62 53 54 51 59 54 60 110 112 90 95 90 104 109 111 117 119 118 121 114 109 111 112 116 111 110 100 107 107 101 95 93 95 95 94 90 92 92 102 102 107 112 111 108 112 112 117 116 112 113 119 114 107 114 113 112 115 110 117 125 122 119 124 109 109 93 99 86 95 83 72 75 84 80 81 80 97 101 113 115 115 118 109 80 85 76 134 162 115 76 65 62 60 54 58 57 64 56 95 105 108 95 96 92 94 110 110 113 120 119 121 105 108 107 104 99 102 104 96 108 98 91 94 93 95 94 86 90 88 96 93 103 100 107 110 107 112 115 109 118 110 114 116 109 109 115 112 109 115 114 123 122 124 125 115 111 101 92 94 91 99 94 77 82 83 82 87 89 99 105 105 114 112 114 109 84 87 80 95 164 104 80 64 62 65 60 63 57 64 70 109 113 98 102 93 89 101 96 106 115 120 123 112 110 109 105 98 93 93 94 93 94 95 84 94 89 87 89 82 87 89 92 98 100 98 101 107 106 106 110 109 118 113 117 113 114 112 116 111 111 119 123 115 119 121 120 114 101 97 92 90 95 98 88 100 76 85 74 96 95 93 104 114 113 113 109 106 86 88 79 62 153 115 70 69 64 74 66 60 54 61 107 112 115 97 104 96 90 103 100 103 104 109 113 107 109 109 103 93 89 84 87 79 87 84 81 90 83 84 88 84 92 90 91 99 94 96 100 103 105 105 108 110 114 110 118 108 108 109 108 105 113 118 119 119 114 121 115 114 99 101 81 91 96 94 78 108 76 85 82 95 100 92 104 114 119 111 108 106 89 90 78 60 150 118 73 76 69 69 63 54 57 69 131 118 114 100 102 94 89 101 99 98 79 78 81 79 93 90 83 86 82 82 73 75 76 86 81 87 92 83 92 87 91 78 85 89 91 94 98 99 104 100 98 103 104 94 103 98 102 110 99 108 109 108 116 124 117 104 114 118 106 93 90 91 107 96 91 106 101 87 84 100 104 94 108 122 119 117 109 103 88 88 84 67 148 74 76 79 75 69 60 57 58 109 140 109 110 101 94 98 84 84 90 74 71 70 69 70 75 69 71 68 63 63 63 63 70 73 80 82 84 80 86 79 89 82 86 92 78 94 99 100 93 108 88 85 86 89 79 81 83 89 83 103 76 88 104 104 101 91 98 115 105 105 104 110 99 106 100 113 109 81 86 103 101 99 100 119 124 114 114 103 88 84 87 66 146 69 81 82 81 66 68 65 67 126 147 117 99 99 90 97 82 81 81 70 63 66 67 62 57 55 51 47 46 41 48 51 51 53 63 57 64 69 84 86 88 73 86 84 81 91 97 98 88 78 77 77 66 39 37 37 40 38 38 51 50 53 55 60 67 66 71 88 93 102 103 116 105 114 106 108 104 86 83 94 103 97 107 116 123 118 117 103 86 87 100 77 147 59 91 88 83 65 75 71 88 136 145 123 107 96 82 75 65 68 66 62 55 55 48 58 59 49 41 37 28 19 18 20 18 32 51 64 64 70 74 76 85 86 80 83 93 89 85 88 65 56 46 44 44 43 36 31 22 28 37 54 65 71 70 75 79 78 81 81 89 93 78 112 122 109 103 101 105 101 78 98 98 94 112 120 115 123 118 110 87 83 123 99 149 80 82 101 80 68 80 69 119 137 144 121 102 68 66 77 67 69 67 69 58 57 46 55 57 49 43 51 45 66 82 91 95 93 88 80 65 60 64 64 65 73 67 86 77 69 73 73 69 58 46 53 51 44 38 35 35 35 46 74 73 78 83 88 84 83 91 96 96 94 78 101 122 109 109 94 100 105 69 99 97 97 108 123 117 118 125 113 88 87 132 140 151 101 123 99 72 75 80 65 134 143 145 116 76 75 68 75 72 70 70 69 69 63 55 56 54 47 41 63 48 75 70 71 71 68 61 50 41 43 48 53 58 61 64 67 75 72 67 62 53 29 43 43 47 43 42 60 63 51 122 119 111 81 92 93 95 85 87 97 83 76 76 86 119 99 98 87 107 102 70 91 97 102 110 125 122 111 120 122 86 101 136 138 146 130 177 128 77 79 71 61 138 144 148 93 80 77 94 76 73 69 65 66 64 62 62 59 58 56 56 56 54 53 51 49 49 49 49 50 53 43 44 117 112 111 118 103 88 78 73 73 46 48 65 62 52 49 53 65 61 49 122 120 108 89 91 89 90 87 95 90 88 80 82 84 74 110 113 98 103 111 70 82 99 98 110 127 124 116 117 120 96 114 138 145 158 89 236 179 88 81 67 59 152 165 88 98 94 77 89 79 68 64 64 73 69 66 67 57 113 222 147 57 72 73 63 59 60 57 53 50 51 58 38 60 124 106 122 125 104 84 70 55 41 71 73 67 60 56 52 73 70 59 115 111 85 87 94 107 102 118 121 117 111 105 100 104 98 71 84 115 111 126 100 96 89 93 112 123 123 121 117 110 104 125 144 143 148 101 178 197 96 82 63 59 159 139 94 109 96 109 86 71 75 88 74 81 77 69 62 63 86 88 77 73 101 101 78 64 65 171 81 60 57 69 53 72 133 131 153 146 134 108 95 45 101 65 73 77 64 61 46 168 215 77 83 73 73 94 114 212 151 148 166 140 128 126 123 92 110 105 56 96 117 149 146 110 87 99 106 120 123 121 100 87 88 104 130 151 145 144 101 182 155 87 72 63 120 98 116 104 93 132 84 75 81 101 84 77 84 77 73 89 103 103 86 72 108 102 65 50 50 59 66 63 63 65 64 83 137 138 170 146 130 131 62 44 82 60 59 62 64 61 59 56 66 70 79 63 62 91 94 240 237 107 152 121 130 141 145 108 114 121 97 90 129 153 150 110 85 92 118 119 119 105 96 83 86 83 98 140 143 170 135 91 157 137 81 84 241 146 131 109 80 135 85 88 66 104 83 72 87 87 94 102 92 77 65 83 101 100 62 65 67 53 59 63 66 72 74 76 80 76 76 77 77 74 70 45 54 47 45 56 65 63 65 55 68 79 97 114 101 172 156 89 113 85 113 91 76 115 142 130 112 114 130 76 85 152 130 130 77 87 123 115 108 94 92 84 87 82 73 121 141 177 161 87 113 154 86 94 254 253 127 104 72 126 85 87 63 104 63 73 100 89 100 96 94 78 102 96 81 76 53 51 62 52 53 68 74 85 92 86 73 74 84 87 96 89 71 59 67 44 40 48 62 56 65 74 86 85 81 78 74 97 124 131 159 76 86 74 78 89 99 118 105 101 91 84 91 118 102 79 78 82 119 108 97 89 95 92 91 85 89 72 139 196 166 148 75 117 115 91 103 160 138 101 50 116 92 84 70 101 51 65 117 80 92 87 81 92 94 71 49 61 77 62 72 68 66 71 94 116 92 98 113 162 198 183 155 123 73 61 41 32 35 39 48 49 59 82 92 85 78 81 78 77 87 92 95 103 79 83 87 96 93 112 106 103 77 77 86 77 90 89 75 91 109 97 94 110 102 94 92 86 88 67 131 196 153 182 124 83 94 148 92 100 125 126 58 87 99 104 67 94 61 94 126 114 109 66 72 70 81 90 70 126 110 57 71 94 136 122 148 125 93 106 109 134 171 158 143 107 66 42 41 23 26 32 40 47 65 82 100 83 80 82 83 79 85 89 94 97 94 97 95 95 96 108 107 110 81 72 134 120 133 93 99 88 122 105 92 132 98 85 87 92 86 76 73 184 148 165 147 97 76 135 96 85 137 127 66 55 98 97 60 94 122 108 125 130 157 150 111 107 119 120 116 131 111 59 98 117 134 189 140 94 102 107 190 202 203 202 182 168 56 38 34 22 19 25 32 39 59 107 148 91 92 91 85 86 88 95 91 94 93 92 95 99 93 101 98 98 82 79 119 99 89 92 120 90 125 106 91 131 83 82 86 80 88 81 65 147 117 85 77 86 128 112 113 93 145 129 108 36 73 110 91 114 158 136 123 108 81 55 60 78 66 79 72 65 63 58 65 121 138 151 94 98 103 99 209 193 184 187 179 175 59 35 29 22 26 30 27 41 107 148 172 130 105 95 96 95 93 94 90 91 90 85 92 98 108 93 95 96 102 133 97 72 131 115 116 104 121 88 97 146 95 89 89 86 85 83 68 148 102 85 78 79 118 132 113 96 149 121 145 41 78 125 146 117 124 109 94 79 55 49 47 51 56 72 62 52 47 59 60 68 78 96 83 80 95 129 202 186 167 162 159 166 75 41 34 24 23 15 32 43 78 122 133 131 140 96 93 92 97 92 91 88 97 117 99 92 93 92 94 105 115 139 88 70 136 115 113 98 104 88 109 126 124 91 89 79 87 81 74 115 84 82 73 83 85 112 123 90 161 114 139 52 76 126 153 141 101 58 56 78 57 50 57 60 58 72 67 60 55 58 63 69 80 91 81 67 96 145 169 176 145 126 137 123 100 49 38 32 15 11 42 43 60 82 89 88 86 91 92 91 91 90 89 96 107 127 114 99 93 90 94 118 112 143 80 69 131 117 103 96 82 143 96 87 127 92 83 79 81 81 63 98 77 77 77 84 73 124 182 87 142 126 141 74 80 111 151 126 88 46 59 70 74 73 72 81 82 79 71 62 58 62 64 68 77 87 82 70 98 132 157 156 131 120 122 116 74 64 40 35 20 16 38 53 58 88 88 88 86 90 98 90 88 88 87 96 110 95 88 90 92 90 115 103 104 153 85 115 126 116 93 91 87 149 134 122 130 93 79 80 74 79 68 91 75 111 135 103 77 119 191 96 90 145 129 101 75 115 141 97 62 55 59 64 66 74 79 89 92 75 70 62 58 61 64 70 75 68 65 88 80 115 145 144 133 113 123 127 67 74 53 35 31 23 26 41 63 89 92 88 90 92 89 89 87 87 89 87 90 87 87 94 128 133 130 108 94 134 73 127 120 99 83 93 86 96 95 115 133 95 78 82 74 76 64 88 85 124 200 147 78 82 102 145 81 148 141 117 71 93 125 92 59 58 49 56 59 68 76 80 76 74 66 65 65 66 66 67 55 48 62 78 75 105 148 145 130 124 129 130 93 67 60 40 50 37 38 43 65 86 88 92 86 91 91 88 89 86 87 96 100 87 86 125 156 155 142 112 109 110 67 118 99 85 86 95 76 77 89 88 120 92 95 84 76 77 64 97 91 144 188 134 82 60 66 111 78 73 199 113 85 79 106 97 64 54 50 55 57 61 61 66 57 60 55 54 53 55 60 47 35 49 61 55 80 123 127 136 135 128 130 134 98 65 62 57 40 46 46 49 75 86 77 77 87 76 81 87 91 94 86 94 110 85 95 143 158 151 139 108 138 84 83 113 93 80 92 102 73 79 87 81 108 93 123 79 75 69 64 124 111 111 151 106 72 67 58 79 147 76 74 188 130 94 94 92 74 62 55 60 61 60 59 63 58 58 48 46 49 52 42 25 43 57 54 72 97 122 137 136 136 126 126 132 99 67 61 55 28 18 83 73 92 108 97 72 67 68 65 71 80 83 86 86 97 99 118 141 145 140 136 141 130 89 117 95 87 82 95 112 77 78 77 75 98 101 116 78 65 64 58 164 141 85 118 78 72 75 61 70 94 138 72 69 172 148 96 89 60 61 60 61 65 62 60 59 57 53 52 47 44 36 30 48 53 58 52 86 106 116 137 137 138 127 125 131 108 72 66 48 34 24 22 91 128 130 128 108 96 74 54 49 51 55 66 71 92 112 134 139 134 149 150 179 89 86 98 81 79 81 93 96 98 65 70 75 90 100 106 74 60 58 64 186 136 114 98 74 77 71 70 67 76 94 105 73 69 37 167 138 101 85 62 62 60 64 58 58 56 56 51 39 37 37 51 60 61 39 74 100 115 119 141 143 137 127 129 135 108 84 67 53 38 34 36 28 127 162 128 114 104 89 78 62 54 56 54 54 77 72 97 115 124 161 197 95 79 111 79 81 80 87 81 83 129 108 65 73 114 78 78 74 63 59 63 180 134 154 169 71 56 73 72 67 63 85 97 70 68 38 41 36 44 54 80 100 88 88 69 56 52 46 46 47 43 50 60 55 40 48 75 93 104 119 146 150 139 132 127 119 100 67 52 48 28 16 24 37 36 74 162 145 109 94 80 80 75 76 70 70 68 73 81 122 154 140 68 67 94 80 71 82 80 81 77 84 128 138 67 90 85 73 77 70 66 57 63 132 118 158 181 80 45 58 68 67 62 77 85 74 65 66 33 57 56 18 35 61 61 59 58 53 55 59 58 48 50 56 46 37 40 55 59 72 85 116 148 151 137 136 120 94 73 59 44 49 24 16 34 40 45 53 61 64 144 142 147 108 101 85 96 89 112 113 116 103 70 70 64 83 69 65 70 82 82 82 82 87 111 110 81 100 67 73 80 76 61 53 60 142 91 95 151 86 53 55 72 70 66 78 90 75 64 60 57 45 72 63 52 64 66 61 61 64 57 59 52 44 47 61 35 37 46 52 50 54 73 110 132 134 122 111 79 63 57 44 42 46 32 29 21 64 89 71 58 58 52 59 72 78 73 73 74 75 70 69 62 63 68 87 65 62 57 53 70 81 82 81 82 88 91 80 91 103 63 91 82 77 59 52 50 197 94 83 84 53 64 43 75 69 67 75 87 77 61 62 63 62 60 53 53 52 56 51 52 54 69 74 78 66 48 46 51 58 60 56 61 72 81 105 109 103 91 64 55 50 57 42 36 39 31 31 37 55 102 113 111 60 59 63 74 73 65 66 70 66 66 63 61 62 63 70 64 68 59 56 71 82 81 83 81 92 84 76 83 110 67 90 83 76 55 38 61 255 167 103 94 82 58 41 57 70 80 72 86 86 70 63 67 70 75 80 82 85 104 102 101 103 93 98 90 75 69 70 72 71 63 59 88 98 86 79 61 71 55 59 55 50 48 34 22 28 28 36 37 59 98 112 135 124 97 70 75 74 79 70 67 63 62 57 57 61 58 62 63 68 65 65 78 82 81 88 80 93 82 75 75 75 76 79 80 88 51 51 47 242 254 155 114 126 43 40 54 52 83 71 77 84 80 82 80 80 87 103 115 122 128 120 121 115 108 103 96 83 86 88 80 74 63 65 90 97 89 67 57 56 54 66 57 58 43 19 7 22 31 42 37 60 86 116 114 125 132 130 119 100 93 84 80 68 67 61 57 62 57 60 65 65 63 66 79 81 84 90 82 91 76 89 78 78 81 84 87 90 52 47 48 187 241 193 109 150 28 32 57 48 76 76 70 68 87 82 81 77 91 112 121 129 125 120 121 112 109 106 106 90 88 80 75 70 72 82 98 95 94 75 63 65 62 58 55 57 43 8 1 35 38 51 46 53 77 114 122 130 125 123 137 135 133 134 110 95 71 65 56 64 64 56 60 64 63 66 77 82 80 82 79 90 81 79 79 82 114 90 91 71 40 43 50 134 164 189 126 134 42 17 71 64 74 77 77 82 79 69 81 74 100 120 122 122 119 129 115 110 118 108 105 90 89 77 75 75 82 97 105 101 90 78 71 73 70 69 65 56 48 32 11 40 49 60 54 58 80 105 129 141 126 119 136 140 145 145 133 113 103 84 67 66 67 62 67 65 68 72 80 81 81 78 78 86 80 78 82 100 136 92 92 53 50 43 43 107 119 138 86 116 77 36 63 71 79 81 83 88 80 77 88 95 101 124 123 120 118 121 120 124 122 113 99 97 97 84 83 89 92 101 104 97 88 92 91 93 94 93 89 73 68 46 40 59 64 64 54 63 83 112 132 132 133 124 128 147 149 147 129 126 111 97 88 80 66 73 72 73 73 76 82 81 82 78 77 86 85 94 115 150 124 87 87 47 49 43 47 115 115 133 73 65 101 89 102 76 84 87 74 92 73 93 91 110 111 128 117 115 124 129 130 131 124 102 94 93 107 91 93 89 96 99 131 129 98 104 105 100 97 96 94 88 80 78 76 75 86 89 76 84 86 137 147 135 128 126 128 137 151 152 129 135 119 105 91 100 88 77 81 78 79 79 83 82 82 79 79 125 127 118 137 144 97 88 57 47 45 61 40 113 112 143 108 77 109 128 145 138 133 103 78 74 82 95 94 107 109 115 99 113 123 135 137 145 134 115 118 127 130 119 92 93 98 98 97 114 90 99 101 100 97 103 99 91 89 84 89 102 102 106 98 93 86 131 148 133 134 132 135 134 148 147 139 137 118 107 91 95 84 90 81 84 82 83 82 81 82 78 95 137 121 115 131 115 94 75 46 47 51 47 50 98 102 136 132 111 98 144 147 147 152 131 85 79 90 84 100 120 107 94 95 95 115 123 132 141 136 137 144 152 153 150 111 95 96 95 95 100 87 94 97 97 100 101 103 97 91 88 87 97 99 103 93 87 84 124 149 133 136 126 128 132 137 149 140 138 119 93 94 80 86 83 84 84 83 81 84 82 81 76 103 135 105 116 120 83 81 50 47 56 53 45 51 101 92 124 129 134 112 140 160 147 161 144 104 80 83 92 95 110 102 90 86 97 89 112 123 128 127 144 163 154 155 154 151 120 136 97 94 107 91 95 100 100 103 97 87 87 75 80 84 89 82 82 101 93 83 119 137 128 125 123 124 125 123 136 132 122 111 99 99 88 92 86 85 82 84 81 83 83 84 83 95 82 89 91 80 73 55 43 60 44 60 49 44 98 94 96 122 135 119 147 152 147 154 149 131 83 87 93 101 107 84 89 93 98 86 111 114 126 134 146 155 166 160 146 138 112 115 105 93 92 104 95 104 98 90 77 74 67 66 64 65 66 77 85 116 115 98 129 140 146 131 135 121 112 113 118 122 112 119 109 101 109 90 86 85 83 83 83 85 86 88 91 73 54 71 73 64 52 49 42 52 53 54 46 49 97 83 98 107 129 125 132 162 153 146 159 146 88 92 94 83 96 88 95 84 82 89 95 106 111 132 141 156 160 145 143 126 109 91 93 94 111 113 99 93 81 86 99 78 69 74 69 80 81 107 103 118 126 116 142 143 157 152 147 144 111 118 105 116 104 112 118 106 98 104 86 84 82 81 88 87 100 101 99 73 53 53 58 55 49 46 47 46 51 47 48 47 110 82 101 100 107 111 122 163 160 143 148 160 103 90 97 89 96 89 95 79 78 81 77 81 100 116 128 135 135 132 129 130 112 95 93 93 110 114 86 85 82 110 130 110 98 85 74 90 109 100 120 115 124 147 142 159 162 155 140 146 120 126 110 116 108 96 112 102 91 103 93 84 82 82 85 93 104 100 94 69 51 61 55 49 48 49 57 45 47 45 53 48 96 95 102 107 103 79 116 135 160 127 134 149 117 102 90 95 93 81 83 85 77 78 75 75 85 98 120 125 125 123 115 123 117 102 110 101 110 115 102 117 106 118 134 131 90 105 96 101 128 132 134 119 130 152 156 161 153 140 144 136 119 137 132 110 98 98 106 109 96 102 87 86 79 82 87 100 102 110 91 59 55 60 59 44 61 41 65 44 49 58 48 49 91 103 90 101 93 98 96 124 138 141 129 147 129 88 92 90 85 87 82 79 76 79 75 76 77 82 101 102 113 114 120 125 124 121 109 130 129 144 132 159 160 156 160 142 118 112 121 118 143 144 145 137 134 116 130 126 133 133 131 115 117 131 119 99 87 96 95 102 98 88 87 88 81 83 87 98 121 95 87 56 55 62 54 54 45 56 41 59 46 47 54 43 100 94 105 97 100 95 104 105 138 134 127 136 137 91 91 85 86 97 82 76 76 79 80 78 81 84 91 106 117 110 126 132 135 132 143 140 168 180 159 163 202 197 201 187 189 173 164 166 170 174 173 129 122 104 110 106 120 116 112 99 114 107 112 89 86 93 82 92 92 92 84 80 82 86 86 104 115 97 89 51 55 53 52 51 47 52 46 49 55 44 64 41 92 94 96 99 96 97 90 118 122 140 141 138 131 102 85 85 87 101 82 77 75 80 79 80 80 85 85 93 118 114 118 138 161 154 148 116 118 163 177 178 175 184 162 191 191 192 182 171 158 163 125 108 118 95 102 97 104 97 104 104 102 96 97 96 86 81 84 85 86 83 81 81 83 85 86 105 132 87 84 51 58 54 51 50 51 49 52 55 50 44 58 44 103 103 101 96 102 104 86 115 117 134 140 153 131 118 74 80 80 93 81 92 93 81 82 82 81 83 83 90 91 88 85 82 82 72 61 57 67 77 84 80 85 81 84 78 97 143 179 183 184 154 120 111 99 72 76 69 89 90 86 93 85 94 90 100 97 85 80 78 82 83 81 83 84 84 86 112 129 85 76 52 55 49 48 49 54 41 50 55 53 47 56 47 103 102 104 102 86 105 99 100 120 115 126 158 156 154 102 85 96 95 76 78 79 81 83 81 83 81 84 86 90 87 80 73 70 61 55 74 86 90 86 77 84 91 91 91 92 92 89 129 153 136 123 103 94 73 61 66 64 87 89 84 84 85 87 86 93 78 85 77 82 80 80 83 82 85 88 121 97 87 60 53 53 50 53 45 52 53 43 53 57 45 57 48 102 89 112 87 103 104 86 99 111 127 135 160 144 146 132 100 98 90 76 75 76 79 83 85 83 81 81 88 92 82 74 50 62 50 37 68 90 105 101 90 89 97 101 99 98 97 92 85 90 84 76 70 79 67 61 67 73 80 88 84 85 84 83 81 82 82 77 78 80 82 85 84 84 83 98 114 99 84 54 48 54 44 50 46 49 56 46 45 54 46 55 49 108 107 96 95 99 102 109 85 115 128 143 149 164 119 134 102 94 97 70 72 68 75 82 83 84 80 74 79 84 84 76 57 56 52 63 82 76 75 88 103 91 94 98 87 76 77 73 78 79 67 58 56 54 54 63 75 85 91 96 91 88 86 81 80 80 76 77 78 81 80 82 82 83 87 110 104 95 79 55 44 47 46 45 52 41 47 52 44 49 51 51 46 96 106 92 111 91 102 100 91 107 129 136 154 158 131 116 121 92 93 85 71 66 66 71 80 83 80 78 85 86 79 75 69 64 65 83 92 91 89 78 80 74 80 73 74 63 64 49 62 49 53 55 52 49 60 62 72 84 91 92 91 85 84 78 80 77 76 79 78 77 82 82 83 95 89 124 87 89 86 47 48 51 48 52 51 52 43 48 50 46 47 48 58 95 101 100 101 93 108 102 103 94 131 150 143 161 119 116 129 101 88 88 67 67 64 69 76 78 77 77 80 86 91 81 74 69 67 85 91 98 113 106 82 73 76 80 50 50 58 55 50 43 48 48 53 50 56 61 71 80 86 87 83 83 84 80 79 76 78 80 78 84 81 81 84 99 103 122 87 87 89 52 51 44 59 45 59 45 54 45 45 54 49 59 45 99 95 108 97 103 102 101 110 111 115 153 147 146 124 102 123 119 81 80 70 66 66 66 75 90 87 79 79 79 81 78 76 74 75 81 90 88 94 92 93 85 75 64 55 58 53 50 48 48 51 49 59 60 69 72 74 81 80 79 79 79 80 80 76 77 78 80 82 80 82 83 85 103 117 117 88 86 91 49 59 43 59 48 60 44 56 51 51 57 45 58 49 97 99 95 98 103 96 106 113 111 114 136 160 137 105 100 103 116 81 79 84 60 65 66 70 78 90 78 78 78 79 78 76 74 77 79 81 85 85 86 89 87 81 82 73 71 68 69 66 67 70 67 74 72 74 73 77 77 76 76 76 76 76 77 75 77 78 79 83 81 82 85 93 105 122 102 85 91 91 49 45 43 56 48 57 57 44 54 51 42 49 49 49 98 106 103 98 104 98 112 115 125 117 105 164 148 88 93 104 96 94 94 79 67 66 66 68 72 77 76 78 77 77 79 79 78 76 74 74 83 77 78 79 82 78 75 75 74 70 70 71 73 73 77 71 75 72 78 78 76 79 76 76 76 75 78 78 78 78 82 82 80 83 93 98 107 117 91 84 93 90 61 47 42 57 48 51 50 49 52 48 53 48 46 54 102 103 98 108 111 107 123 106 126 129 102 142 160 98 81 88 98 85 82 86 55 61 68 67 71 75 77 77 77 77 78 79 77 78 81 73 76 76 73 74 75 75 69 68 68 67 67 71 72 72 72 73 77 75 79 79 78 89 78 77 77 76 80 76 80 83 82 82 80 85 111 107 106 95 90 86 93 100 45 42 47 44 55 45 49 53 45 50 60 50 60 50 99 110 96 105 105 113 118 110 134 136 125 102 145 102 76 68 73 78 76 79 84 77 74 68 70 73 76 78 76 75 77 79 78 77 78 76 74 76 75 74 75 74 72 76 75 71 73 78 78 78 76 81 84 81 82 80 79 82 75 76 77 83 85 81 83 87 85 83 84 99 108 109 103 87 90 86 101 99 62 49 52 51 55 49 47 58 50 53 54 48 48 52 112 104 118 111 113 113 118 123 124 139 137 99 104 87 92 73 67 70 53 74 83 74 96 73 73 72 75 78 76 73 77 79 78 78 78 80 77 73 77 74 72 73 73 77 79 81 84 83 86 82 84 81 82 85 81 81 81 78 77 81 81 86 86 85 86 89 87 83 83 103 114 107 85 88 89 87 103 116 68 72 51 53 52 50 55 56 44 58 51 49 49 52 96 115 103 106 113 117 111 121 129 127 142 135 89 62 77 89 69 62 62 70 82 78 90 71 73 71 73 80 77 76 75 78 77 78 82 84 82 88 87 80 79 79 79 82 85 83 85 79 83 77 85 81 85 84 80 78 80 83 83 83 88 85 86 87 89 88 87 85 84 111 103 105 85 89 90 87 101 118 104 89 100 55 70 54 59 51 47 48 49 61 54 46 100 110 108 110 104 120 108 124 130 129 134 156 89 29 72 79 72 54 54 61 68 84 91 69 68 69 75 78 78 75 86 76 77 81 90 105 107 110 117 111 123 135 128 119 112 91 84 81 87 82 84 83 85 84 83 80 81 84 81 85 84 85 87 89 89 86 85 84 85 99 111 86 81 90 90 87 102 118 97 115 98 109 86 74 58 61 59 51 56 49 58 47 124 114 122 115 111 111 115 130 131 139 122 148 135 30 36 50 59 65 50 56 49 62 78 71 61 66 67 72 74 83 111 82 75 73 76 93 101 115 128 107 120 122 122 121 123 132 108 104 100 84 82 85 87 84 82 80 81 81 78 83 83 84 87 88 87 86 84 86 89 88 115 81 84 89 90 87 102 116 95 118 101 108 104 103 97 74 65 59 60 49 58 57 113 120 119 121 105 123 122 135 134 135 135 139 122 96 39 23 25 58 52 50 55 55 62 78 68 62 61 68 93 75 89 73 74 78 80 81 95 102 110 96 93 103 107 106 118 132 125 137 127 118 102 93 83 84 79 80 81 77 75 81 85 86 87 86 85 85 85 87 88 86 121 86 82 88 89 87 102 114 103 105 101 99 96 104 102 101 98 86 61 56 56 64 120 119 129 110 105 127 126 138 128 139 126 134 105 120 103 16 5 32 50 51 52 55 47 66 80 64 61 69 81 76 72 74 71 83 87 83 85 86 87 85 84 86 94 104 96 113 114 106 117 126 112 110 89 90 79 82 76 68 74 79 85 84 86 87 87 86 85 84 84 91 125 87 85 86 89 87 101 114 97 109 98 109 97 108 108 95 113 96 105 67 78 58 113 127 113 112 118 121 133 140 133 135 129 115 117 107 110 29 0 27 36 51 51 52 50 46 77 65 63 66 69 75 66 71 72 105 86 95 85 84 79 83 85 85 97 90 92 106 103 111 101 131 129 109 97 90 93 80 73 71 75 82 82 83 86 83 84 82 84 77 79 116 107 86 85 85 92 86 101 116 93 108 115 101 118 104 96 105 94 99 103 105 92 74 126 106 124 100 111 128 129 133 136 136 135 106 105 118 110 57 0 22 30 35 53 53 56 50 61 65 73 73 67 65 65 69 73 94 88 83 93 83 80 81 84 89 95 83 103 117 114 116 102 111 99 105 80 85 72 74 65 71 76 80 82 84 83 83 81 76 82 80 79 116 95 85 83 86 90 87 102 117 93 101 105 120 108 104 108 98 104 103 88 109 85 103 118 102 129 101 128 127 129 131 131 141 142 87 109 108 120 47 22 20 28 31 41 49 52 52 54 64 67 86 74 77 66 69 75 76 78 79 80 81 80 80 84 84 84 92 84 109 99 101 80 90 95 107 90 66 55 62 57 71 77 79 80 82 81 78 76 77 79 80 82 107 81 83 83 90 89 85 102 119 115 92 111 115 125 93 106 110 98 104 98 97 91 105 121 121 116 108 119 129 131 133 138 142 140 88 107 113 113 66 41 30 24 30 32 38 51 51 68 66 66 72 72 89 69 73 73 76 76 76 76 79 78 78 82 82 81 80 80 90 95 80 79 94 100 107 78 61 60 61 64 73 77 78 80 82 74 78 79 80 79 78 81 115 78 83 85 89 92 85 105 119 96 108 103 107 130 124 96 95 112 97 99 97 102 102 113 125 110 117 125 127 133 131 131 141 139 90 95 108 115 78 40 40 25 25 30 36 38 72 72 63 74 75 76 77 81 77 76 75 76 74 74 76 75 77 78 79 79 78 78 78 80 76 71 77 99 119 57 59 65 67 73 77 77 80 81 72 76 78 80 79 78 77 90 110 81 82 86 89 91 85 103 120 101 105 107 103 126 139 121 101 107 97 102 93 99 93 124 116 124 109 128 128 134 137 136 140 142 77 95 65 144 90 51 45 34 26 26 33 46 93 69 62 80 78 83 80 87 87 82 76 75 74 73 74 74 74 74 76 77 77 76 76 73 70 67 65 71 70 63 68 74 75 74 78 79 80 75 72 78 81 80 77 76 75 93 103 83 84 87 89 90 89 104 119 109 96 105 114 117 142 132 111 111 98 103 113 88 112 113 123 102 124 130 131 132 134 138 149 146 55 92 81 145 93 59 48 40 31 26 26 83 80 70 64 79 80 81 84 83 85 86 86 81 79 75 73 73 74 74 73 73 74 73 73 73 69 71 75 65 73 75 76 76 76 76 77 76 71 74 79 79 79 79 76 75 77 88 102 82 84 87 90 92 87 106 115 110 97 103 118 116 132 139 130 101 110 86 111 89 101 115 111 112 129 132 130 127 134 154 122 55 32 101 92 141 95 68 52 44 38 24 52 97 77 70 53 72 82 79 85 85 83 79 89 87 88 83 78 75 71 73 73 72 72 72 72 72 73 74 74 75 75 76 75 77 74 77 76 72 76 76 79 80 78 77 76 76 86 90 86 82 83 86 92 93 88 110 109 100 103 107 113 130 116 144 131 127 98 104 99 107 90 104 113 106 120 120 121 121 154 111 55 49 145 86 116 149 93 69 55 50 38 38 104 82 80 71 50 69 82 80 83 83 85 78 84 84 84 87 84 83 78 77 75 72 72 71 72 72 73 73 75 74 75 73 76 77 76 72 72 78 76 79 79 78 79 76 77 75 96 86 80 82 83 87 93 93 90 113 106 97 105 99 117 125 120 133 141 134 108 98 92 90 105 117 90 109 118 110 96 151 148 57 59 192 192 65 124 141 100 86 69 52 44 81 103 90 77 67 44 67 82 81 78 83 81 82 84 83 82 83 83 83 83 84 81 80 75 76 73 72 73 74 71 74 75 75 76 74 71 71 78 78 78 79 78 79 77 75 74 86 86 92 82 80 86 90 95 92 97 110 92 101 117 93 128 114 134 117 143 131 130 116 121 123 120 