P2
92
112
255
115 108 109 109 111 106 113 108 109 109 113 112 113 114 110 107 115 113 110 115 112 107 115 114 111 109 114 114 114 120 134 137 137 133 131 135 142 154 150 145 146 152 145 135 118 122 132 144 140 125 136 134 127 124 142 126 140 156 143 142 131 129 137 136 134 143 149 136 138 108 111 109 124 133 126 113 106 111 106 108 108 107 112 108 109 109 103 111 105 106 108 109 108 107 111 105 111 108 111 108 108 108 112 112 107 112 111 110 114 109 118 110 113 110 112 114 116 113 112 121 124 132 140 144 139 136 141 132 143 141 141 140 139 140 141 143 126 120 146 151 145 136 142 143 138 134 140 137 144 149 148 149 135 141 143 145 142 149 146 157 142 110 121 120 136 146 139 122 112 113 112 112 115 107 110 108 112 105 112 108 108 107 107 107 106 109 106 113 110 107 108 110 112 109 108 113 110 112 113 111 111 111 107 112 110 115 118 120 131 114 115 134 128 133 146 140 146 146 136 136 149 138 142 149 142 118 127 135 130 124 139 155 145 133 147 140 144 138 142 146 146 148 138 146 144 144 142 156 154 149 156 150 146 121 123 127 143 150 151 139 124 127 125 129 113 110 105 113 108 106 113 107 108 110 107 108 112 105 109 106 112 106 111 110 108 113 109 110 109 110 111 109 111 112 111 113 118 126 125 128 143 128 121 126 137 136 133 146 141 145 140 149 160 146 151 149 154 136 116 140 133 119 117 124 149 132 134 134 135 132 149 155 149 147 131 133 132 144 135 150 152 157 148 151 142 125 118 129 156 160 151 142 143 132 129 134 118 111 112 112 106 112 106 109 106 109 107 105 106 109 111 107 110 111 109 110 111 107 112 108 114 109 113 112 113 113 110 117 122 131 132 110 145 142 132 129 132 154 152 150 141 132 132 146 165 143 128 139 142 148 137 139 145 141 119 111 130 135 133 125 140 139 139 155 149 147 129 131 121 135 121 137 162 148 147 135 133 117 106 134 168 168 146 145 141 136 133 136 127 121 115 113 107 111 108 107 109 106 110 107 109 109 108 110 111 113 111 110 110 110 115 112 110 111 116 110 111 112 111 124 132 127 133 127 128 122 139 138 140 127 132 139 147 147 134 123 144 149 121 127 137 132 154 138 133 136 139 120 121 125 139 132 131 134 127 142 134 143 134 132 122 129 101 114 163 143 132 123 116 99 108 143 170 174 155 139 119 144 151 146 135 122 123 113 109 112 108 109 106 109 109 107 106 109 107 112 105 111 109 112 108 108 112 111 112 106 114 104 114 117 116 123 133 121 125 129 130 125 124 129 126 137 145 146 128 133 153 136 127 140 134 126 138 136 129 129 124 139 125 119 127 136 140 139 132 125 120 123 131 140 132 131 113 120 90 92 162 139 116 110 88 90 120 157 172 171 158 120 129 145 160 147 142 125 110 111 113 108 108 108 108 108 106 105 108 108 110 106 106 106 112 109 107 111 110 111 109 108 112 113 124 126 121 126 128 130 125 142 146 138 132 128 133 138 137 138 147 132 139 161 157 146 115 142 140 136 121 128 128 136 141 120 133 137 143 144 140 113 104 106 116 128 129 125 119 107 88 69 147 147 108 90 70 109 131 150 160 162 141 121 135 153 160 150 136 120 116 112 107 112 114 112 108 107 108 106 114 107 112 111 107 110 111 111 110 110 108 108 114 111 118 119 136 135 136 125 120 130 138 136 147 152 147 147 144 144 142 135 132 138 138 153 149 155 120 109 149 140 113 116 129 131 141 134 140 140 135 137 150 113 83 89 109 117 114 118 128 101 85 58 128 148 101 72 87 117 132 134 154 149 126 131 151 156 152 149 126 107 119 106 109 118 115 120 115 110 105 112 108 106 113 109 110 111 111 107 107 115 105 118 114 106 109 120 125 134 131 129 126 134 150 154 154 165 155 155 150 152 147 154 151 135 129 142 131 137 143 110 112 145 136 110 118 126 128 146 130 138 129 130 145 136 84 68 94 109 106 105 118 113 76 53 106 137 93 66 104 114 126 131 124 119 124 141 144 146 143 142 109 93 99 116 122 119 120 121 110 111 106 102 110 111 107 107 108 110 111 110 111 112 108 110 108 109 106 128 129 133 131 127 133 143 159 165 163 160 158 156 164 164 165 144 132 133 140 141 126 120 126 144 108 119 142 134 105 112 124 116 135 127 118 105 136 144 116 71 78 90 92 96 98 113 74 61 90 109 92 83 103 114 107 101 107 109 119 109 131 130 131 108 88 75 74 116 127 125 116 113 109 100 113 107 107 110 106 111 112 109 112 110 110 111 111 110 107 113 111 119 123 123 127 124 117 119 129 140 137 148 160 158 155 160 158 161 140 125 115 125 137 129 125 144 143 100 109 129 117 111 112 114 123 131 119 105 117 140 131 84 72 79 84 81 88 96 87 65 79 89 93 87 106 103 94 89 97 99 95 97 109 117 101 73 62 85 100 128 141 133 117 112 114 115 107 109 106 110 110 106 110 111 109 111 109 109 101 101 104 112 121 120 117 117 110 109 120 113 98 117 114 102 119 129 144 148 141 146 143 130 120 118 129 126 117 135 143 139 92 107 123 105 100 121 115 120 127 102 101 123 131 104 77 68 79 76 77 79 94 76 62 73 87 88 96 95 77 83 93 85 85 93 93 88 68 84 93 128 144 145 143 131 116 126 127 122 112 111 106 110 109 109 106 110 110 111 106 109 100 98 101 108 116 118 112 112 111 115 137 136 107 94 117 118 119 119 108 129 133 124 117 112 112 121 134 129 112 113 133 136 123 86 116 114 98 105 117 110 119 108 90 107 117 115 91 67 63 72 72 69 82 87 64 61 79 96 84 79 69 76 80 84 77 75 75 70 79 103 148 167 155 153 140 124 131 145 137 118 116 103 111 107 109 110 112 109 108 111 105 114 106 114 108 104 103 99 103 121 120 127 139 142 132 114 106 121 139 130 125 117 124 128 108 104 100 94 114 129 107 98 120 125 128 106 86 109 106 93 110 113 97 107 94 94 106 96 105 77 70 62 68 69 67 77 81 69 73 99 84 63 72 72 83 77 63 67 80 81 102 136 143 142 132 121 118 126 134 133 131 120 111 103 107 107 111 110 110 110 112 111 107 107 106 108 109 112 110 105 107 129 133 134 133 133 136 136 132 111 132 121 123 125 117 117 129 112 101 100 95 111 111 102 109 119 128 122 94 91 107 96 91 103 99 94 89 84 101 80 79 90 89 63 59 69 64 77 74 78 78 93 87 76 69 76 83 69 64 82 88 90 117 119 111 112 105 110 121 131 129 131 125 113 104 103 107 107 113 110 109 107 113 109 104 101 107 107 105 114 121 129 128 136 128 123 121 124 120 132 140 135 126 121 116 110 115 114 115 118 115 101 107 100 111 116 105 112 122 128 120 95 90 105 91 93 100 93 85 77 92 90 73 76 91 75 68 72 65 83 71 80 96 94 94 85 85 88 86 74 68 73 86 89 107 99 98 101 101 84 88 94 110 123 131 112 106 109 109 109 111 109 110 107 106 99 99 102 113 111 114 128 138 144 133 134 129 131 120 129 133 126 129 134 127 116 111 113 110 113 111 115 120 116 111 111 118 122 116 116 118 124 125 120 103 101 103 97 101 97 90 85 88 93 81 79 82 82 81 86 80 84 89 94 101 106 106 102 105 100 94 86 71 74 81 86 87 89 85 78 71 72 89 92 111 120 125 117 114 118 107 108 113 106 113 107 104 104 103 103 104 110 112 125 143 148 138 120 114 121 132 133 134 128 128 130 128 127 119 118 113 121 118 121 123 129 123 128 134 129 134 128 127 116 124 128 126 118 108 113 108 103 101 100 93 99 94 92 91 95 100 108 102 96 107 112 110 128 124 118 119 115 105 99 86 81 82 72 93 96 75 62 91 113 116 116 122 128 134 135 137 124 111 108 108 113 109 111 103 110 96 91 95 109 124 137 149 151 141 131 141 150 148 146 140 146 148 141 139 137 136 134 131 131 131 137 134 138 142 149 154 154 151 147 143 129 131 133 136 141 132 126 126 121 114 117 115 122 103 109 116 118 119 122 132 117 130 131 130 131 140 143 131 131 124 114 106 91 84 91 88 78 65 84 91 101 111 108 113 130 135 125 126 128 107 109 106 111 114 108 102 95 89 89 108 129 144 154 153 140 139 160 165 170 167 164 161 170 173 162 155 158 150 155 153 149 160 163 160 159 171 173 178 177 170 168 157 158 156 139 145 156 153 147 146 147 137 135 139 146 134 139 139 145 137 141 149 139 149 152 152 150 158 163 153 146 147 132 125 108 107 102 88 81 87 90 70 64 72 87 108 112 113 114 114 121 113 107 109 109 109 104 96 85 73 90 88 115 140 154 151 153 177 181 184 185 182 178 183 182 182 183 183 176 172 171 170 174 177 183 182 180 182 191 191 195 190 181 177 174 175 167 160 168 175 171 168 167 167 155 165 170 166 162 165 168 169 162 164 169 169 171 173 162 160 169 170 169 163 152 143 130 125 115 102 94 89 77 56 60 72 82 94 92 100 115 121 122 109 107 112 107 107 99 95 80 77 75 106 128 155 153 161 180 187 188 188 185 185 188 191 190 192 199 195 191 191 189 183 190 186 185 190 195 194 194 196 200 200 196 194 191 188 186 184 181 184 189 187 186 184 180 182 180 183 183 180 183 181 181 176 177 178 182 177 171 164 160 165 169 170 167 156 146 133 128 114 105 96 80 69 72 70 81 90 92 105 125 130 130 106 109 110 111 104 103 84 76 73 91 119 132 134 163 181 189 191 186 190 191 190 194 194 199 201 201 200 198 201 200 195 196 199 195 198 200 203 201 201 202 202 201 202 202 196 195 195 197 192 193 197 193 190 190 192 187 185 189 187 188 186 187 187 186 183 184 183 175 176 172 170 165 169 168 164 159 145 142 132 126 106 97 84 67 67 79 86 88 95 110 122 118 103 108 110 111 110 90 79 68 72 85 115 135 149 177 190 190 191 189 191 193 193 200 199 202 202 202 203 203 203 202 202 201 201 203 203 203 204 206 204 204 204 204 203 202 203 200 201 201 201 200 197 196 195 196 194 194 192 193 193 191 187 189 189 186 185 186 182 184 183 179 176 172 172 165 161 165 166 153 147 143 131 107 94 71 74 66 74 63 80 88 98 103 110 106 111 106 98 85 65 62 73 94 112 125 164 185 192 191 191 190 198 197 199 200 203 202 203 206 202 203 204 205 202 204 204 202 204 203 205 205 206 207 205 206 204 202 203 202 202 203 202 201 199 201 200 200 199 196 195 196 197 192 190 192 191 187 185 187 185 182 185 186 185 177 176 170 164 169 171 169 152 151 149 124 105 97 76 75 60 62 70 68 72 82 106 111 107 111 94 89 62 61 78 103 108 134 174 188 194 192 192 196 197 199 199 202 201 203 204 204 203 204 205 203 205 206 205 204 203 205 205 208 208 206 204 204 205 200 202 203 204 202 204 202 201 200 203 201 199 199 196 196 197 194 194 189 189 192 185 187 184 185 185 181 186 179 179 176 173 172 166 170 162 156 158 137 117 99 86 69 63 59 63 71 84 101 106 109 106 110 104 86 63 69 89 103 121 161 178 192 192 191 193 197 199 198 200 201 202 204 202 203 203 203 204 203 206 204 205 205 203 203 204 206 205 205 202 202 203 201 202 204 204 203 203 202 203 202 203 202 200 197 196 194 198 193 191 189 193 190 188 188 186 182 179 179 181 180 176 179 178 173 169 169 163 160 158 148 130 113 94 85 75 82 90 100 112 129 103 108 114 103 76 78 63 70 79 100 138 171 185 189 193 192 192 196 199 199 198 201 200 202 202 202 202 202 204 204 203 205 204 204 203 203 202 203 202 202 202 201 204 201 205 201 204 204 203 202 202 202 201 201 198 199 194 196 197 193 193 191 188 190 188 188 189 181 177 177 180 182 178 175 180 176 171 165 165 159 151 151 136 128 110 93 81 77 78 77 85 101 106 113 108 84 80 66 55 63 78 120 163 172 184 186 191 191 193 193 198 198 199 201 202 201 202 202 202 202 203 205 204 204 204 202 200 204 200 200 202 202 202 200 201 203 204 201 203 202 204 202 201 201 200 197 197 196 196 196 193 192 192 188 188 189 191 188 188 186 185 185 177 179 177 175 172 175 170 164 156 149 145 147 137 136 118 95 87 75 78 76 83 89 104 112 107 80 66 59 51 64 81 146 165 174 181 184 187 188 192 192 194 198 198 200 200 200 199 201 202 203 203 204 203 203 203 203 201 203 200 201 202 201 201 201 203 200 201 201 203 202 201 202 200 200 198 199 198 198 196 193 194 195 190 193 190 188 188 189 188 184 183 184 180 176 176 174 173 168 168 158 150 140 142 141 136 137 125 103 88 84 89 83 96 109 110 108 112 81 58 54 55 58 114 154 172 179 181 186 190 187 189 192 194 197 195 196 197 199 199 200 200 202 202 202 202 201 202 203 200 201 199 201 202 201 201 200 202 201 202 203 202 201 202 200 200 199 197 200 196 197 193 196 195 194 192 192 191 186 189 191 189 184 185 183 182 176 178 171 172 164 164 157 148 137 141 140 133 142 132 116 88 84 86 90 86 98 106 110 104 80 52 51 57 79 130 165 173 178 183 189 190 190 186 188 195 193 192 194 193 198 195 196 196 197 200 199 201 200 200 199 200 201 199 200 200 200 201 199 201 201 201 202 202 201 202 201 201 200 198 199 195 195 197 195 193 193 192 191 194 188 187 184 189 183 183 181 179 176 169 175 167 162 159 146 144 132 139 134 134 144 138 123 100 89 93 94 101 107 107 104 97 69 57 58 51 92 142 164 175 178 182 188 191 189 186 187 189 193 192 191 192 196 196 194 196 197 196 196 199 200 199 199 199 197 200 199 198 198 198 200 197 199 199 199 200 201 200 199 198 199 199 197 193 193 194 198 192 191 190 192 191 189 181 179 184 179 178 178 176 177 170 173 167 154 150 146 132 131 131 131 137 149 137 125 113 88 83 91 96 104 105 110 87 56 51 63 59 105 152 172 174 173 180 185 187 186 186 184 187 190 188 188 190 190 191 190 191 193 194 199 196 196 198 197 197 199 197 201 198 198 200 198 195 198 199 197 199 197 197 195 195 194 194 193 195 194 193 192 192 189 193 189 186 187 183 177 182 185 176 177 169 170 169 168 163 154 148 140 132 132 132 137 146 148 139 125 116 108 100 69 79 83 106 102 74 55 50 65 58 118 156 172 173 180 184 183 186 184 181 183 182 185 186 188 185 187 186 188 189 193 192 194 195 195 195 198 195 195 199 200 201 198 198 193 195 195 194 195 197 196 197 196 191 191 191 191 191 189 188 189 190 186 186 187 181 179 179 175 180 181 177 176 168 169 168 159 159 149 145 136 134 130 139 140 147 145 146 127 112 114 107 96 74 73 111 90 65 47 48 52 72 126 165 171 180 180 185 185 184 183 178 181 180 178 183 185 181 185 182 186 187 189 192 193 192 194 195 196 193 191 197 196 198 195 196 197 192 196 194 192 192 195 194 194 192 190 190 186 185 182 182 180 183 181 182 181 178 176 174 177 178 175 172 171 166 166 165 154 153 151 136 138 132 141 139 143 147 145 145 131 118 112 109 103 86 67 109 92 69 50 41 52 77 131 162 170 177 180 182 188 188 183 182 181 182 181 182 186 184 181 184 187 189 188 190 191 194 193 193 196 193 191 195 196 198 194 196 196 189 194 194 191 192 191 191 188 189 187 189 187 182 181 181 176 178 178 174 177 172 173 170 177 176 174 167 169 160 159 157 151 148 144 134 135 138 140 141 142 145 146 146 127 126 129 111 103 108 93 108 98 68 39 48 54 89 140 166 173 174 178 179 189 192 188 185 188 185 188 187 188 188 186 188 187 191 193 193 194 196 196 195 192 195 194 197 198 195 193 197 194 191 193 193 190 190 189 189 185 188 185 184 179 180 174 176 177 177 174 173 178 176 169 171 177 172 172 165 160 161 155 146 150 148 142 137 137 135 137 139 139 143 145 145 132 117 125 130 94 102 108 104 92 53 46 48 57 101 147 166 171 175 181 184 185 190 188 190 187 187 189 190 193 192 193 193 192 192 194 195 195 198 197 195 197 197 195 198 196 196 199 193 195 194 193 195 194 191 191 187 183 187 184 183 182 182 178 177 178 178 174 170 174 172 176 178 177 170 169 158 160 149 148 150 150 153 143 143 140 138 139 137 142 139 146 146 125 121 119 121 109 79 94 108 92 53 45 48 52 109 148 170 168 174 180 183 185 185 188 188 189 193 192 194 195 197 197 194 197 197 198 198 200 199 200 199 196 198 199 197 199 194 195 195 197 196 196 192 194 195 193 193 190 188 187 187 183 184 183 183 182 181 181 178 177 176 179 180 182 176 167 166 160 159 152 150 151 148 147 140 142 140 143 143 136 144 147 142 123 121 128 107 104 86 76 110 96 54 52 37 49 115 154 164 170 173 181 183 184 186 187 189 192 193 194 197 198 200 199 198 199 200 201 202 200 199 201 198 200 198 199 199 197 199 195 198 198 197 198 195 194 197 196 192 190 192 191 188 187 188 185 180 183 186 182 178 180 181 179 179 179 172 170 170 163 155 148 146 147 147 143 137 137 143 142 135 139 142 144 143 133 113 126 111 91 83 81 109 92 60 39 30 44 124 155 162 170 180 182 187 183 186 188 190 193 193 193 197 199 200 199 201 201 200 201 200 201 201 198 197 200 198 201 199 198 196 199 198 195 199 199 198 196 199 197 193 192 192 190 189 189 188 186 184 185 187 182 184 180 182 182 180 179 172 167 168 161 156 149 149 151 144 143 137 140 144 137 128 134 145 139 141 138 118 114 120 91 76 68 108 93 58 35 34 39 130 154 164 169 178 183 184 185 185 186 192 189 192 192 194 197 198 197 199 200 200 201 201 201 199 198 199 198 198 201 199 196 197 197 195 194 198 198 198 196 194 197 195 194 194 191 191 189 187 186 187 188 188 184 190 185 185 184 186 179 171 165 165 159 156 151 151 150 142 138 136 140 137 128 133 130 139 133 133 131 122 106 111 104 71 57 110 102 56 36 26 52 142 159 165 173 176 183 187 188 190 190 190 190 194 192 193 194 194 193 192 193 196 195 200 199 195 194 194 199 198 199 197 196 195 195 196 193 198 197 198 195 197 195 195 190 191 191 190 192 184 182 186 187 192 187 185 186 185 183 183 176 168 166 164 160 150 148 148 146 140 143 138 133 132 130 135 131 136 127 133 127 125 99 91 102 72 52 105 104 65 38 19 66 151 158 165 172 181 190 190 191 193 193 191 193 192 191 193 191 193 190 190 187 190 191 191 192 191 189 192 191 195 196 197 195 192 193 193 193 195 196 197 193 194 196 192 191 191 190 192 188 188 188 186 189 192 185 179 181 182 176 174 173 169 167 162 159 153 146 148 147 142 136 142 131 130 135 131 132 126 123 128 120 116 96 83 80 77 59 108 99 62 39 19 95 150 160 168 181 190 193 193 190 191 189 188 187 187 185 185 188 188 182 184 181 179 179 182 183 181 183 185 187 191 189 196 191 189 190 187 190 189 191 189 189 191 191 191 192 192 190 188 189 190 188 188 192 191 188 186 186 180 177 175 175 172 165 162 156 152 145 144 144 136 133 138 126 126 130 132 122 118 118 116 114 98 96 71 64 61 50 108 96 68 41 34 105 155 163 177 179 181 179 178 178 174 168 165 172 173 171 169 170 166 162 169 163 162 166 164 169 165 174 172 182 183 186 187 187 184 179 181 180 180 181 181 179 183 188 189 188 190 191 188 187 188 190 186 191 191 187 186 186 184 183 176 177 169 168 159 154 150 147 145 141 131 136 133 125 126 128 125 117 109 110 107 105 90 83 68 50 61 44 107 98 62 42 31 126 156 165 166 159 153 144 140 142 133 128 121 122 122 128 129 123 119 123 121 138 140 146 147 150 156 160 161 167 174 177 175 176 171 173 172 170 169 165 168 170 169 176 178 178 191 185 184 188 188 187 185 189 188 188 184 185 186 183 178 176 169 169 156 148 150 146 135 138 133 132 129 115 122 127 124 107 104 97 92 94 75 68 53 49 42 41 101 84 56 22 63 141 151 150 151 143 140 145 148 160 162 152 137 116 107 102 97 93 87 88 90 103 109 113 124 137 146 147 152 161 168 174 168 164 163 159 158 157 154 144 144 139 145 144 154 163 172 167 173 179 179 177 177 182 188 181 185 181 181 183 177 175 173 162 160 156 148 146 135 135 135 128 127 121 125 124 122 112 101 95 75 74 63 63 50 39 42 24 75 53 39 38 93 148 145 140 130 140 149 165 168 176 185 192 185 177 158 139 117 104 97 89 95 97 90 100 114 121 132 140 148 155 158 164 159 159 150 150 148 144 132 120 117 111 113 108 108 114 122 127 135 155 151 156 160 162 174 175 183 178 183 185 179 176 174 168 155 156 146 142 133 134 131 128 126 121 126 126 119 102 95 87 66 60 61 50 43 37 40 43 79 49 47 49 132 150 142 130 142 149 155 162 161 159 162 162 158 158 162 153 139 127 116 100 109 94 94 96 100 105 122 135 147 153 158 158 157 151 144 134 136 129 116 110 103 92 102 91 81 79 85 87 95 106 120 128 134 136 147 159 165 168 171 177 182 179 175 173 163 151 144 134 128 131 126 134 123 123 122 126 115 104 96 79 61 54 45 42 40 26 34 35 100 92 47 79 151 153 135 126 137 147 146 132 123 116 93 99 92 87 91 87 90 96 92 104 108 102 99 95 91 103 117 141 156 167 167 162 160 153 143 135 124 117 105 99 102 101 99 101 92 78 89 90 91 98 108 116 115 116 127 135 146 152 156 162 167 171 169 168 165 148 142 137 126 127 125 126 123 125 121 118 116 100 90 74 59 40 40 39 37 26 30 35 105 85 56 117 156 149 144 129 137 127 116 101 79 85 88 92 82 57 61 66 50 52 66 84 84 92 105 107 94 100 121 154 171 181 182 183 173 168 151 137 114 109 101 99 102 100 108 110 109 107 119 123 132 142 156 154 150 145 139 127 131 128 131 130 149 148 156 156 150 143 142 134 125 126 124 126 114 125 122 118 116 104 96 65 64 47 33 43 42 22 28 37 96 62 69 143 155 155 146 136 131 109 101 83 61 76 120 125 94 66 54 45 37 57 65 76 88 86 89 94 101 101 128 167 184 191 194 190 190 180 167 136 119 99 99 102 111 119 126 129 132 130 133 149 162 177 186 189 191 182 182 167 154 141 123 122 118 127 131 138 136 137 134 130 124 124 129 125 126 124 126 126 118 105 106 63 52 49 35 38 38 29 32 27 87 49 86 150 162 160 154 139 121 115 110 103 104 102 133 147 114 79 79 63 61 79 90 105 104 88 103 116 103 108 138 179 194 199 197 195 189 186 168 134 116 101 105 112 118 121 120 114 111 118 119 124 119 129 134 147 162 174 184 183 175 158 144 129 122 110 120 115 127 128 129 121 127 126 130 127 124 129 125 127 122 103 98 75 53 47 29 34 40 26 32 29 71 63 113 154 165 169 161 147 133 137 132 130 131 130 139 155 148 119 114 112 118 118 122 125 136 119 119 147 157 140 161 188 197 200 198 194 192 177 158 130 119 108 107 112 115 113 111 113 112 114 112 114 96 82 79 82 89 109 128 154 165 159 152 142 130 117 110 115 114 117 126 121 126 129 128 132 127 128 129 127 124 104 94 82 53 54 29 32 42 27 30 34 72 70 122 159 163 171 170 162 159 154 142 144 155 152 141 143 147 155 151 154 153 154 151 154 167 178 168 171 181 172 180 191 197 197 195 197 188 174 144 140 132 122 128 124 126 117 112 99 109 125 148 140 94 65 66 67 58 56 59 95 110 132 139 137 134 126 114 110 110 112 114 120 121 128 129 133 131 133 129 127 131 112 95 85 66 41 40 34 30 38 35 33 66 79 130 161 166 164 175 180 181 169 157 147 143 153 159 157 158 154 147 149 144 140 141 139 137 140 143 144 163 183 188 193 195 197 191 193 179 166 142 151 152 152 178 177 139 121 110 114 126 153 169 159 114 90 60 48 45 55 58 66 73 80 103 122 130 122 119 113 114 112 113 120 120 126 130 132 131 135 127 132 131 120 96 86 80 53 50 32 29 35 35 36 78 96 137 163 159 165 179 186 178 167 154 143 131 122 125 132 132 135 127 122 117 106 110 109 118 125 137 155 172 189 196 196 195 194 192 188 174 158 144 149 162 159 166 190 195 188 174 152 156 171 180 171 153 106 103 83 69 81 84 89 82 72 61 86 116 117 117 118 113 114 116 115 128 128 130 126 130 129 132 132 132 120 102 85 75 69 49 43 35 38 32 37 94 109 144 163 166 175 184 189 183 182 180 175 168 156 137 123 113 116 109 108 114 115 128 141 147 153 154 164 181 198 197 197 197 192 189 182 164 154 144 151 164 152 151 151 156 149 147 148 149 156 160 164 163 158 146 139 122 122 120 123 114 105 94 90 88 105 112 120 118 124 127 121 126 130 130 133 131 131 128 136 131 120 99 84 75 72 47 50 38 37 30 34 82 109 145 169 177 183 188 192 186 183 180 183 183 183 182 179 165 162 159 151 154 156 159 165 172 172 164 173 193 200 200 196 196 191 184 172 157 145 141 156 169 168 161 160 155 143 130 127 136 141 152 150 151 153 148 142 142 140 141 140 134 128 128 120 103 101 109 122 126 130 129 133 130 134 135 134 136 132 133 130 131 121 101 79 69 70 50 50 49 35 36 39 84 116 151 167 180 188 190 191 190 188 184 180 180 179 179 173 175 170 172 170 173 178 181 184 178 166 169 184 200 203 201 197 193 188 175 163 154 144 143 156 169 175 172 168 164 159 145 131 118 115 126 139 146 153 151 148 149 145 150 137 133 128 127 132 123 119 119 121 128 130 131 134 137 137 134 140 136 133 132 133 129 119 108 89 65 58 47 53 55 33 51 66 79 125 153 166 176 185 192 191 193 191 189 187 184 184 183 177 178 179 183 184 185 188 187 181 166 164 179 196 203 203 199 194 190 179 166 149 148 143 145 150 165 171 176 175 174 167 159 153 145 136 123 110 109 118 114 116 114 116 114 116 121 121 130 133 139 137 141 142 143 149 150 148 139 142 131 137 136 135 128 130 130 115 104 87 65 55 61 47 51 42 72 83 86 126 153 167 175 179 189 192 194 196 194 193 191 193 189 188 188 191 190 190 188 184 181 171 165 177 195 202 204 202 193 190 180 169 154 150 142 142 146 149 155 163 176 177 183 184 183 170 166 168 161 160 152 142 136 125 129 133 142 143 151 148 156 153 152 154 164 152 158 157 162 154 145 143 138 132 132 131 124 126 120 109 98 79 58 51 57 51 58 47 76 88 98 133 156 164 171 171 176 186 186 192 195 194 195 197 194 193 193 193 191 190 184 184 174 166 175 191 201 202 203 198 193 182 173 162 153 146 144 142 142 149 155 164 171 176 182 189 188 187 185 177 174 172 173 176 172 173 170 166 166 168 174 170 165 161 161 164 170 169 171 171 167 162 147 142 133 132 125 127 118 122 113 104 85 70 67 41 46 48 46 57 77 83 99 134 151 158 161 164 156 179 180 188 190 194 195 194 195 193 190 190 187 186 181 179 170 169 180 198 202 202 201 198 191 188 177 160 154 144 146 144 141 151 155 160 168 171 181 184 190 190 192 189 183 176 177 175 176 176 176 174 173 169 169 174 172 173 171 166 170 172 173 174 170 161 148 137 132 129 116 119 115 115 109 90 79 62 63 57 41 40 41 71 93 97 107 135 151 161 165 170 168 172 188 186 190 193 194 194 193 190 186 187 184 184 178 174 165 176 188 198 203 203 200 195 191 184 177 160 149 143 141 142 144 148 151 153 164 170 181 184 189 190 192 192 190 188 189 180 180 184 180 182 181 187 184 182 182 180 181 181 177 175 170 173 161 152 143 134 130 127 115 114 116 108 88 75 73 65 55 53 48 43 32 88 113 116 114 132 146 161 169 170 172 173 182 188 189 190 194 191 190 187 185 179 183 172 171 162 164 178 192 202 203 205 200 196 190 185 171 159 140 132 132 129 139 145 148 159 161 171 176 181 185 187 189 193 194 191 192 191 190 188 186 188 187 190 189 192 192 185 186 182 185 178 171 166 159 149 143 134 129 116 119 107 109 92 72 56 61 56 63 53 46 51 40 36 83 103 114 135 144 155 169 163 173 176 179 184 184 186 187 189 185 183 183 174 176 171 159 158 169 181 193 202 206 203 200 193 190 180 165 156 136 129 124 125 123 136 141 158 161 167 176 179 180 188 187 189 191 191 190 192 192 190 189 190 191 191 185 189 187 188 185 181 178 176 172 163 156 150 141 132 128 118 112 115 95 85 69 51 57 62 59 59 51 53 57 29 55 68 118 138 146 154 160 160 168 173 174 178 182 183 183 181 178 179 171 173 168 158 158 160 169 183 188 197 199 198 194 187 185 170 159 141 136 135 135 135 136 133 141 148 158 167 175 179 183 185 186 188 191 190 186 188 191 191 191 187 191 191 189 183 182 179 180 176 171 167 172 162 148 147 138 130 128 114 112 111 103 87 75 58 55 58 54 68 59 65 65 38 53 62 129 143 149 149 159 156 162 170 172 166 173 178 180 175 171 171 165 157 160 157 159 161 160 172 178 187 182 177 177 172 163 154 144 135 132 139 147 152 155 152 143 146 153 169 170 176 181 186 185 189 189 190 185 188 189 189 190 184 186 188 187 180 175 181 173 171 169 163 162 156 140 141 132 126 122 116 113 113 104 89 76 67 67 62 65 78 68 71 81 49 47 58 128 147 145 145 156 163 159 161 169 166 162 169 170 167 160 160 157 154 154 153 149 139 130 145 160 166 157 150 142 134 130 126 119 122 126 131 149 159 163 152 146 139 144 158 168 175 180 181 184 183 189 188 188 185 188 184 186 185 181 182 176 174 172 171 167 161 161 154 152 145 139 136 130 128 121 107 121 109 107 88 75 66 71 60 78 80 70 100 98 62 48 61 125 143 144 140 146 155 161 156 162 168 159 157 162 150 147 148 147 151 163 141 116 97 87 108 124 126 120 115 111 97 101 90 102 100 110 124 143 155 157 145 138 132 134 156 159 163 171 172 178 181 182 185 187 186 184 184 184 188 178 174 173 167 161 165 160 156 154 150 145 138 137 134 131 124 116 112 112 110 98 85 76 69 56 59 66 72 90 104 104 77 59 67 129 143 143 133 138 145 158 155 152 158 152 147 147 139 145 144 146 152 163 147 113 80 55 67 86 92 89 86 89 84 72 69 59 63 79 91 113 129 129 130 127 122 127 144 153 153 161 163 167 168 177 180 183 186 187 185 182 179 179 174 174 166 163 159 154 148 153 139 139 137 127 133 126 123 115 107 112 108 83 77 84 58 59 60 62 66 91 96 93 79 67 80 129 144 139 137 138 142 148 149 143 145 145 135 137 133 139 140 154 159 158 165 138 101 72 56 62 70 74 74 75 70 60 51 50 44 42 47 71 91 100 109 109 110 124 144 155 156 153 154 164 168 171 173 179 183 183 183 179 176 176 166 161 156 161 158 151 149 146 143 136 134 131 127 121 119 114 116 110 93 93 86 66 61 62 52 60 63 66 90 91 78 95 106 122 140 142 138 137 138 143 144 142 142 144 134 134 132 139 148 157 157 158 159 151 118 88 71 74 60 67 73 71 75 64 67 69 63 60 58 59 62 77 91 90 107 119 142 155 163 154 151 155 157 161 166 168 172 176 176 176 171 170 159 153 150 157 159 150 146 144 139 132 130 127 125 120 116 112 118 106 91 99 87 61 67 70 58 59 61 64 90 107 111 118 112 120 136 145 142 135 139 150 143 144 143 145 134 135 139 147 152 158 160 159 162 152 142 120 103 102 73 67 68 72 70 76 74 72 74 76 76 73 77 88 99 103 114 127 138 160 161 160 157 151 151 156 162 166 174 171 171 170 164 164 162 157 153 156 148 147 145 136 133 127 130 128 123 118 116 113 112 107 102 95 87 68 66 74 66 73 69 88 115 119 117 116 107 114 130 138 137 139 143 140 145 145 145 139 126 141 143 157 152 156 151 154 149 149 144 129 129 116 104 93 85 72 73 77 85 82 82 77 80 94 100 103 119 114 118 124 145 154 158 165 161 163 153 149 156 161 162 168 164 161 160 148 148 152 151 145 143 133 133 130 122 127 123 125 124 116 116 113 108 96 97 87 66 75 79 72 66 71 76 97 106 114 123 115 115 118 119 127 135 141 146 134 137 144 151 137 139 140 151 150 152 153 151 149 145 141 136 129 134 132 119 111 102 93 87 94 88 93 89 84 82 85 90 96 109 119 122 135 148 152 162 164 166 160 156 155 157 154 155 160 156 155 155 147 146 148 149 143 136 132 127 130 124 121 124 129 113 109 113 109 109 93 88 89 69 77 78 73 62 73 88 98 107 109 117 116 107 111 117 122 128 144 148 142 134 147 147 144 143 142 149 151 147 146 145 140 135 134 134 131 135 137 124 121 115 103 101 105 103 99 99 91 85 85 96 93 106 117 126 132 148 155 156 160 160 163 162 163 160 156 150 151 153 155 153 149 146 141 136 139 139 133 129 126 127 125 126 123 115 107 111 106 100 96 90 86 82 76 65 65 64 82 104 112 105 109 104 104 89 103 112 112 127 134 144 147 144 147 144 146 143 137 141 151 151 141 147 137 131 119 118 123 129 132 120 113 99 99 109 117 112 109 99 102 97 100 103 100 104 112 121 133 139 152 150 155 154 160 158 164 161 154 149 150 148 149 147 144 143 140 135 133 132 130 127 123 130 127 121 123 113 116 109 105 94 94 92 79 79 69 62 63 65 83 113 113 99 97 88 80 84 107 101 111 123 127 133 141 151 142 145 138 136 131 126 138 142 140 133 132 123 111 106 109 117 127 116 106 100 99 106 113 110 105 106 100 109 101 105 105 110 116 117 125 140 138 135 145 145 150 153 156 155 154 150 148 144 141 145 140 138 137 134 131 128 128 124 125 124 125 115 116 113 112 104 102 90 88 88 83 77 65 62 60 52 88 94 94 81 80 73 75 77 94 90 100 115 112 118 130 147 141 131 123 118 122 126 135 131 126 116 114 110 97 99 101 105 111 101 97 91 92 104 107 105 98 103 106 109 115 112 117 116 118 114 117 131 135 132 141 144 140 151 151 152 150 155 152 144 140 139 139 137 139 133 134 126 134 127 124 126 123 115 116 113 109 101 93 90 82 85 83 72 58 61 51 57 75 76 76 74 76 72 75 72 80 90 96 100 109 113 121 131 129 121 110 107 101 103 108 111 104 92 86 87 85 83 85 93 97 89 89 91 88 95 83 86 81 91 99 108 118 113 122 116 115 108 115 124 130 120 132 140 136 139 146 147 154 152 149 145 140 143 136 137 137 138 131 129 132 130 122 123 121 112 110 105 100 93 81 84 79 78 81 65 68 51 42 57 70 75 77 70 76 66 75 70 75 83 91 99 104 98 110 108 115 107 99 94 90 80 86 89 81 86 74 70 70 61 70 77 78 84 81 81 78 76 70 69 68 75 88 97 106 107 109 106 107 103 112 115 115 115 122 131 130 134 137 142 148 144 146 145 142 142 140 140 132 136 129 129 130 130 126 121 119 111 110 100 97 88 72 85 83 74 68 69 69 54 46 63 74 72 75 66 75 72 64 72 89 81 81 92 94 96 99 105 107 91 87 85 81 83 79 86 98 90 79 72 62 54 58 48 52 68 77 83 77 73 69 72 80 73 78 83 91 93 92 92 89 91 102 108 103 99 107 119 121 127 132 125 135 144 146 142 143 144 144 142 131 132 127 123 120 123 121 121 116 116 103 99 94 90 73 81 81 73 61 65 65 50 63 66 72 70 73 70 66 73 67 67 77 81 81 79 87 101 97 99 99 95 87 86 89 94 88 98 105 102 100 89 82 74 63 53 47 52 61 70 71 69 71 82 87 89 76 67 76 77 66 77 70 79 80 97 77 80 89 112 114 116 124 120 126 141 145 140 146 148 139 140 130 129 122 117 117 109 113 119 114 110 93 91 89 77 67 83 76 72 56 64 48 58 56 72 68 71 69 64 70 63 68 59 66 72 76 72 75 85 92 90 106 98 90 95 108 105 111 125 133 134 127 121 100 95 99 95 86 85 79 76 72 66 70 65 69 63 58 53 48 59 67 73 73 84 77 88 76 62 84 92 110 114 114 118 125 130 142 145 146 143 141 131 128 116 113 118 107 108 107 104 102 101 87 88 79 70 70 71 61 63 54 61 57 50 64 61 68 69 61 71 62 65 62 68 64 73 76 83 80 75 89 102 109 95 91 105 116 121 130 140 150 143 147 137 122 117 123 129 133 137 130 125 127 127 111 99 85 82 79 75 81 79 74 70 64 65 70 71 73 67 75 83 92 102 108 107 117 121 140 138 140 141 133 127 123 119 111 104 108 108 99 96 96 93 82 82 86 67 72 64 57 65 49 61 46 53 65 65 67 61 68 63 63 61 59 66 67 75 79 77 79 81 86 94 110 109 100 107 116 121 137 148 154 156 161 160 148 138 134 138 139 145 150 147 156 154 151 134 125 114 110 113 105 101 86 92 93 78 80 72 74 73 77 82 84 89 101 107 101 115 124 131 127 132 125 117 116 114 105 101 111 105 92 87 86 83 77 77 75 77 64 67 53 56 59 49 52 58 60 65 62 61 65 59 64 60 60 57 61 70 71 76 77 84 84 105 104 100 97 83 85 107 127 139 147 151 152 161 165 156 151 136 134 130 132 130 133 139 141 134 135 122 126 123 119 115 104 108 107 100 98 89 85 74 80 82 83 83 97 103 105 105 113 117 119 125 117 116 110 106 107 96 94 96 81 88 79 78 60 74 72 69 61 58 58 48 52 45 51 56 52 62 66 57 64 57 57 59 57 55 59 65 65 79 71 70 81 101 94 75 69 72 80 89 106 120 126 137 137 134 144 151 152 145 141 135 135 131 127 123 126 128 124 120 130 125 122 125 118 125 122 118 112 105 89 85 71 87 85 97 99 104 101 103 101 105 115 116 107 104 109 105 99 96 78 88 77 78 77 71 55 61 68 71 64 56 52 55 40 45 50 57 56 62 61 59 57 63 57 51 62 48 62 59 78 67 66 69 74 89 87 68 62 82 85 92 100 107 111 116 123 128 129 131 133 135 145 143 144 151 150 140 149 148 136 134 142 140 131 139 140 136 142 128 114 107 111 88 79 82 102 101 102 104 96 88 91 94 102 102 90 87 98 97 88 74 80 87 75 79 65 58 56 56 65 62 68 54 50 52 41 48 50 53 53 60 59 56 54 55 58 54 55 57 69 57 69 67 54 67 76 82 81 75 88 98 100 112 113 110 115 115 117 126 124 136 136 131 131 133 136 136 142 133 137 148 150 149 151 148 135 138 142 147 150 143 113 107 110 99 89 89 106 109 102 97 85 83 80 73 92 92 83 78 85 85 83 75 65 72 76 68 61 55 55 53 56 59 62 52 52 41 51 45 54 60 56 54 52 57 53 53 58 49 50 51 63 62 60 63 57 58 82 93 74 93 90 101 100 117 122 121 119 124 126 129 129 124 125 124 121 131 125 128 126 127 124 135 147 150 153 149 123 123 141 139 140 141 120 104 109 107 92 86 99 113 112 102 82 75 72 66 81 90 83 77 78 87 63 77 67 63 61 59 58 58 45 57 54 52 53 52 50 42 49 38 58 54 58 49 54 52 52 59 50 48 53 54 59 56 60 57 69 72 76 92 92 86 91 87 98 108 108 112 111 116 115 120 119 107 110 109 112 115 119 120 117 115 112 116 127 137 139 141 129 122 120 131 133 132 112 110 99 107 91 97 90 100 107 100 81 76 64 74 78 84 70 78 79 76 67 67 76 59 49 66 57 44 46 55 49 49 50 50 48 38 44 50 52 58 49 55 53 47 55 50 43 52 49 50 52 58 59 69 73 80 90 93 91 84 87 99 107 108 104 101 103 106 105 112 114 113 108 104 103 101 111 110 110 118 115 113 121 123 137 139 127 123 111 117 123 121 109 101 101 104 98 90 86 96 89 83 83 73 63 66 69 76 73 72 74 72 67 74 64 51 55 64 58 39 39 44 52 40 56 45 51 43 47 57 51 59 48 53 47 56 45 51 48 48 47 46 53 54 59 61 69 77 81 88 85 90 108 111 119 124 110 100 107 108 105 107 107 110 112 103 109 105 111 108 113 117 122 123 121 120 129 129 113 110 120 102 113 117 107 94 100 105 106 98 90 90 87 71 72 67 64 59 56 74 68 70 67 59 60 61 66 54 53 62 59 45 31 43 45 48 51 52 54 43 50 46 56 49 48 46 50 47 46 47 46 47 43 52 65 60 65 73 61 67 71 72 86 98 109 114 115 110 106 102 107 110 101 104 103 111 112 109 114 107 106 111 114 115 125 123 125 121 117 115 106 108 116 101 104 112 101 89 99 102 98 94 85 87 82 73 68 69 65 54 50 58 68 63 68 50 53 58 65 52 56 52 56 46 40 37 42 39 57 53 53 47 49 52 53 49 48 47 46 46 45 43 47 44 43 43 62 66 60 75 64 65 58 51 79 90 99 103 109 103 96 97 96 96 95 93 107 105 114 115 108 102 106 101 115 115 125 126 121 118 111 108 109 111 110 96 106 110 102 91 92 93 89 81 82 87 81 73 64 67 70 63 48 54 62 58 54 49 52 53 65 61 50 53 54 42 44 43 40 38 53 66 55 44 49 56 49 51 46 51 46 42 50 40 46 45 40 44 88 66 67 64 69 52 56 55 68 79 87 94 99 104 100 96 85 88 90 87 92 98 110 115 104 102 97 108 114 119 127 125 120 110 106 102 98 93 95 99 97 102 97 91 90 87 82 78 80 84 85 69 64 59 64 64 59 58 51 53 43 38 62 58 59 55 50 56 40 51 39 41 38 48 52 72 66 38 45 56 51 54 47 45 45 48 44 42 45 42 42 39 91 80 77 71 58 59 65 56 67 83 81 85 95 90 92 95 85 75 70 69 90 97 104 103 97 95 103 111 112 115 118 117 111 109 115 103 98 89 88 95 93 85 83 90 87 90 80 75 74 78 80 71 64 54 44 61 38 49 56 46 52 45 58 54 58 57 51 42 50 33 39 39 35 54 61 76 63 37 49 45 52 60 47 45 41 40 43 45 39 41 41 45 95 83 83 69 79 60 67 69 68 83 78 74 79 75 87 86 85 63 63 69 76 86 96 94 92 91 104 102 102 98 105 105 102 108 106 105 100 91 88 88 83 79 78 88 89 84 75 73 62 70 85 74 73 45 48 56 51 46 59 49 46 45 55 56 50 51 56 39 38 37 47 39 47 62 83 82 61 37 40 48 41 67 59 47 40 44 45 46 37 42 42 41 100 90 81 67 71 62 61 75 70 78 74 71 66 69 83 89 80 66 68 69 80 84 85 86 87 83 93 93 89 86 99 97 95 101 98 99 92 97 90 83 69 79 85 90 88 78 79 70 63 80 81 80 81 52 50 56 55 47 56 49 43 38 54 51 45 50 40 36 34 32 48 45 62 73 79 87 51 37 37 36 54 54 60 61 38 43 39 39 40 43 44 31 98 89 80 67 58 52 61 63 65 68 67 73 70 69 76 80 76 79 74 74 83 79 78 77 86 91 91 87 80 88 87 95 95 90 86 91 91 92 83 75 67 71 79 99 94 80 76 61 58 67 81 78 73 57 51 48 55 49 55 47 47 47 46 51 46 43 35 34 36 30 53 47 70 78 85 95 49 29 30 41 44 56 55 67 44 40 39 41 38 45 39 41 108 84 78 72 53 50 56 70 56 64 67 69 63 67 66 65 65 65 67 67 80 89 84 69 86 85 80 76 82 86 86 84 84 81 89 87 78 82 71 82 68 80 75 90 86 94 76 65 58 58 70 57 71 65 52 51 49 41 48 44 41 49 47 47 55 43 34 38 30 41 58 58 63 72 85 91 46 9 34 35 47 49 52 62 56 48 40 34 45 37 43 36 91 85 85 76 63 52 54 67 68 63 69 72 74 56 57 60 59 47 50 57 78 76 81 72 81 71 68 68 74 77 74 76 78 82 84 74 73 77 78 79 77 80 79 79 77 74 77 73 60 61 52 60 66 64 51 42 46 44 48 43 44 41 42 48 46 34 32 40 35 47 58 61 64 67 84 86 23 32 19 39 38 55 54 58 65 54 43 37 38 40 43 37 94 87 77 73 68 57 61 72 60 63 65 59 58 52 60 46 55 44 52 58 65 69 62 68 70 66 66 63 73 71 78 62 67 72 83 66 61 64 73 74 83 83 75 74 73 66 55 66 60 58 59 60 60 53 50 39 49 48 49 31 46 41 46 39 43 32 36 34 36 47 61 69 66 66 89 78 19 24 29 35 43 52 59 59 63 60 46 52 38 44 43 38 96 84 73 62 62 68 55 54 47 62 52 61 49 47 48 46 46 39 52 61 57 65 54 56 62 63 54 61 65 64 69 57 70 70 66 63 58 61 68 77 70 63 65 62 64 62 43 48 54 50 60 59 57 35 44 42 40 47 40 31 46 41 41 35 31 30 37 37 41 46 60 58 68 75 87 66 15 21 23 38 40 52 60 60 64 57 55 54 47 48 40 47 91 87 75 53 68 102 64 54 48 55 56 45 57 51 37 38 49 38 41 53 59 56 47 49 48 49 53 65 65 56 50 59 64 62 51 55 57 59 63 57 63 50 59 62 65 49 43 50 51 43 56 54 48 26 38 40 40 43 42 43 44 42 31 35 31 30 38 45 45 44 62 54 71 88 93 49 15 20 24 37 40 53 51 66 57 67 54 46 48 49 50 51 100 80 84 35 72 141 88 67 48 44 46 48 38 44 39 45 30 43 24 46 51 55 43 38 38 46 50 45 56 46 49 47 49 44 50 49 60 57 52 58 54 47 58 53 43 48 45 50 50 48 50 46 45 35 38 42 40 44 40 45 38 33 33 39 31 31 37 58 49 43 57 62 75 99 89 41 16 15 33 31 47 50 58 62 60 67 66 38 47 48 47 48 