P2
92
112
255
112 109 111 112 113 112 114 107 113 111 112 113 113 111 116 111 113 111 107 110 116 100 103 97 105 111 121 120 116 129 120 120 124 132 114 93 103 118 102 118 115 105 105 119 107 115 128 109 117 123 130 100 108 93 121 133 120 107 131 128 97 109 129 123 111 102 101 109 106 84 103 112 115 113 111 115 113 112 113 111 112 112 109 113 114 110 115 106 111 112 110 113 109 111 112 112 112 112 115 111 112 117 112 115 114 114 107 117 111 117 102 102 104 112 114 118 127 130 142 142 126 129 118 113 106 114 112 115 87 111 113 108 112 109 106 105 111 105 105 123 108 114 116 128 103 86 110 131 125 103 118 132 110 118 133 128 112 101 110 115 107 94 110 112 112 113 112 114 111 112 114 111 114 113 112 114 110 112 112 109 111 114 112 111 109 111 111 111 114 112 115 115 109 115 111 115 115 107 97 101 111 116 108 95 95 116 127 136 143 147 145 143 141 130 128 125 115 111 100 117 97 100 108 113 113 108 105 107 107 121 99 112 119 117 111 122 118 90 93 125 131 111 104 126 116 126 135 138 119 103 123 117 108 106 111 111 116 113 112 112 112 114 113 113 110 115 112 112 112 111 113 108 112 110 113 110 110 112 111 113 114 111 116 112 113 112 115 112 120 104 84 99 86 103 96 101 115 127 139 142 144 148 141 140 138 144 126 131 119 103 97 98 110 107 106 108 122 118 96 109 110 106 109 105 120 121 124 107 132 98 81 96 118 112 91 117 119 118 130 135 125 115 115 110 111 108 110 112 111 115 108 103 107 112 111 112 113 111 112 111 112 114 110 111 112 113 110 113 110 115 108 111 114 115 113 112 111 117 114 113 118 103 93 92 95 92 85 94 95 87 96 100 109 113 105 115 128 125 119 127 121 113 105 98 98 114 114 96 111 118 95 101 115 99 95 109 109 109 123 102 124 118 90 82 98 108 83 94 120 107 125 133 130 124 118 117 114 111 113 114 113 106 91 79 93 115 111 112 113 112 114 109 113 113 111 110 110 114 112 108 110 112 112 110 114 111 113 115 113 116 103 106 101 103 106 95 87 89 89 105 93 81 77 78 85 106 114 106 98 97 109 112 116 109 107 106 107 97 122 101 81 121 121 87 112 111 102 91 118 79 105 98 100 125 94 98 78 92 83 74 107 87 120 121 127 122 123 119 112 113 123 123 109 98 81 87 102 110 114 112 114 111 112 113 112 115 109 111 112 108 116 113 111 113 112 111 113 112 110 112 115 110 102 94 106 107 102 102 88 69 83 97 92 88 95 91 86 90 109 114 126 116 106 95 101 116 108 89 99 105 104 113 83 104 129 119 79 107 120 84 103 104 69 98 75 121 74 95 79 74 74 68 90 76 109 106 110 119 126 115 116 122 133 130 113 94 89 104 103 111 115 114 113 112 112 115 111 113 112 111 113 110 112 110 112 113 111 111 114 112 113 112 116 111 96 105 105 108 97 80 84 81 93 100 102 94 96 106 105 104 105 116 108 115 124 116 102 107 110 96 103 105 96 118 113 93 117 138 104 84 105 99 73 121 75 92 66 103 76 72 79 67 64 67 78 73 96 95 95 118 111 120 126 134 146 125 106 100 96 101 101 97 104 111 115 110 113 114 115 112 111 111 112 112 110 111 112 114 110 114 111 111 114 113 105 103 93 99 104 94 85 72 74 90 98 100 116 113 101 102 108 117 116 113 106 105 113 115 117 112 110 118 99 100 103 108 120 103 106 120 141 88 89 101 81 95 97 80 73 79 87 56 77 61 58 67 71 74 80 76 96 111 93 123 136 148 144 128 111 107 100 88 77 71 95 112 117 111 113 111 110 114 114 112 111 114 111 112 113 110 114 109 116 109 113 107 105 96 99 101 100 95 72 76 76 99 104 114 121 118 109 101 88 98 107 126 112 99 105 111 113 116 114 119 122 107 108 113 115 120 109 115 123 135 105 94 101 87 102 94 85 76 89 64 75 70 62 61 73 76 70 63 88 96 94 107 122 139 136 126 117 111 98 80 88 99 102 114 114 110 106 114 115 113 114 111 115 113 114 112 116 112 110 113 114 113 111 105 96 95 108 102 92 75 79 75 94 104 103 105 111 110 107 107 94 90 86 95 123 115 105 113 112 125 116 117 128 136 129 129 130 131 123 125 116 134 135 108 113 112 103 108 101 88 96 86 79 76 73 68 80 76 69 63 78 89 86 94 107 122 122 125 132 112 94 96 100 102 92 101 104 98 100 111 114 112 111 111 112 115 112 114 112 114 108 111 114 115 103 98 88 77 104 100 88 86 98 95 93 87 90 84 84 81 79 91 98 96 98 90 106 116 117 124 128 129 131 135 141 146 161 154 161 154 149 141 143 131 143 141 132 132 133 123 124 119 115 115 103 105 95 85 92 84 70 58 79 79 73 85 85 104 112 120 128 119 108 106 104 94 91 98 95 92 106 111 112 111 114 110 115 107 116 108 113 111 111 113 117 102 97 77 82 89 103 103 105 101 97 84 86 76 74 71 66 68 79 87 98 108 120 128 127 137 134 136 146 148 159 160 171 172 180 184 182 176 176 162 166 159 160 163 164 156 165 151 150 148 146 145 140 134 132 120 118 106 87 72 76 72 67 73 74 94 103 116 136 125 116 113 107 94 93 83 88 97 110 109 112 115 111 111 114 110 113 112 114 111 114 109 109 99 80 83 91 105 113 111 110 97 95 88 76 69 74 71 78 95 110 123 132 140 138 148 158 161 156 161 168 172 175 183 189 194 194 192 192 191 192 185 182 178 182 179 178 179 181 179 168 171 166 167 165 162 157 151 150 139 122 112 84 73 61 71 71 84 90 114 126 134 123 127 116 98 93 82 83 81 91 114 107 119 109 115 108 115 112 112 113 112 110 110 107 101 65 61 87 112 118 121 121 109 99 87 82 81 82 104 116 133 143 158 167 165 174 176 179 182 183 183 189 194 193 192 201 204 201 198 198 197 200 193 194 190 190 194 189 188 185 190 180 181 178 176 180 177 170 170 161 166 153 137 136 101 73 73 63 74 83 99 105 109 121 135 122 111 99 90 86 81 85 102 109 109 111 115 109 114 114 111 113 112 108 114 103 78 56 80 89 100 121 122 113 103 88 75 78 91 127 136 150 158 162 175 173 177 188 189 190 194 198 198 199 200 202 200 203 205 205 201 198 201 200 197 195 195 194 195 195 196 188 193 192 189 186 186 185 183 177 173 171 167 162 163 148 145 121 81 72 71 74 75 77 92 114 127 122 121 113 101 98 92 93 97 96 110 116 111 114 113 111 111 113 110 110 116 101 62 77 92 104 117 122 126 114 99 77 74 99 139 155 160 163 170 180 185 185 188 192 197 199 201 201 199 203 203 202 202 202 204 201 204 201 202 198 198 196 197 197 197 196 199 193 196 196 195 192 189 189 186 184 176 177 175 164 167 163 158 144 128 93 68 65 60 66 90 98 116 129 121 127 115 109 96 95 97 92 105 112 114 112 109 114 115 111 107 111 105 95 91 89 89 99 118 112 105 97 85 87 126 149 164 168 166 168 180 190 188 194 196 200 201 203 203 202 202 203 204 204 202 202 202 203 204 203 201 200 197 198 197 197 198 200 199 197 200 198 198 196 192 190 189 188 181 178 182 173 171 163 169 161 144 132 102 63 59 77 74 85 100 113 116 124 110 102 95 95 95 110 111 113 112 113 116 109 114 108 110 101 104 102 94 86 102 114 123 127 115 100 109 135 164 164 171 170 175 182 186 192 192 196 200 202 201 202 203 203 203 205 204 204 203 202 202 203 203 204 202 202 199 201 201 199 197 202 201 200 201 198 198 198 195 192 194 188 185 180 184 179 177 164 166 165 155 150 140 106 72 66 66 83 88 97 104 112 107 107 95 76 89 107 114 110 118 111 113 116 112 114 102 105 105 96 87 93 117 127 132 122 110 99 140 167 171 170 178 178 180 189 189 195 194 200 200 201 201 203 202 203 205 203 205 203 203 202 203 203 202 202 202 203 197 202 199 201 199 202 200 200 202 198 198 200 197 195 195 189 188 181 183 184 179 174 165 164 162 159 155 144 115 71 68 68 75 82 88 103 114 102 91 90 78 105 110 107 115 112 112 115 112 111 106 107 98 93 97 109 131 136 129 121 111 138 167 173 168 179 179 180 188 191 193 195 198 200 198 201 201 204 203 203 205 203 203 202 202 202 203 201 202 200 202 200 201 202 200 201 200 201 198 200 201 198 198 200 196 196 194 194 188 186 183 183 180 179 174 169 165 163 159 152 148 114 67 62 62 69 87 99 109 109 112 102 100 88 106 106 112 113 112 114 114 110 113 90 89 89 94 103 129 144 129 111 132 151 168 171 177 179 182 181 189 192 193 197 197 201 200 200 201 203 203 205 205 203 203 202 203 202 202 202 201 201 203 202 198 202 200 201 200 201 201 202 203 199 198 200 197 195 196 195 190 188 185 181 177 183 174 172 165 162 160 157 150 142 94 61 61 77 99 100 118 119 112 98 79 77 93 105 110 116 113 116 113 109 103 77 80 77 77 108 130 129 115 120 147 157 167 173 179 181 181 184 187 189 193 196 197 198 197 200 202 201 203 203 205 202 202 201 201 202 202 201 202 201 203 202 200 201 201 200 201 201 202 200 200 201 200 199 200 194 197 195 190 189 187 186 176 180 173 176 168 164 161 157 151 139 129 79 60 75 84 92 108 116 115 101 92 86 84 94 104 111 115 114 113 105 85 68 75 78 97 115 135 128 131 150 154 157 167 173 178 178 182 183 184 188 191 193 198 198 198 199 201 201 201 202 204 200 201 201 201 202 199 202 202 201 201 201 200 200 201 200 198 202 201 202 200 200 201 198 199 196 195 195 191 190 187 187 180 171 173 171 169 165 160 154 151 137 133 115 75 74 72 79 99 112 113 104 106 100 93 93 105 106 107 114 113 103 91 69 67 67 92 113 128 130 129 152 153 158 166 171 175 179 182 183 189 186 192 194 196 198 199 200 201 201 201 202 201 202 201 202 202 202 200 202 201 201 202 202 201 199 200 199 198 200 201 201 201 198 199 197 200 197 196 193 193 189 190 182 181 176 176 175 168 159 161 158 149 139 127 131 96 71 65 74 94 104 113 111 110 104 96 97 100 100 100 111 117 95 73 64 48 73 90 103 115 124 137 153 153 155 165 168 177 181 184 185 191 187 191 194 197 198 198 198 197 197 200 199 202 201 202 199 201 202 200 199 200 201 200 202 200 201 197 200 198 200 200 200 201 201 196 198 198 195 193 192 189 190 190 183 175 177 178 173 172 163 155 163 148 134 126 126 120 77 63 74 95 105 113 116 113 97 98 96 93 91 99 109 116 89 68 46 55 71 101 115 123 131 155 159 152 156 164 171 175 182 186 189 185 189 191 193 193 194 198 196 196 195 194 199 200 200 200 199 200 201 200 198 198 200 200 201 200 200 200 198 200 200 198 200 200 199 198 198 197 193 192 193 184 191 188 183 180 174 178 176 165 165 164 154 152 135 123 124 132 106 82 79 80 96 107 120 114 108 106 99 96 102 104 113 113 75 55 44 59 91 106 111 115 138 161 161 154 160 165 169 172 181 186 187 186 185 191 189 190 192 194 193 192 192 194 194 198 197 197 196 199 199 198 198 199 200 200 201 199 198 200 197 199 199 199 197 199 197 197 197 194 192 191 191 189 187 186 182 180 180 180 179 170 162 165 153 150 136 122 123 135 127 81 77 68 80 98 102 106 108 98 89 91 89 99 113 113 77 47 50 71 83 90 102 126 146 161 156 157 161 166 161 178 179 185 186 187 185 187 188 191 190 194 195 194 193 194 196 199 198 196 198 199 198 197 199 200 201 200 201 198 201 198 201 198 198 199 199 195 194 197 195 194 192 189 191 188 188 186 181 180 177 181 176 170 160 160 149 149 137 127 128 136 134 106 77 82 75 75 91 91 96 89 84 93 90 102 112 113 72 50 51 62 82 84 101 124 151 158 154 161 162 166 164 178 180 187 189 189 187 189 192 191 193 196 196 197 197 196 198 199 199 196 200 202 199 198 201 201 201 201 200 198 201 198 201 198 196 198 198 198 196 194 195 193 193 190 191 188 189 189 184 181 184 181 180 172 156 151 150 146 138 130 131 136 143 119 93 90 94 82 78 87 95 94 81 84 99 102 108 111 63 47 55 59 76 79 98 133 149 153 155 162 163 166 173 178 181 189 189 194 189 187 194 190 192 196 199 197 200 197 199 197 201 199 201 201 200 201 199 200 199 202 200 199 199 201 200 197 195 199 198 198 193 194 193 192 193 188 189 186 192 189 184 181 185 184 177 175 164 154 149 147 137 131 137 134 145 126 101 95 98 89 90 76 89 91 98 89 98 104 106 112 48 53 50 65 74 94 118 133 146 149 154 167 162 171 170 178 181 188 190 192 192 192 192 193 195 200 199 200 198 199 200 201 202 202 201 200 201 202 201 202 201 202 201 201 199 202 197 198 199 196 198 198 193 197 193 195 191 189 189 186 191 190 184 186 186 183 181 173 169 160 148 149 145 134 138 138 137 137 110 75 113 98 88 89 81 63 82 94 81 91 108 113 50 45 53 64 88 96 115 137 141 151 159 166 167 172 175 174 182 187 187 194 190 193 191 196 197 197 202 201 201 203 201 202 202 201 201 201 200 200 201 200 202 202 200 201 201 196 198 200 199 200 195 199 197 195 194 194 194 190 185 188 191 192 188 187 188 189 180 171 172 160 150 146 145 134 139 138 137 139 117 95 86 117 99 95 90 85 53 81 96 76 107 113 46 52 53 77 77 89 113 127 131 146 155 163 164 172 175 174 181 188 189 190 193 193 194 195 199 199 199 202 202 202 201 203 201 202 202 201 200 198 202 202 202 201 198 198 201 200 197 198 199 200 197 198 199 195 193 195 192 194 184 184 191 194 189 186 187 188 184 172 169 162 153 149 147 139 140 141 138 143 127 104 96 96 106 94 92 90 65 73 96 100 101 111 43 51 67 72 74 97 108 122 130 145 160 164 161 172 173 175 183 189 189 191 192 192 193 194 197 199 200 200 202 202 199 200 202 201 200 201 200 200 201 200 201 199 201 199 199 200 200 198 199 200 197 199 200 197 194 194 190 190 188 186 190 193 184 179 186 179 180 176 164 165 151 152 144 138 140 138 134 138 140 107 98 101 97 86 81 76 60 64 95 104 104 119 42 50 58 69 83 89 105 121 128 140 158 166 167 170 175 177 184 189 189 190 188 192 193 194 196 198 197 199 199 199 199 201 199 201 199 197 199 198 200 201 200 201 200 199 198 200 199 198 199 200 195 196 195 197 198 195 192 192 190 185 192 193 188 187 185 179 182 173 169 163 154 151 149 139 141 135 127 135 134 119 100 104 79 84 79 70 56 54 81 111 108 117 39 51 54 67 79 84 107 111 130 142 157 165 166 168 175 176 186 187 188 188 188 188 189 190 191 190 188 191 187 188 186 193 193 195 197 196 195 195 198 198 200 201 201 197 199 198 200 197 197 197 194 194 194 195 194 196 191 194 193 188 189 190 189 187 187 182 181 175 167 166 156 152 153 142 140 133 138 126 124 123 103 94 97 69 76 65 56 59 54 103 112 114 44 48 58 58 69 85 102 114 127 141 154 158 162 162 171 178 185 187 189 186 185 180 176 168 163 158 152 149 143 141 148 161 175 179 191 193 191 195 194 194 197 197 199 196 194 200 194 192 194 192 185 184 184 185 192 192 187 191 193 189 183 187 181 184 181 185 181 174 169 161 156 152 150 140 144 126 141 129 118 112 116 81 94 86 62 73 50 58 49 77 116 112 45 54 53 55 65 81 97 112 126 144 152 154 162 160 168 175 186 189 186 176 162 144 138 127 123 124 132 128 119 119 125 126 147 156 170 188 187 192 191 192 193 197 198 194 196 195 192 189 191 170 154 163 154 149 154 158 150 166 181 180 173 178 177 180 174 179 177 173 169 160 156 153 145 140 140 129 134 130 115 105 108 98 84 84 69 54 49 60 70 76 108 112 50 49 48 48 60 73 92 107 124 141 151 153 157 160 168 184 183 168 158 149 143 130 124 123 111 113 113 111 117 116 136 130 132 139 154 178 185 187 189 187 188 194 197 193 193 190 189 184 177 152 134 144 135 120 115 114 119 128 138 153 152 157 164 170 174 174 174 174 165 161 162 152 145 143 135 129 127 123 111 107 101 99 84 84 71 45 46 61 81 85 110 113 51 41 43 51 56 66 87 104 123 137 150 153 153 159 170 175 162 142 146 158 165 172 169 164 160 157 147 135 128 136 142 145 147 139 145 159 181 184 188 189 188 190 189 190 189 188 183 172 167 148 140 143 138 120 105 100 99 93 111 125 132 132 138 148 159 161 165 174 166 155 158 153 141 143 132 121 131 116 106 104 98 95 80 56 70 57 42 44 74 109 107 108 43 43 39 46 49 65 84 106 129 138 152 151 152 162 170 152 145 156 166 173 176 186 188 190 190 199 172 177 164 156 159 153 154 150 149 160 172 184 187 190 191 187 190 187 189 185 183 167 166 154 153 155 147 134 123 125 132 136 146 154 152 145 145 147 145 143 148 162 162 157 153 151 138 141 133 123 128 112 108 93 94 90 72 50 45 63 50 47 44 102 113 109 34 35 38 44 54 61 80 114 134 141 150 151 152 153 156 149 156 165 183 176 181 191 174 182 177 171 140 166 179 176 165 165 153 153 150 152 169 180 189 190 190 189 193 187 185 183 177 162 158 156 152 157 160 156 156 164 177 180 181 180 186 189 172 168 158 138 127 143 152 155 152 146 134 138 138 125 125 106 103 92 90 80 62 47 41 48 62 55 44 90 114 109 30 37 36 42 52 55 93 111 136 142 150 154 143 142 148 150 168 177 182 178 170 161 107 87 90 84 83 87 108 130 151 166 166 157 146 147 161 179 191 193 195 197 196 191 188 178 171 156 154 151 156 166 174 170 167 173 156 152 151 123 171 195 183 183 179 159 140 129 131 141 144 144 137 132 137 126 122 100 96 83 75 75 48 43 40 45 49 85 64 86 113 107 31 36 39 40 49 62 91 120 134 142 148 152 137 135 152 171 170 172 171 155 113 101 109 103 83 83 84 86 92 99 104 140 169 167 158 149 146 168 190 197 195 199 194 197 189 176 163 148 154 161 172 175 172 147 112 114 108 91 98 70 83 115 135 163 181 174 164 149 131 122 130 140 137 132 128 128 119 99 90 70 63 65 43 38 41 39 37 70 97 104 110 110 40 37 34 39 53 62 96 129 138 142 146 147 142 133 153 166 166 163 148 101 90 125 177 121 108 159 58 103 99 109 112 114 139 161 169 156 140 157 191 196 198 199 194 198 190 171 154 148 163 171 178 169 143 134 120 122 118 94 88 83 73 79 63 115 169 171 169 162 140 129 122 134 129 133 130 125 117 102 80 69 53 51 46 26 46 37 31 65 102 111 107 110 32 29 31 46 42 64 107 129 140 150 148 136 137 144 153 164 161 132 94 91 139 185 199 134 101 130 99 100 128 146 147 137 140 144 161 168 143 151 188 193 194 199 194 191 184 159 154 159 171 172 170 153 142 140 153 201 135 164 116 52 111 72 103 61 100 157 165 167 153 135 119 124 130 133 132 123 119 95 83 54 49 45 40 25 36 42 32 58 110 112 107 112 22 32 29 43 60 71 110 137 140 151 145 134 137 144 150 160 153 113 81 115 160 193 203 175 119 102 140 125 130 175 193 126 151 167 148 170 152 147 183 194 197 195 193 189 172 156 157 165 170 159 159 150 134 150 198 219 177 131 165 75 126 83 114 117 60 120 168 162 152 144 127 116 131 135 128 125 126 102 85 53 33 43 37 28 31 35 28 60 110 110 108 110 23 26 38 49 58 71 120 141 148 148 143 138 143 146 148 155 133 103 108 133 148 167 182 184 155 136 135 146 156 181 195 172 108 180 180 174 157 150 193 197 198 196 196 185 168 155 163 162 170 176 156 152 154 179 203 206 218 140 141 146 91 108 135 163 72 79 147 162 147 149 136 122 125 134 136 121 125 114 83 56 35 43 36 29 26 30 30 47 105 113 111 105 25 32 44 43 48 74 125 147 149 149 143 151 150 146 146 148 133 123 133 158 158 159 163 154 166 169 174 168 163 165 159 179 177 173 205 195 155 172 203 201 195 197 194 190 165 156 170 170 198 176 139 150 174 170 186 193 201 198 152 136 125 137 159 170 113 68 114 152 148 146 138 130 125 131 137 131 127 100 100 57 33 36 28 37 35 40 25 30 106 109 110 106 38 38 39 44 56 84 137 147 151 141 148 154 158 148 146 148 147 148 145 168 176 181 182 180 185 187 189 183 164 158 150 167 186 178 187 189 152 179 206 201 194 194 193 185 168 150 173 172 203 183 189 177 159 166 171 169 174 177 172 155 152 157 151 152 149 112 112 138 149 141 145 139 128 129 138 133 129 106 92 70 33 37 28 35 37 43 24 43 109 109 110 109 32 38 40 49 57 92 142 153 147 144 154 158 162 154 146 156 159 155 149 157 163 169 173 179 177 183 178 166 154 137 142 144 158 156 175 175 151 183 206 203 192 196 193 180 166 145 172 168 186 190 176 167 152 156 166 171 183 196 191 188 177 178 169 160 152 141 133 133 146 143 156 147 131 136 134 132 134 110 80 84 42 33 33 33 29 53 32 63 109 109 110 111 27 40 42 53 59 105 143 156 144 154 164 172 175 158 158 164 163 165 161 162 157 158 153 158 154 152 145 139 141 143 153 164 159 160 174 154 160 185 206 201 195 188 193 173 163 144 162 174 170 183 173 153 150 147 155 162 173 187 184 185 178 168 163 157 147 149 154 143 143 149 161 156 140 136 135 132 128 125 84 72 70 37 28 42 31 40 23 73 109 106 110 107 35 38 42 50 79 118 145 154 144 160 169 174 176 169 177 173 172 170 170 163 158 161 158 154 154 158 158 163 165 169 178 178 171 173 166 147 164 187 205 203 191 190 187 167 156 151 150 177 180 176 178 172 163 148 141 150 158 168 173 169 169 156 153 146 148 146 154 150 145 156 156 164 155 141 140 133 129 129 96 73 68 62 38 38 56 38 28 88 108 109 108 108 36 31 46 76 102 125 143 151 146 165 169 166 174 177 186 181 175 174 181 189 188 189 189 187 185 191 186 189 188 185 191 184 182 176 153 146 170 195 205 199 190 183 177 162 151 150 152 166 181 179 181 180 180 178 172 169 165 162 166 165 162 157 148 150 151 150 161 156 156 161 164 171 166 148 136 143 133 130 99 74 77 56 50 34 49 52 31 94 114 105 108 107 24 37 72 86 100 130 146 150 146 173 162 160 174 184 191 184 184 185 189 194 195 195 195 198 194 193 193 196 195 191 193 190 178 167 145 154 180 202 206 199 191 186 179 158 151 150 150 154 173 176 186 185 183 180 188 191 186 188 188 180 178 182 183 170 173 172 175 164 175 169 176 181 181 154 138 140 138 136 105 66 59 67 50 42 40 45 47 106 112 107 111 108 50 63 71 77 116 134 143 145 149 168 162 169 186 190 191 196 191 190 188 194 195 197 196 196 195 197 195 195 193 197 193 185 172 160 146 160 187 204 203 199 193 187 184 166 151 149 151 154 168 174 186 193 193 186 194 191 189 193 195 193 193 195 189 185 186 179 174 179 181 177 177 183 182 162 143 134 142 134 115 76 52 58 59 37 38 44 41 108 110 110 109 109 104 74 62 85 120 137 143 140 155 166 174 180 190 195 195 194 199 193 193 199 197 195 197 194 194 196 198 197 193 196 189 181 171 154 150 167 192 199 201 200 193 189 187 176 152 146 155 153 165 171 177 190 195 193 197 191 191 195 193 194 196 200 189 190 189 185 179 187 185 179 182 185 181 164 146 139 135 135 114 85 60 45 62 52 37 38 54 105 111 111 106 111 96 81 72 81 115 133 139 139 153 171 179 184 191 195 193 197 201 197 199 200 200 199 199 197 197 200 201 199 195 193 185 180 171 148 156 171 192 199 201 200 196 190 188 177 156 137 144 159 160 165 175 185 192 195 197 197 192 196 197 192 196 201 192 193 196 193 187 191 187 186 184 183 177 169 146 137 133 130 112 77 65 43 44 59 48 53 72 109 109 106 110 110 73 77 81 78 115 135 132 141 153 170 174 181 188 193 196 195 201 197 202 200 200 201 200 199 200 200 198 197 193 192 185 174 166 144 160 172 194 198 200 199 194 191 185 171 156 132 140 155 162 159 174 183 189 192 195 196 197 197 199 196 197 197 197 194 195 193 190 195 187 186 182 179 171 163 146 135 126 130 118 71 50 44 38 44 92 110 107 105 111 108 107 108 70 74 82 90 125 132 132 140 162 168 170 175 185 186 186 193 193 198 199 199 200 200 202 200 197 198 198 194 193 189 181 167 154 144 157 170 193 202 199 200 196 194 185 168 153 138 133 148 160 168 170 177 182 189 194 195 198 199 196 196 198 196 196 195 199 192 187 194 191 185 182 178 175 161 148 132 127 124 115 71 43 41 44 41 93 109 121 118 102 111 108 110 80 73 73 82 122 133 126 146 159 167 171 170 178 178 165 188 196 199 195 200 200 201 200 199 196 194 196 193 192 188 174 158 155 154 145 154 180 199 197 195 193 179 160 157 147 140 144 141 156 168 170 177 187 186 190 197 195 199 198 194 197 200 199 193 200 199 191 187 188 186 174 175 169 164 151 127 122 126 111 59 60 44 48 36 72 60 75 120 113 107 107 109 88 70 63 87 121 136 129 142 158 164 167 160 174 177 177 183 197 198 197 199 200 200 199 200 199 195 191 192 190 188 174 158 170 148 127 134 159 187 185 178 167 153 135 139 141 137 149 156 151 163 175 180 185 188 192 194 196 199 198 195 199 199 202 196 196 199 195 187 192 184 174 173 164 158 155 129 120 126 97 56 71 56 40 45 85 80 55 107 114 104 106 111 83 67 62 88 122 140 131 140 155 162 165 165 179 180 185 185 189 196 199 197 198 200 198 198 194 195 193 190 192 184 163 167 165 138 108 107 135 159 161 151 143 135 125 127 127 136 150 171 163 147 173 185 189 188 193 195 195 198 197 198 201 198 199 197 197 194 191 188 188 183 174 173 163 152 151 127 123 120 83 60 48 55 45 58 110 102 81 91 122 105 108 110 76 59 87 87 119 139 132 140 148 163 163 169 177 182 179 187 190 193 198 194 198 199 196 197 192 193 191 186 187 176 161 159 146 122 78 80 109 124 132 123 123 126 107 88 91 124 146 162 163 141 154 184 186 191 193 193 193 196 196 201 199 197 197 201 196 195 189 187 183 177 172 168 158 153 145 130 121 123 89 51 58 50 44 80 128 105 98 87 127 105 109 109 62 72 87 90 128 140 133 137 148 153 157 167 174 183 172 188 190 189 195 192 198 199 192 194 192 189 186 181 186 166 151 141 117 90 26 25 75 105 105 110 114 104 70 26 24 60 117 151 155 142 137 179 187 186 193 190 192 193 198 198 200 199 197 200 192 198 188 189 183 173 165 166 155 147 148 128 118 124 84 56 62 57 47 103 139 106 109 99 121 103 109 106 85 71 81 100 116 136 134 135 142 146 159 159 165 173 174 188 188 190 189 190 190 193 193 192 183 181 184 182 178 152 125 121 105 88 34 25 46 79 102 108 114 87 90 72 44 52 78 114 140 139 129 160 184 188 189 190 190 192 198 196 198 200 196 197 195 194 188 177 184 172 164 161 152 149 143 129 121 123 96 53 65 60 66 99 141 114 116 97 136 97 110 102 89 74 108 92 110 134 137 132 140 145 154 159 166 174 177 179 186 188 188 187 185 192 189 185 181 181 184 181 175 158 107 111 120 130 71 59 82 83 98 109 116 107 117 113 98 121 115 107 119 122 126 161 177 184 184 188 190 195 192 193 192 199 193 196 195 192 182 170 178 175 166 161 151 148 144 127 121 119 100 58 64 72 71 97 138 116 115 108 123 102 109 107 78 99 93 78 106 134 134 139 142 142 152 159 165 173 181 173 183 183 185 188 185 189 185 174 178 179 184 178 174 177 123 94 129 132 116 109 117 119 108 116 126 134 148 126 122 133 136 116 104 116 138 163 175 182 183 185 185 190 191 191 192 198 192 191 194 190 182 176 177 174 166 157 148 146 144 125 122 117 93 71 61 80 60 106 143 115 113 115 120 103 106 106 75 92 84 90 103 128 131 144 151 145 147 160 160 170 178 181 183 178 185 189 181 181 175 177 176 179 181 179 175 181 168 144 137 136 140 133 128 138 136 132 133 132 128 120 117 125 129 139 138 145 152 164 170 180 179 185 185 183 187 187 193 192 193 188 186 185 179 179 178 166 161 155 141 146 144 127 121 114 82 82 67 64 60 121 157 117 109 132 115 98 107 103 74 89 82 87 103 125 131 144 153 147 148 151 153 165 171 180 185 176 180 182 172 173 172 177 180 180 179 175 176 173 168 155 145 135 134 136 124 140 139 144 136 116 122 107 113 111 127 140 143 155 154 162 169 177 178 181 187 185 181 186 187 190 189 186 184 176 170 176 176 162 153 151 140 145 146 128 120 105 87 78 62 60 65 116 166 119 110 139 102 100 108 104 81 82 76 93 99 128 127 150 147 147 150 146 151 163 169 177 180 174 172 173 168 172 174 179 181 180 178 178 172 175 162 137 138 138 133 136 123 134 130 130 128 112 124 115 104 112 120 120 127 143 152 163 173 174 180 180 185 185 186 183 181 184 184 180 180 177 173 173 171 160 155 149 146 141 143 134 113 101 98 81 64 58 68 116 152 127 124 119 107 106 104 104 90 76 67 87 98 106 127 148 147 153 148 150 154 163 170 175 175 172 176 178 177 169 174 181 182 175 177 171 162 153 145 145 144 140 143 125 134 135 118 125 132 123 123 119 104 102 110 109 106 138 139 148 165 171 174 177 180 184 188 186 179 178 180 178 183 179 172 169 162 160 162 147 145 141 148 121 121 106 106 87 81 63 66 91 120 135 121 110 98 100 107 100 92 74 65 85 87 103 124 142 140 152 146 154 159 168 167 175 174 173 175 177 179 176 181 183 176 170 171 161 150 139 140 157 140 135 132 140 142 130 117 119 132 128 118 116 96 114 111 104 106 129 125 136 154 158 167 169 177 185 184 189 180 178 176 178 177 173 171 168 159 157 159 148 149 146 143 123 120 111 101 80 91 76 69 90 113 130 115 104 100 100 106 100 96 59 70 78 79 98 117 141 138 155 149 157 160 167 166 178 179 175 179 178 182 181 185 179 166 161 166 150 138 133 134 142 135 125 135 147 140 121 121 119 131 119 113 110 102 111 99 112 110 120 121 124 137 142 159 163 165 178 185 184 186 180 178 176 175 168 170 163 162 156 154 149 148 145 141 124 115 114 94 76 90 82 70 104 132 130 108 97 99 102 103 101 115 86 55 62 98 99 114 145 137 153 155 154 164 171 175 174 175 179 178 185 184 182 175 167 153 155 149 146 128 140 122 120 122 123 140 151 127 115 121 123 124 111 117 124 109 114 111 116 124 116 113 115 123 130 151 157 159 161 183 184 187 187 182 177 173 168 166 171 166 157 157 148 150 137 133 127 104 114 95 61 81 79 81 127 132 116 111 96 100 99 102 98 144 102 42 68 103 102 118 142 128 154 159 148 165 167 177 171 154 177 184 193 178 168 165 155 140 154 157 147 122 127 117 115 113 136 136 132 112 115 111 118 111 109 118 122 114 120 126 121 127 117 122 118 114 132 139 148 153 148 170 179 187 186 184 177 176 171 168 170 169 159 154 149 144 138 128 123 114 93 103 62 84 51 91 126 123 120 108 93 101 97 102 96 135 113 49 83 92 104 132 127 123 150 156 147 158 170 172 176 157 176 187 193 170 159 153 146 128 138 154 131 117 114 108 113 113 134 119 117 107 110 103 104 101 98 105 115 117 116 122 124 129 134 130 118 121 129 135 133 144 137 144 175 182 186 185 180 179 173 176 174 169 155 156 156 137 129 132 120 108 98 84 87 68 52 89 125 135 122 97 93 101 96 100 95 122 115 74 80 83 106 108 116 112 141 148 147 150 174 169 177 178 172 175 177 150 147 150 139 135 128 138 122 108 97 105 100 103 112 102 101 91 96 112 109 90 93 96 104 99 109 113 116 120 124 117 117 118 137 130 132 138 128 132 151 168 179 186 185 179 179 178 175 168 150 160 152 136 132 116 119 103 101 85 81 72 47 110 137 130 109 92 97 100 94 100 91 88 109 71 72 91 89 98 111 119 133 138 133 152 164 168 177 181 169 172 161 139 136 145 132 125 113 117 113 90 83 97 76 77 84 84 78 90 95 107 93 82 89 110 115 110 91 99 94 109 108 111 116 117 133 122 117 134 132 130 135 149 173 180 187 178 176 177 172 165 138 154 148 131 125 118 106 98 94 85 71 79 57 123 134 119 100 90 94 99 92 98 96 74 78 61 75 92 84 93 110 117 124 115 126 157 152 150 167 173 158 157 150 139 133 123 110 113 100 91 116 75 63 80 73 69 81 76 86 127 134 137 96 94 132 155 161 144 138 116 90 93 102 100 84 110 116 86 116 120 136 141 139 132 153 173 185 180 175 167 171 158 129 142 144 134 127 124 100 98 81 74 83 66 70 125 117 101 94 94 93 96 96 97 91 80 68 63 76 82 91 97 108 110 124 112 127 148 140 131 152 157 141 142 128 120 127 112 106 111 107 78 99 87 62 86 88 113 101 111 114 124 136 136 122 118 141 147 139 128 113 104 96 92 104 93 85 97 106 98 97 110 122 147 146 121 139 176 180 175 168 164 154 146 128 133 139 133 115 116 89 90 73 77 79 70 77 112 97 89 95 95 91 95 91 93 95 74 76 62 69 78 72 99 112 109 113 113 127 135 126 124 135 143 129 132 124 122 126 119 102 112 102 106 113 120 114 125 125 129 133 135 157 158 165 163 153 147 147 149 139 131 123 123 132 127 114 107 93 91 104 108 96 99 111 122 136 116 129 172 167 162 160 158 145 142 127 115 128 122 106 111 89 82 63 80 73 66 82 94 88 93 92 95 94 92 92 95 91 70 76 59 70 60 62 103 113 98 94 104 116 131 112 112 120 127 127 136 117 109 114 127 123 126 126 134 143 152 158 168 159 158 160 163 161 177 182 184 180 172 174 177 176 168 163 155 151 143 136 124 121 115 116 114 104 101 112 106 115 112 132 158 149 146 146 146 141 136 125 107 109 110 95 106 80 76 60 82 69 70 84 84 92 92 93 92 95 90 91 94 91 74 83 63 78 54 75 108 103 94 88 96 108 122 101 103 102 115 117 115 105 105 109 124 129 125 136 148 153 173 172 175 168 174 171 169 169 176 169 174 174 167 170 171 174 174 167 163 154 154 148 148 148 149 145 140 126 112 110 113 110 120 128 143 139 130 136 136 127 126 121 98 98 108 87 99 79 75 63 75 64 69 82 87 92 90 90 87 92 90 92 93 89 77 76 59 54 69 78 97 89 89 86 94 99 108 96 87 98 108 112 108 119 114 118 128 133 134 143 147 147 159 166 173 166 178 183 174 167 168 161 160 161 151 162 157 164 169 161 164 161 165 154 166 164 168 163 151 136 134 102 109 119 120 127 131 123 125 134 124 119 116 116 107 94 97 92 91 73 77 61 66 63 66 92 83 93 89 92 90 88 91 90 90 88 77 79 66 58 63 78 73 77 77 90 88 97 97 86 88 94 107 105 116 116 107 122 130 127 133 142 133 129 142 160 166 175 169 164 165 165 156 149 150 154 151 166 151 147 166 156 154 170 164 170 170 176 174 170 157 147 136 121 87 108 111 121 128 118 116 129 122 111 106 110 111 102 89 92 78 70 71 70 59 66 70 77 85 89 89 90 88 89 88 86 88 90 74 76 71 61 62 70 67 70 76 88 90 88 89 75 86 98 97 106 113 118 117 110 118 109 111 124 117 121 126 132 148 150 156 151 143 148 145 146 152 148 145 162 149 141 162 171 151 171 166 168 170 179 173 175 147 143 136 134 109 106 96 111 124 110 108 118 119 102 105 111 97 110 94 81 68 69 70 70 62 63 63 73 85 85 87 92 87 90 87 85 87 88 75 76 76 68 52 64 74 68 80 80 77 83 81 74 89 90 79 104 102 129 113 102 88 102 108 118 122 119 128 124 117 126 133 138 144 139 142 139 134 137 132 137 133 129 143 161 155 156 164 155 166 175 169 166 136 131 112 122 115 91 105 105 101 105 101 102 101 99 105 106 90 110 90 75 58 74 73 69 68 56 63 79 84 87 85 87 88 87 88 81 86 83 74 72 71 74 49 51 78 81 80 76 69 86 80 75 84 99 74 101 96 102 106 89 78 98 118 116 133 145 139 135 129 135 138 128 127 123 118 118 112 116 119 122 123 120 128 137 148 145 160 164 146 155 162 145 127 108 105 98 110 85 102 114 92 91 95 91 90 105 104 98 86 86 87 72 73 57 65 66 64 65 67 80 82 84 86 84 87 84 88 81 90 86 76 73 73 67 57 60 77 83 76 61 76 83 78 66 81 88 68 91 82 98 99 87 88 106 107 111 133 141 129 140 135 131 128 126 132 127 111 107 101 103 108 117 118 118 130 126 139 137 144 160 153 150 152 133 123 112 114 99 109 94 91 110 91 87 90 92 82 92 94 85 85 81 82 73 76 56 63 56 68 56 72 78 82 79 90 82 83 82 85 83 83 85 73 76 72 65 58 54 60 57 74 60 75 74 68 68 82 76 81 74 74 87 101 101 112 100 104 114 138 142 129 125 127 124 119 124 123 133 118 114 109 107 111 112 127 131 141 127 127 126 124 144 148 138 139 125 123 114 118 104 109 110 89 101 96 92 83 88 80 79 85 78 85 73 81 69 71 60 68 57 60 63 71 83 79 82 83 83 83 82 85 79 88 79 70 81 66 64 61 49 58 56 43 64 66 69 74 80 88 76 72 68 81 105 91 100 110 95 98 113 140 138 124 117 116 125 121 124 125 131 129 127 132 123 128 129 144 152 147 126 124 122 115 135 141 136 120 110 123 113 102 111 111 104 96 105 98 89 84 68 80 80 88 73 90 70 66 75 61 63 72 61 55 71 70 81 77 81 83 84 78 84 82 82 82 79 77 69 66 66 59 48 51 55 38 57 71 70 73 72 84 83 65 74 76 100 95 94 102 102 113 126 135 127 114 114 116 117 119 116 123 132 144 137 141 131 140 146 148 150 153 120 115 133 123 127 130 140 121 104 123 117 86 105 102 108 106 100 93 95 76 60 77 78 83 72 79 77 60 57 67 58 60 63 53 68 74 79 79 80 80 83 77 84 81 85 73 82 78 75 60 75 52 49 51 50 40 61 67 69 63 78 80 79 88 67 80 92 102 99 93 110 122 123 112 116 108 105 121 112 113 117 129 138 151 134 142 137 137 141 148 151 145 125 119 139 116 121 124 127 112 106 128 112 95 98 96 100 99 101 94 94 80 68 78 71 64 63 70 81 61 50 64 58 58 57 51 76 76 74 81 82 82 84 79 79 81 76 78 83 73 76 75 77 61 51 50 58 47 59 60 59 61 57 58 73 87 79 76 93 89 91 106 115 114 114 121 120 115 105 114 105 113 117 133 134 142 141 133 144 152 139 147 152 140 146 116 133 121 103 109 103 101 99 119 112 105 107 95 89 86 81 98 78 73 74 69 71 49 61 64 72 65 43 55 63 55 53 62 74 74 76 79 79 82 81 83 78 79 78 81 80 74 73 72 75 63 51 49 60 51 56 59 58 53 56 59 73 77 72 74 88 76 88 102 104 103 109 116 112 101 90 100 104 107 103 120 128 131 130 135 150 153 130 140 142 139 139 104 128 133 101 99 97 100 91 109 114 94 101 94 82 89 82 102 80 79 70 73 66 60 64 57 72 70 41 51 47 53 54 69 71 77 75 78 79 78 78 79 78 78 79 75 77 73 71 73 74 77 51 53 57 56 58 57 55 55 58 66 74 65 69 69 63 59 78 94 103 98 98 110 91 71 91 103 92 86 97 117 119 120 118 138 134 132 128 123 121 127 137 98 129 130 113 94 97 108 93 93 106 98 89 95 82 96 79 88 106 74 63 77 59 56 58 64 69 70 42 48 38 51 62 75 74 77 79 79 77 82 77 78 77 82 80 74 75 72 73 67 73 69 52 36 48 53 58 53 53 49 71 75 73 52 73 75 52 60 72 87 97 95 95 101 84 86 97 91 80 83 99 94 106 115 114 132 123 115 118 110 105 116 117 102 130 122 107 105 98 98 96 89 89 101 93 101 65 81 84 72 91 96 58 88 59 62 60 70 61 54 43 48 43 54 66 69 76 76 78 77 78 79 76 79 75 81 75 77 78 70 76 69 71 73 48 36 45 44 45 52 41 47 85 64 75 70 75 69 59 58 67 71 102 93 88 91 88 85 96 88 87 89 90 83 101 113 99 109 113 121 115 110 93 110 106 118 118 108 104 103 90 89 90 92 87 105 93 106 85 61 78 70 75 89 76 79 57 53 65 61 66 46 45 47 55 50 65 69 80 71 80 79 77 77 80 79 73 80 77 76 76 70 74 73 72 76 61 44 49 39 36 46 51 54 61 51 75 80 76 70 63 64 67 75 90 91 86 96 81 81 100 82 85 85 81 80 97 106 90 102 122 112 101 99 95 104 106 110 112 96 99 102 86 90 87 86 80 109 97 98 93 70 64 69 68 78 80 74 61 37 58 70 61 47 42 49 68 53 69 74 77 74 76 79 75 85 78 74 76 82 75 78 75 73 73 73 71 87 73 62 59 49 37 40 48 47 55 60 75 80 79 67 62 57 64 74 84 82 93 89 76 80 96 83 99 84 74 67 87 85 84 100 101 90 100 107 108 100 104 86 104 90 105 100 90 88 98 81 85 102 98 78 87 87 67 58 74 72 57 69 54 38 64 75 64 48 35 56 62 64 72 76 74 77 76 75 74 79 77 77 78 76 78 76 77 71 72 77 81 84 68 54 81 66 36 45 41 47 51 50 78 78 66 70 68 61 78 74 70 84 79 88 84 81 78 89 95 70 81 58 88 91 69 103 85 94 117 108 108 67 96 87 118 89 103 96 84 93 104 80 90 93 96 78 75 91 84 63 76 64 49 73 53 40 67 74 55 42 48 57 66 67 72 78 71 76 75 77 74 81 72 76 79 75 75 76 75 73 70 87 90 74 56 57 98 74 43 32 46 45 42 56 59 70 64 72 67 67 61 72 60 81 87 70 85 70 88 87 74 57 79 70 76 89 57 100 79 117 105 86 100 65 93 83 118 87 99 87 76 103 105 93 87 84 89 88 79 79 84 73 73 53 48 67 62 46 54 61 53 48 56 51 66 69 73 75 74 75 75 78 77 76 77 73 82 70 78 76 76 74 87 91 80 72 49 54 105 83 48 34 38 37 31 48 64 60 60 67 60 62 56 88 63 70 91 76 74 71 86 71 70 63 74 79 75 87 61 76 79 92 90 80 95 91 68 81 91 93 90 64 95 92 101 102 82 74 88 76 74 64 83 64 78 51 56 54 64 56 51 47 53 48 58 61 65 71 75 77 73 75 80 75 75 76 77 75 77 72 81 75 74 78 94 83 72 58 43 48 114 90 53 39 41 27 26 35 57 62 55 60 53 57 50 94 63 71 77 82 74 69 71 66 68 70 80 77 64 72 67 65 60 71 92 90 78 90 63 64 89 88 83 54 93 101 101 98 80 71 79 68 65 59 64 57 70 66 60 62 60 52 50 46 66 47 79 61 72 73 71 75 76 75 74 76 77 76 74 70 82 73 73 76 75 97 92 81 67 57 34 60 107 97 59 47 41 36 27 28 47 55 65 48 58 53 72 79 58 60 57 66 79 63 69 72 60 65 60 60 78 54 65 61 43 81 78 83 70 79 76 56 102 83 86 61 79 107 81 84 84 62 72 55 59 66 54 60 67 56 67 60 59 46 47 48 75 47 73 67 69 75 71 75 76 76 74 78 69 81 72 74 77 76 75 75 71 101 87 78 61 50 24 51 111 101 67 49 43 33 33 24 47 52 74 57 57 45 76 64 50 61 60 52 48 70 64 55 63 46 47 43 72 60 51 54 48 85 60 63 69 75 66 68 92 81 84 62 64 93 62 75 79 58 65 52 64 66 72 55 53 41 57 67 49 37 45 62 71 58 67 71 68 72 73 75 75 75 74 75 72 76 78 72 76 77 72 77 73 97 87 72 60 39 12 55 113 98 76 51 43 35 29 31 32 54 73 57 57 44 58 55 58 60 58 57 31 68 61 49 51 45 37 48 65 48 57 54 49 74 64 54 59 69 65 71 85 70 74 55 51 58 51 69 60 46 58 58 63 60 66 47 43 50 58 59 45 31 55 78 68 63 72 69 70 72 77 70 75 69 79 71 74 74 75 76 74 75 74 78 75 93 79 72 51 34 9 67 114 103 86 72 42 33 33 31 27 45 55 48 53 57 52 53 57 44 47 46 32 45 57 54 48 36 29 56 56 43 53 47 32 65 69 47 52 71 68 80 64 66 72 58 42 40 53 56 48 34 54 59 60 66 51 42 39 53 53 43 42 34 65 90 72 57 69 78 69 75 69 76 74 76 74 79 74 78 72 77 74 71 75 75 75 96 78 67 54 26 6 70 114 101 87 83 59 30 36 32 38 30 35 49 44 59 43 44 47 48 48 38 37 35 42 58 41 34 34 44 45 42 34 36 39 51 57 46 65 57 58 66 58 66 62 43 41 47 52 51 47 46 52 52 52 41 57 35 43 48 40 40 42 43 62 91 76 52 78 85 77 71 76 72 75 76 75 75 76 76 74 74 76 74 71 77 73 96 81 60 53 22 10 84 112 96 83 94 57 37 45 38 34 30 28 39 40 48 43 37 37 46 36 40 40 36 37 45 37 32 33 33 35 35 30 38 44 50 49 47 57 42 53 57 59 69 38 37 26 52 49 44 46 53 51 41 33 43 44 46 58 39 39 36 53 57 72 99 74 61 76 84 86 70 74 73 75 75 72 76 74 76 76 73 73 76 74 75 74 