P2
92
112
255
122 122 121 123 122 117 115 117 116 110 106 84 83 93 80 89 89 104 102 91 94 96 95 94 77 78 85 93 102 101 116 119 132 129 137 154 162 160 149 168 157 159 158 151 142 133 127 116 121 108 98 105 92 84 86 81 86 81 84 74 90 76 91 91 86 94 79 94 105 102 108 107 105 110 104 106 110 110 114 115 114 114 115 114 111 117 113 115 111 117 111 113 125 122 124 119 119 119 114 116 102 96 88 78 90 96 92 99 105 105 91 87 80 81 83 80 71 64 73 99 120 130 142 133 139 148 151 163 170 172 157 173 170 169 170 171 163 159 154 122 121 121 108 99 95 89 85 93 94 86 81 96 86 78 81 94 89 91 93 78 83 91 98 109 103 110 108 107 104 110 106 118 111 117 113 114 113 117 115 115 113 113 112 114 124 122 119 122 111 113 108 104 88 86 99 83 95 91 99 102 101 95 87 84 73 79 80 75 62 67 89 120 139 142 160 154 143 166 167 173 174 184 179 183 181 181 179 186 180 175 168 150 134 126 127 120 96 101 103 98 93 93 90 82 75 90 64 73 82 82 95 87 85 81 90 102 112 104 108 103 111 109 106 110 115 114 114 112 115 117 111 116 111 116 111 114 121 117 120 119 114 113 96 87 91 103 111 90 103 112 114 103 104 87 87 83 75 85 75 57 59 106 122 143 157 167 168 164 161 175 177 174 173 186 189 180 188 192 189 189 191 187 180 165 149 150 141 127 122 102 109 104 95 95 87 91 76 90 84 61 65 74 75 88 93 93 82 97 96 113 100 101 110 109 111 108 112 118 112 116 110 116 114 115 112 112 114 113 114 118 117 106 109 100 96 97 107 119 105 95 104 100 93 81 79 81 88 81 81 74 55 74 107 140 140 162 169 174 176 166 178 176 185 184 189 184 188 189 191 194 192 195 190 193 188 177 161 168 154 147 134 120 116 116 99 101 98 86 100 80 87 78 70 74 67 72 80 89 93 83 94 93 108 103 98 108 106 113 116 109 114 116 111 116 115 111 115 113 112 110 113 119 112 94 96 101 107 107 103 105 93 98 100 89 82 84 92 95 90 82 69 63 89 120 140 158 164 168 173 175 169 174 183 187 189 188 192 191 192 194 195 194 195 195 191 191 193 189 181 181 170 163 155 139 115 125 123 107 101 106 94 95 95 75 68 70 78 65 66 84 90 95 90 93 107 100 100 106 114 109 113 115 111 115 110 118 113 114 113 113 115 110 110 116 96 97 98 113 107 100 103 103 99 99 105 85 84 86 84 93 81 73 64 92 132 149 170 166 172 173 173 171 174 184 180 190 187 194 192 191 195 194 195 196 193 194 192 187 191 192 188 182 180 168 164 159 146 116 129 120 105 111 104 103 113 95 58 65 72 72 74 67 81 90 82 93 107 97 93 103 116 110 112 116 115 111 115 113 113 115 113 113 115 112 113 95 93 109 110 110 104 100 100 96 106 90 87 78 81 81 86 91 82 79 96 138 159 167 170 173 175 181 175 181 186 187 190 186 191 197 190 191 195 195 195 194 193 191 194 192 193 192 190 188 189 184 177 168 171 156 147 140 129 110 106 116 111 106 86 57 70 69 70 75 74 80 90 78 99 110 95 102 100 107 112 113 114 114 113 114 115 113 113 113 113 111 101 98 107 111 110 113 108 103 99 97 99 82 68 76 78 87 89 83 67 100 140 161 165 171 171 176 176 178 184 187 190 192 188 190 193 195 192 193 196 195 194 196 197 196 194 195 193 193 193 189 190 184 183 181 167 168 163 153 153 136 118 112 124 111 105 86 50 67 75 67 76 72 82 82 92 98 99 111 99 103 105 113 112 113 107 113 112 114 110 112 115 111 102 98 109 112 115 112 109 101 98 90 77 75 80 85 77 86 79 63 96 131 172 170 174 176 178 177 178 182 186 187 191 192 191 195 194 192 192 194 196 197 195 196 198 197 195 196 194 194 193 193 192 190 184 189 184 175 175 165 161 159 146 114 119 124 103 114 78 45 71 73 65 66 70 84 93 84 92 107 107 103 99 112 109 111 110 114 114 112 115 110 115 115 92 99 106 108 110 99 98 108 84 75 65 73 69 69 72 78 76 94 138 153 166 177 174 179 177 180 181 189 189 190 192 193 195 196 195 196 194 196 198 196 194 198 198 197 198 197 193 194 196 194 193 195 188 192 189 185 180 177 174 165 156 150 123 128 126 108 114 70 54 71 74 62 73 65 94 89 80 89 114 110 98 104 115 112 112 112 113 115 114 111 115 114 103 105 105 108 105 96 101 92 80 72 66 68 60 75 78 87 107 132 151 159 169 178 171 177 180 186 186 190 192 195 197 193 198 197 200 196 196 198 198 199 195 195 199 198 198 196 196 198 195 192 195 194 192 192 191 187 186 183 179 176 164 154 153 138 135 119 115 114 75 60 71 58 61 78 73 82 87 80 96 100 113 99 108 114 110 110 114 112 113 112 113 113 111 115 105 115 102 98 81 74 72 62 63 68 84 100 79 98 134 144 155 164 171 175 175 177 182 188 192 191 194 197 199 197 199 198 201 198 197 199 200 200 197 199 196 199 199 196 198 197 196 193 196 195 193 193 192 190 190 189 180 178 170 153 151 152 133 133 131 117 94 70 78 64 60 76 72 73 85 88 93 86 99 104 107 108 115 108 113 112 111 113 112 111 105 111 108 113 97 86 77 66 68 55 56 76 90 71 85 130 150 145 164 170 176 174 178 180 186 192 195 191 195 197 195 200 200 199 202 199 199 201 201 201 199 201 199 199 199 198 199 198 194 193 199 195 193 195 193 191 193 191 188 183 184 173 167 148 148 132 131 131 115 77 59 76 64 75 73 69 76 91 89 95 93 92 104 105 113 109 111 115 113 113 114 110 108 113 103 95 84 76 76 59 56 59 89 90 62 67 132 151 147 161 172 174 172 176 182 186 189 192 194 195 195 194 199 201 199 200 200 199 202 200 200 203 200 201 200 199 200 202 198 198 196 197 198 196 194 198 194 194 193 193 190 190 188 185 182 165 151 157 149 115 124 105 76 63 65 61 71 70 64 78 86 94 103 83 96 111 107 103 108 115 113 115 112 115 110 109 87 82 79 73 61 65 66 82 88 75 70 104 150 153 149 168 175 174 172 182 184 186 187 191 194 197 198 197 201 201 201 202 201 201 201 201 201 203 200 202 199 201 199 201 197 199 197 198 198 197 194 199 195 195 195 194 192 194 192 191 186 176 157 150 160 135 115 113 100 63 64 66 66 71 72 66 80 91 94 87 90 108 108 108 92 108 117 113 115 112 110 94 87 75 79 70 70 63 85 95 67 85 91 134 161 157 155 168 173 175 176 176 185 185 190 190 195 197 198 198 201 201 202 203 203 200 201 201 200 202 201 200 201 199 200 200 197 197 197 199 199 198 197 196 195 195 198 194 193 196 191 194 189 181 173 158 146 150 116 114 108 90 44 81 73 64 67 69 72 83 89 85 86 105 103 104 95 103 108 112 112 112 100 89 82 70 67 76 72 85 91 85 90 79 121 155 169 156 160 171 169 179 180 178 185 189 191 190 194 199 197 200 203 201 204 203 201 202 201 201 201 202 201 202 201 201 201 198 199 200 200 198 198 199 197 196 195 197 197 196 194 197 193 193 194 185 182 164 161 140 126 110 113 109 64 45 81 75 65 72 67 78 74 90 79 91 103 105 96 101 108 108 111 113 103 98 83 65 79 77 68 79 89 92 72 87 143 162 164 152 165 173 175 180 182 180 185 187 192 192 193 195 195 200 204 204 202 202 203 201 200 201 203 201 201 200 202 202 199 198 200 200 200 198 196 198 197 199 198 196 199 195 196 199 193 192 194 188 183 176 149 157 134 115 107 114 94 54 61 69 69 73 73 75 81 86 85 78 99 104 104 101 108 110 110 115 100 85 78 84 93 78 72 90 94 74 56 120 152 165 161 154 165 173 182 180 183 184 187 185 191 193 191 198 191 198 204 204 204 203 202 202 199 199 202 203 201 200 201 201 200 198 200 201 200 200 198 198 196 200 195 196 197 195 197 197 195 190 190 186 181 181 159 147 149 118 110 112 113 76 41 65 74 69 70 71 79 90 81 71 85 101 101 101 111 106 107 115 92 83 85 88 78 72 57 104 78 45 89 138 158 165 159 149 168 175 183 181 183 184 188 186 191 192 192 196 192 197 201 202 203 201 203 200 198 201 201 201 202 200 200 200 200 201 199 201 198 198 200 197 198 199 194 194 198 195 197 195 192 187 186 183 180 175 163 157 161 134 104 118 117 104 44 50 69 78 71 64 70 73 87 81 70 96 101 100 100 107 109 112 90 75 85 70 71 59 75 99 51 56 99 143 160 163 160 151 166 178 180 185 182 185 187 187 191 190 193 194 193 196 198 200 200 202 200 202 197 195 199 202 200 200 198 199 200 201 199 199 200 197 198 195 196 198 196 194 196 199 193 191 187 184 181 180 182 178 162 164 165 158 116 112 117 111 70 42 56 76 75 74 49 76 78 91 81 79 105 99 102 95 106 114 78 69 88 63 59 49 80 88 60 57 114 147 156 166 158 148 166 175 179 184 180 186 188 188 190 192 191 193 193 194 196 197 198 199 198 199 199 199 199 200 197 198 201 198 200 200 200 199 199 196 197 199 196 197 195 197 196 195 191 189 182 181 180 179 181 180 168 167 169 166 134 115 116 110 95 46 47 70 77 64 57 72 73 81 85 83 93 108 103 103 92 109 69 77 78 50 54 48 88 82 65 58 123 150 153 164 154 151 165 177 181 179 181 183 186 187 191 193 193 193 194 194 194 194 196 197 196 198 198 196 197 198 200 196 200 195 198 200 196 198 197 196 197 199 194 198 195 194 193 191 188 185 186 185 179 182 177 181 167 169 171 167 142 122 124 98 109 59 41 68 78 70 51 67 65 76 84 75 85 100 107 101 95 93 71 70 58 54 38 68 87 75 44 64 127 147 149 163 154 156 165 173 177 182 183 186 186 187 190 193 192 195 196 194 196 196 194 196 197 199 198 196 197 198 198 198 196 195 198 197 196 199 198 196 197 196 196 199 196 195 191 191 185 186 186 187 184 181 183 186 173 169 171 172 142 124 140 101 103 85 44 55 74 80 70 61 60 74 82 75 84 95 106 97 92 89 74 65 50 48 55 70 76 61 44 78 128 141 152 161 154 158 163 175 175 182 187 185 187 189 189 192 194 193 196 196 197 199 197 195 198 200 200 198 199 196 198 197 196 196 198 199 198 199 199 193 196 198 197 199 194 194 192 190 186 187 188 185 185 179 183 182 177 173 175 171 147 122 140 124 86 97 55 50 59 70 82 69 58 59 74 80 79 88 105 104 87 86 74 61 50 55 57 63 66 55 54 89 116 139 155 158 156 154 163 175 178 181 185 184 188 189 192 192 195 198 199 198 200 201 197 198 199 198 200 201 200 200 197 196 198 197 199 199 198 200 199 195 198 199 198 197 193 193 192 191 188 187 187 185 182 181 184 181 182 176 180 166 150 125 145 132 99 95 66 51 61 65 79 72 67 58 61 76 75 80 93 100 89 99 70 59 57 44 54 61 70 53 56 86 107 139 153 158 158 153 163 175 178 180 185 187 189 190 188 194 193 197 197 198 199 200 200 201 200 200 200 200 202 199 199 197 198 202 198 201 200 201 197 198 199 199 199 195 192 192 196 193 192 191 189 185 183 180 181 185 179 173 178 165 144 127 148 139 97 111 59 54 70 64 71 86 69 62 50 64 78 71 99 95 92 96 57 59 49 49 59 68 72 54 59 81 99 139 148 156 159 161 162 172 177 183 185 187 186 188 187 192 192 191 198 198 199 200 200 200 199 199 201 201 201 200 195 199 198 200 199 201 201 200 197 197 198 200 196 194 194 194 193 193 191 191 188 187 191 185 185 186 179 178 173 151 145 129 141 146 113 101 71 56 69 68 59 76 76 62 61 59 78 72 92 94 95 98 64 58 56 47 63 66 72 53 66 69 99 134 147 152 159 164 163 172 178 183 182 186 187 190 193 191 188 192 195 198 198 197 198 201 199 199 201 199 201 200 199 200 199 199 199 200 202 201 199 200 199 198 198 193 193 196 195 193 192 192 189 186 188 185 184 186 179 179 173 154 144 135 141 140 124 102 72 42 67 73 54 67 84 63 62 53 62 75 81 92 93 96 62 62 44 46 55 64 64 46 71 64 99 134 146 152 160 162 164 172 176 182 184 188 189 190 193 193 190 191 194 195 199 197 197 200 198 197 200 201 201 201 199 200 198 200 198 202 202 201 199 200 200 197 196 194 195 194 194 194 192 192 189 184 190 185 184 184 182 182 174 162 143 141 137 137 127 100 80 45 44 74 60 59 75 78 55 52 60 71 72 97 98 94 61 49 45 60 51 73 55 58 61 58 100 128 143 152 155 163 164 174 178 187 182 184 187 188 189 188 187 193 188 193 197 195 198 200 196 196 199 199 201 200 199 201 201 197 198 200 202 201 199 199 200 198 193 194 194 194 192 196 191 190 188 186 193 186 188 183 176 177 175 165 146 143 144 130 129 101 76 56 45 59 71 60 70 76 82 49 59 64 70 90 108 96 66 49 50 60 55 67 59 51 56 53 100 130 147 149 155 162 161 169 182 183 176 175 178 177 183 177 177 183 179 188 188 190 193 196 193 192 196 198 199 199 199 201 201 199 195 201 202 200 198 198 199 193 193 191 194 191 190 192 190 185 183 183 190 189 188 187 181 179 178 168 149 146 140 128 124 103 69 50 55 46 74 67 64 68 81 66 59 60 69 81 95 110 69 44 53 57 74 60 62 59 57 62 109 129 147 151 154 159 160 169 176 162 147 161 161 172 174 176 167 176 161 163 167 180 182 183 188 181 188 195 199 199 200 201 199 198 195 203 201 199 195 198 197 193 188 190 193 185 186 187 184 181 173 181 182 188 184 183 183 178 177 164 154 144 142 130 119 102 76 47 51 53 58 68 69 50 73 82 52 60 66 68 90 105 68 53 58 55 75 58 63 63 51 68 109 133 145 150 152 156 156 175 146 136 129 127 119 132 133 138 131 136 136 135 136 131 159 165 179 167 154 188 196 199 197 198 198 198 189 201 200 200 196 197 196 192 184 182 184 173 176 178 171 173 159 175 180 177 182 176 178 175 175 158 157 140 140 129 120 100 61 49 58 59 57 68 74 56 49 81 65 60 58 66 85 92 60 50 55 56 72 56 67 57 58 59 118 135 145 153 145 142 150 143 99 100 96 105 114 94 92 99 103 104 84 88 92 77 88 116 140 163 126 169 193 196 196 195 200 194 187 200 198 196 189 197 192 186 168 158 161 156 145 152 145 147 151 154 168 156 156 167 160 165 174 167 154 145 137 129 124 88 58 45 47 50 50 65 81 58 53 61 71 63 66 58 77 101 55 48 50 61 81 54 62 61 50 58 129 139 143 155 140 147 147 112 76 73 65 72 80 73 60 71 67 79 82 69 71 68 72 90 108 127 128 145 183 190 194 195 195 192 185 196 196 193 189 189 183 176 141 136 119 104 88 95 95 93 119 117 127 124 113 127 131 116 165 166 150 142 135 129 124 84 60 53 40 61 50 65 68 67 50 49 60 55 75 62 63 103 54 43 53 66 78 58 56 62 51 61 130 146 143 154 138 144 130 85 62 57 54 64 62 48 39 42 42 42 56 55 50 56 61 83 93 108 134 142 160 184 188 191 193 188 182 193 190 191 183 182 169 157 119 95 91 77 77 70 67 64 72 74 78 91 88 87 103 81 128 162 147 139 135 128 124 84 60 50 43 51 41 64 63 65 61 53 50 46 63 66 65 79 46 56 49 81 65 61 68 51 51 70 136 150 142 155 136 130 95 62 49 50 80 92 122 85 68 79 61 93 111 118 124 86 65 72 80 101 125 147 150 173 186 185 193 183 178 189 188 186 170 169 154 139 109 78 68 48 37 24 39 49 41 41 46 44 60 64 69 64 79 134 155 130 134 124 122 94 53 56 43 46 45 54 63 69 55 61 52 44 52 76 69 65 42 56 55 74 63 54 69 44 43 75 139 156 145 149 136 104 82 69 105 165 160 174 191 167 129 127 122 125 154 186 187 156 119 118 112 120 128 133 139 166 180 179 182 180 177 184 182 180 157 146 112 138 144 99 91 103 148 172 199 149 80 68 77 58 53 67 57 70 55 86 126 131 131 126 120 104 48 66 41 37 60 47 49 64 61 38 66 45 54 71 74 61 53 55 60 62 59 54 54 55 24 78 146 163 146 143 131 89 72 81 109 130 144 150 156 174 164 168 165 158 151 151 153 140 140 128 119 123 122 136 140 147 173 180 180 179 183 179 178 168 143 132 100 191 204 127 101 88 96 101 142 154 147 128 134 109 102 88 94 87 65 71 88 126 129 128 121 110 47 58 46 40 69 38 53 60 69 44 57 59 50 61 75 64 56 61 63 59 51 56 47 54 18 61 148 166 151 144 118 74 99 106 129 141 157 157 161 162 171 160 158 150 134 122 123 122 124 119 111 103 98 103 117 123 178 184 184 183 189 185 169 160 133 96 95 99 107 103 114 122 131 136 144 146 157 153 153 144 141 125 100 86 92 64 114 120 125 126 125 117 58 48 45 49 69 49 49 52 62 48 51 48 49 52 68 72 59 63 67 49 51 58 40 48 20 35 147 171 150 144 86 104 96 109 130 135 134 141 158 157 173 184 190 196 194 180 162 150 134 119 117 108 99 101 108 90 181 195 182 201 196 176 159 155 120 91 96 93 101 102 106 113 118 117 128 126 131 138 141 137 140 142 113 87 81 62 80 105 103 129 132 130 67 34 44 50 69 63 53 53 60 51 46 49 34 62 56 82 48 71 67 51 47 61 36 50 26 13 131 174 151 138 80 106 98 114 117 136 153 168 181 179 173 166 147 136 136 134 138 142 140 144 147 134 116 110 109 95 165 182 100 174 200 152 149 155 139 89 97 109 116 133 140 151 164 166 174 175 170 174 169 160 149 135 116 100 88 64 67 85 61 102 135 144 69 33 39 50 58 64 67 48 60 49 43 58 33 49 70 67 52 70 61 50 45 59 41 39 26 14 60 177 156 125 80 105 103 115 130 153 176 176 152 117 102 86 77 67 95 71 87 105 112 115 117 141 138 118 104 85 91 112 92 97 128 121 140 125 103 104 119 137 142 155 161 156 161 169 179 183 185 188 189 176 169 160 139 116 96 74 73 56 86 51 150 147 70 24 37 45 54 52 70 53 55 56 44 52 46 39 67 85 55 64 55 37 56 53 49 34 23 29 26 134 153 71 113 99 120 127 150 166 166 117 85 96 114 85 85 56 136 75 68 68 116 112 113 111 108 128 115 107 125 147 183 180 185 179 107 149 82 124 143 143 142 126 113 103 97 83 87 91 105 140 166 174 175 161 160 139 114 83 73 53 83 51 135 147 56 21 27 45 48 37 70 60 58 62 45 57 44 39 63 80 52 53 48 40 52 48 41 46 27 108 105 45 137 74 99 118 131 148 165 155 100 77 101 133 154 114 90 90 67 68 84 86 160 132 96 118 128 112 110 102 122 178 204 200 198 204 166 96 99 135 139 130 113 105 107 114 103 62 51 120 43 51 62 90 124 147 155 146 130 98 75 59 80 66 118 137 62 9 28 36 33 43 62 57 62 63 43 63 43 45 66 80 47 53 47 41 54 47 39 50 59 141 158 53 112 105 103 129 149 168 149 115 91 122 141 147 173 167 96 101 95 90 95 137 179 153 127 106 132 151 131 88 102 198 201 202 196 196 193 79 80 148 124 122 109 100 124 158 138 62 75 55 52 53 47 81 65 83 124 154 139 115 83 67 74 83 72 107 99 9 22 33 32 37 48 60 52 74 52 57 54 41 63 90 54 52 39 45 51 56 43 48 84 145 155 136 112 108 124 138 159 152 126 115 112 150 166 182 186 182 155 124 143 124 137 172 172 155 145 144 128 183 172 58 120 202 203 201 194 194 191 89 78 141 155 115 126 144 142 175 178 67 96 81 54 72 66 115 88 64 83 115 152 132 102 78 85 98 41 62 41 29 23 30 31 37 35 60 52 67 62 56 55 46 57 97 63 46 35 50 59 57 55 51 106 138 148 156 122 99 146 163 149 132 129 139 150 146 162 168 174 171 167 166 182 174 173 172 169 158 156 169 175 191 170 30 154 204 198 200 197 195 195 89 86 148 159 147 148 149 156 169 181 133 98 86 85 80 127 139 110 107 93 97 119 145 128 92 105 79 81 103 75 26 37 31 30 46 28 58 53 74 49 61 59 46 64 99 59 46 38 66 69 49 70 44 113 133 152 158 137 84 149 163 145 140 164 174 182 170 164 165 174 177 179 181 184 171 166 166 158 161 159 170 175 195 150 48 177 199 200 198 195 194 187 114 71 139 161 164 161 168 157 172 174 176 166 159 143 149 162 159 151 128 117 116 105 128 142 112 108 68 114 141 113 21 42 33 27 42 28 57 50 73 56 50 64 44 76 99 50 50 37 71 59 75 67 37 113 136 147 152 149 84 154 175 162 165 179 189 193 192 176 172 177 181 184 185 179 168 165 156 159 157 164 166 175 180 127 105 178 198 201 200 194 198 173 136 84 139 158 161 157 159 162 163 166 167 170 171 165 161 167 160 153 136 129 120 122 104 126 119 108 68 116 136 122 23 42 33 38 41 31 51 59 75 58 50 53 50 84 99 59 50 47 52 87 70 46 39 110 133 141 147 154 101 141 186 182 178 179 184 187 190 181 176 173 177 172 170 171 164 162 162 155 157 154 156 168 163 116 141 172 193 202 200 193 200 169 147 103 149 159 161 163 154 149 151 157 165 171 175 177 170 163 159 149 144 155 136 127 122 124 123 129 69 117 128 121 41 38 47 39 51 35 52 55 81 49 56 52 54 94 97 57 57 38 70 55 51 42 47 120 128 133 142 160 120 115 197 188 188 185 190 186 179 167 160 169 172 175 175 166 169 164 165 159 160 157 165 180 140 128 157 168 193 204 201 195 195 164 143 123 137 169 166 163 164 152 142 146 154 162 171 170 167 164 154 154 156 168 153 144 130 136 145 147 66 119 126 121 40 34 48 41 41 29 57 49 74 51 53 48 83 89 106 48 67 34 74 43 41 48 45 123 125 133 141 159 160 67 197 194 191 192 186 178 176 173 172 174 175 176 176 173 174 170 167 171 174 174 195 181 122 154 155 167 196 207 196 197 194 159 147 138 124 182 169 167 162 161 153 158 155 156 155 158 155 155 155 165 177 179 163 153 152 151 167 142 74 119 122 123 31 31 50 38 45 38 56 57 68 62 50 66 89 99 105 55 45 51 67 49 52 42 41 120 122 133 145 157 181 68 161 195 195 191 190 188 182 182 179 181 186 187 185 181 184 175 180 180 191 196 209 145 137 165 155 170 197 208 196 197 195 164 141 148 106 182 167 179 171 171 163 167 168 162 159 163 168 160 151 159 158 161 164 148 166 177 177 118 87 123 117 122 35 28 38 39 45 41 52 54 61 56 52 76 98 102 104 42 46 41 55 51 57 45 58 117 123 136 149 159 167 133 73 183 191 193 194 186 182 181 181 185 188 190 190 189 190 193 195 200 203 204 172 130 165 163 167 174 195 203 198 197 190 166 141 133 141 127 171 188 185 179 181 181 178 179 171 166 168 166 166 170 173 171 154 166 176 187 184 87 121 119 116 115 48 26 33 35 32 38 51 64 56 48 54 84 101 104 106 40 46 41 49 42 63 53 69 119 126 139 147 163 158 155 101 97 181 191 188 180 179 184 186 189 189 195 195 199 198 202 203 206 203 180 131 162 171 165 170 178 193 203 196 198 189 161 153 128 161 120 137 171 193 188 183 183 182 179 181 173 176 173 173 175 172 177 176 179 176 190 147 78 144 127 111 118 67 34 39 33 36 39 50 62 44 47 63 92 101 106 105 47 46 23 55 47 70 46 85 130 134 135 154 160 156 150 141 130 110 188 167 172 180 185 190 191 192 195 198 203 202 204 202 201 177 135 151 174 162 170 176 179 193 205 199 195 185 167 163 134 164 165 104 171 162 193 190 186 181 187 186 185 182 180 180 168 180 183 178 182 181 175 84 122 144 128 115 118 82 33 41 39 34 33 56 42 39 54 65 96 103 103 106 41 44 21 52 63 52 53 85 122 131 139 147 160 156 152 139 136 145 111 103 103 115 137 161 173 175 183 185 188 192 189 183 154 121 156 184 159 154 169 175 183 191 205 199 196 182 171 176 144 145 164 148 111 127 158 179 190 190 191 190 188 188 182 186 177 186 190 184 170 180 113 115 142 139 125 123 121 95 31 42 38 37 46 47 38 43 60 68 105 102 103 106 42 47 33 63 55 46 62 87 125 137 138 146 158 160 156 147 139 139 113 96 113 127 137 130 127 126 131 131 123 122 127 143 155 169 189 179 150 153 170 175 184 194 202 200 191 180 173 175 156 128 147 160 149 111 92 99 109 122 140 150 155 157 152 142 133 128 124 116 134 151 142 128 140 143 128 123 127 113 21 55 43 49 45 48 43 35 70 77 105 102 104 105 47 39 25 72 57 46 58 81 113 137 138 142 158 159 163 161 151 145 129 117 134 149 154 148 144 148 149 155 161 168 176 183 189 183 183 173 162 157 163 173 185 190 203 199 191 187 182 179 160 137 129 154 164 162 145 134 133 135 136 136 134 132 132 134 131 136 148 155 153 148 132 131 145 144 129 128 128 122 45 46 48 59 48 46 46 46 69 82 103 102 105 103 57 35 21 69 74 49 44 77 101 127 140 142 156 156 166 166 170 162 156 142 147 162 162 167 172 181 183 187 187 191 193 191 191 182 173 179 173 152 165 173 180 188 199 198 190 187 184 180 158 152 130 144 158 176 169 162 161 159 162 169 167 169 162 168 154 157 152 149 135 137 133 141 150 140 132 130 129 127 56 44 47 72 36 47 45 50 76 82 104 99 102 107 55 38 18 64 79 54 49 78 106 129 143 143 155 159 165 169 172 170 161 147 159 167 181 185 194 196 194 196 194 192 195 184 180 163 172 186 178 152 170 175 183 193 196 198 192 191 183 184 158 151 155 147 142 163 177 176 174 168 174 175 174 173 168 171 168 173 178 171 157 156 157 143 145 143 131 131 132 135 45 49 61 60 36 44 45 48 81 94 100 105 104 104 63 40 26 55 61 54 54 73 108 137 143 143 152 166 156 169 169 169 164 163 177 180 188 191 194 195 194 193 195 191 184 178 155 156 182 180 174 156 165 176 183 189 198 194 191 192 186 181 167 143 167 170 141 148 169 180 180 177 178 180 178 180 177 169 161 171 173 173 165 167 161 147 142 142 135 133 133 122 66 49 55 59 37 49 37 58 83 97 97 102 103 102 59 46 39 43 62 64 55 65 109 135 143 147 153 159 159 163 170 165 170 170 183 184 185 192 189 195 192 191 192 181 171 160 143 165 187 176 170 161 163 178 183 186 196 193 193 189 189 178 165 140 157 182 154 134 162 169 173 178 178 183 183 181 180 174 164 167 165 160 162 160 162 155 145 138 137 132 132 120 57 52 51 47 49 46 30 67 89 93 94 102 100 102 50 51 42 36 53 62 63 68 98 128 139 144 153 154 159 164 172 164 168 176 180 179 182 188 187 189 192 186 185 172 151 149 156 171 178 166 165 160 148 178 184 187 189 195 192 187 181 165 147 138 145 164 160 141 157 162 166 174 177 187 181 183 182 178 169 163 161 156 153 152 149 153 148 141 134 131 129 108 66 55 49 43 35 52 39 73 88 89 98 98 99 103 60 50 51 32 65 60 68 70 77 126 138 143 151 156 157 157 162 158 165 173 175 176 181 183 186 185 187 183 176 157 147 156 163 157 153 139 144 141 132 151 170 176 182 186 184 175 159 140 125 128 135 144 143 138 148 159 158 171 177 177 181 181 183 180 171 164 159 155 150 150 143 146 142 145 134 131 126 97 68 58 43 42 36 51 43 84 90 90 95 99 102 101 61 56 43 38 82 58 68 70 82 122 141 140 149 158 155 165 157 160 162 165 173 175 180 181 179 186 181 172 159 149 147 169 175 129 112 101 85 84 99 117 134 150 166 167 163 153 133 117 101 97 110 119 130 131 151 156 161 167 171 173 176 179 182 175 165 161 152 158 148 142 144 138 145 146 135 131 123 93 65 65 32 42 38 54 47 86 93 90 97 92 98 104 61 51 47 30 81 66 56 76 79 126 131 133 147 165 153 161 158 159 166 169 162 175 177 174 176 165 167 160 154 145 164 180 183 150 91 83 70 55 43 77 114 121 137 139 137 130 111 79 42 57 71 99 106 132 165 163 158 163 166 168 173 178 180 173 167 165 159 157 149 136 139 137 141 136 141 128 118 85 70 50 60 29 39 54 46 85 93 92 94 93 95 98 50 53 43 34 76 66 71 75 79 115 130 123 145 156 158 153 157 155 163 160 168 167 169 177 175 165 156 153 149 153 179 186 190 178 114 71 78 80 65 43 65 100 106 106 105 100 63 50 55 64 69 91 107 150 161 163 158 160 163 168 173 178 177 172 169 169 155 159 144 142 127 140 137 135 134 125 111 67 73 42 58 23 46 55 54 87 86 90 95 93 98 98 50 57 41 41 86 69 65 73 65 108 126 121 140 153 157 157 159 160 161 164 162 174 170 172 173 164 155 148 155 171 187 188 190 191 170 114 103 95 76 64 42 66 86 83 80 62 56 67 81 95 115 133 134 158 155 161 171 158 167 169 168 173 175 173 166 169 163 155 141 139 130 133 140 134 131 120 98 56 61 44 50 40 42 53 66 86 86 90 88 90 95 97 57 54 42 50 67 70 69 57 69 95 120 122 132 146 156 158 159 157 163 164 167 168 170 172 172 161 157 152 162 179 187 188 186 183 186 154 127 116 86 63 56 54 73 81 73 64 87 82 99 122 143 143 145 157 156 161 182 162 151 167 166 165 167 161 164 166 161 152 143 136 131 130 137 133 126 111 92 43 52 48 40 56 38 51 68 87 88 90 90 94 94 94 63 46 42 50 53 76 81 43 69 101 118 114 133 142 152 156 156 155 160 167 170 168 165 168 165 163 156 150 175 185 186 185 184 179 177 163 116 120 91 91 85 84 84 86 94 91 89 93 77 99 116 122 142 148 158 157 165 165 153 154 167 164 171 164 163 157 151 145 142 137 133 135 135 127 120 116 79 34 52 49 44 55 45 46 70 91 84 92 86 96 93 97 64 51 45 50 42 65 96 54 52 85 123 115 130 138 150 154 152 156 166 156 158 168 160 161 160 158 148 170 168 176 178 166 188 168 147 134 118 89 86 88 105 100 99 104 107 89 93 95 91 79 101 106 116 152 151 159 157 161 155 142 154 158 167 163 156 154 150 143 140 137 135 134 134 125 116 105 70 42 50 47 43 39 48 51 77 84 87 88 91 92 95 98 62 51 46 38 36 59 91 78 65 65 119 116 128 131 146 146 151 150 163 155 148 161 162 159 154 148 147 173 157 159 164 168 165 147 126 122 106 87 97 84 113 101 94 91 88 97 84 106 79 87 94 101 110 145 135 147 150 158 140 152 145 160 167 161 154 148 144 139 141 136 134 129 125 117 118 99 61 48 40 46 55 33 49 51 78 87 85 87 92 89 95 96 62 51 45 32 42 66 82 82 71 68 102 112 123 132 142 144 148 151 156 148 144 151 157 149 149 149 146 147 148 134 142 162 139 137 115 108 93 96 98 90 114 104 107 99 76 106 85 104 86 84 93 90 98 125 121 136 138 137 132 161 139 158 158 161 147 146 143 142 134 134 136 127 123 111 114 87 43 60 33 39 59 35 50 49 75 81 89 87 92 92 94 96 58 52 36 31 31 64 86 71 54 63 80 106 120 133 139 141 147 155 156 145 140 153 147 146 149 135 130 127 122 111 116 128 115 121 103 103 102 96 90 104 96 102 103 101 66 100 99 90 95 78 91 76 86 96 102 114 121 128 107 136 147 140 161 158 156 152 144 144 133 136 130 126 117 111 106 69 50 42 27 44 45 43 46 60 73 79 84 90 92 95 95 97 54 51 34 29 40 47 74 59 51 49 82 85 112 133 138 137 151 153 155 151 139 142 156 157 126 130 131 94 107 97 96 114 105 96 92 88 84 87 103 90 83 95 91 78 78 81 97 88 92 79 82 75 69 97 90 93 102 113 109 106 126 135 157 158 160 154 142 139 137 131 127 120 117 104 97 56 45 48 21 48 36 42 47 66 77 83 84 90 90 91 98 96 51 48 39 39 47 45 63 54 61 64 58 73 93 117 133 137 146 150 150 152 138 136 160 145 108 128 109 79 89 83 87 100 100 86 89 79 81 77 79 85 77 71 75 72 78 80 82 91 75 85 71 68 69 82 90 84 79 99 91 99 98 121 146 157 144 147 140 136 131 129 120 116 114 99 85 41 43 43 30 49 39 37 59 76 75 80 84 90 88 93 93 98 48 48 52 47 56 40 68 42 57 81 52 62 67 100 111 129 134 157 132 144 140 145 145 122 103 109 90 64 63 70 86 88 83 86 92 63 82 76 49 88 77 75 75 75 76 80 70 81 65 65 65 69 66 61 90 70 63 75 73 83 93 95 133 163 137 146 133 136 132 132 110 114 106 92 65 39 31 53 39 44 40 44 60 82 75 84 86 86 87 94 92 98 55 57 58 52 63 45 54 52 38 73 57 59 55 79 76 120 123 151 129 143 131 143 132 104 94 98 80 59 42 54 71 70 78 74 82 70 82 74 49 78 73 80 93 81 90 93 73 84 71 61 58 52 73 58 75 72 47 65 66 71 83 78 107 161 129 136 131 126 127 134 112 98 80 84 52 38 36 36 40 41 41 59 58 81 80 81 87 84 92 89 94 96 66 63 69 60 63 57 41 68 33 69 51 61 45 69 59 99 112 121 120 129 128 136 110 87 81 82 61 57 48 51 56 60 54 67 58 73 72 63 59 59 68 88 102 104 99 88 79 87 67 58 57 55 60 64 70 67 40 65 55 56 64 78 75 139 134 125 119 128 118 131 101 81 81 60 62 40 32 26 43 39 43 58 66 77 80 78 85 86 92 87 92 96 77 71 71 69 68 54 52 60 41 44 59 54 36 51 67 75 93 113 106 116 130 115 86 72 85 69 62 65 66 77 84 73 70 74 65 66 62 50 63 54 62 69 67 77 72 75 68 71 68 56 65 71 58 62 58 53 42 48 57 44 54 75 80 102 122 113 107 128 97 120 85 70 69 56 36 43 30 27 47 37 51 52 77 76 84 75 83 90 91 88 93 96 79 79 61 76 70 44 63 65 43 41 37 47 34 51 67 63 67 92 103 108 108 109 73 69 73 60 74 97 110 106 117 120 113 126 119 98 89 98 92 103 115 128 118 114 119 124 124 119 123 106 108 117 106 95 100 107 90 64 77 61 68 71 86 73 110 99 84 113 80 97 64 58 62 51 28 35 31 38 46 44 47 66 72 82 80 84 81 90 89 94 92 98 83 77 65 75 73 50 45 60 57 39 35 41 46 48 60 49 69 66 86 95 88 108 83 84 69 62 87 128 140 129 130 146 131 143 151 136 123 130 131 150 151 153 153 144 151 155 158 148 141 136 133 137 133 129 126 133 132 97 101 75 73 75 75 68 97 83 83 88 74 75 56 51 53 47 33 36 28 48 37 53 46 72 71 86 75 85 82 88 94 89 97 98 83 70 70 74 69 50 50 38 49 38 34 41 50 40 49 43 66 64 77 86 70 87 104 68 86 58 99 146 150 143 150 149 149 144 145 147 147 143 146 147 154 161 161 159 160 163 166 152 152 146 143 145 138 136 137 145 139 123 103 76 60 79 77 72 83 67 75 67 69 61 51 43 48 42 31 38 38 36 34 60 55 69 68 84 77 85 83 89 91 95 93 95 81 70 78 72 64 43 53 34 39 44 42 43 44 40 32 48 72 49 74 75 70 95 97 68 71 68 100 137 161 162 168 160 158 155 146 136 138 140 142 143 149 152 149 156 157 156 155 154 150 141 141 139 133 134 146 150 141 141 113 58 59 75 83 78 65 63 65 66 45 54 42 30 41 40 32 31 41 34 36 67 51 77 70 83 87 84 86 89 90 95 93 98 73 69 75 67 61 51 43 36 37 41 41 41 47 29 38 43 75 46 68 62 58 85 76 64 73 71 109 132 162 171 172 170 163 154 151 137 126 132 137 125 130 127 133 128 136 129 131 138 137 134 140 133 125 139 149 144 140 144 118 73 48 72 78 72 62 53 52 64 46 39 36 30 34 36 35 29 40 47 39 72 57 72 73 77 91 80 90 85 92 95 92 96 73 72 74 70 59 50 41 34 37 44 37 35 39 38 30 36 63 51 65 48 53 61 62 57 64 82 118 128 157 174 171 168 167 158 152 140 124 121 126 122 111 108 130 121 118 110 117 134 128 127 123 134 122 135 145 138 141 128 121 68 52 64 79 63 61 55 53 54 52 38 36 25 37 38 34 40 37 41 54 71 61 69 72 75 90 80 88 88 91 94 94 97 72 76 69 75 47 56 39 39 39 36 41 36 32 36 40 29 62 42 64 39 51 60 57 61 56 86 108 135 149 166 169 164 161 154 147 143 122 112 107 113 90 104 127 118 116 109 102 114 110 126 107 125 126 131 144 140 131 120 104 91 34 53 72 66 58 47 49 48 46 38 35 23 30 30 37 42 41 36 62 71 67 71 78 76 85 86 88 88 94 91 97 95 75 72 76 66 40 56 47 32 39 39 32 37 29 38 48 17 62 39 51 39 38 52 61 64 54 76 91 127 148 159 164 153 152 157 146 140 113 111 88 106 83 109 101 115 104 120 89 95 87 115 105 115 127 132 144 132 122 116 85 79 66 36 58 56 43 52 45 40 37 30 45 23 34 34 40 37 32 60 53 74 69 76 75 79 83 89 90 87 91 93 91 98 76 71 74 56 50 59 41 34 37 38 37 30 33 40 39 33 36 65 37 37 35 61 59 49 58 63 92 117 124 140 143 145 143 153 148 138 122 119 94 105 96 97 82 108 83 108 84 94 89 100 101 120 125 136 140 134 109 89 103 81 68 34 54 46 37 49 45 44 37 38 32 34 36 37 40 35 48 60 65 65 70 70 76 74 83 86 87 90 94 90 91 96 78 67 72 56 60 52 34 41 35 31 34 35 39 36 42 42 20 61 37 28 37 63 54 45 61 56 75 98 97 118 127 123 156 154 148 140 136 131 116 109 97 108 77 93 69 89 122 77 84 99 105 121 126 134 127 120 99 70 77 76 61 44 45 46 33 37 55 40 30 34 29 35 47 42 35 46 54 60 64 65 72 69 67 77 84 83 86 88 91 89 92 94 70 66 69 56 53 48 47 38 31 21 23 24 37 44 47 30 31 30 45 37 33 54 50 41 53 52 68 74 85 110 104 95 164 161 160 161 170 163 152 130 89 105 99 72 74 59 126 97 85 103 125 129 121 135 122 90 91 79 64 56 78 53 48 38 44 24 45 38 28 25 34 37 52 42 43 49 56 70 66 68 65 80 68 75 83 88 88 86 91 89 92 89 66 63 54 55 52 44 42 23 26 21 20 31 30 44 48 32 33 32 35 53 35 47 46 52 47 47 64 65 78 93 89 123 143 180 177 171 177 168 158 155 109 85 99 83 78 96 76 126 100 112 122 144 118 120 113 74 92 75 55 46 53 53 46 47 34 24 36 28 25 32 39 43 48 48 46 61 55 64 65 69 66 70 75 76 83 84 88 89 87 89 89 93 68 62 53 45 54 39 29 26 27 25 24 31 29 31 47 39 28 42 36 49 34 47 37 55 53 45 50 70 78 72 84 107 124 134 155 165 180 169 156 178 139 112 97 101 105 108 84 115 117 124 121 137 122 99 105 72 82 82 60 66 36 49 35 51 37 26 26 34 27 34 44 52 54 47 56 59 51 63 66 61 71 68 75 73 87 83 87 93 87 92 89 91 63 65 59 44 45 29 33 30 38 28 21 34 29 40 29 45 28 41 46 35 34 49 34 36 44 49 37 55 71 66 73 80 95 99 119 148 164 165 158 178 148 142 107 112 125 131 108 100 123 102 124 118 114 81 96 78 89 58 67 60 74 47 33 23 40 33 42 31 28 34 43 59 54 49 56 66 54 58 56 65 65 69 74 78 80 87 88 85 87 92 86 91 72 67 59 54 46 42 51 50 48 40 23 24 38 44 30 37 36 24 48 46 27 34 35 26 54 32 49 42 72 59 83 59 80 99 105 132 144 142 151 170 141 161 135 96 115 137 127 108 113 122 108 101 103 70 96 76 84 53 48 59 63 62 35 29 33 36 29 23 41 42 26 50 55 55 61 60 63 59 58 61 65 67 72 78 76 86 83 89 86 91 89 89 76 72 72 70 60 64 65 62 55 52 27 31 66 50 28 56 46 26 42 44 43 30 31 32 46 44 43 35 74 58 70 54 95 100 89 108 120 119 135 156 129 145 137 100 99 139 122 116 101 117 112 97 104 75 83 93 73 82 29 47 54 51 32 35 33 36 26 28 51 48 12 33 62 60 58 62 60 67 60 70 66 72 75 81 84 84 86 85 86 87 90 85 75 71 74 73 71 71 75 70 65 59 38 56 81 45 17 85 59 35 38 34 54 27 35 39 50 36 39 37 67 53 68 47 99 90 87 90 102 109 112 134 118 114 132 111 88 106 111 96 93 114 98 93 111 89 85 85 80 87 49 36 31 48 33 31 24 40 24 36 73 39 19 18 48 70 62 58 61 63 65 69 69 73 79 84 82 81 86 85 86 85 89 83 71 74 73 73 74 73 73 74 75 68 61 82 75 34 23 88 72 33 38 44 48 26 48 36 49 25 39 46 54 46 64 64 82 82 87 68 88 89 104 105 104 100 104 96 78 89 90 85 87 112 81 79 109 87 85 87 70 46 64 58 22 47 47 24 37 39 29 49 94 35 16 16 32 69 65 61 63 57 72 63 73 73 82 77 83 82 82 88 83 87 87 86 74 72 73 73 73 75 75 73 74 73 75 90 75 23 31 100 71 53 40 33 42 41 38 44 40 31 30 56 55 55 44 63 62 73 72 64 84 75 99 83 81 81 83 87 63 95 71 69 92 100 58 100 98 79 75 73 49 34 63 55 31 36 38 25 32 38 47 64 98 40 14 15 23 69 68 60 58 65 60 69 70 75 78 78 80 82 85 85 84 87 88 84 73 74 70 74 72 79 72 74 75 72 83 101 69 25 34 111 90 72 43 31 39 38 31 48 32 33 38 59 50 51 66 55 48 78 51 73 80 59 87 67 73 66 87 69 57 63 66 75 64 72 42 95 85 61 59 63 54 31 50 42 48 38 23 30 35 55 68 76 103 50 14 19 19 61 86 58 60 65 61 67 70 75 79 80 80 82 83 83 85 86 85 85 76 70 73 73 75 74 74 77 66 73 89 101 63 27 37 110 94 84 45 41 31 36 29 39 31 27 46 56 34 43 77 50 34 56 65 40 68 55 71 60 51 57 71 61 63 50 54 49 59 53 69 67 93 50 77 57 57 46 51 35 39 69 29 35 59 70 80 80 102 58 6 22 21 58 92 61 58 62 63 66 72 75 76 81 79 81 84 82 84 84 86 82 72 72 77 70 73 71 78 65 51 92 95 98 60 36 40 105 99 89 75 53 47 34 37 27 33 30 43 50 24 38 74 37 56 39 65 44 44 57 63 50 43 45 59 45 62 43 55 38 67 61 53 52 68 56 74 47 66 57 63 25 28 47 67 53 74 81 78 82 100 68 8 20 27 50 83 71 58 59 67 65 70 74 77 76 76 83 83 79 84 82 82 86 75 73 74 72 75 73 88 49 68 109 98 97 61 41 41 107 97 97 75 69 58 41 41 36 29 33 44 40 33 26 78 40 49 39 35 81 46 53 52 52 36 31 43 59 48 36 44 37 43 49 39 48 76 65 81 38 78 39 48 36 33 46 62 70 78 63 80 88 95 71 8 23 28 48 79 75 57 59 64 65 67 75 77 74 80 79 79 80 82 81 81 85 70 77 72 77 84 93 74 55 101 109 104 103 66 49 37 112 100 98 82 79 68 51 49 44 39 29 32 25 34 36 60 40 35 30 31 40 58 48 51 52 40 31 42 56 33 42 37 37 48 41 42 46 66 79 89 62 50 39 32 43 60 61 69 74 75 70 85 90 97 77 14 29 31 61 76 78 59 60 64 62 67 75 72 75 79 78 83 76 80 82 79 85 84 91 86 113 92 127 86 70 114 109 115 100 68 64 34 115 106 96 94 87 76 68 56 50 46 42 35 24 24 47 35 38 41 34 36 19 38 38 41 49 48 28 43 46 44 42 38 37 56 51 56 43 54 64 58 33 55 34 50 56 62 71 70 75 79 79 89 86 105 86 11 40 34 54 90 83 53 61 64 65 66 73 78 76 76 82 78 79 81 79 80 81 107 114 129 114 112 106 84 101 111 109 119 98 74 60 36 114 110 108 99 92 80 71 66 57 53 48 44 28 38 43 34 21 50 42 40 29 30 34 30 28 60 25 38 34 38 43 45 35 57 44 62 47 35 62 37 33 32 52 64 62 66 67 72 75 82 90 90 91 110 73 18 35 41 60 90 86 57 60 63 63 70 66 78 72 77 78 78 79 83 78 83 79 125 93 132 97 145 106 86 121 110 112 117 98 68 86 22 108 109 110 105 94 85 76 69 65 56 57 43 49 44 34 33 30 35 41 41 40 34 46 48 29 51 37 35 42 38 43 51 55 47 64 48 48 34 62 53 44 54 65 65 62 67 68 71 77 84 89 95 96 112 69 20 38 43 69 83 87 88 68 61 64 68 71 76 71 78 78 76 82 79 81 80 80 125 106 112 131 129 95 96 115 112 110 121 106 72 94 18 98 115 113 112 101 89 86 76 69 59 66 52 59 40 45 44 35 36 38 27 36 36 43 42 32 32 31 31 46 32 35 41 49 63 48 44 43 48 64 61 59 67 66 59 67 62 70 74 78 88 93 94 101 109 63 18 52 45 73 80 86 86 97 73 73 69 71 72 77 73 76 77 77 78 77 77 79 