P2
92
112
255
52 52 46 51 48 53 47 54 53 49 56 51 47 51 51 56 45 58 72 52 53 57 37 82 59 44 43 48 52 39 40 54 70 48 50 51 54 54 54 37 37 40 53 34 36 35 52 47 38 36 33 39 35 40 40 48 46 54 58 45 45 48 47 49 47 47 49 48 71 51 56 50 57 49 47 57 61 53 44 53 48 48 50 46 48 47 48 45 46 41 49 45 48 54 50 51 52 53 53 52 58 49 57 53 57 55 55 54 58 69 57 62 54 54 13 123 41 44 50 49 48 47 37 52 74 57 60 60 46 49 53 36 44 53 71 53 60 54 61 56 66 54 40 40 42 37 34 42 52 45 58 51 53 40 44 51 46 51 49 46 64 66 45 57 49 61 54 50 57 46 50 58 49 49 47 48 50 42 55 47 43 48 47 43 49 54 51 51 50 55 54 51 56 50 50 57 50 52 58 49 60 68 47 55 56 50 33 87 43 46 45 46 38 54 38 59 62 58 58 53 48 56 57 57 70 80 79 62 84 81 91 81 77 78 68 43 52 37 43 42 43 40 51 44 50 41 44 46 45 53 42 50 54 61 58 48 54 62 60 57 51 49 46 53 55 47 57 48 47 48 48 49 46 45 50 52 48 54 48 53 52 53 56 48 55 52 53 58 58 47 47 50 55 63 46 46 46 45 41 48 62 37 42 48 37 63 33 55 61 46 52 63 70 80 84 83 82 87 93 89 96 114 100 101 107 102 92 74 84 69 67 63 54 50 54 43 44 48 41 48 38 48 43 46 56 49 61 56 60 55 61 59 60 49 60 51 52 50 63 55 49 44 48 50 48 45 47 54 47 52 50 51 56 56 53 51 56 65 47 69 46 46 43 53 52 47 61 42 51 35 48 34 47 44 42 38 36 45 45 47 61 61 73 92 87 90 104 105 105 105 107 112 110 119 109 113 115 115 111 103 99 88 81 77 59 57 54 51 42 54 43 47 42 42 39 45 49 62 57 51 58 58 68 52 56 52 68 59 53 55 69 59 50 39 54 55 44 47 48 51 45 58 55 49 62 48 62 52 56 56 50 56 46 48 45 46 46 43 66 50 41 38 42 40 35 33 39 46 38 48 52 65 70 91 98 105 96 104 110 116 112 116 117 122 112 111 118 116 117 118 115 115 108 94 97 89 77 72 62 56 43 58 43 51 49 45 44 48 57 71 44 49 50 58 51 65 60 46 71 70 49 68 54 50 66 49 45 59 47 49 47 47 57 49 50 57 53 55 59 46 54 50 44 45 52 44 56 54 39 41 50 45 37 33 42 30 38 34 36 45 34 63 77 96 87 106 100 112 104 115 122 118 122 121 125 124 122 116 123 121 117 123 117 118 112 105 106 92 90 89 89 76 59 61 55 57 53 55 59 49 43 53 43 42 54 66 51 65 55 57 63 64 55 77 52 60 60 56 48 66 50 49 47 51 51 49 53 65 54 63 56 52 57 55 52 49 44 32 62 42 36 41 44 46 38 34 33 44 42 29 42 50 74 97 96 100 106 101 104 112 111 116 116 121 127 124 121 129 127 121 123 120 114 118 116 118 113 106 111 103 103 99 90 93 86 68 72 65 57 55 54 55 44 49 49 46 57 61 45 55 49 60 58 57 64 74 50 67 53 64 52 63 52 52 47 49 46 55 64 64 55 63 55 61 56 64 42 43 36 34 47 36 34 35 39 34 47 33 40 55 27 43 70 91 106 98 108 100 105 107 119 111 114 116 115 120 127 120 119 128 126 124 121 114 111 113 115 119 114 115 109 109 102 102 100 102 89 85 88 78 63 62 52 68 49 51 52 47 55 54 43 47 48 52 51 58 64 60 60 60 58 59 55 64 52 48 52 47 58 72 63 58 69 67 54 59 69 47 54 36 49 35 40 45 37 35 43 43 44 41 47 44 52 87 104 103 98 103 103 104 110 114 116 110 120 121 120 120 121 122 124 129 127 123 123 125 122 123 122 116 120 119 112 116 109 96 105 105 96 99 100 95 86 71 68 71 73 49 46 58 47 42 48 54 48 50 55 41 72 59 57 59 59 67 61 62 58 48 49 54 59 96 49 61 85 57 59 68 55 47 55 45 54 46 38 44 41 36 47 48 33 47 55 69 103 114 111 104 99 105 104 118 115 118 113 124 132 123 125 121 124 126 131 130 129 128 124 126 124 129 123 123 126 120 117 118 116 112 108 106 108 105 109 96 93 80 82 78 78 84 47 46 61 48 52 52 54 47 41 55 70 50 52 60 61 55 65 61 64 55 50 54 67 86 44 67 75 79 64 55 55 70 50 52 58 52 34 50 44 45 34 51 59 52 90 115 121 112 117 109 111 113 123 125 132 125 128 143 134 129 134 133 129 126 136 139 137 133 133 128 131 132 127 124 127 129 124 122 121 113 115 113 109 114 105 104 93 91 85 86 82 96 74 41 42 50 61 37 60 47 42 61 55 56 48 58 82 38 77 65 66 50 51 54 65 67 53 68 71 96 53 46 70 58 58 51 48 40 49 42 45 44 40 41 69 95 117 126 119 117 123 125 115 130 136 133 139 135 146 148 140 126 136 137 130 125 140 139 141 143 131 136 134 127 138 125 130 131 131 126 122 121 126 117 115 113 112 109 105 103 96 98 92 99 80 61 39 43 46 57 47 41 47 46 53 60 46 61 83 60 61 64 64 53 60 59 58 59 68 71 71 111 47 54 58 52 65 52 41 38 49 43 41 38 43 69 105 126 125 125 129 123 129 128 123 138 137 146 144 138 146 142 141 134 138 145 140 138 142 145 142 147 139 144 140 136 139 132 139 132 135 127 126 127 131 121 124 121 116 118 109 107 104 97 103 101 102 79 63 45 34 43 60 29 67 44 53 51 52 66 62 62 49 70 57 62 62 55 56 71 65 74 62 96 60 53 57 46 54 42 41 50 50 31 36 50 68 98 129 131 126 128 128 141 132 134 132 149 145 150 150 160 146 144 145 144 142 150 146 147 147 149 149 150 149 147 146 144 141 139 142 137 140 131 134 131 134 130 129 124 126 128 113 117 116 103 106 98 108 93 90 63 42 33 45 48 40 48 50 50 49 54 65 56 51 69 53 70 63 56 57 65 72 87 65 69 77 53 52 44 47 44 43 55 33 38 43 72 101 121 127 128 125 135 140 153 143 138 148 151 152 156 160 157 153 153 150 149 153 154 151 143 151 153 149 157 148 153 152 148 148 144 143 143 144 138 140 140 137 136 136 131 135 129 123 122 125 122 104 115 111 99 105 87 70 34 36 43 46 40 52 43 51 48 60 60 58 57 58 73 66 63 56 77 74 97 68 77 71 60 60 37 43 53 45 47 45 53 73 105 122 122 131 128 133 137 149 164 151 144 157 147 170 168 167 158 161 160 153 161 158 161 154 152 154 153 151 160 157 154 151 153 151 147 146 149 150 148 141 139 142 143 143 133 133 135 131 125 131 131 110 114 117 107 115 110 85 64 49 35 49 36 61 38 50 49 50 68 67 57 59 58 68 63 61 75 95 84 58 84 60 69 46 42 44 50 44 59 44 71 118 117 128 132 141 136 140 155 154 161 144 149 163 159 177 181 170 173 173 170 165 168 170 168 164 158 163 166 164 158 160 158 154 157 154 152 150 153 148 155 148 143 146 151 139 145 139 142 140 134 140 137 131 117 118 118 119 119 109 81 69 53 32 47 59 38 44 51 57 84 58 50 57 52 66 70 60 59 116 66 67 74 68 55 52 43 47 44 56 56 61 113 129 130 140 141 144 149 156 163 162 170 147 140 172 164 178 178 179 181 186 179 179 176 178 177 182 172 168 181 171 169 160 160 164 158 160 156 155 153 152 162 158 153 146 149 145 152 140 152 145 143 145 139 145 126 130 124 123 118 119 103 97 46 55 45 57 41 42 50 63 64 63 53 61 50 58 70 49 49 100 70 66 72 62 41 48 51 52 49 63 71 102 131 140 142 144 147 153 156 151 160 162 172 159 147 171 172 182 181 184 187 192 191 185 176 176 176 180 175 174 177 184 175 170 163 161 162 167 161 161 157 165 156 184 153 153 151 154 156 148 152 155 148 148 151 151 136 137 129 137 125 123 118 113 85 58 47 61 34 46 47 58 72 66 54 56 51 58 55 42 56 88 72 52 62 61 34 55 54 54 64 77 98 128 144 140 142 146 151 157 158 157 162 166 172 161 165 167 169 184 190 188 192 197 196 191 188 183 183 178 175 186 186 188 179 165 165 167 165 174 174 170 157 165 162 177 162 163 154 158 161 157 155 153 152 151 153 156 148 142 139 134 136 123 122 113 120 70 35 77 32 52 50 46 60 64 55 66 59 56 60 39 55 87 70 60 57 41 58 57 60 60 81 89 122 147 145 137 148 157 159 162 160 163 163 176 180 172 170 176 176 185 189 193 192 195 193 191 186 193 187 184 180 183 185 193 188 167 172 176 160 173 181 168 166 163 165 162 162 160 160 154 160 160 153 153 157 156 158 160 158 149 145 149 142 134 123 121 118 95 48 70 44 55 45 52 51 67 55 62 61 63 68 41 52 86 62 57 43 57 68 68 61 70 84 107 142 154 144 141 162 163 162 166 164 169 171 179 172 184 182 184 188 182 186 193 191 192 191 188 183 191 186 182 179 185 184 192 186 176 170 176 164 176 179 179 164 170 165 164 161 159 162 155 163 163 157 156 160 160 161 171 163 163 150 148 153 143 127 123 119 113 77 71 43 49 32 74 52 58 54 65 50 70 61 37 65 68 65 50 55 67 61 63 63 71 91 129 153 154 146 152 165 162 172 176 169 177 176 184 180 180 182 193 188 187 185 192 189 191 186 185 181 189 187 188 179 183 188 184 185 178 175 174 166 184 179 176 171 169 166 168 162 159 162 156 158 162 164 161 163 164 162 170 153 170 156 151 148 149 135 126 118 126 101 84 35 58 40 70 53 52 52 61 52 66 52 46 78 60 52 56 79 63 67 60 66 73 109 142 153 157 149 156 164 170 179 176 170 182 183 182 183 176 187 191 190 188 189 186 189 186 186 183 188 187 186 184 182 176 179 178 177 174 172 168 167 182 175 180 166 170 168 164 165 162 158 159 155 163 165 166 163 162 163 163 156 173 150 161 152 149 144 120 122 147 129 95 57 58 49 75 58 56 54 51 66 43 54 58 84 56 49 71 69 75 71 64 74 87 124 147 158 157 158 157 171 177 181 180 172 190 186 186 181 182 187 190 185 187 190 185 188 185 184 183 180 185 186 179 180 177 176 168 174 165 171 166 166 177 174 170 171 171 165 164 162 161 160 163 158 163 165 168 165 167 163 164 162 164 154 157 153 155 144 132 127 135 143 104 79 62 62 92 37 49 56 62 62 57 47 80 89 50 72 79 60 72 58 75 63 99 134 150 166 165 159 162 178 184 186 180 178 195 186 187 183 187 188 191 190 191 186 186 185 184 189 185 181 186 185 181 179 173 175 165 161 170 168 165 169 169 172 173 169 172 164 162 158 164 162 162 162 165 160 170 166 169 171 169 170 162 160 153 159 151 147 137 147 137 134 114 95 71 62 84 37 54 49 81 71 64 44 98 77 51 95 76 46 69 63 74 74 115 138 155 167 168 164 170 176 184 188 184 182 191 185 186 190 189 195 192 193 189 188 190 188 186 190 188 186 184 185 186 183 180 173 170 162 168 162 165 162 167 170 172 165 170 160 158 158 160 164 164 163 161 162 163 168 163 165 169 172 166 169 160 165 154 145 150 142 143 140 127 107 74 67 82 46 49 48 86 86 64 58 100 78 33 110 78 47 65 72 70 91 122 135 159 170 173 167 182 183 189 193 188 186 190 189 190 188 186 191 188 192 194 188 191 188 183 189 185 189 185 179 188 185 183 178 171 170 166 162 163 156 161 170 171 165 162 162 160 160 158 165 159 165 163 159 161 169 168 166 171 167 165 168 160 169 157 156 161 150 150 144 134 111 93 70 88 48 48 53 112 84 93 75 70 62 49 98 65 53 68 67 64 101 123 136 161 170 175 175 184 187 193 194 190 186 184 190 187 187 183 188 187 180 189 191 189 189 187 188 187 190 182 185 183 187 184 183 176 175 166 168 160 155 159 166 173 164 166 161 165 161 159 164 162 161 163 160 164 172 168 168 175 169 171 168 164 164 163 168 159 175 162 144 138 110 120 66 68 58 48 64 143 70 97 56 42 51 55 73 79 59 69 54 74 108 129 139 157 173 180 182 184 190 193 195 186 185 184 185 186 178 181 183 185 176 182 172 181 186 189 185 186 182 186 188 187 184 186 179 182 170 171 171 164 159 155 173 175 164 169 163 170 165 159 168 160 167 160 171 170 173 170 174 179 175 166 170 173 158 166 178 165 179 169 145 144 129 115 110 41 87 44 92 129 70 86 53 39 52 60 52 85 61 59 58 73 100 132 128 150 180 182 187 188 190 190 189 183 182 177 167 161 164 159 167 162 149 134 139 135 163 166 159 165 165 157 179 178 176 183 192 185 179 174 177 160 161 155 183 181 168 166 160 174 164 164 162 158 162 156 160 166 165 167 172 170 168 162 164 171 153 168 178 174 178 184 158 139 139 110 145 35 92 58 109 102 92 76 54 47 67 71 50 57 68 50 60 72 92 137 125 147 180 190 184 191 190 186 178 168 157 135 131 128 140 145 144 135 107 103 118 97 104 114 127 128 130 131 142 171 153 168 189 181 182 184 172 170 164 151 186 180 174 162 171 169 164 169 159 157 156 155 150 162 158 162 166 173 165 162 162 166 165 164 177 169 174 187 162 144 148 127 131 63 76 88 86 101 101 74 50 64 47 78 51 48 66 60 65 58 101 129 140 146 182 189 185 188 186 175 160 142 122 130 104 96 118 122 115 95 98 74 91 89 70 67 91 87 93 101 99 137 154 138 186 186 181 193 177 174 160 153 192 178 177 161 177 170 164 160 157 152 145 147 143 145 150 144 149 153 150 149 157 158 161 163 164 168 176 187 164 153 160 139 124 86 73 95 79 92 103 60 48 59 39 65 71 57 65 67 65 62 92 119 154 147 181 187 182 182 174 168 158 120 112 112 103 103 113 105 89 83 80 68 78 66 55 59 66 64 77 93 86 100 140 133 156 193 176 193 176 173 157 156 192 178 178 163 173 171 153 143 130 129 128 120 119 120 125 123 134 138 131 132 134 142 151 153 158 167 173 188 179 152 173 150 122 101 93 72 102 96 99 49 42 53 56 58 81 84 63 63 70 76 85 116 159 149 179 179 186 181 171 163 133 100 100 86 108 101 84 64 55 55 61 57 63 56 52 65 63 67 72 114 101 94 118 131 133 175 174 182 172 172 158 152 189 182 172 158 168 161 143 127 110 114 105 87 82 85 85 74 92 95 91 105 118 126 134 137 138 150 169 179 188 159 172 157 114 126 69 87 109 114 88 42 70 47 46 45 78 57 76 83 76 74 93 139 167 152 174 180 185 179 163 137 109 107 88 93 100 70 84 148 142 149 129 80 79 81 57 71 68 90 95 113 116 110 109 131 129 159 171 173 181 164 153 156 183 172 169 154 155 150 130 114 97 87 90 73 52 54 59 65 61 48 70 63 78 92 100 113 115 120 152 170 187 173 177 159 126 117 69 99 108 121 43 52 59 77 72 41 70 55 69 62 110 52 105 154 170 161 174 184 180 168 142 100 119 105 102 107 109 101 131 218 214 219 155 119 131 121 103 97 85 81 90 98 97 122 133 133 148 156 167 170 167 155 156 161 172 166 164 150 139 133 133 120 94 73 73 58 53 58 47 64 37 39 67 56 54 58 70 76 100 102 123 158 181 186 173 165 129 113 78 96 121 98 47 45 37 48 92 96 65 45 83 41 100 80 119 155 175 166 177 185 176 162 109 118 115 118 138 164 149 140 152 173 195 194 168 169 174 157 152 152 139 138 132 121 101 92 87 120 157 164 160 172 164 159 156 160 155 167 157 145 128 83 103 163 128 93 101 80 88 71 62 53 48 44 50 54 43 54 53 64 97 72 107 145 179 190 173 172 137 108 70 97 117 95 50 36 34 83 61 117 113 42 70 34 90 89 127 155 181 177 169 193 169 106 115 140 143 144 157 162 159 140 151 158 155 148 134 131 121 116 115 123 117 129 131 127 122 116 111 85 93 170 170 175 170 165 169 162 164 163 173 144 124 139 226 229 176 102 121 102 104 100 100 102 105 110 103 92 75 78 61 60 71 55 68 113 165 191 173 170 144 100 82 82 114 91 45 40 34 84 113 69 123 106 59 47 81 103 131 156 181 179 176 201 85 101 140 156 166 164 165 157 147 151 164 171 171 171 163 158 150 143 132 126 116 107 113 99 101 96 94 115 79 92 182 173 178 171 174 166 172 167 191 133 194 168 191 167 127 138 136 135 138 138 142 137 142 145 139 128 108 107 96 89 108 80 69 75 91 139 169 182 151 98 69 92 115 93 35 44 37 81 132 96 66 115 70 63 79 88 143 168 181 182 180 194 38 138 140 149 160 158 163 177 177 184 190 191 190 189 177 172 162 152 150 142 139 136 135 124 114 103 91 89 110 56 202 207 214 181 161 150 167 175 194 178 190 108 139 129 127 131 123 122 115 111 111 110 109 107 114 113 108 115 117 112 101 98 77 100 100 91 83 157 159 102 55 94 116 88 40 41 58 97 95 125 96 91 53 79 71 65 158 180 177 160 169 124 78 155 152 150 155 162 183 190 192 185 179 155 140 131 119 114 118 111 112 116 108 108 116 132 141 134 118 112 89 119 226 214 224 111 84 83 80 85 82 170 119 102 125 119 104 107 108 123 144 150 149 145 128 128 129 125 123 124 133 114 110 110 102 107 108 100 122 62 145 107 64 77 118 95 44 61 68 114 146 97 109 111 45 80 60 50 155 128 149 81 203 190 80 135 130 116 140 161 176 180 164 119 103 91 90 81 53 146 96 48 65 82 98 109 106 102 113 128 135 138 106 111 76 91 125 123 129 117 99 104 19 138 106 115 101 93 108 138 148 159 163 173 175 174 164 157 158 158 158 158 162 156 141 125 118 95 113 101 137 132 53 123 68 83 123 97 63 64 76 98 155 120 96 101 80 91 51 25 163 134 235 73 60 75 116 98 91 109 142 162 165 128 76 65 97 109 104 57 63 98 70 29 75 52 99 94 98 108 124 115 114 131 146 123 62 146 174 178 165 159 142 157 89 120 105 92 73 98 120 124 118 124 113 133 138 141 139 145 156 165 167 168 175 178 186 176 141 115 99 102 118 168 57 125 64 99 103 107 80 67 87 94 121 154 119 77 55 112 39 31 74 60 196 80 87 53 143 105 111 145 172 152 106 87 104 113 141 133 140 76 81 85 52 70 86 64 149 138 96 108 109 146 131 139 157 72 111 186 183 172 157 150 145 142 141 70 97 58 73 98 108 122 123 119 113 96 116 112 92 101 105 120 145 170 178 176 190 192 165 132 120 99 109 167 81 157 50 108 85 99 107 73 94 91 109 125 127 78 53 69 33 47 63 122 166 149 181 76 177 148 159 191 170 112 116 163 189 175 187 170 171 145 131 129 103 114 113 124 156 150 126 141 139 123 177 174 171 43 180 200 177 164 158 152 154 157 101 100 73 49 84 106 95 94 113 130 69 45 123 87 26 51 56 66 79 110 140 172 179 179 163 130 129 99 104 153 128 93 19 91 133 74 112 83 95 89 100 113 130 59 54 44 26 48 152 177 181 177 202 90 187 161 175 177 145 132 161 195 193 194 194 187 193 168 176 140 160 151 150 147 147 145 138 147 155 164 182 194 149 59 216 192 169 158 151 148 160 182 90 78 67 75 76 78 92 116 172 195 66 70 75 40 27 62 36 78 95 53 81 106 152 159 134 116 116 96 94 131 147 15 12 181 226 79 108 91 100 99 87 91 115 58 46 32 28 120 186 185 170 180 209 59 184 162 169 163 148 167 184 202 197 203 196 192 194 180 174 152 160 151 148 150 142 144 144 150 153 177 188 171 102 127 203 176 171 163 149 150 160 189 132 46 99 70 92 120 132 142 161 175 118 94 95 59 59 66 52 111 123 51 66 82 96 141 127 101 106 82 67 84 86 67 3 140 175 60 99 95 116 114 96 66 88 60 46 38 57 153 183 190 173 170 201 42 170 153 163 174 181 193 199 193 193 201 201 198 197 195 189 167 159 148 141 134 134 133 132 145 157 186 178 157 79 187 186 167 172 162 159 153 153 189 187 20 137 82 125 161 153 165 183 175 169 159 137 129 122 116 128 145 142 110 118 88 89 106 146 126 116 98 86 89 63 120 35 100 82 69 98 94 125 122 99 68 67 75 68 54 93 157 185 185 174 175 199 26 166 152 178 192 191 194 199 193 198 201 189 195 188 176 161 149 143 134 126 130 132 137 157 167 160 166 174 114 137 194 177 168 168 163 164 157 144 180 200 88 87 73 120 153 150 161 166 166 167 159 144 157 147 144 158 167 165 181 172 143 97 93 140 171 159 148 142 164 74 128 19 95 80 88 79 108 108 101 94 86 70 71 71 74 129 156 181 185 183 177 205 20 166 163 181 193 193 199 206 201 195 184 173 172 167 155 159 148 151 151 151 159 160 159 167 172 166 179 160 92 185 184 177 173 171 163 159 162 159 182 194 152 55 94 92 138 142 136 145 154 159 169 165 166 165 164 163 169 174 189 198 165 132 121 113 172 188 183 185 212 72 141 15 63 92 87 72 100 98 92 87 90 70 79 58 77 150 155 178 184 189 184 210 56 158 166 188 193 193 198 196 197 194 200 200 198 192 191 189 186 188 178 172 175 174 173 177 187 185 191 104 141 191 183 183 174 173 169 163 161 176 187 194 179 61 92 104 132 144 138 132 134 144 152 155 163 171 166 178 172 184 194 181 185 174 134 146 143 168 179 188 211 50 189 20 44 74 89 73 87 110 72 98 84 88 92 58 83 156 146 179 184 188 193 214 122 103 175 191 191 190 192 195 199 195 199 199 195 195 191 195 198 190 186 184 181 187 189 189 182 192 154 118 187 183 185 181 180 173 170 165 171 184 189 185 187 104 46 143 148 147 153 152 143 145 136 131 135 139 143 147 149 160 190 187 191 188 168 158 177 176 179 195 196 42 205 34 46 62 50 83 75 116 100 91 85 71 88 83 84 161 150 180 183 188 194 195 217 37 176 200 187 193 196 198 197 199 194 191 186 191 183 191 189 188 185 181 187 187 184 181 179 169 103 182 188 185 188 180 186 174 174 168 167 185 186 179 187 139 44 111 188 170 168 168 171 172 168 158 147 145 150 162 166 165 169 175 185 197 188 176 181 184 181 201 128 99 203 52 41 69 54 79 76 111 114 110 82 69 85 86 84 162 162 176 177 189 196 198 205 140 66 175 196 199 199 198 200 196 194 190 187 183 179 184 190 187 180 176 180 181 176 160 181 104 166 201 179 185 187 177 183 181 179 167 171 180 184 168 187 158 85 53 178 188 182 179 178 181 181 178 181 180 179 182 180 182 186 192 182 183 192 184 192 185 188 220 79 171 203 61 54 69 56 68 70 123 126 139 126 69 81 80 103 156 177 173 180 190 198 198 202 174 144 81 115 189 200 203 197 196 194 190 189 186 178 177 176 179 170 168 172 173 175 166 111 141 213 188 184 189 187 177 186 186 180 169 168 165 177 172 175 179 103 103 86 192 188 187 183 186 174 179 175 184 185 187 187 184 188 185 186 189 182 187 193 191 197 166 69 201 198 88 62 64 68 70 68 105 159 150 134 67 108 75 112 164 173 175 185 193 195 199 204 185 162 169 162 133 153 179 191 199 199 192 181 172 172 166 163 165 168 170 187 192 126 112 142 201 205 183 187 186 188 188 187 190 175 169 170 169 171 176 170 178 108 138 115 93 178 188 179 185 180 181 176 183 183 176 186 179 184 184 183 183 193 187 193 193 202 84 158 187 196 99 73 63 77 79 84 104 179 149 103 80 101 77 112 158 172 176 183 192 200 199 203 200 177 167 172 170 156 140 115 127 118 135 147 159 168 160 137 131 134 131 150 148 111 170 184 201 198 182 186 195 192 196 190 193 184 165 166 166 170 179 174 170 120 115 184 112 80 147 171 181 185 182 180 183 180 177 180 180 183 185 189 184 193 192 185 149 115 168 192 175 193 100 87 67 86 95 95 78 213 141 112 98 89 71 119 156 171 178 186 192 199 202 202 201 191 183 173 174 168 170 165 166 160 158 154 142 146 141 149 144 164 175 179 181 177 188 186 190 191 184 189 195 192 196 197 196 191 170 171 171 173 177 177 178 124 117 168 178 126 87 82 105 130 146 161 172 175 179 179 184 182 180 167 150 128 113 107 131 190 206 183 176 186 114 86 75 101 87 93 71 213 113 103 96 77 80 120 137 181 182 185 190 197 202 201 203 196 200 198 195 191 196 197 190 194 194 194 189 193 186 193 190 196 192 180 174 165 181 180 186 188 187 191 192 191 197 195 195 188 173 173 168 168 168 181 182 150 137 150 170 170 143 121 107 95 94 91 82 93 89 87 97 99 108 122 136 151 177 190 200 201 200 183 173 184 125 83 91 85 110 62 78 200 113 86 97 89 70 140 141 179 183 185 189 193 202 201 201 201 203 200 201 198 199 197 194 196 195 192 192 194 187 193 193 188 173 163 152 154 186 183 188 189 189 198 201 187 190 196 196 191 174 175 168 171 184 197 190 170 151 161 147 164 167 161 150 126 114 119 115 125 139 138 156 174 181 195 201 195 200 195 205 202 198 182 171 182 135 76 96 105 135 42 83 204 125 87 82 103 76 150 147 189 183 183 188 198 198 200 201 203 198 200 204 199 200 204 193 196 195 194 188 190 188 186 177 160 153 142 142 166 190 193 187 195 197 200 202 197 193 195 191 192 175 174 162 170 184 206 191 180 162 175 150 135 164 167 174 172 170 164 158 149 157 151 139 166 175 185 193 193 191 191 201 195 197 183 176 181 136 76 117 127 110 72 55 210 129 83 78 92 84 125 158 187 187 185 194 199 197 201 198 197 202 198 202 201 198 201 193 195 193 188 184 183 188 171 158 151 138 144 160 187 195 196 196 196 193 192 189 185 183 180 186 177 169 161 160 161 176 167 176 184 187 182 167 123 156 149 162 166 171 176 178 177 183 186 180 183 190 191 197 188 191 185 192 189 187 181 176 175 148 77 95 155 115 68 52 217 113 73 84 79 90 113 161 187 183 188 191 200 196 199 199 199 198 195 200 201 200 196 197 195 186 188 190 177 176 155 145 145 132 157 167 190 195 191 178 168 164 163 169 172 173 158 175 161 151 151 144 143 144 135 152 165 184 191 179 124 142 150 152 158 160 168 176 170 186 179 180 185 200 198 205 195 196 185 182 184 182 180 176 178 146 66 68 154 136 65 47 208 121 89 84 83 88 120 152 177 179 189 191 198 198 197 196 195 197 199 201 195 199 195 196 190 187 190 190 166 160 141 141 132 143 174 173 167 175 149 106 75 69 74 125 163 163 153 156 139 129 128 127 129 130 104 110 133 152 171 188 94 137 144 143 152 157 158 169 170 179 176 179 187 198 204 203 203 197 193 182 184 181 176 180 179 136 91 66 107 133 87 61 175 184 83 90 91 86 109 161 170 186 180 196 200 198 194 197 193 195 200 201 194 197 191 192 184 182 183 170 148 151 140 133 141 168 178 187 157 125 124 84 84 93 68 78 100 149 138 130 110 94 104 115 95 51 32 42 76 115 155 156 64 137 135 145 151 153 151 157 167 169 168 180 180 192 198 200 202 198 189 186 182 181 178 177 182 136 87 75 82 112 116 88 177 162 88 81 91 106 100 141 186 180 173 192 196 194 198 199 198 195 200 190 197 191 194 181 183 182 171 158 146 142 134 131 167 180 180 190 184 143 118 130 149 154 153 132 88 119 136 97 75 85 123 102 57 57 61 40 51 101 141 90 69 139 131 142 143 151 147 149 157 166 168 177 177 181 195 198 203 189 187 181 183 183 181 174 179 111 104 93 70 93 95 107 114 153 106 93 101 104 93 121 192 178 152 182 198 198 197 195 198 196 202 196 193 191 195 183 181 174 164 151 142 133 138 150 177 180 189 193 201 187 160 177 180 174 176 135 129 112 120 104 81 110 107 102 98 118 163 116 103 120 123 106 102 133 133 134 143 144 147 151 155 156 174 171 182 186 189 195 198 189 189 182 189 191 180 179 178 116 84 84 90 86 95 88 45 157 115 123 97 117 107 91 183 169 148 181 193 194 196 192 196 197 203 195 190 193 187 183 178 169 161 145 142 135 144 171 184 190 196 190 193 198 165 177 169 147 135 119 114 125 106 81 66 65 60 70 96 94 128 119 129 134 150 147 150 154 133 127 142 145 147 148 145 154 165 167 175 182 182 200 183 193 175 175 188 188 181 174 178 98 93 62 87 97 88 64 32 110 115 133 88 105 95 111 173 166 149 183 187 192 200 189 198 194 199 195 196 192 182 176 166 161 153 144 141 131 165 182 194 192 194 187 191 179 166 171 147 129 104 118 108 112 123 91 78 71 62 84 85 103 98 101 119 141 161 164 170 183 144 134 124 141 150 144 144 151 146 160 164 178 189 189 184 185 170 181 184 182 179 178 160 87 96 71 61 97 81 40 38 76 99 111 94 107 93 115 167 174 152 179 196 187 196 196 197 196 197 197 194 180 179 176 160 155 147 139 134 157 188 179 194 188 188 189 176 155 188 161 136 107 110 132 113 109 130 93 107 109 95 110 112 112 110 88 109 134 139 185 167 194 178 133 116 132 139 144 146 144 142 150 168 164 179 184 183 178 177 177 183 180 178 171 135 75 92 71 75 91 58 47 47 56 95 116 120 107 110 108 151 171 158 177 186 189 194 192 202 189 199 197 185 170 173 164 167 150 139 131 145 178 181 174 178 171 186 154 148 143 167 128 124 100 116 119 113 114 98 87 116 101 88 112 120 94 144 65 110 116 117 158 167 193 184 163 123 120 138 143 143 148 139 136 162 157 165 187 178 171 186 178 170 175 167 171 113 84 90 87 92 99 56 41 49 49 98 108 131 94 121 104 142 166 158 183 182 184 191 191 196 190 190 191 185 174 164 159 165 139 133 138 152 173 153 164 145 145 175 126 129 162 132 131 79 108 110 115 116 96 94 90 128 109 99 115 85 121 118 71 105 98 113 129 121 158 179 168 140 109 120 135 139 150 132 136 147 158 159 183 178 169 183 173 174 173 160 164 85 100 88 93 85 94 52 41 35 69 108 125 125 106 99 80 161 171 168 168 177 185 172 189 188 188 181 185 175 167 154 159 138 137 130 129 139 136 128 142 130 118 156 115 128 126 122 86 92 97 102 112 97 79 104 76 107 108 95 86 81 123 114 90 97 90 91 121 119 122 156 158 148 116 109 130 143 144 137 132 146 151 156 170 184 165 173 181 170 161 159 157 78 94 91 95 73 70 67 47 72 72 83 112 117 98 96 82 140 148 163 172 174 189 172 187 186 196 181 178 164 151 150 152 138 137 110 118 134 116 109 105 116 116 123 105 128 111 111 81 106 78 98 110 96 84 86 87 101 101 86 83 93 93 98 126 98 81 96 116 119 113 130 155 121 123 108 111 145 139 133 129 144 156 143 167 176 166 175 176 170 149 167 136 81 86 82 89 86 87 42 47 73 34 86 123 104 73 96 95 112 129 156 156 173 184 177 185 183 196 179 177 165 146 138 155 162 129 107 123 99 101 90 89 100 121 95 110 113 101 101 104 84 89 101 99 112 54 87 94 82 103 88 85 91 86 60 115 98 91 83 108 100 113 111 121 101 123 120 97 130 143 140 138 141 154 153 167 168 172 161 165 166 147 159 115 88 84 74 94 97 81 38 48 62 32 114 86 87 74 86 107 101 114 138 145 159 176 165 169 183 179 172 176 167 137 148 174 170 103 105 123 83 75 95 69 98 94 98 123 110 110 105 111 79 92 79 70 97 61 81 69 86 90 91 65 87 65 87 81 93 106 73 75 107 106 96 96 100 94 122 91 110 149 139 139 143 146 154 158 173 175 157 155 158 144 166 93 90 77 85 84 97 66 37 45 27 63 105 78 87 88 85 108 81 116 108 130 158 160 157 179 183 182 169 173 160 130 161 189 143 82 98 97 79 43 75 58 76 91 106 134 109 122 93 108 109 87 75 65 91 77 65 85 89 88 97 78 78 70 91 85 69 105 80 68 110 86 99 73 101 96 103 108 83 147 142 126 139 148 159 156 170 171 149 159 153 148 145 82 89 98 62 81 79 70 35 42 37 67 81 84 108 76 93 102 83 84 93 113 139 132 152 159 189 174 161 163 138 140 161 184 111 93 97 88 75 52 36 49 74 82 87 103 87 102 46 88 81 65 72 63 69 78 63 86 103 85 95 83 78 87 80 81 60 67 83 85 92 64 76 65 86 70 89 103 67 131 147 138 119 148 159 159 159 181 144 151 153 143 146 87 64 95 63 78 72 57 40 47 62 41 74 82 96 71 70 94 83 72 92 116 120 142 134 129 167 168 139 149 118 138 158 165 106 81 80 83 71 33 28 31 24 29 27 32 42 34 29 47 59 39 76 82 65 57 59 40 75 65 57 61 47 49 68 34 39 57 52 79 69 73 49 41 62 42 70 88 76 109 146 123 123 144 160 161 147 185 145 143 158 144 112 57 79 98 49 84 70 46 40 40 61 39 71 57 91 63 66 65 76 72 82 95 92 117 129 118 126 126 127 129 105 138 160 139 107 66 75 73 68 34 98 81 89 82 52 43 37 29 54 51 61 50 52 64 60 52 47 19 70 58 56 63 31 35 39 21 17 28 31 33 27 38 56 35 43 48 65 83 91 96 144 124 117 143 145 151 135 185 133 137 153 124 85 58 58 92 73 75 61 40 41 41 56 46 59 55 74 82 80 56 73 70 69 86 72 108 97 102 109 103 115 112 98 131 160 127 104 76 85 69 52 115 137 138 123 124 134 136 125 101 98 102 71 116 115 79 91 103 83 81 84 62 63 74 60 41 53 47 30 32 28 24 25 25 28 41 58 75 79 86 95 77 132 116 125 130 137 138 121 142 127 131 135 109 63 87 51 73 76 69 49 44 37 40 57 52 55 65 56 86 72 73 61 86 66 60 84 107 87 85 96 95 116 96 89 130 142 120 99 76 68 79 69 136 158 147 146 147 148 163 169 158 157 145 120 118 124 106 107 137 109 109 131 111 85 100 96 85 95 108 119 122 103 71 59 56 38 55 77 108 95 93 92 98 113 109 113 109 132 121 124 118 104 116 94 94 83 84 66 70 60 56 50 43 43 33 61 56 55 68 57 64 64 80 56 83 59 58 74 89 90 82 74 96 99 86 100 101 125 112 93 81 55 98 95 143 158 150 156 165 174 171 171 181 166 170 154 148 142 138 135 144 132 141 138 132 124 130 139 137 144 155 175 170 151 128 107 110 69 84 111 93 93 86 83 103 98 114 106 90 119 105 117 105 89 100 80 78 103 46 86 50 95 48 44 38 47 37 55 57 52 61 51 54 84 76 64 65 59 61 63 75 82 69 67 84 89 85 105 77 110 94 87 61 56 105 136 151 145 153 165 166 176 183 181 179 168 170 158 168 156 162 156 157 146 156 149 158 147 149 142 164 151 161 183 180 181 167 116 129 114 93 121 82 69 107 67 93 99 119 102 89 97 95 112 85 102 88 65 74 97 60 60 64 71 48 42 41 43 40 60 57 57 63 57 62 96 54 68 66 57 54 58 65 78 56 59 93 85 74 89 86 113 86 102 68 47 110 151 154 151 157 167 177 170 165 171 171 173 172 162 158 161 160 164 150 146 151 150 155 145 138 138 155 148 154 172 167 164 151 122 123 109 113 113 74 86 91 63 97 89 95 111 77 76 97 82 75 100 90 61 57 69 68 57 49 55 43 44 40 44 41 61 64 51 59 54 74 78 52 74 71 48 60 66 54 51 54 68 91 81 55 83 75 105 73 73 80 47 107 153 152 150 161 177 169 172 165 176 166 153 161 153 155 153 152 156 144 164 140 138 139 138 138 139 152 147 142 144 151 150 149 124 122 117 126 111 79 85 91 52 95 93 90 100 81 75 94 77 71 77 75 58 44 61 48 51 53 52 51 43 44 42 41 55 56 51 53 54 73 85 55 65 66 47 61 56 36 56 76 65 86 67 59 70 69 88 66 64 76 72 106 143 154 153 166 172 172 180 171 163 156 138 148 156 139 143 143 130 121 125 135 119 119 115 113 132 131 141 137 140 146 156 135 156 116 117 109 109 91 64 90 86 88 87 85 102 77 71 72 76 66 53 94 56 50 58 47 53 41 43 45 45 43 39 43 52 56 56 45 68 63 90 46 57 55 48 61 43 51 73 69 76 65 50 60 59 59 71 73 59 59 81 122 125 147 151 160 167 172 171 165 150 161 138 151 152 141 132 132 120 111 129 117 120 109 120 106 126 134 131 146 133 133 143 132 134 114 121 98 90 92 52 77 77 95 74 75 91 69 52 71 75 48 52 79 57 75 68 45 50 45 42 40 43 42 41 36 53 56 59 41 60 59 65 50 59 59 57 59 68 55 70 59 81 47 54 54 52 56 49 76 42 68 90 105 126 127 154 160 154 160 160 147 149 156 130 149 132 125 132 103 125 107 119 105 113 103 108 108 136 138 120 129 117 123 130 118 128 113 120 98 79 77 73 59 50 86 70 71 65 64 46 88 57 55 50 66 54 56 58 71 39 40 51 48 39 40 40 43 57 54 60 51 55 62 52 50 52 64 67 73 69 59 57 65 61 39 55 44 55 44 57 63 48 72 84 97 108 115 142 150 139 146 157 143 147 151 124 154 118 111 122 95 124 103 92 115 100 109 87 125 103 126 93 117 108 111 119 116 125 112 110 103 73 76 71 60 49 53 83 74 55 59 51 71 60 62 46 51 52 47 46 67 35 35 40 41 40 36 39 46 60 54 53 63 57 54 52 63 53 69 67 59 64 52 56 52 61 50 42 55 49 62 66 48 80 70 87 74 92 109 115 126 135 134 145 142 152 139 127 144 124 103 105 91 111 100 62 108 60 106 73 96 100 115 97 91 96 105 119 118 129 110 102 102 75 72 55 55 68 52 53 78 49 58 47 69 48 47 45 43 47 63 53 52 41 36 40 36 42 42 41 46 61 53 52 58 58 69 45 75 47 55 58 47 50 65 50 50 50 54 57 40 59 59 55 43 63 79 78 61 71 89 132 102 118 132 139 142 148 135 132 130 127 115 99 83 108 100 61 77 63 87 66 85 85 78 106 93 91 107 121 113 114 108 105 94 70 56 44 48 56 63 35 62 38 64 32 48 48 42 54 61 46 64 58 56 37 38 39 36 41 40 41 38 57 53 56 51 52 49 54 60 59 45 58 44 47 46 64 44 41 52 49 43 55 61 39 43 49 68 79 53 70 103 122 80 112 133 132 128 136 149 158 146 146 140 122 119 107 100 96 89 73 82 59 88 84 70 75 104 103 111 127 116 92 114 92 84 69 71 44 50 41 58 44 45 61 44 57 33 32 73 27 66 53 64 68 47 35 42 36 35 35 40 44 38 52 54 55 51 54 48 59 45 57 56 69 49 34 51 48 55 52 56 37 47 45 42 53 42 48 59 57 56 69 92 98 68 120 94 116 110 118 133 142 159 140 133 139 136 121 94 114 110 97 105 97 99 122 116 91 116 120 124 132 136 107 109 83 52 57 75 51 37 38 37 52 38 55 44 41 32 63 55 39 66 43 68 56 41 36 38 34 38 37 38 41 35 51 54 53 47 54 48 54 55 59 49 67 39 42 59 39 57 59 45 34 48 46 39 56 44 53 47 57 58 75 56 72 76 106 83 91 83 123 134 127 141 163 128 151 139 142 111 111 123 136 119 128 126 114 133 119 119 128 137 113 122 108 102 77 72 49 72 44 36 38 40 43 51 50 47 36 31 51 37 50 50 58 53 51 36 35 35 38 33 38 39 40 37 53 58 49 51 53 41 52 67 45 44 64 40 44 52 47 56 48 42 38 45 41 52 62 34 63 36 56 62 70 74 74 96 84 76 87 77 120 117 106 134 155 128 135 142 145 120 111 114 123 146 132 141 127 125 128 107 114 121 103 68 117 103 51 78 91 50 70 39 26 51 47 45 53 44 36 35 25 28 56 36 58 52 41 43 36 39 38 34 36 45 35 43 60 54 54 52 45 51 59 47 47 58 74 37 46 53 49 52 38 35 42 38 42 55 49 27 54 40 44 64 62 86 70 79 76 69 92 81 102 108 114 132 133 103 127 145 146 126 123 107 115 123 118 141 137 105 134 85 103 107 97 75 103 110 62 36 121 35 62 42 68 47 58 52 64 31 30 36 43 31 38 55 45 47 37 40 42 37 36 37 33 42 37 36 54 54 54 56 48 49 75 57 63 46 97 51 36 50 54 65 35 45 50 39 41 60 47 27 30 56 47 67 68 96 35 79 74 81 85 61 77 98 105 125 129 103 113 129 120 110 133 105 106 118 116 113 122 116 107 98 91 106 81 100 102 97 85 35 125 34 58 25 49 39 45 58 65 28 33 47 48 59 32 70 48 37 38 42 31 47 34 38 38 38 37 42 53 53 54 47 58 93 58 54 47 42 80 45 47 57 52 67 47 49 65 51 40 49 42 45 44 55 52 50 75 96 36 95 57 87 65 65 77 88 86 104 110 89 93 111 94 108 96 105 94 96 98 112 90 102 76 72 100 101 96 75 110 125 56 64 109 52 49 35 25 43 44 36 38 35 31 42 67 60 40 44 52 35 42 36 35 42 34 38 38 36 37 36 51 57 42 68 108 65 25 42 30 37 63 32 55 68 74 55 53 35 62 56 42 52 35 46 52 58 68 47 63 82 93 66 56 93 59 83 68 75 76 81 99 77 95 116 74 96 80 93 86 92 89 121 83 86 68 51 87 111 71 80 112 94 78 79 56 57 59 49 30 40 36 31 48 32 32 35 69 46 38 48 44 39 39 35 34 37 36 38 39 35 37 39 52 49 62 117 80 33 32 31 32 20 60 22 49 57 70 78 57 59 42 51 60 37 48 36 46 64 66 55 44 91 79 59 46 96 41 79 60 70 57 79 85 73 82 104 67 71 86 69 72 93 83 93 65 106 60 72 86 120 67 77 128 66 80 64 35 54 66 30 38 17 52 23 43 33 33 44 52 40 41 46 48 37 34 36 39 36 33 39 40 32 34 39 47 41 124 97 47 30 34 28 27 23 29 28 59 51 86 65 47 48 42 57 61 35 50 46 44 53 67 72 31 58 98 45 51 62 32 78 53 71 37 80 67 71 72 75 61 42 86 65 69 61 77 64 60 67 56 70 98 116 75 84 101 75 36 93 60 42 68 41 24 22 42 31 34 44 52 39 41 39 42 40 45 41 35 35 38 37 36 37 36 34 36 37 25 97 123 77 36 35 29 33 23 15 37 18 67 67 109 48 61 48 45 53 44 54 41 45 43 49 79 57 30 56 80 59 51 39 31 78 44 54 42 66 55 70 60 55 49 60 63 57 53 48 67 75 44 73 44 88 95 102 93 82 69 56 51 90 63 65 43 32 47 27 38 46 38 38 82 50 33 39 41 41 41 39 39 29 40 36 33 36 37 29 37 36 41 138 99 61 40 30 30 26 16 22 24 9 92 89 110 62 92 59 61 61 31 51 58 26 54 67 56 51 48 49 89 46 37 31 38 72 33 55 41 52 51 56 49 52 44 78 46 45 43 47 59 79 43 80 50 60 92 88 63 81 60 27 89 42 80 60 40 33 30 31 30 60 53 26 42 98 48 55 44 44 43 37 37 34 38 32 37 32 42 31 34 32 110 134 74 61 39 38 19 23 16 20 15 7 96 112 132 65 116 103 70 92 32 38 64 45 61 52 31 61 47 37 43 58 36 19 48 53 53 32 53 40 41 52 45 41 62 78 38 28 47 59 49 58 16 88 44 33 97 68 63 74 48 35 58 60 43 47 34 32 28 35 46 77 59 22 22 81 113 79 84 85 87 78 54 54 48 41 38 38 33 34 37 28 143 120 78 59 33 31 17 17 20 18 15 6 86 130 130 97 120 113 96 93 52 47 49 47 36 39 49 48 40 44 43 66 32 45 47 45 40 36 36 24 49 58 33 47 57 81 27 32 40 40 57 40 34 88 48 45 92 57 56 50 67 26 44 44 34 47 30 27 27 50 62 92 38 16 26 47 112 92 75 83 90 93 63 86 94 92 79 76 68 63 51 38 144 107 88 59 21 19 19 17 18 19 17 7 65 136 127 121 130 112 97 90 69 66 39 39 34 31 50 48 48 76 30 73 20 64 43 45 51 31 41 21 54 41 47 48 46 63 43 47 21 33 56 33 32 74 33 76 61 56 54 43 53 49 34 49 33 60 32 28 20 103 73 110 23 15 27 25 87 115 80 88 85 84 62 91 94 99 75 78 87 86 77 77 142 98 87 71 15 15 18 20 22 23 16 15 45 132 125 127 130 133 120 95 56 68 42 40 47 32 43 46 66 55 32 54 38 23 50 47 33 22 56 34 34 47 45 47 28 33 62 47 17 40 50 34 41 61 29 48 90 42 43 42 64 56 25 41 36 37 46 33 95 115 122 89 9 17 29 29 72 112 99 92 85 70 73 90 94 91 97 89 86 84 65 45 137 105 84 79 13 15 22 16 20 18 18 37 23 119 133 134 134 136 128 106 95 86 74 52 47 32 39 36 50 57 31 38 44 25 32 57 24 21 61 28 31 31 44 43 25 29 65 33 27 58 38 45 41 46 33 48 69 53 39 55 83 52 38 43 30 50 68 50 112 121 137 55 6 19 31 32 78 101 117 81 93 66 77 85 88 91 96 109 92 84 74 44 138 116 90 79 21 11 19 17 19 15 28 46 25 89 135 139 138 141 123 112 118 103 100 70 49 40 37 27 49 52 39 27 67 32 30 63 35 21 51 29 38 26 53 38 17 24 40 36 24 35 39 56 48 37 15 45 52 66 39 58 63 67 44 29 33 74 88 96 106 133 123 13 9 23 34 24 76 95 121 95 79 61 71 77 81 87 96 100 108 88 82 52 