P2
92
112
255
49 50 48 66 60 52 55 48 55 64 55 56 49 51 76 47 52 49 44 57 53 50 51 34 58 45 52 56 60 48 45 50 58 53 55 56 54 54 58 57 61 49 46 44 44 35 43 46 53 41 46 41 45 41 66 44 51 56 44 50 49 59 57 75 57 51 48 43 50 56 53 61 61 47 54 45 58 57 51 47 49 48 46 46 48 47 46 46 47 44 47 43 50 50 55 61 56 52 56 64 71 52 50 56 52 48 59 59 46 55 61 65 46 51 45 45 58 46 58 61 58 56 63 80 69 79 83 91 80 82 75 68 62 53 59 49 52 53 45 46 49 49 55 41 47 48 64 40 44 57 42 43 45 65 46 64 59 53 53 48 48 55 48 59 62 53 50 49 47 60 48 52 49 43 48 49 47 49 50 47 42 48 45 44 52 62 56 48 54 68 54 52 76 46 52 48 62 55 45 63 46 58 63 54 46 49 51 47 57 43 65 67 69 71 100 107 100 105 110 113 106 101 87 89 72 77 69 62 68 63 57 51 53 46 51 53 63 60 56 49 38 50 52 44 34 56 40 48 60 51 47 44 47 53 47 54 54 66 53 54 50 60 49 48 48 49 51 47 48 49 47 49 46 47 47 48 55 58 54 53 52 90 73 47 61 54 53 47 57 53 49 55 53 60 55 58 60 48 64 50 55 54 87 92 107 112 110 114 115 110 116 114 117 105 100 94 90 95 86 84 81 80 63 62 51 66 49 58 50 71 57 52 43 42 50 46 39 44 39 42 61 55 64 42 37 69 48 40 50 64 57 48 56 51 50 52 48 46 49 49 46 51 50 49 49 50 47 47 50 54 53 57 53 60 83 49 60 54 60 54 53 49 56 55 53 53 64 54 57 55 52 62 71 99 115 109 120 117 111 121 117 118 116 117 118 109 108 105 102 102 94 96 95 83 79 65 71 70 57 48 66 55 52 65 57 50 56 41 43 36 48 46 55 54 51 64 40 66 44 45 40 71 45 46 51 57 52 54 47 49 48 53 48 50 49 47 47 52 45 51 52 49 56 57 61 48 61 56 65 57 61 48 61 52 57 53 47 59 75 45 56 51 54 84 104 123 118 121 126 119 124 123 113 114 116 111 115 110 107 112 101 113 102 103 101 88 98 83 69 106 67 62 77 56 52 62 60 62 58 44 51 40 46 57 46 54 54 43 59 62 41 37 48 57 45 42 43 53 55 55 51 53 53 45 52 52 50 49 48 51 45 52 49 51 62 59 58 54 51 54 61 63 60 46 62 49 55 49 50 75 51 31 49 52 107 116 118 126 120 125 124 126 123 115 109 114 112 115 119 117 114 113 110 103 107 108 107 106 105 106 83 93 106 63 75 76 65 57 63 61 57 52 61 34 50 48 42 40 46 42 48 64 43 39 36 55 42 39 46 45 43 52 64 50 50 49 49 52 50 49 47 49 51 46 46 53 60 54 53 60 50 51 53 53 49 54 50 54 50 45 57 61 35 33 81 109 119 113 120 125 115 123 127 127 119 125 124 121 119 117 120 120 120 115 117 116 110 112 109 114 104 107 94 86 99 86 79 78 79 75 62 71 66 60 67 48 37 40 36 35 38 44 33 58 54 40 42 44 44 45 56 45 46 54 55 62 47 51 48 53 49 47 48 52 49 49 56 60 52 64 49 59 58 46 53 64 50 43 60 54 48 49 69 33 36 95 120 112 114 113 117 123 125 132 129 125 125 124 127 127 122 126 126 124 120 121 117 121 119 117 114 116 112 108 103 97 104 89 96 89 88 92 77 75 75 70 69 68 47 38 49 37 34 42 39 53 53 61 50 40 41 47 47 53 44 47 42 59 53 57 48 49 52 53 48 52 53 49 68 56 52 68 48 53 60 58 44 60 46 41 57 44 45 58 44 52 104 120 118 111 121 119 120 125 133 133 134 129 134 131 129 134 124 130 129 128 126 120 120 129 123 125 123 125 116 116 111 116 106 99 101 97 97 96 97 81 78 80 74 65 74 63 44 40 28 44 41 43 75 51 51 50 41 43 45 46 54 46 40 52 49 56 56 56 56 51 51 54 49 49 68 69 52 51 52 44 53 58 46 38 52 39 53 42 48 52 56 119 125 112 114 122 126 130 130 131 139 142 143 140 137 135 134 138 133 134 136 131 129 127 128 133 127 129 127 131 126 122 121 123 107 112 107 105 107 107 110 92 90 91 87 64 76 76 59 41 31 34 41 55 57 65 39 41 46 42 52 40 51 50 45 51 51 66 47 59 60 54 52 54 51 55 69 68 49 50 48 51 52 46 38 41 57 46 56 46 46 81 117 123 126 122 134 133 136 138 128 135 144 141 148 143 146 146 142 139 142 143 140 138 132 139 136 135 134 137 134 138 132 129 128 123 126 116 115 112 110 114 115 110 100 103 94 81 70 77 77 57 39 42 59 41 53 52 50 51 34 41 47 55 42 41 49 47 50 61 47 48 62 54 57 51 49 62 63 61 50 51 58 43 49 46 37 43 44 62 57 49 85 126 127 133 133 140 142 135 137 144 139 144 152 151 151 152 155 150 151 149 146 147 154 138 139 141 144 146 136 144 138 141 135 136 132 133 133 122 125 119 113 115 118 119 112 108 102 96 85 79 87 67 54 41 46 44 43 52 47 51 47 38 49 56 55 42 46 40 51 47 51 49 60 53 53 55 52 52 71 59 49 60 52 40 48 53 51 45 47 66 75 84 124 133 137 144 136 145 144 144 143 150 149 152 157 158 158 156 158 159 160 152 153 147 163 149 146 147 148 147 148 145 146 143 147 144 146 141 139 131 123 125 126 123 127 124 120 114 110 104 92 95 92 81 63 48 64 43 58 32 51 44 41 39 48 48 52 67 54 29 50 33 55 42 61 52 55 52 53 51 66 49 65 45 67 48 45 61 72 45 52 64 98 119 139 142 149 148 145 150 149 151 153 158 147 156 159 158 164 163 160 159 161 160 157 157 154 165 147 154 155 153 155 157 155 148 153 152 151 144 146 141 125 134 128 136 133 130 123 120 118 121 101 104 94 94 68 72 52 41 62 42 52 43 50 34 40 41 51 52 64 31 38 39 47 43 60 55 50 54 54 52 57 55 63 50 70 57 42 83 40 62 68 102 119 135 149 149 156 154 158 160 151 159 164 162 159 161 165 165 167 165 169 168 165 164 164 165 154 178 153 154 154 158 162 163 160 153 153 159 152 144 147 154 131 143 136 142 139 132 133 117 124 118 113 112 90 99 88 84 57 54 51 56 54 43 41 42 38 40 47 50 51 57 31 38 50 43 54 53 55 51 53 53 51 60 66 58 56 56 56 62 42 47 128 117 127 152 152 161 165 161 166 163 161 169 170 169 168 170 175 174 176 171 170 175 170 169 171 169 167 170 198 156 163 168 167 172 166 164 158 162 161 155 154 150 148 140 148 147 146 139 142 134 117 133 116 111 104 101 89 98 67 75 55 54 68 50 37 43 42 45 38 38 56 43 53 37 39 51 39 53 55 53 49 54 52 77 66 59 59 61 61 47 52 60 154 125 136 162 158 173 174 175 173 173 172 177 173 175 173 174 176 181 180 177 178 172 174 175 181 180 171 169 186 172 165 163 166 171 163 165 159 160 169 159 156 156 152 141 141 153 153 144 146 137 124 129 128 117 108 116 95 111 81 79 70 52 70 44 45 53 42 38 50 35 53 40 56 41 41 49 37 45 55 56 50 50 73 72 68 67 56 56 51 54 51 105 143 146 143 159 171 180 178 182 183 179 180 178 179 176 177 180 181 184 179 182 180 179 175 179 187 182 178 172 176 168 169 162 169 168 164 167 163 160 170 163 158 159 150 153 142 147 152 147 143 139 135 128 130 123 115 109 111 113 91 82 78 52 69 53 40 64 46 45 48 39 44 38 55 50 46 44 44 41 49 65 46 57 69 60 69 59 64 59 55 49 76 138 148 153 140 167 174 183 184 187 186 188 185 179 181 175 181 180 186 184 183 182 186 185 176 181 184 187 180 182 175 179 169 167 171 162 165 164 165 163 175 162 156 159 155 154 149 145 148 148 148 139 137 136 131 129 120 114 109 122 92 89 84 69 70 54 51 69 54 86 41 46 44 37 55 62 27 54 67 37 44 55 52 50 62 62 51 61 64 73 58 46 125 151 155 158 156 180 174 187 191 193 192 187 188 187 183 182 184 183 183 185 185 189 181 189 187 183 187 186 183 186 180 179 177 167 167 165 163 170 168 168 166 166 158 158 161 152 153 148 142 145 153 149 132 138 128 137 131 118 119 122 107 90 92 83 80 56 86 75 61 61 47 46 46 42 52 66 36 29 68 45 30 46 56 50 79 54 39 75 71 61 78 71 146 151 155 166 176 184 173 193 197 199 195 188 191 193 184 184 185 183 186 180 186 187 184 190 185 182 186 189 181 185 183 181 172 177 173 167 165 171 164 166 159 165 162 161 163 161 161 148 148 150 153 154 144 141 141 132 138 122 130 131 117 90 101 97 78 64 107 84 40 60 51 49 48 48 42 79 29 34 36 43 44 38 47 53 60 59 72 75 55 89 58 117 151 151 165 172 191 188 185 191 196 197 192 191 193 187 184 188 184 180 181 179 179 176 182 184 179 183 184 186 185 186 179 173 168 174 170 167 165 167 167 163 162 164 157 160 163 158 158 160 147 156 152 150 152 148 142 144 133 122 135 133 122 96 107 100 87 73 121 77 45 57 49 71 32 46 44 71 37 26 32 36 55 35 45 41 53 81 79 64 73 67 73 154 156 161 177 171 201 197 197 195 197 195 192 192 190 191 187 187 181 180 178 173 174 178 175 178 174 180 182 182 182 179 173 168 170 170 167 169 163 165 162 161 162 166 161 159 166 156 161 162 152 153 156 154 152 158 151 155 130 123 138 137 127 103 108 119 96 90 110 75 70 65 63 62 26 51 38 65 43 37 31 43 48 36 46 44 85 61 75 75 84 47 117 165 161 170 189 178 197 201 197 199 200 192 193 189 187 187 186 184 178 180 176 173 167 173 175 173 172 174 181 180 178 179 170 168 175 167 171 166 163 164 165 164 167 166 164 161 163 160 161 161 158 150 156 156 156 163 157 161 146 129 138 142 134 116 104 132 103 103 103 84 88 76 59 51 33 41 47 65 35 59 40 38 43 38 47 37 67 70 86 72 60 60 149 166 174 182 195 185 196 200 199 200 194 189 187 188 190 185 187 184 181 182 179 175 173 171 172 170 167 173 176 182 175 177 174 171 174 166 169 168 164 168 169 165 170 170 164 163 159 157 160 159 161 156 155 156 161 160 157 156 159 137 129 147 135 131 123 115 130 110 110 95 63 78 61 54 34 39 43 68 39 44 62 37 44 45 50 34 64 86 72 74 42 98 156 174 180 189 192 194 196 198 197 200 194 191 189 192 193 183 186 184 186 181 181 178 177 173 174 171 164 172 174 181 178 179 177 174 182 169 172 164 169 167 169 164 165 168 167 156 158 153 158 156 161 156 157 155 162 158 157 158 158 147 131 139 142 145 128 115 130 111 114 109 66 81 71 69 29 27 45 57 60 31 63 54 41 54 51 34 84 57 78 59 41 137 160 180 183 196 193 199 198 199 201 200 194 196 196 192 191 192 183 187 183 187 182 183 180 175 177 171 169 171 170 181 180 177 176 183 183 181 174 163 165 163 161 161 158 157 156 151 153 147 147 148 152 157 150 151 150 158 157 163 163 158 142 133 148 151 149 114 131 113 113 121 79 73 101 79 19 24 45 48 74 37 46 94 50 49 60 33 70 62 72 48 53 151 168 187 190 198 197 198 203 201 202 203 199 197 193 194 191 191 184 190 184 189 183 183 178 176 180 173 173 172 177 183 185 175 183 184 179 187 176 168 163 161 153 153 148 136 134 132 133 129 134 130 129 139 136 141 139 142 153 157 155 164 150 143 144 149 149 120 139 115 114 112 89 78 111 52 28 32 41 34 74 53 36 97 82 48 65 44 71 75 67 43 79 154 169 190 197 196 202 199 197 199 196 192 200 195 198 193 188 188 179 183 183 184 184 184 185 184 180 178 185 171 170 187 185 184 183 191 183 181 174 154 156 142 132 124 122 103 111 105 115 109 109 114 115 115 123 120 121 121 143 150 148 158 161 150 149 156 146 144 148 105 118 104 104 84 93 43 30 35 35 31 78 62 50 65 89 65 63 66 81 82 54 56 86 161 171 195 201 196 201 199 192 193 193 181 179 182 187 181 167 162 155 164 163 161 175 180 188 185 183 188 187 176 172 192 184 194 184 191 183 171 155 130 148 114 98 84 87 69 78 67 71 76 79 76 77 80 89 95 99 104 99 146 146 152 161 149 155 159 142 157 150 109 122 105 106 81 93 51 20 28 34 33 80 80 69 37 76 76 66 71 87 75 51 74 95 164 180 201 201 196 193 189 185 183 171 142 129 134 136 134 126 115 124 123 151 142 152 177 184 189 190 188 191 177 167 195 188 193 181 186 185 156 136 130 111 95 69 57 60 62 65 56 37 48 44 47 35 51 56 56 71 78 92 115 148 152 150 155 153 159 149 157 149 128 121 107 103 78 99 54 11 35 35 30 83 102 67 37 53 77 81 70 66 61 62 79 98 168 187 202 199 190 178 166 162 162 133 115 108 95 88 87 90 81 98 98 120 135 132 160 183 187 191 185 187 178 167 192 194 192 175 179 167 150 131 113 85 74 48 59 72 92 122 134 110 124 183 182 177 187 171 106 97 94 69 79 126 147 150 153 161 154 149 158 144 146 122 120 97 79 91 54 10 49 53 33 77 117 69 49 33 96 71 75 52 56 75 74 104 166 191 199 183 156 130 124 138 133 106 93 100 84 78 71 75 76 92 93 97 128 132 136 177 182 185 191 181 175 163 191 189 184 167 163 144 161 147 109 141 166 178 174 178 170 166 157 127 129 221 220 215 223 192 99 126 110 98 56 70 107 145 151 161 153 153 155 155 151 123 133 98 84 76 77 19 39 46 49 64 114 64 66 22 100 84 69 55 53 82 76 99 165 188 175 132 126 109 115 117 108 83 92 86 68 58 78 68 75 90 119 104 110 134 129 161 180 183 188 170 173 164 183 188 175 158 155 150 141 107 132 181 164 154 137 132 131 143 149 158 147 186 219 217 230 163 122 128 111 98 84 98 49 90 151 155 156 158 155 166 153 125 139 107 79 77 93 32 47 44 51 60 103 81 91 22 82 96 51 61 65 80 88 91 162 178 153 121 123 122 120 109 78 70 68 65 62 62 94 86 106 104 111 92 115 118 136 154 166 176 172 170 164 166 172 176 172 159 159 125 85 127 150 153 160 159 150 146 146 142 142 130 125 111 163 179 139 119 125 114 106 108 88 103 102 44 116 150 154 158 163 166 159 132 126 138 76 72 96 59 29 72 37 53 87 107 109 36 48 110 58 50 89 77 88 85 163 174 135 108 99 114 93 98 73 142 154 163 169 178 177 179 188 159 168 157 183 175 147 133 152 159 163 166 170 170 176 166 174 186 115 96 149 143 136 124 132 132 130 131 132 142 151 134 168 153 160 151 145 136 122 111 108 98 92 93 95 97 45 161 153 162 167 163 165 146 120 146 96 61 88 78 27 78 39 50 76 116 117 30 50 93 79 56 74 72 86 91 165 171 100 78 76 84 102 109 116 149 159 169 169 173 166 174 168 169 167 205 222 215 215 184 143 155 165 163 159 157 156 139 163 174 96 140 129 115 112 101 122 144 148 167 178 188 187 180 184 188 188 179 171 165 159 153 145 121 113 98 89 100 37 134 136 154 153 161 166 155 133 147 120 67 74 91 57 67 56 62 66 118 104 58 58 70 79 54 73 56 91 86 122 100 87 101 123 120 148 143 164 165 164 161 156 155 150 149 143 149 145 151 191 202 195 204 170 169 132 169 178 186 177 178 193 204 117 117 114 106 118 136 152 176 176 177 179 183 175 175 178 183 187 182 172 171 168 169 159 151 141 123 101 97 78 224 113 42 105 112 166 164 152 144 136 71 67 76 87 57 77 60 81 104 96 82 65 63 76 60 64 66 72 63 107 126 125 114 146 166 161 155 162 157 151 153 155 155 157 155 152 147 140 122 120 132 121 157 186 89 43 163 181 179 166 190 219 209 100 104 111 130 148 158 162 171 154 138 129 134 133 132 144 141 138 137 147 158 162 163 152 149 146 133 104 84 79 145 65 10 197 53 98 166 168 151 148 92 62 78 69 61 91 63 80 99 102 92 74 105 57 70 66 52 67 124 135 130 125 126 160 178 177 188 184 173 177 178 176 176 179 168 171 165 161 152 141 131 116 89 224 19 69 120 149 148 126 109 138 142 96 94 129 154 154 150 153 130 125 133 131 130 124 107 84 113 81 70 77 85 105 125 142 153 148 139 125 103 95 63 41 74 184 87 49 79 142 160 153 100 58 88 94 43 81 74 85 95 98 104 132 107 51 71 90 29 146 153 118 125 136 160 173 197 201 203 190 173 182 178 167 159 152 145 141 140 127 124 115 118 115 49 232 30 131 189 180 168 164 165 152 113 112 100 141 155 142 139 123 126 124 113 102 104 120 68 53 131 76 41 43 72 67 77 97 133 165 159 157 141 131 70 95 77 106 94 100 62 56 92 129 111 37 96 92 27 71 77 83 108 79 116 134 61 88 46 110 75 178 141 115 130 150 180 190 208 205 201 187 158 149 142 127 127 103 93 115 98 104 104 113 113 116 57 215 34 210 191 170 157 154 163 152 143 141 103 138 157 131 136 136 111 95 104 136 168 162 64 79 77 32 46 50 96 122 68 79 102 109 156 186 170 175 83 126 115 138 121 125 119 97 71 62 62 30 100 81 26 49 102 78 118 79 123 96 63 80 27 122 108 181 127 111 131 152 182 200 207 206 196 141 114 115 103 108 71 79 66 192 36 67 58 88 102 111 132 139 132 218 180 161 156 158 157 156 119 132 142 132 147 163 149 94 113 115 130 158 173 167 105 82 92 93 72 96 115 133 124 125 109 107 112 156 187 195 96 167 133 152 162 168 174 167 157 113 52 49 79 88 19 39 100 76 112 81 103 108 46 101 55 161 127 178 123 115 148 166 189 195 204 191 117 78 95 108 123 150 70 69 76 76 45 89 70 109 140 92 112 109 207 198 167 155 150 153 154 163 128 86 170 121 137 182 135 141 151 150 150 159 156 175 151 151 165 170 153 162 172 169 169 167 156 129 115 120 149 196 119 164 134 167 169 169 181 179 171 157 105 31 69 58 54 27 85 81 89 98 97 112 95 98 24 45 146 173 118 126 148 159 174 182 182 110 74 76 127 137 135 161 106 81 91 87 105 122 118 133 148 135 127 129 214 186 169 152 152 156 156 160 157 90 108 202 147 149 160 172 154 156 157 158 152 176 156 160 179 167 165 167 169 173 179 192 169 161 138 130 132 153 114 132 133 165 165 161 174 180 171 162 139 59 55 48 46 46 71 95 68 118 98 119 127 62 17 5 152 161 121 127 123 134 145 169 125 72 114 133 140 140 138 143 138 139 139 154 160 169 155 156 160 167 153 153 198 175 171 160 149 146 158 163 152 121 106 129 119 133 155 165 145 145 150 148 153 165 170 172 184 180 182 182 180 184 187 179 177 180 175 153 142 171 103 121 133 153 169 161 161 167 173 165 152 93 59 58 35 46 51 79 70 120 106 113 170 40 8 156 136 123 95 109 107 121 156 150 105 105 146 166 164 157 150 152 145 146 145 153 149 151 159 161 160 172 139 173 181 175 163 168 153 152 163 167 151 145 113 103 135 130 135 148 152 143 136 127 138 151 151 158 175 175 172 174 164 166 184 182 187 184 180 180 167 184 85 119 130 137 169 162 160 160 170 166 160 122 77 58 64 46 45 67 79 93 108 90 144 62 47 171 105 78 95 126 132 150 171 141 124 156 177 192 186 167 157 159 160 152 152 146 148 140 145 141 156 164 125 189 175 175 169 162 158 168 169 169 163 148 137 85 129 141 141 137 152 158 154 141 140 146 142 137 137 137 142 150 153 161 166 170 175 176 181 182 171 202 63 146 134 135 164 164 156 169 167 169 166 138 109 61 66 47 38 63 90 59 106 90 98 51 97 119 100 130 159 186 188 187 182 156 160 185 197 197 198 182 171 167 159 148 142 137 130 136 146 153 155 155 121 189 180 177 169 168 165 172 167 172 171 152 142 126 78 137 157 158 159 160 163 167 175 179 185 178 173 175 171 178 179 186 186 187 189 180 175 179 181 180 39 182 124 136 165 181 169 170 169 174 167 154 135 68 62 48 49 61 82 57 95 102 54 95 144 84 82 179 194 200 202 198 179 172 193 202 194 202 197 186 165 155 149 144 138 142 149 163 159 157 153 144 134 193 181 177 170 166 167 170 162 170 171 159 148 129 113 76 161 180 175 171 169 167 177 185 187 185 183 186 188 187 187 190 179 186 183 185 180 185 193 96 115 178 128 135 168 193 177 179 167 177 172 155 139 87 68 57 59 80 65 78 82 87 81 92 139 79 35 184 206 200 198 194 185 198 200 200 204 207 182 177 162 155 153 155 163 166 168 167 165 161 173 128 169 192 183 183 176 171 163 168 162 170 166 170 152 139 131 97 100 188 181 178 179 175 175 179 176 178 174 180 181 178 180 184 174 188 186 181 183 177 113 106 184 163 131 139 170 187 179 180 176 176 175 159 145 96 85 64 63 84 77 91 77 96 93 104 107 95 22 155 212 201 202 193 193 201 203 208 202 199 197 196 196 187 187 184 179 179 179 170 170 178 174 109 195 184 186 181 177 169 160 158 162 169 164 170 166 148 129 141 110 126 183 179 177 178 177 175 174 174 180 176 177 175 171 172 172 176 188 193 161 100 140 183 179 147 131 146 174 185 185 180 183 177 175 163 153 119 72 79 77 76 79 81 92 102 134 108 88 85 39 85 216 203 200 197 197 199 206 199 201 205 204 199 194 187 189 184 175 173 172 171 174 193 123 151 197 185 190 179 181 171 165 160 163 167 164 162 167 143 134 131 166 137 110 144 177 173 174 168 174 173 176 170 159 170 182 193 190 183 185 163 153 177 182 179 162 138 131 152 174 184 186 182 178 178 176 168 161 129 67 85 82 75 83 90 117 121 165 125 94 70 81 25 179 212 199 196 199 198 200 200 203 203 200 186 182 174 176 175 163 171 172 174 186 167 81 189 199 192 191 186 176 169 165 164 161 167 161 159 167 140 130 137 168 182 134 76 134 162 205 206 209 191 180 169 160 177 163 161 158 170 176 180 179 176 171 161 140 132 144 162 181 187 188 180 175 180 174 175 160 140 69 95 94 76 95 120 148 119 176 128 87 77 87 58 69 209 203 195 199 197 199 202 204 198 183 174 166 165 167 169 166 170 179 184 155 90 141 199 199 199 196 190 182 180 174 165 165 162 160 166 161 163 138 156 169 173 175 153 106 84 88 90 99 98 105 104 108 113 105 113 120 124 134 140 138 136 133 133 132 142 161 168 182 192 186 178 183 183 170 179 154 122 98 97 78 94 87 102 140 149 161 144 64 65 80 62 112 123 169 195 202 198 203 204 205 194 170 167 161 166 163 169 172 163 148 107 84 140 197 193 199 202 193 193 187 180 182 168 163 158 162 171 163 160 155 156 169 170 164 174 170 166 158 153 131 137 133 133 137 138 137 139 136 137 148 144 146 146 147 152 154 165 168 188 181 189 185 180 180 179 173 181 154 120 93 96 86 85 80 79 119 138 194 165 81 69 74 51 141 161 108 97 122 149 172 182 190 179 160 157 147 143 129 125 109 96 103 136 163 194 193 189 200 202 194 191 183 185 187 184 170 162 173 178 165 170 155 158 161 165 158 152 163 172 180 188 183 186 187 185 180 185 183 180 177 165 178 171 171 180 173 181 174 172 181 183 185 182 190 182 182 181 175 170 147 121 96 74 95 91 75 77 102 124 193 186 84 77 69 50 140 185 191 188 158 144 124 123 114 112 102 100 90 103 108 126 139 167 186 191 189 192 189 197 201 199 195 196 192 186 195 170 174 165 174 190 178 179 167 168 166 167 157 144 151 166 166 173 182 180 184 187 186 188 186 174 175 175 180 175 179 177 180 183 180 174 187 184 184 189 187 185 187 183 180 163 135 148 86 93 96 96 73 72 93 117 173 200 92 77 58 47 142 183 190 200 199 203 202 197 183 187 177 180 176 182 184 193 193 198 195 184 177 188 193 194 211 201 197 193 188 181 177 159 162 162 159 174 177 189 179 178 177 171 174 142 147 159 164 165 169 169 178 182 185 185 182 182 174 176 176 179 180 178 184 181 181 179 186 183 186 187 186 186 184 186 179 169 136 143 92 94 88 92 78 72 92 101 130 206 123 60 73 54 137 182 189 195 200 195 198 194 197 199 201 199 196 199 195 198 197 198 187 159 171 197 195 186 187 190 183 183 177 163 157 150 148 149 147 142 146 159 170 174 181 180 188 153 130 155 159 159 158 167 171 170 178 182 175 177 178 170 173 175 174 180 185 173 180 176 183 184 184 190 185 188 184 188 177 166 120 120 114 106 81 83 89 65 90 105 120 215 131 46 74 60 134 181 191 197 192 200 203 202 205 202 203 198 199 199 197 193 195 178 167 142 185 200 189 172 165 175 164 172 163 145 141 136 137 141 128 101 85 84 109 131 148 165 189 154 116 152 153 154 159 161 161 162 171 173 173 172 172 172 171 175 177 181 183 179 176 183 185 173 190 186 184 187 184 184 184 171 123 88 124 94 99 69 75 83 78 93 122 212 100 49 80 41 131 182 191 198 199 203 203 202 208 204 203 202 197 199 196 195 181 164 150 139 191 191 164 125 109 156 158 153 139 123 115 115 125 108 61 28 25 27 32 45 103 130 159 98 117 156 165 153 153 154 155 159 162 171 168 176 174 171 175 173 174 178 182 177 184 182 182 182 185 187 186 189 188 185 191 161 103 104 111 84 80 78 75 91 66 93 136 202 98 53 76 52 127 180 191 199 203 198 203 202 208 204 207 201 196 193 196 183 167 152 153 138 170 176 126 62 44 62 111 141 117 89 83 105 122 98 88 42 44 52 65 57 75 104 99 57 147 165 161 157 157 150 148 152 159 163 161 173 174 170 174 171 171 179 185 177 184 180 188 176 182 184 180 188 186 188 187 143 94 123 81 90 79 64 95 84 66 98 167 178 71 76 73 56 130 181 192 196 200 199 197 203 206 207 204 197 202 197 188 170 151 146 147 151 155 165 127 83 86 125 132 114 131 95 75 111 117 98 89 82 96 117 128 137 111 100 96 118 159 158 157 153 166 155 150 153 155 153 160 169 155 165 168 169 173 180 180 176 189 187 180 166 186 186 185 188 186 183 181 129 98 97 89 93 82 72 94 77 67 125 176 163 53 97 78 60 132 184 196 197 197 195 194 203 205 207 200 196 203 190 164 160 151 146 146 167 183 171 147 147 132 163 177 147 137 132 93 86 79 79 96 120 108 114 144 132 146 159 150 142 147 157 160 151 170 157 143 149 150 151 158 154 160 161 165 166 162 182 179 181 181 181 183 175 167 181 178 191 182 179 188 134 103 94 98 85 97 92 71 112 100 160 160 178 48 97 82 60 138 181 198 195 196 193 198 197 203 204 195 193 194 175 160 157 148 144 148 190 201 193 178 154 164 160 139 123 119 123 93 86 91 120 114 129 105 103 111 117 105 141 144 158 151 151 157 157 160 148 150 147 141 151 151 162 156 152 151 165 156 176 182 185 180 177 184 175 167 190 179 191 174 175 180 136 93 116 108 69 99 97 60 101 124 142 154 198 52 83 66 69 126 183 194 198 196 189 197 200 201 201 192 195 188 174 161 154 144 139 178 202 209 200 200 169 151 127 101 115 98 117 104 118 134 135 122 125 121 106 98 106 95 115 112 148 164 145 158 162 143 150 149 150 142 142 144 156 159 148 151 157 166 164 174 185 182 172 189 181 180 187 174 189 176 171 176 139 91 118 113 81 84 77 76 84 126 138 164 161 76 68 81 80 119 176 196 195 196 194 196 194 201 201 195 192 184 168 163 148 144 162 198 206 208 199 195 176 151 125 114 124 118 124 117 97 129 113 121 121 119 141 86 83 102 90 106 115 139 129 145 153 148 126 153 125 152 136 141 149 151 156 138 159 161 151 167 178 183 173 177 179 188 183 176 170 185 175 174 120 106 110 90 98 76 85 83 103 117 135 172 98 46 87 100 66 111 172 188 199 195 192 199 194 200 199 196 189 184 168 160 153 134 195 205 208 198 203 179 176 141 119 109 123 122 111 102 112 128 105 112 99 108 109 103 85 102 78 94 95 122 113 110 143 140 131 131 124 134 155 133 146 150 149 145 147 164 148 158 172 184 176 179 179 182 183 187 156 165 170 173 134 93 111 87 93 88 105 79 95 116 153 134 62 41 85 92 78 99 159 182 198 194 192 196 194 202 197 190 180 174 164 157 141 167 206 196 198 195 181 162 156 134 105 116 118 120 95 106 105 129 113 107 92 102 115 106 96 92 74 99 95 102 108 104 124 123 133 101 116 116 122 143 128 147 153 153 152 151 154 160 172 177 184 174 171 172 173 180 165 168 173 180 128 76 119 83 80 85 93 103 99 153 139 54 64 55 65 89 103 82 139 176 194 191 192 197 196 201 190 189 178 175 161 155 139 198 195 188 178 175 138 158 140 117 100 122 119 100 106 101 92 116 103 103 92 91 105 109 100 91 70 99 88 85 100 97 107 94 105 91 100 106 117 114 130 140 151 151 151 151 150 163 161 176 181 176 168 171 170 167 168 157 160 180 106 88 101 85 84 69 66 99 131 135 67 62 63 54 56 93 122 78 129 174 188 196 191 193 203 193 183 185 174 179 157 141 165 188 179 167 147 146 131 154 118 92 104 98 131 103 95 92 101 106 104 105 93 98 90 85 91 96 91 75 97 73 98 88 113 88 87 87 86 79 106 104 126 123 151 149 139 151 154 166 165 168 173 184 168 162 166 171 168 163 162 172 116 92 70 106 83 61 84 63 154 78 49 81 60 48 68 102 105 85 124 166 188 191 194 189 200 196 182 179 176 170 150 146 151 161 146 137 127 133 125 118 115 98 106 97 125 117 74 97 110 90 118 92 69 93 89 87 87 90 100 84 88 75 100 90 106 78 73 88 73 61 101 83 114 119 129 156 146 139 144 163 160 171 165 182 177 155 165 169 159 163 148 163 117 89 84 86 77 61 91 65 127 65 51 83 83 56 57 75 103 80 110 160 184 187 191 185 190 193 183 170 168 144 160 126 138 138 119 104 107 102 109 124 109 108 87 114 82 107 81 85 94 81 112 78 86 65 98 92 109 95 69 76 86 103 86 88 96 67 61 87 53 52 86 66 98 109 113 151 144 124 144 152 165 163 144 181 178 149 144 170 156 173 125 130 98 68 78 95 68 64 85 85 91 72 55 64 111 49 46 78 103 91 94 157 174 179 181 186 181 183 175 163 162 158 169 115 124 109 109 102 92 95 103 123 106 102 90 103 77 90 87 79 88 97 107 93 116 96 93 99 89 90 60 61 77 88 84 69 93 86 65 70 47 56 48 63 82 101 111 169 138 124 138 140 153 147 145 148 174 130 136 157 158 148 106 97 78 79 52 97 70 71 81 68 74 65 51 52 37 50 51 91 116 97 98 149 169 180 172 190 187 181 172 155 150 176 163 115 127 96 91 100 80 92 111 120 120 106 111 94 95 74 89 79 76 95 105 89 97 75 60 73 48 51 45 42 41 47 54 47 57 61 59 63 45 61 64 73 83 87 94 157 124 126 129 125 140 144 128 124 145 117 128 126 133 133 109 88 53 102 50 85 68 57 70 70 75 63 58 39 36 50 44 94 123 91 88 143 166 176 178 186 186 181 176 155 163 190 133 98 119 81 58 75 55 88 106 119 113 91 84 67 58 55 52 61 56 59 65 47 58 61 60 62 43 41 38 41 49 54 56 61 49 49 50 52 47 67 93 90 91 99 90 118 125 129 113 106 125 121 112 117 126 110 99 106 101 102 87 88 71 62 68 66 66 55 81 58 68 66 51 53 34 46 72 70 119 81 79 126 146 170 167 176 175 177 182 142 181 189 111 119 104 96 60 52 47 62 74 68 58 52 43 33 47 39 61 71 64 63 65 49 60 79 81 69 82 96 111 126 126 127 118 123 112 112 110 114 107 108 105 91 102 85 100 97 114 129 113 72 129 98 125 100 98 123 100 77 99 90 81 93 63 81 79 69 44 70 71 76 47 51 52 44 41 71 63 62 91 90 104 104 136 155 166 178 187 166 173 149 179 165 122 93 106 88 77 47 30 40 48 69 99 116 119 118 121 104 113 110 107 111 120 130 127 132 134 143 134 150 131 146 144 137 122 126 130 131 124 133 133 130 125 78 79 106 76 97 104 128 131 68 94 93 98 88 87 96 100 79 87 83 65 69 79 74 71 49 56 75 68 63 49 46 53 39 44 66 62 66 74 97 97 95 115 133 148 175 178 159 157 130 175 158 111 75 106 92 76 48 61 89 120 142 155 176 181 178 180 158 153 157 154 156 150 163 160 166 161 158 133 144 139 146 149 151 150 133 145 133 135 140 140 132 131 89 62 91 79 90 98 99 133 97 70 82 85 86 69 94 77 95 82 66 57 57 63 73 62 53 51 72 48 55 44 42 48 43 43 48 78 67 77 106 86 81 85 127 129 155 155 145 134 135 163 154 106 87 99 79 95 85 107 120 171 179 175 179 184 180 187 167 162 165 163 162 156 158 161 170 158 147 144 152 151 154 154 154 147 140 137 139 136 145 136 144 143 102 52 86 74 89 102 91 111 115 75 85 65 77 64 97 63 102 60 65 44 82 44 77 41 58 67 56 46 50 48 36 45 45 37 59 69 63 76 103 73 73 83 109 125 130 105 124 121 123 153 141 105 101 92 81 92 111 138 136 177 185 184 189 189 186 185 171 162 163 162 163 160 158 164 161 152 148 148 150 146 147 149 143 145 136 138 133 144 145 136 142 141 115 61 84 76 104 82 96 82 101 66 82 58 67 56 87 54 95 47 81 40 87 42 44 50 50 70 33 46 52 39 39 43 41 40 73 57 48 49 83 67 67 79 91 94 104 105 121 99 98 146 134 116 104 89 92 88 131 150 147 187 188 172 170 183 174 176 167 162 162 153 147 141 149 136 141 129 132 133 140 146 131 137 135 140 138 138 140 145 138 136 121 121 126 67 72 87 101 79 85 67 81 76 59 66 61 61 61 38 79 63 56 76 55 74 56 50 72 79 33 58 45 42 41 39 44 43 66 53 52 54 62 63 67 75 93 83 86 89 100 96 99 109 109 110 94 63 112 84 144 136 173 194 184 186 175 174 146 162 160 161 154 143 121 137 128 132 121 125 127 128 121 140 130 129 129 135 128 124 144 146 135 134 124 95 117 84 65 61 80 83 81 72 62 69 64 81 52 56 58 43 71 48 51 67 54 61 73 55 54 74 47 44 32 44 38 38 46 43 55 57 48 58 70 70 59 68 89 86 68 88 90 95 98 86 103 105 99 73 81 101 141 139 184 196 187 191 174 172 152 160 167 156 133 138 124 130 114 130 121 108 115 124 119 113 124 115 124 130 127 131 139 143 128 136 121 91 101 97 72 54 43 92 92 61 59 54 63 63 66 50 54 47 49 48 67 63 63 45 64 59 55 43 68 42 36 36 42 40 44 35 61 55 47 63 61 67 66 70 68 80 69 78 99 86 99 73 100 98 98 89 54 119 126 143 191 195 190 185 169 171 161 152 155 144 129 124 118 124 113 112 127 110 110 114 105 108 107 114 106 125 128 136 137 142 134 127 133 100 95 98 82 56 62 59 71 67 56 61 57 61 45 58 45 57 55 52 67 55 62 57 47 60 57 50 70 45 33 35 43 44 42 42 58 55 55 61 57 60 67 55 57 68 64 74 101 74 89 72 89 80 81 102 63 112 120 137 182 191 185 180 155 167 166 150 145 129 126 112 130 103 103 96 110 102 92 96 95 92 114 112 98 124 127 136 134 139 132 113 126 105 90 80 65 52 72 65 57 59 48 67 48 42 40 61 51 55 46 74 59 53 52 50 53 59 44 53 52 40 42 32 42 43 46 42 51 55 55 60 55 59 67 51 49 55 57 79 77 66 67 69 75 71 88 79 79 112 125 121 168 187 173 162 162 159 151 146 146 123 121 105 130 102 94 93 85 97 80 75 79 88 97 119 113 123 131 134 142 119 119 119 96 107 91 69 50 61 53 61 51 52 62 57 41 46 26 42 61 51 26 68 48 61 67 42 59 58 36 49 38 39 44 38 38 35 45 44 53 53 68 58 46 68 64 53 54 45 55 86 77 55 70 54 66 71 83 69 68 106 114 126 147 168 157 149 157 160 148 147 147 121 125 99 133 97 90 82 83 78 65 72 67 83 83 110 125 131 123 137 146 121 103 115 95 85 78 81 50 60 47 41 51 35 57 64 36 41 41 43 39 54 32 60 54 54 67 58 86 38 40 34 34 44 43 40 38 38 43 48 57 46 59 51 46 61 68 64 60 41 64 72 77 43 62 50 51 67 72 65 59 84 105 113 123 137 153 144 151 153 153 154 134 139 141 137 132 103 117 116 104 93 95 78 103 114 117 123 141 147 134 141 150 135 114 101 94 76 58 68 51 46 47 35 53 34 57 45 34 29 40 38 43 47 48 49 47 58 40 85 114 50 35 32 30 42 48 42 37 37 43 42 51 49 51 55 49 53 67 71 50 51 76 70 69 54 46 56 55 68 74 71 51 88 72 98 106 121 131 133 146 138 153 179 167 157 162 165 151 112 120 134 132 112 129 123 109 128 130 130 124 147 142 144 119 133 113 102 92 99 67 70 52 41 35 53 41 45 53 55 27 38 36 32 36 31 41 41 45 43 44 101 131 25 45 29 33 45 47 42 41 32 45 45 56 56 48 53 53 44 56 76 40 73 73 59 63 49 52 55 67 62 59 63 67 67 64 88 107 93 123 141 126 121 127 156 159 162 140 167 154 138 121 135 148 138 132 140 131 122 131 119 119 119 135 122 102 99 129 67 90 90 95 54 64 60 45 48 39 56 43 61 24 44 29 41 38 45 33 33 56 48 61 109 136 27 38 30 33 41 46 41 38 37 42 45 53 57 50 50 50 48 46 49 62 72 54 63 63 44 52 49 63 53 50 40 85 55 64 87 108 77 102 107 99 94 138 138 149 170 132 154 146 130 132 119 119 146 133 135 149 106 134 115 100 107 111 105 101 76 133 52 81 97 99 33 66 37 54 66 33 42 47 56 36 32 36 29 48 49 41 49 50 78 103 112 145 47 26 35 29 41 46 44 37 42 43 44 53 54 49 47 49 50 44 49 55 64 68 77 60 28 72 54 44 48 43 47 63 55 72 69 79 81 89 86 84 103 130 100 141 145 115 148 140 143 138 124 114 125 134 134 135 118 117 105 105 111 107 82 107 76 125 71 57 110 75 57 56 46 26 46 39 37 37 46 37 26 51 28 44 42 57 49 76 102 115 122 152 53 25 33 37 37 43 43 43 36 42 42 55 50 51 51 43 50 43 51 52 62 58 49 70 43 62 43 45 56 46 50 43 53 76 60 78 95 94 73 82 99 115 104 135 124 112 138 128 129 128 122 106 127 122 121 105 105 92 94 97 109 105 66 114 76 124 70 89 96 40 91 50 56 43 32 34 43 29 40 42 28 38 23 49 47 54 55 91 116 127 129 145 66 23 32 31 38 41 41 43 40 36 44 54 50 52 50 47 46 41 54 55 58 56 45 53 63 55 39 48 50 58 58 41 41 73 69 88 90 75 79 84 78 97 114 119 115 105 118 108 117 107 102 104 106 98 112 104 83 86 77 83 84 103 75 86 100 115 58 86 79 56 59 38 61 50 38 31 30 34 24 35 35 22 21 38 49 54 100 104 113 133 132 151 70 26 30 31 36 43 37 46 36 37 41 56 47 57 50 49 46 45 52 50 59 46 53 52 56 50 44 43 51 58 30 63 29 57 74 87 79 64 80 72 75 97 104 102 100 79 111 99 106 98 84 86 94 113 103 86 90 90 79 80 81 108 91 68 130 100 73 49 80 79 31 56 67 45 22 33 22 33 38 22 45 14 60 33 47 103 119 125 133 129 120 151 77 22 35 30 34 41 42 40 39 41 33 61 48 56 52 50 47 45 44 51 52 48 44 76 41 44 40 40 54 50 28 41 50 51 77 66 91 66 88 76 91 77 67 89 93 71 114 97 101 77 76 80 88 93 83 61 81 76 80 77 101 88 113 68 102 74 88 17 74 90 38 48 55 54 35 35 21 31 32 37 23 31 65 24 78 107 128 126 132 136 130 135 106 22 37 33 28 39 41 43 43 32 41 56 47 53 53 53 50 45 45 48 58 42 54 50 45 47 50 45 48 41 46 37 50 61 66 88 80 59 74 87 83 55 80 69 83 79 85 83 81 55 65 95 51 67 70 62 65 60 67 94 89 95 104 77 80 56 67 52 68 72 49 60 43 42 35 34 28 25 29 42 23 33 57 43 101 115 120 131 132 135 130 129 111 19 45 38 36 33 37 44 39 32 40 58 50 51 50 52 50 43 43 48 52 53 44 35 47 67 56 48 53 46 36 58 52 66 53 99 71 66 58 56 85 62 74 62 76 69 79 70 56 60 80 69 42 55 76 65 72 69 48 89 91 103 50 74 93 56 35 76 71 53 58 53 47 37 30 29 25 26 22 44 24 33 80 58 114 126 120 132 136 137 124 130 122 9 22 47 59 36 38 37 42 30 38 53 57 52 48 53 50 39 48 45 43 57 51 42 53 53 61 49 69 43 36 55 33 57 68 50 80 71 50 41 64 53 67 67 54 59 69 61 53 70 58 58 40 48 66 62 54 70 46 56 87 82 49 67 68 57 50 57 52 57 43 45 35 38 32 32 30 28 25 37 33 47 97 98 115 136 123 133 136 128 128 123 133 4 21 27 27 61 54 36 39 34 39 53 52 52 50 47 49 42 48 47 43 49 38 71 43 58 52 46 58 62 44 55 47 59 69 34 79 75 68 28 58 54 50 57 55 47 52 61 53 88 44 43 37 36 83 42 46 63 59 48 81 60 69 34 68 58 73 38 37 63 23 44 46 20 26 28 34 27 23 28 44 74 100 110 120 128 128 133 134 123 123 118 152 6 15 26 24 25 49 69 45 34 41 53 53 46 49 48 50 46 47 49 40 45 47 67 35 52 50 36 49 74 55 53 44 53 55 43 73 76 47 30 47 48 50 49 50 43 53 56 43 85 45 37 37 42 48 39 44 58 61 45 81 60 63 27 59 51 63 58 38 54 27 41 54 21 25 24 36 25 23 63 65 101 103 101 119 120 122 117 118 128 129 118 157 23 16 26 24 29 20 45 86 46 37 47 53 47 52 45 48 46 46 43 40 46 43 44 45 41 56 44 37 75 42 44 53 42 53 72 59 57 26 47 50 38 49 36 28 32 60 40 50 70 56 43 50 40 18 55 37 36 55 43 45 49 61 52 48 48 45 85 56 59 29 34 36 37 24 25 32 42 50 96 94 109 105 107 118 123 121 107 113 134 120 111 152 41 11 25 25 24 29 29 48 113 44 43 52 47 49 42 46 44 46 43 46 45 35 43 41 41 38 40 57 67 40 24 59 56 49 60 38 49 26 57 43 44 65 31 27 32 44 59 42 60 37 45 57 43 17 53 30 40 42 43 36 61 58 53 56 46 65 83 88 61 16 36 26 32 43 32 56 56 75 106 105 107 116 112 113 127 121 128 128 131 109 120 149 71 8 24 23 27 25 32 38 59 125 43 53 48 48 45 46 40 42 42 42 43 39 47 43 44 40 51 41 72 56 23 51 71 53 61 30 85 32 69 41 29 60 45 19 42 40 47 53 40 29 39 59 36 26 48 45 49 39 44 51 38 48 33 67 61 54 69 101 48 21 29 19 37 45 68 75 65 95 97 112 111 112 117 102 130 122 130 133 129 113 123 142 90 9 20 23 25 28 35 45 50 111 58 55 56 57 46 63 60 63 71 72 75 74 82 78 83 76 71 68 107 54 31 49 44 61 54 49 69 43 43 48 32 28 53 29 27 49 37 38 41 29 35 48 33 24 25 43 41 45 44 58 25 40 55 69 51 44 51 55 35 31 34 35 65 86 96 93 87 98 105 112 109 107 125 108 121 122 131 130 128 113 122 133 99 9 19 23 26 28 38 49 60 84 104 106 101 98 97 94 101 102 98 95 92 89 91 80 88 75 47 89 109 41 34 36 20 43 59 62 44 69 36 38 47 23 48 41 19 44 42 23 58 33 19 33 29 37 19 30 33 52 40 57 38 43 47 61 45 45 29 30 47 43 58 60 105 106 104 103 97 104 110 107 106 104 117 110 123 123 130 134 127 107 125 132 95 6 15 27 24 26 43 50 73 64 115 115 108 104 104 104 110 105 105 100 92 84 84 73 72 66 28 111 100 49 34 21 19 23 86 83 67 64 51 29 51 51 29 65 25 30 36 27 46 24 37 26 28 42 15 40 28 60 23 51 56 25 37 49 34 46 26 38 57 60 77 87 99 99 103 101 106 103 108 95 110 105 116 122 118 119 130 134 125 113 125 136 92 8 12 21 24 34 43 58 70 68 117 121 120 102 102 106 106 107 109 101 81 77 61 71 54 53 24 127 88 47 33 18 10 14 77 118 95 83 70 52 29 71 33 70 23 37 28 32 39 27 28 22 39 38 33 33 16 54 39 28 45 30 20 40 43 41 42 54 77 87 98 86 101 100 103 98 106 96 96 91 114 112 114 117 116 129 130 134 122 118 122 142 72 6 15 19 31 35 41 66 70 73 125 119 122 108 100 96 95 117 108 92 73 57 45 57 50 42 40 133 89 45 40 14 14 11 51 127 119 127 105 99 46 85 62 47 39 52 31 28 38 26 21 24 42 21 40 40 19 23 29 41 35 14 32 36 52 52 56 70 86 87 99 84 104 94 101 102 100 95 104 119 119 123 116 122 132 128 133 133 125 120 127 143 48 10 11 19 29 45 44 73 77 71 