P2
92
112
15
3 3 3 3 3 3 3 3 3 3 3 3 2 4 3 3 3 2 4 4 2 2 2 3 2 2 2 5 2 3 3 3 2 3 2 2 2 4 3 3 3 4 3 3 4 2 2 2 2 2 2 2 2 3 3 3 2 2 3 2 3 2 2 2 4 3 3 3 3 3 3 3 3 2 3 3 2 3 3 3 2 3 2 2 2 2 2 2 3 2 2 2 3 2 3 3 3 3 3 3 2 3 3 3 4 4 3 3 3 1 7 3 2 3 3 3 2 2 2 4 3 3 3 3 2 3 3 3 4 5 4 5 4 5 5 5 5 5 3 3 3 2 3 3 2 3 2 3 2 2 2 2 2 3 2 3 3 3 3 3 3 3 3 3 3 3 3 2 3 3 3 3 3 2 3 2 3 2 3 2 3 3 2 2 3 3 3 3 3 3 3 4 3 3 3 3 4 3 3 3 3 1 6 3 2 2 2 3 2 3 2 4 3 3 3 3 3 4 4 5 5 5 5 5 6 6 6 6 6 6 5 5 5 4 4 4 3 3 3 3 3 2 3 3 2 2 2 2 2 3 3 3 3 3 3 3 3 3 4 2 3 4 3 3 3 2 3 3 3 2 3 2 3 3 2 3 2 3 3 3 3 3 3 3 3 3 3 3 3 3 3 3 3 2 3 4 2 2 2 2 2 3 3 3 3 3 4 5 5 6 6 6 5 6 7 6 7 7 6 7 7 7 6 6 6 5 5 4 4 4 3 3 3 2 3 3 2 2 2 2 4 3 3 2 3 3 3 4 3 3 4 3 3 4 2 3 3 3 3 4 3 3 3 2 3 3 2 2 3 3 3 3 3 3 3 4 2 3 2 3 2 3 2 3 2 2 2 3 3 2 2 2 2 2 2 3 3 4 6 6 6 6 7 7 7 7 7 7 7 7 7 7 7 7 7 7 6 6 5 5 5 5 4 3 3 3 3 3 3 3 2 3 2 3 2 2 3 3 2 4 3 3 3 3 4 3 3 3 3 3 3 3 3 3 3 2 3 2 2 3 3 3 3 3 3 3 3 3 3 2 2 2 3 3 3 3 2 2 2 2 2 2 2 2 3 2 3 5 5 6 7 6 6 7 7 7 7 7 8 7 7 7 7 7 7 7 7 7 7 6 6 5 5 5 5 4 4 3 4 3 3 3 3 3 2 2 3 3 4 3 2 3 3 3 3 3 4 4 3 3 4 3 3 3 2 3 2 3 3 2 3 3 3 3 3 3 3 3 3 2 2 3 2 3 2 2 3 2 2 2 2 2 2 2 2 2 3 4 5 6 6 6 6 7 7 7 8 7 8 7 8 8 7 8 8 7 7 7 7 7 7 7 7 7 6 6 6 5 5 4 5 4 3 3 4 3 2 3 3 2 3 3 2 3 3 3 3 3 4 3 3 3 3 3 3 3 3 3 3 3 3 2 3 3 3 3 3 3 3 3 3 3 3 3 3 3 2 2 2 2 2 2 1 2 2 2 2 3 5 6 6 6 7 6 7 7 7 7 7 7 8 7 8 8 8 7 7 7 7 7 7 7 7 7 7 6 6 6 6 6 5 6 5 5 4 4 3 5 2 3 2 3 2 2 2 3 2 3 3 2 4 3 3 3 3 3 3 3 4 3 3 3 3 3 3 3 3 4 3 3 3 3 3 3 2 2 3 2 2 2 2 2 2 1 2 3 2 2 4 6 6 6 6 6 6 7 7 7 7 7 7 7 8 7 8 8 8 7 7 7 7 8 7 7 7 7 7 7 6 6 6 6 6 6 6 6 5 4 5 5 5 3 2 2 3 2 3 3 3 2 2 3 3 3 3 3 3 2 4 3 4 3 3 3 3 3 3 3 3 3 3 3 4 4 2 2 2 2 2 2 2 2 2 2 2 2 3 2 2 5 6 6 6 6 6 6 7 7 7 7 7 7 7 8 7 7 8 8 8 8 8 7 8 8 7 7 7 7 7 7 7 7 6 6 7 6 6 6 5 5 5 5 6 4 3 2 2 3 3 2 3 2 3 3 3 3 3 3 4 3 4 4 3 3 3 4 2 3 3 2 5 4 3 3 4 3 3 2 3 2 3 2 2 2 3 3 2 2 3 4 6 7 7 6 6 6 6 7 7 7 7 8 8 7 8 7 8 8 8 8 8 8 8 8 8 8 7 8 8 8 7 7 7 7 7 7 6 7 6 6 6 5 5 5 5 6 3 4 2 2 3 3 2 2 3 2 3 3 3 4 4 3 3 4 3 3 4 3 3 3 3 2 6 3 4 3 3 3 4 2 3 3 2 2 3 2 2 4 2 3 4 6 7 7 7 6 7 7 7 8 8 8 8 9 8 8 8 8 8 8 8 9 9 8 8 8 8 8 8 7 8 8 7 7 7 7 7 7 7 7 7 7 6 6 6 6 6 6 5 4 4 3 2 3 3 2 3 2 3 3 2 4 3 3 2 4 2 3 4 3 3 3 3 3 4 5 3 3 3 4 3 3 3 3 2 3 3 3 2 3 3 5 7 8 7 7 7 7 7 8 8 8 9 8 9 9 8 8 8 8 8 8 9 8 9 9 8 9 8 8 8 8 8 8 8 8 7 8 8 7 7 8 7 7 7 7 6 6 6 6 6 5 5 4 3 2 2 3 2 2 2 2 3 2 3 3 3 3 3 3 4 3 3 3 3 3 4 6 3 3 3 4 3 3 2 2 3 2 3 2 3 3 5 7 8 7 8 7 7 8 7 8 9 9 9 8 9 9 9 8 8 9 8 9 9 9 9 9 9 9 9 8 8 8 8 8 8 8 8 8 8 8 8 8 8 7 7 7 7 6 6 7 6 5 6 5 4 3 2 2 2 2 3 2 2 3 3 3 3 3 3 3 3 3 3 3 3 3 3 8 3 2 3 3 3 3 2 3 3 2 2 2 3 5 7 8 7 8 8 8 8 8 8 9 9 9 9 9 9 9 9 9 9 9 9 9 9 9 9 9 9 9 9 9 9 9 8 9 9 8 8 8 8 8 8 8 8 8 8 8 8 7 6 7 6 6 6 6 5 4 3 2 3 1 3 2 2 3 2 5 3 3 3 3 3 3 3 3 4 3 4 6 5 3 3 3 3 3 2 3 3 2 2 3 4 6 8 8 7 8 8 9 8 8 9 9 9 9 10 9 10 9 9 9 10 9 9 9 9 9 9 9 9 9 9 9 9 9 9 9 9 9 9 8 8 9 8 8 8 8 8 8 8 8 7 7 7 7 7 7 6 5 5 3 2 2 3 2 2 3 3 4 3 2 3 3 3 4 3 3 3 3 5 4 5 4 2 3 2 2 3 2 2 2 3 4 6 8 8 8 8 8 9 9 9 8 10 9 10 10 10 10 10 10 10 10 10 10 9 10 9 10 10 10 10 10 9 9 9 9 9 9 9 9 9 8 9 9 8 9 8 8 8 8 9 8 8 7 7 7 7 7 7 6 6 4 3 3 3 2 2 2 3 3 4 3 3 3 3 3 4 3 3 3 5 4 5 4 4 3 2 3 3 2 3 3 4 7 7 8 8 8 8 9 9 10 9 9 10 9 11 11 10 10 10 10 10 10 11 10 11 10 10 11 10 10 10 10 10 10 10 10 9 9 9 10 9 10 9 9 9 9 9 9 9 9 8 9 9 8 8 7 8 7 7 7 6 6 5 3 3 2 2 3 3 3 4 3 3 3 3 3 3 3 3 3 4 4 4 4 4 3 2 3 3 3 3 3 7 7 8 8 9 9 9 10 10 10 9 9 10 10 11 11 11 11 11 11 11 11 11 11 11 11 10 11 11 11 10 10 10 10 10 10 10 10 10 10 11 9 9 9 9 9 9 9 9 9 9 9 9 8 8 8 8 8 7 7 7 7 6 3 4 2 2 3 2 2 4 3 3 3 3 4 3 3 3 3 3 4 4 3 3 3 3 3 3 4 3 6 8 8 9 9 9 9 9 10 10 10 10 8 10 10 11 11 11 11 11 12 11 11 11 11 11 11 11 11 11 11 11 10 10 10 11 10 11 10 10 10 11 10 10 9 10 10 9 9 9 9 9 9 9 9 9 9 8 8 8 7 7 7 6 4 5 2 3 2 2 3 3 3 3 3 3 3 3 3 3 3 4 3 4 3 3 3 3 3 3 5 5 8 8 9 9 9 9 10 9 10 10 10 10 9 10 10 11 11 11 12 11 12 12 11 11 11 11 11 11 11 11 12 11 10 11 10 11 11 11 10 10 10 10 10 10 9 10 10 9 9 9 9 9 9 9 10 9 9 9 9 8 7 7 7 7 6 5 3 2 2 2 3 3 3 3 3 3 3 3 3 3 3 4 3 3 3 2 3 3 4 5 5 7 9 9 9 9 9 10 10 9 10 10 11 11 10 11 10 11 12 11 12 12 12 11 11 12 11 12 11 11 11 12 12 11 10 11 10 10 11 11 10 10 10 10 10 10 9 9 10 10 9 9 10 10 9 10 10 9 9 9 9 9 8 7 7 8 6 6 3 3 2 3 3 3 3 3 2 3 2 3 4 3 3 4 4 3 2 4 4 4 4 5 6 8 9 9 8 10 10 10 10 10 10 10 11 11 11 11 11 11 11 11 11 11 11 11 11 11 11 12 10 11 11 12 12 11 11 11 10 11 11 11 11 10 10 10 10 10 10 9 9 10 10 10 10 9 10 10 9 10 9 9 9 8 9 7 7 7 8 7 5 4 2 4 3 3 2 4 2 3 2 2 3 5 3 4 3 2 4 4 4 4 4 5 7 9 9 9 9 10 10 10 10 10 11 11 11 11 11 11 11 11 11 11 11 11 11 11 11 11 11 11 11 11 11 11 11 11 11 11 10 11 11 11 10 11 10 10 10 10 10 10 9 10 10 10 10 9 10 10 9 10 9 9 9 8 9 8 7 7 9 7 6 5 2 5 3 2 2 4 4 3 3 2 4 4 3 4 3 3 4 3 4 4 4 6 8 9 9 9 9 10 10 11 11 10 11 11 11 11 11 12 12 11 11 11 11 11 11 11 11 11 11 11 11 11 11 11 11 11 10 11 10 11 11 11 11 11 10 10 10 10 10 10 9 10 10 10 10 10 10 10 10 10 10 8 9 9 9 8 8 8 8 7 6 6 4 4 3 3 2 3 4 4 3 2 4 4 4 3 3 5 4 4 4 4 4 6 9 9 9 10 10 10 11 11 11 11 11 11 11 11 11 12 11 11 11 11 11 11 11 11 11 11 11 11 11 11 11 11 10 11 10 10 10 11 11 10 11 11 10 10 10 10 10 10 10 10 10 10 10 9 10 10 10 10 10 9 9 9 8 9 8 8 8 8 7 6 5 5 4 3 2 3 6 3 5 4 3 4 3 2 4 4 5 4 4 4 5 7 9 10 9 10 10 11 11 11 10 11 12 11 11 11 11 11 12 11 11 11 11 11 11 11 11 11 11 11 11 11 11 11 10 10 10 10 10 10 10 11 10 10 10 10 9 10 10 10 10 10 10 10 10 10 10 10 10 10 10 9 10 9 8 9 9 9 8 8 8 6 6 4 5 2 2 3 8 3 6 3 3 4 3 4 5 4 5 3 4 4 5 8 9 10 10 10 10 11 11 11 11 11 12 11 11 11 12 12 12 12 11 11 11 11 11 11 11 11 11 11 11 11 11 10 10 10 10 10 10 10 10 11 10 10 10 10 10 10 10 10 10 10 9 10 10 10 10 10 10 10 10 9 10 9 9 9 9 10 9 8 8 6 7 5 4 3 2 5 8 3 5 3 2 4 2 5 5 3 4 4 5 4 6 8 9 10 10 10 11 11 11 12 11 11 12 11 11 11 11 12 12 12 11 12 11 11 11 11 11 11 11 11 11 11 11 11 11 10 10 10 10 10 10 11 10 10 10 10 10 10 9 10 10 10 10 10 10 10 10 10 10 10 10 10 10 9 9 10 9 10 9 8 8 8 6 8 3 5 2 6 6 4 4 3 3 4 2 5 6 2 4 4 4 4 7 8 9 10 11 10 11 11 12 12 12 11 11 12 11 11 11 12 11 11 12 11 11 11 11 11 11 11 11 11 11 11 11 11 11 11 10 10 10 10 9 11 11 10 10 10 10 10 10 10 10 10 10 10 10 10 10 10 10 10 9 10 10 9 10 10 10 10 10 9 8 8 7 8 4 4 3 6 6 6 4 3 3 3 3 4 5 2 4 4 4 5 7 8 9 10 11 11 11 12 12 12 11 11 11 11 11 11 11 11 11 11 11 11 11 11 11 11 11 11 11 11 11 11 11 11 11 11 11 10 10 10 9 11 11 10 10 10 10 10 10 10 10 10 10 10 10 10 10 10 10 10 10 10 10 9 10 10 10 10 11 9 8 9 8 7 5 4 5 4 5 6 4 2 4 3 3 4 4 4 4 3 4 5 7 8 9 11 11 11 11 12 12 12 11 11 11 11 11 10 10 11 10 10 9 9 9 10 11 10 10 10 10 11 11 11 11 12 11 11 11 11 10 10 10 12 11 11 10 10 10 10 10 10 9 9 9 9 10 9 9 9 10 9 9 9 10 9 9 10 10 10 11 10 8 10 8 7 6 5 5 4 6 5 3 2 4 3 4 4 3 5 3 4 4 5 7 8 8 10 11 11 12 12 12 12 11 11 10 10 9 9 9 9 9 7 7 7 6 8 8 8 8 8 8 9 10 9 10 11 11 11 11 11 11 10 9 12 11 11 10 11 10 10 10 10 9 9 9 8 9 9 8 9 8 8 8 8 9 9 9 9 10 10 11 11 8 10 9 7 7 5 3 6 5 6 2 3 3 5 2 5 2 4 3 3 4 4 7 8 8 11 12 11 12 11 12 11 10 9 8 7 6 7 8 8 7 6 5 6 5 4 5 6 6 6 6 6 9 9 8 11 11 11 12 11 11 10 10 12 11 11 10 11 11 9 9 8 8 7 7 7 7 7 6 7 7 7 7 7 7 8 8 8 9 10 10 11 9 10 9 7 7 5 4 6 6 5 2 3 2 5 3 4 2 3 4 4 3 4 7 8 8 11 11 11 11 12 11 10 8 7 8 6 6 7 7 6 5 5 4 5 4 3 3 4 4 4 5 5 6 8 8 9 11 11 11 11 11 10 9 11 11 11 10 10 10 9 8 6 7 6 5 4 5 4 4 4 4 4 4 5 6 6 7 7 7 9 9 11 10 10 10 8 7 5 5 6 7 3 2 2 2 5 5 5 3 4 4 4 3 4 6 8 9 10 11 11 11 11 10 10 7 6 6 6 6 6 6 4 4 4 3 4 3 3 4 3 4 4 6 5 5 7 8 8 10 11 11 11 10 9 9 11 11 10 10 9 10 8 7 6 5 5 5 3 3 3 4 3 2 4 3 3 3 4 5 6 6 7 9 10 11 10 10 9 7 5 5 5 7 3 2 2 2 6 8 4 5 4 4 4 4 4 6 8 10 9 11 11 11 11 10 8 6 5 5 6 6 5 3 2 4 4 4 3 3 3 4 4 4 5 6 7 6 6 8 8 9 10 10 10 10 9 9 11 10 10 9 8 9 8 8 6 4 4 3 3 3 3 3 2 2 2 3 2 3 3 3 5 4 6 7 10 11 10 10 9 7 5 5 4 7 3 2 2 1 8 8 4 4 4 4 5 5 4 6 9 10 9 11 11 11 11 8 7 7 5 6 5 5 6 4 9 13 12 13 10 7 6 6 5 4 5 6 6 7 8 8 9 9 10 10 10 9 9 10 10 10 10 9 8 8 6 6 6 8 7 7 7 5 4 3 3 3 3 3 2 3 2 2 4 4 4 6 8 11 10 10 10 8 5 4 5 6 3 2 2 2 9 9 3 5 3 4 5 6 3 7 10 10 10 11 11 11 10 7 7 6 6 6 7 7 8 8 9 12 11 11 10 10 9 9 8 7 7 7 6 5 5 7 9 10 10 10 10 10 10 10 9 10 10 9 9 8 7 14 13 13 9 8 7 6 7 7 7 8 8 7 6 6 5 5 5 4 3 4 5 9 10 10 10 8 5 4 6 6 4 2 2 4 8 8 6 3 4 4 4 6 5 7 10 11 10 11 11 11 6 5 6 7 8 9 10 9 9 10 10 10 10 9 9 8 8 8 8 9 9 9 8 7 7 5 5 9 11 11 10 10 10 10 10 10 10 10 8 10 7 9 9 8 8 9 9 9 10 9 9 9 9 9 8 7 8 7 6 6 4 5 5 4 5 9 11 8 5 4 5 7 4 2 3 4 8 8 7 7 3 3 2 6 6 7 10 11 10 11 12 7 4 8 8 9 10 10 10 9 9 9 8 8 8 8 7 7 7 6 6 6 6 7 7 6 6 6 6 4 11 11 11 10 11 10 10 10 11 10 12 7 7 7 7 9 9 8 8 7 7 6 6 6 6 7 6 7 8 8 7 6 6 6 5 6 5 4 8 9 6 3 5 7 5 3 3 4 7 9 4 8 6 3 2 5 6 7 10 11 11 11 11 3 7 8 9 10 10 10 10 9 10 10 10 11 11 11 10 9 9 8 8 7 7 6 6 6 5 4 6 4 10 12 13 13 11 8 8 8 9 10 10 5 6 8 7 7 6 7 7 8 9 8 8 8 8 7 8 8 8 8 8 8 7 6 6 6 7 8 3 10 5 3 5 6 5 4 4 4 6 8 6 4 7 4 4 5 4 8 10 11 11 12 7 5 8 8 9 10 10 10 11 11 11 11 10 9 8 8 7 7 6 7 6 6 6 6 7 7 6 6 5 4 9 7 10 11 5 5 5 4 2 5 7 6 7 6 5 6 8 8 8 8 9 9 10 10 10 10 9 9 9 10 9 10 9 8 6 6 6 8 5 7 7 3 6 5 6 5 4 5 6 7 8 6 6 3 4 4 3 9 11 12 12 13 5 8 9 9 9 10 11 11 12 11 9 7 6 6 5 4 7 4 3 4 5 6 6 6 6 7 7 7 6 6 5 4 6 9 9 9 8 7 6 4 7 6 5 5 6 7 7 7 7 7 8 8 8 7 8 8 9 10 10 10 10 11 10 8 7 7 5 7 7 6 8 3 6 4 5 6 4 5 5 7 7 6 7 3 4 4 2 7 10 10 8 9 6 8 8 8 8 9 10 11 10 6 4 4 5 5 3 4 5 3 2 4 3 6 5 6 6 8 7 7 7 8 4 6 10 11 11 10 9 9 10 3 6 4 4 5 6 6 7 7 7 6 3 8 6 4 4 4 5 6 8 9 10 10 10 8 7 7 5 6 9 5 5 0 8 4 4 6 5 6 6 6 9 5 6 5 6 4 1 5 12 15 2 2 4 7 6 6 7 9 10 8 5 3 5 7 7 8 4 4 4 2 4 5 4 9 8 6 6 6 9 8 9 7 4 9 11 11 10 9 9 9 8 6 5 3 3 6 6 5 5 7 8 3 2 7 3 1 3 1 4 4 4 5 7 9 8 7 6 6 4 5 7 4 1 1 14 9 3 6 5 7 5 6 8 8 5 3 5 4 2 1 6 13 1 5 5 7 6 6 8 10 7 5 6 8 9 9 9 9 7 6 7 5 6 6 7 10 9 8 9 8 8 11 11 7 3 12 12 10 10 9 9 10 9 4 4 3 6 5 6 5 7 11 11 4 4 4 2 2 4 2 7 9 2 4 5 6 8 7 6 6 4 4 4 4 2 1 12 7 2 5 5 8 4 8 6 8 6 3 3 3 2 2 7 11 8 13 7 9 8 9 11 9 6 8 10 11 11 11 11 11 10 10 8 10 9 9 9 9 9 9 9 10 10 11 12 6 6 13 11 10 9 9 9 10 10 4 4 4 6 6 8 8 9 10 10 8 6 6 5 4 5 5 8 8 4 6 5 5 7 9 8 8 7 6 7 4 8 2 5 6 3 5 5 7 5 7 5 8 6 3 3 2 1 8 11 11 11 12 6 10 10 11 11 8 8 10 12 12 12 12 11 12 10 10 9 9 9 9 9 9 9 9 9 9 11 11 10 4 10 12 11 11 9 9 9 10 11 7 2 8 5 10 10 10 11 11 11 10 9 8 9 8 8 9 10 10 10 11 8 6 6 9 10 10 9 9 11 3 12 0 3 5 5 4 6 5 6 7 4 6 6 3 2 1 3 11 11 11 11 11 4 10 10 10 10 9 11 11 12 12 12 12 12 12 11 11 10 10 9 8 8 8 8 7 9 9 11 10 8 5 12 11 10 10 10 10 9 9 11 10 2 7 5 9 9 9 10 10 10 10 10 8 10 9 9 9 10 10 11 12 10 8 7 7 10 11 11 11 12 2 13 3 1 4 5 4 5 5 8 8 5 4 5 3 3 2 6 11 12 11 11 10 4 10 10 10 11 11 12 12 11 11 12 12 12 12 11 10 9 9 8 8 7 8 8 9 10 10 10 11 5 9 12 11 10 10 10 10 9 9 11 11 7 3 6 7 8 8 8 8 9 10 10 10 11 10 10 10 10 11 12 11 11 10 8 9 8 9 10 11 12 1 13 4 1 4 3 4 4 5 8 8 6 4 4 5 4 3 7 11 11 10 10 11 3 9 10 11 11 12 12 12 12 12 12 10 10 10 9 9 9 8 9 9 9 10 9 10 10 10 11 10 4 11 11 11 11 10 10 10 10 10 11 11 9 2 7 7 8 9 9 8 8 8 8 9 9 10 10 10 10 10 11 11 11 11 10 9 10 10 11 12 12 2 13 6 1 4 2 4 4 6 7 9 5 5 4 5 4 5 9 10 11 11 10 13 3 9 10 11 12 12 12 12 12 12 11 11 11 11 10 11 11 11 11 10 10 10 10 11 11 11 12 6 8 12 11 11 10 11 10 10 10 11 11 11 10 6 3 10 9 9 10 9 9 9 8 8 8 8 8 9 9 9 10 11 11 12 11 11 11 11 11 12 9 5 13 8 2 3 4 3 4 5 7 7 5 5 4 4 3 5 9 10 11 11 10 13 6 8 11 11 12 12 12 12 12 12 12 12 12 12 12 12 12 12 11 11 11 11 11 11 11 12 10 5 11 11 11 11 11 10 10 10 10 11 11 11 11 8 2 7 11 10 10 10 11 11 11 10 10 10 10 10 10 11 11 11 11 11 11 11 11 11 11 13 5 9 12 9 3 3 3 4 3 5 6 4 5 5 5 5 3 5 9 9 11 11 11 12 10 4 11 12 12 11 12 12 12 12 12 12 12 12 11 12 12 12 11 11 11 11 12 11 11 11 5 10 11 11 11 11 11 11 11 10 10 11 11 10 11 9 5 3 11 11 11 11 11 11 11 11 11 11 11 11 11 11 11 11 11 11 11 11 11 11 11 12 3 12 11 10 5 3 4 4 4 5 6 4 6 5 4 6 5 5 10 9 11 11 11 11 13 4 8 12 12 12 12 12 12 12 12 12 11 11 11 11 11 12 11 11 11 11 11 10 11 7 8 12 11 11 11 11 11 11 11 10 10 10 11 10 11 11 6 6 5 12 11 11 11 11 11 11 11 11 11 11 11 11 11 11 11 11 11 11 11 11 12 6 8 11 11 10 5 4 4 5 5 5 4 4 8 6 4 5 5 5 10 10 10 11 12 12 12 11 3 8 12 12 12 12 12 12 12 12 12 11 11 11 11 11 11 11 11 10 11 10 8 5 12 12 11 11 11 11 11 11 11 10 10 10 10 10 10 11 8 7 6 6 11 11 11 11 11 11 11 11 11 11 11 11 11 11 11 11 11 11 12 11 9 7 12 11 11 10 5 5 4 5 5 5 4 4 9 8 5 5 4 6 9 11 10 11 12 12 12 11 10 7 5 11 12 12 12 12 12 11 11 10 10 9 9 10 10 11 11 10 9 7 6 11 12 11 11 11 11 12 11 12 11 10 10 10 10 10 10 10 9 6 10 6 4 8 10 11 11 11 11 11 11 11 11 11 11 11 11 11 11 9 8 6 9 12 12 10 11 11 6 5 5 5 7 4 4 4 10 8 4 7 5 6 9 11 10 11 12 12 12 12 11 10 11 9 9 10 10 11 12 12 11 11 10 10 11 11 11 11 11 7 6 8 11 12 12 11 11 12 12 12 11 12 12 10 10 10 10 10 10 10 9 6 9 11 8 5 5 6 7 8 8 9 9 9 9 9 8 7 6 6 6 7 9 11 12 12 12 11 10 11 7 4 5 6 8 3 5 4 10 6 5 6 5 6 9 10 10 11 11 12 12 12 11 11 10 11 10 9 8 7 7 7 7 6 6 7 7 7 8 9 9 10 11 11 11 11 11 11 11 12 12 12 12 12 12 10 10 10 10 10 10 11 9 8 9 10 10 9 7 6 6 5 5 5 6 6 6 7 8 9 10 11 12 11 12 12 12 12 12 11 10 11 8 4 6 7 7 5 3 5 11 6 6 6 4 6 9 10 11 11 11 12 12 12 12 11 11 11 11 10 11 11 11 11 11 11 11 11 11 11 11 11 12 11 10 10 11 11 11 11 11 12 12 12 12 12 12 10 11 10 10 10 10 11 10 9 10 10 9 10 10 9 8 7 7 7 6 7 7 7 8 9 10 11 11 11 11 12 12 12 12 11 10 11 8 4 5 9 8 5 3 3 9 6 6 5 4 7 8 10 11 11 11 12 12 12 12 12 12 12 12 12 12 12 12 12 12 12 11 12 11 12 11 11 10 10 9 10 11 11 12 11 12 12 11 11 12 12 12 11 11 10 10 10 12 12 11 10 10 11 8 9 10 10 11 10 10 10 10 10 10 9 9 10 10 10 11 11 11 11 11 11 11 11 10 11 9 3 4 8 10 5 3 6 10 6 5 6 3 7 8 10 11 11 11 12 12 12 12 12 12 12 12 12 12 12 12 12 12 12 11 11 11 11 11 10 9 8 7 11 12 11 12 12 12 12 12 11 12 12 11 11 10 10 10 11 11 11 11 11 10 10 9 8 9 9 10 10 10 10 10 11 11 11 11 11 11 12 12 11 11 11 11 11 11 11 10 10 8 4 4 5 10 7 4 6 12 5 5 6 4 7 9 11 11 11 11 12 12 12 12 12 12 12 12 12 12 12 12 12 12 11 11 11 11 10 9 8 8 9 9 12 12 12 12 12 11 11 11 11 10 11 11 10 10 9 9 10 10 10 11 11 11 11 9 8 8 9 9 9 10 10 10 10 11 11 11 11 12 12 12 12 12 11 11 11 11 10 11 11 8 5 4 4 7 9 4 6 12 6 4 6 4 6 8 11 11 11 12 12 12 12 12 12 12 12 12 12 12 12 12 12 11 11 11 11 10 9 9 8 8 9 9 12 12 11 11 10 10 10 10 10 9 10 9 9 9 9 8 8 8 8 8 9 10 11 9 7 8 8 9 9 9 9 10 10 10 10 11 11 12 12 12 12 12 11 11 11 11 11 10 11 7 6 5 4 5 6 6 5 11 6 4 5 5 6 8 11 11 11 11 12 12 12 12 12 12 12 12 12 12 12 12 11 11 11 11 10 9 8 8 8 8 10 9 11 10 8 6 5 4 6 9 10 9 9 8 8 7 7 7 8 5 4 5 7 8 10 8 6 8 8 9 9 9 9 9 10 10 10 11 11 11 12 12 12 11 11 11 11 11 11 10 11 7 5 5 4 5 5 6 4 10 7 5 5 5 5 8 9 11 11 11 12 12 12 12 11 12 12 12 12 12 11 12 11 11 11 10 9 9 8 8 8 9 10 11 7 8 6 4 4 5 3 5 7 9 8 7 5 5 7 6 3 2 2 2 3 6 9 4 6 8 8 8 8 9 9 9 9 10 10 10 10 11 11 12 12 11 11 11 11 12 11 11 11 7 6 4 4 6 5 4 3 9 10 4 6 5 6 7 10 11 11 12 12 12 12 12 12 12 12 12 12 11 11 11 10 11 10 9 8 8 8 7 9 10 10 11 10 7 7 7 9 9 9 7 5 7 7 4 4 6 7 6 4 7 9 5 5 7 7 5 7 8 8 8 8 9 9 9 9 9 10 10 11 11 11 12 11 12 11 11 11 12 11 11 11 5 6 4 3 5 5 3 2 6 9 5 4 6 6 6 10 11 10 11 12 12 12 12 12 12 12 11 12 11 11 11 11 10 10 9 8 8 7 8 10 10 11 11 12 10 9 10 10 10 9 7 7 6 7 5 5 5 4 5 5 6 9 7 7 7 8 8 9 9 8 8 8 9 9 9 8 9 9 10 10 10 11 12 11 11 11 11 11 11 11 11 10 5 5 5 3 5 4 3 3 2 8 6 5 6 6 5 9 11 9 10 12 12 12 12 12 12 12 12 11 11 11 11 10 10 10 8 8 8 8 9 10 11 12 11 12 12 10 11 10 8 7 7 6 6 5 4 3 3 3 4 4 5 6 6 7 8 9 9 10 10 9 8 7 8 8 8 9 8 9 9 10 10 11 11 12 11 11 11 11 11 11 10 10 5 4 5 5 6 4 2 2 2 6 8 7 6 7 5 8 11 9 10 11 12 12 11 12 12 12 12 11 11 11 10 10 9 9 8 8 7 9 10 11 12 12 11 12 11 10 10 9 7 6 7 6 6 7 4 3 4 3 5 5 6 5 6 6 8 9 10 10 11 10 8 7 7 8 8 8 9 8 8 9 10 10 11 11 10 11 11 10 11 11 10 9 4 5 5 5 5 4 2 3 2 4 7 7 5 6 5 8 10 9 10 12 11 12 12 12 12 12 11 12 11 10 10 9 9 8 8 7 8 10 11 11 12 11 11 11 9 11 10 8 6 6 8 6 7 7 4 6 5 5 7 6 6 7 4 6 7 7 9 9 11 11 9 8 7 7 8 8 9 8 8 8 9 9 11 11 10 11 11 11 11 11 9 9 4 5 6 5 4 4 3 3 3 3 5 6 6 7 5 8 10 9 10 11 11 11 12 12 12 11 12 11 10 10 10 9 9 8 7 8 9 11 10 11 10 11 10 9 9 10 8 7 6 7 7 7 6 5 5 7 6 5 6 6 6 8 3 6 5 7 8 7 9 10 9 9 7 7 7 8 9 8 8 8 9 9 10 11 11 10 11 11 10 10 10 7 5 5 5 4 5 4 2 3 3 2 5 7 7 7 6 6 10 9 10 11 11 12 12 12 11 12 11 11 10 10 9 9 9 8 7 8 10 10 10 9 8 11 8 7 10 8 8 5 6 7 7 7 5 6 5 8 6 6 6 5 7 6 5 6 5 5 7 7 7 8 9 8 7 7 7 8 8 8 8 7 10 9 9 11 10 10 11 11 10 9 10 7 5 4 4 6 6 4 2 3 3 2 5 8 7 6 6 6 10 9 10 11 11 11 11 11 11 11 11 11 10 9 9 9 8 8 7 8 8 8 9 8 7 9 7 7 8 8 5 5 6 6 7 5 5 5 5 6 6 5 4 5 6 6 6 6 4 6 6 7 7 8 7 7 7 7 6 7 8 8 8 8 9 9 9 10 10 10 10 10 10 9 10 5 5 4 4 5 5 3 2 2 2 4 5 8 7 6 5 5 10 10 10 10 11 11 11 11 12 11 11 10 10 8 9 8 8 7 6 8 7 7 7 7 7 8 6 8 6 7 5 6 5 5 7 6 4 5 6 5 6 5 5 5 5 4 7 6 5 5 6 6 6 7 6 6 5 8 6 5 8 9 8 8 9 9 9 10 11 11 9 10 9 8 10 5 5 5 4 4 5 3 2 2 4 4 4 7 6 6 5 6 8 9 9 10 11 10 11 11 12 11 11 9 9 8 8 9 9 6 7 7 6 6 5 5 7 6 5 7 6 5 7 5 5 6 5 7 3 4 6 4 6 5 4 5 4 5 4 5 6 5 3 6 5 6 5 5 6 5 7 6 6 9 8 8 9 9 9 10 10 10 9 9 9 9 9 5 4 5 3 4 4 3 2 2 4 2 4 7 5 5 5 6 6 9 9 9 10 10 11 10 11 11 11 10 9 8 9 10 8 6 7 6 5 5 5 5 6 5 6 6 6 6 7 5 4 5 3 6 4 4 4 5 5 5 4 4 4 6 5 5 6 5 4 6 5 5 5 4 6 4 6 6 5 8 9 8 7 9 9 10 10 11 9 9 9 8 9 5 4 5 3 5 4 2 2 3 3 1 6 5 5 5 5 6 5 7 8 8 11 9 10 11 11 10 10 10 8 8 10 11 7 5 6 5 4 3 4 4 4 6 6 7 7 6 6 7 5 4 4 4 4 3 5 6 5 6 5 5 5 5 4 4 4 5 5 5 5 3 3 5 2 3 5 5 4 7 9 7 8 9 10 10 9 11 9 8 9 9 7 2 4 6 3 5 4 2 2 3 2 4 4 5 5 4 6 6 5 6 6 8 9 8 10 11 11 10 10 10 8 8 11 9 6 5 6 5 3 3 2 3 4 4 5 5 5 4 3 4 4 3 3 3 4 3 4 4 5 4 4 4 3 4 2 3 2 3 4 3 4 3 3 2 2 3 4 5 5 6 9 7 7 9 9 9 8 10 8 8 9 7 5 4 3 4 4 4 3 2 2 2 3 4 3 5 6 5 6 5 5 4 6 7 8 8 8 10 11 9 9 8 7 9 10 8 6 4 5 5 4 1 2 2 3 3 3 3 3 3 2 2 2 1 4 3 3 3 2 2 4 3 3 3 1 2 1 1 1 2 1 1 1 1 2 1 2 4 4 5 5 5 8 7 7 8 8 8 7 8 7 8 7 7 4 5 4 4 3 3 3 2 2 2 3 3 3 5 5 3 5 5 5 4 6 7 7 8 8 8 8 8 8 7 7 8 10 7 6 3 5 5 2 3 6 6 6 7 7 9 9 7 7 7 5 4 5 4 4 4 2 4 4 3 3 4 4 4 5 6 6 6 4 3 2 2 2 2 3 6 5 5 6 6 7 7 7 6 8 7 7 7 6 6 6 4 7 3 5 3 5 3 2 2 2 2 3 2 3 3 4 4 4 3 4 4 4 5 5 7 7 6 7 6 7 6 7 8 10 6 5 4 5 3 4 7 8 8 9 9 9 10 10 10 10 10 9 8 8 8 8 8 7 8 8 7 7 8 8 8 8 10 11 9 7 6 6 5 5 5 6 5 6 4 5 6 6 7 6 5 7 6 7 6 6 5 5 3 6 3 3 4 3 3 2 2 2 2 3 2 3 3 3 5 5 3 4 4 4 4 4 6 5 6 5 6 7 6 5 9 8 6 5 4 4 4 5 9 9 9 9 10 11 11 10 11 10 10 9 10 10 10 9 10 9 10 9 10 9 9 8 9 9 9 11 10 10 9 7 8 7 5 7 5 4 6 5 5 6 7 6 5 6 5 6 5 6 6 4 3 4 5 4 2 4 2 2 2 2 3 2 3 3 3 4 4 4 3 4 5 3 4 5 6 5 5 4 6 6 5 6 6 8 6 6 4 3 6 6 9 9 9 10 10 10 10 11 10 10 10 10 10 10 10 10 9 9 9 9 9 8 8 8 9 9 10 10 10 10 9 7 8 7 6 7 4 4 5 3 5 5 5 7 4 4 5 5 3 5 5 5 2 4 2 4 3 3 3 2 2 2 2 3 3 3 3 4 3 3 4 4 3 4 3 4 5 5 4 4 5 5 5 6 4 7 5 5 3 4 6 8 9 9 10 10 11 10 10 10 11 10 10 10 10 9 9 9 9 10 8 8 8 8 9 8 9 9 9 9 9 9 9 8 7 7 8 7 4 5 5 3 5 5 5 6 5 4 5 4 4 4 4 3 3 3 2 4 2 3 2 2 2 2 2 3 3 3 3 3 3 4 4 4 3 3 3 4 4 4 3 4 5 5 5 5 4 6 5 6 3 3 6 8 9 9 10 11 10 10 10 10 10 8 9 9 9 9 9 8 7 8 8 7 8 7 7 8 8 8 8 9 8 9 8 9 7 7 6 7 5 4 5 4 5 5 5 6 5 4 4 4 3 3 5 5 3 3 3 3 3 2 2 2 2 2 3 2 3 4 3 3 4 4 3 3 4 3 3 3 3 3 3 3 5 5 3 5 4 5 4 5 4 2 7 8 9 9 10 11 11 10 11 9 10 8 9 9 9 8 8 8 6 8 7 7 7 7 7 8 8 8 8 8 8 8 8 8 7 7 6 5 6 3 4 4 5 5 4 5 4 3 4 4 3 2 4 4 4 4 3 3 2 2 3 2 2 2 2 3 3 3 3 3 3 5 3 4 4 3 3 4 2 2 3 4 4 4 3 4 4 5 3 3 4 4 6 8 8 9 10 10 10 11 9 9 10 8 8 8 8 8 7 7 6 8 6 7 6 6 7 8 8 7 8 7 7 8 7 8 7 7 6 5 4 4 3 3 5 4 4 4 3 3 4 3 3 3 3 3 3 2 4 2 3 2 3 2 2 2 2 3 3 3 3 2 3 5 3 3 3 2 3 3 1 4 4 4 4 2 3 4 3 4 4 4 2 5 6 7 7 9 9 10 9 10 9 9 9 8 8 8 7 7 7 6 7 5 7 6 7 5 7 6 7 6 7 6 7 7 7 7 7 7 6 4 4 4 4 3 3 5 4 3 3 3 4 4 3 3 2 3 2 3 3 3 2 2 2 2 2 2 2 3 3 3 3 2 3 4 3 2 3 3 3 3 3 4 3 4 4 2 3 3 2 3 4 3 3 5 6 6 7 8 9 9 8 8 9 8 9 7 8 8 6 6 5 7 6 4 7 3 6 5 5 6 6 6 6 5 6 7 7 7 7 6 6 4 4 3 3 3 3 3 4 2 4 2 4 3 2 2 3 3 3 3 3 3 2 2 2 2 2 2 2 3 2 3 3 2 3 3 3 3 3 3 3 4 3 3 3 4 2 2 3 2 3 2 4 3 4 3 5 5 6 7 7 8 8 8 8 8 8 7 8 8 7 6 4 7 6 4 5 4 4 4 4 5 5 5 6 5 6 7 7 6 7 6 6 4 3 2 3 2 3 2 2 2 4 2 3 2 2 3 3 3 3 4 3 3 2 2 2 2 2 2 2 2 3 3 2 3 3 3 3 3 3 3 4 4 3 3 3 3 3 2 3 3 3 3 3 4 4 4 4 4 5 6 7 6 7 8 8 8 8 8 8 8 8 7 6 6 6 5 4 4 4 3 4 6 4 4 6 6 7 7 7 6 6 6 4 4 4 3 3 2 2 3 2 4 2 3 2 2 3 3 2 3 3 3 3 3 2 2 2 2 2 2 2 2 3 3 2 3 3 3 2 4 3 3 4 3 3 3 2 3 2 3 3 2 4 3 2 3 4 5 3 4 5 7 6 5 7 8 7 7 8 9 10 8 9 8 8 7 6 7 6 6 5 6 5 7 7 6 6 7 7 8 8 7 7 5 4 3 4 3 2 2 1 3 1 3 2 2 2 3 3 2 3 2 4 3 3 2 2 2 2 2 2 2 2 3 3 3 3 3 3 3 3 4 3 3 3 2 3 3 3 2 3 3 2 2 3 2 2 2 3 4 3 4 5 6 4 5 6 6 7 7 7 8 9 9 8 9 9 8 7 6 8 7 7 7 7 7 8 8 6 8 8 8 7 7 6 5 4 4 4 3 2 2 1 2 2 4 2 2 2 1 2 2 3 3 3 3 3 2 2 2 2 2 2 2 2 2 2 3 3 3 2 2 3 2 3 3 4 3 2 2 3 2 3 3 2 2 2 3 2 2 3 2 3 4 4 4 4 5 5 5 4 6 7 8 7 9 9 8 9 8 8 7 8 7 9 7 8 7 7 8 7 7 8 6 5 6 6 4 3 7 2 4 3 1 2 2 2 3 2 2 2 1 1 2 3 2 3 2 3 2 2 2 2 2 2 2 2 3 3 3 3 2 2 2 3 2 3 3 4 2 2 3 2 3 3 2 2 3 2 2 2 3 3 2 3 4 4 3 5 5 4 5 5 5 8 6 7 8 8 7 9 8 8 7 7 6 8 7 8 9 6 9 5 6 6 6 5 5 6 5 2 6 2 4 2 4 3 3 3 4 1 1 2 2 2 2 2 3 2 2 3 2 2 2 2 2 2 2 2 3 3 3 3 2 2 2 3 3 3 2 3 2 2 2 2 3 2 2 2 2 2 3 2 2 3 2 3 4 4 5 4 4 4 4 5 4 6 6 7 8 6 6 8 8 8 7 7 6 7 7 7 8 6 8 6 5 6 5 5 5 6 5 3 6 3 3 2 2 2 2 3 3 2 2 1 3 3 3 1 4 2 3 2 2 2 2 2 2 2 2 2 3 3 3 3 3 2 2 2 3 3 2 4 2 2 3 2 3 2 1 2 2 2 3 2 1 2 2 2 4 4 5 3 4 4 5 4 3 5 6 6 7 6 6 6 7 6 7 7 5 6 6 6 6 6 6 5 5 6 6 4 5 7 5 3 5 5 2 2 1 1 2 2 2 2 2 2 3 3 3 2 2 2 2 2 3 2 2 2 2 2 2 2 2 3 3 3 3 3 2 3 3 4 3 4 4 2 2 2 3 2 2 2 2 2 3 2 1 2 3 3 3 4 4 3 4 3 5 3 4 5 4 5 6 6 4 6 6 5 5 5 5 6 4 7 6 5 4 4 3 7 6 3 6 6 4 6 2 4 3 2 3 1 2 1 3 2 1 2 2 4 2 2 2 2 2 2 2 2 2 2 2 2 2 2 3 3 3 3 2 2 2 2 5 3 2 3 4 2 2 3 2 4 2 3 3 2 2 2 2 3 3 3 2 4 4 5 3 3 5 3 5 4 4 4 5 5 4 7 5 5 4 5 4 5 5 6 5 4 5 3 4 6 7 2 7 5 3 6 2 2 3 2 2 1 2 2 2 2 2 2 2 2 2 2 2 2 2 2 2 2 2 2 2 2 2 2 3 3 3 3 3 2 2 6 3 3 1 3 3 2 2 4 3 2 3 2 4 2 2 2 2 2 3 4 2 2 5 4 3 2 5 2 4 4 3 3 5 5 3 5 4 4 3 5 3 4 5 4 4 4 5 2 7 5 7 3 6 5 3 3 5 2 3 4 1 1 1 2 1 2 2 2 4 2 2 2 2 2 2 2 2 2 2 2 2 2 2 2 3 3 3 3 2 2 6 5 2 1 2 1 3 1 1 3 4 3 4 2 2 3 2 2 2 2 3 3 4 2 4 5 2 3 3 1 5 3 3 2 4 4 3 4 3 2 4 3 4 3 3 4 3 4 4 1 7 5 5 5 5 3 4 3 5 3 3 2 2 2 2 1 3 3 2 1 1 4 3 2 2 2 2 2 2 2 2 2 1 2 1 2 2 3 3 3 2 3 7 4 1 1 1 1 1 1 2 2 5 3 3 2 2 3 2 2 3 2 2 5 3 1 3 4 3 3 2 1 5 2 2 3 3 3 3 3 3 2 4 2 3 2 3 4 3 4 4 1 6 5 4 5 4 2 3 4 3 4 3 1 2 1 1 2 5 5 2 1 1 2 5 3 2 2 2 2 2 2 2 2 2 2 2 2 3 3 3 4 2 7 7 3 1 1 1 1 1 1 2 4 6 3 3 3 2 3 3 3 2 2 4 2 3 2 2 5 3 2 1 2 4 1 3 2 3 2 3 3 2 4 3 2 2 3 3 4 2 2 4 2 3 6 3 4 4 2 2 4 2 3 2 2 1 2 1 4 5 8 3 1 1 1 2 6 4 3 3 2 2 2 2 2 2 2 2 2 6 6 6 6 5 8 6 3 2 1 1 1 1 0 2 5 6 4 5 5 3 4 1 3 3 3 3 1 2 3 2 2 3 2 1 2 3 2 2 2 2 2 3 1 3 5 2 2 1 3 2 4 1 2 4 2 2 5 2 4 2 3 1 3 2 2 2 1 1 2 4 5 5 8 2 0 1 1 1 4 7 5 5 5 5 5 4 3 3 2 2 2 7 7 6 3 6 8 6 4 1 1 1 1 0 0 1 6 7 4 6 7 4 6 2 3 4 2 2 2 3 2 1 3 3 2 3 2 3 2 2 2 1 3 2 2 2 3 3 2 2 2 1 3 2 1 5 2 4 4 3 3 2 3 2 1 2 2 3 2 1 4 6 5 7 8 2 0 1 1 1 2 5 6 4 4 5 6 4 4 5 6 5 4 6 6 5 3 8 7 5 4 2 0 0 1 0 1 0 5 8 7 6 7 5 5 3 3 2 2 2 1 3 1 4 3 3 2 3 2 3 2 2 2 1 2 2 2 2 2 2 3 2 1 2 3 2 2 3 1 4 3 3 2 3 4 3 1 2 1 3 2 3 7 7 7 7 8 2 0 1 1 1 1 4 7 5 5 5 5 3 5 5 6 5 4 6 6 4 3 9 7 5 5 2 0 1 1 0 1 0 4 8 7 7 8 6 5 3 3 2 2 2 1 3 2 4 1 2 2 1 1 3 1 1 3 2 1 2 2 2 1 1 4 2 1 3 2 2 2 2 2 4 3 3 2 4 3 4 1 2 2 5 3 5 7 7 7 7 7 1 1 0 1 1 1 4 6 6 5 5 5 4 5 5 6 6 5 6 6 3 5 9 7 5 5 3 0 1 1 1 1 1 2 8 8 7 8 8 6 5 4 3 3 3 1 3 1 4 2 2 1 2 0 3 2 1 3 1 2 1 2 2 1 1 2 2 1 2 2 3 2 2 1 3 3 4 1 4 2 5 1 2 4 5 5 6 7 7 8 7 5 0 1 0 1 1 1 4 5 7 5 6 4 4 5 5 5 5 6 6 5 3 8 9 8 6 5 4 0 1 0 1 1 1 1 6 8 8 8 8 6 6 6 5 5 3 2 2 1 3 2 2 2 3 0 3 2 1 2 1 2 1 2 2 1 1 2 2 1 1 2 3 2 2 1 3 3 3 2 4 2 4 3 4 6 6 5 7 7 7 8 7 2 0 1 1 1 1 2 3 5 7 6 5 4 4 4 5 5 6 6 6 4 7 9 9 8 7 5 5 1 1 1 1 1 2 1 4 8 8 8 8 7 8 7 7 6 5 3 2 2 2 3 2 2 2 1 4 2 2 1 1 1 2 2 1 2 1 1 2 1 2 3 2 2 2 1 4 2 4 1 3 4 5 4 5 5 7 6 7 6 7 8 5 0 0 1 1 2 2 2 3 6 6 8 5 3 4 4 4 5 5 6 