P2
92
112
255
48 48 55 52 53 51 63 49 53 52 49 58 45 69 53 57 53 43 65 73 44 44 46 51 44 39 33 81 44 48 49 63 47 50 46 37 37 70 49 49 53 64 61 59 73 38 44 45 41 38 37 47 46 52 51 55 43 44 52 42 51 45 47 47 74 51 50 54 61 60 53 61 50 41 57 49 45 59 53 49 46 52 47 47 45 46 47 45 49 44 46 47 51 47 54 52 52 51 55 62 47 55 50 54 66 73 54 60 62 21 118 51 43 49 48 52 42 46 38 77 56 61 61 48 45 49 55 55 65 90 69 81 79 89 84 88 81 82 59 57 52 44 49 48 46 49 47 48 46 37 45 42 46 52 37 53 51 62 55 62 57 54 63 60 55 52 62 46 50 62 63 52 51 45 54 43 50 43 48 43 49 48 47 47 49 56 50 55 50 50 51 65 52 54 61 50 69 62 53 57 56 31 107 49 43 45 45 49 42 59 41 64 60 57 58 55 60 73 79 86 83 93 88 91 107 111 98 106 109 105 88 84 90 77 75 65 59 57 48 48 48 39 48 48 37 44 41 45 47 61 49 58 59 63 52 57 56 55 74 47 53 65 58 57 57 46 49 51 52 46 48 46 51 48 46 48 47 54 52 52 51 48 52 63 53 55 53 54 60 60 49 51 48 42 54 64 39 39 37 38 46 51 53 55 49 55 67 81 85 98 99 102 94 109 115 111 118 123 111 121 117 122 107 109 102 92 83 74 67 65 54 50 52 45 48 49 41 39 41 44 75 49 51 44 58 48 49 66 50 51 78 59 59 66 46 63 52 52 50 64 48 48 48 47 49 48 45 46 54 49 50 48 51 57 52 67 47 53 40 60 46 62 46 49 46 37 47 50 49 36 36 39 39 46 45 55 60 79 97 103 96 105 112 116 112 116 118 124 115 119 121 117 120 123 121 116 104 104 93 89 80 80 67 56 58 52 54 51 52 55 47 55 46 49 41 46 60 56 39 66 48 56 62 60 73 61 54 60 63 51 56 63 48 48 49 46 50 47 47 48 56 54 54 59 60 55 53 60 50 42 47 47 48 55 54 50 43 41 45 35 36 47 42 35 49 41 61 81 83 101 112 110 105 115 118 120 126 120 128 125 123 123 127 121 125 121 121 118 115 111 104 95 92 94 94 77 72 56 69 59 58 58 57 56 44 36 54 50 68 52 46 54 51 51 51 56 70 67 51 58 65 52 54 63 46 50 46 52 49 45 49 49 57 51 57 56 53 52 49 47 46 51 47 56 42 42 59 39 38 34 41 32 37 33 40 42 50 73 90 100 103 104 107 117 112 125 128 121 134 126 133 129 126 128 128 120 119 122 124 116 114 112 113 113 104 97 97 92 91 74 81 64 61 54 66 57 44 57 49 46 61 50 40 54 48 52 52 52 68 58 60 59 60 62 63 54 54 51 53 52 50 44 52 49 52 58 57 53 55 55 50 52 52 50 52 51 38 42 43 42 40 32 26 42 42 36 38 61 88 99 105 104 112 104 115 118 116 121 117 127 134 119 128 132 131 127 124 117 114 117 119 124 115 115 113 110 105 105 108 105 91 97 92 87 69 67 60 86 42 58 47 54 40 45 43 56 39 55 51 42 68 50 53 63 58 56 62 54 68 54 51 53 53 50 50 50 50 67 57 57 57 56 59 54 40 38 52 41 33 36 42 37 43 25 43 52 32 45 78 98 110 101 109 107 109 116 125 116 120 118 119 127 130 125 129 133 130 126 123 126 123 128 122 121 121 121 117 116 110 103 110 102 108 102 104 96 81 70 87 83 83 63 42 47 61 44 52 51 49 41 45 57 56 53 50 56 62 41 75 52 66 53 51 52 51 53 52 54 62 59 62 55 65 68 34 46 40 36 45 40 33 32 39 37 45 43 52 47 44 89 108 105 104 107 107 106 119 123 119 118 125 123 126 128 125 125 132 136 132 130 130 126 130 132 123 127 126 119 119 120 118 119 107 110 115 110 109 100 87 84 84 80 109 77 57 44 47 50 61 43 53 43 48 58 60 50 48 61 69 51 70 66 49 57 53 64 47 52 48 47 81 71 56 57 65 60 57 42 53 37 50 40 38 36 48 54 38 45 48 71 99 112 114 102 105 107 110 120 121 121 117 135 132 127 133 123 135 130 141 139 138 135 130 132 132 134 124 129 130 129 122 126 119 122 118 115 111 118 109 108 104 93 92 95 92 100 63 66 44 45 49 54 43 36 50 45 54 54 52 69 70 59 53 64 53 54 65 52 49 49 49 44 104 61 66 58 53 60 70 43 57 49 46 43 48 41 39 64 43 54 78 111 123 114 119 105 114 118 127 130 138 128 135 147 135 135 140 137 133 134 142 144 145 141 141 136 137 131 141 125 131 138 127 126 125 122 127 122 115 119 115 117 105 104 100 100 97 100 87 79 68 53 34 48 48 43 57 44 54 49 45 65 58 56 44 74 41 60 65 54 52 49 53 50 78 82 63 56 54 70 60 60 56 54 42 48 48 50 35 54 60 83 117 129 124 118 118 120 119 134 142 133 146 138 151 148 143 133 140 142 136 130 146 143 146 148 140 146 139 137 140 133 140 139 133 130 127 130 135 125 122 128 122 118 117 114 108 97 103 102 102 91 83 70 50 32 39 53 34 44 46 40 50 47 58 53 56 61 48 56 74 57 60 48 48 51 65 105 58 49 60 65 60 62 46 42 56 37 51 39 48 52 84 117 132 126 130 127 127 134 125 142 145 145 147 143 149 145 145 141 141 150 143 146 150 150 152 150 151 147 149 142 143 142 141 143 139 131 139 133 135 133 129 128 130 125 121 123 121 110 107 113 105 94 98 85 76 48 36 39 38 40 51 44 45 48 55 54 60 55 56 55 56 58 63 57 51 51 62 137 61 46 58 61 60 59 35 50 55 46 43 41 49 81 119 140 127 132 130 138 136 137 131 151 148 151 153 156 152 148 148 148 147 155 152 150 151 159 156 153 154 153 154 150 147 146 143 145 144 138 142 139 139 141 135 134 133 133 129 128 128 125 104 121 111 103 108 105 84 71 56 38 51 29 58 39 44 50 40 80 63 52 53 51 61 57 59 62 64 58 72 96 87 48 56 50 51 48 37 51 49 38 35 54 79 106 136 134 127 134 137 153 141 142 144 157 156 154 162 158 160 154 155 154 160 157 157 150 155 158 154 159 156 159 155 156 153 152 144 148 156 147 145 141 142 146 140 139 138 134 135 129 134 135 113 121 116 115 112 117 104 86 81 57 38 47 52 42 37 48 52 72 61 40 55 55 51 75 61 61 61 63 90 66 92 64 46 53 47 45 51 46 40 47 49 79 107 128 133 129 132 138 148 158 158 141 160 151 165 173 170 161 165 162 160 162 163 168 158 161 159 165 161 167 163 162 153 159 159 150 156 150 153 156 152 142 147 153 142 146 142 142 141 135 146 137 135 123 127 118 119 116 113 108 99 76 54 48 56 39 41 44 54 62 67 58 50 54 49 58 70 60 57 60 87 78 82 64 64 51 38 51 59 35 61 51 74 115 123 129 136 143 134 149 152 162 157 151 163 159 176 183 170 173 175 172 172 171 179 173 177 166 168 179 171 167 164 165 165 162 160 161 159 154 153 165 152 160 148 152 149 151 151 149 147 146 142 150 145 133 132 127 129 121 115 118 106 104 80 49 54 38 40 50 49 58 68 55 52 55 54 58 59 63 57 60 65 75 74 65 66 48 47 51 48 61 53 60 121 124 132 139 147 145 148 162 163 165 153 145 171 165 178 180 180 182 184 185 183 182 180 183 183 183 173 181 184 180 171 173 163 168 169 160 165 161 160 164 177 154 151 155 156 158 151 154 152 147 147 152 154 142 137 134 133 131 123 116 115 116 97 53 75 33 45 62 41 43 67 52 61 60 51 68 59 52 52 57 53 74 74 60 56 52 51 48 55 70 54 99 133 136 145 146 148 154 155 165 165 169 170 139 172 171 180 184 184 187 189 193 189 183 182 180 185 182 176 181 191 184 177 172 167 167 179 171 177 163 167 164 180 162 162 157 162 165 156 159 151 153 153 153 157 148 144 145 142 136 132 119 120 121 102 79 85 40 51 36 47 54 61 51 59 49 63 52 56 50 56 53 70 63 71 56 49 51 56 51 60 80 82 129 142 144 149 149 152 160 156 166 165 172 169 156 174 169 184 188 186 193 189 198 192 190 188 185 186 181 185 189 191 192 179 173 177 168 176 183 177 167 168 168 165 165 163 156 160 163 159 159 150 159 157 159 157 160 152 150 148 146 139 126 119 117 115 101 90 50 46 41 43 61 58 51 54 48 56 58 48 57 48 56 77 56 63 50 45 63 50 67 81 91 115 149 145 144 152 156 160 165 159 165 168 176 177 163 179 171 185 192 189 194 192 193 190 189 192 190 192 187 185 187 193 195 185 174 186 169 172 185 185 170 174 168 166 165 163 159 156 167 164 158 158 160 161 158 164 162 159 152 145 147 145 134 122 120 128 105 108 59 54 44 55 58 60 52 57 42 58 43 50 70 59 53 68 70 51 44 68 66 65 76 88 100 138 156 144 142 160 166 160 168 160 172 175 181 178 180 182 182 187 187 189 191 191 188 189 183 190 188 193 174 191 185 193 192 186 181 184 171 178 189 183 177 173 173 168 163 163 163 158 158 162 163 163 165 157 162 165 154 161 153 146 147 142 146 126 125 124 140 121 81 68 44 74 54 58 43 66 40 60 43 46 61 86 51 64 57 46 64 69 71 64 79 83 122 153 158 144 156 168 168 171 173 167 176 184 179 180 185 191 191 186 185 186 191 191 185 189 183 185 191 189 184 186 186 189 188 183 186 178 171 183 187 186 175 176 172 168 164 166 163 162 157 162 166 164 164 156 166 160 159 163 156 144 151 142 147 136 127 124 150 117 99 85 42 93 53 39 42 64 64 58 52 42 72 76 63 70 50 63 79 57 73 68 70 97 138 156 158 152 159 170 171 182 179 172 187 186 190 179 181 194 192 186 190 187 189 190 185 184 186 186 188 188 189 182 184 180 183 176 174 176 170 179 183 176 178 178 174 166 166 163 166 160 158 163 163 165 165 163 166 165 160 165 161 142 151 146 148 139 134 139 137 125 110 99 74 79 53 48 45 53 78 72 55 46 68 73 69 49 62 85 69 69 72 73 69 110 147 156 156 160 160 170 177 182 182 176 191 183 187 182 183 193 190 189 188 189 187 187 186 185 184 183 187 185 185 180 181 177 171 179 172 172 170 178 176 175 177 177 172 167 163 162 166 165 162 162 164 161 168 157 168 166 164 172 161 151 157 156 139 152 139 139 135 139 120 104 88 84 64 53 42 51 106 63 89 65 55 78 57 46 76 71 85 70 69 75 84 123 149 166 155 167 165 178 184 189 175 186 194 189 186 183 188 190 193 190 188 186 188 183 189 186 185 185 188 186 183 178 179 176 167 170 173 173 170 173 173 179 175 175 167 168 159 163 163 162 164 161 161 163 166 162 164 163 169 162 164 156 160 159 138 156 152 147 139 140 130 103 109 74 85 39 46 60 132 63 104 51 54 75 55 70 82 64 81 62 76 69 91 130 156 168 169 164 171 183 188 191 182 186 198 186 184 190 194 193 196 192 187 191 189 188 190 191 187 185 186 190 186 187 185 175 174 171 174 167 167 169 170 180 174 172 168 164 162 166 161 166 160 166 159 164 165 165 165 165 170 164 164 158 160 158 156 155 156 170 145 139 135 110 118 92 72 57 45 81 137 59 80 54 43 73 44 92 89 51 69 67 81 69 111 131 157 168 173 172 176 183 191 192 189 188 192 189 188 191 190 194 193 195 191 193 190 190 187 191 186 190 185 184 189 189 185 177 182 171 174 165 165 161 164 177 174 172 166 171 165 162 159 167 163 160 168 161 166 170 166 167 173 168 163 162 161 159 159 168 157 172 158 138 136 128 107 134 57 82 41 110 100 74 68 55 48 77 36 92 103 44 68 69 77 74 116 132 159 171 177 175 184 191 195 198 193 190 190 192 189 187 185 193 187 187 197 190 191 191 188 190 189 191 185 185 186 188 187 187 181 176 173 172 163 162 159 177 177 172 171 170 175 167 161 167 163 164 162 169 167 172 166 172 173 164 159 163 162 149 166 172 161 171 174 152 133 137 115 131 79 76 58 101 99 96 71 48 63 61 56 70 95 44 71 77 64 90 114 133 157 174 177 182 188 193 197 200 188 191 188 188 188 188 183 188 184 184 186 183 189 189 190 189 185 188 187 191 183 188 188 186 184 176 176 175 165 166 156 190 182 173 173 169 174 171 164 163 160 160 160 160 164 165 165 166 168 161 160 160 164 157 166 170 163 162 180 155 137 148 128 127 94 78 84 77 88 101 67 42 71 56 63 72 79 68 73 62 68 93 119 138 148 176 181 185 189 195 196 199 187 187 187 181 179 175 173 177 175 166 151 157 153 174 177 169 173 167 169 180 177 176 188 193 188 185 180 183 166 165 161 192 187 176 169 175 174 169 171 161 157 157 155 151 161 153 158 157 164 154 154 156 161 158 158 164 163 166 181 163 140 160 141 123 111 83 86 72 97 93 54 44 67 62 70 66 62 86 61 65 64 85 118 135 135 175 189 188 193 195 194 192 183 183 167 160 155 158 155 159 150 127 121 123 109 128 132 134 136 133 142 149 173 148 175 188 187 186 188 178 178 164 156 194 180 184 162 183 171 171 162 161 156 147 147 143 144 146 137 145 138 136 141 140 146 148 154 151 165 162 179 177 143 163 153 121 122 91 63 102 94 105 46 51 61 86 43 81 37 70 63 63 66 71 122 138 130 177 192 189 195 191 193 185 160 150 132 119 108 127 135 132 114 101 85 103 90 78 83 102 97 96 107 110 146 151 139 181 189 185 194 183 182 162 160 195 183 184 166 179 178 156 152 136 132 127 122 117 115 121 109 122 124 117 122 127 126 134 138 138 149 160 168 179 155 163 159 125 126 88 79 102 109 86 39 57 47 89 48 70 46 55 68 66 57 69 120 141 138 178 191 191 191 192 177 166 143 115 137 109 96 114 116 105 87 95 69 88 68 60 55 71 65 72 91 81 103 143 128 153 189 181 190 179 178 160 156 191 183 178 167 172 171 148 134 109 123 108 90 78 81 75 71 74 74 72 79 92 98 109 115 117 116 144 157 178 170 168 162 137 116 94 81 98 125 54 41 41 46 94 82 89 53 68 65 70 59 79 102 139 149 171 188 188 189 181 170 169 124 110 102 105 106 109 101 78 73 74 54 74 54 50 68 62 67 77 109 95 93 119 132 132 169 176 178 180 172 159 152 188 182 171 163 158 161 139 120 100 94 88 81 55 54 54 66 56 38 64 60 58 62 73 80 99 98 114 147 166 178 173 165 147 118 89 90 91 117 58 36 40 39 110 128 65 85 75 70 69 78 77 98 137 160 159 187 186 190 178 166 143 108 89 90 100 99 86 60 37 64 68 68 56 58 52 65 68 75 91 106 114 109 106 133 132 155 169 173 175 170 154 158 176 171 165 159 142 146 129 128 98 75 71 56 56 55 53 61 45 36 47 62 45 55 55 60 93 70 98 127 165 179 172 165 154 127 82 90 78 117 60 33 46 25 130 139 69 70 73 79 91 81 66 111 151 174 153 185 189 182 180 141 121 116 92 98 85 93 110 79 148 220 203 213 161 112 102 97 85 76 91 104 96 120 132 139 149 155 167 167 170 154 155 161 165 165 165 154 143 132 102 102 105 135 122 112 119 86 67 61 53 51 52 52 45 50 44 47 69 66 65 108 143 178 171 161 160 133 84 76 92 107 63 33 42 41 144 151 51 80 51 71 94 109 48 118 164 171 163 187 188 178 163 114 112 102 107 107 123 119 129 138 159 199 189 186 167 168 155 150 133 127 121 114 97 89 86 116 158 162 162 170 166 163 161 164 159 165 166 152 144 129 114 228 222 216 146 128 115 108 116 120 124 132 128 124 102 101 93 84 81 71 49 64 81 146 175 164 172 133 80 75 97 108 64 37 36 70 142 135 100 61 64 69 67 108 89 120 163 186 165 188 188 185 108 95 106 121 136 159 167 153 153 169 171 170 165 153 149 139 139 142 138 145 144 145 130 119 116 90 82 149 178 176 175 171 173 171 167 167 172 166 142 160 114 155 159 142 140 152 153 156 162 153 153 155 147 149 129 127 129 116 104 98 77 88 86 76 91 157 176 136 89 67 91 113 76 37 56 78 129 141 127 120 53 60 35 104 98 119 165 188 174 183 204 123 78 128 140 145 164 162 171 148 148 152 143 141 133 130 124 123 113 111 106 108 109 114 113 108 103 103 101 65 179 181 183 173 185 168 174 174 185 174 200 116 112 125 126 145 150 141 130 121 118 108 106 108 107 112 111 122 133 132 119 110 99 104 94 105 95 69 142 148 101 54 84 121 81 58 62 76 112 152 76 130 110 55 44 94 103 126 162 189 180 190 183 55 127 135 155 169 166 161 161 154 163 172 172 176 182 176 163 155 146 136 128 119 120 111 106 98 92 79 97 65 162 202 220 221 190 132 136 141 147 161 175 83 111 130 123 116 108 114 123 134 144 143 138 131 130 127 129 128 132 138 128 128 119 98 103 103 112 128 52 165 94 62 89 109 94 68 65 77 105 130 106 68 122 65 67 89 75 141 174 187 183 203 118 89 134 139 154 164 164 172 185 183 189 184 172 159 143 128 124 117 111 116 108 103 105 111 123 121 110 97 85 77 150 117 165 184 89 82 83 72 47 92 115 100 115 98 92 110 131 134 143 143 159 159 163 160 162 160 158 158 159 161 157 165 146 128 103 101 100 138 81 124 117 56 109 83 98 92 69 83 101 118 134 100 98 52 77 73 54 144 185 193 192 211 86 129 153 158 156 160 177 191 194 189 156 120 100 97 83 65 125 77 54 75 81 100 106 104 97 113 116 120 111 106 91 67 111 152 150 148 132 124 103 74 112 105 81 80 108 114 118 112 119 118 134 132 133 121 131 136 148 166 173 169 169 187 171 142 127 114 90 125 127 96 140 50 105 73 83 107 76 92 89 118 112 109 119 57 74 66 36 125 169 174 133 148 102 133 136 139 136 157 172 182 169 107 76 70 89 95 57 66 95 57 32 71 50 103 91 101 110 128 113 115 122 131 79 102 171 182 177 163 155 147 160 62 109 70 64 84 103 105 123 119 115 103 61 138 96 66 76 76 87 107 135 159 171 168 170 142 119 117 88 107 145 89 88 10 141 76 68 111 84 98 101 100 154 94 99 80 100 65 28 87 203 240 39 36 77 122 96 98 119 146 164 141 84 60 86 116 122 133 66 79 78 44 68 81 72 152 136 99 111 103 155 137 151 127 64 151 188 179 172 159 145 152 135 96 84 55 55 111 109 93 91 120 129 59 41 121 49 21 49 28 77 67 71 89 123 148 140 118 101 99 74 84 116 65 27 28 228 150 54 104 83 124 85 109 132 134 92 55 87 65 41 31 102 213 29 94 85 117 97 108 142 165 123 91 107 140 144 156 146 156 123 101 120 92 105 108 125 160 148 130 146 136 128 185 184 121 60 200 193 174 166 159 152 164 144 79 79 51 101 82 99 91 123 178 188 78 73 68 47 36 71 39 120 154 39 69 87 104 140 123 105 97 76 64 71 65 46 30 195 121 35 90 89 132 69 137 101 134 96 61 51 57 32 42 127 182 134 210 113 148 138 158 183 151 106 130 170 185 185 186 180 185 163 167 139 162 153 154 150 154 149 145 149 166 170 186 200 99 109 213 185 170 159 152 148 167 171 75 72 77 102 107 132 138 149 169 169 141 106 109 88 74 83 85 132 136 79 109 86 87 118 153 137 130 113 104 116 65 130 38 88 101 51 88 91 123 90 123 88 133 97 52 49 43 18 129 180 190 185 198 99 168 163 182 176 140 141 165 194 194 199 195 188 193 174 174 150 159 153 148 157 145 150 144 146 158 184 184 169 64 162 194 178 176 159 157 154 170 185 118 43 141 89 163 165 161 177 184 180 174 159 142 147 143 141 151 166 161 162 176 131 98 100 149 175 169 156 154 177 51 196 15 53 89 82 69 97 93 110 120 74 102 108 54 43 28 59 176 185 181 188 178 74 171 166 171 168 149 178 189 198 198 199 199 193 195 190 186 169 162 149 141 141 132 137 127 146 153 181 174 136 87 194 184 172 174 165 160 151 155 187 165 45 115 92 153 153 151 164 167 169 167 166 143 164 156 152 159 167 170 184 194 164 133 120 115 167 186 188 186 205 38 212 51 27 71 90 74 86 86 135 131 93 73 83 57 50 32 109 176 193 176 179 172 66 164 167 171 182 187 193 196 191 188 199 200 197 192 183 171 152 146 130 130 125 131 135 154 169 162 164 178 94 145 193 178 170 172 164 172 158 147 182 182 112 57 102 123 143 139 140 143 153 160 172 166 177 174 175 174 173 186 197 191 180 171 134 149 142 159 170 178 202 20 219 78 18 73 48 74 76 91 129 142 101 70 70 81 72 59 122 176 189 172 174 189 59 159 162 186 189 195 196 202 200 200 197 174 170 173 159 151 146 143 144 147 159 163 159 168 171 171 178 162 77 187 185 182 176 173 169 160 164 165 184 187 159 45 116 114 140 147 144 133 133 141 142 144 155 162 162 170 166 170 190 178 183 183 168 157 173 173 179 195 204 40 212 108 26 68 47 69 69 98 118 153 95 87 66 85 69 85 145 166 185 181 171 212 55 148 172 189 193 194 199 204 202 192 191 188 186 183 174 180 179 183 182 172 175 175 172 181 186 188 204 100 130 194 184 186 175 178 171 169 167 179 184 187 175 101 54 160 153 151 161 158 154 149 140 132 129 131 137 146 144 150 166 179 187 192 183 177 180 179 179 198 151 84 210 134 35 61 68 58 67 86 120 118 95 95 76 79 60 89 156 160 182 183 175 211 103 128 184 190 192 195 196 196 196 199 200 202 201 195 196 196 199 195 188 186 184 186 190 190 190 196 170 93 185 186 185 185 184 174 170 170 170 181 184 181 180 132 43 120 190 173 171 171 178 179 178 174 161 165 160 172 174 182 181 182 177 180 187 181 187 186 177 215 86 148 198 158 51 62 61 69 62 81 110 75 95 90 94 87 61 88 157 157 182 181 185 197 168 66 190 193 194 190 193 199 197 200 199 198 195 193 188 193 194 194 187 183 189 189 192 187 181 189 87 167 191 187 189 184 187 176 181 168 169 184 183 173 185 155 88 51 184 188 184 180 180 184 177 180 179 184 187 188 186 184 184 188 186 185 181 180 188 188 188 192 51 195 187 164 85 56 68 70 74 87 96 64 108 80 71 97 81 88 163 155 181 182 189 191 213 73 140 204 192 192 199 199 200 201 198 193 190 191 184 187 191 192 184 183 186 180 184 167 184 115 129 205 184 186 188 183 184 185 181 170 173 171 180 171 177 180 106 98 81 194 186 185 182 182 177 180 178 181 188 184 187 179 181 185 181 181 187 184 187 190 205 103 133 190 183 166 89 69 76 85 94 93 76 72 128 97 76 90 88 87 163 169 175 177 192 197 199 185 63 134 197 196 201 201 200 200 198 192 192 187 181 182 180 190 176 178 179 174 178 173 143 91 202 195 184 190 191 181 188 186 185 172 168 164 171 173 163 183 136 121 108 98 182 183 181 179 179 179 178 181 181 178 179 182 180 183 184 179 185 190 193 183 152 118 206 176 179 175 91 88 71 91 93 92 66 70 146 141 82 94 77 100 156 177 168 184 192 197 201 188 163 119 95 186 203 203 200 198 193 187 184 171 160 159 159 165 169 178 182 174 152 125 109 179 204 191 188 191 191 192 187 195 179 171 173 167 170 175 169 168 150 100 174 110 77 139 169 179 184 184 181 183 183 177 184 181 182 190 189 186 176 156 128 97 149 205 198 175 176 180 104 85 82 83 115 66 78 72 160 136 75 112 85 102 158 176 175 184 194 196 202 193 181 171 181 154 152 160 171 181 196 199 191 179 175 173 177 184 187 190 179 115 109 132 181 193 198 187 189 196 196 198 189 195 192 166 169 168 168 175 171 169 149 111 151 179 130 88 81 96 119 131 137 147 155 149 147 144 138 125 111 105 106 121 154 190 199 201 195 178 166 184 114 73 89 101 141 55 81 66 173 103 89 103 81 97 152 171 173 185 188 200 200 200 184 180 174 176 174 156 132 126 120 115 113 104 111 113 118 118 135 149 152 163 178 178 186 187 191 187 190 197 195 198 195 199 194 174 173 173 169 172 171 178 159 135 149 167 172 146 119 105 98 89 90 94 96 108 103 115 132 144 163 181 192 191 194 197 203 198 196 177 173 181 130 71 101 127 118 82 63 86 180 103 109 98 70 106 148 172 176 186 190 199 200 202 194 183 184 180 181 174 179 176 177 181 184 182 180 184 180 186 190 191 193 178 174 165 184 183 190 190 191 195 195 197 197 196 193 175 177 170 169 166 173 184 163 151 168 160 159 165 162 149 134 119 114 114 111 123 125 127 141 159 172 180 189 190 189 194 199 195 192 180 174 176 142 71 92 157 128 88 49 63 158 104 98 90 67 114 129 173 182 183 187 195 200 201 198 195 201 198 198 195 200 193 193 195 193 193 190 194 190 192 189 190 171 162 146 164 183 190 192 190 196 202 191 191 194 194 197 178 181 171 171 173 193 195 177 160 162 179 136 150 165 167 176 165 174 164 161 164 166 157 157 163 172 175 184 176 185 183 188 187 181 179 171 180 148 58 65 142 165 95 50 101 165 97 88 104 63 123 141 172 184 185 186 193 199 198 202 200 201 201 204 198 202 200 194 197 193 194 190 190 185 189 176 165 149 143 124 188 193 188 194 196 199 202 201 191 193 193 188 185 172 168 163 179 191 191 185 176 175 174 150 137 156 154 162 169 166 174 175 177 183 177 178 185 187 193 195 186 189 181 181 181 181 177 174 175 136 77 68 89 161 126 79 105 193 94 84 105 76 119 145 178 185 183 190 196 198 196 199 201 201 198 204 200 202 201 193 193 194 186 185 184 184 167 159 142 134 144 152 197 196 197 198 196 191 187 184 188 172 189 178 172 164 158 159 162 160 160 179 179 191 186 158 134 142 151 151 156 163 167 173 173 178 178 177 183 196 202 198 200 194 185 183 182 181 174 178 176 137 93 67 70 114 145 77 98 200 102 75 98 75 111 141 180 189 183 192 201 194 198 198 196 201 197 200 202 201 197 194 192 184 181 182 177 174 153 144 142 128 153 159 201 193 187 180 171 168 164 166 171 159 168 159 156 146 146 141 141 135 131 141 159 168 188 156 113 136 143 147 156 159 157 166 174 173 171 180 182 193 198 199 199 197 190 187 183 179 181 172 181 119 107 84 65 95 100 102 94 188 108 64 82 80 103 135 177 183 188 186 201 195 195 196 195 197 198 199 203 199 195 193 189 185 191 189 168 156 142 135 128 136 167 155 176 172 140 107 81 78 98 146 161 151 149 143 130 123 125 124 128 90 71 84 114 138 171 129 98 137 138 145 150 155 148 158 161 165 167 178 176 181 194 199 204 187 188 183 186 184 184 175 181 114 92 89 75 93 85 103 78 172 119 90 84 88 93 143 157 178 188 191 197 198 196 195 187 197 199 201 193 197 189 193 179 182 182 172 151 146 141 128 134 159 169 179 124 136 109 68 77 83 63 95 112 144 129 115 92 91 115 108 55 38 39 32 62 105 147 69 102 143 130 142 139 151 149 155 156 163 172 175 174 186 184 198 201 190 188 183 187 192 184 176 182 117 96 64 73 102 89 73 50 157 165 79 101 81 102 120 171 183 179 193 201 195 193 195 195 194 200 197 196 191 188 182 175 177 171 153 140 141 133 122 156 172 171 182 167 123 116 125 146 150 151 119 94 126 121 79 67 111 123 109 76 126 149 90 90 114 116 85 112 136 137 134 141 144 148 153 147 154 167 166 176 183 180 198 191 192 181 177 186 194 184 181 183 93 97 75 59 90 92 56 45 109 155 84 76 98 103 99 174 182 171 179 197 194 197 197 195 198 199 189 194 190 188 179 177 175 161 149 138 132 127 140 167 170 181 190 199 175 151 169 168 163 155 120 120 109 116 84 83 94 76 82 87 109 149 116 126 121 142 134 145 150 138 134 135 146 147 146 143 153 155 162 167 171 187 192 189 189 178 177 188 186 180 177 170 90 92 80 61 86 67 57 51 42 142 109 94 105 98 90 157 183 154 173 198 195 196 193 195 196 200 196 188 190 186 183 175 166 161 140 137 131 133 156 171 182 192 189 193 201 164 176 170 140 127 114 105 110 84 67 59 54 52 69 74 93 99 101 117 142 156 153 171 173 148 141 121 137 140 142 148 142 144 148 164 166 177 184 193 177 184 178 184 187 183 173 165 89 78 84 80 100 77 46 46 37 96 130 113 96 120 89 137 176 152 169 187 195 195 190 196 196 198 194 189 191 179 174 168 159 148 142 137 123 149 167 184 193 192 188 194 181 170 169 148 118 103 121 103 107 112 74 57 71 61 95 91 105 85 102 106 130 145 174 168 185 174 139 124 126 135 143 143 146 142 139 154 161 163 182 191 174 182 183 171 180 178 162 152 78 87 86 87 92 74 44 52 39 73 113 116 92 103 90 143 174 149 171 192 187 198 193 194 197 196 190 196 186 175 174 159 151 142 140 126 135 166 178 187 195 187 191 184 157 189 166 129 103 111 128 111 115 126 79 101 89 87 123 111 108 120 74 108 112 117 158 157 179 182 158 133 122 120 135 139 147 140 134 142 157 156 179 188 174 179 185 179 179 179 157 148 77 89 98 85 76 78 53 53 48 57 92 109 98 112 89 140 168 157 166 190 191 189 197 197 195 191 195 190 170 171 166 153 150 138 125 132 158 177 175 187 174 187 166 153 148 167 135 121 102 116 117 116 108 95 93 122 96 93 106 100 107 140 57 107 95 114 128 119 144 169 156 148 117 117 127 135 144 141 134 138 153 156 164 183 182 166 184 186 172 164 168 124 85 82 93 76 91 66 45 51 50 42 89 121 122 114 106 108 168 158 174 181 185 192 192 200 188 194 188 189 171 161 158 152 150 130 126 139 168 170 160 158 141 180 138 122 164 135 134 86 108 114 118 120 88 97 85 129 108 103 100 88 125 99 87 97 92 90 112 118 120 139 157 137 122 117 117 132 141 134 132 125 160 144 153 176 173 172 178 178 168 149 167 116 93 75 77 98 99 64 43 52 50 44 89 133 126 104 109 103 165 155 169 178 184 180 188 187 186 183 185 179 171 151 154 147 132 131 123 135 136 142 145 137 121 154 120 124 134 130 92 85 103 96 116 93 86 94 83 105 105 85 74 85 103 108 109 96 72 99 106 112 112 138 126 121 112 116 111 112 140 138 139 133 147 154 158 170 175 174 162 168 169 147 171 92 89 79 79 94 89 56 47 40 45 67 87 129 124 103 88 91 172 168 165 173 183 177 182 181 192 181 179 166 161 142 147 133 132 124 107 138 122 120 116 116 114 130 104 132 110 115 87 98 86 91 115 98 79 85 103 86 106 83 84 92 87 72 117 100 83 89 99 97 108 112 103 100 92 128 104 95 130 144 143 139 144 145 157 168 176 176 156 160 158 143 167 82 94 83 69 76 84 56 41 45 70 64 65 114 111 96 84 98 131 153 157 174 182 175 182 184 193 183 178 158 155 129 142 150 149 100 119 122 97 105 87 95 117 105 94 126 102 93 113 87 85 102 90 114 57 71 104 76 100 92 79 83 71 80 73 95 105 86 62 110 95 106 93 86 103 91 112 96 109 145 139 128 145 153 158 163 173 172 156 158 159 151 156 81 75 95 61 78 69 57 41 45 69 44 64 123 95 82 84 111 101 147 146 156 174 172 176 175 190 177 176 166 151 139 145 174 140 96 119 106 91 84 84 85 98 88 107 108 109 101 112 84 79 84 60 99 65 73 74 86 80 88 67 65 68 96 80 81 101 88 66 100 95 85 85 71 97 74 103 97 86 140 147 134 123 155 158 164 163 182 150 154 156 142 145 81 68 94 53 82 66 46 40 48 56 30 106 83 82 80 92 106 93 123 135 143 177 150 173 177 180 166 168 170 135 136 172 176 112 82 106 89 67 61 69 64 78 99 100 119 113 100 101 113 84 77 64 78 78 60 89 97 93 102 88 84 83 88 77 70 65 81 87 83 82 58 53 88 46 58 80 88 73 123 145 118 129 145 161 165 145 188 149 143 159 150 120 44 72 100 63 82 67 40 43 50 34 69 70 90 85 78 99 96 89 99 108 134 159 134 172 178 184 172 163 160 134 142 179 159 97 90 99 83 59 48 43 55 79 78 87 93 89 67 58 78 65 51 62 56 65 57 72 79 84 75 66 66 52 73 43 50 41 54 66 60 65 58 52 42 42 50 67 80 86 110 148 121 120 145 144 152 136 175 140 130 156 122 88 73 62 68 71 74 52 40 42 46 51 69 51 90 103 81 110 91 83 75 99 120 131 137 136 162 176 158 146 139 118 146 175 134 100 74 90 84 64 26 37 46 60 55 54 63 58 48 40 45 42 31 68 58 58 52 41 41 65 54 55 59 23 41 27 28 29 35 31 28 29 26 46 27 47 64 74 83 83 94 134 113 123 129 136 140 125 135 125 128 124 118 75 83 71 71 57 63 54 41 44 45 61 49 52 82 88 63 80 83 81 66 98 112 113 133 128 132 141 135 135 116 126 139 163 118 104 48 90 84 39 61 96 108 110 114 122 147 145 127 124 113 90 75 82 64 66 69 47 64 73 61 59 68 72 71 91 111 105 99 77 59 44 42 43 43 60 104 87 88 97 96 115 112 113 105 132 118 121 121 98 110 100 71 113 63 81 57 80 63 36 43 46 39 52 45 59 61 70 67 67 63 77 70 77 94 84 113 113 106 116 111 116 105 114 137 161 110 93 72 85 54 66 123 138 137 147 157 158 161 174 173 162 166 150 136 135 131 128 134 123 139 128 124 126 135 139 138 140 162 178 153 124 111 99 93 80 81 98 94 97 77 87 96 100 114 106 86 119 105 116 103 98 93 81 63 106 54 60 66 63 63 36 40 42 45 55 45 51 52 63 83 82 53 71 75 78 75 78 111 87 97 94 100 116 99 87 148 142 106 95 73 74 73 88 151 154 147 152 168 181 188 175 180 167 168 155 163 160 160 154 160 144 160 149 162 148 148 141 156 149 159 178 169 171 158 121 128 116 91 125 83 66 96 80 89 96 123 104 88 96 95 106 88 98 100 71 63 73 84 74 45 65 42 47 39 38 51 47 59 51 54 66 64 74 63 64 92 56 68 87 102 81 90 75 107 97 90 96 110 130 97 100 76 58 100 102 152 153 150 165 160 172 172 176 175 173 175 162 161 162 160 161 151 152 145 151 154 139 142 143 155 151 163 173 165 168 154 126 128 114 110 117 77 78 92 63 90 89 92 116 78 78 92 92 63 95 85 80 45 73 47 71 51 49 53 39 43 42 47 52 53 60 52 68 57 57 78 74 59 70 54 65 82 89 72 72 91 80 92 102 79 115 84 94 48 72 107 134 150 155 162 167 177 166 166 161 179 163 166 160 160 158 155 159 152 163 141 142 143 140 144 143 155 151 147 154 153 153 150 129 127 119 129 119 74 84 85 62 85 90 94 97 92 67 93 78 73 71 75 63 59 54 43 65 43 50 41 42 41 41 45 57 50 52 55 56 56 66 74 66 59 61 52 65 67 78 63 65 87 82 85 90 78 107 87 101 62 52 110 143 149 154 167 180 174 173 175 166 164 141 145 155 145 146 145 141 127 128 140 126 128 120 123 128 141 142 138 148 139 159 140 151 126 117 110 115 89 72 86 77 88 82 80 100 80 68 73 76 57 59 81 81 52 58 53 49 52 46 40 42 40 41 48 47 58 67 58 62 67 79 53 62 67 54 48 60 56 62 55 59 92 80 61 81 76 94 77 83 77 47 113 136 147 153 171 178 176 174 180 159 165 138 147 158 147 140 133 131 109 134 126 123 115 124 114 129 133 136 142 139 130 143 134 136 124 121 96 92 99 56 75 74 95 80 72 88 79 48 65 72 58 44 72 69 67 64 62 63 44 45 48 38 36 39 40 48 60 53 53 59 51 81 52 76 71 49 49 64 47 38 55 66 77 75 55 71 64 83 62 60 77 72 105 132 135 149 166 170 170 176 157 150 161 138 141 142 129 135 112 122 106 130 103 114 110 105 114 132 140 119 133 113 123 131 123 132 116 118 101 83 79 70 60 53 82 69 68 76 54 51 78 61 52 55 57 53 62 43 74 47 50 40 51 44 36 40 44 51 57 49 56 46 58 89 57 57 61 47 57 50 30 67 72 78 77 45 55 64 53 68 68 66 47 82 111 127 125 148 158 163 154 160 147 148 154 141 141 141 117 118 113 109 117 94 119 101 121 91 126 110 117 105 120 102 114 120 125 127 116 112 109 71 78 73 66 49 51 81 72 59 59 50 67 65 55 55 39 57 47 49 61 54 37 40 41 41 40 39 42 53 57 56 50 44 53 77 63 45 60 52 52 58 52 73 60 69 71 42 49 54 45 54 68 53 51 82 97 109 121 130 147 146 137 141 144 136 146 124 139 133 108 111 94 119 96 72 114 63 110 84 94 107 103 109 101 90 111 119 121 127 118 105 107 74 78 60 53 62 57 54 71 47 65 42 65 52 47 47 49 53 50 62 63 48 43 39 42 37 38 37 37 58 47 58 51 42 48 58 54 49 57 51 63 68 54 60 59 70 46 44 48 46 55 47 64 48 70 60 94 89 106 113 124 129 129 131 137 139 143 122 134 133 113 108 79 115 96 74 84 75 75 79 76 84 89 91 106 91 110 122 121 110 115 102 103 74 62 43 55 47 62 46 47 46 64 35 48 42 46 53 52 62 56 65 61 56 40 40 38 41 37 40 41 47 49 59 47 52 52 52 48 57 55 55 67 67 60 58 55 59 48 40 48 50 52 61 51 66 79 73 65 73 82 110 119 108 119 131 129 141 135 133 139 128 138 116 106 110 100 92 77 78 78 63 67 96 71 72 105 109 112 125 123 98 105 104 71 79 79 50 48 45 45 55 33 65 47 52 36 35 54 55 41 54 62 63 58 48 45 41 39 41 38 39 37 46 52 56 43 60 58 54 39 76 50 54 64 49 58 51 43 60 45 48 52 32 66 53 43 50 66 85 54 66 86 117 99 86 126 130 123 127 131 152 165 140 149 129 141 125 97 114 110 103 95 97 90 113 116 99 107 124 125 131 139 113 117 84 68 57 65 60 35 43 30 56 22 59 46 40 37 48 59 46 50 46 64 59 51 42 45 39 42 40 39 36 37 52 49 50 49 52 50 50 54 71 53 51 61 43 48 53 56 44 50 52 42 43 60 45 42 47 51 65 56 64 86 107 74 92 105 101 112 113 116 142 150 151 138 144 144 143 118 107 132 123 114 125 122 113 130 131 110 132 138 129 114 121 98 93 66 64 67 51 34 42 31 41 45 66 40 43 35 31 45 44 48 54 57 48 52 46 41 43 41 40 36 41 37 46 47 52 50 49 46 38 60 46 53 49 64 49 42 40 56 39 55 53 38 44 42 48 42 47 57 45 49 74 70 76 65 89 91 87 76 106 127 135 120 156 150 136 148 142 130 114 128 125 151 126 140 126 119 136 119 113 128 111 83 100 107 71 59 114 38 73 51 28 44 44 44 60 41 34 40 24 30 33 55 42 53 47 50 38 43 38 42 39 38 32 39 50 52 48 54 47 45 45 52 42 56 57 73 40 37 49 36 52 59 41 32 49 45 46 46 55 51 38 52 73 64 62 94 82 77 81 83 90 132 100 120 143 130 120 144 139 138 116 118 102 132 126 137 145 99 144 90 99 105 98 86 88 106 85 46 108 46 67 36 66 49 54 56 72 30 30 37 43 36 38 39 60 35 47 48 43 42 38 38 41 41 35 37 48 51 48 54 47 44 42 49 52 60 47 63 38 41 46 43 59 42 38 33 46 34 62 45 46 48 35 49 68 70 83 79 79 68 79 91 74 109 105 118 142 107 110 140 130 133 125 122 98 123 118 114 141 96 137 96 94 108 95 90 94 104 81 59 99 58 55 35 34 39 43 57 53 41 36 28 51 55 50 28 71 32 48 42 44 39 38 38 40 37 40 32 48 55 49 49 52 45 46 43 62 54 35 64 45 35 52 41 48 43 25 41 38 38 55 43 30 44 43 43 64 69 83 54 72 70 84 75 58 89 100 103 124 108 101 110 116 109 112 115 91 109 105 107 100 97 96 88 83 102 109 74 94 123 92 55 88 87 45 46 31 30 46 34 40 35 34 34 50 63 50 33 39 47 43 40 48 39 37 34 42 36 41 36 47 52 51 51 49 48 40 48 58 67 48 70 77 33 44 43 61 40 34 46 42 38 56 42 25 39 55 50 51 77 78 58 76 55 90 53 67 84 77 86 104 100 75 102 103 92 88 92 92 98 77 118 98 87 70 71 52 112 98 55 108 109 73 109 35 67 58 45 48 23 41 27 48 38 26 37 38 64 34 35 40 39 43 43 42 39 38 36 38 37 34 36 53 51 51 48 47 47 37 47 90 61 42 56 69 36 32 56 46 69 42 48 61 39 44 42 44 50 59 54 43 71 69 86 62 55 94 49 87 64 67 68 89 82 73 114 91 87 78 82 76 83 89 104 92 76 87 53 75 97 114 45 121 93 51 102 36 45 57 46 36 22 38 43 32 38 46 46 45 47 36 33 45 40 41 40 43 42 38 35 34 39 33 36 52 53 50 49 49 42 40 108 60 48 30 55 49 37 43 65 62 42 61 33 67 47 41 40 37 38 60 69 45 39 91 75 52 46 89 33 77 66 58 51 84 80 63 90 72 76 53 80 62 79 81 69 68 68 82 36 116 89 115 60 108 92 61 55 88 40 48 70 27 24 27 46 30 44 47 46 74 40 36 32 41 41 35 45 38 44 36 36 32 40 36 36 50 50 50 51 45 33 100 94 36 26 39 27 53 30 25 55 68 53 68 47 45 61 38 46 38 44 57 56 67 33 64 84 43 53 58 25 84 49 55 47 74 64 61 75 59 44 66 63 71 52 59 70 53 68 65 25 124 95 93 83 87 49 69 53 84 60 59 34 35 42 33 29 63 61 43 30 31 75 55 33 40 37 42 40 40 40 40 37 30 43 31 41 47 53 49 49 36 60 127 72 29 21 30 23 30 26 42 44 84 52 50 40 45 57 45 35 52 34 43 81 59 29 48 78 59 48 37 31 81 32 47 49 54 56 61 55 56 40 78 44 53 41 50 77 58 66 65 31 109 93 67 85 71 35 57 70 60 72 61 25 34 30 30 35 92 91 43 22 21 34 85 61 33 35 41 35 46 37 42 34 34 38 39 32 53 53 52 64 36 115 118 57 30 23 25 17 31 23 41 69 100 56 57 50 46 49 48 48 42 33 76 44 58 41 44 81 53 35 27 37 74 23 56 41 49 45 53 49 47 67 54 47 36 48 50 64 43 40 69 39 57 98 56 71 70 39 38 67 46 52 41 36 26 37 30 71 88 128 48 19 22 26 34 96 68 50 51 41 44 40 40 33 35 37 37 35 104 106 108 96 82 140 99 54 41 18 23 21 18 15 36 91 107 66 83 82 52 69 30 49 49 51 63 26 47 59 38 41 60 33 25 39 52 39 40 45 36 38 55 31 51 82 38 39 26 51 40 66 27 46 77 47 43 94 43 67 47 63 20 49 44 36 44 25 22 40 70 84 82 133 45 11 21 29 20 69 112 82 85 81 88 83 65 53 49 45 36 37 114 114 108 63 104 135 96 65 30 24 19 18 13 14 22 106 124 74 103 119 70 99 42 48 64 40 44 37 53 41 31 52 48 33 52 34 50 44 34 33 16 56 44 40 44 62 63 34 32 35 31 55 35 30 87 47 66 65 60 49 44 58 44 31 44 34 55 37 22 79 106 95 120 133 45 15 20 29 24 37 94 102 79 78 85 97 70 77 93 98 81 76 107 110 91 50 132 127 95 73 32 15 14 17 15 18 10 95 129 118 108 115 95 88 58 57 42 38 38 30 55 31 69 53 48 33 50 38 51 43 32 40 23 46 45 46 38 46 37 60 38 19 38 48 35 41 53 29 73 63 50 40 50 65 52 26 41 27 55 37 58 115 119 118 119 140 34 14 19 26 31 23 69 116 87 88 86 91 63 86 90 100 81 75 102 102 77 54 145 120 92 87 38 8 18 18 13 18 12 68 129 127 115 138 98 92 61 52 42 36 42 24 54 37 73 31 47 34 31 26 55 29 18 54 37 27 44 42 44 23 28 70 35 27 57 34 40 42 38 35 71 58 50 42 64 61 68 24 40 36 84 56 95 115 114 126 120 122 16 16 14 30 28 27 70 102 107 92 90 81 70 88 95 97 97 91 107 96 59 85 149 122 95 86 48 6 18 16 16 16 24 37 128 132 126 134 128 110 85 77 60 60 51 23 51 27 65 34 40 31 39 14 57 32 18 48 28 33 28 38 40 18 31 46 34 23 39 46 53 46 39 17 50 53 65 29 74 37 92 28 36 74 90 80 109 114 117 128 121 83 5 17 15 29 28 29 70 92 120 86 96 78 72 89 92 94 94 108 110 89 59 138 144 131 110 87 67 6 16 14 22 22 31 19 110 134 134 136 132 106 107 105 88 82 54 37 38 24 55 47 36 39 58 15 60 40 23 40 25 34 31 43 35 22 23 34 35 30 25 33 61 38 40 23 55 48 59 38 73 34 71 54 79 96 105 95 117 119 113 128 124 37 8 17 16 30 31 35 55 95 114 106 86 68 72 76 89 90 98 104 110 79 116 148 144 137 117 81 84 18 19 24 26 25 33 17 74 140 133 141 135 119 129 114 121 105 91 54 46 37 35 61 41 32 46 16 73 35 41 31 23 26 33 37 29 32 23 28 42 19 32 52 36 46 42 17 64 34 74 28 54 78 93 78 95 89 112 106 113 111 123 130 92 9 10 18 20 33 32 45 55 102 103 134 81 54 67 73 79 88 93 99 