P2
92
112
255
63 56 51 50 54 52 57 49 65 48 54 63 51 49 60 61 48 54 40 51 45 43 54 49 44 50 48 47 54 54 49 43 53 55 43 48 49 73 60 75 57 52 47 45 45 38 46 46 54 56 52 50 46 38 48 46 45 44 45 53 56 62 59 57 50 65 64 60 52 59 61 53 43 71 55 60 43 49 53 52 45 47 49 44 48 48 43 50 46 43 44 44 54 56 49 47 53 48 55 52 64 45 63 56 53 47 67 72 36 56 48 50 44 37 62 44 48 49 48 69 43 49 45 55 72 86 68 81 87 85 95 87 91 81 62 64 55 50 53 48 48 53 43 46 43 47 41 38 37 43 46 47 45 53 53 60 48 62 57 58 53 60 79 45 62 62 50 61 51 51 52 61 48 49 48 43 51 43 48 47 47 44 49 50 50 54 47 48 54 46 54 59 63 64 56 60 43 56 67 70 41 54 60 50 37 34 73 59 61 52 63 51 51 69 77 83 95 97 89 94 112 109 106 107 107 105 88 95 92 86 85 65 64 65 50 57 48 43 50 45 40 38 40 35 54 54 47 44 62 35 57 62 51 58 70 57 64 61 52 62 57 47 60 66 48 47 45 45 51 47 47 47 48 47 47 44 49 49 58 53 49 48 58 49 78 64 55 60 39 73 96 46 45 45 46 37 58 37 56 68 70 65 68 63 82 100 102 94 92 105 108 110 126 120 115 121 125 121 112 108 105 95 91 76 75 67 63 52 57 51 54 49 42 46 41 48 68 40 43 39 58 52 47 52 51 57 49 61 81 54 54 63 60 53 58 62 47 46 47 48 54 44 48 46 49 45 49 46 47 55 63 68 53 57 57 55 70 59 56 49 39 48 111 32 40 38 37 34 57 35 57 63 57 74 88 93 100 113 112 109 109 118 125 125 125 126 123 124 130 130 126 117 113 107 100 91 89 82 79 63 65 56 64 61 49 61 57 54 41 41 42 39 71 48 53 51 49 52 47 53 70 68 48 60 57 59 54 61 57 47 52 53 51 50 51 51 51 44 46 48 43 50 63 62 56 47 50 59 65 50 48 44 41 43 70 46 33 32 34 43 32 53 46 67 73 89 106 113 108 113 123 121 121 124 129 131 120 125 126 123 128 130 125 127 116 110 109 98 101 98 98 79 79 63 80 61 58 69 65 57 46 50 59 30 74 43 39 52 48 56 45 54 71 45 59 55 53 49 58 54 67 51 47 54 46 51 50 55 55 41 54 46 51 52 61 56 50 47 40 56 50 63 48 52 46 42 41 54 40 33 33 36 48 51 66 91 82 114 121 116 109 122 126 127 129 126 138 131 133 129 132 129 128 129 124 127 122 119 115 117 109 97 104 99 95 75 92 71 65 66 67 66 56 56 49 51 51 48 34 51 41 48 47 49 58 49 45 61 54 46 65 59 52 60 42 57 49 47 49 51 49 50 50 49 54 58 56 53 46 47 48 59 42 64 43 50 48 40 43 32 47 42 40 42 66 79 93 105 105 113 108 126 114 133 134 134 137 134 135 138 130 134 132 129 123 125 127 121 122 121 116 115 113 112 113 110 96 97 103 99 73 81 74 86 66 59 51 56 43 48 52 56 47 39 49 54 54 54 37 63 61 41 71 66 50 50 55 65 45 48 52 46 50 54 48 48 52 51 46 42 49 52 49 53 39 43 46 38 42 35 30 33 39 29 41 72 95 106 114 108 110 115 114 129 121 127 125 131 141 129 129 138 136 136 126 124 116 120 125 127 121 125 119 121 113 105 118 115 108 104 116 98 92 75 84 91 104 71 61 54 56 49 58 48 53 46 35 55 55 48 54 42 72 62 49 60 57 52 61 59 46 52 48 46 49 50 50 46 62 54 38 52 50 53 44 59 30 45 40 40 41 31 27 42 36 37 83 101 108 109 116 109 115 116 132 123 124 125 123 131 139 128 137 139 135 136 128 129 132 133 129 130 124 129 123 127 121 121 119 110 116 115 113 109 93 84 87 86 100 96 74 64 60 51 55 47 57 35 46 48 46 60 39 66 70 60 49 61 49 53 81 44 57 52 50 47 53 51 56 45 56 49 53 58 46 45 50 50 33 36 40 37 46 27 39 57 42 85 106 112 115 107 112 109 118 128 128 131 121 132 127 133 132 131 136 141 136 137 135 133 132 140 131 132 131 132 123 130 126 126 124 117 117 121 116 115 105 101 94 99 96 96 91 71 72 70 53 44 49 45 38 54 48 44 46 62 55 59 49 61 59 43 70 54 60 62 49 50 51 56 49 55 59 63 46 53 43 39 51 44 33 34 46 34 41 40 59 65 81 111 116 117 106 111 112 116 126 129 125 121 138 132 133 132 130 138 138 146 139 142 135 139 135 137 135 133 137 136 132 132 129 123 128 129 118 122 122 120 113 111 103 98 102 104 94 88 88 67 81 47 39 41 53 46 51 39 41 50 44 58 52 56 59 51 51 56 55 65 64 56 49 52 55 53 57 64 48 57 49 35 51 39 39 43 44 50 51 51 67 94 108 120 125 117 105 117 120 129 133 130 128 135 147 134 142 138 141 135 146 147 150 146 147 142 144 141 139 141 132 140 142 135 128 130 136 129 124 131 133 120 124 121 114 106 104 108 108 92 94 84 83 69 52 37 44 35 47 47 47 50 45 57 57 58 56 55 51 53 59 53 70 63 64 57 52 57 43 71 76 43 54 42 46 48 51 37 38 62 47 68 100 118 126 122 129 111 114 125 131 141 140 142 141 149 152 140 140 148 144 131 145 152 149 153 150 145 149 140 146 142 141 147 141 136 132 135 137 135 132 132 132 131 129 127 128 121 113 114 116 104 94 98 94 77 75 58 44 41 35 51 42 49 52 46 80 51 44 57 56 61 58 57 60 58 59 55 56 50 54 73 53 47 58 64 47 48 52 44 42 45 81 91 120 128 138 122 131 116 123 138 145 145 144 153 141 165 147 150 139 150 149 146 145 154 152 158 152 152 154 147 149 144 148 148 143 147 138 146 143 138 140 135 136 138 135 129 132 133 124 110 124 113 103 112 106 98 77 84 54 44 42 57 36 40 47 59 66 64 45 52 56 51 65 61 55 54 62 49 50 48 50 84 57 62 62 54 49 51 43 49 45 57 94 123 136 135 138 129 134 128 131 143 151 151 151 154 143 159 152 149 149 150 156 151 153 160 159 161 156 160 159 155 154 150 153 149 149 151 143 145 144 146 145 141 138 142 137 136 135 138 136 115 125 115 116 112 115 110 99 96 75 61 51 60 29 44 41 48 57 65 59 41 53 52 53 70 53 52 60 49 52 53 61 79 63 67 48 41 51 59 39 49 51 92 107 154 141 136 135 136 151 134 144 141 156 154 158 161 158 161 151 154 156 153 162 154 158 163 161 165 164 161 164 162 160 159 157 150 152 161 151 153 146 149 150 145 148 145 144 141 138 146 143 133 130 124 123 121 114 114 106 108 96 83 60 52 37 43 51 51 58 65 51 59 56 50 69 55 51 62 47 53 51 52 56 70 54 58 48 41 55 55 46 49 73 100 140 142 144 137 138 144 163 140 154 144 166 161 162 168 164 166 159 161 162 165 166 160 158 163 162 163 172 165 166 160 165 160 161 160 156 159 161 156 149 152 153 151 153 150 151 147 146 150 147 143 134 131 133 128 125 114 118 111 109 99 62 76 31 45 49 50 45 67 52 57 51 64 42 53 50 56 53 48 53 56 50 57 49 55 41 43 61 37 59 55 102 119 140 143 140 140 145 157 159 150 154 157 164 167 175 175 166 169 169 162 168 171 176 168 166 167 172 170 175 167 171 166 169 167 167 166 164 153 169 161 161 152 158 157 160 155 156 154 155 148 153 155 140 144 135 135 127 124 116 118 116 101 86 89 47 51 37 34 54 59 57 47 52 54 55 45 56 54 57 51 52 52 55 53 57 45 42 56 56 55 63 86 127 132 138 142 140 141 150 161 166 161 155 167 159 179 185 176 177 177 179 174 178 182 184 180 182 175 190 180 183 171 175 172 175 173 161 175 163 168 164 178 164 158 160 163 170 157 159 159 153 152 154 159 143 151 138 141 136 131 126 111 117 114 100 94 64 38 47 30 62 52 51 51 52 50 43 52 54 72 52 52 51 52 67 63 46 50 58 48 65 60 67 133 136 138 145 154 146 150 161 165 164 159 158 168 172 182 186 178 186 185 188 188 189 185 188 186 186 178 179 191 191 183 184 167 174 184 176 184 167 174 170 176 169 167 162 166 170 163 164 158 158 157 161 161 154 152 149 142 145 137 132 118 120 124 109 101 84 42 50 51 59 50 51 61 41 58 45 41 58 80 50 57 51 51 69 62 58 57 48 66 67 66 103 153 133 146 150 155 152 160 175 171 169 173 141 176 169 182 187 186 188 193 192 193 191 186 183 190 186 181 185 195 196 182 178 177 177 184 190 183 174 173 175 169 170 169 164 160 172 164 165 157 160 162 162 163 165 157 155 147 137 145 141 122 126 119 132 116 96 70 58 59 65 50 45 62 49 56 55 38 59 77 56 50 57 52 62 57 58 53 62 64 76 89 141 145 152 154 158 157 161 164 168 171 172 186 147 172 177 185 189 190 191 189 198 192 194 189 189 193 187 185 192 191 199 196 178 187 182 171 191 188 178 179 175 172 167 170 162 161 171 168 166 163 165 162 163 166 158 157 164 141 142 140 142 139 123 121 139 128 98 90 66 66 78 40 41 53 67 64 60 43 55 74 59 52 59 48 54 45 65 56 66 70 101 113 145 157 151 157 155 160 165 166 173 170 178 183 163 180 176 182 194 191 194 189 194 187 192 188 195 193 191 185 193 190 197 194 186 187 187 172 191 192 183 182 179 171 172 170 165 168 159 163 165 168 170 163 162 165 165 158 165 140 153 139 145 142 130 135 126 147 103 105 88 70 79 42 47 49 59 90 60 54 54 68 60 62 43 54 45 65 70 61 70 98 109 130 161 156 151 159 168 169 171 168 175 171 182 187 168 181 184 182 191 192 194 191 189 185 187 185 191 187 191 182 188 194 193 192 189 188 185 178 192 183 192 181 178 178 171 170 166 171 159 164 167 168 166 165 161 166 165 163 164 149 139 151 142 146 135 135 137 133 121 107 97 84 79 53 53 39 74 99 59 100 44 59 61 58 56 42 53 77 69 71 84 104 112 149 170 152 149 168 176 172 172 171 179 181 182 185 179 194 191 192 187 187 194 186 189 188 187 184 188 187 194 180 186 192 185 186 188 185 183 176 190 182 192 178 182 178 171 170 170 170 166 159 169 164 166 166 163 173 168 169 168 158 146 158 146 146 152 136 139 128 132 112 97 102 76 70 46 33 104 99 72 81 36 60 58 49 58 51 76 73 77 70 86 96 130 161 167 154 157 177 179 178 182 180 178 185 186 189 183 195 199 191 189 188 188 187 190 186 186 185 188 189 190 191 183 189 182 188 176 182 175 174 184 188 180 180 183 173 173 166 173 167 166 163 168 163 169 165 162 167 165 170 164 166 153 161 148 145 154 156 151 137 129 129 93 119 73 84 50 31 124 90 59 65 43 62 63 42 44 54 99 61 77 72 80 100 145 163 171 159 168 173 178 188 187 184 190 188 191 192 179 195 197 195 191 187 188 188 191 187 187 185 187 190 186 189 184 187 179 181 181 179 175 177 181 182 181 186 183 173 172 168 167 167 169 167 161 166 165 166 167 163 165 165 163 162 158 156 155 159 153 160 162 141 128 129 110 112 113 66 74 43 118 78 80 55 52 68 58 43 60 50 92 73 81 79 85 109 149 164 163 171 169 174 187 192 191 185 192 191 191 191 180 191 195 193 191 191 187 188 188 188 187 186 190 192 184 188 183 182 182 172 176 177 180 174 178 178 184 182 178 171 169 169 168 166 170 160 168 165 165 168 166 167 165 171 163 161 164 161 156 162 166 160 163 164 139 123 129 110 127 66 82 60 93 91 94 55 44 75 50 59 50 66 87 86 74 88 88 122 150 169 168 177 171 184 193 196 194 180 199 200 194 190 185 195 194 192 195 191 187 189 187 193 190 186 191 188 191 190 190 189 181 180 174 179 175 170 173 172 185 176 179 173 176 168 168 165 172 163 165 170 165 171 171 169 169 176 163 158 166 161 150 167 167 162 164 176 147 127 145 121 121 94 69 84 72 82 97 52 34 69 59 64 54 70 78 85 65 89 89 124 153 171 178 178 172 187 194 200 197 189 195 200 192 187 192 196 197 197 195 187 194 192 191 190 192 188 192 186 191 193 189 191 184 186 177 179 174 167 168 168 177 182 177 176 177 175 171 166 169 165 168 168 170 171 171 170 171 169 161 159 164 162 159 163 167 161 161 176 149 129 152 132 116 110 84 76 83 89 90 40 48 59 81 43 65 60 64 77 80 89 96 125 153 168 185 181 182 187 198 198 201 194 192 198 194 188 193 192 196 192 197 195 194 193 190 191 193 188 190 185 188 188 190 192 189 186 182 179 179 172 164 164 181 188 179 177 174 181 177 165 168 164 166 166 164 166 166 167 165 166 158 161 160 159 161 156 162 162 164 174 170 133 154 147 117 115 91 62 96 93 91 40 55 49 83 53 59 61 70 76 80 81 102 128 147 168 182 187 187 193 200 201 203 198 194 194 195 192 191 189 192 189 188 196 194 193 191 194 192 189 191 188 189 188 188 195 187 188 179 183 184 174 169 164 191 192 181 178 173 182 175 173 167 159 161 161 153 161 155 158 154 159 151 149 151 156 151 153 153 158 161 172 173 149 153 152 125 113 92 67 96 114 62 43 44 42 88 83 40 80 68 75 84 79 109 123 149 168 184 189 190 195 199 203 204 197 194 189 191 192 189 187 187 188 183 188 179 189 188 188 188 186 183 179 187 185 182 189 194 192 185 184 187 179 175 150 199 191 185 173 176 180 174 173 164 166 153 150 149 147 146 141 140 138 130 139 130 136 141 143 141 144 158 155 170 162 156 156 133 112 93 71 94 120 47 37 43 37 92 127 30 93 72 80 73 77 107 128 145 166 183 190 192 196 200 202 203 196 192 189 186 183 179 177 178 177 166 158 150 151 169 172 161 161 156 159 164 172 161 171 191 191 188 189 187 183 174 149 191 188 185 173 173 187 170 164 162 148 133 134 125 122 122 112 117 122 113 108 120 122 125 125 127 125 139 148 166 168 164 154 147 120 90 81 81 114 62 35 46 23 101 139 27 110 101 77 70 69 97 133 139 145 183 194 195 197 201 202 199 190 187 180 170 164 163 159 163 163 132 127 122 108 118 116 129 122 118 133 130 150 170 123 181 184 188 191 191 180 177 151 185 193 185 171 167 182 160 144 126 117 123 108 91 87 86 68 74 70 74 66 79 88 93 97 100 104 106 136 152 168 169 153 155 125 90 79 66 107 69 38 42 27 107 158 44 85 79 70 67 68 80 133 141 136 179 197 195 199 198 201 196 182 173 143 133 125 130 138 144 130 105 92 97 93 75 80 84 93 81 94 95 92 147 126 145 175 190 182 187 176 173 152 174 189 177 168 161 169 150 138 110 111 94 88 68 60 56 60 65 48 43 74 52 55 60 65 74 85 87 107 153 158 168 153 156 135 97 64 75 105 78 37 34 52 107 139 55 52 54 74 69 67 76 126 143 146 179 196 196 196 198 196 183 165 134 134 124 97 107 117 116 96 90 83 67 78 53 60 58 72 61 87 89 64 116 128 128 149 179 175 175 175 170 147 172 184 174 165 156 151 140 130 111 85 76 78 53 55 52 58 66 27 42 58 49 52 58 54 65 85 60 81 125 150 169 152 166 138 110 54 87 102 86 37 40 60 111 128 91 34 55 79 73 61 90 111 139 155 166 197 195 195 195 183 180 162 118 128 110 102 107 110 94 82 69 65 57 59 53 52 61 63 66 88 105 93 96 116 127 136 165 170 167 181 160 152 165 171 167 162 149 143 127 135 100 53 78 89 108 108 89 73 56 45 54 60 54 55 54 51 53 61 56 47 92 105 156 159 168 143 119 61 69 102 95 54 50 68 88 131 101 31 71 69 79 80 79 94 133 165 153 198 191 201 188 184 184 134 111 98 91 112 101 90 70 47 36 40 33 34 43 48 62 67 74 93 104 105 114 116 129 146 156 170 168 165 155 155 161 161 165 160 146 142 128 141 96 207 218 219 155 121 106 110 115 124 134 131 122 107 108 100 97 87 84 70 77 62 85 117 166 161 119 74 61 89 119 57 55 74 80 121 91 31 88 77 98 88 71 100 144 174 147 195 193 198 190 180 157 119 111 86 103 82 83 89 91 64 165 200 193 207 143 95 109 78 77 87 88 81 107 121 147 155 167 167 172 161 161 166 162 157 162 166 146 135 131 123 79 163 157 131 131 143 156 168 161 162 161 151 146 131 133 139 125 108 101 91 103 92 88 87 69 156 136 72 69 88 102 85 72 78 82 107 94 38 57 70 101 115 76 80 161 177 160 184 198 193 184 169 111 135 107 100 92 91 88 106 103 100 148 183 176 163 145 145 147 134 132 128 121 102 96 84 80 131 176 179 177 169 169 179 161 169 162 176 164 145 123 94 98 118 141 152 161 151 142 128 122 112 106 109 109 109 121 135 133 126 115 116 91 100 101 109 113 60 163 89 55 104 66 106 68 80 81 97 103 57 75 65 69 111 103 79 160 176 180 180 197 189 190 126 115 110 93 104 128 141 138 155 171 175 177 172 165 160 148 145 149 140 151 148 148 136 123 112 110 70 102 201 189 184 173 182 175 169 165 183 185 130 79 94 119 133 142 123 112 105 112 112 124 117 121 122 118 122 123 129 137 137 148 139 116 100 92 95 131 73 114 114 39 108 60 92 90 90 86 105 93 96 68 70 41 84 113 97 147 183 192 175 197 199 178 90 77 117 127 139 156 170 156 162 157 152 138 128 116 112 108 105 103 100 105 108 112 114 117 112 96 106 41 169 200 190 201 214 151 138 135 139 153 103 89 114 126 104 95 99 103 109 121 138 141 153 148 153 154 158 150 152 150 148 166 149 133 112 102 88 114 127 85 132 42 95 76 78 97 91 109 85 114 102 129 66 34 65 122 97 141 181 193 184 193 212 113 69 128 141 153 168 164 167 148 149 145 143 145 148 143 129 118 109 99 95 87 92 89 92 97 88 84 84 64 129 143 114 197 145 73 79 69 54 59 100 106 110 88 83 91 91 94 100 106 105 102 102 82 94 100 120 139 151 153 150 151 142 119 94 93 73 82 104 86 98 27 110 95 50 94 90 118 75 133 91 120 92 39 83 103 95 156 182 194 187 190 201 54 130 136 152 176 167 166 170 157 167 166 158 143 120 94 97 78 73 82 92 85 87 80 81 88 90 86 78 80 96 62 71 131 138 139 133 115 107 48 114 89 80 71 81 83 97 107 104 90 46 101 115 20 50 42 57 68 84 108 127 141 131 103 85 79 62 52 66 76 28 11 191 157 43 80 91 116 87 111 76 84 92 53 84 74 68 155 189 195 195 191 162 76 132 150 163 173 172 181 178 183 163 119 91 72 67 56 109 108 27 53 56 88 88 98 97 106 90 91 91 91 101 66 143 169 179 169 164 155 146 94 81 71 53 83 100 89 83 110 146 78 56 77 53 11 65 34 100 170 50 56 79 105 143 133 110 107 91 84 90 84 61 6 159 153 43 73 90 93 110 107 77 114 99 46 76 70 41 146 198 198 197 188 167 101 152 164 161 173 179 188 188 139 80 62 81 84 58 67 72 46 37 83 56 127 123 92 88 102 138 115 118 122 72 106 171 176 178 169 156 157 149 123 63 64 60 120 71 85 113 165 189 125 54 83 65 51 69 45 107 186 89 68 87 76 105 165 155 146 134 127 141 96 153 35 41 96 79 68 84 78 133 112 92 110 112 66 91 71 20 101 179 201 159 142 144 118 146 147 151 163 176 179 113 53 69 101 116 137 69 80 82 56 77 86 85 164 155 117 165 163 93 165 168 159 51 119 195 182 171 171 160 158 169 118 55 75 102 98 110 128 143 163 169 162 122 127 99 97 94 110 143 157 130 156 152 98 93 130 174 174 165 152 176 116 143 94 9 65 63 78 74 87 126 132 67 111 90 55 100 73 47 53 128 239 120 47 48 121 106 110 118 152 148 106 63 118 130 146 145 152 134 114 119 119 118 128 141 166 155 138 143 156 153 162 195 175 46 152 209 178 173 160 157 159 176 154 43 85 104 140 169 170 171 184 187 168 174 145 160 155 141 160 172 171 182 188 176 151 118 116 139 180 184 181 196 143 125 150 10 59 56 51 76 81 109 142 51 130 93 60 56 54 38 25 48 200 39 48 38 125 101 102 135 149 100 95 119 151 160 170 170 182 163 173 141 157 165 150 158 157 148 146 150 158 164 185 190 159 56 193 198 178 171 160 158 157 172 188 78 54 146 135 168 151 161 172 174 165 165 152 164 161 161 162 168 171 183 201 185 168 156 141 142 151 160 168 190 143 111 182 22 46 71 60 70 65 101 107 43 125 105 56 49 44 26 80 165 195 173 187 98 133 138 144 159 125 117 132 160 167 175 181 177 183 170 172 156 153 162 144 153 152 139 144 142 145 166 189 176 140 70 200 187 175 175 166 159 158 168 186 147 45 112 124 149 139 143 142 152 156 162 167 175 172 179 175 180 176 191 187 175 178 179 166 161 173 171 179 199 135 108 192 59 51 65 60 71 59 98 88 50 96 127 55 41 45 30 140 189 193 193 212 98 145 172 173 167 143 146 170 184 191 193 194 187 186 182 180 176 162 152 139 139 129 131 128 142 156 165 164 173 85 139 196 186 175 175 171 168 153 150 182 180 94 69 125 136 143 147 134 130 137 138 143 145 153 160 158 161 156 168 182 185 188 186 181 176 179 179 180 203 106 122 187 100 62 61 61 68 74 88 73 62 76 102 60 50 42 56 165 187 190 192 211 105 131 167 170 169 169 184 196 199 187 191 197 198 195 187 177 160 150 139 130 130 131 140 145 163 166 165 161 172 69 177 189 186 173 177 169 172 163 157 182 185 157 41 128 153 153 155 159 149 147 141 132 131 124 132 143 154 160 167 170 172 175 189 183 181 187 183 177 212 75 153 184 113 84 57 75 86 93 76 72 66 76 72 66 66 61 84 159 190 184 189 207 129 114 171 169 191 192 192 197 197 193 202 199 173 178 171 155 146 140 142 143 152 164 162 159 171 174 176 191 130 104 194 186 191 175 175 176 165 165 173 184 182 182 98 41 174 175 172 173 170 178 179 177 174 165 170 169 172 181 183 183 193 184 184 179 183 187 185 181 192 39 189 180 125 86 69 81 81 97 82 66 70 89 74 80 90 68 109 157 186 182 185 196 164 67 173 189 189 192 200 199 208 205 191 176 174 169 167 162 171 166 177 172 168 172 171 180 182 188 194 207 82 158 189 185 191 178 182 175 170 170 180 186 178 180 160 44 100 196 182 180 180 178 187 182 182 182 184 189 190 189 184 186 186 182 185 190 179 187 187 200 138 94 188 172 158 77 78 82 96 105 69 83 53 88 79 89 79 76 122 162 171 184 181 181 211 56 176 191 191 194 197 203 197 194 197 200 201 201 194 196 193 198 193 188 184 186 188 195 195 192 201 157 97 191 187 187 192 183 178 176 171 170 178 182 174 178 172 122 25 153 191 185 183 182 184 177 183 178 183 188 183 185 179 179 186 184 178 188 190 185 190 190 67 191 172 166 168 91 70 85 108 122 63 78 66 101 91 92 75 71 114 164 169 179 181 179 218 64 147 197 192 195 194 191 198 199 201 200 201 200 193 193 197 198 195 190 187 192 192 198 191 187 201 72 169 195 188 192 189 189 178 188 172 170 173 182 172 172 181 156 105 45 159 186 180 182 182 176 180 180 179 182 176 180 179 180 181 185 184 189 187 184 137 125 179 197 171 161 175 104 53 100 122 121 86 58 97 96 86 103 81 80 112 163 161 184 176 182 196 159 73 204 196 194 190 198 200 199 200 199 199 191 192 189 191 196 195 192 185 192 190 191 179 189 126 102 204 190 187 194 189 182 188 188 176 171 164 168 175 164 176 182 107 128 70 130 174 183 178 180 186 176 185 181 178 182 182 184 188 182 180 148 119 101 134 191 200 192 168 164 174 117 63 96 157 111 93 44 98 118 89 82 97 81 100 168 158 180 176 182 187 212 82 128 206 194 195 198 202 200 202 199 195 193 191 185 190 187 192 187 185 183 182 185 180 148 75 163 196 186 192 197 190 185 193 187 181 173 162 165 173 167 163 176 128 130 144 85 85 109 131 151 169 163 170 169 163 150 141 132 113 101 113 129 154 189 192 204 194 192 172 168 164 141 60 70 142 149 97 72 102 147 125 84 90 82 98 166 172 175 174 186 194 194 185 76 120 196 199 201 201 200 199 197 193 190 190 184 185 179 185 177 178 178 173 166 136 98 143 179 186 189 194 198 196 187 193 192 173 170 167 164 168 174 158 169 144 130 164 156 121 94 87 84 85 85 87 93 97 101 112 133 150 170 184 195 190 190 191 199 192 187 176 166 166 149 71 55 101 167 129 87 109 166 136 83 89 98 106 153 178 170 183 188 196 196 191 169 129 100 140 203 208 195 198 193 189 188 184 176 169 171 168 185 194 166 120 96 108 160 167 177 188 185 194 204 202 193 191 194 184 168 168 163 171 173 163 162 158 158 160 174 161 138 122 115 104 105 106 105 114 122 122 125 150 156 164 177 177 184 183 189 185 181 176 164 172 136 94 68 65 118 108 89 91 149 108 75 104 112 94 154 177 173 183 187 197 196 190 190 184 185 171 144 158 127 130 139 144 157 148 142 141 133 141 132 106 118 137 166 170 176 173 181 192 188 197 201 200 196 192 196 191 169 172 168 165 164 170 158 158 163 177 157 156 167 168 167 156 156 153 152 152 161 158 156 156 168 162 177 179 181 173 180 177 175 172 169 174 142 105 66 66 101 73 116 71 169 104 78 105 94 86 149 165 173 179 185 195 199 192 188 181 183 185 187 184 172 159 154 143 137 139 130 147 148 163 170 182 186 180 172 165 167 180 186 193 190 193 200 197 193 194 192 190 174 171 167 172 168 188 166 165 154 167 170 141 154 159 161 168 171 171 179 170 184 180 175 177 192 184 193 194 184 184 176 178 175 170 173 177 140 107 79 78 87 76 84 79 171 105 89 122 73 103 129 168 180 178 186 191 198 199 191 181 185 190 191 184 184 186 183 184 191 190 189 193 187 189 189 187 186 166 157 142 175 183 191 195 193 194 205 191 190 191 190 191 178 175 168 168 178 202 180 177 167 172 172 151 142 149 152 158 162 166 171 172 177 181 175 176 191 198 193 198 192 192 179 181 175 175 168 179 144 93 78 79 87 94 61 56 177 93 101 102 69 98 132 152 185 177 186 187 198 198 197 191 196 197 198 200 199 203 193 194 195 191 191 191 188 183 190 178 163 153 133 139 196 192 192 198 198 195 205 197 186 190 185 185 177 167 163 160 179 180 170 188 178 185 184 155 130 141 144 150 161 160 161 170 173 175 173 182 186 194 190 202 193 186 183 181 178 184 173 174 160 100 69 65 71 102 64 49 202 106 92 103 83 92 147 153 186 181 184 184 195 197 198 198 199 201 202 206 198 205 198 191 196 193 188 185 181 181 171 159 138 140 135 169 195 200 196 200 193 190 186 184 184 174 181 169 166 158 155 153 152 144 141 157 157 163 177 161 117 132 143 146 156 154 149 163 164 168 171 183 178 186 191 201 196 186 187 182 189 187 175 175 155 82 86 67 56 92 54 53 215 124 92 82 101 89 145 153 186 183 179 191 194 194 193 199 197 201 199 204 199 202 198 186 193 188 176 174 179 174 155 148 142 132 143 180 197 188 175 173 170 167 163 159 163 151 162 151 147 142 144 134 139 123 96 96 104 121 155 129 112 139 139 143 143 153 149 154 161 166 176 175 180 185 190 196 190 189 176 178 187 187 175 180 149 77 92 64 62 90 59 43 165 157 83 77 93 87 128 154 183 188 181 191 195 193 196 194 194 198 195 201 199 198 192 190 188 176 176 186 170 159 145 138 134 130 157 156 177 149 119 89 77 77 95 140 154 137 141 131 122 115 119 127 107 51 36 37 49 91 136 86 110 145 135 135 140 145 149 151 148 158 170 171 178 183 185 197 187 188 172 179 186 178 177 173 142 76 80 77 75 95 63 41 96 139 94 78 81 92 105 147 178 176 185 186 194 192 192 191 194 192 197 195 200 193 190 188 185 179 186 184 154 152 137 132 132 144 174 152 125 121 81 50 72 61 62 81 109 132 119 97 84 94 115 126 79 109 146 86 74 113 113 96 127 147 142 135 139 143 145 144 145 152 154 161 168 173 194 188 189 180 175 177 179 177 178 164 138 75 82 82 82 87 69 44 53 160 114 92 96 90 98 143 159 176 184 187 196 194 194 192 187 196 195 200 189 192 181 189 172 173 172 160 139 142 140 126 139 165 171 173 99 121 114 111 129 135 150 122 94 124 117 73 71 106 104 92 89 102 142 118 116 116 140 128 159 165 151 146 125 139 136 142 144 142 146 147 167 169 173 184 190 166 185 177 165 171 168 157 137 82 82 99 74 72 69 44 14 166 136 79 99 96 102 121 170 179 176 185 198 193 190 192 193 189 199 192 190 189 184 175 169 173 163 148 139 136 130 131 154 170 169 180 177 163 151 165 166 158 155 118 116 104 108 77 72 75 53 56 76 73 93 90 113 131 148 152 166 177 171 148 134 124 131 138 141 144 146 137 150 171 159 184 189 173 174 182 170 169 170 157 132 79 83 92 77 89 68 37 36 80 142 75 86 100 100 100 172 178 169 173 190 188 193 194 191 191 196 188 189 186 186 173 173 164 160 142 139 130 132 143 161 173 179 187 184 198 174 180 178 157 123 111 108 98 77 59 50 47 45 67 74 86 85 88 101 120 136 168 162 182 174 168 150 127 122 129 135 141 144 131 143 156 162 170 186 177 164 180 176 157 159 165 116 88 78 71 95 85 59 50 48 42 102 116 94 102 101 85 145 181 156 156 190 189 193 190 191 194 193 195 181 188 180 178 170 162 157 138 138 134 131 150 168 181 184 191 183 188 169 168 148 141 98 115 113 93 104 75 55 57 61 89 111 92 125 63 106 102 110 135 142 154 171 157 162 138 121 119 130 141 137 138 131 159 153 157 179 175 164 176 172 158 141 167 106 84 79 75 86 93 58 48 48 45 73 131 117 87 119 92 111 180 154 145 178 183 187 185 192 188 194 188 184 186 177 168 163 149 145 137 135 130 139 162 175 188 188 186 194 178 166 186 147 116 94 126 107 125 102 104 75 81 68 107 115 94 138 67 92 96 102 114 120 117 146 156 137 151 123 128 116 137 133 134 127 150 157 149 170 170 168 160 164 159 145 170 99 81 80 67 70 77 63 43 51 42 72 97 122 79 107 87 116 171 155 144 176 177 185 187 187 188 188 186 188 183 170 167 156 146 140 135 128 129 158 174 170 182 176 190 164 154 156 158 132 109 100 121 113 127 85 89 112 108 84 112 96 110 106 86 83 94 90 91 119 102 133 135 137 96 142 124 110 125 139 139 140 143 153 158 164 171 170 151 157 152 131 167 85 72 97 61 72 70 49 45 50 52 63 73 119 100 114 95 112 162 159 148 169 180 177 186 187 191 184 189 186 169 160 161 145 150 133 128 125 140 171 164 161 160 155 184 124 141 154 132 128 88 112 116 118 114 86 88 99 113 103 82 85 85 121 88 106 78 79 100 101 102 128 107 113 89 116 129 100 105 141 137 133 146 148 154 155 171 166 148 157 153 146 163 97 52 92 57 73 80 41 43 50 58 41 73 113 127 109 109 105 130 164 154 165 172 176 183 184 188 179 183 182 169 155 146 142 143 126 127 122 138 148 139 144 139 120 157 103 137 144 111 97 85 105 103 114 86 92 78 98 103 97 72 80 93 80 90 127 69 90 87 91 89 109 90 100 86 89 113 118 99 125 142 129 126 152 159 162 162 172 145 150 151 138 144 71 73 89 61 80 69 41 47 38 49 46 71 111 146 100 118 99 119 160 154 165 165 171 169 177 179 175 168 176 165 150 136 140 125 124 125 109 135 128 115 124 115 113 136 95 137 117 112 77 103 77 88 123 97 73 84 96 91 92 77 83 82 86 49 110 87 103 78 65 112 88 92 81 94 83 81 108 95 101 144 140 122 134 157 160 153 175 147 139 159 143 113 62 66 65 76 72 63 42 40 40 53 45 94 97 142 104 114 73 120 168 162 159 162 167 163 170 170 178 166 170 152 144 130 136 125 143 99 114 127 104 106 94 99 113 102 92 124 102 101 101 83 85 95 98 112 40 82 80 86 95 82 65 80 66 101 78 87 100 88 79 104 84 74 56 99 46 66 82 90 82 139 135 107 139 150 158 137 174 143 127 156 120 89 47 88 59 67 60 56 44 45 42 48 78 62 79 124 101 93 76 109 134 148 156 159 167 164 168 171 182 166 166 147 140 119 136 152 143 101 117 111 87 89 79 88 101 79 96 103 111 91 110 80 81 77 67 84 61 74 73 86 81 92 78 72 80 89 92 70 80 78 98 90 87 62 41 70 33 52 76 90 83 134 130 119 128 147 135 135 140 132 124 124 113 88 68 80 65 60 78 35 51 44 39 65 61 28 100 113 93 74 90 117 111 141 141 151 158 161 164 165 175 166 159 157 137 126 143 170 129 97 103 94 72 73 68 70 72 92 89 103 110 100 100 102 82 69 58 77 70 66 84 98 90 103 80 77 73 71 55 37 41 44 55 55 47 43 42 26 52 61 78 82 83 106 119 119 115 134 133 124 125 95 108 101 57 110 68 62 76 52 79 41 48 44 41 65 50 39 120 80 81 75 87 111 97 122 127 137 157 151 154 163 167 152 154 160 136 123 162 180 110 75 105 82 57 47 48 50 66 75 80 88 91 70 64 81 61 52 55 54 59 51 62 59 74 63 59 70 37 43 34 24 20 22 20 27 26 28 30 33 66 92 86 77 106 91 110 104 108 110 111 114 113 101 84 88 55 95 91 59 62 53 60 44 49 48 49 53 37 68 91 79 87 69 100 101 90 99 102 118 147 132 154 162 173 158 159 152 126 131 166 167 92 87 87 87 61 36 27 31 44 32 30 36 32 27 39 43 34 43 52 61 53 56 44 40 67 57 59 61 42 30 37 55 66 69 66 55 58 62 63 67 82 85 87 66 85 102 96 119 89 98 88 117 93 85 93 91 54 69 73 70 59 44 43 51 40 44 52 49 43 79 55 82 99 80 100 98 90 77 85 105 125 125 131 136 169 155 135 146 108 133 157 146 102 62 80 68 55 25 57 69 75 70 68 69 68 55 75 78 39 63 72 46 56 71 47 59 76 69 53 76 78 84 118 135 138 123 119 108 110 91 98 96 100 71 63 94 70 89 105 116 94 79 91 92 77 78 86 90 55 55 57 52 63 45 52 43 48 43 53 47 67 54 55 79 83 68 78 91 79 76 77 105 110 117 126 117 137 136 118 131 101 136 146 134 102 62 85 55 63 75 108 116 126 121 121 149 151 143 145 136 119 107 115 107 103 116 111 127 125 125 122 125 140 141 139 167 177 157 158 152 119 122 116 111 112 71 75 89 65 88 92 86 116 69 72 93 75 65 67 80 56 44 63 49 54 48 46 38 47 45 47 52 60 49 51 58 66 73 62 71 54 74 70 84 87 88 114 104 108 108 113 109 98 118 147 127 105 69 85 61 65 115 140 142 134 150 160 172 170 181 172 165 160 146 156 150 142 154 137 157 148 157 153 149 140 157 148 163 172 172 169 149 120 124 113 135 117 79 77 82 53 82 89 85 99 74 75 83 66 65 58 90 62 56 70 42 58 43 52 43 46 52 56 51 52 49 50 36 67 78 70 68 45 74 71 75 74 84 101 81 102 87 113 102 84 106 140 120 92 93 62 81 78 128 149 145 140 143 158 177 182 183 170 166 162 150 161 160 159 158 148 151 153 161 150 139 140 152 153 157 157 151 155 148 129 121 122 129 120 98 66 87 80 79 81 86 93 67 63 70 66 50 48 85 53 75 55 65 59 50 42 52 44 45 61 49 55 49 46 42 65 74 70 62 60 65 81 57 68 94 94 71 87 67 110 86 86 96 106 114 78 93 48 83 102 132 149 143 148 147 161 154 156 162 165 168 162 154 154 157 156 151 156 150 150 143 142 137 139 144 143 140 143 145 153 143 153 119 121 113 98 112 49 74 79 86 80 68 82 72 47 73 62 61 42 68 56 50 44 68 48 35 46 44 44 47 57 54 56 49 48 52 56 65 63 60 64 62 60 59 56 70 84 80 74 72 83 83 90 96 77 105 77 93 50 69 119 142 148 150 153 154 162 156 145 167 153 150 143 142 141 139 139 133 134 124 128 121 121 113 110 142 130 133 138 131 147 136 132 119 123 111 91 88 72 54 54 70 75 60 81 48 56 69 61 52 68 41 58 48 53 57 55 38 42 45 41 53 62 54 52 48 46 49 56 60 51 81 55 56 57 55 51 64 63 75 61 61 87 78 83 84 81 97 74 106 52 56 111 140 145 148 153 163 157 165 155 155 145 124 139 145 124 126 133 101 109 116 120 110 110 107 107 135 128 132 140 122 131 125 127 121 116 115 75 84 68 67 54 48 69 80 61 54 55 68 55 50 46 53 52 51 61 57 55 41 41 41 48 50 56 53 51 50 57 54 59 53 75 74 46 64 62 47 47 57 55 56 56 52 93 72 63 81 69 85 62 71 87 61 108 132 140 148 152 162 160 167 163 148 148 125 149 144 126 124 108 113 109 119 97 115 98 107 103 143 124 121 107 106 120 117 125 120 110 112 86 79 77 55 58 64 50 69 54 60 38 57 51 41 55 53 67 55 61 56 45 35 39 41 48 47 57 54 53 53 49 45 56 46 72 64 56 62 64 47 42 60 45 39 52 59 81 65 56 67 60 73 56 70 61 73 107 123 129 140 146 152 152 161 140 135 144 124 134 126 115 128 89 119 104 99 97 99 103 91 114 103 112 100 102 106 112 125 117 125 101 110 80 80 47 65 41 64 57 37 57 53 50 46 32 47 62 31 63 60 54 64 38 39 36 43 41 49 60 56 54 53 52 36 61 39 45 93 50 61 63 44 46 53 29 48 77 70 80 47 45 59 51 59 69 70 45 79 105 116 121 136 146 140 135 146 134 131 143 118 126 117 102 117 87 109 91 69 101 64 103 75 94 101 103 103 93 97 113 121 112 109 108 101 89 68 58 48 46 40 72 30 53 65 34 56 29 57 60 41 57 56 47 55 38 36 39 41 44 47 55 53 55 52 53 42 51 34 39 90 46 54 51 46 51 52 37 68 62 65 75 36 51 47 51 50 62 50 50 74 86 99 111 119 131 129 126 129 129 131 131 112 118 119 96 104 72 106 82 64 84 60 82 66 77 84 74 94 96 97 112 122 109 99 108 83 70 68 85 44 50 32 43 46 38 53 49 45 30 54 41 54 37 61 53 40 38 38 34 42 47 47 59 55 54 54 47 47 43 37 44 67 43 54 48 50 46 65 49 60 55 67 53 40 50 40 58 45 62 50 69 62 82 83 93 106 114 117 124 124 127 135 127 112 116 113 112 102 96 108 86 80 77 72 73 70 77 102 86 88 114 113 119 130 131 105 116 82 51 55 66 46 37 40 34 40 52 60 45 44 35 28 31 45 48 52 47 42 37 38 37 39 43 46 54 55 54 58 46 45 41 47 45 53 48 52 54 48 58 71 54 61 49 63 45 43 42 49 56 57 53 55 75 71 67 58 74 94 114 93 114 129 118 126 130 139 154 128 143 114 135 115 92 104 112 90 90 94 96 110 121 119 112 130 138 124 113 109 106 84 67 65 65 49 41 32 49 41 49 60 32 35 42 45 40 34 55 52 37 37 38 36 40 37 41 46 52 49 61 52 53 45 38 57 47 49 54 54 48 50 68 52 57 51 49 48 58 37 50 44 47 54 46 42 62 74 63 52 67 102 103 65 130 111 131 115 119 134 154 147 140 133 144 133 115 105 125 119 120 121 124 109 125 129 116 120 131 110 84 97 95 71 56 109 47 67 50 65 45 53 49 68 40 37 33 57 53 49 35 60 36 43 39 37 39 38 45 50 47 58 53 53 53 43 43 42 42 49 58 62 47 44 53 60 36 63 38 51 47 48 48 35 46 47 40 42 41 58 66 50 65 97 76 68 109 79 103 95 125 145 130 149 155 130 151 140 130 113 125 118 146 126 136 128 111 129 100 102 107 91 89 82 80 112 42 114 44 56 33 41 47 38 49 51 39 38 32 49 58 54 40 42 40 35 38 33 39 39 44 37 50 60 54 56 52 49 48 39 38 46 52 49 52 41 53 49 42 38 51 41 45 60 37 31 43 35 51 38 43 51 53 52 72 62 67 71 89 77 78 87 123 117 109 138 157 115 141 136 141 115 117 104 120 128 120 147 98 129 106 88 104 102 93 89 84 108 50 93 75 47 43 27 32 49 29 46 35 32 42 32 67 57 41 43 32 43 33 35 39 40 42 38 49 58 57 53 51 46 44 36 43 43 44 46 56 52 65 45 42 39 41 39 61 50 30 37 47 37 42 48 49 39 47 51 69 54 73 92 75 71 85 76 115 103 111 133 125 98 132 132 134 121 124 100 111 119 108 123 99 122 94 91 98 101 81 94 102 114 57 80 78 54 48 49 31 37 41 28 55 30 67 25 46 26 68 50 31 41 33 37 38 36 45 44 56 54 56 51 54 47 42 38 41 36 47 49 62 45 53 50 41 45 34 54 48 38 31 39 33 35 60 39 51 33 41 52 58 73 75 75 63 60 92 68 80 99 107 118 121 98 108 119 108 106 112 94 99 98 104 103 90 90 76 61 98 99 75 95 104 87 97 61 42 52 53 41 32 20 53 25 41 45 94 16 30 24 22 53 67 39 35 36 37 38 41 44 59 55 54 52 53 45 41 42 35 40 39 55 54 27 62 55 37 45 35 52 37 36 31 33 33 41 55 33 30 41 32 51 55 78 58 61 66 68 78 52 73 90 88 96 111 83 84 106 84 93 84 87 90 85 85 123 77 81 61 56 87 116 58 89 125 65 77 70 37 47 74 28 26 23 45 34 33 73 97 18 21 22 21 22 37 81 38 34 38 38 38 42 58 55 51 52 49 47 44 41 39 39 41 53 39 46 69 89 41 30 38 53 44 28 40 41 38 48 49 35 25 39 48 44 51 85 42 73 48 69 82 49 73 70 66 79 94 75 80 114 75 84 81 73 71 85 90 103 61 98 64 67 99 112 73 87 109 75 29 96 60 44 61 27 50 22 44 30 80 77 117 26 17 24 17 28 22 38 94 44 37 34 45 42 56 51 54 54 47 47 47 41 43 32 42 39 38 85 66 79 36 31 42 50 53 40 35 63 47 36 46 41 30 45 57 46 39 77 62 80 48 65 69 61 64 63 66 58 84 68 71 96 70 67 69 74 63 72 74 67 56 77 56 52 111 107 93 82 89 42 66 68 65 69 45 35 31 37 30 48 103 96 134 27 19 19 22 26 24 23 46 99 41 33 41 41 57 53 55 49 48 48 39 47 38 36 37 41 46 103 67 63 31 39 38 62 49 41 32 59 47 41 38 32 37 34 63 56 36 47 81 70 25 68 53 43 63 68 45 55 72 73 48 82 60 42 66 64 69 44 52 78 39 76 58 54 104 98 64 91 65 26 76 48 66 60 41 32 30 31 43 69 88 101 128 36 17 15 23 20 26 29 21 79 109 79 80 72 60 53 63 60 65 67 70 72 71 76 78 71 72 116 68 42 41 19 32 57 72 43 54 53 45 54 33 51 38 33 57 49 54 35 60 77 31 52 46 29 73 36 47 57 51 59 58 51 49 48 68 47 47 47 38 80 53 64 58 43 79 96 57 75 63 38 46 60 48 38 44 24 28 40 81 102 114 112 134 51 10 20 22 22 25 27 24 44 105 99 77 83 108 104 110 114 108 109 109 99 103 96 94 34 92 117 60 30 30 28 42 38 89 39 55 39 47 52 39 33 53 28 42 67 52 35 40 75 58 43 32 33 64 29 46 39 47 46 55 42 45 63 50 48 33 52 44 60 35 41 65 41 62 89 40 77 47 49 35 44 36 44 41 30 22 88 102 108 125 124 135 67 11 16 23 18 24 30 29 25 87 115 88 80 121 114 119 121 118 110 114 102 95 99 70 18 120 110 56 35 27 27 36 35 95 42 66 51 55 46 39 45 37 25 67 42 51 46 34 79 54 24 25 38 53 37 36 46 43 37 49 37 40 78 42 36 28 44 36 70 27 45 80 54 72 66 64 48 47 58 48 38 37 33 48 45 34 122 115 116 126 120 133 61 6 17 24 15 23 32 28 29 80 118 104 95 106 124 120 122 117 111 100 106 88 89 55 35 138 101 59 40 25 12 33 13 101 56 98 84 54 66 29 40 40 45 57 26 46 47 31 46 47 31 33 35 46 32 39 33 24 36 55 27 44 52 66 33 36 28 29 62 25 35 66 38 67 67 49 43 48 72 48 30 37 28 74 69 64 118 118 115 129 119 135 51 14 15 21 24 17 34 29 39 88 110 126 88 96 120 125 115 107 103 82 97 92 78 42 55 145 116 75 43 24 8 27 21 67 74 109 108 71 97 36 40 58 43 39 33 47 34 35 54 34 39 47 30 50 38 36 25 24 45 40 40 36 45 42 55 42 20 35 50 35 43 51 35 59 78 51 48 49 65 71 32 32 45 93 78 92 113 121 114 131 118 132 30 8 14 21 21 28 25 40 43 101 111 137 97 86 117 124 106 102 85 73 81 100 81 24 104 148 127 97 57 28 12 15 19 23 100 111 116 83 89 43 67 39 39 33 27 54 28 54 70 23 43 28 31 51 31 36 24 45 21 47 32 43 29 24 55 48 18 59 34 46 42 48 25 48 52 61 36 67 40 74 47 51 92 97 103 101 112 118 114 131 121 116 17 12 14 17 24 28 34 47 71 94 118 127 137 