P2
92
112
255
48 50 51 56 46 53 58 47 53 57 51 55 52 52 62 57 56 58 66 43 50 44 46 42 52 46 33 54 70 56 35 35 39 50 44 32 36 39 45 56 52 66 60 53 49 50 62 48 48 53 42 36 39 35 49 50 47 43 52 46 57 60 60 52 63 50 53 58 54 55 65 50 60 55 48 45 56 56 53 62 56 52 51 55 53 55 52 54 50 50 50 52 49 54 50 50 48 55 51 54 58 59 52 57 55 49 34 74 53 50 50 48 40 33 48 43 40 34 44 76 33 45 37 39 32 46 50 49 58 71 64 79 71 77 69 67 64 75 73 60 58 67 64 55 49 43 42 46 42 51 56 53 61 47 48 53 48 53 49 46 55 58 53 58 54 56 54 46 52 52 57 62 57 60 49 53 50 54 46 51 53 50 48 49 60 50 52 50 49 54 57 51 59 58 49 56 49 49 46 53 58 43 56 43 31 44 38 45 32 31 59 63 20 48 42 41 44 73 74 89 81 81 82 96 86 88 89 74 76 95 76 88 98 98 95 95 59 59 51 47 42 50 46 60 57 50 55 48 38 48 49 42 48 51 54 46 70 54 56 59 57 56 59 66 50 52 60 52 55 52 51 47 50 52 48 47 52 51 50 53 61 56 61 54 46 52 46 49 46 42 48 55 54 54 53 34 36 43 30 37 31 19 99 40 31 47 48 54 82 76 98 122 85 92 94 100 91 91 106 93 102 105 110 117 104 111 103 99 92 76 71 66 57 50 53 53 48 51 54 52 39 43 40 42 59 43 48 40 64 58 58 72 59 63 72 65 59 50 58 48 74 56 49 49 49 50 54 46 55 52 56 55 58 70 45 53 46 55 51 50 38 48 49 41 41 45 45 30 42 36 34 36 34 16 116 47 48 55 66 86 95 85 103 116 98 108 103 97 102 116 108 95 109 104 121 122 118 122 116 116 110 98 88 96 77 74 65 52 55 50 56 47 49 43 28 43 45 43 48 40 52 60 56 58 53 64 58 71 68 51 55 58 72 54 60 49 53 52 50 49 56 50 56 62 56 64 49 54 53 49 49 45 42 41 42 26 38 36 41 39 39 32 31 36 42 19 83 78 55 81 88 99 100 100 111 105 107 115 95 109 122 129 119 99 126 120 117 128 128 122 130 122 121 117 108 105 97 91 92 76 64 62 57 60 48 50 42 42 35 35 45 49 47 54 49 61 55 63 56 67 72 67 59 62 54 61 63 67 53 45 54 51 47 57 67 59 55 61 50 52 48 37 45 44 34 27 34 25 38 41 37 47 27 45 32 42 35 35 67 86 84 97 97 113 106 104 114 109 105 102 117 124 118 128 116 120 113 122 130 124 127 128 129 127 129 130 118 116 111 102 99 84 72 66 72 65 64 59 45 51 39 38 36 36 45 60 50 46 59 65 58 50 68 68 50 58 49 81 58 71 62 51 56 51 55 61 63 61 61 60 56 40 41 38 33 35 33 31 31 37 50 46 34 37 36 29 37 43 44 68 74 101 104 109 106 113 116 101 117 105 106 120 125 120 114 125 129 129 123 132 129 127 129 130 128 131 130 128 129 117 114 105 102 96 94 85 79 62 77 66 60 60 44 49 42 37 54 80 44 47 62 60 59 42 58 70 49 59 51 90 49 66 67 65 54 55 65 58 69 59 58 46 59 39 39 34 39 43 46 35 39 36 61 39 33 35 46 40 41 50 66 86 91 108 115 113 115 127 114 112 114 108 109 120 120 124 121 139 137 128 135 138 132 130 132 133 132 129 133 129 126 132 123 112 108 99 108 98 89 80 79 69 70 66 64 56 51 48 77 51 45 55 62 62 47 56 55 58 51 47 65 65 53 71 67 61 68 46 69 74 59 53 49 52 46 46 55 52 59 45 48 29 42 41 65 37 38 33 49 52 52 71 95 99 107 119 116 119 123 121 122 115 112 120 117 116 120 123 129 137 131 137 138 140 140 132 135 135 135 126 131 126 128 124 127 122 117 117 96 100 103 98 88 80 80 77 76 72 62 61 55 54 54 52 46 80 45 62 53 62 46 53 60 58 49 62 75 63 62 43 103 68 47 57 59 47 48 67 74 55 39 28 45 34 41 35 54 45 41 36 56 59 81 96 106 113 120 120 114 111 124 118 121 115 117 119 126 119 128 127 129 129 133 139 130 129 142 139 137 132 129 118 127 124 131 124 120 127 112 120 109 114 104 99 107 92 94 92 81 78 69 66 54 60 52 43 55 74 49 49 60 51 55 55 48 49 61 55 87 64 56 42 106 45 42 79 65 59 68 61 65 50 28 47 34 47 44 30 53 48 46 47 65 84 95 111 111 128 115 120 123 114 128 115 123 115 118 119 119 134 127 128 121 135 132 141 132 137 138 138 136 131 128 122 126 127 126 128 128 126 132 112 109 110 112 114 110 110 100 101 92 89 82 67 66 62 49 56 54 53 60 51 56 60 60 52 53 44 53 77 74 75 59 49 73 33 44 80 74 72 81 53 65 37 38 65 53 56 41 40 50 56 44 70 93 101 109 119 125 126 129 128 134 121 121 119 115 120 109 123 128 128 120 133 136 143 132 136 131 134 140 142 138 133 131 134 132 132 129 128 129 128 128 120 117 114 105 117 120 109 105 103 87 83 90 81 89 78 48 55 66 54 54 48 55 45 64 61 52 40 66 59 59 76 73 63 46 42 70 80 79 75 50 61 62 47 60 57 56 53 51 41 55 56 75 85 102 115 122 126 137 133 124 140 131 127 127 122 113 121 125 133 127 127 138 135 141 140 137 129 141 139 145 141 137 140 137 133 132 139 133 132 134 125 134 126 129 122 115 121 121 116 109 114 99 94 88 91 94 108 64 45 56 53 50 43 61 42 46 57 54 44 46 71 61 68 73 62 35 54 87 81 103 57 46 72 69 67 68 51 56 42 51 52 54 73 91 98 105 128 131 133 143 142 134 141 139 141 120 129 122 131 136 142 133 144 146 132 163 143 138 139 140 142 145 147 144 142 134 140 136 137 133 133 136 134 133 134 128 128 128 126 122 119 118 115 111 107 101 94 104 102 94 61 52 47 56 53 56 43 41 47 62 46 44 77 78 60 71 66 23 94 92 86 89 56 42 79 67 66 51 50 57 30 58 59 76 84 105 108 120 138 132 140 147 140 144 138 143 145 119 133 133 144 148 147 148 147 151 145 163 141 144 149 134 139 147 151 151 144 147 139 145 139 139 138 137 139 136 138 126 130 131 129 126 127 122 122 113 115 101 105 101 106 102 94 54 53 43 57 61 45 48 53 60 55 55 87 73 65 64 70 42 122 79 86 70 63 40 109 64 47 43 42 53 42 65 67 83 99 115 119 136 135 142 147 147 139 137 143 148 147 132 140 142 154 150 154 154 146 150 163 157 138 146 151 140 136 152 146 147 153 146 143 146 139 146 142 138 145 136 145 128 132 139 129 132 137 127 123 121 119 117 108 107 110 105 114 85 56 46 36 60 49 57 60 52 57 58 57 76 65 59 76 58 118 69 69 77 58 64 95 55 40 34 37 60 68 67 82 103 121 119 127 145 136 149 151 142 132 145 156 154 153 138 147 146 151 161 155 157 148 150 172 146 145 146 157 151 146 151 152 151 156 150 147 156 142 145 143 147 145 144 147 132 138 139 137 133 134 136 131 132 127 131 111 115 118 111 118 105 79 66 34 52 49 57 45 61 56 48 60 58 76 66 64 88 122 57 72 75 70 61 62 56 38 34 50 74 67 90 96 124 130 133 134 139 141 144 145 141 147 156 151 157 161 148 151 159 149 165 161 162 149 171 155 149 153 152 154 160 151 158 158 160 154 154 155 154 150 149 143 152 150 146 150 140 147 142 141 142 139 141 142 134 131 136 132 111 123 119 114 116 103 83 49 70 49 46 44 51 67 50 69 72 73 64 72 98 102 64 61 79 67 64 48 56 48 50 60 87 82 103 111 138 137 132 145 144 144 150 139 146 157 147 162 168 167 156 164 160 162 167 163 167 169 172 158 159 157 163 157 163 153 153 162 160 162 159 155 164 157 156 152 150 153 145 151 149 146 148 147 148 143 140 142 143 128 137 141 129 118 127 124 118 114 104 69 64 62 44 50 47 65 49 74 85 53 67 71 89 69 63 86 76 59 74 56 59 64 61 74 88 107 109 132 143 148 142 153 145 151 150 153 149 158 159 168 173 171 149 173 160 160 173 177 176 174 172 166 163 163 168 166 165 160 154 167 157 161 163 159 160 158 158 155 156 150 155 155 151 152 144 152 151 143 148 146 143 136 139 144 147 128 125 132 119 123 115 101 61 68 39 62 47 59 46 59 80 58 67 59 68 66 63 88 67 62 62 54 58 61 70 106 97 113 129 142 148 150 152 151 153 156 154 157 155 167 167 168 169 173 144 174 166 166 184 185 182 180 175 175 170 169 174 176 173 165 165 176 162 167 169 161 164 158 160 156 159 159 159 154 161 152 148 155 154 147 155 146 150 145 145 146 149 142 131 130 131 116 136 114 96 62 43 55 53 61 55 46 66 64 68 55 65 63 78 75 64 62 51 64 66 60 87 111 106 126 139 150 151 146 157 160 160 159 157 166 163 166 172 174 170 179 138 180 169 167 184 188 185 186 191 190 188 173 192 182 190 176 167 184 177 175 169 161 167 164 159 167 158 166 160 157 157 157 157 154 156 152 157 152 154 155 149 157 151 150 137 137 139 132 136 121 111 77 50 51 51 66 60 52 70 67 75 61 52 83 71 71 64 67 58 69 63 70 95 113 109 132 145 160 152 155 160 162 154 158 166 170 165 164 177 172 177 187 155 170 169 173 184 187 186 191 200 198 194 179 187 181 188 178 175 180 184 179 178 160 174 164 165 171 162 169 162 163 158 162 160 157 156 159 157 155 159 158 152 157 154 153 149 148 149 139 136 130 115 106 59 54 65 76 40 62 63 63 74 60 65 85 56 77 64 80 66 69 61 79 109 109 120 145 162 167 160 158 155 161 165 168 169 168 172 170 178 175 179 187 170 163 171 173 190 186 188 192 198 203 199 184 187 183 182 180 179 174 180 186 176 169 168 164 169 171 176 172 160 171 163 166 164 164 161 162 162 165 161 158 153 159 155 163 172 152 165 150 142 133 123 119 92 55 55 87 38 63 62 65 69 68 83 69 69 69 80 77 77 57 74 96 106 112 137 154 168 171 158 154 164 169 179 174 167 172 177 174 173 183 183 187 175 162 175 170 185 193 191 193 190 203 189 190 191 182 188 175 174 185 182 191 185 162 168 171 163 175 177 168 165 169 166 164 164 167 162 164 162 167 160 160 161 160 178 180 180 165 160 158 145 140 126 134 105 69 58 74 41 70 63 74 62 64 90 72 71 75 85 91 66 56 82 94 116 120 149 158 170 174 159 161 176 176 180 172 176 175 179 176 179 182 181 181 185 166 185 181 184 191 192 192 191 185 189 189 188 190 191 176 176 186 182 190 180 164 167 175 164 172 179 171 169 164 170 164 158 166 168 156 169 164 163 167 159 176 189 180 177 172 163 166 154 141 125 134 130 90 54 77 60 73 65 81 75 63 118 62 73 83 78 83 68 66 94 98 130 128 154 160 172 167 162 168 170 178 179 181 188 183 183 178 184 185 182 188 184 175 187 190 185 185 190 191 189 186 186 186 187 190 186 172 181 181 185 186 180 175 166 174 163 174 177 169 167 165 164 166 164 165 167 160 169 170 168 165 168 186 185 167 171 171 166 164 155 153 131 134 135 127 50 78 71 77 69 73 72 93 118 59 73 89 75 68 79 78 94 104 142 130 157 170 176 168 175 171 169 181 183 187 189 184 186 181 188 186 187 187 176 181 190 191 185 184 187 190 184 188 185 187 187 188 185 180 173 180 189 177 180 176 170 171 164 175 179 169 167 166 164 164 168 164 163 163 162 166 167 172 177 183 179 169 175 169 165 164 168 140 148 152 129 156 66 77 72 73 69 73 73 79 111 60 73 88 69 73 84 79 89 115 145 127 156 170 179 183 183 172 168 193 190 189 188 189 179 185 191 183 188 186 179 189 188 192 187 187 188 189 193 184 192 188 189 190 183 182 182 179 185 173 179 167 171 166 162 180 175 171 165 169 167 167 164 165 164 162 164 168 175 178 181 179 174 179 181 173 163 174 174 142 145 158 144 136 91 79 77 84 76 78 82 66 98 67 80 71 72 81 82 64 89 117 145 132 154 175 187 184 186 177 181 191 192 196 190 191 177 191 192 188 186 188 184 189 186 191 189 192 191 190 193 188 196 190 190 187 192 179 191 181 183 175 174 171 167 170 159 177 175 170 167 173 168 166 166 166 165 162 167 169 170 180 181 182 184 185 188 179 173 182 179 161 160 156 148 133 96 90 40 117 89 72 87 76 86 76 70 68 68 110 68 71 87 133 136 145 151 179 187 186 191 184 189 188 196 197 193 192 185 186 200 181 184 187 187 189 188 190 194 190 191 192 185 197 191 198 190 191 193 180 192 182 181 175 167 170 171 167 169 173 170 175 176 174 165 164 160 164 166 167 166 166 170 172 173 168 174 181 184 179 188 184 166 180 161 175 150 139 114 87 59 79 96 86 66 119 95 68 62 70 75 97 78 54 93 123 130 154 153 174 185 190 189 188 192 195 197 197 197 196 186 190 195 186 188 190 189 192 192 191 197 186 193 193 188 193 196 195 190 194 188 190 192 188 180 177 169 166 172 166 166 169 168 182 176 169 165 164 160 163 167 166 170 167 168 164 175 179 176 181 178 179 176 179 174 180 167 188 167 140 129 86 82 41 90 89 75 121 73 62 50 68 71 85 86 52 80 107 137 156 154 155 188 190 191 193 195 198 197 200 197 198 191 192 187 192 190 187 186 190 190 189 193 191 192 191 194 188 194 193 194 191 181 199 191 192 183 173 172 169 174 166 165 165 160 192 171 169 170 163 166 165 163 168 168 169 169 164 177 180 175 186 183 184 177 189 171 190 185 179 183 136 145 86 83 37 91 90 101 98 67 60 59 59 73 81 88 54 64 99 134 157 152 144 186 190 196 192 198 193 197 200 199 199 191 185 187 194 190 191 185 190 189 190 189 194 192 191 192 189 200 191 192 187 189 190 195 195 184 174 174 168 173 164 163 161 154 195 176 167 168 167 164 162 164 166 167 166 167 171 179 181 181 192 183 177 179 186 167 193 186 184 182 153 147 95 77 56 93 96 110 96 72 73 79 70 79 58 89 47 68 98 132 142 170 141 179 193 198 194 200 194 197 199 200 194 189 186 190 188 191 188 184 186 189 183 184 191 188 191 191 195 192 193 194 188 191 188 197 191 179 180 176 172 177 167 162 162 152 192 177 165 167 167 169 163 164 170 170 167 169 180 177 180 181 184 180 166 178 185 177 190 183 184 189 153 162 98 91 71 105 103 121 84 51 64 82 84 66 47 89 55 70 99 132 131 175 160 171 195 197 196 198 198 197 196 197 189 187 185 189 183 178 181 175 181 180 179 175 177 169 174 185 194 188 191 190 178 184 193 188 185 183 183 176 176 185 172 168 161 155 196 178 168 165 164 168 162 162 172 167 160 170 170 177 169 186 180 177 173 176 176 174 178 177 189 196 166 162 104 83 90 100 107 126 83 32 65 61 75 85 72 80 76 81 82 118 126 173 172 166 193 197 198 197 200 197 196 191 185 182 185 167 158 162 159 164 163 164 167 140 146 127 147 158 174 171 167 173 162 166 181 176 174 187 182 178 178 178 176 163 164 156 194 184 167 155 172 162 163 166 166 161 158 162 163 170 170 172 179 167 167 166 173 164 165 178 185 196 179 170 111 80 105 94 109 124 78 79 56 82 72 97 96 55 96 80 87 115 137 164 184 160 191 199 192 196 201 200 191 186 180 176 154 131 125 124 126 137 151 148 137 108 120 102 107 100 118 140 131 134 139 144 153 167 148 170 181 172 185 182 170 170 159 156 194 177 169 160 171 162 159 167 163 155 152 156 152 158 154 154 154 145 147 144 153 153 159 155 174 190 188 170 122 79 94 85 119 119 62 116 93 70 80 80 82 61 92 110 86 137 163 168 191 158 188 197 190 196 202 194 189 178 177 150 118 125 121 93 94 109 122 113 94 87 78 80 73 61 64 92 93 95 102 103 103 148 148 142 171 166 183 181 169 170 156 158 195 170 168 159 169 163 152 152 149 137 133 133 130 130 135 136 138 132 125 132 132 141 143 138 150 178 194 174 137 78 77 87 111 106 61 96 129 109 64 86 70 45 74 129 107 130 171 171 186 176 181 194 194 196 204 186 183 184 172 125 101 106 98 94 105 107 97 94 82 64 53 64 68 38 52 53 58 58 77 92 70 105 142 130 152 171 171 177 171 164 156 154 186 167 169 157 161 157 137 130 113 119 109 101 92 97 87 85 88 88 83 97 104 118 115 120 117 153 193 181 136 74 88 84 106 90 62 130 101 126 109 64 46 84 38 115 121 143 174 171 193 183 184 195 198 191 197 191 183 167 134 104 103 78 96 106 102 92 78 67 56 65 44 47 60 32 56 62 50 52 82 110 86 92 118 122 133 162 163 171 161 160 151 151 176 167 159 157 151 146 131 111 97 90 92 79 54 62 61 57 54 62 72 61 66 88 82 92 107 130 178 182 137 61 85 103 111 79 68 119 133 86 118 101 47 60 67 87 120 142 160 181 198 189 182 196 198 192 188 194 174 133 115 111 88 91 86 80 88 73 65 62 62 73 72 49 55 44 46 63 60 75 86 104 110 108 96 127 124 145 168 158 165 161 143 150 166 161 156 152 136 136 118 106 77 75 80 55 49 43 47 63 26 59 74 64 61 63 68 100 85 113 154 177 138 58 78 104 107 74 72 124 129 116 57 103 76 47 85 76 110 148 156 181 192 196 182 195 201 189 196 184 125 114 121 107 91 68 56 82 107 79 83 86 95 103 95 74 69 53 51 63 67 85 98 102 109 122 122 127 142 145 164 158 159 148 147 149 153 153 156 142 130 115 129 114 83 71 68 58 54 49 52 43 39 48 52 64 70 67 63 85 92 85 123 152 147 74 98 97 114 79 101 135 109 119 87 73 80 50 80 64 99 160 172 180 191 195 190 193 196 192 194 164 113 138 122 107 92 72 203 206 182 130 85 98 94 102 101 97 93 92 89 87 80 78 75 76 75 95 112 141 153 161 161 162 154 148 152 147 145 153 153 129 119 97 125 110 96 75 68 60 49 51 48 49 48 47 54 52 58 52 57 66 68 82 105 128 158 62 105 98 94 104 115 151 137 95 108 98 68 36 75 55 82 166 174 186 193 197 194 189 194 194 186 147 117 111 91 84 98 116 144 166 160 168 174 184 180 174 168 160 156 151 149 149 150 146 135 127 112 91 79 78 123 170 176 175 163 162 163 151 153 151 170 135 110 68 197 154 67 72 96 110 118 128 134 130 135 126 133 113 112 116 97 86 69 72 60 76 112 61 104 101 81 116 110 115 136 118 77 91 97 30 88 41 61 168 187 191 196 197 196 187 193 199 176 130 85 62 126 159 157 169 160 167 167 163 159 154 140 131 121 115 115 113 119 122 134 139 135 140 135 123 104 105 55 120 202 193 181 172 173 159 159 156 186 149 109 115 162 104 112 138 157 170 171 161 156 149 147 149 152 142 150 162 163 142 114 114 98 97 89 67 67 79 82 119 106 112 84 125 108 81 68 35 113 54 28 144 192 199 195 195 193 187 192 191 149 117 32 128 168 171 174 176 165 155 139 123 113 95 86 72 63 60 60 57 65 73 74 90 101 112 116 117 109 106 91 44 201 206 195 189 185 160 163 169 194 146 113 82 109 127 148 153 148 146 134 120 113 110 107 115 129 133 147 160 179 169 146 124 96 104 99 136 135 46 99 103 112 95 70 98 114 86 49 31 61 77 38 67 100 149 177 182 184 182 180 163 130 97 70 169 179 183 176 161 136 119 90 70 59 37 45 68 36 27 37 38 41 54 53 58 53 73 83 89 92 98 99 51 209 200 113 96 91 92 83 107 117 113 75 114 129 127 119 101 79 72 70 65 61 65 73 87 106 123 135 148 168 190 186 148 119 98 91 132 167 112 90 104 90 89 76 77 112 87 41 28 39 51 73 101 51 43 76 115 140 139 126 128 118 124 113 161 166 166 143 116 90 49 51 49 69 30 44 46 27 29 43 48 45 82 56 59 62 65 60 65 79 77 71 60 104 81 57 74 85 77 66 60 45 54 104 116 99 84 61 62 52 31 48 51 23 33 37 46 65 86 111 146 152 170 171 157 131 114 92 125 147 85 87 133 71 93 65 68 108 100 35 35 49 39 108 163 155 121 51 33 33 135 115 158 47 120 129 138 134 114 94 67 55 64 78 91 107 83 50 68 49 64 64 56 101 123 99 64 66 74 100 75 78 92 97 115 41 73 141 167 168 153 137 115 101 48 104 109 97 53 54 79 43 35 56 39 18 36 33 55 72 47 51 80 106 149 163 143 124 103 87 80 81 61 79 121 67 103 86 58 83 86 39 55 50 73 140 176 195 192 183 117 32 185 135 103 1 73 172 153 124 90 50 68 122 134 158 176 165 175 123 115 91 95 95 114 153 143 131 101 125 98 98 137 134 138 143 112 47 141 171 178 175 160 163 153 126 21 125 132 40 72 84 94 65 47 64 42 39 53 54 64 123 99 32 52 62 95 129 120 94 88 66 56 81 133 129 62 46 95 90 69 62 68 58 59 72 114 149 177 192 198 189 180 148 140 91 70 40 95 193 153 97 64 80 140 163 170 167 185 186 207 164 168 134 142 146 142 147 144 136 132 135 143 139 161 181 168 175 81 86 166 174 171 175 159 156 183 131 44 126 94 42 73 84 109 116 100 96 74 84 61 71 118 123 122 85 83 72 66 101 107 105 103 107 111 142 180 149 12 11 96 88 85 56 80 83 70 100 131 145 170 191 198 196 177 181 200 192 190 139 97 172 126 88 102 139 176 190 188 190 186 187 193 166 172 143 145 144 131 136 135 127 133 136 145 138 177 188 174 186 72 116 183 174 169 174 161 158 183 193 81 98 82 55 84 138 153 160 153 151 133 128 121 133 144 145 152 159 142 120 66 81 129 146 153 164 158 159 186 147 14 27 87 98 73 73 83 94 66 105 142 160 160 189 197 193 184 175 190 198 209 108 112 152 128 120 147 181 198 186 193 195 190 189 188 178 177 158 146 142 134 131 126 122 124 129 137 147 174 177 167 185 51 157 179 178 173 173 155 149 165 235 48 111 83 51 96 144 159 156 141 142 141 129 147 140 142 155 172 178 184 151 108 93 125 173 177 183 171 165 179 129 42 88 99 85 74 83 92 79 78 112 127 168 169 177 199 192 191 184 177 187 213 85 125 159 130 139 151 186 186 167 191 196 193 194 190 176 169 150 134 128 118 115 112 113 125 135 133 153 177 159 187 121 80 176 185 174 179 176 158 156 157 219 132 68 95 44 94 134 136 143 146 147 150 151 163 162 161 164 184 200 183 177 153 128 143 167 165 176 179 167 182 113 43 95 130 116 87 94 93 113 90 101 135 168 161 177 190 192 197 192 180 170 196 78 124 142 135 158 183 198 199 195 197 187 161 173 175 146 141 133 126 121 116 126 131 134 141 146 160 174 161 176 154 77 147 183 185 178 172 178 164 157 156 205 212 55 91 40 101 126 120 124 129 136 146 148 152 160 160 167 172 187 169 184 180 154 159 168 168 178 180 169 181 82 57 86 127 132 91 88 75 89 108 98 137 167 162 171 190 189 197 199 187 168 179 97 96 146 139 160 191 196 194 179 178 174 169 166 155 144 143 134 142 147 144 158 155 153 160 170 178 174 169 185 111 108 173 187 187 175 177 176 171 166 145 186 227 87 86 87 101 136 123 119 115 116 115 116 126 135 141 146 145 168 186 198 186 179 178 169 183 181 184 161 183 47 81 94 131 110 96 88 74 77 93 113 140 162 169 167 186 191 194 200 193 174 170 116 78 142 139 167 187 187 188 197 194 199 197 199 193 189 189 182 183 170 164 169 168 174 182 186 189 192 189 169 83 150 177 190 191 172 183 180 168 170 157 186 205 165 46 139 132 150 146 145 145 139 131 121 117 126 145 155 167 170 172 169 186 187 193 186 178 197 193 173 156 31 94 85 130 103 93 87 75 75 89 118 141 162 176 177 180 188 190 200 189 183 169 157 59 152 142 173 192 190 194 199 198 196 198 198 194 189 196 195 192 184 188 187 184 193 197 193 193 197 198 104 122 175 185 191 188 183 180 184 169 159 164 206 186 206 53 120 163 174 171 170 177 173 173 174 168 168 170 171 175 181 194 189 182 184 195 195 191 188 193 190 117 37 88 84 130 104 86 73 83 88 90 138 123 161 173 181 173 186 188 196 195 188 180 208 33 148 156 187 194 195 199 197 200 196 198 190 196 185 194 193 194 192 183 193 190 194 196 192 191 200 135 97 164 186 188 186 189 183 183 184 172 165 174 213 179 206 116 55 178 183 183 181 186 176 170 181 180 187 187 187 183 191 185 185 194 192 190 199 192 195 190 195 51 59 73 86 120 107 98 71 93 97 94 147 111 161 183 180 181 186 194 195 198 196 194 202 134 77 172 193 194 195 201 202 201 200 198 191 193 184 189 190 194 192 185 190 188 190 191 180 201 171 74 153 188 188 189 186 194 179 190 187 172 161 182 208 184 185 160 27 138 183 183 188 186 178 180 182 184 188 184 190 181 187 191 192 186 198 199 192 197 192 206 134 34 88 69 89 116 127 97 85 99 84 110 103 122 151 178 168 185 184 189 195 199 194 201 196 194 84 87 189 199 196 198 200 197 200 190 191 188 182 188 182 191 186 180 182 181 185 187 184 161 97 140 186 198 187 188 193 190 182 189 187 181 161 177 209 186 177 177 92 59 172 171 184 180 181 180 184 182 187 182 184 183 187 195 190 189 197 197 198 196 198 185 41 79 93 71 58 132 123 104 78 102 93 134 92 124 140 177 178 184 183 189 193 199 199 200 200 195 157 116 71 115 161 187 196 198 194 190 191 189 183 180 174 184 181 181 181 162 166 181 142 102 136 160 183 191 185 185 194 190 185 188 194 181 164 178 194 189 169 183 111 115 54 147 173 176 178 182 178 180 184 184 185 186 190 193 196 193 199 195 194 176 117 123 104 63 86 73 47 128 126 105 87 97 110 128 83 131 137 158 187 185 185 187 193 195 200 199 201 194 176 157 162 153 110 90 99 118 134 147 157 168 161 162 159 159 154 157 141 117 150 171 93 153 166 152 168 189 189 195 196 190 183 188 200 177 164 174 179 185 178 175 116 115 117 70 91 132 154 177 178 177 183 187 182 192 190 182 187 173 152 129 103 106 146 168 135 59 81 88 43 152 124 118 104 93 96 112 90 128 155 152 186 187 185 187 190 193 199 200 198 197 180 160 159 168 169 159 137 111 101 91 85 92 80 80 77 79 85 100 100 104 134 147 157 165 158 159 175 187 192 196 192 189 190 191 208 170 165 169 179 187 186 179 119 103 137 115 82 75 78 85 87 98 104 109 106 107 99 99 109 123 136 154 180 188 181 166 139 63 86 86 74 199 159 119 121 78 97 100 94 120 160 156 189 189 186 189 193 187 198 194 196 198 189 181 173 172 168 164 163 160 154 155 156 158 149 155 153 159 167 175 169 166 158 155 153 161 168 175 187 188 191 197 197 187 196 189 196 176 163 163 167 186 189 182 149 119 125 134 122 110 111 106 112 119 115 127 142 150 159 185 200 199 194 189 191 182 178 171 142 85 92 70 63 167 158 109 123 82 97 100 79 124 135 171 186 190 186 185 190 192 196 192 192 197 195 194 190 192 194 189 193 188 185 189 189 191 178 188 175 180 176 167 171 150 148 134 142 176 181 176 188 189 191 198 193 194 192 192 189 182 169 162 167 188 188 192 164 159 122 126 142 147 145 134 127 134 129 135 155 163 164 190 196 193 193 185 181 182 174 173 151 104 90 97 64 163 160 144 99 87 105 85 83 100 129 171 184 189 188 187 193 195 193 190 184 199 192 195 196 196 202 190 196 193 186 187 187 179 179 178 174 168 175 158 148 137 121 116 163 192 175 188 192 189 191 195 192 193 189 192 184 182 160 161 163 177 180 197 176 163 170 108 136 138 146 153 152 171 159 166 175 171 177 189 192 196 181 178 166 172 174 171 152 85 95 104 81 192 179 173 114 85 102 97 84 94 122 152 173 182 186 191 189 197 191 191 188 195 187 194 196 194 199 189 194 189 178 181 179 179 165 166 161 159 152 142 127 114 138 126 184 193 189 186 190 195 194 201 192 187 189 185 183 185 159 162 162 160 193 207 185 165 181 138 115 128 133 141 146 154 163 166 178 178 184 188 200 193 179 176 164 163 169 170 159 78 76 78 79 121 189 153 112 104 84 111 87 117 99 162 166 187 181 192 189 193 193 188 189 190 187 193 190 192 190 194 185 183 179 177 173 166 156 157 159 151 136 131 118 115 147 138 199 192 196 193 191 197 191 193 195 188 184 181 181 177 162 164 157 158 184 198 170 161 200 142 107 119 123 136 138 140 155 163 165 166 176 174 189 189 186 170 167 164 175 172 154 78 89 66 96 63 115 160 103 118 94 106 97 110 99 142 182 179 183 179 193 195 192 190 187 189 184 189 194 193 187 189 181 180 176 172 169 169 167 159 149 139 123 117 107 141 151 148 191 193 192 184 183 184 179 176 176 173 181 169 167 167 157 154 150 150 168 155 149 151 184 139 96 116 126 130 133 131 141 150 160 155 173 163 185 188 189 169 166 163 174 172 143 80 78 59 115 72 33 131 111 131 121 98 100 94 100 125 183 184 173 171 187 191 191 183 182 187 191 185 196 189 190 177 178 172 177 166 161 165 164 146 132 129 115 106 130 160 164 166 147 171 158 139 135 137 143 150 152 151 158 145 150 152 139 139 141 135 138 131 131 133 165 115 99 111 120 123 127 128 134 143 155 160 163 175 178 183 176 172 158 165 168 173 118 61 67 80 113 57 44 78 113 105 149 107 84 112 109 99 161 178 172 151 171 191 184 189 189 189 190 190 185 189 177 179 175 169 167 155 158 153 143 126 123 122 107 116 160 167 167 181 131 95 102 79 74 75 69 75 121 139 144 127 132 132 122 114 122 120 119 80 99 122 140 140 98 108 112 120 125 128 128 134 146 159 155 171 164 186 172 168 160 170 170 173 99 61 77 89 82 45 51 64 102 88 117 107 85 101 100 108 166 171 156 150 166 182 186 183 185 187 189 189 190 186 178 178 168 175 157 156 153 148 132 126 118 109 113 145 168 169 176 179 180 108 79 114 116 120 116 86 109 80 127 116 112 101 89 85 111 143 137 126 132 151 163 159 135 112 110 118 125 125 124 129 138 144 153 154 177 177 166 161 166 166 162 165 79 73 72 90 67 50 47 44 88 85 120 114 122 109 104 108 158 163 163 145 167 175 176 182 185 176 191 185 192 185 178 171 171 169 164 157 145 142 128 123 112 111 135 162 169 173 176 173 185 178 144 151 143 129 134 107 106 90 94 114 89 73 78 81 122 115 131 118 142 147 164 160 164 141 115 100 119 120 124 127 128 132 146 163 151 170 166 160 170 158 166 160 66 64 66 94 58 48 48 39 77 100 111 133 120 107 115 98 137 166 164 150 162 184 179 175 192 178 188 183 184 181 175 176 171 159 153 146 140 134 125 120 111 125 153 165 169 172 184 170 188 179 145 178 161 149 133 102 96 83 84 66 66 64 50 68 84 99 84 96 112 125 158 142 179 175 134 103 104 123 121 125 129 125 133 156 143 169 167 157 168 165 154 148 71 61 54 104 50 45 56 40 68 110 110 126 122 99 111 104 118 168 162 150 169 170 173 175 179 186 184 187 183 179 176 176 163 152 150 138 128 128 120 112 120 146 160 158 173 174 179 176 185 168 153 171 143 129 109 93 117 92 99 61 49 41 50 53 78 75 82 66 98 107 125 153 167 176 168 120 88 112 117 124 125 118 130 144 151 156 170 153 159 168 152 121 63 64 59 88 51 44 44 41 87 88 98 118 114 97 95 86 121 172 157 159 168 169 172 173 177 184 183 180 179 179 175 163 145 149 140 133 125 124 109 116 137 156 154 148 171 162 180 182 159 143 170 175 137 111 89 108 113 95 112 100 61 43 44 63 107 47 90 71 90 94 109 125 132 167 159 150 99 97 119 128 119 121 122 147 138 151 164 157 159 158 157 111 49 82 54 81 55 43 37 58 78 59 121 99 105 89 83 83 111 169 161 165 158 166 165 169 167 175 176 171 177 165 167 159 147 135 134 128 125 113 113 123 135 161 134 149 151 144 174 149 132 140 162 127 128 94 91 114 107 94 105 108 81 69 40 92 94 63 96 88 78 92 102 120 105 134 153 127 125 95 102 128 115 120 115 148 141 150 159 161 148 150 152 85 46 84 59 75 46 47 32 82 59 87 130 77 105 73 82 93 108 132 152 153 158 166 157 179 155 168 166 169 168 153 162 145 142 124 127 118 113 116 110 119 124 131 116 145 135 115 159 129 113 142 153 104 118 76 109 106 122 111 98 81 100 104 77 98 91 94 93 82 83 101 68 123 98 121 141 90 148 103 86 128 127 123 133 132 143 150 163 159 145 149 157 60 56 68 60 73 40 45 45 43 53 81 125 57 91 91 72 95 112 111 131 148 143 159 163 169 159 166 171 169 175 154 157 131 128 118 122 117 123 102 99 120 124 105 108 109 118 102 132 114 107 119 127 94 90 83 98 97 105 95 104 85 61 95 82 84 73 84 113 104 108 79 94 100 108 103 114 85 108 117 72 112 125 122 120 140 146 147 158 162 135 151 138 42 60 77 79 66 41 52 46 44 27 105 90 70 95 67 75 105 103 91 124 118 142 143 151 161 155 165 162 170 170 153 146 136 118 114 122 138 128 92 99 112 97 94 86 99 85 100 104 97 106 113 106 102 69 105 68 81 101 92 64 80 69 79 79 75 75 70 76 93 121 83 88 93 108 95 88 97 85 106 83 95 132 125 114 134 152 149 151 167 136 150 111 58 45 56 75 64 43 50 48 34 44 107 63 90 80 67 81 103 109 75 107 97 118 134 152 161 137 160 160 163 152 145 146 140 109 122 138 144 122 95 94 107 69 76 82 84 73 90 86 89 101 102 96 107 96 71 73 72 104 94 40 91 76 62 72 80 71 75 76 65 84 98 88 72 112 77 83 86 81 70 91 68 124 129 111 125 150 152 144 170 129 149 74 58 51 61 59 45 45 50 47 42 69 57 70 66 79 68 71 79 93 85 75 94 87 117 140 129 138 153 163 163 153 146 144 132 115 131 149 142 109 75 92 81 54 43 85 42 79 77 79 91 101 99 89 102 99 51 76 61 64 70 47 69 58 63 68 71 47 78 65 70 59 80 97 70 89 47 59 80 37 70 86 70 114 125 100 129 142 138 135 151 125 119 76 78 78 50 76 55 36 53 42 49 57 39 70 52 87 68 77 62 66 70 87 74 97 120 120 114 131 122 146 163 145 135 147 108 115 131 152 134 87 65 91 63 47 28 39 37 59 70 64 83 88 94 71 91 86 84 63 52 55 58 69 59 60 76 73 73 60 75 80 58 57 60 73 57 59 39 28 42 36 60 81 72 101 118 112 127 136 127 124 119 101 89 73 81 51 60 51 52 38 52 47 48 42 44 72 55 70 85 67 65 64 59 76 72 92 91 100 106 128 117 120 131 137 111 142 93 119 133 145 118 86 70 70 51 32 33 44 42 50 51 34 42 40 38 53 34 45 63 47 52 36 47 47 49 50 78 58 48 31 35 42 37 42 50 44 26 26 21 27 34 52 73 63 90 78 111 100 106 125 111 111 116 85 72 85 90 47 52 42 46 36 51 51 50 39 51 60 58 62 75 58 73 60 43 75 82 80 78 74 89 111 105 103 110 115 94 119 90 119 134 136 102 91 45 68 37 43 80 106 89 95 96 101 105 92 79 72 46 43 44 35 34 35 40 27 36 43 47 34 32 35 35 57 87 111 133 110 47 55 31 21 46 61 90 59 86 90 91 102 97 102 104 118 91 84 71 78 55 56 50 38 38 39 55 50 55 43 53 46 67 45 65 86 55 66 42 73 73 79 71 69 91 99 76 94 103 91 97 97 92 109 126 129 88 101 47 65 36 78 135 134 124 143 123 131 144 141 142 137 117 107 92 66 66 66 65 67 61 69 74 64 74 94 102 110 138 151 157 143 110 81 52 26 55 52 73 72 63 96 99 108 89 85 89 92 77 76 86 56 44 44 51 38 40 45 53 57 50 47 43 59 55 70 61 83 59 44 46 61 61 72 63 67 71 92 69 89 80 71 109 87 79 102 118 118 87 91 61 62 60 102 142 147 137 143 131 150 157 156 160 152 140 149 151 127 122 125 131 124 129 125 131 127 135 134 150 153 148 159 169 175 133 99 70 43 56 55 66 97 63 85 96 102 92 63 84 95 63 72 75 45 51 39 41 37 41 44 58 54 56 43 47 55 55 76 65 92 61 43 64 49 64 54 57 51 69 76 77 72 71 60 86 79 85 92 94 105 80 76 56 56 89 122 132 138 149 142 126 142 157 161 162 160 137 145 145 143 130 147 147 141 149 139 144 134 136 130 142 141 147 170 166 161 138 107 82 70 54 67 67 95 58 81 85 87 96 67 66 93 54 57 69 59 68 48 36 40 39 39 54 54 55 44 57 42 67 57 68 82 49 50 69 63 60 53 59 42 61 72 67 63 55 55 84 63 98 79 79 92 67 65 37 64 110 147 137 137 152 136 140 139 138 143 155 151 154 148 140 134 125 134 135 137 140 138 139 129 133 135 148 148 147 144 143 147 147 113 86 91 81 64 73 75 61 73 82 92 89 57 69 78 50 59 67 52 66 68 38 41 41 37 59 53 54 49 51 36 61 53 50 77 58 66 44 88 44 59 39 46 57 52 52 64 50 54 97 52 81 77 73 88 56 87 35 52 117 149 136 136 155 138 147 130 139 140 161 131 146 138 138 133 134 127 126 127 128 129 130 122 125 130 134 139 135 138 145 156 144 132 91 87 74 87 44 87 74 76 82 75 98 56 48 74 68 37 60 49 39 53 44 40 41 36 60 51 53 48 54 47 53 53 53 59 62 44 39 72 47 39 48 57 53 33 41 52 60 43 89 46 57 72 61 75 50 74 51 57 114 142 133 141 144 143 130 140 144 142 145 126 120 132 134 118 123 129 101 109 102 126 104 109 102 98 141 126 143 131 127 141 130 114 100 88 73 79 42 58 65 74 66 65 67 58 41 70 52 50 55 35 55 48 41 39 42 32 49 55 54 49 45 52 49 52 50 46 65 35 52 62 44 51 56 46 45 33 53 74 56 67 70 30 61 56 47 65 42 63 50 74 124 110 135 132 138 135 134 139 140 131 129 121 119 141 137 119 116 115 108 95 116 106 111 106 110 111 145 117 136 115 123 122 115 102 99 90 63 68 65 45 45 56 70 63 57 51 57 55 53 45 46 50 55 44 45 36 38 34 54 53 53 47 50 63 49 56 46 55 54 37 63 59 43 50 51 62 41 48 65 56 60 70 44 43 49 51 37 50 68 42 56 77 101 112 119 134 133 128 126 129 122 117 125 120 104 136 105 107 115 83 113 100 107 82 108 86 106 107 118 116 112 103 101 117 100 102 93 94 66 53 57 42 59 42 46 82 40 46 50 53 45 44 55 71 51 49 36 36 35 38 54 51 54 50 49 54 48 72 47 63 44 42 57 54 53 44 52 71 38 56 52 45 57 61 39 42 34 50 42 41 65 35 52 80 88 104 102 124 121 119 111 125 116 113 119 111 101 122 92 96 94 101 86 89 78 86 90 91 88 101 104 99 88 90 91 105 102 99 100 86 56 50 40 40 49 56 36 53 39 59 38 44 50 48 48 56 54 38 40 39 37 41 53 53 54 49 49 52 46 51 47 54 50 42 45 46 66 45 50 53 43 59 49 46 59 41 38 44 32 53 44 39 55 55 63 75 68 77 98 104 108 109 105 116 112 111 118 95 98 115 95 89 70 96 75 77 60 78 57 81 73 86 89 99 87 75 88 103 81 102 97 82 59 50 46 33 42 48 38 35 67 38 47 42 44 48 63 46 51 35 40 37 38 35 56 48 57 54 47 49 46 51 54 55 54 60 41 55 72 46 55 42 52 59 42 42 48 50 42 39 48 57 45 45 39 67 69 66 51 60 76 119 98 82 108 108 108 115 116 91 110 101 114 94 75 85 78 79 51 69 69 65 67 84 70 69 77 76 89 118 83 108 78 53 55 71 63 30 40 28 52 34 55 43 42 30 38 47 52 46 49 34 38 41 34 43 48 52 51 55 48 49 39 69 76 35 72 36 70 64 75 46 42 37 38 54 52 34 38 50 56 31 40 43 40 40 40 48 53 61 49 55 78 116 69 84 116 116 104 112 111 120 145 117 129 108 113 96 86 95 91 79 81 89 82 112 116 79 84 108 114 128 107 109 76 60 41 69 47 32 35 31 38 63 60 33 32 28 38 41 62 35 50 32 35 41 40 32 53 51 54 50 49 39 87 75 43 43 57 34 57 54 83 50 37 33 49 35 42 39 47 53 53 29 37 28 47 34 46 41 45 57 53 55 67 92 58 88 97 93 97 110 103 133 135 129 125 118 128 120 111 82 111 102 102 113 115 98 132 108 96 117 116 85 100 89 85 55 79 48 67 44 31 43 42 49 65 31 33 46 46 42 58 42 40 39 35 35 35 37 53 53 49 53 35 85 109 40 39 39 35 26 74 50 72 43 44 44 44 43 42 35 56 45 38 25 41 34 38 37 36 42 50 46 47 62 54 62 60 82 85 78 75 86 118 133 109 130 156 114 140 127 129 100 111 115 129 126 133 120 119 124 93 102 99 83 58 99 91 37 82 75 59 39 60 45 60 51 65 31 46 42 48 46 41 51 41 35 35 37 39 34 54 54 46 41 68 120 66 29 25 30 36 50 63 103 59 44 45 45 49 37 36 41 43 35 33 32 39 29 42 49 39 38 57 30 40 60 60 59 78 78 61 70 89 74 118 109 97 135 134 116 124 136 130 113 107 102 111 127 126 131 117 115 100 78 101 93 78 86 92 66 58 111 35 25 39 41 46 39 50 31 49 45 45 40 47 41 45 33 36 40 37 34 48 49 51 33 125 105 47 34 31 31 55 40 67 91 76 46 51 56 44 21 54 46 34 31 32 31 39 29 45 48 29 33 47 27 47 58 52 76 67 68 64 72 85 68 85 111 99 128 123 97 109 133 124 114 113 97 100 117 108 117 110 122 106 88 83 107 79 99 105 65 70 108 35 34 33 40 39 40 38 45 38 36 43 38 42 37 40 33 35 35 38 34 48 55 30 82 131 79 50 37 29 30 31 22 62 82 95 67 44 59 55 35 56 53 39 26 38 39 31 44 50 35 28 20 45 38 56 58 54 84 25 83 57 79 61 60 64 86 85 107 121 95 96 104 114 90 109 99 82 92 101 92 92 102 70 69 91 108 55 102 109 71 91 53 61 37 42 25 45 25 34 66 49 48 36 40 39 42 37 34 34 36 35 40 98 99 76 127 114 63 54 33 32 22 24 18 41 104 111 67 40 77 60 80 28 46 48 31 37 60 41 43 46 39 34 36 44 35 55 46 64 60 48 67 60 72 67 56 63 76 67 87 97 92 68 97 90 75 77 86 79 79 70 120 92 73 62 43 92 114 48 116 95 79 88 28 52 49 26 27 42 39 21 72 88 82 80 75 77 65 47 39 37 38 38 34 109 88 82 139 104 64 53 33 23 18 23 12 16 115 100 74 67 48 67 94 44 34 59 38 19 76 41 36 47 30 32 28 49 56 60 35 50 63 87 57 34 74 52 61 66 70 58 69 78 73 65 101 73 64 77 71 69 70 71 111 57 106 52 78 80 129 68 116 82 58 100 41 42 72 29 32 37 36 17 65 107 79 77 82 88 96 63 80 90 80 71 66 97 57 101 136 97 74 46 22 20 15 17 12 23 83 89 75 99 79 68 78 52 40 40 42 27 34 67 32 46 38 26 39 41 67 47 45 26 78 72 40 40 63 31 56 58 66 47 54 81 64 57 79 75 47 77 71 52 72 70 56 61 73 45 86 98 107 99 87 49 63 86 42 62 34 40 44 28 30 28 29 94 103 77 81 89 85 56 88 89 93 72 75 88 44 126 131 93 88 49 11 19 16 13 18 40 52 109 109 112 95 69 75 44 56 46 34 40 53 43 41 32 45 38 34 49 37 63 46 19 60 75 42 41 47 32 50 59 50 36 54 64 56 50 60 61 35 79 47 68 48 54 66 52 69 43 76 100 83 108 56 32 71 51 79 49 33 38 36 21 28 29 32 71 113 91 94 87 68 74 89 91 92 94 79 81 47 135 127 95 85 68 6 16 15 15 33 45 23 123 122 108 127 70 103 77 62 64 45 56 30 37 43 29 37 33 52 49 37 58 36 25 58 56 62 37 34 27 52 41 43 30 48 42 46 52 40 50 45 65 41 49 42 34 82 35 88 36 50 89 92 68 62 32 44 64 50 36 26 32 29 24 27 24 28 76 102 106 80 95 63 80 89 88 92 93 103 58 84 147 131 112 89 78 10 15 20 31 31 49 20 93 133 121 133 86 104 98 69 86 52 64 23 36 39 40 31 26 60 42 36 41 39 36 42 69 60 22 27 32 52 43 29 42 31 42 43 45 31 40 67 38 35 44 41 34 62 27 70 54 34 101 53 62 48 43 32 46 35 53 30 25 18 25 27 29 24 70 93 116 83 88 61 75 80 86 90 90 105 62 135 144 137 120 91 83 25 27 46 34 42 47 29 55 126 141 137 121 114 106 74 103 63 67 37 46 24 52 41 35 38 45 25 46 36 32 40 32 66 23 27 35 39 41 38 28 33 37 35 44 24 46 77 26 23 42 32 46 50 44 65 57 57 87 64 54 46 51 34 50 26 71 32 25 17 23 29 23 47 54 93 104 116 59 56 66 70 82 87 90 99 