P2
92
112
255
58 55 52 54 55 53 55 57 48 58 54 52 60 54 58 59 55 59 56 58 63 51 59 49 47 44 39 33 33 31 30 34 28 32 30 25 35 36 26 30 28 28 27 24 36 30 28 33 28 32 26 27 33 35 27 32 33 29 39 41 41 49 58 55 53 54 55 55 57 53 51 55 47 55 48 56 53 53 49 54 50 56 51 54 47 52 49 56 51 48 55 46 51 59 55 53 47 64 48 59 50 58 58 50 60 54 59 56 54 58 56 51 61 58 49 38 42 37 29 33 33 30 40 27 28 26 34 23 36 26 31 22 30 21 31 29 33 26 28 28 33 33 32 32 21 37 28 32 28 25 37 28 36 35 37 58 53 55 57 54 54 59 52 53 55 49 52 55 48 55 49 54 54 54 54 50 52 53 47 57 54 45 49 56 55 52 57 51 57 46 63 53 58 53 59 54 55 56 60 59 55 54 58 57 51 51 37 35 35 30 32 30 28 37 32 26 35 23 43 19 33 32 30 24 30 30 31 29 30 26 29 26 30 32 32 26 31 36 24 38 22 34 31 29 35 30 36 39 42 56 50 55 52 60 55 57 50 55 51 56 52 52 51 55 51 57 55 47 55 50 51 53 53 51 53 52 58 52 55 58 50 59 56 56 57 57 58 58 52 58 56 61 55 58 60 44 52 25 41 30 34 30 27 31 31 31 30 26 36 34 32 27 34 27 24 35 27 37 30 30 26 34 24 25 27 28 32 22 31 24 32 25 28 33 31 29 33 23 37 32 28 44 41 52 57 60 56 52 56 53 56 49 55 56 53 54 51 50 56 52 53 48 58 52 52 55 50 53 57 56 56 58 55 55 54 58 52 60 58 56 57 59 56 57 56 60 46 46 32 36 34 28 38 21 38 29 30 27 27 35 32 36 26 37 18 34 28 28 34 34 35 26 34 34 25 31 28 27 32 35 25 32 20 38 26 23 34 38 31 30 32 33 30 35 38 33 55 52 60 57 54 56 54 56 53 56 54 48 57 53 51 56 55 55 55 50 55 54 54 54 54 56 56 61 56 56 53 58 55 55 61 54 58 57 57 60 54 50 34 38 38 28 33 32 33 31 35 20 31 31 28 35 34 32 30 33 27 27 34 31 36 33 38 36 43 39 32 41 31 36 43 30 31 25 27 32 36 31 28 39 29 34 25 36 29 37 25 37 36 50 55 58 57 54 52 55 57 56 52 56 58 52 55 55 56 52 55 50 54 53 52 51 57 61 56 57 57 55 54 55 58 54 56 58 56 60 53 58 52 39 41 29 42 30 32 27 33 29 37 22 37 32 26 33 39 42 43 29 37 37 40 34 44 44 42 44 43 48 42 53 41 41 39 39 33 32 33 38 28 35 23 32 31 31 35 31 28 30 36 33 38 30 51 51 64 58 54 59 55 51 56 53 57 56 49 59 58 48 52 55 56 54 52 48 56 58 55 58 56 50 61 57 55 56 59 57 59 53 54 43 43 36 38 31 37 30 44 33 25 33 32 29 31 34 39 35 50 36 43 51 52 48 44 51 56 46 55 53 54 58 55 61 56 55 55 53 49 44 43 43 32 32 26 26 35 32 29 26 33 26 36 39 33 27 34 42 52 55 57 57 56 56 54 56 53 57 56 55 54 52 50 60 56 56 59 46 55 57 57 58 56 55 61 55 57 59 56 54 62 42 39 35 24 42 34 25 33 31 29 36 34 34 33 32 37 50 46 53 65 49 57 62 62 61 56 64 57 63 62 58 63 58 73 65 64 69 64 66 62 58 56 53 54 36 37 35 30 32 33 26 32 37 28 33 31 25 36 29 39 46 58 55 56 54 60 54 51 55 59 58 50 59 56 53 53 57 52 55 57 59 54 61 59 54 61 55 62 55 60 56 50 38 36 30 34 38 36 30 36 25 31 38 35 37 47 50 55 63 60 69 70 71 66 75 75 64 69 72 67 73 68 70 73 70 75 76 69 77 73 69 70 67 69 67 63 55 54 49 43 43 34 33 26 43 25 30 28 26 30 29 37 30 47 53 59 53 56 54 57 53 60 54 55 53 54 55 57 56 51 53 57 60 59 58 62 50 62 58 54 60 56 52 42 32 39 30 34 40 26 34 34 38 41 43 54 54 71 66 73 72 75 75 77 84 77 85 77 74 77 73 76 76 83 75 76 77 81 79 84 77 86 67 76 72 70 73 60 72 58 62 57 55 54 41 38 32 35 26 29 31 31 30 30 34 36 44 50 62 55 58 55 61 56 55 57 51 54 56 54 53 56 55 63 51 62 55 62 56 59 55 61 60 45 42 31 38 37 26 39 31 29 35 44 39 60 63 70 68 88 85 83 84 89 79 87 84 83 83 87 85 84 82 76 79 89 80 83 73 89 84 89 79 85 74 77 79 78 77 75 73 72 63 74 64 61 58 53 47 33 36 28 28 29 35 30 32 29 39 43 52 62 55 55 58 57 58 53 55 47 63 52 57 54 55 58 55 60 57 61 56 59 53 64 50 33 37 31 37 41 25 33 46 40 51 54 61 74 79 79 82 90 85 95 87 89 93 87 92 90 88 90 96 89 90 86 88 96 93 92 88 85 93 87 83 88 85 81 80 81 78 82 74 73 72 72 76 64 69 61 57 51 42 35 25 33 30 24 29 32 29 34 42 60 52 57 60 54 56 59 52 60 55 55 56 55 54 57 61 60 63 55 61 55 58 50 45 29 35 30 40 35 35 44 59 57 64 72 74 87 85 85 91 90 91 96 94 95 104 87 99 97 99 95 98 100 96 92 98 100 99 101 101 95 95 84 93 87 86 84 87 83 83 81 81 79 70 76 75 68 72 66 66 56 50 52 34 31 29 29 29 27 29 29 35 40 53 56 60 56 53 59 52 59 51 58 53 59 52 57 65 61 59 59 65 52 55 40 33 38 30 37 37 30 54 57 71 74 78 82 85 92 87 97 90 91 95 99 97 100 99 95 104 108 98 109 104 110 108 103 108 113 97 110 101 99 101 95 95 87 92 88 91 92 80 89 87 78 82 77 72 72 72 69 69 63 58 58 53 42 31 31 28 34 24 27 34 33 35 53 57 57 53 60 55 56 50 55 55 57 57 58 60 59 55 64 62 42 41 39 33 26 32 35 44 55 67 72 77 82 83 95 86 99 90 103 93 98 96 107 95 105 99 108 104 109 111 105 117 114 115 112 118 114 112 114 100 108 101 105 97 90 101 98 92 87 95 92 87 85 86 76 80 77 72 75 67 72 66 63 55 58 41 35 27 34 27 32 29 29 31 39 54 54 57 57 59 58 48 60 57 54 61 56 55 59 63 60 59 38 40 36 30 27 35 49 65 66 81 101 78 85 91 98 94 95 101 99 106 105 99 102 104 105 105 110 114 112 118 112 118 120 118 123 128 121 119 119 110 106 112 107 115 94 97 106 107 88 93 97 91 94 89 84 89 72 76 79 74 71 71 67 62 58 56 42 34 33 27 27 31 31 32 34 42 55 54 58 62 53 55 57 55 54 55 57 58 60 60 65 45 34 35 36 30 25 45 69 76 71 88 91 91 88 92 100 96 97 104 99 106 104 100 104 108 105 111 113 118 117 124 124 124 121 123 131 120 127 122 124 114 112 114 116 118 111 106 103 109 105 95 103 92 94 95 89 90 81 82 79 78 80 70 65 67 68 60 52 49 36 26 33 31 32 35 31 37 38 48 58 63 53 57 60 56 56 53 58 60 60 55 50 40 31 35 34 26 38 59 77 79 78 83 90 93 95 96 96 95 108 104 106 103 108 107 105 113 112 119 117 123 124 129 132 132 130 132 134 135 133 126 121 119 116 117 123 120 116 105 106 111 107 101 108 103 93 104 90 94 88 87 78 90 82 76 80 65 71 67 57 58 45 36 28 34 27 32 31 31 32 38 50 61 59 55 61 55 56 59 63 56 62 44 38 36 33 38 29 33 51 74 74 83 82 85 95 92 99 95 97 97 111 108 111 108 110 108 114 120 117 122 125 132 135 128 138 140 137 132 135 132 133 130 123 130 118 124 117 119 115 115 108 110 113 106 98 112 100 92 98 89 90 86 88 87 85 78 82 75 75 72 67 59 57 42 37 31 28 32 32 29 33 32 37 60 55 57 58 53 56 56 60 62 51 40 34 39 39 35 32 43 67 81 75 85 84 90 95 95 101 94 106 106 110 110 113 110 114 113 120 123 125 130 130 133 138 132 147 144 143 140 134 137 134 138 131 133 125 132 118 119 120 116 114 111 112 114 99 102 110 97 90 94 90 93 86 84 90 87 87 78 75 75 65 73 59 46 42 39 28 30 32 33 32 36 32 46 50 57 59 53 52 57 65 55 37 37 34 32 37 34 40 66 72 80 84 84 92 90 97 96 98 99 112 110 106 116 109 115 111 119 122 124 131 133 124 139 136 138 135 149 138 145 143 137 137 138 133 133 131 130 118 122 121 115 118 113 114 109 107 103 102 98 96 96 94 94 90 90 89 87 90 87 78 75 69 75 64 59 41 43 31 35 25 31 29 32 30 37 53 55 53 57 56 50 67 48 35 31 32 35 32 42 49 77 80 82 87 89 95 90 107 104 105 105 111 107 119 112 113 118 111 120 124 127 127 137 134 140 141 144 138 145 138 149 152 136 140 145 133 138 126 121 124 122 122 119 115 114 111 109 109 104 101 100 100 93 98 90 97 87 98 85 88 93 83 81 76 74 71 62 54 45 38 29 34 36 28 28 27 32 38 50 55 59 54 53 60 36 39 33 28 37 34 48 65 84 79 88 90 90 95 95 109 107 100 104 115 105 113 116 110 119 117 121 124 130 130 137 138 140 141 138 140 137 139 149 146 138 140 144 139 133 130 126 123 118 123 121 112 111 110 113 112 102 108 100 102 95 95 96 95 89 91 89 93 92 84 84 79 78 77 69 57 55 44 32 32 38 29 31 28 28 34 49 57 57 52 60 47 32 38 34 36 39 35 55 69 81 84 91 88 97 97 106 108 99 101 108 111 113 113 115 118 116 121 117 125 129 130 138 136 142 145 144 141 146 138 139 142 139 143 145 141 136 135 122 126 125 124 119 119 110 112 111 104 103 107 99 98 103 92 93 96 92 91 92 93 91 86 92 75 87 75 68 63 59 47 39 35 33 35 23 30 29 31 47 55 54 58 52 42 36 32 33 44 37 41 56 71 83 83 98 90 101 104 107 107 100 101 117 111 118 113 114 117 118 120 121 124 130 133 139 137 146 150 149 143 149 143 136 141 140 135 139 137 129 132 127 124 123 126 114 119 111 112 109 100 105 102 102 100 95 95 97 91 96 93 95 93 94 90 92 84 82 79 74 68 57 47 49 33 36 26 29 31 32 29 37 52 56 57 57 38 35 39 35 36 46 45 63 68 84 91 94 101 101 104 106 109 101 105 115 111 118 110 116 120 115 121 122 128 127 133 141 134 142 145 150 140 140 141 147 143 130 135 140 132 126 131 122 123 118 123 115 113 114 113 110 102 107 104 103 108 94 90 99 95 98 90 96 94 93 92 91 87 91 79 82 71 64 52 54 39 28 30 34 30 32 29 30 49 55 60 54 31 34 37 37 35 44 62 63 78 91 96 98 105 106 107 113 107 107 106 110 114 113 116 119 119 113 121 116 123 123 132 131 134 127 134 136 134 134 136 136 139 129 134 135 132 127 129 124 127 127 124 116 114 116 117 109 107 109 103 109 107 97 96 101 93 99 95 94 93 91 93 94 90 88 86 85 80 68 56 60 36 33 32 37 26 30 24 30 41 58 55 57 38 35 33 32 40 48 71 77 83 95 101 101 106 105 113 110 109 115 109 115 106 114 117 113 120 115 120 121 121 129 125 131 124 130 130 129 132 131 132 137 135 134 133 142 132 133 129 126 133 131 131 125 121 119 117 110 115 111 107 111 109 106 100 106 95 99 92 97 93 94 92 93 88 94 87 86 84 74 69 60 49 23 34 33 34 30 26 29 40 55 55 55 43 34 39 39 34 58 77 77 94 97 100 109 108 112 111 107 113 114 109 114 111 112 123 116 126 119 128 127 124 132 128 134 128 128 136 133 136 129 132 137 135 135 134 133 127 134 130 130 133 136 130 134 128 120 121 118 125 117 118 112 114 112 111 107 101 101 100 97 92 93 100 90 95 93 93 86 88 81 68 66 54 30 36 30 31 33 23 34 36 44 58 55 38 33 41 39 41 57 79 82 95 95 103 109 110 110 111 113 108 111 113 114 117 118 119 121 126 124 135 129 135 138 135 142 134 137 138 140 139 139 133 138 136 141 138 134 132 134 139 138 136 140 140 141 141 130 135 128 135 128 125 126 118 120 120 111 105 99 104 95 94 95 96 95 95 88 93 90 88 85 71 69 54 44 33 30 30 34 26 31 33 42 57 55 40 33 35 39 50 66 82 89 96 101 112 113 108 111 108 111 114 115 119 117 124 120 126 126 125 134 140 135 143 141 148 146 158 157 152 144 147 136 142 141 148 150 147 139 144 144 145 141 140 148 151 150 152 144 157 137 150 137 137 135 116 123 113 115 108 100 100 89 92 83 94 99 92 93 94 97 89 85 82 72 53 57 39 29 24 30 28 31 29 44 59 49 37 33 36 27 63 65 94 89 101 116 108 112 109 109 111 113 123 116 121 116 124 128 130 130 132 135 143 143 152 146 166 158 169 180 171 157 147 147 147 157 159 158 151 152 156 158 158 157 162 160 153 161 154 157 161 151 140 138 130 128 115 115 106 105 99 98 91 79 86 74 71 83 90 94 93 93 91 83 83 71 60 61 48 31 26 28 31 31 32 40 55 55 37 38 39 25 61 68 92 94 103 109 112 107 113 111 109 116 117 121 117 122 128 130 134 134 135 134 144 151 158 162 176 172 169 173 175 170 150 151 161 161 165 169 165 167 172 172 169 179 177 161 152 149 152 146 147 123 124 121 117 99 99 97 92 84 81 91 81 82 80 78 71 64 70 86 92 92 85 83 85 75 69 61 54 32 24 29 32 27 28 38 53 61 41 31 31 41 51 77 91 99 104 104 108 109 113 111 114 112 117 115 116 114 123 122 126 125 127 132 138 141 152 147 168 167 159 157 163 157 158 147 164 161 165 159 156 171 170 178 172 172 166 145 143 128 133 136 133 107 111 98 91 81 61 77 71 69 66 74 67 77 83 81 72 66 61 64 82 88 91 84 84 79 71 64 55 32 26 27 29 31 28 32 49 55 43 30 29 43 48 80 99 101 109 99 118 109 116 112 100 107 110 102 106 105 109 112 115 124 125 127 123 124 128 131 134 134 139 135 143 140 155 147 155 146 153 146 151 163 147 160 160 156 150 131 121 116 127 118 104 96 87 71 62 62 53 70 60 66 64 60 72 69 66 79 80 61 67 61 58 78 83 84 82 79 73 72 58 31 29 31 29 27 32 27 49 55 43 35 20 44 64 80 99 98 103 105 116 111 120 96 97 95 100 94 96 97 98 99 98 104 98 93 93 94 101 105 104 111 106 107 119 123 129 145 139 143 137 139 138 154 143 150 135 135 133 110 105 101 113 91 87 78 68 61 59 59 53 66 59 59 61 70 73 70 62 67 67 70 72 67 64 68 67 88 79 75 79 67 60 42 31 30 21 29 28 24 41 51 31 36 28 35 74 89 92 101 99 110 114 114 96 87 88 95 95 98 83 89 96 87 78 68 71 64 72 72 72 80 86 80 78 87 92 101 115 125 129 127 125 129 127 136 137 134 123 128 116 103 92 89 94 74 82 70 68 66 63 63 57 49 71 68 72 81 85 94 83 85 86 87 80 71 82 69 57 77 82 78 71 72 61 52 29 26 30 27 23 27 27 48 32 30 28 45 81 89 94 98 100 109 108 95 89 73 91 95 86 91 82 89 80 85 79 70 66 63 65 71 65 61 76 70 71 69 84 84 101 105 122 114 120 122 120 122 123 127 116 120 102 103 84 80 81 71 70 70 60 65 60 59 56 78 77 88 90 91 100 101 101 101 100 97 89 85 96 84 79 62 78 79 75 72 64 50 27 32 30 26 24 26 27 43 36 34 25 51 79 85 103 90 104 107 95 87 92 92 98 94 95 100 90 102 83 84 87 80 74 63 68 74 67 73 76 66 68 73 76 76 93 94 107 110 118 117 120 114 127 115 120 107 101 87 86 75 73 69 63 62 59 61 64 74 90 98 103 102 104 105 107 107 107 103 102 105 95 99 103 101 88 73 64 76 82 71 71 54 30 38 26 30 24 28 26 38 44 32 26 51 85 85 95 95 111 92 86 95 108 107 121 109 103 102 104 109 107 100 100 86 85 74 74 65 71 80 71 69 74 82 78 86 90 93 98 108 111 111 119 111 112 106 110 105 92 84 80 74 65 70 59 62 67 76 88 103 111 118 119 110 112 105 111 111 106 109 110 110 110 108 106 101 97 88 68 72 79 77 70 62 31 31 33 24 28 27 22 35 39 37 21 50 81 89 90 105 103 85 71 99 116 114 119 123 116 110 110 111 117 118 115 111 111 105 108 92 91 80 86 79 76 86 85 88 94 91 100 109 107 111 118 117 107 109 101 103 91 89 83 69 73 61 66 74 86 92 100 117 115 115 112 101 98 89 103 99 103 109 114 114 116 112 110 106 90 99 76 72 79 78 74 63 36 25 35 20 27 24 26 29 33 39 29 40 86 88 96 101 91 81 97 113 117 125 126 124 122 120 120 121 123 119 125 127 124 124 119 118 113 100 94 92 83 79 76 89 97 104 108 113 120 116 117 119 124 110 107 108 96 89 89 75 63 73 80 94 85 94 92 86 92 93 97 98 92 82 79 78 75 82 96 109 116 110 110 108 99 93 86 75 75 77 76 70 40 23 34 22 28 29 26 35 33 35 27 45 80 90 103 97 81 88 113 113 118 128 132 130 128 133 127 125 124 117 119 118 121 117 111 111 109 103 100 99 92 93 82 82 99 108 120 123 127 121 130 139 142 117 119 107 106 94 89 70 64 80 86 87 81 76 68 98 116 117 128 128 101 104 95 96 89 87 75 73 99 103 109 108 102 93 83 79 80 76 84 65 47 25 29 25 25 25 25 34 36 34 27 41 84 90 104 88 94 88 117 123 116 133 130 136 129 137 128 115 103 80 88 90 92 86 86 76 67 63 78 90 96 103 93 77 100 118 126 134 133 134 134 146 146 130 119 107 114 102 91 69 77 84 91 86 52 81 90 113 113 118 118 108 78 101 90 88 99 100 90 101 69 77 94 100 94 82 78 91 80 84 77 73 44 31 27 27 25 28 22 49 41 34 26 39 84 94 104 96 105 99 113 119 123 129 136 140 133 124 96 85 84 93 111 115 125 120 104 97 86 67 58 57 74 98 91 92 90 117 126 138 137 134 133 150 142 133 114 115 117 102 91 63 90 100 85 68 75 84 90 84 73 50 48 97 33 39 47 45 69 76 91 100 98 74 71 91 82 83 77 93 87 83 78 77 44 29 23 27 25 32 40 65 34 46 30 40 84 100 102 102 109 104 112 113 124 129 128 121 89 95 104 103 114 110 116 94 88 84 79 83 76 75 81 64 59 60 83 89 92 103 120 134 133 139 128 144 142 126 114 115 108 99 74 66 112 98 80 87 69 63 44 59 68 12 67 176 29 17 20 53 30 35 48 61 93 84 74 78 83 80 83 90 94 86 84 75 54 21 25 28 24 51 70 58 34 40 40 30 86 106 100 106 108 107 107 115 121 121 106 57 100 117 128 118 89 61 51 33 127 19 26 39 45 49 51 69 77 83 68 81 98 100 118 129 138 133 124 139 129 129 110 115 110 90 70 75 122 95 98 45 30 40 59 138 121 13 49 57 22 26 21 61 91 34 22 24 46 61 75 85 88 75 89 91 97 92 88 76 56 24 27 25 40 47 33 30 40 32 34 37 87 101 102 115 110 109 108 112 115 107 58 98 127 125 106 56 32 82 17 42 122 22 26 28 109 59 20 33 38 73 114 110 104 104 122 128 130 126 128 130 132 116 114 114 109 97 84 74 105 113 48 75 64 222 147 142 173 39 38 35 35 43 14 106 138 97 25 15 32 42 50 62 71 74 97 101 100 101 88 77 64 25 27 23 63 45 17 21 46 35 26 43 89 89 105 116 119 109 107 114 104 85 96 114 107 63 33 28 93 131 19 30 32 27 38 44 140 99 120 187 53 34 100 125 109 106 128 123 124 129 131 127 134 120 120 111 108 102 93 85 91 113 81 94 78 175 98 96 121 92 118 56 49 38 69 120 117 88 50 50 56 50 61 70 88 87 102 102 102 103 87 81 67 34 29 44 93 68 8 19 32 39 25 40 92 89 109 120 112 117 101 107 107 97 103 69 45 23 25 117 157 71 27 36 39 42 26 79 109 60 103 172 77 96 109 109 106 116 127 116 124 132 129 130 134 126 121 113 110 108 96 89 86 97 111 102 105 98 112 112 103 119 120 117 81 69 73 80 76 89 97 97 89 77 83 88 97 98 100 98 98 108 90 85 68 35 41 66 119 88 11 20 53 39 34 49 86 94 109 121 124 125 99 99 89 83 69 33 40 30 33 115 136 131 66 44 65 103 90 114 124 104 100 104 93 114 111 107 107 125 117 121 125 131 137 131 133 131 120 117 115 114 99 104 90 93 103 101 99 91 99 95 87 96 81 84 76 77 71 83 84 98 104 106 98 93 78 88 101 104 101 100 101 99 100 85 72 48 46 71 101 108 30 15 42 54 41 44 94 92 112 116 124 124 108 94 101 95 92 76 82 96 104 94 88 90 88 98 107 134 97 111 92 87 102 95 112 105 104 118 118 124 118 127 125 129 128 133 126 137 121 121 116 112 107 109 104 92 102 102 109 107 98 82 73 88 73 80 82 85 85 88 92 92 92 81 80 77 85 94 97 105 104 104 98 102 96 88 76 54 63 71 98 105 66 7 28 34 47 49 93 94 111 121 122 123 117 108 119 115 99 112 114 118 128 114 104 97 89 96 80 92 83 88 91 87 103 117 110 107 114 119 125 119 127 123 132 129 131 140 134 135 129 122 117 116 106 115 104 103 102 108 106 119 110 104 93 77 68 56 48 53 55 59 61 63 71 72 79 97 103 108 96 111 109 102 101 105 99 89 82 53 108 89 92 104 86 20 30 21 53 61 94 96 108 119 123 120 115 118 121 114 103 101 117 115 120 122 99 95 95 94 81 74 80 78 90 100 112 125 117 116 120 128 123 122 125 124 132 131 132 140 138 136 127 127 119 115 109 109 115 103 105 103 115 119 117 111 109 108 94 89 77 73 67 66 62 71 89 105 106 110 117 113 110 109 112 104 103 104 102 95 86 62 80 88 83 91 98 41 24 21 86 63 97 92 111 114 120 114 121 124 122 118 111 110 102 99 89 98 91 86 74 75 70 77 91 101 113 126 121 123 129 127 128 123 132 124 125 124 136 134 135 141 135 137 126 126 120 116 106 112 112 116 105 103 109 117 115 118 114 111 111 105 104 108 101 104 109 112 111 115 111 115 111 119 109 110 109 109 107 104 98 97 89 74 52 49 66 73 93 69 12 29 124 87 86 100 108 115 116 117 113 130 123 119 122 123 116 113 107 105 92 97 95 102 102 102 110 115 121 127 123 128 127 127 127 123 128 131 118 130 131 132 136 133 138 131 127 123 120 114 113 106 104 118 110 106 105 114 116 119 119 110 109 108 111 115 107 114 111 109 111 114 114 118 114 114 115 113 109 111 107 109 101 98 94 80 49 38 48 63 75 90 7 50 133 93 83 104 108 112 117 119 120 122 124 125 127 127 132 124 127 120 121 117 116 116 114 117 125 125 127 124 124 126 131 126 128 122 130 127 127 127 127 132 136 135 136 132 139 119 126 115 108 109 102 103 108 113 111 116 115 115 112 117 117 112 109 104 114 109 109 111 122 113 118 116 112 119 119 108 115 110 106 109 104 98 92 86 54 36 36 46 61 95 5 91 130 93 86 105 106 115 114 119 122 126 125 130 133 123 128 130 124 124 125 118 120 116 117 116 121 126 123 123 122 127 129 130 123 127 131 123 124 127 125 135 131 140 143 137 146 128 128 117 115 109 99 104 101 111 112 119 112 120 116 122 120 118 112 119 106 109 106 107 113 110 115 117 114 121 118 112 115 117 111 106 109 100 94 86 74 27 29 34 52 86 21 110 129 86 90 106 105 107 117 117 126 130 129 133 132 134 127 125 124 122 119 116 120 121 120 115 120 126 127 125 127 127 127 131 129 130 123 122 124 124 139 133 133 150 155 160 150 130 130 126 117 108 107 105 98 103 109 111 102 115 118 119 125 122 122 118 118 115 107 114 108 115 117 112 116 116 117 116 116 115 113 108 105 99 98 87 74 42 15 32 43 77 33 125 119 79 92 102 110 113 122 118 128 129 131 135 131 130 127 125 128 120 113 114 118 117 115 127 121 127 127 122 136 135 130 138 139 120 120 118 125 127 141 138 147 160 178 190 189 135 134 131 128 114 114 101 96 106 108 110 104 99 120 125 126 128 123 117 127 115 120 104 115 118 113 118 120 120 110 115 116 116 112 108 106 101 98 86 85 44 18 26 35 76 65 126 100 83 95 105 107 117 122 125 131 132 140 137 132 132 125 125 124 122 118 117 122 119 125 125 129 131 130 138 134 132 134 138 121 117 115 123 128 137 147 145 161 195 206 219 205 156 132 130 133 132 128 110 102 111 118 116 113 103 98 115 125 120 126 124 123 122 122 122 122 118 119 121 123 117 121 116 114 119 112 109 106 106 95 85 79 64 17 25 34 81 84 123 86 80 101 103 109 122 120 124 134 130 137 135 131 128 126 125 128 126 121 124 127 128 133 128 132 136 133 140 140 118 120 123 115 118 113 128 136 145 152 150 170 172 192 192 167 148 139 124 137 146 137 130 117 120 122 125 121 115 94 100 117 120 126 129 131 126 124 125 122 119 123 119 121 123 123 115 114 120 109 107 106 99 92 84 72 77 18 21 36 98 102 97 72 78 96 105 111 116 127 131 132 133 131 133 132 124 129 129 127 131 133 126 132 133 138 140 137 141 145 140 131 116 121 126 131 125 128 143 161 172 163 135 164 153 153 165 133 130 133 123 135 123 118 131 134 136 128 141 143 131 90 99 114 117 121 128 133 126 122 126 123 122 122 121 124 122 125 121 125 118 110 111 104 99 90 85 79 73 30 16 60 95 116 81 45 87 91 106 112 121 124 129 133 131 130 130 135 128 132 125 134 125 132 132 136 140 147 141 142 138 138 128 110 124 137 132 147 140 142 160 154 180 159 134 139 145 136 127 124 117 120 116 114 95 100 113 112 124 119 127 127 121 91 106 116 117 120 126 132 132 122 125 123 119 116 119 121 126 121 121 127 121 116 111 104 93 91 86 83 67 48 45 78 58 124 79 37 92 94 106 114 123 126 127 126 128 133 136 134 135 135 131 136 129 129 140 133 139 145 143 136 133 127 118 111 133 174 164 161 152 140 144 124 141 152 134 127 125 117 115 103 112 108 100 83 86 74 79 80 81 84 89 88 93 77 113 120 126 125 120 134 113 121 128 126 119 118 111 119 117 121 123 119 119 117 108 101 94 93 89 80 68 57 63 58 24 127 88 43 86 97 103 114 123 130 126 128 129 135 140 138 142 131 138 136 135 133 139 132 140 140 135 137 123 109 115 117 135 159 145 123 124 116 112 108 113 118 126 120 107 100 93 87 102 92 89 73 41 33 29 34 34 38 50 57 70 67 85 125 121 119 124 134 123 119 128 115 121 115 107 119 116 120 120 118 115 113 106 98 92 92 84 79 70 57 60 54 45 111 117 66 87 94 106 107 122 129 121 132 131 137 140 143 142 135 139 137 135 138 131 136 142 132 136 135 117 110 120 127 124 118 108 88 67 56 55 53 71 89 110 106 91 81 83 74 84 78 68 32 20 16 18 21 20 16 28 39 62 52 44 123 128 124 115 126 121 116 111 107 107 104 111 110 111 122 114 113 105 106 97 91 89 88 84 82 70 55 53 66 67 63 115 85 88 91 103 117 125 119 127 132 134 137 143 140 141 138 134 135 134 135 131 138 132 135 136 122 106 120 136 139 102 107 74 43 22 19 21 21 24 19 61 96 78 70 52 64 64 75 38 30 29 26 30 32 33 16 31 44 57 50 42 122 126 120 119 116 124 115 100 103 103 104 103 107 107 114 107 104 96 96 87 86 87 80 89 71 70 59 49 66 67 82 107 77 91 92 102 115 116 123 128 132 142 137 141 144 135 136 134 134 123 132 128 138 132 132 125 123 113 131 139 148 78 97 66 39 25 27 35 44 50 49 52 47 71 68 41 45 65 57 33 34 35 44 69 74 83 57 55 62 64 62 63 121 126 122 123 109 114 110 97 103 100 99 99 96 106 102 100 98 94 92 85 74 81 82 83 73 70 59 59 53 65 103 98 78 90 95 104 111 116 118 126 131 134 142 141 142 137 129 134 129 128 123 126 131 130 126 122 122 125 135 150 145 85 92 93 66 39 69 98 102 94 82 52 53 35 55 44 39 49 25 31 29 41 43 67 78 80 70 74 65 80 86 90 120 118 121 125 117 105 102 89 95 92 88 100 98 99 103 96 91 87 83 72 69 79 78 79 79 58 63 65 76 72 101 94 78 86 96 107 112 115 115 117 127 130 132 138 135 134 131 134 125 119 123 125 121 127 120 122 123 138 135 147 147 106 106 102 99 94 107 104 106 102 84 62 56 45 46 40 29 38 42 35 42 50 76 81 92 96 89 89 90 100 104 111 118 113 119 121 110 107 100 94 82 90 86 94 99 94 99 94 87 81 76 68 65 72 70 78 72 64 66 61 76 83 97 98 84 95 90 106 113 114 112 112 111 120 128 127 135 130 127 131 124 117 116 120 114 120 117 133 120 140 138 139 143 134 122 122 112 115 121 114 115 112 102 91 76 54 47 49 31 39 58 54 82 97 104 103 97 106 99 102 106 101 112 112 117 116 113 111 107 108 101 95 87 80 84 87 88 92 93 82 89 80 69 68 60 70 73 76 75 64 68 56 53 68 103 120 93 88 90 104 112 110 111 110 105 111 122 120 124 129 127 124 117 117 110 114 113 113 118 131 120 132 130 132 126 137 139 133 128 124 121 123 113 119 123 123 126 92 62 55 53 58 71 110 131 106 108 101 103 108 101 108 102 102 95 107 112 108 107 106 92 99 91 83 85 86 79 88 83 88 89 81 86 80 70 63 63 75 71 70 75 68 68 52 38 40 114 124 93 92 85 105 109 111 106 108 105 97 110 115 114 121 122 118 118 114 116 109 106 108 117 117 120 120 123 123 127 139 134 129 121 116 121 115 118 121 121 124 134 98 100 104 100 104 105 122 130 110 106 105 106 106 106 108 109 106 105 105 106 104 105 97 100 91 84 86 84 90 86 86 86 88 80 86 78 77 72 63 66 76 77 61 72 75 61 58 29 32 104 91 73 97 87 99 112 109 106 103 108 91 103 107 111 114 116 120 118 115 110 102 102 103 110 112 114 114 115 129 131 129 119 124 111 127 119 124 120 119 126 131 133 121 122 123 125 118 122 130 127 111 112 109 111 110 116 108 110 109 110 109 111 109 108 107 105 97 82 84 85 79 93 84 86 85 80 85 79 72 69 67 67 70 73 69 64 66 65 65 22 34 61 56 60 97 91 102 107 109 107 102 104 100 100 106 111 109 117 112 119 113 103 102 103 105 110 107 100 113 112 132 112 131 123 134 122 127 118 127 127 112 134 134 135 143 154 137 163 139 110 122 113 105 106 98 102 103 105 110 113 117 114 120 113 107 109 116 107 103 83 92 89 78 90 84 78 88 91 84 80 78 67 67 70 70 73 72 64 60 64 60 26 32 47 39 57 100 101 89 105 108 100 109 103 106 98 96 110 103 106 115 120 110 106 110 108 104 93 97 104 107 121 122 114 132 129 125 132 128 129 130 124 112 122 125 125 124 127 128 135 125 106 107 101 113 107 100 102 102 97 96 103 99 104 119 114 114 108 113 107 97 95 93 87 81 77 77 83 82 88 82 84 73 70 69 75 73 76 75 63 57 69 45 32 32 48 39 53 102 101 94 110 102 101 109 101 107 104 95 102 104 105 104 119 112 109 121 97 88 84 97 109 112 126 126 120 129 127 131 146 129 126 121 114 112 119 125 123 121 125 118 138 129 103 107 104 117 104 107 100 103 100 105 103 98 93 99 97 97 109 99 110 99 97 78 90 85 79 74 83 81 70 82 84 74 69 64 82 77 73 75 67 60 61 43 31 32 50 41 44 102 103 103 101 101 107 102 103 106 100 102 91 109 101 110 118 116 113 115 86 71 90 110 108 124 127 129 131 123 140 139 129 124 122 118 122 112 120 125 117 112 124 114 130 115 91 91 111 98 99 99 90 94 101 103 104 105 97 100 92 84 68 75 73 80 89 85 75 86 84 78 77 79 78 87 85 72 61 73 76 74 79 71 59 63 63 38 33 33 45 45 43 95 96 109 97 93 109 102 102 106 104 108 98 100 107 117 121 118 112 105 82 76 97 96 113 130 129 126 134 127 132 126 120 122 126 119 113 115 107 111 106 106 112 103 125 100 89 81 100 93 88 85 77 75 91 81 89 100 86 91 88 74 59 44 48 42 66 89 75 76 85 76 80 84 78 81 84 70 64 78 77 73 78 66 62 60 65 34 34 31 46 49 35 92 96 105 103 94 106 98 98 105 100 104 106 99 104 114 120 122 107 89 81 75 77 85 125 134 127 118 114 109 112 113 116 111 122 110 103 91 88 71 89 93 84 91 99 77 74 62 64 76 60 59 54 54 61 58 59 66 57 73 60 59 49 35 23 16 63 69 64 75 84 76 81 88 79 81 85 64 70 70 74 70 79 65 57 55 65 28 33 35 53 47 33 78 102 102 105 104 99 102 95 100 89 104 106 104 110 117 121 114 96 86 79 73 40 109 126 114 103 81 83 94 99 105 120 92 101 89 86 68 53 43 51 59 64 64 68 56 49 46 47 44 39 41 40 41 41 35 42 46 50 43 54 38 27 20 11 19 65 72 63 69 77 80 80 82 88 82 76 65 74 68 72 73 67 66 51 60 51 32 29 32 54 43 37 69 94 104 106 107 93 100 96 101 90 101 105 110 119 117 121 105 96 82 67 66 34 105 101 74 45 47 64 84 88 87 91 77 77 69 63 48 40 40 43 48 54 54 53 44 52 52 62 44 58 52 52 50 66 53 45 67 79 38 34 21 14 22 16 70 93 82 71 65 70 82 77 72 85 76 78 59 70 63 71 70 63 59 55 58 47 30 31 30 45 52 41 57 94 99 105 106 97 97 98 98 95 98 105 109 115 116 118 106 84 79 63 52 45 89 56 27 17 20 28 56 77 75 52 58 54 48 66 56 62 51 74 69 74 83 93 22 85 94 96 105 113 117 67 87 109 67 64 89 135 25 42 37 50 74 62 97 111 88 77 77 66 61 75 76 77 75 68 65 58 63 68 60 59 52 56 60 37 30 33 30 47 50 44 41 92 88 106 104 103 106 96 96 95 93 102 108 116 117 121 101 84 73 53 44 66 96 77 33 28 26 29 25 84 101 94 93 99 57 165 115 110 63 151 125 127 115 126 38 91 116 113 129 135 104 45 81 110 52 79 89 135 67 99 101 99 101 79 115 105 94 80 75 65 64 68 79 82 68 62 61 68 61 69 62 57 55 56 58 30 30 34 34 46 49 48 33 80 88 101 98 105 102 97 95 92 89 99 108 114 113 110 109 84 76 50 47 83 109 120 91 72 109 89 90 108 107 116 111 105 38 88 90 76 25 135 111 105 68 62 34 42 65 64 57 74 74 84 90 98 137 92 114 118 111 100 121 102 92 95 115 102 94 99 73 69 68 69 64 76 61 61 61 59 65 63 61 55 44 65 44 30 30 36 35 51 42 52 35 67 85 95 100 102 101 99 99 93 91 96 99 108 113 108 104 92 74 57 56 90 123 128 110 107 128 117 122 135 130 118 115 103 69 75 77 74 75 85 62 78 67 78 71 85 90 86 94 99 111 108 103 108 117 110 106 104 105 96 96 96 94 110 105 102 100 102 87 78 67 68 65 72 55 63 64 50 60 62 59 47 51 61 31 30 35 35 34 48 50 44 41 46 82 92 95 100 99 100 91 100 94 93 95 94 108 103 99 91 75 66 72 107 120 126 134 110 115 112 131 127 119 122 118 115 112 106 108 106 97 101 93 98 113 114 130 131 127 136 123 127 119 117 116 113 99 97 99 120 111 109 82 95 103 110 98 98 98 95 89 84 67 61 69 66 57 55 52 61 58 62 50 56 50 55 27 30 36 31 37 48 52 45 41 34 74 91 95 95 100 95 99 98 88 93 98 99 93 93 102 86 72 75 86 116 128 128 134 127 114 118 115 109 127 144 117 114 119 115 129 124 129 119 116 118 130 138 141 127 138 158 135 141 126 119 104 107 90 99 141 162 96 98 91 102 110 104 93 95 103 97 94 87 73 66 61 65 54 54 56 59 60 54 53 49 55 37 35 32 31 36 33 43 50 44 43 42 52 90 90 94 97 97 95 95 88 89 101 92 96 90 102 77 72 77 81 117 130 125 127 128 124 121 121 106 122 134 148 133 117 109 132 137 143 151 142 152 151 140 140 142 164 171 184 153 139 115 97 84 112 106 146 115 88 92 100 107 105 97 96 94 96 102 96 78 70 76 66 56 52 58 57 59 61 46 59 47 55 31 30 33 33 34 32 40 50 46 47 49 37 73 88 94 96 92 92 95 90 88 95 86 93 91 95 86 71 70 94 116 122 120 130 125 131 129 125 119 110 118 174 163 131 105 119 142 146 176 201 198 185 204 182 191 184 211 219 212 121 94 89 75 113 101 102 84 97 95 104 105 91 93 93 94 94 95 90 80 81 71 58 57 51 55 57 50 56 49 59 60 40 28 34 35 32 37 32 43 50 49 45 46 49 48 85 91 93 96 92 92 94 91 89 87 86 85 88 77 80 76 91 110 123 120 119 117 123 131 130 123 119 112 141 163 129 117 104 129 133 167 197 198 170 177 162 177 146 181 162 147 82 80 74 79 78 97 85 87 83 99 99 94 81 87 89 95 93 87 78 84 81 67 63 56 55 54 57 48 56 54 58 57 32 36 32 38 32 35 34 44 50 43 43 53 43 44 75 88 91 92 93 91 92 89 85 82 83 85 91 74 89 86 89 105 121 116 120 116 117 127 126 130 119 113 122 134 114 112 96 106 114 120 135 122 131 124 129 124 114 110 105 87 75 68 71 68 73 74 78 74 91 85 83 84 74 84 85 88 87 78 83 93 73 58 59 52 52 52 58 49 53 51 66 43 31 31 37 34 32 37 31 47 46 45 47 47 45 49 45 86 89 86 92 88 95 87 83 86 80 85 79 80 85 88 88 96 111 118 117 116 103 119 119 126 116 117 115 104 111 110 89 95 86 101 105 105 107 107 115 108 106 91 85 73 67 69 69 58 64 65 67 80 83 76 73 70 73 80 80 80 81 87 85 85 63 64 51 47 50 55 55 42 57 57 56 27 38 30 34 32 32 38 35 45 45 49 41 47 51 50 40 56 91 90 89 90 89 85 86 85 82 82 79 81 88 90 87 91 102 110 108 112 108 108 104 108 108 109 120 105 98 106 93 89 83 90 89 89 89 86 96 89 78 77 73 62 58 54 58 48 56 63 74 63 67 61 60 68 73 77 80 72 82 90 85 75 60 56 54 53 46 51 52 43 61 66 34 33 33 35 35 32 36 36 28 41 47 50 47 46 48 50 47 34 79 90 90 86 87 84 85 81 83 79 73 86 84 88 89 80 99 109 102 103 110 101 97 97 98 96 100 106 99 87 77 75 76 70 70 69 64 71 79 63 63 65 49 46 45 42 46 46 55 57 52 48 51 48 55 66 69 75 76 73 88 84 83 69 57 63 48 47 52 41 50 51 73 51 31 36 33 33 37 33 33 36 31 47 44 48 45 44 50 44 45 43 43 89 90 90 84 83 82 79 85 76 75 84 84 82 91 89 107 94 96 104 104 100 98 92 90 83 82 85 86 87 78 75 64 62 57 54 51 58 56 56 48 41 43 40 40 44 40 44 37 39 39 34 49 45 60 66 72 69 73 89 83 85 88 66 66 56 46 48 42 41 55 58 69 32 36 32 36 27 39 34 35 32 30 47 40 47 44 48 46 52 47 50 39 54 90 88 88 82 84 74 84 81 69 87 88 85 81 99 88 93 98 100 98 102 100 95 89 81 70 70 63 55 57 60 51 54 47 48 44 41 42 45 36 35 42 33 32 33 32 28 26 33 33 34 46 54 66 72 66 74 84 93 93 85 76 67 60 52 37 54 48 49 56 69 56 29 39 34 31 38 30 35 33 35 31 44 49 42 47 45 50 48 49 48 47 5 137 80 84 90 84 79 81 75 74 82 82 82 79 102 50 96 86 107 105 103 97 99 90 80 74 63 54 43 46 33 37 32 28 34 26 30 29 24 28 22 28 22 25 21 33 23 33 32 33 46 53 60 70 68 75 83 82 86 97 82 65 69 54 37 43 52 43 60 58 60 52 34 29 39 34 30 34 31 33 37 25 46 49 45 47 43 54 45 49 47 52 17 220 143 62 80 90 82 81 72 79 81 72 80 87 83 63 96 86 102 106 111 101 92 95 86 83 78 60 52 48 37 43 38 34 35 34 32 32 26 29 26 23 30 27 29 34 28 34 43 50 56 69 65 76 73 89 83 86 80 91 73 77 62 41 36 38 49 50 61 58 53 66 37 34 36 34 32 33 33 29 38 28 54 41 44 44 42 48 49 49 47 29 83 229 226 113 60 88 83 76 74 74 59 66 75 84 72 67 91 67 98 103 112 110 101 97 86 91 86 77 66 60 46 49 40 42 44 34 37 33 31 34 34 34 29 32 31 40 48 49 70 72 78 75 78 74 85 95 90 77 75 83 73 54 48 37 36 41 44 63 63 50 48 56 68 29 34 36 35 33 35 30 35 28 48 45 39 49 43 51 44 49 50 12 121 234 216 214 55 86 82 85 73 77 51 69 71 77 65 65 77 71 94 104 105 116 105 95 102 99 95 78 86 85 73 70 63 60 51 52 40 45 46 42 40 47 42 58 63 72 79 75 83 87 84 88 90 71 80 88 82 77 62 68 58 47 36 36 38 35 58 61 55 59 46 39 100 20 35 30 36 31 29 33 31 36 41 45 46 44 42 47 42 49 44 20 136 231 212 224 145 64 85 86 83 77 67 79 71 64 53 57 62 54 87 96 91 115 105 94 109 112 103 101 94 99 98 97 99 90 87 84 75 79 73 78 82 82 85 96 96 99 97 92 89 93 88 86 92 71 76 81 67 75 55 48 50 33 34 37 42 44 62 55 55 57 31 47 102 54 53 41 31 31 32 28 34 26 42 47 46 51 39 49 43 48 50 42 125 223 216 212 227 92 84 83 85 75 81 70 68 61 61 50 60 65 78 82 98 99 108 97 97 95 103 99 97 89 106 107 111 111 97 106 94 92 97 85 103 106 101 98 97 99 101 96 91 91 90 79 83 68 60 74 56 64 47 36 38 39 34 35 48 60 62 54 54 53 21 76 106 83 121 120 98 83 80 82 71 62 50 44 42 41 45 50 45 45 43 57 106 187 223 211 218 190 96 75 84 84 82 79 63 70 41 59 52 66 81 71 85 83 103 87 80 84 100 58 96 87 66 100 107 111 113 96 102 88 75 93 80 97 77 93 88 91 94 89 85 81 78 68 66 62 51 50 50 51 54 33 36 30 36 32 57 56 53 54 54 33 32 89 121 50 55 82 82 92 96 93 88 96 125 140 149 152 141 110 106 136 110 58 139 88 227 217 210 223 163 91 82 87 84 83 73 73 59 54 46 59 51 54 85 52 75 68 58 45 81 45 64 54 69 89 97 89 81 97 76 81 48 70 61 58 82 86 71 101 76 78 75 75 64 57 62 54 44 38 45 35 42 38 29 27 30 49 51 59 50 58 39 35 54 99 187 23 55 95 112 106 91 96 108 123 155 181 179 146 119 125 131 173 208 144 123 77 128 224 215 209 231 143 102 86 82 88 79 80 78 65 41 51 42 52 57 39 64 56 48 38 60 50 46 49 70 67 67 63 45 69 49 65 37 58 49 62 61 62 65 82 69 68 53 62 54 48 39 38 40 26 39 25 33 29 23 34 48 53 49 52 51 47 28 63 71 144 191 33 81 109 128 139 141 142 128 122 159 164 148 101 67 101 70 87 114 142 120 105 80 134 232 214 211 221 127 113 90 79 87 85 79 75 60 37 40 42 49 45 49 49 47 41 39 45 43 51 40 63 60 40 47 57 46 51 35 38 56 46 48 59 50 68 46 51 51 44 42 37 25 36 33 36 29 27 29 32 34 39 57 50 51 47 39 45 59 80 86 184 173 50 95 90 67 70 85 89 91 101 201 202 209 205 159 172 157 117 90 137 122 112 114 74 175 224 214 211 228 135 113 87 84 84 85 82 78 48 45 41 43 43 54 35 37 31 47 41 43 41 38 49 49 40 47 38 39 52 38 41 39 35 34 47 42 43 40 48 33 40 37 33 31 32 36 26 34 22 40 27 49 57 44 53 45 40 37 75 84 78 126 200 151 63 68 49 77 85 77 78 82 80 124 106 120 150 167 160 192 134 117 142 121 120 116 118 88 191 216 210 210 224 114 96 100 82 85 85 79 66 49 50 28 44 43 50 30 37 33 34 35 38 30 43 29 44 45 31 40 38 39 36 22 29 32 43 36 27 48 39 35 27 33 30 33 27 39 25 32 26 36 35 47 54 43 47 44 58 74 67 91 88 170 197 129 52 22 81 98 120 133 74 67 80 111 203 195 153 90 84 110 87 99 156 111 135 112 115 113 119 157 192 206 212 226 111 86 109 85 76 81 76 72 43 46 42 37 46 38 50 38 36 37 32 28 47 31 39 35 37 32 35 38 25 30 25 33 28 32 33 33 28 25 26 28 35 27 33 28 34 32 45 45 47 47 48 32 68 104 65 78 95 70 141 186 202 76 54 54 101 93 112 142 131 115 68 