P2
92
112
255
58 57 61 58 53 59 55 58 58 57 59 54 59 54 40 34 38 34 35 31 38 29 35 29 20 36 29 39 34 34 30 35 30 38 31 38 43 35 48 45 45 50 41 47 34 48 29 39 32 46 26 37 24 32 34 27 32 27 28 31 36 35 32 32 33 27 36 39 56 54 57 55 55 62 52 56 55 56 57 53 55 50 59 53 54 51 55 54 55 53 56 53 57 59 62 52 59 58 58 58 58 57 56 61 52 48 44 37 36 34 33 33 32 22 35 24 33 31 30 42 42 46 40 40 37 47 42 51 51 50 48 52 55 57 59 58 51 62 51 43 48 44 39 32 25 34 31 38 25 27 34 33 30 38 27 26 36 31 28 37 40 45 56 53 57 53 57 50 56 55 55 50 55 58 48 58 52 54 50 57 50 56 45 59 60 58 60 52 62 57 59 63 56 61 58 51 43 37 35 38 35 37 32 32 28 30 34 23 37 36 36 47 42 43 52 53 61 51 54 59 55 68 60 62 70 67 68 71 64 71 61 61 59 57 53 42 44 40 33 34 33 31 29 38 28 31 28 27 29 31 28 31 34 43 44 54 59 57 56 52 60 54 56 56 52 56 58 55 54 50 54 52 57 51 54 56 56 53 60 57 63 56 53 60 56 59 56 40 35 34 32 32 31 27 37 34 34 30 39 34 45 50 48 59 58 56 64 69 66 60 70 68 65 66 68 70 77 73 74 75 77 70 76 66 72 74 68 62 58 53 44 44 39 40 30 32 33 22 33 33 27 35 30 30 32 33 33 44 57 60 59 53 60 54 57 55 50 57 61 51 55 53 56 55 53 53 53 53 58 58 56 60 63 56 59 57 59 52 49 34 32 37 40 35 30 35 31 34 35 39 41 47 56 65 59 77 73 73 71 81 74 71 70 78 76 75 77 80 81 80 84 80 87 74 79 78 76 73 72 68 67 64 69 58 58 48 43 36 39 28 35 24 37 33 27 30 29 33 35 34 49 57 60 53 60 54 55 55 54 58 57 56 54 55 57 53 56 54 55 55 56 52 58 60 56 60 57 60 59 45 41 37 38 35 44 29 33 31 42 42 43 54 65 62 71 76 75 76 85 86 83 86 79 81 74 84 82 87 82 85 86 87 89 89 88 85 84 83 81 80 74 81 70 73 74 71 66 62 60 52 41 40 30 33 31 29 25 27 33 27 32 34 37 41 50 58 58 56 57 55 51 60 57 56 53 58 55 55 54 59 52 56 56 56 59 62 59 58 58 58 50 38 33 38 34 32 41 24 36 39 48 56 64 69 79 91 80 84 91 79 95 88 87 89 86 86 86 81 89 90 86 86 90 90 101 91 89 86 86 83 84 86 81 85 77 78 78 75 72 72 67 57 57 49 42 32 32 31 26 29 27 31 28 34 32 35 42 55 58 58 55 57 55 57 53 55 56 57 53 55 51 59 52 52 58 61 59 58 61 60 62 53 37 35 35 40 30 33 38 37 44 50 56 75 80 81 87 92 91 92 93 88 96 88 90 91 98 95 92 88 90 102 101 94 90 99 98 95 90 95 91 85 90 89 85 82 83 77 80 81 75 76 68 67 62 56 57 40 42 28 27 35 24 30 33 27 27 32 39 46 56 58 57 57 58 55 54 54 56 56 53 57 53 55 55 51 56 55 64 55 61 58 56 46 32 33 38 41 35 34 47 50 61 65 75 87 79 88 95 89 97 93 97 99 97 98 96 98 102 101 109 95 104 106 109 107 109 100 100 97 94 94 92 97 93 89 95 88 86 81 82 78 76 77 73 73 67 65 61 52 52 38 29 36 26 31 34 25 29 34 35 40 55 61 57 57 55 54 55 56 57 56 56 54 53 58 51 54 58 60 58 60 63 54 44 39 32 33 39 37 39 50 64 68 71 80 87 90 91 93 92 98 99 97 102 104 98 106 104 108 109 107 111 106 114 115 109 116 113 106 109 102 103 100 94 104 100 93 96 94 88 88 82 83 81 76 74 75 76 68 68 56 64 50 34 37 33 26 29 30 30 37 31 37 40 54 58 58 56 55 57 54 60 54 56 56 53 60 56 56 58 56 59 62 68 42 39 35 38 27 39 45 50 69 75 79 78 90 91 94 96 97 94 99 106 100 109 100 107 110 109 112 117 117 119 114 120 117 119 118 114 114 112 115 103 109 105 103 98 101 99 97 97 92 86 92 76 84 80 75 77 73 70 69 58 61 48 42 34 28 33 29 34 32 32 33 33 44 55 60 56 56 57 53 55 55 58 56 56 59 53 50 60 60 60 62 58 40 37 33 27 32 41 58 64 83 76 89 85 95 95 92 106 95 101 104 112 100 110 106 106 113 117 118 118 125 120 124 134 128 127 126 118 118 114 120 102 105 118 112 97 103 104 101 105 95 94 94 80 85 82 88 74 77 71 75 64 63 59 51 40 31 29 31 34 29 31 31 33 37 49 59 59 59 59 57 57 52 61 53 57 55 51 49 60 63 56 64 50 32 38 30 30 42 56 73 69 115 82 88 95 101 95 98 106 100 112 105 104 109 109 111 113 122 116 128 122 130 129 132 136 135 129 133 119 122 125 128 116 116 115 113 115 106 110 101 103 102 95 97 90 83 88 89 80 82 75 75 74 65 68 59 47 39 34 32 35 29 26 34 32 27 40 54 58 58 58 57 62 58 56 57 60 52 52 54 61 57 60 51 32 35 39 27 26 56 73 80 78 97 92 93 98 98 102 102 107 103 113 100 106 115 110 113 121 120 127 129 136 131 134 138 133 137 136 134 125 130 130 128 126 118 117 121 117 115 117 108 103 109 99 99 93 93 89 93 85 87 79 83 73 75 72 62 61 47 40 32 34 31 34 36 32 33 29 43 54 59 57 58 56 54 54 59 54 56 58 53 57 63 58 35 40 33 38 30 35 67 77 85 83 90 95 95 101 95 109 107 107 108 108 106 107 114 116 122 119 129 133 133 142 137 146 142 145 144 133 131 127 129 132 130 126 126 113 128 112 118 107 120 102 101 98 98 93 96 93 92 92 87 84 83 82 74 78 68 63 51 41 34 34 31 30 28 30 32 30 34 41 57 54 60 55 55 57 55 54 58 52 58 56 61 52 33 42 32 40 29 52 81 78 85 89 92 99 102 101 97 109 112 110 111 112 114 103 124 118 131 123 143 139 136 151 144 144 143 145 144 141 136 139 131 132 125 118 124 124 119 117 126 106 114 113 102 97 102 98 96 92 93 91 93 88 84 82 80 75 72 73 48 43 38 40 25 33 31 29 29 30 33 32 54 56 57 56 53 55 58 54 54 51 56 68 54 37 36 31 44 33 40 66 81 81 86 88 94 99 100 99 106 109 114 118 113 115 111 121 121 127 128 137 140 133 146 154 149 150 143 148 146 151 143 146 136 140 121 133 127 129 118 126 121 116 106 113 99 104 98 105 95 97 95 94 94 92 94 85 82 77 82 76 59 56 45 35 32 37 36 35 28 28 31 39 50 56 57 57 56 53 56 55 58 52 55 67 43 37 31 34 41 34 58 74 79 86 91 94 95 100 100 102 118 107 117 114 115 114 122 117 129 127 136 129 142 142 140 151 144 150 148 143 149 150 143 143 142 138 119 134 124 124 121 120 115 114 114 104 109 102 102 101 96 96 96 96 91 101 90 92 86 82 79 75 70 67 49 45 28 36 38 28 29 26 34 34 38 59 54 56 57 53 56 58 55 52 55 56 43 31 36 30 32 51 65 82 84 90 95 97 101 105 110 108 114 114 117 115 122 117 118 126 126 130 137 133 146 142 141 149 142 151 153 147 151 153 145 141 133 126 130 129 126 123 123 116 118 122 107 111 110 105 100 102 101 98 94 94 96 97 97 88 88 87 81 79 67 68 56 43 41 34 31 28 31 34 26 38 32 52 59 57 55 55 56 59 57 55 59 52 33 38 32 34 34 61 74 87 90 92 95 100 107 115 111 110 115 112 118 116 121 114 127 125 131 128 139 135 149 143 146 147 140 153 152 143 148 150 143 146 134 133 130 127 131 120 127 120 120 123 105 115 108 107 103 103 99 101 96 100 96 97 96 91 88 92 85 75 78 67 57 53 44 35 30 32 28 34 31 33 28 52 59 54 55 58 57 55 56 55 52 44 31 38 36 36 41 66 82 86 93 95 100 102 112 112 108 112 116 112 118 118 117 125 117 127 130 133 139 140 148 142 145 149 145 150 145 147 146 152 145 141 141 130 132 134 132 129 126 118 119 116 107 112 109 108 102 103 99 100 96 102 97 97 97 97 90 95 88 81 85 71 57 70 42 39 34 35 30 31 28 27 29 44 59 53 57 58 55 58 56 54 57 37 32 37 37 40 43 68 84 88 96 93 108 110 116 109 102 114 114 117 120 115 123 123 116 128 132 135 140 144 150 151 147 152 146 141 143 143 145 145 146 136 138 131 131 130 125 130 121 117 120 109 111 108 111 104 97 102 99 97 100 99 96 102 95 97 91 98 93 85 88 81 66 62 57 29 36 38 34 28 34 24 34 42 52 58 58 55 56 58 58 55 58 39 35 37 37 45 49 68 85 93 98 101 110 112 115 108 111 116 118 122 116 115 120 122 123 130 131 136 144 142 155 154 149 143 151 145 147 140 140 141 143 134 134 130 127 124 126 119 122 121 119 114 112 113 109 113 99 103 100 102 101 98 98 98 94 100 96 94 97 92 89 87 78 63 65 35 32 37 36 33 33 26 36 33 48 55 58 56 57 58 58 57 57 26 43 40 31 49 60 73 86 101 98 107 112 108 115 107 114 116 116 120 115 120 120 119 124 127 128 135 137 134 142 144 144 144 140 145 146 130 144 139 139 133 133 132 134 132 128 123 126 126 119 120 114 116 114 113 107 106 103 102 100 98 99 98 94 101 95 94 101 94 89 90 82 71 70 45 31 33 32 32 34 23 33 29 50 59 52 57 57 62 49 57 57 42 34 35 29 54 73 83 91 102 105 110 114 116 120 111 112 115 115 116 119 117 122 120 114 123 123 131 136 131 132 141 135 144 135 142 144 142 143 144 142 139 134 137 141 139 131 133 127 129 118 124 118 117 116 117 112 109 108 104 99 101 99 102 96 104 99 94 102 95 96 93 81 80 74 48 40 36 30 33 31 28 29 29 49 56 57 53 59 57 54 58 57 44 35 37 38 59 78 87 98 102 110 113 114 120 115 116 120 120 110 115 118 116 122 118 125 121 133 133 135 131 135 139 138 140 135 147 142 142 145 144 140 143 137 137 144 145 136 147 129 130 126 135 128 122 123 121 117 119 109 109 104 106 100 95 101 103 97 93 101 96 100 93 91 83 74 58 54 42 28 31 26 33 33 29 41 56 54 58 54 58 54 55 58 39 43 34 39 62 82 90 103 106 109 116 119 112 116 123 117 117 115 115 123 123 121 126 129 129 135 132 140 132 138 142 145 143 137 144 138 146 144 142 138 141 142 144 146 142 143 151 140 139 134 145 137 131 130 130 126 125 115 110 105 102 99 95 99 100 99 98 97 96 103 93 89 88 77 64 63 47 31 25 32 32 29 30 36 52 60 54 55 59 55 60 58 35 37 33 49 69 75 99 99 108 116 116 115 120 119 117 116 120 119 121 118 125 126 131 132 136 135 141 139 144 141 143 150 147 141 148 145 154 153 148 147 153 148 147 152 152 161 153 153 156 149 156 146 146 139 127 126 125 119 109 109 99 92 87 86 92 100 97 95 100 97 92 87 89 81 77 63 58 31 26 34 31 29 31 32 49 54 58 59 54 58 56 56 29 45 27 52 69 88 96 109 109 120 115 114 116 121 120 123 125 122 126 124 126 127 140 136 145 146 146 146 161 162 157 153 149 144 147 153 162 161 150 157 165 159 150 162 167 165 164 164 177 165 161 152 140 141 121 121 112 106 105 101 90 85 91 77 68 79 93 96 92 96 86 89 87 83 81 66 64 29 29 29 28 30 30 26 51 51 54 58 53 58 52 62 37 46 17 56 75 94 94 114 116 119 113 116 120 121 127 125 128 123 129 131 134 132 139 140 153 144 158 159 170 183 170 163 154 152 156 165 173 163 162 167 176 172 174 182 172 162 164 161 167 156 138 138 129 116 112 106 101 89 91 89 84 78 88 77 85 62 73 85 94 94 86 93 89 85 80 76 63 39 32 31 24 32 27 20 41 51 54 56 54 57 53 61 37 40 33 53 70 92 100 114 113 120 116 115 117 124 125 124 131 127 134 142 131 137 141 146 158 151 168 170 171 176 169 170 154 155 168 162 174 168 173 179 183 172 186 181 158 155 148 146 156 123 121 118 109 87 80 84 77 79 73 79 74 75 89 85 70 68 72 58 84 88 88 82 89 84 75 77 67 44 37 26 25 28 30 18 38 44 50 51 56 56 52 58 38 27 37 46 79 92 102 107 113 112 120 117 120 121 122 126 124 127 132 134 136 131 137 146 154 151 167 163 167 157 162 163 153 154 163 164 166 153 168 170 177 180 172 158 144 136 127 131 137 107 109 91 71 69 56 67 61 63 66 65 69 73 70 86 68 76 66 65 72 71 86 82 86 83 85 69 70 51 35 28 31 27 22 25 34 36 49 57 57 54 56 56 38 33 30 47 78 104 103 111 113 116 120 120 114 120 115 115 116 118 120 125 130 129 131 125 137 139 133 144 141 140 148 148 152 151 152 154 142 147 157 148 155 158 152 143 125 112 119 127 94 104 76 66 57 54 59 60 57 60 62 63 72 66 64 64 60 88 75 79 74 71 72 84 87 81 77 72 76 49 36 29 30 28 23 23 27 39 50 48 52 54 55 52 38 33 24 61 81 99 98 111 115 116 125 111 99 113 111 106 108 108 111 115 128 112 117 114 117 114 113 117 112 115 120 128 134 141 139 138 132 139 144 146 146 139 138 126 104 97 108 96 83 79 70 61 62 61 52 57 64 66 71 73 90 90 85 83 89 90 85 68 92 75 67 71 87 84 78 78 69 57 36 34 31 30 24 26 25 32 42 52 49 55 54 62 31 32 30 59 89 94 96 108 117 118 122 97 93 98 99 99 95 101 97 84 93 77 86 73 88 83 92 88 80 88 100 107 122 127 127 124 129 125 135 133 137 122 127 110 104 85 96 74 81 72 66 64 65 60 50 57 71 82 83 91 100 100 100 101 100 94 92 87 103 94 81 65 79 82 82 75 76 56 39 32 27 24 27 25 28 29 45 48 50 52 52 57 35 29 30 58 93 95 96 108 114 116 98 86 89 92 105 94 86 89 86 82 63 65 66 62 64 63 76 67 69 72 82 87 97 113 119 114 121 121 119 126 124 115 119 97 104 69 87 71 69 69 57 59 52 58 70 81 96 97 102 106 105 104 105 100 105 99 97 100 106 102 94 75 69 81 82 77 78 61 39 36 25 27 28 25 24 30 45 45 50 50 53 61 38 36 21 57 89 102 93 108 110 98 87 77 98 96 85 87 85 81 84 80 72 64 59 65 65 61 67 64 61 65 72 73 91 96 114 109 116 117 111 122 116 118 108 93 90 74 74 63 66 55 61 60 64 81 95 107 115 108 113 109 111 109 104 108 110 108 109 108 109 103 100 87 75 83 83 77 80 68 39 27 30 30 22 26 24 35 41 44 49 45 53 55 38 36 18 60 87 96 96 108 102 84 95 97 106 97 102 97 96 94 81 84 81 67 63 61 65 62 67 63 63 68 70 72 84 90 99 107 111 111 114 109 109 102 104 88 80 78 66 60 63 55 69 69 81 97 111 121 124 119 109 106 103 105 100 106 110 113 115 111 110 105 97 95 82 82 77 81 80 74 40 31 26 26 25 23 27 38 49 44 45 49 50 55 32 32 22 49 84 90 104 109 81 92 106 109 123 117 103 106 107 109 106 98 90 88 79 72 70 67 69 66 69 70 77 83 84 87 99 105 108 109 112 106 105 96 100 90 86 82 67 62 63 58 78 79 84 104 107 103 97 98 87 84 82 76 78 84 98 108 114 109 113 108 101 95 87 83 79 82 82 75 40 35 22 28 26 25 40 59 66 46 42 50 45 54 25 40 30 39 87 89 105 95 72 91 110 117 122 125 115 113 111 112 117 113 115 107 110 103 100 92 79 82 78 69 72 78 88 95 101 111 108 113 109 115 116 100 104 96 90 86 69 63 61 70 77 76 80 82 86 99 109 125 109 106 104 91 86 81 70 78 93 100 110 105 102 87 84 92 81 84 79 79 42 30 29 19 28 33 66 59 58 69 41 46 49 51 29 38 30 36 84 99 100 86 83 108 111 124 127 125 123 125 119 124 123 116 123 121 120 115 115 107 97 94 84 73 77 77 87 102 111 121 116 117 118 131 125 113 108 105 95 87 68 56 70 72 69 73 70 80 102 114 120 132 103 117 101 96 101 99 96 98 67 73 88 100 90 81 83 98 82 82 83 77 44 27 28 22 30 49 49 24 41 69 52 38 51 50 35 38 21 36 83 99 96 80 95 112 109 125 132 129 129 137 128 126 117 108 113 106 96 97 88 86 82 91 88 91 90 72 87 109 118 129 128 125 133 143 141 123 107 108 106 85 70 52 78 83 86 64 81 92 96 93 85 77 64 58 60 51 81 81 94 102 101 76 63 88 86 84 86 94 88 86 80 76 56 22 29 29 36 69 24 18 32 59 67 34 49 47 32 39 31 23 86 101 92 93 92 115 113 123 131 135 133 138 127 106 84 83 86 99 96 90 83 62 48 54 72 90 92 85 81 114 125 134 137 135 134 150 145 126 115 112 104 86 52 70 115 101 79 77 80 74 62 46 27 84 122 11 22 24 43 37 52 75 93 95 72 84 87 85 85 94 97 87 82 77 64 24 30 25 49 99 37 16 19 56 76 36 49 43 34 36 44 30 89 101 95 104 98 107 116 120 134 133 132 117 88 90 92 110 112 124 119 106 105 87 78 64 51 63 80 84 83 104 121 133 137 139 137 148 143 130 118 109 102 85 39 118 120 91 81 70 53 38 70 61 10 75 49 22 24 19 76 39 25 31 47 68 72 85 84 70 94 94 97 94 85 71 69 27 39 35 72 118 62 12 21 44 89 35 43 46 45 33 43 25 87 99 103 101 101 105 116 120 126 113 84 95 111 118 114 102 90 69 67 61 63 63 72 70 68 73 58 71 82 99 115 129 138 139 132 143 143 124 113 114 97 80 53 123 111 99 38 23 73 49 133 130 26 37 29 32 29 31 122 107 36 19 26 50 42 55 80 80 99 103 98 99 86 75 68 34 46 52 76 112 86 7 16 50 89 37 41 48 46 37 37 27 84 99 103 103 102 101 113 119 108 59 92 120 132 111 71 55 28 22 123 9 20 50 40 42 54 69 98 78 88 96 113 127 135 133 128 136 137 123 116 114 104 85 70 105 121 74 62 49 220 107 105 143 50 76 56 37 35 72 117 91 54 52 61 54 74 79 95 98 94 100 101 99 91 81 70 39 59 60 77 97 107 26 11 55 99 40 41 50 58 44 32 29 83 96 110 113 104 102 108 115 61 79 130 123 98 50 38 88 5 47 47 21 17 94 82 33 47 20 57 116 116 98 118 123 130 127 128 132 133 121 117 110 108 97 93 87 102 109 105 84 140 99 108 111 117 137 123 74 71 78 75 81 93 99 89 91 88 91 101 95 102 100 104 103 100 76 77 41 79 96 77 97 107 49 14 60 97 36 44 45 73 43 31 27 88 94 114 114 113 103 110 89 86 108 109 71 27 31 93 84 20 27 27 42 15 120 114 107 224 62 55 107 114 106 121 123 122 135 126 133 132 121 120 113 107 106 96 84 92 105 109 109 101 108 101 107 99 105 103 87 77 77 79 98 104 103 104 93 74 75 94 101 102 101 103 102 99 83 80 52 74 99 90 85 100 84 17 62 106 32 41 42 73 55 43 34 85 96 113 117 110 99 103 100 99 86 51 28 14 111 151 81 30 35 34 46 49 104 80 77 135 92 107 104 108 111 125 118 125 135 132 131 135 123 121 114 118 100 107 93 86 96 99 102 98 95 92 95 98 95 87 97 87 88 95 94 92 87 79 61 82 101 102 100 108 103 101 108 99 92 78 66 29 57 63 70 85 99 33 65 96 38 39 43 77 64 41 38 87 95 112 118 120 102 86 87 77 45 32 43 29 87 118 130 63 57 89 129 122 130 114 101 95 96 107 110 109 120 118 119 127 129 140 130 138 127 123 117 120 106 108 110 94 98 100 106 100 99 84 80 66 64 68 68 69 69 72 62 67 63 69 93 108 118 107 110 107 103 103 108 104 93 86 72 28 31 48 57 67 96 53 65 88 34 37 45 74 76 29 30 88 96 112 118 121 113 85 105 93 78 81 99 120 98 90 89 87 90 114 101 105 84 92 93 95 104 104 107 121 123 118 125 122 131 132 131 130 134 126 117 118 113 111 106 106 103 105 111 113 107 102 89 78 59 48 42 40 40 46 49 60 93 106 115 114 123 109 109 114 105 106 104 106 96 93 79 40 22 36 46 55 82 73 77 85 28 42 42 79 79 23 37 91 93 112 119 121 111 109 117 110 109 111 121 135 123 104 98 94 90 85 81 78 85 75 94 111 110 109 124 120 123 120 123 130 130 131 135 135 138 131 120 121 114 110 114 105 109 104 118 117 120 112 113 108 103 89 93 87 79 91 96 101 113 112 121 113 119 116 116 113 110 107 110 102 102 91 84 52 12 38 33 48 84 75 84 70 34 41 37 79 80 7 60 92 92 110 120 119 114 115 113 100 96 106 119 125 122 102 102 93 91 71 68 58 80 93 112 121 123 120 127 125 121 118 125 133 131 134 141 141 135 137 123 115 120 114 115 113 114 104 113 116 116 116 118 111 113 108 114 112 108 108 109 112 116 122 124 116 122 121 108 116 111 113 109 107 100 96 84 66 18 26 26 45 77 82 85 69 29 40 44 84 82 4 87 89 96 107 118 117 119 127 114 113 104 100 95 90 100 82 81 65 65 57 73 86 107 120 122 125 129 128 125 121 124 116 126 133 137 134 141 140 131 129 124 118 118 113 112 121 116 111 108 115 117 116 113 115 114 113 109 110 114 106 113 119 121 120 124 120 123 119 115 119 117 114 108 108 103 96 86 77 32 22 21 37 68 95 73 79 28 39 45 80 80 16 104 84 99 107 116 120 123 127 125 124 119 119 107 104 95 83 84 81 91 95 102 113 120 124 124 125 133 127 124 120 123 121 126 136 135 137 139 140 129 127 127 116 120 114 105 116 114 118 118 120 116 117 114 119 119 120 119 115 115 109 112 113 118 117 117 124 121 122 118 121 112 118 109 105 102 97 88 82 50 19 20 37 66 100 71 76 33 36 45 60 85 31 116 81 98 108 115 119 124 128 128 127 128 132 122 122 117 114 113 112 113 111 118 123 125 122 126 124 129 126 119 119 126 125 126 133 129 133 136 134 132 126 126 122 113 115 100 105 108 115 121 112 106 120 123 120 122 126 121 122 123 113 121 109 121 123 121 124 123 122 118 117 118 116 112 107 101 93 91 84 61 17 25 35 68 109 66 79 31 39 34 41 107 44 122 83 98 107 111 121 123 131 131 131 131 128 128 126 125 125 118 124 117 117 119 125 125 121 123 126 126 125 124 126 124 126 128 132 126 143 135 142 147 133 129 126 115 119 104 104 106 105 115 109 92 99 120 124 127 133 126 127 127 127 126 115 125 125 123 129 121 124 117 118 120 116 114 106 99 93 88 81 75 24 22 38 81 103 65 81 27 44 43 24 117 55 122 74 106 104 111 119 124 132 133 133 134 130 131 122 122 123 113 123 121 114 117 124 125 125 123 130 132 133 127 129 123 123 130 133 128 138 144 151 152 146 127 136 112 124 104 108 101 104 109 109 111 76 97 120 124 135 127 133 136 132 134 134 133 126 129 124 127 122 123 119 118 117 109 107 97 89 88 81 76 36 24 46 98 73 67 86 26 40 39 12 117 81 111 83 101 108 119 120 125 133 134 136 133 132 127 128 120 115 114 117 121 119 124 122 127 129 131 129 137 136 129 119 120 125 129 140 137 142 161 181 183 159 132 129 129 120 115 108 100 110 112 119 117 96 79 95 107 114 122 127 140 138 140 136 134 127 132 120 126 130 121 125 125 121 109 107 97 88 91 83 72 56 46 68 80 44 87 89 27 37 37 27 106 95 94 85 103 109 119 123 129 133 141 135 130 133 125 124 122 114 120 121 123 123 131 129 128 137 137 117 117 125 121 114 121 125 129 145 143 156 165 210 219 198 126 138 131 130 123 118 103 114 123 122 122 121 93 89 103 104 116 119 134 135 136 141 130 130 130 121 124 130 120 132 133 121 116 105 93 87 92 85 71 57 62 76 50 53 97 78 31 35 35 30 87 111 67 89 102 111 122 124 132 133 138 136 132 128 124 125 127 120 123 130 132 132 131 135 136 137 125 100 116 125 117 117 121 130 143 152 146 156 174 194 205 191 138 127 132 136 139 131 119 124 133 128 132 128 99 105 107 103 112 109 132 130 133 132 129 127 117 121 122 124 120 128 125 124 110 103 94 88 91 81 74 57 62 74 60 80 99 76 28 36 37 30 87 112 60 89 100 110 123 126 133 136 133 137 128 128 130 131 127 135 122 137 138 139 143 135 141 127 103 119 126 132 125 122 123 145 160 164 148 158 159 162 159 144 142 124 132 137 128 135 132 134 133 139 147 145 104 106 119 114 110 111 126 109 137 132 130 123 118 114 117 118 123 121 125 118 107 97 91 84 86 81 75 62 54 66 80 89 94 87 32 35 37 32 79 122 59 87 101 114 123 130 134 129 134 134 130 129 129 133 129 135 129 140 140 140 141 137 130 107 107 131 132 138 138 138 140 166 185 178 131 143 139 143 141 123 126 121 123 116 107 120 118 126 124 120 125 115 90 107 130 120 113 113 118 119 126 131 120 126 115 111 113 117 115 122 116 108 101 88 87 81 90 82 74 64 52 57 84 89 101 103 33 35 40 48 80 118 77 86 102 113 121 125 131 128 135 138 136 134 134 140 127 136 138 133 142 142 128 132 115 100 114 149 163 155 156 145 153 145 171 163 129 128 131 126 116 113 114 113 109 98 87 103 98 96 88 96 78 86 72 90 135 129 119 110 115 112 112 115 110 108 105 104 107 110 118 116 96 99 85 78 82 75 86 81 74 67 54 56 72 80 100 102 37 39 30 47 95 75 103 82 99 114 126 128 124 127 138 139 143 141 135 140 136 132 138 125 144 129 132 130 103 106 125 147 170 157 146 143 140 114 128 141 129 121 116 112 107 99 107 98 84 84 66 61 55 43 50 41 47 63 58 46 131 131 124 112 113 107 117 99 104 100 101 95 102 107 108 107 93 90 82 75 69 76 80 80 72 68 56 69 75 84 104 82 27 32 41 52 106 56 93 87 99 111 125 128 122 134 142 148 150 140 144 135 141 133 135 132 138 130 130 116 109 117 115 119 133 111 113 111 106 107 106 113 120 115 100 95 86 88 92 79 87 50 20 22 22 19 21 25 30 58 50 37 116 129 122 118 110 104 101 98 101 95 89 97 88 97 99 94 89 83 75 65 67 73 83 75 71 68 59 79 92 93 87 45 38 32 36 57 93 89 87 88 100 112 118 126 125 132 142 148 150 146 145 141 138 131 127 137 129 131 129 106 116 133 115 106 103 80 58 49 51 54 69 91 109 97 89 75 78 75 72 75 57 33 19 34 41 55 73 51 61 72 71 51 102 120 118 117 106 98 89 83 89 85 82 86 87 92 97 93 81 79 65 60 57 71 76 81 67 73 60 60 70 85 60 29 35 31 41 80 103 100 83 90 98 112 117 123 124 136 137 147 148 138 144 135 131 127 123 130 129 128 116 115 119 143 117 84 96 57 34 22 25 24 35 31 62 90 78 60 57 55 63 74 36 22 28 45 63 84 90 85 78 85 88 66 103 114 111 116 100 99 82 78 79 76 79 79 91 87 93 89 82 71 66 52 56 73 79 81 71 68 72 42 55 55 38 31 34 33 34 107 100 101 84 90 98 103 114 119 125 136 135 140 145 136 140 134 128 124 119 126 123 125 117 121 128 149 122 82 117 98 87 61 83 89 82 78 53 45 65 65 40 48 66 34 22 20 40 42 61 84 84 79 83 90 91 82 108 111 110 113 100 101 87 82 71 63 67 71 83 86 86 75 85 69 62 47 65 73 73 84 71 69 68 45 34 35 41 30 43 28 38 103 106 102 82 91 98 107 110 113 125 128 135 138 139 137 133 133 125 121 122 118 126 120 117 128 137 140 129 88 127 129 125 109 123 105 101 99 78 51 43 47 40 29 56 31 24 33 47 63 72 87 82 86 87 95 101 106 113 111 105 105 97 96 87 64 72 65 66 69 73 80 84 73 85 70 60 49 72 75 73 71 82 66 66 45 32 35 35 35 32 34 38 113 108 110 82 92 99 108 108 111 117 119 124 129 126 134 136 133 120 121 118 117 112 121 126 123 140 137 135 90 116 130 123 120 115 105 88 91 85 56 58 38 34 25 50 57 35 61 83 93 96 101 95 98 100 91 102 112 110 106 103 96 94 86 75 80 68 71 67 68 68 84 75 80 75 72 63 59 74 76 77 70 69 66 71 51 25 38 34 36 30 39 31 109 112 123 92 83 103 105 108 110 101 110 115 122 123 127 129 129 115 114 115 110 115 119 124 124 128 133 129 98 113 123 114 110 111 114 94 96 89 69 55 38 30 28 38 55 60 105 100 105 99 99 100 99 105 103 96 107 107 107 101 101 97 99 88 84 80 71 78 64 68 82 80 83 77 74 60 67 74 73 81 70 65 59 74 52 26 33 36 40 34 37 33 60 105 106 89 87 98 110 108 103 97 99 108 108 111 122 121 121 116 117 110 104 113 111 118 120 120 123 123 119 132 127 117 107 118 119 115 117 120 98 76 38 41 44 42 70 107 117 103 104 101 94 103 99 105 105 108 109 112 116 107 111 107 108 93 87 88 79 80 71 65 74 94 82 82 76 61 69 78 73 77 71 62 61 66 47 29 34 33 39 32 37 31 51 55 78 80 95 94 110 106 100 99 93 99 103 104 111 114 116 119 113 108 102 102 107 103 106 111 116 126 139 139 124 122 117 115 125 123 122 116 117 115 96 99 100 102 109 129 113 107 108 107 103 110 103 110 110 111 117 115 111 110 114 110 108 94 93 93 85 76 73 65 72 87 83 79 71 69 74 82 82 74 76 60 60 65 40 31 30 38 33 36 34 38 50 47 37 79 96 94 110 105 98 101 93 92 96 101 104 109 113 122 112 103 100 96 99 95 94 109 118 136 133 132 123 131 120 123 127 124 114 121 123 124 138 135 147 121 121 125 116 115 107 107 106 104 107 107 112 110 118 117 114 111 110 113 100 96 92 93 93 84 75 66 79 68 82 80 74 67 75 83 80 70 72 59 58 61 40 35 31 33 39 29 37 32 46 52 35 73 99 94 107 106 103 99 93 95 93 100 101 105 107 118 111 100 98 98 88 75 96 109 125 131 120 132 127 136 121 129 130 130 116 124 125 126 119 123 127 119 96 114 101 101 98 99 95 98 93 94 97 95 100 102 101 105 108 109 105 100 95 78 84 96 79 70 76 79 87 85 75 62 82 83 79 76 65 59 59 60 37 35 33 33 36 35 34 33 49 50 37 68 102 92 102 109 99 99 98 102 86 96 100 99 107 112 107 104 103 97 56 67 115 116 129 128 120 132 126 125 137 132 127 127 114 114 113 104 111 117 116 130 105 97 102 107 112 98 103 92 95 95 95 90 95 90 81 70 65 75 75 89 101 93 81 90 75 83 76 85 81 80 69 71 84 81 74 74 69 54 58 63 37 31 37 33 34 35 36 36 48 50 41 60 106 93 107 102 101 100 96 102 96 88 96 94 99 113 109 110 104 68 40 103 118 127 129 136 127 128 134 139 141 122 115 114 113 114 115 112 113 120 125 126 93 95 105 102 104 83 88 83 89 90 95 89 81 91 64 55 43 35 33 72 100 88 83 92 84 80 85 79 86 84 62 72 75 75 75 70 63 53 58 59 29 37 32 34 33 38 31 38 38 57 39 54 104 103 102 102 103 97 97 100 98 96 95 99 105 113 116 107 96 50 79 130 114 135 132 134 133 130 135 129 118 113 119 123 110 112 116 111 100 111 107 95 91 91 98 92 79 76 73 70 70 76 88 83 75 76 43 49 23 16 16 70 85 80 74 83 84 81 91 87 84 76 68 68 77 77 70 66 60 50 58 55 28 35 28 39 32 36 32 37 47 53 44 45 97 102 99 94 104 97 95 101 100 102 93 95 112 116 121 101 79 86 111 118 111 130 131 129 129 117 114 115 114 125 116 113 105 98 91 107 98 106 102 76 74 80 82 89 62 46 47 56 50 37 43 51 48 51 82 77 68 47 51 115 81 85 70 75 88 89 69 90 80 74 62 66 67 75 67 62 51 54 56 53 26 35 32 38 30 33 39 28 46 53 49 38 99 99 105 96 101 100 91 101 94 103 99 97 110 122 114 90 78 96 109 82 121 131 119 110 98 101 99 111 102 118 106 108 84 73 69 80 73 78 81 73 67 46 49 53 35 38 30 40 39 41 44 52 67 118 135 112 126 90 92 117 96 92 76 74 70 79 69 85 69 72 57 59 67 61 59 57 49 58 58 42 32 32 38 31 39 33 33 31 52 51 50 35 79 104 107 102 101 100 94 96 92 102 99 108 119 118 95 90 83 86 72 93 110 107 97 77 74 79 97 111 106 88 93 69 50 36 38 43 52 57 57 53 44 50 40 55 62 53 49 60 74 54 81 111 114 123 131 114 95 93 114 116 103 94 83 82 67 64 80 80 69 68 57 63 62 66 64 54 53 56 59 34 32 34 34 34 35 32 33 35 59 50 48 36 66 101 106 105 95 95 96 92 96 98 106 115 114 115 91 88 69 71 49 96 87 71 39 54 67 67 80 83 63 62 62 43 42 43 43 52 58 60 57 50 52 86 98 124 110 134 66 90 86 105 112 118 99 114 104 76 91 107 116 108 103 101 88 76 74 65 72 85 61 62 55 62 65 60 61 53 53 56 55 33 33 34 32 32 37 29 40 25 53 54 43 45 43 99 104 101 102 94 99 95 96 98 105 112 113 119 89 78 70 52 45 91 77 25 38 102 110 96 100 57 60 72 27 83 94 82 69 129 118 123 127 91 51 143 151 176 159 154 89 105 108 105 98 100 112 94 82 96 101 117 110 109 105 105 101 83 75 70 62 63 62 56 59 52 60 63 54 49 49 62 41 32 35 32 33 35 34 32 33 31 52 54 49 43 35 93 98 103 101 103 99 94 93 92 107 106 120 117 82 77 56 44 52 97 92 80 97 132 152 137 151 91 84 118 43 177 176 124 90 191 159 161 148 129 67 203 175 173 129 114 115 114 103 95 93 122 127 76 83 106 113 116 105 100 108 101 95 82 69 61 74 65 58 54 51 54 62 52 54 58 46 61 35 33 32 34 35 35 29 35 34 36 51 50 44 50 30 72 99 101 99 102 95 95 89 88 101 111 110 113 90 69 50 43 61 110 118 116 114 104 123 135 127 118 112 109 72 123 136 140 83 195 196 196 156 151 24 177 137 134 125 128 117 109 97 96 106 132 101 88 95 113 113 109 96 97 107 100 91 78 74 56 68 61 63 47 47 59 61 49 53 51 54 52 32 36 31 34 28 34 31 31 36 30 43 49 50 42 42 49 95 96 101 101 95 98 95 89 97 103 114 104 90 68 57 49 77 118 104 141 111 121 109 113 150 140 112 113 112 113 116 120 96 127 142 140 100 100 106 138 139 164 167 159 115 91 100 94 117 100 95 100 104 111 108 98 98 96 108 101 83 73 61 61 66 59 51 52 55 55 55 55 52 50 59 42 28 38 35 32 31 31 34 32 31 35 45 46 49 45 49 35 86 98 100 98 96 95 96 94 90 93 111 97 92 70 61 58 97 117 107 135 125 120 132 109 131 139 144 125 111 115 128 133 131 129 137 145 145 146 151 160 188 205 232 146 98 82 85 102 83 90 87 97 111 100 95 93 99 98 100 97 74 74 61 68 70 54 48 52 56 49 51 55 55 56 56 29 38 35 34 35 30 34 33 29 33 35 47 45 51 49 41 43 67 96 97 100 94 100 92 90 92 96 95 97 89 62 71 68 105 124 116 110 125 132 129 121 113 128 177 154 118 107 124 131 144 152 169 188 183 166 161 155 197 173 151 79 77 80 69 88 84 80 83 96 95 94 94 93 95 97 94 84 66 69 75 70 63 52 50 55 49 50 51 53 56 63 43 32 36 35 36 35 31 34 35 30 32 34 50 45 50 45 44 44 47 91 96 98 97 96 90 88 93 93 94 96 93 51 73 64 113 115 118 113 113 128 134 124 121 113 155 164 130 110 110 122 131 145 156 163 168 143 125 120 121 103 87 70 72 73 68 76 75 75 88 87 92 91 92 85 91 91 86 72 69 86 82 67 62 53 51 53 48 51 50 57 57 59 34 35 33 37 36 37 32 30 34 31 31 35 48 47 45 46 45 48 40 71 93 97 94 91 92 87 90 85 89 95 89 64 63 62 109 114 115 110 109 116 130 127 121 109 126 131 115 108 97 108 115 116 130 122 125 121 107 104 93 92 72 65 74 62 67 65 64 79 82 86 86 87 85 82 84 82 72 73 84 95 77 61 57 43 50 52 51 46 53 57 62 47 28 38 33 33 37 32 35 32 33 31 30 36 47 42 46 46 46 47 46 51 88 98 91 93 92 88 89 82 85 89 82 71 70 62 97 112 118 117 112 108 121 126 121 108 110 109 107 100 91 90 89 94 98 102 100 95 92 86 79 69 63 55 65 58 54 56 73 68 85 80 85 77 83 79 81 74 69 77 96 96 61 69 47 52 45 50 53 41 54 60 63 35 34 36 35 34 38 30 38 27 36 29 32 32 47 47 43 48 46 49 52 35 71 96 92 90 89 87 83 79 86 79 81 77 76 77 91 106 121 111 112 98 109 118 107 114 107 100 99 102 85 88 77 81 81 74 78 75 68 66 65 51 49 49 50 42 51 61 69 65 77 75 72 78 73 78 74 69 70 92 91 88 59 59 54 50 48 40 55 50 59 67 47 33 35 36 34 32 35 33 32 32 35 29 31 34 50 41 46 46 47 49 46 43 50 89 92 91 88 91 83 76 80 84 71 85 76 85 88 94 111 115 108 104 100 102 107 106 104 102 90 85 76 74 68 64 62 58 57 67 57 51 55 49 42 41 43 54 54 57 64 61 70 62 61 68 67 72 70 73 82 87 97 82 61 62 48 46 44 38 52 55 63 65 34 39 33 38 37 36 35 36 35 35 31 29 32 32 51 44 45 41 52 44 48 50 33 76 95 89 92 85 87 80 77 84 68 86 84 79 95 87 108 98 109 103 107 99 103 98 99 99 90 84 73 77 59 57 51 55 45 52 51 42 44 42 49 45 54 52 48 51 51 53 51 59 57 66 66 75 63 78 95 89 95 81 66 56 49 43 41 40 54 57 68 52 27 39 36 35 33 35 36 34 31 31 31 30 28 36 46 48 40 42 47 50 45 47 45 45 94 94 89 88 86 80 73 78 75 82 83 79 80 95 103 95 105 96 101 106 95 96 98 94 83 83 79 72 69 61 54 56 48 49 52 44 54 47 46 43 39 42 38 34 45 44 47 56 62 66 69 79 63 92 98 99 86 76 65 58 34 50 50 47 57 63 67 42 33 33 34 34 35 36 37 33 30 33 31 29 34 28 52 39 47 41 50 47 45 51 50 33 68 96 91 85 80 73 80 73 70 84 77 79 84 105 88 95 99 96 98 102 102 97 87 83 75 65 63 58 51 50 46 44 42 42 51 32 33 38 35 31 33 36 31 34 37 53 53 59 67 69 74 71 83 94 97 101 95 61 65 43 32 47 45 48 60 66 57 34 33 37 30 36 35 33 36 28 38 24 38 26 35 25 49 48 45 49 45 46 51 50 49 39 38 101 90 87 80 80 76 77 67 87 82 77 85 86 85 87 103 101 100 100 93 93 88 78 62 61 56 44 43 39 37 40 37 38 23 34 30 32 34 26 32 31 36 51 56 57 57 63 73 71 84 78 96 90 94 101 87 71 50 46 30 49 40 62 62 60 64 39 37 35 35 34 39 37 33 33 32 31 32 31 29 36 48 47 42 46 45 46 50 46 49 43 50 195 66 83 90 83 75 76 69 75 86 72 92 67 81 90 106 105 103 98 96 89 86 83 65 63 50 44 41 39 40 40 34 35 31 39 19 35 32 30 34 46 61 72 69 65 69 77 83 82 71 101 103 93 93 96 75 62 45 31 40 40 53 65 59 56 54 69 32 33 36 31 36 36 33 28 34 31 31 33 26 31 46 46 45 48 40 48 50 45 46 36 74 234 151 57 92 81 83 77 70 73 74 75 93 55 101 83 100 113 109 98 97 87 94 87 81 72 67 61 49 49 41 47 38 36 39 35 35 41 38 48 62 75 87 83 80 76 86 95 86 84 88 103 99 93 74 90 63 42 39 39 37 44 58 66 59 55 41 88 33 34 34 35 31 35 31 32 29 33 32 35 27 33 47 46 39 46 44 45 46 48 52 20 107 232 220 104 71 87 80 79 73 67 57 76 92 44 115 61 105 111 115 108 105 95 94 92 87 84 84 77 74 76 68 66 70 62 58 60 74 80 78 86 96 99 99 93 85 90 96 93 94 96 78 100 93 92 75 57 55 30 36 44 31 53 67 55 61 47 36 101 59 53 37 30 36 29 34 30 29 33 28 37 25 33 44 44 50 48 48 40 46 45 57 26 118 226 213 207 74 76 87 79 75 66 50 75 76 50 93 66 103 109 120 120 106 108 102 97 91 92 88 95 91 100 102 110 104 110 98 109 103 103 105 99 109 111 112 103 95 97 102 98 101 97 78 91 76 85 67 46 38 38 32 35 41 65 66 54 66 25 59 103 102 122 109 75 69 65 61 54 52 62 81 100 78 50 47 41 42 51 51 57 51 55 58 38 114 211 217 214 179 57 80 84 81 71 66 71 60 51 73 52 93 102 108 120 105 108 110 110 104 104 96 104 99 108 106 118 106 116 104 107 115 106 121 105 122 116 116 111 102 96 100 99 89 101 77 75 64 74 60 37 27 45 34 32 59 66 57 53 58 17 72 111 57 68 88 92 98 98 91 92 89 96 107 115 152 136 111 130 151 159 154 143 111 119 150 83 103 155 223 210 222 123 65 84 81 77 80 69 58 48 61 56 72 89 104 110 115 107 99 101 103 99 95 97 109 107 114 104 102 113 106 103 102 112 115 113 113 110 100 100 95 95 88 96 79 86 75 60 59 48 53 43 34 32 36 27 70 58 54 59 39 38 89 153 26 65 97 103 91 86 100 119 111 112 127 126 110 183 131 142 176 169 136 110 121 132 187 182 123 84 216 217 209 214 90 62 88 83 82 70 67 44 62 61 70 83 95 89 106 98 89 92 97 72 98 84 85 108 108 115 103 111 99 94 99 100 95 96 94 103 79 95 89 87 83 81 73 75 54 42 58 42 36 39 34 28 32 53 64 52 56 48 37 66 110 177 37 92 122 142 147 142 136 130 140 134 139 122 113 139 155 155 155 141 86 75 86 75 96 133 128 84 123 226 213 215 203 72 79 84 89 69 78 57 48 51 62 58 85 66 93 73 66 68 78 50 71 58 81 95 103 95 104 92 92 70 78 79 72 75 94 80 92 87 81 78 75 68 64 56 45 37 40 33 29 32 28 36 52 58 54 49 51 39 63 75 153 175 57 98 96 79 94 98 112 104 119 133 140 154 119 87 201 206 203 210 185 135 159 129 96 103 132 102 79 157 225 211 216 174 80 71 92 79 78 80 58 46 46 43 68 49 69 55 55 48 79 45 68 49 83 76 74 57 85 63 73 48 65 55 66 65 75 67 95 79 76 53 73 54 46 35 38 35 38 31 25 32 35 37 64 55 47 54 35 69 85 83 182 162 70 76 59 72 81 86 84 91 135 150 160 149 153 128 147 150 127 141 167 158 147 168 118 124 130 113 116 79 194 219 210 224 171 78 73 90 82 79 80 56 35 43 48 45 54 46 51 45 41 56 49 48 59 73 70 44 67 47 56 45 43 55 55 46 69 61 71 54 61 50 54 49 36 26 37 37 31 29 26 40 41 57 57 54 45 47 60 74 92 112 197 148 55 35 77 103 113 85 72 77 86 135 172 180 107 176 156 120 179 168 131 82 108 114 100 132 135 118 119 110 111 203 212 210 228 139 81 69 93 85 79 79 45 40 43 43 45 47 39 39 47 43 47 39 52 57 63 38 52 38 53 49 37 52 36 39 61 47 47 42 53 44 36 40 34 28 36 33 28 28 28 38 45 57 52 40 80 62 84 88 80 164 200 122 40 44 101 98 131 142 84 69 89 81 179 200 100 150 142 83 219 208 192 145 103 77 42 124 137 128 116 112 112 128 167 199 210 222 126 75 80 84 84 84 59 53 41 37 51 40 28 31 44 38 42 39 40 49 37 46 41 46 43 43 36 35 27 37 46 34 37 39 42 33 33 29 31 29 32 33 33 33 32 56 44 52 39 106 95 62 93 76 116 187 195 80 61 86 102 101 115 135 141 128 80 85 139 211 115 130 148 76 228 215 195 197 174 66 44 114 150 98 184 136 110 96 105 115 165 198 227 107 87 78 77 84 73 55 39 38 36 51 33 45 38 32 37 38 31 37 39 41 35 35 35 38 34 29 24 40 28 37 28 31 38 26 30 30 28 28 27 29 33 35 53 47 42 57 128 123 47 85 92 79 171 189 173 52 81 82 96 98 106 129 155 189 111 86 104 212 107 116 138 99 226 214 211 208 178 64 65 124 145 68 168 214 192 144 87 95 96 115 139 185 91 100 81 71 75 79 57 52 38 39 39 43 38 34 34 31 31 44 27 40 33 29 35 33 28 25 29 25 30 26 34 31 28 30 24 24 31 28 32 39 41 39 50 39 85 148 139 54 72 88 58 143 176 193 125 53 86 18 56 89 103 138 170 187 182 67 105 204 102 98 