P2
92
112
255
54 55 60 59 52 63 53 56 60 52 61 56 57 57 64 58 56 50 40 43 27 38 33 34 35 24 39 31 34 28 29 29 35 22 39 37 36 25 30 30 32 27 25 33 29 26 24 33 29 29 30 28 31 35 26 30 34 29 29 36 27 32 31 27 34 28 36 41 50 60 55 58 54 60 53 51 57 54 52 53 56 52 55 56 48 59 55 54 53 57 50 56 54 57 59 60 55 57 54 59 55 57 57 61 55 61 57 53 46 35 37 36 33 33 33 31 37 29 32 39 32 29 34 27 34 21 37 44 36 24 38 30 33 29 29 29 33 36 28 26 36 27 35 30 29 40 31 30 27 29 30 29 36 33 33 31 40 28 27 37 39 51 50 55 54 57 56 55 58 55 60 52 56 58 51 54 56 52 54 51 57 51 52 55 58 60 57 59 55 58 57 54 59 59 60 53 62 56 59 44 35 34 37 38 28 37 32 31 28 30 37 34 30 26 33 32 37 25 32 35 43 27 35 41 37 33 42 31 38 38 24 31 28 28 41 33 42 25 38 31 34 34 33 32 24 33 39 33 36 26 31 32 31 35 35 47 56 61 58 52 57 58 54 54 60 52 53 59 54 54 52 59 53 54 55 57 63 55 53 60 53 61 53 58 56 60 62 53 62 51 44 36 38 35 35 33 35 35 25 32 30 34 38 35 38 32 31 35 36 33 34 42 40 39 47 49 41 55 49 46 39 49 37 37 43 31 44 28 37 25 34 32 37 31 28 32 29 29 40 35 33 26 36 31 30 27 35 32 49 49 60 57 54 57 52 58 53 55 59 58 53 54 55 57 58 51 55 55 59 61 52 58 58 61 59 59 58 55 58 59 60 44 40 27 40 30 36 27 31 36 25 41 23 32 41 34 52 42 38 35 47 42 50 54 49 48 50 52 55 62 56 61 58 58 54 52 48 46 38 42 34 25 37 32 36 32 24 31 35 35 32 36 30 32 31 33 30 30 37 26 42 38 45 59 55 59 57 58 51 60 56 55 58 56 56 58 56 53 55 54 60 59 61 56 62 55 63 59 60 56 60 53 49 39 36 35 34 36 34 24 36 28 35 36 32 39 49 36 51 47 54 56 54 52 56 59 59 68 62 62 74 65 73 68 70 74 66 65 62 57 58 57 46 44 42 38 33 38 32 27 32 37 29 30 29 34 28 29 32 32 33 28 38 38 33 44 59 59 57 60 50 60 57 56 58 52 59 57 58 53 54 50 57 64 58 59 62 56 58 60 58 57 55 39 38 32 32 31 35 40 31 34 35 43 34 44 51 45 67 54 59 62 71 64 60 71 67 68 68 66 71 73 78 69 76 71 78 71 77 74 74 72 73 70 64 61 54 47 47 45 48 32 32 37 32 28 29 35 30 29 39 29 33 29 33 37 29 40 42 57 64 56 56 61 51 60 56 52 58 58 53 59 55 54 56 60 59 62 64 52 63 58 54 57 42 34 37 40 28 35 31 33 33 40 42 46 47 58 66 62 77 72 72 75 80 70 78 71 77 80 73 76 81 78 83 82 86 81 88 79 81 80 78 73 80 68 76 67 67 67 67 60 62 42 47 43 32 36 34 28 33 33 35 31 34 30 32 33 36 28 40 45 59 56 57 57 57 59 54 54 54 58 59 57 59 52 61 56 61 61 56 63 59 57 55 44 40 34 46 33 31 39 34 32 48 48 54 67 66 72 79 70 81 84 83 86 82 77 79 78 85 82 88 82 81 88 89 90 91 94 88 84 85 86 88 76 87 77 83 73 74 78 72 72 65 65 56 54 44 45 41 27 36 32 34 23 37 30 27 32 33 33 33 34 43 51 52 61 55 59 56 57 58 59 55 53 57 54 53 65 57 67 53 62 62 50 41 40 35 34 42 30 31 41 39 46 61 67 74 89 81 85 90 83 88 89 83 90 85 85 87 89 81 87 96 86 85 92 89 96 100 89 91 87 88 86 92 80 88 83 88 79 83 77 78 74 76 69 68 59 62 55 47 40 35 31 30 21 34 31 28 30 29 40 27 36 31 41 48 59 57 60 53 57 55 60 52 58 53 61 55 64 60 64 56 67 56 42 36 41 37 30 40 36 40 49 51 64 78 78 81 91 89 90 92 93 92 89 91 89 90 101 91 95 91 91 101 104 97 93 93 107 102 90 97 96 94 88 89 90 90 86 85 83 82 82 81 81 80 73 76 69 67 61 58 51 47 41 28 28 32 30 28 34 30 27 35 28 32 38 37 57 59 60 55 56 59 51 53 57 57 56 59 61 60 58 61 66 47 34 34 43 41 31 42 48 54 64 69 87 84 87 87 90 95 95 93 101 91 101 93 99 95 98 104 104 94 106 106 109 111 112 101 111 93 101 100 96 92 99 99 86 100 94 90 86 90 81 84 80 84 73 78 76 69 71 67 60 52 59 33 35 32 30 31 33 30 30 33 30 35 38 36 51 64 53 58 57 58 56 55 58 60 57 63 57 63 60 65 52 43 32 39 34 41 42 59 67 69 77 86 92 87 90 92 95 93 102 93 106 92 106 102 108 107 104 111 110 103 115 114 109 115 116 110 117 107 104 105 104 97 105 105 94 102 99 93 95 89 86 88 85 81 83 77 82 73 75 64 70 64 60 54 38 38 29 31 32 31 34 33 35 28 39 31 46 49 58 60 55 57 55 59 56 59 55 60 58 61 64 56 44 42 30 35 37 42 61 74 78 77 89 91 94 91 97 96 96 104 96 105 101 102 108 108 106 112 113 118 112 116 120 122 120 123 114 120 114 116 105 107 114 111 105 97 111 104 106 103 101 88 95 94 80 88 83 82 78 79 74 73 77 66 63 59 51 49 33 33 27 33 35 35 34 31 33 32 41 39 52 61 58 56 56 57 56 56 61 61 59 60 63 51 37 33 34 35 44 60 83 78 83 88 93 93 96 97 99 103 99 108 102 104 104 111 106 113 113 117 115 125 114 129 136 127 125 129 119 121 124 121 110 112 112 118 120 103 105 111 109 109 104 95 102 94 86 88 87 91 87 78 77 78 69 78 68 64 57 54 47 35 31 31 32 35 33 24 34 33 35 37 40 58 63 59 56 60 58 57 62 63 59 65 56 42 36 38 29 47 67 63 113 84 87 91 96 98 95 105 98 109 104 99 111 107 108 108 119 115 125 120 125 123 130 131 137 133 131 134 124 125 130 124 130 125 114 123 122 124 111 120 112 106 116 101 104 100 92 90 91 96 85 88 87 76 80 75 75 67 69 61 50 41 39 34 34 34 30 28 36 30 32 30 34 47 57 59 58 63 58 62 58 58 64 57 44 33 37 34 25 68 74 75 95 92 93 94 100 95 104 101 104 108 102 103 114 107 115 113 118 122 127 127 128 129 136 130 143 132 141 132 130 131 134 129 128 133 115 123 127 122 121 126 116 104 118 105 103 101 98 94 96 95 86 91 91 79 83 84 77 76 72 65 55 45 50 34 35 32 31 36 31 34 32 30 31 41 44 64 56 56 58 56 62 63 62 48 42 32 38 30 43 77 77 84 89 93 98 101 96 106 108 105 107 105 107 104 114 115 118 116 127 129 131 130 137 141 140 136 145 141 134 135 132 132 132 136 128 133 123 125 128 129 118 115 124 108 108 111 95 101 100 100 95 96 97 94 94 88 86 86 77 81 77 74 61 51 43 41 36 33 30 28 31 35 27 33 31 36 31 58 50 59 55 60 58 65 56 40 42 35 33 36 67 81 80 88 95 98 99 98 98 107 110 112 110 108 110 110 115 120 119 121 136 132 133 143 146 146 141 141 142 147 146 137 146 130 139 124 132 130 130 126 126 130 127 113 118 120 104 109 103 105 101 100 93 99 94 99 99 90 91 85 82 82 80 78 61 57 46 44 40 25 36 32 35 31 22 37 31 33 32 41 57 60 56 57 58 67 43 38 42 41 30 50 76 82 87 84 97 97 101 99 107 111 112 117 113 111 116 117 121 124 123 130 132 135 138 147 143 149 146 144 148 150 151 143 148 143 150 124 137 134 136 128 129 127 123 120 115 115 111 106 105 110 98 105 101 98 100 96 99 100 92 89 86 85 81 86 69 68 54 51 39 29 40 36 34 35 25 32 28 39 27 38 54 55 57 56 58 58 35 34 34 35 46 70 82 86 89 93 97 99 102 107 114 108 121 112 117 113 119 120 120 129 131 122 141 136 138 141 144 140 154 141 151 141 153 146 143 148 138 124 140 127 126 133 122 128 119 118 119 112 114 109 107 110 102 104 102 99 101 95 99 105 94 97 87 89 84 83 76 69 69 52 46 26 44 33 34 31 26 32 33 33 27 37 46 56 59 56 55 42 37 36 29 38 55 84 86 86 96 94 109 106 110 112 113 118 116 117 121 115 116 120 127 126 134 126 146 137 138 140 146 140 153 149 146 147 152 150 146 136 133 135 127 133 129 130 121 130 122 128 113 118 115 111 107 109 104 105 104 95 99 95 106 101 97 96 91 92 86 85 74 70 68 59 43 51 34 34 33 29 29 36 32 33 30 32 34 55 58 57 55 36 39 30 36 44 72 88 88 89 98 95 111 112 109 114 114 113 119 115 118 117 126 117 130 125 133 136 139 139 140 145 139 149 149 150 146 141 157 143 151 141 139 131 129 136 128 134 122 131 125 124 116 118 113 114 111 109 107 106 100 103 103 98 103 102 98 100 93 92 91 84 78 75 69 52 61 45 39 34 31 33 30 34 33 33 32 31 30 52 61 57 57 37 35 46 34 57 78 85 93 90 103 105 111 111 110 112 115 115 116 117 121 123 120 124 127 129 133 137 141 138 145 147 147 145 150 142 149 149 151 145 144 143 131 139 135 138 129 135 126 123 125 116 118 114 119 113 107 108 107 102 104 99 103 100 104 103 102 100 98 97 91 88 86 79 69 60 78 42 38 38 36 37 30 32 32 29 29 27 36 45 57 60 54 31 44 41 32 64 77 88 95 96 106 109 118 103 109 116 117 122 114 119 121 121 121 120 126 133 137 138 148 143 148 144 147 144 143 142 143 145 145 146 133 142 132 133 136 127 127 127 128 125 117 116 116 115 113 114 99 105 103 105 100 96 101 99 104 103 104 99 101 103 96 94 91 88 74 65 71 58 29 38 37 36 34 29 32 33 23 38 29 43 52 58 56 46 33 42 44 62 82 94 99 103 110 115 114 110 116 116 119 121 112 119 120 119 126 125 126 128 139 134 149 148 147 143 151 143 152 138 141 145 146 137 137 135 135 131 130 131 126 127 128 128 121 122 121 120 115 118 109 103 108 105 110 101 103 95 100 99 100 107 100 104 99 94 96 95 83 79 73 68 42 35 43 37 31 31 34 31 28 37 30 38 54 59 56 35 38 39 55 67 88 99 102 108 109 115 116 111 114 117 115 116 120 120 118 120 125 119 124 128 130 130 128 135 137 143 145 138 145 137 139 143 141 140 136 136 136 137 135 137 126 133 134 129 122 129 117 123 123 121 110 110 111 103 105 101 100 103 99 94 102 103 100 101 101 101 92 91 90 86 78 72 51 39 37 31 28 36 32 28 27 30 26 36 59 51 60 36 30 45 68 81 90 106 101 112 110 120 116 115 118 115 114 118 116 117 117 115 118 119 127 127 129 130 132 137 136 139 136 137 148 141 141 143 147 141 138 137 143 140 141 140 139 131 132 126 129 133 126 126 123 121 115 119 115 112 105 102 109 99 105 101 104 100 104 101 101 98 100 96 95 89 83 70 61 44 42 36 28 38 28 31 36 30 32 32 52 53 56 37 39 44 72 86 103 100 113 115 119 119 118 120 123 119 115 116 116 122 118 118 126 122 129 129 131 128 134 142 133 140 133 141 140 142 142 140 143 141 141 140 144 143 149 141 148 137 136 136 134 146 135 137 127 131 125 125 117 115 107 110 105 103 97 105 101 101 99 99 101 102 97 102 97 97 85 79 68 61 53 40 25 35 27 35 31 33 31 29 42 57 56 37 35 47 75 90 101 108 115 115 119 119 123 119 119 122 116 116 120 123 122 127 127 132 127 138 135 139 132 141 144 148 140 142 141 143 147 146 147 141 144 145 149 147 150 153 153 153 147 148 146 159 145 148 141 131 134 130 123 111 117 102 105 97 103 103 101 102 98 99 95 100 102 96 94 97 86 83 69 70 59 49 34 24 39 26 33 25 34 29 36 55 58 35 37 60 78 91 99 109 119 116 118 122 117 118 120 121 121 123 120 123 128 136 128 141 134 140 135 152 145 149 150 148 141 150 138 159 159 149 150 150 155 156 144 160 159 165 165 160 165 173 158 166 156 166 141 127 128 124 118 115 116 104 99 90 92 80 84 99 101 99 94 99 98 89 94 93 87 86 86 71 65 56 24 40 33 29 29 30 33 26 38 51 58 34 32 63 90 93 112 116 115 116 114 125 123 126 128 123 133 124 129 123 136 135 135 148 140 145 154 162 171 163 152 155 148 147 152 162 163 154 159 168 169 164 173 169 170 170 170 167 173 183 157 165 147 147 138 124 116 115 106 105 100 99 92 87 88 89 72 76 77 97 96 93 96 88 92 91 94 88 90 77 72 63 34 33 31 28 34 35 21 27 31 45 58 28 31 65 87 96 111 115 111 119 116 120 128 125 133 123 134 133 138 133 134 139 144 150 148 159 164 163 179 165 162 149 156 161 163 168 166 165 168 177 180 180 188 184 167 167 160 160 162 146 129 139 128 121 103 108 99 100 89 76 99 85 84 91 90 80 82 72 66 79 85 95 92 85 92 89 93 91 89 84 80 58 42 37 31 30 24 32 29 22 31 40 48 35 35 65 83 99 112 112 114 116 116 123 124 125 127 126 133 133 144 133 135 144 154 153 153 166 163 166 165 163 164 157 152 165 161 165 160 173 180 183 188 183 182 171 152 145 142 142 153 122 124 115 100 90 92 59 85 72 73 74 78 69 78 79 94 94 78 72 66 64 68 84 89 86 85 85 90 90 85 81 83 65 51 43 28 29 30 28 26 27 27 42 40 33 39 59 95 103 105 107 117 117 120 120 121 119 121 118 126 129 131 129 135 131 140 148 141 149 149 152 156 152 160 152 152 159 161 153 153 159 170 164 180 172 173 149 134 124 129 133 122 113 99 87 67 65 62 57 69 60 72 61 74 71 76 62 77 73 69 79 71 77 69 76 74 85 84 88 87 89 87 78 83 66 59 44 29 34 34 29 22 27 29 37 39 28 41 68 101 100 106 112 116 119 103 110 115 107 112 115 119 120 131 129 129 120 128 123 123 123 125 128 128 136 140 146 147 146 147 141 148 153 156 152 160 142 148 131 111 109 115 113 96 100 74 74 61 65 63 65 60 65 64 68 69 80 84 87 75 72 76 90 83 81 85 80 68 73 82 88 85 88 84 80 82 69 59 42 36 31 34 31 22 28 30 28 40 29 37 77 94 98 104 114 117 108 92 100 106 99 100 107 108 108 111 103 97 95 95 101 100 100 104 96 106 116 123 134 135 141 134 137 138 135 151 142 138 131 130 119 101 91 102 88 89 83 72 72 74 68 64 57 59 75 77 79 85 99 104 102 99 100 97 92 88 79 97 88 79 74 73 82 91 82 87 82 82 69 69 43 35 35 31 27 29 31 26 27 35 27 31 84 94 97 104 115 108 89 87 90 106 99 97 91 102 86 81 73 65 79 70 80 80 83 80 77 83 87 105 112 124 128 118 128 128 130 131 135 125 122 123 97 107 77 91 79 81 77 66 68 66 64 61 66 75 91 95 95 104 109 108 107 106 101 102 96 90 100 102 98 95 88 68 73 88 88 83 87 79 78 64 44 39 32 29 25 30 30 24 30 38 21 33 82 97 92 105 104 91 75 87 96 90 92 92 90 87 83 85 65 68 70 71 71 66 77 67 73 68 79 89 98 104 123 116 122 122 121 118 124 121 118 107 100 91 80 76 76 70 72 57 63 58 69 76 90 102 112 112 115 115 117 111 113 106 111 106 105 104 105 105 102 102 99 83 72 86 88 87 85 80 82 64 52 34 34 28 29 26 28 28 28 36 30 26 87 97 90 111 81 81 90 89 104 96 98 95 95 82 89 86 77 67 68 69 72 71 72 65 74 65 77 74 95 94 107 113 116 115 119 114 120 107 115 101 90 80 78 75 60 69 62 60 74 74 83 100 109 121 119 123 119 115 115 114 105 108 105 115 115 108 112 111 101 103 101 92 82 82 85 88 83 84 82 69 49 37 32 31 24 26 28 25 29 39 29 24 85 89 105 84 86 97 107 116 114 104 108 114 109 110 102 90 86 77 74 70 68 71 72 68 74 79 80 85 83 97 95 112 110 114 113 108 110 102 99 102 92 84 77 71 68 66 63 63 77 80 89 101 114 120 121 111 108 101 97 98 93 97 101 111 109 115 112 112 107 109 100 100 85 85 85 87 82 90 80 69 50 34 36 28 22 28 28 24 32 63 38 20 79 93 101 71 73 103 111 123 125 116 116 114 115 121 119 110 110 103 100 96 89 81 77 76 77 74 80 81 93 94 102 110 111 115 112 110 113 108 98 104 91 88 85 79 60 63 67 74 79 71 89 99 97 97 107 110 112 106 94 89 77 74 72 78 91 107 107 111 112 107 104 97 92 89 89 84 87 91 75 75 46 37 31 30 21 30 27 41 70 69 36 26 74 99 87 71 96 105 118 126 127 128 128 126 121 129 120 124 120 117 116 113 108 100 90 89 81 76 73 81 88 107 109 116 125 117 115 119 132 114 117 105 100 93 87 72 56 62 72 72 64 78 80 79 92 108 122 127 122 125 120 107 100 98 89 86 79 69 88 96 101 105 96 86 89 99 91 85 85 90 78 73 49 36 27 29 23 31 34 59 53 36 32 23 71 105 79 77 107 107 117 130 133 135 139 135 133 128 115 122 115 116 111 103 100 98 88 95 87 82 85 77 88 109 117 127 132 126 125 133 143 131 123 106 110 98 90 60 62 58 76 74 75 66 84 87 102 109 111 104 87 101 93 86 88 102 94 102 105 90 69 67 90 89 89 81 92 98 91 89 84 86 80 74 54 26 36 29 23 35 48 68 18 22 33 19 68 102 76 85 109 114 116 133 129 137 143 140 129 110 93 94 89 89 84 87 73 60 58 67 79 93 94 82 84 115 125 131 141 140 127 143 147 145 123 108 110 103 83 55 56 85 103 93 77 74 84 88 85 76 55 40 60 39 35 33 46 57 57 81 93 107 97 75 69 83 93 95 88 98 94 88 88 85 77 78 56 34 28 36 28 29 81 98 22 16 46 16 72 105 88 92 106 115 118 132 133 137 138 114 98 90 93 107 103 122 117 106 109 85 71 64 57 69 87 86 81 105 121 134 139 141 135 144 150 146 121 116 111 101 79 48 81 124 111 90 83 78 72 55 45 59 25 23 82 17 26 23 21 38 28 35 52 65 81 84 82 87 94 83 81 95 98 94 89 82 80 73 63 40 25 40 47 34 93 120 41 10 42 23 76 103 94 103 102 108 119 129 126 106 98 99 110 118 116 113 86 101 80 86 81 72 79 80 67 71 67 72 79 97 114 130 137 142 134 141 145 144 118 116 109 98 77 53 101 131 108 93 65 58 37 37 92 139 46 25 39 19 30 29 24 98 62 16 29 31 45 42 60 61 80 82 99 101 101 97 94 80 81 72 66 39 35 56 60 46 88 117 78 6 41 20 70 105 98 102 97 108 115 125 88 67 107 125 125 105 80 57 38 39 131 18 27 41 49 48 61 72 99 67 78 93 116 124 133 140 128 136 138 132 121 115 110 95 84 68 95 126 116 45 46 67 91 86 128 151 100 34 47 45 36 32 57 112 80 33 49 56 45 65 76 89 98 94 100 100 99 104 95 83 79 77 69 41 44 68 60 61 77 105 102 26 44 18 72 100 104 108 103 105 114 94 56 113 127 123 93 45 42 85 14 35 87 19 23 42 90 41 47 28 60 108 105 112 109 123 130 130 129 130 136 123 124 116 117 100 95 89 82 108 113 93 102 102 92 99 95 111 108 96 120 114 76 84 79 77 83 91 94 86 82 92 91 94 100 102 100 101 104 101 98 87 77 83 71 36 52 75 88 79 78 102 110 61 44 27 72 97 111 110 105 105 107 79 96 116 98 65 22 42 123 103 20 36 21 37 29 62 128 94 134 70 31 97 119 107 114 122 120 132 129 127 134 121 123 117 115 105 103 97 82 85 108 110 116 113 92 115 103 121 99 112 119 118 95 89 86 93 103 105 105 107 97 82 69 90 97 102 103 101 101 105 101 89 84 82 71 47 56 81 105 102 86 94 108 96 54 32 72 99 108 116 106 97 102 97 94 78 44 19 33 127 164 68 25 33 37 49 37 81 98 100 108 99 96 102 110 109 116 120 121 134 126 133 134 122 126 114 121 113 105 102 94 86 89 102 95 97 97 103 101 104 108 101 104 97 102 98 97 105 99 95 91 80 61 75 102 111 105 107 108 102 100 110 102 94 89 85 72 44 72 58 49 70 71 77 95 111 54 41 73 99 112 117 111 88 91 84 59 33 35 34 39 112 140 136 58 47 76 108 116 125 116 103 98 91 104 107 109 109 119 117 124 136 131 131 134 125 125 118 119 114 110 111 105 99 92 99 105 104 95 91 84 82 81 84 80 80 83 77 81 75 69 65 62 64 88 114 125 116 115 112 110 106 105 108 104 102 91 83 77 55 75 28 23 44 51 61 70 106 49 51 72 98 109 116 120 96 91 101 74 71 81 112 107 91 90 96 81 87 114 99 109 88 90 88 89 97 105 107 116 118 119 116 127 126 132 130 129 127 124 123 123 115 114 112 105 109 99 107 108 109 118 103 97 86 76 61 44 46 41 42 41 45 44 62 98 106 119 115 125 119 116 118 111 105 112 106 108 100 97 86 83 66 60 17 21 32 46 51 62 92 45 83 73 91 116 111 122 103 108 113 101 110 113 133 137 123 111 97 94 86 89 80 76 84 74 84 106 110 111 120 122 120 117 119 129 125 135 131 131 137 126 124 124 120 113 113 114 109 104 113 107 115 121 113 117 110 113 102 90 93 84 82 82 87 98 108 112 119 120 120 125 122 122 117 114 111 112 112 104 102 100 88 84 74 51 15 19 33 31 41 62 93 35 97 71 95 114 117 113 113 116 107 89 100 113 122 133 122 112 102 100 97 66 71 58 76 88 112 122 121 119 126 124 118 115 127 131 129 137 138 138 139 136 124 118 128 111 117 123 112 117 111 111 116 116 113 117 122 109 117 110 116 114 111 111 108 109 114 121 125 124 123 130 123 111 120 117 112 114 111 109 101 100 92 81 81 61 18 24 22 25 40 60 101 34 96 72 97 109 118 114 121 124 112 108 101 95 88 97 96 86 78 67 64 50 74 94 110 122 124 129 128 126 126 120 123 116 127 135 131 136 142 137 129 132 125 119 121 116 115 120 128 112 120 117 119 116 117 113 118 113 117 112 112 111 115 112 108 113 126 119 126 125 129 132 126 118 120 118 121 113 110 109 106 101 93 88 78 71 47 31 22 25 38 62 91 27 106 74 99 110 120 112 127 126 126 118 124 116 111 101 91 86 79 87 93 97 113 116 123 127 125 132 132 125 121 118 128 115 130 131 137 131 142 135 132 129 125 121 121 119 110 113 112 120 126 125 120 120 116 120 122 112 120 117 117 111 114 106 110 112 117 116 122 122 131 126 126 124 124 119 116 120 107 104 104 103 95 92 80 70 59 46 27 25 38 58 88 36 91 81 101 111 113 120 126 131 127 129 130 130 127 123 119 116 116 116 119 112 126 123 128 126 129 129 125 129 120 123 131 119 131 132 136 133 142 134 131 130 130 123 116 120 109 108 110 109 122 121 108 95 104 129 122 124 126 123 117 123 117 117 115 110 122 127 125 127 129 130 125 119 121 120 118 116 108 104 102 97 98 94 82 75 57 71 24 33 37 62 94 26 91 88 99 105 117 117 130 131 131 135 126 127 127 124 120 128 117 123 117 119 125 124 126 124 123 131 130 126 128 128 123 126 122 132 138 134 146 139 148 129 133 128 120 124 107 109 106 113 108 112 111 100 82 103 127 126 132 131 125 131 128 128 124 126 130 127 126 131 130 131 122 123 120 123 115 120 109 106 102 96 94 89 85 74 61 81 28 38 44 62 104 28 82 89 104 108 114 124 128 133 134 132 136 126 127 119 120 121 111 125 118 117 123 125 126 121 134 131 138 130 124 125 118 127 128 130 139 138 152 147 156 147 142 131 122 121 115 109 107 106 105 113 112 118 82 69 97 111 121 125 124 144 133 136 141 139 143 124 138 130 133 131 126 124 120 128 117 116 108 105 96 92 95 93 82 70 68 48 34 36 42 86 119 37 59 95 102 110 120 122 130 133 137 134 130 128 122 123 116 110 119 115 116 126 124 124 127 132 134 138 135 131 126 120 121 125 139 132 137 151 159 178 187 164 150 137 130 122 123 113 104 111 112 116 123 122 117 82 86 94 98 116 117 130 139 142 146 139 145 131 141 128 131 130 132 128 130 122 118 120 106 99 96 93 101 86 82 72 68 52 25 66 68 101 94 51 46 97 104 116 123 123 132 135 136 132 129 123 121 123 118 117 119 124 124 127 130 131 131 137 138 128 119 122 121 119 119 126 139 147 145 155 179 202 214 195 177 132 144 123 131 121 106 118 121 130 124 127 125 100 101 92 98 107 106 118 128 141 145 140 147 137 131 132 129 132 125 130 135 127 124 112 107 95 89 92 97 91 74 72 60 57 40 68 89 88 58 46 45 95 103 115 127 132 130 136 133 132 128 125 129 126 129 124 127 133 130 134 132 136 133 133 132 109 122 118 118 120 128 134 160 153 141 163 159 192 190 189 160 133 136 129 134 134 126 128 139 138 131 141 139 103 116 106 105 109 102 124 118 138 139 146 139 136 124 128 126 124 124 128 132 122 124 106 104 92 91 94 96 86 78 72 64 57 48 72 91 86 70 41 58 89 104 119 129 132 132 132 129 130 125 129 133 129 133 139 127 135 137 136 140 134 140 124 119 123 129 126 127 116 140 153 185 164 148 154 148 156 145 149 138 135 124 127 124 130 130 135 139 135 135 149 139 99 111 123 112 111 106 128 114 137 142 145 133 130 119 118 116 119 121 124 125 121 116 106 97 89 88 85 97 82 79 72 65 64 51 63 81 99 89 38 69 88 103 121 127 131 128 131 130 134 131 131 132 135 123 138 132 140 139 135 143 129 128 116 117 132 137 139 136 139 154 171 205 155 132 139 137 143 126 126 126 121 125 113 109 113 117 117 125 116 111 115 105 89 85 142 124 112 117 113 122 129 131 130 131 125 111 112 114 121 114 124 119 106 103 93 86 81 78 89 87 86 76 68 63 65 51 55 74 94 98 37 77 86 106 120 124 128 126 130 136 137 143 131 142 141 130 137 134 126 138 133 136 129 119 108 127 163 162 157 149 148 148 151 183 139 123 127 127 124 114 110 116 110 111 99 94 99 93 91 90 83 80 73 73 78 44 138 139 119 114 116 116 123 115 116 116 106 108 104 106 111 113 115 101 98 90 81 75 79 75 83 76 88 75 71 64 69 56 53 71 83 92 42 84 80 105 120 129 126 125 133 142 143 148 141 146 139 138 132 135 134 140 133 136 138 114 109 125 166 165 155 143 145 121 117 135 129 119 118 117 109 103 103 109 95 86 87 76 60 57 43 39 34 35 44 60 49 25 136 139 134 118 119 106 115 106 112 105 106 98 97 100 100 109 97 94 90 79 77 63 76 70 83 74 88 72 69 68 69 62 57 83 94 92 56 86 80 104 117 124 127 127 139 145 153 153 147 150 139 142 133 130 138 137 133 139 128 118 121 112 130 119 114 113 114 108 103 115 118 117 108 100 97 87 92 92 84 84 59 29 29 22 22 23 31 32 32 38 38 33 124 140 137 124 116 108 99 103 104 99 91 93 89 91 92 95 90 86 82 75 67 59 65 73 76 81 86 67 73 66 69 69 52 91 107 99 65 86 81 100 116 120 126 127 139 148 148 154 149 146 140 134 133 130 136 134 137 139 130 117 141 94 110 93 73 54 59 64 66 94 104 108 98 87 84 74 77 76 79 60 36 17 28 39 39 52 51 47 42 49 51 71 128 130 132 126 112 105 86 90 87 89 79 84 89 82 96 89 81 79 73 68 58 55 61 71 80 86 79 72 73 75 63 70 43 61 83 90 95 91 84 96 110 122 120 136 137 142 150 147 146 151 134 132 126 129 131 133 139 129 132 138 144 85 74 88 55 35 28 26 23 35 46 87 96 72 71 56 61 55 81 44 18 19 37 44 59 60 53 55 63 69 76 108 130 125 137 115 117 105 102 86 73 74 75 69 83 80 84 79 83 74 68 61 54 50 65 75 82 85 75 77 72 76 68 66 45 37 55 63 99 92 80 93 106 117 113 131 136 130 153 144 142 149 136 131 129 126 129 129 135 129 135 144 136 97 86 83 62 66 52 51 67 60 48 63 64 74 59 46 43 57 66 15 18 40 64 72 89 81 78 83 85 96 103 122 122 124 127 119 121 118 94 88 76 70 70 67 71 78 80 71 83 72 63 55 47 57 73 78 80 82 85 74 78 74 64 65 52 34 38 37 105 90 81 93 103 106 115 119 126 129 135 141 147 145 141 121 125 124 120 125 131 132 132 144 143 114 91 91 85 83 83 80 80 82 65 76 70 53 57 45 30 35 31 33 75 99 109 110 107 107 102 107 103 109 122 117 119 119 113 118 117 117 104 96 95 80 68 67 70 76 74 74 74 73 59 58 48 65 82 78 81 70 87 76 76 65 71 68 51 37 33 36 108 104 86 91 100 104 104 104 114 119 125 130 137 140 137 125 119 124 117 124 127 133 130 145 142 142 115 102 101 97 89 100 92 94 72 82 75 67 69 51 30 22 74 121 132 118 117 118 114 107 106 99 97 100 112 113 111 107 103 116 107 108 109 112 108 94 84 75 69 79 75 75 72 69 65 64 55 71 85 79 83 74 73 74 74 63 95 65 52 30 34 42 119 109 83 88 103 97 101 92 102 111 114 121 126 131 124 124 122 122 110 121 118 127 128 133 145 150 141 126 122 120 110 107 120 112 106 114 118 109 117 94 77 69 97 129 130 122 113 121 113 111 105 98 103 87 106 109 106 104 106 107 113 109 104 121 115 107 91 76 70 82 83 75 79 74 65 58 70 78 76 85 80 79 75 72 70 70 71 65 57 26 36 36 74 91 89 88 101 101 94 90 93 100 105 104 115 116 122 121 122 121 109 113 113 123 130 132 141 155 139 154 140 135 121 113 123 122 125 133 130 124 125 123 104 104 105 118 129 117 118 118 113 104 102 105 101 105 102 109 114 114 111 115 112 103 103 110 110 110 92 78 74 79 94 77 81 72 66 72 76 84 85 82 81 82 72 74 66 74 64 62 59 27 36 39 46 52 92 90 102 99 95 89 92 91 96 100 103 106 114 118 114 113 107 111 114 122 131 130 139 145 143 143 128 121 119 119 125 128 131 134 133 125 132 129 121 113 122 130 129 115 118 124 109 117 110 113 105 107 117 110 112 112 118 117 114 105 110 107 104 113 88 77 80 76 76 82 82 75 66 81 84 88 88 85 85 84 78 68 70 68 60 66 55 33 34 32 47 38 93 94 102 102 100 94 89 91 88 95 97 104 103 105 116 109 108 114 111 116 121 127 127 129 132 117 122 117 135 125 124 130 131 127 134 132 130 142 138 154 137 112 119 113 107 113 99 102 107 106 106 106 116 119 114 115 114 117 115 108 108 106 97 109 95 84 80 80 75 89 85 81 69 76 89 85 86 87 81 77 76 69 69 64 60 66 51 32 34 30 52 32 90 99 92 109 100 95 94 95 88 90 97 87 99 92 105 110 122 122 103 98 107 125 113 123 123 111 126 121 128 130 130 134 134 119 129 121 99 107 111 120 116 98 86 87 84 87 82 84 80 79 77 82 85 101 107 111 116 115 112 114 117 101 93 95 95 83 82 85 89 84 84 81 73 83 92 92 83 86 85 78 75 70 61 67 65 58 55 26 38 34 49 34 92 101 94 113 99 98 95 95 92 88 90 93 84 91 104 110 131 113 83 97 108 119 123 127 132 115 124 115 137 146 125 128 114 103 112 96 92 115 108 121 107 95 86 76 82 88 79 79 89 85 79 65 80 68 76 71 75 85 74 85 117 111 93 94 95 87 86 90 86 86 90 81 77 90 87 87 85 86 86 80 72 66 59 62 65 60 48 30 38 32 55 29 82 103 105 102 103 103 99 101 94 93 91 88 89 100 105 117 130 106 98 105 131 119 138 138 126 124 131 138 137 126 106 104 95 99 105 96 104 107 91 112 95 87 78 92 92 78 104 86 87 85 94 78 72 80 67 62 43 47 48 50 104 98 85 80 87 93 91 92 91 93 79 81 80 90 83 87 83 79 75 78 67 58 61 59 61 63 43 26 37 35 56 35 69 102 107 95 97 106 98 98 102 94 99 93 86 104 110 119 124 115 121 123 118 122 139 126 125 127 134 118 108 94 108 102 102 115 108 105 85 96 102 108 70 72 90 79 61 52 74 85 64 76 78 80 63 86 50 52 41 39 15 52 87 80 66 74 74 94 87 76 98 87 84 76 82 84 78 85 82 72 75 77 56 59 56 62 58 65 36 28 36 29 58 40 55 102 104 106 96 105 97 98 103 92 102 95 102 101 111 111 111 118 124 106 106 134 121 110 125 109 103 92 89 97 115 97 113 102 81 83 95 110 96 116 80 85 69 71 71 50 40 64 38 41 45 35 53 73 67 89 112 113 32 106 73 71 82 65 82 73 85 77 89 80 87 71 84 74 77 78 69 74 68 62 62 54 61 57 57 59 32 34 35 30 52 43 50 102 109 108 106 101 102 98 100 90 101 106 112 109 114 108 104 105 106 79 125 110 104 110 95 78 80 96 103 96 90 86 82 84 50 53 72 83 100 84 73 67 64 38 38 42 29 49 42 48 46 79 86 117 115 159 152 83 94 112 88 80 84 89 68 67 75 86 83 81 81 69 80 75 70 82 66 69 64 68 57 58 60 61 58 53 32 34 34 31 49 56 38 91 106 108 111 97 101 104 98 105 98 112 116 110 115 105 102 81 81 78 117 83 81 71 55 61 89 112 102 82 53 89 59 61 46 50 37 65 73 58 56 46 45 40 43 41 39 39 74 97 97 137 129 119 114 115 89 52 121 111 85 94 82 83 72 71 73 68 96 69 77 74 72 86 74 75 71 68 68 60 57 57 57 59 60 54 30 34 37 33 49 52 35 79 102 108 112 100 99 109 99 108 105 113 115 118 120 100 101 69 63 90 117 57 28 120 95 98 129 100 60 51 73 47 50 61 65 63 58 81 87 65 55 57 64 64 76 73 67 125 103 144 148 116 98 83 77 60 53 97 110 101 89 101 96 99 76 79 74 57 77 72 67 75 76 68 75 72 72 62 59 52 56 54 57 55 63 42 27 35 34 30 57 47 45 53 98 108 109 103 114 100 102 94 100 106 120 117 117 108 92 64 56 90 105 80 75 153 166 148 130 131 92 88 85 81 47 44 46 62 81 106 95 73 38 65 69 78 106 119 118 131 119 96 117 98 82 84 66 62 107 106 102 89 98 100 103 98 89 75 63 70 78 79 64 60 71 67 59 68 68 60 61 55 52 51 60 57 56 35 33 37 37 35 48 54 45 40 94 103 106 105 108 97 100 104 95 114 112 119 116 104 99 69 63 103 89 124 102 100 125 133 156 119 107 139 139 111 110 99 72 87 89 102 97 84 22 121 117 121 129 147 127 118 86 106 99 81 77 70 77 92 107 108 88 84 95 96 96 99 83 74 60 59 71 76 69 56 64 68 69 75 59 54 60 50 53 55 59 61 51 29 33 34 34 29 50 51 51 30 82 102 104 103 107 105 100 104 104 101 104 121 108 102 89 75 70 104 96 103 142 77 82 80 135 119 98 116 112 124 131 131 120 117 110 112 104 106 105 134 141 168 207 224 119 91 97 80 115 81 74 88 82 95 102 81 89 92 92 100 100 95 79 71 61 61 67 68 66 56 66 69 62 68 58 62 57 48 53 63 54 68 40 30 38 31 33 35 49 53 45 37 56 96 103 103 105 100 102 101 104 103 100 102 106 104 88 72 82 108 114 89 136 126 120 98 92 123 126 110 133 125 126 134 144 138 147 147 132 149 149 159 197 187 208 127 89 76 89 96 83 79 70 93 91 98 86 78 90 92 91 104 93 95 78 64 55 65 71 60 65 54 64 68 65 61 63 59 54 57 54 65 58 59 30 34 36 37 32 37 51 49 48 44 41 93 97 105 104 99 106 100 100 100 104 99 103 101 75 83 80 112 122 104 102 115 136 118 90 117 107 155 168 125 113 119 130 139 142 168 166 150 141 133 135 118 104 65 70 65 67 87 82 74 81 85 86 86 79 90 85 95 93 97 95 95 72 64 58 69 63 63 56 56 63 62 61 51 57 59 55 51 64 55 65 44 33 36 33 43 29 35 45 54 48 48 33 80 94 99 100 100 99 101 91 100 95 94 104 96 69 72 72 115 118 111 99 98 117 115 110 101 98 125 106 119 96 101 107 106 114 116 113 115 109 98 93 80 75 65 70 70 74 78 73 78 81 85 77 81 85 89 77 92 83 95 89 82 70 71 67 66 62 60 57 56 58 58 51 60 58 51 55 55 58 61 63 34 34 42 33 36 34 39 45 51 48 45 43 50 91 99 99 100 98 98 93 96 92 88 94 96 79 70 75 107 112 118 102 101 105 99 110 105 95 96 105 100 81 88 88 86 83 84 84 85 80 81 74 77 68 67 86 81 63 75 70 77 76 76 76 89 84 76 74 86 81 86 77 77 72 81 74 59 59 56 53 54 53 60 57 57 54 58 53 61 59 63 49 34 36 38 40 33 38 34 51 46 46 46 51 36 81 98 100 95 97 95 99 95 86 89 92 86 82 80 73 99 115 113 119 102 106 100 98 98 101 89 97 106 81 89 82 83 65 71 64 63 61 57 62 58 57 54 56 62 58 66 68 68 63 76 87 85 73 82 76 76 80 75 68 76 82 79 66 61 60 52 47 50 54 65 58 47 51 51 58 64 63 63 38 34 39 32 41 31 40 30 45 45 48 44 51 41 58 92 96 96 97 96 95 86 89 88 89 83 89 78 82 91 106 118 116 105 93 107 99 91 91 98 90 94 89 82 89 84 71 69 64 67 69 57 65 55 57 53 57 59 61 60 62 67 67 83 79 79 72 83 76 72 69 71 64 81 84 81 67 55 59 51 51 53 51 57 56 42 56 56 61 61 70 44 34 38 39 36 40 34 37 34 46 49 46 48 48 50 42 84 94 96 95 96 95 84 86 86 79 82 87 83 80 78 100 109 111 103 95 91 101 99 92 91 87 85 86 85 80 83 72 78 70 80 79 73 66 66 61 60 62 57 57 57 63 59 69 74 62 69 67 70 72 61 68 66 70 83 79 81 63 53 61 47 50 49 54 42 57 53 55 61 60 66 64 36 34 38 34 41 34 39 34 33 46 43 50 49 47 50 41 58 95 95 93 93 91 88 85 83 83 79 90 83 78 80 91 102 99 104 101 97 90 98 97 94 90 88 83 81 76 77 72 72 69 74 68 69 61 62 57 52 56 56 51 54 53 60 59 57 61 62 61 69 68 66 64 62 81 83 84 83 66 67 58 46 44 52 46 41 55 55 55 64 65 66 51 33 38 35 38 36 39 37 35 35 49 44 42 51 47 48 47 39 84 96 99 90 88 87 83 83 75 82 83 82 81 70 92 97 97 99 94 100 87 93 90 97 91 86 83 77 78 63 64 60 63 62 60 62 51 56 48 48 41 46 40 45 42 50 47 49 56 61 66 67 67 69 69 62 93 86 84 86 64 67 57 43 45 51 50 47 50 58 59 68 64 65 37 37 34 40 40 29 38 34 38 32 50 40 44 48 47 52 44 45 50 98 97 92 88 83 83 83 74 81 84 80 82 77 95 83 98 97 89 97 95 92 92 87 85 76 74 65 63 51 57 49 47 50 50 44 40 43 38 39 35 35 39 38 41 47 39 55 55 61 68 61 76 73 61 83 93 97 90 78 76 65 44 43 44 49 51 47 54 59 61 67 60 59 35 34 31 41 33 33 38 34 35 34 47 48 45 46 46 52 47 52 36 72 96 94 90 86 83 80 77 77 87 82 81 88 79 86 92 91 96 94 92 92 92 84 79 67 69 62 53 47 45 45 42 41 42 33 39 29 39 39 32 36 36 40 40 44 54 58 62 61 67 69 76 68 75 92 91 100 95 83 71 63 48 31 46 54 44 51 51 63 66 65 54 66 35 33 35 40 35 33 36 36 36 36 48 41 48 48 41 52 50 49 42 35 101 95 93 84 87 83 78 76 82 81 81 91 54 88 90 98 101 86 101 86 89 88 78 68 67 54 52 48 45 49 49 36 44 32 37 31 39 39 34 34 45 47 65 65 68 69 66 70 80 82 74 78 91 93 93 98 96 80 70 51 40 32 50 46 48 53 61 67 62 60 56 71 53 28 42 32 39 35 38 29 37 31 47 45 45 48 43 55 46 48 49 18 188 81 87 88 88 84 79 74 75 75 84 79 68 98 92 108 106 88 96 86 87 99 82 84 66 57 58 47 52 50 46 41 41 38 38 34 39 37 42 45 65 69 87 78 79 76 83 88 92 87 72 96 106 105 81 102 93 66 52 47 33 39 45 45 50 55 69 65 63 59 51 72 75 29 36 38 34 35 39 32 34 35 45 41 46 46 47 50 45 50 43 31 227 170 66 85 87 90 75 71 60 69 91 62 83 82 85 109 114 105 94 84 90 104 95 93 82 71 70 59 64 59 57 53 49 38 51 40 57 58 60 76 84 87 99 87 88 91 97 101 94 86 85 101 107 96 84 90 81 59 35 39 35 41 30 51 53 62 67 58 61 60 45 67 89 35 38 33 34 33 34 38 32 35 50 42 50 46 50 35 51 53 25 67 231 226 129 66 84 91 79 71 57 70 79 55 84 65 84 113 111 117 108 101 94 97 94 96 86 88 83 81 86 76 82 80 82 74 82 83 94 93 93 103 101 106 105 104 97 102 102 100 97 103 75 98 99 93 99 68 57 53 32 36 34 44 33 50 58 64 69 59 58 55 39 89 91 78 89 66 43 33 36 35 33 33 46 46 48 47 49 49 46 58 24 91 218 215 220 105 71 86 91 72 75 70 64 57 73 65 78 108 113 127 111 103 110 103 101 104 93 98 95 100 97 103 107 105 113 104 111 113 108 109 104 117 111 120 124 112 107 104 106 102 102 107 74 88 89 75 91 43 45 38 37 37 33 38 41 57 62 64 62 60 60 47 39 108 100 85 106 116 108 86 89 77 73 63 95 102 112 118 124 96 88 113 66 95 172 227 212 219 94 79 88 80 80 75 61 54 58 56 65 100 100 114 115 106 109 116 109 106 110 99 108 106 110 108 113 108 116 110 110 120 116 125 112 123 131 120 124 124 104 102 97 106 85 107 88 70 85 63 68 58 35 32 42 39 31 38 50 61 63 65 57 57 55 39 62 126 153 28 46 72 83 84 83 88 98 104 194 211 199 164 138 135 127 176 195 125 85 230 216 212 206 65 84 88 87 72 69 57 59 65 76 83 105 102 119 112 97 102 98 99 105 94 103 106 115 109 104 100 116 103 111 106 119 120 118 119 121 106 108 106 106 92 87 98 72 92 81 64 67 52 49 56 32 32 36 35 41 37 58 65 61 59 62 52 45 60 78 163 170 22 73 118 136 152 124 132 126 136 128 135 119 80 69 82 79 105 148 142 70 154 228 213 221 192 56 87 91 75 79 62 46 56 72 73 88 85 109 101 80 90 94 68 85 90 74 89 113 109 111 101 108 105 95 95 109 90 100 99 103 95 90 99 93 87 84 79 77 77 60 44 56 47 37 34 41 28 32 29 41 51 61 67 53 57 57 40 61 77 98 198 157 34 100 108 109 114 122 134 134 112 209 206 210 173 117 154 119 90 87 138 109 78 171 224 213 219 169 60 94 81 79 89 49 52 57 51 79 60 85 78 59 60 90 55 63 65 73 81 93 97 86 111 91 99 74 75 87 69 79 93 94 84 99 88 80 83 72 64 67 59 52 49 34 36 27 37 29 29 33 39 50 58 64 58 54 60 34 67 83 85 130 210 136 52 101 77 67 72 89 89 91 101 151 137 155 180 169 135 163 125 106 134 108 108 76 187 222 211 225 139 70 82 84 86 76 51 41 46 58 44 69 58 55 44 67 50 63 58 70 80 71 69 57 89 69 63 60 57 70 64 58 85 71 82 93 88 56 67 69 55 49 36 46 46 30 38 33 27 34 38 34 48 53 61 63 52 54 52 65 74 100 89 180 205 114 64 51 65 88 108 96 75 86 83 128 169 153 125 99 116 134 114 116 145 115 125 116 104 208 216 209 230 145 67 85 87 83 67 45 41 48 49 50 53 46 52 40 54 46 56 46 73 78 57 51 70 53 57 48 35 62 56 43 79 59 67 65 57 59 54 53 47 34 22 57 37 31 31 32 34 30 39 36 57 58 57 54 53 82 68 88 84 84 134 196 194 91 55 22 89 110 106 154 113 71 78 99 223 209 189 139 86 85 54 89 153 124 117 116 111 132 178 208 209 221 140 74 90 86 77 54 50 45 41 49 43 38 37 58 42 43 53 46 69 55 48 54 49 53 45 55 39 52 40 40 54 57 45 52 37 57 36 44 40 38 28 38 29 36 27 24 31 35 39 51 53 60 45 69 116 88 63 104 77 96 188 194 172 66 60 62 108 106 110 137 143 154 124 106 227 217 198 194 186 80 35 76 164 98 165 124 112 104 104 122 157 199 220 156 72 90 82 67 55 40 37 47 47 29 39 40 33 44 38 38 49 41 44 56 42 41 47 47 35 36 33 34 51 49 29 48 35 50 35 31 30 32 31 34 36 31 41 24 43 36 46 46 51 41 94 149 87 62 88 94 76 162 184 201 122 54 86 76 106 103 106 121 156 181 217 