P2
92
112
255
50 54 61 50 57 49 60 57 49 59 52 58 55 57 61 51 59 58 55 58 59 58 55 57 49 42 40 36 33 31 42 27 32 36 29 32 30 34 34 38 17 36 31 29 32 37 34 28 36 31 21 41 28 32 37 28 29 41 37 41 48 56 52 55 57 58 62 53 56 55 52 55 53 51 54 55 46 58 52 57 54 54 53 52 49 52 52 56 47 50 50 54 58 56 60 55 58 56 54 58 53 58 55 52 64 56 59 59 54 58 57 62 58 53 56 51 48 32 34 34 24 38 34 31 34 32 27 33 31 39 24 35 26 30 28 31 26 37 26 37 26 32 31 29 32 29 33 33 28 31 35 34 34 45 51 54 56 54 57 51 56 60 51 55 53 54 49 56 47 55 50 55 51 53 53 51 45 54 54 50 53 53 57 48 54 56 56 51 54 54 54 57 55 55 57 54 59 58 56 57 58 55 56 58 58 55 43 40 41 38 36 37 33 32 31 32 28 33 25 40 26 40 31 28 27 26 30 24 37 32 28 31 33 26 39 23 32 35 31 33 33 30 34 31 31 29 36 47 45 52 58 53 56 53 55 55 53 54 60 46 56 54 53 53 56 54 51 55 48 55 54 53 52 53 57 54 55 52 56 57 52 55 55 58 55 56 53 58 56 61 56 56 59 58 59 52 50 41 38 32 36 37 31 36 30 36 33 31 28 32 27 34 26 31 33 20 30 25 33 31 30 33 25 33 32 32 31 32 24 37 31 30 33 32 29 28 32 30 37 30 38 43 45 55 56 59 55 57 52 57 56 50 52 56 55 48 61 52 52 54 49 58 54 51 54 57 49 55 53 57 56 55 56 59 56 58 59 55 62 56 59 57 59 57 60 54 55 42 46 28 45 31 37 35 29 31 37 28 36 29 30 35 29 37 29 27 37 23 36 28 30 31 33 25 34 31 31 29 27 31 26 31 30 31 35 27 33 31 36 22 37 27 34 33 31 47 54 59 57 55 53 62 46 54 57 56 52 52 56 54 53 55 55 52 58 49 54 53 56 54 54 59 57 60 53 59 51 60 55 55 62 55 59 58 59 57 58 54 36 39 38 32 32 38 36 35 27 32 39 26 29 35 31 38 34 30 31 25 33 28 36 31 35 27 33 29 34 23 30 27 30 25 35 25 34 31 28 33 26 38 30 32 31 35 32 29 27 39 41 47 58 57 56 56 52 57 58 51 54 57 53 51 59 51 53 49 54 56 53 48 58 49 56 56 58 61 56 61 54 54 62 53 58 56 62 58 60 57 47 40 40 39 33 34 34 38 26 34 34 30 41 23 29 33 34 34 35 19 37 24 37 34 30 31 36 30 34 31 34 31 38 26 38 30 38 22 36 28 31 36 30 34 34 33 27 29 39 29 35 37 39 32 52 48 59 56 60 49 56 52 57 54 55 56 56 54 53 53 50 58 52 52 56 56 59 56 60 55 56 60 54 53 62 48 64 52 63 57 59 48 38 41 30 40 32 36 32 33 36 33 34 33 26 26 39 27 41 28 41 25 35 29 36 38 30 37 39 37 49 32 49 36 46 30 47 39 33 29 32 31 33 34 37 28 34 33 31 32 25 30 34 33 38 27 36 37 56 58 55 54 57 55 55 56 51 59 57 55 53 56 53 61 49 53 52 56 60 61 54 58 61 57 59 54 60 56 61 58 62 55 41 41 41 38 35 38 33 39 28 37 28 33 32 31 31 32 34 24 43 33 50 32 37 39 36 47 38 45 48 46 49 43 56 52 54 44 49 48 40 41 41 38 40 30 29 27 35 28 33 31 30 29 35 37 34 31 31 37 41 49 53 53 60 57 59 51 53 58 57 57 55 51 58 57 52 54 51 57 60 56 59 58 61 54 61 58 60 55 63 62 60 39 35 30 36 40 33 38 34 37 27 41 28 28 36 28 31 33 39 41 43 42 45 48 52 54 51 51 54 60 53 63 54 61 61 67 61 64 63 60 62 53 53 51 44 42 28 31 38 30 39 20 35 32 38 32 32 33 28 36 33 39 45 54 57 58 58 54 55 59 56 55 54 53 59 59 55 53 54 54 59 56 62 62 60 56 61 57 58 59 62 55 43 37 33 33 30 41 36 30 34 27 34 36 41 30 39 35 33 46 50 49 56 60 47 65 64 72 63 66 68 65 64 68 67 68 67 74 72 71 70 69 67 68 65 62 63 58 49 45 39 41 38 27 35 29 37 30 28 30 29 31 34 30 39 47 52 59 58 56 58 56 57 57 54 55 55 57 58 54 52 56 60 59 61 61 61 58 60 57 61 62 58 50 40 37 35 31 34 39 38 29 36 33 31 31 42 38 44 44 50 63 62 64 75 76 69 74 77 79 70 77 71 77 77 70 75 74 80 80 80 78 82 75 71 76 75 73 75 65 69 57 57 56 47 47 39 29 39 28 31 32 31 30 36 29 37 32 39 57 59 57 57 52 57 58 55 53 56 55 58 55 55 56 59 55 57 59 61 61 58 53 64 55 49 35 41 34 39 35 31 41 37 26 38 31 42 42 47 51 59 71 66 77 80 75 82 79 91 82 88 83 78 87 70 89 78 86 83 78 86 86 86 87 87 86 79 81 80 77 74 72 71 65 68 69 68 55 56 45 39 33 38 28 30 33 30 29 32 31 37 42 50 58 58 54 61 56 55 58 57 56 56 56 56 56 53 60 60 59 60 56 62 56 58 43 41 35 38 33 40 30 33 38 37 30 38 44 43 58 65 73 74 85 98 77 91 92 87 91 93 87 94 87 85 88 88 85 84 95 82 88 85 91 90 97 87 91 82 82 84 83 81 79 83 72 77 74 76 68 66 57 54 45 43 36 27 33 25 28 33 26 33 34 38 49 58 57 56 58 52 60 55 57 56 56 55 59 64 57 62 59 63 58 59 58 42 40 33 35 30 38 40 35 26 41 45 48 50 59 58 76 79 87 86 90 93 94 94 95 97 90 100 89 95 90 103 96 93 88 88 98 102 91 96 87 100 101 87 89 90 88 86 89 86 86 78 80 76 75 79 69 74 66 59 59 55 46 33 29 28 29 31 24 31 32 30 40 49 59 55 58 56 55 59 50 58 53 57 58 59 61 58 60 60 64 51 44 36 38 38 32 34 37 38 41 41 51 60 61 69 71 79 90 92 85 92 95 93 102 100 99 108 97 105 99 103 101 106 101 112 101 99 109 109 107 104 102 98 96 96 94 95 90 91 87 86 88 85 84 79 81 79 72 74 71 68 64 60 56 50 41 31 29 34 23 34 29 26 36 40 53 61 54 61 54 57 53 60 56 60 57 59 60 63 59 65 59 37 39 38 40 32 37 34 35 41 44 58 67 75 77 76 86 93 98 96 96 96 98 97 102 104 103 111 101 104 110 114 115 114 107 116 117 108 123 104 116 108 107 107 99 102 98 97 93 98 98 85 100 89 86 87 80 77 81 77 69 75 71 68 61 57 52 40 32 30 31 31 29 31 35 36 42 52 55 61 54 57 56 58 56 57 56 56 59 59 64 61 47 42 36 38 34 31 32 37 46 54 64 74 71 84 86 86 97 94 97 98 102 101 102 98 115 101 111 111 107 113 116 113 116 123 118 128 120 122 120 116 118 113 111 110 111 108 96 109 102 102 94 97 101 88 92 88 83 89 77 82 79 71 75 70 67 67 54 55 41 34 28 33 32 33 31 36 32 42 47 64 53 58 59 56 55 57 55 63 61 56 62 54 33 38 33 36 34 28 34 44 61 71 74 85 99 81 89 95 99 96 102 101 109 102 112 113 114 112 112 114 119 111 123 120 121 120 130 131 124 136 131 121 126 126 112 117 113 118 98 102 112 110 97 97 100 102 95 97 87 93 79 82 79 83 82 68 72 68 65 59 53 48 34 28 30 30 33 38 29 31 40 58 57 61 55 59 58 55 57 61 59 60 53 43 37 33 36 29 36 27 39 71 73 80 82 90 100 94 94 97 105 103 99 109 109 108 118 113 103 117 114 115 115 122 132 126 133 130 133 132 140 134 139 127 128 127 119 119 122 123 120 105 114 114 109 100 104 100 98 97 93 95 88 79 84 86 84 78 74 67 73 66 64 53 43 35 32 32 35 32 24 34 34 42 56 60 58 59 63 56 58 57 62 54 49 31 35 40 33 34 30 35 54 71 78 82 86 91 91 104 98 99 106 101 110 113 107 111 113 111 116 117 116 124 120 133 127 132 135 149 131 133 145 140 138 132 135 128 123 124 125 128 117 115 111 111 113 105 111 107 100 104 99 95 94 91 91 89 91 82 82 74 74 71 68 57 55 42 35 29 37 26 33 34 35 31 49 58 58 53 59 55 59 59 60 50 34 34 41 38 32 38 30 46 71 76 83 86 91 90 100 97 102 108 104 101 114 115 115 117 112 118 116 120 126 126 140 116 146 145 144 151 141 151 142 145 149 138 130 128 125 129 129 131 120 123 114 116 111 110 105 111 109 100 99 91 97 92 92 90 93 87 86 82 82 76 68 72 60 44 40 33 33 33 26 34 33 27 41 50 55 60 57 55 56 65 57 38 28 40 35 36 38 33 42 55 86 74 87 88 90 88 104 102 104 102 106 105 116 115 119 116 121 120 122 128 130 134 136 136 150 148 147 157 147 150 139 147 140 144 132 137 132 131 129 119 114 124 116 114 113 124 101 104 118 100 95 94 96 97 88 91 91 93 91 84 76 79 70 72 70 53 40 41 31 33 31 32 29 29 38 37 59 58 55 56 57 65 42 33 37 34 34 33 37 41 55 65 88 83 89 95 93 94 105 100 105 105 115 113 113 120 122 118 121 128 125 131 138 135 144 138 147 148 141 157 151 151 142 145 143 145 148 134 142 131 135 119 126 119 125 112 119 115 113 103 108 104 96 96 103 93 95 93 96 94 89 97 87 80 79 76 73 59 52 44 35 29 39 34 30 30 30 38 56 59 55 59 53 63 33 40 35 25 35 31 38 57 58 79 89 89 89 92 102 94 108 106 109 106 115 116 116 118 117 124 118 122 134 134 135 141 145 131 151 147 143 152 149 145 159 143 148 148 154 136 135 132 127 119 128 122 119 116 115 115 106 107 108 102 105 101 98 99 95 96 97 90 96 93 93 81 83 82 75 67 64 50 46 32 35 33 34 25 33 33 45 56 55 58 58 48 35 38 35 33 27 33 50 58 70 92 90 91 97 96 102 102 110 120 109 112 113 118 119 125 119 121 121 123 133 131 140 137 146 139 153 151 151 148 146 147 156 153 143 151 151 137 135 127 122 130 123 122 119 121 111 117 116 108 108 107 108 100 96 98 97 95 96 90 100 94 92 89 87 86 74 72 68 56 44 42 33 33 28 29 34 29 40 54 60 58 62 47 35 40 30 40 36 35 43 66 78 87 94 93 95 103 104 106 113 115 106 113 114 117 117 122 124 119 126 120 133 132 139 138 148 144 153 146 148 149 136 151 150 145 146 146 154 138 136 132 128 129 122 128 119 120 113 116 119 106 103 109 107 102 103 99 95 98 95 98 96 96 93 93 86 84 83 71 69 55 53 47 32 27 33 30 35 30 35 53 60 54 58 35 39 34 28 40 40 34 47 68 76 89 96 98 98 102 113 111 119 115 103 113 117 120 121 124 122 123 127 127 122 141 136 150 145 148 156 156 150 152 156 139 146 142 145 150 144 143 133 136 125 132 128 133 117 125 112 114 112 104 107 103 105 101 98 100 95 99 96 101 97 97 101 92 94 92 81 78 76 56 62 54 31 33 35 33 29 27 32 48 58 55 52 39 30 40 31 41 33 43 56 65 78 89 99 103 105 109 114 117 112 114 109 117 122 120 126 122 120 125 125 131 128 138 141 150 150 147 158 160 150 148 157 136 147 145 143 138 140 144 130 135 128 129 120 127 115 121 112 118 107 104 110 102 106 98 95 99 96 101 97 98 100 96 101 90 97 94 85 86 83 67 63 62 32 33 36 34 25 34 28 41 55 57 58 45 30 36 37 33 42 53 69 72 85 93 102 104 109 114 114 113 121 112 112 119 121 119 126 122 123 128 121 130 132 138 136 145 145 141 153 153 153 145 145 144 153 144 134 144 142 131 132 132 127 130 124 124 122 114 120 118 112 110 110 109 109 107 97 101 99 101 100 99 103 95 99 99 96 93 91 94 85 81 68 59 42 30 33 35 31 35 29 38 48 58 60 43 43 35 31 42 41 60 81 84 91 98 104 112 109 117 115 119 120 116 114 115 119 118 123 123 122 128 120 125 123 132 133 139 141 137 137 142 144 136 139 139 144 142 141 143 142 135 135 136 132 136 134 132 122 122 122 123 112 115 110 111 111 108 107 104 102 99 102 97 103 98 96 100 94 96 98 94 89 83 78 65 53 34 28 35 30 31 29 34 48 56 55 36 42 30 46 38 50 61 83 89 95 104 109 114 114 117 120 119 119 119 120 116 121 112 120 123 125 126 126 125 130 134 140 138 141 135 140 140 143 140 143 138 149 141 144 145 145 140 142 133 136 141 139 135 134 131 121 124 120 124 114 118 112 116 110 110 106 106 97 106 99 97 103 98 97 96 101 93 94 85 80 72 48 45 35 26 34 28 30 31 43 58 60 36 43 31 37 44 51 59 89 87 102 106 110 111 118 120 118 116 119 118 120 114 120 118 118 125 131 129 129 136 135 136 140 141 142 145 136 147 144 144 140 139 149 143 149 145 144 133 141 140 138 142 145 140 139 140 126 132 124 132 121 123 119 119 120 116 111 106 104 105 101 98 101 101 99 96 99 96 94 88 88 73 55 59 36 25 28 28 36 30 45 60 58 35 34 42 32 41 65 68 92 92 104 104 112 119 118 119 116 117 122 116 119 118 122 122 123 128 126 133 135 141 139 143 146 145 151 144 147 145 147 149 147 140 151 153 149 150 145 142 144 146 148 142 147 149 152 149 139 148 132 144 135 132 133 120 124 123 116 105 103 99 94 97 93 98 100 99 94 98 97 91 83 80 65 58 42 30 25 29 30 30 37 59 56 40 31 45 34 32 67 75 103 98 105 122 112 118 121 117 115 114 124 121 124 125 124 127 125 135 130 131 143 147 142 152 150 155 154 166 164 161 151 153 149 143 156 156 163 157 154 155 158 159 151 149 158 162 156 159 157 164 144 153 139 137 136 119 120 116 111 105 103 93 90 85 74 77 90 101 95 98 95 85 85 78 76 65 50 28 26 29 27 29 35 52 58 45 33 39 41 28 72 73 99 102 105 123 115 121 118 117 119 119 125 124 128 128 126 127 133 138 136 140 137 158 147 161 154 168 165 178 184 180 162 157 156 151 163 166 173 165 159 167 171 172 167 173 163 161 162 156 162 163 141 136 132 126 121 112 111 103 97 95 95 82 85 82 80 73 65 80 96 95 95 84 85 78 75 71 52 31 23 32 25 31 32 49 55 36 33 36 32 47 56 78 99 105 110 117 117 116 120 118 120 120 124 122 126 126 129 134 134 142 141 141 137 149 159 163 167 176 176 174 172 181 171 160 154 160 169 165 174 169 167 174 175 175 171 182 159 152 147 150 144 147 115 118 115 109 85 92 88 77 77 71 83 73 81 90 78 78 61 70 68 91 90 83 86 77 80 76 57 34 30 28 25 34 30 37 54 36 38 33 28 51 55 79 103 108 111 114 111 120 118 124 118 125 119 124 123 123 126 126 133 132 136 134 142 139 151 154 158 170 177 160 153 166 154 160 147 165 162 162 163 152 167 165 171 169 162 162 142 138 126 128 130 128 99 107 86 77 73 61 68 63 61 63 63 71 76 83 81 81 64 70 63 70 78 80 80 79 77 72 63 35 27 25 30 30 23 35 46 42 39 37 24 52 69 81 109 103 107 121 114 129 119 126 118 108 114 119 113 115 114 112 121 120 126 131 132 127 130 132 136 135 144 141 124 143 141 146 145 154 144 151 138 148 157 147 146 153 147 145 128 115 108 121 113 89 95 74 61 56 57 48 66 56 60 60 60 72 62 65 66 66 80 67 76 69 67 74 81 79 77 71 68 39 23 30 31 23 22 37 39 40 33 36 32 43 81 90 102 102 104 117 115 124 123 128 105 106 105 107 106 104 101 107 97 105 111 112 103 105 106 105 103 110 110 111 101 115 117 127 135 136 139 133 132 133 143 142 137 135 131 126 114 96 96 103 86 75 75 64 59 57 53 57 50 64 59 66 74 78 88 76 77 84 87 82 75 80 66 64 79 82 74 71 71 40 32 30 30 28 20 30 32 30 37 29 33 55 82 91 100 103 106 120 117 125 122 106 90 93 98 98 106 94 84 97 87 79 74 77 58 77 70 69 74 84 81 75 81 85 94 104 123 121 121 119 122 120 131 129 130 118 123 109 102 90 81 87 72 71 66 64 64 58 55 50 57 64 77 78 87 96 97 97 96 101 96 88 85 95 85 71 61 83 78 72 75 45 30 32 29 24 24 25 31 31 41 27 32 58 79 90 108 102 100 121 110 115 105 94 80 93 101 89 91 84 80 86 82 72 71 59 60 60 65 62 57 68 69 61 68 71 81 87 98 109 114 113 117 117 111 122 123 113 114 101 100 77 74 73 67 61 59 56 52 53 59 66 83 91 94 97 102 100 102 107 97 105 102 98 97 102 99 84 63 76 78 77 72 54 33 29 27 28 25 25 41 33 35 35 25 57 82 96 98 102 103 114 120 100 91 98 93 102 95 97 94 89 88 85 73 76 79 67 62 51 69 60 65 64 61 66 61 61 73 78 92 93 103 110 108 118 107 119 113 111 107 98 79 80 68 61 63 52 54 56 62 67 90 97 106 113 104 107 103 109 110 105 111 111 111 111 109 108 96 95 83 66 79 76 75 61 28 29 29 22 22 28 37 34 34 34 33 39 79 94 92 103 111 118 100 92 98 114 103 126 113 101 98 103 106 101 92 90 80 74 69 63 54 60 64 64 58 66 65 72 76 80 91 82 102 107 103 111 106 107 100 100 98 91 76 75 67 62 56 57 60 68 79 86 110 108 115 110 103 101 95 99 103 106 108 116 115 115 109 111 101 94 93 68 78 74 73 73 27 25 30 22 22 29 44 27 28 41 36 35 84 86 97 98 111 108 90 74 104 116 119 117 119 118 106 104 106 108 115 113 108 108 100 102 89 90 74 74 71 72 62 77 76 85 84 93 97 102 106 106 110 105 99 96 96 92 86 81 72 59 53 66 75 81 81 88 82 85 78 87 86 77 78 74 73 67 79 94 112 115 103 109 106 98 87 84 67 77 78 67 39 29 25 26 24 49 61 46 30 39 24 53 71 90 98 110 106 96 91 104 117 117 130 124 124 119 116 117 114 120 118 123 123 123 125 118 115 114 101 93 88 73 74 67 76 86 96 104 104 118 110 113 116 117 112 105 103 100 88 91 75 59 65 79 83 73 64 56 88 103 112 126 128 96 102 102 98 90 90 77 67 84 97 105 103 96 78 85 80 77 81 72 31 34 19 30 43 66 57 38 38 31 33 36 75 94 102 110 95 93 85 121 114 119 128 127 135 122 129 127 127 123 117 115 118 118 115 103 105 100 97 92 96 89 83 81 74 78 105 113 118 125 116 122 136 138 123 115 109 111 95 91 68 63 72 80 79 56 58 86 113 116 114 119 110 72 94 87 89 98 103 99 100 63 67 86 95 87 76 83 91 72 80 74 43 23 22 41 45 32 29 40 31 38 28 32 74 94 98 109 95 100 95 115 122 120 128 127 138 129 133 129 119 101 81 84 89 89 93 77 74 65 41 60 73 81 96 87 82 78 107 120 130 134 135 127 145 150 132 119 108 113 103 95 63 70 88 85 63 68 74 91 83 69 52 66 112 19 35 36 39 66 68 84 99 98 73 69 78 84 80 87 83 86 75 76 52 17 30 49 33 20 24 41 32 41 41 29 77 95 101 107 106 112 101 111 113 124 126 136 134 135 117 100 85 85 95 114 123 124 117 100 100 87 77 58 50 57 75 84 85 82 103 117 130 136 139 134 145 152 139 119 120 118 101 93 53 97 102 72 78 73 69 49 55 43 16 87 130 10 21 20 56 40 27 37 59 70 84 80 83 85 81 82 96 88 81 77 49 23 40 73 42 15 20 41 36 37 37 35 71 91 109 105 107 111 99 108 115 120 126 129 114 83 92 107 111 122 104 104 92 74 58 59 71 60 67 67 68 62 57 65 76 83 96 104 127 137 140 135 144 146 141 117 116 118 98 79 58 113 95 90 62 41 47 47 122 93 14 48 34 24 34 12 91 102 49 12 27 32 54 64 73 74 72 97 96 94 89 73 64 16 72 116 72 10 17 51 36 38 33 29 74 91 107 109 113 110 112 104 113 119 119 105 53 101 122 131 114 93 55 35 28 85 39 24 19 59 42 41 50 60 80 85 78 91 94 108 122 135 141 129 138 144 137 121 112 118 103 85 76 101 107 73 36 31 203 151 135 155 23 51 38 37 30 27 135 129 91 26 29 39 51 48 64 83 88 98 99 99 92 77 59 36 88 112 96 12 15 74 45 35 34 23 85 89 97 114 118 121 110 108 110 116 102 54 99 129 124 102 55 27 95 15 37 51 24 32 12 119 96 39 48 32 30 92 126 111 96 121 128 128 134 128 133 136 132 119 118 115 108 98 86 95 104 89 74 77 159 115 103 118 85 127 83 58 48 76 105 91 75 81 78 76 62 78 93 99 94 93 98 101 95 81 65 54 95 106 103 40 9 66 54 46 32 27 80 92 96 112 123 120 113 107 109 108 85 100 110 103 65 26 37 89 76 27 27 29 29 35 38 132 116 59 207 90 61 79 111 117 103 125 128 123 130 134 132 131 135 123 121 114 106 104 96 86 95 111 104 114 99 106 120 104 116 111 121 78 76 67 79 82 96 108 107 99 90 77 83 99 96 100 100 102 99 85 67 71 100 96 102 67 9 47 29 66 46 33 82 88 101 114 126 127 120 103 103 105 91 96 70 40 35 14 91 148 110 38 33 39 50 45 85 114 98 69 133 101 111 112 102 109 116 127 126 121 133 136 131 135 137 128 120 115 116 103 100 91 89 99 98 103 95 99 98 87 100 79 86 77 77 78 91 89 98 101 101 93 67 73 83 97 103 102 99 104 101 90 79 66 81 81 93 90 25 43 15 52 64 28 80 95 95 115 125 128 122 114 93 95 86 88 55 47 62 49 72 108 105 89 69 91 125 135 124 129 114 96 98 93 102 107 108 110 122 128 117 130 129 134 138 135 137 136 122 121 115 111 103 104 94 97 101 102 103 99 84 73 79 68 72 77 73 81 79 83 79 76 67 70 77 98 104 103 109 109 101 103 104 95 83 66 47 67 74 90 42 38 14 54 95 30 82 95 100 109 126 121 129 119 101 107 114 99 102 99 107 123 115 92 92 89 102 100 120 98 96 91 89 89 95 104 104 106 115 122 130 123 124 130 127 134 133 138 129 136 124 122 116 112 109 108 101 100 104 114 108 107 101 80 78 60 47 46 41 48 46 51 46 63 82 94 108 114 114 108 110 111 103 109 105 98 89 81 33 51 55 79 63 29 7 69 137 46 80 100 95 114 122 125 129 118 113 123 118 105 110 118 120 132 127 105 100 94 99 87 84 87 73 81 79 94 109 114 114 119 123 128 128 123 128 127 136 133 133 141 140 134 134 122 120 116 108 111 108 102 104 113 119 121 114 103 106 95 80 76 74 69 68 76 86 95 107 112 113 113 115 112 112 111 106 109 104 101 94 82 48 30 43 70 69 28 14 93 148 93 67 100 99 111 120 124 121 122 124 126 114 108 101 104 106 106 112 100 94 87 79 76 61 69 60 85 108 108 121 125 126 125 127 132 126 126 124 126 137 137 131 146 144 141 133 132 118 115 110 110 120 105 103 108 113 121 116 117 115 112 106 107 111 107 108 108 110 107 113 119 114 118 117 119 115 114 110 110 108 100 97 85 61 21 35 47 76 16 31 108 133 127 69 97 104 109 120 121 122 125 129 126 125 118 114 108 99 92 90 83 73 67 63 65 77 87 98 109 129 117 130 127 134 130 132 123 133 122 126 129 138 140 136 145 142 141 127 130 123 116 112 108 116 117 112 104 112 115 116 117 118 110 113 109 113 108 115 104 113 117 118 117 115 117 119 117 108 122 112 115 106 107 94 86 72 25 23 40 74 31 49 121 122 110 73 93 106 109 114 118 127 122 129 126 127 124 129 127 122 113 112 104 99 100 101 100 108 115 115 125 129 124 127 127 132 129 128 126 126 135 122 131 138 136 144 136 142 140 130 126 127 114 117 106 107 111 113 113 114 116 114 116 118 114 117 113 111 111 108 107 113 111 113 116 118 118 122 120 116 123 116 115 111 100 98 85 82 36 14 32 80 45 72 126 108 98 81 92 110 105 117 118 126 125 130 133 130 133 131 128 132 126 127 124 123 122 117 117 118 125 125 128 125 129 125 127 132 127 124 127 128 133 127 132 137 134 135 138 140 138 136 123 128 120 112 109 102 102 107 120 118 115 113 124 118 123 122 120 120 120 118 104 117 112 116 117 116 117 120 115 118 117 120 115 111 97 100 85 83 54 12 32 88 69 99 116 92 87 81 92 109 106 110 118 124 125 131 134 134 136 133 129 130 129 125 126 128 111 125 123 118 119 129 126 126 125 127 128 130 130 131 135 131 126 131 131 128 136 134 145 141 149 145 138 124 128 113 115 103 101 106 111 110 103 97 116 120 119 129 126 121 124 123 115 115 113 120 122 114 125 120 119 117 118 117 115 108 101 97 84 81 67 15 44 93 89 114 113 81 78 86 93 103 113 114 122 123 127 133 130 138 139 135 134 131 131 125 122 122 119 123 124 120 121 130 126 126 128 130 131 134 134 139 131 128 128 128 132 135 131 132 138 155 156 154 145 127 138 118 116 107 107 102 102 110 111 93 87 120 121 130 126 125 130 127 125 127 125 126 123 120 126 123 123 118 119 119 116 108 101 94 85 77 72 33 77 64 107 115 103 70 66 89 99 101 110 117 122 130 130 135 137 142 140 134 134 130 127 124 126 117 123 123 120 125 131 131 132 130 135 134 132 132 139 135 121 123 123 123 135 133 145 150 155 189 197 192 160 128 132 128 118 115 110 97 109 109 118 109 84 95 112 111 127 120 129 132 133 131 128 128 118 127 124 122 129 121 126 121 118 109 100 91 81 81 70 60 68 25 101 120 92 55 54 93 93 107 108 120 124 130 128 137 136 140 139 135 133 130 125 127 129 115 123 127 129 130 127 137 135 133 146 135 125 109 130 122 118 118 120 129 132 141 152 151 189 198 207 215 191 120 140 134 134 130 118 101 115 121 120 116 117 87 102 111 118 122 131 129 132 128 131 125 123 127 122 122 132 121 132 130 115 111 100 85 85 84 71 63 41 28 101 123 89 42 52 91 97 102 107 119 127 123 139 134 140 135 138 136 129 132 132 131 132 133 128 136 139 136 135 142 142 141 142 125 98 121 125 125 121 116 127 132 141 154 154 156 181 186 176 174 158 140 129 132 143 153 133 124 116 128 127 128 127 92 110 109 116 117 126 137 127 127 126 121 122 116 122 126 127 125 126 129 116 107 101 82 90 78 74 61 55 60 78 130 92 37 45 100 92 103 111 117 127 126 140 137 135 134 134 137 128 137 131 135 134 141 132 138 141 148 147 147 135 137 123 98 125 126 130 136 133 131 130 150 157 169 150 160 157 157 148 143 135 131 128 126 140 131 121 136 132 138 138 149 142 90 115 116 114 118 122 126 119 135 126 127 116 113 119 117 118 128 120 123 114 106 91 84 83 80 75 58 68 67 69 120 120 61 55 96 93 102 109 118 125 126 131 134 133 136 137 142 134 139 130 139 127 132 138 135 148 143 149 135 135 124 114 102 129 146 144 148 154 145 147 157 164 170 153 131 141 132 132 133 114 122 116 122 110 96 104 111 122 120 115 116 107 76 125 123 124 114 120 133 118 127 125 114 121 109 107 116 124 116 122 109 103 99 83 80 83 85 75 60 62 60 92 61 120 99 80 92 91 102 109 120 127 134 126 130 130 140 142 140 144 138 136 143 135 137 145 129 139 142 138 128 126 109 108 112 141 177 174 162 154 143 143 138 129 149 136 127 127 123 116 116 103 111 106 99 89 82 87 83 86 78 82 73 82 59 101 126 125 116 123 115 121 114 112 103 105 106 103 108 114 115 115 97 93 83 76 70 84 78 70 68 50 63 91 71 101 101 81 97 93 105 104 114 121 134 127 129 134 143 146 145 148 137 145 136 140 138 136 137 144 139 132 132 127 100 119 116 127 139 136 124 122 122 119 116 107 124 126 123 114 112 102 98 92 100 91 87 68 55 46 40 36 34 33 46 69 43 48 125 122 115 119 112 118 108 94 103 101 98 96 105 106 111 97 89 83 82 67 69 83 74 74 66 59 75 101 99 111 93 77 99 97 98 109 112 125 127 129 130 135 143 147 146 145 140 139 139 135 135 134 133 137 137 129 131 110 110 126 130 104 111 108 88 78 77 77 78 89 100 106 114 104 98 80 79 83 79 81 75 40 16 21 21 26 24 28 48 58 57 47 115 121 112 111 107 109 101 97 101 92 91 90 93 100 97 90 80 81 67 64 61 83 77 72 63 61 76 106 104 106 93 72 96 98 101 105 112 122 119 128 131 138 140 143 142 144 137 137 132 130 131 127 138 131 132 130 121 112 117 140 148 73 101 82 52 30 19 25 21 22 40 58 102 91 80 67 61 67 64 77 54 26 35 44 45 70 53 49 61 69 77 52 104 123 111 114 99 92 82 87 84 85 83 94 89 98 97 85 76 73 60 59 58 78 73 70 69 59 68 107 107 101 92 78 94 101 101 104 108 113 118 127 128 141 139 140 138 137 131 128 133 123 125 125 130 135 130 128 119 126 127 147 158 67 92 85 57 34 30 49 41 34 42 32 39 74 74 60 46 48 63 51 29 25 53 53 66 70 67 66 74 89 91 76 103 118 115 109 104 86 90 77 74 75 82 80 92 88 89 84 76 66 59 56 64 74 74 72 68 66 40 112 105 103 111 86 86 103 98 106 110 111 116 121 128 134 135 135 143 133 128 128 125 121 121 125 124 129 124 124 124 130 139 147 156 95 100 100 105 85 96 103 81 67 77 69 44 35 44 64 38 49 50 21 22 37 60 69 82 82 84 74 81 90 96 94 113 116 114 104 104 97 82 74 68 65 76 81 82 88 78 80 79 63 55 53 70 72 74 76 69 67 33 117 113 117 129 86 98 99 100 106 113 106 114 111 112 118 127 125 131 127 125 128 124 117 119 120 119 119 122 127 131 133 148 143 154 122 104 117 117 112 109 104 92 85 81 81 63 53 43 42 37 34 48 41 38 68 89 102 107 102 105 95 98 90 107 116 117 117 106 111 89 97 83 70 75 69 71 77 80 80 76 77 77 66 55 61 79 67 72 71 70 68 35 102 113 115 106 83 102 94 97 107 111 113 108 111 102 108 119 119 121 124 124 123 120 108 115 111 120 115 118 130 133 134 143 144 143 127 120 121 124 112 121 120 119 117 113 104 107 79 69 39 39 35 60 72 91 102 115 109 107 111 107 107 102 94 99 112 111 111 103 104 100 92 80 86 74 71 76 78 77 84 77 75 73 66 60 66 75 69 73 63 66 73 39 50 78 92 58 76 106 100 91 106 112 112 108 102 99 99 104 113 109 115 123 114 113 114 113 113 108 112 112 124 129 127 131 131 131 125 136 142 134 123 118 127 124 120 124 135 126 136 101 68 69 66 76 103 119 108 110 107 106 108 110 105 107 105 96 110 113 107 111 107 108 104 90 82 92 76 79 73 76 85 85 76 84 61 63 67 76 73 73 66 56 68 37 52 48 54 38 74 102 102 95 102 113 110 103 98 104 95 95 107 102 109 109 112 114 114 115 105 106 104 108 109 115 113 111 122 124 134 141 135 135 119 119 121 121 124 129 130 121 133 102 105 107 96 113 113 124 107 111 102 107 94 109 106 107 106 107 109 116 112 110 114 114 100 89 97 87 84 80 71 74 80 94 74 83 64 65 76 78 79 68 67 56 68 38 44 51 50 33 76 98 105 97 104 111 109 105 103 105 90 98 92 104 102 107 111 111 117 109 106 101 100 97 103 98 99 110 121 134 131 131 127 128 117 130 119 129 128 124 127 128 122 125 125 124 115 127 123 124 116 107 111 110 110 109 112 112 117 113 120 113 108 111 111 106 97 93 96 88 95 78 69 76 75 75 84 77 67 68 81 79 75 72 64 60 62 35 47 53 51 35 64 99 103 103 102 105 109 108 105 99 99 99 93 99 104 99 105 112 114 108 101 100 101 92 75 80 102 116 126 131 117 136 126 137 130 124 124 127 126 122 126 136 130 141 140 136 151 108 109 112 111 104 101 98 103 95 107 103 110 112 116 108 110 113 112 106 103 100 85 82 97 88 79 73 81 76 89 81 63 72 82 79 73 71 57 62 58 30 45 50 52 36 59 102 108 101 102 108 108 99 106 105 97 102 95 93 102 96 104 104 117 108 101 110 99 62 48 102 117 123 131 130 121 132 129 124 128 132 124 125 132 120 115 125 113 97 108 101 127 102 97 94 90 95 95 92 95 93 92 91 97 91 92 89 82 83 84 91 83 101 97 92 86 90 80 80 81 85 88 74 62 80 83 74 77 66 59 59 58 28 52 50 45 42 49 99 109 105 110 104 105 110 98 104 98 105 97 95 92 101 97 106 118 111 107 107 71 38 96 116 122 125 134 133 128 122 133 127 139 132 117 113 116 105 107 108 104 105 119 117 122 109 104 87 99 105 97 96 94 92 98 95 94 94 85 81 69 55 46 47 44 88 98 96 81 92 84 79 90 80 86 82 62 79 71 78 74 62 57 59 52 33 51 45 49 48 40 98 103 104 111 96 97 107 104 96 100 102 101 104 94 94 105 114 117 114 109 90 67 88 122 115 126 131 137 130 131 132 141 130 129 115 103 114 113 109 117 121 114 107 116 110 121 91 95 88 95 93 84 76 82 83 88 83 90 83 69 70 48 47 20 20 27 86 82 79 77 83 88 80 91 85 84 71 70 72 73 77 67 62 54 58 38 40 48 49 52 45 33 90 104 99 109 106 98 102 102 97 98 106 94 106 104 96 102 117 119 118 100 76 92 108 113 101 131 131 130 124 133 121 120 109 108 106 120 114 109 109 104 105 99 92 101 98 90 75 76 93 86 78 65 58 57 59 62 55 66 56 46 58 69 96 96 20 86 97 80 80 72 77 91 84 75 88 80 72 61 66 68 70 65 53 53 60 35 38 49 50 49 53 28 89 95 105 107 109 105 99 105 98 97 100 88 107 100 106 107 116 122 102 89 81 91 100 68 122 126 121 118 106 93 98 101 97 103 109 108 98 102 94 88 80 79 92 82 84 84 56 61 58 69 54 43 32 31 46 35 36 34 47 75 110 136 122 119 74 110 107 95 79 85 74 69 77 78 78 75 63 61 62 65 59 57 57 56 56 27 39 49 52 49 49 35 72 95 103 106 105 111 96 98 97 100 97 92 103 104 109 119 120 119 92 83 81 76 69 73 117 77 97 70 67 68 72 87 93 115 80 95 75 71 54 46 38 49 49 57 67 58 53 51 33 42 39 47 26 33 33 37 68 94 114 111 119 121 91 84 97 118 109 98 85 87 77 67 68 82 80 70 59 64 62 65 64 60 55 55 48 31 36 48 46 48 46 45 53 93 104 104 105 103 109 88 103 101 94 99 100 106 108 118 116 119 86 85 73 58 50 85 98 48 31 58 82 71 74 72 66 68 54 52 53 38 40 32 32 51 43 51 50 41 38 47 52 67 70 108 40 63 83 104 105 107 104 101 110 82 77 94 113 111 103 104 99 93 71 76 69 69 74 67 56 60 63 66 61 57 50 58 38 31 33 47 52 44 48 52 39 85 97 97 106 104 105 100 110 98 96 98 95 109 108 118 121 112 82 79 64 47 46 99 82 76 45 147 134 135 127 116 82 51 62 43 38 76 84 61 66 91 85 78 76 81 2 100 82 103 107 106 96 105 115 100 94 95 117 143 93 71 97 104 115 107 100 100 107 97 86 70 68 61 63 54 63 58 53 64 54 53 53 52 29 36 34 44 52 48 40 53 37 73 89 99 101 98 107 104 95 98 95 94 92 109 106 117 112 111 88 69 54 47 56 109 106 120 98 116 108 131 136 128 122 128 102 95 70 108 117 90 63 148 123 120 99 108 18 95 117 112 130 122 121 112 110 94 94 113 145 114 84 80 108 114 112 94 98 103 99 90 85 64 63 74 63 60 51 55 57 60 48 53 57 38 31 37 35 48 47 47 45 46 50 46 87 94 97 104 100 103 103 99 98 98 90 105 102 114 110 107 91 72 56 55 74 118 108 131 123 109 119 105 131 148 141 120 111 119 113 114 116 114 102 115 123 120 77 69 73 119 136 146 148 139 130 104 93 99 97 155 102 89 95 91 116 107 97 94 95 104 94 90 80 69 60 64 63 49 53 51 55 59 47 55 50 32 32 35 30 45 50 48 43 48 55 32 78 88 98 97 105 99 100 99 96 103 95 94 96 104 110 101 84 69 64 59 99 119 112 121 135 121 119 130 122 129 145 140 113 122 110 124 131 135 136 133 140 142 137 147 136 161 172 186 210 171 112 94 87 85 117 94 91 80 94 106 105 97 91 97 98 97 99 85 70 61 67 64 59 51 54 56 55 53 59 55 38 35 41 34 34 45 49 48 45 48 48 46 55 92 89 98 101 101 95 102 95 92 97 95 98 99 93 97 88 67 61 77 107 122 127 111 113 130 130 125 125 121 133 177 148 124 113 119 141 149 165 173 197 188 206 187 192 179 197 192 181 109 83 75 77 74 90 85 81 71 89 97 93 90 87 97 95 92 92 73 68 69 73 57 50 54 53 54 46 54 57 56 31 31 37 37 33 41 51 46 44 49 49 56 37 83 90 93 98 97 99 100 96 86 98 92 94 96 91 96 90 46 74 66 112 120 118 119 111 119 129 126 122 118 121 142 159 115 116 108 121 139 137 160 178 163 169 154 134 125 116 109 92 80 67 66 69 64 75 73 68 85 83 89 90 86 87 85 92 86 80 67 68 76 67 56 56 52 54 48 49 58 58 36 40 30 36 38 29 48 45 48 46 49 48 49 44 55 89 91 95 94 95 96 94 92 89 91 86 90 88 97 86 63 60 74 110 112 119 113 106 114 117 124 123 113 114 114 122 99 105 100 93 106 108 118 120 119 118 108 110 104 95 90 74 70 65 63 64 66 60 63 74 80 82 84 84 85 70 85 84 71 72 68 86 72 58 54 53 50 49 56 46 62 45 35 33 37 35 34 32 46 45 46 46 48 52 47 50 38 79 88 96 97 91 96 92 89 93 88 84 87 86 85 76 70 68 72 92 113 118 113 114 107 109 114 121 112 114 107 105 92 105 95 88 87 81 88 92 90 90 88 86 80 78 68 64 55 54 55 53 55 54 69 65 77 83 80 76 82 69 80 74 67 71 85 82 59 60 49 48 51 53 50 50 58 33 37 36 39 35 35 33 51 45 49 49 44 53 51 48 39 53 87 90 96 90 92 95 88 89 81 82 84 83 89 70 84 70 77 88 103 111 111 116 102 98 102 114 101 104 106 104 92 91 92 78 82 70 71 72 68 57 76 56 56 57 54 45 48 43 44 45 51 59 65 64 75 73 75 69 78 69 72 66 68 81 86 78 52 58 53 47 50 46 48 58 46 34 31 41 34 37 33 34 55 43 46 52 45 53 49 43 50 35 75 90 94 90 93 90 93 89 79 80 80 83 78 69 85 73 81 87 92 105 109 105 101 106 94 102 104 99 100 97 97 90 80 75 69 56 57 56 50 47 58 56 52 49 50 45 45 45 47 55 49 55 63 62 67 61 63 62 65 65 67 66 77 82 84 73 55 59 50 49 46 40 60 58 35 34 33 40 36 36 34 31 50 43 46 46 52 51 44 51 49 41 45 87 94 89 92 87 85 89 79 80 82 75 80 75 86 77 77 85 86 98 101 97 102 100 101 98 97 97 96 92 89 91 84 79 76 65 64 52 54 55 50 55 48 51 50 48 50 48 48 51 47 46 50 54 49 59 60 63 68 65 63 71 88 78 87 71 63 57 46 41 46 46 63 45 33 37 34 36 35 35 34 34 48 49 39 48 50 47 48 52 44 49 22 136 84 86 90 89 84 83 80 78 82 71 76 81 79 78 81 76 93 95 91 95 99 91 100 98 96 89 91 90 76 74 75 65 73 65 52 56 47 55 54 50 48 44 46 43 40 36 37 38 34 39 38 47 47 54 63 62 72 66 68 87 94 89 76 73 62 49 39 50 49 55 57 33 33 36 33 34 38 32 34 35 46 44 50 45 47 48 53 49 47 51 16 218 139 64 89 87 86 84 77 75 82 71 71 78 81 80 81 79 100 84 90 91 94 91 97 96 95 92 84 79 72 58 59 52 51 42 38 47 34 37 41 35 37 30 33 36 30 32 29 35 31 36 41 52 53 58 66 67 77 59 83 88 87 97 86 60 63 36 38 51 46 65 39 34 35 39 32 37 33 38 31 30 46 46 43 49 43 49 52 44 54 31 65 235 224 91 72 91 90 83 82 74 77 75 66 74 85 83 80 82 81 77 84 96 93 94 98 93 87 88 83 80 64 61 51 49 41 41 39 39 38 33 36 27 35 26 33 28 35 27 26 40 38 54 58 61 58 66 69 73 70 80 92 89 86 95 78 68 51 35 35 47 59 62 47 31 35 34 36 32 35 35 30 31 42 47 46 41 49 46 45 53 47 19 109 237 216 191 62 88 90 88 88 78 77 78 69 73 76 80 77 89 57 83 92 97 103 98 98 94 90 85 88 79 73 76 60 53 47 49 38 43 36 40 34 29 36 30 32 30 32 39 41 57 67 66 66 70 78 80 80 75 76 99 98 91 80 94 68 54 39 36 39 53 58 59 80 24 36 35 31 33 34 31 30 35 47 41 45 44 48 45 46 48 47 25 130 234 210 226 122 71 84 91 84 80 77 71 71 71 61 70 79 91 45 103 79 90 102 109 106 97 94 82 95 91 83 84 77 84 76 72 60 64 56 54 48 44 43 42 56 47 58 63 79 83 81 78 75 84 90 89 88 82 84 104 92 89 69 79 53 37 40 37 37 61 49 49 96 54 42 34 31 34 32 33 28 30 42 44 51 44 43 45 45 54 46 42 121 222 215 215 211 85 80 83 86 84 79 73 75 54 54 68 83 77 43 103 58 92 101 107 111 112 104 103 97 96 82 94 86 94 98 95 103 98 98 97 93 89 81 95 93 81 90 92 98 99 93 92 87 90 97 92 98 94 77 96 85 87 69 50 45 28 36 39 48 65 33 68 110 113 118 96 73 70 68 62 52 57 41 45 45 42 46 46 46 50 41 59 114 178 222 210 222 179 81 77 85 83 82 79 71 65 66 65 72 66 50 83 64 80 104 100 116 124 93 115 107 112 100 101 97 104 103 104 117 109 115 104 110 105 104 105 98 105 106 99 111 116 104 99 95 93 99 96 95 98 71 81 68 72 51 38 35 32 37 44 60 54 32 86 98 52 75 83 91 93 96 91 92 92 106 130 140 153 152 114 102 135 122 63 143 84 228 217 211 225 147 79 77 82 81 84 75 75 72 67 64 49 54 58 54 67 91 98 97 122 104 107 109 111 103 105 104 95 107 109 125 111 106 104 108 103 99 109 100 110 111 105 113 104 101 93 94 88 93 97 79 86 77 62 60 55 53 39 40 33 35 47 56 44 50 107 128 24 95 116 121 96 102 108 125 114 164 183 186 164 138 136 129 177 208 152 127 73 137 225 215 211 226 117 81 79 82 84 83 80 74 66 63 57 52 59 56 74 79 89 99 96 105 101 96 93 106 91 87 101 87 97 123 114 116 98 111 95 98 91 96 96 104 85 97 88 81 93 82 86 87 73 76 72 64 39 51 44 44 38 37 25 46 48 42 54 71 136 161 52 103 122 133 137 143 134 122 140 153 166 157 113 85 125 83 86 108 137 132 99 80 151 228 213 212 214 117 84 84 77 84 86 82 70 72 57 54 46 59 59 69 69 81 78 99 80 72 79 76 73 55 74 66 85 105 104 98 96 92 84 85 61 87 71 78 74 90 83 86 84 81 80 66 73 67 58 57 25 42 33 32 27 35 31 50 42 47 76 76 177 164 76 89 77 60 89 91 93 100 124 204 203 210 209 182 186 192 131 97 139 129 112 117 72 176 221 214 214 213 122 102 70 83 79 90 79 75 81 64 45 45 52 51 52 78 43 73 61 52 53 60 79 46 59 55 80 90 71 53 77 64 62 67 51 60 53 74 68 69 78 85 82 62 61 67 54 48 35 44 28 36 30 25 32 31 45 46 52 76 84 98 198 159 51 55 64 93 76 76 83 78 117 129 103 119 152 164 177 210 161 117 147 124 125 125 115 97 189 218 211 214 214 108 97 77 70 81 87 84 76 83 65 42 44 40 42 60 38 59 48 46 42 45 57 49 49 46 57 78 64 42 64 50 55 48 44 50 49 53 60 57 64 64 53 59 53 51 44 34 30 35 31 30 29 31 39 37 57 62 69 87 88 143 201 143 19 56 101 101 141 94 58 73 83 116 207 196 167 101 88 119 94 101 158 116 145 112 122 110 125 157 196 208 216 206 97 100 84 71 74 83 84 78 75 63 48 34 45 43 47 43 51 39 44 38 50 34 53 41 52 55 56 39 45 46 42 55 38 47 35 41 50 50 45 50 36 54 38 35 40 32 30 33 33 32 27 32 36 74 81 72 93 81 100 186 198 101 51 92 102 93 138 140 116 77 91 102 230 209 192 202 190 106 64 91 159 141 92 205 146 119 100 106 108 137 187 209 215 83 100 98 70 62 81 85 78 79 51 52 43 34 40 45 44 25 35 30 40 26 51 32 39 47 34 45 38 43 40 46 38 32 24 31 41 36 40 36 39 46 25 28 34 31 28 38 25 39 31 49 116 73 72 78 94 69 170 186 187 58 81 98 91 98 112 135 152 165 67 