P2
92
112
255
55 56 56 52 58 52 57 52 56 54 54 57 49 60 51 58 58 56 58 50 38 33 36 32 30 26 36 25 31 24 36 33 29 29 31 30 21 36 25 41 22 34 23 31 21 28 27 26 28 29 29 32 25 29 29 35 28 27 33 31 31 33 37 48 51 58 54 58 53 54 55 53 49 54 54 52 56 52 53 49 54 49 52 54 50 52 54 54 49 55 54 50 56 51 60 53 57 54 56 53 54 56 50 59 58 54 56 58 55 55 51 37 28 39 28 34 32 26 33 27 29 32 31 36 23 33 24 31 30 25 35 29 30 29 31 28 29 27 27 32 31 24 27 28 30 32 25 38 32 28 28 31 34 29 31 37 49 57 56 57 57 57 55 53 55 50 54 53 53 55 49 54 50 58 49 53 53 53 50 51 53 55 47 55 57 54 57 50 59 53 60 53 55 57 56 54 59 52 59 58 56 44 44 34 33 31 32 32 29 34 26 26 29 32 31 31 27 32 28 34 29 30 32 33 39 30 44 29 37 37 33 41 28 26 29 28 30 32 32 26 33 30 30 27 29 31 35 38 36 39 58 53 58 55 56 52 55 51 56 53 53 55 52 52 54 55 53 49 54 54 47 54 52 51 54 52 50 56 55 57 58 56 56 53 53 55 58 60 52 56 55 58 50 33 36 31 30 33 29 30 34 28 27 31 28 25 38 37 34 31 31 29 40 30 39 44 36 38 44 39 50 41 40 43 36 33 42 23 40 28 31 27 32 28 29 29 27 26 36 29 38 30 43 50 55 63 54 59 52 55 54 57 54 52 53 54 57 51 55 51 54 52 52 56 49 55 51 53 55 58 51 58 51 57 58 55 56 55 58 56 55 53 55 51 39 34 34 34 31 35 25 30 31 26 32 26 29 29 43 41 36 43 37 43 46 39 52 52 50 48 54 53 56 58 53 52 56 45 52 38 39 38 27 24 31 30 35 23 26 35 31 32 30 33 34 35 48 57 57 54 53 56 52 54 55 51 50 56 54 52 55 50 58 56 47 57 53 50 54 48 56 59 51 58 56 55 58 53 57 54 57 60 54 52 47 39 35 34 32 31 35 39 33 24 32 31 31 33 40 38 51 41 45 56 55 56 53 60 58 52 69 49 65 60 66 64 64 61 65 61 54 57 51 56 40 38 37 31 38 22 29 31 30 35 26 30 29 31 42 41 58 53 56 56 54 59 51 54 54 54 57 54 53 52 57 54 51 54 52 54 52 51 50 58 55 57 55 60 53 58 56 57 56 59 52 42 32 32 34 37 27 28 28 32 36 32 34 34 33 50 49 56 63 60 60 67 66 65 65 65 65 66 65 65 70 72 72 72 69 73 69 67 66 67 67 59 61 52 45 49 40 36 31 31 31 28 27 32 23 37 31 31 50 50 57 56 57 56 51 56 51 57 57 55 54 52 53 59 50 52 53 56 48 59 49 59 54 58 59 58 56 57 60 57 57 54 41 33 29 36 37 31 29 34 30 27 42 38 45 53 49 65 66 67 69 77 74 77 76 74 73 68 73 78 73 78 74 78 78 79 80 79 71 74 73 72 71 59 70 57 58 64 53 54 39 37 31 32 28 28 30 31 32 26 41 40 49 61 56 53 58 57 57 53 54 55 55 51 56 55 54 54 54 52 56 58 56 55 59 55 61 57 56 58 58 58 55 47 39 32 37 28 39 31 27 37 36 38 44 59 56 77 76 75 77 76 78 87 79 83 80 84 75 78 78 79 82 82 79 82 79 90 84 77 78 76 76 74 77 72 72 68 71 67 64 61 58 46 40 39 32 27 30 32 25 34 27 34 38 55 56 55 55 57 56 57 53 53 58 54 56 52 58 52 56 53 54 57 59 53 59 56 59 58 57 59 56 58 47 39 34 36 33 27 35 32 32 39 42 53 63 72 71 86 88 86 83 91 83 92 81 85 84 88 90 84 79 81 94 89 83 85 84 91 86 81 86 82 77 81 81 80 73 73 71 69 72 68 66 60 52 50 42 31 23 38 24 26 29 25 35 42 51 57 54 58 56 58 50 56 55 55 57 53 54 55 54 52 58 56 61 55 56 59 58 63 54 61 54 51 33 39 29 40 29 25 42 39 47 52 58 68 79 79 83 90 90 90 89 92 91 93 89 92 92 89 94 98 85 96 93 99 97 96 89 90 86 86 89 82 84 82 82 80 82 77 69 73 72 67 69 65 58 61 51 43 32 34 20 31 27 21 34 31 44 51 56 57 59 50 57 56 55 57 54 52 52 53 56 49 55 55 61 55 60 62 55 62 57 59 51 42 34 25 40 40 30 37 50 53 65 62 75 85 84 88 87 92 93 93 93 96 96 91 101 102 100 101 98 101 100 105 105 96 104 102 95 99 89 91 90 88 89 90 83 87 84 81 76 77 73 69 71 70 63 65 56 53 51 34 29 26 31 26 32 28 33 39 52 56 56 54 54 60 50 56 54 51 54 54 59 50 56 57 63 56 59 59 56 60 61 58 35 41 30 30 37 32 35 52 64 68 69 81 85 90 87 96 88 94 92 101 95 102 99 99 107 104 104 109 111 110 111 106 114 104 109 101 105 99 103 90 95 98 91 91 91 90 89 84 84 77 82 76 74 72 66 70 67 55 60 47 35 29 29 32 25 31 32 32 42 52 54 61 54 58 55 53 55 53 55 54 57 55 53 53 59 56 60 59 58 63 47 47 33 38 30 30 39 39 50 69 68 79 80 88 87 95 89 102 93 97 100 108 97 105 99 106 106 108 113 106 119 113 113 126 118 113 116 109 107 108 104 97 96 101 99 95 89 95 89 97 83 81 85 73 77 74 73 68 69 61 65 55 47 38 30 27 26 30 34 31 37 43 52 58 56 54 59 54 55 55 55 53 55 52 59 45 53 60 58 58 59 63 43 35 37 33 31 28 46 52 62 94 79 81 85 94 91 94 99 101 99 105 101 101 105 104 106 108 115 115 118 117 119 120 122 124 127 115 123 109 112 114 109 116 107 101 108 102 97 96 94 93 94 89 86 81 77 78 80 75 66 69 66 60 56 45 42 26 29 25 35 33 31 35 43 48 59 50 64 51 58 52 58 49 54 58 49 54 58 62 62 57 61 53 39 34 36 31 30 38 64 68 72 96 91 86 88 94 96 94 104 97 105 102 97 108 109 104 111 114 116 123 122 130 119 122 131 125 130 128 121 114 116 118 117 114 113 104 109 107 105 103 102 92 98 92 89 88 81 82 82 76 78 69 68 69 62 54 50 35 28 30 34 29 25 30 38 35 56 61 58 52 61 52 57 55 53 55 54 54 60 60 61 55 60 43 39 32 31 31 26 58 72 76 78 85 90 91 93 98 95 102 106 106 102 104 106 103 112 112 122 110 124 129 129 133 131 134 133 130 139 121 126 121 120 119 121 118 116 109 111 106 108 99 111 99 92 96 85 90 86 85 84 82 80 73 75 73 62 62 59 41 39 33 31 27 26 37 25 32 48 55 60 55 57 57 54 58 59 50 58 58 59 59 59 54 45 34 38 29 38 26 45 67 72 81 85 84 94 93 98 94 98 104 108 112 108 107 111 111 114 118 123 125 135 132 131 141 139 139 129 136 128 138 123 132 124 121 116 116 116 115 111 105 121 94 103 110 94 94 91 90 91 81 88 84 87 81 74 79 66 70 64 45 42 36 33 28 28 34 29 34 34 54 56 53 58 54 53 55 54 56 55 52 59 54 63 55 32 41 35 33 30 28 66 72 74 86 83 87 95 98 94 98 102 106 111 112 110 115 111 119 118 125 127 130 134 137 134 145 142 143 136 128 140 138 129 135 126 131 116 121 118 117 111 118 110 109 97 108 95 94 97 94 92 89 88 84 91 91 77 76 68 73 69 51 44 39 33 32 24 32 28 33 32 44 55 55 54 57 53 54 54 54 55 55 58 58 59 42 33 39 33 37 33 47 72 78 77 89 85 91 93 98 99 102 110 106 114 107 115 109 119 120 126 127 136 123 140 134 137 141 145 139 149 136 141 135 134 134 130 126 121 120 122 111 114 112 112 107 102 106 97 101 93 95 89 93 90 91 91 89 87 79 76 73 73 64 48 48 32 34 31 37 28 28 29 30 48 58 49 58 54 55 54 53 58 55 60 62 48 32 32 32 32 37 37 67 79 81 83 84 93 92 102 101 101 108 107 110 117 110 117 111 119 121 124 130 132 131 142 139 141 143 140 142 150 141 142 141 138 134 131 118 126 118 121 118 114 106 112 112 107 104 99 100 95 95 93 92 92 87 91 91 87 83 81 76 74 64 63 50 41 32 34 32 34 28 28 34 44 55 57 51 56 54 59 47 56 56 61 55 43 28 35 30 31 36 54 70 84 86 87 93 89 98 106 107 106 103 108 110 120 112 112 113 121 123 126 128 136 138 141 137 135 143 134 141 142 140 140 136 146 133 132 123 123 119 124 116 118 108 113 115 99 105 99 103 96 99 91 94 95 89 89 91 89 84 82 82 73 70 64 54 46 39 35 28 33 25 29 32 36 54 54 56 54 56 55 60 57 55 67 43 41 36 35 30 35 40 63 78 80 90 85 95 94 102 106 107 105 105 112 110 112 112 117 122 113 122 127 125 136 134 142 143 142 140 147 133 144 139 141 141 142 138 131 124 121 125 131 112 121 111 112 108 99 104 98 105 93 98 95 89 94 95 95 88 91 90 85 83 80 70 66 60 44 49 29 26 32 23 35 30 38 42 57 58 54 57 55 56 52 56 64 37 37 31 31 41 35 44 66 78 85 94 88 95 105 105 107 99 105 109 116 118 114 112 123 117 119 125 122 136 138 136 146 150 144 145 147 134 142 137 136 135 137 128 131 122 126 118 121 112 118 111 107 102 103 105 96 106 92 91 94 94 93 89 95 91 92 94 82 92 80 81 70 58 52 57 29 29 31 39 27 29 31 40 52 59 57 59 55 54 54 56 57 40 32 29 41 36 38 48 65 79 89 93 92 101 107 109 106 104 105 112 114 117 112 113 121 115 121 128 124 133 137 135 139 148 146 138 143 142 144 134 131 137 136 123 123 123 125 120 122 115 111 114 115 108 108 103 105 102 98 92 99 94 98 94 89 97 90 95 86 88 86 83 80 70 57 57 34 30 33 33 33 29 21 42 49 56 55 56 54 54 55 61 51 33 34 34 39 32 45 54 65 78 94 89 102 105 101 115 104 104 112 111 115 115 116 115 121 118 115 126 121 131 131 133 128 135 134 133 131 135 133 133 135 132 134 129 124 129 128 128 125 120 115 114 113 110 112 107 106 108 101 103 98 98 96 91 95 95 85 98 85 93 87 82 83 73 67 54 48 24 35 36 27 36 26 38 48 53 58 58 54 55 57 56 52 29 37 38 34 33 53 63 75 85 94 97 103 109 109 112 111 108 107 112 112 110 118 114 119 116 113 116 123 129 127 125 127 129 132 129 133 131 134 132 134 133 138 128 129 128 131 133 130 130 125 114 117 116 117 113 115 109 110 107 103 105 95 96 95 93 94 92 89 90 94 87 86 79 76 59 56 34 31 36 20 35 29 35 41 55 53 58 54 56 58 54 42 34 34 33 33 34 59 72 83 88 97 102 106 108 114 110 112 116 109 115 112 109 119 120 116 122 125 125 124 128 132 127 127 132 133 130 125 132 132 134 136 133 132 131 129 134 131 133 133 133 137 120 125 125 127 115 123 114 117 117 108 109 101 101 95 91 95 94 92 89 94 88 88 84 74 68 52 38 34 29 31 30 28 29 39 56 53 57 54 57 60 54 37 46 32 37 37 38 63 78 83 98 96 105 109 112 115 103 113 112 110 113 115 114 116 123 119 127 128 128 135 130 140 129 135 131 139 140 134 133 133 140 139 137 134 135 134 141 136 139 142 145 142 134 144 129 141 131 132 124 120 121 114 110 97 97 94 91 85 96 91 94 88 90 90 83 83 70 56 52 34 30 28 23 31 31 37 55 57 54 56 55 52 59 34 39 32 39 39 41 60 78 88 95 103 106 110 113 111 112 109 111 112 117 117 120 121 122 124 133 134 136 138 141 141 149 150 146 141 142 135 137 140 146 149 144 143 142 148 143 140 148 151 153 153 146 165 141 144 139 136 126 117 114 110 104 101 100 83 81 78 71 89 93 88 90 91 76 85 71 64 58 47 29 27 23 35 26 37 53 57 52 57 54 55 57 41 35 38 33 36 54 68 85 89 99 104 112 114 108 110 111 114 119 118 117 121 123 127 126 131 133 140 145 143 150 155 160 172 170 152 146 148 144 154 155 154 153 153 156 160 159 165 162 156 159 151 155 155 144 132 125 125 114 109 105 96 87 95 83 82 76 79 71 61 80 87 86 89 81 81 74 74 63 50 31 26 31 29 26 33 50 57 51 62 56 53 59 37 38 32 34 32 58 66 93 92 106 112 111 110 111 110 113 120 120 119 123 121 128 138 128 137 131 143 151 154 163 167 168 171 178 168 154 147 155 162 165 164 164 170 167 172 173 177 169 150 146 148 144 142 113 120 113 102 85 83 86 79 70 80 76 73 82 74 73 62 62 67 86 88 81 80 79 73 67 58 30 26 28 29 26 31 47 58 53 59 54 56 54 32 38 36 37 27 56 74 89 92 108 115 107 112 115 110 116 117 120 118 122 126 128 131 135 132 135 144 147 159 164 175 168 158 170 158 161 145 164 163 168 151 161 171 169 176 171 170 151 141 130 128 134 130 99 108 84 78 69 59 74 65 63 65 64 73 73 83 78 60 66 56 69 81 79 78 78 73 72 64 31 25 30 25 31 25 42 52 54 56 51 57 56 29 40 32 33 39 48 78 88 100 103 108 104 113 111 116 112 115 113 114 116 116 122 122 123 127 134 127 137 144 141 150 150 140 152 144 153 145 157 150 154 146 147 162 149 163 152 155 135 122 115 121 120 100 95 79 64 57 56 63 63 55 68 58 73 69 63 66 67 70 63 66 58 63 76 78 76 76 68 67 37 29 31 20 31 25 32 49 56 52 54 56 54 33 45 24 30 41 46 76 97 103 108 105 117 108 118 108 103 110 109 102 108 105 107 112 120 116 120 109 118 114 118 121 121 119 121 127 132 145 141 146 136 140 140 153 143 148 130 139 118 103 100 105 97 82 75 68 61 61 58 61 60 66 67 65 80 87 80 70 76 78 81 74 72 61 63 75 80 72 77 61 50 28 24 32 22 26 25 39 56 48 57 51 59 32 40 32 28 37 57 82 99 98 106 109 118 112 117 92 98 102 96 94 96 96 96 93 93 91 78 84 83 88 92 91 97 86 96 103 117 130 127 131 128 125 129 137 136 133 124 126 106 101 83 96 77 80 71 70 65 65 56 59 61 76 74 78 93 99 101 90 102 92 90 79 88 75 65 64 80 75 72 66 56 24 31 29 25 23 27 38 47 53 57 52 58 32 35 41 26 35 67 89 95 95 103 112 113 114 97 90 87 91 101 91 81 89 88 75 68 62 61 66 64 64 73 76 74 70 79 86 95 110 118 115 121 118 122 125 124 125 117 116 102 94 77 83 78 71 71 62 64 60 63 70 84 90 92 96 101 100 105 102 100 98 93 96 100 95 77 64 71 79 70 74 53 31 32 27 29 21 28 32 42 54 52 55 47 32 27 37 26 36 69 89 95 100 100 112 110 100 86 79 92 92 88 84 84 83 84 73 72 62 66 56 75 63 61 71 65 63 69 77 84 95 103 113 112 115 118 116 120 118 118 105 94 86 79 70 77 63 60 62 64 69 85 93 107 108 104 106 107 109 104 104 109 104 105 103 105 98 92 73 67 75 74 74 61 36 28 27 28 24 24 27 41 50 50 56 49 30 34 33 26 44 68 88 101 93 103 112 91 87 86 87 94 96 94 96 92 94 78 84 80 69 67 63 69 67 69 70 63 69 72 72 81 94 94 104 111 105 116 113 115 109 109 99 91 82 77 67 67 63 65 70 80 91 111 114 119 119 114 105 110 107 104 107 109 114 109 111 107 105 96 83 72 74 79 74 66 36 30 29 24 26 26 26 43 47 50 53 49 37 36 32 31 44 74 88 98 92 111 102 84 98 104 108 116 100 103 99 107 106 102 96 91 82 73 75 68 65 73 67 69 72 76 87 85 90 91 105 106 109 115 108 113 106 103 97 92 84 72 75 63 65 75 85 97 105 115 115 115 110 103 93 92 96 91 102 109 112 112 115 108 107 94 93 77 75 75 78 69 42 26 27 30 22 28 28 41 46 47 48 52 31 38 40 22 36 79 88 91 101 111 92 70 97 115 113 124 119 107 104 108 111 116 113 115 107 110 108 97 97 79 84 80 75 77 79 90 92 98 106 109 115 113 116 118 109 105 102 92 89 87 68 65 81 93 88 92 97 88 89 96 99 95 93 79 85 70 82 81 99 110 107 108 112 99 95 81 76 75 76 74 54 17 33 24 25 22 30 38 44 45 51 49 40 33 33 23 37 72 87 90 102 101 81 86 112 120 124 118 125 116 118 112 119 122 117 126 122 121 119 121 114 104 96 94 77 79 79 84 104 104 114 120 117 121 127 134 117 112 109 100 87 89 61 70 91 92 84 77 66 84 111 113 128 120 102 100 98 92 97 88 74 78 97 105 104 99 86 86 83 77 80 74 51 30 30 25 26 23 30 42 45 42 49 46 43 30 31 37 28 72 90 95 107 86 80 114 113 116 128 130 123 127 128 124 122 118 117 123 126 121 121 116 103 101 99 103 90 97 74 82 109 114 124 127 126 135 142 141 126 114 110 110 99 81 62 86 95 87 65 69 85 107 111 118 130 106 95 93 98 88 103 97 101 89 65 88 97 88 80 82 92 82 76 79 59 24 28 24 22 31 46 56 48 43 50 45 32 31 34 32 41 65 88 100 99 84 88 115 118 112 132 127 127 129 130 128 114 99 86 94 88 92 88 78 59 65 76 91 96 101 85 87 110 124 131 135 131 137 143 145 133 113 114 110 102 78 69 99 102 68 71 77 91 84 73 66 56 78 33 45 47 54 79 82 94 102 87 76 83 85 82 86 92 83 78 82 62 22 27 21 29 45 69 56 61 45 45 43 39 39 34 33 28 68 90 101 98 96 95 107 121 118 129 131 135 130 132 103 85 79 95 106 120 125 110 96 86 66 55 57 72 91 91 86 100 122 128 133 135 130 145 140 128 113 118 108 100 61 82 119 83 80 80 74 51 52 43 15 67 87 8 25 23 35 33 42 54 81 86 80 82 90 80 87 90 94 83 75 64 28 28 19 44 52 34 48 64 53 45 45 37 33 31 33 32 62 92 105 97 110 99 110 112 125 122 129 129 107 94 92 106 108 117 125 112 105 94 89 78 80 78 63 63 58 81 88 100 108 127 133 143 119 141 133 127 111 114 104 91 58 94 114 87 78 56 29 42 100 111 19 46 30 21 24 13 82 59 19 30 34 47 64 74 80 70 96 96 94 92 81 62 36 24 22 57 32 16 28 56 68 35 47 35 33 38 46 25 72 90 101 102 105 103 101 113 118 125 117 81 87 115 117 122 100 79 59 49 45 35 37 44 47 54 66 78 92 66 88 97 104 121 130 133 124 128 132 122 113 110 111 87 78 84 108 97 32 57 95 117 132 153 49 41 32 36 31 35 119 110 37 21 24 44 45 50 72 79 100 98 98 95 80 68 40 25 34 71 38 14 21 53 71 37 48 40 37 35 43 19 73 88 105 106 109 105 105 112 113 116 77 76 123 125 121 90 47 29 29 52 43 24 9 93 54 25 28 40 72 112 116 94 108 123 126 124 129 124 131 121 117 111 104 101 88 80 101 101 78 104 104 93 101 108 94 104 100 50 51 74 91 78 69 63 70 60 68 72 91 93 93 98 97 97 82 74 48 27 64 116 58 9 22 43 81 43 41 36 37 38 30 33 65 92 100 110 117 113 104 112 113 92 76 111 126 102 52 34 56 54 19 32 23 35 19 131 107 100 182 41 36 100 118 100 114 122 117 127 131 124 132 126 118 111 111 102 94 88 82 110 106 105 98 101 107 101 112 105 115 82 73 69 79 79 101 98 98 91 80 87 97 98 98 100 99 100 92 73 54 40 72 110 89 15 16 37 84 48 36 52 40 44 29 27 68 89 95 115 117 113 104 108 105 88 106 104 82 35 21 73 103 34 29 34 32 36 40 115 73 89 170 81 96 108 104 107 118 121 118 125 134 127 134 129 121 116 112 109 98 95 77 95 98 105 94 92 100 87 99 84 87 78 79 81 88 89 100 102 99 83 75 81 94 103 98 100 100 102 88 77 60 48 70 98 105 28 18 37 96 42 39 68 52 40 35 23 71 92 95 120 120 117 104 98 103 92 81 54 33 23 28 124 132 93 29 50 67 106 92 124 108 100 100 96 115 106 106 110 123 114 124 126 130 133 128 128 123 118 116 112 103 101 95 94 100 98 105 103 85 79 78 73 80 79 79 85 81 87 82 78 72 74 79 99 97 103 104 98 99 106 89 86 61 70 79 96 101 62 13 45 96 47 39 72 69 50 32 29 69 89 100 117 122 126 111 89 94 76 78 49 55 62 65 85 91 93 81 93 125 124 111 101 91 91 100 108 104 108 113 119 120 121 123 129 126 132 131 129 130 120 119 111 108 108 100 97 96 107 107 108 102 90 78 63 52 47 48 50 52 54 60 76 83 98 105 109 107 106 108 104 97 104 96 88 66 84 102 89 98 88 23 45 101 39 42 76 60 51 53 29 71 91 100 114 122 129 120 93 105 101 94 95 98 107 123 108 94 93 86 93 86 87 79 87 91 92 113 111 107 113 119 123 117 121 122 134 124 135 139 131 132 131 118 113 108 107 111 102 98 103 114 116 111 105 102 94 82 73 79 69 72 76 80 99 107 111 114 113 113 106 108 107 103 105 94 94 74 73 73 77 85 95 45 38 104 38 41 81 61 20 56 36 71 93 97 115 123 122 123 103 118 120 102 108 117 116 128 115 98 98 91 96 78 81 72 87 93 105 120 117 117 119 124 125 121 123 123 136 129 133 141 134 130 127 122 115 107 107 109 110 102 100 109 113 112 116 108 107 104 103 110 100 104 109 110 112 114 114 115 113 114 111 110 107 106 106 98 90 89 64 42 61 69 89 67 43 98 34 44 92 61 20 39 44 72 96 95 116 120 123 117 115 123 115 104 101 107 103 107 101 94 90 77 74 69 77 88 98 120 114 123 128 122 127 123 126 123 120 122 138 133 133 138 135 131 123 121 116 112 105 107 113 110 104 110 110 114 112 111 107 107 110 108 109 106 108 109 112 114 120 117 117 119 115 110 110 108 107 98 97 92 74 36 46 54 74 84 47 93 36 44 101 67 13 42 73 70 95 97 110 118 117 118 125 120 120 114 112 107 99 91 95 84 80 76 90 90 99 103 115 126 120 126 127 126 128 121 126 127 120 126 132 133 133 133 135 131 124 123 117 113 110 99 103 107 113 112 114 111 117 114 113 114 105 103 108 106 102 110 117 112 117 116 119 116 110 111 116 109 107 107 95 89 78 49 30 41 64 84 59 89 37 35 105 65 8 57 123 70 93 101 108 117 114 120 119 125 125 121 125 125 115 113 110 103 108 104 109 106 113 120 124 125 123 124 129 125 126 123 126 128 123 124 130 128 141 133 140 138 137 125 124 115 111 100 100 101 110 113 104 107 120 118 116 117 112 112 111 108 103 111 107 111 112 116 120 115 114 115 116 111 110 106 101 92 81 61 20 33 54 78 66 81 36 36 109 56 7 80 137 82 89 104 109 117 115 118 124 125 122 131 127 130 127 128 126 122 121 120 116 116 119 123 125 122 123 125 127 129 124 127 126 124 121 125 131 127 135 141 144 144 143 130 132 121 114 108 101 98 104 105 103 93 106 125 120 122 119 114 118 111 110 105 110 115 111 113 117 114 113 116 117 113 112 102 99 92 81 74 17 30 38 76 74 80 35 39 110 56 17 102 132 82 85 103 108 113 113 121 123 129 130 134 128 130 128 123 124 126 115 121 119 117 120 122 124 124 123 127 123 132 125 132 124 121 120 128 136 132 136 153 163 169 164 130 135 126 116 113 106 99 105 106 113 102 86 113 120 126 123 120 123 115 120 110 118 116 115 116 119 118 115 113 117 111 113 102 103 88 88 71 32 22 35 78 75 81 29 43 91 57 28 117 124 81 88 106 104 110 116 121 126 129 132 135 132 133 128 123 124 121 117 118 125 114 120 123 126 122 126 136 130 133 135 128 118 118 119 127 138 143 146 165 184 204 207 141 140 129 130 122 117 101 107 117 117 115 106 91 108 113 125 119 129 121 125 125 121 115 119 122 120 117 117 111 118 111 112 102 102 88 82 78 45 17 32 81 84 75 37 33 68 86 42 122 114 81 88 103 106 119 118 121 129 130 132 135 132 131 125 126 123 117 113 122 118 121 127 126 127 130 133 137 125 135 130 120 113 118 124 130 149 148 149 196 192 208 199 159 135 128 133 136 128 117 114 125 126 124 119 94 102 110 122 127 131 129 120 126 122 116 125 117 122 121 122 115 116 113 109 105 97 88 80 77 56 19 35 91 73 71 46 35 57 98 65 119 102 81 90 104 108 116 122 123 130 136 140 132 129 131 126 125 123 122 117 126 123 127 121 134 132 132 137 138 123 121 122 116 115 117 130 141 162 150 163 172 174 172 153 147 132 127 139 137 131 132 129 131 135 139 137 96 106 115 116 124 135 137 119 130 120 121 122 121 121 126 121 125 120 111 113 101 93 87 80 76 66 22 58 91 47 83 46 36 38 115 88 117 85 83 89 105 109 116 125 122 136 131 135 136 132 128 126 127 126 128 122 125 132 130 133 130 139 139 139 129 116 122 126 126 126 128 147 164 175 148 148 147 144 149 132 127 126 121 130 109 113 125 122 129 131 131 122 92 116 119 123 122 131 121 127 126 119 122 113 120 122 124 121 123 119 116 109 99 88 87 81 78 58 48 71 59 37 94 48 32 23 114 97 103 76 78 90 102 108 121 122 132 132 134 134 129 134 124 129 130 129 130 134 124 136 132 138 142 134 142 135 115 121 131 130 147 136 145 154 158 171 140 129 138 133 123 118 113 118 110 104 97 93 91 99 91 96 87 92 76 114 129 126 124 134 127 125 131 123 120 112 119 116 119 126 120 122 115 108 96 93 85 83 73 62 62 57 36 60 92 47 33 23 99 113 80 55 83 87 100 109 122 128 133 133 134 130 132 134 129 133 125 133 126 130 130 137 141 140 138 135 135 128 110 129 166 161 156 145 148 135 123 141 134 125 123 116 112 104 108 107 96 85 79 57 48 45 50 47 54 69 57 78 130 129 127 129 131 116 124 110 117 109 114 115 123 119 116 115 106 103 91 90 84 83 70 69 57 55 57 76 85 49 32 35 90 116 78 31 88 87 97 110 122 123 128 135 128 133 135 137 136 135 130 136 128 131 138 123 138 133 138 135 121 116 114 133 168 149 131 132 120 115 106 114 118 119 112 105 92 87 92 90 89 77 20 21 21 16 23 22 33 57 49 43 130 130 125 131 131 123 109 105 105 107 107 110 118 115 111 98 104 87 85 83 82 84 74 65 54 63 71 73 94 62 27 41 82 120 88 24 83 89 96 111 120 128 130 127 132 130 139 139 141 137 133 135 135 130 133 130 142 132 139 140 117 119 118 117 125 112 100 87 80 78 82 89 100 109 91 90 75 72 78 73 81 38 18 29 21 33 39 28 39 47 52 55 123 133 122 120 126 115 104 105 101 104 103 107 111 108 102 91 90 84 77 76 85 73 75 65 56 55 62 75 93 88 16 55 72 120 111 41 82 89 96 105 115 131 131 125 129 143 136 142 148 137 139 138 134 135 127 134 138 133 137 131 120 125 133 98 107 82 54 25 24 21 17 26 36 75 91 71 62 56 55 71 71 41 26 48 53 68 63 48 52 56 59 77 125 131 129 118 117 114 101 101 95 97 101 96 104 97 93 90 81 75 72 77 77 77 71 69 56 57 62 76 99 78 26 56 91 71 123 77 84 85 94 107 109 125 127 128 131 135 142 142 143 136 139 134 133 133 128 138 133 136 143 135 119 139 143 69 92 66 37 33 23 20 31 26 24 30 47 73 49 45 46 66 39 14 33 58 57 72 61 64 65 75 79 101 123 132 129 118 112 104 92 94 91 92 101 93 101 93 86 80 74 62 62 73 80 75 68 73 60 67 81 78 91 58 24 71 99 56 101 91 79 87 93 101 117 122 123 127 133 138 138 141 140 134 134 132 127 130 124 130 134 144 132 134 136 142 142 77 68 76 56 37 33 68 68 63 68 51 41 35 51 40 38 38 20 29 56 92 97 96 94 86 93 88 98 118 127 129 129 121 114 110 101 84 85 86 96 93 92 86 81 72 63 63 63 67 74 78 65 65 63 61 76 82 68 37 38 69 96 90 102 81 80 91 93 95 107 113 121 126 132 138 140 132 140 133 127 131 125 125 126 126 133 132 134 135 146 137 150 102 74 86 84 74 83 93 84 81 75 72 53 50 50 42 23 40 60 87 116 111 115 104 104 100 102 103 112 118 124 126 123 118 119 104 99 91 84 87 89 84 93 78 78 72 60 58 58 73 78 76 69 68 69 47 59 71 42 34 38 82 108 101 101 77 82 88 91 96 108 110 115 122 130 134 133 141 134 133 129 131 120 122 124 122 128 135 131 135 146 145 142 135 103 103 105 97 107 110 106 108 101 93 94 85 86 58 50 49 102 136 122 118 114 110 106 103 96 94 105 116 115 115 113 108 109 107 99 97 95 82 89 87 82 78 78 70 53 57 65 70 74 75 71 67 70 43 42 43 29 38 27 109 100 105 99 79 80 83 92 96 106 107 106 116 116 119 125 127 129 130 126 131 123 120 122 123 127 131 137 135 146 143 146 140 133 134 130 128 119 119 117 113 120 128 127 135 109 105 103 100 105 118 125 106 117 110 103 111 99 100 93 105 100 105 96 107 100 93 108 100 99 87 88 84 80 76 73 67 61 60 68 77 68 66 76 64 68 49 38 31 37 36 30 112 109 99 101 100 79 99 83 99 102 108 105 111 103 115 119 122 122 125 128 125 118 118 123 112 126 125 130 131 137 139 134 134 137 140 137 127 117 117 116 124 125 129 125 129 115 110 106 103 106 110 121 109 111 111 109 113 103 103 104 100 110 104 107 106 102 91 101 97 98 99 86 87 84 76 75 67 61 65 70 74 79 67 65 64 70 57 25 38 30 39 29 114 113 106 117 118 79 93 86 97 102 105 100 105 96 102 109 112 111 121 119 121 121 120 124 118 117 127 123 133 127 130 132 129 138 135 121 123 110 123 122 129 127 127 128 133 136 135 125 138 120 120 127 117 110 116 111 111 109 112 106 113 106 104 110 110 112 78 87 99 97 97 86 80 93 81 78 73 59 69 76 69 80 67 66 66 68 61 24 37 31 35 37 68 110 112 112 96 79 97 89 88 104 104 102 99 100 96 99 104 110 110 111 121 117 122 118 119 113 117 126 122 121 119 125 131 123 124 117 128 117 119 125 127 125 125 136 131 137 141 134 145 126 102 106 104 103 95 101 98 104 103 110 116 119 107 107 113 104 89 94 85 95 89 78 83 80 83 80 64 68 73 80 76 75 73 60 64 65 53 30 30 31 35 39 42 62 96 91 56 82 94 91 91 96 105 99 99 96 97 94 98 104 103 115 110 117 122 119 116 113 119 113 108 111 124 117 130 114 124 122 124 124 127 122 129 116 113 118 121 117 123 123 125 124 101 99 98 107 98 101 96 98 90 89 93 113 110 110 109 97 98 88 90 89 89 81 83 75 73 80 70 72 73 81 82 73 74 66 63 63 48 32 31 38 32 37 51 41 54 59 35 82 93 95 91 99 101 102 103 99 94 95 94 99 106 98 107 112 118 120 116 119 104 88 106 111 119 125 123 114 121 125 128 137 121 118 110 106 108 116 119 118 118 120 124 116 98 88 100 97 94 93 86 103 95 91 82 83 86 81 98 90 86 100 78 83 87 77 72 84 81 82 73 63 77 84 78 74 71 60 61 60 48 31 32 31 32 36 53 44 47 47 38 75 95 96 94 93 99 104 95 103 96 100 91 93 105 97 103 101 117 123 123 113 79 89 109 118 122 129 129 121 123 138 135 124 111 109 105 111 110 122 111 107 114 112 117 100 83 87 89 79 68 77 74 87 85 86 75 72 67 63 55 60 53 103 89 82 81 73 81 86 79 84 71 67 85 83 74 80 68 62 60 61 42 30 34 32 34 37 51 48 46 48 35 73 93 101 95 95 103 98 99 99 96 98 98 92 91 101 95 102 114 127 115 104 68 111 117 123 128 132 127 130 134 135 113 104 111 107 108 109 110 107 98 98 103 101 110 87 74 73 81 75 49 48 53 53 54 68 64 73 55 52 42 37 30 93 88 74 77 77 78 88 80 83 69 74 79 76 74 75 70 59 57 62 40 31 32 32 33 34 45 53 41 54 37 67 95 98 102 101 96 96 104 95 103 98 101 98 92 97 99 108 113 126 113 97 107 116 111 121 133 129 132 131 121 107 99 98 115 95 103 97 86 81 71 76 83 78 84 72 64 45 48 53 32 33 39 30 36 31 36 52 43 43 29 13 44 83 69 61 68 79 79 81 83 73 69 75 75 74 74 74 64 51 61 55 41 28 35 31 37 34 53 45 50 47 39 58 94 93 98 104 97 88 100 97 95 102 101 96 104 94 96 106 120 124 105 103 108 108 102 127 130 122 115 99 91 98 102 103 87 96 70 62 55 40 36 42 55 62 53 52 46 37 28 39 28 30 26 31 24 45 52 59 78 82 53 39 105 73 69 50 69 76 76 74 77 81 59 77 71 73 73 64 59 53 54 56 33 34 30 34 34 34 50 44 52 46 40 48 93 91 96 99 103 93 96 96 98 97 96 97 102 98 104 104 118 109 101 101 106 81 108 116 108 98 75 76 83 101 92 101 56 64 60 41 36 35 34 41 42 49 43 45 43 48 46 46 24 40 44 66 78 111 113 103 114 94 63 103 110 81 66 70 66 59 73 73 72 69 66 70 70 69 64 63 54 57 53 54 28 34 29 33 31 32 54 44 45 54 44 43 91 92 99 104 102 102 94 98 99 92 97 90 103 102 109 111 110 106 98 86 84 63 105 91 72 52 50 77 94 83 65 48 40 34 38 27 33 42 46 60 62 54 47 63 65 70 67 77 74 88 99 99 133 98 104 101 71 63 86 115 104 83 81 76 72 61 70 82 70 66 62 72 62 70 59 60 54 56 59 41 35 32 34 30 35 27 47 45 50 49 46 35 81 87 96 98 100 104 99 92 98 97 91 96 98 107 111 109 107 101 94 69 71 43 96 62 23 49 83 104 99 84 84 80 48 66 50 53 47 75 82 80 95 69 45 106 87 109 107 114 108 105 82 125 104 97 97 98 64 102 104 110 90 95 96 82 72 74 59 76 65 65 63 72 65 72 59 61 52 53 59 37 33 32 34 37 31 32 48 46 48 50 49 33 69 93 89 97 103 98 108 84 103 94 95 95 102 101 109 107 112 94 91 68 51 51 91 67 50 78 139 149 119 125 125 125 124 127 99 110 115 110 112 109 115 94 57 123 127 130 147 116 95 113 100 115 96 113 86 93 95 107 110 90 93 90 99 93 82 72 64 67 61 56 70 62 63 65 60 53 50 52 53 37 30 33 30 37 27 36 41 51 50 43 48 41 47 91 91 93 97 103 105 95 105 95 91 94 88 108 105 115 104 102 82 72 42 57 92 96 120 92 80 89 81 117 127 106 120 114 125 124 147 125 150 137 132 121 119 151 157 207 154 120 75 106 97 126 90 100 89 102 104 108 95 87 90 97 88 93 81 68 67 70 66 56 57 61 59 63 50 56 49 55 46 34 33 33 33 26 33 33 43 50 49 47 45 48 38 87 85 94 95 99 100 101 97 94 93 90 87 105 102 110 101 102 82 81 45 67 106 95 122 136 97 101 100 110 96 132 139 92 163 124 140 162 173 203 199 144 132 159 128 155 109 87 93 97 88 106 92 92 94 105 114 99 89 90 95 97 92 91 83 68 64 65 59 59 52 60 63 64 46 55 54 54 41 29 35 32 32 29 36 29 48 47 47 49 46 45 42 73 83 92 97 95 101 98 98 93 96 93 92 91 100 104 104 96 85 78 59 80 113 112 102 125 128 117 124 108 102 100 119 110 123 132 91 115 128 123 130 109 111 109 103 102 97 71 85 116 92 103 84 94 103 106 103 85 92 92 94 96 95 88 74 68 68 61 61 55 57 61 60 51 55 48 55 57 33 28 32 29 35 34 30 33 45 50 42 48 50 40 42 54 82 88 93 96 97 95 100 91 90 96 93 94 91 93 95 97 85 81 62 91 121 118 115 110 104 125 125 119 117 110 112 104 104 121 88 100 89 104 102 95 92 80 82 77 102 78 79 93 90 87 94 96 106 97 90 87 92 90 92 94 90 87 72 70 73 62 54 54 53 58 57 51 53 47 61 46 31 28 35 33 31 34 31 34 40 46 41 51 43 45 44 41 83 85 90 93 92 102 94 91 94 89 92 86 94 95 87 96 87 64 86 82 116 119 119 112 109 107 115 118 120 116 110 101 104 110 111 97 105 111 103 90 82 85 81 80 95 84 93 79 82 83 89 91 83 90 90 94 77 92 91 91 85 77 77 74 66 56 59 55 56 57 48 57 54 58 56 37 28 35 35 31 34 28 30 36 45 45 44 48 48 45 43 42 64 85 92 84 97 91 97 89 93 90 85 91 89 93 86 93 88 64 66 90 113 116 112 120 105 112 112 114 121 113 115 108 107 101 102 104 97 103 100 91 92 91 92 95 89 89 86 80 85 79 79 75 75 95 92 74 82 86 89 78 79 76 83 74 56 62 53 51 56 48 53 53 49 63 53 26 33 34 31 34 33 30 31 31 51 47 43 48 47 45 41 50 47 81 86 88 92 93 97 87 92 90 83 89 85 84 81 90 83 75 75 78 104 119 116 114 118 106 110 112 116 101 102 108 106 99 104 100 103 97 95 90 90 87 93 80 84 84 80 75 79 67 66 75 84 82 79 84 85 87 76 76 76 81 83 68 54 56 42 49 53 56 47 52 52 66 31 29 36 27 31 35 34 30 32 34 49 46 48 41 45 44 48 46 44 72 81 88 92 95 89 90 92 81 90 90 80 85 79 84 79 81 83 82 94 113 113 118 116 108 103 100 105 110 105 102 101 98 98 99 94 91 87 86 79 85 79 79 72 73 67 67 61 66 70 74 79 67 74 78 78 79 78 69 81 81 80 55 56 49 48 52 55 55 42 57 56 54 32 30 36 30 28 35 33 33 27 28 52 43 46 45 45 47 45 46 44 56 79 87 90 89 93 86 88 87 88 80 79 84 75 83 74 84 76 93 85 103 109 106 113 114 108 107 96 102 101 106 90 102 91 90 87 78 74 76 73 64 70 66 62 56 59 49 56 59 65 67 66 74 73 74 74 71 76 68 85 71 73 47 56 53 49 50 46 47 50 58 65 35 28 35 30 36 33 28 33 35 23 34 47 44 47 44 47 43 48 49 43 42 80 82 88 86 91 86 84 90 88 79 76 81 78 78 67 86 84 80 86 85 107 98 104 104 109 113 93 98 99 100 92 84 80 73 72 56 59 55 51 60 48 43 45 44 35 44 51 51 54 58 59 67 71 71 74 69 63 79 76 80 62 61 58 48 42 49 41 52 53 61 57 29 33 35 33 32 32 30 31 31 31 29 42 48 43 47 44 48 44 49 48 39 55 85 89 91 85 91 88 86 83 83 75 79 78 73 74 85 77 77 82 81 99 100 94 107 101 108 102 100 98 86 86 74 71 64 54 46 49 46 43 45 40 35 43 43 37 46 52 48 57 55 61 64 69 63 75 65 65 84 71 77 70 61 57 47 46 41 47 46 56 68 39 30 39 30 31 36 34 28 32 32 32 34 47 45 47 49 40 50 43 48 45 45 37 82 86 93 85 87 88 83 87 77 79 79 71 75 73 81 80 80 75 91 88 92 95 97 99 102 97 96 95 94 70 68 63 58 46 51 49 45 49 45 39 35 42 46 41 46 44 47 48 55 59 64 61 63 69 65 75 80 87 70 67 65 50 41 45 50 47 48 65 57 26 33 36 30 35 31 32 31 31 32 29 35 53 41 48 44 36 48 44 50 45 49 39 54 86 89 88 89 85 90 80 79 78 79 74 71 71 82 78 75 78 85 77 88 87 97 95 99 98 88 88 91 70 76 59 48 45 50 49 49 43 47 35 37 45 45 47 41 49 46 54 50 54 57 58 68 67 77 79 77 85 80 61 70 45 37 45 51 41 57 66 43 31 35 30 35 35 33 32 35 25 31 34 27 48 39 48 48 39 43 47 48 46 53 44 23 94 85 87 91 84 87 86 81 79 78 75 74 72 82 82 67 87 62 71 76 90 92 98 92 97 88 79 86 72 70 60 47 48 45 53 40 42 38 39 38 32 47 41 41 49 51 54 58 54 64 67 66 68 84 72 74 79 80 74 60 42 32 41 51 47 63 61 27 37 34 32 34 34 29 32 32 32 30 30 31 42 47 47 47 41 47 45 48 47 49 47 14 179 71 81 90 89 87 88 85 79 82 73 75 75 75 82 69 86 47 79 76 87 95 98 89 86 87 75 83 72 73 61 56 50 46 52 39 42 35 33 36 42 36 41 48 51 59 63 62 66 72 69 70 72 87 88 70 83 78 60 53 35 33 44 47 57 58 67 31 33 38 30 34 32 32 28 35 28 28 30 31 43 49 45 42 45 44 45 46 52 47 45 23 224 158 60 80 93 84 86 86 79 83 74 71 74 65 75 73 89 41 89 63 85 93 99 94 91 72 79 81 70 61 65 59 56 51 51 46 48 41 42 44 53 49 53 61 67 64 66 68 74 74 79 69 78 84 83 70 70 71 53 34 34 41 31 50 63 53 64 58 33 33 31 34 31 35 30 32 25 34 28 29 43 46 48 44 46 41 46 44 46 48 33 69 232 225 90 71 90 88 84 82 84 82 80 75 59 59 75 71 76 46 84 58 90 94 93 98 94 83 77 74 72 71 65 57 65 65 66 60 62 64 60 70 59 62 70 73 80 78 82 76 85 84 92 83 70 86 74 75 56 56 46 29 40 38 34 61 60 45 50 87 24 36 30 36 32 33 31 28 29 30 30 27 44 40 49 42 45 42 42 51 41 52 15 100 239 211 196 57 75 87 86 83 83 84 75 76 57 68 71 69 65 52 70 56 84 88 97 109 87 91 83 77 82 79 71 70 72 76 73 74 77 75 79 84 76 88 83 93 95 99 91 89 83 91 88 84 69 84 53 76 44 48 34 34 42 36 42 66 60 36 54 101 47 50 40 26 32 31 29 32 26 31 26 32 46 46 46 43 51 40 44 44 46 53 19 115 230 210 227 121 70 82 88 83 85 88 74 79 76 70 76 61 54 54 50 53 75 79 87 104 94 101 86 80 81 76 81 78 88 96 87 87 89 82 93 97 95 107 92 99 95 98 95 91 84 95 76 81 73 62 51 65 58 34 33 40 28 38 61 62 53 28 79 97 84 113 103 77 66 68 63 54 47 55 63 85 49 41 44 41 45 44 42 47 44 52 17 120 208 216 209 218 83 75 87 87 84 84 82 79 83 69 70 66 56 49 57 63 80 70 90 88 100 83 79 84 86 59 86 76 92 108 103 94 102 91 91 86 94 96 80 94 87 90 91 87 81 80 71 73 59 41 55 48 44 35 35 28 34 43 60 55 42 37 93 113 50 72 89 91 94 102 94 87 91 89 105 111 76 75 92 99 116 125 118 82 94 101 37 126 139 228 211 217 183 77 74 84 87 85 84 81 81 73 68 61 50 51 54 55 68 64 77 73 96 63 70 65 73 48 60 68 78 97 100 94 96 95 68 77 74 75 80 89 87 90 88 79 80 67 66 65 50 37 39 39 28 38 26 28 38 56 55 43 39 59 117 164 4 62 92 98 90 82 98 111 114 105 121 138 144 145 180 201 199 168 145 131 143 195 144 134 63 212 218 209 224 146 70 78 87 84 87 87 83 79 74 75 51 51 53 48 54 51 69 49 74 55 51 51 73 46 60 64 73 79 68 75 76 71 55 58 51 63 74 66 88 89 86 56 77 54 55 42 36 37 31 38 27 34 28 29 53 59 46 36 60 75 156 168 21 89 114 140 144 137 136 122 133 136 137 125 134 146 141 147 133 81 80 88 86 127 154 133 93 91 223 216 210 224 125 81 81 86 84 87 83 76 82 82 69 52 42 44 48 48 50 44 61 47 42 38 56 42 45 56 71 72 59 59 56 51 56 38 48 60 50 66 72 62 65 51 53 49 39 33 32 49 34 30 31 36 35 45 55 40 46 61 82 84 187 156 40 100 96 72 83 93 103 100 105 131 128 152 183 201 201 200 210 189 155 180 120 90 101 141 107 92 114 226 215 213 216 125 80 82 87 84 86 83 83 75 81 61 49 40 43 44 50 41 52 40 42 44 44 27 53 52 54 63 46 49 45 50 57 32 50 41 40 65 46 52 43 50 38 39 38 33 28 49 21 34 23 31 40 52 44 45 61 80 81 124 199 129 57 71 56 67 83 82 85 84 118 152 149 169 112 148 136 113 147 176 183 198 194 118 120 137 121 128 86 161 221 211 216 210 117 84 83 89 86 83 82 80 83 72 51 44 40 41 42 42 46 33 31 30 40 25 48 41 54 41 55 39 54 45 50 37 31 37 38 45 37 36 37 49 34 35 27 32 29 37 34 25 34 35 42 50 56 73 66 90 91 165 197 109 50 36 78 104 118 95 65 75 79 107 170 192 125 144 128 184 173 126 84 139 143 122 138 137 118 129 121 111 178 211 210 213 196 95 84 83 85 90 86 75 81 77 62 44 43 34 39 46 49 34 34 46 30 38 34 37 42 39 43 43 34 34 50 28 29 29 34 39 32 32 33 33 24 31 23 30 32 27 32 28 36 46 45 103 77 70 95 68 131 184 187 79 42 49 96 95 125 143 102 71 88 69 144 193 