P2
92
112
255
41 49 45 42 46 44 44 46 43 46 41 51 43 49 43 46 31 38 24 38 43 49 53 50 45 44 49 60 41 46 42 38 37 34 30 28 27 30 27 24 24 27 22 24 24 23 33 20 30 22 20 27 21 21 17 16 22 14 19 16 21 16 14 20 22 17 17 14 19 25 17 25 18 14 17 12 17 19 22 21 31 32 34 44 44 33 42 35 37 39 40 42 38 49 44 44 46 47 44 50 45 46 38 49 46 45 36 37 24 31 33 41 50 48 44 46 48 64 61 48 55 45 49 34 48 37 36 36 31 27 32 34 28 33 28 26 28 27 32 26 26 26 28 26 19 31 22 21 22 19 20 14 25 15 18 15 23 15 21 16 20 23 19 19 19 22 14 14 19 12 22 20 21 27 39 39 38 41 38 39 39 37 41 40 48 45 48 46 39 48 43 47 48 45 47 45 43 35 26 30 36 41 43 48 38 46 39 51 68 47 49 48 59 56 51 60 52 45 41 44 42 40 40 38 38 38 37 31 26 38 39 34 27 40 26 33 24 32 26 21 28 21 24 19 24 18 25 15 22 21 19 20 19 21 22 16 23 20 22 12 15 20 18 15 18 30 25 39 34 38 40 40 41 42 37 40 43 45 43 45 46 46 45 45 51 45 42 42 30 32 26 35 42 47 38 37 39 37 30 33 39 41 40 51 69 76 77 82 72 62 69 70 61 59 53 52 44 49 44 40 43 39 51 53 35 45 38 41 36 39 40 38 34 24 25 24 25 21 25 23 23 27 20 28 20 20 17 24 20 14 24 16 18 18 10 19 15 22 21 25 28 33 41 37 43 40 38 40 46 39 52 42 41 50 41 43 53 50 38 31 30 20 36 39 46 34 37 21 33 22 24 24 27 48 79 96 105 109 109 109 103 97 111 101 97 95 76 62 67 59 51 45 55 50 56 53 54 53 58 63 47 44 66 58 44 40 39 33 28 27 30 31 33 26 29 32 21 23 17 26 20 20 19 17 24 15 16 16 22 12 25 20 23 36 38 43 43 38 46 40 48 46 43 48 46 46 47 46 47 44 33 29 28 29 45 49 33 30 26 21 25 22 26 26 72 106 120 124 129 133 134 137 135 132 125 125 111 108 99 87 89 79 64 58 63 57 69 59 63 78 80 66 66 67 78 80 83 55 52 44 41 32 49 48 49 41 31 41 31 22 17 25 23 20 16 20 27 16 19 14 20 15 20 17 24 28 37 46 37 42 41 39 46 45 46 49 52 46 46 51 44 38 27 33 29 37 51 32 32 23 21 26 27 21 49 95 131 137 144 145 154 150 150 146 148 140 128 129 120 119 115 109 104 88 86 83 73 71 71 79 83 95 97 80 93 95 92 100 110 102 88 65 66 67 76 75 71 70 57 53 49 34 21 25 23 20 21 17 27 26 18 17 16 18 19 17 21 33 36 41 43 45 42 43 45 47 48 46 47 46 49 48 36 33 29 33 35 45 37 29 28 26 28 26 39 69 116 144 145 148 153 157 157 157 155 148 152 139 135 137 134 131 127 129 123 111 96 99 90 86 81 97 101 101 111 101 104 116 108 121 123 136 120 99 95 101 100 90 95 92 94 79 76 61 39 24 25 24 14 20 23 20 20 21 20 17 16 22 20 21 37 35 39 45 42 44 47 47 45 48 45 46 46 40 36 35 38 36 41 46 39 31 28 38 26 51 98 128 141 152 153 155 155 161 160 157 157 154 163 153 156 157 158 156 150 148 149 141 130 132 131 124 116 117 120 118 122 122 126 132 137 141 140 146 141 122 116 113 113 100 110 107 108 105 89 90 76 51 36 22 19 19 19 20 27 28 20 22 15 21 16 24 21 42 40 41 47 40 49 49 45 50 46 40 46 41 43 40 50 42 38 38 47 38 29 34 56 116 142 151 154 156 157 155 158 164 164 163 164 164 167 161 164 161 166 163 160 164 165 161 159 160 160 157 150 153 150 141 147 149 153 156 159 158 146 158 151 143 133 128 116 116 116 120 115 115 113 104 100 88 69 38 28 17 15 24 20 26 24 23 17 20 18 20 17 34 44 43 42 44 48 48 47 48 48 34 41 44 51 48 52 35 41 41 42 41 33 72 123 146 156 159 163 158 158 163 167 167 169 169 172 167 163 165 166 163 168 166 163 173 169 169 160 165 170 168 170 167 166 163 163 163 162 167 166 161 159 166 161 152 153 143 130 129 129 131 130 129 125 124 117 111 105 73 52 28 17 21 19 20 25 29 21 17 20 17 19 33 41 42 47 45 46 50 47 46 42 32 47 51 50 39 38 39 37 36 44 43 68 130 146 156 159 160 165 160 164 167 172 175 170 174 176 163 171 167 169 167 169 168 169 171 173 172 166 168 171 176 171 170 171 172 169 172 167 172 165 165 165 168 160 162 157 150 145 141 144 140 142 140 133 131 123 126 117 103 89 60 30 21 18 18 30 24 27 21 18 18 16 35 34 46 44 40 45 47 48 32 38 36 51 42 41 41 35 32 43 43 52 72 120 142 159 162 163 160 166 166 163 171 176 176 178 176 178 171 176 177 176 171 173 175 170 175 173 177 175 166 167 174 170 172 175 171 175 171 173 170 165 169 166 167 162 160 160 156 151 153 151 147 147 147 136 138 131 125 127 120 113 99 70 37 15 19 29 16 33 18 18 19 18 26 38 47 44 44 49 50 42 28 41 40 40 44 42 37 38 36 38 54 57 106 148 153 167 162 159 164 171 170 173 172 181 178 184 178 180 179 179 177 177 178 176 175 171 180 176 179 175 170 168 175 170 173 176 174 176 171 171 167 168 163 167 163 167 160 158 157 158 159 153 151 150 150 145 140 133 129 133 127 125 123 95 82 16 21 21 23 32 23 19 22 21 20 37 44 44 44 49 46 37 28 39 38 42 36 26 40 36 44 47 57 90 132 158 164 162 158 159 166 168 173 175 179 186 180 185 180 184 179 180 177 174 179 176 178 176 178 179 181 177 176 171 175 175 178 177 173 173 171 174 165 169 164 166 165 170 170 155 158 161 156 162 158 154 156 149 141 132 139 135 139 130 129 121 98 58 20 24 20 23 29 27 24 22 19 29 46 47 40 52 41 35 33 39 39 31 21 35 48 39 46 47 73 113 147 162 165 157 163 163 170 174 178 177 183 186 185 184 181 186 183 182 182 180 180 185 174 180 177 180 184 184 180 180 176 181 180 174 174 173 171 172 168 170 170 169 171 171 170 167 166 165 164 160 163 159 158 152 145 135 144 137 142 138 133 125 112 93 44 22 23 17 25 32 30 25 20 31 37 45 47 50 37 34 45 35 27 24 33 51 44 43 54 52 91 130 151 168 159 165 165 169 174 177 178 183 183 184 189 184 186 184 182 184 186 188 186 187 180 182 179 184 181 185 182 181 177 180 181 176 181 178 178 179 175 174 174 175 173 172 170 170 171 168 165 171 167 166 161 159 150 142 146 142 145 142 137 122 119 109 79 39 18 21 27 23 36 32 31 22 38 45 47 52 31 43 32 37 28 28 58 47 50 57 47 68 110 135 166 170 161 161 167 176 179 180 179 186 185 188 189 191 189 186 188 187 187 191 187 189 187 185 183 186 185 192 184 189 182 180 181 184 183 182 183 182 178 179 179 178 175 177 173 173 171 170 166 170 162 175 168 162 155 149 145 145 145 144 137 124 124 118 103 59 20 20 27 21 33 38 43 20 35 46 43 54 42 36 38 32 28 43 60 49 65 43 56 96 123 149 171 172 167 168 181 178 184 184 184 189 191 190 191 191 187 188 186 185 188 194 186 190 191 190 186 181 190 190 185 193 189 187 181 186 187 183 188 184 182 181 183 183 175 175 177 176 179 171 172 168 167 171 179 163 162 157 147 148 145 144 144 124 126 119 122 85 33 25 22 26 33 37 39 32 32 43 45 52 46 38 35 38 31 62 50 70 64 56 65 110 130 156 167 173 170 172 187 179 184 182 188 191 190 191 192 188 187 187 186 189 189 193 193 194 195 191 185 188 189 191 187 186 181 187 187 183 186 186 187 186 181 184 182 181 181 180 175 179 177 179 171 173 170 170 177 171 169 161 150 153 150 151 143 128 129 124 127 101 62 21 28 28 28 32 35 37 21 41 44 55 40 41 40 35 50 69 61 73 67 50 93 119 144 169 170 176 169 180 186 184 191 183 188 193 190 189 198 190 185 190 188 190 189 193 195 190 190 194 183 186 187 184 187 187 184 185 186 187 189 185 188 186 185 183 184 183 182 181 177 175 180 177 170 174 170 177 173 176 173 167 157 158 157 152 142 133 127 123 130 111 73 31 32 32 33 35 29 30 30 34 41 43 39 37 46 42 55 69 69 72 57 68 102 133 154 175 177 179 174 178 190 189 188 187 191 190 187 189 194 190 187 190 189 187 191 191 195 190 193 193 187 185 183 187 182 189 183 189 185 185 184 188 179 190 183 182 181 184 185 184 171 177 180 179 169 176 175 173 174 175 176 170 161 160 156 156 146 141 133 128 126 125 91 46 26 29 38 40 29 34 33 31 49 37 45 50 40 56 58 71 83 75 55 87 119 142 162 179 182 180 162 184 192 190 189 189 189 187 190 191 190 189 188 186 191 189 192 190 190 188 191 187 186 185 184 182 184 181 177 189 190 182 191 188 182 190 180 183 181 183 182 184 174 179 177 178 172 173 175 170 176 179 170 172 163 160 152 153 150 143 138 135 130 131 101 68 45 27 44 45 30 30 33 35 45 38 49 46 52 60 56 80 81 73 95 92 123 141 168 183 185 178 183 185 192 193 191 189 187 186 184 195 187 189 186 188 193 189 191 191 191 191 189 190 185 188 187 184 183 185 176 191 187 184 191 185 181 183 179 183 176 179 179 179 173 178 174 177 170 171 174 171 171 178 175 173 168 159 156 159 153 149 141 138 136 135 104 83 62 43 45 51 33 29 25 35 42 49 50 51 55 59 79 86 63 93 100 106 128 157 176 190 184 184 183 191 194 197 191 188 184 186 187 187 187 187 189 189 192 184 190 196 191 191 187 187 182 180 185 181 184 183 185 187 189 187 194 182 185 183 184 182 179 181 175 178 176 171 167 175 173 169 168 169 173 167 167 173 171 160 163 161 156 151 148 136 139 140 112 92 71 58 57 55 32 30 29 28 39 56 47 62 57 75 81 82 76 96 101 109 131 164 177 190 186 184 192 193 200 198 194 191 187 187 191 180 180 189 193 190 193 191 194 193 191 192 191 189 187 186 187 180 185 184 182 187 189 182 190 183 184 186 183 182 183 183 175 180 183 177 176 175 175 172 167 175 169 168 168 172 168 166 162 165 158 156 146 147 144 143 122 97 77 66 68 57 40 29 34 31 31 51 57 55 65 82 74 81 85 84 106 119 144 169 183 184 185 191 193 199 198 200 198 191 188 187 190 180 181 191 195 192 193 196 194 191 192 194 193 192 188 191 184 179 183 185 186 182 187 184 185 185 186 185 183 183 181 183 175 181 181 180 180 177 174 173 171 176 174 168 171 170 165 169 165 164 163 156 150 144 145 152 130 92 72 66 68 61 54 28 44 30 27 57 59 54 82 77 85 72 83 79 104 120 147 168 188 183 189 193 198 202 203 197 197 195 190 193 188 187 189 193 196 197 196 197 196 193 196 192 194 197 190 193 186 187 180 181 187 179 187 184 185 192 185 185 189 183 185 182 180 180 181 180 180 176 176 171 173 175 176 169 177 173 162 171 170 164 166 157 157 149 145 154 135 86 70 75 54 69 56 49 49 30 33 57 57 51 82 73 80 69 79 77 104 113 152 176 187 183 194 196 199 201 201 198 195 192 195 191 192 195 200 195 197 197 195 199 198 198 196 195 197 199 192 193 190 184 183 186 184 186 187 186 194 190 188 188 189 187 181 181 184 182 182 180 176 182 176 175 169 178 177 172 180 174 170 166 175 169 167 162 153 147 146 156 139 92 77 56 65 62 60 57 47 25 36 55 63 45 81 64 79 59 62 80 93 122 160 179 184 184 195 193 200 199 197 193 191 193 193 194 193 197 199 198 200 198 199 197 196 197 197 194 200 199 199 190 192 188 185 188 180 187 190 191 198 192 192 188 186 186 186 181 185 186 181 182 182 182 180 179 176 170 183 171 177 178 172 175 169 173 169 162 152 156 150 154 147 97 85 54 64 59 64 52 47 29 35 54 61 49 68 78 79 51 51 74 84 129 173 179 184 186 190 195 202 199 194 191 186 193 193 191 197 199 201 203 202 199 198 200 199 199 196 195 201 202 201 199 192 192 182 188 184 186 189 193 196 194 192 191 191 188 187 183 182 185 188 180 185 181 179 181 181 178 178 172 180 176 178 184 171 168 179 162 155 158 152 151 144 101 83 57 57 64 65 46 41 32 37 51 63 48 71 77 80 49 40 65 88 164 182 178 179 191 188 198 201 200 194 190 192 191 192 190 197 196 203 201 203 201 198 200 201 199 197 195 200 202 202 198 194 197 185 186 190 191 190 189 197 196 197 190 192 193 188 181 183 190 189 181 187 183 182 182 183 177 177 174 179 178 178 182 180 179 173 166 161 157 153 149 142 107 81 59 52 61 71 46 38 38 47 54 64 56 67 76 80 56 27 70 101 185 179 181 179 186 189 199 200 198 197 193 194 192 191 189 197 197 199 201 203 204 202 197 198 200 197 196 201 198 203 200 200 199 191 193 190 194 189 193 197 200 195 197 186 189 191 176 184 191 187 187 187 184 191 183 183 182 179 176 175 177 174 176 189 183 174 169 163 156 151 146 140 111 85 59 48 63 73 48 40 40 42 58 64 58 63 74 60 56 44 73 126 194 178 178 175 183 191 198 201 198 196 193 196 194 194 189 194 193 197 198 203 202 205 197 202 196 197 198 199 196 205 203 204 200 197 199 193 198 194 196 203 202 194 193 187 189 185 179 185 190 185 190 187 188 193 185 184 183 186 178 176 180 177 178 184 181 175 164 156 156 156 151 141 109 83 69 46 63 74 55 46 36 44 52 63 59 69 62 55 57 58 65 141 194 178 175 175 183 194 199 202 196 197 192 195 191 189 190 188 187 190 196 199 203 201 199 200 198 198 197 196 198 203 200 209 201 202 202 192 205 195 198 202 201 192 185 185 190 182 179 187 188 183 191 191 189 189 186 182 186 182 178 177 176 176 177 179 179 177 158 150 155 160 152 141 116 76 67 57 64 77 55 54 46 36 50 62 70 74 46 56 65 64 58 156 192 178 172 170 180 199 201 203 198 192 189 191 182 184 177 180 183 182 192 192 198 198 196 195 195 196 195 197 194 200 197 201 196 204 202 194 204 196 197 199 196 188 186 185 187 183 185 187 186 182 188 191 186 190 184 184 185 181 180 177 176 172 177 174 186 169 161 151 150 159 148 140 128 81 52 58 61 74 65 56 50 45 108 83 65 70 37 59 69 56 74 174 189 178 173 162 192 201 202 199 194 178 174 159 159 161 155 165 163 162 169 177 181 191 190 185 192 191 191 192 190 191 195 190 189 196 198 193 198 192 192 193 194 187 182 185 182 186 182 186 181 184 185 186 184 184 189 183 187 182 183 179 176 172 174 174 183 170 163 149 143 148 141 141 134 87 52 45 64 67 70 58 47 47 180 94 61 64 27 61 72 59 83 180 184 179 162 163 184 191 186 185 168 155 139 137 139 139 135 144 135 131 140 143 152 165 164 167 180 184 184 185 186 184 186 176 186 190 194 188 188 186 185 184 189 183 177 185 176 183 181 180 183 179 185 183 180 183 181 183 185 182 184 184 174 178 177 174 173 175 158 149 138 143 144 136 132 97 52 40 56 68 69 51 52 43 154 89 55 63 21 70 72 57 88 184 184 174 159 159 162 158 141 145 131 123 121 123 127 128 122 125 116 108 112 118 121 124 129 139 156 168 171 181 180 182 179 175 178 182 190 183 177 179 181 176 183 176 176 176 175 175 174 180 181 175 179 178 177 172 172 178 181 180 179 185 177 187 179 183 178 177 164 143 135 141 147 132 134 100 52 41 49 68 63 52 45 43 122 89 80 57 48 41 75 64 94 192 189 173 159 154 149 150 131 129 114 119 115 118 112 114 118 103 94 89 91 95 100 105 114 125 137 150 164 170 174 177 169 175 180 177 184 179 170 175 177 168 173 168 175 164 168 165 162 172 166 164 169 162 163 166 169 169 172 174 166 169 165 177 179 186 179 180 164 136 133 142 140 133 135 102 56 48 40 65 75 41 40 44 82 106 110 36 69 54 41 65 97 191 192 173 163 157 144 143 145 131 138 150 141 146 133 135 131 112 107 99 102 106 109 105 112 125 129 137 152 164 171 172 175 173 176 177 180 173 167 171 169 163 161 166 162 161 152 147 140 139 128 129 133 128 127 133 141 147 150 155 147 142 136 150 158 173 188 183 172 139 126 142 127 134 135 112 59 36 46 56 70 46 24 52 71 110 140 28 78 73 60 61 84 176 192 168 164 158 162 149 164 171 193 205 201 188 182 169 166 166 155 143 144 131 124 117 113 117 124 128 146 160 166 172 174 170 172 169 169 169 164 171 165 160 154 152 148 146 135 130 114 106 94 90 97 90 98 92 114 123 126 130 137 129 126 132 126 140 166 175 172 144 125 130 126 131 136 112 53 45 42 57 63 40 24 43 55 127 154 31 78 67 84 67 128 140 181 165 132 105 89 81 78 82 87 93 102 113 103 121 92 186 142 153 142 141 134 135 124 120 128 124 145 162 165 170 170 168 171 166 170 170 164 163 165 160 148 143 132 126 119 111 98 95 86 78 65 69 66 75 88 91 109 116 113 112 111 114 108 118 128 132 152 149 122 128 130 136 137 109 58 47 41 53 53 46 20 38 64 141 179 46 75 63 87 72 166 135 80 89 109 118 145 164 175 187 190 177 157 139 123 117 100 121 113 128 94 124 104 113 93 104 134 115 129 137 141 154 163 163 174 169 167 164 165 161 160 150 142 133 124 111 101 96 86 80 76 77 71 71 71 76 76 78 94 106 99 103 101 92 101 111 105 113 120 132 122 121 133 138 143 100 66 54 42 45 53 45 30 48 92 156 165 69 68 50 79 93 116 104 126 142 168 175 165 176 184 184 159 131 108 110 97 90 71 70 82 78 87 99 106 108 96 76 102 61 71 76 72 65 75 76 87 104 107 107 120 119 116 117 107 104 108 91 92 87 82 80 87 100 115 123 132 137 116 119 118 121 127 129 125 107 103 96 92 95 102 114 115 121 136 142 140 92 66 51 51 38 52 53 36 54 141 182 127 106 49 26 124 98 104 174 169 115 155 174 173 163 152 113 80 96 83 52 181 120 51 23 139 31 57 57 78 83 90 85 101 126 43 81 136 149 168 178 142 146 120 102 97 89 89 87 73 63 54 62 46 48 59 58 65 63 76 73 111 70 79 82 88 110 129 143 154 152 137 107 97 97 109 116 121 120 136 137 140 95 46 51 37 44 46 52 38 61 167 205 90 132 48 23 139 133 120 177 180 144 140 148 153 147 117 107 99 114 93 140 201 161 72 38 37 28 102 82 109 91 78 84 89 88 131 42 129 157 198 212 193 200 204 187 187 185 156 134 105 41 79 108 97 95 101 88 87 99 108 120 138 148 141 134 117 111 85 75 69 75 79 89 98 114 119 122 126 117 136 139 137 77 28 32 37 41 46 35 48 85 181 217 67 74 65 38 118 118 118 182 177 179 172 164 156 138 129 126 133 151 112 185 177 142 63 81 61 81 97 101 135 126 110 90 85 120 126 122 87 162 197 209 190 187 187 179 195 194 167 140 52 120 110 88 68 62 78 62 82 90 79 78 84 97 113 132 144 157 161 158 159 135 106 91 64 64 72 107 134 124 135 132 94 60 52 46 34 31 45 39 76 115 209 205 111 30 79 43 158 54 145 183 176 185 181 182 183 166 166 164 137 158 159 150 146 170 97 94 98 96 99 134 140 140 122 140 108 113 180 162 46 159 188 204 139 125 115 136 171 180 173 90 111 144 88 56 64 74 85 75 81 97 64 21 130 58 36 48 67 93 122 145 162 160 152 134 113 113 100 62 77 130 117 79 110 88 73 42 39 30 47 53 98 106 212 192 135 33 102 138 133 55 169 180 179 185 185 191 188 185 189 182 160 167 164 152 153 149 157 148 149 150 137 147 147 131 129 129 142 143 194 178 15 119 194 193 157 147 130 125 113 101 118 56 128 122 81 94 122 88 65 84 135 163 70 62 77 15 42 48 79 62 44 79 101 137 147 133 126 126 126 122 88 70 67 116 137 75 65 42 45 39 37 85 107 48 195 194 123 49 13 112 122 78 183 175 179 186 186 190 185 191 185 190 178 184 179 158 150 139 149 152 142 147 136 140 144 133 147 157 172 196 193 159 70 176 156 146 138 141 133 137 169 154 114 41 146 132 128 154 103 90 93 135 163 182 96 86 89 41 87 66 85 129 86 55 57 66 117 130 131 134 132 121 88 111 72 142 140 76 54 49 45 28 58 122 93 38 195 166 189 210 128 71 179 112 185 169 183 183 185 189 189 188 185 188 173 181 179 161 156 144 140 135 137 133 125 124 123 126 132 145 159 159 179 109 106 155 143 159 159 168 157 134 120 142 162 34 155 151 171 152 132 131 128 130 152 162 148 109 114 83 97 84 132 146 123 110 87 50 81 108 124 125 121 89 95 136 127 96 137 73 57 40 35 39 97 143 82 26 189 158 169 214 167 48 208 154 176 170 181 186 184 191 189 187 173 183 169 172 164 154 149 137 139 121 127 121 125 115 123 127 131 137 143 137 179 69 111 143 165 181 172 168 167 151 111 106 173 39 152 151 165 146 164 166 162 151 165 162 160 152 158 129 125 136 150 148 150 140 113 102 91 96 104 106 118 104 123 128 125 71 117 68 49 47 31 71 124 153 61 30 193 165 135 191 179 55 223 167 166 175 185 187 185 191 188 193 172 193 176 179 180 165 158 144 143 132 132 128 138 136 137 137 150 152 152 153 162 36 86 167 185 185 180 158 167 168 116 94 147 60 139 145 142 117 143 147 145 123 125 132 137 137 145 140 136 144 145 146 144 133 116 113 120 113 121 128 139 129 128 132 86 108 79 75 47 47 48 109 150 154 56 52 186 155 146 128 195 65 212 171 161 181 184 189 189 186 191 193 180 193 187 181 186 178 176 171 166 161 153 154 151 147 153 149 155 157 184 143 114 20 125 189 183 184 171 166 158 173 140 74 145 31 121 153 137 106 110 129 133 122 107 110 109 119 118 130 133 134 132 133 132 124 126 132 145 144 148 141 141 136 130 136 70 124 66 53 50 75 64 151 145 153 62 89 189 166 175 88 219 74 185 178 165 188 185 185 193 186 191 198 189 186 188 185 180 179 171 174 166 159 151 154 155 154 167 166 173 177 192 175 35 47 173 181 175 184 165 182 165 178 170 71 167 35 84 133 145 125 110 129 134 130 125 113 115 110 107 107 116 114 115 120 127 132 151 152 149 151 154 145 141 144 127 143 66 124 82 13 47 106 72 135 140 150 96 107 208 193 173 111 221 78 146 182 169 186 187 186 194 195 191 202 188 187 178 185 179 171 173 171 174 173 162 161 162 173 178 178 181 189 203 85 61 123 190 180 180 187 169 169 169 177 170 110 92 54 47 141 143 141 132 128 135 134 124 126 130 125 124 117 124 119 119 132 139 147 156 163 151 149 152 140 145 144 130 150 58 136 62 11 36 55 90 120 132 150 130 58 210 207 191 170 202 154 72 197 173 187 188 190 190 195 189 201 182 188 178 176 170 167 169 167 168 170 169 167 169 175 181 180 190 212 142 66 138 163 191 187 184 183 176 170 165 179 182 135 87 95 34 117 145 146 148 138 137 141 135 129 134 136 130 137 138 142 137 150 149 153 155 156 161 145 141 147 153 146 133 144 72 140 45 52 68 91 87 106 112 151 120 21 195 210 191 195 181 198 42 188 173 183 192 197 191 193 191 199 190 182 183 172 169 168 170 167 166 173 171 170 168 174 172 175 207 170 72 156 136 186 195 189 186 186 163 176 166 179 180 136 106 89 86 63 141 159 159 154 144 144 144 136 130 132 133 133 134 145 140 146 151 157 155 146 159 156 148 159 157 143 132 133 106 129 50 85 116 125 89 92 93 145 105 12 177 209 191 192 187 205 149 81 178 180 191 194 190 201 193 196 191 183 181 168 173 170 162 162 167 176 172 175 170 178 168 189 166 91 148 134 159 195 193 187 187 195 169 169 172 187 163 140 119 87 115 64 97 173 170 157 155 156 156 146 144 141 143 146 138 148 148 156 153 164 161 157 160 165 155 159 155 144 130 124 147 82 73 121 143 139 82 81 89 150 80 15 212 204 191 195 194 202 188 87 115 191 192 194 193 198 201 195 190 188 180 173 174 179 169 174 176 173 174 172 172 178 185 138 112 171 140 146 184 189 195 189 183 192 165 169 180 192 141 141 133 101 98 130 44 165 167 159 156 158 159 158 150 151 154 146 154 148 150 163 151 160 168 164 160 163 157 159 157 147 128 127 162 31 121 153 142 120 76 79 105 149 44 25 215 199 193 192 192 208 162 169 118 109 194 197 195 197 202 202 196 196 181 180 176 179 178 179 181 178 178 181 184 167 110 117 198 163 131 175 191 186 197 181 193 193 160 177 175 177 142 138 147 116 100 119 118 58 165 164 156 151 162 164 152 161 149 143 151 147 156 155 153 158 174 166 161 160 164 156 155 147 119 140 111 43 143 163 116 89 80 87 128 118 20 23 184 201 182 192 185 189 173 145 193 138 72 168 198 201 200 204 201 191 183 185 186 172 180 181 177 181 182 175 129 95 146 186 173 147 131 185 190 191 195 183 197 194 161 182 174 173 142 142 153 137 101 114 130 120 89 167 157 152 162 161 158 156 157 153 142 149 153 157 145 157 176 167 168 165 171 161 147 151 121 150 49 102 155 138 86 81 79 95 149 65 24 24 68 171 166 161 153 92 158 154 184 185 171 111 88 178 213 202 199 190 189 187 184 177 183 179 175 157 118 100 130 166 165 148 143 149 128 181 191 192 196 181 197 185 166 178 165 172 159 143 152 135 107 103 119 146 128 68 163 155 155 159 160 152 157 160 154 159 141 159 154 157 166 166 162 166 173 162 151 141 148 99 80 116 158 96 73 98 90 121 131 31 25 27 49 60 93 92 89 25 97 165 181 182 190 194 177 106 147 175 166 167 171 168 150 142 127 104 102 109 138 158 149 143 123 127 137 139 137 182 198 195 193 186 195 183 170 184 167 175 166 154 140 141 107 88 113 148 138 135 63 133 155 156 160 154 153 157 159 157 152 162 163 160 172 168 170 169 169 161 150 156 113 108 121 116 146 88 82 112 122 144 62 21 26 35 60 56 54 61 50 20 85 169 177 177 186 190 199 197 200 186 170 142 136 128 130 134 136 142 155 143 137 131 105 114 127 134 139 138 170 186 194 196 184 184 194 176 171 182 169 172 174 155 143 138 116 87 108 134 146 125 142 82 91 153 158 154 162 154 161 160 166 171 175 172 175 176 178 167 170 165 163 101 92 138 121 118 140 128 120 134 137 111 17 26 32 27 45 58 58 51 55 18 86 166 176 175 186 186 194 195 191 190 184 177 166 153 146 141 135 137 130 127 133 136 127 137 152 149 134 176 190 184 198 191 182 190 196 186 171 176 181 169 171 162 142 148 131 83 97 128 141 147 134 129 120 64 99 141 156 161 164 167 166 174 173 173 176 161 160 185 202 147 89 127 143 134 117 123 128 135 133 133 132 78 18 26 31 30 52 58 54 52 57 14 95 167 172 179 177 182 185 182 172 184 176 172 156 146 147 150 148 150 151 155 151 150 142 148 159 145 174 196 181 185 200 198 175 215 205 171 166 173 177 177 167 167 149 145 158 83 93 121 140 142 162 136 120 122 111 80 81 101 127 147 161 169 177 187 185 122 172 172 143 118 157 152 141 124 109 137 133 124 137 137 133 37 25 32 36 24 55 56 55 50 57 28 104 174 171 181 178 180 191 183 187 189 189 181 188 177 179 172 169 162 157 155 138 131 147 155 163 160 200 190 174 187 213 201 174 221 201 185 159 174 175 193 175 169 155 137 170 117 91 128 145 154 149 154 147 127 115 126 119 123 105 84 90 87 97 113 111 108 147 162 168 156 152 147 132 119 108 138 135 129 138 145 126 22 39 24 31 34 56 49 55 52 53 19 111 171 168 176 187 187 189 189 192 192 186 188 187 176 167 166 164 152 142 141 129 132 148 164 160 174 204 188 167 195 216 193 178 196 179 168 172 171 177 199 191 174 155 131 161 158 100 143 148 150 157 152 160 156 145 134 118 128 124 135 134 141 148 155 158 161 166 160 159 151 145 145 124 124 91 120 135 132 133 142 119 9 27 35 32 29 56 47 58 54 56 26 122 172 167 174 185 188 182 185 183 186 186 181 176 169 163 159 154 141 134 129 129 144 158 176 173 164 186 177 154 171 176 178 172 162 163 161 167 163 163 193 173 151 140 121 155 168 128 145 151 154 152 151 154 156 159 160 158 146 128 127 128 131 135 141 146 152 149 154 150 151 142 136 126 123 46 79 120 131 133 140 80 14 32 32 29 31 54 56 52 52 62 19 120 180 164 169 187 184 175 176 179 183 181 176 172 163 164 148 145 135 130 130 145 153 175 179 181 160 140 153 142 134 132 152 162 152 143 146 153 149 146 143 129 126 121 113 147 154 127 142 158 151 142 147 146 158 159 161 167 169 163 155 144 143 135 135 133 141 146 146 148 143 138 130 130 116 27 36 70 105 118 83 34 24 34 31 30 28 52 54 52 55 60 26 120 182 164 172 182 181 169 168 173 177 181 176 172 164 157 144 139 135 139 148 156 166 178 183 187 184 128 104 111 127 127 127 132 133 125 121 132 124 108 100 107 105 105 116 125 132 101 121 160 149 145 134 140 143 153 153 159 167 164 163 164 158 155 151 146 134 137 144 146 141 132 129 133 99 19 28 34 49 49 35 28 32 32 31 30 28 49 57 56 53 59 19 112 175 169 173 179 183 172 163 176 181 185 177 175 168 161 146 141 143 146 152 161 173 181 181 185 191 185 128 128 138 134 126 116 102 91 88 97 88 96 95 82 63 52 67 100 109 72 121 165 157 148 130 135 133 144 149 152 164 160 157 164 160 161 154 162 144 145 141 138 136 135 122 132 86 14 35 26 33 37 33 26 32 29 32 30 32 56 55 55 55 62 23 109 176 165 173 184 176 166 161 175 186 188 179 174 157 152 149 151 142 148 160 167 173 179 184 184 183 185 170 139 142 133 113 118 90 69 62 77 77 96 93 84 86 69 77 98 96 86 134 165 168 144 137 132 128 141 146 146 147 153 156 156 148 153 148 155 144 148 138 135 136 129 112 140 68 18 38 34 33 30 34 32 31 34 28 35 30 55 54 55 50 55 25 85 182 164 169 183 178 156 168 180 188 185 175 170 157 153 161 136 136 151 161 164 177 182 184 178 177 183 176 155 133 120 101 93 91 68 45 63 67 84 95 103 119 119 109 113 102 104 138 164 167 146 145 138 132 134 142 149 145 153 146 149 141 144 147 149 142 137 133 135 133 120 117 140 56 28 32 33 31 37 28 34 32 32 27 32 28 52 57 57 49 54 33 46 190 163 167 181 178 155 160 182 187 182 180 171 158 159 135 130 142 159 163 174 180 182 182 179 183 182 170 161 150 112 101 88 64 58 36 41 46 73 72 108 106 115 107 108 104 112 143 164 165 158 145 142 135 136 143 151 145 156 155 141 143 134 137 141 136 130 129 134 130 112 117 134 33 26 32 35 33 34 32 34 25 30 35 29 29 51 58 53 50 51 48 20 176 166 173 177 173 165 167 183 188 185 182 162 162 146 140 152 153 156 165 182 178 179 178 173 184 162 160 153 152 124 98 73 62 49 41 47 31 62 65 103 95 107 117 112 105 126 154 161 162 155 151 143 134 134 138 147 149 153 156 148 136 137 131 130 131 126 130 127 115 115 132 110 23 29 36 37 30 35 32 35 29 28 35 26 33 53 59 55 51 47 54 12 153 165 174 176 177 164 173 183 178 187 169 161 170 149 159 152 156 144 159 174 168 180 158 158 179 164 158 158 148 152 115 74 45 46 48 47 38 54 74 95 93 100 111 110 113 132 160 163 158 157 147 143 134 133 138 141 149 147 159 155 147 143 130 126 125 129 126 124 110 118 132 86 21 30 36 33 33 32 35 34 32 28 34 29 31 54 54 56 51 50 52 22 101 164 161 176 177 159 178 177 177 181 172 163 164 144 159 140 122 135 146 170 167 173 157 155 172 173 154 156 149 146 137 102 60 38 47 57 46 60 76 77 105 80 112 112 125 135 156 162 153 154 147 140 130 135 136 141 144 145 151 154 154 143 130 118 119 118 125 120 110 120 135 61 25 31 29 35 32 32 33 32 34 28 32 33 28 58 58 55 50 50 45 43 53 154 163 168 166 168 176 178 180 183 173 153 155 141 140 131 113 128 140 158 151 156 161 157 179 173 170 163 163 162 153 117 91 41 46 68 56 66 77 88 97 100 99 113 124 144 151 147 152 152 151 143 136 126 129 138 139 134 139 148 153 142 124 118 130 127 124 111 112 124 129 39 26 33 32 32 30 29 30 33 25 37 26 30 28 56 57 53 55 47 53 54 22 140 160 168 167 169 172 175 182 183 166 145 139 138 114 115 105 119 133 152 161 176 183 183 185 175 180 162 168 171 163 138 122 93 72 77 98 83 90 102 106 109 109 125 121 138 147 140 139 152 147 140 148 134 126 127 136 130 137 141 153 138 126 123 141 131 121 111 117 125 118 18 29 36 31 35 28 33 31 33 30 34 29 30 30 53 55 52 57 48 54 47 15 102 154 165 166 165 171 174 175 178 163 135 131 117 93 87 66 51 107 158 163 180 175 172 157 148 151 150 139 165 154 144 144 131 123 126 138 123 128 129 131 120 127 119 124 131 127 138 132 139 130 138 137 141 137 122 134 122 134 142 147 139 111 129 138 128 115 115 116 129 73 22 33 34 30 37 25 35 32 30 32 34 28 31 30 51 57 51 57 50 51 52 34 49 147 159 167 162 167 175 174 172 161 137 120 117 115 117 99 60 32 73 111 114 109 102 104 103 102 102 97 112 126 139 149 151 148 152 144 123 134 142 151 142 149 141 130 130 121 135 125 124 117 126 125 122 135 129 126 125 137 137 143 129 112 133 134 128 108 121 116 123 43 21 36 31 34 29 32 26 33 29 32 31 29 33 36 54 57 56 50 55 51 50 46 29 122 149 160 158 161 174 167 175 156 141 114 118 130 131 131 141 119 49 21 28 70 58 98 85 88 84 95 93 86 104 129 134 129 109 87 79 80 100 113 122 140 144 148 145 128 119 109 103 89 98 106 110 120 130 130 129 138 139 139 123 118 141 134 112 110 116 118 98 16 29 35 30 36 26 37 25 36 34 27 28 34 26 34 55 51 53 54 52 48 55 51 22 76 147 150 160 152 166 167 166 147 132 112 123 132 135 148 158 169 119 80 16 57 49 142 110 75 46 98 74 60 55 79 61 65 61 61 69 69 65 67 69 86 95 119 128 120 118 108 65 81 81 88 90 114 124 128 135 140 137 130 123 126 138 129 105 114 110 114 48 26 27 38 31 32 31 29 31 29 31 32 30 27 32 28 45 61 54 49 54 43 50 46 48 25 140 142 151 159 148 162 158 140 125 114 126 145 150 159 168 170 154 110 98 75 25 128 132 105 79 145 110 79 67 61 38 48 51 48 56 57 41 49 53 52 41 58 69 78 80 68 20 36 59 78 97 111 120 128 143 140 138 122 122 127 132 114 105 114 119 87 19 34 31 34 32 34 34 24 34 27 32 35 26 31 35 27 55 56 54 55 51 50 49 44 46 17 108 139 141 154 157 155 149 143 118 123 128 155 161 161 165 170 174 141 128 120 93 55 93 87 84 152 122 100 86 79 53 68 67 65 70 62 38 60 74 47 25 56 27 17 18 35 51 70 110 114 104 109 124 135 140 142 131 121 121 130 129 102 104 113 106 36 25 31 40 30 32 32 33 29 32 28 33 25 28 33 31 25 56 53 52 52 50 47 49 46 49 25 116 130 127 142 150 153 148 137 119 128 134 154 158 156 165 170 177 169 132 135 130 113 92 49 75 120 116 104 96 77 72 79 77 86 96 63 73 86 97 42 24 54 33 33 51 106 139 137 134 132 105 109 127 136 132 138 133 115 112 127 122 96 108 112 59 23 30 33 35 26 35 34 32 33 25 33 31 24 32 32 29 33 53 54 57 43 57 50 45 43 49 17 131 128 117 136 142 144 144 133 140 140 137 164 161 157 167 169 177 176 148 131 139 136 129 101 104 114 98 75 128 107 66 62 78 85 72 64 78 51 40 42 59 78 72 86 121 142 153 149 141 123 113 114 123 135 134 136 121 111 116 117 109 100 106 102 11 31 32 31 32 31 33 28 35 28 37 27 31 33 22 34 29 35 56 52 50 59 48 48 48 47 51 20 148 137 121 126 143 140 142 142 137 136 140 152 153 154 164 166 170 167 168 136 143 144 149 140 123 126 117 119 122 124 100 102 111 113 88 100 110 101 106 105 121 115 118 126 134 142 141 150 141 129 122 122 123 139 128 136 112 113 110 116 100 96 102 32 25 29 36 33 32 31 33 33 28 30 37 23 34 26 35 30 26 33 53 54 50 54 52 53 47 50 46 20 144 155 114 126 122 142 145 133 139 133 149 148 151 160 164 163 165 162 164 155 141 136 142 147 144 136 139 130 129 125 120 133 130 116 122 117 124 128 120 126 126 115 125 128 137 141 140 142 141 124 123 123 124 131 129 119 109 107 111 102 95 105 48 22 37 31 30 38 26 36 28 34 27 32 29 34 30 30 29 31 31 28 54 54 54 47 57 51 48 50 53 16 152 171 123 111 117 135 144 137 134 131 146 143 146 154 164 159 153 166 155 153 151 136 125 127 132 126 137 128 137 124 131 146 133 139 130 112 133 123 122 120 117 120 126 126 140 144 142 144 139 122 130 121 122 122 124 108 108 100 105 94 104 58 27 29 35 32 30 33 35 30 29 29 29 33 29 29 31 29 32 29 30 27 50 52 52 51 56 53 53 55 47 28 162 164 149 107 121 132 137 141 134 133 144 150 150 147 159 149 155 157 152 146 142 148 128 123 120 126 117 119 118 113 118 118 121 119 116 106 105 115 114 118 118 114 120 135 139 140 141 136 137 124 121 122 118 121 117 105 104 99 92 97 78 28 28 34 30 34 32 34 31 34 28 37 28 29 35 29 29 30 33 29 26 30 59 51 51 49 59 49 48 57 49 39 172 157 161 117 119 127 132 137 144 136 147 154 150 153 148 146 155 157 149 141 135 134 119 117 116 111 113 104 104 110 110 105 108 97 93 102 106 111 115 102 108 115 131 135 142 134 140 131 135 137 113 126 115 112 116 101 94 90 96 86 37 24 30 33 27 35 31 36 30 32 30 31 32 32 32 24 33 28 27 32 26 33 57 53 52 53 52 50 54 54 46 60 171 165 151 156 100 107 126 139 147 143 146 143 150 146 153 140 151 150 142 140 131 126 108 100 83 85 84 85 95 104 95 99 89 102 95 94 92 90 96 96 113 130 127 143 138 134 133 135 133 123 122 125 118 113 107 90 89 94 95 41 26 31 29 30 34 27 33 33 33 29 31 31 23 37 26 34 29 35 28 27 30 32 46 58 49 58 57 51 52 57 38 74 173 168 150 168 118 94 113 140 133 135 137 136 142 151 142 135 144 143 135 138 134 128 108 89 82 55 45 43 57 53 51 51 52 60 63 70 82 92 94 105 119 130 129 134 131 127 132 134 126 117 122 124 117 108 103 87 83 94 55 25 33 26 35 33 31 33 37 27 30 31 26 32 26 31 31 30 30 31 33 26 28 34 40 57 54 53 51 55 56 48 34 89 171 165 162 159 157 94 100 129 133 136 136 140 148 154 153 131 143 143 141 140 132 129 113 102 87 89 86 75 72 52 47 56 59 62 68 81 96 104 107 111 126 124 126 127 121 130 139 129 124 111 117 120 115 105 86 87 90 63 29 28 31 32 31 32 32 27 33 28 31 28 26 32 27 31 28 29 29 33 30 29 32 30 51 55 53 51 55 55 47 57 25 108 172 163 171 153 168 136 82 119 138 126 137 141 143 149 153 142 138 140 143 144 141 134 131 121 111 103 103 96 100 86 92 87 97 100 102 102 104 113 119 117 124 122 126 121 132 140 138 124 121 112 112 112 109 101 72 85 80 19 31 33 32 28 33 30 30 32 28 33 29 32 31 24 35 27 33 24 28 28 29 30 25 31 52 48 60 49 55 54 53 65 26 136 168 164 169 173 147 167 98 90 127 127 148 145 137 144 149 149 140 145 149 148 149 142 139 140 129 120 113 113 104 105 108 101 107 103 114 115 113 114 120 112 119 122 123 127 135 135 134 120 114 110 108 110 101 84 87 65 35 27 30 33 34 28 32 32 28 30 29 33 27 30 31 31 31 30 32 26 28 33 25 30 30 24 54 57 63 62 55 59 52 48 27 154 163 164 168 176 156 168 150 77 113 131 134 141 131 143 145 154 149 153 152 154 149 147 147 143 145 138 131 135 125 129 124 120 124 120 126 121 123 122 124 122 122 122 127 129 130 132 132 114 107 110 108 106 86 81 74 19 15 35 27 33 33 34 31 25 31 31 32 27 33 29 32 31 25 32 26 31 26 30 30 27 26 26 64 65 59 59 46 50 36 39 39 168 165 158 168 167 174 145 170 121 78 123 135 140 137 147 152 153 152 144 159 157 157 152 155 147 149 146 141 146 133 137 130 132 125 129 140 130 129 134 126 127 128 122 129 131 130 126 121 107 104 104 105 91 76 96 15 16 19 20 22 26 29 34 32 32 35 27 31 29 31 30 32 34 28 28 30 26 30 30 27 28 25 30 59 54 48 49 39 41 35 28 45 172 164 167 172 172 176 152 153 170 79 97 118 139 131 148 144 147 153 144 149 158 150 158 153 149 151 149 149 143 136 132 133 135 130 133 138 136 133 135 134 131 133 130 134 130 134 117 111 104 104 99 95 59 92 93 8 14 18 16 17 17 25 18 24 32 34 41 28 32 33 26 35 22 30 26 31 24 29 28 25 29 25 31 56 47 43 45 37 41 41 5 76 176 162 168 175 174 176 168 157 162 144 90 103 142 129 151 140 150 145 145 157 152 147 155 151 147 149 146 141 141 132 135 138 135 142 138 139 135 135 136 140 137 130 144 140 134 132 114 113 105 94 87 63 74 125 67 6 13 22 17 15 20 19 18 21 23 35 41 36 33 31 25 37 21 32 33 26 32 27 24 29 25 23 24 52 46 42 43 38 40 26 4 124 170 159 168 179 175 174 175 160 152 159 132 85 122 125 141 130 146 140 140 146 149 143 156 151 141 148 146 135 133 142 132 136 133 141 139 138 143 137 130 131 138 130 144 124 130 125 110 114 93 87 72 73 114 124 74 7 11 16 16 19 19 16 19 22 18 40 36 42 43 31 27 26 28 31 26 30 30 29 23 29 20 32 19 49 46 39 46 39 32 19 23 150 163 165 167 172 179 176 178 169 156 151 156 121 87 120 127 128 132 135 135 143 143 148 139 138 136 141 139 132 129 139 129 131 132 139 129 138 136 137 125 133 140 128 134 115 124 113 100 96 85 66 86 119 113 110 92 5 14 16 14 20 16 23 17 21 21 33 37 37 50 38 35 27 24 29 31 26 24 32 25 30 25 27 22 49 44 44 33 40 26 4 79 166 159 168 168 173 179 179 179 173 163 146 145 155 109 91 118 117 122 139 134 136 141 140 132 136 144 130 130 139 130 135 131 137 135 127 139 134 137 134 125 134 136 126 124 120 110 114 83 83 57 80 127 116 113 105 102 9 7 17 16 17 18 19 19 22 23 33 34 41 40 38 45 37 30 22 29 30 28 25 26 33 19 27 23 47 48 44 37 27 14 13 153 157 158 166 169 177 176 182 183 175 170 146 141 138 157 105 92 113 117 119 120 136 134 123 116 140 136 128 126 133 121 126 130 133 133 128 132 133 131 129 123 122 125 117 113 109 103 97 75 48 90 123 123 111 109 111 93 5 13 10 20 15 20 25 15 25 24 32 35 38 39 41 42 54 44 26 29 29 26 27 26 30 24 22 26 49 51 40 29 15 11 61 161 155 160 168 172 171 176 183 177 181 173 158 140 140 133 154 109 82 112 109 108 129 118 124 118 132 122 137 120 130 121 116 126 113 124 115 127 131 123 120 120 117 108 112 98 98 88 64 51 84 121 122 114 115 108 113 57 5 11 12 16 17 17 24 20 21 30 24 38 40 41 43 47 53 54 54 28 31 17 30 24 26 23 25 21 51 55 40 12 11 56 89 164 156 168 167 174 171 181 183 179 179 176 172 147 145 122 135 152 133 82 88 101 98 108 113 112 112 114 125 114 115 120 112 113 113 116 109 110 112 108 120 114 100 104 85 83 84 58 55 93 124 120 118 114 113 108 117 25 10 14 13 11 19 14 24 20 24 29 29 41 40 45 56 53 60 56 60 57 40 21 28 25 26 24 24 24 53 53 27 5 62 76 102 161 158 169 166 171 172 181 183 183 180 176 175 159 143 135 128 144 145 147 97 73 78 85 92 93 88 92 110 100 97 102 107 107 100 110 97 100 99 88 94 89 89 70 62 62 50 76 111 116 117 117 119 115 109 110 119 22 20 11 15 13 12 21 19 27 25 25 37 40 48 49 58 55 57 56 66 56 65 35 18 22 24 23 24 25 52 56 11 55 92 61 97 164 165 170 168 170 177 178 180 182 175 182 173 167 152 141 132 136 141 140 142 123 92 53 63 60 56 72 79 81 77 87 93 79 88 90 79 87 79 77 56 68 61 56 55 70 95 109 113 115 118 111 119 111 109 110 124 24 9 18 14 11 13 14 24 27 23 31 45 49 52 50 56 57 57 58 57 58 60 63 27 18 24 18 28 21 