P2
92
112
255
40 40 41 45 40 42 44 41 43 46 42 43 44 45 42 47 47 43 39 45 40 44 43 40 57 39 40 40 37 28 26 28 23 24 18 24 22 21 22 20 23 16 23 17 22 21 24 19 14 24 14 17 14 20 18 20 20 16 15 16 17 20 19 18 18 18 20 20 16 23 29 30 30 34 37 36 38 43 34 41 38 39 40 39 36 37 42 31 44 35 41 32 46 48 38 50 40 46 42 45 48 38 48 42 49 43 49 39 48 45 44 35 40 45 43 46 46 40 49 45 40 41 40 36 29 29 30 28 27 32 20 34 21 27 29 20 16 27 23 18 22 20 23 13 17 15 19 21 18 21 20 15 19 18 18 13 17 18 18 23 18 20 26 19 22 31 30 39 36 41 42 39 40 40 41 37 39 39 34 38 40 38 35 39 46 45 46 42 44 40 47 42 46 44 47 42 50 40 45 44 49 47 38 38 28 39 51 43 42 52 56 51 48 53 42 47 44 40 36 30 38 31 35 31 28 33 31 26 24 31 23 24 25 22 21 20 19 14 19 25 14 18 21 18 18 17 22 16 20 16 24 17 25 22 16 18 17 23 29 28 34 40 39 40 41 41 39 36 41 33 43 39 39 45 34 41 41 49 41 45 46 45 44 47 42 47 43 47 37 49 46 47 42 37 31 34 42 43 43 39 48 50 46 43 41 55 49 51 52 54 43 51 47 46 49 43 40 39 38 31 39 43 39 33 33 25 26 27 24 21 25 20 27 19 24 18 16 23 17 24 16 22 22 14 22 21 22 13 24 14 26 25 32 38 37 37 42 37 41 39 36 40 41 33 41 41 40 37 42 52 42 40 47 43 44 47 42 44 49 47 44 44 45 42 39 33 43 40 39 39 29 41 40 51 33 40 35 44 48 53 56 61 63 52 55 66 56 54 49 47 45 37 50 42 55 49 48 44 39 37 33 30 33 30 30 29 26 19 23 24 25 17 19 27 17 23 16 23 20 18 18 18 23 21 25 34 36 42 41 39 40 39 39 40 34 44 36 41 42 38 43 53 41 46 44 45 47 46 42 48 41 48 48 39 41 32 34 39 37 40 29 36 29 28 25 26 34 34 51 55 76 84 84 84 96 92 90 87 80 74 71 59 53 51 47 52 55 47 57 59 56 39 55 43 44 35 36 32 26 28 26 32 25 23 19 26 19 18 19 21 20 22 12 23 18 19 21 28 36 33 39 40 41 39 33 44 37 42 37 39 40 38 45 45 47 38 47 42 47 44 45 42 42 52 45 36 21 33 36 40 35 35 27 28 22 24 19 26 51 81 104 117 115 129 125 118 117 103 111 102 97 95 88 69 70 63 58 56 71 62 81 80 69 76 68 71 72 57 56 46 43 32 40 33 33 27 24 31 21 16 20 21 20 12 26 19 16 21 19 28 26 28 31 41 41 43 35 46 37 36 39 37 42 41 45 45 46 45 46 45 52 39 48 44 44 46 43 26 23 35 43 36 34 23 24 21 24 16 46 79 118 133 141 145 138 143 137 133 123 125 127 125 120 120 105 99 90 89 75 71 88 89 87 103 82 98 96 94 99 102 97 75 67 63 69 50 57 37 39 24 20 24 17 20 17 14 22 24 20 17 15 23 18 21 31 40 42 38 38 44 41 40 41 41 44 38 45 45 47 47 41 48 49 42 46 45 45 38 31 27 30 40 40 24 22 26 17 22 28 66 115 132 146 148 153 150 150 150 149 152 149 154 153 148 145 144 144 138 131 133 120 122 115 118 113 116 115 115 131 126 128 130 130 114 103 100 93 77 83 70 58 52 26 22 20 19 20 16 21 17 26 17 17 17 20 18 27 36 43 40 38 44 40 45 38 44 40 44 49 45 45 46 50 42 48 48 47 51 36 26 28 30 45 34 28 26 25 26 26 38 97 131 140 150 148 154 149 154 153 155 159 154 158 160 157 155 157 158 161 157 153 157 153 150 153 155 139 145 143 152 149 156 143 148 145 145 128 121 112 102 101 96 89 78 59 33 24 20 21 15 22 22 20 22 20 13 19 22 23 33 42 40 42 42 36 43 44 37 44 41 49 44 45 44 48 43 50 51 45 43 28 28 37 38 38 36 35 27 33 29 49 119 140 142 147 152 151 156 156 156 160 162 157 158 159 160 161 159 160 163 165 160 159 161 163 163 160 165 156 160 155 159 157 159 155 154 155 149 146 142 126 123 117 117 106 106 96 72 54 31 15 17 15 21 16 24 23 19 20 21 22 31 34 38 45 38 42 43 40 46 37 43 48 47 45 48 47 46 44 44 40 36 36 38 44 38 36 40 34 32 30 58 130 146 148 154 149 156 158 161 161 163 165 160 162 161 164 160 164 163 163 165 168 165 163 159 167 166 163 163 166 165 162 161 163 158 156 157 156 154 150 144 140 135 136 132 126 125 113 107 98 65 33 15 19 19 18 19 22 23 20 17 21 18 30 43 42 41 44 43 38 40 41 42 43 50 49 44 50 44 40 39 36 42 42 44 32 38 38 40 34 34 72 133 141 153 152 156 154 155 162 165 168 170 168 167 165 171 170 164 167 168 162 167 167 169 166 161 162 166 164 165 167 167 159 165 163 156 157 159 157 157 151 151 144 144 141 137 134 133 123 120 112 105 79 41 18 18 16 15 25 20 24 18 15 18 23 37 46 41 41 46 40 44 48 31 49 49 48 46 47 43 43 29 48 42 44 32 38 28 37 43 46 78 131 150 155 160 156 161 162 163 168 173 173 174 175 173 174 173 172 170 170 169 168 168 171 170 166 166 163 164 167 168 168 167 163 163 164 159 158 158 159 158 155 149 149 149 145 140 138 136 131 124 121 119 103 95 48 21 16 19 22 24 24 19 16 16 24 35 45 41 44 46 42 47 42 40 50 49 47 51 46 45 31 35 46 39 40 38 31 33 47 48 71 128 150 162 162 154 162 165 165 172 176 180 178 178 180 176 177 176 169 175 170 171 165 174 171 172 169 173 164 167 173 170 170 166 164 166 162 166 160 163 162 163 160 152 153 151 150 147 146 144 135 126 126 127 123 115 97 51 19 21 20 22 23 27 13 22 19 35 42 47 45 43 42 45 40 42 50 53 48 49 42 37 30 36 43 42 41 37 40 39 53 69 116 154 162 160 160 160 166 169 173 172 181 180 184 179 182 178 178 178 182 177 177 174 171 173 173 176 174 175 169 169 175 169 173 169 173 171 170 169 169 167 169 168 164 163 162 156 157 152 151 148 141 133 131 134 128 126 123 97 43 18 21 22 21 31 21 23 20 34 45 46 41 45 49 43 48 42 50 51 52 47 34 34 32 42 42 27 35 39 42 48 65 101 140 163 165 156 168 167 171 176 175 178 185 184 190 185 184 183 181 182 186 180 180 179 177 179 176 178 179 177 175 172 174 176 176 174 177 178 175 174 172 170 173 170 164 168 162 164 161 163 162 151 149 139 137 135 139 133 127 117 84 32 19 21 22 28 26 26 18 30 47 46 45 44 48 41 48 49 54 51 51 44 26 35 44 31 27 31 44 40 50 48 80 122 152 163 161 160 166 173 172 179 181 179 189 187 191 188 186 184 183 183 186 178 179 184 179 182 177 181 180 183 182 181 174 179 180 178 179 182 177 176 178 173 174 171 169 170 165 166 164 160 168 164 151 144 139 136 138 137 132 115 105 74 28 16 21 23 26 29 24 25 38 43 42 52 41 48 43 47 50 57 42 33 29 44 29 31 31 40 53 51 51 52 103 136 164 167 167 161 177 179 176 181 183 185 191 187 188 188 184 187 184 185 185 186 181 187 180 178 183 184 181 181 182 177 177 180 181 178 180 182 176 180 176 178 172 173 169 173 170 169 169 164 167 171 155 148 142 139 140 135 134 117 117 103 57 19 18 25 29 23 41 23 34 47 48 45 46 44 44 48 46 55 41 33 34 33 28 25 50 47 59 56 41 81 118 148 164 177 166 170 182 181 178 181 184 189 187 190 192 188 186 189 188 183 188 189 186 186 182 182 182 181 183 182 180 178 179 182 182 180 182 184 179 183 180 180 177 174 173 175 178 173 173 167 171 166 168 157 147 146 141 146 137 118 122 116 91 31 18 27 23 25 37 33 27 43 48 46 46 43 45 44 48 54 44 38 30 31 27 31 57 64 64 54 51 106 130 160 165 172 168 176 182 183 184 183 186 188 186 192 193 188 186 186 187 185 190 190 188 187 189 181 182 181 182 178 179 183 179 183 180 181 181 182 181 177 177 181 180 177 173 179 179 174 172 169 173 169 170 165 155 147 148 147 140 125 123 119 117 63 23 25 22 27 29 36 31 35 45 49 43 46 47 44 53 50 44 36 32 37 30 43 59 70 69 42 74 117 143 170 174 177 170 177 183 187 185 186 189 187 186 194 190 189 185 186 190 183 184 186 184 185 186 179 182 178 179 181 174 182 185 180 183 181 180 180 182 177 179 181 180 179 174 179 178 177 173 173 170 172 172 164 161 154 152 148 143 127 125 118 127 89 27 22 36 26 34 26 29 31 42 45 48 45 45 46 52 45 47 32 32 32 44 56 64 78 54 57 95 125 155 176 175 182 165 181 184 187 188 186 187 187 189 192 184 189 186 188 189 186 189 188 186 188 183 180 184 180 181 181 174 182 185 180 183 181 179 181 180 180 177 178 178 179 176 176 179 174 172 170 171 171 172 171 164 158 148 150 143 135 129 124 127 112 51 26 26 32 36 25 31 31 41 44 47 45 44 45 51 43 43 32 36 37 48 58 68 75 56 71 111 137 164 178 181 182 174 182 188 189 188 185 183 186 189 188 184 188 184 190 186 186 193 188 186 186 184 179 180 180 181 180 178 181 186 183 188 186 179 183 181 179 178 180 177 178 180 162 175 172 172 167 171 170 164 168 167 162 152 157 144 142 131 130 130 121 78 42 26 32 43 28 25 30 38 45 42 44 43 41 50 44 34 41 39 48 51 59 82 62 89 86 118 143 175 186 186 185 183 186 191 191 189 186 182 185 189 182 186 189 188 191 188 188 190 184 186 185 187 180 177 179 178 179 181 181 184 183 187 187 180 185 182 182 177 178 176 180 179 172 178 172 176 167 174 171 162 165 165 165 157 157 149 147 137 130 134 125 90 63 32 45 42 34 22 27 38 45 41 42 41 44 55 38 43 39 43 49 63 71 65 92 97 96 121 157 182 188 187 183 187 190 193 192 190 188 181 186 188 176 182 193 189 192 192 190 191 187 185 185 181 186 182 179 179 178 179 182 182 181 184 183 182 182 181 180 178 180 178 183 180 177 178 177 174 173 176 174 166 167 165 163 160 158 156 153 137 134 137 131 101 74 60 53 47 34 27 28 32 38 45 38 43 41 54 41 52 41 48 51 74 77 66 92 94 111 127 168 181 190 185 188 192 193 195 193 191 191 185 185 187 180 188 192 193 193 195 193 190 192 186 187 184 184 185 181 180 179 180 179 181 181 181 185 184 184 185 179 179 179 181 178 183 178 179 179 171 172 179 175 169 173 165 157 165 158 160 154 144 138 141 142 107 86 64 63 59 35 27 36 29 32 44 40 44 37 50 53 46 46 57 52 90 70 85 84 93 121 144 169 186 186 187 192 197 195 193 195 190 190 189 184 192 188 195 193 196 194 198 193 194 194 190 187 184 183 185 182 181 180 178 178 180 181 184 185 184 187 185 184 177 181 181 179 182 175 181 178 175 171 180 173 172 178 167 164 162 166 156 157 148 141 144 145 119 77 68 60 67 43 34 38 30 27 41 34 43 40 53 46 56 39 69 55 87 80 91 80 93 119 146 171 185 184 193 197 198 193 193 190 192 189 190 188 192 195 194 194 196 196 195 193 192 196 190 190 186 184 183 185 179 181 178 178 180 184 187 185 185 183 183 184 182 179 187 181 184 178 180 182 178 177 174 176 173 173 172 169 165 168 160 158 149 140 145 152 127 76 64 65 59 56 44 43 25 32 36 39 37 40 51 48 55 48 71 84 78 75 101 80 98 116 153 179 185 186 197 195 196 193 193 188 184 193 189 191 194 195 196 199 196 198 196 197 197 196 192 192 191 189 185 183 179 180 177 180 180 184 189 184 186 186 184 183 184 179 184 183 184 181 182 179 179 181 175 178 171 176 173 174 177 156 175 160 150 149 144 149 134 80 70 57 60 61 49 47 23 34 33 37 39 37 49 56 51 58 65 85 74 72 85 80 100 117 164 182 182 187 197 196 198 196 188 189 187 190 188 192 195 195 197 199 197 196 199 201 200 198 194 194 196 190 187 184 185 177 180 184 183 184 187 187 187 185 186 188 185 181 183 189 182 186 183 181 181 183 178 173 174 175 174 175 178 172 177 165 157 151 147 152 136 89 72 59 60 61 46 45 25 32 34 39 37 29 54 58 49 61 63 86 76 67 69 74 87 126 176 184 179 191 193 199 196 198 193 189 191 190 190 191 196 195 198 199 196 202 197 200 200 199 198 201 201 196 188 190 190 183 187 185 182 182 189 188 188 188 182 188 187 183 184 190 187 187 186 185 183 181 181 177 178 173 176 172 177 185 178 172 165 152 151 145 139 96 67 48 61 72 42 31 33 32 35 41 33 32 55 56 46 67 59 77 72 77 54 60 88 154 187 184 178 189 196 198 200 196 195 190 192 192 192 186 199 192 197 201 199 203 199 201 199 196 198 200 203 203 198 191 195 186 189 187 188 185 190 196 190 193 183 190 188 183 185 191 188 185 190 189 186 182 181 185 175 177 175 175 178 180 178 173 163 157 150 142 136 105 72 48 59 73 42 34 34 37 36 36 32 32 51 53 51 64 59 75 78 75 42 64 88 183 180 182 181 183 196 197 195 197 193 191 193 190 191 184 193 186 194 200 201 201 198 200 200 198 202 200 202 206 206 199 202 191 189 187 192 186 193 197 193 192 187 190 189 184 188 188 189 191 189 189 185 182 183 183 176 177 174 174 179 173 178 173 160 156 151 148 140 103 78 49 53 69 52 40 27 42 34 32 31 32 54 53 56 67 62 68 77 64 46 65 110 192 181 178 180 183 194 196 196 192 189 184 187 180 186 179 182 186 183 196 197 199 197 194 198 199 198 200 197 206 205 203 204 199 194 187 198 192 199 200 195 193 188 190 186 189 189 186 189 188 187 186 187 183 185 179 177 177 170 171 174 173 173 170 157 154 156 151 140 101 72 59 54 77 53 39 29 42 31 34 27 37 52 53 58 67 59 71 65 68 50 70 121 191 186 172 179 182 193 195 197 184 168 163 157 166 162 162 168 161 165 178 179 190 193 187 193 193 195 197 195 199 202 197 202 203 201 195 200 195 200 202 194 191 184 187 187 186 187 186 185 187 188 184 187 183 185 184 182 181 169 172 172 173 173 166 160 150 154 150 138 118 61 60 58 72 60 40 35 47 29 33 33 32 57 49 59 69 61 69 48 74 63 64 134 192 187 170 172 179 190 182 180 166 148 146 140 148 139 144 151 136 138 149 146 167 168 172 183 185 191 191 192 190 195 186 199 200 202 193 197 197 192 196 191 184 184 183 182 185 186 182 183 183 184 180 177 177 182 182 179 184 168 176 174 173 170 160 157 148 141 142 138 131 61 49 52 75 68 46 38 40 34 30 32 33 55 53 62 63 68 61 45 73 75 57 156 194 179 177 163 159 166 152 150 147 132 133 131 142 129 126 134 115 119 129 125 134 137 147 168 176 181 188 186 186 185 181 187 196 195 192 185 190 182 183 184 178 180 183 179 178 181 180 175 182 178 175 176 177 178 177 175 179 168 177 174 181 169 164 155 141 141 144 131 135 64 45 49 74 67 51 38 40 35 33 35 26 46 50 65 71 63 49 56 75 72 66 165 188 177 167 155 154 155 148 145 131 126 114 115 123 117 112 98 91 102 107 113 121 121 140 153 168 173 184 185 181 179 178 183 184 191 178 180 179 180 175 177 177 173 172 172 168 171 168 161 167 157 158 159 167 167 167 165 155 149 155 168 177 174 160 148 138 140 141 131 138 72 39 45 74 66 50 40 38 32 32 36 29 31 98 117 59 61 39 45 89 67 73 170 189 183 171 156 155 162 151 147 135 130 128 117 124 126 115 103 99 111 118 122 130 132 146 146 158 168 182 183 173 180 171 177 180 181 176 172 173 172 169 171 172 167 166 159 148 140 127 123 125 120 121 122 138 147 141 151 146 134 135 138 149 176 171 139 132 142 140 130 137 75 42 40 73 66 47 43 42 29 33 31 27 43 168 132 66 65 29 36 87 73 79 180 192 187 168 159 160 159 156 155 161 164 169 174 171 159 155 150 136 141 135 133 135 136 144 146 150 167 175 180 174 176 172 169 175 170 170 169 168 170 165 162 159 160 158 144 137 120 102 97 94 87 94 94 108 113 123 134 128 127 125 123 118 141 154 143 132 139 129 133 132 78 41 39 62 75 39 40 36 34 29 33 22 62 173 108 86 77 26 63 50 64 82 179 197 193 159 144 127 104 96 90 93 97 106 113 122 111 166 208 139 145 140 141 143 131 136 143 152 166 176 177 177 173 169 169 170 166 169 158 168 167 166 157 154 150 145 130 126 112 106 93 86 75 73 82 86 92 104 116 111 118 123 118 124 124 123 138 126 133 123 133 135 89 37 38 63 68 36 43 43 26 31 31 32 63 143 97 118 102 19 78 64 59 78 161 186 139 83 103 118 132 140 145 168 167 168 148 143 125 126 141 119 96 79 92 76 93 74 122 123 135 141 142 152 157 160 164 166 160 166 160 164 163 158 152 145 142 129 122 116 108 106 101 89 89 82 85 77 83 87 98 97 111 114 116 117 117 106 119 113 126 130 130 134 82 39 37 60 62 38 38 42 30 28 35 25 84 131 87 146 105 25 85 62 76 109 124 97 125 153 169 163 168 167 182 198 195 173 149 145 145 145 144 140 129 121 110 109 102 77 88 67 50 83 78 75 71 78 78 92 87 88 108 98 113 110 100 109 111 106 98 99 97 101 96 104 115 113 123 118 115 117 105 119 117 122 123 120 116 103 106 111 123 127 138 133 78 48 37 53 68 36 28 47 25 31 33 30 143 134 59 171 102 39 73 54 91 108 97 133 153 165 186 174 175 181 189 173 158 165 168 155 148 138 144 138 128 114 103 95 94 105 106 143 86 54 161 155 166 170 157 156 130 118 110 97 87 87 65 49 48 54 59 57 70 62 71 78 87 98 74 77 81 80 90 92 106 120 131 122 121 121 114 120 120 135 142 129 76 62 40 58 59 40 26 49 33 25 36 27 193 142 59 192 115 47 68 26 157 92 152 170 123 146 184 179 180 166 143 110 155 144 99 137 72 68 68 94 69 80 94 104 88 79 85 101 117 69 103 165 197 209 197 199 194 184 185 170 145 135 73 55 87 99 101 104 105 122 143 150 152 157 147 142 138 128 116 94 69 69 65 83 96 128 132 124 117 137 137 130 71 56 52 45 54 54 35 51 26 34 30 30 213 133 93 200 122 65 26 53 142 124 150 189 153 134 152 159 162 139 125 116 105 89 86 196 93 66 28 40 58 60 84 78 83 89 91 92 83 144 49 151 199 207 184 168 170 180 196 185 152 94 65 118 108 104 88 99 107 115 119 128 142 153 140 152 152 161 169 163 152 120 101 98 79 67 77 114 125 136 136 134 63 42 37 44 48 66 41 48 27 32 31 33 224 113 156 176 128 41 39 63 129 111 160 185 178 170 164 161 144 131 134 121 134 112 139 170 84 82 61 41 95 83 115 118 81 97 89 118 112 149 47 113 205 183 131 111 107 129 167 175 161 48 117 111 94 75 68 83 89 112 113 121 146 148 134 134 140 143 159 167 165 149 123 121 119 113 103 57 85 139 143 108 34 35 38 35 46 45 54 85 35 29 29 39 209 135 182 205 145 118 58 160 130 87 179 180 184 186 185 183 167 170 162 147 148 147 134 144 129 75 109 86 89 95 136 132 93 194 82 111 166 170 51 97 215 188 172 158 141 139 114 96 107 60 131 101 62 74 92 94 89 87 81 63 77 86 91 111 129 136 148 142 151 154 132 118 128 132 129 119 78 75 100 89 60 59 41 30 52 40 78 115 52 24 30 30 175 171 190 207 137 44 3 80 125 98 185 176 182 191 187 188 186 185 185 168 171 155 140 139 129 139 135 125 122 121 131 117 112 131 130 137 176 187 31 165 170 153 151 138 132 138 159 162 70 84 123 92 101 124 84 67 81 125 102 44 49 22 34 52 61 95 120 133 110 126 136 128 128 138 130 122 104 87 82 125 63 64 42 43 44 57 98 121 35 28 31 27 102 198 208 204 153 138 51 68 119 136 189 175 188 191 186 191 185 182 183 173 183 177 161 154 142 145 149 139 133 128 124 124 118 133 141 154 152 166 66 172 152 158 172 170 159 132 118 154 117 82 136 133 155 93 88 87 137 163 151 50 92 52 75 59 71 107 60 81 95 103 118 136 135 142 129 87 93 112 99 114 64 58 45 43 41 89 91 113 40 25 32 31 68 219 212 192 177 192 133 59 137 169 184 172 186 190 186 192 183 182 176 170 178 173 165 165 150 146 139 147 137 135 129 123 125 125 145 137 155 139 85 153 173 181 170 164 175 156 98 132 153 68 143 154 143 133 131 125 131 142 142 102 113 92 93 82 122 130 109 105 89 90 117 125 132 124 100 93 132 74 138 40 78 49 50 29 56 108 55 116 34 22 34 29 103 224 208 183 195 202 209 32 164 185 177 176 186 189 183 193 187 179 180 181 166 166 152 145 131 134 114 125 118 118 115 112 134 143 146 155 173 100 56 159 195 190 179 157 179 176 110 83 157 57 157 134 106 117 129 129 128 131 134 129 140 132 120 126 136 136 138 127 112 104 107 112 107 127 115 123 136 61 114 68 59 48 56 41 80 110 47 114 31 29 28 32 142 217 193 177 203 203 231 18 171 186 174 179 191 186 183 193 195 179 182 188 180 184 175 172 150 148 143 134 129 134 136 137 159 154 162 174 137 37 69 188 193 188 172 156 169 172 96 78 105 37 156 136 102 99 124 129 114 112 121 126 135 135 133 135 132 132 127 116 104 120 131 132 140 141 137 128 137 63 83 113 39 42 105 45 118 94 47 118 27 29 26 32 146 212 185 155 197 206 225 62 166 181 175 188 187 188 191 194 198 195 181 191 189 182 186 181 181 175 165 161 163 158 155 166 162 165 185 202 86 16 127 191 183 187 168 175 176 193 105 175 164 24 111 146 124 106 138 138 122 115 110 111 111 122 127 127 123 117 123 112 132 142 153 153 151 140 141 129 141 63 75 131 7 34 84 84 148 82 47 117 26 29 36 21 156 215 182 161 148 221 216 113 130 179 178 190 184 194 197 194 200 200 185 184 189 185 179 181 178 180 179 162 163 164 174 174 178 184 199 157 47 103 174 182 189 189 166 172 171 184 134 96 81 22 98 144 140 127 128 143 139 128 126 122 116 112 109 116 111 125 134 139 155 153 149 160 157 138 144 129 140 65 85 111 10 25 55 140 159 78 73 98 20 27 35 25 142 212 172 158 118 218 208 157 80 179 180 188 187 196 197 199 200 196 186 184 181 184 174 181 179 180 184 179 176 173 185 185 185 195 203 58 131 152 186 186 195 190 176 173 168 190 159 127 63 76 58 146 159 139 139 141 144 127 142 138 141 139 136 139 137 147 153 157 159 161 151 148 144 141 150 131 145 58 111 85 26 34 112 146 153 97 102 63 17 31 31 33 109 207 168 184 118 209 207 218 44 169 184 187 197 197 195 196 200 197 188 187 180 181 175 179 179 179 172 180 174 183 182 185 193 219 86 133 141 170 193 192 193 187 169 181 165 190 163 137 88 102 50 112 157 163 148 149 151 147 149 142 148 142 152 157 149 159 159 161 158 157 158 150 140 156 153 131 140 60 141 51 37 59 101 135 152 124 99 25 25 31 30 34 57 210 198 182 144 196 202 194 132 92 192 192 198 200 198 196 197 197 187 181 179 177 175 176 173 170 183 178 173 177 182 177 204 106 129 161 131 188 196 192 194 198 175 172 183 189 152 142 110 91 122 38 182 182 167 150 160 161 154 144 152 155 148 156 153 155 163 164 161 162 165 162 156 154 149 131 131 90 140 41 69 91 99 124 145 154 41 24 32 31 29 29 14 153 213 198 189 191 191 179 188 92 145 197 201 198 197 199 197 193 191 186 178 174 177 172 167 174 183 176 179 178 187 186 95 164 181 156 154 194 188 198 186 191 169 179 200 169 144 140 138 80 127 86 103 191 163 167 171 167 168 162 161 156 156 153 160 163 161 170 164 169 171 165 158 160 152 127 125 143 75 92 112 128 98 106 131 156 13 26 28 32 29 31 31 111 218 194 197 186 191 183 156 186 99 144 207 200 199 201 207 194 193 184 179 177 180 178 178 178 178 181 179 185 167 80 165 208 169 155 174 186 190 189 194 196 166 189 186 160 133 146 149 101 105 130 41 155 169 165 168 168 166 169 163 157 159 160 158 164 157 169 169 173 170 170 163 156 154 127 122 155 43 131 149 144 103 88 120 154 12 29 29 30 31 30 37 112 213 198 194 196 200 184 156 172 195 113 113 199 201 203 202 199 194 185 181 182 176 178 180 185 185 183 174 114 102 170 194 171 169 144 190 183 196 188 198 192 166 191 177 154 133 147 161 117 104 132 133 57 157 164 160 167 164 164 165 153 153 154 166 159 153 166 180 176 178 171 170 159 151 127 142 93 84 146 155 130 93 86 122 132 16 28 25 31 26 32 16 165 209 199 196 194 202 194 144 174 191 188 155 90 123 205 207 202 194 183 186 185 178 187 189 184 157 116 100 139 164 161 153 165 157 144 188 185 199 181 207 187 168 188 167 165 140 146 156 139 94 135 135 123 70 151 163 159 162 160 166 164 154 161 160 164 152 168 173 176 172 176 175 157 147 140 133 65 119 157 142 98 87 92 141 93 19 29 34 26 30 30 13 166 206 193 192 193 189 199 144 178 186 191 195 206 140 131 174 215 186 170 181 164 147 140 120 110 105 150 153 154 136 133 137 179 143 145 190 194 197 175 225 179 175 193 166 178 152 141 140 144 93 116 150 128 121 89 126 161 163 161 159 163 168 162 153 164 164 165 172 177 173 177 171 154 153 145 71 118 111 177 108 85 85 100 149 35 23 29 29 30 28 30 43 92 206 184 181 178 128 178 154 172 184 188 193 204 203 195 179 164 145 121 124 123 134 140 148 156 147 140 130 122 124 133 164 171 135 155 195 195 187 179 224 171 172 193 166 176 164 144 130 139 95 103 139 143 129 127 98 95 151 155 163 162 166 165 166 173 175 167 180 175 176 179 168 167 151 88 125 121 122 167 81 92 92 119 136 8 28 32 30 26 34 29 60 32 123 155 138 121 67 71 169 170 183 183 191 193 203 197 194 185 176 163 149 143 133 127 124 126 130 131 139 139 140 156 164 156 130 167 199 193 177 198 214 173 171 184 174 171 169 148 130 134 100 99 129 144 163 139 129 127 78 97 145 153 165 166 170 176 180 177 183 168 169 193 209 121 106 144 138 115 127 147 84 98 120 143 71 16 36 32 25 35 23 31 60 51 48 73 69 63 52 22 167 175 185 180 193 192 195 189 184 184 174 166 155 153 156 160 165 177 176 172 172 165 158 167 155 153 160 187 201 196 182 218 208 169 167 189 179 171 169 153 139 140 101 94 129 148 172 178 161 126 118 102 85 81 104 128 143 152 163 167 168 113 156 166 131 145 151 144 131 118 131 137 127 126 140 111 18 31 33 34 28 34 25 32 57 56 59 56 52 53 48 26 170 174 186 183 190 193 194 193 190 198 188 187 170 173 175 170 170 177 177 178 166 171 166 174 163 168 178 188 209 198 193 218 198 176 167 181 178 186 174 161 140 142 102 105 134 151 172 181 186 168 136 119 117 118 119 106 96 104 106 109 127 129 156 170 166 153 149 140 126 121 131 129 136 132 143 71 12 37 30 34 27 34 27 30 58 57 54 55 56 49 48 36 173 179 182 186 186 193 191 191 191 191 186 186 182 176 171 173 174 173 172 168 166 172 176 174 168 197 171 200 217 196 182 195 183 176 175 177 181 209 184 170 136 152 113 114 145 164 171 181 185 175 164 164 144 133 131 131 133 138 148 145 158 164 165 159 160 149 141 137 117 124 135 133 129 142 141 39 24 35 31 34 30 34 27 32 54 57 56 55 56 49 44 38 175 183 177 184 189 185 183 183 183 185 184 179 178 170 164 166 162 158 163 155 169 175 179 160 177 196 158 180 188 182 171 161 167 165 168 164 181 190 180 156 130 151 139 134 159 179 182 186 183 167 166 168 170 166 158 151 137 132 136 138 144 148 154 153 151 148 139 131 118 113 130 134 132 143 146 42 24 34 34 32 31 32 26 28 59 56 53 53 57 49 43 44 179 184 178 188 185 175 164 172 173 179 181 174 166 169 167 158 153 145 145 157 166 179 184 164 182 175 148 141 137 155 162 156 140 150 157 151 155 143 142 133 116 147 155 146 170 183 185 184 177 170 166 167 171 166 168 163 164 159 141 144 141 142 145 145 148 146 132 134 113 73 114 130 134 133 144 42 27 31 30 32 34 29 25 30 51 61 53 55 52 46 42 46 183 182 176 188 185 166 154 162 168 179 184 179 170 167 154 147 146 142 155 169 179 184 187 175 154 147 104 108 129 126 135 136 124 128 133 126 109 110 109 109 118 132 145 134 177 185 173 167 166 166 169 161 166 165 166 161 160 161 163 158 154 149 147 139 146 138 134 135 96 18 75 114 131 136 121 25 27 35 28 36 30 35 28 32 56 56 51 57 56 47 42 50 184 181 184 186 182 166 146 160 171 186 185 183 176 165 152 151 147 158 163 181 188 190 187 185 157 113 90 90 132 129 115 102 94 95 99 94 93 94 76 63 91 110 136 87 183 170 165 155 154 154 155 156 159 165 163 157 159 155 156 158 159 152 153 144 143 133 128 133 75 19 33 62 103 98 44 27 31 35 24 37 28 28 31 33 58 54 56 60 53 53 38 47 180 178 184 190 184 159 133 163 182 195 194 189 171 159 159 157 159 165 170 185 190 190 189 191 188 156 99 140 151 122 119 86 62 63 79 86 93 54 47 26 37 91 107 63 172 170 166 154 144 140 144 156 159 154 160 151 154 149 146 146 147 145 146 142 140 133 121 134 63 20 35 34 42 35 34 30 36 33 29 33 31 28 33 27 58 62 50 57 51 53 44 46 177 176 184 191 183 148 125 173 191 198 191 183 165 165 167 156 157 169 174 182 188 187 188 189 188 197 161 151 149 120 100 104 58 62 80 86 98 81 104 60 59 79 77 100 173 172 176 152 147 136 142 155 152 151 152 151 147 139 140 143 139 138 127 137 134 127 117 135 55 21 40 30 34 34 33 31 32 28 37 30 30 28 29 32 59 57 58 56 58 50 51 33 177 174 184 188 180 154 118 180 195 195 191 175 171 168 152 142 157 161 172 177 188 185 176 184 181 186 186 164 135 106 81 79 53 39 62 80 98 93 116 104 90 95 94 136 169 169 169 157 148 146 139 152 157 154 159 151 144 135 130 135 130 129 116 134 130 125 116 135 45 22 40 29 38 30 34 30 34 28 39 31 30 34 30 31 53 59 56 53 55 55 54 16 168 178 183 186 175 158 146 188 195 195 180 165 165 147 132 148 159 163 175 177 182 175 176 181 185 177 176 171 138 109 89 53 52 43 48 79 82 96 107 115 93 99 108 144 162 164 169 164 157 149 145 153 156 158 163 160 142 136 127 128 120 121 118 130 119 121 120 130 33 26 34 32 35 34 35 31 31 32 35 32 27 35 26 29 57 58 56 52 50 53 58 10 147 178 186 181 177 160 170 193 191 195 164 182 155 138 152 154 157 160 171 184 176 173 173 182 174 171 164 169 151 124 94 58 58 52 48 70 72 90 91 105 106 104 119 153 157 157 158 158 160 149 146 153 152 162 160 164 145 141 133 124 122 119 126 128 119 114 131 115 20 35 35 31 37 31 36 31 31 32 29 31 32 34 25 33 58 54 56 56 49 55 56 19 119 176 178 183 175 165 176 193 194 190 172 183 152 156 151 148 147 142 173 166 174 165 163 177 161 157 151 157 149 132 113 79 66 53 45 65 80 94 91 99 115 115 125 149 160 157 158 152 160 151 144 156 154 160 162 165 157 147 138 120 121 116 127 137 113 119 134 94 18 34 33 37 30 35 29 34 30 34 25 35 29 33 28 29 56 56 54 57 50 57 46 37 75 170 177 175 172 169 185 191 197 188 166 166 150 145 145 123 119 143 160 162 171 159 148 174 162 158 152 151 155 138 125 106 84 72 55 75 84 100 96 103 120 124 136 141 158 155 157 155 151 145 144 151 155 158 156 153 152 150 132 127 129 139 133 134 107 122 136 71 21 34 37 33 31 32 32 34 32 31 34 32 27 32 26 36 54 61 52 54 55 54 49 43 32 156 177 173 172 170 190 188 197 184 157 155 148 130 130 117 120 132 144 146 154 150 148 163 168 149 155 142 144 134 128 110 107 103 89 106 98 104 118 102 132 133 139 145 151 141 154 159 152 143 137 136 154 155 151 153 151 152 139 124 145 146 139 127 112 122 132 41 30 31 34 35 31 34 30 35 31 31 31 35 26 29 31 32 59 58 57 49 55 52 42 57 14 127 172 173 170 172 185 184 190 179 147 139 127 103 94 97 104 122 139 146 143 148 146 160 168 154 149 146 149 130 123 91 106 117 121 126 122 115 120 118 123 129 134 138 140 138 150 155 155 146 142 125 143 152 142 149 146 155 133 123 145 147 139 118 118 124 116 25 35 32 35 31 34 30 34 33 27 40 28 31 29 30 32 29 56 51 55 55 52 55 46 51 25 80 164 171 171 171 177 186 185 174 154 127 118 96 91 78 50 56 141 162 172 170 172 170 170 169 152 158 159 148 117 105 116 139 151 139 131 112 120 112 122 125 135 126 135 128 139 143 142 144 151 136 128 145 143 145 148 154 123 134 150 144 136 113 121 129 86 20 35 36 34 34 33 33 33 29 34 32 31 32 32 28 31 30 54 53 54 58 51 52 47 46 44 39 145 161 165 169 171 179 181 165 151 121 117 114 118 117 108 105 70 116 154 165 168 164 159 162 151 159 165 146 127 125 140 153 161 145 144 132 117 117 112 116 118 118 130 120 120 126 131 133 141 137 145 133 137 149 153 144 123 140 152 142 124 114 117 133 45 26 36 32 39 27 35 28 32 27 39 26 34 29 31 31 29 30 56 57 57 51 48 51 48 45 49 27 106 151 159 167 161 168 174 160 138 117 111 123 119 132 146 158 152 91 92 98 107 108 104 107 106 110 131 131 139 145 154 151 138 119 135 143 139 136 134 125 125 122 117 108 108 104 114 117 124 124 136 133 134 153 154 137 123 148 147 142 115 113 120 110 24 32 32 34 36 32 30 29 31 29 32 29 29 29 29 35 24 34 61 56 56 55 49 55 50 48 49 35 40 150 143 159 159 158 164 153 127 121 109 125 142 150 151 160 174 151 127 115 100 92 89 84 87 74 85 96 125 144 126 99 76 66 82 95 108 117 134 140 137 134 118 115 94 88 100 98 103 103 124 128 138 153 155 127 128 142 140 130 114 112 118 65 20 37 31 35 35 27 34 30 30 30 32 27 32 27 33 32 28 31 56 60 52 53 49 57 47 46 47 48 22 103 145 142 151 158 155 150 126 123 114 133 155 159 155 165 169 174 144 140 144 122 103 79 78 66 75 56 87 79 64 61 58 65 63 68 70 69 80 96 104 115 109 104 69 58 79 92 89 96 109 129 146 154 151 117 130 148 139 123 109 118 107 21 31 34 31 33 34 28 37 27 31 32 29 36 28 27 32 29 33 29 57 55 53 55 50 51 58 40 47 47 39 60 143 130 141 148 154 144 129 130 118 146 164 162 166 171 172 167 161 145 146 154 145 135 109 97 89 63 52 50 42 49 56 54 53 63 58 63 55 50 60 63 73 75 88 84 56 74 94 100 113 135 147 147 145 108 129 142 133 116 102 121 45 30 32 32 33 31 30 33 33 32 33 29 28 32 32 28 29 31 30 23 54 54 53 51 56 53 50 49 43 45 49 27 119 130 131 135 140 144 138 137 131 156 160 163 168 172 178 162 160 158 146 148 144 146 143 137 141 129 117 98 104 108 108 99 96 103 104 105 105 110 105 107 112 125 130 142 129 113 113 109 113 131 144 146 137 104 131 139 121 108 107 84 25 31 32 35 32 34 29 37 31 28 31 31 33 27 30 31 29 29 29 29 60 53 53 53 52 54 52 45 45 46 45 30 81 133 129 133 136 149 143 141 145 158 157 162 171 178 168 168 163 143 151 147 132 134 138 134 141 139 133 133 140 144 145 137 120 124 129 122 122 121 123 119 116 113 123 137 147 131 120 111 121 133 145 141 127 104 129 135 112 100 101 32 33 28 33 35 32 31 28 35 26 34 28 32 33 26 30 31 29 31 30 24 50 59 55 52 53 53 44 51 41 45 46 27 78 132 135 124 124 147 137 145 146 157 154 160 169 177 164 170 163 150 130 140 130 123 124 127 125 122 120 127 127 125 122 115 106 111 114 118 118 116 112 104 108 120 141 142 148 140 129 129 131 131 143 134 110 105 133 117 104 102 50 26 35 30 32 32 30 32 30 33 32 28 33 29 32 25 33 28 29 34 28 28 55 57 51 53 50 53 46 48 46 43 49 26 94 132 123 128 121 143 139 143 141 156 159 159 162 169 161 170 165 150 137 129 111 106 103 110 101 107 113 111 111 108 106 100 105 104 112 111 99 103 93 109 129 145 148 146 148 142 129 134 130 129 131 120 104 103 119 103 97 69 24 36 32 33 33 32 33 28 36 27 34 29 30 30 30 28 35 26 30 32 30 28 50 60 46 56 50 55 46 49 48 47 47 26 100 152 118 135 130 129 141 146 143 157 160 162 163 161 153 169 158 151 145 136 115 94 74 64 51 66 83 80 71 80 82 86 83 83 83 89 86 104 117 132 147 149 146 145 141 143 129 132 130 127 122 108 95 109 104 98 76 28 29 38 32 32 32 34 33 30 34 30 33 29 30 31 27 30 30 32 28 31 28 31 48 58 51 54 56 51 53 45 51 47 48 18 116 157 122 131 143 119 140 153 146 150 150 154 156 157 147 157 152 150 148 141 126 103 91 83 64 67 50 49 41 46 49 51 62 77 87 92 107 129 140 136 157 139 139 141 142 145 142 127 136 114 113 96 90 103 105 80 30 30 32 34 31 36 31 34 28 34 35 25 32 29 34 26 30 30 30 30 30 28 29 25 57 53 56 52 54 55 49 54 47 50 50 29 128 158 135 124 135 114 133 144 143 141 141 144 152 148 142 150 151 149 144 141 129 121 105 103 103 97 88 75 81 80 82 88 88 100 115 118 130 136 140 134 134 132 131 142 140 139 131 137 135 115 106 82 93 96 97 37 32 31 32 32 33 28 35 32 32 35 31 25 34 31 28 30 33 21 33 32 27 30 28 30 60 50 57 54 55 54 51 52 55 46 53 20 137 150 156 117 129 119 118 136 137 141 142 141 148 148 149 148 143 151 147 144 142 138 125 112 110 100 93 90 101 94 102 109 113 113 120 128 131 127 128 129 120 128 136 142 133 136 128 130 129 110 93 83 90 94 55 31 28 33 32 30 31 33 28 33 30 30 34 32 30 30 31 27 34 28 28 27 32 28 25 31 57 50 54 53 55 57 49 57 50 50 53 19 151 152 156 141 114 133 103 141 124 138 143 141 144 147 154 143 143 148 150 151 148 143 143 130 118 115 109 110 106 113 111 121 121 124 122 130 120 118 123 120 128 133 135 135 131 129 119 126 116 98 81 85 90 71 25 33 33 31 29 33 33 34 31 32 33 29 29 31 29 28 33 28 33 31 26 31 27 30 31 24 55 54 57 50 46 59 50 53 56 50 53 20 162 154 147 155 121 125 109 128 124 138 151 139 138 149 154 150 149 148 152 153 147 151 147 147 141 140 135 144 122 131 129 132 131 129 126 127 121 116 119 120 126 132 128 126 121 120 117 112 106 86 85 81 86 25 38 30 31 30 30 37 31 34 28 33 28 34 29 28 35 28 30 28 32 26 32 29 32 32 32 28 55 56 57 50 54 56 53 50 58 50 51 30 169 159 148 156 151 112 118 113 128 134 138 136 139 155 153 160 151 152 159 159 155 158 155 153 151 147 140 142 139 134 130 142 132 132 129 125 121 114 118 119 124 126 127 115 113 112 114 112 92 89 85 83 49 23 34 33 33 30 28 38 29 28 33 30 30 35 23 33 32 29 32 30 31 31 28 27 34 29 30 29 50 55 56 49 55 54 54 54 51 52 46 60 173 162 148 153 156 144 108 107 133 129 139 136 140 149 151 156 152 156 160 157 155 158 155 153 147 143 144 137 141 139 141 140 134 135 134 131 129 126 130 126 127 118 116 106 98 114 103 97 83 84 92 43 25 35 30 30 29 37 27 32 27 37 31 24 36 31 29 28 31 31 31 32 29 23 32 31 26 32 30 30 51 53 50 57 48 56 56 58 59 58 38 72 176 168 151 152 152 157 133 102 103 128 127 142 138 157 145 152 148 155 159 160 154 161 149 148 147 134 134 135 138 134 141 146 142 147 134 135 133 133 136 133 129 119 105 108 101 109 94 79 80 94 38 12 20 24 31 32 35 34 31 29 37 28 32 29 34 29 26 38 25 32 28 31 30 26 27 30 26 29 27 29 49 56 52 57 60 64 62 60 53 53 20 102 172 164 153 151 150 160 163 112 96 123 129 138 136 145 136 150 141 148 155 153 154 148 140 139 139 133 130 135 136 133 138 136 140 142 128 137 131 136 124 126 116 109 114 109 100 95 73 68 94 49 14 14 17 18 20 26 28 31 34 32 35 28 31 32 30 34 24 36 27 31 27 30 26 33 31 28 22 28 28 31 47 60 71 63 67 56 57 43 49 38 12 122 174 163 156 152 155 156 146 164 98 113 119 126 136 137 137 136 140 143 145 153 146 134 145 131 133 133 135 128 134 130 130 136 133 145 127 138 136 129 125 117 115 99 113 105 95 89 61 77 117 49 11 14 19 14 18 18 20 27 21 34 37 32 35 27 29 28 32 33 24 28 28 26 28 28 30 27 28 29 25 30 69 71 68 64 59 46 50 43 42 34 24 151 172 157 162 166 158 158 153 161 150 95 109 112 134 128 127 129 144 140 143 139 133 134 142 130 127 131 120 130 130 131 126 130 132 131 131 121 126 120 116 114 117 105 103 102 87 78 63 98 125 68 6 12 17 17 21 16 21 22 15 25 34 43 35 31 22 36 27 28 29 29 34 29 26 31 23 27 27 29 27 22 67 76 62 60 47 44 47 40 33 39 29 167 169 160 162 170 162 155 159 158 156 133 93 103 123 123 134 128 122 124 142 132 132 121 131 135 123 133 125 127 119 125 116 128 128 123 125 119 113 121 102 107 116 108 91 87 59 79 107 100 119 91 9 16 14 20 13 19 17 21 16 23 33 39 43 34 28 27 35 30 27 31 28 30 23 30 24 25 26 27 22 24 75 64 64 58 47 48 34 46 42 14 61 177 164 159 166 168 172 157 159 159 148 159 123 92 103 109 123 131 123 123 126 126 133 118 119 130 124 118 124 120 114 125 122 113 119 112 120 107 115 93 102 112 96 94 88 61 76 116 117 92 111 107 12 8 13 17 18 19 16 23 17 19 36 33 43 44 34 27 32 26 31 31 25 30 27 26 29 22 27 26 25 26 75 63 65 56 47 46 41 40 31 10 123 172 155 164 169 166 174 167 155 162 150 149 151 117 82 91 99 113 115 114 112 116 114 103 106 120 115 110 112 119 111 119 111 109 102 99 93 105 87 87 96 101 83 81 45 71 121 112 112 91 109 121 25 8 11 18 17 18 16 18 19 26 30 37 39 42 46 35 29 29 32 27 30 30 26 26 26 23 29 23 20 26 66 65 57 55 47 48 38 43 11 47 165 164 155 163 170 173 173 173 161 156 148 145 143 144 116 82 76 82 90 101 101 92 113 84 104 111 107 101 104 105 100 105 98 95 94 84 82 91 83 88 85 73 71 58 65 119 120 115 107 89 108 113 22 7 16 11 18 18 19 21 21 25 30 38 35 39 43 42 46 26 26 27 29 21 31 28 25 26 26 22 19 27 65 68 62 50 50 47 36 29 3 110 166 157 156 166 166 176 175 175 173 161 145 146 136 138 139 150 88 66 67 75 76 72 83 62 78 92 97 88 79 83 87 83 86 82 66 68 75 80 75 82 59 61 51 85 120 120 115 113 113 87 111 91 17 15 12 13 16 17 21 21 18 28 31 31 35 39 44 50 49 47 32 21 29 30 24 25 32 20 29 20 23 28 64 59 58 56 47 46 32 4 31 130 166 155 154 167 171 171 180 177 173 168 150 142 133 119 142 141 154 120 77 48 53 58 65 61 70 76 65 70 65 54 63 65 61 55 55 46 57 64 53 56 46 57 104 117 119 119 112 115 112 97 113 42 16 11 16 11 16 16 18 21 21 23 29 33 38 42 43 50 58 51 57 31 24 24 25 23 27 18 26 23 23 21 69 64 62 52 51 50 7 33 68 156 161 151 163 166 169 172 183 180 180 174 156 138 131 115 129 144 147 154 129 114 73 51 46 47 48 51 48 42 40 47 48 43 40 44 40 37 35 41 45 64 86 98 118 114 116 115 113 115 109 98 110 18 10 19 10 11 17 14 19 24 21 24 35 34 43 45 54 58 55 56 59 59 36 20 24 28 20 24 24 28 16 26 70 66 58 52 54 35 12 68 85 166 155 159 164 166 171 176 179 180 175 174 159 148 128 128 120 139 143 142 136 119 114 101 75 62 43 37 36 29 30 34 32 34 35 41 47 69 69 79 83 85 92 104 111 116 114 114 111 113 111 100 112 15 14 13 18 12 10 18 17 26 26 30 31 45 54 46 58 56 57 54 61 59 60 27 17 28 17 24 24 23 23 27 