P2
92
112
255
46 42 46 38 48 43 45 45 43 48 41 52 39 45 44 47 45 49 37 31 32 39 51 42 45 44 55 59 45 51 50 42 48 44 41 32 36 33 37 28 37 31 29 28 35 28 21 29 27 24 24 25 21 23 17 19 16 19 16 27 15 18 22 18 16 19 17 23 15 18 18 24 19 23 25 17 18 16 19 24 30 29 34 39 40 39 42 38 43 36 37 43 43 45 44 46 45 48 39 47 47 39 50 37 48 46 49 42 40 33 36 33 41 43 45 38 47 47 48 47 42 43 58 50 51 55 51 45 51 46 48 43 51 42 40 39 36 36 32 41 44 36 33 33 23 30 22 29 19 23 23 20 27 18 23 19 17 20 19 17 25 15 23 22 16 18 23 20 19 14 22 18 26 25 32 37 36 39 37 42 35 46 35 36 42 40 47 41 49 41 47 38 46 50 47 44 45 41 48 36 38 32 45 39 38 39 30 39 43 47 45 32 42 35 45 47 51 55 58 60 57 50 58 62 56 53 47 51 45 32 47 46 49 49 51 46 42 39 36 31 36 29 31 29 30 29 26 18 20 27 24 20 19 22 26 17 23 13 23 23 20 15 18 16 25 20 27 30 37 44 34 45 39 39 39 39 38 45 45 44 47 46 44 42 50 41 48 47 38 44 36 31 38 36 39 38 30 38 29 29 25 28 38 22 42 47 53 73 80 81 78 88 93 89 84 86 77 71 70 59 51 51 49 49 51 52 47 55 57 60 37 50 47 41 39 33 36 31 24 26 29 29 29 23 20 21 25 19 18 19 21 20 21 16 17 21 18 18 21 28 33 36 39 37 42 40 38 32 48 36 46 45 44 51 39 44 45 41 51 45 37 23 33 31 40 41 32 36 28 30 22 26 20 24 33 56 82 102 112 111 125 122 119 113 109 104 110 99 94 93 87 70 69 64 58 56 59 69 58 81 82 66 69 72 67 66 68 49 53 43 41 31 35 35 30 30 22 27 30 21 15 20 21 20 18 18 19 20 15 21 18 27 30 33 19 40 40 41 43 35 46 44 47 44 50 45 45 44 44 45 46 45 26 23 29 41 41 32 34 23 24 21 23 16 31 51 97 120 131 139 142 136 142 137 134 118 122 120 122 120 115 116 101 99 79 92 71 70 70 90 83 85 101 82 88 101 81 99 94 99 90 69 62 58 63 52 52 48 28 35 24 21 23 17 18 21 13 20 22 26 17 19 15 25 19 25 18 38 42 40 40 37 47 48 40 49 49 48 40 49 42 48 39 31 29 27 36 45 31 28 22 24 17 22 24 42 94 123 136 145 149 155 149 150 149 148 150 148 147 151 149 145 142 141 141 132 127 128 120 111 112 110 112 109 112 110 109 119 121 122 123 127 125 109 99 95 94 77 73 79 58 55 43 23 22 21 18 19 20 15 22 17 27 17 17 16 19 21 19 34 37 43 41 37 47 45 51 40 50 43 49 47 49 34 26 28 28 42 40 30 27 25 23 24 26 29 77 120 136 144 147 152 153 149 152 153 153 159 155 157 155 160 157 153 155 157 159 156 151 155 151 149 145 149 149 135 140 139 147 146 150 153 138 149 141 142 124 119 111 101 97 99 90 79 73 51 32 24 18 22 20 17 22 22 20 21 19 14 18 19 23 25 39 43 40 40 44 44 51 41 52 51 45 44 45 26 26 35 37 38 37 34 31 29 30 28 41 106 134 140 144 153 151 150 155 156 155 159 161 158 156 161 159 160 161 158 159 163 163 161 158 158 164 160 163 158 165 153 158 153 158 153 161 157 147 156 152 148 145 140 128 120 115 112 113 101 98 89 65 50 30 18 18 15 16 19 18 23 24 18 19 18 26 25 36 34 39 46 47 47 47 45 49 46 44 36 39 34 36 42 38 36 40 36 33 32 28 57 120 144 146 151 150 150 158 156 160 161 161 165 160 161 161 161 160 160 164 161 164 164 167 165 164 157 165 165 167 162 165 163 165 160 161 161 161 156 156 158 155 153 150 145 138 134 134 128 131 120 121 110 102 93 63 36 18 17 17 20 18 20 22 25 18 22 18 18 24 34 43 43 48 44 50 44 42 39 38 37 41 42 44 35 38 41 39 37 33 32 78 129 142 151 152 154 155 152 159 164 164 166 168 166 166 163 170 167 166 163 168 166 162 166 167 169 168 160 160 168 164 163 164 167 166 159 165 164 158 157 159 157 157 156 151 150 143 143 143 134 138 130 132 121 119 111 105 83 43 23 17 17 16 15 23 21 22 21 14 21 15 31 39 44 48 45 49 43 48 33 37 44 43 46 33 36 30 35 38 43 43 85 135 147 150 160 155 157 160 160 162 169 171 173 172 174 172 172 172 171 173 166 170 168 167 168 169 171 169 164 160 166 162 168 168 167 167 163 166 162 159 159 159 155 159 157 154 150 149 145 148 140 138 137 135 129 124 119 118 105 91 62 28 17 18 17 24 23 20 23 17 15 15 27 39 46 46 50 45 47 36 32 41 45 38 38 36 33 33 37 55 41 92 133 149 160 162 155 160 165 163 171 168 178 179 175 178 179 175 175 174 171 172 173 167 170 167 172 171 171 169 170 167 165 168 171 169 169 167 162 165 164 163 163 158 160 162 162 158 151 148 153 149 148 145 142 141 135 125 127 123 123 112 103 76 27 19 21 18 24 22 28 14 17 18 26 35 42 50 47 45 42 26 41 37 41 45 44 34 38 36 48 56 82 131 152 166 160 159 157 166 163 172 169 176 181 178 183 178 181 178 179 177 180 177 177 173 174 167 173 171 176 173 176 168 170 169 176 168 172 168 170 171 164 170 168 165 169 167 166 165 159 161 157 154 151 152 148 146 138 133 127 133 128 122 126 108 77 24 19 22 22 23 25 27 20 19 20 38 44 49 50 37 32 29 45 38 42 30 37 39 42 46 57 80 120 151 166 162 157 167 165 169 173 177 176 180 183 184 187 182 183 180 180 180 184 182 180 179 176 175 178 176 177 176 179 173 172 171 173 173 176 172 175 179 171 175 174 169 170 172 168 164 164 167 160 162 158 163 153 152 147 138 134 136 135 134 134 119 108 64 20 19 22 21 28 27 25 21 23 33 47 50 46 27 34 35 46 30 25 30 43 38 48 48 66 104 140 157 165 160 159 165 170 172 178 178 178 185 186 189 191 188 186 183 185 183 185 183 176 183 181 180 181 176 180 180 182 181 179 176 174 178 178 177 179 180 177 175 177 175 172 175 171 167 168 166 163 165 162 161 168 156 150 142 140 133 141 135 137 126 114 95 58 21 20 20 24 22 27 28 19 31 43 43 38 25 41 42 29 27 32 41 50 48 54 48 82 122 149 164 165 162 162 172 177 173 181 181 182 188 189 188 188 187 184 186 183 184 183 185 180 183 184 180 181 181 184 179 181 182 183 175 176 181 181 176 181 179 179 176 179 176 174 174 173 169 172 168 170 167 165 162 171 168 151 147 142 137 140 133 140 126 114 114 94 49 14 21 24 25 27 29 37 21 35 39 29 33 40 32 25 32 46 42 59 55 43 64 105 133 164 170 174 165 169 182 181 178 180 183 185 190 187 190 188 189 185 188 188 186 185 189 189 182 188 182 180 182 182 184 181 184 179 175 180 180 181 179 181 183 180 179 181 178 180 173 174 173 172 176 174 169 171 165 170 166 164 154 145 145 138 143 138 129 119 118 113 85 29 15 25 23 24 26 42 27 27 38 41 29 31 30 27 38 62 56 62 55 44 94 120 148 160 171 173 164 179 181 181 182 180 186 186 188 190 192 193 187 187 187 188 184 188 189 190 186 185 186 182 181 181 182 181 181 178 181 179 184 181 181 181 184 182 177 180 180 181 179 176 174 175 179 175 172 171 168 173 165 170 164 153 147 144 147 145 133 121 123 118 113 59 20 24 24 24 30 31 37 32 46 34 34 29 32 26 52 62 70 67 43 64 110 132 159 173 171 175 169 178 182 186 184 185 189 187 185 189 194 191 189 185 186 190 184 186 186 189 184 189 188 180 182 179 181 180 179 177 186 184 181 181 182 179 180 181 179 177 178 183 180 178 173 180 178 178 173 173 171 171 171 170 165 161 152 150 152 144 137 123 124 117 128 87 37 16 32 23 29 29 34 27 44 35 29 41 34 41 64 62 77 53 52 86 117 145 168 176 175 181 164 182 182 187 187 187 188 187 187 191 193 186 189 186 187 189 185 187 184 190 181 187 183 179 181 180 180 181 178 174 184 183 179 183 182 181 181 182 182 177 180 178 179 180 175 180 176 180 171 173 171 171 172 173 168 165 156 151 149 146 139 130 127 121 127 115 50 27 28 27 33 37 22 32 48 28 35 29 44 47 68 68 78 46 69 104 134 153 174 180 183 172 172 183 187 189 189 188 183 187 188 191 189 184 188 184 189 189 185 190 189 188 186 188 184 180 186 180 181 182 181 175 186 187 181 187 185 179 181 180 180 178 178 179 177 179 178 171 173 177 170 170 169 168 172 169 170 166 163 152 151 150 144 137 129 127 127 124 75 46 26 24 35 39 25 30 34 37 37 45 50 46 73 78 60 75 82 117 134 163 177 186 183 179 184 184 190 190 188 185 182 183 190 187 184 187 189 185 190 188 184 190 191 184 188 185 184 179 176 181 177 181 179 176 184 185 184 189 188 178 184 183 183 178 179 178 176 177 180 166 171 178 169 176 164 172 171 160 165 166 164 158 155 156 145 141 134 130 130 129 92 70 34 28 39 43 29 21 37 41 43 41 60 56 78 63 89 90 95 118 149 175 188 188 184 186 184 190 192 192 190 188 182 184 189 184 180 184 192 188 190 191 189 191 188 184 184 185 185 184 179 180 176 180 178 179 185 182 183 186 185 182 183 183 182 179 177 178 176 183 179 178 177 178 175 173 171 176 173 165 166 162 170 159 158 158 152 149 135 131 136 131 106 80 51 47 52 39 33 23 53 38 47 47 64 70 71 67 106 93 103 121 159 181 186 189 183 187 188 195 194 192 190 192 181 184 189 179 180 185 194 191 191 193 191 191 188 188 184 185 183 185 185 182 177 179 178 180 182 179 183 181 183 183 183 184 179 178 180 181 179 182 183 178 178 179 177 168 175 177 175 167 169 167 157 166 154 165 153 154 136 135 138 140 110 92 68 58 60 48 31 28 49 43 49 54 72 77 75 82 84 104 116 137 169 181 189 184 188 189 196 195 194 194 191 191 189 185 189 187 185 192 194 194 195 195 195 193 192 192 184 187 184 184 185 182 182 179 180 178 177 183 180 183 184 186 182 187 184 177 178 181 181 176 183 178 180 177 178 168 176 179 174 170 176 170 157 166 162 158 159 154 145 140 140 147 123 92 74 58 71 54 35 30 47 44 63 50 81 78 79 92 71 106 123 144 167 185 184 188 191 196 200 194 191 195 191 190 188 188 187 192 193 195 193 196 193 198 194 192 196 194 191 186 184 183 185 184 178 181 181 177 179 179 182 186 186 183 187 187 188 179 180 182 183 180 183 176 182 178 179 172 175 176 174 175 177 171 164 164 164 164 155 159 146 139 145 148 132 91 68 66 59 65 45 38 62 39 70 67 78 78 95 90 79 103 117 149 172 184 183 191 198 194 198 191 194 188 187 191 190 189 190 194 196 193 196 196 197 194 196 192 196 194 190 190 188 186 182 186 177 182 180 176 178 181 186 187 185 184 185 182 186 180 182 180 187 180 185 178 182 180 181 179 177 174 178 171 173 173 171 171 167 164 165 155 149 142 142 152 136 100 64 70 56 64 57 44 53 51 66 94 65 89 79 95 79 103 122 156 182 182 184 197 194 198 194 194 192 187 182 193 189 190 192 195 196 196 200 196 197 198 198 198 196 195 192 193 192 189 188 183 180 181 176 181 179 181 184 189 184 186 187 186 185 186 183 179 183 186 183 182 184 178 179 181 180 176 173 172 176 174 173 182 173 158 177 158 151 152 144 150 139 107 74 62 56 63 58 52 48 61 57 92 65 86 69 78 83 100 122 169 181 182 184 196 196 196 197 196 186 190 188 190 188 191 193 195 197 196 200 196 197 199 200 200 200 198 193 199 196 192 186 186 187 180 179 185 184 185 181 188 189 186 188 182 188 189 181 184 182 191 185 184 188 181 183 180 182 177 176 175 175 174 175 175 178 179 176 164 160 150 148 152 142 110 87 55 64 60 63 43 46 64 55 90 66 85 57 68 71 93 144 180 185 181 184 195 195 201 196 197 194 189 191 189 192 188 195 196 196 198 200 197 205 196 199 200 199 197 200 203 201 197 191 188 195 185 186 186 186 181 185 190 191 188 191 183 186 188 186 181 187 189 188 186 189 184 188 181 182 180 179 176 174 176 173 173 181 184 177 171 164 152 150 143 142 119 75 56 48 64 70 43 47 68 52 84 63 96 51 53 64 101 171 186 183 180 183 193 200 195 201 195 195 191 192 192 194 185 193 194 191 198 201 200 202 201 198 202 196 197 200 199 203 205 202 193 197 190 187 189 187 190 184 190 197 192 193 185 190 188 187 183 184 191 188 186 189 191 188 183 182 182 183 175 179 174 176 177 179 178 177 172 161 159 150 146 140 120 92 54 51 59 73 43 52 64 60 73 75 86 47 50 67 117 190 179 183 182 180 191 199 195 197 194 194 190 192 187 192 184 189 190 185 193 200 201 201 198 199 199 199 199 202 199 202 206 206 203 203 198 190 188 189 192 187 195 196 194 193 185 193 188 189 183 190 187 189 190 190 187 188 182 186 182 181 177 177 173 173 176 178 170 179 169 159 154 153 149 146 118 88 62 52 54 71 50 57 69 59 67 72 74 48 56 70 142 191 181 176 179 181 191 196 195 196 189 186 181 183 176 184 178 178 182 183 182 195 193 198 196 194 196 198 197 200 199 197 206 202 206 200 205 198 190 194 196 194 201 200 196 194 189 190 189 184 190 188 186 188 187 187 185 188 187 182 186 180 178 178 170 169 174 173 173 172 167 154 153 156 153 142 126 79 65 58 57 76 57 59 68 58 70 68 61 60 61 64 156 189 187 170 180 179 188 196 195 191 176 160 157 149 161 156 154 162 159 153 162 171 173 186 192 184 190 193 192 195 195 194 197 202 194 201 203 202 201 197 198 196 200 202 195 190 187 185 185 187 185 187 185 185 185 188 186 186 183 184 184 182 183 183 172 169 174 171 174 169 165 159 149 152 151 140 139 79 57 58 58 74 62 60 68 61 71 48 65 69 69 60 173 191 186 171 170 170 187 184 175 173 160 146 146 139 146 138 138 151 140 132 136 145 140 160 160 167 174 183 185 193 189 191 190 193 183 197 197 203 199 192 194 196 188 194 192 184 182 186 180 184 184 185 180 183 182 186 180 176 176 177 182 181 178 185 169 177 174 173 173 167 158 155 147 139 142 139 143 91 53 46 54 79 68 64 63 67 63 48 56 85 62 78 178 192 178 178 163 158 161 155 146 140 139 131 128 127 144 128 122 128 121 109 121 123 122 129 134 137 154 176 171 183 187 185 185 184 180 182 191 196 191 191 181 189 181 179 184 177 182 179 180 178 175 181 180 173 179 178 175 174 179 176 179 176 174 177 166 176 173 183 172 169 162 154 140 141 144 135 134 100 54 33 63 71 66 70 72 64 51 51 67 82 62 87 186 185 178 168 154 154 156 149 148 145 131 124 112 113 119 119 114 103 87 93 102 106 112 122 119 137 145 162 169 177 184 185 180 179 177 182 184 183 189 176 178 179 180 172 179 173 177 168 172 168 169 168 163 156 165 151 157 150 160 165 164 166 163 150 147 146 161 171 178 172 157 146 137 140 141 137 134 115 47 38 53 74 67 118 57 60 47 26 82 82 58 96 190 187 184 171 159 157 159 164 147 143 134 131 132 120 127 128 126 108 106 101 117 121 124 132 130 148 143 149 162 170 184 182 172 180 171 173 178 182 176 175 172 172 171 168 171 172 169 167 160 154 142 133 122 117 119 113 119 110 124 139 140 140 148 147 138 130 138 133 159 179 167 134 131 140 143 131 137 110 52 41 40 76 67 117 67 65 39 23 69 83 64 108 194 191 187 171 160 163 158 158 159 154 166 168 176 181 178 168 159 158 151 140 146 135 134 136 137 139 150 144 156 172 175 180 175 176 172 168 175 173 166 168 170 166 170 165 163 155 160 161 146 143 132 116 100 97 90 90 86 90 98 106 115 123 132 126 127 121 126 115 123 141 152 142 132 139 129 131 136 115 50 41 41 64 78 94 88 87 24 61 48 60 60 107 193 198 194 159 143 125 103 90 82 81 85 86 95 101 109 107 123 203 187 131 144 139 140 144 131 134 140 146 159 171 174 178 177 172 169 171 166 169 167 167 157 170 166 166 158 154 151 147 137 127 121 111 107 94 86 78 75 71 89 80 95 103 116 109 115 124 119 121 127 121 122 139 124 134 120 133 136 117 62 30 42 67 67 90 123 116 18 65 74 57 62 96 178 181 132 79 102 112 136 147 142 165 178 175 177 156 150 142 121 137 135 107 92 75 90 70 87 79 78 141 117 136 137 139 147 152 159 162 165 164 160 164 161 164 163 159 151 147 142 135 125 120 115 107 105 101 88 95 82 86 84 74 87 89 97 95 110 113 115 117 118 112 107 118 111 126 131 128 136 114 54 36 42 61 62 88 150 115 29 73 56 88 73 135 107 94 129 156 168 167 165 168 173 189 199 194 170 149 142 145 143 145 142 135 127 122 110 111 105 95 64 95 44 55 86 75 73 68 76 72 81 91 80 88 107 92 112 109 96 103 109 107 100 96 98 96 102 95 104 111 116 119 125 119 116 120 105 119 116 123 123 122 120 110 105 105 112 121 127 137 137 108 62 43 36 57 69 62 176 114 36 66 53 78 102 98 110 134 153 164 185 177 174 176 185 190 163 160 165 170 157 149 142 139 142 136 125 112 102 96 91 102 105 126 139 49 85 164 157 168 178 160 162 146 129 111 111 97 86 88 69 53 41 57 51 62 56 71 61 70 79 71 115 74 76 76 78 80 89 90 103 114 132 123 124 120 121 114 121 117 134 139 144 95 71 56 36 62 58 56 199 130 41 66 38 87 151 85 172 165 122 143 181 178 183 172 161 128 116 157 143 98 141 85 69 42 115 68 75 82 93 104 91 82 78 97 100 133 37 124 165 194 210 198 199 197 191 183 182 169 144 137 86 54 67 101 100 103 104 105 123 144 150 150 158 150 146 139 137 128 115 94 72 68 67 68 90 108 132 132 124 115 135 139 136 99 59 59 45 48 54 94 205 136 62 44 19 113 145 115 170 186 151 133 149 156 168 150 130 125 112 103 90 76 192 129 64 40 47 28 72 53 85 79 81 93 86 91 91 90 132 61 151 196 209 191 174 168 174 186 197 181 150 110 45 115 111 110 94 91 103 107 116 120 127 137 153 146 144 152 155 161 169 163 157 127 103 102 85 74 66 83 117 124 135 136 142 98 46 45 34 46 46 166 180 141 43 36 60 76 146 100 182 183 177 168 165 163 148 140 125 133 121 132 108 137 169 117 68 74 44 51 103 77 116 118 85 92 85 107 118 109 150 38 115 199 198 141 122 108 120 140 176 174 161 50 104 116 104 82 72 73 84 91 113 112 118 136 154 140 130 140 140 146 160 168 164 157 128 122 116 117 112 94 56 80 139 143 130 66 27 40 33 37 46 192 205 139 145 35 159 116 118 102 189 179 184 186 184 185 169 165 164 155 145 148 146 134 140 141 85 88 101 84 88 98 136 134 100 165 120 83 144 160 162 38 98 213 197 168 159 140 135 127 111 99 117 47 133 112 78 59 84 91 94 89 90 86 68 81 88 93 103 120 134 136 147 145 149 157 141 119 122 129 133 126 116 80 66 110 96 66 61 52 37 32 52 193 209 143 62 8 33 146 91 128 188 177 182 190 187 189 186 183 187 177 166 169 152 139 140 132 129 139 127 122 118 119 134 118 112 125 132 127 148 188 157 40 161 175 159 156 146 133 137 151 159 155 64 72 130 100 80 121 108 77 71 82 119 103 43 56 27 31 43 58 76 102 127 135 113 122 139 131 125 130 137 127 123 106 92 62 127 84 65 58 38 43 45 209 205 156 131 77 3 151 95 166 183 177 187 192 185 194 185 186 181 179 175 182 174 159 153 142 143 147 143 136 131 126 125 123 116 127 136 149 153 174 126 83 172 151 155 164 173 160 148 126 121 165 110 69 139 130 139 135 83 81 88 140 162 153 54 92 55 49 80 38 88 97 63 84 99 100 113 131 136 138 141 128 90 88 111 103 117 76 65 54 40 43 41 212 193 170 189 163 21 142 125 186 176 176 186 190 186 193 185 184 181 174 171 181 174 165 164 154 147 143 140 146 136 135 129 125 125 122 140 146 133 180 95 107 155 167 179 171 166 168 173 132 100 144 152 54 147 153 145 140 125 122 120 134 144 146 103 101 97 87 93 74 128 125 100 98 89 86 110 123 133 129 129 95 89 130 83 116 78 72 66 47 46 33 50 208 183 191 202 210 70 114 169 189 173 177 186 188 183 193 187 184 173 183 174 167 165 155 151 137 136 126 122 128 121 119 117 112 128 134 142 156 149 192 57 80 156 190 193 181 163 167 184 150 99 98 163 40 160 139 121 118 126 134 128 134 132 138 127 135 136 118 120 125 138 136 137 125 113 101 106 107 117 111 126 106 120 139 75 83 112 48 59 44 58 38 76 194 179 202 201 222 104 84 186 187 171 182 190 188 182 191 193 191 171 191 182 178 181 171 168 147 141 140 130 128 124 129 131 130 154 154 151 174 155 140 14 84 184 195 191 177 162 156 182 162 84 91 123 25 161 142 114 92 111 128 124 112 116 123 126 135 136 131 130 134 134 134 130 121 107 110 126 124 130 134 139 133 128 137 81 54 139 48 37 64 71 52 112 186 157 199 204 217 148 73 190 176 177 186 189 187 191 190 199 197 182 187 189 188 183 185 181 178 173 169 160 160 155 156 152 162 160 164 168 202 160 60 21 132 192 185 192 168 178 163 183 184 73 176 146 16 113 145 130 104 120 139 134 119 113 111 113 116 122 128 131 127 123 122 123 111 121 133 149 151 150 147 140 141 127 141 83 46 150 50 6 69 95 82 144 181 159 150 220 208 198 52 184 170 184 190 184 192 196 192 197 202 193 181 189 189 183 180 181 178 179 179 167 160 166 160 169 175 173 181 184 205 123 42 97 173 182 185 193 164 173 169 180 173 114 113 101 16 81 140 145 126 123 136 143 134 126 122 118 110 114 108 113 119 113 122 130 131 148 153 151 155 160 148 138 144 128 141 87 47 151 36 11 33 64 137 162 168 160 112 216 210 233 30 160 170 185 188 187 195 196 201 196 202 189 191 180 186 185 177 180 179 180 185 181 174 173 172 182 180 183 187 203 153 57 129 155 184 186 193 195 174 175 166 177 183 151 112 61 74 46 139 155 139 138 135 141 141 126 140 134 135 137 130 132 132 130 143 149 154 158 160 153 146 157 141 140 149 129 142 84 57 144 30 24 40 124 150 155 160 179 108 201 216 219 106 94 188 185 189 194 197 193 200 194 203 187 189 183 181 182 175 176 182 175 178 180 175 177 179 183 187 189 203 189 70 140 140 177 193 190 194 189 170 181 172 171 188 158 131 79 97 52 96 160 154 157 142 150 150 141 148 145 144 148 142 153 155 149 159 158 159 162 155 163 151 139 144 156 150 130 144 75 92 117 33 33 65 118 139 153 189 181 130 190 210 194 185 55 169 186 191 198 201 196 196 197 201 191 188 184 178 178 174 176 178 170 178 179 176 173 180 182 179 197 191 80 151 144 144 191 195 192 194 198 177 173 171 185 183 148 143 101 87 121 39 147 177 170 158 145 158 155 152 141 147 152 147 151 160 148 154 163 162 163 157 164 162 153 155 153 150 129 135 85 126 76 43 72 81 108 132 147 206 196 174 194 193 194 180 140 73 196 193 201 198 196 201 194 197 191 188 182 177 174 176 175 165 171 179 179 180 173 181 183 187 155 105 159 179 135 166 195 191 197 187 196 177 169 188 202 158 144 142 129 78 129 92 76 194 173 164 161 168 167 164 157 157 160 154 151 156 160 162 161 169 164 166 172 167 162 158 158 149 127 130 120 124 63 87 118 105 102 113 136 214 194 198 188 184 196 163 173 136 99 186 205 201 197 199 205 200 189 191 184 178 175 180 177 176 176 179 176 179 179 184 189 120 102 194 194 160 149 186 184 190 193 190 199 170 174 195 184 147 136 145 147 96 97 132 62 117 175 164 170 171 167 168 169 161 162 155 165 151 160 164 157 167 170 170 171 171 162 160 159 152 127 117 161 78 84 126 147 130 100 93 120 217 196 194 192 192 202 159 160 189 152 89 166 205 202 200 205 202 193 195 181 181 180 178 177 178 183 181 185 181 181 148 98 123 197 193 174 155 157 194 180 198 188 196 203 161 183 188 172 141 135 149 158 116 101 122 130 58 142 169 159 162 168 165 163 168 158 150 159 157 165 159 156 165 182 171 178 171 169 161 156 151 126 127 138 58 121 155 149 131 87 84 121 208 198 197 197 196 209 160 152 183 194 177 100 115 164 204 206 202 198 191 183 182 184 175 182 185 191 181 171 144 107 109 159 170 175 158 177 139 161 193 185 199 184 198 202 159 189 180 166 150 136 150 158 139 93 126 143 125 66 126 167 162 163 161 162 163 165 154 152 160 163 162 148 164 176 178 177 177 174 172 155 148 130 151 74 91 135 163 133 99 87 93 133 199 197 193 193 195 211 156 155 183 188 189 194 171 101 125 196 213 205 191 185 194 184 173 175 164 145 121 103 118 149 160 148 143 136 162 175 124 171 190 193 199 177 215 195 163 195 173 172 166 146 143 147 148 96 114 142 135 126 80 117 157 156 164 164 157 164 166 161 163 152 165 161 166 172 173 171 176 171 171 153 144 154 98 84 115 150 155 99 87 85 103 150 204 186 188 190 168 184 169 154 183 187 191 196 202 202 181 145 165 158 117 111 121 111 113 120 120 132 143 153 153 139 132 124 127 150 171 162 127 173 196 198 188 177 226 187 161 197 176 169 174 158 138 135 145 101 95 135 145 129 125 113 83 141 165 158 158 160 166 166 164 159 166 169 162 176 177 177 188 171 166 157 168 101 89 128 114 163 131 83 91 85 116 154 190 176 164 153 123 59 176 159 177 182 186 191 198 203 198 204 191 197 182 168 159 154 150 145 136 134 132 129 120 131 123 131 146 167 164 144 134 183 198 191 181 189 219 179 168 181 182 165 174 166 142 130 137 101 95 123 140 149 145 118 130 91 90 135 157 160 163 166 166 172 177 180 174 184 170 165 163 175 187 157 97 119 141 123 116 156 108 74 100 110 138 108 69 105 99 88 70 11 120 174 178 182 183 193 190 199 196 188 186 178 162 154 144 140 135 138 141 150 153 156 157 163 150 151 163 157 154 148 155 192 204 192 176 211 215 173 167 181 187 171 169 168 149 133 139 108 94 113 138 155 174 161 133 129 116 81 81 113 135 155 165 168 174 179 177 188 160 174 204 205 137 113 145 146 136 116 124 140 127 103 121 135 126 31 54 62 58 51 57 19 102 180 176 187 182 192 193 194 193 187 190 189 187 175 171 167 171 168 171 173 180 182 174 171 170 166 171 161 152 169 178 197 205 190 195 218 205 179 161 184 184 178 176 171 152 142 142 107 93 117 145 155 180 181 178 148 116 114 118 98 87 87 88 91 106 112 123 131 81 113 145 152 155 157 149 143 132 118 130 126 142 132 133 147 71 12 57 58 51 50 58 9 112 184 175 187 184 187 194 195 192 192 193 193 185 187 173 178 175 173 172 175 176 177 170 163 171 167 176 169 175 182 180 203 216 189 195 213 192 180 172 175 173 193 191 177 162 137 150 112 101 131 147 164 174 180 186 173 157 145 120 116 130 129 139 132 137 144 134 159 166 167 168 165 158 147 146 138 124 118 135 131 131 130 139 140 36 17 55 53 60 46 54 15 123 186 176 179 188 188 191 189 188 191 188 185 189 182 182 172 166 168 172 166 171 165 163 174 174 180 171 166 201 172 178 209 210 182 179 175 178 170 174 175 176 196 202 185 165 132 151 133 115 140 164 170 179 184 186 174 166 172 169 155 149 137 133 124 134 141 142 148 157 161 160 153 155 146 139 135 119 116 134 134 132 135 148 131 24 25 56 55 57 50 51 7 129 186 182 181 185 187 182 175 179 177 180 183 183 173 170 169 167 165 158 156 151 152 156 168 177 180 159 174 194 163 156 164 166 177 165 158 155 156 165 159 159 176 168 162 145 123 145 155 139 158 177 181 185 187 176 165 165 167 167 172 166 165 161 150 141 134 137 140 143 146 149 150 150 146 137 129 121 99 117 135 131 134 138 144 28 25 49 56 52 53 50 12 136 187 178 177 190 185 170 160 168 167 175 179 178 177 166 171 162 155 149 143 143 152 164 173 182 185 167 176 169 154 130 129 127 144 152 152 135 140 143 152 140 137 123 126 121 114 141 153 145 160 181 185 181 177 173 170 168 167 167 165 170 165 162 166 162 153 153 143 146 144 141 144 146 141 129 136 116 43 86 120 135 133 142 130 21 26 53 56 57 44 55 2 144 189 177 186 185 183 168 150 159 163 175 182 183 177 171 163 155 147 147 145 155 166 179 183 185 187 182 146 133 111 60 105 134 123 125 123 115 115 122 116 100 97 107 100 100 118 122 143 122 158 183 172 163 161 159 164 164 158 165 161 165 161 157 162 156 160 160 159 151 154 146 141 142 135 133 132 103 7 40 86 114 126 137 64 23 30 54 58 54 55 46 13 145 187 178 187 186 182 167 144 155 170 183 193 189 185 179 163 154 153 150 157 165 169 185 192 191 188 188 183 131 95 104 136 134 127 111 92 82 78 87 88 91 95 61 47 38 65 99 137 75 139 178 166 161 152 150 147 150 155 155 163 165 156 159 156 153 154 150 159 151 154 150 141 142 134 121 136 79 20 28 36 65 80 54 26 31 32 48 59 51 52 54 2 139 180 179 185 195 184 156 133 153 180 190 198 192 184 163 158 162 160 160 162 167 182 185 189 188 190 192 188 190 134 120 153 148 112 119 86 57 56 74 88 90 80 67 55 32 38 79 101 62 139 171 176 166 149 141 137 142 157 154 154 155 154 157 148 146 142 147 142 143 140 142 133 139 127 120 134 73 12 35 30 37 32 30 39 26 36 53 55 53 54 52 15 137 180 180 183 191 181 148 118 155 193 196 194 189 175 166 170 168 153 155 165 167 181 181 191 186 183 188 188 195 191 165 153 137 110 92 103 65 56 77 75 98 94 94 111 72 70 82 73 105 154 175 174 169 150 149 138 140 151 152 149 156 150 148 143 138 139 140 136 137 127 130 133 135 125 114 138 60 18 37 41 30 31 35 32 31 34 56 57 58 52 62 10 111 181 179 180 190 180 157 127 167 197 194 194 186 172 173 162 146 134 154 161 159 180 175 189 182 176 181 181 178 183 177 155 120 95 77 69 53 35 46 74 83 103 94 121 106 97 101 95 132 156 173 166 168 159 150 148 141 146 159 155 157 163 145 144 135 129 135 125 129 112 128 128 127 123 116 135 48 23 32 33 36 33 36 32 31 34 54 53 51 56 52 29 82 180 179 183 186 174 160 147 186 191 197 190 164 167 161 136 132 154 152 168 163 184 176 182 168 174 182 189 180 171 174 166 132 109 87 49 52 48 40 74 69 91 91 105 111 94 96 109 133 159 163 162 168 160 156 149 147 153 152 162 156 166 155 139 134 128 125 121 121 119 127 124 118 115 130 127 28 28 30 40 28 35 35 33 31 30 57 51 48 56 51 37 57 172 180 185 181 175 162 160 197 189 196 184 165 183 149 146 153 154 158 157 161 180 178 176 175 174 181 171 169 160 169 161 145 119 94 62 61 54 48 55 77 82 85 97 103 111 108 118 144 158 157 157 155 158 161 150 144 153 152 159 156 167 159 148 144 135 124 123 117 118 131 127 113 117 134 110 15 35 33 39 27 39 31 34 32 32 56 58 47 58 49 48 38 157 177 175 184 175 169 172 195 192 193 187 167 180 150 159 151 141 138 138 153 172 163 173 157 155 178 160 162 147 151 154 145 126 116 86 69 55 44 59 73 86 94 92 102 116 117 125 142 158 162 157 157 152 159 151 144 154 156 159 160 162 162 155 145 136 122 122 119 125 136 128 109 122 139 87 19 32 36 35 31 32 37 26 34 31 52 56 48 56 51 51 16 125 171 181 175 171 168 184 191 196 195 182 156 163 149 140 144 127 108 137 142 165 159 174 156 147 171 165 159 152 151 152 151 134 125 110 91 85 56 78 80 91 104 97 105 123 125 138 137 152 153 152 159 151 151 141 143 146 157 157 156 153 151 150 150 133 127 130 144 137 136 121 108 124 137 59 21 31 36 32 36 32 28 35 35 30 49 54 56 55 47 54 21 70 174 177 173 173 170 188 185 196 192 175 147 151 145 127 128 116 122 129 132 148 140 156 144 148 160 170 153 153 144 143 141 132 125 106 110 107 101 107 113 100 114 119 102 133 132 137 145 149 141 148 157 161 151 144 137 133 148 154 154 149 155 150 154 140 123 144 146 143 134 118 113 127 125 35 28 31 35 32 38 28 36 28 35 32 60 47 55 52 42 56 35 35 153 175 170 169 172 180 187 185 188 167 142 134 123 96 83 87 90 108 129 147 146 145 153 147 160 167 166 147 152 150 150 126 118 89 106 116 122 132 122 124 113 120 122 123 128 135 131 142 135 141 150 153 154 147 142 127 138 144 147 141 148 149 155 130 122 142 149 142 131 113 123 124 105 20 37 33 32 36 29 36 27 35 31 25 57 56 52 55 51 45 51 20 115 165 171 171 172 174 183 187 181 165 144 123 117 99 98 96 55 40 85 156 168 178 172 177 172 172 169 160 152 160 161 140 117 110 121 135 158 147 137 128 110 120 108 119 125 135 122 133 131 128 141 139 140 142 153 140 131 138 144 141 150 147 153 120 133 152 145 141 120 116 120 133 64 21 33 38 32 37 30 35 29 37 27 35 54 57 49 54 46 49 45 38 61 155 160 165 167 168 179 178 176 152 146 116 117 115 118 123 116 122 100 66 120 147 160 162 158 156 151 164 141 166 162 136 131 126 141 146 171 138 150 141 129 118 121 114 114 119 115 126 126 115 120 122 131 132 137 133 149 133 131 141 153 154 140 124 137 153 147 130 112 121 119 126 25 27 35 33 35 31 30 34 28 30 29 38 57 51 48 51 51 45 47 43 20 134 151 157 167 162 165 169 171 146 131 113 112 124 120 130 145 153 169 130 96 91 93 102 103 102 95 109 94 113 127 132 139 149 154 152 143 114 125 136 142 140 136 137 126 130 122 120 111 105 106 99 114 114 125 120 137 130 132 142 156 153 133 122 148 147 145 125 109 116 124 92 17 32 30 36 34 36 28 31 30 28 31 32 56 55 47 56 50 53 42 53 22 62 151 141 157 162 152 165 162 140 124 119 108 125 145 149 154 156 166 172 142 129 118 102 92 87 78 98 73 77 83 102 124 141 125 97 77 60 68 82 94 104 114 133 138 138 133 124 120 110 86 91 102 96 100 98 123 122 131 147 153 151 123 130 140 144 131 121 107 119 108 44 22 37 32 34 34 34 27 32 33 27 29 33 51 53 49 56 49 48 45 48 44 23 112 146 140 151 153 160 150 146 119 121 113 136 156 157 158 161 166 175 167 141 141 145 128 111 82 89 62 71 69 60 84 75 62 60 62 61 68 66 72 66 69 76 89 100 110 109 106 91 51 63 76 90 90 90 106 121 137 153 152 146 116 131 148 142 129 111 109 124 72 20 33 34 31 34 33 32 29 38 26 32 32 28 54 55 51 50 58 44 44 49 48 29 74 143 129 140 142 153 153 134 129 130 118 149 166 160 167 166 174 171 163 160 144 145 155 147 141 119 110 91 87 64 48 49 40 51 51 56 51 56 61 58 63 54 49 57 64 64 76 85 92 85 55 75 95 100 107 130 140 148 152 134 107 128 141 135 122 101 112 103 25 31 32 32 35 28 31 33 32 33 32 33 30 28 53 51 56 53 51 57 39 43 46 49 29 120 131 129 138 134 146 134 143 135 131 157 161 163 164 174 173 175 159 159 158 145 147 146 146 142 141 140 139 130 115 100 105 112 110 103 99 99 106 107 106 108 110 108 107 109 123 126 132 145 126 115 113 111 107 125 139 144 148 127 105 131 138 125 112 101 111 47 23 33 31 34 30 37 31 28 41 26 28 34 30 33 54 53 52 53 55 45 47 43 45 48 23 83 133 129 135 128 148 142 145 143 145 158 157 161 169 177 172 168 171 157 144 151 148 134 133 135 137 136 141 139 131 133 139 147 143 144 126 120 126 129 121 123 120 124 119 117 115 116 128 140 148 131 121 111 119 128 139 145 138 120 105 130 136 117 100 107 67 22 34 27 34 35 31 33 27 32 35 25 33 29 31 34 54 52 54 52 47 53 42 42 45 50 17 81 134 134 129 117 140 145 137 145 147 158 154 157 167 176 170 166 171 160 148 129 140 133 125 124 124 129 123 121 121 127 128 125 124 120 111 110 108 116 118 118 117 113 105 107 113 129 141 143 149 140 130 126 131 132 135 142 126 106 108 133 118 110 100 80 29 24 38 29 32 33 30 33 28 33 34 30 25 38 28 32 49 53 49 54 47 47 47 45 40 55 17 97 136 120 130 118 136 142 142 140 144 156 158 160 159 170 161 167 170 161 150 135 130 115 106 108 108 108 104 107 114 113 112 106 111 101 101 105 106 114 111 100 103 95 103 121 138 147 150 143 150 141 129 133 134 125 134 128 113 101 107 119 104 97 86 31 31 35 32 31 35 31 34 28 33 31 35 28 34 28 30 29 43 56 52 52 52 46 48 48 45 52 18 104 155 119 132 130 131 131 146 142 145 157 161 160 163 161 158 161 167 156 149 144 137 118 104 75 74 60 56 76 88 83 75 82 85 87 90 84 85 86 89 85 100 117 123 142 152 143 149 142 142 143 129 131 133 127 125 119 101 96 111 105 99 91 32 28 32 39 31 32 30 35 33 32 35 28 36 29 30 29 32 27 50 53 56 52 50 52 48 47 47 46 16 119 158 126 124 145 126 128 142 154 144 151 152 153 158 157 153 151 157 151 151 147 141 127 111 90 89 69 60 60 48 50 39 45 48 54 52 67 82 86 91 106 125 139 137 148 147 140 140 140 142 145 141 129 134 124 111 114 89 92 105 104 84 40 29 33 31 31 34 35 32 35 27 35 31 29 33 28 32 32 25 30 55 52 55 53 52 49 52 49 47 55 24 131 160 141 119 137 126 114 144 145 144 142 142 144 152 152 142 147 149 151 147 145 142 131 123 109 100 102 102 91 84 71 76 74 76 83 78 91 104 113 115 129 136 141 135 139 132 132 134 142 142 139 132 136 135 126 109 99 79 96 98 100 44 33 24 39 30 31 33 29 35 32 30 37 29 29 32 32 29 33 27 34 58 54 54 55 49 54 53 51 45 52 23 139 153 156 121 127 127 112 131 133 140 139 141 140 146 149 151 144 147 145 150 146 142 143 135 129 116 108 105 102 90 90 100 93 100 107 107 115 114 122 129 133 129 129 132 123 123 130 139 142 132 137 129 132 131 121 100 91 76 96 94 59 31 31 30 33 30 29 33 33 29 32 30 31 33 33 30 28 31 30 28 34 55 53 57 55 51 57 52 50 47 49 26 151 153 155 151 111 129 119 114 139 126 140 143 141 143 145 155 148 143 143 150 150 151 148 142 145 135 122 111 113 103 106 105 109 106 113 123 121 120 124 129 121 119 124 122 122 129 138 136 134 132 131 120 126 117 114 83 87 83 93 69 28 31 35 30 32 33 28 37 35 29 32 32 30 28 31 30 29 29 33 28 33 55 52 45 57 52 54 54 52 50 45 30 162 153 149 154 133 112 135 102 133 124 138 150 143 139 146 149 154 148 148 148 151 153 149 148 145 150 138 137 138 131 139 120 126 129 126 133 126 129 125 128 120 117 119 122 121 130 132 128 126 123 123 118 115 107 102 80 85 86 79 29 34 32 30 33 29 33 35 30 35 28 34 28 33 30 29 35 25 34 28 28 35 59 49 53 53 58 48 55 56 50 43 43 168 160 149 151 158 124 114 112 121 125 135 141 133 139 147 152 157 157 149 153 157 158 155 156 153 155 150 148 145 140 143 138 135 128 138 139 126 135 125 127 119 112 117 118 122 127 127 128 115 114 111 114 112 102 89 85 85 81 42 23 36 31 35 26 33 31 34 33 27 34 30 32 32 25 35 30 29 32 30 29 31 54 49 53 56 52 56 50 52 56 34 71 173 162 150 152 155 154 113 111 112 137 130 140 142 135 151 153 151 157 152 155 160 158 154 155 161 152 153 146 147 141 138 141 136 139 140 135 137 127 135 126 128 123 125 127 124 123 120 116 103 103 115 105 103 89 83 90 83 42 28 33 31 31 30 35 30 32 28 30 32 33 25 33 32 28 34 25 31 32 32 28 31 51 54 49 57 50 61 56 54 60 29 89 176 167 151 152 152 154 155 106 103 114 130 126 141 134 154 148 148 153 150 159 160 159 154 159 157 146 154 140 137 139 135 140 135 144 144 142 142 143 134 136 133 131 139 135 127 125 112 107 102 104 108 97 86 79 90 83 31 13 23 29 30 33 35 33 32 31 29 35 35 30 26 37 29 28 36 28 27 35 26 32 30 50 57 54 61 63 65 53 57 60 5 117 173 167 154 152 147 158 159 150 98 96 125 127 144 132 151 136 152 148 142 149 157 157 150 158 145 140 145 136 133 129 135 134 129 141 135 140 148 136 132 136 130 135 131 124 122 123 103 112 108 99 99 81 69 81 88 28 8 17 17 21 21 29 26 34 37 35 31 28 29 33 32 29 35 25 33 31 29 29 30 28 25 66 61 70 60 57 56 47 50 37 9 138 173 164 157 148 156 153 154 158 134 95 118 122 129 134 140 132 141 139 136 147 146 152 152 137 143 134 135 134 132 137 129 135 130 134 134 136 140 138 128 139 135 130 128 114 125 98 110 116 104 97 92 61 75 83 98 12 15 15 18 15 19 18 21 25 30 29 36 37 30 35 30 28 30 34 29 33 26 30 27 26 29 72 62 62 51 49 48 43 40 29 31 157 172 162 160 161 160 154 156 149 169 121 102 110 113 132 131 127 130 137 146 141 143 145 138 136 147 134 129 128 130 122 129 133 128 130 130 131 134 133 129 126 126 126 118 120 113 110 106 102 103 89 83 58 85 107 115 12 12 15 16 17 20 17 19 26 15 25 22 44 40 32 30 22 35 29 30 26 29 28 33 29 27 60 63 50 46 46 36 46 34 28 51 168 172 159 160 169 164 155 157 159 154 164 107 97 106 123 129 127 129 127 131 130 144 137 128 119 137 130 133 127 136 124 132 122 127 123 126 137 125 129 123 120 121 121 112 103 115 113 102 93 92 63 74 92 105 103 128 19 10 18 12 22 15 19 17 24 12 21 27 35 41 43 30 29 26 34 31 27 29 32 28 30 23 63 59 45 46 43 40 41 37 11 86 174 166 158 163 167 173 161 158 159 160 149 161 110 95 105 117 117 137 128 118 124 135 125 138 123 126 127 130 121 122 123 120 117 121 123 114 122 119 115 122 109 114 105 99 110 111 99 97 86 68 62 108 115 98 103 132 41 7 12 13 22 17 18 16 22 19 17 29 32 39 40 42 30 27 30 33 28 28 30 27 31 26 62 57 49 46 40 45 38 27 3 139 172 156 164 168 166 173 172 153 158 159 148 150 150 107 91 91 110 110 122 122 119 115 119 119 111 107 118 122 118 112 119 121 114 121 117 114 111 104 103 107 106 99 85 97 108 96 82 84 51 66 115 115 116 90 105 126 65 6 9 14 17 15 19 16 20 18 21 23 35 35 42 42 45 30 31 25 29 34 29 26 28 26 58 56 48 46 46 34 37 8 63 171 163 157 160 169 167 173 173 169 154 161 151 148 145 149 101 79 84 91 92 104 104 107 100 120 98 102 112 116 103 108 108 111 106 112 106 102 103 92 90 84 98 80 87 87 88 74 76 53 54 119 124 112 111 91 102 122 77 4 11 14 14 20 17 18 21 21 20 30 32 36 38 41 43 38 45 22 32 27 30 28 26 31 56 54 46 51 37 39 19 15 128 168 157 156 166 167 174 173 177 173 164 155 145 143 142 141 140 128 92 71 72 78 89 86 79 91 76 73 103 97 106 94 87 95 92 96 90 91 86 74 74 85 81 79 93 68 69 62 55 80 113 122 116 115 109 92 98 120 59 9 9 15 12 16 19 18 21 22 21 31 29 40 31 40 45 47 42 54 24 27 25 27 30 24 62 49 53 42 44 24 5 41 157 162 157 154 166 170 171 174 180 171 173 160 145 146 133 126 139 144 154 109 72 58 61 66 64 75 68 65 83 86 81 75 73 67 74 74 72 71 61 51 63 66 74 63 66 54 53 57 100 116 125 114 114 115 112 98 102 101 23 14 14 12 14 17 18 18 20 18 30 23 33 31 37 38 41 49 51 52 60 28 24 25 26 25 60 55 48 50 32 3 33 83 164 159 152 160 167 170 171 177 183 174 176 172 151 138 135 113 128 139 152 150 140 104 73 44 49 51 59 55 57 62 51 54 54 49 52 53 48 49 50 46 44 40 51 41 51 59 78 108 114 117 117 116 112 113 111 101 106 66 6 20 11 14 11 17 16 16 27 19 27 21 34 35 45 41 49 53 56 51 61 55 44 22 23 27 62 52 52 49 9 27 63 123 167 155 155 166 163 169 171 179 182 177 178 172 158 141 129 124 119 133 150 143 148 128 123 110 78 59 45 35 43 42 35 36 33 36 45 30 41 38 32 33 39 42 57 70 82 90 98 111 110 118 112 119 108 115 112 99 113 51 6 14 20 10 14 12 15 18 24 22 23 35 33 41 45 49 55 57 59 53 71 47 69 39 22 14 