P2
92
112
255
46 45 42 44 48 45 47 43 47 43 44 45 46 41 45 45 46 44 50 35 31 28 27 26 37 48 45 50 38 44 43 50 46 40 45 30 35 33 27 27 32 19 33 22 17 22 24 25 17 24 23 24 23 18 20 23 19 16 21 12 21 21 21 24 13 17 22 14 26 11 24 19 17 19 15 19 18 22 22 20 29 22 35 33 41 38 38 38 39 36 40 36 37 49 45 39 50 46 48 43 42 48 47 43 44 42 52 39 48 35 37 25 22 34 36 41 41 48 44 39 46 48 57 60 47 55 51 43 31 50 36 35 30 28 29 30 23 26 27 27 25 27 29 24 29 23 22 19 28 20 14 20 21 17 25 12 21 17 23 11 18 18 14 20 19 18 21 19 22 13 18 16 20 27 29 34 29 44 36 44 32 39 42 38 51 39 50 40 43 48 48 44 45 45 45 49 45 46 48 36 36 29 32 24 37 36 45 43 44 42 32 47 55 56 43 54 46 59 55 44 54 53 37 42 35 34 37 36 36 34 31 38 23 35 26 34 27 25 31 18 26 18 20 19 23 17 21 17 18 23 15 17 15 19 24 15 20 18 26 18 17 22 14 14 22 18 25 27 41 30 42 37 36 37 43 32 45 43 48 47 45 48 47 45 42 48 44 46 47 45 42 31 25 22 31 31 45 41 36 33 38 30 30 31 38 37 35 47 51 63 63 70 76 59 58 57 56 45 53 42 46 36 41 43 36 38 38 42 34 29 39 27 29 28 23 21 20 23 21 17 21 22 17 21 22 17 20 19 15 26 17 25 19 21 14 18 15 22 19 26 29 29 43 41 37 40 44 37 47 45 37 52 45 46 46 38 44 45 46 46 46 38 31 28 22 25 36 42 40 34 32 25 25 21 24 28 22 46 70 82 98 96 96 107 92 89 83 96 92 86 85 60 57 59 43 48 46 45 50 56 49 45 41 39 35 33 37 28 31 28 24 22 24 22 21 17 26 18 19 21 19 25 21 18 19 29 16 18 15 21 13 24 21 32 41 35 40 40 44 35 43 45 42 47 44 45 46 47 43 45 49 44 43 28 28 27 28 33 48 44 26 29 22 24 15 28 20 39 72 109 118 122 124 125 129 127 133 128 120 115 112 107 100 83 76 74 60 59 47 49 57 58 49 57 59 52 66 46 41 48 45 37 36 34 27 31 21 25 24 28 23 23 26 24 22 18 21 25 16 17 20 14 19 15 24 28 28 31 37 42 39 43 48 48 43 44 45 45 49 47 43 42 48 43 28 33 22 36 31 46 40 29 25 22 23 21 29 31 65 104 134 139 143 142 155 150 146 151 146 143 132 129 120 121 109 108 102 92 81 71 65 59 63 68 65 58 89 70 74 69 58 64 75 65 51 39 42 34 25 36 36 32 32 18 32 24 15 23 21 20 20 18 22 17 18 15 22 27 19 27 27 41 37 38 46 46 52 44 43 50 41 51 48 41 40 39 27 26 32 39 36 36 34 23 32 25 30 27 54 95 127 142 152 151 153 158 157 157 156 157 148 147 137 128 127 127 118 120 113 106 97 84 88 75 73 76 80 83 97 102 79 98 85 89 99 97 91 71 61 54 50 61 53 49 41 35 33 32 14 26 22 21 13 22 25 22 14 19 18 20 21 20 28 36 39 39 47 45 48 45 49 47 48 47 41 41 38 39 37 33 48 32 39 38 42 24 27 30 37 81 119 135 149 153 159 156 156 161 158 158 156 157 157 155 156 149 156 154 149 144 140 134 129 111 108 101 95 92 99 102 107 120 100 106 115 105 122 121 130 115 96 88 82 87 77 77 71 59 47 35 22 23 19 19 19 18 20 26 19 17 18 17 20 18 27 38 41 41 47 46 46 49 42 50 42 47 32 36 49 34 47 42 50 32 40 40 46 34 30 49 97 135 145 155 157 158 158 155 158 163 161 163 161 163 166 165 162 160 165 164 165 157 159 160 159 145 153 143 139 131 134 127 125 129 129 125 134 134 142 138 149 143 115 120 111 107 95 98 96 92 74 66 36 26 25 19 16 23 20 23 22 19 18 18 21 17 28 36 41 44 44 48 49 48 48 45 45 35 31 34 54 43 45 40 40 37 38 36 38 39 61 117 140 154 157 163 162 160 163 163 166 167 166 169 169 169 165 167 165 163 164 165 167 164 170 169 169 163 167 167 164 162 166 157 150 154 152 153 157 162 155 149 161 150 148 135 124 118 109 114 110 105 97 98 73 45 30 17 21 19 18 16 33 25 20 20 18 21 22 32 35 46 45 52 46 51 49 44 32 30 35 44 53 38 36 31 41 31 40 46 49 73 114 145 151 159 164 165 161 165 166 167 172 174 171 174 170 169 168 167 168 167 165 171 166 170 169 172 168 166 165 174 169 172 174 170 168 168 166 162 171 167 159 165 168 160 163 145 142 126 122 124 118 118 114 111 100 85 57 34 16 21 17 19 23 33 23 18 22 16 26 19 33 48 51 46 48 53 44 40 24 34 40 40 46 39 37 39 38 34 56 47 79 119 142 152 165 164 165 163 168 165 166 171 172 176 172 174 174 171 170 174 174 173 169 173 171 174 174 174 174 174 167 172 176 172 172 174 173 173 172 167 173 165 166 169 169 163 168 158 153 141 138 133 133 129 127 121 120 104 99 62 41 17 18 17 19 27 24 29 22 17 20 19 26 44 48 49 45 50 40 32 27 32 40 43 44 25 40 39 39 45 54 72 110 145 157 163 167 165 160 170 170 170 173 176 179 178 182 178 177 179 177 179 176 177 177 173 177 174 177 176 178 175 168 174 173 172 173 176 176 171 177 171 172 168 169 166 168 165 166 163 154 154 149 145 141 139 136 131 127 122 115 102 78 38 19 20 19 21 28 25 28 20 20 15 26 42 54 49 48 49 31 31 35 31 41 33 24 32 38 39 46 53 65 97 137 156 168 166 162 167 159 168 173 171 179 179 188 182 184 180 182 183 179 178 177 177 177 175 176 177 179 180 176 176 173 170 174 175 176 174 176 175 172 170 169 167 167 165 164 170 160 162 160 160 157 151 147 145 142 135 134 126 126 120 110 88 44 14 20 23 27 26 28 20 17 21 27 39 59 50 50 41 25 38 34 41 28 29 27 44 43 45 49 51 79 121 145 157 170 163 165 167 169 169 178 179 179 181 186 185 182 181 181 182 182 180 179 181 181 176 176 176 178 181 177 179 179 172 177 180 175 178 175 174 169 173 169 169 168 166 167 169 166 157 159 162 158 159 151 149 144 143 135 130 132 127 123 119 88 33 17 22 22 21 30 20 22 20 21 40 56 46 50 32 32 40 36 29 29 31 49 44 45 51 55 62 106 125 154 165 168 160 172 167 173 174 181 178 181 184 185 189 185 184 185 182 183 183 186 183 185 180 178 176 178 180 180 180 182 176 177 180 175 177 175 175 175 175 168 171 170 171 168 171 171 163 168 163 162 159 158 154 149 143 136 135 136 135 129 129 112 77 18 21 18 26 25 31 20 19 19 38 51 54 48 41 40 30 35 29 29 44 57 50 51 49 57 87 116 137 168 173 172 163 172 174 175 179 182 182 186 189 187 189 191 189 184 187 185 187 190 188 185 185 179 179 184 182 183 183 183 180 177 179 181 177 180 179 180 182 175 173 175 170 174 173 171 170 173 165 167 167 163 158 156 147 139 139 140 138 134 130 121 106 55 20 25 19 20 34 25 26 25 32 53 53 47 50 36 31 36 38 28 63 49 66 51 51 68 113 128 149 165 174 178 171 178 183 182 182 183 185 188 190 190 190 188 189 184 188 187 188 191 190 188 187 185 184 186 181 187 187 187 188 182 177 182 182 181 181 183 182 179 178 180 174 176 175 173 171 169 168 166 170 169 165 160 153 142 144 142 142 138 131 119 118 91 42 17 26 21 24 30 36 26 26 48 48 46 42 37 32 39 45 41 68 59 63 54 54 88 123 131 166 165 175 172 173 185 183 184 182 185 185 188 189 191 191 187 186 182 188 188 191 193 196 190 196 189 185 184 184 188 183 187 189 185 183 183 183 183 184 184 184 181 181 183 177 175 175 177 173 172 172 165 167 168 175 166 156 149 143 141 144 141 136 121 119 118 71 24 21 23 23 25 38 41 22 48 44 44 35 39 38 44 46 56 63 65 59 53 73 103 131 149 172 177 180 178 174 189 186 188 187 187 188 191 188 189 194 190 188 186 190 189 193 197 195 197 192 191 188 181 190 183 187 190 180 183 184 184 183 183 187 184 182 181 183 179 178 177 177 174 176 175 175 172 170 167 179 170 164 154 150 142 147 144 140 118 128 121 102 41 18 26 20 33 31 46 35 46 47 40 41 40 46 44 62 57 67 76 64 57 90 118 141 157 176 182 182 181 169 191 188 189 188 188 191 190 189 188 191 191 187 188 188 190 189 199 192 196 192 191 191 184 182 183 182 187 184 186 183 186 185 184 186 187 185 184 180 184 180 177 178 177 177 178 176 173 171 171 175 174 171 162 154 152 146 151 141 125 127 123 121 74 18 27 24 29 28 36 47 55 47 42 45 46 49 46 65 59 79 73 66 85 97 129 143 169 182 183 187 174 180 189 190 190 191 186 189 188 190 190 190 190 188 187 188 192 193 193 191 192 191 192 185 185 185 182 185 184 183 189 187 185 185 184 184 182 187 182 181 181 183 178 179 176 178 179 176 172 176 172 176 174 176 171 157 157 153 152 143 129 126 120 129 92 34 26 34 31 29 35 34 47 55 42 54 45 48 51 73 69 83 58 98 98 103 127 156 178 188 187 189 181 191 189 193 190 191 186 186 187 186 192 183 188 185 186 192 190 190 195 189 191 191 189 185 184 187 185 184 187 177 186 188 184 188 185 185 182 184 184 177 181 181 181 177 178 175 182 174 173 176 174 178 176 174 174 162 160 154 154 144 138 128 127 128 110 52 25 26 36 34 38 31 52 53 45 53 53 54 67 82 75 75 72 113 97 116 134 168 181 194 189 188 187 192 193 195 194 189 185 185 185 187 185 185 189 187 189 189 189 190 196 191 191 193 189 183 185 186 181 185 186 178 187 190 187 189 187 182 182 182 182 179 178 179 177 179 178 176 178 176 171 176 173 173 180 177 172 169 160 156 151 149 142 139 130 130 123 71 40 33 32 45 40 29 51 54 51 52 55 67 68 87 80 81 83 100 114 116 148 172 186 189 192 190 192 191 198 197 195 191 190 180 187 189 180 180 189 192 191 191 192 193 194 191 191 190 188 186 182 184 181 184 186 182 187 189 188 190 190 182 185 185 183 182 182 180 176 177 178 170 173 174 170 171 173 176 173 173 172 171 166 151 161 151 146 140 133 136 125 83 71 41 33 47 42 32 53 52 53 58 66 83 69 88 80 82 89 92 118 131 152 179 187 191 189 196 195 196 199 197 195 195 189 186 187 188 179 180 191 194 191 194 194 193 195 191 191 193 190 187 186 185 179 182 184 183 182 188 183 186 188 186 184 184 182 184 184 180 179 181 182 172 178 175 173 170 171 174 170 168 172 174 166 161 162 157 150 144 137 139 133 94 76 53 52 54 42 35 45 59 47 60 60 91 60 94 76 100 86 93 119 124 160 179 191 186 195 197 200 197 199 199 194 192 192 188 188 189 185 192 192 195 195 196 197 195 194 193 195 191 191 191 188 186 183 183 184 187 184 184 185 185 186 184 185 184 185 183 183 181 180 184 184 178 179 177 175 171 179 175 177 170 172 173 167 161 167 160 154 142 143 143 136 101 78 71 53 65 45 31 58 56 50 65 50 97 45 94 62 91 80 101 116 136 171 184 191 188 199 200 198 201 194 195 192 193 189 191 187 192 194 196 196 194 197 194 199 196 199 196 197 198 192 192 190 186 184 185 184 188 179 187 184 188 188 189 185 189 187 183 184 183 183 182 183 180 183 176 174 175 179 182 174 174 173 163 168 171 165 162 156 147 141 147 143 106 73 69 58 66 53 28 52 57 50 71 48 83 55 91 56 65 80 98 108 153 179 185 189 183 204 197 198 197 194 194 187 189 191 193 189 195 197 195 199 197 197 199 196 197 194 198 198 201 194 194 189 187 187 186 183 188 182 185 187 192 191 187 190 186 193 181 185 187 182 184 178 182 179 180 171 179 182 177 179 180 178 165 169 175 165 161 156 153 142 151 146 108 69 63 59 72 58 44 54 52 56 69 49 79 66 86 62 52 66 94 117 176 185 185 186 191 200 198 201 199 191 193 187 188 194 190 192 194 196 199 203 199 198 199 198 200 198 199 198 202 199 200 191 191 188 186 189 185 185 188 193 197 193 189 191 184 190 187 187 186 186 185 184 181 182 182 177 176 179 177 182 177 176 175 169 180 169 165 162 150 141 152 148 110 65 67 56 66 68 52 48 52 59 68 55 70 70 90 59 39 71 85 155 191 186 185 184 192 197 199 198 199 195 189 192 190 194 188 193 197 194 201 202 198 202 200 198 202 202 198 199 204 204 200 197 193 193 186 184 187 189 190 190 197 193 194 187 190 190 190 185 186 187 186 185 185 181 181 182 185 178 181 175 181 176 180 184 177 168 170 155 151 149 151 143 121 73 62 55 59 69 49 58 46 64 66 53 71 71 83 53 40 81 97 187 184 188 185 182 192 197 198 200 200 195 195 191 193 193 191 190 199 195 199 200 199 201 203 197 201 201 202 200 203 204 201 200 196 195 193 185 189 192 192 187 198 197 195 189 190 192 192 184 187 190 190 184 185 186 183 184 187 184 177 178 180 182 184 189 176 170 175 156 158 152 147 151 117 82 59 57 66 68 57 55 48 63 68 56 71 68 62 71 51 75 126 197 186 184 183 186 189 194 198 198 200 194 195 193 198 192 193 190 196 194 194 202 201 200 204 198 203 200 197 202 202 201 204 204 198 203 191 194 190 192 193 193 199 199 192 196 184 191 192 185 184 192 194 187 187 188 189 183 186 185 180 179 181 181 180 192 187 176 167 161 156 149 148 143 114 81 61 49 68 68 52 53 49 63 67 63 70 53 74 65 63 62 146 198 187 182 181 184 185 197 198 199 198 193 193 194 192 189 190 188 192 187 191 198 201 201 201 199 200 199 200 200 199 201 206 207 207 203 198 197 190 197 191 200 198 203 192 193 184 191 190 187 186 195 189 190 191 190 195 187 183 184 183 178 181 179 175 186 192 174 170 164 156 146 147 138 117 82 66 45 60 76 49 47 81 72 67 64 64 59 64 76 65 59 173 196 189 181 182 179 188 202 203 203 200 190 188 187 185 183 183 182 180 185 184 194 195 199 197 198 196 198 200 198 200 199 203 202 207 205 204 198 193 201 196 202 200 201 192 187 183 189 188 183 189 190 189 191 192 194 192 188 186 188 188 180 181 179 181 186 183 178 168 159 149 148 147 148 113 82 59 53 63 70 55 121 171 119 51 58 55 49 58 87 61 82 183 193 186 187 177 174 198 203 202 201 191 174 171 151 150 159 154 158 163 160 167 179 181 189 193 191 189 195 193 195 195 196 198 199 197 198 203 197 193 201 197 201 197 198 189 187 187 187 187 185 189 190 189 190 193 192 189 190 188 188 180 181 175 179 180 186 183 178 165 154 144 155 148 144 117 70 71 55 62 78 58 186 178 94 63 65 40 37 73 85 56 95 192 193 179 188 166 168 184 189 182 180 172 147 136 137 136 140 132 141 143 129 129 150 142 166 175 174 180 187 184 191 191 189 187 195 183 197 197 199 193 196 194 197 191 194 191 182 185 184 187 185 190 186 189 187 192 188 194 186 188 187 184 183 177 178 175 181 182 174 166 153 141 152 150 137 126 72 53 57 62 76 63 180 144 100 74 76 43 32 64 80 55 103 196 193 183 180 165 168 167 164 148 146 125 121 117 116 125 126 121 122 119 114 105 122 120 130 136 138 158 166 176 181 186 186 183 184 177 188 191 196 187 187 183 192 185 188 183 179 187 176 184 182 185 184 185 188 187 186 185 189 187 189 185 187 187 171 176 176 175 181 157 150 135 145 139 141 132 73 46 45 59 77 69 142 104 108 111 82 37 64 46 55 60 113 199 196 189 177 172 159 163 153 144 128 118 111 119 106 108 109 112 106 97 86 89 98 97 105 114 116 138 152 162 168 181 178 181 176 174 181 186 187 182 179 180 183 176 181 175 176 176 180 173 181 181 183 175 184 181 182 179 177 184 186 182 191 185 180 179 180 176 178 163 148 134 137 141 133 134 73 43 36 64 70 67 126 74 126 133 91 29 76 81 48 60 100 191 195 187 174 171 170 152 142 139 133 134 142 144 143 138 135 133 124 105 102 100 104 105 109 113 123 136 141 159 164 177 175 173 175 176 181 179 183 176 173 179 176 168 177 168 172 167 169 165 167 172 170 168 179 169 172 176 178 179 181 180 181 182 180 184 184 187 173 164 145 131 136 143 130 135 77 37 37 57 62 68 125 66 150 149 100 33 83 68 75 74 132 149 183 191 178 178 176 165 143 146 145 165 183 193 189 176 170 168 173 164 151 139 140 117 120 112 122 135 133 147 158 171 172 172 176 171 175 175 176 172 172 169 170 166 165 164 165 157 154 147 140 144 132 140 139 139 135 145 161 161 165 165 158 155 159 173 178 185 179 171 137 126 138 139 131 135 78 36 35 54 65 59 128 66 177 183 102 41 78 59 85 84 183 153 142 170 134 100 87 82 83 81 93 89 87 101 105 86 197 218 179 145 141 152 158 154 145 133 117 127 131 146 162 167 172 175 177 169 171 168 170 167 165 167 166 162 153 150 147 146 134 130 112 105 95 97 99 105 99 112 126 134 133 145 144 130 134 142 152 179 183 176 141 122 135 128 137 131 75 36 40 47 66 56 116 111 180 186 121 43 72 56 84 100 199 190 90 82 120 157 162 167 178 182 190 198 194 188 175 141 150 158 130 124 106 80 74 91 86 103 100 109 119 138 158 165 178 181 177 179 169 169 170 169 164 163 160 159 147 141 130 129 113 106 101 89 82 73 74 75 75 86 97 103 116 123 121 115 121 124 117 142 157 170 151 122 127 124 133 131 70 37 31 50 62 54 105 176 171 169 122 51 44 57 76 125 189 94 126 135 151 179 178 179 180 186 194 195 190 179 170 159 163 161 157 155 148 131 122 110 94 94 64 66 76 63 87 79 90 102 126 133 147 155 154 156 160 161 154 147 140 132 116 108 100 89 85 82 70 72 63 66 67 76 75 84 98 106 102 103 100 108 113 118 122 138 150 123 126 129 137 130 58 43 32 50 56 51 128 202 181 194 138 67 24 58 79 186 97 151 186 154 139 156 162 169 170 165 163 148 158 170 167 167 164 153 149 142 135 118 112 103 103 104 111 113 101 55 37 105 90 83 76 65 61 72 64 65 85 90 97 104 94 94 91 99 87 84 82 72 84 97 109 99 109 93 87 86 97 94 96 97 87 89 105 103 106 114 127 122 121 135 142 115 62 55 30 45 52 49 175 201 199 169 125 67 37 35 108 170 137 188 182 177 173 170 160 151 140 130 128 118 134 140 122 118 94 84 87 86 100 108 104 102 97 89 91 95 112 126 55 93 170 186 206 197 181 189 152 131 116 97 84 75 65 42 49 56 47 53 48 54 57 76 85 87 122 105 114 116 129 132 131 122 105 100 93 95 91 98 115 114 124 134 146 104 57 49 44 33 52 47 206 207 201 162 103 68 32 52 93 124 181 186 179 187 184 189 184 173 157 145 137 121 111 100 87 95 58 41 56 42 57 55 64 71 75 89 89 90 95 94 136 42 151 195 210 203 198 204 194 185 198 166 134 122 83 44 70 91 80 93 101 116 120 133 125 119 139 108 91 78 72 76 74 94 106 106 102 97 103 107 117 117 118 140 139 102 54 39 42 40 50 53 217 206 192 185 121 154 32 202 89 145 179 183 181 188 190 188 194 189 182 185 178 160 143 136 125 114 111 95 93 77 70 76 93 76 72 71 77 99 123 114 147 62 105 188 202 188 178 177 172 191 200 169 137 109 52 107 96 76 90 114 126 140 146 155 157 158 163 165 165 154 161 147 124 109 85 70 61 54 91 115 124 118 128 136 148 86 34 24 34 45 43 42 209 200 174 179 195 90 14 58 129 155 191 176 184 189 193 192 194 188 190 189 191 181 173 166 151 130 136 145 126 141 119 127 120 122 112 122 110 98 131 171 169 72 67 223 173 119 111 101 102 138 159 153 161 42 114 109 63 65 88 98 100 110 117 132 142 151 157 151 157 154 170 166 167 163 139 123 108 91 78 68 74 114 131 140 126 46 47 28 41 38 38 46 196 183 167 201 210 195 124 12 125 185 189 174 186 190 195 194 196 184 189 185 191 188 184 182 162 147 143 137 133 136 130 124 124 125 125 137 145 164 171 172 188 61 83 195 186 171 163 145 147 149 116 88 110 46 131 88 72 92 91 88 91 91 98 115 137 146 138 133 138 145 150 163 161 160 148 137 121 115 119 120 97 63 102 109 100 69 64 42 39 31 38 68 192 170 155 211 202 210 207 55 125 194 184 174 188 189 191 193 195 188 184 182 178 179 177 175 165 152 146 141 131 127 123 121 115 111 116 119 130 145 162 167 168 40 152 154 146 144 153 142 130 147 161 151 59 95 133 104 130 100 81 81 73 66 61 72 90 104 109 116 128 122 122 136 143 153 148 134 128 129 129 127 127 105 84 74 128 67 61 36 44 31 55 92 192 172 146 182 209 211 219 63 127 194 177 178 192 190 191 194 197 184 180 170 177 169 168 166 158 149 141 136 130 119 122 116 116 118 116 125 133 140 144 174 149 65 155 153 168 165 170 164 152 113 122 165 85 98 138 140 141 122 121 122 118 105 79 75 66 56 50 56 77 86 105 113 109 105 125 129 134 137 138 129 112 88 97 104 140 58 52 28 47 36 94 74 192 159 151 140 214 210 225 82 117 191 177 184 193 194 191 192 193 186 176 171 184 171 174 174 168 164 154 152 147 140 133 131 142 139 132 150 153 148 160 200 111 67 155 163 183 179 178 168 167 127 87 156 99 89 134 135 136 153 145 135 137 139 119 118 115 117 98 92 99 74 74 93 100 80 102 114 128 138 130 117 79 127 72 99 122 51 52 31 42 50 117 52 181 159 171 108 203 214 223 106 95 189 181 192 190 196 193 189 191 191 186 173 188 177 177 175 174 170 170 163 161 158 152 150 150 154 153 157 159 180 159 155 43 73 169 182 186 180 169 155 175 149 81 128 112 82 139 126 109 133 133 122 113 120 118 123 121 124 130 123 129 113 108 107 116 118 109 107 114 114 119 96 113 137 74 48 140 26 47 28 39 81 123 32 204 187 178 114 191 213 213 140 61 187 182 192 192 189 193 194 191 194 190 177 179 184 180 177 174 169 169 163 157 144 152 155 158 169 166 173 175 196 166 86 21 121 186 183 183 173 181 160 169 179 59 144 74 68 157 136 102 97 114 118 114 104 104 103 113 125 131 128 132 124 127 125 127 131 131 116 114 117 128 126 126 138 75 26 119 55 40 50 33 111 126 26 215 206 190 158 188 201 197 192 61 181 185 196 191 188 192 198 187 199 180 182 175 180 178 171 177 172 175 174 175 167 167 166 180 180 177 185 189 202 156 40 81 169 183 169 186 165 178 170 176 189 79 160 67 48 139 153 126 99 117 131 131 124 114 108 105 115 119 124 126 127 123 119 125 135 135 135 140 141 140 137 129 140 78 24 130 85 38 45 48 120 121 53 218 210 196 197 189 187 194 205 64 144 192 191 194 198 189 192 185 197 182 181 182 174 173 169 169 177 170 176 177 171 174 173 180 183 185 190 203 173 51 131 145 188 183 184 188 176 168 167 175 182 130 80 58 24 143 150 141 129 137 139 133 133 129 131 123 116 121 116 114 122 126 127 135 146 143 148 150 151 138 141 132 138 67 45 153 102 23 21 119 135 128 92 213 211 195 199 189 190 195 178 151 63 200 189 197 200 189 195 187 194 182 179 178 171 171 171 171 171 167 177 173 171 168 176 169 174 181 206 189 82 143 142 177 192 186 187 184 173 178 169 172 193 142 88 86 50 110 160 155 148 144 145 140 133 131 132 128 129 136 138 128 134 141 140 145 158 155 145 147 142 144 142 130 144 49 88 165 73 9 23 64 146 146 84 221 206 197 195 198 197 195 166 186 100 122 198 201 197 191 197 192 189 188 184 180 169 171 175 167 167 170 177 173 175 170 174 174 170 194 185 92 142 142 158 192 195 190 188 190 169 171 171 176 186 143 105 78 106 51 148 167 154 144 139 143 141 132 130 137 132 132 145 135 141 151 150 150 151 159 154 143 145 156 145 134 135 69 102 167 29 65 76 108 137 146 37 226 202 200 196 197 202 199 168 158 200 77 154 209 200 198 194 201 195 192 188 178 174 176 177 174 177 176 177 178 175 172 175 180 178 152 106 151 142 148 181 192 195 192 182 196 178 164 175 193 165 137 121 78 123 65 106 170 156 150 153 154 153 143 147 140 146 137 143 145 151 155 158 161 152 156 162 155 157 154 141 129 128 89 104 141 33 114 93 90 133 134 22 224 199 191 194 193 196 199 163 158 181 194 101 131 202 202 201 197 200 197 191 180 187 177 178 182 180 179 178 181 180 181 179 160 109 125 193 152 141 181 193 187 196 189 186 191 168 174 180 190 148 134 136 94 96 125 46 165 154 159 159 160 158 154 158 149 157 150 153 147 164 157 163 164 164 161 166 160 153 156 142 125 130 96 130 82 94 131 84 88 132 116 19 157 199 178 182 178 136 184 166 160 190 186 195 131 89 166 200 203 199 200 187 183 186 178 176 178 181 180 179 188 179 165 126 98 159 194 167 140 161 196 191 190 196 184 192 196 163 180 177 175 142 133 148 112 97 119 96 81 175 160 156 152 162 159 159 162 156 150 165 154 167 155 162 169 172 163 162 158 156 154 142 124 111 99 143 33 151 115 79 98 143 79 26 45 114 132 130 115 57 93 184 164 190 184 194 197 186 102 106 187 206 203 194 190 187 183 181 180 182 178 169 144 112 107 144 166 165 150 163 139 168 198 191 191 193 184 197 190 164 186 176 173 143 140 152 135 99 112 141 68 129 165 156 158 159 161 163 166 164 149 154 159 165 148 155 170 174 169 162 164 159 147 142 124 87 133 87 86 121 88 88 121 132 36 26 54 59 58 68 58 47 11 187 163 186 185 191 196 204 197 175 122 136 173 169 153 161 152 141 130 119 108 107 113 144 149 147 134 121 124 165 141 171 192 199 190 196 184 197 182 169 184 168 170 160 143 144 140 100 103 129 155 83 117 165 157 153 163 160 165 169 157 160 156 158 155 153 171 171 169 161 171 168 142 140 116 107 132 68 121 89 85 92 142 91 18 28 60 58 57 63 49 52 10 179 168 185 181 191 192 200 200 198 194 192 179 161 145 135 127 125 132 137 139 138 136 123 110 114 119 125 141 158 167 182 188 201 194 189 182 201 172 172 190 171 172 169 152 139 136 94 91 124 141 143 93 106 162 150 163 156 164 160 164 164 155 156 166 160 165 171 167 158 169 162 146 133 121 152 59 129 88 97 96 110 144 37 29 33 59 58 56 54 53 51 5 180 171 183 187 187 193 190 196 180 183 184 173 166 141 137 133 131 126 129 119 124 125 123 121 133 147 150 156 174 194 186 190 197 190 186 185 194 174 174 180 175 170 173 157 139 136 97 84 119 141 136 134 102 89 149 164 153 165 161 164 159 166 169 172 170 176 175 171 169 166 160 142 141 142 99 103 143 83 101 118 141 89 16 33 36 54 56 60 51 57 42 27 181 176 181 189 186 190 192 189 185 182 183 174 170 151 156 153 150 149 148 146 147 143 141 140 150 161 159 181 193 193 179 196 200 192 186 197 197 175 175 177 184 172 169 164 137 149 101 73 108 129 154 144 122 122 76 108 150 157 162 166 165 165 173 173 175 177 175 166 155 164 159 165 132 90 116 126 136 124 130 138 114 21 26 37 33 57 52 57 54 51 40 28 187 179 178 181 189 191 195 190 193 191 189 189 185 182 173 169 169 161 154 150 142 129 135 148 159 156 177 197 197 184 180 200 203 189 194 220 197 177 166 179 185 179 172 167 140 156 123 68 114 132 146 161 148 120 117 93 78 95 133 152 160 163 172 177 170 179 157 154 185 205 191 99 106 131 125 125 130 133 134 140 77 18 33 35 35 56 55 59 57 50 40 44 187 180 182 179 190 191 183 188 188 184 189 183 183 173 166 155 163 150 144 136 134 129 135 149 167 157 187 199 203 171 187 207 212 188 193 220 187 180 167 177 177 198 176 167 144 138 165 80 115 142 158 159 158 153 126 108 116 112 88 86 86 98 113 125 136 145 96 100 150 151 116 142 143 127 120 139 129 124 138 140 38 23 30 36 30 59 51 59 53 57 29 57 189 180 178 178 190 186 176 177 180 181 185 182 168 165 160 157 155 144 134 129 127 130 141 163 178 167 172 192 198 163 177 202 204 182 179 185 171 168 170 179 181 204 188 163 149 127 173 122 121 151 165 160 157 160 155 135 123 121 120 137 134 128 127 119 130 131 146 154 157 160 144 147 138 121 118 138 132 130 143 144 29 31 31 32 33 57 55 58 56 51 31 64 195 180 173 186 186 184 167 168 174 177 184 183 174 168 161 150 140 133 132 130 134 138 156 173 175 185 147 158 176 155 153 157 153 171 173 158 156 156 164 160 165 180 161 146 131 124 160 152 131 156 158 157 158 154 151 156 153 150 140 114 129 127 130 137 138 142 152 147 155 147 145 137 137 109 90 128 134 132 139 135 25 27 35 31 34 59 55 58 59 53 31 59 196 180 175 191 183 185 173 163 174 179 186 178 175 170 159 148 139 132 135 136 149 155 167 173 181 188 168 114 103 134 130 128 125 144 150 148 139 135 148 149 137 128 123 123 111 126 147 147 119 164 156 149 150 151 158 157 162 164 166 153 143 127 128 124 129 137 140 142 145 146 144 133 144 85 32 101 126 130 143 97 15 30 35 32 31 57 52 59 51 62 26 72 193 173 180 190 188 179 165 160 180 188 193 190 181 165 156 148 144 146 137 145 147 167 172 177 178 184 189 165 113 133 136 133 130 126 125 121 114 113 121 110 97 100 99 103 105 120 126 125 84 162 157 141 140 145 149 153 155 160 165 159 160 151 151 135 133 130 132 137 140 143 136 132 140 62 15 51 85 114 93 41 24 33 28 33 32 49 54 57 53 63 26 61 194 173 181 184 189 175 159 169 186 193 194 182 175 158 148 147 153 134 133 148 153 171 169 182 182 183 177 181 145 135 145 138 118 127 112 88 79 77 82 88 96 79 63 47 50 77 112 93 89 156 161 141 132 135 133 143 146 153 160 156 156 159 156 151 152 143 129 133 139 135 135 131 133 41 24 32 38 41 34 31 28 31 34 32 36 54 57 55 58 54 38 46 191 172 180 181 189 175 151 166 190 193 189 183 172 154 157 148 133 114 141 148 151 171 175 185 182 179 177 180 176 140 127 128 113 105 114 79 62 62 72 87 89 75 91 79 91 98 96 105 106 150 167 142 134 128 130 143 149 148 147 151 154 148 147 150 143 150 138 137 132 133 131 128 124 25 29 37 37 33 36 29 41 31 33 30 28 54 57 53 56 55 42 21 186 176 179 183 181 174 157 181 189 194 191 186 163 157 144 123 122 133 147 155 165 182 175 188 173 183 183 184 179 158 148 110 108 87 87 67 38 48 68 76 96 93 121 108 106 104 102 104 115 140 161 143 137 134 129 139 145 140 149 143 148 141 138 142 143 140 137 128 130 127 125 127 113 16 33 36 37 33 35 36 31 35 31 32 33 61 55 52 52 56 46 8 165 176 184 181 181 173 171 185 190 189 195 168 157 164 125 133 157 151 152 158 173 183 181 178 179 179 183 166 162 161 159 125 92 85 76 62 34 44 44 76 76 88 105 105 94 101 93 105 116 142 166 153 140 139 134 136 149 148 151 151 147 136 135 131 136 134 129 127 129 127 120 130 98 17 35 31 40 35 30 36 28 37 29 30 35 61 57 55 55 57 50 14 143 174 172 180 182 170 162 194 188 188 191 160 168 171 148 163 154 151 148 149 170 176 173 180 158 163 185 165 158 155 160 147 108 70 67 56 39 46 36 73 88 90 96 112 114 100 102 109 125 145 156 149 148 136 134 139 143 155 149 159 150 134 132 133 124 126 119 123 128 120 114 139 67 24 34 33 38 33 32 36 36 28 32 30 33 53 55 55 51 55 52 23 98 170 176 174 175 170 172 191 188 191 190 163 162 165 147 160 148 127 128 153 161 180 167 182 153 165 176 166 156 158 150 153 131 95 56 49 41 48 50 70 90 93 91 110 106 111 98 125 133 149 152 145 151 136 134 137 145 149 149 154 155 142 134 130 124 120 124 128 121 112 113 140 40 24 35 32 36 34 32 33 35 33 33 29 34 56 54 55 57 54 50 30 57 162 171 174 174 172 184 180 190 195 184 166 152 161 153 140 145 123 132 149 154 159 158 163 154 158 174 173 156 155 154 150 141 120 81 44 52 56 46 80 70 104 76 107 106 114 98 120 141 139 156 145 141 134 132 142 142 147 149 154 157 148 141 134 117 118 110 125 121 110 124 118 30 28 37 32 37 29 35 35 33 31 31 32 31 53 58 52 53 50 54 53 18 147 163 172 170 172 177 184 187 188 185 151 146 139 130 109 120 122 134 143 150 160 165 172 175 171 181 176 172 166 170 164 153 129 97 76 67 64 66 76 83 88 95 89 99 106 114 126 133 142 153 151 140 131 126 127 141 145 144 147 146 146 141 125 115 121 124 123 115 106 135 89 20 31 38 31 38 31 37 29 29 36 32 32 29 54 58 55 56 53 48 54 10 114 154 166 171 172 167 185 184 179 176 157 134 132 117 100 97 72 61 117 161 177 187 192 186 188 185 169 183 161 172 174 155 140 126 119 118 130 92 87 87 85 88 96 104 107 109 123 134 143 152 152 146 136 131 116 130 140 141 141 145 143 137 125 124 140 132 121 111 115 139 53 26 30 39 35 34 36 31 31 32 32 35 28 35 52 57 52 55 48 47 54 25 59 151 151 167 164 165 183 176 184 166 154 132 123 132 133 132 112 102 49 75 125 147 145 145 139 128 119 132 125 137 156 147 148 135 138 145 165 130 140 110 105 97 98 103 113 109 125 133 130 145 140 142 145 146 132 110 138 132 140 145 140 142 119 127 140 128 114 114 119 127 24 27 34 35 35 34 30 30 31 34 31 30 27 34 53 59 57 46 59 52 42 54 29 132 143 156 164 159 171 172 176 162 140 127 113 135 134 140 146 162 137 80 42 55 57 69 93 85 86 88 87 85 112 126 144 149 152 146 147 120 139 143 134 128 130 113 121 109 128 130 119 127 122 135 129 138 146 132 124 134 137 143 139 134 113 131 138 128 108 119 123 95 15 29 40 29 35 34 32 31 30 31 31 33 31 30 54 53 58 45 60 52 47 52 23 84 146 146 152 164 151 165 166 155 132 120 118 137 150 149 163 177 175 126 109 86 46 13 128 105 67 46 83 78 75 95 123 128 118 95 74 67 84 113 121 137 139 139 144 130 119 117 109 116 107 116 125 119 139 131 123 131 143 141 141 120 124 142 134 111 113 116 124 43 25 32 34 31 36 31 34 31 30 31 34 29 31 28 58 54 56 49 56 54 46 49 43 31 139 138 144 156 153 161 159 150 129 124 119 152 164 168 167 173 176 160 118 128 101 47 102 121 103 37 136 108 66 65 80 64 51 55 45 46 49 58 60 79 102 121 137 130 125 121 99 97 102 104 102 100 123 124 135 134 146 144 132 120 132 139 130 106 111 117 101 11 38 32 35 33 29 33 36 35 29 30 33 30 30 31 54 54 53 54 55 50 50 42 50 19 108 137 132 144 145 160 150 144 127 126 126 156 167 166 159 166 175 178 142 137 130 109 85 88 92 59 162 122 97 83 67 48 43 54 49 54 47 34 45 46 49 56 75 94 94 100 76 57 85 97 95 99 112 131 135 142 144 144 123 119 131 133 116 104 112 121 38 27 31 36 30 39 28 32 35 32 28 31 35 32 28 31 54 57 53 56 54 49 48 43 49 29 54 145 121 131 141 142 146 143 138 143 136 168 169 167 164 172 172 184 162 136 143 133 109 89 49 57 134 126 108 91 76 58 60 66 62 70 52 37 50 45 30 20 34 40 48 46 62 53 56 91 100 105 117 126 142 148 145 135 116 126 135 124 108 106 119 82 17 37 32 31 35 37 26 35 31 30 29 33 35 27 28 29 45 64 49 57 53 54 46 45 46 43 56 145 132 127 140 140 137 150 145 147 142 163 163 164 162 168 169 175 171 143 141 146 133 118 89 93 112 102 82 99 77 57 66 72 73 86 45 47 53 52 40 55 71 75 88 101 136 136 128 129 126 113 118 130 145 145 140 128 115 118 136 115 103 107 106 31 25 34 31 35 33 33 28 36 31 29 31 35 33 26 33 25 49 59 50 55 55 51 44 46 49 33 61 155 126 136 130 128 146 146 141 148 151 162 155 164 166 170 164 162 165 157 139 141 148 143 130 123 119 112 94 115 105 66 65 72 66 53 63 59 78 101 99 111 119 117 119 128 139 146 151 139 126 117 116 131 142 141 136 114 110 117 121 105 100 113 42 30 34 31 32 36 30 34 36 27 32 28 32 33 32 32 32 27 51 54 56 49 56 49 49 46 51 28 68 163 122 130 130 125 143 147 142 141 155 155 149 164 160 167 157 159 164 154 146 132 138 143 147 134 131 122 119 122 116 118 116 117 106 105 118 119 120 118 121 126 122 121 123 124 134 145 153 143 120 126 129 130 143 134 131 105 115 115 113 98 103 69 26 29 34 31 34 32 38 27 36 34 31 31 30 31 31 31 31 33 56 53 49 59 53 52 50 52 48 23 67 171 138 124 137 129 137 141 146 137 156 154 154 153 155 160 151 157 161 144 148 136 125 125 130 129 134 136 128 131 125 133 145 133 133 120 124 130 121 121 122 119 114 118 109 122 145 144 148 135 128 128 133 127 139 129 115 104 107 111 102 99 80 28 29 35 33 33 35 34 34 32 29 35 26 33 28 31 31 35 28 33 57 50 60 53 50 56 46 54 54 21 82 166 157 116 138 136 127 142 148 145 154 158 158 157 152 148 149 160 148 147 134 142 127 115 115 117 121 112 123 114 123 128 140 130 137 120 112 117 115 108 111 109 103 98 119 143 148 140 146 137 128 134 127 128 130 117 100 100 102 99 94 84 35 30 31 35 34 34 31 33 32 29 33 30 33 28 30 34 27 29 30 27 57 54 54 55 49 53 50 50 56 22 101 166 160 126 127 133 118 140 156 153 154 152 153 151 150 141 145 155 141 142 134 126 116 107 110 108 106 100 109 101 112 111 117 110 109 100 97 100 108 101 101 97 86 113 141 143 142 137 137 138 130 130 127 124 117 106 94 97 93 93 92 36 27 35 32 28 35 31 33 34 33 31 34 29 35 29 31 29 29 29 30 27 54 52 57 59 48 55 53 58 51 20 112 167 153 152 119 125 119 131 142 144 145 143 144 149 145 135 137 148 133 139 132 120 105 87 82 86 80 84 87 92 98 93 92 89 82 87 87 92 86 84 80 94 101 130 141 134 131 136 131 146 132 123 130 107 113 97 90 84 97 87 45 26 32 32 32 28 38 30 36 31 34 29 30 31 29 30 32 30 33 29 32 29 49 55 56 51 58 56 55 54 55 21 131 167 151 157 143 111 122 117 138 139 144 144 145 151 152 127 138 134 140 132 132 127 106 85 67 50 40 45 51 72 65 55 60 61 66 67 58 65 66 71 89 112 129 132 138 127 128 137 137 131 129 124 128 107 104 85 86 87 92 53 34 28 31 30 34 27 34 30 34 34 30 33 27 33 28 29 31 30 35 31 26 33 51 59 52 48 62 52 56 52 51 20 144 163 160 150 170 115 123 106 143 132 144 147 145 152 149 140 132 133 144 136 127 127 114 100 84 77 55 45 36 44 36 32 39 38 42 45 55 66 76 92 115 122 128 122 116 121 134 136 130 129 119 125 121 108 90 82 80 92 54 30 28 36 26 34 34 29 37 28 35 35 29 37 27 35 26 29 33 25 32 31 29 26 55 55 55 47 57 53 53 56 55 18 162 164 165 157 154 158 109 106 127 131 152 150 142 147 151 143 128 135 145 143 139 132 131 122 111 98 92 86 76 58 51 46 57 56 57 70 75 95 106 118 122 120 119 117 120 133 138 137 128 127 112 115 112 99 77 80 85 59 24 33 30 33 29 32 27 31 29 32 32 30 31 34 28 34 24 31 32 27 31 27 31 25 57 51 58 51 51 56 49 57 46 23 173 164 161 164 151 167 143 95 115 132 142 142 135 145 150 148 138 140 151 153 144 145 139 138 130 116 111 114 102 97 95 95 92 90 101 105 101 106 117 112 111 117 117 122 129 141 137 130 124 120 108 108 104 85 76 85 55 25 28 37 27 35 29 36 28 31 30 32 31 29 38 27 30 31 30 31 31 29 30 28 31 25 49 54 56 49 59 60 58 57 53 35 183 162 162 167 162 160 173 117 97 128 139 144 142 152 155 155 147 139 152 152 150 148 147 142 146 135 136 130 125 133 118 121 126 116 124 121 120 119 121 120 116 117 115 124 129 135 134 121 119 106 107 104 88 84 86 47 13 17 22 30 25 33 32 31 29 34 24 37 30 32 32 31 28 33 27 35 31 19 35 29 29 26 58 56 62 61 65 56 60 58 22 56 182 157 160 162 170 153 153 175 78 105 125 140 136 150 152 149 149 137 151 156 153 153 152 151 148 145 139 144 130 142 130 130 126 128 137 134 128 131 125 126 122 117 124 124 128 130 126 114 99 107 99 92 78 91 40 13 15 15 21 18 28 20 32 31 35 37 31 32 28 34 26 31 31 31 29 34 28 23 31 30 30 30 68 68 65 53 59 49 47 45 13 86 180 163 164 174 169 159 146 166 147 87 118 145 136 155 147 148 149 145 148 156 152 152 154 151 149 152 147 148 133 134 137 135 127 133 140 136 135 133 132 129 134 123 134 130 129 124 115 99 92 100 89 70 86 79 5 15 16 16 17 19 18 22 16 25 31 35 39 36 28 32 26 33 27 32 28 31 28 25 30 28 25 24 65 65 55 51 47 45 41 44 12 113 172 161 167 173 172 167 156 160 168 118 99 127 133 143 140 147 143 137 155 155 150 153 154 150 147 146 136 145 135 135 138 138 140 143 136 134 138 132 145 131 133 138 141 135 128 119 107 99 94 88 76 58 108 101 5 15 15 13 21 16 17 22 17 16 24 30 38 43 35 28 31 27 30 30 29 29 29 34 30 23 30 27 61 60 50 51 41 36 42 39 14 140 166 163 172 177 174 171 160 158 149 161 99 105 129 130 132 142 132 137 146 148 142 162 149 142 150 146 133 136 141 134 136 131 141 139 139 142 138 128 134 134 129 144 125 132 124 109 104 98 84 71 65 104 109 121 6 10 13 17 15 21 17 18 19 18 20 26 38 40 38 38 29 28 31 31 26 32 25 34 28 25 28 28 64 61 47 46 44 44 41 30 32 161 159 167 170 176 180 172 168 154 156 147 156 83 113 122 124 126 137 125 142 143 144 138 140 135 137 142 134 131 138 133 135 130 140 135 134 140 139 126 131 137 133 134 120 120 111 97 101 84 67 77 113 113 103 135 12 11 15 10 21 14 18 22 18 19 21 32 33 43 43 41 39 29 25 35 25 27 32 26 32 24 34 25 64 58 47 43 40 42 42 16 57 168 158 166 167 179 178 177 173 159 157 146 150 141 96 113 114 119 137 128 135 139 140 129 139 140 126 131 136 132 134 126 139 133 133 135 137 135 134 126 129 143 132 125 120 110 107 96 76 65 73 124 117 112 96 138 21 10 12 12 17 17 18 18 20 19 24 28 35 35 44 39 43 42 25 29 30 24 32 27 31 28 28 27 61 54 46 43 44 36 38 2 119 166 156 167 171 178 181 180 179 160 152 138 148 148 140 85 109 114 111 115 130 132 119 112 138 129 128 127 131 124 130 126 133 134 131 128 131 131 130 127 120 130 116 114 102 105 104 78 47 74 124 122 112 111 98 131 27 13 13 11 15 16 19 18 21 20 28 27 34 33 41 37 43 51 40 36 21 27 30 26 30 27 27 26 61 54 45 50 40 37 9 24 153 156 159 167 171 174 183 177 181 169 160 141 149 127 139 143 94 101 105 110 114 113 121 112 127 121 133 125 126 127 112 128 116 120 118 122 131 120 118 122 115 111 120 102 91 98 76 56 57 123 125 116 114 105 103 102 17 7 12 10 14 18 16 19 20 21 30 24 38 36 37 39 44 47 52 51 37 22 32 26 23 29 24 26 58 54 50 44 40 16 5 76 156 155 162 169 169 178 183 182 178 169 170 143 141 130 121 139 150 106 76 94 89 101 110 105 117 111 123 117 118 117 119 112 113 112 111 106 115 112 116 118 106 105 89 85 86 69 48 77 122 120 119 114 114 108 115 62 8 18 12 17 7 19 15 21 19 26 22 29 32 39 42 45 44 53 53 57 61 38 24 24 26 23 25 23 58 53 50 47 26 9 46 111 159 155 166 168 169 175 185 184 180 179 175 152 137 134 123 131 140 156 130 89 68 72 85 89 85 92 109 104 103 101 113 106 109 109 101 102 100 99 95 96 92 81 67 65 50 64 99 119 121 120 116 111 113 111 117 42 6 20 17 13 12 14 17 23 20 24 26 31 32 42 40 50 52 61 52 62 58 61 43 20 21 21 26 26 61 49 55 46 7 52 57 135 153 162 169 167 173 178 179 182 179 177 172 157 146 131 130 126 134 148 148 151 113 59 52 56 55 63 78 89 74 87 98 83 86 95 85 90 92 81 67 67 69 50 58 58 84 109 114 117 113 120 114 115 112 107 125 41 5 19 15 16 14 14 8 31 17 28 26 36 37 44 50 56 52 56 57 60 56 56 64 33 21 24 21 24 