P2
92
112
255
38 46 38 41 40 40 41 41 44 41 39 44 43 37 45 36 44 37 43 41 41 42 41 39 42 41 43 40 42 41 41 46 37 42 38 41 34 30 33 30 27 19 22 21 17 18 17 18 14 18 17 18 16 19 18 18 18 24 18 22 19 27 18 33 23 29 34 35 37 36 36 36 38 37 40 37 32 38 34 38 36 38 37 37 35 34 37 34 35 39 32 39 41 43 42 39 42 39 37 46 36 43 41 45 38 44 43 41 41 43 40 42 45 41 38 38 47 38 41 42 42 43 41 36 45 38 36 32 33 23 23 22 20 21 18 21 16 15 18 18 19 15 17 20 18 18 19 15 17 17 19 19 12 26 16 21 25 18 21 32 32 35 30 35 41 34 37 38 40 35 38 34 41 35 34 42 36 33 41 35 35 40 35 34 45 37 43 43 43 38 39 42 39 41 41 42 43 41 45 44 40 49 41 44 44 42 40 44 42 42 42 47 36 35 37 29 27 31 26 25 27 20 21 21 15 21 20 16 19 17 15 18 16 18 20 17 17 16 18 18 16 15 19 17 15 21 13 27 18 19 18 26 33 28 23 32 41 36 37 35 44 36 38 36 39 36 40 36 38 34 38 34 37 39 35 42 46 40 43 43 44 40 44 40 42 42 40 44 43 42 46 41 42 41 45 42 50 39 43 42 47 42 41 40 34 33 28 27 24 23 17 26 20 21 21 22 18 18 20 18 17 17 15 16 16 20 16 14 20 15 17 16 17 18 12 20 17 16 15 16 18 21 16 19 29 15 24 24 37 31 32 40 36 40 38 40 35 40 35 40 37 39 36 42 33 40 34 36 40 45 44 45 42 43 43 43 44 38 44 46 40 47 42 41 44 45 41 46 47 41 47 43 42 43 40 35 37 51 29 22 28 20 27 21 22 22 18 22 14 19 18 20 13 21 13 18 16 20 17 17 23 14 18 18 17 16 19 17 18 14 19 21 16 22 17 20 19 19 17 25 25 28 29 31 31 42 37 40 37 36 40 40 35 38 40 38 39 36 34 39 43 45 40 48 39 41 47 45 44 43 43 43 41 47 41 41 51 43 45 44 41 47 47 41 32 32 39 35 44 52 29 39 44 36 28 18 27 19 23 21 22 22 22 15 18 22 15 25 14 20 20 19 19 20 18 19 17 17 20 22 15 14 22 18 23 19 12 21 18 18 18 20 18 27 21 26 26 35 36 38 37 40 41 37 37 39 38 40 37 38 38 36 42 44 40 45 47 41 43 45 44 45 43 47 38 47 49 43 46 46 42 45 48 42 43 33 23 37 42 44 52 43 36 41 53 40 36 30 30 26 26 27 23 23 25 17 21 24 22 23 20 25 25 21 20 23 17 20 19 15 22 24 19 11 24 16 18 17 19 16 18 18 18 19 16 19 19 18 21 33 27 34 37 43 37 42 37 36 36 42 38 39 40 35 45 43 43 47 45 43 47 42 44 43 52 41 46 45 43 45 43 45 45 48 41 36 30 27 31 40 46 50 46 49 50 53 55 49 49 40 39 38 35 31 27 29 32 20 30 25 27 24 26 26 25 24 24 23 24 18 19 21 18 22 18 17 23 14 16 22 17 15 17 21 23 16 23 13 16 17 22 16 31 34 32 38 37 41 35 41 35 41 39 38 41 42 44 45 46 46 42 51 44 42 41 47 44 47 49 41 46 48 43 46 43 36 28 25 27 37 45 46 43 45 40 57 50 62 48 61 53 44 50 44 42 37 35 34 32 39 31 31 32 24 31 31 31 28 26 25 24 27 21 21 21 16 20 17 20 20 16 22 20 16 19 19 24 16 23 18 13 16 16 20 22 28 27 41 42 39 38 36 40 39 39 41 39 43 48 46 46 44 47 47 45 45 40 46 46 45 43 48 43 45 48 44 36 25 24 34 38 45 40 42 37 33 38 48 38 45 50 56 65 67 67 58 52 49 46 47 45 40 44 38 40 39 33 45 34 35 37 29 33 30 28 22 23 21 22 22 19 23 21 20 16 19 16 21 20 20 17 24 14 20 15 18 23 17 29 38 39 39 37 39 38 37 38 39 38 44 43 45 45 46 46 45 47 49 39 47 41 46 42 46 44 44 46 38 21 26 24 40 44 42 31 32 28 25 19 33 30 62 74 99 90 98 93 81 84 92 83 75 70 55 55 45 49 44 46 53 52 49 39 49 43 38 38 35 36 24 32 24 22 18 26 22 26 17 29 19 21 20 20 20 16 22 11 24 15 18 29 25 32 37 35 40 39 39 37 45 36 40 39 49 42 49 45 47 44 43 45 46 48 45 47 47 44 45 37 25 25 29 42 51 34 25 26 22 25 18 27 50 91 117 118 122 126 127 129 121 120 116 112 101 94 70 79 64 52 55 59 54 56 59 60 70 63 51 54 67 52 37 41 32 26 24 33 27 31 23 30 26 22 21 22 22 16 20 21 16 17 20 23 21 26 29 40 40 37 41 44 36 43 39 44 44 45 49 42 50 44 49 48 43 51 48 46 51 49 40 27 29 29 31 51 36 27 21 25 20 29 27 79 120 138 141 145 150 148 148 150 143 134 130 121 119 108 104 93 83 78 60 65 73 70 66 90 86 73 73 74 84 92 68 59 42 47 35 55 42 43 34 35 29 21 20 27 15 18 24 21 20 17 18 19 17 24 26 40 39 41 40 39 42 43 38 44 47 44 51 45 49 46 45 50 44 49 44 50 51 35 32 26 36 31 42 38 26 28 22 28 27 54 99 133 146 154 157 157 156 159 154 152 146 133 130 127 122 121 119 113 97 87 91 81 77 84 92 96 103 89 107 95 111 111 116 100 75 75 75 77 73 66 60 56 30 29 23 19 21 19 18 21 27 17 17 19 18 23 27 38 38 39 42 38 42 42 39 49 44 46 52 42 49 44 50 48 45 45 48 46 44 37 34 36 42 39 43 38 34 29 28 42 76 123 139 152 158 158 158 161 161 159 157 157 159 153 154 159 151 147 144 138 130 112 116 108 102 106 115 112 122 111 118 121 124 132 142 134 105 107 107 95 98 95 93 78 72 41 30 23 19 19 20 21 21 22 16 14 21 21 24 33 38 41 41 42 41 42 38 49 45 51 47 47 49 47 45 49 48 44 44 34 43 41 43 44 49 35 42 45 36 29 39 92 139 149 157 160 158 160 158 165 163 163 163 165 165 162 166 166 165 160 162 164 159 149 158 149 143 143 140 130 139 138 142 149 154 148 153 152 135 125 116 110 110 111 109 101 94 82 56 34 18 19 19 17 23 27 21 18 18 21 21 26 37 42 44 44 43 42 45 49 46 49 47 48 48 50 46 47 51 44 38 29 47 51 47 45 37 44 36 40 34 49 103 140 154 161 164 162 160 164 168 167 171 169 168 168 167 165 166 169 165 170 169 172 170 162 170 169 169 167 166 160 163 158 166 164 166 154 164 160 150 144 131 121 118 121 116 116 111 104 93 71 39 19 18 22 16 30 22 26 18 22 16 20 35 42 42 40 41 42 43 47 50 48 48 47 49 48 49 47 49 37 33 38 52 48 39 38 31 37 39 47 52 104 141 156 160 163 162 168 163 169 174 172 173 174 173 170 169 168 169 170 169 170 171 175 171 168 170 173 175 174 172 174 171 168 170 170 165 166 169 165 165 154 147 140 133 133 131 132 123 123 110 108 77 48 15 18 22 19 25 28 23 19 21 18 28 45 39 49 36 47 38 54 48 49 48 44 49 49 45 48 41 32 34 45 43 40 43 34 34 40 48 56 92 139 152 165 165 164 165 171 168 170 174 177 179 175 175 171 176 177 173 174 174 174 177 174 177 174 167 176 174 173 173 172 175 173 175 168 166 167 172 160 167 161 152 151 151 145 142 141 132 131 122 118 108 88 50 26 17 16 29 24 27 21 19 15 32 39 43 46 41 47 42 48 51 48 46 51 50 49 47 47 34 32 34 40 44 40 32 38 36 45 55 77 129 157 165 169 165 161 170 170 176 177 181 180 184 177 182 180 180 179 179 177 179 174 180 174 182 173 171 174 171 174 177 174 177 173 175 168 169 167 166 166 162 163 159 159 156 149 146 145 139 136 127 128 120 118 98 47 16 22 23 24 32 15 17 23 23 42 45 43 47 42 44 44 54 48 50 46 48 52 50 40 32 32 36 40 30 27 38 42 43 50 71 109 148 166 166 163 166 161 169 172 178 181 189 183 184 182 186 179 180 176 179 178 178 177 181 179 180 178 173 175 176 178 174 174 173 173 170 169 167 167 164 172 166 158 161 162 160 159 149 149 142 138 130 134 131 125 123 95 37 13 23 18 31 23 21 23 17 42 44 49 42 45 40 48 52 49 51 47 49 56 47 37 29 42 38 24 32 28 56 35 47 49 84 128 155 168 165 166 168 172 174 181 180 180 189 184 186 180 184 181 183 182 181 181 175 178 180 178 183 181 180 176 179 184 176 174 172 171 173 169 171 171 168 171 171 161 162 165 162 161 154 158 144 139 136 139 137 131 128 109 85 24 23 18 26 26 29 22 20 32 48 52 38 48 44 49 51 49 50 45 49 51 49 27 39 39 28 24 45 40 52 49 53 65 105 136 163 170 164 169 168 175 179 180 179 185 187 190 185 187 186 183 185 187 184 184 180 177 181 181 181 184 181 176 180 181 178 178 177 180 178 172 177 173 173 176 170 173 173 167 167 168 160 157 152 142 139 142 141 137 134 117 108 60 21 23 20 29 32 32 21 31 47 48 39 40 51 44 55 44 49 47 49 57 46 43 33 37 29 26 63 42 58 56 44 91 121 149 174 174 167 168 177 178 182 182 188 189 190 189 192 188 186 189 186 189 185 185 186 182 184 182 186 188 185 183 180 179 181 179 179 183 181 181 177 175 177 174 173 172 168 170 167 169 171 164 157 146 144 144 142 141 130 115 120 95 41 17 23 26 25 38 34 21 42 49 38 46 45 53 49 47 53 48 49 57 49 47 32 37 34 33 68 56 64 50 61 111 130 156 168 178 171 177 185 184 183 186 186 192 191 191 190 187 186 188 186 191 189 185 187 187 185 184 185 190 189 192 182 181 185 185 184 184 184 181 182 182 174 178 175 173 174 171 167 166 173 172 159 153 148 145 144 144 135 121 124 115 69 23 20 24 29 33 46 28 38 48 37 52 41 53 53 44 53 53 46 50 47 40 34 42 44 49 61 68 67 52 88 120 146 165 174 174 173 183 184 184 184 187 186 193 190 192 190 187 188 190 190 190 193 191 188 186 185 187 187 188 188 184 183 185 186 186 186 184 184 184 182 178 177 180 174 178 176 173 173 169 172 178 164 161 151 147 144 146 137 122 122 126 93 38 23 23 27 34 36 43 30 47 46 42 43 52 57 49 50 52 47 46 43 38 42 39 49 66 68 72 59 59 101 128 157 174 178 180 175 185 188 186 189 190 189 190 189 195 190 188 190 189 189 192 193 192 186 189 182 184 182 184 190 181 185 187 188 186 186 185 186 183 184 179 180 176 175 179 178 173 176 172 174 175 174 166 155 154 150 152 140 126 123 125 110 55 24 34 29 31 34 35 28 38 48 46 40 52 52 52 49 50 50 49 43 46 48 47 55 61 77 79 58 82 115 140 166 180 181 183 171 188 189 189 189 190 190 189 191 194 189 189 190 189 189 191 190 191 188 190 183 181 185 180 185 184 188 185 187 187 184 184 186 181 181 183 180 181 176 182 180 172 177 176 176 174 174 170 160 156 158 149 145 129 124 125 122 71 29 29 37 35 32 32 28 40 49 44 42 54 55 51 53 51 50 56 41 50 45 53 64 68 87 64 91 92 119 145 173 183 185 183 177 188 193 191 191 186 189 188 195 189 190 188 189 192 189 190 188 185 187 187 179 184 182 180 184 178 190 187 186 189 185 182 185 180 181 181 183 179 175 179 183 170 178 174 177 178 175 171 164 160 153 150 147 138 131 128 131 92 47 34 34 43 39 28 28 44 40 47 36 55 55 49 53 50 54 52 47 51 53 59 76 73 78 75 109 101 125 157 177 191 188 188 187 188 195 193 192 186 187 189 191 190 190 186 191 192 189 192 189 187 188 187 183 186 187 183 186 179 189 186 186 188 181 182 181 184 179 180 179 181 179 178 182 172 177 172 173 177 177 170 169 159 157 155 149 140 134 135 131 99 73 49 31 53 40 24 31 35 50 36 45 56 56 48 55 48 48 54 51 47 66 64 89 76 78 90 106 112 127 168 183 191 189 189 189 192 197 195 194 188 186 191 188 186 191 190 192 191 188 195 191 189 186 186 181 181 182 184 186 182 188 189 188 190 184 183 185 184 181 181 181 176 183 164 179 172 174 170 173 173 171 170 173 163 158 160 152 146 141 132 139 108 81 62 52 58 39 25 33 32 46 42 37 57 55 52 48 53 48 51 58 57 70 72 90 81 82 84 110 123 146 171 187 190 188 192 192 196 197 198 196 190 186 194 185 179 191 194 192 195 193 195 189 190 188 186 185 184 180 184 185 185 188 186 187 189 184 185 187 184 184 183 179 183 181 177 177 178 174 173 175 172 171 169 174 166 164 165 156 150 137 138 143 115 88 73 57 61 42 39 32 29 43 38 39 49 55 56 54 48 50 56 49 61 70 92 76 89 84 85 99 125 148 168 191 187 190 196 193 197 199 198 198 196 189 195 185 189 193 195 197 196 196 191 194 193 191 190 188 186 181 183 184 184 185 186 185 185 185 183 183 185 182 186 179 186 181 181 181 177 175 177 179 174 172 171 167 168 162 167 159 150 142 138 151 124 81 71 65 69 45 41 39 28 34 37 35 55 53 53 48 57 49 53 55 57 60 82 71 76 84 75 108 116 152 176 191 186 194 199 199 195 198 197 195 199 194 191 191 199 195 197 197 198 198 197 197 194 195 194 190 188 188 183 184 186 183 186 186 187 190 184 188 185 184 185 186 184 184 181 183 176 173 182 180 178 179 179 163 175 165 169 156 152 148 144 150 125 82 68 57 70 56 53 44 30 34 36 39 55 51 59 49 53 51 57 54 63 61 73 81 62 74 76 105 123 160 184 188 188 198 196 196 195 193 196 199 195 200 194 197 204 199 197 199 198 197 199 201 199 199 196 194 189 186 184 183 187 183 186 187 191 190 190 191 189 182 190 185 185 182 181 183 180 172 183 180 179 182 175 167 168 180 166 161 150 148 145 149 131 86 63 59 62 68 51 46 27 37 39 29 51 56 54 55 50 55 49 55 62 59 77 83 64 54 74 87 132 179 185 186 187 198 197 195 194 196 189 194 198 196 200 199 202 201 201 201 199 200 198 203 199 203 202 200 190 192 184 188 182 185 190 193 194 190 193 188 189 190 187 190 187 187 184 184 182 180 175 182 177 180 179 177 176 175 174 158 155 147 147 147 136 90 67 61 58 66 53 43 27 39 39 29 53 55 51 53 58 52 48 62 65 54 82 77 70 44 67 87 169 187 185 180 193 196 198 196 196 194 191 192 194 197 199 201 204 203 203 201 202 203 200 201 202 204 205 204 198 193 187 186 187 187 192 197 196 196 192 191 191 193 189 188 191 187 187 184 184 187 181 182 179 182 180 182 186 165 179 163 150 156 147 147 136 89 71 54 65 66 50 40 36 34 37 28 54 54 50 57 52 54 54 60 65 59 76 72 68 35 75 105 194 181 186 183 192 192 198 198 196 198 192 194 196 195 197 202 203 203 204 203 200 204 203 201 199 202 205 205 201 199 193 185 190 193 191 197 198 195 195 194 194 192 188 190 195 186 191 187 185 185 182 178 179 181 179 184 184 183 178 161 160 155 151 143 134 95 73 50 60 69 50 34 49 39 34 37 55 51 53 57 51 52 54 64 61 61 75 60 75 38 80 129 200 183 183 180 189 190 197 200 198 198 196 196 197 194 197 201 202 203 203 206 202 202 202 200 200 198 203 205 203 206 191 194 191 193 192 198 202 197 195 189 195 188 188 193 192 188 193 189 189 184 185 182 181 177 178 177 184 187 176 170 161 152 151 143 133 98 74 49 55 75 54 39 42 39 38 35 57 52 55 54 56 50 55 60 67 65 70 52 77 55 63 152 197 185 180 180 185 194 202 199 202 198 199 200 198 198 197 198 197 202 204 207 202 202 201 199 198 197 199 206 208 206 197 200 191 197 196 198 207 194 192 185 188 186 185 195 192 190 192 193 193 186 184 186 182 178 180 180 182 176 182 163 154 148 153 150 130 94 74 58 55 77 57 44 40 42 35 32 53 52 59 53 56 42 85 92 66 66 61 56 69 69 60 178 193 185 179 177 185 204 203 204 203 202 196 202 196 198 193 196 191 200 202 202 197 199 199 199 196 195 198 200 205 204 203 198 195 200 198 198 204 193 185 184 186 188 186 194 187 194 192 192 191 186 190 185 183 177 179 178 176 177 181 161 146 154 157 147 133 98 64 61 59 78 61 53 44 38 34 34 53 55 56 56 48 59 170 134 61 60 48 58 71 66 72 189 189 185 178 173 194 209 205 207 204 195 188 186 191 193 180 184 186 192 190 195 195 191 195 197 195 196 194 193 196 194 201 199 195 201 197 198 197 190 186 184 190 184 190 192 187 192 193 194 192 190 189 184 183 179 175 172 173 177 177 165 150 146 153 143 137 110 54 49 59 70 73 50 50 36 35 32 57 53 56 57 35 105 183 109 62 71 25 61 76 62 82 193 185 181 177 171 195 202 202 199 191 173 158 147 151 151 142 158 146 155 161 171 184 179 189 190 191 189 186 188 183 184 191 195 192 196 192 189 191 189 182 185 185 181 188 188 183 189 187 191 191 192 192 190 189 181 179 172 171 175 177 163 149 136 145 142 135 118 56 40 58 73 66 49 50 42 32 29 59 50 52 58 30 118 144 104 90 76 44 40 73 62 90 193 189 184 172 177 186 174 173 160 167 143 135 137 132 140 120 136 124 124 130 130 148 157 169 178 185 181 183 182 172 180 184 194 183 184 188 182 186 183 178 184 177 183 181 181 178 180 181 180 187 192 191 189 193 184 183 184 176 170 183 167 145 132 145 141 131 123 60 33 52 69 63 48 45 44 32 33 55 56 56 57 24 144 103 97 123 81 39 74 46 50 96 195 193 183 175 176 164 155 145 133 129 116 113 115 120 124 110 108 100 95 103 103 108 122 148 161 168 173 176 175 168 176 182 186 181 176 178 174 177 174 175 178 171 175 177 177 177 179 180 178 181 179 189 185 187 178 184 185 191 173 183 173 138 130 148 135 136 121 62 36 48 63 61 43 42 37 34 32 55 55 57 58 43 174 93 94 147 75 43 79 75 54 94 172 192 184 181 179 161 151 149 146 139 133 131 119 117 114 116 99 85 89 99 100 97 115 130 147 153 166 169 167 171 178 181 189 174 175 175 167 166 167 171 162 166 164 174 169 168 168 164 164 170 164 173 165 162 161 174 181 187 184 183 172 142 125 142 125 136 124 61 34 47 62 60 33 48 35 31 33 57 53 55 49 74 188 97 100 187 83 40 75 78 66 145 136 174 186 164 143 117 100 85 94 96 108 116 118 94 179 169 91 108 108 112 111 93 110 117 128 145 153 166 175 176 179 185 182 176 171 173 162 150 154 154 147 149 143 144 135 131 129 124 121 140 139 146 146 136 138 140 150 177 183 181 172 144 124 128 126 136 120 62 33 49 57 57 29 42 39 29 35 57 58 53 52 93 189 103 120 211 109 40 72 73 82 164 179 102 99 101 119 126 153 157 164 158 159 151 142 118 161 183 110 100 78 100 87 104 83 111 119 140 148 166 181 182 183 179 179 175 170 179 174 147 127 131 131 127 118 107 92 83 86 92 88 102 120 121 131 130 127 132 117 139 154 166 175 152 122 130 129 136 115 60 43 37 57 53 30 36 47 32 29 60 56 54 46 75 194 115 158 191 111 50 55 71 87 170 120 104 133 173 188 175 184 187 186 186 186 184 188 176 170 173 158 153 131 121 97 86 45 87 72 90 88 88 91 113 115 130 145 144 147 156 165 152 119 105 106 102 93 81 73 63 72 66 68 79 95 107 114 108 113 118 112 117 117 129 159 149 117 127 134 139 108 66 54 32 51 53 30 44 37 34 35 56 59 51 56 64 196 146 189 186 116 71 26 61 146 91 148 186 124 152 175 174 178 183 189 190 188 189 189 179 169 168 159 164 154 153 149 136 124 106 85 36 92 116 109 114 92 83 76 71 77 81 85 91 73 66 71 68 59 58 57 65 72 68 72 72 77 97 99 107 112 102 109 101 97 100 125 135 122 128 137 139 103 59 56 37 43 50 39 53 40 29 32 59 58 56 57 36 191 177 195 200 99 70 35 48 176 122 185 183 162 149 155 158 161 165 179 185 197 199 187 177 171 155 150 144 141 135 135 134 129 130 123 100 56 171 183 204 192 189 176 152 135 124 109 97 74 36 56 61 61 68 63 79 76 71 94 81 69 65 65 70 84 93 97 100 96 96 113 132 122 127 137 136 105 43 43 35 47 50 49 71 92 21 27 59 56 54 64 21 157 203 202 194 73 47 54 65 133 142 187 178 184 177 173 160 143 126 127 132 144 150 133 130 124 122 119 118 110 110 106 110 102 109 118 122 65 125 195 207 199 193 200 181 189 170 131 118 51 76 92 80 86 101 110 125 136 131 137 131 128 128 124 115 111 96 76 62 69 76 106 130 122 129 135 138 72 30 31 39 39 38 55 96 122 16 25 58 53 58 65 27 160 215 202 181 143 67 91 83 140 142 186 178 188 186 190 184 173 161 141 125 118 135 140 139 121 121 106 102 96 98 84 71 74 76 98 142 97 98 201 207 166 146 149 151 199 177 155 75 85 100 83 91 119 119 138 142 146 150 160 152 155 148 148 142 142 141 132 122 108 87 80 66 114 135 129 101 64 59 44 35 34 41 78 110 103 20 26 51 61 53 66 18 194 210 188 183 130 25 46 142 106 176 180 179 190 190 193 191 187 186 184 176 164 116 95 97 99 99 86 88 81 72 50 76 105 110 124 165 116 45 179 210 144 135 106 110 115 103 145 51 125 96 83 109 114 126 139 144 138 148 144 150 147 151 148 148 141 140 140 136 123 116 130 114 68 92 80 119 81 67 39 35 29 58 92 84 105 18 30 58 58 57 60 29 208 197 174 187 205 150 54 101 134 190 173 180 191 192 193 191 182 185 182 184 183 143 119 106 87 95 88 93 89 99 90 113 138 145 161 182 104 101 172 162 147 142 135 147 169 141 70 58 137 110 99 79 85 101 106 126 145 141 145 141 140 149 147 143 137 138 138 135 128 127 131 130 98 95 68 141 76 59 36 39 36 93 65 72 102 17 30 58 56 59 59 44 213 192 156 184 202 210 149 91 174 187 167 183 188 191 192 193 183 179 177 173 178 149 155 137 102 134 119 115 98 113 106 113 121 127 137 175 75 139 142 156 158 170 158 121 128 151 121 62 153 146 120 99 80 51 77 111 110 119 136 142 135 141 147 152 143 138 137 133 133 141 140 101 90 114 111 125 75 57 32 37 64 118 38 84 92 25 25 54 58 55 59 43 216 195 163 151 202 212 164 91 183 179 172 189 192 190 189 193 185 179 168 174 164 157 155 145 129 128 125 116 111 112 118 119 129 129 137 183 53 139 148 176 174 168 165 151 103 122 143 58 160 148 141 144 123 101 40 69 99 90 100 96 100 118 125 138 137 134 120 119 124 124 117 82 128 103 108 90 59 48 33 36 107 115 29 100 73 23 29 58 55 53 62 37 209 189 156 135 176 216 183 76 193 169 181 192 194 191 189 193 187 182 169 178 166 167 166 161 149 145 143 145 138 133 143 141 148 165 157 147 22 137 168 188 180 161 170 171 104 92 154 62 160 129 120 120 131 120 93 79 100 81 88 77 81 72 83 90 90 90 97 105 114 120 110 118 133 108 46 128 35 49 35 55 142 117 32 123 33 31 29 56 59 53 63 16 187 187 170 155 134 226 210 43 195 168 187 195 188 193 192 188 192 189 168 170 174 173 168 165 157 158 157 149 143 153 163 169 169 191 142 85 45 167 181 187 170 174 156 178 109 109 116 48 160 141 106 94 120 120 107 107 119 116 112 84 95 93 121 129 129 125 129 124 136 136 137 127 135 118 19 126 40 53 39 65 158 117 57 107 18 31 29 54 58 59 59 35 124 207 194 159 144 213 211 47 184 169 187 193 190 192 196 191 192 187 173 169 173 175 166 166 162 160 170 164 164 174 184 179 186 197 149 25 106 186 168 187 165 179 168 180 147 98 124 31 127 152 119 120 120 127 123 121 117 121 119 110 115 125 133 141 146 146 150 147 151 143 141 136 134 117 27 123 82 25 88 108 150 128 98 45 25 29 33 58 53 61 58 48 56 204 207 185 182 191 215 91 152 172 190 191 197 189 193 190 195 182 176 169 172 170 163 168 168 164 174 176 176 180 188 188 196 179 66 111 162 188 182 192 172 169 166 186 160 97 70 32 121 145 140 139 147 126 128 129 122 126 128 120 128 137 137 149 152 155 152 152 149 139 143 138 137 110 32 150 59 9 44 103 144 146 70 22 30 34 33 56 55 61 58 53 33 196 208 195 194 183 201 150 88 181 184 193 201 194 195 190 192 183 174 174 170 171 167 172 170 177 176 176 178 179 179 197 213 91 126 146 187 194 187 188 175 174 165 182 174 116 81 75 76 149 153 143 145 145 132 128 134 132 139 134 139 145 145 151 156 163 153 143 147 150 152 135 135 106 61 154 35 66 76 105 128 150 32 26 31 32 35 57 57 54 60 53 38 195 207 192 195 192 194 189 67 170 187 190 200 193 200 192 187 185 179 173 171 169 174 165 169 180 176 176 172 176 179 208 117 125 139 167 200 194 189 197 166 176 168 183 168 129 80 108 53 132 163 153 149 155 148 134 140 137 136 140 137 145 152 157 153 158 156 158 156 160 151 133 132 114 88 129 51 129 100 86 115 139 34 28 30 31 34 61 56 56 62 42 66 213 202 197 199 196 203 164 178 61 196 196 199 196 199 202 191 186 184 175 172 179 175 174 178 176 178 176 175 180 188 122 137 141 148 190 199 196 184 196 177 163 179 191 151 136 100 90 109 72 177 162 164 163 159 156 145 146 144 142 146 153 150 160 158 160 162 167 160 157 148 136 127 125 126 77 94 149 93 80 112 128 18 30 28 35 32 56 59 54 60 51 59 212 198 193 195 198 202 162 161 174 72 193 200 201 201 202 200 191 185 179 179 175 178 180 183 174 181 180 183 156 99 179 172 136 183 199 194 194 181 200 167 172 182 182 140 141 123 86 124 66 139 175 170 159 165 161 163 154 152 153 154 157 151 162 159 168 163 165 160 156 153 137 122 101 147 48 147 127 86 84 137 83 21 30 31 30 33 56 56 59 59 59 25 177 197 184 190 166 189 166 159 187 178 85 160 203 203 203 201 192 178 180 179 175 174 179 173 177 187 174 116 99 190 196 148 150 201 198 194 193 183 209 160 180 175 173 139 140 146 98 107 129 62 170 165 161 169 162 172 165 154 151 155 162 147 156 167 168 169 161 167 153 150 128 118 105 98 105 140 91 81 104 141 36 26 33 32 27 33 59 58 54 59 60 46 55 147 151 140 108 74 184 159 187 189 185 131 76 187 213 197 195 188 180 181 168 179 177 178 157 112 97 151 175 186 166 146 151 197 199 191 192 184 201 158 181 169 172 143 146 151 115 105 126 138 63 167 159 154 168 164 170 163 154 158 156 150 153 168 166 166 163 175 156 142 131 111 148 39 162 93 81 85 118 119 16 35 36 29 33 33 57 58 57 58 56 61 48 58 65 72 57 18 167 158 182 179 193 193 188 114 138 166 174 167 169 158 143 130 108 104 102 147 163 159 144 145 149 144 151 197 201 197 184 197 192 167 186 168 178 162 146 139 121 93 122 141 144 69 162 153 163 160 165 170 166 157 154 158 155 164 167 165 158 174 152 143 120 147 83 95 145 72 99 114 143 58 27 31 32 34 28 29 59 53 61 55 60 57 53 62 56 54 51 21 159 163 178 179 186 187 202 197 194 183 156 135 125 124 125 127 135 143 144 136 124 120 124 139 147 147 172 198 198 192 181 199 188 167 189 166 177 166 153 130 125 80 115 146 131 139 76 138 161 153 166 164 163 162 166 167 164 173 174 173 166 169 151 143 144 119 88 130 136 99 115 135 94 20 32 35 29 34 30 33 56 56 58 57 62 53 57 56 58 50 53 15 160 165 181 178 181 183 184 185 177 178 168 157 140 130 126 127 126 124 125 130 130 125 151 151 151 181 187 198 191 191 180 201 187 170 181 177 169 173 153 134 128 83 101 132 150 132 135 91 89 145 162 161 167 165 167 176 174 176 174 169 149 164 163 158 94 108 126 127 135 132 137 140 44 27 33 35 34 31 33 33 56 58 55 65 57 58 54 53 59 52 54 20 172 170 175 183 176 175 183 171 172 173 166 160 147 145 144 150 144 146 149 148 151 146 161 165 180 192 185 199 197 189 196 213 178 166 178 179 174 169 158 139 144 77 99 132 144 159 135 120 112 80 95 128 149 162 164 176 169 178 164 152 185 208 158 96 126 133 118 134 128 128 137 123 25 30 32 36 35 31 34 28 53 61 51 61 58 58 57 50 59 54 56 21 173 171 170 183 186 184 185 183 187 184 183 183 176 167 168 162 158 151 147 134 149 157 166 176 198 182 188 201 206 189 208 206 182 166 177 177 187 170 166 130 161 87 101 134 148 158 160 138 114 123 110 95 93 90 106 116 119 144 120 92 140 144 130 144 137 124 121 139 129 132 147 118 22 33 31 37 31 33 32 29 57 56 56 59 57 60 55 50 59 47 53 25 179 169 178 177 189 187 180 185 182 185 181 183 171 162 161 156 147 142 135 140 153 167 165 184 204 171 190 209 205 186 197 185 168 173 173 180 207 182 164 133 160 123 111 142 153 155 156 164 145 134 122 122 129 129 128 124 129 133 145 152 156 153 144 139 136 123 99 132 131 133 141 115 19 31 35 34 30 36 29 36 55 57 56 58 59 60 53 54 57 51 51 31 181 172 170 179 188 181 169 175 178 183 178 172 166 161 158 145 139 133 130 146 167 179 179 171 191 162 166 177 179 178 170 160 163 167 164 177 193 168 149 126 151 151 130 148 153 156 154 154 160 160 158 140 125 126 123 128 134 140 142 146 145 146 142 140 127 121 51 108 130 133 143 87 18 38 31 34 32 37 27 36 60 50 65 57 59 57 55 57 55 53 51 30 184 175 168 185 183 177 165 168 176 182 180 172 166 158 144 133 136 133 146 160 180 185 190 151 143 143 135 130 138 163 154 145 144 152 150 149 141 133 128 113 142 152 133 156 156 150 153 154 163 162 171 163 159 139 135 121 125 128 134 138 140 143 137 129 130 107 14 57 98 121 105 34 30 31 33 32 32 32 30 31 54 56 55 56 59 55 58 53 55 54 52 26 184 171 174 186 178 178 162 172 177 186 178 172 169 155 144 138 137 151 159 174 185 189 192 176 112 102 120 131 123 127 131 123 120 125 125 99 104 102 109 111 126 135 100 159 156 144 143 148 155 154 162 166 159 156 156 140 141 129 126 135 137 138 133 131 127 92 15 32 40 57 40 30 31 30 33 33 33 30 30 33 59 56 58 54 57 62 53 54 58 54 54 19 176 169 173 181 189 169 155 171 183 192 187 177 160 151 145 151 146 154 170 180 182 187 190 194 166 116 140 136 126 121 101 85 86 85 87 96 87 66 57 72 106 110 85 154 162 143 135 140 140 149 153 161 156 155 153 150 146 149 131 135 130 136 132 123 132 68 23 35 33 34 35 35 28 31 32 29 33 33 29 28 62 55 59 54 58 52 61 55 54 55 56 19 170 169 173 182 186 164 149 180 190 190 183 172 152 153 159 142 146 162 172 174 187 183 184 184 189 153 137 142 115 114 98 64 59 69 80 91 72 71 51 75 92 97 102 152 172 145 132 133 137 148 151 149 154 149 142 145 139 145 135 134 130 128 132 113 141 49 29 32 35 35 36 34 32 35 33 30 36 31 29 28 56 55 57 56 65 58 57 55 52 55 56 18 151 170 172 176 184 166 146 182 194 185 183 166 160 159 138 127 148 154 172 175 187 180 177 183 174 173 140 120 107 86 91 64 45 63 82 91 93 120 111 109 104 107 112 148 168 147 141 134 130 146 145 148 143 148 138 136 137 138 133 126 127 129 124 111 148 28 30 33 36 38 32 33 36 32 29 33 35 31 30 33 57 55 59 56 58 58 55 56 56 52 55 21 107 170 175 180 178 167 157 187 193 192 177 162 157 135 129 143 157 163 180 178 183 175 182 186 177 160 163 122 100 83 62 48 36 39 73 81 94 114 100 95 101 100 114 155 168 155 145 138 132 142 147 149 154 141 137 129 131 130 128 120 129 125 119 115 136 13 36 36 34 37 37 31 35 31 32 36 25 31 34 27 55 62 52 57 58 56 57 56 52 55 54 36 77 168 169 177 178 165 167 190 187 192 160 168 151 143 153 155 154 164 178 174 178 170 180 167 162 150 157 142 98 70 56 51 38 37 63 71 93 95 109 106 99 107 124 153 160 153 153 138 134 142 148 148 154 144 132 132 124 121 121 127 123 120 110 128 111 13 32 39 31 37 31 35 35 29 32 34 30 28 34 26 55 59 57 61 57 55 56 52 55 53 51 45 30 162 164 172 175 165 171 186 189 185 161 168 157 159 152 144 138 155 175 163 177 152 164 171 158 151 151 153 121 78 44 45 46 43 54 80 90 89 103 108 96 111 131 155 156 146 153 135 138 137 145 148 151 152 140 138 124 122 117 125 127 111 114 132 81 17 38 33 33 30 37 29 36 32 29 33 29 33 30 31 52 59 55 59 56 59 58 54 53 54 52 48 22 128 157 176 168 167 176 185 191 183 157 157 152 147 147 122 130 144 166 160 169 151 160 170 158 153 143 142 135 104 58 42 53 49 65 69 97 78 99 102 109 111 138 156 153 151 145 139 134 141 142 151 146 152 145 138 124 117 118 123 127 104 120 134 43 27 34 32 36 35 33 31 30 32 31 32 31 28 31 33 61 58 51 61 50 55 58 54 52 54 53 45 36 85 154 169 172 166 178 180 192 178 154 149 150 132 134 126 135 140 153 152 148 156 157 174 167 156 156 153 141 118 76 60 63 57 68 78 86 92 88 102 107 126 136 143 151 152 146 132 126 134 144 146 139 146 147 134 126 129 135 125 120 110 123 129 16 33 36 31 34 34 33 35 27 37 29 31 29 34 31 29 56 60 53 54 57 56 54 54 56 51 52 47 41 35 153 167 165 167 173 182 180 175 147 137 127 99 99 91 101 135 157 167 173 177 179 175 172 162 162 169 150 125 113 103 105 101 81 90 86 93 94 105 112 125 135 139 148 149 146 139 130 124 135 142 138 145 148 138 123 135 139 124 115 111 127 93 16 32 38 31 34 30 37 33 31 34 28 35 32 32 32 28 54 60 55 49 56 60 55 54 55 49 53 49 49 15 128 150 166 166 164 180 177 166 151 127 123 113 112 90 51 72 137 162 168 163 156 146 136 143 137 159 147 135 135 134 144 148 122 123 107 102 102 106 119 115 128 131 131 143 137 143 144 126 128 133 137 144 147 135 115 134 138 118 114 114 131 52 23 35 35 34 32 31 29 32 32 31 30 27 33 32 28 32 55 56 65 53 55 59 53 54 52 49 55 47 44 39 69 143 157 163 155 173 172 162 144 124 115 132 130 133 135 114 38 75 92 97 96 95 88 93 81 108 122 140 150 150 148 129 117 135 135 133 131 120 120 113 128 123 118 118 129 128 132 148 126 133 132 145 143 124 127 139 130 108 115 115 112 25 27 35 36 32 32 30 35 28 32 33 31 30 32 30 35 27 55 56 57 53 60 55 56 54 52 50 55 50 43 54 15 143 147 156 156 158 164 153 133 114 114 136 132 153 166 172 110 91 69 21 88 93 70 79 76 81 84 121 124 111 78 61 57 81 96 119 133 140 140 125 116 107 107 99 109 122 117 138 123 129 140 146 139 124 130 140 123 107 112 115 66 24 37 30 36 28 31 34 32 31 31 35 28 31 31 29 36 29 57 51 58 53 57 50 56 54 54 56 56 47 46 47 18 108 136 143 157 149 163 145 130 115 119 142 157 164 165 170 155 118 122 70 68 105 88 63 90 62 62 67 59 53 58 61 57 62 60 62 75 104 121 122 119 108 81 92 95 102 90 120 124 133 143 145 132 122 135 130 114 109 112 110 24 30 35 32 34 34 33 31 32 34 29 34 30 28 33 31 31 28 52 53 59 56 55 57 56 53 54 57 52 48 43 47 43 49 141 131 144 149 151 142 125 123 119 156 159 159 159 169 172 139 137 128 105 80 66 52 137 101 70 55 44 43 42 50 51 48 47 46 43 43 52 76 81 81 44 56 75 88 85 110 125 142 143 143 124 125 134 122 106 108 116 50 23 31 32 35 34 27 35 31 30 29 34 30 28 31 33 28 30 35 56 53 55 55 51 55 56 55 56 51 57 47 45 42 54 27 139 122 135 139 144 144 129 138 132 155 165 158 164 171 172 161 134 138 131 117 84 53 86 93 75 68 49 58 62 56 62 35 44 43 35 15 43 36 47 42 76 56 73 96 92 114 125 144 145 137 119 119 130 117 98 109 84 21 31 33 32 31 37 29 28 33 31 29 31 31 28 28 35 28 28 31 54 59 51 60 52 58 56 56 50 49 54 48 43 46 53 27 148 131 130 136 132 140 141 140 139 161 158 158 162 166 169 165 142 136 144 137 125 112 104 88 70 72 59 42 64 63 54 30 34 49 56 70 83 80 92 119 139 133 124 121 105 109 133 140 141 130 109 114 121 107 101 99 32 29 33 33 34 30 37 30 33 30 32 33 29 29 34 28 30 28 33 25 53 54 52 54 57 53 54 51 53 52 55 45 49 44 56 36 166 122 133 126 130 146 137 142 148 152 154 160 165 165 162 160 156 137 140 143 153 132 130 120 117 111 111 100 111 95 94 110 103 112 109 118 119 117 118 129 136 146 139 116 113 116 130 138 134 119 109 114 112 100 102 49 28 32 30 37 32 32 31 27 37 29 33 31 29 35 31 32 29 30 34 30 59 53 54 50 54 52 53 52 55 57 48 47 50 46 45 42 170 123 127 126 125 143 141 136 149 148 146 160 160 161 154 165 147 151 134 132 134 136 134 138 131 129 118 141 132 124 119 120 132 121 120 120 118 118 117 125 138 144 142 126 121 124 127 138 127 109 105 109 105 101 66 27 31 34 32 33 31 37 29 31 31 33 28 31 29 31 32 32 30 28 31 31 60 54 54 58 55 51 54 54 54 54 47 50 51 53 46 53 172 140 121 133 128 134 140 133 146 153 151 148 156 152 152 157 146 142 145 128 119 125 126 121 126 121 124 141 127 139 116 119 124 113 112 114 112 106 120 135 142 141 141 125 127 124 125 126 114 100 96 104 95 81 29 30 34 34 32 31 32 31 32 36 28 36 28 34 28 33 31 30 30 31 31 26 61 49 60 55 56 54 55 55 52 56 49 53 51 49 36 60 169 158 117 137 128 130 144 144 148 155 152 154 147 143 154 151 148 133 135 122 119 113 117 112 111 108 114 114 113 116 99 105 106 110 107 107 97 108 134 140 142 135 137 126 127 126 123 116 104 90 97 93 87 39 30 30 34 33 29 36 34 30 30 35 31 25 34 29 29 27 34 26 27 26 35 26 58 54 51 59 51 57 55 54 58 53 57 52 52 52 38 73 170 163 121 126 124 119 144 151 147 147 147 150 143 138 153 140 139 134 126 104 101 94 99 96 95 103 105 95 100 94 92 99 102 99 88 95 104 127 140 136 135 133 138 136 121 126 111 112 95 87 93 97 49 28 33 28 37 31 36 29 31 30 33 30 32 27 32 30 33 30 32 25 30 31 30 31 57 54 57 48 54 56 48 52 53 51 57 56 58 47 32 92 170 156 148 116 123 114 136 134 142 140 139 148 143 131 140 137 135 134 125 106 83 63 49 48 61 78 69 70 75 79 74 70 73 77 84 113 124 132 139 129 131 135 136 129 123 130 109 99 81 88 94 68 27 30 30 37 28 33 32 32 30 33 33 27 33 26 32 28 28 29 27 29 31 32 25 33 53 51 59 52 55 54 53 58 48 55 54 54 56 56 21 106 167 160 156 133 116 115 126 134 140 146 139 150 149 131 134 143 137 131 129 111 88 84 62 55 41 42 35 35 43 42 50 62 79 88 108 121 125 126 124 125 134 139 128 126 124 127 106 87 86 88 73 31 31 33 33 28 34 31 33 28 32 34 30 30 30 28 33 30 28 32 27 33 32 30 28 35 53 61 57 51 55 50 58 49 53 53 54 54 53 58 13 141 164 165 157 161 108 120 117 127 138 146 140 145 146 140 129 141 144 138 132 124 114 99 94 86 82 66 56 57 68 66 76 86 105 110 125 119 122 119 119 133 138 136 127 113 118 112 96 82 81 86 36 29 37 26 33 29 31 33 29 31 31 34 29 30 30 28 33 30 30 27 29 28 32 25 31 29 51 56 55 53 54 54 51 53 54 51 54 56 54 62 7 157 164 164 163 157 144 105 109 122 140 146 134 141 149 144 134 142 150 146 142 134 132 118 107 105 97 91 95 92 93 99 108 106 111 119 111 114 119 121 130 141 131 124 126 111 114 103 84 81 87 31 23 30 35 32 36 28 33 32 31 36 20 39 29 25 35 31 29 30 32 28 28 30 28 27 32 26 55 55 52 53 56 51 51 53 57 57 66 59 61 62 2 174 166 161 167 161 166 124 101 121 132 137 136 143 150 154 143 144 155 147 146 141 139 136 124 128 119 122 109 119 118 116 118 121 114 124 114 117 119 122 130 131 129 116 110 108 104 92 79 91 42 10 15 22 26 30 30 38 34 31 26 33 30 32 29 28 34 29 30 29 25 34 27 28 30 25 28 30 56 52 54 53 54 48 61 63 68 59 60 54 53 41 14 183 160 158 165 163 157 153 102 97 127 135 131 148 149 151 147 141 158 153 150 148 145 144 133 137 132 131 125 126 122 135 128 127 126 127 118 118 121 124 127 127 121 102 104 99 94 78 90 50 10 16 15 20 20 22 28 25 35 35 35 28 33 30 31 32 29 34 29 26 28 30 27 30 26 27 32 26 55 56 51 52 66 68 68 66 63 49 53 45 36 33 42 185 164 166 173 164 156 161 137 89 113 136 129 151 143 144 152 144 155 151 151 148 145 145 142 146 131 131 129 128 123 138 131 128 134 128 129 126 130 129 130 117 108 94 101 89 79 68 108 6 14 18 17 21 16 18 18 21 25 34 37 42 24 31 30 30 29 32 29 31 30 27 28 25 29 26 28 30 48 59 50 68 74 71 66 60 56 47 44 42 42 21 73 175 163 170 172 170 161 158 166 110 104 128 127 144 138 147 138 146 153 150 152 149 145 141 136 133 131 131 134 134 134 135 131 135 132 137 131 137 141 133 129 115 104 98 91 75 60 88 131 11 15 14 19 16 21 18 18 19 23 27 42 37 39 33 23 33 29 31 27 36 26 26 30 24 31 23 25 28 46 64 71 71 77 65 66 58 52 48 41 37 44 18 106 170 162 171 177 177 165 158 159 151 98 103 124 131 132 133 134 140 148 141 150 146 135 142 133 125 131 128 129 127 133 137 139 135 129 132 131 138 130 124 121 105 105 88 83 54 98 105 133 26 14 10 18 14 21 20 14 21 21 33 35 40 46 32 29 33 32 28 25 31 27 31 28 26 30 26 27 24 54 72 74 71 71 66 65 58 49 43 41 41 36 8 146 157 168 169 177 180 172 159 156 153 141 85 109 124 120 126 140 131 139 145 134 133 137 130 133 128 133 129 133 130 132 130 134 137 124 132 138 129 125 115 114 92 93 82 58 102 118 102 129 47 7 13 15 18 18 17 19 20 20 34 37 39 37 47 34 28 28 28 29 27 33 30 30 28 25 28 26 23 69 69 71 75 66 66 61 53 46 49 38 37 20 36 170 154 167 168 178 179 180 160 156 142 151 125 84 113 120 116 129 128 134 133 125 134 135 126 125 130 128 127 135 126 130 132 133 133 122 132 130 122 120 112 106 87 72 59 104 117 113 99 124 53 5 12 16 13 20 20 15 24 25 27 36 40 40 42 47 41 31 26 30 31 27 28 28 27 26 27 21 25 73 73 71 74 60 65 65 51 50 46 39 28 8 99 161 156 168 171 176 184 179 173 158 140 146 145 118 78 110 115 101 126 126 124 113 126 127 130 124 131 110 130 121 130 121 132 123 127 121 122 119 118 100 98 91 78 44 98 123 115 109 97 120 24 11 11 13 16 16 17 22 22 24 32 33 38 39 45 50 47 50 22 30 25 26 29 26 27 23 28 22 23 71 74 69 72 65 63 62 53 48 47 36 11 21 129 154 160 169 169 180 183 180 173 165 144 140 133 131 122 75 97 102 107 109 116 118 119 120 125 116 121 115 113 114 114 109 122 119 117 117 111 103 103 90 84 72 47 90 124 117 115 114 109 84 11 15 12 15 11 20 18 24 20 25 32 34 39 41 44 54 51 60 55 26 26 26 24 28 22 21 26 27 16 71 77 68 73 68 68 58 57 49 45 16 20 70 147 151 167 170 168 182 184 182 176 175 150 132 131 119 137 143 83 72 86 89 95 92 97 102 114 106 108 113 109 111 114 103 101 100 108 110 100 83 78 70 59 58 96 122 120 110 116 109 115 64 7 22 14 15 11 16 22 22 24 27 29 44 40 52 49 55 59 62 57 60 30 16 26 23 25 27 24 21 27 75 70 72 64 77 66 64 51 53 38 10 67 78 154 158 167 168 173 176 182 180 178 172 158 140 129 121 129 142 146 124 80 58 62 77 68 83 94 88 89 102 87 97 99 89 102 86 78 75 78 60 56 50 73 107 118 111 119 112 114 112 118 61 6 19 15 14 10 15 22 19 25 30 32 44 48 50 58 52 60 52 60 61 55 17 22 22 22 20 27 23 26 