P2
92
112
255
39 43 39 46 36 43 42 38 43 40 45 38 38 45 40 46 45 42 42 44 38 45 40 45 43 43 43 44 40 39 40 43 39 42 43 41 42 38 37 35 37 27 24 28 22 22 28 18 23 26 21 21 26 23 30 26 30 27 33 27 38 34 35 33 37 37 36 43 32 46 36 40 39 34 40 32 43 37 33 41 34 38 37 37 34 41 38 33 35 33 42 29 45 39 46 34 45 44 40 41 36 49 42 37 46 40 42 43 41 41 42 47 40 40 46 41 42 43 42 44 41 44 44 41 42 40 34 38 30 27 27 24 26 25 16 20 17 22 17 20 18 15 23 20 15 18 19 19 19 23 18 22 28 28 28 21 28 38 33 42 31 40 37 39 38 38 36 40 36 40 32 35 38 37 36 36 41 35 36 35 36 39 33 37 41 40 42 42 44 41 44 42 43 40 46 42 39 44 42 42 38 46 44 39 42 42 43 42 40 45 41 39 43 43 38 44 26 44 26 29 23 23 22 21 20 17 17 18 15 17 19 15 20 19 15 17 18 18 17 15 21 19 13 20 20 24 20 20 20 31 34 32 30 36 36 34 40 38 38 33 42 37 37 40 37 36 39 34 39 37 33 37 36 37 39 33 40 40 41 38 42 40 42 41 41 45 42 44 43 42 45 44 42 42 46 39 45 45 43 40 45 40 42 37 29 36 31 28 25 24 24 18 19 22 18 20 17 16 17 15 17 18 14 22 16 17 15 15 14 19 18 16 14 20 15 15 17 20 21 15 20 22 30 23 25 27 34 40 37 36 41 33 45 33 43 35 36 39 40 38 36 37 37 36 39 34 40 36 40 46 39 46 41 47 37 47 41 42 47 44 44 39 48 45 40 45 47 41 47 42 46 42 39 42 44 30 26 23 23 24 21 20 24 19 23 15 21 13 20 16 18 15 15 17 17 20 16 16 23 14 15 16 18 17 18 17 19 14 17 21 16 19 19 18 30 12 27 27 25 35 32 37 31 43 35 46 40 37 39 37 39 41 36 39 37 38 36 41 35 37 45 43 44 47 40 50 38 44 48 40 45 48 43 46 47 48 43 47 43 43 48 43 42 42 37 38 52 34 36 27 25 29 21 22 24 17 23 22 18 21 17 16 19 18 17 19 16 19 21 15 23 17 19 16 18 14 24 18 17 12 22 17 21 19 19 18 23 17 21 20 23 28 26 29 29 36 38 39 39 42 38 40 42 37 44 34 42 38 40 37 36 42 45 42 44 41 46 46 41 43 50 41 44 48 45 42 48 39 45 52 45 45 44 40 35 35 36 41 53 37 47 41 43 33 25 25 27 25 24 25 22 19 23 18 18 23 20 24 18 23 23 21 20 20 18 20 14 22 20 23 16 13 22 17 17 21 14 20 15 22 18 18 16 23 19 26 22 25 34 39 38 42 40 39 39 38 42 37 41 39 38 43 37 41 44 46 45 46 42 45 42 48 45 45 46 46 48 44 49 46 42 51 45 46 38 31 32 40 52 42 50 38 46 53 43 43 44 25 41 28 30 27 31 26 27 26 24 26 26 22 23 25 25 21 23 23 22 19 19 17 19 15 21 16 20 17 19 25 18 14 18 17 21 18 21 14 20 17 22 25 26 35 37 39 40 38 33 42 39 40 37 41 37 40 40 40 46 48 45 48 47 44 45 49 48 44 45 46 48 45 44 43 50 45 42 32 37 27 42 46 51 45 47 55 61 56 57 50 44 41 43 38 34 32 28 36 29 36 27 31 25 27 26 29 26 30 23 26 18 23 25 19 22 16 20 19 18 17 18 21 20 17 19 23 22 21 19 19 20 14 20 17 21 26 34 35 40 48 32 41 37 40 39 39 39 41 38 38 51 49 39 52 42 48 42 44 52 39 49 40 50 46 42 45 47 40 26 30 38 42 44 44 38 41 51 61 47 49 47 62 48 61 55 46 42 47 42 42 46 35 32 42 30 33 36 39 34 29 33 31 28 28 24 19 25 21 22 18 24 20 20 20 20 20 13 25 22 17 20 24 17 18 16 20 20 21 26 35 38 43 38 41 37 40 43 39 39 41 37 43 41 51 45 46 46 38 51 42 47 43 46 44 45 48 45 36 35 27 29 45 38 45 31 45 30 34 28 40 41 41 51 63 66 79 71 64 78 70 68 72 51 55 49 49 43 45 46 55 47 44 38 40 35 40 37 32 29 24 28 28 22 21 22 25 22 25 19 23 21 16 19 22 21 19 13 23 18 17 22 31 35 37 36 42 39 40 41 39 36 42 35 47 45 49 45 44 49 41 44 42 49 43 49 40 46 48 41 33 24 28 39 43 40 32 28 32 21 27 20 36 52 78 96 97 106 111 104 108 104 106 101 102 73 73 68 62 47 49 55 52 55 59 59 61 56 45 51 52 50 40 34 37 23 28 30 31 28 24 24 26 18 22 26 19 17 18 22 16 16 18 23 22 26 23 40 44 35 41 43 42 37 38 45 41 43 52 46 45 48 46 51 41 50 48 45 48 42 41 34 28 24 39 51 34 30 23 23 23 20 25 47 84 120 123 135 137 137 143 137 133 125 120 118 105 103 96 87 74 70 60 65 67 65 67 93 76 73 72 73 78 83 64 57 41 42 40 46 44 41 27 34 28 20 18 23 19 18 19 24 20 18 17 22 20 23 18 38 40 39 42 45 38 40 42 43 41 49 51 43 49 47 49 45 48 46 49 47 49 41 32 26 34 26 50 42 22 25 24 22 26 27 72 119 136 146 148 156 152 151 153 142 139 127 128 125 120 115 115 103 90 91 79 76 74 82 93 94 99 87 105 95 107 109 108 97 69 76 69 77 69 68 50 50 34 25 20 23 18 17 22 22 24 15 20 15 23 17 21 33 45 38 42 41 39 43 45 37 43 53 48 46 47 46 46 49 47 49 49 46 40 35 27 31 39 38 38 32 26 25 29 26 51 97 134 149 150 157 159 159 160 158 157 155 154 150 151 152 148 140 141 134 122 117 116 106 105 106 111 113 120 106 116 124 123 131 136 132 107 103 103 99 86 92 88 79 68 42 25 26 22 17 20 17 28 20 21 15 18 19 22 29 40 36 42 43 41 43 42 41 43 49 49 45 51 43 50 48 49 47 44 46 35 39 35 41 40 40 43 33 32 32 30 67 126 138 150 157 159 157 158 161 161 160 161 166 161 163 163 166 162 158 163 162 157 153 156 146 146 147 139 137 136 143 145 153 154 148 150 153 134 126 120 109 105 109 106 102 90 80 59 36 25 20 19 20 22 25 25 19 20 20 19 26 30 40 41 48 41 42 43 43 46 46 45 51 48 51 53 41 53 42 38 46 38 40 47 44 38 39 50 39 31 37 81 137 151 155 163 154 163 159 164 164 169 164 168 165 164 167 167 167 168 165 171 174 161 166 169 168 169 169 165 161 161 158 164 166 164 153 162 159 152 145 135 127 120 120 119 116 113 106 90 75 44 23 16 21 13 24 27 27 19 17 21 21 23 39 44 43 45 41 44 44 43 53 48 47 52 44 54 50 47 39 32 44 48 48 45 38 35 45 37 36 44 95 139 151 161 162 164 159 166 169 170 171 171 173 166 171 167 168 167 168 170 168 171 177 167 165 171 174 175 168 172 170 169 166 171 170 161 166 167 165 163 157 149 143 136 135 137 128 126 124 114 109 87 53 25 20 15 27 19 30 25 20 19 17 20 38 43 41 45 39 48 42 42 50 45 47 51 49 46 50 40 32 38 49 45 39 36 36 30 42 45 51 95 141 156 161 165 163 167 166 166 171 174 176 176 174 171 176 176 177 171 175 173 172 176 176 174 174 164 175 171 170 178 173 172 172 174 167 165 165 165 164 163 161 155 152 152 147 147 138 136 133 126 122 111 96 66 29 17 17 25 30 22 28 17 20 22 30 43 47 42 47 43 45 41 49 44 44 53 46 51 43 36 31 37 44 44 43 42 32 36 52 49 83 137 154 166 168 161 165 170 170 174 178 178 183 180 177 178 180 179 179 178 176 176 175 178 178 178 172 169 172 171 173 177 173 175 173 168 169 167 165 165 164 163 158 160 157 157 149 147 143 142 136 132 127 125 116 110 79 17 17 24 20 24 29 18 21 20 28 45 45 44 44 42 49 44 53 48 48 50 53 47 37 28 36 39 45 39 32 38 40 46 53 80 121 158 163 167 164 160 172 169 174 180 182 184 184 181 184 180 180 177 177 178 177 174 178 175 178 176 176 174 173 175 177 171 173 172 170 170 167 169 164 162 170 170 157 156 161 156 159 155 150 145 139 133 133 133 129 125 109 75 18 17 23 22 32 22 26 17 28 44 41 48 45 47 40 46 53 49 47 52 48 47 29 33 37 40 35 25 36 44 42 51 64 105 142 168 166 163 167 166 169 178 179 178 187 184 183 183 185 180 184 181 183 180 180 176 178 177 180 181 182 178 175 179 180 173 175 173 176 174 169 173 170 173 169 170 169 166 164 163 162 158 155 148 143 137 139 139 135 131 125 101 58 17 21 18 27 27 29 20 19 42 41 48 46 44 44 41 48 52 49 52 46 39 30 44 40 24 27 34 51 40 51 48 80 125 152 167 166 164 171 171 177 181 179 181 188 184 190 187 185 184 185 184 188 184 183 182 175 184 181 183 181 184 177 175 179 177 178 179 179 182 175 177 173 176 171 171 170 171 167 168 168 165 159 154 150 140 140 142 138 139 125 117 92 42 19 22 25 26 27 33 22 32 47 48 44 51 42 44 51 46 51 55 46 33 37 41 28 29 36 52 49 51 57 52 108 131 165 174 165 167 172 178 178 185 183 187 190 188 192 190 188 185 187 186 190 182 184 184 183 182 182 184 186 190 187 178 178 185 183 181 182 182 180 181 180 177 174 171 171 172 170 166 169 168 175 160 153 144 144 143 139 141 127 121 112 81 28 19 24 24 26 39 39 25 41 51 46 43 46 45 53 51 45 57 48 42 33 34 33 22 56 54 59 55 47 83 123 148 169 176 173 168 184 182 181 187 186 190 193 191 187 189 185 186 187 186 192 190 189 189 185 185 185 187 185 188 187 184 180 186 184 184 183 182 182 182 182 176 178 175 173 175 171 173 166 166 179 164 161 152 147 142 142 143 127 127 118 107 53 24 21 21 31 31 43 28 37 48 46 44 46 48 54 53 49 56 45 45 31 41 35 32 62 67 67 57 57 108 122 161 165 175 172 177 185 184 184 186 185 190 191 192 191 188 186 190 190 188 194 196 191 193 188 183 187 188 187 187 182 181 185 187 181 186 186 183 185 180 182 178 177 179 171 177 178 173 173 169 174 172 168 160 150 147 150 143 134 125 121 125 81 30 22 26 27 31 41 37 35 47 46 43 44 44 47 54 50 48 49 42 35 38 38 53 65 70 69 54 80 118 143 173 176 177 174 180 188 186 187 190 188 193 187 194 193 188 191 188 187 192 192 195 193 191 190 187 182 183 184 184 189 183 185 186 182 183 187 188 184 181 182 182 181 174 178 180 176 174 174 172 174 172 173 166 157 155 153 149 141 125 122 128 102 49 21 38 29 28 32 34 27 41 46 45 43 46 48 48 56 47 43 36 38 42 46 68 61 78 60 58 97 131 151 179 180 184 172 183 190 187 191 188 191 191 188 194 190 191 185 188 189 192 189 192 190 193 189 183 184 184 185 182 180 192 185 186 187 187 180 186 183 179 182 182 182 175 178 178 180 172 175 173 178 171 174 169 161 156 153 152 145 135 124 127 118 70 31 27 35 36 31 34 30 39 47 46 42 44 51 50 47 52 39 45 43 49 54 54 83 75 68 81 112 139 163 184 183 184 174 187 192 191 191 187 189 187 192 191 187 188 189 190 190 191 191 192 189 189 188 185 187 186 185 185 179 186 187 186 188 182 182 182 184 180 179 181 180 178 176 176 181 171 174 173 172 177 176 170 167 160 152 153 148 142 137 131 126 88 53 31 31 46 36 23 36 38 42 46 42 42 52 47 56 48 44 45 50 48 62 66 90 63 100 91 116 145 173 186 190 187 187 188 195 194 191 186 186 185 188 191 186 188 188 192 188 188 195 189 194 190 184 182 184 181 185 185 184 188 189 186 191 186 186 184 184 182 180 182 179 177 177 169 177 170 174 172 171 171 169 171 169 162 157 161 152 144 138 136 133 95 80 42 34 53 39 23 31 35 50 38 43 42 53 51 53 53 47 50 54 56 72 80 72 83 109 101 121 157 180 190 189 188 191 193 197 199 190 192 184 187 189 181 186 190 191 192 190 191 195 189 191 190 189 182 183 183 184 183 183 184 190 185 190 186 185 184 184 185 181 181 178 182 179 175 176 174 172 171 172 172 167 171 172 165 165 164 155 149 137 140 141 108 87 61 54 58 38 29 28 31 40 45 35 45 49 49 52 50 52 50 62 62 90 79 80 88 104 115 127 166 183 190 190 189 194 198 200 199 194 192 184 187 188 178 188 192 193 193 196 192 194 190 193 192 190 187 188 179 183 184 185 182 188 182 187 187 183 183 185 183 183 182 180 185 180 179 178 176 173 175 177 174 169 173 165 166 167 168 157 150 138 142 146 118 86 74 58 66 46 33 33 31 32 42 35 45 48 52 48 55 54 52 65 75 87 77 82 85 101 119 142 165 187 189 189 194 198 199 203 199 194 193 190 187 188 187 192 195 195 196 197 197 192 197 193 190 193 191 188 185 183 182 187 181 187 186 186 189 185 187 189 183 183 184 182 184 180 181 182 176 171 177 179 175 176 176 160 168 169 169 156 152 147 139 151 127 82 73 59 76 52 38 41 33 31 38 37 34 54 53 51 50 57 57 63 96 77 76 98 85 94 117 140 171 191 185 195 198 201 200 200 196 195 190 195 187 191 196 197 196 197 197 198 195 197 197 198 194 193 190 189 186 185 183 185 182 187 185 193 187 188 189 189 184 183 185 187 181 182 180 182 178 173 181 175 176 177 177 168 167 175 170 159 153 144 145 151 130 85 71 61 65 60 53 51 27 34 36 36 39 57 52 49 57 54 61 55 95 67 71 91 73 106 116 149 178 186 186 198 197 200 198 197 194 191 191 194 189 195 198 197 199 197 200 197 196 195 199 195 199 196 194 189 188 184 185 184 182 190 191 197 190 192 185 190 186 183 186 186 185 185 183 180 182 183 176 179 173 177 178 175 179 172 174 161 155 146 150 149 135 91 70 60 52 71 51 50 25 36 36 38 35 53 55 50 59 50 68 54 79 80 66 65 76 95 114 163 184 185 185 198 197 201 199 194 193 185 194 191 194 198 199 202 201 200 200 200 200 198 199 198 202 199 197 195 187 188 184 186 188 188 193 194 194 191 188 192 190 186 183 188 190 183 184 183 180 184 181 181 172 179 176 180 184 178 170 171 154 154 150 147 143 95 72 59 56 70 56 45 31 30 37 37 36 58 56 51 54 52 67 56 76 85 71 57 65 92 129 187 182 182 192 193 198 201 199 196 190 190 194 190 195 197 198 203 198 204 200 199 201 201 199 198 203 201 202 192 195 192 184 191 188 194 189 193 196 192 187 190 191 187 183 191 189 186 187 187 187 182 185 180 178 176 178 176 184 188 175 170 161 155 151 147 140 95 75 50 61 67 56 36 36 37 39 35 29 51 55 53 52 61 65 54 81 73 85 40 62 82 168 186 186 183 189 192 201 202 198 199 193 195 193 192 191 199 197 202 202 199 206 198 200 199 198 200 204 199 206 197 200 196 189 193 190 191 192 197 199 194 191 188 190 187 183 190 192 188 188 191 191 185 185 181 181 179 175 176 181 179 175 173 165 158 146 145 136 109 75 51 56 69 52 40 38 44 27 42 26 56 55 52 56 61 64 65 70 74 76 40 70 100 189 182 183 184 181 195 197 202 199 197 194 195 192 194 188 196 194 195 203 200 206 199 201 200 197 199 200 200 209 206 205 200 195 194 196 193 197 201 200 193 191 187 191 186 185 189 189 189 193 193 192 188 185 190 183 183 181 179 183 179 175 175 165 151 151 150 142 109 83 53 48 76 61 45 32 46 34 32 35 53 57 48 54 60 68 55 76 57 72 52 70 111 193 188 178 182 183 192 201 201 198 196 192 195 188 190 188 189 189 190 200 199 203 198 198 200 201 197 199 200 206 206 207 206 201 195 199 197 202 201 200 192 188 189 189 186 187 190 187 187 192 191 191 187 186 185 184 180 178 177 180 179 176 173 159 151 156 150 141 108 72 61 55 78 62 50 37 41 34 31 36 58 52 59 50 59 68 69 73 45 77 59 70 116 197 188 176 178 181 197 201 204 197 188 183 181 177 181 174 179 179 180 190 190 199 197 189 198 195 197 196 197 201 201 198 203 206 197 200 203 200 200 199 192 186 186 185 188 188 184 191 184 189 189 188 187 187 190 183 186 182 175 176 180 176 168 162 148 150 150 140 119 71 55 57 70 68 55 47 40 35 30 35 56 54 48 57 91 66 67 69 45 68 83 54 147 195 190 179 170 184 199 197 197 184 166 152 146 154 147 149 158 147 152 162 163 183 185 179 190 191 191 191 193 189 197 186 199 198 200 196 194 197 191 193 189 180 182 180 185 184 184 186 183 187 184 183 184 186 186 184 185 184 176 179 178 171 170 159 142 140 143 137 134 68 48 49 74 65 61 44 42 40 32 33 57 54 36 130 156 73 61 56 43 71 81 60 159 193 185 178 163 172 177 170 172 158 141 137 135 137 133 130 135 127 127 136 131 147 147 156 172 178 181 188 184 187 181 181 186 196 193 186 185 191 183 188 181 179 180 176 178 176 184 178 182 181 178 178 179 179 182 180 180 175 177 181 182 171 173 151 140 136 144 134 134 74 42 44 73 64 59 45 46 34 34 29 51 56 51 178 140 75 62 45 39 81 74 68 164 193 185 173 157 167 155 150 139 124 120 116 120 114 119 115 107 100 98 109 106 118 117 132 152 162 171 180 182 182 174 177 180 184 187 182 175 188 172 180 172 176 173 169 171 169 176 163 175 165 161 162 167 171 170 170 159 150 152 165 176 180 168 149 134 135 142 136 135 83 38 40 67 69 57 43 44 34 34 35 56 43 63 157 118 92 84 40 51 54 74 74 173 198 190 171 167 158 155 154 133 123 128 123 119 120 119 119 96 90 101 100 107 114 115 134 140 153 164 175 177 175 176 174 180 180 180 174 172 176 170 171 168 170 164 158 152 147 138 129 128 130 122 123 135 146 140 148 150 138 134 135 142 171 175 147 127 137 135 133 134 82 40 32 64 66 48 43 41 32 34 30 55 44 77 133 88 119 107 28 75 60 51 66 166 200 190 169 166 159 149 147 152 164 183 179 178 167 157 154 143 129 128 125 119 119 118 131 135 137 155 168 175 172 178 168 169 172 172 168 168 170 171 161 159 159 155 146 136 122 106 96 90 94 86 88 99 107 115 130 127 122 125 127 119 126 149 151 132 130 129 133 131 86 40 34 64 64 41 39 43 32 31 38 67 22 139 130 74 144 115 25 89 71 69 81 140 189 194 174 159 146 124 101 105 109 123 136 138 145 128 200 189 148 159 159 148 142 127 125 129 141 155 166 172 172 174 168 165 168 170 165 163 169 167 163 151 148 141 129 117 111 102 91 79 76 68 69 85 80 92 104 106 108 112 107 120 116 118 134 129 131 126 133 135 81 40 42 54 63 40 29 51 25 34 31 67 21 184 139 59 182 129 28 85 64 84 111 165 134 135 94 94 102 128 147 160 169 159 156 137 127 104 143 142 112 99 82 105 98 112 100 125 124 145 152 162 172 176 175 171 171 166 169 163 162 156 149 145 134 124 114 105 100 99 84 89 80 78 79 75 74 80 91 94 105 109 107 111 114 104 114 112 121 132 140 132 77 48 36 48 58 42 20 51 38 29 30 65 23 199 135 79 199 159 43 78 64 78 137 167 82 113 160 178 173 171 186 194 192 175 163 147 142 135 130 136 126 109 89 88 90 92 56 97 70 82 81 79 83 97 98 109 115 112 118 126 127 131 119 114 117 107 103 99 99 93 96 116 130 132 140 130 123 117 110 106 107 113 112 120 111 102 104 115 120 132 145 130 70 56 46 40 52 44 32 53 32 29 35 68 26 203 125 132 186 150 61 55 52 93 130 102 172 137 146 179 176 177 178 163 124 139 147 122 125 86 70 94 90 90 90 97 94 77 86 102 99 41 91 134 132 144 132 123 123 94 91 91 76 84 71 52 62 62 57 62 64 63 71 87 91 117 107 116 122 128 136 133 121 112 113 118 114 120 123 122 115 138 141 124 65 50 54 35 50 57 42 58 31 32 33 70 8 196 132 186 177 162 68 40 34 160 130 159 193 162 139 156 162 162 138 114 102 110 91 73 209 64 49 53 37 65 55 87 77 88 83 85 91 113 51 142 178 209 206 199 203 193 189 182 153 127 105 39 73 90 91 93 97 109 115 125 118 141 130 114 106 94 94 85 73 72 71 87 115 119 125 123 116 137 142 126 51 37 36 42 50 52 49 98 63 18 31 67 16 153 176 190 204 146 46 46 53 106 141 168 186 179 179 168 160 146 129 131 121 133 111 147 184 60 84 40 40 99 75 122 102 84 86 102 104 113 106 82 176 212 202 192 187 184 193 197 164 142 50 106 114 94 75 83 88 105 113 118 134 155 139 143 144 156 160 161 150 123 90 82 70 74 88 128 125 137 139 94 34 38 43 34 38 48 71 115 91 16 32 56 52 87 201 202 208 131 81 42 82 122 117 180 180 186 189 187 187 172 163 166 149 150 153 140 160 115 82 96 88 91 104 141 128 112 123 92 133 155 147 57 184 219 156 130 115 124 159 178 166 105 85 128 92 69 65 83 100 97 112 95 113 134 130 129 140 140 145 157 165 159 124 120 122 113 87 61 107 126 98 92 64 51 42 31 35 63 100 113 73 18 34 61 46 66 217 205 198 131 84 27 145 133 116 190 180 187 191 190 192 187 189 187 173 171 166 146 157 147 143 145 130 134 137 146 131 122 130 131 149 187 163 27 159 209 176 157 139 138 131 106 112 52 126 111 72 104 104 90 73 85 98 43 56 46 46 68 88 116 146 150 122 142 137 125 128 131 127 112 85 60 113 109 72 46 43 32 40 88 85 96 77 19 34 61 40 91 224 204 181 195 120 42 60 131 145 190 177 190 194 190 193 188 188 190 180 190 178 159 154 136 145 144 133 136 130 136 131 138 158 171 187 188 132 86 178 154 141 150 135 130 153 159 149 37 142 117 125 134 87 68 97 146 162 63 83 42 42 61 42 89 67 102 110 105 125 136 129 138 134 85 113 91 129 106 61 44 42 26 71 103 45 102 68 19 30 74 20 136 221 188 172 206 203 213 31 147 176 183 177 190 190 190 195 187 188 185 178 183 178 164 159 148 141 136 135 126 122 119 127 128 140 155 146 177 80 138 146 160 165 169 165 150 114 124 189 24 155 159 156 143 130 128 131 150 151 117 107 93 83 86 89 131 98 87 85 97 113 132 134 130 104 90 127 107 114 90 60 43 39 36 107 101 35 110 60 28 24 61 26 143 216 178 157 206 200 241 19 170 183 178 181 192 188 192 195 193 176 184 173 169 168 155 148 140 133 123 125 126 123 125 128 142 143 147 147 187 65 136 146 181 179 177 166 170 122 92 189 26 155 150 146 152 163 163 142 165 158 143 163 145 129 136 141 148 143 126 111 109 107 115 115 121 107 124 136 54 129 49 58 35 45 71 133 86 39 118 36 28 32 70 13 145 219 182 153 166 211 232 32 178 181 174 186 194 190 190 192 194 178 189 183 182 184 175 163 155 149 140 138 138 145 145 143 156 155 166 163 155 32 119 177 189 180 173 156 175 149 80 148 56 145 141 124 112 127 138 118 113 123 126 133 132 132 142 141 139 141 124 111 122 128 126 134 139 136 127 142 44 106 67 47 51 31 113 160 74 61 115 20 33 29 62 27 128 214 172 155 119 219 225 70 171 177 178 192 190 195 190 192 199 188 187 190 185 185 181 174 180 169 162 159 160 155 155 157 165 166 193 158 84 24 160 189 181 178 178 161 172 176 68 195 11 114 155 130 100 113 134 123 112 106 106 106 119 125 128 128 127 129 119 127 140 148 151 153 139 144 133 139 50 88 109 27 46 102 139 158 77 94 78 17 33 32 59 40 79 216 174 179 119 198 225 120 137 176 183 192 189 194 195 193 201 194 185 185 189 179 175 173 175 171 159 155 156 162 172 174 181 187 200 155 38 95 184 173 183 176 170 168 177 176 96 140 15 76 143 143 125 122 137 141 129 125 121 119 112 114 116 116 122 133 143 155 155 151 155 155 140 145 131 141 52 86 111 4 29 82 141 153 114 94 31 28 30 27 58 61 42 191 201 188 139 187 209 167 82 179 187 191 191 193 196 192 203 187 188 177 183 173 170 177 173 174 175 169 167 175 184 185 188 197 190 63 123 155 191 185 186 183 172 167 176 179 144 74 76 43 142 151 143 139 135 143 132 139 139 140 132 134 136 131 140 151 148 161 164 152 146 148 145 149 131 145 37 124 93 13 48 97 130 147 141 46 27 31 28 33 59 63 25 130 218 200 184 189 190 219 49 171 189 190 198 195 194 192 199 189 186 181 177 171 168 174 167 173 173 172 172 175 177 177 197 214 97 126 146 185 194 188 190 174 175 173 168 185 151 98 94 55 109 148 159 148 142 148 141 139 140 139 138 139 149 144 147 156 154 158 155 161 146 150 159 153 129 145 58 141 62 62 103 102 108 139 133 23 30 29 32 32 61 60 34 92 218 198 198 191 188 199 128 102 191 192 198 196 198 193 195 189 181 180 171 171 170 164 169 175 177 175 167 175 169 175 210 111 127 143 162 199 194 191 192 186 166 172 178 180 147 128 80 116 51 152 173 168 157 157 146 149 140 141 146 138 147 150 150 157 164 160 158 163 161 158 160 150 130 129 107 135 35 123 132 91 90 128 127 20 28 30 34 28 54 61 38 102 214 200 196 195 197 184 184 89 137 200 199 198 197 197 195 189 187 179 171 176 178 169 174 178 175 175 171 177 177 183 109 151 149 148 187 193 198 188 191 186 168 174 192 170 139 144 98 104 97 93 180 163 165 163 163 161 154 149 159 144 155 149 163 157 165 167 165 168 162 162 159 153 127 123 146 98 79 153 136 84 85 136 97 18 31 29 30 32 56 65 18 148 212 200 198 197 203 191 156 190 107 141 209 201 199 201 202 196 191 181 179 178 177 180 182 177 181 177 179 182 155 86 187 175 142 178 198 191 198 183 200 179 170 179 183 160 137 151 126 98 130 60 144 167 159 153 164 167 158 162 154 153 160 156 162 158 164 173 171 167 162 161 157 149 134 105 146 52 152 146 109 83 92 148 58 27 26 34 31 29 57 66 25 131 212 196 192 197 198 192 149 174 200 124 94 196 201 205 201 200 190 184 184 175 180 183 177 183 184 185 172 112 105 195 178 151 149 192 201 192 196 182 205 180 173 181 179 161 140 155 158 107 115 135 65 160 158 163 159 166 162 164 161 149 150 162 163 150 159 178 175 171 171 166 154 148 128 122 101 71 175 108 88 78 116 133 21 27 36 30 29 31 56 58 48 52 199 186 182 184 135 186 153 181 187 189 168 97 112 207 206 202 191 187 186 180 182 178 183 176 151 114 106 155 173 159 153 154 153 190 201 192 194 184 201 176 175 177 169 173 146 153 155 123 109 126 141 69 143 162 157 160 166 157 166 159 160 157 158 156 158 169 174 161 182 169 149 146 129 144 45 136 150 79 86 87 135 89 19 34 32 31 33 30 61 56 58 39 81 136 132 113 66 97 165 178 188 192 195 204 155 124 157 192 171 161 165 154 138 131 109 110 115 149 152 147 129 124 146 148 162 186 206 197 190 189 197 178 179 179 167 177 158 146 145 131 93 125 141 141 81 122 155 159 161 160 157 162 164 160 158 166 161 171 175 171 170 171 150 144 155 72 104 142 124 73 103 121 146 33 28 29 36 31 32 31 61 58 58 59 54 61 67 56 52 36 169 178 183 186 192 203 201 200 184 177 148 134 133 126 127 134 139 143 133 134 108 123 129 135 148 154 185 191 198 193 188 189 194 178 175 180 170 176 166 147 137 137 86 114 143 136 132 98 89 145 163 157 163 163 162 168 168 177 172 180 173 172 168 167 166 145 108 131 117 136 131 104 127 138 77 18 35 34 33 30 32 29 56 66 59 53 57 62 55 51 47 27 167 179 183 181 190 192 193 185 186 178 170 151 138 137 132 132 129 134 132 141 131 142 151 146 156 191 188 191 200 193 184 197 197 179 173 179 177 170 171 151 143 151 85 99 132 146 142 125 115 82 99 133 155 165 164 167 172 177 178 175 166 170 199 202 123 110 138 132 123 130 134 133 136 143 28 26 35 37 32 31 29 32 57 62 56 54 54 62 53 50 49 32 168 180 187 181 184 189 184 177 182 176 171 155 156 155 153 153 152 151 149 142 142 145 158 156 190 195 183 195 202 197 187 213 201 173 173 180 178 175 172 159 138 169 90 96 130 142 156 148 122 112 110 94 85 103 117 134 147 157 165 164 112 157 166 144 135 154 140 125 125 134 129 129 142 127 10 32 35 33 36 30 29 29 55 62 56 57 57 55 60 49 46 36 176 178 183 186 184 192 187 190 188 186 181 182 174 168 165 159 154 146 137 129 143 153 157 175 205 186 181 202 210 198 193 213 189 177 170 177 186 189 179 167 131 170 122 105 132 147 155 155 152 135 116 120 117 126 113 117 107 113 126 132 137 153 166 162 150 148 135 118 126 138 132 137 146 126 16 33 30 35 33 33 30 31 61 59 56 60 53 55 57 47 48 47 178 182 176 187 188 186 185 186 182 183 182 176 162 159 159 149 137 133 130 131 143 165 162 176 201 184 167 200 204 190 182 182 172 172 178 172 191 204 179 161 126 162 155 118 143 152 151 156 157 159 152 145 130 125 123 132 130 143 148 152 156 161 155 156 145 143 134 108 101 133 132 133 142 115 11 31 35 31 32 36 30 26 59 60 55 57 56 53 58 45 44 50 180 180 179 186 185 171 173 175 179 179 170 167 158 155 151 136 130 126 131 140 157 176 171 157 176 175 150 158 156 169 171 161 153 159 164 156 169 165 151 137 118 153 162 134 152 151 148 154 153 156 164 162 168 155 139 130 131 126 132 140 146 147 150 149 141 140 141 74 48 104 128 133 144 76 21 27 35 33 33 33 32 29 64 60 55 60 58 54 58 52 48 51 184 177 177 186 179 168 156 168 173 179 174 167 158 148 134 130 131 135 147 156 171 180 184 162 119 126 133 123 125 139 147 146 135 141 145 140 124 118 113 115 114 140 146 115 152 156 145 148 145 153 159 162 165 171 161 154 155 140 135 133 132 143 142 148 137 133 146 51 24 48 90 114 86 24 34 31 34 31 36 28 34 34 61 56 60 59 55 59 53 51 44 46 184 178 182 182 180 169 156 167 180 182 172 173 162 153 137 137 139 148 150 171 175 186 186 195 151 112 131 127 130 124 119 114 105 108 107 102 93 100 88 89 102 114 130 77 147 158 147 137 140 140 150 150 157 164 157 160 160 151 155 148 138 139 139 140 138 130 142 36 27 31 36 45 37 32 29 32 33 36 32 29 35 27 57 60 58 56 58 52 61 50 46 45 180 176 183 188 178 162 149 179 187 193 185 169 155 148 148 143 142 148 161 174 180 182 184 185 182 142 147 141 131 120 118 86 67 70 79 89 96 72 60 41 65 98 98 93 139 173 148 130 131 134 144 149 152 156 153 156 149 150 143 153 144 142 139 134 138 125 137 28 32 34 32 36 31 36 29 27 36 31 34 32 32 27 59 58 56 57 59 55 56 51 49 36 177 173 181 189 178 148 156 188 192 188 179 164 151 156 149 130 137 150 164 173 182 186 177 180 182 168 142 132 127 103 107 90 55 64 72 87 97 92 109 105 115 108 107 111 145 170 156 133 134 130 139 148 145 148 148 147 135 138 144 141 139 133 133 130 134 118 130 18 35 30 36 30 38 31 31 33 32 33 32 34 30 29 62 57 60 57 58 56 52 55 57 18 170 173 177 186 174 148 157 188 195 187 179 162 160 147 120 126 146 152 172 178 186 182 178 187 182 175 153 141 107 104 75 74 45 36 59 70 84 103 113 112 107 105 108 110 149 166 166 140 141 128 136 147 149 152 153 138 138 125 132 136 130 126 132 132 126 120 122 19 34 31 38 34 35 33 33 33 35 30 35 35 30 29 64 54 61 57 53 57 50 54 57 6 148 179 179 184 171 158 168 188 194 192 169 157 147 122 136 148 150 164 180 183 181 180 174 186 162 162 155 149 110 91 69 55 46 35 41 61 72 102 94 109 111 110 101 125 150 166 163 148 141 129 135 145 153 154 158 146 130 127 128 125 121 124 127 127 118 130 92 22 37 34 39 34 32 33 34 33 34 33 31 32 36 24 53 59 57 58 58 52 55 55 56 20 118 176 181 179 172 159 184 188 187 189 151 170 145 148 151 155 146 160 179 170 181 161 159 183 162 156 159 154 135 98 55 47 47 41 42 49 74 97 91 102 114 111 105 136 161 159 156 152 144 128 133 139 151 149 159 152 140 133 121 125 120 128 126 119 114 140 65 27 34 36 34 36 27 36 37 33 30 32 33 33 27 35 54 58 54 58 54 54 55 46 58 33 67 172 173 176 175 156 187 183 187 183 158 160 149 149 149 125 131 154 176 168 175 154 163 172 175 151 156 148 143 125 81 43 43 53 47 53 73 85 98 84 113 108 122 131 165 156 158 147 140 130 132 141 145 150 155 155 151 139 124 122 114 123 133 113 122 138 41 32 36 33 33 35 31 37 36 29 30 35 32 32 26 33 59 60 55 59 57 57 56 57 44 47 28 159 172 170 166 171 180 186 193 180 154 151 149 138 137 109 128 145 161 157 158 166 161 181 175 169 166 163 162 140 107 66 39 51 59 59 75 79 102 91 100 112 122 146 153 149 153 155 141 125 121 133 146 145 147 153 148 139 124 124 135 128 129 106 124 125 18 36 36 34 30 33 33 34 34 34 27 34 28 32 32 29 53 54 55 56 55 55 54 52 51 55 19 121 172 172 169 166 185 180 190 179 148 143 133 114 108 102 118 135 155 169 184 186 185 187 175 179 161 169 173 153 133 118 86 71 91 75 81 93 101 97 112 119 126 141 142 144 150 152 146 140 122 117 133 143 144 151 151 143 130 135 143 132 118 112 133 99 17 36 36 33 31 31 34 37 25 38 31 32 31 34 32 24 53 51 57 55 54 58 55 52 46 51 28 70 165 167 169 161 180 182 176 174 146 132 122 103 90 70 36 86 152 164 174 163 159 144 136 139 133 142 157 145 149 144 129 126 135 117 124 128 122 115 121 119 127 128 137 137 138 144 140 145 146 122 121 134 137 146 147 148 118 134 145 133 115 118 131 60 24 36 33 35 33 35 34 30 30 38 27 33 30 31 30 30 56 52 62 56 56 52 54 55 47 47 49 31 144 163 168 163 167 181 178 166 149 124 119 123 127 119 96 49 39 78 91 96 93 98 96 102 96 96 107 119 144 149 157 147 135 120 121 140 148 143 146 134 132 121 131 131 122 120 132 125 131 145 121 126 138 143 145 135 121 143 138 122 114 119 125 30 28 35 35 37 31 34 29 34 31 31 31 32 31 34 30 32 60 54 57 58 57 51 57 51 52 47 50 23 96 153 162 162 160 176 174 162 140 121 111 129 130 139 142 149 76 25 17 95 59 101 81 80 77 86 82 77 100 113 109 93 77 72 70 94 103 119 132 146 147 133 125 114 107 103 100 118 115 130 131 127 138 148 144 122 131 142 136 113 113 124 85 18 39 29 37 31 30 30 31 29 34 31 29 27 33 34 30 30 61 57 54 59 53 51 51 55 49 51 46 44 42 149 150 158 155 159 165 155 129 114 114 132 144 150 159 177 138 92 61 81 51 159 120 73 64 110 72 57 61 54 53 56 59 65 69 61 68 69 75 95 113 122 118 114 80 87 85 89 95 121 129 133 145 147 134 126 134 140 126 108 116 116 34 28 33 33 35 29 34 32 32 29 31 36 29 30 30 31 37 29 52 57 58 56 57 53 52 54 54 48 50 45 27 111 146 148 156 154 160 149 128 117 117 147 160 165 158 174 168 120 121 105 27 126 135 92 116 146 105 86 70 49 48 51 53 50 53 37 49 54 42 47 57 67 72 75 31 45 64 81 93 114 131 140 147 145 132 123 131 133 111 109 123 79 17 38 32 36 30 34 28 33 32 30 33 28 33 29 29 32 34 24 56 57 58 55 58 49 56 55 56 49 44 44 41 52 147 130 146 152 151 145 127 124 124 152 162 161 160 172 179 153 131 132 105 70 92 71 113 156 125 104 95 62 71 68 73 79 64 50 67 90 12 60 49 15 26 31 58 59 97 109 105 116 134 142 145 145 126 116 136 126 107 106 106 31 31 33 34 33 33 34 32 30 33 28 34 28 29 32 32 29 31 30 53 56 57 54 54 51 60 53 50 44 50 40 47 21 132 123 136 142 142 143 136 141 132 161 165 162 167 172 181 178 142 138 138 115 102 53 109 130 104 114 104 71 85 85 88 98 77 83 80 81 4 49 46 38 56 98 135 138 134 130 111 113 135 142 143 137 116 113 126 116 101 113 51 30 27 36 31 35 30 35 29 33 30 31 32 30 31 28 33 29 29 29 52 55 55 55 53 54 52 55 46 46 42 44 49 26 133 127 128 142 134 143 146 139 139 161 154 161 162 169 177 178 159 136 145 139 136 104 113 126 78 119 126 93 66 98 97 62 91 85 25 50 54 84 95 93 116 140 146 157 149 124 118 122 129 140 140 133 107 116 118 108 104 81 25 31 35 35 32 32 33 33 30 31 33 26 32 34 28 29 31 30 31 30 54 57 52 57 53 53 51 55 44 55 38 49 43 28 154 117 133 125 134 148 138 142 148 155 152 161 169 170 171 167 174 146 137 145 145 149 126 124 116 121 126 120 103 118 118 88 105 104 96 113 108 124 118 122 137 136 148 147 153 133 123 132 128 141 134 121 106 114 111 103 92 31 35 26 40 30 35 30 33 34 31 27 30 37 28 30 35 30 31 30 33 29 58 53 51 55 51 53 58 55 50 46 49 45 42 29 166 123 122 121 130 146 142 137 148 151 148 162 163 164 158 174 164 158 146 133 139 138 141 137 143 131 130 124 127 134 124 120 114 127 126 121 129 122 121 131 130 145 147 146 146 128 133 126 131 131 125 105 98 113 98 99 42 28 31 29 39 33 30 36 32 32 31 29 34 27 31 31 34 32 30 32 27 32 55 59 50 52 57 53 56 53 54 45 54 47 46 41 162 156 107 132 127 139 145 140 150 153 155 153 159 156 158 164 160 150 150 148 121 122 128 127 125 125 127 126 134 136 136 127 117 124 125 116 116 116 123 122 138 145 151 141 146 130 130 130 125 121 114 100 96 98 101 60 25 34 33 34 33 33 31 36 31 30 34 29 33 32 29 30 31 31 34 29 31 27 63 54 57 57 56 53 53 52 52 55 48 49 43 52 162 168 119 128 127 129 145 153 148 162 156 159 152 153 153 160 155 151 141 143 126 124 115 119 111 114 107 114 115 116 114 106 105 102 116 111 119 120 115 131 146 143 148 136 141 140 126 128 120 118 104 88 94 100 65 28 31 36 32 32 35 31 32 32 34 30 33 30 34 30 30 32 32 31 29 29 32 34 61 50 56 53 56 57 58 53 56 50 55 50 43 75 167 161 144 112 120 117 148 152 148 150 152 153 149 144 155 149 146 144 137 130 110 108 102 105 100 100 107 105 108 98 101 96 100 104 110 106 96 119 124 136 145 141 138 134 146 132 130 132 120 110 90 88 97 89 24 33 33 31 32 34 33 32 31 33 31 31 35 27 31 31 32 31 30 25 33 29 32 27 57 55 56 55 52 50 57 54 55 58 52 54 39 79 172 155 159 119 118 112 136 137 142 142 148 151 149 133 143 148 139 144 133 126 104 94 74 61 57 68 83 79 74 80 86 87 85 89 94 98 104 124 131 135 146 130 135 144 134 129 128 132 117 103 83 88 89 41 28 35 29 33 31 33 33 32 34 30 32 31 31 29 29 28 32 33 30 28 31 29 27 34 54 50 58 55 56 52 51 55 54 52 60 56 34 100 170 155 152 158 111 106 129 133 147 147 146 152 155 137 140 148 142 143 135 126 110 97 92 77 68 60 53 40 44 48 53 59 76 92 104 100 110 126 133 130 124 126 142 143 135 124 123 124 110 88 83 90 47 35 27 36 28 31 32 34 30 30 34 29 32 27 35 27 35 31 24 35 29 31 32 30 33 32 57 49 54 53 55 55 51 55 52 54 51 55 26 106 175 154 160 159 136 106 112 132 138 151 143 149 150 144 135 144 148 147 139 134 127 110 104 99 99 98 86 81 82 86 85 88 95 97 114 111 120 125 125 127 123 142 142 139 132 117 119 112 100 81 84 58 33 32 25 38 27 31 30 30 32 30 34 29 33 31 30 28 34 31 29 28 30 29 29 28 32 30 56 57 53 54 52 57 48 54 53 50 57 56 22 134 169 159 159 155 162 114 99 119 141 151 139 145 151 149 137 145 151 153 151 147 142 135 122 112 110 104 97 104 95 105 100 108 113 106 115 125 115 124 124 124 133 144 139 130 124 115 110 104 86 91 55 19 35 31 31 33 33 32 33 30 32 29 33 32 27 34 28 37 31 24 39 27 32 31 28 32 27 30 58 55 56 52 49 55 52 64 57 64 57 61 29 153 168 163 157 165 159 162 94 111 133 141 137 143 153 153 152 146 158 153 154 145 148 145 140 127 130 123 121 117 115 123 115 121 123 124 121 126 119 123 124 125 133 142 135 122 110 114 104 91 86 64 11 20 14 32 27 34 36 32 33 33 27 32 32 34 29 31 31 26 35 26 30 30 28 28 29 28 25 30 52 52 49 53 62 63 67 62 60 57 45 46 31 164 167 160 160 161 162 160 138 78 124 138 133 148 151 153 155 144 154 158 159 151 159 147 150 141 142 140 141 139 128 133 129 140 131 131 135 127 133 124 125 131 136 133 126 108 105 98 94 83 67 9 13 18 21 18 20 25 31 31 38 31 35 33 32 31 31 29 31 32 29 30 28 29 29 32 27 28 26 33 52 55 66 69 70 67 54 54 57 37 42 31 40 177 165 162 172 164 161 149 169 103 95 127 136 148 150 148 153 147 154 158 155 156 154 153 149 151 150 140 132 138 135 132 134 143 139 136 140 131 137 129 133 138 137 128 114 99 102 90 66 102 46 12 15 19 17 18 19 23 17 25 29 35 44 30 31 27 29 31 31 31 27 31 29 27 28 29 27 30 28 28 64 67 72 71 63 60 55 48 41 43 42 25 65 178 162 169 171 173 164 161 165 158 94 111 130 141 140 149 145 142 159 151 153 158 151 148 148 144 138 142 136 137 137 139 142 138 136 137 135 142 134 137 147 145 138 125 109 104 88 66 83 122 66 10 12 18 15 22 16 25 18 21 25 35 36 45 30 29 30 34 28 30 30 30 29 30 27 29 26 25 25 25 73 70 74 69 62 57 53 47 39 38 45 12 102 173 163 169 175 175 166 162 155 158 144 84 115 134 130 142 136 141 146 153 143 161 150 144 147 141 134 137 137 132 134 135 140 139 140 140 131 134 133 141 138 130 129 113 102 88 69 88 115 113 84 3 10 16 20 16 22 16 19 21 23 33 42 39 43 32 30 30 30 27 30 25 29 27 30 25 29 24 28 21 75 71 73 67 66 55 45 47 45 34 37 12 137 162 167 167 174 184 170 167 154 156 153 132 77 127 118 127 132 135 139 142 145 137 136 136 138 136 132 134 135 135 128 136 133 133 139 136 127 130 145 131 130 117 124 93 87 62 93 118 109 108 104 10 13 15 18 16 20 21 16 23 26 30 39 42 42 38 35 27 26 29 28 27 29 29 28 26 27 27 23 25 75 67 69 64 59 53 46 45 42 36 17 51 164 158 167 168 172 180 177 174 154 154 144 151 120 95 113 116 124 132 132 138 139 130 138 138 128 132 131 133 130 133 137 132 135 133 135 133 127 134 134 125 122 114 111 89 54 86 125 113 105 107 106 14 9 18 11 19 20 17 21 23 25 32 36 41 41 43 44 35 25 27 30 26 31 26 31 26 24 26 21 27 77 66 65 68 58 53 49 48 40 24 3 108 163 157 168 171 176 181 181 180 166 148 140 146 142 125 77 113 111 102 131 126 123 111 134 124 129 126 131 116 131 127 131 129 125 129 126 127 125 121 124 120 102 100 87 64 75 125 116 117 98 112 81 9 10 16 10 19 20 22 18 24 28 29 34 35 41 45 46 49 41 22 30 26 29 28 25 25 24 21 25 22 69 73 64 61 64 53 49 46 34 5 30 132 155 160 167 169 174 182 181 178 169 159 138 147 119 143 128 88 95 101 106 111 119 115 125 121 126 120 124 119 120 118 114 115 119 125 119 116 120 110 111 102 85 84 49 90 122 122 111 116 109 104 44 12 14 13 11 17 15 22 20 25 26 32 35 44 44 42 54 52 58 45 25 29 23 26 25 23 26 23 21 26 71 70 71 63 65 46 49 48 12 27 74 152 152 165 168 171 175 182 186 179 177 172 140 140 128 119 145 144 107 74 82 91 96 94 99 103 113 113 110 115 112 112 118 110 106 107 108 111 114 92 86 76 60 66 99 122 120 115 115 114 110 100 18 15 15 10 13 12 19 21 19 27 26 36 38 41 51 52 54 59 61 56 52 28 19 26 25 21 24 25 26 22 69 70 77 67 55 55 53 28 12 76 85 156 159 167 167 170 176 178 181 179 180 169 156 138 134 125 132 147 148 132 86 59 62 78 67 83 97 90 87 100 97 95 104 98 98 93 92 76 79 70 55 54 86 109 115 117 113 120 110 116 110 102 16 15 13 17 9 11 19 21 24 26 32 34 47 53 49 59 55 58 58 57 62 46 19 19 25 21 26 24 24 23 