P2
92
112
255
42 44 39 38 39 45 41 39 44 40 44 45 40 40 46 38 43 44 43 43 38 43 46 41 39 39 44 37 47 41 38 32 38 31 25 24 23 19 21 18 18 17 20 12 20 14 20 16 16 18 17 15 17 19 14 20 16 15 17 22 18 22 17 17 27 30 31 30 29 36 38 30 43 33 42 33 44 36 38 38 36 36 38 36 41 31 38 36 35 39 36 36 42 41 42 42 36 50 37 43 43 43 41 43 45 40 42 44 45 40 47 40 44 35 48 38 46 39 42 33 35 30 26 27 27 23 23 21 17 18 19 20 14 18 12 19 16 15 20 16 17 16 17 15 15 22 17 13 21 14 15 13 16 22 19 17 22 26 23 24 23 30 35 34 40 37 38 38 37 40 43 38 37 35 39 37 41 31 34 40 36 39 40 33 40 47 40 43 43 43 47 35 46 47 38 46 42 42 40 45 40 42 49 43 42 44 43 48 42 47 32 30 26 26 22 28 21 21 22 18 20 18 17 22 16 17 13 14 20 20 17 14 19 19 19 17 15 17 22 13 20 15 18 14 14 27 18 15 20 20 21 20 24 23 30 33 32 33 32 42 36 42 38 38 40 36 38 38 36 39 31 44 32 42 36 33 44 43 42 45 43 41 46 38 44 43 43 43 43 43 43 44 45 41 49 44 44 44 46 42 36 52 36 38 31 26 30 17 28 20 22 22 18 25 19 20 16 20 23 16 24 17 18 22 16 18 18 23 13 18 17 23 17 22 15 17 18 21 17 18 20 17 17 19 17 19 25 25 28 21 33 35 38 39 39 40 40 40 36 40 37 42 31 40 40 38 36 36 41 42 42 46 41 47 45 43 44 42 44 44 44 41 44 49 41 46 45 45 40 39 40 34 43 55 40 44 43 43 39 28 29 28 25 23 29 24 25 20 22 21 25 22 21 25 20 25 21 20 22 20 16 16 21 16 20 22 15 19 15 17 18 20 16 20 17 18 18 21 20 18 20 20 25 30 33 38 38 36 41 38 35 43 39 37 38 38 40 38 35 43 44 46 42 44 47 42 48 37 48 45 47 43 44 44 45 47 44 46 45 44 36 34 35 49 49 48 40 50 54 48 42 41 39 41 27 31 30 24 28 30 26 29 30 26 25 21 25 26 20 24 22 20 22 18 20 17 23 19 18 19 16 15 22 16 19 16 19 20 18 21 22 15 16 16 19 28 29 33 41 40 38 37 43 37 35 40 41 36 43 36 36 44 48 43 45 46 41 43 45 44 44 50 45 46 46 45 44 46 44 47 39 34 33 38 40 47 41 49 50 58 57 52 60 43 45 52 38 35 41 38 35 34 38 30 36 31 32 26 31 30 28 24 28 25 22 25 18 24 19 20 23 21 17 20 21 17 20 14 24 19 18 19 22 18 17 15 18 20 23 30 32 41 37 37 43 36 41 37 38 40 40 40 37 45 43 47 45 43 49 41 43 48 43 48 42 46 47 45 48 44 43 41 28 36 41 45 47 36 42 54 57 43 47 46 53 43 60 58 53 59 55 55 49 51 49 43 45 40 36 39 52 40 40 30 37 29 33 36 25 27 27 23 26 23 20 20 22 22 24 17 22 23 17 16 21 20 17 17 19 20 22 21 23 44 40 37 41 38 36 41 39 41 36 43 39 37 43 46 46 48 45 43 45 47 44 49 40 46 45 46 46 38 35 32 36 43 44 33 45 34 27 37 37 37 33 45 59 62 72 77 71 83 82 78 85 66 65 60 54 47 43 55 49 48 55 55 53 46 43 40 49 40 37 35 29 28 22 22 31 25 23 21 28 19 21 14 25 15 20 17 17 20 15 18 24 36 27 32 42 39 42 37 41 38 38 41 36 41 46 45 49 45 46 44 41 47 47 40 44 46 44 46 40 28 25 36 43 37 37 27 35 23 26 26 26 40 63 85 95 105 109 115 110 110 107 105 98 93 83 83 67 59 54 61 57 58 55 76 65 67 60 64 62 68 49 49 42 33 31 39 36 35 28 20 32 19 16 23 19 16 17 21 19 17 19 13 25 18 23 32 34 45 40 38 37 42 39 36 41 37 43 48 48 43 43 49 45 43 43 50 44 45 47 36 34 23 30 45 41 30 30 22 25 21 17 26 62 101 120 132 138 138 139 138 131 119 119 113 114 105 104 92 79 81 65 69 67 76 80 84 95 72 91 90 87 96 91 86 60 56 56 64 54 53 39 38 33 22 15 23 19 14 21 19 25 18 22 13 19 21 17 28 38 39 34 44 38 42 36 45 39 43 46 46 48 40 50 46 48 44 49 47 47 42 45 30 33 25 39 47 31 25 24 22 21 21 38 95 126 138 147 155 151 151 152 144 143 135 137 136 135 127 132 117 112 102 101 93 85 97 103 100 107 100 106 109 116 117 128 119 101 92 92 86 78 79 74 64 51 33 28 22 17 21 19 18 20 26 15 16 19 16 21 27 38 37 42 44 39 40 39 43 41 40 37 53 42 51 48 43 50 41 49 53 47 50 32 28 36 35 44 33 32 23 28 22 30 63 120 141 148 153 158 156 156 156 155 159 159 153 163 161 156 154 152 152 151 142 145 136 134 130 128 127 129 133 132 141 148 145 144 145 133 118 114 109 94 100 97 93 76 72 47 26 22 21 16 20 21 23 30 15 19 20 21 22 33 35 46 39 41 43 37 44 38 45 39 55 47 52 46 46 50 47 46 47 43 39 28 36 36 37 45 35 30 32 27 37 88 139 138 153 156 152 159 157 161 159 164 165 161 164 163 164 163 163 164 169 165 162 161 162 159 163 163 150 156 155 157 161 164 151 154 156 149 143 134 120 115 115 113 107 104 95 81 60 35 22 17 23 18 18 29 23 18 25 17 18 24 32 46 43 45 44 42 46 35 43 46 50 48 48 47 53 48 46 46 48 39 40 39 42 43 39 40 45 30 35 38 105 147 151 158 155 158 157 161 166 165 168 168 161 165 166 162 170 165 167 169 172 164 165 165 169 168 170 165 169 167 164 162 166 164 159 164 164 157 157 145 142 134 133 134 124 126 118 114 100 83 47 21 16 14 23 20 19 25 25 16 24 11 29 45 42 43 45 45 39 45 46 54 44 46 49 51 47 49 48 36 42 45 41 51 43 37 41 43 41 36 50 111 146 154 157 162 160 163 164 169 171 172 170 167 167 170 166 170 173 168 170 171 173 172 169 163 171 171 170 170 170 168 168 166 170 162 164 162 165 160 161 151 150 145 144 141 137 134 130 122 120 111 89 60 26 17 23 13 27 23 26 20 19 16 25 40 43 46 41 45 43 44 46 48 46 47 50 49 46 47 45 34 38 51 42 43 29 41 30 40 44 55 115 148 153 164 164 161 166 162 169 173 174 177 176 172 173 177 177 174 175 175 172 171 176 174 171 167 171 169 168 173 173 170 168 170 167 164 166 160 166 165 155 158 152 153 149 146 143 139 135 133 124 123 109 99 71 29 20 19 24 21 27 20 16 21 20 41 41 46 42 48 40 50 40 49 49 46 49 50 50 47 32 38 43 39 37 41 39 29 37 52 48 102 145 155 166 165 161 168 168 170 176 177 181 182 179 179 179 177 177 176 176 176 173 178 174 177 171 173 168 173 171 173 171 173 169 167 166 166 161 164 163 167 157 153 157 154 156 149 148 140 145 131 129 130 126 120 107 73 31 15 25 17 25 28 20 20 22 31 45 46 44 45 46 43 41 50 48 48 48 52 46 35 27 42 36 42 45 38 33 40 45 55 88 136 161 166 164 160 165 169 171 175 179 187 183 180 185 180 181 180 178 180 174 175 174 177 176 178 175 177 175 173 178 173 175 170 171 170 170 169 168 168 168 167 166 162 160 158 155 156 155 150 144 138 129 137 133 131 123 103 69 17 24 20 21 27 24 24 23 29 48 38 49 44 45 45 47 49 50 47 50 50 44 31 28 39 46 31 31 35 38 47 50 73 121 156 168 161 164 164 169 173 179 177 183 186 187 183 183 183 180 181 185 183 182 177 178 178 180 180 178 180 174 172 179 174 176 174 177 177 171 174 172 170 172 170 166 172 163 163 164 164 155 157 149 139 138 138 137 136 128 117 99 50 22 21 19 24 22 31 23 29 37 51 45 44 47 42 43 50 46 52 51 51 36 31 36 39 30 20 42 43 44 55 49 98 138 160 169 162 168 168 172 179 177 180 185 187 191 187 188 184 185 184 186 184 181 183 181 181 179 181 181 183 181 173 174 176 179 176 178 183 176 176 177 175 174 174 166 171 167 165 167 165 166 161 154 145 141 141 138 138 130 117 112 94 40 20 19 23 23 31 38 24 31 46 46 40 48 43 42 49 52 47 53 41 35 36 42 29 27 31 50 44 57 45 71 114 149 172 167 164 169 173 178 182 184 185 188 191 190 193 188 188 186 186 186 184 183 185 185 184 182 184 186 184 186 179 180 179 183 182 181 183 178 181 180 175 176 173 172 175 173 167 167 166 174 164 157 155 140 145 139 141 134 120 118 113 74 26 17 22 24 26 36 35 26 43 47 45 49 41 50 49 54 45 55 37 35 37 31 32 25 54 48 62 52 41 100 130 161 176 173 168 179 181 184 181 186 190 190 191 193 191 188 189 186 189 186 189 187 187 187 184 184 187 186 183 183 180 183 180 183 183 183 184 178 183 182 175 178 173 172 177 175 172 173 167 173 171 159 159 147 146 144 145 138 122 124 121 109 46 20 23 23 32 25 46 27 40 45 47 48 40 51 47 52 47 51 45 37 33 28 31 32 64 60 71 45 66 116 140 164 174 175 173 184 180 187 182 188 190 189 190 196 190 186 191 189 190 188 191 192 186 190 183 185 184 185 184 183 179 184 182 185 179 185 181 185 180 184 179 179 176 178 180 179 172 177 171 174 171 171 164 153 149 151 150 141 124 126 121 125 74 27 25 26 31 27 37 29 33 45 45 47 42 42 51 51 53 52 46 42 27 39 34 55 66 73 67 45 91 124 156 173 176 176 178 188 187 188 187 191 191 188 192 196 192 188 189 190 187 192 192 192 189 192 184 182 184 184 181 181 184 182 185 181 182 183 185 180 180 181 183 180 178 176 181 182 171 178 176 173 173 172 172 157 155 154 148 143 133 123 126 129 95 39 28 29 35 35 27 29 29 42 50 45 43 47 47 52 48 52 43 36 36 34 44 67 59 78 60 57 110 138 164 177 181 180 177 188 188 190 189 191 190 190 194 194 192 188 188 190 189 189 187 188 189 188 181 180 180 182 180 174 187 187 184 184 185 180 185 182 183 182 179 183 178 180 179 181 172 175 175 173 174 172 165 165 159 151 152 147 133 134 128 130 114 69 32 27 35 39 31 31 25 39 46 39 44 45 51 52 50 43 40 36 43 40 59 62 80 76 54 86 121 152 169 185 183 177 175 188 189 190 191 189 189 191 195 186 194 185 193 192 190 191 187 190 184 190 182 185 182 183 182 175 184 187 182 186 181 181 181 181 181 181 179 180 181 180 177 180 175 172 174 169 176 173 167 168 157 156 153 151 140 135 133 135 119 86 53 32 33 40 40 25 23 42 46 45 42 45 50 50 50 49 33 47 40 54 56 67 88 63 92 88 135 150 177 185 189 183 187 190 190 192 193 185 190 191 192 189 191 189 193 190 190 192 189 192 186 186 181 183 179 181 185 181 183 188 184 189 186 180 185 182 182 180 181 179 180 175 168 182 170 173 171 170 171 167 167 168 158 160 158 151 143 139 135 140 128 99 67 49 46 54 26 28 28 34 45 41 45 39 54 45 51 44 44 48 41 54 63 85 66 89 101 104 129 172 187 191 189 185 192 190 193 192 192 187 189 194 187 189 190 195 195 190 191 193 190 188 187 185 186 177 182 180 179 182 182 185 183 190 183 184 185 182 183 182 180 180 182 180 178 176 180 173 173 177 172 166 163 174 163 160 163 150 149 142 137 142 134 108 76 70 59 53 36 35 26 33 39 39 34 48 51 47 50 48 51 42 57 53 85 77 69 100 101 109 138 176 188 194 189 189 188 195 196 193 197 187 189 195 183 185 195 193 194 195 193 193 191 190 187 187 185 184 181 179 181 182 183 184 181 185 184 180 185 184 180 180 182 181 183 180 180 182 175 175 177 180 174 166 170 163 167 162 160 155 152 145 136 144 145 111 87 69 58 64 46 28 39 25 36 36 38 43 45 54 50 49 53 44 65 67 87 77 88 85 116 124 158 178 192 192 192 192 192 195 195 193 197 191 191 193 186 193 195 199 197 195 197 192 195 189 188 190 186 187 181 182 180 183 181 183 182 185 186 186 184 186 181 184 184 181 185 179 184 183 176 175 181 180 177 176 174 165 169 168 161 159 151 148 143 147 149 114 81 69 54 70 50 43 41 27 32 41 36 42 53 52 52 51 53 49 75 74 85 79 86 86 111 127 157 186 190 189 195 193 194 194 195 196 194 196 191 195 192 200 198 199 198 198 197 197 199 193 191 192 187 187 184 181 184 181 181 186 182 186 189 181 190 189 180 182 185 181 186 179 184 179 180 174 180 181 177 179 175 167 167 172 164 156 159 143 144 151 153 121 80 70 59 63 61 43 49 20 34 36 38 36 53 57 53 51 56 61 65 90 86 76 87 85 109 119 161 187 191 190 199 196 195 192 191 196 193 193 195 194 196 200 198 199 197 198 197 194 200 195 194 191 187 188 187 181 184 181 181 185 185 190 186 186 186 188 184 183 188 189 186 187 178 188 178 181 174 181 176 179 178 172 175 170 166 163 150 151 150 149 147 132 84 68 62 57 58 52 42 27 28 39 37 32 52 53 56 52 57 55 70 80 81 67 73 83 107 122 166 189 194 193 200 195 190 192 195 189 194 192 196 197 199 200 201 199 200 201 199 197 200 198 198 196 193 190 185 185 182 183 181 185 188 191 190 187 185 185 187 186 187 187 187 185 185 184 180 184 178 181 179 179 179 178 184 163 171 174 152 154 155 151 153 131 94 70 58 63 69 45 37 37 28 39 35 37 53 53 56 54 54 62 66 74 82 64 60 85 90 125 178 187 193 199 201 195 190 195 193 192 190 194 195 198 199 202 202 200 201 200 201 201 202 196 202 198 197 193 191 187 181 184 186 186 189 192 190 188 189 189 191 186 187 191 190 184 190 182 183 184 179 179 179 181 175 179 181 179 180 171 162 156 155 157 151 132 96 69 49 68 72 42 37 36 37 37 34 29 52 57 51 51 60 59 60 77 86 65 54 70 85 150 187 191 190 199 199 193 194 194 192 193 193 195 196 195 201 200 200 201 204 200 202 201 203 198 202 202 202 194 199 191 189 188 189 187 191 190 195 189 188 194 192 191 184 194 191 187 188 190 184 184 183 180 178 179 175 177 179 183 183 175 168 164 160 158 150 131 102 71 51 58 73 42 41 34 39 35 37 27 53 56 53 53 58 63 61 80 80 70 41 69 94 183 180 194 191 197 192 193 197 196 192 193 198 196 195 195 198 199 200 202 205 202 199 202 198 201 199 200 207 202 202 198 191 191 189 189 192 197 196 194 190 193 194 190 187 194 190 192 189 191 189 182 186 182 178 178 176 174 179 179 175 171 169 168 163 159 155 132 99 74 52 58 70 63 36 33 39 30 37 28 57 51 54 48 64 64 63 75 72 70 38 74 117 195 176 193 189 190 191 196 195 197 194 194 195 197 191 195 191 195 198 204 204 203 200 201 200 197 198 198 206 206 206 207 199 192 193 194 189 199 200 199 186 195 190 190 188 191 190 191 190 193 189 184 186 186 180 175 178 174 177 174 178 172 165 162 165 162 158 133 95 71 64 54 76 57 48 37 35 37 34 31 54 54 54 52 58 68 57 74 56 76 52 68 131 196 184 185 190 180 197 197 197 197 197 193 193 189 190 189 187 189 193 199 203 201 200 199 199 196 198 196 200 204 206 207 206 196 202 197 195 199 202 196 188 190 192 188 190 189 191 191 192 189 191 188 187 181 182 172 175 171 172 175 178 174 160 159 164 165 148 140 108 59 59 57 72 66 48 44 36 35 31 31 57 57 52 55 55 69 69 65 49 77 59 67 144 193 185 180 183 184 203 201 204 197 189 181 179 183 184 181 180 180 178 189 192 196 193 198 195 195 196 193 192 196 194 197 207 199 201 203 199 199 199 192 190 186 186 186 187 190 186 190 191 189 190 188 189 186 185 178 169 174 168 171 177 171 159 154 153 155 145 145 122 58 51 55 77 61 58 43 37 38 31 32 57 63 50 49 63 75 58 67 52 69 66 68 163 188 184 180 178 198 206 201 200 179 163 148 146 153 148 159 156 141 152 145 164 174 176 188 189 193 188 188 189 187 182 190 196 199 196 198 196 193 193 189 184 181 182 186 183 186 185 185 185 185 184 189 189 186 191 182 174 178 173 166 174 171 156 151 143 155 145 138 128 59 46 52 75 58 54 45 44 34 36 29 55 59 34 102 122 65 65 43 55 75 72 76 173 185 177 183 164 194 192 180 170 162 149 144 135 148 137 139 137 125 121 124 121 136 143 163 177 178 184 182 187 174 180 180 192 193 187 183 186 181 187 182 181 187 174 182 183 180 181 185 185 177 178 182 185 180 188 177 185 182 184 181 172 174 161 142 147 155 145 134 133 74 35 48 70 64 50 42 46 32 31 36 49 49 59 176 130 61 76 24 59 85 68 81 175 182 180 171 178 184 158 148 146 130 127 123 117 135 122 113 105 91 105 105 100 106 118 143 160 164 176 179 177 170 180 179 184 187 178 182 178 173 175 170 182 171 175 170 177 178 173 177 171 169 174 176 172 177 170 162 162 177 185 187 180 173 165 138 139 164 136 138 133 80 44 40 66 73 42 43 41 31 32 26 54 46 68 172 105 80 81 31 47 72 74 85 181 186 184 174 182 165 150 134 139 135 129 126 128 124 127 112 97 95 113 119 115 101 120 130 146 156 170 176 168 171 177 179 185 179 175 174 173 168 165 167 170 163 164 153 158 145 140 135 139 129 143 151 152 154 148 141 132 148 156 182 186 181 167 143 135 160 125 137 132 85 43 38 63 68 39 35 48 29 30 34 56 46 76 140 98 116 95 28 76 51 61 86 173 193 190 176 181 141 122 119 112 114 110 121 122 126 120 146 144 124 125 139 132 123 111 118 130 153 161 171 169 174 177 173 181 170 172 171 173 168 157 154 156 153 145 136 123 105 94 91 99 103 98 118 130 133 137 135 136 134 118 140 162 175 174 152 130 139 127 133 132 83 43 42 64 56 43 30 44 31 35 32 60 37 104 132 71 150 108 22 83 67 68 92 150 182 152 102 95 88 104 111 119 122 131 130 127 123 114 128 148 122 88 106 102 108 95 92 127 133 145 145 156 163 171 170 174 175 169 166 174 176 162 138 138 134 127 119 97 85 77 68 79 77 75 94 109 119 117 123 127 129 116 118 124 142 166 158 125 136 134 132 131 80 45 33 60 60 37 26 45 35 27 29 61 21 159 131 58 171 112 29 78 62 78 122 121 98 117 148 168 160 170 179 175 183 194 190 181 170 167 168 163 160 149 138 120 101 81 55 103 65 78 83 80 82 94 95 101 111 108 108 122 123 119 110 97 98 98 78 73 68 70 76 81 77 83 80 87 103 105 116 120 117 116 114 102 111 137 149 120 132 134 140 127 77 60 42 49 58 42 31 44 35 30 28 57 29 184 140 57 200 128 39 60 53 90 107 101 131 155 167 174 179 185 188 187 194 191 192 182 177 175 171 172 173 162 163 158 150 140 129 107 78 25 133 146 145 157 140 127 119 109 104 107 94 88 74 51 52 59 50 59 55 65 74 79 65 107 67 66 65 70 78 92 105 113 104 98 100 119 135 127 130 136 139 124 77 52 55 43 48 56 39 50 33 28 32 60 31 199 129 94 204 119 60 47 30 163 98 151 164 131 141 169 180 178 189 192 199 189 181 168 173 165 157 155 147 144 144 142 139 135 137 133 111 93 55 164 181 208 197 192 190 169 164 162 140 126 81 52 76 85 86 95 108 116 135 137 127 136 123 125 122 124 116 104 93 85 64 65 76 104 132 127 129 137 137 129 62 43 38 41 52 55 46 74 44 26 29 66 26 199 119 161 187 107 69 27 52 143 120 145 180 159 133 143 162 169 172 177 155 127 124 131 134 135 130 130 115 109 99 98 101 109 116 122 124 132 45 139 188 209 199 181 183 169 189 181 142 117 46 104 94 82 96 123 132 145 155 153 157 161 150 152 147 149 147 153 154 142 124 108 88 74 71 98 133 138 141 105 39 38 38 38 47 38 60 100 98 14 27 61 25 179 144 183 200 107 39 48 50 137 99 153 178 179 174 147 144 139 136 126 98 100 73 100 101 104 97 97 98 92 75 78 64 71 77 81 118 144 80 81 197 215 160 127 107 113 155 163 163 66 94 104 79 91 119 131 135 148 160 151 158 153 155 153 151 159 152 155 159 142 143 136 131 127 115 80 64 129 104 84 61 62 40 37 39 47 85 113 99 13 27 60 31 133 184 195 213 152 77 89 119 131 83 167 175 181 182 178 173 164 149 122 127 123 96 70 83 97 76 82 67 87 65 61 85 100 105 104 123 165 86 52 170 213 182 171 155 141 138 102 107 48 121 100 86 102 101 99 105 113 128 137 142 142 145 151 154 164 159 167 158 154 142 136 141 142 129 128 96 47 103 112 72 59 46 36 48 60 102 97 94 13 32 52 51 68 203 204 205 121 32 9 113 114 94 183 174 176 190 187 191 186 168 154 140 133 134 102 110 126 102 107 79 113 94 93 101 111 122 134 145 185 59 131 175 161 148 150 135 135 157 157 119 42 138 113 123 97 70 75 69 78 99 134 127 124 122 134 142 150 157 172 163 155 142 139 145 144 130 97 93 115 98 117 63 62 43 38 40 98 81 77 101 15 27 57 42 64 216 211 191 185 173 70 89 108 143 183 170 173 189 183 188 184 177 163 152 137 144 134 131 133 119 124 105 114 108 108 102 95 107 102 109 180 24 169 152 155 161 171 166 137 120 128 165 46 156 141 143 129 120 120 99 68 64 82 99 96 82 89 77 85 101 121 143 155 138 126 135 132 96 85 128 95 117 79 71 48 48 25 71 120 57 79 97 8 36 58 54 96 223 202 181 195 203 171 72 156 171 178 169 178 191 190 190 190 180 173 164 145 148 139 122 121 113 107 101 97 100 107 105 108 119 122 121 195 24 147 159 174 173 171 168 160 114 101 179 61 148 119 111 118 117 117 115 90 97 86 93 88 84 91 68 61 55 56 79 107 101 98 112 103 95 121 137 66 123 63 60 44 51 47 99 126 46 83 96 18 29 65 33 101 218 189 161 207 198 209 68 187 175 170 172 190 185 194 191 187 168 169 175 168 160 162 145 143 144 133 133 139 137 146 138 140 148 162 162 157 10 125 182 188 180 173 167 172 131 90 151 65 142 118 86 87 102 100 99 99 106 102 113 116 107 106 99 88 100 102 67 74 73 105 117 122 127 127 141 60 95 91 42 53 39 69 133 127 30 107 76 19 29 53 52 114 221 184 157 178 205 237 52 190 178 167 175 191 186 194 192 190 183 187 185 181 168 170 168 163 165 162 163 169 172 164 166 172 170 191 149 80 18 159 192 186 175 177 161 168 158 76 140 34 115 147 107 96 114 117 116 100 92 99 105 114 106 115 106 96 96 95 113 126 129 138 140 138 135 126 142 61 75 126 29 27 135 92 156 128 36 119 43 28 29 54 40 104 223 186 161 132 209 234 32 179 174 174 179 185 191 197 193 192 188 192 182 182 175 168 161 158 163 168 175 177 184 167 177 183 181 198 165 15 83 179 180 179 171 174 181 175 171 85 136 28 80 135 134 131 140 133 132 128 123 115 104 103 109 108 106 116 115 126 135 143 155 160 140 142 136 125 145 57 72 121 6 23 53 151 150 130 66 112 21 30 25 50 58 87 217 175 162 122 185 228 87 152 178 177 178 184 200 202 193 194 191 187 183 179 174 163 157 154 155 161 179 176 171 171 179 192 190 194 53 108 149 184 184 180 182 170 170 176 171 131 86 59 42 144 144 144 149 149 145 143 146 142 149 137 142 141 139 140 135 147 151 149 144 158 148 154 137 127 146 55 98 106 23 31 86 130 148 140 109 54 20 29 30 61 48 50 207 184 186 138 169 222 157 88 182 177 171 190 199 202 198 199 192 184 186 188 178 166 164 153 149 159 176 180 161 172 185 192 207 112 111 140 184 189 189 184 175 174 173 166 182 147 98 91 47 114 154 159 149 163 158 151 159 152 155 152 156 154 153 155 145 148 150 166 164 155 152 152 139 123 148 51 119 83 33 75 85 121 133 155 94 21 27 29 34 57 63 24 144 208 200 164 182 195 213 71 172 179 179 187 198 201 202 203 197 186 188 185 185 173 173 163 159 158 170 169 163 176 181 201 142 97 150 152 200 195 189 191 180 164 178 166 182 152 125 77 112 48 174 161 161 168 172 163 163 164 159 160 159 166 160 163 161 155 154 163 169 161 152 155 142 124 138 89 139 51 83 122 99 98 116 161 69 17 30 32 32 58 56 43 88 215 202 193 192 187 200 141 91 189 182 188 194 202 206 204 199 192 190 183 185 190 175 169 167 161 166 161 166 183 193 143 106 152 130 182 203 203 182 199 183 164 170 183 178 156 143 88 112 85 96 169 173 171 176 169 174 170 164 169 166 170 168 159 171 161 165 164 163 166 157 158 141 124 124 144 109 65 134 148 108 88 98 153 66 25 29 31 34 58 56 51 46 209 203 193 192 191 194 173 120 122 194 182 189 203 209 207 202 197 182 177 181 181 176 168 165 160 165 163 176 175 108 140 188 129 156 198 202 201 181 197 172 169 176 180 167 160 153 116 99 129 47 154 173 175 176 175 174 180 166 161 166 169 171 149 164 164 172 168 168 168 158 151 141 122 118 164 52 116 155 143 99 78 100 149 42 22 30 31 28 57 57 42 79 210 203 195 197 197 202 152 181 127 118 189 186 200 207 208 201 195 188 173 174 165 163 155 162 152 171 170 148 91 139 209 170 129 180 202 197 198 177 203 170 170 177 169 166 157 162 145 96 117 125 52 157 175 174 173 177 178 174 169 169 166 161 160 156 158 171 167 172 173 160 151 140 121 131 124 58 147 156 112 79 86 118 124 21 30 27 31 31 59 60 36 108 214 199 195 194 196 206 153 164 190 150 82 157 198 205 206 200 192 187 169 160 156 156 154 159 160 154 107 104 154 172 185 157 125 185 203 194 190 182 202 163 180 173 164 166 154 171 153 115 101 127 126 79 149 166 168 176 168 171 173 168 168 162 167 160 165 171 180 170 178 163 148 136 122 157 53 106 165 127 87 76 90 141 80 22 26 34 27 27 54 60 52 66 207 195 187 194 171 192 158 161 180 187 168 126 101 175 215 203 196 191 180 168 169 163 150 130 105 105 134 153 146 141 157 153 132 182 209 197 185 192 195 164 184 173 165 173 166 150 145 128 86 122 128 130 84 120 166 173 168 172 174 168 170 164 168 168 170 182 177 161 180 162 148 131 156 82 103 113 165 91 87 91 102 141 41 28 26 34 28 31 51 56 63 36 128 183 169 156 129 83 167 165 176 183 183 194 172 131 146 166 139 129 134 108 107 105 108 118 132 135 135 117 117 125 146 146 131 194 204 192 179 195 188 166 180 177 164 171 172 139 134 126 79 115 140 132 128 97 96 157 166 167 169 173 173 167 171 171 180 181 172 162 167 153 154 159 93 115 124 120 148 90 89 110 143 98 21 32 32 29 31 28 58 56 61 49 46 87 97 90 69 14 142 170 177 182 180 180 185 171 166 170 160 144 118 105 100 102 106 113 113 117 116 116 130 149 153 139 164 194 198 188 180 196 186 169 178 181 170 170 168 145 126 128 79 106 133 162 136 123 119 72 100 147 168 170 168 173 178 179 180 183 158 150 173 195 150 105 125 144 119 129 136 129 122 134 139 28 23 36 29 30 32 33 56 59 59 53 55 63 51 55 57 11 133 182 172 180 180 175 174 162 164 166 161 151 137 122 120 126 119 121 125 123 137 146 159 165 162 174 182 196 202 190 188 208 190 165 175 184 171 164 169 150 138 126 77 111 138 153 169 153 123 114 98 69 81 110 139 157 170 175 180 195 120 153 171 143 131 142 138 140 110 134 128 134 132 135 115 14 30 32 33 32 28 33 58 61 54 63 50 59 53 52 55 12 141 181 179 175 187 182 172 167 179 182 182 183 169 148 150 147 139 137 130 131 149 162 172 160 184 187 177 199 206 192 197 207 187 175 170 175 183 171 170 156 137 149 72 116 144 153 159 172 167 134 112 100 98 96 86 85 84 93 102 115 109 131 148 148 148 144 133 133 116 139 131 128 137 147 75 19 38 31 30 33 30 31 64 58 60 58 56 51 59 53 58 15 153 182 185 186 190 191 165 176 187 190 182 172 163 149 143 134 123 110 123 145 154 167 161 172 198 177 174 210 217 189 188 204 177 179 174 182 185 194 179 168 126 163 107 124 146 152 159 164 161 163 160 145 133 115 113 119 127 134 137 143 144 148 147 147 138 143 140 120 114 133 132 134 138 155 58 19 38 29 32 36 29 28 54 58 58 56 54 54 54 56 47 16 164 185 175 187 197 186 161 172 190 186 178 170 152 136 126 117 105 120 135 149 163 177 171 176 191 170 163 185 196 182 176 170 163 172 168 171 190 195 171 153 125 159 153 138 160 157 155 158 152 165 164 168 169 163 153 144 138 129 126 131 134 142 143 143 138 135 136 125 71 109 132 135 134 150 61 17 34 29 31 32 36 28 57 62 57 56 59 54 50 49 58 23 169 186 181 192 189 179 155 175 189 188 172 163 139 118 111 109 120 135 146 159 175 183 180 161 161 161 144 145 143 161 165 155 144 150 160 153 158 143 138 125 121 149 158 144 165 163 149 141 147 151 157 159 162 170 160 164 160 148 139 134 127 136 137 141 137 132 136 123 18 61 106 127 136 128 21 30 35 29 36 30 32 27 58 60 55 59 56 56 53 50 50 24 174 184 183 193 184 176 147 177 196 184 168 152 131 114 115 116 133 140 160 170 177 185 184 171 115 102 123 128 123 128 137 132 129 130 137 123 105 109 109 108 118 135 143 117 158 163 157 134 136 136 141 147 156 165 160 161 155 154 147 148 128 134 135 137 136 130 132 104 17 26 59 84 96 50 23 33 32 30 31 36 26 33 55 61 60 55 56 57 53 52 58 30 175 180 182 192 191 158 138 184 194 183 168 137 115 121 122 125 136 149 164 178 179 175 180 194 152 114 135 141 128 123 113 101 89 95 96 95 93 91 80 74 83 103 127 75 157 174 169 134 126 125 134 141 149 150 156 152 152 141 147 147 139 133 131 132 133 124 132 94 22 30 37 36 36 32 33 31 30 34 31 33 30 29 53 59 59 57 58 52 55 48 57 28 175 179 182 191 185 149 136 190 198 178 159 130 131 144 120 130 147 152 171 183 174 170 170 176 180 148 143 145 131 117 116 74 64 65 78 90 97 81 77 66 50 88 93 91 154 173 175 142 125 122 127 136 141 146 152 148 146 138 139 144 140 135 139 137 127 124 132 84 23 35 35 33 33 34 32 32 28 33 34 29 33 29 59 56 61 59 53 58 56 55 57 30 172 179 180 188 178 147 138 195 194 177 159 139 153 128 124 137 154 170 183 183 176 173 175 176 172 163 138 129 115 98 103 90 52 61 64 86 86 104 106 122 106 105 104 102 149 170 169 163 130 128 119 129 143 144 149 152 143 139 135 135 133 135 142 136 125 120 133 80 22 34 34 34 32 33 31 28 29 34 35 29 34 28 57 54 63 56 55 54 59 48 60 15 160 180 185 187 172 145 153 198 191 181 153 147 141 128 142 148 153 174 181 180 181 167 184 163 170 154 159 130 100 100 75 68 46 34 46 67 64 100 101 115 110 98 103 109 151 161 165 160 147 130 124 124 136 146 145 156 145 137 135 130 132 141 142 137 120 118 140 60 30 33 33 35 34 33 36 32 32 33 34 32 33 29 51 58 63 60 51 58 55 51 62 11 140 178 182 181 171 140 172 193 187 182 135 165 134 154 143 144 144 171 175 186 165 159 179 164 162 149 156 145 98 79 62 54 46 35 33 47 61 89 93 100 106 114 107 122 159 163 160 156 152 139 126 123 131 142 144 158 154 147 137 124 132 127 143 137 117 118 143 41 28 35 34 33 35 34 30 35 33 30 29 34 32 28 51 58 55 59 55 56 57 50 56 23 113 179 174 180 170 134 183 190 189 172 140 163 144 148 136 112 133 162 168 175 166 157 174 173 160 155 151 149 133 94 49 46 47 47 38 53 55 80 92 90 99 110 115 137 152 169 156 160 146 147 126 127 133 140 145 154 158 154 139 123 128 139 138 134 112 123 132 21 34 37 30 38 33 35 38 31 34 30 30 31 34 29 50 59 59 55 58 54 52 51 54 27 63 174 177 171 163 150 185 188 192 173 140 150 142 128 133 104 126 149 157 163 167 163 173 179 169 155 153 150 153 116 80 41 45 57 57 45 66 67 91 91 90 119 123 144 154 158 152 156 153 143 134 121 131 139 141 148 152 156 140 128 143 147 137 127 114 124 116 21 29 40 32 36 29 33 33 36 30 31 33 35 30 30 53 61 57 55 58 57 55 52 46 46 42 165 172 175 166 157 184 188 190 168 139 139 137 119 113 104 110 146 161 190 181 190 184 178 176 165 165 163 169 137 114 75 45 59 66 57 61 80 89 104 101 118 125 137 149 148 142 155 153 144 144 124 120 135 140 145 151 156 148 127 147 146 139 119 118 133 85 19 34 36 30 36 35 29 35 31 33 30 33 29 30 28 56 57 56 57 57 57 54 48 53 54 21 135 172 168 165 156 186 183 181 167 135 125 127 95 84 66 38 104 154 165 168 167 161 159 154 167 149 167 171 145 136 128 105 88 103 90 92 104 103 118 112 121 129 140 131 141 135 143 145 138 147 144 118 124 132 140 152 151 148 119 144 147 138 114 120 133 58 24 32 36 31 34 30 31 32 36 33 29 33 34 30 32 56 53 50 56 55 55 51 54 51 51 24 82 168 169 164 161 177 183 175 162 138 117 122 105 110 94 43 16 49 79 93 103 108 110 100 110 110 118 137 142 149 148 143 139 132 129 119 138 139 133 132 141 122 134 122 137 133 125 124 135 125 131 151 115 133 139 148 151 141 124 149 143 123 117 117 134 20 32 38 34 33 37 33 28 33 35 28 31 33 30 29 33 56 50 59 60 52 57 52 50 53 43 41 34 152 160 161 159 173 179 175 159 133 122 111 121 129 129 139 91 34 13 12 109 82 89 96 89 94 97 91 105 131 146 147 133 119 101 100 113 133 138 148 143 146 148 134 123 116 116 97 113 119 118 136 125 124 138 150 150 133 128 147 144 116 114 122 101 24 28 33 38 32 30 34 31 29 29 37 29 32 27 33 35 60 49 58 59 51 58 53 50 51 50 46 24 111 158 153 164 160 171 168 153 123 116 103 122 123 141 153 142 103 53 4 122 89 98 141 94 50 95 76 65 77 81 74 74 68 60 70 70 78 83 95 111 128 136 130 124 116 87 87 89 90 97 122 130 126 143 150 143 131 130 147 133 109 118 119 61 28 26 34 34 33 32 27 32 32 30 30 29 32 26 33 31 57 56 55 54 54 54 54 50 52 47 47 48 56 155 149 155 157 163 161 145 119 109 113 124 134 152 161 177 128 111 60 113 84 139 160 126 45 148 122 84 65 55 39 50 52 56 60 55 57 58 63 57 66 78 85 95 82 48 44 71 77 97 110 127 135 147 147 137 130 129 141 118 111 122 109 24 29 36 30 36 33 33 32 31 31 33 26 32 28 29 35 29 62 53 55 57 57 51 55 50 53 52 43 50 25 120 148 143 155 163 155 140 120 114 110 145 151 160 167 177 163 119 118 105 72 117 176 153 88 183 148 115 103 73 48 72 69 67 72 34 50 65 63 38 73 44 27 22 20 27 34 82 101 103 113 125 143 146 148 129 123 137 136 117 105 121 66 19 32 36 30 33 34 29 33 29 36 30 31 28 29 31 30 36 58 53 52 57 56 56 55 47 62 51 44 49 33 61 145 137 147 155 154 140 117 122 118 151 161 156 164 178 180 146 133 130 95 75 133 135 105 187 167 146 134 104 91 101 98 101 114 54 87 114 91 45 106 38 15 24 46 113 121 131 125 110 114 134 141 145 144 125 112 128 129 107 112 99 22 35 33 35 34 33 33 32 32 28 37 28 30 30 32 32 26 30 60 55 52 55 54 53 52 57 47 52 46 46 49 23 133 128 144 143 145 136 133 134 125 167 164 159 169 180 185 175 138 144 135 108 119 91 102 154 144 138 141 105 115 123 125 124 116 78 104 110 65 23 85 44 53 81 124 151 149 144 128 114 113 134 138 141 140 119 114 129 118 105 107 48 23 37 29 34 31 36 29 35 34 27 37 25 28 29 34 28 29 32 53 58 52 54 56 57 50 53 56 48 42 46 46 29 83 138 139 141 150 142 138 136 132 164 157 161 168 178 181 181 159 136 147 138 132 116 111 142 111 109 144 121 78 106 119 96 88 111 76 57 58 68 100 108 108 129 139 148 153 147 130 121 124 129 141 137 135 115 111 128 109 103 72 28 28 37 30 33 36 32 28 32 33 30 29 32 31 27 34 27 29 34 56 57 53 55 55 52 54 54 48 48 42 47 45 25 75 138 129 129 148 146 134 139 144 156 155 165 171 175 176 176 174 149 142 148 150 140 132 131 126 124 136 136 111 119 123 106 100 111 103 102 113 116 124 118 127 135 145 149 149 152 132 123 130 127 139 137 120 109 113 113 104 86 29 34 35 33 29 38 31 34 32 33 33 28 35 30 29 33 29 33 26 32 52 53 56 52 55 47 56 52 51 46 47 47 46 25 90 145 116 121 147 146 139 130 148 151 150 164 171 168 170 179 171 161 149 139 141 137 141 139 143 138 137 128 133 136 129 131 115 122 128 122 124 123 125 124 132 139 147 146 147 151 132 132 130 128 132 126 112 105 109 102 94 35 30 34 33 34 29 38 31 30 32 31 31 33 29 31 28 35 31 30 30 31 53 52 53 54 52 55 52 55 51 47 47 48 47 21 102 161 114 123 137 140 142 130 151 151 158 159 167 163 163 172 165 159 150 147 128 127 128 132 129 130 129 125 133 139 130 139 120 113 123 120 118 118 120 132 132 144 143 149 144 145 131 128 131 128 124 125 105 97 104 100 43 27 33 33 34 33 30 35 32 32 31 30 28 32 34 28 29 32 31 30 31 28 50 61 54 53 57 49 59 42 58 52 47 52 52 27 117 165 128 123 126 140 146 143 147 164 158 162 161 156 166 163 161 160 147 146 132 126 120 123 114 117 112 116 122 118 115 107 103 106 110 116 118 121 128 127 140 145 145 148 142 140 147 128 130 126 119 121 95 99 107 56 21 33 32 38 31 30 35 33 31 30 36 32 30 34 30 27 33 30 28 35 28 31 59 50 55 58 53 53 54 51 55 51 50 47 52 25 130 153 156 111 106 134 151 149 144 153 153 156 157 149 166 157 152 149 145 136 122 115 107 105 106 103 107 114 110 102 103 100 105 108 109 113 111 110 128 129 135 146 142 142 138 142 138 129 135 132 122 110 83 101 70 25 32 33 31 35 29 37 31 34 28 36 29 32 29 30 31 32 29 32 30 27 26 30 56 53 54 53 61 54 57 55 50 54 50 56 45 33 139 155 161 130 99 121 139 136 142 146 145 155 148 141 155 146 149 147 139 133 118 102 96 70 63 62 78 80 72 69 82 84 87 90 98 102 109 112 131 136 135 149 135 137 144 136 134 131 135 130 116 99 90 84 37 27 34 29 32 31 34 31 36 29 30 33 28 32 31 28 27 36 30 29 29 28 29 31 57 54 52 55 50 56 49 54 56 55 56 50 56 25 147 156 154 154 104 103 138 133 150 149 147 154 155 142 143 153 146 148 140 131 121 102 107 89 85 81 74 66 56 62 66 73 79 91 103 109 112 116 128 135 134 129 126 138 145 132 130 125 126 125 106 88 94 39 37 27 34 32 28 32 30 31 35 32 28 31 28 35 28 28 30 28 33 29 26 33 27 31 52 56 51 55 52 56 54 47 61 52 53 55 50 24 164 156 149 160 137 93 121 139 135 153 146 152 153 152 145 150 152 146 140 134 127 114 109 106 104 103 100 98 97 101 102 94 103 103 113 121 120 122 129 135 126 127 137 144 142 134 128 121 117 118 98 85 56 26 32 37 33 29 31 32 34 32 33 29 31 35 26 31 31 29 32 30 28 30 28 29 31 31 53 53 52 54 53 53 49 57 50 55 52 53 46 24 169 163 147 156 162 113 93 126 147 158 146 147 158 153 139 147 154 155 150 149 143 138 123 115 108 110 102 101 108 100 110 111 117 117 117 118 127 120 126 128 125 137 140 145 133 127 116 118 118 101 89 63 28 30 32 33 31 35 27 34 27 33 30 32 29 32 31 29 28 31 31 30 29 27 31 27 31 26 55 59 57 49 54 51 54 54 52 58 53 58 43 49 176 160 150 152 158 157 87 115 136 142 144 147 158 155 153 149 156 157 156 151 149 147 140 125 123 128 109 117 114 118 118 110 125 123 126 125 130 122 128 127 129 135 141 141 126 116 120 117 106 90 62 17 20 31 31 36 29 32 31 29 32 31 30 34 29 29 30 30 33 25 32 30 27 26 29 30 31 27 57 52 55 51 50 55 55 59 64 61 61 54 40 71 179 163 151 153 157 164 149 77 125 149 141 156 160 157 160 148 154 155 157 154 156 146 155 145 139 145 135 144 128 134 128 134 140 129 134 131 133 131 130 126 133 138 137 131 121 107 110 107 93 72 13 13 19 20 25 30 29 35 31 31 29 28 34 26 31 32 30 31 30 27 33 23 33 26 31 27 25 29 52 51 55 51 56 68 57 69 58 51 54 41 23 90 177 161 152 157 152 163 157 115 93 129 136 154 156 148 159 148 151 159 155 157 156 154 154 150 147 148 139 139 136 142 128 135 145 136 136 141 136 132 130 134 136 143 133 124 112 108 98 82 94 21 13 14 21 18 19 20 25 27 32 34 32 32 32 30 30 33 29 35 29 30 23 33 28 29 28 31 25 32 50 54 61 65 73 67 58 60 52 45 44 39 11 113 172 164 158 165 159 157 157 168 104 109 133 149 148 152 153 151 154 157 152 156 155 152 153 148 145 149 139 134 142 136 141 142 136 136 136 139 140 137 140 149 146 139 130 117 111 97 81 65 131 29 13 16 19 16 18 21 19 19 22 30 37 41 30 30 30 31 27 32 31 27 30 26 28 30 27 24 27 32 49 67 70 71 69 62 53 57 39 42 42 36 17 137 171 157 166 167 159 159 160 163 160 88 114 141 135 147 143 144 148 154 148 154 156 147 152 148 136 141 138 136 140 137 145 142 134 141 134 135 138 132 140 145 138 130 117 110 103 74 82 98 133 43 13 11 17 15 17 18 18 21 17 26 36 38 49 27 30 30 29 29 28 28 32 27 27 28 28 27 23 26 70 73 72 68 68 60 52 50 42 46 34 39 23 164 161 160 164 172 168 161 160 157 156 143 84 123 126 133 131 138 143 147 141 151 147 139 145 147 131 135 140 137 135 130 140 131 135 143 134 128 131 140 134 137 116 123 106 93 79 71 116 100 125 68 4 15 12 20 17 20 18 18 20 23 35 35 44 42 28 31 25 32 30 27 30 30 26 30 28 26 26 26 76 73 69 69 64 65 50 46 41 40 42 16 59 173 157 165 165 170 175 167 158 157 154 152 128 101 113 115 128 140 134 144 143 135 132 137 129 138 132 127 138 133 136 130 136 130 133 138 133 124 137 140 128 130 116 113 95 65 72 116 116 95 119 89 10 13 14 17 14 23 18 20 19 27 37 32 43 44 41 31 28 29 27 32 27 32 30 29 28 27 23 29 72 67 69 62 65 58 48 49 41 36 33 11 125 165 156 167 166 173 177 175 162 152 149 141 147 137 92 111 113 117 131 137 129 128 132 136 128 132 128 126 133 127 135 134 131 127 130 127 131 122 127 125 122 108 100 95 72 62 121 115 112 92 113 102 10 13 11 18 15 19 24 22 20 30 27 42 42 31 48 40 35 25 27 29 33 23 28 28 26 23 26 26 69 75 63 65 65 53 53 46 41 36 12 43 163 158 156 164 171 172 180 175 174 158 143 144 140 136 132 88 108 93 119 126 118 113 122 125 128 128 129 122 120 126 120 124 120 124 127 118 123 116 117 114 111 89 92 55 78 116 120 112 112 92 117 68 9 16 11 15 21 16 22 20 24 29 32 39 34 39 46 45 49 38 23 27 27 29 27 27 24 22 26 23 71 68 65 64 61 56 50 51 35 23 3 85 168 150 157 166 168 173 181 178 173 164 150 137 140 118 132 136 102 78 101 89 111 116 116 116 123 118 119 121 116 120 113 114 110 113 117 112 118 116 101 92 84 73 55 94 121 117 114 114 112 95 108 26 14 15 12 13 12 21 23 18 24 26 29 40 39 43 45 52 51 57 44 21 24 27 26 25 25 24 20 29 73 70 68 67 58 60 50 51 25 9 39 130 163 154 161 165 168 173 182 180 177 172 159 138 136 125 119 138 144 129 73 66 83 90 82 93 105 112 106 109 112 109 109 113 103 102 102 93 97 88 79 67 53 67 112 114 118 116 114 115 112 101 93 11 16 13 12 15 12 20 20 19 21 30 32 43 34 56 51 54 59 56 56 57 13 22 29 20 29 21 24 28 74 68 70 70 60 57 51 54 11 45 66 149 158 158 163 164 169 174 178 178 175 176 162 151 131 132 120 129 141 147 134 91 51 63 57 60 78 86 81 87 102 86 90 93 86 93 91 63 56 63 49 66 86 110 115 115 114 118 110 114 111 106 93 12 14 14 16 11 12 20 16 28 24 32 33 43 44 53 60 54 56 61 54 66 44 18 18 24 23 22 28 18 