P2
92
112
255
35 36 37 36 35 34 36 37 38 34 40 36 38 34 38 40 37 38 37 36 40 40 38 37 41 38 39 39 38 39 39 37 44 39 40 33 41 37 38 41 36 40 39 43 38 37 48 40 40 39 41 41 42 41 47 43 43 42 39 46 41 50 44 43 43 41 37 38 42 42 34 36 38 36 39 37 35 37 39 33 37 37 37 36 38 39 34 34 35 36 33 37 35 35 39 38 35 32 38 39 35 35 41 35 39 37 37 39 37 38 39 38 41 37 40 40 42 37 39 39 41 36 39 39 45 62 64 61 48 39 42 40 44 39 42 47 53 50 58 57 52 50 52 45 57 57 47 51 45 54 53 62 52 48 39 42 42 43 39 40 39 45 37 39 36 39 40 36 40 37 39 37 33 37 37 37 37 35 36 36 36 39 33 36 36 36 37 38 36 41 35 36 38 35 35 40 38 39 38 38 42 38 38 37 39 39 43 40 41 40 40 41 45 36 45 39 41 80 108 107 95 82 77 67 61 51 59 58 66 63 77 75 74 75 67 73 72 75 69 70 73 62 61 61 56 54 54 53 52 47 48 48 41 42 45 35 38 40 38 40 37 39 35 39 39 37 38 38 36 37 38 33 36 39 36 32 39 37 34 41 35 40 37 39 35 38 38 38 37 39 40 36 40 37 41 38 41 37 41 40 39 42 37 47 50 44 52 54 63 115 126 129 117 110 106 94 91 81 88 72 77 75 80 86 87 87 83 79 77 82 82 91 92 91 85 82 81 66 59 62 49 44 50 50 42 40 56 37 40 37 39 40 36 40 34 41 39 35 39 38 37 36 37 35 34 38 36 35 38 36 36 41 32 41 42 34 39 38 35 39 39 41 39 38 40 38 38 38 40 42 39 39 42 41 38 54 64 77 81 98 115 127 134 128 128 120 120 113 110 103 102 89 88 90 89 87 102 104 100 95 101 92 91 92 97 102 99 93 92 85 76 65 60 55 48 52 49 40 58 40 41 41 39 39 37 41 37 40 39 36 38 39 35 36 37 34 36 38 36 38 38 36 40 35 37 40 39 36 41 38 36 38 39 38 41 39 40 39 41 42 40 42 42 40 41 43 55 69 99 108 116 123 129 131 132 138 134 133 130 132 127 120 116 109 106 106 104 95 100 104 108 101 99 94 94 98 103 105 100 98 99 92 86 79 70 64 52 46 49 47 48 42 39 40 44 37 38 39 36 41 38 39 37 37 38 36 35 39 43 37 34 38 35 38 39 36 39 37 39 38 40 34 39 37 40 37 42 39 42 39 42 40 41 40 42 45 49 62 85 104 125 132 132 137 136 139 138 140 144 140 140 136 138 133 127 123 123 113 109 107 103 106 107 102 107 108 107 98 102 85 83 78 85 87 89 80 73 69 64 48 41 53 47 42 37 46 42 38 40 40 40 36 40 37 39 37 39 38 38 45 42 39 39 29 33 40 39 40 37 39 40 39 39 37 36 44 37 38 40 40 42 42 41 41 48 48 58 62 85 106 117 129 138 138 138 138 132 142 145 146 146 151 149 146 156 152 149 140 128 123 113 109 109 107 107 113 106 100 98 101 88 80 66 65 75 86 73 81 76 64 65 57 44 51 46 43 36 55 35 41 40 40 40 40 41 42 43 37 44 40 37 42 38 41 34 33 38 36 40 39 39 37 38 43 35 41 39 40 39 41 38 42 38 41 53 46 60 87 100 117 122 122 127 128 136 136 131 133 134 131 136 134 137 142 137 135 141 136 128 134 127 120 123 114 114 112 105 107 104 106 96 97 83 74 53 62 80 59 68 68 68 63 63 61 48 51 52 36 43 43 39 44 44 44 44 44 42 42 37 43 40 38 36 36 41 39 40 34 34 38 40 36 39 38 39 38 38 42 36 39 39 42 39 40 39 44 46 60 85 102 117 130 134 137 139 136 143 148 146 150 145 140 140 143 144 143 141 143 140 136 134 141 134 137 130 113 112 99 109 111 114 110 94 76 89 70 48 65 60 63 59 61 63 64 65 60 53 49 53 37 44 42 45 44 47 38 47 40 41 43 38 42 37 41 36 38 41 35 35 40 33 37 38 40 38 39 40 39 39 40 38 41 41 41 41 39 40 49 65 80 98 109 122 132 133 137 138 141 139 135 140 137 133 132 123 129 137 137 138 138 134 136 134 139 139 135 125 106 105 106 123 118 124 111 101 75 91 68 55 56 56 57 65 53 64 58 61 60 54 55 54 44 49 42 45 41 45 42 39 44 41 42 40 38 38 41 38 37 41 36 35 40 37 34 38 38 39 41 39 41 39 38 40 41 40 39 41 41 42 59 78 109 122 127 123 125 130 141 145 143 138 145 144 135 130 126 111 122 126 129 139 134 129 126 124 131 134 123 116 115 113 128 126 120 133 126 88 105 86 67 65 61 54 47 61 57 60 66 56 60 55 52 65 51 44 48 42 41 43 43 41 41 37 43 42 41 36 41 38 36 39 39 34 37 36 40 36 38 41 38 41 39 37 39 39 43 37 46 43 43 65 103 126 134 134 131 132 131 137 147 151 151 151 145 150 145 137 137 141 144 142 133 140 128 133 137 128 121 121 126 125 126 124 134 122 125 138 123 93 113 92 77 73 58 52 55 54 62 62 56 61 60 57 61 71 61 59 53 51 48 44 41 43 39 39 43 41 42 39 36 39 38 40 34 37 39 38 37 37 38 42 40 37 41 38 41 42 41 44 55 53 57 94 129 150 145 138 132 138 143 146 145 146 137 135 136 138 129 128 141 141 138 140 141 141 132 125 124 113 125 137 124 133 128 136 137 123 140 135 121 103 125 95 92 89 76 58 53 58 64 58 62 66 66 58 62 70 67 62 66 59 54 58 52 40 41 41 41 40 44 40 38 41 35 37 35 39 37 39 36 36 40 38 40 40 41 40 42 40 39 48 62 76 91 126 144 152 146 145 144 143 146 141 139 135 134 142 140 131 127 133 141 135 129 128 125 130 129 119 120 123 147 133 130 137 131 145 132 134 139 138 120 130 120 103 104 102 96 81 64 65 56 58 68 65 71 73 64 64 69 68 72 70 57 55 64 62 43 43 40 44 39 42 40 36 41 38 33 38 36 39 38 40 37 37 39 40 42 41 40 40 36 50 57 77 117 142 151 156 152 146 145 146 145 146 140 139 147 150 140 133 141 141 141 136 129 126 120 128 128 114 122 137 146 134 140 134 147 138 131 140 134 146 125 146 114 109 113 112 107 101 95 81 63 61 57 61 71 79 82 70 63 70 74 80 72 58 56 64 60 50 43 40 44 37 41 37 39 37 35 38 35 36 39 40 38 37 40 40 41 43 39 39 41 50 65 101 135 153 161 158 152 151 148 141 150 152 155 164 157 143 143 142 149 153 145 136 127 122 124 135 120 124 130 147 140 140 142 142 139 144 127 153 147 142 145 124 118 120 123 118 118 112 109 100 89 67 61 60 74 74 73 83 78 76 78 80 84 66 58 55 61 70 41 44 45 34 41 38 38 37 36 38 37 41 41 39 37 41 37 41 41 40 40 42 41 52 84 132 149 156 153 155 150 146 135 158 171 164 172 169 144 137 147 147 151 147 139 137 133 136 132 128 130 129 147 152 141 144 144 142 154 133 143 163 153 146 144 115 122 128 126 124 127 121 120 113 108 90 73 58 60 80 80 80 88 90 88 87 85 84 69 55 56 67 59 47 47 36 39 37 42 36 38 40 37 41 37 43 36 40 40 41 41 44 39 41 44 74 116 141 147 148 148 147 139 137 158 177 175 184 181 151 140 149 156 156 145 143 131 134 133 147 144 140 143 148 152 147 142 141 138 154 149 123 166 167 149 162 139 118 129 137 133 132 134 130 126 125 115 108 95 76 59 63 87 80 90 89 91 92 95 88 81 66 72 51 57 64 43 44 41 38 39 39 36 39 42 37 40 40 42 36 42 42 39 41 41 37 73 119 133 141 148 145 139 140 146 159 170 180 184 188 153 131 138 150 161 159 144 139 141 143 152 162 157 149 146 151 143 141 138 142 158 147 143 154 171 167 151 164 134 124 137 138 137 141 138 138 131 129 126 116 111 98 77 67 69 96 85 100 96 90 100 104 88 79 94 53 50 64 52 44 46 38 39 32 42 37 39 38 41 41 38 40 42 42 38 39 43 70 107 139 142 139 143 143 146 152 155 168 173 183 179 150 132 134 142 156 164 157 145 148 145 154 155 156 141 147 154 152 148 141 153 155 153 152 165 173 176 149 156 168 128 135 145 146 147 144 145 141 137 135 130 126 120 112 92 79 67 81 106 98 107 97 103 103 106 95 101 74 47 49 69 44 48 41 37 41 39 37 43 39 36 40 38 43 39 44 38 40 76 106 138 152 158 160 153 153 151 158 168 172 172 172 148 141 144 139 150 161 160 154 146 151 159 163 155 149 148 162 159 160 150 159 155 145 162 173 170 179 172 131 173 154 133 145 152 151 152 149 147 144 142 141 133 132 127 124 108 93 83 76 97 116 125 107 106 106 105 119 109 90 61 54 50 58 48 49 44 39 40 43 38 41 37 40 41 41 40 40 42 60 110 143 147 163 162 157 156 150 158 164 163 167 159 159 155 147 147 153 150 151 144 152 144 156 169 154 153 168 165 159 165 163 166 159 157 168 174 168 175 182 149 144 179 146 142 154 157 157 156 150 149 149 142 141 140 136 135 131 119 106 96 84 74 122 122 129 105 113 111 115 123 100 82 57 47 61 45 45 49 43 35 44 39 41 39 38 47 38 43 40 52 90 131 142 149 159 162 160 157 154 161 153 155 160 155 163 165 161 156 155 148 143 146 157 167 168 162 165 173 174 159 172 164 163 166 165 162 173 165 162 181 170 131 164 163 144 156 159 161 161 157 153 151 151 147 145 144 140 140 134 128 119 105 95 77 103 136 128 116 119 119 115 115 110 97 68 55 52 56 42 50 42 38 44 40 40 40 42 41 39 38 45 76 111 133 132 141 152 159 160 159 154 144 136 156 167 170 170 170 163 162 155 155 147 166 176 172 164 174 182 173 161 171 160 159 161 154 165 166 167 170 172 184 142 150 167 155 154 162 162 159 160 158 153 156 153 149 149 146 144 142 138 134 131 117 103 90 92 135 127 127 126 123 118 115 106 113 88 57 61 69 36 46 48 39 46 39 44 41 40 43 43 35 59 78 121 136 133 138 136 147 147 152 150 143 139 152 165 175 173 165 157 158 161 157 168 183 178 176 177 173 169 160 173 164 155 164 158 165 167 167 166 175 179 157 145 166 160 159 159 164 160 159 159 156 157 155 157 152 152 149 147 146 143 137 133 127 111 107 103 117 145 125 131 124 127 112 104 108 114 83 64 66 51 44 43 50 36 43 39 39 43 44 38 42 47 98 140 135 135 144 147 151 151 150 149 136 140 143 164 178 165 156 154 159 170 166 168 171 166 169 161 168 166 168 166 162 165 166 169 166 162 168 180 178 164 152 162 164 160 165 165 162 157 162 155 156 154 155 151 154 154 150 150 148 149 138 138 133 121 113 114 115 140 138 124 131 128 119 106 106 112 117 83 68 60 42 42 50 40 43 41 37 46 39 43 39 71 138 141 135 145 145 152 156 153 146 144 136 144 162 167 175 166 167 163 160 156 155 152 148 153 163 164 168 170 159 166 168 168 170 164 163 168 173 180 161 160 165 163 163 166 167 162 158 161 158 156 156 150 157 152 156 156 153 152 152 148 146 141 141 133 121 116 125 135 133 127 129 126 121 110 106 115 131 110 82 66 48 41 44 42 41 39 40 46 41 42 41 108 143 136 130 140 139 147 147 149 152 138 144 144 154 153 158 157 156 149 149 142 149 142 154 162 159 164 163 166 165 172 163 164 159 165 162 174 170 164 170 167 171 168 167 165 162 161 159 159 155 153 150 151 153 153 155 156 152 150 152 148 146 145 143 144 128 114 124 138 138 129 120 137 119 117 112 109 131 128 104 80 54 40 42 40 45 42 36 46 45 41 65 125 129 131 132 146 148 148 153 148 149 144 143 147 151 157 152 149 150 142 140 141 146 148 155 162 162 165 165 163 165 157 158 162 162 172 168 169 173 174 174 175 174 172 167 163 162 160 160 156 155 152 149 152 148 152 157 155 153 153 152 150 146 143 142 150 138 120 120 126 142 135 128 130 132 114 123 114 114 132 120 114 66 39 42 40 46 38 41 43 37 57 101 127 121 132 130 131 139 142 144 137 147 146 157 158 157 162 160 152 149 141 135 141 150 152 154 146 145 144 147 146 147 146 157 163 168 173 176 177 179 176 176 172 177 171 170 164 165 160 162 158 156 153 152 153 151 153 156 153 156 153 158 148 149 143 143 150 146 124 130 121 132 143 130 131 132 124 130 125 114 127 124 125 86 43 43 37 43 39 41 43 48 77 116 125 126 133 120 118 116 122 140 143 149 153 160 158 164 163 157 159 152 151 140 144 151 150 147 150 157 156 159 159 168 166 169 173 175 180 177 177 176 178 171 173 172 173 174 167 160 166 164 159 162 158 154 157 156 156 153 151 155 156 158 151 148 144 144 147 150 133 126 132 129 139 134 132 127 142 135 133 117 127 116 118 113 50 41 36 38 38 43 31 64 105 122 125 137 131 117 112 115 124 146 147 149 151 157 154 161 159 151 160 155 149 149 140 142 156 157 165 174 178 178 176 175 170 170 175 173 177 178 170 176 180 172 173 177 174 175 172 162 171 163 165 162 164 160 163 160 159 157 154 155 157 157 156 149 146 143 149 155 139 121 147 124 147 129 136 122 140 138 139 138 128 117 105 123 62 43 39 36 43 34 57 68 128 132 135 146 123 117 106 116 120 153 141 144 148 154 161 156 156 152 153 151 147 128 145 165 177 179 177 181 183 182 173 178 176 176 173 170 176 176 171 177 183 176 173 176 176 175 175 167 178 168 164 167 166 164 164 162 164 158 158 156 157 156 153 150 148 146 146 156 139 128 150 142 141 139 128 135 128 128 144 132 134 122 106 110 100 39 39 37 40 38 39 101 139 129 141 130 122 117 107 108 125 141 144 144 157 156 161 155 156 148 146 133 137 164 174 183 183 185 183 182 184 182 176 177 180 176 177 179 175 176 180 182 181 184 177 182 185 187 178 167 179 169 163 168 163 168 165 162 161 160 161 154 157 158 153 151 147 150 146 149 143 138 136 151 146 145 133 133 141 130 123 141 152 126 111 100 114 51 35 41 41 33 67 109 122 121 124 123 124 123 111 123 135 135 146 147 163 161 164 162 162 152 143 148 172 180 185 184 183 184 183 186 186 183 182 179 178 172 176 176 182 187 180 184 186 187 187 183 195 191 184 176 177 176 164 166 162 166 167 163 160 162 161 157 157 153 150 148 146 147 146 148 147 145 131 149 149 152 136 127 146 140 124 131 135 141 116 106 111 63 44 41 32 56 111 117 125 125 127 127 137 126 126 130 129 147 152 158 165 167 163 168 166 158 163 178 180 182 183 186 183 184 184 186 185 183 188 189 184 184 183 178 186 186 189 185 182 188 188 186 191 205 196 170 178 174 164 165 170 167 163 158 160 158 160 152 151 151 153 149 145 145 147 146 152 144 134 149 153 153 136 129 143 145 135 134 119 132 126 105 112 93 35 37 51 91 117 114 122 124 136 137 149 125 127 133 127 154 154 163 168 164 169 170 168 172 176 182 181 186 187 189 188 183 180 186 185 182 192 192 192 191 191 172 186 190 187 190 189 183 173 176 185 196 183 164 163 160 150 149 148 147 149 148 152 144 138 150 141 145 154 148 141 141 143 142 153 140 125 149 157 148 143 137 148 143 131 132 115 121 126 110 115 99 37 40 76 89 115 112 131 136 147 135 148 123 130 128 135 152 161 164 164 161 170 173 171 175 178 179 178 186 189 185 188 178 182 187 184 185 188 192 186 183 192 170 183 186 180 189 183 187 164 158 172 171 154 153 149 141 132 117 129 121 130 129 129 121 129 141 140 146 142 142 140 141 145 143 148 135 115 137 161 145 149 141 141 142 139 124 118 106 117 112 116 99 60 40 62 80 118 114 141 142 137 131 141 139 132 130 141 163 162 164 159 165 171 173 171 175 176 178 173 184 184 183 183 180 184 188 182 182 176 172 170 159 179 163 182 182 164 186 177 175 167 154 158 153 133 134 124 126 103 106 112 109 106 113 105 109 115 122 122 129 136 143 136 139 140 142 146 135 109 126 153 147 148 143 142 143 139 140 112 105 110 112 121 93 59 39 58 86 125 120 128 130 123 131 142 159 135 139 144 168 168 160 162 165 169 170 173 174 173 179 179 176 180 180 172 174 168 170 155 153 145 143 147 147 153 162 164 168 160 176 172 163 155 143 141 142 122 116 112 108 96 102 93 92 95 91 105 105 108 118 119 112 113 117 126 128 132 137 144 137 106 115 146 147 152 150 143 148 151 134 129 108 101 111 114 107 47 33 72 83 126 129 122 120 126 136 142 173 141 139 140 168 170 158 165 161 168 165 172 171 175 176 172 174 166 159 149 150 142 143 128 122 122 127 120 135 136 145 145 155 154 168 166 152 143 134 130 130 124 110 111 102 95 86 82 82 91 84 98 116 107 116 120 113 112 114 114 109 103 106 133 140 109 106 129 146 153 154 150 140 141 145 121 121 99 112 109 110 38 37 66 91 122 148 112 130 139 148 155 178 149 140 140 161 174 156 164 161 163 166 172 175 173 166 159 157 143 140 133 128 123 120 110 102 103 101 105 106 106 110 116 141 166 171 168 160 132 124 115 99 102 79 80 85 85 97 94 93 99 112 124 132 143 150 159 148 129 122 129 134 119 115 114 112 122 102 117 139 145 155 153 142 136 143 130 129 102 106 109 115 50 36 59 114 129 149 109 138 149 149 148 187 152 141 143 154 171 155 164 161 165 163 170 162 157 158 143 132 120 104 88 68 63 56 64 104 131 129 136 158 178 200 197 188 179 134 110 102 93 83 84 63 68 90 106 104 103 97 105 131 155 165 169 166 170 167 172 166 155 135 128 134 124 109 145 107 104 112 107 130 150 155 148 158 146 129 143 129 113 109 107 106 64 30 73 112 153 139 115 144 144 142 147 190 162 149 146 152 174 159 161 160 163 162 167 152 153 149 137 111 143 135 173 191 213 215 214 205 190 161 134 126 126 132 135 141 141 146 144 140 136 126 106 84 106 106 114 109 118 126 118 142 176 172 168 171 172 168 168 172 170 148 133 133 125 99 141 145 85 116 106 113 146 157 154 156 158 133 131 146 125 110 113 108 56 26 65 117 147 124 126 148 137 127 148 187 180 165 170 147 167 161 164 158 160 158 147 131 131 127 124 116 172 153 193 171 170 167 161 155 138 123 105 69 95 130 138 159 167 174 173 158 148 133 97 124 112 115 111 113 151 152 121 230 223 204 142 154 157 161 159 167 175 159 138 134 131 99 124 147 125 106 107 99 135 152 162 156 163 142 119 139 140 106 142 106 72 27 60 125 136 128 139 131 130 131 146 185 202 180 167 145 163 164 153 131 125 128 132 142 144 139 136 133 138 134 134 124 120 115 112 114 116 121 118 116 83 115 154 161 168 158 144 146 146 107 115 136 130 120 113 132 151 135 107 231 222 192 146 153 148 149 143 148 159 157 138 136 132 108 100 148 153 100 117 97 115 151 155 158 161 150 122 132 135 118 139 112 94 18 67 135 127 141 140 122 131 129 146 185 208 193 147 139 163 135 121 127 148 153 152 149 142 158 176 160 147 173 177 157 149 146 139 137 132 129 121 123 148 78 149 141 134 122 119 122 108 99 126 145 143 117 120 132 130 108 114 217 205 151 138 130 137 142 145 151 144 140 143 141 125 169 108 121 163 118 107 62 146 129 156 151 151 145 137 127 132 132 137 122 114 26 94 139 133 138 145 124 129 138 142 187 214 179 126 147 114 124 166 138 154 158 154 137 148 193 194 172 168 224 227 172 142 142 144 145 142 136 127 131 164 116 127 128 192 183 120 76 101 190 92 140 145 119 121 124 119 105 142 153 132 100 117 70 93 121 124 137 146 125 140 145 140 194 169 80 154 142 43 33 193 116 160 141 143 143 144 128 132 133 134 119 116 46 101 139 145 132 151 133 131 136 136 196 199 156 120 111 118 156 187 166 148 158 141 136 166 200 191 172 154 227 226 171 117 119 122 126 132 131 123 134 165 144 196 106 207 145 61 49 88 155 100 117 133 139 133 143 117 101 117 136 98 86 67 38 69 88 111 107 123 122 131 141 156 212 224 69 134 140 40 46 149 110 152 147 137 141 143 140 125 130 126 108 107 73 94 138 144 124 144 148 129 132 144 188 182 126 127 83 163 141 206 171 135 152 133 154 175 190 174 166 164 199 208 140 125 127 116 110 109 125 125 143 149 140 120 113 130 120 89 123 106 103 98 112 135 154 151 145 106 105 116 125 112 102 100 84 92 108 112 108 107 104 111 128 139 199 208 70 91 126 80 100 106 86 120 154 135 142 139 145 125 128 119 117 108 46 69 138 142 124 138 150 132 132 155 179 173 87 154 105 169 135 210 138 126 154 130 166 177 167 150 186 186 157 153 109 98 109 107 103 109 122 150 162 151 115 97 145 150 165 157 153 145 102 84 113 134 155 149 140 125 117 121 120 124 122 129 124 119 124 122 121 107 103 105 122 139 171 158 88 92 142 97 136 110 93 112 148 134 142 135 157 132 128 132 117 112 32 49 130 139 128 146 144 137 131 160 173 171 60 186 124 168 131 203 103 132 213 142 162 162 148 151 156 138 105 84 62 68 104 99 90 103 115 151 154 157 79 123 121 180 170 165 156 165 109 90 101 132 143 142 136 122 116 114 113 123 127 132 132 131 130 132 132 129 125 125 134 144 158 148 119 105 138 103 144 133 98 113 138 126 139 137 160 134 134 134 123 107 30 42 130 143 129 152 144 134 139 153 172 156 53 166 146 151 137 191 67 174 230 193 152 137 148 147 116 85 87 42 76 92 114 115 102 112 122 139 142 168 60 132 124 177 175 162 150 156 141 84 86 130 140 147 141 135 129 119 120 119 118 121 125 127 131 139 144 147 147 149 147 148 152 149 125 102 136 101 140 144 101 107 124 128 139 144 150 143 141 132 123 104 28 72 118 150 120 159 138 138 142 133 160 139 71 126 150 122 142 179 56 193 231 215 152 119 137 118 113 93 105 99 121 123 118 117 107 107 122 139 151 172 54 133 142 170 173 158 146 149 153 108 69 119 139 148 142 142 145 138 136 136 130 128 130 123 128 136 143 148 150 151 146 150 153 154 126 101 139 100 133 142 107 91 119 134 146 140 138 142 143 128 126 96 46 68 126 143 122 160 132 150 137 140 142 162 65 67 148 72 134 163 56 166 231 198 152 121 120 114 124 141 134 128 131 123 120 108 113 122 138 144 153 159 73 126 162 170 167 158 147 147 148 144 81 79 140 148 146 141 144 144 141 144 143 144 144 139 142 144 147 148 150 147 152 151 154 156 128 110 138 95 131 138 119 83 121 133 154 134 131 134 149 127 122 90 42 51 130 136 123 154 136 155 134 147 107 182 22 44 152 67 105 125 63 114 181 164 143 126 114 114 130 147 140 131 119 116 114 119 132 142 146 145 165 128 91 131 164 169 163 157 149 142 145 151 130 63 111 153 148 143 144 144 141 145 144 143 146 151 151 146 148 148 148 151 153 150 155 156 132 114 127 94 129 133 128 92 119 131 140 138 125 142 145 130 121 83 25 29 138 138 114 162 137 159 133 133 134 134 69 49 151 64 96 144 90 122 162 176 154 147 140 133 139 145 146 131 119 123 127 137 143 145 145 143 180 88 110 140 166 164 162 155 150 137 144 150 139 115 67 139 157 144 145 147 143 141 142 144 145 146 144 149 147 148 149 155 157 151 160 162 138 109 123 92 132 128 129 102 121 122 134 137 128 148 132 132 118 89 18 26 121 131 120 167 138 156 135 130 150 115 107 70 149 47 59 152 114 121 172 174 162 164 164 162 159 162 160 145 140 136 140 141 143 143 148 148 177 72 109 150 167 166 163 154 154 141 147 150 136 135 109 92 149 148 144 146 143 139 140 145 142 143 140 146 147 147 147 156 158 158 165 172 143 110 133 98 133 126 127 110 116 118 134 140 131 147 119 129 120 99 14 27 90 120 125 155 148 150 130 129 144 127 119 77 139 58 32 135 128 115 165 169 163 168 171 174 168 162 162 153 140 144 142 148 143 142 150 162 132 108 105 155 172 162 169 160 159 150 155 148 143 135 136 121 85 145 150 146 147 141 142 143 142 140 145 146 147 146 146 157 159 161 164 183 142 173 123 109 132 125 125 114 105 121 137 137 133 140 108 127 123 106 20 30 53 86 137 145 163 139 131 136 136 133 123 95 112 95 34 91 154 117 154 164 165 164 165 170 163 163 151 150 143 144 141 144 144 143 149 179 79 140 110 162 181 163 171 172 200 160 155 162 169 138 136 142 110 78 143 154 149 144 148 146 146 142 147 150 144 145 143 150 158 160 169 168 161 209 107 132 130 125 124 111 97 114 133 121 139 126 99 127 129 111 25 34 40 51 140 146 179 139 127 144 132 135 116 113 69 143 27 39 165 126 148 163 168 167 163 163 157 155 146 144 145 144 146 146 143 149 160 135 110 108 138 168 186 175 190 179 210 159 153 169 171 146 151 142 139 113 86 118 154 148 148 145 144 144 144 147 143 142 142 152 173 167 165 143 137 141 142 136 127 122 124 105 91 111 126 117 135 130 94 115 126 83 32 42 41 22 138 145 171 151 137 127 135 128 114 115 76 165 36 29 108 134 144 167 173 170 166 163 151 148 142 144 145 150 150 146 149 156 163 91 140 92 158 164 170 167 210 167 174 158 143 147 132 136 147 152 148 149 130 82 85 112 135 143 138 138 141 142 144 143 147 163 156 138 120 109 136 156 147 135 125 122 119 106 85 102 110 106 124 134 100 115 111 36 27 39 46 24 105 148 163 163 149 114 149 128 101 109 110 130 80 34 55 87 148 164 178 177 169 161 148 145 149 146 149 155 152 151 158 168 99 131 107 142 167 161 153 149 174 161 153 147 141 127 127 127 135 140 160 162 160 140 78 73 78 84 95 98 107 112 109 108 107 115 116 123 139 146 156 150 142 134 128 120 116 110 85 72 83 88 108 124 121 117 81 18 31 42 40 29 68 152 168 154 157 123 140 140 99 104 154 62 162 40 48 54 147 160 173 178 169 159 149 148 154 156 157 154 158 161 161 101 117 116 120 178 163 150 140 141 158 153 135 126 133 125 126 113 115 118 139 157 172 170 117 112 116 112 98 94 89 94 98 106 125 140 148 157 157 151 150 146 137 133 126 120 115 117 110 52 60 72 88 115 128 121 59 20 28 39 44 33 29 153 162 168 153 138 127 134 111 104 148 96 140 117 44 33 132 159 169 169 171 150 148 154 156 163 161 159 158 142 99 106 119 98 160 179 154 140 119 108 146 143 122 108 111 126 98 52 50 65 94 123 143 154 130 117 146 146 155 152 145 145 144 145 146 151 155 158 154 149 145 142 137 133 129 120 112 122 133 77 46 63 71 105 133 119 46 23 29 40 41 42 12 145 150 165 166 137 126 124 110 103 131 152 73 157 162 53 94 162 164 168 174 162 158 167 166 166 167 138 109 91 95 106 120 124 168 163 148 116 50 41 84 144 116 91 94 123 88 80 23 30 43 78 114 127 126 105 140 145 155 157 158 160 167 167 166 168 171 170 159 149 142 139 136 136 128 118 110 131 141 93 42 57 61 98 136 126 40 21 30 38 43 39 17 115 139 146 179 132 131 115 110 104 123 137 136 90 171 155 128 154 162 164 175 179 166 160 144 124 105 93 86 92 108 132 148 146 163 158 131 73 25 36 84 128 126 85 91 120 98 117 68 55 54 42 86 114 98 112 144 142 146 150 157 165 167 173 169 166 170 176 167 160 150 137 134 137 129 115 110 135 139 84 45 56 61 104 138 124 40 24 30 42 38 38 31 64 148 95 170 144 128 123 110 104 115 132 137 135 133 119 113 117 116 118 120 120 121 108 103 98 95 96 119 143 154 148 154 158 154 150 111 43 54 80 125 121 136 96 92 106 94 115 122 119 118 76 76 93 92 133 156 148 141 147 155 158 161 161 164 165 164 174 166 165 152 138 138 137 123 117 110 141 128 91 62 59 73 114 139 122 35 23 29 41 43 35 47 18 144 95 116 137 127 132 113 105 103 126 135 139 149 162 158 161 153 162 171 165 172 149 126 132 140 162 171 163 160 142 162 170 151 138 100 63 113 153 151 145 124 99 78 89 90 117 135 144 141 135 123 127 135 148 160 154 150 143 148 146 159 143 159 166 157 161 157 162 151 143 140 139 122 114 114 142 115 85 96 105 103 130 132 123 27 27 32 41 40 41 42 13 103 106 118 81 126 146 134 125 103 117 133 139 147 155 155 159 162 163 175 172 177 171 170 173 179 182 168 161 149 150 171 174 162 126 116 120 146 173 162 165 146 96 74 101 108 132 144 150 143 146 151 153 155 154 155 162 158 150 152 151 155 153 160 166 159 159 160 155 144 142 141 135 124 114 115 138 99 96 119 129 128 134 116 126 15 24 32 42 35 43 39 29 42 84 136 79 138 158 148 142 79 106 130 138 146 148 153 157 158 159 161 173 176 189 187 185 182 173 159 154 156 163 182 178 175 159 154 166 168 172 171 174 157 122 94 139 137 153 147 148 151 153 153 152 156 148 155 160 162 160 158 150 157 154 153 162 158 154 154 150 145 136 140 135 124 114 114 137 124 123 131 135 129 119 129 96 16 30 32 43 38 37 37 36 35 24 147 104 154 163 140 116 69 127 120 137 148 150 148 157 160 157 161 175 185 189 189 185 181 164 160 152 157 173 183 183 174 166 166 171 170 174 176 165 158 145 124 156 158 163 153 145 151 159 152 147 144 149 153 163 158 159 157 156 155 158 154 157 153 149 150 144 142 135 138 133 124 114 112 133 127 127 133 129 133 122 136 56 16 31 28 37 36 44 37 34 37 16 95 134 172 164 137 98 101 163 106 129 145 150 143 151 163 162 177 176 182 182 187 184 173 169 165 160 162 182 178 179 167 170 171 165 169 168 171 161 167 144 142 166 169 168 163 148 149 154 153 160 143 147 147 159 156 152 155 153 151 160 160 155 148 151 148 146 139 134 136 131 123 113 115 132 127 126 130 132 129 130 115 15 26 28 29 38 40 36 41 36 31 32 45 162 180 164 142 110 124 184 102 122 140 145 148 149 160 176 180 180 173 184 185 181 172 168 164 154 172 183 175 169 168 171 171 174 162 164 174 165 161 155 156 162 171 175 166 164 153 155 153 160 146 152 147 155 159 149 148 145 153 159 155 149 149 150 147 146 140 132 138 130 121 115 114 129 128 125 127 128 131 132 56 19 29 33 26 39 36 38 39 35 31 38 20 145 181 161 138 138 112 183 113 117 132 145 155 149 164 174 176 176 178 177 184 178 173 166 164 161 177 178 173 173 171 170 169 174 165 174 176 168 172 163 158 169 175 186 174 167 154 157 158 162 156 151 150 152 153 153 146 138 148 159 148 144 147 153 150 144 139 139 136 127 121 117 116 123 132 124 126 126 133 104 14 29 29 30 27 36 39 37 39 36 34 36 14 116 174 159 133 145 123 148 131 116 130 145 155 158 163 171 172 178 173 177 178 176 178 171 165 166 174 173 168 170 166 167 169 169 178 180 183 179 175 167 160 175 169 176 155 151 152 153 158 160 159 155 151 153 151 153 150 147 141 149 158 148 145 150 152 144 140 136 138 127 117 117 113 112 124 128 125 123 112 45 25 28 31 28 28 41 36 41 37 35 37 34 19 80 171 161 131 137 140 126 127 117 131 142 161 159 165 170 171 171 173 174 178 178 180 169 165 162 173 170 175 164 163 168 180 180 188 173 153 157 143 151 158 163 148 124 100 101 105 113 139 146 158 160 158 150 151 150 153 155 143 152 152 146 144 153 151 141 144 134 135 126 125 122 108 96 112 120 112 95 54 29 26 30 31 28 28 39 38 43 34 37 31 38 32 60 157 165 137 141 152 123 115 120 128 141 155 164 164 166 165 172 172 172 171 173 179 171 162 155 171 163 172 161 169 166 188 179 157 118 105 104 102 98 114 111 90 75 75 73 69 80 91 103 114 136 146 151 147 140 141 148 141 141 148 147 150 154 148 141 140 138 134 129 123 122 103 67 93 95 78 52 27 29 25 30 26 32 28 36 40 41 36 36 31 35 34 22 146 150 166 154 162 147 153 109 127 141 147 161 160 169 163 172 169 172 177 169 176 174 161 154 167 165 168 172 168 176 164 129 110 97 82 81 78 71 73 60 57 59 57 55 53 51 71 69 67 90 101 131 139 130 124 133 135 137 143 145 148 151 144 138 136 136 131 129 124 125 96 51 67 70 52 41 23 31 25 30 24 33 26 44 37 40 37 36 33 33 34 17 113 146 153 156 158 158 169 113 128 138 141 154 162 159 167 163 173 176 172 174 174 167 159 166 172 173 167 171 167 148 110 86 82 63 38 58 79 83 88 40 97 79 77 82 53 49 47 33 55 64 67 84 112 112 100 116 125 134 140 144 149 151 145 136 135 136 129 129 121 126 88 52 72 67 33 31 26 29 29 27 29 27 31 41 41 37 36 36 35 30 33 27 62 168 148 151 153 162 165 118 131 138 140 149 159 162 163 159 166 173 174 170 174 161 163 165 173 171 165 167 134 100 79 63 38 42 22 111 117 126 128 72 132 116 108 119 61 48 48 31 67 61 43 50 60 74 90 113 126 132 140 147 153 151 142 129 134 134 129 125 121 127 75 58 79 62 28 29 28 25 25 30 26 27 34 43 37 40 41 34 32 32 37 36 21 140 154 152 152 156 153 134 124 139 146 146 159 158 160 163 162 169 176 170 170 165 163 168 165 155 164 147 103 65 63 39 15 47 26 113 169 153 160 101 85 113 89 95 83 90 97 105 120 107 89 88 91 102 119 128 128 129 138 146 149 150 135 130 133 136 130 121 122 127 67 51 78 53 27 28 27 26 26 30 25 26 31 40 38 41 39 36 33 37 31 36 27 64 150 160 157 150 149 157 115 142 142 144 155 159 154 158 160 168 175 171 172 164 165 168 152 129 142 118 66 52 85 30 21 28 22 24 53 52 49 33 24 56 100 126 120 128 119 122 116 117 122 131 141 138 129 131 132 133 136 146 150 145 129 132 136 135 128 119 122 122 55 60 65 47 25 29 30 28 25 29 28 28 28 42 35 38 41 37 35 33 35 36 34 17 84 159 148 154 154 160 112 141 142 139 154 152 155 152 162 162 175 175 174 163 154 163 130 111 95 72 52 97 121 122 98 89 81 81 64 72 67 90 109 130 130 138 124 121 122 112 118 118 125 142 158 148 141 134 134 129 136 145 145 138 132 133 135 136 126 119 122 113 52 67 58 39 30 23 29 28 28 24 28 29 29 36 38 37 41 38 33 33 36 34 33 29 19 89 132 143 147 140 114 138 143 144 151 150 155 152 157 161 170 177 171 164 154 152 127 110 111 121 116 135 125 137 120 127 123 127 130 128 134 138 137 146 130 132 122 114 122 117 122 127 135 148 155 154 147 136 135 125 136 143 141 133 131 134 135 132 126 120 123 98 52 56 45 34 27 25 25 27 26 29 25 29 30 42 37 41 35 37 34 34 38 32 36 33 29 28 49 81 102 90 82 138 144 145 150 150 149 159 153 164 165 170 169 162 153 142 138 114 152 164 134 132 129 132 134 140 141 133 145 135 132 135 143 135 129 112 108 113 122 120 125 137 139 145 150 152 147 134 135 131 136 141 137 129 131 131 133 129 124 121 126 74 52 52 38 28 28 27 23 29 30 26 27 29 30 41 35 44 35 36 36 35 36 31 37 31 32 34 33 35 34 41 36 139 140 143 148 153 154 155 148 154 165 167 167 158 141 137 133 124 171 173 152 136 133 125 127 136 133 129 129 129 122 134 130 119 118 111 112 114 123 127 132 139 136 144 146 148 143 136 130 128 137 137 135 130 131 132 131 129 123 124 118 54 42 44 27 30 25 25 28 27 28 25 27 26 33 39 40 43 38 38 36 39 34 32 38 31 32 34 33 35 30 44 18 110 138 140 145 151 151 156 151 149 163 168 163 156 145 133 126 146 177 177 168 149 145 129 128 129 117 121 123 113 130 135 112 102 103 101 108 118 126 131 131 137 138 141 144 142 140 138 127 130 134 137 131 133 129 131 131 127 120 120 116 51 28 34 27 25 30 24 29 26 29 27 30 27 25 41 40 40 40 36 37 38 31 38 33 34 33 34 35 34 31 42 23 50 142 139 142 145 149 159 152 145 150 164 159 154 147 132 135 160 174 173 169 165 160 142 144 129 128 116 114 92 102 95 76 87 87 98 114 121 124 124 135 131 138 133 137 133 139 132 131 133 130 125 132 130 131 131 129 123 121 118 118 31 30 28 25 28 30 27 24 30 29 22 30 29 27 36 41 40 38 38 35 36 32 35 32 34 36 30 33 33 32 31 33 15 115 138 138 143 150 157 155 146 146 155 163 156 148 129 142 159 168 170 164 166 162 155 151 141 135 119 112 93 88 74 92 96 100 101 107 117 120 124 128 130 129 133 133 135 132 123 135 131 127 124 128 125 132 132 130 120 119 113 124 30 21 27 26 29 23 30 28 26 24 28 29 25 28 36 42 42 38 40 36 41 34 34 32 36 31 32 36 35 32 32 31 24 56 135 137 139 150 152 157 150 146 154 154 155 144 134 135 157 161 159 162 158 156 148 149 147 140 126 115 97 99 95 104 106 108 97 104 108 115 124 123 126 123 131 134 135 127 130 131 133 129 127 128 128 131 133 128 120 120 113 128 27 26 26 28 26 26 28 25 29 24 31 23 30 29 39 40 44 37 41 36 38 37 35 33 33 32 32 34 33 32 30 31 31 17 96 138 135 137 148 154 153 146 150 153 151 145 138 144 148 153 155 152 153 154 148 143 136 129 116 107 102 100 105 114 105 108 98 108 109 115 117 121 120 123 128 129 131 128 130 129 129 132 123 127 126 132 131 126 122 114 119 127 27 19 29 25 27 28 24 26 28 27 26 26 28 28 38 38 44 42 35 38 39 39 33 34 35 32 33 35 32 36 31 30 31 30 28 124 135 132 142 154 154 152 144 153 150 142 145 146 152 144 154 149 151 149 150 142 132 125 114 105 109 105 107 108 111 107 107 110 122 122 124 121 116 126 129 128 130 131 131 130 135 127 120 125 128 131 128 122 118 114 122 127 25 21 29 27 24 25 26 29 27 31 23 26 27 30 42 39 40 42 36 37 39 38 35 34 35 30 34 34 33 35 32 31 30 35 23 48 135 131 139 150 155 152 145 143 147 146 144 146 155 146 150 150 146 146 143 142 134 125 120 115 117 118 114 118 118 121 126 132 132 132 131 127 119 127 128 124 132 124 132 135 129 126 120 124 128 127 124 121 114 118 124 132 26 19 28 26 24 29 25 28 25 25 27 29 30 25 40 40 40 41 39 38 37 36 37 36 32 33 33 33 33 36 29 33 30 36 29 22 72 133 130 143 150 151 148 139 143 155 145 149 146 146 143 143 150 140 139 142 136 139 139 131 135 134 135 137 141 144 147 142 143 135 136 126 122 130 127 139 144 132 134 138 132 126 125 129 126 122 122 117 118 120 125 130 31 21 26 29 24 30 24 28 29 24 29 29 29 29 40 40 37 42 39 40 36 33 41 36 35 32 31 34 35 35 29 33 32 32 31 35 20 99 131 137 143 147 148 139 146 154 146 152 150 158 150 143 150 144 136 137 140 140 150 148 150 147 153 151 153 148 146 150 138 138 140 131 132 135 134 143 139 139 141 139 135 124 116 125 121 123 119 115 118 122 126 132 32 20 27 27 26 31 26 28 24 26 27 28 29 28 40 39 43 36 41 43 37 37 39 33 36 31 32 35 35 33 31 30 33 32 32 34 27 50 130 130 139 146 143 140 142 154 148 155 156 159 162 155 149 149 144 142 145 149 156 151 153 149 150 147 154 147 151 148 138 134 135 142 139 140 149 143 137 142 140 137 132 125 117 121 118 123 116 119 122 125 124 133 33 19 30 26 29 29 24 26 30 23 29 27 27 30 39 39 37 39 43 43 39 37 33 41 37 31 33 32 35 30 32 30 33 30 32 31 36 29 128 119 131 141 142 146 138 142 149 151 158 159 162 157 148 156 149 142 142 158 161 153 154 152 158 151 153 150 149 146 142 137 136 142 132 141 139 139 139 141 136 128 124 122 117 118 116 118 114 123 124 124 125 133 37 15 28 27 25 29 30 21 29 25 26 26 27 28 39 37 38 45 43 39 41 39 37 39 33 37 31 36 32 33 31 31 33 34 31 34 37 23 126 120 122 133 142 145 144 143 139 143 159 160 161 164 152 157 158 153 149 152 154 156 156 157 157 154 154 148 150 142 133 134 134 133 123 136 132 133 137 138 130 125 122 121 117 115 115 113 117 124 126 126 122 128 48 17 29 27 25 28 31 22 29 26 24 31 23 29 39 36 41 38 45 39 43 43 38 39 39 33 33 33 35 32 34 29 34 30 35 32 39 13 101 134 115 121 135 138 140 140 144 141 155 160 162 165 158 158 162 164 156 144 156 148 165 153 154 140 151 145 136 140 131 132 132 123 127 127 134 134 134 129 122 121 120 117 116 115 113 118 120 125 127 123 124 122 93 55 24 24 30 26 28 25 29 27 24 29 25 31 39 37 38 41 41 38 41 40 40 37 40 38 31 36 34 33 32 33 33 34 32 34 37 19 75 141 119 122 122 136 136 136 139 142 153 156 154 161 166 158 158 156 158 142 156 154 156 147 137 132 141 132 127 127 128 126 125 118 118 121 132 129 129 125 122 118 115 114 112 108 116 121 124 123 128 126 121 120 79 110 79 20 25 26 29 27 28 24 30 27 25 31 39 39 40 43 40 38 40 40 39 41 37 39 33 35 36 30 34 34 30 31 32 32 36 28 46 142 129 125 120 123 128 134 135 138 147 145 150 156 161 156 158 155 155 140 143 150 144 140 124 124 127 119 118 119 118 112 106 114 112 129 123 121 121 112 115 112 114 112 107 112 118 120 123 120 132 125 121 126 54 74 123 90 15 24 30 26 26 28 23 31 25 26 39 36 42 39 40 39 42 40 40 42 40 39 36 35 34 32 34 31 32 31 33 34 35 36 31 137 138 120 128 123 118 127 137 129 141 144 148 151 154 154 152 160 145 130 139 131 135 130 123 112 114 103 110 106 107 105 98 112 110 123 119 116 108 109 108 106 110 106 111 117 119 122 121 125 128 127 121 129 58 53 96 139 81 14 26 29 23 32 24 29 28 27 39 38 41 38 37 44 39 36 42 38 42 38 37 36 32 35 33 29 31 32 34 33 34 28 41 128 135 129 124 130 120 114 123 122 131 139 135 143 147 142 150 146 141 124 128 113 122 114 111 107 103 94 90 92 87 100 87 95 106 117 107 108 103 105 105 108 105 111 114 117 116 119 121 131 127 123 122 134 44 49 71 125 154 70 13 26 29 30 25 27 27 29 41 38 37 41 41 41 34 41 38 39 41 38 37 39 32 34 32 31 31 35 33 32 34 26 118 120 127 136 125 131 127 120 109 117 120 125 124 133 139 137 140 140 139 119 117 113 109 114 103 96 94 79 81 84 76 82 79 86 98 99 96 103 101 105 106 103 106 112 117 116 115 118 126 129 130 122 125 135 42 26 84 98 169 149 45 21 27 25 26 30 27 27 43 35 42 42 35 42 34 43 41 39 36 40 35 35 35 33 31 33 32 36 33 35 18 111 116 77 133 134 131 126 137 128 120 115 112 111 116 121 121 127 127 131 131 117 116 111 103 96 93 81 80 76 70 70 71 74 79 91 92 96 89 93 105 105 102 110 109 112 115 119 118 117 127 130 127 123 123 136 28 8 92 89 158 189 143 24 22 29 27 27 28 29 48 34 43 39 41 39 40 41 36 37 41 39 33 39 35 35 31 31 34 37 29 29 52 172 86 55 135 132 135 127 134 131 127 120 121 108 108 112 111 111 108 119 117 113 113 94 94 81 84 80 70 73 72 73 71 79 80 90 86 89 90 97 102 101 111 110 109 112 118 118 123 121 128 129 128 127 126 128 22 3 65 122 130 201 172 117 13 26 27 31 29 29 38 37 39 42 37 36 38 44 39 38 36 39 36 36 38 30 36 32 36 33 30 18 155 142 95 40 135 132 134 132 131 132 127 129 118 118 112 106 107 104 99 100 102 95 94 88 94 72 76 79 73 74 73 82 74 81 74 82 82 87 94 100 100 107 110 111 112 117 119 120 119 123 129 130 132 129 129 116 16 19 49 130 128 171 194 168 68 19 28 26 32 25 39 38 41 34 39 35 44 38 37 37 39 37 36 37 36 33 32 35 31 37 17 104 183 135 102 22 122 135 131 135 131 133 118 137 125 128 119 111 107 99 97 98 96 90 90 86 78 78 75 75 79 76 73 76 81 83 83 84 87 87 96 104 105 106 111 114 118 119 123 120 119 124 127 132 132 130 134 87 23 6 68 116 165 127 208 171 160 24 22 29 28 29 34 36 39 38 39 41 34 37 40 38 38 39 37 40 36 33 33 33 36 21 46 195 155 141 111 33 104 143 135 138 130 136 119 131 132 125 127 115 114 108 102 102 92 94 85 84 90 85 80 82 83 80 80 86 79 82 82 79 89 88 96 105 109 107 111 116 118 123 115 124 121 124 129 131 132 131 133 63 27 10 82 125 149 138 176 198 179 107 41 52 49 35 36 36 40 38 41 34 46 39 39 39 36 37 38 38 40 33 35 32 34 19 147 193 162 135 116 18 70 147 141 129 140 130 130 136 133 129 127 122 120 114 112 111 107 94 94 82 83 76 79 79 76 80 75 75 73 80 75 87 88 94 98 105 108 114 111 112 117 111 116 127 119 130 135 133 131 138 119 52 34 15 67 157 121 178 128 204 171 168 128 144 147 143 