P2
92
112
255
37 34 38 36 38 34 38 36 38 37 37 42 35 39 39 38 38 39 41 37 40 37 42 39 42 37 39 41 38 42 42 43 47 43 46 78 105 117 109 87 68 73 65 65 70 67 72 72 80 79 77 80 69 66 63 61 62 54 56 49 47 41 44 47 43 40 41 37 39 39 35 43 36 47 35 38 39 34 39 37 36 41 34 35 38 34 38 35 37 32 35 33 31 39 37 36 37 35 40 36 37 39 36 39 40 37 40 38 41 40 38 43 34 41 42 35 41 41 40 40 41 53 66 65 63 67 70 107 132 129 127 108 106 102 98 82 90 81 88 84 87 87 86 81 79 77 67 71 65 60 58 55 52 46 46 45 47 50 49 47 44 45 43 39 40 40 43 34 37 34 37 36 39 36 37 38 34 38 35 37 35 36 36 34 34 36 37 36 40 39 37 41 35 38 35 40 40 38 39 39 42 40 39 40 42 39 42 37 39 37 42 44 58 85 103 108 115 124 122 121 130 128 131 123 121 117 110 101 91 87 84 90 85 94 87 100 85 88 92 84 88 82 77 72 69 75 77 63 73 62 50 48 53 52 45 48 43 47 47 41 34 41 39 35 38 37 35 38 33 37 36 34 37 34 38 32 38 37 39 34 40 39 39 38 38 39 40 37 39 40 39 38 41 43 38 42 43 43 41 40 41 46 51 84 100 113 124 119 130 128 138 140 135 138 136 125 129 119 117 104 102 102 93 98 90 95 98 103 91 90 95 85 93 90 94 96 99 100 104 93 90 81 74 60 56 54 48 51 48 40 48 45 35 44 35 37 38 40 37 35 34 39 38 36 36 36 36 36 41 40 35 39 36 37 40 39 38 40 38 40 38 41 39 40 39 41 44 50 38 51 51 49 66 82 96 120 123 131 130 135 135 143 138 134 136 143 140 137 135 133 126 118 114 110 103 103 98 98 98 102 100 103 98 99 106 100 103 105 98 108 97 100 94 96 80 68 68 57 41 53 47 47 45 60 36 40 37 37 41 34 39 34 40 36 38 33 40 34 37 34 40 39 34 37 37 40 40 37 40 41 36 41 38 40 40 41 41 41 42 47 53 71 93 104 123 124 125 133 132 141 145 148 146 145 141 138 146 141 145 145 143 140 134 132 122 117 113 110 104 105 103 104 111 113 109 108 104 103 98 105 107 114 106 98 94 97 92 74 79 63 51 51 41 54 45 58 38 38 37 40 39 36 36 39 38 36 37 38 34 36 37 35 38 38 36 38 40 37 40 37 41 40 39 37 41 43 38 44 39 46 48 57 83 92 110 123 133 131 131 134 133 149 144 143 144 137 145 158 154 153 155 153 144 140 138 136 131 125 123 121 115 114 112 108 114 116 110 110 98 103 97 108 113 109 104 101 100 102 95 89 83 82 71 51 39 61 47 47 43 38 42 39 38 37 36 40 37 37 35 39 34 40 37 39 42 34 40 37 41 36 41 37 38 40 41 38 42 38 40 45 44 46 64 68 89 93 116 135 136 136 137 135 137 144 149 139 139 137 137 136 146 149 157 161 155 154 154 154 150 149 137 129 125 115 114 109 112 108 107 105 109 113 114 110 112 99 87 85 88 88 86 90 77 81 78 60 45 50 52 37 42 33 54 41 39 37 36 39 36 41 37 41 38 44 39 35 40 41 40 35 40 37 40 40 36 39 40 45 35 49 44 46 52 65 94 110 118 125 121 130 135 142 140 150 144 150 151 158 157 159 153 146 144 141 138 143 139 140 145 147 149 139 129 128 122 113 113 111 111 111 113 114 112 113 99 107 89 77 63 70 69 67 79 78 76 72 72 63 56 51 51 41 38 38 58 41 42 40 42 45 43 42 44 37 40 38 36 37 39 36 43 35 41 39 41 37 40 39 38 41 40 50 51 47 79 104 127 143 137 131 130 127 128 139 142 146 142 141 142 144 148 155 155 152 147 155 145 149 147 144 144 141 133 137 130 122 123 122 120 118 117 109 116 101 110 110 94 109 81 74 59 66 48 81 68 63 73 65 70 63 55 52 53 41 41 49 47 41 46 39 42 42 41 39 42 38 38 35 38 40 40 37 41 34 43 38 43 39 39 42 40 42 44 58 69 85 112 137 147 158 147 138 134 136 131 136 142 145 140 141 145 145 137 138 131 125 117 140 144 143 148 139 140 139 136 144 140 134 134 127 120 118 105 111 112 110 119 104 96 97 86 64 61 55 62 71 59 62 67 60 59 62 56 50 69 55 49 50 43 44 42 38 40 44 40 40 38 40 40 34 37 40 43 36 39 42 41 38 39 40 39 40 41 40 56 58 88 127 135 150 150 158 136 134 142 144 146 146 158 156 154 159 162 156 154 135 136 123 122 125 129 132 142 137 140 138 143 146 140 139 133 120 113 109 114 121 117 122 122 105 95 93 91 64 62 58 58 69 60 61 67 55 57 57 50 52 72 58 56 57 55 50 45 41 40 40 40 39 41 38 35 39 39 38 36 42 36 45 38 41 40 37 44 38 40 40 58 83 119 145 152 154 151 148 158 155 153 149 151 152 153 153 147 144 143 157 154 148 146 152 150 154 145 134 135 131 128 125 135 135 143 135 125 119 117 116 132 127 129 135 122 111 97 106 92 80 70 58 62 74 54 63 61 57 54 56 58 63 66 58 51 53 56 60 61 52 41 39 37 39 40 41 34 44 35 40 37 43 37 40 43 41 40 41 41 40 38 48 59 106 142 152 154 162 167 151 154 149 148 149 146 147 141 146 143 139 149 148 137 130 146 153 136 144 147 139 141 138 143 144 135 127 127 131 126 125 129 134 139 135 127 146 135 99 110 121 99 89 90 75 63 58 73 51 63 63 64 54 66 73 67 60 56 56 55 53 61 71 58 42 39 40 40 42 40 40 38 39 40 42 36 38 44 41 39 41 42 41 36 66 111 143 146 159 157 162 162 154 150 149 152 144 152 155 150 145 147 158 147 137 129 142 150 153 142 147 146 140 138 129 128 120 116 129 144 133 135 140 131 143 149 127 136 150 134 100 130 124 105 106 99 85 75 60 65 60 64 66 65 64 59 73 71 68 71 60 53 54 58 58 78 55 45 43 41 42 35 43 37 36 40 40 39 38 43 37 40 41 41 37 65 111 137 143 145 150 154 158 155 152 153 145 143 160 164 162 160 157 167 160 147 146 152 146 146 148 134 132 134 127 139 125 123 119 127 153 145 132 140 142 139 155 137 140 152 146 129 114 142 120 109 114 109 100 92 79 74 59 59 66 60 87 70 70 68 68 81 77 59 52 50 58 58 68 54 46 39 41 40 41 39 37 41 36 44 40 42 40 40 43 39 63 119 136 150 145 150 146 144 151 152 141 136 138 173 187 174 169 182 176 167 144 152 150 159 164 154 149 139 143 127 130 136 126 125 128 147 155 140 139 149 145 148 153 136 155 150 154 130 138 142 113 114 119 116 109 108 96 87 75 54 63 70 67 90 83 77 74 74 90 80 60 50 56 55 60 71 48 47 40 41 42 35 36 38 44 36 44 41 39 37 47 76 112 143 143 143 138 150 145 140 142 140 134 149 174 183 177 180 193 184 167 144 146 151 154 164 155 145 140 134 130 132 142 129 124 135 139 156 150 142 151 146 150 150 147 143 159 154 160 134 148 126 114 126 122 124 120 116 111 100 90 71 54 80 81 75 93 85 80 84 89 103 72 65 54 52 56 65 67 52 43 44 35 40 38 41 42 41 41 41 41 42 77 123 138 145 143 145 148 142 133 146 143 145 152 172 174 183 187 192 192 167 145 147 151 162 165 154 145 142 142 138 141 144 136 132 141 143 155 159 149 148 153 148 151 153 146 163 157 165 160 145 136 122 124 132 130 133 126 125 119 114 103 93 76 57 78 93 83 98 83 90 96 98 104 77 64 54 55 56 64 63 49 45 46 36 37 39 40 40 41 39 44 74 123 136 142 150 156 160 168 153 154 159 150 162 168 177 179 189 190 185 156 135 135 149 156 165 163 149 146 133 140 136 155 162 141 149 148 158 165 161 144 150 150 155 160 146 164 178 164 165 178 136 126 125 135 137 137 135 127 124 129 120 118 104 93 74 63 94 93 103 94 93 99 104 104 103 82 67 72 46 53 69 54 45 46 43 36 45 41 41 40 42 69 115 139 141 148 153 164 165 158 152 154 156 161 164 176 175 183 181 167 144 141 139 141 154 166 172 163 150 148 148 149 158 175 166 158 154 159 157 150 149 146 148 155 161 155 139 181 177 164 166 174 134 125 130 144 141 137 136 134 131 134 127 122 119 105 87 75 75 110 83 114 102 100 107 118 112 94 91 72 49 47 56 68 42 47 44 43 41 39 41 35 52 78 131 143 140 141 149 159 166 161 159 159 152 165 166 170 166 168 161 149 146 147 146 149 161 169 165 156 152 155 153 166 159 164 150 149 158 155 154 148 147 151 160 167 157 154 172 179 180 152 177 159 134 128 141 146 142 141 140 142 134 136 134 128 126 115 102 88 77 93 110 112 110 111 109 119 126 104 99 88 57 56 50 60 56 46 48 42 43 41 43 32 56 116 146 145 146 141 140 151 166 155 164 163 155 156 155 157 160 158 161 151 157 154 158 155 158 155 152 158 148 162 168 167 160 152 152 169 170 160 159 152 161 167 161 166 170 179 183 180 169 149 182 146 133 134 152 149 149 148 145 146 143 141 138 136 131 125 113 95 90 86 120 114 131 110 113 122 128 120 107 105 67 60 55 50 58 47 50 44 41 40 40 36 104 144 151 141 144 140 141 143 150 144 154 157 148 141 147 165 170 171 175 161 168 162 158 150 146 143 148 161 163 176 169 158 161 171 167 168 170 167 162 168 164 156 168 182 182 179 185 180 143 165 165 142 136 146 155 155 153 153 148 150 146 147 141 140 136 133 119 109 104 90 99 137 127 124 122 120 127 126 119 124 93 59 55 58 60 45 44 51 44 37 34 69 142 142 147 142 143 147 151 150 151 151 154 148 151 136 147 161 173 178 173 172 165 163 159 156 150 159 172 177 180 170 165 171 180 173 164 173 171 171 167 171 167 171 184 178 172 184 177 159 142 176 155 144 144 155 161 159 158 153 156 152 148 146 144 142 144 136 130 116 113 101 81 137 132 137 119 131 127 125 123 121 113 75 60 60 68 46 46 42 40 46 47 122 140 137 137 130 140 148 150 155 155 160 152 146 140 141 140 161 173 179 168 162 157 158 161 157 161 176 181 176 174 177 183 186 169 171 174 171 167 171 165 169 170 175 175 163 174 181 163 140 162 163 153 147 160 163 162 162 161 159 156 154 156 148 147 146 144 139 137 127 115 110 92 115 147 134 125 132 131 121 116 115 113 100 79 65 67 61 39 40 48 48 90 138 136 125 133 137 138 143 142 144 146 151 148 148 140 141 162 168 180 173 158 161 160 163 172 169 182 184 179 184 182 180 174 168 167 181 165 163 171 163 166 172 171 176 170 175 180 174 142 156 170 161 155 155 165 167 161 166 161 161 159 155 158 153 150 149 146 142 139 134 123 114 107 106 145 139 129 134 134 121 113 106 116 117 95 83 65 64 42 38 45 62 126 129 127 122 130 134 134 146 149 153 151 155 149 148 147 146 159 160 169 172 169 170 169 165 160 159 164 164 158 172 165 173 168 174 179 170 164 172 167 168 183 172 172 169 179 185 174 155 157 169 169 157 161 164 167 164 163 164 160 162 159 161 157 156 152 151 151 144 145 137 131 117 123 110 137 149 124 133 128 126 112 107 111 128 111 91 80 62 55 44 52 103 142 123 130 133 129 130 125 129 140 148 153 148 151 150 152 152 154 156 158 155 160 151 151 148 143 149 139 145 158 159 168 170 177 169 167 176 171 178 174 176 173 170 170 179 184 178 158 158 170 165 164 168 166 167 165 164 163 165 162 159 160 162 156 159 156 154 155 150 140 143 134 127 130 114 135 146 131 128 124 129 114 108 112 130 134 96 95 75 46 51 65 121 143 131 134 138 130 121 118 108 130 138 147 147 153 156 158 163 158 167 159 153 149 148 142 145 139 146 144 157 167 162 166 166 169 166 176 172 170 171 174 164 170 178 180 183 171 165 168 170 168 167 175 170 170 164 170 166 164 163 157 160 156 161 162 159 159 160 158 155 143 147 142 138 119 129 132 142 136 125 130 120 121 106 116 126 132 119 105 78 67 43 90 123 137 132 142 136 126 122 107 119 129 145 152 156 157 158 162 163 165 166 159 161 152 144 140 146 147 147 148 152 161 165 161 163 166 167 169 159 166 161 162 167 169 180 174 170 172 177 176 174 176 170 174 173 170 166 167 164 161 160 156 161 161 160 161 158 158 159 157 155 148 150 147 145 120 125 134 150 137 128 130 132 119 117 111 119 134 130 126 100 72 35 114 114 126 127 132 131 120 116 109 119 132 152 148 159 150 164 159 162 167 163 162 168 160 154 144 145 152 161 159 150 143 141 148 152 150 153 146 153 162 170 177 176 175 175 184 180 182 185 182 181 178 174 168 169 168 167 165 164 160 154 159 156 161 161 162 161 158 157 159 154 148 149 149 156 126 128 133 138 146 131 130 152 123 128 117 112 124 131 129 131 66 55 121 120 129 134 128 129 122 122 110 129 136 145 143 153 149 161 159 169 161 156 154 162 164 160 159 157 156 156 156 148 157 158 161 155 158 165 165 166 173 175 180 180 186 184 187 184 182 182 185 180 177 171 170 171 168 167 165 161 158 158 156 157 157 161 162 162 164 159 157 155 152 145 155 155 136 129 142 128 148 133 132 138 131 132 131 116 124 124 129 127 98 49 117 121 126 130 136 129 141 127 128 135 135 147 150 144 159 161 163 162 161 155 162 156 158 155 142 142 151 166 175 173 183 182 185 183 180 180 181 178 182 180 187 186 184 184 188 184 181 180 182 178 182 175 171 172 171 167 165 162 159 161 159 161 162 161 158 162 163 167 160 153 153 148 150 158 138 132 152 127 143 135 133 132 145 140 143 125 122 122 115 128 122 42 121 122 140 132 153 130 148 130 129 140 132 154 155 153 172 165 170 168 167 164 155 150 137 149 161 176 184 184 187 185 186 189 189 189 183 189 182 180 185 178 187 187 181 184 187 185 181 182 185 183 181 180 171 175 170 165 168 170 160 165 163 164 164 160 156 158 165 165 164 156 153 147 153 159 145 127 159 130 147 136 129 132 132 144 131 141 135 124 116 119 138 56 116 141 141 139 137 137 145 129 138 132 138 155 156 168 171 174 169 168 175 166 156 150 163 178 185 188 191 188 189 192 191 190 189 191 181 190 188 188 185 178 186 186 186 185 191 187 188 183 190 189 184 183 173 173 174 169 171 173 166 167 168 169 165 162 159 162 161 165 161 161 154 149 150 160 146 131 154 148 147 138 131 137 131 130 125 141 147 120 117 108 124 90 126 134 128 133 120 142 143 141 143 132 147 158 166 171 169 172 172 174 179 168 168 178 185 188 188 192 193 190 190 192 192 192 190 192 191 193 188 188 188 192 185 186 191 191 193 191 191 188 193 194 193 183 171 174 176 168 169 169 171 169 170 169 168 163 164 160 163 162 158 156 155 151 148 156 147 137 151 154 149 150 131 131 147 133 116 133 141 136 111 112 110 115 134 129 120 129 123 140 148 154 147 141 150 171 169 169 165 170 173 179 179 176 183 182 188 187 193 192 193 189 189 189 195 189 192 189 203 203 189 188 190 188 192 194 195 201 198 197 197 190 201 198 196 186 169 177 177 168 167 170 172 171 168 169 165 163 166 159 164 161 155 156 152 155 149 152 148 144 145 155 158 150 138 128 147 146 120 115 134 135 121 109 114 106 149 116 131 140 143 139 164 163 149 146 149 178 174 165 165 173 175 183 177 177 186 182 185 189 193 194 195 189 189 186 191 187 191 188 205 202 195 197 194 178 199 195 197 202 195 196 202 195 199 199 197 184 178 179 176 167 168 168 168 171 168 166 165 164 165 160 162 160 153 151 150 152 148 149 152 142 136 159 159 151 142 127 139 142 131 120 125 123 126 111 118 105 141 114 137 146 153 143 179 167 151 147 151 172 171 166 169 170 173 179 179 179 183 182 182 188 189 191 191 187 186 185 189 186 190 190 200 195 196 197 197 172 198 190 192 199 195 189 191 185 189 192 195 186 172 173 171 170 165 171 170 171 165 166 162 166 162 157 158 159 156 147 150 148 147 148 152 135 134 153 157 151 143 135 136 142 123 126 109 113 120 113 111 101 126 125 146 148 150 142 182 175 152 144 154 165 175 164 171 170 171 174 177 178 179 183 181 182 185 184 185 185 185 188 190 186 188 184 188 177 180 188 186 168 192 186 182 193 189 182 176 167 172 178 183 170 162 158 156 154 153 155 157 159 158 159 156 151 155 151 151 156 156 151 146 145 142 147 148 122 122 146 160 150 146 143 137 137 125 112 114 100 117 108 109 104 127 132 148 137 137 137 185 183 159 148 158 164 172 163 171 167 169 171 177 178 181 181 179 180 179 182 176 179 172 174 177 169 167 158 162 158 155 163 173 165 181 176 162 188 177 177 170 153 154 159 160 144 145 142 135 136 121 130 125 136 132 138 135 135 145 149 149 145 152 149 143 143 146 146 148 114 107 136 159 147 150 145 138 135 129 122 107 99 101 105 108 118 136 145 127 135 125 147 174 198 170 173 159 162 173 163 169 166 170 171 178 180 177 173 167 169 162 159 151 154 149 148 149 129 131 130 135 131 145 145 153 158 166 166 152 176 167 165 159 149 143 145 142 121 121 119 116 99 99 108 109 107 116 111 109 112 123 134 138 143 148 143 145 141 140 144 146 116 102 119 158 150 150 144 139 137 138 124 119 98 95 102 106 127 137 143 120 133 126 147 171 212 182 179 156 160 170 167 169 165 170 167 175 164 158 167 157 149 147 140 132 129 128 127 128 115 110 113 112 116 124 133 139 148 145 153 154 166 163 150 149 139 127 130 126 110 97 102 95 86 88 91 86 85 89 94 98 105 114 121 123 123 137 140 137 140 135 144 143 118 98 110 150 155 150 152 137 138 140 130 117 105 97 99 108 129 136 142 126 135 130 147 176 212 196 156 146 159 166 171 169 160 170 165 169 152 154 154 144 129 126 120 113 105 105 104 102 97 96 107 100 110 114 118 136 131 143 149 156 161 154 142 138 122 120 114 112 100 92 95 87 81 78 77 79 91 106 115 126 138 150 154 158 151 135 129 134 133 133 135 141 127 97 96 139 142 155 149 145 135 133 138 114 114 98 95 109 123 134 149 131 130 139 140 184 210 181 130 136 162 165 166 164 161 169 160 158 151 151 147 134 116 100 91 93 87 84 79 75 70 80 89 87 101 106 116 123 129 149 166 166 169 159 152 133 115 110 100 105 97 96 94 78 76 73 75 83 90 95 110 109 106 112 117 123 123 120 113 123 134 136 131 139 137 96 96 128 144 149 146 149 135 124 131 126 120 97 98 102 119 136 154 139 135 127 151 191 188 155 109 142 158 167 165 164 161 160 151 138 146 132 147 151 95 212 210 199 196 193 200 201 184 197 195 200 201 195 137 123 125 126 125 121 118 106 104 86 75 69 58 62 61 65 80 79 84 77 85 96 115 123 140 136 140 139 141 139 131 115 102 103 99 101 124 143 140 104 99 113 138 150 148 147 146 130 120 137 123 108 105 107 115 152 144 137 133 132 167 182 162 133 97 145 163 170 158 136 118 115 112 119 127 126 139 147 109 215 216 200 170 148 148 142 132 135 126 114 109 75 87 85 95 103 114 116 129 117 129 110 103 72 42 85 100 95 90 90 67 104 179 191 148 156 171 166 166 163 165 168 160 134 127 128 128 101 97 108 150 120 96 95 131 150 151 141 153 135 120 127 136 118 104 125 117 158 143 141 132 140 169 173 151 107 97 142 163 128 115 135 140 161 154 144 138 159 179 184 151 211 221 225 160 146 145 133 114 117 107 112 116 93 45 141 144 150 175 171 186 169 178 155 120 86 110 113 95 90 102 131 84 212 218 230 143 131 144 149 152 151 164 176 172 147 131 134 131 87 112 111 112 141 102 83 116 145 144 146 149 138 128 115 131 121 113 132 122 149 150 132 141 141 165 170 144 87 99 145 119 113 190 172 117 170 152 136 147 179 204 179 159 201 220 220 146 123 130 138 135 134 124 120 115 128 107 84 169 158 175 166 171 163 168 156 90 114 131 117 93 109 131 133 102 166 213 187 147 145 159 151 141 140 129 141 163 151 134 131 135 96 96 147 99 146 113 85 98 142 141 143 145 139 129 118 123 122 138 126 124 150 142 139 145 141 161 162 123 78 109 114 125 140 201 142 110 168 135 145 170 183 188 162 172 176 199 170 129 117 114 105 106 124 124 125 116 131 170 78 143 145 140 131 131 130 133 128 103 135 137 119 99 126 127 105 115 154 166 161 120 137 105 107 132 141 150 141 125 143 135 130 137 152 76 133 132 113 128 92 89 118 147 133 139 134 130 126 121 124 147 116 121 156 136 151 144 143 154 153 98 67 133 115 148 147 182 120 103 170 124 163 172 173 139 158 197 178 156 139 106 99 107 106 99 100 102 120 121 129 167 129 92 163 186 148 102 101 93 104 105 143 138 122 112 122 124 100 115 137 135 113 81 98 41 55 98 116 121 143 136 119 138 133 142 205 86 113 146 93 137 95 85 100 143 131 133 128 128 140 114 123 137 122 122 160 139 155 137 144 150 145 56 73 153 127 127 151 175 89 111 216 132 161 160 135 154 160 132 154 88 73 54 72 84 106 94 93 108 130 145 147 155 142 115 147 196 114 46 51 48 66 111 130 131 140 135 155 119 93 106 115 149 115 89 78 49 59 74 111 107 110 132 119 135 137 155 213 149 77 143 100 112 93 79 94 128 133 128 127 130 134 115 113 142 131 120 171 133 157 134 135 153 137 61 86 126 134 92 154 173 51 178 234 183 153 134 132 156 127 109 125 92 43 70 89 103 127 102 100 112 145 177 154 159 103 94 118 125 109 80 98 93 80 71 122 123 148 159 163 128 120 120 125 142 123 115 117 99 99 107 129 125 118 120 118 130 144 157 184 155 48 111 118 56 50 85 109 107 126 126 129 127 135 114 123 151 127 125 168 133 149 138 127 146 121 100 108 112 127 87 136 141 29 206 234 206 150 115 134 120 116 136 108 102 93 112 117 124 125 112 117 137 146 158 144 170 55 120 129 160 168 153 150 132 99 70 116 120 149 152 140 133 122 113 113 120 121 120 126 123 121 126 132 133 124 117 111 120 140 145 132 117 66 105 131 19 18 49 71 112 120 124 129 128 140 121 129 145 130 116 166 137 139 138 145 81 174 96 80 106 124 73 105 128 46 193 233 180 141 122 123 115 130 143 139 134 124 125 119 115 108 103 106 118 134 145 144 169 50 123 134 186 171 166 160 162 99 84 106 119 145 148 144 122 118 114 108 110 117 120 123 121 118 122 121 120 111 111 106 116 141 159 136 137 83 114 137 42 90 82 81 104 115 118 128 127 137 129 132 132 133 105 160 159 133 139 140 70 198 52 20 100 131 26 96 148 81 150 208 169 155 151 129 116 125 140 139 135 124 121 112 108 98 108 117 131 138 146 157 131 83 111 157 186 174 165 157 164 126 78 98 124 139 146 146 143 133 120 121 121 110 111 112 114 111 115 119 114 119 119 128 136 149 169 165 144 82 117 133 80 150 122 83 97 113 119 128 125 134 143 140 134 132 93 151 172 135 131 133 115 152 84 48 85 136 47 63 159 106 134 185 193 182 175 160 139 135 140 142 136 116 110 108 116 117 131 137 140 140 145 181 68 132 123 170 182 182 163 153 156 148 86 81 128 133 145 141 143 146 140 134 135 127 123 117 116 110 114 120 127 137 145 145 143 153 165 166 140 86 115 128 88 150 129 77 96 113 119 123 125 132 144 142 137 128 70 147 168 145 136 131 127 130 120 111 67 143 42 33 161 116 133 183 193 184 174 168 167 160 163 156 148 131 127 127 137 138 139 144 142 142 154 180 49 140 145 170 179 178 158 152 155 154 119 64 108 136 141 141 136 144 146 143 141 139 138 140 132 129 132 136 139 143 146 147 149 152 160 163 134 101 105 115 89 146 131 93 93 114 114 120 130 134 141 147 140 130 51 151 176 146 140 128 137 121 107 130 75 151 36 31 131 130 136 182 179 173 163 172 180 176 171 160 158 149 143 141 142 142 140 140 146 141 164 126 99 121 167 172 174 172 157 154 152 153 145 91 74 130 143 141 140 139 143 141 141 147 148 144 145 144 140 142 144 146 145 150 148 154 160 161 130 115 68 116 93 140 129 106 98 110 111 128 130 136 134 143 131 130 49 147 174 151 135 128 134 124 95 135 75 159 33 46 53 134 144 167 167 165 163 167 175 172 162 162 159 149 145 141 146 145 138 140 148 144 179 68 133 127 168 171 174 168 156 155 145 148 148 136 72 96 151 143 142 141 144 142 139 143 143 148 150 150 150 146 149 146 147 152 155 155 170 162 125 119 38 131 94 133 127 110 104 105 115 131 130 128 128 131 135 128 51 142 147 175 128 131 119 129 100 140 69 164 42 46 47 52 154 159 167 166 168 161 166 159 160 155 152 145 144 141 145 142 140 144 150 151 156 88 106 153 167 172 165 164 155 153 142 150 143 140 125 67 132 159 140 143 143 138 136 138 139 144 145 143 148 149 149 147 151 161 159 172 176 155 126 104 57 122 104 129 126 111 96 106 118 131 125 132 112 127 129 114 53 145 109 183 136 128 124 120 108 123 89 144 73 42 55 20 132 157 170 175 168 166 160 156 153 146 144 146 143 145 146 139 137 147 147 175 93 132 108 167 160 171 162 163 160 145 145 150 143 133 141 119 85 142 145 139 144 140 137 133 139 136 138 139 144 150 151 150 157 165 169 175 172 152 134 54 105 98 119 127 125 105 80 106 117 113 126 130 109 116 122 57 26 135 90 145 156 123 128 107 114 104 132 88 130 33 59 31 94 160 168 184 173 169 161 150 148 141 144 144 148 148 147 147 144 148 166 135 94 119 142 162 170 168 170 159 171 148 149 152 146 134 132 147 125 61 149 142 140 140 138 138 140 138 131 139 142 143 145 151 160 173 170 171 158 164 133 35 153 84 129 126 123 94 76 102 109 96 118 128 114 121 85 24 28 94 100 124 117 128 139 118 114 104 149 64 179 49 47 56 62 162 161 181 180 170 154 144 146 148 145 151 150 154 147 152 148 153 157 87 113 99 170 162 188 169 169 173 210 170 147 150 158 145 136 133 150 106 63 145 137 136 130 135 131 134 132 136 141 137 137 148 156 176 172 158 159 164 105 178 122 96 131 121 118 97 77 79 81 79 99 123 126 122 49 21 33 46 52 144 92 139 152 142 132 101 130 93 131 138 33 53 52 162 153 176 172 172 157 155 152 152 157 155 150 153 150 145 155 147 91 110 91 149 165 163 185 178 181 182 212 184 151 150 186 151 136 139 142 148 116 66 113 138 132 132 125 125 127 128 135 129 129 132 148 175 166 154 148 129 198 214 70 135 123 121 110 127 79 50 61 59 86 115 130 120 30 28 36 46 9 153 107 158 153 144 128 79 98 153 69 158 156 94 34 140 161 166 173 175 152 152 154 153 157 152 148 145 152 149 124 92 97 84 143 180 162 162 166 189 204 177 182 154 141 143 157 137 130 142 143 151 154 129 65 70 116 142 137 130 128 121 127 125 123 129 156 175 166 151 145 130 153 120 133 131 122 117 112 136 113 40 54 57 70 114 133 111 16 28 31 46 12 112 138 168 147 129 109 74 106 139 138 78 187 214 97 102 154 163 177 182 181 164 161 156 158 160 151 140 127 89 85 98 82 113 183 182 158 154 148 156 187 164 157 146 136 126 116 114 125 127 141 162 168 160 122 57 68 78 94 109 126 116 125 126 124 125 141 140 125 115 117 115 133 139 132 129 119 115 116 145 121 47 52 53 75 114 136 101 16 34 31 39 30 68 161 180 152 126 101 90 156 119 142 129 102 155 150 153 153 157 164 172 185 169 167 160 156 142 107 86 77 83 90 107 113 146 184 172 150 141 135 145 155 153 142 133 129 117 110 112 119 116 121 144 159 171 153 78 109 113 102 92 82 76 77 80 89 105 122 138 140 140 139 139 142 131 129 127 120 112 126 144 110 60 47 54 82 122 135 90 11 33 31 44 30 38 164 183 151 135 112 118 187 104 139 143 147 149 128 124 119 118 123 119 130 125 113 107 100 89 89 93 104 121 125 134 137 159 171 152 137 109 80 125 150 143 125 109 113 111 115 93 78 79 100 114 124 143 146 80 118 137 141 145 136 126 120 116 116 133 147 149 146 146 139 133 137 125 129 124 122 109 136 129 98 77 74 62 102 131 125 73 17 29 31 40 42 33 153 182 152 134 135 117 193 108 133 142 149 155 160 162 162 161 177 171 176 170 146 132 133 131 146 148 149 148 138 152 149 157 158 132 106 52 18 62 127 137 114 87 95 112 95 53 28 24 44 74 98 111 131 63 120 135 140 145 148 151 155 158 153 150 152 145 139 136 134 131 133 128 129 124 116 112 140 103 85 103 112 111 123 128 122 53 23 30 31 33 45 16 139 178 152 129 141 131 171 122 127 137 151 151 149 161 161 162 163 172 167 170 169 162 166 171 171 162 157 143 143 163 167 153 141 121 66 48 56 79 100 136 116 85 90 116 98 89 46 37 41 52 65 96 95 73 132 138 131 142 145 156 154 164 164 155 158 157 150 137 131 127 131 128 128 124 111 116 136 103 101 121 133 130 121 118 119 24 24 30 26 35 47 7 120 172 158 129 137 148 137 134 119 133 146 148 144 157 164 156 159 161 171 176 182 182 179 175 162 155 149 148 154 175 178 165 123 107 77 100 123 119 126 128 126 91 92 106 96 102 100 89 93 68 70 87 90 115 151 140 132 141 145 151 150 151 155 153 153 161 157 146 140 126 128 128 127 119 114 117 134 126 122 132 134 130 115 127 95 20 27 27 31 45 31 24 97 153 174 148 160 162 124 125 120 131 144 147 143 152 160 152 168 162 179 180 190 182 178 171 160 151 155 158 172 184 181 177 152 134 135 136 151 157 147 125 116 87 80 85 82 88 108 120 112 110 117 126 132 144 161 151 138 139 141 140 147 137 144 154 144 153 143 148 144 129 126 130 120 121 114 117 131 121 127 135 130 132 126 128 45 17 31 26 31 37 38 29 57 158 156 165 176 173 160 142 115 128 143 145 148 146 152 167 173 180 175 182 183 184 172 167 164 158 161 162 181 180 184 171 167 163 166 163 164 169 168 146 106 65 83 86 77 94 117 137 134 142 150 152 157 151 158 164 154 145 146 144 148 140 148 154 154 147 150 143 137 132 128 125 123 119 109 120 133 122 125 129 130 129 131 97 12 29 31 32 28 34 41 34 26 159 159 157 166 177 178 171 107 130 139 144 148 143 151 177 174 177 173 182 182 182 172 168 167 156 166 177 184 172 177 167 169 168 163 168 169 176 168 158 128 66 95 106 105 127 137 148 150 154 152 153 152 145 155 160 164 158 153 146 145 146 145 150 146 146 143 143 136 127 128 121 125 115 107 125 132 127 128 126 129 131 122 33 21 32 26 32 27 44 36 37 11 127 169 157 158 171 178 178 108 133 138 143 151 150 159 171 170 180 174 177 179 177 171 173 162 166 173 182 181 174 171 167 171 172 162 167 169 170 166 164 144 111 127 142 149 154 145 141 154 154 152 143 145 146 158 160 158 162 156 154 149 146 145 147 147 140 139 139 131 123 127 125 120 117 109 121 130 131 126 127 129 130 61 22 28 31 29 27 29 39 34 35 26 57 160 161 160 162 174 175 113 130 137 140 157 156 161 169 167 173 171 172 177 174 178 174 170 172 175 175 171 175 169 172 170 169 170 161 167 171 164 160 143 136 154 167 169 163 150 144 149 150 159 147 147 148 149 164 151 158 161 149 154 148 152 142 141 140 139 139 129 121 124 123 121 116 109 109 118 125 127 124 121 78 26 26 28 27 31 30 28 36 41 30 32 16 116 166 174 162 163 170 123 126 136 142 153 157 161 161 164 171 173 173 176 175 181 175 165 174 172 176 170 171 169 165 173 166 174 163 171 178 159 164 156 149 159 170 178 167 161 150 156 155 159 147 151 146 152 159 155 153 151 155 155 148 151 141 142 139 137 138 128 123 125 120 119 116 115 92 104 115 109 98 55 27 28 27 35 28 32 26 29 35 37 35 41 28 24 138 165 162 163 170 135 129 140 141 148 158 152 170 160 174 166 174 173 171 177 174 171 164 170 173 170 171 163 166 170 171 174 175 179 181 178 174 160 155 166 172 184 171 161 153 156 160 160 157 152 148 153 149 161 149 145 147 153 146 131 143 136 144 138 134 128 128 122 118 117 119 115 70 87 85 56 32 27 28 29 27 30 28 32 32 22 38 35 35 33 35 32 34 122 151 159 160 134 126 138 143 142 156 157 160 160 169 173 170 174 169 172 180 172 163 166 168 169 170 166 170 171 181 183 185 174 168 172 166 164 160 167 166 160 139 142 144 152 157 159 162 154 153 153 151 152 151 151 148 146 146 142 142 140 144 141 130 128 127 120 122 118 120 111 62 78 58 27 27 28 27 25 31 24 32 27 27 31 38 31 40 33 32 32 34 27 83 121 136 119 131 142 145 147 154 156 158 161 157 172 173 172 170 172 174 166 170 174 172 168 174 178 172 176 183 165 148 123 110 118 120 128 148 145 126 95 87 92 100 111 136 147 151 160 154 151 148 147 150 161 143 147 138 141 139 139 144 139 130 132 124 119 125 116 123 104 59 70 47 26 29 27 27 30 28 29 29 30 24 29 33 36 36 38 31 40 31 36 28 35 59 51 145 141 143 144 151 159 151 160 165 162 173 174 165 171 165 169 168 175 177 169 171 175 173 158 130 116 106 101 90 93 96 91 100 91 73 67 66 63 73 81 89 103 111 127 148 152 145 143 142 149 145 142 138 139 145 143 144 135 131 125 127 123 123 120 124 92 59 61 39 26 27 30 28 26 29 27 29 28 26 25 33 41 36 34 35 34 33 37 37 28 42 25 137 146 141 145 151 149 159 149 163 161 175 174 171 169 171 165 170 167 167 167 167 150 129 104 94 80 88 74 62 77 77 62 60 48 51 51 48 46 54 64 68 67 76 81 101 133 141 132 131 134 139 133 132 141 140 142 139 131 129 124 125 119 118 119 127 80 57 47 32 26 26 29 24 29 26 25 30 24 27 28 37 41 36 35 35 34 33 37 35 32 39 21 114 145 145 149 145 149 156 151 158 165 173 179 175 174 166 171 169 152 141 154 147 106 83 65 73 57 41 40 29 59 58 59 62 39 67 54 54 49 30 33 34 46 55 62 64 85 112 117 113 114 128 125 130 139 139 140 139 131 128 127 119 121 115 119 122 63 44 41 29 24 25 25 24 27 28 29 27 27 26 28 36 42 35 37 35 29 33 34 37 33 34 27 79 148 146 149 149 146 149 155 155 165 164 178 173 174 160 161 158 133 119 107 98 69 68 59 75 62 47 34 25 81 80 80 87 30 76 62 60 75 54 51 51 43 51 47 49 48 62 77 90 109 120 126 133 139 144 145 136 127 125 125 118 117 117 120 116 46 37 28 26 24 27 27 27 23 28 26 29 29 23 33 39 34 39 38 33 33 33 37 33 35 32 29 29 142 143 145 146 148 152 156 154 163 168 172 174 170 166 152 144 125 107 97 112 94 114 112 126 116 113 94 89 79 54 47 44 36 51 78 103 121 111 114 101 104 100 87 79 78 70 73 98 112 120 126 134 137 141 139 135 120 126 124 120 115 117 125 86 32 27 29 23 26 29 24 28 27 28 25 29 27 29 26 35 41 37 37 34 33 34 39 34 32 35 37 18 108 143 147 144 148 149 154 149 154 168 164 174 168 159 149 144 133 119 151 167 131 126 126 128 134 129 124 118 119 114 114 106 109 119 118 135 122 122 121 112 109 111 112 123 124 126 113 114 118 123 125 128 137 137 137 127 123 129 121 120 115 117 128 45 29 26 28 28 30 25 29 26 27 26 28 28 28 28 27 40 37 39 39 33 37 31 36 33 34 32 37 23 50 144 144 144 143 150 152 156 149 163 170 166 167 151 146 139 122 138 175 173 150 133 127 128 128 138 131 137 131 128 131 137 122 141 111 144 125 111 117 106 106 105 107 120 140 143 134 123 122 125 125 129 133 134 131 122 125 126 123 119 115 120 108 17 27 26 28 27 30 24 29 27 29 26 28 28 28 27 27 38 35 36 41 36 31 34 34 35 32 35 33 31 17 113 144 144 140 146 156 153 144 153 164 163 159 156 141 131 131 159 178 177 170 147 130 127 120 131 123 122 129 120 120 129 126 124 118 115 100 106 109 105 103 109 117 129 141 146 143 133 123 124 117 122 130 127 125 122 124 123 125 115 114 128 59 15 27 27 27 25 30 25 27 29 24 31 25 32 26 26 28 37 43 35 40 33 35 30 37 31 35 33 33 31 31 40 143 145 141 145 153 153 148 145 156 160 161 151 139 138 150 167 176 171 169 163 153 133 122 127 116 112 117 116 113 122 117 107 109 96 102 104 109 105 103 118 125 131 131 143 136 131 126 123 119 124 127 125 116 123 123 122 117 118 119 112 21 22 29 26 25 28 26 29 26 29 26 28 26 30 27 26 27 42 39 40 42 36 33 35 34 33 34 34 34 32 35 26 91 147 140 131 149 152 153 146 149 153 162 153 134 137 154 161 168 160 163 167 160 152 139 123 118 109 109 100 115 122 100 97 95 91 92 97 103 116 115 119 124 124 131 131 133 128 125 122 117 123 124 120 118 121 122 120 115 118 120 87 13 32 27 28 26 24 29 26 30 26 26 27 28 29 28 27 27 46 35 39 41 37 38 33 35 35 36 34 32 35 33 37 19 127 141 128 144 151 156 146 147 148 152 144 136 136 149 152 157 152 152 157 155 146 152 134 125 104 94 69 81 86 58 68 69 77 92 98 105 111 118 116 122 121 126 122 131 128 128 120 116 121 119 118 118 117 120 118 114 118 124 73 15 27 28 29 24 29 27 26 26 27 27 25 29 25 27 28 22 39 42 41 34 39 36 33 35 36 34 35 33 33 34 36 35 41 143 129 138 149 152 152 140 150 147 143 143 145 151 142 151 147 145 150 150 144 141 137 129 113 95 68 66 64 60 81 84 81 88 101 101 102 110 116 115 116 115 115 122 124 115 125 119 115 111 114 114 117 118 119 115 115 129 60 16 28 26 27 26 30 26 28 25 30 28 28 25 30 27 26 25 39 37 40 38 37 37 36 34 34 34 33 32 35 35 40 33 28 61 140 133 141 155 149 143 138 144 145 140 148 160 144 142 145 141 146 146 142 137 122 115 100 88 77 83 83 81 90 94 80 83 90 98 102 103 109 103 119 116 122 119 117 117 121 121 111 115 112 112 114 121 120 116 115 141 49 17 26 30 28 27 28 26 29 28 22 28 28 27 26 30 23 29 44 38 45 36 42 34 35 36 32 35 33 35 35 34 35 38 37 23 82 143 135 143 153 147 139 142 150 140 142 144 146 144 142 135 138 139 136 130 117 113 94 88 84 88 92 95 93 92 77 92 89 97 102 97 105 107 111 113 120 116 118 116 117 120 113 112 113 114 115 120 121 112 121 134 49 18 26 32 27 30 24 30 25 29 26 25 26 26 26 29 24 23 39 42 35 40 34 38 36 37 36 33 32 34 37 34 36 39 36 43 15 135 137 136 145 141 141 146 146 142 145 140 148 134 136 142 134 130 133 131 120 118 102 101 99 97 101 103 103 102 98 104 110 112 107 104 108 103 118 112 114 114 117 109 121 117 112 108 112 114 114 120 115 116 123 134 39 19 33 27 28 28 28 26 25 28 24 28 28 26 28 28 22 28 38 39 40 40 36 41 36 34 34 37 32 35 36 37 32 37 35 45 1 128 127 138 141 139 139 141 147 143 152 149 151 145 140 139 136 132 130 132 137 137 126 124 122 122 120 125 119 122 123 129 126 124 123 117 108 110 118 113 113 111 113 112 119 117 108 108 110 114 116 117 113 120 123 134 39 24 29 32 27 29 29 27 28 25 25 27 26 27 27 26 27 27 44 39 39 39 38 36 40 35 36 35 36 33 37 34 36 33 37 42 10 108 135 128 134 142 144 136 141 147 148 151 150 151 146 144 141 134 132 141 132 141 139 144 139 141 146 145 145 147 140 138 136 130 130 117 115 117 118 119 127 115 112 117 120 109 109 113 111 113 114 114 114 124 124 135 40 18 31 32 30 32 29 30 23 28 29 27 28 28 28 27 28 25 43 41 37 42 36 36 39 35 37 35 35 35 33 36 32 35 41 34 20 83 146 127 127 137 139 136 137 137 146 150 150 152 147 141 155 132 134 137 146 149 143 150 142 144 147 148 146 143 142 142 134 132 133 126 128 124 127 125 131 119 120 120 120 113 107 108 110 113 115 115 121 124 119 123 94 41 25 30 31 30 29 28 31 27 28 25 28 23 28 28 29 23 41 38 44 39 41 34 38 40 36 36 34 35 35 35 38 34 38 35 25 66 142 138 120 131 134 136 135 130 144 150 152 154 151 148 152 142 144 142 149 153 148 152 147 151 150 147 153 144 143 144 133 129 129 137 129 129 139 132 121 119 121 117 117 110 108 108 109 116 113 118 123 120 122 112 83 111 53 22 31 31 26 31 27 28 24 25 26 27 27 28 27 25 41 43 43 36 41 41 38 37 39 36 37 33 35 34 38 35 37 30 31 83 135 139 124 123 127 133 131 130 148 147 150 155 155 151 156 154 158 140 147 148 154 146 154 154 153 150 152 141 146 139 137 131 133 139 126 129 134 127 116 119 115 114 108 111 108 107 110 112 115 121 124 115 118 119 41 95 123 48 25 31 29 30 25 28 27 26 26 30 26 28 24 31 45 37 41 42 43 39 42 38 41 34 36 33 36 35 34 37 36 17 107 120 129 135 132 128 118 125 131 128 135 142 145 150 153 154 153 149 154 147 143 149 149 158 154 151 144 146 149 139 143 132 128 128 128 127 116 126 122 114 113 124 110 112 110 108 109 107 109 111 120 122 127 115 122 119 40 54 114 127 34 25 27 30 26 27 30 24 28 27 28 27 28 30 39 39 42 40 43 41 40 43 36 36 34 35 35 37 35 33 22 95 147 61 129 128 141 127 125 119 127 123 130 138 141 148 151 149 149 150 148 142 138 153 152 150 141 140 130 141 140 129 132 124 123 124 120 114 118 110 119 112 118 115 106 109 110 107 109 107 112 114 118 123 121 115 120 124 15 57 78 139 115 26 22 31 29 28 27 31 29 24 29 27 25 31 42 42 40 40 40 41 41 43 38 37 34 36 36 34 38 22 71 167 80 53 127 133 139 130 128 128 118 120 124 128 136 144 145 147 146 149 145 139 132 142 145 137 130 119 122 130 123 120 117 120 117 114 113 110 107 107 114 111 114 109 109 107 108 106 104 109 113 113 122 124 121 117 118 131 5 43 67 118 146 100 19 27 32 25 29 31 28 25 31 25 28 27 36 43 40 42 42 38 39 41 41 39 33 34 38 36 30 31 178 116 78 55 122 132 132 137 129 133 123 115 116 123 121 133 135 139 143 140 142 126 127 128 129 125 127 111 112 113 111 111 106 107 102 97 95 101 102 114 104 103 106 104 103 104 106 102 109 107 111 115 125 126 117 120 115 126 4 20 79 87 151 144 67 17 30 29 27 29 27 28 28 27 26 25 41 43 37 40 41 38 40 42 39 39 38 35 35 36 15 120 174 91 90 42 110 135 130 137 133 128 128 123 116 112 119 116 128 128 133 135 135 120 111 119 113 113 113 103 100 96 96 96 96 91 90 87 89 91 102 102 99 101 96 101 105 102 105 107 112 109 110 115 125 122 119 117 120 114 1 8 81 74 133 156 136 33 22 30 28 26 28 31 30 28 27 26 38 44 37 40 38 40 37 43 37 39 38 35 37 25 63 192 122 97 101 19 97 138 133 132 131 136 118 129 124 116 113 113 113 110 125 125 127 116 111 108 109 106 107 92 88 89 78 84 78 72 85 75 74 88 94 95 97 95 97 99 102 103 104 109 113 111 115 115 120 122 119 118 123 97 2 17 65 92 98 167 154 107 14 31 28 27 27 29 28 26 29 23 37 42 37 40 41 40 37 42 37 39 38 33 36 20 175 161 123 112 79 6 107 138 140 127 137 138 118 127 125 123 120 109 107 107 105 111 114 114 105 107 97 94 92 86 76 78 69 74 70 67 75 70 79 81 94 81 92 94 95 100 102 100 109 109 114 114 116 119 124 123 123 117 130 70 7 16 53 104 79 161 159 164 51 16 31 27 30 29 25 31 25 26 36 41 38 39 41 40 37 40 42 40 39 36 18 107 208 140 118 135 47 6 99 140 141 134 133 137 128 130 131 125 123 114 108 106 105 101 100 100 98 96 94 81 82 81 76 74 76 71 70 73 78 80 82 82 76 89 89 98 97 100 104 108 109 112 111 114 115 117 127 124 123 121 124 37 27 11 49 102 94 138 188 167 133 30 51 47 47 34 30 26 30 27 47 41 36 43 40 41 37 45 40 41 38 22 63 193 167 157 116 115 28 16 107 139 142 140 135 136 130 132 132 126 122 125 117 110 109 101 101 99 98 88 89 85 77 80 78 78 79 79 79 79 75 79 79 80 84 89 93 102 95 104 110 111 110 112 113 114 120 113 128 124 124 127 108 26 31 4 72 78 126 116 206 169 172 114 127 134 133 127 123 95 80 67 39 37 41 37 44 38 43 37 42 41 36 27 145 213 142 166 126 71 48 7 89 145 146 141 135 136 136 133 138 129 122 133 115 116 113 114 102 96 95 92 91 90 86 83 87 80 81 80 82 81 86 83 82 84 82 90 97 100 99 105 104 113 108 109 114 115 117 125 125 125 128 128 84 26 37 8 72 86 131 134 181 192 172 152 137 144 135 140 146 135 143 133 