P2
92
112
255
35 32 36 32 37 30 37 34 35 34 39 32 37 35 36 33 38 40 33 38 36 37 39 38 35 40 38 35 43 33 44 43 43 38 62 75 101 116 110 101 90 83 75 62 53 55 50 55 48 54 61 55 64 64 63 58 69 66 67 62 55 49 52 45 53 41 37 37 36 39 35 35 40 36 37 33 41 30 39 35 33 33 35 35 36 35 31 38 36 36 31 35 38 30 35 34 36 35 34 35 36 37 34 35 38 33 37 40 34 39 36 38 35 39 36 40 36 38 43 36 38 40 55 58 70 69 85 98 110 121 122 117 114 107 108 95 86 82 77 79 71 68 72 78 87 92 81 81 81 81 85 81 71 71 64 59 54 55 52 42 37 38 38 33 40 42 34 37 37 34 34 38 31 36 40 35 33 32 34 39 34 34 33 34 38 34 35 33 33 35 38 33 34 36 36 39 33 40 34 37 36 37 36 37 39 38 37 38 36 39 43 43 41 55 75 95 100 110 115 120 126 121 122 130 124 121 121 114 110 107 99 100 94 87 86 88 96 100 88 87 86 85 92 92 93 86 79 77 70 63 56 51 41 50 42 36 34 46 36 35 36 37 39 34 34 37 36 34 36 33 32 35 37 30 33 33 34 34 33 34 35 33 36 35 36 34 36 36 36 38 36 39 35 36 38 40 35 40 38 41 40 39 42 48 60 78 101 118 120 121 121 120 131 132 133 138 139 138 137 135 133 126 117 112 106 97 94 94 92 97 93 95 97 94 94 93 93 84 88 86 88 74 59 58 54 51 50 40 36 54 34 39 38 39 36 36 36 37 35 37 34 34 35 34 38 31 34 34 32 36 35 32 38 34 35 37 36 35 39 36 34 37 37 39 38 36 38 38 40 38 41 53 64 65 88 86 91 106 113 123 129 126 122 120 117 124 126 130 130 130 130 133 130 126 121 111 107 105 102 103 97 97 102 92 87 91 93 82 79 74 76 89 91 76 68 65 55 50 43 46 39 48 38 36 38 40 33 38 35 36 36 36 33 38 35 33 37 35 34 32 39 35 39 34 40 36 35 38 35 36 34 39 36 36 40 35 40 37 35 39 46 45 54 68 90 104 120 122 120 126 129 134 138 140 140 137 126 132 131 133 136 135 130 134 131 126 123 118 113 111 104 99 91 95 99 93 94 87 83 76 71 60 65 80 75 75 77 62 62 49 44 41 45 42 40 37 39 38 34 38 35 35 39 34 37 33 36 36 35 35 32 35 33 33 41 32 37 38 33 37 38 35 36 38 34 43 38 35 38 39 37 40 48 53 73 91 94 112 123 124 122 127 123 129 131 132 126 120 116 111 119 125 128 133 126 126 129 132 125 119 116 109 99 95 88 109 103 103 94 86 67 82 60 58 59 68 63 80 72 64 62 58 43 44 47 42 40 36 38 38 38 36 36 35 40 34 37 32 36 40 27 39 31 36 32 38 39 36 35 37 36 36 34 42 34 41 39 39 32 40 40 36 36 41 54 65 84 108 112 112 122 121 133 133 130 135 141 138 134 118 117 113 117 116 120 127 120 117 116 118 116 115 111 101 97 96 107 110 108 111 106 77 80 74 57 49 62 52 64 70 66 62 61 52 48 48 48 42 37 37 39 32 42 34 38 35 37 34 34 38 35 33 37 38 38 37 33 39 37 37 36 40 37 36 38 34 39 36 41 40 35 41 36 39 38 52 84 103 117 114 122 120 123 134 142 143 137 129 128 133 134 123 136 126 124 126 126 133 128 127 120 117 107 102 112 109 106 109 117 110 110 121 106 80 93 73 45 51 55 55 52 65 60 64 62 50 56 42 46 44 34 40 42 41 32 40 36 34 39 36 37 34 36 37 39 37 37 37 37 33 42 34 35 42 33 33 39 38 36 40 36 37 44 47 45 37 52 88 121 131 129 129 125 128 134 143 138 136 125 123 125 124 120 119 134 132 126 130 131 121 117 113 108 103 110 115 114 115 113 120 119 107 121 120 108 76 91 69 52 55 51 55 46 56 59 62 64 55 52 43 49 43 38 41 39 37 37 38 36 40 38 38 39 37 41 33 37 37 36 36 37 34 38 35 36 40 32 39 35 37 38 35 39 40 34 56 61 59 75 120 136 140 137 133 131 135 136 136 127 126 128 129 127 123 121 121 122 112 114 113 116 115 109 106 106 111 127 117 118 121 120 124 118 119 125 119 104 95 87 59 70 49 50 44 41 58 57 66 58 63 50 47 50 40 43 37 44 36 42 43 36 37 42 32 37 39 35 36 37 35 33 37 37 37 37 36 37 37 37 39 34 37 37 37 36 41 42 54 63 78 102 138 143 141 138 137 139 139 137 136 137 142 139 132 135 128 136 130 126 120 114 113 111 116 109 108 111 124 125 122 124 121 134 117 121 123 123 122 111 121 82 69 65 55 49 47 44 56 55 62 58 63 55 42 53 47 40 45 40 39 38 43 36 38 36 38 36 39 35 36 38 30 38 37 33 35 40 36 39 36 38 40 36 38 36 41 37 38 44 59 63 96 126 148 150 138 138 139 136 138 137 145 150 144 130 126 138 134 141 131 125 118 114 113 116 112 104 114 119 129 125 126 127 126 125 123 119 126 128 119 129 109 91 84 80 58 53 47 50 49 56 56 55 64 53 52 52 52 52 48 42 43 38 39 39 40 37 37 38 39 38 37 36 37 36 34 37 36 36 37 39 38 34 39 39 36 40 40 38 34 51 61 86 133 142 150 149 139 135 128 146 153 153 165 148 133 125 142 138 140 131 132 122 126 124 124 116 111 115 123 132 129 127 129 128 127 131 114 129 142 130 124 127 103 94 96 92 84 67 50 53 50 53 56 56 62 63 55 61 49 56 50 54 37 44 37 37 39 38 38 39 36 38 37 36 37 31 34 37 35 37 37 38 37 43 34 37 38 39 42 33 46 39 71 111 140 141 144 141 135 140 154 159 167 169 161 134 134 138 146 147 140 129 124 124 126 128 136 128 125 128 136 130 129 126 121 129 142 119 117 148 143 129 134 116 98 103 104 104 97 92 71 51 57 53 61 62 65 72 59 64 54 55 56 55 48 43 43 40 38 36 37 43 35 39 37 38 34 35 36 39 37 34 41 36 42 36 39 36 40 41 32 48 44 62 101 116 139 136 144 141 155 155 157 169 179 165 126 127 131 154 153 144 139 128 135 131 139 145 141 136 124 134 130 130 127 121 132 136 132 116 144 150 142 137 135 112 107 113 115 114 109 101 91 77 54 56 55 61 57 66 73 64 61 68 64 57 62 41 41 42 38 37 41 39 39 35 37 36 37 34 35 34 35 41 39 36 37 39 36 40 36 40 45 56 88 103 133 138 142 148 146 149 157 159 171 173 162 129 129 134 148 159 155 145 137 136 145 142 141 135 130 129 143 138 132 126 133 132 129 131 134 139 158 144 137 142 127 116 112 124 122 121 119 113 105 96 80 55 59 55 63 61 68 81 64 60 67 77 74 57 39 40 44 40 37 35 41 39 31 41 34 35 34 36 34 43 32 42 33 38 39 38 39 35 77 107 125 142 146 146 145 141 151 155 158 161 163 153 144 132 131 144 151 155 144 138 135 132 146 152 145 144 142 145 146 144 135 137 135 127 131 147 147 150 160 137 136 149 127 120 122 131 130 126 127 123 114 108 99 83 52 61 63 72 63 71 81 65 68 79 76 70 62 40 44 40 36 40 38 38 34 33 38 34 38 36 38 39 36 40 40 39 34 44 41 50 93 124 137 150 152 144 148 146 154 145 150 158 153 152 150 144 147 153 154 145 139 133 141 148 156 147 144 155 155 147 151 152 152 148 139 145 153 150 150 163 155 125 148 146 130 128 136 139 135 136 132 127 123 117 109 98 81 52 59 59 81 69 85 71 75 81 78 79 66 66 49 40 39 41 41 34 37 35 34 36 38 37 36 41 40 36 40 37 39 37 45 65 97 129 136 149 152 149 149 150 139 137 149 159 161 157 160 153 157 157 149 145 148 159 158 154 147 154 159 157 150 156 153 151 154 152 150 151 152 142 158 168 140 125 164 143 134 142 144 144 146 139 135 133 128 125 117 112 98 81 47 65 62 91 71 88 81 74 88 81 71 66 76 45 39 41 42 39 28 40 35 32 39 32 40 38 41 36 39 37 37 36 47 77 107 126 136 145 144 145 145 143 133 134 147 161 164 161 161 157 155 149 148 147 166 167 158 155 161 162 153 146 151 147 143 145 145 145 148 153 144 152 171 156 129 145 158 141 143 150 148 148 147 143 136 136 133 127 124 119 110 99 69 60 58 77 93 84 90 79 84 94 74 73 76 66 38 43 37 36 39 33 38 35 37 39 38 34 41 33 46 39 36 43 69 94 121 124 135 128 139 136 141 140 135 132 144 157 167 161 155 151 150 163 163 166 174 171 165 154 155 150 144 150 147 137 146 143 146 149 148 147 152 165 163 138 142 155 153 144 150 153 149 152 151 145 140 139 136 131 128 127 119 110 97 62 56 69 94 87 108 87 88 90 90 77 86 82 40 47 39 35 37 34 41 34 38 39 34 40 40 39 43 34 41 67 84 112 124 132 142 136 149 140 140 138 136 145 147 164 169 158 162 164 162 165 162 159 152 144 156 148 157 151 149 145 144 146 146 144 151 142 149 154 158 161 145 144 153 151 153 150 153 153 151 151 149 147 147 140 139 136 131 130 126 117 111 81 65 72 66 106 106 107 95 93 91 93 104 68 67 45 44 40 35 43 32 40 37 39 36 37 38 38 37 41 44 84 99 123 128 135 139 142 144 144 140 141 138 150 155 153 151 153 157 154 145 147 157 149 138 149 151 155 153 157 146 152 152 147 153 146 144 149 151 162 155 147 148 152 151 151 158 156 151 151 151 147 148 146 145 144 142 141 137 134 129 126 115 103 85 72 61 105 113 126 97 99 93 94 113 67 79 54 43 40 40 36 38 40 33 39 37 36 37 43 39 40 49 81 125 137 126 138 136 144 140 143 136 138 140 138 145 146 145 152 148 146 145 147 146 148 151 156 154 150 146 153 154 150 151 149 145 149 150 158 158 154 151 154 155 157 155 155 158 151 149 152 152 150 147 146 143 146 145 140 141 135 135 130 123 114 95 87 66 86 132 114 122 104 101 103 107 102 73 65 44 42 43 40 35 38 36 37 44 34 39 39 45 43 48 106 124 128 130 142 139 144 142 135 136 139 139 143 150 150 151 147 143 140 142 144 147 146 149 149 152 156 152 150 148 142 152 151 153 160 159 158 156 159 160 160 161 160 156 153 152 149 149 148 148 144 144 142 146 143 147 142 141 142 136 134 124 123 112 87 81 87 124 122 118 114 112 111 100 113 96 58 56 47 42 39 40 47 34 39 35 41 39 39 43 47 76 119 127 125 123 127 135 133 128 130 140 141 152 150 156 148 151 144 138 141 140 146 155 160 150 150 141 136 132 139 138 140 150 157 160 162 164 164 163 165 162 164 162 159 158 151 149 149 148 145 145 146 139 144 144 143 145 145 142 143 141 137 130 129 118 101 91 94 108 136 116 123 112 122 101 106 105 79 53 44 44 42 42 39 39 39 38 40 41 36 45 62 109 117 124 122 116 113 115 127 127 137 148 145 155 150 157 152 155 157 153 146 149 150 150 149 143 153 155 153 152 151 155 156 161 161 165 169 168 167 166 168 162 161 161 160 160 155 152 150 151 145 146 141 141 142 141 143 145 144 143 142 140 138 134 130 128 116 93 107 111 125 129 118 116 123 111 97 101 104 57 54 37 43 42 38 40 39 38 38 39 43 60 87 116 118 124 116 109 109 106 131 133 147 146 146 153 148 151 149 147 145 152 150 139 139 147 157 157 166 167 169 168 165 163 159 164 161 167 168 165 165 166 166 160 162 163 162 162 158 154 154 156 150 150 146 145 143 143 147 144 145 145 146 141 140 135 133 134 127 106 105 123 124 132 121 124 127 116 103 93 114 85 51 41 40 48 34 41 40 38 41 33 52 68 112 120 125 120 117 105 111 112 134 130 141 138 148 156 152 145 148 144 140 139 135 140 156 166 174 166 175 175 174 168 165 169 166 165 161 163 167 164 162 167 167 165 165 164 162 165 163 158 160 157 158 157 151 147 149 147 148 144 142 144 145 145 140 136 135 134 136 115 99 116 133 129 122 127 126 122 103 95 117 113 67 46 41 42 42 36 40 41 37 41 69 99 124 130 132 116 112 107 106 104 142 130 130 144 152 155 148 148 145 135 130 132 151 166 173 177 174 175 172 177 172 173 164 171 166 167 166 163 165 163 164 167 169 168 164 167 166 168 163 160 162 162 159 160 156 153 153 154 149 148 143 145 147 146 141 139 135 136 140 126 104 113 116 138 124 118 141 115 114 102 115 117 117 47 38 37 46 37 36 42 35 50 81 118 132 138 124 117 118 106 110 115 138 132 130 156 154 159 152 156 150 137 143 162 173 176 180 178 178 180 180 177 177 174 169 169 165 165 163 168 171 166 168 174 173 176 170 170 174 169 168 161 165 160 157 160 157 158 156 152 155 148 147 145 144 148 144 138 135 137 139 132 106 121 108 133 128 129 122 123 115 112 108 119 120 89 33 33 49 40 43 43 38 51 104 129 128 123 124 120 121 110 115 131 135 140 142 159 165 162 162 160 155 157 170 177 174 180 181 179 179 177 178 174 176 178 176 172 171 168 170 168 174 174 170 168 177 176 179 175 176 177 171 170 166 164 157 158 155 157 158 155 154 147 149 145 143 147 142 139 136 136 142 140 113 121 113 126 131 131 123 125 123 122 106 111 125 101 76 29 49 35 34 40 49 87 112 117 122 121 120 125 122 114 123 131 142 149 156 165 162 165 169 164 168 170 177 179 178 181 181 180 177 177 177 176 178 180 182 176 179 177 171 170 179 174 180 177 175 179 171 173 174 185 176 160 160 161 155 158 161 158 158 152 153 152 148 145 143 147 139 138 139 134 143 145 116 122 126 127 139 132 125 123 138 126 117 116 112 112 114 24 42 35 36 40 85 115 110 124 122 123 123 131 125 112 134 128 150 153 161 166 164 169 171 167 174 171 175 175 182 181 180 177 173 177 181 177 180 179 182 172 175 181 169 166 180 180 178 181 184 181 165 167 174 180 163 156 150 151 140 140 146 149 149 148 151 150 148 140 142 143 138 135 139 139 137 145 119 121 147 121 142 133 129 120 135 132 136 123 111 106 109 49 30 37 39 76 102 117 113 128 116 142 127 133 114 127 126 136 155 158 162 159 164 167 172 166 173 169 175 169 178 179 175 171 172 177 180 170 175 168 169 171 161 176 170 168 183 177 174 181 179 187 161 157 170 165 144 148 141 135 122 125 124 134 132 132 138 132 135 141 137 139 142 135 134 139 136 142 127 123 143 132 140 137 126 131 124 134 135 127 119 103 108 76 21 40 60 89 102 120 122 134 140 133 129 130 113 130 120 146 154 162 160 158 164 167 167 168 172 168 172 169 170 173 169 161 159 157 163 150 147 144 144 152 155 164 167 167 177 169 165 176 175 176 162 150 156 147 126 129 124 121 106 113 113 118 118 123 113 117 128 137 136 134 140 135 132 135 139 137 132 127 124 143 142 138 120 143 127 124 132 132 121 108 98 95 31 35 63 79 99 122 135 132 146 124 133 137 123 131 122 147 163 160 156 161 163 163 166 166 167 169 167 163 163 152 152 144 141 141 137 133 127 125 130 127 141 148 153 156 160 159 162 171 167 157 150 137 142 137 116 117 113 105 96 104 101 97 102 102 103 104 111 115 123 131 131 131 131 134 136 141 138 124 127 149 137 142 126 131 143 123 118 137 135 108 98 90 58 29 51 78 113 123 128 129 128 129 132 148 133 130 127 148 171 160 159 162 160 162 163 166 169 167 152 151 141 124 121 117 105 104 101 99 101 110 115 115 126 133 144 145 150 152 156 156 149 138 122 118 111 110 99 88 86 72 74 83 84 90 96 88 112 102 103 100 103 107 107 103 109 117 133 142 141 119 131 156 137 141 133 133 143 136 117 129 132 115 95 97 58 39 60 90 114 137 127 119 123 129 129 159 146 125 126 153 169 157 160 162 158 160 164 160 156 152 145 117 132 141 145 159 179 187 197 208 212 184 134 125 122 110 114 116 123 108 107 101 92 91 81 79 83 72 67 71 90 98 104 108 102 99 97 100 111 113 116 115 115 129 129 125 116 109 105 113 141 114 129 164 143 143 133 138 141 128 133 111 124 128 100 104 65 32 62 72 130 141 115 128 131 143 132 168 146 123 129 152 168 158 160 161 159 156 151 154 144 151 157 151 179 195 187 175 161 147 136 141 141 116 96 71 78 97 99 111 120 127 138 133 128 129 111 106 115 78 111 119 123 107 104 120 117 113 111 121 125 133 139 132 123 117 127 127 134 110 131 119 94 113 119 150 148 142 133 141 136 140 125 112 119 125 105 103 95 22 58 83 128 148 111 132 146 144 135 170 150 126 130 156 168 160 157 153 148 143 154 156 156 152 154 139 145 154 141 131 130 121 115 115 121 117 117 112 76 96 123 139 146 156 166 157 152 148 121 138 131 119 126 129 126 121 132 157 156 157 156 156 155 157 156 159 154 136 123 131 136 115 132 133 117 78 116 144 149 140 141 134 140 140 140 113 102 124 114 98 107 22 46 114 145 136 111 135 145 149 136 177 152 130 139 153 170 142 125 146 135 156 161 154 157 149 145 143 153 158 146 129 131 122 116 112 117 115 118 118 116 110 111 148 158 160 160 151 144 145 126 143 138 127 128 129 123 137 157 167 173 176 174 169 170 170 166 164 167 151 128 123 126 122 135 142 128 94 94 142 146 150 143 139 144 144 135 118 104 112 108 106 102 50 76 128 148 125 116 147 143 139 140 179 169 129 155 160 144 114 141 136 125 166 159 152 151 141 163 162 169 182 170 153 151 144 138 128 126 121 122 118 124 142 117 139 149 143 131 125 124 122 123 145 136 132 134 119 126 156 157 151 167 175 167 164 172 170 168 166 170 163 144 126 130 117 122 152 136 134 70 132 146 147 150 148 136 146 136 127 110 104 112 112 92 56 83 135 141 128 123 150 134 139 141 180 177 143 158 156 104 133 156 129 130 166 154 145 138 160 184 180 177 195 187 165 152 151 145 143 139 139 126 122 131 145 142 90 146 143 109 107 98 92 113 147 130 150 133 117 141 170 139 151 201 175 139 144 148 149 157 161 166 173 153 130 128 117 109 151 144 149 90 112 141 146 155 153 136 140 144 131 112 103 105 116 83 52 85 138 122 140 135 133 137 135 155 179 177 169 170 94 128 138 163 128 138 163 152 134 143 188 194 173 172 197 197 162 145 144 141 147 144 139 136 128 143 147 154 147 223 223 118 85 72 129 177 123 126 153 123 122 147 161 104 208 220 230 134 139 140 140 140 142 143 163 155 136 130 119 98 143 151 148 120 96 133 148 153 151 148 132 142 129 122 97 107 111 79 41 78 141 126 148 141 123 140 144 158 182 184 186 158 70 145 139 167 139 140 164 142 131 159 197 196 170 150 232 227 176 122 125 124 131 138 140 134 131 145 147 156 140 195 151 86 66 74 107 146 128 123 143 108 122 133 131 81 213 222 216 106 109 106 121 131 142 143 139 145 137 135 119 103 130 147 152 145 67 69 144 147 141 153 150 125 143 127 104 107 105 80 30 103 140 134 149 140 131 143 150 154 187 189 180 125 97 144 130 175 155 138 159 131 147 175 193 179 154 126 235 225 182 104 115 110 106 111 124 128 135 141 147 145 132 139 131 129 113 124 120 95 142 115 135 105 115 126 122 99 195 220 146 76 134 51 72 117 112 138 139 125 140 140 124 171 124 141 158 156 52 36 223 191 136 150 157 123 138 139 112 105 103 85 28 125 142 140 143 139 145 142 142 160 187 187 161 91 121 122 129 191 160 131 155 126 160 175 177 143 168 152 182 205 115 73 93 98 96 96 107 120 135 141 148 119 129 132 167 153 145 153 127 98 138 108 141 127 137 122 97 101 133 161 114 95 77 31 62 100 100 98 124 121 132 138 139 191 162 113 159 155 53 38 215 171 138 152 162 131 130 145 121 103 105 95 26 141 140 137 142 144 153 137 132 176 178 173 151 99 128 117 135 203 135 132 156 137 162 160 141 131 163 141 121 125 69 64 76 105 81 84 100 125 151 139 152 107 124 141 173 163 150 150 147 94 119 113 132 134 144 129 107 117 132 139 123 113 107 76 91 101 106 96 101 110 126 136 150 216 204 83 161 154 84 61 172 92 157 155 162 142 124 135 134 107 114 84 32 138 136 135 147 148 161 134 134 187 144 161 168 85 127 125 131 202 101 137 191 150 154 134 127 127 129 103 135 76 45 85 88 111 99 92 112 132 150 140 145 85 124 154 169 165 149 145 149 110 101 107 127 142 136 127 124 119 126 126 129 126 125 117 115 118 118 109 99 88 109 121 132 214 190 84 150 127 108 84 106 96 157 150 156 144 125 130 136 118 121 85 28 125 149 124 157 152 162 133 146 199 110 145 67 49 131 123 138 189 62 181 225 179 131 110 121 110 101 102 111 87 106 116 113 113 110 107 115 131 145 157 119 87 130 163 164 165 143 142 147 132 87 99 125 141 140 131 122 125 123 123 127 132 136 132 127 126 124 119 103 99 102 110 122 164 133 81 112 123 116 99 87 92 161 142 147 145 128 133 131 122 129 84 28 123 154 127 152 158 150 137 150 186 104 147 45 55 147 138 148 178 47 194 233 200 115 111 117 116 131 140 133 121 130 127 122 112 107 109 122 139 143 173 84 106 143 171 162 160 147 143 140 148 107 81 120 139 142 131 131 128 128 129 124 129 133 132 130 134 137 130 126 126 120 123 137 148 113 64 115 141 104 94 79 85 154 144 141 143 133 131 126 126 130 103 27 129 152 130 152 154 143 144 157 176 129 108 81 77 148 150 133 161 48 189 233 201 127 127 125 132 154 164 144 133 129 123 117 107 116 126 139 142 149 170 58 123 158 173 159 157 147 138 139 144 142 78 99 138 142 134 134 137 140 139 136 129 128 127 129 130 146 145 145 143 142 137 141 148 124 78 123 143 93 100 73 74 150 150 132 142 140 125 124 126 117 115 39 123 158 126 155 146 151 151 155 164 151 71 98 94 142 122 131 118 66 153 230 187 148 147 143 143 158 165 152 134 120 116 117 125 130 139 145 142 163 138 66 136 164 167 163 154 150 140 137 144 149 112 78 129 142 141 134 137 141 142 141 139 141 138 134 136 142 143 148 151 147 141 147 154 132 97 118 147 86 120 85 82 153 143 135 142 140 125 126 123 107 113 58 124 161 132 165 137 161 151 147 160 159 55 110 91 144 85 167 136 77 153 192 169 162 165 162 160 164 161 158 148 129 128 133 136 139 141 146 143 179 84 107 131 169 167 163 161 154 143 151 147 150 134 86 104 144 144 141 139 139 145 144 142 142 147 144 146 145 148 147 147 150 148 147 150 142 95 111 151 86 131 94 89 143 137 133 141 147 136 121 116 103 103 80 142 159 135 160 141 169 143 142 165 146 62 106 109 139 50 167 150 90 163 165 160 165 170 173 172 163 162 159 151 143 139 140 142 141 143 150 154 157 76 114 142 169 162 167 167 169 158 158 151 151 132 123 91 127 149 143 141 144 141 142 144 143 144 145 150 147 147 149 146 153 149 148 152 147 97 113 149 83 139 100 92 122 132 129 146 153 142 118 121 111 101 68 150 143 142 159 146 164 143 143 152 161 70 107 139 118 67 132 155 104 156 161 160 160 168 171 167 157 160 155 151 142 145 140 146 146 142 150 172 96 124 103 154 169 168 174 175 209 176 156 160 176 148 127 124 96 132 149 146 143 140 142 142 142 143 138 143 147 146 146 151 154 152 147 155 142 108 116 141 89 132 110 78 109 127 130 143 157 144 123 122 121 109 41 157 133 142 169 146 161 139 149 149 161 88 105 163 96 103 91 170 110 150 161 158 162 163 166 161 157 155 151 147 143 144 147 143 142 148 155 146 97 125 116 167 183 179 187 175 209 178 151 160 174 152 144 136 118 82 144 152 148 145 144 141 146 138 142 146 145 144 145 149 155 156 151 156 161 114 147 111 111 129 121 61 104 137 142 140 150 149 122 133 116 106 28 140 138 139 175 142 158 145 143 152 150 110 105 167 71 164 43 182 128 140 160 162 163 162 162 155 153 150 147 148 145 147 149 147 146 155 165 100 123 96 150 173 176 169 183 180 181 161 152 151 141 136 149 150 130 106 96 144 157 151 150 147 147 139 147 148 147 145 141 146 154 150 152 165 163 131 208 78 130 123 122 69 105 137 160 140 137 144 130 134 112 96 24 121 137 150 173 142 164 152 139 153 154 130 86 165 95 164 27 164 143 133 162 167 165 164 162 152 152 147 147 146 150 153 150 155 157 170 120 118 119 126 167 172 160 157 171 176 157 150 147 139 128 129 140 150 148 136 122 88 135 158 158 153 150 145 147 154 147 145 141 142 149 150 154 166 154 159 165 111 127 125 124 84 102 132 153 137 129 127 138 127 116 88 23 93 134 159 173 151 165 149 151 148 155 133 81 157 141 101 110 101 152 143 158 166 167 163 164 150 150 152 150 150 152 159 157 164 170 129 116 128 116 162 173 162 146 148 161 161 144 131 135 131 128 119 125 132 155 158 143 116 76 109 145 162 157 151 149 151 148 146 142 145 155 157 158 150 123 132 135 132 126 123 124 95 106 122 143 130 122 127 141 121 111 82 28 39 139 156 173 173 154 129 172 140 143 125 95 151 167 62 168 69 114 147 160 167 170 161 162 153 149 154 156 159 160 165 169 162 125 123 137 107 151 184 170 151 133 120 145 154 137 118 117 126 114 84 98 108 140 158 162 157 94 86 84 103 120 128 135 146 143 143 139 145 146 126 118 110 111 145 154 129 123 124 124 105 105 116 138 130 124 137 139 120 113 69 34 16 131 167 166 187 154 121 167 144 136 114 101 149 143 143 73 190 72 147 159 179 164 162 161 157 153 156 161 168 169 165 140 115 121 125 115 130 178 180 163 129 75 58 84 148 127 105 101 127 70 36 43 56 109 133 156 169 121 118 124 104 96 80 82 85 90 92 97 112 119 118 127 138 152 153 148 130 125 119 121 108 100 114 135 130 130 138 128 121 108 52 38 21 96 188 160 163 176 140 138 166 132 92 121 138 135 146 125 119 151 159 150 172 166 170 168 172 173 166 161 146 131 108 110 106 113 138 150 147 179 168 144 97 25 47 72 134 126 92 106 116 86 79 24 30 52 103 130 145 130 120 151 153 148 137 123 112 107 106 120 135 139 141 149 147 151 147 140 131 128 114 122 106 95 115 130 135 128 141 111 122 108 51 20 20 69 191 167 154 178 158 134 159 147 84 124 136 134 145 144 144 139 164 156 124 126 132 130 132 127 122 119 111 105 105 112 133 152 160 166 157 172 157 118 55 30 51 109 130 134 98 101 111 100 115 58 31 35 65 108 125 119 103 152 162 169 162 156 157 154 149 152 152 148 152 153 146 145 145 135 129 125 118 119 99 90 113 125 130 138 121 108 122 110 49 19 35 53 181 181 164 169 161 149 137 149 102 118 137 135 149 139 152 159 161 163 146 148 146 150 153 146 134 131 122 128 148 164 171 168 160 166 161 163 144 90 58 84 104 144 144 130 101 94 97 104 125 115 101 85 67 91 112 98 100 145 158 166 161 161 165 164 167 165 171 169 167 158 145 145 143 135 129 122 120 113 99 84 113 123 121 134 96 108 122 117 49 22 40 38 172 183 165 173 153 149 124 136 113 122 131 134 150 137 151 160 162 163 163 167 164 163 161 158 143 156 162 169 180 178 173 158 163 170 167 149 130 88 107 150 156 163 165 140 105 92 101 105 134 138 134 130 95 89 100 93 119 151 154 160 163 162 164 165 175 167 175 176 176 167 155 146 140 135 129 124 120 111 94 85 111 120 117 131 98 97 127 121 47 23 44 8 170 169 167 180 145 151 117 125 111 124 126 134 147 142 148 158 159 163 163 163 165 166 172 171 170 179 180 184 179 179 162 158 168 173 170 146 118 111 141 159 172 167 169 157 114 113 124 126 138 149 145 136 134 126 125 126 142 155 152 159 164 164 163 165 169 172 166 174 176 169 160 152 139 135 132 125 117 111 92 83 98 107 115 131 110 86 118 109 60 19 48 3 146 150 156 177 146 141 128 113 108 132 117 138 145 147 148 157 153 165 160 164 173 180 189 190 186 183 181 180 174 168 160 164 177 173 173 158 146 151 161 163 172 174 171 156 126 134 150 145 150 149 151 143 148 146 149 147 147 159 155 160 163 159 159 161 152 166 163 171 177 166 162 150 141 138 132 124 116 109 101 57 84 84 113 128 118 92 122 80 45 25 40 19 112 151 120 154 158 133 139 110 103 133 112 134 144 148 146 155 151 162 165 175 184 189 194 191 189 186 182 179 168 162 168 172 179 179 173 163 163 164 168 168 177 169 167 159 135 146 163 160 161 151 148 155 155 150 152 150 149 154 161 159 160 159 159 157 153 166 162 161 164 160 159 147 141 144 133 121 114 111 120 63 63 74 99 121 125 105 113 38 25 36 38 33 79 159 98 110 145 136 137 125 102 129 113 129 142 155 154 152 152 173 173 187 187 188 191 190 188 184 181 170 175 166 170 177 178 181 170 162 167 163 165 166 173 169 165 161 146 157 173 171 168 156 149 153 155 151 145 144 145 153 158 164 165 165 160 159 159 169 165 163 159 163 155 139 139 144 130 121 112 115 130 106 47 66 80 106 127 112 100 17 31 31 41 38 57 153 106 101 96 130 138 136 120 123 122 125 138 150 165 152 162 176 182 186 193 186 190 187 192 183 176 175 173 168 175 179 171 174 164 169 166 173 163 165 172 171 166 157 154 160 170 176 171 163 157 151 157 157 147 142 143 155 160 157 162 163 161 161 156 162 163 163 157 158 147 141 138 142 127 117 111 114 141 118 44 61 66 93 124 124 66 17 31 27 35 46 18 129 120 122 68 144 151 148 148 98 139 117 136 144 165 164 161 174 181 188 189 185 185 190 192 183 175 175 170 168 177 180 172 172 166 168 164 172 165 169 177 172 168 165 155 164 168 181 174 169 162 153 162 157 154 142 144 146 157 154 157 162 163 162 163 158 163 155 153 152 147 141 134 139 127 116 110 119 142 95 44 55 61 88 125 123 60 19 30 28 35 45 21 63 116 133 84 156 165 156 139 65 149 115 130 141 163 165 165 167 174 186 187 182 187 185 187 182 177 173 172 170 173 172 168 170 164 169 163 170 175 179 180 180 174 167 157 165 169 180 171 167 156 155 163 160 159 148 143 146 153 148 153 159 160 165 161 163 153 150 151 149 144 133 136 137 125 114 109 129 140 85 45 56 56 88 126 123 51 21 26 29 36 43 36 31 70 159 112 177 172 152 106 97 172 108 130 139 164 165 169 163 171 182 184 181 185 186 188 183 180 174 173 172 172 170 167 168 160 166 174 178 185 175 163 162 156 161 160 167 161 155 135 135 139 145 155 160 161 156 144 151 146 153 148 148 153 166 161 160 150 150 151 145 141 131 134 134 122 115 107 138 130 91 71 80 60 97 127 117 46 21 29 29 39 39 40 41 22 170 137 185 173 147 98 146 173 112 127 137 161 164 169 165 172 177 178 182 181 185 188 185 181 173 169 167 174 169 169 163 164 167 180 180 165 142 122 118 119 118 133 137 119 101 98 102 101 111 127 146 153 162 152 154 149 148 148 148 151 160 162 148 150 151 150 143 139 128 133 131 123 111 108 139 118 85 100 115 96 116 126 115 35 21 31 28 35 42 36 42 8 154 155 188 164 144 118 143 185 113 126 137 155 166 167 164 172 172 178 180 182 182 183 184 178 175 167 163 174 168 168 168 167 179 174 152 125 109 98 95 93 87 97 88 75 75 75 73 79 91 101 112 123 150 162 157 152 148 149 155 147 151 164 156 148 152 146 145 134 133 133 127 121 112 110 138 122 107 121 130 120 129 112 119 21 28 24 32 35 43 36 39 13 111 160 182 154 143 140 121 186 114 124 139 152 156 172 163 172 170 173 178 180 187 183 183 179 177 160 166 174 170 170 176 174 168 132 112 96 81 63 67 74 71 73 48 64 69 67 62 54 75 86 86 91 110 127 156 154 148 145 161 148 156 162 153 142 149 148 143 130 138 131 127 118 110 114 135 125 119 134 127 127 119 115 107 12 27 28 31 37 39 33 37 21 74 165 175 140 145 138 134 163 124 126 136 149 156 162 166 168 169 169 180 179 186 184 179 179 167 165 174 176 175 174 172 162 123 99 76 58 49 35 73 96 94 97 60 99 98 91 90 50 54 67 67 74 79 89 127 146 147 141 153 150 150 151 154 140 154 147 143 134 135 130 124 122 111 114 135 119 123 132 128 129 117 126 73 15 28 27 29 41 38 37 35 26 61 157 171 140 134 149 135 135 141 117 136 149 147 157 167 163 169 163 174 180 186 178 181 178 166 167 175 176 180 179 156 117 86 72 46 35 52 55 120 146 136 146 80 137 125 118 122 85 66 64 49 69 76 71 92 122 139 130 138 147 145 148 151 145 153 146 134 138 133 130 122 119 110 115 129 123 124 128 129 127 124 125 24 28 30 25 30 38 37 34 40 31 37 155 166 145 134 166 149 122 153 113 139 145 146 155 163 165 166 163 165 175 185 178 180 175 172 170 175 171 173 177 129 87 62 57 35 32 80 81 179 204 184 206 120 174 168 152 156 93 81 78 28 57 79 72 67 91 113 120 128 138 142 146 148 145 150 138 136 134 132 131 125 120 116 115 125 122 125 123 125 127 128 83 10 29 34 23 30 35 41 35 38 38 18 151 146 171 151 176 167 164 168 107 143 145 151 153 165 162 162 166 166 176 183 182 180 178 171 177 170 153 160 161 99 66 71 55 25 21 64 37 110 147 139 156 73 93 104 93 94 30 37 43 48 91 89 66 51 56 88 105 124 137 140 144 151 142 148 137 134 132 133 129 125 121 117 107 119 125 123 125 125 127 105 31 27 24 31 26 28 40 36 38 35 33 18 126 141 162 160 167 173 180 181 108 142 146 152 153 161 164 156 160 165 174 184 185 181 177 169 175 158 134 134 120 65 63 104 107 40 24 22 14 27 30 33 37 20 25 26 22 47 59 76 99 115 121 116 108 82 73 97 115 131 135 139 148 151 148 151 137 129 131 134 126 124 123 114 100 106 120 123 122 121 110 50 22 26 28 27 27 26 36 38 37 32 34 22 77 164 152 155 162 178 177 182 110 137 150 149 151 162 157 157 155 167 169 180 183 181 174 164 165 143 126 107 92 72 113 131 131 116 89 59 36 39 27 31 24 26 28 44 84 118 121 123 118 126 116 117 122 130 134 132 132 139 134 139 143 149 146 145 134 126 131 130 124 124 120 120 84 97 109 113 105 94 53 31 23 27 31 24 27 28 36 37 40 32 36 31 23 167 156 155 158 175 168 176 123 130 149 150 148 157 155 161 153 165 166 179 185 180 173 162 157 143 129 131 142 122 133 132 128 131 120 115 111 106 89 87 73 87 104 113 132 128 119 125 116 119 114 117 128 141 154 144 135 140 136 137 144 146 146 141 129 127 128 130 125 123 120 120 61 75 92 87 81 49 29 31 22 29 32 26 29 24 41 38 38 31 34 42 8 120 154 163 163 166 163 177 140 128 144 154 148 155 153 157 162 161 170 168 184 179 168 160 149 145 133 154 179 143 132 129 133 129 132 132 129 127 130 131 127 132 136 128 129 136 116 121 117 114 122 123 129 149 161 151 143 140 134 133 142 148 146 135 122 131 133 129 126 119 120 121 46 60 68 71 72 45 39 23 24 29 29 26 26 24 45 34 37 33 33 34 28 25 142 162 163 161 165 180 150 119 147 151 156 156 153 160 160 151 168 168 178 179 165 147 149 133 138 177 184 165 141 138 129 134 137 138 142 133 138 134 134 142 144 140 120 113 109 115 120 113 122 131 139 151 159 153 148 137 133 128 138 141 142 130 126 129 131 129 122 119 123 112 45 58 64 68 67 37 30 27 28 30 25 27 29 26 40 37 40 27 40 33 35 21 40 147 148 154 164 167 141 113 142 151 154 151 156 154 159 152 156 175 174 171 167 151 141 130 159 180 183 184 161 152 138 130 137 132 130 132 126 125 123 136 122 126 112 102 110 116 117 120 131 141 144 148 155 150 144 133 132 133 138 143 135 127 125 134 132 128 121 119 121 98 42 57 66 62 50 30 27 25 27 28 23 33 27 23 34 41 32 34 35 32 32 34 26 47 94 129 138 141 112 111 140 151 150 151 157 155 159 152 151 166 171 167 163 152 134 147 172 178 180 185 177 167 147 143 136 126 123 125 122 122 138 131 110 115 107 104 110 111 123 130 134 141 141 146 148 146 141 135 129 134 139 139 130 123 130 131 135 126 120 118 120 81 41 63 69 51 30 27 27 27 23 31 24 30 26 29 38 36 39 35 30 39 29 36 32 32 32 44 61 85 101 80 140 146 153 147 155 154 161 154 147 155 168 170 162 149 135 154 168 177 174 176 180 174 167 155 139 133 123 116 107 110 118 101 81 93 89 99 110 120 125 135 138 138 141 144 140 139 134 136 126 131 139 137 130 127 131 128 130 124 124 116 119 62 44 72 70 38 26 29 27 25 28 24 29 28 28 29 39 40 33 36 36 32 36 34 34 32 35 33 31 46 100 66 134 142 150 149 149 153 164 157 148 156 158 171 162 147 134 149 165 167 167 168 173 173 164 165 157 145 130 116 99 90 82 71 74 92 86 105 116 123 121 131 137 134 139 134 133 134 138 134 128 132 133 131 130 127 131 129 129 124 120 121 108 45 52 73 68 33 22 25 24 31 25 27 27 26 28 30 41 39 34 38 34 33 36 35 28 34 34 35 29 38 58 75 116 137 144 150 148 158 158 159 152 157 157 158 158 143 138 149 154 161 162 162 166 166 159 158 155 148 136 122 102 95 86 85 99 103 101 102 115 121 121 127 132 129 134 132 131 132 130 128 134 133 123 125 132 125 128 133 128 124 118 123 82 40 65 65 58 31 25 28 21 28 23 27 28 28 26 31 40 39 37 37 34 33 39 33 31 33 33 34 31 34 30 57 94 133 139 151 145 151 156 157 158 148 161 155 155 147 146 155 149 153 158 156 162 160 159 152 145 137 126 115 104 100 99 108 105 110 105 107 112 117 123 125 126 124 132 132 137 134 127 131 135 131 122 125 128 128 131 132 122 122 116 115 55 51 68 61 54 29 27 30 25 23 26 27 26 30 26 27 39 36 39 34 36 34 35 35 33 33 34 32 31 38 30 29 66 119 133 144 141 144 156 158 162 149 155 158 150 151 149 159 159 148 156 156 155 157 158 151 140 134 118 115 109 108 110 115 111 113 108 114 115 118 122 121 126 122 129 132 136 134 131 134 134 133 125 127 129 126 131 133 120 118 118 99 53 60 62 57 40 29 29 24 30 25 26 25 30 23 28 28 42 41 39 36 35 35 36 32 30 36 33 33 31 44 28 28 40 87 133 137 143 137 154 158 162 153 146 150 154 152 146 157 161 153 159 150 153 151 152 153 142 137 125 121 124 118 117 120 127 120 122 121 130 131 130 127 123 124 130 133 132 131 134 132 134 131 131 124 131 131 130 135 117 116 119 96 47 62 54 50 34 25 29 26 23 31 19 31 21 28 26 30 41 38 38 37 34 37 39 32 30 33 32 32 37 32 35 28 35 66 101 136 133 138 148 155 160 159 145 148 161 155 150 154 151 155 152 156 153 148 147 152 148 148 137 135 138 138 135 141 141 134 135 141 145 136 143 136 130 127 136 127 130 132 136 133 139 136 124 124 128 129 129 127 118 115 118 97 52 50 52 35 28 27 25 26 27 23 29 26 24 28 31 25 41 39 33 35 37 35 36 32 34 27 36 34 31 34 31 29 36 48 54 121 131 129 143 149 153 160 151 152 162 154 159 160 163 165 155 155 158 145 146 153 154 158 155 147 150 147 145 145 143 149 146 148 150 144 144 138 132 133 135 132 138 134 126 136 136 127 124 120 128 130 127 123 119 114 121 97 47 42 41 30 24 26 25 29 25 27 29 24 27 26 27 26 39 38 38 35 41 34 33 34 31 34 31 32 36 30 33 34 32 41 47 60 129 124 141 141 148 154 150 150 163 159 165 168 166 168 166 157 159 155 150 155 155 158 157 157 155 149 154 152 153 153 150 150 141 145 142 142 134 139 136 137 150 140 137 138 134 126 127 120 127 124 124 120 115 116 125 96 34 30 34 27 25 26 23 31 24 22 31 24 27 25 28 25 36 39 40 35 36 35 36 32 32 32 33 34 34 31 32 32 28 37 38 40 102 121 131 141 147 150 149 150 155 163 160 166 165 169 161 157 162 157 148 147 157 162 156 153 154 147 153 148 158 149 152 150 140 138 140 142 140 147 144 146 144 137 146 141 138 130 123 123 126 119 118 117 114 117 131 87 22 35 28 25 29 24 29 25 29 21 31 28 23 28 27 24 37 40 36 38 35 35 38 31 33 32 31 32 34 30 34 31 29 34 29 43 80 129 117 132 144 141 153 151 148 151 162 170 165 171 169 158 164 158 151 150 156 160 156 155 157 155 157 153 153 152 150 148 144 141 137 142 145 140 149 154 138 141 144 139 134 127 114 119 119 116 116 111 120 119 126 84 15 31 27 27 27 27 26 24 29 24 27 28 23 31 22 31 41 40 37 34 41 34 36 35 33 32 33 31 34 30 33 31 33 31 39 32 61 140 114 122 136 137 151 149 154 148 151 167 168 170 175 165 169 167 163 152 154 153 156 159 153 160 155 158 157 152 154 151 143 139 141 142 139 142 146 140 140 141 136 132 125 122 116 113 113 117 116 114 120 123 130 76 14 31 25 30 27 28 23 27 24 30 22 28 25 29 25 31 42 39 40 39 38 36 37 37 33 35 29 33 34 29 32 32 31 30 30 42 29 144 130 113 124 134 138 144 146 148 154 166 166 170 169 169 165 168 170 161 148 158 149 165 156 163 150 156 158 145 153 152 137 135 138 137 134 133 138 130 133 136 129 122 117 117 113 110 111 114 113 118 122 124 131 67 19 27 25 30 26 24 28 25 28 27 25 25 26 27 29 30 45 39 40 39 35 41 39 38 31 37 26 37 32 33 32 34 31 30 32 32 20 132 132 128 113 123 133 136 142 142 150 157 162 163 171 169 166 167 163 161 150 161 156 163 156 153 143 149 151 143 139 140 139 133 139 131 133 129 130 132 128 127 118 118 117 113 107 113 114 114 118 122 122 122 132 68 13 26 27 29 26 24 28 23 27 26 29 20 28 27 28 27 37 42 37 35 38 41 35 35 33 35 27 37 33 36 29 34 29 33 32 33 27 115 137 135 126 115 125 127 133 140 142 150 147 158 160 163 162 168 164 164 150 151 161 156 145 135 129 141 139 134 129 134 129 129 124 125 118 118 125 126 125 119 113 114 111 114 113 108 109 120 121 122 124 123 126 75 16 26 29 30 21 26 25 27 24 27 27 24 25 31 23 27 37 42 37 35 43 40 36 37 36 35 30 34 35 33 32 31 31 33 31 35 19 91 140 137 130 120 122 116 129 130 132 146 144 150 156 155 160 159 164 154 147 143 143 145 135 135 118 128 122 122 124 121 117 114 107 114 113 121 122 112 116 114 113 109 111 110 110 106 116 120 122 122 125 124 133 70 9 29 24 30 23 25 30 25 25 26 28 24 28 26 26 28 42 41 34 39 38 36 39 35 39 31 34 33 34 33 35 27 33 30 34 34 19 64 144 137 135 127 127 120 115 125 124 133 140 139 146 145 149 151 154 143 130 139 127 131 126 127 114 111 110 110 114 113 109 106 97 108 107 119 113 109 106 105 110 108 111 101 112 115 117 121 123 123 123 122 132 65 16 26 26 25 29 23 28 23 29 24 25 26 26 29 25 23 42 35 40 37 39 38 38 38 37 37 32 32 30 34 31 30 33 31 35 35 26 46 139 138 137 131 130 123 118 116 115 123 126 126 133 138 139 141 145 136 120 123 118 119 117 118 103 110 102 103 102 97 91 95 87 97 103 111 105 105 100 106 103 103 106 105 115 115 122 120 126 123 123 120 133 62 16 29 26 28 28 21 33 21 28 24 30 27 23 29 28 28 39 36 44 37 42 39 37 32 39 35 31 35 33 33 25 35 33 31 34 35 33 25 144 137 139 136 132 130 125 117 113 116 118 119 123 123 129 132 138 129 121 121 115 119 115 104 97 97 92 88 91 82 75 81 77 89 97 100 101 99 98 100 104 103 107 110 116 116 122 120 125 121 121 120 131 64 15 27 25 29 27 24 29 21 27 27 24 22 32 23 31 23 35 37 41 40 39 37 34 39 40 33 32 36 34 30 29 31 34 33 33 34 38 16 137 133 145 135 132 131 130 122 114 119 113 111 114 113 113 119 122 122 119 115 111 103 98 92 86 81 84 72 74 69 72 78 78 87 95 90 92 97 100 102 102 106 110 116 116 119 123 120 128 121 117 121 127 89 29 22 28 26 25 27 27 27 23 27 27 26 24 26 25 26 40 38 42 35 42 42 34 35 37 37 33 34 33 35 32 29 35 32 36 33 39 20 128 134 139 140 131 131 133 127 124 120 117 117 111 115 107 106 104 113 110 108 101 94 87 83 81 72 71 74 70 69 72 79 85 86 84 86 93 100 102 104 106 109 115 117 116 120 120 123 127 123 119 123 119 100 100 27 22 26 30 26 24 30 26 25 27 29 26 26 27 27 42 40 40 38 42 42 38 38 37 36 29 39 31 33 33 27 35 35 33 33 39 17 117 138 132 149 132 133 132 133 128 120 125 120 114 115 110 107 106 102 94 95 90 97 79 82 79 74 75 76 80 75 76 79 78 78 81 92 102 100 102 110 107 111 120 111 114 120 123 124 130 119 123 120 126 73 103 108 24 24 29 25 26 27 24 27 27 27 26 25 28 29 