P2
92
112
15
2 2 2 2 2 2 2 2 2 2 2 2 2 2 2 2 2 2 2 2 2 2 2 2 2 2 2 2 2 2 2 2 2 2 2 2 2 2 2 4 6 6 6 4 3 3 3 3 3 3 4 3 3 3 2 3 3 2 2 2 2 2 2 2 2 2 2 2 2 2 2 2 2 2 2 2 2 2 2 2 2 2 2 2 2 2 2 2 2 2 2 2 2 2 2 2 2 2 2 2 2 2 2 2 2 2 2 2 2 2 2 2 2 2 2 2 2 2 2 2 2 2 2 2 2 3 3 3 3 3 3 6 8 8 7 6 6 5 5 5 5 4 5 5 5 5 4 4 4 3 3 3 3 3 2 2 2 2 2 2 2 2 2 2 2 2 2 2 2 2 2 2 2 2 2 2 2 2 2 2 2 2 2 2 2 2 2 2 2 2 2 2 2 2 2 2 2 2 2 2 2 2 2 2 2 2 2 2 2 2 2 2 2 2 2 2 3 4 5 6 6 7 7 7 7 8 8 7 7 6 6 5 5 5 5 5 5 5 5 5 4 5 4 4 3 3 3 2 3 3 3 2 3 2 2 2 2 2 2 2 2 2 2 2 2 2 2 2 2 2 2 2 2 2 2 2 2 2 2 2 2 2 2 2 2 2 2 2 2 2 2 2 2 2 2 2 2 2 2 2 2 2 2 2 2 3 3 4 6 6 7 7 7 8 8 8 8 8 8 8 7 7 6 6 5 5 5 5 5 6 6 5 5 5 5 5 5 4 4 4 4 4 3 3 3 3 3 3 3 2 2 2 2 2 2 2 2 2 2 2 2 2 2 2 2 2 2 2 2 2 2 2 2 2 2 2 2 2 2 2 2 2 2 2 2 2 2 2 2 2 2 3 3 2 3 3 3 5 6 7 7 7 8 8 8 8 8 8 8 8 8 8 8 7 7 6 6 6 6 6 6 6 6 6 6 5 5 6 5 6 6 6 6 6 5 4 4 3 3 3 3 3 2 2 3 2 2 2 2 2 2 2 2 2 2 1 2 2 2 2 2 2 2 2 2 2 2 2 2 2 2 2 2 2 2 2 2 2 2 2 2 2 2 2 3 4 5 6 7 8 7 8 8 8 8 9 9 9 9 9 9 8 8 9 8 8 8 7 7 6 6 6 6 6 6 6 6 6 6 6 6 6 6 6 6 5 6 5 5 4 3 2 2 3 2 2 3 3 2 2 2 2 2 2 2 2 2 2 2 2 2 2 2 2 2 2 2 2 2 2 2 2 2 2 2 2 2 2 2 2 2 2 2 2 3 3 3 5 5 7 8 8 8 8 8 8 9 8 8 8 8 9 9 9 9 9 8 8 8 8 7 7 7 7 6 6 6 6 7 7 6 6 6 6 6 7 6 6 6 5 5 4 4 3 3 2 3 2 2 3 2 2 2 2 2 2 2 2 2 2 2 2 2 2 2 2 2 2 2 2 2 2 2 2 2 2 2 2 2 2 2 2 2 2 2 2 3 4 5 6 7 7 8 8 9 9 8 8 9 9 8 8 8 8 8 9 10 9 9 9 9 9 8 8 8 7 7 7 7 7 7 6 6 6 6 6 7 6 6 6 6 6 5 5 4 4 3 2 3 3 2 2 2 2 2 2 2 2 2 2 2 2 2 2 2 2 2 2 2 2 2 2 2 2 2 2 2 2 2 2 2 2 2 2 3 2 2 4 5 7 7 7 7 8 8 8 8 9 9 9 9 9 10 10 9 8 9 8 8 8 8 8 9 9 8 8 7 7 7 6 6 6 6 6 7 7 7 6 6 6 5 5 5 5 5 5 4 4 4 2 3 3 2 2 2 2 2 2 2 2 2 2 2 2 2 2 2 2 2 2 2 2 2 2 2 2 2 2 2 2 2 2 2 2 2 2 3 3 4 6 7 8 9 8 8 8 8 8 8 9 8 8 8 8 9 9 9 9 9 9 9 9 9 8 8 8 8 8 7 7 7 7 7 7 6 7 6 6 6 6 6 4 4 4 4 3 4 5 4 4 4 3 2 3 2 2 2 2 3 2 2 2 2 2 2 2 2 2 2 2 2 2 2 2 2 2 2 2 2 2 2 2 2 2 2 2 2 3 3 5 6 8 9 9 9 8 8 8 8 8 8 9 9 8 9 9 8 8 8 7 7 8 8 8 9 8 8 8 8 8 8 7 7 7 7 6 6 6 6 6 6 6 5 5 3 3 3 3 5 3 4 4 3 3 3 3 2 2 2 3 3 2 2 2 2 2 2 2 2 2 2 2 2 2 2 2 2 2 2 2 2 2 2 2 2 2 2 2 2 3 4 7 8 9 9 9 9 9 9 9 9 9 9 10 9 9 9 9 10 9 8 8 8 8 8 8 8 8 8 8 8 8 8 8 7 7 6 6 7 7 7 7 6 5 5 5 3 3 2 4 3 4 4 3 3 3 3 3 2 2 2 3 2 2 2 2 2 2 2 2 2 2 2 2 2 2 2 2 2 2 2 2 2 2 2 2 2 2 2 2 2 3 6 8 9 9 10 10 9 9 9 9 9 9 9 9 9 8 8 9 9 8 8 9 9 9 8 8 8 7 8 7 8 8 8 7 7 7 6 7 7 7 8 7 6 5 5 5 3 3 3 4 4 3 4 3 3 3 3 3 3 3 3 2 2 2 2 2 2 2 2 2 2 2 2 2 2 2 2 2 2 2 2 2 2 2 2 2 2 2 2 2 3 6 8 9 9 9 10 10 9 9 9 9 9 9 9 8 8 8 9 8 8 8 8 9 9 8 9 8 8 8 8 8 7 7 7 7 7 7 7 8 8 7 8 8 6 6 7 5 4 3 4 3 4 3 3 3 3 3 3 4 3 3 3 3 3 2 2 2 2 2 2 2 2 2 2 2 2 2 2 2 2 2 2 2 2 2 2 2 2 2 2 3 6 8 9 8 9 10 10 9 9 9 9 8 9 9 9 8 9 9 9 8 8 8 8 9 8 8 8 8 8 7 7 7 7 8 8 8 8 8 8 9 8 8 8 8 6 7 7 5 5 4 3 3 4 3 3 4 3 3 4 4 3 3 3 3 3 4 2 2 2 2 2 2 2 2 2 2 2 2 2 2 2 2 2 2 2 2 2 2 2 2 4 6 8 9 9 9 9 9 9 9 8 8 8 10 10 10 10 10 10 10 9 9 9 9 9 8 8 8 8 7 8 7 7 7 8 9 8 8 8 8 9 8 8 9 8 8 6 8 7 6 6 5 4 3 3 4 3 4 3 3 4 4 4 4 4 3 3 4 4 2 2 2 2 2 2 2 2 2 2 2 2 2 2 2 2 2 2 2 2 2 2 4 6 8 9 9 8 9 9 9 9 8 8 9 10 11 10 10 11 11 9 8 9 9 9 9 9 8 8 8 7 8 8 7 7 8 9 9 8 8 9 8 9 8 8 9 9 8 8 8 6 6 7 6 5 4 4 3 3 3 4 5 4 4 4 4 4 4 3 3 4 4 2 2 2 2 2 2 2 2 2 2 2 2 2 2 2 2 2 2 2 2 4 7 8 9 9 9 9 8 8 9 8 9 9 10 11 11 11 12 11 10 8 9 9 9 10 9 8 8 8 8 8 8 7 8 8 8 9 8 8 9 9 9 8 8 9 9 9 8 9 8 7 7 7 6 6 5 5 3 3 4 4 4 5 4 4 4 5 5 3 3 3 4 3 3 2 2 2 2 2 2 2 2 2 2 2 2 2 2 2 2 2 4 7 8 9 9 9 9 10 9 9 9 9 10 10 11 11 11 12 11 9 8 8 9 10 10 9 8 8 8 8 8 9 8 8 8 9 10 9 8 9 9 8 9 9 9 9 9 9 9 8 7 7 7 7 7 7 6 5 4 3 3 5 4 5 5 4 4 5 6 4 3 3 3 4 3 2 3 2 2 2 2 2 2 2 2 2 2 2 2 2 2 4 7 8 8 9 9 10 10 9 9 9 9 10 10 11 10 11 11 10 8 8 8 9 10 10 10 9 8 8 8 8 10 9 8 9 9 10 9 8 9 9 8 9 9 8 10 10 10 10 8 7 7 7 8 8 7 7 7 7 6 4 3 3 5 4 6 5 5 5 5 6 4 3 3 3 4 3 2 2 2 1 2 2 2 2 2 2 2 2 2 2 3 6 8 8 8 8 9 10 10 9 10 9 9 10 10 10 10 10 10 9 9 9 8 10 10 10 9 9 9 9 9 10 10 9 9 9 9 9 9 8 9 9 9 9 8 10 10 10 10 10 8 7 7 8 8 8 8 7 7 7 6 6 4 3 5 6 5 6 6 6 6 6 5 4 3 3 4 4 2 2 2 2 2 2 2 2 2 2 2 2 2 2 4 7 9 9 9 8 9 9 10 9 10 10 9 10 9 10 10 10 9 9 9 9 9 10 10 10 9 9 9 9 10 9 9 8 9 10 9 9 9 9 9 9 9 9 9 11 10 9 10 10 8 7 8 8 8 8 8 8 8 8 7 7 5 4 3 6 5 6 6 6 6 7 6 5 4 3 3 4 2 2 2 2 2 2 2 2 2 2 2 2 2 3 7 9 9 8 8 8 8 9 9 9 9 9 9 8 9 10 10 10 10 10 10 10 9 9 9 9 9 9 10 10 10 9 9 9 10 10 9 9 9 10 9 9 10 10 10 11 10 9 11 9 8 8 9 8 9 8 8 8 8 8 7 7 6 5 4 5 6 6 7 6 6 7 7 6 5 4 3 3 3 3 2 2 2 2 2 2 2 2 2 2 2 6 9 9 9 8 8 9 9 9 9 9 9 9 9 8 9 10 10 10 10 10 10 10 9 9 9 10 10 10 10 10 9 10 10 10 9 10 10 9 9 9 9 10 10 10 11 11 9 9 10 8 8 8 9 9 9 9 8 8 8 8 8 8 7 5 5 5 6 7 7 6 6 7 7 7 5 5 3 3 3 3 3 2 2 2 2 2 2 2 2 2 3 8 8 8 8 8 9 9 9 9 9 9 9 9 8 8 9 10 11 10 10 10 10 10 10 9 10 11 11 10 10 10 11 11 10 10 10 10 10 10 10 10 11 10 10 10 11 10 8 10 9 9 8 9 9 9 9 9 9 8 9 8 8 8 8 6 6 5 5 8 7 7 7 7 7 7 6 6 4 3 3 3 3 2 2 2 2 2 2 2 2 2 7 8 8 8 8 8 9 9 9 9 9 9 9 9 8 9 10 10 11 10 10 10 9 10 10 11 11 11 11 11 11 11 10 9 10 10 10 10 10 10 10 10 10 10 10 11 10 8 9 10 9 9 9 9 9 9 9 9 9 9 9 8 9 8 8 7 6 6 4 7 8 8 7 8 7 7 7 7 4 3 3 3 2 2 3 2 2 2 2 2 2 5 8 8 8 8 8 8 8 9 9 9 9 9 9 9 9 9 10 10 11 10 10 10 10 10 10 10 10 10 10 10 10 10 10 10 10 9 10 10 9 10 10 10 10 10 10 10 9 9 10 10 9 9 10 10 10 10 10 9 9 9 9 9 9 8 8 8 7 6 5 6 9 8 7 8 8 7 7 7 6 4 3 4 2 2 3 2 2 2 2 3 3 8 8 7 8 8 8 8 7 8 8 9 9 9 9 9 9 9 9 9 10 10 9 9 9 9 9 9 9 9 10 10 10 10 10 10 10 10 10 9 10 10 10 10 10 11 10 9 9 10 10 10 9 10 10 10 10 10 10 9 9 9 9 9 9 8 8 8 7 7 6 6 9 8 8 8 8 7 6 6 7 6 3 4 2 2 3 2 2 2 2 2 6 8 8 8 8 8 7 7 7 7 8 9 9 9 9 9 9 10 10 10 9 9 9 9 9 9 8 8 9 10 10 10 10 10 10 10 10 10 10 10 10 10 10 10 11 10 9 9 10 10 10 10 10 10 10 10 10 10 9 9 10 9 9 9 9 9 8 8 8 7 7 6 8 9 7 8 8 7 6 6 7 7 5 4 3 2 2 2 2 2 2 3 6 8 8 8 9 8 7 7 7 7 8 9 9 9 9 10 10 10 10 10 10 9 9 8 8 9 9 9 9 9 10 10 10 9 10 10 10 10 9 10 9 10 10 10 10 10 10 10 10 10 10 10 10 10 10 10 10 9 10 9 9 9 9 9 9 9 8 8 8 7 7 7 8 9 8 8 8 7 6 7 8 8 6 4 3 2 2 2 2 2 3 5 7 7 8 8 8 8 7 7 6 7 8 10 9 9 9 10 10 9 10 10 10 10 9 9 8 9 10 9 9 9 9 9 9 9 9 9 9 9 9 10 10 10 10 10 10 10 10 10 10 10 10 10 10 10 10 10 9 9 9 9 9 10 9 9 9 9 9 9 8 8 7 7 8 8 8 7 8 7 6 7 8 8 7 5 4 2 2 2 2 3 6 7 7 7 8 8 7 7 7 7 7 8 8 9 9 9 9 10 10 9 10 9 10 10 10 10 9 9 9 10 9 9 9 8 9 8 9 9 9 10 10 10 10 11 11 11 11 11 11 11 10 10 10 10 10 10 10 10 9 9 9 9 10 9 9 9 9 9 9 9 9 8 7 7 8 9 8 8 8 7 7 7 7 8 8 7 4 3 2 2 3 5 6 7 7 8 7 8 8 7 8 7 8 8 9 9 9 9 10 10 10 10 9 9 9 9 10 9 9 9 9 10 10 10 10 10 10 10 10 10 10 11 11 11 11 11 11 11 11 11 11 10 11 10 10 10 10 10 10 9 9 9 9 9 10 10 10 10 9 9 9 9 9 9 8 7 8 8 8 8 8 9 7 7 7 7 8 8 6 3 2 2 3 4 6 8 7 8 8 8 8 8 8 8 8 8 9 9 9 10 10 10 10 10 10 9 9 8 8 9 10 11 11 11 11 11 11 11 11 11 11 10 11 11 11 11 11 11 11 11 11 11 10 11 11 10 10 10 10 10 10 9 9 9 9 10 9 9 10 10 10 9 9 9 9 9 8 8 8 8 9 8 8 9 8 8 7 7 7 8 8 3 2 2 2 4 7 8 7 9 8 9 8 9 8 8 8 8 9 9 10 10 10 11 10 10 10 9 9 9 10 11 11 11 11 11 11 11 11 11 11 11 11 11 11 11 11 11 11 11 11 11 11 11 11 11 11 11 10 10 10 10 10 10 10 10 10 10 9 9 9 10 10 9 9 9 9 9 8 8 9 8 8 8 8 8 8 8 8 7 8 7 7 4 2 2 3 5 7 8 8 8 8 8 8 8 9 8 8 8 9 10 10 10 11 10 10 11 10 10 10 11 11 11 11 11 11 11 12 11 12 11 11 11 11 11 11 11 11 11 11 11 11 11 11 11 11 11 11 11 10 10 10 10 10 10 10 10 10 10 10 9 9 10 10 9 9 9 9 9 9 8 9 8 9 8 8 7 9 8 9 8 8 6 7 6 2 2 3 6 7 8 8 7 8 7 8 8 9 8 8 8 10 10 10 10 10 10 11 11 10 11 11 11 11 12 11 12 11 11 11 12 11 11 12 12 12 11 11 11 11 11 11 11 12 11 11 11 11 11 11 11 10 10 10 10 10 10 10 10 10 10 10 10 10 9 10 9 9 9 9 9 9 8 9 9 9 8 8 8 8 8 8 9 8 7 6 7 2 2 4 7 8 8 8 7 8 8 8 9 10 8 9 9 10 10 10 10 10 10 11 11 11 11 11 11 11 12 12 12 11 11 11 11 11 11 12 12 12 12 11 11 11 12 11 12 12 12 12 11 12 12 11 11 10 11 10 10 10 10 10 10 10 10 9 10 9 10 9 9 9 9 9 9 9 8 9 9 9 9 8 9 8 7 8 8 8 7 6 6 3 3 4 7 8 9 7 8 9 9 9 10 10 9 9 9 10 11 10 10 10 10 11 11 11 11 11 11 11 12 11 11 11 11 11 11 11 11 12 12 12 12 12 11 11 12 11 12 12 12 12 11 12 12 11 11 10 11 10 10 10 10 10 10 10 10 10 10 9 9 9 9 9 9 9 9 9 9 9 9 9 9 8 8 9 7 7 8 8 7 7 6 5 2 4 7 9 9 7 8 9 9 9 10 11 9 9 9 10 11 10 10 10 10 11 11 11 11 11 11 11 11 11 11 11 11 11 11 11 11 12 12 11 11 12 11 11 12 11 12 12 11 11 10 11 11 12 11 10 10 10 10 10 10 10 10 10 10 10 9 9 9 9 9 9 9 9 9 9 8 8 10 9 9 8 8 9 8 7 7 7 7 6 7 5 2 5 8 9 8 8 8 9 9 8 10 11 9 9 9 10 11 10 10 10 10 10 11 11 11 11 11 11 11 11 11 11 11 11 11 11 11 10 11 10 10 11 10 11 11 10 11 11 11 10 10 10 10 11 10 10 9 9 9 9 9 10 9 10 9 9 9 9 9 9 9 8 9 8 9 9 8 8 10 9 9 8 8 9 7 7 7 7 7 6 7 5 3 6 9 8 8 8 9 8 8 8 11 12 10 10 10 10 11 10 10 10 10 10 11 11 11 10 10 10 10 10 9 9 9 9 9 8 8 8 9 9 9 10 10 10 10 9 10 10 10 10 9 9 9 9 8 8 8 8 7 7 8 8 8 8 9 8 9 9 9 9 9 8 8 8 9 9 7 7 10 9 9 8 8 8 7 6 6 6 7 6 6 5 5 8 8 8 8 9 8 8 8 8 10 12 11 10 10 10 11 10 10 10 10 10 11 10 9 10 10 9 9 8 8 8 8 8 8 7 7 7 7 7 8 8 9 9 10 9 10 10 10 9 9 8 8 8 7 7 7 6 6 6 6 6 7 7 7 7 8 8 9 9 9 8 8 8 8 9 6 7 9 9 9 9 8 8 7 7 6 6 6 6 7 4 5 8 8 9 8 9 7 8 8 9 10 12 12 10 9 10 10 10 10 10 10 10 10 9 9 9 9 8 8 7 7 7 7 6 6 6 6 6 6 7 7 8 8 8 9 9 10 9 9 8 8 7 7 7 6 6 6 5 5 5 5 5 5 5 6 6 7 7 7 8 9 8 8 8 8 8 6 6 8 9 9 9 8 8 8 7 6 6 5 6 7 4 4 8 9 9 8 9 8 8 8 9 11 12 12 9 8 10 10 10 10 10 10 10 10 9 9 9 8 7 7 6 6 6 6 6 6 5 6 6 6 7 7 7 8 8 9 9 10 9 8 8 7 7 6 6 6 5 5 5 4 4 4 5 6 6 7 7 8 9 9 8 8 8 8 8 8 8 6 6 7 9 9 9 8 8 8 7 7 6 5 6 7 5 3 8 9 8 8 9 9 8 8 9 11 12 10 7 9 10 10 10 10 10 10 9 8 8 8 9 8 10 9 10 11 11 8 7 7 6 7 7 7 7 7 7 7 8 9 8 9 8 8 7 6 5 5 5 5 5 5 4 4 4 4 5 6 5 7 6 7 8 8 8 7 7 8 8 8 8 7 5 7 9 9 9 9 8 8 8 6 6 5 6 7 6 3 8 9 8 9 9 9 8 8 10 11 11 9 6 9 10 10 10 8 8 7 7 8 7 8 8 8 7 8 10 10 10 8 6 6 6 6 5 4 3 4 4 4 5 5 4 5 4 5 4 3 3 2 3 4 4 5 4 4 5 5 6 7 7 8 8 8 8 8 6 6 6 6 6 7 8 7 5 6 8 9 9 9 8 7 8 7 6 5 6 7 5 4 8 9 8 9 9 9 8 8 10 11 10 7 6 9 10 9 7 8 8 10 9 9 8 10 10 10 9 12 12 10 9 8 8 7 6 7 6 6 6 2 6 7 8 9 9 10 9 9 8 7 5 4 5 5 6 5 4 8 11 10 9 10 10 10 10 10 10 10 8 7 7 7 6 7 6 7 6 6 8 9 9 9 9 7 7 8 7 5 6 6 3 5 9 9 8 9 9 8 8 9 10 10 9 5 6 9 10 6 11 10 8 10 9 8 9 11 12 11 10 14 14 12 8 8 8 8 8 7 7 7 7 7 3 10 9 11 10 11 10 11 9 6 6 7 6 5 6 7 6 13 13 13 8 8 9 9 9 9 10 10 9 8 8 7 5 8 7 5 6 5 7 9 9 9 9 8 7 8 7 6 7 7 3 5 9 8 8 9 9 8 9 9 10 10 8 5 6 10 6 8 12 8 8 10 8 8 10 11 11 10 9 12 13 9 7 7 7 7 8 8 7 7 7 10 5 10 9 10 9 9 9 9 9 4 8 7 6 6 8 8 6 12 13 11 8 9 9 9 8 8 8 10 10 8 8 8 5 7 9 6 7 5 6 8 9 9 9 8 7 7 8 6 7 7 3 7 9 8 8 9 8 9 9 9 10 9 6 5 7 9 7 9 12 6 8 10 8 10 10 11 9 11 12 11 11 8 7 7 7 6 6 6 7 7 7 10 7 7 9 9 7 7 7 7 6 6 9 8 6 7 7 7 7 10 10 10 7 9 7 8 8 9 8 8 9 8 8 8 9 6 9 8 6 5 5 8 8 8 9 8 7 7 7 7 8 8 4 7 9 7 8 9 9 9 8 9 10 8 5 5 7 9 8 9 10 5 8 11 8 10 10 9 9 11 10 8 7 5 5 5 6 6 6 6 7 7 8 11 5 11 9 12 5 4 3 4 5 7 9 8 7 7 7 6 7 9 8 7 5 7 3 5 7 8 8 8 7 8 7 8 12 7 7 9 6 5 5 6 8 8 8 8 7 7 7 8 7 7 5 5 7 8 8 11 8 10 8 8 10 7 3 5 7 8 8 10 9 3 11 14 9 10 8 8 9 8 6 9 3 2 5 4 7 6 5 6 8 10 9 9 7 7 8 7 5 2 3 3 4 6 8 8 8 9 8 6 6 7 9 6 5 4 2 3 5 6 6 8 7 8 8 9 13 11 6 9 7 4 5 5 8 8 8 8 8 7 7 8 8 6 5 3 6 8 8 10 8 9 8 8 9 6 7 6 7 7 7 9 8 2 13 14 11 9 6 8 7 7 7 5 4 4 6 6 7 7 6 7 9 10 9 9 7 5 8 8 9 7 7 6 5 4 7 7 9 10 8 7 7 7 8 7 6 6 5 5 6 7 6 7 7 8 8 9 12 9 6 8 8 4 4 5 8 8 7 7 8 7 7 7 8 7 2 1 5 8 9 11 8 9 8 8 10 5 13 5 3 8 5 7 6 3 12 14 11 8 7 7 7 7 8 7 7 7 7 7 7 6 6 7 8 9 8 10 5 6 7 10 10 10 9 9 5 4 6 7 8 8 8 7 7 7 7 7 7 7 7 7 8 8 7 7 7 7 9 9 9 6 4 6 7 2 1 4 6 7 7 7 8 7 7 8 7 7 2 2 2 9 8 11 8 8 8 8 9 5 12 2 1 9 3 8 8 5 11 14 10 9 9 7 7 8 9 8 8 8 7 7 6 6 6 7 8 8 9 10 3 7 8 11 10 10 9 10 5 5 6 7 8 8 7 7 7 6 7 7 7 7 8 7 7 8 7 7 7 7 8 9 7 5 5 6 7 2 1 2 5 7 8 7 8 7 7 9 8 6 1 2 1 9 9 11 9 8 8 8 8 7 9 5 5 9 2 8 9 5 9 12 11 11 11 9 8 9 9 9 8 7 6 6 6 7 7 8 8 8 9 8 5 7 9 11 11 10 9 10 7 4 6 7 8 9 8 8 7 7 7 6 7 7 7 7 7 7 7 6 6 7 8 9 9 7 5 7 7 5 6 5 6 7 7 7 8 8 7 8 7 6 1 2 0 9 8 11 10 9 8 8 8 8 6 7 7 8 2 6 9 6 9 11 11 11 11 10 10 9 9 9 8 7 7 7 8 8 8 8 8 8 10 5 7 7 10 10 11 9 9 9 8 4 5 8 8 8 8 8 8 8 8 7 7 7 6 6 6 7 7 8 8 8 9 10 9 7 5 6 6 6 7 4 6 7 7 7 7 9 8 8 7 5 2 2 0 7 8 11 9 9 7 8 8 7 6 8 7 8 2 3 10 6 10 11 11 10 10 10 10 10 10 9 9 9 8 8 8 8 8 8 8 9 10 4 7 9 10 10 10 9 9 9 9 6 4 7 8 8 8 8 9 9 8 8 8 8 7 7 7 8 8 8 8 9 9 10 9 7 6 5 6 6 8 4 6 7 7 7 7 9 8 8 7 4 2 2 1 6 9 11 10 9 8 8 8 6 6 8 8 7 4 1 9 7 10 10 10 10 10 10 10 10 10 10 9 9 8 8 8 8 8 8 8 10 7 5 7 10 10 10 10 9 9 9 9 8 4 5 8 8 8 8 8 8 8 8 9 9 8 8 8 8 9 9 9 9 9 10 9 7 6 3 7 6 8 5 6 7 7 7 7 9 9 8 7 1 2 2 1 4 10 9 11 8 8 7 8 6 6 8 8 6 5 2 3 7 10 10 10 10 10 10 10 9 9 9 9 9 9 8 8 8 8 9 9 10 4 7 8 10 10 10 10 9 9 8 9 9 7 4 8 9 8 8 8 8 8 8 8 9 9 9 9 9 9 9 9 9 9 10 9 7 5 2 8 5 8 5 6 6 7 8 8 8 9 8 6 1 1 2 2 2 10 7 10 9 8 7 7 7 7 8 9 5 7 2 2 6 9 10 10 10 10 10 10 9 9 9 9 8 8 9 8 8 9 9 9 8 6 6 10 10 10 10 10 9 9 9 9 8 8 6 6 9 8 8 8 8 8 8 8 8 8 8 9 9 9 9 9 10 10 10 9 7 3 3 8 5 8 6 6 6 7 8 8 8 8 7 6 1 1 2 2 1 9 6 9 10 7 7 7 7 7 7 10 4 9 2 2 4 10 9 11 11 10 10 9 9 9 9 8 9 9 9 9 8 9 9 10 5 7 8 10 10 10 10 10 10 8 9 9 8 8 8 6 6 9 8 8 8 8 8 8 8 8 8 9 9 9 9 10 10 10 10 9 7 1 6 7 6 7 6 6 6 8 8 8 7 8 8 6 1 1 2 2 1 8 6 7 9 8 8 6 6 7 7 10 5 10 4 2 2 9 10 10 11 10 10 9 9 9 9 9 9 9 9 9 9 9 10 6 6 6 9 10 10 10 10 10 11 8 9 9 9 8 8 9 4 7 9 8 8 8 8 8 8 8 8 8 9 9 9 10 10 10 10 9 6 2 8 5 7 7 5 6 7 7 8 7 6 8 7 4 1 1 2 2 1 4 6 8 5 8 9 7 7 7 7 8 8 6 9 2 1 8 10 10 11 10 10 9 9 9 9 9 9 9 9 9 9 9 7 6 6 7 10 10 11 10 10 11 13 10 9 9 10 8 8 8 8 3 8 9 8 8 8 8 8 8 9 8 8 9 9 10 10 10 9 10 5 7 8 5 8 7 4 5 6 7 7 8 6 7 5 1 1 2 2 2 2 2 4 9 5 9 9 9 8 5 7 8 10 4 9 9 3 5 10 10 10 11 10 9 9 9 9 9 9 9 9 9 8 6 6 5 6 10 10 10 11 11 11 11 12 9 9 10 11 8 8 8 9 7 4 6 8 8 8 8 8 8 8 8 8 8 8 10 10 9 9 8 9 13 5 7 7 7 4 5 5 6 7 8 6 7 2 1 1 2 2 2 2 2 1 10 6 10 9 8 7 4 6 8 8 9 5 10 12 5 9 10 10 11 11 10 10 9 9 9 9 9 9 7 5 6 5 6 10 11 10 10 9 10 12 10 10 9 8 8 8 7 7 8 9 9 7 3 4 6 8 8 8 7 8 7 8 8 8 10 10 9 9 8 10 8 7 7 7 6 5 3 4 4 6 7 7 6 1 1 1 2 2 2 2 2 1 9 8 10 9 7 6 4 9 7 8 8 8 6 9 9 9 10 10 10 11 11 10 10 10 9 8 6 5 5 5 5 6 8 11 11 9 9 9 9 10 9 9 8 8 7 6 7 7 7 9 10 10 6 4 4 5 5 7 7 7 8 8 8 9 9 8 7 7 7 7 8 8 7 7 7 7 2 3 3 5 7 8 4 0 1 1 1 2 2 2 2 1 7 10 11 9 7 5 7 11 6 8 8 9 9 9 8 7 7 7 7 7 8 7 7 6 6 5 5 5 6 6 7 8 9 11 10 9 8 7 9 9 9 8 7 7 6 7 6 7 6 8 9 10 8 6 7 7 6 5 4 4 5 5 5 7 8 8 8 8 8 8 8 7 7 6 8 8 3 3 3 5 7 8 3 1 2 1 1 2 2 2 2 1 5 10 10 9 8 7 9 12 6 8 9 9 9 10 9 10 10 10 11 10 10 9 8 8 7 8 8 8 9 8 9 8 10 10 8 7 4 2 6 9 8 7 6 6 7 6 3 3 5 6 7 8 8 5 8 9 9 8 7 7 6 6 7 9 9 9 9 8 8 8 8 7 7 6 8 7 3 3 3 5 8 8 2 1 1 1 1 2 2 2 2 1 4 10 10 8 9 8 8 12 6 7 8 9 9 9 9 10 10 10 10 10 10 10 10 10 10 11 10 10 9 8 9 9 9 9 7 4 2 2 3 7 8 6 5 6 6 4 2 1 1 4 5 7 8 4 8 9 9 9 9 9 9 9 9 9 9 8 8 8 8 8 8 7 7 7 8 6 4 3 3 6 8 7 1 1 2 1 1 2 2 2 2 2 3 10 10 8 8 9 8 11 7 7 8 9 9 9 9 10 10 10 10 10 10 11 11 11 11 10 9 9 8 9 10 10 9 8 6 4 4 4 6 7 8 6 5 6 6 5 4 2 1 2 4 6 6 4 8 9 9 9 9 10 10 10 9 10 9 8 8 8 8 8 8 7 6 7 7 5 5 5 5 7 8 7 1 1 1 2 1 2 2 2 2 2 1 9 10 9 8 9 8 9 8 7 8 8 9 9 9 9 10 10 10 10 11 11 11 11 11 10 9 9 10 10 11 10 10 8 6 6 8 9 9 8 7 7 5 5 6 6 6 5 5 4 3 5 5 7 9 9 9 9 9 9 9 9 9 9 9 9 8 8 7 7 7 7 6 7 6 5 7 7 7 7 7 6 1 1 1 1 1 2 2 2 2 2 1 9 9 11 9 10 9 7 8 8 8 9 9 9 9 9 10 10 11 11 11 11 11 11 10 10 10 10 10 11 11 11 10 9 9 9 9 10 10 9 7 5 5 5 4 5 6 7 7 6 7 7 8 9 10 9 9 9 9 9 9 8 9 8 9 9 9 8 7 7 7 7 7 7 7 7 8 8 7 7 8 3 1 1 2 1 2 2 2 2 2 2 1 7 9 10 10 11 10 10 8 7 8 9 9 9 9 9 10 11 11 11 11 11 11 11 10 10 10 10 11 11 10 11 10 10 10 10 10 10 10 10 9 4 4 6 5 5 7 8 8 9 9 9 9 9 10 10 9 9 9 9 8 9 9 9 8 8 8 8 8 7 7 7 6 8 8 8 8 8 7 7 7 1 1 2 1 1 1 2 2 2 2 2 1 4 10 9 10 10 11 11 9 7 8 8 9 9 9 9 10 11 11 11 11 11 11 11 10 10 10 11 11 10 10 10 10 10 10 10 10 10 10 10 9 7 6 7 7 8 9 9 9 9 9 9 9 9 9 10 10 9 9 9 9 9 9 8 8 8 8 7 7 7 7 7 6 7 7 7 8 8 7 8 4 1 1 1 1 1 1 2 2 2 2 2 2 1 10 10 9 10 11 11 10 7 8 8 9 9 10 10 10 10 10 11 10 11 11 11 11 10 11 10 11 10 10 10 10 10 10 10 10 10 10 9 9 9 8 10 10 10 9 9 9 9 9 8 9 9 9 9 10 10 9 9 9 8 9 8 8 8 8 7 7 7 7 7 6 8 7 7 7 8 8 7 1 1 2 1 2 1 1 2 2 2 2 2 2 1 6 10 10 10 10 10 10 7 8 9 9 9 10 10 10 10 10 11 10 11 11 11 11 10 10 10 10 10 10 10 10 10 10 10 10 10 10 9 10 9 9 10 11 10 10 9 9 9 9 9 8 9 9 9 10 10 9 9 9 9 8 8 8 8 8 7 7 7 7 7 7 8 8 7 7 8 7 4 1 1 1 1 1 1 1 2 2 2 2 2 2 2 1 9 11 10 10 10 10 7 8 9 9 9 9 10 10 10 10 10 11 10 10 10 11 11 10 10 10 10 10 10 10 10 10 11 10 11 11 10 10 9 9 10 11 10 10 9 9 9 9 9 9 8 9 9 9 9 9 9 9 9 8 8 8 8 8 7 7 7 7 6 7 7 8 7 7 7 5 1 1 2 1 1 1 1 1 2 2 2 2 2 2 2 1 4 9 10 10 10 11 7 8 9 9 9 9 10 9 10 10 11 10 11 10 10 11 11 10 10 10 10 10 10 10 11 11 11 10 10 10 9 10 9 10 10 10 9 10 9 9 10 10 9 9 9 9 9 9 9 9 10 9 8 8 8 8 8 8 7 7 7 7 6 6 6 7 7 6 5 1 1 1 1 1 1 1 1 1 2 2 2 2 2 2 2 2 1 4 8 9 9 10 7 8 9 9 9 9 10 10 10 10 10 11 11 10 10 10 11 10 10 10 10 10 10 10 11 10 9 7 7 6 7 7 8 9 8 7 6 6 7 8 9 10 9 9 9 9 9 8 9 9 9 8 8 8 8 8 7 8 7 7 7 7 7 5 5 6 4 3 2 1 1 2 1 1 1 1 1 1 2 2 2 2 2 2 2 2 1 1 2 5 7 7 7 8 9 9 9 9 10 10 10 10 10 10 11 10 10 10 10 10 10 11 10 10 10 10 8 7 6 5 4 4 5 5 6 5 4 4 4 4 5 6 7 8 9 9 9 9 9 8 9 9 8 8 8 8 8 8 8 8 7 7 7 7 7 4 4 3 2 1 1 1 1 1 1 1 1 1 1 1 2 2 2 2 2 2 2 2 2 2 2 1 3 2 6 8 9 9 9 9 9 10 9 10 10 10 11 11 10 10 10 10 10 11 11 10 9 6 5 4 3 3 2 2 3 3 3 2 3 3 3 3 4 5 5 5 6 8 9 9 8 8 9 9 8 8 8 8 8 8 8 7 7 7 7 7 7 4 4 2 1 1 1 1 1 1 1 1 1 1 1 1 2 2 2 2 2 2 2 2 2 2 2 1 2 1 4 9 9 9 9 9 9 9 9 9 10 10 11 11 10 10 10 10 10 10 10 8 5 4 3 2 1 2 1 2 3 3 3 2 4 3 3 2 2 3 4 4 4 5 7 8 8 7 8 8 8 8 8 8 8 8 8 7 7 7 7 7 6 3 3 1 1 1 1 1 1 1 1 1 1 1 1 1 2 2 2 2 2 2 2 2 2 1 2 2 2 2 2 8 9 9 9 9 9 9 10 9 10 10 11 11 10 10 10 10 8 9 8 5 4 3 3 2 1 1 1 4 4 4 5 3 5 4 3 3 2 3 4 3 4 4 4 6 7 7 7 8 7 8 8 8 8 8 7 7 7 7 7 7 6 3 3 1 1 1 1 1 1 1 1 1 1 1 1 1 2 2 2 2 2 2 2 2 1 2 2 2 2 2 1 8 9 9 9 9 9 9 9 9 10 10 10 11 10 10 10 9 8 7 6 4 5 5 7 6 5 2 1 2 3 3 4 1 4 4 6 6 6 6 6 5 3 3 3 3 5 5 7 7 7 8 8 8 8 7 7 7 7 7 7 7 4 3 2 1 1 1 1 1 1 1 1 1 1 1 1 1 2 2 2 2 2 2 2 2 1 2 2 2 2 2 1 6 8 9 9 9 9 9 9 9 9 10 10 11 10 10 9 9 8 7 9 7 7 7 8 7 7 6 5 4 3 3 3 3 5 7 8 7 7 7 7 6 6 6 5 3 4 5 7 7 8 8 8 8 8 7 7 7 7 7 7 7 3 2 2 1 1 1 1 1 1 1 1 1 1 1 1 1 2 2 2 2 2 2 2 2 2 2 2 2 2 2 1 2 9 9 9 9 9 9 9 9 9 10 10 10 10 9 9 9 7 8 10 9 8 7 8 8 8 7 7 7 7 6 7 7 7 8 8 7 7 6 6 6 6 6 7 6 5 7 7 7 7 8 8 8 7 7 7 7 7 7 7 6 2 1 1 1 1 1 1 1 1 1 1 1 1 1 1 1 2 2 2 2 2 2 2 2 2 2 2 2 2 2 2 0 7 9 9 9 9 9 9 9 9 9 10 10 10 9 9 8 7 10 10 9 8 7 8 7 8 7 8 8 7 7 8 8 8 8 8 7 6 6 6 6 5 6 8 7 7 7 7 7 7 8 8 8 7 7 7 7 7 7 7 4 1 1 1 1 1 1 1 1 1 1 1 1 1 1 1 1 2 2 2 2 2 2 2 2 2 2 2 2 2 2 1 1 3 9 9 9 9 9 10 9 9 9 10 10 10 9 8 8 9 10 10 10 9 7 7 7 7 7 7 7 6 7 7 7 7 7 6 5 6 6 5 5 6 7 8 8 7 7 7 7 7 8 7 7 7 7 8 7 7 7 7 2 1 1 1 1 1 1 1 1 1 1 1 1 1 1 1 1 2 2 2 2 2 2 2 2 2 2 2 2 2 2 1 2 1 7 9 9 8 9 9 9 9 9 9 10 10 9 8 8 9 10 10 10 10 8 7 6 7 6 6 6 5 6 7 6 6 5 5 5 5 5 5 5 7 8 8 8 7 7 7 7 7 8 7 7 7 7 7 7 7 7 5 1 1 1 1 1 1 1 1 1 1 1 1 1 1 1 1 1 2 2 2 2 2 2 2 2 2 2 2 2 2 2 2 2 2 2 8 9 8 9 9 9 9 9 9 9 9 9 8 8 9 9 9 9 9 9 8 7 6 5 5 5 5 6 6 4 5 4 4 4 5 6 5 7 7 7 7 7 7 7 7 7 7 7 7 7 7 7 7 7 7 7 2 1 1 1 1 1 1 1 1 1 1 1 1 1 1 1 1 1 2 2 2 2 2 2 2 2 1 2 2 2 2 1 2 1 2 1 5 9 8 9 9 9 10 9 9 9 9 8 8 8 9 9 8 9 9 9 8 8 6 5 4 4 3 4 3 3 3 3 3 4 5 5 6 7 7 7 7 7 8 7 7 7 7 7 7 7 7 7 7 7 7 6 0 1 1 1 1 1 1 1 1 1 1 1 1 1 1 1 1 1 2 2 2 2 2 2 2 2 2 2 2 2 2 2 1 2 2 2 0 7 8 8 9 9 9 9 9 9 8 8 8 9 8 8 8 8 8 9 8 8 7 5 4 3 3 3 3 3 3 3 4 4 4 5 6 6 6 7 7 7 7 7 7 7 6 7 7 7 7 7 7 7 7 6 0 1 1 1 1 1 1 1 1 1 1 1 1 1 1 1 1 1 2 2 2 2 2 2 2 2 2 2 2 2 2 1 2 1 2 2 2 2 8 8 8 9 9 9 8 8 9 8 8 9 9 8 8 8 8 8 8 7 6 5 3 3 3 3 4 4 4 4 4 5 5 6 6 6 7 7 7 7 6 7 7 7 6 6 7 7 7 7 7 7 7 6 0 1 1 1 1 1 1 1 1 1 1 1 1 1 1 1 1 1 2 2 2 2 2 2 2 2 2 2 2 2 2 1 2 2 2 2 2 0 7 8 8 9 9 9 8 9 9 8 8 8 8 8 8 8 8 7 8 7 6 5 5 4 4 4 5 4 5 5 6 6 6 6 6 6 6 6 7 7 7 6 6 6 6 7 7 7 7 7 7 7 7 5 0 1 1 1 1 1 1 1 1 1 1 1 1 1 1 1 2 1 2 2 2 2 2 2 2 2 2 2 2 2 2 2 2 2 2 2 2 1 6 7 8 9 9 8 8 9 9 9 8 8 9 8 8 8 7 7 8 7 7 7 6 6 6 6 6 6 7 7 8 7 7 7 6 6 6 6 7 6 6 6 6 7 6 6 7 7 7 7 7 7 7 5 1 1 1 1 1 1 1 1 1 1 1 1 1 1 1 1 1 1 2 2 2 2 2 2 2 2 2 2 2 2 2 2 1 2 2 2 2 1 4 8 7 8 8 9 8 8 9 8 9 9 9 9 8 8 8 8 7 8 8 8 8 7 7 8 8 8 8 8 8 8 8 7 6 6 6 6 6 6 6 6 7 6 6 6 7 7 7 7 7 7 8 5 0 1 1 1 1 1 1 1 1 1 1 1 1 1 1 1 1 1 2 3 2 2 2 2 2 2 2 2 2 2 2 2 2 2 2 2 2 1 3 9 7 8 8 8 9 8 8 9 9 9 9 9 9 8 8 8 8 8 8 8 9 8 9 9 9 9 9 9 8 8 8 7 7 7 7 7 7 6 6 7 7 6 7 7 7 7 7 7 7 7 8 4 0 1 2 1 1 1 1 1 1 1 1 1 1 1 1 1 1 1 2 2 2 2 2 2 2 2 2 2 2 2 2 2 2 2 2 2 2 1 2 9 8 7 8 8 8 8 8 8 9 9 9 9 9 9 9 8 8 9 9 9 9 8 9 9 9 9 9 9 8 8 8 8 8 7 7 7 7 7 7 7 7 6 6 7 7 7 7 7 7 7 7 6 3 1 1 1 1 1 1 1 1 1 1 1 1 1 1 1 1 1 2 2 2 2 2 2 2 2 2 2 2 2 2 2 2 2 2 2 2 2 2 8 8 7 7 8 8 8 8 8 9 9 9 9 9 9 9 9 9 9 9 9 9 9 9 9 9 9 9 9 8 8 8 8 8 7 8 8 7 7 7 7 7 6 6 6 7 7 6 7 7 7 7 5 7 3 1 1 1 1 1 1 1 1 1 1 1 1 1 1 1 1 2 2 2 2 2 2 2 2 2 2 2 2 2 2 2 2 2 2 2 1 4 8 8 7 7 7 8 8 8 8 9 9 9 10 9 9 9 9 9 8 9 9 9 9 9 9 9 9 9 9 8 8 8 8 7 8 7 7 7 7 7 7 6 6 6 6 7 7 7 7 7 7 7 3 5 7 3 1 1 1 1 1 1 1 1 1 1 1 1 1 1 1 2 2 2 2 2 2 2 2 2 2 2 2 2 2 1 2 2 2 1 3 8 7 8 8 7 8 7 7 8 8 8 8 9 9 9 9 9 9 9 9 9 9 10 9 9 8 9 8 8 8 7 7 7 7 7 7 7 7 7 7 7 7 6 6 6 6 6 7 7 7 7 7 7 3 3 7 7 2 1 1 1 1 1 1 1 1 1 1 1 1 1 1 2 2 2 2 2 2 2 2 2 2 2 2 2 2 2 2 2 1 3 9 4 6 7 8 7 8 7 7 7 7 8 8 9 9 9 9 9 9 9 8 9 9 9 8 8 8 8 8 8 7 7 7 7 7 7 6 7 7 7 6 6 6 6 6 6 6 6 7 7 7 7 7 7 2 3 5 9 6 1 1 2 1 1 1 1 1 1 1 1 1 1 1 2 2 2 2 2 2 2 2 2 2 2 2 2 2 2 2 2 1 10 7 3 6 8 8 7 8 8 7 7 7 8 8 8 9 8 9 9 9 8 8 8 8 8 8 7 7 7 7 7 7 7 6 6 6 6 6 7 6 7 6 6 6 6 6 6 6 7 7 7 7 7 7 7 1 2 4 8 9 5 1 1 1 1 1 1 1 1 1 1 1 1 1 2 2 2 2 2 2 2 2 2 2 2 2 2 2 2 2 1 6 10 5 4 5 8 8 8 8 8 7 7 7 7 7 7 8 8 8 9 8 8 7 8 7 7 7 6 6 6 6 6 6 6 5 5 6 6 7 6 6 6 6 6 6 6 6 6 6 6 7 7 7 7 7 7 1 1 5 6 9 8 2 1 1 1 1 1 1 1 1 1 1 1 1 2 2 2 2 2 2 2 2 2 2 2 2 2 2 2 1 2 11 7 5 4 3 8 8 8 8 8 8 7 7 7 7 7 7 7 8 8 8 7 7 7 6 7 7 6 6 6 5 5 5 5 5 5 5 6 6 6 6 6 6 6 6 6 6 6 6 6 7 7 7 7 7 7 0 1 5 4 9 9 7 1 1 1 1 1 1 1 1 1 1 1 1 2 2 2 2 2 2 2 2 2 2 2 2 2 2 2 0 9 10 7 6 4 1 9 8 8 8 8 7 8 7 7 7 6 7 6 7 7 8 7 7 7 6 6 6 5 5 5 5 4 5 4 4 4 5 5 6 6 5 6 6 6 6 6 6 6 6 6 7 7 7 7 7 5 0 0 5 5 7 10 10 4 0 2 1 1 1 1 1 1 1 1 1 2 2 2 2 2 2 2 2 2 2 2 2 2 2 1 5 12 8 6 7 2 1 9 8 8 8 8 7 8 7 7 7 6 6 6 6 6 7 7 6 6 6 5 5 5 4 4 4 4 4 4 4 4 5 5 5 5 5 6 6 6 6 6 6 7 7 7 7 7 7 7 7 4 0 1 4 6 5 11 10 9 1 2 2 2 1 2 1 1 1 1 1 2 2 2 2 2 2 2 2 2 2 2 2 2 1 1 11 10 9 7 5 2 1 9 9 8 8 8 7 8 8 7 7 7 7 6 6 6 6 6 6 5 6 5 5 5 4 4 4 4 4 4 5 5 5 5 5 5 5 5 6 6 6 6 6 7 7 7 7 7 7 7 7 2 1 1 4 6 6 11 11 10 6 6 7 7 7 6 5 4 3 2 2 2 2 2 2 2 2 2 2 2 2 2 2 2 1 7 12 9 8 8 4 2 0 9 8 8 8 8 8 8 8 7 7 7 7 6 6 6 6 5 5 5 5 5 5 4 5 4 5 5 4 5 4 5 4 5 5 5 5 5 6 6 6 6 7 6 7 7 7 7 7 8 6 1 1 1 5 5 8 9 12 10 9 8 8 8 8 8 8 8 8 8 7 2 2 2 2 2 2 2 2 2 2 2 2 1 4 11 10 11 7 8 2 3 0 8 9 8 8 8 8 8 8 7 7 7 7 7 6 6 6 6 5 5 5 5 5 5 5 5 5 4 5 5 5 5 5 5 5 5 6 5 6 6 6 6 6 7 7 7 7 7 7 8 4 1 1 0 6 5 10 8 12 10 10 8 8 9 8 8 8 8 8 8 9 