P2
92
112
255
29 39 35 38 37 38 33 40 38 37 40 37 44 36 35 39 31 34 36 34 28 22 32 36 34 30 30 35 27 33 26 33 37 49 60 39 60 49 44 35 32 30 28 27 30 28 33 28 22 28 26 25 25 25 28 25 25 24 30 25 25 21 30 25 24 30 27 22 38 43 31 29 40 26 35 33 28 26 33 30 30 36 30 17 29 27 39 27 36 32 27 37 33 41 37 36 35 39 37 35 40 48 38 34 40 37 34 36 36 38 36 28 37 28 40 38 31 31 31 35 32 29 34 31 35 31 48 40 59 48 42 36 28 30 26 24 23 26 22 31 23 26 26 21 24 23 24 22 29 21 29 25 25 28 28 24 28 24 31 30 30 29 30 30 39 32 31 26 30 24 28 34 28 37 40 34 37 49 49 36 34 39 33 34 35 39 39 39 36 39 36 36 44 42 39 31 41 39 35 36 34 32 33 37 31 44 43 42 34 28 30 34 36 37 42 33 35 38 36 34 46 45 41 38 30 31 30 30 26 27 25 28 25 25 28 22 29 27 27 27 29 26 32 25 31 30 26 32 33 32 40 37 52 32 27 31 31 43 35 24 23 24 29 26 32 37 41 42 47 55 42 31 35 34 35 34 35 39 39 35 41 36 38 47 44 39 31 37 37 34 32 30 41 39 41 38 46 41 45 34 30 25 34 38 37 42 39 43 40 40 35 38 33 37 33 30 33 26 34 29 27 29 28 34 28 30 29 29 35 24 31 34 32 28 35 31 30 35 30 38 42 45 45 51 57 46 27 29 25 43 39 26 26 24 25 28 24 33 37 49 45 49 41 37 36 33 36 26 38 39 35 39 38 40 38 51 40 33 32 41 38 33 30 38 41 38 43 43 50 36 30 29 30 32 43 34 45 48 54 54 45 48 47 44 38 37 40 35 31 29 28 35 28 32 31 37 34 35 36 34 35 29 34 34 33 33 32 34 37 36 36 40 51 48 46 53 44 38 35 38 30 29 39 34 30 26 29 27 31 31 36 39 40 38 37 35 36 45 41 26 38 36 44 35 42 38 48 46 26 34 31 39 32 33 34 32 36 37 37 48 37 26 32 39 33 47 39 50 50 56 66 61 58 62 53 54 55 54 69 64 48 35 34 41 34 37 30 38 35 35 37 39 39 30 36 37 36 40 42 38 43 36 42 50 65 58 49 45 39 44 43 43 40 32 28 34 35 35 33 32 30 37 42 47 35 36 30 29 29 32 33 32 36 36 40 38 44 39 48 35 26 37 35 29 29 30 26 30 35 37 46 45 28 31 44 48 41 50 46 62 54 52 54 60 57 67 57 68 74 79 88 90 86 72 51 50 43 44 39 45 40 44 46 41 47 39 42 45 56 46 46 47 41 46 48 62 73 51 55 50 59 63 68 64 53 37 32 27 32 38 43 43 46 57 68 59 45 35 25 27 26 25 21 34 38 39 38 48 48 37 42 34 32 31 25 30 27 27 32 38 35 48 56 45 31 31 66 44 45 52 59 64 41 36 61 62 58 77 71 83 92 101 104 111 108 103 88 77 55 58 51 47 42 53 45 49 48 54 62 56 62 53 51 56 53 58 64 71 64 68 68 72 81 81 77 80 72 53 37 32 34 33 53 47 55 79 72 66 69 47 25 28 24 22 22 29 37 40 48 60 38 44 58 37 35 28 29 23 33 32 37 46 56 59 70 53 36 51 66 45 46 53 63 55 35 53 58 69 76 82 92 94 108 107 114 117 116 114 112 102 99 83 76 72 62 64 53 59 58 65 67 69 67 68 66 64 74 65 69 75 77 83 86 83 86 83 88 83 88 69 64 48 47 44 50 52 66 83 83 86 77 48 30 29 25 23 27 29 40 33 62 53 40 42 62 49 39 26 28 30 38 38 58 61 59 85 80 65 51 68 71 37 57 54 72 45 48 62 73 82 92 97 103 108 113 113 115 119 116 118 112 115 116 110 110 102 97 92 95 81 82 79 84 84 84 79 83 79 84 89 84 87 86 89 92 89 91 92 94 92 91 82 81 73 58 55 60 62 74 82 84 71 58 44 27 24 29 29 26 25 31 44 67 39 46 36 68 74 49 45 34 37 41 49 70 70 70 107 88 63 63 64 75 42 58 60 67 48 64 81 92 99 106 112 111 116 120 119 121 117 125 120 121 122 120 120 120 116 113 115 110 105 101 105 103 97 101 99 96 94 95 99 94 92 92 95 93 94 94 95 89 97 90 92 88 86 71 70 71 77 85 92 83 76 46 39 32 27 22 29 25 29 44 58 67 42 52 29 88 96 59 41 46 40 47 52 64 66 83 87 78 60 71 56 63 42 55 55 60 73 97 106 113 115 115 119 121 121 122 123 121 122 122 123 123 120 121 120 120 118 118 119 114 112 108 112 110 106 108 106 104 105 97 101 99 98 96 97 95 97 94 98 91 93 94 92 91 91 88 81 75 84 86 93 88 93 69 45 41 28 32 30 27 27 74 63 90 53 68 27 91 93 72 45 40 51 57 57 53 47 58 52 58 65 69 53 60 54 61 87 97 113 126 123 124 120 123 121 124 121 122 122 124 121 121 126 118 120 119 118 120 122 119 115 117 113 112 114 108 111 114 112 112 105 103 104 101 97 103 100 102 95 96 101 94 91 96 94 93 96 93 96 90 89 89 93 98 111 84 47 39 34 27 39 31 30 95 65 104 67 66 38 72 76 79 57 44 70 81 79 77 87 71 65 60 73 70 74 95 108 113 125 129 129 136 126 127 123 122 124 122 124 125 125 126 119 124 124 121 125 119 119 123 119 123 121 113 117 115 114 110 113 113 115 115 107 110 105 104 101 104 101 102 97 97 104 94 96 92 97 92 100 94 96 92 99 99 100 106 107 95 60 52 39 28 25 33 37 83 103 103 79 50 73 54 51 73 58 57 88 100 103 104 121 105 108 104 86 96 120 134 135 133 136 136 138 134 129 129 126 129 123 125 129 124 130 124 128 127 125 124 126 125 116 122 123 121 123 119 116 117 114 115 119 111 114 116 108 111 108 106 105 103 106 99 100 103 101 99 100 101 98 104 99 102 89 96 96 102 105 106 107 105 80 66 53 36 33 28 38 103 122 111 101 26 70 54 51 41 71 86 116 123 109 117 116 117 122 124 119 124 144 141 148 149 142 140 132 136 131 131 131 130 128 129 128 128 130 128 133 129 126 129 126 125 124 122 125 119 122 122 116 121 113 123 124 109 114 116 109 113 110 107 107 104 105 104 104 101 105 100 102 105 104 104 105 105 100 94 99 102 103 110 110 116 99 65 67 58 36 26 36 109 114 108 100 30 34 50 60 40 83 107 139 126 123 118 125 129 145 155 147 146 148 147 153 158 150 145 135 137 134 130 131 132 133 131 133 126 131 131 137 132 136 128 130 127 125 124 134 120 118 119 122 124 121 120 120 116 113 115 113 112 113 110 112 108 109 103 108 105 103 102 104 105 108 102 111 97 103 98 106 100 106 113 108 116 111 69 77 81 49 26 42 117 87 93 84 33 40 58 61 52 111 129 126 125 124 129 135 149 160 164 159 152 158 151 153 163 157 152 140 137 136 135 134 133 135 133 137 130 135 128 135 134 137 125 131 125 124 125 132 123 122 118 126 123 122 125 123 122 114 116 117 114 116 110 110 112 109 106 107 106 104 103 105 110 99 105 110 101 105 100 105 100 110 113 113 116 119 81 77 86 56 40 28 97 73 75 73 37 71 60 52 84 121 127 121 124 145 144 151 153 166 167 167 161 159 155 158 163 161 153 146 141 136 135 132 134 137 132 135 135 134 134 134 137 136 134 130 125 129 124 129 124 121 124 124 125 121 125 124 124 115 119 116 118 115 111 112 113 113 107 108 109 102 111 107 117 105 111 110 108 108 107 108 110 112 115 116 112 120 102 74 85 74 52 24 61 61 79 64 58 67 50 68 119 117 121 131 139 162 163 163 158 169 178 176 168 164 159 156 166 155 152 144 139 141 138 131 131 136 133 136 136 135 141 133 137 137 134 128 131 130 133 132 123 118 129 120 122 124 125 126 123 121 121 121 117 115 114 112 112 112 109 109 111 104 111 113 120 106 112 115 114 116 111 114 117 114 130 119 120 123 114 84 79 85 63 27 49 46 88 79 66 57 62 100 111 115 128 152 155 177 165 167 167 174 175 173 176 174 161 163 163 153 146 145 142 139 137 133 130 134 135 139 134 136 139 134 137 137 134 130 132 132 132 132 125 122 127 120 117 130 124 121 125 125 119 126 117 120 115 115 111 115 112 115 110 112 113 119 115 108 113 116 125 118 116 116 111 120 129 125 133 123 117 92 81 80 73 38 42 43 105 77 67 77 94 94 91 112 139 157 170 177 169 170 171 173 172 173 175 175 173 162 160 147 146 146 142 141 137 134 135 129 136 136 131 140 133 136 142 138 135 132 139 135 126 134 126 125 128 120 122 133 125 124 124 125 121 122 120 121 120 118 114 122 110 116 115 112 113 117 111 116 114 121 123 124 122 112 112 120 127 122 127 127 117 111 86 76 76 49 51 65 109 66 88 108 87 79 106 128 148 166 179 180 173 172 172 173 173 175 175 175 177 165 161 151 149 144 140 143 139 139 136 133 137 139 129 140 131 136 138 132 137 133 133 133 123 133 133 135 129 129 125 130 133 124 127 124 123 125 121 116 119 120 111 116 115 113 115 110 118 115 113 119 117 121 122 125 119 116 112 119 128 122 123 119 114 120 98 78 72 65 44 82 100 96 110 91 78 103 126 136 146 171 184 180 173 175 178 175 177 178 177 172 181 167 161 154 148 148 140 142 139 133 137 132 140 138 138 136 136 136 140 130 133 130 135 129 129 132 140 136 129 131 126 133 134 128 129 130 120 129 119 115 117 117 116 113 114 114 110 110 117 113 115 117 118 126 122 112 117 118 116 118 125 127 127 119 115 121 114 85 72 72 68 109 119 97 108 89 85 104 131 140 158 186 185 175 180 179 181 179 183 174 168 175 186 171 162 152 153 142 144 145 137 136 138 137 135 135 136 136 138 140 136 131 132 134 133 133 129 139 137 134 131 137 129 133 130 129 128 127 125 125 122 120 117 116 116 117 114 115 113 111 113 114 117 122 126 135 114 115 120 121 118 119 124 126 125 125 115 130 123 92 80 67 90 127 92 98 102 73 88 111 137 151 179 195 189 189 189 181 185 184 175 180 166 173 181 178 165 153 160 143 141 146 139 141 141 139 139 136 137 136 141 133 134 133 138 138 136 135 126 140 132 136 126 137 137 132 129 130 129 131 127 127 121 122 121 113 121 118 116 114 115 114 113 112 117 126 125 127 116 111 125 122 118 123 126 130 123 124 126 132 138 98 83 68 115 100 84 92 83 82 104 105 136 164 181 196 195 194 195 189 193 184 176 180 175 175 184 180 173 161 165 145 146 144 144 141 142 144 145 140 144 140 140 134 135 136 137 135 132 138 130 137 133 134 131 133 137 134 128 128 132 130 132 123 123 118 123 116 121 118 117 112 112 111 114 111 120 121 124 124 115 115 126 127 123 124 131 132 127 127 128 138 139 115 84 68 114 96 90 86 91 93 89 94 139 187 189 192 199 199 199 197 191 193 185 183 179 181 182 181 181 170 169 154 147 148 144 142 142 144 148 144 146 141 146 133 140 144 139 140 137 133 133 134 132 135 133 132 135 136 128 130 131 129 131 129 124 127 123 119 122 120 114 113 115 115 116 117 119 122 126 121 117 119 126 127 126 132 142 134 130 131 132 145 152 122 94 74 99 95 94 94 102 82 86 94 147 194 200 192 200 203 200 198 201 190 186 185 180 183 182 181 180 173 171 160 149 147 146 146 144 141 149 149 150 146 146 143 144 146 147 142 142 132 120 125 131 132 132 134 138 136 128 134 136 128 131 129 124 127 124 120 125 117 121 115 119 118 120 116 123 124 128 126 120 129 126 136 132 133 142 140 133 130 139 146 155 132 104 78 92 77 91 90 79 77 83 105 169 198 202 194 200 204 203 195 202 191 181 183 179 181 180 179 167 166 167 158 152 146 146 146 144 140 147 150 150 158 147 146 144 149 150 143 149 130 114 107 128 129 131 138 137 137 127 138 136 134 133 128 121 126 126 127 124 119 122 118 123 119 120 118 122 127 127 127 127 132 129 142 140 138 142 141 139 138 144 149 163 133 107 91 81 66 88 65 65 91 76 104 190 199 198 200 199 203 211 189 200 195 186 182 179 173 174 161 151 153 153 150 146 146 142 144 142 145 144 148 144 151 153 148 141 142 147 140 149 128 108 109 127 132 130 138 135 139 131 132 140 133 141 127 125 129 124 130 126 121 122 122 121 118 126 124 130 130 131 131 135 133 141 147 150 138 143 145 139 143 144 155 168 140 103 93 73 69 84 62 82 77 79 111 196 200 200 200 199 201 208 200 184 199 186 177 162 150 152 148 142 138 135 129 128 126 127 125 127 126 123 133 133 134 146 147 136 139 140 148 139 137 120 124 132 137 137 144 133 131 140 138 132 138 138 129 128 130 131 131 127 120 123 123 122 126 129 128 131 131 135 139 138 139 144 139 149 143 148 150 140 139 145 156 168 145 96 78 76 83 72 68 82 87 72 129 196 197 198 197 203 208 197 198 189 192 179 163 149 132 131 131 133 122 115 115 103 96 104 89 95 104 95 99 109 105 121 136 133 140 138 139 139 136 136 129 134 137 139 143 138 130 142 138 131 137 140 129 132 128 133 134 124 127 119 129 127 127 129 129 124 125 138 137 135 141 136 142 147 143 149 152 144 142 144 158 163 140 104 73 78 84 62 71 86 82 74 137 196 192 201 196 202 208 182 198 181 182 163 146 151 132 128 126 124 127 116 108 102 94 90 83 84 82 78 79 95 99 93 120 121 128 134 130 129 137 135 129 133 137 139 138 139 132 134 137 132 133 137 123 133 122 131 121 126 127 125 122 118 118 121 117 111 115 122 124 121 128 127 135 142 150 165 148 155 154 151 157 168 149 107 75 68 79 64 78 67 83 79 141 196 194 200 198 200 200 197 193 177 174 188 169 161 147 149 137 140 135 126 117 115 108 107 99 90 79 80 82 96 98 97 100 107 113 128 127 126 130 129 133 135 137 132 136 136 132 131 135 133 129 131 120 122 121 121 118 119 108 106 101 106 93 97 97 88 99 97 104 109 124 124 128 139 147 154 161 160 169 163 156 166 152 93 59 63 70 66 55 65 95 76 142 192 194 201 200 198 197 201 193 191 175 184 174 168 152 144 133 126 119 120 110 107 147 172 121 97 78 90 88 105 108 107 100 104 104 123 126 128 126 129 134 130 132 131 134 132 127 129 131 129 128 125 119 114 113 114 112 92 95 87 93 85 82 80 75 88 85 92 97 101 107 115 120 124 132 150 154 164 172 170 165 160 157 93 59 52 69 58 41 61 93 67 142 194 196 199 199 200 199 197 184 192 177 166 135 116 105 110 107 107 105 109 100 86 116 165 132 99 74 70 71 118 107 103 89 92 90 98 104 102 123 125 119 127 119 134 130 126 123 124 125 125 126 121 118 110 105 112 97 88 90 86 79 80 79 85 91 98 99 104 113 110 106 109 114 116 121 139 144 166 169 183 168 153 156 99 55 41 70 55 34 53 56 59 130 200 197 198 200 203 200 193 188 151 123 124 131 148 160 164 161 159 151 148 140 133 185 230 229 210 119 109 101 106 108 109 106 100 84 66 64 40 103 104 83 120 76 133 84 127 73 122 88 117 103 107 102 93 97 97 93 93 86 90 85 85 86 98 107 101 113 119 125 122 131 122 120 116 118 128 144 160 179 178 164 155 162 99 62 32 70 75 30 46 46 21 100 205 201 201 200 205 207 167 112 131 161 174 160 173 184 173 176 167 153 144 142 103 184 230 221 230 123 110 106 102 104 108 115 119 120 121 80 52 119 114 108 115 104 110 87 107 72 113 73 99 76 93 94 49 32 54 63 72 68 74 78 77 65 66 73 71 75 85 91 105 121 127 138 145 148 144 139 153 174 182 149 154 152 103 59 15 113 136 40 31 33 42 44 197 205 204 198 218 156 98 165 179 167 165 149 164 177 170 159 145 137 133 123 113 134 231 223 228 119 104 87 88 82 89 94 102 115 114 115 83 67 117 102 106 108 105 96 99 101 100 112 114 112 114 116 80 61 98 106 101 98 94 92 95 92 95 94 96 95 98 99 103 104 95 96 93 114 129 147 159 179 176 150 156 152 103 50 23 174 155 118 26 36 32 15 134 192 185 208 149 98 192 173 163 169 149 133 151 163 165 151 134 113 105 106 87 96 135 189 169 125 84 72 64 71 67 73 80 101 110 111 109 80 68 128 118 116 113 105 98 101 94 110 105 100 109 97 93 115 126 126 116 104 104 94 99 98 96 95 103 102 106 108 122 139 150 155 154 139 111 102 95 133 173 163 160 162 95 45 20 182 139 117 113 57 29 83 165 158 120 119 82 148 158 137 140 128 117 122 139 145 133 121 113 106 102 106 99 98 118 133 134 93 69 62 65 65 69 72 70 86 107 115 112 125 59 131 152 150 146 136 118 129 124 126 114 119 88 96 111 102 91 99 106 110 100 95 95 97 88 89 87 98 95 103 113 137 146 156 161 171 154 148 140 110 90 132 171 168 93 49 24 166 143 63 157 181 70 125 184 123 15 39 134 142 118 114 114 86 93 107 115 112 109 131 128 118 100 103 98 103 105 101 104 88 72 58 54 58 70 69 73 73 89 105 121 134 99 126 143 168 161 141 122 142 146 144 137 106 92 112 112 93 51 146 202 126 93 79 79 72 75 71 76 79 85 93 105 131 144 139 153 175 171 157 159 155 74 80 106 177 105 46 6 154 165 61 154 219 94 161 194 164 100 65 201 194 152 126 120 113 111 108 109 105 114 128 121 95 87 81 73 76 78 78 82 78 71 64 55 50 58 66 70 75 75 91 114 135 144 180 169 221 230 179 80 90 107 106 110 103 106 114 121 85 108 236 222 205 65 85 78 75 76 70 80 72 78 81 98 121 132 125 138 156 169 178 157 166 65 53 96 110 108 56 8 95 188 82 167 228 96 178 178 202 200 110 210 199 163 141 133 134 135 119 128 115 110 98 89 76 74 50 45 46 43 51 55 60 59 59 53 55 53 61 74 83 79 94 110 130 152 96 129 165 214 130 100 111 118 106 107 102 103 108 105 82 103 207 215 164 74 85 91 79 77 75 79 78 79 74 91 110 111 105 117 127 150 184 164 169 67 36 79 111 65 67 36 41 199 116 193 235 135 174 172 203 148 138 209 196 151 144 131 135 135 125 140 123 109 70 85 119 107 41 44 41 39 50 55 70 71 49 48 49 60 60 88 102 85 107 117 139 136 102 135 126 130 102 102 116 127 114 102 106 94 105 95 77 81 117 142 108 84 94 94 86 73 78 83 86 88 99 89 104 111 98 102 106 117 149 151 157 79 38 74 113 91 52 44 38 200 157 208 214 176 168 178 204 106 157 207 185 144 142 128 129 146 141 139 138 136 133 83 88 99 83 48 48 53 53 61 76 72 60 55 71 62 71 93 108 102 115 128 147 115 124 149 142 133 115 121 121 132 109 99 104 85 96 86 73 75 85 89 85 80 83 77 78 77 74 85 98 105 112 124 107 120 120 115 112 119 126 102 130 74 44 88 78 128 58 49 28 170 194 217 207 186 167 179 203 82 178 198 170 147 136 121 128 143 139 139 144 152 159 120 99 96 88 78 77 80 75 75 74 69 72 68 84 93 95 85 102 115 128 138 153 93 147 145 140 130 119 120 122 139 128 88 105 72 98 71 64 63 59 76 65 52 44 44 41 47 51 77 93 125 135 135 123 129 130 125 124 144 164 147 126 54 63 82 74 119 86 54 22 133 223 211 169 176 174 179 199 73 181 193 158 143 129 130 124 131 130 142 141 145 138 119 111 93 92 72 76 76 74 79 73 82 79 84 86 102 94 97 108 124 137 145 127 97 162 143 135 120 114 111 111 125 136 89 97 84 87 80 57 67 67 86 80 46 51 38 46 34 36 141 69 66 114 127 129 133 141 131 129 146 183 176 182 56 62 83 57 86 128 53 16 106 231 190 125 186 178 176 193 63 198 186 161 140 134 132 128 129 130 141 143 147 135 132 116 106 107 99 94 100 85 90 82 88 87 84 90 97 110 116 119 133 118 191 90 106 134 129 128 111 113 107 106 99 120 100 89 99 92 74 83 76 77 85 85 73 70 52 56 38 63 113 96 49 88 91 125 136 135 138 126 144 181 189 189 44 96 58 43 71 119 50 11 95 227 162 117 194 178 176 202 61 192 184 161 142 140 136 134 125 128 128 133 149 136 143 108 87 101 106 103 106 93 98 91 91 88 92 99 116 132 125 122 132 120 133 98 123 121 131 119 115 111 108 112 91 106 109 78 114 112 90 81 86 81 85 77 75 81 70 79 72 74 90 102 122 131 119 120 140 133 126 115 133 166 184 190 26 133 48 45 69 111 50 14 93 229 145 133 196 174 174 205 60 186 191 159 153 149 148 141 132 117 123 126 137 135 139 104 79 99 108 112 103 102 101 97 91 97 104 120 133 144 148 121 190 176 111 60 126 132 130 125 112 114 113 111 106 96 92 71 102 118 124 92 87 88 82 81 73 73 67 75 81 78 107 121 140 141 135 120 123 132 110 113 128 155 187 176 15 165 40 41 74 118 57 26 69 226 150 155 193 176 173 215 77 172 197 167 159 161 155 146 138 124 122 121 127 128 122 119 110 110 106 111 106 101 100 97 105 117 125 135 144 146 146 124 130 142 81 82 139 134 130 127 119 114 114 111 114 102 66 44 105 135 123 121 101 94 91 83 81 86 72 76 84 90 104 120 132 145 141 124 124 126 107 115 124 154 190 154 48 167 35 34 85 128 52 35 48 227 168 167 194 173 168 212 98 130 202 178 169 163 160 156 148 135 132 126 121 120 119 117 115 113 107 108 107 110 108 118 123 127 135 146 146 159 145 124 149 100 96 118 139 134 129 131 123 114 115 115 116 113 73 46 96 109 121 130 123 110 91 88 86 91 84 88 92 90 102 112 126 133 137 122 113 116 110 115 125 150 198 138 66 157 30 34 104 137 52 41 35 217 191 171 196 175 165 199 159 78 203 188 178 172 160 166 158 146 137 136 128 123 121 111 118 118 110 110 121 119 122 129 126 134 138 135 145 156 125 150 133 106 121 137 134 141 139 134 128 116 120 118 119 119 90 82 84 102 119 125 126 127 108 91 92 83 92 93 90 98 100 110 120 120 118 111 106 115 116 119 127 143 199 105 85 126 36 32 126 130 54 40 22 190 204 174 194 179 161 187 223 71 158 203 185 174 174 177 158 153 139 133 127 127 126 113 120 117 118 119 125 124 129 127 126 153 125 114 144 138 137 161 93 117 130 139 146 146 142 137 131 120 119 125 124 123 117 78 91 100 115 128 118 121 135 105 103 90 95 94 86 100 100 106 114 110 110 104 108 122 122 126 126 143 205 80 76 89 43 39 143 107 45 53 1 168 195 183 194 182 168 185 203 202 60 178 201 176 175 172 160 146 144 137 134 131 128 126 123 120 125 124 127 128 129 129 135 162 134 128 139 130 153 111 104 131 139 146 159 144 138 139 131 124 119 122 124 123 128 100 92 79 118 122 116 122 122 118 116 97 98 100 95 98 98 104 104 103 110 115 117 128 126 136 138 147 199 65 44 58 39 78 153 72 49 53 7 118 199 185 195 183 173 186 198 208 179 72 184 188 173 174 157 158 150 142 141 135 129 128 130 129 124 132 127 132 133 134 139 168 121 133 146 171 111 117 117 140 151 161 163 164 148 143 135 127 115 124 123 124 134 124 83 89 97 118 118 120 116 117 115 108 106 103 101 99 100 96 101 104 115 123 126 130 138 133 139 154 193 63 30 62 27 134 136 50 52 52 24 64 192 189 190 180 174 184 191 198 208 196 75 155 192 172 168 162 156 147 140 135 132 137 134 133 134 134 130 129 135 135 138 156 133 114 171 131 136 126 119 147 159 170 169 155 152 142 137 132 120 123 123 127 141 137 98 96 77 120 121 121 115 115 115 111 110 108 109 103 102 100 107 111 119 121 131 138 143 142 150 168 200 55 48 58 76 186 84 33 54 51 44 56 188 191 194 176 180 186 189 197 196 203 182 89 138 182 176 171 160 145 135 136 133 136 134 131 135 133 128 123 136 129 139 134 130 131 120 136 172 110 140 159 166 172 167 157 157 141 138 138 123 123 125 135 139 141 129 83 115 85 140 128 114 116 113 112 115 110 112 108 106 107 104 111 121 119 133 142 145 150 159 181 195 58 49 70 196 169 66 32 51 52 31 58 188 189 192 182 180 180 192 190 197 197 194 190 101 127 185 178 154 146 140 137 133 135 133 133 135 131 121 122 127 128 131 127 130 94 113 188 138 114 155 161 171 177 161 169 155 140 139 142 130 123 126 139 140 144 147 99 102 101 108 133 119 118 111 115 115 114 109 109 109 105 111 108 123 119 135 140 145 163 168 189 191 57 57 175 173 140 64 33 52 52 18 96 194 186 188 189 176 183 188 188 192 194 192 197 194 143 170 149 127 144 136 140 137 137 136 135 134 126 123 125 123 127 128 124 87 90 145 151 122 143 159 157 173 176 168 170 153 140 145 137 129 121 125 131 139 139 140 123 84 125 78 116 111 117 108 111 120 107 114 111 114 110 110 112 125 125 134 137 157 171 182 196 181 78 175 146 138 155 41 39 53 57 13 109 197 178 187 184 181 183 188 188 193 191 195 187 191 173 165 152 124 124 103 110 112 109 129 122 137 129 120 108 109 104 101 96 93 79 131 135 148 158 167 154 168 173 168 166 147 147 149 143 134 118 125 128 139 141 133 133 121 105 98 52 111 122 114 114 118 112 106 111 113 112 112 113 120 131 141 152 166 179 192 195 172 161 132 136 167 157 28 41 53 51 23 92 197 179 188 183 182 184 186 188 190 194 188 182 190 170 149 128 128 132 104 99 100 94 94 93 94 94 95 92 96 91 87 79 81 84 121 166 166 168 180 171 170 174 170 167 147 160 177 152 142 117 125 138 143 138 136 138 136 125 97 55 65 91 116 124 121 112 113 111 115 114 114 118 128 139 150 165 172 185 175 183 148 130 170 154 171 160 25 40 49 57 23 67 199 180 186 183 187 182 187 189 186 180 190 184 187 167 164 147 147 143 132 119 113 103 98 94 83 90 82 81 84 84 82 94 106 98 139 181 172 169 174 173 175 198 206 171 138 149 151 137 139 119 124 146 171 158 156 167 149 149 114 65 63 69 61 89 93 103 110 113 118 122 120 121 127 128 129 128 123 116 115 131 168 186 167 156 170 162 27 36 54 51 30 62 195 183 183 186 186 182 191 190 188 184 170 181 171 163 164 156 156 150 139 128 123 127 118 116 115 112 109 107 106 97 107 107 111 113 142 161 151 151 143 142 149 163 170 147 132 127 128 128 123 124 117 138 215 167 159 158 161 169 136 63 85 82 67 69 65 71 65 63 70 73 80 80 90 92 109 115 139 154 170 182 181 183 168 155 176 172 30 44 52 56 34 58 193 181 186 185 184 181 179 188 190 180 173 178 168 162 160 157 150 144 132 127 129 123 115 114 111 110 109 106 106 94 110 111 115 121 119 142 131 120 117 120 134 145 135 136 128 115 115 115 116 113 115 121 147 135 131 138 150 173 137 41 85 94 99 94 90 78 80 75 71 77 77 102 100 129 129 153 172 182 182 186 179 177 172 156 177 165 30 53 48 61 32 50 184 184 176 184 183 184 173 188 189 177 173 176 167 159 149 153 144 137 129 119 118 114 110 110 106 105 108 100 100 100 116 114 120 123 119 112 100 71 55 65 73 120 135 132 122 110 108 107 103 110 115 123 126 110 98 108 117 145 96 34 88 87 100 111 109 105 115 106 103 105 105 115 120 139 123 153 175 184 183 176 180 175 169 161 173 165 31 40 50 54 50 44 175 185 177 179 185 179 179 182 184 174 167 169 164 157 140 144 144 136 122 121 115 112 108 104 99 105 105 101 100 110 115 119 117 132 140 118 107 86 76 79 77 68 87 127 118 100 92 96 94 106 115 132 124 95 86 87 110 100 49 39 89 84 90 101 107 113 113 115 111 116 114 124 133 142 143 146 181 187 181 173 172 174 169 164 178 164 27 39 49 54 49 31 164 186 178 175 179 180 180 182 183 174 157 166 160 157 154 142 134 132 120 118 109 108 107 102 102 98 99 96 109 114 115 122 128 143 147 144 136 128 111 121 111 90 61 70 103 88 80 83 84 110 113 112 114 114 114 115 105 83 58 52 82 88 81 95 101 108 111 109 111 118 115 118 119 140 149 153 170 184 179 165 175 176 168 168 181 159 28 42 52 51 59 30 157 188 182 177 178 175 183 179 175 171 169 165 158 154 150 139 133 129 121 109 110 104 107 100 100 100 99 105 112 117 121 128 142 145 145 144 141 141 132 132 132 111 78 57 57 63 56 73 79 87 93 89 98 104 122 120 110 110 75 69 76 89 84 88 92 106 109 107 105 104 112 115 123 128 150 163 162 179 168 164 178 177 170 168 182 137 20 42 56 49 57 11 143 186 179 173 177 179 178 185 169 170 169 158 149 151 149 140 130 129 115 109 107 106 106 98 98 96 104 107 112 124 133 142 140 151 151 142 150 140 125 134 132 129 109 73 56 44 38 45 42 70 78 85 90 97 119 118 125 128 100 86 77 87 81 80 94 100 108 105 105 109 104 115 128 119 132 158 158 171 168 167 176 180 170 170 182 123 20 46 50 50 60 4 99 190 178 175 179 177 171 164 170 174 167 162 153 153 148 137 131 129 115 110 107 100 102 95 97 103 102 112 122 131 142 146 141 153 152 142 146 138 113 131 137 135 122 107 74 52 45 46 38 50 67 82 95 103 112 123 127 137 122 97 89 85 86 81 91 95 101 100 100 106 105 122 123 135 131 148 152 165 166 165 177 174 175 165 193 90 20 42 48 52 56 28 86 193 171 167 182 176 177 161 167 169 168 161 153 151 146 131 125 124 113 111 100 99 91 90 97 103 104 123 140 132 137 153 146 156 144 145 146 136 125 135 137 130 118 108 104 79 68 53 56 45 65 89 107 110 126 129 123 144 133 116 96 86 88 88 83 94 95 96 99 101 109 111 118 134 132 144 156 157 158 168 179 176 178 164 199 53 26 45 51 51 59 31 48 191 174 165 173 181 177 165 163 167 166 154 152 146 147 134 128 121 113 108 108 97 95 93 99 107 123 139 143 135 148 147 144 149 137 148 144 137 134 137 132 126 118 108 109 103 98 89 83 79 85 102 115 120 130 128 127 146 132 134 116 95 86 87 86 85 91 93 96 99 106 119 112 133 138 148 155 160 162 169 181 177 168 176 190 27 39 45 51 55 47 49 33 174 176 169 166 178 173 169 161 162 164 152 154 143 139 132 133 122 115 109 100 103 94 94 107 122 142 140 143 140 147 140 146 148 128 151 128 142 133 132 128 122 121 102 114 110 107 107 106 112 106 109 120 129 132 123 129 145 138 135 143 110 90 87 88 88 93 99 95 103 105 112 126 134 146 149 160 158 163 173 173 177 170 183 164 15 42 45 53 51 54 47 24 156 173 167 166 170 169 163 160 157 160 151 151 145 138 134 131 126 110 107 100 95 98 96 112 135 144 140 143 136 147 153 145 142 136 152 134 137 138 130 128 125 116 98 115 110 102 111 113 121 108 110 122 130 132 126 132 146 151 137 152 129 107 87 82 85 96 92 102 102 109 109 128 140 141 152 158 161 165 169 167 176 172 186 134 11 43 46 52 54 49 55 19 120 176 165 165 168 167 163 157 158 160 148 156 147 135 140 132 123 110 106 101 92 94 102 121 134 146 135 138 136 149 154 147 143 142 148 134 127 137 126 121 115 113 104 117 111 103 111 115 117 107 104 122 135 129 131 137 142 159 153 143 143 126 93 79 86 91 98 102 98 103 120 119 148 141 157 152 170 168 168 164 174 169 189 83 22 42 50 58 50 52 51 23 77 177 167 161 162 169 163 152 162 155 155 155 140 132 145 128 124 116 105 97 95 94 115 130 139 132 126 133 143 150 152 144 143 140 136 119 119 118 108 103 97 98 100 107 114 105 111 105 104 100 93 103 125 126 134 135 141 153 152 149 139 136 119 86 79 89 105 101 99 105 120 121 140 148 153 159 165 169 165 167 166 170 179 48 30 46 45 50 52 52 56 46 45 167 170 164 156 166 157 153 158 154 147 150 138 129 144 125 119 116 99 103 100 108 125 136 123 129 135 141 148 150 143 121 119 113 109 98 100 95 94 88 89 84 93 91 96 97 90 86 89 88 79 84 101 108 122 125 141 152 152 158 139 129 134 98 77 87 104 105 101 110 116 134 135 147 150 156 156 167 163 169 165 180 156 29 44 44 47 50 53 52 55 52 12 142 171 154 155 159 158 157 153 154 148 143 134 127 142 127 123 110 106 99 100 123 133 131 121 125 138 135 122 119 103 90 92 87 95 81 84 76 70 77 70 74 73 79 82 93 78 79 81 78 74 73 76 92 100 102 111 127 148 155 145 124 127 121 72 85 107 108 97 110 117 141 135 157 157 157 163 159 168 165 163 190 109 19 38 48 46 49 52 52 55 55 20 99 170 159 152 156 158 154 155 148 151 141 137 133 133 133 119 102 112 102 101 126 130 113 103 106 103 87 74 69 71 68 72 69 52 45 46 50 53 49 54 54 57 58 60 73 62 67 77 67 66 61 59 68 80 87 89 104 107 143 143 128 124 130 67 89 109 106 100 109 117 126 141 156 166 155 158 157 165 157 163 188 53 31 42 44 47 50 54 52 55 48 31 85 159 161 155 155 149 153 151 147 148 148 138 135 141 140 122 107 107 108 107 119 112 98 93 97 107 84 86 115 115 112 88 87 63 26 27 36 40 36 43 43 39 37 40 40 44 47 51 50 31 33 36 38 52 69 73 82 71 105 120 116 115 124 83 84 111 111 102 106 118 127 133 141 154 164 156 155 157 155 169 162 21 32 45 48 42 54 53 55 48 40 117 93 126 163 154 150 151 151 153 146 146 141 132 131 143 138 131 111 110 108 117 115 99 105 111 127 150 128 113 140 139 121 109 99 90 76 30 65 72 65 45 59 48 45 41 38 33 37 40 37 27 32 24 19 61 92 90 59 40 64 89 93 106 118 88 91 108 114 106 113 114 133 139 139 155 151 153 157 154 155 181 96 24 43 41 47 44 51 55 44 34 134 175 55 83 163 156 155 149 153 153 145 143 141 133 134 138 135 123 114 109 111 123 115 110 124 135 140 157 162 135 132 145 132 117 103 96 100 79 76 109 106 76 127 119 75 81 81 55 51 73 62 43 40 47 69 92 119 128 110 72 83 82 81 94 107 91 96 106 110 115 112 122 140 142 139 153 155 153 154 155 161 175 48 35 42 45 42 45 52 58 14 132 212 157 34 33 157 157 156 150 151 149 143 144 136 137 132 134 127 127 115 112 115 123 117 126 138 145 140 153 163 159 141 134 124 123 107 100 108 103 89 91 94 91 119 128 89 105 119 84 86 103 81 73 64 88 88 108 115 132 121 100 130 116 82 88 100 91 102 109 107 115 113 128 132 145 139 143 152 153 156 155 171 126 20 40 43 46 47 43 54 33 73 230 200 145 30 6 113 158 155 148 148 143 146 136 136 134 130 129 129 130 114 115 117 120 123 135 144 144 135 147 149 161 148 137 123 118 116 114 113 113 112 102 92 94 100 99 98 99 97 95 89 93 87 83 89 99 101 102 115 131 108 123 150 131 90 85 88 98 105 103 111 117 118 130 135 137 137 148 144 149 155 161 167 55 32 43 40 46 45 47 28 49 209 219 181 146 37 9 66 159 151 151 148 142 141 134 128 132 130 125 137 131 120 116 121 118 125 140 142 145 135 141 136 146 137 138 131 127 116 107 108 102 115 101 100 104 103 104 110 112 104 97 109 89 107 99 96 107 113 124 123 129 130 147 139 134 102 84 85 97 107 110 107 121 120 130 140 131 139 140 151 150 153 170 118 25 34 46 44 41 46 44 17 177 234 193 162 153 55 6 61 158 147 150 148 139 141 130 132 127 126 128 135 131 128 119 131 128 134 137 145 142 135 137 137 131 129 124 134 132 121 109 110 103 103 102 110 107 115 110 109 109 107 98 102 106 97 96 101 115 110 113 130 125 141 138 131 131 120 94 90 100 107 114 102 124 124 130 135 137 135 140 145 143 153 172 47 26 45 45 45 43 41 42 137 226 221 170 155 149 74 8 59 158 144 146 148 148 137 128 133 124 125 129 132 132 128 136 135 134 138 137 140 136 140 134 130 124 124 113 127 123 119 115 113 103 100 97 99 93 97 102 100 106 109 92 101 101 97 95 94 101 107 112 124 133 128 123 132 128 131 105 93 103 102 108 107 119 123 130 129 134 133 141 141 143 170 104 21 41 44 46 44 40 47 41 219 225 203 157 169 141 96 14 48 158 143 138 147 148 138 125 125 124 124 126 135 139 131 135 137 139 144 141 136 135 138 129 122 121 118 116 113 115 111 109 109 104 105 100 92 92 91 89 93 96 92 94 91 95 95 94 95 104 110 114 119 123 116 119 131 131 133 107 99 106 97 106 109 120 123 126 124 127 135 143 136 155 150 46 30 44 47 40 49 39 42 43 221 222 185 153 187 139 108 22 33 149 149 133 143 146 137 130 123 126 122 126 136 138 141 141 138 138 147 138 132 137 134 123 119 115 117 113 113 106 108 99 94 86 86 87 75 76 76 78 78 76 80 84 84 88 92 90 100 104 103 113 111 113 110 121 128 133 125 119 102 107 100 106 115 120 119 123 122 129 128 135 138 164 91 23 40 48 39 44 41 44 42 43 215 216 161 159 195 137 109 32 13 128 155 128 141 144 140 133 126 119 124 131 133 138 144 143 136 137 137 133 126 134 127 116 118 115 114 110 109 108 105 98 89 78 80 63 53 53 52 48 50 43 55 59 58 65 71 75 86 97 97 107 104 110 110 123 122 128 117 124 105 109 110 102 121 123 119 120 124 126 126 132 148 132 29 37 43 42 45 40 45 45 42 45 221 196 144 163 185 129 105 60 9 87 156 137 130 139 137 133 131 118 122 124 130 134 147 142 133 134 132 123 134 127 123 116 119 115 114 107 110 115 109 102 90 100 88 87 78 77 76 68 63 67 58 62 63 65 68 77 85 91 101 106 108 104 112 116 120 128 111 120 107 107 111 105 122 120 114 122 121 123 133 134 135 177 33 31 44 42 45 38 44 42 42 39 222 180 143 181 176 120 105 82 19 57 136 149 124 132 136 139 131 126 116 114 129 131 142 140 132 133 125 126 131 120 126 122 116 115 109 115 109 111 109 110 105 106 107 106 99 102 95 92 88 96 96 91 86 87 83 88 95 91 111 108 110 106 112 116 122 128 118 110 112 109 115 113 123 120 117 111 121 127 135 132 117 219 145 14 36 45 43 41 43 39 44 41 217 163 153 190 168 104 102 113 25 47 107 150 134 118 136 134 133 129 117 108 116 129 134 126 127 134 127 127 128 124 121 123 122 115 113 119 112 112 122 118 119 119 120 123 103 118 106 105 103 107 107 103 102 102 99 99 99 101 112 110 103 116 107 121 125 122 115 114 115 112 123 117 119 117 115 117 118 128 138 134 98 181 215 94 20 43 41 43 46 35 46 41 200 156 169 175 168 113 97 134 44 46 75 139 139 122 120 133 128 128 125 99 107 118 127 128 126 125 121 127 134 124 119 122 129 119 106 121 116 119 128 133 135 123 126 125 108 118 115 113 115 114 114 114 116 119 108 108 107 107 112 109 111 115 114 117 122 118 118 118 117 110 123 120 115 113 113 121 124 138 108 151 98 147 199 198 61 23 42 42 47 43 43 43 182 144 190 163 162 88 106 134 65 48 67 111 139 132 121 123 124 129 122 125 103 111 124 126 124 122 124 129 129 129 125 124 132 118 114 126 120 128 131 128 132 122 125 124 114 119 117 118 112 115 117 115 121 122 116 115 109 116 108 111 115 118 121 116 121 117 121 120 113 115 120 121 109 105 114 125 130 140 45 159 122 117 182 200 165 46 31 38 49 42 43 41 159 152 198 171 166 83 113 131 89 45 70 83 127 137 124 115 121 120 122 119 124 117 119 118 121 120 121 130 129 122 129 121 127 116 123 121 120 128 124 134 126 118 124 122 116 116 116 114 113 109 113 117 116 121 120 118 111 115 115 109 115 121 119 120 122 120 121 118 110 111 114 108 110 108 114 132 138 59 43 156 147 98 162 196 182 146 23 34 42 45 43 46 147 166 190 176 163 82 125 129 104 46 71 76 100 128 132 114 116 116 121 122 124 124 122 116 116 122 118 129 127 126 126 124 123 125 123 113 119 119 121 132 123 118 123 119 111 110 118 106 112 110 115 110 113 119 118 119 114 113 120 112 118 119 118 121 120 116 120 108 109 114 107 105 112 110 119 143 81 13 54 137 167 90 121 186 184 168 137 68 50 40 42 42 145 182 180 174 150 81 130 127 108 56 63 84 86 104 133 121 105 111 114 119 117 121 118 115 115 111 112 119 121 122 123 120 124 124 118 116 120 114 122 122 116 110 116 106 109 108 107 101 103 114 114 108 111 109 115 114 116 111 115 122 124 114 122 117 117 109 114 104 109 106 101 109 112 113 137 105 15 38 49 116 172 96 102 156 188 163 182 146 116 102 80 61 144 189 177 166 130 101 128 125 105 72 57 85 83 87 115 128 98 105 103 110 115 117 112 113 115 106 102 105 109 122 116 123 122 116 117 114 119 116 119 109 109 105 108 105 102 99 103 100 98 103 108 108 114 106 111 105 112 109 115 119 121 112 118 116 111 111 111 106 102 105 105 105 113 123 152 33 14 60 46 92 163 117 97 118 185 191 152 185 135 133 135 133 148 196 183 161 123 111 130 122 101 95 53 82 87 82 106 114 112 106 96 102 108 113 112 115 113 104 99 96 101 117 110 122 116 109 113 112 115 108 100 105 101 107 95 98 101 92 99 94 96 94 102 104 107 108 104 102 102 105 114 115 107 118 114 113 103 112 107 99 103 105 107 109 118 140 119 3 31 74 45 75 152 125 98 93 176 195 168 187 174 142 151 151 162 197 180 161 120 119 128 123 90 115 62 75 85 87 97 104 118 111 107 89 98 105 108 112 104 108 106 93 91 105 106 108 113 107 106 109 108 95 95 99 94 98 85 90 97 97 90 93 97 85 93 100 99 96 100 101 101 102 111 112 103 114 109 102 107 101 105 100 105 105 115 111 130 142 53 3 52 81 48 51 162 112 124 101 146 199 204 151 209 140 134 163 183 194 187 140 120 120 132 127 82 123 79 64 90 87 93 98 106 106 108 102 93 92 96 103 107 101 107 101 98 86 94 98 104 106 100 99 96 90 93 95 87 90 89 87 88 88 84 88 91 86 86 97 89 96 90 97 102 99 102 105 107 102 100 101 93 99 98 107 112 106 114 119 145 95 13 19 64 83 46 39 133 130 152 119 119 189 208 169 187 188 173 161 197 189 189 129 119 125 133 121 89 122 97 65 80 94 95 97 107 103 104 103 101 99 85 87 100 92 104 98 104 95 83 77 87 99 91 95 84 87 90 88 82 85 88 83 83 82 81 84 81 86 79 88 85 88 83 90 94 91 97 99 104 80 88 95 95 100 98 116 110 108 118 133 125 31 8 26 76 72 71 42 115 158 156 147 116 156 204 198 155 218 152 186 211 184 192 123 121 137 130 119 91 122 114 60 80 92 92 98 97 106 103 105 94 98 95 80 85 90 91 95 100 101 88 72 71 79 84 76 82 81 77 79 79 77 81 82 83 81 76 75 77 80 75 80 80 86 77 85 89 87 95 83 81 74 91 95 99 103 108 107 105 113 126 126 67 17 15 35 73 65 101 74 107 170 141 173 118 119 191 207 167 201 184 131 208 190 178 127 118 154 129 114 91 125 125 66 72 90 96 96 98 102 105 106 93 99 93 90 75 79 80 85 90 96 90 82 69 69 70 65 73 65 75 68 69 71 71 71 79 73 73 70 70 74 73 70 74 79 75 81 82 84 71 77 80 82 92 98 98 103 100 99 99 114 119 84 32 14 23 48 66 86 128 112 100 151 147 172 137 104 167 209 196 169 220 134 203 195 166 122 123 159 127 110 88 127 124 79 71 81 97 97 98 98 105 106 102 96 91 91 80 74 72 69 76 78 83 88 77 67 68 60 58 60 58 63 65 63 68 66 70 68 64 70 67 68 70 67 69 72 70 68 63 75 65 78 79 92 92 96 100 96 88 93 109 106 88 48 26 12 47 52 70 130 129 138 102 127 160 158 165 112 135 211 214 154 216 184 195 201 154 120 132 156 134 109 84 127 126 89 72 77 94 96 100 96 103 105 107 101 97 86 80 83 69 65 65 61 69 75 75 69 67 62 58 55 51 56 52 55 57 58 61 61 57 63 61 61 60 58 59 54 58 58 71 70 72 79 83 90 92 92 77 84 88 97 98 80 60 31 21 14 76 73 89 138 122 153 110 113 148 156 184 129 120 202 215 167 189 215 190 204 147 122 150 157 141 103 89 127 127 95 77 82 85 98 100 94 106 104 107 111 105 87 80 78 78 67 63 55 45 61 58 72 62 66 60 56 60 53 54 51 54 47 49 47 49 49 49 50 49 54 52 58 64 66 70 73 80 83 86 80 77 70 74 87 88 89 71 58 40 29 10 30 111 107 93 115 136 147 125 113 123 164 183 155 123 180 208 196 159 220 179 189 138 117 160 153 146 101 93 127 126 89 95 70 87 91 98 100 106 99 106 110 108 102 85 76 72 72 62 56 52 45 42 50 47 58 61 59 59 59 55 56 53 54 53 45 51 53 45 53 52 58 59 61 66 70 77 75 78 73 62 61 69 74 78 80 74 61 57 41 37 23 0 87 126 129 90 92 150 135 151 113 105 171 176 187 123 157 209 213 153 204 