P2
92
112
15
2 2 2 2 1 2 2 2 2 2 2 1 2 1 2 1 2 2 1 2 2 2 3 2 3 2 3 3 3 3 2 2 2 2 2 1 1 1 1 2 1 1 1 1 1 1 1 1 1 1 1 1 1 1 1 1 1 1 1 1 1 2 1 2 1 2 2 1 1 1 1 1 1 1 1 2 2 2 3 2 2 2 2 2 2 1 2 1 2 1 1 2 2 2 2 2 2 2 2 2 2 1 1 1 2 2 2 2 1 1 2 2 2 2 2 1 2 2 2 2 2 3 2 2 2 2 2 2 1 1 1 1 1 1 1 1 1 2 1 2 2 1 2 1 2 1 2 1 2 2 2 2 3 2 2 1 1 1 2 2 1 1 1 1 1 1 1 2 2 2 2 2 2 2 1 2 2 1 2 2 1 2 1 1 2 2 2 2 2 2 2 2 2 2 2 1 2 2 2 1 2 2 2 2 2 1 1 1 2 2 2 2 2 1 3 2 2 2 2 2 1 2 2 2 2 2 2 2 2 1 1 2 2 1 2 2 2 2 2 2 2 2 2 2 2 2 2 2 2 1 1 2 1 1 1 1 1 1 1 2 2 2 2 2 1 2 2 2 2 1 1 2 1 2 2 1 2 2 2 2 2 2 2 2 2 2 2 2 2 2 2 1 3 2 2 2 1 2 2 2 2 2 2 2 1 2 2 2 2 2 2 2 2 1 2 2 2 2 2 2 2 2 2 2 2 2 2 2 2 2 2 2 3 3 2 2 2 1 2 2 2 2 1 1 1 2 1 1 1 1 2 2 2 2 2 2 1 1 1 1 2 1 2 1 2 1 1 2 2 1 2 2 2 2 2 2 2 2 2 2 2 2 1 2 3 2 2 1 1 2 2 3 3 2 2 2 2 2 2 2 2 2 1 2 2 2 2 2 2 2 2 2 2 2 2 2 2 3 3 3 2 2 2 2 4 3 3 3 3 3 3 3 3 2 2 1 1 1 2 2 2 2 3 2 3 2 2 1 1 1 1 1 1 1 2 2 2 2 2 2 2 2 2 2 2 2 2 2 2 2 2 2 2 2 2 2 2 1 1 2 2 2 3 3 3 2 3 3 2 3 3 4 4 3 3 2 3 2 2 2 2 2 2 3 2 3 3 3 4 3 3 3 3 3 3 3 4 4 3 4 4 4 4 4 4 4 3 2 2 2 2 2 2 3 4 3 4 3 2 1 1 1 1 1 1 1 1 2 2 2 2 2 2 2 2 2 1 2 2 2 2 2 2 2 2 2 2 2 1 1 2 2 2 3 3 3 3 3 3 3 4 4 4 5 5 5 5 4 3 3 3 3 2 2 2 2 2 3 3 3 4 4 4 4 4 4 4 4 4 5 4 5 5 5 5 5 5 4 4 3 2 2 2 2 2 4 4 4 3 3 3 1 1 1 1 1 1 1 1 2 1 2 2 1 2 2 2 2 1 1 3 2 2 2 2 2 2 2 2 1 2 2 2 2 3 4 2 2 3 3 4 4 4 5 5 6 6 6 6 6 5 5 5 4 4 3 4 3 3 4 4 4 4 5 5 4 5 4 5 5 5 5 5 5 5 5 5 5 5 5 4 4 4 3 3 3 3 4 4 4 3 3 2 1 1 1 1 1 1 1 1 1 1 1 2 2 2 2 2 1 1 2 2 2 2 2 2 2 2 1 2 1 3 2 3 3 4 3 1 3 3 4 4 5 5 6 6 6 7 7 7 6 6 6 6 6 6 6 6 6 6 6 5 5 5 6 6 5 5 5 6 5 5 5 5 5 6 5 5 6 5 5 5 5 4 4 4 4 4 4 5 4 4 3 2 2 1 1 1 1 1 1 1 1 2 1 1 2 2 2 2 1 2 2 2 1 2 1 1 2 2 2 2 2 4 2 3 4 4 2 2 3 4 4 5 5 6 6 7 7 7 7 7 7 7 7 7 7 7 7 6 7 6 6 6 6 6 6 6 6 6 6 6 6 6 6 6 6 5 6 5 6 5 5 5 5 5 4 4 4 5 4 5 5 5 4 3 2 2 1 2 1 1 1 1 2 2 1 2 2 2 2 2 2 2 1 1 1 2 1 2 3 3 3 2 3 5 2 4 4 4 2 4 4 5 5 6 6 7 7 7 7 7 7 7 7 7 7 7 7 7 7 7 7 6 6 7 6 6 6 6 6 6 6 6 6 6 6 6 6 6 6 6 5 5 5 5 5 5 5 5 5 5 5 5 5 5 6 4 3 3 2 1 2 1 1 1 2 1 2 2 2 2 2 2 2 2 1 1 1 2 2 3 4 4 4 4 3 5 3 4 4 3 3 4 5 6 6 7 7 7 7 7 7 7 7 7 7 7 7 7 7 7 7 7 7 7 7 7 7 6 7 7 7 6 6 6 6 6 6 6 6 6 6 6 5 5 5 5 5 5 5 6 5 5 6 5 6 5 5 5 4 3 3 2 1 2 1 2 2 2 2 2 2 2 3 3 2 2 1 1 1 2 4 4 4 6 4 4 4 4 3 3 3 3 5 6 7 7 7 7 7 7 7 7 7 7 7 7 7 7 7 7 7 7 7 7 7 7 7 7 7 7 7 7 7 7 7 6 6 6 6 6 6 6 6 6 6 5 5 6 5 6 6 5 5 5 6 6 6 6 6 6 5 3 4 3 2 2 2 2 2 2 2 2 2 2 4 5 3 3 2 2 2 3 4 4 5 5 4 4 5 3 3 3 4 6 7 8 8 8 7 7 7 7 7 7 7 7 7 7 7 7 7 7 7 7 7 7 7 7 7 7 7 7 7 7 7 7 7 6 6 6 6 6 6 6 6 6 6 6 6 6 6 6 6 5 5 5 6 6 6 6 6 6 6 4 4 4 3 2 2 2 3 2 2 2 2 2 6 6 4 3 2 3 2 3 3 3 4 3 4 4 4 4 5 6 7 8 8 8 8 8 7 7 7 8 7 7 7 7 7 7 7 7 7 7 7 7 7 7 7 7 7 7 7 7 7 7 7 7 7 7 6 7 6 6 6 6 6 6 6 6 6 6 6 6 6 6 6 6 6 6 6 6 6 6 6 5 4 4 4 2 1 3 3 3 3 2 2 3 5 6 4 4 2 3 4 4 4 4 4 4 5 4 6 7 8 8 9 9 9 8 8 8 8 8 8 8 8 8 7 7 7 7 8 7 7 7 7 7 7 7 7 7 7 7 7 7 7 7 7 7 7 7 7 7 7 7 6 6 6 6 6 6 6 6 6 6 6 6 6 6 6 6 6 6 6 6 6 6 4 4 4 3 2 3 3 3 3 2 2 5 3 4 5 4 2 4 6 5 6 7 6 6 6 6 8 9 9 9 9 9 8 9 8 8 8 8 8 8 8 8 8 8 8 8 8 8 7 7 7 7 7 7 7 7 7 7 7 7 7 7 7 7 7 7 7 7 7 7 7 6 7 6 6 6 6 6 6 6 6 6 6 6 6 6 6 6 6 6 6 6 5 4 4 4 2 2 3 2 2 2 2 4 4 2 3 4 4 6 7 7 8 7 6 7 8 8 9 9 9 9 9 9 9 9 8 8 8 8 8 8 8 8 8 8 8 8 8 7 8 8 8 8 7 7 7 7 7 7 8 7 7 7 7 7 7 7 7 7 7 7 7 7 7 7 6 7 6 6 6 6 6 6 6 6 6 6 6 6 6 6 6 6 6 5 5 4 3 2 3 3 3 2 2 2 5 3 2 3 6 7 8 8 8 7 7 8 9 9 9 9 9 10 9 9 9 9 9 8 8 8 8 8 8 8 8 8 8 8 8 8 8 7 8 8 7 7 8 7 8 8 8 8 8 7 7 7 7 7 7 7 7 7 7 7 7 6 6 7 7 6 6 6 6 6 6 6 6 6 6 6 7 6 6 6 6 6 5 4 3 3 3 3 2 2 2 2 2 3 3 3 7 8 8 8 7 8 9 10 10 10 10 10 9 10 10 9 9 9 8 9 8 8 8 8 8 8 8 8 8 8 8 8 8 8 8 8 8 7 8 7 7 8 8 7 8 7 7 8 7 8 7 7 7 7 7 7 7 7 6 7 6 6 6 6 6 6 6 6 7 6 7 7 7 6 6 6 6 6 5 5 4 3 3 3 2 2 2 3 2 3 4 4 8 8 7 8 9 9 9 10 10 10 10 10 10 10 10 10 10 9 9 9 9 8 8 8 8 8 8 8 8 8 8 8 8 8 8 8 8 7 8 8 7 8 8 7 8 8 8 8 8 8 7 7 7 8 7 7 7 7 6 7 6 6 7 7 6 7 6 6 7 7 6 7 6 6 6 6 6 6 6 5 4 3 3 3 2 2 2 3 3 5 5 6 8 8 8 9 10 10 9 10 11 11 11 10 10 10 10 10 10 9 9 9 9 8 9 8 8 8 8 8 8 9 9 9 8 9 8 8 9 8 8 8 8 8 8 8 8 8 8 8 8 8 8 7 7 8 7 7 7 7 7 7 7 6 7 7 7 6 6 6 7 7 7 6 7 6 6 6 6 6 7 6 4 4 3 4 2 2 2 3 5 4 5 8 8 8 10 10 11 10 10 11 11 11 11 11 10 10 10 10 9 9 9 9 9 8 8 8 8 8 9 8 9 9 9 9 9 9 8 8 9 9 8 8 8 8 8 8 8 8 8 8 8 7 8 7 7 8 7 7 7 7 7 6 7 6 7 7 7 6 6 7 6 7 6 7 7 7 7 6 6 7 7 6 5 4 3 3 2 2 2 5 4 4 7 8 7 9 10 11 11 11 11 11 11 11 11 12 11 10 10 9 9 9 9 9 9 8 8 8 8 8 9 8 8 9 9 9 9 9 8 8 9 9 9 8 8 8 9 8 8 8 8 8 8 8 8 7 7 7 7 7 7 7 7 7 7 6 7 7 6 6 6 7 7 7 6 7 7 7 7 7 6 7 7 7 6 4 3 3 2 2 3 5 4 7 7 7 7 10 11 11 11 11 11 11 11 11 12 12 11 11 10 9 9 9 9 9 9 9 8 8 8 9 8 8 9 9 8 8 9 9 8 9 9 9 9 9 9 8 8 8 8 9 8 8 8 8 8 7 8 7 7 7 7 7 7 7 7 7 7 7 6 7 6 7 7 7 7 7 7 7 7 7 7 7 7 7 6 5 3 3 2 3 3 4 7 7 6 8 9 10 11 11 11 11 11 11 11 12 12 12 11 11 10 10 9 9 9 9 9 8 9 8 8 9 8 8 9 9 8 8 9 8 8 8 9 8 9 8 9 9 8 8 9 9 8 8 8 8 8 7 7 7 7 7 7 7 7 7 7 7 7 7 7 7 7 7 7 7 7 7 7 7 7 7 7 7 7 7 6 6 4 3 2 3 4 7 8 6 6 8 9 10 11 11 12 11 12 11 12 12 12 12 12 11 10 10 9 9 9 9 9 8 9 8 8 8 8 8 9 8 8 8 9 8 8 9 9 8 9 8 9 9 8 9 9 8 9 8 8 8 8 7 8 8 7 7 7 7 7 7 7 7 7 7 6 7 7 7 7 7 7 7 7 7 7 7 8 7 8 7 6 6 5 3 2 3 4 7 7 6 5 7 9 11 11 11 12 12 12 12 12 12 11 12 12 12 11 10 10 9 9 9 9 9 9 9 8 9 9 9 8 9 9 8 8 8 8 8 9 8 9 9 8 9 9 8 9 8 9 9 8 8 8 7 8 7 7 7 7 7 7 7 7 7 7 7 7 7 7 7 7 7 8 8 7 7 7 7 8 8 8 8 7 6 5 3 3 3 3 5 6 5 6 8 10 11 12 11 12 12 12 12 12 12 12 12 12 12 11 10 10 9 9 9 9 9 9 9 9 9 9 9 8 9 9 9 9 9 8 8 8 8 8 8 9 9 9 9 9 8 9 8 8 8 8 8 8 7 7 7 7 7 7 7 7 7 7 7 7 7 7 7 7 7 7 7 8 8 7 7 8 8 8 8 7 6 5 3 3 3 3 5 5 4 6 8 10 11 11 12 12 12 12 12 12 12 12 12 12 12 11 11 11 9 10 9 9 9 9 9 9 9 9 9 9 9 9 9 9 9 8 7 7 8 8 9 9 9 9 9 9 9 9 9 7 8 8 8 8 7 7 7 7 7 7 7 7 7 7 7 7 7 7 7 7 8 7 8 8 8 7 8 8 8 9 9 7 6 5 4 3 3 3 5 4 5 6 8 11 12 11 12 12 12 12 12 12 12 12 12 12 12 11 11 11 10 10 9 9 9 9 9 9 9 9 9 9 9 9 9 9 9 8 7 6 8 8 9 9 8 9 9 9 9 9 9 8 8 7 8 8 7 7 8 7 7 7 7 7 7 7 7 7 7 7 8 8 8 8 8 8 8 8 8 8 8 9 9 8 6 4 4 3 3 3 4 5 5 6 8 11 12 11 12 12 12 12 13 12 12 12 12 12 11 11 11 11 10 10 9 9 9 9 9 9 9 9 9 9 9 9 9 9 9 9 7 7 8 9 8 9 8 9 9 8 9 9 9 8 8 8 8 8 7 8 7 7 7 7 7 7 8 7 7 8 7 8 8 8 8 8 8 8 8 8 8 8 8 9 9 8 7 4 3 3 3 4 5 3 5 5 9 12 12 12 12 12 12 12 12 12 12 12 12 11 11 10 10 10 10 10 9 9 9 9 9 9 9 8 9 9 8 9 9 9 9 9 8 8 9 9 9 9 9 8 9 9 9 9 9 9 8 8 8 8 8 8 7 8 7 8 8 7 7 7 8 8 7 8 8 8 8 8 8 8 8 8 8 8 8 9 9 8 6 4 3 4 4 4 3 3 4 5 9 12 12 12 12 12 12 12 12 12 12 11 10 10 10 9 9 8 8 8 8 8 8 8 7 7 7 7 8 8 8 8 8 9 8 8 8 8 8 9 9 9 9 8 9 9 8 9 8 8 8 8 8 8 8 8 8 8 7 8 7 7 7 7 7 7 7 8 7 8 8 8 9 9 8 9 9 9 8 9 9 9 6 4 2 5 3 4 3 4 4 5 10 12 12 11 12 12 12 12 12 12 11 10 9 9 9 9 8 7 7 6 6 6 5 6 6 5 6 6 6 7 7 8 8 8 7 8 8 8 8 8 8 9 9 8 9 8 8 8 8 7 8 8 7 7 8 7 7 7 7 7 7 7 6 7 7 7 6 7 7 7 8 8 8 9 9 9 10 9 9 9 8 9 7 5 3 5 4 4 4 3 4 5 9 12 12 12 12 11 11 12 12 11 10 10 9 8 8 8 8 8 7 6 6 5 5 5 5 5 5 5 5 5 5 6 6 7 7 7 7 7 8 8 8 8 8 8 8 8 8 7 7 7 7 7 7 6 6 6 5 6 5 5 5 5 5 5 5 5 6 6 7 7 7 7 8 8 8 9 9 10 9 9 8 9 7 5 3 4 5 4 3 3 4 4 9 12 12 12 12 11 11 12 11 11 11 11 10 9 7 7 7 6 6 5 5 5 3 6 10 9 4 9 7 12 12 11 11 12 10 11 11 10 8 9 9 8 9 7 8 7 8 7 7 7 5 5 6 5 5 5 5 5 4 4 4 4 4 4 4 5 5 5 6 6 7 6 7 7 8 9 9 10 9 9 9 9 7 5 3 3 5 5 3 3 4 5 9 12 11 12 12 11 11 12 11 10 10 7 7 7 7 8 8 8 8 8 8 8 9 14 13 14 11 7 7 9 8 6 5 6 6 8 9 6 9 7 9 6 7 5 7 6 6 5 5 6 3 2 3 4 4 4 5 4 4 4 4 4 4 5 4 5 5 5 4 4 5 5 5 6 7 8 9 10 9 8 9 9 8 5 3 2 5 4 3 2 4 4 8 12 12 11 11 11 11 10 8 7 9 9 11 11 11 11 10 10 9 10 9 8 10 13 13 14 12 9 8 8 7 6 6 6 4 5 7 5 7 6 6 6 5 5 5 6 5 5 5 6 5 3 5 6 6 6 6 6 5 6 6 6 6 6 6 6 6 6 7 6 7 6 6 6 6 6 7 10 9 8 8 9 8 5 4 2 5 4 2 2 4 3 7 12 12 11 12 11 8 6 9 11 11 10 11 12 12 11 10 9 9 9 7 7 8 14 13 14 11 8 8 7 7 7 7 7 6 4 4 7 7 6 6 6 6 6 6 6 6 6 6 6 6 5 7 7 7 7 7 6 5 5 5 5 5 5 5 6 6 6 7 7 8 9 8 8 8 8 6 5 7 9 9 9 8 5 3 2 5 5 2 2 3 2 4 12 12 12 12 6 7 11 12 11 10 10 10 11 12 11 9 8 8 7 7 7 6 13 13 14 13 7 6 5 6 7 7 8 7 6 4 6 9 8 7 8 7 7 7 7 8 7 6 6 7 6 7 7 7 7 7 7 6 5 6 5 5 5 5 5 5 6 6 7 8 10 9 9 8 9 8 7 5 6 9 10 9 5 3 2 5 6 3 2 2 1 1 10 12 13 6 8 11 11 11 11 10 10 10 11 11 10 8 7 7 7 6 6 6 8 13 14 9 6 5 5 5 5 7 7 7 7 7 4 9 8 6 8 7 7 8 8 8 7 6 7 7 6 7 7 6 3 5 8 6 6 6 5 6 5 5 5 5 5 5 6 7 8 8 9 8 8 8 9 7 4 5 10 9 6 3 2 5 6 6 3 2 1 2 6 13 8 6 12 11 11 11 10 9 8 9 10 9 7 6 5 6 6 6 5 5 5 8 9 7 6 4 4 5 4 5 6 7 8 8 9 12 10 10 13 12 6 6 7 6 7 6 7 7 7 7 8 7 5 14 13 10 4 5 5 5 5 5 5 5 5 6 6 6 6 6 7 7 8 8 9 8 3 4 6 10 7 2 3 5 6 8 7 2 1 9 4 3 4 8 9 9 9 8 8 7 7 8 8 6 7 8 7 7 6 6 6 6 5 6 6 5 3 3 3 4 4 4 5 6 7 8 9 8 9 8 14 14 6 5 6 5 7 6 6 7 6 7 7 5 5 14 14 11 4 4 4 4 4 4 4 5 5 6 8 7 6 6 6 6 7 7 8 9 3 4 7 6 2 8 4 4 6 10 8 7 3 10 5 1 5 9 7 7 7 6 5 5 6 6 5 6 8 8 6 5 5 3 4 4 4 4 4 4 4 3 3 3 4 4 4 5 6 9 9 7 9 5 8 9 5 7 7 7 6 6 5 6 6 6 5 4 3 7 11 7 5 5 5 4 4 5 4 5 4 5 8 8 7 7 7 7 8 7 5 7 3 3 7 2 0 10 5 3 4 6 9 4 10 9 10 9 7 11 11 11 8 7 7 6 7 6 6 6 6 5 3 7 3 2 2 3 2 3 3 4 3 3 3 3 3 5 4 5 6 9 7 9 10 9 8 8 7 8 8 7 6 6 5 5 5 5 4 4 4 5 6 5 4 5 4 4 4 5 6 6 6 6 6 8 8 8 8 8 10 10 7 7 3 4 6 5 4 6 6 4 4 4 10 4 8 9 11 7 8 11 11 12 10 8 8 8 7 7 7 5 4 5 6 9 3 2 3 1 2 3 4 5 3 2 3 3 3 6 5 6 7 9 6 9 10 9 8 7 7 7 8 7 6 6 5 4 6 4 3 4 4 4 4 3 2 5 1 2 2 5 4 5 8 8 7 7 8 8 8 8 9 11 10 9 6 3 5 6 7 6 7 3 4 2 10 7 8 11 12 5 9 10 12 12 9 8 8 8 8 8 8 6 6 4 7 7 4 2 3 2 3 3 4 5 3 3 5 4 4 5 6 6 8 8 5 9 9 8 8 7 7 7 8 7 5 6 5 5 6 4 3 3 3 5 4 3 2 2 2 2 4 13 11 2 5 6 7 7 8 8 8 7 9 11 10 10 6 3 3 6 6 7 6 3 6 1 7 9 9 12 12 5 9 10 11 11 9 8 7 9 9 8 9 8 9 7 6 6 5 4 4 4 4 4 4 4 4 4 5 6 5 5 7 7 8 7 5 9 8 8 7 7 7 6 6 6 6 6 6 5 5 4 4 4 4 5 5 3 3 3 2 2 2 9 9 2 4 5 6 8 7 8 8 7 8 10 10 10 5 2 3 6 6 6 9 5 7 2 2 11 11 12 11 4 9 10 11 11 9 8 7 8 8 9 9 9 9 8 6 6 5 5 4 4 5 4 5 4 4 5 5 5 5 7 8 6 11 5 7 7 7 8 7 7 6 7 6 4 5 5 6 6 5 4 5 5 5 5 5 5 5 4 4 4 4 5 6 7 8 7 6 7 7 7 7 6 7 8 9 10 4 2 3 7 6 5 11 5 8 2 1 10 12 12 11 4 9 10 11 11 9 8 8 8 8 9 9 9 9 9 7 6 6 6 6 5 5 5 5 5 4 5 5 6 7 8 6 10 7 4 6 7 7 7 7 7 6 7 6 4 5 4 5 6 7 6 5 5 5 5 4 4 4 4 4 5 5 6 7 8 8 8 7 6 7 7 6 6 7 8 9 10 3 2 3 6 7 5 11 6 7 3 1 7 14 12 11 4 8 10 11 10 9 9 9 8 8 8 8 9 9 9 7 5 6 7 6 6 5 5 5 5 5 5 6 8 8 8 6 11 8 2 5 8 8 8 7 7 7 7 7 4 9 1 5 8 7 7 6 5 5 5 4 5 4 4 4 5 5 6 7 7 8 8 7 7 6 6 6 6 7 8 9 11 3 2 3 7 8 10 12 6 8 2 1 6 14 11 12 5 8 10 11 10 10 9 9 8 8 7 7 8 8 9 6 4 6 6 6 6 6 6 5 6 6 7 9 9 9 8 7 8 5 3 6 9 8 8 7 7 7 7 7 6 5 3 5 6 6 7 7 7 6 5 5 5 5 5 5 5 5 5 6 6 7 6 6 5 6 6 6 6 7 8 9 11 3 2 4 7 8 8 12 9 9 3 1 5 13 10 12 6 6 11 11 10 11 10 9 9 8 8 7 7 8 7 7 6 6 6 6 6 6 6 6 7 8 9 9 9 9 7 8 7 6 5 8 9 9 8 7 7 7 7 7 7 6 4 5 5 6 7 7 7 7 6 5 5 5 5 5 5 5 5 6 6 6 5 6 6 6 7 7 7 7 7 9 10 2 1 5 7 7 6 11 12 6 2 2 5 13 10 11 8 4 11 11 11 11 10 10 10 9 8 8 7 7 7 7 7 7 7 6 6 7 7 7 8 8 9 9 9 8 7 9 6 7 7 9 9 9 8 8 7 7 7 7 7 7 4 5 5 6 7 7 7 6 7 6 6 5 5 5 5 5 5 5 6 6 5 6 6 6 7 7 7 8 8 9 10 2 1 6 8 6 5 9 12 2 3 2 3 14 11 11 10 3 10 11 11 11 11 11 10 10 9 8 8 8 7 7 7 7 7 7 7 7 8 7 8 9 9 8 9 8 9 7 6 7 8 9 9 9 8 8 7 7 7 7 7 7 6 4 6 5 7 7 6 7 7 6 6 6 6 6 6 6 6 6 5 6 6 6 7 7 7 7 8 8 8 10 9 2 4 7 9 6 3 8 11 1 3 3 1 12 12 11 11 8 5 12 12 11 11 11 11 10 9 9 8 8 8 7 7 7 7 7 7 7 8 8 7 10 8 7 8 9 8 6 6 8 9 10 9 9 9 8 8 7 7 7 7 7 7 5 5 5 6 7 7 7 6 6 6 6 6 6 6 6 6 6 6 6 6 6 7 7 7 7 8 8 8 11 9 1 9 6 10 5 2 9 10 0 3 2 0 8 12 11 10 11 6 7 12 12 11 11 11 10 9 9 8 8 8 7 7 7 7 7 7 7 8 8 8 10 9 8 9 9 5 6 7 9 10 10 10 10 9 8 8 7 7 7 7 7 8 7 5 6 4 7 7 7 6 7 6 6 6 6 6 6 6 6 6 6 6 7 7 7 8 7 8 8 9 11 8 7 9 6 10 5 3 11 8 0 2 3 0 6 12 11 10 10 12 7 7 12 12 11 11 11 10 9 9 8 8 8 8 8 8 8 8 7 8 8 7 10 8 8 10 6 8 7 8 10 10 11 11 10 9 9 8 7 7 7 7 8 8 7 7 5 5 5 7 7 6 6 7 7 6 7 7 6 7 6 6 6 6 7 7 7 8 7 8 9 10 11 10 9 6 8 10 6 4 12 5 0 3 3 1 6 12 11 10 10 11 12 9 6 11 12 11 11 10 9 8 9 8 8 8 8 8 8 8 7 8 8 8 8 8 8 5 8 8 7 9 10 11 12 11 11 9 8 9 8 7 7 7 8 8 8 7 6 5 4 5 7 7 7 7 7 7 7 6 6 7 7 6 6 7 6 7 7 7 7 8 10 10 12 9 7 9 9 9 6 8 11 3 1 3 3 0 7 12 11 10 10 10 11 12 11 6 12 11 11 10 9 9 8 8 8 8 8 8 8 7 7 7 8 8 8 8 4 7 10 7 8 10 10 12 11 11 11 9 9 9 9 7 7 8 8 8 8 8 7 6 5 3 5 7 7 7 7 7 8 6 7 7 7 7 6 6 7 7 7 8 8 10 10 12 9 8 10 10 9 9 8 11 9 2 1 2 3 0 8 12 11 11 11 10 11 11 12 11 11 8 8 10 9 9 8 8 8 8 8 8 8 7 7 7 8 8 7 5 5 8 8 7 9 10 11 12 11 11 11 9 9 9 9 7 7 7 8 8 8 8 7 7 6 4 2 5 7 8 7 8 8 7 7 7 7 7 7 6 7 7 8 8 8 9 9 10 9 10 10 10 9 9 8 11 7 1 2 2 3 0 9 12 11 11 11 11 10 11 12 12 12 11 8 6 7 7 7 7 7 7 7 7 7 7 6 6 6 5 6 5 5 7 8 9 10 10 10 12 11 11 11 10 9 9 9 7 7 7 8 8 8 8 7 8 7 6 3 3 3 5 6 7 7 7 7 7 7 7 7 7 7 7 6 6 6 7 8 10 10 10 10 9 9 9 8 11 5 1 2 2 3 0 10 12 12 11 11 11 10 11 11 12 12 11 9 8 9 7 6 6 5 5 5 4 4 4 4 4 5 4 5 6 5 7 10 10 11 11 10 11 11 11 11 10 9 9 9 8 7 8 8 8 8 8 9 8 8 8 5 4 4 3 3 4 4 4 4 4 4 4 4 4 4 5 6 6 7 9 10 10 11 10 10 10 9 9 9 10 2 2 2 3 3 0 10 12 11 11 11 11 10 11 11 12 11 11 10 9 10 8 8 8 7 7 7 6 6 6 5 6 6 6 7 7 5 8 11 11 11 11 11 11 12 11 10 9 9 9 9 8 7 8 8 9 9 9 9 9 9 10 6 4 5 5 6 5 6 5 6 5 5 5 6 6 6 6 7 7 9 10 11 11 10 10 10 10 9 9 8 10 2 2 3 3 3 0 10 12 11 12 11 11 11 10 11 11 11 10 10 10 9 9 8 8 8 8 7 7 7 7 6 7 6 7 7 7 6 9 11 10 10 10 9 10 11 11 9 8 8 8 8 7 7 7 10 11 10 9 9 9 10 11 6 4 6 5 6 6 7 7 7 7 7 7 7 7 7 8 8 8 9 11 11 11 10 10 10 10 9 9 9 10 5 2 3 3 3 0 10 11 12 11 11 11 11 11 10 10 10 10 10 10 9 9 8 8 8 7 7 7 7 6 6 6 6 6 7 7 6 8 9 9 8 8 8 9 9 9 8 8 7 7 7 7 7 7 8 9 8 8 7 8 8 9 4 4 6 5 5 6 7 7 7 7 7 7 7 7 7 7 8 8 9 11 11 11 10 10 10 10 10 9 9 9 6 1 2 2 3 0 9 12 11 12 11 11 11 11 10 10 10 10 10 9 9 8 7 7 7 6 7 6 6 6 6 6 6 7 7 7 8 6 7 7 5 4 5 7 8 8 8 7 6 6 7 6 7 7 7 8 7 5 5 5 7 5 1 4 6 6 5 5 6 6 7 7 7 7 7 7 7 7 8 8 9 10 11 10 9 10 10 10 10 10 9 10 5 1 2 3 3 0 9 11 11 11 11 11 11 11 10 10 10 9 9 9 9 8 7 7 7 7 6 6 6 6 6 6 6 7 7 7 8 8 6 6 4 3 4 4 4 7 8 7 6 6 6 6 7 7 7 8 6 5 5 6 4 3 3 5 5 6 5 5 5 6 6 7 6 6 6 6 6 7 7 8 10 10 10 10 9 10 11 10 10 10 9 10 2 2 2 3 3 0 7 12 11 11 11 11 11 11 10 10 10 9 9 9 8 7 7 7 6 6 6 6 6 5 6 6 7 7 7 7 8 9 9 8 7 6 6 6 5 3 5 7 5 5 5 5 7 7 6 5 4 4 6 5 4 5 5 5 5 5 6 6 5 5 6 6 6 6 7 6 7 7 8 8 9 9 10 10 10 10 10 10 10 10 10 5 1 2 2 3 3 1 5 11 11 11 11 11 11 11 10 10 9 9 9 8 8 8 7 6 6 6 6 5 5 5 6 6 7 7 8 8 9 9 9 9 8 8 7 7 6 4 3 3 4 4 4 5 5 5 4 3 4 5 6 6 6 7 7 6 6 5 6 6 5 5 6 6 6 6 6 6 7 7 8 8 8 9 9 9 10 10 10 11 10 10 11 2 2 3 2 3 3 1 3 11 11 11 11 11 11 10 10 10 9 9 9 9 8 8 7 6 6 6 5 5 5 5 6 7 7 8 8 8 9 9 9 8 9 8 8 8 7 6 4 3 3 2 2 3 2 3 3 3 4 6 6 7 7 7 7 6 6 6 6 6 6 5 5 6 6 6 6 6 7 7 8 8 8 9 9 9 10 10 11 11 11 10 10 2 2 3 2 3 3 2 3 11 11 10 11 11 11 10 10 10 10 9 9 9 8 8 7 6 6 5 5 5 5 6 7 7 8 8 9 9 9 9 9 9 9 8 7 8 8 8 6 4 3 2 2 2 2 2 3 4 6 7 6 7 7 7 8 7 7 6 6 6 5 6 5 5 5 6 6 6 7 7 8 8 9 9 9 9 10 10 11 10 11 11 9 1 2 2 2 3 3 3 1 10 11 10 10 11 10 10 11 11 10 10 9 8 8 7 6 6 5 5 4 4 6 6 7 8 8 8 9 9 9 9 8 9 9 8 8 8 8 8 7 6 5 4 3 3 3 3 5 6 7 7 7 7 7 8 8 7 7 7 6 6 5 5 5 5 5 6 6 7 6 8 8 8 9 9 9 9 10 10 11 10 10 11 7 1 3 2 2 3 3 3 0 8 11 10 10 11 10 10 10 11 10 9 9 8 8 7 6 6 5 5 4 5 6 7 9 9 8 8 9 9 9 9 8 9 9 8 8 8 8 7 7 6 7 6 6 5 5 6 6 6 7 7 7 7 7 8 8 7 7 8 7 7 5 5 5 5 5 6 6 6 7 7 8 9 9 9 10 10 10 10 11 11 10 11 6 1 2 3 2 3 3 3 1 6 12 10 10 11 11 10 10 11 10 9 9 8 9 8 6 6 5 5 5 5 7 8 9 8 8 9 9 9 9 9 8 8 8 8 8 8 8 7 7 6 7 7 6 6 6 7 7 6 7 7 7 7 7 8 8 8 8 9 8 8 6 5 5 5 5 6 6 6 7 7 8 9 9 10 10 10 10 10 11 10 10 12 3 1 2 2 2 3 3 3 2 4 11 10 10 11 10 10 10 10 10 9 9 8 9 8 6 6 5 5 5 6 8 9 9 8 8 9 9 9 8 8 8 8 7 8 8 7 7 7 7 6 7 7 6 6 7 7 6 6 7 8 7 7 7 8 8 9 9 9 8 9 8 6 5 5 5 6 6 6 7 8 8 9 9 9 10 10 10 11 11 10 10 11 1 2 3 2 2 3 3 3 2 2 11 10 10 10 10 10 10 10 9 10 9 8 9 8 6 6 6 5 5 6 9 8 9 7 8 8 8 8 8 8 8 8 8 7 8 8 7 7 7 6 7 7 6 6 7 7 6 6 6 7 7 7 8 8 8 9 9 9 9 8 8 7 4 5 6 6 6 6 7 8 8 9 8 10 9 10 11 10 10 10 11 9 1 2 3 2 3 3 2 3 3 1 9 11 10 10 10 10 9 10 10 10 9 8 9 8 7 7 5 5 5 7 9 8 7 7 8 8 9 8 8 8 8 8 7 7 7 7 6 6 5 5 6 6 6 6 5 5 5 4 5 5 6 6 6 7 8 8 9 9 10 8 7 8 5 4 6 7 6 6 7 8 8 9 9 9 10 10 10 11 10 10 11 6 1 2 2 3 2 3 3 3 3 1 7 11 10 10 10 9 10 10 10 10 9 8 9 8 7 6 6 6 6 8 9 7 8 8 8 8 8 8 7 7 7 6 6 5 5 5 5 4 4 4 5 4 5 5 4 4 4 3 4 4 4 5 5 6 6 6 8 9 9 8 7 8 5 4 6 7 7 6 7 7 8 8 9 9 10 10 10 10 9 10 11 3 2 2 2 3 2 3 3 3 3 1 4 11 10 9 10 9 10 10 9 9 8 8 9 8 7 6 6 5 7 9 8 7 7 7 6 5 7 8 7 6 6 5 5 4 4 3 3 3 3 3 3 3 4 4 3 4 3 2 2 3 3 3 4 4 4 5 5 7 7 8 7 8 6 4 6 7 7 6 7 7 8 8 8 9 10 10 10 10 9 10 9 1 2 2 2 3 2 3 3 3 3 2 2 10 10 9 10 9 10 10 9 9 8 8 8 8 7 6 6 5 7 9 7 6 5 6 6 6 7 8 8 7 7 6 6 6 4 3 3 3 3 4 2 1 3 3 2 3 3 3 3 4 5 5 6 6 6 4 3 4 5 6 7 8 6 4 7 7 7 7 7 8 8 8 8 9 9 10 10 10 9 11 6 1 2 2 2 2 2 3 3 3 3 3 1 7 10 9 9 9 10 9 9 9 9 8 9 9 7 6 6 6 8 8 7 6 7 9 10 9 8 7 7 7 6 7 7 7 6 5 5 5 5 5 4 4 4 4 5 4 5 5 5 6 5 6 6 7 7 6 5 6 6 5 6 7 6 5 7 7 7 7 8 8 9 8 8 9 10 9 10 9 9 10 3 2 2 2 2 2 2 3 3 3 3 3 2 4 10 9 9 9 9 9 9 9 8 8 9 8 7 6 6 6 8 8 8 9 9 9 10 10 10 8 7 7 7 7 6 6 7 6 6 6 6 6 6 6 6 6 6 5 5 6 5 6 6 7 7 7 6 7 8 8 8 6 6 7 5 6 7 7 7 7 8 8 8 8 8 8 9 9 10 9 10 8 1 2 2 2 2 2 2 3 3 3 3 3 2 1 9 10 9 9 9 9 9 8 8 7 8 8 7 6 6 6 8 9 9 10 9 9 9 10 9 9 8 8 7 7 6 6 6 6 7 7 7 7 6 7 6 6 6 6 6 5 5 6 6 6 7 7 8 8 8 8 8 7 7 6 5 6 6 7 7 7 8 8 8 8 8 9 9 9 9 9 11 3 1 2 2 2 2 2 2 3 3 3 3 3 3 1 5 10 9 9 9 9 9 8 8 8 7 8 7 7 6 7 8 9 10 10 9 9 9 9 8 8 8 8 8 7 7 7 6 6 6 6 6 7 7 6 7 6 6 6 6 5 5 6 6 6 7 7 8 7 7 8 8 8 7 6 5 7 7 6 7 7 8 8 8 8 8 9 9 9 9 10 9 1 2 2 2 2 2 2 3 3 3 3 3 3 3 1 7 9 9 9 9 9 9 8 8 7 7 7 7 7 6 8 9 9 9 9 8 9 8 8 8 7 7 8 7 7 7 7 7 6 7 6 6 6 6 6 6 6 6 6 6 6 6 6 6 7 7 7 7 6 7 8 8 9 8 7 6 7 6 7 7 7 8 8 8 8 8 9 9 8 9 10 5 1 2 2 2 2 2 2 2 3 3 3 3 3 1 7 12 8 9 9 8 9 8 8 7 7 7 7 8 7 6 8 9 9 9 9 8 8 8 8 8 7 7 7 7 6 7 6 6 6 5 4 4 4 4 4 5 5 5 5 5 5 6 6 6 7 6 7 7 7 7 8 8 8 7 7 6 6 6 7 7 7 7 7 7 8 8 8 8 9 9 8 1 2 2 2 2 2 2 2 2 3 3 3 3 1 4 13 12 5 8 9 9 9 8 8 7 7 7 6 8 7 7 8 9 9 9 8 8 8 8 7 7 7 7 7 7 6 6 5 5 5 4 4 4 4 4 4 4 4 4 4 4 5 5 6 6 6 6 7 7 7 8 8 8 8 7 7 7 6 7 6 7 7 7 7 8 8 8 8 8 9 10 4 1 2 2 2 2 2 2 2 2 3 3 3 2 2 12 13 11 4 5 9 9 9 8 8 8 7 7 7 7 7 7 9 9 9 9 8 8 8 7 7 7 7 7 7 7 6 6 5 5 5 5 5 5 5 5 4 4 5 4 4 5 5 5 6 6 7 7 7 7 7 8 7 8 8 8 7 8 6 7 7 7 6 7 7 7 7 7 8 8 9 7 2 1 2 2 2 2 2 2 2 2 3 3 3 1 9 14 12 10 6 2 9 9 9 9 8 7 7 7 7 7 8 8 9 9 9 9 8 8 8 7 7 7 7 7 7 7 6 6 6 6 5 5 5 5 5 5 5 5 5 5 5 5 5 6 6 6 7 7 7 6 7 7 7 8 7 8 7 8 7 7 7 6 6 7 7 7 8 8 8 8 10 4 1 2 2 2 2 2 2 2 2 2 3 3 1 6 13 14 11 9 8 1 7 9 9 9 8 7 7 7 7 7 8 8 9 9 9 8 7 8 7 7 7 7 7 7 7 7 7 6 6 6 6 6 6 5 5 5 5 5 6 5 6 6 6 6 6 6 7 6 7 6 7 7 7 8 7 7 7 7 7 7 7 6 6 7 7 7 8 8 8 8 10 2 2 2 2 2 2 2 2 2 2 2 3 2 4 12 14 13 10 10 8 1 6 9 9 8 8 8 7 7 7 8 8 8 9 9 8 8 8 7 7 7 7 7 7 7 7 7 7 7 7 7 7 7 6 6 6 6 6 6 6 6 6 6 6 6 6 6 7 6 6 6 6 7 7 7 7 7 7 8 7 7 7 6 7 7 7 7 8 8 9 7 5 10 2 1 2 2 2 2 2 2 2 2 2 3 11 13 13 11 10 11 9 2 5 9 8 8 8 8 7 7 7 7 8 9 9 9 8 8 8 8 7 8 7 8 7 7 7 7 7 8 8 7 7 7 6 7 7 6 6 6 6 7 6 6 6 7 6 6 6 7 6 7 6 7 7 7 7 8 7 8 7 7 6 6 7 7 7 7 8 8 9 4 2 9 10 1 2 2 2 3 2 2 2 2 2 10 13 13 13 10 10 12 9 3 2 10 8 8 8 8 7 8 7 7 8 9 8 8 8 8 8 8 7 7 8 8 7 7 8 7 8 8 8 8 7 7 7 7 6 6 7 6 7 7 7 7 7 7 6 6 6 6 7 7 6 7 7 7 7 7 8 8 7 7 6 7 7 7 7 8 8 9 6 1 1 6 11 8 1 2 2 2 2 2 2 2 9 12 13 13 12 9 9 11 8 5 0 8 8 7 8 8 8 8 7 7 8 8 8 8 7 7 7 8 8 8 7 8 7 7 8 7 8 8 8 7 7 7 6 6 7 6 7 6 7 6 7 7 7 7 7 6 7 6 7 7 7 7 7 7 7 7 7 7 7 7 6 7 7 8 8 8 8 9 5 0 1 7 8 14 5 1 2 2 2 2 2 2 13 11 13 13 11 9 11 11 7 6 1 5 9 7 8 8 8 8 7 6 7 8 8 8 8 7 7 7 8 8 7 7 8 7 7 8 7 8 8 7 7 7 6 7 7 6 7 7 7 7 6 7 7 7 7 7 7 7 7 7 6 7 7 7 7 7 7 7 7 7 7 7 7 7 8 8 7 9 4 1 1 8 7 11 12 3 1 2 2 2 2 2 11 12 13 13 10 9 12 10 6 6 3 1 8 8 6 7 7 8 8 7 6 8 8 8 7 8 8 7 8 7 7 8 7 7 7 7 7 8 7 7 7 7 6 6 7 6 6 7 7 7 7 7 7 6 7 6 7 7 7 7 6 7 7 7 7 7 7 7 7 7 7 7 7 8 8 7 7 10 3 0 2 8 6 9 12 10 1 2 2 2 2 2 11 13 13 13 9 10 11 10 6 6 6 1 5 8 7 6 7 7 7 7 8 7 7 8 8 7 8 7 7 7 7 7 7 7 8 7 7 7 7 6 6 6 6 6 7 6 6 6 6 6 7 7 7 6 7 7 7 7 7 7 7 7 7 7 7 7 7 7 7 7 7 7 7 8 7 7 8 10 1 0 2 10 6 8 11 12 8 1 2 2 2 2 11 13 13 12 9 11 10 10 5 6 7 2 3 7 8 7 6 7 7 7 8 8 7 7 8 7 7 7 7 7 7 7 7 7 7 7 6 6 6 6 6 6 6 6 6 6 6 6 6 6 6 6 7 6 6 6 7 7 6 7 7 7 7 7 7 7 7 7 7 7 7 7 7 7 7 7 8 8 0 0 2 10 7 6 11 12 11 6 0 2 2 2 12 13 14 10 8 12 10 10 5 7 8 3 3 5 8 7 7 6 6 7 7 7 7 7 7 7 6 7 7 7 7 7 7 7 7 7 6 6 6 6 5 5 6 6 6 6 6 5 5 6 6 6 6 7 6 6 7 7 6 7 7 6 7 7 7 7 7 7 7 7 7 7 7 6 7 8 9 7 0 0 3 10 8 5 10 12 10 11 4 2 2 2 13 13 13 9 9 12 10 11 5 7 8 4 3 4 6 7 7 6 6 6 7 7 7 7 7 6 7 6 7 7 7 7 7 6 7 6 6 6 5 6 5 5 5 5 5 5 5 5 5 6 6 6 5 6 6 6 6 6 6 6 6 6 7 7 7 7 7 7 7 7 7 7 6 7 7 8 9 4 0 1 3 9 9 6 8 12 12 10 11 6 4 3 13 13 12 9 10 11 11 10 5 7 7 5 2 4 4 6 7 6 6 6 6 6 6 7 7 6 6 6 7 7 6 7 7 6 6 6 6 6 5 5 5 5 5 5 5 5 5 5 5 5 5 6 5 5 6 6 6 6 7 6 6 6 7 7 7 7 7 7 7 7 6 6 7 7 8 8 8 1 0 2 3 9 10 7 7 11 12 10 11 10 9 9 13 13 11 8 11 11 10 8 5 7 7 6 3 4 4 5 6 6 6 6 6 6 6 7 6 7 6 6 6 6 6 6 6 6 6 6 5 5 5 5 5 5 5 5 5 4 5 5 5 5 5 5 5 5 6 5 6 6 6 6 6 6 7 7 7 6 7 7 7 6 6 6 7 8 8 9 5 0 1 3 3 8 11 8 6 9 12 12 8 13 9 8 13 13 10 8 12 11 10 8 6 7 7 6 4 3 5 5 5 6 7 6 5 5 5 6 6 6 6 6 6 6 5 6 6 5 5 5 5 5 4 5 5 5 5 5 5 4 4 4 4 5 4 5 5 5 5 5 6 6 5 5 6 6 7 6 7 7 7 6 5 5 6 7 7 8 8 8 2 0 2 4 4 8 10 10 7 7 12 12 10 11 12 9 13 13 10 9 12 11 10 7 7 7 7 5 6 2 5 5 6 6 6 6 6 6 5 5 5 5 5 6 6 6 5 5 5 4 4 4 4 4 4 4 5 4 4 4 4 4 4 4 4 4 4 5 5 5 5 5 6 5 5 6 6 6 6 6 6 6 5 5 5 5 7 8 7 8 8 5 1 0 4 6 5 7 10 10 7 7 10 12 12 8 13 10 13 12 10 10 12 11 9 7 7 7 7 5 7 3 4 5 5 6 6 6 6 6 6 5 5 5 5 5 6 5 5 5 4 4 4 4 4 4 4 4 4 4 4 4 4 4 4 4 4 4 4 4 4 5 5 5 4 5 5 6 6 6 6 6 5 4 4 5 5 6 7 7 7 8 7 2 0 1 6 8 6 6 10 9 9 7 8 12 13 9 12 12 13 12 9 11 12 11 8 7 7 8 7 5 7 4 4 5 5 6 6 6 6 6 6 6 5 5 4 4 4 4 5 5 4 4 4 4 3 4 3 3 4 4 3 4 3 4 4 3 4 4 4 4 4 4 4 4 5 5 5 6 6 6 5 4 3 4 4 5 6 5 7 7 7 7 4 1 0 3 7 8 6 5 10 9 10 7 7 12 12 11 10 13 13 11 9 12 11 12 8 7 8 8 7 5 7 5 3 5 5 5 6 6 6 6 6 6 5 5 4 4 4 4 4 4 4 4 4 4 3 3 3 3 3 3 3 3 3 3 3 3 3 4 4 3 3 4 4 4 5 5 5 5 5 4 3 3 4 4 5 5 5 6 7 7 7 5 2 1 0 5 8 8 7 5 8 9 10 8 6 9 12 13 9 13 13 10 9 12 11 11 8 7 9 8 7 5 7 7 3 4 6 5 6 6 6 6 6 6 5 5 4 4 4 4 3 3 3 3 4 4 4 3 3 3 3 3 3 3 3 3 3 3 3 3 3 3 4 4 4 4 5 5 4 4 3 3 3 4 4 4 5 5 5 6 7 7 6 3 2 1 3 5 8 8 9 5 7 10 9 10 6 7 12 13 10 11 13 10 10 13 11 11 7 7 9 7 6 5 7 7 3 4 5 6 5 6 6 6 6 6 6 5 5 4 4 4 3 3 3 3 3 3 3 3 3 3 3 4 3 3 3 3 3 3 3 4 4 4 4 4 4 4 3 3 3 2 3 3 4 4 4 4 5 5 6 6 6 5 4 3 2 1 6 5 7 8 10 6 6 9 9 11 7 6 12 13 11 10 12 9 11 12 12 10 7 7 9 8 6 5 7 7 4 4 5 6 6 6 6 6 6 6 6 6 5 5 4 4 4 3 3 3 2 2 2 2 2 2 3 3 3 3 3 3 3 3 3 3 3 3 3 3 3 2 2 2 2 3 3 3 3 3 4 4 5 5 6 6 5 4 3 3 1 3 7 5 6 8 9 7 6 8 9 11 8 7 10 13 12 9 