P2
92
112
255
35 39 38 36 37 39 38 38 34 32 29 28 30 33 32 30 34 31 46 40 42 45 45 46 41 54 63 48 53 43 44 37 46 34 33 31 27 29 28 29 29 28 27 20 29 26 26 25 30 24 27 26 26 32 27 27 28 29 30 31 38 29 34 25 31 33 33 26 25 24 26 29 22 33 27 37 35 45 47 36 30 32 32 37 31 36 32 32 33 27 33 31 38 37 38 36 37 37 40 38 38 24 33 30 34 34 31 33 32 34 37 36 37 29 29 27 34 38 47 44 47 50 43 43 41 34 37 27 28 34 27 29 33 26 33 25 29 30 29 36 28 31 37 24 35 32 32 34 41 39 40 42 47 48 28 32 24 35 34 31 28 25 25 25 24 27 23 29 44 40 41 43 31 34 30 31 33 28 32 34 29 33 32 32 40 37 38 37 36 41 45 34 32 34 27 39 35 37 27 35 40 32 36 31 27 34 27 35 34 41 36 38 35 39 47 44 43 41 34 34 32 35 32 35 36 34 35 34 33 31 33 38 37 27 37 32 40 35 42 38 41 44 43 39 42 35 33 37 34 27 27 37 28 31 25 25 21 27 28 40 36 35 31 31 32 32 36 43 26 23 32 34 31 34 33 34 35 40 37 41 39 43 43 33 38 40 31 39 43 32 34 41 45 36 32 26 33 38 33 40 46 40 38 33 36 35 33 38 33 38 35 40 33 34 38 37 37 36 39 39 36 30 39 33 38 32 40 40 43 32 40 45 55 50 45 44 38 37 45 40 45 38 26 29 31 36 29 28 26 37 42 49 40 33 31 31 26 26 35 28 30 23 32 36 30 34 30 30 37 38 38 40 38 39 41 42 36 37 38 39 36 33 38 50 42 33 29 25 36 34 48 52 45 40 41 44 40 33 44 44 39 35 34 45 44 37 42 41 37 41 38 40 44 41 38 36 55 48 49 47 42 44 42 57 71 55 48 58 58 60 64 65 58 45 36 31 28 34 37 38 45 49 60 47 49 41 38 23 26 30 25 21 27 27 27 37 30 35 36 32 35 41 40 44 33 38 42 41 38 37 39 36 38 43 47 40 29 28 30 32 37 58 54 52 49 48 51 50 48 53 64 69 63 56 50 40 49 42 48 46 41 43 46 47 45 46 50 58 61 53 54 60 55 57 60 66 67 67 69 75 78 76 76 77 80 58 43 37 32 38 34 39 50 55 70 64 67 55 43 26 25 24 26 23 17 27 31 35 29 37 32 32 38 40 48 30 32 38 37 33 36 36 47 41 43 44 38 25 32 30 41 32 54 62 58 50 53 56 60 63 71 73 85 89 94 89 80 68 60 54 49 47 39 43 49 47 40 55 67 65 64 73 66 69 70 71 74 77 80 81 86 85 83 87 86 86 81 75 66 51 44 45 43 48 53 67 67 72 56 60 41 31 24 26 30 23 20 26 29 32 29 31 38 28 43 46 41 29 30 49 37 40 31 44 37 46 42 39 26 28 41 39 42 45 69 61 36 54 56 67 71 73 79 90 104 101 112 105 103 98 93 84 79 71 69 62 61 65 63 65 73 75 80 78 79 83 79 88 88 91 87 90 88 95 92 86 96 91 92 81 75 75 67 56 56 51 58 72 72 66 58 52 31 23 25 21 30 22 26 23 30 31 29 32 33 36 43 48 25 33 36 34 42 31 32 37 34 48 37 29 26 52 47 49 48 70 64 30 47 59 67 78 80 86 94 105 115 111 115 112 112 109 112 110 109 106 97 103 102 96 95 95 94 101 97 99 97 94 95 96 97 97 95 92 95 93 98 95 94 94 92 88 87 81 74 71 73 61 82 72 85 79 65 45 44 29 31 23 28 28 25 21 31 28 36 28 34 35 47 32 31 31 34 36 29 30 31 33 36 48 46 40 31 72 44 61 58 81 40 34 63 68 76 84 94 102 105 113 110 117 118 119 112 115 112 116 118 114 116 109 114 111 104 108 110 105 104 111 103 106 98 104 103 100 96 102 101 99 96 100 89 98 91 90 93 92 83 82 76 80 74 88 83 83 88 73 53 37 38 30 27 29 27 26 32 30 32 34 32 36 50 32 34 38 36 25 26 34 26 38 51 62 54 60 46 85 50 62 66 75 40 53 72 81 88 100 105 109 116 116 117 117 121 123 122 117 116 117 120 114 116 114 114 114 111 113 112 114 109 112 111 105 103 104 106 102 101 104 105 99 99 102 97 95 93 91 90 91 88 90 89 87 83 88 91 92 94 91 59 53 51 34 29 30 26 33 34 33 29 36 34 35 47 39 34 41 25 34 24 35 40 49 68 79 68 68 62 84 55 61 73 66 53 71 88 95 107 115 113 121 118 126 117 122 118 121 120 122 117 116 117 117 117 115 116 116 113 113 114 111 111 116 115 111 109 111 104 107 100 106 102 104 101 103 102 94 95 92 94 94 90 93 91 93 91 98 95 95 96 97 83 62 60 51 36 25 29 37 37 38 34 35 33 36 60 57 37 47 29 31 31 37 56 78 67 97 82 68 78 67 56 55 62 59 75 95 115 120 122 122 122 122 124 121 125 122 119 120 122 122 115 119 117 120 115 121 117 117 115 117 116 115 116 113 119 111 115 111 109 108 106 108 103 103 102 103 105 99 96 95 94 97 95 95 93 92 96 99 97 97 102 98 103 71 67 61 54 36 26 35 45 45 33 42 37 35 68 86 57 56 49 30 35 48 74 76 82 93 79 71 81 69 50 56 59 101 110 128 130 129 126 126 124 124 126 125 126 121 126 121 123 124 122 119 118 118 116 120 119 118 114 116 119 120 120 116 117 112 115 110 112 108 107 112 103 107 106 104 104 105 101 99 99 101 98 99 95 92 97 98 101 99 100 104 107 88 68 74 73 46 32 29 53 47 37 41 44 38 96 106 84 59 52 44 47 55 52 55 71 62 68 75 75 68 70 102 118 133 135 140 140 131 126 128 127 128 130 124 128 122 126 124 124 122 124 122 118 119 122 118 122 121 117 119 121 122 118 121 115 115 118 114 112 112 110 110 111 109 108 110 100 106 105 101 102 100 103 101 99 98 99 98 101 102 100 106 103 102 79 75 80 56 47 30 54 50 51 41 50 44 74 110 77 72 43 53 70 71 60 64 63 70 73 78 94 102 130 139 140 146 144 145 138 139 132 128 130 130 130 127 130 126 129 124 126 124 126 121 123 122 123 121 117 120 118 123 121 125 125 117 115 121 118 120 110 116 117 112 112 108 114 109 105 107 103 102 103 103 102 103 95 98 102 99 100 105 104 107 107 107 90 74 78 72 60 25 50 49 53 46 46 42 48 67 73 79 42 62 102 87 104 121 111 108 109 95 124 141 152 147 150 145 143 144 137 137 137 133 135 131 130 134 133 129 131 132 130 128 126 129 117 127 127 124 120 123 123 124 125 125 125 122 116 122 115 123 114 117 118 114 118 113 112 113 106 106 108 100 99 104 105 103 99 102 109 103 101 106 106 106 107 106 96 89 79 80 65 41 36 56 47 43 42 40 82 52 50 71 63 101 115 106 127 128 116 113 129 133 148 155 153 156 159 152 147 145 146 140 134 137 138 132 133 135 133 135 137 138 132 130 129 125 129 124 133 123 128 126 122 125 130 130 126 125 120 122 120 121 117 117 117 120 119 116 111 112 112 109 114 98 107 105 104 105 106 106 106 107 108 102 113 104 111 103 99 96 87 77 76 49 35 61 48 50 33 42 93 47 45 54 94 122 131 125 134 121 126 137 155 156 159 157 152 162 156 157 151 147 149 144 138 141 138 140 140 136 136 134 134 141 135 138 135 124 131 131 127 125 125 134 123 133 131 130 129 128 126 125 126 119 123 123 121 117 119 117 116 111 109 112 115 109 110 109 106 107 108 104 107 112 109 110 111 114 103 109 103 97 98 84 75 60 48 55 54 41 44 39 41 53 61 51 107 133 132 129 135 128 148 154 166 161 166 162 157 164 159 164 155 155 140 148 144 140 145 139 139 140 137 140 139 140 142 133 134 134 128 134 131 126 124 130 126 126 131 127 124 132 125 128 130 125 124 126 120 124 120 117 119 115 111 112 115 105 112 110 111 109 111 106 113 111 111 112 117 110 110 106 103 103 104 93 83 63 58 56 55 36 47 37 31 61 74 68 125 138 125 134 145 146 157 164 170 168 173 166 162 162 163 169 160 157 144 147 143 139 144 141 140 140 142 141 143 138 148 139 138 138 134 136 137 132 130 130 126 121 135 126 125 130 130 129 132 129 127 125 122 125 124 123 121 120 116 111 114 108 110 112 115 115 109 109 112 109 113 109 117 107 108 108 102 105 106 102 87 70 61 61 55 36 41 40 58 85 72 105 133 132 134 151 166 169 157 168 178 184 181 172 165 164 171 163 164 159 149 148 150 139 143 143 139 145 140 144 139 146 153 141 143 147 141 136 141 138 132 134 128 132 135 134 131 131 133 128 131 130 129 129 123 126 124 120 123 116 117 113 115 108 114 114 115 114 112 111 111 112 112 112 112 111 113 106 103 103 112 113 98 75 69 60 63 36 38 35 87 79 79 138 132 128 159 165 179 174 168 174 183 190 189 186 173 170 175 164 156 160 155 147 149 139 143 140 137 143 141 143 140 148 145 149 147 145 151 129 144 142 144 138 137 138 140 139 140 134 134 128 137 131 126 133 120 126 124 120 118 118 115 114 115 110 113 114 116 115 113 109 111 114 110 111 115 114 116 112 105 106 111 118 105 87 70 55 61 37 38 41 78 76 110 145 121 146 169 178 184 180 177 179 188 187 190 191 186 178 169 159 151 156 154 152 146 144 140 142 137 141 143 141 141 144 146 143 145 149 144 138 144 150 152 140 142 140 143 143 138 142 141 130 136 131 125 131 122 128 124 117 121 115 116 114 114 112 111 113 119 114 108 111 115 111 113 112 116 115 115 115 111 107 119 113 116 91 78 56 51 50 32 57 80 108 124 118 118 160 180 175 181 183 182 185 184 188 192 195 188 181 171 162 154 153 152 154 147 141 144 144 140 143 144 140 144 146 144 138 140 150 149 138 154 146 147 148 151 144 138 135 140 141 145 135 137 139 130 128 125 127 125 122 120 121 115 114 112 118 114 119 120 110 115 113 116 113 115 115 116 119 110 119 116 114 122 123 114 104 85 65 48 50 49 65 114 124 103 129 149 166 180 184 188 186 186 188 187 193 195 194 191 185 171 166 159 152 149 152 144 144 144 143 143 142 145 142 144 148 146 141 146 147 136 141 145 148 142 145 147 151 145 140 145 144 146 137 139 137 134 131 126 126 126 123 119 119 116 118 116 117 118 117 116 110 116 114 116 118 116 116 121 119 115 120 115 120 122 123 121 103 101 69 59 37 56 76 129 112 92 141 145 166 181 182 191 190 189 191 190 197 198 192 202 189 177 164 162 151 152 153 145 146 146 144 142 141 142 142 143 143 139 139 147 144 141 140 150 144 140 144 142 151 149 145 148 142 143 143 136 134 135 129 128 129 127 124 120 118 118 116 116 117 117 117 116 110 116 116 122 118 122 122 124 123 116 120 118 124 127 127 124 111 100 76 61 44 54 70 115 103 87 126 144 172 187 184 201 193 193 193 195 197 191 192 201 197 185 166 169 154 151 151 150 148 145 146 143 144 144 146 142 140 141 144 143 140 142 140 142 144 142 147 145 147 151 143 148 147 142 145 141 131 137 127 129 126 126 124 120 119 118 118 120 118 120 116 115 118 115 119 125 116 123 131 128 127 122 115 121 126 131 140 125 118 100 82 55 51 58 54 103 95 88 126 158 183 194 190 200 199 199 201 194 191 197 191 200 199 189 172 175 158 154 151 149 148 145 151 148 150 147 145 145 140 148 148 146 145 144 132 134 137 139 144 145 154 149 141 153 152 140 148 141 133 139 131 130 128 125 125 123 118 122 121 120 121 121 117 118 116 119 121 122 122 125 127 128 132 129 119 125 128 135 143 130 122 103 82 58 49 56 61 88 81 88 127 167 184 190 192 202 205 205 206 196 198 195 192 201 197 195 178 181 169 157 157 150 147 148 148 153 148 149 150 148 144 152 151 149 147 143 126 115 124 138 139 146 146 154 143 150 152 148 149 135 128 135 134 130 131 125 126 127 121 124 124 120 123 118 123 123 118 121 123 123 129 129 128 132 133 131 123 127 133 140 145 142 123 100 82 61 51 59 58 74 81 91 124 175 194 190 193 202 206 206 205 205 202 196 196 200 194 191 190 182 174 160 160 155 151 147 148 151 147 154 151 152 147 154 153 152 147 154 129 106 123 135 142 153 142 154 147 148 147 156 153 139 135 134 130 139 133 126 125 126 123 127 124 124 122 123 125 125 122 123 125 126 135 133 127 132 136 129 125 134 130 140 149 141 128 102 75 64 57 61 60 80 95 95 130 181 199 189 192 205 204 207 207 205 200 198 196 194 193 191 183 184 174 163 163 149 155 149 142 154 148 155 156 154 150 149 148 150 148 151 128 111 132 147 142 150 149 142 156 152 144 154 149 143 140 139 136 138 134 124 132 124 129 122 130 124 127 127 128 123 130 125 131 134 136 137 131 139 138 132 129 133 132 141 150 147 130 103 64 64 62 59 65 63 81 79 137 191 198 190 195 198 206 203 207 203 198 197 193 189 181 170 166 169 165 158 159 153 151 155 147 146 145 147 144 157 147 140 148 147 150 144 145 132 140 147 152 152 158 147 147 151 142 147 150 142 140 138 141 146 135 126 130 125 131 126 131 128 128 125 128 126 130 127 131 133 136 137 130 138 139 136 134 136 133 141 145 156 133 95 66 51 77 63 72 45 79 75 136 196 195 189 200 195 205 202 200 205 201 194 184 173 166 156 154 151 139 141 141 134 130 129 128 122 123 124 121 140 141 138 143 141 139 142 142 137 135 143 144 153 155 151 139 154 142 144 144 134 133 133 136 131 135 131 132 134 128 129 130 125 124 121 123 130 123 126 123 124 133 134 141 150 146 135 148 155 151 138 146 153 144 87 73 42 99 59 76 68 68 76 140 196 193 192 200 194 201 205 202 203 194 180 162 154 154 155 138 131 124 117 105 104 102 101 108 96 95 105 104 108 124 124 136 133 132 130 139 136 134 138 139 147 155 149 136 145 134 138 135 127 128 128 129 126 126 129 122 118 118 114 115 116 108 110 111 113 118 111 120 112 126 128 138 141 145 145 147 157 158 150 145 146 146 110 70 52 89 72 66 62 67 66 134 194 191 194 198 197 190 204 202 195 174 166 158 138 140 131 135 129 117 113 101 96 89 85 90 89 77 93 93 87 95 101 110 118 120 124 121 126 133 135 136 137 137 141 131 138 127 127 125 125 118 112 121 124 105 102 92 97 97 90 91 90 82 92 94 85 100 106 112 112 110 118 119 136 137 142 150 149 167 153 147 139 155 112 79 52 74 82 74 61 63 69 130 192 189 194 195 192 186 201 190 185 173 181 174 150 140 127 127 123 106 96 92 93 55 57 114 149 89 99 143 139 181 177 172 187 181 166 184 180 145 140 156 138 136 136 127 131 121 127 115 115 109 89 102 102 83 83 83 92 83 73 70 65 68 74 72 75 85 88 96 99 105 111 112 125 128 136 152 156 167 153 142 144 151 119 80 48 63 96 82 61 57 79 124 188 188 193 192 190 187 193 195 182 187 150 125 114 116 107 127 121 118 121 122 132 115 191 226 220 217 106 116 120 148 120 106 98 121 99 158 127 128 146 122 138 101 129 88 126 84 113 75 97 96 45 44 56 74 68 76 82 79 78 72 73 77 77 79 78 82 81 82 76 85 80 82 93 110 127 146 158 169 150 136 144 146 123 79 46 53 93 84 44 64 80 107 186 192 190 187 190 184 179 161 115 134 136 167 174 179 178 170 162 159 163 156 137 158 191 226 222 222 166 143 146 131 113 108 102 87 68 112 100 102 115 96 111 88 101 81 97 93 91 95 93 104 68 68 96 102 95 102 97 98 90 102 98 100 97 107 105 109 103 113 110 113 110 107 98 99 92 99 138 170 157 140 141 150 128 78 47 44 88 74 39 61 65 87 188 196 186 190 195 169 106 121 171 192 178 173 189 194 192 171 160 155 150 136 118 120 189 229 223 207 146 145 119 117 120 123 118 107 92 65 104 116 112 107 111 99 98 94 99 102 99 99 101 99 92 98 115 119 120 112 113 100 86 91 90 85 89 94 96 104 104 111 118 120 139 145 137 127 132 126 99 92 137 155 147 152 128 84 46 40 90 83 36 53 35 52 174 198 192 202 157 90 164 191 191 177 171 162 178 191 186 154 139 137 132 117 121 101 160 235 218 238 141 109 96 97 112 118 127 126 115 96 67 140 141 131 127 123 124 121 119 129 131 118 101 112 111 110 125 126 118 113 115 117 98 95 93 89 93 80 93 88 90 99 104 125 146 154 152 138 140 149 144 121 77 101 152 160 142 77 57 45 98 100 40 42 40 14 130 206 208 166 80 172 195 189 177 174 159 162 172 184 177 148 130 124 128 111 113 105 102 180 213 207 109 102 79 84 84 104 119 126 123 128 79 109 152 117 111 121 123 131 130 138 140 111 107 127 117 112 118 117 107 57 141 147 95 101 93 96 93 95 90 94 86 94 92 108 125 129 145 147 142 144 144 152 111 66 97 165 153 79 51 42 108 98 56 33 27 26 76 198 191 79 172 195 189 177 175 165 145 148 157 168 147 121 108 105 103 97 99 89 88 126 158 136 106 85 78 73 78 81 101 117 125 133 118 177 184 136 190 215 172 94 114 112 116 117 104 117 126 122 128 141 86 135 227 226 125 92 83 99 91 88 93 92 95 96 98 110 107 103 112 122 126 144 141 157 120 52 79 109 165 89 46 51 103 99 125 58 18 110 117 85 89 99 168 161 157 149 143 129 121 130 138 126 104 124 113 106 112 98 99 104 94 99 107 98 71 62 65 71 70 72 77 96 118 129 155 138 161 135 190 224 201 80 93 96 85 117 102 104 115 105 116 114 68 141 227 229 136 74 72 83 77 82 77 89 89 100 112 129 119 106 109 100 106 113 120 140 134 34 78 117 109 29 132 65 78 92 152 114 45 140 129 19 52 136 123 117 117 115 97 88 99 115 106 95 124 145 131 107 104 82 88 95 87 80 81 78 73 62 53 60 65 68 71 79 102 127 165 111 148 123 103 162 128 89 115 115 113 104 102 98 100 97 98 87 69 84 162 175 106 80 89 83 75 82 76 84 85 86 111 139 130 127 124 118 123 130 109 99 121 46 67 117 34 19 169 81 71 76 170 75 138 173 130 172 79 177 170 171 151 120 107 104 108 105 101 105 119 113 91 79 84 50 53 49 43 53 55 61 65 63 53 56 55 68 78 78 95 122 163 109 172 159 138 139 119 118 133 120 114 98 101 85 86 92 77 67 68 80 97 102 97 86 89 83 71 77 91 90 98 105 101 113 136 132 139 131 145 162 159 125 101 45 73 112 76 64 121 104 62 71 188 92 105 183 145 178 105 180 178 198 176 133 127 135 127 121 120 105 97 63 65 110 90 33 45 34 30 55 50 74 57 49 45 61 55 74 99 83 104 128 138 108 179 156 149 133 123 122 129 134 115 99 98 78 88 88 61 65 66 70 76 68 65 55 45 55 45 64 85 102 123 133 132 116 121 138 136 129 138 157 185 156 143 82 53 99 92 100 121 103 42 107 169 139 93 196 180 132 107 179 179 197 168 140 128 137 133 133 132 105 100 62 79 123 97 37 50 50 35 60 55 82 67 49 75 62 54 85 102 101 107 142 113 114 162 141 137 127 121 114 114 133 115 91 97 74 95 91 56 61 53 61 85 53 53 40 28 44 22 74 184 61 78 122 121 123 127 139 139 129 122 152 176 159 157 81 59 70 103 101 132 86 59 128 100 168 128 201 194 110 119 168 182 190 159 142 119 141 157 145 144 133 142 139 98 100 90 79 74 79 81 74 76 69 74 66 77 88 95 87 98 115 123 136 83 122 148 125 125 122 117 112 108 110 105 93 100 96 84 82 71 63 69 72 87 74 52 55 46 43 25 78 153 78 47 77 83 119 128 123 128 123 113 134 160 156 161 69 45 59 112 87 115 146 76 146 40 173 163 205 195 95 123 169 176 182 157 141 125 134 141 145 145 146 148 144 122 102 100 77 76 73 77 77 78 72 80 75 83 91 92 100 121 125 129 160 72 118 122 122 124 116 114 111 108 92 87 96 88 102 100 87 83 93 81 81 82 79 76 82 73 75 70 77 95 96 117 123 110 111 125 120 123 107 105 126 145 157 156 56 42 57 116 93 119 179 74 152 10 153 197 208 191 98 116 164 186 179 156 142 135 134 135 144 154 155 159 143 134 112 110 107 99 95 88 94 79 81 86 81 81 94 108 125 115 122 154 107 82 111 120 123 119 116 111 110 113 95 84 80 76 91 112 107 97 85 84 90 81 79 76 72 69 76 79 86 99 117 138 133 127 117 118 119 121 97 106 118 140 155 161 46 41 60 113 113 115 174 80 158 5 102 225 202 188 111 103 170 185 175 155 144 144 135 135 137 147 155 157 156 133 88 101 113 105 99 94 96 89 87 90 84 96 120 137 144 110 145 191 80 46 118 135 128 125 117 112 111 112 105 82 121 35 96 130 117 118 97 88 91 87 79 80 76 71 73 83 90 99 115 125 138 131 120 111 111 108 104 104 119 137 159 166 41 46 70 111 143 178 185 98 156 22 69 229 187 184 127 88 174 182 172 164 153 154 143 134 123 131 139 143 147 123 76 90 106 108 99 99 98 94 89 98 105 129 142 138 145 112 125 124 68 64 134 143 140 132 122 114 114 111 113 102 82 48 97 99 121 116 119 104 91 91 86 89 84 79 82 88 86 97 102 112 117 109 101 99 100 104 108 113 115 130 157 168 36 37 79 115 133 154 198 143 139 20 51 226 175 177 157 63 180 184 174 167 168 155 156 138 129 130 126 132 124 124 111 110 109 109 103 100 104 105 114 118 138 146 147 147 138 114 155 98 87 100 145 157 142 135 120 117 116 111 118 117 80 67 91 91 112 125 114 116 110 96 88 92 89 86 89 88 89 94 98 102 101 96 97 100 102 112 113 118 122 127 163 156 34 33 96 121 118 116 191 182 71 30 35 226 174 172 182 55 169 192 177 173 170 164 164 154 145 139 132 127 121 114 117 118 111 112 115 111 118 124 122 133 139 144 143 150 122 139 132 107 105 125 153 156 145 135 129 114 118 117 118 123 105 74 94 88 110 128 113 115 115 113 100 96 91 94 87 90 88 93 97 94 98 96 103 108 113 121 119 126 126 131 163 145 38 35 110 136 100 84 164 177 17 38 32 212 189 167 192 70 131 195 185 183 180 176 174 166 151 146 135 134 127 114 115 115 117 117 125 122 124 128 123 135 140 127 132 142 128 152 101 105 118 146 155 157 148 139 129 122 116 120 123 123 121 89 87 90 98 117 121 112 108 115 108 103 101 92 101 97 98 99 100 96 95 100 111 113 117 119 123 129 131 134 166 145 27 73 111 157 75 61 151 166 10 48 25 171 199 176 161 168 44 203 199 189 186 185 185 165 157 150 137 137 130 129 122 117 124 127 126 127 130 132 122 153 145 118 128 132 146 117 93 114 143 152 164 149 147 140 135 121 117 117 124 122 123 117 84 100 81 112 113 111 115 109 111 102 108 108 95 107 103 102 104 100 104 107 111 115 119 123 129 129 139 143 173 155 23 166 96 166 79 56 171 142 12 50 21 119 199 182 150 190 143 84 202 198 186 187 186 174 160 154 146 141 129 129 126 128 128 130 129 130 130 134 126 159 144 130 133 155 126 87 110 142 157 162 170 169 156 144 134 126 117 123 121 124 127 124 112 88 86 83 114 112 114 108 116 103 112 111 103 112 108 106 101 112 105 103 113 116 114 129 123 131 140 146 181 145 123 153 101 172 89 62 195 102 15 52 20 80 200 190 160 173 194 139 105 193 198 191 188 181 171 157 149 140 133 134 137 133 142 137 130 133 135 137 133 148 157 118 143 158 99 98 126 154 161 168 180 171 159 148 138 131 123 118 121 121 135 129 123 102 92 73 101 119 116 111 111 112 116 111 118 113 108 113 106 109 108 107 112 118 117 125 123 135 149 165 180 179 156 112 144 159 101 89 200 62 25 52 16 70 205 189 164 172 178 202 165 94 190 201 193 187 171 154 143 142 135 136 137 137 139 136 134 128 139 135 141 134 143 121 132 116 121 112 146 158 169 180 184 170 162 144 143 137 125 121 122 128 134 130 129 123 99 89 67 114 119 116 108 120 119 119 128 110 111 115 112 110 106 114 109 121 117 126 125 142 154 168 192 153 120 162 149 150 115 145 172 43 29 57 17 89 203 183 164 172 175 184 202 177 101 171 202 188 168 153 144 139 138 138 140 136 141 138 124 126 132 133 133 129 131 118 94 136 125 131 158 163 180 187 176 180 157 145 144 145 132 117 130 128 132 130 133 126 116 103 68 70 112 114 114 120 113 122 126 109 114 113 118 114 114 106 113 121 116 133 137 153 163 195 152 127 169 169 146 143 135 174 142 30 35 57 18 116 197 183 165 176 174 182 194 202 194 166 185 153 168 161 146 141 138 136 133 137 138 131 121 124 127 128 128 130 113 70 114 134 135 141 159 164 182 192 180 180 161 143 148 142 130 118 127 125 130 131 133 126 116 123 100 63 53 101 125 123 118 121 128 113 121 116 116 114 122 112 116 122 123 135 137 146 164 164 153 163 177 163 148 143 142 179 115 26 39 54 26 133 192 180 165 177 174 178 192 197 201 202 175 115 108 117 120 129 130 135 136 137 136 129 126 122 121 114 104 94 76 71 110 138 152 158 174 159 182 185 186 179 156 155 143 154 136 125 122 123 129 129 131 130 128 129 126 99 59 54 77 100 113 126 127 119 125 125 117 122 124 124 118 118 118 102 105 108 132 158 171 171 174 165 148 147 144 175 73 23 48 56 19 138 192 182 172 176 177 177 185 188 201 205 184 150 146 129 104 90 85 78 76 78 77 71 75 74 71 73 74 69 77 82 108 161 174 171 184 175 175 187 181 180 151 156 162 152 150 126 126 128 132 129 129 135 141 134 129 132 87 69 68 54 61 62 71 74 77 81 77 76 76 79 76 75 81 99 105 150 155 175 177 173 171 168 150 149 159 162 39 34 44 48 28 149 189 182 169 177 174 174 185 187 195 187 185 167 157 151 135 124 122 113 108 102 93 91 86 85 86 83 84 95 101 92 131 188 186 179 181 187 178 195 201 187 148 152 160 144 154 128 126 130 148 145 152 154 153 144 140 155 95 72 92 86 84 85 83 80 79 79 78 77 90 85 103 95 113 112 127 153 175 181 179 170 172 163 156 150 154 155 54 28 57 59 22 152 187 180 178 177 178 173 172 183 185 179 174 171 158 156 144 131 126 127 124 121 114 115 106 107 103 95 92 101 102 100 135 176 174 169 159 159 158 175 193 166 142 131 132 130 131 127 124 120 186 182 153 148 159 157 170 174 98 69 88 88 101 104 112 110 112 117 107 112 113 111 117 118 128 133 132 154 184 194 184 164 171 163 161 153 154 164 96 35 53 50 28 151 187 181 179 179 183 176 170 175 171 170 169 163 156 148 136 125 127 123 116 114 113 108 106 100 100 86 92 103 106 108 112 148 148 141 133 137 138 149 144 134 133 119 114 120 116 122 113 123 134 147 132 133 135 134 145 165 72 66 93 84 88 97 109 111 116 115 120 115 117 116 117 118 127 135 143 156 179 187 179 160 171 172 163 158 158 157 117 28 40 51 22 152 183 182 182 173 178 182 169 174 167 169 160 154 144 141 126 116 119 114 110 107 106 102 98 96 82 84 99 108 108 116 103 108 116 96 78 82 102 127 137 131 128 112 107 110 111 111 113 122 124 128 105 91 88 92 123 110 35 77 92 85 86 83 97 106 109 115 112 114 115 116 111 109 124 131 151 158 174 181 171 155 171 173 167 166 156 165 107 21 46 52 26 148 182 176 185 177 173 182 168 167 166 163 142 144 146 129 123 117 108 109 106 98 98 93 90 84 83 97 104 107 110 113 118 116 106 97 76 77 75 83 95 125 126 111 97 97 99 104 113 121 128 133 106 89 94 108 103 68 60 86 84 83 92 84 81 94 101 110 106 108 105 104 109 111 122 119 138 168 164 173 164 154 166 177 171 168 153 168 72 25 46 54 21 130 180 177 182 180 174 181 168 160 163 155 152 142 138 125 119 113 105 102 103 97 90 89 79 76 95 107 106 107 113 115 125 138 124 122 105 103 112 101 76 72 106 103 88 83 89 100 116 114 115 111 106 99 116 123 91 91 86 90 79 80 91 95 74 80 94 108 105 103 109 104 105 116 121 129 136 157 154 160 158 157 163 175 173 172 164 171 21 35 49 52 21 107 184 174 178 184 176 177 168 160 161 151 151 141 132 126 120 108 98 97 98 92 84 78 74 91 105 105 106 104 113 120 133 140 134 145 130 120 123 111 84 68 60 76 69 69 79 95 89 82 87 86 90 95 114 122 110 116 106 93 89 77 94 91 84 76 81 100 101 97 105 100 107 118 117 136 139 141 152 152 153 158 166 175 177 177 169 169 12 43 48 51 19 90 186 179 174 178 181 173 164 167 149 147 145 142 127 126 111 103 96 98 92 87 80 76 84 100 104 105 104 107 118 135 153 144 146 150 128 121 129 125 114 73 63 51 51 41 48 52 54 73 68 84 83 107 114 117 118 123 126 101 90 89 89 89 91 89 72 82 93 98 95 103 107 114 114 132 139 141 152 153 151 157 171 173 178 168 180 161 4 44 44 49 18 65 190 174 173 178 174 170 173 167 156 148 145 141 127 124 115 96 96 88 86 83 68 85 96 99 101 103 97 122 137 152 159 137 153 144 130 124 137 133 132 110 76 56 45 48 41 39 45 49 66 79 104 111 115 120 117 120 139 121 101 92 87 88 91 85 90 69 79 93 94 98 107 115 113 139 138 151 151 156 151 162 169 172 176 173 184 147 5 43 47 50 35 41 182 176 176 175 170 165 170 168 160 151 150 137 125 122 108 99 94 91 80 73 75 97 99 100 102 101 111 145 152 152 148 151 155 148 133 137 138 135 129 116 102 83 61 58 54 42 45 55 72 97 110 114 113 123 115 123 137 129 122 104 93 80 89 87 93 76 77 87 96 97 106 108 119 139 148 145 153 158 157 165 166 165 184 176 186 126 12 43 45 49 47 12 174 177 180 170 172 159 166 166 156 147 146 137 130 120 111 100 92 96 81 77 87 98 95 102 102 110 141 147 147 157 142 150 145 145 142 136 134 132 128 120 109 113 101 91 81 76 76 89 100 101 110 113 115 124 118 126 132 139 127 134 108 85 90 85 85 82 81 85 95 101 100 108 120 133 151 144 157 155 168 163 167 164 180 174 190 104 18 50 46 50 49 5 157 172 174 175 178 162 165 167 152 146 141 138 127 128 116 104 92 93 78 86 89 92 95 100 115 126 151 156 151 156 146 155 144 144 151 134 133 132 127 118 103 118 121 104 103 109 111 114 116 100 111 112 119 127 124 129 137 152 144 140 133 98 92 85 76 83 84 83 97 97 97 111 124 126 146 144 156 154 172 164 167 169 171 170 191 73 18 47 46 46 57 13 137 176 168 173 167 164 163 160 149 149 142 138 131 130 118 97 104 87 80 92 90 89 92 105 118 134 149 156 160 159 158 160 152 141 149 137 130 128 123 120 111 122 119 107 108 118 114 114 113 105 109 109 122 124 129 133 140 146 158 147 144 118 87 87 78 79 89 82 99 102 96 114 122 135 142 145 154 150 168 169 171 168 169 178 183 42 29 46 44 48 57 23 84 176 165 169 161 165 159 158 151 148 147 136 136 132 117 105 102 89 87 98 92 95 99 100 122 138 150 157 160 160 161 157 139 135 137 121 118 113 115 115 109 120 120 109 109 115 104 106 108 96 102 102 112 122 124 135 139 150 157 151 148 128 86 77 84 84 85 92 103 104 97 112 122 146 141 154 154 157 167 166 172 168 170 179 172 34 48 43 43 51 53 44 39 167 162 165 162 163 153 159 151 150 146 136 136 135 118 111 101 89 90 104 92 108 97 107 131 140 145 148 140 137 133 126 116 116 109 108 101 97 99 96 98 101 104 98 100 100 87 93 96 88 87 89 98 102 107 116 127 139 145 146 147 129 90 80 89 86 83 93 107 107 100 109 125 130 142 154 158 161 164 161 162 168 163 182 147 17 44 45 42 48 55 63 23 140 169 158 169 156 151 154 151 144 147 132 135 131 118 111 100 92 99 102 102 105 102 106 120 106 104 95 88 88 95 87 90 82 79 75 76 77 72 72 78 79 82 88 88 80 76 79 81 76 74 72 81 75 84 87 88 96 107 103 122 109 80 86 93 82 91 96 108 112 102 106 119 129 136 138 144 165 160 156 160 158 154 191 107 14 45 49 49 52 54 57 20 89 173 156 159 155 155 153 150 144 143 130 130 136 121 111 102 101 96 106 105 105 89 90 76 56 33 35 26 37 49 55 48 69 67 48 72 90 83 77 73 70 47 53 71 65 68 74 99 105 62 77 119 81 64 59 35 37 43 35 47 46 64 77 93 87 86 102 106 113 105 110 114 136 142 134 150 153 157 161 157 161 161 186 46 24 45 45 47 50 47 55 40 30 171 153 156 156 153 154 150 144 137 137 129 135 131 101 101 102 105 105 104 97 99 88 90 80 73 42 28 18 33 74 36 62 85 41 97 144 125 114 114 118 34 35 101 91 94 105 137 140 77 107 157 78 77 56 26 22 23 27 33 44 60 85 89 94 89 102 110 113 112 110 119 141 140 138 148 159 158 154 162 155 165 177 23 35 40 48 39 50 55 46 52 18 128 161 156 154 154 152 149 142 147 140 135 144 133 116 106 108 109 113 106 100 105 100 121 107 95 101 84 58 67 56 43 28 65 56 68 157 142 132 137 133 32 27 126 115 124 123 161 113 33 109 98 53 68 31 22 18 21 46 67 81 90 93 89 100 94 110 110 114 111 105 128 135 146 137 146 151 161 151 161 153 175 137 15 41 40 43 47 54 46 54 52 29 65 163 158 149 151 151 148 144 143 134 133 141 136 122 108 107 107 112 106 106 115 116 132 144 101 129 126 104 101 73 78 36 131 130 52 74 76 70 77 67 23 19 64 67 78 87 99 41 21 71 38 36 39 30 27 18 44 81 83 89 95 94 100 89 102 108 109 114 111 111 125 140 140 139 149 145 153 151 165 155 172 72 24 41 43 46 42 52 47 53 49 53 21 143 160 149 151 152 148 143 142 134 135 140 133 124 109 114 108 113 110 113 125 134 139 163 139 130 146 126 116 100 90 71 136 144 124 129 133 75 70 87 53 46 67 55 32 65 84 61 71 139 60 67 47 37 45 54 92 94 87 101 96 99 102 94 98 109 110 112 114 115 126 144 138 138 147 151 154 150 157 162 155 18 38 42 44 44 42 48 55 49 53 57 21 89 161 153 150 154 148 145 145 137 135 136 131 128 112 112 108 116 115 126 137 139 140 161 165 147 147 146 124 101 109 95 97 109 114 147 165 109 132 151 140 99 130 138 83 117 133 127 109 153 94 82 78 68 78 99 111 103 104 114 97 98 101 95 106 113 118 108 117 122 128 144 142 137 141 151 151 147 158 171 89 17 42 47 38 48 40 50 54 54 49 51 30 49 158 154 150 150 145 144 141 135 136 133 135 133 113 113 112 114 121 136 140 141 141 149 167 169 147 144 134 118 116 116 107 111 97 103 129 114 130 145 136 104 131 147 105 132 144 127 111 116 87 76 82 96 87 101 118 105 134 119 103 98 98 102 104 120 117 108 117 126 131 136 135 141 139 145 147 143 160 155 35 35 44 43 44 42 40 56 50 51 55 57 23 170 161 140 148 143 146 141 136 137 131 132 139 135 118 114 111 117 130 135 140 141 143 142 162 165 155 146 140 130 130 117 108 113 114 102 101 108 107 110 115 118 115 121 101 118 114 106 105 93 93 88 92 94 102 111 127 134 146 119 107 102 101 95 107 108 113 105 117 127 129 132 131 138 143 142 140 146 179 84 19 38 47 42 43 46 43 49 54 51 54 16 134 218 146 124 149 145 144 142 139 132 132 133 135 137 120 111 116 128 132 133 144 143 137 146 145 150 155 148 147 135 119 118 116 111 112 109 114 115 114 110 106 118 113 112 100 116 108 101 107 100 92 101 108 108 122 134 140 150 134 116 118 106 101 85 106 108 108 108 118 127 127 129 131 134 139 142 135 155 157 19 36 41 45 45 40 47 45 51 52 56 30 86 228 199 125 101 148 144 143 139 133 131 130 131 136 131 126 116 128 133 139 133 138 139 142 145 141 142 134 143 153 138 129 125 115 109 102 105 112 103 118 116 105 118 112 111 104 107 106 105 105 93 93 107 118 121 123 136 147 144 118 112 128 110 97 90 100 105 107 108 123 128 122 128 132 134 129 138 141 164 79 25 44 43 46 43 41 44 44 55 52 37 59 206 226 173 138 55 142 147 146 140 129 130 125 131 131 142 130 117 131 134 138 138 131 137 143 137 138 134 128 140 144 132 132 128 123 115 109 105 107 96 98 100 93 106 103 103 99 99 97 104 104 95 95 106 110 119 129 134 144 125 114 121 132 114 98 104 96 105 105 106 128 128 122 127 126 133 132 139 153 116 29 40 41 40 44 40 47 45 41 52 46 19 179 230 206 163 144 40 98 152 148 143 124 125 121 129 131 136 134 129 131 133 143 139 132 137 141 131 129 133 131 138 132 135 125 124 123 110 109 108 105 95 93 94 88 101 90 93 93 92 93 99 97 103 100 111 113 121 129 130 127 113 121 123 123 111 108 109 92 104 109 107 134 121 121 122 126 132 134 145 151 42 32 44 38 46 42 44 46 41 48 52 32 122 225 225 182 161 149 68 38 158 144 145 131 127 122 128 129 139 134 133 135 138 134 139 130 136 138 129 125 129 131 133 128 132 121 119 115 106 100 101 89 80 82 74 79 76 73 75 81 83 81 88 92 99 98 110 115 120 123 120 114 110 119 126 120 115 111 115 98 102 110 110 128 127 117 119 126 132 133 145 135 21 33 44 43 42 45 45 42 41 47 20 107 208 219 216 165 169 160 96 30 144 144 142 134 133 119 122 124 136 136 135 133 135 130 128 130 135 133 124 128 126 131 124 130 132 127 119 116 104 107 93 91 86 87 81 82 78 74 70 76 73 79 76 85 96 97 101 106 109 119 114 116 106 120 118 129 120 113 108 105 106 114 118 125 122 119 120 127 129 145 94 173 95 27 39 44 38 45 44 40 41 47 93 188 215 222 202 147 185 167 109 26 118 144 139 136 132 126 120 118 128 136 140 142 132 134 121 132 137 126 132 129 129 126 121 125 130 128 122 113 109 115 101 103 95 95 97 97 95 88 88 91 89 88 90 91 96 96 104 105 111 116 117 121 109 123 123 131 118 112 117 102 108 118 119 122 117 118 123 128 141 120 41 115 199 69 25 38 44 42 38 44 41 45 202 199 214 222 183 138 185 167 113 36 69 154 130 139 136 129 124 110 119 130 133 133 127 133 130 137 133 129 136 131 127 125 126 120 127 123 126 126 121 118 117 108 112 104 102 102 101 98 98 108 104 101 101 103 107 102 109 108 109 119 111 119 119 122 128 122 118 110 125 104 113 119 126 115 114 115 124 132 143 53 28 105 171 209 22 36 38 42 43 44 45 41 194 207 215 213 162 150 187 160 107 63 20 146 131 130 130 134 126 115 100 127 127 126 127 133 134 131 143 130 131 134 136 127 124 127 122 131 132 130 128 128 125 128 116 117 121 104 111 111 107 112 115 110 110 111 115 111 112 113 113 117 117 121 122 125 126 116 119 122 118 107 114 117 120 108 111 121 128 150 66 8 38 127 128 213 155 24 38 39 47 40 42 42 181 210 219 202 153 170 188 144 94 94 14 94 143 115 127 123 131 123 103 108 123 122 127 129 125 136 142 141 129 133 143 122 122 129 129 133 140 136 135 130 129 128 117 116 125 117 121 113 112 114 116 114 116 121 116 116 116 118 113 117 117 121 131 127 126 123 126 122 114 106 114 114 113 114 117 120 132 145 27 17 52 135 112 176 213 115 19 40 47 41 43 41 190 213 224 183 148 184 179 148 92 113 46 44 130 125 114 121 128 124 121 110 112 122 124 127 123 135 139 137 136 135 136 127 128 132 129 135 132 133 129 127 127 126 126 116 124 120 119 119 113 111 114 112 116 122 118 123 120 119 121 117 117 124 123 126 129 120 123 118 107 111 113 112 106 119 118 127 131 138 15 16 59 156 104 149 193 189 86 21 47 41 40 44 207 214 220 166 149 192 163 146 80 120 78 26 91 139 116 109 121 120 121 127 119 112 120 120 123 133 136 134 136 135 131 133 129 126 124 136 128 131 130 123 127 125 128 112 122 118 113 115 111 112 111 112 112 117 121 124 124 116 125 121 123 125 126 125 130 114 115 109 105 111 107 110 111 119 122 116 142 121 2 16 53 175 103 124 183 191 179 53 31 40 43 40 215 216 210 149 164 187 178 132 83 124 104 28 61 120 129 112 106 114 120 126 121 120 113 117 117 128 129 133 132 133 130 139 125 119 126 122 125 128 128 122 126 122 120 112 119 119 106 111 112 115 111 108 110 114 118 124 120 123 119 123 131 121 125 124 123 112 111 104 107 103 111 112 111 124 117 121 154 92 3 13 67 174 121 98 170 193 170 162 34 39 41 45 214 221 188 144 182 175 191 130 89 124 120 38 54 82 123 124 105 104 109 117 117 112 117 111 108 114 119 127 128 126 131 132 126 125 127 124 125 129 122 119 118 116 115 113 115 116 108 112 110 109 111 110 113 114 112 115 113 125 121 122 126 120 119 123 113 110 105 105 105 109 108 112 120 111 113 130 155 60 9 21 66 166 134 90 144 185 179 174 148 62 46 47 213 218 171 147 195 164 191 114 99 124 120 56 54 67 99 125 108 106 92 106 113 111 115 112 108 100 103 118 128 121 129 126 117 118 125 128 120 117 120 117 118 112 112 108 108 112 104 111 102 109 105 111 106 117 108 111 111 111 121 121 114 119 120 112 108 100 104 104 108 108 110 120 111 107 126 143 129 26 8 39 57 147 145 92 117 179 204 155 197 146 136 110 216 210 154 155 198 164 170 104 109 126 115 74 53 72 82 111 111 103 99 94 101 106 111 111 108 99 95 103 117 115 127 117 114 112 123 117 114 109 115 114 109 100 106 106 104 105 103 106 102 102 103 112 101 109 107 109 110 109 120 116 115 110 115 100 96 96 99 104 113 115 115 102 107 124 136 150 90 3 22 54 48 133 155 114 103 171 197 189 148 200 127 137 223 195 148 159 196 176 151 108 119 122 110 93 52 72 82 90 102 106 107 90 89 95 100 108 103 105 98 89 100 107 114 115 107 106 111 108 98 107 102 101 96 96 94 100 102 97 94 102 93 100 93 102 100 103 99 99 112 103 113 102 114 101 94 87 94 101 100 108 115 111 96 98 118 130 137 145 38 2 38 65 45 123 160 143 108 131 197 206 148 197 178 152 223 191 148 178 194 183 145 112 121 124 104 101 71 63 82 89 94 104 107 100 88 88 90 89 102 100 102 94 87 93 94 103 104 97 102 99 95 107 95 93 91 91 94 93 88 93 90 97 89 92 88 95 95 94 90 96 97 99 100 103 103 78 78 96 97 106 107 112 103 86 92 120 121 134 143 98 9 6 65 70 54 119 165 164 116 116 185 196 185 152 211 141 222 183 149 191 185 182 137 111 124 126 101 99 93 52 81 87 92 97 99 106 98 94 88 79 85 91 93 96 94 88 76 86 93 94 88 89 91 90 88 80 89 87 87 88 87 85 86 82 84 84 85 88 85 94 86 93 94 94 92 85 81 77 86 97 100 107 104 92 78 81 108 123 127 136 126 48 5 17 77 89 82 110 174 159 141 116 148 199 207 142 201 187 219 171 152 205 184 181 126 115 125 133 97 98 112 53 79 88 92 100 96 99 101 99 97 79 74 73 79 89 88 88 73 77 72 83 70 84 80 76 81 73 82 82 78 81 79 79 76 78 81 77 80 78 81 86 83 87 87 83 80 77 80 88 92 98 104 89 70 69 92 91 111 124 128 126 80 23 5 39 91 126 100 87 171 145 170 119 117 197 203 171 175 213 212 165 159 206 184 176 120 123 129 130 99 94 123 61 68 88 91 95 98 101 95 92 97 89 84 70 63 72 71 82 73 74 69 70 63 67 67 68 72 65 73 74 66 74 73 68 74 70 71 75 72 74 76 79 79 72 69 74 74 82 83 92 100 87 68 66 66 85 93 99 110 120 126 95 44 16 10 57 123 138 117 82 154 150 170 131 110 173 197 202 152 216 198 157 171 203 189 166 120 126 142 127 94 98 125 78 59 85 93 94 96 103 102 94 98 91 87 77 65 65 62 64 66 68 70 67 63 65 58 61 59 57 64 60 65 65 66 68 62 66 64 66 64 64 62 68 64 71 67 80 79 87 84 87 68 61 54 72 76 89 91 102 111 121 107 59 29 14 27 78 135 132 135 91 125 162 151 159 112 127 200 211 163 190 185 155 188 195 194 155 118 131 148 121 94 101 125 95 58 77 93 96 94 100 106 103 98 96 86 83 74 69 67 61 56 54 55 67 61 62 60 58 56 57 53 55 57 51 55 54 52 55 53 57 57 57 62 64 69 70 78 73 85 75 58 51 57 62 66 71 79 85 96 104 110 103 70 40 34 12 67 92 131 125 152 101 110 163 141 180 117 109 195 210 180 169 170 154 202 189 201 142 115 143 145 128 89 101 123 104 65 72 86 96 98 99 104 105 106 103 97 86 81 77 65 66 53 52 48 50 45 57 59 63 58 58 59 58 57 53 55 53 52 55 56 55 63 59 66 73 67 74 67 58 49 50 47 52 62 58 70 72 84 86 99 105 90 74 55 43 26 34 114 92 117 131 154 116 113 138 157 176 139 112 169 212 202 145 