P2
92
112
255
99 103 98 98 104 100 99 101 100 100 98 103 101 90 78 70 67 50 41 32 39 55 72 72 64 55 56 53 54 60 68 51 42 48 40 33 31 26 31 27 24 29 26 28 22 21 25 25 26 29 22 21 24 19 19 23 22 26 33 31 33 27 32 28 30 29 28 31 31 30 26 30 26 34 31 31 34 42 55 34 46 72 81 92 89 88 90 85 91 92 92 92 100 102 101 100 101 102 97 102 103 101 102 95 83 78 69 60 46 41 38 37 57 68 79 67 44 31 35 44 48 44 52 50 58 56 52 50 45 40 36 33 27 30 31 30 21 25 28 25 23 27 31 28 29 30 24 28 22 28 22 24 29 33 35 31 31 26 28 27 29 31 24 28 19 31 27 27 31 31 32 25 29 45 69 79 87 88 83 88 88 93 92 90 101 102 102 99 102 103 99 101 102 105 90 69 69 63 53 51 50 46 44 48 58 53 48 30 34 41 54 56 47 58 76 76 70 62 59 49 48 45 40 37 31 34 32 34 33 32 34 38 31 34 33 29 34 32 33 33 30 32 29 35 27 33 34 36 34 31 31 30 30 30 28 29 24 27 25 25 30 26 27 27 32 41 46 71 85 89 89 84 91 92 92 90 99 103 100 102 103 99 101 100 103 88 62 59 61 66 62 52 45 41 42 42 40 29 39 41 37 41 40 44 45 44 48 46 35 33 33 37 33 28 27 34 51 45 44 42 40 37 34 36 35 34 32 30 29 30 31 32 36 39 40 41 41 37 37 40 38 28 29 33 32 29 30 32 30 27 25 29 25 25 25 25 31 41 44 51 87 95 87 89 90 94 94 92 100 106 98 102 102 102 102 103 90 65 55 71 85 70 49 40 52 45 34 37 35 48 42 41 33 33 34 39 35 32 30 31 28 32 29 35 29 31 23 52 78 61 47 43 34 32 30 29 27 24 25 25 25 26 24 26 25 28 34 39 44 36 34 41 39 37 26 32 41 37 42 29 30 34 28 28 26 21 25 22 26 27 44 50 83 87 81 90 90 89 94 94 105 101 101 103 103 103 100 91 70 70 71 66 61 54 55 61 55 39 38 50 50 50 50 45 39 38 34 41 51 43 31 29 32 34 33 37 32 39 39 60 64 58 48 44 42 35 32 30 26 31 29 27 29 32 29 35 39 36 36 41 44 36 37 36 39 39 39 39 48 45 45 31 30 35 26 26 29 30 26 31 32 33 28 36 55 65 82 85 88 92 86 93 98 104 101 102 102 100 92 71 64 76 70 61 60 69 64 61 49 55 62 60 60 63 65 51 41 37 40 55 67 52 36 31 31 41 39 42 51 57 62 68 64 62 58 56 48 45 38 42 34 37 33 39 36 34 36 34 39 37 41 42 41 41 36 38 35 33 38 32 29 37 37 33 32 32 28 32 30 28 30 32 29 27 23 23 45 50 50 69 85 84 83 88 101 104 105 99 96 86 68 70 79 69 49 58 59 57 63 60 62 61 57 67 80 70 64 48 43 50 58 66 59 41 41 40 43 38 46 52 53 50 47 45 47 48 51 53 53 45 47 52 46 43 40 43 43 40 39 34 37 33 34 34 30 35 29 37 39 29 32 36 30 26 25 29 26 28 27 28 31 28 34 28 27 23 22 23 30 58 61 42 50 77 90 82 99 102 105 95 73 56 66 71 52 49 54 48 50 60 60 59 56 58 67 84 90 71 63 62 75 77 68 55 43 47 47 46 38 35 39 37 35 35 32 37 41 35 41 37 35 35 41 53 52 53 54 51 44 43 42 37 44 40 32 28 29 33 30 33 31 33 33 25 34 28 25 29 23 23 26 29 22 26 30 25 21 21 17 23 30 47 62 62 38 27 93 88 103 101 95 70 52 47 41 42 45 54 54 71 68 63 63 66 57 76 76 64 42 35 27 31 40 55 62 56 59 61 64 55 53 54 53 51 54 52 47 47 47 50 43 38 38 33 33 34 33 32 49 49 41 42 49 37 30 35 33 34 36 31 29 28 30 37 30 29 27 27 25 26 26 27 25 32 29 34 28 25 24 20 21 26 30 48 60 48 54 36 43 88 106 93 60 35 37 35 36 45 59 60 52 60 86 62 47 54 54 41 25 26 23 35 40 53 53 44 48 42 42 50 50 60 68 66 57 51 55 47 55 43 48 42 40 31 32 30 29 26 25 28 28 33 47 48 47 50 50 35 31 31 34 36 35 35 27 34 36 30 29 25 26 24 27 22 24 20 23 31 27 29 28 25 24 19 26 40 51 71 76 58 27 44 93 60 36 28 36 32 44 42 35 51 69 86 68 35 35 34 25 20 18 22 25 29 38 52 51 44 40 41 34 43 39 51 60 59 59 51 48 46 40 35 32 32 33 30 28 32 30 34 32 29 34 32 28 28 41 49 53 56 47 37 31 44 40 42 34 35 37 39 39 35 31 30 21 25 24 22 26 30 25 29 34 30 18 23 24 29 38 50 82 82 33 43 56 39 29 30 34 30 27 21 47 71 77 62 34 32 29 20 21 25 37 53 60 63 59 53 41 45 42 47 44 55 46 51 57 57 60 57 48 52 49 43 43 38 40 33 31 36 36 38 37 32 35 38 33 30 25 27 37 44 51 54 46 49 57 58 52 53 59 54 50 45 32 30 27 28 33 24 26 22 29 36 34 27 25 28 29 24 32 44 55 53 69 58 30 28 32 30 25 25 18 36 60 66 58 44 42 29 21 26 40 72 81 88 90 86 85 66 64 57 50 42 41 45 47 53 55 57 60 65 61 67 65 60 54 48 37 34 29 27 29 32 37 39 36 40 45 42 41 40 45 43 45 44 48 47 54 49 56 58 75 82 63 46 37 34 31 41 35 31 28 27 28 36 36 34 30 30 38 30 34 38 49 43 84 85 25 26 27 25 24 20 28 62 60 50 45 64 44 21 22 67 90 92 85 74 70 77 73 66 60 59 56 44 44 34 34 33 38 32 32 34 43 49 55 51 38 33 29 32 36 30 40 46 44 47 52 61 60 60 68 64 77 82 78 66 54 32 28 41 33 44 53 64 72 51 41 47 51 49 46 31 31 28 35 34 36 32 40 41 44 46 36 46 43 45 63 90 22 21 22 25 22 29 59 63 48 41 65 56 25 24 56 84 86 89 90 75 80 86 87 78 78 75 71 63 63 55 47 52 45 47 38 62 85 79 54 37 32 42 42 56 60 69 74 80 87 94 82 88 102 108 107 105 110 115 114 114 101 76 49 36 33 27 30 44 58 52 61 47 46 38 37 31 33 34 38 38 36 35 29 53 55 53 59 49 59 51 49 77 22 21 20 31 33 40 48 55 47 55 67 37 16 48 79 96 86 80 80 61 82 88 86 99 96 99 80 83 82 70 67 61 56 64 74 100 100 76 53 52 65 73 78 90 103 116 119 121 127 132 125 126 130 135 144 135 137 141 143 137 135 124 112 77 57 46 25 32 40 37 38 38 28 32 32 29 37 32 38 45 38 37 34 44 62 64 63 59 58 54 57 43 21 20 26 37 34 36 44 61 59 67 41 18 37 82 104 94 81 74 69 48 63 91 90 99 104 86 73 81 76 62 61 51 45 47 70 93 84 81 90 95 99 105 105 117 127 141 152 148 144 153 154 154 155 156 161 160 159 162 160 157 156 149 147 140 126 99 69 30 37 42 32 38 33 36 33 39 37 37 39 48 39 37 35 51 53 62 60 56 62 42 57 47 18 18 39 34 30 44 56 71 69 60 17 25 74 100 93 81 77 83 69 46 47 89 110 103 100 78 74 68 64 43 42 29 33 49 78 96 108 119 128 130 131 138 140 140 161 166 169 169 161 162 171 169 168 170 169 168 169 170 168 167 166 162 161 159 159 151 137 87 42 47 50 47 49 53 46 49 47 50 43 48 45 36 36 50 53 54 56 49 45 44 36 47 19 28 31 34 30 63 56 75 72 49 11 46 100 101 87 65 82 105 90 66 38 36 71 84 89 75 60 47 34 28 23 22 52 89 123 137 148 150 153 152 153 157 162 160 177 178 181 176 176 176 174 172 174 174 171 170 171 170 168 168 168 168 162 167 160 163 158 149 131 70 48 49 51 51 44 51 65 68 66 58 51 40 33 53 58 57 56 34 40 33 37 37 21 31 26 27 48 53 51 83 69 35 15 64 98 102 91 91 81 92 91 61 46 27 31 32 32 28 26 25 22 25 26 50 102 137 149 154 158 157 160 165 170 172 179 181 183 183 183 182 179 179 179 174 177 175 174 176 173 173 171 171 167 166 164 163 163 160 165 153 146 135 88 64 78 78 75 75 84 83 78 64 55 47 40 48 58 60 52 46 24 31 33 39 28 27 32 30 38 54 69 82 59 33 28 64 94 105 109 112 107 100 97 76 54 36 31 40 38 28 29 32 34 38 48 89 138 150 155 159 161 167 169 174 176 177 183 184 185 181 184 180 180 181 177 174 176 178 177 172 174 173 169 170 168 166 165 161 162 162 161 159 150 144 133 91 69 76 76 82 83 90 83 68 58 51 39 48 56 52 43 45 29 21 29 29 29 27 29 26 44 71 75 91 64 46 34 50 89 117 128 131 119 109 106 102 102 93 74 78 79 64 67 52 53 72 94 131 152 157 161 167 171 177 180 177 178 180 186 186 185 185 183 180 182 181 177 178 177 177 177 173 174 173 170 166 166 164 165 160 162 159 155 156 153 143 133 122 106 85 70 69 74 75 77 77 67 56 39 49 63 58 33 32 29 21 26 23 25 25 24 35 66 88 86 93 60 60 31 54 93 113 118 126 137 136 150 156 154 141 120 106 87 84 81 95 107 129 144 153 162 169 175 180 183 184 186 183 181 185 186 192 186 182 185 181 183 183 182 179 180 175 175 175 177 171 169 168 160 162 162 159 158 162 159 155 153 141 137 128 116 107 96 98 96 97 93 94 73 58 40 57 68 55 37 31 27 22 25 23 25 26 27 55 88 108 94 94 69 71 29 76 131 144 150 150 160 162 161 171 164 168 168 165 153 149 148 148 156 164 169 175 176 184 185 184 185 189 186 184 186 188 189 189 186 188 188 183 184 188 181 177 178 179 175 177 177 171 171 168 164 159 162 161 157 157 155 157 151 147 138 136 131 113 114 113 111 115 114 107 73 63 53 45 73 47 37 22 27 26 25 26 27 25 35 60 104 110 105 97 86 66 58 111 139 148 148 153 155 165 163 170 171 170 177 176 178 183 184 184 183 185 186 182 185 187 188 185 186 186 190 189 186 187 192 189 189 187 184 184 184 186 181 179 182 182 175 174 177 175 171 168 168 162 161 160 153 158 153 153 153 149 140 132 130 123 116 124 122 126 124 115 80 71 66 41 60 52 33 23 22 21 25 21 24 25 39 65 102 109 111 104 89 66 92 135 145 148 151 152 157 160 162 168 167 171 175 175 175 184 184 185 185 188 189 187 188 188 187 186 187 189 188 190 187 187 191 189 190 186 183 183 183 186 182 182 183 182 177 174 179 174 171 169 166 162 158 157 153 156 153 150 150 150 144 136 129 124 124 124 128 130 129 110 88 86 60 54 40 49 40 23 20 25 22 21 23 27 34 70 101 108 115 121 109 98 123 139 141 147 149 150 155 156 163 161 166 171 174 174 173 182 185 185 186 188 188 186 189 188 187 188 186 190 191 191 187 187 190 192 188 187 189 185 184 184 183 183 186 180 178 178 177 172 172 166 166 163 159 155 154 155 156 149 147 146 144 136 131 124 126 128 131 132 125 100 98 89 65 54 48 39 37 28 17 23 24 22 26 24 39 68 96 113 125 128 125 124 129 137 146 144 150 149 149 156 161 164 165 172 173 178 171 177 182 184 186 188 186 187 188 189 186 188 190 186 189 188 188 188 191 193 187 187 188 185 184 181 183 183 182 185 183 178 172 172 172 161 165 160 157 159 154 155 154 148 145 140 143 138 137 125 128 136 134 127 117 103 101 96 62 60 48 33 31 24 22 24 21 20 21 23 35 62 85 105 122 130 134 130 134 141 145 143 146 150 149 152 157 162 167 168 170 177 177 180 179 181 183 185 186 186 188 184 187 185 190 186 187 187 186 187 192 190 186 188 188 188 182 188 185 179 183 184 183 180 172 174 163 160 163 163 156 159 158 148 154 147 142 139 135 137 133 128 131 135 134 125 117 101 106 91 67 60 51 31 25 27 21 24 21 21 21 23 37 50 78 103 116 129 128 133 133 139 142 145 146 145 146 151 157 164 165 164 170 175 174 174 177 175 181 183 185 184 187 185 184 189 189 186 185 186 189 187 188 191 186 184 188 185 185 188 188 185 180 183 180 174 175 171 165 159 166 161 158 161 154 146 151 146 141 138 135 130 128 126 130 131 133 125 112 103 102 88 67 61 40 34 23 27 24 20 23 27 25 24 29 48 78 104 117 129 129 131 130 134 141 144 143 145 144 146 152 160 161 164 168 172 169 170 172 174 177 180 180 182 183 182 182 185 183 182 185 185 182 183 189 187 182 182 183 182 182 186 186 183 183 182 177 175 175 171 165 160 165 159 159 155 152 147 149 144 142 138 136 132 131 130 130 132 129 123 109 97 97 75 64 62 37 29 22 22 26 23 19 28 22 23 31 47 75 102 112 129 133 133 132 135 139 144 143 146 145 144 147 157 159 159 164 168 168 174 175 175 178 178 179 183 181 181 182 184 181 180 183 185 182 180 184 185 179 182 184 181 181 184 179 181 181 179 177 172 170 169 160 159 163 161 158 152 150 147 148 141 140 129 132 135 131 130 130 131 126 119 110 88 91 58 53 51 37 25 25 17 26 26 23 21 23 21 27 45 81 101 119 129 134 134 131 139 138 145 142 144 146 148 146 156 154 158 162 163 165 173 171 175 172 177 179 178 180 180 181 181 186 184 183 183 179 182 180 185 183 181 184 184 181 183 179 179 180 177 178 170 172 165 158 158 165 159 155 148 150 149 147 142 135 132 132 131 129 132 129 131 126 119 111 86 84 55 41 39 33 25 19 21 21 23 28 28 27 24 19 43 75 102 118 127 134 138 133 134 141 143 143 147 145 148 148 153 157 153 159 161 164 166 172 173 169 171 173 174 179 178 182 179 184 183 183 176 182 187 184 186 184 187 183 185 182 184 180 184 178 178 175 170 169 162 161 162 160 155 151 146 146 144 141 142 141 131 133 130 130 132 130 131 126 121 113 92 72 46 40 30 27 28 24 18 23 19 24 34 23 26 15 45 84 105 120 126 136 139 136 136 140 140 142 143 150 151 149 156 157 157 155 160 163 168 172 172 169 171 172 171 170 179 176 177 180 178 179 182 180 182 188 187 179 181 182 184 181 181 178 176 176 172 171 169 166 161 159 157 153 152 147 147 144 142 143 139 137 133 127 129 129 133 133 126 127 117 110 96 68 43 35 30 23 27 25 22 21 22 23 30 24 28 14 50 89 109 117 126 136 135 140 137 136 136 131 144 150 156 154 158 163 160 163 159 162 168 171 171 172 174 174 171 171 173 174 179 179 176 177 181 177 177 184 187 183 181 182 181 174 178 174 171 171 170 166 164 164 158 157 156 155 149 144 146 146 141 142 141 135 132 128 130 130 129 130 129 120 121 112 95 67 41 34 27 26 30 22 29 19 18 22 28 30 22 14 50 101 110 117 125 132 140 137 134 137 129 128 138 150 153 158 154 160 163 166 163 163 170 170 171 166 173 175 173 173 177 173 177 179 178 180 180 177 176 181 181 180 177 175 178 176 180 173 171 171 169 170 168 167 162 160 161 155 149 149 150 146 144 145 139 134 135 131 133 127 125 130 125 117 118 116 92 67 44 30 32 26 27 25 28 20 23 20 29 27 24 13 64 101 109 120 125 130 137 132 132 132 134 135 142 149 156 156 155 155 160 168 168 167 171 172 170 169 167 170 174 176 170 176 176 181 182 177 178 179 177 180 181 176 176 175 174 178 176 174 171 172 172 170 168 167 164 161 157 159 151 150 151 146 146 142 138 138 131 131 129 130 125 128 121 120 118 119 98 71 44 33 33 29 25 28 26 23 28 25 27 33 21 16 64 109 107 111 124 130 130 131 132 132 135 137 139 146 151 155 154 161 157 168 169 164 172 172 172 167 167 168 169 177 179 178 179 180 180 183 182 179 179 175 175 174 177 178 178 179 174 174 170 170 169 166 169 175 162 159 162 156 152 152 153 152 147 143 141 131 131 126 129 127 125 123 122 118 122 116 105 77 42 26 33 27 20 27 27 22 28 30 27 46 23 14 73 103 106 109 119 126 128 130 131 130 135 138 144 150 147 151 157 162 161 162 169 172 172 174 170 168 169 173 173 175 174 172 175 181 180 180 180 183 178 180 176 177 180 179 177 178 175 174 170 168 168 165 169 171 166 161 162 159 151 157 158 152 145 144 140 132 130 130 128 125 128 124 121 118 114 116 110 98 58 25 28 28 22 20 24 29 22 34 21 75 29 14 74 105 109 106 115 125 122 127 132 132 138 141 143 150 151 151 155 162 158 161 166 171 169 168 170 175 171 171 178 178 175 177 178 182 175 179 180 181 177 181 177 177 178 178 177 179 177 171 171 172 170 170 168 172 165 159 160 159 157 157 159 148 143 139 136 130 130 131 126 126 126 124 120 120 112 111 113 109 81 37 26 26 28 16 25 28 28 26 25 73 61 20 70 109 109 109 114 122 121 123 132 139 142 148 149 150 154 155 158 159 163 165 168 173 166 166 169 172 176 175 177 179 178 177 184 184 181 177 177 178 176 175 175 176 177 178 178 178 177 173 171 172 173 168 170 172 165 163 161 162 164 161 158 152 145 141 136 132 131 126 130 124 124 123 116 116 110 112 113 107 97 55 24 28 29 25 25 31 39 27 37 68 79 47 67 108 109 105 111 122 123 132 132 137 145 147 148 147 157 159 160 155 164 166 167 168 174 170 172 169 171 170 173 173 170 155 165 177 179 176 177 178 175 176 179 176 173 178 177 176 175 172 173 171 173 166 172 171 169 166 166 165 164 160 158 154 148 147 137 135 131 130 124 125 124 121 116 112 105 109 114 104 99 75 19 28 29 32 24 45 71 43 32 67 72 57 71 111 112 102 105 114 117 126 125 120 120 129 126 132 143 151 156 154 162 163 165 163 168 173 168 168 163 168 167 165 163 141 143 164 174 174 179 177 172 172 177 171 169 171 171 168 164 170 165 173 170 171 167 172 167 165 164 162 160 160 160 156 149 149 147 138 139 132 131 129 124 120 113 112 103 109 111 102 110 83 22 24 28 30 54 65 79 49 52 71 73 61 72 108 114 104 98 107 105 103 103 98 100 110 109 110 111 115 126 133 135 141 138 144 151 153 161 163 157 156 160 163 159 153 155 163 169 170 174 171 173 170 172 167 166 166 163 163 164 165 167 169 165 169 167 164 162 161 159 154 151 152 147 146 142 142 139 136 138 137 133 132 125 118 115 109 110 108 105 105 112 83 22 24 29 55 74 57 71 57 72 72 63 73 73 98 112 104 97 97 98 97 88 90 92 96 106 105 102 95 93 95 90 100 98 99 99 112 126 142 144 143 143 151 151 154 159 163 164 165 170 167 165 164 165 159 162 160 154 158 158 156 157 158 159 158 150 143 143 143 139 135 134 131 130 125 123 118 121 121 113 115 123 125 117 116 115 110 113 104 105 105 115 82 20 30 48 79 84 58 82 79 83 68 65 78 82 80 113 105 94 91 91 95 90 96 104 108 115 114 117 114 106 94 82 78 69 74 74 83 91 96 116 120 122 135 137 146 150 156 159 158 161 161 158 157 151 151 150 146 139 139 146 136 131 126 123 116 110 105 105 101 98 92 98 100 109 107 105 113 117 108 106 106 109 109 109 111 116 112 114 107 97 107 118 75 32 48 65 92 102 64 91 77 83 67 63 82 85 72 108 107 94 94 95 91 94 101 114 118 130 140 141 138 143 136 130 113 99 89 99 109 101 98 102 104 116 126 125 134 136 140 145 146 150 152 148 150 143 139 140 133 125 112 118 113 105 102 90 80 84 75 75 77 86 96 110 115 121 122 123 119 122 116 114 113 109 110 103 110 110 111 115 115 105 109 117 56 37 75 83 104 109 90 80 76 85 73 64 77 79 78 106 111 105 84 76 80 82 83 96 100 99 106 112 112 119 120 114 104 104 91 95 122 118 123 118 113 103 112 113 119 120 122 129 135 139 138 142 143 149 149 144 142 136 124 121 121 113 105 95 93 94 90 102 113 120 128 129 128 126 129 129 126 126 120 116 109 108 102 106 104 102 110 118 113 110 109 106 51 36 84 98 103 114 106 70 80 86 70 65 71 66 77 104 105 85 79 85 95 96 94 95 100 101 101 103 104 106 112 107 103 109 102 101 101 96 91 93 96 90 104 141 120 101 95 108 108 114 107 116 119 118 109 110 120 126 125 131 120 130 132 134 139 160 118 93 125 118 121 137 116 121 128 106 107 114 114 113 110 102 98 102 104 103 115 104 87 108 106 95 56 39 64 88 103 122 98 69 79 82 71 62 77 69 91 85 79 95 109 101 87 88 83 80 92 84 88 82 82 83 81 76 81 85 87 91 93 88 88 92 91 95 89 106 142 111 83 98 115 113 110 113 115 111 102 98 97 133 145 126 106 109 110 110 115 120 123 119 114 116 113 112 113 113 125 105 103 98 89 90 97 98 93 102 106 107 110 97 84 105 97 97 76 41 58 83 93 114 97 65 81 85 72 59 81 143 99 62 89 112 118 115 94 78 74 62 78 85 82 72 96 101 87 76 76 118 86 80 93 94 88 87 91 95 96 92 94 130 111 126 138 144 151 148 138 127 102 80 107 128 112 108 104 106 107 104 105 105 102 100 99 101 101 94 93 106 105 110 122 112 103 106 97 91 91 80 98 106 104 102 97 99 88 78 77 65 71 91 103 130 83 67 79 84 72 67 43 107 137 95 94 113 121 117 113 90 73 55 67 80 85 86 117 127 108 106 95 97 100 94 119 111 98 91 97 98 97 97 89 103 132 130 160 164 165 165 163 150 125 116 117 104 104 106 103 101 98 96 99 97 88 85 82 72 73 87 103 100 106 97 100 103 94 104 94 92 102 109 83 74 105 111 102 101 84 70 79 76 93 108 128 124 81 63 79 85 72 71 38 36 72 99 100 110 124 129 121 108 83 73 66 85 110 123 128 145 124 109 112 111 109 126 151 140 115 97 101 112 105 100 98 93 117 134 161 171 169 192 212 163 115 127 110 108 108 108 101 95 89 93 111 104 76 54 94 82 61 88 122 104 88 97 103 83 78 93 96 96 102 108 112 93 60 103 108 97 87 70 88 102 95 128 134 128 64 70 80 81 69 65 71 81 90 88 108 108 116 128 130 119 108 95 88 72 80 108 123 133 136 120 109 111 125 132 133 123 117 114 109 123 121 105 104 101 118 109 120 127 130 137 147 125 96 97 112 112 105 116 98 81 87 97 126 123 82 74 72 79 89 97 132 127 101 87 82 89 87 94 104 115 112 113 111 107 94 111 120 91 79 68 95 120 106 137 131 104 68 74 80 87 68 63 72 93 95 88 108 105 107 116 128 125 119 110 105 95 78 82 97 106 118 119 120 119 127 124 126 128 132 146 133 123 121 112 109 111 131 122 137 159 173 166 150 131 91 98 117 115 108 125 102 87 102 105 122 144 119 104 100 98 99 122 135 120 103 95 87 97 94 102 109 119 124 110 110 110 101 113 94 66 49 80 95 122 128 131 112 95 60 76 79 85 68 64 74 94 98 91 103 106 101 107 122 130 123 117 113 103 96 97 91 89 91 92 89 107 124 131 131 139 137 142 133 117 118 122 109 113 124 121 146 168 178 179 167 151 101 97 118 124 117 121 113 121 117 113 121 133 138 135 130 124 127 128 119 108 91 83 90 98 100 103 114 114 116 115 122 109 94 100 56 48 56 90 90 117 130 117 117 78 66 75 82 83 68 62 79 98 98 94 104 109 103 107 122 132 133 124 118 112 108 106 105 107 105 109 108 105 118 131 137 135 130 123 121 122 128 119 87 106 112 129 167 184 188 182 178 157 104 87 111 117 127 124 115 115 126 123 121 118 120 120 124 131 117 103 93 89 87 86 97 102 104 102 108 107 120 130 132 110 88 103 92 82 87 96 90 116 132 124 122 63 71 74 81 83 68 63 82 94 99 92 102 112 104 105 121 133 140 129 125 121 121 107 92 114 119 119 118 113 117 117 117 113 119 123 132 138 131 111 84 92 104 149 178 185 184 180 178 172 121 78 104 86 122 139 129 115 123 120 120 125 126 116 110 106 101 101 107 94 100 95 103 107 105 102 99 100 109 134 133 101 91 102 95 82 92 98 93 108 133 128 107 56 72 78 80 86 68 60 84 91 104 93 96 110 107 105 116 130 138 136 132 131 128 113 85 111 125 126 126 117 117 113 111 113 128 136 151 152 113 143 125 76 112 157 178 184 180 173 173 167 149 71 84 133 106 131 148 131 122 117 111 109 117 111 104 104 100 102 108 105 104 107 109 107 103 106 103 112 113 122 125 99 94 104 92 84 94 101 92 99 134 129 101 58 71 79 80 87 71 61 83 87 101 94 94 108 107 107 114 121 134 141 143 139 135 130 119 118 120 118 120 114 111 115 125 132 141 146 150 141 107 91 88 84 133 158 174 185 178 173 174 167 150 99 64 126 110 108 147 149 134 126 116 107 104 104 107 111 110 113 113 116 113 113 116 114 109 106 115 113 118 117 117 103 98 107 98 87 95 106 96 93 137 131 113 62 69 78 82 83 67 60 82 88 96 105 91 104 105 109 109 121 130 136 147 151 146 144 138 127 119 111 116 118 122 133 143 145 143 152 149 127 112 100 87 106 135 152 174 184 179 173 171 165 151 129 75 87 90 104 133 151 145 134 129 123 115 106 108 109 109 112 115 118 125 119 123 119 115 112 123 121 117 117 111 100 104 109 102 90 97 104 101 88 134 125 115 58 75 81 79 85 71 62 77 101 75 114 109 103 110 108 110 114 120 130 138 140 153 145 143 147 145 134 136 138 138 146 150 143 140 150 136 122 106 92 111 131 137 150 174 185 183 174 168 160 141 139 112 95 96 105 122 152 143 133 131 132 131 122 117 120 116 122 126 129 130 131 126 121 121 125 125 119 119 110 108 106 105 110 92 96 96 106 103 90 128 114 85 74 72 82 84 84 67 62 77 94 88 81 134 121 107 104 108 113 119 128 139 137 143 145 144 150 156 161 151 156 151 152 146 139 132 135 126 118 95 110 134 134 136 144 171 186 180 177 167 150 141 134 136 108 95 101 116 141 147 137 137 136 135 131 133 130 131 135 137 136 130 138 134 132 132 132 130 126 116 113 106 109 115 104 96 103 97 104 104 90 124 122 75 67 79 80 85 83 70 64 74 88 89 87 89 134 131 108 107 115 120 133 141 144 150 148 153 155 157 163 152 155 156 155 146 128 124 139 126 92 96 129 136 130 142 149 169 184 182 174 172 153 137 135 138 140 91 102 111 130 143 142 141 140 136 138 140 137 142 140 136 139 135 138 141 141 140 137 135 129 122 110 107 110 119 101 97 106 99 106 103 90 114 117 65 74 75 83 82 88 69 63 72 84 90 87 96 93 124 139 123 118 129 136 137 146 149 145 147 152 151 155 149 145 153 149 141 120 120 134 113 82 111 134 134 133 145 152 170 184 182 176 171 164 141 139 132 140 117 84 114 129 138 139 141 139 140 142 140 144 141 145 138 140 140 137 147 142 142 137 133 132 124 108 107 121 116 94 106 103 106 101 103 94 102 86 67 77 81 83 83 84 66 66 67 81 93 88 95 109 98 98 183 172 139 139 138 136 141 143 139 145 144 148 143 138 143 146 142 117 109 114 84 92 116 125 133 137 146 152 163 182 185 178 168 165 148 137 136 129 135 105 90 121 135 136 138 141 144 141 142 146 143 142 143 138 139 139 138 141 143 135 135 125 120 113 127 125 98 95 107 107 103 102 104 98 71 67 76 77 85 84 83 84 69 66 67 81 95 88 95 99 101 99 104 166 165 159 158 154 146 142 139 140 143 143 137 139 134 138 144 120 92 88 88 100 122 123 132 141 144 150 160 182 187 176 176 160 143 140 136 136 133 135 97 93 125 124 127 134 136 131 137 140 139 141 139 145 137 140 132 128 129 135 132 128 129 144 122 97 96 102 109 105 105 105 101 95 62 71 75 78 83 89 85 86 68 71 60 78 95 93 95 99 101 97 106 97 102 106 106 110 120 139 133 132 139 134 131 130 119 115 103 99 107 112 91 118 124 130 131 142 148 148 157 178 193 184 172 155 143 137 142 138 129 136 140 94 81 115 124 134 126 131 131 135 132 130 135 137 135 131 133 125 139 154 155 154 149 111 91 100 103 104 110 107 104 99 102 91 61 76 76 80 82 84 84 88 67 72 60 79 91 95 97 98 105 109 107 105 106 102 103 104 104 103 105 106 109 102 105 108 112 114 120 125 135 114 103 128 128 130 132 141 149 149 153 173 194 188 165 152 139 139 140 138 128 129 148 135 77 62 95 128 141 141 141 147 150 145 144 149 151 149 151 158 169 194 186 124 97 98 98 99 104 107 113 104 106 100 104 81 62 76 82 80 84 83 84 86 68 69 65 71 92 91 101 103 106 115 113 113 115 114 121 123 128 126 131 132 134 129 129 128 133 132 136 138 137 114 115 135 130 137 135 138 151 150 157 176 194 189 168 153 141 142 144 140 130 134 147 143 107 90 81 80 88 98 105 122 138 138 132 135 127 118 113 103 100 111 100 95 98 105 106 105 114 111 111 107 104 101 101 73 69 76 81 80 85 88 87 82 68 69 62 73 87 91 98 107 108 112 111 111 110 115 125 128 123 134 137 136 139 138 133 132 133 132 127 130 134 109 121 133 133 140 141 139 147 150 164 176 192 192 171 151 143 143 148 148 131 138 139 139 118 106 113 116 112 113 110 108 109 110 106 108 107 99 103 97 105 106 104 112 118 111 108 110 112 114 107 107 108 98 98 62 76 78 83 84 84 81 91 85 71 67 65 60 93 92 94 107 104 110 107 106 106 116 123 124 133 133 137 138 136 136 134 131 128 125 117 125 131 107 113 119 120 137 140 138 146 153 163 173 186 190 175 162 148 146 148 147 135 130 127 126 107 114 124 118 111 113 120 125 130 129 130 134 134 128 123 120 127 125 111 120 118 112 110 112 114 114 108 106 101 104 84 66 80 78 86 83 86 84 88 87 72 68 66 66 78 94 92 100 105 105 110 102 102 112 120 122 130 131 130 134 132 130 130 125 126 119 119 128 135 115 95 103 104 113 131 132 145 156 159 161 171 172 168 162 142 137 137 128 123 119 117 105 105 123 128 125 116 106 112 116 126 121 127 134 129 126 117 118 124 119 113 116 116 109 109 111 113 112 106 106 103 94 80 67 79 81 84 82 87 86 85 89 71 69 68 60 76 92 92 97 100 104 105 105 104 108 115 118 120 122 121 124 125 117 119 114 118 117 127 133 144 124 106 87 70 79 98 115 130 143 149 151 148 151 154 147 131 124 115 107 101 97 90 88 109 125 126 126 122 110 103 109 117 119 118 125 122 116 118 118 117 117 114 111 110 109 112 109 114 111 106 109 96 91 98 85 80 82 81 85 83 86 86 86 69 68 69 66 62 88 89 99 106 107 106 101 104 109 108 113 111 109 112 115 114 105 112 108 115 125 133 143 139 135 115 102 61 45 49 84 99 120 129 130 126 129 133 130 111 102 87 71 69 67 78 100 116 121 121 128 132 120 107 95 108 113 116 118 118 119 116 118 112 113 106 109 108 107 108 113 112 110 105 109 91 87 130 139 115 88 82 85 85 83 88 87 69 68 70 64 65 77 94 97 102 109 112 104 101 105 108 105 105 106 110 111 110 103 106 111 120 134 140 142 138 139 131 119 85 54 39 49 77 97 109 113 114 115 116 109 91 75 59 64 77 94 111 122 121 124 126 135 134 125 119 100 91 105 108 116 115 115 113 107 105 102 103 106 106 110 109 113 108 108 107 107 89 83 128 136 149 150 101 81 82 90 85 87 68 69 68 59 78 82 88 98 97 107 111 110 108 101 106 102 102 103 107 108 105 103 101 118 119 132 140 142 139 129 130 139 117 81 56 49 45 64 81 89 91 94 90 82 64 67 89 98 110 116 126 123 119 124 128 131 128 125 122 109 94 88 101 109 107 114 106 111 105 94 102 107 103 111 111 113 107 111 102 103 88 36 133 110 124 145 166 133 96 86 88 84 70 70 66 59 85 104 79 88 101 104 111 111 109 110 106 104 106 103 107 109 104 98 107 122 120 128 136 132 136 134 133 141 129 108 73 64 55 56 50 57 61 62 62 61 79 99 119 121 124 123 121 122 121 122 128 126 123 123 120 113 108 86 91 102 110 112 104 110 105 108 108 108 107 113 113 111 109 109 103 104 78 46 105 133 106 107 147 153 149 124 98 89 67 69 83 69 99 113 74 80 95 101 108 109 113 114 110 104 108 107 106 109 104 96 112 120 123 123 122 127 126 130 133 137 140 127 106 89 74 63 61 56 60 62 65 81 103 119 126 129 127 127 125 125 118 121 125 126 121 119 121 118 112 98 85 103 110 108 107 110 104 110 108 111 111 113 117 109 107 108 105 101 50 73 88 135 123 112 116 150 169 157 148 126 86 109 134 103 110 109 54 75 95 99 102 108 113 115 114 111 114 113 112 112 106 102 110 114 117 116 111 120 119 127 127 130 137 135 128 117 104 87 80 83 77 83 94 104 117 126 129 129 131 133 126 124 121 123 119 119 116 119 122 122 110 102 92 103 109 108 113 109 108 111 109 113 112 115 113 111 108 103 107 87 41 90 85 133 116 145 116 136 165 165 159 158 141 164 148 99 121 107 39 65 90 96 92 102 110 115 116 111 120 124 121 122 117 109 113 107 105 99 96 101 116 124 127 131 137 139 139 131 123 117 112 114 120 119 123 126 125 125 129 129 128 132 128 126 127 121 119 114 113 106 110 120 112 107 101 112 114 112 112 110 112 112 113 114 111 114 111 107 108 101 99 70 40 100 96 114 126 146 140 120 170 170 164 166 160 163 130 99 124 102 48 23 83 90 96 95 108 111 113 117 121 126 132 128 123 115 112 104 89 71 57 72 89 109 123 120 126 130 129 127 119 119 121 132 134 138 130 138 130 127 120 118 118 118 121 123 119 119 114 108 92 81 88 110 112 109 112 116 117 115 108 112 112 111 110 111 109 110 111 109 102 108 63 57 63 95 114 90 141 141 133 132 168 173 166 163 160 155 111 115 118 110 56 20 56 91 90 90 100 107 112 116 120 125 133 134 128 119 118 106 104 104 92 56 52 60 76 83 91 95 104 101 100 99 104 113 121 124 124 118 117 112 97 99 99 99 97 94 92 89 77 63 61 72 83 101 111 113 117 118 120 114 109 112 110 111 108 112 107 110 109 102 107 92 23 54 91 98 122 83 142 137 124 139 168 173 155 163 155 131 97 128 116 116 64 22 35 85 87 89 96 106 110 113 112 119 128 131 133 130 125 126 132 134 135 110 91 78 77 59 58 60 68 77 79 83 78 86 91 94 97 96 89 92 79 77 73 74 64 59 67 60 60 78 108 117 108 106 113 116 116 119 122 119 113 111 109 113 110 109 108 106 104 102 107 68 6 60 91 103 130 87 131 142 131 149 166 169 153 165 152 110 104 133 117 122 72 25 43 88 79 87 94 97 106 107 111 115 122 132 131 132 132 133 141 150 144 133 111 98 114 109 92 60 39 38 41 48 51 52 58 62 65 63 57 60 56 41 37 41 62 72 94 88 87 111 127 131 117 118 112 123 115 118 122 118 116 113 110 109 110 108 105 105 103 97 96 41 11 72 95 106 131 95 116 138 128 155 168 166 159 166 148 95 116 135 124 128 71 33 49 87 69 83 88 95 101 104 108 116 126 128 130 128 137 141 142 149 146 134 120 100 103 122 132 119 98 82 60 52 41 46 45 41 36 45 37 42 64 69 77 89 102 106 98 92 107 120 130 132 122 120 119 124 124 120 119 116 113 109 112 105 103 107 105 104 103 90 71 23 25 78 100 106 134 107 99 151 140 167 163 161 166 176 152 96 131 135 130 135 86 47 55 78 64 81 82 90 95 99 105 112 122 127 124 125 132 140 141 144 147 131 125 117 99 117 119 135 130 130 127 114 110 102 97 90 91 94 93 97 96 99 107 107 97 99 96 105 118 125 128 130 131 126 122 126 127 122 115 114 108 113 106 105 102 101 102 96 99 70 49 20 32 81 102 112 138 120 85 148 152 167 163 169 166 169 156 99 141 134 130 139 91 69 61 64 69 78 80 82 88 94 103 105 118 124 124 122 126 134 133 143 146 137 122 126 110 108 107 115 134 151 141 140 145 140 140 131 122 121 124 117 119 113 107 103 92 96 105 113 114 122 126 125 125 121 123 125 121 119 113 111 107 107 105 103 100 102 96 96 75 57 41 20 51 84 119 122 133 130 77 144 157 171 161 162 170 173 151 105 154 142 138 130 110 77 71 47 75 75 72 81 80 86 95 104 108 114 122 123 124 122 132 138 144 142 131 116 115 107 103 101 109 130 137 132 143 144 148 142 132 133 129 124 114 109 94 97 95 100 110 115 116 122 125 120 118 114 116 120 114 114 110 106 103 102 106 100 100 95 97 77 57 53 32 29 68 90 136 135 129 125 69 143 151 167 169 176 169 171 142 103 160 143 152 133 124 78 90 42 78 66 71 76 80 79 87 98 103 111 115 125 126 125 127 135 138 142 133 121 108 104 104 102 98 109 122 115 121 129 135 129 121 121 115 113 104 97 95 97 102 106 110 117 120 124 125 120 113 110 110 112 110 110 109 105 101 104 100 96 97 92 84 54 56 46 22 63 76 105 150 144 119 124 70 142 143 172 161 171 169 181 133 100 166 136 163 147 122 87 100 49 65 68 69 74 75 77 80 92 98 109 111 118 125 124 125 132 136 137 138 129 118 102 93 90 92 98 106 104 105 109 118 108 106 109 102 98 99 91 94 97 99 110 116 121 123 125 125 113 108 111 108 98 106 108 104 101 97 97 96 94 96 76 58 55 53 34 22 88 90 125 152 147 116 121 85 143 141 156 171 177 177 167 131 102 171 141 166 156 147 76 120 79 70 61 70 73 74 75 75 84 92 102 106 112 115 122 119 130 132 137 139 137 134 119 107 95 80 80 87 81 82 81 84 83 84 90 85 87 83 92 94 106 105 116 122 122 120 121 120 109 108 108 109 108 103 104 101 96 95 100 90 89 79 54 53 56 48 31 42 115 96 142 146 143 112 129 86 141 142 157 165 173 178 161 129 109 171 147 163 159 177 80 138 72 75 60 66 76 72 71 72 77 84 96 100 101 106 116 115 119 127 135 137 141 133 133 124 116 99 92 84 79 77 72 72 71 72 79 84 84 95 105 103 114 116 125 126 122 118 116 116 110 106 105 106 105 107 103 96 89 94 91 88 73 53 53 58 51 41 39 70 108 104 151 144 132 116 130 80 141 144 154 175 172 164 157 126 112 174 150 169 160 196 102 133 100 76 69 60 74 75 70 67 74 74 82 90 97 95 111 111 118 123 130 136 142 141 131 128 129 121 117 106 103 102 101 100 102 104 106 105 106 112 113 120 122 124 126 126 121 118 114 111 110 104 103 103 98 101 98 89 89 88 83 76 49 55 57 55 49 39 54 79 100 115 154 140 127 120 135 82 144 141 154 167 176 150 155 127 103 174 153 175 166 193 134 114 121 69 90 62 67 75 73 68 69 74 72 74 86 95 107 109 117 122 126 129 141 141 141 137 141 138 132 125 122 123 117 118 119 124 123 122 119 125 122 131 129 129 122 125 124 115 115 110 111 102 102 100 98 95 90 82 85 82 65 50 54 57 57 48 48 54 62 90 109 127 141 134 116 130 138 77 142 141 155 168 159 154 159 129 110 173 157 176 174 197 159 118 135 81 99 94 60 70 72 72 63 64 72 71 75 82 95 106 107 117 119 125 138 141 147 150 150 154 147 143 141 137 136 133 134 135 132 135 131 136 136 133 130 125 120 123 123 111 108 104 104 102 97 90 89 86 86 78 74 64 48 51 57 63 47 49 54 80 71 99 115 129 137 143 122 129 142 73 146 137 150 159 150 160 163 134 114 173 158 172 173 192 173 144 130 90 77 115 86 59 69 74 70 62 61 70 71 75 83 96 103 111 112 120 129 136 144 145 147 151 153 152 151 157 153 149 145 141 136 129 137 138 135 137 131 126 117 114 117 112 103 107 103 94 90 88 78 81 77 74 52 52 56 58 58 55 53 43 74 78 103 103 120 127 143 131 125 132 159 83 139 142 141 149 162 156 156 139 114 164 163 162 174 181 183 158 143 123 78 103 112 72 59 68 71 69 60 60 68 73 69 85 93 97 108 117 119 121 130 136 142 140 143 148 146 147 153 157 153 145 138 131 137 142 134 127 125 121 116 115 111 107 102 104 96 86 81 80 74 77 67 51 46 54 58 56 57 50 52 58 84 77 112 107 122 111 136 122 131 122 160 88 130 150 142 150 151 141 148 139 116 160 167 161 186 166 183 168 141 158 99 103 106 105 61 60 67 68 67 64 54 66 65 72 85 92 100 108 112 118 118 124 133 130 139 139 141 137 144 146 143 147 141 137 139 135 135 116 111 113 114 108 103 98 100 93 82 78 72 75 73 69 48 48 50 52 59 56 55 52 57 90 95 96 98 92 88 81 78 73 76 72 111 91 124 152 147 146 140 128 129 142 119 149 177 153 192 163 185 166 156 154 134 110 102 118 93 53 59 65 66 68 58 51 53 66 70 79 87 96 106 118 123 121 123 123 134 128 131 134 136 137 136 133 135 135 128 128 123 114 104 102 103 98 95 93 89 76 72 72 73 72 57 46 49 47 52 57 60 58 52 60 96 100 111 105 38 35 29 30 39 45 53 55 40 24 104 153 136 130 139 119 116 137 128 136 180 158 194 163 184 148 157 156 140 103 123 108 122 85 51 58 61 64 58 57 50 46 61 70 73 82 94 104 114 110 113 116 122 125 122 127 128 125 129 124 117 131 122 115 111 108 101 96 100 93 92 82 66 69 72 77 55 45 41 44 48 44 56 58 73 61 73 106 119 120 100 46 49 49 48 59 87 115 117 130 112 61 56 143 140 102 106 138 151 147 135 120 182 164 196 170 190 154 146 159 161 109 135 120 106 125 81 49 54 60 58 58 57 48 45 51 67 70 75 89 97 98 103 104 106 103 110 113 114 117 114 113 110 112 113 110 103 94 99 94 89 84 75 67 68 70 66 51 39 42 40 49 49 58 87 110 137 141 129 136 119 82 64 94 104 78 99 110 113 136 137 149 128 104 93 129 129 106 124 140 172 154 155 93 181 161 192 179 189 172 159 151 159 126 129 138 113 116 122 75 42 51 55 56 54 50 51 48 45 54 63 72 75 85 90 91 90 90 95 95 97 102 104 102 100 97 102 99 91 87 88 79 75 67 70 70 65 51 43 37 44 37 50 63 86 108 125 133 137 134 116 100 63 74 116 135 109 99 114 117 116 138 140 150 130 95 104 120 121 122 123 125 161 154 169 98 165 163 177 180 181 174 156 155 156 156 118 147 127 113 123 115 69 44 49 49 54 51 49 50 46 46 46 52 60 72 77 79 80 79 87 84 88 84 85 89 89 87 83 83 79 78 73 72 69 65 63 50 42 42 41 39 41 47 90 94 104 109 114 95 87 100 67 55 105 126 133 142 107 108 118 124 112 148 144 143 123 111 104 116 142 132 145 121 132 120 175 110 152 168 174 190 184 177 163 159 162 157 135 142 153 118 118 112 113 86 42 40 49 47 49 48 49 44 45 45 37 42 57 66 68 72 74 76 78 75 73 76 77 79 74 71 73 67 69 60 54 49 44 37 43 42 38 36 40 87 108 100 85 86 77 83 84 78 99 118 139 145 141 127 102 113 120 127 118 154 144 131 103 86 101 123 150 142 155 146 140 95 168 125 149 172 168 194 174 181 156 150 150 106 111 141 156 138 116 119 107 132 79 47 37 40 45 45 43 44 42 42 40 38 39 34 42 48 54 61 65 65 66 65 64 61 64 53 55 46 44 44 43 44 44 44 38 41 37 58 105 111 95 98 107 103 93 105 133 145 149 141 139 144 149 105 111 125 125 125 127 134 100 71 67 81 101 126 150 138 151 156 165 89 165 127 146 176 161 181 146 137 96 70 64 44 33 141 156 137 135 111 136 140 110 81 54 38 39 38 36 37 36 38 35 35 35 33 35 35 34 39 42 38 41 41 40 40 40 41 44 45 45 48 43 43 40 39 36 56 82 93 90 92 99 110 116 122 133 147 154 157 146 145 133 147 148 99 111 121 129 122 99 84 87 67 71 89 101 125 146 144 154 149 166 104 154 139 134 170 127 86 76 67 58 55 52 55 41 58 152 158 147 126 156 179 122 103 77 74 59 48 34 31 31 36 32 34 31 34 33 33 34 37 34 38 34 39 38 37 40 42 44 41 41 37 41 38 34 37 75 99 98 92 86 106 129 143 151 152 155 151 155 152 141 150 138 133 141 97 119 120 114 104 87 88 97 99 106 106 120 114 131 142 143 148 157 101 147 154 124 113 60 33 48 63 74 69 83 90 77 43 58 134 149 148 136 156 148 125 99 96 96 89 63 47 37 44 47 36 36 30 29 27 34 29 31 29 34 32 37 30 37 35 39 36 36 39 47 42 51 89 125 122 126 133 148 147 148 155 151 152 150 146 148 150 142 145 137 122 130 96 122 117 86 74 84 96 111 126 134 133 124 126 137 143 155 139 149 104 148 160 120 35 41 51 49 54 82 99 120 131 104 76 57 59 85 126 152 144 151 142 135 143 117 110 81 82 62 48 52 53 47 45 36 26 28 28 27 29 32 27 33 36 36 35 49 56 55 75 91 114 125 123 144 143 141 141 158 149 141 149 144 147 143 144 148 151 143 142 128 92 124 106 105 99 86 74 96 119 123 138 141 126 119 143 153 138 162 122 122 