P2
92
112
255
98 98 101 100 96 98 99 97 97 98 95 96 98 99 94 98 98 98 96 95 100 96 95 98 94 97 95 96 97 92 88 72 56 45 42 40 38 35 37 37 40 41 38 34 36 33 35 36 38 37 37 38 45 53 66 80 83 93 96 96 93 94 95 95 93 93 93 91 89 86 87 88 88 95 91 91 93 91 91 92 89 89 92 93 90 91 90 92 87 89 91 92 96 97 98 101 98 99 99 96 98 98 97 97 98 97 99 99 100 95 97 98 100 96 96 98 96 97 95 94 85 71 55 44 43 38 40 33 32 30 30 31 30 35 32 31 33 31 31 37 32 39 33 38 39 41 43 48 55 63 68 82 85 92 91 92 91 89 85 78 75 62 63 65 67 73 81 83 91 91 93 90 91 91 91 92 91 90 91 90 93 91 89 91 99 98 97 101 95 99 98 99 95 97 98 99 96 95 100 96 99 95 98 97 97 98 96 97 97 88 81 75 52 50 38 39 35 32 29 28 30 36 31 33 29 30 26 26 26 29 25 34 31 38 34 36 35 37 36 38 36 41 38 46 53 70 78 85 85 86 83 83 85 87 85 77 72 66 64 68 77 84 88 88 91 88 88 86 89 89 90 92 90 92 87 90 100 99 98 99 100 97 97 99 98 100 99 98 99 95 99 98 99 98 95 99 98 98 94 86 75 62 50 50 40 43 35 36 33 31 31 32 35 31 31 29 27 28 29 30 29 31 34 38 38 38 40 33 35 34 34 34 32 31 33 33 34 37 49 58 70 82 82 85 85 94 83 85 84 78 75 69 72 74 80 84 89 88 89 85 88 85 87 90 92 89 89 90 97 98 99 97 99 95 102 98 98 99 97 98 99 96 99 95 100 96 99 99 99 91 81 60 44 40 40 42 45 51 47 37 36 32 37 41 39 37 34 32 33 35 38 34 34 34 29 31 30 33 33 35 37 34 37 32 35 32 32 34 30 36 30 35 35 50 67 76 86 83 89 90 93 91 89 78 80 70 70 78 87 88 93 86 88 87 88 91 90 91 89 90 100 96 102 100 97 100 100 100 99 101 97 100 98 98 98 100 95 100 99 97 84 73 47 48 44 44 44 47 53 50 41 41 39 48 52 52 49 43 39 38 43 36 33 29 27 24 24 22 24 25 27 25 28 32 28 32 31 35 28 31 29 33 31 33 29 26 29 41 54 68 82 85 91 94 91 89 88 76 64 64 82 89 92 88 86 87 87 90 89 89 92 88 100 99 96 101 95 97 97 98 98 99 96 98 98 98 99 96 98 100 89 78 60 48 46 46 45 50 54 55 53 50 53 54 59 62 62 57 50 41 38 36 33 29 24 28 27 24 23 21 26 17 22 24 24 25 28 23 22 25 26 29 30 28 30 32 28 33 28 27 25 28 44 61 75 87 88 90 93 87 72 63 67 83 86 91 85 84 89 89 86 91 87 94 99 97 100 102 96 99 100 99 97 99 100 96 102 96 100 99 91 85 69 60 48 39 36 39 46 58 65 61 56 51 44 47 52 54 52 52 51 50 49 48 39 39 34 36 28 32 26 27 27 23 27 24 26 26 26 27 26 22 20 27 26 27 33 30 31 33 26 27 30 25 28 28 40 54 73 85 87 92 77 66 62 67 84 91 85 88 86 88 90 88 88 91 99 96 101 101 96 102 99 98 100 97 100 99 98 98 96 90 78 69 53 46 36 36 36 45 55 59 64 47 45 41 44 51 54 57 60 60 63 56 51 45 42 36 35 34 30 32 29 33 31 30 31 34 34 33 33 34 33 34 32 28 28 25 26 28 29 31 28 25 24 24 23 24 26 27 35 49 64 78 78 68 56 60 78 87 86 87 87 86 90 90 91 89 101 101 101 99 98 100 100 100 93 102 100 101 96 95 84 71 64 54 43 40 39 39 43 46 48 40 40 39 41 44 44 45 48 46 41 40 33 31 26 28 31 24 24 33 32 39 41 39 36 34 34 28 31 28 29 29 27 33 30 31 31 30 33 29 31 29 31 28 32 27 28 25 24 27 22 28 30 41 51 52 53 61 72 85 85 86 87 88 89 91 88 90 100 100 100 100 99 100 98 101 101 95 103 96 95 79 64 53 56 53 46 42 36 38 42 35 33 39 43 48 48 45 38 36 37 32 33 28 29 29 28 26 30 32 30 45 49 52 51 44 35 34 31 28 24 24 23 23 25 26 28 25 28 32 33 39 37 39 30 34 26 30 31 25 29 25 26 26 27 27 29 30 32 50 61 79 81 83 86 88 86 90 90 89 102 100 97 103 98 96 99 101 95 100 98 93 79 66 61 60 52 41 44 46 44 42 39 36 43 48 54 49 46 37 33 38 39 43 42 37 34 35 35 37 41 43 44 53 53 61 51 49 43 39 37 34 31 31 30 32 34 34 35 37 39 35 36 35 42 34 38 39 29 31 33 32 30 30 25 25 30 27 27 29 28 40 50 68 78 88 89 87 89 89 88 94 100 101 100 101 100 100 100 99 101 96 96 80 78 63 61 54 53 56 60 58 49 46 43 54 57 59 58 48 38 35 39 45 46 47 44 37 39 35 42 39 49 53 52 51 46 47 46 44 41 38 42 42 39 35 37 36 36 37 36 37 34 37 36 38 40 37 38 35 36 31 37 35 32 34 29 26 20 23 26 28 32 36 41 59 73 86 86 91 86 93 88 91 100 101 100 103 101 100 103 100 99 92 83 72 69 66 61 68 67 71 65 62 53 54 50 61 65 62 60 44 41 45 45 52 51 51 45 49 48 38 43 37 40 35 39 34 38 38 39 34 34 38 38 39 44 46 49 46 44 42 39 39 35 35 35 32 32 33 34 32 33 32 30 31 31 31 33 33 28 29 29 32 28 33 26 36 62 74 85 90 86 92 89 92 101 102 101 99 99 100 100 91 90 75 74 70 65 64 58 61 55 61 61 58 53 59 61 63 63 49 40 35 34 43 41 50 52 51 58 57 62 60 59 56 51 48 50 48 47 48 42 37 36 37 31 32 33 30 38 38 42 46 44 38 41 34 39 35 32 30 31 29 30 34 30 32 30 29 25 28 25 28 29 27 27 26 22 21 33 56 76 88 87 86 89 89 104 100 98 99 102 98 97 85 70 60 62 59 61 63 64 61 64 63 61 53 61 61 54 44 30 24 21 35 44 50 53 47 46 44 41 46 52 63 63 58 49 44 45 42 42 38 35 31 29 26 30 26 26 24 24 26 32 39 42 45 44 39 35 34 32 33 32 28 31 28 29 28 28 28 31 30 28 28 27 25 21 21 21 21 22 31 51 69 84 82 88 86 101 99 103 99 100 93 77 54 48 47 51 55 69 68 69 63 63 63 52 48 46 39 30 24 22 30 37 40 44 45 46 41 43 48 42 48 52 54 61 54 52 42 43 34 35 28 28 31 26 32 32 29 32 34 34 33 27 27 35 34 48 48 46 39 37 35 33 31 31 32 27 32 27 23 27 25 28 27 24 28 24 26 18 20 31 39 36 49 65 86 84 90 95 103 101 103 91 78 48 44 37 50 51 49 50 49 59 67 65 58 46 35 31 27 28 41 52 69 79 79 75 67 60 51 48 47 46 48 51 53 55 55 56 51 55 51 50 40 40 33 34 30 30 30 34 35 35 35 30 33 28 28 30 41 45 47 47 40 41 41 38 36 32 32 33 29 28 21 25 23 24 22 23 26 25 21 34 40 47 43 55 68 86 89 101 101 100 94 76 50 41 39 40 38 34 31 38 52 64 64 59 51 34 37 28 45 62 78 87 86 85 76 74 72 69 62 53 48 40 39 39 36 40 43 39 42 44 45 42 40 33 34 26 28 27 28 30 31 33 38 35 39 39 39 39 38 41 41 41 47 48 52 50 53 51 45 37 35 27 31 23 30 25 23 24 24 22 22 26 34 49 46 46 50 69 85 99 101 94 84 51 37 31 35 29 26 27 36 47 62 64 60 56 51 41 41 40 66 77 85 86 83 86 84 84 80 73 66 63 52 50 42 44 36 30 32 33 39 40 43 42 32 33 30 35 34 38 42 47 47 52 57 57 56 59 60 63 66 68 56 48 43 37 42 44 52 60 58 51 41 32 30 28 27 25 23 26 25 25 23 25 27 40 54 50 47 41 66 103 97 87 64 36 27 26 25 26 22 40 48 61 65 55 61 53 52 41 44 68 83 90 92 80 76 80 81 85 91 89 84 82 77 73 68 65 51 49 56 59 67 61 52 45 40 46 50 60 68 72 79 84 88 89 88 92 96 101 100 101 101 100 99 89 66 46 33 31 35 47 48 53 49 44 42 39 33 29 27 26 27 29 28 28 32 26 41 43 50 46 52 100 86 60 35 25 25 19 27 27 38 48 62 64 62 60 61 49 48 45 67 84 89 88 73 67 71 73 87 92 99 98 93 86 86 81 72 73 61 68 81 87 83 74 72 64 73 79 86 90 105 110 122 121 126 126 128 126 130 127 134 132 131 132 129 123 110 92 68 41 32 34 35 46 46 47 44 40 39 29 34 32 32 27 29 37 41 41 35 45 55 51 50 77 53 27 24 22 21 24 30 35 45 46 57 63 66 67 56 46 50 63 88 94 91 84 76 63 69 74 86 102 100 96 88 79 76 66 60 48 42 56 64 79 87 97 101 109 112 114 115 123 134 142 146 149 149 151 152 153 154 154 157 153 155 152 152 145 141 135 118 99 68 49 35 33 37 35 29 36 35 37 34 36 36 31 32 37 45 55 50 47 51 54 51 47 28 23 22 25 23 27 33 39 39 50 60 73 70 65 53 42 59 80 93 92 89 85 88 80 64 65 71 86 96 95 88 74 58 46 35 34 35 56 86 104 123 132 138 138 141 141 146 150 158 163 165 166 164 162 166 166 164 164 162 160 162 162 163 160 159 157 151 144 126 101 69 42 38 38 34 39 33 44 37 41 36 40 34 36 46 60 62 61 59 52 52 30 22 27 23 23 28 25 32 35 43 58 63 79 72 65 53 46 76 85 97 92 91 93 94 89 76 54 40 43 46 45 41 34 33 28 27 36 69 93 123 134 146 149 151 154 158 160 166 168 169 172 173 173 172 168 171 167 168 167 168 163 162 162 163 158 161 161 160 161 157 141 123 88 61 46 44 44 47 45 46 43 41 40 31 39 41 54 57 62 58 54 57 24 22 24 24 25 27 27 32 38 51 55 68 74 75 59 52 58 70 91 99 98 97 92 86 79 70 51 38 31 29 30 25 27 29 33 35 62 95 120 139 149 154 155 161 160 168 171 173 177 177 176 177 172 174 171 171 170 171 168 167 168 164 165 163 159 161 158 158 162 160 158 145 130 98 73 55 50 51 53 58 57 57 45 35 39 42 53 58 51 45 49 51 19 23 26 25 25 28 28 33 39 46 56 74 80 82 69 51 52 75 98 116 126 129 124 117 105 95 80 73 69 68 63 64 58 53 55 71 96 123 135 152 158 161 168 170 170 172 175 174 178 179 177 178 176 173 175 172 170 171 170 168 168 165 166 163 161 161 162 157 161 160 159 154 144 124 104 78 67 68 70 72 71 63 54 40 37 45 58 57 50 36 37 41 28 27 28 24 26 27 29 30 34 49 67 87 91 84 72 54 53 69 96 112 121 123 121 130 136 143 144 136 121 107 91 88 87 96 108 123 138 150 160 166 173 176 181 177 180 176 178 177 181 181 179 177 177 175 173 173 172 170 171 168 169 166 166 161 160 159 160 157 156 156 153 152 149 135 121 100 86 68 73 74 72 69 59 47 43 43 53 54 47 38 25 31 28 23 28 24 26 26 26 33 41 66 86 97 96 91 77 60 64 93 115 134 143 147 152 159 162 165 169 165 159 155 149 140 139 147 154 159 169 172 178 181 182 184 182 182 184 183 183 181 181 182 181 179 179 176 177 175 175 170 173 172 171 166 166 164 160 159 159 152 155 154 149 149 144 138 123 114 101 90 82 79 77 72 65 54 45 44 48 50 38 33 27 26 21 25 26 25 24 25 29 37 66 90 100 107 104 95 82 71 86 111 134 148 151 155 157 163 166 165 175 173 178 180 184 181 183 183 181 181 184 181 184 184 184 184 184 184 185 184 185 183 180 182 179 180 180 175 177 172 176 172 173 172 169 169 167 166 159 161 156 153 154 151 151 146 146 138 130 123 112 102 104 96 101 93 83 66 47 50 49 53 37 31 24 27 23 21 24 25 27 25 32 49 79 99 111 110 108 101 85 87 105 129 142 150 151 155 157 162 164 165 172 174 175 182 181 182 184 184 185 186 186 186 185 186 184 185 187 182 186 184 185 183 183 181 183 177 178 176 175 179 173 176 171 173 171 168 168 165 158 159 158 155 150 154 151 146 144 138 132 124 118 112 112 111 112 105 86 74 53 50 51 49 36 28 26 30 27 25 25 25 27 28 37 54 82 99 112 111 111 106 95 106 123 138 147 150 151 155 153 159 161 165 169 173 175 181 178 182 183 184 184 186 188 186 185 187 185 185 187 187 185 186 186 184 185 182 183 182 180 180 178 176 177 178 174 175 173 167 168 165 160 160 154 153 150 151 148 145 143 141 131 124 119 115 114 118 118 111 98 84 54 61 46 46 37 24 27 27 29 24 26 25 31 32 39 62 85 99 111 117 125 125 126 128 136 144 145 149 149 151 151 156 161 164 168 174 176 178 179 179 183 186 185 186 188 184 186 188 187 185 187 188 186 185 187 184 186 184 183 182 180 180 175 179 177 176 178 175 169 168 168 161 161 157 156 153 149 150 147 143 143 136 132 126 120 120 117 124 121 112 103 84 63 57 49 44 35 28 20 24 32 24 24 30 26 31 38 56 80 99 113 120 129 133 133 136 138 145 145 148 151 149 154 154 158 164 168 171 175 179 179 182 182 184 183 184 188 185 185 187 187 186 186 188 186 187 186 185 188 185 185 183 183 181 179 179 180 178 174 179 171 171 167 160 159 156 155 156 150 148 146 143 141 136 132 129 125 123 123 123 119 112 102 83 72 55 51 42 33 28 22 26 38 30 24 30 24 30 34 53 73 89 108 116 129 134 136 138 141 142 146 149 147 150 149 156 160 162 169 170 171 178 176 177 179 181 183 184 186 185 186 186 186 186 187 187 186 187 187 187 186 188 185 182 184 184 181 181 180 179 176 176 172 168 166 161 158 156 156 154 151 147 146 139 140 134 133 130 127 126 126 125 121 108 102 88 75 63 41 38 32 27 22 19 43 30 29 29 27 27 34 47 63 86 103 116 126 132 135 137 137 143 143 147 147 149 148 154 153 162 164 170 171 175 174 174 175 175 181 181 183 185 184 186 185 182 184 186 185 184 187 187 185 187 184 181 181 182 181 183 180 180 178 176 174 167 166 161 158 155 157 151 149 144 144 139 138 133 127 125 123 120 125 122 120 111 101 92 76 63 47 39 26 29 21 21 45 31 26 29 22 26 35 39 65 83 103 117 126 131 135 136 137 142 142 147 147 149 148 153 151 157 161 167 167 175 173 175 178 176 178 182 186 184 185 185 185 182 184 183 181 183 185 185 182 186 183 184 181 179 179 177 177 176 175 174 170 164 165 159 155 156 152 152 147 145 142 135 139 132 129 126 123 124 123 122 116 108 101 89 77 66 46 36 29 24 24 23 48 30 30 22 25 24 35 45 63 85 107 115 128 132 136 136 139 142 143 148 149 149 148 152 152 155 160 162 164 168 172 172 178 178 178 182 184 182 185 184 185 184 186 186 183 181 180 183 179 187 182 182 184 180 179 176 176 176 172 173 170 165 161 155 156 152 153 148 145 145 141 136 132 128 127 126 125 124 123 120 112 103 94 80 69 62 43 35 23 26 21 22 50 30 25 29 23 26 27 37 65 82 106 117 128 134 136 139 140 142 144 146 149 149 150 152 153 153 160 159 161 167 170 169 175 174 175 176 176 182 180 186 185 183 186 184 184 181 183 185 187 187 185 186 183 182 183 178 178 177 175 173 169 164 161 157 154 156 150 147 145 142 141 137 132 131 124 124 124 124 120 120 111 102 88 74 58 52 40 32 23 23 25 24 52 32 29 23 25 27 25 43 60 86 104 119 127 134 139 142 141 143 144 147 149 147 153 152 157 156 161 163 160 164 171 169 173 174 174 175 178 177 178 179 180 179 181 182 183 182 185 187 185 186 186 179 184 184 180 178 178 171 170 171 165 161 158 154 152 150 148 144 142 139 139 134 131 130 127 123 127 124 124 122 112 104 86 63 52 41 32 30 21 22 20 24 47 41 22 27 22 25 27 41 73 92 111 123 127 135 140 141 143 145 143 142 144 145 152 158 157 161 162 164 164 165 167 170 172 174 175 173 176 176 175 179 179 179 181 183 181 181 185 183 185 184 184 179 180 179 176 171 174 167 165 167 163 158 157 154 150 148 145 143 141 138 138 135 133 126 125 123 124 125 122 120 113 102 85 64 39 35 28 26 22 20 22 22 47 42 26 22 24 24 29 48 72 98 116 120 129 133 139 142 142 144 139 137 141 145 153 158 158 163 163 164 165 169 169 171 171 172 173 173 178 174 179 177 178 175 181 181 180 179 180 179 181 182 178 179 174 178 174 174 172 168 167 166 162 161 156 156 152 148 145 142 142 139 140 135 131 125 127 121 125 121 124 119 110 100 83 57 41 30 28 23 23 21 23 20 58 46 27 29 25 22 29 50 87 103 118 123 129 133 139 137 143 141 139 142 146 149 152 157 156 156 161 161 165 170 171 172 173 174 173 172 175 178 174 180 179 180 184 182 182 179 181 180 181 177 178 173 175 174 173 171 169 168 164 168 162 161 160 155 154 149 146 145 142 140 139 135 133 130 128 122 126 122 120 117 109 100 82 59 36 29 27 29 27 26 18 22 61 52 39 26 27 20 35 61 93 108 117 121 127 133 136 137 140 141 138 140 144 148 148 155 156 160 159 166 165 171 171 173 173 174 169 171 170 175 176 181 179 182 182 182 181 182 182 180 178 177 176 173 177 175 174 172 167 167 165 164 164 160 159 156 151 148 146 143 144 141 140 134 130 127 126 123 122 121 116 117 112 102 83 57 35 29 30 24 28 24 23 21 69 61 43 35 25 24 35 64 94 110 117 121 127 130 133 136 141 139 139 140 146 146 151 155 155 159 161 164 168 172 173 176 176 176 172 176 177 178 182 179 179 179 180 183 179 183 180 180 179 180 180 175 181 177 174 172 169 165 163 163 165 162 159 161 151 152 150 146 145 143 140 133 129 126 123 123 120 120 115 115 111 104 82 59 31 29 30 24 26 26 22 22 74 68 59 49 31 20 39 69 99 110 114 120 123 126 131 133 137 138 139 143 145 151 152 155 156 158 160 164 167 168 170 173 174 174 176 179 179 180 181 182 181 181 181 183 182 180 181 180 180 179 180 177 179 178 174 174 170 167 164 164 162 162 159 158 152 152 151 148 145 142 134 132 128 126 123 122 120 119 114 112 112 103 90 63 33 28 26 24 25 26 27 24 70 69 72 62 43 20 41 72 100 111 117 117 123 124 130 132 136 139 145 147 151 154 153 158 158 163 162 168 168 173 172 172 174 175 177 177 182 181 182 183 181 181 182 182 182 178 179 176 176 180 179 179 180 179 176 174 172 168 168 166 163 162 160 156 153 152 154 149 147 140 135 126 127 126 125 123 120 122 114 116 110 108 95 72 43 29 22 25 23 27 23 26 69 76 77 74 54 26 38 73 101 114 114 119 122 125 130 133 136 143 146 148 150 150 156 159 161 162 163 168 167 172 172 174 173 176 172 174 176 175 173 168 162 164 172 178 182 180 181 177 177 181 175 176 177 180 175 173 173 169 167 168 165 166 163 160 159 158 157 152 148 140 136 131 127 125 124 120 121 118 114 111 110 104 102 82 51 30 23 26 19 24 25 33 67 65 78 74 64 46 42 75 97 114 112 114 120 123 130 130 130 129 132 131 131 133 138 145 150 156 160 162 163 167 168 171 171 173 170 170 170 168 164 160 157 156 162 176 176 179 178 178 172 178 172 172 174 171 168 169 169 169 170 170 165 165 164 162 158 157 157 154 151 147 140 134 130 127 126 121 122 115 112 108 105 108 99 87 59 33 27 25 25 23 36 45 68 69 70 71 72 60 59 71 98 113 115 111 114 112 112 113 110 109 108 106 112 115 112 111 115 122 121 130 130 136 137 145 150 158 160 159 164 161 162 159 164 157 166 171 171 173 173 174 171 171 168 167 167 166 165 165 167 167 168 167 164 163 160 159 155 156 151 149 149 142 142 134 138 130 129 125 120 114 108 103 104 101 104 91 63 36 25 29 29 23 43 62 68 65 73 64 70 62 66 72 95 109 114 113 106 111 106 105 101 100 96 102 105 110 109 107 98 95 91 92 90 93 96 100 111 123 130 140 145 148 151 157 159 161 164 168 168 170 168 165 163 165 160 161 158 160 156 159 158 157 159 158 152 149 148 145 143 141 137 133 130 129 126 128 127 126 127 127 121 115 110 104 104 101 103 90 65 37 23 31 45 42 52 69 66 68 67 68 69 68 67 68 91 103 114 113 107 104 104 102 104 107 106 113 118 125 123 124 118 111 99 90 83 80 76 83 87 92 100 108 120 127 133 144 149 152 157 159 160 162 161 159 153 156 149 147 144 143 137 139 129 130 126 120 115 111 111 107 105 104 106 107 107 107 109 108 107 106 109 113 114 115 110 106 104 105 102 94 61 39 26 42 56 55 63 71 68 68 68 73 81 82 78 70 89 100 113 113 104 104 102 101 104 104 110 112 120 124 124 120 115 111 108 104 99 102 103 123 138 156 161 163 159 148 148 145 140 137 139 137 139 142 140 141 137 136 133 127 122 116 112 110 106 100 91 92 86 83 80 84 85 94 101 108 110 110 110 110 106 105 102 107 103 106 108 108 101 104 102 93 62 39 39 47 57 61 62 75 70 67 69 71 90 96 90 82 89 100 112 113 108 102 91 93 94 96 104 108 112 117 120 122 125 123 122 116 116 110 106 103 104 106 113 120 133 139 146 151 154 150 151 153 160 165 171 187 180 174 162 145 137 135 144 156 143 121 109 99 90 100 102 112 114 118 123 125 125 124 123 118 113 114 106 106 101 106 105 108 109 106 101 92 64 55 54 63 62 67 73 80 71 64 65 74 92 100 93 84 88 99 107 108 101 90 88 98 103 105 99 104 102 99 94 91 91 88 88 89 87 95 95 96 98 99 96 93 98 102 117 118 125 120 124 137 149 155 153 152 156 166 169 157 151 153 150 143 131 127 130 139 130 129 122 116 118 102 92 94 95 103 102 110 110 110 107 102 102 99 104 108 107 114 101 87 66 67 73 77 75 77 73 81 66 69 64 73 91 97 91 84 91 101 104 101 98 95 104 100 98 94 89 82 74 69 63 59 59 56 57 54 58 64 69 75 84 88 91 97 96 93 96 104 108 114 117 117 122 122 119 114 112 103 96 107 114 119 120 106 103 99 105 113 119 131 136 133 128 119 118 115 112 108 102 93 87 82 90 91 96 99 103 105 103 104 95 84 71 75 88 89 78 77 72 82 70 66 62 76 86 93 86 85 100 108 116 115 112 111 108 96 92 84 82 79 78 74 78 77 71 65 61 58 62 57 57 59 69 72 81 89 93 95 94 102 107 120 130 143 150 158 156 149 138 124 111 111 104 110 100 102 101 104 104 105 103 98 104 102 101 98 102 102 108 109 114 109 110 100 98 92 88 87 92 96 96 92 93 82 75 80 96 93 83 66 78 77 70 67 66 70 91 99 90 76 66 75 87 104 118 120 116 104 101 92 92 87 84 84 97 104 105 89 91 95 90 88 77 74 79 77 75 84 87 92 94 100 110 117 135 153 158 166 167 160 146 133 123 117 112 105 101 104 103 101 101 99 94 86 84 87 91 94 92 85 83 89 96 100 103 100 103 102 107 95 87 82 81 93 88 74 72 76 101 95 82 68 73 83 67 71 63 70 85 100 103 90 81 86 96 105 115 121 120 109 100 99 95 92 90 103 120 125 124 115 99 99 93 103 111 113 112 96 86 85 93 91 97 99 103 110 117 132 148 174 180 172 150 120 114 109 114 106 105 103 97 96 97 92 94 86 76 72 79 85 87 84 86 84 86 88 93 97 93 97 100 101 97 84 81 81 86 79 66 76 96 92 81 67 76 81 70 70 68 60 86 93 101 96 94 98 107 107 116 119 122 113 111 109 110 104 106 116 132 146 139 134 123 111 114 124 138 138 133 116 104 104 101 108 106 104 113 114 115 124 125 134 137 123 112 102 101 110 113 111 106 99 94 103 109 110 98 101 98 93 87 96 100 94 75 77 77 75 77 82 90 99 102 101 99 94 95 93 87 82 79 91 104 95 76 72 78 83 70 70 68 65 75 86 97 95 94 101 107 109 111 113 118 122 119 125 119 115 112 110 113 129 136 145 145 142 138 138 137 131 132 128 128 124 119 114 117 112 119 119 128 146 153 168 168 152 134 112 110 115 122 123 118 113 106 120 128 122 113 91 89 87 101 111 112 105 82 72 62 68 76 90 100 107 104 106 99 97 104 96 83 68 87 107 110 96 71 68 80 82 69 69 70 65 69 81 91 97 93 99 105 108 112 110 115 120 127 125 119 115 108 105 104 100 101 107 110 114 118 118 123 128 137 142 143 135 129 125 121 117 119 116 134 150 168 177 177 161 138 122 111 120 127 131 125 124 118 117 124 118 116 102 99 102 112 119 121 108 94 85 71 73 87 98 107 110 110 108 102 100 94 82 65 52 94 111 115 92 68 72 81 81 71 69 70 68 66 78 90 95 94 99 108 110 112 109 111 121 128 129 125 121 115 114 111 110 108 109 116 124 134 136 138 140 142 138 138 133 137 133 124 112 103 115 135 162 177 182 180 165 145 122 105 114 127 132 127 126 123 120 118 118 124 128 129 130 124 120 111 97 97 91 88 90 92 99 100 111 111 113 103 98 95 94 88 92 111 121 104 85 67 77 77 82 68 70 68 64 69 76 90 98 94 102 109 113 115 113 116 122 131 134 130 127 121 117 113 112 113 119 128 137 145 149 148 141 134 126 132 138 141 131 119 106 98 115 141 170 179 178 176 167 150 128 103 97 114 125 127 130 126 131 126 123 120 119 121 115 109 103 100 100 105 106 100 101 98 99 97 109 112 114 104 94 94 90 88 97 108 113 93 74 70 75 78 85 68 70 68 64 71 80 90 96 95 100 110 115 118 114 118 125 129 132 136 134 128 118 106 102 111 121 127 129 132 134 127 123 123 128 141 145 143 133 124 112 113 118 148 167 175 174 172 164 157 123 112 104 121 142 140 141 136 132 133 134 130 120 113 107 107 99 99 100 102 101 105 102 100 99 101 105 111 111 98 92 96 91 92 92 106 105 90 65 71 74 83 82 71 67 70 67 69 81 94 98 95 101 108 113 118 115 116 120 126 135 143 143 142 135 130 126 121 124 123 120 122 118 121 127 136 143 150 147 137 117 101 91 108 124 151 170 173 173 170 164 157 131 110 100 109 136 144 147 144 136 131 124 114 108 105 104 104 103 105 107 110 109 105 104 104 104 105 108 108 105 98 97 96 96 94 97 106 108 87 64 69 76 80 82 69 71 68 67 67 82 91 97 93 102 106 114 118 117 118 119 124 134 142 147 150 146 144 138 133 126 120 124 125 131 138 140 147 149 146 142 134 118 107 107 115 131 150 170 172 176 173 163 159 138 120 98 98 119 132 144 145 137 125 117 110 107 106 106 110 110 110 112 120 115 113 110 109 109 110 112 109 103 98 96 101 95 94 97 104 99 82 64 72 77 78 82 71 68 68 67 71 78 96 94 96 95 107 114 121 124 121 119 123 129 136 142 150 147 149 148 146 142 141 138 141 147 150 148 147 148 142 135 124 112 112 123 129 143 151 166 174 181 174 164 154 143 124 110 103 109 125 136 140 138 130 127 120 114 108 108 111 110 115 118 122 122 121 118 114 117 118 116 107 106 97 100 101 102 92 95 102 104 75 66 74 78 81 82 72 70 70 62 71 82 95 96 97 97 105 113 121 121 123 117 122 129 130 138 143 143 146 150 151 156 156 154 154 153 152 147 139 134 133 126 121 109 120 133 141 138 149 163 174 177 175 164 153 143 130 116 110 105 113 131 136 138 134 131 130 127 124 121 122 127 127 128 128 128 129 125 125 123 122 117 115 99 100 102 103 101 97 92 107 101 90 68 75 75 84 81 69 70 66 68 66 78 95 94 97 96 100 107 120 120 122 121 123 127 135 141 146 148 146 153 153 156 158 158 155 154 153 141 133 133 129 122 114 112 129 137 140 142 150 167 174 178 175 165 154 141 136 124 116 108 109 124 135 141 142 138 137 132 135 132 134 131 133 130 133 134 131 131 133 129 126 121 111 106 103 107 104 104 95 90 106 100 83 68 77 79 80 84 73 66 73 64 68 77 92 97 94 97 101 105 113 118 123 127 133 135 138 141 144 145 147 146 155 152 153 155 151 154 150 140 132 132 126 114 112 122 133 139 142 142 152 169 171 177 178 166 159 148 135 132 121 111 109 119 133 137 141 142 138 138 136 139 137 137 132 135 132 135 133 132 133 129 126 120 115 109 113 115 106 101 92 93 99 89 78 70 79 79 83 85 75 70 67 70 67 74 90 92 96 97 101 107 115 116 122 142 157 162 156 144 144 144 146 144 149 148 148 149 148 150 146 140 129 116 107 103 111 118 130 135 139 146 151 165 173 178 180 169 160 148 140 130 127 114 109 114 126 137 139 142 142 142 141 141 141 135 135 134 134 135 132 132 131 130 126 118 121 123 124 121 104 96 93 95 97 91 75 75 78 83 80 86 74 70 67 69 68 77 86 95 95 100 103 106 111 114 113 122 137 142 152 151 153 154 154 152 152 148 149 150 147 149 145 135 118 104 98 103 115 125 131 135 141 147 152 162 171 179 180 172 159 147 138 130 132 125 115 110 112 130 135 137 139 142 142 141 141 141 138 135 135 131 128 126 130 125 129 128 137 133 121 109 92 96 93 96 90 79 74 79 78 81 86 84 71 69 69 69 67 74 85 97 100 102 106 110 113 113 115 111 108 107 99 100 103 111 115 121 126 128 128 129 123 122 116 112 111 116 112 118 120 129 131 137 140 148 150 159 169 180 182 174 157 146 137 129 130 129 124 111 104 109 125 134 136 137 139 136 137 137 137 138 134 133 127 127 135 143 152 151 143 124 101 92 92 94 96 92 82 73 74 78 80 81 84 86 73 67 72 66 65 72 88 96 100 103 105 112 118 121 123 122 120 119 118 117 120 119 121 118 121 116 118 118 124 130 131 134 133 127 120 120 126 134 136 137 144 145 153 159 172 179 182 175 158 144 138 131 128 127 131 119 104 87 92 117 131 140 142 147 141 141 142 138 142 143 142 145 167 173 165 146 110 98 93 92 97 95 96 91 74 71 75 78 78 85 83 86 71 71 69 66 67 71 81 95 98 103 106 111 115 122 121 121 121 121 123 126 127 135 135 137 141 138 139 136 139 137 140 142 138 131 123 126 131 137 140 143 145 146 151 164 173 184 183 173 162 147 138 135 134 132 132 130 118 108 100 94 92 92 103 109 117 123 123 124 118 115 106 105 103 101 98 96 98 96 97 98 99 98 96 88 77 73 78 79 84 84 87 85 75 68 73 64 67 69 81 91 99 101 109 109 115 117 118 119 120 122 129 131 138 141 138 145 146 143 143 140 139 138 132 134 133 129 127 125 128 136 141 143 146 148 154 161 177 183 187 180 167 149 141 141 138 135 131 127 118 116 116 122 123 124 120 118 115 111 107 109 105 104 97 99 100 103 106 104 107 105 102 106 100 98 95 85 73 75 79 81 85 83 84 86 74 71 67 70 64 68 76 91 97 102 105 110 114 113 117 117 117 123 128 134 138 138 141 142 143 139 139 136 135 130 127 130 132 131 123 120 113 125 131 136 141 146 149 163 172 179 183 175 166 150 143 135 134 126 124 117 115 113 116 119 121 125 129 130 132 132 129 129 128 124 120 123 119 118 113 115 109 107 106 107 99 99 93 84 75 75 79 82 82 82 86 87 76 67 71 71 66 65 74 84 97 100 103 109 109 114 111 112 116 119 124 131 134 132 137 133 135 133 133 129 127 125 124 131 135 137 125 111 104 99 108 117 124 135 143 153 157 157 160 158 153 143 133 121 118 113 110 107 108 115 119 121 114 119 120 129 127 129 131 133 128 122 121 118 118 115 113 111 104 108 107 105 101 99 91 83 71 80 81 82 83 82 86 87 71 73 68 70 63 68 68 86 90 99 102 102 110 110 112 112 111 121 114 123 125 124 126 124 124 121 121 119 122 119 130 137 143 146 134 113 97 71 67 82 96 110 123 134 139 138 139 138 133 124 114 100 97 89 87 90 99 118 123 124 118 114 116 122 123 123 125 123 122 117 117 118 114 112 109 107 104 105 107 107 99 99 83 78 77 77 83 79 87 83 86 86 69 70 70 69 67 63 77 91 92 95 99 105 111 112 112 111 114 113 116 120 114 116 112 114 113 114 111 114 118 126 135 142 148 144 140 127 107 81 52 50 62 84 97 114 120 122 122 119 114 106 93 69 67 61 80 91 105 112 125 124 122 117 112 114 121 117 121 117 118 115 113 116 110 110 102 106 103 106 104 103 102 93 87 79 73 83 82 84 81 88 81 87 71 66 72 61 68 75 89 85 85 94 101 103 111 112 115 110 110 111 109 113 110 109 111 112 111 109 112 115 123 133 141 142 143 143 141 141 131 110 90 63 57 57 76 89 98 105 103 103 89 82 71 69 83 91 105 110 115 117 122 128 127 122 114 108 109 112 118 115 117 111 113 109 104 104 103 102 106 106 105 108 95 96 79 70 83 82 84 85 86 83 84 83 70 72 68 66 70 85 85 76 79 90 101 105 108 111 115 116 114 112 108 106 109 106 109 109 108 109 111 116 123 134 137 140 140 136 135 140 138 127 109 90 73 62 60 58 68 71 77 73 71 74 85 94 106 113 118 116 119 120 124 127 127 124 118 107 105 107 114 111 112 107 108 102 99 97 103 102 107 103 107 102 99 91 78 75 75 81 85 84 83 81 87 84 73 71 68 67 80 88 79 69 65 85 100 102 107 112 116 115 115 115 108 111 108 109 112 111 109 106 112 119 126 130 134 137 137 139 140 143 140 134 122 113 98 85 69 58 61 56 61 61 76 95 111 117 121 120 118 114 117 119 121 123 121 120 115 108 103 103 106 108 109 107 104 101 102 99 103 104 106 106 104 102 96 89 75 76 77 83 81 82 83 85 85 87 70 72 63 75 86 94 77 52 57 73 96 100 106 111 113 115 118 119 114 115 114 112 112 113 104 111 112 125 123 130 125 130 132 134 134 142 143 142 135 131 123 110 97 81 78 71 73 85 94 116 122 124 125 122 120 118 116 119 119 120 118 118 117 112 105 101 103 108 107 105 104 104 105 103 104 107 106 107 106 98 101 107 92 78 78 81 82 81 83 84 84 87 69 69 67 77 99 101 70 46 46 60 89 96 103 106 114 114 118 121 121 121 119 121 119 116 113 111 114 119 119 121 122 124 124 131 133 136 139 142 141 140 138 129 122 117 112 108 110 110 119 123 128 125 129 125 127 121 120 117 114 116 116 119 120 111 107 105 104 105 107 107 103 106 106 105 107 108 107 106 103 96 98 117 139 123 88 80 84 83 84 84 84 82 74 67 69 90 114 99 63 38 29 52 81 93 102 103 107 111 120 122 122 124 125 126 127 124 118 122 116 119 112 104 104 112 115 124 130 134 137 140 143 143 138 134 131 130 131 132 130 130 128 131 127 129 127 126 124 123 120 119 113 112 111 116 119 113 111 109 112 110 111 108 107 106 110 106 109 108 111 105 99 93 98 100 125 141 139 116 90 82 84 84 83 86 82 83 96 107 116 99 61 34 31 51 69 88 93 102 105 110 116 119 121 125 126 131 128 128 122 125 118 109 95 77 76 82 92 104 117 119 124 127 128 126 126 120 128 133 137 137 135 134 131 127 123 118 117 120 118 121 116 116 108 107 98 110 111 112 113 115 117 118 114 107 107 105 108 110 107 106 106 105 98 84 93 103 110 136 154 154 137 119 97 95 85 89 135 146 127 123 119 101 53 36 38 55 56 71 93 96 102 106 112 118 119 125 125 132 133 129 128 123 121 110 105 100 91 74 68 70 76 81 88 92 99 101 102 97 106 110 116 121 119 117 111 107 103 98 99 100 100 97 95 94 87 76 77 90 106 114 117 120 121 116 115 107 108 106 106 105 109 105 106 100 97 82 82 113 120 124 153 158 156 149 136 130 115 105 174 161 129 123 126 98 53 35 52 55 44 69 90 93 96 101 111 115 121 122 121 128 130 132 131 132 131 134 136 139 134 118 104 92 84 77 66 62 59 72 75 79 84 84 88 93 91 91 91 87 84 76 76 72 69 66 61 54 63 74 85 98 107 114 115 122 124 118 116 109 106 104 111 105 106 104 104 98 87 77 78 112 127 123 149 165 159 159 156 145 139 138 177 156 120 135 131 102 57 39 62 49 56 83 87 84 95 101 106 111 114 116 118 124 126 130 133 133 140 144 148 154 146 134 121 114 113 118 107 77 57 46 46 55 59 49 55 55 60 61 65 59 50 41 37 44 60 69 72 81 101 113 119 115 112 118 115 121 121 119 118 110 107 107 105 108 102 101 102 92 72 71 83 108 119 129 151 164 160 161 162 153 144 148 163 127 121 139 136 112 66 45 62 50 70 88 80 87 87 95 104 107 112 116 117 126 128 130 134 134 143 146 151 154 147 135 127 113 114 125 126 128 110 100 83 68 62 59 51 51 52 48 49 60 65 75 81 95 95 96 94 102 115 126 122 125 119 120 120 117 119 117 115 110 109 104 107 102 103 101 94 77 56 74 101 105 117 131 150 165 160 156 165 164 146 147 132 105 125 146 140 122 74 56 59 58 82 89 80 78 85 88 96 103 107 112 115 120 126 129 129 132 140 142 148 147 145 139 132 123 118 115 124 132 136 138 133 127 124 118 115 102 103 103 100 105 101 102 102 101 95 98 101 110 122 126 129 127 124 120 125 122 122 113 108 109 104 102 101 100 102 96 83 59 51 83 109 109 117 137 157 160 156 156 169 168 151 142 118 108 136 150 147 132 87 61 67 65 87 87 79 77 82 84 91 97 101 108 112 119 125 127 129 129 135 140 145 146 148 138 134 128 123 114 114 119 129 138 141 143 146 151 146 144 136 133 127 127 116 110 103 96 94 101 108 113 122 126 128 126 123 120 124 122 117 114 107 108 103 101 100 98 97 86 57 41 61 93 113 112 112 138 160 161 165 166 168 169 156 143 132 122 137 152 152 142 102 69 69 69 87 85 77 77 81 78 84 94 94 102 110 112 119 125 127 128 131 135 137 145 147 139 134 128 120 117 111 111 115 122 132 132 134 144 144 143 138 133 129 122 111 104 99 97 98 103 112 117 120 122 123 121 118 119 119 118 113 111 104 105 98 101 97 96 88 62 31 36 73 101 118 119 108 130 160 162 161 163 167 164 153 147 140 125 138 149 159 149 117 87 70 69 89 85 75 79 78 77 80 87 93 96 101 108 115 121 126 127 131 133 136 143 144 140 138 124 120 114 107 110 105 113 116 116 122 124 126 127 123 119 117 111 103 98 97 101 103 109 113 121 121 123 121 112 114 111 112 111 111 107 102 102 97 97 97 92 72 38 23 43 90 111 126 122 106 122 155 161 164 169 167 156 153 155 147 126 142 155 158 155 127 100 73 71 87 85 72 80 76 73 73 84 85 92 96 106 111 117 119 127 128 133 133 141 143 139 138 134 125 116 105 99 103 101 106 104 103 107 106 110 107 108 101 100 95 95 98 101 108 114 120 123 125 122 115 115 105 108 106 108 104 104 102 100 93 92 90 79 52 25 28 57 109 127 130 120 104 114 155 164 164 161 169 158 152 158 144 124 148 162 160 161 143 119 83 74 86 81 75 79 81 75 69 76 79 83 95 97 107 112 116 121 126 127 128 138 140 143 144 143 134 128 117 100 95 85 85 80 80 77 78 75 83 82 88 85 92 96 102 113 116 120 121 123 124 118 112 109 107 106 104 105 100 100 95 94 91 86 79 57 34 24 43 78 124 139 132 116 99 112 145 160 169 170 167 149 148 158 140 124 145 159 161 166 148 126 101 83 83 81 75 84 83 82 71 73 71 82 85 90 98 108 108 112 115 118 124 129 134 139 144 144 140 134 129 120 113 106 100 96 92 93 89 92 92 92 98 98 103 109 113 120 122 123 123 118 116 115 110 108 108 105 105 104 98 94 92 89 86 74 62 42 30 40 64 97 137 143 131 114 107 113 141 161 171 169 163 152 151 162 136 123 146 158 163 172 159 135 118 103 89 78 74 84 86 81 76 73 67 71 74 83 87 97 103 105 107 114 121 126 133 137 143 145 144 139 136 134 129 124 117 113 110 108 106 115 110 115 111 115 114 119 122 125 123 123 122 117 115 112 109 107 104 104 103 100 96 87 86 86 72 62 50 29 34 63 80 112 141 141 128 117 110 117 135 155 170 171 154 146 153 159 133 125 142 159 163 175 168 153 128 118 90 81 77 82 89 85 78 76 69 67 70 76 75 83 91 101 107 111 119 123 126 136 138 144 144 145 147 149 147 142 138 131 129 125 124 126 129 123 126 124 124 129 128 125 123 122 119 116 113 110 105 104 102 99 96 96 89 84 79 70 62 50 44 25 46 77 96 121 142 136 128 120 112 112 135 153 165 164 153 152 152 153 131 116 149 157 162 171 182 167 144 134 100 85 79 86 86 87 83 82 70 69 63 73 70 80 76 88 99 109 111 117 122 131 133 143 150 152 155 160 156 155 152 149 149 145 140 139 139 134 134 135 135 133 131 124 125 121 117 116 109 106 104 103 97 92 92 87 81 75 69 59 52 50 33 32 56 83 101 128 141 137 126 121 115 116 131 153 163 156 156 157 153 157 123 118 141 159 161 169 185 172 145 134 117 94 85 82 90 86 89 82 76 70 62 66 67 71 72 80 90 99 107 112 114 123 127 137 141 145 147 155 154 157 155 155 160 158 153 146 142 138 134 140 137 137 134 126 121 117 113 110 104 103 102 96 88 85 83 77 74 61 56 58 51 39 37 46 69 96 111 127 135 127 126 128 118 109 135 148 155 158 153 156 152 158 125 119 145 158 168 172 185 179 156 138 129 112 103 91 84 88 88 84 80 74 68 65 61 68 67 74 78 87 97 101 109 114 123 122 127 133 139 140 144 149 147 147 148 153 152 147 145 139 136 143 138 132 127 123 120 114 111 105 103 101 95 87 81 77 76 69 63 55 56 56 43 34 54 69 82 100 115 127 135 131 130 131 120 111 132 145 149 155 153 150 147 153 124 128 144 158 167 170 184 183 166 147 123 112 118 109 86 85 89 88 82 75 73 66 58 61 65 71 69 77 86 93 100 107 113 118 120 127 129 134 135 139 139 140 143 143 146 142 144 140 139 138 133 122 117 113 115 108 105 98 98 90 84 78 74 72 64 57 56 58 55 48 38 43 66 86 96 108 117 128 133 133 127 137 130 119 126 144 155 156 150 152 154 159 125 127 141 155 163 169 176 182 171 158 138 122 117 123 102 85 88 90 87 78 80 69 64 59 58 64 65 69 74 80 88 94 105 112 119 125 123 127 129 132 134 134 136 137 139 133 136 132 134 129 124 116 112 104 103 97 98 89 87 78 73 73 69 65 50 54 55 58 52 41 43 64 77 88 103 111 113 121 123 127 123 133 133 119 123 145 147 141 145 147 157 158 119 127 142 153 165 170 173 173 175 162 155 139 123 129 122 100 85 92 89 85 81 75 69 65 56 58 57 63 69 70 76 83 95 104 110 114 113 117 119 122 124 127 126 128 126 125 126 123 124 119 113 110 103 97 99 92 90 78 72 72 70 67 55 52 50 51 58 59 46 44 67 87 98 93 92 87 78 72 68 67 61 70 79 102 122 144 138 130 130 141 159 161 123 136 137 147 167 171 175 180 171 165 159 150 135 121 135 122 97 87 89 89 84 82 72 67 63 58 52 51 61 65 71 70 80 87 94 101 103 104 105 106 108 109 114 116 116 114 113 111 112 107 103 96 97 93 89 79 77 67 70 67 57 49 45 48 47 57 56 54 47 75 96 104 105 92 47 27 26 37 53 64 70 66 42 43 105 133 133 126 115 115 133 152 129 143 138 143 164 175 176 181 169 161 153 153 131 119 135 135 122 98 81 89 85 84 75 74 66 60 58 52 52 55 63 66 70 72 77 87 91 91 91 95 94 94 99 103 100 103 99 100 96 97 94 85 84 79 73 69 69 63 61 50 44 45 44 48 54 66 75 83 96 112 120 113 91 61 51 52 68 84 112 122 131 129 105 83 98 115 114 124 142 133 134 137 134 152 140 141 160 172 182 185 174 168 152 156 143 132 128 132 139 126 96 81 85 84 80 73 70 65 63 57 57 53 52 54 57 65 67 74 79 80 79 80 85 84 89 85 85 84 89 87 85 82 79 75 73 69 67 62 61 47 45 40 47 45 50 60 88 111 128 133 135 128 112 88 81 94 93 95 105 110 122 133 142 138 121 103 108 117 117 131 150 146 140 136 139 152 141 131 155 168 183 185 182 177 161 157 146 139 133 134 138 138 124 89 81 80 81 77 75 69 66 61 57 58 51 49 48 49 54 62 66 71 71 75 71 75 79 73 76 73 78 75 75 72 71 68 69 56 59 44 42 41 43 42 52 65 86 105 115 124 128 122 110 84 82 93 113 115 102 107 116 115 126 136 142 138 122 106 110 124 117 124 137 144 135 141 144 146 146 141 147 164 175 178 178 171 159 155 158 145 140 138 132 138 142 124 87 75 77 78 79 71 69 65 55 56 55 50 46 48 41 44 47 47 61 66 64 72 70 68 70 69 70 67 68 62 56 53 49 46 42 46 41 41 39 52 78 89 94 100 103 92 86 76 71 85 110 127 130 121 105 114 122 120 130 144 147 136 122 108 112 127 139 134 126 130 150 157 