P2
92
112
255
88 79 77 76 69 65 76 99 104 81 64 69 78 67 79 89 85 68 70 89 123 120 110 98 88 97 101 105 107 103 94 90 87 88 89 79 67 59 62 61 71 64 60 56 34 34 36 56 63 62 57 41 54 41 53 61 44 44 68 85 80 76 66 64 74 65 70 80 75 55 66 83 62 52 72 91 88 59 75 94 88 85 98 101 100 105 97 103 104 100 102 103 80 69 86 90 78 55 78 98 94 70 60 82 83 84 92 78 74 67 64 101 108 82 73 78 100 111 116 116 107 105 93 86 88 71 65 54 59 49 54 62 64 63 51 57 37 37 56 60 56 53 56 50 42 47 52 50 34 36 70 83 76 88 72 55 74 76 73 79 72 77 56 81 80 59 72 86 97 62 58 92 93 87 86 104 97 98 105 99 102 102 100 100 64 71 86 85 61 65 88 86 75 71 94 101 99 101 90 69 67 61 62 64 68 56 72 92 102 105 106 103 101 94 95 77 71 60 63 59 54 49 58 56 59 48 50 61 62 48 50 57 52 53 49 52 41 38 41 34 33 40 64 80 67 92 78 53 55 73 83 78 70 74 84 75 83 59 51 87 98 90 63 66 96 80 85 97 99 100 102 96 101 99 104 101 60 89 90 68 67 81 70 58 56 82 101 95 102 95 82 72 72 81 79 71 68 71 84 89 94 107 106 109 103 103 95 74 71 70 65 63 61 65 66 64 52 57 50 68 60 55 52 55 47 57 54 44 43 31 34 25 30 47 66 75 62 81 71 51 54 52 73 71 60 66 71 86 91 83 28 52 92 106 83 43 83 99 77 80 99 100 102 100 100 100 100 102 94 101 90 67 75 83 48 51 81 94 110 100 105 90 88 80 98 113 98 91 90 82 79 84 83 87 92 91 93 88 82 74 73 91 84 90 81 73 73 75 69 65 60 53 59 53 50 54 47 52 44 46 37 36 23 23 35 47 66 72 68 68 55 55 43 43 67 68 64 58 66 83 88 81 68 25 56 92 103 52 67 92 93 72 85 98 105 104 100 99 101 104 114 105 70 59 98 77 48 86 105 98 95 93 84 93 97 114 108 113 111 111 99 84 82 82 71 76 80 84 90 82 88 85 96 100 91 81 75 65 66 68 70 59 49 54 51 54 47 55 43 43 47 39 33 27 35 20 45 46 63 71 60 49 52 40 35 42 56 54 61 57 66 76 87 71 72 55 43 68 95 92 65 79 97 81 85 93 103 101 98 106 95 101 111 96 61 66 84 59 61 95 98 90 95 85 84 101 101 101 103 108 114 114 108 96 88 89 72 74 63 65 72 85 90 98 114 104 93 86 75 77 62 70 67 64 61 53 52 52 55 57 51 49 41 47 41 46 42 38 52 56 58 62 56 37 36 36 44 47 43 53 49 62 67 75 85 69 53 68 65 50 76 85 77 70 89 87 79 95 101 98 100 99 101 105 105 79 64 65 62 55 80 98 79 87 101 86 93 99 101 114 119 114 123 112 112 105 102 102 100 91 85 90 84 98 98 107 108 100 94 80 79 78 74 69 61 54 63 57 52 55 61 55 60 47 55 49 50 53 49 41 43 46 57 53 48 36 40 43 45 48 41 53 44 46 60 77 80 72 51 53 79 68 60 79 87 73 80 89 73 90 91 106 100 102 99 103 94 60 56 70 64 78 97 93 92 91 102 103 103 102 105 111 112 111 113 108 109 114 110 118 103 98 89 90 92 103 112 108 116 99 99 95 91 91 98 87 77 67 69 66 63 61 58 56 56 58 50 50 53 48 46 40 40 42 42 41 40 41 39 44 44 44 43 42 40 34 52 76 83 76 43 42 71 85 70 73 86 85 69 98 75 77 91 104 103 100 103 100 74 43 75 80 82 97 90 94 92 92 100 104 90 92 100 107 109 110 111 107 110 116 120 113 112 114 111 105 102 107 113 107 101 101 102 96 94 82 77 70 72 74 73 69 59 60 53 55 55 51 47 44 49 37 45 37 37 34 33 29 28 42 37 31 39 48 41 37 37 32 48 67 83 74 48 35 56 83 78 71 78 87 70 94 89 60 90 94 103 101 104 103 58 68 96 87 80 87 91 98 78 85 109 100 92 95 97 108 103 105 111 106 99 100 105 111 113 115 108 106 98 94 95 92 93 76 80 82 76 68 65 55 62 60 59 49 50 56 46 47 53 44 46 37 47 45 46 37 46 37 27 37 27 37 32 26 49 51 47 43 40 28 47 71 78 71 41 34 53 76 73 72 82 74 85 85 87 67 72 102 97 103 100 103 61 90 93 72 68 86 83 69 78 88 91 91 96 110 111 105 108 108 111 100 105 105 103 107 106 107 99 93 89 102 93 85 92 87 85 88 86 80 78 77 72 66 61 56 55 49 56 54 57 54 52 51 50 50 49 49 40 43 46 40 43 32 45 40 48 52 49 39 39 23 44 63 62 53 37 32 51 66 56 70 72 75 67 77 75 56 65 90 104 98 98 103 72 78 75 63 69 75 60 58 70 71 75 89 99 107 98 103 110 122 118 112 117 118 106 106 104 101 97 91 84 88 98 99 100 87 81 71 57 60 81 85 84 78 75 62 67 59 64 54 57 49 51 47 52 58 60 56 42 45 42 50 49 40 46 43 45 48 37 42 34 24 44 55 57 41 34 29 44 63 50 60 61 68 64 69 80 46 52 79 107 102 97 101 77 65 63 64 60 46 43 51 56 63 73 69 76 80 96 103 107 96 89 94 110 102 97 100 89 96 95 88 83 83 82 93 87 89 92 89 76 70 62 77 77 80 67 69 74 66 61 58 68 64 55 53 58 61 54 54 54 49 44 49 48 49 53 47 42 40 33 26 34 30 35 48 43 31 30 29 47 55 51 42 59 72 61 67 78 55 34 77 101 100 103 103 61 55 59 61 40 37 47 42 53 50 60 52 56 79 96 95 95 84 76 92 98 99 101 109 103 103 99 101 98 97 89 96 97 93 94 87 75 84 78 77 61 57 56 52 50 48 50 44 47 49 39 41 39 42 43 44 50 49 58 47 53 52 46 47 43 43 35 29 27 35 28 40 36 37 21 37 42 50 49 36 44 75 64 53 70 62 37 68 96 103 101 99 47 56 52 47 41 49 50 45 48 55 45 41 52 69 73 79 72 69 76 89 96 100 108 108 108 102 110 107 100 93 85 87 97 99 99 97 91 89 80 83 73 65 60 53 55 60 58 57 60 73 70 69 58 57 62 61 56 63 58 59 52 56 51 47 48 46 45 35 23 40 28 35 27 38 32 31 43 43 44 34 40 66 74 54 67 63 52 49 77 112 104 102 46 48 48 40 37 48 38 51 55 46 46 40 42 58 62 56 53 59 78 91 101 101 106 105 108 104 94 81 96 90 85 72 77 94 97 100 99 90 79 81 74 73 68 61 58 61 54 52 56 74 73 68 56 66 51 51 56 41 43 51 50 46 42 42 45 52 44 41 34 23 26 30 27 40 39 29 43 40 44 45 44 56 83 59 57 63 47 51 60 106 102 104 31 44 40 35 40 43 40 52 54 47 46 43 52 54 50 59 51 61 61 69 71 79 76 83 83 80 88 91 99 107 91 80 78 78 76 84 90 83 71 60 63 63 59 63 60 60 57 58 57 65 58 55 58 59 48 45 36 29 26 28 31 31 27 34 34 39 43 48 48 30 28 26 31 33 40 29 42 42 47 42 53 47 74 66 52 57 45 55 47 97 107 100 33 33 40 35 44 40 43 61 48 46 49 48 51 56 59 61 70 78 85 70 69 63 72 74 87 96 89 94 88 96 95 93 83 89 76 72 74 77 71 65 62 74 66 62 66 68 55 69 69 60 58 58 61 56 55 52 56 60 63 53 63 54 47 36 28 29 25 36 50 38 34 28 34 34 43 38 42 36 49 44 58 52 71 65 55 48 47 61 45 87 108 104 34 37 43 39 43 39 52 65 51 47 50 48 53 53 60 52 69 57 59 50 51 49 56 61 57 58 69 75 86 86 88 92 96 86 81 72 78 86 86 93 85 93 80 75 68 58 73 72 68 63 67 57 66 69 73 75 74 72 68 59 54 44 41 34 30 25 23 23 32 40 34 30 37 35 37 36 44 35 46 49 52 60 67 73 58 48 52 58 53 71 108 103 31 41 44 33 39 41 49 48 55 42 46 43 43 53 58 50 59 56 54 46 55 50 52 61 47 61 49 61 62 57 63 62 77 83 89 99 107 97 77 61 71 72 81 82 82 84 83 73 69 61 61 56 67 79 69 57 39 49 58 41 43 39 41 33 29 28 26 25 31 28 33 28 27 24 38 34 39 46 43 51 54 62 71 77 47 57 63 59 40 82 103 105 34 33 40 30 30 38 46 44 40 33 39 41 41 48 47 69 68 76 59 54 70 63 60 63 51 60 50 47 53 35 45 36 40 45 55 61 53 51 54 56 49 49 50 53 57 56 43 55 55 70 82 64 67 56 41 27 39 53 47 40 33 38 34 35 24 26 27 28 34 33 30 30 35 24 33 33 37 46 46 53 53 62 69 73 56 48 72 53 49 82 109 101 31 36 38 26 41 30 36 33 40 39 35 41 44 50 70 83 85 83 84 99 91 90 81 73 72 70 67 60 58 59 63 55 57 53 46 41 43 40 39 46 51 53 32 34 41 62 82 83 78 70 54 36 40 34 25 57 70 50 37 38 34 36 29 32 35 30 35 33 31 32 37 28 33 28 28 39 35 47 52 48 62 63 65 64 58 57 60 51 47 80 106 101 33 43 27 35 34 31 26 39 37 33 46 44 45 69 67 75 92 98 104 110 98 93 80 90 86 71 71 71 69 65 64 56 56 56 47 53 44 51 54 52 52 41 29 49 65 69 56 54 44 41 33 31 42 42 48 93 62 42 32 33 35 29 38 31 39 35 37 38 38 38 39 35 33 37 30 31 54 47 48 54 64 68 62 64 55 58 55 53 41 90 99 101 38 39 31 31 34 33 32 32 36 37 43 44 51 57 58 73 87 96 100 105 100 98 94 76 72 75 76 81 76 75 70 71 76 65 69 57 68 66 59 55 48 50 40 46 49 39 45 31 44 48 39 51 52 42 62 79 51 31 29 40 28 40 35 34 44 45 45 43 45 49 44 34 41 40 39 32 56 53 48 65 66 66 57 59 56 55 56 56 50 79 104 100 29 41 29 33 27 37 35 36 32 37 44 48 51 54 63 73 89 92 100 99 101 93 92 79 92 92 104 108 93 96 89 86 81 70 70 71 65 67 59 57 48 53 45 47 43 44 40 34 61 54 53 68 58 48 58 58 47 36 40 38 40 42 39 48 43 52 49 64 55 50 50 45 51 43 42 40 59 47 55 62 71 63 47 57 57 57 52 48 50 88 98 99 31 28 32 34 38 36 30 35 33 41 50 46 46 59 57 68 77 85 90 97 104 102 108 103 113 112 111 108 97 90 83 74 74 80 81 72 64 54 55 55 39 45 45 41 47 49 41 68 66 57 83 82 73 67 65 58 50 44 51 48 50 47 52 56 54 62 63 73 65 68 58 57 61 45 45 48 55 51 55 57 68 55 34 54 55 61 40 43 56 92 100 94 24 36 36 32 30 28 35 28 36 38 45 41 45 48 52 53 54 66 78 84 88 93 88 98 89 90 87 88 89 88 88 96 100 90 75 55 55 51 47 43 37 45 46 61 58 63 80 80 72 83 81 97 105 85 75 64 59 66 57 64 67 66 68 68 76 75 81 81 77 76 77 74 60 51 45 48 51 42 55 53 57 52 30 45 54 48 46 39 59 97 98 95 23 34 30 30 29 25 41 25 31 37 26 39 37 33 43 39 50 50 74 79 88 93 89 89 93 93 90 90 95 102 103 88 78 70 50 51 53 48 51 51 55 40 67 74 76 82 88 92 96 95 87 113 114 94 86 77 77 80 77 76 88 89 88 91 84 88 92 87 83 84 69 78 63 50 49 47 50 35 53 47 47 46 36 43 45 44 46 37 62 103 101 95 21 39 30 31 27 34 29 28 29 37 30 33 34 33 46 40 45 47 61 66 65 67 63 67 67 76 75 78 87 79 76 73 69 60 46 52 57 58 65 61 48 62 85 81 91 94 87 92 97 87 100 111 109 94 93 91 89 89 99 96 104 103 102 108 103 97 94 96 96 84 79 65 68 49 52 43 46 36 49 32 44 42 35 36 41 38 45 49 79 97 98 95 27 30 35 28 29 31 23 32 26 32 26 37 28 37 39 37 43 44 47 61 60 66 59 73 77 71 69 73 80 71 78 62 55 57 53 49 59 71 70 55 60 81 87 90 98 93 85 88 86 84 99 105 108 101 100 103 102 101 111 108 106 112 112 116 108 107 104 103 101 85 81 72 58 57 47 46 40 36 37 32 41 40 32 37 35 35 46 54 97 95 98 91 29 29 31 27 27 24 30 25 30 30 26 33 28 32 33 36 37 32 49 52 48 53 64 62 72 61 63 65 56 63 59 57 57 52 52 55 65 65 63 69 85 96 87 91 87 79 85 87 89 88 101 105 111 111 112 115 111 112 112 116 119 120 124 122 113 112 105 111 103 87 85 77 63 58 49 40 31 39 26 33 37 39 30 40 32 32 36 74 98 97 92 96 31 32 26 27 28 23 28 30 28 31 32 30 32 36 27 36 35 38 41 43 47 46 45 47 50 45 44 45 45 44 50 42 38 45 52 64 59 57 71 86 90 85 81 73 85 80 93 94 95 93 103 109 113 115 114 115 116 118 114 119 119 123 126 125 120 117 113 119 106 88 84 80 73 60 44 37 35 30 31 35 30 37 33 38 34 24 39 87 98 94 97 95 36 33 28 27 18 31 23 27 27 26 33 33 34 31 33 30 32 37 44 32 42 41 37 39 43 41 42 37 38 29 43 34 49 47 50 54 59 68 70 69 69 69 78 84 85 82 101 94 98 100 110 114 116 113 117 115 120 117 116 126 120 128 122 125 124 118 112 118 106 94 91 88 75 61 49 42 35 29 33 32 37 31 33 32 41 31 45 98 97 99 93 97 28 31 29 26 28 30 19 24 30 26 31 31 32 32 31 32 37 46 42 39 43 45 40 40 46 36 41 41 34 43 39 51 45 46 57 50 62 62 56 62 67 77 85 90 91 92 101 103 104 110 115 110 115 109 112 116 116 119 122 124 126 124 125 125 126 122 115 115 107 99 100 87 77 74 52 46 30 34 29 26 38 32 35 34 37 30 47 103 95 95 94 101 29 32 35 24 34 26 23 32 26 25 31 31 31 34 40 37 41 42 46 46 45 46 45 39 45 38 45 48 40 45 43 47 49 46 52 54 54 60 65 72 77 83 85 92 101 98 101 106 109 112 115 112 117 115 120 122 125 121 121 127 130 127 131 124 129 123 117 116 113 106 103 98 92 84 63 46 43 32 28 31 34 29 33 28 37 34 58 95 98 101 96 97 33 32 35 28 32 29 20 33 26 32 24 37 30 44 38 43 36 41 45 46 47 42 47 40 43 43 47 43 47 42 56 44 54 51 54 57 64 67 71 80 80 88 93 97 102 105 106 113 116 117 114 120 124 118 125 126 127 128 123 126 136 127 133 129 128 124 120 117 120 107 107 106 103 101 73 57 47 36 34 29 36 31 28 33 36 33 64 98 98 95 96 97 31 32 40 29 31 25 27 30 31 31 29 37 40 46 52 47 52 39 53 44 49 41 49 38 39 46 47 46 52 56 59 54 58 57 58 67 73 75 76 91 84 100 99 106 108 112 116 119 120 122 124 118 127 130 130 128 130 132 128 131 131 129 134 129 126 125 120 117 114 113 109 109 109 107 101 80 60 36 31 28 38 26 32 30 31 36 70 98 99 98 94 98 35 34 38 33 27 26 26 30 29 36 32 40 41 44 50 50 58 57 58 49 54 53 47 41 43 43 46 54 51 58 59 63 59 68 70 72 81 83 88 95 99 106 109 112 114 117 116 123 119 117 127 122 131 135 138 136 135 135 129 134 132 130 133 132 134 127 124 120 116 113 110 106 111 110 99 102 89 49 36 26 32 36 29 32 35 33 70 102 97 97 98 98 26 33 36 32 27 30 25 22 32 33 36 43 45 46 53 56 66 65 66 64 62 52 52 48 45 50 47 46 56 58 58 62 67 78 84 88 89 95 99 106 111 109 117 117 114 116 121 121 119 123 126 129 132 139 136 140 135 136 132 132 133 137 138 137 136 131 128 126 121 111 108 111 108 107 104 103 103 81 48 28 34 29 36 30 32 46 91 99 94 99 97 94 23 29 33 33 33 30 24 28 32 37 41 43 45 52 58 71 74 76 76 75 65 62 61 67 59 57 47 62 56 64 67 75 85 86 95 96 105 102 104 114 112 113 116 118 113 112 123 118 124 121 126 129 135 136 139 134 139 135 133 133 137 140 141 142 136 136 131 128 126 116 115 108 108 109 112 103 103 102 75 35 30 26 38 29 36 43 97 104 96 96 101 90 45 25 34 30 31 33 25 31 36 47 41 43 51 59 68 80 79 86 79 80 82 74 82 75 77 79 72 71 78 83 84 94 98 98 101 103 109 107 109 111 116 113 116 117 117 114 116 119 121 130 128 129 135 135 134 131 135 132 135 130 139 134 140 137 134 129 128 127 125 120 113 110 108 106 110 107 103 107 95 56 31 28 34 41 29 45 92 102 96 96 97 99 51 28 33 23 34 27 30 33 41 44 51 47 66 68 76 84 79 83 86 84 86 85 88 86 88 88 91 90 98 99 101 104 106 108 109 107 112 112 113 111 112 117 118 116 113 113 118 117 120 124 129 124 129 130 130 125 127 133 132 127 128 127 129 128 119 117 122 117 118 117 116 115 104 102 108 105 104 104 103 76 44 33 35 35 43 47 88 93 101 87 99 95 66 34 31 29 26 29 29 42 47 54 49 60 69 76 81 79 83 87 89 93 98 98 93 98 94 98 99 103 102 108 109 109 108 111 111 115 115 112 118 113 119 117 120 114 117 113 119 123 123 123 124 124 122 126 126 119 120 119 122 117 110 113 116 113 111 105 101 106 107 108 112 113 109 99 107 109 102 108 105 91 63 33 36 32 50 58 81 92 97 97 95 99 88 47 34 34 27 30 33 49 46 55 51 82 77 88 83 88 95 106 110 117 118 119 119 116 114 118 115 111 116 113 116 113 116 113 118 116 116 118 119 114 117 116 114 118 112 119 118 118 116 120 124 113 111 118 120 113 107 103 99 96 93 89 96 95 98 93 97 96 94 95 101 100 105 102 101 106 106 108 101 105 80 47 41 40 59 81 97 89 99 92 98 94 91 64 35 34 30 26 38 51 51 51 66 93 100 103 105 104 115 120 121 124 133 131 135 133 128 126 120 122 124 120 116 120 118 118 120 119 120 122 121 119 123 120 118 120 118 116 116 116 113 112 114 106 101 104 93 94 80 73 78 71 70 73 77 75 87 82 87 90 85 89 95 93 101 99 101 107 104 106 102 109 93 52 46 46 69 101 109 76 96 88 98 98 94 85 48 31 28 30 41 65 52 53 78 116 120 117 122 120 119 113 118 125 126 123 125 132 126 119 122 118 119 116 114 117 121 121 120 127 123 122 125 123 118 128 119 118 118 115 102 107 102 103 91 86 73 64 64 58 52 56 62 54 58 62 70 73 79 85 81 85 86 92 92 97 95 94 105 104 108 103 107 113 96 72 51 51 81 117 112 91 71 97 94 95 85 103 76 41 33 22 52 75 58 58 102 124 124 122 111 106 94 99 94 109 115 109 112 110 113 106 113 109 111 105 107 110 113 116 115 123 119 120 124 123 123 122 115 117 116 110 96 92 93 84 76 56 58 48 57 49 50 58 66 57 70 67 74 79 83 86 88 87 87 90 90 95 96 93 105 107 105 110 109 112 105 79 56 53 90 112 104 106 81 85 98 92 92 114 115 67 29 17 63 85 69 76 110 107 108 106 97 95 91 88 85 88 89 88 80 88 85 89 86 85 88 81 92 100 97 97 110 109 115 118 120 119 124 117 113 107 103 96 88 78 71 70 60 54 50 52 52 49 59 54 51 53 56 63 66 61 70 76 78 83 90 90 92 95 103 97 110 106 105 109 113 106 107 89 64 67 84 74 93 100 92 84 100 94 96 114 126 81 41 23 68 99 83 88 107 95 89 96 80 83 91 85 89 82 78 75 62 65 65 61 63 67 63 63 65 81 80 80 95 96 106 108 105 111 112 111 111 103 95 87 78 73 62 64 57 57 53 47 44 55 57 31 30 22 31 30 27 38 53 41 36 49 65 73 90 94 100 103 108 106 105 112 112 106 108 96 65 72 79 57 81 96 98 87 97 94 78 108 131 100 53 22 77 102 96 102 92 81 83 90 82 80 88 85 82 73 72 68 63 70 63 59 54 54 53 51 59 59 61 71 76 81 90 91 100 100 103 107 98 93 82 81 67 66 66 61 61 48 42 44 51 65 71 33 33 21 28 23 25 49 75 51 36 37 38 52 66 93 98 105 105 108 111 114 111 109 104 104 76 76 75 60 72 93 107 89 96 94 93 67 113 122 80 22 81 104 104 106 84 78 85 83 77 84 85 84 82 79 77 68 66 55 50 39 44 43 47 55 43 52 56 58 64 69 74 81 85 99 102 111 107 97 86 82 70 63 63 58 52 42 38 42 52 72 87 65 45 35 36 28 44 76 87 70 69 66 66 68 70 85 97 107 110 111 114 114 114 104 104 103 87 91 78 66 77 93 105 103 91 99 84 104 51 109 118 29 88 109 111 109 87 73 82 82 80 81 77 70 56 50 51 43 30 27 20 20 25 35 57 51 39 35 43 51 51 63 64 68 90 114 134 131 127 113 106 88 78 71 64 57 50 40 40 46 51 65 79 87 65 51 59 48 68 86 94 88 102 97 103 104 103 103 107 110 117 114 114 117 115 104 103 100 98 105 84 68 76 96 107 102 94 98 77 121 82 64 109 42 100 110 114 110 95 82 76 83 86 65 51 40 30 46 66 39 32 27 30 28 29 49 74 57 45 38 23 43 52 51 50 80 116 136 146 146 144 137 129 103 90 86 74 78 74 73 66 69 70 78 83 80 81 81 86 77 87 100 108 109 104 110 110 115 114 113 114 113 116 114 118 114 119 102 101 98 100 116 90 56 79 105 108 101 93 89 84 118 103 84 93 52 102 119 110 108 102 85 73 81 72 56 37 32 36 50 76 69 40 31 28 29 43 58 71 53 43 49 53 44 61 41 56 91 130 147 160 158 154 150 144 115 99 96 86 92 99 83 80 73 79 78 83 86 88 89 93 95 98 110 108 106 109 108 111 115 117 115 116 113 118 123 122 121 120 101 99 91 101 121 90 46 95 117 100 111 90 93 74 113 115 118 85 53 108 117 115 113 108 96 86 69 68 48 52 48 56 55 62 78 55 53 52 56 55 71 65 68 53 69 66 63 68 50 53 112 140 156 168 167 167 157 146 125 105 103 99 96 108 95 86 82 73 82 84 84 84 96 93 104 102 104 110 105 107 109 113 115 119 120 124 121 121 124 127 120 114 108 97 95 94 125 96 56 97 111 110 92 93 89 85 108 124 119 90 50 105 121 114 122 117 117 98 79 75 66 74 70 79 79 81 82 77 69 74 77 74 79 71 66 64 64 64 71 68 50 74 119 146 157 166 175 169 163 143 129 114 114 112 104 109 107 99 96 86 85 86 85 84 89 89 103 97 99 104 102 110 112 116 119 123 125 128 126 126 123 129 121 123 100 98 94 91 117 114 83 108 105 105 100 89 88 71 110 121 127 90 58 105 116 119 123 132 133 127 117 112 102 102 95 107 106 113 105 95 99 97 96 93 78 77 65 62 70 73 73 65 79 103 123 143 149 164 168 166 160 148 126 116 120 127 118 116 113 119 112 103 95 96 98 94 97 99 95 103 103 113 119 119 132 134 126 133 128 137 138 133 128 126 120 120 106 98 94 91 113 108 104 117 106 107 92 85 93 72 107 120 125 101 77 98 115 122 125 131 139 139 138 128 120 119 113 104 107 108 102 106 97 92 96 85 82 74 73 73 84 83 85 93 111 117 123 141 155 168 173 173 159 159 134 120 124 133 127 128 116 129 126 128 110 118 116 109 117 118 115 128 125 137 136 138 139 144 141 139 146 143 140 139 126 124 122 114 107 97 91 101 109 105 114 123 112 113 81 90 83 83 93 125 129 124 99 99 119 124 135 134 142 143 150 145 138 137 132 117 100 100 98 91 96 86 89 92 97 108 96 98 104 115 113 125 122 124 122 140 154 161 171 167 156 160 147 124 125 129 129 130 128 129 139 138 135 132 138 134 127 131 126 141 140 147 147 146 148 151 155 148 149 145 141 130 128 121 116 110 105 95 94 97 111 109 120 123 117 99 86 86 87 76 87 129 132 140 123 98 112 126 130 139 140 145 153 148 141 145 143 138 131 129 125 121 128 121 121 123 122 131 125 126 137 132 133 136 129 126 128 138 150 164 175 168 159 162 150 135 126 135 127 129 130 132 144 143 149 147 150 149 146 144 142 145 148 150 149 147 153 149 152 151 149 142 139 125 124 120 108 107 105 94 94 98 110 113 119 129 114 97 77 82 88 81 74 132 127 146 141 104 108 128 133 139 143 148 151 151 148 148 149 146 148 145 147 142 148 143 139 144 149 149 152 152 149 149 134 133 133 123 131 143 150 164 172 170 166 161 155 138 136 139 134 129 129 134 141 149 149 155 160 158 155 150 153 159 152 153 152 143 150 149 146 145 141 142 133 125 122 121 112 104 104 97 90 96 111 110 119 117 115 83 76 84 87 88 70 125 128 135 159 112 105 119 134 129 141 147 148 152 159 155 155 154 158 155 157 154 157 151 158 156 168 162 160 157 157 149 137 131 128 130 133 141 152 166 170 172 165 163 152 137 136 140 137 133 131 137 142 151 151 153 157 162 162 161 159 164 159 153 153 153 154 155 147 142 138 135 129 119 120 120 113 100 101 99 91 99 104 109 113 111 99 79 78 83 78 84 75 100 145 124 156 125 99 121 130 130 135 144 147 149 161 158 159 160 159 159 162 166 162 161 163 169 168 165 161 151 155 148 133 131 133 127 135 139 154 161 170 169 160 160 153 143 135 136 138 135 129 134 144 145 154 154 156 160 164 157 162 167 159 159 155 155 153 152 150 140 142 134 125 120 113 118 103 105 98 93 91 99 107 108 106 105 81 74 83 75 82 89 81 87 135 135 148 139 98 112 125 126 129 136 146 146 149 155 156 158 155 157 155 154 167 169 169 165 169 168 161 156 148 145 135 131 135 124 131 137 153 162 167 167 162 162 151 153 133 128 136 142 135 124 137 147 150 154 152 152 161 159 156 157 155 162 159 151 156 146 151 145 140 130 123 116 116 106 101 104 96 90 96 104 111 111 99 86 69 73 77 79 73 89 85 72 123 142 137 155 106 104 113 126 124 128 136 139 142 144 150 152 153 159 157 158 169 169 164 168 170 161 160 153 150 140 129 128 134 124 130 142 150 165 167 167 159 162 152 150 137 130 142 144 146 131 124 137 145 151 154 150 161 162 157 155 153 152 157 149 150 144 138 146 137 122 116 121 112 96 109 100 96 95 97 100 113 97 93 70 72 74 74 77 76 83 89 72 95 132 130 164 117 93 109 116 119 121 131 135 129 132 140 145 150 154 162 165 167 162 162 163 170 163 162 146 143 132 126 130 138 128 130 136 142 160 165 168 156 157 154 147 149 139 142 151 157 152 125 119 139 145 148 155 156 157 153 157 156 153 154 148 144 140 138 135 135 123 110 115 110 99 100 103 98 96 97 99 94 85 75 64 75 71 70 75 74 88 88 85 78 117 133 168 130 89 105 113 113 120 129 128 126 135 137 144 145 149 164 164 165 160 162 159 163 155 148 148 140 121 133 141 139 134 134 134 145 162 179 176 164 160 155 153 154 141 145 145 156 152 140 120 129 145 147 147 152 151 157 155 153 151 153 146 139 138 134 133 128 117 113 108 106 103 100 106 95 101 89 87 69 72 70 68 78 66 71 71 72 89 84 87 77 100 126 160 152 89 101 106 114 113 124 125 125 133 135 134 147 147 149 167 165 158 161 161 152 152 143 147 133 122 141 141 142 141 139 137 158 166 167 174 159 162 164 155 148 141 140 142 145 145 142 117 127 142 143 142 149 155 151 150 150 151 148 142 135 134 127 129 123 110 112 103 105 107 100 99 99 99 94 58 65 69 67 67 70 71 68 73 68 87 85 85 87 77 119 139 157 103 93 104 107 114 115 122 124 128 134 133 137 144 144 155 158 152 158 154 146 147 145 142 124 128 135 134 138 128 129 139 144 143 145 143 135 143 148 129 123 118 123 120 125 122 126 112 117 147 142 141 145 146 143 147 148 146 142 134 133 131 125 120 123 111 107 106 105 102 102 100 99 104 78 60 65 66 65 64 68 64 64 69 69 90 84 88 82 77 96 122 157 117 86 105 104 106 108 114 117 128 126 132 133 140 144 144 154 147 151 147 144 143 138 130 123 124 130 122 123 115 102 114 125 128 121 124 114 114 113 102 98 97 102 96 95 93 96 100 107 143 145 140 140 139 140 141 138 144 132 128 132 130 122 119 114 111 106 102 107 100 100 97 102 103 71 62 62 62 65 67 64 63 61 64 68 87 85 87 85 87 77 104 133 130 87 108 100 105 103 116 115 124 124 125 137 131 138 142 141 143 145 146 143 139 132 132 133 108 113 106 100 103 91 89 100 108 100 104 91 90 91 86 80 70 75 55 60 75 84 93 99 129 144 142 138 140 139 143 138 134 126 126 124 125 117 117 111 106 108 97 106 98 100 99 101 104 69 50 66 60 58 63 63 63 62 65 62 84 88 85 84 88 87 80 100 115 92 97 104 108 105 109 115 122 119 126 131 130 133 141 141 138 144 138 140 133 127 130 146 112 94 84 64 71 72 71 79 83 90 88 75 82 75 55 57 46 46 48 39 63 91 104 97 120 134 145 137 138 141 142 137 133 123 123 120 117 116 108 110 104 104 100 102 103 97 96 100 103 61 49 58 62 61 58 57 62 60 60 66 83 85 83 91 85 86 86 83 94 87 102 99 110 101 104 110 117 119 122 127 127 133 134 135 133 144 137 140 134 134 133 149 151 93 65 45 39 46 42 44 67 70 65 74 66 54 57 61 57 64 59 74 91 106 108 106 113 132 144 148 136 140 138 140 132 126 119 120 117 108 109 106 103 101 103 98 103 97 97 103 95 64 47 53 59 57 57 52 59 58 62 66 85 83 87 85 84 93 85 86 90 85 94 99 107 105 101 105 113 117 119 126 125 131 128 131 128 142 142 140 140 139 141 149 156 114 64 48 46 42 48 50 52 56 54 64 49 63 74 85 82 86 91 103 104 107 111 110 111 132 141 147 144 133 134 143 134 128 120 118 114 107 108 107 104 99 107 98 103 99 98 107 93 51 52 53 56 53 59 56 54 58 57 56 85 79 90 87 85 88 91 91 87 91 89 97 103 106 109 103 113 113 114 121 121 126 131 129 131 136 143 142 144 143 146 147 154 138 93 69 67 61 53 69 66 67 65 71 66 68 83 97 99 102 106 113 108 107 112 110 115 125 137 142 143 140 138 137 136 133 124 114 115 115 105 107 105 106 103 102 101 100 97 108 86 50 49 60 56 50 64 50 59 57 55 56 88 87 84 87 84 88 89 87 88 90 87 91 102 110 106 106 108 115 114 116 120 120 126 130 136 138 144 144 143 148 144 149 155 149 129 101 97 80 70 72 73 82 84 85 77 86 85 94 103 104 101 114 110 108 117 115 118 128 133 142 143 138 139 137 135 133 128 122 122 112 114 107 108 102 108 102 102 103 95 112 75 53 53 57 57 51 55 55 56 55 59 49 86 83 86 87 88 85 91 81 87 94 84 93 93 110 105 107 103 118 115 113 115 118 115 131 134 141 144 144 142 145 150 149 153 150 146 144 128 128 113 103 93 94 99 90 86 77 89 96 100 100 111 110 106 105 117 117 125 129 135 138 141 142 135 134 135 130 130 133 123 114 113 110 110 105 99 103 98 98 97 108 66 44 54 53 54 57 52 56 55 53 57 54 81 86 86 83 88 86 90 89 86 89 91 87 95 106 107 106 106 113 117 115 119 122 123 128 131 139 146 143 142 143 149 146 146 142 145 143 138 138 130 127 120 111 99 95 87 83 88 94 97 102 110 108 105 111 116 120 123 132 135 140 138 141 136 127 130 129 125 126 124 120 113 111 109 107 104 98 102 95 98 104 56 51 52 52 55 56 48 56 53 54 55 59 85 85 84 85 87 86 84 87 89 88 89 94 91 106 104 109 100 105 115 118 119 117 124 131 128 140 143 131 139 143 147 143 149 139 143 142 139 138 140 141 139 126 117 99 96 79 93 95 101 105 108 114 108 113 119 122 125 130 128 135 129 131 126 125 123 126 124 122 121 121 114 106 110 107 101 102 94 96 103 96 48 52 53 57 50 57 52 56 54 51 54 56 85 85 84 89 85 89 87 89 85 93 80 94 98 96 106 107 106 109 113 115 122 123 121 134 132 139 138 132 134 140 142 139 137 141 139 133 140 140 135 142 146 147 133 118 109 95 102 111 108 115 112 117 114 117 112 120 121 118 119 120 119 114 114 119 123 118 119 124 118 112 113 109 105 104 99 106 97 89 108 82 48 53 48 56 51 55 54 51 53 52 54 56 84 85 86 82 83 87 87 83 91 81 92 87 93 97 110 100 109 112 113 119 124 124 125 131 131 134 127 134 127 134 136 138 134 127 132 131 140 141 145 136 149 161 152 141 122 118 120 128 125 125 123 121 115 115 111 112 108 109 97 110 109 98 109 113 116 116 114 119 115 108 113 105 100 102 96 101 94 99 99 73 45 55 50 55 50 54 53 55 53 56 52 55 80 87 84 85 83 89 88 84 87 88 85 91 88 99 104 104 105 111 115 119 127 126 126 129 128 127 124 130 123 124 136 131 123 122 122 121 129 138 146 139 140 146 146 142 139 129 124 114 105 108 111 107 109 114 112 104 97 100 96 94 94 94 100 107 111 110 112 113 107 107 112 109 97 101 101 97 94 103 98 56 47 50 56 49 50 58 53 50 53 52 51 52 87 80 83 80 88 87 88 87 85 88 88 89 94 94 101 105 106 104 121 115 129 128 126 127 126 123 124 123 118 117 118 118 113 113 118 121 123 127 127 108 104 95 87 96 117 111 93 82 58 69 73 67 75 82 84 81 73 81 71 74 70 82 93 101 107 107 110 108 102 106 108 106 102 100 98 99 95 107 80 48 52 54 52 54 46 55 46 54 50 53 52 50 82 86 82 79 87 86 88 86 86 86 89 88 85 97 93 107 106 108 109 119 125 129 126 123 120 128 120 118 112 115 110 107 110 106 111 104 100 90 81 60 63 49 52 61 63 65 64 51 50 45 47 49 49 55 52 54 40 60 51 61 67 72 85 92 103 104 104 110 105 100 106 109 101 99 96 98 96 104 58 46 56 46 54 53 52 56 52 48 55 54 55 53 81 88 84 87 86 85 84 89 85 90 86 87 83 94 95 100 105 105 105 120 121 126 124 121 117 123 119 110 111 107 99 92 96 93 82 68 56 51 40 46 44 40 41 47 41 49 48 50 58 57 67 64 74 75 72 75 83 86 89 89 91 86 87 93 95 99 105 108 106 101 100 108 96 100 96 98 99 89 55 42 55 51 48 54 49 55 53 48 52 53 54 55 90 81 85 80 87 84 86 83 86 83 87 90 86 84 93 98 106 101 102 113 122 119 126 116 112 118 112 108 99 87 73 68 54 52 51 46 53 56 65 82 86 80 88 87 81 95 105 125 125 121 124 107 110 111 108 112 116 115 105 109 111 105 100 98 100 100 103 108 105 97 101 106 96 99 98 98 105 70 36 57 48 56 48 56 47 57 53 49 49 54 59 51 86 86 82 85 83 81 88 82 90 86 87 90 85 87 90 96 98 102 106 110 108 119 120 119 114 112 113 103 83 79 62 75 71 69 83 92 109 107 115 133 143 137 139 143 139 141 146 142 133 126 126 121 126 127 120 116 123 117 120 124 122 117 114 110 104 103 102 105 106 102 99 104 99 99 98 101 93 53 53 49 54 60 46 53 54 51 50 54 49 58 48 59 80 83 86 81 87 85 86 83 90 93 79 92 87 82 92 88 95 99 103 100 105 112 115 114 113 113 103 97 86 99 111 124 136 121 118 124 123 114 118 122 133 133 139 132 132 131 131 131 123 125 118 122 118 124 101 95 121 122 117 121 123 120 114 108 105 104 103 106 103 103 103 97 99 103 99 97 66 46 45 52 54 56 54 54 50 52 51 54 50 53 52 55 83 81 85 83 87 85 86 85 90 89 88 86 86 90 88 89 90 92 101 98 101 107 109 115 107 113 100 98 101 114 124 126 133 123 119 119 124 120 111 121 124 122 121 120 116 113 114 109 108 105 101 107 106 116 101 95 113 117 119 117 123 112 114 108 105 107 102 108 104 103 99 100 99 98 104 83 49 47 54 47 55 50 52 51 54 53 48 54 53 52 51 52 83 84 79 92 79 88 85 88 87 90 84 85 86 120 151 88 86 92 99 91 99 97 103 106 106 112 103 105 108 125 125 121 124 124 125 115 111 109 102 104 104 97 92 87 86 86 90 85 86 90 94 97 99 104 100 99 109 111 117 114 111 109 108 101 106 99 103 104 100 104 97 97 95 96 96 62 40 58 51 50 53 53 45 55 52 52 54 47 51 47 51 51 84 79 83 88 81 85 88 79 88 84 83 98 149 179 184 98 74 86 97 98 94 90 96 105 106 103 103 108 113 126 117 120 116 119 113 115 114 105 105 100 97 93 85 83 77 87 80 82 86 88 89 89 101 93 100 103 110 106 106 113 107 108 108 99 99 96 100 106 102 101 99 99 94 87 101 93 59 54 51 50 54 48 50 53 51 52 51 52 51 52 51 55 78 80 82 86 84 85 83 89 80 79 109 178 197 161 170 127 86 86 88 95 97 90 85 101 102 100 103 107 111 121 120 114 116 115 109 113 107 101 99 91 96 82 87 82 80 80 79 81 83 85 88 94 97 99 103 105 109 102 104 106 106 105 102 101 100 97 103 106 102 100 97 92 96 94 86 120 138 85 44 46 55 50 50 52 51 50 51 50 53 52 48 53 81 79 84 84 83 85 84 85 74 117 185 196 168 177 214 138 107 78 90 86 95 92 92 94 99 98 104 103 107 114 119 113 110 113 109 105 104 105 96 92 92 84 83 74 79 77 71 86 85 79 90 96 95 99 103 107 110 107 101 109 102 104 100 102 94 102 105 101 99 100 95 90 97 94 83 92 122 147 100 39 49 48 52 52 52 49 50 50 49 51 50 52 80 81 86 83 83 86 89 62 115 189 200 164 180 206 220 120 113 100 82 86 88 91 95 95 92 97 97 102 107 107 108 116 111 108 104 101 105 104 101 92 92 83 81 84 91 92 95 103 98 96 98 94 95 99 103 104 106 112 109 110 110 108 102 99 96 98 104 97 98 93 91 94 94 86 112 91 89 129 164 89 39 48 52 54 48 52 49 55 49 53 53 50 81 84 82 84 87 83 66 97 188 209 163 177 204 204 178 108 110 118 93 80 89 93 91 93 94 97 99 103 103 105 105 108 104 112 100 102 103 98 97 96 94 105 117 127 129 139 141 141 131 136 131 130 126 121 115 102 109 118 117 115 111 110 106 99 96 102 102 97 93 93 90 100 92 76 132 134 73 100 133 160 85 42 51 53 51 53 50 49 53 53 51 47 81 82 87 80 87 75 68 175 213 185 156 203 206 196 134 97 110 118 107 87 82 90 86 96 95 101 97 102 102 106 111 103 105 117 107 107 109 104 103 111 115 139 148 143 147 147 154 149 148 152 147 139 141 140 136 104 107 129 120 119 112 106 103 104 97 102 98 96 92 90 100 100 93 78 111 160 117 78 111 152 157 66 40 49 56 46 51 53 54 50 53 53 88 80 80 86 82 57 147 211 198 151 190 212 208 154 92 97 113 120 116 100 84 88 85 91 91 102 100 103 106 105 111 110 112 116 117 115 122 123 130 132 140 145 151 145 145 142 144 139 141 146 138 138 141 140 142 131 121 124 121 117 115 99 94 101 97 92 97 94 91 94 102 93 91 79 95 141 165 81 95 132 164 144 34 46 58 45 56 49 53 51 54 47 88 83 81 87 54 97 198 216 171 147 210 210 198 117 88 102 112 121 110 112 92 78 85 87 87 97 94 99 104 109 108 112 116 114 118 124 125 128 140 136 134 143 142 138 145 141 139 138 133 143 131 134 133 135 132 130 117 117 113 107 107 94 96 98 97 90 97 96 97 91 96 92 94 75 77 119 165 120 76 121 145 166 89 33 51 51 50 53 49 57 51 45 81 82 80 83 38 167 220 210 144 166 212 214 180 84 79 106 112 120 110 112 110 84 74 80 91 88 87 92 100 95 104 110 108 120 117 123 127 126 136 137 134 140 137 133 132 136 126 125 127 123 129 123 128 123 120 117 112 106 107 103 96 97 96 95 90 89 96 91 99 85 87 93 98 73 51 103 146 160 68 103 136 165 142 51 44 48 53 50 54 49 51 46 78 82 87 64 57 205 216 209 120 183 213 211 163 74 53 109 112 113 116 112 108 97 81 73 74 84 85 92 97 94 101 109 110 114 118 121 116 126 120 132 125 130 125 129 127 125 118 119 121 117 117 120 119 113 112 106 101 102 101 102 91 93 92 93 97 88 98 91 92 87 86 92 97 52 47 84 130 176 88 81 135 145 166 83 41 48 51 51 48 54 50 54 84 79 90 51 111 219 218 196 114 199 212 208 144 43 39 120 120 111 116 115 105 107 89 72 75 72 79 87 86 89 89 103 97 109 105 113 117 121 116 121 120 122 123 122 119 116 118 117 114 115 112 113 103 97 98 96 89 94 92 96 91 91 91 99 95 93 97 83 89 95 88 93 97 33 28 77 115 173 122 44 126 140 174 115 29 53 49 50 46 53 53 50 86 80 84 48 148 215 220 189 121 206 211 210 142 8 64 131 122 116 112 112 109 107 102 74 80 76 74 74 84 88 87 86 92 101 107 99 112 112 106 114 117 110 115 112 107 111 107 107 112 105 105 102 98 91 93 92 88 95 88 90 92 89 97 94 95 100 91 94 85 95 85 97 95 25 14 70 114 163 148 36 102 138 168 138 30 48 52 54 50 54 47 52 78 80 83 41 178 213 214 195 133 203 214 216 125 14 105 127 122 120 113 114 111 103 102 91 80 77 80 74 74 74 89 78 89 89 96 92 96 99 99 102 104 106 106 101 104 102 99 96 95 99 95 88 91 90 84 87 89 89 89 85 93 94 94 97 92 97 93 88 91 89 86 93 96 24 4 51 111 154 175 30 90 125 170 151 48 44 52 46 53 46 51 48 84 84 65 75 197 208 212 198 139 205 211 225 106 34 125 128 117 123 121 112 114 104 106 99 83 75 78 79 73 71 80 78 86 84 86 85 87 92 90 89 89 94 93 94 89 95 85 91 82 87 88 83 85 88 85 86 84 90 90 92 94 94 98 102 93 98 87 90 92 89 93 89 91 34 1 44 119 152 177 36 75 127 162 162 59 40 50 48 53 48 49 51 84 88 74 117 203 209 208 205 145 196 213 225 94 49 133 126 121 118 126 121 111 112 107 102 92 82 72 77 72 76 73 73 74 86 86 90 82 87 83 86 82 80 87 83 84 82 89 81 78 82 84 83 87 89 88 86 80 92 92 93 93 100 93 97 91 91 96 90 94 85 90 97 85 35 1 50 120 151 178 46 66 134 162 161 91 53 59 44 54 56 48 51 123 148 158 162 191 206 205 212 158 179 216 231 109 60 133 124 126 120 121 128 123 111 110 108 96 91 78 75 70 78 74 76 73 74 75 84 89 88 85 88 90 81 82 84 84 81 85 78 87 85 82 86 87 86 80 83 88 95 95 97 99 94 99 96 91 93 85 93 94 92 90 94 87 28 4 64 129 156 173 41 83 146 170 156 132 124 116 71 84 99 77 62 170 179 188 187 183 203 209 206 174 166 215 228 145 45 131 125 128 125 117 125 123 121 110 105 103 93 87 78 77 74 73 75 79 75 74 74 74 76 89 84 93 89 89 88 89 90 88 86 89 80 88 80 77 79 84 89 97 96 99 99 97 94 98 97 88 92 89 91 97 91 93 93 82 22 19 95 135 163 158 36 99 155 162 154 132 137 136 134 118 125 117 110 176 187 198 194 180 200 209 210 184 158 212 225 180 47 123 128 128 124 116 119 122 123 119 111 104 99 92 84 77 77 79 73 79 78 79 71 74 63 74 69 84 75 85 84 81 84 85 77 76 76 77 73 80 92 88 92 92 98 101 97 93 96 96 90 93 92 93 94 98 91 88 97 70 14 39 121 143 170 126 44 123 155 167 148 134 132 135 138 136 137 121 114 192 191 200 196 181 194 209 207 198 163 200 220 204 53 117 126 129 121 118 120 129 121 118 120 111 106 94 86 82 77 81 76 79 75 81 73 77 72 72 67 63 72 69 70 65 71 75 75 72 71 78 82 85 94 90 91 95 95 95 96 88 97 94 86 93 97 97 94 94 86 89 91 54 3 66 142 156 163 93 76 135 154 166 153 127 128 134 137 135 144 140 133 194 199 200 195 191 183 206 211 198 187 180 214 228 72 103 125 128 124 125 122 117 121 123 116 116 113 105 91 91 88 79 81 79 78 75 84 78 79 80 79 73 67 67 67 71 73 74 72 75 78 83 79 90 85 90 91 99 90 91 93 93 90 94 94 99 94 96 92 89 86 91 79 32 19 124 149 164 150 64 108 146 159 160 152 128 123 135 130 138 137 143 145 189 202 200 192 197 182 201 213 199 202 171 205 237 112 94 123 129 128 115 124 115 118 124 121 122 109 116 102 95 90 80 85 76 79 76 77 82 82 82 86 74 74 71 73 69 85 65 78 75 86 80 87 91 91 85 93 95 89 94 89 92 93 101 93 95 93 92 95 80 83 94 57 12 73 142 159 170 124 81 127 149 158 158 149 129 116 132 129 137 137 138 148 