P2
92
112
15
5 6 5 6 6 6 5 5 6 6 6 5 5 3 4 4 4 4 5 6 5 5 3 3 4 5 4 5 6 4 3 4 4 5 4 5 6 6 5 4 5 5 5 5 5 4 4 3 3 3 3 3 2 3 2 1 2 2 3 3 4 4 4 3 4 4 3 4 5 4 4 4 5 4 3 4 4 4 5 4 5 5 4 5 5 5 6 6 6 6 6 6 5 5 5 6 5 6 5 6 5 5 5 5 5 4 5 5 5 6 6 6 5 4 3 4 5 3 2 4 5 5 5 6 5 4 5 5 5 4 4 4 5 5 5 6 5 4 4 4 4 4 3 3 3 2 2 2 2 2 2 3 4 4 5 4 3 3 2 4 4 4 4 4 5 4 4 3 4 5 4 4 5 5 4 3 4 5 5 6 6 6 6 6 5 6 6 6 5 6 5 5 5 5 5 6 5 4 6 6 6 7 6 5 4 4 5 5 4 2 3 4 5 6 6 6 6 7 6 4 3 3 3 3 5 6 5 5 4 5 4 4 4 3 3 2 4 3 3 2 3 2 2 2 3 4 4 4 3 3 2 2 4 3 4 4 4 4 5 3 4 4 4 3 4 5 4 4 4 4 4 5 6 6 6 6 6 5 6 5 6 5 5 5 5 5 6 5 5 6 6 6 6 6 6 4 3 5 6 4 4 4 6 6 6 6 5 6 6 5 4 3 2 3 3 3 4 4 4 3 4 4 4 4 4 4 3 4 4 3 3 3 4 3 3 2 2 3 3 3 3 2 3 2 3 4 3 4 4 3 4 5 4 4 4 3 4 4 4 4 4 4 4 4 5 6 6 6 5 6 5 5 5 5 5 6 5 6 6 5 6 6 6 6 6 6 5 3 3 6 5 4 5 6 7 7 7 6 5 5 6 4 4 4 4 4 4 3 3 3 3 3 5 5 5 5 5 4 4 4 4 3 3 4 4 4 3 3 3 3 2 3 3 2 2 3 3 4 3 3 4 3 4 5 5 3 4 3 4 4 4 4 3 3 5 4 4 6 5 6 6 6 6 5 6 5 6 6 6 5 5 5 7 6 6 5 5 5 3 3 5 5 5 5 6 7 7 6 5 5 4 5 5 7 6 7 6 5 5 4 4 4 4 4 5 5 5 5 4 4 4 4 3 4 4 3 3 3 3 3 2 3 3 3 3 2 2 3 2 3 4 4 3 3 4 4 5 3 2 3 4 4 3 3 3 2 4 5 5 4 6 6 6 5 6 5 5 6 6 5 5 5 5 5 6 6 6 4 4 4 3 5 5 5 5 5 7 7 7 6 6 6 5 6 6 7 7 7 6 5 4 5 5 4 4 5 5 5 5 5 5 4 3 3 3 3 3 2 2 2 2 2 2 2 3 3 3 2 1 2 2 3 3 4 3 2 3 4 4 4 2 2 4 4 3 3 3 2 3 4 5 5 5 6 5 6 6 5 5 6 4 4 6 6 5 6 6 6 4 4 3 5 6 7 6 6 6 7 7 7 7 7 7 6 6 6 6 6 6 6 5 5 5 5 5 4 5 5 5 5 5 4 4 3 3 3 4 3 3 3 3 2 2 2 2 3 3 2 3 2 1 1 2 2 2 3 2 1 2 3 3 3 3 2 3 4 3 4 3 3 2 4 4 5 5 5 6 6 5 4 5 5 4 5 6 7 5 5 6 4 5 4 4 6 7 7 6 6 6 7 7 6 7 7 7 8 7 7 7 7 7 5 5 4 5 4 4 4 4 4 4 4 3 5 4 3 3 3 2 2 3 3 3 3 2 2 2 2 2 2 3 3 1 1 2 2 2 3 2 1 2 3 3 2 2 3 3 4 3 4 3 3 2 3 4 3 5 4 6 5 3 4 4 5 5 6 6 6 5 5 4 4 5 5 5 6 6 6 6 6 7 7 7 7 7 7 7 8 8 7 7 6 6 5 5 4 4 4 4 4 4 4 4 3 3 3 3 3 3 3 3 3 4 4 4 4 3 3 2 3 2 2 3 3 2 2 2 2 2 2 2 2 2 2 3 2 2 4 3 4 4 3 4 3 3 3 5 3 3 5 6 4 3 4 4 4 6 5 5 5 5 4 3 5 5 5 5 4 5 6 6 6 6 6 5 6 7 7 7 7 6 6 7 6 6 5 5 4 4 5 4 4 5 5 4 4 3 3 3 4 4 3 3 4 4 3 4 3 3 3 3 3 3 2 2 3 3 2 2 2 2 2 2 1 2 2 2 1 2 4 4 3 3 3 3 4 2 3 4 4 2 4 6 4 3 4 4 5 5 4 5 5 5 4 4 5 4 4 3 4 5 6 5 4 4 4 5 5 6 6 7 7 8 7 7 6 6 5 4 4 4 4 5 5 6 5 4 5 4 3 3 3 4 4 3 4 4 4 4 3 3 3 2 3 3 2 2 2 2 2 2 2 2 2 1 2 2 1 1 1 3 3 3 4 3 3 3 4 3 2 4 5 2 5 6 4 4 3 4 4 4 3 5 4 4 5 4 5 4 3 4 4 4 4 4 3 3 4 5 5 6 6 6 7 7 7 7 6 5 5 5 4 5 4 4 5 6 5 6 5 4 5 4 4 5 5 4 4 3 3 3 3 4 3 2 3 3 3 2 2 2 2 2 2 2 2 2 1 1 1 1 1 3 4 3 4 3 2 3 4 4 2 3 6 2 4 5 4 4 3 3 4 4 4 4 3 4 4 5 5 3 2 3 4 4 4 2 3 4 5 4 4 5 6 7 6 6 6 7 6 5 6 6 6 5 5 5 5 5 5 4 4 4 4 4 4 4 5 4 4 4 3 4 3 4 4 3 2 2 3 3 2 2 2 2 2 1 2 2 1 1 1 1 2 3 3 3 4 2 1 3 4 4 3 3 4 4 2 5 4 3 3 2 3 4 4 4 3 3 4 5 4 2 2 3 3 3 2 4 4 4 4 4 4 4 5 5 5 5 6 6 6 5 6 6 5 5 4 5 4 5 4 4 4 3 4 4 3 3 4 3 3 3 4 3 3 4 4 4 4 3 3 2 3 2 2 2 2 2 2 2 1 1 1 1 2 3 3 3 3 1 2 2 4 3 3 3 3 5 2 5 4 3 2 3 3 3 3 3 3 2 3 3 2 2 2 3 3 3 3 4 4 4 3 4 4 4 5 5 6 5 5 6 6 6 6 6 5 4 5 4 4 4 4 4 4 5 4 4 5 4 4 2 3 3 3 3 3 3 3 3 4 4 3 3 3 3 3 3 2 2 2 2 2 2 2 2 2 3 3 2 2 2 1 2 3 3 3 2 3 5 2 6 4 2 2 2 3 3 3 3 3 2 3 3 3 2 3 3 3 3 3 4 4 4 4 4 4 3 5 4 5 5 5 5 6 5 5 6 5 4 5 5 5 5 4 4 5 4 4 3 4 4 4 3 3 3 3 3 3 3 3 2 3 3 3 3 3 2 3 3 2 2 2 2 2 2 1 2 2 2 2 2 2 1 1 2 2 3 2 2 3 4 4 6 4 2 1 2 2 2 2 3 2 2 2 3 2 3 2 2 3 3 3 2 3 4 5 4 4 4 5 6 7 6 6 6 6 5 5 6 6 5 6 6 5 5 4 5 3 3 3 3 3 4 4 3 3 4 3 2 3 3 2 3 3 3 2 2 2 2 2 2 2 2 2 2 2 2 1 1 2 2 2 2 1 1 2 2 1 3 2 2 4 4 3 6 4 2 1 2 2 2 2 2 2 2 2 2 2 2 2 3 3 2 2 2 3 4 4 4 4 4 5 6 6 7 6 6 6 6 5 5 5 5 5 6 5 5 5 5 4 4 3 3 4 4 4 3 3 4 3 3 3 3 3 3 3 3 2 3 2 2 2 2 2 2 1 1 2 1 1 1 1 1 2 2 1 2 2 2 2 2 1 2 3 4 3 6 4 2 1 2 2 1 1 2 2 2 2 1 2 2 2 2 1 2 2 3 3 3 4 3 3 3 4 5 6 6 6 7 6 7 6 6 5 5 4 4 4 4 4 3 3 3 3 3 3 3 4 4 3 3 3 3 3 3 3 3 3 3 4 4 3 3 2 3 2 2 2 2 2 2 1 2 1 1 1 2 1 1 1 2 2 2 1 2 3 3 3 6 4 3 1 1 2 1 2 2 2 2 2 2 2 2 2 2 1 2 2 2 3 2 3 3 3 4 4 4 5 6 5 5 5 4 4 3 4 4 5 4 5 5 5 5 3 4 3 4 3 3 3 4 4 4 3 4 4 3 4 3 3 2 2 3 3 3 3 3 2 2 2 2 2 1 2 1 1 1 1 1 1 2 2 2 2 1 1 2 3 3 2 6 5 3 1 1 1 2 1 2 1 1 2 1 2 2 2 2 2 2 2 2 2 3 3 3 4 5 4 5 5 6 5 5 5 5 4 3 3 3 2 3 4 4 4 5 5 4 4 3 3 3 2 3 3 3 3 4 4 3 3 3 3 3 2 2 2 2 2 3 3 3 3 2 2 2 2 1 1 2 2 2 1 2 1 2 2 1 1 2 2 3 1 5 5 4 2 1 1 1 2 2 1 2 1 1 1 2 2 2 2 3 3 3 3 3 3 3 4 5 5 6 6 7 6 6 5 4 3 2 2 2 3 3 4 3 4 4 4 4 4 4 4 4 3 3 3 3 3 3 3 3 3 3 3 3 4 3 2 3 2 2 2 1 2 2 2 2 2 2 2 2 2 2 2 1 2 2 2 1 1 2 3 3 1 5 5 4 2 1 1 2 2 1 1 2 1 1 2 2 2 2 2 3 3 2 3 2 3 3 4 4 5 6 7 7 7 6 5 5 4 4 3 3 2 3 3 2 3 2 3 4 4 4 4 4 3 3 3 3 3 3 2 2 3 3 3 2 3 3 3 3 2 3 3 3 2 2 2 2 2 2 2 2 2 2 2 1 2 2 2 1 1 2 3 2 1 6 5 4 4 2 2 1 2 1 2 1 1 1 2 2 2 2 2 2 2 2 2 2 3 3 4 5 5 7 6 6 7 7 7 6 5 4 4 3 3 3 3 3 3 2 2 2 2 3 4 5 4 4 3 3 4 4 3 2 3 3 3 3 3 3 3 3 2 3 3 3 3 3 3 3 3 2 2 2 2 2 2 2 1 1 1 1 1 2 2 2 1 5 4 4 4 3 1 1 2 2 1 1 1 2 2 2 2 2 1 2 2 2 2 3 3 3 4 5 5 6 7 7 7 7 7 6 6 5 5 4 4 4 4 3 3 3 2 2 2 2 2 3 3 4 4 4 3 3 3 3 3 3 3 3 4 4 3 3 3 3 3 2 2 2 2 2 3 2 2 2 2 2 2 2 2 1 1 1 1 2 2 2 1 6 4 3 4 4 1 2 1 2 2 1 1 1 2 2 2 2 1 2 2 2 2 2 2 2 4 4 5 5 6 7 6 6 6 6 6 5 4 4 4 3 3 3 3 3 2 3 2 2 2 2 3 3 2 2 1 2 2 2 2 3 4 4 3 3 3 3 2 3 3 2 2 2 2 1 1 1 1 2 2 1 2 2 1 2 2 1 1 2 1 1 1 6 4 3 4 3 2 1 2 1 1 2 1 1 2 2 2 1 1 2 2 1 2 2 2 3 3 3 3 3 4 5 5 5 5 6 5 5 5 4 4 3 4 4 3 3 3 2 3 2 2 2 2 3 2 2 2 1 2 2 2 2 2 3 3 4 3 3 3 3 3 3 3 3 3 2 2 1 2 1 1 1 1 1 2 2 1 1 1 1 2 2 1 5 4 3 3 3 2 1 1 2 1 1 1 2 2 2 1 1 1 1 1 2 1 2 2 2 2 3 3 4 4 5 5 5 5 5 5 5 4 4 4 4 4 5 4 4 4 3 3 3 2 2 3 3 2 3 2 2 2 2 1 1 1 2 2 2 2 2 2 3 3 3 3 3 4 3 4 4 4 3 2 1 1 1 2 2 2 1 1 1 2 1 2 6 4 3 3 3 2 1 2 2 1 1 1 2 1 1 1 1 1 2 1 2 2 2 2 2 2 3 3 4 4 4 5 5 5 5 5 4 5 4 4 4 3 4 3 4 3 3 3 3 3 2 3 3 3 3 3 3 2 1 1 1 2 3 3 3 3 3 3 3 3 3 3 2 2 1 2 2 2 2 2 2 1 1 2 1 2 2 1 1 2 2 1 6 4 3 3 2 2 1 2 2 1 1 2 2 1 1 1 1 2 1 1 2 2 2 2 2 2 2 2 2 3 3 4 5 5 4 5 4 4 3 3 4 3 4 4 4 3 3 3 3 3 3 3 3 3 3 3 3 2 2 2 2 3 3 2 2 3 2 1 1 2 2 2 1 1 2 2 2 2 2 2 2 1 1 1 1 1 2 1 1 1 2 2 5 4 3 2 2 2 1 1 2 1 1 2 1 1 1 1 1 1 1 1 2 1 2 2 2 2 2 2 2 2 2 3 3 4 4 5 4 4 4 3 3 4 4 4 4 4 4 3 4 3 3 3 2 3 3 2 2 2 2 1 2 2 2 2 1 2 2 2 1 2 1 2 2 3 3 2 2 2 1 2 2 1 1 1 2 1 1 1 1 1 2 2 6 4 3 2 1 2 2 1 1 1 1 2 1 2 1 2 1 1 1 1 1 2 1 2 2 2 2 2 2 2 2 2 2 3 3 5 5 5 5 5 4 4 4 4 4 3 3 3 2 2 2 2 2 2 2 2 2 1 2 2 2 2 2 1 2 3 2 2 3 2 1 3 4 3 2 1 2 2 2 1 2 2 1 2 1 1 1 1 1 1 2 2 6 4 3 2 1 1 2 2 1 2 2 2 1 2 2 2 1 1 2 1 1 1 2 2 2 2 2 2 2 2 3 3 3 2 2 2 3 4 4 4 4 4 4 4 4 4 3 3 3 2 2 2 3 2 2 2 2 2 2 2 3 3 3 2 3 3 2 3 3 2 2 4 4 2 2 2 2 2 2 2 2 2 1 1 1 1 1 2 1 1 2 2 6 5 2 2 1 1 2 1 1 1 1 2 1 1 1 1 1 2 1 1 2 2 2 2 3 2 3 2 3 3 3 3 3 2 3 2 3 2 2 2 2 2 2 3 2 3 3 3 3 2 2 3 4 3 3 3 2 2 3 4 3 3 4 4 4 4 4 4 4 3 3 3 2 2 2 2 2 2 2 2 2 2 2 1 1 1 1 1 1 2 2 2 5 5 2 1 1 1 2 1 1 1 1 1 2 1 1 1 1 1 1 2 2 2 2 2 3 3 3 3 3 3 3 3 3 3 3 3 2 3 2 2 2 2 1 2 2 2 2 3 3 2 3 3 4 3 3 3 3 3 4 4 4 4 4 4 5 5 4 5 5 4 3 3 2 2 2 2 3 3 3 3 2 2 2 2 1 1 1 1 2 2 2 3 6 5 2 2 2 2 2 1 1 1 1 1 2 1 1 1 1 2 2 2 2 3 2 3 3 3 3 4 3 3 3 3 3 3 4 3 3 3 2 2 2 2 2 2 2 2 2 3 3 3 4 3 3 3 3 4 4 4 4 5 5 4 4 5 6 5 4 7 6 4 4 3 3 3 3 3 3 3 3 3 3 2 2 2 1 1 2 1 2 2 3 3 6 6 3 1 2 1 2 2 1 2 1 1 2 2 2 2 1 2 2 2 3 3 3 3 3 4 4 4 4 3 4 4 4 3 4 3 3 2 3 2 2 2 2 2 2 2 2 3 3 3 3 3 3 4 5 4 4 4 4 4 4 4 5 5 4 5 6 6 5 4 4 4 4 4 4 4 3 3 4 3 3 3 2 2 2 2 1 2 2 3 3 4 5 6 3 1 2 2 2 1 2 1 1 1 2 3 3 2 2 2 2 3 3 3 4 4 4 5 5 5 5 5 5 4 4 4 4 4 3 3 3 2 3 3 2 2 2 2 2 3 3 3 3 4 4 4 4 4 4 4 4 4 5 5 5 5 5 6 6 6 5 5 5 5 5 5 5 5 4 4 3 3 3 3 3 2 2 2 2 2 2 3 3 3 5 6 4 2 2 1 2 2 1 2 1 2 3 4 4 3 3 3 3 4 4 5 6 6 6 6 6 5 6 6 6 5 4 3 3 3 3 3 3 3 3 3 3 3 2 3 2 3 3 3 3 3 4 4 3 4 4 4 4 4 5 5 5 5 6 6 6 6 6 6 6 6 6 6 6 6 5 4 4 4 4 3 2 2 2 2 2 2 3 2 2 3 5 6 5 2 2 2 2 1 2 2 1 3 5 6 6 4 3 4 4 5 6 6 6 6 6 6 6 5 6 5 6 5 4 4 4 3 2 3 3 3 3 3 3 3 3 3 3 3 3 3 4 4 4 4 4 4 4 4 5 4 5 5 6 6 6 6 6 7 6 6 6 6 6 7 7 6 6 5 5 4 4 3 2 3 2 2 2 2 2 2 2 3 7 8 9 7 3 1 2 2 2 2 3 6 7 8 7 5 4 4 6 8 8 8 8 7 7 6 7 7 6 6 6 6 6 5 5 5 4 3 3 3 3 3 4 4 3 4 4 4 4 4 4 4 4 4 4 5 4 5 5 5 5 6 6 7 7 7 6 7 7 6 7 7 6 6 6 7 6 6 5 5 4 3 2 2 2 2 3 2 2 2 2 2 7 8 10 8 5 2 2 2 2 2 5 7 8 8 8 6 5 6 7 8 9 9 9 8 8 8 8 8 8 8 7 7 7 7 6 5 6 5 4 4 4 4 4 4 4 4 5 5 5 5 5 5 5 5 5 5 5 5 6 6 7 6 7 7 7 7 7 7 7 7 6 7 6 6 7 6 6 6 5 5 4 4 3 2 2 2 2 2 2 2 2 2 5 8 10 8 5 2 2 1 2 3 6 8 7 8 8 7 7 8 8 9 9 9 9 9 9 9 9 9 9 9 9 9 9 8 7 7 6 6 6 5 5 5 5 5 5 5 5 5 5 5 5 6 5 6 6 6 6 6 6 7 7 7 7 7 8 7 7 7 7 6 7 7 7 7 7 7 6 6 6 5 4 4 3 2 2 2 2 2 2 2 2 1 3 4 9 9 6 4 2 2 2 5 7 8 8 8 8 8 7 8 9 9 9 9 9 9 9 9 9 9 9 9 9 9 9 9 9 8 8 7 7 6 6 6 6 6 5 6 6 6 6 6 6 6 6 6 6 7 6 7 7 7 7 7 7 7 7 7 7 7 7 7 6 7 7 7 7 7 7 6 6 5 4 4 3 2 2 1 1 2 2 2 2 1 5 2 6 9 7 5 2 2 3 6 8 8 8 8 8 8 8 8 8 9 8 9 8 8 8 8 8 8 9 9 9 9 9 9 9 9 9 8 8 7 7 7 6 6 6 6 6 6 6 6 6 6 6 6 7 7 7 7 7 7 7 7 7 7 8 7 7 7 7 7 7 7 7 7 7 7 7 6 6 5 5 4 3 3 2 1 2 1 2 2 2 2 6 4 6 7 9 7 3 1 4 7 8 8 8 8 8 8 7 7 7 7 7 7 6 6 6 6 7 7 8 8 7 8 8 9 8 8 8 8 8 8 8 8 7 7 7 7 7 6 6 6 6 6 7 7 7 7 7 7 7 7 7 7 7 7 7 7 7 7 7 7 7 7 7 7 7 7 7 6 6 6 5 5 3 2 2 2 2 2 2 1 3 5 6 7 8 8 7 6 2 2 6 8 8 8 8 8 8 7 7 6 6 6 6 6 6 6 6 6 6 6 6 6 6 6 7 7 8 8 8 8 8 8 8 8 8 7 8 7 7 7 7 7 7 6 7 6 7 7 7 7 7 7 7 7 7 7 7 7 7 7 7 8 7 7 7 7 7 7 7 6 6 6 6 6 5 2 2 1 2 1 1 2 5 6 7 8 9 8 7 5 2 4 7 8 8 8 8 8 8 7 6 6 6 6 6 6 5 6 6 5 6 5 5 5 4 5 5 5 6 6 7 7 7 7 8 8 8 8 8 8 7 8 7 7 7 7 7 7 7 7 7 7 7 7 7 7 7 7 7 7 7 7 7 7 7 7 7 7 7 7 6 7 6 6 5 6 5 2 1 1 2 2 1 4 6 6 8 7 6 6 7 6 3 6 8 8 8 8 8 8 8 7 6 5 5 5 5 5 5 5 5 5 4 5 4 4 4 4 4 4 4 4 5 5 6 6 7 7 8 8 8 8 8 8 8 8 7 7 7 7 7 7 7 7 6 7 6 7 6 6 7 6 7 7 7 7 7 7 7 7 7 7 7 7 6 6 6 5 6 4 1 1 2 1 2 5 6 6 8 7 5 4 5 6 4 7 8 8 8 8 8 8 7 7 6 6 5 6 5 5 5 5 5 5 5 4 4 4 4 4 3 3 3 3 3 3 4 6 6 6 7 7 8 8 8 8 8 8 7 8 7 7 7 7 6 6 6 6 6 6 6 6 6 7 6 7 7 6 7 7 7 6 7 6 6 7 6 6 6 6 6 5 1 1 2 1 3 6 6 6 7 6 5 4 5 5 6 7 8 8 8 9 8 8 7 7 7 6 5 5 3 3 2 2 3 2 2 2 2 2 2 2 3 3 3 3 3 3 3 4 4 5 6 6 7 7 7 8 7 8 7 7 7 7 6 6 6 6 6 6 6 5 6 6 6 5 6 5 6 6 5 6 6 6 5 6 6 6 6 6 6 6 6 5 2 1 2 1 4 6 5 6 8 6 6 5 5 5 7 8 8 8 8 8 9 9 8 8 6 6 4 4 3 2 3 2 3 4 2 1 1 2 1 1 2 4 3 2 3 3 3 3 3 4 5 5 6 6 7 7 7 7 7 6 6 6 6 5 5 5 5 4 5 4 4 4 4 4 4 4 4 4 4 5 5 5 5 5 5 5 6 6 6 6 6 6 3 1 2 2 4 6 5 6 8 7 6 7 7 7 7 7 8 8 8 9 9 9 9 9 8 7 7 6 5 5 5 4 4 4 3 2 2 2 2 2 4 5 4 3 2 2 3 3 3 4 4 5 5 5 6 6 6 6 6 6 5 5 5 5 4 4 4 3 3 3 3 3 3 3 3 3 3 3 3 4 4 4 4 5 4 5 5 5 6 6 6 5 3 1 2 2 4 5 5 6 8 8 6 7 9 9 7 7 7 8 8 9 9 9 9 9 9 9 9 9 8 8 8 8 7 6 6 4 4 3 2 3 4 4 3 3 2 2 2 3 3 4 3 4 4 5 6 6 6 6 5 5 5 4 4 4 3 3 3 3 2 3 3 2 3 3 3 3 3 3 3 4 4 4 4 4 4 4 4 5 6 6 6 6 3 1 3 3 5 6 5 5 9 9 6 7 10 9 7 7 7 8 9 9 9 9 9 9 10 10 9 9 9 8 8 8 9 8 7 6 6 5 5 4 4 4 3 3 3 3 3 3 3 4 3 4 5 6 8 8 7 6 6 5 4 3 3 3 3 3 3 2 2 3 2 2 2 2 3 3 4 4 4 4 4 5 4 5 4 5 5 5 5 6 6 6 3 2 4 4 5 5 5 5 9 9 8 7 10 9 6 7 8 9 9 9 9 9 10 10 10 10 10 10 9 8 7 7 7 8 7 7 7 6 7 6 5 4 4 4 3 4 3 4 3 3 4 5 7 9 10 9 9 8 7 5 4 3 3 3 2 2 2 2 2 4 2 1 1 1 1 1 2 3 3 4 4 4 5 5 5 5 5 5 5 6 6 6 3 2 5 5 5 5 5 5 9 9 9 8 9 8 6 7 8 8 9 9 9 9 10 10 10 10 10 10 9 9 9 7 7 6 6 6 6 6 6 5 5 4 4 4 4 4 4 4 4 3 5 7 8 10 10 10 9 8 8 6 4 3 3 3 3 2 2 2 2 4 3 2 1 1 1 1 1 3 3 2 1 3 4 4 5 5 5 5 6 6 6 6 3 3 6 5 4 6 5 5 9 9 10 9 8 8 6 7 8 8 9 9 9 9 10 10 10 10 10 10 10 10 10 9 9 8 7 6 5 5 5 5 5 5 5 5 5 5 5 4 5 5 7 8 9 10 11 10 9 9 8 7 5 4 3 4 3 3 3 2 3 3 3 3 2 2 1 2 3 4 3 2 1 2 2 4 5 5 5 6 5 6 6 6 3 4 6 5 5 5 5 5 9 9 11 11 9 8 6 7 8 8 8 9 9 9 10 10 10 11 11 10 10 11 10 10 10 10 9 9 8 8 8 8 8 8 7 8 8 7 7 7 7 8 8 8 10 10 10 10 10 9 8 6 5 4 4 4 4 4 4 4 4 5 4 4 4 4 4 3 4 4 4 4 3 2 2 3 4 5 6 6 6 6 6 6 3 4 5 5 5 5 5 5 9 10 10 11 10 8 6 7 8 8 8 9 9 9 9 10 10 11 11 11 11 11 11 11 10 10 10 10 10 9 9 10 9 10 9 10 9 9 9 9 8 8 8 8 10 10 10 9 10 9 8 6 6 5 5 5 5 5 4 4 4 5 5 5 5 5 5 5 5 5 5 5 5 5 5 4 4 5 6 6 6 6 6 5 4 4 6 5 5 4 5 5 9 10 10 10 11 8 6 7 7 8 8 8 8 8 9 10 9 9 10 11 11 11 11 11 10 10 10 10 10 10 10 10 10 10 10 10 10 9 9 9 9 8 8 9 10 10 11 10 10 9 8 6 5 6 6 6 6 6 6 5 4 5 5 5 5 6 5 6 6 6 6 6 6 6 6 6 6 6 6 6 6 6 6 5 4 5 6 5 5 4 5 4 8 9 10 9 10 8 6 7 7 7 8 8 8 8 9 9 9 9 9 10 11 11 11 11 11 10 10 10 11 10 10 10 10 10 10 10 10 9 9 9 9 8 9 9 10 10 10 10 10 9 8 6 5 6 6 6 7 7 6 6 5 5 4 4 5 5 5 5 6 6 6 6 6 6 6 6 6 6 6 6 6 6 6 5 4 6 5 5 4 5 5 4 7 8 9 9 9 8 6 7 8 7 7 8 8 8 9 9 9 9 9 10 10 10 11 11 11 11 11 10 10 10 10 10 10 10 10 10 9 9 9 9 8 9 9 9 10 10 10 10 9 9 8 6 6 6 7 6 7 7 7 7 6 6 6 5 5 5 4 5 5 5 5 6 6 6 6 7 7 6 6 7 6 6 6 5 6 6 6 5 4 4 4 5 6 8 9 9 10 8 6 7 7 7 8 8 8 8 9 8 9 9 9 10 10 10 11 10 11 10 10 10 11 11 10 10 10 10 10 10 9 9 9 9 9 9 9 9 10 10 10 10 10 9 9 7 6 6 6 7 7 7 8 7 7 8 7 6 6 6 6 6 6 6 6 6 6 6 6 7 7 6 6 6 6 6 5 5 6 6 5 4 4 4 4 4 5 6 8 9 10 8 6 7 7 7 7 7 8 8 8 9 9 9 9 9 9 10 10 10 11 10 10 10 10 11 10 10 10 10 10 9 9 9 9 9 9 9 9 10 10 10 10 10 10 9 8 8 7 7 6 6 7 8 8 8 8 8 8 7 7 7 7 7 7 7 7 7 7 7 7 7 6 6 6 6 6 6 5 6 6 6 5 4 4 4 4 4 5 5 6 7 8 7 6 7 7 7 7 7 7 8 8 8 8 8 9 9 9 9 9 10 10 10 10 10 10 10 10 10 10 9 8 8 9 8 9 9 8 8 9 9 10 10 10 10 9 9 9 7 7 7 7 6 7 8 8 8 8 9 8 8 8 8 8 8 8 8 8 8 8 7 7 7 7 6 6 7 6 6 6 6 6 6 4 4 4 4 4 4 5 5 5 5 6 7 6 7 7 7 7 8 7 7 8 8 8 8 9 9 9 9 9 9 9 9 10 10 9 9 9 9 8 8 7 8 9 9 9 9 8 9 9 9 10 11 10 10 10 9 9 7 7 7 7 6 7 8 8 8 8 9 9 9 9 9 9 8 8 8 8 8 8 8 7 7 7 6 6 6 6 5 6 7 6 5 4 4 4 4 4 4 5 5 5 5 5 6 7 6 7 7 7 7 7 7 7 8 8 8 8 9 8 9 9 9 9 9 9 9 8 9 8 8 7 6 8 9 9 9 9 8 9 9 9 9 10 11 10 10 10 9 9 8 6 7 8 6 6 8 8 8 9 9 9 9 9 9 9 9 9 8 8 8 8 8 7 7 6 6 6 6 6 5 6 7 6 4 3 4 3 4 4 4 5 5 5 5 5 6 7 6 7 7 7 7 7 7 7 7 8 8 8 8 8 8 9 8 8 8 8 8 8 7 7 7 6 7 8 9 9 9 9 9 9 9 9 9 10 10 10 9 10 9 8 8 7 7 8 8 6 6 8 8 8 9 9 9 9 9 9 9 9 9 8 8 8 8 7 7 6 6 6 6 6 5 7 7 6 3 3 3 4 3 4 4 5 5 5 5 5 6 7 7 6 7 7 7 7 7 7 7 7 7 8 8 8 8 8 7 8 8 8 7 7 6 6 7 8 7 8 9 9 9 9 9 9 9 9 10 10 10 10 9 9 9 9 8 8 8 9 9 7 5 7 8 8 9 9 9 9 9 9 9 9 8 8 8 8 7 7 7 6 6 6 6 5 6 7 7 5 3 4 3 3 3 4 3 5 5 5 5 5 6 7 6 6 7 7 7 7 7 7 7 7 7 7 7 7 7 7 7 7 7 7 7 6 6 7 8 9 7 7 7 8 8 8 8 8 8 9 10 10 9 10 10 9 9 9 8 8 8 9 9 8 6 6 8 8 8 9 9 9 9 9 8 9 8 8 8 8 8 7 7 6 6 6 6 6 6 7 6 3 3 3 3 3 3 3 3 5 5 5 5 5 7 6 6 6 7 7 6 6 7 7 7 7 6 7 7 7 7 7 7 7 7 7 7 6 7 8 8 9 9 6 6 6 7 7 7 7 7 8 8 9 8 8 8 9 9 8 8 7 8 8 8 8 6 5 7 7 8 8 9 9 8 9 8 8 8 8 7 8 8 7 7 6 6 6 6 6 6 6 4 3 3 3 3 3 3 3 3 6 5 5 5 5 6 7 6 6 6 7 7 7 7 6 7 7 6 6 6 6 6 6 7 7 7 7 7 8 8 8 8 9 9 7 3 3 3 4 6 5 6 6 7 7 7 7 6 7 7 6 6 6 6 7 7 7 6 5 7 7 8 8 8 8 8 8 8 8 8 8 7 7 7 7 6 6 6 5 6 6 6 4 2 3 3 3 3 3 3 3 3 5 5 5 5 5 6 6 6 7 7 7 7 6 6 6 7 7 6 6 6 6 6 7 7 7 8 7 8 8 9 9 9 9 9 8 5 3 3 2 3 3 4 5 5 6 5 6 5 5 5 5 5 5 6 5 6 6 6 5 6 7 7 7 8 8 8 8 8 7 7 7 7 7 7 6 6 6 6 6 5 5 4 3 3 3 3 3 3 3 3 3 3 5 5 5 5 5 7 6 6 6 7 7 7 7 6 7 7 7 7 6 7 7 7 7 8 8 8 8 8 9 9 9 9 9 9 9 8 5 3 3 3 3 2 3 5 4 5 5 4 4 4 4 4 4 3 4 5 5 5 5 6 6 7 7 7 7 7 7 7 7 7 7 6 6 6 6 6 6 6 6 5 4 3 3 3 3 3 3 3 3 3 3 3 5 5 5 5 5 6 6 6 7 7 7 7 7 7 7 7 7 7 7 7 7 8 8 8 8 8 8 9 9 9 9 9 9 9 9 9 8 7 6 4 4 3 2 3 3 4 3 3 3 3 2 2 2 2 4 6 6 5 5 5 6 6 6 7 7 6 7 6 6 6 6 6 6 6 6 6 6 6 6 3 3 3 3 3 3 3 3 3 3 3 3 3 5 5 5 5 5 6 6 6 7 7 7 7 7 7 7 7 8 8 8 8 8 8 8 8 8 8 8 9 9 9 9 9 9 9 9 9 9 9 8 6 5 4 3 3 3 3 3 3 3 3 2 3 3 4 5 6 5 6 5 6 6 6 6 6 6 6 6 6 6 6 6 6 5 6 6 5 6 6 5 2 3 3 3 3 2 3 3 3 3 3 3 3 5 5 5 5 5 6 6 6 7 7 7 7 7 7 7 7 8 8 8 8 8 8 8 8 8 8 8 9 9 9 9 9 9 9 9 9 9 9 8 8 7 5 4 4 4 4 4 4 4 4 5 4 5 5 6 6 6 6 6 5 6 6 6 6 6 5 6 5 5 6 5 5 5 5 5 5 5 7 3 3 2 3 3 3 3 3 3 3 3 3 3 3 5 5 5 5 5 6 6 6 7 7 7 7 7 7 7 8 8 8 8 8 8 8 8 8 8 8 8 8 9 9 9 8 9 9 9 9 9 8 9 8 7 7 5 4 4 5 5 5 5 5 5 6 6 6 6 6 6 6 6 5 6 6 6 6 6 5 5 5 5 5 6 5 5 6 5 5 6 6 3 2 3 3 3 3 3 3 3 3 3 3 3 3 5 5 5 5 5 5 6 6 6 7 7 7 7 7 8 8 8 9 8 8 8 8 8 8 8 8 7 8 8 8 8 8 8 8 9 9 9 8 8 8 8 7 6 5 6 5 6 5 6 5 6 6 6 6 6 6 7 6 6 5 6 6 6 6 6 6 5 5 5 5 5 5 5 5 5 5 6 5 3 3 3 3 3 3 3 3 3 3 3 3 3 3 5 5 5 5 5 5 6 6 7 7 7 7 7 7 8 8 8 8 9 8 8 8 8 8 8 8 7 8 8 8 7 8 8 8 8 8 9 9 8 9 9 8 8 7 7 6 6 6 6 6 6 6 6 6 6 6 6 6 6 6 6 6 6 6 6 6 6 6 5 6 5 5 5 6 5 5 6 3 3 3 3 3 3 3 3 3 2 3 3 3 3 3 5 5 5 5 5 5 6 6 6 7 7 7 7 7 7 8 8 8 8 8 7 8 8 8 7 8 8 7 8 8 8 8 8 8 8 8 9 8 8 9 9 9 8 8 8 8 7 7 6 6 6 6 6 6 6 6 6 6 6 6 6 6 6 6 7 6 6 6 5 6 5 5 5 5 5 6 5 3 3 3 3 3 3 3 3 3 3 3 3 3 3 3 5 5 5 5 6 4 6 6 6 6 7 7 7 7 7 7 8 8 8 8 8 8 8 7 7 7 6 6 7 6 6 5 5 5 5 5 5 5 5 5 6 6 8 8 8 8 7 7 7 7 6 6 6 6 6 6 6 6 6 6 6 6 6 6 6 6 6 6 6 6 6 5 6 5 5 6 4 2 3 3 3 3 3 2 3 3 3 3 3 3 3 3 5 5 5 5 5 5 5 5 6 6 6 7 7 7 7 7 8 8 8 8 8 8 7 6 6 6 4 4 3 4 3 3 3 3 3 4 4 3 3 3 4 4 4 6 6 6 5 5 5 6 6 6 6 6 6 6 6 6 6 6 5 5 6 6 6 7 6 6 6 6 6 5 5 5 5 5 3 3 3 3 3 3 3 3 3 3 3 3 2 3 3 3 5 5 5 5 5 5 5 5 6 6 7 6 7 6 7 8 7 8 8 8 8 7 7 6 6 7 5 3 3 3 2 2 2 2 4 4 5 3 5 5 4 4 2 3 3 4 4 3 3 3 4 5 5 6 6 5 6 6 6 6 5 6 6 6 6 7 6 6 6 6 6 5 6 5 6 5 3 3 3 3 3 3 3 3 3 3 3 3 3 3 3 3 5 5 5 5 5 5 5 5 6 6 6 7 7 7 7 7 8 8 8 8 8 7 7 6 7 8 8 7 6 6 6 4 2 4 4 4 5 5 5 6 6 5 2 4 5 5 4 3 3 3 3 3 3 4 4 5 5 5 5 6 5 6 6 6 6 7 6 6 6 6 5 6 5 5 5 4 2 3 3 3 3 3 3 3 3 3 3 3 3 3 3 3 5 5 5 5 5 5 5 5 5 6 6 7 7 7 7 7 7 8 8 8 7 7 7 7 8 8 9 8 8 7 8 8 6 5 4 4 5 5 4 5 6 5 4 5 6 5 5 4 4 4 3 2 2 2 2 4 3 4 5 5 5 6 6 6 6 6 6 6 6 5 5 5 6 6 4 2 3 3 3 3 3 3 3 3 3 3 3 3 3 3 2 3 5 5 5 5 5 5 5 5 5 5 6 6 6 7 6 7 7 8 8 7 7 7 8 8 8 8 8 9 8 8 7 8 8 8 6 5 5 6 4 5 6 5 5 6 5 5 5 4 3 4 3 2 2 2 2 2 2 4 5 5 5 6 6 6 6 6 6 6 6 5 5 5 5 5 3 3 3 2 3 3 3 2 3 3 3 2 3 3 3 3 3 3 5 5 5 5 5 5 5 5 6 5 6 6 6 7 6 7 7 7 8 7 7 7 8 8 8 8 8 8 8 8 8 7 8 9 8 7 7 6 6 5 6 5 5 6 5 5 5 4 4 4 3 3 2 4 4 3 4 5 5 5 5 6 6 6 6 6 6 6 6 5 5 5 5 4 3 3 3 3 3 3 3 3 3 3 3 3 3 3 3 3 3 3 5 5 5 5 5 5 6 8 11 8 5 6 6 7 7 7 7 7 8 8 7 8 8 8 8 8 8 8 8 7 8 7 7 7 8 9 9 7 8 7 7 6 6 6 5 5 5 4 4 4 5 4 5 5 5 5 5 6 5 5 5 6 6 6 6 6 6 6 6 5 5 6 5 3 3 3 2 3 3 3 3 3 3 3 2 3 3 3 3 3 3 3 5 5 5 5 5 7 11 11 12 9 5 5 6 6 7 7 7 7 7 7 7 8 8 8 8 8 8 8 8 8 7 7 7 7 6 7 8 8 8 7 7 8 8 8 8 7 7 6 6 6 6 6 5 5 6 5 6 6 6 5 5 6 6 6 6 6 6 5 5 5 5 6 3 2 3 3 3 3 3 3 3 3 3 3 3 3 3 3 3 3 3 3 5 5 5 6 9 12 10 10 12 10 6 5 6 6 7 6 7 7 7 7 7 8 8 8 8 7 8 7 7 7 7 7 7 7 7 7 7 7 7 7 7 8 8 8 8 8 8 7 7 6 6 6 6 6 7 6 6 6 6 6 6 6 6 6 6 6 6 5 5 5 6 4 2 3 3 3 3 3 3 3 3 3 3 3 3 3 3 3 2 3 3 3 5 4 7 11 12 10 10 12 13 9 6 7 5 6 6 6 7 7 7 7 7 7 7 8 8 7 7 7 7 7 7 7 7 6 6 6 6 7 7 7 6 7 7 7 7 6 6 6 6 6 6 6 6 6 6 6 6 6 6 6 6 6 6 6 6 6 6 5 6 4 7 6 2 3 3 3 3 3 2 3 3 3 3 3 3 3 3 3 3 3 3 3 4 7 12 12 10 11 12 12 11 8 6 7 6 5 6 6 7 7 7 7 7 8 8 7 8 7 7 7 7 6 6 7 7 6 6 6 5 5 5 5 5 5 6 6 6 6 6 6 5 6 6 5 5 6 6 6 6 6 6 6 6 6 6 6 6 5 5 5 5 5 6 9 6 2 3 3 3 3 3 2 3 3 3 3 3 3 3 3 3 3 3 3 8 12 12 10 11 12 12 11 8 6 6 7 7 6 6 5 6 6 7 7 7 7 8 8 8 8 7 7 7 7 7 6 6 6 6 6 6 5 5 5 4 4 5 5 5 5 5 5 5 5 6 6 5 6 6 6 6 6 6 5 5 5 6 5 6 5 5 5 5 5 4 7 9 7 2 3 3 3 3 3 3 3 3 3 2 3 3 3 3 3 3 3 12 13 11 10 12 13 11 8 6 6 7 7 7 6 6 5 6 6 6 7 7 7 8 8 8 8 8 7 7 7 7 7 7 7 7 6 6 5 5 5 5 5 5 5 5 5 5 5 5 5 5 6 5 6 6 6 6 6 5 5 5 6 6 5 5 5 5 5 5 7 4 5 7 10 7 2 3 3 3 3 2 3 3 3 3 3 3 3 2 3 3 3 13 11 9 12 13 12 9 6 6 7 7 7 7 7 6 5 5 5 6 6 7 7 8 8 8 9 9 8 8 8 7 7 7 7 7 7 7 6 6 6 5 5 5 5 5 5 5 5 5 5 5 6 5 6 6 6 6 6 6 5 5 5 6 5 5 5 5 5 4 8 7 4 6 8 10 6 2 3 2 3 3 3 2 3 3 3 3 3 3 3 3 3 12 9 11 13 13 11 6 5 6 7 7 7 7 7 6 6 4 5 5 6 6 7 7 8 9 8 9 9 9 9 9 8 8 8 9 9 9 9 9 8 7 7 6 6 5 5 5 6 5 5 5 6 6 5 5 6 6 6 5 5 5 5 5 5 5 5 6 5 4 7 10 6 5 7 9 10 3 3 2 3 3 3 3 2 3 3 2 3 3 2 3 3 11 9 12 13 13 9 5 5 6 7 7 7 7 6 7 6 5 4 5 5 6 7 7 8 9 8 8 9 9 9 9 9 9 9 9 10 10 9 10 9 9 9 8 8 7 6 6 6 5 5 6 6 6 6 6 6 6 6 6 5 5 5 5 5 5 5 5 5 4 6 9 8 4 6 8 10 7 2 3 3 3 3 3 3 3 3 3 3 3 3 3 3 9 9 13 13 12 7 5 3 5 8 7 7 7 7 7 6 6 5 4 4 5 6 6 7 8 9 9 9 9 9 9 9 9 10 9 10 10 9 9 9 9 9 8 9 8 8 8 7 7 6 6 6 7 7 7 6 6 6 5 5 5 5 5 5 5 5 5 5 4 5 8 10 5 5 8 9 10 4 2 3 3 2 3 2 3 3 3 2 3 3 3 2 8 10 13 13 11 7 2 2 7 8 7 7 7 7 7 7 6 6 5 4 5 5 6 6 7 8 8 8 9 8 9 9 9 10 9 9 9 9 9 9 9 8 9 9 8 8 8 8 8 7 6 6 7 7 7 6 6 6 6 5 5 5 5 5 5 6 5 5 4 4 7 11 6 3 7 8 10 7 1 3 2 3 3 3 3 2 3 3 3 3 3 3 8 10 13 13 11 5 0 5 8 8 7 7 8 7 7 7 7 6 5 5 4 4 5 5 7 7 8 8 8 8 8 9 9 9 8 8 9 8 8 8 8 8 8 8 8 8 7 7 8 8 7 7 7 7 7 5 5 5 5 5 5 5 6 5 5 5 5 5 4 3 6 10 8 2 6 8 10 9 2 2 2 3 3 3 3 2 3 3 3 2 3 3 8 11 13 13 11 2 2 8 8 8 7 7 7 8 7 7 7 6 6 5 4 4 4 4 5 6 6 7 8 8 8 8 8 8 8 8 8 8 8 8 7 7 8 8 7 7 7 7 7 8 7 7 7 6 6 5 5 5 5 5 5 5 5 5 5 5 5 5 2 2 6 9 9 3 5 7 9 10 2 2 3 3 3 3 3 3 3 3 3 3 3 3 9 11 13 13 11 1 5 9 8 8 7 7 7 8 8 7 6 6 6 5 4 4 4 4 4 5 5 6 7 7 7 7 7 7 7 7 7 7 7 7 7 7 7 7 7 7 7 7 7 7 7 6 6 6 5 5 5 5 5 5 5 5 5 5 5 5 5 6 1 2 7 9 10 3 4 7 9 11 3 2 2 3 3 3 3 3 3 3 2 3 2 3 10 10 13 13 11 2 7 9 8 8 7 7 7 7 8 7 6 6 6 6 5 4 4 4 4 4 4 5 5 6 6 6 7 7 6 7 6 6 6 7 7 6 6 6 6 6 6 6 6 6 6 6 6 5 5 4 5 5 5 5 6 5 5 5 5 5 5 5 1 2 7 9 10 4 2 7 9 10 4 2 3 3 3 3 3 3 3 3 3 3 3 3 11 10 13 13 11 2 7 9 8 8 7 7 7 7 7 7 7 7 6 6 5 5 4 4 4 4 4 4 5 5 5 5 6 6 6 6 6 6 6 6 6 6 6 6 6 5 5 5 5 5 5 5 5 4 5 5 5 6 5 5 5 5 5 5 5 5 6 5 0 4 7 9 10 4 3 8 9 10 7 5 4 3 3 4 3 3 3 3 3 3 3 3 12 10 12 13 13 2 5 8 8 8 8 7 7 7 8 7 7 7 7 6 6 5 5 5 4 5 5 4 4 4 5 5 5 5 5 5 5 5 5 5 5 5 5 5 5 5 5 5 5 5 5 4 4 5 5 5 5 5 5 5 5 5 5 5 5 5 5 4 0 5 8 9 9 3 4 9 10 9 8 8 8 7 6 7 6 5 5 5 4 4 3 3 12 10 11 13 14 5 5 8 8 8 8 7 8 7 7 8 7 7 7 7 6 6 5 5 4 5 4 4 4 4 4 4 5 4 5 5 4 5 5 5 5 5 5 5 5 5 4 4 4 4 4 5 5 5 6 5 5 5 5 5 5 5 5 5 5 5 6 3 0 6 8 10 8 3 5 9 10 9 8 8 8 8 8 7 7 7 7 7 6 6 7 5 12 11 10 13 14 7 5 9 8 8 8 7 7 7 7 7 8 7 7 7 6 6 6 5 5 4 4 4 4 5 4 4 4 4 4 4 5 4 4 5 5 4 5 5 5 4 4 4 4 4 4 5 5 5 5 5 5 5 5 5 5 5 5 5 5 5 6 1 3 8 9 10 6 3 7 9 10 9 8 8 8 8 8 9 7 7 7 6 6 6 6 7 12 12 10 12 14 10 3 8 8 8 8 8 7 7 7 7 7 7 8 7 7 7 6 5 5 4 5 4 4 5 5 4 4 4 4 3 4 4 4 4 4 4 4 4 4 4 4 4 5 5 5 6 5 5 5 5 5 5 5 5 5 5 5 5 5 5 4 1 6 8 10 9 4 4 8 9 9 9 8 7 8 8 8 8 8 8 8 7 7 4 5 7 12 12 11 11 13 13 3 7 8 8 8 8 7 7 7 8 8 7 8 7 7 7 6 6 5 5 5 4 5 5 4 5 5 5 4 3 4 4 4 4 4 4 4 4 4 4 4 5 5 5 5 5 5 5 5 5 5 5 5 5 5 5 5 5 5 5 2 3 8 9 10 8 5 7 8 10 9 9 7 7 8 8 8 8 8 9 8 9 8 6 3 7 