P2
92
112
255
97 96 98 89 98 94 93 96 102 104 103 91 77 59 77 74 80 89 105 103 86 72 43 73 88 59 68 101 78 69 81 82 78 79 96 101 96 76 73 82 83 85 98 82 73 71 59 66 63 56 52 50 47 38 40 37 31 41 58 62 68 83 54 65 64 54 62 78 74 69 76 86 78 58 70 75 78 76 70 83 87 74 61 88 87 97 95 100 99 103 103 102 95 94 94 95 90 97 92 101 99 86 82 88 73 69 83 88 96 111 104 93 79 60 69 95 57 28 60 86 87 94 101 91 97 97 87 77 58 58 71 86 96 100 99 91 81 72 81 73 64 55 55 54 51 47 37 40 42 40 36 68 74 76 60 59 49 45 51 70 76 63 72 79 81 70 57 61 81 71 67 78 89 72 66 64 68 88 99 98 97 101 98 101 94 95 91 96 93 99 90 89 85 81 90 89 84 85 105 102 108 116 94 80 64 85 90 75 49 50 80 95 100 108 93 104 110 94 67 45 55 53 59 84 95 86 78 67 79 78 72 64 57 54 50 63 57 68 54 54 53 46 40 43 66 56 71 50 51 48 44 60 66 55 77 71 73 82 77 59 75 73 57 66 81 80 68 64 67 71 74 97 100 101 96 100 91 97 92 98 95 94 80 82 87 99 102 86 90 100 104 106 106 103 85 62 67 91 81 69 75 99 109 111 104 100 96 104 89 67 63 57 64 51 57 55 64 56 55 68 78 86 82 79 72 63 74 71 64 57 71 64 64 58 48 46 48 43 57 50 47 46 45 51 79 51 74 60 66 63 91 74 68 75 57 67 77 75 67 62 68 81 76 79 95 104 94 103 92 95 95 98 91 89 80 101 99 108 99 86 101 107 101 98 108 84 67 56 85 90 70 80 100 122 120 111 102 80 84 95 93 77 82 80 85 77 67 60 66 53 76 96 91 89 88 82 80 72 70 68 68 67 63 67 65 58 56 48 50 38 61 51 42 41 38 51 60 59 68 56 63 67 81 89 53 65 48 76 73 66 69 66 53 71 92 70 88 99 100 100 99 95 99 94 98 82 99 105 93 96 85 93 114 110 99 84 91 61 50 82 81 84 82 100 113 123 104 94 92 86 88 96 116 125 124 110 97 82 83 83 79 80 82 86 92 90 89 76 79 68 63 60 62 66 53 51 47 50 41 43 50 57 60 46 38 36 41 37 51 60 61 52 54 63 69 86 61 34 56 70 74 54 60 63 45 47 84 89 74 100 96 101 92 94 92 101 90 97 99 89 84 86 93 96 110 114 88 70 70 60 78 98 92 75 96 119 121 118 112 105 103 94 97 111 112 116 112 109 99 88 98 92 82 72 78 90 93 85 96 78 75 60 59 61 58 53 50 42 42 39 41 44 51 54 56 51 36 32 28 37 42 53 58 50 35 56 63 70 66 43 40 68 76 57 56 60 53 38 75 87 86 74 101 95 87 100 104 86 88 104 80 79 96 98 98 88 112 84 72 68 74 96 114 107 98 107 119 123 108 123 121 117 118 107 105 98 109 116 109 93 77 92 88 80 72 83 86 89 75 83 80 74 56 53 54 56 54 59 64 53 43 43 40 38 44 53 43 50 37 23 26 45 46 55 47 36 33 40 56 57 47 56 53 54 72 55 68 55 60 41 65 73 80 81 89 105 96 100 92 78 91 94 74 93 110 109 86 89 89 68 73 71 89 111 117 105 100 107 118 119 119 118 121 116 128 129 130 113 119 117 96 91 74 86 79 76 71 62 71 65 61 61 64 73 58 60 51 43 46 57 72 57 52 55 54 46 43 43 35 53 48 31 35 43 47 46 46 39 40 39 49 54 38 47 64 52 72 63 57 68 56 45 51 80 50 78 82 96 91 95 63 78 79 84 95 105 99 97 80 82 61 75 82 91 96 92 93 102 90 109 116 115 113 114 115 117 129 127 122 116 106 114 99 86 77 73 83 75 78 78 81 76 70 60 62 54 56 55 50 62 61 64 72 62 66 62 56 56 55 48 38 53 52 43 35 37 43 41 38 40 40 43 48 42 28 39 76 62 63 64 52 58 70 52 48 87 51 42 83 80 90 85 66 70 69 73 103 86 95 91 90 64 71 80 80 85 78 80 95 107 95 99 96 88 99 112 123 119 118 111 109 108 111 104 99 76 76 85 84 83 91 86 80 88 71 67 61 71 60 76 65 65 77 66 65 59 59 51 54 54 57 54 46 42 49 45 40 41 43 42 41 39 35 32 40 31 22 42 64 64 68 44 57 53 82 43 49 77 72 39 72 85 93 82 64 74 64 88 90 79 94 87 78 69 72 81 69 60 72 80 89 91 73 60 64 77 84 96 108 118 129 138 135 127 111 93 91 76 66 74 76 80 96 106 95 89 80 79 74 68 65 77 82 68 68 65 69 62 68 58 57 46 52 54 51 37 42 40 42 38 34 46 44 31 31 31 25 25 31 49 64 53 75 42 42 63 74 65 39 73 84 35 75 87 99 83 75 60 68 86 64 76 89 71 77 78 77 86 54 61 68 69 73 64 56 59 73 86 82 85 99 106 112 113 116 119 99 92 88 96 92 89 76 77 88 97 90 85 84 88 78 81 76 84 84 81 70 58 61 56 59 65 58 47 47 52 48 44 41 40 39 39 42 38 41 29 26 28 18 29 34 57 62 53 70 45 30 57 68 69 55 49 92 57 53 107 100 83 73 56 61 69 63 78 71 57 72 75 92 75 41 49 53 70 59 51 49 72 88 69 72 76 94 104 96 99 108 113 108 101 106 103 96 96 87 84 79 85 81 74 69 83 66 71 67 76 83 70 65 69 62 68 62 72 74 58 53 42 53 43 46 38 35 39 40 29 39 32 26 20 19 23 35 60 59 54 61 37 28 50 69 61 60 48 77 80 42 98 97 76 60 62 45 63 66 81 55 54 51 80 80 48 42 39 58 50 46 55 78 73 65 66 80 70 75 87 92 88 104 106 102 99 102 93 88 93 84 83 81 86 77 82 74 78 76 82 72 60 52 60 48 57 57 59 56 54 68 65 72 67 50 57 49 55 47 47 41 35 35 36 34 28 23 30 43 54 50 56 43 34 33 35 60 61 41 53 67 85 43 74 99 71 62 46 45 49 66 62 53 48 49 54 58 40 43 45 52 47 56 64 72 67 66 63 71 71 77 78 86 86 92 96 98 108 116 97 88 77 77 76 83 79 60 68 87 86 75 68 83 70 63 55 59 57 51 54 54 52 54 48 64 63 59 57 51 54 51 47 46 42 38 35 43 33 32 41 40 44 52 43 37 33 31 35 51 62 42 41 64 79 48 35 96 75 43 36 36 55 55 54 54 44 47 50 48 44 43 41 51 55 57 59 63 64 65 75 74 62 75 79 93 99 91 92 97 83 89 101 92 72 90 103 97 92 85 77 80 60 58 66 70 72 71 57 57 59 52 48 56 54 61 47 44 55 44 47 45 48 46 47 47 36 40 39 42 34 26 38 39 38 44 40 27 27 29 34 47 45 44 44 66 73 55 23 96 69 43 31 36 48 49 49 46 40 42 54 49 38 46 41 52 53 52 40 54 62 77 80 68 68 84 95 105 104 108 95 102 94 98 93 104 98 98 105 93 86 85 78 66 66 58 60 61 72 66 56 61 68 64 50 49 62 55 49 53 54 44 47 43 31 44 43 36 36 30 38 30 35 32 31 34 31 39 33 23 36 36 36 36 40 35 41 71 64 49 33 106 65 48 24 37 38 38 36 40 42 41 47 38 42 41 44 43 45 40 39 55 60 72 71 63 74 76 95 104 112 108 102 102 106 96 95 77 76 78 89 91 86 85 83 77 67 57 57 68 67 82 53 62 66 56 62 61 58 63 63 53 64 54 53 53 48 45 46 51 41 27 36 40 31 31 29 24 27 31 29 32 34 29 36 40 34 30 32 66 61 39 38 99 71 36 31 30 33 31 25 39 42 39 35 37 39 41 47 36 40 46 43 47 54 59 59 50 53 65 79 87 97 102 108 102 98 99 95 95 80 83 78 65 76 71 62 51 56 69 57 52 56 65 71 69 64 51 64 63 60 55 46 49 54 64 68 61 50 51 39 39 48 31 45 33 38 40 30 28 25 25 34 30 26 29 38 40 33 15 42 60 57 40 39 95 82 46 25 33 25 31 26 42 34 33 34 40 37 44 35 31 43 53 33 46 42 54 57 61 67 68 79 87 97 90 93 83 68 62 63 67 68 81 83 91 104 101 93 75 76 58 60 56 55 58 72 79 75 66 67 69 63 62 54 54 48 38 44 52 53 56 45 53 42 34 47 41 27 41 24 38 32 30 25 29 27 34 35 38 27 18 39 55 56 37 35 97 93 56 26 27 21 34 38 31 32 37 32 35 32 37 41 30 39 43 42 47 54 60 57 68 75 78 92 88 101 89 96 94 89 75 48 47 42 41 57 64 67 62 82 84 83 72 63 61 53 48 54 57 57 64 70 57 54 60 57 56 63 53 51 34 35 34 46 43 48 50 49 43 45 38 30 35 38 43 29 32 38 36 38 42 26 23 39 54 61 31 30 92 93 59 33 25 25 32 38 34 32 34 28 27 32 37 35 37 43 47 47 55 42 57 59 58 76 86 96 107 120 116 110 91 75 64 50 46 39 48 57 58 53 52 68 77 66 82 76 76 65 51 57 45 54 65 56 52 44 50 58 58 61 64 59 59 50 41 46 39 36 38 37 36 46 41 38 32 37 41 43 29 37 35 42 36 26 22 32 54 51 33 22 94 88 77 37 28 29 40 30 33 32 27 22 30 37 39 41 45 45 45 53 46 45 53 47 65 72 77 106 116 119 108 103 99 93 82 76 68 56 54 49 47 47 57 43 54 63 62 65 70 70 59 58 42 51 64 66 53 40 48 56 53 48 51 55 53 38 51 53 57 56 54 55 52 44 38 41 41 38 38 46 42 40 29 35 35 23 26 35 47 38 30 31 88 92 75 67 28 32 32 34 33 30 27 25 34 41 36 41 40 37 41 38 42 41 48 60 59 74 89 107 104 103 116 125 119 110 86 87 79 67 74 69 64 54 55 49 41 33 40 47 73 90 85 83 76 70 64 68 61 49 59 57 53 66 62 65 55 48 51 53 46 46 48 49 46 56 51 39 46 42 37 34 40 33 37 24 28 27 28 37 39 33 30 29 93 82 79 80 46 28 33 37 33 31 19 31 31 40 44 41 31 33 33 36 42 41 46 52 69 86 91 102 106 114 113 114 120 109 102 93 87 76 72 68 61 52 55 53 46 45 38 40 35 49 49 58 71 63 44 54 46 52 54 54 58 64 60 65 65 61 48 55 47 41 44 43 31 41 32 35 40 40 39 39 39 30 37 27 27 22 30 35 30 31 29 36 97 80 61 76 63 23 34 30 37 25 33 21 35 42 39 35 30 29 36 41 37 31 39 46 57 64 67 77 89 106 113 98 104 104 97 92 84 74 63 57 62 43 52 50 52 40 52 52 42 39 52 52 35 40 35 32 40 33 47 56 66 64 55 64 61 54 55 52 47 51 44 46 37 29 28 25 21 21 37 30 36 31 36 39 30 22 31 30 34 25 30 35 99 78 49 77 64 33 31 33 28 32 27 24 37 33 38 30 30 31 38 31 28 38 37 40 56 51 52 58 71 72 88 87 92 97 94 78 83 89 75 65 79 73 63 59 56 51 45 51 47 40 53 46 37 38 34 29 35 37 37 30 39 46 53 61 53 58 54 61 50 61 56 55 54 56 52 53 38 37 18 26 26 33 38 44 32 20 23 27 41 28 30 47 100 76 53 65 64 39 30 33 26 30 25 30 35 36 29 27 35 27 30 32 32 35 28 40 42 53 47 67 80 85 88 78 81 91 86 87 86 69 76 77 81 83 81 79 77 64 64 61 50 55 56 53 54 52 53 50 41 26 27 27 31 34 39 36 42 44 52 51 50 53 59 64 50 52 61 62 58 61 52 32 31 17 26 42 42 24 23 25 38 28 32 37 98 81 53 64 59 43 37 33 30 29 27 34 33 28 26 29 30 29 32 27 35 29 43 41 41 52 57 65 75 65 94 94 86 79 83 72 83 79 75 70 67 61 60 65 62 55 58 52 54 39 56 60 55 58 53 48 35 34 24 34 54 61 57 58 54 55 50 38 47 47 40 30 26 39 40 39 41 32 44 31 27 19 30 29 42 30 25 31 28 33 35 41 96 82 60 54 58 36 31 35 33 24 33 32 37 18 33 25 27 27 30 29 33 37 35 32 37 43 35 44 44 51 55 73 73 79 87 71 62 61 62 55 67 82 74 65 70 63 59 59 58 54 60 56 52 57 49 46 33 38 32 42 52 43 25 36 46 32 31 25 27 33 27 29 42 44 47 30 36 36 41 35 28 23 24 27 30 33 28 25 24 40 29 40 96 82 58 46 42 36 31 36 33 31 30 32 33 28 31 25 31 25 28 29 33 37 30 38 39 35 37 46 36 44 44 57 63 77 84 83 79 75 72 66 72 78 74 68 69 70 59 62 52 54 49 49 46 51 49 44 33 36 26 42 35 40 25 32 39 43 37 38 34 36 42 62 61 40 38 30 34 32 34 31 29 27 30 28 23 33 28 22 29 35 31 41 90 81 61 39 28 40 31 33 31 29 27 38 27 33 30 30 31 23 30 33 36 28 36 40 35 39 40 38 36 44 39 51 40 54 70 75 82 87 90 79 75 78 75 77 56 56 50 49 43 46 41 48 45 43 36 34 40 34 37 43 47 32 31 50 53 38 47 48 48 27 77 65 40 40 27 44 29 36 28 37 29 31 27 28 26 26 34 24 28 38 35 38 97 83 60 40 28 30 35 31 27 32 35 32 27 36 31 21 28 32 30 30 34 29 33 33 32 41 38 40 43 49 48 44 47 43 40 55 56 59 60 60 56 63 76 70 57 57 53 39 45 39 51 58 44 42 44 46 36 49 49 60 54 54 54 61 48 54 66 56 37 48 70 48 36 28 36 42 31 39 35 36 40 29 33 29 21 25 30 26 35 29 39 49 99 91 59 39 29 32 33 30 28 29 34 30 33 31 32 25 30 28 30 29 34 32 34 50 40 46 44 51 47 57 51 55 52 46 45 47 41 43 42 41 40 40 50 47 46 47 58 47 44 41 57 61 63 53 49 49 45 66 62 62 65 66 70 72 70 68 74 63 60 61 51 44 35 39 40 42 42 37 45 48 37 33 34 28 30 28 30 29 33 35 44 59 93 98 55 35 30 36 33 33 29 25 28 34 31 29 23 25 27 30 34 30 39 32 44 48 51 54 57 50 52 53 59 60 63 48 53 45 41 47 44 37 35 36 31 34 34 41 38 48 38 65 72 63 58 51 51 57 63 67 73 71 79 71 84 101 84 75 102 90 65 65 49 48 45 46 49 48 48 49 57 57 48 31 39 31 25 35 25 37 39 44 53 58 97 95 59 26 36 33 37 26 32 26 20 36 34 31 27 32 25 35 38 29 46 44 52 56 61 60 62 62 56 58 57 59 61 50 56 56 49 43 44 39 38 34 37 38 43 38 59 55 50 58 59 44 61 66 74 72 70 71 80 76 68 78 99 86 82 94 110 93 69 67 56 62 53 63 53 63 61 61 53 54 56 43 36 37 30 26 32 40 52 44 59 62 95 103 59 37 24 37 31 29 32 28 30 24 40 33 31 34 35 36 40 46 50 52 60 58 62 73 66 74 66 71 72 72 64 68 59 60 51 43 51 43 47 39 44 36 48 41 47 56 60 54 68 72 78 82 76 81 72 74 74 71 83 88 79 81 103 103 106 87 75 73 76 74 73 72 70 70 55 65 56 58 52 48 44 45 25 34 37 40 47 51 59 61 94 101 76 30 27 31 35 26 32 34 27 27 35 46 40 43 37 43 50 57 54 64 74 73 83 89 84 87 88 86 77 68 69 69 65 64 59 53 53 51 38 54 42 41 45 44 51 56 59 54 64 69 66 68 67 72 67 76 72 83 84 81 79 90 105 102 105 94 90 90 93 92 93 92 85 80 62 63 64 60 57 52 43 46 38 34 44 47 52 51 59 51 95 101 78 32 26 36 32 32 31 30 32 31 44 66 61 44 56 53 54 70 82 87 98 99 104 95 101 93 97 95 90 72 61 57 57 61 61 57 62 55 54 54 53 50 49 54 50 53 63 52 66 65 62 65 67 71 75 72 79 80 80 85 91 103 109 104 105 107 106 102 107 103 104 104 103 87 78 72 74 68 60 48 47 41 43 35 41 50 43 54 54 39 90 101 86 45 28 40 34 34 26 34 39 50 80 101 84 59 53 61 68 102 106 105 106 108 104 101 99 97 97 94 92 84 77 71 59 57 46 65 57 58 62 58 58 60 60 64 67 65 62 66 68 68 66 71 72 73 83 81 82 86 99 101 105 109 111 113 110 115 105 112 109 109 112 110 112 105 89 89 72 75 59 50 49 36 40 39 43 46 39 46 45 43 94 107 131 78 46 32 31 35 29 37 40 85 116 120 105 71 69 68 106 125 133 121 119 115 110 108 111 110 109 105 106 89 97 82 90 77 51 62 60 64 59 60 66 62 73 62 78 68 69 72 73 82 69 80 78 81 86 88 88 97 109 112 110 115 111 114 116 112 108 108 113 113 108 117 111 108 100 93 84 79 64 48 40 42 38 45 37 40 40 39 39 44 109 138 158 143 87 25 36 39 29 34 78 111 130 134 117 98 87 116 131 147 152 140 146 138 139 138 143 135 132 127 131 125 117 105 99 99 86 79 74 73 68 69 72 79 77 80 83 84 87 86 84 85 94 95 91 93 94 103 111 115 117 121 121 127 125 118 118 119 111 112 114 115 110 110 112 109 100 97 89 77 66 56 43 41 42 37 36 33 36 39 45 33 116 129 155 151 100 42 30 34 29 51 103 121 130 134 123 110 115 133 138 152 149 153 150 149 152 155 152 152 148 145 148 149 143 125 122 107 103 100 92 89 90 87 85 85 88 86 93 91 92 99 97 98 102 103 100 103 105 114 120 120 125 124 125 127 123 120 124 122 107 111 116 116 114 116 110 110 103 100 92 76 66 54 40 34 42 33 32 39 29 47 33 30 83 100 155 152 100 65 34 34 30 78 123 123 132 134 128 124 132 139 142 158 147 153 154 147 148 150 148 151 153 150 158 160 157 155 144 139 126 122 107 105 104 100 95 99 96 99 103 100 98 105 103 104 106 113 108 113 116 121 125 123 125 123 126 128 123 124 119 117 121 110 118 116 121 113 115 112 106 102 92 76 69 60 45 36 36 23 39 36 29 42 34 33 87 43 128 158 127 73 51 31 47 100 129 130 131 134 129 130 131 134 138 138 137 142 126 125 128 126 130 143 143 146 152 153 153 155 154 147 142 140 127 122 116 108 106 106 103 110 107 107 106 105 107 110 109 114 115 114 118 121 123 122 124 125 124 123 126 128 121 120 126 119 116 118 119 117 115 115 107 102 94 83 78 65 44 38 31 31 38 31 34 39 41 51 126 49 61 148 141 100 55 34 66 117 128 134 131 138 131 127 119 119 117 113 115 117 109 108 104 113 111 122 130 121 127 136 143 141 143 138 144 141 141 134 130 120 120 116 113 116 110 110 110 106 110 112 112 114 116 116 120 119 120 119 122 121 124 123 122 126 124 125 127 123 119 122 120 119 117 114 111 100 99 96 86 68 48 44 30 33 33 33 32 38 66 86 113 83 111 117 138 117 54 38 94 128 136 134 138 134 129 117 107 106 103 102 105 96 97 106 105 100 99 95 99 99 99 108 119 121 126 130 131 135 135 132 131 133 127 125 121 126 124 118 116 116 115 114 115 115 115 119 116 115 120 119 115 117 119 124 118 122 124 129 123 126 127 121 122 119 112 116 108 102 101 97 97 86 50 37 32 35 35 31 31 50 99 93 109 111 149 133 127 93 49 53 116 130 137 135 138 132 128 111 99 105 105 105 102 98 97 101 91 92 94 80 86 81 65 82 90 98 101 118 120 122 122 128 130 137 134 133 131 132 125 128 122 118 117 118 117 116 113 118 115 119 119 115 113 114 117 119 116 123 125 124 126 126 129 123 123 120 114 113 109 105 106 97 102 93 63 34 28 34 41 23 35 79 98 93 120 135 137 132 123 95 52 86 128 139 144 134 139 132 130 113 97 94 98 92 91 98 91 92 95 78 81 78 64 64 57 65 63 68 68 80 87 97 104 114 121 123 130 133 134 130 131 132 129 126 124 125 116 119 113 117 112 114 114 112 113 109 112 118 111 116 124 126 119 121 124 125 119 118 117 112 111 104 101 102 99 100 82 39 28 30 36 29 50 96 103 98 134 130 115 86 111 99 69 108 138 140 141 139 133 133 125 112 106 96 90 91 92 82 85 85 85 81 79 85 73 70 65 67 67 46 57 60 59 64 89 95 106 110 119 129 127 127 135 133 131 128 128 125 122 121 113 114 111 106 113 108 108 103 110 111 111 112 111 117 112 114 115 118 112 109 109 107 109 105 100 103 103 99 93 49 29 28 34 31 68 101 98 97 139 120 96 78 86 88 86 120 138 143 141 142 137 136 125 114 110 94 92 72 68 58 42 45 52 46 36 47 32 42 44 44 62 54 58 56 55 54 66 70 82 92 108 116 121 123 128 126 127 128 119 119 120 115 100 104 100 101 105 100 96 100 102 101 100 93 98 95 92 99 97 104 104 92 99 98 107 108 97 104 98 99 102 63 24 32 34 38 89 100 92 96 131 116 91 84 81 76 107 122 139 142 143 134 142 140 127 119 105 87 76 58 52 43 29 39 70 54 32 27 27 26 23 28 49 61 48 43 57 59 57 60 72 84 88 102 104 114 117 120 121 119 111 108 109 108 93 88 87 86 81 80 74 71 71 79 69 71 74 73 73 73 83 89 90 81 88 89 89 101 102 100 99 96 104 70 34 28 31 47 98 93 97 94 137 119 104 101 95 87 121 126 133 143 141 140 146 146 140 130 118 100 92 76 67 68 55 56 75 77 42 36 30 31 27 43 76 76 71 40 36 49 67 56 65 70 77 92 90 104 108 109 112 109 103 98 93 92 80 79 63 74 59 56 55 53 51 48 51 52 53 62 63 57 69 75 76 74 79 78 82 89 92 98 98 99 105 76 37 24 39 50 87 92 98 96 140 128 114 112 128 136 123 125 129 140 145 143 149 154 149 144 145 140 140 139 125 115 109 101 99 92 79 54 42 37 45 68 85 74 59 50 40 21 54 58 66 60 73 79 87 99 105 107 102 99 87 86 83 70 70 66 55 62 52 54 46 49 47 52 55 55 57 62 60 62 68 72 71 69 77 76 75 78 91 92 98 104 103 86 41 26 46 63 91 94 88 100 142 142 121 109 147 156 123 122 130 140 149 151 152 149 156 152 153 148 146 151 150 134 134 136 129 119 107 98 88 81 71 68 77 64 59 50 52 44 51 64 63 63 65 88 103 126 124 127 111 97 89 77 68 69 64 58 54 51 48 42 47 54 35 38 50 52 69 73 72 73 71 81 77 78 80 74 87 81 86 88 97 103 106 85 43 29 67 80 101 86 95 93 147 147 135 113 151 164 118 119 132 141 143 155 157 152 156 160 163 160 155 150 150 129 127 134 139 124 114 110 98 105 98 89 84 68 70 68 64 67 69 70 55 61 72 109 137 160 148 148 131 119 96 69 69 60 56 53 38 33 36 45 63 51 30 21 20 20 29 28 58 59 70 74 80 83 85 87 80 84 90 90 96 101 108 85 33 56 90 77 86 96 90 94 141 148 146 123 148 159 116 114 134 143 149 155 154 158 161 165 169 162 160 160 160 143 120 112 122 118 118 108 114 110 108 98 86 76 68 75 67 66 77 70 60 64 97 135 149 173 164 153 142 126 114 77 56 61 53 47 40 28 38 43 67 60 41 25 33 18 28 26 40 53 37 42 59 75 83 86 84 87 92 94 99 104 109 86 38 74 103 72 85 86 93 90 150 151 160 149 142 146 112 114 133 143 146 154 154 155 163 162 163 163 160 159 159 156 143 129 120 109 101 97 92 93 90 85 82 75 82 81 84 83 79 80 83 102 123 151 167 178 174 159 152 135 119 89 64 45 60 68 60 45 49 48 61 71 56 36 30 34 32 46 65 64 42 29 33 45 66 86 87 89 100 100 94 109 106 83 45 89 105 75 79 92 88 91 153 149 168 172 143 139 107 115 134 142 148 148 155 156 162 165 165 165 168 164 165 163 158 157 148 140 130 122 112 108 109 110 108 104 109 115 117 113 108 114 123 126 128 152 172 180 167 162 159 142 117 91 84 60 69 72 75 65 69 71 76 74 69 65 59 58 54 67 80 65 57 53 47 32 48 78 89 94 100 98 101 101 107 81 55 78 97 83 77 91 82 88 147 153 166 183 163 136 106 110 131 137 146 144 146 152 163 163 165 173 173 170 167 171 167 168 161 158 154 149 142 140 135 145 143 139 148 148 152 144 146 140 138 135 136 154 166 171 165 159 161 140 113 93 95 82 84 88 86 67 76 80 82 88 81 81 87 87 80 86 85 85 83 84 76 67 59 64 86 94 101 106 99 105 104 79 58 77 94 84 81 81 83 90 153 155 161 173 182 139 100 114 126 130 138 143 145 146 154 160 158 172 172 172 175 173 174 175 168 167 160 162 155 157 160 160 162 165 170 166 164 154 155 143 136 142 142 157 169 175 169 162 155 136 113 90 101 102 101 103 105 87 85 74 81 88 83 92 92 91 93 97 103 102 97 95 97 99 99 90 99 100 108 105 106 100 101 76 72 79 91 91 73 87 81 76 141 151 168 160 180 148 99 111 125 124 132 134 140 140 146 152 157 164 169 174 177 174 178 179 171 167 170 169 167 171 175 170 171 168 171 165 154 152 151 145 141 141 140 156 170 170 167 164 153 139 111 94 104 110 103 113 109 106 95 83 83 78 74 91 90 93 95 96 101 99 104 98 105 110 108 107 105 107 107 106 105 105 93 80 81 86 97 89 75 81 78 80 121 143 160 151 163 140 100 110 125 121 128 133 130 134 144 146 148 148 148 168 171 170 172 171 167 171 172 175 175 178 176 171 166 168 168 168 153 144 145 143 146 139 147 163 166 170 171 156 154 142 115 95 105 108 111 115 121 118 110 96 99 92 82 84 84 87 90 94 94 97 99 100 104 111 111 115 110 108 113 102 103 103 90 75 90 100 98 86 79 78 79 80 100 133 152 154 162 136 105 101 127 118 124 130 130 137 142 142 144 146 151 162 165 168 173 174 175 174 179 177 174 176 176 175 169 170 168 159 144 150 143 141 144 145 152 164 168 173 168 162 154 148 122 98 105 105 111 114 124 129 123 116 115 103 100 100 102 88 93 86 92 97 102 97 108 109 113 115 113 111 112 107 104 99 83 82 103 104 96 77 74 76 75 80 77 118 141 148 164 144 100 107 120 118 118 130 132 132 144 143 140 146 152 152 163 160 175 177 176 175 172 173 179 175 171 173 167 171 166 154 149 145 147 145 145 149 151 163 173 173 168 164 159 146 128 105 109 103 106 119 127 133 134 125 132 128 114 110 110 115 115 110 109 110 110 109 110 109 116 112 114 112 106 110 108 96 85 98 112 95 100 67 74 77 69 76 87 82 118 137 158 137 100 104 116 122 119 118 122 125 132 136 143 146 152 151 161 161 166 173 174 169 174 169 174 173 174 172 166 164 159 146 139 147 147 144 141 146 152 166 167 171 168 159 159 146 126 113 112 109 102 110 128 134 142 140 139 139 130 123 118 128 129 123 130 122 120 123 112 117 116 117 112 110 107 109 101 94 98 104 101 103 78 68 74 68 71 75 89 83 86 110 129 124 106 105 118 122 122 114 118 122 130 131 143 142 147 146 153 153 161 169 175 167 170 173 166 169 163 164 161 153 146 139 137 146 148 139 134 146 152 164 171 167 166 158 157 144 126 119 117 109 102 111 124 137 138 144 148 145 140 139 140 133 138 136 137 129 130 126 121 121 119 117 116 107 110 104 99 91 104 112 97 101 72 64 72 67 70 74 86 90 87 88 90 102 110 110 114 121 123 122 122 121 130 134 136 138 137 147 146 157 149 161 164 159 165 165 157 159 158 157 152 143 129 146 150 149 149 141 147 145 154 161 174 172 161 165 156 144 129 113 117 116 101 111 125 134 137 145 152 151 151 145 149 150 142 143 129 130 134 132 131 120 123 114 105 106 101 105 91 98 117 113 110 91 61 66 70 62 76 66 90 89 88 93 77 100 109 107 117 121 121 130 122 121 122 131 137 139 133 149 142 150 153 157 160 154 163 158 147 150 159 149 143 127 135 150 153 154 151 143 147 146 145 155 170 168 159 161 154 143 134 109 120 131 106 101 127 133 140 148 151 153 151 156 152 154 147 144 134 134 133 128 125 122 122 110 111 102 104 99 86 110 121 114 104 73 66 61 66 65 66 67 92 94 87 94 80 108 109 109 112 118 121 123 115 116 121 128 135 132 137 139 139 146 149 149 148 153 150 157 152 150 145 136 123 126 143 148 150 149 151 153 147 148 160 163 171 168 160 156 157 146 139 121 130 143 137 101 116 131 134 150 142 153 151 148 158 153 149 145 142 141 135 131 125 116 113 108 106 104 99 95 96 114 122 113 89 59 62 60 62 64 65 63 89 87 90 88 87 104 113 113 110 109 126 122 117 121 120 125 132 130 136 140 139 144 143 149 149 147 144 145 151 140 137 132 126 124 136 146 143 142 146 146 142 161 177 181 171 168 160 160 160 149 145 131 132 143 153 118 101 132 140 143 145 152 151 149 149 148 150 150 140 142 135 130 126 114 110 107 101 105 99 93 97 109 119 116 67 56 62 62 61 66 61 64 91 92 95 83 83 109 114 110 107 112 121 125 116 118 124 124 123 131 134 136 140 137 141 142 144 145 144 146 139 135 133 138 139 117 119 127 126 128 130 121 122 135 143 155 146 152 141 149 154 146 139 126 132 135 141 136 98 122 139 145 146 151 150 146 147 142 145 145 138 137 134 132 127 119 111 106 103 101 101 89 99 114 109 90 53 60 60 56 60 59 60 61 92 88 90 87 81 104 115 108 108 112 118 124 118 119 117 129 125 124 127 133 133 137 137 138 139 151 147 144 140 137 138 144 154 122 89 96 93 99 109 108 104 110 124 126 126 130 118 127 130 119 113 111 115 122 125 127 110 110 134 139 140 145 147 149 146 143 142 139 133 132 128 128 123 111 104 103 100 97 96 92 108 105 89 68 50 56 59 59 56 57 57 56 90 92 91 93 80 102 115 114 107 112 115 122 119 119 118 129 123 124 122 133 127 137 132 144 139 145 151 146 142 141 151 146 160 152 89 64 44 57 60 80 86 94 96 105 104 106 100 99 106 95 91 95 102 103 107 110 102 111 130 137 138 142 143 143 141 142 139 141 126 125 124 122 124 103 104 102 91 98 93 101 109 92 65 53 55 56 58 54 61 57 56 56 88 89 87 94 76 109 111 109 113 110 117 121 122 116 114 124 125 125 126 123 130 125 141 145 150 150 149 147 149 147 152 152 155 164 123 66 43 47 52 43 48 69 79 86 81 88 85 82 80 79 75 77 79 77 94 95 99 98 120 133 134 133 136 136 138 136 136 128 123 119 117 114 111 105 99 99 95 101 86 95 86 66 55 50 54 55 58 55 56 57 55 57 85 91 86 93 83 101 114 108 113 114 118 121 122 111 109 126 128 129 126 132 134 130 142 147 150 154 152 144 152 149 155 161 159 153 147 104 81 67 63 57 52 52 58 77 66 81 69 58 52 45 45 47 44 61 80 97 97 97 109 128 131 133 128 130 129 131 127 114 119 115 111 112 103 95 103 95 95 102 84 66 54 54 60 57 55 56 52 56 53 52 55 54 88 91 88 92 78 98 109 104 117 113 119 117 127 121 116 120 129 133 130 129 132 142 139 146 149 153 148 153 153 156 163 158 158 159 155 150 135 114 97 78 76 63 57 56 51 62 57 53 51 49 47 41 36 70 101 102 103 96 101 116 128 126 133 123 122 121 117 117 113 111 104 108 99 96 98 100 98 100 56 53 45 60 53 59 48 56 54 51 58 52 54 53 89 87 87 95 77 104 109 108 113 117 118 121 121 123 126 124 133 130 131 137 134 146 143 150 152 145 145 150 157 155 158 154 155 155 155 153 149 150 133 117 97 77 60 65 68 64 65 68 64 66 68 67 70 95 102 110 103 103 104 111 123 129 120 118 115 113 108 110 111 104 104 100 97 95 95 99 100 93 43 53 55 53 57 53 53 55 56 49 59 47 57 53 86 86 88 92 79 96 110 112 106 115 118 123 115 124 128 125 132 138 136 144 139 144 145 150 144 142 141 153 151 159 152 154 155 148 151 150 145 149 144 140 126 97 75 63 74 82 81 89 98 94 91 94 98 103 109 107 115 102 107 114 116 127 122 119 114 106 104 103 104 103 95 98 93 93 97 95 105 71 51 48 57 53 54 53 51 53 55 53 55 59 48 60 88 85 88 90 78 99 102 106 116 113 116 123 121 121 129 126 136 137 141 141 140 143 138 144 136 143 141 144 151 148 150 146 151 150 149 148 144 143 141 139 137 123 94 77 86 87 93 93 96 101 97 104 107 107 111 109 113 109 103 111 113 118 123 116 109 100 100 94 99 96 97 94 99 95 94 99 96 56 49 55 54 55 52 49 57 59 51 55 57 51 53 60 87 89 86 93 83 92 99 105 115 114 115 120 120 124 129 127 135 143 142 139 140 140 135 139 134 137 132 139 149 148 143 141 143 146 148 144 144 137 144 140 132 130 109 101 100 97 92 97 101 96 105 103 105 107 111 109 110 104 108 107 114 117 121 118 107 99 100 101 93 95 95 97 93 96 92 100 87 40 56 55 50 55 53 52 51 57 52 52 54 53 51 57 86 93 84 90 88 87 95 104 111 112 116 124 120 120 126 133 135 139 141 138 136 135 138 135 132 129 126 130 137 139 135 130 135 138 146 145 147 142 142 149 142 135 124 120 116 111 99 98 99 102 105 99 100 107 107 103 106 109 106 108 110 119 118 114 112 100 97 98 97 92 94 94 93 92 98 97 75 44 51 53 54 51 55 49 61 52 49 56 48 60 54 52 90 89 88 86 87 88 90 99 110 112 116 120 119 120 123 132 134 136 141 138 128 133 135 130 130 124 125 122 124 124 121 122 134 133 134 145 147 151 145 151 158 141 128 128 133 128 116 106 100 99 105 100 97 104 99 100 107 110 104 108 110 116 120 116 112 109 102 100 98 96 98 92 96 94 94 102 58 45 49 52 56 50 55 52 54 53 48 53 53 52 54 51 84 90 82 90 92 81 90 100 107 107 111 118 117 122 123 128 132 134 133 134 124 129 129 126 119 121 116 114 114 122 122 124 133 134 132 135 144 143 138 143 150 150 140 134 147 150 140 126 117 103 96 107 97 95 102 103 102 105 105 104 107 113 109 112 109 112 106 100 102 97 96 99 93 93 103 80 45 45 57 56 52 52 57 50 55 52 53 53 51 51 54 55 87 84 86 89 93 85 85 87 106 108 110 112 113 119 121 120 129 132 129 132 125 124 128 112 112 100 97 94 92 103 108 105 104 106 101 102 98 98 97 101 102 115 130 132 138 135 128 124 121 112 102 100 96 95 96 102 98 98 102 97 100 105 108 107 113 107 107 102 104 93 101 94 96 93 98 74 44 47 56 53 50 53 52 51 52 53 51 55 52 54 55 48 88 85 86 87 88 86 88 86 100 107 109 110 112 117 117 121 121 130 131 121 123 123 117 100 87 80 70 60 51 54 58 60 49 53 54 53 52 54 50 59 54 64 82 97 95 91 82 85 94 98 101 100 96 88 95 96 89 95 95 92 96 98 106 107 109 106 104 105 96 97 96 95 93 96 87 59 42 54 53 52 57 45 54 57 53 52 49 56 48 54 54 55 83 87 87 86 86 87 85 93 94 99 105 109 115 111 113 120 122 123 129 122 123 117 108 100 95 105 109 111 96 87 82 77 74 68 58 58 48 48 40 45 50 42 48 56 57 57 47 57 58 66 76 82 91 89 82 94 88 92 91 87 94 102 103 103 105 105 106 98 100 98 98 91 95 91 74 41 53 49 56 51 53 51 52 59 51 52 48 59 51 53 53 53 85 85 86 90 87 89 91 85 92 96 105 107 118 112 116 109 114 122 124 123 120 117 110 103 116 131 135 149 145 139 120 126 125 125 119 128 118 97 74 66 54 46 48 48 47 44 33 37 40 43 51 53 59 63 69 72 75 80 84 88 97 102 102 102 101 104 103 101 97 93 97 97 95 84 59 42 55 52 54 54 48 56 54 54 51 56 47 59 51 55 54 55 87 87 90 87 88 85 92 88 93 93 98 109 107 112 114 107 112 121 120 120 119 114 115 118 131 137 136 138 142 132 130 139 132 124 118 131 146 142 134 122 112 107 104 94 90 86 72 69 68 58 55 57 46 46 51 45 60 65 77 89 97 99 99 100 101 100 103 98 93 92 94 91 98 66 50 47 51 54 52 51 48 54 55 54 50 51 52 57 50 55 48 55 86 89 88 87 91 85 89 81 104 87 99 106 107 108 116 102 109 119 120 113 117 115 123 128 134 137 127 135 136 138 126 133 128 128 120 122 128 136 135 133 131 131 137 139 132 129 114 111 92 85 76 80 84 80 84 82 85 75 71 91 93 93 101 100 99 96 104 98 93 92 97 94 86 49 53 50 50 56 52 51 50 53 57 45 53 54 51 55 52 52 54 55 81 87 85 89 88 82 90 113 171 142 88 97 100 108 112 110 106 113 113 119 116 109 123 128 133 127 133 128 125 132 127 124 122 119 116 115 122 133 124 123 120 121 125 128 124 117 108 114 99 102 102 95 105 101 99 93 99 95 80 86 94 94 104 99 93 103 99 99 90 96 94 93 58 47 51 48 58 49 51 52 51 55 49 56 53 56 54 51 52 52 54 49 86 86 83 89 88 106 159 188 202 162 97 89 99 109 107 114 110 110 114 116 116 111 123 127 129 129 128 126 127 118 124 124 121 116 102 106 106 107 107 108 103 109 113 111 110 117 107 109 109 112 100 97 99 108 105 95 104 99 92 90 96 97 101 99 96 95 99 94 87 97 94 74 49 50 53 51 53 49 51 57 48 57 45 56 55 54 49 55 50 56 55 51 86 89 78 92 132 186 188 162 192 163 112 100 90 101 111 107 115 109 115 113 112 116 122 122 123 131 126 119 121 120 116 119 114 109 107 103 99 94 87 82 81 87 87 86 90 91 94 94 95 104 94 88 103 107 103 105 99 99 97 94 98 99 98 103 97 93 95 94 88 95 95 55 45 52 53 53 49 48 52 54 51 48 55 59 46 52 56 49 53 50 51 50 86 78 91 158 200 185 164 183 214 174 100 123 96 96 99 109 107 112 115 119 117 114 121 120 115 127 122 118 117 118 112 112 110 107 105 104 93 94 90 84 84 87 78 78 88 83 93 90 94 99 100 90 102 102 104 105 97 98 96 91 96 99 98 96 95 94 91 94 87 86 132 89 45 47 55 53 50 57 50 52 46 54 59 44 53 57 48 52 52 54 48 48 77 88 171 204 179 171 195 203 203 145 99 128 115 94 99 98 109 110 117 112 119 118 122 127 115 124 122 119 117 113 113 109 114 106 107 106 94 95 84 83 86 83 79 81 81 86 86 92 87 91 92 95 100 99 98 100 98 95 98 95 96 95 99 97 94 93 95 93 88 77 116 150 96 44 51 49 56 52 52 51 50 52 49 50 48 52 54 53 53 46 58 53 80 171 207 178 172 200 202 192 149 111 98 129 115 110 92 95 100 107 114 114 120 119 121 125 120 127 128 126 119 112 119 112 107 109 109 100 97 96 89 87 83 82 87 85 82 87 91 92 91 89 87 94 93 97 98 97 99 93 88 94 97 99 91 94 93 92 91 89 92 79 80 126 161 100 40 52 50 50 55 51 53 48 56 47 51 51 51 51 54 53 55 52 165 212 195 160 197 208 200 156 114 110 106 125 120 115 102 89 96 98 106 112 115 119 122 123 133 129 130 133 126 124 125 115 115 109 116 123 130 130 126 124 110 103 100 92 84 91 90 87 88 94 91 97 92 95 97 93 96 96 89 94 98 98 94 94 93 89 88 93 90 111 73 98 132 157 92 33 52 50 56 46 57 49 53 51 54 54 39 59 51 51 56 51 212 206 153 191 209 209 173 108 98 110 116 117 118 117 107 97 86 89 96 106 112 111 113 124 121 128 132 136 138 142 142 140 142 145 145 155 157 152 149 153 147 142 134 123 110 99 95 91 89 96 91 104 98 91 98 98 92 90 98 92 97 98 89 90 91 85 95 94 71 148 114 75 110 144 160 76 34 48 58 53 45 53 52 50 53 53 51 54 46 53 55 55 214 179 157 208 208 204 134 97 97 117 119 114 117 119 111 110 80 85 87 100 109 107 116 120 126 133 132 131 145 148 146 152 149 148 151 156 157 149 157 148 149 144 143 142 138 129 122 110 101 93 94 101 100 100 99 99 95 90 89 96 93 90 91 86 86 91 97 92 73 130 159 74 94 128 159 145 42 42 56 49 47 56 48 52 50 54 55 46 48 53 53 46 206 151 180 211 216 178 105 89 94 119 121 110 122 115 116 109 98 81 76 91 99 99 113 115 118 130 135 135 134 144 143 150 154 150 151 156 145 149 148 143 140 137 141 140 136 130 130 130 129 89 93 112 106 103 101 100 94 91 93 100 86 87 86 87 93 94 97 91 74 100 172 108 71 117 139 168 98 30 55 51 51 55 47 51 54 48 49 52 50 54 52 54 189 135 201 211 214 156 87 74 79 126 127 113 120 119 119 109 104 91 75 77 89 91 97 107 108 120 122 133 127 134 138 134 147 143 147 139 148 140 143 142 134 135 133 129 131 128 128 130 131 110 106 111 107 104 94 98 93 94 92 89 89 80 89 95 96 91 95 89 69 94 153 148 61 105 134 161 144 51 40 48 52 53 48 50 53 47 57 53 50 48 54 46 175 126 212 210 208 134 70 21 98 132 121 125 117 121 121 110 114 97 92 69 77 87 83 97 108 115 120 116 123 132 130 128 133 136 136 128 133 133 128 132 119 124 123 126 124 119 126 121 124 118 112 108 106 102 89 91 94 90 89 89 84 89 89 93 99 99 89 89 69 77 136 174 64 81 136 141 169 81 35 48 55 50 51 47 51 55 48 52 48 55 49 48 157 141 215 211 208 121 26 52 132 133 119 122 130 116 119 117 114 103 93 76 73 71 79 84 91 103 106 108 113 119 120 118 125 127 121 123 124 122 119 120 117 115 116 114 117 111 118 112 112 109 100 108 100 93 93 90 89 86 86 83 90 95 90 92 95 93 90 92 54 63 126 175 96 57 118 141 167 115 23 55 48 54 48 54 52 50 49 52 53 51 50 45 165 154 213 212 217 95 12 95 141 127 123 114 128 128 117 122 115 107 104 82 79 69 69 77 85 86 94 97 102 111 107 112 115 114 119 114 109 110 115 113 113 113 108 109 105 106 99 100 99 100 96 95 98 89 92 88 87 77 93 84 88 95 88 89 89 87 91 95 35 47 121 168 129 46 100 134 166 136 26 53 46 53 52 49 52 49 52 52 47 51 50 51 174 159 212 214 230 42 49 133 138 127 131 119 121 129 130 113 116 110 106 97 83 70 78 72 70 79 89 86 93 97 100 102 96 108 102 107 103 104 99 101 100 104 103 102 96 92 89 91 86 92 88 95 89 84 85 82 82 87 95 89 89 90 91 88 83 93 97 89 1 59 119 163 153 40 88 124 168 154 30 50 44 55 51 49 49 49 49 55 45 56 52 44 183 157 211 214 232 43 67 140 139 129 125 127 122 124 129 126 109 111 112 101 89 74 78 66 75 74 75 85 83 85 90 89 89 93 93 92 84 101 90 94 91 93 92 90 85 86 83 89 87 88 91 88 83 80 77 86 91 95 90 92 91 85 87 90 86 85 99 89 0 62 125 155 157 42 70 128 164 160 42 47 48 53 55 49 51 52 51 55 48 53 52 48 199 150 208 214 234 48 86 140 137 135 127 124 123 126 128 127 129 114 110 105 100 84 82 72 76 80 78 69 72 91 90 86 83 89 82 79 86 84 85 79 83 85 84 84 84 82 85 83 84 88 83 82 78 80 86 91 96 95 92 96 93 85 89 88 86 90 100 72 6 72 130 162 160 37 78 140 169 153 111 81 73 50 65 63 55 55 52 55 50 45 56 45 202 160 196 211 233 70 64 136 138 136 125 121 122 132 125 130 124 128 114 104 101 93 87 79 74 76 81 71 73 67 79 88 86 95 88 87 82 87 85 77 88 81 83 84 87 84 89 80 82 81 70 81 84 89 91 92 95 92 92 93 88 83 93 89 86 92 102 55 20 98 135 166 143 34 101 152 166 153 131 134 128 101 106 116 97 84 88 75 66 59 59 57 207 171 182 211 236 122 58 133 138 138 128 121 126 125 126 128 123 128 122 114 103 97 95 82 78 78 77 83 74 75 69 70 71 87 86 91 87 91 86 86 90 91 84 87 86 78 85 74 70 77 78 83 90 88 94 94 95 90 91 90 87 87 94 80 92 93 97 33 32 118 142 170 116 40 124 152 164 151 127 135 137 132 131 123 113 118 118 121 108 116 108 88 206 188 170 207 235 157 69 138 132 136 129 128 125 123 121 128 127 129 127 124 110 104 100 93 82 78 78 79 78 80 76 67 66 67 64 74 76 77 76 79 73 83 74 72 78 65 74 72 73 83 91 91 90 93 91 93 93 87 84 95 86 87 92 86 92 91 80 15 66 136 159 163 78 77 135 158 161 149 136 129 131 136 138 137 127 119 122 93 106 109 119 124 204 202 171 199 226 188 66 129 135 131 129 131 121 124 120 123 129 128 124 126 116 110 103 95 89 82 80 75 79 86 78 75 69 66 60 64 69 68 68 69 65 69 67 68 70 69 82 77 85 89 98 93 92 91 90 91 97 85 86 89 88 84 97 89 93 90 49 20 111 142 171 143 62 104 141 163 158 147 124 126 132 132 135 136 142 136 136 119 99 75 104 124 