P2
92
112
255
101 86 71 79 68 53 46 33 31 43 67 56 45 29 39 69 49 22 43 56 67 81 71 81 85 62 37 46 49 44 49 46 44 48 53 64 76 72 77 79 77 70 77 64 69 58 52 47 40 31 30 36 31 38 36 30 39 28 18 40 34 32 28 32 30 27 38 39 27 34 45 34 47 45 44 36 53 47 33 51 40 43 70 102 103 104 101 99 102 101 101 102 92 73 69 71 54 45 46 31 41 71 72 49 43 41 53 62 29 23 52 69 80 80 70 84 73 59 61 59 67 63 66 68 63 58 53 57 74 73 71 74 74 75 83 71 62 56 53 56 48 47 37 38 33 35 31 26 42 44 29 36 31 32 29 34 23 33 33 33 21 35 45 44 46 39 39 42 52 49 37 45 49 31 54 78 95 102 102 103 102 100 102 103 85 69 77 48 40 46 46 59 71 81 63 55 35 57 63 40 32 60 78 93 90 69 61 66 76 95 103 102 90 81 79 89 76 59 61 67 71 62 59 67 69 66 68 59 51 57 62 58 61 57 49 46 44 46 41 33 35 44 34 35 32 33 36 29 29 29 27 24 19 33 46 37 50 56 30 38 46 50 54 27 54 46 48 60 64 94 107 100 102 101 103 103 83 82 64 37 46 50 59 56 83 82 53 48 36 58 53 38 52 83 89 77 74 68 54 65 93 101 100 98 96 85 83 86 71 65 64 69 61 52 52 53 51 52 51 47 57 68 64 60 53 53 48 41 40 47 48 39 35 32 33 35 32 29 32 36 30 25 24 18 24 24 43 41 39 62 26 34 41 52 52 46 33 54 48 61 57 63 105 105 101 100 106 97 81 73 47 51 47 62 64 69 81 72 47 32 40 57 61 42 79 93 88 73 76 80 71 75 78 89 93 94 93 83 78 87 74 81 75 81 72 78 62 58 61 55 60 63 60 69 67 69 61 55 57 48 41 45 51 45 40 40 32 32 38 30 28 30 32 24 22 20 18 32 34 41 36 46 33 26 28 55 53 40 39 40 59 55 67 47 71 103 106 100 103 98 66 54 60 58 63 68 70 68 77 64 32 44 53 54 64 63 93 96 92 92 91 85 93 92 84 91 101 90 83 89 75 77 79 81 83 87 88 79 73 61 60 62 60 76 75 74 70 66 58 51 61 57 60 45 45 47 46 44 37 42 35 38 28 28 29 30 30 21 24 33 30 42 35 40 32 26 19 48 52 41 39 40 55 55 53 67 55 81 109 104 99 101 48 66 74 56 72 76 81 58 71 41 34 54 69 56 73 83 100 91 92 88 87 93 98 95 94 87 90 98 87 79 75 79 77 78 91 95 93 89 84 86 79 66 71 80 77 81 77 76 77 71 76 61 79 72 69 62 55 52 46 46 42 44 34 33 33 38 32 37 21 31 29 34 32 32 23 25 27 29 45 46 36 44 53 53 30 61 62 51 91 110 103 101 63 89 73 55 83 87 85 62 46 43 53 77 77 63 86 90 98 98 92 86 88 96 95 96 92 91 91 88 87 71 67 73 69 69 81 88 82 86 73 83 79 79 72 66 68 64 60 58 72 66 73 50 55 55 62 64 55 54 52 36 42 42 37 36 33 34 36 33 23 28 28 34 28 33 22 24 33 27 36 40 36 47 51 55 34 38 64 51 67 102 106 103 79 82 62 67 84 92 73 48 42 47 80 87 73 73 75 94 95 92 78 84 97 86 92 97 109 114 100 93 81 75 87 89 85 87 88 89 76 84 67 76 69 73 67 72 61 59 59 61 58 57 61 57 52 52 49 49 51 41 37 34 32 38 39 31 32 20 38 24 29 26 25 28 19 28 28 28 28 31 31 34 27 45 54 49 37 40 51 50 44 83 101 107 75 64 62 78 89 87 49 46 41 69 74 75 70 76 74 85 72 59 65 64 74 82 86 92 95 103 93 92 94 92 81 80 77 83 90 85 87 83 71 84 76 73 65 67 62 70 64 64 57 54 43 49 55 60 52 49 50 46 40 35 32 40 38 39 33 29 32 34 34 27 23 27 20 28 25 26 27 29 32 27 26 42 49 48 37 42 47 49 53 54 89 106 62 64 73 78 89 69 42 55 52 77 65 62 80 79 63 52 43 51 57 52 55 84 78 71 78 87 93 92 86 87 76 74 77 75 80 83 83 79 86 85 71 67 69 61 68 67 66 65 73 70 60 55 60 56 69 58 63 62 55 40 49 38 37 34 38 31 39 31 35 37 23 34 30 24 22 23 29 33 32 28 19 35 37 49 36 24 49 55 50 48 73 102 75 82 80 66 82 56 52 58 58 58 60 67 60 65 49 42 55 63 49 52 59 71 75 58 66 81 81 79 84 84 81 82 74 77 90 93 97 97 91 77 75 73 69 65 73 69 72 69 71 69 66 67 55 59 52 40 48 53 53 50 48 41 46 35 42 31 46 37 40 36 27 33 44 31 27 30 28 35 30 32 21 34 36 42 40 16 47 52 53 53 59 93 80 76 78 68 67 47 57 65 50 52 62 61 54 52 34 50 57 51 52 63 65 54 59 52 57 67 57 70 68 70 83 81 82 86 101 101 96 99 95 88 88 74 66 57 68 63 65 77 75 78 66 70 60 69 63 42 48 42 43 38 34 31 40 34 33 27 38 33 39 36 40 25 34 38 41 37 32 35 30 30 23 28 30 41 36 16 36 45 55 53 51 73 86 70 71 73 63 47 58 67 47 46 51 52 58 39 48 67 51 45 58 57 53 63 54 66 71 72 68 78 65 78 84 77 71 75 82 85 81 87 79 75 73 63 73 67 67 62 62 74 75 81 76 78 65 65 67 53 53 59 48 49 41 41 42 46 39 39 37 30 35 38 40 39 37 36 41 44 36 34 27 23 24 26 28 37 27 24 33 35 51 65 46 64 76 66 81 57 67 59 65 67 42 37 43 47 48 44 63 61 51 53 57 56 58 69 68 84 80 82 80 84 82 82 87 84 70 67 73 75 77 90 86 86 83 78 71 75 62 61 59 63 59 59 73 71 72 54 58 59 60 56 47 52 45 37 42 54 45 52 40 40 44 42 37 39 41 36 40 37 34 32 35 25 26 25 31 26 21 27 23 35 35 72 49 32 58 63 78 62 62 61 74 58 31 38 45 41 45 53 49 44 56 57 62 63 53 55 57 66 75 75 78 84 78 78 74 66 62 61 62 70 71 89 81 78 78 81 74 77 75 73 69 71 62 57 68 63 67 56 55 56 62 57 56 51 54 42 47 44 41 33 35 40 31 32 24 26 27 38 34 32 33 37 31 39 24 25 27 28 22 24 28 33 37 57 56 25 49 65 67 53 53 56 56 44 36 43 42 38 48 50 36 36 60 61 52 46 49 42 48 52 56 65 76 71 67 62 57 51 54 56 43 44 62 55 47 60 60 74 75 73 79 75 71 77 73 71 74 73 68 71 71 68 70 64 57 54 49 54 47 40 37 36 40 31 34 26 31 22 18 24 24 28 26 26 39 37 35 27 24 25 28 22 30 28 33 52 52 38 55 70 61 46 50 50 51 45 40 42 33 43 48 42 34 38 58 48 46 42 38 42 41 47 58 66 65 72 79 74 69 58 50 53 40 50 55 45 38 45 46 55 54 37 54 62 75 85 80 92 90 92 76 64 65 73 77 77 71 59 61 60 51 43 47 45 41 39 41 45 41 46 39 40 33 33 23 24 30 31 42 32 19 25 27 30 26 31 32 46 56 34 50 67 49 47 48 47 54 49 40 40 28 41 41 31 41 40 43 34 40 44 43 52 46 58 64 77 95 95 103 85 69 62 65 62 57 53 47 51 53 44 45 39 37 33 48 44 44 45 50 50 46 44 44 50 51 60 65 72 67 65 65 54 51 46 43 39 50 56 53 43 39 35 41 39 27 32 23 29 21 25 31 39 28 26 27 27 30 27 30 48 51 45 54 59 51 46 39 51 50 33 42 33 32 36 32 32 44 30 33 41 44 42 45 54 58 62 76 97 105 100 95 96 87 89 84 77 68 57 69 68 56 52 53 44 50 50 48 46 42 44 44 40 32 37 28 35 39 44 38 38 43 39 40 48 52 53 56 44 48 45 33 25 26 39 35 26 28 30 30 26 26 22 28 29 33 28 26 34 30 22 36 49 44 59 55 43 41 47 38 48 33 34 35 32 38 33 29 31 39 30 37 43 41 37 47 50 57 59 88 96 89 93 103 99 96 95 90 85 69 68 67 58 51 57 56 49 47 54 54 39 45 47 42 41 40 35 43 36 29 27 31 33 55 70 61 55 61 43 38 31 34 35 22 32 38 40 32 30 28 34 27 28 27 31 24 21 33 27 25 26 35 24 26 54 52 48 44 35 34 38 40 38 29 32 37 32 34 36 30 31 39 38 39 42 33 39 39 50 59 62 73 75 82 88 91 98 99 92 97 83 72 72 68 66 71 69 69 68 66 67 62 60 52 51 54 46 52 44 40 34 33 29 29 40 55 53 39 39 42 31 36 32 35 27 43 57 43 32 33 31 30 34 26 31 31 25 31 24 31 26 24 23 34 26 31 44 51 56 38 38 22 34 37 31 28 26 34 32 30 31 36 31 40 34 38 32 36 34 39 50 58 57 61 59 71 76 80 79 84 90 77 77 79 80 85 82 86 87 89 84 81 83 70 63 47 54 60 56 52 46 35 40 34 37 30 43 41 33 28 35 43 39 42 48 38 30 58 62 33 33 33 31 34 31 35 40 32 29 28 26 18 36 30 20 28 35 36 42 45 51 33 36 29 27 34 32 28 30 25 30 32 32 36 37 31 31 34 28 33 40 35 44 48 42 45 47 54 58 55 60 77 83 79 76 82 76 80 84 72 73 77 72 78 71 78 72 65 75 60 56 42 44 38 36 41 42 26 34 41 28 28 46 50 45 55 51 36 32 68 50 32 40 41 34 37 38 43 42 37 41 31 25 24 30 28 31 23 31 42 47 49 47 25 28 32 29 31 33 29 26 23 35 32 37 34 32 25 27 36 28 32 34 39 39 46 38 37 42 52 58 59 53 60 71 73 72 72 75 70 75 75 81 88 87 93 94 95 87 67 61 54 53 39 44 35 36 43 40 29 49 42 40 50 52 47 57 62 54 45 52 68 49 45 43 52 45 47 48 58 52 50 48 36 27 30 28 31 29 34 30 40 62 50 58 22 27 30 31 29 32 25 26 25 33 36 37 32 29 24 35 38 30 31 37 39 39 36 36 36 45 53 56 59 63 63 64 73 68 66 70 62 63 67 84 86 81 88 85 74 66 57 52 43 46 45 37 38 52 47 41 46 55 45 58 62 56 63 72 63 78 60 69 69 54 58 57 55 65 55 67 67 65 61 43 44 34 30 32 37 33 37 37 39 68 54 46 31 29 30 29 28 30 26 27 33 30 37 30 31 29 29 30 30 30 36 35 38 34 31 40 34 43 45 41 42 43 60 57 64 63 67 73 71 78 79 82 81 88 85 77 76 62 52 47 40 53 62 48 58 48 47 50 67 60 60 70 68 79 91 75 79 99 82 80 81 70 66 77 73 77 77 79 73 78 75 56 48 44 34 37 38 44 36 40 45 67 61 43 35 27 20 36 36 27 30 28 29 26 35 28 27 29 27 32 30 29 39 34 31 36 31 33 33 37 35 36 42 35 49 53 57 61 61 68 78 77 78 76 76 80 77 74 71 66 63 55 45 65 75 67 55 44 63 71 67 76 89 72 78 101 95 94 105 107 100 101 100 86 90 92 94 94 95 95 89 75 80 79 60 51 40 36 41 43 46 43 56 67 60 49 31 34 21 34 35 25 27 28 31 26 35 29 26 25 27 28 27 29 35 36 32 31 36 36 34 37 38 41 40 51 47 45 39 37 48 51 48 48 47 44 41 54 49 51 54 58 63 62 68 83 65 58 71 82 93 76 84 91 81 72 96 99 99 115 108 112 114 110 107 104 110 115 110 112 104 94 96 83 80 73 71 56 39 40 43 51 51 48 65 62 60 40 38 32 25 33 29 28 31 27 28 33 31 28 29 26 25 33 24 31 30 33 29 35 35 40 38 39 39 42 45 57 51 45 41 43 48 51 44 40 43 36 35 38 34 38 38 54 63 65 77 72 73 86 99 93 92 85 81 80 79 96 106 105 100 113 118 126 122 116 118 123 126 129 123 123 116 103 96 93 78 67 65 58 37 42 47 55 50 52 69 61 53 47 50 33 31 32 28 29 36 30 26 31 30 25 32 25 28 31 27 30 32 34 30 35 35 40 34 38 39 48 49 53 51 50 56 59 66 65 58 53 53 51 46 42 39 45 44 53 52 67 74 74 82 84 82 79 78 81 86 90 102 114 112 100 110 123 132 138 130 132 128 130 128 131 131 130 124 113 104 95 88 66 53 54 38 43 49 59 53 56 73 51 47 64 56 43 35 29 29 32 34 29 26 33 28 29 31 28 27 30 28 30 34 32 32 36 35 40 45 40 55 55 63 64 64 67 68 76 71 80 78 67 76 69 61 50 51 49 46 50 52 66 65 67 62 72 73 77 91 100 106 116 120 125 115 112 125 136 136 145 135 136 133 136 133 132 139 136 124 115 107 101 94 73 42 54 46 44 50 51 52 59 69 44 36 68 57 52 37 32 25 36 31 31 29 33 27 28 29 33 28 27 28 36 34 29 31 40 45 44 53 54 59 54 64 73 75 82 76 72 75 79 80 80 82 73 73 76 68 58 48 57 52 58 63 66 77 93 94 101 119 123 128 129 131 124 125 129 146 144 140 145 140 137 137 138 137 134 144 132 130 112 109 103 94 75 54 51 50 50 41 53 51 59 55 40 29 85 57 49 37 34 21 36 31 32 31 33 26 30 33 26 27 26 30 33 33 34 35 46 47 55 64 74 80 76 62 64 73 77 73 69 68 73 68 76 78 79 81 83 81 81 71 73 73 80 89 99 120 121 120 122 134 138 138 139 135 130 138 141 149 143 140 144 142 135 138 144 139 137 140 135 129 124 110 108 91 75 62 48 43 44 30 46 48 46 45 31 40 87 62 51 35 33 29 27 30 30 34 30 27 31 30 26 25 30 26 29 38 36 40 54 60 66 74 78 84 89 88 70 64 68 68 65 68 68 66 74 78 78 78 88 87 95 84 90 100 104 115 130 144 135 127 136 143 142 144 144 138 137 147 146 151 145 142 142 144 135 140 143 141 135 134 135 128 122 112 105 92 79 65 42 42 34 27 43 35 36 38 26 57 99 54 46 27 31 36 32 24 29 31 33 28 30 29 28 24 28 26 32 38 45 56 68 81 98 91 89 85 83 81 77 69 61 60 56 55 59 63 67 67 75 77 82 82 95 103 98 109 127 134 140 143 140 138 143 149 148 151 147 147 148 153 147 152 149 145 148 144 139 131 143 139 140 136 131 130 125 113 102 94 89 68 46 32 36 26 33 40 37 36 31 69 110 40 41 26 31 32 32 29 28 27 32 31 30 33 28 28 26 27 29 52 49 77 90 101 111 113 110 111 104 94 91 80 78 68 64 56 56 65 69 69 82 89 89 89 101 102 118 134 140 145 144 142 140 147 153 155 152 151 154 152 154 158 153 151 150 147 147 144 146 136 136 142 141 134 132 129 129 113 101 101 97 70 57 36 31 28 35 35 33 48 33 72 104 51 29 23 30 32 32 30 30 26 29 24 41 32 32 21 33 29 46 54 66 82 102 114 112 121 129 125 124 123 121 113 119 110 111 102 85 87 89 97 92 97 88 104 112 123 140 146 145 145 148 146 147 148 157 155 155 149 153 158 153 153 154 155 151 151 152 143 145 143 143 138 140 135 131 130 127 117 103 102 99 94 63 39 34 27 36 33 32 41 53 88 105 47 33 28 21 35 32 30 31 27 27 24 32 39 35 32 39 48 56 58 78 94 103 113 118 122 131 125 124 131 132 124 127 127 135 135 126 119 107 113 110 115 118 132 136 146 146 149 145 148 147 152 149 150 156 155 152 155 151 153 156 151 154 154 150 153 155 150 147 148 146 136 142 136 133 129 125 117 104 103 100 104 85 45 27 34 35 29 34 27 68 104 102 40 34 27 27 33 33 29 26 28 27 21 28 36 34 50 55 59 64 73 92 103 108 115 122 129 125 128 131 135 137 132 135 136 137 140 144 145 136 144 149 150 144 147 151 153 151 150 149 150 147 151 151 151 153 155 148 149 155 152 156 152 153 161 153 153 154 150 150 146 148 139 141 135 136 130 123 123 108 99 104 103 103 71 24 24 34 36 26 26 87 109 101 34 31 27 30 31 32 28 30 30 27 23 30 40 50 57 71 64 73 85 96 107 115 115 125 129 130 135 143 146 149 148 151 154 147 151 155 150 152 156 159 156 153 152 157 153 152 151 151 154 150 150 154 150 153 154 151 148 150 156 158 156 159 157 155 153 152 149 150 147 145 144 139 140 131 133 125 130 107 101 102 100 98 94 40 22 29 43 25 24 101 101 100 34 23 34 30 29 31 32 30 24 28 32 32 49 66 61 76 77 74 99 115 121 126 132 135 141 142 149 154 153 160 163 163 166 166 167 167 167 169 166 163 160 165 153 160 158 156 157 155 153 157 153 153 156 154 155 154 150 156 156 158 155 156 148 152 154 143 149 150 146 143 140 140 139 139 126 125 123 118 106 102 98 96 104 62 26 25 39 24 33 87 105 101 42 25 28 32 30 30 28 28 26 31 27 46 72 83 73 75 78 89 110 128 134 134 141 136 145 148 150 158 160 161 159 162 161 161 163 167 167 167 172 167 168 171 168 164 165 163 169 163 161 162 161 156 159 157 156 154 152 160 161 154 152 153 145 150 151 144 139 149 144 140 139 138 140 133 123 120 117 119 109 96 102 95 106 78 31 24 39 28 30 90 104 99 63 29 24 33 31 27 32 27 30 32 31 65 94 97 86 76 87 106 117 128 138 136 143 139 142 147 152 153 158 159 156 154 161 163 163 161 164 162 164 169 166 170 165 164 165 163 170 168 165 163 161 160 158 158 155 154 151 154 152 146 152 150 141 145 150 140 136 138 141 133 127 123 130 125 117 110 108 101 106 102 96 97 102 92 47 27 32 25 32 101 99 93 68 41 21 29 29 30 31 26 36 27 47 79 104 104 92 87 97 108 116 129 136 135 143 141 141 145 148 148 153 156 148 150 155 159 157 155 153 158 156 159 158 158 158 164 160 160 165 166 165 164 164 161 164 159 154 156 142 151 144 141 145 145 135 142 137 131 123 121 121 116 106 111 112 109 108 102 97 94 93 101 96 93 104 96 61 32 28 23 31 99 105 87 75 46 29 30 28 32 34 32 32 30 67 92 102 115 96 99 107 112 118 132 141 130 137 129 130 124 127 125 134 149 136 131 139 142 146 141 144 150 146 148 149 149 150 151 151 158 161 158 163 161 164 159 164 152 148 147 131 134 128 132 131 119 117 111 107 102 95 86 91 91 84 84 89 94 87 85 88 89 81 86 93 90 101 100 78 40 22 31 25 106 101 93 65 70 53 36 26 30 39 30 30 37 78 97 102 113 105 102 106 112 117 125 123 120 121 103 113 107 105 107 106 117 110 107 116 116 122 124 127 127 133 130 133 133 140 137 142 148 150 151 156 155 163 151 150 150 141 135 126 113 117 116 102 90 86 72 74 73 67 65 77 75 76 73 87 95 82 82 87 85 80 85 83 88 97 104 89 60 19 28 47 105 96 90 80 112 121 66 25 31 32 33 25 49 85 103 104 110 115 100 104 110 105 100 99 103 99 93 108 108 102 102 97 82 91 84 71 80 83 84 90 91 93 97 110 118 120 120 127 137 135 142 144 145 151 148 134 135 128 115 117 99 94 103 76 66 63 62 66 59 62 73 76 78 84 86 93 99 98 102 100 93 93 87 81 89 96 99 98 71 20 34 89 105 91 89 109 112 129 90 39 27 32 32 29 55 90 106 105 108 116 107 103 102 94 85 93 94 89 83 96 102 90 90 92 85 78 75 64 60 60 61 64 67 63 69 91 99 101 109 115 127 129 128 134 139 135 135 129 127 118 102 104 99 81 87 67 67 63 63 71 68 77 90 96 98 99 104 104 104 109 112 107 101 99 88 88 91 99 97 106 74 35 38 103 116 87 88 88 94 136 89 72 43 31 33 31 59 95 105 106 107 113 109 104 89 85 91 98 95 94 105 96 103 109 98 97 92 88 87 85 77 68 60 57 60 64 61 68 69 90 91 106 114 114 118 122 126 126 130 117 117 112 94 88 88 77 75 72 61 64 62 50 47 60 85 63 75 83 92 91 94 102 103 104 104 102 99 97 100 109 97 107 89 45 52 104 106 91 84 95 33 115 124 91 56 33 33 33 74 96 109 108 104 115 118 109 89 75 88 98 95 95 103 103 110 111 114 110 103 99 96 80 63 75 62 50 60 67 65 65 68 79 88 94 99 105 105 116 123 127 121 116 112 106 92 83 86 77 69 57 44 69 90 49 40 22 82 22 21 33 71 54 44 54 73 88 102 107 110 106 107 111 96 106 89 54 76 102 100 91 79 129 36 17 109 115 85 48 26 37 82 107 112 110 104 114 127 112 98 94 91 96 103 103 92 85 76 73 66 56 43 29 43 29 34 94 111 61 43 49 44 66 70 71 76 76 87 103 109 137 144 153 135 131 117 105 99 92 85 85 43 84 101 87 124 75 66 39 37 35 39 49 116 73 52 39 41 51 82 105 112 111 112 111 102 102 92 58 99 114 106 87 75 149 79 30 59 116 94 54 27 43 94 109 112 105 107 115 126 114 110 106 103 106 99 87 56 42 36 52 65 49 40 25 36 36 60 128 140 90 71 67 43 52 78 69 81 75 86 117 134 155 152 153 141 131 127 105 106 95 88 90 67 80 92 83 98 93 76 83 73 62 60 79 107 90 82 81 75 77 84 91 98 111 111 117 112 104 92 54 101 122 99 90 69 160 96 81 93 87 83 55 37 54 101 109 114 107 109 116 125 119 117 110 106 98 90 64 52 67 64 75 95 76 72 62 77 85 75 110 110 96 85 88 102 95 108 82 75 73 95 120 143 164 167 159 147 151 134 112 108 102 106 120 110 110 102 102 110 109 121 123 112 114 93 103 120 119 121 116 111 112 120 116 114 124 121 120 117 106 82 78 118 118 108 84 79 155 110 113 121 93 86 66 37 69 101 109 108 112 110 127 130 125 125 111 104 90 95 88 96 103 110 109 109 104 97 93 104 120 117 124 123 106 99 107 109 110 118 99 68 87 94 129 146 164 167 165 160 158 138 108 111 110 108 127 116 113 109 110 115 120 133 134 122 126 118 120 128 127 122 119 112 113 126 126 128 121 122 123 117 102 80 113 131 129 104 87 74 145 115 130 117 87 64 77 51 69 95 105 110 112 119 133 134 142 149 139 136 132 129 122 120 122 130 136 131 125 121 124 125 143 135 129 121 105 100 99 112 111 114 101 87 99 102 127 148 158 165 165 161 157 139 114 111 118 113 129 125 123 114 110 106 114 113 112 118 125 123 126 126 121 123 115 118 122 130 127 126 128 123 124 123 106 71 133 139 134 106 87 68 147 120 134 114 79 50 66 62 79 95 97 107 113 125 135 136 142 146 149 151 151 143 136 132 113 115 119 124 122 123 123 119 127 120 114 105 106 105 112 114 117 116 101 112 113 110 125 148 154 165 160 160 157 143 116 107 125 122 124 129 132 133 126 112 107 105 99 103 108 110 109 116 110 116 114 123 123 125 127 128 124 120 124 121 113 74 126 129 129 115 81 69 127 126 145 109 81 66 47 57 84 89 103 98 121 126 137 146 140 147 156 161 163 156 156 154 143 129 116 110 114 109 111 111 110 119 123 133 132 129 131 134 139 129 122 122 120 113 130 141 156 161 165 161 152 151 128 106 125 131 125 128 136 141 144 137 140 139 136 131 125 122 123 127 131 138 136 136 140 127 126 127 129 122 121 124 113 82 111 123 129 107 86 66 139 125 144 115 92 68 55 63 86 88 95 103 117 130 134 148 139 148 152 157 157 157 156 161 155 157 151 149 144 146 151 144 144 150 155 149 150 149 153 150 142 135 133 124 120 121 127 140 155 156 164 158 143 150 139 111 123 125 133 128 133 144 148 143 145 151 156 144 144 139 135 154 148 155 143 142 145 144 132 133 134 123 118 124 114 82 119 132 114 113 82 75 144 124 153 120 101 89 78 102 98 77 90 107 120 132 136 144 146 150 153 154 160 165 163 162 170 169 172 172 170 168 167 163 163 160 162 160 166 164 160 159 141 133 132 129 130 126 130 144 154 156 165 159 150 150 146 124 123 126 129 130 135 148 151 154 158 157 164 160 157 153 150 159 156 156 148 148 152 149 143 136 139 123 116 119 111 85 118 128 115 105 76 82 140 127 152 129 107 92 106 120 105 73 85 101 126 128 138 138 143 149 155 153 165 168 165 170 170 168 173 170 168 164 168 163 161 169 170 168 167 163 160 154 134 129 131 128 134 126 131 146 150 160 163 157 156 152 146 128 130 132 131 135 133 142 148 154 154 159 166 163 164 158 160 159 163 159 148 147 148 151 145 139 133 126 118 120 106 85 126 125 124 93 74 78 138 132 134 148 121 90 110 126 109 71 81 102 118 129 132 138 134 142 151 150 156 165 167 172 173 170 175 169 163 163 166 170 171 174 176 172 165 160 154 147 137 131 138 136 131 131 136 144 147 157 161 159 153 155 146 132 131 137 132 131 133 150 147 147 152 152 158 163 162 162 167 166 163 157 156 153 154 149 143 138 136 125 116 124 107 82 142 134 116 92 71 80 92 150 130 141 133 96 105 121 110 72 74 99 120 119 131 132 133 136 149 146 148 148 162 166 172 175 170 169 175 174 175 176 176 177 172 171 165 161 156 146 143 134 132 138 137 119 131 144 144 159 153 158 152 154 148 140 132 128 139 136 127 133 155 155 147 155 153 157 166 157 164 170 160 163 163 158 155 151 153 141 141 131 124 117 108 78 154 139 118 80 72 74 67 144 142 133 135 120 108 114 111 74 69 97 114 119 123 127 129 134 148 141 140 150 149 164 162 165 176 176 181 183 172 178 179 180 177 177 161 156 157 147 136 121 135 145 127 119 130 135 147 157 163 158 152 153 147 143 133 120 140 138 136 120 127 146 147 154 151 151 163 159 158 162 156 160 162 156 154 149 153 147 141 129 120 120 105 79 145 144 111 79 77 77 53 121 148 132 127 133 133 110 116 72 72 95 105 117 123 128 126 138 147 140 138 154 147 159 166 166 175 179 184 175 176 179 174 173 172 167 161 158 151 127 125 132 135 140 129 117 128 137 141 151 161 160 149 152 150 137 140 121 133 142 147 137 122 116 136 147 152 150 160 158 157 160 161 154 157 156 150 147 146 142 142 125 118 118 99 88 137 142 98 83 75 83 30 89 144 134 123 133 154 121 102 89 67 92 110 110 119 126 129 132 141 138 143 152 150 153 163 162 165 177 185 172 172 179 170 166 164 160 158 153 129 110 128 142 146 143 130 124 132 132 128 144 154 160 153 150 150 143 140 135 128 138 149 145 130 118 119 136 140 141 148 153 153 156 158 150 156 154 145 142 141 138 137 130 118 112 98 91 132 122 99 66 82 81 54 57 126 128 125 138 144 137 107 90 67 88 105 108 115 116 124 126 130 137 144 146 149 150 151 163 156 164 179 166 165 175 165 156 159 158 147 135 109 113 129 143 144 133 133 136 137 133 136 155 168 163 166 154 155 150 142 141 133 136 143 148 135 120 125 125 128 133 141 153 149 153 151 149 150 148 142 135 133 137 131 127 113 113 97 97 127 109 76 78 78 81 64 44 84 124 121 145 139 132 130 101 67 77 104 109 116 111 116 122 133 136 138 146 141 151 153 158 155 157 168 161 158 164 159 151 151 142 130 125 101 118 130 138 138 134 136 138 134 141 154 165 170 166 172 155 159 163 144 135 128 131 135 135 131 113 129 132 119 123 131 138 140 142 144 147 147 138 135 134 134 131 128 119 115 108 104 93 119 86 71 84 80 83 65 60 43 113 118 139 139 124 118 106 77 74 101 113 114 109 117 117 131 132 138 139 137 148 149 145 153 154 152 150 155 152 155 147 140 126 132 133 98 115 122 134 127 127 131 127 117 126 139 143 155 152 153 141 144 148 125 116 121 120 121 117 113 102 122 137 124 113 120 129 130 132 137 144 136 128 128 133 127 125 125 115 111 108 105 94 103 73 78 82 81 81 68 67 50 68 107 129 132 122 118 113 79 73 95 108 109 118 116 110 121 128 137 135 139 137 145 143 144 150 148 145 143 142 141 137 128 123 137 143 108 100 105 114 117 120 112 116 105 111 112 126 138 129 127 127 121 125 109 102 105 95 89 89 91 103 121 131 132 113 115 114 126 128 127 128 125 125 127 127 125 118 119 111 107 108 104 98 65 82 81 80 82 77 63 68 58 58 78 117 125 118 119 121 85 68 92 101 109 112 109 110 116 127 128 133 136 137 141 141 140 145 140 141 143 139 137 131 129 127 145 142 121 98 81 86 85 84 83 92 94 92 94 102 117 115 114 109 101 98 83 73 64 53 49 71 93 114 118 122 132 129 111 113 119 120 122 120 117 118 119 123 117 113 111 108 105 102 107 89 67 78 78 84 77 83 64 64 62 62 59 77 113 112 114 118 91 71 84 96 107 112 108 111 114 123 124 126 132 131 133 134 134 135 130 128 139 140 135 129 132 141 142 144 136 117 73 54 43 36 39 40 50 54 61 79 97 93 91 88 73 57 51 58 69 84 93 100 109 113 114 120 125 129 120 106 114 118 121 115 115 114 117 112 116 110 108 105 108 102 102 87 65 81 78 80 76 84 64 63 65 64 63 57 79 92 97 103 87 73 80 95 102 112 104 108 112 119 119 122 125 125 128 125 131 129 125 127 132 133 134 132 141 145 148 145 147 144 115 91 82 74 65 62 65 55 43 45 64 63 68 71 71 79 93 105 106 108 114 105 109 118 116 115 119 120 119 111 107 117 122 116 113 115 112 114 110 110 108 105 106 103 101 81 74 78 81 80 79 79 62 67 61 66 65 66 63 66 72 77 77 72 86 89 102 109 107 104 108 113 120 119 117 115 124 119 118 125 125 132 134 132 136 135 139 147 149 150 145 144 141 119 107 106 98 96 109 107 92 80 69 66 86 98 115 116 115 124 119 112 116 111 110 118 118 111 114 110 120 115 111 114 117 125 117 115 116 113 114 111 104 107 107 105 98 69 84 74 80 77 80 84 61 64 66 64 65 67 69 59 65 63 62 81 78 90 91 113 104 106 108 110 116 115 117 113 113 121 115 120 124 131 139 141 137 133 143 145 148 146 145 140 140 133 129 125 119 112 114 126 123 118 113 100 122 127 124 126 128 125 119 115 117 112 112 115 117 116 110 108 121 124 120 120 124 126 125 120 117 113 117 110 112 105 112 101 95 74 75 79 80 79 77 84 66 62 65 63 65 64 67 64 68 65 57 78 77 83 95 111 107 108 104 100 111 114 116 115 115 117 122 120 127 131 144 141 131 131 139 144 146 137 146 143 139 136 134 135 139 133 130 132 128 131 121 113 128 133 132 133 131 131 120 124 122 113 111 117 114 117 112 110 118 130 129 129 134 135 131 132 125 117 119 111 115 113 111 103 95 66 81 77 85 77 79 74 67 65 61 65 67 65 63 67 64 66 57 74 81 86 94 105 110 107 109 93 106 119 122 122 123 121 120 132 137 135 139 146 128 130 140 141 138 132 140 143 137 132 136 145 140 147 144 148 140 137 130 121 134 131 130 140 129 131 127 122 122 119 114 109 116 117 115 109 116 126 128 138 143 141 137 133 130 121 114 114 118 115 108 105 91 68 81 76 83 81 78 81 66 63 63 65 63 66 69 62 66 64 57 79 74 90 90 105 110 113 114 110 112 119 129 132 128 132 127 134 136 135 137 139 136 127 136 140 133 131 130 135 135 133 139 151 148 150 149 162 162 153 134 131 128 130 136 138 138 134 139 124 119 123 117 108 111 117 110 107 109 119 120 135 144 135 146 136 128 121 114 114 122 113 109 101 81 74 80 80 77 81 81 81 63 62 63 67 64 66 67 65 65 68 62 65 81 83 93 99 112 114 112 117 116 126 131 137 140 140 139 130 129 132 137 129 133 125 127 137 135 127 124 131 127 128 144 146 154 157 152 165 169 166 151 137 126 123 134 131 139 122 131 130 116 121 119 110 103 110 108 106 113 120 125 132 137 132 151 139 123 122 112 118 119 113 108 93 78 71 82 82 72 81 78 79 65 63 60 68 65 66 61 67 66 68 62 68 75 81 91 102 112 117 112 117 124 125 136 141 145 147 139 133 131 128 135 128 126 120 125 120 131 119 121 130 130 130 135 142 152 143 145 151 152 153 148 143 143 128 125 111 104 104 110 105 107 105 114 111 96 103 109 109 114 126 128 129 130 136 152 135 121 118 109 120 118 116 100 89 73 76 82 83 78 80 81 79 64 63 62 67 67 61 65 64 65 70 59 67 72 83 88 98 111 117 119 114 119 127 134 145 147 153 142 134 130 135 131 128 123 119 122 122 124 122 116 121 125 120 120 117 115 100 100 100 99 98 96 89 97 92 90 87 61 79 90 67 71 83 79 79 71 75 84 93 112 126 131 133 127 137 148 130 121 109 113 117 118 114 95 79 74 75 83 81 81 80 83 76 62 66 65 64 67 63 69 65 61 67 68 59 71 78 93 92 105 115 121 119 117 122 132 142 148 156 152 134 126 133 133 127 125 125 122 116 117 115 101 99 93 82 75 77 94 76 61 95 100 102 92 56 93 123 135 132 61 114 145 85 87 116 97 62 32 14 25 81 110 117 128 131 127 139 147 123 114 108 116 121 108 108 93 78 73 80 79 82 77 80 79 73 62 63 63 64 63 65 65 67 65 66 66 62 61 82 79 98 102 111 123 116 111 119 133 141 145 157 157 136 128 135 130 128 120 120 110 94 78 73 60 66 84 84 80 100 143 139 92 140 154 161 152 75 141 172 172 168 110 176 171 120 132 136 132 96 47 17 67 109 113 118 130 129 122 147 146 120 107 112 116 118 109 105 87 74 76 79 75 80 77 79 81 74 66 63 66 67 59 66 65 65 68 62 67 61 63 74 75 95 100 110 120 117 115 114 125 136 141 148 157 148 130 132 136 130 120 111 98 53 12 43 36 64 114 124 97 123 154 158 118 153 172 175 173 65 151 180 176 174 131 165 173 128 133 129 104 90 60 73 103 128 121 117 127 125 128 147 134 116 105 112 118 115 104 99 83 70 77 80 74 80 81 75 79 79 65 63 65 65 64 66 64 65 69 63 65 63 66 68 81 83 97 103 117 115 116 119 122 127 141 145 158 154 142 131 135 136 121 117 118 85 39 49 52 37 106 114 56 104 139 143 94 148 172 169 178 46 139 171 156 159 113 107 142 95 100 109 81 80 89 103 115 127 134 126 122 128 135 147 127 111 106 112 115 114 100 91 77 72 77 77 82 77 78 80 77 81 62 67 59 65 65 64 63 65 66 65 67 68 60 69 70 90 92 99 107 115 113 113 118 121 131 140 156 151 143 138 133 133 130 129 135 134 111 91 92 82 79 98 81 89 72 93 91 108 112 124 136 79 123 133 108 118 117 79 90 82 97 97 95 94 111 114 120 133 140 134 127 127 141 138 127 104 105 116 114 108 99 83 73 73 80 78 80 76 82 80 76 79 59 68 60 65 65 64 67 64 66 64 64 66 66 61 75 75 92 93 104 109 111 114 111 119 127 129 145 157 151 143 135 136 127 136 137 138 144 122 108 109 106 118 125 117 109 111 119 106 105 110 111 102 121 122 109 119 108 105 107 106 113 108 104 104 117 123 125 132 141 134 124 130 138 140 113 102 111 119 111 103 89 74 79 76 77 78 80 80 78 79 77 85 61 64 64 64 63 66 64 65 66 64 67 64 70 64 64 79 84 99 94 104 111 111 105 116 122 128 141 146 149 147 136 134 136 139 132 136 142 139 124 111 114 121 133 125 131 151 152 132 135 126 120 119 130 138 141 142 142 135 138 121 112 109 113 106 114 121 129 134 134 128 119 134 140 135 105 103 117 117 106 106 76 74 74 82 78 79 80 77 78 79 78 82 63 65 61 64 63 68 65 61 70 65 70 64 67 68 59 74 76 87 94 105 110 113 108 119 110 119 136 142 147 145 140 134 142 147 138 124 136 136 124 116 129 113 127 122 121 127 149 151 149 144 139 136 139 143 150 150 135 137 132 123 114 122 114 99 116 123 131 133 130 120 120 134 141 120 103 110 117 112 106 93 72 76 75 79 80 78 80 78 77 77 80 76 66 64 62 65 63 66 63 63 68 63 68 66 66 63 64 65 81 76 89 100 109 113 112 113 109 118 129 140 144 141 144 139 142 148 141 129 127 128 131 121 127 122 125 123 125 120 135 141 144 144 149 138 135 142 138 141 133 125 122 122 120 126 116 105 114 128 130 128 123 114 119 135 128 112 105 110 117 106 101 77 70 79 77 79 79 79 80 80 76 78 79 74 65 64 60 65 62 66 62 65 68 63 65 65 65 67 55 79 86 77 79 89 102 109 105 116 110 108 126 130 141 144 137 142 142 143 136 134 131 122 129 122 126 127 127 127 122 127 134 133 136 133 137 134 133 130 131 127 127 124 124 124 122 125 118 113 115 123 130 126 119 114 127 128 122 104 110 112 115 97 91 72 72 80 74 79 81 75 80 77 79 78 77 75 65 62 65 60 62 67 64 65 65 64 67 62 69 68 63 74 97 79 78 84 100 104 106 115 118 110 117 126 132 147 140 137 142 139 140 131 132 126 123 120 129 123 127 127 118 124 132 127 122 128 121 124 126 123 123 125 129 129 121 120 122 116 115 110 123 121 127 126 116 122 132 127 111 105 113 114 105 95 76 73 79 76 75 81 80 75 76 79 76 81 77 79 66 62 67 65 63 66 63 63 66 67 66 66 64 64 79 82 93 83 80 73 94 100 105 107 114 118 114 117 129 129 142 139 136 134 143 138 131 125 123 120 123 124 124 123 115 124 124 124 124 125 128 129 127 122 120 125 127 122 120 116 122 117 113 117 118 116 127 123 119 121 127 120 107 111 108 106 97 83 68 78 73 78 80 77 74 77 75 77 79 79 78 76 64 64 65 64 64 66 61 67 66 62 65 62 72 102 129 107 80 93 75 75 82 92 99 109 111 112 117 115 128 126 133 136 136 129 135 141 135 127 119 117 121 120 125 119 122 124 126 124 120 121 126 124 125 120 119 124 121 122 123 121 119 115 115 123 122 119 127 123 125 122 121 116 104 107 110 96 88 66 76 76 77 76 74 81 76 77 79 78 79 76 76 77 62 65 65 65 61 64 67 66 61 61 65 97 142 136 124 98 81 99 86 74 78 84 91 106 107 113 115 117 117 131 132 133 135 134 128 135 138 133 131 118 119 118 127 123 128 135 129 127 119 121 121 124 119 120 124 128 116 124 124 127 116 115 123 123 123 127 128 126 124 116 120 108 103 106 95 97 73 72 74 76 76 75 73 82 80 77 77 77 77 73 78 77 63 63 68 62 61 67 65 64 57 70 126 162 136 108 143 122 75 90 96 76 72 81 85 99 96 108 112 112 114 121 133 130 129 135 131 135 142 142 132 126 121 123 126 126 126 135 132 131 129 129 132 131 125 125 126 132 118 117 124 125 116 124 123 124 127 137 132 126 121 115 116 101 107 104 75 113 126 81 70 75 78 73 77 80 77 75 78 78 74 76 77 76 66 66 62 65 62 68 60 51 76 152 162 135 124 156 169 116 76 90 93 92 75 67 82 89 94 104 103 109 112 114 126 130 129 128 136 132 144 147 141 129 135 131 133 127 129 128 138 141 146 150 147 150 144 150 144 140 139 130 128 132 134 137 122 114 135 141 134 119 119 112 107 100 103 92 74 103 153 166 108 68 73 78 78 73 79 72 77 76 75 74 80 75 62 66 66 65 62 64 47 68 160 173 133 121 173 167 143 99 81 94 92 95 89 70 63 89 84 96 97 102 102 110 120 126 129 128 129 133 142 142 144 143 143 140 140 141 136 131 146 152 155 148 152 158 154 160 147 144 146 144 139 140 143 142 126 108 141 140 132 115 108 109 103 98 94 72 89 109 128 159 176 121 51 74 78 76 77 73 78 76 79 76 78 78 63 68 62 65 65 42 71 166 195 137 130 175 174 142 102 87 84 97 97 95 93 82 70 68 80 89 91 95 97 97 109 115 112 120 128 126 135 141 140 149 146 143 145 148 142 147 148 151 158 150 158 154 153 153 150 147 146 141 131 134 138 144 134 129 137 138 126 109 106 98 96 85 94 63 108 158 131 118 167 192 111 59 75 74 78 77 77 75 79 75 78 76 67 64 63 61 49 41 155 210 183 115 167 192 163 107 66 90 92 97 102 96 89 91 83 69 72 82 88 88 90 95 99 109 107 114 131 119 137 142 137 142 145 138 143 150 142 149 153 153 156 152 163 156 156 149 151 148 143 139 129 133 132 138 136 135 133 129 118 108 96 92 81 89 102 73 104 177 170 105 144 174 182 100 57 74 75 84 74 80 73 75 81 76 62 67 66 51 32 117 215 204 154 144 195 191 143 75 48 104 96 100 98 98 92 92 87 74 72 74 78 86 87 90 82 96 99 110 118 115 125 135 136 136 130 136 139 142 145 144 151 150 146 156 146 153 151 148 142 147 146 137 130 135 136 132 136 129 127 120 112 95 90 87 78 97 110 77 102 156 199 155 118 151 182 180 82 58 79 77 77 77 78 78 73 77 64 66 73 23 67 193 213 187 132 191 204 183 119 62 53 104 100 100 100 99 99 92 87 84 73 70 76 72 80 86 81 84 93 91 104 107 117 122 131 134 125 135 134 131 140 144 147 144 139 150 144 147 143 143 141 137 139 136 129 136 129 134 122 119 117 115 100 84 85 91 89 103 105 87 99 145 188 192 120 137 169 193 151 46 72 74 77 78 78 75 76 77 70 69 52 26 138 220 210 163 143 209 213 185 91 45 54 113 106 105 101 101 102 97 90 87 72 71 75 77 73 79 87 84 85 85 86 92 105 117 118 120 126 133 133 126 135 137 138 138 138 140 142 142 142 142 141 134 133 136 133 119 116 122 113 104 106 105 84 74 90 99 99 96 104 94 86 128 171 210 151 111 161 178 197 89 53 74 77 76 76 76 73 85 64 72 42 45 187 216 209 144 162 214 217 182 78 21 58 123 112 112 98 103 101 98 96 89 78 73 73 73 80 71 74 84 92 81 82 74 90 103 105 110 109 124 122 121 129 136 135 135 130 131 130 134 135 134 135 132 133 129 123 116 116 111 103 105 97 89 79 83 96 101 108 99 100 112 54 106 163 203 183 91 156 176 194 151 48 73 73 75 77 75 75 75 70 69 18 100 214 214 203 143 184 212 219 183 67 13 100 121 113 115 114 104 107 107 102 91 88 79 69 74 76 74 73 75 84 83 88 85 83 83 87 95 98 105 115 115 116 125 123 129 122 127 129 126 125 123 124 127 125 115 118 112 105 102 95 97 85 86 89 107 109 100 113 103 102 124 30 72 150 192 207 97 128 169 180 182 76 59 78 74 74 80 73 76 66 66 14 151 217 211 199 146 197 208 225 186 31 39 122 116 115 109 120 119 111 110 106 101 97 84 77 70 70 72 75 78 78 77 84 88 83 87 85 85 87 90 98 107 106 109 118 116 116 113 119 121 116 114 117 118 110 112 108 101 95 94 86 79 83 96 105 116 112 104 107 104 109 126 22 54 141 188 215 116 104 163 180 191 96 48 78 79 72 76 75 76 68 46 28 178 217 206 204 151 198 209 225 163 8 79 129 116 116 114 112 127 122 110 111 111 102 96 86 78 70 67 74 71 76 75 75 82 87 87 86 89 85 83 88 92 94 100 99 110 104 107 106 106 104 102 104 106 97 103 103 96 83 79 77 85 99 109 120 113 109 108 108 102 116 130 18 42 139 183 217 161 76 153 180 196 114 40 80 76 77 72 78 72 67 40 58 194 210 209 203 157 198 208 229 156 23 108 126 117 117 117 112 121 127 122 116 111 109 102 93 86 78 65 68 70 73 76 73 81 82 84 88 87 86 90 86 87 89 97 90 99 100 96 97 100 96 95 100 93 91 95 86 81 76 79 89 94 111 119 119 114 112 114 109 103 116 135 19 34 139 185 210 187 69 137 174 201 126 41 84 76 73 79 74 74 61 37 117 182 206 203 207 168 188 211 225 165 33 122 122 122 121 122 119 119 126 129 132 116 113 109 105 100 88 79 73 71 69 71 76 75 72 79 78 87 86 87 90 94 88 87 90 86 96 86 92 90 85 91 89 87 83 83 77 84 79 89 100 115 119 116 118 116 118 113 103 115 114 132 31 42 148 187 207 193 65 128 182 196 133 41 81 73 77 71 79 68 78 85 161 168 201 207 204 172 183 211 224 168 41 114 125 125 122 120 123 115 124 124 131 128 122 117 111 107 98 89 81 77 67 70 76 75 66 75 74 78 81 84 84 89 89 89 91 87 91 87 87 86 83 87 85 78 79 77 84 88 88 98 112 119 121 118 120 118 118 113 117 115 114 124 21 54 161 186 206 187 79 143 187 192 140 54 74 73 79 76 72 79 144 155 180 159 192 208 207 182 179 205 230 206 46 108 128 128 123 121 122 119 126 128 130 129 129 131 120 110 108 94 93 84 84 73 67 70 70 70 66 72 69 70 76 73 78 82 76 86 84 84 81 79 78 71 74 78 80 80 88 99 95 114 113 125 124 122 118 121 117 120 114 115 120 114 6 82 176 195 203 157 97 163 191 182 155 135 103 79 75 72 77 75 171 167 186 160 180 211 206 192 177 200 225 226 64 102 128 125 125 123 122 124 122 128 131 131 131 132 130 124 114 105 101 92 87 82 74 70 69 76 63 69 66 64 66 66 65 72 67 69 68 72 67 69 68 74 79 80 85 89 96 100 108 114 118 122 121 126 126 123 120 117 113 118 117 93 18 124 187 199 202 117 117 175 191 176 147 153 158 145 96 81 105 87 