P2
92
112
255
98 94 100 97 96 104 98 97 99 88 83 77 66 54 45 45 49 45 42 43 43 63 79 79 64 43 44 49 54 60 72 81 70 63 57 61 67 69 72 66 63 60 53 51 44 44 38 39 37 33 36 26 31 29 33 38 46 42 42 33 34 31 28 36 37 37 40 39 44 45 44 36 49 53 44 45 49 58 53 44 44 45 60 80 101 98 105 102 102 102 98 102 94 97 99 97 97 99 96 99 89 86 76 67 53 47 42 49 54 51 38 42 44 60 71 65 56 47 58 58 61 63 68 67 54 50 53 73 85 83 82 73 72 71 63 56 48 49 42 52 49 48 45 39 38 32 35 38 39 37 42 38 30 29 28 34 31 36 38 42 37 41 50 44 44 49 50 42 47 54 56 46 43 44 38 56 75 93 102 103 105 98 102 104 94 97 97 99 99 98 98 94 82 80 64 54 43 41 53 65 59 48 42 48 56 51 54 49 61 72 72 81 83 72 62 49 42 45 48 71 75 68 61 59 60 73 74 67 64 63 57 55 56 50 51 52 50 43 40 38 37 33 35 35 30 30 31 31 37 34 36 34 37 37 49 52 46 39 44 43 51 48 53 52 49 40 38 53 58 69 95 98 102 100 103 100 100 97 100 98 99 97 96 88 88 65 44 47 55 62 76 73 57 46 58 59 50 33 46 56 77 80 82 84 84 63 52 45 46 46 43 50 42 47 55 65 80 79 76 76 71 72 62 56 55 51 54 51 50 38 38 37 36 40 36 34 28 26 30 28 33 38 35 35 37 32 40 51 46 34 37 42 46 48 43 48 50 40 29 48 55 56 78 95 102 101 101 100 101 97 98 102 94 101 86 93 74 49 54 55 65 86 82 64 48 54 60 55 44 41 72 87 85 85 79 80 76 66 58 67 62 59 59 52 56 55 63 68 74 73 73 77 70 73 68 61 57 49 38 40 36 32 29 35 36 42 37 34 31 27 25 26 28 34 35 32 29 30 32 44 45 41 30 36 43 46 44 41 49 48 27 37 54 62 54 86 101 102 99 103 92 97 95 98 89 89 84 67 62 55 67 71 77 85 77 47 49 58 52 42 55 78 92 89 80 72 63 68 87 96 108 96 86 83 82 80 72 64 58 67 71 74 77 75 80 80 79 71 65 60 54 44 36 34 31 34 37 38 34 35 32 26 18 29 31 35 32 31 24 29 30 37 40 35 35 32 41 48 44 42 43 48 36 36 42 54 49 61 91 104 103 103 95 96 96 96 85 76 63 61 68 69 75 74 83 76 61 44 49 53 51 52 75 89 84 74 74 70 71 79 95 97 102 97 93 90 88 82 70 68 66 64 62 63 62 68 69 70 72 66 61 59 57 53 44 47 36 35 35 34 32 31 37 33 26 31 33 33 28 32 30 25 33 35 33 25 36 41 36 44 43 43 40 43 49 34 43 47 38 52 70 93 105 101 96 98 96 86 74 66 69 83 74 82 84 81 70 62 50 46 52 61 63 80 91 94 94 90 85 86 83 85 87 98 95 93 85 87 85 78 69 70 69 66 58 56 54 57 53 56 55 61 60 63 67 56 58 53 46 46 38 38 35 37 39 42 32 32 32 31 31 30 32 26 31 31 25 31 36 41 41 40 39 38 38 44 42 48 38 52 38 32 50 71 85 103 99 96 91 76 73 80 83 72 76 92 90 78 57 45 48 63 68 64 84 89 95 95 94 91 92 96 96 92 93 95 92 87 80 84 83 81 81 84 79 82 73 68 60 58 60 55 59 63 70 66 64 56 52 46 46 45 51 46 35 37 37 37 36 34 31 33 31 31 24 28 29 22 21 31 36 39 40 43 36 36 42 40 53 37 39 50 43 31 42 61 55 86 98 100 83 78 75 82 64 68 84 90 84 63 40 55 75 81 81 76 86 95 95 95 90 83 93 98 97 91 87 94 92 85 79 78 82 76 86 84 90 80 83 68 62 62 60 70 67 70 73 65 69 60 62 46 47 48 50 46 43 40 37 35 37 32 34 31 32 30 27 22 23 21 24 29 34 43 39 43 38 29 40 47 48 41 33 47 54 35 43 59 53 55 93 88 83 82 78 65 68 80 86 84 62 48 56 66 80 78 68 73 90 93 83 82 86 90 92 93 99 99 98 96 92 79 77 69 79 76 79 88 94 88 85 89 79 70 70 78 77 79 76 69 67 61 59 61 59 50 46 48 53 43 37 41 32 34 36 28 28 31 24 23 19 20 25 29 36 37 36 37 32 28 36 44 49 44 41 37 56 47 39 67 56 44 93 82 84 73 71 72 74 80 83 67 50 54 66 69 64 76 73 72 73 66 58 66 73 74 86 96 107 109 107 96 91 79 82 81 81 77 78 81 81 81 76 81 76 75 73 73 73 72 74 77 79 77 73 70 74 72 65 57 51 48 48 48 44 38 34 29 32 30 28 26 22 21 27 30 35 39 34 35 27 25 32 40 47 41 37 41 50 53 40 59 66 47 93 79 73 73 73 81 76 73 70 54 51 65 56 58 61 70 65 52 43 50 49 50 61 71 76 79 86 92 92 92 93 89 82 82 83 88 86 85 86 75 79 72 69 76 69 70 62 55 56 61 65 68 65 60 58 65 68 69 65 55 50 49 48 45 36 35 36 34 31 33 26 30 32 27 38 34 31 28 26 25 25 28 46 38 31 39 50 54 37 40 71 57 81 69 72 69 84 79 71 74 57 52 55 56 54 61 57 56 52 44 45 55 50 52 56 67 66 66 65 84 86 87 88 81 75 76 75 80 81 83 82 78 84 75 75 71 68 69 67 61 66 60 64 59 61 60 56 54 49 52 52 52 45 40 43 41 34 34 36 33 33 34 26 24 29 26 33 33 28 27 25 26 26 27 38 35 34 39 50 51 42 24 52 70 76 61 65 80 80 72 71 70 63 53 62 55 47 51 54 49 41 42 54 48 52 62 58 61 55 56 62 69 74 75 83 79 81 72 77 80 87 83 88 83 87 82 70 67 67 59 60 66 65 61 65 57 52 52 57 60 54 49 49 47 40 34 38 37 37 34 28 33 30 26 28 23 27 26 23 28 26 27 26 29 30 25 33 29 32 41 46 48 39 26 38 63 65 64 67 74 65 67 71 66 66 68 65 46 37 38 49 42 46 50 52 44 56 58 57 52 55 56 62 67 66 65 69 74 82 77 85 88 94 95 96 86 82 78 77 69 73 67 66 68 69 74 74 69 61 63 58 64 66 63 61 54 47 44 37 44 37 41 34 34 30 35 31 25 27 23 21 21 27 25 27 27 27 30 28 27 29 37 50 44 38 30 36 55 68 61 61 62 57 69 70 57 67 67 51 39 37 42 39 48 48 49 52 48 60 52 63 56 67 76 71 72 70 70 71 76 78 75 83 84 96 90 94 91 84 89 76 70 65 65 66 70 69 69 69 65 67 64 58 57 48 55 62 68 56 53 46 39 39 37 35 39 32 35 31 34 28 30 24 20 28 22 23 25 30 25 30 20 26 35 44 45 35 26 38 47 71 57 49 53 63 71 53 54 52 46 42 36 40 41 42 45 45 45 52 59 60 56 50 55 58 66 74 79 76 84 86 84 78 69 68 62 74 74 78 74 76 70 72 77 67 70 66 65 76 81 82 81 74 68 65 63 54 49 40 42 40 44 44 45 43 43 38 44 42 39 36 32 31 34 38 31 25 28 25 30 28 31 26 26 24 33 38 36 36 29 35 49 66 50 44 51 61 61 53 44 48 43 46 38 38 38 44 39 35 44 55 55 49 46 48 44 52 58 62 69 75 71 73 69 64 60 65 66 74 79 89 92 88 85 79 77 72 66 63 67 67 70 68 78 82 74 66 64 66 61 58 52 47 39 39 36 40 34 35 34 36 43 40 36 36 25 42 40 31 32 31 28 33 30 30 21 27 31 37 34 31 27 34 45 58 37 41 56 54 47 53 41 46 48 41 35 38 37 37 33 36 40 45 41 41 41 37 40 44 55 57 66 68 69 62 58 55 55 49 48 55 62 66 64 69 72 76 78 76 77 71 73 66 60 64 68 63 65 61 64 63 63 61 57 50 50 49 48 54 56 48 45 33 37 39 39 37 36 39 40 44 42 32 29 29 30 27 20 24 30 34 32 31 20 33 36 51 36 35 48 47 43 42 42 41 39 32 35 33 38 35 34 36 32 36 35 43 42 46 45 53 56 66 79 85 85 81 68 58 52 48 50 55 56 47 51 53 64 68 70 71 76 76 75 70 70 66 68 67 59 64 59 68 61 63 58 52 55 41 47 51 47 48 46 44 43 45 41 37 44 41 37 36 40 36 32 27 23 24 23 24 26 32 25 27 23 31 33 50 35 32 40 40 35 34 39 32 31 34 38 31 37 27 31 36 31 38 43 40 42 48 51 65 71 92 97 100 95 90 78 73 71 65 53 56 49 48 48 43 49 42 46 40 57 71 75 83 86 88 85 84 67 74 69 77 75 66 66 58 59 49 49 45 40 40 40 36 33 32 32 27 30 39 38 35 40 37 32 38 27 20 25 22 25 26 29 23 27 31 29 49 36 30 34 34 23 35 37 31 27 26 34 34 34 27 36 38 40 38 36 37 44 47 52 69 85 91 90 92 101 103 100 91 85 77 67 69 69 57 58 52 48 40 45 43 44 49 49 53 63 64 67 72 67 66 69 80 85 75 73 65 59 55 49 50 43 39 39 40 33 32 25 23 21 24 30 33 27 37 36 35 34 23 28 22 25 28 24 18 29 31 31 53 37 34 25 32 32 31 30 34 29 24 34 30 32 33 36 39 39 33 33 37 41 48 58 65 70 83 87 93 100 98 98 94 88 81 75 71 64 56 55 55 57 52 55 50 51 51 52 43 41 36 42 37 44 46 54 61 73 74 77 73 69 58 56 56 46 51 54 50 48 45 52 45 36 36 33 30 26 25 33 40 39 31 21 23 19 29 26 21 28 33 25 63 51 28 26 29 28 36 32 30 27 26 30 30 34 37 32 29 32 35 33 39 39 54 54 56 60 73 75 84 91 88 94 88 85 78 75 69 68 66 64 65 60 56 58 55 51 50 44 47 45 40 38 35 36 37 28 38 38 42 47 49 49 46 54 56 53 50 57 57 44 46 46 43 44 32 40 33 28 26 25 27 38 37 31 20 21 29 30 27 29 26 34 70 54 36 23 30 30 31 31 26 25 29 30 37 33 30 27 28 29 33 34 34 38 44 43 40 51 54 61 64 72 78 80 73 77 79 78 78 83 87 81 87 85 79 77 71 66 57 55 51 52 52 44 42 39 32 28 32 39 59 68 65 66 52 59 44 49 39 43 32 30 29 37 39 33 29 33 30 30 28 23 26 29 34 33 25 27 26 29 25 28 29 36 72 60 38 26 28 33 32 27 23 27 30 32 34 32 26 31 34 28 33 31 33 39 38 35 37 41 46 52 54 57 70 71 75 79 77 75 78 81 71 78 79 84 82 76 75 70 55 59 62 55 53 47 41 39 36 34 34 41 46 53 44 43 39 37 34 32 32 34 31 44 41 38 36 36 28 35 35 31 26 27 25 26 25 34 27 32 25 27 27 31 27 32 73 60 45 31 28 27 40 25 27 29 26 35 31 28 29 28 34 23 37 32 34 35 33 35 42 44 50 55 56 53 64 66 69 67 69 72 69 77 77 81 78 89 84 87 88 86 77 76 62 55 45 47 42 39 35 42 36 39 40 35 35 39 41 39 42 42 37 39 57 54 48 38 35 32 35 28 32 37 25 31 30 29 29 34 26 22 26 28 28 28 32 35 69 61 53 38 33 28 38 26 28 29 27 35 31 27 30 26 30 28 36 35 33 32 35 36 37 41 40 43 49 51 64 63 64 67 64 63 55 65 75 82 83 89 94 99 86 76 69 66 57 51 44 45 37 39 37 40 36 35 42 35 38 46 46 46 49 47 38 43 63 53 42 39 35 32 36 33 36 34 37 32 32 30 28 30 31 32 18 28 27 31 31 36 69 66 55 48 34 35 28 32 29 28 31 34 22 28 25 29 29 32 31 32 33 36 30 35 31 36 34 35 40 42 56 58 59 62 68 72 73 73 79 81 81 84 78 77 69 63 56 54 49 47 39 44 41 46 47 45 46 50 54 51 55 46 51 60 60 53 47 54 62 56 42 39 47 40 42 40 44 40 43 43 36 38 25 27 28 28 30 28 29 31 36 40 64 66 51 51 40 37 29 31 29 28 33 30 30 27 26 28 29 29 32 32 31 35 37 33 36 39 34 38 40 44 47 44 51 55 63 72 70 73 69 78 83 81 81 79 74 60 52 49 58 58 57 53 53 51 53 60 61 57 62 72 76 69 67 69 73 67 64 64 69 61 52 52 53 47 54 51 54 56 55 46 45 42 38 26 27 25 36 30 27 35 40 50 67 65 47 49 49 36 31 33 26 33 28 27 34 27 31 23 28 31 32 31 31 34 37 34 35 38 38 41 50 46 45 37 43 41 45 50 41 46 44 47 62 52 57 70 69 73 59 58 67 76 72 58 52 58 71 73 77 76 72 83 90 91 85 86 91 85 74 79 83 70 66 66 65 60 62 69 67 71 69 60 51 45 43 35 31 34 31 36 31 41 42 58 69 65 51 51 48 36 32 35 31 35 28 29 35 30 30 25 30 28 33 31 28 33 36 36 35 43 45 49 45 50 50 48 49 47 54 52 44 41 38 37 39 40 33 43 50 58 64 74 69 77 71 78 81 89 83 86 93 90 86 88 94 97 100 108 111 100 101 98 100 91 87 82 82 81 86 84 94 81 76 82 65 55 49 43 35 34 41 42 41 43 51 56 70 67 54 52 44 40 28 32 34 33 29 29 33 31 26 24 34 30 30 33 33 37 39 45 43 49 50 59 58 58 59 61 58 66 66 69 56 61 50 49 43 44 36 40 55 56 63 69 71 76 89 94 98 96 89 87 89 82 83 94 93 100 109 111 118 117 111 113 112 106 103 102 106 97 101 100 96 94 89 79 79 71 65 45 42 38 39 49 46 46 54 60 70 70 56 48 37 36 28 33 30 33 30 33 28 26 27 29 30 29 35 31 37 44 46 49 59 59 56 55 62 68 71 66 67 69 66 70 69 76 76 65 58 54 50 50 47 54 66 65 69 78 68 79 76 86 76 81 88 88 96 103 99 109 112 120 128 129 125 122 119 125 122 125 126 124 117 109 97 95 96 82 79 71 64 51 40 44 48 51 54 53 62 61 70 71 66 40 30 33 31 29 29 31 32 31 31 26 23 30 30 30 37 33 40 47 52 62 68 78 74 69 64 69 70 70 64 63 64 71 69 81 75 76 75 69 57 58 51 56 59 63 59 64 67 75 76 88 90 97 102 110 114 109 112 113 129 133 136 141 137 133 133 131 130 133 132 128 127 122 108 103 94 90 72 66 60 49 41 49 45 56 54 54 67 58 70 68 66 43 26 31 31 33 26 25 31 31 29 27 27 25 22 30 36 43 40 69 68 71 79 80 87 84 74 71 58 66 63 65 64 65 68 72 76 79 82 82 83 73 70 70 68 75 71 86 90 99 102 113 118 120 118 124 124 125 122 133 140 145 146 143 144 139 138 133 138 138 136 138 131 126 118 114 100 96 74 60 57 52 45 52 50 58 52 57 65 51 64 72 65 47 31 30 31 29 30 27 25 31 37 27 28 23 29 35 41 52 67 87 94 99 95 89 88 87 80 72 60 58 59 58 61 61 66 70 77 79 79 89 90 87 92 91 97 105 113 119 125 122 125 126 133 133 134 129 133 137 141 145 146 145 143 147 144 142 140 140 140 141 142 142 135 123 112 114 105 94 81 62 56 58 46 52 47 58 55 56 60 37 71 70 69 53 31 29 35 30 29 25 24 31 39 30 32 25 37 46 49 68 78 99 108 114 115 113 108 101 90 85 74 64 61 55 52 63 64 65 71 79 81 87 91 93 100 100 118 131 134 139 134 134 136 136 140 144 141 132 137 143 149 152 150 144 142 145 146 143 141 142 144 142 142 138 135 127 116 113 107 94 77 72 55 53 47 46 46 48 50 49 50 33 68 71 72 58 36 25 30 31 29 29 26 19 37 31 39 46 46 49 64 82 98 106 110 118 124 123 124 124 122 114 115 111 101 93 85 73 79 81 92 86 90 98 101 109 122 133 138 142 142 143 137 145 147 148 148 149 148 146 148 153 151 152 154 151 150 146 144 142 143 141 144 141 134 139 128 131 119 108 104 93 76 70 53 44 41 37 38 45 41 43 37 34 65 71 74 55 34 32 29 27 36 24 31 22 30 38 50 56 57 59 79 96 106 111 117 122 124 127 130 131 134 128 127 132 131 129 116 105 98 99 98 96 101 114 118 127 142 144 143 143 147 145 143 147 156 155 153 154 154 154 157 158 154 153 154 151 148 147 147 136 137 144 143 140 137 135 133 126 123 104 103 95 77 68 50 38 36 31 36 37 36 37 35 37 67 67 74 62 33 28 32 32 32 26 28 29 35 60 66 66 69 71 101 111 117 118 126 131 132 136 144 145 146 146 145 146 141 142 142 141 134 138 133 134 136 137 143 146 143 149 148 143 151 151 147 151 155 159 152 153 156 156 156 158 155 153 156 156 149 145 149 148 138 141 147 143 136 133 134 125 121 107 104 100 83 75 57 37 33 28 34 33 35 37 35 40 70 64 72 68 37 28 33 33 29 27 29 36 61 88 79 72 75 93 118 128 133 133 141 143 146 154 154 158 162 160 163 161 160 158 156 155 156 156 154 150 152 151 153 152 152 151 150 147 146 151 151 151 152 154 155 154 155 152 156 152 156 155 155 156 158 147 151 153 146 143 145 142 139 132 131 128 119 109 107 105 96 85 64 45 35 31 32 31 33 35 40 48 70 68 73 66 46 24 35 32 30 27 32 43 82 102 93 76 94 111 124 132 136 138 139 146 147 154 157 161 162 162 166 165 167 167 168 168 168 165 161 160 158 155 159 151 153 154 151 154 149 152 154 152 155 153 151 155 155 157 159 153 157 160 162 156 156 152 154 152 150 144 143 140 139 136 127 126 124 109 107 104 102 102 74 47 40 32 35 29 30 35 37 40 65 70 63 75 66 44 29 29 32 33 33 63 101 107 95 96 103 110 128 132 135 142 140 140 149 155 153 155 156 154 159 160 162 162 165 166 172 172 169 171 172 166 162 165 163 162 157 157 155 154 156 156 154 153 153 157 152 159 159 165 156 159 157 157 153 152 151 152 149 144 145 141 138 130 131 127 121 102 107 106 101 107 92 67 41 30 35 37 30 31 33 29 69 62 65 92 105 79 25 24 33 29 42 79 104 105 102 103 108 113 134 134 138 137 137 136 144 147 146 155 150 152 155 159 162 158 161 161 164 169 168 170 170 171 167 171 169 171 166 163 164 161 162 160 156 152 155 159 160 158 158 159 156 155 159 154 150 150 152 151 147 145 143 142 137 135 129 128 124 104 106 105 102 102 100 85 58 26 24 37 34 30 29 31 59 62 79 108 118 93 37 23 31 33 54 95 101 109 104 101 106 118 123 123 126 123 117 116 121 120 132 144 141 138 145 151 152 153 150 155 157 159 160 158 163 165 165 165 170 172 170 168 165 163 164 160 158 159 155 160 162 159 157 155 152 150 153 150 141 148 153 147 145 142 144 140 134 132 127 128 122 114 104 104 107 101 98 101 79 32 27 33 41 23 30 28 57 72 89 95 121 91 50 31 28 43 68 104 103 110 108 102 101 104 99 102 108 99 103 108 102 98 104 113 113 115 125 130 136 140 141 146 147 146 150 151 155 154 156 158 168 165 167 167 167 165 164 162 158 158 152 153 152 151 151 153 145 147 152 147 142 140 146 143 139 137 141 139 128 127 123 120 122 113 104 103 101 104 94 102 90 45 23 30 37 32 28 28 51 80 101 59 102 117 66 31 31 41 85 106 105 107 108 98 91 85 87 91 90 85 97 104 96 98 93 87 88 86 84 96 103 109 116 122 127 130 138 138 143 145 146 152 159 156 160 165 164 164 160 158 154 148 143 146 143 139 146 143 138 138 141 140 132 131 133 132 123 125 124 128 123 117 113 110 109 112 108 100 99 100 99 102 97 57 27 29 37 36 22 44 53 73 113 69 42 100 87 51 29 58 94 110 105 113 110 91 83 84 94 93 92 90 93 97 90 87 89 80 77 69 67 62 67 68 78 79 87 97 110 123 126 124 134 140 143 149 150 151 160 155 149 148 147 139 124 128 126 124 122 117 112 107 111 108 102 103 102 102 99 101 102 109 103 106 105 97 96 102 105 105 94 101 98 102 100 74 33 27 34 36 20 59 48 68 130 97 31 85 102 54 31 69 107 110 105 117 118 97 81 78 91 93 90 93 101 101 103 102 94 87 82 77 73 65 55 53 62 59 66 74 88 100 108 111 123 131 134 139 141 143 150 146 137 137 128 127 116 105 112 108 90 84 79 73 73 73 74 70 78 83 81 81 88 94 92 90 88 93 87 86 92 99 99 94 102 102 102 81 41 25 30 39 22 64 44 75 135 105 83 106 86 38 48 90 111 109 108 115 114 103 94 94 91 98 96 93 90 90 92 93 85 87 80 75 70 63 58 55 59 60 63 63 59 79 86 97 113 118 123 124 128 134 136 130 132 125 113 106 108 91 91 90 72 72 59 62 64 63 62 71 71 75 77 79 85 93 89 94 90 88 85 84 87 87 92 99 98 103 99 90 48 32 29 42 38 82 46 80 133 113 112 113 90 45 57 104 112 110 113 116 112 109 107 103 102 92 81 64 50 42 47 64 44 43 31 29 36 35 48 73 60 43 50 62 61 66 79 84 98 106 109 113 121 123 126 123 118 116 109 96 96 88 77 82 69 66 69 58 69 65 77 84 89 90 95 96 99 99 102 107 101 98 95 92 87 85 92 100 98 100 100 95 56 34 33 46 65 110 39 91 133 115 118 100 74 49 68 106 111 112 118 124 120 116 110 98 94 83 63 46 50 52 60 95 79 51 41 36 43 51 86 135 103 75 57 33 50 65 72 68 78 92 99 110 124 134 125 120 116 109 100 91 82 82 76 74 64 56 52 59 60 37 41 57 69 71 89 98 100 104 107 110 110 103 102 94 91 89 93 101 100 97 108 101 61 39 43 60 86 119 44 101 126 127 118 81 64 44 66 106 113 118 120 129 136 130 127 113 105 102 92 93 95 97 89 102 96 80 72 69 79 76 102 116 101 86 97 73 59 75 71 75 72 98 121 143 149 154 148 136 126 113 101 93 90 84 73 58 63 83 74 103 103 55 42 20 35 29 26 52 60 61 68 86 99 100 104 102 103 102 100 109 99 103 105 104 67 46 50 82 98 109 41 105 124 126 114 81 60 46 71 106 112 119 125 131 142 139 142 137 139 132 126 118 116 131 127 119 108 99 96 112 111 112 127 128 112 107 110 110 105 110 79 68 80 109 132 158 158 155 148 139 137 119 104 96 90 92 85 64 69 99 88 103 118 83 65 45 34 35 51 74 84 51 31 38 53 83 105 110 112 109 108 111 104 101 104 102 72 55 62 100 108 106 47 100 123 130 113 90 75 63 76 101 117 126 136 137 137 147 148 151 152 143 138 126 116 124 132 130 128 120 123 129 135 125 131 122 109 105 107 111 112 115 91 77 90 118 142 163 171 163 161 159 144 124 108 109 94 109 119 110 101 92 91 101 106 101 90 91 78 69 72 96 102 89 78 59 59 63 85 103 114 113 114 111 106 107 102 99 76 54 77 104 110 115 45 98 129 128 118 96 83 94 86 98 113 130 134 139 142 147 150 158 155 152 154 143 128 113 111 112 116 116 113 118 116 115 110 109 101 105 114 112 114 108 97 100 100 125 145 162 166 168 163 164 139 117 108 115 109 111 126 119 110 104 110 110 118 123 121 116 116 99 107 110 115 117 111 102 100 103 100 98 106 116 114 116 113 108 100 100 76 64 91 111 116 114 40 95 134 124 121 105 83 109 91 94 123 127 140 139 142 150 150 151 152 153 157 152 150 141 132 125 122 115 113 111 113 119 125 125 125 126 128 132 129 115 119 115 110 127 144 157 161 161 161 154 141 116 108 125 113 122 133 124 118 108 104 117 117 125 130 129 126 119 125 129 126 125 124 119 114 121 126 124 120 123 122 117 119 106 95 101 75 90 101 121 121 119 40 83 134 127 127 113 86 113 94 93 119 130 134 139 143 151 153 154 160 160 154 161 161 165 163 160 160 160 159 151 152 158 154 146 152 151 150 147 141 133 124 120 117 130 149 163 167 163 161 158 139 114 109 126 127 126 132 134 135 130 115 104 108 108 112 116 124 126 125 124 126 121 118 120 119 126 130 128 126 122 128 120 114 113 93 85 108 117 118 129 129 119 42 75 136 129 122 115 102 114 93 89 120 129 135 136 142 150 152 154 165 163 162 165 168 169 167 170 170 167 164 161 162 162 163 159 165 162 157 146 140 133 126 119 125 129 148 161 162 162 155 154 150 121 112 123 133 130 131 135 147 145 137 130 121 115 105 103 107 109 111 116 117 116 119 121 123 125 131 127 126 124 124 124 123 109 90 82 116 128 119 131 132 119 43 66 122 139 117 116 127 113 91 91 114 128 131 139 132 146 149 153 159 161 167 168 169 170 164 162 171 166 166 168 173 169 171 169 163 161 154 137 131 133 129 126 127 139 152 157 162 167 151 150 148 129 118 121 124 135 134 135 151 147 151 149 154 153 146 138 132 131 134 128 133 135 134 136 133 126 126 127 129 122 123 121 120 116 89 85 116 119 110 130 125 118 57 53 103 141 118 119 140 124 86 91 111 126 125 132 129 146 147 142 150 154 167 167 170 166 165 170 173 173 175 176 180 175 172 166 162 155 146 133 134 131 129 131 131 140 154 158 161 165 158 153 147 136 126 125 123 128 129 136 149 153 155 159 154 164 159 150 148 143 153 152 156 150 145 141 148 132 133 135 129 129 120 127 118 114 86 91 123 109 121 126 122 111 61 43 84 127 118 120 141 135 92 87 110 119 129 127 136 144 141 140 150 154 157 157 168 171 177 181 175 178 176 179 178 170 169 163 160 155 143 136 133 138 132 128 139 144 153 162 161 164 155 156 145 134 129 137 131 132 130 135 143 151 159 162 158 168 167 162 157 157 160 161 161 152 149 151 151 148 139 140 135 124 119 120 125 107 80 93 138 110 126 120 117 105 68 51 57 116 119 128 131 140 98 94 106 118 127 128 138 142 138 142 151 150 157 159 169 174 179 175 176 174 177 176 180 174 165 159 159 155 139 132 132 139 131 125 134 145 154 156 155 161 152 153 149 136 132 134 135 127 132 140 148 144 155 155 158 165 167 166 165 163 168 164 162 155 150 148 153 150 141 141 136 126 120 118 112 113 78 102 138 121 119 119 119 85 65 61 52 89 116 128 129 132 106 85 107 113 119 124 133 133 135 145 148 151 153 158 161 169 183 176 170 179 172 171 170 162 165 158 156 133 128 131 134 138 123 121 133 144 151 166 158 159 155 154 149 138 128 129 135 137 133 126 144 159 154 151 158 161 166 164 164 171 168 165 162 162 156 159 148 150 142 136 134 121 126 119 114 104 79 103 136 135 125 118 110 82 67 64 56 60 108 120 122 124 103 86 107 109 116 115 127 134 139 140 149 145 148 157 157 159 170 167 165 174 164 161 165 158 156 152 137 118 129 140 143 139 127 129 134 141 150 160 161 155 157 152 145 141 130 125 138 143 140 126 118 148 153 149 158 156 160 168 160 166 168 163 167 165 163 153 154 152 141 138 132 127 118 124 118 99 77 109 135 148 136 112 96 77 61 67 61 49 89 117 118 123 108 84 107 113 113 114 123 130 135 140 138 147 144 152 156 153 165 159 158 166 159 153 158 151 145 131 115 118 135 146 143 135 136 130 132 132 142 158 159 155 153 158 142 143 136 126 135 146 147 136 117 113 140 148 155 155 159 166 162 162 164 157 166 165 159 156 153 153 147 143 136 127 115 120 115 94 81 111 135 144 133 111 83 73 66 57 62 61 58 91 109 118 113 84 100 110 115 111 115 125 132 138 136 142 146 141 150 152 148 152 153 153 151 149 143 138 131 120 109 125 136 143 137 134 139 139 137 142 161 165 169 164 156 154 152 142 141 134 131 142 150 142 127 112 121 138 145 149 153 154 159 161 163 157 155 160 154 150 148 145 147 143 130 121 124 112 114 88 86 118 127 139 137 97 73 80 61 60 62 64 58 68 80 105 102 84 95 107 109 106 110 123 128 129 134 137 138 140 142 146 146 142 144 144 145 139 133 128 134 126 106 118 131 132 130 132 131 131 142 149 166 166 168 168 163 166 158 147 141 137 133 144 142 144 132 107 129 131 128 141 145 150 158 157 155 153 155 157 151 140 147 140 139 140 127 115 123 106 113 82 92 119 129 126 121 83 74 80 60 64 59 66 61 65 62 72 86 84 95 108 104 109 108 121 121 127 128 134 138 135 141 139 133 141 144 137 136 133 128 131 139 127 104 101 114 120 121 120 121 107 123 135 146 150 150 148 146 157 150 133 126 129 130 132 129 136 124 113 128 134 123 131 137 145 151 151 149 149 151 150 147 136 138 136 140 133 126 113 118 107 107 82 107 122 126 113 99 71 82 77 64 61 61 65 60 65 61 59 67 80 94 107 104 102 109 115 117 123 124 128 132 129 134 131 127 134 138 140 132 133 130 136 148 130 116 90 77 81 89 87 108 100 101 108 130 131 130 125 126 128 124 111 112 117 111 114 113 111 104 110 124 135 125 120 126 134 133 139 144 143 146 140 136 137 134 132 133 125 116 114 113 110 98 88 118 122 114 94 74 78 78 81 63 62 63 60 67 60 64 59 57 84 91 104 103 104 108 111 116 121 117 120 126 120 129 124 128 129 132 135 132 134 142 142 147 139 132 99 62 33 41 43 56 70 83 89 104 114 116 109 107 105 99 96 90 88 72 62 79 90 93 116 124 133 126 117 112 126 132 131 132 138 137 130 129 133 132 124 128 124 112 116 107 108 91 95 118 116 88 81 72 78 82 78 57 60 65 65 62 63 65 58 71 70 91 103 107 102 104 107 115 115 111 114 115 118 118 126 128 136 132 140 132 139 142 146 149 149 141 141 106 80 60 52 49 43 35 48 77 88 90 87 85 69 55 47 54 56 59 63 64 92 109 118 119 125 129 127 116 115 123 127 124 126 120 122 128 126 127 120 121 113 111 110 113 103 94 87 96 75 75 74 79 79 76 80 60 64 61 64 63 64 62 59 63 81 88 101 109 102 100 101 111 116 116 114 115 118 117 123 130 135 141 141 132 137 143 150 147 145 144 144 134 115 101 89 83 85 67 53 49 53 58 68 69 67 79 86 87 99 99 107 105 106 115 118 114 122 125 127 116 110 121 122 120 121 116 120 119 120 120 115 114 113 107 108 107 102 97 69 67 71 75 73 81 78 76 77 61 64 61 66 64 60 66 58 59 81 89 100 107 111 104 95 109 117 121 118 116 119 123 129 129 139 144 135 127 138 146 149 144 142 142 137 141 133 131 123 116 117 114 105 96 82 82 97 104 113 111 122 122 117 117 117 115 110 116 122 117 117 118 118 117 106 111 121 121 115 114 115 117 114 116 112 107 109 110 106 106 103 98 56 70 71 78 80 77 75 81 78 59 67 60 64 63 62 68 59 63 75 89 101 111 113 110 108 115 122 128 126 126 124 128 134 136 138 144 134 126 139 142 142 136 143 141 140 139 139 136 141 136 136 131 130 126 115 113 126 126 122 131 128 128 114 120 123 113 114 118 122 116 112 113 115 120 111 107 118 125 116 113 116 115 116 112 112 110 106 107 106 107 100 88 58 68 77 76 78 79 80 75 80 58 63 63 62 67 63 63 66 53 76 85 97 110 115 110 112 120 123 132 134 135 135 129 130 134 132 137 136 125 137 140 135 133 134 138 139 133 141 146 139 145 148 139 137 132 117 121 131 130 130 131 133 130 120 123 121 116 114 115 119 117 114 112 112 126 120 114 120 119 126 122 113 117 112 116 109 111 107 109 106 100 106 72 62 70 73 81 75 79 81 78 84 63 63 68 61 63 66 62 61 69 62 87 97 109 114 109 115 122 129 134 142 142 134 131 126 129 132 126 129 121 128 141 131 125 130 131 128 139 146 153 143 151 155 160 156 145 132 133 137 127 137 134 132 134 124 126 124 113 114 116 117 118 110 113 115 129 128 127 133 134 128 132 132 116 119 118 112 110 112 112 106 105 96 72 60 75 73 77 77 77 80 80 81 59 61 63 63 62 67 63 64 59 71 84 97 103 119 116 114 122 125 141 146 145 138 131 127 133 128 127 122 120 121 128 130 118 124 129 126 135 144 149 154 149 159 166 168 160 142 132 130 134 138 142 137 137 132 123 124 118 117 111 115 122 113 112 114 121 127 132 141 137 137 133 134 122 120 120 113 118 120 110 109 101 96 57 77 71 77 76 79 76 80 79 82 64 63 59 66 61 67 61 64 64 60 84 96 102 115 114 113 116 129 132 146 149 143 133 123 132 130 124 122 121 117 122 122 115 118 126 129 130 137 146 144 142 153 154 160 162 157 145 138 135 131 141 133 132 137 119 125 116 114 110 113 116 109 108 109 116 123 129 145 133 137 145 129 127 123 112 118 121 118 112 106 102 88 60 71 74 77 78 78 79 81 79 81 63 67 62 60 63 60 67 61 65 58 76 92 100 116 116 110 112 128 137 141 150 147 134 121 134 129 125 120 120 115 111 114 112 104 107 103 103 99 103 94 95 103 100 105 110 114 129 120 117 111 102 105 109 116 111 113 118 116 109 105 110 107 110 111 119 125 129 136 128 145 147 131 127 120 112 120 121 115 109 102 99 73 69 73 74 74 78 79 80 79 77 82 62 63 60 64 64 60 66 66 58 66 67 93 90 111 116 112 115 118 135 135 149 153 138 124 136 131 124 117 107 97 78 71 69 63 73 67 66 71 95 88 63 87 94 92 85 56 76 90 91 96 66 67 87 82 76 81 92 96 100 98 95 106 106 110 127 127 126 132 127 145 146 126 123 115 113 123 121 113 106 103 90 68 64 77 75 75 82 75 79 83 79 80 66 62 59 64 66 60 68 60 69 57 66 78 98 103 111 113 113 119 120 136 143 155 145 131 131 134 127 111 112 82 34 18 33 33 84 105 85 108 136 145 106 132 153 152 142 81 112 152 151 157 101 109 149 114 76 99 95 61 62 46 34 45 89 105 118 129 130 131 132 145 136 126 119 111 114 122 116 114 103 91 83 59 74 72 79 74 78 80 79 79 75 83 62 62 66 61 64 65 59 67 62 65 58 78 90 99 111 109 109 112 122 127 138 151 143 136 134 130 128 124 127 123 89 62 57 28 76 114 60 105 148 148 115 152 167 173 167 71 140 173 172 174 127 147 173 138 111 137 111 98 75 30 21 52 95 102 114 125 131 127 137 147 130 116 117 111 121 120 113 109 100 95 69 65 72 74 80 76 78 83 77 79 80 77 58 60 66 58 62 65 59 65 65 58 61 66 87 97 104 111 108 107 120 123 133 149 150 144 137 133 128 135 136 139 137 113 96 100 82 94 75 79 85 98 81 135 146 163 157 51 143 166 165 165 120 132 160 132 104 137 87 85 77 65 81 113 122 115 116 128 130 122 144 143 127 114 111 115 113 119 110 102 101 87 58 73 68 80 76 75 82 75 85 73 79 80 63 62 60 65 62 64 62 63 67 65 62 59 82 89 100 110 105 109 113 116 131 141 146 145 137 134 131 139 137 134 146 135 112 106 107 121 120 112 98 98 105 97 99 115 122 92 120 131 104 126 114 83 97 104 72 104 81 83 87 98 107 121 129 128 118 127 129 133 140 134 118 112 112 116 116 112 106 104 92 70 67 69 78 74 77 75 81 76 79 77 78 77 65 61 61 66 59 64 61 65 62 64 61 69 64 82 94 109 111 110 112 107 128 135 142 142 143 135 138 145 136 131 134 137 123 114 117 119 131 126 135 148 130 122 116 113 108 109 123 119 110 110 111 96 98 102 105 105 98 106 107 117 120 127 136 139 128 122 132 138 141 128 112 110 111 117 115 106 104 101 79 67 67 74 77 74 78 75 80 78 77 80 75 77 60 63 62 59 64 59 63 63 63 64 65 56 67 77 87 100 108 110 108 105 119 134 139 140 137 140 142 145 144 126 126 129 125 120 125 117 123 119 121 148 158 153 142 133 127 128 145 141 144 142 137 134 128 118 117 113 105 114 118 121 125 129 142 139 131 127 132 142 134 123 105 110 116 116 110 110 103 82 70 63 77 76 74 79 78 78 78 79 78 78 78 83 60 62 61 62 62 62 66 63 61 67 63 69 59 66 81 95 100 109 114 105 115 126 135 140 134 138 138 137 141 131 127 122 126 125 123 123 123 122 119 130 134 147 150 148 143 143 149 147 159 148 140 140 137 119 115 116 114 107 119 121 129 138 131 136 125 121 139 138 132 112 108 117 114 118 108 103 101 69 67 71 78 76 73 78 80 74 83 79 75 79 78 83 60 63 57 63 61 67 59 65 64 64 61 67 63 59 73 93 99 106 110 114 113 119 127 137 140 138 136 141 138 131 128 125 119 123 128 125 122 124 122 130 136 139 141 142 134 137 144 138 143 134 132 124 127 124 122 127 107 100 119 125 133 136 133 126 121 129 142 134 122 106 109 119 117 111 108 101 80 64 69 76 72 78 76 79 76 81 79 76 77 78 80 76 64 59 59 61 64 63 64 63 59 70 65 68 60 64 70 80 90 106 106 113 111 114 123 127 137 139 133 134 142 133 125 125 117 121 127 124 122 119 124 128 130 125 130 124 130 131 131 131 130 127 129 126 128 122 123 125 116 110 120 127 131 132 130 116 119 128 136 128 106 108 112 118 113 112 102 84 66 71 72 75 75 78 76 75 81 74 79 78 74 80 78 75 64 60 61 61 62 64 65 63 62 62 65 60 59 85 100 78 79 96 106 110 111 111 124 127 130 136 133 127 137 140 130 122 119 120 120 121 120 118 121 121 125 117 124 124 126 126 121 124 126 129 130 125 124 124 123 119 118 116 123 123 131 131 120 118 125 132 127 121 102 113 115 118 104 99 101 65 69 70 74 79 74 77 75 80 75 79 78 74 76 79 77 78 62 62 64 60 60 64 64 62 64 59 62 71 118 154 135 79 79 86 93 107 105 112 115 126 131 127 137 130 129 138 136 127 120 119 119 122 124 123 125 127 121 119 122 122 128 125 118 121 122 121 126 118 118 120 121 116 113 121 120 120 132 127 117 122 131 132 118 112 111 116 112 110 100 83 96 103 82 66 77 77 78 77 73 79 78 75 77 78 75 79 79 76 57 61 61 66 60 63 62 65 53 60 101 145 148 138 121 83 81 84 86 99 103 109 111 120 130 129 130 133 132 140 141 132 126 123 116 128 124 127 138 129 120 117 119 119 116 119 119 124 123 120 125 123 123 122 121 117 118 123 116 124 130 125 120 123 129 122 112 109 115 113 109 104 94 78 92 145 151 84 66 75 77 75 73 83 76 80 73 79 79 77 75 79 57 63 63 59 61 63 62 51 63 133 166 145 114 164 154 76 87 85 81 90 94 98 106 112 126 131 125 132 131 139 145 139 130 131 127 122 126 127 132 131 131 131 130 125 126 122 117 129 127 118 123 127 125 119 119 119 124 125 123 130 128 128 124 123 118 118 109 111 113 106 104 93 85 92 94 115 166 178 121 68 69 78 80 78 76 80 75 80 75 78 78 74 58 62 62 64 64 63 51 67 141 164 137 124 164 178 132 78 90 91 81 79 85 94 93 107 115 121 120 129 129 135 140 143 141 140 140 135 133 125 131 139 144 148 145 143 141 137 136 135 131 122 120 126 126 119 123 123 123 124 133 133 128 129 119 118 120 113 105 108 108 95 94 87 95 83 123 128 132 156 187 129 59 74 76 81 76 72 81 77 80 75 78 74 60 61 62 64 59 51 65 157 172 131 128 163 173 143 99 85 94 93 85 72 81 84 91 90 108 110 112 125 127 135 136 141 146 148 145 147 146 143 142 149 156 156 150 156 158 158 155 148 146 144 137 135 134 136 136 117 128 136 137 139 126 125 118 118 115 103 106 107 97 88 85 101 107 68 146 188 114 131 168 194 122 57 72 75 78 72 79 80 77 78 77 76 58 61 61 63 43 51 160 188 151 108 170 180 150 102 80 97 95 98 86 86 69 74 88 87 92 103 112 122 117 138 140 136 145 145 142 145 149 145 150 151 159 156 154 157 155 160 153 149 151 147 144 141 142 143 144 116 119 147 137 139 120 116 114 113 105 103 101 99 84 84 99 109 103 68 139 196 178 112 145 169 191 114 53 78 78 77 75 76 75 78 76 79 60 59 61 52 31 139 196 179 111 147 189 168 124 65 76 103 96 94 91 88 76 68 70 84 86 90 98 111 113 125 135 137 131 137 138 143 148 146 154 153 155 157 155 156 157 154 154 149 144 146 134 135 135 142 143 136 132 138 139 129 113 110 109 99 100 103 90 88 80 101 109 110 99 83 118 179 208 144 118 161 181 183 78 65 74 80 75 78 74 79 78 77 59 61 65 24 107 205 206 139 121 192 186 156 82 54 85 105 94 94 93 89 86 71 67 71 80 80 85 88 104 112 120 128 129 132 138 127 141 144 142 146 143 157 146 148 157 151 146 149 150 144 129 134 137 138 139 135 135 132 128 120 109 105 98 97 96 86 83 93 98 114 119 107 98 89 100 157 192 195 116 142 166 193 162 48 65 80 75 77 74 75 76 82 60 63 46 41 181 213 200 116 151 202 183 137 57 56 93 109 98 93 96 90 84 81 70 70 73 76 85 81 84 105 113 114 122 131 135 128 135 139 142 138 139 147 144 145 145 143 141 142 143 140 132 135 138 133 138 133 129 127 122 110 103 94 96 88 90 76 97 104 108 117 115 104 102 88 72 138 179 212 135 115 168 185 202 80 54 76 77 76 76 74 75 77 65 63 15 113 214 217 176 117 186 203 182 123 42 38 100 106 104 99 95 94 89 83 78 71 70 70 77 81 77 83 96 104 103 121 121 121 132 138 136 135 136 138 139 142 145 141 142 131 138 138 134 130 126 131 128 117 117 119 115 96 90 87 93 83 88 93 109 114 113 107 109 103 112 89 27 126 167 207 169 87 165 177 193 144 48 74 75 78 76 74 79 73 66 46 16 172 220 216 168 131 203 210 179 117 24 31 106 112 105 108 95 95 91 87 86 73 64 70 70 73 83 84 85 85 94 102 115 112 119 128 130 130 128 128 126 134 136 135 141 130 139 134 128 119 120 117 115 104 110 111 97 86 89 86 79 99 95 110 117 119 110 105 106 103 117 76 14 97 157 203 194 86 143 176 194 166 56 67 73 83 74 76 77 73 63 38 35 208 215 217 162 153 207 215 196 110 2 59 118 115 101 106 110 97 92 92 86 77 72 67 63 70 78 80 88 86 86 89 97 104 105 115 121 118 117 124 126 126 125 124 129 127 129 117 120 118 112 110 105 103 103 92 87 87 86 82 97 108 112 121 117 109 114 108 102 105 122 69 10 76 157 195 211 106 111 173 188 185 64 66 76 75 75 76 75 75 61 22 80 223 208 218 165 162 210 215 210 86 20 102 118 114 105 110 109 111 99 91 89 84 74 66 68 67 70 74 83 85 88 85 85 88 98 98 110 106 107 113 113 113 115 110 116 115 114 110 111 105 99 103 93 94 87 84 86 84 89 101 118 122 124 126 119 109 115 108 108 106 121 78 5 66 163 190 216 128 87 168 185 194 80 57 77 73 76 80 73 76 52 28 129 217 207 210 174 167 207 219 215 50 38 117 123 118 114 111 110 114 111 97 93 85 81 72 70 67 69 69 79 83 83 89 89 87 89 92 97 102 99 103 100 103 103 104 102 103 102 110 105 97 90 87 87 84 83 81 87 97 101 120 126 124 126 120 113 112 110 108 107 116 111 90 3 66 169 194 217 131 77 166 193 182 86 56 76 77 74 78 75 74 41 55 145 210 203 212 181 166 209 215 223 62 54 122 121 117 117 113 113 112 112 110 99 96 89 77 71 69 66 70 73 77 79 80 85 91 90 90 88 92 93 90 92 95 89 94 92 89 93 91 89 82 86 84 82 85 85 85 97 115 122 126 130 128 123 116 118 117 114 108 115 109 109 89 9 85 180 193 212 146 85 179 190 183 122 90 73 73 75 76 75 77 67 113 157 194 207 207 186 170 204 215 229 82 57 125 123 123 116 115 119 123 116 111 108 107 91 85 78 74 66 73 71 72 71 77 80 81 91 88 93 90 87 91 88 86 84 87 84 89 84 85 85 84 85 81 75 87 98 102 114 127 125 129 125 121 122 121 121 117 109 113 116 108 107 73 17 120 186 201 201 122 125 184 199 166 148 147 135 104 78 74 82 85 135 168 160 178 210 208 192 173 193 215 237 107 51 124 126 125 116 118 120 124 123 118 111 108 104 95 84 80 71 70 70 69 67 79 72 74 76 82 83 87 84 90 93 87 84 92 85 89 83 83 79 83 80 82 90 103 119 122 121 129 128 132 121 123 124 119 119 122 119 116 112 112 101 48 33 165 193 206 184 100 150 188 190 162 146 150 163 165 149 105 122 127 166 175 173 159 205 210 196 181 183 212 235 161 48 120 124 130 119 121 124 120 120 123 119 116 111 107 94 87 82 76 70 68 68 71 70 74 72 70 74 72 70 81 81 79 79 83 80 78 76 76 77 85 87 95 115 119 131 124 126 126 128 132 125 126 124 126 123 122 119 117 112 112 92 22 99 188 194 210 155 110 165 190 191 158 150 163 155 154 162 165 151 153 183 173 190 149 197 209 204 190 180 208 229 200 54 115 121 126 128 122 119 126 119 123 124 118 119 108 108 96 88 82 80 68 71 68 67 73 66 69 70 65 66 69 68 69 68 71 68 68 75 78 91 97 104 115 125 127 125 124 127 124 129 122 126 131 128 128 123 121 115 116 115 106 64 44 163 195 203 201 126 119 182 190 189 151 150 161 157 152 152 164 167 164 