P2
92
112
15
6 5 6 6 6 6 6 6 6 5 5 4 4 3 2 2 3 2 2 2 2 3 4 4 4 2 2 3 3 3 4 5 4 3 3 3 4 4 4 4 3 3 3 3 2 2 2 2 2 2 2 1 1 1 2 2 2 2 2 2 2 1 1 2 2 2 2 2 2 2 2 2 3 3 2 2 3 3 3 2 2 2 3 5 6 6 6 6 6 6 6 6 5 6 6 6 6 6 6 6 5 5 4 4 3 2 2 3 3 3 2 2 2 3 4 4 3 2 3 3 3 3 4 4 3 3 3 4 5 5 5 4 4 4 3 3 3 3 2 3 3 3 2 2 2 2 2 2 2 2 2 2 1 1 1 2 1 2 2 2 2 2 3 2 2 3 3 2 2 3 3 2 2 2 2 3 4 5 6 6 6 6 6 6 5 6 6 6 6 6 6 5 5 5 4 3 2 2 3 4 3 3 2 3 3 3 3 3 3 4 4 5 5 4 3 3 2 2 3 4 4 4 3 3 3 4 4 4 4 3 3 3 3 3 3 3 3 2 2 2 2 2 2 2 1 1 1 1 2 2 2 2 2 2 3 3 2 2 2 2 3 3 3 3 3 2 2 3 3 4 5 6 6 6 6 6 6 6 6 6 6 6 6 5 5 4 2 2 3 3 4 4 3 2 3 3 3 2 2 3 4 5 5 5 5 3 3 2 2 2 2 3 2 2 3 4 5 4 4 4 4 4 3 3 3 3 3 3 3 2 2 2 2 2 2 2 1 1 1 1 2 2 2 2 2 2 2 3 2 2 2 2 2 3 2 3 3 2 1 3 3 3 4 5 6 6 6 6 6 6 6 6 5 6 5 5 4 3 3 3 4 5 5 4 3 3 3 3 2 2 4 5 5 5 4 5 4 4 3 4 3 3 3 3 3 3 3 4 4 4 4 4 4 4 4 3 3 3 2 2 2 2 1 2 2 2 2 2 1 1 1 1 1 2 2 2 1 1 2 2 2 2 1 2 2 2 2 2 3 3 1 2 3 3 3 5 6 6 6 6 5 6 5 6 5 5 5 4 3 3 4 4 4 5 4 2 3 3 3 2 3 4 5 5 5 4 3 4 5 6 6 6 5 5 5 5 4 4 3 4 4 4 4 4 5 5 4 4 4 3 3 2 2 2 1 2 2 2 2 2 2 1 1 1 1 2 2 1 1 1 1 2 2 2 2 2 2 3 2 2 2 3 2 2 2 3 3 3 5 6 6 6 5 6 6 6 5 4 3 3 4 4 4 4 5 4 3 2 3 3 3 3 4 5 5 4 4 4 4 4 5 6 6 6 5 5 5 5 4 4 4 4 3 3 3 4 4 4 4 4 3 3 3 3 2 2 2 2 2 2 2 1 2 2 1 1 2 2 1 2 1 1 2 2 2 1 2 2 2 2 2 2 2 2 3 2 2 2 2 3 4 5 6 6 6 6 6 5 4 4 4 5 4 5 5 5 4 3 3 2 3 3 3 5 5 5 5 5 5 5 5 5 5 6 5 5 5 5 5 4 4 4 4 4 3 3 3 3 3 3 3 3 3 3 4 3 3 3 2 2 2 2 2 2 2 2 2 2 2 1 1 1 2 1 1 1 1 1 2 2 2 2 2 2 2 2 2 3 2 3 2 2 3 4 5 6 6 6 5 4 4 5 5 4 4 5 5 4 3 2 3 3 4 4 5 5 5 5 5 5 5 6 6 5 5 5 5 5 5 5 5 5 5 5 4 5 4 4 3 3 3 3 3 3 4 4 4 3 3 2 2 2 3 2 2 2 2 2 2 2 1 2 1 1 1 1 1 1 1 1 2 2 2 2 2 2 2 2 3 2 2 3 2 1 2 3 3 5 6 6 5 4 4 5 4 4 5 5 5 3 2 3 4 5 5 4 5 5 5 5 5 5 5 6 6 5 5 5 5 5 4 4 5 4 5 5 5 5 5 4 3 3 3 4 4 4 4 4 4 3 3 2 2 3 3 2 2 2 2 2 2 2 2 1 2 1 1 1 1 1 1 1 2 2 2 2 2 1 2 2 3 2 2 2 3 2 2 3 3 3 5 5 5 5 4 4 4 5 5 5 3 3 3 4 5 4 4 4 5 5 5 5 5 5 5 5 6 6 6 6 5 4 4 4 4 4 4 5 5 5 5 5 4 4 4 4 4 4 4 4 4 3 3 3 3 3 2 3 3 2 2 2 2 2 2 1 1 1 1 1 1 1 1 1 2 2 2 2 2 1 2 2 3 2 2 2 3 2 2 4 3 2 5 5 5 4 4 4 4 5 5 4 3 3 4 4 4 4 4 4 4 4 3 4 4 4 5 6 6 6 6 6 5 4 5 5 5 4 4 5 5 5 4 5 4 4 4 4 4 4 4 4 4 4 4 4 4 4 4 3 3 3 3 3 2 2 2 1 2 1 1 1 1 1 1 1 2 2 2 2 1 1 2 2 2 2 2 2 3 3 2 3 4 2 5 4 4 4 4 5 4 4 4 3 3 4 3 3 3 4 4 3 2 3 3 3 3 4 4 4 5 5 5 5 5 5 5 5 5 5 5 5 5 4 4 4 4 4 4 4 3 3 3 3 4 4 4 3 3 4 4 4 4 3 3 3 3 2 2 2 2 2 1 2 1 1 2 1 2 2 1 1 1 1 1 1 2 2 1 2 3 3 2 2 4 3 5 4 4 4 5 4 4 4 3 3 3 3 3 3 3 3 3 2 2 3 3 3 3 4 4 4 4 5 5 5 5 5 4 4 4 5 5 5 5 4 5 4 4 4 4 4 4 3 4 3 4 3 3 3 3 3 3 3 3 3 2 2 2 2 2 2 2 2 2 2 1 1 1 1 2 2 1 1 1 1 1 1 2 2 2 2 3 3 2 1 3 4 4 3 4 5 5 4 4 4 3 3 3 3 2 3 3 3 2 2 3 3 3 3 3 3 3 3 3 4 4 4 5 4 5 4 4 5 5 5 5 5 5 5 4 4 4 3 3 4 4 3 4 3 3 3 3 3 3 3 3 2 2 2 2 2 2 2 1 2 1 1 1 1 1 1 1 1 1 1 1 1 1 1 2 1 2 2 2 3 2 1 2 3 4 4 4 4 4 4 4 4 4 4 4 2 2 2 3 2 2 3 3 2 3 3 3 3 3 3 3 4 4 4 4 4 5 4 5 5 5 5 6 5 5 4 4 4 4 4 4 4 4 4 4 4 3 3 3 4 4 3 3 3 2 2 2 2 2 2 2 2 1 2 1 1 1 1 1 1 1 1 1 1 1 1 1 1 1 2 3 2 2 1 2 3 4 3 3 3 3 4 4 3 4 4 3 2 2 2 2 3 3 3 3 3 3 3 3 3 4 4 4 4 4 4 4 4 4 4 5 5 6 5 5 5 5 5 4 4 4 4 4 4 4 4 4 4 4 4 3 3 3 3 3 4 3 3 2 2 2 2 2 2 2 2 1 2 1 1 1 1 1 1 1 1 1 1 1 1 1 2 2 2 2 1 2 2 4 3 3 3 3 4 3 3 3 2 2 2 2 2 2 2 2 2 3 3 3 3 3 3 3 4 4 4 4 5 5 5 4 4 4 3 4 4 4 4 4 4 4 4 4 4 4 4 4 5 5 5 4 4 4 3 3 3 2 2 2 2 2 2 2 2 2 2 2 2 2 2 1 2 2 1 1 1 1 1 1 1 1 1 1 2 2 2 2 1 2 3 4 3 2 3 3 3 3 2 3 2 2 2 2 2 2 2 2 2 3 3 3 2 3 2 3 3 3 4 4 4 4 4 4 3 4 4 4 4 5 5 5 5 4 4 4 4 3 4 4 4 4 4 5 4 4 4 4 3 3 3 2 2 2 2 2 2 2 2 2 2 2 2 2 1 2 2 1 2 1 1 2 1 1 1 1 1 2 2 1 1 2 2 3 2 2 3 3 2 3 2 2 3 2 2 2 2 2 2 2 2 2 2 2 2 2 2 2 3 3 4 4 4 3 3 3 3 3 3 3 3 4 4 4 4 4 4 4 4 4 4 4 3 4 4 3 4 3 4 3 3 3 3 3 3 3 3 3 3 3 2 2 2 2 2 2 2 2 2 2 2 2 1 1 1 1 1 1 1 2 2 1 1 2 2 3 2 2 3 2 2 2 2 2 2 2 2 2 2 2 2 2 2 2 2 2 2 2 2 3 3 4 4 5 5 5 4 3 3 3 3 3 3 2 3 3 4 4 4 4 4 4 4 4 4 4 4 4 3 4 3 4 3 3 3 3 3 2 2 3 2 3 2 2 2 2 2 2 2 2 2 2 2 2 2 1 1 1 1 1 1 2 1 1 1 1 2 3 2 2 2 2 2 2 2 2 1 2 2 1 2 1 1 2 1 2 2 2 2 3 3 4 4 5 6 6 5 5 4 4 4 4 3 3 3 3 3 2 3 2 2 2 3 4 4 5 5 5 5 5 4 4 4 4 4 4 4 3 3 3 3 2 2 2 2 2 2 2 2 1 1 2 2 2 2 2 2 2 1 1 1 1 1 1 1 1 1 1 1 3 2 1 2 2 1 2 2 1 1 1 2 2 2 1 2 2 2 2 2 2 2 2 3 4 5 5 5 5 6 6 6 5 5 4 4 4 4 3 3 3 3 2 2 2 2 3 3 3 3 4 4 4 4 4 4 5 5 4 4 4 3 3 3 3 2 2 2 2 2 2 1 1 1 1 1 2 1 2 2 2 2 1 1 1 1 1 1 1 1 1 1 3 2 2 1 2 2 1 1 2 1 1 2 1 2 2 2 2 2 2 2 2 2 3 3 4 4 5 5 5 6 6 6 5 5 5 4 4 4 3 3 3 3 3 3 3 3 3 3 2 2 2 2 2 2 2 3 3 4 4 4 4 4 3 3 3 2 3 3 3 3 2 3 2 2 2 2 1 1 1 2 2 2 1 1 1 1 1 1 1 1 2 1 3 3 1 1 1 1 2 2 1 1 1 1 1 2 2 2 1 2 2 2 2 2 3 3 3 3 4 4 5 5 5 5 5 5 4 4 4 4 4 4 4 3 3 3 3 3 3 2 2 2 2 2 2 2 2 1 2 2 2 2 3 3 2 3 3 3 3 3 3 2 2 2 2 2 2 2 2 1 1 1 1 2 2 1 1 1 1 1 1 1 1 2 4 3 2 1 1 1 1 1 1 1 1 1 2 2 1 1 1 1 2 2 2 2 2 2 2 3 3 3 4 4 4 5 4 4 4 4 4 5 5 5 5 5 4 4 4 4 3 3 3 3 3 2 2 2 2 1 2 2 3 4 4 4 3 3 2 3 2 2 2 1 1 2 2 2 1 2 1 1 1 1 1 1 2 2 1 1 1 1 1 1 1 2 4 3 2 1 1 2 2 1 1 1 1 2 2 2 1 1 2 1 2 1 2 2 2 2 2 2 2 3 3 3 4 4 4 4 4 4 4 5 4 4 4 5 5 4 4 4 3 3 3 3 3 2 2 2 2 2 2 2 2 3 2 2 2 2 2 2 2 2 1 2 2 2 2 2 1 2 2 1 1 1 1 1 1 2 1 2 1 1 1 1 1 2 4 3 2 1 1 1 2 1 1 1 1 2 1 1 1 1 2 1 2 2 2 2 2 2 2 2 3 3 3 3 4 4 4 4 4 4 4 4 4 5 4 5 5 5 5 5 4 4 3 3 2 2 2 2 2 2 2 2 2 2 2 2 2 2 2 2 2 2 3 3 3 2 2 2 2 1 2 2 1 1 1 1 1 2 1 1 1 1 1 1 2 2 4 3 3 2 2 1 2 1 1 1 1 2 1 1 1 1 1 1 2 2 2 2 2 2 2 2 2 2 3 3 4 3 4 4 4 3 3 4 4 5 5 5 5 6 5 4 4 4 3 3 2 2 2 2 2 2 2 2 2 2 2 2 2 2 3 2 2 2 3 3 2 2 2 2 2 2 2 2 2 2 2 1 1 1 1 2 1 1 1 1 1 2 4 4 3 3 2 2 1 2 1 1 1 2 1 1 1 1 1 2 1 2 2 2 1 2 1 2 2 2 2 2 3 3 3 3 4 4 4 4 4 5 5 5 4 4 4 3 3 3 3 2 2 2 2 2 2 2 2 3 3 3 3 2 3 3 3 3 2 3 3 3 2 2 2 2 2 2 2 2 2 2 2 2 1 1 1 1 1 1 1 1 2 2 4 4 3 3 2 2 1 1 1 1 2 1 1 1 1 1 1 1 2 2 1 2 2 2 2 2 2 2 2 2 2 2 3 3 3 4 4 4 4 4 5 5 5 4 4 3 3 3 3 3 3 3 3 3 3 3 3 3 3 4 4 4 4 4 4 4 4 4 4 3 3 3 3 2 3 3 3 3 3 2 2 2 2 1 1 1 2 1 1 2 2 3 4 4 2 3 3 2 1 2 1 2 1 1 2 1 1 1 1 1 2 1 1 2 2 2 2 2 2 2 3 2 2 2 2 2 2 3 2 2 2 2 3 3 3 4 4 4 3 3 4 4 4 3 3 3 4 4 4 4 4 5 5 5 5 5 5 5 4 4 5 4 4 4 4 3 3 4 4 4 4 3 3 2 2 2 1 2 1 2 1 2 2 3 4 4 3 3 3 2 2 2 1 2 1 1 2 1 1 1 1 1 2 1 1 2 2 2 2 2 2 3 2 3 3 3 3 2 3 3 2 2 2 2 2 2 2 2 3 3 4 4 4 4 4 4 5 5 5 5 5 5 5 5 5 6 6 6 6 6 6 6 6 5 5 5 5 5 5 5 5 5 4 5 4 3 3 2 2 2 2 2 2 2 3 3 4 4 3 3 2 2 1 2 2 2 1 1 2 1 1 1 2 1 1 2 2 2 2 2 2 3 3 3 3 3 3 3 3 4 4 4 3 3 3 3 2 2 2 2 3 3 3 4 4 4 5 5 6 6 5 5 5 5 5 5 5 6 6 6 7 7 6 7 7 6 6 6 6 6 6 6 6 5 5 4 4 4 4 2 2 2 2 3 2 2 3 3 4 4 3 3 2 2 1 2 1 2 1 2 1 1 1 1 1 1 2 1 2 2 2 3 3 3 3 3 3 4 4 4 4 4 4 4 4 4 4 4 3 3 3 3 2 3 4 4 4 4 4 4 4 5 4 5 5 5 6 6 6 6 7 7 8 8 7 7 7 7 7 7 7 7 7 6 6 5 6 5 4 4 4 3 2 2 3 3 3 3 3 3 4 4 4 2 1 2 1 1 1 1 2 1 1 1 1 1 1 1 2 2 2 2 3 3 4 4 4 4 4 4 4 4 4 3 4 4 4 5 4 4 4 4 3 3 3 3 3 3 3 4 4 4 4 5 5 6 6 6 7 6 7 7 8 8 8 8 8 8 8 8 8 8 8 8 7 7 6 6 5 5 4 4 3 3 2 3 2 3 3 3 4 3 4 4 4 2 1 1 1 2 1 1 1 1 1 1 1 1 1 1 2 2 2 4 4 4 4 5 5 5 4 4 3 4 3 4 4 4 4 4 4 4 5 5 5 4 4 4 4 4 4 5 5 6 6 7 7 7 7 7 7 7 7 8 8 9 9 8 9 8 8 8 8 8 8 8 8 7 7 7 6 6 4 3 3 3 2 3 3 3 3 3 4 3 4 4 4 2 1 1 1 1 1 1 1 1 2 1 1 1 1 2 2 3 4 5 5 6 5 5 5 5 5 4 3 3 3 3 3 3 4 4 4 4 4 5 5 5 5 5 6 6 7 7 7 7 7 7 8 8 8 8 8 8 8 9 9 9 8 9 9 8 8 8 8 8 8 8 8 7 7 7 6 5 5 3 3 3 2 3 2 3 3 3 3 2 4 4 4 3 1 1 2 1 1 1 1 1 2 1 2 1 2 2 3 4 4 6 6 7 7 7 6 6 5 5 4 4 3 3 3 3 4 4 4 4 5 5 5 5 6 6 7 8 8 8 8 8 8 8 8 9 8 8 8 8 9 9 9 9 8 9 9 8 8 8 9 8 8 8 8 7 7 7 6 5 4 4 3 3 2 2 2 3 3 3 3 2 4 4 4 3 2 1 1 1 1 1 1 1 2 1 2 2 2 3 4 5 6 6 6 7 7 7 7 7 7 7 7 6 6 5 5 4 4 5 5 5 5 6 6 6 7 8 8 8 8 8 8 9 9 9 9 9 9 9 9 9 9 9 9 9 9 9 9 8 8 8 9 8 8 8 8 8 7 6 6 5 4 4 3 2 2 2 2 2 2 2 2 2 4 4 4 3 2 2 1 1 2 1 1 1 1 2 3 3 3 3 4 6 6 6 7 7 7 7 8 8 8 8 7 8 8 8 7 6 6 6 6 6 6 7 7 7 8 9 8 8 9 9 8 9 9 9 9 9 9 9 9 9 9 9 9 9 9 9 9 8 8 9 8 8 8 8 8 7 7 6 6 5 4 4 3 2 2 1 2 2 2 2 2 2 4 4 4 3 2 1 2 2 2 1 1 1 2 3 4 4 4 4 6 6 7 7 7 8 8 8 9 9 9 9 9 9 8 8 8 8 8 8 8 8 8 8 8 9 8 9 9 8 9 9 9 9 9 9 9 9 9 9 9 9 9 9 9 9 9 9 9 9 8 8 9 8 8 8 8 7 7 6 6 6 5 4 3 2 2 1 2 2 2 2 2 2 4 4 4 4 2 1 2 2 1 1 1 2 3 5 4 4 4 5 7 8 8 8 8 8 9 9 9 9 10 10 10 10 10 9 9 9 9 9 9 9 9 9 9 9 9 9 9 9 9 9 9 9 9 9 9 9 9 9 9 9 9 9 9 9 9 9 9 9 9 8 9 8 8 8 8 8 7 6 6 6 6 5 4 2 2 1 2 1 2 2 2 3 4 4 4 4 2 1 2 2 1 1 2 2 5 6 5 4 5 6 7 8 8 8 8 9 9 9 9 10 10 10 10 10 10 10 10 10 10 10 10 10 9 9 9 9 9 9 9 9 9 9 9 9 9 9 9 9 9 9 9 9 9 10 10 9 9 9 9 9 9 9 8 8 8 8 7 7 7 6 6 6 6 6 4 2 2 2 2 1 1 2 2 2 4 4 3 4 4 2 1 1 2 2 2 3 6 6 5 6 6 6 8 8 8 8 8 8 9 9 9 9 9 9 9 10 10 10 10 10 10 10 10 10 10 10 10 10 10 10 9 9 9 9 9 9 9 9 9 9 9 9 9 10 9 9 9 9 9 9 9 9 9 9 9 8 8 8 8 7 7 6 6 6 6 6 5 4 2 1 2 2 1 1 2 1 4 3 4 5 6 4 1 1 2 1 2 4 6 6 6 6 6 7 8 8 8 8 8 8 9 9 9 9 9 9 9 9 10 9 10 10 10 10 10 10 10 10 10 10 10 10 10 10 10 10 10 10 9 9 9 9 10 9 9 9 9 9 9 9 9 9 9 9 9 9 8 8 8 8 8 8 7 6 6 6 6 6 6 5 3 1 1 2 2 1 1 1 3 3 4 6 7 5 2 1 1 2 3 5 6 6 6 6 6 7 7 7 7 7 7 7 7 7 8 9 8 8 9 9 9 9 9 9 9 9 10 9 10 10 10 10 10 10 10 10 10 10 10 10 9 9 9 10 10 9 9 9 9 9 9 9 8 9 9 9 9 8 9 8 8 8 7 8 7 7 6 6 6 6 6 6 4 2 1 2 2 1 1 1 3 4 5 5 7 5 3 1 1 2 4 6 6 6 6 6 6 6 6 6 6 6 6 6 6 6 6 7 7 7 7 8 8 8 8 9 9 9 9 9 9 9 9 9 10 10 10 10 10 10 10 10 9 9 9 9 9 9 9 9 9 9 9 9 8 8 9 8 8 8 8 8 8 7 7 7 7 7 6 6 6 6 5 6 5 2 1 1 2 2 1 1 3 5 6 3 6 7 4 1 1 2 5 6 6 6 6 6 5 5 5 5 5 5 6 6 6 6 5 5 5 5 5 6 6 6 7 7 7 8 8 8 8 9 9 9 9 9 10 10 10 10 10 9 9 9 8 9 8 8 9 8 8 8 8 8 8 8 8 8 7 7 7 8 7 7 7 6 6 7 6 6 6 6 6 6 6 3 1 1 2 2 1 2 3 4 7 4 2 6 5 3 1 3 5 6 6 7 6 5 5 5 5 5 5 5 5 6 5 5 5 5 4 4 4 3 4 4 4 4 5 6 6 7 7 7 8 8 8 9 9 9 10 9 9 9 9 8 7 8 7 7 7 7 7 6 6 6 6 6 6 6 6 6 6 6 6 6 6 6 6 6 6 6 5 6 6 6 6 4 2 1 2 2 1 3 3 4 8 6 1 5 6 3 1 4 6 6 6 7 7 6 5 4 5 5 5 5 6 6 6 6 5 5 5 4 4 4 3 3 3 3 4 4 5 6 6 6 7 8 8 8 8 8 9 9 8 8 8 7 7 6 7 6 5 5 4 4 4 4 4 4 4 5 5 5 5 5 5 5 5 5 5 5 5 6 6 5 6 6 6 5 2 1 1 2 1 4 2 4 8 6 5 6 5 2 3 5 6 6 6 7 7 6 5 5 5 6 6 5 5 5 5 5 5 5 5 4 4 3 3 3 3 3 3 3 3 4 5 6 7 7 7 7 8 8 8 8 8 7 7 6 6 5 5 5 4 4 3 3 4 3 3 4 4 4 4 4 5 5 5 5 5 5 5 5 5 5 5 6 6 6 6 5 3 2 1 2 2 5 2 5 8 7 7 7 5 2 3 6 7 6 7 7 7 6 6 6 6 5 5 4 3 2 2 4 2 2 1 1 2 2 3 4 3 2 3 3 3 4 4 5 6 6 6 7 7 7 7 7 7 7 6 6 6 5 4 5 4 4 4 3 4 4 4 5 5 5 5 6 6 6 6 6 6 6 5 5 5 5 5 6 6 6 6 5 3 2 2 2 4 6 2 5 8 7 7 6 4 3 4 6 6 7 7 7 7 7 6 6 5 5 3 2 3 3 3 5 4 3 2 2 2 3 5 8 6 4 3 2 3 4 4 4 4 5 6 6 7 8 7 7 7 6 6 5 5 5 4 4 4 3 3 3 3 2 2 3 4 4 5 6 6 6 6 6 6 6 6 5 5 5 5 6 6 6 6 6 3 2 2 3 5 7 2 6 7 7 7 5 4 2 4 6 7 7 7 8 8 8 7 7 6 6 5 5 5 6 5 6 6 5 4 4 4 4 6 7 6 5 6 4 3 4 4 4 4 6 7 8 9 9 9 8 7 7 6 5 5 5 4 3 3 5 4 6 6 3 2 1 2 1 1 3 3 3 4 5 6 6 6 6 6 6 6 6 6 6 6 6 4 2 3 5 6 6 2 6 7 7 7 5 3 2 4 6 7 7 7 8 8 8 8 8 8 8 7 7 7 8 7 7 6 6 6 7 6 7 7 8 7 6 6 6 6 6 4 4 5 6 8 9 9 9 9 8 8 7 6 6 5 5 5 4 4 6 5 6 7 5 4 2 2 2 3 4 5 3 1 2 3 5 6 6 7 6 6 6 6 6 6 6 4 3 3 6 6 6 2 6 7 8 7 5 4 3 4 6 7 7 8 8 8 9 9 9 9 8 8 7 7 7 8 8 8 7 7 8 8 7 8 7 6 6 6 6 7 7 5 4 5 7 8 10 10 10 10 9 9 7 6 6 5 6 7 6 6 5 5 6 6 6 5 5 4 4 4 6 6 5 4 3 3 3 5 6 7 7 7 6 6 6 6 6 4 3 4 6 6 7 2 6 8 8 7 6 5 5 5 6 7 8 8 8 8 9 9 9 9 9 9 8 8 7 6 7 7 7 7 7 7 7 6 6 6 6 7 7 7 6 6 6 6 7 9 10 10 10 10 10 8 7 6 7 6 6 7 7 6 6 6 6 7 7 7 7 7 6 6 6 7 7 6 6 6 6 6 6 6 7 7 7 7 6 6 6 4 4 5 6 7 7 2 5 8 7 7 6 5 6 5 5 7 7 8 8 8 9 9 9 9 9 9 9 9 8 8 7 7 7 7 6 7 7 7 7 7 7 8 8 8 7 7 7 6 7 9 9 10 10 10 9 8 7 6 7 7 7 8 7 7 6 6 7 7 7 8 8 7 7 7 8 7 7 7 7 7 7 7 7 7 7 7 7 7 6 5 6 4 5 6 7 7 7 2 5 8 7 7 7 5 7 5 5 7 8 8 8 8 9 9 9 10 10 9 10 10 10 10 10 10 10 9 9 9 9 9 9 9 9 9 9 8 8 7 7 7 8 9 10 10 10 10 9 8 7 6 7 7 7 8 8 8 8 7 6 6 6 7 7 7 7 7 7 7 7 7 7 7 7 8 8 7 7 8 7 7 7 5 5 6 7 7 8 8 7 2 4 8 8 7 7 6 7 5 5 7 8 8 8 8 9 9 9 10 10 10 10 10 10 10 10 10 10 10 10 10 10 10 9 10 10 9 9 8 8 7 7 7 8 9 10 10 10 9 9 9 7 7 7 8 8 8 8 9 9 8 8 7 7 6 6 6 6 6 7 7 7 7 7 7 7 8 7 7 7 7 7 7 6 5 5 7 8 7 8 8 7 2 4 7 8 7 7 7 7 5 5 7 8 8 8 8 9 9 9 9 10 10 10 10 10 10 10 10 10 10 10 10 10 10 10 10 10 9 8 8 8 8 7 7 8 9 9 10 10 9 9 9 8 7 7 7 8 8 8 9 9 9 9 9 9 9 8 8 8 8 8 8 8 8 8 8 7 7 7 8 7 7 7 7 7 5 5 7 7 6 8 7 7 3 3 6 8 7 7 8 7 5 5 6 7 7 8 8 9 9 8 9 9 10 10 10 10 10 10 10 10 10 11 11 10 10 10 10 9 9 8 8 8 8 8 8 8 9 9 10 10 9 9 9 8 7 7 7 8 8 8 9 9 9 9 9 10 9 9 9 8 9 9 9 9 9 8 9 8 8 8 8 8 7 7 7 7 5 5 7 6 7 7 7 6 3 2 5 7 7 7 8 8 5 5 6 7 8 7 8 9 8 8 9 9 9 9 10 10 11 11 10 11 11 11 11 10 10 10 10 9 8 8 8 8 8 8 8 9 9 10 10 10 9 9 9 8 8 8 8 8 8 8 8 9 9 10 9 10 10 10 9 9 10 10 10 9 9 9 9 9 8 8 8 7 7 7 7 6 5 5 8 6 7 7 7 6 4 3 3 7 7 8 8 8 6 5 6 7 7 8 8 8 8 8 9 9 9 9 10 10 11 10 11 10 11 11 11 10 10 9 9 9 8 8 8 8 8 7 8 9 9 9 9 10 9 9 9 8 8 8 8 7 8 8 9 9 9 9 9 10 10 10 10 10 10 10 10 9 9 9 9 9 8 8 8 7 7 7 7 7 4 6 8 7 7 7 7 5 4 3 3 5 7 8 8 8 6 5 6 7 7 7 8 8 8 9 9 9 9 9 10 10 11 11 10 11 10 10 10 10 10 9 9 8 8 8 8 8 7 7 8 9 9 10 9 9 9 9 9 8 8 8 8 8 8 7 9 9 9 9 9 10 10 10 10 10 10 10 10 10 9 9 9 9 8 8 8 7 7 7 7 6 4 6 8 8 7 7 6 5 4 4 3 3 6 7 7 7 6 5 6 6 7 7 7 8 8 8 9 9 9 9 9 9 10 10 10 10 10 10 10 9 9 9 8 7 8 8 8 8 7 8 8 8 9 10 10 9 9 9 9 8 8 7 8 8 8 7 7 9 9 9 9 9 10 10 10 10 10 10 10 10 10 9 9 9 8 8 8 7 7 7 7 6 4 6 8 9 8 7 6 4 3 4 3 3 5 7 7 7 6 5 6 7 7 7 7 8 8 8 8 9 9 9 9 9 10 9 9 10 9 9 9 9 9 8 7 7 8 9 8 8 8 8 8 8 8 9 9 9 9 9 8 8 8 7 8 9 9 8 7 7 8 9 9 9 9 10 10 10 10 9 10 10 9 9 9 9 9 8 8 7 7 7 7 5 5 6 8 9 8 6 5 4 4 3 3 3 3 5 6 7 7 5 6 6 7 6 7 7 8 8 8 8 9 8 9 9 9 9 9 9 9 9 8 8 8 7 6 7 8 8 8 8 8 8 8 8 10 10 10 10 9 9 9 8 8 8 8 8 9 8 7 7 7 8 9 9 9 9 9 10 10 9 9 10 9 9 9 9 9 8 8 7 7 7 7 5 5 7 7 8 8 6 4 5 3 3 3 4 3 4 5 6 6 5 5 6 6 6 6 7 8 8 8 8 8 8 8 9 9 8 9 9 9 8 8 8 8 7 6 7 8 8 8 8 8 8 8 9 10 10 10 10 10 10 9 9 8 8 8 9 8 9 8 6 8 8 8 8 9 9 9 9 9 9 9 9 9 8 9 8 8 8 7 7 7 6 7 5 5 7 8 7 7 5 4 5 3 4 3 4 3 4 3 4 5 5 5 6 6 6 6 7 7 7 8 8 8 8 8 8 8 8 9 8 8 8 8 8 8 7 6 6 7 7 7 7 7 6 7 8 9 9 9 9 9 9 9 8 7 8 8 8 8 8 7 7 8 8 7 8 8 9 9 9 9 9 9 9 9 8 8 8 8 8 7 7 7 6 6 5 6 7 7 7 6 4 5 4 4 3 3 4 3 4 3 3 4 5 5 6 6 6 6 7 7 7 7 8 8 8 8 8 7 8 8 8 8 8 8 8 9 8 7 5 4 5 5 5 6 6 6 6 8 8 8 7 7 8 7 6 7 7 6 7 7 6 6 6 7 8 7 7 7 8 8 8 9 8 9 8 8 8 8 8 8 7 7 7 7 6 6 5 7 7 7 5 4 4 4 5 3 3 3 3 4 3 4 3 3 5 5 6 6 6 6 6 7 7 7 7 7 7 8 7 8 8 8 8 8 8 8 8 9 8 8 6 3 2 2 2 3 4 5 5 6 7 7 6 6 6 6 6 5 5 4 3 4 5 5 7 7 8 7 7 7 7 8 8 8 8 8 8 8 8 8 7 8 7 7 7 6 6 5 5 7 7 5 5 4 4 5 4 3 3 4 4 3 3 4 3 4 4 5 6 6 6 6 6 7 7 6 7 7 7 7 7 8 8 8 8 8 8 8 9 9 9 8 8 6 5 3 3 3 2 2 3 4 5 5 5 5 4 3 2 3 3 3 3 4 5 6 7 7 7 8 7 7 7 7 7 7 7 7 7 8 7 7 7 7 7 6 6 7 6 5 5 6 4 4 4 4 4 4 5 3 4 3 4 3 4 3 3 3 5 5 6 6 6 6 6 6 7 7 7 7 7 7 7 8 8 8 8 8 8 8 9 9 9 9 9 8 7 6 5 5 5 4 3 3 3 3 4 4 4 4 5 5 6 6 6 6 6 7 7 7 7 7 7 7 6 7 7 7 7 7 7 7 7 7 7 7 7 6 6 6 6 6 4 4 4 4 4 5 4 4 4 3 4 3 4 4 3 4 3 3 5 5 6 6 6 6 5 6 7 7 7 7 7 7 8 8 8 9 8 7 8 9 9 9 8 8 8 8 8 8 7 7 7 7 6 6 5 5 6 6 7 6 7 7 7 7 7 7 6 7 7 7 7 7 7 7 6 6 7 7 7 7 7 7 7 7 7 6 6 6 6 6 6 6 3 4 4 4 5 4 4 5 4 3 4 3 4 3 3 4 3 3 4 5 6 6 7 6 6 7 7 8 7 7 7 8 8 8 8 9 8 7 8 8 8 8 8 8 8 8 8 8 8 8 8 8 8 7 7 7 7 7 7 8 8 8 7 7 7 7 7 7 7 7 7 7 7 7 6 6 7 7 7 7 7 7 7 7 7 6 6 6 6 6 6 5 3 4 4 4 4 4 5 4 5 3 3 3 3 4 3 3 4 3 4 5 6 6 7 6 7 7 7 8 8 8 8 8 8 8 8 8 8 7 8 8 8 8 8 8 8 8 8 9 8 9 9 8 8 8 7 7 8 8 8 8 8 8 7 7 7 7 7 7 7 7 7 7 7 7 7 7 7 7 7 7 7 7 7 7 6 6 6 6 6 6 6 4 3 4 4 5 4 4 5 4 5 3 3 4 3 3 4 3 3 4 3 5 6 6 7 6 7 7 8 8 8 8 8 8 7 8 8 7 8 7 8 8 8 7 8 8 8 8 9 9 8 9 9 10 9 9 8 8 8 7 8 8 8 8 7 7 7 7 7 7 7 7 6 7 7 8 8 7 8 8 8 8 8 7 7 7 7 6 7 7 6 6 6 4 3 4 4 4 4 4 5 5 5 3 3 3 3 3 4 3 4 3 4 5 6 6 7 7 7 7 7 8 9 9 8 8 7 8 8 7 7 7 7 8 8 7 7 8 7 8 9 9 9 9 9 10 10 10 8 8 8 8 8 8 8 8 8 7 7 7 7 6 7 7 7 7 7 7 7 8 8 8 8 8 8 7 7 7 7 7 7 6 6 6 6 3 4 4 4 4 4 4 5 4 5 4 3 3 4 3 4 3 4 4 3 5 6 6 7 7 7 7 8 8 9 9 8 8 7 8 8 7 7 7 7 7 7 7 7 7 8 8 8 9 9 8 9 9 10 10 9 9 8 8 8 8 8 8 8 7 7 7 7 6 7 7 6 6 6 7 7 8 9 8 8 9 8 7 7 7 7 7 7 7 6 6 5 3 4 4 4 4 4 4 5 4 5 3 4 3 3 3 3 4 3 4 3 4 5 6 7 7 6 7 8 8 8 9 9 8 7 8 8 7 7 7 7 6 7 7 6 6 6 6 6 6 5 5 6 6 6 6 7 8 7 7 6 6 6 6 7 6 7 7 7 6 6 6 6 6 6 7 7 8 8 8 9 9 8 7 7 7 7 7 7 6 6 6 4 4 4 4 4 4 4 5 4 4 5 3 3 3 4 4 3 4 4 3 4 4 5 5 6 7 7 7 7 8 8 9 9 8 7 8 8 7 7 6 6 4 4 4 3 4 4 4 4 5 5 3 5 5 5 5 3 4 5 5 6 4 4 5 5 4 5 5 6 6 6 5 6 6 6 7 7 7 8 7 9 9 7 7 7 7 7 7 7 6 6 5 4 4 4 4 4 5 4 4 5 4 5 4 3 3 4 4 3 4 3 4 3 4 4 6 6 6 7 7 7 7 8 8 9 9 8 8 8 7 6 7 5 2 1 2 2 5 6 5 6 8 9 6 8 9 9 8 5 7 9 9 9 6 6 9 7 4 6 5 3 3 2 2 2 5 6 7 8 8 8 8 9 8 7 7 6 7 7 7 7 6 5 5 3 4 4 4 4 4 5 4 4 4 5 3 3 4 3 4 4 3 4 3 4 3 4 5 6 6 6 6 7 7 7 8 9 8 8 8 8 8 7 7 7 5 3 3 1 4 7 3 6 9 9 7 9 10 10 10 4 8 10 10 10 7 9 10 8 6 8 6 6 4 1 1 3 5 6 7 7 8 7 8 9 8 7 7 6 7 7 7 6 6 5 4 4 4 4 5 4 4 5 4 4 5 4 3 3 4 3 3 4 3 4 4 3 3 4 5 6 6 6 6 6 7 7 8 9 9 9 8 8 8 8 8 8 8 7 6 6 5 5 4 4 5 6 5 8 9 10 9 3 8 10 10 10 7 8 10 8 6 8 5 5 4 4 5 7 7 7 7 8 8 7 9 8 7 7 6 7 7 7 6 6 6 5 3 4 4 5 4 4 5 4 5 4 4 5 3 3 3 4 3 4 3 3 4 4 3 3 5 5 6 6 6 6 7 7 8 8 9 9 8 8 8 8 8 8 9 8 7 6 6 7 7 7 6 6 6 6 6 7 7 5 7 8 6 7 7 5 6 6 4 6 5 5 5 6 6 7 8 8 7 7 8 8 8 8 7 7 7 7 7 7 6 6 5 4 4 4 4 4 4 4 5 4 4 4 4 4 4 3 3 4 3 4 3 4 3 4 3 4 4 5 5 6 6 6 7 6 8 8 8 8 8 8 8 9 8 8 8 8 7 7 7 7 8 7 8 9 8 7 7 7 6 6 7 7 6 6 6 6 6 6 6 6 6 6 6 7 7 7 8 8 8 7 8 8 8 8 7 6 6 7 7 6 6 6 4 4 4 4 4 4 4 4 5 4 4 5 4 4 3 3 3 3 4 3 3 3 3 4 4 3 4 4 5 6 6 6 6 6 7 8 8 8 8 8 8 9 9 7 7 8 7 7 7 7 7 7 7 9 9 9 8 8 7 8 9 8 9 8 8 8 8 7 7 7 6 7 7 7 7 8 8 8 8 7 8 8 8 7 6 6 7 7 6 6 6 5 4 3 4 4 4 4 4 4 4 4 4 4 4 5 3 3 3 3 3 3 4 3 3 4 3 4 3 4 5 5 6 6 7 6 7 7 8 8 8 8 8 8 8 8 7 7 7 7 7 7 7 7 7 8 8 9 9 9 8 8 9 9 9 9 8 8 8 7 7 7 7 6 7 7 8 8 8 8 7 7 8 8 8 7 6 7 7 7 6 6 6 4 4 4 4 4 4 4 5 4 5 4 4 4 4 5 3 3 3 3 3 4 3 4 4 4 3 4 3 3 4 5 6 6 6 7 7 7 7 8 8 8 8 8 8 8 8 7 7 7 8 7 7 7 7 8 8 8 8 8 8 8 9 8 8 8 8 7 7 7 7 7 6 6 7 7 8 8 8 7 7 8 8 8 7 6 6 7 7 6 6 6 5 4 4 4 4 4 4 4 4 5 4 4 4 4 5 4 4 3 3 3 4 3 4 3 3 4 4 4 3 4 4 5 5 6 6 7 6 7 7 7 8 8 8 8 8 8 7 7 7 7 7 7 7 7 7 8 8 7 8 7 8 8 8 8 8 7 8 7 8 7 7 7 7 6 7 7 8 8 8 7 7 8 8 8 6 6 7 7 7 7 6 5 4 4 4 4 4 4 4 4 5 4 4 4 4 5 4 4 4 3 3 3 3 4 4 3 3 3 4 3 3 5 6 4 4 6 6 6 6 6 7 7 8 8 8 7 8 8 8 7 7 7 7 7 7 7 7 7 7 7 7 7 7 7 7 7 7 8 8 7 7 7 7 7 7 7 7 7 8 8 7 7 7 8 7 7 6 7 7 7 6 6 6 4 4 4 4 4 4 4 4 5 4 4 4 4 4 4 4 4 3 3 4 3 3 4 4 3 4 3 3 4 7 9 8 4 4 5 5 6 6 7 7 7 8 7 8 8 8 8 8 7 7 7 7 7 7 7 7 7 7 7 7 7 8 7 7 7 7 7 7 7 7 7 7 7 7 7 7 7 8 7 7 7 8 8 7 7 6 7 7 6 6 5 6 6 5 4 4 4 4 4 4 4 4 4 4 4 4 4 4 4 3 3 3 4 3 3 3 4 3 3 6 9 9 8 7 5 5 5 5 6 6 6 6 7 8 8 8 8 8 8 8 8 7 7 7 8 7 7 8 8 7 7 7 7 7 7 7 7 7 7 7 7 7 7 7 7 7 7 7 7 8 7 7 7 8 7 7 6 7 7 6 6 5 4 5 9 9 5 4 4 4 4 4 5 4 5 4 4 4 4 4 4 3 3 3 3 3 3 3 3 3 8 10 9 7 10 9 4 5 5 5 5 5 6 6 7 7 8 7 8 8 8 9 8 8 8 7 7 7 7 8 8 8 8 8 7 7 7 7 8 7 7 7 7 7 7 7 7 7 7 7 8 8 8 7 7 7 7 6 6 7 6 6 5 5 5 5 7 10 11 7 4 4 4 5 4 4 5 4 5 4 4 4 4 3 3 3 4 4 3 3 4 8 10 8 7 10 11 8 4 5 5 5 4 5 5 5 6 7 7 7 8 8 8 8 8 8 8 8 8 8 7 8 8 9 9 9 8 8 8 8 8 8 7 7 7 7 7 7 7 7 7 8 8 8 8 7 7 7 7 6 6 6 5 5 5 5 5 7 8 8 9 11 8 3 4 4 5 4 4 5 4 5 4 4 4 3 3 3 4 3 3 4 9 10 8 8 10 10 8 6 5 5 5 5 4 5 5 5 5 6 6 7 7 7 8 8 8 9 9 9 9 9 8 8 9 9 9 9 9 9 9 9 9 9 9 8 8 8 8 8 7 8 8 8 8 7 7 7 7 7 6 6 6 6 5 5 6 6 4 9 11 7 8 10 12 7 3 4 4 4 4 4 5 4 4 4 4 3 3 3 3 2 3 10 11 9 6 10 11 9 6 5 6 5 6 5 5 4 4 5 5 5 6 7 7 7 8 8 8 9 9 8 9 9 9 9 9 9 9 9 9 9 10 9 9 9 9 9 8 8 8 9 7 7 9 8 8 7 7 7 7 6 6 6 6 5 5 6 6 6 4 8 12 11 7 9 10 11 7 3 4 4 4 4 4 4 4 4 4 3 3 3 3 1 8 12 11 6 9 11 10 7 4 4 6 6 5 5 5 4 4 4 5 5 5 6 6 7 7 8 8 8 8 8 8 9 9 9 9 9 9 9 9 9 9 9 9 9 9 8 8 8 8 8 8 8 8 8 8 7 6 6 6 6 6 5 5 5 6 6 6 6 5 7 11 13 9 7 10 11 11 4 4 4 5 4 4 4 4 4 4 3 3 4 1 6 12 12 8 7 12 11 9 5 3 5 6 5 5 5 5 5 4 4 4 5 5 5 5 6 7 7 8 8 8 8 7 8 9 8 9 8 9 9 9 9 9 9 9 9 9 8 8 8 8 8 8 8 8 8 7 6 6 6 6 6 5 5 5 6 7 7 6 6 5 6 9 12 12 7 8 10 12 10 3 4 5 4 4 4 4 4 5 3 3 2 2 11 13 12 7 9 12 11 8 3 3 5 6 6 5 6 5 5 5 4 4 4 4 5 5 5 6 7 7 7 8 8 8 8 8 8 8 8 9 9 9 9 8 8 8 8 8 8 8 8 8 8 8 8 7 7 6 6 5 6 5 5 4 6 6 6 7 7 6 6 5 4 8 11 13 8 7 10 11 12 5 3 4 4 4 4 4 4 4 4 3 0 7 13 13 11 7 11 12 11 7 2 2 6 6 6 6 5 5 5 5 4 4 4 4 4 5 4 5 6 6 6 7 7 7 8 8 8 8 8 8 8 8 9 8 8 8 8 8 8 8 7 8 8 7 7 7 7 6 5 5 5 5 5 5 6 7 7 6 6 6 7 5 1 7 10 12 10 5 10 11 12 9 3 4 4 4 4 4 4 4 4 2 1 10 13 13 10 8 12 13 11 7 1 1 6 7 6 6 5 5 5 5 5 4 4 4 4 4 5 5 5 5 5 6 7 7 7 8 8 8 8 8 7 8 8 8 8 8 8 8 8 7 7 7 7 6 6 6 6 5 5 5 4 6 5 6 7 7 6 6 6 6 7 4 0 6 9 12 12 5 8 11 12 10 3 4 4 5 4 4 4 4 3 2 2 13 13 13 10 9 12 13 12 6 0 3 7 7 6 6 6 6 5 5 5 4 4 4 3 4 4 5 5 5 5 5 6 6 6 7 7 7 7 7 7 7 7 7 8 7 8 7 7 7 7 6 6 6 6 5 5 5 5 5 6 6 7 7 7 6 7 6 6 6 7 4 0 4 9 12 13 6 6 10 11 11 4 4 4 4 4 4 4 4 3 1 5 13 13 13 10 10 13 13 13 5 1 6 7 7 6 6 6 6 6 5 5 5 4 4 4 4 4 4 5 5 5 5 5 5 6 6 6 6 6 7 7 7 7 6 7 7 7 6 6 6 6 6 5 5 5 5 5 5 5 6 7 7 7 7 7 6 7 6 6 6 7 4 0 4 10 11 13 8 5 10 11 12 5 3 4 4 4 5 4 4 3 1 8 13 12 13 10 10 12 13 13 3 2 7 7 7 7 6 6 7 6 6 5 5 5 4 4 4 4 4 4 5 5 5 5 5 5 5 6 6 6 6 6 6 6 6 6 6 6 6 6 6 5 5 5 5 5 5 5 6 6 7 7 7 7 7 7 7 6 6 6 7 6 5 0 4 10 12 13 8 4 10 12 11 5 3 4 4 4 4 4 4 2 3 9 13 12 13 11 10 13 13 13 3 3 7 7 7 7 7 7 7 7 6 6 6 5 4 4 4 4 4 4 4 4 5 5 5 5 5 5 5 5 5 5 5 5 5 5 5 5 5 5 5 5 5 5 5 5 5 6 7 7 7 8 8 7 7 7 7 7 6 7 6 6 5 0 5 11 12 13 9 5 11 11 11 7 5 4 4 4 4 4 4 4 7 9 12 12 12 11 10 12 13 14 5 3 7 7 7 7 7 7 7 7 6 6 6 5 5 4 4 4 4 4 4 4 4 5 5 5 5 5 5 5 5 5 5 5 5 5 5 5 5 5 5 5 5 4 5 6 6 7 7 7 8 7 7 7 7 7 7 6 7 7 6 6 4 1 7 11 12 12 7 7 11 12 10 9 9 8 6 4 4 5 5 8 10 10 11 13 13 12 10 12 13 14 6 3 7 7 7 7 7 7 7 7 7 6 6 6 5 5 5 4 4 4 4 4 4 4 4 4 5 5 5 5 5 5 5 5 5 5 5 5 5 4 5 5 5 5 6 7 7 7 8 8 8 7 7 7 7 7 7 7 7 7 7 6 3 2 10 12 12 11 6 9 11 11 10 9 9 10 10 9 6 7 7 10 10 10 9 12 13 12 11 11 13 14 10 3 7 7 8 7 7 7 7 7 7 7 7 6 6 5 5 5 4 4 4 4 4 4 4 4 4 4 4 4 5 5 4 4 5 5 4 4 4 4 5 5 5 7 7 8 7 7 7 8 8 7 7 7 7 7 7 7 7 7 7 5 1 6 11 12 13 9 6 10 11 11 9 9 10 9 9 10 10 9 9 11 10 11 9 12 13 12 11 11 13 14 12 3 7 7 7 8 7 7 7 7 7 7 7 7 6 6 6 5 5 5 4 4 4 4 4 4 4 4 4 4 4 4 4 4 4 4 4 4 4 5 6 6 7 7 7 7 7 7 7 8 7 7 8 8 8 7 7 7 7 7 6 4 2 10 12 12 12 7 7 11 11 11 9 9 10 9 9 9 10 10 10 