P2
92
112
255
104 100 101 103 100 104 102 103 96 85 75 83 81 82 86 70 72 78 94 102 95 81 57 58 51 48 65 66 66 64 59 65 101 105 93 87 69 68 57 56 61 70 85 79 76 66 59 52 49 45 53 46 51 63 68 61 62 62 60 59 53 54 48 44 46 45 44 30 35 31 28 37 43 32 31 33 26 35 43 42 39 41 49 39 42 51 49 49 55 54 61 46 103 103 102 100 102 102 108 95 90 78 82 81 76 77 85 78 80 85 104 101 83 51 52 54 62 72 89 80 68 79 80 94 108 98 87 86 87 78 64 70 79 83 85 84 80 73 61 62 65 59 60 55 56 59 65 67 59 63 69 68 55 49 50 45 44 43 42 44 38 30 32 32 35 33 34 32 27 23 38 40 36 43 43 40 45 36 52 55 47 49 64 54 102 102 102 102 100 98 104 82 78 86 86 77 75 85 94 93 79 85 103 88 47 57 57 58 83 100 96 89 87 98 105 105 104 87 93 94 90 85 87 76 68 67 78 69 75 70 72 68 72 60 59 59 53 60 65 64 71 66 71 64 62 54 52 43 43 43 43 43 37 36 33 34 26 33 33 28 33 22 37 38 28 50 39 36 50 38 45 58 38 48 63 58 99 99 102 100 100 102 87 80 64 76 80 82 94 100 93 97 73 85 86 62 59 62 66 79 82 94 102 93 93 99 104 105 104 97 95 92 88 93 97 91 76 78 84 73 67 65 66 71 67 57 57 62 64 62 61 61 60 69 66 73 68 64 56 48 43 30 30 28 33 30 24 35 34 34 26 30 24 28 34 36 33 41 37 33 44 47 39 63 37 39 56 57 102 98 100 102 99 97 87 58 66 71 85 91 111 91 82 89 91 84 54 66 72 63 77 76 71 86 104 108 90 100 105 102 93 100 100 99 95 89 91 78 80 73 78 73 68 61 65 68 68 59 62 56 56 52 44 49 55 66 64 57 58 55 58 51 52 44 31 27 28 27 26 37 33 32 32 23 22 33 24 29 34 40 29 29 44 43 46 43 49 33 50 61 98 102 97 96 100 91 65 66 75 71 81 100 89 77 89 85 84 78 66 70 64 69 66 70 77 78 91 97 74 73 69 76 82 91 98 97 94 90 92 83 78 78 69 65 62 67 59 61 62 65 66 67 61 64 48 54 45 37 52 48 55 44 50 52 45 50 38 33 29 28 25 38 31 33 29 21 20 21 25 28 33 34 27 34 32 44 46 32 45 35 44 57 99 96 96 97 94 78 64 70 69 60 82 81 61 78 92 77 76 86 74 71 76 53 54 67 72 65 73 73 57 62 61 72 88 85 90 97 98 99 103 95 93 83 66 62 56 57 64 66 60 69 81 74 69 69 54 54 51 47 45 43 54 58 55 56 56 53 54 47 35 34 28 32 25 26 41 22 16 29 27 27 32 33 25 23 27 39 45 30 30 43 43 39 97 96 95 93 91 60 80 61 56 61 72 69 65 87 75 66 74 75 81 77 59 47 48 53 68 76 60 50 60 70 81 75 72 84 84 100 97 83 80 85 84 76 73 65 64 65 57 59 50 69 79 78 75 72 62 58 43 56 51 55 55 51 61 56 54 48 48 43 42 41 33 34 26 29 45 30 27 25 32 25 33 31 23 24 27 36 37 31 28 29 44 46 98 95 87 98 78 65 69 54 50 56 64 67 74 78 52 61 65 67 68 61 45 50 49 47 54 66 53 81 87 70 73 71 76 88 87 88 99 87 74 89 83 77 78 79 72 72 73 75 76 69 65 70 67 64 71 72 64 55 59 70 73 59 50 62 61 49 52 40 34 41 40 43 34 24 36 37 29 26 30 26 30 28 26 28 27 37 27 29 30 28 44 43 95 89 87 91 79 67 65 41 44 51 63 70 74 61 54 62 55 68 54 51 47 56 47 50 49 60 69 88 84 64 72 68 79 69 83 84 86 83 78 84 74 73 73 74 73 59 63 71 77 79 71 67 68 58 60 66 66 66 58 62 72 75 65 59 54 47 51 46 42 39 44 43 37 27 30 37 31 24 30 29 29 29 27 25 32 28 25 24 34 30 39 41 88 84 83 84 77 64 48 36 40 44 60 58 66 53 62 53 51 68 56 52 53 49 46 50 49 61 65 59 66 75 74 64 69 68 78 71 73 68 78 77 69 76 79 76 73 64 68 71 67 71 74 75 71 69 67 57 62 58 56 55 60 59 63 65 72 66 59 57 58 42 40 45 41 30 28 31 29 28 30 29 31 25 24 28 25 21 25 27 33 32 33 40 85 84 78 79 75 62 43 36 31 38 58 45 47 57 51 45 55 56 54 46 48 46 42 52 56 49 47 43 68 79 74 62 78 74 77 87 95 85 79 75 71 70 66 72 77 63 62 75 77 76 70 71 65 71 73 67 62 54 56 61 48 48 51 52 69 65 68 58 77 64 43 39 48 37 32 30 30 32 23 29 27 23 24 23 24 20 21 34 38 32 34 30 80 80 85 75 73 60 38 29 33 38 42 33 38 46 41 44 47 44 38 45 46 47 42 48 49 36 41 56 69 72 65 58 74 77 83 91 95 94 86 81 85 74 68 69 72 68 74 77 81 88 82 80 86 69 63 61 63 60 55 68 64 54 60 46 46 55 57 43 52 66 66 59 41 45 43 40 30 33 29 24 33 22 21 20 17 23 19 33 37 32 37 20 78 80 80 77 69 60 33 30 29 33 40 31 29 36 43 42 35 36 40 39 40 43 40 39 44 41 49 53 58 59 54 58 55 62 71 81 88 93 82 84 84 80 74 74 65 56 68 74 83 76 84 82 80 66 63 64 61 65 63 67 59 61 61 52 45 53 58 50 42 43 56 59 49 49 40 37 38 36 28 28 32 18 28 20 19 21 25 33 37 30 39 21 75 76 74 80 72 55 40 30 25 25 39 32 32 38 38 32 31 36 35 35 41 39 35 37 38 44 41 41 45 55 54 58 60 66 57 71 78 85 83 87 77 73 72 71 77 70 62 62 65 65 70 76 77 76 68 63 60 60 64 64 63 61 71 66 54 37 44 53 50 50 39 43 34 37 37 35 36 32 35 29 26 32 27 28 14 27 28 35 31 34 28 27 77 74 76 77 70 49 46 33 24 26 30 36 32 39 31 35 29 35 31 34 36 40 32 35 40 47 45 50 57 65 61 66 80 79 73 83 81 83 72 71 72 62 55 56 56 64 60 65 68 70 78 65 61 59 58 62 54 57 55 58 77 63 68 71 63 55 45 47 60 53 43 52 41 27 28 31 30 31 29 32 26 29 30 26 21 26 29 28 31 31 25 31 75 73 76 81 55 47 41 34 27 30 36 31 37 28 34 32 27 34 29 31 33 38 40 39 48 53 46 55 54 56 64 70 83 92 89 92 98 90 83 73 72 71 57 52 51 54 51 49 58 65 80 79 81 73 64 63 61 58 55 48 66 78 74 60 58 61 57 50 43 56 62 66 48 36 29 33 30 32 24 24 25 26 28 27 23 25 27 27 31 27 24 22 72 71 76 76 52 49 52 37 27 33 30 33 34 33 28 27 25 33 33 37 38 39 44 44 43 44 48 46 46 50 62 69 84 94 96 109 109 99 92 85 73 68 54 46 47 39 48 60 56 48 47 54 70 80 69 62 66 56 53 55 60 67 83 75 66 59 57 61 46 36 41 59 63 48 39 33 35 35 28 28 24 32 30 26 20 22 25 27 26 26 21 24 74 72 78 68 58 55 58 49 37 31 28 37 32 35 25 26 30 29 40 35 44 45 38 36 33 33 35 45 46 47 53 70 83 97 103 108 97 89 91 83 81 68 65 63 57 47 45 47 43 40 37 47 56 68 73 66 67 67 65 57 59 50 65 71 76 64 56 61 57 44 38 33 38 42 48 38 34 29 30 28 30 29 32 29 21 25 19 24 25 25 22 33 73 74 75 60 62 58 61 61 40 29 39 35 30 34 28 29 33 31 41 39 38 39 30 29 31 34 41 34 41 48 56 68 84 86 92 98 97 94 90 97 84 76 68 69 57 51 54 46 49 45 47 37 45 59 53 51 68 69 68 67 64 50 55 67 64 60 55 58 53 56 58 42 35 28 33 32 39 36 33 28 30 30 31 33 26 27 20 23 24 24 21 30 71 72 78 47 68 47 66 70 36 32 39 30 31 31 35 31 25 34 40 36 33 36 33 32 38 39 37 34 36 40 51 62 67 66 73 77 85 86 77 81 83 84 81 69 67 59 54 56 61 55 50 43 43 40 29 38 49 65 72 78 72 68 56 55 71 64 47 49 52 55 53 46 49 39 32 33 36 26 31 31 29 36 33 31 26 24 34 26 19 21 16 26 76 73 70 64 53 46 76 62 36 39 32 30 31 33 33 28 30 34 36 33 30 33 26 33 38 30 37 41 35 43 49 58 54 55 55 65 70 72 72 68 77 80 76 76 64 63 53 51 51 50 52 47 40 46 46 34 45 45 50 65 81 88 80 70 58 71 72 48 53 58 50 48 48 39 32 37 48 38 40 31 23 28 31 35 26 24 37 31 26 21 21 30 77 71 70 61 42 52 67 58 39 37 31 30 27 37 32 21 31 37 31 26 28 26 31 31 30 38 38 34 40 40 40 48 56 51 59 81 73 72 61 70 74 74 67 64 71 68 64 59 53 46 49 46 47 46 47 40 48 40 34 38 36 50 54 73 70 64 68 71 64 60 55 56 50 45 33 39 40 41 51 42 44 29 28 32 32 26 31 35 30 30 28 22 76 74 73 57 44 63 55 56 42 31 30 34 28 35 25 27 36 34 27 30 29 28 27 29 34 37 36 33 45 40 39 48 53 63 66 74 79 75 70 57 67 67 66 73 66 66 73 74 73 64 63 59 53 52 50 41 38 42 39 38 37 28 20 37 42 52 61 66 72 73 53 54 50 43 43 40 35 32 34 33 41 36 32 34 32 34 34 29 35 37 25 29 69 76 69 58 41 61 58 47 43 27 26 39 29 34 28 29 31 30 29 27 29 34 28 30 29 33 37 37 36 38 32 40 41 43 52 53 62 69 79 67 65 63 64 68 74 71 70 75 69 71 78 78 70 64 62 52 46 48 44 36 38 30 24 27 29 36 50 50 61 73 68 63 60 50 39 39 37 34 31 31 31 25 33 35 24 34 36 30 32 34 33 21 75 71 68 53 49 56 52 37 35 35 28 31 32 32 34 31 27 28 32 28 32 28 30 27 28 34 36 40 35 36 42 40 43 39 43 44 46 49 58 66 66 68 66 64 66 64 64 77 71 76 69 68 60 62 64 60 45 45 49 46 41 40 39 33 26 24 33 40 35 39 48 52 59 56 52 46 49 35 36 35 29 26 23 17 19 23 33 32 25 33 27 31 72 73 62 52 57 41 35 33 38 36 31 29 30 29 30 33 26 32 30 31 32 26 26 30 38 29 34 34 32 46 38 42 41 42 49 42 48 41 45 62 67 66 65 68 68 69 63 68 75 80 85 85 80 71 71 63 45 49 49 51 44 46 38 36 26 27 25 30 38 47 44 38 37 42 47 43 41 42 51 49 40 39 32 28 25 14 22 33 21 34 25 30 69 79 57 52 52 40 26 30 36 38 31 29 27 30 32 29 28 34 29 26 28 28 29 33 35 29 33 35 34 41 45 40 39 43 48 55 54 58 53 38 53 65 72 67 69 78 72 73 76 76 75 81 82 78 73 66 52 56 54 48 42 41 33 35 32 31 34 29 42 67 65 48 48 55 50 44 45 44 43 55 46 45 48 46 47 36 26 23 22 26 32 32 74 80 58 39 54 39 31 25 38 32 36 29 25 24 32 31 28 31 28 26 26 28 28 29 32 38 32 34 40 49 46 45 46 51 55 60 58 56 51 46 38 44 57 57 57 67 71 82 86 80 87 75 66 59 57 53 46 45 45 47 41 39 31 34 38 34 25 32 51 38 35 36 39 38 35 31 30 36 31 29 27 24 35 35 31 45 35 30 27 26 24 37 71 81 64 36 42 32 30 33 36 31 34 31 25 26 29 36 32 28 28 24 22 34 28 31 36 38 34 43 51 52 56 61 52 57 63 67 60 60 57 56 54 52 50 46 39 45 43 49 66 76 78 79 67 74 47 45 42 41 39 42 37 36 30 41 42 33 26 33 34 31 27 40 37 38 33 36 27 28 30 28 31 32 37 35 28 31 29 28 29 22 26 29 72 76 71 32 29 35 32 31 38 31 31 29 26 27 23 32 36 32 30 25 24 29 36 38 36 43 44 55 55 56 64 74 65 64 62 73 76 74 80 66 72 67 68 51 46 41 38 33 37 42 57 61 61 69 59 54 40 44 59 46 35 38 44 46 38 33 36 45 34 32 31 47 42 34 41 43 36 30 37 46 53 38 35 31 29 35 35 30 27 22 24 22 74 75 67 30 30 38 31 31 36 34 30 32 26 25 21 34 37 37 29 28 35 34 40 46 45 58 61 71 75 80 71 78 89 87 68 70 76 89 90 77 76 79 79 70 65 50 45 41 41 30 36 43 43 58 62 65 50 63 66 61 50 54 45 44 46 53 53 44 47 55 43 46 41 48 51 45 35 28 56 55 41 32 36 34 31 31 31 34 25 28 28 25 74 77 65 38 20 34 30 30 33 36 28 30 32 23 20 33 40 42 38 46 50 50 47 49 63 81 96 95 101 109 100 97 91 100 96 73 70 78 86 78 85 84 82 82 75 74 60 51 45 38 46 46 43 60 71 72 78 74 59 62 53 44 51 52 59 61 58 49 55 64 55 52 53 58 57 48 39 43 67 45 35 32 38 36 29 32 33 33 34 27 32 21 74 77 69 32 24 31 29 36 33 32 29 32 33 30 29 42 56 61 63 64 68 60 66 73 85 111 121 122 124 129 127 123 105 95 98 87 74 63 73 69 79 78 80 85 82 82 75 67 63 50 50 53 51 58 65 61 76 71 72 75 79 77 77 73 67 70 76 68 63 69 79 77 71 64 67 58 56 64 52 44 44 43 43 39 37 36 38 38 31 32 31 18 73 82 58 26 30 30 31 36 35 32 26 38 36 35 49 70 90 100 79 75 71 80 89 110 119 124 127 128 136 138 137 132 125 109 98 94 73 65 61 67 71 73 80 81 85 88 82 83 78 58 50 47 51 56 61 65 71 82 86 94 92 84 80 83 80 79 80 64 78 93 95 91 79 81 89 70 60 65 52 54 51 55 52 49 47 46 44 44 40 32 30 24 70 88 70 41 34 28 33 38 36 31 26 43 48 67 87 106 114 111 104 94 82 108 118 135 143 135 133 133 140 143 137 133 136 134 118 113 101 81 64 62 58 67 76 80 86 86 86 85 87 78 70 61 52 51 60 54 64 66 64 68 69 69 71 82 73 70 83 83 101 94 86 104 101 90 84 82 79 74 69 66 72 65 62 57 61 59 56 47 44 31 32 27 97 111 132 102 30 22 39 36 32 32 38 45 71 94 117 116 119 113 118 111 107 129 139 140 147 152 151 154 153 150 148 150 153 153 145 136 136 123 107 78 67 66 71 74 76 83 83 86 95 90 80 76 75 75 66 66 70 63 66 65 71 69 81 78 88 88 89 99 90 87 96 116 92 96 90 89 93 84 83 86 81 81 73 76 66 63 67 52 38 43 28 28 109 123 144 119 61 24 34 39 39 31 36 70 97 110 121 125 115 119 120 123 128 130 144 142 148 155 159 161 164 158 164 167 170 167 158 159 157 152 146 131 100 86 82 82 84 91 84 89 88 98 92 93 97 91 89 91 99 90 90 85 95 97 100 105 99 105 99 99 95 104 108 103 102 105 100 102 107 103 105 108 100 94 82 82 79 62 60 61 47 39 32 30 88 122 145 112 61 27 31 40 38 33 52 92 114 115 122 128 119 120 125 124 125 137 144 149 145 156 156 160 161 163 171 166 174 173 170 170 172 169 158 153 140 118 101 98 98 92 95 94 103 104 106 107 114 116 120 122 130 125 117 114 122 123 123 123 113 118 110 109 109 116 110 108 115 120 120 119 119 111 122 118 109 104 90 83 78 65 60 58 56 43 34 31 39 86 150 124 69 46 35 38 36 46 77 115 123 117 131 125 121 124 125 127 128 140 146 147 147 153 150 154 158 162 167 170 168 171 172 173 176 176 177 170 165 154 139 136 127 112 117 115 119 119 128 132 136 139 140 141 140 139 134 131 140 138 137 130 119 121 124 128 123 126 119 127 130 126 130 127 125 119 130 122 118 111 99 88 74 71 58 55 58 45 37 37 51 33 124 137 90 45 50 31 41 62 98 123 123 123 131 127 124 123 126 128 138 149 144 144 151 150 148 152 157 164 161 165 166 165 170 171 174 173 175 177 172 170 168 161 154 144 142 139 142 140 141 142 141 143 145 144 143 143 147 146 147 142 138 137 131 130 130 132 130 132 132 133 138 129 130 135 128 129 135 131 125 116 100 90 84 72 63 46 56 42 39 40 65 65 96 137 106 67 39 36 56 86 115 121 127 123 131 129 126 127 130 126 130 134 140 137 141 142 141 143 149 156 156 157 162 162 163 166 166 167 169 174 176 174 171 169 164 158 155 146 152 151 144 144 144 146 150 147 145 149 154 151 147 148 145 143 145 142 141 140 146 144 134 134 139 134 134 135 134 130 134 134 123 117 97 99 85 72 61 45 42 41 39 37 87 112 117 116 111 72 32 41 73 108 120 128 124 128 130 130 123 122 116 113 112 112 116 124 118 116 124 122 130 140 151 159 154 158 160 164 166 167 166 164 170 173 168 168 174 167 158 154 155 152 142 149 147 151 150 146 150 154 155 149 151 149 151 148 150 156 151 145 151 141 142 141 144 136 137 134 134 132 131 132 123 115 104 97 89 70 59 44 41 42 47 39 126 141 142 117 79 58 35 62 97 123 126 129 123 131 137 130 121 109 104 104 103 101 107 99 99 111 116 109 109 113 123 141 136 142 148 159 161 160 159 162 164 166 167 173 172 176 164 164 165 160 152 153 153 152 150 150 153 152 152 152 148 152 150 151 152 159 155 148 154 145 141 140 144 126 126 137 133 134 123 127 125 116 104 96 85 66 56 43 52 48 45 42 141 133 121 113 85 52 46 84 116 126 132 127 125 134 131 137 124 103 91 106 109 109 104 98 94 103 109 107 107 100 91 110 112 118 130 149 150 150 157 152 160 164 161 165 169 170 170 172 168 168 161 158 158 155 154 157 157 154 153 147 150 154 152 153 155 155 153 146 150 148 143 136 140 131 126 134 137 133 125 126 119 115 97 95 76 70 54 46 48 44 37 42 138 117 81 78 102 52 70 112 127 129 135 129 123 134 131 130 120 112 100 101 102 105 101 109 103 105 106 93 90 98 87 84 85 77 99 105 126 133 139 147 152 149 151 157 155 168 163 165 168 172 168 167 168 165 161 163 162 159 158 151 157 153 154 156 154 152 149 151 148 145 145 138 138 136 131 130 135 129 125 122 122 110 93 90 85 63 53 37 42 32 31 46 128 116 82 64 85 72 84 116 126 129 133 129 129 133 129 128 123 116 113 110 102 109 101 102 107 110 110 106 88 89 78 72 76 59 65 77 86 102 112 130 138 143 143 148 152 158 160 161 164 166 168 167 166 167 165 163 166 162 159 153 156 157 156 154 156 155 149 148 148 144 143 142 137 137 134 129 131 130 124 120 120 108 93 92 84 65 52 32 38 29 33 40 130 121 90 65 68 90 109 112 124 128 133 132 134 143 135 129 124 124 118 112 107 94 82 78 75 90 94 101 102 99 92 81 79 71 60 58 55 68 70 88 101 121 129 136 141 146 149 156 157 163 161 162 167 164 162 168 163 161 160 155 161 161 152 152 153 148 149 145 142 142 139 139 138 140 135 130 128 130 122 119 116 109 94 90 92 70 45 42 29 30 28 36 137 127 107 76 83 102 109 115 117 132 133 137 140 143 146 140 131 109 103 95 87 67 45 40 35 49 59 42 47 50 54 61 67 73 73 65 58 56 60 62 76 97 114 120 126 129 146 147 151 151 160 159 161 162 164 164 159 161 150 154 158 150 149 152 150 142 144 145 140 138 144 137 138 137 134 132 132 125 124 116 118 98 93 91 94 77 47 38 35 32 31 34 126 125 121 123 118 99 107 115 118 131 142 139 147 147 150 153 146 138 118 118 107 93 85 86 70 75 90 51 45 25 28 26 28 43 69 55 52 64 60 66 58 73 96 102 108 123 136 133 143 148 148 152 156 149 158 154 148 148 142 142 147 141 141 145 142 137 142 146 136 132 143 137 134 135 131 130 129 134 117 118 114 102 94 94 94 87 50 31 34 37 34 33 122 112 128 140 128 91 103 117 121 131 143 147 148 150 154 154 155 154 149 147 143 133 126 137 117 103 109 83 69 43 43 54 47 91 133 95 45 30 61 74 66 67 73 95 98 116 128 130 134 137 143 145 150 141 141 141 142 132 129 131 135 133 139 138 136 133 140 141 134 130 135 141 130 133 129 130 127 123 121 118 117 98 90 93 98 86 62 25 24 41 35 32 117 107 141 149 125 95 100 116 127 143 141 149 151 152 154 161 165 166 160 151 147 139 130 143 150 145 129 120 109 100 100 85 69 118 132 112 91 61 32 50 69 73 75 81 94 107 115 120 124 124 136 133 132 131 125 125 121 120 115 111 114 117 114 118 118 121 127 127 121 122 124 129 125 115 125 131 123 118 112 115 114 103 91 94 91 93 64 26 26 37 35 25 131 103 138 150 112 93 104 110 133 139 149 150 153 156 158 161 171 169 165 161 157 150 122 124 139 150 142 126 118 113 123 129 109 116 118 94 88 84 74 41 60 78 76 73 83 101 105 109 118 120 125 125 122 121 117 115 101 110 102 94 99 98 76 88 84 80 86 99 99 100 97 110 105 104 115 116 112 108 108 103 110 101 93 92 90 97 64 30 28 36 30 28 152 127 135 136 102 93 101 121 130 143 146 149 148 159 158 161 162 163 161 162 162 158 151 119 112 126 129 133 130 130 138 144 130 129 120 106 100 105 111 104 98 74 80 79 82 101 109 115 128 132 123 119 112 103 105 104 88 94 87 76 85 66 67 68 56 64 62 71 60 67 80 85 76 83 90 94 98 94 92 95 92 93 95 88 92 95 65 26 28 36 30 38 167 141 127 128 93 95 100 120 132 139 144 149 150 156 159 165 165 171 166 165 168 161 159 149 136 119 110 111 112 116 127 125 122 122 109 105 97 105 110 112 123 91 76 92 96 118 139 150 159 148 147 125 117 105 96 92 81 86 75 77 71 65 65 62 58 61 61 62 62 61 70 75 69 75 82 82 84 75 88 86 80 84 98 87 94 96 60 28 29 33 30 62 180 160 125 126 91 91 111 122 129 136 146 148 148 149 163 168 170 179 176 170 168 175 173 172 166 156 149 137 123 110 113 106 114 109 107 103 115 119 117 121 119 98 95 103 112 138 147 173 170 152 144 131 125 104 94 88 76 73 62 53 54 53 53 52 46 51 58 69 82 85 81 82 78 81 88 86 84 75 74 77 72 78 85 92 93 98 61 32 28 31 41 85 170 168 136 116 87 93 111 125 127 136 137 145 145 150 161 165 172 179 181 181 174 172 173 169 173 171 163 168 158 155 154 146 140 145 133 132 137 139 136 127 121 115 119 112 123 147 160 174 176 162 142 141 129 105 84 87 78 73 53 35 44 56 73 88 31 18 24 53 48 75 97 97 100 91 94 97 94 90 77 79 79 72 85 83 99 93 64 33 26 28 61 80 163 160 137 117 84 91 120 119 125 140 138 141 143 155 158 157 158 170 177 182 178 173 171 167 160 164 169 167 157 162 161 164 153 154 158 157 153 156 159 142 135 137 131 119 126 152 161 169 166 165 157 150 125 100 95 83 89 106 91 74 61 77 92 115 70 53 21 31 20 22 34 69 81 92 101 103 103 98 93 86 81 71 77 90 97 91 59 27 31 48 83 79 163 142 131 105 82 97 121 120 124 134 142 140 145 155 152 153 155 162 173 179 179 179 172 166 160 163 163 169 158 164 168 167 163 167 166 163 161 159 151 146 142 135 131 121 135 153 165 163 158 164 153 145 119 96 98 89 103 115 118 110 95 91 93 106 81 71 60 34 40 34 50 79 43 38 58 95 100 94 94 93 81 74 84 93 102 90 51 30 38 82 90 66 153 140 120 104 83 105 114 122 122 131 139 141 147 153 153 152 161 159 173 169 172 178 173 173 177 177 171 170 171 171 172 171 168 167 166 162 161 148 144 144 139 130 132 133 142 157 166 168 161 155 150 139 113 93 109 101 111 119 111 109 112 107 118 119 121 114 99 73 62 63 88 110 68 40 22 31 72 93 96 99 87 83 97 94 100 90 53 36 51 105 88 65 145 141 123 101 86 104 117 120 124 124 133 136 142 145 152 158 165 163 167 176 173 183 181 177 183 178 173 175 178 174 171 172 167 165 165 159 155 144 141 139 141 136 133 138 143 161 165 163 163 159 152 134 109 94 109 110 118 124 122 113 110 106 117 127 138 128 115 113 92 87 99 94 92 77 51 33 44 82 101 106 93 96 100 96 99 85 47 54 72 109 79 72 140 137 129 91 88 107 118 127 123 125 120 137 135 141 155 148 161 161 162 171 174 176 185 182 179 176 175 177 178 176 174 166 166 167 163 154 148 142 146 139 142 140 139 141 151 163 160 160 162 148 142 139 109 95 112 115 115 129 135 134 120 103 105 113 119 122 119 125 117 116 120 118 110 109 93 86 72 71 89 103 108 101 101 93 106 64 54 81 101 96 70 68 125 127 118 88 92 109 119 122 126 129 125 131 137 144 148 149 153 160 159 167 168 174 185 186 175 175 180 175 172 176 175 174 160 169 164 158 148 145 144 148 141 138 143 145 153 157 162 161 166 146 140 139 109 99 109 117 119 128 138 142 136 126 109 101 96 109 113 120 119 121 122 119 114 116 108 105 107 102 87 96 103 107 102 101 98 58 67 101 100 95 61 81 85 96 99 90 96 111 114 122 129 122 122 128 135 140 149 147 145 156 157 160 162 162 174 174 167 177 177 169 170 170 165 165 164 160 153 147 139 138 147 149 145 139 140 153 156 161 163 161 161 153 145 139 114 106 109 114 118 126 140 144 143 145 141 131 113 101 100 102 110 116 116 112 111 114 108 110 116 120 117 117 111 109 109 105 84 62 100 107 102 79 66 78 59 70 77 100 98 106 110 126 120 117 116 130 132 139 141 145 147 151 154 151 161 160 169 165 165 172 171 157 165 164 163 156 155 144 127 136 139 142 148 148 139 129 143 152 157 162 162 160 158 154 144 134 120 114 114 113 114 123 139 147 149 146 150 154 138 133 115 110 106 104 102 109 105 111 115 118 120 122 116 114 121 109 108 97 84 99 118 107 106 62 74 70 68 54 76 95 106 106 114 122 117 120 117 124 131 132 141 141 147 142 147 149 152 155 149 151 161 159 160 153 151 154 144 137 130 122 127 141 148 145 148 142 131 130 144 147 157 164 157 155 154 149 150 128 119 124 117 117 122 124 132 146 155 155 150 160 153 145 136 132 136 130 128 125 118 116 119 112 118 120 117 118 114 119 109 78 96 132 124 113 80 69 74 80 62 61 81 100 99 110 111 122 117 115 115 124 128 127 136 139 141 144 145 145 144 154 151 148 150 149 148 148 137 135 129 130 119 122 132 146 150 149 148 138 135 139 144 148 161 169 162 158 157 152 144 131 117 121 120 112 116 132 133 142 150 152 156 163 159 156 150 138 149 147 144 136 132 128 129 118 119 117 116 114 115 118 109 80 99 133 123 98 83 67 79 77 58 64 85 99 98 105 116 119 115 116 116 122 129 128 129 132 136 138 135 141 139 138 143 144 139 138 136 133 127 130 142 144 113 123 140 147 149 147 140 141 145 141 138 136 147 160 162 153 152 152 140 135 112 116 124 127 102 125 143 140 145 146 155 159 162 158 154 158 158 155 148 144 141 135 137 124 122 121 119 111 114 115 100 88 117 122 115 94 66 77 76 82 56 63 94 100 101 106 118 120 116 117 113 119 129 124 124 125 131 129 130 135 132 131 137 141 143 132 134 128 131 141 153 150 107 115 136 146 145 144 142 148 146 144 143 144 151 153 161 154 152 156 139 135 115 112 132 138 113 110 141 143 142 148 150 157 162 159 162 163 161 155 151 140 137 137 141 129 124 126 118 110 114 115 87 101 127 113 109 88 59 83 78 83 54 68 90 105 102 110 116 118 122 115 108 119 123 123 125 116 123 122 123 131 127 133 131 131 138 130 132 136 142 149 150 151 106 96 117 132 135 132 141 143 138 143 169 178 176 163 164 162 154 154 142 134 125 117 136 147 137 107 109 139 143 145 142 153 160 155 163 164 161 153 151 148 140 137 137 128 128 125 111 110 110 107 89 106 122 106 100 67 75 78 77 80 57 68 96 100 108 108 117 120 126 116 101 113 123 124 126 119 121 124 119 126 128 135 135 135 135 138 141 149 144 153 153 148 125 89 75 101 111 116 128 127 113 130 148 155 169 169 173 168 157 162 141 139 127 125 133 145 142 115 102 129 142 148 143 151 156 154 157 158 156 155 153 152 141 138 136 128 122 122 107 113 106 96 93 116 115 109 80 68 80 77 80 76 62 73 93 103 107 112 116 126 124 122 117 119 126 130 127 123 118 126 127 126 132 140 144 142 140 140 148 154 155 157 158 152 137 117 57 33 49 65 98 114 108 112 121 139 147 142 151 147 145 155 139 131 124 122 129 137 139 120 104 120 142 141 142 151 152 152 153 155 146 154 154 147 143 143 140 128 124 119 108 110 107 80 113 129 115 84 74 72 81 78 75 80 53 75 95 103 104 117 121 125 124 126 126 126 133 136 131 130 128 128 135 134 141 149 145 139 138 144 152 155 154 159 157 151 150 147 115 78 48 39 44 60 87 97 101 123 128 125 131 128 130 136 119 112 118 115 123 125 128 117 110 116 131 133 138 145 149 150 150 152 145 145 153 143 142 141 139 135 129 120 107 110 100 83 134 126 112 68 73 75 79 80 81 81 66 71 101 98 111 114 125 124 122 127 131 131 137 141 142 140 140 137 138 144 141 148 146 134 139 145 153 157 152 154 153 148 151 149 146 126 105 81 70 43 36 54 87 105 105 112 109 105 108 117 103 102 105 110 106 114 109 109 114 115 120 130 135 139 147 149 147 141 145 148 146 134 139 133 134 135 121 115 107 110 85 98 142 128 75 76 76 79 73 84 79 77 54 78 93 104 106 114 123 128 126 124 131 136 141 149 151 145 142 140 138 137 143 141 145 139 143 145 149 151 145 151 156 144 146 145 145 143 142 126 111 101 61 33 52 78 84 90 88 83 76 74 74 76 73 74 85 95 94 102 115 116 112 123 124 135 136 141 141 140 142 145 137 133 131 131 131 129 120 106 113 99 81 115 136 102 71 72 78 78 79 84 80 78 58 73 97 96 115 118 121 126 130 128 133 137 143 154 151 149 139 137 136 134 142 137 140 137 138 151 146 145 141 151 151 145 150 140 143 145 146 148 139 132 111 78 45 44 51 67 52 49 46 36 44 38 43 37 43 68 86 112 119 117 110 111 122 126 129 132 133 137 139 133 131 130 126 126 126 122 115 106 107 87 95 115 112 80 66 81 79 80 80 78 78 79 58 72 95 95 113 114 125 126 126 124 135 138 145 155 154 151 138 135 140 138 141 135 132 130 132 145 147 135 142 143 146 146 143 146 149 146 149 144 153 147 133 116 94 68 79 79 79 75 83 81 75 77 80 79 78 92 105 114 115 116 111 111 112 124 128 126 126 134 129 124 121 129 123 120 124 113 106 105 105 88 102 104 82 73 73 76 81 81 82 76 78 80 49 75 88 103 104 115 122 127 127 124 123 146 147 151 163 154 141 135 137 142 135 132 127 126 129 132 138 129 136 138 137 142 147 150 155 146 146 150 150 148 141 127 108 109 120 121 121 113 113 114 107 106 99 103 106 108 109 112 113 110 113 105 113 118 120 118 120 121 118 121 119 123 119 113 122 109 107 102 104 88 99 77 72 68 79 75 73 84 78 82 78 80 62 67 87 96 109 113 122 123 129 131 128 140 145 150 155 157 139 136 142 139 132 129 126 127 129 126 126 123 127 136 137 131 147 151 157 156 145 152 159 151 145 133 113 116 128 130 127 128 131 119 110 112 110 109 106 112 113 111 110 110 105 106 102 118 120 116 115 112 113 117 115 119 114 110 111 108 105 104 102 82 66 70 75 73 79 78 80 82 76 80 76 81 58 65 82 99 104 107 122 123 123 127 131 132 144 149 158 161 142 138 142 136 130 122 122 122 118 124 129 129 124 132 138 136 140 148 154 160 152 152 161 162 147 136 131 133 131 133 137 129 126 123 112 113 114 106 109 114 111 108 107 105 105 105 99 109 120 116 112 111 111 113 112 111 110 106 107 102 102 101 97 64 64 74 76 75 76 81 80 83 81 77 81 84 58 65 71 97 101 109 116 122 122 125 126 131 137 151 161 158 144 138 140 134 126 115 102 89 78 87 99 102 102 110 115 118 125 134 139 139 148 152 166 165 157 146 139 136 146 147 136 129 130 124 112 123 110 106 108 115 108 109 106 103 114 106 100 109 118 114 114 108 111 111 105 111 104 102 104 99 100 101 83 56 73 69 77 76 79 81 80 81 81 79 79 79 69 58 79 81 104 108 115 119 122 117 126 133 131 142 161 152 142 144 134 130 119 116 116 69 25 21 48 50 73 74 69 68 81 88 82 87 103 114 122 138 147 150 143 143 149 146 145 133 135 126 113 120 112 108 107 111 111 108 102 110 114 111 109 115 117 120 112 109 108 109 108 106 106 102 101 100 96 107 53 62 70 75 74 75 77 78 80 81 73 81 79 85 70 56 67 88 89 105 115 123 119 117 128 125 136 141 157 153 151 145 137 129 130 135 145 122 81 50 36 24 104 110 88 84 111 118 90 66 86 89 81 86 89 111 127 127 131 126 128 121 127 130 114 116 110 114 102 108 115 108 99 107 116 114 115 121 126 123 122 113 105 110 109 103 103 99 99 101 103 76 59 66 70 76 75 79 75 79 78 85 75 79 82 80 71 62 61 80 92 99 111 118 124 122 123 120 131 142 152 148 147 144 135 136 135 144 149 149 124 104 90 41 104 111 67 108 156 158 129 111 141 139 124 89 55 72 88 86 86 82 84 97 106 118 108 112 114 109 99 107 108 100 102 107 111 112 125 127 127 124 126 118 115 112 107 106 106 104 103 99 92 61 62 70 72 76 75 78 79 78 81 80 77 77 81 74 68 61 67 62 90 100 109 113 122 122 119 121 129 141 150 148 146 144 138 142 144 146 142 154 148 118 112 106 104 103 57 84 136 153 110 139 176 166 167 116 84 128 132 123 116 66 64 90 74 77 88 98 105 107 97 101 103 98 103 109 110 114 126 126 127 131 125 118 115 111 111 109 108 105 102 102 77 53 73 67 79 74 75 80 79 82 82 79 78 78 80 77 63 69 63 62 73 99 109 107 116 130 118 113 132 138 146 144 143 147 143 154 153 146 141 146 150 139 119 115 116 131 118 102 61 100 77 137 175 173 185 81 95 172 161 162 143 106 143 131 91 59 80 66 66 79 87 94 101 102 110 118 118 114 123 121 128 136 120 120 113 105 115 112 110 102 106 92 65 52 76 71 73 76 79 76 82 76 82 78 79 79 81 76 61 67 69 54 73 91 106 110 115 125 128 115 128 133 146 145 138 144 144 151 155 147 130 141 143 136 126 130 121 137 144 131 108 104 101 98 97 123 163 47 117 168 168 165 134 131 165 142 110 112 116 71 42 22 23 45 81 95 113 123 123 118 117 122 135 129 118 116 110 106 116 111 106 103 101 68 55 66 71 72 75 75 79 79 77 77 80 78 80 76 80 79 66 65 64 64 62 85 98 106 117 117 127 124 123 131 144 153 139 143 152 146 148 145 141 133 141 135 132 137 123 129 140 145 150 137 120 110 103 104 104 100 118 124 114 140 109 103 147 130 110 118 106 81 45 22 24 51 79 96 111 118 125 121 116 131 129 123 121 101 106 113 117 109 101 101 81 56 63 69 73 74 74 76 76 82 75 81 78 76 77 80 76 84 62 67 60 67 66 86 87 104 113 119 129 121 124 130 136 143 143 144 145 149 146 142 141 131 136 135 134 136 128 131 127 123 142 155 147 140 126 118 105 109 123 114 92 111 107 72 83 82 76 107 68 71 69 74 78 106 117 108 113 121 124 119 126 135 120 114 111 102 111 117 111 109 102 88 62 57 72 72 72 76 75 76 79 77 80 81 76 78 74 79 80 82 64 66 66 57 73 89 86 97 109 115 126 123 127 131 141 136 143 145 136 147 150 142 137 134 130 129 136 138 135 133 133 132 128 144 151 154 145 134 128 124 138 130 129 119 110 101 93 94 97 93 82 83 86 104 100 119 126 119 116 123 121 118 132 134 120 108 105 108 115 113 105 106 91 67 52 67 70 75 74 75 80 76 76 78 78 78 77 72 79 79 76 81 60 61 62 81 83 100 87 89 100 108 116 122 123 128 141 140 141 143 138 139 148 143 137 131 129 128 135 132 134 130 129 130 138 141 143 148 146 144 139 139 142 153 146 148 138 136 120 115 111 105 97 98 108 111 111 132 129 127 116 121 126 124 132 123 110 103 104 106 112 108 105 94 77 49 67 69 73 71 76 71 75 82 76 80 78 81 78 76 78 78 80 75 62 83 104 148 131 87 99 90 91 105 110 118 123 126 135 142 136 141 145 136 141 145 140 128 126 132 127 131 129 129 125 131 139 130 132 140 139 136 130 138 137 141 143 130 126 130 120 111 105 103 107 106 111 119 119 131 134 128 118 119 130 130 127 117 101 103 108 108 109 105 102 82 52 55 69 71 71 75 72 74 78 79 74 80 78 78 82 79 79 76 79 81 135 147 148 152 127 79 104 98 85 97 108 108 120 119 135 138 136 136 145 137 146 148 141 133 126 126 129 129 127 126 125 124 128 128 127 127 121 124 130 127 133 130 127 124 118 119 116 111 117 108 96 108 113 121 125 131 132 120 122 125 135 126 120 104 100 107 113 110 101 104 86 50 57 70 70 75 69 75 77 78 77 77 77 78 79 80 75 78 80 78 77 79 144 128 137 168 131 82 98 104 91 84 98 109 107 122 126 139 137 140 140 140 149 154 144 138 130 129 127 136 129 128 133 129 121 123 123 127 125 122 126 118 121 121 121 123 120 120 112 116 118 105 95 113 117 122 128 126 122 118 124 131 132 123 103 102 105 112 113 104 102 85 63 53 63 66 71 77 72 76 78 77 73 78 78 76 78 78 78 77 80 76 76 77 134 155 169 162 106 83 101 105 97 89 89 96 103 113 120 129 131 135 137 141 145 156 148 137 135 134 129 135 133 134 143 135 127 123 118 124 125 121 119 120 120 122 124 120 121 119 114 119 116 110 109 114 122 121 125 120 109 119 129 130 126 105 95 112 110 108 103 105 87 58 51 68 69 73 69 74 74 71 78 78 74 76 79 78 78 78 78 79 77 78 75 76 176 164 149 126 95 93 102 107 102 91 85 92 95 107 114 123 118 136 134 139 145 150 151 144 147 143 140 132 131 136 138 134 130 126 120 121 115 118 116 115 117 121 115 116 112 114 115 111 109 106 113 116 119 120 121 112 107 124 125 122 110 97 101 114 111 106 91 111 77 46 58 73 70 72 70 74 72 75 77 79 75 71 79 79 77 77 77 76 75 79 72 75 161 141 105 85 95 99 103 99 107 95 88 81 84 98 106 115 124 134 136 143 149 146 151 154 152 152 147 146 134 135 139 139 138 137 135 127 126 118 110 123 120 116 116 115 117 113 117 111 109 108 113 114 119 118 113 114 121 124 119 116 98 103 112 110 108 98 71 111 136 88 52 71 67 73 74 75 74 72 78 78 75 79 74 76 76 78 76 77 73 79 74 77 135 105 81 74 101 101 100 97 103 103 94 80 76 82 94 101 115 126 128 139 151 142 151 154 155 151 153 157 150 148 154 155 158 155 153 141 135 130 121 123 122 113 117 119 120 111 109 109 113 116 107 121 120 112 117 116 128 117 113 105 103 108 109 107 94 89 54 92 152 163 84 50 69 71 72 79 76 75 74 76 77 79 75 78 77 75 76 76 77 77 75 77 98 79 73 84 106 101 98 100 100 102 95 89 71 74 90 86 102 116 120 127 142 145 144 143 148 149 155 157 147 160 152 160 159 152 154 158 155 151 141 134 126 112 113 118 114 113 110 114 117 118 118 118 117 116 116 117 117 109 103 102 109 105 104 94 81 84 75 84 140 169 172 74 56 71 73 77 76 79 74 77 79 73 77 79 77 76 74 81 72 79 76 72 79 76 76 91 111 103 103 95 104 104 96 93 81 75 78 85 83 99 118 123 126 144 141 138 147 142 153 157 148 165 157 159 161 158 157 153 154 156 140 143 137 130 126 122 117 122 114 114 115 122 122 124 119 118 116 110 116 101 100 108 106 96 95 88 70 86 137 98 125 155 186 155 58 63 75 77 80 74 77 75 77 76 79 78 79 78 71 80 75 78 78 73 82 75 66 99 114 100 108 98 103 105 97 96 87 81 70 76 82 78 100 117 124 126 136 139 146 138 141 154 149 154 154 161 156 158 162 151 154 152 142 146 144 138 134 138 132 138 109 107 126 125 127 118 119 113 113 113 103 96 103 105 91 86 83 84 71 85 177 148 106 146 170 192 127 45 77 74 77 71 80 79 74 80 75 77 78 76 77 79 77 77 78 73 86 55 61 114 114 105 107 105 101 103 101 100 90 84 74 69 76 84 79 103 112 113 124 136 138 139 142 145 147 150 142 147 159 147 155 153 149 148 143 139 135 134 128 129 136 141 112 109 133 130 124 116 110 112 108 99 99 97 97 92 83 81 84 93 82 88 173 193 109 126 164 184 180 66 61 75 76 75 77 78 77 76 78 76 76 73 76 79 74 78 78 73 53 29 96 123 108 107 104 110 106 104 102 99 96 91 82 70 66 80 79 88 93 101 112 123 124 128 136 142 142 141 141 143 146 141 151 144 140 138 140 141 132 124 127 127 134 131 128 127 132 126 121 105 106 104 100 96 97 94 87 82 84 86 101 97 80 101 155 209 142 105 165 177 194 136 44 71 77 76 78 73 78 77 77 72 78 76 75 75 80 76 77 76 13 61 123 122 112 104 108 112 110 111 104 95 96 93 84 73 67 74 79 85 88 90 100 111 118 122 132 136 136 136 138 137 137 144 144 138 138 137 133 136 126 129 126 127 133 131 128 125 124 122 109 103 102 93 93 92 94 79 82 84 94 97 102 101 83 98 152 209 172 89 153 171 189 174 49 62 74 79 75 72 78 78 75 76 77 75 79 74 78 75 76 74 41 115 125 117 117 117 106 116 111 114 108 99 98 98 89 83 73 67 74 83 92 83 87 88 105 111 113 127 125 129 127 134 122 133 134 140 137 131 131 129 127 127 124 124 126 124 124 120 117 111 100 93 90 88 89 84 79 83 88 95 104 112 108 98 84 87 149 203 202 93 122 174 185 192 77 49 76 76 78 74 79 76 74 75 76 77 77 78 73 74 79 78 95 133 126 123 115 119 110 108 115 114 114 105 102 95 91 88 78 69 71 78 85 92 87 82 93 101 103 118 115 116 118 122 129 126 126 127 135 130 131 131 129 117 114 120 118 108 114 113 113 99 88 87 90 86 82 76 82 99 98 103 113 111 106 106 82 68 149 196 213 105 99 171 181 203 85 49 75 75 77 75 75 75 75 75 76 78 74 71 80 75 76 75 128 132 128 121 121 118 112 121 119 114 115 118 109 96 100 88 83 81 72 75 77 85 90 89 86 93 92 98 107 107 109 114 116 115 119 117 122 124 124 109 118 114 105 111 104 102 101 104 95 83 91 90 81 83 85 89 100 107 114 110 102 107 102 118 68 57 159 193 217 125 79 157 179 202 108 50 71 83 75 78 73 76 73 74 80 71 75 70 80 75 77 74 120 131 129 122 125 117 118 120 122 117 117 116 113 112 97 90 87 86 78 72 70 77 84 85 95 87 87 93 95 100 98 104 105 106 107 109 113 117 112 109 108 109 102 103 99 101 95 85 88 88 83 78 82 90 99 102 109 112 111 109 101 105 102 128 50 61 171 191 216 138 62 157 182 204 109 49 73 78 74 76 75 77 78 75 77 75 73 77 77 75 76 75 111 128 131 129 126 117 121 123 121 122 120 122 119 117 112 96 91 90 79 78 75 71 77 77 85 92 93 87 94 92 93 94 97 94 95 101 104 96 105 101 101 96 91 88 90 88 80 85 84 79 78 81 103 111 111 119 125 111 110 110 111 103 114 115 35 88 181 192 211 136 81 170 191 196 125 70 71 71 77 76 80 76 74 76 78 74 73 79 75 76 78 75 135 132 132 125 131 121 122 125 118 120 124 122 125 119 118 103 99 92 88 82 74 63 77 69 79 81 85 87 92 89 93 89 85 94 92 93 92 96 91 93 92 87 83 87 84 82 82 77 77 81 93 104 117 122 122 120 122 108 111 105 114 105 126 99 30 120 188 197 202 125 107 182 196 178 151 136 112 76 74 77 76 78 73 75 77 78 72 81 71 77 76 75 144 134 131 128 126 131 121 121 126 126 129 123 124 127 118 113 106 100 95 88 80 73 71 73 70 76 74 77 82 86 91 89 84 89 87 93 83 85 88 85 87 86 82 82 79 78 78 73 92 110 111 121 127 123 120 117 112 110 114 112 108 112 128 64 53 167 192 203 184 102 131 184 191 177 140 150 161 162 117 98 112 112 90 87 97 82 79 77 74 75 78 72 140 134 132 132 128 132 130 121 123 131 130 128 127 129 123 118 112 104 97 97 83 76 79 67 64 73 71 70 71 73 81 75 83 85 84 84 83 86 84 82 83 80 76 71 72 80 95 96 113 121 119 124 122 121 121 117 114 117 116 109 110 118 113 39 106 184 194 209 160 107 146 188 192 167 145 157 152 161 163 152 139 148 131 134 135 116 119 117 98 89 79 77 