P2
92
112
255
54 49 56 45 48 47 40 55 76 74 58 49 59 75 71 77 67 53 51 49 44 56 62 42 48 63 79 82 82 88 85 86 76 78 68 63 50 52 44 38 39 37 44 40 36 37 41 37 38 36 37 36 33 36 33 27 32 26 28 23 39 48 47 48 57 34 36 42 54 48 58 45 39 52 58 43 54 66 55 44 64 89 105 105 104 100 104 105 101 103 102 104 54 47 49 59 51 45 40 63 64 59 52 62 78 78 81 85 59 51 51 53 49 51 46 51 57 67 69 75 83 86 88 86 96 88 80 74 64 60 57 47 44 44 44 38 38 39 42 45 42 37 34 36 37 31 35 29 26 27 25 22 36 45 43 45 51 34 39 34 49 55 51 47 48 45 58 43 45 70 67 45 52 66 90 104 106 103 101 106 100 102 105 102 42 43 67 58 45 48 58 60 38 39 55 81 78 88 88 71 69 54 66 75 72 69 73 67 63 56 64 68 70 70 72 82 85 73 70 65 74 66 65 62 56 52 50 48 49 43 39 41 39 33 37 34 34 40 28 27 24 14 23 29 35 40 41 42 41 31 34 33 43 50 48 42 45 53 51 54 32 43 67 65 36 57 69 92 106 101 103 102 105 100 102 104 47 63 75 50 49 55 73 45 26 56 80 86 87 80 74 74 81 90 97 88 94 95 89 68 65 63 64 58 56 65 67 72 68 64 67 73 80 73 61 57 55 51 45 58 50 49 39 41 40 35 37 35 33 32 34 27 24 22 25 30 30 42 42 40 35 30 29 28 34 43 51 41 42 52 53 56 40 29 51 69 59 45 69 71 94 107 103 99 106 100 105 100 76 82 70 48 52 64 61 36 52 82 87 84 80 63 66 78 98 102 96 91 100 94 86 77 74 73 70 63 60 57 56 59 62 66 78 85 84 76 65 68 59 49 51 52 52 49 46 46 39 43 43 37 35 33 36 31 35 38 32 31 35 38 36 34 30 29 29 33 27 35 44 46 40 51 57 50 46 35 40 56 59 58 58 64 77 105 104 105 98 107 101 100 81 87 64 41 50 62 44 42 67 84 73 78 73 67 70 84 84 95 95 93 99 98 89 85 87 84 85 83 78 68 67 69 72 74 85 80 84 74 67 66 64 64 65 52 51 54 56 55 46 49 50 44 39 40 36 34 38 35 29 30 30 38 38 28 24 30 32 33 28 37 38 35 43 51 53 53 39 43 43 46 58 59 51 67 65 93 105 104 102 106 104 104 84 79 56 41 47 50 42 63 86 77 74 86 80 85 81 81 92 93 93 95 98 90 97 88 91 95 94 90 86 76 73 72 82 86 89 89 91 77 83 86 80 77 80 79 75 66 62 59 54 47 48 46 42 37 42 34 38 28 35 28 33 26 32 23 30 35 30 30 36 27 35 29 42 47 54 48 44 34 44 49 50 61 53 58 66 68 98 104 104 103 102 100 77 72 48 37 47 51 64 84 88 87 84 87 83 91 86 79 83 91 88 90 98 88 88 89 95 96 97 96 98 95 86 81 81 85 83 80 81 77 83 86 70 63 67 66 70 64 58 56 48 47 43 43 39 38 28 35 33 32 31 31 28 26 20 25 27 28 26 32 33 30 30 27 32 45 45 47 45 31 37 54 48 64 56 58 66 63 80 103 105 101 103 100 71 54 35 53 60 62 82 89 84 92 77 77 88 91 79 77 86 90 90 88 85 83 83 83 79 85 94 90 90 91 86 81 83 73 73 70 63 62 71 73 69 69 58 61 55 52 54 44 43 41 42 43 45 38 39 34 36 34 38 32 30 30 27 27 24 23 26 31 37 37 29 30 31 43 46 42 41 29 34 45 51 60 54 62 68 62 65 93 108 102 100 106 60 38 44 73 68 69 75 85 91 89 75 76 88 90 90 87 96 100 94 90 85 89 82 90 89 89 85 87 84 82 79 80 83 78 75 76 77 70 69 67 66 60 64 65 57 63 59 52 48 47 44 48 42 39 40 40 41 39 39 37 30 32 37 36 28 31 32 33 36 37 33 25 31 38 41 36 38 27 35 42 46 57 60 65 62 65 58 88 104 105 104 100 42 46 72 76 72 56 77 85 76 64 70 74 72 76 89 100 100 97 89 91 93 90 89 94 93 90 90 88 88 79 81 73 64 65 68 73 78 67 68 66 64 57 69 72 71 72 69 68 64 58 54 41 47 41 39 40 45 50 42 41 29 33 42 42 35 39 35 37 28 32 29 29 26 32 37 36 24 25 35 35 40 49 63 56 57 59 49 70 104 101 105 103 44 57 73 71 58 64 74 70 56 49 55 56 71 71 76 81 82 88 92 85 79 71 80 84 87 83 86 82 86 87 86 73 70 66 68 74 74 82 77 76 70 63 63 64 58 55 56 55 60 49 51 47 46 43 42 33 41 45 41 40 45 33 40 43 42 47 46 36 34 27 24 24 26 30 34 28 26 22 35 29 37 42 57 59 56 60 42 59 100 106 105 100 56 63 70 51 64 67 51 45 41 41 46 50 61 55 57 66 77 81 82 79 64 67 74 75 83 94 93 95 92 90 88 90 85 77 71 81 75 76 76 77 76 76 72 73 63 60 56 52 48 49 39 40 46 45 44 41 39 37 42 40 40 45 50 39 47 45 38 39 40 33 30 27 23 29 27 31 26 27 30 34 34 31 55 61 50 59 48 48 96 106 104 101 63 55 50 60 58 48 44 38 46 41 46 49 58 48 46 55 65 64 68 66 59 71 72 86 86 94 99 98 98 96 94 86 78 69 68 73 72 81 94 96 87 85 73 71 72 66 70 65 58 55 55 39 61 65 64 60 54 45 49 47 42 41 40 42 42 39 40 44 35 36 37 28 28 22 28 26 29 25 32 32 34 25 43 62 54 56 52 47 98 103 105 102 55 44 52 54 47 40 40 42 42 44 55 55 46 41 46 49 52 53 50 55 56 71 76 78 82 86 88 88 89 81 75 75 85 82 75 73 72 71 74 77 81 78 75 71 72 67 68 64 57 56 53 44 46 55 50 46 47 40 42 33 29 26 22 28 29 37 30 33 30 47 42 36 27 17 22 29 33 27 29 31 30 30 39 56 61 61 61 56 82 111 102 104 54 43 47 49 45 35 36 44 36 46 60 51 43 51 49 54 52 52 55 53 57 64 56 62 64 67 77 77 83 85 86 84 86 86 73 78 72 73 65 68 70 67 69 61 65 65 70 71 70 62 61 55 56 52 44 42 44 38 35 35 32 27 33 29 28 38 23 29 26 29 41 40 33 24 25 25 28 32 31 28 32 33 38 52 64 65 61 53 85 107 103 105 53 35 40 42 36 37 46 44 39 49 54 52 49 49 56 52 62 54 63 62 75 74 67 56 58 63 68 78 83 75 73 82 83 84 81 87 87 80 76 73 65 69 75 76 75 83 83 78 79 60 60 62 60 51 45 48 44 51 48 53 53 57 52 48 39 37 30 33 23 21 31 32 36 30 32 28 28 34 31 30 32 31 42 54 57 67 63 43 74 111 106 99 52 32 33 38 39 41 42 38 43 56 59 49 48 45 52 50 52 57 57 57 53 54 45 53 49 44 55 54 52 53 62 66 73 70 75 71 76 71 75 90 94 95 84 74 80 82 86 91 86 83 76 77 69 65 57 45 56 62 68 52 48 49 45 34 34 33 28 28 33 20 27 24 35 30 31 28 28 30 29 34 29 34 39 50 63 63 63 47 56 108 109 102 39 27 37 40 37 42 33 40 50 53 51 40 39 42 37 44 48 48 56 57 57 57 59 56 54 48 55 51 44 49 47 50 52 45 43 49 56 67 70 76 74 66 63 58 56 61 66 75 76 71 64 59 52 60 63 62 56 54 47 26 33 40 45 35 32 37 36 31 34 24 30 30 26 30 31 27 23 27 29 32 29 39 39 47 61 66 55 49 52 93 111 104 35 30 37 37 37 39 30 42 47 42 42 34 33 36 34 45 47 53 66 77 73 69 63 61 59 63 58 52 58 47 48 47 47 40 47 46 47 50 47 41 39 38 39 46 46 42 42 37 44 53 60 66 65 65 65 42 41 39 30 30 43 46 37 36 33 34 34 31 33 29 29 35 28 29 33 27 31 26 30 35 32 40 41 49 62 64 53 54 55 87 108 104 37 38 33 35 34 36 31 36 33 36 36 34 35 36 38 47 51 79 88 90 91 84 83 87 81 74 65 66 70 59 59 54 57 57 59 59 54 55 45 47 44 39 43 42 41 31 32 34 53 75 69 59 55 42 38 30 36 34 42 65 62 41 34 36 34 37 31 35 39 39 36 37 33 32 27 30 29 32 26 31 35 43 46 52 63 69 49 51 63 91 106 103 35 32 32 36 30 29 36 32 29 32 35 36 36 43 44 53 67 81 86 93 98 100 97 92 79 85 75 73 66 63 64 65 57 59 60 62 57 59 54 58 52 56 47 48 37 34 31 42 50 51 40 41 41 44 41 40 46 38 53 74 54 39 38 39 35 41 34 43 50 43 44 41 41 36 29 30 27 29 39 31 40 40 50 63 60 68 56 47 67 92 107 100 31 32 33 33 30 31 32 29 36 33 36 33 38 46 45 57 61 71 81 81 89 94 93 92 93 83 74 73 73 79 80 80 78 80 80 80 74 67 68 62 60 59 50 43 38 42 41 43 40 43 38 35 47 49 49 54 50 37 55 66 57 42 49 48 44 42 48 57 57 57 55 56 50 40 39 38 32 34 42 39 45 41 53 66 65 64 58 53 61 93 108 102 29 31 31 35 31 29 30 37 35 33 32 34 39 41 50 50 50 64 68 75 86 88 90 85 88 85 84 82 89 97 95 98 94 91 90 83 76 70 81 69 63 54 47 48 37 42 42 40 35 40 38 46 57 49 65 61 57 52 62 68 63 56 55 57 57 56 60 65 70 75 76 69 55 56 49 49 39 41 41 46 49 47 64 63 66 68 63 53 55 91 105 103 27 27 32 31 28 34 30 35 35 28 36 29 38 44 48 45 47 50 56 61 67 70 75 76 77 85 81 85 88 88 80 83 87 80 88 90 90 96 83 70 58 50 45 38 41 43 42 47 50 50 61 70 57 61 73 75 73 76 77 88 76 72 66 71 71 74 74 87 92 88 85 91 75 73 62 48 47 43 45 50 52 57 63 71 58 67 66 57 55 88 103 101 30 29 24 30 31 32 35 31 25 33 34 29 39 36 40 41 36 42 39 45 52 59 69 71 78 77 76 79 80 82 81 85 92 98 106 101 93 76 70 63 51 48 44 47 47 48 52 63 56 66 80 79 84 91 79 93 101 97 91 99 94 90 83 93 90 96 97 105 105 101 93 91 91 78 72 51 44 48 52 52 55 58 70 65 55 62 67 59 48 97 105 100 23 28 25 29 35 31 27 26 26 33 30 28 35 36 35 36 33 38 39 43 47 48 62 64 64 62 66 63 69 69 75 78 85 93 86 81 77 66 62 51 54 55 48 65 60 52 68 78 73 78 83 91 98 100 97 111 116 110 115 111 111 100 103 113 108 117 117 112 110 106 103 93 90 80 70 55 44 50 53 53 55 58 69 62 46 57 60 57 57 97 104 101 19 28 25 32 36 30 27 27 36 24 27 34 36 33 31 32 34 37 43 44 41 49 50 57 60 56 61 61 63 72 74 78 86 84 87 80 71 65 58 49 68 74 67 61 57 75 79 87 90 95 95 98 97 100 109 120 126 124 124 117 118 118 122 131 129 133 129 127 119 108 106 99 89 73 66 57 52 51 55 55 60 52 67 53 42 51 52 56 66 101 104 102 21 27 26 31 34 28 26 30 35 24 29 36 30 32 31 36 33 38 34 39 37 43 47 52 53 57 62 66 71 72 74 74 76 80 75 78 79 71 63 55 80 84 73 69 88 94 92 98 100 89 88 103 106 101 112 129 135 138 131 130 127 132 135 133 139 136 136 135 125 118 112 100 92 74 60 60 54 56 49 56 52 53 55 44 36 47 47 53 78 100 105 98 23 27 24 35 28 24 28 29 27 28 34 32 30 33 30 31 31 31 37 39 32 44 44 49 47 49 55 57 56 52 51 53 52 50 55 52 55 52 63 66 78 73 80 96 99 98 91 91 88 89 101 111 111 104 122 140 145 145 145 140 135 137 141 140 142 147 140 135 127 119 117 108 96 82 66 57 63 48 40 50 41 48 51 35 34 44 40 56 89 103 101 100 25 27 27 32 30 27 25 28 28 30 30 33 29 26 37 33 31 37 34 37 34 45 42 41 43 42 41 46 45 41 39 42 44 35 36 37 51 52 58 60 75 72 86 86 83 84 86 95 100 110 121 121 113 118 134 146 149 149 149 143 143 139 146 142 143 152 140 139 128 122 120 113 98 85 76 62 47 43 35 41 42 38 35 38 34 40 36 66 93 107 99 101 24 26 27 36 28 28 21 29 24 31 27 38 26 28 36 34 31 38 38 38 39 43 46 40 43 48 50 58 51 51 52 50 47 43 42 48 46 53 57 61 71 68 62 77 77 90 107 113 117 125 129 123 125 139 146 151 151 148 149 145 144 143 148 145 144 146 143 136 135 128 118 112 99 87 73 66 42 34 30 38 37 35 35 35 32 44 31 65 102 101 100 96 30 29 29 28 30 24 27 29 29 24 31 32 33 30 36 35 31 36 39 42 49 46 50 51 55 58 63 66 68 63 67 74 62 54 56 55 53 51 59 62 65 67 77 93 101 114 129 131 131 133 134 128 143 152 153 150 150 148 148 144 144 149 147 145 146 143 141 137 136 126 116 109 102 90 78 69 45 37 31 30 33 35 38 33 42 43 35 71 104 103 100 101 32 30 28 31 29 26 30 28 27 25 28 29 31 33 30 39 39 37 49 48 55 58 60 59 62 61 69 66 61 77 80 79 75 72 70 66 65 65 70 74 83 97 113 121 126 128 134 139 139 141 132 136 150 152 159 152 150 148 149 150 145 146 147 147 146 144 141 139 134 129 118 111 108 102 86 77 59 40 31 33 31 30 31 36 38 36 42 82 106 106 101 99 35 26 32 34 30 30 28 29 27 31 29 31 30 37 34 43 44 49 53 53 51 56 63 64 61 60 60 56 58 69 74 71 76 76 82 86 82 78 90 104 110 127 135 137 138 136 139 146 143 147 142 147 154 153 154 157 154 149 150 151 143 138 142 145 149 146 143 136 138 125 120 111 112 108 98 88 68 53 29 34 32 31 31 32 35 32 36 91 107 104 101 99 35 30 34 33 29 30 29 26 29 27 33 31 32 33 43 45 52 63 71 72 62 55 55 61 61 55 51 54 50 66 70 68 69 78 84 87 94 90 100 121 134 140 145 139 142 144 147 151 148 149 152 160 155 159 154 157 155 152 152 153 151 147 143 146 147 149 142 138 135 133 122 115 109 110 105 105 92 63 40 32 31 35 29 29 34 30 40 87 107 102 104 100 31 31 36 35 31 27 29 29 29 28 32 35 35 37 46 53 65 70 73 87 80 70 64 58 56 55 53 54 50 62 61 62 74 76 83 91 99 100 117 139 143 146 146 142 145 151 157 156 153 155 156 161 156 159 160 157 161 158 156 151 155 153 148 144 147 147 144 136 138 132 122 115 113 110 110 111 100 96 60 35 30 29 35 28 31 32 34 85 104 104 101 102 29 34 29 36 36 24 32 28 25 30 27 37 39 45 56 61 75 76 76 77 79 72 70 63 59 55 53 51 57 60 63 70 84 90 92 96 104 121 141 147 150 147 151 148 152 154 155 158 153 154 156 158 152 160 160 162 161 163 161 156 156 156 151 145 146 148 144 142 138 133 130 115 114 107 111 110 100 108 93 61 27 26 32 40 32 31 25 84 109 100 102 100 30 32 29 31 35 34 26 32 19 27 28 32 41 53 66 82 91 92 92 89 92 86 87 81 81 81 75 75 76 72 83 90 94 91 98 115 127 141 151 149 148 149 150 156 152 155 156 159 150 156 154 157 154 160 161 161 163 163 160 156 157 154 150 149 148 148 143 146 136 138 131 122 110 110 113 106 105 103 105 81 39 26 29 40 37 25 29 92 105 104 103 98 28 30 31 29 32 36 32 32 26 24 30 43 49 58 72 92 99 104 114 113 114 115 118 114 114 118 120 118 113 106 101 110 115 124 130 142 147 152 150 152 151 149 152 149 156 153 154 154 148 153 154 158 161 162 165 161 161 164 156 154 155 152 152 148 149 150 147 144 142 135 133 130 118 110 109 107 108 103 103 100 60 31 27 34 36 30 30 87 114 96 100 99 29 29 31 29 28 31 41 39 25 33 35 44 57 65 80 92 99 109 120 120 120 123 122 122 119 129 128 132 134 138 132 143 147 150 148 152 154 152 154 154 152 152 149 153 153 154 152 154 150 151 154 157 163 162 162 158 161 160 155 153 155 156 147 148 147 153 143 139 141 129 131 125 124 113 107 106 106 102 106 107 85 40 28 29 36 34 28 86 113 100 100 96 24 33 28 30 30 23 34 37 27 44 45 51 59 69 87 93 105 110 119 116 123 126 127 131 130 134 134 138 141 142 143 153 154 154 154 155 153 152 153 156 155 152 153 153 154 155 151 156 151 153 158 155 163 158 157 156 154 159 150 144 154 153 149 147 141 144 143 131 128 121 119 119 113 117 110 108 101 106 104 105 95 65 28 31 35 43 36 84 123 97 99 101 29 30 30 26 30 22 32 32 35 49 50 64 60 76 87 97 104 112 117 117 125 134 140 142 144 147 146 150 150 153 155 160 154 160 159 157 155 157 158 164 160 157 161 157 155 159 150 155 152 157 158 159 156 158 153 150 151 155 147 141 143 144 139 133 126 129 132 122 119 111 109 105 104 104 112 107 101 103 108 104 101 84 49 28 31 45 55 92 128 89 99 99 29 32 32 27 29 23 32 32 48 54 61 66 71 84 96 103 112 118 122 126 136 145 148 150 155 154 152 156 160 158 161 164 162 162 165 162 160 159 163 168 166 159 163 161 153 159 153 154 152 153 152 152 147 150 152 141 145 144 138 130 124 124 116 109 105 108 104 105 100 101 98 96 91 92 96 99 98 103 108 103 108 91 59 40 39 41 87 108 127 95 93 97 30 29 30 30 29 27 29 42 48 60 60 68 76 99 105 119 123 121 130 134 145 150 152 153 153 153 153 161 158 159 155 162 163 158 164 161 160 159 161 167 163 163 165 159 160 161 155 157 152 147 147 147 136 143 135 130 126 115 115 104 90 93 91 90 86 89 93 99 95 93 91 91 97 90 93 93 97 109 104 101 107 98 73 46 45 54 94 108 120 97 96 97 40 28 31 31 27 30 26 46 65 64 57 71 86 111 121 125 130 130 132 139 144 145 149 150 148 151 151 159 152 148 152 153 156 154 155 157 154 153 159 161 163 160 162 165 159 159 157 152 148 135 130 130 127 124 106 101 81 77 78 71 63 71 75 72 82 84 87 98 101 101 103 102 105 101 91 96 95 108 109 102 107 114 86 55 52 70 102 108 109 103 94 99 43 32 24 34 32 28 32 46 77 71 63 70 97 109 131 127 133 130 130 136 135 133 142 143 137 140 140 150 143 143 148 150 145 147 145 148 149 147 147 152 154 155 153 163 157 152 150 146 140 130 119 105 118 101 86 73 64 69 67 61 64 78 83 85 95 97 100 103 111 113 113 110 104 104 100 99 100 115 110 102 110 111 94 66 56 78 106 121 99 110 90 99 63 39 29 31 30 30 31 59 81 84 66 87 98 114 125 122 127 116 109 110 106 105 116 120 112 115 115 115 122 121 125 123 125 125 129 132 128 132 138 141 142 148 143 150 152 147 138 134 122 116 111 95 91 88 78 67 68 64 67 69 74 82 85 90 92 98 99 98 100 107 107 106 108 107 110 108 112 114 115 107 106 108 106 73 60 82 110 118 111 102 92 93 73 70 38 33 26 32 33 65 89 90 78 87 104 112 108 108 115 90 101 102 91 93 91 90 90 84 82 85 90 89 88 93 90 98 109 111 115 110 126 128 134 133 136 139 139 137 133 127 120 100 109 88 83 82 77 70 65 56 67 54 39 33 105 57 33 44 60 62 55 60 69 84 103 112 120 116 116 118 116 109 111 105 103 82 68 90 111 119 112 111 91 94 100 101 62 30 26 32 36 71 93 91 93 91 95 93 90 90 90 84 90 98 89 91 92 83 81 79 62 61 62 61 64 63 71 68 82 88 94 93 110 116 121 120 124 126 131 132 119 118 111 100 89 88 82 84 70 62 58 75 113 80 53 32 36 48 27 39 96 90 60 43 45 54 74 95 109 114 117 117 122 119 110 104 103 85 80 104 115 129 122 112 90 91 99 111 68 44 29 26 43 77 96 94 96 94 83 80 79 85 86 84 85 94 91 92 86 83 82 80 78 69 64 63 60 59 65 61 67 69 81 84 97 105 103 112 113 120 125 123 121 117 109 101 88 91 85 83 60 81 104 98 121 122 65 64 47 40 46 69 110 103 83 89 84 88 98 103 102 111 123 126 123 126 116 105 93 95 116 116 125 131 134 108 95 87 75 98 99 55 36 32 41 81 97 93 103 94 79 76 79 86 86 94 97 95 107 105 107 93 92 78 74 73 37 43 56 52 52 49 57 64 63 73 73 83 93 99 118 140 148 144 133 130 121 103 100 99 92 84 75 81 83 83 101 109 95 90 92 93 84 94 111 111 122 118 118 116 123 129 124 126 128 126 125 125 120 105 87 93 130 124 119 129 130 118 88 92 62 60 102 73 45 31 45 85 97 97 102 102 78 68 79 89 87 93 95 94 90 79 74 59 47 27 35 57 28 55 103 91 59 50 36 45 59 68 65 70 92 116 140 148 157 149 140 143 128 112 110 106 107 115 110 107 98 95 110 114 113 118 115 127 108 111 128 130 126 127 120 116 126 134 129 130 127 130 129 127 125 109 88 89 126 124 111 126 135 115 91 85 99 38 41 89 71 35 47 88 99 102 97 105 90 82 83 89 95 96 74 59 34 40 82 66 52 41 31 41 53 88 133 113 85 88 72 63 80 71 65 66 95 126 150 162 161 154 158 155 134 113 116 111 117 134 121 115 105 102 113 120 121 132 128 126 128 128 128 130 132 121 125 122 131 134 130 135 127 132 131 128 129 114 94 87 123 107 117 130 122 121 91 81 118 69 39 72 73 38 50 93 102 98 97 103 98 96 89 94 97 82 48 41 45 63 99 96 70 53 52 74 73 100 124 107 96 99 109 110 108 104 66 64 104 125 151 166 165 163 166 156 133 114 121 119 120 133 127 119 117 105 107 114 113 114 123 124 124 129 125 125 123 122 121 127 132 132 129 138 132 130 131 128 132 118 95 82 128 113 107 137 113 127 85 79 133 93 71 84 73 44 58 96 103 98 105 111 101 104 95 94 87 68 64 74 87 89 93 99 88 84 96 108 111 126 134 125 115 111 110 112 115 102 76 77 99 136 152 160 163 171 164 155 136 118 125 130 121 129 136 138 134 130 120 112 111 106 107 111 111 114 117 123 129 133 138 143 142 132 141 135 136 135 130 133 123 126 96 73 131 134 112 124 127 108 88 75 124 107 96 91 75 51 55 93 104 106 107 118 119 116 109 99 96 92 95 95 106 112 112 112 100 100 106 125 120 129 125 115 103 102 109 115 109 101 93 91 102 131 148 153 159 168 160 159 139 118 123 133 131 132 133 135 145 145 140 138 142 140 140 138 135 137 147 148 155 151 150 145 153 147 140 145 146 134 126 130 124 123 99 78 125 132 125 127 120 108 80 79 119 109 107 84 70 50 50 91 104 107 112 123 130 133 132 133 125 116 115 109 106 120 120 120 119 116 119 121 121 113 106 106 104 115 115 116 120 105 110 107 110 130 145 162 165 168 164 160 151 128 126 133 136 136 133 136 148 153 150 151 155 159 157 152 152 145 154 162 163 157 154 153 157 157 149 149 146 139 125 130 125 119 103 80 118 136 144 138 124 102 81 77 128 103 112 84 63 49 47 85 102 110 114 127 130 140 140 145 140 132 131 124 110 106 106 108 107 109 107 102 109 114 120 125 124 124 123 131 131 122 120 113 113 127 141 156 161 163 159 156 150 138 126 131 132 137 137 138 147 157 157 160 160 165 168 161 160 156 163 160 164 160 153 149 156 154 150 149 143 139 126 131 123 119 107 79 110 136 148 141 125 90 78 74 107 108 110 88 67 54 51 78 99 112 119 129 133 133 146 153 150 144 145 145 135 130 121 124 122 125 128 133 135 149 146 143 143 144 150 141 134 129 123 117 117 124 142 156 158 166 161 154 155 148 130 138 134 132 132 140 141 152 158 161 164 167 171 163 166 163 164 167 164 163 158 157 155 154 154 141 142 137 129 123 133 120 103 85 108 129 140 146 118 89 73 81 102 109 111 96 85 68 60 77 95 116 119 128 134 137 144 149 148 145 147 148 148 149 148 151 151 151 159 153 156 161 157 154 159 161 154 143 134 124 128 120 118 130 141 152 159 164 162 162 154 146 136 138 141 140 141 141 143 150 155 155 158 160 166 166 167 168 172 171 167 162 166 165 156 158 159 149 147 143 128 128 125 121 106 81 108 128 132 137 124 71 78 75 83 111 111 110 96 89 80 74 96 111 123 130 131 138 143 144 147 155 154 150 156 161 158 162 167 165 165 161 164 170 167 166 166 160 153 143 125 123 129 125 122 134 138 154 160 164 163 158 154 145 141 136 143 141 140 137 144 154 158 156 155 161 158 166 167 160 168 168 161 169 164 166 163 158 156 156 151 140 128 133 118 118 107 78 107 127 133 125 107 68 80 80 52 115 109 115 107 92 92 85 85 110 122 128 130 135 146 144 151 160 154 161 159 160 163 159 166 170 167 167 175 175 173 170 162 157 145 142 131 129 130 125 122 134 142 150 156 160 161 155 157 151 143 137 139 141 144 137 132 138 158 156 152 160 154 162 168 164 163 165 162 159 165 164 159 156 153 150 151 140 124 129 124 106 110 82 114 129 124 115 81 77 78 83 45 103 115 107 119 102 97 97 76 105 116 128 126 133 138 144 149 155 157 161 160 161 160 156 168 169 172 173 175 180 173 171 158 156 148 142 129 125 136 126 113 131 132 150 157 158 162 162 152 151 147 139 128 147 141 146 139 127 126 138 149 157 155 159 162 164 158 161 169 158 159 161 152 148 149 144 148 140 126 126 115 114 102 87 126 128 114 97 78 81 80 81 40 88 119 109 109 110 107 101 73 101 115 120 126 130 131 140 144 142 149 157 156 163 163 163 175 173 173 176 177 177 177 171 156 153 149 140 120 125 134 125 110 127 135 147 157 163 158 158 155 150 145 145 129 139 146 151 147 135 125 118 137 147 150 148 155 159 160 160 158 159 156 158 150 143 143 143 141 130 125 122 116 113 101 92 124 123 98 84 75 80 80 84 48 67 114 117 105 105 128 114 69 91 110 116 123 123 130 138 139 134 144 149 155 155 163 172 173 175 165 171 172 172 170 163 155 154 142 116 126 134 138 124 118 128 132 135 151 164 158 156 154 153 146 148 142 135 142 151 152 147 129 120 133 130 133 140 147 157 155 153 155 152 155 150 143 143 141 135 141 127 120 118 111 115 99 95 111 100 78 77 83 81 85 79 63 51 94 115 107 108 135 127 73 82 104 114 118 120 133 134 132 140 142 147 156 157 160 167 176 168 168 170 168 167 164 154 157 149 126 107 132 139 138 130 126 131 123 136 149 165 169 164 157 155 149 154 147 138 144 148 150 149 133 118 139 133 123 129 136 143 144 141 153 145 145 142 134 139 136 134 129 130 119 114 115 111 100 96 85 75 79 82 79 81 83 78 67 50 63 111 105 108 126 136 86 80 100 104 119 119 133 134 129 138 145 141 152 155 151 163 172 166 160 167 164 152 158 155 151 129 111 113 131 139 134 133 132 132 135 146 162 168 171 167 166 172 163 148 144 136 141 138 137 134 122 113 136 142 128 118 122 131 133 129 138 141 137 132 132 132 134 125 123 119 118 111 114 108 111 81 72 77 79 83 81 83 79 81 65 59 56 81 105 110 124 129 116 79 94 102 114 117 123 125 131 136 141 140 145 150 151 148 163 160 155 163 157 150 151 144 136 123 104 116 130 134 131 131 124 129 136 147 152 153 159 151 148 160 155 131 121 127 123 123 119 115 103 112 128 138 140 119 109 117 127 128 131 127 123 125 126 127 125 125 117 117 110 113 107 105 109 92 68 81 77 83 77 80 82 79 60 68 56 61 94 105 123 124 120 79 89 102 108 109 117 120 131 134 135 137 147 144 151 150 154 153 152 152 152 148 145 132 127 125 102 109 124 121 122 121 116 112 114 130 139 140 137 137 132 130 128 115 106 109 96 79 71 85 100 120 122 134 138 135 121 109 120 123 118 126 119 119 119 122 119 120 114 112 115 105 110 109 107 84 73 82 75 81 78 82 80 78 62 67 61 63 73 94 115 119 120 89 84 103 104 106 112 118 131 127 134 134 145 140 142 150 148 144 145 148 146 141 133 126 133 128 108 97 102 112 109 106 106 103 101 101 121 122 123 121 113 109 103 90 76 67 62 60 74 94 115 125 119 127 137 133 129 113 108 119 120 124 119 118 116 121 116 113 116 110 112 108 111 107 109 82 73 80 74 79 82 80 80 83 65 65 67 56 58 78 106 111 118 105 80 95 106 110 102 116 122 129 129 135 137 136 139 143 144 143 141 140 139 135 130 125 137 135 113 96 78 76 73 61 69 76 78 81 92 104 105 104 94 86 70 60 70 82 101 111 116 117 112 121 121 123 132 126 126 122 106 107 119 123 123 116 117 119 119 115 111 113 111 116 106 106 107 87 69 75 82 79 83 78 77 82 66 64 66 62 60 62 88 99 116 106 80 86 105 103 104 108 115 123 124 132 134 136 134 139 138 131 138 143 137 135 130 130 139 136 125 113 77 49 48 42 41 40 44 46 53 74 78 74 77 74 82 96 114 116 121 118 120 121 112 120 128 119 126 124 120 125 115 109 113 124 123 126 118 121 118 118 114 116 115 114 109 110 112 82 70 72 83 81 82 79 80 80 63 62 65 61 60 67 63 76 92 101 80 85 98 100 94 107 113 115 118 123 129 127 129 132 130 124 133 132 138 131 136 142 138 144 144 137 119 85 73 74 64 66 68 57 57 55 62 71 91 103 115 120 121 130 125 124 124 126 116 120 124 124 121 126 119 130 130 122 122 130 129 132 136 128 123 126 116 121 119 117 112 106 114 77 73 81 77 80 81 79 80 81 68 65 65 62 61 67 62 62 67 81 73 83 92 98 97 105 108 113 113 121 120 121 122 122 125 128 128 132 136 134 138 142 145 147 144 142 140 114 102 94 97 96 104 105 105 105 110 108 121 122 125 130 128 132 123 124 125 122 118 118 120 123 124 129 123 129 137 133 137 133 134 138 139 135 128 125 120 125 121 121 111 106 110 80 72 81 78 81 80 82 79 82 63 66 63 65 65 70 64 65 61 68 74 68 93 99 96 96 105 110 112 115 113 117 117 117 122 126 129 135 141 139 136 137 145 140 140 142 135 132 121 118 109 105 110 124 123 130 132 122 129 134 128 128 131 135 129 126 129 127 118 117 121 126 125 127 121 122 134 131 140 148 137 142 144 134 133 127 116 121 123 120 114 104 104 76 76 81 78 82 75 86 80 78 58 63 65 64 65 65 66 64 68 63 66 73 80 102 95 95 100 106 110 114 110 112 116 118 116 126 128 139 144 138 133 137 145 140 136 143 138 135 131 132 128 126 126 123 128 138 135 124 129 136 126 134 134 136 132 129 126 131 122 121 116 124 122 122 117 120 122 130 136 146 137 138 150 138 129 128 118 122 125 122 109 104 95 79 73 77 82 79 75 85 79 76 63 62 68 62 66 61 70 65 70 64 67 66 77 96 98 100 97 96 109 108 116 113 116 120 119 126 130 139 142 133 124 137 137 136 130 133 136 133 129 139 141 135 144 140 143 144 143 134 139 132 133 133 145 140 140 135 123 131 124 123 115 116 119 113 112 118 119 134 132 142 136 140 150 139 129 121 118 123 122 122 114 98 95 70 75 77 81 80 78 85 79 83 64 63 63 66 64 63 68 66 64 65 67 66 77 89 99 101 102 89 102 114 118 119 122 119 123 131 130 134 141 137 123 134 134 131 130 125 129 127 133 139 144 148 143 156 159 154 146 140 129 125 130 134 144 137 132 138 127 122 125 123 114 111 107 112 110 111 126 134 133 135 134 144 148 135 127 120 117 125 121 116 111 99 91 68 78 81 77 79 80 81 78 83 64 59 69 62 67 64 68 71 64 68 60 76 71 85 97 105 106 99 104 113 121 124 123 128 131 128 126 132 134 129 122 124 133 132 118 122 124 119 128 141 143 152 149 154 160 164 157 150 143 134 130 128 118 107 107 111 105 102 104 108 104 94 93 88 86 98 110 127 132 135 131 148 149 129 120 120 118 126 116 115 99 109 80 76 73 84 80 80 78 82 79 83 65 64 67 61 62 71 58 67 64 67 63 63 78 77 99 104 104 105 109 112 121 129 131 133 131 126 120 128 132 120 119 118 120 125 119 112 122 121 126 131 139 137 128 126 127 122 117 109 113 107 95 90 89 68 77 99 80 72 91 84 77 65 50 24 38 85 104 115 131 134 129 144 152 129 115 119 121 120 118 110 107 96 79 74 78 78 83 80 79 77 82 78 63 61 69 59 68 67 64 62 73 64 61 69 67 82 91 106 109 107 107 114 124 131 134 140 133 127 121 127 128 123 115 114 117 118 114 113 115 117 118 109 105 97 87 77 83 84 88 87 62 82 111 123 138 90 112 155 128 95 133 117 104 91 42 30 85 117 112 114 130 134 129 147 147 128 115 116 119 121 113 111 101 94 70 81 79 78 79 78 80 77 81 84 61 65 64 64 63 65 67 64 64 67 59 73 63 76 86 102 108 113 105 113 121 129 138 143 135 129 122 126 128 120 118 118 113 112 114 105 96 91 84 71 73 91 108 73 102 129 134 138 85 111 162 165 173 136 140 178 152 116 139 121 93 85 70 83 110 130 127 124 130 131 133 145 147 122 112 115 120 120 111 112 99 81 73 81 78 80 81 77 82 78 76 78 61 65 62 61 64 63 66 67 64 64 69 62 70 70 88 91 107 112 107 109 121 127 134 144 143 132 122 125 127 121 120 111 107 95 84 68 56 63 84 72 88 127 153 117 124 159 163 179 95 97 181 172 180 141 127 158 156 89 105 113 62 81 100 111 119 133 136 140 130 132 140 147 140 123 110 116 122 115 113 101 105 72 72 77 82 78 78 76 84 78 78 79 63 62 67 62 62 67 66 64 66 68 65 66 67 68 78 93 102 113 108 108 112 128 133 137 146 140 121 126 126 125 123 109 98 67 24 24 30 43 110 91 79 131 150 120 113 161 164 181 93 70 169 149 138 135 99 94 108 87 92 98 95 104 115 124 125 134 148 146 135 135 138 150 132 115 112 116 122 115 106 107 84 74 76 82 79 81 78 79 82 77 77 83 60 64 64 59 67 61 66 66 69 67 65 64 68 63 77 87 95 113 107 111 105 120 129 131 145 147 129 124 125 134 118 111 110 87 59 43 55 34 81 74 49 85 80 84 83 111 116 131 112 84 138 120 103 121 106 88 93 102 115 112 108 119 124 127 135 137 150 140 132 133 142 147 131 112 108 124 123 111 106 104 74 72 79 78 79 77 80 75 79 81 76 83 64 62 62 60 68 63 67 65 67 68 64 66 69 61 77 76 88 108 106 111 111 113 119 131 138 150 136 130 129 129 128 123 125 129 115 92 90 89 88 101 103 99 84 99 110 97 102 116 104 106 125 118 114 122 112 120 122 122 115 115 120 120 120 126 135 143 144 136 129 133 147 144 126 112 110 122 119 112 104 88 76 75 82 78 79 74 81 83 82 76 79 78 63 64 60 62 68 67 60 68 67 64 65 66 67 71 60 76 90 95 104 107 104 106 113 120 133 147 140 136 134 131 128 131 131 133 141 130 110 100 106 123 122 116 120 135 143 138 134 130 124 125 144 144 149 149 146 140 142 124 117 128 121 105 121 129 135 145 140 131 119 131 147 135 117 109 116 117 113 112 93 82 69 85 80 78 80 77 75 84 77 82 80 83 64 62 62 61 69 62 66 67 63 65 67 67 68 63 70 65 83 93 98 104 105 103 108 116 123 142 141 140 138 131 131 134 133 127 132 135 125 106 113 115 119 119 118 134 151 155 156 141 147 143 149 148 156 152 140 137 130 128 127 132 119 108 121 131 139 136 140 124 122 134 137 130 117 109 120 115 116 94 90 73 77 78 80 76 75 80 81 80 82 74 79 76 63 63 62 65 63 64 62 66 64 70 66 64 68 67 67 65 75 87 93 99 106 97 108 104 115 132 137 140 140 132 131 140 138 127 125 125 123 116 120 117 116 114 115 118 132 136 144 147 141 139 141 147 144 141 136 127 130 129 127 132 125 118 123 130 136 138 130 122 127 139 132 126 112 113 121 109 109 93 74 77 75 78 79 76 76 80 81 78 75 78 78 79 58 62 64 64 63 64 67 66 66 66 69 63 71 69 66 62 74 73 88 96 107 99 110 100 107 122 132 138 136 136 135 138 143 132 121 117 124 121 118 121 117 122 117 120 130 132 139 136 133 130 136 131 130 130 129 130 130 130 127 123 123 118 121 131 128 136 127 125 132 134 130 120 109 121 114 107 99 83 66 77 77 81 76 79 77 77 77 77 78 79 78 79 61 65 64 64 62 62 67 64 68 65 66 66 68 66 68 64 85 69 83 86 102 101 105 102 102 118 123 134 139 130 137 134 136 133 128 117 117 120 119 124 117 119 117 118 126 123 124 124 119 121 129 119 128 128 130 130 124 119 125 122 121 117 125 124 128 136 131 125 132 128 123 119 111 114 111 99 94 69 75 79 73 80 77 77 79 76 74 78 80 78 75 79 62 66 62 64 61 70 65 63 68 63 67 69 63 65 69 106 120 82 72 78 94 98 103 106 101 107 114 126 140 137 133 136 136 133 125 120 118 112 118 121 119 116 118 121 119 122 121 122 123 123 125 120 121 130 120 121 121 127 125 126 121 125 130 128 129 136 134 130 129 126 121 113 109 112 101 83 97 114 77 79 74 79 80 77 76 78 80 80 75 77 77 78 67 65 58 67 65 61 67 67 63 65 66 58 63 89 135 129 104 81 77 72 87 97 98 103 109 106 106 119 125 135 133 129 128 137 129 123 119 112 113 113 116 115 115 115 118 117 118 118 120 118 122 121 119 129 123 124 125 131 127 122 124 131 130 134 139 141 131 134 123 122 118 107 107 108 94 79 99 153 144 108 66 74 77 80 77 77 82 74 81 77 75 83 64 64 64 63 64 66 64 64 65 66 62 58 112 156 138 104 133 91 78 73 83 87 91 104 104 110 103 112 118 125 130 129 125 126 132 132 123 114 111 114 118 120 115 128 126 121 117 115 117 121 122 116 121 129 126 119 128 131 125 124 130 130 130 136 146 143 131 130 126 113 112 109 104 97 91 86 106 141 149 172 148 71 71 80 77 79 76 75 76 76 78 76 60 61 65 65 62 64 65 64 64 61 52 118 163 147 110 143 166 95 74 80 73 84 83 100 103 105 105 106 120 125 127 127 130 124 124 136 131 123 114 115 115 121 123 122 131 126 121 123 127 125 129 128 130 133 133 127 128 132 130 133 142 124 130 146 147 141 130 117 121 111 105 107 95 92 99 74 131 147 119 156 169 166 74 73 75 75 75 79 74 75 80 76 63 63 62 65 60 65 65 65 62 48 113 168 151 106 154 176 150 88 78 87 76 77 79 88 94 102 101 103 106 119 126 122 123 132 122 136 139 131 116 124 119 122 121 120 124 126 140 145 145 147 151 153 153 150 147 144 147 144 148 145 153 118 127 149 143 146 123 112 111 104 102 95 87 102 107 76 123 184 153 128 139 179 179 76 60 78 74 79 79 74 78 74 62 63 63 67 65 63 63 67 39 92 171 173 111 124 184 168 123 82 82 86 88 73 68 90 88 96 93 102 104 110 123 125 120 125 124 135 138 139 128 133 128 132 129 127 126 139 152 150 148 155 157 162 156 150 155 151 148 142 142 149 149 141 137 142 141 138 119 107 104 98 99 86 90 114 108 77 121 170 194 150 106 160 190 159 65 64 78 76 80 75 77 79 68 61 63 67 64 62 62 43 66 176 194 132 103 172 182 144 82 84 89 89 90 84 65 75 82 92 84 93 97 100 111 119 120 119 121 129 132 137 137 141 141 139 144 139 142 139 155 155 145 156 156 158 156 154 152 151 140 138 138 143 144 143 140 138 132 125 111 104 96 93 91 89 103 109 110 87 107 149 188 198 126 135 163 196 139 57 75 74 82 77 75 81 64 62 62 67 65 66 52 31 153 201 183 98 140 189 167 119 57 88 90 93 93 83 78 70 72 81 87 91 87 93 102 113 109 115 120 124 135 129 139 143 141 137 145 140 141 144 151 155 152 155 157 159 150 155 152 150 142 134 141 143 143 142 138 133 128 120 105 98 89 90 95 102 104 106 107 97 86 131 173 199 179 113 156 175 190 104 51 78 74 80 78 75 66 62 61 63 64 65 30 86 203 214 151 100 177 189 167 80 40 96 97 96 92 84 81 77 68 69 79 83 90 85 87 101 101 113 116 117 131 132 130 129 133 134 138 142 142 147 146 149 154 143 151 149 145 146 148 148 139 139 142 133 140 132 124 122 120 112 91 91 86 92 105 113 100 102 106 108 57 93 159 183 202 129 126 169 190 177 60 60 77 79 78 77 63 65 62 64 63 66 28 148 212 214 134 105 201 194 150 68 23 99 101 98 91 90 86 79 66 72 70 72 84 89 85 85 93 102 109 109 119 125 133 119 131 131 125 134 141 138 142 136 151 140 144 143 142 144 136 140 140 139 128 126 130 122 109 116 109 100 85 86 87 107 107 110 108 98 108 112 43 56 145 173 207 157 110 162 185 202 104 44 78 77 76 76 64 63 68 60 70 43 54 198 214 210 124 136 213 195 148 38 26 105 111 98 93 91 90 84 74 66 64 71 76 76 84 85 81 85 93 100 110 110 124 121 128 131 124 129 136 134 132 134 140 138 142 142 138 146 130 140 142 131 123 116 122 106 106 107 95 88 82 97 103 119 111 107 113 103 104 120 46 32 115 162 201 189 88 154 178 195 159 48 66 77 77 78 64 62 65 63 69 22 91 210 214 209 127 169 213 200 156 14 54 116 111 105 93 91 90 89 80 71 62 69 72 75 76 85 89 82 83 88 97 105 110 110 118 122 117 127 132 129 126 132 130 124 132 135 128 133 132 130 125 120 123 112 111 103 101 96 82 86 93 111 115 121 114 106 106 103 110 113 47 24 89 154 190 210 92 133 176 189 180 70 63 76 78 77 63 64 64 63 63 19 134 217 209 207 148 176 214 221 151 4 85 120 109 107 105 97 95 92 84 80 72 60 70 78 72 76 78 87 87 78 85 88 93 97 99 113 111 116 121 125 123 120 124 127 124 124 119 120 124 121 117 108 112 105 95 95 89 83 79 99 114 119 124 113 112 111 106 106 115 123 37 14 61 146 191 215 119 108 169 189 191 88 52 77 75 80 63 63 66 65 47 32 173 215 207 207 152 186 213 226 164 8 102 115 117 106 109 106 97 97 89 86 80 65 68 67 73 71 76 79 87 88 88 80 87 86 96 92 101 112 101 120 116 109 116 115 117 115 114 108 115 108 110 106 104 98 87 85 80 84 98 108 126 123 121 114 116 116 103 112 111 122 61 4 50 148 185 217 146 86 162 185 197 98 56 75 81 77 62 67 68 61 37 79 182 207 205 207 162 185 212 233 166 25 109 118 114 117 107 116 107 100 99 95 83 74 71 65 65 64 73 74 76 80 89 87 90 85 86 85 90 92 95 100 106 103 105 107 103 105 100 98 105 97 97 96 89 84 82 84 84 100 117 121 122 118 122 118 119 111 105 116 109 116 82 9 49 161 186 213 161 80 153 186 194 103 52 80 75 76 62 70 66 69 63 123 174 204 206 204 175 175 214 231 176 36 108 117 122 119 108 117 118 109 104 98 89 83 73 69 67 61 66 73 74 73 79 80 90 87 85 87 89 88 90 96 94 98 97 97 97 94 92 95 92 89 91 84 83 87 80 91 106 113 123 127 120 122 120 117 118 117 118 112 114 111 91 13 54 165 194 208 171 78 153 191 192 113 51 75 78 76 141 141 123 126 141 170 162 194 210 204 177 175 208 223 209 40 110 121 124 120 118 114 113 121 119 106 93 94 89 74 73 69 70 67 65 77 77 72 78 83 85 89 89 91 87 89 92 88 89 87 91 86 81 87 86 86 86 76 83 82 100 110 112 124 127 125 125 123 120 120 122 117 116 112 118 112 77 13 86 181 195 206 151 105 175 197 179 147 122 83 77 69 168 174 157 158 163 181 156 185 209 206 189 171 202 221 219 64 98 127 127 120 118 118 115 119 122 118 109 102 94 86 73 71 73 73 64 71 72 70 68 77 74 82 88 87 90 92 86 93 84 87 89 88 80 89 82 80 79 80 81 95 108 117 118 126 127 127 122 127 121 127 120 112 119 113 117 115 60 17 126 189 200 203 119 125 184 192 176 141 160 151 124 82 161 166 172 186 175 181 172 167 207 208 197 181 191 212 222 99 88 126 130 122 117 119 122 126 121 121 121 118 104 93 84 80 77 74 74 69 67 71 67 68 66 71 71 70 77 74 82 81 76 81 79 76 76 68 76 77 86 90 95 111 115 121 123 123 126 121 127 131 128 125 119 116 117 116 109 116 40 54 173 194 203 186 102 145 188 195 164 147 154 161 168 161 175 189 175 196 178 180 187 156 204 208 199 193 182 210 232 129 81 127 131 126 120 121 124 120 124 124 119 124 120 110 91 92 82 75 75 75 72 64 69 71 66 66 66 56 64 60 60 69 64 67 68 67 69 70 83 88 95 100 112 122 123 123 125 127 128 130 130 133 123 125 119 112 115 115 112 102 33 102 193 199 203 160 110 165 186 194 163 143 168 154 154 162 