P2
92
112
15
3 3 3 2 3 2 2 3 4 4 3 3 3 4 4 4 4 3 3 3 2 3 3 2 3 3 4 5 5 5 5 5 4 4 4 3 3 3 2 2 2 2 2 2 2 2 2 2 2 2 2 2 2 2 2 1 2 1 1 1 2 3 2 3 3 2 2 2 3 3 3 2 2 3 3 2 3 4 3 2 4 5 6 6 6 6 6 6 6 6 6 6 3 2 3 3 3 2 2 3 4 3 3 3 4 4 5 5 3 3 3 3 3 3 2 3 3 4 4 4 5 5 5 5 6 5 5 4 4 3 3 2 2 2 2 2 2 2 2 2 2 2 2 2 2 1 2 1 1 1 1 1 2 2 2 2 3 2 2 2 3 3 3 2 3 2 3 2 2 4 4 2 3 4 5 6 6 6 6 6 6 6 6 6 2 2 4 3 2 3 3 3 2 2 3 5 4 5 5 4 4 3 4 4 4 4 4 4 3 3 4 4 4 4 4 5 5 4 4 4 4 4 4 3 3 3 3 3 3 2 2 2 2 2 2 2 2 2 1 1 1 0 1 1 2 2 2 2 2 1 2 2 2 3 3 2 2 3 3 3 2 2 4 4 2 3 4 5 6 6 6 6 6 6 6 6 2 3 4 3 3 3 4 2 1 3 5 5 5 5 4 4 5 5 6 5 5 5 5 4 4 3 4 3 3 4 4 4 4 4 4 4 5 4 3 3 3 3 2 3 3 3 2 2 2 2 2 2 2 2 2 1 1 1 1 1 1 2 2 2 2 1 1 1 2 2 3 2 2 3 3 3 2 1 3 4 3 2 4 4 5 6 6 6 6 6 6 6 4 5 4 3 3 4 3 2 3 5 5 5 5 3 4 4 6 6 6 5 6 5 5 4 4 4 4 3 3 3 3 3 3 4 4 5 5 4 4 4 3 3 3 3 3 3 2 2 2 2 2 2 2 2 2 1 2 2 2 1 2 2 2 2 1 1 1 2 1 2 2 2 2 3 3 3 2 2 2 3 3 3 3 4 4 6 6 6 6 6 6 6 5 5 4 2 3 3 2 2 4 5 4 4 4 4 4 5 5 5 5 5 6 6 5 5 5 5 5 5 4 4 4 4 4 4 5 5 5 4 4 4 4 4 4 3 3 3 3 3 2 3 3 2 2 2 2 2 2 2 1 1 1 2 2 1 1 1 2 2 1 2 2 2 2 3 3 3 2 2 2 2 3 3 3 4 4 5 6 6 6 6 6 6 5 4 3 2 2 3 2 3 5 4 4 5 5 5 5 5 5 5 5 5 6 5 6 5 5 5 5 5 5 4 4 4 5 5 5 5 5 4 5 5 5 4 5 4 4 4 3 3 3 2 3 2 2 2 2 2 2 1 2 1 2 1 2 1 1 2 1 1 2 1 2 1 2 2 3 3 2 2 2 3 3 3 3 3 4 4 6 6 6 6 6 6 4 4 3 2 2 3 4 5 5 5 5 5 5 5 5 4 5 5 5 5 6 5 5 5 5 6 6 6 6 5 5 5 5 5 5 5 5 4 5 5 4 3 4 4 4 4 3 3 3 2 2 2 2 2 1 2 2 2 1 1 1 1 1 1 1 1 1 2 2 1 1 1 2 2 2 2 2 1 2 3 3 4 3 3 4 3 5 6 6 6 6 6 4 3 2 3 3 3 5 5 5 5 4 4 5 5 4 4 5 5 5 5 5 5 5 5 4 5 5 5 5 5 5 5 5 4 4 4 3 3 4 4 4 4 3 3 3 3 3 2 2 2 2 2 2 2 2 2 2 2 2 2 1 1 1 1 1 1 1 1 2 2 1 1 1 2 2 2 2 1 2 2 3 3 3 3 4 3 4 5 6 6 6 6 3 2 2 4 4 4 4 5 5 5 4 4 5 5 5 5 6 6 5 5 5 5 5 5 5 5 5 5 5 5 4 5 5 4 4 4 4 4 4 4 4 3 4 4 3 3 3 3 3 2 2 3 2 2 2 2 2 2 2 2 1 2 2 2 1 1 2 2 2 2 2 1 1 2 2 2 2 1 2 2 2 3 3 4 3 4 3 5 6 6 6 6 2 2 4 4 4 3 4 5 4 4 4 4 4 4 5 6 6 6 5 5 5 5 5 5 5 5 5 5 5 4 5 4 4 4 4 4 4 4 4 4 4 3 4 4 4 4 4 4 4 3 3 2 2 2 2 2 2 3 2 2 1 2 2 2 2 2 2 2 1 2 1 1 1 2 2 2 1 1 2 2 2 3 3 3 3 3 3 4 6 6 6 6 2 3 4 4 3 4 4 4 3 3 3 3 4 4 4 5 5 5 5 5 4 4 5 5 5 5 5 5 5 5 5 4 4 4 4 4 4 5 4 4 4 3 3 4 3 3 3 3 3 3 3 2 2 2 2 2 2 2 2 2 2 2 2 2 2 2 2 2 2 1 1 1 1 1 2 1 1 1 2 1 2 2 3 3 3 3 2 3 6 6 6 6 3 3 4 3 4 4 3 2 2 2 2 3 3 3 3 4 4 5 5 4 4 4 4 4 5 5 5 5 5 5 5 5 5 4 4 5 4 4 4 4 4 4 4 4 3 3 3 3 3 3 2 2 2 2 2 2 2 2 2 2 2 2 3 2 2 2 2 2 2 2 1 1 1 1 1 1 1 1 1 2 2 1 3 3 3 3 3 3 6 6 6 6 3 3 3 3 3 3 2 2 2 2 2 3 3 3 2 3 4 4 4 4 3 4 4 5 5 5 6 6 6 6 5 5 4 4 4 4 4 5 5 6 5 5 4 4 4 4 4 4 3 3 3 2 3 4 4 3 3 2 3 2 2 2 2 2 2 2 2 2 2 2 2 1 1 1 1 1 1 1 2 2 2 1 2 3 3 3 3 2 6 6 6 6 3 2 3 3 2 2 2 2 2 2 3 3 2 2 2 3 3 3 3 3 3 4 4 4 5 5 5 5 5 5 4 4 5 5 4 4 4 4 4 4 5 4 4 4 4 4 4 4 3 3 3 2 2 3 3 2 2 2 2 2 1 1 1 1 1 2 1 2 1 2 2 2 1 1 1 1 2 1 1 1 1 1 2 3 3 3 3 3 5 6 6 6 3 2 2 3 2 2 2 2 2 2 3 3 2 3 3 3 3 3 3 3 3 4 3 3 4 4 4 4 5 5 5 5 5 5 4 4 4 4 4 4 4 4 4 3 4 4 4 4 4 3 3 3 3 3 2 2 2 2 2 2 2 1 2 1 1 2 1 1 1 1 2 2 2 1 1 1 1 2 1 1 2 2 2 3 4 4 3 3 5 6 6 6 3 2 2 2 2 2 2 2 2 3 3 3 3 3 3 3 3 3 3 3 4 4 4 3 3 3 4 4 5 4 4 5 5 5 5 5 5 5 4 4 4 4 4 4 4 5 5 4 4 3 3 3 3 3 2 3 2 3 3 3 3 3 3 3 2 2 1 2 1 1 1 2 2 1 2 1 1 2 1 1 2 1 2 3 3 4 3 2 4 6 6 6 3 2 2 2 2 2 2 2 2 3 3 3 3 2 3 3 3 3 3 3 3 3 2 3 3 2 3 3 3 3 3 4 4 4 4 4 4 4 4 5 5 5 5 4 5 5 5 5 5 5 4 4 4 4 3 2 3 3 4 3 3 3 2 2 2 2 1 1 2 1 1 1 2 1 1 1 1 1 1 2 1 2 2 3 3 3 3 2 3 6 6 6 2 1 2 2 2 2 2 2 3 3 3 2 2 2 2 2 3 3 3 3 3 3 3 3 3 3 3 3 2 3 2 3 3 2 2 3 3 4 4 4 4 4 3 3 3 3 4 4 4 4 4 3 3 3 3 3 3 3 2 1 2 2 2 2 2 2 2 1 2 1 1 1 1 1 1 1 1 1 1 2 1 2 2 2 3 4 3 3 3 5 6 6 2 1 2 2 2 2 1 2 2 2 2 2 2 2 2 2 2 3 4 4 4 4 3 3 3 3 3 3 3 2 3 2 2 2 2 2 2 3 2 2 2 2 2 2 2 2 2 2 2 3 3 4 4 4 4 2 2 2 1 1 2 2 2 2 2 2 2 1 2 1 1 2 1 1 2 1 1 1 1 2 2 2 2 3 3 4 3 3 3 5 6 6 2 2 2 2 2 2 1 2 2 2 2 2 2 2 2 2 3 4 5 5 5 5 5 5 5 4 4 4 4 3 3 3 3 3 3 3 3 3 2 2 2 2 2 2 2 1 2 2 3 4 4 3 3 2 2 1 2 2 2 4 3 2 2 2 2 2 1 2 2 2 2 2 2 2 1 1 1 2 1 1 2 2 2 3 3 4 3 3 3 5 6 6 2 2 2 2 1 1 2 2 1 2 2 2 2 2 2 3 4 5 5 5 6 6 6 5 4 5 4 4 4 3 4 4 3 3 3 3 3 3 3 3 3 3 2 3 2 2 1 2 3 3 2 2 2 2 2 2 2 2 3 4 3 2 2 2 2 2 2 2 3 2 2 2 2 2 1 1 1 1 2 1 2 2 3 3 3 4 3 2 4 5 6 6 1 2 2 2 1 1 2 1 2 2 2 2 2 2 2 3 3 4 5 5 5 5 5 5 5 5 4 4 4 4 5 5 4 5 5 5 4 4 4 3 3 3 3 2 2 2 2 2 2 2 2 2 2 3 3 3 3 2 3 4 3 2 3 3 2 2 3 3 3 3 3 3 3 2 2 2 2 2 2 2 2 2 3 4 4 4 3 3 3 5 6 6 1 1 1 2 1 1 1 2 2 2 2 2 2 2 3 3 3 4 4 4 5 5 5 5 5 5 5 5 5 6 5 6 5 5 5 5 4 4 5 4 3 3 2 3 2 2 2 2 2 2 2 2 3 3 4 3 3 3 3 4 3 3 3 3 3 3 3 4 4 4 4 4 3 3 3 3 2 2 2 2 3 2 4 3 4 4 3 3 3 5 6 6 1 1 2 1 1 2 1 2 2 1 2 1 2 2 3 2 2 3 3 3 4 4 4 4 4 5 5 5 5 5 5 5 5 5 5 5 5 6 5 4 3 3 2 2 2 2 2 2 3 3 3 4 3 3 4 4 4 4 4 5 4 4 4 4 4 4 4 5 5 5 5 5 4 4 3 3 2 2 2 3 3 3 3 4 3 4 4 3 3 5 6 6 1 1 1 1 1 2 2 1 1 2 2 1 2 2 2 2 2 2 2 2 3 3 4 4 4 4 4 4 5 5 5 5 5 6 6 6 5 4 4 3 3 3 2 2 2 3 3 3 3 4 5 4 5 5 4 5 6 6 5 6 5 5 5 5 5 6 6 6 6 6 5 5 5 4 4 3 2 3 3 3 3 3 4 4 3 3 4 3 3 6 6 6 1 1 1 1 2 1 1 1 1 2 1 1 2 2 2 2 2 2 2 2 2 3 3 4 4 3 4 3 4 4 4 4 5 5 5 5 4 4 3 3 3 3 3 4 3 3 4 4 4 4 5 5 6 6 6 6 7 6 7 6 6 6 6 7 6 7 7 7 6 6 6 5 5 5 4 3 2 3 3 3 3 3 4 3 2 3 3 3 3 6 6 6 1 1 1 2 2 1 1 1 2 1 1 2 2 2 1 2 2 2 2 2 2 3 3 3 3 3 3 3 3 4 4 4 5 5 5 5 4 4 3 3 4 4 4 3 3 4 4 5 5 5 5 6 6 6 6 7 7 7 7 7 7 7 7 8 8 8 8 7 7 6 6 6 5 4 4 3 3 3 3 3 3 3 4 3 2 3 3 3 4 6 6 6 1 1 1 1 2 1 1 1 2 1 1 2 1 2 1 2 2 2 2 2 2 2 2 3 3 3 3 4 4 4 4 4 4 5 4 4 4 4 3 3 5 5 4 4 5 5 5 6 6 5 5 6 6 6 7 8 8 8 8 8 7 8 8 8 8 8 8 8 7 7 7 6 5 4 3 3 3 3 3 3 3 3 3 2 2 2 2 3 4 6 6 6 1 1 1 2 1 1 1 1 1 1 2 2 1 2 1 1 1 1 2 2 2 2 2 3 2 3 3 3 3 3 3 3 3 3 3 3 3 3 3 4 4 4 5 6 6 6 5 5 5 5 6 6 6 6 7 8 9 9 9 8 8 8 8 8 8 9 8 8 7 7 7 6 6 5 4 3 3 3 2 3 2 3 3 2 2 2 2 3 5 6 6 6 1 1 1 2 1 1 1 1 1 1 1 2 1 1 2 2 1 2 2 2 2 2 2 2 2 2 2 2 2 2 2 2 2 2 2 2 3 3 3 3 4 4 5 5 5 5 5 5 6 6 7 7 7 7 8 9 9 9 9 8 8 8 9 8 8 9 8 8 8 7 7 7 6 5 4 3 2 2 2 2 2 2 2 2 2 2 2 4 5 6 6 6 1 1 1 2 1 1 1 1 1 1 1 2 1 1 2 2 1 2 2 2 2 2 2 2 2 3 3 3 3 3 3 3 2 2 2 3 2 3 3 3 4 4 3 4 4 5 6 7 7 7 8 7 7 8 9 9 9 9 9 9 9 8 9 9 9 9 8 8 8 8 7 7 6 5 4 4 2 2 1 2 2 2 2 2 2 2 1 4 6 6 6 6 1 1 1 1 1 1 1 1 1 1 1 2 2 1 2 2 1 2 2 2 3 2 3 3 3 3 3 4 4 3 4 4 3 3 3 3 3 3 3 3 4 4 4 5 6 7 8 8 8 8 8 8 8 9 9 9 9 9 9 9 9 9 9 9 9 8 8 8 8 7 7 6 6 5 4 4 2 2 1 1 2 2 2 2 2 2 2 4 6 6 6 6 2 1 1 1 1 1 1 1 1 1 1 1 1 2 1 2 2 2 3 3 3 3 3 3 3 3 4 4 3 4 5 4 4 4 4 4 4 4 4 4 5 6 7 7 7 8 8 8 8 8 8 8 9 9 9 9 9 9 9 9 9 9 9 9 9 9 8 8 8 8 7 6 6 6 5 4 3 2 1 2 1 1 1 2 2 2 2 5 6 6 6 6 2 1 2 2 1 1 1 1 1 1 1 1 1 2 2 2 2 3 3 3 3 3 3 4 3 3 3 3 3 4 4 4 4 4 5 5 5 4 5 6 6 7 8 8 8 8 8 9 8 9 8 9 9 9 9 9 9 9 9 9 8 8 8 9 9 9 8 8 8 7 7 6 7 6 6 5 4 3 1 2 2 1 1 2 2 2 2 5 6 6 6 6 2 1 2 2 1 1 1 1 1 1 2 1 2 2 2 2 3 3 4 4 3 3 3 3 3 3 3 3 3 4 4 4 4 4 5 5 5 5 6 7 8 8 9 8 8 9 9 9 9 9 9 10 9 9 9 9 9 9 9 9 9 9 8 9 9 9 8 8 8 8 7 7 6 6 6 6 5 3 2 2 1 2 1 1 2 1 2 5 6 6 6 6 1 1 2 2 1 1 1 1 1 1 2 2 2 2 2 3 4 4 4 5 5 4 4 3 3 3 3 3 3 3 3 3 4 4 5 5 6 6 7 8 8 9 9 8 9 9 9 9 9 9 9 10 9 9 10 9 10 9 9 9 9 9 9 9 9 9 9 8 8 8 7 7 7 6 6 6 6 6 3 2 1 1 2 1 1 2 2 5 6 6 6 6 1 2 1 2 2 1 2 1 1 1 1 2 2 2 3 3 4 4 4 4 4 4 4 3 3 3 3 3 3 3 3 4 5 5 5 6 6 7 8 9 9 9 9 9 9 9 9 9 9 9 9 9 9 10 10 10 10 10 10 9 9 9 9 9 9 9 9 8 8 8 8 7 7 6 6 6 6 6 5 3 1 1 2 2 2 1 1 5 6 6 6 6 1 2 1 1 2 2 1 2 1 1 1 2 2 3 4 5 5 5 5 5 5 5 5 5 5 5 4 4 4 4 5 5 5 5 6 7 7 8 9 9 9 9 9 9 9 9 9 9 9 9 9 9 9 10 10 10 10 10 10 9 9 9 9 9 9 9 8 9 8 8 8 7 6 6 7 6 6 6 6 5 2 1 1 2 2 1 1 5 6 6 6 6 1 1 1 1 2 2 2 2 1 1 1 2 3 3 4 5 6 6 7 7 7 7 7 7 7 7 7 7 7 6 6 6 7 7 8 8 9 9 9 9 9 9 9 9 9 9 9 9 9 9 9 9 10 10 10 10 10 10 9 9 9 9 9 9 9 9 9 9 8 8 8 8 7 6 6 6 6 6 6 6 3 1 1 2 2 1 1 5 7 6 6 6 1 1 1 1 1 1 2 2 1 2 2 2 3 4 5 5 6 6 7 7 7 7 7 7 7 8 8 8 8 8 8 8 9 9 9 9 9 9 9 9 9 9 9 9 9 9 9 9 9 9 9 9 10 10 10 9 10 10 9 9 9 9 9 9 9 9 8 8 8 8 8 7 7 7 6 6 6 6 6 6 5 2 1 1 2 2 1 5 7 6 6 6 1 2 1 1 1 1 2 2 1 2 2 3 3 4 5 5 6 6 7 7 7 7 7 8 8 8 8 8 8 8 8 9 9 9 9 9 9 9 9 9 9 9 9 9 9 9 9 9 9 9 9 9 10 9 9 9 9 9 9 9 9 9 9 9 8 9 8 8 8 7 7 7 7 7 6 6 6 6 6 6 5 4 1 1 2 2 2 5 7 6 6 6 1 1 1 1 1 1 2 2 2 3 3 4 3 4 5 6 6 7 7 7 7 8 8 8 9 9 9 9 9 9 9 10 9 10 9 9 9 9 9 10 10 9 10 9 9 9 9 9 9 9 9 9 9 9 9 9 9 9 9 8 8 9 8 8 7 8 8 7 7 6 6 6 6 6 7 6 6 6 6 6 6 5 3 1 1 2 3 5 8 5 6 6 1 2 2 1 1 1 2 2 3 3 3 4 4 5 6 6 7 7 7 7 8 9 9 9 9 9 9 9 10 9 10 10 10 10 10 10 10 9 10 10 10 9 10 10 9 9 9 9 9 9 9 9 9 9 9 8 9 9 8 8 7 7 7 6 6 6 6 6 6 6 6 6 5 5 6 6 6 6 6 6 6 5 3 2 2 2 5 6 7 5 5 6 1 1 1 1 1 1 1 2 3 3 3 4 4 6 6 7 7 7 8 8 9 9 9 9 9 9 9 10 9 9 9 10 10 9 10 10 10 9 10 10 10 10 10 9 10 10 9 9 9 9 9 9 8 8 8 8 7 7 7 6 5 5 5 5 5 5 5 6 5 5 5 5 6 5 5 5 6 6 6 6 6 6 4 2 2 3 5 6 7 6 6 6 2 1 1 1 1 1 1 2 4 4 3 4 5 6 7 7 8 8 8 8 9 9 9 9 9 9 9 9 9 9 9 9 9 9 9 9 9 9 9 10 10 10 10 10 9 9 9 9 9 8 8 8 7 7 6 6 5 4 4 4 3 4 4 4 5 5 5 6 6 6 6 6 6 6 5 6 5 6 6 6 6 7 5 3 3 4 6 6 6 6 5 6 2 2 1 2 2 1 2 2 4 4 3 4 6 6 8 7 8 8 8 8 8 8 8 8 8 8 8 9 8 8 9 9 9 9 9 9 9 9 9 9 9 9 9 10 9 9 9 9 8 8 7 6 7 6 5 4 4 4 4 3 4 4 5 5 5 6 6 6 6 7 7 6 6 6 6 6 6 7 6 6 6 6 5 4 3 4 6 7 6 6 5 6 3 2 1 1 1 1 1 3 5 5 4 5 6 7 7 7 7 7 6 6 6 6 7 7 7 7 7 7 7 7 7 7 7 7 8 8 8 8 8 8 8 9 8 9 9 9 8 8 7 7 6 5 5 5 4 4 4 4 4 4 4 5 5 5 5 6 6 6 6 6 6 6 6 6 6 6 7 7 7 6 6 6 6 4 3 5 6 7 6 6 5 5 4 4 2 2 1 2 2 4 5 5 4 5 6 7 6 6 7 5 6 6 5 5 5 5 5 5 5 5 5 5 5 5 5 6 6 6 7 6 7 8 8 8 8 8 8 8 8 7 7 6 6 5 5 5 4 4 4 3 4 3 2 2 6 3 2 2 3 3 3 3 4 5 6 7 7 7 7 7 7 6 6 6 6 5 4 5 6 7 7 6 5 5 6 6 3 1 1 2 2 4 5 5 5 5 5 5 5 5 5 5 5 6 5 5 5 5 5 4 3 3 3 3 4 3 4 4 5 5 5 5 6 7 7 7 7 7 8 8 7 7 6 6 5 5 5 5 4 3 3 4 7 5 3 2 2 3 1 2 6 5 3 2 2 3 4 5 6 7 7 7 7 7 6 6 6 5 5 6 7 8 7 7 5 5 6 6 4 2 1 1 2 4 6 5 6 5 5 5 4 5 5 5 5 5 5 5 5 5 5 5 4 4 4 3 3 3 4 3 4 4 5 5 6 6 6 7 7 7 7 7 7 7 6 6 5 5 5 5 3 5 6 6 7 7 4 4 2 2 2 4 6 6 5 5 5 5 6 6 6 6 7 7 7 7 7 6 5 5 7 7 7 8 8 6 5 5 4 6 6 3 2 2 2 5 6 5 6 5 4 4 4 5 5 5 6 5 6 6 6 5 5 4 4 4 2 2 3 3 3 3 3 4 3 4 4 5 5 6 7 8 9 9 8 8 7 6 6 6 5 5 4 5 5 5 6 6 5 5 5 5 5 5 6 6 7 7 7 7 7 8 7 7 8 7 7 7 7 6 5 5 8 7 7 8 8 7 5 5 3 3 6 4 2 1 2 5 6 6 6 6 4 4 4 5 5 5 5 5 5 4 4 3 2 1 2 3 1 3 6 5 3 3 2 2 3 4 4 4 5 7 8 9 9 9 8 8 8 7 6 6 6 7 6 6 6 5 6 7 7 7 7 7 6 6 8 8 7 7 7 7 7 8 8 8 7 8 8 7 7 6 5 5 7 7 6 7 8 7 5 5 6 2 2 5 4 2 2 5 6 6 6 6 5 5 5 5 5 6 4 3 2 2 5 4 3 2 1 2 3 5 8 7 5 5 4 3 5 4 4 4 5 7 9 10 10 9 9 9 8 7 7 6 7 8 7 7 6 6 7 7 7 8 8 7 8 8 8 8 8 7 7 7 8 8 8 8 7 8 8 8 8 7 5 5 7 6 7 8 7 7 5 5 7 4 2 4 4 2 3 5 6 6 6 6 6 6 5 5 6 5 3 2 2 3 6 6 4 3 3 4 4 6 7 6 6 6 6 6 6 6 4 4 6 7 9 10 10 10 10 9 8 7 7 7 7 8 7 7 7 6 6 7 7 7 7 7 7 8 7 7 7 7 7 7 8 8 8 8 8 8 8 8 8 7 5 5 8 7 6 8 7 7 5 4 8 5 4 5 4 2 3 6 6 6 6 6 6 6 5 5 5 4 4 4 5 5 5 6 5 5 6 6 6 7 8 7 7 6 6 7 7 6 4 4 6 8 9 10 10 10 10 9 8 7 7 8 7 8 8 8 8 8 7 7 6 6 6 6 6 7 7 7 8 8 8 8 8 8 8 8 8 8 8 8 7 7 6 4 8 8 7 7 7 6 5 4 7 6 6 5 4 3 3 5 6 6 6 7 7 7 6 6 6 5 5 5 6 7 7 7 6 6 6 7 7 8 7 7 6 6 6 7 6 6 5 5 6 8 9 9 9 10 10 9 8 7 7 8 8 8 8 8 9 9 8 8 8 8 8 8 8 8 9 9 9 9 9 9 9 9 8 9 9 8 7 8 7 7 6 4 7 8 7 7 7 6 5 4 7 6 6 5 4 3 3 5 6 6 7 7 8 8 8 8 7 7 7 6 6 7 7 7 7 7 7 7 7 7 6 6 6 7 7 7 7 6 6 6 6 8 9 10 10 10 10 10 9 8 7 8 8 8 8 8 9 9 9 9 9 9 9 9 9 9 9 10 10 9 9 9 9 9 9 9 9 8 7 8 7 7 6 5 7 8 9 8 7 6 5 4 8 6 7 5 3 3 2 5 6 6 7 7 8 8 8 9 8 8 8 7 6 6 6 6 6 6 6 6 6 7 7 7 7 7 7 8 8 7 7 7 7 7 8 9 10 10 9 9 9 8 7 8 8 8 8 8 9 9 9 10 10 10 10 10 10 9 10 10 10 10 9 9 9 9 9 9 8 8 7 8 7 7 6 4 6 8 9 8 7 5 4 4 6 6 6 5 4 3 3 4 6 7 7 8 8 8 9 9 9 9 9 9 8 8 7 7 7 7 8 8 8 9 9 8 8 9 9 8 8 8 7 7 7 7 8 9 9 10 10 9 9 9 8 8 8 8 8 8 8 9 9 10 10 10 10 10 10 10 10 10 10 10 9 9 9 9 9 8 8 8 8 7 8 7 6 5 6 8 8 9 7 5 4 5 6 6 6 6 5 4 3 4 5 7 7 8 8 8 9 9 9 9 9 9 9 9 9 9 9 9 9 9 9 10 9 9 9 10 9 8 8 7 8 7 7 8 8 9 9 10 10 10 9 9 8 8 8 8 8 8 8 9 9 9 9 10 10 10 10 10 10 10 10 10 10 10 9 9 9 9 9 8 8 8 7 7 6 5 6 8 8 8 7 4 4 4 5 6 6 6 6 5 5 4 6 6 7 8 8 8 8 9 9 9 9 9 9 10 9 10 10 10 10 10 10 10 10 10 10 10 9 8 7 7 8 7 7 8 8 9 10 10 10 9 9 9 8 8 8 8 8 8 9 9 9 9 9 10 9 10 10 10 10 10 10 10 10 10 10 9 9 9 9 8 8 8 7 7 6 4 6 7 8 7 6 4 5 5 3 7 6 7 6 5 5 5 5 6 7 8 8 8 9 9 9 10 9 10 9 10 10 9 10 10 10 10 10 10 10 10 10 9 9 8 8 8 8 7 7 8 8 9 9 10 10 9 9 9 8 8 8 8 9 8 8 8 9 9 9 10 9 10 10 10 10 10 10 9 10 10 9 9 9 9 9 8 7 8 7 6 6 5 7 8 7 7 5 4 4 5 2 6 7 6 7 6 6 6 4 6 7 8 7 8 8 9 9 9 9 10 10 10 10 9 10 10 10 10 10 11 10 10 9 9 9 8 8 7 8 7 7 8 8 9 9 9 10 10 9 9 9 8 8 9 8 9 8 7 7 8 9 9 9 9 10 10 9 10 10 9 9 10 9 9 9 9 9 8 7 7 7 7 6 5 7 8 7 6 4 5 5 5 2 5 7 6 6 6 6 6 4 6 7 7 7 8 8 8 9 8 9 9 9 10 10 10 10 10 10 11 11 11 11 10 9 9 9 8 7 7 8 7 6 7 8 9 9 10 9 9 9 9 9 9 8 8 9 9 9 8 7 7 8 9 9 9 9 9 10 10 9 9 9 9 9 8 8 8 8 8 7 7 7 7 6 5 7 7 6 5 4 5 5 5 3 4 7 7 6 6 8 7 4 5 6 7 7 7 8 8 8 8 9 9 9 9 10 10 10 10 10 10 10 10 10 10 9 9 8 7 7 8 8 7 7 8 8 8 9 10 9 9 9 9 9 9 8 8 8 9 9 9 8 7 8 8 8 8 9 9 9 9 9 9 9 9 8 8 8 8 8 7 7 7 6 7 6 5 6 6 4 4 5 5 5 4 3 3 5 7 6 6 8 7 4 5 6 7 7 7 8 8 8 8 8 9 9 9 10 10 11 10 10 10 10 10 10 9 9 9 7 6 8 8 8 8 7 8 7 8 9 10 10 10 9 9 9 9 9 8 9 9 9 9 8 7 8 8 7 8 8 8 9 8 9 9 9 8 8 8 8 8 8 8 7 7 7 6 6 6 5 4 4 5 4 5 5 4 4 3 3 6 6 6 7 8 5 5 6 6 7 7 8 8 8 8 9 8 9 9 9 10 10 10 10 10 10 9 9 9 9 8 6 7 8 8 8 8 8 8 8 9 10 10 10 10 10 10 10 9 9 8 8 8 8 8 7 7 8 8 8 7 7 8 8 8 8 8 8 8 8 8 8 7 7 7 7 6 7 6 6 5 4 4 4 5 5 5 4 5 4 3 3 5 6 6 7 8 7 4 5 6 7 7 7 7 8 8 8 8 9 9 9 9 10 10 9 10 9 9 9 9 8 7 6 7 8 8 8 8 7 8 8 9 9 9 9 9 9 10 9 8 7 7 7 7 7 7 6 7 8 8 8 7 6 7 7 8 8 7 7 7 7 7 7 7 7 7 6 7 6 6 6 5 4 5 4 5 4 5 5 4 3 4 3 3 5 6 7 7 7 4 5 6 6 6 7 7 8 8 8 8 9 9 9 9 9 9 9 9 9 9 9 8 7 7 6 6 7 7 7 7 7 7 7 8 8 8 8 8 8 8 8 7 6 6 6 4 4 5 6 7 7 8 8 8 7 6 7 7 7 7 7 7 7 7 7 7 7 7 7 6 6 6 6 5 4 5 4 5 4 5 5 4 3 4 3 3 4 5 7 7 7 5 5 6 6 6 7 7 8 7 8 8 9 8 8 9 9 9 9 9 9 8 8 7 8 8 6 6 6 7 6 6 6 6 6 6 7 7 7 7 7 6 6 5 4 4 3 3 4 5 7 7 7 7 8 8 8 7 6 7 7 7 7 7 7 7 7 7 7 6 7 6 6 6 6 5 4 5 4 4 5 5 5 5 4 4 4 3 3 4 6 6 7 6 5 5 6 6 6 7 7 8 8 8 8 8 8 8 9 8 8 8 8 8 8 7 8 8 7 6 4 4 4 3 4 4 4 5 5 6 6 6 5 5 4 3 4 5 6 6 7 7 7 7 7 7 8 7 7 7 6 6 7 7 7 7 7 7 7 7 6 7 6 7 6 6 6 5 4 4 5 4 5 4 4 5 4 4 4 3 3 3 5 6 7 6 5 5 6 6 6 6 7 7 7 8 8 8 8 8 8 8 8 8 8 8 8 8 8 8 7 7 4 3 3 2 2 2 2 2 3 4 4 4 4 4 5 6 7 7 7 7 7 7 7 7 8 7 7 7 7 7 7 6 7 7 7 7 7 7 7 7 7 7 7 7 6 6 7 5 4 4 5 5 5 4 5 5 3 3 4 3 3 4 3 4 5 6 5 5 6 6 5 6 7 7 7 7 8 7 8 8 8 7 8 8 8 8 8 8 8 9 9 8 7 5 4 4 4 4 4 3 3 3 3 4 5 6 7 7 7 8 7 7 7 7 7 7 7 7 7 7 7 8 8 7 7 8 8 8 8 8 7 7 7 7 7 7 7 6 7 4 4 5 4 5 5 4 5 5 4 4 4 3 3 4 3 3 4 5 4 5 5 6 6 6 6 7 7 7 7 7 7 7 7 8 8 8 8 8 8 8 9 9 9 8 8 7 6 5 6 6 6 6 6 6 6 6 7 7 7 8 8 8 7 7 7 7 7 7 7 7 7 8 7 8 8 8 8 8 8 8 8 8 8 7 7 7 7 7 6 6 6 5 4 5 4 5 5 5 4 5 3 4 3 4 4 4 4 4 3 4 4 4 5 6 6 6 6 6 7 7 7 7 7 7 7 7 8 8 8 8 8 8 9 8 8 8 8 8 7 7 6 6 6 7 7 8 8 7 8 8 8 8 8 8 8 7 8 7 7 7 7 7 7 7 7 7 8 8 8 9 8 8 9 8 8 7 7 7 7 7 7 6 6 4 4 5 4 5 4 5 5 4 3 3 4 4 4 4 4 4 4 3 4 4 5 6 5 5 6 6 6 7 6 7 7 7 7 7 8 8 9 8 8 8 9 8 8 8 8 8 8 8 8 7 7 7 8 8 8 7 8 8 7 8 8 8 8 8 7 8 7 7 7 7 7 7 7 7 7 8 8 9 8 8 9 8 8 8 7 7 7 7 6 6 5 4 4 4 5 4 4 5 4 4 3 3 4 3 4 3 4 4 4 4 4 4 4 6 6 6 6 6 6 6 7 7 7 7 7 7 8 8 8 8 7 8 8 8 8 8 8 8 8 8 8 8 9 8 8 9 8 8 8 8 8 8 9 8 8 8 7 8 7 7 7 7 7 7 7 7 7 8 8 8 8 8 9 8 8 7 7 7 7 7 7 6 5 4 4 4 5 5 4 5 4 5 4 3 3 4 4 3 4 4 4 4 4 4 4 5 6 6 6 5 6 7 7 7 7 7 7 8 8 8 8 8 7 8 8 8 8 7 8 7 8 8 9 9 8 9 9 9 9 8 8 7 8 8 9 8 8 8 7 7 7 7 7 6 6 7 6 6 7 8 8 8 8 9 9 8 7 7 7 7 7 7 6 6 5 4 4 5 4 4 5 5 4 5 4 3 4 3 4 4 4 4 4 4 3 4 4 5 6 6 6 6 6 7 7 7 7 8 8 8 7 8 8 8 7 7 8 8 7 7 7 7 8 8 8 9 9 9 10 10 9 9 8 8 8 8 7 6 6 6 6 6 6 6 6 5 5 5 5 6 6 7 8 8 8 9 9 8 7 7 7 7 7 7 6 6 5 4 4 5 5 5 4 5 4 5 4 4 4 3 3 4 3 4 4 4 3 3 4 4 6 6 6 6 6 7 7 8 8 8 8 7 7 8 8 7 7 7 7 7 7 7 7 7 7 8 8 8 8 7 7 7 7 6 7 6 5 5 5 4 4 6 5 4 5 5 4 4 3 1 2 5 6 7 8 8 8 9 9 8 7 7 7 7 7 6 6 6 4 4 4 4 5 5 4 4 5 4 3 3 4 3 4 4 4 3 4 4 3 4 4 5 5 6 6 6 6 7 7 8 8 8 8 7 7 7 8 7 7 7 7 7 7 7 7 7 7 6 6 6 5 4 5 5 5 5 3 5 6 7 8 5 7 9 8 5 8 7 6 5 2 1 5 7 7 7 8 8 8 9 9 8 7 7 7 7 7 6 6 5 4 5 4 4 4 4 5 4 5 5 3 4 4 4 3 4 4 4 4 4 3 4 3 4 5 6 6 7 6 7 7 8 8 8 8 8 7 7 8 7 7 7 7 7 7 6 6 5 5 4 4 5 6 4 6 8 8 8 5 6 10 10 10 8 8 11 9 7 8 7 5 5 4 5 6 8 7 7 8 8 8 9 9 7 7 7 7 7 6 7 6 5 4 5 4 5 5 4 5 4 4 4 3 4 3 3 4 3 4 4 4 4 4 3 4 4 5 5 6 7 6 6 7 7 8 9 8 8 7 7 7 7 7 6 6 5 5 4 3 3 5 4 5 7 9 7 7 9 10 11 5 6 11 10 11 8 7 9 9 5 6 7 3 5 6 6 7 8 8 8 8 8 8 9 8 7 6 7 7 7 7 6 6 4 4 4 5 4 4 4 5 4 4 4 3 3 4 3 3 4 4 4 4 4 4 4 4 4 4 5 6 7 6 6 7 8 8 8 9 8 7 7 7 7 7 6 6 4 1 1 1 2 6 5 4 8 9 7 7 10 10 11 5 4 10 9 8 8 6 5 6 5 5 6 5 6 7 7 7 8 9 9 8 8 8 9 8 7 7 7 7 7 6 6 5 4 4 5 4 5 4 4 5 4 4 5 3 4 4 3 4 3 4 4 4 4 4 4 4 3 4 5 5 7 6 6 6 7 8 8 9 9 8 7 7 8 7 6 6 5 3 2 3 2 5 4 3 5 5 5 5 6 7 8 7 5 8 7 6 7 6 5 5 6 7 7 6 7 7 7 8 8 9 8 8 8 8 9 8 7 6 7 7 6 6 6 4 4 4 4 4 4 5 4 4 5 4 5 4 3 3 3 4 3 4 4 4 4 4 4 4 3 4 4 5 6 6 6 6 7 7 8 8 9 8 8 8 8 8 7 7 8 7 5 5 5 5 6 6 6 5 6 6 6 6 7 6 6 7 7 7 7 7 7 7 7 7 7 7 7 7 7 8 8 9 8 8 8 9 9 7 7 6 7 7 7 6 5 4 4 5 4 4 4 5 5 5 4 4 4 3 4 3 3 4 4 3 4 4 4 4 4 4 4 3 4 5 5 6 6 6 6 7 7 8 9 8 8 8 8 8 8 8 8 8 8 6 6 6 7 7 7 7 8 8 8 8 8 7 7 9 9 9 9 9 8 8 7 7 8 7 6 7 8 8 9 8 8 7 8 9 8 7 6 7 7 7 7 5 5 4 5 5 4 5 4 4 5 4 5 5 5 4 3 3 3 4 3 4 4 3 4 4 4 4 3 4 4 5 5 6 6 6 6 6 7 7 8 8 8 8 8 8 8 8 7 8 8 7 6 7 7 7 7 7 8 9 9 9 8 9 8 9 9 9 9 8 8 8 8 7 8 7 6 7 8 8 8 8 7 7 8 8 8 7 6 7 7 7 5 5 4 4 4 5 4 4 5 5 5 5 4 4 4 3 3 3 4 3 4 3 4 4 4 4 4 4 4 4 4 4 5 5 6 6 6 6 6 7 8 8 8 8 8 8 8 8 7 7 7 7 7 7 7 7 7 7 7 8 8 9 9 8 8 8 9 9 8 8 7 8 8 7 8 7 7 7 8 8 8 8 7 7 8 8 7 7 7 7 6 6 5 4 4 4 4 4 4 4 5 5 4 4 4 4 4 3 3 4 4 3 4 4 4 4 4 4 3 4 4 4 3 4 4 5 6 6 6 6 6 6 7 8 8 8 8 8 8 8 8 7 7 7 7 7 7 7 7 7 7 8 8 8 8 8 8 8 8 8 8 8 8 8 8 7 7 7 7 7 8 8 8 7 7 8 8 8 7 6 7 7 6 6 5 4 4 4 5 4 4 4 4 4 4 4 4 4 4 3 4 4 4 3 3 4 4 4 4 4 4 4 4 4 4 5 4 5 5 6 6 6 6 6 7 7 8 8 8 8 8 8 8 8 7 7 7 7 7 7 7 7 7 7 7 7 7 7 7 8 7 8 8 8 8 7 7 7 7 7 7 7 7 8 8 8 7 8 8 7 7 6 7 6 6 5 4 4 4 4 5 4 4 4 4 4 4 5 4 4 4 3 4 3 4 3 4 4 3 4 3 4 4 3 4 4 6 7 5 4 4 5 6 6 6 6 6 7 7 8 8 8 8 8 8 7 7 7 7 7 7 7 7 7 7 7 7 7 7 7 7 7 7 7 8 7 7 7 7 7 7 7 7 8 8 8 8 8 8 8 7 7 7 6 7 6 5 6 7 4 4 4 4 5 4 4 4 5 5 4 4 4 4 4 4 3 4 4 3 4 4 3 4 4 3 3 5 8 8 6 5 4 4 5 6 6 6 6 6 6 7 7 8 8 8 8 8 8 7 7 7 7 7 7 7 7 7 7 7 7 7 7 7 7 7 7 8 7 7 7 8 7 7 7 8 8 8 8 8 8 8 7 7 7 6 6 6 5 4 6 9 9 6 4 4 4 5 4 4 5 4 5 4 4 5 4 4 4 3 4 4 4 4 4 4 3 3 7 9 8 6 8 5 4 4 5 5 5 6 6 6 6 7 7 7 8 8 7 7 8 8 7 7 6 7 7 7 7 8 7 7 7 7 7 7 7 7 7 8 7 7 8 8 7 7 8 8 8 8 9 8 8 8 7 7 7 6 6 6 5 5 6 8 9 10 9 4 4 5 4 4 4 4 4 4 4 4 3 3 4 4 3 4 4 4 4 3 3 7 10 9 6 8 10 5 4 5 4 5 5 6 6 6 6 6 7 7 7 7 8 7 7 8 8 7 7 7 7 7 7 7 8 7 7 7 7 7 8 8 8 8 8 7 8 8 8 8 8 7 8 9 9 8 8 7 7 6 6 6 5 5 6 4 8 9 7 9 10 10 4 4 4 4 4 4 4 4 5 4 3 3 3 4 3 4 4 4 3 3 7 10 9 6 9 11 9 5 4 5 4 4 4 5 5 6 6 6 6 7 7 7 7 8 7 8 8 8 7 7 7 7 7 7 7 7 8 9 9 9 9 9 9 9 9 9 9 9 9 9 9 7 7 9 8 9 7 7 6 6 6 5 5 6 6 4 7 11 9 8 8 11 11 4 3 4 4 4 4 4 4 4 3 3 3 4 4 3 3 4 2 5 10 10 6 7 11 10 7 5 5 5 5 4 4 5 5 6 5 6 6 6 7 7 7 7 7 8 8 8 8 8 8 8 8 7 7 8 9 9 9 9 9 10 9 9 9 9 9 8 8 9 9 8 8 8 8 8 7 6 6 6 6 5 5 7 6 4 7 10 12 9 6 10 11 9 4 4 4 4 5 4 4 4 4 3 3 4 4 3 3 2 4 11 12 8 6 10 11 9 5 5 5 5 5 5 4 4 5 5 5 5 6 6 6 7 7 7 7 8 8 8 8 8 8 8 9 8 8 8 9 9 9 9 9 9 9 9 9 9 8 8 8 8 9 8 8 8 8 7 6 6 6 5 5 5 6 6 6 5 6 9 11 12 7 8 10 12 8 3 4 4 5 4 4 5 4 3 3 4 4 4 3 1 9 12 11 6 8 11 10 7 3 5 5 5 5 5 4 4 4 5 5 5 5 5 6 7 6 7 7 7 8 8 8 8 8 8 9 8 8 9 9 9 9 9 9 9 9 9 9 9 8 8 8 8 8 8 8 8 8 7 6 6 5 5 5 6 6 6 6 6 5 8 10 12 11 7 9 10 11 6 3 4 4 5 4 4 4 3 3 3 4 4 1 5 12 13 9 6 11 11 10 5 2 6 6 6 5 5 5 4 4 4 4 5 5 5 5 6 6 7 7 7 8 8 8 8 8 8 8 8 8 9 9 9 9 8 9 9 9 9 9 9 8 8 8 8 8 8 7 7 7 7 5 5 5 5 6 7 6 6 6 6 3 5 9 11 12 8 7 10 11 11 3 3 4 4 4 4 3 4 3 4 3 4 1 9 13 13 8 6 12 12 9 4 1 6 6 6 5 5 5 4 4 4 4 4 5 5 5 5 5 6 6 6 7 7 8 7 8 8 7 8 8 8 8 8 9 8 9 8 8 9 8 8 8 8 8 7 8 7 6 7 6 6 5 5 5 6 6 6 6 6 6 7 2 3 9 10 12 9 6 10 11 12 6 2 4 4 4 4 4 3 4 3 4 2 3 12 13 13 7 8 13 12 9 2 1 6 6 6 5 5 5 5 4 4 4 4 4 4 5 5 5 5 5 6 6 6 7 7 8 8 7 8 8 8 8 8 8 8 8 8 8 9 8 8 8 8 7 7 7 6 6 6 5 5 5 6 6 7 6 6 7 6 6 7 2 2 7 10 12 11 5 9 11 12 9 3 4 4 4 4 4 3 4 3 4 1 5 13 13 13 7 10 13 12 9 0 3 7 6 6 5 5 5 5 5 4 3 4 4 4 4 5 5 5 5 5 6 6 6 6 7 7 7 7 8 8 7 8 8 7 8 8 8 8 8 8 7 7 7 7 6 6 6 6 5 5 5 6 7 7 7 6 6 6 6 7 2 1 5 9 11 13 5 8 11 11 11 4 3 4 4 4 3 4 4 3 3 1 8 13 13 12 9 11 13 13 9 0 5 7 6 6 6 6 5 5 5 5 4 3 4 4 4 4 4 5 5 4 5 5 5 6 6 7 6 7 7 7 7 7 7 7 7 7 7 7 7 7 7 6 7 6 5 5 5 5 4 6 7 7 7 7 7 6 6 6 7 7 2 0 3 9 11 13 7 6 10 11 11 5 3 4 4 5 3 3 4 4 2 2 10 13 12 12 9 11 13 14 10 0 6 7 7 6 6 6 6 6 5 5 5 4 4 4 4 4 4 4 5 5 5 5 5 5 6 5 6 7 6 7 7 6 7 7 7 7 7 6 7 6 6 6 6 6 5 5 5 5 6 6 7 7 7 7 7 7 6 7 6 7 3 0 3 9 11 13 9 5 10 11 12 6 3 4 5 4 3 4 4 3 2 4 11 12 12 12 10 11 13 14 10 1 6 7 7 7 6 7 6 6 6 5 5 4 4 4 4 4 4 4 4 5 5 5 5 5 5 5 5 5 5 6 6 6 6 6 6 6 6 6 6 6 6 6 5 5 5 5 5 6 7 7 7 7 7 7 7 6 6 7 6 7 5 0 3 10 11 13 10 5 9 11 12 6 3 5 4 4 3 4 4 4 3 7 10 12 12 12 10 10 13 14 11 2 6 7 7 7 6 7 7 6 6 6 5 5 4 4 4 3 4 4 4 4 4 5 5 5 5 5 5 5 5 6 5 6 6 6 6 5 5 5 5 5 5 5 5 5 5 5 6 7 7 7 7 7 7 7 7 7 7 7 7 6 5 0 3 10 12 13 10 4 9 11 12 7 3 4 4 4 8 8 7 7 8 10 10 12 13 12 11 10 13 13 13 2 6 7 7 7 7 7 7 7 7 6 5 5 5 4 4 4 4 4 4 4 4 4 4 5 5 5 5 5 5 5 5 5 5 5 5 5 5 5 5 5 5 4 5 5 6 6 7 7 7 7 7 7 7 7 7 7 7 7 7 7 4 0 5 11 12 12 9 6 10 12 11 9 7 5 4 4 10 10 9 9 10 11 9 11 13 12 11 10 12 13 13 4 6 7 7 7 7 7 7 7 7 7 6 6 5 5 4 4 4 4 4 4 4 4 4 4 4 5 5 5 5 5 5 5 5 5 5 5 5 5 5 5 4 5 5 5 6 7 7 7 7 7 7 7 7 7 7 7 7 7 7 7 3 1 7 11 12 12 7 7 11 12 11 8 10 9 7 5 10 10 10 11 10 11 10 10 12 13 12 11 11 13 13 6 5 7 8 7 7 7 7 7 7 7 7 7 6 5 5 5 4 4 4 4 4 4 4 4 4 4 4 4 4 4 5 5 4 5 4 4 4 4 4 4 5 5 5 6 7 7 7 7 7 7 7 8 8 7 7 7 7 7 6 7 2 3 10 12 12 11 6 9 11 12 10 9 9 10 10 10 10 11 10 12 11 11 11 9 12 13 12 12 11 13 14 8 5 7 8 7 7 7 7 7 7 7 7 7 7 6 5 5 5 4 4 4 4 4 4 4 4 4 4 3 4 3 3 4 4 4 4 4 4 4 5 5 5 6 7 7 7 7 7 7 8 8 8 8 7 7 7 7 7 7 7 6 2 6 12 12 12 10 6 10 11 12 10 8 10 9 9 10 