P2
92
112
255
121 119 122 120 123 119 125 120 123 122 121 125 119 121 124 120 122 123 120 116 115 117 110 112 113 125 122 112 113 116 114 105 103 97 95 100 110 108 111 113 101 98 105 104 104 99 98 95 92 93 93 90 99 105 115 108 115 112 115 113 111 112 117 117 116 113 123 124 120 124 124 120 123 124 123 123 122 120 123 121 121 122 122 120 120 119 117 123 119 120 122 121 122 121 122 123 121 124 123 120 124 120 122 126 119 120 121 121 116 119 115 118 115 116 114 114 116 120 117 111 113 112 105 95 87 93 95 97 105 109 109 116 112 109 105 100 105 105 95 86 81 81 85 80 82 91 97 103 103 104 110 108 109 116 117 117 125 115 121 123 122 123 121 123 121 123 123 122 118 122 121 123 118 122 122 119 120 117 121 121 121 121 120 122 122 121 120 121 120 124 122 120 122 123 120 124 121 119 120 118 110 109 110 113 106 115 118 110 115 113 107 102 92 87 80 81 85 88 98 112 118 131 130 139 138 135 131 122 114 113 105 99 96 87 73 68 69 72 79 86 88 96 106 106 115 119 120 115 121 117 119 124 123 124 122 121 120 121 122 122 122 124 120 124 118 122 122 119 122 121 120 121 120 119 121 121 118 121 119 121 120 125 116 123 121 121 122 121 119 113 112 117 110 115 106 109 110 111 110 104 109 102 90 87 83 79 73 88 98 110 130 147 164 163 161 164 160 162 157 151 149 149 146 144 136 126 106 83 70 61 61 63 72 89 107 96 114 128 116 118 120 115 121 121 121 122 121 122 120 123 121 123 118 126 120 121 120 119 124 119 122 122 121 121 119 121 121 121 121 123 119 120 121 122 121 122 121 120 119 120 117 112 110 112 111 110 109 109 109 100 103 96 101 103 88 81 83 86 97 114 128 147 163 169 173 171 173 173 173 174 170 176 172 169 171 172 165 156 146 131 109 81 68 68 51 62 95 94 112 123 123 118 124 114 124 121 126 122 122 123 120 123 120 123 122 122 123 122 120 122 121 122 120 121 118 122 121 119 122 120 120 122 120 124 120 126 119 123 117 121 115 115 118 113 113 100 108 99 106 112 103 100 94 87 83 93 79 85 89 107 126 138 159 175 176 178 175 174 179 176 179 185 181 181 180 176 177 177 178 176 175 163 155 130 107 85 54 43 56 77 117 117 119 117 120 117 123 120 120 124 121 119 121 122 121 122 122 123 121 124 120 124 121 120 121 123 116 124 121 119 121 122 121 120 123 123 122 125 118 126 117 119 117 114 112 106 101 106 101 99 96 93 93 88 85 74 72 82 89 108 128 135 150 166 174 176 180 175 177 179 183 182 181 185 185 183 184 182 183 181 184 180 182 176 175 169 153 138 118 69 46 49 81 114 124 121 116 123 123 119 118 122 126 123 123 123 123 124 118 123 122 123 121 121 120 122 120 124 119 121 120 123 119 123 122 120 122 121 121 119 115 119 117 116 117 109 106 105 102 107 108 108 97 89 89 64 75 71 84 95 115 133 146 153 168 168 174 173 181 183 183 181 182 184 185 185 188 186 185 182 184 184 185 185 185 181 177 181 172 165 155 133 96 57 48 79 112 119 119 120 120 121 124 120 125 123 123 121 124 123 122 123 121 121 123 122 121 121 122 120 122 119 123 118 120 122 121 121 121 117 120 117 116 120 112 113 110 101 97 104 104 108 106 106 94 85 75 71 78 98 104 115 144 147 152 164 173 171 181 178 183 186 183 182 185 184 186 185 189 185 188 184 183 184 191 186 183 184 180 183 179 176 171 165 154 126 72 47 80 114 122 119 121 122 121 121 120 123 121 125 120 125 123 123 123 121 124 119 123 120 122 122 121 123 121 122 120 120 123 121 122 118 116 118 113 113 111 111 106 101 98 95 95 94 94 87 78 74 62 94 110 112 113 141 149 155 163 169 175 178 182 183 185 185 185 186 188 185 187 188 189 185 191 187 187 186 189 188 191 185 185 188 180 182 181 175 169 162 153 104 65 98 115 119 121 120 122 122 123 124 122 124 121 122 123 121 123 123 123 120 122 122 121 122 118 124 120 121 125 122 119 122 118 121 115 115 116 114 106 104 102 105 96 96 88 89 86 91 66 68 87 111 121 111 132 154 162 165 171 174 177 179 183 185 184 185 191 187 188 187 188 192 189 188 191 190 187 189 189 190 191 188 189 187 184 183 184 183 180 177 171 159 131 95 112 117 123 121 122 124 122 123 125 123 123 122 125 122 125 121 123 122 123 122 120 125 120 123 121 121 123 116 117 121 116 114 112 117 112 104 99 99 103 105 93 93 96 94 92 75 56 89 107 119 120 125 151 165 167 172 175 174 177 178 180 187 185 185 190 188 187 187 190 191 192 190 191 190 187 192 187 189 191 192 187 188 186 186 187 186 183 182 180 171 172 140 106 105 124 120 121 121 123 124 124 122 122 122 122 122 123 123 123 121 123 123 121 124 121 121 122 124 121 120 119 124 113 103 109 106 106 96 99 105 104 97 96 95 87 78 67 55 92 114 119 131 129 148 168 166 171 177 180 180 178 178 187 186 184 187 190 188 190 190 189 193 190 191 192 192 188 193 190 188 192 191 188 190 191 189 188 189 185 185 180 179 174 171 154 90 90 117 120 121 118 125 119 124 123 122 121 121 124 124 126 122 124 120 122 123 122 124 120 123 120 120 119 121 107 103 109 106 104 98 101 96 98 91 99 91 67 75 58 81 122 120 132 144 151 162 171 171 179 182 177 183 185 186 189 188 189 189 190 188 194 193 193 192 193 193 192 193 187 191 192 193 192 191 188 188 192 191 191 192 188 190 184 182 180 177 171 155 72 69 98 108 114 116 114 116 122 126 119 121 124 123 120 125 121 124 122 125 120 125 122 122 123 123 120 110 103 105 109 107 95 93 102 94 95 96 81 75 58 54 80 117 123 127 147 156 163 168 169 176 181 187 183 188 190 192 193 190 196 194 190 190 193 196 199 196 197 195 196 193 188 193 192 195 194 190 189 193 190 191 194 191 191 191 188 187 184 179 174 172 145 68 56 86 109 118 118 110 118 120 120 121 123 123 122 120 123 122 121 123 120 121 121 121 121 120 119 99 107 103 108 104 103 104 94 96 89 83 71 61 51 88 115 126 129 144 155 164 160 165 174 182 184 186 186 192 190 196 196 196 196 200 198 193 191 196 197 196 198 198 197 192 195 193 195 193 193 193 192 194 192 189 196 191 194 192 189 187 190 182 175 171 167 152 65 43 78 100 114 122 114 117 120 120 122 120 125 122 121 121 121 122 119 122 122 121 120 123 111 109 111 102 96 99 99 105 99 97 92 81 62 41 84 123 126 127 139 153 159 163 163 168 173 181 185 184 187 193 191 195 200 202 202 200 201 199 196 196 197 195 196 199 201 193 196 194 193 195 195 194 193 197 195 190 195 193 196 193 189 189 188 187 174 176 169 162 144 62 36 83 84 98 103 102 112 113 116 116 118 120 122 122 120 122 118 120 121 123 122 120 113 106 109 112 93 99 101 104 108 101 90 69 30 63 123 133 128 132 149 157 158 166 165 171 175 177 185 187 188 190 194 198 200 205 203 203 201 200 202 197 196 195 197 199 204 198 194 196 195 195 194 195 195 199 197 194 196 193 197 193 194 189 189 188 182 179 178 165 150 138 42 52 74 82 93 90 107 106 108 109 117 116 125 118 121 124 121 120 123 122 123 119 103 107 112 104 94 98 97 101 98 97 75 32 55 115 141 133 130 130 153 157 160 168 171 167 175 176 186 186 187 190 197 199 200 202 201 204 202 202 200 201 197 199 197 200 201 200 198 193 199 197 195 199 195 198 198 197 198 196 196 196 192 190 192 188 185 189 179 175 151 154 126 22 67 73 88 97 94 111 116 112 108 108 118 127 120 124 121 121 122 125 120 125 107 108 103 94 100 96 98 81 89 93 63 26 108 136 142 139 126 132 149 157 164 167 170 171 172 176 181 184 187 191 198 200 199 200 202 201 201 201 199 198 198 198 199 200 199 200 199 195 199 198 197 198 196 196 199 197 199 198 193 197 193 188 193 191 186 187 179 175 154 150 160 63 46 73 77 94 105 98 112 114 120 112 107 120 123 123 123 121 121 122 124 121 110 96 93 95 88 95 87 80 83 92 40 55 128 141 141 137 127 133 151 158 164 164 165 167 171 177 181 182 189 191 195 199 201 199 203 199 201 199 199 198 198 198 200 202 200 199 198 198 199 198 198 197 196 198 199 198 198 197 192 199 195 190 192 194 187 186 177 177 168 142 156 138 38 71 62 82 100 110 106 111 110 114 117 105 119 123 124 122 119 125 121 121 100 92 92 81 87 98 71 80 92 61 29 100 141 142 142 140 128 139 152 158 161 158 164 165 174 174 181 183 189 190 194 197 200 199 199 201 200 200 200 199 197 201 198 201 202 199 199 198 195 194 199 195 196 198 200 199 197 197 194 196 193 190 189 190 184 186 173 178 171 149 150 166 95 42 68 78 77 104 103 108 109 107 118 113 111 122 118 124 122 121 124 124 88 90 94 95 91 90 72 92 75 44 54 127 143 144 143 140 131 140 156 161 161 163 166 166 174 170 177 183 186 191 195 198 199 196 200 200 200 200 200 201 197 197 197 202 202 200 201 197 195 193 195 195 195 195 198 195 195 196 197 196 194 189 184 188 177 183 176 178 170 159 147 162 145 51 63 81 88 89 101 101 104 108 111 117 111 118 124 122 125 123 122 125 95 97 96 87 86 83 75 89 54 32 84 134 142 145 143 141 133 139 153 156 163 164 167 168 175 174 172 182 182 193 200 199 197 198 199 201 200 200 198 201 200 198 198 201 202 201 201 196 196 194 193 197 195 194 192 196 194 194 195 197 194 191 187 188 176 181 181 179 175 163 152 155 163 94 41 79 93 73 95 108 105 103 106 119 114 118 121 122 123 125 124 124 97 88 78 77 77 72 90 64 45 45 107 138 142 147 141 136 138 139 151 157 165 167 166 164 177 178 175 180 189 191 199 197 200 197 198 200 201 200 201 200 197 198 199 199 201 202 199 201 198 197 195 196 197 198 192 191 195 195 195 193 195 190 190 191 181 183 187 180 177 167 157 149 164 140 38 72 73 60 77 105 109 106 100 113 112 122 118 118 124 123 123 123 91 77 71 62 71 79 68 57 44 60 120 137 141 144 141 140 142 136 149 162 165 172 166 163 176 174 176 178 187 191 196 196 197 198 197 199 197 199 201 198 197 198 200 199 199 201 200 201 201 200 200 196 199 197 196 195 196 194 196 196 194 190 191 188 186 185 186 186 176 166 158 157 152 157 67 59 61 47 71 85 104 107 98 105 100 120 119 117 121 124 121 122 83 72 67 60 62 72 66 59 53 70 118 135 139 142 143 147 143 131 144 162 165 170 164 167 174 174 170 173 184 189 193 193 197 196 194 197 197 197 198 198 195 198 198 195 200 198 196 199 200 198 199 197 197 195 194 198 198 195 199 196 193 192 192 188 186 184 184 190 180 167 160 159 150 156 102 56 62 44 50 76 93 92 104 106 97 117 118 117 118 123 123 122 76 61 55 60 57 85 70 62 54 74 122 135 135 136 141 149 148 135 145 162 169 170 171 168 170 167 171 177 183 188 193 194 197 197 193 194 194 197 197 197 198 197 196 197 200 199 196 199 198 197 199 198 196 196 196 196 197 194 196 196 193 190 190 191 185 182 186 186 183 170 164 156 148 151 138 50 79 52 41 62 97 83 97 106 98 114 116 112 117 123 119 120 71 57 55 56 75 81 67 67 58 73 122 134 136 136 138 145 147 137 142 163 170 169 173 173 170 166 171 175 182 188 195 195 196 199 194 196 196 196 197 196 199 199 197 197 200 197 196 200 198 197 200 197 199 199 198 195 197 199 197 197 195 190 188 191 184 182 192 185 186 176 159 154 145 143 156 57 60 82 43 48 83 85 89 100 96 111 119 110 115 124 118 122 68 59 64 53 74 73 70 75 42 81 123 135 135 132 133 146 147 141 141 154 169 174 174 173 175 168 169 175 179 187 196 194 195 199 196 196 198 196 199 195 199 200 198 197 199 197 199 201 196 196 197 201 199 199 198 197 198 199 198 198 193 192 192 191 183 183 191 191 183 176 158 156 146 142 158 81 33 81 44 33 58 87 83 100 100 105 122 107 112 115 123 115 65 57 70 59 87 69 71 70 36 81 120 130 131 133 131 145 150 146 144 153 166 174 177 171 178 167 170 167 182 188 193 193 201 198 198 198 199 201 198 200 198 200 198 199 201 195 198 202 199 198 200 200 198 199 196 201 198 200 198 199 196 192 195 191 187 185 191 190 184 176 161 165 152 139 161 92 29 56 54 26 36 62 92 96 108 92 109 112 118 113 122 120 61 69 77 68 82 72 65 64 37 77 113 127 127 129 124 143 149 151 140 149 166 174 176 177 176 168 173 169 178 188 192 193 197 199 198 201 202 201 199 200 199 200 199 200 200 198 200 201 197 200 200 200 200 200 201 201 198 200 200 199 198 197 196 194 186 190 195 190 188 181 170 161 158 142 158 109 27 55 50 40 24 32 80 96 107 90 102 112 103 104 127 122 64 69 72 67 73 64 70 50 48 66 107 122 126 128 118 140 151 151 141 151 166 177 176 182 179 173 178 176 179 186 188 194 194 198 195 201 201 201 200 200 201 200 199 200 201 200 197 199 200 201 200 202 201 198 203 200 202 199 200 198 198 198 197 196 187 191 196 191 187 185 180 159 157 142 154 123 31 63 39 41 27 19 47 100 91 95 97 80 92 91 117 123 75 63 72 70 64 67 63 39 50 57 98 113 129 123 124 134 150 152 148 159 166 176 182 181 184 180 182 178 174 179 185 190 193 193 196 200 200 201 200 200 199 202 199 197 201 201 198 197 200 202 200 202 201 201 202 200 201 199 199 200 197 195 196 196 191 195 196 194 191 188 186 163 149 139 152 124 49 52 54 20 35 25 32 85 88 87 70 56 71 85 96 128 70 58 65 78 64 56 50 34 47 53 84 113 132 121 122 133 145 141 150 163 167 177 181 180 183 183 189 179 174 178 184 188 189 190 189 194 197 199 200 200 198 200 201 196 200 200 200 196 197 202 201 203 202 200 200 199 200 196 197 199 197 195 196 196 196 200 196 195 193 191 187 179 145 136 151 118 66 36 63 17 27 45 31 76 67 85 56 51 59 66 85 124 70 61 60 68 66 44 41 37 34 52 71 101 137 128 116 127 141 136 153 162 167 181 182 182 189 186 188 182 180 180 180 184 187 186 184 190 193 195 198 198 199 199 201 197 200 200 201 198 197 197 202 200 200 200 198 196 198 196 198 194 199 197 199 197 196 201 198 193 191 191 188 188 150 137 150 114 70 44 49 22 29 41 45 74 61 53 53 36 47 39 65 112 68 53 57 70 50 39 43 29 37 53 60 92 124 133 119 125 131 138 153 164 173 182 181 187 192 189 189 184 184 179 183 187 185 183 180 185 186 191 192 194 197 198 199 194 197 201 200 199 195 200 200 198 198 197 191 190 195 195 201 201 195 198 196 193 191 200 192 184 176 188 188 190 162 137 148 115 77 42 47 25 34 28 46 76 69 46 39 29 35 29 63 90 61 60 51 57 37 44 42 23 40 57 51 87 106 126 123 123 127 137 156 166 176 183 176 182 191 190 192 189 190 186 186 189 189 182 184 183 181 183 188 191 195 198 199 192 195 197 196 201 195 196 196 188 191 192 179 171 176 182 183 189 184 176 177 165 164 175 174 167 159 165 179 179 169 136 151 112 71 51 48 30 35 23 59 82 65 43 25 41 38 41 69 89 62 65 48 52 35 42 37 30 43 62 36 85 105 112 126 122 124 135 162 170 173 171 162 172 181 183 182 181 189 186 186 187 184 180 184 185 172 176 173 182 192 196 197 190 190 196 195 196 188 187 188 176 181 182 167 151 145 135 133 140 145 146 148 131 133 139 144 141 136 136 160 153 158 141 147 117 59 54 58 31 47 32 55 91 68 38 30 59 49 65 83 100 70 62 47 41 34 33 40 36 43 61 40 76 116 112 116 122 125 143 163 163 156 148 147 148 154 148 144 147 151 156 151 146 140 149 161 177 164 162 158 163 175 189 190 187 184 183 186 190 180 178 171 168 166 166 143 127 117 105 89 93 96 103 114 118 118 130 138 136 131 128 122 135 123 135 143 129 61 46 53 47 41 29 44 78 66 29 41 60 76 97 110 107 68 49 39 36 40 33 39 38 39 59 37 72 122 117 113 122 129 142 138 140 145 138 134 133 138 136 122 120 110 99 102 99 102 102 117 139 151 154 155 156 160 173 190 185 178 177 171 169 175 180 175 158 154 142 118 110 99 83 90 101 147 151 152 138 142 143 142 135 132 137 130 115 105 111 149 136 69 37 44 45 34 37 37 53 53 32 54 81 90 113 117 125 68 49 44 43 44 29 34 39 36 57 28 73 125 118 116 119 129 124 113 126 130 120 121 112 110 106 110 106 98 91 94 88 86 83 88 96 111 125 141 134 142 158 184 184 153 178 168 155 171 182 170 144 147 145 124 123 137 132 117 121 122 141 160 165 173 168 150 138 134 131 131 118 100 109 153 135 65 33 47 44 38 33 47 42 54 59 62 98 100 118 117 122 71 52 53 33 40 31 36 37 39 52 28 72 124 124 119 122 123 104 113 123 132 123 152 191 186 180 189 174 134 135 125 116 101 92 90 93 115 113 155 201 167 134 176 166 142 167 148 149 163 167 172 134 180 181 113 105 115 123 119 165 201 205 204 188 185 194 184 187 183 181 165 139 103 96 135 126 57 24 41 50 34 39 55 59 59 84 71 103 110 120 116 121 65 58 45 30 30 24 41 32 43 59 29 54 122 127 119 123 104 96 108 106 104 97 120 155 167 178 172 156 153 145 133 117 98 74 122 173 166 139 115 138 164 151 159 157 158 155 148 166 165 148 126 102 117 128 125 119 133 143 135 165 220 211 217 196 180 180 174 171 163 168 164 166 104 72 112 107 32 23 40 58 42 41 51 65 75 93 80 103 113 114 119 122 60 49 37 30 28 24 35 44 37 66 37 34 114 126 126 119 93 94 108 110 117 145 161 171 174 183 188 182 197 196 165 152 134 93 191 220 217 218 138 116 125 127 143 158 174 164 175 184 172 141 94 106 117 119 132 135 139 144 139 133 189 205 206 182 187 180 179 173 165 150 146 174 129 56 99 100 44 29 41 57 52 48 66 70 72 78 88 109 113 117 120 119 45 32 40 36 28 18 42 42 33 47 41 25 110 129 128 121 96 105 104 111 137 153 161 166 173 177 183 178 185 185 174 160 160 125 195 214 223 191 122 106 112 109 148 161 186 187 194 192 169 135 160 119 122 126 134 138 135 126 111 89 81 97 94 87 97 111 121 134 147 152 138 148 141 74 58 116 76 72 60 51 58 62 61 81 62 69 96 116 105 121 119 119 40 33 30 40 36 26 41 39 24 40 43 9 95 128 130 113 99 118 98 114 132 146 152 158 158 154 151 152 144 138 134 127 128 123 139 177 174 140 114 109 112 96 191 164 164 186 213 210 207 206 222 127 116 129 124 119 111 103 103 106 106 80 83 146 69 78 92 77 107 107 127 135 143 88 86 129 190 164 74 27 53 61 62 66 66 70 91 116 105 117 119 119 33 37 30 51 44 37 38 29 22 31 34 9 73 118 126 115 105 120 99 114 123 129 125 122 105 82 65 61 88 63 83 93 96 91 98 123 135 132 124 107 95 74 108 123 116 139 193 204 198 193 170 130 136 131 121 118 108 101 105 156 115 86 56 122 94 83 140 108 76 93 88 125 144 66 55 100 180 139 61 29 54 60 67 74 71 75 95 99 107 116 120 121 30 34 24 56 52 51 39 33 26 30 23 25 34 111 120 119 116 117 101 104 110 100 83 66 77 60 76 41 179 90 99 146 103 101 105 113 119 144 144 121 110 94 154 175 144 145 137 126 119 107 101 155 170 167 142 128 114 106 125 165 147 85 93 83 88 113 159 139 88 52 81 102 133 65 19 75 200 151 63 33 55 56 54 54 66 79 99 98 102 117 118 121 26 32 41 60 56 57 57 54 38 38 30 31 26 64 131 148 122 105 110 99 92 69 56 64 108 78 70 59 84 82 125 165 129 110 106 114 122 149 158 127 115 111 119 94 128 175 188 183 168 106 94 162 181 177 149 132 125 125 122 141 142 136 123 125 110 150 143 128 116 100 98 101 101 79 31 61 143 90 56 49 53 57 56 49 68 81 85 90 92 114 118 119 29 34 55 60 41 55 62 57 47 43 30 56 44 37 179 223 131 82 125 101 71 50 62 77 116 108 76 81 90 99 136 140 131 122 125 128 141 154 144 129 129 132 97 79 166 197 201 198 204 144 59 147 171 173 159 150 142 144 138 141 133 143 152 152 141 159 138 137 143 144 129 107 80 109 61 74 121 56 46 64 58 53 60 48 61 87 81 85 76 101 113 112 38 43 68 47 46 49 54 51 42 43 29 81 93 45 201 235 139 70 132 96 71 79 93 110 119 126 120 136 134 139 149 149 146 145 146 147 160 161 145 151 133 125 72 101 188 201 200 201 200 192 85 132 171 171 166 159 156 154 149 145 140 137 145 157 159 164 166 162 161 147 133 113 86 133 88 84 115 66 47 84 73 56 52 53 46 84 89 83 96 105 114 113 25 37 75 45 48 54 45 46 43 44 34 88 113 64 71 142 126 77 125 111 114 120 113 121 138 141 142 155 159 152 157 155 154 156 156 159 167 170 164 163 118 117 65 134 193 198 198 199 196 205 127 151 164 182 180 175 172 165 168 168 156 145 140 138 149 156 159 154 143 133 136 130 122 142 123 83 125 68 54 69 84 59 49 47 64 81 91 98 92 127 104 116 23 26 61 57 51 54 42 37 37 33 39 96 124 107 58 118 147 84 124 131 132 141 137 145 159 164 167 167 166 154 159 159 167 176 177 177 187 184 179 145 121 132 81 155 189 198 199 199 194 202 158 152 169 181 186 190 186 176 174 183 183 178 164 153 145 142 148 145 142 150 152 153 152 161 149 100 131 93 38 62 64 49 46 55 74 77 83 102 109 121 111 112 21 19 42 56 46 52 39 38 32 44 39 93 122 119 78 109 163 89 113 136 143 136 131 147 155 151 150 143 145 156 170 183 189 185 184 192 190 184 174 126 142 180 103 168 180 189 198 196 191 197 191 122 173 171 181 187 192 176 166 159 175 178 181 189 188 176 170 163 161 154 160 169 172 176 174 134 130 109 50 57 50 44 44 62 75 81 89 98 118 112 113 112 25 13 34 61 43 51 42 33 36 49 37 89 119 124 110 92 174 112 106 143 167 149 126 135 147 151 156 168 172 180 179 181 182 187 188 188 187 176 162 115 199 172 119 166 176 189 195 196 194 193 188 150 145 178 181 185 189 190 176 163 155 152 151 156 162 157 161 164 164 169 175 168 172 180 181 147 139 119 56 53 49 53 56 58 70 82 86 107 110 117 113 114 23 14 27 70 48 45 51 34 44 46 35 94 113 121 125 96 133 132 107 137 160 168 167 161 160 163 163 161 162 163 169 170 179 181 186 184 173 158 132 135 211 134 141 164 176 184 195 195 195 196 183 168 136 165 180 180 182 187 187 184 179 164 159 162 163 162 178 184 186 180 181 182 167 180 186 130 159 122 59 53 39 51 56 64 77 83 90 106 109 116 115 115 23 16 20 83 53 52 51 47 39 44 37 96 108 117 129 117 107 146 121 122 157 175 179 175 162 161 164 162 164 166 173 180 188 184 182 184 171 156 113 188 186 118 145 157 168 187 195 196 195 195 186 177 160 125 163 178 173 181 186 182 188 185 184 185 188 187 186 190 189 187 186 181 169 175 176 121 177 136 51 65 41 50 63 68 73 85 79 105 114 115 116 116 27 20 17 83 56 53 54 41 34 42 41 87 108 111 126 132 104 155 127 124 149 174 177 181 177 175 178 174 176 179 178 184 185 182 182 179 168 152 128 209 152 125 136 154 166 187 197 197 193 194 190 182 174 142 111 171 175 177 183 183 187 187 189 188 186 195 187 185 186 187 189 179 166 180 138 139 180 146 43 78 71 47 60 67 75 90 94 106 115 117 118 113 29 26 12 76 58 51 47 36 34 39 45 75 103 113 119 144 112 135 146 122 143 161 167 170 172 169 174 174 176 177 182 186 185 184 182 176 167 140 169 172 126 123 137 160 173 185 197 198 195 193 193 187 184 167 106 106 188 179 181 187 184 187 188 190 185 192 191 184 188 186 191 176 196 183 116 170 177 149 49 60 85 64 71 68 83 102 109 107 118 115 117 117 26 28 17 68 59 59 44 40 33 38 36 81 102 111 117 137 129 97 176 139 138 156 155 159 168 164 170 178 178 178 179 183 182 188 185 178 159 163 199 120 122 126 136 166 175 188 199 199 198 194 197 189 188 170 147 79 117 196 189 190 191 189 191 188 190 188 190 188 190 190 186 173 176 153 159 175 168 148 50 57 61 74 65 86 86 91 111 112 116 115 116 116 23 28 13 53 68 55 51 43 34 35 37 68 102 110 109 129 134 102 143 213 141 144 153 156 163 165 169 175 177 175 177 179 183 190 190 178 170 196 135 106 135 136 137 164 174 187 193 199 201 195 198 191 185 173 155 104 90 110 160 186 195 195 193 192 191 189 178 169 160 140 133 119 149 177 178 169 165 145 49 53 59 63 77 98 97 106 109 106 113 115 115 116 31 26 22 39 64 48 64 47 35 38 42 63 99 110 112 123 127 126 103 150 191 187 155 167 168 168 168 173 175 182 181 183 184 189 198 190 189 149 83 137 148 145 136 157 169 180 190 196 203 200 194 187 177 166 164 133 113 108 102 111 106 109 118 130 133 133 124 119 119 123 145 158 173 178 177 169 168 136 54 51 53 54 78 91 99 104 108 108 108 117 112 115 33 34 35 27 60 48 61 47 36 44 44 52 103 107 116 118 124 121 122 106 106 150 164 183 183 183 191 193 192 196 194 190 183 183 179 170 150 112 115 157 153 147 138 147 163 173 185 194 199 196 186 174 162 158 157 163 162 155 149 144 146 138 142 140 141 146 156 159 164 167 178 179 181 172 176 162 165 133 50 52 59 62 76 99 98 94 100 110 112 111 119 113 30 34 35 25 53 58 62 42 34 53 47 44 105 104 112 117 119 119 127 130 131 119 115 122 116 109 109 110 114 129 142 139 135 147 143 167 148 113 148 159 147 145 136 131 140 159 178 187 187 182 174 162 149 153 155 161 170 174 180 184 186 181 185 182 183 183 182 187 184 174 178 180 182 175 172 155 160 132 54 42 59 69 86 97 85 105 102 115 118 118 113 116 39 28 38 27 51 61 62 41 42 48 48 43 91 99 110 118 119 123 135 135 133 120 122 128 138 136 146 144 144 149 153 154 161 163 170 175 129 134 150 147 139 138 127 111 113 132 160 172 180 173 167 155 148 141 146 156 164 168 174 184 185 179 184 187 183 186 184 186 184 178 171 179 180 171 168 158 156 125 64 41 50 74 85 87 89 99 106 116 114 115 116 117 41 33 39 42 48 68 44 46 42 46 47 35 82 102 111 123 125 133 142 149 141 137 143 148 159 155 160 165 164 166 172 174 172 169 175 152 110 143 141 127 119 118 115 101 91 108 139 154 169 165 162 151 115 92 123 143 151 160 176 177 186 182 185 186 185 187 181 183 183 175 169 175 179 169 154 152 145 124 66 46 62 72 92 90 92 100 117 112 115 111 118 117 35 26 35 41 46 51 51 38 47 44 50 37 75 100 114 118 123 133 147 160 156 142 146 150 154 152 149 163 164 169 172 166 168 172 163 112 98 136 124 105 88 66 57 60 75 102 119 139 153 147 153 132 40 18 86 126 136 150 180 181 185 185 185 185 187 188 183 182 181 176 167 172 168 169 144 141 133 122 69 40 56 83 91 94 85 102 116 113 110 113 119 113 58 30 33 36 43 41 51 41 47 43 56 47 62 96 112 111 123 131 145 156 151 150 145 149 155 156 155 167 164 169 172 162 169 169 153 101 98 120 117 98 54 25 29 43 45 83 116 122 133 134 142 83 40 59 74 113 122 153 178 182 184 184 184 183 181 185 182 179 179 178 172 173 170 160 135 128 127 116 76 55 48 74 83 103 91 91 109 111 115 112 120 114 82 55 33 38 40 39 46 54 45 39 55 49 64 89 110 113 119 136 142 147 139 157 150 154 157 163 167 165 168 167 172 165 166 167 154 122 115 104 110 104 71 56 45 61 61 61 97 108 109 118 121 112 122 145 128 110 122 165 176 184 187 181 183 175 171 171 172 177 179 170 168 173 168 149 128 120 134 104 77 62 48 75 75 91 96 105 99 94 112 112 114 114 81 64 53 47 39 36 44 51 51 53 54 63 58 82 108 107 109 127 135 139 132 139 153 152 165 162 167 163 158 156 164 168 169 177 173 159 151 117 87 103 91 83 66 62 62 66 79 87 97 106 118 111 138 139 130 125 144 170 168 180 184 189 185 176 178 168 147 167 170 163 164 165 162 146 114 127 128 91 65 63 58 72 80 82 94 98 85 99 104 107 116 116 80 74 62 58 49 39 43 41 65 61 54 62 52 76 101 96 105 113 127 133 123 133 149 151 158 155 157 141 151 158 168 171 175 177 181 176 170 162 126 114 103 92 64 72 71 69 79 94 104 113 102 97 123 148 135 142 155 166 160 179 184 186 189 183 180 178 159 133 158 163 163 162 147 148 108 125 122 83 67 60 56 82 80 77 86 90 89 98 111 110 114 117 75 74 58 62 50 50 36 46 62 58 66 62 47 69 100 103 97 105 110 125 122 131 143 148 147 141 128 141 174 176 172 177 171 167 168 165 162 170 162 144 109 99 69 101 97 83 98 114 103 109 112 91 102 128 130 133 153 159 158 159 168 177 182 180 184 176 177 156 127 156 157 150 142 130 120 120 110 77 54 61 40 80 88 70 67 100 105 109 108 115 115 115 81 80 59 62 55 61 38 52 54 66 63 55 39 80 94 107 98 98 100 112 125 123 129 134 123 120 153 167 169 172 169 165 157 146 148 154 134 146 156 132 104 95 97 109 124 115 125 117 100 106 98 103 99 84 113 131 123 165 162 143 144 153 157 165 176 184 178 182 142 139 157 145 123 123 118 101 97 82 58 54 50 71 83 86 50 101 97 104 105 110 116 111 81 79 75 63 57 61 43 46 49 58 49 49 53 92 88 104 92 95 97 101 125 126 130 113 116 134 163 157 158 153 156 149 134 125 152 143 115 123 132 115 105 100 103 113 139 112 126 121 93 117 83 108 103 76 87 113 107 135 142 134 131 124 131 140 149 152 165 168 168 133 144 129 116 125 111 95 82 85 55 62 53 63 61 82 71 96 88 98 106 105 115 112 76 76 78 60 58 66 58 42 43 57 44 51 68 90 75 89 84 90 97 105 121 123 120 110 134 132 136 131 130 132 133 118 126 141 133 115 100 116 121 108 107 94 100 125 133 112 121 118 96 116 95 94 99 90 78 90 108 100 121 112 115 120 120 127 134 130 132 153 163 143 135 128 119 124 102 83 70 69 50 75 59 61 59 57 84 93 90 93 101 113 113 113 79 76 79 59 63 69 59 44 45 48 44 49 65 77 75 84 79 93 108 107 119 115 106 117 127 113 111 107 117 125 118 129 135 137 113 108 110 113 113 117 103 82 103 115 133 112 121 115 111 109 95 92 97 106 83 86 101 85 111 113 97 107 113 126 118 121 108 110 146 136 137 127 112 116 93 75 63 69 49 57 71 57 68 73 85 98 91 83 111 108 115 114 81 76 80 62 59 60 60 46 53 45 46 64 46 61 78 93 76 100 98 102 115 122 104 125 108 106 100 103 110 109 135 137 129 134 118 114 113 111 123 111 91 91 101 114 128 110 113 109 116 97 113 83 114 109 95 87 100 81 101 115 98 99 110 113 126 111 110 101 116 136 136 120 111 107 94 62 63 62 54 56 70 59 62 76 81 89 77 97 107 102 114 117 80 81 73 76 64 54 57 43 52 47 58 67 51 55 77 100 91 94 85 91 112 119 108 105 95 102 88 112 96 106 134 118 117 125 114 110 97 115 108 95 96 98 94 117 123 100 129 119 111 103 112 94 119 104 103 91 91 92 89 98 116 94 103 92 113 118 112 107 101 132 122 118 102 93 102 65 53 62 52 53 70 56 66 65 76 58 81 96 106 93 107 116 79 76 68 74 72 61 54 48 43 52 55 68 52 40 74 101 101 88 82 87 108 109 93 98 100 95 97 103 98 116 113 110 106 102 91 100 94 89 86 101 91 90 89 114 97 93 121 116 111 103 98 97 113 90 95 87 95 96 94 94 93 97 95 85 97 102 103 110 90 120 113 103 92 75 81 63 61 58 57 48 69 56 55 60 60 50 80 87 78 91 106 109 77 77 74 73 73 59 53 40 45 43 57 58 45 44 71 83 91 79 65 83 102 91 82 108 99 104 101 84 105 108 99 99 106 83 81 89 95 86 92 86 79 83 95 96 89 107 117 110 109 100 88 91 100 99 90 95 87 103 81 99 74 89 77 82 89 99 100 105 91 110 105 96 82 78 70 70 53 45 60 53 53 57 53 55 66 61 81 91 87 93 103 113 74 75 76 71 72 60 48 40 54 38 55 58 44 42 72 65 87 75 67 83 87 82 92 115 100 106 80 74 101 90 80 83 100 74 82 81 94 88 92 75 73 84 94 88 90 113 102 97 105 89 75 77 80 105 96 106 83 94 84 95 85 92 80 73 80 89 98 100 90 108 98 69 81 81 57 65 44 50 58 51 53 47 57 50 72 67 70 90 98 85 108 116 79 74 73 72 64 60 48 47 44 43 51 57 46 48 68 48 81 67 64 84 77 94 113 110 99 100 69 55 93 75 63 69 87 79 82 98 87 91 92 84 92 106 135 135 142 152 143 147 148 143 138 120 116 112 108 115 109 110 105 116 108 95 82 66 70 91 80 94 77 101 80 76 83 86 61 54 51 42 42 43 52 57 45 56 61 65 67 85 93 101 112 112 76 74 71 69 63 63 46 47 42 41 56 51 52 45 56 48 66 49 53 73 74 95 109 96 90 85 61 60 72 74 66 66 81 85 85 106 105 114 108 103 105 120 137 149 155 159 173 176 171 169 173 146 138 134 128 129 138 130 125 128 121 114 93 71 71 80 70 80 78 100 75 78 91 81 60 46 58 53 45 48 41 72 51 65 66 85 79 98 93 105 114 113 73 73 74 67 71 68 50 49 42 47 59 57 58 46 50 56 73 49 55 66 88 96 88 77 83 80 55 65 70 62 59 68 84 89 99 113 114 119 120 131 128 148 153 157 166 172 179 185 183 173 182 160 155 156 153 153 149 146 134 137 125 128 110 95 68 75 69 79 75 83 81 75 90 71 60 51 47 49 40 38 36 81 59 70 75 87 94 95 101 112 112 111 71 72 76 67 72 61 49 52 46 51 62 56 64 54 59 55 52 50 62 75 83 84 76 66 86 82 68 73 72 64 73 78 89 95 114 116 121 129 125 121 123 143 152 156 162 164 164 165 163 167 169 167 163 156 150 145 140 143 149 143 130 126 120 104 93 64 64 74 73 66 75 68 64 73 62 45 56 48 40 42 35 79 61 68 83 86 94 102 110 114 112 110 75 69 72 79 64 63 59 49 58 36 55 68 47 40 55 45 51 63 68 60 71 87 70 73 79 77 84 93 71 73 85 81 90 106 120 121 130 141 139 121 113 126 126 133 124 134 133 123 131 141 142 137 152 147 148 140 146 135 141 138 133 122 123 95 89 76 55 66 76 62 69 80 51 73 60 53 48 49 53 45 43 75 64 73 70 94 82 103 117 110 115 112 77 73 65 74 66 61 63 55 55 38 48 71 38 57 54 44 55 58 66 51 77 69 60 79 64 67 93 92 75 84 85 95 87 114 115 119 139 134 125 114 120 130 121 132 107 128 133 119 118 132 134 120 138 145 154 140 146 140 136 137 126 111 127 78 88 73 58 50 75 66 64 87 58 52 65 55 54 44 58 41 48 57 62 74 79 82 92 101 106 111 113 111 74 72 67 61 67 54 50 54 47 39 49 47 56 59 55 48 43 57 46 62 73 55 63 73 68 84 111 68 102 93 98 91 99 108 94 138 149 122 122 114 126 124 138 127 102 121 130 112 113 124 132 121 120 143 136 150 134 152 126 144 111 106 115 91 63 65 81 51 80 69 69 67 71 48 49 56 58 48 51 56 58 53 74 83 89 101 89 105 108 113 107 114 66 69 67 64 60 58 51 53 46 43 48 43 53 54 48 52 51 51 48 69 64 64 63 74 86 84 88 65 109 89 83 82 109 93 120 142 122 118 124 118 130 123 134 124 98 118 123 111 103 108 131 109 106 131 127 136 134 145 135 135 103 92 96 98 70 52 64 67 76 73 79 55 66 53 56 52 51 43 53 66 53 58 73 93 90 101 86 101 113 112 111 112 67 69 64 68 62 63 56 55 39 45 47 39 45 49 41 50 48 43 52 62 64 69 64 76 89 72 77 87 96 79 92 89 103 112 132 114 100 129 116 121 125 120 127 120 94 113 113 112 97 105 112 121 94 118 116 119 124 128 133 114 94 87 86 95 89 39 67 47 78 80 72 70 42 71 53 52 53 44 52 57 50 55 69 64 78 81 89 104 111 111 111 114 69 75 68 70 70 63 63 48 39 44 46 32 46 63 52 51 43 44 51 70 60 57 50 83 77 73 92 78 88 92 86 86 98 87 109 91 92 113 114 104 105 112 99 104 97 78 99 98 83 103 107 114 97 100 102 90 111 106 116 96 85 80 89 76 87 64 49 60 65 103 42 82 58 62 64 61 66 40 58 50 41 68 59 56 74 100 104 99 108 103 112 109 73 74 67 71 71 63 62 46 35 42 37 34 37 59 54 45 52 35 63 54 58 40 62 84 76 81 77 86 82 78 88 62 84 75 98 89 84 90 83 90 88 89 86 87 91 70 73 74 83 86 91 100 92 105 79 70 96 91 90 97 73 87 79 76 70 71 56 69 76 79 74 48 68 65 56 57 64 42 52 55 42 51 58 56 68 100 103 105 110 106 107 110 70 74 69 72 70 71 56 43 41 36 34 41 30 35 49 32 45 32 69 49 61 42 73 91 82 86 70 91 94 84 66 49 66 63 81 66 71 75 80 85 83 77 84 77 72 72 71 70 94 91 80 81 82 82 81 54 76 84 74 75 73 67 85 69 42 70 84 37 102 88 70 59 71 51 62 52 57 50 45 55 51 50 53 56 69 91 91 108 107 107 106 109 70 71 71 74 74 70 59 48 46 42 36 38 36 37 64 30 38 59 74 60 55 57 86 97 87 94 92 97 88 71 61 48 56 63 63 66 63 69 88 74 73 74 84 93 88 89 77 79 83 81 79 91 80 94 74 63 73 75 68 68 56 67 82 73 44 58 82 43 78 90 74 57 71 46 61 55 47 61 46 40 52 59 51 69 67 91 99 107 107 107 109 107 70 70 69 74 71 72 54 50 53 45 37 37 42 38 53 44 43 71 62 63 46 67 76 106 94 77 108 86 77 79 61 54 52 60 73 74 69 87 87 66 89 89 89 110 95 105 102 89 75 77 90 88 87 93 75 79 67 66 66 63 59 68 77 74 67 64 71 69 58 80 63 71 47 64 51 49 54 49 50 51 44 53 60 77 74 91 106 103 105 106 108 110 71 71 71 74 71 73 61 48 51 38 41 40 43 47 50 41 40 71 54 56 45 69 58 134 82 90 98 78 79 69 52 64 60 64 62 73 93 81 71 63 112 101 109 120 99 108 100 86 89 73 94 97 85 107 96 89 66 71 65 59 54 59 71 89 64 63 55 86 71 71 86 68 58 56 41 42 46 46 40 50 50 54 55 64 77 99 101 104 99 107 107 109 68 72 70 72 76 69 67 56 40 47 45 32 35 41 50 37 51 66 48 55 70 46 78 113 72 75 67 89 76 55 75 57 72 65 55 102 73 54 67 76 96 110 126 104 102 108 75 99 98 87 72 104 88 105 101 87 80 60 69 45 65 52 61 71 84 41 51 64 74 61 87 67 56 58 54 39 38 53 32 56 51 64 48 71 82 102 100 108 102 105 106 106 72 71 69 73 73 70 61 66 40 48 39 28 41 36 65 18 37 67 35 62 76 45 85 91 67 60 62 110 68 58 69 67 81 71 77 102 63 63 83 77 105 124 120 100 86 100 81 122 104 84 66 100 107 85 113 77 85 68 71 56 65 60 61 69 91 46 48 61 69 78 83 69 42 66 56 43 36 40 42 45 53 56 60 72 79 95 100 108 107 98 106 106 68 71 71 73 69 70 66 65 55 42 41 41 33 41 62 29 37 56 38 61 66 41 107 99 73 66 81 96 70 56 60 84 83 82 109 88 88 78 87 103 119 113 115 105 79 95 76 134 104 75 71 104 117 89 120 83 80 82 72 52 76 67 88 69 78 54 63 58 49 91 88 79 41 59 61 61 36 38 44 43 57 67 46 74 82 95 103 103 105 102 105 107 71 69 70 75 68 69 69 65 69 41 48 46 35 50 54 39 45 53 36 46 70 46 100 63 71 63 66 89 72 64 80 94 87 104 105 82 90 84 111 125 117 92 121 92 95 127 85 110 100 83 82 98 99 115 115 125 82 80 69 59 62 81 95 78 81 53 66 61 53 89 88 71 65 45 56 53 41 46 34 40 46 61 45 70 85 91 106 104 102 102 103 103 70 68 69 75 68 71 71 66 67 52 40 50 44 53 44 32 50 47 36 44 53 57 94 70 73 62 66 88 68 75 79 80 69 121 70 82 93 94 100 126 123 87 114 101 113 120 86 90 116 82 79 91 92 108 121 115 77 76 77 51 65 85 95 74 71 70 64 71 63 70 107 32 71 63 47 47 41 62 35 32 47 60 62 65 88 88 100 100 100 105 106 103 70 68 67 72 70 69 67 75 65 61 48 49 41 56 41 35 49 48 35 42 31 75 90 63 68 67 78 85 74 76 67 65 91 116 47 73 112 107 92 109 99 118 88 111 124 100 93 68 118 54 80 93 80 103 118 103 77 82 71 58 70 81 89 62 70 66 76 94 41 90 93 43 52 66 57 43 46 58 47 40 48 60 73 64 92 91 92 99 104 100 105 102 67 72 70 74 66 69 71 68 71 70 51 43 44 46 46 40 46 42 47 36 42 82 85 52 63 76 78 69 88 66 63 68 98 105 45 75 132 101 98 92 99 103 94 101 125 86 83 82 101 59 85 98 68 95 130 81 82 85 79 71 101 60 61 73 61 70 57 89 35 93 104 48 70 62 50 50 45 50 52 58 58 65 77 85 97 93 101 106 103 98 101 99 68 69 70 68 68 66 74 70 69 72 58 55 46 37 55 40 48 37 45 36 58 59 72 63 66 73 74 76 76 54 51 86 91 83 53 75 129 91 98 78 105 98 116 97 123 85 84 99 79 76 110 86 63 105 106 87 82 90 81 78 114 65 56 89 64 79 65 60 57 64 86 66 42 67 51 46 47 48 35 46 58 70 68 79 90 95 102 100 100 103 97 102 72 67 69 69 67 71 72 71 72 71 59 59 37 46 56 34 46 33 32 43 44 51 54 76 65 66 62 86 67 41 55 93 102 80 44 88 106 89 111 65 88 97 112 98 111 71 89 84 66 96 112 58 75 114 81 90 87 87 100 92 99 63 91 91 73 63 76 34 65 59 85 54 33 83 36 50 35 46 38 33 51 52 56 71 89 96 104 99 99 101 99 100 68 67 69 69 69 73 66 69 74 73 61 53 40 42 45 46 33 30 37 40 41 59 63 56 68 58 77 72 64 45 63 106 95 58 42 96 78 98 104 71 94 54 111 106 80 85 77 77 68 118 91 42 82 113 78 103 74 96 110 84 64 88 101 100 58 61 74 42 60 66 53 54 46 77 27 52 45 38 42 46 57 57 51 58 93 99 92 97 97 102 98 97 68 67 72 69 70 72 67 72 74 69 65 52 34 40 42 50 44 37 45 40 41 55 67 49 51 71 90 61 45 52 64 94 65 60 61 74 77 106 71 88 105 33 93 99 90 86 88 63 80 100 88 61 72 100 97 105 74 119 97 74 48 96 98 84 43 78 66 34 60 65 41 57 52 71 40 46 42 43 46 57 77 65 69 51 94 99 95 95 96 101 97 98 69 68 72 69 70 71 70 70 74 72 71 52 39 38 40 54 42 41 43 35 44 53 52 63 42 67 88 48 45 65 55 92 63 62 66 72 83 90 66 85 97 45 69 88 102 88 93 92 60 94 94 72 75 80 105 102 108 122 70 71 47 110 81 81 40 71 69 31 74 55 51 58 56 61 51 54 41 33 51 49 91 85 73 77 106 99 95 97 98 98 98 95 72 67 70 66 69 71 68 74 70 72 76 69 47 45 39 48 43 32 45 37 56 33 62 72 39 70 72 51 49 58 56 63 68 62 45 78 78 73 93 74 48 75 70 78 84 80 82 107 53 84 98 59 67 87 61 115 101 94 69 68 62 104 60 60 42 76 54 56 57 52 54 35 51 49 51 38 46 34 38 50 79 107 81 112 148 136 119 105 94 99 97 98 67 69 71 71 70 70 70 73 81 99 121 120 56 46 41 39 39 39 33 33 70 62 53 60 53 72 66 61 50 61 51 66 67 60 45 69 76 74 74 60 48 76 74 74 87 76 59 97 74 89 82 70 88 74 94 98 76 95 72 56 88 96 40 66 61 60 39 39 45 68 44 41 48 49 51 43 40 43 41 56 41 80 98 129 143 154 147 142 128 109 98 98 65 73 67 68 63 73 88 105 133 133 139 137 86 55 42 37 36 37 29 26 69 50 29 51 60 44 66 56 35 61 56 59 71 56 35 43 77 76 63 57 40 63 66 52 82 81 55 101 51 69 90 33 97 72 82 97 69 64 96 47 91 73 20 73 67 51 27 37 51 47 74 56 49 51 50 61 57 71 76 64 36 66 133 146 142 157 154 148 146 150 135 121 