P2
92
112
255
55 47 50 51 46 51 51 49 51 50 46 53 45 50 57 49 59 58 53 68 83 61 48 66 66 70 84 51 52 54 48 48 45 49 43 45 52 62 57 56 52 57 59 63 58 67 66 59 55 69 65 41 46 56 55 52 52 51 61 50 55 56 56 46 52 52 50 52 49 48 51 52 51 45 47 48 48 49 48 45 52 50 46 44 48 47 45 47 48 47 44 49 47 52 47 52 49 54 49 50 54 51 50 52 48 51 63 59 63 60 56 72 77 53 57 66 61 60 63 53 50 48 37 48 45 46 51 55 63 78 81 85 84 84 89 88 91 87 90 83 80 85 83 68 59 54 52 55 45 58 62 40 49 64 57 49 49 53 49 51 49 55 48 52 48 49 44 52 48 49 53 46 47 47 46 52 46 50 46 47 50 45 46 46 49 53 48 52 50 48 54 57 49 52 53 50 51 61 67 50 66 56 64 63 71 65 58 71 56 64 51 57 48 43 42 45 50 67 80 95 98 99 107 106 108 106 107 106 110 106 107 106 104 102 103 90 92 85 80 68 51 56 60 37 55 61 64 50 49 50 53 48 48 55 47 49 53 48 48 54 47 52 47 45 50 48 52 49 47 50 45 46 49 42 48 46 61 46 47 56 48 47 50 55 51 49 55 43 74 70 52 53 67 58 68 61 72 68 64 69 56 57 56 56 47 51 58 64 99 109 114 119 115 118 121 114 123 112 119 115 116 110 116 116 112 113 110 111 104 109 100 100 90 76 60 48 47 64 62 53 51 54 57 44 52 49 52 50 53 50 46 53 51 53 49 46 54 47 51 51 53 47 43 49 45 46 47 46 55 50 51 49 54 51 48 55 51 54 50 66 98 52 57 59 67 63 66 50 70 76 59 61 65 60 55 55 48 84 91 114 126 127 131 125 126 128 133 120 129 117 125 118 120 117 114 122 116 116 119 115 113 114 110 113 113 101 102 83 53 61 52 66 58 58 53 54 53 44 57 53 46 52 53 48 53 52 51 50 48 48 49 45 55 49 50 46 46 55 44 49 53 54 53 52 53 54 54 50 51 52 61 78 69 55 64 67 85 63 57 56 58 70 63 67 62 56 47 63 108 120 123 129 129 129 136 133 135 138 139 131 131 128 129 124 122 121 121 121 119 122 121 121 117 116 121 119 118 115 113 108 100 94 57 56 51 56 59 58 52 48 55 53 51 51 52 48 54 50 48 49 55 43 55 43 55 43 46 53 46 49 50 40 50 53 53 53 49 52 50 52 55 55 71 63 62 62 66 72 77 66 51 65 72 70 66 58 54 58 94 115 136 136 136 137 133 137 144 134 139 145 144 136 139 134 137 126 128 129 120 125 122 125 124 122 124 120 127 121 119 118 119 119 110 110 105 87 63 53 56 51 57 46 58 54 54 49 49 56 48 48 53 47 51 49 51 48 51 50 45 49 49 45 46 45 53 50 49 61 52 61 60 57 51 59 71 60 55 63 67 66 67 55 61 73 68 57 57 48 71 109 132 138 144 142 143 143 137 141 144 134 145 141 146 142 141 140 141 135 132 132 127 128 129 124 131 131 130 120 131 127 122 124 123 122 115 121 115 108 102 83 54 45 51 59 56 54 49 49 54 48 52 51 50 53 51 46 51 50 49 49 48 51 41 51 49 44 53 52 54 59 52 62 55 64 55 60 61 62 55 70 69 57 68 62 69 73 61 58 47 77 124 139 141 146 147 151 142 147 142 143 137 140 144 144 143 144 142 147 143 141 139 134 130 133 133 128 128 136 133 127 127 134 127 127 130 125 121 125 127 117 115 112 103 57 46 63 49 61 49 55 51 49 51 53 51 55 49 49 51 54 49 49 53 48 54 43 50 46 48 57 47 63 50 56 53 62 52 63 58 57 62 78 63 66 67 71 67 62 55 53 107 132 144 149 145 144 143 148 145 146 146 138 140 138 143 146 140 144 148 145 148 149 145 141 136 134 136 130 133 140 131 131 131 129 133 137 130 131 131 131 129 128 120 121 118 106 75 51 49 62 56 51 57 48 49 55 52 52 52 46 53 53 48 54 52 50 50 50 50 48 50 56 50 59 51 56 50 65 53 57 61 58 67 67 71 79 63 62 70 56 63 113 137 143 143 150 149 144 158 155 155 154 152 141 147 141 145 146 144 148 150 150 149 156 148 145 142 137 139 136 140 142 132 135 134 134 134 135 134 135 137 137 129 131 128 125 128 120 118 83 49 58 56 52 55 51 55 49 54 52 53 47 52 53 44 57 48 50 49 52 47 54 60 54 57 56 62 67 70 59 57 66 55 61 72 71 72 71 74 67 65 64 120 139 147 152 151 160 160 153 164 168 164 164 154 147 151 149 147 143 144 149 153 147 154 154 153 151 142 142 139 143 143 141 138 139 135 140 137 133 139 136 134 141 136 132 136 134 131 129 125 115 86 48 49 56 53 56 54 54 52 52 55 50 50 54 51 51 54 49 45 52 50 51 56 61 51 59 58 61 71 60 54 71 61 75 86 62 68 66 86 63 64 118 143 151 155 162 162 165 165 165 167 174 175 168 157 154 158 150 155 149 138 149 151 147 152 155 158 148 143 140 137 142 144 141 140 143 141 143 138 138 137 140 140 139 143 134 137 138 138 134 129 128 119 91 40 51 55 53 59 56 54 54 54 50 52 55 55 49 50 52 49 56 53 47 52 59 58 52 59 55 66 59 62 74 65 77 70 61 67 70 75 57 114 145 155 159 169 164 173 170 169 171 173 166 172 172 162 160 163 158 156 158 144 153 153 153 149 159 163 156 142 135 137 143 144 141 141 146 146 145 140 143 140 144 145 143 149 139 136 140 141 135 129 132 123 124 86 44 48 56 58 58 59 52 57 47 53 60 55 50 47 55 52 52 50 47 53 55 56 52 59 58 52 74 81 74 66 88 65 65 62 76 57 106 152 156 168 171 174 170 175 174 177 173 179 163 169 173 171 168 174 163 163 160 147 155 156 164 160 164 167 162 151 139 140 146 140 146 139 144 145 150 141 146 140 144 146 143 146 145 140 141 138 140 138 139 134 127 128 94 45 39 57 53 54 61 56 51 52 66 51 50 51 49 54 49 53 44 55 50 62 54 55 57 60 69 77 64 69 78 60 60 79 55 94 151 159 169 171 176 179 174 171 178 176 176 178 173 179 171 175 177 178 174 167 165 158 154 159 161 162 167 164 166 160 149 142 150 138 146 144 143 143 146 147 142 145 145 140 147 145 145 145 142 140 138 138 137 137 140 128 123 99 41 38 50 47 57 54 54 56 57 56 51 53 53 51 50 52 48 59 50 58 58 61 69 63 66 75 67 67 69 62 58 59 68 151 160 172 170 177 182 178 178 180 184 178 178 187 179 180 171 176 175 173 169 167 171 161 152 156 160 157 167 165 169 161 158 150 142 143 143 147 144 144 146 149 140 149 145 144 145 144 143 146 140 140 145 143 141 141 143 134 124 123 103 36 34 36 51 53 58 56 53 56 52 51 56 54 52 50 54 53 51 56 61 76 79 61 68 71 62 63 63 67 50 58 136 160 167 170 178 184 185 183 185 187 182 178 183 188 183 182 172 170 176 177 170 170 174 165 161 152 160 155 162 168 167 155 157 154 143 142 139 146 143 143 145 146 137 146 147 145 146 144 141 147 138 138 143 147 143 142 146 138 133 127 131 85 26 25 43 49 60 54 56 58 54 47 52 53 52 51 51 58 52 57 75 78 92 54 58 67 65 68 61 50 52 130 158 174 169 181 183 187 192 185 188 186 185 183 183 187 180 180 174 166 169 181 173 175 182 165 165 155 157 160 166 169 162 160 158 148 149 139 139 143 142 138 144 136 139 142 141 145 150 144 144 147 143 130 139 142 148 143 150 142 134 129 136 130 62 18 29 52 52 52 54 67 47 49 54 54 58 52 51 55 52 72 72 69 66 56 53 62 75 63 52 50 120 161 167 179 178 186 189 190 193 186 191 192 188 190 184 181 184 179 172 169 170 176 171 164 167 156 161 155 153 159 163 169 163 159 161 147 147 147 142 141 141 140 138 139 140 144 142 143 141 145 147 145 146 131 147 143 144 142 149 147 139 134 131 132 125 38 26 30 59 49 45 58 48 54 57 61 47 62 44 51 53 74 67 59 63 63 70 66 67 60 33 91 162 169 171 181 186 194 191 190 195 190 191 194 190 191 188 183 183 178 175 169 175 169 168 163 165 160 157 152 149 156 160 163 160 160 165 154 146 159 141 142 142 138 138 130 143 141 142 147 140 147 147 145 143 145 146 151 147 145 147 141 146 138 129 133 141 105 12 23 45 58 42 47 45 48 54 61 44 75 49 49 64 66 59 62 73 68 78 64 61 45 47 151 174 172 173 182 192 191 193 194 195 194 190 194 191 193 193 190 182 178 176 172 167 171 163 164 162 161 158 156 156 158 165 162 165 167 164 158 147 156 146 140 139 134 140 135 143 139 141 145 144 145 149 148 142 147 143 148 147 148 144 143 144 140 138 132 139 144 49 14 37 60 35 47 47 44 47 53 49 69 60 61 64 64 61 73 76 79 69 63 58 32 105 177 176 177 176 187 193 189 196 195 194 191 192 197 195 194 196 186 188 182 174 165 166 161 165 167 167 164 159 156 149 158 155 154 153 160 153 155 146 151 137 146 136 139 131 138 142 135 137 148 146 150 144 143 143 145 144 151 145 142 146 144 149 137 142 135 141 141 123 17 28 54 38 42 54 49 42 51 42 61 63 62 55 68 74 75 84 82 71 54 52 55 152 181 181 179 179 191 192 190 198 195 194 191 195 195 196 193 194 192 181 184 178 167 169 157 159 161 158 152 152 154 148 150 150 152 150 159 154 152 149 152 138 142 140 143 137 138 141 141 140 147 147 143 148 144 143 146 150 150 140 148 144 149 154 144 143 140 141 145 141 64 12 46 41 30 51 61 52 52 51 55 57 55 68 74 72 76 91 78 65 63 50 96 181 182 184 180 190 191 189 197 195 191 198 196 198 195 200 196 193 189 183 180 177 165 162 151 154 158 151 145 152 155 155 154 152 153 149 160 160 150 155 149 145 151 138 145 146 140 144 146 148 145 151 145 150 147 144 147 148 151 145 148 148 154 143 155 146 140 145 143 147 112 17 41 59 29 41 68 79 43 51 51 50 64 65 85 48 94 95 77 61 66 47 135 190 190 184 186 192 188 193 202 195 196 198 202 200 198 195 193 192 192 183 179 174 168 165 158 156 155 148 150 157 153 157 153 150 155 146 154 158 153 153 147 153 148 145 138 142 146 146 149 151 157 151 153 150 151 151 148 147 151 149 146 154 148 151 154 148 147 145 145 151 136 44 30 53 39 33 61 81 60 44 63 53 67 58 86 46 123 110 87 57 66 51 175 193 194 185 191 191 189 199 199 201 195 199 202 197 198 195 194 191 193 189 183 186 173 173 167 168 159 154 146 157 152 153 149 152 152 148 156 162 159 160 156 158 149 145 142 143 147 144 150 153 158 154 153 156 155 158 153 151 152 146 149 152 145 156 152 153 146 143 143 151 146 77 16 45 46 35 48 73 68 45 78 60 64 67 60 63 117 126 88 53 65 82 193 193 190 191 191 191 189 198 202 201 201 201 193 197 202 196 196 196 199 194 189 189 178 172 171 174 163 152 149 159 154 148 143 150 151 148 147 159 166 165 166 159 154 152 146 148 148 153 149 156 159 151 157 163 164 165 157 156 155 153 154 151 147 154 152 151 151 145 143 152 145 106 20 39 41 49 39 65 80 55 71 78 62 71 56 61 85 112 96 68 70 107 199 193 191 194 191 195 196 195 206 203 199 199 196 203 203 198 203 205 200 197 192 195 186 183 187 183 171 168 157 164 164 147 140 140 153 150 149 151 166 178 163 163 165 150 147 152 155 150 159 166 157 159 159 168 168 166 159 162 153 152 155 148 148 154 148 155 151 146 146 151 150 125 33 33 47 48 58 53 92 57 66 78 73 76 67 46 64 54 95 94 63 129 200 196 194 196 195 198 198 200 205 203 198 196 199 204 202 202 201 204 202 198 198 197 197 192 191 189 180 176 166 171 164 157 138 134 156 160 152 146 166 175 172 167 173 152 145 155 156 156 156 166 153 159 164 166 166 158 165 165 154 152 149 153 148 153 149 149 150 152 149 151 154 128 60 32 37 46 70 54 97 55 69 73 79 70 65 46 43 24 94 101 64 142 196 199 197 196 195 199 196 203 206 200 197 199 199 202 198 203 203 205 206 203 201 201 202 198 190 189 188 181 177 177 176 163 143 127 159 171 151 145 165 178 179 160 158 150 151 149 152 150 154 158 153 153 163 161 159 156 163 156 151 147 149 154 151 149 153 151 150 156 160 147 151 134 67 37 35 54 85 77 75 62 71 63 99 58 82 33 41 31 54 110 85 140 188 202 201 198 194 196 199 202 203 201 196 197 200 202 198 205 205 208 205 207 203 199 202 198 194 188 189 184 178 181 179 163 149 124 160 175 156 154 163 188 179 152 144 151 149 142 149 148 148 149 152 151 153 151 148 148 149 144 148 140 141 141 148 153 154 154 150 156 157 146 158 129 73 36 54 52 81 113 49 59 54 57 96 66 73 38 39 46 33 107 99 141 181 197 202 200 193 200 203 199 204 197 193 194 198 203 204 204 206 205 208 208 205 194 200 200 197 187 181 186 171 177 171 157 145 126 154 175 157 174 158 184 166 137 137 147 138 134 133 133 136 137 142 143 139 144 137 137 128 126 131 126 123 120 119 144 150 151 158 146 153 151 158 134 78 44 67 34 65 77 44 42 44 36 71 61 67 40 58 67 21 90 107 132 173 192 203 198 197 204 205 202 198 196 189 194 197 200 203 200 201 204 199 204 199 188 191 189 192 182 176 178 166 167 166 158 144 131 151 152 156 173 154 169 155 120 122 145 126 124 118 105 102 101 110 109 114 111 112 111 107 104 104 110 109 109 103 121 130 137 153 152 146 156 152 128 82 53 62 56 45 37 31 39 36 45 68 53 75 37 73 78 45 83 93 127 164 192 203 196 202 204 206 198 195 191 194 191 185 195 191 190 190 189 186 192 191 178 177 174 182 168 160 166 150 150 156 161 152 127 144 147 135 154 145 149 142 114 109 133 115 113 104 87 77 74 80 83 83 81 87 88 85 89 91 98 102 97 100 112 108 122 135 158 146 155 150 127 97 46 55 60 35 26 41 38 46 50 71 48 91 55 65 77 83 82 82 127 158 182 208 198 203 204 202 197 192 196 190 179 167 181 177 172 180 173 175 171 167 158 148 141 157 158 135 162 132 135 140 151 152 126 137 144 125 146 142 138 130 123 98 119 115 107 94 81 64 60 69 56 64 64 62 62 69 73 83 88 92 91 101 106 100 115 117 149 149 149 156 129 94 63 49 53 42 35 50 47 53 39 61 59 76 73 58 67 67 79 74 115 147 179 208 200 201 205 198 195 195 194 165 144 143 154 141 146 157 147 142 126 119 117 121 118 115 146 129 133 125 134 128 139 141 131 120 136 120 122 128 134 121 127 92 95 109 112 90 79 67 55 48 51 52 51 53 67 75 80 83 88 91 85 95 90 76 88 91 131 157 139 156 136 98 68 51 47 49 50 52 57 49 60 59 62 64 76 42 57 55 54 69 121 129 182 200 202 200 200 196 200 186 162 142 129 135 129 119 108 103 89 91 79 77 97 116 121 98 118 116 116 124 128 125 116 130 114 119 128 118 111 125 125 120 123 99 78 197 181 75 63 65 64 59 67 81 82 99 115 125 138 127 131 131 141 147 142 131 116 94 83 119 149 153 142 109 64 49 51 61 51 53 73 62 76 62 63 64 48 50 50 42 55 65 109 112 171 201 202 199 194 199 182 145 155 143 134 143 153 158 162 173 159 180 157 144 181 203 189 147 96 87 88 95 97 104 112 119 109 124 115 126 110 124 117 108 110 103 109 132 120 84 67 128 87 66 96 111 128 136 145 144 142 142 135 140 147 156 163 164 143 114 126 82 96 163 141 117 75 53 48 67 59 46 66 78 54 58 56 46 39 50 72 34 69 72 97 109 149 212 197 197 200 180 154 138 136 119 109 135 169 159 151 147 135 132 96 118 124 115 112 118 108 103 89 104 106 70 79 124 122 134 129 121 125 136 123 111 108 83 94 99 100 118 97 112 99 104 120 131 141 145 142 139 129 134 129 145 145 157 164 169 169 138 133 99 63 121 153 110 80 61 55 66 62 54 62 79 58 36 53 49 37 45 101 49 78 73 79 104 127 213 195 200 200 162 126 99 114 127 146 153 165 162 154 155 157 166 97 193 194 102 106 119 124 117 95 110 118 124 58 90 153 149 155 148 142 133 145 136 87 64 99 98 99 102 100 106 117 117 107 110 103 102 102 99 96 98 110 118 134 148 149 164 174 161 136 106 64 73 145 119 82 70 61 72 61 58 63 66 63 40 38 56 33 50 101 75 75 66 84 96 125 211 194 199 200 98 102 135 156 166 189 186 184 178 171 176 171 175 136 192 193 120 121 122 123 122 118 129 129 133 126 50 171 168 169 163 139 142 158 127 146 60 91 97 87 96 97 104 103 75 65 60 59 40 48 48 41 41 56 59 76 95 118 147 157 164 143 126 42 84 120 59 126 50 74 76 64 74 54 65 58 62 63 36 40 48 105 89 72 58 68 92 134 205 196 210 108 102 164 154 193 199 201 197 192 179 176 177 163 163 147 150 136 129 135 121 120 107 109 121 139 155 101 196 211 158 141 134 103 98 97 60 107 89 55 70 70 88 84 73 66 57 42 67 89 26 79 86 19 34 30 106 39 47 54 79 105 118 125 116 52 110 63 51 229 73 65 60 75 85 67 72 70 73 74 43 41 47 97 102 78 42 53 93 137 198 216 151 96 109 148 178 203 206 206 202 181 171 153 144 129 125 116 110 99 93 108 112 112 111 98 99 112 153 102 219 165 77 86 116 56 46 55 34 85 100 49 45 74 84 62 63 64 60 65 123 120 32 78 35 27 42 42 111 60 36 34 37 62 88 84 79 65 86 38 85 233 82 56 39 71 90 87 67 65 72 77 32 82 34 78 103 75 39 48 84 136 191 228 105 138 56 156 202 205 208 201 173 128 104 80 57 103 77 60 63 72 61 70 70 86 98 92 99 104 158 140 214 107 73 76 96 81 64 67 84 64 95 59 78 107 98 78 80 76 79 94 119 115 65 87 74 56 64 77 93 81 71 56 56 66 72 84 76 63 81 51 78 216 74 28 37 66 83 101 70 62 56 88 22 113 67 77 100 67 34 41 67 114 176 225 122 107 47 167 213 203 197 141 80 56 144 68 10 152 88 52 49 103 67 60 64 77 80 96 129 143 166 180 159 85 89 105 138 137 116 109 105 52 81 104 108 135 120 100 95 95 104 97 107 107 100 114 102 96 94 107 106 114 120 122 123 118 93 110 132 93 60 98 131 103 40 23 58 68 81 108 68 70 62 73 48 65 123 94 98 68 32 54 46 154 144 229 170 50 50 180 215 185 131 69 35 97 236 180 23 86 43 70 64 121 98 65 72 77 95 109 148 165 162 197 107 29 116 188 177 159 140 141 137 48 47 131 107 119 128 118 112 106 103 103 99 98 103 113 110 112 112 118 130 142 149 146 144 145 128 137 181 156 37 113 164 63 37 31 67 85 82 97 59 62 72 79 74 52 111 99 78 66 34 93 80 239 140 69 134 94 53 164 179 123 52 41 31 94 146 106 64 91 85 90 92 95 96 88 91 99 107 130 146 158 168 189 83 26 197 203 181 162 137 145 157 93 27 118 126 113 111 109 107 104 102 97 96 90 86 95 94 102 108 115 125 131 133 147 152 149 145 143 178 176 68 99 169 87 47 32 64 79 102 90 44 50 87 101 85 67 76 84 72 76 60 80 76 234 117 17 120 73 56 188 163 91 67 85 107 110 124 107 114 127 121 114 97 95 103 96 94 98 106 126 154 158 173 156 41 76 226 199 179 158 146 142 158 144 42 66 137 139 124 124 112 108 109 107 111 109 98 100 94 94 98 103 112 112 121 139 127 143 149 150 165 181 120 70 167 112 53 36 70 74 94 90 50 55 84 92 78 83 68 73 72 71 73 58 28 173 87 74 121 81 66 215 205 117 130 140 141 145 146 137 138 138 127 119 104 92 93 94 99 106 111 148 163 158 160 127 30 144 218 191 176 162 139 138 152 155 99 17 120 155 150 144 133 122 117 107 112 118 112 111 113 113 119 125 116 101 120 115 119 138 137 142 159 170 164 45 183 131 58 47 80 80 88 87 67 62 77 85 63 88 66 73 84 72 76 51 43 80 138 175 130 40 85 221 222 183 164 192 181 176 170 154 146 130 114 101 105 98 113 113 124 125 147 177 163 167 148 94 49 195 201 182 173 160 143 137 151 149 134 55 75 143 167 154 150 145 136 126 109 101 104 94 96 96 104 114 109 110 123 127 138 136 147 145 146 170 154 48 204 147 63 44 97 88 89 94 87 48 78 75 66 72 69 88 71 87 75 58 57 60 150 199 134 48 114 230 216 195 191 158 174 164 150 136 134 136 122 126 129 131 129 142 151 172 171 181 173 160 162 51 108 211 192 186 173 156 146 137 139 149 148 118 39 122 159 159 157 150 142 144 135 136 132 118 121 117 122 125 123 128 133 134 139 139 149 163 161 183 131 80 217 165 71 34 88 100 86 82 87 59 80 72 71 62 86 92 85 101 74 66 73 71 160 187 112 70 146 222 212 186 171 157 162 159 143 148 151 152 150 142 147 141 156 170 181 181 172 183 176 158 169 17 179 206 194 188 175 159 141 137 141 147 141 148 66 77 147 158 164 155 144 138 143 145 143 136 138 137 131 134 132 132 131 137 140 139 154 159 171 209 82 119 220 171 91 42 70 72 72 78 90 65 89 81 85 62 102 89 109 99 95 88 80 84 170 203 77 109 170 223 203 179 178 173 161 152 143 150 154 153 161 150 156 167 184 184 179 174 172 182 178 165 119 67 204 199 187 181 178 167 147 133 143 142 139 149 118 50 119 159 161 153 139 137 137 141 141 138 144 138 139 142 136 138 138 139 145 142 156 155 172 197 50 158 205 174 106 42 67 57 71 94 66 61 80 93 82 69 123 100 96 107 98 103 84 79 174 220 74 118 198 217 204 197 184 194 175 168 156 154 155 153 163 159 166 181 186 182 166 162 167 181 176 177 58 136 208 190 188 180 177 171 150 133 138 144 137 142 153 84 65 149 155 148 134 136 134 136 139 138 140 140 141 143 137 134 139 139 140 152 151 159 192 151 68 192 187 177 115 51 55 53 69 103 51 61 66 85 64 86 96 103 74 104 84 101 75 76 184 205 147 83 226 212 209 208 190 191 186 182 168 165 159 165 166 167 170 176 177 168 149 157 169 179 176 154 42 193 200 195 187 182 170 171 164 138 138 142 138 146 164 121 61 100 150 145 133 133 133 140 141 143 138 145 146 142 141 134 133 132 138 152 159 176 221 64 147 193 186 180 121 41 53 50 57 100 55 57 78 71 56 67 104 91 73 90 103 88 73 67 183 196 202 30 224 209 208 206 194 199 190 193 172 165 174 169 177 158 163 150 163 152 151 162 170 173 190 69 82 199 193 198 202 180 173 172 179 152 133 137 142 146 176 161 98 74 124 138 128 127 130 139 140 139 138 145 144 135 134 129 126 129 126 151 152 178 152 103 197 184 187 189 130 41 45 70 73 70 56 53 75 59 61 60 96 103 77 86 90 86 59 70 177 196 221 111 145 220 208 204 200 205 192 189 176 164 177 171 161 160 160 145 149 145 155 157 163 190 123 73 120 197 191 208 209 190 168 181 189 156 138 134 138 165 197 193 140 97 94 103 122 134 139 135 140 137 138 141 136 132 128 125 130 128 130 129 107 105 119 176 188 183 187 185 150 33 51 70 64 74 54 44 64 58 65 70 64 100 79 82 73 86 63 75 170 202 205 209 61 202 212 207 210 204 199 188 174 173 176 167 165 152 157 149 145 142 156 148 171 171 61 117 168 193 198 208 218 197 171 178 165 141 129 137 134 160 178 194 171 140 123 86 84 111 128 134 136 141 133 136 129 132 117 114 112 96 86 104 108 134 156 171 184 180 173 185 152 44 41 69 60 71 56 41 44 56 62 64 69 87 60 86 83 83 67 71 160 205 204 222 121 90 217 214 210 208 201 191 181 178 168 165 165 153 159 143 143 141 147 160 152 82 124 173 187 200 206 206 208 194 181 162 145 133 128 131 135 137 148 169 189 162 154 148 68 81 89 95 86 89 82 77 72 71 75 71 79 87 99 123 122 146 177 175 176 176 170 164 155 67 48 63 69 52 58 47 33 54 63 57 61 110 75 92 113 83 81 61 149 206 209 202 207 128 97 225 209 205 199 190 181 174 171 163 163 154 159 154 157 153 138 112 91 123 192 199 197 205 206 186 180 176 175 162 132 129 128 133 147 142 140 140 160 179 177 173 134 55 76 85 81 81 75 73 70 85 96 101 114 120 129 143 147 165 182 195 180 171 163 149 146 78 59 54 64 68 50 42 70 56 64 69 65 106 130 126 117 78 88 60 143 206 210 204 198 198 173 118 110 113 135 140 148 146 146 140 143 134 130 113 111 97 96 110 106 181 211 208 206 204 193 167 166 162 168 158 140 116 124 130 150 144 118 113 121 147 174 187 179 69 67 88 83 97 103 115 123 129 130 128 133 136 135 149 168 162 189 202 187 158 154 142 143 85 67 51 69 64 54 45 94 63 60 70 67 91 127 136 97 68 84 66 124 204 207 207 205 205 207 209 201 176 150 130 123 118 117 111 112 108 108 106 106 105 99 93 119 219 212 204 203 188 161 155 146 165 174 162 134 116 113 123 151 143 44 38 61 101 128 154 175 91 99 113 122 125 131 128 132 128 124 117 124 133 136 138 160 162 192 193 169 145 145 142 132 84 69 54 52 55 48 48 98 59 71 65 61 77 131 119 91 92 79 68 102 205 208 206 202 205 208 215 207 199 186 159 147 146 134 132 117 105 104 95 99 88 97 89 147 222 208 189 164 141 100 75 77 142 177 169 137 108 99 115 155 75 6 20 25 45 85 127 154 61 110 122 122 128 126 124 121 116 110 98 107 112 132 129 146 155 174 173 157 146 130 138 135 90 65 50 53 50 48 53 104 74 62 73 75 44 137 101 95 89 74 72 90 201 206 202 198 205 206 212 205 204 196 169 166 164 143 139 128 116 102 101 96 103 118 131 159 209 189 149 94 45 34 19 76 173 170 176 129 91 88 120 137 63 49 43 44 42 65 115 118 55 115 131 128 121 129 121 119 111 116 100 88 88 103 121 128 152 150 144 145 149 135 128 128 79 75 53 43 49 50 43 95 101 78 77 91 46 96 106 118 85 87 69 101 194 197 194 197 203 204 204 207 210 198 179 173 168 155 142 139 125 124 127 124 147 161 173 160 176 164 109 47 45 92 116 144 172 170 180 123 75 94 119 95 107 101 99 96 86 93 95 80 84 124 134 134 133 133 125 121 117 122 122 121 111 68 91 120 127 126 132 129 132 137 119 113 87 64 72 41 48 50 47 106 88 67 85 70 64 75 131 105 84 83 77 97 191 198 197 196 196 197 197 204 210 203 183 165 162 149 130 120 129 127 130 157 172 184 180 177 151 148 117 78 116 157 151 146 135 121 137 130 92 102 65 66 74 70 99 107 87 79 88 93 114 133 130 138 131 130 127 123 114 118 122 127 133 128 75 94 115 128 124 119 128 126 115 101 83 58 63 51 58 49 53 108 65 70 95 84 75 64 137 96 94 57 88 81 192 198 196 190 187 188 195 200 208 197 180 146 143 111 126 135 132 130 144 169 180 187 173 183 163 152 143 134 146 151 125 120 115 106 93 78 60 60 54 62 73 60 71 92 75 91 112 102 127 130 128 128 120 117 120 115 109 114 103 117 125 140 158 70 101 134 103 115 119 119 115 89 71 56 54 59 54 50 54 80 62 81 86 78 83 49 111 99 87 67 93 67 176 195 183 182 170 190 194 197 201 193 148 109 109 145 157 128 127 141 151 159 179 177 171 170 168 170 170 146 135 142 106 126 113 101 75 52 46 46 94 81 74 93 51 94 82 93 130 109 113 121 134 116 118 111 99 103 100 103 91 95 104 119 167 123 80 149 67 114 110 105 115 83 59 51 56 57 51 39 49 69 72 72 92 94 81 63 82 104 74 86 90 80 159 178 175 159 168 198 180 192 182 146 85 149 168 148 135 120 144 148 148 148 171 162 150 168 154 169 138 127 115 138 98 131 110 93 72 55 52 47 78 130 70 101 70 90 85 70 127 94 97 98 113 115 104 99 104 91 89 95 86 87 89 108 140 151 84 136 56 113 101 106 96 75 70 46 61 42 47 41 43 80 70 82 98 75 74 72 83 89 61 71 101 93 158 187 158 175 172 181 185 187 158 80 179 178 150 115 123 137 150 138 136 138 142 138 144 148 137 130 119 118 98 110 125 114 67 97 70 83 55 74 58 126 84 89 109 96 92 63 115 86 106 78 88 106 102 101 90 85 70 88 84 74 88 96 112 137 99 107 55 119 96 101 63 52 79 53 54 53 36 41 47 71 72 78 72 69 71 83 68 83 62 82 92 96 146 182 146 160 162 182 171 174 98 137 192 127 103 119 142 134 128 112 139 108 124 145 120 135 116 125 108 122 88 112 129 105 67 89 53 93 78 82 73 92 82 69 105 84 87 63 102 55 98 93 67 89 108 84 90 87 79 76 87 77 88 79 98 118 104 79 68 91 90 92 54 57 65 60 52 53 37 55 62 63 60 70 57 66 85 86 68 69 69 87 85 88 146 153 139 136 147 175 160 146 89 185 150 99 116 132 129 100 102 107 125 107 135 113 120 123 120 107 77 149 82 114 101 113 71 75 47 89 78 94 76 74 77 57 81 71 76 73 100 56 74 89 71 76 90 89 73 82 81 55 90 63 85 74 74 109 93 60 67 76 80 67 45 48 58 65 57 40 34 48 56 67 55 65 60 67 81 72 64 64 87 78 75 98 139 131 128 120 147 156 151 138 103 177 136 115 110 120 95 74 110 108 100 132 136 96 114 124 117 91 84 120 96 102 76 105 71 64 65 98 78 78 84 66 65 64 76 60 76 62 101 64 62 107 58 94 49 83 76 75 76 45 76 67 89 60 70 82 68 60 59 63 64 50 51 49 47 62 53 42 49 44 38 83 56 62 60 92 68 64 65 51 84 51 71 116 129 120 116 110 132 159 153 139 104 161 125 86 109 98 66 95 117 91 111 129 118 109 101 134 105 107 96 89 98 87 90 77 73 65 58 83 81 60 75 60 42 51 85 62 45 75 109 55 62 97 86 64 75 51 74 65 63 36 55 64 80 52 89 73 60 45 54 55 53 50 45 57 49 67 46 31 59 46 42 85 62 62 88 85 79 46 76 64 74 52 97 107 94 102 105 111 134 150 142 159 107 134 97 90 89 86 64 89 100 77 115 128 114 105 75 137 91 142 87 89 91 71 92 56 64 72 52 91 85 64 67 57 41 61 65 67 35 69 85 56 80 76 74 56 60 55 73 61 44 28 60 59 63 48 75 101 63 33 61 40 65 60 49 48 57 57 46 34 47 51 39 65 61 68 85 80 74 65 56 73 68 70 104 90 104 81 119 107 113 145 125 149 95 99 111 84 75 79 63 83 85 64 100 125 103 89 81 129 97 130 85 91 89 70 75 57 61 59 84 94 91 82 78 77 77 72 67 58 61 74 72 74 81 58 85 44 56 50 53 57 38 37 52 46 59 45 57 102 86 32 75 32 58 44 55 31 60 56 45 36 43 65 48 74 56 70 71 85 73 79 57 78 76 94 92 88 105 83 100 117 109 136 116 126 90 112 98 87 71 78 63 90 65 70 93 102 89 85 69 116 88 125 104 129 98 98 96 105 109 111 125 112 132 123 112 118 106 93 95 83 92 98 100 98 84 74 86 54 55 56 47 43 46 45 48 48 73 50 59 88 86 72 69 41 42 50 57 39 46 64 41 32 44 71 44 67 69 66 66 82 94 71 67 63 89 85 98 83 85 86 86 114 88 115 114 100 90 109 87 101 66 65 72 63 51 89 81 89 89 94 101 112 109 144 139 160 153 133 131 135 137 143 147 149 154 138 112 119 101 101 105 108 111 129 123 126 127 100 109 84 50 67 67 55 49 60 51 49 79 62 76 71 78 79 73 47 49 57 61 48 44 51 61 44 47 58 40 62 74 64 77 71 79 62 69 64 71 85 104 82 88 77 67 114 90 90 101 92 121 82 110 74 75 65 52 55 64 75 86 87 86 113 172 171 168 187 180 186 178 165 145 135 145 146 150 163 153 126 118 123 116 112 115 126 131 146 140 152 134 110 112 102 65 62 68 70 61 68 83 57 66 66 98 55 68 81 37 42 43 55 57 54 48 48 59 79 49 44 52 70 58 74 67 59 68 76 66 85 73 82 95 78 79 84 83 94 79 88 91 89 116 73 99 63 83 63 57 55 76 82 93 105 98 132 176 182 195 190 194 204 202 181 171 171 171 170 166 162 144 135 131 128 135 130 125 130 144 141 148 136 129 111 113 107 83 69 73 71 77 60 73 88 53 72 76 65 59 71 53 41 46 46 50 52 46 52 48 69 47 45 55 59 66 89 64 52 69 85 72 90 68 75 80 82 72 70 82 81 86 82 94 75 90 104 77 74 81 60 66 54 75 81 98 93 106 127 157 168 200 166 189 189 195 180 167 162 160 160 153 144 131 128 120 128 131 130 116 123 130 135 124 117 118 118 106 106 96 83 88 69 82 92 53 87 70 63 59 54 60 61 69 36 53 46 53 47 54 51 49 48 49 45 49 64 79 84 68 62 58 78 56 97 67 65 79 60 65 56 92 73 74 82 93 61 79 91 79 72 66 51 75 39 86 72 87 99 102 116 145 152 163 131 181 162 137 142 146 135 132 147 125 117 116 119 106 106 114 117 115 92 131 112 128 110 103 107 109 88 109 79 66 79 88 85 57 74 76 56 53 55 53 60 61 42 45 46 48 46 50 44 50 55 51 49 41 64 68 67 68 62 47 77 57 89 73 73 87 63 45 69 80 67 75 79 82 73 71 78 79 68 62 63 79 32 84 81 84 70 106 113 116 137 131 120 149 126 128 118 112 115 122 109 106 113 95 105 98 99 109 98 109 101 101 112 117 99 105 95 99 94 102 96 57 64 85 79 65 48 80 66 44 59 45 57 56 45 45 53 38 56 40 52 44 71 66 45 51 69 62 71 64 55 55 63 61 66 81 63 67 73 71 68 82 60 80 84 70 59 74 77 63 60 64 91 52 89 78 73 77 73 79 99 105 126 128 89 126 99 118 117 98 88 114 108 89 112 101 87 90 92 96 98 95 102 83 108 98 84 112 80 87 85 94 87 69 49 59 70 58 65 42 77 48 48 45 43 60 48 43 40 43 76 47 58 50 49 61 56 49 70 67 63 61 57 65 53 64 65 75 72 63 98 84 66 77 73 78 76 73 56 74 74 56 69 58 102 33 81 77 71 56 76 70 89 97 108 96 85 106 89 97 93 92 72 90 97 83 97 100 67 79 76 84 94 92 82 75 104 78 80 95 88 68 78 89 61 82 56 46 70 67 60 53 63 57 41 61 31 54 51 50 28 40 65 48 68 43 69 56 57 55 88 61 64 78 54 73 67 93 51 54 67 69 73 72 70 58 77 72 63 68 78 67 83 60 71 55 99 44 72 49 76 58 66 64 69 80 79 74 82 88 82 69 87 74 74 88 81 75 89 93 85 76 79 67 87 82 68 69 90 67 75 79 75 69 65 89 57 65 56 56 58 74 56 54 41 63 52 49 46 56 54 42 41 47 57 82 56 45 61 63 46 50 74 66 62 75 57 65 85 100 46 59 68 66 54 71 84 63 56 59 67 83 82 64 95 39 96 26 106 84 42 52 92 53 66 56 61 70 64 70 67 59 81 74 84 60 64 65 61 58 67 84 71 78 67 64 69 68 48 60 82 70 59 81 72 49 57 80 51 67 49 47 69 61 46 52 50 47 54 50 51 63 49 34 50 55 65 60 41 44 52 72 31 55 71 68 67 72 48 79 76 85 64 66 52 67 40 68 94 83 48 51 79 89 76 75 102 42 101 26 114 75 49 56 84 70 48 69 56 43 48 68 38 63 73 67 60 74 61 51 72 68 46 51 64 82 48 57 58 57 52 51 62 52 69 78 51 56 49 51 63 39 46 48 44 67 50 59 41 51 40 30 53 47 68 32 36 52 60 60 43 37 50 62 46 63 69 59 81 61 60 73 62 70 80 87 54 69 65 47 79 99 48 65 86 93 70 79 92 80 94 42 120 81 29 85 67 57 69 50 47 41 39 38 45 73 69 80 82 82 81 67 56 57 67 54 57 72 57 53 56 39 50 50 50 52 66 43 60 60 51 45 60 38 48 51 27 65 39 80 45 55 38 42 41 49 66 73 36 35 57 71 47 38 48 67 63 51 68 62 72 61 66 62 56 73 66 67 70 70 62 60 75 83 59 60 91 99 45 83 77 70 128 15 136 118 30 87 66 55 91 60 48 45 47 44 50 71 68 55 66 60 66 47 55 59 58 63 38 74 59 70 37 35 33 66 56 46 47 48 64 50 47 72 54 20 67 38 37 54 54 47 58 68 51 49 38 57 61 87 47 37 49 62 66 46 43 65 51 47 66 66 60 64 62 51 63 61 58 49 64 72 43 85 74 68 49 69 81 84 45 72 88 38 102 44 117 80 71 92 51 77 118 75 59 38 56 59 38 64 58 50 65 61 64 53 50 78 48 55 52 70 75 58 56 33 44 70 57 52 65 49 53 39 59 72 44 28 71 59 38 64 82 38 35 83 59 51 41 51 49 64 69 36 51 47 56 42 44 67 53 48 71 72 54 57 64 52 60 63 57 44 71 79 48 78 67 70 46 69 89 81 63 54 91 56 79 63 100 87 39 102 48 39 167 72 68 78 56 33 48 58 55 46 74 70 75 54 53 70 61 63 60 70 71 60 54 47 62 51 60 69 54 64 48 57 59 57 41 34 74 65 29 66 94 38 26 81 64 43 63 38 55 56 69 52 41 47 50 48 49 56 47 48 77 53 60 62 52 46 50 61 50 43 63 59 60 70 61 62 69 52 84 81 65 60 76 88 70 101 78 80 51 86 40 44 159 91 90 48 47 43 58 37 61 56 95 76 79 62 63 66 63 60 75 58 77 54 39 39 88 43 64 39 63 72 40 56 53 43 30 48 51 42 55 75 65 43 50 50 73 46 65 50 42 68 68 65 46 46 44 55 58 41 34 52 64 67 64 57 52 43 41 49 62 70 34 74 72 60 73 70 59 50 57 95 75 75 63 95 57 113 59 98 57 89 33 75 137 143 75 56 52 35 64 31 89 77 64 73 105 69 76 59 54 67 86 57 68 98 46 46 90 66 44 41 70 54 50 75 47 47 31 57 43 46 40 82 68 41 66 47 54 39 71 58 52 46 74 79 40 41 32 51 50 34 34 47 68 59 74 60 60 49 51 41 59 83 48 55 57 60 73 68 59 54 90 62 94 58 78 78 58 98 48 105 60 85 43 84 80 157 98 60 68 31 66 53 97 69 57 77 97 57 51 96 62 75 69 49 62 77 60 44 91 61 34 54 56 47 68 83 45 61 35 54 43 37 47 55 81 69 60 54 52 40 60 71 65 34 73 60 32 49 38 52 56 31 39 38 70 75 62 62 68 61 67 54 55 70 59 39 46 65 71 68 44 75 107 50 104 66 100 55 64 89 48 94 52 68 59 76 60 130 103 61 81 41 67 75 89 50 69 84 80 52 58 102 64 80 43 65 62 69 59 60 61 49 40 69 40 47 62 80 53 69 40 66 31 39 45 52 74 93 69 35 59 48 66 62 62 46 57 64 27 41 49 50 46 45 43 42 61 80 63 66 57 60 82 56 56 53 58 44 66 69 75 63 56 94 110 73 80 81 77 58 79 59 58 87 63 53 73 61 61 112 104 86 88 52 61 85 88 68 67 96 73 65 77 96 68 57 32 63 50 59 66 53 39 59 48 54 36 53 58 81 61 50 56 67 47 47 46 47 82 87 96 49 42 48 77 47 66 54 52 61 32 48 55 52 39 45 43 40 73 74 57 68 65 63 65 50 47 73 46 52 73 94 64 78 49 117 96 69 66 66 58 75 90 46 65 78 42 59 72 67 45 105 96 79 90 81 34 84 98 70 65 87 70 58 59 55 81 34 54 62 25 62 60 50 45 45 53 46 51 37 66 65 84 58 51 49 58 22 67 55 100 52 120 50 57 63 63 45 71 44 66 55 27 37 74 52 55 43 42 41 77 71 66 67 76 52 79 45 60 69 59 66 75 90 61 89 83 105 94 67 78 56 62 57 90 51 79 55 49 71 77 74 39 81 86 85 81 74 46 80 109 68 51 70 81 43 46 60 87 41 65 58 31 75 48 59 58 34 43 43 65 22 59 61 84 60 63 38 58 36 39 89 72 43 124 43 41 104 49 31 76 23 83 47 21 40 54 49 53 42 42 55 68 71 71 79 75 62 71 63 51 66 66 82 88 84 68 101 71 79 76 70 97 46 66 36 89 59 68 71 54 93 71 85 62 54 87 84 65 48 81 82 114 80 26 72 97 39 50 75 70 43 62 36 47 77 44 59 43 41 35 40 80 24 45 78 72 60 59 48 53 59 26 83 72 43 88 59 38 85 80 26 75 18 71 38 33 41 41 43 54 56 46 56 62 71 63 73 73 71 62 63 60 61 81 105 79 67 74 81 61 71 76 91 66 62 63 35 63 83 71 69 81 105 59 71 77 60 91 82 33 73 83 84 126 64 14 80 104 47 48 87 62 66 43 54 41 78 50 51 46 47 36 40 62 48 42 69 65 64 54 53 53 69 37 60 89 36 76 83 35 59 61 53 67 40 57 39 27 34 40 45 41 48 46 45 72 67 67 75 62 64 72 71 80 64 74 115 54 61 90 62 65 68 91 65 51 73 49 44 64 85 62 66 87 71 81 46 91 61 66 64 42 127 72 96 105 70 22 98 96 52 62 76 62 57 56 43 61 54 54 51 63 38 49 51 41 52 70 58 64 53 43 85 54 64 39 50 79 35 50 103 37 60 46 38 78 57 53 35 28 28 38 48 35 45 35 47 73 70 67 69 64 56 86 67 56 65 67 106 35 82 57 62 70 60 111 31 71 52 63 59 94 89 39 118 70 83 80 36 80 71 45 50 87 138 127 77 62 93 33 98 96 66 71 57 47 68 59 22 78 61 45 70 62 37 53 47 47 37 69 70 50 64 35 95 87 44 39 52 69 57 41 84 55 62 45 38 67 78 50 35 31 31 43 45 47 38 36 44 76 69 67 68 62 60 75 73 85 57 73 117 59 91 48 63 52 69 87 45 65 50 72 73 96 46 99 116 77 76 52 57 68 55 65 69 144 125 106 58 61 65 81 87 77 65 61 48 59 72 45 50 58 61 48 76 42 56 41 60 59 39 41 54 55 64 37 83 93 32 41 42 45 71 48 90 49 44 46 44 68 68 49 23 40 30 52 45 57 52 36 52 69 68 64 76 67 65 59 76 76 56 88 79 52 75 51 73 61 67 79 66 53 45 67 114 62 90 144 73 119 41 56 56 73 85 77 112 129 69 69 40 68 66 93 71 59 64 55 47 72 50 78 47 51 36 61 55 48 59 30 74 43 39 39 53 67 58 24 106 67 33 47 22 37 67 59 80 51 28 47 39 84 47 36 28 25 32 46 33 54 68 35 47 67 70 66 69 78 66 70 62 63 59 120 73 54 63 63 86 76 60 64 80 63 64 50 126 72 107 103 80 102 57 75 55 74 75 42 116 71 51 62 55 55 87 73 54 51 45 57 56 72 70 62 42 35 53 69 63 40 40 47 48 47 36 40 64 63 59 39 116 54 32 43 24 31 69 88 64 51 39 43 53 80 49 38 29 20 30 40 42 41 73 66 59 69 67 69 72 92 76 80 68 57 85 134 59 58 68 91 75 86 82 74 59 73 102 61 93 87 99 72 94 86 60 87 56 74 79 68 110 55 31 104 55 36 72 45 51 56 46 61 76 71 42 60 61 33 73 57 49 24 47 51 47 46 43 38 70 58 47 70 73 68 32 35 39 45 35 91 43 60 45 54 59 43 30 49 50 24 33 30 46 42 50 72 41 77 69 64 65 75 65 78 78 66 107 100 61 54 74 94 79 76 79 65 56 64 90 81 83 99 76 76 83 82 58 90 62 76 83 126 71 50 67 96 49 29 73 21 68 65 71 81 93 46 48 60 40 55 69 31 24 31 50 47 40 53 62 47 63 49 53 53 56 39 40 56 47 47 35 76 48 43 44 32 60 60 22 30 46 32 35 31 42 28 58 56 41 71 67 72 66 70 61 71 70 72 91 86 67 66 63 87 83 64 80 42 60 59 68 94 100 66 52 101 39 97 50 103 69 78 109 96 66 69 73 60 57 31 80 48 48 91 87 70 72 45 54 58 56 78 54 24 31 32 62 44 46 44 61 59 59 56 41 90 43 30 33 80 59 38 50 71 64 22 47 32 54 56 38 31 32 35 37 37 30 38 46 59 45 68 71 65 65 71 70 68 67 84 70 72 76 81 56 83 70 64 81 53 57 59 50 76 89 68 64 96 34 108 41 90 93 131 97 90 69 49 62 48 51 55 104 45 71 87 62 55 46 50 63 71 74 66 50 24 21 45 56 56 41 44 47 56 73 38 50 111 24 30 31 78 49 47 40 65 81 28 49 37 48 40 38 48 33 40 54 41 37 39 49 49 67 64 71 62 64 66 77 61 65 77 69 60 89 75 60 76 89 39 74 78 50 54 41 77 59 88 83 101 60 79 66 55 132 123 77 57 46 54 43 44 59 68 61 71 98 53 44 47 42 56 78 67 67 62 52 18 37 53 30 78 35 39 47 81 52 48 38 114 34 16 38 49 44 50 57 43 109 32 25 33 40 43 24 44 53 35 53 52 41 47 48 46 72 