P2
92
112
255
47 50 52 50 52 47 54 51 55 52 45 53 47 48 61 62 53 59 60 57 54 74 64 62 58 65 61 52 60 49 42 44 43 43 48 61 66 83 92 96 99 98 103 102 100 97 104 101 102 100 89 98 94 94 79 74 66 51 55 40 59 56 43 46 57 62 47 48 50 50 50 52 48 51 47 49 46 53 42 54 47 47 49 46 47 49 43 52 45 48 45 48 49 52 51 48 48 44 53 50 55 52 52 49 44 69 66 55 48 62 61 65 54 67 65 73 57 65 54 53 62 48 44 57 51 58 88 106 102 115 113 109 118 112 113 115 111 113 112 112 111 112 109 109 109 106 97 102 99 88 82 54 58 54 45 49 56 66 48 51 46 51 48 48 51 49 47 52 47 52 46 50 50 48 51 46 48 51 43 47 49 45 46 42 51 50 48 51 49 48 50 52 52 56 53 51 59 92 55 57 59 68 59 63 53 57 75 66 56 59 58 58 60 44 57 73 88 105 121 123 124 122 123 121 126 121 124 118 121 116 119 115 115 120 115 117 114 111 112 107 110 107 105 96 84 75 51 42 58 63 56 53 54 51 44 55 46 54 46 56 47 50 49 46 56 47 53 47 49 51 47 48 46 44 46 47 54 49 53 50 47 55 50 46 53 53 50 64 72 66 62 55 68 80 65 59 54 57 63 62 63 66 57 54 47 71 101 115 116 126 126 127 127 132 129 133 133 127 129 124 121 125 119 119 117 120 118 119 118 116 119 111 115 120 113 113 108 102 95 62 61 50 58 64 55 55 56 47 52 50 52 50 50 48 51 50 54 47 50 44 55 45 54 45 47 46 48 54 53 46 57 51 56 49 51 56 50 55 59 62 63 66 60 65 65 75 68 52 60 68 71 66 58 57 47 65 91 121 127 135 129 133 130 133 140 134 131 144 141 133 134 132 133 128 126 128 117 122 119 120 123 124 119 117 122 121 119 117 115 116 112 103 102 75 55 49 58 58 61 47 49 58 47 54 48 51 52 46 50 51 49 45 53 51 49 47 47 49 43 55 54 54 53 52 63 52 68 52 56 58 62 70 54 61 54 64 63 62 60 54 69 68 60 55 56 50 84 119 131 136 137 137 139 139 138 138 141 136 141 141 140 140 139 137 141 133 129 132 124 121 127 125 124 131 122 127 120 126 120 120 118 121 115 120 108 106 95 76 51 52 58 50 52 57 54 50 51 51 44 56 51 46 55 49 48 48 52 48 47 49 44 50 57 49 56 51 62 47 63 49 65 58 57 61 63 56 67 66 57 63 61 66 71 63 51 54 58 98 125 136 141 143 142 143 140 138 140 139 137 137 144 139 143 140 141 142 141 141 139 129 134 124 135 127 124 131 132 132 121 129 124 126 121 125 123 120 118 121 108 108 91 62 46 54 52 56 54 56 51 50 48 52 52 50 54 50 48 52 48 50 44 54 46 44 53 50 53 54 55 54 56 53 59 54 57 59 57 60 76 56 65 70 62 76 53 64 50 77 117 135 139 147 141 138 145 145 141 145 140 135 137 138 141 143 142 141 147 140 145 147 139 137 134 136 132 130 127 134 137 129 131 128 132 130 126 127 130 124 128 123 125 113 110 112 71 49 50 58 57 59 53 48 49 54 52 52 49 50 48 54 48 50 50 48 50 46 51 55 50 59 50 54 51 61 53 52 60 55 62 64 64 70 76 62 66 66 54 52 95 127 140 140 147 146 142 144 155 148 147 149 145 136 143 139 143 143 139 145 146 144 149 151 144 142 138 138 133 130 134 141 136 131 131 132 132 133 134 129 136 128 132 130 128 125 122 119 113 82 50 53 57 59 50 58 47 52 50 57 49 49 54 51 54 51 54 52 46 49 47 63 52 55 53 64 68 67 53 58 62 57 61 67 70 69 68 70 71 60 55 104 134 136 150 148 152 156 150 150 161 165 159 159 145 143 151 143 144 143 143 147 149 150 148 153 150 150 143 141 137 140 141 138 140 136 136 134 133 133 135 136 133 134 135 133 128 134 125 127 122 115 98 55 51 57 52 55 55 50 57 51 50 50 51 50 53 52 54 44 55 39 53 58 52 56 46 64 58 64 59 54 67 60 78 75 59 67 65 85 67 55 99 139 143 149 156 161 157 161 164 163 167 169 169 161 152 149 158 146 149 145 140 144 149 146 152 151 152 149 143 139 143 135 147 140 139 139 141 137 142 132 135 136 138 138 138 133 134 133 137 131 129 126 119 104 52 47 58 51 56 53 51 51 55 54 47 54 52 55 49 48 46 51 59 56 57 51 55 62 53 65 59 64 74 62 77 67 63 64 66 75 56 102 138 151 153 162 164 164 169 167 164 171 165 170 170 169 154 157 160 155 154 152 143 148 154 146 152 156 159 151 140 137 140 136 146 140 142 140 142 144 139 139 137 137 141 144 137 138 140 138 137 136 132 128 124 121 102 49 43 54 50 59 60 51 55 56 49 54 53 56 44 54 52 50 54 54 57 55 58 53 49 58 76 82 62 74 83 63 62 61 72 60 97 143 149 166 165 168 164 169 171 174 169 171 171 158 171 166 164 165 170 159 159 152 149 148 160 157 150 160 160 161 143 144 138 140 145 143 139 143 145 145 143 145 139 141 145 144 142 142 142 137 135 136 134 131 130 126 122 104 45 50 49 59 56 58 53 50 50 56 48 52 48 53 51 51 51 56 52 56 54 55 63 63 69 71 63 68 64 62 62 67 64 88 147 158 163 168 166 176 170 169 171 176 171 171 172 168 171 168 176 171 176 169 166 158 154 153 160 159 162 164 167 163 158 145 137 146 140 140 143 143 139 145 146 144 143 139 140 145 141 142 144 141 142 137 139 134 136 135 128 122 116 53 40 49 67 49 53 61 55 52 54 53 52 50 50 49 54 54 54 56 56 66 65 65 63 73 61 68 66 58 65 47 82 141 156 167 165 172 176 173 176 176 179 178 173 180 177 177 170 168 174 171 175 164 165 166 155 150 159 153 161 165 158 165 163 150 147 145 145 140 148 141 143 142 145 142 146 144 142 139 144 141 145 141 144 138 140 138 138 136 137 132 119 110 50 34 50 49 52 58 54 52 53 54 54 48 54 49 53 51 60 52 69 82 67 63 66 67 62 62 65 62 50 63 134 156 166 168 170 181 181 177 180 185 180 176 178 184 184 176 174 170 169 174 173 169 169 169 162 152 156 155 155 161 166 167 156 153 153 144 139 143 149 142 145 143 142 144 144 148 142 141 142 144 143 144 139 141 143 141 140 141 142 139 127 123 110 51 28 41 44 56 50 57 52 58 57 46 52 54 54 57 56 62 72 89 62 59 61 61 71 62 60 41 62 130 157 168 164 173 181 187 184 182 183 185 180 179 178 185 179 176 172 167 162 173 177 167 174 172 165 159 151 159 159 156 169 166 154 155 153 145 140 140 142 145 140 144 138 138 140 142 145 146 144 146 141 143 142 136 136 145 144 137 144 147 127 128 129 108 31 30 32 46 55 60 55 58 54 51 52 56 49 58 62 73 66 65 59 50 60 67 74 57 53 53 128 161 169 173 171 183 185 190 188 184 187 191 185 188 184 179 179 175 176 162 169 170 176 171 167 169 160 161 150 156 155 163 169 163 159 159 144 147 140 143 141 138 142 137 142 138 139 144 138 144 147 142 144 144 141 129 137 141 147 144 150 143 143 127 131 131 93 14 28 37 53 58 63 51 61 48 55 50 49 52 68 66 58 63 59 61 64 68 66 53 26 120 158 164 171 177 185 190 186 189 193 187 188 192 191 187 186 181 178 177 178 171 167 172 169 169 163 160 158 156 153 150 151 161 163 159 158 162 150 145 152 140 143 141 139 138 138 136 143 142 142 140 141 145 145 145 144 136 146 143 145 140 155 145 145 135 133 130 134 62 16 26 54 53 49 50 65 47 48 49 45 57 65 62 55 72 67 68 69 63 56 31 73 161 169 168 173 178 191 188 188 190 194 190 190 194 186 188 189 187 177 178 174 172 166 167 167 165 163 158 160 158 149 156 155 162 160 160 162 164 159 144 160 145 141 140 137 140 136 133 143 140 140 144 142 143 147 145 142 145 144 153 151 144 149 140 152 142 135 134 132 127 28 19 39 54 49 46 47 47 52 57 62 59 58 59 67 73 76 67 58 61 49 45 136 177 171 172 172 187 187 190 190 194 192 189 189 195 188 190 194 186 183 183 173 169 163 161 163 166 168 163 167 160 156 158 162 161 158 158 160 158 156 145 150 147 143 135 136 136 135 139 142 137 140 147 143 148 143 150 140 148 146 147 151 145 149 142 149 141 144 133 135 143 88 9 27 54 49 39 46 40 50 56 61 54 65 66 78 74 82 69 62 56 42 83 175 174 177 170 181 191 189 188 198 192 193 188 193 193 195 190 194 188 181 182 177 168 168 161 156 164 166 160 155 152 153 148 150 153 150 151 154 151 153 150 150 143 141 142 137 135 132 137 141 135 141 144 144 150 145 143 141 145 144 152 146 148 143 150 150 144 142 144 137 144 133 41 18 50 42 42 44 49 42 45 54 65 69 72 71 86 74 75 50 60 56 134 186 180 178 178 195 186 191 193 192 191 194 195 195 194 198 195 189 188 183 181 177 168 163 149 151 155 156 150 150 150 157 152 155 150 151 150 156 155 152 150 151 146 142 141 139 141 139 138 144 142 145 147 144 142 147 148 138 146 146 153 143 146 145 149 151 151 143 144 147 136 149 103 7 33 47 37 33 62 50 49 60 62 80 61 70 98 72 64 60 59 66 171 186 186 179 186 193 185 199 196 191 193 198 197 202 193 192 194 191 187 182 179 169 166 162 155 149 152 150 145 148 150 162 156 157 151 148 149 156 157 154 150 148 146 149 143 141 141 147 139 147 146 146 149 147 148 147 149 144 147 150 152 148 146 150 151 154 153 152 143 148 146 147 138 35 17 57 33 34 51 72 57 62 60 73 53 101 113 81 57 68 50 107 190 188 185 186 191 187 189 202 198 197 194 200 197 197 193 193 193 188 188 186 182 178 174 167 163 159 158 152 148 146 154 158 158 154 152 152 145 155 159 154 156 148 148 153 143 141 140 145 145 147 152 152 155 150 150 150 150 153 146 146 151 146 151 151 151 153 154 157 147 151 148 154 145 80 15 60 42 37 38 76 83 68 66 60 62 96 138 92 52 65 55 148 194 190 186 193 190 184 193 197 201 198 200 199 191 198 200 194 193 192 196 190 191 184 179 169 168 168 159 153 145 147 158 150 155 149 151 155 145 152 162 162 160 155 154 151 147 144 141 144 150 142 153 155 156 149 153 152 156 157 154 150 153 149 147 154 146 157 159 154 154 153 150 149 153 107 19 41 51 38 38 63 78 68 66 63 50 87 112 96 63 68 73 176 198 186 193 189 194 194 195 195 206 198 197 198 191 206 199 195 199 200 199 195 191 188 187 179 176 181 168 163 148 155 161 155 148 145 150 156 149 144 159 170 171 162 156 156 154 146 148 149 152 149 156 159 152 152 161 164 162 163 157 156 155 151 156 152 151 155 156 154 158 148 150 150 150 129 40 24 47 44 42 46 78 68 75 67 43 65 63 87 82 75 86 191 196 190 196 192 199 195 198 199 204 199 198 195 197 205 200 197 200 199 201 195 195 194 191 189 182 187 181 167 166 158 167 160 151 144 143 161 151 152 149 171 175 167 158 169 156 139 153 151 150 152 164 163 151 158 167 165 165 163 163 163 154 152 154 148 152 154 153 153 155 154 145 149 151 139 65 23 39 47 50 44 68 79 63 75 42 58 19 78 105 65 102 185 200 197 196 194 198 198 198 205 199 199 197 197 198 199 195 202 201 202 201 201 199 197 200 196 185 189 187 176 175 163 172 162 159 139 138 166 162 151 147 171 173 175 162 175 154 148 152 155 150 156 161 156 156 156 169 161 162 158 162 161 153 152 149 151 152 151 154 147 153 154 153 150 147 150 80 25 39 45 52 57 67 95 57 77 40 40 32 45 110 77 114 176 198 198 198 192 196 197 201 201 202 198 197 197 198 199 196 201 204 203 204 203 200 198 200 199 191 190 190 182 183 172 180 169 167 142 135 170 174 154 147 170 180 179 157 159 153 150 149 149 153 149 154 154 151 151 161 158 157 154 159 151 153 145 151 151 151 149 154 155 149 160 160 152 150 148 91 29 43 36 59 72 64 94 57 78 33 36 48 28 97 88 121 167 194 203 198 192 199 197 201 202 200 195 193 197 195 201 201 200 203 205 204 209 201 195 195 201 195 190 182 183 178 173 176 167 160 144 130 172 170 166 154 168 189 174 154 149 153 145 143 141 144 147 147 148 151 149 149 148 146 148 140 140 144 139 136 136 138 154 154 154 155 150 163 153 156 139 98 49 32 48 60 107 78 74 61 64 43 46 61 27 78 97 122 161 189 198 199 192 201 206 200 201 195 192 191 194 194 200 198 198 202 202 195 207 199 188 192 191 192 181 182 172 173 169 167 164 158 139 132 163 170 163 170 154 179 162 139 135 156 139 136 127 131 129 131 136 138 139 136 137 130 130 122 125 125 126 119 123 112 138 145 151 157 148 156 151 154 149 92 52 47 53 51 107 78 73 55 70 41 68 66 46 67 94 112 149 187 200 195 197 201 206 200 197 193 190 195 187 185 194 185 193 190 192 185 195 190 180 178 178 183 181 169 168 161 154 160 162 157 142 135 151 150 154 164 145 166 151 124 122 142 127 127 113 105 102 96 105 105 107 109 109 105 107 99 102 97 109 108 100 105 119 129 129 148 152 149 154 158 146 95 55 53 61 41 66 60 71 51 86 53 62 70 73 73 81 112 145 179 203 198 199 201 203 198 192 194 193 184 168 173 183 180 173 182 171 182 178 175 169 156 157 170 167 145 161 146 138 143 154 163 137 132 138 146 126 151 139 145 143 119 109 131 122 113 105 88 80 75 73 80 76 79 77 84 80 82 86 87 96 96 94 102 104 110 123 128 148 151 150 154 134 102 57 47 68 39 37 37 62 50 84 71 53 60 72 73 79 101 140 165 202 198 198 204 197 193 192 198 174 153 143 148 152 148 151 165 152 149 139 126 135 128 122 125 159 130 137 138 127 123 142 146 146 119 136 142 109 145 140 138 131 125 99 111 121 103 101 81 69 56 64 56 57 62 61 66 69 69 76 93 100 104 107 109 116 105 118 115 134 154 148 156 138 100 65 46 57 44 30 30 57 64 61 72 49 53 56 57 67 104 125 157 201 199 195 205 191 198 188 166 153 130 130 132 135 122 117 118 103 107 85 91 90 94 105 97 123 127 118 128 121 132 124 136 136 119 114 139 104 123 127 128 128 124 92 91 109 114 86 84 61 53 52 47 50 54 50 60 57 72 64 73 75 82 81 86 86 93 92 115 131 150 146 154 141 107 61 62 48 42 38 44 54 65 61 50 48 48 44 51 61 98 112 147 204 198 197 200 190 183 153 149 145 131 123 128 122 124 113 113 110 123 111 103 153 166 155 119 102 104 105 116 125 124 112 125 122 116 112 132 110 110 128 126 124 123 102 87 183 169 67 65 71 66 58 68 76 90 85 103 118 119 124 118 127 127 130 139 117 110 93 79 88 146 150 154 139 114 72 51 48 51 50 51 56 56 45 40 44 63 40 54 70 90 113 132 205 196 195 202 185 159 143 150 145 141 147 197 200 196 193 182 172 176 145 124 174 175 168 138 99 94 88 86 91 97 103 120 117 118 123 116 122 110 128 120 113 108 111 123 143 121 75 65 148 89 65 78 107 121 134 142 143 143 141 138 139 140 148 160 157 158 126 113 94 75 140 157 146 119 76 55 43 59 53 57 45 56 41 35 37 101 51 67 70 84 106 113 201 197 197 200 179 149 142 110 102 107 122 151 154 161 146 144 144 138 103 156 130 108 115 117 118 108 93 106 112 96 54 110 127 134 135 134 118 131 137 128 106 116 87 101 99 96 124 102 146 99 98 114 132 136 142 142 136 133 129 134 132 147 148 163 162 167 164 134 124 90 71 150 149 117 83 59 45 65 57 50 44 41 46 38 49 97 67 78 66 85 91 114 202 194 195 198 157 92 105 130 145 171 182 178 178 177 165 170 163 170 130 236 189 114 122 130 131 130 112 113 119 131 107 48 155 154 153 162 143 147 138 154 144 70 78 101 97 93 106 98 110 112 116 105 95 91 88 85 79 79 73 83 97 112 126 148 158 171 171 145 133 91 66 88 154 121 87 73 49 71 62 55 69 46 45 30 50 106 78 69 67 75 89 120 199 193 203 164 93 108 154 163 193 192 197 194 183 178 179 170 165 161 144 192 162 131 133 127 124 120 123 130 134 136 141 59 143 176 167 172 143 144 145 161 146 105 76 88 101 83 101 102 104 101 73 61 58 60 70 54 50 42 38 60 75 50 75 88 123 159 170 159 141 105 55 67 139 119 88 66 65 64 63 60 84 58 37 36 52 98 93 82 45 60 81 130 194 203 187 94 118 117 166 180 200 204 202 190 172 157 154 145 130 127 124 126 115 116 125 125 117 114 108 115 129 147 119 153 219 159 143 143 116 103 104 100 81 115 72 72 75 72 94 87 76 68 63 50 71 122 82 42 133 38 52 36 103 101 46 41 73 110 141 149 151 119 42 93 108 56 164 58 72 69 71 67 102 46 54 53 40 85 101 73 40 51 90 130 192 219 113 125 72 107 181 198 207 203 186 139 108 94 75 85 77 88 80 78 71 77 76 98 111 108 104 102 105 147 135 185 214 68 83 110 82 45 45 45 32 107 82 45 59 66 83 78 65 75 67 69 137 160 49 73 138 24 54 34 89 172 84 26 33 61 100 109 118 108 63 98 51 50 235 128 70 58 71 91 68 78 40 104 31 86 100 68 36 40 76 128 185 223 105 132 39 121 188 204 211 160 85 43 93 123 61 58 135 68 55 102 91 66 69 66 81 93 100 94 115 166 169 190 164 49 81 90 84 69 69 71 77 80 88 53 74 112 106 82 82 121 96 109 143 159 60 73 53 22 69 14 118 153 72 40 29 44 77 79 71 85 55 87 45 59 239 162 43 42 64 84 69 68 39 97 98 90 101 60 22 45 49 129 156 226 138 75 38 141 195 205 177 80 28 49 198 204 49 55 203 49 73 88 144 105 70 73 93 90 109 136 153 174 183 169 93 88 102 137 140 126 111 105 98 39 111 75 117 135 119 95 95 118 100 105 118 131 89 88 91 65 67 58 110 117 82 87 82 71 84 89 79 92 58 83 63 66 186 109 24 43 53 75 71 68 54 75 117 94 81 71 29 80 91 224 122 151 148 76 32 154 195 164 106 34 17 92 194 214 83 49 81 48 75 87 142 118 85 84 100 97 120 149 163 161 193 140 16 97 174 180 164 145 134 137 117 22 104 114 107 132 131 116 108 107 109 100 108 106 105 109 104 93 90 101 113 114 119 132 140 131 119 120 132 160 66 53 113 137 74 31 28 61 66 76 79 96 69 70 85 88 71 74 51 72 117 239 96 42 117 95 65 147 166 131 57 45 49 92 147 171 71 62 69 82 88 92 111 103 90 93 99 114 134 142 160 163 188 109 2 153 209 186 168 147 136 150 145 32 57 135 114 104 128 120 117 109 108 102 104 91 99 103 105 107 109 108 124 129 153 156 161 152 145 141 157 185 109 38 126 156 71 25 32 59 85 77 93 94 73 75 60 86 54 84 68 63 92 232 89 33 124 80 53 170 175 108 81 110 121 115 123 127 95 110 114 107 109 99 99 102 101 95 99 116 129 156 161 178 155 59 48 208 206 180 167 143 143 145 160 95 21 120 139 122 110 114 112 105 108 106 106 88 95 85 97 99 107 110 126 140 146 154 143 147 160 134 156 191 137 52 109 158 96 46 30 61 84 87 89 78 67 84 60 76 71 75 64 44 36 145 112 147 127 77 57 214 225 157 150 161 170 172 170 153 140 131 134 118 117 99 94 98 99 101 104 113 151 172 161 161 132 30 114 215 193 180 164 146 137 146 156 136 45 66 132 149 137 127 115 117 108 118 111 112 111 100 96 94 101 97 112 120 113 140 141 155 154 141 147 172 163 102 66 159 111 55 33 63 78 87 85 63 81 67 74 78 75 76 68 57 57 56 145 185 135 51 61 217 221 200 177 183 192 188 191 175 164 144 138 110 107 101 99 116 112 122 122 151 180 170 167 148 101 40 181 201 185 173 166 148 140 141 148 152 99 39 102 158 157 152 135 125 119 110 110 118 117 113 118 116 120 129 135 124 116 144 120 128 160 153 148 165 176 125 56 168 133 54 47 79 78 83 77 67 75 54 87 80 88 99 62 65 53 65 161 182 144 61 79 219 222 197 185 183 178 174 171 156 141 136 126 120 121 127 132 132 134 147 164 175 179 172 162 163 61 98 206 191 187 172 162 149 135 141 142 149 136 65 68 141 168 162 149 146 134 123 109 103 108 104 103 111 112 131 131 120 122 127 125 126 139 148 157 159 188 120 72 169 149 56 45 92 94 73 83 68 74 59 99 87 105 95 83 67 71 83 171 170 113 94 103 218 210 191 193 175 162 189 171 154 156 167 152 153 142 152 139 143 168 176 192 173 180 179 159 168 28 158 206 192 186 174 159 146 141 143 140 143 148 111 41 117 160 171 161 153 149 146 137 131 126 112 110 108 108 113 121 125 128 130 138 139 152 134 145 169 191 89 100 179 154 76 38 87 99 84 108 75 96 68 126 80 104 102 95 89 74 98 178 200 86 114 134 207 207 195 170 171 168 169 169 163 171 160 162 157 149 152 165 178 186 188 178 175 181 178 166 95 73 194 199 192 177 179 169 148 134 137 142 143 143 143 77 56 152 165 167 157 151 143 148 146 151 135 137 139 130 126 129 135 134 134 141 140 150 156 145 156 186 42 156 188 159 88 38 69 79 69 80 77 85 71 123 81 99 102 87 98 74 92 185 216 88 110 149 213 213 185 175 174 165 159 164 166 168 163 166 169 161 171 181 191 183 177 174 172 182 179 171 56 132 204 189 187 177 176 169 158 131 135 143 137 143 152 114 49 114 169 161 154 150 141 145 146 148 142 145 142 139 131 139 139 139 141 144 143 152 164 166 179 145 47 203 189 154 105 50 65 58 65 66 70 69 87 104 81 81 96 92 87 66 97 191 202 128 83 186 218 203 198 179 184 183 169 168 164 169 165 167 172 170 178 185 187 173 168 163 174 174 188 135 55 181 201 190 189 178 171 170 168 139 133 143 136 143 157 142 83 56 153 159 153 146 143 141 142 146 143 146 141 143 136 141 142 141 146 148 143 162 162 175 208 78 110 214 191 157 112 47 64 55 71 74 49 60 75 112 79 66 99 98 84 51 94 192 192 202 45 206 218 208 206 194 189 193 178 181 169 166 165 172 173 181 178 181 175 163 160 164 173 170 185 67 86 189 196 197 197 180 170 168 180 154 132 142 138 146 162 167 105 82 84 162 151 146 143 143 147 139 143 140 137 147 138 142 138 146 144 144 153 166 167 202 177 54 177 198 187 164 107 53 56 51 64 62 46 81 50 118 78 85 84 87 85 45 98 182 191 221 111 119 224 212 207 209 190 197 190 186 171 172 178 175 178 173 169 164 163 162 159 165 163 192 105 84 119 194 192 207 208 184 169 180 190 159 138 136 138 151 183 199 150 98 97 89 146 145 142 141 145 145 137 140 139 143 137 139 135 142 149 144 162 168 152 152 101 152 184 185 180 166 103 46 54 61 58 58 56 73 56 84 78 75 84 76 76 54 97 175 198 199 212 60 189 216 210 203 200 197 191 190 173 172 179 175 173 167 165 160 157 153 162 156 180 141 79 116 150 193 202 207 219 196 168 180 173 146 128 133 136 148 174 192 180 126 110 91 84 117 144 148 148 143 142 140 146 142 145 142 139 143 140 126 124 104 105 139 173 169 184 182 176 170 101 40 55 62 76 43 54 61 60 87 76 65 108 68 80 59 94 166 201 197 217 152 71 204 212 208 202 204 192 190 174 176 182 175 168 162 164 162 155 155 166 160 136 82 124 152 186 202 206 200 209 197 177 166 150 136 128 130 134 135 143 164 188 157 141 101 93 85 98 107 111 114 114 113 107 107 107 106 103 99 97 113 123 134 156 175 177 181 175 189 178 168 105 35 53 63 64 45 50 72 45 88 120 63 128 92 84 63 85 155 202 199 205 210 148 88 181 190 199 206 195 193 187 183 186 178 168 168 171 173 163 154 134 108 100 109 161 196 197 206 200 183 178 182 177 162 135 128 132 129 144 139 133 139 164 173 161 148 78 87 93 98 102 94 95 86 91 86 92 96 104 107 115 138 145 156 153 175 176 189 174 184 173 169 112 38 47 66 59 64 51 78 64 70 148 117 139 87 79 80 77 149 200 202 207 201 191 183 138 109 98 104 115 119 126 131 132 136 130 127 121 117 114 106 103 129 105 133 209 206 204 203 192 164 168 162 174 159 143 120 122 130 149 145 127 118 130 152 185 177 116 84 86 89 90 86 90 93 95 92 102 92 113 108 110 142 152 160 139 176 173 177 176 165 173 167 120 48 50 61 73 83 56 57 78 57 129 121 135 72 75 78 80 141 195 201 205 199 193 210 208 215 196 183 161 156 149 152 142 129 137 133 135 135 122 122 116 104 81 191 217 205 201 186 163 156 148 170 178 159 138 119 114 124 147 150 70 66 97 122 152 188 153 92 113 121 113 115 132 126 118 127 129 129 131 135 136 156 158 161 170 174 174 179 172 156 157 170 115 56 49 50 77 74 61 56 73 32 145 111 111 81 86 76 76 125 189 201 203 201 199 208 209 209 211 197 181 175 172 180 163 142 142 131 131 123 112 101 97 89 105 215 212 194 173 154 111 85 75 154 187 165 141 108 104 120 155 104 11 13 34 94 120 155 164 90 113 127 131 135 139 136 130 138 139 142 144 143 146 158 165 176 189 178 169 167 175 147 140 151 117 61 53 41 83 94 70 60 81 34 114 101 99 88 91 70 77 107 188 201 201 203 199 205 209 210 212 198 193 170 163 176 165 153 149 131 130 113 112 101 95 113 145 209 200 168 126 68 40 11 61 174 178 175 128 95 91 123 129 24 9 23 21 50 97 138 141 66 114 121 126 131 133 132 136 130 136 135 146 142 144 166 164 170 190 181 170 168 156 149 137 143 110 58 52 42 65 110 79 57 103 55 72 89 122 110 79 74 68 99 177 208 198 200 198 202 210 211 210 205 204 189 177 178 169 170 151 148 132 125 124 118 127 154 158 187 185 135 72 30 37 41 128 172 167 174 117 81 96 126 117 55 37 44 30 38 69 134 114 46 110 120 118 127 126 130 129 129 126 127 140 144 140 160 170 166 193 185 166 152 147 142 132 132 101 63 50 46 57 84 76 65 90 70 51 112 127 98 76 82 79 90 172 202 194 197 196 202 209 207 208 203 211 185 182 176 161 152 150 136 122 124 121 132 152 176 172 166 160 118 65 79 145 144 166 145 132 168 128 88 115 85 88 104 100 100 86 67 84 114 92 81 117 125 115 116 118 118 122 119 112 116 125 135 147 147 156 167 179 175 149 146 136 136 129 121 90 54 56 30 53 70 67 74 100 75 46 129 119 101 79 76 75 81 167 194 190 189 193 201 201 200 204 206 205 186 181 163 158 142 135 122 121 121 130 159 180 189 182 163 147 136 101 127 167 136 137 127 117 126 110 86 80 60 80 69 93 123 104 90 95 89 105 107 135 140 132 122 116 117 113 119 122 104 105 124 139 137 146 159 160 163 153 138 121 129 132 112 76 62 51 35 38 47 77 79 82 89 41 101 131 95 92 73 64 93 146 194 190 194 194 191 197 193 198 203 204 192 168 157 153 126 121 128 131 125 154 178 192 187 183 170 164 162 145 155 140 129 117 117 106 89 72 51 84 64 84 71 72 105 97 84 112 96 119 126 138 147 146 133 124 114 116 118 122 127 104 98 115 141 141 150 144 145 149 146 133 122 123 106 76 76 54 34 41 68 78 87 76 94 56 67 102 92 93 69 76 94 126 194 191 193 187 183 189 186 197 199 197 186 157 151 116 117 148 132 129 148 164 188 192 177 166 177 173 164 142 137 136 101 135 109 87 73 71 45 90 112 77 92 62 81 95 93 122 105 129 132 137 144 133 142 130 121 111 118 115 132 140 113 73 131 138 136 131 142 125 140 126 115 108 91 69 74 54 47 51 68 73 87 74 86 83 52 90 81 79 62 78 105 106 187 193 182 182 171 184 188 196 191 199 177 125 102 129 173 139 127 141 163 161 176 171 157 164 156 152 121 116 109 120 125 97 90 92 73 79 78 54 139 97 87 96 57 107 75 128 114 110 111 145 131 133 125 132 130 111 115 115 122 134 156 99 92 131 134 133 125 125 131 119 110 90 73 58 51 50 59 51 74 67 79 75 74 71 65 88 74 71 67 81 96 111 166 176 174 162 161 187 183 180 189 182 126 96 174 166 149 131 141 160 151 157 163 144 143 149 125 118 114 111 85 120 120 66 76 85 82 71 92 73 113 97 81 111 79 108 56 110 98 102 88 122 126 126 118 115 124 111 109 102 117 125 139 158 85 104 141 133 110 122 117 118 111 79 60 55 57 58 54 40 64 61 67 59 70 77 75 75 74 62 73 84 109 107 161 182 162 164 174 173 185 184 194 157 106 164 194 155 119 142 150 153 144 139 142 127 125 131 114 105 116 99 87 112 107 74 89 54 81 79 96 73 94 84 73 114 78 94 64 92 73 105 84 85 115 110 111 109 106 113 106 86 101 109 128 154 146 79 134 134 98 121 109 116 110 77 64 50 56 60 48 35 62 50 73 64 63 86 71 71 71 67 76 79 106 98 154 177 148 151 173 167 182 176 195 74 178 198 160 130 109 152 140 135 124 133 130 112 118 116 108 92 85 118 83 79 108 77 81 45 76 78 90 79 73 89 52 89 65 68 88 94 51 76 90 60 96 124 89 106 86 90 97 85 83 94 116 137 160 84 119 133 88 123 104 101 76 58 77 51 56 51 42 39 66 57 64 65 88 66 67 58 79 88 67 83 83 101 142 141 136 141 143 171 167 167 143 90 207 165 105 117 145 126 107 116 116 132 124 104 95 130 95 96 83 111 81 75 105 76 75 52 93 71 86 85 67 77 65 74 65 68 69 89 60 73 85 59 76 109 96 87 89 83 77 101 71 76 104 121 139 105 109 113 85 112 89 91 56 50 72 55 57 53 37 46 71 50 73 65 94 72 68 58 64 72 72 69 78 107 130 123 131 117 147 147 155 176 122 127 189 144 95 127 121 95 107 89 126 118 104 110 83 133 94 114 82 92 73 87 86 53 91 54 82 84 68 79 68 59 51 77 57 53 84 105 58 67 107 63 81 72 85 86 89 80 64 99 76 75 88 105 125 110 101 97 74 90 86 84 46 53 59 64 62 44 40 39 73 51 79 83 78 71 57 80 70 57 75 55 81 121 103 122 119 104 144 145 154 163 115 139 168 135 91 120 90 85 109 91 118 124 111 89 101 126 105 112 89 91 68 83 72 59 65 65 75 81 65 68 75 49 54 62 67 31 97 99 60 78 90 79 76 80 62 86 77 76 53 74 73 80 80 71 106 113 81 83 74 74 76 65 35 55 48 58 64 43 37 42 54 64 76 81 68 75 63 61 70 63 74 63 104 102 89 97 106 110 137 148 150 165 118 135 132 100 93 103 88 78 103 98 107 119 103 82 106 103 104 97 91 81 87 74 63 62 66 67 85 75 60 66 65 58 71 54 64 43 71 63 71 79 80 76 70 73 58 82 64 77 33 69 64 78 71 60 87 94 69 70 62 64 53 60 36 48 46 57 56 40 44 56 64 57 71 80 76 83 60 68 65 74 71 82 106 88 99 82 118 103 114 143 131 175 123 117 120 103 89 82 82 102 74 107 114 104 83 80 81 93 95 74 59 53 75 146 71 80 119 106 110 99 75 71 84 98 92 79 65 48 58 51 60 62 55 72 68 59 45 72 68 54 31 61 59 89 60 71 81 73 64 68 52 63 47 82 28 46 65 55 58 36 38 55 68 70 62 70 78 86 62 73 61 85 78 92 87 87 98 76 113 103 114 134 121 157 107 106 112 99 79 64 86 104 44 115 75 64 59 47 38 65 75 85 90 56 114 228 97 110 181 136 184 171 116 89 137 136 120 113 86 58 79 79 76 43 57 43 39 26 27 37 39 42 37 44 47 80 44 77 86 69 54 67 51 53 40 86 31 55 33 68 56 39 41 52 67 63 65 80 71 78 55 63 64 79 79 89 95 79 83 81 99 114 89 118 125 117 104 108 98 90 83 73 72 84 56 84 56 49 40 21 13 49 63 125 118 48 96 186 95 72 222 168 184 165 86 53 160 146 132 133 95 21 86 80 23 59 65 44 20 27 27 36 39 36 42 34 53 53 53 50 90 86 52 52 67 52 40 58 40 46 38 58 53 45 28 58 61 52 78 71 58 64 64 60 75 66 80 88 101 82 76 72 86 112 81 102 122 93 91 117 73 94 100 62 63 59 57 61 59 65 78 45 25 33 38 129 117 37 31 86 44 20 141 138 89 60 32 16 76 92 82 88 54 17 31 40 58 72 70 47 43 44 53 53 49 48 48 43 50 49 61 45 78 92 66 51 63 59 39 43 56 48 37 52 57 39 42 52 67 53 91 64 48 69 72 80 72 71 60 97 81 74 75 84 72 98 81 85 103 71 114 101 89 91 72 75 62 57 58 64 74 85 98 95 75 84 80 109 109 97 61 76 63 50 168 128 90 48 52 95 104 82 85 95 85 65 87 103 110 119 111 73 63 68 67 59 63 50 48 58 68 63 63 41 81 86 76 76 83 62 45 52 65 47 45 47 55 73 44 52 65 80 86 68 55 63 76 73 81 61 58 81 78 76 69 81 74 86 77 94 89 67 116 90 86 87 69 78 56 55 66 70 92 105 103 131 150 143 163 175 165 156 143 120 93 89 137 125 129 121 133 128 135 118 115 116 111 125 118 111 108 135 127 102 92 72 71 75 72 64 60 51 64 79 70 66 94 61 88 64 67 49 49 45 63 50 46 52 38 86 58 54 68 73 66 62 59 54 64 64 82 62 60 79 65 58 53 73 77 81 68 83 92 72 93 87 90 61 95 63 61 49 68 84 97 99 112 120 179 177 167 173 171 175 167 138 122 127 125 126 138 119 150 128 123 122 122 116 114 107 106 111 105 122 125 111 95 82 75 92 84 66 69 75 64 68 64 83 94 37 87 70 55 42 50 45 47 47 49 46 48 53 62 48 71 63 59 59 56 50 59 64 83 67 72 84 60 53 52 74 82 72 70 79 80 53 81 87 86 62 79 73 57 47 66 83 91 105 104 108 157 193 185 186 169 173 169 133 131 135 134 130 134 118 157 135 124 127 104 106 100 106 103 107 121 119 120 96 97 90 79 82 83 83 64 76 91 59 70 71 70 50 63 73 67 33 42 50 34 48 46 45 47 53 46 43 75 62 59 61 64 60 59 55 72 71 69 58 72 60 60 77 67 68 71 81 72 72 72 78 72 77 54 65 47 55 59 77 94 96 94 108 130 170 182 190 185 181 171 147 129 126 129 124 135 127 142 120 110 117 97 104 96 104 118 119 122 111 105 106 96 90 85 90 76 88 79 58 78 71 67 57 72 48 62 54 75 48 28 51 47 44 51 47 44 49 52 48 75 63 79 53 72 75 60 62 70 63 70 71 96 76 60 73 61 80 69 76 69 63 71 65 70 69 65 51 57 60 58 78 82 86 101 93 114 135 160 168 176 185 178 167 145 143 136 141 138 142 129 113 111 113 108 110 103 108 114 105 109 107 99 94 110 99 91 91 85 74 98 71 52 92 47 56 52 52 51 62 47 53 26 49 53 38 49 43 51 46 51 63 72 54 70 67 58 54 97 71 45 47 65 65 76 71 55 69 66 77 62 87 59 58 79 64 62 55 69 68 61 60 45 81 78 85 87 88 98 121 128 141 151 147 162 144 146 134 121 128 117 127 123 91 96 114 103 97 98 109 111 121 101 102 97 110 80 105 92 79 60 81 91 82 40 64 67 55 49 53 50 51 50 53 28 49 53 38 61 53 51 58 53 59 64 68 70 59 60 83 103 70 48 64 57 59 59 77 61 66 62 68 52 66 70 67 74 58 53 58 62 85 46 68 65 82 56 82 81 78 98 118 101 148 131 129 117 118 139 114 119 124 104 112 118 104 81 105 115 108 84 96 112 104 124 96 85 99 86 93 96 84 51 58 83 67 60 49 67 64 43 50 49 45 48 59 32 52 39 33 72 49 64 58 50 64 58 75 63 61 61 71 80 78 56 55 64 54 49 76 78 62 49 61 63 63 83 72 60 82 49 69 51 92 37 68 90 70 64 58 104 99 106 99 96 121 115 112 96 108 112 109 103 105 104 100 96 112 89 100 96 113 95 78 114 89 122 93 85 85 89 86 95 81 49 44 60 56 57 57 52 62 50 41 51 49 40 65 32 50 45 33 59 58 71 53 35 77 64 56 68 63 67 54 67 81 73 65 50 58 59 62 89 64 51 53 86 81 72 65 74 87 41 80 41 106 46 54 56 75 55 60 78 86 88 102 92 84 103 96 99 98 93 115 101 98 98 106 75 99 90 96 85 103 93 90 84 108 84 96 84 69 70 90 80 79 46 61 42 74 63 62 53 38 71 38 40 54 47 60 39 46 47 50 52 64 58 36 45 66 73 62 54 65 53 57 65 71 62 60 77 72 56 57 87 67 50 62 72 87 71 60 97 54 75 61 47 117 55 37 63 71 57 53 71 72 83 94 84 77 79 76 83 83 65 79 90 71 101 91 77 67 71 88 72 98 81 61 93 85 64 83 79 60 61 86 66 72 56 53 54 76 51 47 54 39 60 58 45 51 58 59 44 29 60 46 61 53 46 39 39 63 63 64 52 57 56 52 66 61 42 58 68 59 60 83 74 68 53 64 87 81 57 75 86 72 81 37 69 115 56 43 61 74 65 48 72 53 64 64 70 60 73 64 75 58 59 75 73 59 86 83 82 64 67 72 85 71 66 57 87 63 55 75 61 59 64 73 58 71 41 40 51 61 58 37 58 48 51 43 34 46 54 55 61 26 52 39 53 58 46 49 39 60 62 59 53 60 41 56 60 55 36 60 79 45 81 64 65 63 44 57 105 75 36 80 75 83 98 35 103 118 36 48 80 43 72 45 61 44 46 47 47 55 61 63 74 59 55 61 55 49 59 72 82 62 60 59 61 64 55 48 76 59 58 68 50 55 66 41 55 53 35 50 47 21 73 57 52 60 58 32 46 34 51 51 64 81 33 35 50 60 57 49 37 66 62 68 55 58 37 46 54 50 50 42 66 49 66 67 64 41 79 58 87 69 46 84 74 45 98 48 99 131 60 35 87 36 55 85 55 40 42 34 40 40 74 57 73 67 54 55 52 63 60 51 61 51 51 49 50 52 45 46 54 51 57 40 59 67 48 35 66 37 33 57 37 25 54 53 71 51 64 47 64 29 40 52 58 96 39 31 59 46 65 47 44 58 62 60 63 57 47 49 44 55 82 32 71 60 65 64 59 63 63 62 100 50 64 55 86 29 78 51 100 89 87 59 70 32 104 88 73 41 46 41 46 42 70 66 54 54 66 53 53 46 51 55 57 50 53 43 33 39 47 73 40 44 60 50 60 59 36 56 72 25 34 67 40 45 54 67 51 48 70 61 58 41 47 41 53 61 75 36 46 39 52 41 42 50 69 65 59 65 57 55 54 56 74 53 68 61 56 80 63 60 52 60 93 71 60 58 78 78 61 64 83 90 39 91 62 18 124 125 43 71 64 47 37 51 59 46 68 52 62 59 41 49 46 58 46 68 64 54 45 43 59 58 51 55 53 46 56 43 55 59 51 37 43 68 72 27 57 85 57 19 86 62 34 56 57 47 44 67 64 51 43 31 47 49 51 50 66 67 59 63 67 70 54 68 58 49 51 48 67 75 62 58 52 43 86 79 56 74 74 91 60 89 53 87 51 87 52 30 110 142 58 76 61 39 39 44 45 45 71 73 73 60 47 62 63 53 56 75 61 59 35 52 66 58 77 46 56 46 75 37 59 52 41 44 34 64 57 36 66 68 56 27 52 76 59 31 76 52 34 60 70 69 53 24 50 39 59 48 57 70 57 68 54 65 42 68 59 49 43 50 74 62 62 66 38 61 70 83 56 66 83 70 71 91 48 87 62 83 39 57 107 148 84 62 38 47 56 43 31 73 59 75 89 62 54 63 58 62 59 77 59 54 36 40 97 36 73 39 62 73 46 44 54 53 33 42 41 51 44 42 86 66 41 72 34 62 55 27 83 47 46 40 68 80 40 42 41 33 55 42 67 68 66 71 51 74 40 42 68 38 55 64 71 66 70 60 63 95 49 99 65 81 76 41 103 53 77 85 48 86 36 92 64 158 98 63 55 41 44 54 66 80 80 40 109 71 65 57 66 70 78 54 60 89 57 38 99 56 53 32 90 53 47 56 70 55 38 43 58 30 42 39 62 79 54 71 59 50 52 31 67 73 57 29 60 78 29 36 53 39 53 45 70 73 78 64 65 63 57 69 61 41 54 78 82 59 73 43 109 78 71 86 77 87 59 44 87 52 78 78 42 79 39 89 40 136 102 66 75 27 57 62 78 62 87 40 113 47 69 95 61 62 69 50 63 70 71 40 90 59 37 44 81 34 59 62 84 51 53 45 60 38 32 45 34 72 76 89 29 57 52 41 64 81 46 56 46 72 38 29 45 53 50 32 75 66 68 73 71 60 64 82 66 67 69 94 74 66 71 57 127 63 83 63 70 60 62 67 55 58 77 79 52 51 62 67 44 121 106 77 76 42 65 74 77 51 84 64 99 30 99 78 76 74 39 58 62 76 71 40 66 51 40 68 49 31 68 48 74 70 49 50 74 33 44 39 36 69 75 97 57 38 57 36 72 71 50 44 58 56 41 37 48 57 49 42 69 70 63 62 69 74 51 74 63 86 84 85 70 65 82 82 112 74 69 77 55 58 65 79 62 52 68 57 47 62 78 47 46 108 116 92 74 70 57 82 80 51 75 85 83 63 83 83 60 63 28 51 57 61 72 34 54 54 45 61 39 39 60 58 55 77 49 55 64 55 38 62 32 80 53 116 80 52 45 54 58 64 72 22 77 63 40 27 47 64 47 57 70 72 64 60 79 74 58 66 86 81 92 75 54 90 84 71 76 62 79 85 41 57 48 89 44 75 44 44 63 71 68 48 55 96 94 74 73 68 47 71 102 76 35 90 76 63 51 81 56 46 35 57 34 65 61 23 58 61 33 52 47 44 27 70 61 86 53 56 53 53 24 61 58 76 56 101 87 42 54 89 46 39 81 16 75 73 24 37 40 57 47 55 70 66 62 57 71 87 80 56 74 112 71 62 62 87 58 69 60 80 90 64 50 55 32 79 56 84 55 48 86 68 83 56 35 81 92 74 68 71 39 77 112 69 44 73 83 43 46 63 75 42 50 57 38 63 48 47 69 38 39 45 54 50 26 57 73 64 76 54 64 34 53 33 57 86 44 77 89 51 20 108 63 21 88 36 56 61 29 30 36 49 42 41 63 72 70 63 57 79 81 61 69 98 46 61 74 82 53 75 63 98 54 55 65 49 43 57 77 86 75 67 101 53 81 63 50 67 92 73 26 73 64 87 113 72 36 61 106 45 34 77 78 36 66 37 46 61 54 54 49 39 45 27 54 70 27 47 70 60 64 40 83 26 69 39 46 83 63 46 95 60 33 70 73 37 67 55 37 63 25 29 33 40 42 39 67 69 75 65 61 71 84 59 85 114 49 80 62 55 66 65 78 88 33 80 57 45 51 68 83 55 86 84 76 72 58 82 54 82 83 62 16 79 87 81 127 51 26 54 118 40 38 78 73 42 74 36 33 67 61 55 37 54 42 23 46 72 35 44 68 68 60 44 68 35 64 55 41 62 77 34 81 80 48 58 48 43 66 65 39 55 26 28 31 40 41 39 74 58 92 69 71 80 72 52 94 89 65 81 47 57 56 59 82 60 59 66 56 61 70 104 72 45 110 63 70 80 45 87 67 62 65 54 60 113 92 89 108 74 2 69 101 53 54 74 75 57 63 48 54 65 44 59 49 60 28 46 55 41 78 31 71 61 52 41 71 58 64 49 36 50 71 44 53 87 67 65 42 32 52 82 47 49 28 24 34 47 42 46 64 63 81 74 76 63 55 78 92 62 77 61 52 69 59 67 68 70 55 48 57 76 80 89 50 103 111 77 88 60 48 76 59 68 44 54 93 129 113 68 76 76 3 69 113 35 72 75 62 47 64 47 42 80 30 58 65 49 35 52 47 40 50 73 63 54 54 34 77 75 78 18 55 30 78 61 55 66 62 58 41 45 46 84 50 32 30 28 27 56 43 57 70 63 68 63 66 70 55 124 90 54 76 64 62 88 74 64 53 89 53 44 68 67 113 46 117 100 94 76 66 52 52 67 56 71 46 99 131 130 96 37 63 45 52 75 97 52 71 56 43 64 62 41 49 65 56 54 70 44 43 53 45 59 38 55 66 44 67 23 79 88 64 30 46 36 46 71 58 68 62 35 47 35 67 63 43 34 32 22 34 44 39 45 69 62 68 69 76 70 66 132 81 64 68 71 87 82 83 79 62 57 87 58 81 52 130 59 136 62 108 73 44 64 56 69 87 77 73 129 116 74 63 52 62 68 65 83 83 55 51 51 49 73 56 46 57 54 44 62 56 50 58 29 69 60 34 46 50 49 76 25 73 95 46 41 39 21 43 72 60 67 48 39 36 37 82 58 31 35 24 28 32 37 42 37 69 66 62 68 71 64 77 105 75 71 48 77 100 71 79 89 74 48 69 86 104 50 101 107 86 51 123 59 79 71 56 79 79 51 74 119 60 51 63 52 69 63 68 75 58 46 52 54 62 62 65 70 33 44 46 58 48 56 52 28 67 46 42 36 52 59 64 32 68 94 35 38 39 15 46 70 78 56 47 42 48 37 85 31 51 46 28 25 33 33 45 36 