P2
92
112
255
45 54 48 47 49 50 53 47 52 53 52 46 51 46 53 55 64 51 57 75 75 58 56 73 65 76 79 46 57 56 51 49 49 46 46 46 49 60 54 54 54 52 58 60 50 72 66 57 59 62 61 43 46 61 42 53 53 51 58 53 55 52 58 45 56 52 48 48 50 45 50 47 51 43 53 44 46 49 47 47 46 52 45 50 43 44 47 48 49 42 50 37 50 53 49 47 46 52 52 48 52 46 50 50 49 55 61 61 58 62 57 80 62 50 62 70 57 62 70 46 52 40 43 46 46 44 51 52 63 73 76 75 78 81 83 90 81 86 81 78 75 81 83 55 54 55 53 47 49 54 54 49 48 57 58 45 54 46 48 48 48 50 48 49 49 45 53 47 48 48 51 47 47 46 52 42 47 48 47 48 44 49 48 44 52 50 48 50 43 54 55 52 46 52 55 44 56 68 60 60 64 54 63 71 63 61 69 69 56 63 58 53 45 42 43 47 44 61 71 83 93 98 101 101 107 101 102 105 106 102 102 101 99 98 103 87 82 78 67 57 46 55 56 44 47 62 61 54 49 50 50 50 44 49 46 53 49 49 49 49 46 54 45 49 47 49 50 47 46 50 47 45 45 47 43 47 51 50 50 49 47 53 53 51 49 50 51 52 70 66 54 56 65 62 63 68 72 54 66 67 50 62 57 52 48 49 51 56 86 96 104 116 109 115 115 116 116 113 113 115 116 112 114 110 114 110 112 106 99 102 102 89 70 68 48 44 44 69 63 54 50 53 54 47 52 49 47 49 50 50 46 50 51 46 53 46 49 45 52 52 44 46 47 48 45 47 46 47 48 54 46 52 50 50 51 52 49 50 49 79 78 52 58 71 69 71 61 56 75 72 66 59 56 57 57 52 49 70 85 101 119 127 126 127 120 126 127 122 122 122 124 117 122 114 122 120 116 119 120 110 117 111 115 109 108 97 90 65 41 63 56 60 62 51 54 45 59 49 48 52 50 50 48 50 50 50 49 50 53 42 54 48 47 50 49 46 43 47 50 44 47 51 55 49 53 51 54 48 52 47 71 76 70 61 65 72 68 65 49 63 65 67 62 63 64 56 57 59 85 108 111 130 131 135 133 132 128 132 134 129 129 125 125 126 122 118 124 122 121 123 116 120 121 116 120 117 115 113 107 104 82 76 46 46 58 55 58 53 52 51 48 53 48 50 50 54 46 51 51 48 51 46 51 46 51 51 50 44 44 54 46 46 50 53 51 56 50 55 53 48 56 60 74 66 61 66 67 83 68 70 49 70 63 67 63 64 61 55 80 102 123 130 130 135 132 134 137 138 134 142 136 135 131 132 128 130 125 124 124 122 125 123 125 121 121 118 123 120 119 116 115 115 106 113 82 70 46 53 57 53 53 55 54 49 52 56 52 50 49 54 48 49 50 55 47 48 51 50 48 44 49 48 51 41 49 52 54 58 55 61 57 50 65 62 70 61 45 68 68 70 66 67 58 72 74 62 63 56 63 94 121 132 140 140 140 139 137 140 145 142 139 144 143 134 140 136 136 130 131 129 123 126 122 125 126 125 125 124 123 126 116 123 117 121 118 112 111 102 88 60 43 54 49 63 50 60 46 54 50 48 55 46 54 44 51 50 49 48 51 48 49 46 45 49 45 46 51 49 50 64 51 63 54 58 57 66 60 62 53 74 64 61 66 60 72 68 62 55 55 73 113 132 145 141 148 141 150 144 143 144 145 137 147 142 147 144 144 140 143 138 133 133 129 131 128 129 127 131 132 125 128 124 126 124 123 125 118 120 123 113 109 106 78 53 44 61 53 64 41 56 45 55 50 53 44 56 52 52 47 46 52 50 51 45 47 51 44 51 52 55 51 56 52 53 61 51 59 60 54 65 68 82 54 68 69 63 75 58 64 57 83 118 138 146 149 149 150 147 146 147 146 146 142 137 146 144 147 144 144 145 143 142 140 132 132 133 132 130 126 136 134 130 126 130 130 126 126 127 122 126 123 125 114 114 116 87 58 56 51 61 51 52 52 48 51 52 50 49 56 47 49 47 54 51 47 49 53 47 47 47 48 56 52 55 53 53 58 56 54 58 57 66 72 74 64 73 60 69 66 61 56 102 129 141 147 155 149 146 149 148 149 145 145 140 140 140 145 145 144 142 147 147 147 150 143 137 137 135 136 132 135 138 132 133 131 132 134 130 133 129 125 130 128 127 122 122 122 113 100 60 50 52 56 52 57 46 55 53 51 47 55 52 48 50 49 50 48 52 50 48 48 49 60 54 56 56 64 67 62 60 54 64 58 62 67 76 75 67 67 65 65 59 107 135 144 144 151 154 147 148 153 155 151 151 152 136 142 142 148 146 140 150 147 149 154 152 149 140 141 137 135 135 137 139 132 136 131 134 134 136 134 134 129 137 130 129 129 126 127 125 115 101 61 46 52 51 54 53 57 54 52 49 54 51 50 50 46 56 44 54 48 44 53 51 61 52 52 54 59 69 68 56 64 68 66 79 76 68 70 71 85 65 63 105 142 144 151 152 154 158 150 150 161 162 158 162 152 146 146 148 144 147 143 148 148 151 151 156 151 151 150 141 140 142 145 138 140 136 135 139 136 132 137 135 133 139 132 131 135 132 126 127 123 119 112 63 43 50 55 57 58 58 49 51 52 50 52 48 50 52 55 53 49 48 49 54 51 52 51 62 55 61 61 55 67 70 76 73 74 60 68 70 86 52 110 136 146 151 158 161 161 167 162 163 167 168 171 167 158 149 152 151 147 144 146 147 152 146 152 153 156 147 148 140 140 141 146 139 139 141 136 142 137 133 134 139 135 138 133 134 135 134 134 130 127 124 125 106 57 45 51 58 59 59 53 53 54 47 49 55 48 53 53 52 49 49 54 45 52 55 55 55 56 55 60 73 85 65 74 75 66 68 66 71 67 95 143 147 157 163 168 165 168 168 162 169 169 169 174 171 162 155 153 157 153 154 142 147 151 149 150 155 162 151 144 140 139 141 148 141 141 141 141 146 137 139 136 140 140 141 137 136 136 133 136 135 127 131 125 119 112 76 37 48 61 54 48 60 56 47 56 55 59 52 52 47 51 53 50 46 51 52 56 51 62 48 74 77 77 60 76 76 62 66 69 65 82 143 151 154 169 166 171 168 171 173 171 169 173 164 170 169 166 160 164 162 159 155 150 148 151 160 147 162 162 163 142 139 136 142 141 146 141 144 146 146 143 141 140 139 141 144 139 141 133 135 138 136 133 134 130 129 120 116 70 28 44 55 47 54 57 44 61 51 57 52 50 53 53 50 47 58 56 50 59 49 64 67 70 64 78 58 71 69 56 69 65 74 130 158 159 165 175 174 176 172 170 173 170 172 174 164 172 170 172 173 171 167 165 158 148 154 161 164 161 163 166 166 156 142 137 143 139 143 144 141 141 148 142 139 141 139 136 142 139 139 141 137 140 134 138 138 132 134 130 119 115 73 30 36 42 52 56 51 58 52 55 48 54 53 60 49 46 53 50 55 57 63 77 67 71 57 74 61 68 68 60 62 52 126 158 165 171 169 173 179 178 174 173 175 170 176 176 172 175 170 175 179 173 171 169 168 156 157 156 168 159 167 163 165 166 149 144 142 144 138 147 143 142 145 143 141 143 139 143 140 144 141 141 141 138 139 140 134 139 139 130 124 124 116 60 29 27 43 53 53 59 50 55 52 54 51 49 54 46 53 49 57 55 71 88 64 62 69 64 66 59 63 56 43 111 155 159 171 175 175 180 184 176 181 184 177 177 173 179 176 175 167 173 173 170 170 165 169 166 155 155 160 157 165 162 166 168 159 149 143 146 136 147 144 145 141 143 140 144 141 143 142 141 138 143 138 137 143 140 142 139 140 138 124 126 128 104 32 25 34 52 51 53 51 61 53 54 51 56 51 48 51 63 57 70 69 80 61 59 60 68 68 63 53 38 97 156 164 168 173 177 183 187 189 184 186 186 178 176 179 183 176 177 168 167 171 175 169 168 173 169 162 152 161 156 157 170 167 155 161 154 147 143 136 146 140 143 145 138 141 138 143 146 145 137 140 139 141 133 136 142 147 135 145 138 132 128 132 127 93 18 27 41 59 37 53 58 50 50 56 60 50 56 53 57 62 75 65 67 62 53 63 63 73 62 39 81 158 166 172 175 174 183 186 190 192 185 187 189 181 183 182 183 176 174 168 165 167 180 174 173 175 169 168 150 158 159 165 166 169 155 162 151 149 142 137 139 137 136 141 139 137 139 141 140 144 142 139 141 143 133 132 139 142 142 148 143 136 131 130 132 131 54 23 25 55 43 48 45 46 51 56 54 53 72 43 51 67 66 57 71 69 58 78 61 64 46 51 136 171 169 175 176 181 190 187 188 194 183 192 192 188 188 182 178 181 175 169 166 168 173 174 163 162 160 157 154 151 157 160 166 166 158 161 146 149 146 141 141 136 135 138 140 140 140 137 139 139 139 144 141 142 135 139 143 142 137 146 143 139 136 127 131 137 118 24 21 47 50 38 51 36 45 51 49 47 73 57 55 66 53 60 76 74 71 73 58 61 30 100 168 171 170 176 178 191 193 190 190 196 192 190 193 189 189 185 180 178 179 173 168 173 165 169 161 161 156 157 150 148 152 155 163 164 155 163 154 146 156 143 139 140 134 138 133 137 138 137 142 141 138 142 141 141 139 143 146 149 141 146 140 143 134 132 130 138 139 74 14 36 55 38 37 46 47 44 48 49 62 59 53 63 54 83 75 79 78 58 65 49 44 155 179 176 174 178 182 191 191 192 192 195 193 191 193 188 190 189 187 179 179 173 174 165 170 163 165 155 155 160 146 154 154 164 161 165 165 168 160 150 158 154 140 137 136 141 132 139 137 135 144 141 141 139 145 140 139 140 146 146 140 145 138 142 135 138 133 131 146 126 26 22 52 33 35 54 53 49 49 47 59 62 62 62 68 83 76 85 88 61 50 56 81 181 181 176 181 178 190 190 193 194 195 195 191 193 194 192 190 194 187 187 180 174 168 168 160 163 162 170 160 160 158 150 157 161 159 156 158 160 153 146 147 145 144 147 136 135 133 144 134 133 140 145 143 145 139 141 138 140 148 144 145 144 141 144 142 134 135 136 138 145 70 13 47 43 22 52 60 75 33 60 54 52 67 75 64 72 89 89 79 52 64 54 134 188 183 183 181 185 191 192 191 197 195 194 193 193 195 195 190 194 186 184 179 177 170 174 158 160 163 161 153 151 153 142 145 153 149 152 156 152 151 148 146 148 142 144 144 133 135 139 136 137 143 142 141 143 139 139 140 142 148 145 142 142 143 147 149 140 140 137 142 145 115 18 44 58 32 37 66 85 44 52 58 52 64 74 73 60 112 100 61 56 68 61 174 190 188 186 182 194 190 190 196 194 193 194 197 199 192 198 196 191 187 182 183 176 171 166 151 161 159 152 150 147 151 146 150 149 152 147 158 151 152 152 150 149 149 144 143 137 137 142 141 141 146 144 142 141 145 136 140 145 145 145 143 141 147 145 149 145 140 140 142 145 139 38 30 53 38 37 53 84 55 46 66 57 63 67 71 73 138 106 56 68 58 84 194 193 191 187 188 194 187 196 201 195 194 197 199 201 198 192 195 192 187 182 179 171 170 161 157 156 159 151 148 148 150 153 150 151 152 149 155 154 151 151 149 148 155 144 137 141 140 142 148 144 143 152 146 143 146 143 142 144 149 146 146 147 147 148 147 147 142 141 143 147 146 76 12 43 41 40 40 71 78 50 81 73 66 58 61 80 132 122 68 60 57 124 202 191 192 186 192 191 186 202 199 201 194 200 199 198 197 191 193 189 186 185 176 176 169 171 159 160 163 149 151 157 152 151 148 145 154 148 147 155 150 156 146 160 152 146 138 138 144 145 144 148 153 150 149 148 148 148 148 143 148 140 145 148 145 146 149 151 142 143 137 149 143 112 22 33 44 51 41 60 83 59 77 65 73 69 52 67 105 113 80 64 68 145 203 195 191 196 190 191 191 201 201 202 198 200 193 196 200 197 192 191 191 188 184 186 174 174 168 166 165 154 151 151 154 150 143 146 156 148 148 157 162 154 163 157 155 147 140 142 144 146 144 149 155 151 148 153 155 155 153 149 152 147 149 148 145 148 151 148 146 142 140 145 148 123 37 31 44 49 55 54 94 55 75 63 86 71 59 49 64 75 95 83 70 161 200 193 194 195 191 196 197 196 203 203 201 198 192 198 201 195 199 197 200 191 189 184 181 173 174 177 166 158 154 155 155 149 139 140 155 149 144 150 162 158 167 161 159 150 144 145 150 144 152 153 153 154 148 158 161 157 155 156 150 148 151 148 143 150 140 158 147 143 142 145 149 134 51 32 37 48 69 56 95 58 67 64 94 63 58 50 28 53 112 83 77 172 200 196 196 194 197 199 197 200 204 205 199 197 192 205 203 201 203 204 199 196 188 192 185 181 184 187 173 174 163 161 166 145 144 134 152 155 150 145 158 160 169 170 168 151 137 148 151 143 155 161 154 153 158 159 160 160 158 162 153 148 146 149 141 149 146 148 148 147 148 145 151 133 67 37 41 40 87 80 67 65 66 60 94 66 63 33 39 37 92 94 95 158 196 198 200 195 199 200 199 206 205 199 199 194 196 203 200 200 202 206 201 200 194 195 194 191 185 190 178 183 169 172 172 155 146 127 150 164 151 146 150 157 182 170 170 147 144 141 150 150 152 156 149 155 156 163 157 156 153 164 148 150 144 148 145 149 148 148 145 153 157 144 152 137 70 32 51 47 87 109 41 48 46 47 84 69 60 38 39 41 61 109 102 153 190 201 203 197 197 198 197 205 204 201 197 195 196 200 197 204 204 206 206 204 199 198 200 194 183 186 184 178 182 175 182 164 146 125 145 175 153 152 143 162 184 163 152 144 142 142 146 143 151 145 149 146 146 156 148 150 153 151 147 146 143 147 145 148 147 148 150 150 153 142 155 137 81 41 61 45 59 72 37 39 35 38 79 59 63 37 53 58 28 117 109 147 182 200 202 200 196 200 202 203 200 200 195 192 195 204 196 204 206 207 206 207 203 194 200 196 187 185 183 181 175 175 180 163 145 122 143 173 156 161 145 169 188 150 141 140 142 139 136 142 143 143 140 148 142 147 143 144 140 138 140 136 133 133 132 145 152 150 154 148 148 147 151 138 86 42 68 52 39 42 30 38 34 38 59 59 66 34 73 77 13 114 106 140 177 194 202 199 198 204 207 201 202 195 190 191 195 201 203 201 205 204 206 209 206 190 195 197 191 186 177 179 173 170 169 153 144 117 142 172 156 168 154 169 180 131 135 139 134 132 127 132 130 135 135 138 136 135 130 131 124 121 122 124 117 120 109 122 137 144 149 151 141 153 147 132 91 51 55 58 35 24 30 38 43 48 69 49 92 46 80 85 46 92 95 133 168 196 204 197 202 206 206 202 195 192 189 192 193 200 199 197 198 202 196 204 200 188 187 185 183 181 170 173 165 163 160 147 140 128 138 152 151 170 163 159 157 128 113 134 122 123 116 105 101 100 106 103 106 107 106 105 100 101 92 100 107 99 104 101 119 122 135 154 146 147 148 129 91 63 42 55 43 35 50 48 55 43 66 56 93 64 57 75 78 78 86 134 156 189 206 198 204 203 207 197 192 192 191 189 182 191 187 184 188 188 184 192 187 180 173 168 181 170 155 162 153 143 159 145 149 129 129 151 127 155 151 140 141 122 102 120 121 110 108 87 85 70 76 82 78 80 75 87 81 82 86 90 97 95 96 104 101 109 119 138 152 143 152 135 94 64 50 51 42 49 51 52 54 43 71 58 69 72 48 59 73 68 81 124 144 183 208 200 202 205 203 196 193 194 190 172 163 176 174 167 176 167 171 175 164 163 147 143 158 154 135 157 138 134 138 145 148 130 126 146 128 138 144 133 123 125 101 100 122 100 98 82 72 56 63 61 57 61 63 68 66 67 79 90 97 90 106 104 102 106 114 121 151 135 150 137 102 66 53 41 56 52 51 64 49 68 63 63 59 59 47 52 57 51 77 118 125 185 204 201 201 204 195 196 198 193 162 141 141 150 138 147 152 148 142 133 126 119 122 117 113 143 129 131 131 130 122 135 132 137 116 134 125 119 133 123 121 124 97 92 106 99 85 82 67 53 53 45 48 41 48 59 63 60 66 72 77 74 85 77 73 80 88 112 147 141 145 139 112 65 53 45 63 56 40 70 65 55 71 50 53 37 59 49 35 70 58 115 110 180 205 200 202 199 199 200 185 161 137 127 128 137 122 112 120 98 100 79 72 77 81 91 83 114 117 115 119 123 124 116 127 115 112 118 126 100 120 118 115 122 101 87 84 182 118 72 60 58 55 60 66 72 80 98 111 123 118 119 125 126 140 136 129 121 91 70 100 146 144 147 109 82 52 48 62 56 52 64 83 47 55 50 42 35 64 75 33 78 72 92 120 156 206 198 200 195 202 172 145 152 138 129 129 124 122 115 114 100 110 107 107 125 196 144 105 97 93 92 99 116 111 113 114 108 114 111 124 103 112 116 105 113 95 91 86 155 99 63 75 64 66 66 92 106 118 132 139 138 134 132 132 132 147 156 157 158 126 115 86 80 140 142 115 82 61 55 66 58 62 61 69 63 30 47 50 32 61 98 51 86 67 74 123 126 209 196 200 201 182 149 146 156 141 139 141 144 139 132 129 118 122 115 112 116 165 126 103 91 88 82 86 85 68 88 112 106 120 119 119 116 122 122 105 95 98 71 85 97 113 95 88 80 77 99 114 130 137 139 140 133 126 132 127 142 138 156 161 171 158 129 114 62 90 147 116 68 68 68 75 71 65 57 64 60 54 34 56 25 72 101 74 78 67 76 108 128 210 194 201 199 163 152 146 110 98 106 113 130 133 136 137 133 135 125 116 113 109 93 105 106 110 87 106 107 112 45 77 130 130 140 139 125 137 130 130 102 57 70 95 99 130 101 89 92 105 108 108 112 108 111 106 111 101 116 118 128 143 143 147 165 172 142 120 64 59 120 103 49 50 79 78 71 77 58 68 74 83 64 29 36 58 107 92 70 55 74 106 133 208 193 196 193 164 100 97 126 152 178 171 178 166 168 171 165 167 161 146 129 117 109 111 111 119 108 114 120 130 127 36 132 159 158 168 141 142 134 143 117 46 73 94 82 94 80 87 92 90 66 65 53 54 43 51 46 46 53 68 70 96 109 122 143 156 145 140 60 66 102 79 86 52 69 56 63 94 87 59 77 90 72 38 45 51 100 99 75 45 48 102 140 204 194 200 183 87 121 143 181 190 197 193 188 172 168 171 163 160 153 148 130 123 126 114 105 102 101 113 130 142 135 75 136 190 169 170 136 133 142 122 114 139 42 71 61 73 71 75 64 54 45 39 67 29 49 60 22 36 21 63 35 52 54 67 94 108 113 104 58 77 104 27 144 163 28 43 70 95 106 70 63 98 61 56 70 48 82 97 63 42 55 85 141 198 194 215 107 110 150 172 199 205 201 199 184 168 167 157 154 144 130 128 114 105 118 110 109 102 88 93 109 127 135 132 236 131 114 111 94 72 75 53 54 108 49 48 54 63 60 56 46 53 50 70 114 37 62 48 17 41 31 70 45 40 35 37 49 71 91 66 64 66 89 10 194 228 18 35 74 86 107 71 55 71 73 64 115 69 83 97 60 34 55 72 124 195 201 190 96 95 159 197 203 205 204 196 165 142 121 101 105 93 76 71 73 63 73 77 94 94 88 87 82 106 129 140 221 37 68 87 76 46 50 59 40 92 60 39 74 76 63 64 58 64 83 101 112 79 70 94 52 62 66 77 72 64 56 45 63 62 73 75 77 62 92 9 171 222 16 49 74 84 81 60 58 69 69 58 87 123 98 103 54 38 69 45 79 173 209 161 113 50 174 209 202 206 177 137 93 71 61 23 81 47 54 41 61 60 53 55 57 72 71 93 104 117 165 168 151 68 76 84 98 90 78 90 83 69 96 81 122 115 100 93 88 104 95 98 100 100 110 107 99 91 99 104 105 113 111 109 128 96 105 134 140 40 86 88 118 119 16 54 67 101 59 55 45 74 81 75 72 113 100 83 59 42 91 25 85 137 190 183 82 31 185 216 194 168 104 64 33 123 134 36 66 31 56 43 94 80 56 60 63 72 85 116 150 145 174 175 68 83 101 143 151 133 124 115 91 38 112 105 119 124 117 109 98 103 99 100 94 99 106 110 111 103 110 119 130 136 139 133 141 130 121 164 180 57 75 152 108 59 33 61 72 108 61 50 52 96 100 82 74 77 90 66 75 67 116 4 181 160 138 173 86 44 159 192 149 86 51 35 44 144 103 57 68 63 80 80 92 91 82 83 92 94 117 134 153 148 177 168 30 64 170 181 164 145 139 138 108 28 100 114 111 109 110 102 98 99 90 94 84 88 92 93 103 99 108 119 123 126 140 140 142 141 133 168 183 88 70 140 122 53 50 66 73 89 84 54 61 89 96 72 77 68 82 64 78 73 101 8 210 183 21 96 86 35 176 155 94 43 70 79 83 115 99 98 108 112 107 98 90 97 92 95 95 93 112 133 145 155 168 146 14 116 207 185 167 148 135 153 134 47 52 125 128 114 116 107 102 104 99 104 98 95 86 85 84 81 95 97 103 105 136 127 139 147 139 155 184 145 64 123 140 61 45 79 81 85 85 68 54 83 84 67 77 79 80 84 79 71 71 4 198 160 2 87 104 41 215 191 92 113 110 116 122 127 123 121 125 124 116 109 91 91 90 87 91 89 118 150 143 166 143 107 15 183 209 186 168 144 140 146 152 111 23 101 148 131 136 131 117 113 96 108 107 110 104 107 106 100 116 107 94 113 109 105 128 128 127 155 167 191 69 125 157 71 38 87 85 85 90 85 55 76 74 78 69 94 76 80 94 66 58 24 124 147 98 101 76 40 222 215 161 152 169 162 155 158 142 140 130 121 101 107 77 87 98 100 112 112 149 163 153 154 138 64 63 209 201 180 164 147 139 141 152 137 62 55 133 153 144 141 137 135 116 108 93 98 87 93 92 100 107 105 103 116 120 126 132 139 141 135 155 203 67 155 167 90 25 74 78 91 70 81 61 71 77 69 61 101 80 94 107 70 66 58 85 145 201 117 69 67 228 218 186 184 177 167 160 150 136 126 109 108 95 93 107 112 127 128 137 152 177 166 162 143 135 34 128 212 183 176 162 153 136 138 146 144 113 30 113 149 147 147 143 140 136 126 120 121 105 106 106 102 115 119 119 122 127 130 129 138 155 158 149 203 47 185 178 100 38 63 59 80 69 87 67 85 80 76 67 111 87 119 97 99 78 71 97 151 215 107 86 101 219 210 198 181 160 156 168 137 120 120 117 122 127 121 137 134 147 159 170 179 177 168 171 138 137 42 184 202 187 177 162 151 136 133 141 143 134 70 68 142 151 155 150 136 138 130 136 137 129 131 127 121 127 125 124 126 129 133 130 141 158 169 185 185 24 213 179 119 38 55 50 74 91 66 57 94 94 89 80 133 86 99 103 104 91 105 83 157 235 80 115 121 223 216 181 169 165 152 145 133 137 144 142 149 148 145 150 162 177 175 182 174 181 168 168 157 89 85 204 198 190 179 164 152 137 142 136 140 146 117 49 116 138 151 152 138 126 134 138 135 137 137 138 130 133 132 133 129 133 135 135 145 150 159 198 151 43 208 182 121 46 54 49 75 104 51 58 63 85 70 79 115 92 90 106 92 95 95 82 170 218 91 104 162 225 207 190 176 181 166 155 143 144 147 141 150 149 150 160 176 187 166 170 161 175 177 160 181 30 154 205 192 184 178 171 153 136 140 140 139 139 141 72 73 137 153 146 138 121 132 129 129 137 139 134 139 139 135 131 134 134 144 139 150 150 169 204 86 114 188 179 129 45 50 47 67 80 58 58 69 63 59 75 117 91 75 98 95 92 82 69 176 202 150 77 205 218 209 209 185 187 176 157 158 149 147 155 151 158 160 168 177 176 154 155 155 169 172 172 140 55 185 199 185 187 172 176 158 137 134 138 137 135 151 116 63 106 140 144 133 128 131 129 135 139 136 135 144 139 140 127 128 132 135 143 153 149 191 187 59 174 182 180 146 32 52 63 66 65 47 45 76 57 56 66 109 95 71 93 97 96 67 62 172 192 209 65 200 208 208 209 193 181 180 176 168 156 166 162 170 162 165 157 166 159 146 146 158 170 160 190 57 132 196 195 185 186 174 171 167 144 131 139 138 136 149 143 88 68 137 134 134 124 130 128 136 136 136 136 144 135 135 131 122 125 129 143 160 153 219 124 112 192 185 184 155 33 51 64 70 62 48 41 76 56 74 51 88 98 84 87 84 99 65 63 159 197 220 79 141 212 204 206 188 196 191 191 172 160 171 174 171 160 168 145 152 143 149 148 155 161 177 147 40 138 199 191 192 188 169 166 178 157 139 135 137 137 150 163 112 91 95 130 110 122 125 129 132 132 128 133 140 129 121 120 117 111 117 141 151 150 155 104 184 180 183 182 166 42 41 62 65 67 50 41 42 53 66 66 66 88 69 91 76 83 66 67 154 200 203 176 68 223 203 201 205 204 198 183 178 165 178 173 165 159 156 152 144 137 155 148 151 156 178 70 90 154 195 192 207 196 170 171 179 178 141 133 134 139 158 185 146 118 91 96 108 119 134 129 129 136 126 132 127 121 120 118 123 128 127 124 109 104 125 167 182 181 171 175 169 57 45 62 64 53 53 43 35 52 59 62 75 107 65 111 95 78 74 68 142 206 196 220 86 164 207 210 212 207 204 187 180 175 180 166 160 152 156 153 144 140 147 146 137 165 118 78 122 187 186 198 216 204 169 170 173 173 133 136 132 143 172 202 174 139 142 111 83 94 120 122 129 139 125 128 129 122 126 114 107 100 101 88 116 136 153 175 176 178 166 163 166 75 46 54 71 58 49 46 51 48 63 69 68 126 89 131 120 81 86 59 131 201 203 210 191 32 193 217 214 208 206 190 185 181 172 159 157 152 158 147 138 139 134 133 147 119 86 135 184 188 193 201 216 211 175 166 162 147 124 128 128 131 151 166 185 159 148 157 131 61 81 83 85 84 79 68 71 61 66 63 75 78 99 109 127 141 173 184 176 160 165 146 143 95 55 48 83 65 47 47 79 58 67 69 60 120 118 161 99 75 92 72 122 203 207 202 196 173 62 201 217 209 204 188 185 177 168 153 148 146 146 146 142 162 147 135 101 88 162 196 193 192 207 204 196 193 178 162 145 131 124 121 131 128 128 137 159 173 164 166 169 111 36 62 69 66 68 68 73 78 89 98 109 122 127 128 151 160 181 195 183 162 151 142 140 102 55 56 64 54 51 45 104 73 64 68 67 93 130 133 97 66 82 76 105 198 210 203 199 198 169 120 142 133 157 162 170 170 169 161 160 158 155 142 126 127 101 84 83 156 202 203 203 203 206 186 173 170 167 162 142 122 119 125 132 135 128 128 132 145 177 182 180 158 42 70 75 82 88 103 107 119 115 120 124 126 126 132 154 168 178 199 187 149 152 136 133 93 59 57 52 46 48 44 106 82 73 61 62 78 148 108 89 93 81 70 90 193 209 202 205 203 207 204 202 160 145 119 112 111 114 109 101 95 92 88 84 86 82 79 81 206 213 207 207 201 190 172 155 155 159 159 142 121 114 118 133 143 126 103 91 110 133 150 166 161 67 103 104 108 113 117 117 124 114 113 113 122 128 129 142 156 176 188 167 140 142 135 130 97 58 55 53 44 41 56 109 92 79 59 76 44 129 100 95 104 71 75 78 183 212 201 202 201 204 211 213 201 193 169 143 147 135 125 109 90 84 79 82 70 77 85 94 222 211 202 193 188 165 144 140 146 163 163 141 123 110 109 128 147 87 26 31 46 78 108 139 129 52 116 115 112 111 111 111 112 102 97 103 111 117 133 131 150 154 163 154 145 135 121 133 87 57 56 44 40 45 53 106 91 84 71 96 43 86 113 123 88 83 74 91 175 201 196 200 202 206 203 210 197 203 172 153 149 138 124 114 89 79 72 74 76 92 118 118 203 198 171 142 115 82 55 48 113 158 167 147 121 91 105 120 137 48 24 45 35 42 81 122 85 63 122 116 113 108 114 103 101 100 99 87 83 104 117 123 136 143 133 132 142 140 126 116 85 62 65 43 37 44 51 110 74 67 79 87 56 83 129 109 89 83 80 84 169 195 193 198 197 203 198 206 207 203 180 170 157 143 124 122 99 96 85 94 111 135 156 153 163 175 135 86 46 51 66 91 141 172 174 149 103 81 100 121 111 101 79 89 84 74 93 82 79 84 118 122 119 116 106 104 97 99 98 102 96 77 86 112 125 126 123 120 128 136 118 107 86 61 63 54 48 44 46 93 64 80 81 88 74 67 135 108 94 77 79 90 161 195 199 197 192 198 193 198 206 205 185 160 152 141 121 108 100 103 106 128 143 167 172 166 149 146 129 85 83 124 134 148 147 144 159 158 91 86 105 92 73 88 89 108 109 66 89 84 84 99 128 126 120 118 107 105 92 93 96 101 111 107 70 82 112 125 122 118 124 126 114 98 81 54 54 52 53 51 46 102 62 92 85 79 91 34 124 114 105 65 89 86 151 199 196 190 185 189 187 197 205 196 178 150 144 125 98 108 110 103 115 143 155 171 164 176 155 148 142 130 140 148 127 114 123 107 113 130 97 88 68 53 60 58 64 89 80 70 85 80 108 111 123 123 119 108 107 104 94 87 89 89 112 108 131 75 85 126 120 104 115 116 119 95 63 47 56 55 58 38 50 64 81 76 92 84 80 63 66 102 91 69 90 87 136 194 184 188 170 182 190 195 194 194 174 118 108 100 127 105 95 114 131 142 156 168 162 162 164 153 158 144 126 126 113 117 102 102 81 58 50 43 64 47 70 78 45 67 86 67 103 98 111 113 129 123 117 112 95 98 93 96 69 77 91 97 132 149 57 127 112 90 111 100 112 93 64 48 58 61 49 45 42 77 58 70 88 81 87 71 78 93 78 59 91 90 128 176 174 166 158 187 186 186 187 174 119 100 118 131 113 88 104 128 133 141 152 162 140 159 142 160 146 129 115 132 106 125 111 98 73 48 49 35 67 80 62 92 72 51 101 64 95 113 100 97 109 117 115 104 104 82 90 93 67 78 70 88 118 152 92 105 103 76 109 98 98 69 78 46 57 60 41 44 41 64 76 74 85 72 73 68 84 78 73 68 88 103 122 179 171 158 172 176 183 183 173 129 95 155 152 115 84 95 124 136 126 143 142 145 145 142 150 136 123 118 96 129 111 127 108 93 72 66 43 56 37 92 90 66 107 67 104 66 89 124 73 94 103 93 113 101 93 86 75 89 78 75 79 84 100 131 110 106 72 90 97 103 87 53 66 63 51 48 41 44 55 65 64 72 67 60 82 79 74 73 64 81 82 109 117 179 161 153 169 169 180 172 160 75 181 152 111 85 86 119 132 127 129 139 110 145 136 128 129 121 118 116 95 121 123 124 65 95 65 86 63 52 57 64 120 59 101 95 102 51 99 102 81 94 78 89 113 91 87 90 77 74 88 67 81 78 89 106 113 96 60 83 92 96 76 47 61 57 59 38 49 41 62 62 59 68 63 64 83 80 75 67 68 74 89 90 126 160 135 143 141 166 169 158 94 125 180 107 67 101 125 119 106 110 131 119 113 143 105 129 122 124 94 137 94 117 124 114 71 91 45 94 73 87 53 69 78 60 73 95 75 77 84 93 55 106 85 79 96 98 66 97 72 60 86 70 88 77 86 96 107 75 63 61 83 80 52 54 52 59 59 45 35 39 49 67 68 63 57 78 76 70 64 66 77 81 65 96 124 138 121 134 134 163 149 156 86 157 137 93 101 117 119 96 96 136 119 109 135 136 99 128 115 114 75 139 108 124 113 110 67 76 46 93 83 81 75 74 48 64 59 72 70 80 86 93 58 89 83 78 81 74 78 87 76 56 77 66 78 68 81 87 100 57 61 57 65 62 48 51 46 61 65 38 37 48 38 71 74 48 80 86 77 70 68 59 63 65 59 103 126 114 126 111 119 150 149 158 95 144 139 104 105 107 105 75 99 132 98 125 136 132 105 114 141 83 105 105 109 100 90 90 68 61 64 85 86 73 69 80 33 62 64 75 58 69 86 87 64 85 91 75 84 51 74 65 76 44 57 66 68 60 69 70 82 62 47 58 57 50 50 46 43 61 62 44 39 52 40 60 69 59 90 82 85 53 88 67 80 54 78 116 103 94 114 92 134 144 142 142 104 135 144 96 84 99 94 63 124 103 90 138 116 116 103 108 136 98 112 100 90 87 93 66 68 66 54 76 70 67 60 64 47 44 62 84 43 62 85 79 68 72 88 63 73 43 81 59 64 29 62 43 72 52 84 59 60 63 47 58 37 68 38 48 56 54 56 41 40 50 50 72 62 64 85 68 94 64 50 72 69 59 101 113 87 87 102 115 111 134 127 147 117 134 112 92 76 88 76 63 102 80 92 110 128 106 84 117 120 119 105 77 90 68 98 57 52 87 62 62 75 66 51 72 72 68 70 62 52 51 78 63 72 63 75 48 49 38 55 70 41 28 63 39 62 46 89 70 56 55 51 57 30 85 32 64 37 58 56 42 42 50 57 66 69 59 77 77 92 62 66 71 79 92 100 91 95 95 92 111 105 122 125 134 115 111 105 106 83 65 72 70 79 81 74 102 112 97 61 119 85 120 99 89 73 99 128 87 58 113 69 149 107 64 89 121 138 121 103 49 71 77 93 66 72 92 33 47 30 24 42 43 40 36 44 37 51 43 81 92 55 54 63 55 33 62 42 53 35 61 53 43 34 53 66 63 73 63 76 74 97 66 70 61 90 77 110 82 90 101 86 103 98 117 115 120 113 93 109 102 71 65 70 61 77 54 82 88 77 78 62 68 67 98 140 131 38 152 186 105 85 164 156 228 217 92 140 158 166 147 144 73 91 91 156 71 69 110 29 33 27 34 57 37 46 44 46 38 60 42 72 93 75 42 67 63 36 54 51 51 36 54 62 42 46 50 69 63 70 62 73 78 78 70 64 69 71 90 104 92 90 93 70 113 104 85 108 112 101 90 119 84 75 52 69 68 56 49 73 66 75 41 40 29 57 96 186 146 52 192 238 138 126 190 182 204 214 131 146 170 172 166 174 128 111 91 195 89 63 85 59 31 47 53 57 55 40 46 51 50 70 48 77 70 84 58 75 53 51 56 55 55 51 42 53 70 52 49 50 57 60 65 80 54 60 68 77 71 85 73 112 87 88 81 67 100 81 85 100 106 90 101 110 80 74 60 52 61 60 49 74 79 90 71 49 37 58 104 158 145 80 159 223 174 96 215 184 199 208 145 127 169 165 154 179 70 106 122 123 68 85 83 89 52 63 58 63 69 49 57 53 56 59 73 84 54 70 72 58 41 50 46 55 53 57 48 48 53 83 54 40 53 62 74 84 57 63 62 78 77 73 69 88 83 73 86 80 89 85 78 88 88 74 115 87 89 66 56 63 50 61 65 85 96 99 102 94 85 105 144 168 132 87 74 177 132 46 205 196 169 140 56 76 156 144 137 149 58 72 112 104 99 115 108 103 75 66 67 69 78 60 56 72 56 55 77 76 59 65 55 55 39 48 46 49 50 57 49 42 48 64 51 41 63 75 78 79 66 54 89 68 76 72 69 69 83 54 83 70 78 83 74 90 77 70 106 86 78 70 66 62 44 59 72 84 97 112 103 122 139 137 161 172 144 133 107 118 80 40 118 135 105 76 79 90 97 97 99 102 104 108 101 110 96 122 127 113 80 71 79 70 75 78 60 78 68 58 65 60 60 59 56 51 36 44 46 41 48 45 53 47 48 50 40 48 76 76 70 63 60 56 74 64 70 74 81 72 78 43 71 61 92 77 78 95 77 72 88 86 76 70 62 73 44 56 65 88 103 107 103 112 160 177 169 174 171 170 156 143 130 127 126 125 141 130 145 130 126 123 115 111 112 103 100 103 106 115 145 102 85 80 77 79 64 87 61 61 83 60 68 56 54 58 65 55 37 32 50 47 43 46 47 47 53 54 47 47 68 74 55 66 55 57 61 61 73 90 67 78 74 50 57 69 88 71 72 79 84 58 60 84 67 63 65 58 51 56 57 77 98 97 101 107 135 177 186 185 181 178 170 140 127 140 136 140 142 144 150 136 121 120 101 98 102 95 100 106 111 132 121 101 89 91 79 88 78 58 93 67 66 64 58 47 54 49 74 51 40 42 51 50 40 45 47 52 33 67 67 51 73 66 61 58 63 63 63 52 75 73 65 80 74 70 64 76 75 70 82 72 73 62 67 76 56 79 57 63 42 64 71 64 88 89 100 102 117 143 171 188 199 186 169 153 126 130 127 133 135 141 137 121 104 107 98 95 97 103 115 114 123 121 110 87 108 97 87 84 72 80 87 71 48 84 40 52 52 46 60 49 42 42 54 32 54 68 48 56 49 56 62 56 71 71 65 69 62 72 70 61 58 82 49 94 71 78 78 69 70 72 79 73 78 55 61 75 62 69 55 71 47 58 53 62 83 82 101 93 103 124 147 163 186 191 183 166 146 140 142 137 143 137 136 116 112 109 109 108 109 108 122 107 118 108 101 96 81 103 93 70 61 77 92 61 54 62 63 38 54 47 43 54 52 33 52 33 47 72 49 61 45 68 55 53 65 67 58 78 62 60 55 86 65 57 36 95 69 75 76 63 65 81 73 69 82 48 56 75 63 55 55 79 63 62 51 64 80 72 94 78 99 114 126 132 150 155 169 157 152 144 139 133 131 135 127 103 107 114 113 111 103 112 106 124 101 108 93 93 104 71 110 71 55 53 80 52 63 41 72 43 46 47 42 50 49 40 43 42 44 59 72 49 52 65 53 40 81 66 68 70 60 70 55 123 66 39 59 68 60 65 79 60 67 62 66 63 48 61 74 68 60 57 72 45 97 37 83 74 59 71 76 73 97 110 120 111 136 118 124 123 133 118 127 123 110 118 115 118 82 111 114 116 91 89 126 97 132 100 87 81 92 79 91 88 45 47 46 62 53 63 57 57 37 49 47 47 51 45 45 40 58 59 62 39 41 58 67 31 76 63 74 77 49 77 63 94 65 66 56 63 55 54 69 76 70 53 59 66 58 81 72 56 88 54 65 56 100 26 88 76 68 64 64 87 99 106 105 86 153 90 116 106 114 108 112 121 104 112 92 117 98 88 105 104 114 78 99 110 106 101 92 78 75 84 90 81 50 51 50 86 46 59 31 76 42 46 49 50 59 35 50 40 56 59 49 42 42 53 56 47 71 65 62 66 60 67 72 58 76 67 64 57 55 51 59 97 74 54 43 73 79 74 57 70 87 50 68 53 111 32 75 76 66 53 56 90 105 103 88 91 125 89 106 96 101 101 109 94 88 111 85 91 95 96 102 99 105 102 69 122 86 100 88 70 59 68 85 68 58 47 65 77 39 54 43 51 54 38 59 46 70 38 38 45 54 58 53 43 41 47 59 68 67 66 56 59 77 63 61 64 55 75 71 63 74 60 49 81 84 48 67 66 77 76 52 94 64 64 80 34 120 51 51 74 74 48 51 77 92 73 93 82 98 89 91 102 81 89 110 103 77 109 93 80 84 87 87 98 90 97 63 108 72 66 86 71 48 64 83 67 51 33 70 70 43 45 58 58 40 34 47 45 63 64 47 42 41 64 55 49 46 44 63 53 67 68 71 55 58 61 50 71 59 59 50 75 63 51 77 61 81 52 65 66 86 76 58 93 74 89 46 50 116 67 25 84 82 57 61 58 72 77 76 78 66 69 75 84 71 67 85 82 85 85 102 64 70 77 78 81 83 61 57 89 46 68 72 59 45 55 69 55 35 50 35 51 71 59 52 58 47 44 41 50 59 72 84 29 42 57 62 52 40 49 63 47 61 67 64 58 57 58 53 62 62 49 47 73 63 57 75 57 66 59 53 72 92 68 44 92 86 85 66 58 140 52 30 87 55 74 41 58 52 59 48 69 55 63 62 66 59 57 73 71 53 84 87 82 63 69 66 75 68 56 59 82 46 54 62 57 51 48 57 47 38 56 31 39 50 76 62 56 50 55 37 43 51 57 92 39 39 46 54 47 43 46 56 52 65 63 69 54 56 47 41 60 62 40 49 73 54 54 73 65 59 56 61 74 84 63 45 101 64 58 100 42 142 90 32 88 44 64 72 52 41 41 37 55 55 57 67 65 63 55 55 57 47 71 61 68 62 57 59 54 50 45 53 58 52 46 53 68 53 42 71 22 44 49 43 39 58 59 48 75 58 41 57 47 42 52 80 56 37 34 46 49 49 44 48 39 69 62 73 55 53 49 47 43 48 69 37 56 45 74 53 67 62 56 62 73 86 58 54 74 59 55 75 47 127 41 88 80 44 90 97 57 30 52 32 39 45 74 59 85 72 52 50 65 62 53 47 63 59 47 40 40 45 51 54 47 43 58 49 60 39 57 60 23 48 60 54 26 91 65 24 69 71 28 53 55 48 44 89 62 48 39 44 43 59 40 44 28 64 66 67 65 61 61 54 45 52 88 49 39 84 65 53 79 63 64 41 75 83 71 61 56 88 74 55 66 106 40 81 83 24 120 104 74 48 49 43 48 49 69 63 57 56 53 44 60 48 55 48 59 53 51 39 32 33 64 46 49 55 47 50 56 47 60 45 39 36 68 51 24 79 58 40 36 75 58 37 63 46 38 58 80 65 34 41 35 56 41 36 35 65 64 75 66 56 71 57 56 52 69 51 44 70 40 73 78 58 58 54 43 100 67 49 64 91 74 62 73 86 55 77 70 25 98 141 55 75 69 43 32 49 54 55 56 65 52 51 37 56 53 47 52 73 62 49 40 55 56 56 63 49 39 63 37 51 57 40 45 29 56 37 62 75 48 54 46 56 59 31 81 50 53 26 88 56 28 46 48 41 47 41 34 66 64 69 67 56 63 62 75 56 57 64 50 51 39 74 67 55 67 50 50 91 80 42 73 97 66 75 68 89 49 86 56 35 91 150 78 75 44 44 52 33 32 62 50 84 61 57 56 60 59 56 56 74 52 44 28 71 56 65 50 52 54 61 31 60 47 38 38 52 38 37 54 65 61 56 61 56 47 41 70 67 58 31 78 54 22 42 54 44 44 43 43 64 74 58 64 65 70 48 60 56 51 50 47 48 54 73 67 60 75 49 89 72 93 51 88 82 54 94 36 116 37 89 52 55 76 160 92 71 47 44 59 33 40 69 66 68 85 70 66 61 55 69 70 59 77 57 32 69 75 57 40 45 74 43 47 79 58 39 33 62 29 30 42 59 64 77 61 42 51 36 81 63 47 53 60 61 24 45 49 47 46 38 52 78 76 70 66 72 64 60 62 54 38 74 32 53 62 76 62 68 52 83 95 88 75 84 87 57 50 88 46 105 36 82 49 74 41 141 119 62 68 31 45 65 65 77 93 30 93 84 50 62 69 60 55 42 70 70 51 57 77 58 22 70 53 36 74 79 52 51 40 64 36 32 39 50 68 77 87 36 49 38 79 69 51 40 67 51 36 45 62 52 48 52 37 68 65 69 69 79 67 61 59 67 66 72 51 59 83 83 66 76 57 107 75 84 65 76 59 61 60 65 55 80 57 55 57 76 40 124 106 72 80 25 64 60 75 68 85 40 100 51 64 90 59 69 57 49 70 77 55 63 64 43 42 74 23 53 64 63 63 52 49 78 38 41 48 30 84 42 128 61 47 57 57 67 61 24 77 52 24 36 63 50 53 41 45 64 70 75 70 68 73 56 78 51 77 70 77 85 85 64 69 81 71 105 77 77 63 62 56 62 74 54 53 68 53 48 77 66 31 106 107 82 86 32 63 76 78 60 74 72 96 45 89 69 79 63 31 60 54 83 38 58 46 47 56 57 26 55 68 45 77 45 56 66 48 31 70 36 87 46 123 57 49 82 46 41 84 15 77 48 19 41 45 48 49 51 45 64 64 68 70 68 66 53 89 46 73 59 76 86 91 54 71 100 68 82 80 72 80 49 61 45 71 55 60 53 45 65 69 66 29 105 91 83 92 49 63 69 91 62 69 91 83 61 68 87 49 52 30 53 36 74 45 44 58 45 47 48 45 32 55 60 77 65 46 61 46 28 41 68 73 39 105 68 38 73 90 20 86 18 60 44 24 39 34 49 39 52 42 67 64 69 68 72 61 74 89 69 73 72 85 95 80 45 86 69 55 71 80 74 104 40 56 35 74 67 60 48 54 75 79 59 41 73 90 78 62 71 54 44 114 73 52 82 74 63 48 67 59 40 50 55 34 62 42 48 65 25 53 36 69 20 42 79 59 81 43 71 32 62 36 54 78 50 64 92 45 49 78 49 66 49 46 59 27 30 28 56 36 41 37 67 67 67 77 63 58 64 82 75 73 50 89 83 53 71 82 67 56 63 96 63 65 57 48 38 66 72 73 50 87 51 97 69 48 63 89 85 44 76 55 56 117 71 61 51 88 53 39 74 69 41 57 52 40 66 39 59 46 44 42 33 74 34 25 74 61 72 39 66 33 71 43 51 61 72 38 90 54 54 51 37 65 60 50 51 26 29 33 44 40 42 32 60 65 68 71 71 66 56 79 69 90 55 97 75 49 83 61 58 68 61 105 44 66 54 47 54 64 84 56 85 103 41 80 71 57 78 79 79 16 64 79 71 117 76 43 45 105 48 44 78 67 37 70 32 39 72 48 55 37 54 27 43 58 52 24 66 74 52 61 43 66 62 46 48 52 72 38 68 74 63 45 45 33 88 45 39 31 29 39 48 50 55 39 65 63 76 70 69 67 63 77 67 86 48 112 97 63 70 54 48 63 74 81 59 68 51 57 65 95 65 53 95 61 82 57 70 63 80 54 81 5 72 94 74 125 80 10 50 101 53 44 77 70 53 56 52 40 72 57 51 51 55 20 69 16 79 34 58 67 55 51 36 97 64 41 49 45 65 50 56 74 61 48 48 39 78 49 21 43 22 47 41 46 67 33 