P2
92
112
255
121 121 122 122 124 121 124 124 120 123 119 119 122 120 116 123 115 117 117 117 111 116 113 123 118 118 109 121 111 102 93 88 95 99 100 109 109 113 114 107 107 100 101 108 105 92 88 80 80 84 81 80 93 90 100 102 101 109 111 105 116 119 113 123 117 119 125 121 122 124 123 123 120 124 123 122 121 120 124 123 122 121 118 124 119 122 120 121 121 121 120 120 121 120 118 122 121 120 122 121 121 123 117 123 119 120 109 113 112 115 113 118 116 116 114 118 112 111 100 101 88 86 85 87 93 104 109 119 123 128 135 131 129 127 112 110 112 101 96 91 91 73 69 69 74 75 83 86 91 107 105 113 122 116 120 120 118 118 122 123 124 121 122 123 120 123 125 123 120 121 121 123 122 122 122 121 119 121 119 121 121 123 120 122 119 122 121 121 123 121 121 121 123 123 118 119 114 120 105 114 104 112 102 115 113 108 109 108 100 92 89 81 73 74 90 93 108 131 147 160 156 160 158 157 152 148 144 143 142 140 135 133 114 103 83 68 63 64 61 73 81 109 100 104 125 122 117 120 121 116 124 123 125 123 123 123 123 121 124 124 123 122 122 122 122 122 122 121 120 123 121 120 124 121 120 121 121 124 120 123 121 123 123 120 123 120 118 108 111 113 107 117 104 109 111 109 105 100 103 101 87 81 83 77 83 96 115 124 146 164 166 173 170 170 169 172 168 173 171 169 168 167 167 164 152 138 130 108 79 67 70 54 49 86 94 105 121 124 119 123 123 115 123 120 122 124 124 122 123 123 122 121 122 121 121 125 119 124 122 121 122 123 122 121 124 118 124 120 117 123 118 123 122 120 122 121 117 118 117 110 111 109 107 107 110 106 107 101 98 91 95 99 83 84 83 96 108 126 138 160 173 173 174 173 176 176 176 182 178 182 183 178 175 175 177 175 175 166 163 149 129 105 82 62 44 44 71 97 120 118 119 120 121 120 121 118 121 124 124 121 124 122 122 123 120 126 120 125 120 124 119 121 121 122 120 124 120 123 122 119 122 123 122 121 122 121 118 118 113 114 116 110 110 104 103 96 101 106 103 100 93 78 79 80 78 87 104 117 134 156 165 175 179 176 176 180 179 180 182 183 184 183 182 184 182 182 182 182 183 182 175 175 166 152 141 114 84 46 50 52 108 118 123 119 120 123 121 120 121 122 125 125 123 124 122 126 120 125 122 123 125 117 124 123 122 122 120 123 119 120 123 118 125 119 121 118 120 123 115 119 115 115 107 105 103 105 103 99 93 89 85 81 82 72 69 87 91 116 135 145 150 171 170 176 178 180 180 180 180 183 185 184 187 188 185 182 183 186 184 184 184 183 181 181 179 174 167 153 140 98 66 46 62 98 117 117 120 122 119 122 124 118 125 125 121 124 122 121 121 124 121 123 125 119 123 124 123 124 123 123 120 121 121 121 123 121 119 116 116 118 113 121 106 109 101 107 106 106 110 106 95 91 79 62 74 70 86 102 121 141 146 156 169 170 174 174 180 183 183 182 180 183 186 185 188 188 184 187 184 184 185 187 187 182 185 178 182 182 175 172 163 159 137 84 54 54 98 117 123 120 118 124 123 121 122 123 123 123 126 122 125 122 123 121 123 122 122 122 120 122 120 126 119 123 121 121 120 119 116 114 118 112 112 108 106 100 93 107 106 103 102 94 90 80 73 69 89 98 103 123 144 149 153 164 174 171 178 180 185 185 183 184 185 184 185 186 186 189 189 187 189 185 185 192 190 187 184 186 185 182 180 177 176 168 161 155 120 67 77 106 116 124 118 121 120 126 125 121 124 125 122 123 124 122 124 125 123 123 123 123 123 124 119 123 122 122 122 120 121 120 113 116 114 110 111 109 100 101 95 97 97 90 90 84 76 73 62 92 117 102 119 141 152 154 165 168 174 175 181 183 184 184 186 190 187 187 187 187 189 189 189 192 188 188 187 190 190 190 187 189 190 181 183 184 185 179 175 169 163 144 96 91 115 122 120 120 122 126 127 121 125 126 123 125 123 123 124 121 123 122 122 126 122 125 124 120 122 123 123 122 120 117 111 116 116 108 105 97 102 98 98 88 87 89 91 85 64 69 89 117 120 112 135 158 163 167 172 176 173 179 181 184 184 183 187 191 188 187 192 188 190 190 190 189 190 189 190 188 191 191 192 187 188 189 184 186 188 182 182 182 173 172 159 123 99 110 122 121 120 120 122 124 124 123 124 124 127 123 124 123 122 123 123 124 122 123 121 122 121 121 123 119 111 112 112 115 111 100 97 97 104 102 91 94 89 94 90 65 57 92 108 118 118 129 152 167 162 174 175 174 174 178 179 184 184 186 187 191 190 186 191 192 190 192 190 191 189 191 191 189 190 192 194 187 190 191 189 186 191 184 182 183 177 176 171 161 130 81 103 119 124 121 118 123 125 120 122 120 120 123 126 124 126 124 124 122 124 123 125 122 123 120 125 120 102 106 109 105 104 94 103 106 103 95 99 94 80 77 64 60 88 117 122 128 130 151 166 166 166 176 182 180 176 178 184 186 185 188 188 190 190 190 191 194 192 193 191 192 193 189 192 191 189 193 191 189 189 195 191 190 192 189 189 186 182 179 181 173 172 123 61 77 103 117 112 117 117 115 123 121 124 119 124 125 123 124 125 123 123 123 123 121 125 123 125 118 95 107 106 103 100 100 98 96 95 93 94 91 68 71 55 86 119 116 133 144 150 162 169 172 176 180 180 181 187 186 190 189 191 192 189 191 191 194 196 196 194 196 195 193 193 190 192 193 196 194 190 189 191 192 194 192 193 192 192 190 189 184 182 180 172 172 124 53 64 86 115 113 118 111 117 121 121 122 123 125 122 121 123 124 122 122 123 122 123 120 122 122 104 106 106 102 90 97 100 92 97 95 80 68 60 53 77 119 120 129 148 156 163 165 170 176 179 187 185 186 191 193 194 193 195 197 191 191 192 195 199 200 197 199 196 196 193 193 193 195 198 195 193 192 193 192 193 192 195 194 192 189 190 188 184 179 175 171 165 126 48 50 88 101 120 117 119 117 121 123 121 123 122 122 125 124 123 124 124 122 123 120 121 122 105 108 103 100 100 99 94 92 92 80 73 56 51 89 114 123 132 144 157 162 160 167 171 182 181 185 189 189 191 195 199 199 199 200 202 196 191 194 199 197 194 199 199 199 193 195 194 195 194 194 197 195 194 196 190 193 194 193 193 191 191 190 191 180 177 174 171 158 136 42 49 83 93 98 109 100 113 112 118 116 116 119 124 119 125 122 123 124 121 121 123 122 109 100 97 98 101 104 95 94 93 81 60 40 81 118 125 125 139 156 159 162 161 167 170 182 181 184 186 191 191 196 197 203 202 201 202 200 200 193 200 197 195 198 203 199 197 194 197 196 193 195 196 196 196 198 194 193 195 198 191 193 192 191 191 186 181 179 177 161 157 127 27 52 75 81 96 88 105 105 110 110 110 118 119 119 123 121 120 123 121 123 121 123 110 99 88 100 102 104 107 97 90 68 30 60 126 131 124 134 147 157 161 161 164 171 172 178 181 186 186 190 192 193 202 204 205 203 204 200 201 200 198 198 196 198 201 202 197 197 196 199 195 195 198 196 201 198 197 197 197 196 195 195 193 191 191 188 185 184 185 163 151 166 99 23 72 69 86 97 91 111 114 118 109 108 110 124 124 124 119 122 123 124 122 125 108 99 94 95 98 102 101 96 72 34 49 111 138 133 126 134 151 158 159 168 169 166 175 175 182 185 189 188 193 197 198 202 202 202 202 202 202 197 200 199 198 200 198 202 201 197 195 199 198 196 199 197 198 198 199 199 199 195 196 195 193 191 193 191 188 188 184 174 150 151 163 60 37 77 72 92 102 96 108 113 119 119 111 104 123 124 121 124 125 122 123 124 101 94 101 98 100 82 95 93 58 20 104 136 141 133 123 135 146 159 165 165 169 167 172 176 179 183 186 190 195 200 198 198 201 199 200 202 202 195 200 199 198 201 198 200 201 197 196 199 198 197 199 196 197 199 200 199 199 195 196 195 193 190 193 194 187 188 181 181 158 146 164 134 23 73 67 77 92 110 105 109 110 114 121 114 107 121 124 120 123 122 125 116 94 95 91 90 82 75 85 84 37 56 134 141 140 135 122 134 150 158 161 162 165 167 172 175 177 183 186 190 193 198 199 199 202 200 200 200 199 198 200 200 197 200 202 199 200 199 199 198 199 196 198 196 198 201 199 198 198 193 197 196 192 192 192 193 186 182 177 180 170 145 158 172 91 41 67 68 78 91 108 106 112 109 108 121 109 113 121 125 123 125 120 122 92 79 94 87 71 84 88 62 29 96 139 140 139 134 125 138 149 157 157 159 159 166 171 174 177 183 190 188 193 199 198 200 197 200 198 201 199 199 199 200 198 199 203 201 201 200 196 195 198 197 198 195 200 198 200 196 196 197 195 196 192 190 190 190 182 183 176 178 173 151 155 162 154 46 59 68 88 80 98 108 102 108 104 115 118 108 120 126 123 121 124 125 86 81 93 81 70 90 82 31 58 125 144 143 141 140 125 140 155 157 159 162 165 163 171 169 174 184 185 190 193 199 199 196 200 201 199 202 200 201 199 196 198 200 203 201 202 200 199 195 196 194 198 196 194 197 199 195 196 197 198 196 194 187 189 185 173 186 182 179 174 162 153 157 172 105 41 68 93 85 86 104 107 102 103 113 120 108 123 118 126 125 120 124 93 91 88 75 82 88 54 31 86 138 141 142 139 140 129 143 150 158 158 164 166 166 172 170 170 183 183 189 196 199 198 195 200 200 200 200 200 201 201 198 198 198 202 200 202 200 196 198 196 195 195 199 194 192 195 194 196 196 197 194 196 191 189 189 178 184 184 179 177 168 154 154 159 160 46 57 85 75 67 93 109 105 105 100 118 110 123 118 117 125 121 123 87 88 80 68 93 65 43 37 113 135 144 144 138 142 134 139 150 152 164 162 166 162 173 176 172 178 185 191 195 198 198 195 199 198 203 200 198 202 198 199 199 198 199 201 202 200 199 200 199 194 195 201 199 192 193 193 197 197 196 193 192 191 189 191 181 186 188 181 175 171 159 153 157 167 95 46 82 53 57 81 101 114 108 98 104 106 122 119 115 121 124 124 74 71 68 81 73 56 35 66 124 138 140 142 136 143 137 134 151 153 167 167 163 160 176 172 174 179 186 188 195 195 197 198 198 197 198 199 199 201 197 197 198 199 200 200 201 199 199 201 201 199 196 198 198 198 195 198 195 197 195 193 194 192 189 189 187 186 188 184 175 170 162 161 155 158 143 51 64 61 35 72 83 91 104 105 104 98 118 114 119 122 122 125 60 60 71 70 67 55 47 70 130 138 140 140 139 144 143 129 148 157 163 169 158 161 173 171 171 172 185 185 193 193 196 197 193 197 196 198 198 200 196 197 197 198 198 200 199 196 200 202 199 199 197 198 196 194 198 197 195 199 197 193 195 192 191 188 188 182 186 189 180 169 164 160 156 149 162 67 66 59 43 48 76 96 82 110 104 98 117 116 118 118 123 122 63 59 64 70 74 51 54 80 128 133 134 140 140 150 142 127 145 162 165 169 164 163 168 173 166 175 182 187 189 192 199 199 194 196 195 197 195 199 199 198 196 196 200 199 199 199 200 197 200 200 198 196 199 196 197 197 194 198 195 194 192 191 190 193 186 183 191 184 184 173 163 159 155 144 164 105 45 87 59 39 64 92 84 102 101 95 108 120 115 114 126 121 62 54 76 74 70 59 54 83 129 131 132 138 140 150 148 126 147 163 166 167 171 168 164 168 167 177 181 187 192 194 196 196 196 193 195 197 196 194 199 199 198 197 200 198 199 198 199 200 198 201 197 199 198 199 196 198 199 199 198 193 193 192 189 190 186 184 195 190 185 176 162 158 149 146 154 136 28 80 81 32 49 74 84 90 99 97 107 123 117 105 122 122 62 53 89 67 73 67 48 88 128 132 131 133 137 148 146 131 140 159 165 171 171 172 172 166 168 175 177 185 192 195 192 196 197 196 196 198 196 198 197 201 198 200 199 197 198 200 198 200 196 198 201 200 198 199 196 200 200 200 196 198 192 194 194 191 186 183 190 191 184 173 162 160 149 146 152 147 41 48 84 36 33 52 81 85 97 102 95 118 111 115 116 121 59 61 83 67 73 67 33 97 125 131 133 130 133 147 145 143 138 154 165 174 175 173 172 169 164 170 180 186 191 193 196 198 197 195 197 200 199 197 198 199 201 198 201 198 198 198 201 200 197 197 200 199 197 199 199 201 200 199 198 199 195 195 194 195 186 188 194 192 183 181 168 167 157 149 144 158 59 36 60 52 26 29 57 92 91 110 92 105 115 115 112 116 64 72 87 67 71 62 37 91 124 126 131 126 132 144 149 145 143 152 165 170 176 174 174 170 168 169 179 184 189 193 196 197 197 198 199 202 198 199 199 198 201 199 200 200 199 201 201 197 200 199 201 198 200 198 201 200 202 198 202 197 199 200 196 197 189 188 195 189 185 183 177 165 160 148 144 161 68 30 64 43 42 23 25 71 100 95 97 103 100 99 97 113 70 76 78 67 66 55 37 85 116 121 124 123 125 142 147 146 136 149 167 171 176 178 172 170 175 170 178 185 187 194 195 197 197 200 201 202 198 200 198 199 200 198 200 200 202 197 198 200 200 202 201 200 199 201 199 200 202 199 200 199 200 200 195 197 188 193 195 192 184 186 185 168 160 148 141 161 82 32 68 29 37 37 17 38 94 93 89 88 78 68 94 92 71 71 66 67 68 38 52 66 108 122 119 121 118 143 149 148 140 155 168 174 178 180 179 178 180 177 177 179 186 192 192 194 197 197 199 199 200 198 198 199 202 199 199 200 202 198 197 199 202 201 201 202 198 201 201 201 201 199 201 200 199 197 196 196 194 196 197 192 190 189 187 178 158 143 144 151 105 23 66 48 19 33 30 29 81 87 88 72 63 49 95 69 73 68 58 68 59 31 50 54 99 114 122 122 119 141 150 144 150 156 166 173 181 174 180 182 185 177 177 176 185 191 190 191 194 197 197 198 201 199 199 200 201 198 198 200 199 202 196 199 202 199 203 202 198 201 201 201 199 198 200 199 199 196 198 198 194 200 199 189 188 191 187 185 161 135 144 151 99 37 48 61 10 27 47 35 66 66 79 63 54 49 65 63 68 72 59 54 45 34 48 51 86 113 126 116 119 136 144 137 151 160 166 178 176 177 184 181 186 183 180 180 181 186 188 188 187 189 194 194 199 198 199 200 198 200 195 200 199 201 197 196 198 202 202 204 198 198 197 196 196 201 200 195 199 200 197 197 190 198 195 186 175 178 189 188 173 134 151 144 95 53 44 46 19 29 38 45 75 64 54 44 36 42 37 39 63 72 60 37 44 30 39 50 73 102 133 117 110 130 141 137 151 159 170 178 178 184 189 185 183 183 182 179 182 185 185 186 182 183 189 190 193 196 195 200 198 202 194 199 200 201 197 196 199 202 198 200 198 196 192 194 197 199 200 198 194 193 192 184 175 179 184 169 162 157 180 179 179 138 150 144 97 56 47 43 24 35 27 45 75 74 50 35 30 39 31 38 69 59 49 38 42 23 44 47 58 94 126 126 115 124 129 137 152 162 177 176 179 183 190 189 190 187 190 180 183 189 185 185 180 180 182 185 188 186 193 194 196 200 192 198 199 199 200 195 199 197 194 198 196 190 176 182 184 188 182 185 180 170 161 145 137 144 149 146 139 129 151 157 159 143 142 146 89 65 48 46 31 34 24 55 83 69 48 21 44 42 35 58 62 49 37 46 39 21 43 53 49 88 104 124 116 125 121 136 155 163 175 167 171 177 183 186 185 187 192 187 188 187 191 181 187 184 175 180 182 184 192 194 196 198 190 194 197 196 199 192 192 190 185 186 190 180 166 154 148 137 132 135 135 137 136 127 125 125 137 134 133 129 122 126 139 125 141 151 86 65 50 54 29 42 37 50 89 74 44 31 53 57 57 76 53 39 39 44 35 28 47 57 36 90 100 114 119 119 121 143 159 161 162 150 153 157 163 160 157 163 177 180 179 184 173 173 181 186 168 173 165 169 183 189 196 198 188 190 194 192 195 179 182 171 177 173 180 166 150 136 122 116 97 104 102 103 104 100 110 127 144 141 143 146 134 108 118 103 134 154 100 50 42 64 33 39 35 42 81 70 34 30 56 65 92 106 48 35 38 29 39 29 52 60 36 73 116 105 119 116 122 143 149 148 146 137 137 139 136 131 128 125 125 126 122 126 125 126 150 165 169 160 161 157 157 176 185 189 185 181 177 183 184 180 180 173 165 167 159 147 119 110 96 75 65 71 109 113 128 151 173 183 182 176 178 177 171 155 127 93 117 153 123 43 42 46 46 33 41 36 54 52 40 38 78 89 104 116 40 30 39 35 34 40 42 58 35 68 121 111 113 119 129 121 123 131 133 126 123 124 123 118 112 101 97 86 91 94 91 92 104 122 138 152 149 153 151 160 176 191 179 178 178 167 166 172 181 173 158 149 144 130 119 109 109 112 142 157 187 188 187 179 162 163 130 111 122 128 144 154 156 115 100 159 128 42 40 43 45 38 31 47 46 50 56 55 91 97 115 116 42 43 39 28 39 35 36 57 24 77 124 115 113 123 122 109 119 126 119 122 130 126 134 118 100 108 105 85 92 94 77 81 90 90 96 125 121 140 123 141 160 181 177 146 176 162 157 166 182 176 155 162 196 133 123 116 135 121 102 110 127 141 161 167 177 186 188 183 179 175 149 145 112 115 98 163 105 46 27 44 49 39 34 59 56 57 75 74 90 109 121 119 39 40 37 28 37 35 41 49 28 70 122 119 116 125 106 101 115 122 142 147 142 157 172 166 155 184 180 132 132 124 102 93 88 79 89 115 113 171 203 157 149 175 161 140 163 145 146 163 168 157 129 131 172 130 117 123 139 156 147 181 216 210 214 194 172 166 171 174 170 175 168 173 158 101 80 150 103 18 23 46 57 34 44 50 60 70 86 87 86 118 114 120 41 30 37 22 47 33 39 51 24 56 120 126 116 122 88 94 113 118 116 108 106 135 159 152 143 144 152 153 145 132 113 102 66 137 162 170 146 105 155 168 155 159 154 158 152 145 165 167 153 135 99 107 121 126 129 134 141 156 142 146 217 210 223 166 113 114 119 115 125 140 157 157 173 87 93 101 102 9 36 39 60 48 52 59 65 77 72 81 102 113 116 119 33 30 26 18 46 34 47 63 32 29 118 127 122 115 86 97 115 117 123 148 171 176 183 184 184 183 188 205 186 165 150 129 90 210 219 219 223 135 117 125 124 141 165 174 166 178 184 178 143 102 99 122 121 131 138 141 138 129 109 70 128 174 158 97 114 136 115 80 76 92 128 149 164 114 55 116 86 70 41 48 52 64 54 61 78 69 63 86 109 109 116 120 33 33 26 15 45 38 37 58 39 22 109 128 129 115 90 106 111 122 139 160 165 160 160 163 156 161 157 171 163 157 154 152 117 205 213 220 207 115 108 116 108 139 165 186 180 189 162 140 110 163 117 123 129 134 138 136 123 110 102 124 138 119 105 112 107 160 196 148 88 77 85 132 159 128 56 110 121 120 99 24 44 60 60 61 67 70 58 86 112 109 115 118 32 39 35 20 46 33 27 39 38 10 95 128 132 110 93 112 107 120 134 137 132 123 100 98 95 89 85 92 101 101 105 122 115 148 181 186 141 110 113 110 103 216 154 171 173 214 212 210 211 233 160 117 127 129 120 115 105 107 121 180 126 109 93 180 112 91 188 194 132 53 82 99 161 135 67 94 181 175 125 19 42 54 69 67 70 73 67 93 98 106 110 118 28 46 38 33 41 25 25 31 35 10 76 121 131 113 104 106 103 118 112 111 78 62 79 105 77 60 76 67 100 133 93 90 86 108 130 140 139 122 105 92 70 114 108 97 107 163 199 195 189 182 136 145 137 136 124 121 112 116 141 184 106 90 48 98 99 91 167 176 144 79 90 101 140 136 40 45 183 175 100 21 48 57 58 54 52 71 79 93 96 98 114 118 29 53 45 43 38 26 24 27 28 14 50 109 118 120 102 102 106 106 101 79 45 63 119 122 78 81 123 156 63 167 151 104 101 101 111 120 144 141 116 108 88 143 174 150 150 145 139 142 127 106 141 173 172 159 138 115 116 116 135 160 130 114 102 116 108 115 152 143 138 131 127 127 112 102 51 20 154 184 100 32 50 61 59 57 46 65 71 88 88 92 111 120 34 57 59 56 49 44 31 33 28 29 24 98 116 135 120 102 110 104 84 50 52 79 129 105 72 57 46 130 64 149 168 126 121 104 116 128 150 161 129 106 111 116 101 121 166 182 177 168 123 90 139 182 178 166 146 129 131 140 130 142 141 151 157 161 157 157 164 152 168 173 159 136 103 73 102 33 128 92 64 48 60 67 37 66 46 57 73 79 93 78 93 111 55 55 40 58 55 76 43 38 37 36 25 60 158 185 122 85 128 101 64 56 79 90 117 121 80 99 90 109 105 145 143 126 126 121 127 140 150 154 124 123 130 106 73 149 194 201 198 204 160 72 122 175 171 166 154 147 142 146 143 144 143 143 151 162 170 167 176 177 177 174 146 135 111 76 133 58 135 75 67 39 85 74 41 60 56 45 62 94 83 86 104 107 61 53 42 46 50 48 46 38 30 67 60 49 220 240 135 65 140 97 79 96 113 126 137 137 130 151 154 150 153 160 149 146 147 141 145 160 161 138 142 133 129 76 94 184 200 199 200 198 203 100 129 160 182 170 169 160 159 158 156 147 141 134 141 148 158 163 163 164 156 148 148 158 137 100 150 93 122 101 64 50 78 94 55 58 50 48 71 88 104 90 122 108 70 43 44 47 48 51 43 45 35 65 102 51 168 213 141 56 130 108 118 131 125 133 147 154 150 158 166 160 158 155 156 157 151 151 155 168 164 160 160 120 122 65 122 192 201 200 197 195 208 143 148 157 183 184 185 175 174 171 174 177 171 167 147 135 140 136 144 151 153 153 154 158 162 155 154 159 122 129 66 46 63 81 48 48 49 69 65 91 92 109 113 121 74 48 50 50 44 36 40 36 37 81 120 75 58 126 139 72 123 134 133 142 158 166 174 174 174 168 169 154 154 144 153 164 174 171 175 184 185 178 155 115 137 71 151 190 198 199 199 197 199 184 129 182 169 187 197 193 183 172 177 174 188 189 188 185 187 177 164 163 154 153 160 171 176 167 177 184 123 160 85 41 60 57 40 45 49 74 72 89 89 116 116 113 52 61 48 48 37 37 34 41 35 78 126 111 66 111 169 84 104 144 164 130 125 134 145 145 143 141 140 148 157 175 185 186 186 185 189 193 188 179 134 125 199 90 166 182 193 197 200 191 198 201 135 156 173 178 186 195 191 175 161 152 155 158 153 154 161 156 153 160 172 177 186 190 193 178 177 199 110 179 114 46 55 54 53 53 54 68 85 82 98 109 118 107 38 54 49 44 38 36 34 44 36 71 123 117 91 93 181 93 105 152 172 155 138 135 148 146 148 161 166 177 177 184 183 187 188 188 191 190 179 173 114 181 191 107 165 178 184 198 199 191 196 193 170 127 183 174 185 192 191 189 180 169 164 153 150 154 159 171 175 187 191 192 193 191 192 173 170 193 103 190 131 50 47 44 54 54 65 71 84 82 98 109 117 112 28 58 42 47 43 33 34 53 28 74 117 117 115 88 166 118 107 137 172 182 178 159 151 156 159 160 164 167 166 166 178 180 182 188 183 180 167 141 114 219 149 127 165 175 184 196 198 195 196 190 173 147 166 176 185 184 183 188 190 183 185 189 182 189 189 193 199 192 195 192 191 192 196 169 171 176 112 196 150 38 58 45 49 64 72 73 84 91 96 109 116 120 18 66 49 44 51 40 42 49 32 76 110 115 127 104 111 145 111 135 166 183 187 187 178 177 172 168 166 165 165 174 183 183 184 186 182 170 156 118 156 209 122 143 159 173 180 196 196 196 197 192 176 166 145 151 177 178 176 183 187 183 188 190 189 195 190 192 196 196 191 192 193 190 198 168 176 149 135 185 169 27 80 62 43 58 71 68 74 85 90 112 121 115 17 71 52 48 58 46 35 41 37 74 112 111 134 127 97 164 114 132 155 175 183 185 179 181 179 179 182 177 177 187 186 187 183 184 178 171 153 125 192 178 126 141 154 163 182 199 196 194 198 189 185 172 162 139 156 184 174 178 187 183 187 189 188 192 188 191 194 195 193 192 194 191 197 174 177 117 166 173 168 41 66 92 53 61 59 69 90 98 104 113 120 119 11 67 60 44 49 45 29 44 38 67 105 113 131 133 90 155 130 118 148 160 171 176 177 173 180 182 181 181 181 187 188 185 183 182 174 164 144 146 191 145 126 134 154 166 180 195 197 197 195 191 187 184 176 150 106 174 183 178 183 185 187 189 188 192 187 191 193 192 194 194 190 186 202 207 132 150 175 170 166 42 56 69 73 64 72 74 88 106 109 113 121 120 17 55 59 51 44 38 30 34 35 65 105 111 126 131 111 110 157 117 133 149 158 164 167 171 179 181 183 181 179 184 182 186 188 180 176 163 139 194 167 131 122 133 157 171 182 197 198 196 194 196 191 189 180 167 124 118 184 183 184 182 189 190 186 188 192 191 192 195 197 196 194 183 204 178 133 179 174 168 170 56 52 61 67 68 90 98 91 110 108 106 119 115 16 51 60 51 51 36 33 36 33 62 104 110 119 125 135 80 156 158 139 144 159 165 173 173 176 181 183 178 180 179 181 182 188 187 174 151 182 188 121 137 128 132 165 174 187 195 199 200 197 196 192 189 185 166 162 101 101 168 194 195 195 196 187 191 197 197 192 193 188 173 151 136 123 153 179 180 170 162 166 68 47 56 51 68 92 97 102 104 109 108 107 117 22 35 63 49 58 42 36 38 36 50 99 112 119 123 124 115 97 212 162 147 152 161 164 169 173 171 177 179 180 176 178 181 191 188 173 176 189 113 133 147 137 133 159 173 182 193 195 201 197 196 196 188 182 166 179 147 76 91 107 151 166 169 165 168 165 159 132 114 109 122 134 148 165 178 181 176 171 159 166 74 40 54 53 68 98 94 95 103 98 115 114 113 25 24 59 46 55 46 39 38 40 54 93 110 115 115 114 123 99 115 182 204 168 168 166 164 166 165 173 178 184 184 180 186 197 198 189 182 116 120 157 160 147 137 152 170 174 187 191 205 200 197 188 185 171 165 161 189 159 90 89 91 92 91 90 100 116 132 142 160 172 181 184 182 178 175 182 175 165 158 160 90 42 51 60 69 97 100 80 112 103 123 116 115 36 28 49 49 55 43 33 47 41 45 96 105 113 115 118 123 118 103 87 119 145 166 176 176 180 181 187 187 191 191 174 172 170 169 152 109 125 160 165 159 153 142 144 160 167 181 190 196 197 186 181 165 158 158 156 177 191 163 144 150 157 167 160 167 175 182 185 187 184 187 185 181 177 174 174 178 158 143 146 105 64 41 60 80 80 94 90 106 110 116 117 113 37 24 47 57 52 41 30 52 47 43 87 105 114 114 127 123 132 122 108 97 96 108 116 118 118 119 118 120 128 132 132 132 132 147 143 118 155 158 161 154 149 142 130 135 154 173 182 189 186 178 168 155 149 153 154 165 181 164 168 166 167 173 177 174 181 179 191 190 190 186 184 182 180 176 172 172 165 124 142 106 66 40 71 75 91 86 95 106 117 112 117 110 33 26 40 64 45 51 39 47 44 40 80 108 112 115 121 131 142 141 129 123 128 131 131 130 134 144 140 146 147 156 156 157 164 169 117 136 156 150 145 143 140 129 112 109 119 151 168 171 181 165 163 151 146 137 140 153 163 154 154 172 172 171 171 178 178 178 183 189 184 188 183 183 180 178 171 169 146 124 135 103 95 32 65 93 85 95 87 106 119 109 116 112 32 44 37 60 43 46 39 48 46 36 76 107 108 111 122 137 150 154 148 137 145 148 147 151 154 162 168 172 175 169 173 170 172 145 91 137 147 135 123 118 114 112 104 92 98 122 146 160 170 158 156 145 91 66 95 122 140 135 153 181 179 178 174 176 173 170 169 165 171 182 180 175 171 171 169 165 139 121 132 109 81 64 50 73 100 86 88 94 112 106 116 111 36 39 49 42 50 43 42 43 48 48 69 103 106 108 127 137 150 141 154 144 148 151 157 160 159 164 168 169 172 169 169 170 169 127 79 132 127 115 97 79 61 61 70 78 89 109 128 145 152 146 154 111 30 40 55 89 117 121 163 186 188 184 183 180 180 167 170 153 131 152 166 163 170 163 160 161 128 116 131 106 63 69 60 65 78 91 90 100 95 97 109 110 32 34 43 39 42 52 42 45 49 50 66 100 107 107 124 131 143 132 142 151 152 156 160 164 163 164 168 165 168 166 162 162 167 131 92 108 111 101 76 44 41 36 46 50 57 104 110 127 134 137 133 97 92 110 113 104 107 137 170 173 188 187 187 187 180 178 176 177 160 127 126 144 160 159 152 142 136 112 128 94 73 64 59 73 78 79 100 100 83 97 109 104 31 38 36 36 43 51 40 47 55 60 54 94 102 99 113 125 138 127 131 144 155 160 163 167 165 159 154 154 161 163 163 171 176 156 139 115 90 97 79 65 64 54 63 63 53 81 103 109 112 118 120 100 121 139 134 129 138 155 162 165 176 184 184 180 181 174 173 175 171 171 134 106 146 151 138 126 136 108 122 86 61 74 49 72 81 75 85 99 84 94 112 106 48 43 38 34 43 42 63 55 58 63 54 89 98 96 106 110 123 119 129 137 153 151 154 150 136 140 156 158 161 165 168 172 179 172 156 154 104 93 87 86 75 61 60 59 59 66 79 88 96 103 105 104 103 133 152 130 141 157 158 165 155 163 164 165 161 171 159 167 172 168 177 128 122 149 125 117 122 106 97 96 63 52 54 73 87 81 63 96 97 114 101 115 61 53 45 36 36 44 66 58 59 56 51 86 102 95 96 93 113 116 127 131 143 140 128 126 133 157 167 158 159 163 161 161 162 164 151 170 147 139 115 97 88 67 62 69 61 60 70 89 96 105 107 96 94 113 121 120 130 138 155 158 145 139 144 148 135 136 147 127 135 152 158 168 107 133 110 117 120 99 78 97 62 59 61 53 82 86 51 88 99 106 102 112 58 54 54 40 34 47 61 64 56 49 47 93 103 98 92 91 98 119 121 124 124 115 110 141 160 153 148 151 155 156 149 143 147 155 143 149 149 144 118 97 90 77 85 99 77 76 98 106 96 116 90 113 93 94 84 109 119 118 136 159 131 126 127 130 132 120 134 140 108 118 140 161 117 131 108 124 111 88 75 76 54 67 60 65 69 76 69 83 103 93 104 107 62 56 57 58 42 47 62 49 54 44 81 90 87 89 89 86 93 118 121 121 106 114 120 135 131 124 142 137 146 142 134 134 149 145 132 110 133 123 116 110 88 96 107 111 118 108 117 120 76 129 79 91 121 97 76 87 103 108 101 121 120 110 118 122 120 112 121 129 110 97 112 143 130 135 102 115 104 79 69 71 57 50 78 58 59 70 70 83 94 89 103 105 74 54 62 56 45 41 62 46 46 57 89 85 73 80 85 91 102 111 118 105 108 125 109 109 103 120 123 124 122 123 123 125 145 128 111 100 123 118 110 112 93 109 95 125 134 104 121 117 84 110 99 80 102 106 83 81 92 98 91 105 123 107 113 118 119 124 105 114 122 106 95 136 126 125 96 108 104 71 61 70 54 54 65 65 66 53 85 87 102 88 97 112 66 62 64 63 53 39 52 49 42 60 76 72 82 76 80 104 98 111 117 93 115 117 98 93 109 100 112 118 114 118 132 135 132 106 112 98 127 110 111 108 95 100 104 136 133 108 118 113 95 91 114 82 105 91 105 76 83 108 87 89 124 111 93 113 102 122 122 98 112 118 97 127 122 108 101 87 109 67 50 61 54 52 61 63 63 66 83 83 92 78 103 105 70 60 60 64 52 42 53 38 51 53 58 61 92 76 86 91 86 102 121 97 118 109 90 92 93 93 109 105 125 131 132 135 128 109 114 109 116 114 122 110 84 102 107 128 133 99 122 122 103 91 107 91 96 103 111 89 84 101 95 92 105 115 109 101 98 101 122 113 95 105 94 113 111 92 91 75 83 64 69 59 61 48 67 63 67 68 88 73 63 87 103 101 72 66 56 59 52 49 45 51 60 48 59 52 95 95 92 81 80 96 115 97 108 95 83 96 78 99 102 102 130 127 121 125 129 109 124 102 124 121 107 95 84 106 99 120 117 93 135 131 102 92 97 110 81 113 106 94 94 88 96 94 95 90 110 107 90 95 97 110 107 84 106 103 100 76 82 66 71 77 57 49 60 49 50 63 58 65 67 63 54 92 89 82 70 75 62 56 55 52 42 58 69 59 46 50 83 100 89 75 71 95 101 89 99 83 89 98 87 99 103 92 123 116 98 118 106 108 101 97 113 101 95 87 99 90 102 115 101 97 130 117 94 102 102 92 92 103 88 93 89 85 101 81 99 82 93 90 86 77 91 95 106 75 97 104 81 64 84 64 64 72 41 49 60 56 52 56 52 60 55 54 68 84 88 80 70 72 71 55 53 49 45 56 60 60 35 56 66 86 87 68 58 97 87 87 76 90 97 102 103 81 94 103 98 107 91 100 84 83 92 90 90 86 97 90 85 80 97 116 96 104 132 111 102 106 99 86 90 100 91 86 91 91 108 97 98 103 93 92 76 70 85 89 97 86 94 107 71 66 87 66 65 59 41 45 49 45 55 56 55 54 61 66 67 76 98 92 67 72 66 57 47 43 36 47 62 51 33 51 73 63 94 63 63 81 75 76 75 107 101 96 95 65 85 99 76 87 89 102 76 91 87 93 92 90 87 89 72 93 99 108 114 128 129 114 116 119 108 112 110 99 109 92 106 111 117 113 117 112 112 100 88 46 80 74 86 67 98 88 73 68 93 63 57 44 57 49 37 41 48 60 47 52 52 70 64 71 83 100 74 72 61 61 45 49 44 38 55 54 39 55 60 59 86 55 69 79 73 71 96 108 101 96 76 60 86 75 70 63 85 91 87 89 92 101 99 93 88 88 85 112 122 131 147 155 166 156 154 160 154 151 125 117 115 108 128 138 143 140 126 122 123 112 102 73 75 62 79 61 94 68 75 69 81 59 57 46 48 56 35 48 41 72 45 56 53 69 67 81 94 89 70 61 61 60 46 43 41 41 49 47 48 46 59 51 66 42 50 75 60 71 112 103 93 92 67 52 75 70 77 54 79 93 81 95 103 113 107 113 108 104 107 124 141 151 153 171 182 183 182 185 185 164 151 150 147 150 154 160 153 153 138 132 121 127 95 101 80 52 64 75 76 62 70 64 69 61 50 59 42 46 41 28 42 73 59 65 61 84 90 93 96 98 74 65 62 61 48 36 41 36 54 45 57 42 49 58 71 44 55 57 76 77 107 78 81 88 62 57 71 56 62 62 73 81 90 100 111 124 121 128 132 134 144 155 163 171 178 181 187 189 192 196 195 186 178 179 169 173 168 159 157 150 152 141 125 136 105 99 99 57 57 67 74 57 98 48 71 66 50 49 49 50 40 39 49 68 59 71 75 87 97 95 96 105 70 65 65 68 49 42 45 42 54 53 55 52 55 59 56 49 53 70 85 78 93 67 72 89 68 66 67 63 66 69 75 83 99 110 113 127 130 130 128 139 155 170 175 175 182 183 173 165 180 189 188 185 179 177 168 165 160 151 144 143 145 140 123 135 93 87 87 69 44 64 75 61 87 52 68 65 48 54 36 54 49 41 51 60 62 60 77 92 89 99 103 115 67 71 66 65 49 52 47 43 46 46 54 38 57 48 43 53 63 67 71 74 80 61 73 78 77 95 75 63 75 80 73 87 112 115 122 131 139 141 130 106 148 144 149 154 148 158 152 127 142 163 159 143 147 158 159 160 145 154 147 132 149 132 123 125 105 66 76 77 54 72 74 75 60 71 50 48 53 55 49 40 62 38 57 51 58 62 71 82 87 88 109 117 74 71 60 65 49 50 53 36 48 64 35 43 57 48 42 55 69 60 55 79 64 63 60 63 78 104 70 76 80 86 92 93 120 110 112 138 139 134 127 108 139 126 123 140 115 134 135 125 117 136 139 136 124 143 142 150 155 138 155 138 139 133 114 111 108 68 51 68 71 68 73 80 53 67 53 58 45 59 46 43 61 58 50 52 54 63 84 85 92 100 106 114 69 77 55 64 62 52 47 39 47 50 46 60 58 51 41 48 60 53 63 70 54 61 62 69 105 88 68 99 90 96 86 106 114 86 125 146 132 120 123 104 139 127 137 125 105 122 142 116 121 114 130 130 121 127 135 131 143 147 138 154 125 142 89 110 87 92 51 59 48 70 80 76 62 48 66 60 47 53 45 45 65 54 47 66 67 91 98 97 89 94 110 116 63 69 67 55 52 52 51 39 47 50 51 55 42 49 50 47 54 56 67 62 63 63 80 79 99 61 94 99 88 83 87 109 89 103 141 140 112 127 121 107 131 122 139 117 105 130 134 116 114 115 123 122 110 118 131 123 123 134 127 151 124 126 79 95 97 97 51 64 57 66 100 42 91 53 65 61 50 53 47 46 48 52 58 62 66 80 78 97 93 97 114 111 63 66 60 56 54 49 45 45 50 42 52 52 45 47 50 51 49 57 65 57 70 72 81 82 73 83 95 93 83 83 97 102 101 133 124 114 112 126 117 123 131 126 131 113 98 116 122 123 103 101 120 113 119 99 125 122 112 126 119 134 114 111 75 93 89 92 76 46 72 64 98 52 57 66 65 56 54 59 50 50 56 35 60 62 60 53 74 105 89 95 113 111 62 65 55 62 54 51 38 40 47 39 36 40 46 50 41 43 33 61 64 70 43 55 83 66 84 72 92 88 87 84 95 89 110 123 94 103 117 118 108 119 119 115 110 106 105 85 96 112 95 94 105 112 122 94 116 111 89 107 112 114 105 91 89 82 89 76 72 66 52 108 59 77 57 68 61 60 57 54 55 42 62 45 43 58 51 58 73 102 105 102 107 111 66 64 65 61 63 47 39 41 47 34 31 58 55 52 43 52 42 66 61 55 36 70 80 81 81 74 86 82 81 85 85 83 78 107 95 86 106 96 95 98 102 104 92 100 100 88 77 88 81 85 94 101 103 88 108 98 69 88 92 93 97 82 71 86 85 45 68 83 36 96 91 66 68 74 44 60 58 50 59 39 52 53 51 46 59 67 61 95 101 106 111 104 64 70 68 64 59 48 38 41 33 39 24 54 56 40 41 50 37 62 57 45 47 75 91 83 75 78 95 86 75 64 59 65 77 92 90 80 87 83 86 81 89 89 86 70 80 77 74 80 80 107 85 81 92 87 73 88 73 64 82 82 74 83 59 82 78 39 52 82 49 68 83 77 61 55 62 51 55 52 57 44 51 44 51 47 55 64 75 82 94 111 109 107 66 72 69 63 62 43 41 40 31 42 32 32 46 45 25 47 49 62 62 46 63 91 86 96 95 88 88 89 70 50 52 59 72 69 58 70 66 88 88 72 76 72 91 85 79 78 78 79 85 103 93 82 91 94 72 80 76 60 83 72 59 68 56 81 77 58 60 72 70 56 71 80 72 42 60 43 35 61 38 46 47 43 42 62 52 67 66 98 101 107 106 109 70 74 70 72 55 44 50 38 38 32 37 34 44 53 35 36 64 63 60 42 70 87 100 91 91 102 63 86 73 54 59 50 68 59 66 67 60 98 72 70 77 84 85 99 93 99 86 85 89 82 94 82 94 94 86 62 78 65 77 70 61 57 60 76 76 76 72 53 81 79 62 93 78 62 47 49 40 42 48 31 48 47 42 59 53 69 78 90 104 107 106 106 70 75 67 73 60 43 48 57 38 29 39 40 41 51 39 40 68 57 52 44 60 80 114 78 102 83 71 85 61 47 69 49 51 76 71 89 96 88 68 79 98 100 92 125 94 108 113 91 92 75 95 98 93 95 99 81 93 68 73 62 62 53 53 66 77 75 60 46 61 77 63 86 77 56 57 67 44 36 48 38 41 55 48 63 50 56 90 95 104 107 104 109 73 72 71 74 60 50 43 48 43 32 39 40 47 43 38 42 66 47 51 68 45 95 105 73 72 71 92 70 56 64 59 53 72 49 86 79 76 55 62 83 106 108 112 124 94 113 98 90 97 83 88 99 98 85 116 85 101 72 62 60 60 45 64 55 67 85 54 49 55 73 75 83 82 32 61 60 51 42 41 42 34 56 56 60 52 76 83 94 107 108 105 108 69 71 71 75 57 56 40 48 41 42 30 31 46 53 22 46 62 38 63 73 48 88 95 66 45 81 105 59 59 80 53 66 66 60 103 69 69 51 73 85 102 133 118 100 98 110 73 109 99 95 76 94 110 88 97 105 96 86 58 61 58 59 59 54 63 93 55 55 68 48 86 95 76 54 39 65 57 39 40 39 48 51 70 48 47 93 75 93 105 108 107 105 72 70 72 71 66 64 40 37 46 36 31 34 38 62 21 41 57 37 60 68 41 108 92 69 65 85 101 62 61 66 72 74 72 100 101 67 73 68 79 88 128 103 127 85 94 93 79 122 118 90 72 79 112 101 79 126 73 93 65 73 57 64 67 76 71 89 37 74 64 49 77 100 73 65 54 51 60 45 44 39 39 39 54 57 48 78 82 97 107 106 104 104 69 67 74 70 63 72 55 40 45 44 34 31 49 56 34 44 53 39 50 61 56 96 70 72 60 80 92 73 57 71 86 81 98 107 70 89 83 87 107 120 119 94 129 86 90 101 71 131 117 78 79 71 129 102 106 118 94 100 72 71 48 67 75 89 71 90 72 51 84 63 67 101 39 51 74 63 44 59 53 44 38 38 43 59 47 71 92 94 104 105 105 103 69 72 66 73 67 68 63 47 43 40 44 33 57 49 32 47 47 37 48 50 62 88 68 65 65 78 83 72 72 87 97 68 112 101 51 105 73 96 117 141 85 102 127 82 110 122 92 97 112 76 95 74 113 89 110 121 118 91 71 82 49 60 76 97 82 49 77 59 95 45 81 103 54 45 65 61 40 54 51 62 35 47 52 59 55 69 92 87 98 107 108 106 68 68 68 68 66 65 64 55 36 44 46 41 51 45 35 47 47 33 43 42 67 89 64 59 69 79 91 73 66 72 86 80 117 80 40 114 88 108 99 143 88 99 121 91 122 113 93 78 118 88 81 83 94 94 99 130 110 77 76 81 53 54 70 87 69 58 69 65 82 56 67 104 66 59 65 47 50 48 53 43 66 45 62 63 81 86 94 98 107 105 105 101 69 71 65 68 68 70 66 63 43 44 33 44 59 42 39 39 43 42 35 54 75 80 61 62 80 72 90 87 69 69 75 96 114 59 44 121 107 99 82 119 89 114 88 123 122 92 96 67 114 76 67 92 89 77 100 121 104 78 72 86 57 85 58 76 57 81 56 84 56 70 70 74 95 32 77 50 55 41 51 35 33 55 73 63 60 92 94 92 102 98 105 103 70 69 69 65 73 69 70 67 51 41 42 47 39 47 33 51 38 39 43 56 56 68 65 61 84 64 88 80 61 62 73 95 98 51 53 134 121 87 85 115 77 124 83 109 114 88 88 87 93 78 71 107 84 67 96 135 76 80 84 74 83 106 70 57 63 97 44 94 47 67 53 87 67 23 83 39 52 38 38 48 31 39 60 53 43 84 90 95 105 101 102 98 70 70 68 69 70 69 69 68 63 47 46 44 39 57 27 50 36 32 41 52 44 61 87 69 67 72 92 64 43 59 86 104 73 43 59 123 111 79 96 93 92 123 99 106 110 86 86 94 94 54 116 83 86 60 112 105 79 84 92 85 85 112 69 64 87 94 53 75 60 60 63 79 48 35 87 39 47 47 51 40 47 45 50 55 50 71 85 100 96 102 100 103 65 70 64 67 68 69 67 69 65 51 51 37 43 44 44 32 35 32 43 46 49 54 68 68 53 79 81 66 47 56 99 104 72 34 81 100 95 97 90 69 97 101 110 96 107 72 87 83 70 78 125 65 64 81 119 82 93 96 71 109 105 79 66 110 91 82 47 66 67 34 74 50 53 52 70 50 37 55 38 57 52 48 40 46 54 55 87 102 96 95 102 99 66 71 69 69 69 73 66 73 55 57 37 37 41 47 42 39 37 44 39 43 62 67 48 56 68 87 77 41 51 63 106 84 78 39 79 90 91 108 78 96 58 86 107 105 74 92 74 84 66 104 113 60 51 91 111 79 101 70 100 117 87 57 72 99 97 63 47 72 54 34 91 31 66 51 62 54 54 52 39 38 51 56 52 51 49 58 91 98 97 97 103 99 64 71 69 67 71 68 74 72 55 54 44 38 38 41 48 40 45 46 40 45 51 53 56 40 77 87 56 39 57 58 100 61 78 62 71 79 102 90 63 122 52 50 95 115 68 102 77 62 95 83 109 62 63 86 94 100 109 81 119 113 74 46 83 106 89 57 50 72 57 47 79 37 56 42 45 62 48 38 50 34 33 69 79 49 54 62 98 100 96 97 104 101 70 71 66 70 71 71 70 72 61 54 42 41 38 49 43 44 34 44 36 54 36 59 70 39 74 75 58 36 71 49 93 65 75 68 65 87 88 76 77 91 81 34 93 97 94 86 99 80 66 80 105 73 76 77 90 79 109 95 139 82 76 54 107 92 71 47 70 59 55 49 64 53 42 37 51 44 55 42 43 39 53 65 55 78 48 69 95 95 101 99 97 102 65 69 72 68 72 70 73 70 67 55 42 40 46 37 39 47 37 37 47 67 48 70 55 62 80 63 65 41 62 54 68 62 80 53 76 80 85 79 95 58 69 61 86 85 87 81 95 96 47 85 97 64 69 76 86 71 105 107 94 75 72 63 106 66 72 50 73 30 44 44 46 70 62 35 47 42 43 68 61 73 82 76 33 75 87 101 92 97 99 96 98 100 