P2
92
112
15
3 4 4 4 4 4 4 4 3 3 3 4 4 4 4 4 3 4 4 4 4 3 4 4 4 4 4 4 4 4 4 6 6 5 5 6 6 6 5 5 5 6 5 5 5 5 5 6 5 7 7 6 6 6 6 6 6 4 6 6 6 5 4 4 4 4 5 4 4 4 4 4 4 5 4 4 4 4 4 4 4 4 4 4 4 4 4 4 4 4 4 4 4 4 4 3 4 4 4 4 4 3 4 4 4 4 4 4 4 4 4 4 4 4 4 4 4 4 5 5 5 6 6 5 6 5 4 6 6 6 5 5 6 6 6 5 6 5 6 7 7 7 7 7 7 7 7 7 6 6 7 7 6 6 5 5 5 4 4 4 4 4 4 4 4 4 4 4 4 4 4 4 4 4 4 4 4 4 4 4 5 5 4 4 4 3 4 4 4 3 4 3 4 4 3 4 4 3 4 4 4 4 4 4 4 4 4 4 5 7 6 5 6 5 6 6 5 5 4 6 6 5 6 6 5 6 6 6 5 5 7 8 8 8 8 8 8 8 7 7 7 8 8 8 8 7 6 6 5 6 5 4 4 4 4 4 4 4 4 4 4 4 4 4 4 4 4 5 4 4 4 4 5 4 4 4 4 4 4 4 4 4 4 4 4 4 3 4 4 3 4 4 4 4 4 4 4 4 4 5 6 6 6 5 4 5 5 6 5 6 5 4 5 5 5 6 5 5 5 6 5 7 8 8 8 7 7 7 7 7 7 7 7 7 7 7 7 6 6 6 6 6 6 5 5 5 5 5 4 4 4 5 4 4 4 4 4 4 4 4 4 4 4 4 4 4 4 5 4 4 3 4 4 3 4 4 3 4 4 4 4 4 4 4 4 4 4 4 4 4 6 5 5 5 5 5 4 5 5 5 5 6 5 5 5 5 5 5 5 5 6 6 6 8 8 7 7 7 7 7 6 7 7 7 6 6 6 7 6 7 6 7 7 5 6 6 5 5 5 5 5 4 4 4 5 4 4 4 4 4 4 5 4 4 4 4 4 4 5 5 4 3 3 4 3 4 4 4 4 4 4 4 4 4 4 4 4 3 4 5 4 4 6 4 5 5 5 5 5 5 4 5 5 6 5 5 4 5 6 6 6 6 7 7 8 8 7 8 7 7 6 7 7 8 6 5 6 6 6 6 6 7 7 7 7 6 6 6 5 6 5 4 5 5 5 4 4 4 4 4 5 4 4 5 5 5 4 5 5 4 5 4 4 4 4 4 3 4 4 3 4 4 4 4 4 4 5 4 4 4 6 5 5 6 5 5 5 5 6 5 5 5 4 5 5 6 5 5 4 5 5 6 6 6 6 7 7 8 8 10 9 8 7 7 7 7 5 5 6 6 7 7 6 6 5 5 6 6 6 7 6 6 6 6 5 6 5 5 4 4 4 4 4 4 4 5 4 4 5 4 5 5 5 5 4 4 4 4 4 4 4 4 4 4 4 4 4 4 4 4 4 5 5 5 6 5 5 6 7 6 5 5 6 6 6 6 6 6 5 6 5 6 5 6 6 7 6 7 6 7 7 7 6 7 7 7 6 6 6 6 6 7 6 5 6 5 6 5 5 6 6 7 6 7 6 6 5 4 6 5 5 5 4 4 4 4 4 4 5 4 4 4 5 5 5 5 4 4 4 4 4 4 4 4 4 4 4 4 4 4 4 4 4 4 6 5 6 4 5 6 6 4 5 7 6 6 6 6 6 5 5 5 6 6 5 7 8 8 7 8 8 8 8 8 8 8 8 6 4 5 6 5 6 6 5 5 5 6 5 5 6 6 6 6 6 6 7 6 6 5 5 4 5 5 5 4 4 5 4 4 5 5 5 5 5 5 5 5 4 4 4 4 4 4 4 4 4 4 4 4 4 4 4 4 5 4 5 5 5 4 6 6 5 4 7 6 6 5 6 7 6 7 4 5 5 5 7 8 8 9 9 8 7 7 9 8 7 7 6 5 5 6 5 5 6 5 4 5 5 6 5 6 5 6 6 6 6 6 7 6 6 6 5 5 4 5 4 5 4 5 5 4 5 5 5 5 5 5 5 5 4 4 4 4 4 4 4 4 4 4 4 4 4 4 4 4 6 5 5 6 5 5 6 6 5 6 5 5 6 5 6 6 5 6 4 4 5 5 6 6 7 7 8 8 7 6 7 7 5 6 6 6 5 6 4 6 5 5 4 5 5 5 6 6 5 6 6 6 6 7 6 6 6 6 5 5 5 5 4 5 4 5 4 4 5 5 5 5 5 5 5 5 4 4 4 4 4 4 4 4 4 4 4 4 5 5 5 5 6 5 5 5 5 5 6 5 5 5 5 5 6 6 7 5 5 6 5 5 5 5 5 5 6 7 7 6 6 3 5 6 5 5 4 5 5 5 4 6 4 5 4 5 6 6 7 6 5 6 6 6 6 7 6 6 6 5 7 6 5 5 5 4 5 5 4 5 5 5 4 5 5 5 5 5 4 4 4 4 4 4 4 4 4 4 4 4 4 6 5 5 6 5 5 6 5 5 7 5 5 5 5 5 5 7 6 6 5 5 5 5 5 5 5 5 4 6 5 6 5 3 6 6 5 6 5 6 5 5 4 5 4 4 3 5 6 5 7 6 6 6 6 6 5 6 6 6 7 5 6 7 7 5 5 5 4 5 5 5 5 4 5 5 5 5 5 5 4 4 4 4 4 4 4 4 4 4 4 5 4 5 5 5 4 5 4 5 6 6 6 7 5 5 4 5 5 6 4 6 5 6 5 5 5 5 5 4 5 6 4 5 4 4 4 5 5 5 5 7 6 6 6 6 5 4 4 6 5 6 7 6 6 6 5 5 6 5 6 6 7 6 7 6 7 7 6 5 5 4 5 4 5 5 5 5 5 5 5 5 4 4 4 4 3 4 4 4 4 5 4 4 4 4 5 5 4 5 5 5 6 6 6 6 7 5 5 4 5 6 4 5 7 6 6 6 5 5 4 4 5 5 3 4 4 4 4 5 5 5 5 6 5 4 5 4 5 4 5 5 3 7 5 6 5 4 4 4 5 5 5 6 6 7 7 7 6 6 7 6 5 4 5 5 5 5 5 5 5 5 5 5 4 4 4 4 4 4 4 4 4 4 4 4 5 5 5 5 5 4 5 5 5 5 6 6 6 7 6 5 5 6 5 5 7 5 6 6 4 5 5 4 5 5 3 3 5 4 5 5 5 5 5 6 5 4 4 4 3 4 4 4 4 6 5 5 3 3 3 4 4 5 5 6 7 7 6 7 7 6 5 8 6 5 4 5 5 5 5 5 5 5 5 5 4 4 4 4 4 3 4 4 4 4 4 5 4 5 6 6 5 5 6 6 6 4 5 8 5 6 7 6 5 6 5 5 6 5 5 5 3 5 5 4 4 5 4 2 5 4 5 4 4 6 6 6 4 6 4 3 4 5 4 5 5 4 5 4 3 3 4 4 4 5 5 6 6 7 7 5 7 6 5 6 7 7 4 5 4 5 5 5 5 5 4 5 4 4 4 4 4 4 4 4 4 4 4 5 5 4 5 5 6 5 5 6 7 6 4 6 7 6 6 6 6 6 7 5 6 6 6 4 3 5 5 4 3 4 5 2 5 4 3 4 3 5 4 6 7 5 7 3 4 5 5 5 5 4 4 3 3 3 3 4 4 5 4 5 6 7 7 5 7 7 6 6 5 7 6 4 5 5 5 5 5 5 5 5 4 4 4 4 4 4 4 4 4 4 4 5 5 4 4 5 5 6 6 5 6 6 5 5 6 7 5 6 7 7 7 5 5 6 5 5 3 6 4 4 4 4 5 4 5 4 3 4 4 4 5 5 6 8 7 7 4 5 5 5 5 4 5 4 4 3 3 4 3 5 5 5 6 7 7 6 6 7 6 6 6 5 7 4 5 4 5 5 5 5 5 5 4 4 4 4 4 4 4 4 5 5 5 4 5 5 5 5 5 6 6 5 5 5 5 5 5 6 6 6 6 6 5 6 5 5 5 6 4 6 4 4 3 4 5 4 6 4 4 4 5 5 6 5 6 5 10 6 7 5 6 6 5 4 5 5 3 3 3 3 3 4 5 4 6 6 7 8 6 6 7 6 7 6 6 6 5 5 5 5 5 5 5 5 4 4 4 4 4 4 4 4 6 5 5 4 5 5 6 5 5 5 5 5 5 5 4 5 5 5 6 6 6 6 5 5 4 5 5 5 5 5 6 5 4 4 5 5 5 6 5 6 6 6 7 6 6 7 7 9 8 7 7 7 8 7 6 6 5 4 3 3 3 3 5 5 5 7 5 9 6 6 7 6 6 7 5 6 5 5 5 5 5 5 5 5 4 4 4 4 5 4 5 5 5 6 5 5 5 5 5 5 5 6 5 4 4 5 4 5 5 4 5 5 5 5 4 5 5 4 5 6 5 5 6 5 5 5 5 5 5 6 6 7 7 8 8 8 8 9 8 10 9 9 9 9 10 9 8 8 8 7 5 5 3 3 3 5 4 6 6 7 7 5 7 6 5 7 6 5 5 5 5 5 5 5 5 5 4 4 4 4 4 5 5 5 5 6 6 5 4 5 4 4 4 5 5 4 4 4 4 4 4 5 4 5 4 4 5 4 6 4 5 5 5 5 6 5 6 6 6 6 7 7 8 9 10 10 10 11 11 11 11 11 12 10 11 12 12 11 11 11 11 10 8 6 5 2 2 4 5 5 6 7 8 5 6 6 6 6 8 6 5 6 5 5 5 5 5 5 4 4 4 4 4 5 5 5 5 6 6 5 5 5 5 5 4 4 6 5 4 4 4 4 4 4 4 5 4 5 4 5 5 5 5 5 6 5 5 7 7 7 6 7 8 9 11 11 12 12 12 12 13 12 12 12 13 13 11 12 13 12 12 12 12 12 11 9 7 5 2 3 5 7 5 6 8 6 6 6 6 6 7 8 7 5 5 6 5 5 5 5 4 4 4 5 4 5 5 5 5 6 6 5 5 6 5 6 4 3 5 5 5 4 4 5 4 5 5 5 5 5 5 6 5 6 6 6 6 6 6 7 7 7 7 8 10 11 12 12 12 12 13 13 13 13 13 13 13 13 13 12 13 13 13 13 13 13 12 12 10 7 5 3 3 5 7 4 8 7 5 6 6 5 6 7 7 6 6 6 5 5 5 5 4 4 4 4 4 4 6 7 5 6 6 5 5 6 5 5 4 4 4 4 5 5 5 5 5 5 5 5 6 6 6 7 6 6 6 6 7 7 7 6 8 8 9 10 11 11 12 13 12 13 13 13 13 13 13 13 13 13 13 12 13 13 13 13 13 13 12 12 12 10 7 3 3 4 5 6 5 7 5 6 5 5 7 6 8 7 6 6 5 5 5 5 4 4 4 4 4 5 6 7 6 6 5 5 5 5 5 4 4 4 5 5 5 5 5 5 6 5 5 6 7 7 7 7 7 7 7 7 8 8 8 8 10 9 10 10 11 12 12 13 13 13 13 13 13 13 13 13 13 13 13 13 13 13 13 13 13 13 13 13 12 13 10 6 3 1 5 5 6 5 7 6 6 5 7 6 8 8 6 5 5 5 5 5 4 4 4 5 5 4 6 8 6 6 4 5 5 5 6 4 4 4 5 5 5 4 5 5 6 6 7 7 7 7 7 7 8 8 8 9 8 9 9 9 10 10 11 11 11 12 12 13 12 13 13 13 13 13 13 13 13 13 13 13 13 13 13 13 13 13 13 13 13 12 13 10 5 2 4 5 6 6 6 5 6 5 6 6 7 7 6 5 5 5 5 5 4 4 4 5 6 5 6 9 9 6 5 4 6 5 5 5 4 5 5 5 5 5 5 6 7 7 8 7 8 8 8 8 8 9 9 10 10 10 10 10 11 11 11 11 12 12 12 12 13 13 13 13 13 13 13 13 13 13 13 13 13 13 13 13 13 13 13 13 13 13 13 12 8 4 5 4 6 6 6 6 6 5 6 8 8 7 5 5 5 5 5 5 4 4 4 5 6 6 6 8 8 7 6 5 6 7 6 5 4 4 5 5 6 6 6 7 8 8 8 8 9 8 8 8 9 10 10 11 11 11 11 11 11 12 11 12 12 12 12 12 12 13 13 13 13 13 13 13 13 13 13 13 13 13 13 13 13 13 13 13 13 13 13 13 12 6 4 5 4 7 6 5 6 6 7 7 7 6 5 4 4 5 5 5 4 4 5 6 7 8 7 8 7 7 6 6 5 5 4 4 4 4 5 6 7 7 6 9 9 8 9 9 9 9 9 10 11 11 11 11 11 11 11 12 12 12 12 12 12 13 13 13 12 13 13 13 13 13 13 13 13 13 13 13 13 13 13 13 13 13 13 13 13 13 13 13 14 10 3 6 5 6 7 5 6 6 7 8 7 5 6 4 4 5 5 5 4 4 4 5 6 7 7 7 6 4 6 7 5 5 4 5 4 5 6 7 8 7 8 9 9 9 10 10 10 10 11 11 12 11 11 11 11 11 12 12 12 12 12 12 12 13 13 13 13 13 13 13 13 13 13 13 13 13 13 13 13 13 13 13 13 13 13 13 13 13 13 13 13 13 6 4 7 7 7 6 6 7 7 7 8 7 7 8 5 4 5 5 4 4 4 4 7 6 6 4 4 3 4 4 4 3 6 5 5 5 7 8 9 8 9 9 9 10 10 11 11 11 11 11 10 11 11 11 11 12 12 12 12 12 12 12 12 13 13 13 13 13 13 13 13 13 13 13 13 13 13 13 13 13 13 13 13 13 13 13 13 13 13 13 13 13 10 4 6 7 8 7 6 6 8 6 8 7 6 7 6 5 5 5 4 5 3 6 7 6 5 5 4 2 3 3 2 5 6 6 5 6 8 9 9 8 9 10 10 11 11 11 11 11 11 11 11 11 11 11 11 12 12 12 12 12 12 13 13 13 13 13 13 13 13 13 13 13 13 13 13 13 13 13 13 13 13 13 13 13 13 13 13 13 13 13 13 13 12 7 4 6 7 8 6 6 7 6 5 6 6 5 4 5 5 5 3 6 5 7 7 6 4 3 3 3 3 3 2 5 5 5 4 7 9 10 10 9 10 10 10 11 11 11 11 10 11 11 11 11 11 12 11 12 12 12 12 12 12 12 13 13 13 13 13 13 13 13 13 13 13 13 13 13 13 13 13 13 13 13 13 13 13 13 13 13 13 13 13 13 14 9 5 6 7 8 7 6 6 7 6 7 8 6 3 4 5 5 4 6 5 7 8 5 3 4 4 3 4 3 3 5 4 3 5 8 11 11 10 10 11 11 11 11 11 10 11 11 11 12 11 11 11 12 11 12 12 12 12 12 12 13 13 13 13 13 13 13 13 13 13 13 13 13 13 13 13 13 13 13 13 13 13 13 13 13 13 13 13 13 13 13 14 12 6 4 8 9 6 6 6 6 7 8 8 7 6 5 4 5 4 4 6 7 6 4 5 4 4 5 4 5 4 4 3 3 5 9 11 11 11 11 11 12 12 11 10 11 12 12 11 12 11 11 11 11 12 12 12 12 12 12 12 13 12 13 13 13 13 13 13 13 13 13 13 13 13 13 13 13 13 13 13 13 13 13 13 13 13 13 13 13 13 13 13 13 8 4 7 8 8 5 6 7 5 7 6 5 5 5 4 5 3 4 7 5 4 5 5 3 3 4 3 4 3 3 3 3 6 9 12 11 11 11 12 12 11 11 12 12 12 11 10 12 11 11 12 12 12 12 12 12 12 12 12 13 13 13 13 13 13 13 13 13 13 13 13 13 13 13 13 13 13 13 13 13 13 13 13 13 13 13 13 13 13 13 13 14 10 5 4 10 9 6 6 7 7 5 6 5 4 4 4 5 3 4 6 5 4 5 4 3 2 3 3 4 3 3 3 4 6 10 12 11 11 12 12 11 12 12 12 12 12 11 11 12 11 12 12 12 12 12 12 12 12 12 12 13 12 12 13 13 13 13 13 13 13 13 13 13 13 13 13 13 13 13 13 13 13 13 13 13 13 13 13 13 13 13 13 14 12 7 4 9 9 8 6 6 7 8 6 6 6 3 4 5 2 5 6 5 4 5 4 4 4 3 3 4 3 3 3 5 7 11 12 12 12 12 11 12 12 12 12 11 11 11 12 12 11 12 12 12 12 12 12 12 12 12 12 12 12 12 12 13 13 13 13 13 13 13 13 13 13 13 13 13 13 13 13 13 13 13 13 13 13 13 13 13 13 13 13 14 13 8 5 7 9 8 8 6 5 7 6 5 5 5 3 5 3 6 5 6 7 6 5 3 3 4 3 4 3 3 3 5 8 12 12 12 12 12 11 12 12 11 11 11 12 12 12 12 12 12 12 12 12 12 12 12 12 12 12 12 12 12 12 13 12 13 13 13 13 13 13 13 13 13 13 13 13 13 13 13 13 13 13 13 13 13 13 13 13 13 13 14 14 9 6 7 10 8 7 7 6 6 6 5 4 5 4 5 5 7 5 6 8 6 4 4 4 4 3 5 4 3 3 5 9 12 12 12 12 12 11 12 12 11 12 12 12 12 12 12 12 11 12 11 12 12 12 12 12 12 12 12 12 12 12 12 12 13 13 13 13 13 13 13 13 13 13 13 13 13 13 13 13 13 13 13 13 13 13 13 13 13 13 13 14 10 7 6 10 8 7 5 6 7 7 6 5 4 5 4 6 6 4 6 5 4 3 4 5 3 4 5 4 3 4 5 10 12 12 12 12 12 11 12 12 12 12 12 12 12 12 12 11 11 12 11 11 11 11 12 12 12 12 12 12 12 12 12 12 12 13 13 13 13 13 13 13 13 13 13 13 13 13 13 13 13 13 13 13 13 13 13 13 13 13 13 14 11 5 8 11 6 8 5 4 5 6 6 6 4 4 5 8 7 5 5 4 3 4 5 4 4 4 5 4 3 4 5 11 12 12 12 12 12 12 12 12 12 12 12 12 12 12 11 11 11 11 11 11 11 11 11 12 11 12 12 12 12 12 12 12 12 12 13 13 13 13 13 13 13 13 13 13 13 12 13 13 13 13 13 13 13 13 13 13 13 13 13 14 12 5 8 9 6 6 6 4 4 4 5 7 5 4 4 8 7 6 4 3 3 5 5 4 5 5 5 4 4 3 5 12 12 12 12 12 12 12 12 12 12 11 12 11 11 11 11 11 11 11 11 11 11 11 11 11 11 11 12 12 12 12 12 12 12 12 12 12 13 12 12 12 12 12 12 12 11 12 12 12 12 12 12 12 12 13 13 13 13 13 13 14 13 5 6 7 5 4 6 4 4 3 3 6 5 4 4 7 8 5 4 2 5 6 5 6 5 6 5 4 4 3 6 13 12 12 12 12 12 12 12 12 12 11 11 11 11 11 11 11 11 11 11 11 11 10 11 11 11 11 12 11 12 12 12 12 12 12 12 12 12 11 11 10 9 9 9 9 8 9 9 10 9 10 11 11 12 12 13 13 13 13 13 13 14 6 5 7 5 4 5 5 4 4 3 4 3 5 3 7 7 6 4 4 6 7 5 5 5 6 6 4 4 3 7 13 12 12 12 12 12 12 11 11 11 11 10 10 10 10 10 10 10 10 10 10 9 9 9 10 10 11 11 11 11 12 11 11 11 11 11 10 11 10 9 8 7 6 5 5 6 7 6 7 7 8 9 9 10 10 11 12 12 13 13 13 14 8 4 6 4 4 4 4 4 5 4 3 3 3 5 7 6 7 5 5 6 6 4 5 6 6 7 5 4 3 8 13 12 12 12 12 12 10 9 9 9 9 8 8 8 7 7 7 7 7 7 7 8 8 8 9 10 10 10 10 10 11 11 10 11 10 9 9 10 9 8 6 6 5 4 4 4 5 5 5 6 6 7 7 8 9 10 11 12 12 12 13 14 10 3 6 4 4 4 4 4 4 5 4 4 3 3 7 6 5 5 4 5 4 4 5 6 6 8 6 3 3 8 13 12 12 12 12 11 9 9 9 8 7 6 6 5 5 4 5 5 5 5 6 6 7 7 8 9 9 9 10 10 11 11 10 10 9 9 8 9 8 7 6 6 5 4 4 4 4 4 5 5 6 6 7 7 7 7 9 11 12 12 12 13 12 3 5 4 4 3 4 3 4 4 5 5 4 4 6 6 5 4 4 5 5 5 6 6 6 9 7 2 3 9 13 12 12 11 10 9 9 8 7 6 6 5 5 4 4 3 4 3 4 4 4 5 6 7 7 8 9 9 9 10 10 11 10 9 9 8 8 8 7 6 6 5 5 4 4 5 5 6 7 7 7 7 7 7 7 7 8 9 10 12 12 13 14 4 4 4 3 3 4 4 3 3 4 5 5 4 5 6 5 4 5 5 6 6 5 5 5 10 8 3 3 9 13 12 11 11 9 8 7 7 6 5 5 4 4 3 4 4 4 3 4 4 5 6 6 6 7 7 8 9 9 10 10 11 10 10 9 8 8 7 7 6 5 5 5 4 5 5 6 7 7 7 7 7 7 7 8 8 9 8 9 11 12 12 14 7 4 4 4 3 3 4 4 4 3 4 5 5 4 6 4 5 5 5 5 5 4 4 4 7 9 4 3 10 13 12 11 11 9 8 7 7 6 5 6 5 4 5 4 4 4 4 4 4 5 6 7 7 8 8 8 9 10 10 11 12 11 11 10 9 9 7 6 5 5 5 4 4 5 6 8 9 9 9 8 7 5 5 6 8 8 9 10 10 12 12 13 11 3 4 3 3 4 4 4 4 5 3 3 4 4 5 4 6 6 5 5 4 3 4 4 5 10 4 3 10 13 12 11 10 9 8 7 7 7 6 6 6 5 5 4 3 3 3 3 3 3 4 5 7 8 8 10 10 11 11 11 13 13 12 12 11 9 6 5 5 4 4 4 5 5 5 4 5 6 7 9 11 12 8 3 6 7 8 10 11 12 12 12 14 5 3 3 4 5 4 4 4 5 4 4 3 5 4 5 5 5 5 4 4 4 4 3 3 8 4 4 12 13 12 11 9 10 8 8 8 7 7 6 6 6 6 5 4 4 4 3 3 2 3 3 3 5 7 11 12 11 12 12 13 13 13 13 13 8 5 4 4 4 4 4 4 3 3 2 2 3 3 6 6 7 9 9 5 5 8 10 11 12 12 12 14 10 4 3 4 4 4 4 4 3 4 4 3 4 4 4 5 4 5 4 5 4 3 3 3 6 3 5 12 12 11 10 10 9 9 8 8 6 6 7 7 7 5 4 2 4 3 4 3 3 3 2 2 2 6 11 12 11 12 12 13 13 13 13 13 8 6 6 6 5 3 4 6 3 5 2 3 4 4 9 7 5 7 8 9 9 8 10 11 12 13 12 13 13 6 3 3 4 3 4 5 4 4 5 4 3 4 3 4 3 4 5 5 5 4 3 3 5 4 6 13 12 11 10 10 10 10 9 6 6 9 6 8 7 2 2 1 3 3 5 3 2 3 3 2 1 5 11 12 11 11 12 13 13 13 13 13 9 8 10 7 6 5 5 7 6 7 6 6 6 7 8 8 10 10 10 10 11 11 12 12 12 13 13 12 14 8 2 3 3 3 4 5 5 5 5 5 3 4 3 3 3 4 5 4 5 4 3 3 4 4 8 13 12 11 11 11 11 10 7 5 9 8 3 13 11 0 3 1 4 4 6 5 3 2 2 3 2 6 11 12 12 12 12 13 13 13 13 13 11 10 10 9 9 8 7 7 8 8 8 8 9 9 11 11 12 11 12 12 12 12 12 12 13 13 13 12 14 9 2 4 4 4 5 5 5 5 5 4 3 4 2 3 4 4 5 4 5 5 4 3 3 3 10 13 12 12 12 11 11 9 6 6 6 5 3 9 7 3 5 5 6 7 8 7 6 5 5 4 5 8 12 12 12 12 12 13 13 13 13 13 12 11 10 10 10 10 8 8 8 8 9 9 9 10 11 11 12 12 12 13 13 13 13 13 13 13 13 12 14 10 4 3 4 5 5 4 4 4 5 5 3 4 3 3 5 5 4 3 4 4 5 3 5 3 11 13 12 12 12 11 11 8 7 6 7 8 8 8 7 6 7 7 7 7 7 8 7 7 7 7 8 10 11 12 12 12 12 13 13 13 13 13 13 12 11 10 11 10 9 9 8 7 8 7 7 8 9 9 11 12 12 13 13 13 13 13 13 13 13 13 13 12 5 3 4 4 5 4 2 3 3 4 3 3 3 4 5 5 3 2 3 3 6 3 6 3 12 12 12 12 12 11 10 8 9 9 10 11 10 9 8 8 7 7 6 7 7 8 8 8 9 9 10 11 11 12 12 12 12 13 13 13 13 13 13 13 12 12 11 11 11 11 11 11 11 11 11 11 11 11 12 12 12 12 13 13 13 13 13 13 13 13 13 13 3 5 5 6 5 5 4 2 3 3 3 3 4 4 5 6 4 3 4 4 5 4 5 2 12 12 12 12 11 11 10 10 10 10 10 10 9 8 7 6 7 7 7 8 9 9 9 10 10 10 11 11 11 11 12 12 12 13 13 13 13 13 13 13 13 13 12 12 12 12 12 12 12 12 12 12 12 12 12 13 12 13 13 13 13 13 13 13 13 13 12 13 6 6 6 7 3 4 4 1 3 3 3 3 4 3 4 5 5 4 3 4 5 4 5 2 12 13 12 12 11 11 11 11 10 10 10 10 9 9 9 9 9 9 9 10 9 10 10 10 11 11 12 11 11 11 11 12 12 12 13 13 13 13 13 13 13 13 13 12 12 12 12 12 12 12 12 12 12 12 13 12 13 13 13 13 13 13 13 13 13 13 12 13 9 9 7 9 4 4 3 1 2 2 3 3 3 3 4 5 4 3 3 4 4 4 5 2 12 12 12 12 11 11 11 10 10 10 10 10 10 10 10 10 10 10 10 10 10 10 10 11 11 11 11 11 11 11 11 12 12 12 13 13 13 13 13 13 13 13 13 12 13 13 12 12 13 12 12 12 12 12 13 13 13 13 13 13 13 13 13 13 13 13 12 13 11 10 9 13 8 6 3 2 2 2 3 3 3 2 4 4 3 2 2 3 4 4 5 3 13 12 12 12 11 11 11 11 10 11 11 11 10 10 10 10 10 10 10 11 10 11 11 11 12 12 11 11 11 11 11 11 12 12 13 13 13 13 13 13 13 13 13 13 13 12 12 12 13 12 12 13 12 12 13 13 13 13 13 13 13 13 13 13 13 13 13 12 12 11 11 14 12 9 3 2 3 2 4 3 3 4 3 4 2 1 3 6 6 5 5 5 13 12 12 12 11 11 11 11 11 11 11 11 11 11 10 11 10 11 11 11 11 11 11 11 12 11 11 11 12 12 10 10 10 11 12 12 12 12 13 13 13 13 13 12 12 12 12 12 12 12 13 12 12 12 13 13 13 13 13 13 13 13 13 13 13 13 13 12 12 12 13 13 13 13 2 2 3 2 4 3 3 4 3 3 2 1 7 11 9 7 7 10 13 12 11 11 12 11 11 11 11 11 11 11 11 11 11 11 11 11 11 11 11 11 11 11 11 11 11 11 11 11 9 8 8 9 10 11 11 11 12 12 13 13 13 13 12 12 12 12 12 12 13 13 13 13 13 12 12 13 13 13 13 13 13 13 13 13 13 12 10 11 13 13 13 15 2 3 3 4 4 3 3 3 3 4 2 0 9 5 6 12 12 12 12 11 11 11 12 11 11 11 11 11 11 11 11 11 11 11 11 11 11 11 11 11 11 10 12 12 11 10 9 8 9 7 6 7 8 9 10 9 9 9 10 11 13 14 12 11 11 12 12 12 12 12 13 12 12 12 12 13 13 13 13 13 13 13 13 13 12 13 11 4 12 13 13 14 2 2 4 4 4 3 3 3 3 4 2 1 6 4 7 13 13 12 12 11 11 12 12 12 12 11 11 11 12 12 11 11 11 11 11 11 11 11 11 11 10 10 13 10 8 7 7 7 8 7 6 5 6 9 6 4 4 4 5 7 10 13 12 10 10 10 11 12 12 12 12 12 12 12 12 12 12 13 13 13 13 13 13 13 12 13 10 5 9 12 13 14 5 3 4 4 4 3 3 3 3 3 3 1 4 6 10 13 13 12 12 12 11 12 12 12 12 12 12 12 12 11 11 11 11 11 11 11 11 11 11 11 8 11 11 7 4 3 3 2 2 8 7 5 5 9 4 2 2 2 2 3 7 11 12 11 11 10 10 11 11 11 11 12 12 12 12 12 12 12 12 13 13 13 13 12 13 12 10 7 9 10 12 14 8 1 4 4 3 4 3 3 3 3 3 1 3 9 12 13 12 11 12 12 12 12 12 12 12 11 12 12 12 12 11 11 11 11 11 11 11 10 10 10 6 9 10 5 2 2 2 1 3 8 9 4 4 10 7 6 4 3 3 3 5 8 11 11 11 10 10 9 10 11 11 11 12 11 12 12 12 12 12 13 13 13 13 12 12 11 13 8 10 10 11 14 10 1 4 4 3 4 3 3 3 3 4 2 4 10 12 12 12 12 12 12 12 12 12 12 12 11 12 12 12 11 11 11 11 11 11 10 10 10 10 9 5 7 11 6 3 2 3 4 8 8 9 5 4 8 9 10 9 8 7 6 6 8 11 12 11 11 11 10 9 10 10 11 11 11 12 11 12 12 12 12 12 12 13 12 13 11 13 10 10 9 10 13 13 3 4 4 3 3 3 3 3 3 3 2 7 8 12 12 12 12 11 12 12 12 12 12 12 12 12 12 11 11 11 11 10 11 10 10 10 10 10 7 6 5 8 8 5 4 6 7 8 6 6 5 3 5 8 9 10 10 9 8 8 10 12 12 12 11 11 10 9 9 10 10 10 11 11 11 12 12 12 12 12 12 12 12 13 11 13 11 10 9 9 11 14 2 4 4 4 3 3 4 3 3 3 1 10 4 11 13 13 8 7 13 12 12 12 12 12 12 12 12 11 11 11 10 10 10 10 10 10 10 9 6 6 7 6 8 7 7 8 7 7 5 3 4 4 6 7 9 11 11 12 11 12 12 12 12 12 11 11 10 10 10 10 10 10 11 11 11 12 12 12 12 12 12 12 12 12 11 13 12 12 11 10 12 14 3 3 4 3 3 3 4 3 3 3 1 11 3 11 14 10 6 4 13 12 12 12 12 12 12 12 12 11 11 11 10 10 10 10 10 10 10 8 7 7 8 7 8 7 7 7 7 7 6 4 6 7 6 7 8 11 11 12 12 12 12 12 12 12 12 11 10 10 10 10 10 10 10 11 11 11 12 12 12 12 12 11 12 12 11 13 11 13 13 12 12 14 3 3 4 3 4 3 3 3 3 3 2 10 5 12 13 7 5 4 12 12 12 12 12 12 12 12 12 11 11 10 10 10 10 10 9 10 9 9 8 8 9 8 8 8 7 7 7 7 7 7 7 9 8 7 8 9 11 11 12 12 12 12 13 12 12 11 10 9 9 9 9 9 10 11 10 10 12 12 11 11 12 12 11 12 11 12 12 13 13 13 11 15 3 3 4 3 3 3 3 3 3 3 2 6 10 13 10 6 4 5 12 12 12 12 12 12 12 12 12 11 11 10 10 11 10 10 10 10 9 9 10 10 10 9 8 8 8 8 8 8 8 8 9 9 9 8 8 9 11 11 12 11 11 12 12 12 12 12 11 9 9 8 9 9 9 10 11 11 11 11 11 11 11 12 11 12 10 13 13 12 13 12 12 14 3 3 4 3 3 3 3 3 3 3 3 1 12 13 8 4 5 4 12 12 12 12 12 12 12 12 11 11 10 11 10 11 10 10 9 9 9 9 10 10 10 9 9 9 8 9 9 9 9 10 10 10 9 9 9 10 11 11 12 12 11 12 12 12 12 12 12 10 9 8 8 9 9 8 10 11 11 11 11 11 11 11 11 11 10 13 13 13 12 13 13 12 2 4 4 3 3 3 3 3 3 3 4 1 8 13 7 4 6 5 9 12 12 12 12 12 12 12 11 11 11 10 11 10 10 10 8 8 8 9 10 10 10 9 9 9 10 10 10 9 9 10 10 11 10 10 10 10 10 11 11 12 12 12 13 12 12 12 11 9 9 8 7 8 9 6 9 11 11 11 11 11 11 11 11 11 10 13 13 13 13 12 14 8 2 4 4 3 3 3 3 3 3 3 3 2 3 13 9 5 10 8 6 11 12 12 11 11 12 11 12 11 10 11 11 10 9 9 8 7 8 10 10 10 10 10 10 11 10 9 8 8 8 8 8 8 9 8 8 8 8 8 8 9 10 11 12 12 12 12 11 8 7 7 7 8 8 8 8 10 11 11 11 11 11 11 11 11 10 13 12 13 13 13 14 5 4 4 4 3 3 3 3 3 3 3 3 3 0 11 13 11 12 9 8 10 12 12 11 11 12 11 11 11 11 11 10 10 9 7 7 7 7 10 10 10 11 11 10 9 8 7 7 7 6 6 6 6 7 7 7 6 7 7 7 7 8 8 9 10 11 12 11 7 6 6 6 6 7 8 8 10 10 12 11 11 10 11 11 11 10 12 11 11 12 13 12 3 3 4 4 3 4 3 3 3 3 3 3 3 1 8 13 12 12 9 12 11 12 11 11 11 11 11 11 11 11 10 10 9 8 6 6 6 6 9 10 11 11 10 9 8 7 7 6 6 6 5 5 5 5 5 6 5 5 5 5 6 6 6 7 7 8 9 9 7 5 5 5 6 7 8 8 11 11 11 12 11 10 10 10 12 10 7 8 8 8 8 4 4 4 4 4 3 4 3 3 3 3 3 3 3 2 3 13 12 12 8 12 11 11 11 11 11 11 12 11 11 11 10 9 8 7 6 6 5 3 8 10 10 8 7 8 7 6 5 5 4 4 5 5 4 4 5 5 5 5 5 5 5 5 4 5 6 5 5 6 5 4 4 4 6 6 8 9 11 11 11 11 11 10 10 11 12 10 2 3 4 5 4 4 4 4 4 4 3 3 4 3 3 3 3 3 3 3 1 8 13 13 10 11 12 11 11 11 10 11 11 12 11 11 10 8 7 6 5 5 4 2 6 9 7 6 7 6 7 6 6 6 7 7 8 9 8 9 9 10 10 10 10 10 11 11 10 8 7 4 3 3 4 4 4 5 7 7 8 10 11 12 10 11 10 10 10 11 12 10 1 3 3 4 3 4 4 4 4 4 3 3 3 3 3 3 3 3 3 3 2 3 13 12 11 11 12 11 11 11 10 10 11 12 11 11 9 8 6 6 5 4 3 2 2 4 6 7 8 9 9 9 9 9 9 9 10 10 10 10 10 11 12 11 10 10 12 12 12 12 12 11 9 8 9 9 8 8 8 8 10 10 11 11 10 11 10 10 11 11 12 8 1 3 4 3 4 3 4 4 4 4 4 3 3 3 3 3 3 3 3 3 3 2 13 12 11 11 10 10 12 11 10 10 11 12 12 11 9 8 6 6 6 3 1 1 1 2 8 10 11 11 10 9 8 8 8 8 8 8 8 8 8 9 10 9 10 10 11 11 12 12 12 12 12 12 10 10 9 9 9 9 10 10 11 11 10 10 10 10 11 11 12 6 2 3 3 4 3 4 4 4 4 4 3 3 3 3 3 3 3 3 3 3 3 1 8 12 11 9 8 7 12 12 10 9 11 12 12 11 9 8 7 7 7 5 2 1 3 9 11 11 11 10 10 9 8 7 7 7 7 7 7 7 7 7 8 8 9 9 10 11 11 12 12 12 12 12 11 10 9 9 9 10 9 10 10 11 11 10 10 10 11 11 12 5 2 3 4 3 3 3 4 4 4 4 3 3 3 3 3 3 3 3 3 3 3 2 2 7 8 7 4 3 13 12 11 9 11 11 12 11 10 8 8 8 8 7 4 2 8 11 11 11 10 10 9 8 7 7 6 6 6 6 6 6 7 7 7 8 9 9 10 11 11 12 12 12 12 12 12 12 10 9 10 10 9 10 10 10 11 10 11 10 10 10 12 3 2 3 3 3 3 4 4 3 4 4 3 3 3 3 4 3 3 3 3 3 3 3 3 2 3 3 3 1 13 12 11 10 10 11 12 11 10 9 9 9 9 8 6 5 10 11 11 11 10 10 9 8 8 7 6 6 6 6 6 7 6 7 7 8 9 9 9 11 11 12 12 12 11 12 12 12 12 11 10 10 9 10 10 10 10 10 10 10 10 10 10 2 3 3 3 3 3 4 4 3 4 4 3 3 3 4 3 3 3 3 3 3 3 3 3 3 3 3 3 0 10 12 12 10 11 11 12 11 10 8 9 9 9 8 6 8 11 11 11 11 10 10 9 8 8 7 6 6 6 6 6 6 7 7 7 8 9 9 10 11 11 11 12 11 12 12 12 12 12 11 11 10 10 10 9 10 10 11 10 10 9 11 9 1 3 3 3 3 3 4 4 4 4 4 3 3 3 4 3 3 3 3 3 3 3 3 3 3 3 3 3 1 6 13 11 11 10 11 11 10 10 8 8 9 9 8 8 10 11 10 10 11 11 10 9 9 8 7 7 7 7 6 6 7 7 7 8 8 9 10 10 11 12 12 12 12 12 12 12 12 12 11 11 10 10 11 9 10 10 11 10 10 9 11 5 2 3 3 3 3 3 3 4 3 4 4 3 3 3 4 3 3 3 3 3 3 3 3 3 3 3 3 2 3 3 12 11 11 10 11 11 10 10 9 8 9 9 9 9 11 11 11 11 11 11 9 9 9 8 8 7 7 7 7 7 8 8 8 9 9 9 10 11 11 12 12 12 12 12 12 12 12 12 12 11 9 10 10 10 10 10 10 10 10 10 10 3 3 3 3 3 3 4 4 4 4 4 4 3 3 4 3 3 3 3 3 3 3 3 3 3 3 3 3 3 3 0 10 12 11 10 11 11 11 9 9 8 8 9 9 10 11 11 11 11 11 10 10 10 9 9 9 8 8 9 9 9 10 10 10 10 11 10 10 11 11 12 12 12 12 12 12 12 12 11 12 12 10 10 10 9 10 9 10 10 9 10 9 2 3 3 3 3 3 4 4 3 4 4 4 3 4 3 4 3 3 3 3 3 3 2 3 3 3 3 3 3 3 1 5 12 11 10 11 11 11 10 9 9 9 9 9 10 11 11 11 11 10 10 10 10 9 10 10 9 10 10 10 10 10 10 11 11 11 11 12 12 12 12 12 12 12 12 12 12 12 11 11 11 10 9 10 10 9 10 9 10 9 10 5 2 3 3 3 3 3 4 3 4 4 3 4 3 3 3 4 3 4 3 3 3 3 3 3 2 3 3 3 3 2 3 2 12 11 11 11 11 11 11 9 9 9 9 10 10 11 11 11 10 10 11 11 10 10 11 10 10 10 10 10 10 10 10 11 11 11 11 12 12 12 12 12 12 12 12 12 12 12 11 11 11 11 10 10 10 10 10 10 9 9 9 3 2 3 3 3 3 3 4 4 3 4 3 3 3 3 3 4 4 3 3 3 3 3 3 3 3 3 3 3 2 2 3 1 8 12 11 11 11 10 11 10 10 10 10 10 9 11 11 11 10 11 11 11 11 10 11 10 10 10 11 10 11 10 10 11 11 11 12 12 12 12 12 12 12 12 12 12 12 12 11 11 11 10 10 10 10 10 10 9 9 9 7 2 3 3 3 4 3 4 3 4 4 4 4 3 3 3 4 3 3 3 3 3 3 3 3 3 3 3 3 3 2 3 2 2 4 12 11 11 11 10 10 11 10 10 10 10 10 11 10 10 11 11 11 11 10 11 11 10 10 10 10 10 10 10 10 10 11 11 11 12 12 12 12 12 12 12 11 12 12 12 11 10 11 10 10 9 9 10 9 9 9 8 4 3 3 3 3 3 4 3 4 3 4 4 4 4 3 3 3 3 3 3 3 3 3 3 2 3 2 3 2 3 2 3 2 3 1 9 11 11 10 10 10 11 10 10 10 10 9 10 10 10 10 11 10 10 10 11 10 10 10 10 9 9 9 10 9 10 10 11 11 11 12 12 12 12 11 12 11 11 11 11 11 10 11 10 9 10 10 10 8 8 9 6 2 3 3 3 3 4 4 4 4 3 3 4 3 4 3 3 3 3 3 3 3 3 3 3 3 3 2 3 3 3 3 2 3 2 2 4 12 11 10 10 10 11 9 9 10 10 9 10 10 9 10 10 10 10 10 10 10 10 9 9 9 9 9 9 9 9 10 10 11 11 11 11 11 11 11 11 10 10 11 11 10 10 10 10 9 9 10 9 8 9 7 3 3 3 3 3 4 4 4 4 3 4 3 4 4 4 3 3 3 3 3 3 3 3 3 3 2 3 2 3 2 3 3 2 2 2 2 0 10 10 10 10 9 10 10 10 10 10 10 10 10 10 9 10 9 10 10 10 10 10 9 9 9 8 8 8 8 9 9 10 10 10 11 11 11 11 11 10 11 10 11 10 10 10 9 10 9 9 8 8 8 8 5 3 3 3 3 3 3 4 4 4 4 4 3 4 4 4 3 3 3 3 3 3 3 3 3 3 3 3 3 2 3 3 2 2 2 1 4 8 7 10 10 10 10 10 10 10 10 10 10 10 10 9 9 9 9 10 10 9 9 8 8 8 8 8 7 8 7 8 8 9 10 10 10 10 10 9 10 10 10 9 10 10 10 9 9 9 9 8 8 7 7 8 3 3 3 3 4 3 4 4 3 4 3 4 4 4 4 3 3 3 3 3 3 3 4 3 3 3 3 2 3 2 3 3 2 2 1 5 10 7 5 10 9 10 10 10 10 10 9 9 10 10 10 9 9 9 9 8 9 8 8 8 7 7 7 7 7 8 7 7 8 8 8 9 9 10 9 9 9 9 9 9 9 10 9 9 8 8 9 7 7 6 7 9 3 3 3 3 3 3 3 4 4 3 4 4 4 4 4 4 3 3 3 3 3 3 3 3 3 3 2 3 3 2 3 2 3 1 6 11 9 6 3 12 9 9 10 10 9 9 9 9 9 10 10 9 9 9 9 8 8 7 8 7 6 6 7 7 7 7 7 7 7 7 7 8 8 8 9 9 8 8 9 8 9 9 9 8 8 8 8 7 6 6 9 8 2 3 3 3 3 3 3 3 3 4 3 4 3 4 4 4 3 3 3 3 3 3 3 3 3 3 3 3 3 2 3 2 2 4 12 9 7 5 2 12 11 8 9 9 10 10 10 9 9 9 9 9 8 8 8 7 8 7 7 7 6 6 6 6 6 6 6 6 6 6 6 7 7 8 7 8 8 7 8 8 8 8 8 7 7 8 7 6 6 8 10 8 2 3 3 3 3 3 3 3 3 4 3 4 4 4 4 3 3 3 3 3 3 3 3 3 3 2 3 3 3 2 3 2 1 12 10 7 6 4 2 11 11 11 7 8 9 10 10 8 9 9 8 8 8 8 7 7 7 7 6 6 5 5 5 5 5 5 5 5 5 6 6 6 6 6 7 7 7 7 6 7 7 8 7 7 7 7 6 6 8 8 9 10 2 3 3 3 3 3 3 3 4 4 3 4 3 4 3 4 4 3 3 3 3 3 3 3 3 3 3 3 3 3 3 1 5 14 8 6 5 4 2 12 11 11 10 7 7 9 9 9 9 9 9 8 8 7 7 7 6 6 6 6 5 4 4 4 4 5 4 4 5 5 5 5 6 6 6 6 6 6 6 7 6 7 7 6 6 6 6 8 8 9 7 14 6 1 3 3 3 3 3 3 3 3 3 3 4 4 4 4 3 3 3 3 3 3 3 3 3 3 3 3 3 2 4 1 10 13 7 5 5 4 1 12 11 10 11 10 8 7 8 9 9 9 9 8 7 7 6 6 7 6 6 5 4 4 4 4 4 4 4 4 4 4 4 4 5 5 5 5 5 5 5 5 6 6 6 6 5 6 8 8 9 10 8 13 12 1 2 3 3 3 3 3 3 4 3 3 4 3 3 4 3 3 3 3 3 3 3 3 3 3 3 3 3 4 3 2 13 12 5 5 6 4 0 11 12 11 10 10 9 8 7 7 7 8 9 8 7 7 7 6 6 6 5 5 4 4 4 4 4 3 4 4 4 4 4 4 4 4 4 4 4 4 4 5 5 6 5 6 6 8 7 9 9 10 7 13 14 4 1 3 3 3 4 3 3 4 3 3 3 3 3 4 3 3 3 2 3 3 3 3 3 2 3 3 3 4 2 5 15 11 4 6 5 2 0 9 12 11 10 10 10 9 9 8 7 7 8 8 7 7 7 6 6 6 5 5 4 4 4 4 4 4 4 4 4 4 4 4 4 4 3 4 4 4 4 4 5 5 6 7 7 8 9 9 9 10 6 13 14 8 2 3 4 3 3 3 4 3 3 3 3 3 3 4 3 3 3 3 3 3 3 3 3 3 2 4 4 3 0 10 15 10 5 6 3 1 1 5 11 12 11 10 10 9 10 9 7 7 7 6 7 7 6 6 6 5 5 5 4 4 4 4 4 4 4 4 4 4 4 4 4 4 4 4 4 4 4 4 5 6 7 7 7 9 8 8 10 9 6 14 13 11 1 3 3 3 3 3 4 4 3 3 3 4 3 4 3 3 3 3 2 3 3 3 3 3 4 4 3 2 1 12 15 11 6 6 2 1 1 3 8 12 11 10 9 9 10 9 8 9 7 7 6 6 6 6 5 5 5 5 4 4 4 4 4 5 4 4 4 4 4 4 4 5 4 4 4 4 5 6 6 7 7 8 8 8 9 9 10 6 9 14 13 13 1 4 3 3 3 3 3 3 4 3 4 4 4 4 3 3 3 3 3 3 3 3 4 4 4 4 3 1 4 14 14 12 6 4 1 2 1 3 4 9 11 11 10 10 10 9 9 9 8 8 7 6 6 5 5 5 5 5 5 5 4 4 5 5 4 4 5 5 5 4 5 4 4 4 4 5 7 7 7 7 8 8 8 8 9 9 9 3 12 14 13 14 4 4 4 3 3 3 3 3 3 3 3 4 4 5 3 3 4 3 3 3 4 4 4 4 4 2 5 4 7 14 13 13 7 1 2 2 1 4 3 5 10 11 10 11 10 9 9 9 9 9 8 7 6 6 6 5 5 4 5 4 4 4 4 5 4 5 4 4 4 4 4 4 4 6 6 7 7 7 7 8 7 8 8 9 9 10 5 6 14 13 13 14 6 3 4 4 4 3 3 2 2 2 3 3 3 4 