P2
92
112
255
63 67 65 64 64 64 66 66 56 63 63 65 67 66 66 67 61 70 66 72 66 63 72 66 70 67 66 70 66 74 74 102 96 94 87 98 111 102 82 90 89 103 88 90 95 90 93 99 92 114 115 108 110 99 107 98 98 76 102 103 97 94 78 74 70 77 85 74 71 77 67 73 78 80 75 77 72 74 74 74 77 77 75 76 77 78 76 75 76 78 76 79 68 65 65 63 68 64 66 68 67 59 66 70 64 64 68 64 66 65 68 66 70 66 66 64 67 75 82 82 89 97 108 93 105 87 76 99 108 98 81 91 99 106 99 91 101 92 107 114 114 122 123 122 119 116 114 117 108 109 117 115 107 107 85 94 80 77 70 76 71 73 73 76 73 79 79 76 74 76 74 79 76 78 76 76 75 77 75 77 82 81 72 78 65 63 68 67 64 63 68 63 68 65 63 69 66 63 75 66 74 64 69 68 67 66 70 66 88 120 109 95 98 91 96 105 95 91 78 99 103 92 98 96 91 98 100 106 87 91 119 141 143 139 128 133 130 128 120 121 122 139 141 140 129 121 107 107 87 97 91 78 78 77 72 79 78 74 76 78 73 77 75 76 77 77 77 80 76 79 79 76 84 77 76 76 67 64 67 65 65 65 64 65 64 68 61 69 67 63 74 70 69 70 67 67 67 68 73 85 108 102 107 90 73 95 89 106 95 99 80 77 94 95 89 96 87 83 91 96 88 115 134 134 141 119 115 123 123 119 113 123 125 120 121 126 121 107 107 97 106 98 111 95 87 88 88 81 77 74 70 80 75 75 73 77 75 77 75 79 78 77 77 79 74 76 76 83 65 64 62 64 68 63 64 69 63 68 64 66 66 66 72 70 68 66 71 68 68 77 100 91 93 92 92 82 74 93 92 85 88 97 82 87 84 89 88 86 91 87 101 104 101 140 129 119 117 121 112 112 110 116 120 124 99 104 111 113 111 115 111 119 117 85 96 100 83 83 84 80 81 76 74 76 80 76 70 77 75 78 73 82 79 75 78 77 79 79 81 80 68 63 61 70 60 68 68 68 66 66 67 68 66 65 76 65 79 62 75 85 79 78 98 72 95 82 92 92 91 93 79 88 86 99 85 87 76 92 100 97 110 105 121 125 129 132 124 131 120 117 110 115 123 141 110 89 99 97 100 108 110 117 116 121 119 106 107 104 84 101 95 79 89 80 86 77 77 78 74 72 80 77 77 80 80 80 78 80 80 79 80 77 68 69 64 74 60 70 68 63 72 64 69 67 74 67 80 66 76 69 96 82 80 98 89 81 83 93 102 93 89 94 79 89 95 97 91 90 77 93 94 101 96 101 107 123 127 134 137 168 157 134 123 127 125 114 95 93 111 110 115 118 110 108 93 88 109 110 103 122 107 103 109 96 86 96 93 82 78 75 75 76 74 75 75 82 76 77 81 79 84 82 80 82 66 68 67 68 69 70 68 66 65 69 66 70 70 67 77 77 69 80 90 83 96 86 95 102 114 96 86 92 96 110 100 96 105 100 87 97 91 97 90 101 103 124 110 123 106 115 125 119 109 113 124 115 102 103 102 109 109 114 100 90 96 91 101 92 91 111 111 122 103 113 96 105 95 77 97 87 84 82 75 77 79 77 78 79 84 78 77 79 84 81 84 80 68 65 68 68 75 65 74 66 68 69 70 68 71 69 69 77 72 71 100 80 97 79 82 108 98 79 89 114 111 99 102 97 109 95 84 87 96 106 84 126 134 137 122 130 131 131 139 134 132 142 135 108 75 95 101 91 96 103 81 88 95 102 95 89 96 110 102 109 105 103 113 99 97 83 94 74 82 80 86 79 78 81 76 77 83 80 85 81 82 81 86 84 67 67 67 67 71 70 71 67 69 68 73 67 77 70 70 75 85 74 95 86 95 79 96 107 86 75 112 106 108 87 107 112 111 114 70 83 91 86 113 138 138 146 152 135 115 123 146 143 116 119 108 85 80 111 90 89 98 88 79 91 94 98 95 98 88 105 104 105 101 101 115 97 109 99 85 85 77 81 79 86 79 84 80 76 82 83 82 80 84 81 83 85 67 71 68 70 66 74 68 71 73 74 70 78 69 77 76 76 99 80 81 97 86 82 104 97 86 105 84 91 108 95 109 103 93 108 73 73 85 93 101 98 116 124 137 129 127 107 113 113 84 105 99 96 89 101 75 102 88 90 78 84 89 93 111 98 86 107 96 97 107 114 100 103 98 109 93 93 87 80 78 82 79 80 79 79 82 80 84 85 82 82 82 84 69 71 65 72 68 71 69 69 70 72 76 71 80 83 83 89 103 80 89 90 92 89 107 88 92 89 85 85 107 109 114 93 92 100 88 84 91 87 82 85 100 117 114 99 99 62 88 104 91 93 71 89 93 86 70 108 76 84 68 86 97 100 115 100 91 107 106 108 99 117 102 109 111 93 112 99 88 86 84 76 81 83 74 84 81 81 79 86 80 85 82 82 74 72 69 73 76 66 71 71 69 71 65 78 71 96 95 86 100 87 81 96 92 87 112 85 92 91 84 92 91 113 99 100 90 94 84 93 89 87 83 80 78 96 89 99 87 62 103 110 90 110 89 99 91 95 70 93 70 71 56 86 102 89 115 111 106 105 110 101 94 107 111 108 113 95 103 124 116 91 86 82 78 84 80 83 80 77 81 83 82 85 84 87 69 69 70 68 69 73 74 74 71 70 74 81 75 83 91 94 79 90 72 85 99 105 100 112 95 82 78 83 91 110 77 100 94 99 87 91 92 91 86 77 80 97 71 87 72 71 74 95 82 95 92 115 105 100 104 100 95 66 78 97 88 110 119 100 106 101 88 92 98 94 101 105 112 110 121 106 126 113 105 86 84 74 91 75 82 81 80 88 85 85 83 88 67 73 70 73 63 71 67 73 69 80 69 79 76 73 91 89 76 83 80 84 96 98 99 100 117 83 87 73 80 103 66 82 113 98 98 101 91 91 77 74 90 87 60 72 76 71 78 89 88 91 86 109 91 72 81 67 90 75 83 84 60 119 93 102 88 71 71 75 86 88 95 106 107 112 113 118 109 111 118 96 89 77 85 83 81 81 84 83 84 86 83 84 70 70 70 70 69 67 68 77 68 74 67 75 80 85 91 87 83 73 92 93 87 90 108 104 104 120 101 88 85 98 81 83 113 81 104 103 74 92 90 71 85 88 51 57 83 74 87 80 94 93 86 101 81 78 77 67 59 67 77 77 74 99 87 92 61 57 62 71 78 84 84 97 115 114 100 114 118 108 94 131 104 82 77 85 81 81 80 84 86 86 80 85 69 73 69 68 74 63 69 76 70 71 69 82 75 88 104 96 89 84 96 98 102 79 95 132 95 110 113 106 86 98 95 82 99 89 95 91 59 89 95 74 66 93 68 32 85 79 88 70 67 97 100 105 79 96 79 60 77 84 72 81 94 79 85 67 54 60 72 64 75 84 80 97 107 114 117 88 125 105 86 105 118 122 69 84 79 81 81 84 85 87 78 84 68 75 69 75 68 69 71 72 70 70 71 95 87 76 85 89 100 95 86 109 116 103 74 103 122 110 100 106 111 104 115 85 99 96 98 75 54 87 80 76 60 75 86 42 92 68 55 69 50 82 79 99 114 91 123 62 66 90 93 82 81 71 68 62 57 57 60 67 68 85 78 87 103 122 120 94 123 121 100 97 92 125 106 71 81 82 85 83 88 85 84 82 71 70 73 75 68 71 71 70 67 74 79 84 85 78 77 85 87 108 97 89 110 109 90 82 102 122 92 99 112 116 112 88 95 98 90 87 58 97 65 69 67 65 91 72 89 71 56 68 72 64 93 86 102 139 125 121 74 82 90 85 81 68 85 66 66 49 53 72 63 82 87 84 101 113 121 110 97 122 110 99 103 88 118 79 84 79 82 84 85 89 84 84 69 72 71 76 68 73 69 73 82 84 86 71 82 80 86 80 83 98 105 91 87 85 82 91 91 106 100 97 96 110 92 97 92 84 86 98 70 100 77 70 59 74 84 73 97 72 69 73 89 82 96 91 101 89 167 103 119 84 104 103 91 79 93 84 62 53 57 52 52 68 82 74 108 105 120 129 97 104 116 98 114 98 97 98 80 84 80 85 83 84 88 83 73 71 71 71 73 73 73 74 102 85 85 74 82 80 102 90 82 88 90 93 80 86 79 88 87 87 97 100 100 106 86 89 79 90 92 92 88 91 101 82 71 72 81 81 88 97 88 104 102 103 113 105 105 118 122 144 133 127 127 123 132 112 109 106 86 70 63 63 60 59 86 82 90 116 90 151 106 106 116 105 96 112 87 102 89 84 83 87 86 86 87 86 70 73 72 68 80 76 83 86 91 105 93 82 81 87 83 87 93 96 80 67 76 80 71 85 83 73 84 91 89 87 79 81 81 74 92 99 92 91 96 94 90 86 86 92 95 100 110 117 124 141 134 136 143 145 136 165 152 153 157 158 174 153 143 141 138 114 85 87 59 49 63 93 76 97 100 126 125 90 123 96 95 116 101 92 90 84 84 87 88 83 86 86 75 71 74 66 72 93 82 83 88 96 98 90 72 86 79 74 79 89 85 73 64 75 79 78 78 80 75 82 78 78 82 71 96 68 82 93 94 87 100 95 107 105 100 105 112 123 139 146 163 169 165 181 186 184 181 191 193 169 179 193 195 191 184 181 186 163 131 105 90 43 45 64 94 92 102 114 131 87 107 100 98 108 129 107 85 97 81 93 83 84 83 89 76 72 73 77 74 90 90 89 81 99 104 92 87 80 92 87 74 79 109 81 73 78 71 75 79 79 79 80 77 88 77 85 91 93 90 94 96 94 94 113 115 113 109 113 132 153 179 184 192 194 196 204 211 203 204 205 210 209 183 201 209 206 201 198 204 200 185 159 115 91 47 50 84 114 88 102 131 102 107 98 109 99 121 136 113 92 89 99 83 86 86 88 78 76 73 82 78 87 95 89 86 109 106 93 94 99 86 108 76 63 94 95 80 76 76 81 79 85 90 86 83 88 95 97 90 103 102 100 102 101 102 112 123 122 126 140 162 180 192 202 202 206 209 210 211 210 210 212 213 217 209 195 209 210 214 208 208 208 200 201 171 119 93 55 58 94 114 79 129 116 83 96 98 90 110 120 121 105 100 97 89 85 87 88 68 73 72 73 75 77 110 114 95 107 99 94 90 99 90 91 76 64 65 76 80 80 82 89 90 95 90 83 99 99 110 115 107 109 109 106 113 113 123 109 130 137 159 164 176 189 204 209 205 209 211 209 212 211 210 214 213 215 219 204 208 216 216 213 214 213 207 201 204 172 125 57 51 70 91 101 93 126 84 98 87 90 112 106 132 120 105 105 90 85 85 87 70 72 76 72 76 89 106 116 111 100 94 86 93 92 95 65 71 68 80 80 85 83 83 85 105 92 93 111 113 112 117 118 123 122 126 125 129 129 131 130 161 157 170 170 183 197 202 210 211 210 211 212 211 211 213 214 211 213 216 212 213 216 216 217 216 214 216 211 199 210 173 108 58 29 91 81 108 92 112 97 100 94 118 111 138 130 104 84 95 93 83 89 65 68 75 82 93 72 111 132 110 110 74 81 80 80 100 75 71 76 91 88 80 78 80 90 108 105 118 120 122 125 127 125 133 131 134 146 143 148 149 152 173 174 177 183 191 198 206 211 207 212 213 210 211 214 213 216 212 213 215 215 216 215 216 217 217 219 214 214 214 204 208 160 94 33 74 84 101 100 110 92 97 92 109 105 119 120 99 82 81 92 83 92 71 70 69 95 97 83 102 147 150 108 93 75 98 83 89 90 78 85 80 82 86 86 88 99 117 123 133 123 134 136 135 133 133 144 152 166 162 171 162 167 183 185 185 190 197 200 205 207 209 212 212 211 211 213 214 217 215 214 217 216 217 217 216 216 217 217 217 216 213 215 215 203 142 68 82 64 101 97 97 100 101 94 111 135 140 124 92 81 81 89 89 85 77 69 79 92 98 99 110 130 138 114 111 87 110 112 100 87 79 73 84 84 97 104 103 112 138 140 137 141 145 143 133 141 155 168 173 180 184 179 176 180 184 192 191 197 201 201 206 207 207 211 213 211 212 214 214 216 215 216 217 217 218 216 218 216 218 217 217 217 216 217 215 218 199 97 67 88 79 114 104 83 103 107 115 124 113 111 89 75 76 90 91 86 76 67 80 104 115 134 120 137 113 119 108 100 88 89 77 77 70 79 86 101 122 119 109 144 153 143 144 156 155 154 156 171 186 189 178 186 186 182 183 192 192 197 200 198 202 208 209 210 206 209 212 211 212 212 214 216 216 214 217 217 217 217 217 217 217 218 218 218 217 217 218 216 226 163 60 106 95 107 123 91 109 107 113 131 122 94 108 76 70 81 85 87 69 71 72 87 108 117 119 114 111 73 98 117 90 83 69 82 74 87 101 117 139 126 134 153 148 152 161 164 170 173 183 186 192 178 184 189 186 184 195 195 197 199 203 201 204 208 210 212 209 209 211 212 212 213 213 215 216 216 217 218 217 217 216 218 218 217 218 217 217 218 217 216 223 214 105 71 114 114 125 106 101 126 112 116 130 120 116 133 90 68 87 85 79 70 71 77 118 106 96 76 66 52 66 67 65 60 101 91 83 93 121 142 145 135 145 152 154 161 171 176 181 182 189 184 168 180 187 179 186 192 198 193 199 202 203 204 207 208 210 209 212 209 211 212 216 212 212 217 215 216 216 216 218 217 217 217 218 217 219 217 218 218 218 216 219 223 169 72 99 117 134 115 101 100 129 101 132 120 106 116 109 86 84 85 72 87 56 104 121 110 94 94 66 45 52 62 44 89 105 110 81 104 134 152 155 143 157 161 162 176 177 184 190 187 180 181 179 185 185 190 191 192 194 200 203 202 205 209 209 209 211 211 211 211 213 212 214 215 214 215 216 216 217 217 217 217 218 217 217 218 217 218 218 217 219 218 218 223 204 124 71 106 117 134 100 108 114 104 88 107 100 82 74 82 81 84 63 101 93 117 124 97 76 60 62 52 53 49 47 83 91 95 64 114 155 165 171 153 170 175 175 184 188 186 182 171 183 187 189 187 189 195 189 192 197 203 203 202 205 206 212 209 213 210 212 212 214 214 214 215 216 216 216 218 217 216 217 217 217 218 218 218 218 218 218 217 218 219 218 219 225 152 82 97 119 131 114 103 104 113 100 126 128 99 59 67 82 81 66 99 88 124 136 80 60 71 67 59 65 60 56 80 74 57 80 133 176 181 173 175 181 183 185 187 180 175 184 186 189 195 190 190 190 193 190 196 198 202 204 204 206 209 211 210 211 211 210 212 215 213 214 214 216 216 216 216 217 217 217 217 219 217 218 217 218 217 218 218 218 218 216 219 225 194 110 68 133 146 109 106 106 98 123 135 131 119 96 82 67 84 68 74 98 124 96 67 90 79 70 84 77 85 68 71 56 57 89 150 189 183 184 187 184 192 192 178 175 190 195 193 186 193 190 189 189 191 196 194 200 198 205 204 206 210 207 210 210 210 209 211 215 213 213 215 217 215 218 217 217 216 216 217 218 218 218 218 217 217 218 220 218 218 219 214 223 221 140 68 122 141 140 88 105 114 95 125 111 95 94 80 74 90 61 73 117 95 73 93 87 58 53 75 58 67 63 61 52 58 100 156 192 190 190 186 196 193 184 182 193 193 194 188 173 192 190 191 193 194 199 195 199 202 203 203 206 208 209 208 209 212 209 209 213 214 213 215 215 216 217 216 217 218 216 217 217 218 217 219 218 217 217 218 219 218 217 218 217 229 168 86 77 161 144 106 105 113 126 95 109 86 75 67 74 90 57 74 99 81 78 86 77 60 46 53 56 70 57 53 55 73 109 173 194 191 191 198 192 187 193 194 194 192 193 186 188 193 191 193 194 196 197 196 199 201 202 204 204 209 207 205 208 211 208 211 214 213 212 214 214 215 216 217 216 217 218 217 217 218 217 219 218 218 219 218 218 218 218 217 215 234 199 119 67 148 149 139 96 110 127 128 96 96 96 49 71 88 41 84 98 89 73 89 68 69 74 63 59 66 63 49 54 80 119 183 197 194 195 204 179 192 199 193 193 188 189 189 194 194 190 194 195 197 196 198 196 200 205 202 206 206 205 206 205 209 211 211 211 212 215 210 215 214 216 216 216 216 216 217 218 217 217 218 218 217 218 219 218 218 217 218 216 224 216 137 89 115 154 136 139 97 95 112 105 83 88 84 60 86 59 109 80 96 126 105 84 59 55 70 62 77 59 53 62 82 139 196 200 195 198 203 183 198 196 191 191 190 192 193 195 196 193 192 193 192 198 195 198 197 202 201 203 207 202 207 206 210 207 210 212 213 212 216 214 215 216 217 217 216 216 215 216 217 217 217 217 217 217 219 217 218 218 215 215 224 224 158 99 112 162 131 114 113 102 107 96 93 72 80 68 91 89 112 84 104 142 103 69 68 65 64 59 85 68 57 62 95 153 201 200 198 199 202 186 200 196 189 196 192 196 197 195 193 193 188 193 190 192 193 199 194 199 197 203 204 206 206 204 207 207 210 208 214 211 216 215 215 213 215 216 216 216 216 216 216 216 216 217 217 217 217 218 218 216 218 217 216 231 167 121 102 168 131 119 81 105 113 114 107 87 65 83 75 108 111 76 98 94 78 61 66 86 54 71 86 67 57 72 93 166 205 202 199 201 199 189 199 195 192 195 195 197 194 193 195 191 187 193 187 190 189 190 195 194 194 202 205 206 204 205 205 203 203 210 210 212 214 214 213 215 212 214 214 213 213 213 215 216 215 216 217 216 218 217 217 217 216 215 217 233 182 92 129 177 102 132 83 79 91 111 103 110 77 72 82 130 119 81 88 74 53 68 89 72 70 76 86 65 63 67 94 186 205 202 199 196 199 194 198 198 195 195 194 193 193 192 190 190 188 188 183 185 186 187 185 192 191 199 203 203 200 202 204 203 201 204 209 210 211 209 210 210 209 211 208 209 208 206 210 212 212 209 209 215 216 216 218 218 216 215 215 228 202 87 128 150 103 98 102 68 71 76 87 118 87 79 68 133 127 97 70 53 50 81 85 71 89 83 91 65 66 61 93 202 202 203 196 198 197 198 196 195 193 190 194 190 190 187 187 186 188 182 180 187 184 183 183 186 183 191 202 193 198 200 197 202 199 200 204 205 208 203 201 204 197 195 194 193 188 195 192 200 196 195 200 204 207 216 217 218 216 215 213 224 219 95 109 125 94 79 102 71 69 59 57 97 92 69 75 124 133 85 74 45 92 105 87 97 90 105 93 65 67 59 103 211 202 202 196 199 197 195 194 193 192 189 188 189 183 181 186 183 183 183 182 180 178 174 178 179 177 184 192 184 192 193 192 192 195 197 194 193 199 185 186 168 158 147 145 150 142 145 151 165 154 172 182 189 193 200 211 215 215 216 212 218 233 110 92 114 84 74 83 83 77 65 49 65 62 84 61 122 112 109 78 75 110 123 91 94 87 105 106 68 66 60 121 220 205 196 200 199 196 194 189 184 184 180 165 165 167 166 166 167 164 162 161 162 158 158 154 166 171 177 182 177 185 193 184 189 189 189 177 167 186 169 158 130 112 104 95 92 103 112 109 120 127 137 153 156 162 169 185 204 200 212 209 215 231 138 71 105 78 75 69 79 75 85 67 52 62 53 81 125 104 114 82 80 107 107 77 89 99 104 125 83 68 63 140 218 201 200 196 202 192 172 158 157 159 145 130 137 128 116 123 121 122 125 120 127 138 139 140 144 162 163 171 167 171 184 180 175 182 164 159 151 169 147 139 111 101 88 79 74 73 81 89 94 102 107 122 126 133 146 160 183 199 204 205 209 232 167 62 98 71 69 74 68 74 69 84 74 74 54 52 113 103 93 84 70 80 76 78 94 102 106 137 108 53 55 143 216 201 196 198 198 176 155 151 144 133 116 105 100 90 87 78 88 82 88 89 98 111 122 122 131 146 156 158 163 166 181 177 162 162 149 151 142 149 134 120 106 99 84 75 70 66 75 74 84 90 104 106 112 113 117 125 155 177 193 200 205 222 200 58 89 72 67 61 67 59 64 78 90 86 71 66 98 103 83 78 71 81 87 93 97 97 107 159 114 47 56 146 215 202 193 186 168 155 145 137 126 105 96 83 81 69 76 63 67 58 69 75 79 94 104 112 121 131 148 151 153 165 174 180 162 152 148 140 135 134 121 110 100 92 82 74 77 81 89 96 112 113 123 122 122 125 125 123 134 152 174 198 197 213 237 69 79 75 60 60 66 65 54 56 76 83 85 75 88 111 80 66 87 94 97 103 94 87 87 165 135 53 54 153 212 203 188 178 156 137 121 115 99 91 83 75 74 63 66 64 64 61 67 77 82 97 102 111 117 124 135 151 153 169 173 183 165 162 155 138 136 122 115 103 93 88 82 79 83 90 108 117 124 114 116 119 117 121 131 137 145 141 151 185 195 204 234 116 65 71 64 57 63 69 66 68 55 74 80 83 75 105 72 81 85 93 87 92 71 65 78 122 150 67 58 161 215 196 187 180 158 137 117 120 101 92 97 84 78 80 64 71 65 64 71 75 86 103 116 126 128 133 138 154 167 175 185 200 186 184 175 158 144 119 102 95 84 83 71 69 85 107 133 159 159 146 141 124 94 89 111 132 143 153 165 170 195 203 223 177 62 70 63 61 70 73 76 76 82 59 63 73 79 89 69 99 99 87 89 70 63 70 66 83 162 69 54 174 211 195 183 164 156 130 118 127 117 110 107 106 94 86 76 62 60 58 57 60 63 71 87 114 141 139 165 171 184 186 191 213 210 206 205 189 153 105 93 82 72 70 79 86 86 82 77 87 103 115 156 180 194 139 53 103 124 142 168 182 198 207 205 238 93 63 56 70 94 76 66 73 85 76 70 51 90 66 82 91 89 80 70 74 71 67 59 62 134 68 64 192 208 193 176 157 160 139 134 136 126 114 103 101 97 97 86 73 67 68 51 50 42 49 53 59 86 126 181 192 188 194 200 212 213 212 217 222 133 92 77 79 77 77 75 79 58 49 37 38 49 56 100 97 121 150 149 82 87 129 171 182 198 207 205 224 161 64 53 79 75 67 69 74 61 69 69 55 74 68 69 91 69 80 68 83 78 61 55 58 100 62 82 202 203 187 168 165 153 158 142 136 111 103 123 126 112 85 68 34 76 49 66 55 48 48 40 44 41 103 188 198 189 194 200 213 214 213 222 223 136 97 105 108 81 57 74 105 63 88 39 54 70 75 157 121 92 120 128 150 145 143 171 191 207 211 206 216 219 101 50 57 72 59 75 86 67 76 83 79 62 70 61 72 55 75 80 82 82 75 53 52 82 65 106 210 201 178 175 175 171 162 144 103 103 158 102 133 117 33 34 19 51 63 88 62 47 48 49 38 25 95 187 202 189 191 204 211 213 214 220 219 158 137 164 117 111 82 91 113 102 113 100 111 108 124 141 141 161 167 175 170 180 186 195 200 207 213 212 207 229 139 38 61 58 55 76 84 92 81 85 81 57 66 56 51 60 79 85 78 84 74 60 53 70 64 138 213 201 183 186 186 177 165 121 86 144 138 57 215 179 12 49 28 72 72 102 80 52 44 44 59 32 108 191 202 195 195 202 211 212 216 220 216 185 170 171 159 147 130 121 122 129 132 131 141 148 159 176 176 197 190 205 203 205 205 206 207 211 214 215 203 232 150 47 64 73 68 84 84 85 84 86 71 53 67 46 56 72 79 93 77 92 83 66 62 63 60 170 210 194 197 197 184 181 149 101 110 100 90 57 153 119 60 89 89 109 113 129 123 105 94 82 77 85 132 194 202 196 199 205 210 213 215 218 216 204 187 171 165 169 163 138 131 136 135 144 147 154 166 180 185 197 195 207 208 208 213 212 211 212 214 216 205 225 165 67 50 68 87 85 76 73 79 85 91 55 64 52 53 83 91 73 63 71 76 80 51 85 51 187 208 195 204 197 186 187 137 114 108 126 135 138 128 123 111 119 120 116 125 125 133 125 116 112 117 139 165 188 197 198 200 203 212 213 213 216 214 213 204 187 172 178 174 158 145 139 126 132 120 121 134 147 156 177 193 202 208 212 213 212 214 213 214 216 209 216 203 86 62 67 79 88 71 43 61 58 69 59 62 55 65 88 92 57 46 50 55 102 59 97 53 195 205 197 202 196 186 171 142 146 154 169 180 168 156 133 128 118 116 111 112 124 128 134 138 144 153 171 182 187 193 193 196 202 210 213 211 215 213 214 213 206 197 191 187 191 185 185 180 182 180 176 184 185 190 196 197 207 207 209 212 212 212 215 212 215 211 208 213 61 95 84 100 81 83 65 47 49 55 60 56 67 66 88 98 67 58 68 77 84 67 90 47 197 206 198 202 188 182 170 170 172 165 162 167 155 138 121 110 118 121 125 138 145 151 159 164 169 173 191 188 184 190 193 194 202 208 210 210 210 211 214 215 213 212 204 202 201 201 200 202 202 199 201 202 206 205 207 208 206 209 209 212 212 213 214 213 215 211 202 223 102 110 107 119 57 71 71 26 51 53 59 59 70 60 76 95 83 73 59 73 83 74 86 43 196 208 199 199 185 180 177 180 175 161 163 165 155 147 150 147 154 154 156 161 157 169 169 171 176 185 192 183 181 189 191 194 203 205 209 208 210 209 213 215 216 213 212 207 206 207 204 206 206 202 202 204 204 207 208 207 208 210 211 212 212 214 214 212 212 213 204 223 155 154 124 146 72 70 62 29 40 36 59 58 60 55 71 84 69 56 62 71 68 75 95 43 201 206 197 194 185 182 186 173 165 170 173 171 168 165 166 165 162 169 170 168 168 173 175 178 184 190 189 179 183 187 189 196 203 206 210 210 212 212 211 214 214 216 212 207 208 208 207 206 208 204 202 205 204 206 210 210 210 213 208 214 213 214 215 213 213 214 205 215 191 175 155 208 128 96 50 34 43 32 58 56 56 46 78 75 50 38 46 61 67 69 93 55 208 201 195 194 187 187 187 180 173 182 177 177 174 172 173 168 171 173 172 176 175 177 179 185 195 192 178 183 190 190 184 189 194 200 213 209 212 214 215 210 211 213 212 208 208 207 207 206 208 206 204 208 206 207 209 210 209 212 210 212 214 215 212 213 213 213 208 206 201 185 188 225 196 155 55 39 53 34 65 57 54 67 57 67 37 27 59 98 100 83 89 92 211 197 194 195 189 188 185 185 180 183 181 180 180 178 173 176 174 179 177 178 178 183 181 191 196 190 180 189 199 200 170 168 170 183 195 202 207 206 213 214 212 211 214 204 207 201 207 206 205 206 209 206 206 207 208 208 211 211 215 212 212 216 213 212 214 213 211 202 193 204 212 220 222 219 36 38 48 47 66 58 59 65 57 54 39 19 114 177 144 118 121 160 210 193 191 191 193 189 188 186 187 184 188 186 181 177 180 181 181 185 182 180 183 184 184 186 190 190 191 186 187 180 156 136 138 147 161 177 188 187 199 199 212 213 216 213 193 194 196 204 203 204 210 208 208 208 208 203 207 212 214 212 213 215 212 214 213 212 209 205 175 188 220 217 222 244 32 54 48 65 68 59 53 58 62 64 33 11 157 83 108 192 193 203 205 190 190 187 194 188 190 187 188 188 187 188 187 187 188 189 188 187 190 184 187 182 178 165 195 195 187 166 158 142 145 114 110 114 130 152 162 154 149 156 171 187 211 224 194 181 183 192 199 200 205 204 210 204 205 203 207 209 212 215 209 215 213 212 211 213 207 210 180 73 201 215 220 239 32 43 64 76 65 61 59 61 59 65 44 17 109 79 121 213 208 205 202 191 182 197 197 192 192 190 191 191 192 193 190 188 189 188 187 189 188 184 181 183 162 169 208 165 140 123 121 112 129 126 104 94 103 148 105 69 68 69 81 126 167 213 199 167 174 171 182 194 200 198 202 202 201 201 201 205 207 209 213 213 210 213 210 209 207 215 166 88 157 197 212 232 84 49 76 74 65 63 58 59 56 63 56 21 74 107 168 220 217 197 203 192 189 196 197 197 195 192 193 192 193 190 189 185 185 187 189 185 183 177 176 183 138 176 188 116 76 51 52 44 47 132 124 81 92 155 70 44 36 37 35 62 113 176 192 180 179 164 164 176 184 191 190 195 197 194 200 198 201 205 207 212 210 211 212 202 208 206 172 117 149 169 203 225 130 28 79 78 57 65 58 61 51 62 59 29 48 154 196 212 207 182 202 195 193 199 197 197 197 191 193 197 193 192 185 183 185 185 185 183 179 174 175 173 102 158 175 92 47 34 34 22 61 128 155 77 77 167 123 100 67 62 58 60 90 143 182 190 186 171 166 159 169 181 185 188 192 188 196 196 201 201 203 210 208 211 208 204 207 191 216 130 165 161 188 226 175 31 73 77 60 64 59 59 63 56 64 33 72 171 206 203 197 195 195 193 195 201 197 197 195 190 193 198 192 191 178 181 178 184 182 173 171 169 171 151 93 113 180 101 51 44 50 76 131 142 147 90 65 136 154 160 151 132 114 96 96 139 184 196 190 182 176 161 155 165 175 182 184 184 193 184 199 200 202 206 206 207 208 204 208 182 220 166 163 156 165 213 213 51 75 74 62 59 60 59 60 57 63 32 118 132 201 202 206 205 176 199 196 204 195 196 196 197 193 197 189 181 183 183 175 177 173 169 171 168 163 125 100 90 139 142 84 75 102 119 132 106 100 86 60 94 128 159 175 164 144 128 138 174 193 201 192 188 179 171 158 155 165 169 173 183 186 187 193 197 200 198 204 203 204 202 208 178 221 188 175 152 147 190 229 45 68 75 66 60 59 64 58 58 60 29 164 72 177 220 214 143 114 213 200 203 192 198 195 200 199 195 189 182 181 173 174 168 164 166 162 165 147 109 111 115 106 128 122 112 128 126 123 94 61 69 67 96 122 155 188 191 194 189 192 195 195 202 202 187 187 169 173 165 165 168 172 177 180 188 196 196 199 195 197 198 192 198 206 178 222 192 198 177 168 204 236 52 59 77 62 63 60 66 54 58 58 27 188 63 179 233 166 103 68 211 198 203 193 195 200 197 198 193 186 178 176 175 170 170 164 166 163 163 141 117 127 128 125 128 125 119 125 122 115 96 78 97 119 108 117 139 181 186 192 197 195 201 197 205 205 194 187 170 162 165 161 165 168 171 178 176 187 201 196 194 194 197 190 199 203 181 214 176 209 216 207 199 236 56 57 74 55 64 57 62 59 58 62 34 160 95 199 213 127 88 70 200 200 198 194 197 202 196 198 194 181 177 170 172 169 166 170 159 166 158 145 138 142 151 138 130 131 114 121 125 125 117 117 127 148 129 113 130 159 178 191 193 192 197 200 208 205 196 190 174 153 153 149 158 159 162 176 172 171 194 195 191 191 193 194 191 197 178 203 192 212 215 208 176 243 62 57 74 58 60 62 58 62 57 59 35 102 168 209 165 98 76 87 206 200 195 192 198 199 197 199 192 180 179 169 171 176 170 172 162 168 153 154 163 166 168 148 143 142 133 137 139 133 135 134 148 158 146 132 131 156 177 179 194 191 191 202 207 203 202 200 187 155 147 135 152 156 151 162 178 179 186 190 186 188 188 192 190 193 164 215 214 203 210 206 199 229 49 63 67 62 59 60 63 51 62 55 53 19 197 217 131 78 80 68 198 199 196 193 197 195 196 199 189 183 175 176 174 179 162 168 157 156 149 155 172 173 164 155 146 150 140 150 147 146 150 160 164 166 158 155 153 162 187 190 197 199 188 204 207 201 205 197 192 167 153 131 137 159 152 134 171 179 187 184 190 185 185 187 191 188 168 217 217 209 203 208 220 197 39 66 71 63 61 58 62 57 57 57 64 21 131 217 112 76 97 85 144 197 200 193 193 193 195 193 190 185 178 174 180 173 164 166 143 137 142 155 170 172 161 159 152 156 161 165 163 151 157 167 173 180 174 170 172 171 172 180 191 201 197 204 211 198 206 194 178 153 144 136 123 142 157 110 154 180 190 188 189 178 186 176 184 187 170 219 212 213 212 204 226 133 43 70 67 61 60 61 60 62 56 56 59 44 53 209 146 85 173 143 102 183 203 194 190 191 192 188 192 184 175 178 177 169 158 146 135 126 141 162 168 164 165 172 166 176 167 157 138 131 129 130 131 141 146 140 140 143 132 133 139 157 171 187 207 202 203 195 183 135 124 119 118 128 142 135 137 173 180 191 187 177 178 178 180 184 170 220 206 208 211 212 231 89 65 71 72 60 59 63 61 58 55 53 62 63 7 188 222 183 198 157 138 169 200 195 187 187 195 189 186 183 178 178 168 164 151 123 118 119 126 165 160 163 176 182 170 153 132 124 116 112 108 107 103 111 125 120 120 109 114 121 122 125 128 130 149 169 189 192 186 115 106 99 105 109 127 141 134 175 172 193 191 187 169 177 181 189 165 197 189 191 198 208 194 55 62 75 68 58 64 55 60 56 60 50 59 60 21 133 216 198 194 157 203 181 193 189 189 182 188 191 191 184 186 168 165 149 129 108 108 96 98 153 162 178 180 162 144 129 122 117 110 99 101 91 83 91 94 94 101 93 86 89 92 102 107 108 112 116 128 155 156 114 87 82 87 98 113 132 139 184 188 190 193 179 166 172 173 192 167 120 131 136 137 130 79 73 72 74 70 61 64 59 60 55 56 55 56 59 37 53 213 205 197 137 195 186 187 188 186 178 183 194 190 186 189 170 156 135 112 104 99 80 61 140 169 160 140 125 129 127 101 89 89 79 72 88 85 74 71 80 93 95 92 89 83 93 87 79 81 100 87 87 97 86 75 65 77 96 109 130 153 180 190 186 188 176 162 170 177 192 174 34 63 69 82 67 68 74 69 76 66 62 61 64 60 57 57 58 54 54 58 24 141 218 213 169 180 198 181 189 187 169 179 191 195 188 184 164 136 127 101 92 90 70 40 100 146 124 111 120 106 113 102 97 110 122 121 140 152 141 152 154 163 163 167 167 166 181 182 163 142 125 78 55 57 71 68 79 90 112 126 143 166 177 193 174 190 171 165 173 180 194 161 16 56 53 75 62 68 66 69 75 71 63 59 62 57 58 57 54 57 57 48 41 60 215 201 180 178 193 176 191 187 170 171 191 197 190 184 158 129 111 96 91 74 53 38 46 71 98 117 138 145 157 153 146 147 156 153 163 170 165 162 173 187 193 180 171 174 195 200 201 202 205 186 152 141 147 145 137 132 128 142 162 165 181 185 169 180 167 164 177 178 200 141 25 57 69 63 64 63 66 64 67 70 67 62 60 57 53 58 56 56 55 54 51 39 216 200 182 184 170 163 201 189 166 161 189 198 192 179 158 129 106 96 98 63 28 28 23 44 129 173 177 181 169 152 137 134 130 131 132 140 136 132 128 152 161 156 160 165 185 189 193 202 199 204 200 197 173 167 157 144 145 155 169 168 176 184 171 169 166 166 181 179 202 111 39 60 58 64 61 65 67 67 64 70 61 61 57 60 57 56 54 57 54 54 57 31 143 206 183 158 131 120 205 193 175 153 184 195 196 189 159 133 118 120 120 89 32 24 59 153 177 189 182 169 167 151 134 126 121 116 115 120 126 125 121 121 130 137 148 147 166 185 189 198 201 204 202 205 190 175 150 157 150 165 154 173 174 181 176 167 169 162 176 180 195 94 45 55 64 61 62 62 65 66 64 70 62 61 57 51 62 56 53 55 52 52 52 47 32 113 131 112 71 58 216 193 179 159 182 187 193 189 165 137 137 140 138 121 71 40 129 191 184 180 171 163 148 136 124 118 106 103 98 100 102 108 113 116 121 136 145 150 162 177 191 196 201 202 199 203 200 196 174 159 162 160 157 160 171 174 176 167 178 164 171 173 194 58 47 51 58 62 58 64 65 63 67 66 60 62 58 57 64 57 56 57 55 52 53 54 49 47 62 59 51 22 213 199 187 164 172 182 192 185 172 144 147 145 153 132 98 86 165 188 184 181 172 168 156 140 128 123 109 103 105 100 99 114 110 118 118 130 144 144 157 178 189 194 195 198 191 206 201 203 193 178 170 162 158 168 167 168 173 172 175 169 168 173 174 41 52 53 58 62 62 64 64 62 65 66 57 61 59 64 58 58 59 55 57 50 55 51 51 53 51 52 53 12 169 204 194 166 176 184 193 181 174 138 145 154 158 137 107 131 181 182 182 180 175 161 153 139 135 118 110 105 108 101 107 110 116 116 120 132 144 153 162 179 191 190 194 190 195 206 201 207 193 186 177 163 166 166 155 165 169 180 175 171 157 177 144 31 54 56 60 57 63 66 65 65 68 67 58 59 58 65 57 60 55 55 60 50 51 54 54 52 49 50 49 24 102 210 189 178 173 187 190 174 174 141 135 148 155 140 131 165 186 174 175 179 176 163 144 146 133 121 116 115 113 106 108 117 120 123 129 139 147 161 172 184 193 196 194 195 194 202 203 202 200 189 176 161 170 180 157 167 170 176 171 171 158 184 91 41 57 55 56 61 62 60 69 63 68 68 54 62 61 67 57 61 56 55 61 49 53 57 51 55 50 49 47 48 48 206 188 185 173 185 189 175 160 150 130 144 153 149 158 179 186 179 177 177 177 159 153 149 135 131 126 120 123 122 122 131 136 137 145 151 156 164 180 183 192 199 195 198 200 202 203 197 202 192 182 159 166 169 162 165 169 169 168 167 163 172 53 53 57 51 59 58 65 64 65 67 65 67 58 61 64 63 58 59 58 55 56 54 51 54 49 55 50 49 50 54 10 166 196 181 175 187 184 191 157 150 138 139 156 145 166 182 182 184 176 176 174 160 160 153 147 146 137 142 146 149 150 160 161 161 167 176 174 172 182 189 195 199 199 197 197 202 203 194 190 195 194 160 173 165 156 168 159 166 162 158 165 149 35 54 57 54 58 59 65 65 63 66 66 72 57 64 62 65 63 63 60 54 55 55 47 51 55 54 50 48 50 51 19 85 207 185 174 183 181 183 174 152 152 150 152 153 165 181 182 179 177 173 173 175 165 156 168 166 158 168 161 164 165 172 172 177 186 189 185 194 193 195 201 200 200 205 193 199 204 195 183 189 186 172 159 168 161 159 163 157 161 156 166 83 46 56 58 54 60 57 66 60 66 65 62 67 55 60 59 70 56 65 55 53 55 52 52 56 47 55 53 48 48 44 50 38 193 186 180 176 180 180 180 154 159 158 155 164 162 179 180 178 175 173 181 182 175 169 184 175 164 167 174 172 171 174 175 181 187 189 189 201 198 195 195 198 199 201 199 195 202 200 191 191 187 178 163 167 164 165 162 161 148 154 155 52 45 58 60 58 60 63 64 66 63 67 61 63 58 61 62 65 64 57 60 56 56 54 53 55 49 52 52 52 45 45 55 22 141 199 183 182 187 172 181 171 163 162 165 160 156 179 178 181 174 177 185 184 177 172 183 175 160 161 177 175 176 175 173 180 186 185 197 199 195 200 195 195 197 196 202 193 198 203 181 190 179 163 173 161 162 163 168 147 144 152 112 38 55 60 57 64 61 64 63 66 66 64 67 63 60 55 65 61 60 57 57 60 50 55 51 52 49 55 53 48 46 50 42 46 64 200 182 180 179 161 172 177 168 164 161 164 161 177 170 174 176 180 183 179 173 177 178 171 163 166 168 165 172 174 171 175 177 184 190 198 193 201 196 198 194 197 190 194 195 193 184 170 183 162 160 158 156 166 156 144 144 138 64 48 54 63 59 62 64 59 64 63 65 68 65 66 60 59 61 61 60 58 53 58 52 56 46 53 42 59 46 53 46 51 41 50 23 159 189 179 174 162 170 176 161 163 169 169 151 173 162 172 169 182 175 174 172 176 172 174 163 161 158 153 159 162 158 164 175 185 185 187 192 198 195 194 187 196 180 176 187 191 178 170 178 168 149 160 163 160 141 140 144 110 39 55 55 62 59 65 64 66 65 62 63 65 63 68 60 61 60 60 61 49 59 53 57 55 52 51 46 52 49 52 51 45 49 41 35 76 193 181 175 173 170 178 159 158 173 167 153 172 165 159 165 175 167 170 171 171 172 167 157 152 149 153 154 153 154 152 171 173 180 183 191 188 186 190 182 189 171 173 178 182 171 169 166 167 150 157 161 156 133 144 126 58 54 56 59 60 64 69 64 67 61 67 56 66 66 65 62 55 61 58 61 49 51 58 56 58 47 54 45 48 44 51 49 44 42 41 38 12 164 172 172 168 154 171 163 162 165 165 166 160 169 162 158 162 156 173 164 161 167 160 148 146 145 141 139 143 139 149 155 163 175 173 189 179 177 177 187 169 179 160 178 172 173 167 156 163 150 147 142 138 130 131 81 50 53 51 58 61 63 69 64 66 67 67 61 65 67 65 58 62 54 58 51 55 60 57 57 56 54 53 50 44 49 60 44 47 40 26 78 135 125 163 175 168 168 171 168 167 162 167 162 162 172 159 157 148 159 163 165 148 154 141 140 129 129 135 125 137 124 132 142 146 162 164 169 167 160 155 163 162 161 153 169 166 171 159 144 159 145 137 136 123 118 137 52 56 56 53 65 56 64 65 61 67 62 68 65 67 68 61 57 56 59 56 56 57 64 55 57 51 54 47 56 44 48 48 46 45 31 88 175 123 89 172 158 169 166 166 165 167 152 157 164 165 167 152 148 155 152 139 154 138 137 130 124 117 123 122 122 128 121 121 131 137 141 153 155 161 150 156 154 156 150 146 157 166 151 149 138 141 144 125 121 110 122 147 52 48 54 53 63 59 63 65 66 63 65 66 66 66 68 69 58 57 61 56 60 58 62 59 50 56 46 50 52 45 49 44 52 24 97 177 145 100 49 196 153 156 162 168 156 159 157 149 154 160 165 152 146 145 146 135 142 126 130 125 110 110 115 118 116 117 112 118 120 118 127 136 139 142 147 145 143 142 145 141 145 152 153 136 133 132 135 121 110 101 150 142 46 51 50 56 58 58 63 61 61 65 63 65 63 64 68 67 55 55 60 54 63 60 58 57 54 49 54 48 53 46 49 46 39 64 198 151 118 81 35 192 186 140 145 159 161 163 162 146 151 152 152 154 143 137 134 125 136 119 123 115 98 101 102 109 108 106 103 105 103 108 110 125 116 130 126 132 128 122 131 128 138 135 139 125 126 130 114 104 110 129 166 134 39 50 55 52 59 60 59 58 60 64 63 66 64 65 65 62 62 60 54 60 58 57 60 53 62 47 54 48 55 47 52 46 24 194 175 123 97 72 38 191 189 183 122 133 156 163 163 138 151 147 143 138 133 134 125 125 125 115 110 109 88 93 86 92 94 95 91 90 94 97 96 106 105 111 117 116 114 116 110 122 124 128 124 116 120 123 96 107 135 139 149 166 32 48 56 50 60 60 60 56 64 66 62 66 63 68 63 64 67 53 54 56 56 59 56 52 60 51 49 53 53 49 49 30 88 233 134 100 88 66 44 195 185 177 172 115 122 148 154 151 151 147 144 129 130 127 120 120 110 109 98 100 86 79 72 77 78 82 78 77 85 81 84 85 98 97 107 105 101 104 103 113 111 118 116 109 102 98 106 136 141 159 116 235 98 27 53 55 57 60 57 58 62 62 58 62 67 64 64 64 60 57 58 53 51 54 50 57 53 52 51 50 53 45 64 21 164 212 113 85 94 77 26 194 183 175 182 163 132 113 129 150 146 144 144 130 126 125 109 111 113 96 100 84 75 70 68 69 68 69 70 72 66 74 74 73 95 82 85 93 87 84 91 94 100 105 101 96 91 108 131 140 147 164 131 211 193 24 44 58 58 63 60 60 61 65 60 60 65 62 57 64 58 58 55 51 54 48 50 55 52 53 54 50 53 66 48 36 208 200 89 88 96 68 2 183 196 180 173 171 158 132 121 117 126 140 144 129 125 120 112 102 111 96 93 89 71 66 67 64 72 63 66 67 66 74 64 70 72 68 66 73 75 77 78 82 92 101 86 96 111 129 126 145 153 166 127 216 234 76 27 55 61 57 65 61 57 64 60 63 58 63 59 64 58 55 55 47 56 48 52 48 59 47 53 55 57 73 33 92 241 184 78 110 82 46 1 147 199 188 170 172 161 153 148 132 117 119 133 129 120 124 112 103 106 99 89 91 73 69 70 67 69 68 65 71 68 70 67 65 67 64 63 67 71 73 77 75 82 90 100 116 123 129 146 146 157 173 103 220 232 131 33 49 64 59 61 58 64 61 59 60 63 61 62 67 55 54 52 48 52 48 50 52 51 54 47 64 75 57 14 160 242 173 90 108 61 27 18 88 188 194 176 167 162 157 160 146 123 127 114 111 113 116 100 108 96 95 85 88 77 75 74 66 72 71 65 72 71 72 67 67 70 68 70 73 70 67 77 76 92 108 120 117 120 144 143 141 163 156 105 230 219 188 22 48 59 61 57 60 68 65 63 62 60 67 55 65 53 58 51 50 46 48 51 52 56 57 67 70 61 39 29 202 242 185 97 96 37 29 16 49 133 192 182 170 159 159 165 150 139 144 125 113 105 111 100 96 93 91 85 84 78 76 75 76 77 80 74 71 73 77 74 76 70 80 73 76 71 69 90 96 111 118 118 129 138 139 144 148 170 101 147 232 217 217 29 64 60 60 59 59 60 58 69 63 68 74 65 66 55 56 53 55 51 55 56 60 67 67 73 64 50 27 70 228 233 206 106 69 24 32 26 52 64 156 184 179 160 167 161 150 146 148 136 128 112 109 102 94 89 92 86 83 83 80 79 75 82 85 79 79 81 80 85 79 83 79 76 78 78 94 113 116 113 121 130 142 133 142 147 158 155 56 197 229 214 224 70 69 72 59 58 51 52 51 54 51 55 68 69 81 62 60 66 59 60 61 64 69 67 72 64 46 85 72 116 235 223 217 123 28 32 37 25 64 49 84 162 178 165 177 164 148 146 159 148 145 129 126 111 106 97 92 87 75 82 79 75 74 76 83 79 83 74 75 75 74 78 75 76 100 98 117 118 121 124 130 121 139 135 145 150 172 88 98 228 223 214 232 105 57 77 79 70 59 60 44 47 46 48 54 61 69 