P2
92
112
255
46 45 47 47 47 47 42 44 46 44 50 45 48 49 46 48 49 48 46 48 48 44 50 45 51 48 48 49 46 48 50 50 52 58 57 61 68 97 89 77 64 63 76 54 70 82 79 52 84 84 79 57 58 45 44 45 53 47 54 45 54 49 51 53 47 54 49 44 54 51 45 48 44 51 45 48 46 50 45 46 48 55 45 42 51 48 46 49 49 47 46 48 45 48 42 44 46 43 46 50 45 46 47 44 50 48 44 53 45 49 51 42 50 45 52 46 51 58 52 59 56 46 60 59 85 82 63 63 68 86 105 110 93 92 75 68 79 80 80 57 52 68 68 78 58 59 44 41 52 55 52 52 55 54 51 51 47 52 48 47 53 46 51 47 46 50 48 48 46 44 48 46 52 48 48 46 47 45 51 47 48 46 46 47 46 48 45 47 44 49 42 50 48 48 47 47 48 43 50 50 48 47 47 46 48 46 46 48 62 63 50 52 89 64 64 88 114 92 47 59 68 66 92 99 69 84 80 65 56 56 83 59 57 55 58 59 61 81 53 46 54 71 70 74 71 64 58 49 53 51 54 52 53 46 46 47 48 48 48 51 41 50 45 45 50 47 44 52 54 43 51 56 47 49 46 49 43 46 42 47 48 50 43 45 44 45 45 54 49 47 49 50 47 49 45 50 44 49 53 55 73 56 59 69 73 88 49 87 110 74 65 71 70 72 81 72 64 52 75 74 38 52 37 73 56 53 46 50 45 99 72 67 64 96 95 96 88 78 64 67 64 55 53 47 50 44 49 43 45 50 50 40 53 41 48 49 48 45 50 53 46 48 48 52 44 53 47 53 46 49 44 44 42 48 48 46 47 49 47 47 49 49 51 50 44 54 43 51 47 53 47 58 63 58 59 77 68 82 76 69 93 57 62 51 54 59 68 70 73 52 54 52 71 53 51 37 74 52 40 52 45 73 77 67 82 88 109 103 90 80 72 66 80 75 60 55 47 40 47 47 46 45 46 46 46 49 48 44 49 50 47 48 54 43 52 44 55 58 44 50 45 41 50 46 46 47 49 48 47 49 47 52 48 46 49 44 53 47 50 49 46 54 62 50 54 62 57 63 65 84 80 59 74 40 51 43 46 61 52 74 71 52 48 39 55 53 47 45 56 65 40 50 62 63 68 73 76 85 90 93 87 74 73 62 67 62 69 54 47 44 43 48 43 47 48 47 48 50 41 51 44 47 51 49 50 45 53 45 49 49 50 44 46 47 47 44 48 43 45 51 50 50 50 49 45 49 48 48 50 44 58 59 49 62 69 51 52 60 51 53 78 88 80 54 67 48 39 37 42 64 54 64 57 50 45 36 55 67 38 47 49 53 42 49 54 75 62 63 71 73 70 76 88 93 85 72 72 73 68 60 55 45 48 44 48 47 46 48 45 52 42 49 50 43 49 51 48 51 48 53 44 49 48 47 49 46 43 46 49 47 49 45 48 50 51 49 49 46 49 51 55 43 78 75 57 76 80 75 53 52 59 67 83 65 50 65 41 37 47 41 58 53 63 75 54 56 44 48 53 77 56 37 52 57 33 66 64 76 64 58 78 52 64 60 77 96 85 84 78 82 70 72 64 64 51 48 51 45 49 42 48 48 50 46 43 50 47 47 47 48 53 47 50 43 53 47 50 47 46 45 46 43 50 50 46 48 51 48 51 48 49 50 70 62 79 70 56 76 74 70 59 51 66 71 69 50 55 57 31 34 46 57 53 58 53 71 56 60 47 52 55 69 66 33 64 68 46 57 62 80 68 72 71 57 62 63 51 87 76 79 96 89 81 76 81 63 67 77 56 45 47 43 50 46 46 46 48 49 50 46 49 51 50 47 51 43 51 48 48 45 50 41 49 44 49 48 47 44 51 49 51 43 62 68 71 72 68 41 74 54 68 69 58 52 68 69 56 48 51 45 39 35 44 65 55 56 51 49 54 86 52 44 62 50 66 34 65 72 49 50 54 72 90 57 60 68 63 66 54 74 70 81 100 87 91 96 92 72 68 80 84 75 49 47 47 47 45 45 49 48 45 50 51 50 49 48 48 47 49 47 43 46 45 47 50 44 49 49 49 45 52 52 51 48 76 55 70 57 61 44 59 55 61 60 58 66 66 70 54 53 49 34 46 40 41 63 58 57 54 43 44 91 58 36 57 49 45 41 65 51 55 55 52 62 90 53 59 81 69 58 59 74 79 73 89 91 94 104 96 74 73 81 71 85 85 46 43 44 46 48 48 46 45 47 55 46 49 47 50 53 47 49 48 47 45 47 47 49 47 48 43 51 50 53 58 47 75 43 67 53 38 61 41 52 58 49 56 60 74 75 54 51 57 30 42 24 48 53 52 64 54 36 41 64 47 53 53 42 51 37 63 44 48 55 67 50 64 50 49 70 78 45 59 71 83 74 73 87 96 104 106 94 80 82 73 63 60 85 52 49 48 50 43 52 51 42 52 51 49 46 48 53 44 54 46 49 42 42 51 44 48 50 45 42 68 48 65 54 62 55 51 65 53 54 58 47 61 58 39 55 84 69 53 49 58 39 41 17 51 61 46 57 47 36 40 47 52 66 56 35 54 39 52 52 35 63 61 36 64 55 31 71 89 40 53 76 70 51 73 88 94 106 111 112 89 90 77 76 64 62 72 57 51 47 48 56 52 42 51 55 48 47 47 52 46 55 49 45 44 45 46 48 42 49 48 45 65 55 60 66 43 62 52 63 68 47 66 55 53 67 48 69 77 66 57 55 65 35 32 17 50 72 46 41 42 41 32 45 52 66 55 28 55 29 39 64 32 68 59 43 51 37 35 71 67 46 48 63 47 65 82 100 88 101 103 95 103 100 76 79 83 63 69 69 64 50 49 52 50 52 46 56 47 47 48 48 49 43 46 47 45 50 45 47 38 50 50 48 63 66 53 54 54 54 62 43 79 41 39 73 58 61 58 66 84 58 70 52 60 58 27 19 36 77 40 33 48 37 43 39 61 70 42 36 40 41 25 78 26 71 53 43 47 34 34 63 48 42 41 66 65 64 90 97 79 88 98 93 101 108 85 91 89 74 74 65 75 70 52 54 52 50 50 50 49 47 49 43 54 53 46 47 48 44 45 46 39 39 71 55 60 77 58 53 54 49 65 64 65 63 20 46 62 60 73 77 91 65 72 55 47 83 39 24 21 81 58 16 47 37 69 30 64 79 30 55 26 33 32 74 33 57 42 39 44 35 41 48 36 45 46 51 62 62 79 69 82 84 96 87 99 89 88 76 66 65 84 75 71 68 66 52 53 54 51 51 50 46 46 48 54 50 45 47 45 51 43 49 46 61 77 70 79 82 75 86 71 49 50 77 50 61 45 27 44 57 70 82 65 74 81 63 48 71 63 20 17 87 57 32 32 30 58 67 45 81 54 43 35 23 40 62 35 46 35 30 45 42 38 42 40 50 38 46 60 60 63 84 86 73 77 85 76 86 94 93 94 84 81 79 85 82 71 73 68 58 48 52 53 44 48 48 52 51 42 46 44 48 40 59 58 67 83 84 93 96 85 81 77 72 31 72 68 34 51 38 35 34 58 64 56 65 76 98 51 62 66 44 14 80 66 32 45 27 25 85 53 41 66 40 40 16 35 54 35 33 36 31 33 39 37 44 47 50 49 51 55 56 86 94 76 70 87 88 78 100 107 104 94 82 87 93 86 66 87 82 76 52 63 52 51 51 45 46 53 51 38 43 39 50 40 38 77 68 57 90 107 94 95 83 77 70 49 49 49 48 44 42 40 28 31 45 59 55 51 83 77 53 53 63 40 32 72 31 47 34 21 56 66 45 45 49 39 28 31 54 40 26 39 34 28 27 39 30 53 66 60 49 48 58 73 66 58 79 95 97 99 92 92 86 83 86 94 105 70 57 94 75 86 71 50 52 54 51 49 48 51 51 47 41 45 40 47 36 57 65 67 85 106 79 76 70 83 69 66 54 38 34 51 52 43 36 31 40 38 55 59 49 66 73 63 46 58 44 49 52 38 41 35 42 60 50 57 44 44 45 31 49 51 29 33 37 26 35 38 32 49 56 60 52 52 62 63 58 65 75 90 85 80 88 97 94 103 93 79 100 76 70 83 66 63 94 84 44 49 51 47 53 49 50 42 50 35 32 43 44 41 62 80 78 93 85 94 67 71 73 57 54 49 41 35 43 49 41 46 46 38 39 60 51 50 60 61 62 43 56 45 75 51 42 37 34 57 48 58 71 72 62 56 46 47 45 34 34 36 36 36 41 45 56 61 56 42 54 51 50 48 54 67 67 78 81 96 104 95 97 68 89 81 77 82 50 45 54 109 75 38 49 52 52 48 55 47 49 28 26 34 39 53 72 66 88 62 66 83 77 73 58 55 49 49 51 41 40 40 47 42 56 44 43 44 60 54 49 53 60 77 61 54 56 88 51 40 41 37 56 61 54 62 69 59 56 55 49 50 38 46 46 41 52 50 53 46 43 42 56 49 44 45 47 65 68 74 81 83 90 84 86 72 82 90 58 81 92 83 31 75 109 47 54 46 51 49 54 45 52 23 31 38 38 54 73 66 66 75 62 64 65 77 65 60 53 54 51 49 49 48 50 53 54 56 55 57 63 63 63 62 59 62 62 84 70 67 66 56 47 60 51 61 73 61 73 60 73 80 66 63 60 61 64 64 72 62 57 62 53 48 42 39 36 45 48 61 67 62 54 63 63 70 70 63 58 60 55 50 83 77 57 45 87 100 50 55 48 49 48 44 45 35 40 29 39 43 62 56 53 63 63 65 59 57 63 57 48 46 44 54 62 65 70 78 78 76 71 81 82 75 78 75 76 85 81 74 73 77 71 75 69 83 78 82 90 95 86 82 94 101 89 83 88 91 92 84 92 88 85 88 80 59 48 50 41 42 51 60 67 59 52 56 58 61 60 61 56 62 48 46 72 69 51 55 53 86 76 44 54 51 49 47 48 38 30 30 36 45 55 58 59 58 58 58 64 63 52 46 44 56 68 78 88 95 96 94 95 95 87 89 91 87 89 92 94 99 105 106 95 101 103 106 106 111 105 112 123 123 120 121 126 131 121 118 127 122 120 108 110 118 114 111 107 89 75 70 58 50 62 63 84 80 61 59 42 62 64 46 59 74 46 72 68 94 61 65 53 64 85 49 51 52 49 41 50 35 27 35 36 58 59 64 55 64 58 54 56 56 39 46 66 92 96 99 102 105 108 103 105 101 99 102 102 100 107 111 114 121 120 123 126 123 125 121 129 130 133 133 140 135 129 133 133 136 139 132 142 139 135 134 132 143 138 138 138 131 113 90 102 68 53 60 53 58 91 76 63 64 61 64 63 61 79 55 79 80 98 79 68 47 89 55 48 52 52 45 41 47 40 51 52 64 53 57 59 53 46 52 46 40 58 86 98 105 110 108 111 115 116 111 116 116 115 121 116 120 122 128 130 130 134 134 135 131 132 130 136 140 142 144 141 144 134 137 141 143 142 141 139 147 146 148 144 147 155 147 154 148 137 130 107 110 90 59 44 50 56 72 72 70 61 63 76 69 81 78 70 77 93 81 70 75 91 63 49 53 54 40 39 43 62 62 54 50 54 41 44 50 53 38 33 64 96 110 112 113 114 115 122 122 124 125 126 132 132 130 124 128 134 133 136 133 135 136 134 133 136 142 143 151 144 146 143 142 143 145 149 148 150 144 146 149 153 153 154 152 156 156 150 156 148 150 136 110 125 84 42 42 40 48 56 69 58 65 76 64 81 91 85 45 100 72 74 74 98 74 47 57 50 36 34 44 64 52 35 37 38 35 43 57 41 21 62 102 115 113 119 118 121 128 127 128 132 136 139 140 139 128 128 135 136 137 140 137 135 137 140 138 141 149 148 150 149 152 143 144 149 147 152 151 158 154 152 155 161 156 153 161 165 159 162 164 162 163 157 130 122 113 69 35 38 50 52 60 49 54 62 62 73 87 88 62 59 83 79 112 105 77 44 53 57 24 39 38 35 48 40 24 30 44 54 46 16 68 108 119 119 124 123 127 132 129 137 133 138 145 139 140 137 134 138 133 136 136 137 139 137 138 149 146 147 148 151 158 152 145 149 144 149 155 152 151 162 161 160 163 163 164 162 159 170 165 163 167 166 170 164 159 137 119 99 49 32 31 60 49 52 38 42 51 74 64 68 81 81 40 85 95 91 97 49 51 56 33 42 32 58 50 25 37 33 56 53 25 45 111 120 123 125 129 129 131 135 137 143 144 146 148 141 144 141 139 140 139 134 136 140 137 139 142 148 146 153 155 158 159 153 151 153 151 152 155 157 156 161 166 160 166 170 168 172 167 169 170 172 171 170 173 169 163 157 131 111 69 31 23 56 49 41 47 46 33 59 65 56 61 78 102 58 90 94 87 49 57 48 38 38 51 59 31 32 47 43 45 35 30 93 125 123 127 130 131 135 134 141 142 149 152 152 152 150 148 143 143 140 143 136 138 144 140 142 153 150 155 157 159 163 161 154 155 154 155 158 155 157 164 168 167 168 169 176 173 170 173 170 172 170 169 173 180 180 175 167 152 132 83 45 38 22 62 39 37 63 72 46 79 63 44 64 87 119 95 86 89 52 52 55 43 52 64 35 37 44 34 36 34 16 73 120 128 132 128 129 136 136 139 142 147 149 150 152 148 152 147 144 144 144 139 141 137 145 146 148 157 152 162 161 160 164 163 160 158 161 161 160 163 161 165 169 170 168 171 173 176 169 177 174 171 176 170 175 179 183 188 182 162 137 111 56 53 37 28 66 41 52 59 94 54 63 44 71 61 91 126 90 88 52 51 57 47 72 41 45 40 34 26 37 23 42 101 127 132 130 133 127 137 139 140 150 151 152 155 150 153 150 149 144 146 147 146 145 148 154 154 158 160 163 161 168 165 165 166 164 161 165 165 163 164 169 166 165 170 166 171 172 179 174 177 176 176 170 174 175 178 185 186 194 169 138 115 79 56 50 40 35 65 93 63 50 70 73 82 50 113 40 98 108 87 51 56 58 54 53 31 35 33 27 32 27 34 71 118 130 131 137 134 134 137 140 144 152 151 152 154 156 151 156 151 144 144 150 152 153 153 159 161 163 165 166 169 168 168 165 166 167 164 171 170 162 165 169 160 151 159 166 169 171 176 177 177 179 175 179 176 179 179 190 189 197 180 141 122 85 61 54 53 37 40 78 87 43 56 36 75 83 116 105 56 99 107 53 58 57 29 30 28 40 32 34 29 32 38 87 128 129 136 138 139 135 140 143 145 146 152 154 153 155 151 156 147 138 149 154 157 158 160 166 165 165 169 169 171 169 166 168 165 166 162 176 165 167 171 168 164 151 154 168 170 177 173 172 181 175 179 177 184 182 182 192 195 199 189 152 122 99 71 56 46 60 32 75 58 54 71 50 42 43 118 136 70 73 114 78 45 61 21 41 58 70 24 28 32 29 63 103 128 135 139 141 142 140 145 146 149 148 145 152 153 152 150 156 150 148 157 159 159 158 160 161 171 167 171 172 170 170 169 169 164 164 167 171 169 168 169 174 172 171 171 168 171 176 175 174 180 176 178 182 183 183 188 192 193 198 187 159 129 105 75 60 54 65 77 54 77 42 58 108 35 91 87 89 83 60 101 113 54 49 36 48 89 63 24 28 36 48 74 114 128 136 143 140 144 144 148 148 149 148 142 151 149 151 150 154 157 155 159 160 163 161 166 163 167 170 170 173 168 170 171 167 167 167 168 173 170 170 172 172 169 176 176 174 176 173 174 179 182 180 179 180 187 189 191 194 194 196 190 167 137 111 85 65 59 70 108 78 75 72 46 51 79 58 105 79 65 88 68 106 63 53 39 51 65 40 28 40 50 57 90 124 132 139 143 144 149 148 153 148 145 150 153 150 150 154 156 159 164 160 163 164 165 165 168 167 165 169 171 173 168 170 173 168 168 172 169 172 171 169 172 170 171 177 176 180 179 178 173 178 181 178 182 184 184 192 191 194 193 200 194 177 147 117 86 71 62 69 97 93 83 64 71 61 20 85 71 68 55 122 96 88 65 60 35 50 44 29 36 58 63 65 113 130 134 140 145 151 145 151 150 147 148 154 155 155 151 160 161 161 166 166 168 166 165 166 167 166 167 165 170 170 170 168 175 169 170 166 173 171 170 169 175 171 171 179 175 174 182 178 174 180 182 180 177 184 186 192 195 193 196 195 204 183 160 128 100 63 88 85 83 75 87 65 58 88 35 34 90 39 64 97 103 85 83 56 26 43 41 25 47 62 67 82 117 134 134 142 149 154 145 154 147 151 148 154 162 156 156 162 162 165 165 168 167 168 168 166 170 167 164 167 171 171 173 168 172 169 170 171 167 174 172 170 168 173 172 183 178 178 181 182 177 176 181 179 182 182 189 191 199 194 197 199 199 200 165 140 100 74 78 120 82 82 78 86 48 77 103 48 76 104 33 73 109 77 76 65 19 58 38 34 52 60 64 95 126 134 135 145 150 150 151 149 151 152 155 159 161 157 158 164 160 166 172 168 166 166 166 166 168 164 164 165 171 167 169 165 168 170 168 170 168 171 170 170 173 168 175 178 178 178 178 181 180 176 183 180 183 182 190 191 195 200 196 199 200 210 178 150 97 89 75 109 88 65 77 92 99 63 67 108 80 89 79 73 63 78 75 62 24 79 40 42 68 57 66 107 130 134 137 144 152 154 155 151 149 155 155 159 161 155 163 162 162 163 167 166 163 166 164 165 162 165 163 162 168 168 168 160 168 167 168 166 173 168 172 168 168 179 171 182 179 179 179 180 177 178 179 179 180 182 187 189 198 200 198 199 201 212 195 149 117 85 91 91 106 70 67 90 108 108 36 72 88 65 62 77 70 74 77 61 26 70 70 60 49 49 76 112 133 135 138 149 150 149 154 150 148 151 154 156 158 162 160 167 166 163 166 164 164 164 164 165 163 165 163 161 169 162 164 163 167 169 172 167 172 168 171 167 167 170 167 174 174 174 175 177 180 177 180 179 182 183 184 186 194 206 199 200 201 210 210 159 127 99 95 87 105 97 85 81 99 86 108 54 44 48 72 50 64 62 61 68 25 44 106 64 26 44 70 122 133 131 147 152 151 149 152 149 152 152 153 153 157 161 163 163 162 164 165 162 162 163 166 167 167 165 163 165 168 162 160 163 167 171 173 162 174 167 166 166 168 168 163 165 165 162 170 167 172 169 181 176 181 181 184 185 198 202 199 200 202 205 214 183 131 109 84 99 97 104 92 86 116 73 72 77 77 29 104 88 73 58 57 58 26 34 78 45 29 34 78 126 128 139 148 148 144 141 144 135 140 143 140 146 152 155 154 157 164 163 166 163 160 163 165 169 164 163 164 164 167 163 158 162 161 172 169 162 166 165 158 156 157 157 150 149 152 147 150 155 148 155 162 169 180 174 185 187 193 198 200 201 203 204 213 201 138 122 75 107 100 100 79 89 97 116 50 54 102 84 57 105 94 64 60 63 22 35 50 47 20 34 92 126 124 151 146 138 128 131 124 118 135 129 117 128 123 127 130 144 155 159 165 157 152 161 163 164 161 161 165 165 166 166 157 159 161 164 160 155 151 153 136 122 123 122 120 119 132 130 118 133 138 136 142 151 162 176 186 185 191 200 197 201 203 204 211 212 151 124 104 90 105 84 85 61 84 77 87 41 84 91 49 79 95 62 51 60 22 31 41 29 27 35 99 121 130 149 132 126 123 128 110 97 102 98 88 86 86 84 97 111 124 145 148 147 151 156 156 160 162 161 164 167 163 167 158 148 147 151 149 136 132 110 101 80 83 69 70 71 77 104 98 109 120 132 133 133 138 164 172 184 188 195 196 197 203 200 208 220 168 119 144 91 92 74 63 62 69 76 58 48 93 73 69 91 67 69 45 58 21 27 33 32 31 31 109 125 131 131 112 116 108 112 106 92 73 76 74 68 70 72 79 85 92 121 136 132 141 154 158 152 159 163 160 163 159 149 146 136 137 138 133 119 111 102 93 83 73 64 64 60 56 68 69 84 93 110 117 119 120 132 152 167 168 191 192 195 200 199 205 216 189 122 131 110 94 71 55 55 66 58 64 59 63 66 86 82 59 57 64 58 23 24 30 28 28 34 115 129 126 117 107 105 101 102 93 88 66 73 77 78 82 74 80 80 83 114 129 121 134 151 153 147 153 161 159 153 149 140 132 128 132 126 115 104 104 99 97 78 67 73 67 65 68 62 62 72 81 96 92 97 108 111 136 161 159 173 187 194 196 197 202 209 204 145 105 109 88 74 68 41 71 68 53 66 56 59 73 79 41 66 59 58 28 27 26 26 22 50 117 126 120 105 107 108 107 108 109 111 118 116 115 111 113 102 95 101 100 118 122 119 135 141 145 150 156 157 149 142 147 140 134 128 122 115 111 105 103 96 95 77 72 80 85 96 96 100 98 105 98 93 94 95 98 99 118 140 161 169 180 188 193 198 201 202 211 180 103 99 76 70 65 55 65 72 75 64 72 77 43 65 49 38 72 55 28 24 22 27 24 48 123 116 114 111 116 124 122 130 130 130 127 128 120 116 112 109 113 111 117 122 122 130 133 132 146 153 157 155 147 147 144 143 139 125 122 110 105 103 102 97 98 97 100 110 119 126 129 130 123 125 118 117 108 107 104 96 104 118 135 155 170 186 191 195 200 200 205 201 135 79 76 70 58 71 59 58 85 87 80 70 48 44 56 48 56 58 33 22 22 24 22 48 111 111 115 126 126 131 132 122 122 113 109 107 99 84 77 68 66 63 70 97 115 131 134 136 145 155 155 151 157 161 153 152 144 128 120 111 96 93 83 93 93 95 99 103 108 107 110 104 111 107 107 108 104 110 111 112 116 115 115 132 155 176 187 198 198 197 202 210 167 73 84 82 52 73 78 52 68 77 95 71 36 39 53 55 61 59 42 33 18 29 17 54 105 105 126 137 132 131 117 105 104 106 101 84 59 55 43 52 54 52 51 48 82 112 128 137 145 154 159 153 162 167 166 161 141 133 118 105 92 79 68 69 71 92 113 104 94 86 89 90 90 105 110 99 81 76 97 112 117 118 119 124 137 162 178 196 199 198 195 216 180 83 84 93 62 45 79 67 69 63 74 82 60 24 49 59 63 57 38 41 18 22 18 49 119 116 128 135 134 121 89 99 82 72 121 45 79 64 4 45 85 46 63 70 61 91 120 126 142 148 155 157 166 171 172 166 148 134 112 100 94 69 62 59 65 84 83 110 67 61 29 61 126 36 71 103 122 116 52 68 103 116 126 135 141 153 178 200 194 196 197 206 206 80 119 77 80 45 53 72 69 58 76 43 86 40 39 73 60 58 38 43 24 25 4 51 130 121 129 131 127 107 92 56 50 118 179 65 96 139 2 42 73 63 64 50 94 95 109 117 141 150 156 160 167 170 167 163 158 128 120 103 117 78 70 64 41 32 70 142 81 143 20 11 110 29 79 95 76 116 123 65 63 97 125 143 149 159 169 195 195 196 200 199 213 105 102 80 64 84 51 49 79 66 73 54 72 70 33 67 65 51 38 42 28 27 2 68 140 133 131 131 113 99 71 57 57 108 164 133 61 89 40 55 62 62 60 45 60 110 99 119 146 151 157 166 169 169 163 165 172 137 113 114 121 105 74 52 39 36 40 143 70 123 62 32 69 48 100 157 92 67 104 108 98 90 107 133 152 166 173 190 198 197 197 198 216 101 117 91 62 70 68 71 70 60 80 68 67 98 44 57 57 54 34 44 32 26 5 73 150 134 135 125 110 89 87 89 85 92 110 109 110 100 69 75 77 64 62 74 78 97 106 126 146 156 157 166 167 167 166 175 183 153 114 117 119 118 89 65 63 56 53 86 133 57 76 70 57 71 106 126 108 104 141 100 111 124 119 138 149 167 183 188 196 197 199 199 220 121 105 100 66 61 65 66 87 49 79 81 61 89 66 50 58 61 36 43 44 31 6 100 144 137 132 124 111 108 115 119 129 124 137 119 127 115 105 100 92 80 79 94 99 95 117 131 143 154 152 164 161 169 175 187 194 172 135 106 114 117 111 102 82 67 76 73 92 91 93 90 93 99 98 129 131 141 148 140 147 148 144 149 160 169 171 193 200 199 197 199 217 159 87 89 60 82 72 79 93 59 64 82 52 62 76 54 59 54 33 40 45 31 16 117 148 132 125 121 113 116 121 125 136 135 140 135 134 124 115 105 95 90 91 94 98 113 133 132 137 145 151 161 157 165 176 191 188 183 150 121 109 107 100 100 87 78 85 80 81 98 99 106 115 119 123 145 149 152 158 158 161 161 156 163 163 170 171 186 199 199 197 199 217 181 96 62 70 99 80 56 102 64 49 93 64 51 73 64 53 58 39 42 40 35 35 139 143 129 118 116 118 124 124 128 130 133 132 132 125 125 122 108 103 105 103 103 112 134 131 126 130 144 153 159 156 167 170 182 189 178 168 151 129 105 112 107 92 98 96 97 90 102 101 114 118 127 132 141 145 146 153 156 161 162 162 164 167 168 173 185 198 198 196 195 210 204 79 51 77 97 79 63 86 94 30 90 68 63 67 58 52 56 31 36 42 30 58 144 141 126 122 120 129 129 131 130 135 135 135 134 133 131 133 116 112 113 115 116 140 137 120 132 149 155 155 156 156 166 171 172 187 182 178 174 155 130 118 118 107 106 107 104 111 106 113 115 118 128 126 136 141 146 149 153 157 161 163 162 175 173 176 182 197 196 195 198 202 226 93 38 77 83 75 80 60 97 72 84 74 71 67 49 55 52 34 28 65 94 93 141 134 127 128 130 137 138 138 138 140 137 141 136 137 138 130 121 121 123 125 136 145 129 133 148 163 163 165 159 157 162 171 172 179 185 189 181 168 147 134 125 122 122 117 110 115 121 114 124 135 130 132 134 141 146 150 154 158 158 167 166 177 179 178 185 193 193 195 196 199 230 144 33 64 96 71 73 59 96 171 176 101 56 55 54 52 57 38 9 110 114 120 133 133 135 133 134 143 142 143 144 144 142 143 142 136 134 124 124 125 127 136 142 141 137 141 159 164 165 165 168 163 166 178 173 174 176 185 186 176 151 144 132 136 129 130 120 124 124 122 126 137 131 138 143 146 147 149 155 154 160 168 169 178 181 181 186 192 191 197 194 196 222 170 45 58 99 63 71 104 166 189 169 202 72 36 59 52 58 41 16 73 105 128 128 139 136 141 140 144 146 148 145 150 148 146 144 141 128 128 130 132 130 139 144 146 143 159 166 162 160 157 169 170 169 179 182 174 160 165 187 180 152 145 143 140 136 139 131 129 129 127 125 131 130 141 147 147 146 154 158 158 160 170 173 176 180 182 186 186 188 195 191 198 215 183 43 79 96 88 114 165 187 83 47 182 119 30 53 59 55 34 40 21 115 123 133 139 140 142 146 148 150 149 148 151 149 150 145 139 131 130 132 135 136 145 156 152 137 153 170 160 153 142 153 156 154 158 166 176 170 161 166 175 162 147 149 139 138 143 135 138 133 132 125 132 137 142 144 150 148 153 157 160 158 170 177 176 183 180 186 186 186 192 193 194 202 191 98 141 161 184 175 190 236 123 29 151 131 30 57 53 57 34 42 9 72 141 135 143 142 142 150 150 150 149 157 151 152 150 142 139 135 131 137 137 145 155 157 152 138 139 147 153 149 141 141 143 138 138 144 155 168 173 180 178 154 159 145 145 137 144 141 135 141 136 130 135 141 151 146 153 153 148 156 161 161 168 173 175 181 183 181 191 190 191 191 191 196 188 185 178 182 204 155 180 233 202 72 170 80 47 57 54 58 38 43 14 67 140 138 142 143 145 145 148 155 154 156 152 148 147 140 137 140 138 136 137 152 144 117 104 101 116 140 149 137 137 138 119 95 102 106 124 146 148 174 199 158 138 146 140 142 147 141 136 138 141 133 141 148 154 149 153 154 153 158 158 167 164 171 173 174 185 186 189 188 189 193 189 192 186 189 173 196 188 144 174 225 201 138 157 45 51 53 57 53 39 33 15 78 142 135 140 143 144 142 152 154 160 151 152 148 146 139 144 140 139 139 141 149 126 49 22 43 52 115 148 134 130 140 69 36 32 37 34 81 147 139 184 189 125 143 137 142 145 142 145 141 145 146 147 149 148 155 157 162 154 154 159 159 167 172 170 173 186 188 187 190 187 191 184 190 181 171 167 193 180 165 169 213 199 179 138 24 55 57 55 52 40 32 31 109 122 142 137 141 146 148 158 158 155 151 150 146 148 144 143 140 139 144 141 147 126 60 27 24 45 107 149 129 126 131 101 85 53 21 16 26 125 146 144 191 125 137 138 139 145 146 148 151 156 150 151 146 150 155 161 159 159 155 161 165 164 173 169 179 184 185 192 190 186 191 186 186 183 174 143 131 195 190 176 207 190 221 70 29 53 53 57 52 43 19 48 122 112 141 139 142 145 149 158 157 153 152 153 147 151 147 141 138 140 148 140 140 137 108 90 85 97 138 150 125 117 121 125 123 121 63 36 69 142 135 133 170 129 135 137 136 143 152 153 158 160 153 153 148 151 156 158 158 159 161 164 163 169 169 167 177 186 184 184 191 187 190 185 179 202 185 77 36 136 158 160 205 197 218 57 31 50 63 49 57 40 27 51 126 111 142 135 141 147 151 160 158 154 159 148 151 149 150 144 139 141 150 142 120 128 127 127 131 128 138 141 125 119 118 132 132 129 126 116 121 133 118 127 139 136 150 148 147 149 156 158 153 160 157 155 149 150 153 155 153 162 167 159 162 171 175 163 174 185 183 186 189 186 190 179 172 229 181 61 46 100 120 138 171 215 222 39 36 51 58 56 56 36 31 35 127 123 140 132 141 145 155 163 152 153 154 152 148 148 150 143 147 140 146 142 118 110 111 115 127 134 138 139 126 123 134 145 133 128 118 111 109 111 105 120 126 143 156 162 160 156 156 156 156 154 155 159 153 151 149 151 152 150 166 163 166 167 178 160 158 186 182 183 189 185 188 174 180 223 216 92 73 91 106 114 141 213 229 59 42 45 57 57 55 39 42 24 111 137 133 137 142 147 160 160 156 153 155 155 149 151 148 148 145 144 144 139 121 114 114 109 124 133 140 140 131 137 142 144 132 141 137 127 124 123 123 126 135 155 158 160 162 160 161 151 159 156 154 156 157 148 155 155 147 155 162 170 170 177 173 173 173 182 185 185 185 185 191 164 188 212 238 124 89 97 106 105 115 199 226 66 28 46 56 48 52 38 43 26 119 123 132 137 144 153 159 158 159 156 157 156 156 153 151 147 143 146 142 140 117 123 121 118 121 136 142 135 131 141 144 136 135 140 141 138 133 135 134 132 136 157 158 158 158 160 162 156 154 154 155 155 156 149 155 161 154 157 161 168 168 173 180 177 177 184 187 183 182 189 185 167 197 210 224 145 94 108 107 100 93 183 234 39 40 38 56 47 47 39 33 34 124 109 139 137 145 154 158 160 160 159 156 154 156 153 152 146 145 146 143 137 121 127 130 131 130 134 140 130 133 144 141 141 133 133 141 146 132 134 136 133 150 157 160 160 153 157 162 159 158 154 156 159 155 157 160 171 161 156 160 169 168 171 177 178 176 189 187 180 180 188 179 167 207 212 205 126 113 116 108 92 81 176 228 30 50 44 52 49 49 44 45 25 119 123 135 138 145 155 159 156 158 161 160 158 159 152 147 146 145 150 137 133 138 135 136 141 140 139 136 130 137 133 144 141 143 135 144 144 138 138 144 149 152 148 147 156 152 149 161 159 159 158 161 160 157 156 160 165 171 161 158 174 163 161 185 181 179 187 188 179 183 190 176 178 209 217 154 106 132 160 118 93 111 196 211 15 42 46 49 50 51 41 42 11 78 143 134 136 145 154 155 160 160 162 157 155 155 151 148 146 139 144 137 139 148 148 146 148 144 141 138 130 127 130 136 144 143 142 148 149 141 149 151 153 157 149 152 160 149 145 153 152 155 158 156 159 155 150 151 161 164 172 167 172 171 172 178 178 178 181 185 183 183 186 165 186 216 190 119 123 138 194 196 139 174 211 173 17 46 43 47 53 48 41 44 18 52 147 132 142 145 152 156 159 156 158 156 153 149 147 150 149 141 137 138 150 146 155 146 145 143 140 138 132 133 131 137 140 141 140 151 153 145 153 155 156 158 150 145 161 151 138 146 144 154 161 156 157 158 152 152 154 163 172 172 173 173 175 176 177 176 177 184 185 177 182 170 197 214 194 142 141 139 191 210 153 155 205 137 16 46 47 52 52 45 37 46 20 52 146 132 137 146 152 157 166 158 153 150 148 147 141 149 146 141 140 145 150 147 139 129 124 120 119 122 116 118 116 121 112 116 120 129 150 151 157 163 153 157 151 140 147 143 131 142 141 143 160 163 152 161 152 153 149 152 167 169 174 172 175 176 176 172 172 181 187 180 181 176 201 203 178 164 158 129 186 214 164 162 205 84 30 50 44 45 46 51 38 39 20 86 135 126 135 138 151 163 163 160 150 149 142 145 129 140 145 143 137 143 134 122 118 114 115 117 111 118 102 109 108 107 105 106 106 102 113 117 131 145 157 148 146 137 131 134 123 132 145 125 142 159 141 160 156 153 152 150 159 166 172 171 171 172 171 170 175 181 184 183 177 183 203 189 188 162 179 161 189 200 188 199 152 42 45 49 50 46 43 51 39 34 33 128 121 123 134 136 151 161 163 154 149 147 141 136 114 123 141 141 133 124 115 114 112 112 108 110 112 115 108 99 103 109 103 110 105 101 101 100 99 107 125 131 141 129 129 121 123 131 133 126 128 149 148 152 163 152 157 154 162 156 173 171 168 164 168 173 171 184 183 182 174 196 185 161 189 157 158 179 178 163 198 199 66 35 44 49 49 45 50 49 39 33 31 121 131 129 130 134 151 164 155 157 151 146 136 125 95 95 128 119 108 112 105 99 100 94 89 92 94 91 95 85 73 100 82 84 89 89 95 93 93 87 95 101 115 122 113 117 116 129 128 128 123 136 152 155 161 152 155 160 163 172 167 170 168 168 168 171 172 178 184 179 172 206 140 121 161 136 135 167 179 172 207 116 31 38 54 45 51 42 51 48 38 43 20 58 104 124 140 130 149 165 159 163 154 143 126 113 64 41 64 74 67 108 110 118 116 120 119 123 126 116 115 113 108 111 108 103 99 97 91 84 72 69 68 68 73 80 90 92 100 128 129 129 125 130 147 155 165 158 153 164 163 168 167 164 164 161 169 168 181 171 180 178 183 206 68 86 122 119 118 134 155 154 131 41 44 48 49 48 46 43 51 51 38 40 40 35 24 84 156 138 137 157 164 167 154 143 118 103 41 70 95 84 102 116 120 123 124 132 129 128 126 127 123 126 126 124 126 132 127 129 135 127 115 104 83 76 58 50 42 49 45 89 124 135 132 130 142 152 162 161 159 163 166 167 165 163 163 162 170 167 182 164 173 177 190 182 43 49 51 69 76 85 79 79 54 42 51 50 45 51 45 50 48 48 35 39 41 40 17 41 169 139 133 152 165 169 165 135 112 97 61 112 133 126 134 132 131 130 131 136 134 130 127 127 119 125 119 122 115 119 120 128 131 135 136 141 126 118 94 83 68 69 44 24 98 142 137 134 143 150 150 161 156 162 166 167 161 164 165 162 168 169 170 176 175 176 200 155 25 49 43 50 47 51 47 48 48 45 46 48 40 48 46 52 45 47 39 40 39 44 28 24 164 147 137 154 162 166 165 137 108 100 100 123 145 145 151 145 146 146 145 141 138 135 134 136 131 127 126 123 114 115 119 125 130 131 138 149 145 155 140 106 109 119 127 45 66 136 152 147 150 146 149 156 158 152 165 171 164 158 166 172 166 172 171 176 181 177 203 108 20 45 47 44 52 48 46 47 50 49 46 41 43 47 46 46 51 46 36 39 39 32 41 9 147 153 133 145 161 162 164 146 116 103 122 130 142 141 151 149 149 148 142 146 142 131 134 134 122 127 132 133 122 123 127 124 132 134 134 148 150 164 166 131 126 119 130 108 81 136 154 151 145 149 143 155 154 154 160 165 159 152 166 169 170 173 178 174 175 184 200 58 24 50 51 38 52 49 43 43 48 44 47 43 43 44 49 45 46 45 38 40 38 39 38 11 120 157 139 139 150 159 157 157 129 125 138 143 138 133 153 148 147 149 149 146 141 135 130 129 119 122 127 128 130 127 126 123 130 130 142 148 154 158 166 150 125 124 123 114 107 138 156 150 141 150 147 158 159 155 161 165 156 154 162 173 169 174 170 181 176 186 187 14 39 44 51 40 51 50 45 45 45 47 44 45 44 46 43 48 47 48 38 42 38 37 43 9 81 165 140 140 145 158 153 154 145 138 147 151 144 137 148 154 148 149 149 146 144 135 131 125 124 124 124 125 134 129 130 127 131 138 136 144 146 151 148 153 134 131 128 126 131 137 150 150 138 146 145 154 165 158 164 160 157 159 160 173 170 171 175 178 172 202 158 6 46 42 48 45 46 45 49 44 47 49 43 44 49 43 39 49 46 44 42 38 39 38 42 23 46 158 145 135 154 152 163 150 147 150 147 153 155 147 152 148 153 153 148 145 136 140 131 130 132 129 127 130 132 133 133 130 136 142 137 138 143 145 139 153 153 135 138 138 141 145 143 142 142 141 134 145 158 164 165 157 158 165 160 169 173 163 176 176 168 205 140 19 48 45 45 45 46 51 47 45 39 45 44 43 39 41 44 44 45 48 39 37 37 38 36 47 20 140 149 141 149 156 166 156 147 148 150 152 151 150 157 153 157 151 147 147 139 141 143 137 138 138 129 132 132 129 131 138 141 143 144 148 147 146 145 154 160 138 145 141 136 143 147 145 139 143 132 146 159 164 165 154 170 167 170 171 165 165 178 172 149 214 97 18 45 47 44 43 50 47 46 46 38 44 45 38 45 39 45 45 42 46 43 42 34 41 36 39 4 93 166 133 151 153 160 165 144 146 153 151 155 151 160 161 154 148 154 149 150 150 150 146 148 147 139 141 144 138 137 139 148 148 150 152 150 154 153 158 157 144 145 146 145 142 143 144 142 142 144 152 162 157 164 155 163 173 164 176 167 168 175 162 156 210 61 23 42 48 46 42 48 42 52 39 39 47 44 39 47 45 44 42 43 46 40 43 35 37 38 38 19 40 168 132 148 154 154 158 145 145 155 153 152 153 160 163 147 151 155 145 154 159 152 151 152 149 150 150 152 146 150 150 151 157 160 160 160 161 151 157 160 152 148 151 155 142 145 140 149 138 151 149 166 155 161 155 156 175 164 168 164 171 169 151 174 208 33 32 47 45 50 41 47 46 41 41 40 48 40 44 41 43 44 41 39 52 39 45 34 40 38 31 38 12 142 144 144 146 150 152 146 138 154 144 151 153 156 151 146 150 152 149 149 164 156 157 153 148 153 151 151 149 160 163 149 160 162 160 156 170 154 153 159 163 152 147 147 154 141 138 137 146 156 151 161 153 155 157 156 172 170 168 163 163 160 145 194 189 28 35 51 43 47 48 43 44 42 37 44 47 37 42 42 38 45 45 42 41 41 36 40 38 36 35 40 17 85 151 144 146 146 155 143 146 142 143 150 147 149 147 149 154 157 154 152 156 152 153 150 150 150 152 152 156 159 166 156 155 153 163 159 159 162 158 153 166 160 153 145 154 141 144 137 145 165 156 159 153 157 158 156 165 168 165 161 157 150 160 211 169 21 43 48 46 47 45 46 39 41 40 42 42 36 42 45 39 42 44 42 42 36 38 37 36 36 37 36 33 31 139 139 147 144 151 141 145 139 138 146 144 147 150 153 154 161 156 156 152 147 151 148 148 150 153 154 156 160 159 161 156 156 159 158 158 160 165 157 164 157 152 154 151 143 137 142 154 156 163 156 157 157 154 158 164 166 158 159 149 159 171 215 141 21 45 48 47 47 43 47 39 38 46 37 45 36 43 37 38 48 40 45 42 33 39 36 34 36 34 38 38 12 73 159 146 145 148 140 143 148 142 138 141 147 151 155 159 161 156 152 152 150 143 145 146 149 152 157 150 153 156 160 154 160 147 156 157 149 163 159 158 160 149 150 145 154 140 140 154 150 158 162 147 149 161 159 157 165 157 150 147 173 169 222 109 14 44 46 47 43 49 41 43 40 41 40 38 44 36 36 44 43 44 40 41 37 41 34 39 33 34 40 37 33 16 122 151 145 139 142 144 147 142 138 139 147 143 155 156 159 154 150 150 147 146 138 147 147 150 149 150 151 157 152 147 151 146 153 144 149 145 158 154 151 152 146 149 150 154 150 148 162 158 164 152 151 155 162 151 154 150 147 160 179 180 212 86 14 44 50 43 46 45 41 44 36 43 40 37 42 34 41 39 41 38 46 46 42 39 38 39 35 34 41 40 34 29 35 142 147 133 141 146 148 136 144 143 143 143 155 149 156 144 149 144 146 147 138 144 141 145 147 146 143 152 145 139 142 147 147 146 147 140 156 158 150 147 144 150 143 153 152 152 158 151 156 154 156 149 152 154 150 147 145 170 168 185 208 58 17 49 46 46 38 44 45 41 42 43 39 37 38 43 36 40 42 41 41 42 41 37 39 35 41 32 41 40 34 40 13 54 156 146 135 138 149 139 142 145 143 143 156 142 151 147 144 138 146 143 140 141 144 135 139 144 139 142 135 136 126 138 136 143 138 131 154 151 155 149 142 153 136 159 154 149 147 147 147 154 152 147 151 146 145 148 155 178 161 190 204 38 30 47 45 46 38 41 44 39 41 39 41 40 40 43 35 40 43 42 45 37 36 36 39 38 38 38 39 41 34 34 36 23 78 149 137 136 136 137 144 139 144 143 147 143 140 148 141 137 142 136 136 143 140 128 130 135 130 126 135 126 127 129 130 136 127 130 146 151 149 145 149 141 135 146 155 148 146 130 141 152 155 135 141 146 146 160 165 171 172 196 191 14 35 48 45 40 43 41 44 40 37 42 33 44 38 46 38 37 46 43 41 43 43 36 42 36 38 40 35 38 35 38 36 37 15 73 140 143 126 133 139 142 141 145 146 140 133 139 130 139 133 136 130 134 133 124 131 127 121 118 125 121 123 123 116 129 120 133 134 143 143 140 144 140 135 143 147 146 143 146 140 151 148 143 137 149 159 171 173 169 181 195 180 11 41 47 47 36 42 42 39 44 34 41 39 38 42 40 42 40 35 47 43 39 40 41 40 36 41 40 38 39 41 36 35 34 42 16 103 145 128 126 138 140 134 137 149 142 132 134 123 133 131 133 127 127 129 121 123 120 110 112 119 113 118 116 107 115 121 129 132 135 137 139 138 131 132 145 147 138 144 150 143 144 135 141 141 149 165 170 170 174 173 212 156 17 31 48 49 40 40 43 38 39 33 42 40 41 41 42 36 43 40 44 43 36 40 39 40 38 41 39 38 38 38 38 38 36 42 15 70 150 127 119 130 134 131 130 145 141 127 131 125 126 129 122 121 120 122 120 114 112 105 105 111 113 105 112 107 105 116 124 130 131 129 135 132 132 132 143 142 141 139 138 142 143 135 141 148 153 165 173 173 170 181 215 142 7 44 49 49 37 42 37 39 43 38 39 39 46 41 38 39 42 44 43 40 40 37 41 39 39 40 40 36 42 39 38 39 38 44 14 54 154 143 119 123 129 128 132 134 140 127 128 134 125 126 123 113 119 116 116 107 111 103 100 107 102 101 99 100 102 116 115 123 124 125 127 132 129 137 133 140 137 132 145 141 132 140 139 158 166 171 175 171 180 187 210 119 15 36 56 46 35 36 35 36 37 47 39 44 40 45 48 39 40 47 41 41 37 40 42 40 39 39 40 34 39 37 37 39 38 44 21 45 149 145 137 124 119 118 131 126 130 128 128 124 124 125 119 118 116 116 112 104 107 99 98 96 92 98 96 95 98 109 109 111 119 118 125 126 119 128 128 132 131 127 135 131 125 143 153 154 168 166 172 177 186 181 211 100 19 47 54 43 42 37 36 34 36 41 47 43 45 41 44 41 42 45 42 36 39 40 41 38 41 39 42 38 36 39 37 39 38 40 31 24 151 144 133 141 141 121 119 125 117 124 123 119 115 118 117 108 112 111 110 100 101 100 90 91 88 90 88 93 91 103 101 106 108 113 122 120 116 124 123 124 126 117 120 128 137 153 159 159 160 162 172 184 182 183 211 70 16 44 53 41 40 39 44 34 33 41 41 48 51 41 39 48 39 42 43 39 39 38 39 42 38 43 39 42 39 40 41 40 39 39 38 14 134 151 137 136 144 146 135 128 114 113 121 111 111 119 111 107 110 106 107 99 102 95 90 89 90 86 82 89 86 94 97 100 104 106 112 113 114 117 112 112 117 116 128 143 153 152 158 161 155 153 169 184 176 184 202 50 19 38 53 40 38 39 47 33 37 37 40 45 49 48 42 43 39 43 43 42 36 42 38 42 37 42 34 45 38 40 40 40 42 35 47 8 128 150 142 142 140 146 142 150 141 129 127 117 119 119 119 112 113 109 105 107 108 106 94 93 96 88 86 88 88 93 92 97 100 103 105 104 99 102 104 110 130 141 144 150 154 156 150 155 159 166 168 172 178 186 193 32 29 45 42 39 35 41 51 41 37 40 38 43 45 43 43 39 38 44 48 46 40 41 43 41 41 39 39 40 43 38 40 38 40 36 39 6 110 158 148 144 147 148 142 142 143 151 146 140 127 122 122 116 120 114 117 111 110 110 97 101 100 93 97 95 91 91 94 97 89 90 91 87 94 112 129 131 146 150 148 146 143 151 148 152 165 164 175 171 178 197 181 26 36 42 35 36 34 47 49 44 43 36 39 44 42 41 39 36 37 44 51 48 44 40 37 43 38 41 36 39 40 39 38 41 39 34 50 0 101 156 154 153 157 154 150 141 129 147 153 154 153 148 139 137 124 121 124 112 109 109 103 101 104 87 100 92 84 77 80 71 73 77 99 109 117 133 150 138 151 147 144 139 134 154 160 156 170 164 178 174 172 199 167 21 36 41 38 32 34 43 51 45 46 38 38 46 44 41 35 38 35 51 46 50 50 