P2
92
112
255
62 64 64 66 66 64 63 65 67 63 61 63 66 66 65 66 68 64 70 71 69 71 65 70 69 71 76 77 96 94 98 110 100 104 82 85 103 93 88 100 97 92 84 80 79 79 76 101 93 88 104 105 89 94 98 109 96 88 79 69 74 79 69 74 72 76 77 78 76 73 75 70 74 79 73 75 72 76 76 78 76 76 78 78 75 80 73 78 79 80 77 79 63 66 67 67 66 65 65 66 65 67 64 62 66 69 63 66 67 66 69 67 67 70 65 69 61 71 70 94 91 97 85 95 110 99 83 93 94 111 89 88 91 83 101 101 97 120 121 118 105 110 109 102 110 105 114 108 111 95 90 93 79 81 75 75 69 73 75 77 69 81 73 77 75 73 76 76 78 71 79 75 80 78 79 76 78 76 77 83 80 76 77 81 67 66 67 67 69 64 69 62 67 66 67 67 65 68 69 67 69 68 68 67 69 67 72 84 78 95 109 102 99 101 80 92 106 102 87 96 88 110 91 96 97 91 110 121 120 126 125 132 127 109 126 117 116 138 125 122 116 109 94 92 92 92 81 79 75 77 79 73 79 73 77 75 77 75 74 78 76 78 76 76 77 79 80 77 77 84 77 84 80 77 77 84 64 68 64 66 68 64 68 61 68 66 64 70 65 68 70 66 69 68 67 67 67 87 111 96 98 98 101 100 105 98 81 99 104 91 99 90 94 100 95 104 88 93 120 148 148 139 126 134 129 129 123 126 137 147 144 132 123 116 109 109 104 102 103 85 88 83 91 75 77 78 81 81 74 77 72 78 76 76 79 73 81 76 78 78 82 77 80 76 79 76 81 83 63 70 66 67 67 68 65 64 66 67 66 75 65 71 68 65 72 65 68 71 87 112 103 103 82 85 93 103 100 102 90 73 93 94 92 95 91 82 89 94 90 114 131 135 129 111 116 114 118 103 117 113 113 118 122 119 118 108 106 109 100 98 123 91 96 97 99 84 88 82 85 81 72 78 74 75 77 76 75 76 82 74 82 81 80 74 81 79 80 79 82 87 67 68 70 63 64 71 62 70 69 68 62 83 61 71 71 69 73 65 89 87 100 94 91 89 82 88 98 95 88 97 89 83 82 90 88 85 89 84 94 88 99 127 116 116 115 109 110 105 111 112 118 97 99 103 114 110 112 124 123 119 111 102 115 100 101 112 104 88 98 89 86 83 76 77 74 76 79 73 76 76 80 78 77 82 80 80 83 81 82 81 82 79 63 71 71 68 64 72 65 70 67 67 64 81 68 68 69 76 77 77 94 89 85 93 81 91 90 101 85 85 90 92 91 91 74 96 91 95 98 108 112 110 126 125 127 115 121 113 110 123 133 121 92 90 100 96 105 106 105 101 103 118 119 105 121 103 100 104 105 86 88 87 81 85 84 83 75 80 76 78 74 77 76 78 78 77 84 78 80 86 81 82 82 81 60 71 67 69 67 69 73 65 67 67 61 79 66 74 67 90 87 76 102 86 82 90 88 96 88 97 83 80 96 99 86 93 84 94 106 109 106 108 116 123 129 119 143 145 148 133 128 134 121 88 79 106 113 105 104 96 95 98 90 94 106 116 121 111 105 103 114 95 84 90 85 81 77 84 81 75 81 83 74 78 77 77 77 82 80 78 78 83 80 83 83 83 65 67 69 65 66 67 72 67 70 65 70 72 71 74 74 85 76 102 87 97 84 90 97 92 84 101 89 93 102 94 91 94 89 96 97 102 96 90 95 111 109 119 135 136 127 121 114 102 101 101 97 100 105 90 83 88 88 92 94 92 111 105 109 103 100 109 104 109 92 86 87 84 76 82 74 78 76 81 76 80 76 77 76 81 83 83 79 81 83 85 83 85 67 65 68 69 69 68 66 73 67 66 70 75 83 75 82 87 79 103 78 92 113 100 81 95 91 101 106 99 104 102 78 93 98 97 86 90 113 117 113 115 113 117 112 106 111 124 118 91 83 107 81 79 96 74 85 88 103 84 96 90 97 111 104 99 104 110 99 104 118 96 88 91 86 83 73 77 79 79 80 77 79 82 78 76 82 83 79 85 80 81 85 79 72 66 68 69 67 72 67 72 68 64 81 72 79 70 96 92 75 99 77 89 111 77 77 104 116 93 105 96 108 115 72 80 99 86 89 119 120 140 129 134 131 125 145 131 146 133 85 74 90 87 78 88 81 84 77 73 89 91 106 80 92 105 101 99 109 108 108 95 104 98 99 103 93 87 81 78 78 84 79 80 78 75 79 81 80 84 83 80 80 82 83 81 68 67 70 69 69 74 73 75 69 76 65 73 81 86 85 94 92 86 82 108 93 82 98 102 93 94 102 108 108 109 82 64 94 83 120 125 130 156 141 109 113 129 142 106 94 95 86 95 94 90 90 101 76 76 67 78 82 106 108 80 86 101 110 102 107 108 111 112 101 100 118 110 103 88 90 78 80 86 84 72 85 75 82 83 79 83 80 79 83 86 82 80 68 70 71 72 68 73 67 73 75 75 81 82 79 98 90 86 103 82 79 114 81 99 93 65 104 95 113 102 95 93 92 68 87 94 90 94 100 126 123 125 112 79 105 89 93 93 75 101 92 76 82 85 69 58 64 95 90 98 107 108 93 112 108 95 98 101 105 111 113 107 104 116 125 108 106 90 82 79 90 76 78 81 81 82 78 80 85 84 87 84 88 81 72 73 70 70 70 73 70 71 69 76 82 104 88 101 90 92 92 94 91 108 87 91 84 92 85 108 115 92 80 94 92 82 95 85 77 86 93 114 91 94 80 64 118 82 93 89 82 94 77 87 74 77 58 69 53 95 69 117 101 103 86 93 88 101 94 106 97 102 106 105 112 110 105 111 117 104 98 83 85 78 80 84 80 86 80 82 88 86 84 88 81 86 71 71 75 75 73 72 68 70 81 78 80 94 86 83 82 85 101 94 93 109 105 77 97 84 93 108 89 103 87 87 88 96 84 89 91 75 83 79 80 92 74 78 91 86 96 94 104 102 92 91 85 71 68 71 73 83 80 111 92 95 68 69 58 82 85 90 99 111 108 110 102 114 108 99 112 117 116 99 76 83 83 78 83 83 80 81 83 88 83 85 84 83 73 66 73 70 74 74 75 64 79 77 74 90 89 79 87 79 97 100 107 92 129 85 81 77 66 112 77 76 87 98 91 92 85 88 90 74 92 75 60 71 70 72 71 92 77 96 92 111 85 97 90 94 84 79 83 69 83 89 84 83 51 63 53 70 76 82 94 102 118 104 104 108 114 105 85 107 108 140 86 75 82 84 81 80 80 80 88 84 89 81 83 83 71 71 71 72 73 73 70 71 71 79 79 87 98 78 82 91 91 96 102 100 106 118 92 89 73 102 84 67 115 86 106 110 84 90 84 83 77 87 56 59 79 67 77 89 78 91 84 97 68 79 73 65 73 84 75 84 89 77 81 68 51 72 52 65 70 81 86 103 112 113 99 104 123 120 103 92 108 101 128 73 79 79 84 82 81 84 87 85 86 84 81 86 72 73 70 70 73 79 68 68 78 78 92 101 89 87 81 101 107 93 86 125 98 113 104 111 87 93 96 81 115 73 111 98 62 86 91 90 55 95 57 43 86 82 87 77 91 101 87 97 82 80 89 81 73 81 90 87 88 73 62 66 62 53 64 62 69 78 82 94 105 121 117 91 106 116 119 91 109 105 98 107 74 82 83 83 82 80 85 82 87 86 85 84 74 71 69 71 75 71 70 78 81 90 78 103 86 97 86 93 106 112 84 87 122 106 102 97 107 90 111 90 102 92 97 97 44 86 84 71 73 68 80 46 91 68 64 71 63 89 103 108 88 120 93 81 98 95 98 90 92 90 72 73 66 48 62 64 57 79 76 90 103 118 122 113 97 107 108 109 99 125 88 103 86 80 86 81 79 82 87 81 87 86 83 85 74 73 69 71 77 68 75 86 88 86 75 86 81 92 106 92 101 122 101 89 91 124 107 96 113 104 116 91 97 104 99 72 71 78 79 66 64 75 76 76 87 72 62 69 77 86 94 103 135 122 128 96 99 100 112 110 104 103 100 92 73 64 59 56 56 65 83 72 115 104 126 119 96 110 104 109 96 106 113 90 82 82 85 85 84 83 88 84 86 86 88 85 74 74 72 74 72 70 98 87 85 79 84 87 80 84 92 107 90 103 99 96 86 107 110 81 99 108 110 95 98 93 92 85 86 97 73 69 61 81 78 74 91 83 72 82 94 89 109 100 100 173 117 137 125 132 130 139 147 132 128 119 115 99 84 75 56 60 85 84 86 101 109 143 90 95 121 98 97 106 122 110 80 96 92 88 80 87 84 89 86 84 89 87 76 72 75 71 73 73 101 89 83 84 78 92 100 85 91 90 93 88 89 78 89 93 100 98 99 103 97 97 87 89 88 93 78 109 83 87 66 72 87 76 85 101 93 110 113 119 131 117 132 146 153 145 152 159 164 167 189 170 164 164 165 146 124 110 76 47 45 75 87 93 101 129 108 86 104 95 100 102 125 130 104 101 93 95 80 86 84 89 84 84 86 85 67 76 71 73 84 88 93 104 94 89 81 88 84 94 87 85 70 85 81 70 93 83 87 91 90 93 88 86 71 79 95 96 97 92 95 94 88 90 94 87 93 106 112 124 133 154 147 164 171 174 180 168 182 179 192 197 199 198 194 193 204 186 176 140 120 84 39 68 76 103 94 114 129 92 109 98 98 93 119 124 126 103 105 94 87 90 87 84 87 86 88 86 70 71 82 82 89 85 93 96 104 95 90 91 64 88 95 78 67 67 73 75 75 80 70 87 82 80 85 78 96 73 84 99 92 89 104 95 104 106 106 112 115 123 147 163 172 180 181 200 203 203 198 207 185 197 203 210 207 207 206 203 209 206 199 195 160 125 97 64 42 105 103 98 132 92 89 91 89 90 112 110 123 119 106 102 91 91 89 86 88 88 85 84 69 69 78 84 89 82 81 99 111 89 91 104 91 78 76 95 78 65 75 78 71 76 77 75 76 84 83 84 95 95 90 97 96 91 102 106 111 117 114 115 134 158 179 193 195 202 203 209 212 207 210 211 216 200 197 213 210 213 214 211 210 212 204 204 199 164 126 87 49 65 98 97 101 128 86 95 94 92 108 107 131 132 110 91 91 88 84 89 96 85 85 84 78 71 85 73 104 88 90 109 105 98 89 97 102 87 72 99 104 87 63 66 66 76 77 82 86 87 96 94 99 103 104 98 99 104 99 116 122 122 125 147 158 183 194 206 204 208 209 211 211 211 212 214 213 220 200 208 210 214 216 217 214 216 213 206 201 212 165 121 77 30 79 83 102 100 105 98 105 102 116 104 117 126 111 101 72 93 91 85 92 87 87 85 76 72 73 83 96 121 116 106 102 100 91 91 94 100 63 52 78 88 82 85 85 81 93 90 84 101 105 112 113 105 108 105 108 114 114 113 126 135 159 166 174 184 207 213 206 210 211 211 212 210 212 214 213 214 218 205 215 217 216 217 216 216 215 213 214 204 211 156 113 46 68 71 107 91 115 96 102 86 108 130 141 138 103 88 82 91 91 84 91 84 89 83 72 72 73 81 104 104 118 102 92 88 99 90 78 74 72 78 80 87 78 78 81 90 94 96 104 117 115 119 120 121 129 114 126 127 125 126 148 162 174 174 179 195 203 210 210 212 211 213 212 213 215 213 213 212 218 212 217 217 217 218 217 218 217 215 215 215 213 206 151 81 82 65 103 98 95 95 105 100 104 116 120 110 102 76 73 83 96 85 89 87 86 89 75 73 93 77 98 132 110 106 79 78 79 93 88 69 74 88 95 88 79 80 83 101 106 113 119 126 130 128 127 131 132 132 141 136 142 142 160 172 176 181 191 196 204 210 210 210 211 212 212 213 216 216 216 214 217 216 217 216 217 217 218 216 217 216 218 215 217 215 212 123 83 90 77 116 106 80 94 107 110 125 127 95 101 109 68 71 94 88 90 85 90 81 71 78 103 84 86 145 152 109 92 78 91 90 85 93 79 86 85 85 88 88 90 121 122 133 126 137 138 134 132 132 139 151 158 162 161 155 173 177 175 184 191 199 203 207 209 211 211 212 212 214 216 216 216 216 217 216 218 217 216 217 218 217 219 218 216 217 218 215 224 185 87 103 95 109 122 98 99 115 101 111 132 118 117 130 116 85 81 89 87 81 88 86 71 87 98 111 105 122 140 115 108 87 109 110 102 85 73 79 86 95 102 109 101 138 142 138 141 150 142 135 137 149 163 164 177 178 166 174 182 183 182 186 195 197 202 209 206 210 210 213 212 213 216 216 215 216 217 217 217 217 218 216 217 218 217 218 217 217 217 220 217 219 139 76 118 109 134 110 100 106 121 110 129 129 108 114 99 99 81 86 87 87 87 88 68 81 101 129 127 133 127 116 106 97 87 88 80 69 74 79 94 112 128 116 128 160 147 145 155 154 149 154 166 180 181 175 180 176 176 185 191 188 193 193 193 202 203 208 206 208 210 212 212 213 213 216 215 216 217 218 218 217 217 217 217 218 218 217 218 217 219 217 217 225 189 105 90 115 127 129 95 104 103 111 91 111 110 96 70 73 84 82 84 87 82 89 71 62 86 121 126 112 120 77 102 107 86 83 69 77 79 86 111 130 140 132 157 153 154 155 160 166 167 177 183 189 174 180 179 179 184 192 190 196 194 197 200 203 205 208 206 208 208 209 213 209 213 215 215 217 218 217 218 217 218 217 218 218 217 218 217 218 218 218 219 219 214 146 83 105 118 123 117 95 109 110 101 112 134 115 98 61 74 81 84 86 90 86 77 63 99 126 113 96 79 55 64 78 70 72 97 87 91 93 130 146 152 141 155 152 159 165 171 177 179 188 183 170 175 178 177 185 192 192 190 197 199 199 202 203 206 208 209 208 210 210 214 212 214 215 215 217 217 217 218 218 217 217 218 218 217 217 217 218 218 217 217 220 221 183 105 95 106 143 109 111 102 95 118 131 137 123 122 76 78 82 84 87 89 85 95 75 110 122 107 86 90 56 56 61 51 80 117 109 87 105 149 157 166 149 160 159 171 174 180 185 184 182 174 176 181 180 189 188 188 194 196 198 200 202 206 204 206 209 209 211 210 212 213 214 215 215 215 217 217 217 218 217 217 217 217 218 217 218 218 218 219 218 218 218 221 212 143 69 134 127 130 89 109 97 90 124 126 98 95 87 75 79 92 90 86 85 106 104 125 137 102 68 68 63 57 55 56 87 104 95 65 113 165 178 172 161 173 175 181 184 188 187 172 175 183 185 185 187 192 185 190 194 199 200 199 201 208 205 209 208 208 211 211 212 214 214 215 217 215 216 216 217 217 217 218 217 217 218 218 217 218 217 218 217 216 219 220 225 168 90 102 140 140 100 97 106 124 93 116 100 84 61 70 83 92 86 86 89 80 83 112 118 59 79 83 78 67 74 69 79 78 53 82 137 184 192 173 179 185 181 188 186 177 176 181 185 189 190 189 187 191 188 193 196 200 199 202 204 207 207 207 209 205 210 213 211 212 213 216 216 216 218 216 216 217 217 218 217 217 217 219 217 218 219 218 219 217 218 218 226 198 116 71 151 147 129 90 106 124 132 99 102 108 98 47 83 90 86 84 89 61 118 103 82 103 104 57 75 79 84 74 77 54 49 88 150 201 190 187 187 187 192 190 169 183 193 195 183 189 192 188 187 193 191 191 197 197 200 200 206 206 204 207 208 206 208 212 213 212 215 215 216 217 216 218 216 218 217 217 217 218 217 219 218 218 218 218 219 218 218 217 224 219 146 91 117 154 128 136 91 91 116 109 101 70 96 75 74 90 84 86 89 52 103 84 88 76 82 61 50 60 67 73 55 52 53 93 160 197 194 192 191 196 191 181 187 194 193 192 173 188 187 189 189 191 195 193 196 200 199 199 206 205 205 203 207 208 207 212 212 212 213 215 215 216 216 216 217 217 217 217 218 217 218 217 218 217 218 219 218 219 218 218 221 227 168 99 103 154 127 134 97 106 105 98 95 98 64 92 67 89 88 84 87 55 104 97 72 102 70 60 54 55 67 71 48 46 64 104 175 200 196 198 201 191 189 195 193 196 192 189 187 187 188 190 191 193 195 192 198 200 199 201 203 204 203 201 205 206 210 210 212 212 212 214 215 214 216 216 217 217 217 217 217 217 218 218 217 217 217 218 218 218 217 216 219 229 188 126 92 161 135 122 92 102 103 125 96 117 78 71 87 81 87 87 82 96 99 89 109 105 86 77 76 72 70 66 47 48 67 114 186 202 198 200 200 182 199 199 193 192 189 188 194 190 191 191 190 191 194 192 191 199 200 200 202 201 203 200 204 205 208 208 211 212 212 214 215 216 216 216 216 215 217 216 218 216 218 217 217 217 218 217 219 218 217 216 217 229 206 118 102 171 116 130 104 69 91 97 112 109 105 86 74 84 87 82 88 136 99 97 142 126 82 70 63 71 74 73 50 52 70 131 194 205 199 203 197 190 201 196 190 192 191 191 195 193 191 191 189 189 193 192 192 193 196 198 202 202 199 203 204 203 205 204 208 213 214 212 214 212 216 213 216 215 216 215 217 215 217 217 217 216 217 218 218 217 218 215 216 223 216 120 105 168 113 101 113 77 70 71 77 98 114 85 77 75 87 85 86 139 98 91 113 97 68 66 90 65 86 75 53 52 82 138 204 206 202 202 200 189 202 194 194 194 194 195 193 194 191 187 189 187 188 187 191 188 194 191 199 199 200 202 198 202 197 202 205 212 209 213 213 211 213 211 214 212 212 213 214 215 214 215 214 216 217 217 218 218 216 215 217 220 230 136 90 146 101 85 98 89 69 67 58 68 88 79 80 70 86 89 84 152 103 88 82 68 69 89 84 77 94 78 50 62 71 149 207 207 201 203 198 196 200 196 194 199 195 196 196 190 191 182 190 185 185 182 185 188 188 187 197 199 197 198 197 201 194 196 205 204 207 207 209 209 206 208 206 208 206 205 209 210 208 206 206 210 214 217 217 219 216 216 215 215 233 167 79 127 90 84 74 91 76 84 67 52 71 50 84 77 87 83 88 149 124 83 67 47 85 92 85 102 100 79 57 62 61 162 213 205 203 199 199 199 198 198 193 196 190 195 191 188 187 186 185 177 181 178 182 180 183 182 193 194 194 192 193 196 194 192 196 202 206 201 200 202 197 194 191 189 186 188 188 193 186 189 193 198 201 210 216 217 217 216 211 216 229 195 78 105 86 77 76 74 79 77 87 73 80 62 51 74 83 88 83 139 123 79 65 83 112 101 97 107 117 77 59 68 57 174 214 205 199 201 201 197 198 195 191 190 190 189 185 182 185 185 177 178 179 178 177 176 174 175 184 187 183 187 188 186 191 187 192 190 198 184 186 177 163 144 144 141 140 141 145 154 146 161 172 173 182 188 197 209 209 215 212 213 219 219 85 94 82 70 75 75 71 74 77 95 93 85 67 77 81 82 90 129 119 108 71 102 122 106 93 100 123 91 66 63 68 185 216 201 203 201 199 195 194 191 192 182 185 181 177 178 179 177 179 176 172 166 163 163 169 166 176 176 173 185 181 185 182 188 183 168 178 172 159 144 114 108 93 92 92 106 107 111 120 128 141 147 152 154 173 194 200 207 210 211 215 240 112 83 82 67 64 67 66 61 59 77 93 95 95 75 79 86 84 118 118 109 74 95 111 81 83 102 125 117 83 71 71 193 215 202 201 202 199 192 188 180 180 168 160 158 162 153 156 152 152 149 148 146 145 140 154 159 167 166 165 171 184 168 178 174 161 150 159 157 142 119 98 94 73 73 68 70 83 86 94 98 111 111 122 123 148 165 189 196 203 209 212 228 165 70 85 66 62 65 67 68 57 69 57 89 93 90 66 78 87 108 99 91 69 82 65 80 100 97 123 145 100 51 71 190 213 204 196 204 197 170 158 148 157 134 129 129 115 105 115 106 115 112 111 121 126 124 134 149 152 155 157 160 175 163 161 155 144 142 144 137 122 107 98 87 71 71 65 71 76 77 85 95 99 99 107 103 114 135 159 180 196 202 211 219 213 73 78 67 65 58 71 76 69 83 74 66 72 78 63 71 86 106 87 81 70 72 88 100 99 88 113 163 108 55 63 189 213 200 203 202 182 152 147 143 131 112 104 89 82 70 82 75 81 79 81 92 106 106 118 131 143 148 151 158 175 165 150 145 139 136 122 127 109 99 91 83 75 74 79 88 99 116 118 127 124 115 110 114 119 127 128 145 179 198 210 207 231 114 71 68 65 69 91 74 78 76 94 82 73 53 70 68 81 94 95 74 66 89 91 101 89 74 87 163 124 64 63 185 212 196 195 165 162 145 135 126 100 88 78 69 60 65 60 58 62 67 71 82 97 105 110 116 137 142 144 160 168 166 151 153 141 130 128 116 102 93 84 82 80 91 102 126 137 146 153 145 143 136 123 122 127 125 136 145 162 190 203 213 215 201 73 67 62 86 82 71 65 74 62 74 82 57 48 52 78 80 84 80 77 89 82 89 70 57 67 116 159 69 57 187 211 198 183 167 136 124 111 96 84 79 75 67 63 64 65 62 64 68 75 94 103 110 120 120 133 145 158 162 176 186 172 175 161 149 134 107 91 83 75 80 84 109 129 150 166 177 192 182 179 170 151 131 115 117 126 146 172 193 208 212 209 227 147 61 62 78 71 69 80 84 79 73 95 90 69 32 60 83 69 76 93 84 85 69 63 65 59 82 142 77 56 193 211 194 189 166 139 119 111 103 92 90 88 77 74 67 65 67 60 65 64 68 85 113 144 146 165 171 174 174 186 208 204 198 196 182 128 91 78 72 76 83 101 108 118 124 130 132 154 160 167 169 164 156 119 110 125 151 176 195 207 212 208 221 215 92 50 60 65 56 79 89 88 89 91 81 67 47 64 82 62 77 79 72 72 67 78 61 58 60 115 81 55 203 205 193 168 163 132 122 118 120 108 109 113 100 97 86 79 74 62 64 54 54 45 54 103 157 201 195 184 188 196 211 213 210 217 213 112 81 69 74 75 92 98 103 110 114 124 133 171 183 193 207 195 191 175 165 170 180 191 203 212 213 209 214 228 135 34 70 71 66 89 89 82 77 83 86 77 61 59 68 62 63 67 61 68 72 88 67 58 55 87 80 69 207 201 192 160 154 145 133 131 129 125 131 140 137 128 117 106 96 82 65 54 48 46 42 22 104 206 204 187 191 195 213 214 213 220 227 128 99 112 91 74 78 87 91 108 112 116 116 145 152 167 180 176 170 186 189 195 200 204 209 211 216 211 208 227 155 54 57 79 89 87 77 65 74 70 91 84 60 62 59 60 54 50 54 78 77 81 79 57 49 74 79 94 212 195 183 165 160 153 148 134 136 153 163 161 140 129 108 108 103 99 70 58 44 45 39 23 49 195 203 186 188 200 210 213 213 218 224 170 145 162 119 98 67 58 73 92 98 99 90 113 110 114 137 142 185 198 207 208 210 207 212 212 215 215 208 224 175 88 59 70 87 93 78 66 55 54 59 71 50 70 51 63 48 54 62 78 91 80 86 66 70 53 63 123 216 196 184 182 172 158 153 146 161 186 174 166 142 144 111 121 113 102 73 53 40 38 42 31 65 187 204 193 190 199 211 213 214 219 216 206 173 167 166 149 114 85 91 86 92 104 110 106 120 116 163 149 180 206 210 212 213 211 212 213 215 216 209 213 218 56 87 85 109 94 69 93 39 51 54 58 42 74 54 58 54 51 76 85 89 79 86 75 70 58 50 147 213 197 198 194 182 158 144 153 157 186 188 171 136 132 102 100 85 74 58 44 52 55 59 45 102 188 201 195 196 203 210 211 215 216 215 214 198 175 164 159 147 121 128 111 97 118 132 114 133 130 170 189 198 202 211 213 212 214 215 211 216 215 210 207 228 78 122 101 149 92 53 94 32 40 42 53 39 81 51 57 54 58 78 95 61 55 58 79 86 52 68 149 213 200 205 201 187 170 156 150 151 162 142 128 97 100 87 75 72 68 71 71 89 94 90 69 134 187 197 197 198 200 211 213 214 216 214 213 211 202 178 178 166 151 164 146 130 152 155 154 164 161 177 194 200 206 207 211 212 214 214 214 214 213 211 208 226 147 149 128 170 167 69 101 29 38 40 38 67 83 54 59 54 63 76 95 69 62 64 88 74 66 70 141 214 200 205 202 190 181 163 153 145 136 103 96 96 93 87 80 86 92 102 103 125 130 118 123 172 186 193 194 195 200 210 211 212 213 215 213 215 210 201 193 186 183 184 177 167 185 182 196 193 196 200 202 206 209 208 209 211 212 214 212 214 214 210 208 216 191 167 163 184 226 137 145 8 52 38 51 70 83 59 51 67 65 65 89 85 74 66 80 75 66 60 131 217 198 205 196 192 182 179 176 173 153 136 120 113 109 97 111 112 125 136 141 157 156 147 173 188 185 188 193 193 201 207 211 210 211 214 214 215 213 210 204 200 199 198 198 194 193 191 197 199 202 205 205 209 206 211 211 209 213 214 211 214 212 211 207 210 205 184 195 207 228 194 176 5 54 39 69 79 81 60 57 59 65 54 82 68 54 70 72 69 63 73 116 218 203 201 195 189 186 191 192 181 167 156 138 125 131 130 147 136 149 149 164 165 170 172 191 186 180 188 191 193 201 207 207 209 210 210 212 215 216 213 207 203 208 202 205 203 200 195 199 202 200 206 209 208 210 209 210 212 212 214 213 213 214 213 208 205 206 186 218 216 221 212 178 26 46 57 77 83 78 59 64 59 58 58 79 52 36 48 55 66 67 56 135 216 201 199 193 188 192 189 188 177 172 158 153 150 152 149 154 157 160 163 169 171 178 186 194 179 181 187 189 192 201 205 211 209 210 212 212 211 212 215 210 205 208 204 204 204 203 201 201 203 203 204 209 210 208 210 209 211 213 214 211 212 214 213 209 203 220 94 186 218 218 213 191 21 52 71 84 79 80 64 59 64 71 60 61 43 27 48 114 129 79 63 156 212 196 200 190 193 194 188 184 183 172 166 161 163 159 161 162 167 165 170 173 177 186 196 184 180 186 188 186 186 196 198 213 211 210 216 215 211 209 211 210 203 207 203 206 200 202 204 204 204 202 204 208 207 208 211 212 211 213 212 213 212 213 212 207 199 221 44 126 185 209 218 240 35 55 81 77 80 80 65 62 62 66 61 58 43 18 80 145 140 138 129 188 202 193 199 192 192 189 188 186 180 173 175 170 166 166 168 169 166 171 174 178 181 190 195 183 183 197 201 176 168 174 180 196 204 206 205 214 212 214 210 216 197 195 193 198 201 200 202 206 203 205 204 203 200 209 210 212 210 213 213 213 210 212 212 208 203 212 79 135 150 189 211 236 95 63 78 77 80 82 55 60 64 63 59 68 51 22 55 126 68 184 201 203 197 192 195 194 192 190 189 184 182 181 182 175 171 174 174 176 175 175 177 184 181 180 192 189 189 197 192 161 138 139 150 159 179 188 185 193 196 209 210 217 219 178 183 186 192 200 197 203 206 203 203 203 201 208 208 213 210 213 213 212 210 210 213 208 195 214 139 144 154 164 203 228 128 45 77 84 78 78 60 64 61 67 60 62 61 39 19 113 91 200 223 202 196 190 192 197 190 193 186 187 184 185 183 178 180 183 181 182 181 182 183 180 168 167 198 195 174 169 149 147 118 107 118 130 154 161 149 143 141 160 176 207 222 187 163 170 173 184 196 196 199 202 197 199 196 202 201 206 208 214 208 210 211 204 210 206 194 204 195 152 160 156 177 223 156 42 78 81 78 77 59 65 59 66 61 59 64 50 14 109 147 209 223 198 197 187 196 200 191 193 191 189 188 190 190 187 184 184 183 183 186 181 175 176 150 180 203 160 136 129 124 129 125 100 92 99 146 103 65 63 60 65 108 156 202 191 168 168 158 166 178 186 186 190 191 193 192 197 196 198 205 207 209 211 208 206 207 207 191 202 225 167 165 144 154 216 185 41 70 80 77 80 60 66 60 64 60 58 65 62 17 118 181 207 213 193 199 191 197 200 198 195 195 190 192 192 191 183 184 182 184 181 182 174 171 171 127 194 170 102 72 57 58 51 118 129 77 88 154 69 54 38 37 37 57 105 165 183 182 179 166 157 158 172 180 183 185 189 186 194 195 196 199 203 208 208 209 208 204 207 182 212 216 190 185 150 165 216 197 41 69 76 76 75 61 61 60 61 57 65 58 66 18 146 153 212 206 202 195 194 200 197 198 198 194 194 195 191 188 181 182 182 184 181 177 170 169 159 90 186 144 76 38 35 29 35 112 163 84 71 159 132 117 93 82 73 70 90 139 175 193 186 178 168 155 154 166 176 179 180 182 185 187 195 198 201 205 201 206 203 203 209 170 220 203 188 211 199 202 204 227 45 66 76 76 75 59 62 62 62 62 65 49 62 35 173 89 219 221 182 186 195 202 199 196 198 190 197 199 191 185 177 179 180 183 171 171 162 164 134 82 138 163 75 48 47 64 112 142 150 99 64 117 142 151 157 139 117 101 112 153 186 197 188 186 177 167 153 155 164 171 172 183 184 187 191 195 198 197 202 199 199 201 208 170 226 182 189 213 219 200 187 230 43 68 76 74 71 57 67 61 64 61 65 58 52 44 182 62 233 221 107 160 205 204 198 197 199 197 197 198 187 183 181 179 175 174 167 166 164 148 110 100 101 145 123 80 87 113 128 126 93 90 59 83 115 148 179 175 167 160 170 191 191 199 197 187 183 170 170 164 164 164 173 178 178 188 195 196 195 191 201 185 201 199 205 176 210 203 206 207 216 197 204 209 37 66 74 73 76 63 63 60 64 60 60 58 67 31 176 102 238 188 83 110 213 206 193 197 196 203 198 197 186 182 179 174 173 166 163 160 157 130 102 117 119 120 133 122 116 134 125 120 70 61 76 85 108 140 174 190 192 194 190 200 190 205 202 191 188 165 163 164 164 166 170 174 176 173 194 198 193 192 196 194 198 195 201 173 205 217 216 200 207 208 227 163 36 74 70 73 77 65 61 62 60 59 63 57 63 33 147 164 228 132 88 67 207 204 196 195 200 197 198 192 186 178 175 174 171 165 166 162 157 121 114 132 128 130 134 129 121 126 124 108 83 88 119 116 102 122 159 181 188 192 190 195 196 206 201 193 185 166 158 149 153 160 158 164 180 166 176 195 191 188 193 191 195 192 191 173 212 211 215 210 208 208 232 98 54 68 75 74 74 69 62 59 64 58 65 54 57 55 61 211 219 97 84 50 187 203 197 196 201 195 199 193 183 175 175 172 169 170 165 162 151 121 135 142 144 136 130 127 103 123 125 118 116 125 141 143 111 117 140 166 180 190 187 192 197 206 200 199 198 185 150 146 139 154 161 153 171 176 180 187 189 190 188 189 190 191 188 174 212 216 207 212 212 209 247 53 66 73 74 66 79 68 64 60 61 61 63 58 58 60 23 150 196 88 80 61 149 212 192 195 200 195 199 191 183 180 171 176 176 174 166 167 149 137 151 162 153 134 134 132 126 137 135 129 134 138 153 153 137 133 142 175 178 192 192 185 199 203 201 199 191 182 165 149 131 138 163 149 137 175 181 183 185 189 186 185 181 186 188 177 193 215 199 199 209 210 181 52 69 78 71 70 69 60 67 60 61 61 59 59 56 59 34 73 224 104 115 157 110 213 194 193 197 196 195 189 186 178 178 182 178 167 161 152 139 149 160 170 159 145 144 146 139 148 147 148 151 166 166 163 157 159 161 175 188 195 202 194 201 211 198 199 191 172 144 136 128 124 140 158 113 165 180 188 188 188 177 182 181 181 183 199 135 180 160 158 166 149 91 63 71 74 76 71 71 65 63 60 63 57 63 56 59 52 58 27 209 195 188 180 117 196 196 194 192 195 192 189 187 184 181 181 170 165 154 129 134 148 163 167 158 161 150 156 163 165 154 146 148 155 159 164 155 155 153 144 141 151 169 177 194 206 200 202 193 183 126 115 115 113 123 142 136 146 175 178 191 188 185 175 180 181 184 208 73 85 87 80 92 73 66 71 72 74 74 73 75 70 62 62 63 57 62 56 57 56 59 36 161 211 210 170 183 179 198 191 189 194 186 191 186 182 181 181 169 156 129 124 121 154 164 162 163 177 170 170 156 139 124 119 116 112 115 127 124 124 120 115 122 120 124 130 136 157 170 188 189 184 108 97 94 97 106 120 145 136 183 178 192 190 181 169 173 177 186 210 59 41 59 66 65 69 69 69 74 71 75 70 71 69 67 60 63 63 61 60 54 57 58 44 62 229 212 155 181 182 195 190 186 193 190 189 179 188 172 177 159 137 107 113 103 142 162 163 181 183 164 138 122 120 110 106 97 91 91 104 107 106 99 95 96 100 106 109 111 114 120 127 144 148 111 75 75 81 91 110 127 145 187 185 188 189 178 166 171 181 183 212 37 43 63 68 67 64 70 68 68 68 75 73 73 68 63 63 59 62 58 58 58 56 59 55 18 177 219 195 176 186 190 186 184 186 191 191 184 192 169 169 140 116 101 96 73 113 159 171 176 148 131 127 117 111 99 87 80 78 71 69 71 76 86 77 78 75 80 86 79 85 95 91 79 79 79 59 60 67 93 107 127 154 179 187 181 189 175 164 177 181 183 211 30 63 65 61 66 66 69 66 64 67 68 67 78 67 59 63 62 60 57 58 56 57 58 60 21 98 216 203 178 192 182 189 178 179 190 191 186 190 169 152 125 100 95 85 50 87 159 159 129 116 116 119 93 78 86 77 77 103 94 98 107 118 136 135 145 143 156 163 162 137 141 112 70 71 86 84 75 88 103 124 142 158 180 185 169 184 172 166 178 182 182 202 31 56 61 60 63 68 66 68 63 70 63 69 71 60 67 59 60 61 56 58 58 55 58 56 48 82 221 197 186 183 177 193 177 173 186 194 188 188 162 128 117 88 84 72 53 42 113 118 104 105 109 125 123 118 130 140 138 158 163 157 168 181 190 190 182 173 181 200 201 196 203 198 175 153 152 159 142 127 122 138 158 154 177 182 169 174 170 162 178 181 184 186 12 57 62 58 64 68 65 68 66 65 66 71 66 60 62 66 58 58 55 62 58 55 58 50 63 30 197 197 176 137 157 201 179 164 181 199 190 184 160 125 101 88 82 54 36 27 34 71 133 156 170 171 157 141 137 138 135 137 142 137 127 140 157 167 160 158 171 184 185 195 199 202 200 200 165 164 153 142 135 145 155 167 170 180 172 171 175 161 177 181 185 166 25 53 61 54 59 66 65 64 68 62 68 63 67 59 58 64 59 60 60 62 60 58 59 54 47 42 65 125 131 73 94 218 186 158 176 197 193 186 163 123 100 98 96 46 27 17 65 137 180 184 185 171 158 134 124 118 118 115 122 120 114 117 125 135 140 144 153 173 177 191 196 203 203 203 189 169 158 149 146 153 154 148 169 172 176 172 173 171 167 172 187 140 26 57 59 58 60 63 69 67 68 63 68 67 63 58 63 58 59 59 63 59 59 56 58 56 52 54 46 56 59 51 40 223 193 168 168 190 193 191 171 125 121 121 119 59 30 24 148 180 181 181 163 153 142 125 111 106 101 97 98 108 102 105 108 118 130 137 146 168 177 189 197 200 196 200 198 189 180 163 153 154 149 155 166 168 171 172 172 173 164 169 189 91 40 57 57 61 63 61 69 64 66 66 68 69 66 56 61 58 62 60 65 58 60 57 55 63 50 54 54 54 54 55 10 199 200 176 165 183 186 189 178 137 135 131 140 92 33 59 176 186 180 172 160 152 133 122 111 97 92 88 86 91 100 102 110 116 128 136 136 166 178 188 190 195 188 201 200 199 191 176 163 160 149 158 158 161 168 179 174 171 163 163 183 50 49 59 60 59 62 65 68 64 69 66 68 68 66 58 65 54 68 60 65 58 59 56 57 58 51 56 56 52 55 52 25 127 210 186 168 175 189 188 176 134 134 141 144 117 62 116 180 181 182 172 168 155 136 123 114 99 96 97 93 97 106 105 111 112 129 142 147 164 183 182 192 190 186 201 202 198 198 183 173 162 157 171 160 159 170 174 167 171 169 168 156 31 56 64 59 59 62 64 69 66 65 69 66 68 61 62 63 58 64 60 69 61 60 61 55 56 56 53 51 53 57 49 50 53 215 192 172 181 190 182 178 140 134 135 138 122 112 163 180 170 181 171 168 146 136 132 114 104 104 100 95 97 110 108 114 126 131 143 158 172 184 190 192 195 191 195 203 196 196 195 170 161 149 164 168 160 164 170 163 171 160 175 121 34 58 58 60 60 64 65 69 62 66 68 67 71 71 65 63 60 57 62 68 64 62 58 52 53 48 52 53 56 52 53 53 6 187 190 180 177 190 179 165 149 123 135 140 133 148 178 183 171 175 171 169 143 144 131 119 121 107 112 111 108 124 125 130 137 143 149 166 176 182 193 197 193 195 201 203 194 192 193 184 172 156 162 163 157 165 164 155 165 154 168 66 47 58 59 63 63 66 60 68 65 67 66 65 68 65 63 64 57 61 64 64 60 61 59 56 54 55 53 56 50 55 53 51 25 113 195 181 180 186 190 160 151 134 132 144 142 164 182 179 180 172 173 166 154 151 136 135 129 125 137 136 138 146 154 146 165 167 167 171 180 193 194 199 197 194 194 201 198 184 183 183 175 152 166 164 159 159 158 160 154 162 140 41 56 62 58 65 64 65 64 69 66 68 64 69 66 67 63 61 64 57 66 63 61 60 55 60 52 54 52 52 51 54 54 48 46 48 195 185 177 184 180 177 154 148 142 143 148 161 180 177 178 172 172 170 164 151 155 156 151 159 154 154 159 160 164 170 182 180 183 191 190 192 197 198 197 200 191 199 202 189 184 189 175 169 158 169 162 164 160 153 144 158 95 43 52 63 63 65 65 65 61 66 70 66 68 69 67 65 64 60 58 58 60 60 61 58 54 58 53 55 49 52 48 57 50 53 49 17 155 194 179 180 175 183 157 157 152 148 160 161 180 177 176 173 173 179 174 162 178 172 165 163 164 163 163 168 169 175 182 188 187 200 190 190 193 194 195 197 196 189 204 189 183 187 164 164 168 157 162 165 156 144 146 139 57 52 56 58 67 63 66 67 65 66 64 66 68 64 68 66 67 63 61 59 58 62 62 55 56 53 56 53 49 54 44 56 50 49 50 36 64 194 183 184 177 178 171 162 157 159 158 154 177 178 178 168 178 182 180 170 180 177 156 157 171 171 168 168 169 175 181 185 194 194 195 194 191 193 191 197 193 195 192 188 177 174 174 150 166 149 162 158 147 143 148 96 52 57 58 61 67 67 66 69 65 68 64 62 68 65 69 65 66 64 61 58 58 60 59 49 57 53 59 58 46 52 45 48 50 48 49 46 12 158 189 181 167 163 179 169 160 157 160 159 177 172 172 178 179 181 177 170 179 173 162 161 167 165 167 167 166 171 176 181 190 190 193 197 193 192 192 191 177 189 188 185 176 168 175 157 151 161 163 152 137 140 128 66 52 55 58 62 61 70 66 72 64 65 70 64 68 68 67 66 68 65 60 62 57 60 53 54 57 55 57 55 51 52 51 40 54 52 48 44 20 78 194 176 171 161 177 163 158 165 165 150 171 166 170 173 179 178 173 173 175 172 163 158 157 146 157 154 154 156 173 181 180 185 190 192 189 187 186 180 174 167 187 177 169 166 161 160 144 157 149 142 133 128 119 52 55 58 57 64 62 67 65 67 71 62 74 63 67 68 65 69 62 60 57 58 57 54 55 60 62 56 58 51 53 51 48 44 49 48 43 38 33 121 164 172 177 161 175 165 156 164 163 150 174 156 159 170 171 166 171 168 173 165 159 147 144 145 149 145 146 146 165 167 174 179 189 175 182 185 179 179 167 168 178 172 167 165 148 164 145 142 136 131 121 131 130 50 52 57 61 59 66 65 66 67 66 65 70 66 69 69 65 65 55 60 59 57 56 61 61 56 64 57 51 55 48 49 51 47 48 44 46 29 143 173 97 157 178 152 167 166 161 158 165 163 164 161 161 158 162 163 168 162 168 164 149 146 139 135 135 135 133 140 147 156 165 169 184 161 169 165 168 160 162 154 173 165 168 157 142 156 142 130 126 123 97 167 123 46 53 58 58 63 60 65 66 64 67 65 64 67 65 68 69 66 53 55 55 56 58 55 63 61 57 58 51 52 51 50 49 49 45 54 12 138 182 137 54 133 173 162 177 161 169 161 160 160 159 164 159 152 152 159 166 152 153 144 137 129 122 127 122 129 118 123 136 140 157 154 165 155 153 152 152 158 149 145 167 159 151 145 135 143 138 123 117 105 126 171 117 41 54 55 59 60 65 63 61 61 65 66 66 67 66 66 60 63 56 56 63 59 54 58 57 61 57 58 58 48 53 52 50 49 49 30 79 213 141 110 39 128 171 154 165 158 166 154 147 162 164 160 148 152 148 148 149 141 139 127 123 114 114 117 117 121 110 116 125 126 136 144 149 149 142 148 144 144 141 144 147 152 150 132 133 131 122 115 99 136 147 144 192 26 51 57 57 60 68 58 62 64 65 65 67 68 66 65 63 67 62 58 66 55 58 57 56 58 55 54 59 50 50 54 51 44 52 8 192 180 115 87 46 97 210 143 150 164 152 161 143 150 153 161 149 140 143 144 132 131 123 126 110 103 108 109 110 107 105 110 112 109 119 128 128 135 133 136 129 130 132 128 136 137 138 121 124 128 102 105 128 143 160 131 235 131 30 55 62 55 62 60 64 63 63 60 63 68 66 65 64 66 61 61 58 58 58 53 53 56 52 57 51 53 52 51 52 49 50 48 241 147 92 86 52 98 203 183 133 137 156 166 149 146 149 151 149 139 135 127 129 129 114 119 98 93 97 101 102 97 93 98 94 98 102 115 105 120 113 117 116 112 113 121 123 128 120 113 114 114 97 124 144 145 168 148 215 226 46 46 60 56 66 62 61 65 66 62 63 64 62 61 63 63 58 56 60 58 57 49 58 45 56 55 49 54 51 54 52 68 29 120 227 118 79 97 55 73 206 178 182 129 126 152 149 145 147 141 133 128 128 125 123 121 107 107 95 84 82 79 87 84 85 79 87 87 86 92 97 98 108 103 105 105 101 114 110 115 112 110 98 97 130 127 146 154 170 140 214 233 94 30 57 62 65 64 62 63 63 62 63 61 63 60 62 65 60 56 56 57 53 50 53 47 53 52 56 49 55 51 64 68 27 185 221 92 99 95 47 32 209 184 177 170 139 113 141 147 145 141 130 129 127 118 116 112 102 97 89 77 67 70 71 73 73 71 74 77 75 75 94 83 92 92 86 86 95 91 102 103 101 92 107 125 128 140 151 158 176 125 213 224 178 16 57 66 60 63 61 64 63 62 60 64 61 64 67 65 58 55 57 54 55 51 50 50 49 54 52 51 52 71 69 38 38 236 216 96 103 80 25 10 145 198 174 174 165 140 123 121 135 143 133 125 123 112 108 111 97 96 76 71 63 70 65 68 67 67 63 72 65 72 78 70 74 73 74 80 82 81 90 95 97 114 123 120 139 148 144 160 185 84 230 218 201 42 51 66 62 62 63 64 68 65 63 65 62 59 63 61 56 59 51 59 53 51 46 48 53 50 55 58 69 70 56 15 105 239 216 105 100 55 20 22 63 176 184 173 161 156 157 124 112 129 128 121 128 109 105 112 95 95 81 68 67 70 69 71 63 71 67 74 68 69 70 64 66 68 72 77 78 75 87 102 116 121 122 134 141 145 152 166 154 97 231 217 231 76 61 66 57 62 62 58 61 63 67 69 77 68 64 65 57 52 55 54 52 56 53 53 56 60 67 67 72 56 52 20 164 232 236 123 81 35 25 33 49 96 168 176 157 161 165 148 129 129 110 110 116 105 106 102 96 88 86 73 76 71 70 72 66 72 73 74 68 73 66 72 70 72 75 71 76 92 107 120 117 124 137 138 142 145 160 178 74 153 234 214 235 115 57 75 65 61 57 48 51 53 51 56 69 73 82 76 55 59 55 60 62 60 58 59 65 70 66 70 48 62 99 56 197 222 237 155 50 27 34 34 63 47 107 161 163 165 161 151 146 145 122 113 107 99 96 90 91 84 88 75 74 75 76 74 78 68 77 74 76 78 68 82 76 76 76 85 100 118 120 121 121 122 138 133 144 151 170 146 41 220 225 218 218 172 40 77 77 72 65 62 48 44 47 50 55 59 70 77 64 62 65 61 57 57 65 65 68 72 65 65 43 83 102 152 223 218 231 177 64 19 34 35 70 47 63 103 145 164 164 147 141 155 141 136 121 118 100 92 89 84 81 80 77 77 81 78 85 75 84 78 84 81 79 80 75 85 101 114 108 122 119 131 133 114 130 139 143 158 161 83 135 224 222 218 213 202 25 82 81 75 78 64 62 51 45 48 47 49 59 68 65 63 57 57 59 55 70 70 71 68 71 41 62 108 193 221 219 216 230 192 122 27 38 25 67 58 51 63 97 129 162 150 141 144 145 145 136 133 120 113 111 100 88 84 78 73 73 70 79 73 73 68 67 74 73 83 86 102 109 114 111 122 126 133 134 127 136 142 156 160 98 119 187 221 220 218 215 227 92 68 84 78 76 77 69 55 51 44 45 49 51 58 60 56 46 58 57 66 69 71 73 72 53 28 126 206 213 218 217 218 225 211 149 89 22 14 68 57 60 56 60 91 117 132 147 144 140 141 143 135 132 126 125 122 105 95 93 74 71 64 61 63 63 65 65 76 82 92 96 108 105 117 115 123 122 131 130 132 140 142 152 122 81 182 199 219 220 218 215 236 180 46 84 82 80 75 80 58 51 51 43 45 50 50 54 53 46 60 63 63 73 73 73 67 30 94 230 201 218 217 218 217 220 222 165 128 45 13 56 58 56 56 59 61 81 99 120 140 146 148 136 135 134 127 126 126 120 99 101 82 76 63 69 64 68 62 74 81 96 92 98 101 103 118 116 116 122 127 129 131 136 146 130 85 128 204 203 222 214 218 217 219 202 74 68 81 80 73 77 76 52 47 52 45 44 52 