P2
92
112
255
46 41 45 49 48 51 47 40 44 50 41 64 60 60 59 55 63 45 61 61 42 61 51 52 67 55 29 54 100 64 53 52 60 31 53 6 51 66 45 64 50 44 33 52 43 60 67 19 54 31 54 49 48 37 66 50 25 75 48 27 97 91 8 65 73 74 56 62 90 86 103 101 121 75 85 80 78 45 66 82 48 52 42 39 69 47 45 47 59 49 39 51 47 45 47 40 47 46 45 46 44 49 43 54 64 45 66 55 45 66 45 75 65 51 76 40 64 67 29 70 79 61 52 56 59 40 40 19 46 85 44 46 43 50 27 49 48 59 70 18 50 33 39 51 71 32 80 46 39 54 39 37 81 74 42 47 74 46 59 74 99 84 105 111 101 100 95 83 72 87 61 68 70 56 50 48 52 51 48 47 59 45 50 45 46 48 46 43 44 50 41 51 44 48 49 59 56 54 67 58 50 67 52 67 73 20 67 62 39 60 52 71 69 63 72 56 71 49 33 16 41 78 48 25 52 28 38 40 47 72 55 28 40 47 26 59 68 41 80 52 54 48 28 41 71 60 40 39 61 49 71 81 100 95 89 96 96 104 96 83 83 102 74 76 58 71 69 58 45 47 44 51 46 50 48 49 44 48 44 42 51 44 46 42 39 62 48 51 71 63 43 60 42 67 62 46 77 30 13 72 63 54 72 71 101 55 84 57 57 79 37 18 26 75 56 6 52 19 61 21 48 92 49 40 48 37 40 59 79 37 72 37 49 34 36 40 57 40 49 44 69 68 63 90 84 75 81 107 95 101 106 98 76 88 64 83 70 69 68 65 51 51 59 49 55 50 45 49 33 47 40 49 45 41 45 45 35 62 70 45 72 70 64 53 52 59 63 64 61 54 21 32 60 64 75 83 83 73 78 60 40 79 45 17 14 75 65 30 33 51 59 54 40 89 67 29 60 14 37 59 70 29 66 26 38 44 44 38 48 24 66 39 49 52 72 69 60 85 80 99 82 101 82 76 86 76 57 82 84 88 63 72 60 48 51 49 60 50 50 47 44 46 48 42 53 43 47 51 54 90 72 77 84 75 83 83 69 29 52 77 48 55 53 28 43 51 67 75 56 73 97 74 46 62 70 26 14 62 71 25 32 37 29 100 52 54 74 28 51 17 24 51 64 27 48 29 29 44 44 35 51 45 44 42 51 62 60 61 91 96 68 75 86 68 80 97 98 108 83 86 79 80 80 79 71 79 69 50 52 52 54 43 45 47 43 44 43 50 46 64 57 68 88 99 96 97 79 75 73 54 27 82 64 33 55 36 40 23 73 59 47 66 71 112 37 60 68 63 8 51 77 14 51 42 6 91 73 35 34 68 28 21 24 37 53 28 38 28 35 31 40 36 46 46 46 58 51 42 70 79 93 71 69 84 89 71 104 102 110 99 76 94 80 113 70 74 83 87 67 61 55 53 42 50 43 42 45 47 41 51 24 68 73 52 74 106 98 97 89 79 72 60 37 51 44 48 42 47 31 27 34 42 64 56 49 81 67 56 49 57 47 21 69 30 45 37 25 34 68 49 42 57 41 38 28 44 52 32 35 37 36 24 27 35 30 53 72 57 53 43 61 61 64 53 72 97 96 109 94 80 93 73 86 74 105 89 47 82 92 82 85 56 44 56 53 49 38 48 43 48 36 56 40 39 66 63 68 108 91 69 73 92 76 78 58 41 37 26 73 47 38 35 24 43 27 62 48 46 67 80 63 32 65 49 43 60 41 43 34 31 58 61 49 48 50 35 41 40 51 36 21 34 45 24 43 30 26 48 43 60 46 49 60 62 64 68 72 95 89 78 86 94 96 83 98 65 110 90 67 85 103 58 99 93 51 43 45 47 36 48 49 38 31 42 41 38 52 82 75 97 86 92 83 57 79 62 49 54 46 38 34 48 48 44 44 44 36 38 64 53 45 62 66 67 42 57 42 71 54 41 40 21 51 51 47 80 70 58 67 43 43 47 42 27 43 33 30 40 33 49 60 66 57 42 58 50 50 47 55 70 69 69 81 92 108 95 99 68 71 91 69 86 53 42 30 96 102 48 45 50 43 44 53 41 20 38 36 44 58 68 84 68 74 82 93 72 59 61 50 48 45 45 41 33 51 36 56 53 46 39 52 55 55 52 42 62 64 52 46 43 91 56 39 36 36 56 52 57 66 87 58 58 48 44 47 43 26 44 37 41 44 54 49 50 38 39 52 51 41 39 42 65 64 78 81 86 97 83 88 81 71 98 76 87 92 77 54 51 113 72 33 57 42 40 51 32 25 34 38 38 69 68 69 87 63 48 66 70 74 54 60 48 59 50 56 44 47 43 51 49 41 57 34 54 65 53 58 53 58 66 80 73 64 72 50 39 50 40 51 65 64 53 73 50 75 66 57 51 56 57 58 57 60 51 61 46 50 49 56 38 42 41 48 64 67 57 61 66 75 87 71 77 62 70 69 38 75 98 73 38 54 122 39 58 40 44 55 35 32 38 35 40 69 72 49 67 65 71 68 65 70 58 54 50 57 42 53 50 44 65 55 64 56 67 72 72 71 68 64 73 69 59 77 78 69 57 67 54 62 62 61 78 76 69 79 68 82 82 71 72 71 70 70 72 86 66 69 69 62 45 38 42 33 46 49 51 60 73 53 59 55 60 60 61 49 57 45 43 56 74 61 52 51 82 110 39 35 43 47 39 30 28 35 39 54 60 48 54 54 57 53 48 56 55 59 37 48 46 72 75 73 92 86 88 81 80 91 89 76 86 76 84 87 94 93 72 85 84 84 92 88 99 94 102 104 104 100 103 121 111 102 102 106 109 111 90 106 97 99 95 94 65 61 58 48 63 47 62 83 75 54 47 55 60 62 56 55 65 53 68 38 79 78 40 76 53 90 74 37 43 55 39 29 29 34 44 50 73 56 63 60 64 61 71 58 48 43 49 71 78 86 93 102 99 99 96 94 96 92 92 94 91 100 95 104 107 112 104 105 113 113 109 117 115 116 126 129 124 127 126 131 132 123 130 139 124 128 112 125 126 117 114 110 101 77 79 55 43 64 59 76 83 71 60 46 54 65 49 46 74 68 58 76 84 93 58 81 40 85 80 34 38 53 45 34 27 43 50 49 61 55 69 55 47 49 59 48 41 54 90 96 101 102 102 116 106 103 109 105 101 107 105 100 108 112 121 120 126 124 130 129 119 126 129 133 134 133 142 142 127 130 134 135 141 141 134 140 143 129 138 136 146 136 146 142 134 120 92 106 102 43 71 50 17 91 83 72 68 66 52 74 59 66 69 53 78 68 107 75 57 60 89 38 44 38 47 38 56 53 59 60 46 59 50 48 49 54 42 36 74 94 100 110 108 109 114 111 115 115 114 120 117 123 116 121 123 130 129 132 133 135 135 132 134 129 135 138 137 140 148 143 137 134 143 136 146 141 139 142 149 146 147 142 147 159 144 157 154 136 133 107 111 91 60 47 53 48 73 77 64 68 52 74 66 71 87 72 71 84 91 69 74 68 92 38 39 37 37 54 69 52 55 55 60 36 48 53 51 34 29 83 107 114 115 116 112 119 121 120 124 127 128 134 131 130 124 125 131 137 139 133 133 137 128 137 132 141 141 151 152 141 154 142 141 143 151 149 151 144 145 146 148 158 154 154 153 160 154 144 151 149 151 135 107 125 107 38 45 36 36 56 68 74 59 73 63 70 75 103 39 60 104 51 75 66 102 44 38 35 38 63 72 39 35 36 36 36 54 52 27 32 82 109 109 117 113 122 121 127 130 122 133 139 135 143 134 132 127 134 135 138 140 136 137 133 143 136 137 147 150 151 148 148 142 143 145 148 151 153 152 158 153 150 159 155 157 147 166 159 158 163 161 160 158 152 132 124 123 66 35 35 50 51 56 50 49 66 50 75 85 92 69 41 85 71 92 95 105 48 28 33 41 43 38 40 36 30 42 45 60 32 11 75 113 115 118 120 122 125 127 132 132 133 140 134 142 132 138 132 134 130 138 137 134 137 135 136 150 143 141 153 141 154 152 150 143 149 141 151 153 138 157 159 157 159 161 163 159 157 157 167 166 161 167 166 173 164 155 130 120 100 38 39 7 66 52 45 31 54 52 72 69 55 87 54 33 37 122 78 116 36 30 43 33 39 54 39 23 28 36 59 46 20 65 113 113 123 123 128 129 127 134 133 140 136 145 144 143 140 138 142 139 142 135 134 139 140 137 138 148 146 146 152 153 156 155 150 150 152 148 156 154 158 159 160 163 155 166 164 170 168 168 170 168 174 164 167 166 167 153 155 119 109 73 30 20 49 48 43 48 38 31 45 59 60 64 76 90 66 63 114 79 44 31 38 31 77 57 24 29 39 50 55 18 44 110 127 125 126 126 130 134 135 136 143 149 152 152 151 147 142 145 146 143 142 138 133 143 135 151 142 147 149 157 154 167 160 158 153 149 156 151 157 154 162 162 161 166 166 169 178 171 174 173 168 170 174 172 176 178 177 173 165 151 122 70 45 16 28 72 29 52 51 32 33 81 57 45 45 101 117 57 88 105 42 48 30 62 46 24 41 47 46 40 29 20 80 125 129 129 127 133 130 137 133 143 146 149 148 154 144 155 149 144 144 144 144 137 142 141 144 141 156 153 155 160 155 163 163 159 152 159 156 160 160 157 159 168 167 166 173 170 175 176 173 176 173 170 174 164 173 179 182 186 175 159 141 110 54 39 32 34 64 24 45 71 83 57 55 53 17 83 75 122 114 77 43 42 63 58 44 30 49 25 35 32 21 46 113 123 128 133 126 128 139 136 135 146 152 148 154 152 147 149 143 148 137 147 136 143 140 146 147 152 153 157 159 162 160 162 163 163 159 161 163 160 165 162 161 168 175 166 167 172 170 173 166 181 167 169 181 172 175 178 183 185 184 171 135 131 70 58 48 11 51 60 48 48 61 81 44 57 47 75 12 126 96 86 42 38 78 48 32 45 33 27 35 25 33 85 120 132 129 134 132 130 136 139 146 146 153 150 157 154 152 150 151 143 145 149 149 148 150 150 158 157 161 167 164 166 167 160 167 163 161 167 167 163 163 169 171 164 169 168 164 174 169 180 173 175 180 175 165 175 171 175 184 185 195 182 141 120 89 57 53 56 33 32 98 73 53 66 64 107 68 84 134 19 118 105 42 52 57 26 31 41 28 28 27 37 47 113 123 126 139 133 135 131 140 146 143 151 152 152 154 157 153 155 155 142 150 149 148 154 151 157 162 163 164 164 169 166 166 166 169 171 161 168 169 164 167 166 170 153 144 164 167 172 169 176 177 180 177 174 182 175 179 177 191 190 195 195 143 133 94 59 59 51 48 33 51 112 58 48 54 39 112 81 139 79 65 110 38 27 29 28 34 43 34 33 38 16 69 120 129 141 139 140 135 140 138 145 143 153 149 154 156 154 150 159 139 144 149 156 159 161 155 165 168 161 174 168 170 172 167 169 164 175 162 176 173 165 170 167 173 159 143 164 166 172 180 172 181 178 174 179 175 184 179 183 192 193 201 195 158 119 107 68 59 27 67 10 67 45 56 62 80 54 34 66 150 111 45 92 40 20 40 46 69 35 30 30 30 35 83 122 131 135 143 139 141 140 147 145 147 149 142 152 155 150 154 155 151 150 159 155 164 157 159 162 169 168 169 170 170 172 170 163 167 167 163 169 174 162 168 171 175 173 165 168 165 174 176 173 175 179 175 177 182 181 182 188 192 194 197 187 166 129 109 79 60 60 50 84 33 90 39 48 87 52 49 83 76 116 48 71 17 27 47 90 72 32 24 30 32 69 95 127 132 142 140 142 142 144 150 146 153 143 134 150 149 152 150 155 153 151 159 159 155 160 167 161 168 168 172 168 170 170 168 174 166 167 164 176 169 170 160 174 170 170 176 172 178 175 175 172 179 179 182 179 176 192 186 192 194 193 194 195 168 142 113 92 70 51 69 109 97 72 76 41 15 103 87 73 141 52 84 57 22 35 43 77 51 26 35 31 61 54 106 133 133 143 143 148 146 151 149 146 150 147 153 149 151 153 150 158 161 160 165 164 163 162 168 165 167 165 170 170 168 170 171 173 167 170 171 172 169 170 171 170 173 173 176 178 181 176 176 173 184 177 180 182 181 184 190 192 194 195 195 193 180 141 120 81 77 48 55 101 100 77 79 65 72 20 69 75 101 59 70 114 29 29 50 56 32 29 42 58 51 96 124 130 136 140 148 143 153 147 156 149 144 158 150 152 150 159 159 160 166 161 170 166 168 159 171 164 169 164 171 175 169 171 173 175 168 177 169 174 169 170 165 174 169 173 183 177 181 178 179 175 177 183 175 185 186 186 193 198 195 198 197 201 184 153 133 93 71 91 62 99 79 93 84 55 85 37 4 82 62 50 51 140 33 28 44 52 23 29 57 66 67 95 128 129 137 145 151 142 151 147 150 147 150 156 159 153 155 159 163 160 169 164 169 170 165 165 171 163 166 162 169 172 171 166 172 170 169 175 166 171 172 169 167 176 175 174 182 173 178 183 181 172 181 180 180 178 183 188 193 197 195 192 195 203 192 162 143 107 72 68 113 74 79 73 84 36 65 92 50 45 112 33 69 101 39 22 42 51 28 36 60 72 75 103 131 127 140 143 149 150 148 145 151 152 151 159 160 163 147 164 155 169 166 165 163 169 161 168 168 162 163 160 173 169 172 169 168 171 167 173 166 173 168 170 168 163 176 175 185 173 181 180 183 174 178 177 183 177 189 185 192 195 195 198 202 191 203 165 150 87 93 55 108 94 72 81 92 67 56 89 121 32 108 87 38 80 29 15 65 52 37 45 62 47 87 122 131 137 141 146 150 153 151 145 152 150 154 160 157 155 160 163 155 167 167 169 161 168 162 164 169 161 162 165 169 169 167 168 163 170 168 169 169 169 168 168 172 172 169 176 179 176 178 177 180 179 176 185 177 183 181 191 190 195 201 195 199 200 209 191 152 118 81 76 93 100 67 75 73 115 91 51 65 115 65 88 68 77 33 10 87 55 46 66 62 48 95 122 137 132 141 146 154 155 151 153 152 156 160 160 153 156 162 164 160 164 166 169 163 166 171 161 164 165 164 163 167 165 170 170 163 162 168 163 167 177 166 173 168 179 175 178 178 180 179 178 178 183 167 185 167 185 182 184 186 199 199 200 198 200 209 217 152 133 82 109 76 118 89 41 91 87 118 65 2 92 88 41 84 69 31 19 72 72 61 46 47 61 99 133 134 134 147 147 149 153 153 149 151 155 151 156 159 162 161 164 166 161 164 164 166 162 167 162 165 164 164 161 167 164 165 165 165 164 170 167 171 165 169 171 170 169 170 168 175 173 178 174 181 178 175 181 183 180 181 185 189 192 203 200 197 200 205 223 169 132 103 95 88 94 107 95 73 99 85 112 73 50 33 69 44 54 29 25 37 104 71 28 40 57 102 135 128 142 149 152 149 148 153 147 151 151 151 154 153 162 158 162 166 162 165 163 165 160 167 164 163 167 161 166 165 167 160 160 161 173 171 158 171 171 163 163 167 164 163 163 169 164 167 166 177 172 178 181 177 182 177 185 187 192 200 200 201 201 203 223 187 132 115 77 98 90 114 91 103 107 120 59 108 83 28 53 110 66 34 23 27 86 42 39 26 47 118 129 136 140 151 147 144 148 141 138 146 141 142 150 154 157 161 159 162 165 165 163 163 164 165 167 163 167 163 166 165 168 160 154 162 170 172 159 164 171 160 158 162 159 157 155 154 153 152 158 160 152 154 166 178 179 181 184 186 190 195 202 200 203 203 216 203 142 121 67 90 100 100 77 92 88 126 77 20 83 118 50 107 109 29 26 33 56 44 21 24 55 125 119 138 153 145 134 132 140 126 131 137 132 124 130 139 140 138 154 160 165 167 158 153 164 161 167 159 160 169 164 166 165 158 159 161 166 168 162 158 169 156 140 137 140 141 130 132 142 132 122 144 134 143 149 156 175 172 186 184 191 199 195 200 201 203 208 214 162 117 101 83 120 87 95 52 85 82 100 43 57 109 71 39 103 28 27 24 44 27 31 31 57 123 112 149 146 129 119 127 121 107 105 118 105 96 103 103 101 112 125 142 150 161 149 157 159 159 161 159 158 163 167 163 162 165 148 154 149 158 144 140 127 123 91 90 85 84 89 91 111 131 107 130 132 140 136 146 150 176 184 182 192 195 199 198 203 200 210 218 174 121 154 86 103 76 72 69 72 92 64 74 61 87 66 58 85 28 23 30 37 26 37 22 66 121 121 142 127 125 118 122 120 103 83 90 80 82 67 80 76 85 101 107 139 136 143 149 153 153 154 162 162 163 159 164 158 157 145 142 140 147 138 120 113 101 83 76 66 63 62 55 71 84 89 97 112 126 125 126 130 154 162 176 183 192 191 195 199 201 199 218 199 121 155 112 98 74 54 52 58 64 69 53 63 101 66 80 90 36 21 23 30 30 29 19 82 128 128 126 110 108 102 106 96 101 71 64 63 65 78 58 73 70 82 83 116 129 126 141 151 158 150 154 161 162 157 153 147 133 134 139 129 130 119 102 110 97 88 83 59 65 67 51 62 62 60 76 88 108 107 115 112 120 142 163 152 187 198 192 199 199 203 209 207 147 117 120 101 70 73 37 74 74 41 69 56 59 67 112 56 38 22 25 24 26 38 27 89 129 129 117 109 101 104 102 97 87 84 69 81 77 87 88 74 80 85 78 120 125 118 145 144 154 144 153 158 158 150 147 139 131 130 129 123 115 105 99 100 98 82 73 64 77 67 58 71 61 67 77 86 87 91 99 102 111 136 156 164 168 184 191 195 195 202 205 211 173 95 107 95 73 77 52 53 74 61 55 61 64 57 84 64 42 27 30 21 27 13 37 95 123 124 104 104 110 111 107 108 113 118 132 126 118 122 118 110 100 103 109 119 120 122 130 137 142 148 160 157 149 140 145 137 138 125 126 113 117 105 105 94 94 86 74 84 80 101 107 108 108 112 105 106 87 107 99 93 99 109 129 156 166 176 189 190 195 203 198 207 200 107 96 79 76 53 69 58 71 77 76 57 86 62 45 65 38 31 26 22 28 26 41 109 117 119 111 112 119 128 124 132 130 126 129 129 118 115 117 111 114 113 119 121 124 131 128 130 147 154 154 155 147 145 143 140 140 126 123 112 108 97 106 96 98 97 99 106 111 124 127 129 130 122 124 120 113 106 108 99 91 104 118 132 155 168 184 189 194 202 198 202 207 156 80 88 64 57 63 64 49 76 82 89 70 65 31 54 46 34 23 22 22 28 43 100 107 119 113 128 129 134 126 129 120 105 106 111 99 86 77 70 58 50 79 115 110 134 141 132 153 154 154 154 157 164 153 153 148 130 122 121 100 93 88 92 96 100 98 93 104 99 102 97 108 106 101 114 111 113 107 115 110 122 116 118 136 160 174 185 199 200 191 201 209 191 93 83 77 54 60 84 75 51 78 93 93 35 39 47 28 43 29 16 25 14 41 103 100 121 132 134 129 131 111 111 103 111 95 80 68 44 54 53 49 51 50 49 100 118 122 139 141 154 158 155 161 165 167 162 147 133 123 111 97 82 72 68 69 83 95 111 104 97 91 101 86 102 109 103 95 78 91 105 114 114 117 116 122 138 163 175 192 197 199 193 210 211 96 76 93 74 37 78 72 69 61 73 65 85 15 36 28 36 36 14 16 35 31 118 111 117 135 134 135 108 90 110 95 89 94 37 45 48 1 77 61 51 63 62 50 96 118 131 149 145 156 161 162 174 173 174 152 135 122 107 92 89 61 71 49 103 96 101 94 56 54 35 97 66 60 107 117 126 32 54 101 112 122 127 133 135 153 170 197 195 198 195 203 239 104 125 100 90 50 50 87 63 75 65 56 66 69 20 40 30 47 14 18 19 20 133 114 131 131 134 124 88 92 44 62 123 166 9 214 45 0 50 86 56 57 64 99 84 123 113 143 148 156 162 165 171 170 168 155 135 123 92 108 78 64 72 54 56 41 137 97 115 64 4 31 128 0 85 77 99 147 97 31 83 110 122 138 146 151 173 193 194 195 199 195 238 137 94 100 62 81 47 34 71 87 58 85 43 102 36 33 38 42 34 22 14 32 137 123 130 133 124 114 96 64 22 81 148 182 26 69 70 2 68 62 64 70 41 95 107 99 116 143 150 157 162 168 171 162 165 162 149 117 103 124 104 75 69 48 23 25 152 132 151 174 2 0 90 0 108 127 48 93 128 94 44 86 117 139 152 162 153 193 199 195 199 200 226 151 102 92 54 60 81 58 59 80 71 87 46 105 57 39 32 44 32 26 13 45 154 131 135 132 120 94 75 72 68 72 104 149 94 115 61 58 63 58 65 51 51 46 109 91 118 150 154 158 162 169 168 164 161 177 157 116 110 119 120 96 35 58 36 44 61 151 66 91 57 48 53 52 119 170 81 103 105 93 112 104 105 130 145 167 174 187 194 197 195 197 230 158 105 117 78 45 71 39 84 64 59 95 60 72 96 38 33 52 38 35 0 54 159 135 143 127 116 98 101 98 96 93 104 106 90 102 96 76 85 80 68 64 84 94 95 101 128 144 155 158 164 165 168 169 171 187 182 125 104 121 117 109 76 77 55 62 66 93 93 71 76 73 70 76 98 120 112 118 159 102 113 123 123 140 151 164 176 188 194 194 200 195 228 178 62 140 58 70 71 49 90 81 52 91 69 62 89 38 36 41 48 30 0 80 160 135 138 123 112 111 116 120 132 135 141 143 129 130 115 110 100 93 82 83 96 97 98 127 130 144 151 152 168 158 166 176 192 192 190 149 115 109 120 107 111 90 71 64 74 78 87 88 100 89 105 112 107 153 138 149 152 143 154 147 148 149 162 169 164 188 200 197 195 200 212 200 88 80 61 81 72 77 91 83 51 72 77 41 69 44 29 46 39 35 1 99 162 135 121 120 114 114 118 124 134 135 138 139 140 133 123 113 102 97 90 95 95 93 113 136 133 137 143 150 157 159 161 175 188 189 194 157 127 110 111 104 91 98 68 81 82 75 95 98 105 106 120 124 125 154 151 157 159 163 159 163 150 163 159 171 169 180 197 200 192 200 210 210 106 72 59 91 86 62 87 105 44 62 88 50 54 36 39 40 40 38 6 128 145 134 122 114 115 123 124 128 130 132 130 135 123 135 124 128 111 102 110 102 105 109 137 129 120 129 140 151 161 157 165 168 178 190 184 170 161 140 99 112 112 101 92 97 96 89 90 102 100 114 118 127 130 142 142 145 154 151 155 165 156 163 166 169 162 186 194 195 195 195 194 230 79 69 57 102 80 78 69 106 57 27 97 51 68 42 31 37 35 33 16 138 147 130 119 120 127 129 130 131 130 134 133 141 134 131 133 133 114 114 115 107 112 141 138 112 127 149 152 155 154 157 165 170 168 189 187 177 177 158 134 113 126 106 106 104 102 108 108 110 106 116 117 129 125 142 142 145 149 153 156 163 163 163 175 172 168 182 195 195 192 198 187 230 110 48 67 94 76 82 58 94 72 57 92 56 73 37 39 34 22 88 55 139 144 126 127 133 132 135 144 139 134 141 140 139 131 138 138 129 123 118 121 122 136 155 126 133 147 158 164 159 168 154 165 167 176 177 190 191 182 176 151 137 128 123 123 112 106 113 114 124 117 127 131 124 132 137 140 145 145 151 158 157 158 174 171 180 170 183 195 195 192 197 195 214 193 34 48 96 65 87 55 71 123 175 120 85 49 30 40 9 74 122 98 136 133 130 134 129 142 139 140 142 142 144 135 140 138 130 134 121 122 123 123 129 144 139 133 138 153 175 164 169 168 159 160 173 170 171 180 187 188 182 157 145 130 129 130 128 121 122 124 124 120 131 137 131 135 143 138 150 148 151 154 157 164 167 173 180 177 183 188 192 194 193 191 212 213 57 35 97 73 66 69 100 172 195 198 113 36 34 39 4 73 95 127 128 133 139 134 141 140 143 141 147 147 141 144 141 138 140 129 118 127 134 125 147 142 136 145 146 162 161 164 158 168 168 163 178 177 174 163 170 201 185 153 144 144 136 134 135 134 129 130 126 120 128 129 130 143 145 144 146 150 154 152 160 169 169 179 177 184 185 188 189 194 193 195 203 223 83 42 87 67 59 111 147 181 86 138 245 36 38 38 36 19 118 106 131 135 139 136 141 143 148 151 146 151 148 149 148 145 139 127 126 130 137 133 142 146 152 137 168 173 159 160 152 163 169 163 171 185 180 171 156 172 185 167 146 144 142 139 138 139 132 131 130 130 121 136 132 142 150 145 148 151 156 159 160 170 174 175 180 177 184 189 184 192 192 193 199 231 90 72 113 115 142 160 212 138 48 51 236 73 38 32 38 5 111 141 134 146 143 143 145 146 151 151 151 151 150 153 149 146 133 131 129 134 133 137 152 160 143 140 149 166 162 156 140 140 151 154 151 166 173 182 177 160 172 167 160 150 146 136 143 141 142 139 140 132 130 139 138 152 143 151 149 152 158 161 161 169 176 182 182 187 181 188 188 186 191 184 201 216 135 159 165 191 201 164 224 219 93 67 187 73 38 37 44 12 65 151 132 147 142 144 144 153 150 150 157 153 152 151 149 145 139 135 131 136 136 149 159 157 151 140 141 144 149 148 143 140 143 137 135 142 150 166 177 185 185 146 149 151 141 143 135 146 141 136 140 135 131 138 151 155 143 156 151 150 158 157 167 164 172 174 175 189 180 189 192 186 193 187 198 187 187 189 173 207 187 148 217 239 165 93 198 32 34 34 50 25 69 138 134 137 143 146 143 141 152 153 154 157 148 150 145 139 140 137 142 132 133 155 149 122 108 105 129 141 150 137 137 137 124 100 112 114 134 140 154 168 200 173 128 143 140 135 146 144 141 134 141 137 138 145 150 153 152 154 154 154 159 161 163 167 170 174 173 176 188 192 185 186 191 185 188 182 191 176 178 202 161 144 198 223 192 136 146 14 39 42 30 11 81 150 137 136 144 144 144 154 153 160 156 151 152 145 144 141 138 138 138 141 138 146 133 59 14 42 42 108 147 133 131 151 68 29 30 50 32 61 147 134 178 214 132 141 138 139 141 144 140 143 141 147 143 151 142 149 156 163 161 158 157 159 162 165 171 169 174 182 190 182 189 185 188 187 188 181 181 163 181 190 165 159 192 215 185 177 84 23 34 35 46 14 107 121 136 140 137 145 150 151 158 159 154 150 152 149 146 139 146 137 144 147 138 153 122 50 21 17 33 89 142 139 131 139 93 63 34 33 21 0 123 160 147 218 138 134 137 135 142 142 144 147 158 154 153 151 144 152 151 161 166 163 154 157 172 160 171 171 173 187 183 197 187 185 189 188 187 186 175 172 142 195 208 175 191 202 179 186 43 29 37 40 11 23 116 104 138 142 140 144 149 152 159 155 155 153 149 150 153 144 138 137 140 147 139 141 148 95 80 69 94 136 145 130 114 119 129 113 116 69 7 45 136 146 138 194 135 133 133 136 137 146 154 153 162 158 150 154 148 150 162 155 163 159 162 165 166 167 173 167 175 188 185 177 193 184 190 190 179 192 189 129 23 121 160 161 177 208 178 181 0 48 44 38 11 26 122 91 140 139 140 138 151 152 161 153 158 149 150 150 149 147 144 135 136 152 135 129 134 133 122 127 120 143 142 128 119 112 129 130 136 128 104 97 141 128 128 167 124 154 146 143 144 148 154 154 155 157 155 153 148 151 149 154 151 163 168 159 160 166 177 167 174 179 185 182 189 184 191 183 165 223 205 80 32 81 120 143 149 211 186 167 0 45 34 38 27 20 137 98 142 123 142 144 151 159 156 157 154 152 150 147 152 145 144 142 145 148 146 109 112 117 113 130 136 135 136 123 124 123 137 133 126 117 116 112 120 105 119 106 131 147 158 158 157 154 153 155 147 156 152 158 146 150 147 149 149 152 162 169 164 172 185 181 152 187 185 176 188 186 185 187 163 221 235 94 76 73 108 115 129 189 200 174 0 44 38 34 24 16 129 129 136 133 143 146 152 166 155 156 155 152 152 144 150 151 144 148 137 147 138 117 112 109 112 122 131 142 143 129 131 135 146 135 138 129 115 109 112 107 113 117 145 152 158 167 161 157 157 156 154 154 152 155 151 150 156 153 148 151 164 170 163 182 168 188 161 184 183 186 187 181 191 175 167 208 239 124 84 84 94 111 111 170 220 182 0 51 39 39 52 12 116 136 132 137 147 147 157 169 156 160 159 161 154 153 153 151 148 145 146 141 146 116 120 116 108 122 130 143 141 128 144 144 145 128 142 145 137 136 133 130 131 126 149 166 154 161 158 166 162 151 151 163 149 150 161 147 157 154 153 157 158 165 168 171 180 175 179 184 185 186 182 187 188 170 173 211 221 168 101 95 102 110 102 141 215 164 9 33 44 39 35 13 130 111 139 131 141 149 156 159 159 159 158 154 155 154 150 150 141 144 151 142 145 115 120 126 112 122 136 141 128 123 142 141 136 130 138 139 142 126 135 132 130 131 148 163 156 154 155 161 159 155 154 150 154 154 154 150 155 162 156 153 157 169 167 168 179 185 175 184 190 181 177 188 186 163 184 209 220 178 97 107 110 98 103 118 220 173 0 49 34 36 26 15 129 103 138 136 146 146 162 152 161 159 156 161 152 153 151 148 141 145 149 140 140 120 129 130 129 132 136 139 125 130 144 146 142 135 129 137 143 142 131 132 134 146 154 161 156 160 148 159 160 158 158 153 165 156 154 153 168 163 168 158 153 171 161 162 177 183 173 190 188 177 176 185 188 149 197 210 212 125 118 112 114 96 77 114 237 149 0 48 35 40 52 10 126 121 134 132 143 153 157 162 155 163 163 157 157 157 149 147 143 145 149 133 137 136 135 137 144 139 135 137 129 134 134 138 143 140 136 137 146 144 134 145 141 157 152 144 150 154 146 155 159 157 156 156 157 158 150 155 154 161 168 162 155 168 167 150 179 179 178 186 186 187 176 198 179 167 199 230 177 111 116 158 138 93 107 139 227 133 3 52 36 42 37 15 72 152 137 130 145 150 159 157 164 159 159 159 156 159 146 155 144 141 150 136 143 148 149 148 143 145 130 137 120 125 125 134 137 144 146 140 154 143 144 157 148 163 156 151 156 151 149 143 148 153 151 153 153 156 155 146 154 154 157 168 168 162 172 176 176 186 178 179 182 182 186 188 171 174 209 209 136 108 125 176 221 153 147 203 217 115 0 63 38 39 45 18 49 151 132 135 143 149 155 158 158 154 160 153 154 142 153 148 149 139 139 140 146 153 154 148 144 143 143 139 130 131 128 132 139 143 140 143 162 152 149 158 156 160 157 144 151 159 147 140 142 145 154 157 153 154 161 146 154 149 160 168 169 170 170 173 172 178 174 179 180 189 177 184 171 190 209 209 140 137 144 168 220 171 146 179 219 83 15 49 40 36 39 35 43 138 133 130 143 146 156 159 163 159 152 146 148 141 137 146 149 140 142 144 149 150 142 131 132 124 125 124 118 125 117 122 115 126 117 130 151 166 157 169 161 161 154 149 144 153 147 133 141 140 138 162 162 149 159 146 154 149 150 167 160 173 173 169 176 173 174 174 177 191 179 182 176 191 211 194 166 159 132 160 220 174 160 180 217 46 43 51 38 40 35 32 54 152 133 132 141 144 155 162 164 149 150 144 146 138 131 144 146 131 147 143 140 128 118 117 113 115 110 113 101 109 105 107 107 104 104 106 110 122 132 153 166 161 161 140 139 135 132 124 137 137 129 145 167 139 164 152 150 150 144 156 167 171 172 169 173 176 170 176 175 190 177 188 173 205 200 185 164 177 153 171 217 195 160 195 161 26 23 54 35 37 42 9 99 138 127 140 137 147 156 167 161 150 153 142 141 129 118 140 145 141 141 132 125 109 119 115 105 118 107 114 108 100 102 104 101 114 107 103 100 103 101 117 134 152 160 143 138 127 125 120 130 137 119 132 167 142 157 161 147 154 154 158 159 169 174 164 168 166 172 171 177 190 182 177 178 214 181 203 174 178 180 186 191 185 199 187 83 23 42 51 42 39 20 15 135 129 127 135 134 142 161 159 154 154 149 145 136 114 103 122 147 134 119 114 107 105 107 95 93 95 98 100 97 92 80 101 88 93 92 99 100 95 100 92 96 111 127 145 133 111 114 123 129 132 128 122 145 149 145 164 144 153 149 157 153 166 169 172 163 166 173 165 182 186 178 171 188 183 139 190 164 145 162 184 159 187 214 103 8 43 54 48 48 36 42 11 114 137 128 140 132 139 163 154 157 156 150 135 126 101 70 84 120 103 98 102 104 92 91 92 95 91 102 83 94 95 70 94 78 67 67 79 79 74 89 82 80 90 96 115 115 105 106 111 129 132 127 122 124 153 146 166 135 159 155 159 179 166 170 162 164 168 169 179 174 182 178 162 199 141 96 156 145 129 145 181 173 195 192 32 39 48 46 48 46 32 42 28 39 81 118 149 131 137 159 162 163 161 145 141 112 81 45 49 49 66 64 117 111 120 118 127 120 129 120 132 120 123 116 122 120 120 117 115 110 105 94 83 61 59 57 67 73 86 79 92 123 130 139 125 128 143 151 165 157 151 158 161 165 168 161 166 157 169 165 183 170 182 177 169 211 60 58 117 119 117 115 149 150 140 65 38 40 52 44 50 39 39 33 36 31 36 68 171 141 131 149 165 168 160 151 122 111 61 34 104 104 88 120 120 120 122 118 135 128 128 121 126 122 124 122 128 126 139 123 131 135 135 125 126 107 95 68 49 48 48 43 40 75 126 145 129 134 142 152 158 157 156 162 163 169 162 168 157 164 166 168 178 169 167 179 168 205 30 48 34 65 87 76 82 83 61 47 46 43 47 46 47 41 42 38 36 40 32 10 182 151 119 150 161 172 172 148 124 102 65 71 139 133 136 132 136 127 135 129 139 132 134 127 130 120 126 120 119 117 117 115 126 127 134 136 133 139 129 114 98 82 87 81 23 6 110 145 143 137 149 150 151 165 153 160 167 163 164 163 163 166 158 171 163 176 174 172 200 183 0 55 38 46 51 43 48 48 47 51 43 52 45 44 38 40 40 45 40 38 41 7 154 155 129 149 161 165 166 153 110 101 94 102 132 149 146 148 146 143 145 142 143 137 135 134 138 131 128 125 123 116 111 117 120 125 134 135 144 146 150 150 114 107 114 115 118 40 88 145 151 146 153 141 151 156 157 147 164 171 165 155 168 170 170 173 169 174 183 176 202 157 1 47 46 45 53 48 46 40 49 50 49 42 38 51 40 33 42 41 43 30 57 0 122 160 134 140 160 164 163 153 119 106 107 123 136 141 144 160 144 146 144 145 146 141 133 135 134 122 124 126 135 119 126 124 121 130 135 137 136 151 155 172 141 129 115 123 128 106 95 143 151 151 152 145 144 149 156 149 162 163 163 153 165 168 167 172 173 172 171 187 202 119 4 56 43 35 54 44 45 47 48 39 44 55 35 54 43 38 39 39 39 37 39 8 83 160 144 133 152 158 162 156 135 119 127 137 145 130 143 157 146 148 147 146 146 141 136 134 131 119 121 127 129 132 126 126 121 129 134 137 148 151 159 169 161 134 125 121 127 113 114 144 159 150 145 157 144 161 154 151 163 164 159 151 166 168 169 172 169 178 180 175 243 58 30 43 50 43 43 51 41 47 45 51 39 51 41 51 41 36 36 39 41 30 51 6 20 169 137 138 145 154 159 155 149 133 145 145 153 137 140 146 153 146 149 152 146 146 134 129 128 120 125 126 123 130 125 127 127 129 138 133 145 151 154 152 160 144 126 127 129 115 131 137 153 152 138 153 147 152 168 152 163 159 157 156 155 174 167 175 175 176 190 180 235 17 59 31 55 44 47 43 45 46 44 46 44 44 39 52 39 38 40 39 36 34 40 17 1 157 152 137 149 150 162 157 147 147 145 152 151 148 146 151 152 147 151 150 143 142 138 131 126 129 131 123 131 135 135 131 130 135 139 139 136 145 146 152 137 159 130 133 133 137 144 139 146 143 141 142 141 148 163 158 164 152 156 161 158 169 174 165 180 175 179 186 213 11 54 42 47 47 34 54 47 44 49 39 48 38 44 49 37 44 36 48 31 41 31 39 1 137 155 136 150 152 161 163 146 143 151 144 152 152 147 161 148 157 154 142 143 126 140 128 129 135 134 125 132 131 127 133 135 138 141 150 133 149 144 148 147 158 144 137 142 134 147 140 144 136 143 135 122 149 154 169 166 157 158 165 167 166 173 164 174 174 169 192 179 10 43 50 38 36 47 48 47 39 40 47 43 46 42 37 43 44 34 42 37 37 36 49 0 104 163 138 153 147 166 165 149 144 151 152 150 155 146 160 155 159 148 154 141 148 143 149 137 146 144 130 128 138 128 132 135 146 138 145 146 153 149 152 149 157 152 139 149 141 139 147 149 146 140 149 134 153 158 155 164 148 165 168 169 176 167 163 175 174 136 201 134 7 50 46 45 44 50 47 48 40 43 33 47 38 42 37 43 51 38 43 32 36 35 42 5 54 187 139 152 149 162 159 154 142 147 155 154 153 154 165 165 149 156 152 149 155 150 145 148 147 152 140 143 149 147 137 129 151 146 155 152 158 157 155 160 161 154 137 152 146 144 144 139 143 143 133 147 154 164 161 162 151 164 170 166 174 175 170 171 167 135 203 111 11 45 47 43 42 45 43 50 43 37 38 45 36 40 48 43 37 44 34 38 36 41 31 48 8 163 141 133 156 150 154 151 146 153 154 150 152 155 162 155 145 155 151 146 159 161 152 152 152 154 146 151 152 146 148 158 150 156 162 160 162 166 155 154 160 159 152 152 147 156 136 144 133 146 130 156 136 171 143 161 148 152 176 161 170 164 168 174 155 142 218 30 19 51 41 44 47 41 53 39 43 36 51 40 41 44 42 39 39 35 46 38 33 42 29 54 1 114 150 128 151 143 157 151 133 156 145 149 148 155 151 152 137 152 149 142 151 165 154 155 158 147 150 158 147 146 161 161 152 151 165 158 159 167 166 147 154 166 157 149 143 159 145 139 127 141 139 157 143 160 151 157 150 155 173 167 165 162 161 174 142 169 224 0 20 54 47 50 42 47 45 37 43 35 53 39 40 44 37 37 37 39 43 34 36 35 37 25 19 17 150 141 150 138 151 156 137 147 143 144 147 150 148 146 146 154 153 153 154 157 146 157 150 146 153 151 155 157 157 163 157 155 155 156 161 152 162 165 156 162 166 157 145 151 150 142 144 137 149 160 156 159 148 157 157 156 165 172 162 165 157 152 151 193 195 0 29 42 44 46 41 51 40 36 41 43 42 39 30 47 43 37 41 39 40 29 40 29 37 38 38 0 127 128 154 142 146 150 136 148 136 144 147 144 148 149 152 156 165 155 159 150 146 152 149 148 148 152 155 153 161 162 160 160 156 156 160 161 157 169 159 162 170 154 156 148 154 138 149 139 158 161 161 156 161 156 153 160 166 164 163 162 154 150 168 195 179 0 49 54 49 46 43 44 44 34 51 34 51 39 35 42 38 40 34 42 38 35 31 37 30 39 37 3 67 154 147 146 144 153 143 148 143 142 135 148 150 155 155 159 168 154 157 153 153 146 145 148 149 153 158 156 153 160 161 151 161 147 155 164 157 161 172 155 162 148 149 153 152 148 138 142 161 146 164 159 143 158 151 155 164 168 158 160 144 163 169 214 164 0 43 48 46 44 42 42 39 40 41 35 37 41 35 39 36 45 41 36 36 36 35 35 36 37 30 48 8 150 150 151 143 146 136 149 144 137 131 147 141 152 151 163 157 153 158 148 155 146 143 146 147 150 154 152 149 152 160 148 155 151 149 153 147 146 158 158 156 158 152 150 140 154 143 142 146 155 149 166 137 149 158 165 150 161 152 149 148 176 171 224 139 0 38 51 49 44 47 45 38 42 41 40 31 40 42 35 38 42 48 38 35 37 41 31 37 45 36 29 18 5 145 150 140 141 146 149 141 139 144 140 150 145 158 155 152 149 151 143 147 146 138 145 146 149 151 149 148 157 147 144 145 151 146 146 141 151 147 162 157 144 151 151 146 148 159 148 155 160 157 166 145 154 153 154 153 146 148 136 165 179 185 221 116 0 52 48 44 45 46 38 47 37 45 36 36 39 38 37 34 43 39 37 33 37 32 39 39 41 38 33 41 4 86 152 144 131 139 146 147 136 148 141 142 145 161 148 160 143 150 141 149 148 132 142 139 141 146 146 139 148 144 146 131 146 142 147 147 139 147 157 157 148 148 147 150 147 153 148 152 154 149 152 155 153 150 146 153 148 142 141 169 167 174 249 92 8 50 38 46 32 39 44 36 42 43 40 38 38 36 39 37 40 42 31 38 35 37 43 38 31 42 35 35 35 11 146 157 138 131 146 147 137 142 142 150 146 168 139 155 149 140 141 151 149 145 143 145 126 141 136 143 137 136 140 128 134 134 136 145 121 144 157 150 154 149 149 149 140 169 148 146 145 145 149 157 157 145 152 144 140 150 159 176 173 184 231 73 3 52 33 46 41 39 37 49 37 42 38 42 42 44 38 35 45 43 40 31 42 30 38 38 33 39 35 36 33 30 26 133 140 137 133 133 137 144 138 148 145 147 140 141 149 138 136 145 138 138 141 140 130 130 135 130 129 133 126 126 131 123 138 134 122 143 148 152 148 144 143 143 136 150 151 147 143 126 142 150 154 133 139 140 138 160 162 170 175 187 237 38 32 47 53 40 50 38 47 43 38 43 34 37 41 38 43 34 40 42 41 36 33 45 31 35 35 37 36 40 35 42 7 33 150 146 127 127 140 130 148 138 144 142 136 132 138 129 137 135 135 129 133 129 129 130 130 120 117 123 130 121 130 119 125 123 132 132 135 146 141 131 148 130 134 143 147 149 145 142 142 151 151 143 129 149 160 172 174 170 187 181 239 35 48 45 47 37 39 44 42 40 39 45 38 38 39 45 37 44 34 37 37 43 37 36 39 39 38 38 38 36 40 33 41 22 71 148 140 119 141 136 141 133 140 157 138 137 132 121 134 127 133 126 127 126 122 124 121 118 100 121 114 113 127 108 113 123 122 135 134 135 138 140 135 136 134 147 142 140 145 150 141 148 134 138 139 154 169 171 169 173 177 202 214 21 29 46 51 39 34 44 38 36 31 39 42 40 40 40 37 45 40 37 34 42 36 35 46 38 39 36 40 35 50 32 38 29 0 142 134 128 122 134 133 135 129 161 134 129 130 122 129 127 127 124 123 123 116 116 110 109 105 110 117 107 113 113 102 111 127 133 134 129 136 136 133 128 135 145 141 135 140 145 142 145 131 135 152 145 168 171 174 173 174 208 215 6 45 44 51 41 32 41 42 38 43 29 44 42 43 40 38 40 41 41 39 33 37 38 38 40 34 41 39 36 39 35 42 32 7 132 143 127 121 135 126 138 130 141 137 125 127 135 124 131 121 113 120 114 118 116 109 108 99 110 109 103 105 102 104 108 122 122 126 128 129 130 130 128 137 134 141 137 131 145 140 132 135 148 160 162 170 175 174 173 185 211 169 5 48 53 44 39 42 36 29 37 46 34 40 39 44 44 41 35 45 44 36 44 34 43 41 42 36 37 45 34 42 38 26 39 0 121 151 141 118 123 122 127 131 126 138 127 126 138 122 135 124 108 122 111 112 109 113 101 99 106 93 101 103 98 87 110 113 112 122 123 122 122 128 124 132 130 136 134 130 142 129 117 152 137 164 168 174 170 174 180 177 213 141 18 21 54 47 34 39 29 38 33 41 44 45 45 40 50 44 37 38 38 39 44 40 39 41 36 40 37 36 41 35 38 35 44 0 104 153 139 135 138 115 122 125 126 125 125 129 122 117 127 114 114 118 113 111 104 102 98 99 95 84 94 94 93 90 102 103 107 109 112 126 126 119 113 127 125 126 127 118 123 125 144 153 164 154 170 162 172 172 186 168 212 125 9 45 52 39 43 36 37 37 28 40 49 44 48 45 37 42 46 40 41 47 34 44 35 43 39 36 39 34 42 35 36 39 38 0 71 148 144 125 152 139 121 119 123 117 120 121 119 110 117 112 103 108 110 104 103 96 97 89 88 89 88 90 91 93 95 102 101 107 105 113 120 117 109 125 120 113 120 110 125 144 150 160 165 161 167 161 177 186 180 175 212 86 18 38 47 48 38 38 40 40 35 34 37 43 47 50 28 42 46 39 40 35 46 34 38 40 38 36 38 45 39 39 35 41 43 0 65 159 145 135 135 147 146 143 123 111 113 120 107 114 119 114 105 106 108 104 100 100 96 92 91 93 86 85 82 85 93 94 95 97 106 107 106 113 103 109 94 110 124 133 151 157 152 158 160 162 151 156 172 184 178 164 205 62 15 42 49 38 39 35 47 36 40 36 40 40 44 48 43 41 50 37 40 41 38 43 41 44 36 42 39 41 38 36 43 30 46 5 45 154 150 137 143 137 150 144 155 139 122 126 110 123 116 117 111 112 107 108 103 113 105 96 89 105 87 88 82 96 88 93 94 97 97 102 103 92 99 100 115 133 148 153 152 160 157 156 151 159 162 165 167 170 174 174 200 19 16 50 41 38 36 39 50 39 32 38 40 37 44 44 48 39 37 38 38 43 45 38 45 36 39 40 38 43 40 32 41 36 41 23 34 163 149 143 138 150 141 139 146 145 157 148 144 124 119 115 112 119 108 121 113 102 116 91 102 101 100 89 97 91 93 91 94 85 84 74 86 92 107 139 158 143 162 153 158 148 138 154 134 157 165 162 172 166 182 183 194 0 30 34 41 36 33 44 53 45 46 32 35 44 42 43 36 41 35 40 36 40 38 40 39 40 36 41 39 47 37 35 38 36 45 0 31 161 155 152 147 154 153 144 136 133 157 154 157 150 145 140 127 119 118 127 111 102 108 108 101 104 98 92 95 78 81 65 72 64 78 89 116 127 122 154 154 147 160 152 151 145 137 160 159 159 173 165 179 173 172 186 176 15 24 51 33 36 35 39 51 45 43 41 35 46 50 38 35 37 34 43 