P2
92
112
255
45 45 48 48 42 43 40 46 45 44 46 45 46 45 43 51 61 57 67 72 71 56 68 64 58 60 71 62 47 56 55 62 55 50 72 99 92 80 79 88 66 58 59 65 60 80 68 87 80 66 69 65 83 80 71 78 83 106 82 76 81 76 62 56 70 79 71 71 63 51 53 51 53 51 51 48 52 53 55 50 54 52 53 53 51 48 56 51 54 53 51 54 46 42 49 48 43 40 45 44 40 49 44 44 42 50 45 57 56 62 61 60 49 58 67 55 56 62 56 47 53 47 53 48 66 58 71 101 74 75 73 76 63 67 63 73 63 68 78 97 71 65 64 71 81 79 58 73 90 92 85 92 91 65 71 69 72 74 85 67 72 66 53 50 49 53 51 47 46 54 49 52 50 51 55 53 50 51 50 52 55 53 52 55 44 48 45 45 45 38 45 42 44 52 44 43 42 42 50 59 56 51 62 43 46 55 57 51 55 55 39 59 51 41 54 45 60 63 80 86 65 66 76 68 57 67 79 72 59 61 89 81 66 60 70 75 76 59 55 77 83 78 72 95 100 60 70 70 70 78 89 68 77 84 66 49 51 55 47 53 48 49 56 48 52 50 51 55 52 52 53 51 50 48 58 48 44 46 43 45 47 43 44 43 43 48 43 45 45 55 53 49 62 46 57 56 56 53 54 48 55 53 46 61 57 38 53 49 59 77 82 67 70 59 74 64 42 52 78 64 65 75 77 67 73 77 72 86 60 43 73 72 66 60 59 89 86 63 64 82 63 98 102 71 76 92 74 69 50 52 53 47 55 52 51 53 44 55 53 48 52 48 52 54 49 49 56 51 48 46 42 45 47 42 44 42 47 50 44 48 40 80 80 35 59 50 53 56 50 42 52 50 61 53 54 63 56 40 52 53 77 79 70 66 56 68 70 59 25 38 52 74 45 90 77 50 78 81 67 80 54 49 70 59 56 53 72 68 64 68 69 74 85 95 95 82 72 79 93 88 61 58 54 51 50 48 49 52 50 51 56 48 52 46 51 56 49 53 51 49 47 49 44 43 44 45 45 45 43 52 48 36 57 73 67 38 55 51 52 51 52 48 52 46 66 64 42 59 61 29 41 63 81 80 57 62 47 75 63 48 20 31 40 71 37 91 65 52 71 81 67 73 53 49 58 55 44 67 75 55 56 64 78 81 87 85 98 85 78 91 100 80 76 73 49 52 52 52 44 50 50 48 51 49 54 44 49 55 49 46 52 46 46 45 43 48 41 47 49 44 40 55 44 34 75 61 56 52 59 50 57 57 52 57 54 52 72 58 37 51 65 21 39 79 91 75 61 64 38 93 66 37 20 23 42 59 44 81 51 52 56 84 54 80 51 40 47 34 61 65 58 50 65 68 74 87 72 72 94 80 93 96 84 83 82 80 64 54 47 48 49 46 43 48 47 52 47 48 47 51 47 48 46 53 44 43 49 42 46 47 43 43 47 46 42 47 75 62 57 44 58 51 56 44 59 60 50 46 64 52 29 45 82 24 49 84 87 79 58 58 25 86 80 34 18 15 40 47 46 57 49 45 52 79 59 64 56 30 37 29 76 55 43 51 61 67 76 74 69 79 87 89 97 86 85 92 78 77 70 59 46 46 44 49 46 44 51 48 50 50 49 50 49 53 49 47 46 44 41 47 49 44 39 48 43 36 44 52 71 68 55 46 50 53 64 39 54 64 44 35 39 58 37 22 89 32 52 87 92 77 66 39 23 74 78 47 12 18 27 42 46 34 55 37 61 73 61 44 45 38 37 52 64 41 45 43 73 63 67 73 86 80 79 83 79 80 94 89 82 82 72 63 53 49 43 48 48 44 51 47 49 49 48 46 54 48 50 49 42 43 45 47 40 49 39 52 43 27 37 59 63 71 47 53 48 56 52 53 43 60 45 25 38 41 39 19 64 68 45 94 95 84 62 43 16 59 69 67 16 22 25 32 44 32 47 30 62 69 51 32 28 34 37 58 55 32 54 45 76 79 82 82 82 105 87 71 79 82 93 95 81 69 81 84 73 57 54 40 43 47 49 49 49 47 47 47 51 48 47 52 42 45 42 46 43 48 43 54 36 37 46 56 66 66 63 63 52 46 54 47 45 66 40 33 24 38 38 23 41 69 58 82 97 100 48 68 12 53 44 88 36 25 23 31 46 32 40 25 43 62 42 35 22 31 41 47 40 39 61 57 68 72 84 83 78 85 78 69 75 99 87 81 82 73 78 90 109 69 47 48 37 47 50 48 47 49 47 50 52 43 48 47 42 42 44 42 47 47 49 41 32 40 44 53 63 64 71 69 65 42 47 51 35 83 48 36 24 27 35 28 32 41 64 62 84 100 44 52 34 34 44 81 75 27 22 25 43 35 40 25 35 51 35 38 21 32 35 37 34 35 51 60 56 69 71 71 73 67 64 70 107 100 80 79 88 83 78 84 108 80 44 46 45 47 48 48 50 47 48 46 52 44 48 49 40 45 42 39 49 43 55 47 49 74 81 62 58 71 66 70 73 65 38 50 31 67 68 45 32 24 24 38 29 28 44 51 58 88 63 34 43 36 33 68 88 62 28 30 35 36 45 33 34 51 36 38 24 35 27 42 35 32 36 55 50 66 64 68 69 78 75 79 80 107 76 83 105 84 81 80 94 97 48 38 47 51 49 48 44 48 45 50 53 44 48 52 45 42 40 49 39 45 51 67 76 98 104 78 67 56 62 75 53 61 60 43 41 39 55 47 39 35 24 25 35 23 41 43 44 66 77 55 38 39 36 45 65 74 58 41 45 39 37 50 34 48 42 35 34 31 30 44 35 28 37 47 45 51 72 63 68 73 75 80 83 98 83 83 92 75 73 71 77 73 69 41 48 49 50 48 51 45 46 48 50 50 44 53 51 42 41 49 38 46 58 73 83 117 110 79 69 67 61 72 63 51 52 51 50 41 36 46 39 43 35 21 30 32 37 46 42 50 67 66 48 35 48 51 50 62 74 67 68 52 46 33 54 53 51 39 37 34 35 36 40 27 41 38 42 56 60 66 67 61 62 67 67 81 78 76 78 66 56 61 69 68 83 84 47 50 48 49 46 48 47 51 52 49 45 50 52 40 39 36 46 54 70 87 94 104 98 66 52 56 54 43 74 52 47 50 48 45 51 34 46 39 44 30 34 33 36 44 50 43 55 70 57 48 43 55 49 51 61 72 68 52 64 51 40 55 60 55 56 43 45 37 43 47 47 40 48 47 48 44 43 40 46 56 62 75 72 71 55 69 64 70 76 71 59 122 96 46 51 44 54 45 48 48 49 51 49 45 46 35 33 32 39 37 57 78 94 96 80 62 47 41 38 46 47 51 45 40 48 46 44 44 47 47 43 45 43 39 43 41 50 50 48 55 57 57 53 39 47 54 60 57 69 58 52 67 56 50 55 62 59 55 52 59 55 61 58 55 56 55 55 55 48 52 54 53 59 68 80 80 74 62 58 76 102 82 77 71 88 76 54 47 48 51 45 50 49 45 48 50 45 44 25 32 35 37 42 74 82 72 56 50 48 39 32 42 55 47 46 43 43 39 40 39 45 47 44 44 43 48 50 54 50 55 56 46 63 65 63 49 57 67 67 53 56 70 63 71 72 71 68 68 64 72 75 76 78 71 86 80 77 85 87 69 66 54 49 57 44 48 70 65 82 78 58 83 108 94 65 78 71 62 62 58 45 48 49 45 55 45 49 48 49 49 29 34 38 40 43 73 81 69 57 52 44 43 43 44 45 46 49 49 46 43 47 56 57 49 52 52 59 57 62 75 68 73 80 79 79 86 77 70 84 83 79 74 74 93 94 102 93 107 109 108 105 105 117 115 99 102 97 107 109 115 123 108 103 104 62 51 71 54 47 62 60 64 51 77 87 74 66 78 79 57 34 70 61 46 50 47 52 47 49 51 46 38 33 28 36 36 45 73 87 73 63 52 42 44 45 49 43 39 51 54 62 61 67 66 69 67 74 80 82 85 94 91 97 107 106 117 106 108 109 112 114 106 107 113 122 128 133 140 133 142 145 139 139 144 144 147 124 133 108 131 137 142 142 135 133 122 122 74 52 42 41 42 57 52 61 65 84 53 65 94 102 87 39 47 61 60 48 49 50 53 43 48 39 43 37 36 44 57 72 72 77 59 50 40 40 39 45 47 45 52 65 71 77 77 78 84 92 98 103 100 108 116 111 113 124 128 127 139 128 131 138 137 135 141 139 140 147 147 149 156 158 162 167 161 160 161 161 167 153 143 139 129 156 153 147 144 145 136 133 123 95 39 33 35 52 57 54 60 52 55 43 76 96 106 75 38 50 63 50 51 52 49 60 45 38 39 38 46 59 81 83 71 52 44 43 41 36 41 44 47 58 74 86 98 89 96 102 103 117 120 118 122 129 125 130 139 142 146 145 146 134 137 150 151 160 162 163 164 155 154 155 163 166 167 173 168 170 166 163 168 155 155 165 137 161 161 169 154 153 142 135 149 133 87 26 28 24 71 58 46 63 47 40 62 97 98 84 66 40 58 54 44 53 48 54 50 39 43 41 61 65 62 71 51 44 43 34 38 42 47 49 59 74 85 97 101 104 114 124 130 129 132 134 134 136 141 153 154 157 157 154 147 141 147 157 163 163 169 164 165 163 162 164 166 170 168 171 174 167 170 170 172 168 173 166 147 177 167 176 167 167 164 149 159 164 139 62 23 31 48 56 45 62 57 44 36 79 75 76 72 61 44 52 53 52 53 50 55 38 36 41 54 49 43 50 46 47 45 44 43 53 60 56 80 87 89 102 116 121 130 141 133 131 135 142 146 157 160 163 163 164 160 155 152 149 153 165 164 165 165 162 166 168 169 173 170 170 171 168 174 174 178 173 169 181 178 166 157 190 175 179 176 174 177 170 161 168 176 120 43 35 39 50 46 57 69 63 51 41 78 75 109 75 49 54 46 54 49 53 47 21 38 39 54 50 48 57 49 50 49 54 46 53 69 79 91 108 119 132 131 136 135 134 139 146 154 163 168 170 173 174 174 159 158 159 148 157 161 167 166 169 162 165 170 176 173 179 169 172 172 168 164 175 178 179 178 176 184 164 175 183 186 179 184 183 177 182 171 167 182 175 111 34 25 49 46 48 64 75 82 68 90 97 102 58 49 49 48 51 52 52 49 24 31 39 52 49 47 49 45 44 53 52 41 59 87 105 109 125 130 135 135 143 143 157 161 159 169 174 171 171 177 179 171 163 166 161 159 162 166 165 163 167 164 171 175 178 174 177 174 171 176 167 163 173 179 181 184 182 168 163 192 188 191 189 184 185 183 180 177 177 174 188 160 76 32 38 36 55 57 79 68 115 89 108 115 75 28 41 58 53 49 53 50 29 29 40 53 47 38 46 46 60 60 50 45 76 110 115 126 138 141 142 145 161 159 167 164 164 174 173 176 177 180 180 176 169 166 168 166 170 172 158 160 171 172 177 176 180 178 178 177 179 178 174 174 179 180 187 179 169 166 183 191 191 192 196 187 188 187 185 184 181 178 185 190 114 57 40 31 35 77 67 73 85 138 81 99 82 58 36 50 58 47 52 50 23 29 37 68 45 34 49 58 52 50 37 57 104 120 128 142 144 149 151 158 164 161 166 164 170 173 177 186 185 188 184 183 174 174 167 172 177 170 166 165 176 178 176 180 178 183 182 178 182 179 180 177 180 183 192 181 171 180 189 187 188 186 191 189 188 185 190 186 186 183 180 199 152 85 44 41 33 58 92 62 69 128 130 60 53 59 45 43 55 49 48 51 24 35 45 57 44 39 57 52 44 34 35 85 114 127 132 144 149 153 156 161 161 163 163 171 173 181 180 190 187 190 184 186 182 179 168 172 172 172 172 171 177 177 176 183 179 183 184 179 182 180 186 184 187 185 189 189 189 191 186 186 185 189 191 195 195 191 190 190 192 189 183 184 192 116 51 48 39 48 84 97 53 104 106 80 53 37 42 40 54 47 51 51 29 40 50 56 45 44 52 40 37 29 54 104 123 131 134 146 149 154 160 160 163 164 167 172 177 180 179 188 185 191 182 183 183 176 172 171 174 178 176 175 179 180 182 186 186 187 188 185 185 179 185 187 184 189 189 192 188 195 181 176 187 191 191 197 196 194 191 194 193 189 186 184 195 159 72 42 48 51 77 100 92 66 81 65 65 43 32 35 52 52 51 51 28 38 51 41 37 49 39 36 34 37 80 117 135 137 138 148 149 158 161 162 159 164 171 174 178 184 181 186 187 189 186 183 184 178 177 176 176 180 177 182 184 185 186 189 188 189 190 188 186 188 188 190 187 188 188 190 188 191 181 163 180 190 196 195 194 197 195 194 194 191 192 183 196 184 115 55 37 50 99 84 108 79 67 45 76 48 35 33 43 57 45 47 27 43 46 32 44 46 34 42 29 64 96 123 135 139 141 146 151 161 162 166 159 165 174 178 177 185 185 186 189 192 185 187 186 185 178 172 181 180 180 183 185 185 189 190 188 192 191 189 190 188 187 191 190 189 191 192 189 192 190 188 187 193 198 195 196 197 195 195 196 192 194 187 187 199 146 85 39 38 99 113 83 85 65 41 62 59 34 34 46 52 49 51 33 38 34 40 51 36 45 38 29 79 104 124 140 140 142 142 155 158 166 166 166 169 176 177 180 182 185 187 187 188 187 185 183 190 180 164 182 185 181 185 187 185 189 192 190 194 192 190 192 189 190 188 191 191 192 193 187 193 190 194 193 196 195 198 198 195 196 198 196 196 194 190 185 193 183 113 54 36 68 118 100 74 57 51 44 62 38 33 40 54 47 47 33 24 34 56 45 44 52 29 41 79 101 123 138 145 137 139 158 161 164 165 175 171 177 179 182 181 186 184 184 187 187 184 180 189 185 179 185 183 181 185 183 184 190 189 190 194 191 187 191 191 189 188 190 191 194 195 192 193 192 194 194 198 198 196 197 195 196 199 198 197 194 188 186 188 196 153 80 41 79 90 105 79 50 38 46 41 42 33 41 53 52 52 22 21 55 66 44 60 38 23 54 81 97 125 139 143 143 143 158 161 168 170 177 176 178 182 182 182 184 178 175 185 187 186 183 186 186 181 186 185 185 185 185 192 190 189 189 189 190 190 187 192 189 191 191 193 194 192 196 194 196 192 196 197 198 198 195 199 196 199 199 197 196 192 186 184 195 181 90 63 97 123 91 69 63 31 41 35 34 34 30 49 54 55 21 34 68 72 60 55 24 40 62 80 93 125 137 142 143 144 157 158 169 170 175 178 180 184 182 182 183 175 182 183 185 183 186 184 188 185 186 187 187 187 187 194 190 193 189 189 194 189 189 192 191 188 191 190 194 193 196 193 197 193 198 198 197 196 197 199 194 195 199 200 198 193 185 181 193 193 114 61 106 137 79 68 53 38 45 50 31 29 23 46 52 50 24 45 57 71 77 37 23 61 68 81 102 121 136 145 143 148 154 161 169 173 179 180 184 180 182 182 178 180 184 186 184 184 187 190 185 188 191 188 191 189 191 191 191 191 189 189 194 193 190 192 192 192 192 193 192 193 195 193 195 196 196 199 198 198 199 197 195 198 197 198 200 197 188 183 188 199 149 67 100 140 83 50 56 45 41 49 43 34 24 44 49 56 27 39 57 60 68 24 33 72 61 90 104 124 133 146 144 147 156 162 169 172 180 180 182 181 183 179 179 184 186 189 186 185 188 191 187 190 189 190 192 190 186 193 192 188 188 189 193 192 193 190 191 190 191 192 194 193 191 198 191 196 197 198 198 199 199 198 196 198 199 197 199 196 194 181 184 195 179 105 86 136 94 39 47 44 43 47 41 42 28 46 51 51 39 33 51 59 51 24 53 68 67 89 111 119 129 148 143 149 156 164 169 175 181 181 180 180 179 182 182 186 188 191 188 186 187 192 189 191 191 191 190 187 184 191 193 187 189 189 195 188 191 187 185 191 191 192 193 195 193 198 193 194 196 195 194 197 197 198 196 198 201 197 199 198 191 183 178 193 183 136 104 110 84 50 48 46 42 39 32 42 30 41 54 47 28 31 40 51 31 25 64 64 56 83 113 121 128 145 144 150 154 164 169 174 178 182 182 182 181 184 185 190 188 191 188 189 189 192 191 190 191 192 187 186 188 190 190 187 186 188 190 191 190 189 182 190 190 189 194 194 194 196 188 193 193 192 193 193 196 196 197 196 201 198 199 197 191 182 176 187 188 138 128 97 63 53 61 39 43 35 27 32 33 36 56 51 25 30 34 41 17 35 82 63 51 78 108 120 132 141 144 150 154 162 171 176 181 181 183 183 184 183 182 187 190 188 190 188 191 188 192 187 193 189 191 185 187 190 190 186 187 189 185 189 186 188 186 190 192 188 194 195 192 193 191 189 190 192 191 191 194 192 191 194 198 194 200 201 194 181 174 180 194 143 120 105 54 48 49 45 36 34 31 37 29 35 53 55 25 27 28 33 22 38 80 80 46 68 107 121 138 140 146 149 152 166 172 178 179 182 182 184 184 182 182 191 187 187 192 191 191 189 189 189 191 190 192 186 187 188 189 188 188 187 188 189 186 186 186 188 189 186 192 193 192 190 188 190 185 182 182 178 182 179 175 182 182 192 194 202 200 183 170 174 193 161 88 111 61 40 44 40 35 32 34 40 31 38 55 48 27 26 26 26 33 43 61 83 48 57 105 126 137 139 142 146 151 167 173 178 181 182 183 186 185 183 183 191 184 185 191 189 188 188 189 192 186 193 189 185 187 187 189 185 186 184 186 184 188 183 184 187 189 188 185 189 184 179 175 173 161 163 163 156 143 147 148 151 159 161 182 197 201 195 172 169 184 181 77 91 76 41 36 32 34 39 36 37 32 36 56 49 21 24 31 17 37 53 37 71 46 55 103 126 137 137 142 143 154 170 174 181 181 180 184 181 179 182 185 180 182 183 187 189 188 184 186 189 189 190 188 182 184 184 186 178 182 183 184 184 187 182 179 178 182 176 173 166 167 149 155 150 137 140 164 123 110 139 150 191 185 142 156 162 172 190 180 167 177 187 97 74 75 36 39 34 37 34 39 35 39 38 53 54 19 21 29 14 41 68 20 54 34 65 105 128 133 135 137 145 154 173 174 175 177 166 173 171 162 164 171 163 166 169 171 169 167 168 173 177 182 177 174 171 182 186 184 179 182 186 183 183 183 178 167 165 160 162 150 147 140 123 147 134 103 102 128 91 72 93 107 130 170 108 117 103 94 113 134 149 170 191 117 74 71 45 36 30 40 34 40 32 32 43 49 53 20 25 20 24 52 62 24 37 39 59 115 134 126 130 135 138 162 172 169 162 157 148 149 149 138 159 155 157 145 148 140 150 148 138 153 153 153 145 148 137 142 141 141 128 128 124 124 113 108 100 103 90 92 96 93 92 86 81 72 79 63 70 75 70 81 186 181 163 159 98 115 127 132 124 110 80 101 198 143 72 78 40 35 32 34 35 45 27 36 48 46 47 21 25 15 25 59 47 28 31 29 75 125 131 125 130 120 123 161 173 167 180 162 116 103 110 102 115 109 105 84 85 75 66 75 49 103 71 75 79 80 64 85 88 86 98 97 101 100 107 84 83 186 48 51 79 121 103 91 75 62 55 53 47 60 67 25 176 219 220 169 65 100 122 138 150 155 154 87 142 187 81 78 38 29 34 34 33 39 37 36 45 56 46 18 20 21 20 45 33 31 25 34 88 126 130 127 132 113 140 223 219 103 102 109 97 125 114 96 84 76 70 53 55 57 48 75 122 215 178 83 74 73 64 98 93 86 130 142 141 142 135 89 168 159 51 179 196 219 142 89 74 57 56 59 55 71 87 56 71 143 164 113 77 87 96 118 131 146 154 137 77 193 108 77 39 23 38 32 30 36 29 37 51 49 50 18 22 21 22 30 30 27 23 31 113 129 124 133 124 97 165 169 163 100 195 231 219 225 134 53 53 55 48 46 52 56 51 42 175 229 234 209 119 92 123 77 150 97 157 172 168 171 164 115 201 50 139 235 231 227 128 79 79 64 73 83 88 111 114 114 98 100 110 102 91 100 108 109 112 133 149 139 91 127 137 90 44 28 27 35 31 32 34 41 54 43 50 21 20 22 23 29 30 26 14 46 125 124 128 132 100 75 130 136 66 213 227 224 223 239 94 46 73 83 79 81 86 84 83 56 90 189 210 195 121 109 131 111 119 107 159 180 170 166 163 134 129 88 174 226 220 160 89 74 74 76 82 92 103 109 111 107 105 100 98 95 93 102 117 123 115 126 142 165 76 107 98 105 44 24 33 32 34 29 31 47 50 50 43 25 18 23 24 27 27 26 6 64 128 125 135 120 78 112 126 132 62 140 223 217 230 195 77 99 109 120 116 115 110 107 97 86 71 104 130 122 114 118 125 161 85 147 148 131 145 144 128 170 109 126 157 181 143 103 90 66 65 82 89 96 94 101 105 103 108 126 122 108 69 82 106 119 127 133 142 173 103 69 95 117 67 65 27 35 37 35 32 50 45 48 47 22 19 20 24 24 29 18 9 72 126 124 135 81 100 122 121 113 104 69 114 159 157 116 110 109 111 113 117 111 106 100 91 79 76 79 88 90 105 107 114 155 99 110 158 117 135 144 129 135 82 145 173 113 90 77 74 70 81 94 72 75 79 39 66 43 68 84 98 133 115 50 71 106 129 142 146 178 140 32 113 174 201 197 42 37 30 40 36 48 46 49 47 21 20 19 20 21 24 26 7 70 126 130 116 64 121 116 106 115 124 111 95 102 112 103 98 101 110 113 111 91 84 79 78 83 89 92 93 86 96 100 105 141 118 79 136 165 168 172 170 152 78 111 168 101 78 74 78 69 59 103 95 48 96 7 67 42 54 111 76 68 108 96 86 95 123 150 160 177 146 17 111 92 196 181 85 28 33 39 50 45 46 49 50 20 19 18 21 18 21 27 7 62 123 137 93 77 127 99 97 113 125 121 102 88 83 91 108 111 108 61 98 48 48 53 49 80 69 76 102 96 98 108 104 127 122 86 154 173 174 172 173 170 104 80 149 109 84 88 75 54 49 124 131 52 85 44 69 52 84 146 115 80 100 96 106 121 131 150 156 154 142 33 105 83 103 105 49 22 34 36 51 48 48 45 50 18 15 19 24 18 27 28 15 29 165 164 146 96 128 100 105 115 121 119 102 60 68 101 94 87 78 37 73 39 24 65 44 115 104 71 61 100 114 119 108 124 112 119 175 175 182 184 183 187 145 68 134 165 154 102 62 62 63 99 142 92 82 79 77 70 119 140 123 102 126 135 115 123 127 139 133 138 169 63 107 105 70 44 26 33 35 39 48 45 49 46 45 13 19 22 18 21 27 29 35 17 156 202 98 106 124 102 110 112 114 107 90 65 73 78 53 90 118 47 63 64 56 67 70 127 113 99 97 79 123 100 103 110 107 168 185 182 189 188 189 191 205 79 86 141 157 144 87 76 84 104 112 113 102 103 98 98 112 119 126 132 136 133 114 110 112 131 154 158 189 75 116 96 69 36 31 48 47 36 52 47 44 51 46 19 21 21 20 18 24 25 34 18 119 209 44 112 111 101 110 115 113 103 98 76 60 58 67 96 130 97 66 87 79 88 98 113 110 101 114 109 121 98 109 129 119 185 179 185 189 190 189 194 214 140 58 88 115 182 121 82 90 107 110 113 111 113 110 106 119 126 130 132 127 122 108 114 124 147 160 167 179 124 142 111 76 24 79 130 146 47 37 42 45 50 47 20 22 18 23 23 21 35 14 43 96 151 33 106 89 70 89 102 106 104 102 76 65 74 85 95 115 112 103 102 106 103 104 105 108 112 129 110 125 162 67 114 145 180 176 181 183 193 190 187 200 199 62 99 123 185 167 84 95 106 116 122 127 127 130 130 130 133 128 128 125 128 127 146 153 159 163 163 168 173 150 116 113 44 157 187 177 166 39 39 48 46 44 20 22 16 17 27 24 22 21 87 118 139 30 106 94 74 69 73 82 97 97 92 105 108 113 115 124 118 118 110 112 116 108 110 110 118 124 102 105 111 80 117 172 172 171 169 176 190 188 186 186 205 145 61 149 170 181 112 109 117 128 131 137 134 135 141 137 139 131 135 134 150 155 165 170 172 168 160 169 185 130 116 143 66 192 200 116 152 84 22 47 54 45 21 20 15 16 27 28 22 20 99 128 157 48 98 125 103 88 67 69 82 85 108 122 127 130 130 131 134 126 127 124 119 117 117 115 125 128 102 116 108 88 149 173 167 159 162 174 187 188 182 184 185 203 94 77 162 175 136 125 133 135 138 140 137 138 142 143 140 141 148 154 166 172 176 180 179 172 164 168 192 105 120 170 116 199 165 54 127 86 28 52 46 47 26 21 17 18 21 27 30 20 97 132 160 80 74 145 134 122 92 82 75 91 126 132 140 138 140 141 147 135 138 134 128 129 123 128 135 134 113 128 90 120 167 161 159 158 164 181 187 184 181 183 183 185 186 57 109 165 137 134 151 143 143 146 144 144 147 155 146 155 161 169 174 179 180 186 185 175 174 168 200 89 144 177 170 190 153 74 126 52 45 50 46 44 29 26 21 19 19 32 34 38 99 135 150 117 45 144 146 140 123 114 92 111 139 142 147 144 148 150 147 147 145 143 138 138 134 137 152 121 134 110 92 149 157 157 159 162 170 188 188 188 185 185 188 182 191 153 53 125 134 127 152 151 149 152 155 152 155 162 158 160 171 169 179 181 180 181 186 172 171 181 181 93 169 166 171 196 170 133 119 29 40 47 49 49 30 62 84 78 32 35 65 60 103 137 136 152 41 134 148 144 140 135 108 125 149 152 152 152 149 153 153 153 150 150 146 145 145 144 162 120 124 83 120 156 150 159 165 164 179 190 191 187 187 187 198 191 190 189 98 75 107 134 137 153 153 154 164 165 158 161 162 152 165 165 172 183 180 178 183 172 167 201 144 123 178 161 164 205 172 159 94 20 47 49 46 46 57 111 119 125 101 69 108 104 103 133 129 163 54 100 149 143 151 138 113 137 161 162 159 162 155 159 157 154 152 149 151 151 152 153 171 139 79 86 152 146 157 163 164 167 196 190 185 187 187 185 194 182 190 195 167 96 72 76 130 146 148 155 166 167 166 164 166 161 161 167 167 176 178 181 175 170 170 221 151 156 171 154 171 206 179 171 62 30 45 44 50 48 95 103 99 128 127 119 131 138 106 129 130 145 119 49 150 149 154 138 113 149 169 169 156 163 160 164 158 156 152 152 149 153 152 160 172 120 69 136 147 155 168 160 146 158 175 172 167 170 170 169 164 154 173 185 204 183 107 71 57 108 140 151 158 164 165 169 172 168 164 168 168 167 175 181 171 168 166 158 163 170 168 150 174 200 192 174 49 28 47 49 49 51 75 83 45 96 129 135 139 141 109 123 128 125 156 59 116 156 159 133 117 161 169 166 162 164 161 163 160 161 161 155 153 152 159 174 160 74 126 157 149 170 173 162 139 143 153 153 151 153 150 152 146 142 148 159 187 204 173 96 82 62 98 137 150 157 159 159 165 167 169 165 171 172 173 178 175 151 123 154 173 168 164 157 140 175 199 187 40 30 50 45 48 51 35 99 74 79 109 121 133 137 111 121 127 120 135 131 62 141 163 135 116 161 171 168 162 161 165 163 162 164 167 161 158 167 185 179 93 116 160 153 159 171 165 156 139 130 141 142 144 134 137 137 120 107 109 118 147 162 203 143 101 95 79 93 110 140 152 161 169 166 166 169 178 178 181 164 128 119 155 171 172 164 163 167 102 135 180 213 65 32 40 51 46 47 6 94 117 91 115 129 114 137 109 122 125 122 122 150 112 100 195 145 111 149 175 173 168 162 169 169 162 161 165 168 178 202 158 106 133 166 156 148 163 154 125 97 81 60 92 145 142 124 136 130 43 33 38 38 99 133 174 172 120 119 114 105 103 99 105 104 109 138 151 155 223 196 148 132 137 154 166 163 171 163 164 171 89 111 145 215 109 20 42 49 48 46 4 88 125 91 105 140 121 121 116 113 125 119 120 134 149 104 192 138 140 150 172 183 179 175 179 181 175 163 203 217 193 125 126 142 164 177 146 140 154 131 63 24 29 29 69 137 139 117 139 130 57 28 19 16 58 126 148 166 132 140 135 140 129 127 129 112 101 91 102 112 173 161 148 156 153 162 165 162 168 163 163 167 88 105 123 186 157 12 40 46 51 45 12 92 136 91 104 132 137 128 93 113 123 120 119 132 140 135 149 126 104 127 156 176 186 178 172 196 197 160 187 203 116 138 164 168 171 175 153 128 150 127 54 23 26 78 118 133 132 114 125 143 120 84 36 49 85 127 133 160 142 147 146 151 157 155 160 151 141 130 136 152 172 170 169 162 160 166 167 144 171 159 167 160 98 98 106 156 208 38 38 47 46 45 11 104 132 94 104 131 143 132 38 108 129 117 117 131 135 141 141 148 134 114 89 100 109 107 99 129 138 111 138 161 165 169 173 175 172 172 157 125 137 134 121 122 124 130 138 129 119 107 107 125 145 130 108 104 123 123 121 155 161 156 150 148 164 168 169 176 169 159 162 164 172 172 172 162 165 166 162 156 163 167 163 158 106 99 89 120 199 82 28 42 47 49 9 119 121 92 111 134 132 104 45 98 128 119 115 127 137 140 137 144 146 146 124 121 117 129 136 143 151 161 164 176 177 172 178 179 168 169 163 130 116 127 136 150 148 134 144 141 127 111 112 134 156 147 127 114 106 111 126 160 171 166 166 152 171 177 178 183 179 173 174 171 171 171 170 169 168 173 162 162 170 168 157 152 131 105 82 106 195 95 19 45 46 42 8 115 123 91 122 140 122 87 81 117 116 118 117 123 136 139 132 138 146 142 148 154 160 169 171 168 163 175 169 181 181 177 181 180 172 172 164 140 106 103 108 118 128 137 148 157 139 127 130 154 158 163 150 130 121 130 149 167 182 179 179 177 179 181 183 187 178 182 172 176 172 172 172 166 164 170 167 165 174 163 158 140 137 156 122 151 200 86 32 40 46 40 5 92 133 93 138 134 113 95 100 140 106 118 115 121 131 138 132 138 145 145 153 161 167 169 175 169 174 177 172 181 180 180 186 184 180 186 174 164 146 131 129 124 136 143 150 163 141 140 148 152 155 168 167 158 163 165 166 175 189 189 190 187 189 185 187 186 181 183 179 174 180 172 171 169 164 166 165 162 175 164 157 135 138 174 169 160 191 72 28 40 48 47 21 40 136 105 141 118 108 105 114 141 111 112 115 124 127 138 136 135 144 148 151 157 168 168 172 170 172 175 176 179 181 182 185 185 184 180 184 174 159 150 149 137 139 145 151 165 145 145 153 152 155 161 166 164 162 164 165 172 187 191 190 186 188 192 190 185 188 186 185 183 187 181 169 166 164 152 170 168 171 164 144 165 157 164 177 141 184 81 33 41 45 49 29 14 105 122 142 108 102 117 132 130 118 106 113 123 128 134 131 136 138 150 150 154 164 168 171 169 171 174 176 177 181 181 184 183 182 180 179 176 153 147 154 141 146 146 146 164 152 148 154 155 157 161 168 167 164 156 169 176 179 179 185 183 186 190 191 189 190 189 183 184 182 182 171 165 167 157 167 166 165 160 137 174 172 153 175 160 182 75 25 49 51 42 35 15 40 128 131 104 100 122 131 127 132 97 110 116 131 131 132 136 140 148 155 157 163 170 172 169 171 171 177 179 181 182 181 176 178 178 170 167 151 145 153 150 158 156 153 167 155 143 145 156 157 167 174 179 172 165 175 176 176 173 182 183 181 182 183 186 186 188 183 174 178 179 175 166 164 165 165 164 159 156 145 170 182 168 173 173 180 52 28 48 46 45 31 32 8 106 137 104 102 122 119 105 129 103 108 113 129 136 132 133 143 145 156 158 164 169 169 172 173 172 176 177 184 180 177 173 174 173 170 158 153 161 162 162 169 160 166 166 168 148 145 155 157 165 171 184 178 177 180 178 179 172 178 184 176 179 178 187 185 187 186 178 173 173 175 167 167 162 167 161 157 154 147 173 171 176 177 176 169 43 35 48 49 48 29 35 9 72 139 124 116 130 127 113 128 107 104 113 125 135 133 138 142 145 150 160 164 166 169 170 173 176 175 177 181 175 170 172 156 165 166 153 160 163 173 169 166 158 152 161 160 159 155 153 148 138 142 153 180 182 189 185 182 175 172 181 176 175 174 182 187 185 186 176 173 170 170 168 164 163 165 157 159 158 147 175 164 169 177 180 165 30 37 45 50 41 28 36 16 40 117 112 116 139 141 135 150 116 103 114 119 130 133 138 145 145 149 158 160 170 167 168 172 182 175 174 173 172 164 168 160 159 159 152 165 168 165 157 136 128 125 123 123 129 129 123 119 110 108 109 128 139 170 179 186 180 177 175 173 172 176 170 179 179 175 180 175 175 168 163 165 160 155 156 157 165 151 140 138 142 154 157 97 36 42 41 48 46 31 35 30 16 101 115 111 132 142 139 146 130 102 110 118 128 129 139 140 144 148 151 161 164 164 170 172 176 173 170 165 168 170 168 165 159 155 157 165 159 144 126 116 115 109 106 105 105 103 101 97 95 96 95 104 108 117 135 161 179 174 170 165 166 171 163 166 175 171 181 176 178 170 160 161 161 157 155 156 165 155 79 92 99 106 83 47 49 43 45 44 50 34 33 34 10 58 130 117 120 140 140 132 142 106 114 116 124 130 133 143 143 147 149 161 162 161 171 169 169 167 166 162 159 170 162 165 153 155 158 154 126 119 110 105 105 98 97 98 88 96 91 85 88 88 85 89 92 89 97 119 148 161 158 149 153 160 159 160 165 174 185 176 177 168 167 162 161 155 153 158 159 166 25 39 57 56 48 52 48 49 47 38 45 33 36 36 21 15 107 120 126 136 134 124 143 115 109 117 121 127 131 137 141 144 147 155 162 166 171 164 162 162 159 165 156 164 156 162 154 149 144 117 104 95 93 88 80 80 79 86 65 79 79 71 68 64 78 73 64 70 77 89 100 127 135 133 130 145 149 150 161 174 182 177 174 174 164 155 157 150 155 154 175 155 21 38 42 52 51 48 52 45 48 39 44 36 34 35 37 4 77 130 124 130 134 129 129 105 106 122 122 123 132 131 139 141 146 151 161 170 172 169 158 156 154 163 155 154 141 147 146 131 111 93 83 76 81 83 80 84 83 94 87 95 95 100 100 94 100 106 94 68 67 69 74 92 113 105 114 131 139 146 157 169 175 180 175 171 163 152 156 150 156 153 172 146 15 38 47 48 57 47 46 47 45 46 40 36 33 32 38 18 41 128 129 129 126 128 95 43 104 122 123 129 125 132 127 137 141 149 158 170 172 162 156 156 152 155 150 143 130 136 124 105 86 73 88 106 114 118 122 126 125 128 130 123 129 130 138 141 134 143 139 127 114 90 63 54 81 73 94 111 132 149 153 166 173 173 171 168 159 151 159 155 155 157 177 136 12 36 50 48 51 49 46 42 50 46 42 28 33 35 31 33 17 64 107 113 103 87 43 13 87 128 121 129 132 128 128 130 137 148 159 167 164 158 155 156 149 139 134 129 111 108 95 71 82 109 124 132 139 143 141 143 142 144 140 136 140 140 143 148 143 145 155 156 150 147 134 101 67 52 77 114 127 146 154 162 172 169 172 163 156 153 157 159 160 151 183 109 14 34 45 46 51 50 53 40 45 46 38 32 31 38 30 31 29 26 47 59 48 41 37 13 54 128 122 129 130 133 124 124 136 143 159 167 154 160 154 158 150 144 122 104 81 72 70 97 123 133 131 137 138 139 141 137 135 137 135 133 127 131 125 126 130 134 141 151 153 157 163 155 143 132 104 131 138 150 156 161 172 164 165 159 153 152 150 157 160 153 179 98 16 38 44 41 47 48 53 44 40 47 43 31 34 30 35 28 37 29 31 36 33 31 35 28 28 124 126 125 132 130 128 123 133 142 153 166 160 161 153 163 154 140 126 95 82 94 112 138 141 143 140 138 137 134 125 123 120 116 123 119 109 113 111 101 114 119 125 129 136 147 157 162 168 170 161 154 157 154 157 160 168 164 167 156 153 153 151 155 159 150 183 73 23 43 45 40 47 43 52 46 40 42 43 35 32 34 31 30 35 32 33 33 35 33 32 27 6 101 132 123 132 131 126 124 131 135 138 156 165 157 157 164 153 147 135 127 137 139 148 145 147 141 142 138 139 126 125 124 112 107 113 106 104 115 117 110 116 113 127 128 134 145 155 161 161 163 169 168 160 161 160 156 154 167 159 161 150 152 152 152 153 159 169 55 30 42 45 47 44 44 47 46 46 40 45 31 33 30 35 30 31 32 32 36 30 34 30 39 9 66 134 124 129 135 129 124 130 131 135 151 160 161 164 163 153 158 143 151 154 153 152 150 149 147 144 144 143 131 132 129 117 117 116 108 109 116 120 118 120 115 130 128 139 144 152 152 148 154 166 168 158 162 155 151 151 157 152 155 155 152 153 155 152 161 152 26 32 47 46 45 41 47 49 43 47 42 40 33 32 34 33 32 33 32 35 32 34 33 29 32 21 30 125 126 126 130 131 127 130 134 134 150 155 155 162 163 160 153 158 158 158 152 143 147 150 152 149 141 140 140 134 132 125 123 120 118 117 117 125 129 128 125 137 140 140 141 139 138 135 151 164 169 165 159 144 150 150 154 141 147 156 155 156 157 157 175 116 5 42 45 44 45 45 47 45 46 45 42 43 34 33 32 31 34 31 28 36 32 34 31 31 29 31 15 103 130 122 124 134 130 124 133 134 137 153 154 151 161 160 148 160 162 161 162 128 133 153 151 153 145 143 146 137 135 132 131 122 128 124 131 130 132 131 133 141 149 143 140 141 134 140 158 153 160 161 155 148 154 150 156 146 152 153 152 153 159 155 183 71 22 36 47 41 48 41 48 43 45 46 40 40 34 34 32 33 30 33 30 34 31 32 30 31 32 33 9 72 127 125 117 129 134 128 130 136 130 142 148 146 156 157 151 167 160 162 159 135 127 149 150 157 148 146 148 137 136 133 138 129 135 139 136 139 136 133 139 153 148 149 147 141 139 143 151 151 137 149 149 149 152 150 150 148 152 151 151 145 160 157 163 42 31 37 42 43 44 45 46 43 47 39 40 42 30 35 35 32 30 33 29 36 31 31 31 32 30 30 19 20 126 124 120 122 135 135 125 133 132 134 147 140 153 157 151 163 159 159 159 148 143 155 148 158 151 154 152 142 145 140 149 147 155 158 150 150 160 152 143 155 159 152 149 150 145 145 153 150 135 141 151 153 150 146 150 146 149 151 146 143 156 167 128 19 31 39 45 49 46 44 45 44 44 46 40 40 31 38 29 30 33 31 30 31 31 30 35 33 31 32 29 5 91 125 121 120 129 134 128 127 132 134 138 147 147 155 156 153 158 159 158 157 154 153 158 160 163 154 155 157 158 157 158 161 163 167 164 166 171 168 166 167 169 167 164 163 159 152 152 159 147 151 150 154 149 141 139 150 147 145 145 141 150 168 77 18 38 40 45 39 44 43 41 46 46 39 42 39 31 34 33 32 31 30 36 26 33 29 33 31 31 32 34 16 52 125 120 119 124 131 130 128 133 135 137 151 151 146 151 152 154 156 157 164 158 153 165 168 171 158 169 167 160 169 169 165 169 170 167 168 174 169 169 182 171 175 173 168 171 165 152 159 156 151 147 152 149 145 135 153 150 146 150 140 157 146 39 28 42 38 39 42 41 43 44 47 45 45 39 39 30 32 32 31 30 31 35 29 35 30 29 35 29 34 29 32 19 109 120 115 121 133 131 123 130 135 135 148 150 149 147 152 157 158 160 166 162 161 164 171 170 161 169 164 155 168 174 170 173 169 167 169 175 167 174 187 175 173 172 173 172 171 168 160 164 157 148 147 152 144 143 147 148 148 146 140 163 112 10 35 39 40 40 46 43 39 45 41 47 46 44 40 30 36 31 29 34 30 30 31 31 30 31 31 26 35 27 36 14 54 128 118 119 123 125 117 126 139 140 141 145 150 141 141 154 161 159 161 165 169 169 170 165 159 170 161 163 164 169 169 168 169 163 167 174 174 173 179 181 177 175 174 171 169 171 160 162 158 147 147 147 143 140 145 139 151 134 143 154 49 19 36 39 43 36 45 46 40 43 45 45 42 44 43 31 31 32 33 30 32 33 29 33 32 29 32 29 33 28 26 30 8 117 123 115 118 124 119 124 132 138 134 143 142 140 138 153 155 155 156 165 171 164 168 161 161 164 165 169 161 164 162 160 165 159 165 169 172 170 176 176 176 174 170 167 168 167 159 153 157 149 139 144 150 138 142 146 146 132 139 148 34 24 35 36 39 38 43 46 41 46 41 46 43 43 43 34 31 35 34 32 32 35 31 31 31 26 31 30 29 29 29 32 9 90 117 112 112 121 118 122 132 130 132 137 143 138 131 146 146 147 152 161 162 157 166 160 162 165 168 171 159 162 159 156 154 156 155 163 172 171 164 172 168 171 168 155 162 152 151 153 149 145 139 139 145 141 141 141 138 129 124 151 35 21 35 36 41 35 40 39 43 46 37 44 48 43 43 34 35 33 27 36 31 29 35 27 33 24 33 34 28 31 30 33 8 83 107 107 113 115 110 120 127 127 126 130 141 139 132 142 141 140 142 152 156 150 161 158 163 164 168 171 154 158 155 153 149 149 151 155 158 164 158 168 161 158 157 153 149 143 146 145 147 134 138 136 140 140 135 131 131 110 134 154 28 28 37 36 37 43 38 39 39 43 39 42 46 48 39 38 31 33 33 33 31 30 33 29 31 29 30 31 29 32 30 29 15 60 116 98 109 111 110 121 125 126 123 128 135 133 132 138 142 139 141 142 143 149 154 155 157 160 167 163 155 153 148 147 146 142 146 148 152 159 155 156 155 147 142 143 144 139 135 143 139 141 137 132 134 140 131 121 120 114 135 161 33 24 38 36 35 41 40 39 43 43 39 43 40 46 41 35 31 31 32 34 30 31 34 30 32 29 32 30 28 33 25 33 14 36 126 97 99 106 106 115 115 124 125 120 128 128 128 135 138 137 139 136 135 141 147 151 148 157 150 153 143 141 139 139 143 137 135 142 141 147 155 141 144 142 132 134 133 133 123 135 136 139 139 124 126 133 132 110 109 128 138 162 51 52 51 54 49 37 38 39 42 40 42 38 40 45 41 33 30 34 32 28 29 30 35 30 28 32 31 30 29 33 25 38 48 16 109 120 102 88 100 107 113 114 120 114 118 122 126 131 133 135 131 129 136 132 132 142 138 153 134 142 139 134 132 138 142 134 135 142 130 134 143 133 133 134 127 125 126 127 122 130 138 132 132 124 125 124 123 105 121 133 149 158 57 67 71 76 82 98 93 39 35 43 36 40 42 44 37 30 33 32 35 29 30 31 32 31 32 30 34 29 29 26 30 89 57 13 91 123 118 95 88 93 107 113 109 118 112 113 121 122 128 132 129 126 131 129 124 130 131 142 130 130 137 131 130 131 132 127 129 134 125 122 129 122 122 128 120 120 115 118 117 125 127 127 124 120 120 111 108 121 132 137 156 159 48 51 58 54 56 58 131 108 20 38 39 43 39 44 33 31 32 31 31 30 34 32 31 28 36 29 35 29 25 23 75 108 42 0 76 123 115 117 95 78 91 103 105 113 110 109 116 117 118 127 124 122 127 121 118 128 126 133 120 122 126 126 126 121 125 119 117 121 113 114 119 108 110 115 114 114 106 108 116 126 120 120 117 112 115 101 113 130 125 151 160 154 50 46 64 49 44 34 111 161 46 38 39 47 35 43 35 35 30 33 31 29 32 32 30 31 31 30 30 34 9 50 102 110 37 0 45 125 114 121 118 97 79 79 94 104 106 102 110 109 112 114 111 117 115 120 112 124 118 125 114 119 121 113 111 118 114 114 108 110 107 103 99 100 99 109 101 106 99 101 110 120 109 111 109 101 97 115 123 124 142 157 145 164 46 37 70 51 33 25 111 167 82 17 45 39 39 40 35 35 32 35 32 29 32 32 32 31 31 30 33 26 8 84 108 107 29 7 24 124 114 122 116 114 97 75 79 91 92 99 102 101 106 103 105 110 110 113 109 110 108 124 114 110 109 108 103 110 106 104 97 102 95 98 91 95 92 101 97 91 93 101 107 102 105 100 97 97 106 119 123 136 147 145 146 164 54 31 69 58 30 36 126 157 111 20 43 40 40 38 35 34 32 34 31 30 33 30 28 32 33 28 36 20 26 99 104 112 28 8 8 111 124 112 121 116 112 100 80 72 83 83 91 94 99 94 94 102 102 101 99 104 96 114 108 101 95 105 97 103 97 94 85 96 86 91 87 85 90 82 88 86 86 93 95 86 98 89 95 110 108 124 142 145 146 137 146 165 68 23 64 61 18 74 134 146 150 55 34 42 41 37 38 34 32 33 29 32 31 31 31 32 32 32 31 22 30 111 100 126 48 4 6 77 129 120 118 106 116 111 108 93 70 71 73 86 89 87 79 90 91 90 88 97 89 96 103 89 92 93 89 93 88 87 86 84 85 80 85 77 76 76 78 79 81 81 82 83 87 98 104 106 124 137 152 143 150 136 137 167 73 21 47 34 42 117 143 142 136 149 33 34 47 42 38 37 29 34 30 33 29 34 28 33 31 30 36 18 26 114 98 121 94 2 1 49 120 121 123 111 106 115 115 108 95 82 70 70 82 78 77 82 76 83 80 86 85 78 89 83 84 83 86 81 84 79 80 82 82 77 79 79 76 75 79 75 74 75 81 82 100 101 100 120 151 147 150 146 146 144 128 165 79 21 28 27 101 128 145 135 132 157 103 32 59 52 47 37 31 36 29 33 33 31 32 29 26 29 31 41 37 116 95 111 134 21 1 32 109 113 118 122 110 111 111 109 111 102 98 70 65 71 71 82 75 72 78 77 79 75 77 81 77 79 84 80 81 81 80 80 84 79 78 78 82 76 80 79 70 78 91 94 97 102 122 134 148 149 146 149 144 143 122 169 72 19 9 61 135 134 139 130 132 150 131 40 76 79 70 